<?xml version="1.0" encoding="utf-8"?>
<!-- Generator: Adobe Illustrator 19.1.0, SVG Export Plug-In . SVG Version: 6.00 Build 0)  -->
<!DOCTYPE svg PUBLIC "-//W3C//DTD SVG 1.1//EN" "http://www.w3.org/Graphics/SVG/1.1/DTD/svg11.dtd">
<svg version="1.1" id="Layer_49" xmlns="http://www.w3.org/2000/svg" xmlns:xlink="http://www.w3.org/1999/xlink" x="0px" y="0px"
	 width="24px" height="24px" viewBox="0 0 24 24" enable-background="new 0 0 24 24" xml:space="preserve">
<path id="color_21_" fill="#231F20" d="M20.5,17c-1.9,0-3.5,1.6-3.5,3.5s1.6,3.5,3.5,3.5c1.9,0,3.5-1.6,3.5-3.5S22.4,17,20.5,17z"/>
<path fill="#231F20" d="M16,8c0-4.4-3.6-8-8-8C3.6,0,0,3.6,0,8v3h16V8z"/>
<path fill="#231F20" d="M16,13H0v3c0,0.6,0.4,1,1,1h4v6c0,0.6,0.4,1,1,1h4c0.6,0,1-0.4,1-1v-6h4c0.6,0,1-0.4,1-1V13z"/>
</svg>
