<?xml version="1.0" encoding="utf-8"?>
<!-- Generator: Adobe Illustrator 19.1.0, SVG Export Plug-In . SVG Version: 6.00 Build 0)  -->
<!DOCTYPE svg PUBLIC "-//W3C//DTD SVG 1.1//EN" "http://www.w3.org/Graphics/SVG/1.1/DTD/svg11.dtd">
<svg version="1.1" id="Layer_49" xmlns="http://www.w3.org/2000/svg" xmlns:xlink="http://www.w3.org/1999/xlink" x="0px" y="0px"
	 width="24px" height="24px" viewBox="0 0 24 24" enable-background="new 0 0 24 24" xml:space="preserve">
<path fill="#231F20" d="M2,5h17c0.3,0,0.5,0.1,0.7,0.3l3,3c0.4,0.4,0.4,1,0,1.4l-3,3C19.5,12.9,19.3,13,19,13H2c-0.6,0-1-0.4-1-1V6
	C1,5.4,1.4,5,2,5z"/>
<path id="color_10_" fill="#231F20" d="M8,3V1c0-0.6,0.4-1,1-1h4c0.6,0,1,0.4,1,1v2H8z"/>
<path id="color_9_" fill="#231F20" d="M14,15v8c0,0.6-0.4,1-1,1H9c-0.6,0-1-0.4-1-1v-8H14z"/>
</svg>
