<?xml version="1.0" encoding="utf-8"?>
<!-- Generator: Adobe Illustrator 19.1.0, SVG Export Plug-In . SVG Version: 6.00 Build 0)  -->
<!DOCTYPE svg PUBLIC "-//W3C//DTD SVG 1.1//EN" "http://www.w3.org/Graphics/SVG/1.1/DTD/svg11.dtd">
<svg version="1.1" id="Layer_49" xmlns="http://www.w3.org/2000/svg" xmlns:xlink="http://www.w3.org/1999/xlink" x="0px" y="0px"
	 width="24px" height="24px" viewBox="0 0 24 24" enable-background="new 0 0 24 24" xml:space="preserve">
<path id="color_54_" fill="#231F20" d="M19,4h-3V1c0-0.6-0.4-1-1-1H9C8.4,0,8,0.4,8,1v3H5C3.3,4,2,5.3,2,7v2h20V7
	C22,5.3,20.7,4,19,4z M10,2h4v2h-4V2z"/>
<path fill="#231F20" d="M2,22h2v1c0,0.6,0.4,1,1,1c0.6,0,1-0.4,1-1v-1h12v1c0,0.6,0.4,1,1,1c0.6,0,1-0.4,1-1v-1h2V11H2V22z M9,14h6
	v2H9V14z"/>
</svg>
