<?xml version="1.0" encoding="utf-8"?>
<!-- Generator: Adobe Illustrator 19.1.0, SVG Export Plug-In . SVG Version: 6.00 Build 0)  -->
<!DOCTYPE svg PUBLIC "-//W3C//DTD SVG 1.1//EN" "http://www.w3.org/Graphics/SVG/1.1/DTD/svg11.dtd">
<svg version="1.1" id="Layer_49" xmlns="http://www.w3.org/2000/svg" xmlns:xlink="http://www.w3.org/1999/xlink" x="0px" y="0px"
	 width="24px" height="24px" viewBox="0 0 24 24" enable-background="new 0 0 24 24" xml:space="preserve">
<path fill="#231F20" d="M10.8,5.5L8.3,10h7.4l-2.6-4.5l1.7-3C15.1,2,15,1.4,14.5,1.1C14,0.9,13.4,1,13.1,1.5l-1.1,2l-1.1-2
	C10.6,1,10,0.9,9.5,1.1C9,1.4,8.9,2,9.1,2.5L10.8,5.5z"/>
<path fill="#231F20" d="M22.9,22.5l-6-10.5H7.1l-6,10.5c-0.2,0.3-0.2,0.7,0,1S1.6,24,2,24h5.4l3.7-6.5c0.4-0.6,1.4-0.6,1.7,0
	l3.7,6.5H22c0.4,0,0.7-0.2,0.9-0.5C23,23.2,23,22.8,22.9,22.5z"/>
</svg>
