<?xml version="1.0" encoding="utf-8"?>
<!-- Generator: Adobe Illustrator 19.1.0, SVG Export Plug-In . SVG Version: 6.00 Build 0)  -->
<!DOCTYPE svg PUBLIC "-//W3C//DTD SVG 1.1//EN" "http://www.w3.org/Graphics/SVG/1.1/DTD/svg11.dtd">
<svg version="1.1" id="Layer_49" xmlns="http://www.w3.org/2000/svg" xmlns:xlink="http://www.w3.org/1999/xlink" x="0px" y="0px"
	 width="24px" height="24px" viewBox="0 0 24 24" enable-background="new 0 0 24 24" xml:space="preserve">
<path fill="#231F20" d="M17,2c0-0.6-0.4-1-1-1H8C7.4,1,7,1.4,7,2v4H5v17h14V6h-2V2z M9,3h6v3H9V3z"/>
<path id="color_8_" fill="#231F20" d="M23,6h-2v17h2c0.6,0,1-0.4,1-1V7C24,6.4,23.6,6,23,6z"/>
<path id="color_7_" fill="#231F20" d="M0,7v15c0,0.6,0.4,1,1,1h2V6H1C0.4,6,0,6.4,0,7z"/>
</svg>
