<?xml version="1.0" encoding="utf-8"?>
<!-- Generator: Adobe Illustrator 19.2.1, SVG Export Plug-In . SVG Version: 6.00 Build 0)  -->
<!DOCTYPE svg PUBLIC "-//W3C//DTD SVG 1.1//EN" "http://www.w3.org/Graphics/SVG/1.1/DTD/svg11.dtd">
<svg version="1.1" id="Layer_1" xmlns="http://www.w3.org/2000/svg" xmlns:xlink="http://www.w3.org/1999/xlink" x="0px" y="0px"
	 width="32px" height="32px" viewBox="0 0 32 32" enable-background="new 0 0 32 32" xml:space="preserve">
<path d="M26.842,14.145C25.956,8.879,21.425,5,16,5c-4.678,0-8.758,2.883-10.335,7.234C2.348,13.062,0,16.026,0,19.5
	c0,3.907,3.042,7.201,7,7.5h19c0.03,0,0.06-0.001,0.09-0.004C29.404,26.697,32,23.844,32,20.5C32,17.418,29.792,14.77,26.842,14.145
	z M25.953,25L7.076,25.003C4.229,24.786,2,22.368,2,19.5c0-2.698,1.933-4.977,4.595-5.418c0.375-0.062,0.683-0.332,0.793-0.696
	C8.547,9.566,12.008,7,16,7c4.656,0,8.506,3.491,8.956,8.12c0.046,0.482,0.432,0.861,0.914,0.9C28.186,16.208,30,18.176,30,20.5
	C30,22.804,28.226,24.772,25.953,25z"/>
</svg>
