<?xml version="1.0" encoding="utf-8"?>
<!-- Generator: Adobe Illustrator 19.2.1, SVG Export Plug-In . SVG Version: 6.00 Build 0)  -->
<!DOCTYPE svg PUBLIC "-//W3C//DTD SVG 1.1//EN" "http://www.w3.org/Graphics/SVG/1.1/DTD/svg11.dtd">
<svg version="1.1" id="Layer_1" xmlns="http://www.w3.org/2000/svg" xmlns:xlink="http://www.w3.org/1999/xlink" x="0px" y="0px"
	 width="32px" height="32px" viewBox="0 0 32 32" enable-background="new 0 0 32 32" xml:space="preserve">
<path fill="#222221" d="M31,1H1C0.448,1,0,1.447,0,2v20c0,0.553,0.448,1,1,1h6v6c0,0.382,0.218,0.73,0.561,0.898
	C7.7,29.967,7.85,30,8,30c0.218,0,0.435-0.071,0.614-0.211L17.343,23H31c0.552,0,1-0.447,1-1V2C32,1.447,31.552,1,31,1z M30,21H17
	c-0.222,0-0.438,0.074-0.614,0.211L9,26.955V22c0-0.553-0.448-1-1-1H2V3h28V21z"/>
</svg>
