<?xml version="1.0" encoding="utf-8"?>
<!-- Generator: Adobe Illustrator 19.2.1, SVG Export Plug-In . SVG Version: 6.00 Build 0)  -->
<!DOCTYPE svg PUBLIC "-//W3C//DTD SVG 1.1//EN" "http://www.w3.org/Graphics/SVG/1.1/DTD/svg11.dtd">
<svg version="1.1" id="Layer_1" xmlns="http://www.w3.org/2000/svg" xmlns:xlink="http://www.w3.org/1999/xlink" x="0px" y="0px"
	 width="32px" height="32px" viewBox="0 0 32 32" enable-background="new 0 0 32 32" xml:space="preserve">
<path d="M16,0C7.178,0,0,7.178,0,16s7.178,16,16,16s16-7.178,16-16S24.822,0,16,0z M16,30C9.671,30,4.316,25.775,2.59,20H29.41
	C27.684,25.775,22.329,30,16,30z M29.84,18H16.549L9.844,7.463C9.547,6.997,8.929,6.859,8.463,7.156
	C7.997,7.453,7.86,8.071,8.156,8.537L14.178,18H2.16C2.065,17.345,2,16.681,2,16C2,8.28,8.28,2,16,2s14,6.28,14,14
	C30,16.681,29.935,17.345,29.84,18z"/>
</svg>
