<?xml version="1.0" encoding="utf-8"?>
<!-- Generator: Adobe Illustrator 19.2.1, SVG Export Plug-In . SVG Version: 6.00 Build 0)  -->
<!DOCTYPE svg PUBLIC "-//W3C//DTD SVG 1.1//EN" "http://www.w3.org/Graphics/SVG/1.1/DTD/svg11.dtd">
<svg version="1.1" id="Layer_1" xmlns="http://www.w3.org/2000/svg" xmlns:xlink="http://www.w3.org/1999/xlink" x="0px" y="0px"
	 width="32px" height="32px" viewBox="0 0 32 32" enable-background="new 0 0 32 32" xml:space="preserve">
<path d="M15,31c7.72,0,14-6.28,14-14c0-1.87-0.362-3.685-1.077-5.395c-0.213-0.51-0.802-0.749-1.309-0.537
	c-0.51,0.213-0.75,0.798-0.537,1.308C26.689,13.841,27,15.396,27,17c0,6.617-5.383,12-12,12S3,23.617,3,17S8.383,5,15,5
	c2.273,0,4.486,0.638,6.398,1.846c0.468,0.295,1.086,0.155,1.38-0.312c0.295-0.467,0.155-1.084-0.312-1.379
	C20.233,3.745,17.651,3,15,3C7.28,3,1,9.28,1,17S7.28,31,15,31z"/>
<path d="M10.707,12.293c-0.391-0.391-1.023-0.391-1.414,0s-0.391,1.023,0,1.414l5,5C14.488,18.902,14.744,19,15,19
	s0.512-0.098,0.707-0.293l15-15c0.391-0.391,0.391-1.023,0-1.414s-1.023-0.391-1.414,0L15,16.586L10.707,12.293z"/>
</svg>
