<?xml version="1.0" encoding="utf-8"?>
<!-- Generator: Adobe Illustrator 19.2.1, SVG Export Plug-In . SVG Version: 6.00 Build 0)  -->
<!DOCTYPE svg PUBLIC "-//W3C//DTD SVG 1.1//EN" "http://www.w3.org/Graphics/SVG/1.1/DTD/svg11.dtd">
<svg version="1.1" id="Layer_1" xmlns="http://www.w3.org/2000/svg" xmlns:xlink="http://www.w3.org/1999/xlink" x="0px" y="0px"
	 width="32px" height="32px" viewBox="0 0 32 32" enable-background="new 0 0 32 32" xml:space="preserve">
<path d="M8,11v10c0,0.553,0.447,1,1,1h14c0.553,0,1-0.447,1-1V11c0-0.553-0.447-1-1-1H9C8.447,10,8,10.447,8,11z M10,12h12v8H10V12z
	"/>
<path d="M6,21V11c0-0.553-0.447-1-1-1s-1,0.447-1,1v10c0,0.553,0.447,1,1,1S6,21.553,6,21z"/>
<path d="M26,11v10c0,0.553,0.447,1,1,1s1-0.447,1-1V11c0-0.553-0.447-1-1-1S26,10.447,26,11z"/>
<path d="M2,27V5c0-0.553-0.447-1-1-1S0,4.447,0,5v22c0,0.553,0.447,1,1,1S2,27.553,2,27z"/>
<path d="M31,4c-0.553,0-1,0.447-1,1v22c0,0.553,0.447,1,1,1s1-0.447,1-1V5C32,4.447,31.553,4,31,4z"/>
</svg>
