<?xml version="1.0" encoding="utf-8"?>
<!-- Generator: Adobe Illustrator 19.2.1, SVG Export Plug-In . SVG Version: 6.00 Build 0)  -->
<!DOCTYPE svg PUBLIC "-//W3C//DTD SVG 1.1//EN" "http://www.w3.org/Graphics/SVG/1.1/DTD/svg11.dtd">
<svg version="1.1" id="Layer_1" xmlns="http://www.w3.org/2000/svg" xmlns:xlink="http://www.w3.org/1999/xlink" x="0px" y="0px"
	 width="32px" height="32px" viewBox="0 0 32 32" enable-background="new 0 0 32 32" xml:space="preserve">
<path d="M7.364,18.05c1.077-1.076,2.619-1.559,4.116-1.29c0.543,0.097,1.063-0.265,1.161-0.808c0.098-0.544-0.265-1.063-0.808-1.161
	c-2.148-0.388-4.345,0.305-5.884,1.845l-3,3C1.692,20.894,1,22.565,1,24.343c0,1.778,0.692,3.45,1.95,4.707
	C4.207,30.308,5.879,31,7.657,31c1.777,0,3.449-0.692,4.707-1.95l3-3c1.539-1.539,2.229-3.738,1.846-5.883
	c-0.098-0.544-0.616-0.903-1.16-0.809c-0.544,0.097-0.905,0.616-0.809,1.16c0.269,1.501-0.215,3.041-1.291,4.117l-3,3
	C10.07,28.516,8.9,29,7.657,29c-1.244,0-2.413-0.484-3.293-1.364S3,25.587,3,24.343C3,23.1,3.484,21.93,4.364,21.05L7.364,18.05z"/>
<path d="M20.167,17.21c0.391,0.069,0.782,0.104,1.172,0.104c1.751,0,3.452-0.69,4.711-1.949l3-3C30.308,11.106,31,9.435,31,7.657
	c0-1.778-0.692-3.45-1.95-4.707C27.793,1.692,26.121,1,24.343,1c-1.777,0-3.449,0.692-4.707,1.95l-3,3
	c-1.539,1.539-2.229,3.739-1.845,5.884c0.098,0.543,0.618,0.908,1.161,0.808c0.543-0.098,0.905-0.617,0.808-1.161
	c-0.27-1.5,0.213-3.039,1.29-4.116l3-3C21.93,3.484,23.1,3,24.343,3c1.244,0,2.413,0.484,3.293,1.364S29,6.413,29,7.657
	c0,1.243-0.484,2.413-1.364,3.293l-3,3c-1.076,1.077-2.614,1.56-4.117,1.291c-0.545-0.099-1.062,0.265-1.16,0.809
	C19.262,16.594,19.623,17.113,20.167,17.21z"/>
<path d="M21.707,10.293c-0.391-0.391-1.023-0.391-1.414,0l-10,10c-0.391,0.391-0.391,1.023,0,1.414C10.488,21.902,10.744,22,11,22
	s0.512-0.098,0.707-0.293l10-10C22.098,11.316,22.098,10.684,21.707,10.293z"/>
</svg>
