<?xml version="1.0" encoding="utf-8"?>
<!-- Generator: Adobe Illustrator 19.2.1, SVG Export Plug-In . SVG Version: 6.00 Build 0)  -->
<!DOCTYPE svg PUBLIC "-//W3C//DTD SVG 1.1//EN" "http://www.w3.org/Graphics/SVG/1.1/DTD/svg11.dtd">
<svg version="1.1" id="Layer_1" xmlns="http://www.w3.org/2000/svg" xmlns:xlink="http://www.w3.org/1999/xlink" x="0px" y="0px"
	 width="32px" height="32px" viewBox="0 0 32 32" enable-background="new 0 0 32 32" xml:space="preserve">
<path d="M7,19h6v6c0,0.552,0.448,1,1,1h4c0.552,0,1-0.448,1-1v-6h6c0.552,0,1-0.448,1-1v-4c0-0.552-0.448-1-1-1h-6V7
	c0-0.552-0.448-1-1-1h-4c-0.552,0-1,0.448-1,1v6H7c-0.552,0-1,0.448-1,1v4C6,18.552,6.448,19,7,19z M8,15h6c0.552,0,1-0.448,1-1V8h2
	v6c0,0.552,0.448,1,1,1h6v2h-6c-0.552,0-1,0.448-1,1v6h-2v-6c0-0.552-0.448-1-1-1H8V15z"/>
</svg>
