<?xml version="1.0" encoding="utf-8"?>
<!-- Generator: Adobe Illustrator 19.2.1, SVG Export Plug-In . SVG Version: 6.00 Build 0)  -->
<!DOCTYPE svg PUBLIC "-//W3C//DTD SVG 1.1//EN" "http://www.w3.org/Graphics/SVG/1.1/DTD/svg11.dtd">
<svg version="1.1" id="Layer_1" xmlns="http://www.w3.org/2000/svg" xmlns:xlink="http://www.w3.org/1999/xlink" x="0px" y="0px"
	 width="32px" height="32px" viewBox="0 0 32 32" enable-background="new 0 0 32 32" xml:space="preserve">
<path d="M29.839,1.013C29.211,1.115,14.39,3.595,8.293,9.693c-6.187,6.187-3.81,13.214-2.824,15.423l-4.176,4.176
	c-0.391,0.391-0.391,1.023,0,1.414C1.488,30.902,1.744,31,2,31s0.512-0.098,0.707-0.293l4.18-4.18
	c1.069,0.471,3.266,1.265,5.953,1.265c2.869,0,6.29-0.907,9.467-4.085c0.249-0.248,0.348-0.608,0.263-0.949l-0.963-3.854
	l2.634,0.849c0.464,0.148,0.972-0.06,1.196-0.495c3.389-6.598,5.456-16.634,5.542-17.059c0.065-0.322-0.031-0.655-0.259-0.893
	C30.493,1.07,30.163,0.96,29.839,1.013z M24.035,17.585l-3.528-1.137c-0.344-0.109-0.724-0.025-0.99,0.222
	c-0.265,0.248-0.375,0.621-0.287,0.973l1.26,5.039c-4.705,4.358-9.796,3.195-12.082,2.325l5.299-5.299
	c0.391-0.391,0.391-1.023,0-1.414s-1.023-0.391-1.414,0l-5.296,5.296c-0.886-2.347-2.088-7.684,2.71-12.482
	c4.581-4.581,15.112-7.062,18.989-7.845C28.026,6.152,26.357,12.73,24.035,17.585z"/>
</svg>
