<?xml version="1.0" encoding="utf-8"?>
<!-- Generator: Adobe Illustrator 19.2.1, SVG Export Plug-In . SVG Version: 6.00 Build 0)  -->
<!DOCTYPE svg PUBLIC "-//W3C//DTD SVG 1.1//EN" "http://www.w3.org/Graphics/SVG/1.1/DTD/svg11.dtd">
<svg version="1.1" id="Layer_1" xmlns="http://www.w3.org/2000/svg" xmlns:xlink="http://www.w3.org/1999/xlink" x="0px" y="0px"
	 width="32px" height="32px" viewBox="0 0 32 32" enable-background="new 0 0 32 32" xml:space="preserve">
<path d="M27.313,7.687c-0.012-0.012-0.028-0.015-0.04-0.027C24.379,4.782,20.394,3,16,3C7.178,3,0,10.178,0,19
	c0,3.481,1.114,6.801,3.222,9.602C3.411,28.853,3.707,29,4.021,29h23.959c0.314,0,0.61-0.147,0.799-0.398
	C30.886,25.801,32,22.481,32,19c0-4.394-1.782-8.379-4.66-11.273C27.329,7.714,27.325,7.698,27.313,7.687z M27.47,27H4.53
	c-1.464-2.089-2.313-4.484-2.492-7H5c0.552,0,1-0.448,1-1s-0.448-1-1-1H2.051C2.543,11.079,8.079,5.543,15,5.051V8
	c0,0.552,0.448,1,1,1s1-0.448,1-1V5.051c3.108,0.221,5.934,1.455,8.154,3.381l-2.083,2.083c-0.391,0.391-0.391,1.023,0,1.414
	c0.195,0.195,0.451,0.293,0.707,0.293s0.512-0.098,0.707-0.293l2.083-2.083c1.926,2.22,3.16,5.047,3.381,8.154H27
	c-0.552,0-1,0.448-1,1s0.448,1,1,1h2.962C29.784,22.516,28.934,24.911,27.47,27z"/>
<path d="M16,15c-0.74,0-1.424,0.215-2.019,0.567l-5.274-5.274c-0.391-0.391-1.023-0.391-1.414,0s-0.391,1.023,0,1.414l5.274,5.274
	C12.215,17.576,12,18.26,12,19c0,2.206,1.794,4,4,4s4-1.794,4-4S18.206,15,16,15z M16,21c-1.103,0-2-0.897-2-2s0.897-2,2-2
	s2,0.897,2,2S17.103,21,16,21z"/>
</svg>
