<?xml version="1.0" encoding="utf-8"?>
<!-- Generator: Adobe Illustrator 19.2.1, SVG Export Plug-In . SVG Version: 6.00 Build 0)  -->
<!DOCTYPE svg PUBLIC "-//W3C//DTD SVG 1.1//EN" "http://www.w3.org/Graphics/SVG/1.1/DTD/svg11.dtd">
<svg version="1.1" id="Layer_1" xmlns="http://www.w3.org/2000/svg" xmlns:xlink="http://www.w3.org/1999/xlink" x="0px" y="0px"
	 width="32px" height="32px" viewBox="0 0 32 32" enable-background="new 0 0 32 32" xml:space="preserve">
<path d="M28,0H4C3.448,0,3,0.447,3,1v4c0,0.247,0.091,0.485,0.257,0.669L12,15.384V30c0,0.369,0.203,0.708,0.528,0.882
	C12.676,30.961,12.838,31,13,31c0.194,0,0.387-0.057,0.555-0.168l6-4C19.833,26.646,20,26.334,20,26V15.384l8.743-9.715
	C28.909,5.485,29,5.247,29,5V1C29,0.447,28.552,0,28,0z M27,4.616l-8.743,9.715C18.091,14.515,18,14.753,18,15v10.465l-4,2.667V15
	c0-0.247-0.091-0.485-0.257-0.669L5,4.616V2h22V4.616z"/>
</svg>
