<?xml version="1.0" encoding="utf-8"?>
<!-- Generator: Adobe Illustrator 19.2.1, SVG Export Plug-In . SVG Version: 6.00 Build 0)  -->
<!DOCTYPE svg PUBLIC "-//W3C//DTD SVG 1.1//EN" "http://www.w3.org/Graphics/SVG/1.1/DTD/svg11.dtd">
<svg version="1.1" id="Layer_1" xmlns="http://www.w3.org/2000/svg" xmlns:xlink="http://www.w3.org/1999/xlink" x="0px" y="0px"
	 width="32px" height="32px" viewBox="0 0 32 32" enable-background="new 0 0 32 32" xml:space="preserve">
<path d="M31.938,4.692c-0.021-0.065-0.05-0.123-0.084-0.182c-0.019-0.033-0.024-0.071-0.047-0.102
	c-0.016-0.021-0.039-0.031-0.056-0.051c-0.045-0.052-0.095-0.094-0.15-0.136c-0.05-0.039-0.098-0.076-0.154-0.104
	c-0.055-0.028-0.113-0.045-0.173-0.062c-0.067-0.019-0.132-0.036-0.202-0.041C31.047,4.013,31.026,4,31,4H1
	C0.974,4,0.953,4.013,0.928,4.015C0.858,4.02,0.793,4.036,0.726,4.055c-0.06,0.018-0.118,0.034-0.173,0.062
	C0.497,4.146,0.449,4.183,0.399,4.221c-0.054,0.042-0.105,0.084-0.15,0.136c-0.017,0.02-0.04,0.03-0.056,0.051
	C0.17,4.44,0.165,4.477,0.146,4.51C0.112,4.569,0.084,4.627,0.062,4.692C0.04,4.758,0.029,4.823,0.022,4.891
	C0.018,4.929,0,4.961,0,5v22c0,0.553,0.448,1,1,1h30c0.552,0,1-0.447,1-1V5c0-0.039-0.018-0.071-0.022-0.109
	C31.971,4.823,31.96,4.758,31.938,4.692z M27.945,6L16,14.76L4.055,6H27.945z M2,26V6.974l13.409,9.833
	C15.584,16.936,15.792,17,16,17s0.416-0.064,0.591-0.193L30,6.974V26H2z"/>
</svg>
