<?xml version="1.0" encoding="utf-8"?>
<!-- Generator: Adobe Illustrator 19.2.1, SVG Export Plug-In . SVG Version: 6.00 Build 0)  -->
<!DOCTYPE svg PUBLIC "-//W3C//DTD SVG 1.1//EN" "http://www.w3.org/Graphics/SVG/1.1/DTD/svg11.dtd">
<svg version="1.1" id="Layer_1" xmlns="http://www.w3.org/2000/svg" xmlns:xlink="http://www.w3.org/1999/xlink" x="0px" y="0px"
	 width="32px" height="32px" viewBox="0 0 32 32" enable-background="new 0 0 32 32" xml:space="preserve">
<path d="M31,0H1C0.447,0,0,0.448,0,1v30c0,0.552,0.447,1,1,1h30c0.553,0,1-0.448,1-1V1C32,0.448,31.553,0,31,0z M30,30H2V2h28V30z"
	/>
<path d="M7,15h7c0.553,0,1-0.448,1-1V7c0-0.552-0.447-1-1-1H7C6.447,6,6,6.448,6,7v7C6,14.552,6.447,15,7,15z M8,8h5v5H8V8z"/>
<path d="M18,15h7c0.553,0,1-0.448,1-1V7c0-0.552-0.447-1-1-1h-7c-0.553,0-1,0.448-1,1v7C17,14.552,17.447,15,18,15z M19,8h5v5h-5V8z
	"/>
<path d="M7,26h7c0.553,0,1-0.448,1-1v-7c0-0.552-0.447-1-1-1H7c-0.553,0-1,0.448-1,1v7C6,25.552,6.447,26,7,26z M8,19h5v5H8V19z"/>
<path d="M18,26h7c0.553,0,1-0.448,1-1v-7c0-0.552-0.447-1-1-1h-7c-0.553,0-1,0.448-1,1v7C17,25.552,17.447,26,18,26z M19,19h5v5h-5
	V19z"/>
</svg>
