<?xml version="1.0" encoding="utf-8"?>
<!-- Generator: Adobe Illustrator 19.2.1, SVG Export Plug-In . SVG Version: 6.00 Build 0)  -->
<!DOCTYPE svg PUBLIC "-//W3C//DTD SVG 1.1//EN" "http://www.w3.org/Graphics/SVG/1.1/DTD/svg11.dtd">
<svg version="1.1" id="Layer_1" xmlns="http://www.w3.org/2000/svg" xmlns:xlink="http://www.w3.org/1999/xlink" x="0px" y="0px"
	 width="32px" height="32px" viewBox="0 0 32 32" enable-background="new 0 0 32 32" xml:space="preserve">
<path d="M32,7c0-0.995-0.209-1.963-0.623-2.878c-0.135-0.299-0.409-0.513-0.731-0.571c-0.324-0.064-0.655,0.044-0.887,0.276
	L27,6.586L25.414,5l2.759-2.759c0.232-0.232,0.336-0.563,0.277-0.887s-0.273-0.597-0.572-0.731C26.962,0.21,25.994,0,25,0
	c-3.86,0-7,3.141-7,7c0,0.348,0.028,0.703,0.085,1.061L16,9.952l-2.085-1.891C13.972,7.703,14,7.348,14,7c0-3.859-3.14-7-7-7
	C6.006,0,5.038,0.21,4.123,0.623C3.823,0.758,3.609,1.031,3.55,1.354s0.044,0.654,0.277,0.887L6.586,5L5,6.586L2.241,3.827
	C2.009,3.595,1.679,3.486,1.354,3.551C1.032,3.609,0.758,3.823,0.623,4.122C0.209,5.037,0,6.005,0,7
	c0,4.208,3.748,7.603,8.061,6.915l1.611,1.776L1.328,23.26C1.125,23.443,1.007,23.702,1,23.976
	c-0.007,0.273,0.099,0.538,0.292,0.731l6,6C7.48,30.895,7.735,31,8,31c0.008,0,0.016,0,0.024,0c0.273-0.007,0.532-0.125,0.716-0.328
	L16,22.668l7.259,8.004c0.184,0.203,0.443,0.321,0.716,0.328c0.008,0,0.016,0,0.024,0c0.265,0,0.52-0.105,0.707-0.293l6-6
	c0.193-0.193,0.299-0.458,0.292-0.731c-0.006-0.273-0.125-0.532-0.328-0.716l-8.344-7.568l1.611-1.776C28.251,14.598,32,11.208,32,7
	z M9.162,12.151c-0.247-0.272-0.625-0.385-0.978-0.3C4.875,12.661,2,10.139,2,7c0-0.187,0.01-0.371,0.031-0.555l2.262,2.262
	c0.391,0.391,1.023,0.391,1.414,0l3-3c0.391-0.391,0.391-1.023,0-1.414L6.445,2.031C6.629,2.011,6.814,2,7,2c2.757,0,5,2.243,5,5
	c0,0.382-0.05,0.78-0.148,1.185c-0.086,0.356,0.028,0.73,0.3,0.978l2.36,2.14l-3.358,3.046L9.162,12.151z M28.55,24.035
	l-4.515,4.516L17.35,21.18l3.634-4.007L28.55,24.035z M22.838,12.151L7.965,28.551L3.45,24.035L19.848,9.161
	c0.271-0.246,0.386-0.62,0.3-0.977C20.05,7.78,20,7.382,20,7c0-2.757,2.243-5,5-5c0.186,0,0.371,0.011,0.555,0.031l-2.262,2.262
	c-0.391,0.391-0.391,1.023,0,1.414l3,3c0.391,0.391,1.023,0.391,1.414,0l2.262-2.262C29.99,6.629,30,6.813,30,7
	c0,3.14-2.876,5.663-6.184,4.852C23.461,11.767,23.084,11.879,22.838,12.151z"/>
</svg>
