<?xml version="1.0" encoding="utf-8"?>
<!-- Generator: Adobe Illustrator 19.2.1, SVG Export Plug-In . SVG Version: 6.00 Build 0)  -->
<!DOCTYPE svg PUBLIC "-//W3C//DTD SVG 1.1//EN" "http://www.w3.org/Graphics/SVG/1.1/DTD/svg11.dtd">
<svg version="1.1" id="Layer_1" xmlns="http://www.w3.org/2000/svg" xmlns:xlink="http://www.w3.org/1999/xlink" x="0px" y="0px"
	 width="32px" height="32px" viewBox="0 0 32 32" enable-background="new 0 0 32 32" xml:space="preserve">
<path d="M7,23h5c3.86,0,7-3.141,7-7c0-0.553-0.448-1-1-1s-1,0.447-1,1c0,2.757-2.243,5-5,5H7c-2.757,0-5-2.243-5-5s2.243-5,5-5h4
	c0.552,0,1-0.447,1-1s-0.448-1-1-1H7c-3.86,0-7,3.141-7,7S3.14,23,7,23z"/>
<path d="M25,9h-5c-3.86,0-7,3.141-7,7c0,0.553,0.448,1,1,1s1-0.447,1-1c0-2.757,2.243-5,5-5h5c2.757,0,5,2.243,5,5s-2.243,5-5,5h-4
	c-0.552,0-1,0.447-1,1s0.448,1,1,1h4c3.86,0,7-3.141,7-7S28.86,9,25,9z"/>
</svg>
