<?xml version="1.0" encoding="utf-8"?>
<!-- Generator: Adobe Illustrator 19.2.1, SVG Export Plug-In . SVG Version: 6.00 Build 0)  -->
<!DOCTYPE svg PUBLIC "-//W3C//DTD SVG 1.1//EN" "http://www.w3.org/Graphics/SVG/1.1/DTD/svg11.dtd">
<svg version="1.1" id="Layer_1" xmlns="http://www.w3.org/2000/svg" xmlns:xlink="http://www.w3.org/1999/xlink" x="0px" y="0px"
	 width="32px" height="32px" viewBox="0 0 32 32" enable-background="new 0 0 32 32" xml:space="preserve">
<path d="M23,0H3C2.447,0,2,0.448,2,1v28c0,0.36,0.193,0.693,0.507,0.87c0.313,0.178,0.698,0.174,1.008-0.013L13,24.166l9.485,5.691
	C22.644,29.953,22.822,30,23,30c0.17,0,0.34-0.043,0.493-0.13C23.807,29.693,24,29.36,24,29v-5.08c3.386-0.488,6-3.401,6-6.92
	s-2.614-6.432-6-6.92V1C24,0.448,23.553,0,23,0z M13.515,22.143c-0.316-0.19-0.713-0.19-1.029,0L4,27.234V2h18v8.08
	c-3.386,0.488-6,3.401-6,6.92s2.614,6.432,6,6.92v3.314L13.515,22.143z M28,17c0,2.757-2.243,5-5,5s-5-2.243-5-5s2.243-5,5-5
	S28,14.243,28,17z"/>
<path d="M20,17c0,0.552,0.447,1,1,1h4c0.553,0,1-0.448,1-1s-0.447-1-1-1h-4C20.447,16,20,16.448,20,17z"/>
</svg>
