<?xml version="1.0" encoding="utf-8"?>
<!-- Generator: Adobe Illustrator 19.2.1, SVG Export Plug-In . SVG Version: 6.00 Build 0)  -->
<!DOCTYPE svg PUBLIC "-//W3C//DTD SVG 1.1//EN" "http://www.w3.org/Graphics/SVG/1.1/DTD/svg11.dtd">
<svg version="1.1" id="Layer_1" xmlns="http://www.w3.org/2000/svg" xmlns:xlink="http://www.w3.org/1999/xlink" x="0px" y="0px"
	 width="32px" height="32px" viewBox="0 0 32 32" enable-background="new 0 0 32 32" xml:space="preserve">
<path d="M27,31V15c0-0.553-0.447-1-1-1s-1,0.447-1,1v15H2V7h15c0.553,0,1-0.447,1-1s-0.447-1-1-1H1C0.447,5,0,5.447,0,6v25
	c0,0.553,0.447,1,1,1h25C26.553,32,27,31.553,27,31z"/>
<path d="M28.293,2.293l-16,16c-0.391,0.391-0.391,1.023,0,1.414C12.488,19.902,12.744,20,13,20s0.512-0.098,0.707-0.293l16-16
	c0.391-0.391,0.391-1.023,0-1.414S28.684,1.902,28.293,2.293z"/>
</svg>
