<?xml version="1.0" encoding="utf-8"?>
<!-- Generator: Adobe Illustrator 19.2.1, SVG Export Plug-In . SVG Version: 6.00 Build 0)  -->
<!DOCTYPE svg PUBLIC "-//W3C//DTD SVG 1.1//EN" "http://www.w3.org/Graphics/SVG/1.1/DTD/svg11.dtd">
<svg version="1.1" id="Layer_1" xmlns="http://www.w3.org/2000/svg" xmlns:xlink="http://www.w3.org/1999/xlink" x="0px" y="0px"
	 width="32px" height="32px" viewBox="0 0 32 32" enable-background="new 0 0 32 32" xml:space="preserve">
<path fill="#222221" d="M6,9h2c0.552,0,1-0.447,1-1S8.552,7,8,7H6C5.448,7,5,7.447,5,8S5.448,9,6,9z"/>
<path fill="#222221" d="M12,9h2c0.552,0,1-0.447,1-1s-0.448-1-1-1h-2c-0.552,0-1,0.447-1,1S11.448,9,12,9z"/>
<path fill="#222221" d="M22,9h4c0.552,0,1-0.447,1-1s-0.448-1-1-1h-4c-0.552,0-1,0.447-1,1S21.448,9,22,9z"/>
<path fill="#222221" d="M31,2H1C0.448,2,0,2.447,0,3v26c0,0.553,0.448,1,1,1h30c0.552,0,1-0.447,1-1V3C32,2.447,31.552,2,31,2z
	 M30,4v8H2V4H30z M2,28V14h28v14H2z"/>
</svg>
