<?xml version="1.0" encoding="utf-8"?>
<!-- Generator: Adobe Illustrator 19.2.1, SVG Export Plug-In . SVG Version: 6.00 Build 0)  -->
<!DOCTYPE svg PUBLIC "-//W3C//DTD SVG 1.1//EN" "http://www.w3.org/Graphics/SVG/1.1/DTD/svg11.dtd">
<svg version="1.1" id="Layer_1" xmlns="http://www.w3.org/2000/svg" xmlns:xlink="http://www.w3.org/1999/xlink" x="0px" y="0px"
	 width="32px" height="32px" viewBox="0 0 32 32" enable-background="new 0 0 32 32" xml:space="preserve">
<path d="M7.515,21.657l2.828,2.829c0.188,0.188,0.441,0.293,0.707,0.293s0.52-0.105,0.707-0.293L16,20.243l4.243,4.243
	c0.188,0.188,0.441,0.293,0.707,0.293s0.52-0.105,0.707-0.293l2.828-2.829c0.391-0.391,0.391-1.023,0-1.414L20.242,16l4.243-4.243
	c0.391-0.391,0.391-1.023,0-1.414l-2.828-2.829c-0.188-0.188-0.441-0.293-0.707-0.293s-0.52,0.105-0.707,0.293L16,11.757
	l-4.243-4.243c-0.375-0.375-1.039-0.375-1.414,0l-2.828,2.829c-0.391,0.391-0.391,1.023,0,1.414L11.758,16l-4.243,4.243
	C7.124,20.633,7.124,21.266,7.515,21.657z M13.879,16.707c0.188-0.188,0.293-0.442,0.293-0.707s-0.105-0.52-0.293-0.707L9.636,11.05
	l1.414-1.415l4.243,4.243c0.391,0.391,1.023,0.391,1.414,0l4.243-4.243l1.414,1.415l-4.243,4.243
	c-0.188,0.188-0.293,0.442-0.293,0.707s0.105,0.52,0.293,0.707l4.243,4.243l-1.414,1.415l-4.243-4.243
	c-0.195-0.195-0.451-0.293-0.707-0.293s-0.512,0.098-0.707,0.293l-4.243,4.243L9.636,20.95L13.879,16.707z"/>
</svg>
