<?xml version="1.0" encoding="utf-8"?>
<!-- Generator: Adobe Illustrator 19.2.1, SVG Export Plug-In . SVG Version: 6.00 Build 0)  -->
<!DOCTYPE svg PUBLIC "-//W3C//DTD SVG 1.1//EN" "http://www.w3.org/Graphics/SVG/1.1/DTD/svg11.dtd">
<svg version="1.1" id="Layer_1" xmlns="http://www.w3.org/2000/svg" xmlns:xlink="http://www.w3.org/1999/xlink" x="0px" y="0px"
	 width="32px" height="32px" viewBox="0 0 32 32" enable-background="new 0 0 32 32" xml:space="preserve">
<path fill="#222221" d="M28,12c0-0.553-0.447-1-1-1H5c-0.553,0-1,0.447-1,1s0.447,1,1,1h22C27.553,13,28,12.553,28,12z"/>
<path fill="#222221" d="M31,3H1C0.447,3,0,3.447,0,4s0.447,1,1,1h30c0.553,0,1-0.447,1-1S31.553,3,31,3z"/>
<path fill="#222221" d="M24,20c0-0.553-0.447-1-1-1H9c-0.553,0-1,0.447-1,1s0.447,1,1,1h14C23.553,21,24,20.553,24,20z"/>
<path fill="#222221" d="M13,27c-0.553,0-1,0.447-1,1s0.447,1,1,1h6c0.553,0,1-0.447,1-1s-0.447-1-1-1H13z"/>
</svg>
