<?xml version="1.0" encoding="utf-8"?>
<!-- Generator: Adobe Illustrator 19.2.1, SVG Export Plug-In . SVG Version: 6.00 Build 0)  -->
<!DOCTYPE svg PUBLIC "-//W3C//DTD SVG 1.1//EN" "http://www.w3.org/Graphics/SVG/1.1/DTD/svg11.dtd">
<svg version="1.1" id="Layer_1" xmlns="http://www.w3.org/2000/svg" xmlns:xlink="http://www.w3.org/1999/xlink" x="0px" y="0px"
	 width="32px" height="32px" viewBox="0 0 32 32" enable-background="new 0 0 32 32" xml:space="preserve">
<path d="M19,31h8c0.552,0,1-0.447,1-1V14.604l1.349,1.156c0.42,0.359,1.051,0.312,1.41-0.109c0.359-0.419,0.311-1.051-0.108-1.41
	l-14.002-12c-0.375-0.32-0.927-0.321-1.302,0.001l-13.998,12c-0.419,0.359-0.468,0.99-0.108,1.409C1.439,15.882,1.719,16,2.001,16
	c0.23,0,0.462-0.079,0.65-0.241L4,14.602V30c0,0.553,0.448,1,1,1h8c0.552,0,1-0.447,1-1v-7h4v7C18,30.553,18.448,31,19,31z M13,21
	c-0.552,0-1,0.447-1,1v7H6V12.888l9.998-8.57L26,12.89V29h-6v-7c0-0.553-0.448-1-1-1H13z"/>
<path d="M20,17v-5c0-0.553-0.448-1-1-1h-6c-0.552,0-1,0.447-1,1v5c0,0.553,0.448,1,1,1h6C19.553,18,20,17.553,20,17z M18,16h-4v-3h4
	V16z"/>
</svg>
