<?xml version="1.0" encoding="utf-8"?>
<!-- Generator: Adobe Illustrator 19.2.1, SVG Export Plug-In . SVG Version: 6.00 Build 0)  -->
<!DOCTYPE svg PUBLIC "-//W3C//DTD SVG 1.1//EN" "http://www.w3.org/Graphics/SVG/1.1/DTD/svg11.dtd">
<svg version="1.1" id="Layer_1" xmlns="http://www.w3.org/2000/svg" xmlns:xlink="http://www.w3.org/1999/xlink" x="0px" y="0px"
	 width="32px" height="32px" viewBox="0 0 32 32" enable-background="new 0 0 32 32" xml:space="preserve">
<path d="M16,0C7.178,0,0,7.178,0,16s7.178,16,16,16s16-7.178,16-16S24.822,0,16,0z M17,29.949V26c0-0.552-0.447-1-1-1s-1,0.448-1,1
	v3.949C8.079,29.457,2.543,23.921,2.051,17H6c0.553,0,1-0.448,1-1s-0.447-1-1-1H2.051C2.543,8.079,8.079,2.543,15,2.051V6
	c0,0.552,0.447,1,1,1s1-0.448,1-1V2.051C23.921,2.543,29.457,8.079,29.949,15H26c-0.553,0-1,0.448-1,1s0.447,1,1,1h3.949
	C29.457,23.921,23.921,29.457,17,29.949z"/>
<path d="M22,15h-5.5l-5.7-7.6C10.469,6.958,9.841,6.867,9.4,7.2C8.958,7.531,8.868,8.158,9.2,8.6l6,8c0.188,0.252,0.485,0.4,0.8,0.4
	h6c0.553,0,1-0.448,1-1S22.553,15,22,15z"/>
</svg>
