<?xml version="1.0" encoding="utf-8"?>
<!-- Generator: Adobe Illustrator 19.2.1, SVG Export Plug-In . SVG Version: 6.00 Build 0)  -->
<!DOCTYPE svg PUBLIC "-//W3C//DTD SVG 1.1//EN" "http://www.w3.org/Graphics/SVG/1.1/DTD/svg11.dtd">
<svg version="1.1" id="Layer_1" xmlns="http://www.w3.org/2000/svg" xmlns:xlink="http://www.w3.org/1999/xlink" x="0px" y="0px"
	 width="32px" height="32px" viewBox="0 0 32 32" enable-background="new 0 0 32 32" xml:space="preserve">
<path d="M22.818,0C20.193,0,17.729,1.127,16,3.069C14.271,1.127,11.807,0,9.182,0C4.119,0,0,4.166,0,9.286
	C0,17.942,14.734,30.25,15.362,30.77C15.547,30.923,15.773,31,16,31s0.453-0.077,0.638-0.23c0.064-0.052,1.407-1.17,3.293-2.956
	C21.207,29.157,23.005,30,25,30c3.859,0,7-3.14,7-7c0-2.358-1.175-4.443-2.967-5.712C30.995,14.239,32,11.548,32,9.286
	C32,4.166,27.881,0,22.818,0z M30,23c0,2.757-2.243,5-5,5s-5-2.243-5-5s2.243-5,5-5S30,20.243,30,23z M25,16c-3.859,0-7,3.14-7,7
	c0,1.138,0.279,2.211,0.763,3.161c-1.167,1.112-2.161,2-2.762,2.523C13.183,26.232,2,16.072,2,9.286C2,5.269,5.222,2,9.182,2
	c2.408,0,4.645,1.218,5.982,3.258c0.369,0.563,1.303,0.563,1.672,0C18.174,3.218,20.41,2,22.818,2C26.778,2,30,5.269,30,9.286
	c0,1.915-0.935,4.301-2.757,7.09C26.537,16.136,25.785,16,25,16z"/>
<path d="M27,22h-1v-1c0-0.552-0.447-1-1-1s-1,0.448-1,1v1h-1c-0.553,0-1,0.448-1,1s0.447,1,1,1h1v1c0,0.552,0.447,1,1,1s1-0.448,1-1
	v-1h1c0.553,0,1-0.448,1-1S27.553,22,27,22z"/>
</svg>
