<?xml version="1.0" encoding="utf-8"?>
<!-- Generator: Adobe Illustrator 19.2.1, SVG Export Plug-In . SVG Version: 6.00 Build 0)  -->
<!DOCTYPE svg PUBLIC "-//W3C//DTD SVG 1.1//EN" "http://www.w3.org/Graphics/SVG/1.1/DTD/svg11.dtd">
<svg version="1.1" id="Layer_1" xmlns="http://www.w3.org/2000/svg" xmlns:xlink="http://www.w3.org/1999/xlink" x="0px" y="0px"
	 width="32px" height="32px" viewBox="0 0 32 32" enable-background="new 0 0 32 32" xml:space="preserve">
<path d="M8.929,16c0.391-0.391,0.391-1.023,0-1.414s-1.023-0.391-1.414,0l-2.828,2.828c-1.322,1.322-2.05,3.08-2.05,4.95
	s0.728,3.627,2.05,4.949c1.322,1.322,3.08,2.051,4.95,2.051c1.87,0,3.627-0.729,4.95-2.051l3.535-3.535
	c1.322-1.322,2.05-3.08,2.05-4.95s-0.728-3.627-2.05-4.949c-0.391-0.391-1.023-0.391-1.414,0s-0.391,1.023,0,1.414
	c0.944,0.944,1.464,2.2,1.464,3.535c0,1.336-0.52,2.592-1.464,3.536l-3.535,3.535c-0.944,0.944-2.2,1.465-3.536,1.465
	c-1.336,0-2.591-0.521-3.536-1.465s-1.464-2.2-1.464-3.535c0-1.336,0.52-2.592,1.464-3.536L8.929,16z"/>
<path d="M23.071,16c-0.391,0.391-0.391,1.023,0,1.414s1.023,0.391,1.414,0l2.828-2.828c1.322-1.322,2.05-3.08,2.05-4.95
	s-0.728-3.627-2.05-4.949c-1.322-1.322-3.08-2.051-4.95-2.051c-1.87,0-3.627,0.729-4.95,2.051l-3.535,3.535
	c-1.322,1.322-2.05,3.08-2.05,4.95s0.728,3.627,2.05,4.949c0.195,0.195,0.451,0.293,0.707,0.293s0.512-0.098,0.707-0.293
	c0.391-0.391,0.391-1.023,0-1.414c-0.944-0.944-1.464-2.2-1.464-3.535c0-1.336,0.52-2.592,1.464-3.536l3.535-3.535
	c0.944-0.944,2.2-1.465,3.536-1.465c1.336,0,2.591,0.521,3.536,1.465s1.464,2.2,1.464,3.535c0,1.336-0.52,2.592-1.464,3.536
	L23.071,16z"/>
</svg>
