<?xml version="1.0" encoding="utf-8"?>
<!-- Generator: Adobe Illustrator 19.2.1, SVG Export Plug-In . SVG Version: 6.00 Build 0)  -->
<!DOCTYPE svg PUBLIC "-//W3C//DTD SVG 1.1//EN" "http://www.w3.org/Graphics/SVG/1.1/DTD/svg11.dtd">
<svg version="1.1" id="Layer_1" xmlns="http://www.w3.org/2000/svg" xmlns:xlink="http://www.w3.org/1999/xlink" x="0px" y="0px"
	 width="32px" height="32px" viewBox="0 0 32 32" enable-background="new 0 0 32 32" xml:space="preserve">
<path d="M16,32c5.898,0,12-4.489,12-12c0-7.267-10.83-18.242-11.291-18.705c-0.375-0.378-1.043-0.378-1.418,0
	C14.83,1.758,4,12.733,4,20C4,27.511,10.102,32,16,32z M16,3.446C18.391,5.995,26,14.536,26,20c0,6.495-5.152,10-10,10
	S6,26.495,6,20C6,14.54,13.609,5.996,16,3.446z"/>
<path d="M16,25c1.391,0,5-0.897,5-5.027c-0.075-2.112-2.964-6.195-4.204-7.853c-0.188-0.252-0.485-0.401-0.801-0.401
	s-0.612,0.149-0.801,0.401C13.958,13.773,11.075,17.847,11,20C11,24.102,14.609,25,16,25z M15.995,14.418
	c2.023,2.863,2.979,4.886,3.005,5.589c0,2.778-2.474,2.981-3,2.992c-0.526-0.011-3-0.214-3-2.965
	C13.025,19.298,13.978,17.273,15.995,14.418z"/>
</svg>
