<?xml version="1.0" encoding="utf-8"?>
<!-- Generator: Adobe Illustrator 19.2.1, SVG Export Plug-In . SVG Version: 6.00 Build 0)  -->
<!DOCTYPE svg PUBLIC "-//W3C//DTD SVG 1.1//EN" "http://www.w3.org/Graphics/SVG/1.1/DTD/svg11.dtd">
<svg version="1.1" id="Layer_1" xmlns="http://www.w3.org/2000/svg" xmlns:xlink="http://www.w3.org/1999/xlink" x="0px" y="0px"
	 width="32px" height="32px" viewBox="0 0 32 32" enable-background="new 0 0 32 32" xml:space="preserve">
<path d="M31,0H1C0.447,0,0,0.448,0,1v30c0,0.552,0.447,1,1,1h30c0.553,0,1-0.448,1-1V1C32,0.448,31.553,0,31,0z M30,30H2V2h28V30z"
	/>
<path d="M12.293,21.707C12.488,21.902,12.744,22,13,22s0.512-0.098,0.707-0.293l10-10c0.391-0.391,0.391-1.023,0-1.414
	s-1.023-0.391-1.414,0L13,19.586l-3.293-3.293c-0.391-0.391-1.023-0.391-1.414,0s-0.391,1.023,0,1.414L12.293,21.707z"/>
</svg>
