<?xml version="1.0" encoding="utf-8"?>
<!-- Generator: Adobe Illustrator 19.2.1, SVG Export Plug-In . SVG Version: 6.00 Build 0)  -->
<!DOCTYPE svg PUBLIC "-//W3C//DTD SVG 1.1//EN" "http://www.w3.org/Graphics/SVG/1.1/DTD/svg11.dtd">
<svg version="1.1" id="Layer_1" xmlns="http://www.w3.org/2000/svg" xmlns:xlink="http://www.w3.org/1999/xlink" x="0px" y="0px"
	 width="32px" height="32px" viewBox="0 0 32 32" enable-background="new 0 0 32 32" xml:space="preserve">
<path fill="#222221" d="M6,5h13c2.206,0,4,1.794,4,4v6c0,2.206-1.794,4-4,4h-7c-0.553,0-1,0.447-1,1s0.447,1,1,1h7
	c3.309,0,6-2.691,6-6V9c0-3.309-2.691-6-6-6H6C2.691,3,0,5.691,0,9v6c0,2.384,1.412,4.543,3.597,5.499
	c0.508,0.224,1.096-0.01,1.317-0.515c0.222-0.506-0.009-1.096-0.515-1.317C2.941,18.029,2,16.59,2,15V9C2,6.794,3.794,5,6,5z"/>
<path fill="#222221" d="M28.403,11.501c-0.508-0.226-1.098,0.01-1.317,0.515c-0.222,0.506,0.009,1.096,0.515,1.317
	C29.059,13.971,30,15.41,30,17v6c0,2.206-1.794,4-4,4H13c-2.206,0-4-1.794-4-4v-6c0-2.206,1.794-4,4-4h7c0.553,0,1-0.447,1-1
	s-0.447-1-1-1h-7c-3.309,0-6,2.691-6,6v6c0,3.309,2.691,6,6,6h13c3.309,0,6-2.691,6-6v-6C32,14.616,30.588,12.457,28.403,11.501z"/>
</svg>
