<?xml version="1.0" encoding="utf-8"?>
<!-- Generator: Adobe Illustrator 19.2.1, SVG Export Plug-In . SVG Version: 6.00 Build 0)  -->
<!DOCTYPE svg PUBLIC "-//W3C//DTD SVG 1.1//EN" "http://www.w3.org/Graphics/SVG/1.1/DTD/svg11.dtd">
<svg version="1.1" id="Layer_1" xmlns="http://www.w3.org/2000/svg" xmlns:xlink="http://www.w3.org/1999/xlink" x="0px" y="0px"
	 width="32px" height="32px" viewBox="0 0 32 32" enable-background="new 0 0 32 32" xml:space="preserve">
<path d="M29.922,11.614C29.767,11.242,29.403,11,29,11h-8.35l-3.736-8.406C16.753,2.233,16.395,2,16,2s-0.753,0.233-0.914,0.594
	L11.35,11H3c-0.403,0-0.767,0.242-0.922,0.614s-0.073,0.801,0.21,1.088l6.106,6.2L5.93,28.757c-0.097,0.389,0.047,0.798,0.366,1.04
	c0.319,0.242,0.752,0.27,1.1,0.071L16,24.952l8.604,4.917C24.758,29.957,24.929,30,25.1,30c0.213,0,0.426-0.068,0.604-0.203
	c0.319-0.242,0.463-0.651,0.366-1.04l-2.464-9.855l6.106-6.2C29.995,12.415,30.078,11.985,29.922,11.614z M21.788,17.898
	c-0.245,0.249-0.342,0.606-0.258,0.944l2.032,8.126l-7.065-4.038C16.342,22.844,16.171,22.8,16,22.8s-0.342,0.044-0.496,0.132
	l-7.065,4.038l2.032-8.126c0.084-0.338-0.013-0.696-0.258-0.944L5.388,13H12c0.395,0,0.753-0.233,0.914-0.594L16,5.462l3.086,6.944
	C19.247,12.767,19.605,13,20,13h6.612L21.788,17.898z"/>
</svg>
