<?xml version="1.0" encoding="utf-8"?>
<!-- Generator: Adobe Illustrator 19.2.1, SVG Export Plug-In . SVG Version: 6.00 Build 0)  -->
<!DOCTYPE svg PUBLIC "-//W3C//DTD SVG 1.1//EN" "http://www.w3.org/Graphics/SVG/1.1/DTD/svg11.dtd">
<svg version="1.1" id="Layer_1" xmlns="http://www.w3.org/2000/svg" xmlns:xlink="http://www.w3.org/1999/xlink" x="0px" y="0px"
	 width="32px" height="32px" viewBox="0 0 32 32" enable-background="new 0 0 32 32" xml:space="preserve">
<path d="M6.737,32h18.525c1.108,0,2.123-0.607,2.646-1.585c0.523-0.978,0.466-2.157-0.149-3.079L20,15.697V6h2c0.553,0,1-0.447,1-1
	V1c0-0.553-0.447-1-1-1H10C9.447,0,9,0.447,9,1v4c0,0.553,0.447,1,1,1h2v9.697L4.241,27.336c-0.615,0.922-0.673,2.102-0.149,3.079
	C4.614,31.393,5.629,32,6.737,32z M11,4V2h10v2h-2c-0.553,0-1,0.447-1,1v11c0,0.197,0.059,0.391,0.168,0.555L19.798,19h-7.596
	l1.63-2.445C13.941,16.391,14,16.197,14,16V5c0-0.553-0.447-1-1-1H11z M5.905,28.445L10.869,21h10.263l4.963,7.445
	c0.3,0.45,0.135,0.867,0.05,1.026S25.804,30,25.263,30H6.737c-0.541,0-0.797-0.369-0.882-0.528S5.605,28.896,5.905,28.445z"/>
</svg>
