<?xml version="1.0" encoding="utf-8"?>
<!-- Generator: Adobe Illustrator 19.2.1, SVG Export Plug-In . SVG Version: 6.00 Build 0)  -->
<!DOCTYPE svg PUBLIC "-//W3C//DTD SVG 1.1//EN" "http://www.w3.org/Graphics/SVG/1.1/DTD/svg11.dtd">
<svg version="1.1" id="Layer_1" xmlns="http://www.w3.org/2000/svg" xmlns:xlink="http://www.w3.org/1999/xlink" x="0px" y="0px"
	 width="32px" height="32px" viewBox="0 0 32 32" enable-background="new 0 0 32 32" xml:space="preserve">
<path d="M19,30h6c0.553,0,1-0.448,1-1V17h3c0.404,0,0.77-0.244,0.924-0.617c0.155-0.374,0.069-0.804-0.217-1.09l-13-13
	c-0.391-0.391-1.023-0.391-1.414,0l-13,13c-0.286,0.286-0.372,0.716-0.217,1.09C2.23,16.756,2.596,17,3,17h3v12c0,0.552,0.447,1,1,1
	h6c0.553,0,1-0.448,1-1v-7h4v7C18,29.552,18.447,30,19,30z M13,20c-0.553,0-1,0.448-1,1v7H8V16c0-0.552-0.447-1-1-1H5.414L16,4.414
	L26.586,15H25c-0.553,0-1,0.448-1,1v12h-4v-7c0-0.552-0.447-1-1-1H13z"/>
</svg>
