<?xml version="1.0" encoding="utf-8"?>
<!-- Generator: Adobe Illustrator 19.2.1, SVG Export Plug-In . SVG Version: 6.00 Build 0)  -->
<!DOCTYPE svg PUBLIC "-//W3C//DTD SVG 1.1//EN" "http://www.w3.org/Graphics/SVG/1.1/DTD/svg11.dtd">
<svg version="1.1" id="Layer_1" xmlns="http://www.w3.org/2000/svg" xmlns:xlink="http://www.w3.org/1999/xlink" x="0px" y="0px"
	 width="32px" height="32px" viewBox="0 0 32 32" enable-background="new 0 0 32 32" xml:space="preserve">
<path d="M2,19h28c0.553,0,1-0.448,1-1v-4c0-0.552-0.447-1-1-1H2c-0.553,0-1,0.448-1,1v4C1,18.552,1.447,19,2,19z M3,15h26v2H3V15z"
	/>
<path d="M2,9h28c0.553,0,1-0.448,1-1V4c0-0.552-0.447-1-1-1H2C1.447,3,1,3.448,1,4v4C1,8.552,1.447,9,2,9z M3,5h26v2H3V5z"/>
<path d="M2,29h28c0.553,0,1-0.448,1-1v-4c0-0.552-0.447-1-1-1H2c-0.553,0-1,0.448-1,1v4C1,28.552,1.447,29,2,29z M3,25h26v2H3V25z"
	/>
</svg>
