<?xml version="1.0" encoding="utf-8"?>
<!-- Generator: Adobe Illustrator 19.2.1, SVG Export Plug-In . SVG Version: 6.00 Build 0)  -->
<!DOCTYPE svg PUBLIC "-//W3C//DTD SVG 1.1//EN" "http://www.w3.org/Graphics/SVG/1.1/DTD/svg11.dtd">
<svg version="1.1" id="Layer_1" xmlns="http://www.w3.org/2000/svg" xmlns:xlink="http://www.w3.org/1999/xlink" x="0px" y="0px"
	 width="32px" height="32px" viewBox="0 0 32 32" enable-background="new 0 0 32 32" xml:space="preserve">
<path d="M20,4c-5.11,0-9.643,3.26-11.314,8.029C8.457,12.01,8.229,12,8,12c-4.411,0-8,3.589-8,8s3.589,8,8,8h13
	c0.137,0,0.267-0.03,0.385-0.084C27.458,27.221,32,22.149,32,16C32,9.383,26.617,4,20,4z M20.91,25.954
	c-0.074,0.007-0.146,0.022-0.215,0.046H8c-3.309,0-6-2.691-6-6s2.691-6,6-6c0.398,0,0.8,0.04,1.191,0.119
	c0.515,0.101,1.024-0.212,1.163-0.72C11.527,9.042,15.494,6,20,6c5.514,0,10,4.486,10,10C30,21.207,26.092,25.486,20.91,25.954z"/>
</svg>
