<?xml version="1.0" encoding="utf-8"?>
<!-- Generator: Adobe Illustrator 19.2.1, SVG Export Plug-In . SVG Version: 6.00 Build 0)  -->
<!DOCTYPE svg PUBLIC "-//W3C//DTD SVG 1.1//EN" "http://www.w3.org/Graphics/SVG/1.1/DTD/svg11.dtd">
<svg version="1.1" id="Layer_1" xmlns="http://www.w3.org/2000/svg" xmlns:xlink="http://www.w3.org/1999/xlink" x="0px" y="0px"
	 width="32px" height="32px" viewBox="0 0 32 32" enable-background="new 0 0 32 32" xml:space="preserve">
<path d="M10.257,27.669C10.447,27.88,10.718,28,11,28c0.027,0,0.055-0.001,0.082-0.003c0.312-0.025,0.593-0.195,0.761-0.458
	C19.668,15.285,30.396,8.926,30.504,8.864c0.409-0.239,0.594-0.731,0.445-1.18l-1-3c-0.092-0.276-0.3-0.498-0.569-0.609
	c-0.269-0.11-0.573-0.098-0.833,0.034C19.698,8.601,12.883,14.8,10.88,16.718l-5.326-3.55c-0.397-0.264-0.924-0.212-1.262,0.125
	l-3,3c-0.376,0.376-0.392,0.98-0.036,1.376L10.257,27.669z M5.127,15.287l5.318,3.545c0.399,0.266,0.93,0.212,1.266-0.129
	c0.073-0.074,7.161-7.185,16.711-12.275l0.379,1.136c-2.486,1.584-11.017,7.482-17.927,17.801l-7.496-8.329L5.127,15.287z"/>
</svg>
