<?xml version="1.0" encoding="utf-8"?>
<!-- Generator: Adobe Illustrator 19.2.1, SVG Export Plug-In . SVG Version: 6.00 Build 0)  -->
<!DOCTYPE svg PUBLIC "-//W3C//DTD SVG 1.1//EN" "http://www.w3.org/Graphics/SVG/1.1/DTD/svg11.dtd">
<svg version="1.1" id="Layer_1" xmlns="http://www.w3.org/2000/svg" xmlns:xlink="http://www.w3.org/1999/xlink" x="0px" y="0px"
	 width="32px" height="32px" viewBox="0 0 32 32" enable-background="new 0 0 32 32" xml:space="preserve">
<path d="M31,0H1C0.447,0,0,0.448,0,1v30c0,0.552,0.447,1,1,1h30c0.553,0,1-0.448,1-1V1C32,0.448,31.553,0,31,0z M30,30H2V2h28V30z"
	/>
<path d="M5,10h4c0.553,0,1-0.448,1-1V5c0-0.552-0.447-1-1-1H5C4.447,4,4,4.448,4,5v4C4,9.552,4.447,10,5,10z M6,6h2v2H6V6z"/>
<path d="M14,10h4c0.553,0,1-0.448,1-1V5c0-0.552-0.447-1-1-1h-4c-0.553,0-1,0.448-1,1v4C13,9.552,13.447,10,14,10z M15,6h2v2h-2V6z"
	/>
<path d="M23,10h4c0.553,0,1-0.448,1-1V5c0-0.552-0.447-1-1-1h-4c-0.553,0-1,0.448-1,1v4C22,9.552,22.447,10,23,10z M24,6h2v2h-2V6z"
	/>
<path d="M5,19h4c0.553,0,1-0.448,1-1v-4c0-0.552-0.447-1-1-1H5c-0.553,0-1,0.448-1,1v4C4,18.552,4.447,19,5,19z M6,15h2v2H6V15z"/>
<path d="M14,19h4c0.553,0,1-0.448,1-1v-4c0-0.552-0.447-1-1-1h-4c-0.553,0-1,0.448-1,1v4C13,18.552,13.447,19,14,19z M15,15h2v2h-2
	V15z"/>
<path d="M23,19h4c0.553,0,1-0.448,1-1v-4c0-0.552-0.447-1-1-1h-4c-0.553,0-1,0.448-1,1v4C22,18.552,22.447,19,23,19z M24,15h2v2h-2
	V15z"/>
<path d="M5,28h4c0.553,0,1-0.448,1-1v-4c0-0.552-0.447-1-1-1H5c-0.553,0-1,0.448-1,1v4C4,27.552,4.447,28,5,28z M6,24h2v2H6V24z"/>
<path d="M14,28h4c0.553,0,1-0.448,1-1v-4c0-0.552-0.447-1-1-1h-4c-0.553,0-1,0.448-1,1v4C13,27.552,13.447,28,14,28z M15,24h2v2h-2
	V24z"/>
<path d="M23,28h4c0.553,0,1-0.448,1-1v-4c0-0.552-0.447-1-1-1h-4c-0.553,0-1,0.448-1,1v4C22,27.552,22.447,28,23,28z M24,24h2v2h-2
	V24z"/>
</svg>
