<?xml version="1.0" encoding="utf-8"?>
<!-- Generator: Adobe Illustrator 19.2.1, SVG Export Plug-In . SVG Version: 6.00 Build 0)  -->
<!DOCTYPE svg PUBLIC "-//W3C//DTD SVG 1.1//EN" "http://www.w3.org/Graphics/SVG/1.1/DTD/svg11.dtd">
<svg version="1.1" id="Layer_1" xmlns="http://www.w3.org/2000/svg" xmlns:xlink="http://www.w3.org/1999/xlink" x="0px" y="0px"
	 width="32px" height="32px" viewBox="0 0 32 32" enable-background="new 0 0 32 32" xml:space="preserve">
<path d="M16,32c5.898,0,12-4.489,12-12c0-7.267-10.83-18.242-11.291-18.705c-0.375-0.378-1.043-0.378-1.418,0
	C14.83,1.758,4,12.733,4,20C4,27.511,10.102,32,16,32z M16,3.446C18.391,5.995,26,14.536,26,20c0,6.495-5.152,10-10,10
	S6,26.495,6,20C6,14.54,13.609,5.996,16,3.446z"/>
<path d="M16,25c0.549,0,0.991-0.442,0.996-0.991S16.559,23.01,16.01,23C15.508,22.991,13,22.805,13,20c0-0.552-0.448-1-1-1
	s-1,0.448-1,1C11,24.102,14.609,25,16,25z"/>
</svg>
