<?xml version="1.0" encoding="utf-8"?>
<!-- Generator: Adobe Illustrator 19.2.1, SVG Export Plug-In . SVG Version: 6.00 Build 0)  -->
<!DOCTYPE svg PUBLIC "-//W3C//DTD SVG 1.1//EN" "http://www.w3.org/Graphics/SVG/1.1/DTD/svg11.dtd">
<svg version="1.1" id="Layer_1" xmlns="http://www.w3.org/2000/svg" xmlns:xlink="http://www.w3.org/1999/xlink" x="0px" y="0px"
	 width="32px" height="32px" viewBox="0 0 32 32" enable-background="new 0 0 32 32" xml:space="preserve">
<path d="M16,0C10.14,0,5,5.141,5,11v4c0,2.218-0.993,3.343-1.953,4.431c-0.828,0.938-1.684,1.908-1.684,3.388
	c0,2.862,4.398,4.316,9.622,4.847C11.355,30.112,13.452,32,16,32s4.645-1.888,5.014-4.335c5.224-0.531,9.622-1.985,9.622-4.847
	c0-1.479-0.856-2.449-1.684-3.388C27.993,18.343,27,17.218,27,15v-4.091C27,5.098,21.86,0,16,0z M16,30
	c-1.394,0-2.562-0.934-2.947-2.174c0.978,0.054,1.966,0.083,2.947,0.083c0.977,0,1.962-0.028,2.936-0.082
	C18.542,29.081,17.382,30,16,30z M27.453,20.754c0.756,0.856,1.184,1.375,1.184,2.064c0,0.897-2.581,2.439-8.593,2.931
	c-0.002,0-0.003-0.001-0.004-0.001c-0.002,0-0.003,0.001-0.005,0.001c-1.208,0.099-2.541,0.159-4.034,0.159
	c-1.452,0-2.752-0.058-3.935-0.151c-0.036-0.005-0.066-0.024-0.103-0.025c-0.025,0-0.045,0.011-0.069,0.012
	c-5.967-0.498-8.53-2.032-8.53-2.926c0-0.689,0.428-1.208,1.184-2.064C5.583,19.581,7,17.974,7,15v-4c0-4.794,4.206-9,9-9
	s9,4.163,9,8.909V15C25,17.974,26.417,19.581,27.453,20.754z"/>
</svg>
