<?xml version="1.0" encoding="utf-8"?>
<!-- Generator: Adobe Illustrator 19.2.1, SVG Export Plug-In . SVG Version: 6.00 Build 0)  -->
<!DOCTYPE svg PUBLIC "-//W3C//DTD SVG 1.1//EN" "http://www.w3.org/Graphics/SVG/1.1/DTD/svg11.dtd">
<svg version="1.1" id="Layer_1" xmlns="http://www.w3.org/2000/svg" xmlns:xlink="http://www.w3.org/1999/xlink" x="0px" y="0px"
	 width="32px" height="32px" viewBox="0 0 32 32" enable-background="new 0 0 32 32" xml:space="preserve">
<path fill="#222221" d="M1,9h18c0.552,0,1-0.447,1-1V2c0-0.553-0.448-1-1-1H1C0.448,1,0,1.447,0,2v6C0,8.553,0.448,9,1,9z M2,3h16v4
	H2V3z"/>
<path fill="#222221" d="M1,20h18c0.552,0,1-0.447,1-1v-6c0-0.553-0.448-1-1-1H1c-0.552,0-1,0.447-1,1v6C0,19.553,0.448,20,1,20z
	 M2,14h16v4H2V14z"/>
<path fill="#222221" d="M1,31h18c0.552,0,1-0.447,1-1v-6c0-0.553-0.448-1-1-1H1c-0.552,0-1,0.447-1,1v6C0,30.553,0.448,31,1,31z
	 M2,25h16v4H2V25z"/>
<path fill="#222221" d="M23.293,22.707C23.488,22.902,23.744,23,24,23s0.512-0.098,0.707-0.293l6-6c0.391-0.391,0.391-1.023,0-1.414
	l-6-6c-0.391-0.391-1.023-0.391-1.414,0s-0.391,1.023,0,1.414L28.586,16l-5.293,5.293C22.902,21.684,22.902,22.316,23.293,22.707z"
	/>
</svg>
