<?xml version="1.0" encoding="utf-8"?>
<!-- Generator: Adobe Illustrator 19.2.1, SVG Export Plug-In . SVG Version: 6.00 Build 0)  -->
<!DOCTYPE svg PUBLIC "-//W3C//DTD SVG 1.1//EN" "http://www.w3.org/Graphics/SVG/1.1/DTD/svg11.dtd">
<svg version="1.1" id="Layer_1" xmlns="http://www.w3.org/2000/svg" xmlns:xlink="http://www.w3.org/1999/xlink" x="0px" y="0px"
	 width="32px" height="32px" viewBox="0 0 32 32" enable-background="new 0 0 32 32" xml:space="preserve">
<path d="M12.293,19.707C12.488,19.902,12.744,20,13,20s0.512-0.098,0.707-0.293l16-16c0.391-0.391,0.391-1.023,0-1.414
	s-1.023-0.391-1.414,0l-16,16C11.902,18.684,11.902,19.316,12.293,19.707z"/>
<path d="M19.396,5.078C17.684,4.363,15.868,4,14,4C6.28,4,0,10.28,0,18s6.28,14,14,14s14-6.28,14-14
	c0-1.869-0.363-3.685-1.078-5.396c-0.213-0.511-0.801-0.75-1.309-0.537c-0.51,0.213-0.75,0.799-0.537,1.309
	C25.689,14.841,26,16.397,26,18c0,6.617-5.383,12-12,12S2,24.617,2,18S7.383,6,14,6c1.603,0,3.158,0.311,4.624,0.924
	c0.508,0.212,1.096-0.026,1.309-0.537C20.146,5.877,19.905,5.291,19.396,5.078z"/>
</svg>
