<?xml version="1.0" encoding="utf-8"?>
<!-- Generator: Adobe Illustrator 19.2.1, SVG Export Plug-In . SVG Version: 6.00 Build 0)  -->
<!DOCTYPE svg PUBLIC "-//W3C//DTD SVG 1.1//EN" "http://www.w3.org/Graphics/SVG/1.1/DTD/svg11.dtd">
<svg version="1.1" id="Layer_1" xmlns="http://www.w3.org/2000/svg" xmlns:xlink="http://www.w3.org/1999/xlink" x="0px" y="0px"
	 width="32px" height="32px" viewBox="0 0 32 32" enable-background="new 0 0 32 32" xml:space="preserve">
<path d="M6.827,21.759l-3.534,3.534c-0.391,0.391-0.391,1.023,0,1.414C3.488,26.902,3.744,27,4,27s0.512-0.098,0.707-0.293
	l3.865-3.865C10.754,24.073,13.284,25,16,25c7.985,0,14.507-8.033,14.78-8.375c0.292-0.365,0.293-0.882,0.002-1.248
	c-0.19-0.239-3.434-4.247-8.115-6.63l4.04-4.04c0.391-0.391,0.391-1.023,0-1.414s-1.023-0.391-1.414,0l-4.596,4.596
	c-1.236-0.452-2.544-0.752-3.904-0.841C16.532,7.019,16.269,7,16,7c-0.268,0-0.531,0.018-0.791,0.048
	C7.518,7.546,1.477,15.049,1.216,15.38c-0.288,0.364-0.287,0.879,0.002,1.243C1.372,16.816,3.528,19.485,6.827,21.759z
	 M28.678,15.999C27.029,17.821,21.827,23,16,23c-2.116,0-4.143-0.683-5.95-1.636l1.766-1.766C12.985,20.474,14.43,21,16,21
	c3.859,0,7-3.14,7-7c0-1.166-0.291-2.265-0.797-3.233C25.266,12.443,27.656,14.868,28.678,15.999z M11,14c0-2.757,2.243-5,5-5
	c1.017,0,1.962,0.309,2.753,0.833l-6.92,6.92C11.309,15.962,11,15.017,11,14z M21,14c0,2.757-2.243,5-5,5
	c-1.017,0-1.962-0.309-2.753-0.833l6.92-6.92C20.691,12.038,21,12.983,21,14z M9.804,10.754C9.293,11.725,9,12.828,9,14
	c0,1.57,0.526,3.015,1.402,4.184l-2.123,2.123c-2.327-1.552-4.114-3.374-4.959-4.309C4.338,14.865,6.728,12.43,9.804,10.754z"/>
</svg>
