<?xml version="1.0" encoding="utf-8"?>
<!-- Generator: Adobe Illustrator 19.2.1, SVG Export Plug-In . SVG Version: 6.00 Build 0)  -->
<!DOCTYPE svg PUBLIC "-//W3C//DTD SVG 1.1//EN" "http://www.w3.org/Graphics/SVG/1.1/DTD/svg11.dtd">
<svg version="1.1" id="Layer_1" xmlns="http://www.w3.org/2000/svg" xmlns:xlink="http://www.w3.org/1999/xlink" x="0px" y="0px"
	 width="32px" height="32px" viewBox="0 0 32 32" enable-background="new 0 0 32 32" xml:space="preserve">
<path d="M17.899,14.789l7.715-6c0.253-0.197,0.396-0.504,0.385-0.825s-0.177-0.617-0.444-0.796l-9-6
	c-0.306-0.204-0.702-0.224-1.026-0.05C15.203,1.292,15,1.631,15,2v10.652L7.593,7.195C7.15,6.868,6.521,6.962,6.195,7.407
	c-0.328,0.444-0.233,1.07,0.212,1.397l8.18,6.027l-8.201,6.379c-0.436,0.339-0.515,0.967-0.175,1.403
	c0.339,0.435,0.967,0.517,1.403,0.175L15,17.045V30c0,0.385,0.221,0.734,0.566,0.901C15.705,30.968,15.853,31,16,31
	c0.223,0,0.444-0.074,0.625-0.219l10-8c0.242-0.194,0.381-0.49,0.375-0.801c-0.007-0.311-0.156-0.602-0.407-0.785L17.899,14.789z
	 M17,3.868l6.291,4.194L17,12.955V3.868z M17,27.919V16.61l7.358,5.422L17,27.919z"/>
</svg>
