<?xml version="1.0" encoding="utf-8"?>
<!-- Generator: Adobe Illustrator 19.2.1, SVG Export Plug-In . SVG Version: 6.00 Build 0)  -->
<!DOCTYPE svg PUBLIC "-//W3C//DTD SVG 1.1//EN" "http://www.w3.org/Graphics/SVG/1.1/DTD/svg11.dtd">
<svg version="1.1" id="Layer_1" xmlns="http://www.w3.org/2000/svg" xmlns:xlink="http://www.w3.org/1999/xlink" x="0px" y="0px"
	 width="32px" height="32px" viewBox="0 0 32 32" enable-background="new 0 0 32 32" xml:space="preserve">
<path d="M24.707,23.293c-0.391-0.391-1.023-0.391-1.414,0s-0.391,1.023,0,1.414l6,6C29.488,30.902,29.744,31,30,31
	s0.512-0.098,0.707-0.293c0.391-0.391,0.391-1.023,0-1.414L24.707,23.293z"/>
<path d="M13,26c7.168,0,13-5.832,13-13S20.168,0,13,0S0,5.832,0,13S5.832,26,13,26z M13,2c6.065,0,11,4.935,11,11s-4.935,11-11,11
	S2,19.065,2,13S6.935,2,13,2z"/>
<path d="M9,14h3v3c0,0.552,0.448,1,1,1s1-0.448,1-1v-3h3c0.552,0,1-0.448,1-1s-0.448-1-1-1h-3V9c0-0.552-0.448-1-1-1s-1,0.448-1,1v3
	H9c-0.552,0-1,0.448-1,1S8.448,14,9,14z"/>
</svg>
