<?xml version="1.0" encoding="utf-8"?>
<!-- Generator: Adobe Illustrator 19.2.1, SVG Export Plug-In . SVG Version: 6.00 Build 0)  -->
<!DOCTYPE svg PUBLIC "-//W3C//DTD SVG 1.1//EN" "http://www.w3.org/Graphics/SVG/1.1/DTD/svg11.dtd">
<svg version="1.1" id="Layer_1" xmlns="http://www.w3.org/2000/svg" xmlns:xlink="http://www.w3.org/1999/xlink" x="0px" y="0px"
	 width="32px" height="32px" viewBox="0 0 32 32" enable-background="new 0 0 32 32" xml:space="preserve">
<path d="M31,0H1C0.447,0,0,0.448,0,1v30c0,0.552,0.447,1,1,1h30c0.553,0,1-0.448,1-1V1C32,0.448,31.553,0,31,0z M30,30H2V2h28V30z"
	/>
<path d="M17,9h10c0.553,0,1-0.448,1-1s-0.447-1-1-1H17c-0.553,0-1,0.448-1,1S16.447,9,17,9z"/>
<path d="M5,9h1.142c0.447,1.72,1.999,3,3.858,3c2.206,0,4-1.794,4-4s-1.794-4-4-4C8.141,4,6.589,5.28,6.142,7H5C4.447,7,4,7.448,4,8
	S4.447,9,5,9z M10,6c1.103,0,2,0.897,2,2s-0.897,2-2,2S8,9.103,8,8S8.897,6,10,6z"/>
<path d="M27,15h-2c-0.553,0-1,0.448-1,1s0.447,1,1,1h2c0.553,0,1-0.448,1-1S27.553,15,27,15z"/>
<path d="M5,17h9.142c0.447,1.72,1.999,3,3.858,3c2.206,0,4-1.794,4-4s-1.794-4-4-4c-1.859,0-3.411,1.28-3.858,3H5
	c-0.553,0-1,0.448-1,1S4.447,17,5,17z M18,14c1.103,0,2,0.897,2,2s-0.897,2-2,2s-2-0.897-2-2S16.897,14,18,14z"/>
<path d="M27,23H17c-0.553,0-1,0.448-1,1s0.447,1,1,1h10c0.553,0,1-0.448,1-1S27.553,23,27,23z"/>
<path d="M5,25h1.142c0.447,1.72,1.999,3,3.858,3c2.206,0,4-1.794,4-4s-1.794-4-4-4c-1.859,0-3.411,1.28-3.858,3H5
	c-0.553,0-1,0.448-1,1S4.447,25,5,25z M10,22c1.103,0,2,0.897,2,2s-0.897,2-2,2s-2-0.897-2-2S8.897,22,10,22z"/>
</svg>
