<?xml version="1.0" encoding="utf-8"?>
<!-- Generator: Adobe Illustrator 19.2.1, SVG Export Plug-In . SVG Version: 6.00 Build 0)  -->
<!DOCTYPE svg PUBLIC "-//W3C//DTD SVG 1.1//EN" "http://www.w3.org/Graphics/SVG/1.1/DTD/svg11.dtd">
<svg version="1.1" id="Layer_1" xmlns="http://www.w3.org/2000/svg" xmlns:xlink="http://www.w3.org/1999/xlink" x="0px" y="0px"
	 width="32px" height="32px" viewBox="0 0 32 32" enable-background="new 0 0 32 32" xml:space="preserve">
<path d="M29.993,1c-0.358,0.003-8.818,0.125-14.009,5.316c-4.422,4.423-3.617,9.685-3.176,11.462l-3.515,3.515
	c-0.391,0.391-0.391,1.023,0,1.414C9.488,22.902,9.744,23,10,23s0.512-0.098,0.707-0.293l3.506-3.506
	c0.64,0.169,1.715,0.384,3.046,0.384c2.375,0,5.545-0.688,8.424-3.568C30.875,10.825,30.997,2.365,31,2.008
	c0.002-0.269-0.104-0.525-0.293-0.715C30.518,1.104,30.278,0.963,29.993,1z M24.269,14.603c-3.015,3.014-6.397,3.151-8.354,2.896
	l5.792-5.792c0.391-0.391,0.391-1.023,0-1.414s-1.023-0.391-1.414,0l-5.759,5.759c-0.225-1.992-0.057-5.401,2.863-8.321
	c3.592-3.592,9.206-4.458,11.539-4.666C28.732,5.396,27.871,11.001,24.269,14.603z"/>
<path d="M29,32c0.552,0,1-0.447,1-1V20c0-0.553-0.448-1-1-1s-1,0.447-1,1v10H2V4h10c0.552,0,1-0.447,1-1s-0.448-1-1-1H1
	C0.448,2,0,2.447,0,3v28c0,0.553,0.448,1,1,1H29z"/>
</svg>
