<?xml version="1.0" encoding="utf-8"?>
<!-- Generator: Adobe Illustrator 19.2.1, SVG Export Plug-In . SVG Version: 6.00 Build 0)  -->
<!DOCTYPE svg PUBLIC "-//W3C//DTD SVG 1.1//EN" "http://www.w3.org/Graphics/SVG/1.1/DTD/svg11.dtd">
<svg version="1.1" id="Layer_1" xmlns="http://www.w3.org/2000/svg" xmlns:xlink="http://www.w3.org/1999/xlink" x="0px" y="0px"
	 width="32px" height="32px" viewBox="0 0 32 32" enable-background="new 0 0 32 32" xml:space="preserve">
<path d="M5,32h22c0.553,0,1-0.448,1-1V7h2c0.553,0,1-0.448,1-1s-0.447-1-1-1h-8V1c0-0.552-0.447-1-1-1H11c-0.553,0-1,0.448-1,1v4H2
	C1.447,5,1,5.448,1,6s0.447,1,1,1h2v24C4,31.552,4.447,32,5,32z M26,30H6V7h20V30z M12,2h8v3h-8V2z"/>
<path d="M16,12c-0.553,0-1,0.448-1,1v11c0,0.552,0.447,1,1,1s1-0.448,1-1V13C17,12.448,16.553,12,16,12z"/>
<path d="M11,12c-0.553,0-1,0.448-1,1v11c0,0.552,0.447,1,1,1s1-0.448,1-1V13C12,12.448,11.553,12,11,12z"/>
<path d="M20,13v11c0,0.552,0.447,1,1,1s1-0.448,1-1V13c0-0.552-0.447-1-1-1S20,12.448,20,13z"/>
</svg>
