<?xml version="1.0" encoding="utf-8"?>
<!-- Generator: Adobe Illustrator 19.2.1, SVG Export Plug-In . SVG Version: 6.00 Build 0)  -->
<!DOCTYPE svg PUBLIC "-//W3C//DTD SVG 1.1//EN" "http://www.w3.org/Graphics/SVG/1.1/DTD/svg11.dtd">
<svg version="1.1" id="Layer_1" xmlns="http://www.w3.org/2000/svg" xmlns:xlink="http://www.w3.org/1999/xlink" x="0px" y="0px"
	 width="32px" height="32px" viewBox="0 0 32 32" enable-background="new 0 0 32 32" xml:space="preserve">
<path d="M26,12c3.309,0,6-2.691,6-6s-2.691-6-6-6s-6,2.691-6,6c0,0.609,0.093,1.197,0.262,1.751l-9.426,4.713
	C9.744,10.973,7.986,10,6,10c-3.309,0-6,2.691-6,6s2.691,6,6,6c1.986,0,3.744-0.973,4.836-2.464l9.426,4.713
	C20.093,24.803,20,25.391,20,26c0,3.309,2.691,6,6,6s6-2.691,6-6s-2.691-6-6-6c-1.986,0-3.744,0.973-4.836,2.464l-9.426-4.713
	C11.907,17.196,12,16.609,12,16s-0.093-1.196-0.262-1.751l9.426-4.713C22.256,11.027,24.014,12,26,12z M26,22c2.206,0,4,1.794,4,4
	s-1.794,4-4,4s-4-1.794-4-4S23.794,22,26,22z M6,20c-2.206,0-4-1.794-4-4s1.794-4,4-4c1.524,0,2.835,0.866,3.51,2.123
	c0.013,0.036,0.012,0.073,0.029,0.108c0.037,0.074,0.085,0.137,0.137,0.197C9.884,14.911,10,15.442,10,16
	c0,0.588-0.135,1.142-0.364,1.645C9.605,17.688,9.564,17.72,9.54,17.77c-0.017,0.035-0.016,0.072-0.029,0.108
	C8.835,19.134,7.524,20,6,20z M26,2c2.206,0,4,1.794,4,4s-1.794,4-4,4s-4-1.794-4-4S23.794,2,26,2z"/>
</svg>
