<?xml version="1.0" encoding="utf-8"?>
<!-- Generator: Adobe Illustrator 19.2.1, SVG Export Plug-In . SVG Version: 6.00 Build 0)  -->
<!DOCTYPE svg PUBLIC "-//W3C//DTD SVG 1.1//EN" "http://www.w3.org/Graphics/SVG/1.1/DTD/svg11.dtd">
<svg version="1.1" id="Layer_1" xmlns="http://www.w3.org/2000/svg" xmlns:xlink="http://www.w3.org/1999/xlink" x="0px" y="0px"
	 width="32px" height="32px" viewBox="0 0 32 32" enable-background="new 0 0 32 32" xml:space="preserve">
<path d="M30.707,30.707c0.391-0.391,0.391-1.023,0-1.414l-6-6c-0.391-0.391-1.023-0.391-1.414,0s-0.391,1.023,0,1.414l6,6
	C29.488,30.902,29.744,31,30,31S30.512,30.902,30.707,30.707z"/>
<path d="M13,26c7.168,0,13-5.832,13-13S20.168,0,13,0S0,5.832,0,13S5.832,26,13,26z M13,2c6.065,0,11,4.935,11,11s-4.935,11-11,11
	S2,19.065,2,13S6.935,2,13,2z"/>
<path d="M6.22,11.249C6.856,8.782,8.783,6.855,11.25,6.22c0.535-0.138,0.857-0.683,0.719-1.217s-0.681-0.857-1.217-0.719
	C7.579,5.1,5.101,7.578,4.284,10.75c-0.138,0.535,0.184,1.08,0.719,1.218C5.086,11.989,5.17,12,5.252,12
	C5.698,12,6.104,11.7,6.22,11.249z"/>
</svg>
