<?xml version="1.0" encoding="utf-8"?>
<!-- Generator: Adobe Illustrator 19.2.1, SVG Export Plug-In . SVG Version: 6.00 Build 0)  -->
<!DOCTYPE svg PUBLIC "-//W3C//DTD SVG 1.1//EN" "http://www.w3.org/Graphics/SVG/1.1/DTD/svg11.dtd">
<svg version="1.1" id="Layer_1" xmlns="http://www.w3.org/2000/svg" xmlns:xlink="http://www.w3.org/1999/xlink" x="0px" y="0px"
	 width="32px" height="32px" viewBox="0 0 32 32" enable-background="new 0 0 32 32" xml:space="preserve">
<path d="M16,2c2.757,0,5,2.243,5,5c0,0.552,0.448,1,1,1s1-0.448,1-1c0-3.86-3.14-7-7-7S9,3.14,9,7v3H5c-0.552,0-1,0.448-1,1v20
	c0,0.552,0.448,1,1,1h22c0.552,0,1-0.448,1-1V11c0-0.552-0.448-1-1-1h-5H11V7C11,4.243,13.243,2,16,2z M22,12h4v18H6V12h4H22z"/>
<path d="M15,22.858V25c0,0.552,0.448,1,1,1s1-0.448,1-1v-2.142c1.72-0.447,3-2,3-3.858c0-2.206-1.794-4-4-4s-4,1.794-4,4
	C12,20.858,13.28,22.411,15,22.858z M16,17c1.103,0,2,0.897,2,2s-0.897,2-2,2s-2-0.897-2-2S14.897,17,16,17z"/>
</svg>
