<?xml version="1.0" encoding="utf-8"?>
<!-- Generator: Adobe Illustrator 19.2.1, SVG Export Plug-In . SVG Version: 6.00 Build 0)  -->
<!DOCTYPE svg PUBLIC "-//W3C//DTD SVG 1.1//EN" "http://www.w3.org/Graphics/SVG/1.1/DTD/svg11.dtd">
<svg version="1.1" id="Layer_1" xmlns="http://www.w3.org/2000/svg" xmlns:xlink="http://www.w3.org/1999/xlink" x="0px" y="0px"
	 width="32px" height="32px" viewBox="0 0 32 32" enable-background="new 0 0 32 32" xml:space="preserve">
<path d="M31,2H1C0.448,2,0,2.447,0,3v26c0,0.553,0.448,1,1,1h30c0.552,0,1-0.447,1-1V3C32,2.447,31.552,2,31,2z M30,8H8V4h22V8z
	 M6,4v4H2V4H6z M2,28V10h28v18H2z"/>
<path d="M20,18h-3v-3c0-0.553-0.448-1-1-1s-1,0.447-1,1v3h-3c-0.552,0-1,0.447-1,1s0.448,1,1,1h3v3c0,0.553,0.448,1,1,1s1-0.447,1-1
	v-3h3c0.552,0,1-0.447,1-1S20.552,18,20,18z"/>
</svg>
