<?xml version="1.0" encoding="utf-8"?>
<!-- Generator: Adobe Illustrator 19.2.1, SVG Export Plug-In . SVG Version: 6.00 Build 0)  -->
<!DOCTYPE svg PUBLIC "-//W3C//DTD SVG 1.1//EN" "http://www.w3.org/Graphics/SVG/1.1/DTD/svg11.dtd">
<svg version="1.1" id="Layer_1" xmlns="http://www.w3.org/2000/svg" xmlns:xlink="http://www.w3.org/1999/xlink" x="0px" y="0px"
	 width="32px" height="32px" viewBox="0 0 32 32" enable-background="new 0 0 32 32" xml:space="preserve">
<path d="M1,8h6c0.553,0,1-0.448,1-1V1c0-0.552-0.447-1-1-1H1C0.447,0,0,0.448,0,1v6C0,7.552,0.447,8,1,8z M2,2h4v4H2V2z"/>
<path d="M12,7c0,0.552,0.447,1,1,1h6c0.553,0,1-0.448,1-1V1c0-0.552-0.447-1-1-1h-6c-0.553,0-1,0.448-1,1V7z M14,2h4v4h-4V2z"/>
<path d="M31,0h-6c-0.553,0-1,0.448-1,1v6c0,0.552,0.447,1,1,1h6c0.553,0,1-0.448,1-1V1C32,0.448,31.553,0,31,0z M30,6h-4V2h4V6z"/>
<path d="M1,20h6c0.553,0,1-0.448,1-1v-6c0-0.552-0.447-1-1-1H1c-0.553,0-1,0.448-1,1v6C0,19.552,0.447,20,1,20z M2,14h4v4H2V14z"/>
<path d="M12,19c0,0.552,0.447,1,1,1h6c0.553,0,1-0.448,1-1v-6c0-0.552-0.447-1-1-1h-6c-0.553,0-1,0.448-1,1V19z M14,14h4v4h-4V14z"
	/>
<path d="M31,12h-6c-0.553,0-1,0.448-1,1v6c0,0.552,0.447,1,1,1h6c0.553,0,1-0.448,1-1v-6C32,12.448,31.553,12,31,12z M30,18h-4v-4h4
	V18z"/>
<path d="M1,32h6c0.553,0,1-0.448,1-1v-6c0-0.552-0.447-1-1-1H1c-0.553,0-1,0.448-1,1v6C0,31.552,0.447,32,1,32z M2,26h4v4H2V26z"/>
<path d="M12,31c0,0.552,0.447,1,1,1h6c0.553,0,1-0.448,1-1v-6c0-0.552-0.447-1-1-1h-6c-0.553,0-1,0.448-1,1V31z M14,26h4v4h-4V26z"
	/>
<path d="M31,24h-6c-0.553,0-1,0.448-1,1v6c0,0.552,0.447,1,1,1h6c0.553,0,1-0.448,1-1v-6C32,24.448,31.553,24,31,24z M30,30h-4v-4h4
	V30z"/>
</svg>
