<?xml version="1.0" encoding="utf-8"?>
<!-- Generator: Adobe Illustrator 19.2.1, SVG Export Plug-In . SVG Version: 6.00 Build 0)  -->
<!DOCTYPE svg PUBLIC "-//W3C//DTD SVG 1.1//EN" "http://www.w3.org/Graphics/SVG/1.1/DTD/svg11.dtd">
<svg version="1.1" id="Layer_1" xmlns="http://www.w3.org/2000/svg" xmlns:xlink="http://www.w3.org/1999/xlink" x="0px" y="0px"
	 width="32px" height="32px" viewBox="0 0 32 32" enable-background="new 0 0 32 32" xml:space="preserve">
<path d="M4,1v14c0,0.552,0.448,1,1,1s1-0.448,1-1V1c0-0.552-0.448-1-1-1S4,0.448,4,1z"/>
<path d="M1,25h3v6c0,0.552,0.448,1,1,1s1-0.448,1-1v-6h3c0.552,0,1-0.448,1-1v-5c0-0.552-0.448-1-1-1H1c-0.552,0-1,0.448-1,1v5
	C0,24.552,0.448,25,1,25z M2,20h6v3H2V20z"/>
<path d="M26,1v14c0,0.552,0.448,1,1,1s1-0.448,1-1V1c0-0.552-0.448-1-1-1S26,0.448,26,1z"/>
<path d="M31,18h-8c-0.552,0-1,0.448-1,1v5c0,0.552,0.448,1,1,1h3v6c0,0.552,0.448,1,1,1s1-0.448,1-1v-6h3c0.552,0,1-0.448,1-1v-5
	C32,18.448,31.552,18,31,18z M30,23h-6v-3h6V23z"/>
<path d="M17,4V1c0-0.552-0.448-1-1-1s-1,0.448-1,1v3c0,0.552,0.448,1,1,1S17,4.552,17,4z"/>
<path d="M16,32c0.552,0,1-0.448,1-1V14h3c0.552,0,1-0.448,1-1V8c0-0.552-0.448-1-1-1h-8c-0.552,0-1,0.448-1,1v5c0,0.552,0.448,1,1,1
	h3v17C15,31.552,15.448,32,16,32z M13,9h6v3h-6V9z"/>
</svg>
