<?xml version="1.0" encoding="utf-8"?>
<!-- Generator: Adobe Illustrator 19.2.1, SVG Export Plug-In . SVG Version: 6.00 Build 0)  -->
<!DOCTYPE svg PUBLIC "-//W3C//DTD SVG 1.1//EN" "http://www.w3.org/Graphics/SVG/1.1/DTD/svg11.dtd">
<svg version="1.1" id="Layer_1" xmlns="http://www.w3.org/2000/svg" xmlns:xlink="http://www.w3.org/1999/xlink" x="0px" y="0px"
	 width="32px" height="32px" viewBox="0 0 32 32" enable-background="new 0 0 32 32" xml:space="preserve">
<path d="M28,23V9c0-0.553-0.447-1-1-1H5C4.447,8,4,8.447,4,9v14c0,0.553,0.447,1,1,1h22C27.553,24,28,23.553,28,23z M26,22H6V10h20
	V22z"/>
<path d="M1,14c0.553,0,1-0.447,1-1V6h7c0.553,0,1-0.447,1-1S9.553,4,9,4H1C0.447,4,0,4.447,0,5v8C0,13.553,0.447,14,1,14z"/>
<path d="M31,4h-8c-0.553,0-1,0.447-1,1s0.447,1,1,1h7v7c0,0.553,0.447,1,1,1s1-0.447,1-1V5C32,4.447,31.553,4,31,4z"/>
<path d="M31,18c-0.553,0-1,0.447-1,1v7h-7c-0.553,0-1,0.447-1,1s0.447,1,1,1h8c0.553,0,1-0.447,1-1v-8C32,18.447,31.553,18,31,18z"
	/>
<path d="M1,28h8c0.553,0,1-0.447,1-1s-0.447-1-1-1H2v-7c0-0.553-0.447-1-1-1s-1,0.447-1,1v8C0,27.553,0.447,28,1,28z"/>
</svg>
