<?xml version="1.0" encoding="utf-8"?>
<!-- Generator: Adobe Illustrator 19.2.1, SVG Export Plug-In . SVG Version: 6.00 Build 0)  -->
<!DOCTYPE svg PUBLIC "-//W3C//DTD SVG 1.1//EN" "http://www.w3.org/Graphics/SVG/1.1/DTD/svg11.dtd">
<svg version="1.1" id="Layer_1" xmlns="http://www.w3.org/2000/svg" xmlns:xlink="http://www.w3.org/1999/xlink" x="0px" y="0px"
	 width="32px" height="32px" viewBox="0 0 32 32" enable-background="new 0 0 32 32" xml:space="preserve">
<path d="M21.293,18.707C21.488,18.902,21.744,19,22,19s0.512-0.098,0.707-0.293l8-8c0.391-0.391,0.391-1.023,0-1.414l-8-8
	c-0.391-0.391-1.023-0.391-1.414,0l-8,8c-0.391,0.391-0.391,1.023,0,1.414l1,1c0.391,0.391,1.023,0.391,1.414,0s0.391-1.023,0-1.414
	L15.414,10L22,3.414L28.586,10L22,16.586l-0.293-0.293c-0.391-0.391-1.023-0.391-1.414,0s-0.391,1.023,0,1.414L21.293,18.707z"/>
<path d="M10.293,15.707c0.391,0.391,1.023,0.391,1.414,0s0.391-1.023,0-1.414l-1-1c-0.391-0.391-1.023-0.391-1.414,0l-8,8
	c-0.391,0.391-0.391,1.023,0,1.414l8,8C9.488,30.902,9.744,31,10,31s0.512-0.098,0.707-0.293l8-8c0.391-0.391,0.391-1.023,0-1.414
	l-1-1c-0.391-0.391-1.023-0.391-1.414,0s-0.391,1.023,0,1.414L16.586,22L10,28.586L3.414,22L10,15.414L10.293,15.707z"/>
<path d="M21.707,10.293c-0.391-0.391-1.023-0.391-1.414,0l-10,10c-0.391,0.391-0.391,1.023,0,1.414C10.488,21.902,10.744,22,11,22
	s0.512-0.098,0.707-0.293l10-10C22.098,11.316,22.098,10.684,21.707,10.293z"/>
</svg>
