<?xml version="1.0" encoding="utf-8"?>
<!-- Generator: Adobe Illustrator 19.2.1, SVG Export Plug-In . SVG Version: 6.00 Build 0)  -->
<!DOCTYPE svg PUBLIC "-//W3C//DTD SVG 1.1//EN" "http://www.w3.org/Graphics/SVG/1.1/DTD/svg11.dtd">
<svg version="1.1" id="Layer_1" xmlns="http://www.w3.org/2000/svg" xmlns:xlink="http://www.w3.org/1999/xlink" x="0px" y="0px"
	 width="32px" height="32px" viewBox="0 0 32 32" enable-background="new 0 0 32 32" xml:space="preserve">
<path d="M21.293,16.293L14,23.586l-3.293-3.293c-0.391-0.391-1.023-0.391-1.414,0s-0.391,1.023,0,1.414l4,4
	C13.488,25.902,13.744,26,14,26s0.512-0.098,0.707-0.293l8-8c0.391-0.391,0.391-1.023,0-1.414S21.684,15.902,21.293,16.293z"/>
<path d="M31,3h-5V1c0-0.553-0.448-1-1-1h-4c-0.552,0-1,0.447-1,1v2h-8V1c0-0.553-0.448-1-1-1H7C6.448,0,6,0.447,6,1v2H1
	C0.448,3,0,3.447,0,4v27c0,0.553,0.448,1,1,1h30c0.552,0,1-0.447,1-1V4C32,3.447,31.552,3,31,3z M22,2h2v4h-2V2z M8,2h2v4H8V2z M6,5
	v2c0,0.553,0.448,1,1,1h4c0.552,0,1-0.447,1-1V5h8v2c0,0.553,0.448,1,1,1h4c0.552,0,1-0.447,1-1V5h4v5H2V5H6z M2,30V12h28v18H2z"/>
</svg>
