<?xml version="1.0" encoding="utf-8"?>
<!-- Generator: Adobe Illustrator 19.2.1, SVG Export Plug-In . SVG Version: 6.00 Build 0)  -->
<!DOCTYPE svg PUBLIC "-//W3C//DTD SVG 1.1//EN" "http://www.w3.org/Graphics/SVG/1.1/DTD/svg11.dtd">
<svg version="1.1" id="Layer_1" xmlns="http://www.w3.org/2000/svg" xmlns:xlink="http://www.w3.org/1999/xlink" x="0px" y="0px"
	 width="32px" height="32px" viewBox="0 0 32 32" enable-background="new 0 0 32 32" xml:space="preserve">
<path d="M28,12h-7V8c0-3.077-1.861-6.726-5.418-7.745c-0.623-0.18-1.275-0.06-1.789,0.328C13.289,0.962,13,1.542,13,2.174v5.483
	l-5,6.428V14c0-0.553-0.448-1-1-1H1c-0.552,0-1,0.447-1,1v16.996c0,0.553,0.448,1,1,1h6c0.552,0,1-0.447,1-1v-1.391l1.919,0.959
	C11.797,31.504,13.9,32,16,32h10c2.218,0,4.104-1.616,4.492-3.889l1.5-12C31.998,16.07,32,16.028,32,15.987
	C32,13.789,30.206,12,28,12z M6,29.996H2V15h4V29.996z M28.514,27.818C28.298,29.083,27.241,30,26,30H16
	c-1.792,0-3.585-0.424-5.187-1.225L8,27.369V17.344l6.79-8.729C14.926,8.438,15,8.223,15,8l0.03-5.823C17.636,2.924,19,5.672,19,8v5
	c0,0.553,0.448,1,1,1h8c1.084,0,1.969,0.861,1.999,1.932L28.514,27.818z"/>
</svg>
