<?xml version="1.0" encoding="utf-8"?>
<!-- Generator: Adobe Illustrator 19.2.1, SVG Export Plug-In . SVG Version: 6.00 Build 0)  -->
<!DOCTYPE svg PUBLIC "-//W3C//DTD SVG 1.1//EN" "http://www.w3.org/Graphics/SVG/1.1/DTD/svg11.dtd">
<svg version="1.1" id="Layer_1" xmlns="http://www.w3.org/2000/svg" xmlns:xlink="http://www.w3.org/1999/xlink" x="0px" y="0px"
	 width="32px" height="32px" viewBox="0 0 32 32" enable-background="new 0 0 32 32" xml:space="preserve">
<path d="M25.707,1.293c-0.391-0.391-1.023-0.391-1.414,0l-15,15C9.105,16.48,9,16.734,9,17v5c0,0.553,0.447,1,1,1h5
	c0.266,0,0.52-0.105,0.707-0.293l15-15c0.391-0.391,0.391-1.023,0-1.414L25.707,1.293z M14.586,21H11v-3.586l11-11L25.586,10
	L14.586,21z M27,8.586L23.414,5L25,3.414L28.586,7L27,8.586z"/>
<path d="M26,32c0.553,0,1-0.447,1-1V19c0-0.553-0.447-1-1-1s-1,0.447-1,1v11H2V7h11c0.553,0,1-0.447,1-1s-0.447-1-1-1H1
	C0.447,5,0,5.447,0,6v25c0,0.553,0.447,1,1,1H26z"/>
</svg>
