<?xml version="1.0" encoding="utf-8"?>
<!-- Generator: Adobe Illustrator 19.2.1, SVG Export Plug-In . SVG Version: 6.00 Build 0)  -->
<!DOCTYPE svg PUBLIC "-//W3C//DTD SVG 1.1//EN" "http://www.w3.org/Graphics/SVG/1.1/DTD/svg11.dtd">
<svg version="1.1" id="Layer_1" xmlns="http://www.w3.org/2000/svg" xmlns:xlink="http://www.w3.org/1999/xlink" x="0px" y="0px"
	 width="32px" height="32px" viewBox="0 0 32 32" enable-background="new 0 0 32 32" xml:space="preserve">
<path d="M31,0H1C0.447,0,0,0.448,0,1v30c0,0.552,0.447,1,1,1h30c0.553,0,1-0.448,1-1V1C32,0.448,31.553,0,31,0z M30,30H2V2h28V30z"
	/>
<path d="M8,17h16c0.553,0,1-0.448,1-1s-0.447-1-1-1H8c-0.553,0-1,0.448-1,1S7.447,17,8,17z"/>
<path d="M8,10h16c0.553,0,1-0.448,1-1s-0.447-1-1-1H8C7.447,8,7,8.448,7,9S7.447,10,8,10z"/>
<path d="M8,24h16c0.553,0,1-0.448,1-1s-0.447-1-1-1H8c-0.553,0-1,0.448-1,1S7.447,24,8,24z"/>
</svg>
