<?xml version="1.0" encoding="utf-8"?>
<!-- Generator: Adobe Illustrator 19.2.1, SVG Export Plug-In . SVG Version: 6.00 Build 0)  -->
<!DOCTYPE svg PUBLIC "-//W3C//DTD SVG 1.1//EN" "http://www.w3.org/Graphics/SVG/1.1/DTD/svg11.dtd">
<svg version="1.1" id="Layer_1" xmlns="http://www.w3.org/2000/svg" xmlns:xlink="http://www.w3.org/1999/xlink" x="0px" y="0px"
	 width="32px" height="32px" viewBox="0 0 32 32" enable-background="new 0 0 32 32" xml:space="preserve">
<path fill="#222221" d="M2,31h28c0.552,0,1-0.448,1-1s-0.448-1-1-1H2c-0.552,0-1,0.448-1,1S1.448,31,2,31z"/>
<path fill="#222221" d="M2,21h9c0.552,0,1-0.448,1-1s-0.448-1-1-1H2c-0.552,0-1,0.448-1,1S1.448,21,2,21z"/>
<path fill="#222221" d="M21,21h9c0.552,0,1-0.448,1-1s-0.448-1-1-1h-9c-0.552,0-1,0.448-1,1S20.448,21,21,21z"/>
<path fill="#222221" d="M16,27c0.552,0,1-0.448,1-1V4.414l4.293,4.293C21.488,8.902,21.744,9,22,9s0.512-0.098,0.707-0.293
	c0.391-0.391,0.391-1.023,0-1.414l-6-6c-0.092-0.092-0.203-0.165-0.325-0.216c-0.245-0.101-0.52-0.101-0.764,0
	c-0.122,0.051-0.233,0.124-0.325,0.216l-6,6c-0.391,0.391-0.391,1.023,0,1.414s1.023,0.391,1.414,0L15,4.414V26
	C15,26.552,15.448,27,16,27z"/>
</svg>
