<?xml version="1.0" encoding="utf-8"?>
<!-- Generator: Adobe Illustrator 19.2.1, SVG Export Plug-In . SVG Version: 6.00 Build 0)  -->
<!DOCTYPE svg PUBLIC "-//W3C//DTD SVG 1.1//EN" "http://www.w3.org/Graphics/SVG/1.1/DTD/svg11.dtd">
<svg version="1.1" id="Layer_1" xmlns="http://www.w3.org/2000/svg" xmlns:xlink="http://www.w3.org/1999/xlink" x="0px" y="0px"
	 width="32px" height="32px" viewBox="0 0 32 32" enable-background="new 0 0 32 32" xml:space="preserve">
<path d="M16,8c0.553,0,1-0.448,1-1V4c0-0.552-0.447-1-1-1s-1,0.448-1,1v3C15,7.552,15.447,8,16,8z"/>
<path d="M24,16c0,0.552,0.447,1,1,1h3c0.553,0,1-0.448,1-1s-0.447-1-1-1h-3C24.447,15,24,15.448,24,16z"/>
<path d="M22.364,10.636c0.256,0,0.512-0.098,0.707-0.293l2.121-2.122c0.391-0.391,0.391-1.024,0-1.414
	c-0.391-0.391-1.023-0.391-1.414,0l-2.121,2.122c-0.391,0.391-0.391,1.024,0,1.414C21.853,10.539,22.108,10.636,22.364,10.636z"/>
<path d="M8,16c0-0.552-0.447-1-1-1H4c-0.553,0-1,0.448-1,1s0.447,1,1,1h3C7.553,17,8,16.552,8,16z"/>
<path d="M16,32c8.822,0,16-7.178,16-16S24.822,0,16,0S0,7.178,0,16S7.178,32,16,32z M16,2c7.72,0,14,6.28,14,14s-6.28,14-14,14
	S2,23.72,2,16S8.28,2,16,2z"/>
<path d="M12.567,13.981C12.215,14.576,12,15.26,12,16c0,2.206,1.794,4,4,4s4-1.794,4-4s-1.794-4-4-4
	c-0.74,0-1.424,0.215-2.019,0.567L8.707,7.293c-0.391-0.391-1.023-0.391-1.414,0s-0.391,1.023,0,1.414L12.567,13.981z M18,16
	c0,1.103-0.897,2-2,2s-2-0.897-2-2c0-0.551,0.224-1.051,0.586-1.413c0,0,0.001,0,0.001-0.001s0-0.001,0.001-0.001
	C14.95,14.224,15.449,14,16,14C17.103,14,18,14.897,18,16z"/>
</svg>
