<?xml version="1.0" encoding="utf-8"?>
<!-- Generator: Adobe Illustrator 19.2.1, SVG Export Plug-In . SVG Version: 6.00 Build 0)  -->
<!DOCTYPE svg PUBLIC "-//W3C//DTD SVG 1.1//EN" "http://www.w3.org/Graphics/SVG/1.1/DTD/svg11.dtd">
<svg version="1.1" id="Layer_1" xmlns="http://www.w3.org/2000/svg" xmlns:xlink="http://www.w3.org/1999/xlink" x="0px" y="0px"
	 width="32px" height="32px" viewBox="0 0 32 32" enable-background="new 0 0 32 32" xml:space="preserve">
<path d="M30.967,1.778c-0.006-0.025-0.008-0.048-0.016-0.073c-0.034-0.11-0.087-0.213-0.157-0.306
	c-0.006-0.008-0.007-0.017-0.013-0.025c-0.011-0.014-0.027-0.02-0.039-0.033c-0.031-0.035-0.058-0.073-0.094-0.104
	c-0.042-0.035-0.09-0.06-0.136-0.087c-0.02-0.012-0.037-0.027-0.058-0.037c-0.101-0.051-0.207-0.084-0.318-0.1
	C30.11,1.01,30.085,1.012,30.058,1.01c-0.091-0.005-0.181,0.002-0.271,0.022c-0.029,0.006-0.057,0.01-0.085,0.018
	c-0.012,0.004-0.026,0.004-0.038,0.008l-28,10c-0.349,0.124-0.6,0.43-0.653,0.795s0.098,0.731,0.395,0.95L9,18.417V28
	c0,0.415,0.256,0.787,0.645,0.935C9.76,28.979,9.881,29,10,29c0.279,0,0.554-0.117,0.747-0.335l4.81-5.401l8.848,6.54
	C24.58,29.934,24.789,30,25,30c0.124,0,0.248-0.023,0.367-0.069c0.32-0.127,0.554-0.409,0.616-0.749l5-27
	c0.003-0.015,0-0.03,0.002-0.045c0.004-0.026,0.002-0.051,0.004-0.077C30.995,1.964,30.988,1.87,30.967,1.778z M24.709,4.952
	L10.032,16.693l-5.929-4.383L24.709,4.952z M11,25.374v-5.479l2.942,2.175L11,25.374z M24.308,27.245l-8.182-6.048
	c-0.013-0.012-0.018-0.029-0.031-0.041c-0.036-0.032-0.08-0.044-0.119-0.07l-4.28-3.163L28.527,4.459L24.308,27.245z"/>
</svg>
