<?xml version="1.0" encoding="utf-8"?>
<!-- Generator: Adobe Illustrator 19.2.1, SVG Export Plug-In . SVG Version: 6.00 Build 0)  -->
<!DOCTYPE svg PUBLIC "-//W3C//DTD SVG 1.1//EN" "http://www.w3.org/Graphics/SVG/1.1/DTD/svg11.dtd">
<svg version="1.1" id="Layer_1" xmlns="http://www.w3.org/2000/svg" xmlns:xlink="http://www.w3.org/1999/xlink" x="0px" y="0px"
	 width="32px" height="32px" viewBox="0 0 32 32" enable-background="new 0 0 32 32" xml:space="preserve">
<path d="M15.367,18.774C15.551,18.925,15.775,19,16,19s0.449-0.075,0.633-0.226l11-9c0.427-0.351,0.49-0.98,0.141-1.407
	c-0.35-0.429-0.979-0.49-1.407-0.142L16,16.708L5.633,8.226C5.205,7.877,4.577,7.938,4.226,8.367
	c-0.35,0.427-0.287,1.057,0.141,1.407L15.367,18.774z"/>
<path d="M31,4H1C0.448,4,0,4.447,0,5v22c0,0.553,0.448,1,1,1h30c0.552,0,1-0.447,1-1V5C32,4.447,31.552,4,31,4z M30,26H2V6h28V26z"
	/>
<path d="M8.219,16.375l-4,5c-0.345,0.432-0.275,1.061,0.156,1.406C4.56,22.929,4.78,23,5,23c0.293,0,0.584-0.129,0.781-0.375l4-5
	c0.345-0.432,0.275-1.061-0.156-1.406C9.194,15.874,8.564,15.944,8.219,16.375z"/>
<path d="M23.781,16.375c-0.345-0.432-0.975-0.501-1.405-0.156c-0.432,0.346-0.501,0.975-0.156,1.406l4,5
	C26.417,22.872,26.707,23,27,23c0.219,0,0.44-0.071,0.624-0.219c0.432-0.346,0.501-0.975,0.156-1.406L23.781,16.375z"/>
</svg>
