<?xml version="1.0" encoding="utf-8"?>
<!-- Generator: Adobe Illustrator 19.2.1, SVG Export Plug-In . SVG Version: 6.00 Build 0)  -->
<!DOCTYPE svg PUBLIC "-//W3C//DTD SVG 1.1//EN" "http://www.w3.org/Graphics/SVG/1.1/DTD/svg11.dtd">
<svg version="1.1" id="Layer_1" xmlns="http://www.w3.org/2000/svg" xmlns:xlink="http://www.w3.org/1999/xlink" x="0px" y="0px"
	 width="32px" height="32px" viewBox="0 0 32 32" enable-background="new 0 0 32 32" xml:space="preserve">
<path d="M13,0C5.832,0,0,5.832,0,13s5.832,13,13,13c2.315,0,4.486-0.615,6.37-1.68l6.95,6.95c0.195,0.195,0.451,0.293,0.707,0.293
	s0.512-0.098,0.707-0.293l3.536-3.536c0.391-0.391,0.391-1.023,0-1.414l-6.95-6.95C25.385,17.486,26,15.315,26,13
	C26,5.832,20.168,0,13,0z M2,13C2,6.935,6.935,2,13,2s11,4.935,11,11s-4.935,11-11,11S2,19.065,2,13z M29.148,27.027l-2.122,2.122
	l-5.967-5.967c0.786-0.624,1.498-1.335,2.122-2.122L29.148,27.027z"/>
<path d="M17,12H9c-0.552,0-1,0.448-1,1s0.448,1,1,1h8c0.552,0,1-0.448,1-1S17.552,12,17,12z"/>
</svg>
