<?xml version="1.0" encoding="utf-8"?>
<!-- Generator: Adobe Illustrator 19.2.1, SVG Export Plug-In . SVG Version: 6.00 Build 0)  -->
<!DOCTYPE svg PUBLIC "-//W3C//DTD SVG 1.1//EN" "http://www.w3.org/Graphics/SVG/1.1/DTD/svg11.dtd">
<svg version="1.1" id="Layer_1" xmlns="http://www.w3.org/2000/svg" xmlns:xlink="http://www.w3.org/1999/xlink" x="0px" y="0px"
	 width="32px" height="32px" viewBox="0 0 32 32" enable-background="new 0 0 32 32" xml:space="preserve">
<path d="M22.818,0C20.193,0,17.729,1.127,16,3.069C14.271,1.127,11.807,0,9.182,0C4.119,0,0,4.166,0,9.286
	C0,17.942,14.734,30.25,15.362,30.77C15.547,30.923,15.773,31,16,31s0.453-0.077,0.638-0.23C17.266,30.25,32,17.942,32,9.286
	C32,4.166,27.881,0,22.818,0z M16,28.684C13.181,26.23,2,16.072,2,9.286C2,5.269,5.222,2,9.182,2c2.408,0,4.645,1.218,5.982,3.258
	c0.369,0.563,1.303,0.563,1.672,0C18.174,3.218,20.41,2,22.818,2C26.778,2,30,5.269,30,9.286C30,16.067,18.818,26.23,16,28.684z"/>
</svg>
