<?xml version="1.0" encoding="utf-8"?>
<!-- Generator: Adobe Illustrator 19.2.1, SVG Export Plug-In . SVG Version: 6.00 Build 0)  -->
<!DOCTYPE svg PUBLIC "-//W3C//DTD SVG 1.1//EN" "http://www.w3.org/Graphics/SVG/1.1/DTD/svg11.dtd">
<svg version="1.1" id="Layer_1" xmlns="http://www.w3.org/2000/svg" xmlns:xlink="http://www.w3.org/1999/xlink" x="0px" y="0px"
	 width="32px" height="32px" viewBox="0 0 32 32" enable-background="new 0 0 32 32" xml:space="preserve">
<path d="M22.707,9.293c-0.391-0.391-1.023-0.391-1.414,0L16,14.586l-5.293-5.293c-0.391-0.391-1.023-0.391-1.414,0
	s-0.391,1.023,0,1.414L14.586,16l-5.293,5.293c-0.391,0.391-0.391,1.023,0,1.414C9.488,22.902,9.744,23,10,23
	s0.512-0.098,0.707-0.293L16,17.414l5.293,5.293C21.488,22.902,21.744,23,22,23s0.512-0.098,0.707-0.293
	c0.391-0.391,0.391-1.023,0-1.414L17.414,16l5.293-5.293C23.098,10.316,23.098,9.684,22.707,9.293z"/>
<path d="M16,0C7.178,0,0,7.178,0,16s7.178,16,16,16s16-7.178,16-16S24.822,0,16,0z M16,30C8.28,30,2,23.72,2,16S8.28,2,16,2
	s14,6.28,14,14S23.72,30,16,30z"/>
</svg>
