<?xml version="1.0" encoding="utf-8"?>
<!-- Generator: Adobe Illustrator 19.2.1, SVG Export Plug-In . SVG Version: 6.00 Build 0)  -->
<!DOCTYPE svg PUBLIC "-//W3C//DTD SVG 1.1//EN" "http://www.w3.org/Graphics/SVG/1.1/DTD/svg11.dtd">
<svg version="1.1" id="Layer_1" xmlns="http://www.w3.org/2000/svg" xmlns:xlink="http://www.w3.org/1999/xlink" x="0px" y="0px"
	 width="32px" height="32px" viewBox="0 0 32 32" enable-background="new 0 0 32 32" xml:space="preserve">
<path d="M1.293,30.707C1.488,30.902,1.744,31,2,31s0.512-0.098,0.707-0.293l4.18-4.18c1.069,0.471,3.266,1.265,5.953,1.265
	c2.869,0,6.289-0.907,9.467-4.085c6.55-6.55,8.6-20.96,8.684-21.57c0.044-0.314-0.064-0.631-0.292-0.853S30.15,0.96,29.839,1.013
	C29.211,1.115,14.39,3.595,8.293,9.693C2.107,15.88,4.483,22.906,5.47,25.116l-4.177,4.177C0.902,29.684,0.902,30.316,1.293,30.707z
	 M9.707,11.107C14.321,6.492,24.975,4.01,28.78,3.246c-0.678,3.739-2.938,14.097-7.888,19.047
	c-4.815,4.814-10.134,3.609-12.484,2.713l9.299-9.299c0.391-0.391,0.391-1.023,0-1.414s-1.023-0.391-1.414,0l-9.296,9.296
	C6.111,21.242,4.909,15.906,9.707,11.107z"/>
</svg>
