<?xml version="1.0" encoding="utf-8"?>
<!-- Generator: Adobe Illustrator 19.2.1, SVG Export Plug-In . SVG Version: 6.00 Build 0)  -->
<!DOCTYPE svg PUBLIC "-//W3C//DTD SVG 1.1//EN" "http://www.w3.org/Graphics/SVG/1.1/DTD/svg11.dtd">
<svg version="1.1" id="Layer_1" xmlns="http://www.w3.org/2000/svg" xmlns:xlink="http://www.w3.org/1999/xlink" x="0px" y="0px"
	 width="32px" height="32px" viewBox="0 0 32 32" enable-background="new 0 0 32 32" xml:space="preserve">
<path d="M16,32c6.743,0,14-1.564,14-5V5c0-3.436-7.257-5-14-5S2,1.564,2,5v22C2,30.436,9.257,32,16,32z M16,30
	c-7.765,0-12-1.982-12-3v-8.258C6.621,20.277,11.426,21,16,21s9.379-0.723,12-2.258V27C28,28.018,23.765,30,16,30z M28,16
	c0,1.018-4.235,3-12,3S4,17.018,4,16V7.742C6.621,9.277,11.426,10,16,10s9.379-0.723,12-2.258V16z M16,2c7.765,0,12,1.982,12,3
	s-4.235,3-12,3S4,6.018,4,5S8.235,2,16,2z"/>
</svg>
