<?xml version="1.0" encoding="utf-8"?>
<!-- Generator: Adobe Illustrator 19.2.1, SVG Export Plug-In . SVG Version: 6.00 Build 0)  -->
<!DOCTYPE svg PUBLIC "-//W3C//DTD SVG 1.1//EN" "http://www.w3.org/Graphics/SVG/1.1/DTD/svg11.dtd">
<svg version="1.1" id="Layer_1" xmlns="http://www.w3.org/2000/svg" xmlns:xlink="http://www.w3.org/1999/xlink" x="0px" y="0px"
	 width="32px" height="32px" viewBox="0 0 32 32" enable-background="new 0 0 32 32" xml:space="preserve">
<path d="M13,26c2.315,0,4.485-0.615,6.37-1.68l6.95,6.949c0.188,0.188,0.441,0.293,0.707,0.293s0.52-0.105,0.707-0.293l3.535-3.536
	c0.391-0.391,0.391-1.023,0-1.414l-6.95-6.95C25.385,17.486,26,15.315,26,13c0-7.168-5.832-13-13-13S0,5.832,0,13S5.832,26,13,26z
	 M29.148,27.027l-2.121,2.122l-5.968-5.967c0.786-0.624,1.498-1.335,2.122-2.122L29.148,27.027z M13,2c6.065,0,11,4.935,11,11
	s-4.935,11-11,11S2,19.065,2,13S6.935,2,13,2z"/>
</svg>
