<?xml version="1.0" encoding="utf-8"?>
<!-- Generator: Adobe Illustrator 19.2.1, SVG Export Plug-In . SVG Version: 6.00 Build 0)  -->
<!DOCTYPE svg PUBLIC "-//W3C//DTD SVG 1.1//EN" "http://www.w3.org/Graphics/SVG/1.1/DTD/svg11.dtd">
<svg version="1.1" id="Layer_1" xmlns="http://www.w3.org/2000/svg" xmlns:xlink="http://www.w3.org/1999/xlink" x="0px" y="0px"
	 width="32px" height="32px" viewBox="0 0 32 32" enable-background="new 0 0 32 32" xml:space="preserve">
<path fill="#222221" d="M2,31h28c0.352,0,0.678-0.185,0.858-0.487c0.181-0.302,0.189-0.677,0.022-0.987l-14-26
	c-0.349-0.647-1.412-0.647-1.761,0l-14,26c-0.167,0.31-0.159,0.685,0.022,0.987C1.322,30.815,1.648,31,2,31z M16,6.109L28.326,29
	H3.674L16,6.109z"/>
<path fill="#222221" d="M16,13c-0.552,0-1,0.448-1,1v6c0,0.552,0.448,1,1,1s1-0.448,1-1v-6C17,13.448,16.552,13,16,13z"/>
<path fill="#222221" d="M16,23c-0.552,0-1,0.448-1,1v1c0,0.552,0.448,1,1,1s1-0.448,1-1v-1C17,23.448,16.552,23,16,23z"/>
</svg>
