<?xml version="1.0" encoding="utf-8"?>
<!-- Generator: Adobe Illustrator 19.2.1, SVG Export Plug-In . SVG Version: 6.00 Build 0)  -->
<!DOCTYPE svg PUBLIC "-//W3C//DTD SVG 1.1//EN" "http://www.w3.org/Graphics/SVG/1.1/DTD/svg11.dtd">
<svg version="1.1" id="Layer_1" xmlns="http://www.w3.org/2000/svg" xmlns:xlink="http://www.w3.org/1999/xlink" x="0px" y="0px"
	 width="32px" height="32px" viewBox="0 0 32 32" enable-background="new 0 0 32 32" xml:space="preserve">
<path d="M30.646,3.551c-0.322-0.062-0.654,0.044-0.887,0.276L27,6.586L25.414,5l2.759-2.759c0.232-0.232,0.336-0.563,0.276-0.887
	c-0.059-0.323-0.272-0.597-0.572-0.731C26.962,0.21,25.994,0,25,0c-3.859,0-7,3.141-7,7c0,0.349,0.028,0.703,0.085,1.061
	l-3.466,3.144l-2.994-2.994l-0.009-1.843c-0.001-0.264-0.106-0.516-0.293-0.702L7.08,1.424c-0.391-0.391-1.023-0.391-1.414,0
	L1.424,5.666c-0.391,0.391-0.391,1.023,0,1.414l4.242,4.243c0.187,0.187,0.438,0.292,0.702,0.293l1.843,0.009l2.827,2.827
	l-9.71,8.807C1.125,23.443,1.007,23.702,1,23.976s0.1,0.538,0.293,0.731l6,6C7.48,30.895,7.735,31,8,31c0.008,0,0.017,0,0.024,0
	c0.273-0.007,0.532-0.125,0.716-0.328l6.905-7.613l6.275,6.275c1.021,1.021,2.364,1.533,3.706,1.532
	c1.343,0,2.686-0.511,3.708-1.532c2.044-2.045,2.044-5.371,0-7.414l-6.636-6.636l1.242-1.369C28.251,14.596,32,11.208,32,7
	c0-0.994-0.21-1.962-0.623-2.877C31.242,3.823,30.969,3.609,30.646,3.551z M9.334,9.92C9.147,9.733,8.896,9.628,8.632,9.627
	L6.789,9.618L3.545,6.373l2.828-2.828l3.245,3.244l0.009,1.843C9.628,8.896,9.733,9.147,9.92,9.334l3.216,3.216l-0.615,0.557
	L9.334,9.92z M27.92,23.334c1.264,1.264,1.264,3.321,0,4.586c-1.267,1.264-3.323,1.263-4.586,0l-6.344-6.344l4.362-4.809
	L27.92,23.334z M23.816,11.852c-0.357-0.085-0.732,0.027-0.978,0.3l-2.207,2.433c-0.009,0.008-0.02,0.01-0.028,0.019
	c-0.014,0.014-0.018,0.032-0.031,0.047L7.965,28.551l-4.516-4.516l9.68-8.78c0.024-0.02,0.053-0.028,0.076-0.05
	c0.014-0.014,0.018-0.032,0.031-0.046l6.613-5.998c0.271-0.246,0.387-0.621,0.3-0.978C20.05,7.781,20,7.383,20,7
	c0-2.757,2.243-5,5-5c0.187,0,0.371,0.011,0.555,0.031l-2.262,2.262c-0.391,0.391-0.391,1.023,0,1.414l3,3
	c0.391,0.391,1.023,0.391,1.414,0l2.262-2.262C29.989,6.629,30,6.813,30,7C30,10.14,27.115,12.658,23.816,11.852z"/>
</svg>
