<?xml version="1.0" encoding="utf-8"?>
<!-- Generator: Adobe Illustrator 19.2.1, SVG Export Plug-In . SVG Version: 6.00 Build 0)  -->
<!DOCTYPE svg PUBLIC "-//W3C//DTD SVG 1.1//EN" "http://www.w3.org/Graphics/SVG/1.1/DTD/svg11.dtd">
<svg version="1.1" id="Layer_1" xmlns="http://www.w3.org/2000/svg" xmlns:xlink="http://www.w3.org/1999/xlink" x="0px" y="0px"
	 width="32px" height="32px" viewBox="0 0 32 32" enable-background="new 0 0 32 32" xml:space="preserve">
<path d="M31,2H1C0.447,2,0,2.447,0,3v20c0,0.553,0.447,1,1,1h9.531l4.7,5.641C15.422,29.868,15.703,30,16,30
	s0.578-0.132,0.769-0.359l4.7-5.641H31c0.553,0,1-0.447,1-1V3C32,2.447,31.553,2,31,2z M30,22h-9c-0.297,0-0.578,0.132-0.769,0.359
	L16,27.438l-4.231-5.078C11.578,22.132,11.297,22,11,22H2V4h28V22z"/>
<path d="M8,11h16c0.553,0,1-0.447,1-1s-0.447-1-1-1H8c-0.553,0-1,0.447-1,1S7.447,11,8,11z"/>
<path d="M8,17h9c0.553,0,1-0.447,1-1s-0.447-1-1-1H8c-0.553,0-1,0.447-1,1S7.447,17,8,17z"/>
</svg>
