<?xml version="1.0" encoding="utf-8"?>
<!-- Generator: Adobe Illustrator 19.2.1, SVG Export Plug-In . SVG Version: 6.00 Build 0)  -->
<!DOCTYPE svg PUBLIC "-//W3C//DTD SVG 1.1//EN" "http://www.w3.org/Graphics/SVG/1.1/DTD/svg11.dtd">
<svg version="1.1" id="Layer_1" xmlns="http://www.w3.org/2000/svg" xmlns:xlink="http://www.w3.org/1999/xlink" x="0px" y="0px"
	 width="32px" height="32px" viewBox="0 0 32 32" enable-background="new 0 0 32 32" xml:space="preserve">
<path d="M6,1H2C1.447,1,1,1.448,1,2v4c0,0.552,0.447,1,1,1h4c0.553,0,1-0.448,1-1V2C7,1.448,6.553,1,6,1z M5,5H3V3h2V5z"/>
<path d="M10,7h4c0.553,0,1-0.448,1-1V2c0-0.552-0.447-1-1-1h-4C9.447,1,9,1.448,9,2v4C9,6.552,9.447,7,10,7z M11,3h2v2h-2V3z"/>
<path d="M18,7h4c0.553,0,1-0.448,1-1V2c0-0.552-0.447-1-1-1h-4c-0.553,0-1,0.448-1,1v4C17,6.552,17.447,7,18,7z M19,3h2v2h-2V3z"/>
<path d="M26,7h4c0.553,0,1-0.448,1-1V2c0-0.552-0.447-1-1-1h-4c-0.553,0-1,0.448-1,1v4C25,6.552,25.447,7,26,7z M27,3h2v2h-2V3z"/>
<path d="M1,14c0,0.552,0.447,1,1,1h4c0.553,0,1-0.448,1-1v-4c0-0.552-0.447-1-1-1H2c-0.553,0-1,0.448-1,1V14z M3,11h2v2H3V11z"/>
<path d="M9,14c0,0.552,0.447,1,1,1h4c0.553,0,1-0.448,1-1v-4c0-0.552-0.447-1-1-1h-4c-0.553,0-1,0.448-1,1V14z M11,11h2v2h-2V11z"/>
<path d="M17,14c0,0.552,0.447,1,1,1h4c0.553,0,1-0.448,1-1v-4c0-0.552-0.447-1-1-1h-4c-0.553,0-1,0.448-1,1V14z M19,11h2v2h-2V11z"
	/>
<path d="M25,14c0,0.552,0.447,1,1,1h4c0.553,0,1-0.448,1-1v-4c0-0.552-0.447-1-1-1h-4c-0.553,0-1,0.448-1,1V14z M27,11h2v2h-2V11z"
	/>
<path d="M1,22c0,0.552,0.447,1,1,1h4c0.553,0,1-0.448,1-1v-4c0-0.552-0.447-1-1-1H2c-0.553,0-1,0.448-1,1V22z M3,19h2v2H3V19z"/>
<path d="M9,22c0,0.552,0.447,1,1,1h4c0.553,0,1-0.448,1-1v-4c0-0.552-0.447-1-1-1h-4c-0.553,0-1,0.448-1,1V22z M11,19h2v2h-2V19z"/>
<path d="M17,22c0,0.552,0.447,1,1,1h4c0.553,0,1-0.448,1-1v-4c0-0.552-0.447-1-1-1h-4c-0.553,0-1,0.448-1,1V22z M19,19h2v2h-2V19z"
	/>
<path d="M25,22c0,0.552,0.447,1,1,1h4c0.553,0,1-0.448,1-1v-4c0-0.552-0.447-1-1-1h-4c-0.553,0-1,0.448-1,1V22z M27,19h2v2h-2V19z"
	/>
<path d="M1,30c0,0.552,0.447,1,1,1h4c0.553,0,1-0.448,1-1v-4c0-0.552-0.447-1-1-1H2c-0.553,0-1,0.448-1,1V30z M3,27h2v2H3V27z"/>
<path d="M9,30c0,0.552,0.447,1,1,1h4c0.553,0,1-0.448,1-1v-4c0-0.552-0.447-1-1-1h-4c-0.553,0-1,0.448-1,1V30z M11,27h2v2h-2V27z"/>
<path d="M17,30c0,0.552,0.447,1,1,1h4c0.553,0,1-0.448,1-1v-4c0-0.552-0.447-1-1-1h-4c-0.553,0-1,0.448-1,1V30z M19,27h2v2h-2V27z"
	/>
<path d="M25,30c0,0.552,0.447,1,1,1h4c0.553,0,1-0.448,1-1v-4c0-0.552-0.447-1-1-1h-4c-0.553,0-1,0.448-1,1V30z M27,27h2v2h-2V27z"
	/>
</svg>
