<?xml version="1.0" encoding="utf-8"?>
<!-- Generator: Adobe Illustrator 19.2.1, SVG Export Plug-In . SVG Version: 6.00 Build 0)  -->
<!DOCTYPE svg PUBLIC "-//W3C//DTD SVG 1.1//EN" "http://www.w3.org/Graphics/SVG/1.1/DTD/svg11.dtd">
<svg version="1.1" id="Layer_1" xmlns="http://www.w3.org/2000/svg" xmlns:xlink="http://www.w3.org/1999/xlink" x="0px" y="0px"
	 width="32px" height="32px" viewBox="0 0 32 32" enable-background="new 0 0 32 32" xml:space="preserve">
<path d="M16,0c-3.86,0-7,3.14-7,7v5.521C6.559,14.541,5,17.592,5,21c0,6.065,4.935,11,11,11s11-4.935,11-11
	c0-3.408-1.559-6.459-4-8.479V7C23,3.14,19.86,0,16,0z M11,7c0-2.757,2.243-5,5-5s5,2.243,5,5v4.214C19.498,10.444,17.801,10,16,10
	s-3.498,0.444-5,1.214V7z M25,21c0,4.962-4.038,9-9,9s-9-4.038-9-9s4.038-9,9-9S25,16.038,25,21z"/>
<path d="M16,15c-2.206,0-4,1.794-4,4c0,1.858,1.28,3.411,3,3.858V25c0,0.552,0.448,1,1,1s1-0.448,1-1v-2.142c1.72-0.447,3-2,3-3.858
	C20,16.794,18.206,15,16,15z M16,21c-1.103,0-2-0.897-2-2s0.897-2,2-2s2,0.897,2,2S17.103,21,16,21z"/>
</svg>
