<?xml version="1.0" encoding="utf-8"?>
<!-- Generator: Adobe Illustrator 19.2.1, SVG Export Plug-In . SVG Version: 6.00 Build 0)  -->
<!DOCTYPE svg PUBLIC "-//W3C//DTD SVG 1.1//EN" "http://www.w3.org/Graphics/SVG/1.1/DTD/svg11.dtd">
<svg version="1.1" id="Layer_1" xmlns="http://www.w3.org/2000/svg" xmlns:xlink="http://www.w3.org/1999/xlink" x="0px" y="0px"
	 width="32px" height="32px" viewBox="0 0 32 32" enable-background="new 0 0 32 32" xml:space="preserve">
<path d="M16,32c8.822,0,16-7.178,16-16S24.822,0,16,0S0,7.178,0,16S7.178,32,16,32z M16,2c7.72,0,14,6.28,14,14s-6.28,14-14,14
	S2,23.72,2,16S8.28,2,16,2z"/>
<path d="M16,22c-1.654,0-3,1.346-3,3s1.346,3,3,3s3-1.346,3-3S17.654,22,16,22z M16,26c-0.552,0-1-0.449-1-1s0.448-1,1-1
	s1,0.449,1,1S16.552,26,16,26z"/>
<path d="M11.016,9.916c0.508,0.222,1.097-0.01,1.316-0.516C12.97,7.942,14.409,7,16,7c2.206,0,4,1.794,4,4s-1.794,4-4,4
	c-0.553,0-1,0.448-1,1v3c0,0.552,0.447,1,1,1s1-0.448,1-1v-2.083c2.834-0.478,5-2.949,5-5.917c0-3.309-2.691-6-6-6
	c-2.386,0-4.545,1.413-5.5,3.599C10.278,9.105,10.51,9.695,11.016,9.916z"/>
</svg>
