<?xml version="1.0" encoding="utf-8"?>
<!-- Generator: Adobe Illustrator 19.2.1, SVG Export Plug-In . SVG Version: 6.00 Build 0)  -->
<!DOCTYPE svg PUBLIC "-//W3C//DTD SVG 1.1//EN" "http://www.w3.org/Graphics/SVG/1.1/DTD/svg11.dtd">
<svg version="1.1" id="Layer_1" xmlns="http://www.w3.org/2000/svg" xmlns:xlink="http://www.w3.org/1999/xlink" x="0px" y="0px"
	 width="32px" height="32px" viewBox="0 0 32 32" enable-background="new 0 0 32 32" xml:space="preserve">
<path d="M10.707,12.293c-0.391-0.391-1.023-0.391-1.414,0s-0.391,1.023,0,1.414l5,5C14.488,18.902,14.744,19,15,19
	s0.512-0.098,0.707-0.293l15-15c0.391-0.391,0.391-1.023,0-1.414s-1.023-0.391-1.414,0L15,16.586L10.707,12.293z"/>
<path d="M2,31h26c0.552,0,1-0.448,1-1V14c0-0.552-0.448-1-1-1s-1,0.448-1,1v15H3V5h17c0.552,0,1-0.448,1-1s-0.448-1-1-1H2
	C1.448,3,1,3.448,1,4v26C1,30.552,1.448,31,2,31z"/>
</svg>
