<?xml version="1.0" encoding="utf-8"?>
<!-- Generator: Adobe Illustrator 19.2.1, SVG Export Plug-In . SVG Version: 6.00 Build 0)  -->
<!DOCTYPE svg PUBLIC "-//W3C//DTD SVG 1.1//EN" "http://www.w3.org/Graphics/SVG/1.1/DTD/svg11.dtd">
<svg version="1.1" id="Layer_1" xmlns="http://www.w3.org/2000/svg" xmlns:xlink="http://www.w3.org/1999/xlink" x="0px" y="0px"
	 width="32px" height="32px" viewBox="0 0 32 32" enable-background="new 0 0 32 32" xml:space="preserve">
<path fill="#222221" d="M29.938,2.679c-0.011-0.031-0.021-0.061-0.035-0.092c-0.049-0.107-0.11-0.208-0.195-0.294
	c-0.086-0.087-0.189-0.148-0.296-0.197c-0.029-0.013-0.057-0.023-0.087-0.033c-0.088-0.031-0.179-0.048-0.273-0.053
	c-0.024-0.001-0.047-0.007-0.071-0.006c-0.103,0.002-0.207,0.016-0.308,0.051l-26,9c-0.374,0.129-0.637,0.467-0.669,0.862
	c-0.033,0.395,0.17,0.771,0.518,0.961l10.741,5.859l5.859,10.741C19.298,29.802,19.636,30,20,30c0.027,0,0.055-0.001,0.083-0.004
	c0.395-0.032,0.732-0.295,0.862-0.669l9-26c0.035-0.101,0.049-0.204,0.051-0.307c0-0.025-0.005-0.049-0.006-0.073
	C29.985,2.855,29.967,2.766,29.938,2.679z M25.218,5.367L13.822,16.764l-8.357-4.559L25.218,5.367z M19.795,26.535l-4.559-8.357
	L26.633,6.781L19.795,26.535z"/>
</svg>
