<?xml version="1.0" encoding="utf-8"?>
<!-- Generator: Adobe Illustrator 19.2.1, SVG Export Plug-In . SVG Version: 6.00 Build 0)  -->
<!DOCTYPE svg PUBLIC "-//W3C//DTD SVG 1.1//EN" "http://www.w3.org/Graphics/SVG/1.1/DTD/svg11.dtd">
<svg version="1.1" id="Layer_1" xmlns="http://www.w3.org/2000/svg" xmlns:xlink="http://www.w3.org/1999/xlink" x="0px" y="0px"
	 width="32px" height="32px" viewBox="0 0 32 32" enable-background="new 0 0 32 32" xml:space="preserve">
<path d="M28,0H4C1.794,0,0,1.794,0,4v27c0,0.553,0.448,1,1,1h30c0.552,0,1-0.447,1-1V4C32,1.794,30.206,0,28,0z M4,2h24
	c1.103,0,2,0.897,2,2v3H2V4C2,2.897,2.897,2,4,2z M2,9h7v21H2V9z M11,30V9h19v21H11z"/>
</svg>
