<?xml version="1.0" encoding="utf-8"?>
<!-- Generator: Adobe Illustrator 19.2.1, SVG Export Plug-In . SVG Version: 6.00 Build 0)  -->
<!DOCTYPE svg PUBLIC "-//W3C//DTD SVG 1.1//EN" "http://www.w3.org/Graphics/SVG/1.1/DTD/svg11.dtd">
<svg version="1.1" id="Layer_1" xmlns="http://www.w3.org/2000/svg" xmlns:xlink="http://www.w3.org/1999/xlink" x="0px" y="0px"
	 width="32px" height="32px" viewBox="0 0 32 32" enable-background="new 0 0 32 32" xml:space="preserve">
<path d="M16,11c-2.757,0-5,2.243-5,5s2.243,5,5,5s5-2.243,5-5S18.757,11,16,11z M16,19c-1.654,0-3-1.346-3-3s1.346-3,3-3
	s3,1.346,3,3S17.654,19,16,19z"/>
<path d="M29,13h-1.387c-0.28-1.092-0.708-2.127-1.278-3.093l0.978-0.979c0.567-0.566,0.879-1.32,0.879-2.121
	s-0.312-1.555-0.879-2.121c-1.134-1.133-3.11-1.133-4.243,0l-0.979,0.979C21.127,5.094,20.092,4.666,19,4.387V3c0-1.654-1.346-3-3-3
	s-3,1.346-3,3v1.387c-1.092,0.279-2.127,0.707-3.093,1.278L8.929,4.687c-1.17-1.17-3.072-1.17-4.242,0s-1.17,3.072,0,4.242
	l0.979,0.979C5.094,10.873,4.667,11.908,4.387,13H3c-1.654,0-3,1.346-3,3s1.346,3,3,3h1.387c0.28,1.092,0.708,2.127,1.278,3.093
	l-0.978,0.979c-1.17,1.17-1.17,3.072,0,4.242s3.072,1.17,4.242,0l0.979-0.979c0.966,0.571,2.001,0.999,3.093,1.278V29
	c0,1.654,1.346,3,3,3s3-1.346,3-3v-1.387c1.092-0.279,2.127-0.707,3.093-1.278l0.978,0.979c1.134,1.133,3.11,1.133,4.243,0
	c0.567-0.566,0.879-1.32,0.879-2.121s-0.312-1.555-0.879-2.121l-0.979-0.979c0.57-0.966,0.998-2.001,1.278-3.093H29
	c1.654,0,3-1.346,3-3S30.654,13,29,13z M29,17h-2.19c-0.482,0-0.896,0.345-0.983,0.819c-0.257,1.394-0.792,2.688-1.589,3.845
	c-0.274,0.397-0.225,0.933,0.116,1.274l1.546,1.547c0.189,0.189,0.293,0.44,0.293,0.707s-0.104,0.518-0.294,0.707
	c-0.377,0.379-1.036,0.379-1.414,0l-1.546-1.546c-0.341-0.34-0.877-0.392-1.274-0.116c-1.158,0.798-2.451,1.332-3.846,1.589
	C17.344,25.913,17,26.327,17,26.81V29c0,0.552-0.449,1-1,1s-1-0.448-1-1v-2.19c0-0.482-0.344-0.896-0.819-0.983
	c-1.395-0.257-2.688-0.791-3.846-1.589c-0.172-0.119-0.37-0.177-0.567-0.177c-0.258,0-0.514,0.1-0.708,0.293l-1.546,1.546
	c-0.39,0.391-1.024,0.391-1.414,0c-0.39-0.39-0.39-1.024,0-1.414l1.546-1.547c0.341-0.342,0.39-0.877,0.116-1.274
	c-0.797-1.157-1.332-2.451-1.589-3.845C6.086,17.345,5.673,17,5.19,17H3c-0.551,0-1-0.448-1-1s0.449-1,1-1h2.19
	c0.482,0,0.896-0.345,0.983-0.819c0.257-1.394,0.792-2.688,1.589-3.845c0.274-0.397,0.225-0.933-0.116-1.274L6.101,7.515
	c-0.39-0.39-0.39-1.024,0-1.414c0.39-0.391,1.024-0.389,1.414,0l1.546,1.546c0.341,0.341,0.877,0.392,1.274,0.116
	c1.158-0.798,2.451-1.332,3.846-1.589C14.656,6.087,15,5.673,15,5.19V3c0-0.552,0.449-1,1-1s1,0.448,1,1v2.19
	c0,0.482,0.344,0.896,0.819,0.983c1.395,0.257,2.688,0.791,3.846,1.589c0.397,0.275,0.934,0.225,1.274-0.116l1.547-1.546
	c0.377-0.379,1.036-0.379,1.414,0c0.189,0.189,0.293,0.44,0.293,0.707s-0.104,0.518-0.294,0.707l-1.546,1.547
	c-0.341,0.342-0.39,0.877-0.116,1.274c0.797,1.157,1.332,2.451,1.589,3.845C25.914,14.655,26.327,15,26.81,15H29
	c0.551,0,1,0.448,1,1S29.551,17,29,17z"/>
</svg>
