<?xml version="1.0" encoding="utf-8"?>
<!-- Generator: Adobe Illustrator 19.2.1, SVG Export Plug-In . SVG Version: 6.00 Build 0)  -->
<!DOCTYPE svg PUBLIC "-//W3C//DTD SVG 1.1//EN" "http://www.w3.org/Graphics/SVG/1.1/DTD/svg11.dtd">
<svg version="1.1" id="Layer_1" xmlns="http://www.w3.org/2000/svg" xmlns:xlink="http://www.w3.org/1999/xlink" x="0px" y="0px"
	 width="32px" height="32px" viewBox="0 0 32 32" enable-background="new 0 0 32 32" xml:space="preserve">
<path d="M28.707,7.293l-4-4c-0.391-0.391-1.023-0.391-1.414,0L16,10.586L8.707,3.293c-0.391-0.391-1.023-0.391-1.414,0l-4,4
	c-0.391,0.391-0.391,1.023,0,1.414L10.586,16l-7.293,7.293c-0.391,0.391-0.391,1.023,0,1.414l4,4c0.391,0.391,1.023,0.391,1.414,0
	L16,21.414l7.293,7.293C23.488,28.902,23.744,29,24,29s0.512-0.098,0.707-0.293l4-4c0.391-0.391,0.391-1.023,0-1.414L21.414,16
	l7.293-7.293C29.098,8.316,29.098,7.684,28.707,7.293z M19.293,15.293c-0.391,0.391-0.391,1.023,0,1.414L26.586,24L24,26.586
	l-7.293-7.293C16.512,19.098,16.256,19,16,19s-0.512,0.098-0.707,0.293L8,26.586L5.414,24l7.293-7.293
	c0.391-0.391,0.391-1.023,0-1.414L5.414,8L8,5.414l7.293,7.293c0.391,0.391,1.023,0.391,1.414,0L24,5.414L26.586,8L19.293,15.293z"
	/>
</svg>
