<?xml version="1.0" encoding="utf-8"?>
<!-- Generator: Adobe Illustrator 19.2.1, SVG Export Plug-In . SVG Version: 6.00 Build 0)  -->
<!DOCTYPE svg PUBLIC "-//W3C//DTD SVG 1.1//EN" "http://www.w3.org/Graphics/SVG/1.1/DTD/svg11.dtd">
<svg version="1.1" id="Layer_1" xmlns="http://www.w3.org/2000/svg" xmlns:xlink="http://www.w3.org/1999/xlink" x="0px" y="0px"
	 width="32px" height="32px" viewBox="0 0 32 32" enable-background="new 0 0 32 32" xml:space="preserve">
<path d="M2.507,29.87c0.313,0.178,0.698,0.173,1.007-0.013L13,24.166l9.485,5.691C22.644,29.953,22.822,30,23,30
	c0.17,0,0.34-0.043,0.493-0.13C23.806,29.693,24,29.36,24,29v-5.08c3.387-0.488,6-3.401,6-6.92s-2.613-6.432-6-6.92V1
	c0-0.552-0.448-1-1-1H3C2.448,0,2,0.448,2,1v28C2,29.36,2.194,29.693,2.507,29.87z M28,17c0,2.757-2.243,5-5,5s-5-2.243-5-5
	s2.243-5,5-5S28,14.243,28,17z M4,2h18v8.08c-3.387,0.488-6,3.401-6,6.92s2.613,6.432,6,6.92v3.314l-8.485-5.091
	c-0.317-0.19-0.712-0.19-1.029,0L4,27.234V2z"/>
<path d="M22,15v1h-1c-0.552,0-1,0.448-1,1s0.448,1,1,1h1v1c0,0.552,0.448,1,1,1s1-0.448,1-1v-1h1c0.552,0,1-0.448,1-1s-0.448-1-1-1
	h-1v-1c0-0.552-0.448-1-1-1S22,14.448,22,15z"/>
</svg>
