<?xml version="1.0" encoding="utf-8"?>
<!-- Generator: Adobe Illustrator 19.2.1, SVG Export Plug-In . SVG Version: 6.00 Build 0)  -->
<!DOCTYPE svg PUBLIC "-//W3C//DTD SVG 1.1//EN" "http://www.w3.org/Graphics/SVG/1.1/DTD/svg11.dtd">
<svg version="1.1" id="Layer_1" xmlns="http://www.w3.org/2000/svg" xmlns:xlink="http://www.w3.org/1999/xlink" x="0px" y="0px"
	 width="32px" height="32px" viewBox="0 0 32 32" enable-background="new 0 0 32 32" xml:space="preserve">
<path fill="#222221" d="M31,8h-5V2c0-0.553-0.447-1-1-1H1C0.447,1,0,1.447,0,2v17c0,0.553,0.447,1,1,1h4v6
	c0,0.393,0.229,0.748,0.587,0.91C5.719,26.971,5.86,27,6,27c0.237,0,0.473-0.085,0.658-0.247L14.376,20H25c0.553,0,1-0.447,1-1v-9h4
	v13h-3c-0.553,0-1,0.447-1,1v3.057l-5.419-3.87C20.412,23.065,20.208,23,20,23h-6c-0.553,0-1,0.447-1,1s0.447,1,1,1h5.68
	l6.739,4.813C26.592,29.938,26.795,30,27,30c0.156,0,0.313-0.037,0.458-0.11C27.791,29.718,28,29.375,28,29v-4h3
	c0.553,0,1-0.447,1-1V9C32,8.447,31.553,8,31,8z M24,18H14c-0.242,0-0.477,0.088-0.658,0.247L7,23.796V19c0-0.553-0.447-1-1-1H2V3
	h22V18z"/>
</svg>
