<?xml version="1.0" encoding="utf-8"?>
<!-- Generator: Adobe Illustrator 19.2.1, SVG Export Plug-In . SVG Version: 6.00 Build 0)  -->
<!DOCTYPE svg PUBLIC "-//W3C//DTD SVG 1.1//EN" "http://www.w3.org/Graphics/SVG/1.1/DTD/svg11.dtd">
<svg version="1.1" id="Layer_1" xmlns="http://www.w3.org/2000/svg" xmlns:xlink="http://www.w3.org/1999/xlink" x="0px" y="0px"
	 width="32px" height="32px" viewBox="0 0 32 32" enable-background="new 0 0 32 32" xml:space="preserve">
<path d="M31,9H18c-0.553,0-1,0.447-1,1v2c0,0.553,0.447,1,1,1s1-0.447,1-1v-1h11v10H19v-1c0-0.553-0.447-1-1-1s-1,0.447-1,1v2
	c0,0.553,0.447,1,1,1h13c0.553,0,1-0.447,1-1V10C32,9.447,31.553,9,31,9z"/>
<path d="M1,23h13c0.553,0,1-0.447,1-1v-2c0-0.553-0.447-1-1-1s-1,0.447-1,1v1H2V11h11v1c0,0.553,0.447,1,1,1s1-0.447,1-1v-2
	c0-0.553-0.447-1-1-1H1c-0.553,0-1,0.447-1,1v12C0,22.553,0.447,23,1,23z"/>
<path d="M9,16c0,0.553,0.447,1,1,1h12c0.553,0,1-0.447,1-1s-0.447-1-1-1H10C9.447,15,9,15.447,9,16z"/>
</svg>
