<?xml version="1.0" encoding="utf-8"?>
<!-- Generator: Adobe Illustrator 19.2.1, SVG Export Plug-In . SVG Version: 6.00 Build 0)  -->
<!DOCTYPE svg PUBLIC "-//W3C//DTD SVG 1.1//EN" "http://www.w3.org/Graphics/SVG/1.1/DTD/svg11.dtd">
<svg version="1.1" id="Layer_1" xmlns="http://www.w3.org/2000/svg" xmlns:xlink="http://www.w3.org/1999/xlink" x="0px" y="0px"
	 width="32px" height="32px" viewBox="0 0 32 32" enable-background="new 0 0 32 32" xml:space="preserve">
<path fill="#222221" d="M19,0c-0.552,0-1,0.448-1,1s0.448,1,1,1c6.065,0,11,4.935,11,11c0,0.552,0.448,1,1,1s1-0.448,1-1
	C32,5.832,26.168,0,19,0z"/>
<path fill="#222221" d="M25,32c0.265,0,0.52-0.105,0.707-0.293l5-5c0.391-0.391,0.391-1.023,0-1.414l-7-7
	c-0.391-0.391-1.023-0.391-1.414,0L18,22.586L9.414,14l4.293-4.293c0.391-0.391,0.391-1.023,0-1.414l-7-7
	c-0.391-0.391-1.023-0.391-1.414,0l-5,5C0.105,6.48,0,6.735,0,7C0,20.785,11.215,32,25,32z M6,3.414L11.586,9l-4.293,4.293
	c-0.391,0.391-0.391,1.023,0,1.414l10,10c0.391,0.391,1.023,0.391,1.414,0L23,20.414L28.586,26l-3.997,3.997
	C12.232,29.779,2.221,19.768,2.003,7.411L6,3.414z"/>
<path fill="#222221" d="M24,13c0,0.552,0.448,1,1,1s1-0.448,1-1c0-3.86-3.14-7-7-7c-0.552,0-1,0.448-1,1s0.448,1,1,1
	C21.757,8,24,10.243,24,13z"/>
</svg>
