<?xml version="1.0" encoding="utf-8"?>
<!-- Generator: Adobe Illustrator 19.2.1, SVG Export Plug-In . SVG Version: 6.00 Build 0)  -->
<!DOCTYPE svg PUBLIC "-//W3C//DTD SVG 1.1//EN" "http://www.w3.org/Graphics/SVG/1.1/DTD/svg11.dtd">
<svg version="1.1" id="Layer_1" xmlns="http://www.w3.org/2000/svg" xmlns:xlink="http://www.w3.org/1999/xlink" x="0px" y="0px"
	 width="32px" height="32px" viewBox="0 0 32 32" enable-background="new 0 0 32 32" xml:space="preserve">
<path d="M13,0C5.832,0,0,5.832,0,13s5.832,13,13,13c3.225,0,6.173-1.187,8.447-3.139l7.846,7.846C29.488,30.902,29.744,31,30,31
	s0.512-0.098,0.707-0.293c0.391-0.391,0.391-1.023,0-1.414l-7.846-7.846C24.813,19.173,26,16.225,26,13C26,5.832,20.168,0,13,0z
	 M2,13C2,6.935,6.935,2,13,2s11,4.935,11,11s-4.935,11-11,11S2,19.065,2,13z"/>
</svg>
