<?xml version="1.0" encoding="utf-8"?>
<!-- Generator: Adobe Illustrator 19.2.0, SVG Export Plug-In . SVG Version: 6.00 Build 0)  -->
<!DOCTYPE svg PUBLIC "-//W3C//DTD SVG 1.1//EN" "http://www.w3.org/Graphics/SVG/1.1/DTD/svg11.dtd">
<svg version="1.1" id="Layer_1" xmlns="http://www.w3.org/2000/svg" xmlns:xlink="http://www.w3.org/1999/xlink" x="0px" y="0px"
	 width="48px" height="48px" viewBox="0 0 48 48" enable-background="new 0 0 48 48" xml:space="preserve">
<path fill="#D8BC48" d="M45,43H3c-1.10457,0-2-0.89543-2-2V18c0-0.55228,0.44772-1,1-1h44c0.55228,0,1,0.44772,1,1l-0.00001,6
	c0,0.57181-0.46769,0.99576-1.03947,1.0002c-3.70943,0.02881-6.4705,4.11842-4.04731,8.03292
	c0.85749,1.38522,2.4734,1.94217,4.10236,1.96702C46.56064,35.00845,47,35.45296,47,36v5C47,42.10457,46.10457,43,45,43z"/>
<circle fill="#C19A3A" cx="14" cy="30" r="5"/>
<circle fill="#C19A3A" cx="28" cy="30" r="3"/>
<path fill="#EFD358" d="M46,19H2c-0.55225,0-1-0.44775-1-1c0-3.12354,1.36426-6.23291,3.74268-8.53174
	C7.76758,6.54492,12.35205,5,18,5c0.13525,0,0.26953,0.02734,0.39404,0.08105l28,12
	c0.43604,0.18701,0.68115,0.65479,0.58545,1.12012C46.88428,18.66602,46.47461,19,46,19z"/>
</svg>
