<?xml version="1.0" encoding="utf-8"?>
<!-- Generator: Adobe Illustrator 19.2.0, SVG Export Plug-In . SVG Version: 6.00 Build 0)  -->
<!DOCTYPE svg PUBLIC "-//W3C//DTD SVG 1.1//EN" "http://www.w3.org/Graphics/SVG/1.1/DTD/svg11.dtd">
<svg version="1.1" id="Layer_1" xmlns="http://www.w3.org/2000/svg" xmlns:xlink="http://www.w3.org/1999/xlink" x="0px" y="0px"
	 width="48px" height="48px" viewBox="0 0 48 48" enable-background="new 0 0 48 48" xml:space="preserve">
<path fill="#B3B3B3" d="M36,31c-0.55225,0-1-0.44775-1-1V18c0-0.55225,0.44775-1,1-1s1,0.44775,1,1v12
	C37,30.55225,36.55225,31,36,31z"/>
<path fill="#B3B3B3" d="M12,31c-0.55225,0-1-0.44775-1-1V18c0-0.55225,0.44775-1,1-1s1,0.44775,1,1v12
	C13,30.55225,12.55225,31,12,31z"/>
<path fill="#B3B3B3" d="M12,19c-3.85986,0-7-3.14014-7-7V2c0-0.55225,0.44775-1,1-1s1,0.44775,1,1v10c0,2.75684,2.24316,5,5,5
	s5-2.24316,5-5V2c0-0.55225,0.44775-1,1-1s1,0.44775,1,1v10C19,15.85986,15.85986,19,12,19z"/>
<path fill="#C19F85" d="M11.50018,46.97554C8.90274,46.72197,6.99999,44.38678,7,41.777L7,30c0-0.55228,0.44772-1,1-1h8
	c0.55228,0,1,0.44772,1,1v12C17,44.92173,14.48047,47.2665,11.50018,46.97554z"/>
<path fill="#A67C52" d="M16,31H8c-0.55228,0-1-0.44771-1-1v0c0-0.55228,0.44771-1,1-1h8c0.55228,0,1,0.44771,1,1v0
	C17,30.55229,16.55229,31,16,31z"/>
<path fill="#C19F85" d="M35.50018,46.97554C32.90274,46.72197,30.99999,44.38678,31,41.777L31,30c0-0.55228,0.44772-1,1-1h8
	c0.55228,0,1,0.44772,1,1v12C41,44.92173,38.48047,47.2665,35.50018,46.97554z"/>
<path fill="#A67C52" d="M40,31h-8c-0.55228,0-1-0.44771-1-1v0c0-0.55228,0.44771-1,1-1h8c0.55228,0,1,0.44771,1,1v0
	C41,30.55229,40.55228,31,40,31z"/>
<path fill="#B3B3B3" d="M43,1H29c-1.10455,0-2,0.89545-2,2v16c0,1.10455,0.89545,2,2,2h14c1.10461,0,2-0.89545,2-2V3
	C45,1.89545,44.10461,1,43,1z M34,16c0,0.55225-0.44775,1-1,1s-1-0.44775-1-1V6c0-0.55225,0.44775-1,1-1s1,0.44775,1,1V16z M40,16
	c0,0.55225-0.44775,1-1,1s-1-0.44775-1-1V6c0-0.55225,0.44775-1,1-1s1,0.44775,1,1V16z"/>
</svg>
