<?xml version="1.0" encoding="utf-8"?>
<!-- Generator: Adobe Illustrator 19.2.0, SVG Export Plug-In . SVG Version: 6.00 Build 0)  -->
<!DOCTYPE svg PUBLIC "-//W3C//DTD SVG 1.1//EN" "http://www.w3.org/Graphics/SVG/1.1/DTD/svg11.dtd">
<svg version="1.1" id="Layer_1" xmlns="http://www.w3.org/2000/svg" xmlns:xlink="http://www.w3.org/1999/xlink" x="0px" y="0px"
	 width="48px" height="48px" viewBox="0 0 48 48" enable-background="new 0 0 48 48" xml:space="preserve">
<path fill="#88C057" d="M24.01558,14c-0.3916,0-0.7392-0.27937-0.81227-0.67743c-0.03714-0.20186-0.88131-4.97135,1.16876-7.94108
	c2.04966-2.96973,6.80906-3.87082,7.01051-3.90796c0.21357-0.04037,0.43803,0.00727,0.61849,0.13242
	c0.18046,0.12515,0.3044,0.31571,0.34356,0.53129c0.03714,0.20186,0.88131,4.97216-1.16875,7.94108
	c-2.04926,2.96892-6.80906,3.87082-7.01052,3.90796C24.11489,13.99596,24.06483,14,24.01558,14z"/>
<path fill="#8E6E62" d="M23.99902,17c-0.52197,0-0.96143-0.40527-0.99658-0.93359c-0.10156-1.5127-0.52051-3.80371-1.93945-6.12793
	c-1.66504-2.72754-3.91504-4.24805-5.50928-5.04395c-0.49414-0.24609-0.69531-0.84668-0.44873-1.34082
	c0.24756-0.49414,0.84766-0.69727,1.34131-0.44824c1.8291,0.91211,4.41113,2.6582,6.32373,5.79004
	c1.29053,2.11426,2.06104,4.54785,2.22754,7.03809c0.03711,0.55078-0.37988,1.02734-0.93066,1.06445
	C24.04395,16.99902,24.02148,17,23.99902,17z"/>
<path fill="#E86C60" d="M24,47C17.35547,47,5,36.20605,5,26c0-6.94043,3.37451-11.91406,8.80713-12.98145
	c2.28857-0.4502,4.54199,0.35059,6.52881,1.05664C21.67529,14.55078,22.94043,15,24,15s2.32471-0.44922,3.66406-0.9248
	c1.98682-0.70508,4.23828-1.50586,6.52881-1.05664C39.62549,14.08594,43,19.05957,43,26C43,36.41504,30.81055,47,24,47z"/>
<path fill="#C94F49" d="M16,27c-0.55225,0-1-0.44727-1-1v-2c0-0.55273,0.44775-1,1-1s1,0.44727,1,1v2C17,26.55273,16.55225,27,16,27
	z"/>
<path fill="#C94F49" d="M20,37c-0.55225,0-1-0.44727-1-1v-2c0-0.55273,0.44775-1,1-1s1,0.44727,1,1v2C21,36.55273,20.55225,37,20,37
	z"/>
<path fill="#C94F49" d="M24,29c-0.55225,0-1-0.44727-1-1v-2c0-0.55273,0.44775-1,1-1s1,0.44727,1,1v2C25,28.55273,24.55225,29,24,29
	z"/>
<path fill="#C94F49" d="M32,27c-0.55225,0-1-0.44727-1-1v-2c0-0.55273,0.44775-1,1-1s1,0.44727,1,1v2C33,26.55273,32.55225,27,32,27
	z"/>
<path fill="#C94F49" d="M28,37c-0.55225,0-1-0.44727-1-1v-2c0-0.55273,0.44775-1,1-1s1,0.44727,1,1v2C29,36.55273,28.55225,37,28,37
	z"/>
</svg>
