<?xml version="1.0" encoding="utf-8"?>
<!-- Generator: Adobe Illustrator 19.2.0, SVG Export Plug-In . SVG Version: 6.00 Build 0)  -->
<!DOCTYPE svg PUBLIC "-//W3C//DTD SVG 1.1//EN" "http://www.w3.org/Graphics/SVG/1.1/DTD/svg11.dtd">
<svg version="1.1" id="Layer_1" xmlns="http://www.w3.org/2000/svg" xmlns:xlink="http://www.w3.org/1999/xlink" x="0px" y="0px"
	 width="48px" height="48px" viewBox="0 0 48 48" enable-background="new 0 0 48 48" xml:space="preserve">
<path fill="#D8BC48" d="M33.2666,32.98682c-0.0166,0-0.03223-0.00049-0.04883-0.00098l-20.2666-0.98682
	c-0.44727-0.02197-0.82617-0.33887-0.92578-0.77588L8.68164,16.62354c-0.09277-0.40576,0.0752-0.82715,0.42285-1.05713
	c0.3457-0.22998,0.80078-0.22119,1.1377,0.02393c2.38574,1.72705,5.53613,2.89453,9.91699,3.67432
	c12.28027,2.18701,18.54004-1.04248,20.59668-2.10449l0.21582-0.11133c1.00488-0.51221,2.18457-0.31201,3.15918,0.53955
	c1.45801,1.27539,2.41797,4.0376,1.42871,6.84961c-1.1123,3.16064-5.47363,6.25684-11.9668,8.49414
	C33.4873,32.96826,33.37695,32.98682,33.2666,32.98682z"/>
<path fill="#EFD358" d="M27.59766,44.38574c-0.50391,0-1.01367-0.00684-1.52832-0.021
	c-10.34473-0.2793-22.02148-5.74463-24.32129-15.64844C0.02441,21.29834,1.89844,13.58838,2.2168,12.375L1.97266,5.2749
	c-0.01855-0.51758,0.36133-0.96289,0.875-1.02686l5-0.625c0.27148-0.0376,0.54688,0.04492,0.75879,0.21924
	s0.34277,0.42822,0.3623,0.70166c0.8584,12.00537,1.78613,18.00488,13.4082,23.15723
	c11.40332,5.05615,18.25391,3.41162,20.50391,2.87207l0.23633-0.05664c1.10352-0.25635,2.19727,0.21924,2.93848,1.27783
	c1.1123,1.58643,1.38477,4.49756-0.24707,6.99316C43.55176,42.23975,36.49023,44.38574,27.59766,44.38574z"/>
</svg>
