<?xml version="1.0" encoding="utf-8"?>
<!-- Generator: Adobe Illustrator 19.2.0, SVG Export Plug-In . SVG Version: 6.00 Build 0)  -->
<!DOCTYPE svg PUBLIC "-//W3C//DTD SVG 1.1//EN" "http://www.w3.org/Graphics/SVG/1.1/DTD/svg11.dtd">
<svg version="1.1" id="Layer_1" xmlns="http://www.w3.org/2000/svg" xmlns:xlink="http://www.w3.org/1999/xlink" x="0px" y="0px"
	 width="48px" height="48px" viewBox="0 0 48 48" enable-background="new 0 0 48 48" xml:space="preserve">
<path fill="#88C057" d="M38.11523,9.81055c-0.13867,0-0.27979-0.02832-0.41455-0.08984
	c-0.50244-0.22949-0.72412-0.82227-0.49463-1.3252C38.83789,4.81543,41.79688,3,46,3c0.55225,0,1,0.44727,1,1s-0.44775,1-1,1
	c-3.39697,0-5.67822,1.38184-6.97461,4.22559C38.85791,9.59375,38.49463,9.81055,38.11523,9.81055z"/>
<path fill="#EA9860" d="M6.51025,46.99805c-1.41748,0-2.82812-0.54297-3.89648-1.61133l0,0
	c-1.9707-1.9707-2.1582-5.1084-0.43652-7.29883L24.64062,9.49805c1.74268-2.21777,4.35693-3.58594,7.17236-3.75488
	c2.82227-0.16895,5.5752,0.87988,7.56982,2.87402s3.04199,4.75293,2.87402,7.56836
	c-0.16846,2.81641-1.53711,5.43066-3.75537,7.17383L9.91211,45.82227C8.90918,46.61035,7.70752,46.99805,6.51025,46.99805z"/>
<path fill="#87613E" d="M10,38c-0.25586,0-0.51172-0.09766-0.70703-0.29297L6.104,34.51758
	c-0.39062-0.39062-0.39062-1.02344,0-1.41406s1.02344-0.39062,1.41406,0l3.18896,3.18945c0.39062,0.39062,0.39062,1.02344,0,1.41406
	C10.51172,37.90234,10.25586,38,10,38z"/>
<path fill="#87613E" d="M26,20c-0.25586,0-0.51172-0.09766-0.70703-0.29297l-4.35107-4.0752
	c-0.39062-0.39062-0.39062-1.02344,0-1.41406s1.02344-0.39062,1.41406,0l4.35107,4.0752c0.39062,0.39062,0.39062,1.02344,0,1.41406
	C26.51172,19.90234,26.25586,20,26,20z"/>
<path fill="#87613E" d="M23.57227,34.81836c-0.25586,0-0.51172-0.09766-0.70703-0.29297L19.29297,31
	c-0.39062-0.39062-0.39062-1.02344,0-1.41406s1.02344-0.39062,1.41406,0l3.57227,3.52539c0.39062,0.39062,0.39062,1.02344,0,1.41406
	C24.08398,34.7207,23.82812,34.81836,23.57227,34.81836z"/>
</svg>
