<?xml version="1.0" encoding="utf-8"?>
<!-- Generator: Adobe Illustrator 19.2.0, SVG Export Plug-In . SVG Version: 6.00 Build 0)  -->
<!DOCTYPE svg PUBLIC "-//W3C//DTD SVG 1.1//EN" "http://www.w3.org/Graphics/SVG/1.1/DTD/svg11.dtd">
<svg version="1.1" id="Layer_1" xmlns="http://www.w3.org/2000/svg" xmlns:xlink="http://www.w3.org/1999/xlink" x="0px" y="0px"
	 width="48px" height="48px" viewBox="0 0 48 48" enable-background="new 0 0 48 48" xml:space="preserve">
<path fill="#76B5B5" d="M15,13c1.00977-2.35614,4.63789-6.77674,10.07083-7.79315c0.77392-0.14479,1.37812,0.61111,1.11703,1.3539
	C25.05288,9.78969,26.50359,13.80883,28,16C29.85041,18.70954,15,13,15,13z"/>
<path fill="#76B5B5" d="M45,31c-0.21191,0-0.42383-0.06738-0.59961-0.2002l-8-6C36.14844,24.61133,36,24.31445,36,24
	s0.14844-0.61133,0.40039-0.7998l8-6c0.30273-0.22754,0.70898-0.26172,1.04688-0.09473C45.78613,17.27539,46,17.62109,46,18v12
	c0,0.37891-0.21387,0.72461-0.55273,0.89453C45.30566,30.96484,45.15234,31,45,31z"/>
<path fill="#335262" d="M37.89453,23.55273C37.6377,23.04004,31.47461,11,19,11c-2.31628,0-4.41968,0.58734-6.29529,1.50659
	C15.3288,15.25818,17,19.38361,17,24c0,4.62616-1.67767,8.76007-4.3114,11.51166C14.56299,36.4209,16.67078,37,19,37
	c12.47461,0,18.6377-12.04004,18.89453-12.55273C38.03516,24.16602,38.03516,23.83398,37.89453,23.55273z"/>
<path fill="#76B5B5" d="M12.70471,12.50659C6.08026,15.7533,2.3056,23.1532,2.10547,23.55273
	c-0.13965,0.2793-0.14062,0.60645-0.00391,0.88672c0.19598,0.40033,3.90967,7.83301,10.58704,11.0722
	C15.32233,32.76007,17,28.62616,17,24C17,19.38361,15.3288,15.25818,12.70471,12.50659z"/>
<circle fill="#FFFFFF" cx="9" cy="22" r="2"/>
</svg>
