<?xml version="1.0" encoding="utf-8"?>
<!-- Generator: Adobe Illustrator 19.2.0, SVG Export Plug-In . SVG Version: 6.00 Build 0)  -->
<!DOCTYPE svg PUBLIC "-//W3C//DTD SVG 1.1//EN" "http://www.w3.org/Graphics/SVG/1.1/DTD/svg11.dtd">
<svg version="1.1" id="Layer_1" xmlns="http://www.w3.org/2000/svg" xmlns:xlink="http://www.w3.org/1999/xlink" x="0px" y="0px"
	 width="48px" height="48px" viewBox="0 0 48 48" enable-background="new 0 0 48 48" xml:space="preserve">
<circle fill="#EFD358" cx="38" cy="10" r="9"/>
<circle fill="#FBF6DD" cx="38" cy="10" r="6"/>
<path fill="#BFDEE0" d="M37.76172,11.64746c0.25244-0.29688,0.30957-0.71387,0.146-1.06738S37.38965,10,37,10H3
	c-0.38965,0-0.74414,0.22656-0.90771,0.58008s-0.10645,0.77051,0.146,1.06738L19,31.36713V45h-7c-0.55225,0-1,0.44727-1,1
	s0.44775,1,1,1h16c0.55225,0,1-0.44727,1-1s-0.44775-1-1-1h-7V31.36713L37.76172,11.64746z"/>
<polygon fill="#E86C60" points="11.11285,19 20,29.45508 28.88715,19 "/>
</svg>
