<?xml version="1.0" encoding="utf-8"?>
<!-- Generator: Adobe Illustrator 19.2.0, SVG Export Plug-In . SVG Version: 6.00 Build 0)  -->
<!DOCTYPE svg PUBLIC "-//W3C//DTD SVG 1.1//EN" "http://www.w3.org/Graphics/SVG/1.1/DTD/svg11.dtd">
<svg version="1.1" id="Layer_1" xmlns="http://www.w3.org/2000/svg" xmlns:xlink="http://www.w3.org/1999/xlink" x="0px" y="0px"
	 width="48px" height="48px" viewBox="0 0 48 48" enable-background="new 0 0 48 48" xml:space="preserve">
<path fill="#B3B3B3" d="M44.5,29H36c-0.55225,0-1,0.44775-1,1v3c0,0.55225,0.44775,1,1,1h8.5c1.37842,0,2.5-1.12158,2.5-2.5
	S45.87842,29,44.5,29z"/>
<path fill="#E86C60" d="M18,17c-0.55225,0-1-0.44775-1-1V8c0-0.55225,0.44775-1,1-1s1,0.44775,1,1v8C19,16.55225,18.55225,17,18,17z
	"/>
<path fill="#E86C60" d="M8,23c-0.55225,0-1-0.44775-1-1v-8c0-0.55225,0.44775-1,1-1s1,0.44775,1,1v8C9,22.55225,8.55225,23,8,23z"/>
<path fill="#E86C60" d="M28,23c-0.55225,0-1-0.44775-1-1v-8c0-0.55225,0.44775-1,1-1s1,0.44775,1,1v8C29,22.55225,28.55225,23,28,23
	z"/>
<path fill="#5B5B5B" d="M1,29v7c0,2.75684,2.24316,5,5,5h26c2.75684,0,5-2.24316,5-5v-7H1z"/>
</svg>
