<?xml version="1.0" encoding="utf-8"?>
<!-- Generator: Adobe Illustrator 19.2.0, SVG Export Plug-In . SVG Version: 6.00 Build 0)  -->
<!DOCTYPE svg PUBLIC "-//W3C//DTD SVG 1.1//EN" "http://www.w3.org/Graphics/SVG/1.1/DTD/svg11.dtd">
<svg version="1.1" id="Layer_1" xmlns="http://www.w3.org/2000/svg" xmlns:xlink="http://www.w3.org/1999/xlink" x="0px" y="0px"
	 width="48px" height="48px" viewBox="0 0 48 48" enable-background="new 0 0 48 48" xml:space="preserve">
<path fill="#E6E6E6" d="M1,44c0,0.55225,0.44775,1,1,1h44c0.55225,0,1-0.44775,1-1v-7H1V44z"/>
<path fill="#444444" d="M41,42h-4c-0.55225,0-1-0.44775-1-1s0.44775-1,1-1h4c0.55225,0,1,0.44775,1,1S41.55225,42,41,42z"/>
<path fill="#E6E6E6" d="M33,4c0-0.55225-0.44775-1-1-1H16c-0.55225,0-1,0.44775-1,1v16h18V4z"/>
<path fill="#B3B3B3" d="M46.77197,36.36426L33,20H15L1.22803,36.36426C1.08057,36.54346,1,36.76807,1,37h46
	C47,36.76807,46.91943,36.54346,46.77197,36.36426z"/>
</svg>
