<?xml version="1.0" encoding="utf-8"?>
<!-- Generator: Adobe Illustrator 19.2.0, SVG Export Plug-In . SVG Version: 6.00 Build 0)  -->
<!DOCTYPE svg PUBLIC "-//W3C//DTD SVG 1.1//EN" "http://www.w3.org/Graphics/SVG/1.1/DTD/svg11.dtd">
<svg version="1.1" id="Layer_1" xmlns="http://www.w3.org/2000/svg" xmlns:xlink="http://www.w3.org/1999/xlink" x="0px" y="0px"
	 width="48px" height="48px" viewBox="0 0 48 48" enable-background="new 0 0 48 48" xml:space="preserve">
<path fill="#EA9860" d="M44.36426,38.86914L24.88672,1.53711c-0.34473-0.66016-1.42871-0.66016-1.77344,0L16.6004,14.0202
	C16.73309,14.01141,16.86511,14,17,14c3.31372,0,6,2.68628,6,6s-2.68628,6-6,6c-2.18024,0-4.08313-1.16681-5.13373-2.90613
	L3.63574,38.86914c-0.12354,0.2373-0.14697,0.5127-0.06592,0.76758c0.08154,0.25391,0.26123,0.46484,0.49902,0.58691
	C10.29346,43.39258,16.99902,45,24,45s13.70654-1.60742,19.93115-4.77637c0.23779-0.12207,0.41748-0.33301,0.49902-0.58691
	C44.51123,39.38184,44.48779,39.10645,44.36426,38.86914z"/>
<path fill="#C94F49" d="M17,26c3.31372,0,6-2.68628,6-6s-2.68628-6-6-6c-0.13489,0-0.26691,0.01141-0.3996,0.0202l-4.73413,9.07367
	C12.91687,24.83319,14.81976,26,17,26z"/>
<circle fill="#C94F49" cx="27" cy="30" r="4"/>
<path fill="#DDBE99" d="M24,47c-7.31934,0-14.33057-1.68066-20.83887-4.99414c-1.47656-0.75195-2.06396-2.55859-1.31201-4.03516
	c0.75146-1.47656,2.55811-2.0625,4.03467-1.3125C11.54102,39.53906,17.63574,41,24,41s12.45898-1.46094,18.11621-4.3418
	c1.47803-0.74902,3.28369-0.16309,4.03467,1.3125c0.75195,1.47656,0.16455,3.2832-1.31201,4.03516
	C38.33057,45.31934,31.31934,47,24,47z"/>
</svg>
