<?xml version="1.0" encoding="utf-8"?>
<!-- Generator: Adobe Illustrator 19.2.0, SVG Export Plug-In . SVG Version: 6.00 Build 0)  -->
<!DOCTYPE svg PUBLIC "-//W3C//DTD SVG 1.1//EN" "http://www.w3.org/Graphics/SVG/1.1/DTD/svg11.dtd">
<svg version="1.1" id="Layer_1" xmlns="http://www.w3.org/2000/svg" xmlns:xlink="http://www.w3.org/1999/xlink" x="0px" y="0px"
	 width="48px" height="48px" viewBox="0 0 48 48" enable-background="new 0 0 48 48" xml:space="preserve">
<path fill="#335262" d="M44,14V8c0-0.55228-0.44769-1-1-1h-4c-0.5523,0-1,0.44772-1,1v6c0,0.55228,0.4477,1,1,1h4
	C43.55231,15,44,14.55228,44,14z"/>
<path fill="#335262" d="M44,24v-6c0-0.55228-0.44769-1-1-1h-4c-0.5523,0-1,0.44772-1,1v6c0,0.55228,0.4477,1,1,1h4
	C43.55231,25,44,24.55228,44,24z"/>
<path fill="#5A7A84" d="M36,2H10v44h26c2.20917,0,4-1.79089,4-4V6C40,3.79083,38.20917,2,36,2z"/>
<path fill="#CFE1E5" d="M29,12c-0.55273,0-1,0.44775-1,1v7c0,0.55225-0.44769,1-1,1h-1c-0.55231,0-1-0.44775-1-1v-7
	c0-0.55225-0.44727-1-1-1s-1,0.44775-1,1v7c0,0.55225-0.44769,1-1,1h-1c-0.55231,0-1-0.44775-1-1v-7c0-0.55225-0.44727-1-1-1
	s-1,0.44775-1,1v7v1c0,2.41888,1.71783,4.43585,4,4.89923V37c0,1.10455,0.89545,2,2,2s2-0.89545,2-2V25.89923
	c2.28217-0.46338,4-2.48035,4-4.89923v-1v-7C30,12.44775,29.55273,12,29,12z"/>
<path fill="#335262" d="M5.9928,2C4.89221,2,4,2.89221,4,3.9928v40.00549C4,45.09924,4.90076,46,6.00165,46H10V2H5.9928z"/>
</svg>
