<?xml version="1.0" encoding="utf-8"?>
<!-- Generator: Adobe Illustrator 19.2.0, SVG Export Plug-In . SVG Version: 6.00 Build 0)  -->
<!DOCTYPE svg PUBLIC "-//W3C//DTD SVG 1.1//EN" "http://www.w3.org/Graphics/SVG/1.1/DTD/svg11.dtd">
<svg version="1.1" id="Layer_1" xmlns="http://www.w3.org/2000/svg" xmlns:xlink="http://www.w3.org/1999/xlink" x="0px" y="0px"
	 width="48px" height="48px" viewBox="0 0 48 48" enable-background="new 0 0 48 48" xml:space="preserve">
<path fill="#E6E6E6" d="M45,42H3c-1.10457,0-2-0.89543-2-2V8c0-1.10457,0.89543-2,2-2h42c1.10457,0,2,0.89543,2,2v32
	C47,41.10457,46.10457,42,45,42z"/>
<circle fill="#444444" cx="41" cy="14" r="2"/>
<circle fill="#444444" cx="41" cy="21" r="2"/>
<rect x="33" y="6" fill="#B3B3B3" width="2" height="36"/>
<rect x="1" y="12" fill="#444444" width="32" height="24"/>
<rect x="5" y="16" fill="#5B5B5B" width="24" height="16"/>
<path fill="#B3B3B3" d="M43,36h-4c-0.55228,0-1-0.44772-1-1v-8c0-0.55228,0.44772-1,1-1h4c0.55228,0,1,0.44772,1,1v8
	C44,35.55228,43.55228,36,43,36z"/>
</svg>
