<?xml version="1.0" encoding="utf-8"?>
<!-- Generator: Adobe Illustrator 19.2.0, SVG Export Plug-In . SVG Version: 6.00 Build 0)  -->
<!DOCTYPE svg PUBLIC "-//W3C//DTD SVG 1.1//EN" "http://www.w3.org/Graphics/SVG/1.1/DTD/svg11.dtd">
<svg version="1.1" id="Layer_1" xmlns="http://www.w3.org/2000/svg" xmlns:xlink="http://www.w3.org/1999/xlink" x="0px" y="0px"
	 width="48px" height="48px" viewBox="0 0 48 48" enable-background="new 0 0 48 48" xml:space="preserve">
<path fill="#8E6E62" d="M36.00098,29c-0.36719,0.00049-0.72021-0.20215-0.89551-0.55273
	c-4.06104-8.12256-3.83203-15.60254,0.58301-21.33252c-2.41553,0.23779-4.86865,0.8457-7.3208,1.81543
	c-0.51416,0.20166-1.09473-0.04932-1.29785-0.5625c-0.20264-0.51367,0.04883-1.09473,0.5625-1.29785
	C31.10645,5.69629,34.59424,5,38,5c0.4043,0,0.76904,0.24365,0.92383,0.61719c0.15479,0.37402,0.06934,0.80371-0.2168,1.08984
	c-5.26025,5.26025-5.90381,12.66357-1.8125,20.8457c0.24707,0.49414,0.04688,1.09473-0.44727,1.3418
	C36.30371,28.96631,36.15088,29,36.00098,29z"/>
<path fill="#8E6E62" d="M12,29c-0.55225,0-1-0.44775-1-1c0-5.62451,2.48828-10.86084,7.1958-15.14355
	c0.40869-0.37256,1.04102-0.34082,1.4126,0.06689c0.37158,0.4082,0.3418,1.04102-0.06689,1.4126C16.55713,17.05078,13,21.625,13,28
	C13,28.55225,12.55225,29,12,29z"/>
<path fill="#88C057" d="M16,15C9.65869,15,3.5498,8.96387,3.29297,8.70703C3.104,8.51807,2.99854,8.26172,3,7.99463
	c0.00146-0.2666,0.10938-0.52197,0.30029-0.70898C3.56201,7.02881,9.78809,1,16,1c6.34131,0,12.4502,6.03613,12.70703,6.29297
	c0.3877,0.3877,0.39111,1.01514,0.00732,1.40674C28.4624,8.95703,22.47119,15,16,15z"/>
<path fill="#E86C60" d="M18.58252,27.18604c-1.4458-1.08057-3.07275-0.75488-4.50977-0.46582C13.38867,26.85791,12.68115,27,12,27
	c-0.68311,0-1.3916-0.13965-2.07666-0.2749c-1.44727-0.28467-3.08594-0.60742-4.53857,0.48535C2.59814,29.31055,1,32.51416,1,36
	c0,6.06543,4.93457,11,11,11s11-4.93457,11-11C23,32.49805,21.38965,29.28564,18.58252,27.18604z"/>
<path fill="#E86C60" d="M42.58252,27.18604c-1.4458-1.08057-3.07275-0.75488-4.50977-0.46582C37.38867,26.85791,36.68115,27,36,27
	c-0.68311,0-1.3916-0.13965-2.07666-0.2749c-1.44678-0.28467-3.08594-0.60742-4.53857,0.48535C26.59814,29.31055,25,32.51416,25,36
	c0,6.06543,4.93457,11,11,11s11-4.93457,11-11C47,32.49805,45.38965,29.28564,42.58252,27.18604z"/>
</svg>
