<?xml version="1.0" encoding="utf-8"?>
<!-- Generator: Adobe Illustrator 19.2.0, SVG Export Plug-In . SVG Version: 6.00 Build 0)  -->
<!DOCTYPE svg PUBLIC "-//W3C//DTD SVG 1.1//EN" "http://www.w3.org/Graphics/SVG/1.1/DTD/svg11.dtd">
<svg version="1.1" id="Layer_1" xmlns="http://www.w3.org/2000/svg" xmlns:xlink="http://www.w3.org/1999/xlink" x="0px" y="0px"
	 width="48px" height="48px" viewBox="0 0 48 48" enable-background="new 0 0 48 48" xml:space="preserve">
<path fill="#444444" d="M25.75537,1.34473C25.56543,1.12598,25.29004,1,25,1h-4c-0.29004,0-0.56543,0.12598-0.75537,0.34473
	c-0.18994,0.21924-0.27539,0.50977-0.23438,0.79688l1,7C21.08057,9.63428,21.50244,10,22,10h2
	c0.49756,0,0.91943-0.36572,0.98975-0.8584l1-7C26.03076,1.85449,25.94531,1.56396,25.75537,1.34473z"/>
<path fill="#444444" d="M37.5,22.5c-0.82861,0-1.5-0.67139-1.5-1.5s0.67139-1.5,1.5-1.5c1.37842,0,2.5-1.12158,2.5-2.5v-7H29.5
	C28.67139,10,28,9.32861,28,8.5S28.67139,7,29.5,7h12C42.32861,7,43,7.67139,43,8.5V17C43,20.03271,40.53271,22.5,37.5,22.5z"/>
<path fill="#E6E6E6" d="M33.03271,25.9624L36.97607,8.2168c0.06592-0.2959-0.00635-0.60596-0.1958-0.84229
	C36.59033,7.1377,36.30322,7,36,7H6C5.62109,7,5.2749,7.21387,5.10547,7.55273S4.97266,8.29688,5.2002,8.6001l5.86377,7.81836
	l1.90674,9.5332L12.95618,26h20.08783L33.03271,25.9624z"/>
<path fill="#B3B3B3" d="M39.56461,45.68556L33.04401,26H12.95618L7.36102,45.72713C7.17995,46.36553,7.6595,47,8.32307,47h30.29226
	C39.2971,47,39.77898,46.33275,39.56461,45.68556z"/>
</svg>
