<?xml version="1.0" encoding="utf-8"?>
<!-- Generator: Adobe Illustrator 19.2.0, SVG Export Plug-In . SVG Version: 6.00 Build 0)  -->
<!DOCTYPE svg PUBLIC "-//W3C//DTD SVG 1.1//EN" "http://www.w3.org/Graphics/SVG/1.1/DTD/svg11.dtd">
<svg version="1.1" id="Layer_1" xmlns="http://www.w3.org/2000/svg" xmlns:xlink="http://www.w3.org/1999/xlink" x="0px" y="0px"
	 width="48px" height="48px" viewBox="0 0 48 48" enable-background="new 0 0 48 48" xml:space="preserve">
<path fill="#DDBE99" d="M24,23c-0.55225,0-1-0.44727-1-1v-6c0-0.55273,0.44775-1,1-1s1,0.44727,1,1v6C25,22.55273,24.55225,23,24,23
	z"/>
<path fill="#DDBE99" d="M12,23c-0.55225,0-1-0.44727-1-1v-5c0-0.55273,0.44775-1,1-1s1,0.44727,1,1v5C13,22.55273,12.55225,23,12,23
	z"/>
<path fill="#DDBE99" d="M36,23c-0.55225,0-1-0.44727-1-1v-5c0-0.55273,0.44775-1,1-1s1,0.44727,1,1v5C37,22.55273,36.55225,23,36,23
	z"/>
<path fill="#EF8EC3" d="M43,35H5V24c0-1.6543,1.3457-3,3-3h32c1.6543,0,3,1.3457,3,3V35z"/>
<path fill="#ED69AB" d="M46,47H2c-0.55225,0-1-0.44727-1-1V36c0-1.6543,1.3457-3,3-3h40c1.6543,0,3,1.3457,3,3v10
	C47,46.55273,46.55225,47,46,47z"/>
<path fill="#E86C60" d="M24,17c-2.75684,0-5-2.24316-5-5c0-2.39941,3.47949-7.55859,4.17725-8.56836
	c0.37305-0.54102,1.27246-0.54102,1.64551,0C25.52051,4.44141,29,9.60059,29,12C29,14.75684,26.75684,17,24,17z"/>
<path fill="#E86C60" d="M12,18c-1.6543,0-3-1.3457-3-3c0-1.27832,1.52246-3.62012,2.17725-4.56836
	c0.37305-0.54102,1.27246-0.54102,1.64551,0C13.47754,11.37988,15,13.72168,15,15C15,16.6543,13.6543,18,12,18z"/>
<path fill="#E86C60" d="M36,18c-1.6543,0-3-1.3457-3-3c0-1.27832,1.52246-3.62012,2.17725-4.56836
	c0.37305-0.54102,1.27246-0.54102,1.64551,0C37.47754,11.37988,39,13.72168,39,15C39,16.6543,37.6543,18,36,18z"/>
</svg>
