<?xml version="1.0" encoding="utf-8"?>
<!-- Generator: Adobe Illustrator 19.2.0, SVG Export Plug-In . SVG Version: 6.00 Build 0)  -->
<!DOCTYPE svg PUBLIC "-//W3C//DTD SVG 1.1//EN" "http://www.w3.org/Graphics/SVG/1.1/DTD/svg11.dtd">
<svg version="1.1" id="Layer_1" xmlns="http://www.w3.org/2000/svg" xmlns:xlink="http://www.w3.org/1999/xlink" x="0px" y="0px"
	 width="48px" height="48px" viewBox="0 0 48 48" enable-background="new 0 0 48 48" xml:space="preserve">
<path fill="#C6A279" d="M10,7L10,7L7.03647,2.5547C6.59343,1.89015,7.06982,1,7.86852,1h4.26297
	c0.7987,0,1.27509,0.89015,0.83205,1.5547L10,7z"/>
<path fill="#C6A279" d="M41,39L41,39l4.4453-2.96353C46.10986,35.59343,47,36.06982,47,36.86852v4.26296
	c0,0.7987-0.89014,1.27509-1.5547,0.83205L41,39z"/>
<path fill="#EEBC99" d="M36,45C17.80371,45,3,30.19629,3,12c0-3.85938,3.14014-7,7-7s7,3.14062,7,7c0,10.47656,8.52344,19,19,19
	c3.85986,0,7,3.14062,7,7S39.85986,45,36,45z"/>
</svg>
