<?xml version="1.0" encoding="utf-8"?>
<!-- Generator: Adobe Illustrator 19.2.0, SVG Export Plug-In . SVG Version: 6.00 Build 0)  -->
<!DOCTYPE svg PUBLIC "-//W3C//DTD SVG 1.1//EN" "http://www.w3.org/Graphics/SVG/1.1/DTD/svg11.dtd">
<svg version="1.1" id="Layer_1" xmlns="http://www.w3.org/2000/svg" xmlns:xlink="http://www.w3.org/1999/xlink" x="0px" y="0px"
	 width="48px" height="48px" viewBox="0 0 48 48" enable-background="new 0 0 48 48" xml:space="preserve">
<path fill="#D1B43D" d="M37.5,36h-8c-0.82812,0-1.5-0.67139-1.5-1.5v-14c0-0.82861,0.67188-1.5,1.5-1.5h12
	c0.82812,0,1.5,0.67139,1.5,1.5v10C43,33.53271,40.53223,36,37.5,36z M31,33h6.5c1.37891,0,2.5-1.12158,2.5-2.5V22h-9V33z"/>
<path fill="#EFD358" d="M6,18v25c0,2.20911,1.79083,4,4,4h22c2.20917,0,4-1.79089,4-4V18H6z"/>
<path fill="#D1B43D" d="M21,39c-0.55225,0-1-0.44727-1-1V25c0-0.55273,0.44775-1,1-1s1,0.44727,1,1v13
	C22,38.55273,21.55225,39,21,39z"/>
<path fill="#D1B43D" d="M14,39c-0.55225,0-1-0.44727-1-1V25c0-0.55273,0.44775-1,1-1s1,0.44727,1,1v13
	C15,38.55273,14.55225,39,14,39z"/>
<path fill="#D1B43D" d="M28,39c-0.55225,0-1-0.44727-1-1V25c0-0.55273,0.44775-1,1-1s1,0.44727,1,1v13
	C29,38.55273,28.55225,39,28,39z"/>
<path fill="#E6E6E6" d="M33,10h-0.39331C31.27264,4.82715,26.58954,1,21,1S10.72736,4.82715,9.39331,10H9c-2.76141,0-5,2.23859-5,5
	s2.23859,5,5,5h24c2.76141,0,5-2.23859,5-5S35.76141,10,33,10z"/>
<path fill="#E6E6E6" d="M12,20v9c0,1.10457,0.89543,2,2,2h0c1.10457,0,2-0.89543,2-2v-9H12z"/>
</svg>
