<?xml version="1.0" encoding="utf-8"?>
<!-- Generator: Adobe Illustrator 19.2.0, SVG Export Plug-In . SVG Version: 6.00 Build 0)  -->
<!DOCTYPE svg PUBLIC "-//W3C//DTD SVG 1.1//EN" "http://www.w3.org/Graphics/SVG/1.1/DTD/svg11.dtd">
<svg version="1.1" id="Layer_1" xmlns="http://www.w3.org/2000/svg" xmlns:xlink="http://www.w3.org/1999/xlink" x="0px" y="0px"
	 width="48px" height="48px" viewBox="0 0 48 48" enable-background="new 0 0 48 48" xml:space="preserve">
<path fill="#C6C6C6" d="M46,11c-0.55225,0-1-0.44727-1-1V8c0-2.75684-2.24316-5-5-5H16c-0.55225,0-1-0.44727-1-1s0.44775-1,1-1h24
	c3.85986,0,7,3.14062,7,7v2C47,10.55273,46.55225,11,46,11z"/>
<path fill="#EEBC99" d="M26,47h-6C9.52344,47,1,38.47656,1,28S9.52344,9,20,9h26c0.55225,0,1,0.44727,1,1
	c0,12.24414-11.1084,15-15,15h-3c-5.51416,0-10,4.48633-10,10c0,4.41309,3.13867,8.73242,7.30078,10.0459
	c0.4707,0.14941,0.7627,0.61816,0.6875,1.10645C26.91309,46.63965,26.49365,47,26,47z"/>
<path fill="#E86C60" d="M26,25.41406c-0.55225,0-1-0.44727-1-1V10c0-0.55273,0.44775-1,1-1s1,0.44727,1,1v14.41406
	C27,24.9668,26.55225,25.41406,26,25.41406z"/>
<path fill="#E86C60" d="M20.30176,29.26562c-0.25537,0-0.51074-0.09766-0.70605-0.29199L6.56592,15.98047
	c-0.39111-0.38965-0.39209-1.02344-0.00195-1.41406c0.38916-0.3916,1.02197-0.3916,1.41406-0.00195l13.02979,12.99316
	c0.39111,0.38965,0.39209,1.02344,0.00195,1.41406C20.81445,29.16797,20.55811,29.26562,20.30176,29.26562z"/>
<path fill="#E86C60" d="M18.04248,35H3.02441c-0.55225,0-1-0.44727-1-1s0.44775-1,1-1h15.01807c0.55225,0,1,0.44727,1,1
	S18.59473,35,18.04248,35z"/>
<path fill="#E86C60" d="M42,47H26c-0.44629,0-0.83838-0.2959-0.96143-0.72461s0.05322-0.88672,0.43164-1.12305l16-10
	c0.30811-0.19434,0.6958-0.20215,1.01465-0.02734C42.80273,35.30176,43,35.63672,43,36v10C43,46.55273,42.55225,47,42,47z"/>
<circle fill="#444444" cx="33" cy="16" r="2"/>
</svg>
