<?xml version="1.0" encoding="utf-8"?>
<!-- Generator: Adobe Illustrator 19.2.0, SVG Export Plug-In . SVG Version: 6.00 Build 0)  -->
<!DOCTYPE svg PUBLIC "-//W3C//DTD SVG 1.1//EN" "http://www.w3.org/Graphics/SVG/1.1/DTD/svg11.dtd">
<svg version="1.1" id="Layer_1" xmlns="http://www.w3.org/2000/svg" xmlns:xlink="http://www.w3.org/1999/xlink" x="0px" y="0px"
	 width="48px" height="48px" viewBox="0 0 48 48" enable-background="new 0 0 48 48" xml:space="preserve">
<path fill="#E6E6E6" d="M28,14l6.78784-12.60596C34.5993,1.14923,34.31152,1,34,1H14c-0.33447,0-0.64648,0.16699-0.83203,0.44531
	L9.38232,7.12354l-7.625,1.90625C1.3125,9.14111,1,9.54102,1,10v36c0,0.55225,0.44775,1,1,1h12V14H28z"/>
<path fill="#B3B3B3" d="M46.24268,9.02979l-7.625-1.90625l-3.78564-5.67822c-0.0127-0.0191-0.03033-0.03326-0.04419-0.05127L28,14
	h-4h-4L13.21216,1.39404c-0.01385,0.01801-0.03149,0.03217-0.04419,0.05127L9.38232,7.12354l-7.625,1.90625
	C1.3125,9.14111,1,9.54102,1,10v36c0,0.55225,0.44775,1,1,1h44c0.55225,0,1-0.44775,1-1V10
	C47,9.54102,46.6875,9.14111,46.24268,9.02979z"/>
<path fill="#E86C60" d="M28,14l6.78784-12.60596C34.5993,1.14923,34.31152,1,34,1H14c-0.31152,0-0.5993,0.14923-0.78784,0.39404
	L20,14H28z"/>
<path fill="#E6E6E6" d="M46.24243,9.02972l-7.62476-1.90619l-3.78564-5.67822c-0.03242,0.00153-0.04125,0.00194-0.07366,0.00347
	L28,14H18c-2.20914,0-4,1.79086-4,4v29h32c0.55228,0,1-0.44772,1-1V10C47,9.54107,46.68766,9.14103,46.24243,9.02972z"/>
<circle fill="#444444" cx="23" cy="38" r="2"/>
<circle fill="#444444" cx="23" cy="30" r="2"/>
<circle fill="#444444" cx="23" cy="22" r="2"/>
</svg>
