<?xml version="1.0" encoding="utf-8"?>
<!-- Generator: Adobe Illustrator 19.2.0, SVG Export Plug-In . SVG Version: 6.00 Build 0)  -->
<!DOCTYPE svg PUBLIC "-//W3C//DTD SVG 1.1//EN" "http://www.w3.org/Graphics/SVG/1.1/DTD/svg11.dtd">
<svg version="1.1" id="Layer_1" xmlns="http://www.w3.org/2000/svg" xmlns:xlink="http://www.w3.org/1999/xlink" x="0px" y="0px"
	 width="48px" height="48px" viewBox="0 0 48 48" enable-background="new 0 0 48 48" xml:space="preserve">
<path fill="#A67C52" d="M9.99951,45.00049c-0.12354,0-0.24902-0.02344-0.37109-0.07178
	c-0.5127-0.20557-0.76221-0.78711-0.55713-1.30029l16-40c0.20508-0.5127,0.78564-0.76221,1.30029-0.55713
	c0.5127,0.20557,0.76221,0.78711,0.55713,1.30029l-16,40C10.77197,44.76221,10.39648,45.00049,9.99951,45.00049z"/>
<path fill="#C19F85" d="M4.00049,39.00049c-0.39697,0-0.77246-0.23828-0.9292-0.62891
	c-0.20508-0.51318,0.04443-1.09473,0.55713-1.30029l40-16c0.51562-0.20361,1.09521,0.04492,1.30029,0.55713
	c0.20508,0.51318-0.04443,1.09473-0.55713,1.30029l-40,16C4.24951,38.97705,4.12402,39.00049,4.00049,39.00049z"/>
<circle fill="#FFFFFF" cx="32" cy="16" r="10"/>
<path fill="#444444" d="M32,27.5c-6.34131,0-11.5-5.15869-11.5-11.5S25.65869,4.5,32,4.5S43.5,9.65869,43.5,16
	S38.34131,27.5,32,27.5z M32,7.5c-4.68701,0-8.5,3.81299-8.5,8.5s3.81299,8.5,8.5,8.5s8.5-3.81299,8.5-8.5S36.68701,7.5,32,7.5z"/>
<circle fill="#E86C60" cx="32" cy="16" r="4"/>
</svg>
