<?xml version="1.0" encoding="utf-8"?>
<!-- Generator: Adobe Illustrator 19.2.0, SVG Export Plug-In . SVG Version: 6.00 Build 0)  -->
<!DOCTYPE svg PUBLIC "-//W3C//DTD SVG 1.1//EN" "http://www.w3.org/Graphics/SVG/1.1/DTD/svg11.dtd">
<svg version="1.1" id="Layer_1" xmlns="http://www.w3.org/2000/svg" xmlns:xlink="http://www.w3.org/1999/xlink" x="0px" y="0px"
	 width="48px" height="48px" viewBox="0 0 48 48" enable-background="new 0 0 48 48" xml:space="preserve">
<path fill="#DDBE99" d="M13,34v10c0,1.65686,1.34314,3,3,3s3-1.34314,3-3V34H13z"/>
<path fill="#ED69AB" d="M27,35H5c-1.10457,0-2-0.89543-2-2l0-18.62294C3,7.38516,8.36226,1.36034,15.34569,1.01615
	C22.81018,0.64826,29,6.61512,29,14v19C29,34.10457,28.10457,35,27,35z"/>
<path fill="#EF8EC3" d="M12,25c-0.55225,0-1-0.44727-1-1V14c0-0.55273,0.44775-1,1-1s1,0.44727,1,1v10
	C13,24.55273,12.55225,25,12,25z"/>
<path fill="#EF8EC3" d="M20,25c-0.55225,0-1-0.44727-1-1V14c0-0.55273,0.44775-1,1-1s1,0.44727,1,1v10
	C21,24.55273,20.55225,25,20,25z"/>
<path fill="#ABDFFC" d="M40,31c-2.75684,0-5-2.24316-5-5c0-2.39941,3.47949-7.55859,4.17676-8.56836
	c0.375-0.54102,1.27148-0.54102,1.64648,0C41.52051,18.44141,45,23.60059,45,26C45,28.75684,42.75684,31,40,31z"/>
</svg>
