<?xml version="1.0" encoding="utf-8"?>
<!-- Generator: Adobe Illustrator 19.2.0, SVG Export Plug-In . SVG Version: 6.00 Build 0)  -->
<!DOCTYPE svg PUBLIC "-//W3C//DTD SVG 1.1//EN" "http://www.w3.org/Graphics/SVG/1.1/DTD/svg11.dtd">
<svg version="1.1" id="Layer_1" xmlns="http://www.w3.org/2000/svg" xmlns:xlink="http://www.w3.org/1999/xlink" x="0px" y="0px"
	 width="48px" height="48px" viewBox="0 0 48 48" enable-background="new 0 0 48 48" xml:space="preserve">
<path fill="#BFDEE0" d="M24,35c-4.96289,0-9-4.03711-9-9V2c0-0.55273,0.44727-1,1-1h16c0.55273,0,1,0.44727,1,1v24
	C33,30.96289,28.96289,35,24,35z"/>
<path fill="#D8BC48" d="M17,14v12c0,3.85938,3.14062,7,7,7s7-3.14062,7-7V14H17z"/>
<path fill="#BFDEE0" d="M24,47c-0.55273,0-1-0.44727-1-1V34c0-0.55273,0.44727-1,1-1s1,0.44727,1,1v12
	C25,46.55273,24.55273,47,24,47z"/>
<path fill="#BFDEE0" d="M32,47H16c-0.55273,0-1-0.44727-1-1s0.44727-1,1-1h16c0.55273,0,1,0.44727,1,1S32.55273,47,32,47z"/>
</svg>
