<?xml version="1.0" encoding="utf-8"?>
<!-- Generator: Adobe Illustrator 19.2.0, SVG Export Plug-In . SVG Version: 6.00 Build 0)  -->
<!DOCTYPE svg PUBLIC "-//W3C//DTD SVG 1.1//EN" "http://www.w3.org/Graphics/SVG/1.1/DTD/svg11.dtd">
<svg version="1.1" id="Layer_1" xmlns="http://www.w3.org/2000/svg" xmlns:xlink="http://www.w3.org/1999/xlink" x="0px" y="0px"
	 width="48px" height="48px" viewBox="0 0 48 48" enable-background="new 0 0 48 48" xml:space="preserve">
<path fill="#DDBE99" d="M37.62012,45H10.37988c-1.40137,0-2.74707-0.59375-3.69141-1.62793
	c-0.94531-1.03516-1.41504-2.42871-1.28809-3.8252L8,17l-2.41564-5.63648C3.88756,7.40431,6.79174,3,11.09923,3h25.80153
	c4.3075,0,7.21168,4.40431,5.51487,8.36352L40,17l2.59961,22.54688c0.12695,1.39648-0.34277,2.79004-1.28809,3.8252
	C40.36719,44.40625,39.02148,45,37.62012,45z"/>
<path fill="#C6A279" d="M26,23c-0.25586,0-0.51172-0.09766-0.70703-0.29297l-2-2c-0.39062-0.39062-0.39062-1.02344,0-1.41406
	s1.02344-0.39062,1.41406,0l2,2c0.39062,0.39062,0.39062,1.02344,0,1.41406C26.51172,22.90234,26.25586,23,26,23z"/>
<path fill="#C6A279" d="M28,35c-0.25586,0-0.51172-0.09766-0.70703-0.29297c-0.39062-0.39062-0.39062-1.02344,0-1.41406l2-2
	c0.39062-0.39062,1.02344-0.39062,1.41406,0s0.39062,1.02344,0,1.41406l-2,2C28.51172,34.90234,28.25586,35,28,35z"/>
<path fill="#C6A279" d="M32,15c-0.55273,0-1-0.44727-1-1v-2c0-0.55273,0.44727-1,1-1s1,0.44727,1,1v2C33,14.55273,32.55273,15,32,15
	z"/>
<path fill="#C6A279" d="M14,15c-0.25586,0-0.51172-0.09766-0.70703-0.29297c-0.39062-0.39062-0.39062-1.02344,0-1.41406l2-2
	c0.39062-0.39062,1.02344-0.39062,1.41406,0s0.39062,1.02344,0,1.41406l-2,2C14.51172,14.90234,14.25586,15,14,15z"/>
<path fill="#C6A279" d="M18,33c-0.55273,0-1-0.44727-1-1v-2c0-0.55273,0.44727-1,1-1s1,0.44727,1,1v2C19,32.55273,18.55273,33,18,33
	z"/>
</svg>
