<?xml version="1.0" encoding="utf-8"?>
<!-- Generator: Adobe Illustrator 19.2.0, SVG Export Plug-In . SVG Version: 6.00 Build 0)  -->
<!DOCTYPE svg PUBLIC "-//W3C//DTD SVG 1.1//EN" "http://www.w3.org/Graphics/SVG/1.1/DTD/svg11.dtd">
<svg version="1.1" id="Layer_1" xmlns="http://www.w3.org/2000/svg" xmlns:xlink="http://www.w3.org/1999/xlink" x="0px" y="0px"
	 width="48px" height="48px" viewBox="0 0 48 48" enable-background="new 0 0 48 48" xml:space="preserve">
<path fill="#EFD358" d="M38,17H10c-0.55273,0-1,0.44727-1,1v4c0,4.17578,1.03613,8.30859,2.03809,12.30469
	C12.04688,38.33105,13,42.13379,13,46c0,0.55273,0.44727,1,1,1h20c0.55273,0,1-0.44727,1-1
	c0-3.87695,1.00195-7.88281,1.96973-11.75781C37.96777,30.25098,39,26.12305,39,22v-4C39,17.44727,38.55273,17,38,17z"/>
<path fill="#D8BC48" d="M34,25H14c-0.55273,0-1-0.44727-1-1s0.44727-1,1-1h20c0.55273,0,1,0.44727,1,1S34.55273,25,34,25z"/>
<path fill="#E6E6E6" d="M9,19v-4.58105c0-3.27148,2.05566-6.19531,5-7.11133c1.14453-0.35547,2.30469-0.4043,3.45996-0.14648
	C18.66602,3.53418,22.09863,1,26,1c4.01758,0,7.57129,2.72363,8.65527,6.55176C37.27637,8.625,39,11.14941,39,14v5H9z"/>
<path fill="#E6E6E6" d="M26,19v9.5c0,1.38071,1.11929,2.5,2.5,2.5h0c1.38071,0,2.5-1.11929,2.5-2.5V19H26z"/>
</svg>
