<?xml version="1.0" encoding="utf-8"?>
<!-- Generator: Adobe Illustrator 19.2.0, SVG Export Plug-In . SVG Version: 6.00 Build 0)  -->
<!DOCTYPE svg PUBLIC "-//W3C//DTD SVG 1.1//EN" "http://www.w3.org/Graphics/SVG/1.1/DTD/svg11.dtd">
<svg version="1.1" id="Layer_1" xmlns="http://www.w3.org/2000/svg" xmlns:xlink="http://www.w3.org/1999/xlink" x="0px" y="0px"
	 width="48px" height="48px" viewBox="0 0 48 48" enable-background="new 0 0 48 48" xml:space="preserve">
<path fill="#444444" d="M44,46H4c-1.6543,0-3-1.3457-3-3V5c0-1.6543,1.3457-3,3-3h40c1.6543,0,3,1.3457,3,3v38
	C47,44.6543,45.6543,46,44,46z"/>
<circle fill="#C94F49" cx="11" cy="32" r="6"/>
<circle fill="#444444" cx="11" cy="32" r="2"/>
<circle fill="#C94F49" cx="11" cy="16" r="6"/>
<circle fill="#444444" cx="11" cy="16" r="2"/>
<circle fill="#C94F49" cx="27" cy="32" r="6"/>
<circle fill="#444444" cx="27" cy="32" r="2"/>
<circle fill="#C94F49" cx="27" cy="16" r="6"/>
<circle fill="#444444" cx="27" cy="16" r="2"/>
<circle fill="#B3B3B3" cx="41" cy="12" r="2"/>
<circle fill="#B3B3B3" cx="41" cy="20" r="2"/>
<circle fill="#B3B3B3" cx="41" cy="28" r="2"/>
<circle fill="#B3B3B3" cx="41" cy="36" r="2"/>
</svg>
