<?xml version="1.0" encoding="utf-8"?>
<!-- Generator: Adobe Illustrator 19.2.0, SVG Export Plug-In . SVG Version: 6.00 Build 0)  -->
<!DOCTYPE svg PUBLIC "-//W3C//DTD SVG 1.1//EN" "http://www.w3.org/Graphics/SVG/1.1/DTD/svg11.dtd">
<svg version="1.1" id="Layer_1" xmlns="http://www.w3.org/2000/svg" xmlns:xlink="http://www.w3.org/1999/xlink" x="0px" y="0px"
	 width="48px" height="48px" viewBox="0 0 48 48" enable-background="new 0 0 48 48" xml:space="preserve">
<path fill="#87613E" d="M37,11c-2.45377,0-4.55843-1.47503-5.48701-3.58541c-0.19694-0.44758-0.67372-0.68561-1.14965-0.57336
	C29.92553,6.94449,29.46944,7,29,7c-3.02469,0-5.52661-2.2381-5.94006-5.14858C22.99047,1.3623,22.57242,1,22.07839,1H12
	c-1.10457,0-2,0.89543-2,2v24h27c0.55228,0,1-0.44772,1-1V10.91003C37.67413,10.96484,37.34149,11,37,11z"/>
<path fill="#C94F49" d="M36,47H12c-1.6543,0-3-1.3457-3-3v-9c0-0.47168,0.32959-0.87891,0.79053-0.97803l14-3
	c0.1377-0.0293,0.28125-0.0293,0.41895,0l14,3C38.67041,34.12109,39,34.52832,39,35v9C39,45.6543,37.6543,47,36,47z"/>
<path fill="#5E4027" d="M29,26L29,26c-0.55229,0-1-0.44771-1-1V8c0-0.55228,0.44771-1,1-1h0c0.55228,0,1,0.44771,1,1v17
	C30,25.55229,29.55229,26,29,26z"/>
<path fill="#5E4027" d="M19,26L19,26c-0.55229,0-1-0.44771-1-1V2c0-0.55228,0.44771-1,1-1h0c0.55228,0,1,0.44771,1,1v23
	C20,25.55229,19.55229,26,19,26z"/>
<path fill="#5E4027" d="M37,18H11c-0.55228,0-1-0.44771-1-1v0c0-0.55228,0.44771-1,1-1h26c0.55228,0,1,0.44771,1,1v0
	C38,17.55229,37.55228,18,37,18z"/>
<path fill="#E6E6E6" d="M44,37c-0.06494,0-0.13086-0.00635-0.19629-0.01953l-19.80322-3.96045l-19.8042,3.96045
	c-0.36133,0.07178-0.73047-0.05908-0.96533-0.34082c-0.23438-0.28223-0.2959-0.67041-0.15967-1.01123l4-10
	C7.22363,25.24902,7.59131,25,8,25h32c0.40869,0,0.77637,0.24902,0.92871,0.62842l4,10
	c0.13623,0.34082,0.07471,0.729-0.16016,1.01123C44.57666,36.87061,44.29395,37,44,37z"/>
</svg>
