<?xml version="1.0" encoding="utf-8"?>
<!-- Generator: Adobe Illustrator 19.2.0, SVG Export Plug-In . SVG Version: 6.00 Build 0)  -->
<!DOCTYPE svg PUBLIC "-//W3C//DTD SVG 1.1//EN" "http://www.w3.org/Graphics/SVG/1.1/DTD/svg11.dtd">
<svg version="1.1" id="Layer_1" xmlns="http://www.w3.org/2000/svg" xmlns:xlink="http://www.w3.org/1999/xlink" x="0px" y="0px"
	 width="48px" height="48px" viewBox="0 0 48 48" enable-background="new 0 0 48 48" xml:space="preserve">
<path fill="#72C472" d="M36,9c-1.07538,0-2.10254,0.19934-3.05933,0.54675C31.29895,6.26434,27.91321,4,24,4
	s-7.29895,2.26434-8.94067,5.54675C14.10254,9.19934,13.07538,9,12,9c-4.96289,0-9,4.03711-9,9s4.03711,9,9,9h24
	c4.96289,0,9-4.03711,9-9S40.96289,9,36,9z"/>
<circle fill="#E86C60" cx="24" cy="24" r="14"/>
<path fill="#DDBE99" d="M44,43H4c-1.6543,0-3-1.3457-3-3v-4c0-12.68262,10.31738-23,23-23s23,10.31738,23,23v4
	C47,41.6543,45.6543,43,44,43z"/>
<path fill="#C6A279" d="M26,35c-0.25586,0-0.51172-0.09766-0.70703-0.29297l-2-2c-0.39062-0.39062-0.39062-1.02344,0-1.41406
	s1.02344-0.39062,1.41406,0l2,2c0.39062,0.39062,0.39062,1.02344,0,1.41406C26.51172,34.90234,26.25586,35,26,35z"/>
<path fill="#C6A279" d="M32,29c-0.55273,0-1-0.44727-1-1v-2c0-0.55273,0.44727-1,1-1s1,0.44727,1,1v2C33,28.55273,32.55273,29,32,29
	z"/>
<path fill="#C6A279" d="M14,29c-0.25586,0-0.51172-0.09766-0.70703-0.29297c-0.39062-0.39062-0.39062-1.02344,0-1.41406l2-2
	c0.39062-0.39062,1.02344-0.39062,1.41406,0s0.39062,1.02344,0,1.41406l-2,2C14.51172,28.90234,14.25586,29,14,29z"/>
</svg>
