<?xml version="1.0" encoding="utf-8"?>
<!-- Generator: Adobe Illustrator 19.2.0, SVG Export Plug-In . SVG Version: 6.00 Build 0)  -->
<!DOCTYPE svg PUBLIC "-//W3C//DTD SVG 1.1//EN" "http://www.w3.org/Graphics/SVG/1.1/DTD/svg11.dtd">
<svg version="1.1" id="Layer_1" xmlns="http://www.w3.org/2000/svg" xmlns:xlink="http://www.w3.org/1999/xlink" x="0px" y="0px"
	 width="48px" height="48px" viewBox="0 0 48 48" enable-background="new 0 0 48 48" xml:space="preserve">
<path fill="#B3B3B3" d="M24,24c-2.20557,0-4-1.79395-4-4s1.79443-4,4-4s4,1.79395,4,4S26.20557,24,24,24z M24,18
	c-1.10303,0-2,0.89746-2,2s0.89697,2,2,2s2-0.89746,2-2S25.10303,18,24,18z"/>
<path fill="#E6E6E6" d="M24,21C12.42041,21,3,30.4209,3,42v1h42v-1C45,30.4209,35.57959,21,24,21z"/>
<path fill="#E86C60" d="M24,9c-0.55225,0-1-0.44727-1-1V2c0-0.55273,0.44775-1,1-1s1,0.44727,1,1v6C25,8.55273,24.55225,9,24,9z"/>
<path fill="#E86C60" d="M14,13c-0.55225,0-1-0.44727-1-1V6c0-0.55273,0.44775-1,1-1s1,0.44727,1,1v6C15,12.55273,14.55225,13,14,13z
	"/>
<path fill="#E86C60" d="M34,13c-0.55225,0-1-0.44727-1-1V6c0-0.55273,0.44775-1,1-1s1,0.44727,1,1v6C35,12.55273,34.55225,13,34,13z
	"/>
<path fill="#FFFFFF" d="M11.36914,38c-0.14453,0-0.2915-0.03125-0.43066-0.09766c-0.49805-0.23828-0.70898-0.83496-0.47119-1.33301
	c1.47852-3.09668,4.00146-5.61426,7.10352-7.08789c0.49902-0.23438,1.0957-0.02441,1.33252,0.47461
	c0.23682,0.49805,0.0249,1.09473-0.47412,1.33203c-2.68896,1.27734-4.87549,3.45898-6.15723,6.14258
	C12.10059,37.79004,11.74219,38,11.36914,38z"/>
<path fill="#5B5B5B" d="M47,43H1c-0.55228,0-1,0.44772-1,1v0c0,2.20914,1.79086,4,3.99999,4H44c2.20914,0,4-1.79086,4-4v0
	C48,43.44772,47.55228,43,47,43z"/>
</svg>
