<?xml version="1.0" encoding="utf-8"?>
<!-- Generator: Adobe Illustrator 19.2.0, SVG Export Plug-In . SVG Version: 6.00 Build 0)  -->
<!DOCTYPE svg PUBLIC "-//W3C//DTD SVG 1.1//EN" "http://www.w3.org/Graphics/SVG/1.1/DTD/svg11.dtd">
<svg version="1.1" id="Layer_1" xmlns="http://www.w3.org/2000/svg" xmlns:xlink="http://www.w3.org/1999/xlink" x="0px" y="0px"
	 width="48px" height="48px" viewBox="0 0 48 48" enable-background="new 0 0 48 48" xml:space="preserve">
<path fill="#ABDFFC" d="M32,17H16l-3.41421,3.41421C12.21071,20.78929,12,21.29799,12,21.82843V41c0,3.31371,2.68629,6,6,6h12
	c3.31371,0,6-2.68629,6-6V21.82843c0-0.53043-0.21071-1.03914-0.58578-1.41421L32,17z"/>
<path fill="#42A6DD" d="M31,27h-4c-0.55273,0-1-0.44775-1-1s0.44727-1,1-1h4c0.55273,0,1,0.44775,1,1S31.55273,27,31,27z"/>
<path fill="#42A6DD" d="M31,33h-4c-0.55273,0-1-0.44775-1-1s0.44727-1,1-1h4c0.55273,0,1,0.44775,1,1S31.55273,33,31,33z"/>
<path fill="#42A6DD" d="M31,39h-4c-0.55273,0-1-0.44775-1-1s0.44727-1,1-1h4c0.55273,0,1,0.44775,1,1S31.55273,39,31,39z"/>
<path fill="#EF8EC3" d="M28,13h-8c-0.31836,0-0.61719-0.15137-0.80566-0.40723c-0.18848-0.25635-0.24414-0.58691-0.14941-0.89014
	l2.87988-9.24121C22.28809,1.54492,23.09277,1,24,1s1.71191,0.54492,2.04883,1.3877l2.90625,9.31494
	c0.09473,0.30322,0.03906,0.63379-0.14941,0.89014C28.61719,12.84863,28.31836,13,28,13z"/>
<path fill="#8680D8" d="M32,17H16c-1.10457,0-2-0.89543-2-2v-2c0-1.10457,0.89543-2,2-2h16c1.10457,0,2,0.89543,2,2v2
	C34,16.10457,33.10457,17,32,17z"/>
</svg>
