<?xml version="1.0" encoding="utf-8"?>
<!-- Generator: Adobe Illustrator 19.2.0, SVG Export Plug-In . SVG Version: 6.00 Build 0)  -->
<!DOCTYPE svg PUBLIC "-//W3C//DTD SVG 1.1//EN" "http://www.w3.org/Graphics/SVG/1.1/DTD/svg11.dtd">
<svg version="1.1" id="Layer_1" xmlns="http://www.w3.org/2000/svg" xmlns:xlink="http://www.w3.org/1999/xlink" x="0px" y="0px"
	 width="48px" height="48px" viewBox="0 0 48 48" enable-background="new 0 0 48 48" xml:space="preserve">
<path fill="#88C057" d="M23.99902,11c-0.50977,0-0.94531-0.3877-0.99414-0.90527c-0.41992-4.40527,1.2666-7.69434,4.62695-9.02441
	c0.5127-0.20117,1.09473,0.04785,1.29785,0.56152s-0.04785,1.09473-0.56152,1.29785
	c-3.21582,1.27246-3.6084,4.49609-3.37305,6.97559c0.05273,0.5498-0.35059,1.03809-0.90039,1.08984
	C24.06249,10.99902,24.03027,11,23.99902,11z"/>
<path fill="#5757B2" d="M24,47c-4.41072,0-8-3.58929-8-8s3.58928-8,8-8s8,3.58929,8,8S28.41072,47,24,47z"/>
<path fill="#8680D8" d="M12,25c-4.41071,0-8-3.58928-8-8s3.58929-8,8-8s8,3.58929,8,8S16.41072,25,12,25z"/>
<path fill="#8680D8" d="M36,25c-4.41072,0-8-3.58928-8-8s3.58928-8,8-8s8,3.58929,8,8S40.41071,25,36,25z"/>
<path fill="#5757B2" d="M24,25c-4.41072,0-8-3.58928-8-8s3.58928-8,8-8s8,3.58929,8,8S28.41072,25,24,25z"/>
<path fill="#5757B2" d="M30,36c-4.41072,0-8-3.58929-8-8s3.58928-8,8-8s8,3.58928,8,8S34.41071,36,30,36z"/>
<path fill="#8680D8" d="M18,36c-4.41071,0-8-3.58929-8-8s3.58929-8,8-8s8,3.58928,8,8S22.41072,36,18,36z"/>
</svg>
