<?xml version="1.0" encoding="utf-8"?>
<!-- Generator: Adobe Illustrator 19.2.0, SVG Export Plug-In . SVG Version: 6.00 Build 0)  -->
<!DOCTYPE svg PUBLIC "-//W3C//DTD SVG 1.1//EN" "http://www.w3.org/Graphics/SVG/1.1/DTD/svg11.dtd">
<svg version="1.1" id="Layer_1" xmlns="http://www.w3.org/2000/svg" xmlns:xlink="http://www.w3.org/1999/xlink" x="0px" y="0px"
	 width="48px" height="48px" viewBox="0 0 48 48" enable-background="new 0 0 48 48" xml:space="preserve">
<path fill="#B3B3B3" d="M44,17H20c-0.55273,0-1-0.44775-1-1v-6c0-0.55225,0.44727-1,1-1h24c0.55273,0,1,0.44775,1,1v6
	C45,16.55225,44.55273,17,44,17z"/>
<rect x="21" y="11" fill="#E6E6E6" width="22" height="5"/>
<path fill="#DDBE99" d="M9,47H5c-0.55273,0-1-0.44775-1-1V13.5625c0-0.55225,0.44727-1,1-1h4c0.55273,0,1,0.44775,1,1V46
	C10,46.55225,9.55273,47,9,47z"/>
<path fill="#335262" d="M45,47H19c-1.10457,0-2-0.89543-2-2V17c0-1.10457,0.89543-2,2-2h26c1.10457,0,2,0.89543,2,2v28
	C47,46.10457,46.10457,47,45,47z"/>
<path fill="#E86C60" d="M7,17C3.32812,17,1,9.96826,1,7c0-3.30859,2.69141-6,6-6s6,2.69141,6,6C13,9.96826,10.67188,17,7,17z"/>
<path fill="#E86C60" d="M32,38c-2.75684,0-5-2.24316-5-5c0-2.39941,3.47949-7.55859,4.17676-8.56836
	c0.375-0.54102,1.27148-0.54102,1.64648,0C33.52051,25.44141,37,30.60059,37,33C37,35.75684,34.75684,38,32,38z"/>
</svg>
