<?xml version="1.0" encoding="utf-8"?>
<!-- Generator: Adobe Illustrator 19.2.0, SVG Export Plug-In . SVG Version: 6.00 Build 0)  -->
<!DOCTYPE svg PUBLIC "-//W3C//DTD SVG 1.1//EN" "http://www.w3.org/Graphics/SVG/1.1/DTD/svg11.dtd">
<svg version="1.1" id="Layer_1" xmlns="http://www.w3.org/2000/svg" xmlns:xlink="http://www.w3.org/1999/xlink" x="0px" y="0px"
	 width="48px" height="48px" viewBox="0 0 48 48" enable-background="new 0 0 48 48" xml:space="preserve">
<path fill="#5B5B5B" d="M12,47c-1.6543,0-3-1.3457-3-3V22c0-0.55273,0.44727-1,1-1h4c0.55273,0,1,0.44727,1,1v22
	C15,45.6543,13.6543,47,12,47z"/>
<path fill="#C6C6C6" d="M12,23c-4.96289,0-9-4.03711-9-9v-4c0-4.96289,4.03711-9,9-9s9,4.03711,9,9v4C21,18.96289,16.96289,23,12,23
	z"/>
<path fill="#5B5B5B" d="M37,47c-1.6543,0-3-1.3457-3-3V30c0-0.55273,0.44727-1,1-1h4c0.55273,0,1,0.44727,1,1v14
	C40,45.6543,38.6543,47,37,47z"/>
<path fill="#C6C6C6" d="M39,31H29c-0.55273,0-1-0.44727-1-1V12c0-6.06543,4.93457-11,11-11c0.55273,0,1,0.44727,1,1v28
	C40,30.55273,39.55273,31,39,31z"/>
</svg>
