<?xml version="1.0" encoding="utf-8"?>
<!-- Generator: Adobe Illustrator 19.2.0, SVG Export Plug-In . SVG Version: 6.00 Build 0)  -->
<!DOCTYPE svg PUBLIC "-//W3C//DTD SVG 1.1//EN" "http://www.w3.org/Graphics/SVG/1.1/DTD/svg11.dtd">
<svg version="1.1" id="Layer_1" xmlns="http://www.w3.org/2000/svg" xmlns:xlink="http://www.w3.org/1999/xlink" x="0px" y="0px"
	 width="48px" height="48px" viewBox="0 0 48 48" enable-background="new 0 0 48 48" xml:space="preserve">
<path fill="#87613E" d="M43,24H5c-2.20917,0-4,1.79083-4,4c0,2.20911,1.79083,4,4,4h38c2.20917,0,4-1.79089,4-4
	C47,25.79083,45.20917,24,43,24z"/>
<path fill="#DDBE99" d="M42,20H6c-0.55225,0-1-0.44727-1-1c0-8.27148,6.729-15,15-15h8c8.271,0,15,6.72852,15,15
	C43,19.55273,42.55225,20,42,20z"/>
<path fill="#DDBE99" d="M34,44H14c-4.9624,0-9-4.03711-9-9c0-0.55273,0.44775-1.09961,1-1.09961h36c0.55225,0,1,0.44727,1,1
	C43,39.96289,38.9624,44,34,44z"/>
<path fill="#EFD358" d="M32,30l-6.30273-6H3c-1.10457,0-2-0.89543-2-2v0c0-1.10457,0.89543-2,2-2H45c1.10457,0,2,0.89543,2,2v0
	c0,1.10457-0.89543,2-2,2h-7L32,30z"/>
<path fill="#4DA34D" d="M45,32H3c-1.10457,0-2,0.89543-2,2V34c0,1.10457,0.89543,2,2,2H45c1.10457,0,2-0.89543,2-2V34
	C47,32.89543,46.10457,32,45,32z"/>
</svg>
