<?xml version="1.0" encoding="utf-8"?>
<!-- Generator: Adobe Illustrator 19.2.0, SVG Export Plug-In . SVG Version: 6.00 Build 0)  -->
<!DOCTYPE svg PUBLIC "-//W3C//DTD SVG 1.1//EN" "http://www.w3.org/Graphics/SVG/1.1/DTD/svg11.dtd">
<svg version="1.1" id="Layer_1" xmlns="http://www.w3.org/2000/svg" xmlns:xlink="http://www.w3.org/1999/xlink" x="0px" y="0px"
	 width="48px" height="48px" viewBox="0 0 48 48" enable-background="new 0 0 48 48" xml:space="preserve">
<path fill="#E6E6E6" d="M47,20c0-6.06543-4.93457-11-11-11c-0.47559,0-0.94098,0.04053-1.40082,0.09937
	C33.32184,4.43903,29.06018,1,24,1s-9.32184,3.43903-10.59918,8.09937C12.94098,9.04053,12.47559,9,12,9C5.93457,9,1,13.93457,1,20
	c0,5.72791,4.4021,10.44183,10,10.94934V46c0,0.55273,0.44775,1,1,1h24c0.55225,0,1-0.44727,1-1V30.94934
	C42.5979,30.44183,47,25.72791,47,20z"/>
<path fill="#B3B3B3" d="M25,39v-7c0-0.55273-0.44775-1-1-1s-1,0.44727-1,1v7H11v2h26v-2H25z"/>
</svg>
