<?xml version="1.0" encoding="utf-8"?>
<!-- Generator: Adobe Illustrator 19.2.0, SVG Export Plug-In . SVG Version: 6.00 Build 0)  -->
<!DOCTYPE svg PUBLIC "-//W3C//DTD SVG 1.1//EN" "http://www.w3.org/Graphics/SVG/1.1/DTD/svg11.dtd">
<svg version="1.1" id="Layer_1" xmlns="http://www.w3.org/2000/svg" xmlns:xlink="http://www.w3.org/1999/xlink" x="0px" y="0px"
	 width="48px" height="48px" viewBox="0 0 48 48" enable-background="new 0 0 48 48" xml:space="preserve">
<path fill="#919191" d="M32,21H21c-0.55228,0-1,0.44772-1,1v8c0,0.55228,0.44772,1,1,1h14c0.55228,0,1-0.44772,1-1v-5
	C36,22.79086,34.20914,21,32,21z"/>
<path fill="#E6E6E6" d="M42,27H15V4c0-0.55225-0.44727-1-1-1h-4C7.24316,3,5,5.24316,5,8v16c0,2.75684,2.24316,5,5,5h3v13
	c0,2.75684,2.24316,5,5,5h20c2.75684,0,5-2.24316,5-5V28C43,27.44775,42.55273,27,42,27z"/>
<path fill="#B3B3B3" d="M42,29H14c-0.55273,0-1-0.44775-1-1s0.44727-1,1-1h28c0.55273,0,1,0.44775,1,1S42.55273,29,42,29z"/>
<path fill="#B3B3B3" d="M14,29c-0.55273,0-1-0.44775-1-1V4c0-0.55225,0.44727-1,1-1s1,0.44775,1,1v24C15,28.55225,14.55273,29,14,29
	z"/>
<path fill="#E86C60" d="M28,16.97412c-2.75684,0-5-2.24316-5-5c0-2.39941,3.47949-7.55859,4.17676-8.56836
	c0.375-0.54102,1.27148-0.54102,1.64648,0C29.52051,4.41553,33,9.57471,33,11.97412C33,14.73096,30.75684,16.97412,28,16.97412z"/>
</svg>
