<?xml version="1.0" encoding="utf-8"?>
<!-- Generator: Adobe Illustrator 19.2.0, SVG Export Plug-In . SVG Version: 6.00 Build 0)  -->
<!DOCTYPE svg PUBLIC "-//W3C//DTD SVG 1.1//EN" "http://www.w3.org/Graphics/SVG/1.1/DTD/svg11.dtd">
<svg version="1.1" id="Layer_1" xmlns="http://www.w3.org/2000/svg" xmlns:xlink="http://www.w3.org/1999/xlink" x="0px" y="0px"
	 width="48px" height="48px" viewBox="0 0 48 48" enable-background="new 0 0 48 48" xml:space="preserve">
<path fill="#8680D8" d="M46,31c-0.17773,0-0.35645-0.04736-0.51465-0.14258l-10-6C35.18457,24.67676,35,24.35107,35,24
	s0.18457-0.67676,0.48535-0.85742l10-6c0.30859-0.18652,0.69336-0.19043,1.00781-0.0127C46.80664,17.30713,47,17.63965,47,18v12
	c0,0.36035-0.19336,0.69287-0.50684,0.87012C46.33984,30.95703,46.16992,31,46,31z"/>
<path fill="#8680D8" d="M2,31c-0.16992,0-0.33984-0.04297-0.49316-0.12988C1.19336,30.69287,1,30.36035,1,30V18
	c0-0.36035,0.19336-0.69287,0.50684-0.87012c0.31445-0.17773,0.69824-0.17383,1.00781,0.0127l10,6
	C12.81543,23.32324,13,23.64893,13,24s-0.18457,0.67676-0.48535,0.85742l-10,6C2.35645,30.95264,2.17773,31,2,31z"/>
<path fill="#C64692" d="M24,35c-9.17969,0-12.79688-10.23975-12.94629-10.67578c-0.07324-0.21338-0.07129-0.44482,0.00391-0.65771
	C11.21094,23.23096,14.93359,13,24,13c8.9541,0,12.78125,10.22266,12.93945,10.65771c0.07812,0.21484,0.08105,0.4502,0.00684,0.6665
	C36.79688,24.76025,33.17969,35,24,35z"/>
</svg>
