<?xml version="1.0" encoding="utf-8"?>
<!-- Generator: Adobe Illustrator 19.2.0, SVG Export Plug-In . SVG Version: 6.00 Build 0)  -->
<!DOCTYPE svg PUBLIC "-//W3C//DTD SVG 1.1//EN" "http://www.w3.org/Graphics/SVG/1.1/DTD/svg11.dtd">
<svg version="1.1" id="Layer_1" xmlns="http://www.w3.org/2000/svg" xmlns:xlink="http://www.w3.org/1999/xlink" x="0px" y="0px"
	 width="48px" height="48px" viewBox="0 0 48 48" enable-background="new 0 0 48 48" xml:space="preserve">
<path fill="#E86C60" d="M30,15.00098c-0.10449,0-0.21094-0.0166-0.31641-0.05176c-0.52344-0.17383-0.80664-0.74023-0.63184-1.26465
	L32.5957,3.05078C33.00488,1.82422,34.14844,1,35.44141,1H42c0.55273,0,1,0.44727,1,1s-0.44727,1-1,1h-6.55859
	c-0.43066,0-0.8125,0.27441-0.94922,0.68359l-3.54395,10.63379C30.80859,14.73633,30.41895,15.00098,30,15.00098z"/>
<path fill="#458BC4" d="M34,47H14c-0.50684,0-0.93359-0.37988-0.99316-0.88281l-4-34
	c-0.0332-0.28418,0.05565-0.56836,0.24609-0.78125C9.44238,11.12207,9.71484,11,10,11h28c0.28516,0,0.55762,0.12207,0.74707,0.33594
	c0.19041,0.21289,0.2793,0.49707,0.24609,0.78125l-4,34C34.93359,46.62012,34.50684,47,34,47z"/>
<path fill="#E6E6E6" d="M40,14H8c-0.55228,0-1-0.44771-1-1v-2c0-0.55229,0.44772-1,1-1h32c0.55228,0,1,0.44771,1,1v2
	C41,13.55229,40.55228,14,40,14z"/>
<circle fill="#FFFFFF" cx="24" cy="30" r="6"/>
</svg>
