<?xml version="1.0" encoding="utf-8"?>
<!-- Generator: Adobe Illustrator 19.2.0, SVG Export Plug-In . SVG Version: 6.00 Build 0)  -->
<!DOCTYPE svg PUBLIC "-//W3C//DTD SVG 1.1//EN" "http://www.w3.org/Graphics/SVG/1.1/DTD/svg11.dtd">
<svg version="1.1" id="Layer_1" xmlns="http://www.w3.org/2000/svg" xmlns:xlink="http://www.w3.org/1999/xlink" x="0px" y="0px"
	 width="48px" height="48px" viewBox="0 0 48 48" enable-background="new 0 0 48 48" xml:space="preserve">
<path fill="#BFDEE0" d="M24,31c-9.37402,0-17-7.62598-17-17V2c0-0.55273,0.44727-1,1-1h32c0.55273,0,1,0.44727,1,1v12
	C41,23.37402,33.37402,31,24,31z"/>
<path fill="#BFDEE0" d="M24,47c-0.55273,0-1-0.44727-1-1V30c0-0.55273,0.44727-1,1-1s1,0.44727,1,1v16
	C25,46.55273,24.55273,47,24,47z"/>
<path fill="#BFDEE0" d="M34,47H14c-0.55273,0-1-0.44727-1-1s0.44727-1,1-1h20c0.55273,0,1,0.44727,1,1S34.55273,47,34,47z"/>
<path fill="#C94F49" d="M9,12v2c0,8.27148,6.72852,15,15,15s15-6.72852,15-15v-2H9z"/>
</svg>
