<?xml version="1.0" encoding="utf-8"?>
<!-- Generator: Adobe Illustrator 19.2.0, SVG Export Plug-In . SVG Version: 6.00 Build 0)  -->
<!DOCTYPE svg PUBLIC "-//W3C//DTD SVG 1.1//EN" "http://www.w3.org/Graphics/SVG/1.1/DTD/svg11.dtd">
<svg version="1.1" id="Layer_1" xmlns="http://www.w3.org/2000/svg" xmlns:xlink="http://www.w3.org/1999/xlink" x="0px" y="0px"
	 width="48px" height="48px" viewBox="0 0 48 48" enable-background="new 0 0 48 48" xml:space="preserve">
<path fill="#B3B3B3" d="M11.99902,47c-0.14697,0-0.2959-0.03223-0.43701-0.10107c-0.49658-0.2417-0.70312-0.84033-0.46094-1.33691
	l3.7998-7.7998c0.24121-0.49707,0.83838-0.70459,1.33691-0.46094c0.49658,0.2417,0.70312,0.84033,0.46094,1.33691l-3.7998,7.7998
	C12.72559,46.79346,12.36963,47,11.99902,47z"/>
<path fill="#B3B3B3" d="M36.00098,47c-0.37061,0-0.72656-0.20654-0.8999-0.56201l-3.7998-7.7998
	c-0.24219-0.49658-0.03564-1.09521,0.46094-1.33691c0.49707-0.24316,1.09473-0.03564,1.33691,0.46094l3.7998,7.7998
	c0.24219,0.49658,0.03564,1.09521-0.46094,1.33691C36.29688,46.96777,36.14746,47,36.00098,47z"/>
<path fill="#B3B3B3" d="M28,10c-0.55225,0-1-0.44775-1-1V6c0-1.6543-1.3457-3-3-3s-3,1.3457-3,3v3c0,0.55225-0.44775,1-1,1
	s-1-0.44775-1-1V6c0-2.75684,2.24316-5,5-5s5,2.24316,5,5v3C29,9.55225,28.55225,10,28,10z"/>
<path fill="#E6E6E6" d="M38.33398,11.29688C34.2417,8.52588,29.15088,7,24,7C12.13965,7,4.06592,14.5708,3.01953,19.80371
	c-0.05908,0.29395,0.01709,0.59863,0.20703,0.83008C3.4165,20.86572,3.7002,21,4,21h40c0.29736,0,0.57959-0.13232,0.76953-0.36133
	s0.26807-0.53076,0.21338-0.82275C44.44287,16.93457,41.95703,13.75,38.33398,11.29688z"/>
<path fill="#5B5B5B" d="M24,41C12.42041,41,3,31.57959,3,20c0-0.55225,0.44775-1,1-1h40c0.55225,0,1,0.44775,1,1
	C45,31.57959,35.57959,41,24,41z"/>
<path fill="#B3B3B3" d="M29,27H19c-0.55225,0-1-0.44775-1-1s0.44775-1,1-1h10c0.55225,0,1,0.44775,1,1S29.55225,27,29,27z"/>
<path fill="#B3B3B3" d="M46,21H2c-0.55225,0-1-0.44775-1-1s0.44775-1,1-1h44c0.55225,0,1,0.44775,1,1S46.55225,21,46,21z"/>
</svg>
