<?xml version="1.0" encoding="utf-8"?>
<!-- Generator: Adobe Illustrator 19.2.0, SVG Export Plug-In . SVG Version: 6.00 Build 0)  -->
<!DOCTYPE svg PUBLIC "-//W3C//DTD SVG 1.1//EN" "http://www.w3.org/Graphics/SVG/1.1/DTD/svg11.dtd">
<svg version="1.1" id="Layer_1" xmlns="http://www.w3.org/2000/svg" xmlns:xlink="http://www.w3.org/1999/xlink" x="0px" y="0px"
	 width="48px" height="48px" viewBox="0 0 48 48" enable-background="new 0 0 48 48" xml:space="preserve">
<path fill="#A67C52" d="M33.89949,8.44365l5.27208-5.27208c1.5621-1.5621,4.09475-1.5621,5.65685,0l0.00001,0.00001
	c1.56209,1.5621,1.56209,4.09475,0,5.65685l-5.27208,5.27208L33.89949,8.44365z"/>
<path fill="#A67C52" d="M14.1005,39.55635l-5.27208,5.27208c-1.5621,1.56209-4.09475,1.56209-5.65685,0l-0.00001-0.00001
	c-1.5621-1.5621-1.5621-4.09475,0-5.65685l5.27208-5.27208L14.1005,39.55635z"/>
<path fill="#C19F85" d="M15.51465,41.14209c-0.80127,0-1.55469-0.31201-2.12109-0.87891h-0.00049l-5.65625-5.65674
	c-0.56689-0.56641-0.87891-1.31982-0.87891-2.12109s0.31201-1.55469,0.87891-2.12158L30.36426,7.73682
	c1.13281-1.13379,3.10889-1.13379,4.24268,0l5.65625,5.65674c0.56689,0.56641,0.87891,1.31982,0.87891,2.12109
	s-0.31201,1.55469-0.87891,2.12158L17.63574,40.26318C17.06934,40.83008,16.31592,41.14209,15.51465,41.14209z"/>
</svg>
