<?xml version="1.0" encoding="utf-8"?>
<!-- Generator: Adobe Illustrator 19.2.0, SVG Export Plug-In . SVG Version: 6.00 Build 0)  -->
<!DOCTYPE svg PUBLIC "-//W3C//DTD SVG 1.1//EN" "http://www.w3.org/Graphics/SVG/1.1/DTD/svg11.dtd">
<svg version="1.1" id="Layer_1" xmlns="http://www.w3.org/2000/svg" xmlns:xlink="http://www.w3.org/1999/xlink" x="0px" y="0px"
	 width="48px" height="48px" viewBox="0 0 48 48" enable-background="new 0 0 48 48" xml:space="preserve">
<path fill="#E6E6E6" d="M39.19482,45H8.80518c-2.66699,0-4.86084-2.08594-4.99365-4.75L2.00146,4.0498
	C1.98779,3.77637,2.08691,3.50879,2.27539,3.31055C2.46436,3.1123,2.72607,3,3,3h42c0.27393,0,0.53564,0.1123,0.72461,0.31055
	c0.18848,0.19824,0.2876,0.46582,0.27393,0.73926L44.18848,40.25C44.05566,42.91406,41.86182,45,39.19482,45z"/>
<path fill="#EFD358" d="M5.20148,28l0.6076,12.15039C5.88867,41.74805,7.20459,43,8.80518,43h30.38965
	c1.60059,0,2.9165-1.25195,2.99609-2.84961L42.79852,28H5.20148z"/>
<path fill="#B3B3B3" d="M37.55103,27.15314L27.53857,20.5387c-0.46082-0.30438-1.08093-0.17798-1.38562,0.2832L21.41101,28h16.57062
	C37.98523,27.67163,37.8454,27.3476,37.55103,27.15314z"/>
<path fill="#C19A3A" d="M21.41101,28l-1.87244,2.83435c-0.30469,0.46118-0.17761,1.08118,0.28314,1.38556l10.01245,6.61444
	c0.46082,0.30438,1.08093,0.17804,1.38556-0.28314l6.61444-10.01251c0.11005-0.16656,0.14545-0.35309,0.14746-0.5387H21.41101z"/>
<path fill="#C6C6C6" d="M22.77002,19.92303c-0.21265-0.51019-0.79797-0.75085-1.30774-0.53845L10.38538,24
	c-0.50977,0.2124-0.75104,0.79749-0.53845,1.30768L10.96875,28h15.16663L22.77002,19.92303z"/>
<path fill="#D8BC48" d="M26.13538,28H10.96875l3.49353,8.38458c0.21259,0.51025,0.79797,0.75085,1.30774,0.53845l11.0769-4.61536
	c0.50977-0.2124,0.75104-0.79749,0.53845-1.30768L26.13538,28z"/>
</svg>
