<?xml version="1.0" encoding="utf-8"?>
<!-- Generator: Adobe Illustrator 19.2.0, SVG Export Plug-In . SVG Version: 6.00 Build 0)  -->
<!DOCTYPE svg PUBLIC "-//W3C//DTD SVG 1.1//EN" "http://www.w3.org/Graphics/SVG/1.1/DTD/svg11.dtd">
<svg version="1.1" id="Layer_1" xmlns="http://www.w3.org/2000/svg" xmlns:xlink="http://www.w3.org/1999/xlink" x="0px" y="0px"
	 width="48px" height="48px" viewBox="0 0 48 48" enable-background="new 0 0 48 48" xml:space="preserve">
<path fill="#C6A279" d="M36,47H12c-0.45508,0-0.85254-0.30762-0.96777-0.74805l-6-23
	c-0.07812-0.29883-0.0127-0.61816,0.17627-0.86328C5.39795,22.14355,5.69043,22,6,22h36c0.30957,0,0.60205,0.14355,0.7915,0.38867
	c0.18896,0.24512,0.25439,0.56445,0.17627,0.86328l-6,23C36.85254,46.69238,36.45508,47,36,47z"/>
<path fill="#A67C52" d="M24,27c-3.32617,0-6.53906-1.29785-8.94873-3.58984C13.54492,24.45312,11.81592,25,10,25
	c-4.9624,0-9-4.03711-9-9s4.0376-9,9-9c0.94531,0,1.87793,0.15137,2.7832,0.4502C15.11182,3.44922,19.33105,1,24,1
	c4.66992,0,8.88867,2.44922,11.2168,6.4502C36.12256,7.15137,37.05518,7,38,7c4.9624,0,9,4.03711,9,9s-4.0376,9-9,9
	c-1.81592,0-3.54492-0.54688-5.05127-1.58984C30.53906,25.70215,27.32617,27,24,27z"/>
<path fill="#5E4027" d="M19,17c-0.25586,0-0.51172-0.09766-0.70703-0.29297l-2-2c-0.39062-0.39062-0.39062-1.02344,0-1.41406
	s1.02344-0.39062,1.41406,0l2,2c0.39062,0.39062,0.39062,1.02344,0,1.41406C19.51172,16.90234,19.25586,17,19,17z"/>
<path fill="#5E4027" d="M32,17c-0.25586,0-0.51172-0.09766-0.70703-0.29297l-2-2c-0.39062-0.39062-0.39062-1.02344,0-1.41406
	s1.02344-0.39062,1.41406,0l2,2c0.39062,0.39062,0.39062,1.02344,0,1.41406C32.51172,16.90234,32.25586,17,32,17z"/>
<path fill="#5E4027" d="M23,11c-0.25586,0-0.51172-0.09766-0.70703-0.29297c-0.39062-0.39062-0.39062-1.02344,0-1.41406l2-2
	c0.39062-0.39062,1.02344-0.39062,1.41406,0s0.39062,1.02344,0,1.41406l-2,2C23.51172,10.90234,23.25586,11,23,11z"/>
<path fill="#5E4027" d="M39,20c-0.25586,0-0.51172-0.09766-0.70703-0.29297c-0.39062-0.39062-0.39062-1.02344,0-1.41406l2-2
	c0.39062-0.39062,1.02344-0.39062,1.41406,0s0.39062,1.02344,0,1.41406l-2,2C39.51172,19.90234,39.25586,20,39,20z"/>
<path fill="#5E4027" d="M8,16c-0.25586,0-0.51172-0.09766-0.70703-0.29297c-0.39062-0.39062-0.39062-1.02344,0-1.41406l2-2
	c0.39062-0.39062,1.02344-0.39062,1.41406,0s0.39062,1.02344,0,1.41406l-2,2C8.51172,15.90234,8.25586,16,8,16z"/>
<path fill="#A67C52" d="M24,31L24,31c-0.55229,0-1,0.44771-1,1v14c0,0.55228,0.44771,1,1,1h0c0.55228,0,1-0.44772,1-1V32
	C25,31.44772,24.55229,31,24,31z"/>
<path fill="#A67C52" d="M31.00146,47c-0.04736,0-0.09473-0.00293-0.14307-0.00977c-0.54639-0.07812-0.92627-0.58496-0.84814-1.13184
	l2-14c0.07812-0.54785,0.5791-0.93066,1.13135-0.84863c0.54639,0.07812,0.92627,0.58496,0.84814,1.13184l-2,14
	C31.91846,46.64062,31.49072,47,31.00146,47z"/>
<path fill="#A67C52" d="M16.99854,47c-0.48926,0-0.91699-0.35938-0.98828-0.8584l-2-14
	c-0.07812-0.54688,0.30176-1.05371,0.84814-1.13184c0.55225-0.07715,1.05322,0.30176,1.13135,0.84863l2,14
	c0.07812,0.54688-0.30176,1.05371-0.84814,1.13184C17.09326,46.99707,17.0459,47,16.99854,47z"/>
</svg>
