<?xml version="1.0" encoding="utf-8"?>
<!-- Generator: Adobe Illustrator 19.2.0, SVG Export Plug-In . SVG Version: 6.00 Build 0)  -->
<!DOCTYPE svg PUBLIC "-//W3C//DTD SVG 1.1//EN" "http://www.w3.org/Graphics/SVG/1.1/DTD/svg11.dtd">
<svg version="1.1" id="Layer_1" xmlns="http://www.w3.org/2000/svg" xmlns:xlink="http://www.w3.org/1999/xlink" x="0px" y="0px"
	 width="48px" height="48px" viewBox="0 0 48 48" enable-background="new 0 0 48 48" xml:space="preserve">
<path fill="#EA9860" d="M27,28v15.85352C35.88245,42.92676,42.93787,35.87891,43.87628,27H28C27.44772,27,27,27.44772,27,28z"/>
<path fill="#DDBE99" d="M43.87463,27C42.93652,35.88025,35.8811,42.92816,27,43.8551v2.91485
	c0,0.59612,0.52041,1.07493,1.11121,0.99552c10.21573-1.37308,18.29032-9.43987,19.6746-19.65322
	C47.86593,27.52112,47.38697,27,46.79043,27H43.87463z"/>
<path fill="#DDBE99" d="M23,0C10.29749,0,0,10.29742,0,23c0,12.70251,10.29749,23,23,23c0.55225,0,1-0.44727,1-1v-4
	c0,0.54144-0.43347,0.99927-0.97491,0.99994c-0.00848,0-0.0166-0.00128-0.02509-0.00128
	C12.27234,41.99847,3.5921,33.0625,4.01483,22.24261c0.38245-9.79034,8.4375-17.84534,18.22778-18.22778
	C33.06256,3.5921,41.9986,12.27216,41.99872,23c0,0.00842,0.00128,0.0166,0.00128,0.02502C41.99927,23.56653,41.54144,24,41,24h4
	c0.55225,0,1-0.44727,1-1C46,10.29742,35.70258,0,23,0z"/>
<path fill="#EA9860" d="M42,23.02502c0-0.00842-0.00128-0.0166-0.00128-0.02502
	C41.99859,11.80815,32.27283,2.84506,20.82863,4.12135C12.12632,5.09186,5.09222,12.12574,4.12142,20.82801
	C2.84472,32.27242,11.80813,41.99847,23,41.99866c0.00848,0,0.0166,0.00128,0.02509,0.00128C23.56653,41.99927,24,41.54144,24,41V25
	c0-0.55228,0.44772-1,1-1h16C41.54144,24,41.99927,23.56653,42,23.02502z"/>
<circle fill="#C94F49" cx="14" cy="18" r="5"/>
<circle fill="#C94F49" cx="31" cy="15" r="3"/>
<path fill="#C94F49" d="M24,31.14142C23.67859,31.05817,23.34741,31,23,31c-2.20911,0-4,1.79083-4,4c0,2.20911,1.79089,4,4,4
	c0.34741,0,0.67859-0.05817,1-0.14142V31.14142z"/>
<path fill="#C94F49" d="M27,33v8c2.20911,0,4-1.79089,4-4C31,34.79083,29.20911,33,27,33z"/>
</svg>
