<?xml version="1.0" encoding="utf-8"?>
<!-- Generator: Adobe Illustrator 19.2.0, SVG Export Plug-In . SVG Version: 6.00 Build 0)  -->
<!DOCTYPE svg PUBLIC "-//W3C//DTD SVG 1.1//EN" "http://www.w3.org/Graphics/SVG/1.1/DTD/svg11.dtd">
<svg version="1.1" id="Layer_1" xmlns="http://www.w3.org/2000/svg" xmlns:xlink="http://www.w3.org/1999/xlink" x="0px" y="0px"
	 width="48px" height="48px" viewBox="0 0 48 48" enable-background="new 0 0 48 48" xml:space="preserve">
<path fill="#C19F85" d="M41,47H7c-1.10457,0-2-0.89543-2-2V6c0-1.10457,0.89543-2,2-2h34c1.10457,0,2,0.89543,2,2v39
	C43,46.10457,42.10457,47,41,47z"/>
<path fill="#87613E" d="M24,9c-0.55273,0-1-0.44775-1-1V2c0-0.55225,0.44727-1,1-1s1,0.44775,1,1v6C25,8.55225,24.55273,9,24,9z"/>
<path fill="#87613E" d="M14,9c-0.55273,0-1-0.44775-1-1V2c0-0.55225,0.44727-1,1-1s1,0.44775,1,1v6C15,8.55225,14.55273,9,14,9z"/>
<path fill="#87613E" d="M34,9c-0.55273,0-1-0.44775-1-1V2c0-0.55225,0.44727-1,1-1s1,0.44775,1,1v6C35,8.55225,34.55273,9,34,9z"/>
<path fill="#F2E9E4" d="M29,15c-0.55273,0-1,0.44775-1,1v7c0,0.55225-0.44769,1-1,1h-1c-0.55231,0-1-0.44775-1-1v-7
	c0-0.55225-0.44727-1-1-1s-1,0.44775-1,1v7c0,0.55225-0.44769,1-1,1h-1c-0.55231,0-1-0.44775-1-1v-7c0-0.55225-0.44727-1-1-1
	s-1,0.44775-1,1v7v1c0,2.41888,1.71783,4.43585,4,4.89923V40c0,1.10455,0.89545,2,2,2s2-0.89545,2-2V28.89923
	c2.28217-0.46338,4-2.48035,4-4.89923v-1v-7C30,15.44775,29.55273,15,29,15z"/>
</svg>
