<?xml version="1.0" encoding="utf-8"?>
<!-- Generator: Adobe Illustrator 20.0.0, SVG Export Plug-In . SVG Version: 6.00 Build 0)  -->
<!DOCTYPE svg PUBLIC "-//W3C//DTD SVG 1.1//EN" "http://www.w3.org/Graphics/SVG/1.1/DTD/svg11.dtd">
<svg version="1.1" id="Layer_1" xmlns="http://www.w3.org/2000/svg" xmlns:xlink="http://www.w3.org/1999/xlink" x="0px" y="0px"
	 width="48px" height="48px" viewBox="0 0 48 48" enable-background="new 0 0 48 48" xml:space="preserve">
<path d="M30.063,22.21c-0.132,0-0.491,0.047-0.888,0.463v3.495c0.189,0.094,0.397,0.142,0.633,0.142c0.34,0,0.633-0.189,0.822-0.548
	c0.217-0.378,0.321-0.935,0.321-1.653C30.951,22.852,30.658,22.21,30.063,22.21z"/>
<path d="M36.958,22.012c-0.538,0-0.822,0.491-0.888,1.54h1.729C37.761,22.512,37.487,22.012,36.958,22.012z"/>
<path d="M43,7H5c-2.206,0-4,1.794-4,4v26c0,2.206,1.794,4,4,4h38c2.206,0,4-1.794,4-4V11C47,8.794,45.206,7,43,7z M12.638,27.481
	c-0.472,0.378-1.171,0.576-2.012,0.576c-1.058,0-2.078-0.321-2.626-0.633l0.283-1.766c0.642,0.378,1.625,0.671,2.22,0.671
	c0.482,0,0.746-0.18,0.746-0.491c0-0.321-0.274-0.529-1.096-0.822c-1.275-0.463-2.059-1.011-2.059-2.295
	c0-0.708,0.255-1.294,0.746-1.7c0.472-0.387,1.134-0.595,1.927-0.595c1.124,0,1.936,0.312,2.333,0.501l-0.283,1.748
	c-0.501-0.246-1.228-0.52-1.936-0.52c-0.387,0-0.605,0.151-0.605,0.416c0,0.312,0.378,0.51,1.067,0.765
	c1.294,0.463,2.097,1.011,2.097,2.324C13.441,26.451,13.167,27.065,12.638,27.481z M17.503,26.149c0.217,0,0.538-0.066,0.68-0.104
	v1.842c-0.255,0.066-0.623,0.17-1.228,0.17c-0.784,0-1.341-0.151-1.729-0.463c-0.463-0.378-0.69-0.992-0.69-1.88v-3.41h-0.969
	l0.265-1.623l0.707-0.115l0.29-1.779l2.011-0.331v2.11h1.496l-0.283,1.738h-1.213v3.07C16.842,25.913,17.04,26.149,17.503,26.149z
	 M22.991,22.685c-0.161-0.028-0.293-0.028-0.416-0.028c-0.567,0-0.982,0.13-1.275,0.489v4.77h-2.343v-7.349h2.05l0.142,0.869
	c0.208-0.623,0.737-0.971,1.398-0.971c0.142,0,0.283,0.019,0.444,0.057V22.685z M25.91,27.915h-2.352v-7.349h2.352V27.915z
	 M24.739,19.839c-0.69,0-1.237-0.557-1.237-1.237c0-0.69,0.548-1.237,1.237-1.237c0.68,0,1.228,0.548,1.228,1.237
	C25.967,19.282,25.419,19.839,24.739,19.839z M32.33,27.188c-0.661,0.718-1.511,0.869-2.097,0.869c-0.331,0-0.699-0.057-1.058-0.17
	v2.362l-2.343,0.387v-10.07h2.059l0.123,0.737c0.557-0.595,1.152-0.878,1.833-0.878c0.737,0,1.313,0.264,1.729,0.803
	c0.472,0.605,0.708,1.549,0.708,2.796C33.284,25.431,32.963,26.498,32.33,27.188z M39.972,24.987h-3.882
	c0.047,0.482,0.189,0.822,0.435,1.03c0.227,0.198,0.538,0.293,0.992,0.293c0.756,0,1.426-0.17,2.003-0.482l0.255,1.606
	c-0.586,0.387-1.511,0.623-2.513,0.623c-1.086,0-1.927-0.283-2.513-0.85c-0.652-0.633-0.982-1.625-0.982-2.947
	c0-2.362,1.237-3.835,3.231-3.835c0.973,0,1.738,0.34,2.248,1.001C39.745,22.078,40,23.003,40,24.175
	C40,24.345,39.981,24.874,39.972,24.987z"/>
</svg>
