<?xml version="1.0" encoding="utf-8"?>
<!-- Generator: Adobe Illustrator 20.0.0, SVG Export Plug-In . SVG Version: 6.00 Build 0)  -->
<!DOCTYPE svg PUBLIC "-//W3C//DTD SVG 1.1//EN" "http://www.w3.org/Graphics/SVG/1.1/DTD/svg11.dtd">
<svg version="1.1" id="Layer_1" xmlns="http://www.w3.org/2000/svg" xmlns:xlink="http://www.w3.org/1999/xlink" x="0px" y="0px"
	 width="48px" height="48px" viewBox="0 0 48 48" enable-background="new 0 0 48 48" xml:space="preserve">
<path d="M7.421,22.093H7.121v3.798h0.301c0.725,0,1.178-0.139,1.535-0.457c0.385-0.343,0.617-0.894,0.617-1.448
	c0-0.551-0.232-1.083-0.617-1.429C8.582,22.223,8.146,22.093,7.421,22.093z"/>
<path d="M39.272,22.025h-0.343v1.737h0.325c0.718,0,1.093-0.309,1.093-0.884C40.347,22.318,39.972,22.025,39.272,22.025z"/>
<path d="M43,7H5c-2.206,0-4,1.794-4,4v26c0,2.206,1.794,4,4,4h38c2.206,0,4-1.794,4-4V11C47,8.794,45.206,7,43,7z M9.686,26.2
	c-0.551,0.457-1.179,0.664-2.05,0.664H6v-5.744h1.646c1.816,0,3.082,1.178,3.082,2.873C10.728,24.841,10.34,25.658,9.686,26.2z
	 M12.361,26.864h-1.116v-5.744h1.116V26.864z M14.775,27.003c-0.853,0-1.471-0.338-1.988-1.094l0.722-0.7
	c0.258,0.501,0.689,0.768,1.222,0.768c0.5,0,0.871-0.343,0.871-0.811c0-0.24-0.112-0.447-0.335-0.592
	c-0.113-0.071-0.336-0.175-0.776-0.328c-1.051-0.382-1.411-0.785-1.411-1.579c0-0.935,0.775-1.642,1.791-1.642
	c0.628,0,1.205,0.215,1.686,0.638l-0.583,0.764c-0.294-0.328-0.571-0.462-0.906-0.462c-0.484,0-0.836,0.274-0.836,0.635
	c0,0.31,0.197,0.475,0.871,0.722c1.274,0.466,1.654,0.88,1.654,1.794C16.757,26.224,15.937,27.003,14.775,27.003z M21.543,22.66
	c-0.465-0.458-0.871-0.646-1.402-0.646c-1.053,0-1.878,0.871-1.878,1.972c0,1.164,0.799,1.98,1.927,1.98
	c0.51,0,0.904-0.178,1.353-0.629v1.32c-0.508,0.24-0.921,0.335-1.402,0.335c-1.707,0-3.032-1.309-3.032-2.998
	c0-1.669,1.359-3.003,3.055-3.003c0.485,0,0.888,0.103,1.379,0.351V22.66z M25.029,26.992c-1.75,0-3.062-1.294-3.062-3.028
	c0-1.63,1.372-2.951,3.062-2.951c1.718,0,3.054,1.312,3.054,2.984C28.084,25.679,26.737,26.992,25.029,26.992z M30.9,27.009h-0.601
	l-2.435-5.888h1.221l1.532,3.856l1.553-3.856h1.211L30.9,27.009z M37.066,22.093h-2.056v1.274h1.977v0.973h-1.977v1.55h2.056v0.973
	H33.89v-5.744h3.176V22.093z M40.622,26.864l-1.547-2.309h-0.146v2.309h-1.123v-5.744h1.664c1.293,0,2.031,0.619,2.031,1.695
	c0,0.879-0.463,1.456-1.308,1.628L42,26.864H40.622z"/>
</svg>
