<?xml version="1.0" encoding="utf-8"?>
<!-- Generator: Adobe Illustrator 20.0.0, SVG Export Plug-In . SVG Version: 6.00 Build 0)  -->
<!DOCTYPE svg PUBLIC "-//W3C//DTD SVG 1.1//EN" "http://www.w3.org/Graphics/SVG/1.1/DTD/svg11.dtd">
<svg version="1.1" id="Layer_1" xmlns="http://www.w3.org/2000/svg" xmlns:xlink="http://www.w3.org/1999/xlink" x="0px" y="0px"
	 width="48px" height="48px" viewBox="0 0 48 48" enable-background="new 0 0 48 48" xml:space="preserve">
<path d="M43,7H5c-2.206,0-4,1.794-4,4v26c0,2.206,1.794,4,4,4h38c2.206,0,4-1.794,4-4V11C47,8.794,45.206,7,43,7z M18,26
	c0,0.552-0.448,1-1,1s-1-0.448-1-1v-4c0-0.552,0.448-1,1-1s1,0.448,1,1V26z M29,29c0,0.552-0.448,1-1,1h-1v2c0,0.552-0.448,1-1,1
	s-1-0.448-1-1v-2h-2v2c0,0.552-0.448,1-1,1s-1-0.448-1-1v-2h-1c-0.552,0-1-0.448-1-1v-8h10V29z M19,20
	c0-1.555,0.724-2.926,1.837-3.843l-1.253-1.88c-0.153-0.229-0.091-0.54,0.139-0.693c0.229-0.153,0.541-0.092,0.693,0.139
	l1.253,1.879C22.368,15.23,23.153,15,24,15s1.632,0.23,2.331,0.602l1.253-1.879c0.152-0.23,0.462-0.292,0.693-0.139
	c0.23,0.153,0.292,0.464,0.139,0.693l-1.253,1.88C28.276,17.074,29,18.445,29,20H19z M32,26c0,0.552-0.448,1-1,1s-1-0.448-1-1v-4
	c0-0.552,0.448-1,1-1s1,0.448,1,1V26z"/>
</svg>
