<?xml version="1.0" encoding="utf-8"?>
<!-- Generator: Adobe Illustrator 20.0.0, SVG Export Plug-In . SVG Version: 6.00 Build 0)  -->
<!DOCTYPE svg PUBLIC "-//W3C//DTD SVG 1.1//EN" "http://www.w3.org/Graphics/SVG/1.1/DTD/svg11.dtd">
<svg version="1.1" id="Layer_1" xmlns="http://www.w3.org/2000/svg" xmlns:xlink="http://www.w3.org/1999/xlink" x="0px" y="0px"
	 width="48px" height="48px" viewBox="0 0 48 48" enable-background="new 0 0 48 48" xml:space="preserve">
<path d="M24,14c-5.514,0-10,4.486-10,10s4.486,10,10,10s10-4.486,10-10S29.514,14,24,14z M25.283,29.989
	c-2.53,1.647-5.915,0.932-7.563-1.598l1.57-1.055c1.07,1.643,3.268,2.107,4.911,1.037s2.107-3.268,1.037-4.911l1.642-1.037
	C28.528,24.956,27.812,28.342,25.283,29.989z M28.924,21.189c-1.072-1.641-3.271-2.103-4.912-1.031
	c-1.641,1.072-2.103,3.271-1.031,4.912l-1.599,1.012c-1.651-2.527-0.94-5.914,1.588-7.565c2.527-1.651,5.914-0.94,7.565,1.588
	L28.924,21.189z"/>
<path d="M43,7H5c-2.206,0-4,1.794-4,4v26c0,2.206,1.794,4,4,4h38c2.206,0,4-1.794,4-4V11C47,8.794,45.206,7,43,7z M24,36
	c-6.617,0-12-5.383-12-12s5.383-12,12-12s12,5.383,12,12S30.617,36,24,36z"/>
</svg>
