<?xml version="1.0" encoding="utf-8"?>
<!-- Generator: Adobe Illustrator 20.0.0, SVG Export Plug-In . SVG Version: 6.00 Build 0)  -->
<!DOCTYPE svg PUBLIC "-//W3C//DTD SVG 1.1//EN" "http://www.w3.org/Graphics/SVG/1.1/DTD/svg11.dtd">
<svg version="1.1" id="Layer_1" xmlns="http://www.w3.org/2000/svg" xmlns:xlink="http://www.w3.org/1999/xlink" x="0px" y="0px"
	 width="48px" height="48px" viewBox="0 0 48 48" enable-background="new 0 0 48 48" xml:space="preserve">
<path d="M43,7H5c-2.206,0-4,1.794-4,4v26c0,2.206,1.794,4,4,4h38c2.206,0,4-1.794,4-4V11C47,8.794,45.206,7,43,7z M18,31
	c0,1.657-1.34,3-2.996,3c-1.257,0-2.918,0-5.004,0v-7.025c1.217,0.335,4.156,0.708,5.882,0.052c1.087-0.411,1.654-1.187,1.654-2.364
	v-3.867h-2.867v3.867c0,0.781-0.43,1.383-1.196,1.58c-0.988,0.255-2.437-0.176-3.473-0.677V17c0-1.657,1.343-3,3-3h5V31z M28,31
	c0,1.657-1.341,3-2.998,3c-1.236,0-2.885,0-5.002,0v-7.696c0.797,0.684,1.921,0.943,2.959,1.041
	c1.339,0.118,2.788,0.014,4.336-0.369v-1.41c-0.905,0.45-2.031,0.855-3.308,0.727c-1.402-0.163-2.101-1.04-2.101-2.292
	c0-1.317,0.775-2.16,2.133-2.297c1.089-0.108,2.252,0.217,3.276,0.731v-1.411c-1.434-0.354-2.679-0.448-3.854-0.4
	c-1.196,0.059-2.535,0.296-3.441,1.074V17c0-1.657,1.343-3,3-3h5V31z M38,31c0,1.657-1.343,3-3,3h-5v-6.796c0.022,0,5.163,0,5.185,0
	c1.127-0.009,2.105-0.582,2.105-1.666c0-0.072-0.005-0.141-0.014-0.209c-0.113-0.814-0.882-1.322-1.896-1.4v-0.039
	c1.012-0.157,1.518-0.802,1.518-1.53c0-0.533-0.248-0.966-0.716-1.243c-0.56-0.331-1.194-0.323-1.77-0.323c-0.866,0-3.549,0-4.413,0
	V17c0-1.657,1.343-3,3-3h5V31z M33.512,24.405c0.537,0,0.845,0.288,0.933,0.674c0.015,0.065,0.023,0.133,0.023,0.205
	c0,0.072-0.008,0.14-0.023,0.206c-0.089,0.392-0.414,0.674-0.901,0.674c-0.68,0-1.25,0-1.914,0v-1.759
	C32.316,24.405,32.826,24.405,33.512,24.405z M31.63,23.414v-1.623c0.845,0,0.833,0,1.689,0c0.53,0,0.82,0.256,0.901,0.624
	c0.013,0.059,0.02,0.122,0.02,0.187c0,0.066-0.007,0.128-0.02,0.187c-0.1,0.455-0.463,0.624-0.933,0.624
	C32.733,23.414,32.237,23.414,31.63,23.414z"/>
</svg>
