<?xml version="1.0" encoding="utf-8"?>
<!-- Generator: Adobe Illustrator 20.0.0, SVG Export Plug-In . SVG Version: 6.00 Build 0)  -->
<!DOCTYPE svg PUBLIC "-//W3C//DTD SVG 1.1//EN" "http://www.w3.org/Graphics/SVG/1.1/DTD/svg11.dtd">
<svg version="1.1" id="Layer_1" xmlns="http://www.w3.org/2000/svg" xmlns:xlink="http://www.w3.org/1999/xlink" x="0px" y="0px"
	 width="48px" height="48px" viewBox="0 0 48 48" enable-background="new 0 0 48 48" xml:space="preserve">
<path d="M29,18c-1.771,0-3.36,0.776-4.459,2h1.38c0.186,0.321,0.352,0.653,0.492,1h-2.601c-0.184,0.316-0.338,0.651-0.462,1h3.388
	c0.084,0.326,0.151,0.659,0.193,1H23.09C23.035,23.326,23,23.659,23,24h4c0,0.339-0.028,0.672-0.069,1H23.09
	c0.058,0.344,0.145,0.678,0.26,1h3.388c-0.088,0.342-0.194,0.677-0.325,1h-2.601c0.208,0.359,0.453,0.693,0.729,1h1.38
	c-0.158,0.273-0.337,0.534-0.525,0.786C26.401,29.544,27.647,30,29,30c3.308,0,6-2.692,6-6S32.308,18,29,18z"/>
<path d="M43,7H5c-2.206,0-4,1.794-4,4v26c0,2.206,1.794,4,4,4h38c2.206,0,4-1.794,4-4V11C47,8.794,45.206,7,43,7z M29,32
	c-1.896,0-3.635-0.663-5.006-1.765C22.626,31.336,20.893,32,19,32c-4.418,0-8-3.582-8-8s3.582-8,8-8c1.894,0,3.631,0.659,5.001,1.76
	C25.371,16.661,27.107,16,29,16c4.418,0,8,3.582,8,8S33.418,32,29,32z"/>
</svg>
