<?xml version="1.0" encoding="utf-8"?>
<!-- Generator: Adobe Illustrator 20.0.0, SVG Export Plug-In . SVG Version: 6.00 Build 0)  -->
<!DOCTYPE svg PUBLIC "-//W3C//DTD SVG 1.1//EN" "http://www.w3.org/Graphics/SVG/1.1/DTD/svg11.dtd">
<svg version="1.1" id="Layer_1" xmlns="http://www.w3.org/2000/svg" xmlns:xlink="http://www.w3.org/1999/xlink" x="0px" y="0px"
	 width="48px" height="48px" viewBox="0 0 48 48" enable-background="new 0 0 48 48" xml:space="preserve">
<path d="M7,44c0,1.657,1.343,3,3,3h6V7H7V44z"/>
<path d="M40,1H8C4.14,1,1,4.141,1,8c0,2.784,1.639,5.184,4,6.309v-2.333C3.792,11.062,3,9.628,3,8c0-2.757,2.243-5,5-5h32
	c2.757,0,5,2.243,5,5c0,1.628-0.792,3.062-2,3.976v2.333c2.361-1.124,4-3.524,4-6.309C47,4.141,43.86,1,40,1z"/>
<path d="M24,47h14c1.657,0,3-1.343,3-3V7H24V47z M31,28c0-0.553,0.448-1,1-1s1,0.447,1,1v10c0,0.553-0.448,1-1,1s-1-0.447-1-1V28z"
	/>
</svg>
