<?xml version="1.0" encoding="utf-8"?>
<!-- Generator: Adobe Illustrator 20.0.0, SVG Export Plug-In . SVG Version: 6.00 Build 0)  -->
<!DOCTYPE svg PUBLIC "-//W3C//DTD SVG 1.1//EN" "http://www.w3.org/Graphics/SVG/1.1/DTD/svg11.dtd">
<svg version="1.1" id="Layer_1" xmlns="http://www.w3.org/2000/svg" xmlns:xlink="http://www.w3.org/1999/xlink" x="0px" y="0px"
	 width="48px" height="48px" viewBox="0 0 48 48" enable-background="new 0 0 48 48" xml:space="preserve">
<path d="M9,25c-0.553,0-1,0.448-1,1s0.447,1,1,1h10c0.553,0,1-0.448,1-1s-0.447-1-1-1H9z"/>
<path d="M43,1H5C2.794,1,1,2.794,1,5v26c0,2.206,1.794,4,4,4h18v-2H5c-1.103,0-2-0.897-2-2V18h42v12h2V5C47,2.794,45.206,1,43,1z
	 M45,10H3V5c0-1.103,0.897-2,2-2h38c1.103,0,2,0.897,2,2V10z"/>
<path d="M34,23c-2.757,0-5,2.243-5,5v3h-3c-0.553,0-1,0.448-1,1v14c0,0.552,0.447,1,1,1h16c0.553,0,1-0.448,1-1V32
	c0-0.552-0.447-1-1-1h-3v-3C39,25.243,36.757,23,34,23z M35,40.816V43h-2v-2.184c-1.163-0.413-2-1.512-2-2.816c0-1.657,1.343-3,3-3
	s3,1.343,3,3C37,39.304,36.163,40.403,35,40.816z M37,31h-6v-3c0-1.654,1.346-3,3-3s3,1.346,3,3V31z"/>
</svg>
