<?xml version="1.0" encoding="utf-8"?>
<!-- Generator: Adobe Illustrator 20.0.0, SVG Export Plug-In . SVG Version: 6.00 Build 0)  -->
<!DOCTYPE svg PUBLIC "-//W3C//DTD SVG 1.1//EN" "http://www.w3.org/Graphics/SVG/1.1/DTD/svg11.dtd">
<svg version="1.1" id="layer" xmlns="http://www.w3.org/2000/svg" xmlns:xlink="http://www.w3.org/1999/xlink" x="0px" y="0px"
	 width="48px" height="48px" viewBox="0 0 48 48" enable-background="new 0 0 48 48" xml:space="preserve">
<path fill="#1D1D1B" d="M36,29c-4.963,0-9,4.037-9,9c0,4.963,4.037,9,9,9c4.963,0,9-4.037,9-9C45,33.037,40.963,29,36,29z
	 M41.707,35.707l-7,7C34.512,42.902,34.256,43,34,43s-0.512-0.098-0.707-0.293l-3-3c-0.391-0.391-0.391-1.023,0-1.414
	s1.023-0.391,1.414,0L34,40.586l6.293-6.293c0.391-0.391,1.023-0.391,1.414,0S42.098,35.316,41.707,35.707z"/>
<path fill="#1D1D1B" d="M25,38c0-6.075,4.925-11,11-11V16c0-0.265-0.105-0.52-0.293-0.707l-14-14c-0.39-0.391-1.024-0.391-1.414,0
	l-14,14C6.105,15.481,6,15.735,6,16v29c0,1.105,0.895,2,2,2h21.687C26.856,45.01,25,41.724,25,38z M21,22c-1.657,0-3-1.343-3-3
	s1.343-3,3-3s3,1.343,3,3S22.657,22,21,22z"/>
</svg>
