<?xml version="1.0" encoding="utf-8"?>
<!-- Generator: Adobe Illustrator 20.0.0, SVG Export Plug-In . SVG Version: 6.00 Build 0)  -->
<!DOCTYPE svg PUBLIC "-//W3C//DTD SVG 1.1//EN" "http://www.w3.org/Graphics/SVG/1.1/DTD/svg11.dtd">
<svg version="1.1" id="Layer_1" xmlns="http://www.w3.org/2000/svg" xmlns:xlink="http://www.w3.org/1999/xlink" x="0px" y="0px"
	 width="48px" height="48px" viewBox="0 0 48 48" enable-background="new 0 0 48 48" xml:space="preserve">
<path d="M31,11H17c-0.553,0-1,0.447-1,1s0.447,1,1,1h14c0.553,0,1-0.447,1-1S31.553,11,31,11z"/>
<path d="M31,19H17c-0.553,0-1,0.447-1,1s0.447,1,1,1h14c0.553,0,1-0.447,1-1S31.553,19,31,19z"/>
<path d="M11,25.9V3h26v13v9.9l9.2-5L39,15.5V2c0-0.6-0.4-1-1-1H10C9.4,1,9,1.4,9,2v13.7l-7.2,5.2L11,25.9z"/>
<path d="M24,35c-0.2,0-0.3,0-0.5-0.1L1,22.8V45c0,1.105,0.895,2,2,2h42c1.105,0,2-0.895,2-2V22.8L24.5,34.9C24.3,35,24.2,35,24,35z"
	/>
</svg>
