<?xml version="1.0" encoding="utf-8"?>
<!-- Generator: Adobe Illustrator 20.0.0, SVG Export Plug-In . SVG Version: 6.00 Build 0)  -->
<!DOCTYPE svg PUBLIC "-//W3C//DTD SVG 1.1//EN" "http://www.w3.org/Graphics/SVG/1.1/DTD/svg11.dtd">
<svg version="1.1" id="layer" xmlns="http://www.w3.org/2000/svg" xmlns:xlink="http://www.w3.org/1999/xlink" x="0px" y="0px"
	 width="48px" height="48px" viewBox="0 0 48 48" enable-background="new 0 0 48 48" xml:space="preserve">
<path fill="#1D1D1B" d="M45,10H3c-1.105,0-2,0.895-2,2v32c0,1.105,0.895,2,2,2h42c1.105,0,2-0.895,2-2V12C47,10.895,46.105,10,45,10
	z M32.555,28.832l-12,8C20.387,36.943,20.194,37,20,37c-0.162,0-0.324-0.039-0.472-0.118C19.203,36.708,19,36.369,19,36V20
	c0-0.369,0.203-0.708,0.528-0.882c0.324-0.174,0.719-0.156,1.026,0.05l12,8C32.833,27.354,33,27.666,33,28
	S32.833,28.646,32.555,28.832z"/>
<path fill="#1D1D1B" d="M33,8V3c0-0.552-0.448-1-1-1H16c-0.552,0-1,0.448-1,1v5h2V4h14v4H33z"/>
</svg>
