<?xml version="1.0" encoding="utf-8"?>
<!-- Generator: Adobe Illustrator 20.0.0, SVG Export Plug-In . SVG Version: 6.00 Build 0)  -->
<!DOCTYPE svg PUBLIC "-//W3C//DTD SVG 1.1//EN" "http://www.w3.org/Graphics/SVG/1.1/DTD/svg11.dtd">
<svg version="1.1" id="Layer_1" xmlns="http://www.w3.org/2000/svg" xmlns:xlink="http://www.w3.org/1999/xlink" x="0px" y="0px"
	 width="48px" height="48px" viewBox="0 0 48 48" enable-background="new 0 0 48 48" xml:space="preserve">
<path d="M4.932,24l5.096,21.233C10.136,45.683,10.538,46,11,46h26c0.462,0,0.864-0.317,0.972-0.767L43.068,24H4.932z"/>
<path d="M46,15h-8.2L28.814,2.419c-0.322-0.45-0.947-0.553-1.395-0.233c-0.45,0.321-0.554,0.946-0.233,1.395L35.342,15H12.658
	l8.156-11.419c0.321-0.449,0.217-1.074-0.233-1.395c-0.449-0.32-1.074-0.217-1.395,0.233L10.2,15H2c-0.552,0-1,0.448-1,1v5
	c0,0.552,0.448,1,1,1h44c0.552,0,1-0.448,1-1v-5C47,15.448,46.552,15,46,15z"/>
</svg>
