<?xml version="1.0" encoding="utf-8"?>
<!-- Generator: Adobe Illustrator 20.0.0, SVG Export Plug-In . SVG Version: 6.00 Build 0)  -->
<!DOCTYPE svg PUBLIC "-//W3C//DTD SVG 1.1//EN" "http://www.w3.org/Graphics/SVG/1.1/DTD/svg11.dtd">
<svg version="1.1" id="layer" xmlns="http://www.w3.org/2000/svg" xmlns:xlink="http://www.w3.org/1999/xlink" x="0px" y="0px"
	 width="48px" height="48px" viewBox="0 0 48 48" enable-background="new 0 0 48 48" xml:space="preserve">
<path fill="#1D1D1B" d="M35,16h-6c-0.553,0-1,0.447-1,1s0.447,1,1,1h6c0.553,0,1-0.447,1-1S35.553,16,35,16z"/>
<path fill="#1D1D1B" d="M35,44h-6c-0.553,0-1,0.447-1,1s0.447,1,1,1h6c0.553,0,1-0.447,1-1S35.553,44,35,44z"/>
<path fill="#1D1D1B" d="M17,44c-0.553,0-1,0.447-1,1s0.447,1,1,1h6c0.553,0,1-0.447,1-1s-0.447-1-1-1H17z"/>
<path fill="#1D1D1B" d="M46,27c-0.553,0-1,0.447-1,1v6c0,0.553,0.447,1,1,1s1-0.447,1-1v-6C47,27.447,46.553,27,46,27z"/>
<path fill="#1D1D1B" d="M46,16h-5c-0.553,0-1,0.447-1,1s0.447,1,1,1h4v4c0,0.553,0.447,1,1,1s1-0.447,1-1v-5
	C47,16.447,46.553,16,46,16z"/>
<path fill="#1D1D1B" d="M46,39c-0.553,0-1,0.447-1,1v4h-4c-0.553,0-1,0.447-1,1s0.447,1,1,1h5c0.553,0,1-0.447,1-1v-5
	C47,39.447,46.553,39,46,39z"/>
<path fill="#1D1D1B" d="M6,39c-0.553,0-1,0.447-1,1v5c0,0.553,0.447,1,1,1h5c0.553,0,1-0.447,1-1s-0.447-1-1-1H7v-4
	C7,39.447,6.553,39,6,39z"/>
<path fill="#1D1D1B" d="M6.5,20c-3,0-5.5,2.5-5.5,5.5S3.5,31,6.5,31s5.5-2.5,5.5-5.5c0-1-0.2-1.9-0.7-2.6l3.5-3l7,7
	c2.5,2.4,6.3,2.9,9.2,1.1L18.2,17L31,6c-2.9-1.8-6.7-1.3-9.1,1.1l-7,7l-3.5-3c0.4-0.7,0.6-1.6,0.6-2.6C12,5.5,9.5,3,6.5,3
	S1,5.5,1,8.5S3.5,14,6.5,14c0.7,0,1.4-0.1,2.1-0.4L12,17l-3.4,3.4C8,20.1,7.3,20,6.5,20z M6.5,12C4.6,12,3,10.4,3,8.5
	C3,6.6,4.6,5,6.5,5S10,6.6,10,8.5C10,10.4,8.4,12,6.5,12z M10,25.5c0,1.9-1.6,3.5-3.5,3.5S3,27.4,3,25.5C3,23.6,4.6,22,6.5,22
	S10,23.6,10,25.5z"/>
</svg>
