<?xml version="1.0" encoding="utf-8"?>
<!-- Generator: Adobe Illustrator 20.0.0, SVG Export Plug-In . SVG Version: 6.00 Build 0)  -->
<!DOCTYPE svg PUBLIC "-//W3C//DTD SVG 1.1//EN" "http://www.w3.org/Graphics/SVG/1.1/DTD/svg11.dtd">
<svg version="1.1" id="Layer_1" xmlns="http://www.w3.org/2000/svg" xmlns:xlink="http://www.w3.org/1999/xlink" x="0px" y="0px"
	 width="48px" height="48px" viewBox="0 0 48 48" enable-background="new 0 0 48 48" xml:space="preserve">
<path d="M2,47h29.687C28.856,45.01,27,41.724,27,38c0-5.034,3.385-9.268,8-10.575V14c0-0.552-0.447-1-1-1h-6V9c0-4.411-3.589-8-8-8
	s-8,3.589-8,8v4H6c-0.553,0-1,0.448-1,1v10.906L1.018,45.813c-0.056,0.292,0.022,0.595,0.212,0.825C1.42,46.867,1.702,47,2,47z
	 M14,9c0-3.309,2.691-6,6-6s6,2.691,6,6v4H14V9z"/>
<path d="M38,29c-4.971,0-9,4.029-9,9s4.029,9,9,9s9-4.029,9-9S42.971,29,38,29z M42,39h-3v3c0,0.552-0.448,1-1,1s-1-0.448-1-1v-3h-3
	c-0.552,0-1-0.448-1-1s0.448-1,1-1h3v-3c0-0.552,0.448-1,1-1s1,0.448,1,1v3h3c0.552,0,1,0.448,1,1S42.552,39,42,39z"/>
</svg>
