<?xml version="1.0" encoding="utf-8"?>
<!-- Generator: Adobe Illustrator 20.0.0, SVG Export Plug-In . SVG Version: 6.00 Build 0)  -->
<!DOCTYPE svg PUBLIC "-//W3C//DTD SVG 1.1//EN" "http://www.w3.org/Graphics/SVG/1.1/DTD/svg11.dtd">
<svg version="1.1" id="layer" xmlns="http://www.w3.org/2000/svg" xmlns:xlink="http://www.w3.org/1999/xlink" x="0px" y="0px"
	 width="48px" height="48px" viewBox="0 0 48 48" enable-background="new 0 0 48 48" xml:space="preserve">
<path fill="#1D1D1B" d="M36,28c-4.971,0-9,4.029-9,9s4.029,9,9,9s9-4.029,9-9S40.971,28,36,28z M40,38h-8c-0.552,0-1-0.448-1-1
	s0.448-1,1-1h8c0.552,0,1,0.448,1,1S40.552,38,40,38z"/>
<path fill="#1D1D1B" d="M9,26c-0.553,0-1,0.448-1,1s0.447,1,1,1h10c0.553,0,1-0.448,1-1s-0.447-1-1-1H9z"/>
<path fill="#1D1D1B" d="M43,2H5C2.794,2,1,3.794,1,6v26c0,2.206,1.794,4,4,4h18v-2H5c-1.103,0-2-0.897-2-2V19h42v9h2V6
	C47,3.794,45.206,2,43,2z M45,11H3V6c0-1.103,0.897-2,2-2h38c1.103,0,2,0.897,2,2V11z"/>
</svg>
