<?xml version="1.0" encoding="utf-8"?>
<!-- Generator: Adobe Illustrator 20.0.0, SVG Export Plug-In . SVG Version: 6.00 Build 0)  -->
<!DOCTYPE svg PUBLIC "-//W3C//DTD SVG 1.1//EN" "http://www.w3.org/Graphics/SVG/1.1/DTD/svg11.dtd">
<svg version="1.1" id="layer" xmlns="http://www.w3.org/2000/svg" xmlns:xlink="http://www.w3.org/1999/xlink" x="0px" y="0px"
	 width="48px" height="48px" viewBox="0 0 48 48" enable-background="new 0 0 48 48" xml:space="preserve">
<path fill="#1D1D1B" d="M47,20v-4c0-0.553-0.448-1-1-1h-7.42L30.868,1.504c-0.273-0.479-0.885-0.646-1.364-0.372
	s-0.646,0.885-0.372,1.364L36.277,15H11.723l7.145-12.504c0.274-0.479,0.107-1.09-0.372-1.364c-0.479-0.274-1.09-0.107-1.364,0.372
	L9.42,15H2c-0.552,0-1,0.447-1,1v4c0,0.553,0.448,1,1,1h44C46.552,21,47,20.553,47,20z"/>
<path fill="#1D1D1B" d="M37.084,43.898l-1.09-0.653C35.112,43.738,34.116,44,33.083,44c-3.309,0-6-2.691-6-6s2.691-6,6-6
	c1.033,0,2.029,0.262,2.911,0.755l1.09-0.653c-0.001-0.034-0.001-0.068-0.001-0.102c0-3.281,2.647-5.951,5.917-5.996V23H24H5v21
	c0,1.105,0.895,2,2,2h17h13.433c-0.223-0.627-0.35-1.298-0.35-2C37.083,43.967,37.083,43.933,37.084,43.898z"/>
<path fill="#1D1D1B" d="M43.083,36c2.206,0,4-1.794,4-4s-1.794-4-4-4s-4,1.794-4,4c0,0.393,0.075,0.766,0.181,1.126l-3.378,2.027
	C35.163,34.441,34.175,34,33.083,34c-2.206,0-4,1.794-4,4s1.794,4,4,4c1.092,0,2.08-0.441,2.803-1.153l3.378,2.027
	c-0.106,0.359-0.181,0.732-0.181,1.126c0,2.206,1.794,4,4,4s4-1.794,4-4s-1.794-4-4-4c-1.091,0-2.08,0.441-2.802,1.152l-3.379-2.027
	c0.106-0.359,0.181-0.732,0.181-1.125s-0.075-0.766-0.181-1.125l3.379-2.027C41.003,35.559,41.992,36,43.083,36z"/>
</svg>
