<?xml version="1.0" encoding="utf-8"?>
<!-- Generator: Adobe Illustrator 20.0.0, SVG Export Plug-In . SVG Version: 6.00 Build 0)  -->
<!DOCTYPE svg PUBLIC "-//W3C//DTD SVG 1.1//EN" "http://www.w3.org/Graphics/SVG/1.1/DTD/svg11.dtd">
<svg version="1.1" id="Layer_1" xmlns="http://www.w3.org/2000/svg" xmlns:xlink="http://www.w3.org/1999/xlink" x="0px" y="0px"
	 width="48px" height="48px" viewBox="0 0 48 48" enable-background="new 0 0 48 48" xml:space="preserve">
<circle cx="29.5" cy="31.5" r="2.5"/>
<circle cx="42.5" cy="31.5" r="2.5"/>
<path d="M45,16h-8V5c0-2.209-1.791-4-4-4H9C6.791,1,5,2.791,5,5v38c0,2.209,1.791,4,4,4h24c2.209,0,4-1.791,4-4V31h-2v6
	c0,0.552-0.448,1-1,1H8c-0.552,0-1-0.448-1-1V8c0-0.552,0.448-1,1-1h26c0.552,0,1,0.448,1,1v8h-6.527l-0.485-3.152
	C27.913,12.36,27.494,12,27,12h-4c-0.552,0-1,0.447-1,1s0.448,1,1,1h3.142l1.87,12.152C28.087,26.64,28.506,27,29,27h14
	c0.469,0,0.875-0.325,0.976-0.783l2-9c0.066-0.296-0.006-0.605-0.196-0.843C45.59,16.138,45.303,16,45,16z"/>
</svg>
