<?xml version="1.0" encoding="utf-8"?>
<!-- Generator: Adobe Illustrator 20.0.0, SVG Export Plug-In . SVG Version: 6.00 Build 0)  -->
<!DOCTYPE svg PUBLIC "-//W3C//DTD SVG 1.1//EN" "http://www.w3.org/Graphics/SVG/1.1/DTD/svg11.dtd">
<svg version="1.1" id="layer" xmlns="http://www.w3.org/2000/svg" xmlns:xlink="http://www.w3.org/1999/xlink" x="0px" y="0px"
	 width="48px" height="48px" viewBox="0 0 48 48" enable-background="new 0 0 48 48" xml:space="preserve">
<path fill="#1D1D1B" d="M7,3v4h34V3c0-0.553-0.448-1-1-1H8C7.448,2,7,2.447,7,3z"/>
<path fill="#1D1D1B" d="M41.317,9H6.683l-5.442,6.35C1.085,15.53,1,15.762,1,16v5c0,0.553,0.448,1,1,1h44c0.552,0,1-0.447,1-1v-5
	c0-0.238-0.085-0.47-0.241-0.65L41.317,9z"/>
<path fill="#1D1D1B" d="M5,45c0,0.552,0.448,1,1,1h19c0.552,0,1-0.448,1-1V34h7v11c0,0.552,0.448,1,1,1h8c0.552,0,1-0.448,1-1V24H5
	V45z M11,30c0-0.553,0.448-1,1-1h6c0.552,0,1,0.447,1,1v6c0,0.553-0.448,1-1,1h-6c-0.552,0-1-0.447-1-1V30z"/>
</svg>
