<?xml version="1.0" encoding="utf-8"?>
<!-- Generator: Adobe Illustrator 20.0.0, SVG Export Plug-In . SVG Version: 6.00 Build 0)  -->
<!DOCTYPE svg PUBLIC "-//W3C//DTD SVG 1.1//EN" "http://www.w3.org/Graphics/SVG/1.1/DTD/svg11.dtd">
<svg version="1.1" id="Layer_1" xmlns="http://www.w3.org/2000/svg" xmlns:xlink="http://www.w3.org/1999/xlink" x="0px" y="0px"
	 width="48px" height="48px" viewBox="0 0 48 48" enable-background="new 0 0 48 48" xml:space="preserve">
<circle cx="12" cy="42" r="5"/>
<circle cx="42" cy="42" r="5"/>
<path d="M2,3h5v29c0,0.552,0.447,1,1,1h38c0.553,0,1-0.448,1-1s-0.447-1-1-1H9v-4h29c0.469,0,0.874-0.326,0.977-0.783l4-18
	c0.065-0.296-0.007-0.606-0.196-0.842C42.59,7.138,42.304,7,42,7H25v10.586l4.293-4.293c0.391-0.391,1.023-0.391,1.414,0
	s0.391,1.023,0,1.414l-5.999,5.999c-0.092,0.093-0.203,0.166-0.326,0.217C24.26,20.973,24.13,21,24,21s-0.26-0.027-0.382-0.077
	c-0.123-0.051-0.233-0.124-0.326-0.217l-5.999-5.999c-0.391-0.391-0.391-1.023,0-1.414s1.023-0.391,1.414,0L23,17.586V7H9V2
	c0-0.552-0.447-1-1-1H2C1.447,1,1,1.448,1,2S1.447,3,2,3z"/>
</svg>
