<?xml version="1.0" encoding="utf-8"?>
<!-- Generator: Adobe Illustrator 20.0.0, SVG Export Plug-In . SVG Version: 6.00 Build 0)  -->
<!DOCTYPE svg PUBLIC "-//W3C//DTD SVG 1.1//EN" "http://www.w3.org/Graphics/SVG/1.1/DTD/svg11.dtd">
<svg version="1.1" id="layer" xmlns="http://www.w3.org/2000/svg" xmlns:xlink="http://www.w3.org/1999/xlink" x="0px" y="0px"
	 width="48px" height="48px" viewBox="0 0 48 48" enable-background="new 0 0 48 48" xml:space="preserve">
<path fill="#1D1D1B" d="M2,3h5v29c0,0.552,0.447,1,1,1h38c0.553,0,1-0.448,1-1s-0.447-1-1-1H9v-4h29
	c0.469,0,0.874-0.326,0.977-0.783l0.728-3.278C39.308,22.977,38.907,23,38.5,23C31.607,23,26,17.393,26,10.5
	c0-1.216,0.183-2.388,0.508-3.5H9V2c0-0.552-0.447-1-1-1H2C1.447,1,1,1.448,1,2S1.447,3,2,3z"/>
<circle fill="#1D1D1B" cx="12" cy="42" r="5"/>
<circle fill="#1D1D1B" cx="42" cy="42" r="5"/>
<path fill="#1D1D1B" d="M38.539,3.015c1.501,0,2.907,0.511,4.033,1.429L40.075,7.13l6.686,0.351l-0.606-6.893l-2.216,2.384
	c-1.494-1.26-3.383-1.957-5.4-1.957c-4.513,0-8.206,3.538-8.474,7.985h2.001C32.339,5.707,35.189,3.015,38.539,3.015z"/>
<path fill="#1D1D1B" d="M33.061,16.028c1.494,1.26,3.383,1.957,5.4,1.957c4.513,0,8.206-3.538,8.474-7.985h-2.001
	c-0.273,3.293-3.123,5.985-6.473,5.985c-1.501,0-2.907-0.511-4.033-1.429l2.497-2.686l-6.687-0.351l0.606,6.893L33.061,16.028z"/>
</svg>
