<?xml version="1.0" encoding="utf-8"?>
<!-- Generator: Adobe Illustrator 20.0.0, SVG Export Plug-In . SVG Version: 6.00 Build 0)  -->
<!DOCTYPE svg PUBLIC "-//W3C//DTD SVG 1.1//EN" "http://www.w3.org/Graphics/SVG/1.1/DTD/svg11.dtd">
<svg version="1.1" id="Layer_1" xmlns="http://www.w3.org/2000/svg" xmlns:xlink="http://www.w3.org/1999/xlink" x="0px" y="0px"
	 width="48px" height="48px" viewBox="0 0 48 48" enable-background="new 0 0 48 48" xml:space="preserve">
<circle cx="12" cy="42" r="5"/>
<circle cx="42" cy="42" r="5"/>
<path d="M38,20c4.971,0,9-4.029,9-9s-4.029-9-9-9s-9,4.029-9,9S33.029,20,38,20z M34,10h3V7c0-0.552,0.448-1,1-1s1,0.448,1,1v3h3
	c0.552,0,1,0.448,1,1s-0.448,1-1,1h-3v3c0,0.552-0.448,1-1,1s-1-0.448-1-1v-3h-3c-0.552,0-1-0.448-1-1S33.448,10,34,10z"/>
<path d="M2,3h5v29c0,0.552,0.447,1,1,1h38c0.553,0,1-0.448,1-1s-0.447-1-1-1H9v-4h29c0.469,0,0.874-0.326,0.977-0.783l0.978-4.4
	C39.319,21.931,38.668,22,38,22c-6.075,0-11-4.925-11-11c0-1.413,0.276-2.759,0.761-4H9V2c0-0.552-0.447-1-1-1H2
	C1.447,1,1,1.448,1,2S1.447,3,2,3z"/>
</svg>
