<?xml version="1.0" encoding="utf-8"?>
<!-- Generator: Adobe Illustrator 20.0.0, SVG Export Plug-In . SVG Version: 6.00 Build 0)  -->
<!DOCTYPE svg PUBLIC "-//W3C//DTD SVG 1.1//EN" "http://www.w3.org/Graphics/SVG/1.1/DTD/svg11.dtd">
<svg version="1.1" id="Layer_1" xmlns="http://www.w3.org/2000/svg" xmlns:xlink="http://www.w3.org/1999/xlink" x="0px" y="0px"
	 width="48px" height="48px" viewBox="0 0 48 48" enable-background="new 0 0 48 48" xml:space="preserve">
<circle cx="36" cy="35" r="5"/>
<path d="M47.316,23.052l-5.463-1.821l-1.877-8.447C39.874,12.325,39.469,12,39,12H1c-0.553,0-1,0.447-1,1s0.447,1,1,1h22
	c0.553,0,1,0.447,1,1s-0.447,1-1,1h-5v3H6c-0.553,0-1,0.447-1,1s0.447,1,1,1h17c0.553,0,1,0.447,1,1s-0.447,1-1,1h-5v3h-7
	c-0.553,0-1,0.447-1,1s0.447,1,1,1h12c0.553,0,1,0.447,1,1s-0.447,1-1,1h-5v4c0,0.553,0.447,1,1,1h10c0-3.859,3.141-7,7-7
	s7,3.141,7,7h4c0.553,0,1-0.447,1-1V24C48,23.569,47.725,23.188,47.316,23.052z"/>
</svg>
