<?xml version="1.0" encoding="utf-8"?>
<!-- Generator: Adobe Illustrator 20.0.0, SVG Export Plug-In . SVG Version: 6.00 Build 0)  -->
<!DOCTYPE svg PUBLIC "-//W3C//DTD SVG 1.1//EN" "http://www.w3.org/Graphics/SVG/1.1/DTD/svg11.dtd">
<svg version="1.1" id="Layer_1" xmlns="http://www.w3.org/2000/svg" xmlns:xlink="http://www.w3.org/1999/xlink" x="0px" y="0px"
	 width="48px" height="48px" viewBox="0 0 48 48" enable-background="new 0 0 48 48" xml:space="preserve">
<path d="M20.707,1.293C20.52,1.105,20.265,1,20,1H2C1.448,1,1,1.448,1,2v18c0,0.265,0.105,0.52,0.293,0.707l4.719,4.719
	C5.993,26.897,6,28.3,6,29.5C6,35.553,7.045,47,11,47c3.204,0,4.35-7.285,4.753-11.833l11.54,11.54c0.391,0.391,1.023,0.391,1.414,0
	l18-18c0.391-0.391,0.391-1.023,0-1.414L20.707,1.293z M13,16c-0.42,0-0.711-0.088-1-0.203c-0.68,1.399-1.99,6.03-1.999,13.618
	l3.888,3.888C13.427,41.336,11.67,44.931,11,45c-0.897-0.091-3-5.475-3-15.5c0-8.275,1.432-13.378,2.437-14.962
	C10.147,14.056,10,13.501,10,13c0-1.657,1.343-3,3-3s3,1.343,3,3S14.657,16,13,16z M28.707,34.707C28.512,34.902,28.256,35,28,35
	s-0.512-0.098-0.707-0.293l-9-9c-0.391-0.391-0.391-1.023,0-1.414s1.023-0.391,1.414,0l9,9
	C29.098,33.684,29.098,34.316,28.707,34.707z M34.707,28.707C34.512,28.902,34.256,29,34,29s-0.512-0.098-0.707-0.293l-9-9
	c-0.391-0.391-0.391-1.023,0-1.414s1.023-0.391,1.414,0l9,9C35.098,27.684,35.098,28.316,34.707,28.707z"/>
</svg>
