<?xml version="1.0" encoding="utf-8"?>
<!-- Generator: Adobe Illustrator 20.0.0, SVG Export Plug-In . SVG Version: 6.00 Build 0)  -->
<!DOCTYPE svg PUBLIC "-//W3C//DTD SVG 1.1//EN" "http://www.w3.org/Graphics/SVG/1.1/DTD/svg11.dtd">
<svg version="1.1" id="layer" xmlns="http://www.w3.org/2000/svg" xmlns:xlink="http://www.w3.org/1999/xlink" x="0px" y="0px"
	 width="48px" height="48px" viewBox="0 0 48 48" enable-background="new 0 0 48 48" xml:space="preserve">
<path fill="#1D1D1B" d="M2,41v5c0,0.552,0.448,1,1,1h23c0.552,0,1-0.448,1-1v-4.167C27,39.072,29.239,37,32,37H6
	C3.791,37,2,38.791,2,41z"/>
<path fill="#1D1D1B" d="M46,1H14c-0.552,0-1,0.448-1,1v33h20c2.209,0,4,1.791,4,4v2.785c0,2.611,1.909,4.943,4.509,5.191
	C44.491,47.261,47,44.923,47,42V2C47,1.448,46.552,1,46,1z M38,27H22c-0.553,0-1-0.447-1-1s0.447-1,1-1h16c0.553,0,1,0.447,1,1
	S38.553,27,38,27z M38,19H22c-0.553,0-1-0.447-1-1s0.447-1,1-1h16c0.553,0,1,0.447,1,1S38.553,19,38,19z M38,11H22
	c-0.553,0-1-0.447-1-1s0.447-1,1-1h16c0.553,0,1,0.447,1,1S38.553,11,38,11z"/>
</svg>
