<?xml version="1.0" encoding="utf-8"?>
<!-- Generator: Adobe Illustrator 20.0.0, SVG Export Plug-In . SVG Version: 6.00 Build 0)  -->
<!DOCTYPE svg PUBLIC "-//W3C//DTD SVG 1.1//EN" "http://www.w3.org/Graphics/SVG/1.1/DTD/svg11.dtd">
<svg version="1.1" id="Layer_1" xmlns="http://www.w3.org/2000/svg" xmlns:xlink="http://www.w3.org/1999/xlink" x="0px" y="0px"
	 width="48px" height="48px" viewBox="0 0 48 48" enable-background="new 0 0 48 48" xml:space="preserve">
<path d="M22,47v-5h2.086c3.906,0,6.947-0.903,9.123-2.708c2.175-1.806,3.262-4.317,3.262-7.535c0-4.81-2.733-7.683-8.199-8.618
	v-0.247c2.281-0.41,4.017-1.309,5.208-2.696c1.19-1.388,1.785-3.148,1.785-5.282c0-3.086-1.067-5.344-3.201-6.771
	C29.977,6.745,26.616,6.036,22,6.006V1h-2v5h-3V1h-2v5h-4v36h4v5h2v-5h3v5H22z M16,9.62h5.87c3.151,0,5.449,0.447,6.894,1.342
	c1.445,0.895,2.167,2.352,2.167,4.37c0,2.2-0.649,3.764-1.946,4.691c-1.297,0.928-3.423,1.391-6.378,1.391H16V9.62z M16,38.43V25
	l6.88-0.039c3.07,0,5.356,0.526,6.858,1.576c1.502,1.051,2.253,2.693,2.253,4.924c0,2.397-0.735,4.158-2.204,5.282
	c-1.469,1.124-3.656,1.687-6.562,1.687H16z"/>
</svg>
