<?xml version="1.0" encoding="utf-8"?>
<!-- Generator: Adobe Illustrator 20.0.0, SVG Export Plug-In . SVG Version: 6.00 Build 0)  -->
<!DOCTYPE svg PUBLIC "-//W3C//DTD SVG 1.1//EN" "http://www.w3.org/Graphics/SVG/1.1/DTD/svg11.dtd">
<svg version="1.1" id="Layer_1" xmlns="http://www.w3.org/2000/svg" xmlns:xlink="http://www.w3.org/1999/xlink" x="0px" y="0px"
	 width="48px" height="48px" viewBox="0 0 48 48" enable-background="new 0 0 48 48" xml:space="preserve">
<path d="M46,37H2c-0.552,0-1,0.447-1,1v8c0,0.553,0.448,1,1,1h44c0.552,0,1-0.447,1-1v-8C47,37.447,46.552,37,46,37z"/>
<path d="M36,9c0.552,0,1-0.448,1-1V2c0-0.552-0.448-1-1-1H24c-0.552,0-1,0.448-1,1v6c0,0.552,0.448,1,1,1h5v4H12
	c-0.265,0-0.52,0.105-0.707,0.293S11,13.734,11,14l0,5.667L5.2,27.401C5.07,27.574,5,27.784,5,28v7h38v-7
	c0-0.216-0.07-0.426-0.2-0.599L37,19.667V14c0-0.552-0.448-1-1-1h-5V9H36z"/>
</svg>
