<?xml version="1.0" encoding="utf-8"?>
<!-- Generator: Adobe Illustrator 20.0.0, SVG Export Plug-In . SVG Version: 6.00 Build 0)  -->
<!DOCTYPE svg PUBLIC "-//W3C//DTD SVG 1.1//EN" "http://www.w3.org/Graphics/SVG/1.1/DTD/svg11.dtd">
<svg version="1.1" id="Layer_1" xmlns="http://www.w3.org/2000/svg" xmlns:xlink="http://www.w3.org/1999/xlink" x="0px" y="0px"
	 width="48px" height="48px" viewBox="0 0 48 48" enable-background="new 0 0 48 48" xml:space="preserve">
<path d="M19,18H6v22c0,0.443,0.292,0.834,0.718,0.959L23,45.748V13.2l-1.231,2.954C21.301,17.275,20.214,18,19,18z"/>
<path d="M26.231,16.155L25,13.2v32.548l16.282-4.789C41.708,40.834,42,40.443,42,40V18H29C27.786,18,26.699,17.275,26.231,16.155z"
	/>
<path d="M40.857,4.485c-0.158-0.264-0.429-0.439-0.733-0.478L24.131,2.009c-0.086-0.012-0.177-0.012-0.263,0L7.876,4.008
	C7.571,4.046,7.301,4.222,7.143,4.485l-6,10c-0.186,0.309-0.19,0.693-0.013,1.008C1.307,15.807,1.64,16,2,16h17
	c0.404,0,0.768-0.243,0.923-0.615L24,5.6l4.077,9.785C28.232,15.757,28.596,16,29,16h17c0.36,0,0.693-0.193,0.87-0.507
	c0.178-0.314,0.173-0.699-0.013-1.008L40.857,4.485z"/>
</svg>
