<?xml version="1.0" encoding="utf-8"?>
<!-- Generator: Adobe Illustrator 20.0.0, SVG Export Plug-In . SVG Version: 6.00 Build 0)  -->
<!DOCTYPE svg PUBLIC "-//W3C//DTD SVG 1.1//EN" "http://www.w3.org/Graphics/SVG/1.1/DTD/svg11.dtd">
<svg version="1.1" id="Layer_1" xmlns="http://www.w3.org/2000/svg" xmlns:xlink="http://www.w3.org/1999/xlink" x="0px" y="0px"
	 width="48px" height="48px" viewBox="0 0 48 48" enable-background="new 0 0 48 48" xml:space="preserve">
<path d="M45,7H3C1.895,7,1,7.895,1,9v7h46V9C47,7.895,46.105,7,45,7z"/>
<path d="M1,39c0,1.105,0.895,2,2,2h42c1.105,0,2-0.895,2-2V22H1V39z M35,31h5c0.552,0,1,0.448,1,1s-0.448,1-1,1h-5
	c-0.552,0-1-0.448-1-1S34.448,31,35,31z M8,31h10c0.552,0,1,0.448,1,1s-0.448,1-1,1H8c-0.552,0-1-0.448-1-1S7.448,31,8,31z"/>
</svg>
