<?xml version="1.0" encoding="utf-8"?>
<!-- Generator: Adobe Illustrator 20.0.0, SVG Export Plug-In . SVG Version: 6.00 Build 0)  -->
<!DOCTYPE svg PUBLIC "-//W3C//DTD SVG 1.1//EN" "http://www.w3.org/Graphics/SVG/1.1/DTD/svg11.dtd">
<svg version="1.1" id="Layer_1" xmlns="http://www.w3.org/2000/svg" xmlns:xlink="http://www.w3.org/1999/xlink" x="0px" y="0px"
	 width="48px" height="48px" viewBox="0 0 48 48" enable-background="new 0 0 48 48" xml:space="preserve">
<path d="M11,10v3H4c-1.105,0-2,0.895-2,2v30c0,1.105,0.895,2,2,2h32c1.105,0,2-0.895,2-2V34.828l-3.014,3.014l-7.064,1.413
	c-0.7,0.14-1.317-0.477-1.177-1.177l1.413-7.064L38,21.172V15c0-1.105-0.895-2-2-2h-7v-2.682c0-4.789-3.605-8.977-8.383-9.297
	C15.377,0.669,11,4.833,11,10z M27,10v3H13v-3c0-3.86,3.14-7,7-7S27,6.14,27,10z"/>
<path d="M30,32l-1,5l5-1l11.172-11.172c1.105-1.105,1.105-2.895,0-4c-1.106-1.106-2.897-1.103-4,0L30,32z"/>
</svg>
