<?xml version="1.0" encoding="utf-8"?>
<!-- Generator: Adobe Illustrator 20.0.0, SVG Export Plug-In . SVG Version: 6.00 Build 0)  -->
<!DOCTYPE svg PUBLIC "-//W3C//DTD SVG 1.1//EN" "http://www.w3.org/Graphics/SVG/1.1/DTD/svg11.dtd">
<svg version="1.1" id="layer" xmlns="http://www.w3.org/2000/svg" xmlns:xlink="http://www.w3.org/1999/xlink" x="0px" y="0px"
	 width="48px" height="48px" viewBox="0 0 48 48" enable-background="new 0 0 48 48" xml:space="preserve">
<path fill="#1D1D1B" d="M25.172,29.22C26.582,27.789,28.456,27,30.45,27c1.674,0,3.265,0.562,4.55,1.562V16
	c0-0.265-0.105-0.52-0.293-0.707l-14-14c-0.39-0.391-1.024-0.391-1.414,0l-14,14C5.105,15.481,5,15.735,5,16v29c0,1.105,0.895,2,2,2
	h25.193l-7.022-7.137C22.284,36.93,22.284,32.154,25.172,29.22z M20,22c-1.657,0-3-1.343-3-3s1.343-3,3-3s3,1.343,3,3
	S21.657,22,20,22z"/>
<path fill="#1D1D1B" d="M35,31.479c-1.912-2.927-5.972-3.325-8.402-0.856c-2.13,2.164-2.13,5.674,0,7.838L34.999,47l8.403-8.538
	c2.13-2.164,2.13-5.674,0-7.838C40.97,28.151,36.91,28.555,35,31.479z"/>
</svg>
