<?xml version="1.0" encoding="utf-8"?>
<!-- Generator: Adobe Illustrator 20.0.0, SVG Export Plug-In . SVG Version: 6.00 Build 0)  -->
<!DOCTYPE svg PUBLIC "-//W3C//DTD SVG 1.1//EN" "http://www.w3.org/Graphics/SVG/1.1/DTD/svg11.dtd">
<svg version="1.1" id="Layer_1" xmlns="http://www.w3.org/2000/svg" xmlns:xlink="http://www.w3.org/1999/xlink" x="0px" y="0px"
	 width="48px" height="48px" viewBox="0 0 48 48" enable-background="new 0 0 48 48" xml:space="preserve">
<path d="M47,33c0-0.552-0.447-1-1-1H4.135l3.334-4H36c0.437,0,0.822-0.283,0.953-0.699l6-19c0.097-0.304,0.042-0.635-0.146-0.893
	C42.618,7.152,42.318,7,42,7H7.469l-4.7-5.64C2.415,0.936,1.785,0.878,1.359,1.232C0.936,1.585,0.878,2.216,1.231,2.64L6,8.362
	v18.276L1.231,32.36c-0.248,0.298-0.302,0.713-0.137,1.064C1.259,33.775,1.612,34,2,34h44C46.553,34,47,33.552,47,33z"/>
<circle cx="8" cy="42" r="5"/>
<circle cx="40" cy="42" r="5"/>
</svg>
