<?xml version="1.0" encoding="utf-8"?>
<!-- Generator: Adobe Illustrator 20.0.0, SVG Export Plug-In . SVG Version: 6.00 Build 0)  -->
<!DOCTYPE svg PUBLIC "-//W3C//DTD SVG 1.1//EN" "http://www.w3.org/Graphics/SVG/1.1/DTD/svg11.dtd">
<svg version="1.1" id="Layer_1" xmlns="http://www.w3.org/2000/svg" xmlns:xlink="http://www.w3.org/1999/xlink" x="0px" y="0px"
	 width="48px" height="48px" viewBox="0 0 48 48" enable-background="new 0 0 48 48" xml:space="preserve">
<path d="M20.707,1.293C20.52,1.105,20.265,1,20,1H2C1.448,1,1,1.448,1,2v18c0,0.265,0.105,0.52,0.293,0.707l26,26
	c0.391,0.391,1.023,0.391,1.414,0l18-18c0.391-0.391,0.391-1.023,0-1.414L20.707,1.293z M13,16c-1.657,0-3-1.343-3-3s1.343-3,3-3
	s3,1.343,3,3S14.657,16,13,16z M28.707,34.707C28.512,34.902,28.256,35,28,35s-0.512-0.098-0.707-0.293l-9-9
	c-0.391-0.391-0.391-1.023,0-1.414s1.023-0.391,1.414,0l9,9C29.098,33.684,29.098,34.316,28.707,34.707z M34.707,28.707
	C34.512,28.902,34.256,29,34,29s-0.512-0.098-0.707-0.293l-9-9c-0.391-0.391-0.391-1.023,0-1.414s1.023-0.391,1.414,0l9,9
	C35.098,27.684,35.098,28.316,34.707,28.707z"/>
</svg>
