<?xml version="1.0" encoding="utf-8"?>
<!-- Generator: Adobe Illustrator 20.0.0, SVG Export Plug-In . SVG Version: 6.00 Build 0)  -->
<!DOCTYPE svg PUBLIC "-//W3C//DTD SVG 1.1//EN" "http://www.w3.org/Graphics/SVG/1.1/DTD/svg11.dtd">
<svg version="1.1" id="Layer_1" xmlns="http://www.w3.org/2000/svg" xmlns:xlink="http://www.w3.org/1999/xlink" x="0px" y="0px"
	 width="48px" height="48px" viewBox="0 0 48 48" enable-background="new 0 0 48 48" xml:space="preserve">
<path d="M3,47h42c1.105,0,2-0.895,2-2V13H31v13c0,0.552-0.448,1-1,1H18c-0.552,0-1-0.448-1-1V13H1v32C1,46.105,1.895,47,3,47z"/>
<path d="M34.001,1h-7.628l4.286,10h15.703L34.641,1.231C34.461,1.082,34.235,1,34.001,1z"/>
<path d="M17.341,11l4.286-10H14c-0.234,0-0.46,0.082-0.64,0.231L1.638,11H17.341z"/>
</svg>
