<?xml version="1.0" encoding="utf-8"?>
<!-- Generator: Adobe Illustrator 20.0.0, SVG Export Plug-In . SVG Version: 6.00 Build 0)  -->
<!DOCTYPE svg PUBLIC "-//W3C//DTD SVG 1.1//EN" "http://www.w3.org/Graphics/SVG/1.1/DTD/svg11.dtd">
<svg version="1.1" id="Layer_1" xmlns="http://www.w3.org/2000/svg" xmlns:xlink="http://www.w3.org/1999/xlink" x="0px" y="0px"
	 width="48px" height="48px" viewBox="0 0 48 48" enable-background="new 0 0 48 48" xml:space="preserve">
<path d="M28,38c0,4.971,4.029,9,9,9s9-4.029,9-9s-4.029-9-9-9S28,33.029,28,38z M42,38c0,0.552-0.448,1-1,1h-8c-0.552,0-1-0.448-1-1
	s0.448-1,1-1h8C41.552,37,42,37.448,42,38z"/>
<path d="M20.617,1.021C15.377,0.669,11,4.833,11,10v3H4c-1.105,0-2,0.895-2,2v30c0,1.105,0.895,2,2,2h26.687
	C27.856,45.01,26,41.724,26,38c0-6.075,4.925-11,11-11c0.338,0,0.67,0.021,1,0.05V15c0-1.105-0.895-2-2-2h-7v-2.682
	C29,5.529,25.395,1.341,20.617,1.021z M27,13H13v-3c0-3.86,3.14-7,7-7s7,3.14,7,7V13z"/>
</svg>
