<?xml version="1.0" encoding="utf-8"?>
<!-- Generator: Adobe Illustrator 20.0.0, SVG Export Plug-In . SVG Version: 6.00 Build 0)  -->
<!DOCTYPE svg PUBLIC "-//W3C//DTD SVG 1.1//EN" "http://www.w3.org/Graphics/SVG/1.1/DTD/svg11.dtd">
<svg version="1.1" id="layer" xmlns="http://www.w3.org/2000/svg" xmlns:xlink="http://www.w3.org/1999/xlink" x="0px" y="0px"
	 width="48px" height="48px" viewBox="0 0 48 48" enable-background="new 0 0 48 48" xml:space="preserve">
<path fill="#1D1D1B" d="M45,37c0-4.971-4.029-9-9-9s-9,4.029-9,9s4.029,9,9,9S45,41.971,45,37z M35,41v-3h-3c-0.552,0-1-0.448-1-1
	s0.448-1,1-1h3v-3c0-0.552,0.448-1,1-1s1,0.448,1,1v3h3c0.552,0,1,0.448,1,1s-0.448,1-1,1h-3v3c0,0.552-0.448,1-1,1S35,41.552,35,41
	z"/>
<path fill="#1D1D1B" d="M9,26c-0.553,0-1,0.448-1,1s0.447,1,1,1h10c0.553,0,1-0.448,1-1s-0.447-1-1-1H9z"/>
<path fill="#1D1D1B" d="M5,36h18v-2H5c-1.103,0-2-0.897-2-2V19h42v9h2V6c0-2.206-1.794-4-4-4H5C2.794,2,1,3.794,1,6v26
	C1,34.206,2.794,36,5,36z M3,6c0-1.103,0.897-2,2-2h38c1.103,0,2,0.897,2,2v5H3V6z"/>
</svg>
