<?xml version="1.0" encoding="utf-8"?>
<!-- Generator: Adobe Illustrator 20.0.0, SVG Export Plug-In . SVG Version: 6.00 Build 0)  -->
<!DOCTYPE svg PUBLIC "-//W3C//DTD SVG 1.1//EN" "http://www.w3.org/Graphics/SVG/1.1/DTD/svg11.dtd">
<svg version="1.1" id="Layer_1" xmlns="http://www.w3.org/2000/svg" xmlns:xlink="http://www.w3.org/1999/xlink" x="0px" y="0px"
	 width="48px" height="48px" viewBox="0 0 48 48" enable-background="new 0 0 48 48" xml:space="preserve">
<circle cx="11.5" cy="42.5" r="4.5"/>
<circle cx="37.5" cy="42.5" r="4.5"/>
<path d="M47.447,30.105l-3.574-1.787l-1.896-8.535C41.874,19.325,41.469,19,41,19H31v-5c0-0.553-0.447-1-1-1h-4.841
	c-1.547,3.527-5.068,6-9.159,6c-1.631,0-3.201-0.39-4.62-1.137l-3.259,3.258c-1.173,1.173-3.07,1.172-4.242,0
	c-1.173-1.173-1.172-3.07,0-4.242l3.258-3.259c-0.106-0.202-0.188-0.413-0.28-0.62H1c-0.553,0-1,0.447-1,1v27c0,0.553,0.447,1,1,1
	h4.025c0.257-3.351,3.059-6,6.475-6s6.218,2.649,6.475,6H30h1.025c0.257-3.351,3.059-6,6.475-6s6.218,2.649,6.475,6H47
	c0.553,0,1-0.447,1-1V31C48,30.621,47.786,30.275,47.447,30.105z"/>
<path d="M5.293,19.707C5.488,19.902,5.744,20,6,20s0.512-0.098,0.707-0.293l4.395-4.395C12.458,16.366,14.154,17,16,17
	c4.411,0,8-3.589,8-8s-3.589-8-8-8S8,4.589,8,9c0,1.846,0.634,3.542,1.688,4.898l-4.395,4.395
	C4.902,18.684,4.902,19.316,5.293,19.707z M16,3c3.309,0,6,2.691,6,6s-2.691,6-6,6s-6-2.691-6-6S12.691,3,16,3z"/>
</svg>
