<?xml version="1.0" encoding="utf-8"?>
<!-- Generator: Adobe Illustrator 20.0.0, SVG Export Plug-In . SVG Version: 6.00 Build 0)  -->
<!DOCTYPE svg PUBLIC "-//W3C//DTD SVG 1.1//EN" "http://www.w3.org/Graphics/SVG/1.1/DTD/svg11.dtd">
<svg version="1.1" id="Layer_1" xmlns="http://www.w3.org/2000/svg" xmlns:xlink="http://www.w3.org/1999/xlink" x="0px" y="0px"
	 width="48px" height="48px" viewBox="0 0 48 48" enable-background="new 0 0 48 48" xml:space="preserve">
<path d="M33.261,13h-14.19c0.487,3.388,3.408,6,6.929,6h5.001v1c0,2.785,1.639,5.188,3.999,6.314V32c0,1.105-0.895,2-2,2H8.385
	l0.029,0.191c0.345,2.245,2.16,3.975,4.418,4.212l18.99,1.999C39.935,41.256,47,34.896,47,26.739C47,19.151,40.849,13,33.261,13z"/>
<path d="M1.001,8v3h32V8c0-1.105-0.895-2-2-2h-28C1.897,6,1.001,6.895,1.001,8z"/>
<path d="M33.001,30v-2.531c-2.146-1.441-3.646-3.774-3.945-6.469H26c-2.656,0-5.04-1.164-6.689-3H1.001v12c0,1.105,0.895,2,2,2h28
	C32.106,32,33.001,31.105,33.001,30z M14,26H7c-0.552,0-1-0.448-1-1s0.448-1,1-1h7c0.552,0,1,0.448,1,1S14.552,26,14,26z"/>
</svg>
