<?xml version="1.0" encoding="utf-8"?>
<!-- Generator: Adobe Illustrator 20.0.0, SVG Export Plug-In . SVG Version: 6.00 Build 0)  -->
<!DOCTYPE svg PUBLIC "-//W3C//DTD SVG 1.1//EN" "http://www.w3.org/Graphics/SVG/1.1/DTD/svg11.dtd">
<svg version="1.1" id="layer" xmlns="http://www.w3.org/2000/svg" xmlns:xlink="http://www.w3.org/1999/xlink" x="0px" y="0px"
	 width="48px" height="48px" viewBox="0 0 48 48" enable-background="new 0 0 48 48" xml:space="preserve">
<path fill="#1D1D1B" d="M2,7v2c0,0.552,0.448,1,1,1h24c0.552,0,1-0.448,1-1V8.5c0-3.415,2.649-6.218,6-6.475V2H7
	C4.239,2,2,4.239,2,7z"/>
<path fill="#1D1D1B" d="M30,8.5V11c0,0.552-0.448,1-1,1H9v16h30V8.5C39,6.015,36.985,4,34.5,4S30,6.015,30,8.5z"/>
<path fill="#1D1D1B" d="M45,30H3c-1.105,0-2,0.895-2,2v12c0,1.105,0.895,2,2,2h42c1.105,0,2-0.895,2-2V32C47,30.895,46.105,30,45,30
	z M11,40c-1.105,0-2-0.895-2-2c0-1.105,0.895-2,2-2s2,0.895,2,2C13,39.105,12.105,40,11,40z M38,39H20c-0.553,0-1-0.447-1-1
	s0.447-1,1-1h18c0.553,0,1,0.447,1,1S38.553,39,38,39z"/>
</svg>
