<?xml version="1.0" encoding="utf-8"?>
<!-- Generator: Adobe Illustrator 20.0.0, SVG Export Plug-In . SVG Version: 6.00 Build 0)  -->
<!DOCTYPE svg PUBLIC "-//W3C//DTD SVG 1.1//EN" "http://www.w3.org/Graphics/SVG/1.1/DTD/svg11.dtd">
<svg version="1.1" id="Layer_1" xmlns="http://www.w3.org/2000/svg" xmlns:xlink="http://www.w3.org/1999/xlink" x="0px" y="0px"
	 width="48px" height="48px" viewBox="0 0 48 48" enable-background="new 0 0 48 48" xml:space="preserve">
<path d="M1,2c0,0.553,0.447,1,1,1h4v30h2V2c0-0.553-0.447-1-1-1H2C1.447,1,1,1.447,1,2z"/>
<path d="M46,40H15v2h31c0.553,0,1-0.447,1-1S46.553,40,46,40z"/>
<circle cx="7" cy="41" r="6"/>
<path d="M18,35h22c1.105,0,2-0.895,2-2V15H16v18C16,34.105,16.895,35,18,35z"/>
<path d="M46,12V8c0-0.552-0.448-1-1-1H13c-0.552,0-1,0.448-1,1v4c0,0.552,0.448,1,1,1h32C45.552,13,46,12.552,46,12z"/>
</svg>
