<?xml version="1.0" encoding="utf-8"?>
<!-- Generator: Adobe Illustrator 19.1.0, SVG Export Plug-In . SVG Version: 6.00 Build 0)  -->
<!DOCTYPE svg PUBLIC "-//W3C//DTD SVG 1.1//EN" "http://www.w3.org/Graphics/SVG/1.1/DTD/svg11.dtd">
<svg version="1.1" id="Layer_1" xmlns="http://www.w3.org/2000/svg" xmlns:xlink="http://www.w3.org/1999/xlink" x="0px" y="0px"
	 width="64px" height="64px" viewBox="0 0 64 64" enable-background="new 0 0 64 64" xml:space="preserve">
<path d="M55,45.1V34v-2c0-2.8-2.2-5-5-5H19V17h25c0.6,0,1-0.4,1-1s-0.4-1-1-1H19V2c0-0.6-0.4-1-1-1H8C7.4,1,7,1.4,7,2s0.4,1,1,1h9
	v26.1C8.1,29.6,1,37,1,46c0,9.4,7.6,17,17,17s17-7.6,17-17c0-4.2-1.5-8-4.1-11H53v10.1c-4.5,0.5-8,4.3-8,8.9c0,5,4,9,9,9s9-4,9-9
	C63,49.4,59.5,45.6,55,45.1z M50,29c1.7,0,3,1.3,3,3v1H28.9c-2.7-2.3-6.2-3.7-9.9-3.9V29H50z M18,61C9.7,61,3,54.3,3,46
	s6.7-15,15-15s15,6.7,15,15S26.3,61,18,61z M54,61c-3.9,0-7-3.1-7-7s3.1-7,7-7s7,3.1,7,7S57.9,61,54,61z"/>
</svg>
