<?xml version="1.0" encoding="utf-8"?>
<!-- Generator: Adobe Illustrator 19.1.0, SVG Export Plug-In . SVG Version: 6.00 Build 0)  -->
<!DOCTYPE svg PUBLIC "-//W3C//DTD SVG 1.1//EN" "http://www.w3.org/Graphics/SVG/1.1/DTD/svg11.dtd">
<svg version="1.1" id="Layer_1" xmlns="http://www.w3.org/2000/svg" xmlns:xlink="http://www.w3.org/1999/xlink" x="0px" y="0px"
	 width="64px" height="64px" viewBox="0 0 64 64" enable-background="new 0 0 64 64" xml:space="preserve">
<path d="M54,29c-5,0-9,4-9,9c0,4.6,3.5,8.4,8,8.9C52.5,54.8,46,61,38,61h-2c-8.3,0-15-6.7-15-15v-3h9.6c2.5,0,4.6-1.8,4.9-4.2
	l5.1-32.3c0.1-0.9-0.1-1.7-0.7-2.4S38.5,3,37.7,3H31V2c0-0.6-0.4-1-1-1s-1,0.4-1,1v6c0,0.6,0.4,1,1,1s1-0.4,1-1V5h6.7
	c0.3,0,0.6,0.1,0.8,0.4c0.2,0.2,0.3,0.5,0.2,0.8l-5.1,32.3c-0.2,1.5-1.5,2.5-3,2.5H11.4c-1.5,0-2.7-1.1-3-2.5L3.4,6.2
	c0-0.3,0-0.6,0.2-0.8C3.8,5.1,4,5,4.3,5H11v3c0,0.6,0.4,1,1,1s1-0.4,1-1V2c0-0.6-0.4-1-1-1s-1,0.4-1,1v1H4.3C3.5,3,2.6,3.4,2.1,4.1
	S1.2,5.6,1.4,6.5l5.1,32.3c0.4,2.4,2.5,4.2,4.9,4.2H19v3c0,9.4,7.6,17,17,17h2c9.1,0,16.5-7.1,17-16.1c4.5-0.5,8-4.3,8-8.9
	C63,33,59,29,54,29z M54,45c-3.9,0-7-3.1-7-7s3.1-7,7-7s7,3.1,7,7S57.9,45,54,45z"/>
</svg>
