<?xml version="1.0" encoding="utf-8"?>
<!-- Generator: Adobe Illustrator 19.1.0, SVG Export Plug-In . SVG Version: 6.00 Build 0)  -->
<!DOCTYPE svg PUBLIC "-//W3C//DTD SVG 1.1//EN" "http://www.w3.org/Graphics/SVG/1.1/DTD/svg11.dtd">
<svg version="1.1" id="Layer_1" xmlns="http://www.w3.org/2000/svg" xmlns:xlink="http://www.w3.org/1999/xlink" x="0px" y="0px"
	 width="64px" height="64px" viewBox="0 0 64 64" enable-background="new 0 0 64 64" xml:space="preserve">
<path d="M62.4,1.1C62.3,1,62.1,1,62,1H44c-0.6,0-1,0.4-1,1s0.4,1,1,1h15.6L42.9,19.6C38.5,15.5,32.5,13,26,13C12.2,13,1,24.2,1,38
	s11.2,25,25,25s25-11.2,25-25c0-6.5-2.5-12.5-6.6-16.9L61,4.4V20c0,0.6,0.4,1,1,1s1-0.4,1-1V2c0-0.1,0-0.3-0.1-0.4
	C62.8,1.4,62.6,1.2,62.4,1.1z M26,61C13.3,61,3,50.7,3,38s10.3-23,23-23s23,10.3,23,23S38.7,61,26,61z"/>
</svg>
