<?xml version="1.0" encoding="utf-8"?>
<!-- Generator: Adobe Illustrator 19.1.0, SVG Export Plug-In . SVG Version: 6.00 Build 0)  -->
<!DOCTYPE svg PUBLIC "-//W3C//DTD SVG 1.1//EN" "http://www.w3.org/Graphics/SVG/1.1/DTD/svg11.dtd">
<svg version="1.1" id="Layer_1" xmlns="http://www.w3.org/2000/svg" xmlns:xlink="http://www.w3.org/1999/xlink" x="0px" y="0px"
	 width="64px" height="64px" viewBox="0 0 64 64" enable-background="new 0 0 64 64" xml:space="preserve">
<path d="M53.3,15.5C47.6,11.1,41.2,9.9,34,12c1-4.4,3-6.9,6.6-9.2c0.5-0.3,0.6-0.9,0.3-1.4c-0.3-0.5-0.9-0.6-1.4-0.3
	C35,4,32.8,7.5,31.8,12.6c0,0-0.1,0-0.1,0c-0.7-1.5-1.6-3.1-3-4.5c-3.9-3.9-9.6-4.3-9.9-4.3c-0.3,0-0.6,0.1-0.8,0.3
	c-0.2,0.2-0.3,0.5-0.3,0.8c0,0.2,0.2,3.3,1.9,6.5c-3.2,0.6-6.1,2-9,4.2C7,18.4,3.2,24.7,3,32.5c-0.2,6.8,2.4,17.2,15.4,28.2
	c5.1,4.3,11.7,1.4,13.6,0.4c1.1,0.6,4,1.9,7.2,1.9c2.1,0,4.4-0.6,6.4-2.3c13-11,15.5-21.4,15.4-28.2C60.8,24.7,57,18.4,53.3,15.5z
	 M27.3,9.5c2.4,2.4,3.4,5.7,3.7,7.3c-1.8-0.3-5.2-1.2-7.5-3.5C21.1,11,20.2,7.7,19.9,6C21.7,6.3,24.9,7.1,27.3,9.5z M44.3,59.2
	c-4.8,4.1-11.7,0-11.8-0.1c-0.3-0.2-0.7-0.2-1,0c-0.1,0-7,4.2-11.8,0.1C7.3,48.7,4.9,38.9,5,32.5c0.2-7.1,3.6-12.9,6.9-15.4
	c2.8-2.2,5.7-3.5,8.9-3.9c0.4,0.5,0.8,1,1.3,1.5c3,3,7.2,3.9,9.1,4.2C31,20.2,31,21.5,31,22.9c-2.8-0.3-5.1-1.5-6.6-2.7
	C24,20,23.3,20,23,20.5c-0.3,0.4-0.2,1.1,0.2,1.4c1.9,1.4,4.9,3.1,8.8,3.1c3.8,0,6.9-1.7,8.8-3.1c0.4-0.3,0.5-1,0.2-1.4
	c-0.3-0.4-1-0.5-1.4-0.2c-1.5,1.1-3.7,2.4-6.6,2.6c0-3.5,0.2-6.3,0.5-8.7c7-2.3,13.1-1.4,18.6,2.8c3.3,2.6,6.7,8.3,6.9,15.4
	C59.1,38.9,56.7,48.7,44.3,59.2z"/>
</svg>
