<?xml version="1.0" encoding="utf-8"?>
<!-- Generator: Adobe Illustrator 19.1.0, SVG Export Plug-In . SVG Version: 6.00 Build 0)  -->
<!DOCTYPE svg PUBLIC "-//W3C//DTD SVG 1.1//EN" "http://www.w3.org/Graphics/SVG/1.1/DTD/svg11.dtd">
<svg version="1.1" id="Layer_1" xmlns="http://www.w3.org/2000/svg" xmlns:xlink="http://www.w3.org/1999/xlink" x="0px" y="0px"
	 width="64px" height="64px" viewBox="0 0 64 64" enable-background="new 0 0 64 64" xml:space="preserve">
<path d="M4,31h12c0.4,0,0.7-0.2,0.9-0.6l7.1-14.1l15.1,34.1c0.2,0.4,0.5,0.6,0.9,0.6c0,0,0,0,0,0c0.4,0,0.8-0.3,0.9-0.6L48.7,31H60
	c0.6,0,1-0.4,1-1s-0.4-1-1-1H48c-0.4,0-0.8,0.2-0.9,0.6L40,47.4l-15-33.8C24.8,13.2,24.4,13,24,13c-0.4,0-0.7,0.2-0.9,0.6L15.4,29H4
	c-0.6,0-1,0.4-1,1S3.4,31,4,31z"/>
</svg>
