<?xml version="1.0" encoding="utf-8"?>
<!-- Generator: Adobe Illustrator 19.1.0, SVG Export Plug-In . SVG Version: 6.00 Build 0)  -->
<!DOCTYPE svg PUBLIC "-//W3C//DTD SVG 1.1//EN" "http://www.w3.org/Graphics/SVG/1.1/DTD/svg11.dtd">
<svg version="1.1" id="Layer_1" xmlns="http://www.w3.org/2000/svg" xmlns:xlink="http://www.w3.org/1999/xlink" x="0px" y="0px"
	 width="64px" height="64px" viewBox="0 0 64 64" enable-background="new 0 0 64 64" xml:space="preserve">
<path d="M62,1H2C1.4,1,1,1.4,1,2v60c0,0.6,0.4,1,1,1h60c0.6,0,1-0.4,1-1V2C63,1.4,62.6,1,62,1z M61,61H3V3h58V61z"/>
<path d="M16,39h9v9c0,0.6,0.4,1,1,1h12c0.6,0,1-0.4,1-1v-9h9c0.6,0,1-0.4,1-1V26c0-0.6-0.4-1-1-1h-9v-9c0-0.6-0.4-1-1-1H26
	c-0.6,0-1,0.4-1,1v9h-9c-0.6,0-1,0.4-1,1v12C15,38.6,15.4,39,16,39z M17,27h9c0.6,0,1-0.4,1-1v-9h10v9c0,0.6,0.4,1,1,1h9v10h-9
	c-0.6,0-1,0.4-1,1v9H27v-9c0-0.6-0.4-1-1-1h-9V27z"/>
</svg>
