<?xml version="1.0" encoding="utf-8"?>
<!-- Generator: Adobe Illustrator 19.1.0, SVG Export Plug-In . SVG Version: 6.00 Build 0)  -->
<!DOCTYPE svg PUBLIC "-//W3C//DTD SVG 1.1//EN" "http://www.w3.org/Graphics/SVG/1.1/DTD/svg11.dtd">
<svg version="1.1" id="Layer_1" xmlns="http://www.w3.org/2000/svg" xmlns:xlink="http://www.w3.org/1999/xlink" x="0px" y="0px"
	 width="64px" height="64px" viewBox="0 0 64 64" enable-background="new 0 0 64 64" xml:space="preserve">
<path d="M4,50.7c2.1,5.5,5.5,8.9,9.8,9.5c0.5,0.1,1,0.1,1.6,0.1c2.7,0,5.3-1,7.7-3.1c4.6-4,7.3-11.3,7.3-19.5l0-2.4
	c0-1.1,0-2.1,0-3.1c1.1-0.1,2.3-0.1,3.4,0c0,1,0,2,0,3.1l0,2.4c0,8.2,2.7,15.5,7.3,19.5c2.3,2,5,3.1,7.7,3.1c0.5,0,1,0,1.6-0.1
	c4.2-0.6,7.7-4,9.8-9.5c1.9-5.2,2.5-11.8,1.5-18.5c-2.1-14.7-11-22.4-18.7-22.4c-1.4,0-2.7,0.3-3.8,0.9V2c0-0.6-0.4-1-1-1
	s-1,0.4-1,1v12c0,6.1,4.9,11,11,11c0.6,0,1-0.4,1-1s-0.4-1-1-1c-5,0-9-4-9-9v-0.9c1.1-1.1,2.7-1.3,3.8-1.3c6.8,0,14.8,7.1,16.8,20.7
	c0.9,6.4,0.4,12.6-1.4,17.5c-1.8,4.8-4.7,7.7-8.2,8.2c-2.7,0.4-5.3-0.5-7.6-2.5c-4.2-3.6-6.7-10.3-6.7-18l0-2.4c0-1,0-2,0-2.9
	c4.1,0.4,8.2,1.6,12,3.5C47.9,36,48,36,48.2,36c0.4,0,0.7-0.2,0.9-0.6c0.2-0.5,0-1.1-0.4-1.3c-4.3-2.2-9-3.4-13.7-3.8
	c-0.1,0-0.2,0-0.2-0.1c0,0,0,0,0,0c0,0-0.1,0-0.1,0c-1.7-0.1-3.5-0.1-5.2,0c0,0-0.1,0-0.1,0c0,0,0,0,0,0c-0.1,0-0.2,0-0.2,0.1
	c-4.7,0.4-9.4,1.6-13.7,3.8c-0.5,0.2-0.7,0.8-0.4,1.3c0.2,0.5,0.8,0.7,1.3,0.4c3.8-1.9,7.9-3.1,12-3.5c0,0.9,0,1.9,0,2.9l0,2.4
	c0,7.7-2.5,14.4-6.7,18c-2.3,2-5,2.9-7.6,2.5c-3.5-0.5-6.4-3.4-8.2-8.2C4,45.1,3.5,38.9,4.5,32.5c2-13.6,9.9-20.7,16.8-20.7
	c1.5,0,2.9,0.5,3.8,1.4V14c0,5-4,9-9,9c-0.6,0-1,0.4-1,1s0.4,1,1,1c6.1,0,11-4.9,11-11V2c0-0.6-0.4-1-1-1s-1,0.4-1,1v8.7
	c-1.1-0.6-2.4-0.9-3.8-0.9c-7.7,0-16.6,7.7-18.7,22.4C1.5,38.9,2,45.5,4,50.7z"/>
</svg>
