<?xml version="1.0" encoding="utf-8"?>
<!-- Generator: Adobe Illustrator 19.1.0, SVG Export Plug-In . SVG Version: 6.00 Build 0)  -->
<!DOCTYPE svg PUBLIC "-//W3C//DTD SVG 1.1//EN" "http://www.w3.org/Graphics/SVG/1.1/DTD/svg11.dtd">
<svg version="1.1" id="Layer_1" xmlns="http://www.w3.org/2000/svg" xmlns:xlink="http://www.w3.org/1999/xlink" x="0px" y="0px"
	 width="64px" height="64px" viewBox="0 0 64 64" enable-background="new 0 0 64 64" xml:space="preserve">
<path d="M62,11H45V4c0-0.6-0.4-1-1-1H20c-0.6,0-1,0.4-1,1v7H2c-0.6,0-1,0.4-1,1v48c0,0.6,0.4,1,1,1h60c0.6,0,1-0.4,1-1V12
	C63,11.4,62.6,11,62,11z M21,5h22v6H21V5z M61,59H3V13h58V59z"/>
<path d="M42,31h-5v-5c0-0.6-0.4-1-1-1h-8c-0.6,0-1,0.4-1,1v5h-5c-0.6,0-1,0.4-1,1v8c0,0.6,0.4,1,1,1h5v5c0,0.6,0.4,1,1,1h8
	c0.6,0,1-0.4,1-1v-5h5c0.6,0,1-0.4,1-1v-8C43,31.4,42.6,31,42,31z M41,39h-5c-0.6,0-1,0.4-1,1v5h-6v-5c0-0.6-0.4-1-1-1h-5v-6h5
	c0.6,0,1-0.4,1-1v-5h6v5c0,0.6,0.4,1,1,1h5V39z"/>
</svg>
