<?xml version="1.0" encoding="utf-8"?>
<!-- Generator: Adobe Illustrator 19.1.0, SVG Export Plug-In . SVG Version: 6.00 Build 0)  -->
<!DOCTYPE svg PUBLIC "-//W3C//DTD SVG 1.1//EN" "http://www.w3.org/Graphics/SVG/1.1/DTD/svg11.dtd">
<svg version="1.1" id="Layer_1" xmlns="http://www.w3.org/2000/svg" xmlns:xlink="http://www.w3.org/1999/xlink" x="0px" y="0px"
	 width="64px" height="64px" viewBox="0 0 64 64" enable-background="new 0 0 64 64" xml:space="preserve">
<path d="M50.7,1.3c-0.4-0.4-1-0.4-1.4,0s-0.4,1,0,1.4L51.6,5L43,13.6L32.7,3.3c-0.4-0.4-1-0.4-1.4,0s-0.4,1,0,1.4l7.3,7.3L11.3,39.3
	c-0.4,0.4-0.4,1,0,1.4l5.3,5.3L3.3,59.3c-0.4,0.4-0.4,1,0,1.4C3.5,60.9,3.7,61,4,61s0.5-0.1,0.7-0.3L18,47.4l5.3,5.3
	c0.2,0.2,0.5,0.3,0.7,0.3s0.5-0.1,0.7-0.3L52,25.4l7.3,7.3c0.2,0.2,0.5,0.3,0.7,0.3s0.5-0.1,0.7-0.3c0.4-0.4,0.4-1,0-1.4L50.4,21
	l8.6-8.6l2.3,2.3c0.2,0.2,0.5,0.3,0.7,0.3s0.5-0.1,0.7-0.3c0.4-0.4,0.4-1,0-1.4L50.7,1.3z M24,50.6L13.4,40l6.6-6.6l3.3,3.3
	c0.2,0.2,0.5,0.3,0.7,0.3s0.5-0.1,0.7-0.3c0.4-0.4,0.4-1,0-1.4L21.4,32l4.6-4.6l3.3,3.3c0.2,0.2,0.5,0.3,0.7,0.3s0.5-0.1,0.7-0.3
	c0.4-0.4,0.4-1,0-1.4L27.4,26l4.6-4.6l3.3,3.3c0.2,0.2,0.5,0.3,0.7,0.3s0.5-0.1,0.7-0.3c0.4-0.4,0.4-1,0-1.4L33.4,20l6.6-6.6
	L50.6,24L24,50.6z M49,19.6L44.4,15L53,6.4l4.6,4.6L49,19.6z"/>
</svg>
