<?xml version="1.0" encoding="utf-8"?>
<!-- Generator: Adobe Illustrator 19.1.0, SVG Export Plug-In . SVG Version: 6.00 Build 0)  -->
<!DOCTYPE svg PUBLIC "-//W3C//DTD SVG 1.1//EN" "http://www.w3.org/Graphics/SVG/1.1/DTD/svg11.dtd">
<svg version="1.1" id="Layer_1" xmlns="http://www.w3.org/2000/svg" xmlns:xlink="http://www.w3.org/1999/xlink" x="0px" y="0px"
	 width="64px" height="64px" viewBox="0 0 64 64" enable-background="new 0 0 64 64" xml:space="preserve">
<path d="M20.5,57.9c1,1,2.3,1.5,3.5,1.5s2.6-0.5,3.5-1.5l5.2-5.2l22-22l5.2-5.2c1.9-1.9,1.9-5.1,0-7.1L45.5,4.1c-1.9-2-5.1-2-7.1,0
	l-5.2,5.2l-22,22l-5.2,5.2c-1.9,1.9-1.9,5.1,0,7.1L20.5,57.9z M39.9,5.5c1.2-1.2,3.1-1.2,4.2,0l14.3,14.3c1.2,1.2,1.2,3.1,0,4.2
	L54,28.6L35.4,10L39.9,5.5z M34,11.4L52.6,30L32,50.6L13.4,32L34,11.4z M7.5,37.9l4.5-4.5L30.6,52l-4.5,4.5c-1.2,1.2-3.1,1.2-4.2,0
	L7.5,42.1C6.4,41,6.4,39,7.5,37.9z"/>
<path d="M34,27c1.7,0,3-1.3,3-3s-1.3-3-3-3s-3,1.3-3,3S32.3,27,34,27z M34,23c0.6,0,1,0.4,1,1s-0.4,1-1,1s-1-0.4-1-1S33.4,23,34,23z
	"/>
<path d="M40,33c1.7,0,3-1.3,3-3s-1.3-3-3-3s-3,1.3-3,3S38.3,33,40,33z M40,29c0.6,0,1,0.4,1,1s-0.4,1-1,1s-1-0.4-1-1S39.4,29,40,29z
	"/>
<path d="M26,29c-1.7,0-3,1.3-3,3s1.3,3,3,3s3-1.3,3-3S27.7,29,26,29z M26,33c-0.6,0-1-0.4-1-1s0.4-1,1-1s1,0.4,1,1S26.6,33,26,33z"
	/>
<path d="M35,38c0-1.7-1.3-3-3-3s-3,1.3-3,3s1.3,3,3,3S35,39.7,35,38z M31,38c0-0.6,0.4-1,1-1s1,0.4,1,1s-0.4,1-1,1S31,38.6,31,38z"
	/>
</svg>
