<?xml version="1.0" encoding="utf-8"?>
<!-- Generator: Adobe Illustrator 19.1.0, SVG Export Plug-In . SVG Version: 6.00 Build 0)  -->
<!DOCTYPE svg PUBLIC "-//W3C//DTD SVG 1.1//EN" "http://www.w3.org/Graphics/SVG/1.1/DTD/svg11.dtd">
<svg version="1.1" id="Layer_1" xmlns="http://www.w3.org/2000/svg" xmlns:xlink="http://www.w3.org/1999/xlink" x="0px" y="0px"
	 width="64px" height="64px" viewBox="0 0 64 64" enable-background="new 0 0 64 64" xml:space="preserve">
<path d="M17,40c0,8.3,6.7,15,15,15s15-6.7,15-15c0-0.6-0.4-1-1-1H18C17.4,39,17,39.4,17,40z M45,41c-0.5,6.7-6.1,12-13,12
	s-12.4-5.3-13-12H45z"/>
<path d="M40,1H24c-0.6,0-1,0.4-1,1v16.9C14.5,22.5,9,30.7,9,40c0,12.7,10.3,23,23,23s23-10.3,23-23c0-9.3-5.5-17.5-14-21.1V2
	C41,1.4,40.6,1,40,1z M53,40c0,11.6-9.4,21-21,21s-21-9.4-21-21c0-8.7,5.2-16.4,13.4-19.5c0.4-0.1,0.6-0.5,0.6-0.9V3h14v16.5
	c0,0.4,0.3,0.8,0.6,0.9C47.8,23.6,53,31.3,53,40z"/>
</svg>
