<?xml version="1.0" encoding="utf-8"?>
<!-- Generator: Adobe Illustrator 19.1.0, SVG Export Plug-In . SVG Version: 6.00 Build 0)  -->
<!DOCTYPE svg PUBLIC "-//W3C//DTD SVG 1.1//EN" "http://www.w3.org/Graphics/SVG/1.1/DTD/svg11.dtd">
<svg version="1.1" id="Layer_1" xmlns="http://www.w3.org/2000/svg" xmlns:xlink="http://www.w3.org/1999/xlink" x="0px" y="0px"
	 width="64px" height="64px" viewBox="0 0 64 64" enable-background="new 0 0 64 64" xml:space="preserve">
<path d="M52.3,9l-20-6C32.1,3,31.9,3,31.7,3l-20,6c-0.5,0.1-0.8,0.6-0.7,1l2,22v12c0,10.5,8.5,19,19,19s19-8.5,19-19V32l2-22
	C53,9.6,52.7,9.2,52.3,9z M32,5l18.9,5.7L49.1,31H14.9l-1.8-20.3L32,5z M15,33h20.9c-4.5,4.9-12,8-19.9,8c-0.3,0-0.7,0-1,0V33z
	 M49,40.7c-4.1-0.9-7.4-3.5-9.4-7.7H49V40.7z M32,61c-9.4,0-17-7.6-17-17v-1c0.3,0,0.7,0,1,0c8.7,0,17-3.5,21.8-9.1
	c2.4,4.9,6.3,7.9,11.2,8.8V44C49,53.4,41.4,61,32,61z"/>
<path d="M26,19h5v5c0,0.6,0.4,1,1,1s1-0.4,1-1v-5h5c0.6,0,1-0.4,1-1s-0.4-1-1-1h-5v-5c0-0.6-0.4-1-1-1s-1,0.4-1,1v5h-5
	c-0.6,0-1,0.4-1,1S25.4,19,26,19z"/>
</svg>
