<?xml version="1.0" encoding="utf-8"?>
<!-- Generator: Adobe Illustrator 19.1.0, SVG Export Plug-In . SVG Version: 6.00 Build 0)  -->
<!DOCTYPE svg PUBLIC "-//W3C//DTD SVG 1.1//EN" "http://www.w3.org/Graphics/SVG/1.1/DTD/svg11.dtd">
<svg version="1.1" id="Layer_1" xmlns="http://www.w3.org/2000/svg" xmlns:xlink="http://www.w3.org/1999/xlink" x="0px" y="0px"
	 width="64px" height="64px" viewBox="0 0 64 64" enable-background="new 0 0 64 64" xml:space="preserve">
<path d="M18,11h3v41c0,6.1,4.9,11,11,11s11-4.9,11-11V11h3c0.6,0,1-0.4,1-1V2c0-0.6-0.4-1-1-1H18c-0.6,0-1,0.4-1,1v8
	C17,10.6,17.4,11,18,11z M32,61c-5,0-9-4-9-9v-5h7c0.6,0,1-0.4,1-1s-0.4-1-1-1h-7v-6h7c0.6,0,1-0.4,1-1s-0.4-1-1-1h-7v-6h7
	c0.6,0,1-0.4,1-1s-0.4-1-1-1h-7V19h18v33C41,57,37,61,32,61z M19,3h26v6h-3c-0.6,0-1,0.4-1,1v7H23v-7c0-0.6-0.4-1-1-1h-3V3z"/>
</svg>
