<?xml version="1.0" encoding="utf-8"?>
<!-- Generator: Adobe Illustrator 19.1.0, SVG Export Plug-In . SVG Version: 6.00 Build 0)  -->
<!DOCTYPE svg PUBLIC "-//W3C//DTD SVG 1.1//EN" "http://www.w3.org/Graphics/SVG/1.1/DTD/svg11.dtd">
<svg version="1.1" id="Layer_1" xmlns="http://www.w3.org/2000/svg" xmlns:xlink="http://www.w3.org/1999/xlink" x="0px" y="0px"
	 width="64px" height="64px" viewBox="0 0 64 64" enable-background="new 0 0 64 64" xml:space="preserve">
<path d="M43.5,5.2C43.2,5,42.9,5,42.6,5c-5.4,1.4-8.6,6.8-7.3,12.2c0.9,3.7,3.8,6.6,7.4,7.4c0.8,0.2,1.6,0.3,2.4,0.3
	c4.6,0,8.7-3,9.8-7.6c0.1-0.3,0-0.6-0.2-0.9c-0.2-0.2-0.5-0.4-0.8-0.4h-4.3c-3.2,0-5.9-2.6-5.9-5.9V6C43.9,5.7,43.7,5.4,43.5,5.2z
	 M49.7,18.1h2.9c-1.6,3.6-5.5,5.6-9.4,4.6c-2.9-0.7-5.3-3.1-5.9-5.9c-0.9-4,1.1-7.9,4.6-9.4v2.9C41.9,14.6,45.4,18.1,49.7,18.1z"/>
<path d="M24,17c-0.4,0-0.7,0.2-0.9,0.6L15.4,33H4c-0.6,0-1,0.4-1,1s0.4,1,1,1h12c0.4,0,0.7-0.2,0.9-0.6l7.1-14.1l15.1,34.1
	c0.2,0.4,0.5,0.6,0.9,0.6c0,0,0,0,0,0c0.4,0,0.8-0.3,0.9-0.6L48.7,35H60c0.6,0,1-0.4,1-1s-0.4-1-1-1H48c-0.4,0-0.8,0.2-0.9,0.6
	L40,51.4l-15-33.8C24.8,17.2,24.4,17,24,17z"/>
</svg>
