<?xml version="1.0" encoding="utf-8"?>
<!-- Generator: Adobe Illustrator 19.1.0, SVG Export Plug-In . SVG Version: 6.00 Build 0)  -->
<!DOCTYPE svg PUBLIC "-//W3C//DTD SVG 1.1//EN" "http://www.w3.org/Graphics/SVG/1.1/DTD/svg11.dtd">
<svg version="1.1" id="Layer_1" xmlns="http://www.w3.org/2000/svg" xmlns:xlink="http://www.w3.org/1999/xlink" x="0px" y="0px"
	 width="64px" height="64px" viewBox="0 0 64 64" enable-background="new 0 0 64 64" xml:space="preserve">
<path d="M32.9,3.5c-0.4-0.6-1.4-0.6-1.7,0c-0.2,0.4-5.7,9.6-5.7,21.2c0,11.6,5.4,20.8,5.7,21.2c0.2,0.3,0.5,0.5,0.9,0.5
	s0.7-0.2,0.9-0.5c0.2-0.4,5.7-9.6,5.7-21.2C38.5,13.1,33.1,3.9,32.9,3.5z M32,43.3c-1.5-3.1-4.5-10.3-4.5-18.6
	c0-8.3,3-15.5,4.5-18.6c1.5,3.1,4.5,10.3,4.5,18.6C36.5,33,33.5,40.2,32,43.3z"/>
<path d="M37.3,48.9c0.2,0.2,0.4,0.3,0.7,0.3c0.1,0,0.1,0,0.2,0c0.3-0.1,7.6-1.5,13.1-7c5.5-5.5,6.9-12.7,7-13.1
	c0.1-0.3,0-0.7-0.3-0.9C57.7,28,57.3,27.9,57,28c-0.3,0.1-7.6,1.5-13.1,7c-5.5,5.5-6.9,12.7-7,13.1C37,48.3,37.1,48.7,37.3,48.9z
	 M45.4,36.4c3.6-3.6,8.1-5.3,10.4-6c-0.7,2.3-2.4,6.9-6,10.4c-3.6,3.6-8.1,5.3-10.4,6C40.1,44.4,41.8,39.9,45.4,36.4z"/>
<path d="M48.5,51c-6.1,0-10.9,4.1-11.1,4.2C37.1,55.4,37,55.7,37,56s0.1,0.6,0.4,0.8c0.2,0.2,5,4.2,11.1,4.2
	c6.1,0,10.9-4.1,11.1-4.2c0.2-0.2,0.4-0.5,0.4-0.8s-0.1-0.6-0.4-0.8C59.4,55.1,54.6,51,48.5,51z M48.5,59c-3.8,0-7.2-1.9-8.8-3
	c1.6-1.1,5-3,8.8-3c3.8,0,7.2,1.9,8.8,3C55.7,57.1,52.3,59,48.5,59z"/>
<path d="M25.8,49c0.1,0,0.1,0,0.2,0c0.3,0,0.5-0.1,0.7-0.3c0.2-0.2,0.3-0.6,0.3-0.9c-0.1-0.3-1.5-7.6-7-13.1
	c-5.5-5.5-12.7-6.9-13.1-7c-0.3-0.1-0.7,0-0.9,0.3c-0.2,0.2-0.3,0.6-0.3,0.9c0.1,0.3,1.5,7.6,7,13.1C18.2,47.5,25.5,48.9,25.8,49z
	 M18.6,36.2c3.6,3.6,5.3,8.1,6,10.4c-2.4-0.7-6.9-2.4-10.4-6c-3.6-3.6-5.3-8.1-6-10.4C10.5,30.9,15.1,32.6,18.6,36.2z"/>
<path d="M15.5,51c-6.1,0-10.9,4.1-11.1,4.2C4.1,55.4,4,55.7,4,56s0.1,0.6,0.4,0.8c0.2,0.2,5,4.2,11.1,4.2c6.1,0,10.9-4.1,11.1-4.2
	c0.2-0.2,0.4-0.5,0.4-0.8s-0.1-0.6-0.4-0.8C26.4,55.1,21.6,51,15.5,51z M15.5,59c-3.8,0-7.2-1.9-8.8-3c1.6-1.1,5-3,8.8-3
	c3.8,0,7.2,1.9,8.8,3C22.7,57.1,19.3,59,15.5,59z"/>
</svg>
