<?xml version="1.0" encoding="utf-8"?>
<!-- Generator: Adobe Illustrator 19.1.0, SVG Export Plug-In . SVG Version: 6.00 Build 0)  -->
<!DOCTYPE svg PUBLIC "-//W3C//DTD SVG 1.1//EN" "http://www.w3.org/Graphics/SVG/1.1/DTD/svg11.dtd">
<svg version="1.1" id="Layer_1" xmlns="http://www.w3.org/2000/svg" xmlns:xlink="http://www.w3.org/1999/xlink" x="0px" y="0px"
	 width="64px" height="64px" viewBox="0 0 64 64" enable-background="new 0 0 64 64" xml:space="preserve">
<path d="M32,63c11.1,0,23-8.1,23-23C55,25.9,33.6,4.2,32.7,3.3c-0.4-0.4-1-0.4-1.4,0C30.4,4.2,9,25.9,9,40C9,54.9,20.9,63,32,63z
	 M32,5.4C35.7,9.4,53,28.1,53,40c0,13.6-10.8,21-21,21s-21-7.4-21-21C11,28.1,28.3,9.4,32,5.4z"/>
<path d="M32,49c0.5,0,1-0.4,1-1c0-0.5-0.4-1-1-1c-0.3,0-7-0.2-7-7c0-0.6-0.4-1-1-1s-1,0.4-1,1C23,48.9,31.9,49,32,49z"/>
</svg>
