<?xml version="1.0" encoding="utf-8"?>
<!-- Generator: Adobe Illustrator 19.1.0, SVG Export Plug-In . SVG Version: 6.00 Build 0)  -->
<!DOCTYPE svg PUBLIC "-//W3C//DTD SVG 1.1//EN" "http://www.w3.org/Graphics/SVG/1.1/DTD/svg11.dtd">
<svg version="1.1" id="Layer_1" xmlns="http://www.w3.org/2000/svg" xmlns:xlink="http://www.w3.org/1999/xlink" x="0px" y="0px"
	 width="64px" height="64px" viewBox="0 0 64 64" enable-background="new 0 0 64 64" xml:space="preserve">
<path d="M62,1H2C1.4,1,1,1.4,1,2v60c0,0.6,0.4,1,1,1h60c0.6,0,1-0.4,1-1V2C63,1.4,62.6,1,62,1z M61,3v28H48c-0.4,0-0.7,0.2-0.9,0.6
	L40,45.8L24.9,15.6c-0.3-0.7-1.4-0.7-1.8,0L15.4,31H3V3H61z M3,61V33h13c0.4,0,0.7-0.2,0.9-0.6L24,18.2l15.1,30.2
	c0.2,0.3,0.5,0.6,0.9,0.6s0.7-0.2,0.9-0.6L48.6,33H61v28H3z"/>
</svg>
