<?xml version="1.0" encoding="utf-8"?>
<!-- Generator: Adobe Illustrator 20.0.0, SVG Export Plug-In . SVG Version: 6.00 Build 0)  -->
<!DOCTYPE svg PUBLIC "-//W3C//DTD SVG 1.1//EN" "http://www.w3.org/Graphics/SVG/1.1/DTD/svg11.dtd">
<svg version="1.1" id="Layer_1" xmlns="http://www.w3.org/2000/svg" xmlns:xlink="http://www.w3.org/1999/xlink" x="0px" y="0px"
	 width="64px" height="64px" viewBox="0 0 64 64" enable-background="new 0 0 64 64" xml:space="preserve">
<path d="M28,33c8.585,0,15-8.975,15-17c0-8.271-6.729-15-15-15S13,7.729,13,16C13,24.025,19.415,33,28,33z"/>
<path d="M54.17,60.825c-0.138,0.066-0.283,0.114-0.423,0.175H54c0.102,0,0.194-0.03,0.287-0.058L54.17,60.825z"/>
<path d="M2,61h42.218C39.976,59.148,37,54.917,37,50c0-3.955,1.932-7.459,4.893-9.647C38.122,39.559,33.513,39,28,39
	c-11.118,0-18.567,2.269-22.858,4.173C2.625,44.288,1,46.798,1,49.567V60C1,60.552,1.448,61,2,61z"/>
<path d="M57.338,55.509C58.386,53.928,59,52.035,59,50c0-5.514-4.486-10-10-10s-10,4.486-10,10s4.486,10,10,10
	c2.035,0,3.928-0.615,5.509-1.663l5.369,5.37c0.391,0.391,1.024,0.391,1.414,0l1.414-1.414c0.391-0.391,0.391-1.024,0-1.414
	L57.338,55.509z M49,58c-4.411,0-8-3.589-8-8s3.589-8,8-8s8,3.589,8,8S53.411,58,49,58z"/>
</svg>
