<?xml version="1.0" encoding="utf-8"?>
<!-- Generator: Adobe Illustrator 20.0.0, SVG Export Plug-In . SVG Version: 6.00 Build 0)  -->
<!DOCTYPE svg PUBLIC "-//W3C//DTD SVG 1.1//EN" "http://www.w3.org/Graphics/SVG/1.1/DTD/svg11.dtd">
<svg version="1.1" id="Layer_1" xmlns="http://www.w3.org/2000/svg" xmlns:xlink="http://www.w3.org/1999/xlink" x="0px" y="0px"
	 width="64px" height="64px" viewBox="0 0 64 64" enable-background="new 0 0 64 64" xml:space="preserve">
<path d="M62,8h-3v12h3c0.552,0,1-0.448,1-1V9C63,8.448,62.552,8,62,8z"/>
<path d="M62,24h-3v12h3c0.552,0,1-0.448,1-1V25C63,24.448,62.552,24,62,24z"/>
<path d="M57,58V6c0-2.757-2.324-5-5.182-5H15v62h36.818C54.676,63,57,60.757,57,58z M36,20c2.757,0,5,2.243,5,5s-2.243,5-5,5
	s-5-2.243-5-5S33.243,20,36,20z M46,43H26c-0.553,0-1-0.448-1-1c0-4.962,4.037-9,9-9h4c4.963,0,9,4.038,9,9
	C47,42.552,46.553,43,46,43z"/>
<path d="M13,63V1H7C5.895,1,5,1.895,5,3v58c0,1.105,0.895,2,2,2H13z"/>
</svg>
