<?xml version="1.0" encoding="utf-8"?>
<!-- Generator: Adobe Illustrator 20.0.0, SVG Export Plug-In . SVG Version: 6.00 Build 0)  -->
<!DOCTYPE svg PUBLIC "-//W3C//DTD SVG 1.1//EN" "http://www.w3.org/Graphics/SVG/1.1/DTD/svg11.dtd">
<svg version="1.1" id="Layer_1" xmlns="http://www.w3.org/2000/svg" xmlns:xlink="http://www.w3.org/1999/xlink" x="0px" y="0px"
	 width="64px" height="64px" viewBox="0 0 64 64" enable-background="new 0 0 64 64" xml:space="preserve">
<path d="M51,42c0,10.477-8.523,19-19,19s-19-8.523-19-19v-5h-2v5c0,11.579,9.421,21,21,21s21-9.421,21-21v-5h-2V42z"/>
<path d="M58.359,13.066l-26-10c-0.232-0.088-0.486-0.088-0.719,0l-26,10c-0.263,0.102-0.471,0.31-0.573,0.572
	c-0.102,0.263-0.088,0.557,0.038,0.809L10.882,26H17c0.553,0,1,0.447,1,1s-0.447,1-1,1h-6v7h42v-7h-6c-0.553,0-1-0.447-1-1
	s0.447-1,1-1h6.118l5.776-11.553c0.126-0.252,0.14-0.546,0.038-0.809C58.83,13.376,58.622,13.168,58.359,13.066z M32,28
	c-3.314,0-6-2.686-6-6s2.686-6,6-6s6,2.686,6,6S35.314,28,32,28z"/>
</svg>
