<?xml version="1.0" encoding="utf-8"?>
<!-- Generator: Adobe Illustrator 20.0.0, SVG Export Plug-In . SVG Version: 6.00 Build 0)  -->
<!DOCTYPE svg PUBLIC "-//W3C//DTD SVG 1.1//EN" "http://www.w3.org/Graphics/SVG/1.1/DTD/svg11.dtd">
<svg version="1.1" id="Layer_1" xmlns="http://www.w3.org/2000/svg" xmlns:xlink="http://www.w3.org/1999/xlink" x="0px" y="0px"
	 width="64px" height="64px" viewBox="0 0 64 64" enable-background="new 0 0 64 64" xml:space="preserve">
<path d="M28,33c8.585,0,15-8.975,15-17c0-8.271-6.729-15-15-15S13,7.729,13,16C13,24.025,19.415,33,28,33z"/>
<path d="M2,61h42.862l-7.102-7.352c-3.663-3.791-3.663-9.959,0-13.75c0.076-0.079,0.16-0.147,0.238-0.223
	C35.065,39.261,31.746,39,28,39c-11.118,0-18.567,2.269-22.858,4.173C2.625,44.288,1,46.798,1,49.567V60C1,60.552,1.448,61,2,61z"/>
<path d="M39.198,52.259L49.28,62.695C49.468,62.89,49.728,63,49.999,63s0.531-0.11,0.719-0.305l10.084-10.436
	c2.922-3.024,2.922-7.946,0-10.97c-1.601-1.655-3.811-2.476-6.072-2.252c-1.825,0.182-3.491,1.025-4.73,2.365
	c-1.239-1.34-2.905-2.183-4.729-2.365c-2.255-0.218-4.472,0.596-6.073,2.252C36.275,44.313,36.275,49.234,39.198,52.259z"/>
</svg>
