<?xml version="1.0" encoding="utf-8"?>
<!-- Generator: Adobe Illustrator 20.0.0, SVG Export Plug-In . SVG Version: 6.00 Build 0)  -->
<!DOCTYPE svg PUBLIC "-//W3C//DTD SVG 1.1//EN" "http://www.w3.org/Graphics/SVG/1.1/DTD/svg11.dtd">
<svg version="1.1" id="Layer_1" xmlns="http://www.w3.org/2000/svg" xmlns:xlink="http://www.w3.org/1999/xlink" x="0px" y="0px"
	 width="64px" height="64px" viewBox="0 0 64 64" enable-background="new 0 0 64 64" xml:space="preserve">
<path d="M49.728,3c-3.927,0-7.63,1.708-10.162,4.686c-2.2,2.589-3.263,5.805-3.056,9.176c-3-0.48-6.02-0.48-9.02,0
	c0.207-3.371-0.854-6.586-3.056-9.175C21.903,4.708,18.199,3,14.272,3C6.954,3,1,8.899,1,16.15c0,5.301,3.183,9.977,8.051,12.031
	c-4.364,6.085-5.796,13.851-4.028,22.03c0.057,0.26,0.214,0.486,0.438,0.63C14.009,56.332,22.69,59,32,59s17.991-2.668,26.54-8.159
	c0.224-0.144,0.381-0.37,0.438-0.63c1.769-8.18,0.336-15.945-4.028-22.03C59.817,26.127,63,21.451,63,16.15
	C63,8.899,57.046,3,49.728,3z"/>
</svg>
