<?xml version="1.0" encoding="utf-8"?>
<!-- Generator: Adobe Illustrator 20.0.0, SVG Export Plug-In . SVG Version: 6.00 Build 0)  -->
<!DOCTYPE svg PUBLIC "-//W3C//DTD SVG 1.1//EN" "http://www.w3.org/Graphics/SVG/1.1/DTD/svg11.dtd">
<svg version="1.1" id="Layer_1" xmlns="http://www.w3.org/2000/svg" xmlns:xlink="http://www.w3.org/1999/xlink" x="0px" y="0px"
	 width="64px" height="64px" viewBox="0 0 64 64" enable-background="new 0 0 64 64" xml:space="preserve">
<path d="M4,63h56c0.552,0,1-0.448,1-1v-8.826c0-3.781-2.378-7.181-5.918-8.46C50.396,43.02,42.587,41,32,41
	s-18.396,2.02-23.082,3.713C5.378,45.993,3,49.393,3,53.174V62C3,62.552,3.448,63,4,63z"/>
<path d="M32,35c8.271,0,15-6.729,15-15v-4c0-8.271-6.729-15-15-15S17,7.729,17,16v4C17,28.271,23.729,35,32,35z"/>
</svg>
