<?xml version="1.0" encoding="utf-8"?>
<!-- Generator: Adobe Illustrator 20.0.0, SVG Export Plug-In . SVG Version: 6.00 Build 0)  -->
<!DOCTYPE svg PUBLIC "-//W3C//DTD SVG 1.1//EN" "http://www.w3.org/Graphics/SVG/1.1/DTD/svg11.dtd">
<svg version="1.1" id="Layer_1" xmlns="http://www.w3.org/2000/svg" xmlns:xlink="http://www.w3.org/1999/xlink" x="0px" y="0px"
	 width="64px" height="64px" viewBox="0 0 64 64" enable-background="new 0 0 64 64" xml:space="preserve">
<path d="M7.594,58.914C7.969,59.081,16.961,63,32,63s24.031-3.919,24.406-4.086C56.767,58.753,57,58.395,57,58
	c0-10.477-8.523-19-19-19H26C15.523,39,7,47.523,7,58C7,58.395,7.233,58.753,7.594,58.914z"/>
<path d="M32,33c8.585,0,15-8.975,15-17c0-8.271-6.729-15-15-15S17,7.729,17,16C17,24.025,23.415,33,32,33z"/>
</svg>
