<?xml version="1.0" encoding="utf-8"?>
<!-- Generator: Adobe Illustrator 20.0.0, SVG Export Plug-In . SVG Version: 6.00 Build 0)  -->
<!DOCTYPE svg PUBLIC "-//W3C//DTD SVG 1.1//EN" "http://www.w3.org/Graphics/SVG/1.1/DTD/svg11.dtd">
<svg version="1.1" id="Layer_1" xmlns="http://www.w3.org/2000/svg" xmlns:xlink="http://www.w3.org/1999/xlink" x="0px" y="0px"
	 width="64px" height="64px" viewBox="0 0 64 64" enable-background="new 0 0 64 64" xml:space="preserve">
<circle cx="50" cy="36" r="7"/>
<circle cx="14" cy="36" r="7"/>
<path d="M27,60v-5.965c0-1.763-0.941-3.414-2.457-4.31C22.442,48.482,18.907,47,14,47c-4.972,0-8.489,1.478-10.564,2.717
	C1.934,50.613,1,52.26,1,54.014V60c0,0.553,0.447,1,1,1h24C26.553,61,27,60.553,27,60z"/>
<path d="M60.543,49.726C58.442,48.482,54.907,47,50,47c-4.972,0-8.489,1.478-10.564,2.717C37.934,50.613,37,52.26,37,54.014V60
	c0,0.553,0.447,1,1,1h24c0.553,0,1-0.447,1-1v-5.965C63,52.272,62.059,50.621,60.543,49.726z"/>
<path d="M41.293,5.293L28,18.586l-5.293-5.293c-0.391-0.391-1.023-0.391-1.414,0s-0.391,1.023,0,1.414l6,6
	C27.488,20.902,27.744,21,28,21s0.512-0.098,0.707-0.293l14-14c0.391-0.391,0.391-1.023,0-1.414S41.684,4.902,41.293,5.293z"/>
</svg>
