<?xml version="1.0" encoding="utf-8"?>
<!-- Generator: Adobe Illustrator 20.0.0, SVG Export Plug-In . SVG Version: 6.00 Build 0)  -->
<!DOCTYPE svg PUBLIC "-//W3C//DTD SVG 1.1//EN" "http://www.w3.org/Graphics/SVG/1.1/DTD/svg11.dtd">
<svg version="1.1" id="Layer_1" xmlns="http://www.w3.org/2000/svg" xmlns:xlink="http://www.w3.org/1999/xlink" x="0px" y="0px"
	 width="64px" height="64px" viewBox="0 0 64 64" enable-background="new 0 0 64 64" xml:space="preserve">
<path d="M52,13c-0.553,0-1,0.448-1,1v21h-7c-0.394,0-0.751,0.231-0.912,0.59s-0.097,0.78,0.165,1.074l8,9
	C51.442,45.878,51.715,46,52,46s0.558-0.122,0.747-0.335l8-9c0.262-0.294,0.326-0.715,0.165-1.074S60.394,35,60,35h-7V14
	C53,13.448,52.553,13,52,13z"/>
<path d="M27.998,62.062l0.958-15.327l5.36-1.787C34.725,44.812,35,44.431,35,44V31c0-4.962-4.037-9-9-9H14c-4.963,0-9,4.038-9,9v13
	c0,0.431,0.275,0.812,0.684,0.949l5.36,1.787l0.958,15.327C12.035,62.589,12.472,63,13,63h14C27.528,63,27.965,62.589,27.998,62.062
	z"/>
<path d="M29,10c0-4.962-4.037-9-9-9s-9,4.038-9,9s4.037,9,9,9S29,14.962,29,10z"/>
</svg>
