<?xml version="1.0" encoding="utf-8"?>
<!-- Generator: Adobe Illustrator 20.0.0, SVG Export Plug-In . SVG Version: 6.00 Build 0)  -->
<!DOCTYPE svg PUBLIC "-//W3C//DTD SVG 1.1//EN" "http://www.w3.org/Graphics/SVG/1.1/DTD/svg11.dtd">
<svg version="1.1" id="Layer_1" xmlns="http://www.w3.org/2000/svg" xmlns:xlink="http://www.w3.org/1999/xlink" x="0px" y="0px"
	 width="64px" height="64px" viewBox="0 0 64 64" enable-background="new 0 0 64 64" xml:space="preserve">
<path d="M9.527,46.38C5.684,47.479,3,51.037,3,55.034V62c0,0.553,0.448,1,1,1h56c0.552,0,1-0.447,1-1v-6.966
	c0-3.997-2.684-7.556-6.527-8.654L40,42.246v-3.562c2.577-2.243,4.708-5.434,5.937-8.884c1.992-0.592,3.583-2.554,3.972-4.99
	c0.443-2.778-0.806-5.404-2.909-6.363V14c0-3.718-2.621-7.708-8.359-7.984l-1.459-3.093C36.51,1.578,34.9,0.959,33.513,1.512
	L22.504,5.916C19.417,7.15,17,10.721,17,14.045v4.401c-2.103,0.959-3.352,3.585-2.909,6.363c0.389,2.437,1.98,4.398,3.972,4.99
	c1.229,3.451,3.36,6.641,5.937,8.884v3.562L9.527,46.38z"/>
</svg>
