<?xml version="1.0" encoding="utf-8"?>
<!-- Generator: Adobe Illustrator 20.0.0, SVG Export Plug-In . SVG Version: 6.00 Build 0)  -->
<!DOCTYPE svg PUBLIC "-//W3C//DTD SVG 1.1//EN" "http://www.w3.org/Graphics/SVG/1.1/DTD/svg11.dtd">
<svg version="1.1" id="Layer_1" xmlns="http://www.w3.org/2000/svg" xmlns:xlink="http://www.w3.org/1999/xlink" x="0px" y="0px"
	 width="64px" height="64px" viewBox="0 0 64 64" enable-background="new 0 0 64 64" xml:space="preserve">
<circle cx="28" cy="9" r="7"/>
<path d="M20,61c-7.168,0-13-5.832-13-13s5.832-13,13-13v-2c-8.271,0-15,6.729-15,15s6.729,15,15,15s15-6.729,15-15h-2
	C33,55.168,27.168,61,20,61z"/>
<path d="M48.607,40.655c-0.375-1.021-1.274-1.76-2.348-1.93L33,36.632v-5.531l1.538,1.948c0.385,0.488,0.938,0.815,1.551,0.917l6,1
	C42.229,34.989,42.366,35,42.503,35c1.2,0,2.259-0.866,2.463-2.089c0.228-1.362-0.693-2.65-2.055-2.877l-5.048-0.842
	c0,0-5.718-7.989-5.719-7.99l-0.003-0.004c0,0-0.001-0.001-0.002-0.001C31.24,19.871,29.722,19,28,19c-2.761,0-5,2.239-5,5v17
	c0,2.209,1.791,4,4,4h1.5H33h10.865l6.345,14.502c0.41,0.938,1.328,1.499,2.291,1.499c0.335,0,0.675-0.068,1.001-0.211
	c1.265-0.553,1.842-2.027,1.288-3.292L48.607,40.655z"/>
</svg>
