<?xml version="1.0" encoding="utf-8"?>
<!-- Generator: Adobe Illustrator 20.0.0, SVG Export Plug-In . SVG Version: 6.00 Build 0)  -->
<!DOCTYPE svg PUBLIC "-//W3C//DTD SVG 1.1//EN" "http://www.w3.org/Graphics/SVG/1.1/DTD/svg11.dtd">
<svg version="1.1" id="Layer_1" xmlns="http://www.w3.org/2000/svg" xmlns:xlink="http://www.w3.org/1999/xlink" x="0px" y="0px"
	 width="64px" height="64px" viewBox="0 0 64 64" enable-background="new 0 0 64 64" xml:space="preserve">
<circle cx="50" cy="42" r="7"/>
<circle cx="14" cy="42" r="7"/>
<path d="M45,28v-1.965c0-1.762-0.941-3.413-2.458-4.31C40.441,20.482,36.907,19,32,19c-4.972,0-8.489,1.478-10.564,2.717
	C19.934,22.613,19,24.26,19,26.014V28c0,0.552,0.447,1,1,1h24C44.553,29,45,28.552,45,28z"/>
<path d="M2,63h24c0.553,0,1-0.448,1-1v-1.965c0-1.762-0.941-3.413-2.458-4.31C22.441,54.482,18.907,53,14,53
	c-4.972,0-8.489,1.478-10.564,2.717C1.934,56.613,1,58.26,1,60.014V62C1,62.552,1.447,63,2,63z"/>
<path d="M38,63h24c0.553,0,1-0.448,1-1v-1.965c0-1.762-0.941-3.413-2.458-4.31C58.441,54.482,54.907,53,50,53
	c-4.972,0-8.489,1.478-10.564,2.717C37.934,56.613,37,58.26,37,60.014V62C37,62.552,37.447,63,38,63z"/>
<circle cx="32" cy="8" r="7"/>
</svg>
