<?xml version="1.0" encoding="utf-8"?>
<!-- Generator: Adobe Illustrator 20.0.0, SVG Export Plug-In . SVG Version: 6.00 Build 0)  -->
<!DOCTYPE svg PUBLIC "-//W3C//DTD SVG 1.1//EN" "http://www.w3.org/Graphics/SVG/1.1/DTD/svg11.dtd">
<svg version="1.1" id="Layer_1" xmlns="http://www.w3.org/2000/svg" xmlns:xlink="http://www.w3.org/1999/xlink" x="0px" y="0px"
	 width="64px" height="64px" viewBox="0 0 64 64" enable-background="new 0 0 64 64" xml:space="preserve">
<path d="M33.147,45.79c0.355-1.093,1.283-1.875,2.421-2.041l7.422-1.079l0.913-1.849C39.799,39.787,34.539,39,28,39
	c-11.118,0-18.567,2.269-22.858,4.173C2.625,44.288,1,46.798,1,49.567V60c0,0.552,0.448,1,1,1h36.093l1.184-6.899l-5.371-5.234
	C33.082,48.062,32.791,46.884,33.147,45.79z"/>
<path d="M62.144,45.729l-8.463-1.23l-3.784-7.668c-0.337-0.684-1.457-0.684-1.794,0l-3.784,7.668l-8.463,1.23
	c-0.376,0.055-0.689,0.318-0.807,0.681c-0.118,0.361-0.02,0.759,0.253,1.024l6.124,5.969l-1.446,8.429
	c-0.064,0.375,0.09,0.754,0.398,0.978c0.309,0.225,0.716,0.254,1.053,0.076L49,58.906l7.569,3.979
	C56.716,62.962,56.875,63,57.035,63c0.207,0,0.414-0.064,0.588-0.191c0.308-0.224,0.462-0.603,0.398-0.978l-1.446-8.429l6.124-5.969
	c0.272-0.266,0.371-0.663,0.253-1.024C62.833,46.047,62.521,45.783,62.144,45.729z"/>
<path d="M13,16c0,8.025,6.415,17,15,17s15-8.975,15-17c0-8.271-6.729-15-15-15S13,7.729,13,16z"/>
</svg>
