<?xml version="1.0" encoding="utf-8"?>
<!-- Generator: Adobe Illustrator 20.0.0, SVG Export Plug-In . SVG Version: 6.00 Build 0)  -->
<!DOCTYPE svg PUBLIC "-//W3C//DTD SVG 1.1//EN" "http://www.w3.org/Graphics/SVG/1.1/DTD/svg11.dtd">
<svg version="1.1" id="Layer_1" xmlns="http://www.w3.org/2000/svg" xmlns:xlink="http://www.w3.org/1999/xlink" x="0px" y="0px"
	 width="64px" height="64px" viewBox="0 0 64 64" enable-background="new 0 0 64 64" xml:space="preserve">
<path d="M28,33c8.585,0,15-8.975,15-17c0-8.271-6.729-15-15-15S13,7.729,13,16C13,24.025,19.415,33,28,33z"/>
<path d="M2,61h49.685C51.251,60.089,51,59.075,51,58c0-0.048,0.001-0.096,0.002-0.145l-4.705-2.352C45.078,56.467,43.577,57,42,57
	c-3.859,0-7-3.14-7-7s3.141-7,7-7c1.578,0,3.079,0.533,4.298,1.497l3.524-1.762C45.411,40.938,38.276,39,28,39
	c-11.118,0-18.567,2.269-22.858,4.173C2.625,44.288,1,46.798,1,49.567V60C1,60.552,1.448,61,2,61z"/>
<path d="M58,47c2.757,0,5-2.243,5-5s-2.243-5-5-5s-5,2.243-5,5c0,0.448,0.078,0.874,0.189,1.287l-7.276,3.638
	C44.997,45.762,43.592,45,42,45c-2.757,0-5,2.243-5,5s2.243,5,5,5c1.592,0,2.996-0.762,3.913-1.925l7.277,3.638
	C53.078,57.126,53,57.552,53,58c0,2.757,2.243,5,5,5s5-2.243,5-5s-2.243-5-5-5c-1.592,0-2.997,0.762-3.913,1.925l-7.276-3.638
	C46.922,50.874,47,50.448,47,50c0-0.448-0.078-0.874-0.189-1.287l7.276-3.638C55.004,46.238,56.408,47,58,47z"/>
</svg>
