<?xml version="1.0" encoding="utf-8"?>
<!-- Generator: Adobe Illustrator 20.0.0, SVG Export Plug-In . SVG Version: 6.00 Build 0)  -->
<!DOCTYPE svg PUBLIC "-//W3C//DTD SVG 1.1//EN" "http://www.w3.org/Graphics/SVG/1.1/DTD/svg11.dtd">
<svg version="1.1" id="Layer_1" xmlns="http://www.w3.org/2000/svg" xmlns:xlink="http://www.w3.org/1999/xlink" x="0px" y="0px"
	 width="64px" height="64px" viewBox="0 0 64 64" enable-background="new 0 0 64 64" xml:space="preserve">
<path d="M62,0H42v4h15.172L42.903,18.269C38.354,14.366,32.45,12,26,12C11.663,12,0,23.664,0,38s11.663,26,26,26s26-11.664,26-26
	c0-6.45-2.366-12.354-6.269-16.903L60,6.828V22h4V2C64,0.896,63.104,0,62,0z M48,38c0,12.131-9.869,22-22,22S4,50.131,4,38
	s9.869-22,22-22S48,25.869,48,38z"/>
</svg>
