<?xml version="1.0" encoding="utf-8"?>
<!-- Generator: Adobe Illustrator 20.0.0, SVG Export Plug-In . SVG Version: 6.00 Build 0)  -->
<!DOCTYPE svg PUBLIC "-//W3C//DTD SVG 1.1//EN" "http://www.w3.org/Graphics/SVG/1.1/DTD/svg11.dtd">
<svg version="1.1" id="Layer_1" xmlns="http://www.w3.org/2000/svg" xmlns:xlink="http://www.w3.org/1999/xlink" x="0px" y="0px"
	 width="64px" height="64px" viewBox="0 0 64 64" enable-background="new 0 0 64 64" xml:space="preserve">
<path d="M57,10c0-3.859-3.14-7-7-7s-7,3.141-7,7c0,3.63,2.225,9,7,9C54.567,19,57,13.773,57,10z"/>
<path d="M60.542,25.726C58.441,24.482,54.907,23,50,23c-4.972,0-8.489,1.478-10.564,2.717C37.934,26.613,37,28.26,37,30.014V36
	c0,0.553,0.448,1,1,1h24c0.552,0,1-0.447,1-1v-5.965C63,28.273,62.058,26.621,60.542,25.726z"/>
<path d="M32.533,42.904C28.257,41.641,24.04,41,20,41c-4.115,0-8.338,0.633-12.551,1.881C3.592,44.022,1,47.493,1,51.517V60
	c0,0.553,0.448,1,1,1h36c0.552,0,1-0.447,1-1v-8.455C39,47.521,36.401,44.048,32.533,42.904z"/>
<path d="M9,22c0,6.012,4.805,13,11,13s11-6.988,11-13c0-6.065-4.935-11-11-11S9,15.935,9,22z"/>
</svg>
