<?xml version="1.0" encoding="utf-8"?>
<!-- Generator: Adobe Illustrator 20.0.0, SVG Export Plug-In . SVG Version: 6.00 Build 0)  -->
<!DOCTYPE svg PUBLIC "-//W3C//DTD SVG 1.1//EN" "http://www.w3.org/Graphics/SVG/1.1/DTD/svg11.dtd">
<svg version="1.1" id="Layer_1" xmlns="http://www.w3.org/2000/svg" xmlns:xlink="http://www.w3.org/1999/xlink" x="0px" y="0px"
	 width="64px" height="64px" viewBox="0 0 64 64" enable-background="new 0 0 64 64" xml:space="preserve">
<path d="M62,2H49v4h8.172l-7.95,7.95C46.141,11.485,42.243,10,38,10c-3.711,0-7.162,1.13-10.03,3.062C25.113,11.142,21.694,10,18,10
	C8.075,10,0,18.075,0,28c0,9.248,7.013,16.883,16,17.882V52h-6v4h6v6h4v-6h6v-4h-6v-6.118C28.987,44.883,36,37.248,36,28
	c0-3.975-1.311-7.641-3.502-10.623c-1.196,0.622-2.271,1.434-3.189,2.404C30.994,22.093,32,24.928,32,28
	c0,3.796-1.524,7.238-3.985,9.763C25.544,35.238,24,31.804,24,28c0-7.72,6.28-14,14-14s14,6.28,14,14s-6.28,14-14,14
	c-1.729,0-3.378-0.33-4.908-0.905c-0.951,1.097-2.022,2.088-3.194,2.957C32.337,45.288,35.084,46,38,46c9.925,0,18-8.075,18-18
	c0-4.243-1.485-8.141-3.95-11.222L60,8.828V17h4V4C64,2.896,63.104,2,62,2z M20,28c0,4.719,1.848,8.997,4.832,12.208
	C22.809,41.345,20.481,42,18,42c-7.72,0-14-6.28-14-14s6.28-14,14-14c2.475,0,4.796,0.655,6.814,1.789
	C21.837,19.002,20,23.285,20,28z"/>
</svg>
