<?xml version="1.0" encoding="utf-8"?>
<!-- Generator: Adobe Illustrator 20.0.0, SVG Export Plug-In . SVG Version: 6.00 Build 0)  -->
<!DOCTYPE svg PUBLIC "-//W3C//DTD SVG 1.1//EN" "http://www.w3.org/Graphics/SVG/1.1/DTD/svg11.dtd">
<svg version="1.1" id="Layer_1" xmlns="http://www.w3.org/2000/svg" xmlns:xlink="http://www.w3.org/1999/xlink" x="0px" y="0px"
	 width="64px" height="64px" viewBox="0 0 64 64" enable-background="new 0 0 64 64" xml:space="preserve">
<path d="M16,41h24c0.553,0,1-0.448,1-1v-1.965c0-1.762-0.941-3.413-2.458-4.31C36.441,32.482,32.907,31,28,31
	c-4.972,0-8.489,1.478-10.564,2.717C15.934,34.613,15,36.26,15,38.014V40C15,40.552,15.447,41,16,41z"/>
<circle cx="28" cy="20" r="7"/>
<path d="M46.263,50.505l11.909,11.909c0.391,0.391,1.024,0.391,1.414,0l2.828-2.828c0.391-0.391,0.391-1.024,0-1.414L50.505,46.263
	C49.241,47.819,47.819,49.241,46.263,50.505z"/>
<path d="M28,55c14.888,0,27-12.112,27-27S42.888,1,28,1S1,13.112,1,28S13.112,55,28,55z M28,3c13.785,0,25,11.215,25,25
	S41.785,53,28,53S3,41.785,3,28S14.215,3,28,3z"/>
</svg>
