<?xml version="1.0" encoding="utf-8"?>
<!-- Generator: Adobe Illustrator 20.0.0, SVG Export Plug-In . SVG Version: 6.00 Build 0)  -->
<!DOCTYPE svg PUBLIC "-//W3C//DTD SVG 1.1//EN" "http://www.w3.org/Graphics/SVG/1.1/DTD/svg11.dtd">
<svg version="1.1" id="Layer_1" xmlns="http://www.w3.org/2000/svg" xmlns:xlink="http://www.w3.org/1999/xlink" x="0px" y="0px"
	 width="64px" height="64px" viewBox="0 0 64 64" enable-background="new 0 0 64 64" xml:space="preserve">
<path d="M42.707,3.293c-0.391-0.391-1.023-0.391-1.414,0l-8,8c-0.092,0.092-0.165,0.203-0.216,0.325
	c-0.101,0.245-0.101,0.52,0,0.764c0.051,0.122,0.124,0.233,0.216,0.325l8,8C41.488,20.902,41.744,21,42,21s0.512-0.098,0.707-0.293
	c0.391-0.391,0.391-1.023,0-1.414L36.414,13H46c3.86,0,7,3.14,7,7v6c0,0.552,0.448,1,1,1s1-0.448,1-1v-6c0-4.962-4.038-9-9-9h-9.586
	l6.293-6.293C43.098,4.316,43.098,3.684,42.707,3.293z"/>
<path d="M10,37c-0.552,0-1,0.448-1,1v6c0,4.962,4.038,9,9,9h9.586l-6.293,6.293c-0.391,0.391-0.391,1.023,0,1.414
	C21.488,60.902,21.744,61,22,61s0.512-0.098,0.707-0.293l8-8c0.092-0.092,0.165-0.203,0.216-0.325c0.101-0.245,0.101-0.52,0-0.764
	c-0.051-0.122-0.124-0.233-0.216-0.325l-8-8c-0.391-0.391-1.023-0.391-1.414,0s-0.391,1.023,0,1.414L27.586,51H18
	c-3.86,0-7-3.14-7-7v-6C11,37.448,10.552,37,10,37z"/>
<path d="M2,29h24c0.552,0,1-0.448,1-1v-1.965c0-1.762-0.942-3.413-2.458-4.31C22.441,20.482,18.906,19,14,19
	c-4.972,0-8.489,1.478-10.564,2.717C1.933,22.613,1,24.26,1,26.014V28C1,28.552,1.448,29,2,29z"/>
<circle cx="14" cy="8" r="7"/>
<path d="M60.542,55.725C58.441,54.482,54.906,53,50,53c-4.972,0-8.489,1.478-10.564,2.717C37.933,56.613,37,58.26,37,60.014V62
	c0,0.552,0.448,1,1,1h24c0.552,0,1-0.448,1-1v-1.965C63,58.273,62.058,56.622,60.542,55.725z"/>
<circle cx="50" cy="42" r="7"/>
</svg>
