<?xml version="1.0" encoding="utf-8"?>
<!-- Generator: Adobe Illustrator 20.0.0, SVG Export Plug-In . SVG Version: 6.00 Build 0)  -->
<!DOCTYPE svg PUBLIC "-//W3C//DTD SVG 1.1//EN" "http://www.w3.org/Graphics/SVG/1.1/DTD/svg11.dtd">
<svg version="1.1" id="Layer_1" xmlns="http://www.w3.org/2000/svg" xmlns:xlink="http://www.w3.org/1999/xlink" x="0px" y="0px"
	 width="64px" height="64px" viewBox="0 0 64 64" enable-background="new 0 0 64 64" xml:space="preserve">
<path d="M62,1H28c-0.553,0-1,0.448-1,1v28c0,0.384,0.221,0.735,0.566,0.901C27.705,30.967,27.853,31,28,31
	c0.223,0,0.444-0.075,0.625-0.219L38.351,23H62c0.553,0,1-0.448,1-1V2C63,1.448,62.553,1,62,1z"/>
<circle cx="50" cy="36" r="7"/>
<circle cx="14" cy="36" r="7"/>
<path d="M27,60v-5.965c0-1.763-0.941-3.414-2.457-4.31C22.442,48.482,18.907,47,14,47c-4.972,0-8.489,1.478-10.564,2.717
	C1.934,50.613,1,52.26,1,54.014V60c0,0.553,0.447,1,1,1h24C26.553,61,27,60.553,27,60z"/>
<path d="M60.543,49.726C58.442,48.482,54.907,47,50,47c-4.972,0-8.489,1.478-10.564,2.717C37.934,50.613,37,52.26,37,54.014V60
	c0,0.553,0.447,1,1,1h24c0.553,0,1-0.447,1-1v-5.965C63,52.272,62.059,50.621,60.543,49.726z"/>
</svg>
