<?xml version="1.0" encoding="utf-8"?>
<!-- Generator: Adobe Illustrator 20.0.0, SVG Export Plug-In . SVG Version: 6.00 Build 0)  -->
<!DOCTYPE svg PUBLIC "-//W3C//DTD SVG 1.1//EN" "http://www.w3.org/Graphics/SVG/1.1/DTD/svg11.dtd">
<svg version="1.1" id="Layer_1" xmlns="http://www.w3.org/2000/svg" xmlns:xlink="http://www.w3.org/1999/xlink" x="0px" y="0px"
	 width="64px" height="64px" viewBox="0 0 64 64" enable-background="new 0 0 64 64" xml:space="preserve">
<circle cx="12" cy="12" r="7"/>
<path d="M1.553,38.895l3.49,1.745l0.959,13.432C6.04,54.595,6.476,55,7,55h10c0.524,0,0.96-0.405,0.998-0.929l0.464-6.498
	C17.578,47.042,17,46.076,17,45V32c0-2.973,1.19-5.67,3.114-7.651C18.957,23.505,17.538,23,16,23H8c-3.86,0-7,3.14-7,7v8
	C1,38.379,1.214,38.725,1.553,38.895z"/>
<circle cx="52" cy="12" r="7"/>
<path d="M56,23h-8c-1.538,0-2.957,0.505-4.114,1.349C45.81,26.33,47,29.027,47,32v13c0,1.076-0.578,2.042-1.462,2.573l0.464,6.498
	C46.04,54.595,46.476,55,47,55h10c0.524,0,0.96-0.405,0.998-0.929l0.959-13.432l3.49-1.745C62.786,38.725,63,38.379,63,38v-8
	C63,26.14,59.86,23,56,23z"/>
<path d="M36,23h-8c-4.962,0-9,4.038-9,9v13c0,0.477,0.336,0.887,0.804,0.98l4.246,0.849l0.952,15.233C25.035,62.589,25.472,63,26,63
	h12c0.528,0,0.965-0.411,0.998-0.938L39.95,46.83l4.246-0.849C44.664,45.887,45,45.477,45,45V32C45,27.038,40.962,23,36,23z"/>
<path d="M41,10c0-4.962-4.038-9-9-9s-9,4.038-9,9s4.038,9,9,9S41,14.962,41,10z"/>
</svg>
