<?xml version="1.0" encoding="utf-8"?>
<!-- Generator: Adobe Illustrator 20.0.0, SVG Export Plug-In . SVG Version: 6.00 Build 0)  -->
<!DOCTYPE svg PUBLIC "-//W3C//DTD SVG 1.1//EN" "http://www.w3.org/Graphics/SVG/1.1/DTD/svg11.dtd">
<svg version="1.1" id="Layer_1" xmlns="http://www.w3.org/2000/svg" xmlns:xlink="http://www.w3.org/1999/xlink" x="0px" y="0px"
	 width="64px" height="64px" viewBox="0 0 64 64" enable-background="new 0 0 64 64" xml:space="preserve">
<path d="M61,1H3C1.895,1,1,1.895,1,3v44c0,1.105,0.895,2,2,2h18.532l9.7,11.64C31.422,60.868,31.703,61,32,61
	s0.578-0.132,0.768-0.36l9.7-11.64H61c1.105,0,2-0.895,2-2V3C63,1.895,62.105,1,61,1z M32,11c3.86,0,7,3.14,7,7s-3.14,7-7,7
	s-7-3.14-7-7S28.14,11,32,11z M45,38c0,0.552-0.448,1-1,1H20c-0.552,0-1-0.448-1-1v-1.986c0-1.753,0.933-3.4,2.436-4.297
	C23.511,30.478,27.028,29,32,29c4.906,0,8.441,1.482,10.542,2.725C44.058,32.622,45,34.273,45,36.035V38z"/>
</svg>
