<?xml version="1.0" encoding="utf-8"?>
<!-- Generator: Adobe Illustrator 20.0.0, SVG Export Plug-In . SVG Version: 6.00 Build 0)  -->
<!DOCTYPE svg PUBLIC "-//W3C//DTD SVG 1.1//EN" "http://www.w3.org/Graphics/SVG/1.1/DTD/svg11.dtd">
<svg version="1.1" id="Layer_1" xmlns="http://www.w3.org/2000/svg" xmlns:xlink="http://www.w3.org/1999/xlink" x="0px" y="0px"
	 width="64px" height="64px" viewBox="0 0 64 64" enable-background="new 0 0 64 64" xml:space="preserve">
<path d="M52,45c0.552,0,1-0.447,1-1V23h7c0.394,0,0.751-0.231,0.912-0.59c0.162-0.359,0.097-0.78-0.165-1.074l-8-9
	c-0.38-0.427-1.115-0.427-1.495,0l-8,9c-0.261,0.294-0.326,0.715-0.165,1.074C43.249,22.769,43.606,23,44,23h7v21
	C51,44.553,51.448,45,52,45z"/>
<path d="M30.288,26.867C29.356,23.956,26.676,22,23.62,22h-7.24c-3.056,0-5.736,1.956-6.667,4.867L3.047,47.695
	c-0.097,0.304-0.043,0.637,0.145,0.895C3.38,48.848,3.681,49,4,49h7.069l0.934,13.071C12.04,62.595,12.476,63,13,63h14
	c0.524,0,0.96-0.405,0.998-0.929L28.931,49H36c0.319,0,0.62-0.152,0.808-0.41c0.188-0.258,0.242-0.591,0.145-0.895L30.288,26.867z"
	/>
<path d="M11,10c0,4.962,4.038,9,9,9s9-4.038,9-9s-4.038-9-9-9S11,5.038,11,10z"/>
</svg>
