<?xml version="1.0" encoding="utf-8"?>
<!-- Generator: Adobe Illustrator 20.0.0, SVG Export Plug-In . SVG Version: 6.00 Build 0)  -->
<!DOCTYPE svg PUBLIC "-//W3C//DTD SVG 1.1//EN" "http://www.w3.org/Graphics/SVG/1.1/DTD/svg11.dtd">
<svg version="1.1" id="Layer_1" xmlns="http://www.w3.org/2000/svg" xmlns:xlink="http://www.w3.org/1999/xlink" x="0px" y="0px"
	 width="64px" height="64px" viewBox="0 0 64 64" enable-background="new 0 0 64 64" xml:space="preserve">
<circle cx="22" cy="37" r="3"/>
<circle cx="42" cy="37" r="3"/>
<path d="M55.356,25.142c-3.319-8.754-11.25-14.856-20.411-15.949C37.238,5.484,41.329,3,46,3c0.553,0,1-0.447,1-1s-0.447-1-1-1
	c-5.755,0-10.755,3.261-13.27,8.028C32.486,9.021,32.245,9,32,9C21.621,9,12.314,15.46,8.644,25.142C4.309,25.805,1,29.576,1,34
	s3.309,8.195,7.644,8.858C12.314,52.54,21.621,59,32,59s19.686-6.46,23.356-16.142C59.691,42.195,63,38.424,63,34
	S59.691,25.805,55.356,25.142z M54.549,40.939c-0.395,0.031-0.733,0.292-0.864,0.666C50.454,50.813,41.74,57,32,57
	s-18.454-6.187-21.685-15.395c-0.131-0.374-0.47-0.635-0.864-0.666C5.834,40.654,3,37.605,3,34s2.834-6.654,6.451-6.939
	c0.395-0.031,0.733-0.292,0.864-0.666c3.216-9.168,11.869-15.336,21.558-15.39C31.318,12.57,31,14.247,31,16c0,0.553,0.447,1,1,1
	s1-0.447,1-1c0-1.737,0.349-3.393,0.97-4.91c8.929,0.77,16.704,6.722,19.715,15.304c0.131,0.374,0.47,0.635,0.864,0.666
	C58.166,27.346,61,30.395,61,34S58.166,40.654,54.549,40.939z"/>
</svg>
