<?xml version="1.0" encoding="utf-8"?>
<!-- Generator: Adobe Illustrator 20.0.0, SVG Export Plug-In . SVG Version: 6.00 Build 0)  -->
<!DOCTYPE svg PUBLIC "-//W3C//DTD SVG 1.1//EN" "http://www.w3.org/Graphics/SVG/1.1/DTD/svg11.dtd">
<svg version="1.1" id="Layer_1" xmlns="http://www.w3.org/2000/svg" xmlns:xlink="http://www.w3.org/1999/xlink" x="0px" y="0px"
	 width="64px" height="64px" viewBox="0 0 64 64" enable-background="new 0 0 64 64" xml:space="preserve">
<path d="M39.338,32.041c0.19,0.168,0.427,0.25,0.662,0.25c0.276,0,0.552-0.114,0.75-0.338C42.201,30.31,43,28.195,43,26
	c0-2.193-0.798-4.307-2.248-5.951c-0.364-0.416-0.999-0.452-1.411-0.089c-0.414,0.365-0.454,0.997-0.089,1.411
	C40.379,22.65,41,24.294,41,26c0,1.708-0.621,3.352-1.75,4.629C38.885,31.043,38.924,31.675,39.338,32.041z"/>
<path d="M45.334,38.67c-0.411,0.368-0.446,1.001-0.078,1.412c0.197,0.221,0.471,0.333,0.745,0.333c0.238,0,0.477-0.084,0.667-0.255
	C50.692,36.558,53,31.396,53,26s-2.308-10.557-6.33-14.16c-0.409-0.367-1.043-0.334-1.412,0.078
	c-0.368,0.411-0.333,1.043,0.078,1.412C48.936,16.554,51,21.172,51,26C51,30.829,48.935,35.446,45.334,38.67z"/>
<path d="M2,59h36c0.553,0,1-0.447,1-1v-4.455c0-4.024-2.599-7.497-6.467-8.641C28.257,43.641,24.04,43,20,43
	c-4.115,0-8.339,0.633-12.552,1.881C3.592,46.022,1,49.493,1,53.517V58C1,58.553,1.447,59,2,59z"/>
<path d="M20,15c-6.065,0-11,4.935-11,11c0,6.012,4.805,13,11,13s11-6.988,11-13C31,19.935,26.065,15,20,15z"/>
<path d="M52.647,3.79c-0.423-0.356-1.053-0.3-1.409,0.122c-0.355,0.423-0.301,1.054,0.122,1.409C57.486,10.468,61,18.006,61,26
	c0,7.995-3.515,15.534-9.644,20.683c-0.423,0.355-0.478,0.986-0.122,1.409c0.198,0.235,0.481,0.356,0.767,0.356
	c0.227,0,0.455-0.077,0.643-0.234C59.226,42.685,63,34.588,63,26C63,17.414,59.227,9.318,52.647,3.79z"/>
</svg>
