<?xml version="1.0" encoding="utf-8"?>
<!-- Generator: Adobe Illustrator 20.0.0, SVG Export Plug-In . SVG Version: 6.00 Build 0)  -->
<!DOCTYPE svg PUBLIC "-//W3C//DTD SVG 1.1//EN" "http://www.w3.org/Graphics/SVG/1.1/DTD/svg11.dtd">
<svg version="1.1" id="Layer_1" xmlns="http://www.w3.org/2000/svg" xmlns:xlink="http://www.w3.org/1999/xlink" x="0px" y="0px"
	 width="64px" height="64px" viewBox="0 0 64 64" enable-background="new 0 0 64 64" xml:space="preserve">
<path d="M28,33c8.585,0,15-8.975,15-17c0-8.271-6.729-15-15-15S13,7.729,13,16C13,24.025,19.415,33,28,33z"/>
<path d="M51,39c-6.627,0-12,5.373-12,12s5.373,12,12,12s12-5.373,12-12S57.627,39,51,39z M56,52H46c-0.552,0-1-0.448-1-1
	s0.448-1,1-1h10c0.552,0,1,0.448,1,1S56.552,52,56,52z"/>
<path d="M2,61h39.211C38.615,58.459,37,54.92,37,51c0-4.263,1.912-8.074,4.917-10.642C38.142,39.561,33.525,39,28,39
	c-11.118,0-18.567,2.269-22.858,4.173C2.625,44.288,1,46.798,1,49.567V60C1,60.552,1.448,61,2,61z"/>
</svg>
