<?xml version="1.0" encoding="utf-8"?>
<!-- Generator: Adobe Illustrator 20.0.0, SVG Export Plug-In . SVG Version: 6.00 Build 0)  -->
<!DOCTYPE svg PUBLIC "-//W3C//DTD SVG 1.1//EN" "http://www.w3.org/Graphics/SVG/1.1/DTD/svg11.dtd">
<svg version="1.1" id="Layer_1" xmlns="http://www.w3.org/2000/svg" xmlns:xlink="http://www.w3.org/1999/xlink" x="0px" y="0px"
	 width="64px" height="64px" viewBox="0 0 64 64" enable-background="new 0 0 64 64" xml:space="preserve">
<path d="M24,19c0,0.552,0.448,1,1,1h14c0.552,0,1-0.448,1-1c0-3.86-3.14-7-7-7h-2C27.14,12,24,15.14,24,19z"/>
<circle cx="32" cy="6" r="4"/>
<path d="M2,29h14c0.552,0,1-0.448,1-1c0-3.86-3.14-7-7-7H8c-3.86,0-7,3.14-7,7C1,28.552,1.448,29,2,29z"/>
<circle cx="9" cy="15" r="4"/>
<path d="M57,21h-2c-3.86,0-7,3.14-7,7c0,0.552,0.448,1,1,1h14c0.552,0,1-0.448,1-1C64,24.14,60.86,21,57,21z"/>
<circle cx="56" cy="15" r="4"/>
<path d="M32,46c5.514,0,10-4.486,10-10s-4.486-10-10-10s-10,4.486-10,10S26.486,46,32,46z"/>
<path d="M16,62c0,0.552,0.448,1,1,1h30c0.552,0,1-0.448,1-1c0-7.168-5.832-13-13-13h-6C21.832,49,16,54.832,16,62z"/>
</svg>
