<?xml version="1.0" encoding="utf-8"?>
<!-- Generator: Adobe Illustrator 19.1.0, SVG Export Plug-In . SVG Version: 6.00 Build 0)  -->
<!DOCTYPE svg PUBLIC "-//W3C//DTD SVG 1.1//EN" "http://www.w3.org/Graphics/SVG/1.1/DTD/svg11.dtd">
<svg version="1.1" id="Layer_1" xmlns="http://www.w3.org/2000/svg" xmlns:xlink="http://www.w3.org/1999/xlink" x="0px" y="0px"
	 width="64px" height="64px" viewBox="0 0 64 64" enable-background="new 0 0 64 64" xml:space="preserve">
<path d="M58.8,23.4C58.6,23.1,58.3,23,58,23h-5V8c0-0.6-0.4-1-1-1h-7V4c0-0.6-0.4-1-1-1h-8c-0.6,0-1,0.4-1,1v7h-6V2c0-0.6-0.4-1-1-1
	h-8c-0.6,0-1,0.4-1,1v5h-7c-0.6,0-1,0.4-1,1v15H6c-0.3,0-0.6,0.1-0.8,0.4C5,23.6,5,23.9,5,24.2l8,38c0.1,0.5,0.5,0.8,1,0.8h36
	c0.5,0,0.9-0.3,1-0.8l8-38C59,23.9,59,23.6,58.8,23.4z M19,23h-6V9h6V23z M29,13h6v10h-6V13z M21,3h6v20h-6V3z M32,53c-5,0-9-4-9-9
	s4-9,9-9s9,4,9,9S37,53,32,53z M43,23h-6V5h6V23z M51,23h-6V9h6V23z"/>
</svg>
