<?xml version="1.0" encoding="utf-8"?>
<!-- Generator: Adobe Illustrator 19.1.0, SVG Export Plug-In . SVG Version: 6.00 Build 0)  -->
<!DOCTYPE svg PUBLIC "-//W3C//DTD SVG 1.1//EN" "http://www.w3.org/Graphics/SVG/1.1/DTD/svg11.dtd">
<svg version="1.1" id="Layer_1" xmlns="http://www.w3.org/2000/svg" xmlns:xlink="http://www.w3.org/1999/xlink" x="0px" y="0px"
	 width="64px" height="64px" viewBox="0 0 64 64" enable-background="new 0 0 64 64" xml:space="preserve">
<path id="color_13_" d="M53,43.5c0-1.2-0.1-2.3-0.3-3.5H11.3c-0.2,1.1-0.3,2.3-0.3,3.5V56h42V43.5z M23.7,50.3c0.4,0.4,0.4,1,0,1.4
	C23.5,51.9,23.3,52,23,52s-0.5-0.1-0.7-0.3L20,49.4l-2.3,2.3C17.5,51.9,17.3,52,17,52s-0.5-0.1-0.7-0.3c-0.4-0.4-0.4-1,0-1.4
	l2.3-2.3l-2.3-2.3c-0.4-0.4-0.4-1,0-1.4s1-0.4,1.4,0l2.3,2.3l2.3-2.3c0.4-0.4,1-0.4,1.4,0s0.4,1,0,1.4L21.4,48L23.7,50.3z
	 M35.7,50.3c0.4,0.4,0.4,1,0,1.4C35.5,51.9,35.3,52,35,52s-0.5-0.1-0.7-0.3L32,49.4l-2.3,2.3C29.5,51.9,29.3,52,29,52
	s-0.5-0.1-0.7-0.3c-0.4-0.4-0.4-1,0-1.4l2.3-2.3l-2.3-2.3c-0.4-0.4-0.4-1,0-1.4s1-0.4,1.4,0l2.3,2.3l2.3-2.3c0.4-0.4,1-0.4,1.4,0
	s0.4,1,0,1.4L33.4,48L35.7,50.3z M47.7,51.7C47.5,51.9,47.3,52,47,52s-0.5-0.1-0.7-0.3L44,49.4l-2.3,2.3C41.5,51.9,41.3,52,41,52
	s-0.5-0.1-0.7-0.3c-0.4-0.4-0.4-1,0-1.4l2.3-2.3l-2.3-2.3c-0.4-0.4-0.4-1,0-1.4s1-0.4,1.4,0l2.3,2.3l2.3-2.3c0.4-0.4,1-0.4,1.4,0
	s0.4,1,0,1.4L45.4,48l2.3,2.3C48.1,50.7,48.1,51.3,47.7,51.7z"/>
<path id="color_12_" d="M39,7V2c0-0.6-0.4-1-1-1H26c-0.6,0-1,0.4-1,1v5H39z"/>
<path d="M52.2,38c-0.9-3-2.5-5.7-4.8-8L39,21.6V9H25v12.6L16.6,30c-2.3,2.3-3.9,5-4.8,8H52.2z"/>
<path d="M11,58v4c0,0.6,0.4,1,1,1h40c0.6,0,1-0.4,1-1v-4H11z"/>
</svg>
