<?xml version="1.0" encoding="utf-8"?>
<!-- Generator: Adobe Illustrator 19.1.0, SVG Export Plug-In . SVG Version: 6.00 Build 0)  -->
<!DOCTYPE svg PUBLIC "-//W3C//DTD SVG 1.1//EN" "http://www.w3.org/Graphics/SVG/1.1/DTD/svg11.dtd">
<svg version="1.1" id="Layer_1" xmlns="http://www.w3.org/2000/svg" xmlns:xlink="http://www.w3.org/1999/xlink" x="0px" y="0px"
	 width="64px" height="64px" viewBox="0 0 64 64" enable-background="new 0 0 64 64" xml:space="preserve">
<path d="M14.4,55l0.6,7.1c0,0.5,0.5,0.9,1,0.9h32c0.5,0,1-0.4,1-0.9l0.6-7.1H14.4z"/>
<path id="color_44_" d="M54.7,27.3C54.5,27.1,54.3,27,54,27H10c-0.3,0-0.5,0.1-0.7,0.3C9.1,27.5,9,27.8,9,28.1l2,24
	c0,0.5,0.5,0.9,1,0.9h40c0.5,0,1-0.4,1-0.9l2-24C55,27.8,54.9,27.5,54.7,27.3z M32,45c-2.8,0-5-2.2-5-5s2.2-5,5-5s5,2.2,5,5
	S34.8,45,32,45z"/>
<path id="color_6_" d="M6,17h52c0.6,0,1-0.4,1-1V8c0-0.6-0.4-1-1-1H46.6l-2.8-5.5C43.6,1.2,43.3,1,42.9,1H21.1
	c-0.4,0-0.7,0.2-0.9,0.5L17.4,7H6C5.4,7,5,7.4,5,8v8C5,16.6,5.4,17,6,17z"/>
<polygon points="11.3,19 11.8,25 52.2,25 52.7,19 "/>
</svg>
