<?xml version="1.0" encoding="utf-8"?>
<!-- Generator: Adobe Illustrator 19.1.0, SVG Export Plug-In . SVG Version: 6.00 Build 0)  -->
<!DOCTYPE svg PUBLIC "-//W3C//DTD SVG 1.1//EN" "http://www.w3.org/Graphics/SVG/1.1/DTD/svg11.dtd">
<svg version="1.1" id="Layer_1" xmlns="http://www.w3.org/2000/svg" xmlns:xlink="http://www.w3.org/1999/xlink" x="0px" y="0px"
	 width="64px" height="64px" viewBox="0 0 64 64" enable-background="new 0 0 64 64" xml:space="preserve">
<path d="M54,29h-7v-3.5c2.4-1.6,4-4.4,4-7.5c0-5-4-9-9-9c-0.6,0-1.3,0.1-1.9,0.2C38.2,4.3,33.4,1,28,1c-5.4,0-10.2,3.3-12.1,8.2
	C15.3,9.1,14.6,9,14,9c-5,0-9,4-9,9c0,3.1,1.6,5.9,4,7.5V56c0,3.9,3.1,7,7,7h24c3.9,0,7-3.1,7-7v-9h3c2.8,0,5-2.2,5-5V30
	C55,29.4,54.6,29,54,29z M7,18c0-3.9,3.1-7,7-7c0.7,0,1.4,0.1,2.2,0.4c0.3,0.1,0.5,0.1,0.8-0.1c0.2-0.1,0.4-0.3,0.5-0.6
	C18.9,6.1,23.1,3,28,3c4.9,0,9.1,3.1,10.5,7.7c0.1,0.3,0.3,0.5,0.5,0.6c0.2,0.1,0.5,0.1,0.8,0.1c0.8-0.3,1.5-0.4,2.2-0.4
	c3.9,0,7,3.1,7,7s-3.1,7-7,7H26c-0.6,0-1,0.4-1,1v12c0,1.7-1.3,3-3,3s-3-1.3-3-3V26c0-0.6-0.4-1-1-1h-4C10.1,25,7,21.9,7,18z M23,52
	c0,0.6-0.4,1-1,1s-1-0.4-1-1v-4c0-0.6,0.4-1,1-1s1,0.4,1,1V52z M35,52c0,0.6-0.4,1-1,1s-1-0.4-1-1V36c0-0.6,0.4-1,1-1s1,0.4,1,1V52z
	 M53,42c0,1.7-1.3,3-3,3h-3V31h6V42z"/>
</svg>
