<?xml version="1.0" encoding="utf-8"?>
<!-- Generator: Adobe Illustrator 19.1.0, SVG Export Plug-In . SVG Version: 6.00 Build 0)  -->
<!DOCTYPE svg PUBLIC "-//W3C//DTD SVG 1.1//EN" "http://www.w3.org/Graphics/SVG/1.1/DTD/svg11.dtd">
<svg version="1.1" id="Layer_1" xmlns="http://www.w3.org/2000/svg" xmlns:xlink="http://www.w3.org/1999/xlink" x="0px" y="0px"
	 width="64px" height="64px" viewBox="0 0 64 64" enable-background="new 0 0 64 64" xml:space="preserve">
<path d="M58.5,55.9L32.9,5.5c-0.3-0.7-1.4-0.7-1.8,0L5.5,55.9c-0.1,0.2-0.1,0.5-0.1,0.8c0.1,0.3,0.3,0.5,0.5,0.6
	c8.2,3.8,17,5.7,26.1,5.7s17.8-1.9,26.1-5.7c0.2-0.1,0.4-0.3,0.5-0.6C58.7,56.5,58.7,56.2,58.5,55.9z M43,42c0,2.8-2.2,5-5,5
	s-5-2.2-5-5s2.2-5,5-5S43,39.2,43,42z M32,23c1.7,0,3,1.3,3,3s-1.3,3-3,3s-3-1.3-3-3S30.3,23,32,23z M25,32c2.2,0,4,1.8,4,4
	c0,2.2-1.8,4-4,4c-2.2,0-4-1.8-4-4C21,33.8,22.8,32,25,32z M32,61c-8.4,0-16.6-1.7-24.3-5.1l3.6-7C17.8,51.6,25.1,53,32,53
	s14.2-1.4,20.7-4.1l3.6,7C48.6,59.3,40.4,61,32,61z"/>
</svg>
