<?xml version="1.0" encoding="utf-8"?>
<!-- Generator: Adobe Illustrator 19.1.0, SVG Export Plug-In . SVG Version: 6.00 Build 0)  -->
<!DOCTYPE svg PUBLIC "-//W3C//DTD SVG 1.1//EN" "http://www.w3.org/Graphics/SVG/1.1/DTD/svg11.dtd">
<svg version="1.1" id="Layer_1" xmlns="http://www.w3.org/2000/svg" xmlns:xlink="http://www.w3.org/1999/xlink" x="0px" y="0px"
	 width="64px" height="64px" viewBox="0 0 64 64" enable-background="new 0 0 64 64" xml:space="preserve">
<path d="M52.8,38.5c2.5-0.8,4.7-2.4,6-4.6c1.9-3.1,2.1-6.9,0.6-11c4.8-5.1,4.7-13.1-0.3-18.1c-2.6-2.6-6.3-4-10-3.8
	c-0.4,0-0.7,0.3-0.8,0.6c-0.2,0.3-0.1,0.7,0.1,1c2.4,3.1,3.8,10.5,2.3,12.1c-1.6,1.6-8.9,0.2-12.1-2.3c-0.3-0.2-0.7-0.3-1-0.1
	c-0.3,0.2-0.6,0.5-0.6,0.8c-0.2,3.7,1.1,7.4,3.8,10c2.5,2.5,5.9,3.8,9.2,3.8c2.8,0,5.5-0.9,7.9-2.7c1.3,4,0.3,6.8-0.7,8.5
	c-1.4,2.3-4,3.8-6.7,4.1c-5-3.1-11.4-6-18.4-6s-13.4,2.8-18.4,6c-2.7-0.3-5.3-1.8-6.7-4.1c-1.1-1.7-2-4.5-0.7-8.5
	C8.5,26.1,11.2,27,14,27c3.3,0,6.7-1.3,9.2-3.8c2.6-2.6,4-6.3,3.8-10c0-0.4-0.3-0.7-0.6-0.8c-0.3-0.2-0.7-0.1-1,0.1
	c-3.2,2.5-10.5,3.9-12.1,2.3c-1.5-1.5-0.1-9,2.3-12.1c0.2-0.3,0.3-0.7,0.1-1c-0.2-0.3-0.5-0.6-0.8-0.6c-3.7-0.2-7.4,1.1-10,3.8
	c-5,5-5.1,13-0.3,18.1c-1.5,4.1-1.3,7.9,0.6,11c1.4,2.2,3.6,3.9,6,4.6c-4.7,3.3-7.7,6.5-8,6.8c-0.4,0.4-0.4,1,0,1.4
	c0.3,0.3,3.6,3.8,8.7,7.3C9,56.4,9,61.7,9,62c0,0.6,0.4,1,1,1s1-0.4,1-1c0-0.1,0.1-5.5,2.8-6.8c5,3.1,11.3,5.8,18.2,5.8
	c6.9,0,13.2-2.8,18.2-5.9c2.3,1.1,2.8,5.2,2.8,6.9c0,0.6,0.4,1,1,1h0c0.6,0,1-0.4,1-1c0-0.3,0-5.7-3-8c5.1-3.5,8.4-7,8.7-7.3
	c0.4-0.4,0.4-1,0-1.4C60.5,45,57.5,41.8,52.8,38.5z M25,44c-1.1,0-2-0.9-2-2s0.9-2,2-2s2,0.9,2,2S26.1,44,25,44z M39,44
	c-1.1,0-2-0.9-2-2s0.9-2,2-2s2,0.9,2,2S40.1,44,39,44z"/>
</svg>
