<?xml version="1.0" encoding="utf-8"?>
<!-- Generator: Adobe Illustrator 19.1.0, SVG Export Plug-In . SVG Version: 6.00 Build 0)  -->
<!DOCTYPE svg PUBLIC "-//W3C//DTD SVG 1.1//EN" "http://www.w3.org/Graphics/SVG/1.1/DTD/svg11.dtd">
<svg version="1.1" id="Layer_1" xmlns="http://www.w3.org/2000/svg" xmlns:xlink="http://www.w3.org/1999/xlink" x="0px" y="0px"
	 width="64px" height="64px" viewBox="0 0 64 64" enable-background="new 0 0 64 64" xml:space="preserve">
<path d="M34,35c-0.6,0-1-0.4-1-1s0.4-1,1-1h16.9c0.1-1,0.1-2,0.1-3v-4.5c2.4-1.6,4-4.4,4-7.5c0-5-4-9-9-9c-0.6,0-1.3,0.1-1.9,0.2
	C42.2,4.3,37.4,1,32,1S21.8,4.3,19.9,9.2C19.3,9.1,18.6,9,18,9c-5,0-9,4-9,9c0,3.1,1.6,5.9,4,7.5V30c0,1,0,2,0.1,3H18
	c0.6,0,1,0.4,1,1s-0.4,1-1,1h-4.7c0.4,3.8,1.1,7.6,1.8,11.3c1,5.1,2,10.4,2,15.7c0,0.6,0.4,1,1,1h28c0.6,0,1-0.4,1-1
	c0-5.4,1-10.7,2-15.8c0.7-3.6,1.4-7.4,1.8-11.2H34z M29,26v12c0,1.7-1.3,3-3,3s-3-1.3-3-3V26c0-0.6-0.4-1-1-1h-4c-3.9,0-7-3.1-7-7
	s3.1-7,7-7c0.7,0,1.4,0.1,2.2,0.4c0.3,0.1,0.5,0.1,0.8-0.1c0.2-0.1,0.4-0.3,0.5-0.6C22.9,6.1,27.1,3,32,3s9.1,3.1,10.5,7.7
	c0.1,0.3,0.3,0.5,0.5,0.6c0.2,0.1,0.5,0.1,0.8,0.1c0.8-0.3,1.5-0.4,2.2-0.4c3.9,0,7,3.1,7,7s-3.1,7-7,7H30C29.4,25,29,25.4,29,26z"
	/>
</svg>
