<?xml version="1.0" encoding="utf-8"?>
<!-- Generator: Adobe Illustrator 19.1.0, SVG Export Plug-In . SVG Version: 6.00 Build 0)  -->
<!DOCTYPE svg PUBLIC "-//W3C//DTD SVG 1.1//EN" "http://www.w3.org/Graphics/SVG/1.1/DTD/svg11.dtd">
<svg version="1.1" id="Layer_1" xmlns="http://www.w3.org/2000/svg" xmlns:xlink="http://www.w3.org/1999/xlink" x="0px" y="0px"
	 width="64px" height="64px" viewBox="0 0 64 64" enable-background="new 0 0 64 64" xml:space="preserve">
<path id="color_66_" d="M51.1,35c-2.4,0-4.7-0.6-6.7-1.8c-3.5,2.9-7.9,4.5-12.4,4.5s-8.9-1.6-12.4-4.5c-2.1,1.2-4.4,1.8-6.7,1.8
	c-1.9,0-3.7-0.4-5.3-1.1l7.1,28.3c0.1,0.4,0.5,0.8,1,0.8h9.2L23,48.1c-0.1-0.5,0.3-1,0.9-1.1c0.5-0.1,1,0.3,1.1,0.9L26.9,63h10.2
	L39,47.9c0.1-0.5,0.6-0.9,1.1-0.9c0.5,0.1,0.9,0.6,0.9,1.1L39.1,63h9.2c0.5,0,0.9-0.3,1-0.8l7.1-28.3C54.8,34.6,53,35,51.1,35z"/>
<path d="M51.1,9.2c-1.3,0-2.7,0.2-4,0.7C44.1,4.4,38.3,1,32,1S19.9,4.4,16.9,9.9c-1.3-0.5-2.6-0.7-4-0.7C6.3,9.2,1,14.5,1,21.1
	S6.3,33,12.9,33c2.5,0,4.9-0.8,6.9-2.3c3.2,3.2,7.6,5,12.2,5s8.9-1.8,12.2-5c2,1.5,4.4,2.3,6.9,2.3C57.7,33,63,27.7,63,21.1
	S57.7,9.2,51.1,9.2z M14.7,22.7C14.5,22.9,14.3,23,14,23s-0.5-0.1-0.7-0.3l-2-2c-0.4-0.4-0.4-1,0-1.4s1-0.4,1.4,0l2,2
	C15.1,21.7,15.1,22.3,14.7,22.7z M30.7,12.7l-2,2C28.5,14.9,28.3,15,28,15s-0.5-0.1-0.7-0.3c-0.4-0.4-0.4-1,0-1.4l2-2
	c0.4-0.4,1-0.4,1.4,0S31.1,12.3,30.7,12.7z M39,24c0,0.6-0.4,1-1,1s-1-0.4-1-1v-2c0-0.6,0.4-1,1-1s1,0.4,1,1V24z M52.7,20.7
	C52.5,20.9,52.3,21,52,21s-0.5-0.1-0.7-0.3l-2-2c-0.4-0.4-0.4-1,0-1.4s1-0.4,1.4,0l2,2C53.1,19.7,53.1,20.3,52.7,20.7z"/>
</svg>
