<?xml version="1.0" encoding="utf-8"?>
<!-- Generator: Adobe Illustrator 19.1.0, SVG Export Plug-In . SVG Version: 6.00 Build 0)  -->
<!DOCTYPE svg PUBLIC "-//W3C//DTD SVG 1.1//EN" "http://www.w3.org/Graphics/SVG/1.1/DTD/svg11.dtd">
<svg version="1.1" id="Layer_1" xmlns="http://www.w3.org/2000/svg" xmlns:xlink="http://www.w3.org/1999/xlink" x="0px" y="0px"
	 width="64px" height="64px" viewBox="0 0 64 64" enable-background="new 0 0 64 64" xml:space="preserve">
<path d="M61.8,11.2c-0.5-1.8-1.6-3.6-3.5-5.5c-4-4-8.3-4.8-11.2-1.9c-3.3,3.3-4.2,11-2.5,14.2l-6.5,6.5l-5.1-5.1
	c-0.4-0.4-1-0.4-1.4,0l-5.1,5.1l-5.1-5.1c-0.2-0.2-0.4-0.3-0.7-0.3s-0.5,0.1-0.7,0.3L12,27.1c-0.4,0.4-0.4,1,0,1.4l7.6,7.6
	c-0.4,0-0.7-0.1-1.1-0.1c-2.5,0-4.8,1-6.6,2.7c-1.8,1.8-2.7,4.1-2.7,6.6c0,2.1,0.7,4.2,2,5.8l-9.1,9.1c-0.4,0.4-0.4,1,0,1.4
	C2.5,61.9,2.7,62,3,62s0.5-0.1,0.7-0.3l9.1-9.1c1.6,1.3,3.7,2,5.8,2c2.5,0,4.8-1,6.6-2.7c1.8-1.8,2.7-4.1,2.7-6.6
	c0-0.4,0-0.7-0.1-1.1l7.6,7.6c0.2,0.2,0.4,0.3,0.7,0.3s0.5-0.1,0.7-0.3l7.8-7.8c0.4-0.4,0.4-1,0-1.4l-5.1-5.1l5.1-5.1
	c0.2-0.2,0.3-0.4,0.3-0.7s-0.1-0.5-0.3-0.7l-5.1-5.1l6.5-6.5c1.1,0.6,2.6,0.8,4.3,0.8c3.5,0,7.7-1.1,9.9-3.4
	C61.8,15.3,62.3,13.3,61.8,11.2z M58.8,15.4c-1.3,1.3-3.9,2.3-6.7,2.7c-2.8,0.3-4.9-0.1-5.5-0.7c-1.5-1.5-0.9-9.3,1.9-12.2
	C49.3,4.3,50.2,4,51.1,4c2.4,0,4.8,2.2,5.7,3.1c1.6,1.6,2.6,3.2,3,4.6C60.2,13.1,59.9,14.4,58.8,15.4z"/>
</svg>
