<?xml version="1.0" encoding="utf-8"?>
<!-- Generator: Adobe Illustrator 19.1.0, SVG Export Plug-In . SVG Version: 6.00 Build 0)  -->
<!DOCTYPE svg PUBLIC "-//W3C//DTD SVG 1.1//EN" "http://www.w3.org/Graphics/SVG/1.1/DTD/svg11.dtd">
<svg version="1.1" id="Layer_1" xmlns="http://www.w3.org/2000/svg" xmlns:xlink="http://www.w3.org/1999/xlink" x="0px" y="0px"
	 width="64px" height="64px" viewBox="0 0 64 64" enable-background="new 0 0 64 64" xml:space="preserve">
<path d="M54.6,17.2c-4.1-3.2-6.2-6.5-7.1-8.2H52c0.6,0,1-0.4,1-1V2c0-0.6-0.4-1-1-1H12c-0.6,0-1,0.4-1,1v6c0,0.6,0.4,1,1,1h4.5
	c-0.9,1.8-3,5-7.1,8.2C9.1,17.4,9,17.7,9,18v38c0,3.9,3.1,7,7,7h32c3.9,0,7-3.1,7-7V18C55,17.7,54.9,17.4,54.6,17.2z M36.8,36.6
	l-6,8C30.6,44.9,30.3,45,30,45c-0.2,0-0.4-0.1-0.6-0.2c-0.4-0.3-0.5-1-0.2-1.4L34,37h-6c-0.4,0-0.7-0.2-0.9-0.6s-0.1-0.7,0.1-1l6-8
	c0.3-0.4,1-0.5,1.4-0.2c0.4,0.3,0.5,1,0.2,1.4L30,35h6c0.4,0,0.7,0.2,0.9,0.6S37,36.3,36.8,36.6z"/>
</svg>
