<?xml version="1.0" encoding="utf-8"?>
<!-- Generator: Adobe Illustrator 19.1.0, SVG Export Plug-In . SVG Version: 6.00 Build 0)  -->
<!DOCTYPE svg PUBLIC "-//W3C//DTD SVG 1.1//EN" "http://www.w3.org/Graphics/SVG/1.1/DTD/svg11.dtd">
<svg version="1.1" id="Layer_1" xmlns="http://www.w3.org/2000/svg" xmlns:xlink="http://www.w3.org/1999/xlink" x="0px" y="0px"
	 width="64px" height="64px" viewBox="0 0 64 64" enable-background="new 0 0 64 64" xml:space="preserve">
<path d="M63,12c0-3-1.2-5.8-3.4-7.9c-0.2-0.2-0.6-0.3-0.9-0.3c-0.3,0.1-0.6,0.3-0.7,0.6c-1.4,3.5-4.9,8.5-6,8.6c-1.1,0-4.6-5-6-8.6
	c-0.1-0.3-0.4-0.5-0.7-0.6c-0.3-0.1-0.7,0-0.9,0.3C42.2,6.2,41,9,41,12c0,5.7,4.4,10.4,10,10.9c-0.4,4.7-4.1,10.3-9.1,12
	c-0.2-1.3-0.6-2.6-1.2-3.8l-4.9-9.8C35.1,19.9,33.6,19,32,19s-3.1,0.9-3.8,2.3l-4.9,9.8c-0.6,1.2-1,2.5-1.2,3.8
	c-4.9-1.7-8.6-7.2-9.1-12c5.6-0.5,10-5.2,10-10.9c0-3-1.2-5.8-3.4-7.9c-0.2-0.2-0.6-0.3-0.9-0.3c-0.3,0.1-0.6,0.3-0.7,0.6
	c-1.4,3.5-4.9,8.5-6,8.6c-1.1,0-4.5-4.8-6-8.6C5.9,4.1,5.6,3.9,5.3,3.8s-0.7,0-0.9,0.3C2.2,6.2,1,9,1,12c0,5.7,4.4,10.5,10,11
	c0.5,5.6,4.8,12.2,10.9,14c0,1.4,0.2,2.7,0.7,4.1l4.2,12.6C23.4,54.9,21,58.2,21,62c0,0.6,0.4,1,1,1h20c0.6,0,1-0.4,1-1
	c0-3.8-2.4-7.1-5.8-8.4L41.4,41c0.4-1.3,0.7-2.7,0.7-4.1c6.1-1.8,10.5-8.4,10.9-14C58.6,22.5,63,17.7,63,12z"/>
</svg>
