<?xml version="1.0" encoding="utf-8"?>
<!-- Generator: Adobe Illustrator 19.1.0, SVG Export Plug-In . SVG Version: 6.00 Build 0)  -->
<!DOCTYPE svg PUBLIC "-//W3C//DTD SVG 1.1//EN" "http://www.w3.org/Graphics/SVG/1.1/DTD/svg11.dtd">
<svg version="1.1" id="Layer_1" xmlns="http://www.w3.org/2000/svg" xmlns:xlink="http://www.w3.org/1999/xlink" x="0px" y="0px"
	 width="64px" height="64px" viewBox="0 0 64 64" enable-background="new 0 0 64 64" xml:space="preserve">
<path id="color_80_" d="M38.8,3.4c-0.4-0.5-1.2-0.5-1.6,0C36.6,4.2,31,11.5,31,14.7c0,3.5,3.1,6.3,7,6.3s7-2.8,7-6.3
	C45,11.5,39.4,4.2,38.8,3.4z"/>
<path d="M56,35h-7v-5c0-2.8-2.2-5-5-5H28c-0.6,0-1,0.4-1,1v4h8c0.6,0,1,0.4,1,1s-0.4,1-1,1h-8v3h-6V4c0-0.6-0.4-1-1-1h-6
	c-3.9,0-7,3.1-7,7v20c0,3.9,3.1,7,7,7h5v19c0,3.9,3.1,7,7,7h24c3.9,0,7-3.1,7-7V36C57,35.4,56.6,35,56,35z"/>
</svg>
