<?xml version="1.0" encoding="utf-8"?>
<!-- Generator: Adobe Illustrator 19.1.0, SVG Export Plug-In . SVG Version: 6.00 Build 0)  -->
<!DOCTYPE svg PUBLIC "-//W3C//DTD SVG 1.1//EN" "http://www.w3.org/Graphics/SVG/1.1/DTD/svg11.dtd">
<svg version="1.1" id="Layer_1" xmlns="http://www.w3.org/2000/svg" xmlns:xlink="http://www.w3.org/1999/xlink" x="0px" y="0px"
	 width="64px" height="64px" viewBox="0 0 64 64" enable-background="new 0 0 64 64" xml:space="preserve">
<path d="M61.8,42.9c-0.9-1.3-2.3-1.9-3.6-1.6l-0.3,0.1c-3.1,0.7-12.5,3-28.2-3.9C13.6,30.3,12.3,22,11.1,5.5c0-0.3-0.2-0.5-0.4-0.7
	c-0.2-0.2-0.5-0.3-0.8-0.2L3.2,5.4c-0.5,0.1-0.9,0.5-0.9,1l0.3,9.8c-0.4,1.4-3,12-0.7,22.2c3.1,13.3,18.9,20.7,32.9,21.1
	c0.7,0,1.3,0,2,0c11.9,0,21.7-2.9,24.6-7.5C63.6,48.7,63.3,44.9,61.8,42.9z"/>
<path id="color_23_" d="M30.4,35.6c7.1,3.1,13.7,4.7,19.6,4.7c1.3,0,2.4-0.1,3.3-0.2c4.1-2.3,6.7-5,7.7-7.6c1.3-3.7,0.1-7.3-1.8-9
	c-1.2-1.1-2.7-1.3-3.9-0.7L55,23c-2.8,1.5-11.5,5.9-28.4,2.9c-4.4-0.8-7.9-1.9-10.7-3.3C18.1,28,22.2,31.9,30.4,35.6z"/>
</svg>
