<?xml version="1.0" encoding="utf-8"?>
<!-- Generator: Adobe Illustrator 19.1.0, SVG Export Plug-In . SVG Version: 6.00 Build 0)  -->
<!DOCTYPE svg PUBLIC "-//W3C//DTD SVG 1.1//EN" "http://www.w3.org/Graphics/SVG/1.1/DTD/svg11.dtd">
<svg version="1.1" id="Layer_1" xmlns="http://www.w3.org/2000/svg" xmlns:xlink="http://www.w3.org/1999/xlink" x="0px" y="0px"
	 width="64px" height="64px" viewBox="0 0 64 64" enable-background="new 0 0 64 64" xml:space="preserve">
<path d="M24,1c-0.6,0-1,0.4-1,1v14c0,2.8-2.2,5-5,5s-5-2.2-5-5V2c0-0.6-0.4-1-1-1s-1,0.4-1,1v14c0,3.5,2.6,6.4,6,6.9V37h-3
	c-0.6,0-1,0.4-1,1v20c0,2.8,2.2,5,5,5s5-2.2,5-5V38c0-0.6-0.4-1-1-1h-3V22.9c3.4-0.5,6-3.4,6-6.9V2C25,1.4,24.6,1,24,1z"/>
<path id="color_79_" d="M54,1H38c-0.6,0-1,0.4-1,1v20c0,0.6,0.4,1,1,1h7v14h-3c-0.6,0-1,0.4-1,1v20c0,2.8,2.2,5,5,5s5-2.2,5-5V38
	c0-0.6-0.4-1-1-1h-3V23h7c0.6,0,1-0.4,1-1V2C55,1.4,54.6,1,54,1z M39,21V3h6v18H39z M53,21h-6V3h6V21z"/>
</svg>
