<?xml version="1.0" encoding="utf-8"?>
<!-- Generator: Adobe Illustrator 19.1.0, SVG Export Plug-In . SVG Version: 6.00 Build 0)  -->
<!DOCTYPE svg PUBLIC "-//W3C//DTD SVG 1.1//EN" "http://www.w3.org/Graphics/SVG/1.1/DTD/svg11.dtd">
<svg version="1.1" id="Layer_1" xmlns="http://www.w3.org/2000/svg" xmlns:xlink="http://www.w3.org/1999/xlink" x="0px" y="0px"
	 width="64px" height="64px" viewBox="0 0 64 64" enable-background="new 0 0 64 64" xml:space="preserve">
<path d="M61,32.5c-0.2-7.8-4-14.1-7.7-17C47.6,11.1,41.2,9.9,34,12c1-4.4,3-6.9,6.6-9.2c0.5-0.3,0.6-0.9,0.3-1.4S40,0.8,39.5,1.1
	C35,4,32.8,7.5,31.8,12.6h-0.1c-0.7-1.5-1.6-3.1-3-4.5c-3.9-3.9-9.6-4.3-9.9-4.3S18.2,3.9,18,4.1c-0.2,0.2-0.3,0.5-0.3,0.8
	c0,0.2,0.2,3.3,1.9,6.5c-3.2,0.6-6.1,2-9,4.2C7,18.4,3.2,24.7,3,32.5c-0.2,6.8,2.4,17.2,15.4,28.2c5.1,4.3,11.7,1.4,13.6,0.4
	c1.1,0.6,4,1.9,7.2,1.9c2.1,0,4.4-0.6,6.4-2.3C58.6,49.7,61.1,39.3,61,32.5z M27.3,9.5c2.4,2.4,3.4,5.7,3.7,7.3
	c-1.8-0.3-5.2-1.2-7.5-3.5C21.1,11,20.2,7.7,19.9,6C21.7,6.3,24.9,7.1,27.3,9.5z M40.8,21.9c-1.9,1.4-5,3.1-8.8,3.1
	c-3.9,0-6.9-1.7-8.8-3.1c-0.4-0.3-0.5-1-0.2-1.4s1-0.5,1.4-0.2C26,21.5,28.7,23,32,23s5.9-1.5,7.6-2.7c0.4-0.3,1.1-0.2,1.4,0.2
	C41.3,20.9,41.2,21.6,40.8,21.9z"/>
</svg>
