<?xml version="1.0" encoding="utf-8"?>
<!-- Generator: Adobe Illustrator 19.1.0, SVG Export Plug-In . SVG Version: 6.00 Build 0)  -->
<!DOCTYPE svg PUBLIC "-//W3C//DTD SVG 1.1//EN" "http://www.w3.org/Graphics/SVG/1.1/DTD/svg11.dtd">
<svg version="1.1" id="Layer_1" xmlns="http://www.w3.org/2000/svg" xmlns:xlink="http://www.w3.org/1999/xlink" x="0px" y="0px"
	 width="64px" height="64px" viewBox="0 0 64 64" enable-background="new 0 0 64 64" xml:space="preserve">
<polygon id="color_31_" points="45.3,1 18.6,1 26.6,17 37.4,17 "/>
<path d="M17,18c0-0.6,0.4-1,1-1h6.4L16.8,1.9L11.5,9H2c-0.6,0-1,0.4-1,1v52c0,0.6,0.4,1,1,1h15V18z"/>
<path d="M62,9h-9.5l-5.4-7.2l-8.2,16.6C38.7,18.8,38.4,19,38,19H19v44h43c0.6,0,1-0.4,1-1V10C63,9.4,62.6,9,62,9z M28,53h-2
	c-0.6,0-1-0.4-1-1s0.4-1,1-1h2c0.6,0,1,0.4,1,1S28.6,53,28,53z M28,45h-2c-0.6,0-1-0.4-1-1s0.4-1,1-1h2c0.6,0,1,0.4,1,1
	S28.6,45,28,45z M28,37h-2c-0.6,0-1-0.4-1-1s0.4-1,1-1h2c0.6,0,1,0.4,1,1S28.6,37,28,37z M28,29h-2c-0.6,0-1-0.4-1-1s0.4-1,1-1h2
	c0.6,0,1,0.4,1,1S28.6,29,28,29z"/>
</svg>
