<?xml version="1.0" encoding="utf-8"?>
<!-- Generator: Adobe Illustrator 19.1.0, SVG Export Plug-In . SVG Version: 6.00 Build 0)  -->
<!DOCTYPE svg PUBLIC "-//W3C//DTD SVG 1.1//EN" "http://www.w3.org/Graphics/SVG/1.1/DTD/svg11.dtd">
<svg version="1.1" id="Layer_1" xmlns="http://www.w3.org/2000/svg" xmlns:xlink="http://www.w3.org/1999/xlink" x="0px" y="0px"
	 width="64px" height="64px" viewBox="0 0 64 64" enable-background="new 0 0 64 64" xml:space="preserve">
<path d="M62.3,18.9c-1-2.6-3.3-5.7-6.5-8.9c-3.3-3.3-6.7-5.9-9.8-7.4c-3.5-1.7-6-1.9-7.4-0.5L26.7,14c-3.2,3.2-4.2,7.4-5.3,11.4
	c-1,3.9-1.9,7.6-4.6,10.4c-0.4,0.4-0.4,1,0,1.4l9.9,9.9c0.2,0.2,0.5,0.3,0.7,0.3s0.5-0.1,0.7-0.3c2.7-2.7,6.4-3.7,10.4-4.6
	c4.1-1,8.3-2.1,11.4-5.3l11.9-11.9C62.6,24.5,63.8,22.5,62.3,18.9z"/>
<path id="color" d="M24,47.2l-7.4-7.4L11.5,45c-2.6-1.9-6.2-1.7-8.6,0.7c-2.6,2.6-2.6,6.8,0,9.3C4,56.1,5.5,56.7,7,56.9
	c0.1,1.5,0.8,3,1.9,4.1c1.3,1.3,3,1.9,4.7,1.9s3.4-0.6,4.7-1.9c2.3-2.3,2.6-6,0.7-8.6L24,47.2z"/>
</svg>
