<?xml version="1.0" encoding="utf-8"?>
<!-- Generator: Adobe Illustrator 19.1.0, SVG Export Plug-In . SVG Version: 6.00 Build 0)  -->
<!DOCTYPE svg PUBLIC "-//W3C//DTD SVG 1.1//EN" "http://www.w3.org/Graphics/SVG/1.1/DTD/svg11.dtd">
<svg version="1.1" id="Layer_1" xmlns="http://www.w3.org/2000/svg" xmlns:xlink="http://www.w3.org/1999/xlink" x="0px" y="0px"
	 width="64px" height="64px" viewBox="0 0 64 64" enable-background="new 0 0 64 64" xml:space="preserve">
<path d="M43.4,35H16.7L9,61.7C9,62,9,62.4,9.2,62.6S9.7,63,10,63h42c0.3,0,0.6-0.2,0.8-0.4c0.2-0.3,0.2-0.6,0.1-0.9L43.4,35z"/>
<path id="color_22_" d="M58,9h-8H36V2c0-0.6-0.4-1-1-1h-8c-0.6,0-1,0.4-1,1v7H6C5.6,9,5.3,9.2,5.1,9.6C4.9,9.9,5,10.3,5.2,10.6
	l9.8,11.8L16.8,33h26.6l2-6H52c3.9,0,7-3.1,7-7V10C59,9.4,58.6,9,58,9z M57,20c0,2.8-2.2,5-5,5h-5.9l4.7-14H57V20z"/>
</svg>
