<?xml version="1.0" encoding="utf-8"?>
<!-- Generator: Adobe Illustrator 19.1.0, SVG Export Plug-In . SVG Version: 6.00 Build 0)  -->
<!DOCTYPE svg PUBLIC "-//W3C//DTD SVG 1.1//EN" "http://www.w3.org/Graphics/SVG/1.1/DTD/svg11.dtd">
<svg version="1.1" id="Layer_1" xmlns="http://www.w3.org/2000/svg" xmlns:xlink="http://www.w3.org/1999/xlink" x="0px" y="0px"
	 width="64px" height="64px" viewBox="0 0 64 64" enable-background="new 0 0 64 64" xml:space="preserve">
<path id="color_52_" d="M58,59c-0.3,0-0.5-0.1-0.7-0.3l-2-2c-0.4-0.4-0.4-1,0-1.4s1-0.4,1.4,0l2,2c0.4,0.4,0.4,1,0,1.4
	C58.5,58.9,58.3,59,58,59z"/>
<path id="color_51_" d="M56,45c-0.3,0-0.5-0.1-0.7-0.3l-2-2c-0.4-0.4-0.4-1,0-1.4s1-0.4,1.4,0l2,2c0.4,0.4,0.4,1,0,1.4
	C56.5,44.9,56.3,45,56,45z"/>
<path id="color_50_" d="M44,57c-0.3,0-0.5-0.1-0.7-0.3l-2-2c-0.4-0.4-0.4-1,0-1.4s1-0.4,1.4,0l2,2c0.4,0.4,0.4,1,0,1.4
	C44.5,56.9,44.3,57,44,57z"/>
<path id="color_49_" d="M50,29.2l-5.8-5.8c-0.2-0.2-0.4-0.3-0.7-0.3s-0.5,0.1-0.7,0.3L23.4,42.8c-0.4,0.4-0.4,1,0,1.4l5.8,5.8
	c0.2,0.2,0.4,0.3,0.7,0.3s0.5-0.1,0.7-0.3L50,30.6C50.4,30.2,50.4,29.6,50,29.2z"/>
<path d="M40.7,22.6L32.2,8.4c-1.9-3.2-5.1-5.3-8.8-5.7c-3.7-0.5-7.3,0.8-9.9,3.4l-7.3,7.3c-2.6,2.6-3.9,6.3-3.4,9.9s2.5,6.9,5.7,8.8
	l14.2,8.5L40.7,22.6z"/>
</svg>
