<?xml version="1.0" encoding="utf-8"?>
<!-- Generator: Adobe Illustrator 19.1.0, SVG Export Plug-In . SVG Version: 6.00 Build 0)  -->
<!DOCTYPE svg PUBLIC "-//W3C//DTD SVG 1.1//EN" "http://www.w3.org/Graphics/SVG/1.1/DTD/svg11.dtd">
<svg version="1.1" id="Layer_1" xmlns="http://www.w3.org/2000/svg" xmlns:xlink="http://www.w3.org/1999/xlink" x="0px" y="0px"
	 width="64px" height="64px" viewBox="0 0 64 64" enable-background="new 0 0 64 64" xml:space="preserve">
<path d="M59.9,43H39.4l11.4,12.2c0.7,0.7,1.7,1.1,2.7,1.1c0.2,0,0.3,0,0.5,0c1.2-0.2,2.2-0.8,2.7-1.8c1.3-2.3,3.4-6.6,4-11.5
	C60.5,43,60.2,43,59.9,43z"/>
<path d="M4.1,43c-0.3,0-0.5,0-0.8-0.1c0.6,4.9,2.7,9.2,4,11.5c0.6,1,1.6,1.7,2.7,1.8c0.2,0,0.3,0,0.5,0c1,0,1.9-0.4,2.7-1.1L24.6,43
	H4.1z"/>
<path d="M53.9,13.9C47.9,9.4,40.3,7,32,7s-15.9,2.4-21.9,6.9c-0.9,0.7-1.4,1.7-1.5,2.8c-0.1,1.1,0.3,2.1,1.1,2.9l21.6,21.2
	c0.2,0.2,0.4,0.3,0.7,0.3s0.5-0.1,0.7-0.3l21.6-21.2c0.8-0.8,1.2-1.8,1.1-2.9C55.3,15.5,54.8,14.5,53.9,13.9z"/>
<path id="color_20_" d="M8.3,21c-0.1-0.1-0.2-0.2-0.3-0.4c-4.1,4.9-6.5,10.8-6.9,17.1c-0.1,0.9,0.2,1.7,0.8,2.3
	C2.5,40.7,3.2,41,4.1,41h24.7L8.3,21z"/>
<path id="color_19_" d="M56,20.6c-0.1,0.1-0.2,0.2-0.3,0.3L35.3,41h24.7c0.8,0,1.6-0.3,2.2-0.9c0.6-0.6,0.9-1.5,0.8-2.3
	C62.5,31.4,60.1,25.5,56,20.6z"/>
</svg>
