<?xml version="1.0" encoding="utf-8"?>
<!-- Generator: Adobe Illustrator 19.1.0, SVG Export Plug-In . SVG Version: 6.00 Build 0)  -->
<!DOCTYPE svg PUBLIC "-//W3C//DTD SVG 1.1//EN" "http://www.w3.org/Graphics/SVG/1.1/DTD/svg11.dtd">
<svg version="1.1" id="Layer_1" xmlns="http://www.w3.org/2000/svg" xmlns:xlink="http://www.w3.org/1999/xlink" x="0px" y="0px"
	 width="64px" height="64px" viewBox="0 0 64 64" enable-background="new 0 0 64 64" xml:space="preserve">
<path d="M62,21c0.6,0,1-0.4,1-1V2c0-0.6-0.4-1-1-1H44c-0.6,0-1,0.4-1,1c0,6.1-4.9,11-11,11S21,8.1,21,2c0-0.6-0.4-1-1-1H2
	C1.4,1,1,1.4,1,2v60c0,0.6,0.4,1,1,1h60c0.6,0,1-0.4,1-1V44c0-0.6-0.4-1-1-1c-6.1,0-11-4.9-11-11S55.9,21,62,21z M20,53
	c-5,0-9-4-9-9s4-9,9-9s9,4,9,9S25,53,20,53z M36,33c-2.8,0-5-2.2-5-5s2.2-5,5-5s5,2.2,5,5S38.8,33,36,33z"/>
</svg>
