<?xml version="1.0" encoding="utf-8"?>
<!-- Generator: Adobe Illustrator 19.1.0, SVG Export Plug-In . SVG Version: 6.00 Build 0)  -->
<!DOCTYPE svg PUBLIC "-//W3C//DTD SVG 1.1//EN" "http://www.w3.org/Graphics/SVG/1.1/DTD/svg11.dtd">
<svg version="1.1" id="Layer_1" xmlns="http://www.w3.org/2000/svg" xmlns:xlink="http://www.w3.org/1999/xlink" x="0px" y="0px"
	 width="64px" height="64px" viewBox="0 0 64 64" enable-background="new 0 0 64 64" xml:space="preserve">
<path d="M55,17.1L46.9,9c-1.5-1.5-4-1.5-5.5,0L9,41.4c-0.7,0.7-1.1,1.7-1.1,2.7s0.4,2,1.1,2.7l8.1,8.1c0.7,0.7,1.7,1.1,2.7,1.1
	s2-0.4,2.7-1.1L55,22.6c0.7-0.7,1.1-1.7,1.1-2.7S55.7,17.9,55,17.1z"/>
<path id="color_18_" d="M6.9,47.6L3,51.5c-2.6,2.6-2.6,6.9,0,9.5c1.3,1.3,3,2,4.8,2c1.7,0,3.4-0.7,4.8-2l3.9-3.9L6.9,47.6z"/>
<path id="color_17_" d="M61,3c-2.6-2.6-6.9-2.6-9.5,0l-3.9,3.9l9.5,9.5l3.9-3.9C63.7,9.9,63.7,5.6,61,3z"/>
</svg>
