<?xml version="1.0" encoding="utf-8"?>
<!-- Generator: Adobe Illustrator 19.1.0, SVG Export Plug-In . SVG Version: 6.00 Build 0)  -->
<!DOCTYPE svg PUBLIC "-//W3C//DTD SVG 1.1//EN" "http://www.w3.org/Graphics/SVG/1.1/DTD/svg11.dtd">
<svg version="1.1" id="Layer_1" xmlns="http://www.w3.org/2000/svg" xmlns:xlink="http://www.w3.org/1999/xlink" x="0px" y="0px"
	 width="64px" height="64px" viewBox="0 0 64 64" enable-background="new 0 0 64 64" xml:space="preserve">
<path id="color_39_" d="M11,47c2.5,0,4.9-1.4,6.1-3.7c0.3-0.6,1.4-0.6,1.8,0c1.2,2.3,3.6,3.7,6.1,3.7s4.9-1.4,6.1-3.7
	c0.3-0.6,1.4-0.6,1.8,0c1.2,2.3,3.6,3.7,6.1,3.7s4.9-1.4,6.1-3.7c0.3-0.6,1.4-0.6,1.8,0c1.2,2.3,3.6,3.7,6.1,3.7c3.9,0,7-3.1,7-7
	c0-0.6-0.4-1-1-1H5c-0.6,0-1,0.4-1,1C4,43.9,7.1,47,11,47z"/>
<path d="M53,49c-2.7,0-5.3-1.3-7-3.4c-1.7,2.1-4.3,3.4-7,3.4s-5.3-1.3-7-3.4c-1.7,2.1-4.3,3.4-7,3.4s-5.3-1.3-7-3.4
	c-1.7,2.1-4.3,3.4-7,3.4c-2.8,0-5.3-1.3-7-3.4V62c0,0.6,0.4,1,1,1h54c0.6,0,1-0.4,1-1V45.6C58.3,47.7,55.8,49,53,49z"/>
<path d="M10,25c-0.6,0-1,0.4-1,1v11h46V26c0-0.6-0.4-1-1-1h-3v-6.1c2.3-0.5,4-2.5,4-4.9c0-2.4-3.5-7.6-4.2-8.6
	c-0.4-0.5-1.3-0.5-1.6,0c-0.7,1-4.2,6.2-4.2,8.6c0,2.4,1.7,4.4,4,4.9V25H33v-8.1c2.3-0.5,4-2.5,4-4.9c0-2.4-3.5-7.6-4.2-8.6
	c-0.4-0.5-1.3-0.5-1.6,0C30.5,4.4,27,9.6,27,12c0,2.4,1.7,4.4,4,4.9V25H15v-6.1c2.3-0.5,4-2.5,4-4.9c0-2.4-3.5-7.6-4.2-8.6
	c-0.4-0.5-1.3-0.5-1.6,0C12.5,6.4,9,11.6,9,14c0,2.4,1.7,4.4,4,4.9V25H10z"/>
</svg>
