<?xml version="1.0" encoding="utf-8"?>
<!-- Generator: Adobe Illustrator 19.1.0, SVG Export Plug-In . SVG Version: 6.00 Build 0)  -->
<!DOCTYPE svg PUBLIC "-//W3C//DTD SVG 1.1//EN" "http://www.w3.org/Graphics/SVG/1.1/DTD/svg11.dtd">
<svg version="1.1" id="Layer_1" xmlns="http://www.w3.org/2000/svg" xmlns:xlink="http://www.w3.org/1999/xlink" x="0px" y="0px"
	 width="64px" height="64px" viewBox="0 0 64 64" enable-background="new 0 0 64 64" xml:space="preserve">
<path d="M18,1C11.9,1,7,5.9,7,12v4c0,4.3,2.4,8,6,9.8V58c0,2.8,2.2,5,5,5s5-2.2,5-5V25.8c3.6-1.8,6-5.5,6-9.8v-4C29,5.9,24.1,1,18,1
	z"/>
<path id="color_59_" d="M52,1c-7.2,0-13,5.8-13,13v26c0,0.6,0.4,1,1,1h3v17c0,2.8,2.2,5,5,5s5-2.2,5-5V40V2C53,1.4,52.6,1,52,1z"/>
</svg>
