<?xml version="1.0" encoding="utf-8"?>
<!-- Generator: Adobe Illustrator 19.1.0, SVG Export Plug-In . SVG Version: 6.00 Build 0)  -->
<!DOCTYPE svg PUBLIC "-//W3C//DTD SVG 1.1//EN" "http://www.w3.org/Graphics/SVG/1.1/DTD/svg11.dtd">
<svg version="1.1" id="Layer_1" xmlns="http://www.w3.org/2000/svg" xmlns:xlink="http://www.w3.org/1999/xlink" x="0px" y="0px"
	 width="64px" height="64px" viewBox="0 0 64 64" enable-background="new 0 0 64 64" xml:space="preserve">
<path d="M11.5,27L17,62.2c0.1,0.5,0.5,0.8,1,0.8h28c0.5,0,0.9-0.4,1-0.8L52.5,27H11.5z"/>
<path id="color_53_" d="M58,15H39.3l3.4-12H54c0.6,0,1-0.4,1-1s-0.4-1-1-1H42c-0.4,0-0.8,0.3-1,0.7L37.2,15H6c-0.6,0-1,0.4-1,1v8
	c0,0.6,0.4,1,1,1h52c0.6,0,1-0.4,1-1v-8C59,15.4,58.6,15,58,15z"/>
</svg>
