<?xml version="1.0" encoding="utf-8"?>
<!-- Generator: Adobe Illustrator 19.1.0, SVG Export Plug-In . SVG Version: 6.00 Build 0)  -->
<!DOCTYPE svg PUBLIC "-//W3C//DTD SVG 1.1//EN" "http://www.w3.org/Graphics/SVG/1.1/DTD/svg11.dtd">
<svg version="1.1" id="Layer_1" xmlns="http://www.w3.org/2000/svg" xmlns:xlink="http://www.w3.org/1999/xlink" x="0px" y="0px"
	 width="64px" height="64px" viewBox="0 0 64 64" enable-background="new 0 0 64 64" xml:space="preserve">
<path d="M32,1C14.9,1,1,14.9,1,32s13.9,31,31,31s31-13.9,31-31S49.1,1,32,1z M51.3,27.3l2-2c0.4-0.4,1-0.4,1.4,0s0.4,1,0,1.4l-2,2
	C52.5,28.9,52.3,29,52,29s-0.5-0.1-0.7-0.3C50.9,28.3,50.9,27.7,51.3,27.3z M43.3,15.3c0.4-0.4,1-0.4,1.4,0l2,2c0.4,0.4,0.4,1,0,1.4
	C46.5,18.9,46.3,19,46,19s-0.5-0.1-0.7-0.3l-2-2C42.9,16.3,42.9,15.7,43.3,15.3z M31.3,11.3l2-2c0.4-0.4,1-0.4,1.4,0s0.4,1,0,1.4
	l-2,2C32.5,12.9,32.3,13,32,13s-0.5-0.1-0.7-0.3C30.9,12.3,30.9,11.7,31.3,11.3z M32,21c6.1,0,11,4.9,11,11s-4.9,11-11,11
	s-11-4.9-11-11S25.9,21,32,21z M17.3,13.3c0.4-0.4,1-0.4,1.4,0l2,2c0.4,0.4,0.4,1,0,1.4C20.5,16.9,20.3,17,20,17s-0.5-0.1-0.7-0.3
	l-2-2C16.9,14.3,16.9,13.7,17.3,13.3z M9.3,27.3l2-2c0.4-0.4,1-0.4,1.4,0s0.4,1,0,1.4l-2,2C10.5,28.9,10.3,29,10,29
	s-0.5-0.1-0.7-0.3C8.9,28.3,8.9,27.7,9.3,27.3z M32,61C20.1,61,9.8,53.8,5.4,43.5c1.9,0.6,3.7,0.9,5.5,0.9c4.1,0,7.9-1.5,10.8-4.5
	C24,43,27.8,45,32,45c4.2,0,7.9-2,10.3-5.1c3.1,3.5,7.2,5,11.1,5c1.7,0,3.4-0.3,4.9-0.9C53.8,54,43.7,61,32,61z"/>
</svg>
