<?xml version="1.0" encoding="utf-8"?>
<!-- Generator: Adobe Illustrator 19.1.0, SVG Export Plug-In . SVG Version: 6.00 Build 0)  -->
<!DOCTYPE svg PUBLIC "-//W3C//DTD SVG 1.1//EN" "http://www.w3.org/Graphics/SVG/1.1/DTD/svg11.dtd">
<svg version="1.1" id="Layer_1" xmlns="http://www.w3.org/2000/svg" xmlns:xlink="http://www.w3.org/1999/xlink" x="0px" y="0px"
	 width="64px" height="64px" viewBox="0 0 64 64" enable-background="new 0 0 64 64" xml:space="preserve">
<path id="color_70_" d="M26,9c-0.6,0-1-0.4-1-1V2c0-0.6,0.4-1,1-1s1,0.4,1,1v6C27,8.6,26.6,9,26,9z"/>
<path id="color_69_" d="M16,13c-0.6,0-1-0.4-1-1V6c0-0.6,0.4-1,1-1s1,0.4,1,1v6C17,12.6,16.6,13,16,13z"/>
<path id="color_68_" d="M36,13c-0.6,0-1-0.4-1-1V6c0-0.6,0.4-1,1-1s1,0.4,1,1v6C37,12.6,36.6,13,36,13z"/>
<path id="color_24_" d="M3,34v22c0,3.9,3.1,7,7,7h34c3.9,0,7-3.1,7-7V34H3z"/>
<path d="M60,19H50H4c-0.6,0-1,0.4-1,1v12h48v-6h9c0.6,0,1-0.4,1-1v-5C61,19.4,60.6,19,60,19z"/>
</svg>
