<?xml version="1.0" encoding="utf-8"?>
<!-- Generator: Adobe Illustrator 19.1.0, SVG Export Plug-In . SVG Version: 6.00 Build 0)  -->
<!DOCTYPE svg PUBLIC "-//W3C//DTD SVG 1.1//EN" "http://www.w3.org/Graphics/SVG/1.1/DTD/svg11.dtd">
<svg version="1.1" id="Layer_1" xmlns="http://www.w3.org/2000/svg" xmlns:xlink="http://www.w3.org/1999/xlink" x="0px" y="0px"
	 width="64px" height="64px" viewBox="0 0 64 64" enable-background="new 0 0 64 64" xml:space="preserve">
<path d="M58,17H26c-0.6,0-1,0.4-1,1v5c0,0.6,0.4,1,1,1h32c0.6,0,1-0.4,1-1v-5C59,17.4,58.6,17,58,17z"/>
<path id="color_81_" d="M9,1C4.6,1,1,4.3,1,8.4c0,2.5,1.5,7.5,4,10.4V62c0,0.6,0.4,1,1,1h6c0.6,0,1-0.4,1-1V18.8
	c2.5-2.9,4-7.9,4-10.4C17,4.3,13.4,1,9,1z"/>
<path d="M62,26H22c-0.6,0-1,0.4-1,1v35c0,0.6,0.4,1,1,1h40c0.6,0,1-0.4,1-1V27C63,26.4,62.6,26,62,26z M42,53c-3.9,0-7-2.8-7-6.3
	c0-3.2,5.6-10.5,6.2-11.3c0.4-0.5,1.2-0.5,1.6,0c0.6,0.8,6.2,8.1,6.2,11.3C49,50.2,45.9,53,42,53z"/>
</svg>
