<?xml version="1.0" encoding="utf-8"?>
<!-- Generator: Adobe Illustrator 19.1.0, SVG Export Plug-In . SVG Version: 6.00 Build 0)  -->
<!DOCTYPE svg PUBLIC "-//W3C//DTD SVG 1.1//EN" "http://www.w3.org/Graphics/SVG/1.1/DTD/svg11.dtd">
<svg version="1.1" id="Layer_1" xmlns="http://www.w3.org/2000/svg" xmlns:xlink="http://www.w3.org/1999/xlink" x="0px" y="0px"
	 width="64px" height="64px" viewBox="0 0 64 64" enable-background="new 0 0 64 64" xml:space="preserve">
<path d="M61.1,44.7L42.6,24.3l-2.5,28.5c6.4-1.8,11.7-6.2,14.6-12.3l4.5,4.9C53.9,54.5,44.3,60,33.9,60C17.7,60,4.6,46.9,4.6,30.7
	C4.6,19.4,11.2,9,21.5,4.2L26,9.1c-7.1,2.6-12.4,8.6-14.3,15.7l28.7-3L22.5,2.3c-0.3-0.3-0.7-0.4-1.1-0.2C10,7.1,2.6,18.3,2.6,30.7
	C2.6,48,16.6,62,33.9,62c11.4,0,21.9-6.2,27.4-16.2C61.5,45.4,61.4,45,61.1,44.7z"/>
<path d="M16.9,46.3c4.2,4.6,10.2,7.5,16.9,7.5c1.4,0,2.8-0.1,4.2-0.4l2.4-28.2L16.9,46.3z"/>
<path d="M38.8,24l-27.6,2.8c-0.2,1.3-0.3,2.5-0.3,3.8c0,5.3,1.8,10.1,4.8,14L38.8,24z"/>
</svg>
