<?xml version="1.0" encoding="utf-8"?>
<!-- Generator: Adobe Illustrator 18.1.1, SVG Export Plug-In . SVG Version: 6.00 Build 0)  -->
<!DOCTYPE svg PUBLIC "-//W3C//DTD SVG 1.1//EN" "http://www.w3.org/Graphics/SVG/1.1/DTD/svg11.dtd">
<svg version="1.1" id="Layer_1" xmlns="http://www.w3.org/2000/svg" xmlns:xlink="http://www.w3.org/1999/xlink" x="0px" y="0px"
	 width="32px" height="32px" viewBox="0 0 32 32" enable-background="new 0 0 32 32" xml:space="preserve">
<path d="M17,3V1c0-0.6-0.4-1-1-1s-1,0.4-1,1v2C4.2,3.6,3,14.2,3,18.8c0,3,1.2,5.3,3,6.9v3.2c0,0.4,0.2,0.7,0.5,0.9
	C9.1,31.2,12.4,32,16,32s6.9-0.8,9.5-2.3c0.3-0.2,0.5-0.5,0.5-0.9v-3.2c1.8-1.6,3-3.9,3-6.9C29,14.2,27.8,3.6,17,3z M24,28.3
	c-2.2,1.1-5,1.7-8,1.7s-5.8-0.6-8-1.7v-1.2c2.3,1.3,5.2,1.9,8,1.9s5.7-0.6,8-1.9V28.3z M16,27c-2.9,0-6.1-0.7-8.3-2.5c0,0,0,0,0,0
	C6.1,23.2,5,21.4,5,18.8C5,7.4,11,5,16,5s11,2.4,11,13.8C27,24.8,21.1,27,16,27z"/>
<path d="M16,6.9c-4.6,0-9.3,3.5-9.3,10.1c0,1.7,0.7,3.9,4.3,5.1c1.4,0.4,3.1,0.7,5,0.7c0,0,0,0,0,0l0.1-1l0.1,1c0,0,0.1,0,0.1,0
	c5.7,0,9.2-2.2,9.2-5.8C25.3,10.4,20.5,6.9,16,6.9z M20.4,20.1c-1.2,0.4-2.7,0.6-4.3,0.6H16h-0.2c-1.6,0-3.1-0.2-4.3-0.6
	c-2.9-0.9-2.9-2.6-2.9-3.2c0-5.5,3.8-8.1,7.3-8.1c2.9,0,7.3,2.1,7.3,8.1C23.3,17.5,23.3,19.2,20.4,20.1z"/>
<path d="M13.9,10.4c-1.5,0.3-2.9,1.8-3.4,3.5c-0.1,0.5,0.2,1.1,0.7,1.2c0.1,0,0.2,0,0.3,0c0.4,0,0.8-0.3,1-0.7
	c0.3-1.1,1.2-1.9,1.9-2.1c0.5-0.1,0.9-0.7,0.8-1.2C15,10.6,14.5,10.3,13.9,10.4z"/>
</svg>
