<?xml version="1.0" encoding="utf-8"?>
<!-- Generator: Adobe Illustrator 18.1.1, SVG Export Plug-In . SVG Version: 6.00 Build 0)  -->
<!DOCTYPE svg PUBLIC "-//W3C//DTD SVG 1.1//EN" "http://www.w3.org/Graphics/SVG/1.1/DTD/svg11.dtd">
<svg version="1.1" id="Layer_1" xmlns="http://www.w3.org/2000/svg" xmlns:xlink="http://www.w3.org/1999/xlink" x="0px" y="0px"
	 width="32px" height="32px" viewBox="0 0 32 32" enable-background="new 0 0 32 32" xml:space="preserve">
<path d="M30,15H19c-0.6,0-1,0.4-1,1v4c0,1.1-0.9,2-2,2s-2-0.9-2-2v-9h2c0.6,0,1-0.4,1-1s-0.4-1-1-1h-3V4c0-2.2-1.8-4-4-4H3
	C2.4,0,2,0.4,2,1v4c0,0.6,0.4,1,1,1h4v3H4c-0.6,0-1,0.4-1,1s0.4,1,1,1h2v8.5C6,26.4,11.6,32,18.5,32S31,26.4,31,19.5V16
	C31,15.4,30.6,15,30,15z M7,4H4V2h5c1.1,0,2,0.9,2,2v5H9V6C9,4.9,8.1,4,7,4z M29,19.5C29,25.3,24.3,30,18.5,30S8,25.3,8,19.5V11h4v9
	c0,2.2,1.8,4,4,4s4-1.8,4-4v-3h9V19.5z"/>
</svg>
