<?xml version="1.0" encoding="utf-8"?>
<!-- Generator: Adobe Illustrator 18.1.1, SVG Export Plug-In . SVG Version: 6.00 Build 0)  -->
<!DOCTYPE svg PUBLIC "-//W3C//DTD SVG 1.1//EN" "http://www.w3.org/Graphics/SVG/1.1/DTD/svg11.dtd">
<svg version="1.1" id="Layer_1" xmlns="http://www.w3.org/2000/svg" xmlns:xlink="http://www.w3.org/1999/xlink" x="0px" y="0px"
	 width="32px" height="32px" viewBox="0 0 32 32" enable-background="new 0 0 32 32" xml:space="preserve">
<path d="M2,30h7c0.6,0,1-0.4,1-1c0-2.2,1.8-4,4-4s4,1.8,4,4c0,0.6,0.4,1,1,1h7c0.6,0,1-0.4,1-1v-7.1c2.3-0.5,4-2.5,4-4.9
	s-1.7-4.4-4-4.9V6c0-0.6-0.4-1-1-1h-7.1c-0.5-2.3-2.5-4-4.9-4S9.6,2.7,9.1,5H2C1.4,5,1,5.4,1,6v6c0,0.6,0.4,1,1,1c2.2,0,4,1.8,4,4
	s-1.8,4-4,4c-0.6,0-1,0.4-1,1v7C1,29.6,1.4,30,2,30z M3,22.9C5.8,22.4,8,20,8,17s-2.2-5.4-5-5.9V7h7c0.6,0,1-0.4,1-1
	c0-1.7,1.3-3,3-3s3,1.3,3,3c0,0.6,0.4,1,1,1h7v6c0,0.6,0.4,1,1,1c1.7,0,3,1.3,3,3s-1.3,3-3,3c-0.6,0-1,0.4-1,1v7h-5.1
	c-0.5-2.8-2.9-5-5.9-5s-5.4,2.2-5.9,5H3V22.9z"/>
</svg>
