<?xml version="1.0" encoding="utf-8"?>
<!-- Generator: Adobe Illustrator 18.1.1, SVG Export Plug-In . SVG Version: 6.00 Build 0)  -->
<!DOCTYPE svg PUBLIC "-//W3C//DTD SVG 1.1//EN" "http://www.w3.org/Graphics/SVG/1.1/DTD/svg11.dtd">
<svg version="1.1" id="Layer_1" xmlns="http://www.w3.org/2000/svg" xmlns:xlink="http://www.w3.org/1999/xlink" x="0px" y="0px"
	 width="32px" height="32px" viewBox="0 0 32 32" enable-background="new 0 0 32 32" xml:space="preserve">
<path d="M6.1,15.5c-1.1,1.8-1.7,3.1-1.7,3.2c-0.1,0.4-0.1,0.8,0.2,1.1l7.6,7.6c0.2,0.2,0.4,0.3,0.7,0.3c0.1,0,0.3,0,0.4-0.1
	c0,0,1.3-0.6,3.1-1.7l4.1,4.1c0.2,0.2,0.4,0.3,0.7,0.3c0.2,0,0.4,0,0.5-0.1c0.9-0.5,1.7-1.1,2.3-1.8c3.3-3.3,4.3-8.2,2.6-12.5
	c0.5-0.8,1-1.7,1.5-2.6c0-0.1,0.1-0.1,0.1-0.2c1.5-3.1,2.5-6.6,2.7-10.8c0-0.3-0.1-0.6-0.3-0.8C30.5,1.1,30.2,1,29.9,1
	c-4.2,0.2-7.8,1.2-10.9,2.7c-0.1,0-0.2,0.1-0.2,0.1c-0.9,0.5-1.8,0.9-2.7,1.5C11.9,3.6,7,4.6,3.7,7.9C3,8.6,2.4,9.4,1.9,10.3
	c-0.2,0.4-0.2,0.9,0.2,1.2L6.1,15.5z M13.2,25.4l-6.6-6.6c1-2.1,4.8-9,12.6-13l6.9,6.9C22.1,20.6,15.2,24.4,13.2,25.4z M22.7,26.9
	c-0.4,0.4-0.8,0.7-1.3,1.1l-3.2-3.2c2.2-1.6,4.8-3.8,7.1-6.9C26,21.1,25.1,24.5,22.7,26.9z M27,10.8L21.1,5C23.4,4,26,3.3,28.9,3.1
	C28.6,6,27.9,8.6,27,10.8z M5.1,9.3C7.5,7,10.9,6,14.1,6.7c-3,2.3-5.3,4.9-6.8,7.1L4,10.6C4.4,10.2,4.7,9.7,5.1,9.3z"/>
<path d="M20.3,11.7c-1.4-1.4-3.8-1.4-5.2,0c-1.4,1.4-1.4,3.8,0,5.2c0.7,0.7,1.6,1.1,2.6,1.1c1,0,1.9-0.4,2.6-1.1
	C21.7,15.5,21.7,13.2,20.3,11.7z M18.9,15.5c-0.6,0.6-1.7,0.6-2.4,0c-0.3-0.3-0.5-0.7-0.5-1.2c0-0.4,0.2-0.9,0.5-1.2
	s0.7-0.5,1.2-0.5c0.4,0,0.9,0.2,1.2,0.5C19.5,13.8,19.5,14.9,18.9,15.5z"/>
<path d="M2,31c0,0,0.4,0,1,0c2.1,0,3.6-0.4,4.3-1.1c1.4-1.4,1.4-3.8,0-5.2c-1.4-1.4-3.8-1.4-5.2,0C0.8,26,1,29.1,1,30
	C1.1,30.5,1.5,30.9,2,31z M3.5,26.1c0.3-0.3,0.7-0.5,1.2-0.5s0.9,0.2,1.2,0.5c0.7,0.7,0.7,1.7,0,2.4C5.7,28.7,4.9,29,3,29
	C3,27.7,3.2,26.4,3.5,26.1z"/>
</svg>
