<?xml version="1.0" encoding="utf-8"?>
<!-- Generator: Adobe Illustrator 18.1.1, SVG Export Plug-In . SVG Version: 6.00 Build 0)  -->
<!DOCTYPE svg PUBLIC "-//W3C//DTD SVG 1.1//EN" "http://www.w3.org/Graphics/SVG/1.1/DTD/svg11.dtd">
<svg version="1.1" id="Layer_1" xmlns="http://www.w3.org/2000/svg" xmlns:xlink="http://www.w3.org/1999/xlink" x="0px" y="0px"
	 width="32px" height="32px" viewBox="0 0 32 32" enable-background="new 0 0 32 32" xml:space="preserve">
<path d="M18,0c-1.8,0-3.5,0.3-5,1c0,0,0,0,0,0C7.7,3,4,8.1,4,14c0,2.6,0.7,4.9,1.9,7H3c-1.7,0-3,1.3-3,3s1.3,3,3,3h2.5
	C6.3,27,7,27.7,7,28.5S6.3,30,5.5,30H1c-0.6,0-1,0.4-1,1s0.4,1,1,1h4.5C7.4,32,9,30.4,9,28.5S7.4,25,5.5,25H3c-0.6,0-1-0.4-1-1
	s0.4-1,1-1h4.3c0.6,0.8,1.4,1.5,2.2,2.1c0,0,0,0,0,0c1.6,1.2,3.4,2.1,5.3,2.5c0,0,0,0,0,0c0,0,0,0,0,0c1,0.2,2.1,0.4,3.1,0.4
	c6.3,0,11.7-4.2,13.4-10c0,0,0,0,0,0c0,0,0,0,0,0c0.4-1.3,0.6-2.6,0.6-4C32,6.3,25.7,0,18,0z M29.6,11.1c-0.7-0.1-1.4-0.1-2-0.1
	c-1.5,0-3,0.2-4.4,0.5c-2.2-2.3-3.5-5.2-3.5-8.4c0-0.3,0-0.6,0-0.9C24.6,2.8,28.5,6.4,29.6,11.1z M11.4,24c2.6-6.6,9-11,16.2-11
	c0.8,0,1.6,0.1,2.4,0.2c0,0.3,0,0.6,0,0.9c0,0.9-0.1,1.8-0.3,2.6c-6.6-1-12.9,2.9-15.2,8.9C13.4,25.1,12.3,24.6,11.4,24z M6,14.2
	c2.9-0.4,5.6-1.6,7.8-3.6c0.6,1.4,1.4,2.8,2.3,4.1c-2.7,2-5,4.7-6.4,8C7.5,20.5,6.1,17.5,6,14.2z M17.7,2c0,0.4,0,0.7,0,1
	c0,3.3,1.2,6.5,3.3,9.1c-1.1,0.4-2.2,0.9-3.2,1.5c-2.3-3-3.6-6.7-3.6-10.6c0-0.1,0-0.3,0-0.4C15.3,2.2,16.5,2,17.7,2z M12.2,3.5
	c0,1.7,0.3,3.4,0.8,5.1c-1.8,2-4.2,3.2-6.9,3.6C6.7,8.4,9,5.2,12.2,3.5z M18,26c-0.5,0-1,0-1.5-0.1c1.8-4.4,6.2-7.5,11.1-7.5
	c0.5,0,1,0,1.5,0.1C27.3,22.9,23,26,18,26z"/>
</svg>
