<?xml version="1.0" encoding="utf-8"?>
<!-- Generator: Adobe Illustrator 18.1.1, SVG Export Plug-In . SVG Version: 6.00 Build 0)  -->
<!DOCTYPE svg PUBLIC "-//W3C//DTD SVG 1.1//EN" "http://www.w3.org/Graphics/SVG/1.1/DTD/svg11.dtd">
<svg version="1.1" id="Layer_1" xmlns="http://www.w3.org/2000/svg" xmlns:xlink="http://www.w3.org/1999/xlink" x="0px" y="0px"
	 width="32px" height="32px" viewBox="0 0 32 32" enable-background="new 0 0 32 32" xml:space="preserve">
<path d="M2.2,17H15v11c0,2.2,1.8,4,4,4s4-1.8,4-4c0-0.6-0.4-1-1-1s-1,0.4-1,1c0,1.1-0.9,2-2,2s-2-0.9-2-2V17h12.8
	c0.3,0,0.6-0.1,0.8-0.3c0.2-0.2,0.3-0.5,0.2-0.8C29.8,8.9,24,3.5,17,3V1c0-0.6-0.4-1-1-1s-1,0.4-1,1v2C8,3.5,2.2,8.9,1.2,15.9
	c0,0.3,0,0.6,0.2,0.8C1.6,16.9,1.9,17,2.2,17z M10.1,15c0.3-3.7,2-7,4.9-9.2V15H10.1z M17,5.8c2.9,2.2,4.7,5.6,4.9,9.2H17V5.8z
	 M28.6,15H24c-0.2-3.6-1.7-6.9-4.2-9.4C24.1,6.9,27.6,10.5,28.6,15z M12.2,5.6C9.7,8.1,8.3,11.4,8,15H3.4C4.4,10.5,7.9,6.9,12.2,5.6
	z"/>
</svg>
