<?xml version="1.0" encoding="utf-8"?>
<!-- Generator: Adobe Illustrator 18.1.1, SVG Export Plug-In . SVG Version: 6.00 Build 0)  -->
<!DOCTYPE svg PUBLIC "-//W3C//DTD SVG 1.1//EN" "http://www.w3.org/Graphics/SVG/1.1/DTD/svg11.dtd">
<svg version="1.1" id="Layer_1" xmlns="http://www.w3.org/2000/svg" xmlns:xlink="http://www.w3.org/1999/xlink" x="0px" y="0px"
	 width="32px" height="32px" viewBox="0 0 32 32" enable-background="new 0 0 32 32" xml:space="preserve">
<path d="M30.4,1.1C30.3,1,30.1,1,30,1H8C7.7,1,7.5,1.1,7.3,1.3l-6,6C1.2,7.4,1.1,7.5,1.1,7.6C1,7.7,1,7.9,1,8v22c0,0.6,0.4,1,1,1h22
	c0.1,0,0.3,0,0.4-0.1c0.1-0.1,0.2-0.1,0.3-0.2l6-6c0.2-0.2,0.3-0.4,0.3-0.7V2c0-0.1,0-0.3-0.1-0.4C30.8,1.4,30.6,1.2,30.4,1.1z
	 M8.4,3h19.2l-4,4H4.4L8.4,3z M3,9h20v20H3V9z M25,27.6V8.4l4-4v19.2L25,27.6z"/>
<circle cx="13" cy="19" r="2"/>
<circle cx="8" cy="14" r="2"/>
<circle cx="18" cy="14" r="2"/>
<circle cx="8" cy="24" r="2"/>
<circle cx="18" cy="24" r="2"/>
</svg>
