<?xml version="1.0" encoding="utf-8"?>
<!-- Generator: Adobe Illustrator 18.1.1, SVG Export Plug-In . SVG Version: 6.00 Build 0)  -->
<!DOCTYPE svg PUBLIC "-//W3C//DTD SVG 1.1//EN" "http://www.w3.org/Graphics/SVG/1.1/DTD/svg11.dtd">
<svg version="1.1" id="Layer_1" xmlns="http://www.w3.org/2000/svg" xmlns:xlink="http://www.w3.org/1999/xlink" x="0px" y="0px"
	 width="32px" height="32px" viewBox="0 0 32 32" enable-background="new 0 0 32 32" xml:space="preserve">
<path d="M5.1,17.3l5.8,5.8c0.2,0.2,0.4,0.3,0.7,0.3c0.2,0,0.4,0,0.5-0.2l1.7-1.1l8.7,8.7c0.7,0.7,1.7,1.1,2.7,1.1s1.9-0.4,2.7-1.1
	s1.1-1.7,1.1-2.7c0-1-0.4-1.9-1.1-2.7l-7.5-7.5l7.3-4.6c0.3-0.2,0.4-0.4,0.5-0.7c0-0.2,0.4-4-4.2-8.6C20.2,0.4,17,0,15.8,0
	c-0.3,0-0.4,0-0.4,0c-0.3,0-0.6,0.2-0.7,0.5l-4.6,7.3L9.4,7.1c-1.5-1.5-3.8-1.5-5.3,0C3.4,7.8,3,8.8,3,9.8s0.4,1.9,1.1,2.7L6,14.3
	L4.9,16C4.7,16.4,4.7,17,5.1,17.3z M11.8,21.1L7,16.4l6.8-10.8c1,0,3.4,0.4,5.9,2.9c2.5,2.5,2.9,4.9,2.9,5.9L18.5,17
	c-0.1,0-0.3,0.1-0.4,0.2c0,0,0,0,0,0L13.7,20c-0.1,0-0.3,0.1-0.4,0.2c0,0,0,0,0,0L11.8,21.1z M26.5,27c0.3,0.3,0.5,0.8,0.5,1.2
	c0,0.5-0.2,0.9-0.5,1.2c-0.7,0.7-1.8,0.7-2.5,0l-8.4-8.4l3.1-1.9L26.5,27z M16.1,2c1,0.1,3.5,0.6,6.5,3.6c3,3.1,3.5,5.6,3.6,6.5
	l-1.7,1.1c-0.3-1.5-1.1-3.8-3.4-6.1C18.8,4.8,16.5,4,15,3.7L16.1,2z M5.5,11C5.2,10.7,5,10.2,5,9.8s0.2-0.9,0.5-1.2
	c0.7-0.7,1.8-0.7,2.5,0l1,1l-1.9,3.1L5.5,11z"/>
</svg>
