<?xml version="1.0" encoding="utf-8"?>
<!-- Generator: Adobe Illustrator 18.1.1, SVG Export Plug-In . SVG Version: 6.00 Build 0)  -->
<!DOCTYPE svg PUBLIC "-//W3C//DTD SVG 1.1//EN" "http://www.w3.org/Graphics/SVG/1.1/DTD/svg11.dtd">
<svg version="1.1" id="Layer_1" xmlns="http://www.w3.org/2000/svg" xmlns:xlink="http://www.w3.org/1999/xlink" x="0px" y="0px"
	 width="32px" height="32px" viewBox="0 0 32 32" enable-background="new 0 0 32 32" xml:space="preserve">
<path d="M26.4,6l3.3-3.3c0.4-0.4,0.4-1,0-1.4s-1-0.4-1.4,0L13.9,15.7C12.5,14.6,10.8,14,9,14c-2.1,0-4.1,0.8-5.7,2.3
	C1.8,17.9,1,19.9,1,22s0.8,4.1,2.3,5.7C4.9,29.2,6.9,30,9,30s4.1-0.8,5.7-2.3c1.5-1.5,2.3-3.5,2.3-5.7c0-1.8-0.6-3.5-1.7-4.9
	l5.7-5.7l4.3,4.3c0.2,0.2,0.4,0.3,0.7,0.3c0,0,0,0,0,0c0.3,0,0.5-0.1,0.7-0.3l4-4.1c0.2-0.2,0.3-0.4,0.3-0.7s-0.1-0.5-0.3-0.7
	L26.4,6z M13.2,26.2C12.1,27.4,10.6,28,9,28s-3.1-0.6-4.2-1.8S3,23.6,3,22s0.6-3.1,1.8-4.2S7.4,16,9,16s3.1,0.6,4.2,1.8
	S15,20.4,15,22S14.4,25.1,13.2,26.2z M26,13.6L22.4,10L25,7.4l3.6,3.5L26,13.6z"/>
</svg>
