<?xml version="1.0" encoding="utf-8"?>
<!-- Generator: Adobe Illustrator 18.1.1, SVG Export Plug-In . SVG Version: 6.00 Build 0)  -->
<!DOCTYPE svg PUBLIC "-//W3C//DTD SVG 1.1//EN" "http://www.w3.org/Graphics/SVG/1.1/DTD/svg11.dtd">
<svg version="1.1" id="Layer_1" xmlns="http://www.w3.org/2000/svg" xmlns:xlink="http://www.w3.org/1999/xlink" x="0px" y="0px"
	 width="32px" height="32px" viewBox="0 0 32 32" enable-background="new 0 0 32 32" xml:space="preserve">
<path d="M16,0C7.2,0,0,7.2,0,16s7.2,16,16,16s16-7.2,16-16S24.8,0,16,0z M16,30C8.3,30,2,23.7,2,16S8.3,2,16,2s14,6.3,14,14
	S23.7,30,16,30z"/>
<path d="M16,4C10.5,4,6,8.5,6,14s4.5,10,10,10s10-4.5,10-10S21.5,4,16,4z M16,22c-4.4,0-8-3.6-8-8s3.6-8,8-8s8,3.6,8,8
	S20.4,22,16,22z"/>
<path d="M18.4,12.8c0.4-0.5,0.6-1.1,0.6-1.8c0-1.7-1.3-3-3-3s-3,1.3-3,3c0,0.7,0.2,1.3,0.6,1.8c-1,0.7-1.6,1.9-1.6,3.2
	c0,2.2,1.8,4,4,4s4-1.8,4-4C20,14.7,19.4,13.5,18.4,12.8z M15,11c0-0.6,0.4-1,1-1s1,0.4,1,1s-0.4,1-1,1S15,11.6,15,11z M16,18
	c-1.1,0-2-0.9-2-2s0.9-2,2-2s2,0.9,2,2S17.1,18,16,18z"/>
</svg>
