<?xml version="1.0" encoding="utf-8"?>
<!-- Generator: Adobe Illustrator 18.1.1, SVG Export Plug-In . SVG Version: 6.00 Build 0)  -->
<!DOCTYPE svg PUBLIC "-//W3C//DTD SVG 1.1//EN" "http://www.w3.org/Graphics/SVG/1.1/DTD/svg11.dtd">
<svg version="1.1" id="Layer_1" xmlns="http://www.w3.org/2000/svg" xmlns:xlink="http://www.w3.org/1999/xlink" x="0px" y="0px"
	 width="32px" height="32px" viewBox="0 0 32 32" enable-background="new 0 0 32 32" xml:space="preserve">
<path d="M31,30h-2.3l-3.4-10.2c0-0.1,0-0.2-0.1-0.3L18.9,0.7C18.8,0.3,18.4,0,18,0h-4c-0.4,0-0.8,0.3-0.9,0.7L6.8,19.5
	c0,0.1-0.1,0.2-0.1,0.3L3.3,30H1c-0.6,0-1,0.4-1,1s0.4,1,1,1h27c0,0,0,0,0,0c0,0,0,0,0,0h3c0.6,0,1-0.4,1-1S31.6,30,31,30z M10.7,14
	h10.6l1.7,5H9.1L10.7,14z M14.7,2h2.6l3.3,10h-9.2L14.7,2z M8.4,21h15.2l3,9H5.4L8.4,21z"/>
</svg>
