<?xml version="1.0" encoding="utf-8"?>
<!-- Generator: Adobe Illustrator 18.1.1, SVG Export Plug-In . SVG Version: 6.00 Build 0)  -->
<!DOCTYPE svg PUBLIC "-//W3C//DTD SVG 1.1//EN" "http://www.w3.org/Graphics/SVG/1.1/DTD/svg11.dtd">
<svg version="1.1" id="Layer_1" xmlns="http://www.w3.org/2000/svg" xmlns:xlink="http://www.w3.org/1999/xlink" x="0px" y="0px"
	 width="32px" height="32px" viewBox="0 0 32 32" enable-background="new 0 0 32 32" xml:space="preserve">
<path d="M25.5,2c-2.8,0-5.3,1.8-6.2,4.5C18.3,6.2,17.2,6,16,6c-1.2,0-2.3,0.2-3.3,0.5C11.8,3.8,9.3,2,6.5,2C2.9,2,0,4.9,0,8.5
	c0,2.6,1.5,4.9,3.8,5.9C3.3,15.9,3,17.4,3,19c0,7.2,5.8,13,13,13s13-5.8,13-13c0-1.6-0.3-3.1-0.8-4.6c2.3-1,3.8-3.3,3.8-5.9
	C32,4.9,29.1,2,25.5,2z M2,8.5C2,6,4,4,6.5,4c2,0,3.7,1.3,4.3,3.1c-2.6,1.1-4.7,3.1-6.1,5.5C3.1,11.9,2,10.3,2,8.5z M16,30
	C9.9,30,5,25.1,5,19S9.9,8,16,8s11,4.9,11,11S22.1,30,16,30z M27.3,12.6c-1.4-2.4-3.5-4.4-6.1-5.5C21.8,5.3,23.5,4,25.5,4
	C28,4,30,6,30,8.5C30,10.3,28.9,11.9,27.3,12.6z"/>
<path d="M19,25h-2v-1.7l1.8-2.7c0.2-0.3,0.2-0.7,0-1C18.7,19.2,18.4,19,18,19h-4c-0.4,0-0.7,0.2-0.9,0.5c-0.2,0.3-0.2,0.7,0,1
	l1.8,2.7V25h-2c-0.6,0-1,0.4-1,1s0.4,1,1,1h6c0.6,0,1-0.4,1-1S19.6,25,19,25z"/>
<circle cx="12" cy="15" r="2"/>
<circle cx="20" cy="15" r="2"/>
</svg>
