<?xml version="1.0" encoding="utf-8"?>
<!-- Generator: Adobe Illustrator 18.1.1, SVG Export Plug-In . SVG Version: 6.00 Build 0)  -->
<!DOCTYPE svg PUBLIC "-//W3C//DTD SVG 1.1//EN" "http://www.w3.org/Graphics/SVG/1.1/DTD/svg11.dtd">
<svg version="1.1" id="Layer_1" xmlns="http://www.w3.org/2000/svg" xmlns:xlink="http://www.w3.org/1999/xlink" x="0px" y="0px"
	 width="32px" height="32px" viewBox="0 0 32 32" enable-background="new 0 0 32 32" xml:space="preserve">
<path d="M29,17c0-7.7-6.3-14-14-14c-1.2,0-2.4,0.2-3.6,0.5c-4.8-3-8.3-3.7-10-2C0,2.9,0.3,5.8,2.4,9.6c0.1,0.2,0.2,0.4,0.3,0.6
	C1.6,12.2,1,14.5,1,17c0,7.7,6.3,14,14,14c2.5,0,4.8-0.6,6.8-1.8c0.2,0.1,0.4,0.2,0.6,0.3c2.3,1.2,4.2,1.8,5.7,1.8
	c1,0,1.9-0.3,2.5-0.9c1.7-1.7,1-5.2-2-10C28.8,19.4,29,18.2,29,17z M27,17c0,1.1-0.2,2.2-0.5,3.2c-0.1,0.1-0.1,0.2-0.1,0.4
	c-0.8,2.6-2.5,4.8-4.7,6.3c-2.9-1.8-6.1-4.4-9.2-7.5c-3.1-3.1-5.7-6.3-7.5-9.2C7.2,7.1,10.9,5,15,5C21.6,5,27,10.4,27,17z M2.9,2.9
	C3.5,2.2,5.7,2.5,9,4.4c-2,0.9-3.7,2.3-5,4C2.4,5.2,2.3,3.4,2.9,2.9z M15,29C8.4,29,3,23.6,3,17c0-1.7,0.4-3.3,1-4.8
	c1.8,2.8,4.3,5.8,7.2,8.6s5.8,5.3,8.6,7.2C18.3,28.6,16.7,29,15,29z M29.1,29.1c-0.5,0.5-2.3,0.5-5.5-1.1c1.7-1.3,3.1-3,4-5
	C29.5,26.3,29.8,28.5,29.1,29.1z"/>
<circle cx="7" cy="21" r="2"/>
<circle cx="20" cy="19" r="2"/>
<path d="M15,15c1.7,0,3-1.3,3-3s-1.3-3-3-3s-3,1.3-3,3S13.3,15,15,15z M15,11c0.6,0,1,0.4,1,1s-0.4,1-1,1s-1-0.4-1-1S14.4,11,15,11z
	"/>
</svg>
