<?xml version="1.0" encoding="utf-8"?>
<!-- Generator: Adobe Illustrator 18.1.1, SVG Export Plug-In . SVG Version: 6.00 Build 0)  -->
<!DOCTYPE svg PUBLIC "-//W3C//DTD SVG 1.1//EN" "http://www.w3.org/Graphics/SVG/1.1/DTD/svg11.dtd">
<svg version="1.1" id="Layer_1" xmlns="http://www.w3.org/2000/svg" xmlns:xlink="http://www.w3.org/1999/xlink" x="0px" y="0px"
	 width="32px" height="32px" viewBox="0 0 32 32" enable-background="new 0 0 32 32" xml:space="preserve">
<path d="M31,11h-0.9c-1.5-4.3-4.8-7.6-9.1-9.1V1c0-0.6-0.4-1-1-1h-8c-0.6,0-1,0.4-1,1v0.9C6.7,3.4,3.4,6.7,1.9,11H1
	c-0.6,0-1,0.4-1,1v8c0,0.6,0.4,1,1,1h0.9c1.5,4.3,4.8,7.6,9.1,9.1V31c0,0.6,0.4,1,1,1h8c0.6,0,1-0.4,1-1v-0.9
	c4.3-1.5,7.6-4.8,9.1-9.1H31c0.6,0,1-0.4,1-1v-8C32,11.4,31.6,11,31,11z M2,19v-6h6.6C8.2,13.9,8,14.9,8,16s0.2,2.1,0.6,3H2z M10,16
	c0-3.3,2.7-6,6-6s6,2.7,6,6s-2.7,6-6,6S10,19.3,10,16z M23.4,13H30v6h-6.6c0.4-0.9,0.6-1.9,0.6-3S23.8,13.9,23.4,13z M28,11h-5.8
	c-0.4-0.5-0.8-0.9-1.2-1.2V4C24.2,5.3,26.7,7.8,28,11z M19,2v6.6C18.1,8.2,17.1,8,16,8s-2.1,0.2-3,0.6V2H19z M11,4v5.8
	c-0.5,0.4-0.9,0.8-1.2,1.2H4C5.3,7.8,7.8,5.3,11,4z M4,21h5.8c0.4,0.5,0.8,0.9,1.2,1.2V28C7.8,26.7,5.3,24.2,4,21z M13,30v-6.6
	c0.9,0.4,1.9,0.6,3,0.6s2.1-0.2,3-0.6V30H13z M21,28v-5.8c0.5-0.4,0.9-0.8,1.2-1.2H28C26.7,24.2,24.2,26.7,21,28z"/>
</svg>
