<?xml version="1.0" encoding="utf-8"?>
<!-- Generator: Adobe Illustrator 19.1.0, SVG Export Plug-In . SVG Version: 6.00 Build 0)  -->
<!DOCTYPE svg PUBLIC "-//W3C//DTD SVG 1.1//EN" "http://www.w3.org/Graphics/SVG/1.1/DTD/svg11.dtd">
<svg version="1.1" id="Layer_1" xmlns="http://www.w3.org/2000/svg" xmlns:xlink="http://www.w3.org/1999/xlink" x="0px" y="0px"
	 width="48px" height="48px" viewBox="0 0 48 48" enable-background="new 0 0 48 48" xml:space="preserve">
<path d="M37.2,29.4c-0.4,0.5-4.2,5.2-4.2,7.9c0,3.1,2.6,4.8,5,4.8s5-1.7,5-4.8c0-2.7-3.8-7.4-4.2-7.9C38.4,28.9,37.6,28.9,37.2,29.4
	z M38,40c-1.5,0-3-1-3-2.8c0-1.2,1.6-3.8,3-5.6c1.4,1.8,3,4.4,3,5.6C41,39,39.5,40,38,40z"/>
<path d="M40,9H3V8c0-2.8,2.2-5,5-5h16c0.6,0,1-0.4,1-1s-0.4-1-1-1H8C4.1,1,1,4.1,1,8v2v36c0,0.6,0.4,1,1,1h12c0.6,0,1-0.4,1-1V23h25
	c3.9,0,7-3.1,7-7S43.9,9,40,9z M40,21H14c-0.6,0-1,0.4-1,1v23H3V11h37c2.8,0,5,2.2,5,5S42.8,21,40,21z"/>
</svg>
