<?xml version="1.0" encoding="utf-8"?>
<!-- Generator: Adobe Illustrator 19.1.0, SVG Export Plug-In . SVG Version: 6.00 Build 0)  -->
<!DOCTYPE svg PUBLIC "-//W3C//DTD SVG 1.1//EN" "http://www.w3.org/Graphics/SVG/1.1/DTD/svg11.dtd">
<svg version="1.1" id="Layer_1" xmlns="http://www.w3.org/2000/svg" xmlns:xlink="http://www.w3.org/1999/xlink" x="0px" y="0px"
	 width="48px" height="48px" viewBox="0 0 48 48" enable-background="new 0 0 48 48" xml:space="preserve">
<path d="M38,16c0.6,0,1-0.4,1-1V9c0-0.6-0.4-1-1-1s-1,0.4-1,1v6C37,15.6,37.4,16,38,16z"/>
<path d="M32,16c0.6,0,1-0.4,1-1V9c0-0.6-0.4-1-1-1s-1,0.4-1,1v6C31,15.6,31.4,16,32,16z"/>
<path d="M26,16c0.6,0,1-0.4,1-1V9c0-0.6-0.4-1-1-1s-1,0.4-1,1v6C25,15.6,25.4,16,26,16z"/>
<path d="M14,16h6c0.6,0,1-0.4,1-1s-0.4-1-1-1h-6c-0.6,0-1,0.4-1,1S13.4,16,14,16z"/>
<path d="M40,34h-6c-0.6,0-1,0.4-1,1s0.4,1,1,1h6c0.6,0,1-0.4,1-1S40.6,34,40,34z"/>
<path d="M22,28c-0.6,0-1,0.4-1,1v6c0,0.6,0.4,1,1,1s1-0.4,1-1v-6C23,28.4,22.6,28,22,28z"/>
<path d="M16,28c-0.6,0-1,0.4-1,1v6c0,0.6,0.4,1,1,1s1-0.4,1-1v-6C17,28.4,16.6,28,16,28z"/>
<path d="M28,28c-0.6,0-1,0.4-1,1v6c0,0.6,0.4,1,1,1s1-0.4,1-1v-6C29,28.4,28.6,28,28,28z"/>
<path d="M10,28c-0.6,0-1,0.4-1,1v6c0,0.6,0.4,1,1,1s1-0.4,1-1v-6C11,28.4,10.6,28,10,28z"/>
<path d="M46,1H2C1.4,1,1,1.4,1,2v40c0,0.6,0.4,1,1,1h3v3c0,0.6,0.4,1,1,1s1-0.4,1-1v-3h34v3c0,0.6,0.4,1,1,1s1-0.4,1-1v-3h3
	c0.6,0,1-0.4,1-1V2C47,1.4,46.6,1,46,1z M45,3v18H3V3H45z M3,41V23h42v18H3z"/>
</svg>
