<?xml version="1.0" encoding="utf-8"?>
<!-- Generator: Adobe Illustrator 19.1.0, SVG Export Plug-In . SVG Version: 6.00 Build 0)  -->
<!DOCTYPE svg PUBLIC "-//W3C//DTD SVG 1.1//EN" "http://www.w3.org/Graphics/SVG/1.1/DTD/svg11.dtd">
<svg version="1.1" id="Layer_1" xmlns="http://www.w3.org/2000/svg" xmlns:xlink="http://www.w3.org/1999/xlink" x="0px" y="0px"
	 width="48px" height="48px" viewBox="0 0 48 48" enable-background="new 0 0 48 48" xml:space="preserve">
<path d="M43,18.2V11c0-2.8-2.2-5-5-5H10c-2.8,0-5,2.2-5,5v7.2c-2.3,0.7-4,2.8-4,5.3V37c0,0.6,0.4,1,1,1h3v3c0,0.6,0.4,1,1,1
	s1-0.4,1-1v-3h34v3c0,0.6,0.4,1,1,1s1-0.4,1-1v-3h3c0.6,0,1-0.4,1-1V23.5C47,21,45.3,18.9,43,18.2z M41,11v7c-2.8,0.3-5,2.6-5,5.5
	V27H25V8h13C39.7,8,41,9.3,41,11z M10,8h13v19H12v-3.5c0-2.9-2.2-5.2-5-5.5v-7C7,9.3,8.3,8,10,8z M45,36H3V23.5
	C3,21.6,4.6,20,6.5,20s3.5,1.6,3.5,3.5V28c0,0.6,0.4,1,1,1h26c0.6,0,1-0.4,1-1v-4.5c0-1.9,1.6-3.5,3.5-3.5s3.5,1.6,3.5,3.5V36z"/>
</svg>
