<?xml version="1.0" encoding="utf-8"?>
<!-- Generator: Adobe Illustrator 19.1.0, SVG Export Plug-In . SVG Version: 6.00 Build 0)  -->
<!DOCTYPE svg PUBLIC "-//W3C//DTD SVG 1.1//EN" "http://www.w3.org/Graphics/SVG/1.1/DTD/svg11.dtd">
<svg version="1.1" id="Layer_1" xmlns="http://www.w3.org/2000/svg" xmlns:xlink="http://www.w3.org/1999/xlink" x="0px" y="0px"
	 width="48px" height="48px" viewBox="0 0 48 48" enable-background="new 0 0 48 48" xml:space="preserve">
<path d="M46,3H2C1.4,3,1,3.4,1,4v40c0,0.6,0.4,1,1,1s1-0.4,1-1v-3h42v3c0,0.6,0.4,1,1,1s1-0.4,1-1V4C47,3.4,46.6,3,46,3z M3,17h20
	v10H3V17z M25,17h20v10H25V17z M45,15H25V5h20V15z M23,5v10H3V5H23z M3,29h20v10H3V29z M25,39V29h20v10H25z"/>
<path d="M11,11h4c0.6,0,1-0.4,1-1s-0.4-1-1-1h-4c-0.6,0-1,0.4-1,1S10.4,11,11,11z"/>
<path d="M33,11h4c0.6,0,1-0.4,1-1s-0.4-1-1-1h-4c-0.6,0-1,0.4-1,1S32.4,11,33,11z"/>
<path d="M15,21h-4c-0.6,0-1,0.4-1,1s0.4,1,1,1h4c0.6,0,1-0.4,1-1S15.6,21,15,21z"/>
<path d="M37,21h-4c-0.6,0-1,0.4-1,1s0.4,1,1,1h4c0.6,0,1-0.4,1-1S37.6,21,37,21z"/>
<path d="M15,33h-4c-0.6,0-1,0.4-1,1s0.4,1,1,1h4c0.6,0,1-0.4,1-1S15.6,33,15,33z"/>
<path d="M37,33h-4c-0.6,0-1,0.4-1,1s0.4,1,1,1h4c0.6,0,1-0.4,1-1S37.6,33,37,33z"/>
</svg>
