<?xml version="1.0" encoding="utf-8"?>
<!-- Generator: Adobe Illustrator 19.1.0, SVG Export Plug-In . SVG Version: 6.00 Build 0)  -->
<!DOCTYPE svg PUBLIC "-//W3C//DTD SVG 1.1//EN" "http://www.w3.org/Graphics/SVG/1.1/DTD/svg11.dtd">
<svg version="1.1" id="Layer_1" xmlns="http://www.w3.org/2000/svg" xmlns:xlink="http://www.w3.org/1999/xlink" x="0px" y="0px"
	 width="48px" height="48px" viewBox="0 0 48 48" enable-background="new 0 0 48 48" xml:space="preserve">
<path d="M46.5,35.1l-15.2-8.4c-0.5-0.3-1.1-0.1-1.4,0.4c-0.3,0.5-0.1,1.1,0.4,1.4L45,36.6V39H3v-2.4l19.5-11.7
	c0.3-0.2,0.5-0.5,0.5-0.9l0-4.3c0-0.4-0.3-0.8-0.7-0.9C20.3,18,19,16.1,19,14c0-2.8,2.2-5,5-5s5,2.2,5,5c0,0.6,0.4,1,1,1s1-0.4,1-1
	c0-3.9-3.1-7-7-7s-7,3.1-7,7c0,2.7,1.6,5.2,4,6.3l0,3.1L1.5,35.1C1.2,35.3,1,35.6,1,36v4c0,0.6,0.4,1,1,1h44c0.6,0,1-0.4,1-1v-4
	C47,35.6,46.8,35.3,46.5,35.1z"/>
</svg>
