<?xml version="1.0" encoding="utf-8"?>
<!-- Generator: Adobe Illustrator 19.1.0, SVG Export Plug-In . SVG Version: 6.00 Build 0)  -->
<!DOCTYPE svg PUBLIC "-//W3C//DTD SVG 1.1//EN" "http://www.w3.org/Graphics/SVG/1.1/DTD/svg11.dtd">
<svg version="1.1" id="Layer_1" xmlns="http://www.w3.org/2000/svg" xmlns:xlink="http://www.w3.org/1999/xlink" x="0px" y="0px"
	 width="48px" height="48px" viewBox="0 0 48 48" enable-background="new 0 0 48 48" xml:space="preserve">
<path d="M39,23v-1c0-7.9-6.2-14.4-14-14.9V2c0-0.6-0.4-1-1-1s-1,0.4-1,1v5.1C15.2,7.6,9,14.1,9,22v1c-2.2,0-4,1.8-4,4s1.8,4,4,4h30
	c2.2,0,4-1.8,4-4S41.2,23,39,23z M11,22c0-7.2,5.8-13,13-13s13,5.8,13,13v1H11V22z M39,29H9c-1.1,0-2-0.9-2-2s0.9-2,2-2h30
	c1.1,0,2,0.9,2,2S40.1,29,39,29z"/>
<path d="M24,42c-0.6,0-1,0.4-1,1v3c0,0.6,0.4,1,1,1s1-0.4,1-1v-3C25,42.4,24.6,42,24,42z"/>
<path d="M16,36c-0.6,0-1,0.4-1,1v3c0,0.6,0.4,1,1,1s1-0.4,1-1v-3C17,36.4,16.6,36,16,36z"/>
<path d="M32,36c-0.6,0-1,0.4-1,1v3c0,0.6,0.4,1,1,1s1-0.4,1-1v-3C33,36.4,32.6,36,32,36z"/>
</svg>
