<?xml version="1.0" encoding="utf-8"?>
<!-- Generator: Adobe Illustrator 19.1.0, SVG Export Plug-In . SVG Version: 6.00 Build 0)  -->
<!DOCTYPE svg PUBLIC "-//W3C//DTD SVG 1.1//EN" "http://www.w3.org/Graphics/SVG/1.1/DTD/svg11.dtd">
<svg version="1.1" id="Layer_1" xmlns="http://www.w3.org/2000/svg" xmlns:xlink="http://www.w3.org/1999/xlink" x="0px" y="0px"
	 width="48px" height="48px" viewBox="0 0 48 48" enable-background="new 0 0 48 48" xml:space="preserve">
<path d="M38,1H10C5,1,1,8.5,1,18v28c0,0.6,0.4,1,1,1h30c0.6,0,1-0.4,1-1V35h5c5,0,9-7.5,9-17S43,1,38,1z M10,3c3.8,0,7,6.9,7,15
	s-3.2,15-7,15s-7-6.9-7-15S6.2,3,10,3z M31,45H3V28.8c1.6,3.8,4.1,6.2,7,6.2h21V45z M38,33H14.3c2.8-2.8,4.7-8.4,4.7-15
	S17.1,5.8,14.3,3H38c3.8,0,7,6.9,7,15S41.8,33,38,33z"/>
<path d="M10,21c0.6,0,1-0.4,1-1v-4c0-0.6-0.4-1-1-1s-1,0.4-1,1v4C9,20.6,9.4,21,10,21z"/>
</svg>
