<?xml version="1.0" encoding="utf-8"?>
<!-- Generator: Adobe Illustrator 19.1.0, SVG Export Plug-In . SVG Version: 6.00 Build 0)  -->
<!DOCTYPE svg PUBLIC "-//W3C//DTD SVG 1.1//EN" "http://www.w3.org/Graphics/SVG/1.1/DTD/svg11.dtd">
<svg version="1.1" id="Layer_1" xmlns="http://www.w3.org/2000/svg" xmlns:xlink="http://www.w3.org/1999/xlink" x="0px" y="0px"
	 width="48px" height="48px" viewBox="0 0 48 48" enable-background="new 0 0 48 48" xml:space="preserve">
<path d="M38,17h-8c-0.6,0-1,0.4-1,1s0.4,1,1,1h8c0.6,0,1-0.4,1-1S38.6,17,38,17z"/>
<path d="M46,5H2C1.4,5,1,5.4,1,6v36c0,0.6,0.4,1,1,1s1-0.4,1-1V13h18v11v18c0,0.6,0.4,1,1,1s1-0.4,1-1V25h22v17c0,0.6,0.4,1,1,1
	s1-0.4,1-1V12V6C47,5.4,46.6,5,46,5z M3,7h42v4H3V7z M23,23V13h22v10H23z"/>
</svg>
