<?xml version="1.0" encoding="utf-8"?>
<!-- Generator: Adobe Illustrator 19.1.0, SVG Export Plug-In . SVG Version: 6.00 Build 0)  -->
<!DOCTYPE svg PUBLIC "-//W3C//DTD SVG 1.1//EN" "http://www.w3.org/Graphics/SVG/1.1/DTD/svg11.dtd">
<svg version="1.1" id="Layer_1" xmlns="http://www.w3.org/2000/svg" xmlns:xlink="http://www.w3.org/1999/xlink" x="0px" y="0px"
	 width="48px" height="48px" viewBox="0 0 48 48" enable-background="new 0 0 48 48" xml:space="preserve">
<path d="M29.5,44.9C29.7,45,29.8,45,30,45c0.2,0,0.4,0,0.5-0.1c0.3-0.2,0.5-0.5,0.5-0.9V33h9c0.6,0,1-0.4,1-1V2c0-0.6-0.4-1-1-1H8
	c0,0-0.1,0-0.1,0C7.7,1,7.6,1.1,7.5,1.1C7.4,1.2,7.3,1.3,7.2,1.4C7.1,1.5,7.1,1.6,7,1.8C7,1.8,7,1.9,7,2v30c0,0.4,0.2,0.7,0.5,0.9
	L29.5,44.9z M39,3v28h-8V14c0-0.4-0.2-0.7-0.5-0.9L11.9,3H39z M9,3.7l20,10.9v27.7L9,31.4V3.7z"/>
</svg>
