<?xml version="1.0" encoding="utf-8"?>
<!-- Generator: Adobe Illustrator 19.1.0, SVG Export Plug-In . SVG Version: 6.00 Build 0)  -->
<!DOCTYPE svg PUBLIC "-//W3C//DTD SVG 1.1//EN" "http://www.w3.org/Graphics/SVG/1.1/DTD/svg11.dtd">
<svg version="1.1" id="Layer_1" xmlns="http://www.w3.org/2000/svg" xmlns:xlink="http://www.w3.org/1999/xlink" x="0px" y="0px"
	 width="48px" height="48px" viewBox="0 0 48 48" enable-background="new 0 0 48 48" xml:space="preserve">
<path d="M25,10V2c0-0.6-0.4-1-1-1s-1,0.4-1,1v8c0,0.6,0.4,1,1,1S25,10.6,25,10z"/>
<path d="M15,13V7c0-0.6-0.4-1-1-1s-1,0.4-1,1v6c0,0.6,0.4,1,1,1S15,13.6,15,13z"/>
<path d="M35,13V7c0-0.6-0.4-1-1-1s-1,0.4-1,1v6c0,0.6,0.4,1,1,1S35,13.6,35,13z"/>
<path d="M46,23h-3v-1c0-2.8-2.2-5-5-5s-5,2.2-5,5v1h-4v-1c0-2.8-2.2-5-5-5s-5,2.2-5,5v1h-4v-1c0-2.8-2.2-5-5-5s-5,2.2-5,5v20
	c0,2.8,2.2,5,5,5s5-2.2,5-5v-1h4v1c0,2.8,2.2,5,5,5s5-2.2,5-5v-1h4v1c0,2.8,2.2,5,5,5s5-2.2,5-5V28h3c0.6,0,1-0.4,1-1v-3
	C47,23.4,46.6,23,46,23z M13,42c0,1.7-1.3,3-3,3s-3-1.3-3-3V22c0-1.7,1.3-3,3-3s3,1.3,3,3V42z M15,39V25h4v14H15z M27,42
	c0,1.7-1.3,3-3,3s-3-1.3-3-3V22c0-1.7,1.3-3,3-3s3,1.3,3,3V42z M29,39V25h4v14H29z M41,42c0,1.7-1.3,3-3,3s-3-1.3-3-3V22
	c0-1.7,1.3-3,3-3s3,1.3,3,3V42z M45,26h-2v-1h2V26z"/>
</svg>
