<?xml version="1.0" encoding="utf-8"?>
<!-- Generator: Adobe Illustrator 19.1.0, SVG Export Plug-In . SVG Version: 6.00 Build 0)  -->
<!DOCTYPE svg PUBLIC "-//W3C//DTD SVG 1.1//EN" "http://www.w3.org/Graphics/SVG/1.1/DTD/svg11.dtd">
<svg version="1.1" id="Layer_1" xmlns="http://www.w3.org/2000/svg" xmlns:xlink="http://www.w3.org/1999/xlink" x="0px" y="0px"
	 width="48px" height="48px" viewBox="0 0 48 48" enable-background="new 0 0 48 48" xml:space="preserve">
<path d="M6,47h36c0.6,0,1-0.4,1-1V2c0-0.6-0.4-1-1-1H6C5.4,1,5,1.4,5,2v44C5,46.6,5.4,47,6,47z M7,45V21h34v24H7z M41,3v16H7V3H41z"
	/>
<path d="M12,14c0.6,0,1-0.4,1-1V8c0-0.6-0.4-1-1-1s-1,0.4-1,1v5C11,13.6,11.4,14,12,14z"/>
<path d="M12,26c-0.6,0-1,0.4-1,1v7c0,0.6,0.4,1,1,1s1-0.4,1-1v-7C13,26.4,12.6,26,12,26z"/>
</svg>
