<?xml version="1.0" encoding="utf-8"?>
<!-- Generator: Adobe Illustrator 19.1.0, SVG Export Plug-In . SVG Version: 6.00 Build 0)  -->
<!DOCTYPE svg PUBLIC "-//W3C//DTD SVG 1.1//EN" "http://www.w3.org/Graphics/SVG/1.1/DTD/svg11.dtd">
<svg version="1.1" id="Layer_1" xmlns="http://www.w3.org/2000/svg" xmlns:xlink="http://www.w3.org/1999/xlink" x="0px" y="0px"
	 width="48px" height="48px" viewBox="0 0 48 48" enable-background="new 0 0 48 48" xml:space="preserve">
<path d="M46.9,26.5c0,0,0-0.1-0.1-0.1L41,18.7V7c0-0.6-0.4-1-1-1H8C7.4,6,7,6.4,7,7v11.7l-5.8,7.7c0,0,0,0.1-0.1,0.1
	c0,0,0,0.1-0.1,0.1C1,26.8,1,26.9,1,27v14c0,0.6,0.4,1,1,1s1-0.4,1-1v-6h42v6c0,0.6,0.4,1,1,1s1-0.4,1-1V27c0-0.1,0-0.2-0.1-0.4
	C46.9,26.6,46.9,26.6,46.9,26.5z M8.5,20h31l4.5,6H4L8.5,20z M9,8h30v10H9V8z M3,33v-5h42v5H3z"/>
</svg>
