<?xml version="1.0" encoding="utf-8"?>
<!-- Generator: Adobe Illustrator 19.1.0, SVG Export Plug-In . SVG Version: 6.00 Build 0)  -->
<!DOCTYPE svg PUBLIC "-//W3C//DTD SVG 1.1//EN" "http://www.w3.org/Graphics/SVG/1.1/DTD/svg11.dtd">
<svg version="1.1" id="Layer_1" xmlns="http://www.w3.org/2000/svg" xmlns:xlink="http://www.w3.org/1999/xlink" x="0px" y="0px"
	 width="48px" height="48px" viewBox="0 0 48 48" enable-background="new 0 0 48 48" xml:space="preserve">
<path d="M16,37h-4c-0.6,0-1,0.4-1,1s0.4,1,1,1h4c0.6,0,1-0.4,1-1S16.6,37,16,37z"/>
<path d="M34,17c0.6,0,1-0.4,1-1v-6c0-0.6-0.4-1-1-1s-1,0.4-1,1v6C33,16.6,33.4,17,34,17z"/>
<path d="M44,1H4C3.4,1,3,1.4,3,2v44c0,0.6,0.4,1,1,1h40c0.6,0,1-0.4,1-1V2C45,1.4,44.6,1,44,1z M23,3v26H5V3H23z M5,31h18v14H5V31z
	 M43,45H25V3h18V45z"/>
</svg>
