<?xml version="1.0" encoding="utf-8"?>
<!-- Generator: Adobe Illustrator 19.1.0, SVG Export Plug-In . SVG Version: 6.00 Build 0)  -->
<!DOCTYPE svg PUBLIC "-//W3C//DTD SVG 1.1//EN" "http://www.w3.org/Graphics/SVG/1.1/DTD/svg11.dtd">
<svg version="1.1" id="Layer_1" xmlns="http://www.w3.org/2000/svg" xmlns:xlink="http://www.w3.org/1999/xlink" x="0px" y="0px"
	 width="48px" height="48px" viewBox="0 0 48 48" enable-background="new 0 0 48 48" xml:space="preserve">
<path d="M46,26h-5V2c0-0.6-0.4-1-1-1H8C7.4,1,7,1.4,7,2v24H2c-0.6,0-1,0.4-1,1v9v10c0,0.6,0.4,1,1,1s1-0.4,1-1v-9h6v5
	c0,0.6,0.4,1,1,1s1-0.4,1-1v-5h26v5c0,0.6,0.4,1,1,1s1-0.4,1-1v-5h6v9c0,0.6,0.4,1,1,1s1-0.4,1-1V36v-9C47,26.4,46.6,26,46,26z M9,3
	h30v23H9V3z M3,28h42v7H3V28z"/>
</svg>
