<?xml version="1.0" encoding="utf-8"?>
<!-- Generator: Adobe Illustrator 19.1.0, SVG Export Plug-In . SVG Version: 6.00 Build 0)  -->
<!DOCTYPE svg PUBLIC "-//W3C//DTD SVG 1.1//EN" "http://www.w3.org/Graphics/SVG/1.1/DTD/svg11.dtd">
<svg version="1.1" id="Layer_1" xmlns="http://www.w3.org/2000/svg" xmlns:xlink="http://www.w3.org/1999/xlink" x="0px" y="0px"
	 width="32px" height="32px" viewBox="0 0 32 32" enable-background="new 0 0 32 32" xml:space="preserve">
<polygon fill="#444444" points="21,6 16,0 11,6 15,6 15,9 17,9 17,6 "/>
<polygon fill="#444444" points="26,21 32,16 26,11 26,15 23,15 23,17 26,17 "/>
<polygon fill="#444444" points="11,26 16,32 21,26 17,26 17,23 15,23 15,26 "/>
<polygon fill="#444444" points="6,11 0,16 6,21 6,17 9,17 9,15 6,15 "/>
<circle data-color="color-2" fill="#444444" cx="16" cy="16" r="5"/>
</svg>
