<?xml version="1.0" encoding="utf-8"?>
<!-- Generator: Adobe Illustrator 19.1.0, SVG Export Plug-In . SVG Version: 6.00 Build 0)  -->
<!DOCTYPE svg PUBLIC "-//W3C//DTD SVG 1.1//EN" "http://www.w3.org/Graphics/SVG/1.1/DTD/svg11.dtd">
<svg version="1.1" id="Layer_1" xmlns="http://www.w3.org/2000/svg" xmlns:xlink="http://www.w3.org/1999/xlink" x="0px" y="0px"
	 width="32px" height="32px" viewBox="0 0 32 32" enable-background="new 0 0 32 32" xml:space="preserve">
<polygon data-color="color-2" fill="#444444" points="6,19 1,13 5,13 5,5 7,5 7,13 11,13 "/>
<path fill="#444444" d="M28.12762,15.47772L25,14.90906V6c0-1.10461-0.89545-2-2-2s-2,0.89539-2,2v8h-1V7c0-1.10455-0.89545-2-2-2
	s-2,0.89545-2,2v13h-1v-3h-1c-1.10455,0-2,0.89539-2,2v2.89532c0,1.36243,0.46368,2.68433,1.31482,3.74823L16,29h13l1.55609-10.1145
	C30.80316,17.27936,29.7265,15.76843,28.12762,15.47772z"/>
</svg>
