<?xml version="1.0" encoding="utf-8"?>
<!-- Generator: Adobe Illustrator 19.1.0, SVG Export Plug-In . SVG Version: 6.00 Build 0)  -->
<!DOCTYPE svg PUBLIC "-//W3C//DTD SVG 1.1//EN" "http://www.w3.org/Graphics/SVG/1.1/DTD/svg11.dtd">
<svg version="1.1" id="Layer_1" xmlns="http://www.w3.org/2000/svg" xmlns:xlink="http://www.w3.org/1999/xlink" x="0px" y="0px"
	 width="32px" height="32px" viewBox="0 0 32 32" enable-background="new 0 0 32 32" xml:space="preserve">
<polygon data-color="color-2" fill="#444444" points="30,8 24,3 24,7 16,7 16,9 24,9 24,13 "/>
<path fill="#444444" d="M19.12762,14.47772L11,13V6c0-1.10455-0.89545-2-2-2S7,4.89545,7,6v13H6v-3H5c-1.10455,0-2,0.89539-2,2
	v2.89532c0,1.36243,0.46368,2.68433,1.31482,3.74823L7,28h13l1.55609-10.1145C21.80316,16.27936,20.7265,14.76843,19.12762,14.47772
	z"/>
</svg>
