<?xml version="1.0" encoding="utf-8"?>
<!-- Generator: Adobe Illustrator 19.1.0, SVG Export Plug-In . SVG Version: 6.00 Build 0)  -->
<!DOCTYPE svg PUBLIC "-//W3C//DTD SVG 1.1//EN" "http://www.w3.org/Graphics/SVG/1.1/DTD/svg11.dtd">
<svg version="1.1" id="Layer_1" xmlns="http://www.w3.org/2000/svg" xmlns:xlink="http://www.w3.org/1999/xlink" x="0px" y="0px"
	 width="32px" height="32px" viewBox="0 0 32 32" enable-background="new 0 0 32 32" xml:space="preserve">
<path fill="#444444" d="M10,30V15.5c0-1.38071,1.11929-2.5,2.5-2.5H12.5c1.38071,0,2.5,1.11929,2.5,2.5V30H10z"/>
<path fill="#444444" d="M17,30V17.5c0-1.38071,1.11929-2.5,2.5-2.5h0c1.38071,0,2.5,1.11929,2.5,2.5V30H17z"/>
<path fill="#444444" d="M24,30V19.5c0-1.38071,1.11929-2.5,2.5-2.5h0c1.38071,0,2.5,1.11929,2.5,2.5V30H24z"/>
<path fill="#444444" d="M3,30V17.5C3,16.11929,4.11929,15,5.5,15h0C6.88071,15,8,16.11929,8,17.5V30H3z"/>
<polygon data-color="color-2" fill="#444444" points="2,7 8,2 8,6 30,6 30,8 8,8 8,12 "/>
</svg>
