<?xml version="1.0" encoding="utf-8"?>
<!-- Generator: Adobe Illustrator 19.1.0, SVG Export Plug-In . SVG Version: 6.00 Build 0)  -->
<!DOCTYPE svg PUBLIC "-//W3C//DTD SVG 1.1//EN" "http://www.w3.org/Graphics/SVG/1.1/DTD/svg11.dtd">
<svg version="1.1" id="Layer_1" xmlns="http://www.w3.org/2000/svg" xmlns:xlink="http://www.w3.org/1999/xlink" x="0px" y="0px"
	 width="32px" height="32px" viewBox="0 0 32 32" enable-background="new 0 0 32 32" xml:space="preserve">
<path fill="#444444" d="M16,9c2.20605,0,4-1.79443,4-4s-1.79395-4-4-4s-4,1.79443-4,4S13.79395,9,16,9z"/>
<path fill="#444444" d="M27,9c2.20605,0,4-1.79443,4-4s-1.79395-4-4-4s-4,1.79443-4,4S24.79395,9,27,9z"/>
<path fill="#444444" d="M27,12c-2.20605,0-4,1.79443-4,4s1.79395,4,4,4s4-1.79443,4-4S29.20605,12,27,12z"/>
<path fill="#444444" d="M5,23c-2.20605,0-4,1.79443-4,4s1.79395,4,4,4s4-1.79443,4-4S7.20605,23,5,23z"/>
<path data-color="color-2" fill="#444444" d="M27,23c-1.8587,0-3.41083,1.27972-3.85797,3h-3.28406
	C19.49438,24.6012,18.39899,23.50562,17,23.14197v-3.28394c1.72052-0.4472,3-1.99969,3-3.85803c0-2.20557-1.79395-4-4-4
	c-1.8587,0-3.41083,1.27972-3.85797,3H8.85797C8.49438,13.6012,7.39899,12.50562,6,12.14197V8.85803C7.72052,8.41083,9,6.85834,9,5
	c0-2.20557-1.79395-4-4-4S1,2.79443,1,5c0,1.85834,1.27948,3.41083,3,3.85803v3.28394C2.27948,12.58917,1,14.14166,1,16
	c0,2.20557,1.79395,4,4,4c1.8587,0,3.41083-1.27972,3.85797-3h3.28406c0.36359,1.3988,1.45898,2.49438,2.85797,2.85803v3.28394
	c-1.72052,0.4472-3,1.99969-3,3.85803c0,2.20557,1.79395,4,4,4c1.8587,0,3.41083-1.27972,3.85797-3h3.28406
	C23.58917,29.72028,25.1413,31,27,31c2.20605,0,4-1.79443,4-4S29.20605,23,27,23z"/>
</svg>
