<?xml version="1.0" encoding="utf-8"?>
<!-- Generator: Adobe Illustrator 19.1.0, SVG Export Plug-In . SVG Version: 6.00 Build 0)  -->
<!DOCTYPE svg PUBLIC "-//W3C//DTD SVG 1.1//EN" "http://www.w3.org/Graphics/SVG/1.1/DTD/svg11.dtd">
<svg version="1.1" id="Layer_1" xmlns="http://www.w3.org/2000/svg" xmlns:xlink="http://www.w3.org/1999/xlink" x="0px" y="0px"
	 width="32px" height="32px" viewBox="0 0 32 32" enable-background="new 0 0 32 32" xml:space="preserve">
<polygon data-color="color-2" fill="#444444" points="15,12 15,6 11,6 16,0 21,6 17,6 17,12 "/>
<path fill="#444444" d="M13,32V17c0-1.65685,1.34314-3,3-3H16c1.65685,0,3,1.34314,3,3v15H13z"/>
<path fill="#444444" d="M21,32V19c0-1.65685,1.34314-3,3-3H24c1.65685,0,3,1.34314,3,3v13H21z"/>
<path fill="#444444" d="M5,32V19c0-1.65685,1.34314-3,3-3h0.00001c1.65685,0,3,1.34314,3,3v13H5z"/>
</svg>
