<?xml version="1.0" encoding="utf-8"?>
<!-- Generator: Adobe Illustrator 19.1.0, SVG Export Plug-In . SVG Version: 6.00 Build 0)  -->
<!DOCTYPE svg PUBLIC "-//W3C//DTD SVG 1.1//EN" "http://www.w3.org/Graphics/SVG/1.1/DTD/svg11.dtd">
<svg version="1.1" id="Layer_1" xmlns="http://www.w3.org/2000/svg" xmlns:xlink="http://www.w3.org/1999/xlink" x="0px" y="0px"
	 width="32px" height="32px" viewBox="0 0 32 32" enable-background="new 0 0 32 32" xml:space="preserve">
<polygon data-color="color-2" fill="#444444" points="0,22 5,28 10,22 6,22 6,17 4,17 4,22 "/>
<polygon data-color="color-2" fill="#444444" points="0,8 5,2 10,8 6,8 6,13 4,13 4,8 "/>
<path fill="#444444" d="M28.12762,14.47772L20,13V5c0-1.10455-0.89545-2-2-2s-2,0.89545-2,2v14h-1v-3h-1c-1.10455,0-2,0.89539-2,2
	v2.89532c0,1.36243,0.46368,2.68433,1.31482,3.74823L16,28h13l1.55609-10.1145
	C30.80316,16.27936,29.7265,14.76843,28.12762,14.47772z"/>
</svg>
