<?xml version="1.0" encoding="utf-8"?>
<!-- Generator: Adobe Illustrator 19.1.0, SVG Export Plug-In . SVG Version: 6.00 Build 0)  -->
<!DOCTYPE svg PUBLIC "-//W3C//DTD SVG 1.1//EN" "http://www.w3.org/Graphics/SVG/1.1/DTD/svg11.dtd">
<svg version="1.1" id="Layer_1" xmlns="http://www.w3.org/2000/svg" xmlns:xlink="http://www.w3.org/1999/xlink" x="0px" y="0px"
	 width="32px" height="32px" viewBox="0 0 32 32" enable-background="new 0 0 32 32" xml:space="preserve">
<path data-color="color-2" fill="#444444" d="M19.74414,13.00049c-0.19727,0-0.39697-0.05811-0.57129-0.17969
	c-0.45264-0.31641-0.56396-0.93945-0.24805-1.39258C19.62842,10.42041,20,9.23486,20,8c0-3.30859-2.69141-6-6-6S8,4.69141,8,8
	c0,1.23486,0.37158,2.42041,1.0752,3.42822c0.31592,0.45312,0.20459,1.07617-0.24805,1.39258
	c-0.45312,0.31689-1.07568,0.20557-1.39258-0.24805C6.49609,11.22754,6,9.646,6,8c0-4.41113,3.58887-8,8-8s8,3.58887,8,8
	c0,1.646-0.49609,3.22754-1.43457,4.57275C20.37061,12.85156,20.06006,13.00049,19.74414,13.00049z"/>
<path fill="#444444" d="M24.12762,17.47772L16,16V9c0-1.10455-0.89545-2-2-2s-2,0.89545-2,2v13h-1v-3h-1c-1.10455,0-2,0.89539-2,2
	v2.89532c0,1.36243,0.46368,2.68433,1.31482,3.74823L12,31h13l1.55609-10.1145
	C26.80316,19.27936,25.7265,17.76843,24.12762,17.47772z"/>
</svg>
