<?xml version="1.0" encoding="utf-8"?>
<!-- Generator: Adobe Illustrator 19.1.0, SVG Export Plug-In . SVG Version: 6.00 Build 0)  -->
<!DOCTYPE svg PUBLIC "-//W3C//DTD SVG 1.1//EN" "http://www.w3.org/Graphics/SVG/1.1/DTD/svg11.dtd">
<svg version="1.1" id="Layer_1" xmlns="http://www.w3.org/2000/svg" xmlns:xlink="http://www.w3.org/1999/xlink" x="0px" y="0px"
	 width="32px" height="32px" viewBox="0 0 32 32" enable-background="new 0 0 32 32" xml:space="preserve">
<path data-color="color-2" fill="#444444" d="M26.57129,4.43652c-3.94922-1.96338-8.375-2.79492-12.78516-2.40381
	c-2.67023,0.23639-5.27466,0.91931-7.70416,1.9986L4.59473,1.75977C4.37305,1.42334,3.97363,1.24902,3.57715,1.32422
	C3.18066,1.39697,2.86719,1.7002,2.78125,2.09375l-1.04102,4.75C1.68262,7.10352,1.73242,7.37549,1.87598,7.59912
	c0.14453,0.22363,0.37207,0.38086,0.63184,0.43652l4.82617,1.03125c0.06934,0.01465,0.13965,0.02197,0.20898,0.02197
	c0.3252,0,0.63574-0.15918,0.8252-0.43457c0.22852-0.33447,0.2334-0.77393,0.01172-1.11328l-1.18671-1.8125
	C9.33618,4.81409,11.6214,4.2323,13.96191,4.0249c4.05078-0.35986,8.10057,0.40332,11.71875,2.20264
	c0.49805,0.24561,1.09473,0.04443,1.34082-0.4502S27.06543,4.68262,26.57129,4.43652z"/>
<path fill="#444444" d="M25.15916,14.49094l-8.20042,0.99749l-2.07462-6.6855c-0.32736-1.05493-1.44796-1.64476-2.50289-1.3174
	s-1.64476,1.44796-1.3174,2.50289l3.85286,12.41593l-0.95507,0.29638l-0.88912-2.86522l-0.95507,0.29638
	c-1.05493,0.32736-1.64477,1.44791-1.3174,2.50289l0.8581,2.76524c0.40379,1.30122,1.23842,2.4263,2.36663,3.19015L17.58406,31
	L30,27.14714l-1.5115-10.12126C28.24845,15.41867,26.77237,14.29472,25.15916,14.49094z"/>
</svg>
