<?xml version="1.0" encoding="utf-8"?>
<!-- Generator: Adobe Illustrator 19.1.0, SVG Export Plug-In . SVG Version: 6.00 Build 0)  -->
<!DOCTYPE svg PUBLIC "-//W3C//DTD SVG 1.1//EN" "http://www.w3.org/Graphics/SVG/1.1/DTD/svg11.dtd">
<svg version="1.1" id="Layer_1" xmlns="http://www.w3.org/2000/svg" xmlns:xlink="http://www.w3.org/1999/xlink" x="0px" y="0px"
	 width="32px" height="32px" viewBox="0 0 32 32" enable-background="new 0 0 32 32" xml:space="preserve">
<path data-color="color-2" fill="#444444" d="M3,10c0.55225,0,1-0.44775,1-1V4h5c0.55225,0,1-0.44775,1-1S9.55225,2,9,2H3
	C2.44775,2,2,2.44775,2,3v6C2,9.55225,2.44775,10,3,10z"/>
<path data-color="color-2" fill="#444444" d="M23,4h5v5c0,0.55225,0.44775,1,1,1s1-0.44775,1-1V3c0-0.55225-0.44775-1-1-1h-6
	c-0.55225,0-1,0.44775-1,1S22.44775,4,23,4z"/>
<path data-color="color-2" fill="#444444" d="M29,22c-0.55225,0-1,0.44775-1,1v5h-5c-0.55225,0-1,0.44775-1,1s0.44775,1,1,1h6
	c0.55225,0,1-0.44775,1-1v-6C30,22.44775,29.55225,22,29,22z"/>
<path data-color="color-2" fill="#444444" d="M9,28H4v-5c0-0.55225-0.44775-1-1-1s-1,0.44775-1,1v6c0,0.55225,0.44775,1,1,1h6
	c0.55225,0,1-0.44775,1-1S9.55225,28,9,28z"/>
<path fill="#444444" d="M31,15h-5V7c0-0.55225-0.44775-1-1-1H7C6.44775,6,6,6.44775,6,7v8H1c-0.55225,0-1,0.44775-1,1s0.44775,1,1,1
	h30c0.55225,0,1-0.44775,1-1S31.55225,15,31,15z"/>
<path fill="#444444" d="M6,19v6c0,0.55225,0.44775,1,1,1h18c0.55225,0,1-0.44775,1-1v-6H6z"/>
</svg>
