<?xml version="1.0" encoding="utf-8"?>
<!-- Generator: Adobe Illustrator 19.1.0, SVG Export Plug-In . SVG Version: 6.00 Build 0)  -->
<!DOCTYPE svg PUBLIC "-//W3C//DTD SVG 1.1//EN" "http://www.w3.org/Graphics/SVG/1.1/DTD/svg11.dtd">
<svg version="1.1" id="Layer_1" xmlns="http://www.w3.org/2000/svg" xmlns:xlink="http://www.w3.org/1999/xlink" x="0px" y="0px"
	 width="32px" height="32px" viewBox="0 0 32 32" enable-background="new 0 0 32 32" xml:space="preserve">
<path fill="#444444" d="M24.99999,4h0.00001C28.3,4,31,6.7,31,9.99999v0.00001C31,13.3,28.3,16,25.00001,16h-0.00001
	C21.7,16,19,13.3,19,10.00001V9.99999C19,6.7,21.7,4,24.99999,4z"/>
<path fill="#444444" d="M6.99999,16h0.00001C10.3,16,13,18.7,13,21.99999v0.00001C13,25.3,10.3,28,7.00001,28H6.99999
	C3.7,28,1,25.3,1,22.00001v-0.00001C1,18.7,3.7,16,6.99999,16z"/>
<path data-color="color-2" fill="#444444" d="M18.0495,6.0542c0.38239-0.67084,0.85797-1.28033,1.41064-1.81232
	C18.65228,4.08716,17.83093,4,17,4C10.70374,4,5.42285,8.48743,4.25159,14.49677c0.68176-0.25061,1.40485-0.41144,2.15857-0.46686
	C7.70959,9.37885,11.97345,6,17,6C17.35211,6,17.70166,6.0213,18.0495,6.0542z"/>
</svg>
