<?xml version="1.0" encoding="utf-8"?>
<!-- Generator: Adobe Illustrator 19.1.0, SVG Export Plug-In . SVG Version: 6.00 Build 0)  -->
<!DOCTYPE svg PUBLIC "-//W3C//DTD SVG 1.1//EN" "http://www.w3.org/Graphics/SVG/1.1/DTD/svg11.dtd">
<svg version="1.1" id="Layer_1" xmlns="http://www.w3.org/2000/svg" xmlns:xlink="http://www.w3.org/1999/xlink" x="0px" y="0px"
	 width="48px" height="48px" viewBox="0 0 48 48" enable-background="new 0 0 48 48" xml:space="preserve">
<path fill="#444444" d="M35.07129,32.07129c-0.25586,0-0.51172-0.09766-0.70703-0.29297c-0.39062-0.39062-0.39062-1.02344,0-1.41406
	c3.50879-3.50977,3.50879-9.21875,0-12.72852c-0.39062-0.39062-0.39062-1.02344,0-1.41406s1.02344-0.39062,1.41406,0
	c4.28906,4.28906,4.28906,11.26758,0,15.55664C35.58301,31.97363,35.32715,32.07129,35.07129,32.07129z"/>
<path fill="#444444" d="M40.72852,37.72754c-0.25586,0-0.51172-0.09766-0.70703-0.29297c-0.39062-0.39062-0.39062-1.02344,0-1.41406
	c6.62793-6.62793,6.62793-17.41309,0-24.04102c-0.39062-0.39062-0.39062-1.02344,0-1.41406s1.02344-0.39062,1.41406,0
	c7.4082,7.4082,7.4082,19.46094,0,26.86914C41.24023,37.62988,40.98438,37.72754,40.72852,37.72754z"/>
<path fill="#C6C6C6" d="M28,45c-0.21191,0-0.42383-0.06738-0.59961-0.2002L11.66699,33H3c-1.10457,0-2-0.89543-2-2V17
	c0-1.10457,0.89543-2,2-2h8.66699l15.7334-11.7998c0.30176-0.22852,0.70898-0.2627,1.04688-0.09473
	C28.78613,3.27539,29,3.62109,29,4v40c0,0.37891-0.21387,0.72461-0.55273,0.89453C28.30566,44.96484,28.15234,45,28,45z"/>
<rect x="5" y="15" fill="#999999" width="2" height="18"/>
</svg>
