<?xml version="1.0" encoding="utf-8"?>
<!-- Generator: Adobe Illustrator 19.1.0, SVG Export Plug-In . SVG Version: 6.00 Build 0)  -->
<!DOCTYPE svg PUBLIC "-//W3C//DTD SVG 1.1//EN" "http://www.w3.org/Graphics/SVG/1.1/DTD/svg11.dtd">
<svg version="1.1" id="Layer_1" xmlns="http://www.w3.org/2000/svg" xmlns:xlink="http://www.w3.org/1999/xlink" x="0px" y="0px"
	 width="48px" height="48px" viewBox="0 0 48 48" enable-background="new 0 0 48 48" xml:space="preserve">
<path fill="#E6E6E6" d="M45,29H19V3h26c1.10457,0,2,0.89543,2,2v22C47,28.10457,46.10457,29,45,29z"/>
<path fill="#C6C6C6" d="M19,47H9c-1.10457,0-2-0.89543-2-2V24.94336c-5.08837-3.2634-7.49325-9.82392-5.0208-15.88345
	c1.70356-4.17511,5.53375-7.22702,9.99173-7.90526C20.03452-0.07216,27,6.16607,27,14c0,4.41992-2.28467,8.56055-6,10.94336V45
	C21,46.10457,20.10457,47,19,47z"/>
<path fill="#444444" d="M38,13h-4c-0.55225,0-1-0.44727-1-1s0.44775-1,1-1h4c0.55225,0,1,0.44727,1,1S38.55225,13,38,13z"/>
<path fill="#C6C6C6" d="M21,21H7c-1.10457,0-2,0.89543-2,2v22c0,1.10457,0.89543,2,2,2h14c1.10457,0,2-0.89543,2-2V23
	C23,21.89543,22.10457,21,21,21z"/>
<path fill="#999999" d="M14,27C6.83168,27,1,21.16741,1,14S6.83168,1,14,1s13,5.83259,13,13S21.16832,27,14,27z"/>
<path fill="#666666" d="M14,23c-4.96268,0-9-4.03795-9-9s4.03732-9,9-9s9,4.03795,9,9S18.96268,23,14,23z"/>
<path fill="#444444" d="M14,19c-2.75704,0-5-2.2433-5-5s2.24296-5,5-5s5,2.2433,5,5S16.75705,19,14,19z"/>
<path fill="#FFFFFF" d="M18,33h-8c-0.55229,0-1-0.44772-1-1v-1c0-0.55228,0.44771-1,1-1h8c0.55228,0,1,0.44772,1,1v1
	C19,32.55228,18.55228,33,18,33z"/>
<circle fill="#E86C60" cx="11" cy="38" r="2"/>
</svg>
