<?xml version="1.0" encoding="utf-8"?>
<!-- Generator: Adobe Illustrator 19.1.0, SVG Export Plug-In . SVG Version: 6.00 Build 0)  -->
<!DOCTYPE svg PUBLIC "-//W3C//DTD SVG 1.1//EN" "http://www.w3.org/Graphics/SVG/1.1/DTD/svg11.dtd">
<svg version="1.1" id="Layer_1" xmlns="http://www.w3.org/2000/svg" xmlns:xlink="http://www.w3.org/1999/xlink" x="0px" y="0px"
	 width="48px" height="48px" viewBox="0 0 48 48" enable-background="new 0 0 48 48" xml:space="preserve">
<path fill="#444444" d="M45,47H3c-1.10457,0-2-0.89543-2-2V7c0-1.10457,0.89543-2,2-2h42c1.10457,0,2,0.89543,2,2v38
	C47,46.10457,46.10457,47,45,47z"/>
<path fill="#FFFFFF" d="M42,43H6c-0.55228,0-1-0.44772-1-1V11c0-0.55229,0.44772-1,1-1h36c0.55228,0,1,0.44771,1,1v31
	C43,42.55228,42.55228,43,42,43z"/>
<circle fill="#EFD358" cx="21" cy="19" r="3"/>
<path fill="#4DA34D" d="M26.42188,36l-8.71484-8.70703c-0.19678-0.19727-0.46387-0.30518-0.74561-0.29199
	c-0.27832,0.01025-0.53955,0.13672-0.7207,0.34814l-6,7c-0.25391,0.29639-0.3125,0.71387-0.14941,1.06885
	C10.25488,35.77246,10.60938,36,11,36H26.42188z"/>
<path fill="#72C472" d="M37.80859,34.41162l-8-11C29.62402,23.15771,29.33057,23.00537,29.01611,23
	c-0.32715,0.00049-0.6123,0.1377-0.80566,0.38623L18.39183,36h10.17439H37c0.37598,0,0.72021-0.21094,0.89111-0.54639
	C38.06201,35.11865,38.02979,34.71582,37.80859,34.41162z"/>
<path fill="#999999" d="M34,8c0.55228,0,1-0.44771,1-1V2c0-0.55273-0.44775-1-1-1s-1,0.44727-1,1v5C33,7.55228,33.44772,8,34,8L34,8
	z"/>
<path fill="#999999" d="M24,8c0.55228,0,1-0.44771,1-1V2c0-0.55273-0.44775-1-1-1s-1,0.44727-1,1v5C23,7.55228,23.44771,8,24,8L24,8
	z"/>
<path fill="#999999" d="M14,8c0.55228,0,1-0.44771,1-1V2c0-0.55273-0.44775-1-1-1s-1,0.44727-1,1v5C13,7.55228,13.44771,8,14,8L14,8
	z"/>
</svg>
