<?xml version="1.0" encoding="utf-8"?>
<!-- Generator: Adobe Illustrator 19.1.0, SVG Export Plug-In . SVG Version: 6.00 Build 0)  -->
<!DOCTYPE svg PUBLIC "-//W3C//DTD SVG 1.1//EN" "http://www.w3.org/Graphics/SVG/1.1/DTD/svg11.dtd">
<svg version="1.1" id="Layer_1" xmlns="http://www.w3.org/2000/svg" xmlns:xlink="http://www.w3.org/1999/xlink" x="0px" y="0px"
	 width="48px" height="48px" viewBox="0 0 48 48" enable-background="new 0 0 48 48" xml:space="preserve">
<path fill="#EA9860" d="M16,47C7.72852,47,1,40.271,1,32c0-4.50977,2.01465-8.74072,5.52832-11.60791
	c0.42676-0.34814,1.05273-0.28516,1.40234,0.1377C8.70312,21.46436,9.82227,22,11,22c2.20605,0,4-1.79443,4-4
	c0-0.31152-0.05078-0.64209-0.1582-1.04053c-0.08887-0.32617-0.00684-0.6748,0.21777-0.92676C17.34277,13.46973,20.60156,12,24,12
	c6.61719,0,12,5.3833,12,12c0,3.39893-1.46973,6.65723-4.03223,8.93945c-0.25195,0.22412-0.60156,0.30664-0.92578,0.21875
	C30.6416,33.05029,30.31055,33,30,33c-2.20605,0-4,1.79443-4,4c0,1.17871,0.53613,2.29688,1.46973,3.06836
	c0.42383,0.3501,0.48535,0.97705,0.1377,1.40332C24.74121,44.98486,20.50977,47,16,47z"/>
<rect x="30.00021" y="4.68629" transform="matrix(0.70711 0.70711 -0.70711 0.70711 20.68629 -17.94113)" fill="#87613E" width="3.99957" height="22.62742"/>
<circle fill="#444444" cx="24" cy="24" r="5"/>
<path fill="#444444" d="M39.87868,11.70711l-3.58579-3.58579c-0.39052-0.39052-0.39052-1.02369,0-1.41421l5.58579-5.58579
	c0.39052-0.39052,1.02369-0.39052,1.41421,0l3.58579,3.58579c0.39052,0.39052,0.39052,1.02369,0,1.41421l-5.58579,5.58579
	C40.90237,12.09763,40.2692,12.09763,39.87868,11.70711z"/>
<path fill="#87613E" d="M17,37c-0.25586,0-0.51172-0.09766-0.70703-0.29297l-5-5c-0.39062-0.39062-0.39062-1.02344,0-1.41406
	s1.02344-0.39062,1.41406,0l5,5c0.39062,0.39062,0.39062,1.02344,0,1.41406C17.51172,36.90234,17.25586,37,17,37z"/>
</svg>
