<?xml version="1.0" encoding="utf-8"?>
<!-- Generator: Adobe Illustrator 19.1.0, SVG Export Plug-In . SVG Version: 6.00 Build 0)  -->
<!DOCTYPE svg PUBLIC "-//W3C//DTD SVG 1.1//EN" "http://www.w3.org/Graphics/SVG/1.1/DTD/svg11.dtd">
<svg version="1.1" id="Layer_1" xmlns="http://www.w3.org/2000/svg" xmlns:xlink="http://www.w3.org/1999/xlink" x="0px" y="0px"
	 width="48px" height="48px" viewBox="0 0 48 48" enable-background="new 0 0 48 48" xml:space="preserve">
<path fill="#E6E6E6" d="M42,47H6c-1.10457,0-2-0.89543-2-2V3c0-1.10457,0.89543-2,2-2h36c1.10457,0,2,0.89543,2,2v42
	C44,46.10457,43.10457,47,42,47z"/>
<path fill="#FFFFFF" d="M40,38H8c-0.55228,0-1-0.44772-1-1V5c0-0.55228,0.44772-1,1-1h32c0.55228,0,1,0.44772,1,1v32
	C41,37.55228,40.55228,38,40,38z"/>
<circle fill="#EFD358" cx="22" cy="13" r="3"/>
<path fill="#4DA34D" d="M10.29976,30.37531l5.91938-7.39922c0.40033-0.50041,1.16141-0.50041,1.56174,0l5.91938,7.39922
	C24.22405,31.03007,23.75788,32,22.91937,32H11.08062C10.24212,32,9.77595,31.03007,10.29976,30.37531z"/>
<path fill="#72C472" d="M19,32l9.18627-12.86077c0.39882-0.55835,1.22865-0.55835,1.62747,0l8.05681,11.27954
	C38.34331,31.08063,37.87018,32,37.05681,32H19z"/>
</svg>
