<?xml version="1.0" encoding="utf-8"?>
<!-- Generator: Adobe Illustrator 19.1.0, SVG Export Plug-In . SVG Version: 6.00 Build 0)  -->
<!DOCTYPE svg PUBLIC "-//W3C//DTD SVG 1.1//EN" "http://www.w3.org/Graphics/SVG/1.1/DTD/svg11.dtd">
<svg version="1.1" id="Layer_1" xmlns="http://www.w3.org/2000/svg" xmlns:xlink="http://www.w3.org/1999/xlink" x="0px" y="0px"
	 width="48px" height="48px" viewBox="0 0 48 48" enable-background="new 0 0 48 48" xml:space="preserve">
<path fill="#999999" d="M28,47h-8c-0.50391,0-0.92969-0.37549-0.99219-0.87598l-2-16
	c-0.03613-0.28467,0.05273-0.5708,0.24219-0.78564C17.44043,29.12305,17.71289,29,18,29h12c0.28711,0,0.55957,0.12305,0.75,0.33838
	c0.18945,0.21484,0.27832,0.50098,0.24219,0.78564l-2,16C28.92969,46.62451,28.50391,47,28,47z"/>
<path fill="#EFD358" d="M33,31H15c-1.10457,0-2-0.89543-2-2V19c0-1.10457,0.89543-2,2-2h18c1.10457,0,2,0.89543,2,2v10
	C35,30.10457,34.10457,31,33,31z"/>
<path fill="#EFD358" d="M6,25H2c-0.55273,0-1-0.44775-1-1s0.44727-1,1-1h4c0.55273,0,1,0.44775,1,1S6.55273,25,6,25z"/>
<path fill="#EFD358" d="M11.27246,12.27197c-0.25586,0-0.51172-0.09766-0.70703-0.29297l-2.8291-2.82812
	c-0.39062-0.39014-0.39062-1.02344,0-1.41406s1.02344-0.39062,1.41406,0l2.8291,2.82812c0.39062,0.39014,0.39062,1.02344,0,1.41406
	C11.78418,12.17432,11.52832,12.27197,11.27246,12.27197z"/>
<path fill="#EFD358" d="M24,7c-0.55273,0-1-0.44775-1-1V2c0-0.55225,0.44727-1,1-1s1,0.44775,1,1v4C25,6.55225,24.55273,7,24,7z"/>
<path fill="#EFD358" d="M36.72754,12.27197c-0.25586,0-0.51172-0.09766-0.70703-0.29297c-0.39062-0.39062-0.39062-1.02393,0-1.41406
	l2.8291-2.82812c0.39062-0.39062,1.02344-0.39062,1.41406,0s0.39062,1.02393,0,1.41406l-2.8291,2.82812
	C37.23926,12.17432,36.9834,12.27197,36.72754,12.27197z"/>
<path fill="#EFD358" d="M46,25h-4c-0.55273,0-1-0.44775-1-1s0.44727-1,1-1h4c0.55273,0,1,0.44775,1,1S46.55273,25,46,25z"/>
</svg>
