<?xml version="1.0" encoding="utf-8"?>
<!-- Generator: Adobe Illustrator 19.1.0, SVG Export Plug-In . SVG Version: 6.00 Build 0)  -->
<!DOCTYPE svg PUBLIC "-//W3C//DTD SVG 1.1//EN" "http://www.w3.org/Graphics/SVG/1.1/DTD/svg11.dtd">
<svg version="1.1" id="Layer_1" xmlns="http://www.w3.org/2000/svg" xmlns:xlink="http://www.w3.org/1999/xlink" x="0px" y="0px"
	 width="48px" height="48px" viewBox="0 0 48 48" enable-background="new 0 0 48 48" xml:space="preserve">
<path fill="#444444" d="M43,9H33l-2.44678-4.88239c-0.33911-0.6767-1.03113-1.10394-1.78802-1.10394h-9.5304
	c-0.7569,0-1.44891,0.42725-1.78802,1.10394L15,9H5c-2.20917,0-4,1.79083-4,4v28c0,2.20917,1.79083,4,4,4h38
	c2.20917,0,4-1.79083,4-4V13C47,10.79083,45.20917,9,43,9z"/>
<path fill="#666666" d="M7,41H1V13h6c1.10457,0,2,0.89543,2,2v24C9,40.10457,8.10457,41,7,41z"/>
<circle fill="#666666" cx="24" cy="27" r="11"/>
<path fill="#E6E6E6" d="M24,39c-6.61719,0-12-5.3833-12-12s5.38281-12,12-12s12,5.3833,12,12S30.61719,39,24,39z M24,17
	c-5.51367,0-10,4.48584-10,10s4.48633,10,10,10s10-4.48584,10-10S29.51367,17,24,17z"/>
<circle fill="#444444" cx="24" cy="27" r="6"/>
<path fill="#76B5B5" d="M27,11h-6c-0.55228,0-1-0.44771-1-1V7c0-0.55228,0.44772-1,1-1h6c0.55228,0,1,0.44772,1,1v3
	C28,10.55229,27.55228,11,27,11z"/>
<path fill="#FFFFFF" d="M43,15h-6c-0.55228,0-1-0.44771-1-1v-1c0-0.55229,0.44772-1,1-1h6c0.55228,0,1,0.44771,1,1v1
	C44,14.55229,43.55228,15,43,15z"/>
</svg>
