<?xml version="1.0" encoding="utf-8"?>
<!-- Generator: Adobe Illustrator 19.1.0, SVG Export Plug-In . SVG Version: 6.00 Build 0)  -->
<!DOCTYPE svg PUBLIC "-//W3C//DTD SVG 1.1//EN" "http://www.w3.org/Graphics/SVG/1.1/DTD/svg11.dtd">
<svg version="1.1" id="Layer_1" xmlns="http://www.w3.org/2000/svg" xmlns:xlink="http://www.w3.org/1999/xlink" x="0px" y="0px"
	 width="48px" height="48px" viewBox="0 0 48 48" enable-background="new 0 0 48 48" xml:space="preserve">
<path fill-rule="evenodd" clip-rule="evenodd" fill="#C6C6C6" d="M43.25116,38.79663L30.00165,33V23h-12v10l-0.12494,0.06244
	L4.75525,38.79663c-1.52075,0.66461-2.7536,2.55304-2.7536,4.21259v2.98785C2.00165,46.55096,2.45148,47,3.00336,47H45
	c0.55322,0,1.00165-0.43787,1.00165-1.00293v-2.98785C46.00165,41.34729,44.77271,39.46234,43.25116,38.79663z"/>
<path fill="#C6C6C6" d="M24.00165,29c-6.06543,0-11-4.93457-11-11v-4c0-6.06543,4.93457-11,11-11s11,4.93457,11,11v4
	C35.00165,24.06543,30.06708,29,24.00165,29z"/>
<path fill="#72C472" d="M4,9C3.44775,9,3,8.55273,3,8V2c0-0.55273,0.44775-1,1-1h6c0.55225,0,1,0.44727,1,1s-0.44775,1-1,1H5v5
	C5,8.55273,4.55225,9,4,9z"/>
<path fill="#72C472" d="M10,31H4c-0.55225,0-1-0.44727-1-1v-6c0-0.55273,0.44775-1,1-1s1,0.44727,1,1v5h5c0.55225,0,1,0.44727,1,1
	S10.55225,31,10,31z"/>
<path fill="#72C472" d="M44,31h-6c-0.55225,0-1-0.44727-1-1s0.44775-1,1-1h5v-5c0-0.55273,0.44775-1,1-1s1,0.44727,1,1v6
	C45,30.55273,44.55225,31,44,31z"/>
<path fill="#72C472" d="M44,9c-0.55225,0-1-0.44727-1-1V3h-5c-0.55225,0-1-0.44727-1-1s0.44775-1,1-1h6c0.55225,0,1,0.44727,1,1v6
	C45,8.55273,44.55225,9,44,9z"/>
</svg>
