<?xml version="1.0" encoding="utf-8"?>
<!-- Generator: Adobe Illustrator 19.1.0, SVG Export Plug-In . SVG Version: 6.00 Build 0)  -->
<!DOCTYPE svg PUBLIC "-//W3C//DTD SVG 1.1//EN" "http://www.w3.org/Graphics/SVG/1.1/DTD/svg11.dtd">
<svg version="1.1" id="Layer_1" xmlns="http://www.w3.org/2000/svg" xmlns:xlink="http://www.w3.org/1999/xlink" x="0px" y="0px"
	 width="48px" height="48px" viewBox="0 0 48 48" enable-background="new 0 0 48 48" xml:space="preserve">
<path fill="#C6C6C6" d="M2,16.99951L2,16.99951c-0.55229,0-1-0.44771-1-1V4c0-0.55228,0.44771-1,1-1h12c0.55228,0,1,0.44771,1,1v0
	c0,0.55228-0.44771,1-1,1H3v10.99951C3,16.5518,2.55229,16.99951,2,16.99951z"/>
<path fill="#C6C6C6" d="M46,16.99951L46,16.99951c-0.55228,0-1-0.44771-1-1V5H34c-0.55228,0-1-0.44771-1-1v0
	c0-0.55228,0.44772-1,1-1h12c0.55228,0,1,0.44771,1,1v11.99951C47,16.5518,46.55228,16.99951,46,16.99951z"/>
<path fill="#C6C6C6" d="M46.00024,44.99951H33.99976C33.44761,44.99951,33,44.55191,33,43.99976l0,0
	C33,43.44761,33.44761,43,33.99976,43H45V31.99975C45,31.44761,45.44761,31,45.99976,31h0.00049
	C46.55239,31,47,31.44761,47,31.99975v12C47,44.55191,46.55239,44.99951,46.00024,44.99951z"/>
<path fill="#C6C6C6" d="M14.00025,44.99951H1.99975C1.44761,44.99951,1,44.55191,1,43.99976v-12C1,31.44761,1.44761,31,1.99975,31
	h0.00049C2.55239,31,3,31.44761,3,31.99975V43h11.00025C14.55239,43,15,43.44761,15,43.99976l0,0
	C15,44.55191,14.55239,44.99951,14.00025,44.99951z"/>
<path fill="#72C472" d="M24,31c-3.85938,0-7-3.14014-7-7s3.14062-7,7-7s7,3.14014,7,7S27.85938,31,24,31z M24,19
	c-2.75684,0-5,2.24316-5,5s2.24316,5,5,5s5-2.24316,5-5S26.75684,19,24,19z"/>
</svg>
