<?xml version="1.0" encoding="utf-8"?>
<!-- Generator: Adobe Illustrator 19.1.0, SVG Export Plug-In . SVG Version: 6.00 Build 0)  -->
<!DOCTYPE svg PUBLIC "-//W3C//DTD SVG 1.1//EN" "http://www.w3.org/Graphics/SVG/1.1/DTD/svg11.dtd">
<svg version="1.1" id="Layer_1" xmlns="http://www.w3.org/2000/svg" xmlns:xlink="http://www.w3.org/1999/xlink" x="0px" y="0px"
	 width="48px" height="48px" viewBox="0 0 48 48" enable-background="new 0 0 48 48" xml:space="preserve">
<path fill="#C6C6C6" d="M18,45H2c-0.55273,0-1-0.44775-1-1V26c0-0.41504,0.25684-0.78711,0.64453-0.93457
	c0.3916-0.146,0.82812-0.04004,1.10254,0.27002l16,18c0.26172,0.29443,0.32617,0.71484,0.16504,1.07422S18.39355,45,18,45z M3,43
	h12.77344L3,28.63037V43z"/>
<path fill="#C6C6C6" d="M46,45H30c-0.39355,0-0.75098-0.23096-0.91211-0.59033s-0.09668-0.77979,0.16504-1.07422l16-18
	c0.27539-0.31006,0.71289-0.41699,1.10254-0.27002C46.74316,25.21289,47,25.58496,47,26v18C47,44.55225,46.55273,45,46,45z
	 M32.22656,43H45V28.63037L32.22656,43z"/>
<path fill="#444444" d="M33,25H15c-2.20914,0-4-1.79086-4-4V7c0-2.20914,1.79086-4,4-4h18c2.20914,0,4,1.79086,4,4v14
	C37,23.20914,35.20914,25,33,25z"/>
</svg>
