<?xml version="1.0" encoding="utf-8"?>
<!-- Generator: Adobe Illustrator 19.1.0, SVG Export Plug-In . SVG Version: 6.00 Build 0)  -->
<!DOCTYPE svg PUBLIC "-//W3C//DTD SVG 1.1//EN" "http://www.w3.org/Graphics/SVG/1.1/DTD/svg11.dtd">
<svg version="1.1" id="Layer_1" xmlns="http://www.w3.org/2000/svg" xmlns:xlink="http://www.w3.org/1999/xlink" x="0px" y="0px"
	 width="48px" height="48px" viewBox="0 0 48 48" enable-background="new 0 0 48 48" xml:space="preserve">
<path fill="#42A6DD" d="M34,9h-7.58594l4.29297-4.29297c0.39048-0.39048,0.39048-1.02358,0-1.41406v0
	c-0.39048-0.39048-1.02358-0.39048-1.41406,0L22.58594,10l6.70703,6.70703c0.39048,0.39048,1.02358,0.39048,1.41406,0l0,0
	c0.39048-0.39048,0.39048-1.02358,0-1.41406L26.41406,11H34c4.97056,0,9,4.02944,9,9v5.00011C43,25.55233,43.44767,26,43.99989,26
	h0.00021C44.55233,26,45,25.55233,45,25.00011V20C45,13.92487,40.07513,9,34,9z"/>
<path fill="#C6C6C6" d="M31,47H5c-1.10457,0-2-0.89543-2-2V23c0-1.10457,0.89543-2,2-2h26c1.10457,0,2,0.89543,2,2v22
	C33,46.10457,32.10457,47,31,47z"/>
<path fill="#FFFFFF" d="M30,44H6V24h24V44z"/>
<circle fill="#EFD358" cx="16.04348" cy="29" r="2"/>
<path fill="#72C472" d="M26.76817,39.35986l-5-6c-0.37988-0.45605-1.15625-0.45605-1.53613,0l-4.19061,5.02875L13.7999,35.3999
	c-0.37695-0.50391-1.22266-0.50391-1.59961,0l-3,4c-0.22754,0.30322-0.26416,0.7085-0.09473,1.04736S9.62119,41,10.0001,41h16
	c0.38818,0,0.74121-0.22461,0.90576-0.57568C27.07041,40.07275,27.0167,39.65771,26.76817,39.35986z"/>
</svg>
