<?xml version="1.0" encoding="utf-8"?>
<!-- Generator: Adobe Illustrator 19.1.0, SVG Export Plug-In . SVG Version: 6.00 Build 0)  -->
<!DOCTYPE svg PUBLIC "-//W3C//DTD SVG 1.1//EN" "http://www.w3.org/Graphics/SVG/1.1/DTD/svg11.dtd">
<svg version="1.1" id="Layer_1" xmlns="http://www.w3.org/2000/svg" xmlns:xlink="http://www.w3.org/1999/xlink" x="0px" y="0px"
	 width="48px" height="48px" viewBox="0 0 48 48" enable-background="new 0 0 48 48" xml:space="preserve">
<path fill="#444444" d="M46,25h-8c-0.55273,0-1-0.44727-1-1s0.44727-1,1-1h8c0.55273,0,1,0.44727,1,1S46.55273,25,46,25z"/>
<path fill="#444444" d="M35.32129,15c-0.3457,0-0.68164-0.17871-0.86719-0.5c-0.27637-0.47852-0.1123-1.08984,0.36621-1.36621
	l6.92871-4C42.22656,8.8584,42.83789,9.02051,43.11523,9.5c0.27637,0.47852,0.1123,1.08984-0.36621,1.36621l-6.92871,4
	C35.66309,14.95703,35.49121,15,35.32129,15z"/>
<path fill="#444444" d="M42.24805,39c-0.16992,0-0.3418-0.04297-0.49902-0.13379l-6.92871-4
	c-0.47852-0.27637-0.64258-0.8877-0.36621-1.36621s0.8877-0.64355,1.36621-0.36621l6.92871,4
	c0.47852,0.27637,0.64258,0.8877,0.36621,1.36621C42.92969,38.82031,42.59375,39,42.24805,39z"/>
<path fill="#C6C6C6" d="M28,45c-0.21191,0-0.42383-0.06738-0.59961-0.2002L11.66699,33H3c-1.10457,0-2-0.89543-2-2V17
	c0-1.10457,0.89543-2,2-2h8.66699l15.7334-11.7998c0.30176-0.22852,0.70898-0.2627,1.04688-0.09473
	C28.78613,3.27539,29,3.62109,29,4v40c0,0.37891-0.21387,0.72461-0.55273,0.89453C28.30566,44.96484,28.15234,45,28,45z"/>
<rect x="5" y="15" fill="#999999" width="2" height="18"/>
</svg>
