<?xml version="1.0" encoding="utf-8"?>
<!-- Generator: Adobe Illustrator 19.1.0, SVG Export Plug-In . SVG Version: 6.00 Build 0)  -->
<!DOCTYPE svg PUBLIC "-//W3C//DTD SVG 1.1//EN" "http://www.w3.org/Graphics/SVG/1.1/DTD/svg11.dtd">
<svg version="1.1" id="Layer_1" xmlns="http://www.w3.org/2000/svg" xmlns:xlink="http://www.w3.org/1999/xlink" x="0px" y="0px"
	 width="48px" height="48px" viewBox="0 0 48 48" enable-background="new 0 0 48 48" xml:space="preserve">
<path fill="#444444" d="M45,41H3c-1.10457,0-2-0.89543-2-2V10c0-1.10457,0.89543-2,2-2h42c1.10457,0,2,0.89543,2,2v29
	C47,40.10457,46.10457,41,45,41z"/>
<path fill="#666666" d="M43,11H5c-0.55228,0-1,0.44771-1,1v18c0,0.55228,0.44772,1,1,1h38c0.55228,0,1-0.44772,1-1V12
	C44,11.44771,43.55228,11,43,11z"/>
<path fill="#999999" d="M7,41l1.81063-7.24253C8.92193,33.3123,9.32191,33,9.78078,33h28.43845
	c0.45887,0,0.85885,0.3123,0.97014,0.75747L41,41H7z"/>
<circle fill="#666666" cx="14" cy="37" r="2"/>
<circle fill="#666666" cx="34" cy="37" r="2"/>
<path fill="#444444" d="M33,26H15c-2.75684,0-5-2.24316-5-5s2.24316-5,5-5h18c2.75684,0,5,2.24316,5,5S35.75684,26,33,26z"/>
<circle fill="#FFFFFF" cx="15" cy="21" r="3"/>
<circle fill="#FFFFFF" cx="33" cy="21" r="3"/>
</svg>
