<?xml version="1.0" encoding="utf-8"?>
<!-- Generator: Adobe Illustrator 19.1.0, SVG Export Plug-In . SVG Version: 6.00 Build 0)  -->
<!DOCTYPE svg PUBLIC "-//W3C//DTD SVG 1.1//EN" "http://www.w3.org/Graphics/SVG/1.1/DTD/svg11.dtd">
<svg version="1.1" id="Layer_1" xmlns="http://www.w3.org/2000/svg" xmlns:xlink="http://www.w3.org/1999/xlink" x="0px" y="0px"
	 width="48px" height="48px" viewBox="0 0 48 48" enable-background="new 0 0 48 48" xml:space="preserve">
<path fill="#5757B2" d="M46,35h-2c-0.15527,0-0.30859-0.03613-0.44727-0.10547l-12-6C31.21387,28.72461,31,28.37891,31,28v-8
	c0-0.37891,0.21387-0.72461,0.55273-0.89453l12-6C43.69141,13.03613,43.84473,13,44,13h2c0.55273,0,1,0.44727,1,1v20
	C47,34.55273,46.55273,35,46,35z"/>
<path fill="#8680D8" d="M29,39H5c-2.20914,0-4-1.79086-4-4V13c0-2.20914,1.79086-4,4-4h24c2.20914,0,4,1.79086,4,4v22
	C33,37.20914,31.20914,39,29,39z"/>
</svg>
