<?xml version="1.0" encoding="utf-8"?>
<!-- Generator: Adobe Illustrator 19.1.0, SVG Export Plug-In . SVG Version: 6.00 Build 0)  -->
<!DOCTYPE svg PUBLIC "-//W3C//DTD SVG 1.1//EN" "http://www.w3.org/Graphics/SVG/1.1/DTD/svg11.dtd">
<svg version="1.1" id="Layer_1" xmlns="http://www.w3.org/2000/svg" xmlns:xlink="http://www.w3.org/1999/xlink" x="0px" y="0px"
	 width="48px" height="48px" viewBox="0 0 48 48" enable-background="new 0 0 48 48" xml:space="preserve">
<rect x="2" y="10" fill="#BADEFC" width="44" height="28"/>
<path fill="#458BC4" d="M1,3v42c0,1.10457,0.89543,2,2,2h42c1.10457,0,2-0.89543,2-2V3c0-1.10457-0.89543-2-2-2H3
	C1.89543,1,1,1.89543,1,3z M43,35H5c-0.55228,0-1-0.44772-1-1V14c0-0.55229,0.44772-1,1-1h38c0.55228,0,1,0.44771,1,1v20
	C44,34.55228,43.55228,35,43,35z"/>
<path fill="#FFFFFF" d="M20,31c-0.16211,0-0.32422-0.03906-0.47168-0.11816C19.20312,30.70801,19,30.36914,19,30V18
	c0-0.36914,0.20312-0.70801,0.52832-0.88184c0.32422-0.17383,0.71973-0.1543,1.02637,0.0498l9,6
	C29.83301,23.35352,30,23.66602,30,24s-0.16699,0.64648-0.44531,0.83203l-9,6C20.3877,30.94336,20.19434,31,20,31z"/>
<path fill="#FFFFFF" d="M8,10H5c-0.55228,0-1-0.44771-1-1V5c0-0.55228,0.44772-1,1-1h3c0.55229,0,1,0.44772,1,1v4
	C9,9.55229,8.55229,10,8,10z"/>
<path fill="#FFFFFF" d="M15,10h-3c-0.55229,0-1-0.44771-1-1V5c0-0.55228,0.44771-1,1-1h3c0.55229,0,1,0.44772,1,1v4
	C16,9.55229,15.55229,10,15,10z"/>
<path fill="#FFFFFF" d="M22,10h-3c-0.55228,0-1-0.44771-1-1V5c0-0.55228,0.44772-1,1-1h3c0.55228,0,1,0.44772,1,1v4
	C23,9.55229,22.55228,10,22,10z"/>
<path fill="#FFFFFF" d="M29,10h-3c-0.55228,0-1-0.44771-1-1V5c0-0.55228,0.44772-1,1-1h3c0.55228,0,1,0.44772,1,1v4
	C30,9.55229,29.55228,10,29,10z"/>
<path fill="#FFFFFF" d="M36,10h-3c-0.55228,0-1-0.44771-1-1V5c0-0.55228,0.44772-1,1-1h3c0.55228,0,1,0.44772,1,1v4
	C37,9.55229,36.55228,10,36,10z"/>
<path fill="#FFFFFF" d="M43,10h-3c-0.55228,0-1-0.44771-1-1V5c0-0.55228,0.44772-1,1-1h3c0.55228,0,1,0.44772,1,1v4
	C44,9.55229,43.55228,10,43,10z"/>
<path fill="#FFFFFF" d="M8,44H5c-0.55228,0-1-0.44772-1-1v-4c0-0.55228,0.44772-1,1-1h3c0.55229,0,1,0.44772,1,1v4
	C9,43.55228,8.55229,44,8,44z"/>
<path fill="#FFFFFF" d="M15,44h-3c-0.55229,0-1-0.44772-1-1v-4c0-0.55228,0.44771-1,1-1h3c0.55229,0,1,0.44772,1,1v4
	C16,43.55228,15.55229,44,15,44z"/>
<path fill="#FFFFFF" d="M22,44h-3c-0.55228,0-1-0.44772-1-1v-4c0-0.55228,0.44772-1,1-1h3c0.55228,0,1,0.44772,1,1v4
	C23,43.55228,22.55228,44,22,44z"/>
<path fill="#FFFFFF" d="M29,44h-3c-0.55228,0-1-0.44772-1-1v-4c0-0.55228,0.44772-1,1-1h3c0.55228,0,1,0.44772,1,1v4
	C30,43.55228,29.55228,44,29,44z"/>
<path fill="#FFFFFF" d="M36,44h-3c-0.55228,0-1-0.44772-1-1v-4c0-0.55228,0.44772-1,1-1h3c0.55228,0,1,0.44772,1,1v4
	C37,43.55228,36.55228,44,36,44z"/>
<path fill="#FFFFFF" d="M43,44h-3c-0.55228,0-1-0.44772-1-1v-4c0-0.55228,0.44772-1,1-1h3c0.55228,0,1,0.44772,1,1v4
	C44,43.55228,43.55228,44,43,44z"/>
</svg>
