<?xml version="1.0" encoding="utf-8"?>
<!-- Generator: Adobe Illustrator 19.1.0, SVG Export Plug-In . SVG Version: 6.00 Build 0)  -->
<!DOCTYPE svg PUBLIC "-//W3C//DTD SVG 1.1//EN" "http://www.w3.org/Graphics/SVG/1.1/DTD/svg11.dtd">
<svg version="1.1" id="Layer_1" xmlns="http://www.w3.org/2000/svg" xmlns:xlink="http://www.w3.org/1999/xlink" x="0px" y="0px"
	 width="48px" height="48px" viewBox="0 0 48 48" enable-background="new 0 0 48 48" xml:space="preserve">
<path fill="#C6C6C6" d="M24,47C11.31787,47,1,36.68213,1,24S11.31787,1,24,1s23,10.31787,23,23S36.68213,47,24,47z M24,3
	C12.42041,3,3,12.42041,3,24s9.42041,21,21,21s21-9.42041,21-21S35.57959,3,24,3z"/>
<path fill="#E86C60" d="M43,24c0-10.14802-7.95583-18.43787-17.97053-18.97259C24.46667,4.99737,24,5.46571,24,6.02931v35.94138
	c0,0.5636,0.46667,1.03194,1.02947,1.00189C35.04417,42.43787,43,34.14802,43,24z"/>
</svg>
