<?xml version="1.0" encoding="utf-8"?>
<!-- Generator: Adobe Illustrator 19.1.0, SVG Export Plug-In . SVG Version: 6.00 Build 0)  -->
<!DOCTYPE svg PUBLIC "-//W3C//DTD SVG 1.1//EN" "http://www.w3.org/Graphics/SVG/1.1/DTD/svg11.dtd">
<svg version="1.1" id="Layer_1" xmlns="http://www.w3.org/2000/svg" xmlns:xlink="http://www.w3.org/1999/xlink" x="0px" y="0px"
	 width="48px" height="48px" viewBox="0 0 48 48" enable-background="new 0 0 48 48" xml:space="preserve">
<path fill="#999999" d="M45,43H3c-1.10457,0-2-0.89543-2-2V7c0-1.10457,0.89543-2,2-2h42c1.10457,0,2,0.89543,2,2v34
	C47,42.10457,46.10457,43,45,43z"/>
<path fill="#444444" d="M18,38c-7.71948,0-14-6.28054-14-14s6.28052-14,14-14s14,6.28054,14,14S25.71948,38,18,38z"/>
<circle fill="#E86C60" cx="18" cy="24" r="4"/>
<path fill="#666666" d="M40,17c-2.20557,0-4-1.79443-4-4s1.79443-4,4-4s4,1.79443,4,4S42.20557,17,40,17z"/>
<path fill="#E6E6E6" d="M33,38c-0.25586,0-0.51172-0.09766-0.70703-0.29297c-0.39062-0.39062-0.39062-1.02344,0-1.41406L39,29.58594
	V13c0-0.55225,0.44775-1,1-1s1,0.44775,1,1v17c0,0.26514-0.10547,0.51953-0.29297,0.70703l-7,7C33.51172,37.90234,33.25586,38,33,38
	z"/>
</svg>
