<?xml version="1.0" encoding="utf-8"?>
<!-- Generator: Adobe Illustrator 19.1.0, SVG Export Plug-In . SVG Version: 6.00 Build 0)  -->
<!DOCTYPE svg PUBLIC "-//W3C//DTD SVG 1.1//EN" "http://www.w3.org/Graphics/SVG/1.1/DTD/svg11.dtd">
<svg version="1.1" id="Layer_1" xmlns="http://www.w3.org/2000/svg" xmlns:xlink="http://www.w3.org/1999/xlink" x="0px" y="0px"
	 width="48px" height="48px" viewBox="0 0 48 48" enable-background="new 0 0 48 48" xml:space="preserve">
<path fill="#444444" d="M17,43H9c-1.10457,0-2-0.89543-2-2V7c0-1.10457,0.89543-2,2-2h8c1.10457,0,2,0.89543,2,2v34
	C19,42.10457,18.10457,43,17,43z"/>
<path fill="#444444" d="M39,43h-8c-1.10457,0-2-0.89543-2-2V7c0-1.10457,0.89543-2,2-2h8c1.10457,0,2,0.89543,2,2v34
	C41,42.10457,40.10457,43,39,43z"/>
</svg>
