<?xml version="1.0" encoding="utf-8"?>
<!-- Generator: Adobe Illustrator 19.1.0, SVG Export Plug-In . SVG Version: 6.00 Build 0)  -->
<!DOCTYPE svg PUBLIC "-//W3C//DTD SVG 1.1//EN" "http://www.w3.org/Graphics/SVG/1.1/DTD/svg11.dtd">
<svg version="1.1" id="Layer_1" xmlns="http://www.w3.org/2000/svg" xmlns:xlink="http://www.w3.org/1999/xlink" x="0px" y="0px"
	 width="48px" height="48px" viewBox="0 0 48 48" enable-background="new 0 0 48 48" xml:space="preserve">
<path fill="#C6C6C6" d="M24,46.98926c-5.88965,0-11.78027-2.24219-16.26367-6.72607c-8.9668-8.96729-8.9668-23.55908,0-32.52637
	c3.09375-3.09326,6.99805-5.22852,11.29199-6.17529c0.39648-0.08398,0.79785,0.07031,1.03027,0.396
	c0.23242,0.32666,0.24805,0.76074,0.03809,1.10254c-5.08203,8.30371-3.82617,18.90869,3.05371,25.78906l0,0
	c5.08594,5.08643,12.33887,7.19141,19.38965,5.63623c0.39648-0.08545,0.79688,0.06982,1.03027,0.396
	c0.23242,0.32666,0.24805,0.76074,0.03809,1.10254c-0.97754,1.59814-2.10254,3.0376-3.34473,4.2793
	C35.78027,44.74707,29.88965,46.98926,24,46.98926z"/>
<path fill="#E6E6E6" d="M38,23c-0.55273,0-1-0.44775-1-1c0-3.85986-3.14062-7-7-7c-0.55273,0-1-0.44775-1-1s0.44727-1,1-1
	c3.85938,0,7-3.14014,7-7c0-0.55225,0.44727-1,1-1s1,0.44775,1,1c0,3.85986,3.14062,7,7,7c0.55273,0,1,0.44775,1,1s-0.44727,1-1,1
	c-3.85938,0-7,3.14014-7,7C39,22.55225,38.55273,23,38,23z"/>
</svg>
