<?xml version="1.0" encoding="utf-8"?>
<!-- Generator: Adobe Illustrator 19.1.0, SVG Export Plug-In . SVG Version: 6.00 Build 0)  -->
<!DOCTYPE svg PUBLIC "-//W3C//DTD SVG 1.1//EN" "http://www.w3.org/Graphics/SVG/1.1/DTD/svg11.dtd">
<svg version="1.1" id="Layer_1" xmlns="http://www.w3.org/2000/svg" xmlns:xlink="http://www.w3.org/1999/xlink" x="0px" y="0px"
	 width="48px" height="48px" viewBox="0 0 48 48" enable-background="new 0 0 48 48" xml:space="preserve">
<path fill="#C6C6C6" d="M46,45H2c-0.55225,0-1-0.44775-1-1V4c0-0.55225,0.44775-1,1-1h44c0.55225,0,1,0.44775,1,1v40
	C47,44.55225,46.55225,45,46,45z M3,43h42V5H3V43z"/>
<path fill="#444444" d="M38.62683,7H6C5.44772,7,5,7.44772,5,8v29.66077c0,0.86814,1.0303,1.32391,1.67267,0.73994L39.29951,8.73994
	C39.97583,8.1251,39.54087,7,38.62683,7z"/>
<path fill="#FFFFFF" d="M19,16h-3v-3c0-0.55225-0.44775-1-1-1s-1,0.44775-1,1v3h-3c-0.55225,0-1,0.44775-1,1s0.44775,1,1,1h3v3
	c0,0.55225,0.44775,1,1,1s1-0.44775,1-1v-3h3c0.55225,0,1-0.44775,1-1S19.55225,16,19,16z"/>
<path fill="#444444" d="M37,32h-8c-0.55225,0-1-0.44775-1-1s0.44775-1,1-1h8c0.55225,0,1,0.44775,1,1S37.55225,32,37,32z"/>
</svg>
