<?xml version="1.0" encoding="utf-8"?>
<!-- Generator: Adobe Illustrator 19.1.0, SVG Export Plug-In . SVG Version: 6.00 Build 0)  -->
<!DOCTYPE svg PUBLIC "-//W3C//DTD SVG 1.1//EN" "http://www.w3.org/Graphics/SVG/1.1/DTD/svg11.dtd">
<svg version="1.1" id="Layer_1" xmlns="http://www.w3.org/2000/svg" xmlns:xlink="http://www.w3.org/1999/xlink" x="0px" y="0px"
	 width="48px" height="48px" viewBox="0 0 48 48" enable-background="new 0 0 48 48" xml:space="preserve">
<rect x="34.00762" y="38.99059" transform="matrix(0.70713 0.70709 -0.70709 0.70713 39.98877 -16.56443)" fill="#444444" width="11.96523" height="1.99979"/>
<path fill="#EFD358" d="M11.99958,45c-0.19775,0-0.39648-0.05811-0.56934-0.17822c-0.40869-0.2832-0.54688-0.82422-0.32471-1.26904
	L20.3819,25H10.00007c-0.33936,0-0.65527-0.17188-0.83984-0.45703c-0.18408-0.28516-0.21143-0.64404-0.07227-0.95312l9-20
	C18.24958,3.23096,18.60651,3,19.00007,3h13c0.34668,0,0.66846,0.17969,0.85059,0.47412
	c0.18213,0.29492,0.19873,0.66309,0.04395,0.97314L27.61823,15h10.38184c0.39795,0,0.75781,0.23584,0.9165,0.6001
	c0.15918,0.36475,0.08691,0.78906-0.18359,1.08057l-26,28C12.53718,44.89111,12.2696,45,11.99958,45z"/>
<path fill="#666666" d="M39,31c-4.41125,0-8,3.58875-8,8s3.58875,8,8,8c4.41132,0,8-3.58875,8-8S43.41132,31,39,31z M33,39
	c0-1.29382,0.41577-2.49005,1.11487-3.47107l8.3562,8.3562C41.49005,44.58423,40.29382,45,39,45C35.69141,45,33,42.30859,33,39z
	 M43.88513,42.47107l-8.3562-8.3562C36.50995,33.41577,37.70618,33,39,33c3.30859,0,6,2.69141,6,6
	C45,40.29382,44.58423,41.49005,43.88513,42.47107z"/>
</svg>
