<?xml version="1.0" encoding="utf-8"?>
<!-- Generator: Adobe Illustrator 19.1.0, SVG Export Plug-In . SVG Version: 6.00 Build 0)  -->
<!DOCTYPE svg PUBLIC "-//W3C//DTD SVG 1.1//EN" "http://www.w3.org/Graphics/SVG/1.1/DTD/svg11.dtd">
<svg version="1.1" id="Layer_1" xmlns="http://www.w3.org/2000/svg" xmlns:xlink="http://www.w3.org/1999/xlink" x="0px" y="0px"
	 width="48px" height="48px" viewBox="0 0 48 48" enable-background="new 0 0 48 48" xml:space="preserve">
<path fill="#8680D8" d="M45,47H3c-1.10457,0-2-0.89543-2-2V3c0-1.10457,0.89543-2,2-2h42c1.10457,0,2,0.89543,2,2v42
	C47,46.10457,46.10457,47,45,47z"/>
<rect x="3" y="3" fill="#5757B2" width="42" height="32"/>
<path fill="#5757B2" d="M42,42H28c-0.55273,0-1-0.44727-1-1s0.44727-1,1-1h14c0.55273,0,1,0.44727,1,1S42.55273,42,42,42z"/>
<path fill="#EF8EC3" d="M31,42H6c-0.55273,0-1-0.44727-1-1s0.44727-1,1-1h25c0.55273,0,1,0.44727,1,1S31.55273,42,31,42z"/>
<path fill="#FFFFFF" d="M30,45c-2.20547,0-4-1.79453-4-4s1.79453-4,4-4s4,1.79453,4,4S32.20547,45,30,45z"/>
<path fill="#FFFFFF" d="M20,25.99992c-0.16211,0-0.32422-0.03906-0.47168-0.11816C19.20312,25.70793,19,25.36906,19,24.99992v-12
	c0-0.36914,0.20312-0.70801,0.52832-0.88184c0.32422-0.17383,0.71973-0.1543,1.02637,0.0498l9,6
	C29.83301,18.35344,30,18.66594,30,18.99992s-0.16699,0.64648-0.44531,0.83203l-9,6C20.3877,25.94328,20.19434,25.99992,20,25.99992
	z"/>
</svg>
