<?xml version="1.0" encoding="utf-8"?>
<!-- Generator: Adobe Illustrator 19.1.0, SVG Export Plug-In . SVG Version: 6.00 Build 0)  -->
<!DOCTYPE svg PUBLIC "-//W3C//DTD SVG 1.1//EN" "http://www.w3.org/Graphics/SVG/1.1/DTD/svg11.dtd">
<svg version="1.1" id="Layer_1" xmlns="http://www.w3.org/2000/svg" xmlns:xlink="http://www.w3.org/1999/xlink" x="0px" y="0px"
	 width="48px" height="48px" viewBox="0 0 48 48" enable-background="new 0 0 48 48" xml:space="preserve">
<circle fill="#87613E" cx="24" cy="24" r="13"/>
<rect x="24" y="43" fill="#87613E" width="23" height="2"/>
<path fill="#C6C6C6" d="M40.26367,7.73633c-8.9668-8.9668-23.56055-8.9668-32.52734,0c-8.9668,8.96777-8.9668,23.55957,0,32.52734
	c4.4834,4.4834,10.37402,6.72559,16.26367,6.72559s11.78027-2.24219,16.26367-6.72559
	C49.23047,31.2959,49.23047,16.7041,40.26367,7.73633z M12,29c-2.75684,0-5-2.24316-5-5s2.24316-5,5-5s5,2.24316,5,5
	S14.75684,29,12,29z M24,41c-2.75684,0-5-2.24316-5-5s2.24316-5,5-5s5,2.24316,5,5S26.75684,41,24,41z M24,17
	c-2.75684,0-5-2.24316-5-5s2.24316-5,5-5s5,2.24316,5,5S26.75684,17,24,17z M36,29c-2.75684,0-5-2.24316-5-5s2.24316-5,5-5
	s5,2.24316,5,5S38.75684,29,36,29z"/>
<circle fill="#444444" cx="24" cy="24" r="3"/>
<path fill="#999999" d="M24,47C11.31738,47,1,36.68262,1,24S11.31738,1,24,1s23,10.31738,23,23S36.68262,47,24,47z M24,3
	C12.4209,3,3,12.4209,3,24s9.4209,21,21,21s21-9.4209,21-21S35.5791,3,24,3z"/>
</svg>
