<?xml version="1.0" encoding="utf-8"?>
<!-- Generator: Adobe Illustrator 19.1.0, SVG Export Plug-In . SVG Version: 6.00 Build 0)  -->
<!DOCTYPE svg PUBLIC "-//W3C//DTD SVG 1.1//EN" "http://www.w3.org/Graphics/SVG/1.1/DTD/svg11.dtd">
<svg version="1.1" id="Layer_1" xmlns="http://www.w3.org/2000/svg" xmlns:xlink="http://www.w3.org/1999/xlink" x="0px" y="0px"
	 width="48px" height="48px" viewBox="0 0 48 48" enable-background="new 0 0 48 48" xml:space="preserve">
<path fill="#C6C6C6" d="M45,35H15c-1.10457,0-2-0.89543-2-2V3c0-1.10457,0.89543-2,2-2h30c1.10457,0,2,0.89543,2,2v30
	C47,34.10457,46.10457,35,45,35z"/>
<path fill="#E6E6E6" d="M39,41H9c-1.10457,0-2-0.89543-2-2V9c0-1.10457,0.89543-2,2-2h30c1.10457,0,2,0.89543,2,2v30
	C41,40.10457,40.10457,41,39,41z"/>
<path fill="#42A6DD" d="M33,47H3c-1.10457,0-2-0.89543-2-2V15c0-1.10457,0.89543-2,2-2h30c1.10457,0,2,0.89543,2,2v30
	C35,46.10457,34.10457,47,33,47z"/>
</svg>
