<?xml version="1.0" encoding="utf-8"?>
<!-- Generator: Adobe Illustrator 19.1.0, SVG Export Plug-In . SVG Version: 6.00 Build 0)  -->
<!DOCTYPE svg PUBLIC "-//W3C//DTD SVG 1.1//EN" "http://www.w3.org/Graphics/SVG/1.1/DTD/svg11.dtd">
<svg version="1.1" id="Layer_1" xmlns="http://www.w3.org/2000/svg" xmlns:xlink="http://www.w3.org/1999/xlink" x="0px" y="0px"
	 width="48px" height="48px" viewBox="0 0 48 48" enable-background="new 0 0 48 48" xml:space="preserve">
<path fill="#C6C6C6" d="M46,45H2c-0.55228,0-1-0.44772-1-1V4c0-0.55228,0.44772-1,1-1h44c0.55228,0,1,0.44772,1,1v40
	C47,44.55228,46.55228,45,46,45z M3,43h42V5H3V43z"/>
<path fill="#72C472" d="M20,31h-4c-0.55229,0-1-0.44772-1-1V18c0-0.55228,0.44771-1,1-1h4c0.55228,0,1,0.44771,1,1v0
	c0,0.55228-0.44771,1-1,1h-3v10h3c0.55228,0,1,0.44771,1,1v0C21,30.55229,20.55229,31,20,31z"/>
<path fill="#72C472" d="M32,31h-4c-0.55228,0-1-0.44771-1-1v0c0-0.55228,0.44771-1,1-1h3V19h-3c-0.55228,0-1-0.44771-1-1v0
	c0-0.55228,0.44771-1,1-1h4c0.55228,0,1,0.44772,1,1v12C33,30.55228,32.55228,31,32,31z"/>
</svg>
