<?xml version="1.0" encoding="utf-8"?>
<!-- Generator: Adobe Illustrator 19.1.0, SVG Export Plug-In . SVG Version: 6.00 Build 0)  -->
<!DOCTYPE svg PUBLIC "-//W3C//DTD SVG 1.1//EN" "http://www.w3.org/Graphics/SVG/1.1/DTD/svg11.dtd">
<svg version="1.1" id="Layer_1" xmlns="http://www.w3.org/2000/svg" xmlns:xlink="http://www.w3.org/1999/xlink" x="0px" y="0px"
	 width="48px" height="48px" viewBox="0 0 48 48" enable-background="new 0 0 48 48" xml:space="preserve">
<path fill="#42A6DD" d="M24,28.99756c-1.28076,0-2.56104-0.4873-3.53564-1.46191c-1.604-1.60449-9.19141-14.30859-10.05127-15.75195
	c-0.23438-0.39307-0.17188-0.89502,0.15186-1.21875s0.82471-0.38623,1.21875-0.15186
	c1.44336,0.85986,14.14746,8.44727,15.75195,10.05127l0,0c1.94922,1.94971,1.94922,5.12158,0,7.07129
	C26.56104,28.51025,25.28027,28.99756,24,28.99756z"/>
<path fill="#C6C6C6" d="M24,47C12.42041,47,3,37.57959,3,26c0-0.55225,0.44775-1,1-1s1,0.44775,1,1c0,10.47656,8.52344,19,19,19
	s19-8.52344,19-19S34.47656,7,24,7c-0.55225,0-1-0.44775-1-1s0.44775-1,1-1c11.57959,0,21,9.42041,21,21S35.57959,47,24,47z"/>
<path fill="#E86C60" d="M24,11c-2.75684,0-5-2.24316-5-5s2.24316-5,5-5s5,2.24316,5,5S26.75684,11,24,11z"/>
</svg>
