<?xml version="1.0" encoding="utf-8"?>
<!-- Generator: Adobe Illustrator 19.1.0, SVG Export Plug-In . SVG Version: 6.00 Build 0)  -->
<!DOCTYPE svg PUBLIC "-//W3C//DTD SVG 1.1//EN" "http://www.w3.org/Graphics/SVG/1.1/DTD/svg11.dtd">
<svg version="1.1" id="Layer_1" xmlns="http://www.w3.org/2000/svg" xmlns:xlink="http://www.w3.org/1999/xlink" x="0px" y="0px"
	 width="48px" height="48px" viewBox="0 0 48 48" enable-background="new 0 0 48 48" xml:space="preserve">
<path fill="#444444" d="M45,39H3c-1.10457,0-2-0.89543-2-2V13c0-1.10457,0.89543-2,2-2h10.46484l3.70315-5.55472
	C17.35345,5.16709,17.66566,5,18,5h10c0.33434,0,0.64655,0.16709,0.83201,0.44528L32.53516,11H45c1.10457,0,2,0.89543,2,2v24
	C47,38.10457,46.10457,39,45,39z"/>
<path fill="#666666" d="M24,33c-4.96289,0-9-4.0376-9-9s4.03711-9,9-9s9,4.0376,9,9S28.96289,33,24,33z"/>
<path fill="#E86C60" d="M4,45c-0.25586,0-0.51172-0.09766-0.70703-0.29297c-0.39062-0.39062-0.39062-1.02344,0-1.41406l40-40
	c0.39062-0.39062,1.02344-0.39062,1.41406,0s0.39062,1.02344,0,1.41406l-40,40C4.51172,44.90234,4.25586,45,4,45z"/>
</svg>
