<?xml version="1.0" encoding="utf-8"?>
<!-- Generator: Adobe Illustrator 19.1.0, SVG Export Plug-In . SVG Version: 6.00 Build 0)  -->
<!DOCTYPE svg PUBLIC "-//W3C//DTD SVG 1.1//EN" "http://www.w3.org/Graphics/SVG/1.1/DTD/svg11.dtd">
<svg version="1.1" id="Layer_1" xmlns="http://www.w3.org/2000/svg" xmlns:xlink="http://www.w3.org/1999/xlink" x="0px" y="0px"
	 width="48px" height="48px" viewBox="0 0 48 48" enable-background="new 0 0 48 48" xml:space="preserve">
<path fill="#C6C6C6" d="M44,4H4C2.34315,4,1,5.34315,1,7v34c0,1.65685,1.34315,3,3,3h40c1.65685,0,3-1.34315,3-3V7
	C47,5.34315,45.65685,4,44,4z"/>
<path fill="#E6E6E6" d="M22,4h-8c-0.55229,0-1,0.44772-1,1v38c0,0.55228,0.44771,1,1,1h8c0.55228,0,1-0.44772,1-1V5
	C23,4.44772,22.55228,4,22,4z"/>
<path fill="#E6E6E6" d="M10,4H2C1.44772,4,1,4.44772,1,5v38c0,0.55228,0.44772,1,1,1h8c0.55229,0,1-0.44772,1-1V5
	C11,4.44772,10.55229,4,10,4z"/>
<path fill="#E6E6E6" d="M34,4h-8c-0.55228,0-1,0.44772-1,1v38c0,0.55228,0.44772,1,1,1h8c0.55228,0,1-0.44772,1-1V5
	C35,4.44772,34.55228,4,34,4z"/>
<path fill="#E6E6E6" d="M46,4h-8c-0.55228,0-1,0.44772-1,1v38c0,0.55228,0.44772,1,1,1h8c0.55228,0,1-0.44772,1-1V5
	C47,4.44772,46.55228,4,46,4z"/>
<path fill="#444444" d="M14,29h-4c-0.55229,0-1-0.44772-1-1V5c0-0.55228,0.44771-1,1-1h4c0.55229,0,1,0.44772,1,1v23
	C15,28.55228,14.55229,29,14,29z"/>
<path fill="#444444" d="M26,29h-4c-0.55228,0-1-0.44772-1-1V5c0-0.55228,0.44772-1,1-1h4c0.55228,0,1,0.44772,1,1v23
	C27,28.55228,26.55228,29,26,29z"/>
<path fill="#444444" d="M38,29h-4c-0.55228,0-1-0.44772-1-1V5c0-0.55228,0.44772-1,1-1h4c0.55228,0,1,0.44772,1,1v23
	C39,28.55228,38.55228,29,38,29z"/>
</svg>
