<?xml version="1.0" encoding="utf-8"?>
<!-- Generator: Adobe Illustrator 19.1.0, SVG Export Plug-In . SVG Version: 6.00 Build 0)  -->
<!DOCTYPE svg PUBLIC "-//W3C//DTD SVG 1.1//EN" "http://www.w3.org/Graphics/SVG/1.1/DTD/svg11.dtd">
<svg version="1.1" id="Layer_1" xmlns="http://www.w3.org/2000/svg" xmlns:xlink="http://www.w3.org/1999/xlink" x="0px" y="0px"
	 width="48px" height="48px" viewBox="0 0 48 48" enable-background="new 0 0 48 48" xml:space="preserve">
<path fill="#666666" d="M24,34c-6.06543,0-11-4.93457-11-11V12c0-6.06543,4.93457-11,11-11s11,4.93457,11,11v11
	C35,29.06543,30.06543,34,24,34z"/>
<path fill="#444444" d="M34,45h-9v-7c0-0.55231-0.44769-1-1-1c-0.55225,0-1,0.44769-1,1v7h-9c-0.55225,0-1,0.44769-1,1
	c0,0.55225,0.44775,1,1,1h20c0.55231,0,1-0.44775,1-1C35,45.44769,34.55231,45,34,45z"/>
<path fill="#444444" d="M24,39c-8.82227,0-16-7.17773-16-16c0-0.55273,0.44775-1,1-1s1,0.44727,1,1c0,7.71973,6.28027,14,14,14
	s14-6.28027,14-14c0-0.55273,0.44775-1,1-1s1,0.44727,1,1C40,31.82227,32.82227,39,24,39z"/>
<path fill="#444444" d="M18,14h-5v-2h5c0.55228,0,1,0.44771,1,1v0C19,13.55229,18.55229,14,18,14z"/>
<path fill="#444444" d="M30,14h5v-2h-5c-0.55228,0-1,0.44771-1,1v0C29,13.55229,29.44771,14,30,14z"/>
<path fill="#444444" d="M18,23h-5v-2h5c0.55228,0,1,0.44771,1,1v0C19,22.55229,18.55229,23,18,23z"/>
<path fill="#444444" d="M30,21h5v2h-5c-0.55228,0-1-0.44771-1-1v0C29,21.44771,29.44771,21,30,21z"/>
</svg>
