<?xml version="1.0" encoding="utf-8"?>
<!-- Generator: Adobe Illustrator 19.1.0, SVG Export Plug-In . SVG Version: 6.00 Build 0)  -->
<!DOCTYPE svg PUBLIC "-//W3C//DTD SVG 1.1//EN" "http://www.w3.org/Graphics/SVG/1.1/DTD/svg11.dtd">
<svg version="1.1" id="Layer_1" xmlns="http://www.w3.org/2000/svg" xmlns:xlink="http://www.w3.org/1999/xlink" x="0px" y="0px"
	 width="48px" height="48px" viewBox="0 0 48 48" enable-background="new 0 0 48 48" xml:space="preserve">
<path fill="#42A6DD" d="M45,47H3c-1.10457,0-2-0.89543-2-2V3c0-1.10457,0.89543-2,2-2h42c1.10457,0,2,0.89543,2,2v42
	C47,46.10457,46.10457,47,45,47z"/>
<circle fill="#EFD358" cx="21" cy="15" r="4"/>
<path fill="#BADEFC" d="M41.79248,35.39014l-10-13c-0.37793-0.49219-1.20703-0.49219-1.58496,0l-8.24268,10.71545l-6.18408-7.7301
	c-0.37891-0.47461-1.18262-0.47461-1.56152,0l-8,10C5.69676,36.02752,6.16103,37,7,37h34
	C41.82902,37,42.29784,36.04732,41.79248,35.39014z"/>
</svg>
