<?xml version="1.0" encoding="utf-8"?>
<!-- Generator: Adobe Illustrator 19.1.0, SVG Export Plug-In . SVG Version: 6.00 Build 0)  -->
<!DOCTYPE svg PUBLIC "-//W3C//DTD SVG 1.1//EN" "http://www.w3.org/Graphics/SVG/1.1/DTD/svg11.dtd">
<svg version="1.1" id="Layer_1" xmlns="http://www.w3.org/2000/svg" xmlns:xlink="http://www.w3.org/1999/xlink" x="0px" y="0px"
	 width="48px" height="48px" viewBox="0 0 48 48" enable-background="new 0 0 48 48" xml:space="preserve">
<path fill="#C6C6C6" d="M45,47H3c-1.10457,0-2-0.89543-2-2V3c0-1.10457,0.89543-2,2-2h42c1.10457,0,2,0.89543,2,2v42
	C47,46.10457,46.10457,47,45,47z"/>
<path fill="#FFFFFF" d="M42,43H6c-0.55225,0-1-0.44775-1-1V6c0-0.55225,0.44775-1,1-1h36c0.55225,0,1,0.44775,1,1v36
	C43,42.55225,42.55225,43,42,43z"/>
<circle fill="#EFD358" cx="22" cy="16" r="3"/>
<path fill="#4DA34D" d="M23.75928,33.34912l-6-7c-0.37988-0.44336-1.13867-0.44336-1.51855,0l-6,7
	c-0.25391,0.29639-0.3125,0.71387-0.14941,1.06885C10.25488,34.77246,10.60938,35,11,35h12
	c0.39062,0,0.74512-0.22754,0.90869-0.58203C24.07178,34.06299,24.01318,33.64551,23.75928,33.34912z"/>
<path fill="#72C472" d="M37.80859,33.41162l-8-11c-0.37598-0.5166-1.24121-0.5166-1.61719,0L19,35h18
	c0.37598,0,0.72021-0.21094,0.89111-0.54639C38.06201,34.11865,38.02979,33.71582,37.80859,33.41162z"/>
</svg>
