<?xml version="1.0" encoding="utf-8"?>
<!-- Generator: Adobe Illustrator 19.1.0, SVG Export Plug-In . SVG Version: 6.00 Build 0)  -->
<!DOCTYPE svg PUBLIC "-//W3C//DTD SVG 1.1//EN" "http://www.w3.org/Graphics/SVG/1.1/DTD/svg11.dtd">
<svg version="1.1" id="Layer_1" xmlns="http://www.w3.org/2000/svg" xmlns:xlink="http://www.w3.org/1999/xlink" x="0px" y="0px"
	 width="48px" height="48px" viewBox="0 0 48 48" enable-background="new 0 0 48 48" xml:space="preserve">
<path fill="#C6A279" d="M39,47H9c-1.10457,0-2-0.89543-2-2V3c0-1.10457,0.89543-2,2-2h30c1.10457,0,2,0.89543,2,2v42
	C41,46.10457,40.10457,47,39,47z"/>
<path fill="#444444" d="M17,10c0-3.85957,3.14043-7,7-7s7,3.14043,7,7s-3.14043,7-7,7S17,13.85957,17,10z"/>
<path fill="#E6E6E6" d="M24,37c-2.75716,0-5-2.24284-5-5s2.24284-5,5-5s5,2.24284,5,5S26.75716,37,24,37z"/>
<circle fill="#999999" cx="24" cy="10" r="3"/>
<path fill="#444444" d="M24,45c-7.16792,0-13-5.83208-13-13s5.83208-13,13-13s13,5.83208,13,13S31.16792,45,24,45z"/>
<path fill="#999999" d="M24,41c-4.9624,0-9-4.0376-9-9s4.0376-9,9-9s9,4.0376,9,9S28.9624,41,24,41z"/>
<path fill="#444444" d="M24,37c-2.75689,0-5-2.24311-5-5s2.24311-5,5-5s5,2.24311,5,5S26.75689,37,24,37z"/>
</svg>
