<?xml version="1.0" encoding="utf-8"?>
<!-- Generator: Adobe Illustrator 19.1.0, SVG Export Plug-In . SVG Version: 6.00 Build 0)  -->
<!DOCTYPE svg PUBLIC "-//W3C//DTD SVG 1.1//EN" "http://www.w3.org/Graphics/SVG/1.1/DTD/svg11.dtd">
<svg version="1.1" id="Layer_1" xmlns="http://www.w3.org/2000/svg" xmlns:xlink="http://www.w3.org/1999/xlink" x="0px" y="0px"
	 width="48px" height="48px" viewBox="0 0 48 48" enable-background="new 0 0 48 48" xml:space="preserve">
<path fill="#43A6DD" d="M28,41H12C5.93457,41,1,36.06543,1,30c0-5.00537,3.39844-9.36133,8.18066-10.625
	C10.4707,9.98975,18.43749,3,28,3c10.47656,0,19,8.52344,19,19S38.47656,41,28,41z"/>
<path fill="#FFFFFF" d="M19,34c-1.65454,0-3-1.34583-3-3s1.34546-3,3-3s3,1.34583,3,3S20.65454,34,19,34z"/>
<path fill="#FFFFFF" d="M31,32c-1.65454,0-3-1.34583-3-3s1.34546-3,3-3s3,1.34583,3,3S32.65454,32,31,32z"/>
<path fill="#FFFFFF" d="M33.64648,12.23682c-0.22363-0.18945-0.52051-0.27148-0.81055-0.22314l-12,2
	C20.35352,14.09375,20,14.51123,20,15v16c0,0.55225,0.44727,1,1,1s1-0.44775,1-1V20.84698l10-1.66663V29c0,0.55225,0.44727,1,1,1
	s1-0.44775,1-1V13C34,12.70605,33.87109,12.42676,33.64648,12.23682z M22,18.81964v-2.97247l10-1.6665v2.97235L22,18.81964z"/>
</svg>
