<?xml version="1.0" encoding="utf-8"?>
<!-- Generator: Adobe Illustrator 19.1.0, SVG Export Plug-In . SVG Version: 6.00 Build 0)  -->
<!DOCTYPE svg PUBLIC "-//W3C//DTD SVG 1.1//EN" "http://www.w3.org/Graphics/SVG/1.1/DTD/svg11.dtd">
<svg version="1.1" id="Layer_1" xmlns="http://www.w3.org/2000/svg" xmlns:xlink="http://www.w3.org/1999/xlink" x="0px" y="0px"
	 width="48px" height="48px" viewBox="0 0 48 48" enable-background="new 0 0 48 48" xml:space="preserve">
<circle fill="#8680D8" cx="21" cy="5" r="3"/>
<path fill="#3FAA7C" d="M40.87256,21.93799H41c0,0-0.05682-0.01904-0.13971-0.04589
	C40.86328,21.90759,40.86969,21.92246,40.87256,21.93799z"/>
<path fill="#EEBC99" d="M22,46h-2c-8.83656,0-16-7.16344-16-16v-8h34v8C38,38.83656,30.83656,46,22,46z"/>
<path fill="#5757B2" d="M38,22H4v-1.00002C4,11.61115,11.61115,4,20.99998,4h0.00003C30.38885,4,38,11.61115,38,20.99998V22z"/>
<path fill="#8680D8" d="M41.65527,29H19.51452c-2.30171,0-4.56216-0.61111-6.55033-1.77088L4,22h34l4.80219,3.36154
	C44.40414,26.4829,43.61069,29,41.65527,29z"/>
<path fill="#FFFFFF" d="M30,32c0-0.55225-0.44775-1-1-1H13c-0.55225,0-1,0.44775-1,1c0,0.2926,0,0.64325,0,1h18
	C30,32.64325,30,32.2926,30,32z"/>
<path fill="#AE453E" d="M12.05902,33c0.49951,4.49298,4.31696,8,8.94098,8s8.44147-3.50702,8.94098-8H12.05902z"/>
<path fill="#FA645A" d="M16.11359,39.54718C17.5224,40.46252,19.19843,41,21,41s3.4776-0.53748,4.88641-1.45282
	C24.80145,38.01086,23.02423,37,21,37S17.19855,38.01086,16.11359,39.54718z"/>
</svg>
