<?xml version="1.0" encoding="utf-8"?>
<!-- Generator: Adobe Illustrator 19.1.0, SVG Export Plug-In . SVG Version: 6.00 Build 0)  -->
<!DOCTYPE svg PUBLIC "-//W3C//DTD SVG 1.1//EN" "http://www.w3.org/Graphics/SVG/1.1/DTD/svg11.dtd">
<svg version="1.1" id="Layer_1" xmlns="http://www.w3.org/2000/svg" xmlns:xlink="http://www.w3.org/1999/xlink" x="0px" y="0px"
	 width="48px" height="48px" viewBox="0 0 48 48" enable-background="new 0 0 48 48" xml:space="preserve">
<path fill="#4DA34D" d="M24,46c-0.55273,0-1-0.44775-1-1V23c0-0.55225,0.44727-1,1-1s1,0.44775,1,1v22
	C25,45.55225,24.55273,46,24,46z"/>
<path fill="#E86C60" d="M24,23.00054c-7.16797,0-13-5.83154-13-13v-8c0-0.36865,0.20312-0.70752,0.52832-0.88184
	c0.32422-0.17432,0.71973-0.15576,1.02637,0.0498L18,4.79888l5.44531-3.63037c0.33594-0.22363,0.77344-0.22363,1.10938,0L30,4.79888
	l5.44531-3.63037c0.30664-0.20361,0.70215-0.22412,1.02637-0.0498C36.79688,1.29302,37,1.63189,37,2.00054v8
	C37,17.169,31.16797,23.00054,24,23.00054z"/>
<path fill="#72C472" d="M7,30c0,9.38885,7.61115,17,17,17C24,37.61115,16.38885,30,7,30z"/>
<path fill="#72C472" d="M41,30c0,9.38885-7.61115,17-17,17C24,37.61115,31.61115,30,41,30z"/>
</svg>
