<?xml version="1.0" encoding="utf-8"?>
<!-- Generator: Adobe Illustrator 19.1.0, SVG Export Plug-In . SVG Version: 6.00 Build 0)  -->
<!DOCTYPE svg PUBLIC "-//W3C//DTD SVG 1.1//EN" "http://www.w3.org/Graphics/SVG/1.1/DTD/svg11.dtd">
<svg version="1.1" id="Layer_1" xmlns="http://www.w3.org/2000/svg" xmlns:xlink="http://www.w3.org/1999/xlink" x="0px" y="0px"
	 width="48px" height="48px" viewBox="0 0 48 48" enable-background="new 0 0 48 48" xml:space="preserve">
<path fill="#E6E6E6" d="M41,47H7c-3.31371,0-6-2.68629-6-6V7c0-3.31371,2.68629-6,6-6h34c3.31371,0,6,2.68629,6,6v34
	C47,44.31371,44.31371,47,41,47z"/>
<path fill="#C6C6C6" d="M38,47H10c-4.96289,0-9-4.03711-9-9v-6c0-0.55273,0.44727-1,1-1h44c0.55273,0,1,0.44727,1,1v6
	C47,42.96289,42.96289,47,38,47z"/>
<path fill="#76B5B5" d="M36,14h6c0.55228,0,1-0.44772,1-1V7c0-0.55228-0.44772-1-1-1h-6c-0.55228,0-1,0.44772-1,1v6
	C35,13.55228,35.44772,14,36,14z"/>
<rect x="18" y="1" fill="#E86C60" width="4" height="30"/>
<rect x="22" y="1" fill="#EFD358" width="4" height="30"/>
<rect x="26" y="1" fill="#72C472" width="4" height="30"/>
<path fill="#999999" d="M24,25c-4.96289,0-9-4.03711-9-9s4.03711-9,9-9s9,4.03711,9,9S28.96289,25,24,25z"/>
<circle fill="#666666" cx="24" cy="15.88814" r="7"/>
<circle fill="#444444" cx="24" cy="15.88814" r="3"/>
<path fill="#444444" d="M38,40H10c-0.55273,0-1-0.44727-1-1s0.44727-1,1-1h28c0.55273,0,1,0.44727,1,1S38.55273,40,38,40z"/>
<path fill="#C6C6C6" d="M11,15H5c-0.55228,0-1-0.44771-1-1v0c0-0.55228,0.44771-1,1-1h6c0.55228,0,1,0.44771,1,1v0
	C12,14.55229,11.55229,15,11,15z"/>
</svg>
