<?xml version="1.0" encoding="utf-8"?>
<!-- Generator: Adobe Illustrator 19.1.0, SVG Export Plug-In . SVG Version: 6.00 Build 0)  -->
<!DOCTYPE svg PUBLIC "-//W3C//DTD SVG 1.1//EN" "http://www.w3.org/Graphics/SVG/1.1/DTD/svg11.dtd">
<svg version="1.1" id="Layer_1" xmlns="http://www.w3.org/2000/svg" xmlns:xlink="http://www.w3.org/1999/xlink" x="0px" y="0px"
	 width="48px" height="48px" viewBox="0 0 48 48" enable-background="new 0 0 48 48" xml:space="preserve">
<path fill="#444444" d="M42,29c-0.55225,0-1-0.44727-1-1v-8c0-0.55273,0.44775-1,1-1s1,0.44727,1,1v8C43,28.55273,42.55225,29,42,29
	z"/>
<path fill="#444444" d="M46,25h-8c-0.55225,0-1-0.44727-1-1s0.44775-1,1-1h8c0.55225,0,1,0.44727,1,1S46.55225,25,46,25z"/>
<path fill="#C6C6C6" d="M30,45c-0.2124,0-0.42334-0.06738-0.6001-0.2002L13.6665,33H3c-1.10457,0-2-0.89543-2-2V17
	c0-1.10457,0.89543-2,2-2h10.6665L29.3999,3.2002c0.30322-0.22852,0.70703-0.26367,1.04736-0.09473
	C30.78613,3.27539,31,3.62109,31,4v40c0,0.37891-0.21387,0.72461-0.55273,0.89453C30.30566,44.96484,30.15234,45,30,45z"/>
<rect x="5" y="15" fill="#999999" width="2" height="18"/>
</svg>
