<?xml version="1.0" encoding="utf-8"?>
<!-- Generator: Adobe Illustrator 19.1.0, SVG Export Plug-In . SVG Version: 6.00 Build 0)  -->
<!DOCTYPE svg PUBLIC "-//W3C//DTD SVG 1.1//EN" "http://www.w3.org/Graphics/SVG/1.1/DTD/svg11.dtd">
<svg version="1.1" id="Layer_1" xmlns="http://www.w3.org/2000/svg" xmlns:xlink="http://www.w3.org/1999/xlink" x="0px" y="0px"
	 width="48px" height="48px" viewBox="0 0 48 48" enable-background="new 0 0 48 48" xml:space="preserve">
<rect x="23" y="2" fill="#C6C6C6" width="2" height="8"/>
<rect x="38" y="23" fill="#C6C6C6" width="8" height="2"/>
<rect x="23" y="38" fill="#C6C6C6" width="2" height="8"/>
<rect x="2" y="23" fill="#C6C6C6" width="8" height="2"/>
<path fill="#C6C6C6" d="M24,47C11.31787,47,1,36.68213,1,24S11.31787,1,24,1s23,10.31787,23,23S36.68213,47,24,47z M24,3
	C12.42041,3,3,12.42041,3,24s9.42041,21,21,21s21-9.42041,21-21S35.57959,3,24,3z"/>
<path fill="#72C472" d="M24,29c-2.75684,0-5-2.24316-5-5s2.24316-5,5-5s5,2.24316,5,5S26.75684,29,24,29z M24,21
	c-1.6543,0-3,1.3457-3,3s1.3457,3,3,3s3-1.3457,3-3S25.6543,21,24,21z"/>
</svg>
