<?xml version="1.0" encoding="utf-8"?>
<!-- Generator: Adobe Illustrator 19.1.0, SVG Export Plug-In . SVG Version: 6.00 Build 0)  -->
<!DOCTYPE svg PUBLIC "-//W3C//DTD SVG 1.1//EN" "http://www.w3.org/Graphics/SVG/1.1/DTD/svg11.dtd">
<svg version="1.1" id="Layer_1" xmlns="http://www.w3.org/2000/svg" xmlns:xlink="http://www.w3.org/1999/xlink" x="0px" y="0px"
	 width="48px" height="48px" viewBox="0 0 48 48" enable-background="new 0 0 48 48" xml:space="preserve">
<path fill="#444444" d="M43,9H33l-2.44678-4.88239c-0.33911-0.6767-1.03113-1.10394-1.78802-1.10394h-9.5304
	c-0.7569,0-1.44891,0.42725-1.78802,1.10394L15,9H5c-2.20917,0-4,1.79083-4,4v28c0,2.20917,1.79083,4,4,4h38
	c2.20917,0,4-1.79083,4-4V13C47,10.79083,45.20917,9,43,9z"/>
<path fill="#666666" d="M31,37H6c-0.55228,0-1-0.44772-1-1V18c0-0.55228,0.44772-1,1-1h25c0.55228,0,1,0.44772,1,1v18
	C32,36.55228,31.55228,37,31,37z"/>
<path fill="#C6C6C6" d="M39,37c-2.20573,0-4-1.79427-4-4s1.79427-4,4-4s4,1.79427,4,4S41.20573,37,39,37z"/>
<path fill="#76B5B5" d="M27,11h-6c-0.55228,0-1-0.44771-1-1V7c0-0.55228,0.44772-1,1-1h6c0.55228,0,1,0.44772,1,1v3
	C28,10.55229,27.55228,11,27,11z"/>
<circle fill="#C6C6C6" cx="36.5" cy="19.5" r="1.5"/>
<circle fill="#C6C6C6" cx="41.5" cy="19.5" r="1.5"/>
<circle fill="#C6C6C6" cx="36.5" cy="24.5" r="1.5"/>
<circle fill="#C6C6C6" cx="41.5" cy="24.5" r="1.5"/>
</svg>
