<?xml version="1.0" encoding="utf-8"?>
<!-- Generator: Adobe Illustrator 19.1.0, SVG Export Plug-In . SVG Version: 6.00 Build 0)  -->
<!DOCTYPE svg PUBLIC "-//W3C//DTD SVG 1.1//EN" "http://www.w3.org/Graphics/SVG/1.1/DTD/svg11.dtd">
<svg version="1.1" id="Layer_1" xmlns="http://www.w3.org/2000/svg" xmlns:xlink="http://www.w3.org/1999/xlink" x="0px" y="0px"
	 width="48px" height="48px" viewBox="0 0 48 48" enable-background="new 0 0 48 48" xml:space="preserve">
<path fill="#72C472" d="M43,9H33l-2.44678-4.88239c-0.33911-0.6767-1.03113-1.10394-1.78802-1.10394h-9.5304
	c-0.7569,0-1.44891,0.42725-1.78802,1.10394L15,9H5c-2.20917,0-4,1.79083-4,4v28c0,2.20917,1.79083,4,4,4h38
	c2.20917,0,4-1.79083,4-4V13C47,10.79083,45.20917,9,43,9z"/>
<circle fill="#4DA34D" cx="24" cy="27" r="12"/>
<path fill="#FFFFFF" d="M30,28h-6c-0.55273,0-1-0.44775-1-1v-6c0-0.55225,0.44727-1,1-1s1,0.44775,1,1v5h5c0.55273,0,1,0.44775,1,1
	S30.55273,28,30,28z"/>
</svg>
