<?xml version="1.0" encoding="utf-8"?>
<!-- Generator: Adobe Illustrator 19.1.0, SVG Export Plug-In . SVG Version: 6.00 Build 0)  -->
<!DOCTYPE svg PUBLIC "-//W3C//DTD SVG 1.1//EN" "http://www.w3.org/Graphics/SVG/1.1/DTD/svg11.dtd">
<svg version="1.1" id="Layer_1" xmlns="http://www.w3.org/2000/svg" xmlns:xlink="http://www.w3.org/1999/xlink" x="0px" y="0px"
	 width="48px" height="48px" viewBox="0 0 48 48" enable-background="new 0 0 48 48" xml:space="preserve">
<path fill="#E6E6E6" d="M42,47H6c-1.10457,0-2-0.89543-2-2V3c0-1.10457,0.89543-2,2-2h36c1.10457,0,2,0.89543,2,2v42
	C44,46.10457,43.10457,47,42,47z"/>
<rect x="7" y="4" fill="#9BCED3" width="34" height="34"/>
<path fill-rule="evenodd" clip-rule="evenodd" fill="#5A7A84" d="M24,12c-3.30771,0-6,2.69143-6,6s2.69229,6,6,6s6-2.69143,6-6
	S27.30771,12,24,12"/>
<path fill-rule="evenodd" clip-rule="evenodd" fill="#5A7A84" d="M34,38v-5.9967C34,28.68774,31.32349,26,27.99927,26h-7.99854
	C16.68652,26,14,28.67804,14,32.0033V38H34z"/>
</svg>
