<?xml version="1.0" encoding="utf-8"?>
<!-- Generator: Adobe Illustrator 19.1.0, SVG Export Plug-In . SVG Version: 6.00 Build 0)  -->
<!DOCTYPE svg PUBLIC "-//W3C//DTD SVG 1.1//EN" "http://www.w3.org/Graphics/SVG/1.1/DTD/svg11.dtd">
<svg version="1.1" id="Layer_1" xmlns="http://www.w3.org/2000/svg" xmlns:xlink="http://www.w3.org/1999/xlink" x="0px" y="0px"
	 width="48px" height="48px" viewBox="0 0 48 48" enable-background="new 0 0 48 48" xml:space="preserve">
<path fill="#999999" d="M30,14c-0.55225,0-1-0.44727-1-1v-3c0-0.55176-0.44873-1-1-1H15.41406l-4.70703,4.70703
	c-0.39062,0.39062-1.02344,0.39062-1.41406,0s-0.39062-1.02344,0-1.41406l5-5C14.48047,7.10547,14.73486,7,15,7h13
	c1.6543,0,3,1.3457,3,3v3C31,13.55273,30.55225,14,30,14z"/>
<path fill="#999999" d="M43.55273,17.10547l-12,6C31.21387,23.27539,31,23.62109,31,24v8c0,0.37891,0.21387,0.72461,0.55273,0.89453
	l12,6C43.69141,38.96387,43.84473,39,44,39V17C43.84473,17,43.69141,17.03613,43.55273,17.10547z"/>
<path fill="#666666" d="M31,43H3c-1.10457,0-2-0.89543-2-2V15c0-1.10457,0.89543-2,2-2h28c1.10457,0,2,0.89543,2,2v26
	C33,42.10457,32.10457,43,31,43z"/>
<path fill="#E86C60" d="M7,21c-1.10286,0-2-0.89713-2-2s0.89714-2,2-2s2,0.89713,2,2S8.10286,21,7,21z"/>
<path fill="#999999" d="M28,20h-4c-0.55225,0-1-0.44727-1-1s0.44775-1,1-1h4c0.55225,0,1,0.44727,1,1S28.55225,20,28,20z"/>
<path fill="#666666" d="M46,17h-2v22h2c0.55225,0,1-0.44727,1-1V18C47,17.44727,46.55225,17,46,17z"/>
<path fill="#444444" d="M28,25H6c-0.55228,0-1,0.44772-1,1v13c0,0.55228,0.44772,1,1,1h22c0.55228,0,1-0.44772,1-1V26
	C29,25.44772,28.55228,25,28,25z"/>
</svg>
