<?xml version="1.0" encoding="utf-8"?>
<!-- Generator: Adobe Illustrator 19.1.0, SVG Export Plug-In . SVG Version: 6.00 Build 0)  -->
<!DOCTYPE svg PUBLIC "-//W3C//DTD SVG 1.1//EN" "http://www.w3.org/Graphics/SVG/1.1/DTD/svg11.dtd">
<svg version="1.1" id="Layer_1" xmlns="http://www.w3.org/2000/svg" xmlns:xlink="http://www.w3.org/1999/xlink" x="0px" y="0px"
	 width="48px" height="48px" viewBox="0 0 48 48" enable-background="new 0 0 48 48" xml:space="preserve">
<path fill="#444444" d="M44,47H4c-0.55225,0-1-0.44727-1-1V18c0-0.55273,0.44775-1,1-1h40c0.55225,0,1,0.44727,1,1v28
	C45,46.55273,44.55225,47,44,47z"/>
<path fill="#444444" d="M41.60757,1.19903L2.4078,9.16005c-0.54124,0.10992-0.89089,0.63778-0.78097,1.17902l1.39318,6.85996
	c0.10992,0.54123,0.63778,0.89089,1.17902,0.78097l39.19977-7.96102c0.54124-0.10992,0.89089-0.63778,0.78097-1.17902
	l-1.39318-6.85996C42.67667,1.43876,42.1488,1.08911,41.60757,1.19903z"/>
<polygon fill="#444444" points="9.66581,9.72686 5.76096,15.62195 13.60092,14.02975 17.50576,8.13465 "/>
<polygon fill="#999999" points="3.78584,10.92101 4.78097,15.82098 5.76096,15.62195 9.66581,9.72686 "/>
<polygon fill="#444444" points="42.02075,8.25801 41.02562,3.35804 37.12078,9.25314 "/>
<polygon fill="#999999" points="29.28083,10.84534 37.12078,9.25314 41.02562,3.35804 33.18567,4.95024 "/>
<polygon fill="#999999" points="17.50576,8.13465 13.60092,14.02975 21.44087,12.43755 25.34572,6.54245 "/>
<polygon fill="#444444" points="25.34572,6.54245 21.44087,12.43755 29.28083,10.84534 33.18567,4.95024 "/>
<path fill="#999999" d="M38,29H10c-0.55228,0-1-0.44771-1-1v0c0-0.55228,0.44771-1,1-1h28c0.55228,0,1,0.44771,1,1v0
	C39,28.55229,38.55228,29,38,29z"/>
<path fill="#999999" d="M32,36H10c-0.55228,0-1-0.44772-1-1l0,0c0-0.55228,0.44771-1,1-1h22c0.55228,0,1,0.44772,1,1l0,0
	C33,35.55228,32.55228,36,32,36z"/>
</svg>
