<?xml version="1.0" encoding="utf-8"?>
<!-- Generator: Adobe Illustrator 19.1.0, SVG Export Plug-In . SVG Version: 6.00 Build 0)  -->
<!DOCTYPE svg PUBLIC "-//W3C//DTD SVG 1.1//EN" "http://www.w3.org/Graphics/SVG/1.1/DTD/svg11.dtd">
<svg version="1.1" id="Layer_1" xmlns="http://www.w3.org/2000/svg" xmlns:xlink="http://www.w3.org/1999/xlink" x="0px" y="0px"
	 width="48px" height="48px" viewBox="0 0 48 48" enable-background="new 0 0 48 48" xml:space="preserve">
<path fill="#444444" d="M14,10c-1.65685,0-3,1.34315-3,3v22c0,1.65685,1.34315,3,3,3h25V10H14z"/>
<path fill="#444444" d="M4,33H3c-1.10457,0-2-0.89543-2-2V17c0-1.10457,0.89543-2,2-2h1V33z"/>
<path fill="#666666" d="M11,35H6c-1.10457,0-2-0.89543-2-2V15c0-1.10457,0.89543-2,2-2h5V35z"/>
<path fill="#444444" d="M43,8v32h1c1.10457,0,2-0.89543,2-2V10c0-1.10457-0.89543-2-2-2H43z"/>
<rect x="41.00013" y="8" fill="#E86C60" width="1.99987" height="32"/>
<path fill="#444444" d="M40.99987,8L40.99987,8C39.89537,8,39,8.89537,39,9.99986v28.00027C39,39.10463,39.89537,40,40.99986,40h0V8
	z"/>
<rect x="23" y="10" fill="#666666" width="16" height="28"/>
<path fill="#444444" d="M33,16h-4c-0.55228,0-1-0.44771-1-1v0c0-0.55228,0.44771-1,1-1h4c0.55228,0,1,0.44771,1,1v0
	C34,15.55229,33.55228,16,33,16z"/>
<path fill="#444444" d="M33,22h-4c-0.55228,0-1-0.44771-1-1v0c0-0.55228,0.44771-1,1-1h4c0.55228,0,1,0.44771,1,1v0
	C34,21.55229,33.55228,22,33,22z"/>
<path fill="#444444" d="M33,28h-4c-0.55228,0-1-0.44771-1-1v0c0-0.55228,0.44771-1,1-1h4c0.55228,0,1,0.44771,1,1v0
	C34,27.55229,33.55228,28,33,28z"/>
<path fill="#444444" d="M33,34h-4c-0.55228,0-1-0.44772-1-1l0,0c0-0.55228,0.44771-1,1-1h4c0.55228,0,1,0.44772,1,1l0,0
	C34,33.55228,33.55228,34,33,34z"/>
</svg>
