<?xml version="1.0" encoding="utf-8"?>
<!-- Generator: Adobe Illustrator 19.1.0, SVG Export Plug-In . SVG Version: 6.00 Build 0)  -->
<!DOCTYPE svg PUBLIC "-//W3C//DTD SVG 1.1//EN" "http://www.w3.org/Graphics/SVG/1.1/DTD/svg11.dtd">
<svg version="1.1" id="Layer_1" xmlns="http://www.w3.org/2000/svg" xmlns:xlink="http://www.w3.org/1999/xlink" x="0px" y="0px"
	 width="48px" height="48px" viewBox="0 0 48 48" enable-background="new 0 0 48 48" xml:space="preserve">
<path fill="#999999" d="M5,29v9.49121c0,1.33203,0.89453,2.51855,2.17578,2.88477l10,2.85693
	c0.27588,0.0791,0.55566,0.11768,0.83252,0.11768c0.64111,0,1.26855-0.20752,1.79785-0.60693
	C20.56494,43.17188,21,42.29883,21,41.34863V33L5,29z M18,41.34814L8,38.49121v-5.64893l10,2.5V41.34814z"/>
<rect x="9" y="15" fill="#3FAA7C" width="2" height="18"/>
<path fill="#43A6DD" d="M46,25h-4c-0.55225,0-1-0.44775-1-1s0.44775-1,1-1h4c0.55225,0,1,0.44775,1,1S46.55225,25,46,25z"/>
<path fill="#43A6DD" d="M39.58936,16c-0.3457,0-0.68164-0.1792-0.86719-0.5c-0.27588-0.47803-0.1123-1.08984,0.36621-1.36621
	l3.46387-2c0.47705-0.27686,1.08936-0.1123,1.36621,0.36621c0.27588,0.47803,0.1123,1.08984-0.36621,1.36621l-3.46387,2
	C39.93115,15.95703,39.75879,16,39.58936,16z"/>
<path fill="#43A6DD" d="M43.05127,36c-0.16943,0-0.3418-0.04297-0.49902-0.13379l-3.46387-2
	c-0.47852-0.27637-0.64209-0.88818-0.36621-1.36621c0.27637-0.479,0.88672-0.64307,1.36621-0.36621l3.46387,2
	c0.47852,0.27637,0.64209,0.88818,0.36621,1.36621C43.73291,35.8208,43.39697,36,43.05127,36z"/>
<path fill="#C6C6C6" d="M34.56982,5.17822c-0.26953-0.18701-0.61328-0.229-0.9209-0.11475l-32,12C1.25879,17.20996,1,17.58301,1,18
	v12c0,0.41699,0.25879,0.79004,0.64893,0.93652l32,12C33.7627,42.979,33.88184,43,34,43c0.20068,0,0.3999-0.06055,0.56982-0.17822
	C34.83936,42.63525,35,42.32812,35,42V6C35,5.67188,34.83936,5.36475,34.56982,5.17822z"/>
<path fill="#999999" d="M35,20.14142v7.71716c1.72223-0.44604,3-1.99683,3-3.85858S36.72223,20.58746,35,20.14142z"/>
</svg>
