<?xml version="1.0" encoding="utf-8"?>
<!-- Generator: Adobe Illustrator 19.1.0, SVG Export Plug-In . SVG Version: 6.00 Build 0)  -->
<!DOCTYPE svg PUBLIC "-//W3C//DTD SVG 1.1//EN" "http://www.w3.org/Graphics/SVG/1.1/DTD/svg11.dtd">
<svg version="1.1" id="Layer_1" xmlns="http://www.w3.org/2000/svg" xmlns:xlink="http://www.w3.org/1999/xlink" x="0px" y="0px"
	 width="48px" height="48px" viewBox="0 0 48 48" enable-background="new 0 0 48 48" xml:space="preserve">
<path fill="#C6C6C6" d="M44,1H2C1.44775,1,1,1.44775,1,2v42c0,0.55225,0.44775,1,1,1h42c0.55225,0,1-0.44775,1-1V2
	C45,1.44775,44.55225,1,44,1z M17,29V17h12v12H17z M29,31v12H17V31H29z M3,17h12v12H3V17z M17,15V3h12v12H17z M31,17h12v12H31V17z
	 M43,15H31V3h12V15z M15,3v12H3V3H15z M3,31h12v12H3V31z M31,43V31h12v12H31z"/>
</svg>
