<?xml version="1.0" encoding="utf-8"?>
<!-- Generator: Adobe Illustrator 19.1.0, SVG Export Plug-In . SVG Version: 6.00 Build 0)  -->
<!DOCTYPE svg PUBLIC "-//W3C//DTD SVG 1.1//EN" "http://www.w3.org/Graphics/SVG/1.1/DTD/svg11.dtd">
<svg version="1.1" id="Layer_1" xmlns="http://www.w3.org/2000/svg" xmlns:xlink="http://www.w3.org/1999/xlink" x="0px" y="0px"
	 width="48px" height="48px" viewBox="0 0 48 48" enable-background="new 0 0 48 48" xml:space="preserve">
<path fill="#EFD358" d="M45,34c0-1.10461,0.89545-2,2-2v-3c-1.10455,0-2-0.89545-2-2c0-1.10461,0.89545-2,2-2v-3
	c-1.10455,0-2-0.89545-2-2c0-1.10461,0.89545-2,2-2v-3c-1.10455,0-2-0.89545-2-2c0-1.10461,0.89545-2,2-2V8c0-0.55273-0.44775-1-1-1
	h-6c0,1.10455-0.89545,2-2,2s-2-0.89545-2-2H2C1.44775,7,1,7.44727,1,8v3c1.10455,0,2,0.89539,2,2c0,1.10455-0.89545,2-2,2v3
	c1.10455,0,2,0.89539,2,2c0,1.10455-0.89545,2-2,2v3c1.10455,0,2,0.89539,2,2c0,1.10455-0.89545,2-2,2v3c1.10455,0,2,0.89539,2,2
	c0,1.10455-0.89545,2-2,2v4c0,0.55273,0.44775,1,1,1h34c0-1.10461,0.89545-2,2-2s2,0.89539,2,2h6c0.55225,0,1-0.44727,1-1v-4
	C45.89545,36,45,35.10455,45,34z"/>
<path fill="#D6BA45" d="M31.91667,33H8.08333C7.48502,33,7,32.55228,7,32V16c0-0.55229,0.48502-1,1.08333-1h23.83333
	C32.51498,15,33,15.44771,33,16v16C33,32.55228,32.51498,33,31.91667,33z"/>
<path fill="#D6BA45" d="M38,17L38,17c-0.55228,0-1-0.44771-1-1v-2c0-0.55228,0.44772-1,1-1l0,0c0.55228,0,1,0.44771,1,1v2
	C39,16.55229,38.55228,17,38,17z"/>
<path fill="#D6BA45" d="M38,23L38,23c-0.55228,0-1-0.44771-1-1v-2c0-0.55228,0.44772-1,1-1l0,0c0.55228,0,1,0.44771,1,1v2
	C39,22.55229,38.55228,23,38,23z"/>
<path fill="#D6BA45" d="M38,29L38,29c-0.55228,0-1-0.44771-1-1v-2c0-0.55228,0.44772-1,1-1l0,0c0.55228,0,1,0.44771,1,1v2
	C39,28.55229,38.55228,29,38,29z"/>
<path fill="#D6BA45" d="M38,35L38,35c-0.55228,0-1-0.44772-1-1v-2c0-0.55228,0.44772-1,1-1l0,0c0.55228,0,1,0.44771,1,1v2
	C39,34.55228,38.55228,35,38,35z"/>
</svg>
