<?xml version="1.0" encoding="utf-8"?>
<!-- Generator: Adobe Illustrator 19.1.0, SVG Export Plug-In . SVG Version: 6.00 Build 0)  -->
<!DOCTYPE svg PUBLIC "-//W3C//DTD SVG 1.1//EN" "http://www.w3.org/Graphics/SVG/1.1/DTD/svg11.dtd">
<svg version="1.1" id="Layer_1" xmlns="http://www.w3.org/2000/svg" xmlns:xlink="http://www.w3.org/1999/xlink" x="0px" y="0px"
	 width="48px" height="48px" viewBox="0 0 48 48" enable-background="new 0 0 48 48" xml:space="preserve">
<path fill="#444444" d="M2,41c-0.14746,0-0.29541-0.03223-0.43311-0.09863C1.22021,40.73438,1,40.38477,1,40V8
	c0-0.38477,0.22021-0.73438,0.56689-0.90137c0.34521-0.16797,0.75732-0.12109,1.05762,0.12012l20,16
	C22.86182,23.40918,23,23.69629,23,24s-0.13818,0.59082-0.37549,0.78125l-20,16C2.44385,40.92578,2.22266,41,2,41z"/>
<path fill="#444444" d="M24,41c-0.14746,0-0.29541-0.03223-0.43311-0.09863C23.22021,40.73438,23,40.38477,23,40V8
	c0-0.38477,0.22021-0.73438,0.56689-0.90137c0.34521-0.16797,0.75635-0.12109,1.05762,0.12012l20,16
	C44.86182,23.40918,45,23.69629,45,24s-0.13818,0.59082-0.37549,0.78125l-20,16C24.44385,40.92578,24.22266,41,24,41z"/>
</svg>
