<?xml version="1.0" encoding="utf-8"?>
<!-- Generator: Adobe Illustrator 19.1.0, SVG Export Plug-In . SVG Version: 6.00 Build 0)  -->
<!DOCTYPE svg PUBLIC "-//W3C//DTD SVG 1.1//EN" "http://www.w3.org/Graphics/SVG/1.1/DTD/svg11.dtd">
<svg version="1.1" id="Layer_1" xmlns="http://www.w3.org/2000/svg" xmlns:xlink="http://www.w3.org/1999/xlink" x="0px" y="0px"
	 width="48px" height="48px" viewBox="0 0 48 48" enable-background="new 0 0 48 48" xml:space="preserve">
<path fill="#666666" d="M38,47H10c-4.96289,0-9-4.03711-9-9V10c0-4.96289,4.03711-9,9-9h28c4.96289,0,9,4.03711,9,9v28
	C47,42.96289,42.96289,47,38,47z"/>
<path fill="#444444" d="M10,43c-2.75684,0-5-2.24316-5-5V10c0-2.75684,2.24316-5,5-5h28c2.75684,0,5,2.24316,5,5v28
	c0,2.75684-2.24316,5-5,5H10z"/>
<path fill="#BADEFC" d="M24,31c-3.85938,0-7-3.14062-7-7v-1h1c2.75684,0,5-2.24316,5-5v-1h1c3.85938,0,7,3.14062,7,7
	S27.85938,31,24,31z"/>
<path fill="#EFD358" d="M14,11h-4c-0.55228,0-1-0.44771-1-1v0c0-0.55228,0.44771-1,1-1h4c0.55228,0,1,0.44771,1,1v0
	C15,10.55229,14.55229,11,14,11z"/>
<path fill="#C6C6C6" d="M24,36c-6.61719,0-12-5.3833-12-12s5.38281-12,12-12s12,5.3833,12,12S30.61719,36,24,36z"/>
<circle fill="#666666" cx="24" cy="24" r="10"/>
<circle fill="#444444" cx="24" cy="24" r="4"/>
</svg>
