<?xml version="1.0" encoding="utf-8"?>
<!-- Generator: Adobe Illustrator 19.1.0, SVG Export Plug-In . SVG Version: 6.00 Build 0)  -->
<!DOCTYPE svg PUBLIC "-//W3C//DTD SVG 1.1//EN" "http://www.w3.org/Graphics/SVG/1.1/DTD/svg11.dtd">
<svg version="1.1" id="Layer_1" xmlns="http://www.w3.org/2000/svg" xmlns:xlink="http://www.w3.org/1999/xlink" x="0px" y="0px"
	 width="48px" height="48px" viewBox="0 0 48 48" enable-background="new 0 0 48 48" xml:space="preserve">
<path fill="#42A6DD" d="M46,21c-0.55225,0-1-0.44727-1-1c0-9.37402-7.62598-17-17-17c-0.55225,0-1-0.44727-1-1s0.44775-1,1-1
	c10.47656,0,19,8.52344,19,19C47,20.55273,46.55225,21,46,21z"/>
<path fill="#42A6DD" d="M40,21c-0.55225,0-1-0.44727-1-1c0-6.06543-4.93457-11-11-11c-0.55225,0-1-0.44727-1-1s0.44775-1,1-1
	c7.16846,0,13,5.83203,13,13C41,20.55273,40.55225,21,40,21z"/>
<path fill="#EEBC99" d="M6.28247,47H36V20c0-1.21478-1.08289-2.17645-2.33594-1.97266C32.68073,18.18732,32,19.11072,32,20.10693
	v8.90002c0,0.54956-0.44348,0.99615-0.99298,0.99994h-0.00006C30.45197,30.0108,30,29.56195,30,29.00696V15.6427
	c0-1.30774-0.94092-2.49945-2.24219-2.62976C26.26135,12.8631,25,14.03418,25,15.49994v12.5c0,0.55225-0.44769,1-1,1s-1-0.44775-1-1
	V13.6427c0-1.30774-0.94092-2.49945-2.24219-2.62976C19.26135,10.8631,18,12.03418,18,13.49994v14.5c0,0.55225-0.44769,1-1,1
	s-1-0.44775-1-1V15.6427c0-1.30774-0.94092-2.49945-2.24219-2.62976C12.26135,12.8631,11,14.03418,11,15.49994v21.44208
	c0,1.95453-2.5152,2.7486-3.63745,1.14832L5.6322,35.62305c-0.93274-1.33008-2.76477-1.82379-4.14178-0.96185
	c-1.46844,0.91919-1.85016,2.86755-0.8681,4.26782L6.28247,47z"/>
</svg>
