<?xml version="1.0" encoding="utf-8"?>
<!-- Generator: Adobe Illustrator 19.1.0, SVG Export Plug-In . SVG Version: 6.00 Build 0)  -->
<!DOCTYPE svg PUBLIC "-//W3C//DTD SVG 1.1//EN" "http://www.w3.org/Graphics/SVG/1.1/DTD/svg11.dtd">
<svg version="1.1" id="Layer_1" xmlns="http://www.w3.org/2000/svg" xmlns:xlink="http://www.w3.org/1999/xlink" x="0px" y="0px"
	 width="48px" height="48px" viewBox="0 0 48 48" enable-background="new 0 0 48 48" xml:space="preserve">
<path fill="#335262" d="M11,25c-0.51172,0-1.02393-0.19531-1.41406-0.58594c-0.78125-0.78125-0.78125-2.04688,0-2.82812l6-6
	C15.96094,15.21094,16.46973,15,17,15h10c1.10449,0,2,0.89551,2,2s-0.89551,2-2,2h-9.17139l-5.41455,5.41406
	C12.02393,24.80469,11.51172,25,11,25z"/>
<path fill="#335262" d="M27,39H13c-0.75732,0-1.4502-0.42773-1.78906-1.10547c-0.33838-0.67773-0.26562-1.48828,0.18896-2.09473l6-8
	c0.34814-0.46387,0.87988-0.75391,1.4585-0.79492c0.5835-0.03125,1.146,0.1709,1.55566,0.58105l8,8
	c0.57227,0.57227,0.74316,1.43164,0.43359,2.17969C28.53809,38.5127,27.80908,39,27,39z"/>
<circle fill="#5A7A84" cx="35" cy="9" r="6"/>
<path fill="#5A7A84" d="M44.41412,15.58594c-0.78027-0.78125-2.04785-0.78125-2.82812,0l-5.67725,5.67676
	c0,0-5.49969-4.93323-5.83374-5.21173c-1.92358-1.60358-4.78467-1.34332-6.38824,0.58142L5.29382,43.05804
	c-1.40741,2.02203,1.37402,4.3045,3.08246,2.52948l22.2796-23.14777c0.06451-0.07739,0.10706-0.16467,0.16559-0.245l3.86169,3.31012
	C35.0611,25.83594,35.53082,26,35.99957,26c0.51367,0,1.02539-0.19629,1.41455-0.58594l7-7
	C45.19537,17.63281,45.19537,16.36719,44.41412,15.58594z"/>
</svg>
