<?xml version="1.0" encoding="utf-8"?>
<!-- Generator: Adobe Illustrator 19.1.0, SVG Export Plug-In . SVG Version: 6.00 Build 0)  -->
<!DOCTYPE svg PUBLIC "-//W3C//DTD SVG 1.1//EN" "http://www.w3.org/Graphics/SVG/1.1/DTD/svg11.dtd">
<svg version="1.1" id="Layer_1" xmlns="http://www.w3.org/2000/svg" xmlns:xlink="http://www.w3.org/1999/xlink" x="0px" y="0px"
	 width="48px" height="48px" viewBox="0 0 48 48" enable-background="new 0 0 48 48" xml:space="preserve">
<path fill="#C6C6C6" d="M33.25039,5.55024L30.5145,3.9087C29.84797,3.50878,29,3.9889,29,4.76619v1.69863
	c0,0.33435,0.1671,0.64658,0.4453,0.83205l2.06681,1.37788c0.31855,0.21237,0.56946,0.51171,0.72291,0.86246L39,25h6.10412
	c0.80416,0,1.27941-0.901,0.82531-1.56468L34.49364,6.72147C34.16838,6.2461,33.7443,5.84658,33.25039,5.55024z"/>
<path fill="#C6C6C6" d="M14.74961,5.55024l2.7359-1.64154C18.15203,3.50878,19,3.9889,19,4.76619v1.69863
	c0,0.33435-0.1671,0.64658-0.4453,0.83205l-2.06681,1.37788c-0.31855,0.21237-0.56946,0.51171-0.72291,0.86246L9,25H2.89588
	c-0.80416,0-1.2794-0.901-0.82531-1.56468L13.50636,6.72147C13.83162,6.2461,14.2557,5.84658,14.74961,5.55024z"/>
<path fill="#E6E6E6" d="M43,43H29.70711C29.44189,43,29.18754,42.89464,29,42.70711l-3.58579-6.29289
	c-0.78105-0.78105-2.04738-0.78105-2.82843,0L19,42.70711C18.81246,42.89464,18.55811,43,18.29289,43H5c-2.20914,0-4-1.79086-4-4V26
	c0-2.20914,1.79086-4,4-4h38c2.20914,0,4,1.79086,4,4v13C47,41.20914,45.20914,43,43,43z"/>
<path fill="#42A6DD" d="M17.12623,40H5c-0.55228,0-1-0.44772-1-1V26c0-0.55228,0.44772-1,1-1h16c0.55228,0,1,0.44772,1,1v6.58578
	c0,0.26522-0.10536,0.51957-0.29289,0.70711l-3.87377,6.41422C17.6458,39.89464,17.39144,40,17.12623,40z"/>
<path fill="#E86C60" d="M30.87377,40H43c0.55228,0,1-0.44772,1-1V26c0-0.55228-0.44772-1-1-1H27c-0.55228,0-1,0.44772-1,1v6.58578
	c0,0.26522,0.10536,0.51957,0.29289,0.70711l3.87377,6.41422C30.3542,39.89464,30.60856,40,30.87377,40z"/>
</svg>
