<?xml version="1.0" encoding="utf-8"?>
<!-- Generator: Adobe Illustrator 19.1.0, SVG Export Plug-In . SVG Version: 6.00 Build 0)  -->
<!DOCTYPE svg PUBLIC "-//W3C//DTD SVG 1.1//EN" "http://www.w3.org/Graphics/SVG/1.1/DTD/svg11.dtd">
<svg version="1.1" id="Layer_1" xmlns="http://www.w3.org/2000/svg" xmlns:xlink="http://www.w3.org/1999/xlink" x="0px" y="0px"
	 width="48px" height="48px" viewBox="0 0 48 48" enable-background="new 0 0 48 48" xml:space="preserve">
<path fill="#444444" d="M37,11H11c-1.10457,0-2-0.89543-2-2V3c0-1.10457,0.89543-2,2-2h26c1.10457,0,2,0.89543,2,2v6
	C39,10.10457,38.10457,11,37,11z"/>
<path fill="#444444" d="M24.00011,43h-0.00022C23.44767,43,23,42.55233,23,42.00011V25h2v17.00011
	C25,42.55233,24.55233,43,24.00011,43z"/>
<path fill="#444444" d="M35.29297,44.70703L24,33.41406L12.70703,44.70703c-0.39048,0.39048-1.02358,0.39048-1.41406,0h0
	c-0.39048-0.39048-0.39048-1.02358,0-1.41406L24,30.58594l12.70703,12.70703c0.39048,0.39048,0.39048,1.02358,0,1.41406l0,0
	C36.31655,45.09752,35.68345,45.09752,35.29297,44.70703z"/>
<path fill="#C6C6C6" d="M31,11H17v11c0,1.65685,1.34315,3,3,3h8c1.65685,0,3-1.34315,3-3V11z"/>
</svg>
