<?xml version="1.0" encoding="utf-8"?>
<!-- Generator: Adobe Illustrator 19.1.0, SVG Export Plug-In . SVG Version: 6.00 Build 0)  -->
<!DOCTYPE svg PUBLIC "-//W3C//DTD SVG 1.1//EN" "http://www.w3.org/Graphics/SVG/1.1/DTD/svg11.dtd">
<svg version="1.1" id="Layer_1" xmlns="http://www.w3.org/2000/svg" xmlns:xlink="http://www.w3.org/1999/xlink" x="0px" y="0px"
	 width="48px" height="48px" viewBox="0 0 48 48" enable-background="new 0 0 48 48" xml:space="preserve">
<path fill="#5757B2" d="M22,35H2c-0.55228,0-1-0.44772-1-1V14c0-0.55229,0.44772-1,1-1h20c0.55228,0,1,0.44771,1,1v20
	C23,34.55228,22.55228,35,22,35z"/>
<path fill="#5757B2" d="M46,35H26c-0.55228,0-1-0.44772-1-1V14c0-0.55229,0.44772-1,1-1h20c0.55228,0,1,0.44771,1,1v20
	C47,34.55228,46.55228,35,46,35z"/>
<path fill="#8680D8" d="M40,41H8c-0.55225,0-1-0.44775-1-1V8c0-0.55225,0.44775-1,1-1h32c0.55225,0,1,0.44775,1,1v32
	C41,40.55225,40.55225,41,40,41z"/>
<path fill="#FFFFFF" d="M17,35c-1.65454,0-3-1.34583-3-3s1.34546-3,3-3s3,1.34583,3,3S18.65454,35,17,35z"/>
<path fill="#FFFFFF" d="M29,33c-1.65454,0-3-1.34583-3-3s1.34546-3,3-3s3,1.34583,3,3S30.65454,33,29,33z"/>
<path fill="#FFFFFF" d="M31.64648,13.23682c-0.22363-0.18945-0.52051-0.27148-0.81055-0.22314l-12,2
	C18.35352,15.09375,18,15.51123,18,16v16c0,0.55225,0.44727,1,1,1s1-0.44775,1-1V21.84698l10-1.66663V30c0,0.55225,0.44727,1,1,1
	s1-0.44775,1-1V14C32,13.70605,31.87109,13.42676,31.64648,13.23682z M20,19.81964v-2.97247l10-1.6665v2.97235L20,19.81964z"/>
</svg>
