<?xml version="1.0" encoding="utf-8"?>
<!-- Generator: Adobe Illustrator 19.1.0, SVG Export Plug-In . SVG Version: 6.00 Build 0)  -->
<!DOCTYPE svg PUBLIC "-//W3C//DTD SVG 1.1//EN" "http://www.w3.org/Graphics/SVG/1.1/DTD/svg11.dtd">
<svg version="1.1" id="Layer_1" xmlns="http://www.w3.org/2000/svg" xmlns:xlink="http://www.w3.org/1999/xlink" x="0px" y="0px"
	 width="48px" height="48px" viewBox="0 0 48 48" enable-background="new 0 0 48 48" xml:space="preserve">
<path fill="#666666" d="M46,35h-4V23c0-9.92529-8.07471-18-18-18S6,13.07471,6,23v12H2V23C2,10.86914,11.86914,1,24,1
	s22,9.86914,22,22V35z"/>
<path fill="#999999" d="M11,25C5.47717,25,1,29.47717,1,35s4.47717,10,10,10V25z"/>
<path fill="#999999" d="M37,25c5.52283,0,10,4.47717,10,10s-4.47717,10-10,10V25z"/>
<path fill="#444444" d="M12,23L12,23c-1.65686,0-3,1.34314-3,3V44c0,1.65685,1.34314,3,3,3H12c1.65685,0,3-1.34314,3-3V26
	C15,24.34314,13.65686,23,12,23z"/>
<path fill="#444444" d="M36,23L36,23c1.65686,0,3,1.34314,3,3V44c0,1.65685-1.34314,3-3,3H36c-1.65685,0-3-1.34314-3-3V26
	C33,24.34314,34.34314,23,36,23z"/>
</svg>
