<?xml version="1.0" encoding="utf-8"?>
<!-- Generator: Adobe Illustrator 19.1.0, SVG Export Plug-In . SVG Version: 6.00 Build 0)  -->
<!DOCTYPE svg PUBLIC "-//W3C//DTD SVG 1.1//EN" "http://www.w3.org/Graphics/SVG/1.1/DTD/svg11.dtd">
<svg version="1.1" id="Layer_1" xmlns="http://www.w3.org/2000/svg" xmlns:xlink="http://www.w3.org/1999/xlink" x="0px" y="0px"
	 width="48px" height="48px" viewBox="0 0 48 48" enable-background="new 0 0 48 48" xml:space="preserve">
<path fill="#C64692" d="M44.33691,2.51221c-0.42285-0.37988-0.9873-0.56006-1.5498-0.50098l-28,3C13.77051,5.12012,13,5.97803,13,7
	v26.685C12.08923,33.25049,11.07452,33,10,33c-3.85986,0-7,3.14014-7,7s3.14014,7,7,7s7-3.14014,7-7V18.7973l24-2.57141V29.685
	C40.08923,29.25049,39.07452,29,38,29c-3.85986,0-7,3.14014-7,7s3.14014,7,7,7s7-3.14014,7-7V4
	C45,3.43262,44.75879,2.8916,44.33691,2.51221z M17,8.79736l24-2.57178v5.97705l-24,2.57178V8.79736z"/>
</svg>
