<?xml version="1.0" encoding="utf-8"?>
<!-- Generator: Adobe Illustrator 19.1.0, SVG Export Plug-In . SVG Version: 6.00 Build 0)  -->
<!DOCTYPE svg PUBLIC "-//W3C//DTD SVG 1.1//EN" "http://www.w3.org/Graphics/SVG/1.1/DTD/svg11.dtd">
<svg version="1.1" id="Layer_1" xmlns="http://www.w3.org/2000/svg" xmlns:xlink="http://www.w3.org/1999/xlink" x="0px" y="0px"
	 width="48px" height="48px" viewBox="0 0 48 48" enable-background="new 0 0 48 48" xml:space="preserve">
<path fill="#EFD358" d="M17.99951,45c-0.16113,0-0.32373-0.03906-0.47314-0.11914c-0.40283-0.2168-0.60742-0.67969-0.49658-1.12354
	L20.71924,29H4c-0.39648,0-0.75586-0.23438-0.91553-0.59717C2.9248,28.03955,2.99512,27.6167,3.2627,27.32422l22-24
	c0.30957-0.3374,0.80762-0.42188,1.21094-0.20508c0.40283,0.2168,0.60742,0.67969,0.49658,1.12354L23.28076,19H40
	c0.39648,0,0.75586,0.23438,0.91553,0.59717c0.15967,0.36328,0.08936,0.78613-0.17822,1.07861l-22,24
	C18.54248,44.8877,18.27295,45,17.99951,45z"/>
<path fill="#666666" d="M44.91895,45.60596l-6-14C38.76172,31.23828,38.3999,31,38,31s-0.76172,0.23828-0.91895,0.60596l-6,14
	c-0.21777,0.50781,0.01758,1.0957,0.5249,1.31299c0.50781,0.21729,1.0957-0.01855,1.31299-0.5249L34.3736,43h7.25281
	l1.45465,3.39404c0.16211,0.37891,0.53125,0.60645,0.91943,0.60645c0.13135,0,0.26514-0.02637,0.39355-0.08154
	C44.90137,46.70166,45.13672,46.11377,44.91895,45.60596z M35.23071,41L38,34.53857L40.76929,41H35.23071z"/>
</svg>
