<?xml version="1.0" encoding="utf-8"?>
<!-- Generator: Adobe Illustrator 19.1.0, SVG Export Plug-In . SVG Version: 6.00 Build 0)  -->
<!DOCTYPE svg PUBLIC "-//W3C//DTD SVG 1.1//EN" "http://www.w3.org/Graphics/SVG/1.1/DTD/svg11.dtd">
<svg version="1.1" id="Layer_1" xmlns="http://www.w3.org/2000/svg" xmlns:xlink="http://www.w3.org/1999/xlink" x="0px" y="0px"
	 width="48px" height="48px" viewBox="0 0 48 48" enable-background="new 0 0 48 48" xml:space="preserve">
<path fill="#72C472" d="M19,44c-0.8877,0-1.6709-0.58545-1.91992-1.43994l-5.57227-19.104l-1.71875,3.43848
	C9.4502,27.57178,8.75781,28,8,28H3c-1.10449,0-2-0.89551-2-2s0.89551-2,2-2h3.76367l3.44727-6.89453
	c0.36816-0.73682,1.15332-1.17578,1.96875-1.09717c0.81934,0.07373,1.50977,0.64209,1.74023,1.43164l4.93164,16.90771
	l7.20801-28.83252C26.28223,4.62402,27.08301,4,28,4c0.00488,0,0.01074,0,0.01562,0c0.92383,0.00732,1.72266,0.646,1.93164,1.54541
	l5.74121,24.60498l2.52246-5.04492C38.5498,24.42822,39.24219,24,40,24h5c1.10449,0,2,0.89551,2,2s-0.89551,2-2,2h-3.76367
	l-4.44727,8.89453c-0.37793,0.75391-1.19434,1.1875-2.02246,1.0918c-0.83789-0.09863-1.52246-0.71143-1.71387-1.53174
	l-5.12012-21.94043l-6.99219,27.9707c-0.21875,0.87646-0.99805,1.49707-1.90137,1.51465C19.02539,44,19.0127,44,19,44z"/>
</svg>
