<?xml version="1.0" encoding="utf-8"?>
<!-- Generator: Adobe Illustrator 19.1.0, SVG Export Plug-In . SVG Version: 6.00 Build 0)  -->
<!DOCTYPE svg PUBLIC "-//W3C//DTD SVG 1.1//EN" "http://www.w3.org/Graphics/SVG/1.1/DTD/svg11.dtd">
<svg version="1.1" id="Layer_1" xmlns="http://www.w3.org/2000/svg" xmlns:xlink="http://www.w3.org/1999/xlink" x="0px" y="0px"
	 width="48px" height="48px" viewBox="0 0 48 48" enable-background="new 0 0 48 48" xml:space="preserve">
<path fill="#666666" d="M16.32617,44.81836c-1.61328,0-3.15527-0.93066-3.85449-2.49707L5.2373,26.11035l8.98926-0.53711
	l5.94141,13.31348c0.94727,2.12109-0.00879,4.61816-2.13086,5.56543C17.48145,44.7002,16.89941,44.81836,16.32617,44.81836z"/>
<rect x="41" y="19" fill="#444444" width="6" height="2"/>
<rect x="40.32064" y="6.99994" transform="matrix(0.49992 0.86607 -0.86607 0.49992 29.32444 -30.78598)" fill="#444444" width="2.00032" height="6.00012"/>
<rect x="38.32074" y="28.99984" transform="matrix(0.86603 0.49999 -0.49999 0.86603 20.53541 -16.64093)" fill="#444444" width="6.00012" height="2.00032"/>
<path fill="#666666" d="M33,17v6c1.65686,0,3-1.34314,3-3S34.65686,17,33,17z"/>
<path fill="#999999" d="M8,13c-3.85938,0-7,3.14062-7,7s3.14062,7,7,7h2V13H8z"/>
<path fill="#C6C6C6" d="M32.48438,3.125c-0.31641-0.1748-0.70605-0.16602-1.01465,0.02734L15.71289,13H10v14h5.71289
	l15.75684,9.84766C31.63184,36.94922,31.81543,37,32,37c0.16699,0,0.33398-0.04199,0.48438-0.125
	C32.80273,36.69824,33,36.36328,33,36V4C33,3.63672,32.80273,3.30176,32.48438,3.125z"/>
<rect x="9" y="13" fill="#444444" width="2" height="14"/>
</svg>
