<?xml version="1.0" encoding="utf-8"?>
<!-- Generator: Adobe Illustrator 19.1.0, SVG Export Plug-In . SVG Version: 6.00 Build 0)  -->
<!DOCTYPE svg PUBLIC "-//W3C//DTD SVG 1.1//EN" "http://www.w3.org/Graphics/SVG/1.1/DTD/svg11.dtd">
<svg version="1.1" id="Layer_1" xmlns="http://www.w3.org/2000/svg" xmlns:xlink="http://www.w3.org/1999/xlink" x="0px" y="0px"
	 width="48px" height="48px" viewBox="0 0 48 48" enable-background="new 0 0 48 48" xml:space="preserve">
<circle fill="#444444" cx="24" cy="24" r="23"/>
<path fill="#999999" d="M26.43542,3.1524L20.58252,14h21.88763C39.28326,8.1261,33.37268,3.9549,26.43542,3.1524z"/>
<path fill="#999999" d="M41.92029,34.9071C43.86139,31.72516,45,28,45,24c0-2.83405-0.56885-5.53333-1.58649-8H30.69141
	L41.92029,34.9071z"/>
<path fill="#999999" d="M34.15137,25.74316l-10.3891,19.24481C23.84229,44.98889,23.91974,45,24,45
	c6.80621,0,12.8382-3.2522,16.67548-8.27173L34.15137,25.74316z"/>
<path fill="#999999" d="M21.56525,44.84772L27.42139,34H5.52985C8.71686,39.87402,14.62775,44.04541,21.56525,44.84772z"/>
<path fill="#999999" d="M12.72607,24.34863L6.07733,13.09674C4.1377,16.27789,3,20.00159,3,24c0,2.83405,0.56885,5.53333,1.58655,8
	h12.66101L12.72607,24.34863z"/>
<path fill="#999999" d="M13.83496,22.29346l10.4035-19.28143C24.1582,3.01111,24.08051,3,24,3
	c-6.80707,0-12.8396,3.25305-16.67688,8.27362L13.83496,22.29346z"/>
</svg>
