<?xml version="1.0" encoding="utf-8"?>
<!-- Generator: Adobe Illustrator 19.1.0, SVG Export Plug-In . SVG Version: 6.00 Build 0)  -->
<!DOCTYPE svg PUBLIC "-//W3C//DTD SVG 1.1//EN" "http://www.w3.org/Graphics/SVG/1.1/DTD/svg11.dtd">
<svg version="1.1" id="Layer_1" xmlns="http://www.w3.org/2000/svg" xmlns:xlink="http://www.w3.org/1999/xlink" x="0px" y="0px"
	 width="48px" height="48px" viewBox="0 0 48 48" enable-background="new 0 0 48 48" xml:space="preserve">
<path fill="#87613E" d="M46,10H26c-0.55273,0-1,0.44727-1,1v28c0,0.55273,0.44727,1,1,1h8c0.55273,0,1-0.44727,1-1
	c0-6.06543,4.93457-11,11-11c0.55273,0,1-0.44727,1-1V11C47,10.44727,46.55273,10,46,10z M32,36c0,0.55225-0.44769,1-1,1h-1
	c-0.55231,0-1-0.44775-1-1v-1c0-0.55231,0.44769-1,1-1h1c0.55231,0,1,0.44769,1,1V36z M32,15c0,0.55225-0.44769,1-1,1h-1
	c-0.55231,0-1-0.44775-1-1v-1c0-0.55231,0.44769-1,1-1h1c0.55231,0,1,0.44769,1,1V15z M38,15c0,0.55225-0.44769,1-1,1h-1
	c-0.55231,0-1-0.44775-1-1v-1c0-0.55231,0.44769-1,1-1h1c0.55231,0,1,0.44769,1,1V15z M44,15c0,0.55225-0.44769,1-1,1h-1
	c-0.55231,0-1-0.44775-1-1v-1c0-0.55231,0.44769-1,1-1h1c0.55231,0,1,0.44769,1,1V15z"/>
<rect x="2" y="7" fill="#EFD358" width="24" height="36"/>
<path fill="#D6BA45" d="M8,34c-0.55273,0-1-0.44727-1-1V17c0-0.55273,0.44727-1,1-1s1,0.44727,1,1v16C9,33.55273,8.55273,34,8,34z"
	/>
<path fill="#444444" d="M18,1h-8C9.44771,1,9,1.44772,9,2v3c0,0.55228,0.44771,1,1,1h8c0.55228,0,1-0.44772,1-1V2
	C19,1.44772,18.55228,1,18,1z"/>
<path fill="#444444" d="M26,8H2C1.44772,8,1,7.55228,1,7V6c0-0.55228,0.44772-1,1-1h24c0.55228,0,1,0.44772,1,1v1
	C27,7.55228,26.55228,8,26,8z"/>
<path fill="#444444" d="M26,45H2c-0.55228,0-1-0.44772-1-1v-1c0-0.55228,0.44772-1,1-1h24c0.55228,0,1,0.44772,1,1v1
	C27,44.55228,26.55228,45,26,45z"/>
</svg>
