<?xml version="1.0" encoding="utf-8"?>
<!-- Generator: Adobe Illustrator 19.1.0, SVG Export Plug-In . SVG Version: 6.00 Build 0)  -->
<!DOCTYPE svg PUBLIC "-//W3C//DTD SVG 1.1//EN" "http://www.w3.org/Graphics/SVG/1.1/DTD/svg11.dtd">
<svg version="1.1" id="Layer_1" xmlns="http://www.w3.org/2000/svg" xmlns:xlink="http://www.w3.org/1999/xlink" x="0px" y="0px"
	 width="48px" height="48px" viewBox="0 0 48 48" enable-background="new 0 0 48 48" xml:space="preserve">
<path fill="#EFD358" d="M11.9995,45c-0.19775,0-0.39648-0.05811-0.56934-0.17822c-0.40869-0.2832-0.54688-0.82422-0.32471-1.26904
	L20.38182,25H9.99998c-0.33936,0-0.65527-0.17188-0.83984-0.45703c-0.18408-0.28516-0.21143-0.64404-0.07227-0.95312l9-20
	C18.2495,3.23096,18.60643,3,18.99998,3h13c0.34668,0,0.66846,0.17969,0.85059,0.47412
	c0.18213,0.29492,0.19873,0.66309,0.04395,0.97314L27.61815,15h10.38184c0.39795,0,0.75781,0.23584,0.9165,0.6001
	c0.15918,0.36475,0.08691,0.78906-0.18359,1.08057l-26,28C12.53709,44.89111,12.26952,45,11.9995,45z"/>
<path fill="#666666" d="M46.91895,45.60596l-6-14C40.76172,31.23828,40.3999,31,40,31s-0.76172,0.23828-0.91895,0.60596l-6,14
	c-0.21777,0.50781,0.01758,1.0957,0.5249,1.31299c0.50781,0.21729,1.0957-0.01855,1.31299-0.5249L36.3736,43h7.25281
	l1.45465,3.39404c0.16211,0.37891,0.53125,0.60645,0.91943,0.60645c0.13135,0,0.26514-0.02637,0.39355-0.08154
	C46.90137,46.70166,47.13672,46.11377,46.91895,45.60596z M37.23071,41L40,34.53857L42.76929,41H37.23071z"/>
</svg>
