<?xml version="1.0" encoding="utf-8"?>
<!-- Generator: Adobe Illustrator 19.1.0, SVG Export Plug-In . SVG Version: 6.00 Build 0)  -->
<!DOCTYPE svg PUBLIC "-//W3C//DTD SVG 1.1//EN" "http://www.w3.org/Graphics/SVG/1.1/DTD/svg11.dtd">
<svg version="1.1" id="Layer_1" xmlns="http://www.w3.org/2000/svg" xmlns:xlink="http://www.w3.org/1999/xlink" x="0px" y="0px"
	 width="48px" height="48px" viewBox="0 0 48 48" enable-background="new 0 0 48 48" xml:space="preserve">
<path fill="#444444" d="M46,41c-0.22266,0-0.44434-0.07422-0.625-0.21875l-20-16C25.1377,24.59082,25,24.30371,25,24
	s0.1377-0.59082,0.375-0.78125l20-16c0.2998-0.24121,0.71094-0.28711,1.05859-0.12012C46.7793,7.26562,47,7.61523,47,8v32
	c0,0.38477-0.2207,0.73438-0.56641,0.90137C46.2959,40.96777,46.14746,41,46,41z"/>
<path fill="#444444" d="M24,41c-0.22266,0-0.44434-0.07422-0.625-0.21875l-20-16C3.1377,24.59082,3,24.30371,3,24
	s0.1377-0.59082,0.375-0.78125l20-16c0.2998-0.24121,0.71094-0.28711,1.05859-0.12012C24.7793,7.26562,25,7.61523,25,8v32
	c0,0.38477-0.2207,0.73438-0.56641,0.90137C24.2959,40.96777,24.14746,41,24,41z"/>
</svg>
