<?xml version="1.0" encoding="utf-8"?>
<!-- Generator: Adobe Illustrator 19.1.0, SVG Export Plug-In . SVG Version: 6.00 Build 0)  -->
<!DOCTYPE svg PUBLIC "-//W3C//DTD SVG 1.1//EN" "http://www.w3.org/Graphics/SVG/1.1/DTD/svg11.dtd">
<svg version="1.1" id="Layer_1" xmlns="http://www.w3.org/2000/svg" xmlns:xlink="http://www.w3.org/1999/xlink" x="0px" y="0px"
	 width="48px" height="48px" viewBox="0 0 48 48" enable-background="new 0 0 48 48" xml:space="preserve">
<path fill="#444444" d="M22.99963,16.7556C22.35964,16.43817,22,15.736,22,15.02162V2.97838
	c0-0.71439,0.35964-1.41655,0.99963-1.73398C24.50749,0.49652,26,1.57411,26,3v12C26,16.42589,24.50749,17.50348,22.99963,16.7556z"
	/>
<path fill="#444444" d="M24,47C12.4209,47,3,37.5791,3,26c0-7.80859,4.2998-14.92676,11.2207-18.57617
	c0.97656-0.5166,2.1875-0.1416,2.70117,0.83594c0.51562,0.97656,0.1416,2.18652-0.83594,2.70117C10.48145,13.91797,7,19.67969,7,26
	c0,9.37402,7.62598,17,17,17s17-7.62598,17-17c0-6.32031-3.48145-12.08203-9.08594-15.03906
	c-0.97754-0.51465-1.35157-1.72461-0.83594-2.70117c0.51367-0.97754,1.72461-1.35254,2.70117-0.83594
	C40.7002,11.07324,45,18.19141,45,26C45,37.5791,35.5791,47,24,47z"/>
</svg>
