<?xml version="1.0" encoding="utf-8"?>
<!-- Generator: Adobe Illustrator 19.1.0, SVG Export Plug-In . SVG Version: 6.00 Build 0)  -->
<!DOCTYPE svg PUBLIC "-//W3C//DTD SVG 1.1//EN" "http://www.w3.org/Graphics/SVG/1.1/DTD/svg11.dtd">
<svg version="1.1" id="Layer_1" xmlns="http://www.w3.org/2000/svg" xmlns:xlink="http://www.w3.org/1999/xlink" x="0px" y="0px"
	 width="48px" height="48px" viewBox="0 0 48 48" enable-background="new 0 0 48 48" xml:space="preserve">
<path fill="#444444" d="M41,43c-0.2124,0-0.42334-0.06738-0.6001-0.2002l-24-18C16.14795,24.61133,16,24.31445,16,24
	s0.14795-0.61133,0.3999-0.7998l24-18c0.30322-0.22852,0.70752-0.26367,1.04736-0.09473C41.78613,5.27539,42,5.62109,42,6v36
	c0,0.37891-0.21387,0.72461-0.55273,0.89453C41.30566,42.96484,41.15234,43,41,43z"/>
<path fill="#444444" d="M8,43c-0.55225,0-1-0.44727-1-1V6c0-0.55273,0.44775-1,1-1s1,0.44727,1,1v36C9,42.55273,8.55225,43,8,43z"/>
<path fill="#444444" d="M8,43L8,43c-1.10457,0-2-0.89543-2-2V7c0-1.10457,0.89543-2,2-2h0c1.10457,0,2,0.89543,2,2V41
	C10,42.10457,9.10457,43,8,43z"/>
</svg>
