<?xml version="1.0" encoding="utf-8"?>
<!-- Generator: Adobe Illustrator 19.1.0, SVG Export Plug-In . SVG Version: 6.00 Build 0)  -->
<!DOCTYPE svg PUBLIC "-//W3C//DTD SVG 1.1//EN" "http://www.w3.org/Graphics/SVG/1.1/DTD/svg11.dtd">
<svg version="1.1" id="Layer_1" xmlns="http://www.w3.org/2000/svg" xmlns:xlink="http://www.w3.org/1999/xlink" x="0px" y="0px"
	 width="48px" height="48px" viewBox="0 0 48 48" enable-background="new 0 0 48 48" xml:space="preserve">
<path fill="#E6E6E6" d="M24,41c-7.16797,0-13-5.83154-13-13s5.83203-13,13-13s13,5.83154,13,13S31.16797,41,24,41z"/>
<path fill="#999999" d="M24,29c-0.55273,0-1-0.44775-1-1v-8c0-0.55225,0.44727-1,1-1s1,0.44775,1,1v8C25,28.55225,24.55273,29,24,29
	z"/>
<path fill="#43A6DD" d="M6,29H2c-0.55273,0-1-0.44775-1-1s0.44727-1,1-1h4c0.55273,0,1,0.44775,1,1S6.55273,29,6,29z"/>
<path fill="#43A6DD" d="M10.56497,15.97919l-2.82843-2.82843c-0.39084-0.39084-0.3905-1.02372,0-1.41421
	c0.3905-0.3905,1.02337-0.39084,1.41421,0l2.82843,2.82843c0.39084,0.39084,0.3905,1.02372,0,1.41421
	C11.58869,16.36968,10.95581,16.37003,10.56497,15.97919z"/>
<path fill="#43A6DD" d="M23,10V6c0-0.55273,0.44775-1,1-1s1,0.44727,1,1v4c0,0.55273-0.44775,1-1,1S23,10.55273,23,10z"/>
<path fill="#43A6DD" d="M36.02082,14.56497l2.82843-2.82843c0.39084-0.39084,1.02372-0.3905,1.41421,0
	c0.3905,0.3905,0.39084,1.02337,0,1.41421l-2.82843,2.82843c-0.39084,0.39084-1.02372,0.3905-1.41421,0
	C35.63032,15.58869,35.62997,14.95581,36.02082,14.56497z"/>
<path fill="#43A6DD" d="M42,27h4c0.55273,0,1,0.44775,1,1s-0.44727,1-1,1h-4c-0.55273,0-1-0.44775-1-1S41.44727,27,42,27z"/>
</svg>
