<?xml version="1.0" encoding="utf-8"?>
<!-- Generator: Adobe Illustrator 19.1.0, SVG Export Plug-In . SVG Version: 6.00 Build 0)  -->
<!DOCTYPE svg PUBLIC "-//W3C//DTD SVG 1.1//EN" "http://www.w3.org/Graphics/SVG/1.1/DTD/svg11.dtd">
<svg version="1.1" id="Layer_1" xmlns="http://www.w3.org/2000/svg" xmlns:xlink="http://www.w3.org/1999/xlink" x="0px" y="0px"
	 width="48px" height="48px" viewBox="0 0 48 48" enable-background="new 0 0 48 48" xml:space="preserve">
<path fill="#666666" d="M43,20h-2v-4c0-7.16846-5.83154-13-13-13h-8C12.83154,3,7,8.83154,7,16v4H5v-4C5,7.729,11.729,1,20,1h8
	c8.271,0,15,6.729,15,15V20z"/>
<path fill="#999999" d="M11,17.05865C10.67133,17.02228,10.33838,17,10,17c-4.97058,0-9,4.02942-9,9s4.02942,9,9,9
	c0.33838,0,0.67133-0.02228,1-0.05865V17.05865z"/>
<path fill="#444444" d="M11.5,36L11.5,36C10.11929,36,9,34.88071,9,33.5V18.5c0-1.38071,1.11929-2.5,2.5-2.5H11.5
	c1.38071,0,2.5,1.11929,2.5,2.5V33.5C14,34.88071,12.88071,36,11.5,36z"/>
<path fill="#999999" d="M38,17c-0.33838,0-0.67133,0.02228-1,0.05865v17.88269C37.32867,34.97772,37.66162,35,38,35
	c4.97058,0,9-4.02942,9-9S42.97058,17,38,17z"/>
<path fill="#444444" d="M36.5,36L36.5,36c-1.38072,0-2.5-1.11929-2.5-2.5V18.5c0-1.38071,1.11929-2.5,2.5-2.5H36.5
	c1.38071,0,2.5,1.11929,2.5,2.5V33.5C39,34.88071,37.88071,36,36.5,36z"/>
<path fill="#666666" d="M5,36v-9c0-0.55228-0.44771-1-1-1h0c-0.55228,0-1,0.44771-1,1v9c0,4.9624,4.0376,9,9,9v-2
	C8.14014,43,5,39.85986,5,36z"/>
<path fill="#444444" d="M18,47H14c-1.65685,0-3-1.34314-3-3V44c0-1.65685,1.34314-3,3-3H18c1.65685,0,3,1.34314,3,3V44
	C21,45.65686,19.65686,47,18,47z"/>
</svg>
