<?xml version="1.0" encoding="utf-8"?>
<!-- Generator: Adobe Illustrator 19.1.0, SVG Export Plug-In . SVG Version: 6.00 Build 0)  -->
<!DOCTYPE svg PUBLIC "-//W3C//DTD SVG 1.1//EN" "http://www.w3.org/Graphics/SVG/1.1/DTD/svg11.dtd">
<svg version="1.1" id="Layer_1" xmlns="http://www.w3.org/2000/svg" xmlns:xlink="http://www.w3.org/1999/xlink" x="0px" y="0px"
	 width="48px" height="48px" viewBox="0 0 48 48" enable-background="new 0 0 48 48" xml:space="preserve">
<path fill="#EEBC99" d="M40,27c0-1.03125-0.96171-2-2.14815-2c-0.99063,0-1.81618,0.62776-2.06424,1.47687
	C35.74982,25.10384,34.54846,24,33.06454,24h-0.09198c-1.17686,0-2.17089,0.69696-2.5546,1.66876
	c0,0-0.10547-2.66876-2.72714-2.66876h-0.08529C26.32221,23,25.20245,23.69879,25,25V11.5C25,9.567,23.433,8,21.5,8H21.5
	C19.567,8,18,9.567,18,11.5V28h-4.85185C11.96176,28,11,28.89543,11,30v8c0,3.5,5.37037,6.0625,5.37037,10h20.40741
	C36.77778,48,40,34.25,40,27z"/>
<path fill="#CE9C7A" d="M17,34L17,34c-0.55229,0-1-0.44772-1-1v-5h2v5C18,33.55228,17.55229,34,17,34z"/>
<path fill="#42A6DD" d="M11,7L11,7c-0.55229,0-1-0.44771-1-1V1c0-0.55228,0.44771-1,1-1h5c0.55228,0,1,0.44771,1,1v0
	c0,0.55228-0.44771,1-1,1h-4v4C12,6.55229,11.55229,7,11,7z"/>
<path fill="#42A6DD" d="M15,20h-4c-0.55229,0-1-0.44772-1-1v-5c0-0.55228,0.44771-1,1-1h0c0.55228,0,1,0.44771,1,1v4h3
	c0.55228,0,1,0.44771,1,1v0C16,19.55229,15.55229,20,15,20z"/>
<path fill="#42A6DD" d="M32,20h-4c-0.55228,0-1-0.44771-1-1v0c0-0.55228,0.44771-1,1-1h3v-4c0-0.55228,0.44771-1,1-1h0
	c0.55228,0,1,0.44771,1,1v5C33,19.55228,32.55228,20,32,20z"/>
<path fill="#42A6DD" d="M32,7L32,7c-0.55229,0-1-0.44771-1-1V2h-4c-0.55228,0-1-0.44771-1-1v0c0-0.55228,0.44771-1,1-1h5
	c0.55228,0,1,0.44772,1,1v5C33,6.55229,32.55228,7,32,7z"/>
</svg>
