<?xml version="1.0" encoding="utf-8"?>
<!-- Generator: Adobe Illustrator 19.1.0, SVG Export Plug-In . SVG Version: 6.00 Build 0)  -->
<!DOCTYPE svg PUBLIC "-//W3C//DTD SVG 1.1//EN" "http://www.w3.org/Graphics/SVG/1.1/DTD/svg11.dtd">
<svg version="1.1" id="Layer_1" xmlns="http://www.w3.org/2000/svg" xmlns:xlink="http://www.w3.org/1999/xlink" x="0px" y="0px"
	 width="48px" height="48px" viewBox="0 0 48 48" enable-background="new 0 0 48 48" xml:space="preserve">
<path fill="#FFFFFF" d="M40,35h-3v-3c0-0.55225-0.44727-1-1-1s-1,0.44775-1,1v3h-3c-0.55273,0-1,0.44775-1,1s0.44727,1,1,1h3v3
	c0,0.55225,0.44727,1,1,1s1-0.44775,1-1v-3h3c0.55273,0,1-0.44775,1-1S40.55273,35,40,35z"/>
<path fill="#42A6DD" d="M43,38l-5,5H3c-1.10457,0-2-0.89543-2-2V3c0-1.10457,0.89543-2,2-2h38c1.10457,0,2,0.89543,2,2V38z"/>
<circle fill="#EFD358" cx="19" cy="13" r="4"/>
<path fill="#BADEFC" d="M41.79242,33.39014l-10-13c-0.37793-0.49219-1.20703-0.49219-1.58496,0l-8.24268,10.71545l-6.18408-7.7301
	c-0.37891-0.47461-1.18262-0.47461-1.56152,0l-8,10C5.6967,34.02752,6.16097,35,6.99994,35h34
	C41.82896,35,42.29778,34.04732,41.79242,33.39014z"/>
<circle fill="#72C472" cx="39" cy="39" r="8"/>
<path fill="#FFFFFF" d="M42,38h-2v-2c0-0.55231-0.44769-1-1-1s-1,0.44769-1,1v2h-2c-0.55231,0-1,0.44769-1,1
	c0,0.55225,0.44769,1,1,1h2v2c0,0.55225,0.44769,1,1,1s1-0.44775,1-1v-2h2c0.55231,0,1-0.44775,1-1C43,38.44769,42.55231,38,42,38z"
	/>
</svg>
