<?xml version="1.0" encoding="utf-8"?>
<!-- Generator: Adobe Illustrator 19.1.0, SVG Export Plug-In . SVG Version: 6.00 Build 0)  -->
<!DOCTYPE svg PUBLIC "-//W3C//DTD SVG 1.1//EN" "http://www.w3.org/Graphics/SVG/1.1/DTD/svg11.dtd">
<svg version="1.1" id="Layer_1" xmlns="http://www.w3.org/2000/svg" xmlns:xlink="http://www.w3.org/1999/xlink" x="0px" y="0px"
	 width="48px" height="48px" viewBox="0 0 48 48" enable-background="new 0 0 48 48" xml:space="preserve">
<path fill="#C6C6C6" d="M24,47C11.31787,47,1,36.68213,1,24c0-0.55225,0.44775-1,1-1s1,0.44775,1,1c0,11.57959,9.42041,21,21,21
	s21-9.42041,21-21c0-11.24463-8.88281-20.45312-20-20.97656V8c0,0.55225-0.44775,1-1,1s-1-0.44775-1-1V2c0-0.55225,0.44775-1,1-1
	c12.68213,0,23,10.31787,23,23S36.68213,47,24,47z"/>
<path fill="#42A6DD" d="M24,28.99756c-1.28076,0-2.56104-0.4873-3.53564-1.46191c-1.604-1.60449-9.19141-14.30859-10.05127-15.75195
	c-0.23438-0.39307-0.17188-0.89502,0.15186-1.21875c0.32324-0.32373,0.82422-0.38623,1.21875-0.15186
	c1.44336,0.85986,14.14746,8.44727,15.75195,10.05127l0,0c1.94922,1.94971,1.94922,5.12158,0,7.07129
	C26.56104,28.51025,25.28027,28.99756,24,28.99756z"/>
</svg>
