<?xml version="1.0" encoding="utf-8"?>
<!-- Generator: Adobe Illustrator 18.1.1, SVG Export Plug-In . SVG Version: 6.00 Build 0)  -->
<!DOCTYPE svg PUBLIC "-//W3C//DTD SVG 1.1//EN" "http://www.w3.org/Graphics/SVG/1.1/DTD/svg11.dtd">
<svg version="1.1" id="Layer_1" xmlns="http://www.w3.org/2000/svg" xmlns:xlink="http://www.w3.org/1999/xlink" x="0px" y="0px"
	 width="32px" height="32px" viewBox="0 0 32 32" enable-background="new 0 0 32 32" xml:space="preserve">
<path d="M31,1H1C0.4,1,0,1.4,0,2v6c0,0.6,0.4,1,1,1h2v21c0,0.6,0.4,1,1,1h24c0.6,0,1-0.4,1-1V9h2c0.6,0,1-0.4,1-1V2
	C32,1.4,31.6,1,31,1z M27,29H5V9h22V29z M30,7h-3V6c0-0.6-0.4-1-1-1s-1,0.4-1,1v1h-3V6c0-0.6-0.4-1-1-1s-1,0.4-1,1v1h-3V6
	c0-0.6-0.4-1-1-1s-1,0.4-1,1v1h-3V6c0-0.6-0.4-1-1-1s-1,0.4-1,1v1H7V6c0-0.6-0.4-1-1-1S5,5.4,5,6v1H2V3h28V7z"/>
<path d="M23,14H9c-0.6,0-1,0.4-1,1v9c0,0.6,0.4,1,1,1h14c0.6,0,1-0.4,1-1v-9C24,14.4,23.6,14,23,14z M22,23H10v-7h12V23z"/>
</svg>
