<?xml version="1.0" encoding="utf-8"?>
<!-- Generator: Adobe Illustrator 18.1.1, SVG Export Plug-In . SVG Version: 6.00 Build 0)  -->
<!DOCTYPE svg PUBLIC "-//W3C//DTD SVG 1.1//EN" "http://www.w3.org/Graphics/SVG/1.1/DTD/svg11.dtd">
<svg version="1.1" id="Layer_1" xmlns="http://www.w3.org/2000/svg" xmlns:xlink="http://www.w3.org/1999/xlink" x="0px" y="0px"
	 width="32px" height="32px" viewBox="0 0 32 32" enable-background="new 0 0 32 32" xml:space="preserve">
<path d="M25.5,8c-0.1,0-0.3,0-0.4,0c-0.5-4.5-4.4-8-9.1-8c-3.1,0-6,1.5-7.6,4C8.2,4,8,4,7.8,4C3.5,4,0,7.4,0,11.7
	c0,3.5,2.4,6.5,5.9,7.4c1.2,4,5.1,6.9,9.5,6.9c3.8,0,7.3-2.2,8.9-5.5c0.5,0.1,0.9,0.1,1.3,0.1c3.6,0,6.5-2.8,6.5-6.3S29.1,8,25.5,8z
	 M24,18.4c-0.5-0.2-1.1,0.1-1.3,0.6c-1.1,3-4.1,5-7.4,5c-3.7,0-6.9-2.5-7.7-6c-0.1-0.4-0.4-0.7-0.8-0.8C4,16.8,2,14.4,2,11.7
	C2,8.5,4.6,6,7.8,6c0.3,0,0.6,0,0.9,0.1c0.4,0.1,0.8-0.1,1-0.5C11,3.4,13.4,2,16,2c4,0,7.2,3.1,7.2,7c0,0,0,0.1,0,0.1
	c0,0.3,0.1,0.6,0.4,0.8c0.2,0.2,0.6,0.3,0.9,0.2c0.4-0.1,0.8-0.2,1.1-0.2c2.5,0,4.5,1.9,4.5,4.3C30,17.2,27.1,19.5,24,18.4z"/>
<path d="M4,24c-2.2,0-4,1.8-4,4s1.8,4,4,4s4-1.8,4-4S6.2,24,4,24z M4,30c-1.1,0-2-0.9-2-2s0.9-2,2-2s2,0.9,2,2S5.1,30,4,30z"/>
<path d="M19,16h-4.3l3.1-5.5c0.2-0.3,0.2-0.7,0-1C17.7,9.2,17.4,9,17,9h-4c-0.6,0-1,0.4-1,1s0.4,1,1,1h2.3l-3.1,5.5
	c-0.2,0.3-0.2,0.7,0,1c0.2,0.3,0.5,0.5,0.9,0.5h6c0.6,0,1-0.4,1-1S19.6,16,19,16z"/>
</svg>
