<?xml version="1.0" encoding="utf-8"?>
<!-- Generator: Adobe Illustrator 18.1.1, SVG Export Plug-In . SVG Version: 6.00 Build 0)  -->
<!DOCTYPE svg PUBLIC "-//W3C//DTD SVG 1.1//EN" "http://www.w3.org/Graphics/SVG/1.1/DTD/svg11.dtd">
<svg version="1.1" id="Layer_1" xmlns="http://www.w3.org/2000/svg" xmlns:xlink="http://www.w3.org/1999/xlink" x="0px" y="0px"
	 width="32px" height="32px" viewBox="0 0 32 32" enable-background="new 0 0 32 32" xml:space="preserve">
<path d="M27,7.4c-2.7-2.1-5.8-2.8-9.3-2c0.5-1.6,1.4-2.6,2.8-3.5c0.5-0.3,0.6-0.9,0.3-1.4c-0.3-0.5-0.9-0.6-1.4-0.3
	c-2.2,1.4-3.4,3.1-3.9,5.5C11.6,4.4,8.1,5,5,7.4c-1.8,1.4-3.9,4.5-4,8.9c-0.1,3.5,1.2,8.9,7.9,14.5c1,0.8,2.2,1.3,3.5,1.3
	c1.5,0,2.9-0.5,3.6-0.9c0.7,0.3,2.1,0.9,3.6,0.9c0,0,0,0,0,0c1.4,0,2.5-0.4,3.5-1.3c6.6-5.6,8-11,7.9-14.5
	C30.9,11.9,28.8,8.7,27,7.4z M21.8,29.2c-0.6,0.5-1.4,0.8-2.2,0.8c0,0,0,0,0,0c-1.6,0-3.1-0.9-3.1-0.9C16.4,29,16.2,29,16,29
	c-0.2,0-0.4,0-0.5,0.1c0,0-1.5,0.9-3.1,0.9c-0.9,0-1.6-0.3-2.2-0.8c-6-5.1-7.2-9.9-7.2-12.9c0.1-3.4,1.7-6.1,3.2-7.3
	c2.6-2,5.5-2.4,8.9-1.3c-0.1,1-0.2,2-0.2,3.2c-1.1-0.2-1.9-0.7-2.5-1.2c-0.4-0.3-1.1-0.2-1.4,0.2c-0.3,0.4-0.2,1.1,0.2,1.4
	c1.4,1.1,3.1,1.7,4.7,1.7c1.6,0,3.3-0.6,4.7-1.7c0.4-0.3,0.5-1,0.2-1.4c-0.3-0.4-1-0.5-1.4-0.2c-0.6,0.4-1.4,0.9-2.5,1.1
	c0-1.3,0.1-2.4,0.2-3.4c3.2-1,6-0.5,8.5,1.4c1.6,1.2,3.2,3.9,3.2,7.3C29.1,19.3,27.9,24.1,21.8,29.2z"/>
</svg>
