<?xml version="1.0" encoding="utf-8"?>
<!-- Generator: Adobe Illustrator 18.1.1, SVG Export Plug-In . SVG Version: 6.00 Build 0)  -->
<!DOCTYPE svg PUBLIC "-//W3C//DTD SVG 1.1//EN" "http://www.w3.org/Graphics/SVG/1.1/DTD/svg11.dtd">
<svg version="1.1" id="Layer_1" xmlns="http://www.w3.org/2000/svg" xmlns:xlink="http://www.w3.org/1999/xlink" x="0px" y="0px"
	 width="32px" height="32px" viewBox="0 0 32 32" enable-background="new 0 0 32 32" xml:space="preserve">
<path d="M16,0C7.2,0,0,7.2,0,16s7.2,16,16,16s16-7.2,16-16S24.8,0,16,0z M16,30C8.3,30,2,23.7,2,16S8.3,2,16,2s14,6.3,14,14
	S23.7,30,16,30z"/>
<path d="M24,12h-4V8c0-0.6-0.4-1-1-1h-6c-0.6,0-1,0.4-1,1v4H8c-0.6,0-1,0.4-1,1v6c0,0.6,0.4,1,1,1h4v4c0,0.6,0.4,1,1,1h6
	c0.6,0,1-0.4,1-1v-4h4c0.6,0,1-0.4,1-1v-6C25,12.4,24.6,12,24,12z M23,18h-4c-0.6,0-1,0.4-1,1v4h-4v-4c0-0.6-0.4-1-1-1H9v-4h4
	c0.6,0,1-0.4,1-1V9h4v4c0,0.6,0.4,1,1,1h4V18z"/>
</svg>
