<?xml version="1.0" encoding="utf-8"?>
<!-- Generator: Adobe Illustrator 18.1.1, SVG Export Plug-In . SVG Version: 6.00 Build 0)  -->
<!DOCTYPE svg PUBLIC "-//W3C//DTD SVG 1.1//EN" "http://www.w3.org/Graphics/SVG/1.1/DTD/svg11.dtd">
<svg version="1.1" id="Layer_1" xmlns="http://www.w3.org/2000/svg" xmlns:xlink="http://www.w3.org/1999/xlink" x="0px" y="0px"
	 width="32px" height="32px" viewBox="0 0 32 32" enable-background="new 0 0 32 32" xml:space="preserve">
<path d="M25,5h-0.4C24.9,4.5,25,4,25,3.5C25,1.6,23.4,0,21.5,0h-13C4.9,0,2,2.9,2,6.5c0,2,0.9,3.7,2.3,4.9C1.8,12.3,0,14.7,0,17.5
	C0,21.1,2.9,24,6.5,24H12v7c0,0.6,0.4,1,1,1s1-0.4,1-1v-8c0-0.6-0.4-1-1-1H6.5C4,22,2,20,2,17.5S4,13,6.5,13h2H9h14c0.6,0,1-0.4,1-1
	s-0.4-1-1-1H9H8.5C6,11,4,9,4,6.5S6,2,8.5,2h13C22.3,2,23,2.7,23,3.5S22.3,5,21.5,5H21H9C8.4,5,8,5.4,8,6s0.4,1,1,1h12h0.5H25
	c2.8,0,5,2.2,5,5s-2.2,5-5,5h-9h-2H9c-0.6,0-1,0.4-1,1s0.4,1,1,1h5h2c1.1,0,2,0.9,2,2v10c0,0.6,0.4,1,1,1s1-0.4,1-1V21
	c0-0.7-0.2-1.4-0.6-2H25c3.9,0,7-3.1,7-7S28.9,5,25,5z"/>
</svg>
