<?xml version="1.0" encoding="utf-8"?>
<!-- Generator: Adobe Illustrator 18.1.1, SVG Export Plug-In . SVG Version: 6.00 Build 0)  -->
<!DOCTYPE svg PUBLIC "-//W3C//DTD SVG 1.1//EN" "http://www.w3.org/Graphics/SVG/1.1/DTD/svg11.dtd">
<svg version="1.1" id="Layer_1" xmlns="http://www.w3.org/2000/svg" xmlns:xlink="http://www.w3.org/1999/xlink" x="0px" y="0px"
	 width="32px" height="32px" viewBox="0 0 32 32" enable-background="new 0 0 32 32" xml:space="preserve">
<path d="M3.4,17.2C3.1,17.4,3,17.7,3,18v13c0,0.6,0.4,1,1,1h24c0.6,0,1-0.4,1-1V18c0-0.3-0.1-0.6-0.4-0.8L21,11.5V6h2
	c0.6,0,1-0.4,1-1V1c0-0.6-0.4-1-1-1H9C8.4,0,8,0.4,8,1v4c0,0.6,0.4,1,1,1h2v5.5L3.4,17.2z M10,2h12v2H10V2z M19,6v6
	c0,0.3,0.1,0.6,0.4,0.8l7.6,5.7V30H5V18.5l7.6-5.7c0.3-0.2,0.4-0.5,0.4-0.8V6H19z"/>
<path d="M13,19h-2c-0.6,0-1,0.4-1,1v4c0,0.6,0.4,1,1,1h2v2c0,0.6,0.4,1,1,1h4c0.6,0,1-0.4,1-1v-2h2c0.6,0,1-0.4,1-1v-4
	c0-0.6-0.4-1-1-1h-2v-2c0-0.6-0.4-1-1-1h-4c-0.6,0-1,0.4-1,1V19z M14,21c0.6,0,1-0.4,1-1v-2h2v2c0,0.6,0.4,1,1,1h2v2h-2
	c-0.6,0-1,0.4-1,1v2h-2v-2c0-0.6-0.4-1-1-1h-2v-2H14z"/>
</svg>
