<?xml version="1.0" encoding="utf-8"?>
<!-- Generator: Adobe Illustrator 18.1.1, SVG Export Plug-In . SVG Version: 6.00 Build 0)  -->
<!DOCTYPE svg PUBLIC "-//W3C//DTD SVG 1.1//EN" "http://www.w3.org/Graphics/SVG/1.1/DTD/svg11.dtd">
<svg version="1.1" id="Layer_1" xmlns="http://www.w3.org/2000/svg" xmlns:xlink="http://www.w3.org/1999/xlink" x="0px" y="0px"
	 width="32px" height="32px" viewBox="0 0 32 32" enable-background="new 0 0 32 32" xml:space="preserve">
<path d="M29,9h-6V3c0-1.7-1.3-3-3-3h-8c-1.7,0-3,1.3-3,3v6H3c-1.7,0-3,1.3-3,3v8c0,1.7,1.3,3,3,3h6v6c0,1.7,1.3,3,3,3h8
	c1.7,0,3-1.3,3-3v-6h6c1.7,0,3-1.3,3-3v-8C32,10.3,30.7,9,29,9z M11,3c0-0.6,0.4-1,1-1h8c0.6,0,1,0.4,1,1v6H11V3z M21,11v10H11V11
	H21z M3,21c-0.6,0-1-0.4-1-1v-8c0-0.6,0.4-1,1-1h6v10H3z M21,29c0,0.6-0.4,1-1,1h-8c-0.6,0-1-0.4-1-1v-6h10V29z M30,20
	c0,0.6-0.4,1-1,1h-6V11h6c0.6,0,1,0.4,1,1V20z"/>
</svg>
