<?xml version="1.0" encoding="utf-8"?>
<!-- Generator: Adobe Illustrator 18.1.1, SVG Export Plug-In . SVG Version: 6.00 Build 0)  -->
<!DOCTYPE svg PUBLIC "-//W3C//DTD SVG 1.1//EN" "http://www.w3.org/Graphics/SVG/1.1/DTD/svg11.dtd">
<svg version="1.1" id="Layer_1" xmlns="http://www.w3.org/2000/svg" xmlns:xlink="http://www.w3.org/1999/xlink" x="0px" y="0px"
	 width="32px" height="32px" viewBox="0 0 32 32" enable-background="new 0 0 32 32" xml:space="preserve">
<path d="M16.9,1.5c-0.4-0.6-1.4-0.6-1.7,0c-0.1,0.2-2.9,4.9-2.9,10.9c0,5.9,2.8,10.7,2.9,10.9c0.2,0.3,0.5,0.5,0.9,0.5
	s0.7-0.2,0.9-0.5c0.1-0.2,2.9-4.9,2.9-10.9C19.8,6.4,17,1.7,16.9,1.5z M16,20.4c-0.8-1.8-1.8-4.8-1.8-8.1c0-3.3,1-6.3,1.8-8.1
	c0.8,1.8,1.8,4.7,1.8,8.1C17.8,15.7,16.8,18.6,16,20.4z"/>
<path d="M18.3,24.8c0.2,0.2,0.4,0.3,0.7,0.3c0.1,0,0.1,0,0.2,0c0.2,0,4-0.8,6.8-3.6s3.6-6.6,3.6-6.8c0.1-0.3,0-0.7-0.3-0.9
	c-0.2-0.2-0.6-0.3-0.9-0.3c-0.2,0-4,0.8-6.8,3.6C18.8,20,18,23.7,18,23.9C18,24.2,18.1,24.6,18.3,24.8z M23,18.5
	c1.3-1.3,2.9-2.1,4.1-2.5c-0.5,1.2-1.2,2.8-2.5,4.1c-1.3,1.3-2.9,2.1-4.1,2.5C20.9,21.4,21.7,19.8,23,18.5z"/>
<path d="M24.2,25c-3.2,0-5.8,2.1-5.9,2.2C18.1,27.4,18,27.7,18,28s0.1,0.6,0.4,0.8c0.1,0.1,2.7,2.2,5.9,2.2s5.8-2.1,5.9-2.2
	c0.2-0.2,0.4-0.5,0.4-0.8s-0.1-0.6-0.4-0.8C30,27.1,27.5,25,24.2,25z M24.2,29c-1.4,0-2.6-0.5-3.5-1c0.9-0.5,2.1-1,3.5-1
	s2.6,0.5,3.5,1C26.8,28.5,25.6,29,24.2,29z"/>
<path d="M12.8,25c0.1,0,0.1,0,0.2,0c0.3,0,0.5-0.1,0.7-0.3c0.2-0.2,0.3-0.6,0.3-0.9c0-0.2-0.8-4-3.6-6.8c-2.8-2.8-6.6-3.6-6.8-3.6
	c-0.3-0.1-0.7,0-0.9,0.3c-0.2,0.2-0.3,0.6-0.3,0.9c0,0.2,0.8,4,3.6,6.8C8.9,24.2,12.7,25,12.8,25z M9,18.4c1.3,1.3,2.1,2.9,2.5,4.1
	C10.3,22,8.7,21.3,7.4,20c-1.3-1.3-2.1-2.9-2.5-4.1C6.1,16.3,7.7,17.1,9,18.4z"/>
<path d="M7.8,25c-3.2,0-5.8,2.1-5.9,2.2c-0.2,0.2-0.4,0.5-0.4,0.8s0.1,0.6,0.4,0.8C2,28.9,4.5,31,7.8,31s5.8-2.1,5.9-2.2
	c0.2-0.2,0.4-0.5,0.4-0.8s-0.1-0.6-0.4-0.8C13.5,27.1,11,25,7.8,25z M7.8,29c-1.4,0-2.6-0.5-3.5-1c0.9-0.5,2.1-1,3.5-1
	s2.6,0.5,3.5,1C10.4,28.5,9.1,29,7.8,29z"/>
</svg>
