<?xml version="1.0" encoding="utf-8"?>
<!-- Generator: Adobe Illustrator 18.1.1, SVG Export Plug-In . SVG Version: 6.00 Build 0)  -->
<!DOCTYPE svg PUBLIC "-//W3C//DTD SVG 1.1//EN" "http://www.w3.org/Graphics/SVG/1.1/DTD/svg11.dtd">
<svg version="1.1" id="Layer_1" xmlns="http://www.w3.org/2000/svg" xmlns:xlink="http://www.w3.org/1999/xlink" x="0px" y="0px"
	 width="32px" height="32px" viewBox="0 0 32 32" enable-background="new 0 0 32 32" xml:space="preserve">
<path d="M20,10.5C20,5.3,15.7,1,10.5,1S1,5.3,1,10.5S5.3,20,10.5,20S20,15.7,20,10.5z M10.5,18C6.4,18,3,14.6,3,10.5S6.4,3,10.5,3
	S18,6.4,18,10.5S14.6,18,10.5,18z"/>
<path d="M24,17c-3.9,0-7,3.1-7,7s3.1,7,7,7s7-3.1,7-7S27.9,17,24,17z M24,29c-2.8,0-5-2.2-5-5s2.2-5,5-5s5,2.2,5,5S26.8,29,24,29z"
	/>
<path d="M27,6c-2.2,0-4,1.8-4,4s1.8,4,4,4s4-1.8,4-4S29.2,6,27,6z M27,12c-1.1,0-2-0.9-2-2s0.9-2,2-2s2,0.9,2,2S28.1,12,27,12z"/>
</svg>
