<?xml version="1.0" encoding="utf-8"?>
<!-- Generator: Adobe Illustrator 18.1.1, SVG Export Plug-In . SVG Version: 6.00 Build 0)  -->
<!DOCTYPE svg PUBLIC "-//W3C//DTD SVG 1.1//EN" "http://www.w3.org/Graphics/SVG/1.1/DTD/svg11.dtd">
<svg version="1.1" id="Layer_1" xmlns="http://www.w3.org/2000/svg" xmlns:xlink="http://www.w3.org/1999/xlink" x="0px" y="0px"
	 width="32px" height="32px" viewBox="0 0 32 32" enable-background="new 0 0 32 32" xml:space="preserve">
<path d="M25.7,0.3c-0.4-0.4-1-0.4-1.4,0s-0.4,1,0,1.4l0.8,0.8l-3.6,3.6l-4.8-4.8c-0.4-0.4-1-0.4-1.4,0s-0.4,1,0,1.4L18.6,6L5.3,19.3
	c-0.4,0.4-0.4,1,0,1.4L7.6,23l-6.3,6.3c-0.4,0.4-0.4,1,0,1.4C1.5,30.9,1.7,31,2,31s0.5-0.1,0.7-0.3L9,24.4l2.3,2.3
	c0.2,0.2,0.5,0.3,0.7,0.3s0.5-0.1,0.7-0.3L26,13.4l3.3,3.3c0.2,0.2,0.5,0.3,0.7,0.3s0.5-0.1,0.7-0.3c0.4-0.4,0.4-1,0-1.4l-4.8-4.8
	l3.6-3.6l0.8,0.8C30.5,7.9,30.7,8,31,8s0.5-0.1,0.7-0.3c0.4-0.4,0.4-1,0-1.4L25.7,0.3z M12,24.6L7.4,20l2.6-2.6l1.3,1.3
	c0.2,0.2,0.5,0.3,0.7,0.3s0.5-0.1,0.7-0.3c0.4-0.4,0.4-1,0-1.4L11.4,16l1.6-1.6l1.3,1.3c0.2,0.2,0.5,0.3,0.7,0.3s0.5-0.1,0.7-0.3
	c0.4-0.4,0.4-1,0-1.4L14.4,13l1.6-1.6l1.3,1.3c0.2,0.2,0.5,0.3,0.7,0.3s0.5-0.1,0.7-0.3c0.4-0.4,0.4-1,0-1.4L17.4,10L20,7.4l4.6,4.6
	L12,24.6z M24.5,9.1l-1.6-1.6l3.6-3.6l1.6,1.6L24.5,9.1z"/>
</svg>
