<?xml version="1.0" encoding="utf-8"?>
<!-- Generator: Adobe Illustrator 18.1.1, SVG Export Plug-In . SVG Version: 6.00 Build 0)  -->
<!DOCTYPE svg PUBLIC "-//W3C//DTD SVG 1.1//EN" "http://www.w3.org/Graphics/SVG/1.1/DTD/svg11.dtd">
<svg version="1.1" id="Layer_1" xmlns="http://www.w3.org/2000/svg" xmlns:xlink="http://www.w3.org/1999/xlink" x="0px" y="0px"
	 width="32px" height="32px" viewBox="0 0 32 32" enable-background="new 0 0 32 32" xml:space="preserve">
<path d="M31,10h-9V1c0-0.6-0.4-1-1-1H11c-0.6,0-1,0.4-1,1v9H1c-0.6,0-1,0.4-1,1v10c0,0.6,0.4,1,1,1h9v9c0,0.6,0.4,1,1,1h10
	c0.6,0,1-0.4,1-1v-9h9c0.6,0,1-0.4,1-1V11C32,10.4,31.6,10,31,10z M30,20h-9c-0.6,0-1,0.4-1,1v9h-8v-9c0-0.6-0.4-1-1-1H2v-8h9
	c0.6,0,1-0.4,1-1V2h8v9c0,0.6,0.4,1,1,1h9V20z"/>
</svg>
