<?xml version="1.0" encoding="utf-8"?>
<!-- Generator: Adobe Illustrator 18.1.1, SVG Export Plug-In . SVG Version: 6.00 Build 0)  -->
<!DOCTYPE svg PUBLIC "-//W3C//DTD SVG 1.1//EN" "http://www.w3.org/Graphics/SVG/1.1/DTD/svg11.dtd">
<svg version="1.1" id="Layer_1" xmlns="http://www.w3.org/2000/svg" xmlns:xlink="http://www.w3.org/1999/xlink" x="0px" y="0px"
	 width="32px" height="32px" viewBox="0 0 32 32" enable-background="new 0 0 32 32" xml:space="preserve">
<path d="M31,5h-8V2c0-0.6-0.4-1-1-1H10C9.4,1,9,1.4,9,2v3H1C0.4,5,0,5.4,0,6v24c0,0.6,0.4,1,1,1h30c0.6,0,1-0.4,1-1V6
	C32,5.4,31.6,5,31,5z M11,3h10v2H11V3z M30,29H2V7h28V29z"/>
<path d="M21,15h-2v-2c0-0.6-0.4-1-1-1h-4c-0.6,0-1,0.4-1,1v2h-2c-0.6,0-1,0.4-1,1v4c0,0.6,0.4,1,1,1h2v2c0,0.6,0.4,1,1,1h4
	c0.6,0,1-0.4,1-1v-2h2c0.6,0,1-0.4,1-1v-4C22,15.4,21.6,15,21,15z M20,19h-2c-0.6,0-1,0.4-1,1v2h-2v-2c0-0.6-0.4-1-1-1h-2v-2h2
	c0.6,0,1-0.4,1-1v-2h2v2c0,0.6,0.4,1,1,1h2V19z"/>
</svg>
