<?xml version="1.0" encoding="utf-8"?>
<!-- Generator: Adobe Illustrator 18.1.1, SVG Export Plug-In . SVG Version: 6.00 Build 0)  -->
<!DOCTYPE svg PUBLIC "-//W3C//DTD SVG 1.1//EN" "http://www.w3.org/Graphics/SVG/1.1/DTD/svg11.dtd">
<svg version="1.1" id="Layer_1" xmlns="http://www.w3.org/2000/svg" xmlns:xlink="http://www.w3.org/1999/xlink" x="0px" y="0px"
	 width="32px" height="32px" viewBox="0 0 32 32" enable-background="new 0 0 32 32" xml:space="preserve">
<path d="M24.7,0c-3.6-0.3-6.2,2.7-6.6,7.5c-0.1,1.8,0.2,3.6,0.6,5.4c0.4,1.7,0.7,3.3,0.6,4.7c0,0.3,0.1,0.5,0.2,0.7
	c0.2,0.2,0.4,0.3,0.7,0.3l7,0.6c0,0,0.1,0,0.1,0c0.4,0,0.8-0.3,0.9-0.7c0.1-0.2,1.4-4.2,1.8-9.1c0.2-2.6-0.2-4.9-1.1-6.6
	C28,1.2,26.5,0.2,24.7,0z M27.9,9.3c-0.3,3.5-1.1,6.5-1.4,7.9l-5.2-0.4c0-1.4-0.3-2.9-0.6-4.3c-0.3-1.7-0.7-3.4-0.6-4.9
	c0.2-2.8,1.5-5.9,4.5-5.7c1.1,0.1,2,0.7,2.6,1.8C27.8,5.2,28.1,7.1,27.9,9.3z"/>
<path d="M27,21.3l-7-0.6c-0.6,0-1,0.4-1.1,0.9l-0.1,1.5c-0.1,1.2,0.3,2.4,1.1,3.3c0.8,0.9,1.9,1.5,3.1,1.6c0.1,0,0.2,0,0.4,0
	c2.3,0,4.3-1.8,4.5-4.1l0.1-1.5C28,21.8,27.6,21.3,27,21.3z M25.8,23.7c-0.1,1.4-1.3,2.4-2.7,2.3c-0.7-0.1-1.3-0.4-1.7-0.9
	c-0.4-0.5-0.6-1.2-0.6-1.8l0-0.5l5,0.4L25.8,23.7z"/>
<path d="M7.3,4C5.5,4.2,4,5.2,3.1,6.9c-0.9,1.7-1.2,3.9-1,6.6c0.4,4.9,1.7,8.9,1.8,9.1C4,23,4.4,23.3,4.8,23.3c0,0,0.1,0,0.1,0
	l7-0.6c0.6,0,1-0.5,0.9-1.1c-0.1-1.4,0.2-3,0.6-4.7c0.4-1.8,0.8-3.7,0.6-5.4C13.5,6.7,10.9,3.7,7.3,4z M11.4,16.5
	c-0.3,1.4-0.6,2.9-0.6,4.3l-5.2,0.4c-0.4-1.4-1.2-4.4-1.5-7.9c-0.2-2.2,0.1-4.1,0.8-5.4C5.5,6.7,6.3,6.1,7.5,6c0.1,0,0.2,0,0.3,0
	c2.7,0,3.9,2.9,4.2,5.7C12.1,13.1,11.7,14.9,11.4,16.5z"/>
<path d="M12.8,24.9c-0.2-0.2-0.5-0.3-0.7-0.2l-7,0.6c-0.6,0-1,0.5-0.9,1.1l0.1,1.5C4.5,30.2,6.4,32,8.7,32c0.1,0,0.3,0,0.4,0
	c1.2-0.1,2.3-0.7,3.1-1.6c0.8-0.9,1.1-2.1,1-3.3l-0.1-1.5C13.1,25.3,13,25.1,12.8,24.9z M10.7,29.1c-0.4,0.5-1,0.8-1.7,0.9
	c-1.4,0.1-2.6-0.9-2.7-2.3l0-0.5l5-0.4l0,0.5C11.3,27.9,11.1,28.6,10.7,29.1z"/>
</svg>
