<?xml version="1.0" encoding="utf-8"?>
<!-- Generator: Adobe Illustrator 18.1.1, SVG Export Plug-In . SVG Version: 6.00 Build 0)  -->
<!DOCTYPE svg PUBLIC "-//W3C//DTD SVG 1.1//EN" "http://www.w3.org/Graphics/SVG/1.1/DTD/svg11.dtd">
<svg version="1.1" id="Layer_1" xmlns="http://www.w3.org/2000/svg" xmlns:xlink="http://www.w3.org/1999/xlink" x="0px" y="0px"
	 width="32px" height="32px" viewBox="0 0 32 32" enable-background="new 0 0 32 32" xml:space="preserve">
<path d="M28,22.1V17v-2c0-1.7-1.3-3-3-3H10V9h12c0.6,0,1-0.4,1-1s-0.4-1-1-1H10V1c0-0.6-0.4-1-1-1H4C3.4,0,3,0.4,3,1s0.4,1,1,1h4
	v12.1c-4.5,0.5-8,4.3-8,8.9c0,5,4,9,9,9s9-4,9-9c0-1.8-0.6-3.6-1.5-5H26v4.1c-2.3,0.5-4,2.5-4,4.9c0,2.8,2.2,5,5,5s5-2.2,5-5
	C32,24.6,30.3,22.6,28,22.1z M25,14c0.6,0,1,0.4,1,1v1H14.6c-1.3-1.1-2.9-1.7-4.6-1.9V14H25z M9,30c-3.9,0-7-3.1-7-7s3.1-7,7-7
	s7,3.1,7,7S12.9,30,9,30z M27,30c-1.7,0-3-1.3-3-3s1.3-3,3-3s3,1.3,3,3S28.7,30,27,30z"/>
</svg>
