<?xml version="1.0" encoding="utf-8"?>
<!-- Generator: Adobe Illustrator 18.1.1, SVG Export Plug-In . SVG Version: 6.00 Build 0)  -->
<!DOCTYPE svg PUBLIC "-//W3C//DTD SVG 1.1//EN" "http://www.w3.org/Graphics/SVG/1.1/DTD/svg11.dtd">
<svg version="1.1" id="Layer_1" xmlns="http://www.w3.org/2000/svg" xmlns:xlink="http://www.w3.org/1999/xlink" x="0px" y="0px"
	 width="32px" height="32px" viewBox="0 0 32 32" enable-background="new 0 0 32 32" xml:space="preserve">
<path d="M25.9,25.5c0.2-0.3,0.2-0.7,0-1L22,16.8V12c0-0.6-0.4-1-1-1H11c-0.6,0-1,0.4-1,1v4.8l-3.9,7.8c-0.2,0.3-0.1,0.7,0,1
	C6.3,25.8,6.7,26,7,26h5v5c0,0.6,0.4,1,1,1h6c0.6,0,1-0.4,1-1v-5h5C25.3,26,25.7,25.8,25.9,25.5z M19,24c-0.6,0-1,0.4-1,1v5h-4v-5
	c0-0.6-0.4-1-1-1H8.6l3.3-6.6C12,17.3,12,17.2,12,17v-4h8v4c0,0.2,0,0.3,0.1,0.4l3.3,6.6H19z"/>
<path d="M21,5c0-2.8-2.2-5-5-5s-5,2.2-5,5s2.2,5,5,5S21,7.8,21,5z M13,5c0-1.7,1.3-3,3-3s3,1.3,3,3s-1.3,3-3,3S13,6.7,13,5z"/>
</svg>
