<?xml version="1.0" encoding="utf-8"?>
<!-- Generator: Adobe Illustrator 19.1.0, SVG Export Plug-In . SVG Version: 6.00 Build 0)  -->
<!DOCTYPE svg PUBLIC "-//W3C//DTD SVG 1.1//EN" "http://www.w3.org/Graphics/SVG/1.1/DTD/svg11.dtd">
<svg version="1.1" id="Layer_1" xmlns="http://www.w3.org/2000/svg" xmlns:xlink="http://www.w3.org/1999/xlink" x="0px" y="0px"
	 width="64px" height="64px" viewBox="0 0 64 64" enable-background="new 0 0 64 64" xml:space="preserve">
<path fill="#231F20" d="M32,1C14.9,1,1,14.9,1,32c0,17.1,13.9,31,31,31c17.1,0,31-13.9,31-31C63,14.9,49.1,1,32,1z M16.1,21.5
	c0.3-0.5,0.9-0.7,1.4-0.4l9,5c0.5,0.3,0.7,0.9,0.4,1.4C26.7,27.8,26.4,28,26,28c-0.2,0-0.3,0-0.5-0.1l-9-5
	C16,22.6,15.9,22,16.1,21.5z M32,51c-6.1,0-11-4.9-11-11c0-0.6,0.4-1,1-1c0.6,0,1,0.4,1,1c0,5,4,9,9,9c5,0,9-4,9-9c0-0.6,0.4-1,1-1
	c0.6,0,1,0.4,1,1C43,46.1,38.1,51,32,51z M47.5,22.9l-9,5C38.3,28,38.2,28,38,28c-0.4,0-0.7-0.2-0.9-0.5c-0.3-0.5-0.1-1.1,0.4-1.4
	l9-5c0.5-0.3,1.1-0.1,1.4,0.4C48.1,22,48,22.6,47.5,22.9z"/>
</svg>
