<?xml version="1.0" encoding="utf-8"?>
<!-- Generator: Adobe Illustrator 19.1.0, SVG Export Plug-In . SVG Version: 6.00 Build 0)  -->
<!DOCTYPE svg PUBLIC "-//W3C//DTD SVG 1.1//EN" "http://www.w3.org/Graphics/SVG/1.1/DTD/svg11.dtd">
<svg version="1.1" id="Layer_1" xmlns="http://www.w3.org/2000/svg" xmlns:xlink="http://www.w3.org/1999/xlink" x="0px" y="0px"
	 width="64px" height="64px" viewBox="0 0 64 64" enable-background="new 0 0 64 64" xml:space="preserve">
<path fill="#231F20" d="M32,1C14.9,1,1,14.9,1,32c0,17.1,13.9,31,31,31s31-13.9,31-31C63,14.9,49.1,1,32,1z M38,51H26
	c-0.6,0-1-0.4-1-1s0.4-1,1-1h12c0.6,0,1,0.4,1,1S38.6,51,38,51z M32,41c-8.3,0-15-6.7-15-15s6.7-15,15-15s15,6.7,15,15
	S40.3,41,32,41z"/>
<path id="color_4_" fill="#231F20" d="M32,21c-2.8,0-5,2.2-5,5s2.2,5,5,5s5-2.2,5-5S34.8,21,32,21z"/>
</svg>
