<?xml version="1.0" encoding="utf-8"?>
<!-- Generator: Adobe Illustrator 19.1.0, SVG Export Plug-In . SVG Version: 6.00 Build 0)  -->
<!DOCTYPE svg PUBLIC "-//W3C//DTD SVG 1.1//EN" "http://www.w3.org/Graphics/SVG/1.1/DTD/svg11.dtd">
<svg version="1.1" id="Layer_1" xmlns="http://www.w3.org/2000/svg" xmlns:xlink="http://www.w3.org/1999/xlink" x="0px" y="0px"
	 width="64px" height="64px" viewBox="0 0 64 64" enable-background="new 0 0 64 64" xml:space="preserve">
<path fill="#231F20" d="M62,31h-7c-0.2-5.6-2.5-10.7-6-14.5l3.8-3.8c0.4-0.4,0.4-1,0-1.4c-0.4-0.4-1-0.4-1.4,0l-3.8,3.8
	c-3.9-3.5-8.9-5.8-14.5-6V2c0-0.6-0.4-1-1-1s-1,0.4-1,1v7c-5.6,0.2-10.7,2.5-14.5,6l-3.8-3.8c-0.4-0.4-1-0.4-1.4,0
	c-0.4,0.4-0.4,1,0,1.4l3.8,3.8c-3.5,3.9-5.8,8.9-6,14.5H2c-0.6,0-1,0.4-1,1s0.4,1,1,1h7c0.2,5.6,2.5,10.7,6,14.5l-3.8,3.8
	c-0.4,0.4-0.4,1,0,1.4c0.2,0.2,0.5,0.3,0.7,0.3c0.3,0,0.5-0.1,0.7-0.3l3.8-3.8c3.9,3.5,8.9,5.8,14.5,6v7c0,0.6,0.4,1,1,1s1-0.4,1-1
	v-7c5.6-0.2,10.7-2.5,14.5-6l3.8,3.8c0.2,0.2,0.5,0.3,0.7,0.3s0.5-0.1,0.7-0.3c0.4-0.4,0.4-1,0-1.4l-3.8-3.8c3.5-3.9,5.8-8.9,6-14.5
	h7c0.6,0,1-0.4,1-1S62.6,31,62,31z M22,24h5c0.6,0,1,0.4,1,1s-0.4,1-1,1h-5c-0.6,0-1-0.4-1-1S21.4,24,22,24z M32,46
	c-6.1,0-11-4.9-11-11c0-0.6,0.4-1,1-1s1,0.4,1,1c0,5,4,9,9,9s9-4,9-9c0-0.6,0.4-1,1-1s1,0.4,1,1C43,41.1,38.1,46,32,46z M42,26h-5
	c-0.6,0-1-0.4-1-1s0.4-1,1-1h5c0.6,0,1,0.4,1,1S42.6,26,42,26z"/>
</svg>
