<?xml version="1.0" encoding="utf-8"?>
<!-- Generator: Adobe Illustrator 19.1.0, SVG Export Plug-In . SVG Version: 6.00 Build 0)  -->
<!DOCTYPE svg PUBLIC "-//W3C//DTD SVG 1.1//EN" "http://www.w3.org/Graphics/SVG/1.1/DTD/svg11.dtd">
<svg version="1.1" id="Layer_1" xmlns="http://www.w3.org/2000/svg" xmlns:xlink="http://www.w3.org/1999/xlink" x="0px" y="0px"
	 width="64px" height="64px" viewBox="0 0 64 64" enable-background="new 0 0 64 64" xml:space="preserve">
<path fill="#231F20" d="M50,17h-9V6c0-0.4-0.2-0.7-0.5-0.9c-0.3-0.2-0.7-0.2-1,0L21.7,17H14C6.8,17,1,22.8,1,30v20
	c0,7.2,5.8,13,13,13h36c7.2,0,13-5.8,13-13V30C63,22.8,57.2,17,50,17z M19,40.9V44c0,0.6-0.4,1-1,1s-1-0.4-1-1v-3.1
	c-1.7-0.4-3-2-3-3.9s1.3-3.4,3-3.9V30c0-0.6,0.4-1,1-1s1,0.4,1,1v3.1c1.7,0.4,3,2,3,3.9S20.7,40.4,19,40.9z M36,53h-8
	c-0.6,0-1-0.4-1-1s0.4-1,1-1h8c0.6,0,1,0.4,1,1S36.6,53,36,53z M47,40.9V44c0,0.6-0.4,1-1,1s-1-0.4-1-1v-3.1c-1.7-0.4-3-2-3-3.9
	s1.3-3.4,3-3.9V30c0-0.6,0.4-1,1-1s1,0.4,1,1v3.1c1.7,0.4,3,2,3,3.9S48.7,40.4,47,40.9z"/>
</svg>
