<?xml version="1.0" encoding="utf-8"?>
<!-- Generator: Adobe Illustrator 19.1.0, SVG Export Plug-In . SVG Version: 6.00 Build 0)  -->
<!DOCTYPE svg PUBLIC "-//W3C//DTD SVG 1.1//EN" "http://www.w3.org/Graphics/SVG/1.1/DTD/svg11.dtd">
<svg version="1.1" id="Layer_1" xmlns="http://www.w3.org/2000/svg" xmlns:xlink="http://www.w3.org/1999/xlink" x="0px" y="0px"
	 width="64px" height="64px" viewBox="0 0 64 64" enable-background="new 0 0 64 64" xml:space="preserve">
<path fill="#231F20" d="M32,1C14.9,1,1,14.9,1,32s13.9,31,31,31c17.1,0,31-13.9,31-31S49.1,1,32,1z M17,24c0-0.6,0.4-1,1-1h8
	c0.6,0,1,0.4,1,1s-0.4,1-1,1h-8C17.4,25,17,24.6,17,24z M45.9,44.4c-0.2,0.5-0.8,0.7-1.3,0.5l-6.4-2.7l-5.5,5.5
	C32.5,47.9,32.3,48,32,48c-0.3,0-0.5-0.1-0.7-0.3l-5.5-5.5l-6.4,2.7c-0.5,0.2-1.1,0-1.3-0.5c-0.2-0.5,0-1.1,0.5-1.3l7-3
	c0.4-0.2,0.8-0.1,1.1,0.2l5.3,5.3l5.3-5.3c0.3-0.3,0.7-0.4,1.1-0.2l7,3C45.9,43.3,46.1,43.9,45.9,44.4z M46,25h-8c-0.6,0-1-0.4-1-1
	s0.4-1,1-1h8c0.6,0,1,0.4,1,1S46.6,25,46,25z"/>
</svg>
