<?xml version="1.0" encoding="utf-8"?>
<!-- Generator: Adobe Illustrator 19.1.0, SVG Export Plug-In . SVG Version: 6.00 Build 0)  -->
<!DOCTYPE svg PUBLIC "-//W3C//DTD SVG 1.1//EN" "http://www.w3.org/Graphics/SVG/1.1/DTD/svg11.dtd">
<svg version="1.1" id="Layer_1" xmlns="http://www.w3.org/2000/svg" xmlns:xlink="http://www.w3.org/1999/xlink" x="0px" y="0px"
	 width="64px" height="64px" viewBox="0 0 64 64" enable-background="new 0 0 64 64" xml:space="preserve">
<path fill="#231F20" d="M15,20v6c0,2.2,1.8,4,4,4s4-1.8,4-4v-6h18v6c0,2.2,1.8,4,4,4s4-1.8,4-4v-6h5.5c2.7,0,5.2,1.1,7.1,2.8
	C57.7,10.2,45.9,1,32,1S6.3,10.2,2.4,22.8C4.3,21.1,6.8,20,9.5,20H15z"/>
<path fill="#231F20" d="M54.5,41h-45c-3.2,0-6.1-1.5-8-3.8C3.9,51.8,16.7,63,32,63s28.1-11.2,30.5-25.8C60.6,39.5,57.7,41,54.5,41z"
	/>
</svg>
