<?xml version="1.0" encoding="utf-8"?>
<!-- Generator: Adobe Illustrator 19.1.0, SVG Export Plug-In . SVG Version: 6.00 Build 0)  -->
<!DOCTYPE svg PUBLIC "-//W3C//DTD SVG 1.1//EN" "http://www.w3.org/Graphics/SVG/1.1/DTD/svg11.dtd">
<svg version="1.1" id="Layer_1" xmlns="http://www.w3.org/2000/svg" xmlns:xlink="http://www.w3.org/1999/xlink" x="0px" y="0px"
	 width="64px" height="64px" viewBox="0 0 64 64" enable-background="new 0 0 64 64" xml:space="preserve">
<path fill="#231F20" d="M32,1C14.9,1,1,14.9,1,32s13.9,31,31,31s31-13.9,31-31S49.1,1,32,1z M15,24c0-2.8,2.2-5,5-5s5,2.2,5,5
	c0,2.8-2.2,5-5,5S15,26.8,15,24z M42,49c-0.6,0-1-0.4-1-1c0-5-4-9-9-9s-9,4-9,9c0,0.6-0.4,1-1,1s-1-0.4-1-1c0-6.1,4.9-11,11-11
	s11,4.9,11,11C43,48.6,42.6,49,42,49z M44,29c-2.8,0-5-2.2-5-5c0-2.8,2.2-5,5-5s5,2.2,5,5C49,26.8,46.8,29,44,29z"/>
</svg>
