<?xml version="1.0" encoding="utf-8"?>
<!-- Generator: Adobe Illustrator 19.1.0, SVG Export Plug-In . SVG Version: 6.00 Build 0)  -->
<!DOCTYPE svg PUBLIC "-//W3C//DTD SVG 1.1//EN" "http://www.w3.org/Graphics/SVG/1.1/DTD/svg11.dtd">
<svg version="1.1" id="Layer_1" xmlns="http://www.w3.org/2000/svg" xmlns:xlink="http://www.w3.org/1999/xlink" x="0px" y="0px"
	 width="64px" height="64px" viewBox="0 0 64 64" enable-background="new 0 0 64 64" xml:space="preserve">
<path fill="#231F20" d="M32,17C19.3,17,9,27.3,9,40s10.3,23,23,23c12.7,0,23-10.3,23-23S44.7,17,32,17z M26.4,26.1
	c-4.1,1.7-7.2,5-8.6,9.2c-0.1,0.4-0.5,0.7-1,0.7c-0.1,0-0.2,0-0.3,0c-0.5-0.2-0.8-0.7-0.6-1.3c1.6-4.8,5.1-8.6,9.8-10.4
	c0.5-0.2,1.1,0,1.3,0.6C27.1,25.3,26.9,25.9,26.4,26.1z"/>
<path id="color_1_" fill="#231F20" d="M32,15c2.4,0,4.8,0.4,7,1v-4c0-0.6-0.4-1-1-1h-5v-1c0-3.9,3.1-7,7-7c3.9,0,7,3.1,7,7v2
	c0,0.6,0.4,1,1,1c0.6,0,1-0.4,1-1v-2c0-5-4-9-9-9c-5,0-9,4-9,9v1h-5c-0.6,0-1,0.4-1,1v4C27.2,15.4,29.6,15,32,15z"/>
</svg>
