<?xml version="1.0" encoding="utf-8"?>
<!-- Generator: Adobe Illustrator 19.1.0, SVG Export Plug-In . SVG Version: 6.00 Build 0)  -->
<!DOCTYPE svg PUBLIC "-//W3C//DTD SVG 1.1//EN" "http://www.w3.org/Graphics/SVG/1.1/DTD/svg11.dtd">
<svg version="1.1" id="Layer_1" xmlns="http://www.w3.org/2000/svg" xmlns:xlink="http://www.w3.org/1999/xlink" x="0px" y="0px"
	 width="64px" height="64px" viewBox="0 0 64 64" enable-background="new 0 0 64 64" xml:space="preserve">
<path fill="#231F20" d="M32,1C14.9,1,1,14.9,1,32s13.9,31,31,31c17.1,0,31-13.9,31-31S49.1,1,32,1z M18.7,27.7
	C18.5,27.9,18.3,28,18,28c-0.3,0-0.5-0.1-0.7-0.3c-0.4-0.4-0.4-1,0-1.4l3.3-3.3l-3.3-3.3c-0.4-0.4-0.4-1,0-1.4c0.4-0.4,1-0.4,1.4,0
	l3.3,3.3l3.3-3.3c0.4-0.4,1-0.4,1.4,0c0.4,0.4,0.4,1,0,1.4L23.4,23l3.3,3.3c0.4,0.4,0.4,1,0,1.4C26.5,27.9,26.3,28,26,28
	c-0.3,0-0.5-0.1-0.7-0.3L22,24.4L18.7,27.7z M32,53c-5,0-9-4-9-9s4-9,9-9c5,0,9,4,9,9S37,53,32,53z M46.7,26.3c0.4,0.4,0.4,1,0,1.4
	C46.5,27.9,46.3,28,46,28c-0.3,0-0.5-0.1-0.7-0.3L42,24.4l-3.3,3.3C38.5,27.9,38.3,28,38,28c-0.3,0-0.5-0.1-0.7-0.3
	c-0.4-0.4-0.4-1,0-1.4l3.3-3.3l-3.3-3.3c-0.4-0.4-0.4-1,0-1.4c0.4-0.4,1-0.4,1.4,0l3.3,3.3l3.3-3.3c0.4-0.4,1-0.4,1.4,0
	c0.4,0.4,0.4,1,0,1.4L43.4,23L46.7,26.3z"/>
</svg>
