<?xml version="1.0" encoding="utf-8"?>
<!-- Generator: Adobe Illustrator 19.1.0, SVG Export Plug-In . SVG Version: 6.00 Build 0)  -->
<!DOCTYPE svg PUBLIC "-//W3C//DTD SVG 1.1//EN" "http://www.w3.org/Graphics/SVG/1.1/DTD/svg11.dtd">
<svg version="1.1" id="Layer_1" xmlns="http://www.w3.org/2000/svg" xmlns:xlink="http://www.w3.org/1999/xlink" x="0px" y="0px"
	 width="64px" height="64px" viewBox="0 0 64 64" enable-background="new 0 0 64 64" xml:space="preserve">
<path fill="#231F20" d="M32,1C14.9,1,1,14.9,1,32c0,17.1,13.9,31,31,31c17.1,0,31-13.9,31-31C63,14.9,49.1,1,32,1z M20,19
	c2.8,0,5,2.2,5,5c0,0.6-0.4,1-1,1c-0.6,0-1-0.4-1-1c0-1.7-1.3-3-3-3c-1.7,0-3,1.3-3,3c0,0.6-0.4,1-1,1c-0.6,0-1-0.4-1-1
	C15,21.2,17.2,19,20,19z M48,37h-9v9c0,0.6-0.4,1-1,1h-4c-0.6,0-1-0.4-1-1v-9h-2v9c0,0.6-0.4,1-1,1h-4c-0.6,0-1-0.4-1-1v-9h-9
	c-0.6,0-1-0.4-1-1s0.4-1,1-1h32c0.6,0,1,0.4,1,1S48.6,37,48,37z M48,25c-0.6,0-1-0.4-1-1c0-1.7-1.3-3-3-3c-1.7,0-3,1.3-3,3
	c0,0.6-0.4,1-1,1c-0.6,0-1-0.4-1-1c0-2.8,2.2-5,5-5c2.8,0,5,2.2,5,5C49,24.6,48.6,25,48,25z"/>
</svg>
