<?xml version="1.0" encoding="utf-8"?>
<!-- Generator: Adobe Illustrator 19.1.0, SVG Export Plug-In . SVG Version: 6.00 Build 0)  -->
<!DOCTYPE svg PUBLIC "-//W3C//DTD SVG 1.1//EN" "http://www.w3.org/Graphics/SVG/1.1/DTD/svg11.dtd">
<svg version="1.1" id="Layer_1" xmlns="http://www.w3.org/2000/svg" xmlns:xlink="http://www.w3.org/1999/xlink" x="0px" y="0px"
	 width="16px" height="16px" viewBox="0 0 16 16" enable-background="new 0 0 16 16" xml:space="preserve">
<path fill="#444444" d="M3,5H1V2c0-0.55225,0.44775-1,1-1h3v2H3V5z"/>
<path fill="#444444" d="M15,5h-2V3h-2V1h3c0.55225,0,1,0.44775,1,1V5z"/>
<path fill="#444444" d="M14,15h-3v-2h2v-2h2v3C15,14.55225,14.55225,15,14,15z"/>
<path fill="#444444" d="M5,15H2c-0.55225,0-1-0.44775-1-1v-3h2v2h2V15z"/>
<rect data-color="color-2" y="7" fill="#444444" width="16" height="2"/>
</svg>
