<?xml version="1.0" encoding="utf-8"?>
<!-- Generator: Adobe Illustrator 19.1.0, SVG Export Plug-In . SVG Version: 6.00 Build 0)  -->
<!DOCTYPE svg PUBLIC "-//W3C//DTD SVG 1.1//EN" "http://www.w3.org/Graphics/SVG/1.1/DTD/svg11.dtd">
<svg version="1.1" id="Layer_1" xmlns="http://www.w3.org/2000/svg" xmlns:xlink="http://www.w3.org/1999/xlink" x="0px" y="0px"
	 width="16px" height="16px" viewBox="0 0 16 16" enable-background="new 0 0 16 16" xml:space="preserve">
<path fill="#444444" d="M2,2h4V0H1C0.44775,0,0,0.44775,0,1v5h2V2z"/>
<path fill="#444444" d="M15,0h-5v2h4v4h2V1C16,0.44775,15.55225,0,15,0z"/>
<path fill="#444444" d="M14,14h-4v2h5c0.55225,0,1-0.44775,1-1v-5h-2V14z"/>
<path fill="#444444" d="M2,10H0v5c0,0.55225,0.44775,1,1,1h5v-2H2V10z"/>
<polygon data-color="color-2" fill="#444444" points="11,9 11,7 9,7 9,5 7,5 7,7 5,7 5,9 7,9 7,11 9,11 9,9 "/>
</svg>
