<?xml version="1.0" encoding="utf-8"?>
<!-- Generator: Adobe Illustrator 19.1.0, SVG Export Plug-In . SVG Version: 6.00 Build 0)  -->
<!DOCTYPE svg PUBLIC "-//W3C//DTD SVG 1.1//EN" "http://www.w3.org/Graphics/SVG/1.1/DTD/svg11.dtd">
<svg version="1.1" id="Layer_1" xmlns="http://www.w3.org/2000/svg" xmlns:xlink="http://www.w3.org/1999/xlink" x="0px" y="0px"
	 width="16px" height="16px" viewBox="0 0 16 16" enable-background="new 0 0 16 16" xml:space="preserve">
<path fill="#444444" d="M8,16c-4.41113,0-8-3.58887-8-8s3.58887-8,8-8s8,3.58887,8,8S12.41113,16,8,16z M8,2
	C4.69141,2,2,4.69141,2,8s2.69141,6,6,6s6-2.69141,6-6S11.30859,2,8,2z"/>
<path data-color="color-2" fill="#444444" d="M8,12c-2.20557,0-4-1.79443-4-4s1.79443-4,4-4s4,1.79443,4,4S10.20557,12,8,12z M8,6
	C6.89697,6,6,6.89697,6,8s0.89697,2,2,2s2-0.89697,2-2S9.10303,6,8,6z"/>
</svg>
