<?xml version="1.0" encoding="utf-8"?>
<!-- Generator: Adobe Illustrator 19.1.0, SVG Export Plug-In . SVG Version: 6.00 Build 0)  -->
<!DOCTYPE svg PUBLIC "-//W3C//DTD SVG 1.1//EN" "http://www.w3.org/Graphics/SVG/1.1/DTD/svg11.dtd">
<svg version="1.1" id="Layer_1" xmlns="http://www.w3.org/2000/svg" xmlns:xlink="http://www.w3.org/1999/xlink" x="0px" y="0px"
	 width="16px" height="16px" viewBox="0 0 16 16" enable-background="new 0 0 16 16" xml:space="preserve">
<path data-color="color-2" fill="#444444" d="M3,8.23822V4.5C3,3.12158,4.12109,2,5.5,2S8,3.12158,8,4.5v2.60498L9.05853,7.2226
	C9.64032,6.46423,10,5.52753,10,4.5C10,2.01855,7.98145,0,5.5,0S1,2.01855,1,4.5C1,6.0567,1.79529,7.42993,3,8.23822z"/>
<path fill="#444444" d="M13.89996,16l1.0661-3.55365c0.53821-1.79388-0.68073-3.6369-2.54218-3.84369L7,8V4.5
	C7,3.67157,6.32843,3,5.5,3S4,3.67157,4,4.5V12H3v-2H2.5C1.67157,10,1,10.67157,1,11.5v1.83331
	C1,14.28296,1.28461,15.20221,1.78973,16H13.89996z"/>
</svg>
