<svg xmlns="http://www.w3.org/2000/svg" xmlns:xlink="http://www.w3.org/1999/xlink" x="0px" y="0px" width="48px" height="48px" viewBox="0 0 48 48"><g >
<path fill="#5B5B5B" d="M13.48438,35.51562c-0.25586,0-0.51172-0.09766-0.70703-0.29297c-0.39062-0.39062-0.39062-1.02344,0-1.41406
	l7.07129-7.07129c0.39062-0.39062,1.02344-0.39062,1.41406,0s0.39062,1.02344,0,1.41406l-7.07129,7.07129
	C13.99609,35.41797,13.74023,35.51562,13.48438,35.51562z"/>
<path fill="#E6E6E6" d="M28,31.16992v-0.04004c-1.4082-0.00488-2.75977-0.22363-4-0.646v0.13232l-1.45703-0.75
	c-0.00098-0.00049-0.00195-0.00098-0.00293-0.00098L22,29.56836c-0.75977-0.44531-1.43751-0.96436-2.02148-1.54834
	C19.39551,27.4375,18.87695,26.75977,18.43164,26h-0.01855l-0.27539-0.53516c-0.00098-0.00244-0.00195-0.00537-0.00391-0.00781
	L17.38477,24h0.13184c-0.42285-1.24072-0.6416-2.5918-0.64648-4h-0.04004l0.07715-1.07178c0-0.00439,0-0.0083,0.00098-0.0127
	L17.00195,18c0.17676-1.3335,0.52832-2.67139,1.0498-4h-0.06934l0.69531-1.42529c0.00195-0.00439,0.00391-0.00879,0.00684-0.01318
	L18.96875,12c0.74316-1.4082,1.66504-2.74902,2.74902-4h-0.18555l1.23926-1.15625c0.01172-0.01221,0.02441-0.02393,0.03613-0.03613
	c0.00977-0.00977,0.01855-0.01904,0.02832-0.02832L24,5.53076v0.1875c1.25-1.0835,2.59082-2.00488,4-2.74902V2.95801
	l0.56152-0.27393c0.00195-0.00098,0.00391-0.00146,0.00586-0.00244L30,1.98193v0.06982c1.3291-0.52197,2.66797-0.87305,4-1.0498
	V0.97363l0.92773-0.06689c0.00293,0,0.00586-0.00049,0.00879-0.00049L36,0.83008v0.04004c1.4082,0.00488,2.75977,0.22363,4,0.646
	V1.38379l1.45703,0.75c0.00098,0.00049,0.00195,0.00098,0.00293,0.00098L42,2.43164
	c0.75977,0.44531,1.43749,0.96436,2.02148,1.54834C44.60449,4.5625,45.12305,5.24023,45.56836,6h0.01855l0.27539,0.53516
	c0.00098,0.00244,0.00195,0.00537,0.00391,0.00781L46.61523,8H46.4834c0.42285,1.24072,0.6416,2.5918,0.64648,4h0.04004
	l-0.07715,1.07178c0,0.00439,0,0.0083-0.00098,0.0127L46.99805,14c-0.17676,1.3335-0.52832,2.67139-1.0498,4h0.06934
	l-0.69531,1.42529c-0.00195,0.00439-0.00391,0.00879-0.00684,0.01318L45.03125,20c-0.74316,1.4082-1.66504,2.74902-2.74902,4
	h0.18555l-1.23926,1.15625c-0.01172,0.01221-0.02441,0.02393-0.03613,0.03613c-0.00977,0.00977-0.01855,0.01904-0.02832,0.02832
	L40,26.46924v-0.1875c-1.25,1.0835-2.59082,2.00488-4,2.74902v0.01123l-0.56152,0.27393
	c-0.00195,0.00098-0.00391,0.00146-0.00586,0.00244L34,30.01807v-0.06982c-1.3291,0.52197-2.66797,0.87305-4,1.0498v0.02832
	l-0.92773,0.06689c-0.00293,0-0.00586,0.00049-0.00879,0.00049L28,31.16992z M24,28.34326
	c1.19824,0.51367,2.55859,0.78125,4,0.78711V26h-4V28.34326z M30,26v2.97656c1.32227-0.20459,2.68066-0.61035,4-1.19678V26H30z
	 M20.85059,26c0.17285,0.21484,0.35352,0.41699,0.54297,0.60596c0.18848,0.18945,0.3916,0.37061,0.60645,0.54346V26H20.85059z
	 M36,26v0.73389c0.37988-0.22998,0.75391-0.47461,1.12109-0.73389H36z M36,24h3.54297
	c0.0791-0.07178,0.1582-0.14502,0.23535-0.22168c0.07715-0.07715,0.14941-0.15576,0.22168-0.23486V20h-4V24z M30,24h4v-4h-4V24z
	 M24,24h4v-4h-4V24z M19.65723,24H22v-4h-3.12988C18.87598,21.44092,19.14355,22.80127,19.65723,24z M42,20v1.12207
	c0.25977-0.36768,0.50391-0.7417,0.73438-1.12207H42z M42,18h1.78027c0.58594-1.31836,0.99121-2.67627,1.19629-4H42V18z M36,18h4v-4
	h-4V18z M30,18h4v-4h-4V18z M24,18h4v-4h-4V18z M19.02344,18H22v-4h-1.78027C19.63379,15.31836,19.22852,16.67627,19.02344,18z
	 M42,12h3.12988c-0.00586-1.44092-0.27344-2.80127-0.78711-4H42V12z M36,12h4V8h-4V12z M30,12h4V8h-4V12z M24,12h4V8h-3.54297
	c-0.0791,0.07178-0.1582,0.14502-0.23535,0.22168C24.14453,8.29883,24.07227,8.37744,24,8.45654V12z M21.26562,12H22v-1.12207
	C21.74023,11.24561,21.49609,11.61963,21.26562,12z M42,6h1.14941c-0.17285-0.21484-0.35352-0.41699-0.54297-0.60596
	C42.41797,5.20459,42.21484,5.02344,42,4.85059V6z M36,6h4V3.65674c-1.19824-0.51367-2.55859-0.78125-4-0.78711V6z M30,6h4V3.02344
	c-1.32227,0.20459-2.68066,0.61035-4,1.19678V6z M26.87891,6H28V5.26611C27.62012,5.49609,27.24609,5.74072,26.87891,6z"/>
<path fill="#5B5B5B" d="M28.00586,31.14551c-3.18066,0-5.97949-1.07764-8.02637-3.125
	c-2.49512-2.49414-3.54883-6.10303-2.96973-10.16211c0.56543-3.95215,2.62402-7.87695,5.79785-11.05078
	c3.17383-3.17432,7.09863-5.23291,11.05078-5.79785c4.05566-0.57764,7.66699,0.47461,10.16211,2.96973
	c2.49512,2.49414,3.54883,6.10303,2.96973,10.16211c-0.56543,3.95215-2.62402,7.87695-5.79785,11.05078
	c-3.17383,3.17432-7.09863,5.23291-11.05078,5.79785C29.41406,31.09375,28.70117,31.14551,28.00586,31.14551z M35.9834,2.85547
	c-0.59766,0-1.21289,0.04443-1.84277,0.13428c-3.52637,0.50391-7.04883,2.36182-9.91895,5.23193s-4.72754,6.39307-5.23145,9.91992
	c-0.48926,3.41992,0.36523,6.42627,2.40332,8.46484s5.04102,2.89258,8.46582,2.40381
	c3.52637-0.50391,7.04883-2.36182,9.91895-5.23193s4.72754-6.39307,5.23145-9.91992
	c0.48926-3.41992-0.36523-6.42627-2.40332-8.46484C40.94336,3.72998,38.63477,2.85547,35.9834,2.85547z"/>
<path fill="#72C472" d="M38,35c-3.85938,0-7-3.14014-7-7s3.14062-7,7-7s7,3.14014,7,7S41.85938,35,38,35z"/>
<path fill="#C6A279" d="M6.41309,45.41504c-0.25586,0-0.51172-0.09766-0.70703-0.29297l-2.82812-2.82861
	c-0.3877-0.38818-0.39062-1.01611-0.00684-1.40771l9.41504-9.58643C12.47461,31.10791,12.73145,31,13,31h2
	c0.26562,0,0.51953,0.10547,0.70703,0.29297l1,1C16.89453,32.48047,17,32.73486,17,33v2c0,0.26855-0.10742,0.52539-0.2998,0.71338
	l-9.58691,9.41504C6.91895,45.31982,6.66602,45.41504,6.41309,45.41504z"/>
</g></svg>