<svg xmlns="http://www.w3.org/2000/svg" xmlns:xlink="http://www.w3.org/1999/xlink" x="0px" y="0px" width="48px" height="48px" viewBox="0 0 48 48"><g >
<path fill="#C6A279" d="M44.36,32.344l-17.31,2.258c-1.594,0.208-3.157-0.558-3.969-1.946l-8.981-15.342L11.292,18.5l-1.577,3.2
	l11.322,19.341C22.471,43.493,25.099,45,27.94,45h13.628c1.974,0,3.653-1.44,3.953-3.392l1.073-6.977
	C46.798,33.315,45.681,32.172,44.36,32.344z"/>
<path fill="#444444" d="M27,17v3.625c0,2.626,4.024,4,8,4s8-1.374,8-4V17H27z"/>
<path fill="#5B5B5B" d="M35,21c3.976,0,8-1.374,8-4s-4.024-4-8-4s-8,1.374-8,4S31.024,21,35,21z"/>
<path fill="#5B5B5B" d="M6.589,4.484C5.654,2.886,3.47,2.474,2.001,3.76C0.91,4.717,0.735,6.36,1.468,7.613L9.714,21.7l4.385-4.385
	L6.589,4.484z"/>
</g></svg>