<svg xmlns="http://www.w3.org/2000/svg" xmlns:xlink="http://www.w3.org/1999/xlink" x="0px" y="0px" width="48px" height="48px" viewBox="0 0 48 48"><g >
<path fill="#999999" d="M6,47c-0.55273,0-1-0.44775-1-1V2c0-0.55225,0.44727-1,1-1s1,0.44775,1,1v44C7,46.55225,6.55273,47,6,47z"/>
<rect x="7" y="5" fill="#444444" width="9" height="9"/>
<rect x="16" y="5" fill="#E6E6E6" width="9" height="9"/>
<rect x="25" y="5" fill="#444444" width="9" height="9"/>
<rect x="34" y="5" fill="#E6E6E6" width="9" height="9"/>
<rect x="7" y="14" fill="#E6E6E6" width="9" height="9"/>
<rect x="16" y="14" fill="#444444" width="9" height="9"/>
<rect x="25" y="14" fill="#E6E6E6" width="9" height="9"/>
<rect x="34" y="14" fill="#444444" width="9" height="9"/>
<rect x="7" y="23" fill="#444444" width="9" height="9"/>
<rect x="16" y="23" fill="#E6E6E6" width="9" height="9"/>
<rect x="25" y="23" fill="#444444" width="9" height="9"/>
<rect x="34" y="23" fill="#E6E6E6" width="9" height="9"/>
</g></svg>