<svg xmlns="http://www.w3.org/2000/svg" xmlns:xlink="http://www.w3.org/1999/xlink" x="0px" y="0px" width="48px" height="48px" viewBox="0 0 48 48"><g >
<path fill="#D8BC48" d="M45,43H3c-1.10457,0-2-0.89543-2-2V11.58594l11.06152,11.06152L24,12.69824l11.93848,9.94922L47,11.58594V41
	C47,42.10457,46.10457,43,45,43z"/>
<path fill="#D8BC48" d="M24,15c-2.75684,0-5-2.24316-5-5s2.24316-5,5-5s5,2.24316,5,5S26.75684,15,24,15z"/>
<circle fill="#D8BC48" cx="24" cy="10" r="3"/>
<path fill="#D8BC48" d="M2,15c-0.55273,0-1-0.44727-1-1V6c0-0.55273,0.44727-1,1-1c2.75684,0,5,2.24316,5,5S4.75684,15,2,15z"/>
<path fill="#D8BC48" d="M46,15c-2.75684,0-5-2.24316-5-5s2.24316-5,5-5c0.55273,0,1,0.44727,1,1v8C47,14.55273,46.55273,15,46,15z"/>
<path fill="#D8BC48" d="M45,12.8291c-1.16406-0.41309-2-1.52539-2-2.8291s0.83594-2.41602,2-2.8291V12.8291z"/>
<rect x="1" y="35" fill="#C19A3A" width="46" height="2"/>
</g></svg>