<svg xmlns="http://www.w3.org/2000/svg" xmlns:xlink="http://www.w3.org/1999/xlink" x="0px" y="0px" width="48px" height="48px" viewBox="0 0 48 48"><g >
<path fill="#999999" d="M34.30762,14.69238c-0.25586,0-0.51172-0.09766-0.70703-0.29297c-0.39062-0.39062-0.39062-1.02344,0-1.41406
	L45.29297,1.29297c0.39062-0.39062,1.02344-0.39062,1.41406,0s0.39062,1.02344,0,1.41406L35.01465,14.39941
	C34.81934,14.59473,34.56348,14.69238,34.30762,14.69238z"/>
<path fill="#C94F49" d="M19.99609,26.84863L4.39648,29.53809c-1.70703,0.29395-2.98926,1.58887-3.26855,3.29785
	c-0.27832,1.70996,0.52637,3.34473,2.05078,4.16602h0.00098l5.08203,2.73633l12.61133-12.61133
	C20.64258,26.89648,20.31445,26.79199,19.99609,26.84863z"/>
<path fill="#E86C60" d="M8.26172,39.73828l2.73633,5.08301c0.71387,1.32422,2.04102,2.10547,3.49707,2.10547
	c0.2207,0,0.44434-0.01855,0.66895-0.05469c1.70898-0.2793,3.00391-1.56152,3.29785-3.26855l2.68945-15.59961
	c0.05566-0.32031-0.04883-0.64746-0.27832-0.87695L8.26172,39.73828z"/>
<path fill="#444444" d="M20.16602,28.83398c-0.25879,0-0.51465-0.10059-0.70703-0.29297
	c-0.31445-0.31445-0.38379-0.79883-0.16895-1.18945c0.71582-1.2998,7.03809-12.75098,8.6543-14.36621
	c0.94336-0.94434,2.19922-1.46484,3.53516-1.46484s2.5918,0.52051,3.53516,1.46484c0.94434,0.94336,1.46484,2.19922,1.46484,3.53516
	s-0.52051,2.5918-1.46484,3.53516c-1.61523,1.61621-13.06641,7.93848-14.36621,8.6543
	C20.49707,28.79297,20.33105,28.83398,20.16602,28.83398z"/>
</g></svg>