<svg xmlns="http://www.w3.org/2000/svg" xmlns:xlink="http://www.w3.org/1999/xlink" x="0px" y="0px" width="48px" height="48px" viewBox="0 0 48 48"><g >
<path fill="#C6A279" d="M6,46.17188c-0.80127,0-1.55469-0.3125-2.12158-0.87891l-1.17139-1.17188
	c-1.16895-1.16992-1.16895-3.07227-0.00049-4.24219l4.58643-4.58594c0.93066-0.93066,0.87256-1.92383,0.69043-3.59766
	c-0.19287-1.77051-0.43262-3.97363,1.58154-5.98828L32.19238,3.08008c0.94434-0.94434,2.19971-1.46484,3.53516-1.46484
	c1.33594,0,2.59131,0.52051,3.53564,1.46484l5.65723,5.65625c1.94922,1.94922,1.94922,5.12207,0,7.07129l-5.53174,5.53027l0,0
	l-17.0957,17.09668c-2.04248,2.04297-4.24854,1.79492-6.02246,1.59473c-1.6582-0.18555-2.63867-0.24609-3.56348,0.67773
	l-4.58594,4.58594C7.55469,45.85938,6.80127,46.17188,6,46.17188z"/>
<rect x="16.34404" y="21.66147" transform="matrix(0.70711 -0.70711 0.70711 0.70711 -16.60254 21.24059)" fill="#A67C52" width="1.98871" height="17.99973"/>
<path fill="#C94F49" d="M36,33c-3.85986,0-7-3.14062-7-7s3.14014-7,7-7s7,3.14062,7,7S39.85986,33,36,33z"/>
</g></svg>