<svg xmlns="http://www.w3.org/2000/svg" xmlns:xlink="http://www.w3.org/1999/xlink" x="0px" y="0px" width="48px" height="48px" viewBox="0 0 48 48"><g >
<path fill="#C6A279" d="M28.37604,34.37604L12.62396,18.62396c-0.01361,0.26331-0.03851,0.52448-0.03851,0.7901
	c0,3.15552,0.98096,6.15417,2.77625,8.67303L3.16943,38.53809c-0.42188,0.36084-0.67578,0.88623-0.69727,1.44092
	c-0.02148,0.55518,0.19141,1.09912,0.58447,1.4917l2.47266,2.47266c0.375,0.375,0.88672,0.58594,1.41504,0.58594
	c0.02539,0,0.05078-0.00049,0.07666-0.00146c0.55469-0.02148,1.08008-0.27539,1.44092-0.69678L18.9129,31.63831
	c2.51886,1.79529,5.51752,2.77625,8.67303,2.77625C27.85156,34.41455,28.11273,34.38965,28.37604,34.37604z"/>
<path fill="#458BC4" d="M41.02051,5.97949C38.1875,3.146,34.4209,1.58545,30.41406,1.58545S22.64062,3.146,19.80762,5.97949
	l-2.82812,2.82812c-2.64569,2.6452-4.16351,6.10767-4.35553,9.81635l15.75208,15.75208
	c3.70868-0.19202,7.17114-1.70984,9.81635-4.35553l2.82812-2.82812c2.8335-2.83301,4.39404-6.59961,4.39404-10.60645
	S43.854,8.8125,41.02051,5.97949z"/>
<path fill="#EA9860" d="M42,35c-2.75705,0-5-2.24295-5-5s2.24295-5,5-5s5,2.24295,5,5S44.75705,35,42,35z"/>
</g></svg>