<svg xmlns="http://www.w3.org/2000/svg" xmlns:xlink="http://www.w3.org/1999/xlink" x="0px" y="0px" width="48px" height="48px" viewBox="0 0 48 48"><g >
<path fill="#E6E6E6" d="M44.8284,20.20105c-1.56207-1.56207-4.09467-1.56219-5.6568,0c1.56213-1.56219,1.56201-4.09479,0-5.65686
	c-1.56207-1.56207-4.09473-1.56219-5.65686,0c1.56213-1.56219,1.56207-4.09479,0-5.65686s-4.09473-1.56213-5.65686,0
	c1.56213-1.56213,1.56207-4.09479,0-5.65686s-4.09473-1.56213-5.65686,0c-0.44574,0.44574-0.74951,0.97406-0.9408,1.53271
	L7.58579,31.92893l8.48528,8.48528l27.22462-13.61557c0.55865-0.19128,1.08698-0.495,1.53271-0.94073
	C46.39059,24.29572,46.39047,21.76312,44.8284,20.20105z"/>
<path fill="#E86C60" d="M4.75737,43.24264L4.75737,43.24264c-2.34315-2.34315-2.34315-6.14214-0.00001-8.48528l2.82843-2.82843
	l8.48528,8.48528l-2.82843,2.82843C10.8995,45.58578,7.10051,45.58578,4.75737,43.24264z"/>
</g></svg>