<svg xmlns="http://www.w3.org/2000/svg" xmlns:xlink="http://www.w3.org/1999/xlink" x="0px" y="0px" width="48px" height="48px" viewBox="0 0 48 48"><g >
<path fill="#5B5B5B" d="M26,11h-4c-0.55273,0-1-0.44775-1-1V2c0-0.55225,0.44727-1,1-1h4c0.55273,0,1,0.44775,1,1v8
	C27,10.55225,26.55273,11,26,11z"/>
<path fill="#E6E6E6" d="M40.99414,10.11035c0.03125-0.28271-0.05957-0.56543-0.24902-0.77734S40.28418,9,40,9H8
	C7.71582,9,7.44434,9.12109,7.25488,9.33301s-0.28027,0.49463-0.24902,0.77734L8.54913,24h30.90173L40.99414,10.11035z"/>
<path fill="#EF8EC3" d="M12,47h24c0.50977,0,0.93748-0.3833,0.99414-0.88965L39.45087,24H8.54913l2.45673,22.11035
	C11.06249,46.6167,11.49023,47,12,47z"/>
<path fill="#B3B3B3" d="M42,11H6c-0.55228,0-1-0.44771-1-1V9c0-0.55229,0.44772-1,1-1h36c0.55228,0,1,0.44771,1,1v1
	C43,10.55229,42.55228,11,42,11z"/>
<path fill="#B3B3B3" d="M30,21h-4c-0.55273,0-1-0.44775-1-1s0.44727-1,1-1h4c0.55273,0,1,0.44775,1,1S30.55273,21,30,21z"/>
<path fill="#C64692" d="M30,29h-4c-0.55273,0-1-0.44775-1-1s0.44727-1,1-1h4c0.55273,0,1,0.44775,1,1S30.55273,29,30,29z"/>
<path fill="#C64692" d="M30,37h-4c-0.55273,0-1-0.44775-1-1s0.44727-1,1-1h4c0.55273,0,1,0.44775,1,1S30.55273,37,30,37z"/>
<path fill="#B3B3B3" d="M30,3H18c-0.55273,0-1-0.44775-1-1s0.44727-1,1-1h12c0.55273,0,1,0.44775,1,1S30.55273,3,30,3z"/>
</g></svg>