<svg xmlns="http://www.w3.org/2000/svg" xmlns:xlink="http://www.w3.org/1999/xlink" x="0px" y="0px" width="48px" height="48px" viewBox="0 0 48 48"><g >
<path fill="#C19F85" d="M44.30322,3.04688C39.23877,1.43652,32.50049,2.8584,25.81396,6.9502
	C17.6665,11.93457,9.57715,20.78125,2.41943,32.5332c-0.24023,0.39453-0.1792,0.90137,0.14697,1.22754l5.8363,5.83655
	L44.70703,3.29297C44.59552,3.1814,44.45776,3.09619,44.30322,3.04688z"/>
<path fill="#A67C52" d="M44.70703,3.29297L8.40271,39.59729l5.83606,5.8363c0.19287,0.19336,0.44873,0.29297,0.70752,0.29297
	c0.17871,0,0.3584-0.04785,0.51953-0.14551c11.75244-7.15723,20.59961-15.24707,25.58447-23.39551
	c4.09131-6.68652,5.51367-13.42578,3.90283-18.48828C44.90381,3.54248,44.81854,3.40454,44.70703,3.29297z"/>
</g></svg>