<svg xmlns="http://www.w3.org/2000/svg" xmlns:xlink="http://www.w3.org/1999/xlink" x="0px" y="0px" width="48px" height="48px" viewBox="0 0 48 48"><g >
<path fill="#4DA34D" d="M46,41H2c-0.55225,0-1-0.44775-1-1V8c0-0.55225,0.44775-1,1-1h44c0.55225,0,1,0.44775,1,1v32
	C47,40.55225,46.55225,41,46,41z"/>
<path fill="#9EDB9E" d="M24,31c-3.85986,0-7-3.14014-7-7s3.14014-7,7-7s7,3.14014,7,7S27.85986,31,24,31z M24,19
	c-2.75684,0-5,2.24316-5,5s2.24316,5,5,5s5-2.24316,5-5S26.75684,19,24,19z"/>
<rect x="23" y="7" fill="#9EDB9E" width="2" height="11"/>
<rect x="23" y="30" fill="#9EDB9E" width="2" height="11"/>
<path fill="#9EDB9E" d="M10,33H1v-2h8V17H1v-2h9c0.55229,0,1,0.44771,1,1v16C11,32.55228,10.55229,33,10,33z"/>
<path fill="#9EDB9E" d="M38,33h9v-2h-8V17h8v-2h-9c-0.55228,0-1,0.44771-1,1v16C37,32.55228,37.44772,33,38,33z"/>
</g></svg>