<svg xmlns="http://www.w3.org/2000/svg" xmlns:xlink="http://www.w3.org/1999/xlink" x="0px" y="0px" width="48px" height="48px" viewBox="0 0 48 48"><g >
<path fill="#B3B3B3" d="M42.96899,7.84198c-0.00958-0.05835-0.01135-0.11731-0.03076-0.17206
	c-0.01929-0.05518-0.05505-0.10266-0.08441-0.15448c-0.03558-0.06256-0.06702-0.12561-0.11499-0.17896
	c-0.00897-0.01001-0.0116-0.02307-0.02106-0.03278c-0.034-0.03503-0.07831-0.05054-0.11591-0.07953
	c-0.05585-0.04346-0.1084-0.08759-0.1731-0.11865c-0.06427-0.03076-0.13104-0.04388-0.1994-0.06012
	c-0.04663-0.01135-0.08691-0.03638-0.13611-0.04102c-0.01367-0.00128-0.02557,0.00482-0.03918,0.00409
	c-0.06897-0.00378-0.13495,0.0108-0.20343,0.02124c-0.06268,0.00958-0.12579,0.01202-0.18433,0.03284
	c-0.04883,0.01727-0.09052,0.04956-0.13672,0.07465c-0.06958,0.03802-0.13849,0.07336-0.19696,0.12646
	c-0.00879,0.00793-0.02032,0.01025-0.02893,0.01855l-8.4436,8.18774l-8.1521-8.17603c0,0-0.00079-0.00043-0.00116-0.00079
	s-0.00043-0.00079-0.00043-0.00079c-0.07349-0.07343-0.16107-0.11884-0.24786-0.16449
	c-0.02863-0.01501-0.05188-0.04193-0.08154-0.05402c-0.1001-0.04077-0.20642-0.05457-0.31262-0.06146
	c-0.02161-0.0014-0.04199-0.01221-0.0636-0.01227c-0.08502-0.00006-0.16718,0.02667-0.24994,0.04822
	c-0.04205,0.01093-0.08624,0.00842-0.12683,0.0249c-0.06744,0.02734-0.1239,0.08014-0.18518,0.12274
	c-0.04791,0.03333-0.10211,0.05328-0.1449,0.09601c0,0-0.00043,0.00079-0.00079,0.00116s-0.00079,0.00043-0.00079,0.00043
	l-8.15247,8.17639l-8.4436-8.18774C6.68616,7.2724,6.67255,7.26959,6.66211,7.26025
	C6.61035,7.21399,6.54944,7.18396,6.48914,7.14923C6.43536,7.11847,6.38599,7.0816,6.32861,7.06165
	C6.27386,7.0423,6.21497,7.04059,6.15674,7.03107C6.08582,7.01978,6.01721,7.00464,5.94568,7.00854
	C5.93225,7.00928,5.92029,7.00311,5.90674,7.00439C5.85754,7.00903,5.81732,7.03406,5.77069,7.04541
	C5.70227,7.06171,5.6355,7.07483,5.57117,7.10559c-0.06464,0.03107-0.117,0.07507-0.17279,0.11847
	C5.36072,7.25311,5.31628,7.26862,5.28223,7.30371c-0.00946,0.0097-0.01208,0.02283-0.02106,0.03284
	C5.21326,7.38983,5.18195,7.4527,5.14636,7.51514C5.11688,7.56708,5.08112,7.61475,5.06177,7.6701
	C5.04248,7.72467,5.04071,7.78339,5.03113,7.84143C5.01947,7.91327,5.00433,7.98279,5.00842,8.0553
	c0.00073,0.01312-0.00525,0.02478-0.00403,0.03796l3,32c0.03564,0.3833,0.28857,0.71143,0.64941,0.84473
	c0.35697,0.1329,0.7642,0.04948,1.04248-0.22021l6.1333-5.94745l7.44189,7.91473C23.46045,42.88623,23.72412,43,24,43
	s0.53955-0.11377,0.72852-0.31494l7.44189-7.91473l6.1333,5.94745c0.27828,0.2697,0.68552,0.35311,1.04248,0.22021
	c0.36084-0.1333,0.61377-0.46143,0.64941-0.84473l3-32c0.00122-0.01324-0.00476-0.02484-0.00403-0.03796
	C42.99561,7.98297,42.98059,7.91364,42.96899,7.84198z M40.75159,10.60358l-1.09521,11.68268l-5.38397-5.39984L40.75159,10.60358z
	 M39.0614,24.52179l-6.95685,7.3988l-6.66809-6.46606l7.40015-7.17584L39.0614,24.52179z M24,9.41614l7.42432,7.44611L24,24.06158
	l-7.42432-7.19934L24,9.41614z M22.56354,25.45453l-6.66809,6.46606l-6.95685-7.3988l6.22479-6.2431L22.56354,25.45453z
	 M8.34363,22.28625L7.24841,10.60358l6.47919,6.28284L8.34363,22.28625z M9.80078,37.83057L8.81451,27.30951l5.6449,6.0036
	L9.80078,37.83057z M24,40.54004l-6.73438-7.16223L24,26.84753l6.73438,6.53027L24,40.54004z M38.19922,37.83057l-4.65863-4.51746
	l5.6449-6.0036L38.19922,37.83057z"/>
<path fill="#EA9860" d="M46,9H2C1.44775,9,1,8.55225,1,8V6c0-0.55225,0.44775-1,1-1h44c0.55225,0,1,0.44775,1,1v2
	C47,8.55225,46.55225,9,46,9z"/>
</g></svg>