<svg xmlns="http://www.w3.org/2000/svg" xmlns:xlink="http://www.w3.org/1999/xlink" x="0px" y="0px" width="48px" height="48px" viewBox="0 0 48 48"><g >
<path fill="#E0E0E0" d="M16,18c-0.51172,0-1.02344-0.19531-1.41406-0.58594l-12-12c-0.78125-0.78076-0.78125-2.04736,0-2.82812
	c0.78125-0.78125,2.04688-0.78125,2.82812,0l12,12c0.78125,0.78076,0.78125,2.04736,0,2.82812C17.02344,17.80469,16.51172,18,16,18z
	"/>
<path fill="#E0E0E0" d="M4,18c-0.51172,0-1.02344-0.19531-1.41406-0.58594c-0.78125-0.78076-0.78125-2.04736,0-2.82812l12-12
	c0.78125-0.78125,2.04688-0.78125,2.82812,0c0.78125,0.78076,0.78125,2.04736,0,2.82812l-12,12C5.02344,17.80469,4.51172,18,4,18z"/>
<path fill="#E0E0E0" d="M44,46c-0.51172,0-1.02344-0.19531-1.41406-0.58594l-12-12c-0.78125-0.78125-0.78125-2.04688,0-2.82812
	s2.04688-0.78125,2.82812,0l12,12c0.78125,0.78125,0.78125,2.04688,0,2.82812C45.02344,45.80469,44.51172,46,44,46z"/>
<path fill="#E0E0E0" d="M32,46c-0.51172,0-1.02344-0.19531-1.41406-0.58594c-0.78125-0.78125-0.78125-2.04688,0-2.82812l12-12
	c0.78125-0.78125,2.04688-0.78125,2.82812,0s0.78125,2.04688,0,2.82812l-12,12C33.02344,45.80469,32.51172,46,32,46z"/>
<path fill="#72C472" d="M44,2H33c-1.10449,0-2,0.89551-2,2s0.89551,2,2,2h6.17188L19.22882,25.94305
	C17.4563,24.72021,15.31171,24,13,24C6.93427,24,2,28.9342,2,35c0,6.06573,4.93427,11,11,11s11-4.93427,11-11
	c0-2.31171-0.72015-4.45636-1.94299-6.22888L42,8.82812V15c0,1.10449,0.89551,2,2,2s2-0.89551,2-2V4C46,2.89551,45.10449,2,44,2z
	 M13,42c-3.85938,0-7-3.14062-7-7s3.14062-7,7-7s7,3.14062,7,7S16.85938,42,13,42z"/>
</g></svg>