<svg xmlns="http://www.w3.org/2000/svg" xmlns:xlink="http://www.w3.org/1999/xlink" x="0px" y="0px" width="48px" height="48px" viewBox="0 0 48 48"><g >
<path fill="#999999" d="M2,45c-0.55225,0-1-0.44775-1-1V34c0-0.55225,0.44775-1,1-1h10.15381
	C13.00244,29.08838,13.00098,24.91992,13,22.25342V22c0-0.55225,0.44775-1,1-1s1,0.44775,1,1v0.25293
	C15.00098,24.91211,15.00244,29.01172,14.19727,33H24c0.55225,0,1,0.44775,1,1s-0.44775,1-1,1H13.71729
	c-0.08203,0.2915-0.16943,0.58105-0.26221,0.86768C11.49072,41.92725,7.63672,45,2,45z M3,35v7.96045
	c4.18066-0.34033,6.98438-2.87109,8.55225-7.70947c0.02734-0.0835,0.05371-0.16699,0.07959-0.25098H3z"/>
<path fill="#E86C60" d="M32,47c-4.9624,0-9-4.0376-9-9V26c0-1.6543-1.3457-3-3-3H2.10107c-0.28076,0-0.54883-0.11816-0.73828-0.3252
	c-0.18945-0.20752-0.28271-0.48486-0.25781-0.76465C2.18066,9.98926,12.02344,1,24,1c11.83691,0,21.93799,9.18506,22.99609,20.91016
	L47,26c0,2.25293-1.6333,3.91992-3.21338,5.53223C42.35352,32.99463,41,34.37598,41,36v2C41,42.9624,36.9624,47,32,47z"/>
<path fill="#C94F49" d="M32,43c-2.75716,0-5-2.24284-5-5s2.24284-5,5-5s5,2.24284,5,5S34.75716,43,32,43z"/>
<ellipse transform="matrix(0.90683 -0.4215 0.4215 0.90683 -3.74738 6.64529)" opacity="0.2" fill="#FFFFFF" cx="13.15755" cy="11.79899" rx="4" ry="3"/>
<path fill="#444444" d="M32,40c-1.10287,0-2-0.89714-2-2s0.89713-2,2-2c1.10286,0,2,0.89714,2,2S33.10286,40,32,40z"/>
</g></svg>