<svg xmlns="http://www.w3.org/2000/svg" xmlns:xlink="http://www.w3.org/1999/xlink" x="0px" y="0px" width="48px" height="48px" viewBox="0 0 48 48"><g >
<path fill="#BADEFC" d="M16,15H6c-0.55225,0-1-0.44775-1-1s0.44775-1,1-1h10c0.55225,0,1,0.44775,1,1S16.55225,15,16,15z"/>
<path fill="#BADEFC" d="M16,35H6c-0.55225,0-1-0.44775-1-1s0.44775-1,1-1h10c0.55225,0,1,0.44775,1,1S16.55225,35,16,35z"/>
<path fill="#BADEFC" d="M12,25H2c-0.55225,0-1-0.44775-1-1s0.44775-1,1-1h10c0.55225,0,1,0.44775,1,1S12.55225,25,12,25z"/>
<circle fill="#E6E6E6" cx="34" cy="24" r="13"/>
<path fill="#E86C60" d="M33.94946,11.00256C33.97681,11.33234,34,11.66333,34,12c0,6.6167-5.3833,12-12,12
	c-0.33667,0-0.66766-0.02319-0.99744-0.05054C21.0025,23.96649,21,23.98291,21,24c0,0.66724,0.0661,1.3175,0.16302,1.95764
	C21.44147,25.97424,21.71747,26,22,26c7.71973,0,14-6.28027,14-14c0-0.28253-0.02576-0.55853-0.04236-0.83698
	C35.3175,11.0661,34.66724,11,34,11C33.98291,11,33.96649,11.0025,33.94946,11.00256z"/>
<path fill="#E86C60" d="M34,36c0-6.6167,5.3833-12,12-12c0.33667,0,0.66766,0.02319,0.99744,0.05054
	C46.9975,24.03351,47,24.01709,47,24c0-0.66724-0.0661-1.3175-0.16302-1.95764C46.55853,22.02576,46.28253,22,46,22
	c-7.71973,0-14,6.28027-14,14c0,0.28253,0.02576,0.55853,0.04236,0.83698C32.6825,36.9339,33.33276,37,34,37
	c0.01709,0,0.03351-0.0025,0.05054-0.00256C34.02319,36.66766,34,36.33667,34,36z"/>
</g></svg>