<svg xmlns="http://www.w3.org/2000/svg" xmlns:xlink="http://www.w3.org/1999/xlink" x="0px" y="0px" width="48px" height="48px" viewBox="0 0 48 48"><g >
<path fill="#335262" d="M35.95752,30.24414l-11-6c-0.62012-0.33789-1.37158-0.32324-1.97852,0.03613
	C22.37207,24.64062,22,25.29395,22,26v14c0,0.75195,0.42188,1.44043,1.09229,1.78223C23.37891,41.92773,23.68994,42,24,42
	c0.41504,0,0.82812-0.12891,1.17627-0.38281l11-8c0.55469-0.40332,0.86377-1.0625,0.81934-1.74609
	C36.95166,31.18652,36.55957,30.57227,35.95752,30.24414z"/>
<circle fill="#5A7A84" cx="24" cy="6" r="6"/>
<path fill="#5A7A84" d="M43,14H5c-1.10449,0-2,0.89551-2,2s0.89551,2,2,2h14.19635l2.81439,27.20605
	C22.11621,46.22559,22.9751,47,24,47s1.88379-0.77441,1.98926-1.79395L28.80365,18H43c1.10449,0,2-0.89551,2-2S44.10449,14,43,14z"/>
</g></svg>