<svg xmlns="http://www.w3.org/2000/svg" xmlns:xlink="http://www.w3.org/1999/xlink" x="0px" y="0px" width="48px" height="48px" viewBox="0 0 48 48"><g >
<path fill="#88C057" d="M24,45C12.42041,45,3,35.5791,3,24C3,12.42041,12.42041,3,24,3s21,9.42041,21,21
	C45,35.5791,35.57959,45,24,45z"/>
<path fill="#E6E6E6" d="M8.79572,9.55579C12.6095,13.19989,15,18.32135,15,24c0,5.67883-2.39038,10.80017-6.20404,14.44421
	c0.4624,0.48657,0.94684,0.94989,1.45349,1.3905C14.40619,35.8302,17,30.21399,17,24c0-6.21405-2.59381-11.83026-6.75061-15.83484
	C9.74261,8.60577,9.25818,9.06921,8.79572,9.55579z"/>
<path fill="#E6E6E6" d="M33,24c0-5.67865,2.3905-10.80011,6.20428-14.44421c-0.46246-0.48657-0.9469-0.95001-1.45367-1.39062
	C33.59381,12.16974,31,17.78595,31,24c0,6.21399,2.59381,11.8302,6.75055,15.83472c0.50665-0.44061,0.99109-0.90393,1.45349-1.3905
	C35.39038,34.80017,33,29.67883,33,24z"/>
</g></svg>