<svg xmlns="http://www.w3.org/2000/svg" xmlns:xlink="http://www.w3.org/1999/xlink" x="0px" y="0px" width="48px" height="48px" viewBox="0 0 48 48"><g >
<path fill="#5B5B5B" d="M26.91174,33.26489l3.33325-10C31.1084,20.6748,29.18054,18,26.45032,18H1.77606
	C1.27258,19.90991,1,21.91931,1,24v12h22.11694C24.83875,36,26.36719,34.89819,26.91174,33.26489z"/>
<path fill="#43A6DD" d="M40.11328,7.5874c-4.44141-4.35986-10.34473-6.69189-16.54395-6.5835
	C12.99347,1.19775,4.33691,8.28607,1.77606,18h24.67426c2.73022,0,4.65808,2.6748,3.79468,5.26489l-3.33325,10
	C26.36719,34.89819,24.83875,36,23.11694,36H1c0,6.06543,4.93457,11,11,11h18c9.37402,0,17-7.62598,17-17v-6
	C47,17.77686,44.55371,11.94775,40.11328,7.5874z"/>
<ellipse transform="matrix(0.90683 -0.4215 0.4215 0.90683 -3.77674 6.51247)" opacity="0.2" fill="#FFFFFF" cx="12.84245" cy="11.79899" rx="4" ry="3"/>
</g></svg>