<svg xmlns="http://www.w3.org/2000/svg" xmlns:xlink="http://www.w3.org/1999/xlink" x="0px" y="0px" width="48px" height="48px" viewBox="0 0 48 48"><g >
<path fill="#335262" d="M12.99994,24c-0.51172,0-1.02393-0.19531-1.41406-0.58594c-0.78125-0.78125-0.78125-2.04688,0-2.82812l6-6
	C17.96088,14.21094,18.46967,14,18.99994,14h10c1.10449,0,2,0.89551,2,2s-0.89551,2-2,2h-9.17139L14.414,23.41406
	C14.02386,23.80469,13.51166,24,12.99994,24z"/>
<path fill="#335262" d="M28.99994,38h-14c-0.75732,0-1.4502-0.42773-1.78906-1.10547
	c-0.33838-0.67773-0.26562-1.48828,0.18896-2.09473l6-8c0.34814-0.46387,0.87988-0.75391,1.4585-0.79492
	c0.5835-0.03125,1.146,0.1709,1.55566,0.58105l8,8c0.57227,0.57227,0.74316,1.43164,0.43359,2.17969
	C30.53802,37.5127,29.80902,38,28.99994,38z"/>
<circle fill="#5A7A84" cx="36.99994" cy="8" r="6"/>
<path fill="#5A7A84" d="M46.41406,14.58594c-0.78027-0.78125-2.04785-0.78125-2.82812,0l-5.67725,5.67676
	c0,0-5.49969-4.93323-5.83374-5.21173c-1.92358-1.60358-4.78467-1.34332-6.38824,0.58142L7.29376,42.05804
	c-1.40741,2.02203,1.37402,4.3045,3.08246,2.52948l22.2796-23.14777c0.06451-0.07739,0.10706-0.16467,0.16559-0.245l3.86169,3.31012
	C37.06104,24.83594,37.53076,25,37.99951,25c0.51367,0,1.02539-0.19629,1.41455-0.58594l7-7
	C47.19531,16.63281,47.19531,15.36719,46.41406,14.58594z"/>
</g></svg>