<svg xmlns="http://www.w3.org/2000/svg" xmlns:xlink="http://www.w3.org/1999/xlink" x="0px" y="0px" width="48px" height="48px" viewBox="0 0 48 48"><g >
<path fill="#444444" d="M24,17c-6.10785,0-12.11554,0.42487-18,1.23663V23h0.00001C14.28428,23,21,29.71572,21,37.99998V46h6
	v-8.00002C27,29.71572,33.71572,23,41.99998,23H42v-4.76337C36.11554,17.42487,30.10785,17,24,17z"/>
<path fill="#5B5B5B" d="M24,1C11.31738,1,1,11.31787,1,24c0,12.68262,10.31738,23,23,23s23-10.31738,23-23
	C47,11.31787,36.68262,1,24,1z M24,42c-9.9248,0-18-8.0752-18-18c0-9.92529,8.0752-18,18-18s18,8.07471,18,18
	C42,33.9248,33.9248,42,24,42z"/>
<path fill="#999999" d="M24,28c-2.20547,0-4-1.79453-4-4s1.79453-4,4-4s4,1.79453,4,4S26.20547,28,24,28z"/>
</g></svg>