<svg xmlns="http://www.w3.org/2000/svg" xmlns:xlink="http://www.w3.org/1999/xlink" x="0px" y="0px" width="48px" height="48px" viewBox="0 0 48 48"><g >
<path fill="#87613E" d="M36.5,11.5l8.115,8.115c1.393-6.631,0.644-12.581-1.5-14.73l-4.303,2.74L36.5,11.5z"/>
<path fill="#87613E" d="M24.289,43.289c3.696-1.321,8.002-3.543,11.753-7.294c3.407-3.407,5.762-7.547,7.25-11.703L33.5,14.5
	l-10.75,8.062L14.5,33.5L24.289,43.289z"/>
<path fill="#87613E" d="M13.094,45.333c1.617,0,3.372-0.151,5.196-0.463c0.403-0.069,0.852-0.156,1.324-0.256L11.5,36.5
	l-3.812,1.312l-2.756,5.256C6.408,44.542,9.394,45.333,13.094,45.333z"/>
<path fill="#A67C52" d="M43.112,4.882c-2.146-2.147-8.099-2.897-14.733-1.503L36.5,11.5l6.615-6.615
	C43.114,4.884,43.113,4.883,43.112,4.882z"/>
<path fill="#A67C52" d="M12,11.953c-3.76,3.76-5.987,8.051-7.311,11.736L14.5,33.5l19-19l-9.797-9.797
	C19.547,6.191,15.407,8.546,12,11.953z"/>
<path fill="#A67C52" d="M3.093,29.742c-1.009,5.97-0.289,11.2,1.835,13.324c0.001,0.001,0.002,0.002,0.003,0.003L11.5,36.5
	l-8.141-8.141C3.255,28.854,3.164,29.322,3.093,29.742z"/>
<path fill="#E6E6E6" d="M3.359,28.359l16.254,16.254c1.344-0.284,2.939-0.704,4.675-1.325l-19.6-19.6
	C4.067,25.421,3.644,27.015,3.359,28.359z"/>
<path fill="#E6E6E6" d="M28.379,3.379c-1.536,0.323-3.106,0.761-4.677,1.323l19.589,19.589c0.562-1.57,1.001-3.141,1.323-4.677
	L28.379,3.379z"/>
<path fill="#E6E6E6" d="M31.707,22.293L29.414,20l1.293-1.293c0.391-0.391,0.391-1.023,0-1.414s-1.023-0.391-1.414,0L28,18.586
	l-2.293-2.293c-0.391-0.391-1.023-0.391-1.414,0s-0.391,1.023,0,1.414L26.586,20L24,22.586l-2.293-2.293
	c-0.391-0.391-1.023-0.391-1.414,0s-0.391,1.023,0,1.414L22.586,24l-2.585,2.585l-2.294-2.292c-0.391-0.391-1.024-0.391-1.415,0
	c-0.39,0.391-0.39,1.024,0,1.414l2.294,2.292l-1.294,1.294c-0.391,0.391-0.391,1.023,0,1.414C17.488,30.902,17.744,31,18,31
	s0.512-0.098,0.707-0.293l1.294-1.294l2.292,2.291c0.195,0.195,0.451,0.293,0.707,0.293s0.512-0.098,0.708-0.293
	c0.39-0.391,0.39-1.024,0-1.414l-2.292-2.291L24,25.414l2.293,2.293C26.488,27.902,26.744,28,27,28s0.512-0.098,0.707-0.293
	c0.391-0.391,0.391-1.023,0-1.414L25.414,24L28,21.414l2.293,2.293C30.488,23.902,30.744,24,31,24s0.512-0.098,0.707-0.293
	C32.098,23.316,32.098,22.684,31.707,22.293z"/>
</g></svg>