<svg xmlns="http://www.w3.org/2000/svg" xmlns:xlink="http://www.w3.org/1999/xlink" x="0px" y="0px" width="48px" height="48px" viewBox="0 0 48 48"><g >
<path fill="#458BC4" d="M12.29476,27.57104c1.00763,1.74521,2.20959,3.30813,3.5625,4.6778
	C19.12643,30.30366,21.96271,27.5287,24,24c-2.0369-3.52802-3.03029-7.37129-3.08063-11.17434c0,0-0.00174,0.00036-0.00258,0.00059
	c0.00084-0.00023,0.00174-0.00037,0.00174-0.00037c-0.05402-4.14312,1.01085-8.23825,3.07715-11.82577
	c-4.13871,0.00076-8.01847,1.10011-11.37332,3.01417C8.3468,10.97541,7.92322,19.99929,12.29476,27.57104z"/>
<path fill="#E6E6E6" d="M26.76,12.07745c-2.01814,0-3.97553,0.26001-5.84063,0.7482C20.96971,16.62871,21.9631,20.47198,24,24
	c4.0738,0,7.89884,1.06128,11.21758,2.91922c0.00023-0.00084,0.00056-0.00168,0.00079-0.00253
	c-0.00023,0.00084-0.00056,0.00168-0.00079,0.00253c3.61438,2.02342,6.62777,4.99225,8.70148,8.57432
	c1.93425-3.34483,3.05289-7.21909,3.07743-11.35493C43.10561,16.95577,35.50275,12.07745,26.76,12.07745z"/>
<path fill="#E6E6E6" d="M12.29476,27.57104C7.92322,19.99929,8.3468,10.97541,12.62236,4.01429C5.68221,7.9739,1,15.43781,1,24
	c0,4.19219,1.12712,8.11884,3.08661,11.50343c4.13829-0.0048,8.21152-1.13686,11.77065-3.25459
	C14.50436,30.87917,13.30239,29.31625,12.29476,27.57104z"/>
<path fill="#EFD358" d="M20.91937,12.82566c1.8651-0.48819,3.82249-0.7482,5.84063-0.7482
	c8.74275,0,16.34561,4.87832,20.23649,12.06116C46.99677,24.09217,47,24.04649,47,24C47,11.29744,36.70256,1,24,1
	c-0.00146,0-0.00286,0.00011-0.00432,0.00011C21.92938,4.58763,20.86451,8.68276,20.91937,12.82566z"/>
<path fill="#458BC4" d="M35.21758,26.91922c-0.50975,1.85937-1.26326,3.68449-2.27235,5.43229
	C28.5735,39.9236,20.54627,44.06868,12.37961,43.84612C15.79039,45.84758,19.7596,47,24,47
	c8.51443,0,15.94266-4.63018,19.91906-11.50646C41.84536,31.91147,38.83197,28.94264,35.21758,26.91922z"/>
<path fill="#EFD358" d="M32.94524,32.35151c1.00909-1.7478,1.7626-3.57292,2.27235-5.43229C31.89884,25.06128,28.0738,24,24,24
	c-2.03729,3.5287-4.87357,6.30366-8.14274,8.24884c0.00261,0.00264,0.005,0.00556,0.00761,0.0082
	c-0.00261-0.00264-0.005-0.00556-0.00761-0.0082c-3.55913,2.11773-7.63237,3.24979-11.77065,3.25459
	c1.99579,3.44733,4.8585,6.3273,8.293,8.34269C20.54627,44.06868,28.5735,39.9236,32.94524,32.35151z"/>
</g></svg>