<svg xmlns="http://www.w3.org/2000/svg" xmlns:xlink="http://www.w3.org/1999/xlink" x="0px" y="0px" width="48px" height="48px" viewBox="0 0 48 48"><g >
<path fill="#E6E6E6" d="M24,45C12.42041,45,3,35.5791,3,24C3,12.42041,12.42041,3,24,3s21,9.42041,21,21
	C45,35.5791,35.57959,45,24,45z"/>
<path fill="#E86C60" d="M8.79572,9.55579C12.6095,13.19989,15,18.32135,15,24c0,5.67883-2.39038,10.80017-6.20404,14.44421
	c0.4624,0.48657,0.94684,0.94989,1.45349,1.3905C14.40619,35.8302,17,30.21399,17,24c0-6.21405-2.59381-11.83026-6.75061-15.83484
	C9.74261,8.60577,9.25818,9.06921,8.79572,9.55579z"/>
<path fill="#E86C60" d="M33,24c0-5.67865,2.3905-10.80011,6.20428-14.44421c-0.46246-0.48657-0.9469-0.95001-1.45367-1.39062
	C33.59381,12.16974,31,17.78595,31,24c0,6.21399,2.59381,11.8302,6.75055,15.83472c0.50665-0.44061,0.99109-0.90393,1.45349-1.3905
	C35.39038,34.80017,33,29.67883,33,24z"/>
<path fill="#E86C60" d="M18,25h-4c-0.55225,0-1-0.44775-1-1s0.44775-1,1-1h4c0.55225,0,1,0.44775,1,1S18.55225,25,18,25z"/>
<path fill="#E86C60" d="M15.99902,35c-0.1499,0-0.30273-0.03418-0.44629-0.10547l-4-2
	c-0.49414-0.24707-0.69434-0.84766-0.44727-1.3418c0.24658-0.49316,0.84619-0.69336,1.3418-0.44727l4,2
	c0.49414,0.24707,0.69434,0.84766,0.44727,1.3418C16.71924,34.79785,16.36621,35,15.99902,35z"/>
<path fill="#E86C60" d="M12.00098,17c-0.36719,0-0.72021-0.20215-0.89551-0.55273c-0.24707-0.49414-0.04688-1.09473,0.44727-1.3418
	l4-2c0.49512-0.24805,1.09521-0.04688,1.3418,0.44727c0.24707,0.49414,0.04688,1.09473-0.44727,1.3418l-4,2
	C12.30371,16.96631,12.15088,17,12.00098,17z"/>
<path fill="#E86C60" d="M34,25h-4c-0.55225,0-1-0.44775-1-1s0.44775-1,1-1h4c0.55225,0,1,0.44775,1,1S34.55225,25,34,25z"/>
<path fill="#E86C60" d="M32.00098,35c-0.36719,0-0.72021-0.20215-0.89551-0.55273c-0.24707-0.49414-0.04688-1.09473,0.44727-1.3418
	l4-2c0.49512-0.24609,1.09473-0.0459,1.3418,0.44727c0.24707,0.49414,0.04688,1.09473-0.44727,1.3418l-4,2
	C32.30371,34.96582,32.15088,35,32.00098,35z"/>
<path fill="#E86C60" d="M35.99902,17c-0.1499,0-0.30273-0.03369-0.44629-0.10547l-4-2
	c-0.49414-0.24707-0.69434-0.84766-0.44727-1.3418c0.24658-0.49414,0.8457-0.69531,1.3418-0.44727l4,2
	c0.49414,0.24707,0.69434,0.84766,0.44727,1.3418C36.71924,16.79785,36.36621,17,35.99902,17z"/>
</g></svg>