<svg xmlns="http://www.w3.org/2000/svg" xmlns:xlink="http://www.w3.org/1999/xlink" x="0px" y="0px" width="48px" height="48px" viewBox="0 0 48 48"><g >
<path fill="#444444" d="M12,35V13c0-0.55229-0.44771-1-1-1H9c-0.55229,0-1,0.44771-1,1v22c0,0.55228,0.44771,1,1,1h2
	C11.55229,36,12,35.55228,12,35z"/>
<path fill="#5B5B5B" d="M8,31V17c0-0.55228-0.44772-1-1-1H5c-0.55228,0-1,0.44772-1,1v14c0,0.55228,0.44772,1,1,1h2
	C7.55228,32,8,31.55228,8,31z"/>
<path fill="#444444" d="M40,35V13c0-0.55229-0.44772-1-1-1h-2c-0.55228,0-1,0.44771-1,1v22c0,0.55228,0.44772,1,1,1h2
	C39.55228,36,40,35.55228,40,35z"/>
<path fill="#5B5B5B" d="M44,31V17c0-0.55228-0.44772-1-1-1h-2c-0.55228,0-1,0.44772-1,1v14c0,0.55228,0.44772,1,1,1h2
	C43.55228,32,44,31.55228,44,31z"/>
<rect x="12" y="22" fill="#B3B3B3" width="24" height="4"/>
<path fill="#B3B3B3" d="M4,22H2c-0.55228,0-1,0.44772-1,1v2c0,0.55228,0.44772,1,1,1h2V22z"/>
<path fill="#B3B3B3" d="M46,22h-2v4h2c0.55228,0,1-0.44772,1-1v-2C47,22.44772,46.55228,22,46,22z"/>
</g></svg>