<svg xmlns="http://www.w3.org/2000/svg" xmlns:xlink="http://www.w3.org/1999/xlink" x="0px" y="0px" width="48px" height="48px" viewBox="0 0 48 48"><g >
<path fill="#E0E0E0" d="M43.65597,21l-29.27189-0.00001c-7.07648,0-13.14594,5.49192-13.37695,12.56463
	c-0.24688,7.55832,5.96066,13.73019,13.5315,13.42448c4.89497-0.19766,9.20366-3.33035,11.2722-7.77118
	c1.37392-2.94959,1.42152-5.70719,0.82736-8.21792h14.61779c0.44161,0,0.83093-0.28967,0.95782-0.71265l2.4-8
	C44.80628,21.64573,44.32583,21,43.65597,21z"/>
<path fill="#E86C60" d="M24,9c-0.55225,0-1-0.44775-1-1V2c0-0.55225,0.44775-1,1-1s1,0.44775,1,1v6C25,8.55225,24.55225,9,24,9z"/>
<path fill="#E86C60" d="M33.89941,13.10059c-0.25586,0-0.51172-0.09766-0.70703-0.29297c-0.39062-0.39062-0.39062-1.02344,0-1.41406
	l4.24268-4.24268c0.39062-0.39062,1.02344-0.39062,1.41406,0s0.39062,1.02344,0,1.41406l-4.24268,4.24268
	C34.41113,13.00293,34.15527,13.10059,33.89941,13.10059z"/>
<path fill="#E86C60" d="M14.10059,13.10059c-0.25586,0-0.51172-0.09766-0.70703-0.29297L9.15088,8.56494
	c-0.39062-0.39062-0.39062-1.02344,0-1.41406s1.02344-0.39062,1.41406,0l4.24268,4.24268c0.39062,0.39062,0.39062,1.02344,0,1.41406
	C14.6123,13.00293,14.35645,13.10059,14.10059,13.10059z"/>
<path fill="#B3B3B3" d="M14,40c-3.30859,0-6-2.69141-6-6s2.69141-6,6-6s6,2.69141,6,6S17.30859,40,14,40z"/>
</g></svg>