<svg xmlns="http://www.w3.org/2000/svg" xmlns:xlink="http://www.w3.org/1999/xlink" x="0px" y="0px" width="48px" height="48px" viewBox="0 0 48 48"><g >
<path fill="#B3B3B3" d="M14.5,47C8.70996,47,4,42.29004,4,36.5V28c0-0.36035,0.19336-0.69238,0.50684-0.87012
	s0.69824-0.17188,1.00781,0.0127l5,3c0.47363,0.28418,0.62695,0.89844,0.34277,1.37207s-0.89844,0.62695-1.37207,0.34277L6,29.7666
	V36.5c0,4.68652,3.81348,8.5,8.5,8.5s8.5-3.81348,8.5-8.5V9c0-0.55225,0.44727-1,1-1s1,0.44775,1,1v27.5
	C25,42.29004,20.29004,47,14.5,47z"/>
<path fill="#B3B3B3" d="M24,9c-2.20605,0-4-1.79443-4-4s1.79395-4,4-4s4,1.79443,4,4S26.20605,9,24,9z M24,3
	c-1.10254,0-2,0.89697-2,2s0.89746,2,2,2s2-0.89697,2-2S25.10254,3,24,3z"/>
<path fill="#B3B3B3" d="M33.5,47C27.70996,47,23,42.29004,23,36.5c0-0.55273,0.44727-1,1-1s1,0.44727,1,1
	c0,4.68652,3.81348,8.5,8.5,8.5s8.5-3.81348,8.5-8.5v-6.7334l-3.48535,2.09082c-0.47363,0.28418-1.08887,0.13086-1.37207-0.34277
	c-0.28418-0.47363-0.13086-1.08789,0.34277-1.37207l5-3c0.30957-0.18457,0.69434-0.19043,1.00781-0.0127S44,27.63965,44,28v8.5
	C44,42.29004,39.29004,47,33.5,47z"/>
<path fill="#8680D8" d="M24,27L24,27c-1.65686,0-3-1.34314-3-3V12c0-1.65685,1.34315-3,3-3H24c1.65685,0,3,1.34314,3,3V24
	C27,25.65686,25.65686,27,24,27z"/>
</g></svg>