<svg xmlns="http://www.w3.org/2000/svg" xmlns:xlink="http://www.w3.org/1999/xlink" x="0px" y="0px" width="48px" height="48px" viewBox="0 0 48 48"><g >
<path fill="#43A6DD" d="M43.10254,4.89746C41.12933,2.92426,38.5871,1.87061,36,1.71283v24.3382
	c2.401-1.6767,5.06567-3.56104,7.10254-5.5979C47.3916,16.16406,47.3916,9.18652,43.10254,4.89746z"/>
<path fill="#43A6DD" d="M4.91895,27.52441c-4.28906,4.28906-4.28809,11.26855,0,15.55664
	C6.88635,45.04846,9.41968,46.10211,12,46.26459V21.93555C9.6131,23.60028,6.97449,25.46887,4.91895,27.52441z"/>
<path fill="#9EDB9E" d="M12.37207,21.67578C12.24982,21.76099,12.12372,21.84924,12,21.93555v24.32904
	c0.2323,0.01465,0.46454,0.03326,0.69727,0.03326c0.43536,0,0.86981-0.03473,1.30273-0.086V20.53363
	C13.47272,20.90814,12.92731,21.28882,12.37207,21.67578z"/>
<path fill="#9EDB9E" d="M34,1.76978v25.68616c0.54895-0.39105,1.11749-0.7887,1.69727-1.19324
	c0.09949-0.0694,0.20227-0.14148,0.30273-0.21167V1.71283C35.33282,1.67212,34.66418,1.68982,34,1.76978z"/>
<path fill="#43A6DD" d="M14,20.53363v25.67822c0.67639-0.08008,1.34503-0.22925,2-0.43335V19.05389
	C15.38812,19.53369,14.71252,20.02753,14,20.53363z"/>
<path fill="#43A6DD" d="M27.54688,4.89746c-2.12207,2.12207-4.08105,4.92871-5.80957,7.40527
	c-1.3266,1.90131-2.58612,3.70099-3.7373,4.94946v27.67645c0.88751-0.48621,1.72443-1.09644,2.47559-1.8476
	c2.16211-2.16211,4.12012-4.97266,5.84863-7.45312C27.6264,33.75946,28.862,31.98877,30,30.74896V3.06195
	C29.12085,3.5462,28.29175,4.15259,27.54688,4.89746z"/>
<path fill="#43A6DD" d="M34,1.76978c-0.67657,0.08148-1.34515,0.23212-2,0.43762v26.73285
	c0.61084-0.48065,1.28687-0.97632,2-1.48431V1.76978z"/>
<path fill="#9EDB9E" d="M17.64746,17.625C17.18793,18.08453,16.6275,18.56183,16,19.05389V45.7785
	c0.68787-0.21436,1.35736-0.4978,2-0.84985V17.2522C17.88171,17.38049,17.76337,17.50897,17.64746,17.625z"/>
<path fill="#9EDB9E" d="M30,3.06195v27.68701c0.12592-0.13721,0.25153-0.27295,0.375-0.39642
	c0.45349-0.45312,1.00574-0.92499,1.625-1.41229V2.2074C31.31201,2.42334,30.6424,2.70813,30,3.06195z"/>
</g></svg>