<svg xmlns="http://www.w3.org/2000/svg" xmlns:xlink="http://www.w3.org/1999/xlink" x="0px" y="0px" width="48px" height="48px" viewBox="0 0 48 48"><g >
<path fill="#458BC4" d="M37,32c-0.29883,0-0.5918-0.13379-0.78613-0.38184l-11-14.00049C25.0752,17.44141,25,17.22412,25,17
	c0-3.55176,2.38672-6.71338,5.80371-7.68799c0.5332-0.15234,1.08398,0.15576,1.23633,0.68652l5.92188,20.72705
	c0.13086,0.45898-0.08105,0.94727-0.50684,1.16504C37.31055,31.96484,37.1543,32,37,32z"/>
<path fill="#43A6DD" d="M44.03124,33.03027l-6.19822-2.7539L37.18262,28H34c-0.55273,0-1-0.44727-1-1s0.44727-1,1-1h2.61121
	l-0.57141-2H31c-0.55273,0-1-0.44727-1-1s0.44727-1,1-1h4.46832l-0.57141-2H28c-0.55273,0-1-0.44775-1-1s0.44727-1,1-1h6.1861
	c-0.70325-1.21222-1.99957-2-3.44928-2h-3.10609c-2.01848,0-3.93871-0.8713-5.26793-2.39032l-3.12561-3.5719
	C18.43962,9.12634,18,7.95637,18.00001,6.74524l0-2.20355c0-0.73722-0.33816-1.46962-0.9729-1.84459
	C16.22068,2.22071,15.22806,2.35788,14.58594,3L3.79297,13.79297c-0.39048,0.39048-0.39048,1.02358,0,1.41406l24.32812,24.32812
	C29.05902,40.47308,30.33112,41,31.65754,41H45c1.10457,0,2-0.89543,2-2v-1.4021C47,35.62246,45.83651,33.83236,44.03124,33.03027z"/>
<path fill="#E6E6E6" d="M30,23c0,0.55273,0.44727,1,1,1h5.03979l-0.57147-2H31C30.44727,22,30,22.44727,30,23z"/>
<path fill="#E6E6E6" d="M33,27c0,0.55273,0.44727,1,1,1h3.18262l-0.57141-2H34C33.44727,26,33,26.44727,33,27z"/>
<path fill="#E6E6E6" d="M27,19c0,0.55225,0.44727,1,1,1h6.89691l-0.31396-1.09888c-0.09235-0.3233-0.23376-0.62-0.39685-0.90112H28
	C27.44727,18,27,18.44775,27,19z"/>
<path fill="#E0E0E0" d="M42,45H29.89964c-2.12173,0-4.15656-0.84285-5.65685-2.34314L1.78662,20.20075
	C1.3367,19.75083,0.99234,19.188,0.87901,18.56189c-0.18185-1.0047,0.13062-1.98547,0.82802-2.68347L4.5,13.08594l24.74249,24.74249
	C29.99264,38.57857,31.01005,39,32.07092,39H47v1C47,42.76143,44.76143,45,42,45z"/>
</g></svg>