<svg xmlns="http://www.w3.org/2000/svg" xmlns:xlink="http://www.w3.org/1999/xlink" x="0px" y="0px" width="48px" height="48px" viewBox="0 0 48 48"><g >
<path fill="#999999" d="M32,47c-4.9624,0-9-4.03711-9-9V10c0-3.85938-3.14014-7-7-7s-7,3.14062-7,7v12c0,0.55273-0.44775,1-1,1
	s-1-0.44727-1-1V10c0-4.96289,4.0376-9,9-9s9,4.03711,9,9v28c0,3.85938,3.14014,7,7,7s7-3.14062,7-7V26c0-0.55273,0.44775-1,1-1
	s1,0.44727,1,1v12C41,42.96289,36.9624,47,32,47z"/>
<path fill="#458BC4" d="M5,42h6c0.55229,0,1-0.44772,1-1v-1H4v1C4,41.55228,4.44772,42,5,42z"/>
<polygon fill="#43A6DD" points="12,24 4,24 5,26 5,38 4,40 12,40 11,38 11,26 "/>
<path fill="#458BC4" d="M11,22H5c-0.55228,0-1,0.44772-1,1v1h8v-1C12,22.44772,11.55229,22,11,22z"/>
<polygon fill="#43A6DD" points="43,10 44,8 36,8 37,10 37,22 36,24 44,24 43,22 "/>
<path fill="#458BC4" d="M37,26h6c0.55228,0,1-0.44772,1-1v-1h-8v1C36,25.55228,36.44772,26,37,26z"/>
<path fill="#458BC4" d="M43,6h-6c-0.55228,0-1,0.44772-1,1v1h8V7C44,6.44772,43.55228,6,43,6z"/>
</g></svg>