<svg xmlns="http://www.w3.org/2000/svg" xmlns:xlink="http://www.w3.org/1999/xlink" x="0px" y="0px" width="48px" height="48px" viewBox="0 0 48 48"><g >
<path fill="#444444" d="M39,10H24H9c-0.125,4.625-6,3.375-6,8v25c0,2.20911,1.79083,4,4,4h17h17c2.20917,0,4-1.79089,4-4V18
	C45,13.375,39.125,14.625,39,10z"/>
<path fill="#B3B3B3" d="M40,10H8c-0.55228,0-1-0.44771-1-1V2c0-0.55228,0.44772-1,1-1h32c0.55228,0,1,0.44772,1,1v7
	C41,9.55229,40.55228,10,40,10z"/>
<path fill="#999999" d="M24,8c-0.55273,0-1-0.44775-1-1V4c0-0.55225,0.44727-1,1-1s1,0.44775,1,1v3C25,7.55225,24.55273,8,24,8z"/>
<path fill="#999999" d="M18,8c-0.55273,0-1-0.44775-1-1V4c0-0.55225,0.44727-1,1-1s1,0.44775,1,1v3C19,7.55225,18.55273,8,18,8z"/>
<rect x="3" y="23" fill="#C94F49" width="42" height="12"/>
<path fill="#999999" d="M30,8c-0.55273,0-1-0.44775-1-1V4c0-0.55225,0.44727-1,1-1s1,0.44775,1,1v3C31,7.55225,30.55273,8,30,8z"/>
<path fill="#999999" d="M36,8c-0.55273,0-1-0.44775-1-1V4c0-0.55225,0.44727-1,1-1s1,0.44775,1,1v3C37,7.55225,36.55273,8,36,8z"/>
<path fill="#999999" d="M12,8c-0.55273,0-1-0.44775-1-1V4c0-0.55225,0.44727-1,1-1s1,0.44775,1,1v3C13,7.55225,12.55273,8,12,8z"/>
<circle fill="#C94F49" cx="24" cy="29" r="12"/>
<path fill="#EFD358" d="M22.00391,37c-0.18066,0-0.36328-0.04883-0.52539-0.14893c-0.39453-0.24365-0.57031-0.72656-0.42383-1.1665
	L22.61328,31H18c-0.4043,0-0.76953-0.24365-0.92383-0.61719c-0.15527-0.37402-0.06934-0.80371,0.2168-1.08984l8-8
	c0.3291-0.32861,0.84082-0.38623,1.23242-0.14355c0.39453,0.24365,0.57031,0.72705,0.42285,1.16699L25.3877,27H30
	c0.4043,0,0.76855,0.24365,0.92383,0.61719s0.06934,0.80371-0.2168,1.08984l-7.99609,8C22.51855,36.8999,22.26172,37,22.00391,37z"/>
</g></svg>