<svg xmlns="http://www.w3.org/2000/svg" xmlns:xlink="http://www.w3.org/1999/xlink" x="0px" y="0px" width="48px" height="48px" viewBox="0 0 48 48"><g >
<path fill="none" d="M17,24.864c-1.199,2.163-3.372,3.708-5.922,4.054C11.522,31.792,14.005,34,17,34s5.478-2.208,5.922-5.081
	C20.372,28.573,18.199,27.028,17,24.864z"/>
<path fill="none" d="M15.893,22.107c-2.422,0.454-4.333,2.365-4.787,4.787C13.529,26.439,15.439,24.529,15.893,22.107z"/>
<path fill="none" d="M38.919,26.922C41.792,26.478,44,23.995,44,21c0-3.309-2.691-6-6-6c-2.995,0-5.478,2.208-5.922,5.081
	C35.626,20.563,38.437,23.374,38.919,26.922z"/>
<path fill="none" d="M31,24.864c-1.199,2.163-3.372,3.708-5.922,4.054C25.522,31.792,28.005,34,31,34s5.478-2.208,5.922-5.081
	C34.372,28.573,32.199,27.028,31,24.864z"/>
<path fill="none" d="M15.922,20.081C15.478,17.208,12.995,15,10,15c-3.309,0-6,2.691-6,6c0,2.995,2.208,5.478,5.081,5.922
	C9.563,23.374,12.374,20.563,15.922,20.081z"/>
<path fill="none" d="M32.107,22.107c0.454,2.422,2.365,4.333,4.787,4.787C36.439,24.471,34.529,22.561,32.107,22.107z"/>
<path fill="none" d="M24,24.136c1.199-2.163,3.372-3.708,5.922-4.054C29.478,17.208,26.995,15,24,15s-5.478,2.208-5.922,5.081
	C20.628,20.427,22.801,21.972,24,24.136z"/>
<path fill="none" d="M18.107,22.107c0.454,2.422,2.365,4.333,4.787,4.787C22.439,24.471,20.529,22.561,18.107,22.107z"/>
<path fill="none" d="M25.107,26.893c2.422-0.454,4.333-2.365,4.787-4.787C27.471,22.561,25.561,24.471,25.107,26.893z"/>
<path fill="#EFD358" d="M18.107,22.107c2.422,0.454,4.333,2.365,4.787,4.787c0.062,0.012,0.125,0.019,0.188,0.029
	c0.135-0.998,0.449-1.94,0.919-2.786c-1.199-2.163-3.372-3.708-5.922-4.054C18.031,20.382,18,20.687,18,21
	C18,21.378,18.039,21.747,18.107,22.107z"/>
<path fill="#EFD358" d="M23.06,28.94c-0.047-0.005-0.092-0.015-0.138-0.021C22.478,31.792,19.995,34,17,34s-5.478-2.208-5.922-5.081
	C11.031,28.618,11,28.313,11,28c0-0.378,0.039-0.747,0.107-1.107c0.454-2.422,2.365-4.333,4.787-4.787
	C15.961,21.747,16,21.378,16,21c0-0.313-0.031-0.618-0.078-0.919c-3.548,0.481-6.359,3.292-6.841,6.841C9.033,27.276,9,27.634,9,28
	c0,0.318,0.024,0.631,0.06,0.94C9.528,32.909,12.907,36,17,36c3.01,0,5.635-1.673,7-4.136C23.509,30.978,23.184,29.99,23.06,28.94z"/>
<path fill="#444444" d="M23.081,26.922c-0.063-0.01-0.126-0.017-0.188-0.029c-2.422-0.454-4.333-2.365-4.787-4.787
	C18.039,21.747,18,21.378,18,21c0,0.366-0.033,0.724-0.081,1.078c-0.135,0.998-0.449,1.94-0.919,2.786
	c1.199,2.163,3.372,3.708,5.922,4.054c0.046,0.006,0.092,0.016,0.138,0.021C23.024,28.631,23,28.318,23,28
	C23,27.634,23.033,27.276,23.081,26.922z"/>
<path fill="#458BC4" d="M17.94,20.06c-0.124-1.05-0.449-2.039-0.94-2.925C15.635,14.673,13.01,13,10,13c-4.411,0-8,3.589-8,8
	c0,4.093,3.091,7.472,7.06,7.94C9.024,28.631,9,28.318,9,28c0-0.366,0.033-0.724,0.081-1.078C6.208,26.478,4,23.995,4,21
	c0-3.309,2.691-6,6-6c2.995,0,5.478,2.208,5.922,5.081C15.969,20.382,16,20.687,16,21c0,0.378-0.039,0.747-0.107,1.107
	c-0.454,2.422-2.365,4.333-4.787,4.787C11.039,27.253,11,27.622,11,28c0,0.313,0.031,0.618,0.078,0.919
	c2.55-0.346,4.723-1.891,5.922-4.054c0.469-0.847,0.783-1.788,0.919-2.786C17.967,21.724,18,21.366,18,21
	C18,20.682,17.976,20.369,17.94,20.06z"/>
<path fill="#4DA34D" d="M38,29c-0.366,0-0.724-0.033-1.078-0.081C36.478,31.792,33.995,34,31,34s-5.478-2.208-5.922-5.081
	C25.031,28.618,25,28.313,25,28c0-0.378,0.039-0.747,0.107-1.107c0.454-2.422,2.365-4.333,4.787-4.787
	C29.961,21.747,30,21.378,30,21c0-0.313-0.031-0.618-0.078-0.919c-2.55,0.346-4.723,1.891-5.922,4.054
	c-0.469,0.847-0.783,1.788-0.919,2.786C23.033,27.276,23,27.634,23,28c0,0.318,0.024,0.631,0.06,0.94
	c0.124,1.05,0.449,2.039,0.94,2.925C25.365,34.327,27.99,36,31,36c4.093,0,7.472-3.091,7.94-7.06C38.631,28.976,38.318,29,38,29z"/>
<path fill="#4DA34D" d="M32.078,20.081c-0.046-0.006-0.092-0.016-0.138-0.021C31.976,20.369,32,20.682,32,21
	c0,0.366-0.033,0.724-0.081,1.078c0.063,0.01,0.126,0.017,0.188,0.029c2.422,0.454,4.333,2.365,4.787,4.787
	C37.253,26.961,37.622,27,38,27c0.313,0,0.618-0.031,0.919-0.078C38.437,23.374,35.626,20.563,32.078,20.081z"/>
<path fill="#E86C60" d="M38,13c-3.01,0-5.635,1.673-7,4.136c0.491,0.886,0.816,1.875,0.94,2.925
	c0.047,0.005,0.092,0.015,0.138,0.021C32.522,17.208,35.005,15,38,15c3.309,0,6,2.691,6,6c0,2.995-2.208,5.478-5.081,5.922
	C38.618,26.969,38.313,27,38,27c-0.378,0-0.747-0.039-1.107-0.107c-2.422-0.454-4.333-2.365-4.787-4.787
	c-0.062-0.012-0.125-0.019-0.188-0.029c-0.135,0.998-0.449,1.94-0.919,2.786c1.199,2.163,3.372,3.708,5.922,4.054
	C37.276,28.967,37.634,29,38,29c0.318,0,0.631-0.024,0.94-0.06C42.909,28.472,46,25.093,46,21C46,16.589,42.411,13,38,13z"/>
<path fill="#444444" d="M31.94,20.06c-0.124-1.05-0.449-2.039-0.94-2.925C29.635,14.673,27.01,13,24,13s-5.635,1.673-7,4.136
	c0.491,0.886,0.816,1.875,0.94,2.925C17.976,20.369,18,20.682,18,21c0-0.313,0.031-0.618,0.078-0.919C18.522,17.208,21.005,15,24,15
	s5.478,2.208,5.922,5.081C29.969,20.382,30,20.687,30,21c0,0.378-0.039,0.747-0.107,1.107c-0.454,2.422-2.365,4.333-4.787,4.787
	C25.039,27.253,25,27.622,25,28c0,0.313,0.031,0.618,0.078,0.919c2.55-0.346,4.723-1.891,5.922-4.054
	c0.469-0.847,0.783-1.788,0.919-2.786C31.967,21.724,32,21.366,32,21C32,20.682,31.976,20.369,31.94,20.06z"/>
</g></svg>