<?xml version="1.0" encoding="utf-8"?>
<!-- Generator: Adobe Illustrator 19.1.0, SVG Export Plug-In . SVG Version: 6.00 Build 0)  -->
<!DOCTYPE svg PUBLIC "-//W3C//DTD SVG 1.1//EN" "http://www.w3.org/Graphics/SVG/1.1/DTD/svg11.dtd">
<svg version="1.1" id="Layer_1" xmlns="http://www.w3.org/2000/svg" xmlns:xlink="http://www.w3.org/1999/xlink" x="0px" y="0px"
	 width="48px" height="48px" viewBox="0 0 48 48" enable-background="new 0 0 48 48" xml:space="preserve">
<path d="M2,32h7.1c0.5,8.4,7.5,15,15.9,15s15.4-6.6,15.9-15H45c0.6,0,1-0.4,1-1V12c0-0.6-0.4-1-1-1H35V7c0-2.2-1.8-4-4-4
	c-0.8,0-1.6,0.3-2.2,0.7C28.2,2.1,26.7,1,25,1s-3.2,1.1-3.8,2.7C20.6,3.3,19.8,3,19,3c-1.5,0-2.7,0.8-3.4,2C14.9,4.4,14,4,13,4
	c-2.2,0-4,1.8-4,4v3H2c-0.6,0-1,0.4-1,1v19C1,31.6,1.4,32,2,32z M25,45c-7.4,0-13.4-5.7-13.9-13h14.1c-0.7,1.2-1.1,2.6-1.1,4
	c0,0.6,0.4,1,1,1s1-0.4,1-1c0-1.6,0.7-3.1,1.8-4.3c0,0,0,0,0,0c1.5-1.6,3.8-2.7,6.2-2.7c0.6,0,1-0.4,1-1v-4c0-2.6,1.6-4.5,4-4.9V31
	C39,38.7,32.7,45,25,45z M31,5c1.1,0,2,0.9,2,2v4h-4V7C29,5.9,29.9,5,31,5z M23,5c0-1.1,0.9-2,2-2s2,0.9,2,2v2v4h-4V7V5z M17,7
	c0-1.1,0.9-2,2-2s2,0.9,2,2v4h-4V8V7z M11,8c0-1.1,0.9-2,2-2s2,0.9,2,2v3h-4V8z M3,13h41v17h-3V18c0-0.6-0.4-1-1-1c-4,0-7,3-7,7v3
	c-2.4,0.2-4.7,1.3-6.3,3H3V13z"/>
<path d="M23,27c2.8,0,5-2.2,5-5s-2.2-5-5-5s-5,2.2-5,5S20.2,27,23,27z M23,19c1.7,0,3,1.3,3,3s-1.3,3-3,3s-3-1.3-3-3S21.3,19,23,19z
	"/>
<path d="M15,17c0-0.6-0.4-1-1-1H8c-0.6,0-1,0.4-1,1s0.4,1,1,1h6C14.6,18,15,17.6,15,17z"/>
</svg>
