<?xml version="1.0" encoding="utf-8"?>
<!-- Generator: Adobe Illustrator 19.1.0, SVG Export Plug-In . SVG Version: 6.00 Build 0)  -->
<!DOCTYPE svg PUBLIC "-//W3C//DTD SVG 1.1//EN" "http://www.w3.org/Graphics/SVG/1.1/DTD/svg11.dtd">
<svg version="1.1" id="Layer_1" xmlns="http://www.w3.org/2000/svg" xmlns:xlink="http://www.w3.org/1999/xlink" x="0px" y="0px"
	 width="48px" height="48px" viewBox="0 0 48 48" enable-background="new 0 0 48 48" xml:space="preserve">
<path d="M44.2,22.1c-0.5-0.1-1,0.2-1.2,0.8c-0.1,0.5,0.2,1.1,0.7,1.2c0.2,0.1,1.2,0.4,1.2,2c0,1.9-1,2.7-2.1,2.9
	c-0.5-6.7-6.1-12-12.9-12H18.6c-2.4-4.7-6.8-4.7-9-3.9c-0.5,0.2-0.8,0.7-0.6,1.3l1.7,5C8.6,20.7,7,22.7,6,25H2c-0.6,0-1,0.4-1,1v10
	c0,0.6,0.4,1,1,1h5.1c1.4,2.2,3.5,4,5.9,5v4c0,0.6,0.4,1,1,1h6c0.6,0,1-0.4,1-1v-3h6v3c0,0.6,0.4,1,1,1h6c0.6,0,1-0.4,1-1v-4
	c4.5-1.9,7.6-6.1,8-11c2.5-0.4,4-2.2,4-4.9C47,23.4,45.2,22.3,44.2,22.1z M33.7,40.4c-0.4,0.1-0.7,0.5-0.7,0.9V45h-4v-3
	c0-0.6-0.4-1-1-1h-8c-0.6,0-1,0.4-1,1v3h-4v-3.7c0-0.4-0.3-0.8-0.7-0.9c-2.4-0.9-4.5-2.6-5.8-4.9C8.3,35.2,8,35,7.6,35H3v-8h3.7
	c0.4,0,0.8-0.3,0.9-0.7c0.8-2.4,2.5-4.4,4.8-5.8c0.4-0.2,0.6-0.7,0.4-1.2l-1.6-4.7c1.5-0.2,4.2,0,5.8,3.7c0.2,0.4,0.5,0.6,0.9,0.6
	h12c6.1,0,11,4.9,11,11C41,34.6,38.1,38.8,33.7,40.4z"/>
<path d="M30,23h-8c-0.6,0-1,0.4-1,1s0.4,1,1,1h8c0.6,0,1-0.4,1-1S30.6,23,30,23z"/>
<path d="M31,6c0-2.8-2.2-5-5-5s-5,2.2-5,5s2.2,5,5,5S31,8.8,31,6z M23,6c0-1.7,1.3-3,3-3s3,1.3,3,3s-1.3,3-3,3S23,7.7,23,6z"/>
<circle cx="14" cy="26" r="2"/>
</svg>
