<?xml version="1.0" encoding="utf-8"?>
<!-- Generator: Adobe Illustrator 19.1.0, SVG Export Plug-In . SVG Version: 6.00 Build 0)  -->
<!DOCTYPE svg PUBLIC "-//W3C//DTD SVG 1.1//EN" "http://www.w3.org/Graphics/SVG/1.1/DTD/svg11.dtd">
<svg version="1.1" id="Layer_1" xmlns="http://www.w3.org/2000/svg" xmlns:xlink="http://www.w3.org/1999/xlink" x="0px" y="0px"
	 width="48px" height="48px" viewBox="0 0 48 48" enable-background="new 0 0 48 48" xml:space="preserve">
<path d="M6,1C5.4,1,5,1.4,5,2v44c0,0.6,0.4,1,1,1h38c0.6,0,1-0.4,1-1V2c0-0.6-0.4-1-1-1H6z M43,45H7V3h36V45z"/>
<path d="M12,17h26c0.6,0,1-0.4,1-1V8c0-0.6-0.4-1-1-1H12c-0.6,0-1,0.4-1,1v8C11,16.6,11.4,17,12,17z M13,9h24v6H13V9z"/>
<path d="M12,29h10c0.6,0,1-0.4,1-1v-6c0-0.6-0.4-1-1-1H12c-0.6,0-1,0.4-1,1v6C11,28.6,11.4,29,12,29z M13,23h8v4h-8V23z"/>
<path d="M38,21H28c-0.6,0-1,0.4-1,1v18c0,0.6,0.4,1,1,1h10c0.6,0,1-0.4,1-1V22C39,21.4,38.6,21,38,21z M37,39h-8V23h8V39z"/>
<path d="M12,41h10c0.6,0,1-0.4,1-1v-6c0-0.6-0.4-1-1-1H12c-0.6,0-1,0.4-1,1v6C11,40.6,11.4,41,12,41z M13,35h8v4h-8V35z"/>
</svg>
