<?xml version="1.0" encoding="utf-8"?>
<!-- Generator: Adobe Illustrator 19.1.0, SVG Export Plug-In . SVG Version: 6.00 Build 0)  -->
<!DOCTYPE svg PUBLIC "-//W3C//DTD SVG 1.1//EN" "http://www.w3.org/Graphics/SVG/1.1/DTD/svg11.dtd">
<svg version="1.1" id="Layer_1" xmlns="http://www.w3.org/2000/svg" xmlns:xlink="http://www.w3.org/1999/xlink" x="0px" y="0px"
	 width="48px" height="48px" viewBox="0 0 48 48" enable-background="new 0 0 48 48" xml:space="preserve">
<path d="M46,1H2C1.4,1,1,1.4,1,2v24c0,0.6,0.4,1,1,1h21v19c0,0.6,0.4,1,1,1s1-0.4,1-1v-3c7.4-0.2,12-2.2,12-11c0-0.6-0.4-1-1-1
	c-5.5,0-9,1.1-11,3.7V27h21c0.6,0,1-0.4,1-1V2C47,1.4,46.6,1,46,1z M35,33c-0.2,5.8-2.7,7.8-10,8C25.3,35.4,28,33.2,35,33z M45,25H3
	V3h42V25z"/>
<path d="M24,19c2.8,0,5-2.2,5-5s-2.2-5-5-5s-5,2.2-5,5S21.2,19,24,19z M24,11c1.7,0,3,1.3,3,3s-1.3,3-3,3s-3-1.3-3-3S22.3,11,24,11z
	"/>
<path d="M9,11h4c0.6,0,1-0.4,1-1s-0.4-1-1-1H9c-0.6,0-1,0.4-1,1S8.4,11,9,11z"/>
<path d="M35,19h4c0.6,0,1-0.4,1-1s-0.4-1-1-1h-4c-0.6,0-1,0.4-1,1S34.4,19,35,19z"/>
</svg>
