<?xml version="1.0" encoding="utf-8"?>
<!-- Generator: Adobe Illustrator 19.1.0, SVG Export Plug-In . SVG Version: 6.00 Build 0)  -->
<!DOCTYPE svg PUBLIC "-//W3C//DTD SVG 1.1//EN" "http://www.w3.org/Graphics/SVG/1.1/DTD/svg11.dtd">
<svg version="1.1" id="Layer_1" xmlns="http://www.w3.org/2000/svg" xmlns:xlink="http://www.w3.org/1999/xlink" x="0px" y="0px"
	 width="48px" height="48px" viewBox="0 0 48 48" enable-background="new 0 0 48 48" xml:space="preserve">
<path d="M44,23c0.6,0,1-0.4,1-1c0-10.5-8.5-19-19-19c-0.6,0-1,0.4-1,1v18c0,0.6,0.4,1,1,1H44z M27,5c8.6,0.5,15.5,7.4,16,16H27V5z"
	/>
<path d="M20,9C9.5,9,1,17.5,1,28s8.5,19,19,19s19-8.5,19-19c0-0.6-0.4-1-1-1H21V10C21,9.4,20.6,9,20,9z M37,29
	c-0.5,8.9-7.9,16-17,16c-9.4,0-17-7.6-17-17c0-9,7.1-16.5,16-17v17c0,0.6,0.4,1,1,1H37z"/>
</svg>
