<?xml version="1.0" encoding="utf-8"?>
<!-- Generator: Adobe Illustrator 19.1.0, SVG Export Plug-In . SVG Version: 6.00 Build 0)  -->
<!DOCTYPE svg PUBLIC "-//W3C//DTD SVG 1.1//EN" "http://www.w3.org/Graphics/SVG/1.1/DTD/svg11.dtd">
<svg version="1.1" id="Layer_1" xmlns="http://www.w3.org/2000/svg" xmlns:xlink="http://www.w3.org/1999/xlink" x="0px" y="0px"
	 width="48px" height="48px" viewBox="0 0 48 48" enable-background="new 0 0 48 48" xml:space="preserve">
<path d="M41.3,20.7c0.2,0.2,0.5,0.3,0.7,0.3s0.5-0.1,0.7-0.3c0.4-0.4,0.4-1,0-1.4l-14-14c-0.4-0.4-1-0.4-1.4,0s-0.4,1,0,1.4l3.1,3.1
	l-20.2,11l-3.5-3.5c-0.4-0.4-1-0.4-1.4,0s-0.4,1,0,1.4l4,4c0,0,0,0,0,0l7.3,7.3L5.3,41.3c-0.4,0.4-0.4,1,0,1.4C5.5,42.9,5.7,43,6,43
	s0.5-0.1,0.7-0.3L18,31.4l11.3,11.3c0.2,0.2,0.5,0.3,0.7,0.3s0.5-0.1,0.7-0.3c0.4-0.4,0.4-1,0-1.4l-3.5-3.5l11-20.2L41.3,20.7z
	 M25.8,36.3L11.7,22.2l20.2-11l4.9,4.9L25.8,36.3z"/>
</svg>
