<?xml version="1.0" encoding="utf-8"?>
<!-- Generator: Adobe Illustrator 19.1.0, SVG Export Plug-In . SVG Version: 6.00 Build 0)  -->
<!DOCTYPE svg PUBLIC "-//W3C//DTD SVG 1.1//EN" "http://www.w3.org/Graphics/SVG/1.1/DTD/svg11.dtd">
<svg version="1.1" id="Layer_1" xmlns="http://www.w3.org/2000/svg" xmlns:xlink="http://www.w3.org/1999/xlink" x="0px" y="0px"
	 width="48px" height="48px" viewBox="0 0 48 48" enable-background="new 0 0 48 48" xml:space="preserve">
<path d="M46,33h-3V14c0-2.8-2.2-5-5-5H10c-2.8,0-5,2.2-5,5v19H2c-0.6,0-1,0.4-1,1c0,2.8,2.2,5,5,5h36c2.8,0,5-2.2,5-5
	C47,33.4,46.6,33,46,33z M7,14c0-1.7,1.3-3,3-3h28c1.7,0,3,1.3,3,3v19H7V14z M42,37H6c-1.3,0-2.4-0.8-2.8-2h41.7
	C44.4,36.2,43.3,37,42,37z"/>
<path d="M34.4,17.1C34.3,17,34.1,17,34,17h-6c-0.6,0-1,0.4-1,1s0.4,1,1,1h3.6L24,26.6l-5.3-5.3c-0.4-0.4-1-0.4-1.4,0l-4,4
	c-0.4,0.4-0.4,1,0,1.4s1,0.4,1.4,0l3.3-3.3l5.3,5.3c0.2,0.2,0.5,0.3,0.7,0.3s0.5-0.1,0.7-0.3l8.3-8.3V24c0,0.6,0.4,1,1,1s1-0.4,1-1
	v-6c0-0.1,0-0.3-0.1-0.4C34.8,17.4,34.6,17.2,34.4,17.1z"/>
</svg>
