<?xml version="1.0" encoding="utf-8"?>
<!-- Generator: Adobe Illustrator 19.1.0, SVG Export Plug-In . SVG Version: 6.00 Build 0)  -->
<!DOCTYPE svg PUBLIC "-//W3C//DTD SVG 1.1//EN" "http://www.w3.org/Graphics/SVG/1.1/DTD/svg11.dtd">
<svg version="1.1" id="Layer_1" xmlns="http://www.w3.org/2000/svg" xmlns:xlink="http://www.w3.org/1999/xlink" x="0px" y="0px"
	 width="48px" height="48px" viewBox="0 0 48 48" enable-background="new 0 0 48 48" xml:space="preserve">
<path d="M46.9,21.5c0,0,0-0.1-0.1-0.1l-10-14c-0.1-0.1-0.2-0.3-0.4-0.4C36.3,7,36.1,7,36,7H12c-0.1,0-0.3,0-0.4,0.1
	c-0.2,0.1-0.3,0.2-0.4,0.4l-10,14c0,0,0,0.1-0.1,0.1c0,0,0,0.1-0.1,0.1C1,21.8,1,21.9,1,22c0,4.1,3.7,7,9,7s9-2.9,9-7
	c0-0.1,0-0.3-0.1-0.4c0,0,0,0,0,0L13.5,9H23v32h-9c-0.6,0-1,0.4-1,1s0.4,1,1,1h20c0.6,0,1-0.4,1-1s-0.4-1-1-1h-9V9h9.5l-5.4,12.6
	c0,0,0,0,0,0C29,21.7,29,21.9,29,22c0,4.1,3.7,7,9,7s9-2.9,9-7c0-0.1,0-0.2-0.1-0.4C46.9,21.6,46.9,21.6,46.9,21.5z M10,27
	c-3.6,0-6.3-1.6-6.9-4h13.8C16.3,25.4,13.6,27,10,27z M16.5,21H3.9l7.8-11L16.5,21z M36.2,10l7.8,11H31.5L36.2,10z M38,27
	c-3.6,0-6.3-1.6-6.9-4h13.8C44.3,25.4,41.6,27,38,27z"/>
</svg>
