<?xml version="1.0" encoding="utf-8"?>
<!-- Generator: Adobe Illustrator 19.1.0, SVG Export Plug-In . SVG Version: 6.00 Build 0)  -->
<!DOCTYPE svg PUBLIC "-//W3C//DTD SVG 1.1//EN" "http://www.w3.org/Graphics/SVG/1.1/DTD/svg11.dtd">
<svg version="1.1" id="Layer_1" xmlns="http://www.w3.org/2000/svg" xmlns:xlink="http://www.w3.org/1999/xlink" x="0px" y="0px"
	 width="48px" height="48px" viewBox="0 0 48 48" enable-background="new 0 0 48 48" xml:space="preserve">
<path d="M46,21H34c-0.6,0-1,0.4-1,1s0.4,1,1,1h11v20H3V23h8v5c0,0.6,0.4,1,1,1h6c0.3,0,0.5-0.1,0.7-0.3l18-18c0.4-0.4,0.4-1,0-1.4
	l-6-6c-0.4-0.4-1-0.4-1.4,0L11.6,21H2c-0.6,0-1,0.4-1,1v22c0,0.6,0.4,1,1,1h44c0.6,0,1-0.4,1-1V22C47,21.4,46.6,21,46,21z M30,5.4
	l4.6,4.6l-17,17H13v-4.6L30,5.4z"/>
<path d="M11,36c0,0.6,0.4,1,1,1h24c0.6,0,1-0.4,1-1s-0.4-1-1-1H12C11.4,35,11,35.4,11,36z"/>
</svg>
