<?xml version="1.0" encoding="utf-8"?>
<!-- Generator: Adobe Illustrator 19.1.0, SVG Export Plug-In . SVG Version: 6.00 Build 0)  -->
<!DOCTYPE svg PUBLIC "-//W3C//DTD SVG 1.1//EN" "http://www.w3.org/Graphics/SVG/1.1/DTD/svg11.dtd">
<svg version="1.1" id="Layer_1" xmlns="http://www.w3.org/2000/svg" xmlns:xlink="http://www.w3.org/1999/xlink" x="0px" y="0px"
	 width="48px" height="48px" viewBox="0 0 48 48" enable-background="new 0 0 48 48" xml:space="preserve">
<path d="M46,3H2C1.4,3,1,3.4,1,4v40c0,0.6,0.4,1,1,1h44c0.6,0,1-0.4,1-1V4C47,3.4,46.6,3,46,3z M45,15.7l-4.3,6l-3.7-2
	c-0.2-2.3-1.8-4.1-4-4.6V5h12V15.7z M32.1,23C32,23,32,23,32.1,23c-0.1,0-0.1,0-0.1,0c-1.6,0-2.9-1.4-2.9-3c0-1.7,1.3-3,3-3
	s3,1.3,3,3c0,0,0,0.1,0,0.1c0,0,0,0.1,0,0.1C34.9,21.7,33.6,23,32.1,23z M31,5v10.1c-2.3,0.5-4,2.5-4,4.9c0,0.3,0,0.6,0.1,0.9
	l-3.2,3.7l-3.3-2.4C20.4,22,20.1,22,19.8,22c-0.3,0.1-0.5,0.3-0.7,0.5L16,28.8l-5.1-9.3C10.7,19.2,10.4,19,10,19
	c-0.4,0-0.7,0.2-0.9,0.5l-3.4,6l-2.7-2V5H31z M3,26l2.4,1.8C5.6,28,5.9,28,6.2,28c0.3-0.1,0.5-0.2,0.7-0.5l3.1-5.4l5.1,9.4
	c0.2,0.3,0.5,0.5,0.9,0.5c0,0,0,0,0,0c0.4,0,0.7-0.2,0.9-0.6l3.5-6.9l3,2.3c0.4,0.3,1,0.3,1.4-0.1l3.2-3.7c0.7,1,1.8,1.7,3,2V43H3
	V26z M33,43V24.9c1.7-0.3,3.1-1.5,3.7-3.1l3.9,2.1C40.7,24,40.8,24,41,24c0.3,0,0.6-0.1,0.8-0.4l3.2-4.5V43H33z"/>
</svg>
