<?xml version="1.0" encoding="utf-8"?>
<!-- Generator: Adobe Illustrator 19.1.0, SVG Export Plug-In . SVG Version: 6.00 Build 0)  -->
<!DOCTYPE svg PUBLIC "-//W3C//DTD SVG 1.1//EN" "http://www.w3.org/Graphics/SVG/1.1/DTD/svg11.dtd">
<svg version="1.1" id="Layer_1" xmlns="http://www.w3.org/2000/svg" xmlns:xlink="http://www.w3.org/1999/xlink" x="0px" y="0px"
	 width="48px" height="48px" viewBox="0 0 48 48" enable-background="new 0 0 48 48" xml:space="preserve">
<path d="M7,24v6c0,0.6,0.4,1,1,1s1-0.4,1-1v-5h14v5c0,0.6,0.4,1,1,1s1-0.4,1-1v-5h14v5c0,0.6,0.4,1,1,1s1-0.4,1-1v-6
	c0-0.6-0.4-1-1-1H25v-5c0-0.6-0.4-1-1-1s-1,0.4-1,1v5H8C7.4,23,7,23.4,7,24z"/>
<path d="M3,40c0,2.8,2.2,5,5,5s5-2.2,5-5s-2.2-5-5-5S3,37.2,3,40z M8,37c1.7,0,3,1.3,3,3s-1.3,3-3,3s-3-1.3-3-3S6.3,37,8,37z"/>
<path d="M29,40c0-2.8-2.2-5-5-5s-5,2.2-5,5s2.2,5,5,5S29,42.8,29,40z M21,40c0-1.7,1.3-3,3-3s3,1.3,3,3s-1.3,3-3,3S21,41.7,21,40z"
	/>
<path d="M40,35c-2.8,0-5,2.2-5,5s2.2,5,5,5s5-2.2,5-5S42.8,35,40,35z M40,43c-1.7,0-3-1.3-3-3s1.3-3,3-3s3,1.3,3,3S41.7,43,40,43z"
	/>
<path d="M28,13c0.6,0,1-0.4,1-1V4c0-0.6-0.4-1-1-1h-8c-0.6,0-1,0.4-1,1v8c0,0.6,0.4,1,1,1H28z M21,5h6v6h-6V5z"/>
</svg>
