<?xml version="1.0" encoding="utf-8"?>
<!-- Generator: Adobe Illustrator 19.1.0, SVG Export Plug-In . SVG Version: 6.00 Build 0)  -->
<!DOCTYPE svg PUBLIC "-//W3C//DTD SVG 1.1//EN" "http://www.w3.org/Graphics/SVG/1.1/DTD/svg11.dtd">
<svg version="1.1" id="Layer_1" xmlns="http://www.w3.org/2000/svg" xmlns:xlink="http://www.w3.org/1999/xlink" x="0px" y="0px"
	 width="48px" height="48px" viewBox="0 0 48 48" enable-background="new 0 0 48 48" xml:space="preserve">
<path d="M23.3,44.7c0.2,0.2,0.5,0.3,0.7,0.3s0.5-0.1,0.7-0.3l10-10c0.3-0.3,0.4-0.6,0.3-1l-5.9-21.6l3.8-7.7c0.2-0.3,0.1-0.7,0-1
	C32.7,3.2,32.3,3,32,3H16c-0.3,0-0.7,0.2-0.9,0.5c-0.2,0.3-0.2,0.7,0,1l3.8,7.7L13,33.7c-0.1,0.3,0,0.7,0.3,1L23.3,44.7z M30.4,5
	l-3,6h-6.8l-3-6H30.4z M20.8,13h6.5l5.6,20.7L24,42.6l-8.9-8.9L20.8,13z"/>
</svg>
