<?xml version="1.0" encoding="utf-8"?>
<!-- Generator: Adobe Illustrator 19.1.0, SVG Export Plug-In . SVG Version: 6.00 Build 0)  -->
<!DOCTYPE svg PUBLIC "-//W3C//DTD SVG 1.1//EN" "http://www.w3.org/Graphics/SVG/1.1/DTD/svg11.dtd">
<svg version="1.1" id="Layer_1" xmlns="http://www.w3.org/2000/svg" xmlns:xlink="http://www.w3.org/1999/xlink" x="0px" y="0px"
	 width="48px" height="48px" viewBox="0 0 48 48" enable-background="new 0 0 48 48" xml:space="preserve">
<path d="M19,22h10c0.6,0,1-0.4,1-1s-0.4-1-1-1H19c-0.6,0-1,0.4-1,1S18.4,22,19,22z"/>
<path d="M19,28h10c0.6,0,1-0.4,1-1s-0.4-1-1-1H19c-0.6,0-1,0.4-1,1S18.4,28,19,28z"/>
<path d="M19,34h3c0.6,0,1-0.4,1-1s-0.4-1-1-1h-3c-0.6,0-1,0.4-1,1S18.4,34,19,34z"/>
<path d="M32,5h-3.1c-0.5-2.3-2.5-4-4.9-4s-4.4,1.7-4.9,4H16c-0.6,0-1,0.4-1,1v1H8C7.4,7,7,7.4,7,8v38c0,0.6,0.4,1,1,1h32
	c0.6,0,1-0.4,1-1V8c0-0.6-0.4-1-1-1h-7V6C33,5.4,32.6,5,32,5z M16,16h16c0.6,0,1-0.4,1-1v-1h1v25H14V14h1v1C15,15.6,15.4,16,16,16z
	 M17,7h3c0.6,0,1-0.4,1-1c0-1.7,1.3-3,3-3s3,1.3,3,3c0,0.6,0.4,1,1,1h3v7H17V7z M39,9v36H9V9h6v3h-2c-0.6,0-1,0.4-1,1v27
	c0,0.6,0.4,1,1,1h22c0.6,0,1-0.4,1-1V13c0-0.6-0.4-1-1-1h-2V9H39z"/>
</svg>
