<?xml version="1.0" encoding="utf-8"?>
<!-- Generator: Adobe Illustrator 19.1.0, SVG Export Plug-In . SVG Version: 6.00 Build 0)  -->
<!DOCTYPE svg PUBLIC "-//W3C//DTD SVG 1.1//EN" "http://www.w3.org/Graphics/SVG/1.1/DTD/svg11.dtd">
<svg version="1.1" id="Layer_1" xmlns="http://www.w3.org/2000/svg" xmlns:xlink="http://www.w3.org/1999/xlink" x="0px" y="0px"
	 width="48px" height="48px" viewBox="0 0 48 48" enable-background="new 0 0 48 48" xml:space="preserve">
<path d="M12,33c-0.6,0-1,0.4-1,1s0.4,1,1,1h11v7c0,0.6,0.4,1,1,1s1-0.4,1-1v-7h11c0.6,0,1-0.4,1-1s-0.4-1-1-1H25v-6h11
	c0.6,0,1-0.4,1-1s-0.4-1-1-1H25v-2.7L36.8,6.6c0.3-0.4,0.2-1.1-0.2-1.4c-0.4-0.3-1.1-0.2-1.4,0.2L24,20.3L12.8,5.4
	c-0.3-0.4-1-0.5-1.4-0.2c-0.4,0.3-0.5,1-0.2,1.4L23,22.3V25H12c-0.6,0-1,0.4-1,1s0.4,1,1,1h11v6H12z"/>
</svg>
