<?xml version="1.0" encoding="utf-8"?>
<!-- Generator: Adobe Illustrator 19.1.0, SVG Export Plug-In . SVG Version: 6.00 Build 0)  -->
<!DOCTYPE svg PUBLIC "-//W3C//DTD SVG 1.1//EN" "http://www.w3.org/Graphics/SVG/1.1/DTD/svg11.dtd">
<svg version="1.1" id="Layer_1" xmlns="http://www.w3.org/2000/svg" xmlns:xlink="http://www.w3.org/1999/xlink" x="0px" y="0px"
	 width="48px" height="48px" viewBox="0 0 48 48" enable-background="new 0 0 48 48" xml:space="preserve">
<path d="M28,41c0.6,0,1-0.4,1-1V8c0-0.6-0.4-1-1-1h-8c-0.6,0-1,0.4-1,1v32c0,0.6,0.4,1,1,1H28z M21,9h6v30h-6V9z"/>
<path d="M12,41c0.6,0,1-0.4,1-1V28c0-0.6-0.4-1-1-1H4c-0.6,0-1,0.4-1,1v12c0,0.6,0.4,1,1,1H12z M5,29h6v10H5V29z"/>
<path d="M44,41c0.6,0,1-0.4,1-1V18c0-0.6-0.4-1-1-1h-8c-0.6,0-1,0.4-1,1v22c0,0.6,0.4,1,1,1H44z M37,19h6v20h-6V19z"/>
</svg>
