<?xml version="1.0" encoding="utf-8"?>
<!-- Generator: Adobe Illustrator 19.1.0, SVG Export Plug-In . SVG Version: 6.00 Build 0)  -->
<!DOCTYPE svg PUBLIC "-//W3C//DTD SVG 1.1//EN" "http://www.w3.org/Graphics/SVG/1.1/DTD/svg11.dtd">
<svg version="1.1" id="Layer_1" xmlns="http://www.w3.org/2000/svg" xmlns:xlink="http://www.w3.org/1999/xlink" x="0px" y="0px"
	 width="48px" height="48px" viewBox="0 0 48 48" enable-background="new 0 0 48 48" xml:space="preserve">
<path d="M24,21H10c-0.6,0-1,0.4-1,1s0.4,1,1,1h14c0.6,0,1-0.4,1-1S24.6,21,24,21z"/>
<path d="M18,29h-8c-0.6,0-1,0.4-1,1s0.4,1,1,1h8c0.6,0,1-0.4,1-1S18.6,29,18,29z"/>
<path d="M43,18.5V12c0-0.6-0.4-1-1-1h-5.7L25,4.3c0-0.1,0-0.2,0-0.3c0-1.7-1.3-3-3-3s-3,1.3-3,3c0,0.1,0,0.2,0,0.3L7.7,11H2
	c-0.6,0-1,0.4-1,1v28c0,0.6,0.4,1,1,1h29v3c0,0.3,0.2,0.6,0.4,0.8c0.3,0.2,0.6,0.2,0.9,0.1l5.7-1.9l5.7,1.9c0.1,0,0.2,0.1,0.3,0.1
	c0.2,0,0.4-0.1,0.6-0.2c0.3-0.2,0.4-0.5,0.4-0.8V31.6c1.2-1.5,2-3.5,2-5.6C47,22.9,45.4,20.1,43,18.5z M22,3c0.6,0,1,0.4,1,1
	s-0.4,1-1,1s-1-0.4-1-1S21.4,3,22,3z M19.9,6.1C20.4,6.7,21.2,7,22,7s1.6-0.3,2.1-0.9l8.2,4.9H11.6L19.9,6.1z M3,39V13h38v4.5
	c-0.9-0.3-1.9-0.5-3-0.5c-5,0-9,4-9,9c0,2.1,0.8,4.1,2,5.6V39H3z M38.3,41.1c-0.2-0.1-0.4-0.1-0.6,0L33,42.6v-9.1
	c1.4,1,3.2,1.5,5,1.5s3.6-0.6,5-1.5v9.1L38.3,41.1z M43.5,30.4c-0.2,0.1-0.3,0.3-0.4,0.4C41.8,32.2,40,33,38,33c-3.9,0-7-3.1-7-7
	s3.1-7,7-7s7,3.1,7,7C45,27.7,44.4,29.2,43.5,30.4z"/>
</svg>
