<?xml version="1.0" encoding="utf-8"?>
<!-- Generator: Adobe Illustrator 19.1.0, SVG Export Plug-In . SVG Version: 6.00 Build 0)  -->
<!DOCTYPE svg PUBLIC "-//W3C//DTD SVG 1.1//EN" "http://www.w3.org/Graphics/SVG/1.1/DTD/svg11.dtd">
<svg version="1.1" id="Layer_1" xmlns="http://www.w3.org/2000/svg" xmlns:xlink="http://www.w3.org/1999/xlink" x="0px" y="0px"
	 width="48px" height="48px" viewBox="0 0 48 48" enable-background="new 0 0 48 48" xml:space="preserve">
<path d="M10,41c-0.6,0-1,0.4-1,1s0.4,1,1,1h28c0.6,0,1-0.4,1-1s-0.4-1-1-1H19V27h9c0.6,0,1-0.4,1-1s-0.4-1-1-1h-9v-9c0-5,4-9,9-9
	s9,4,9,9c0,0.6,0.4,1,1,1s1-0.4,1-1c0-6.1-4.9-11-11-11S17,9.9,17,16v9h-7c-0.6,0-1,0.4-1,1s0.4,1,1,1h7v14H10z"/>
</svg>
