<?xml version="1.0" encoding="utf-8"?>
<!-- Generator: Adobe Illustrator 19.1.0, SVG Export Plug-In . SVG Version: 6.00 Build 0)  -->
<!DOCTYPE svg PUBLIC "-//W3C//DTD SVG 1.1//EN" "http://www.w3.org/Graphics/SVG/1.1/DTD/svg11.dtd">
<svg version="1.1" id="Layer_1" xmlns="http://www.w3.org/2000/svg" xmlns:xlink="http://www.w3.org/1999/xlink" x="0px" y="0px"
	 width="48px" height="48px" viewBox="0 0 48 48" enable-background="new 0 0 48 48" xml:space="preserve">
<path d="M34,47h6c1.7,0,3-1.3,3-3V4c0-1.7-1.3-3-3-3h-6H6C5.4,1,5,1.4,5,2v44c0,0.6,0.4,1,1,1H34z M41,37h-6V23h6V37z M33,37H7V23
	h26V37z M7,39h26v6H7V39z M40,45h-5v-6h6v5C41,44.6,40.6,45,40,45z M41,4v17h-6V3h5C40.6,3,41,3.4,41,4z M13,3h6v9.4l-2.6-1.3
	c-0.3-0.1-0.6-0.1-0.9,0L13,12.4V3z M11,3v11c0,0.3,0.2,0.7,0.5,0.9s0.7,0.2,1,0l3.6-1.8l3.6,1.8C19.7,15,19.8,15,20,15
	c0.2,0,0.4,0,0.5-0.1c0.3-0.2,0.5-0.5,0.5-0.9V3h12v18H7V3H11z"/>
<path d="M12,31h10c0.6,0,1-0.4,1-1s-0.4-1-1-1H12c-0.6,0-1,0.4-1,1S11.4,31,12,31z"/>
</svg>
