<?xml version="1.0" encoding="utf-8"?>
<!-- Generator: Adobe Illustrator 19.1.0, SVG Export Plug-In . SVG Version: 6.00 Build 0)  -->
<!DOCTYPE svg PUBLIC "-//W3C//DTD SVG 1.1//EN" "http://www.w3.org/Graphics/SVG/1.1/DTD/svg11.dtd">
<svg version="1.1" id="Layer_1" xmlns="http://www.w3.org/2000/svg" xmlns:xlink="http://www.w3.org/1999/xlink" x="0px" y="0px"
	 width="48px" height="48px" viewBox="0 0 48 48" enable-background="new 0 0 48 48" xml:space="preserve">
<path d="M5.2,37.5c0.2,0.3,0.6,0.4,0.9,0.4l6.5-1l3.4,5.6c0.2,0.3,0.5,0.5,0.9,0.5c0,0,0,0,0.1,0c0.4,0,0.7-0.2,0.9-0.6L23.2,31
	c0.3,0,0.6,0,0.8,0c0.3,0,0.6,0,0.8,0l5.4,11.5c0.2,0.3,0.5,0.6,0.9,0.6c0,0,0,0,0.1,0c0.3,0,0.7-0.2,0.9-0.5l3.4-5.6l6.5,1
	c0.4,0.1,0.7-0.1,0.9-0.4c0.2-0.3,0.3-0.7,0.1-1l-6-12.8c1.3-2.2,2.1-4.9,2.1-7.7c0-8.3-6.7-15-15-15S9,7.7,9,16
	c0,2.8,0.8,5.4,2.1,7.7l-6,12.8C4.9,36.8,5,37.2,5.2,37.5z M40.3,35.6L35,34.8c-0.4-0.1-0.8,0.1-1,0.5l-2.8,4.6l-4.3-9.2
	c3.4-0.7,6.5-2.5,8.6-5.2L40.3,35.6z M24,3c7.2,0,13,5.8,13,13c0,2.4-0.7,4.7-1.8,6.6c-0.3,0.2-0.4,0.4-0.5,0.7
	c-2,2.9-5.2,5-8.9,5.5c-0.3-0.1-0.6-0.1-0.8,0c-0.1,0-0.1,0.1-0.1,0.1c-0.3,0-0.5,0-0.8,0c-0.3,0-0.5,0-0.8,0c0,0-0.1-0.1-0.1-0.1
	c-0.3-0.1-0.6-0.1-0.8,0C15.9,28,11,22.6,11,16C11,8.8,16.8,3,24,3z M12.4,25.6c2.2,2.6,5.2,4.5,8.6,5.2l-4.3,9.2L14,35.3
	c-0.2-0.3-0.6-0.5-1-0.5l-5.3,0.8L12.4,25.6z"/>
<path d="M24,21c2.8,0,5-2.2,5-5s-2.2-5-5-5s-5,2.2-5,5S21.2,21,24,21z M24,13c1.7,0,3,1.3,3,3s-1.3,3-3,3s-3-1.3-3-3S22.3,13,24,13z
	"/>
</svg>
