<?xml version="1.0" encoding="utf-8"?>
<!-- Generator: Adobe Illustrator 19.1.0, SVG Export Plug-In . SVG Version: 6.00 Build 0)  -->
<!DOCTYPE svg PUBLIC "-//W3C//DTD SVG 1.1//EN" "http://www.w3.org/Graphics/SVG/1.1/DTD/svg11.dtd">
<svg version="1.1" id="Layer_1" xmlns="http://www.w3.org/2000/svg" xmlns:xlink="http://www.w3.org/1999/xlink" x="0px" y="0px"
	 width="48px" height="48px" viewBox="0 0 48 48" enable-background="new 0 0 48 48" xml:space="preserve">
<path d="M11,15.8l-4,22c0,0,0,0.1,0,0.1c0,0,0,0,0,0.1c0,0.1,0,0.2,0.1,0.3c0,0,0,0,0,0.1c0,0.1,0.1,0.2,0.2,0.3c0,0,0,0,0,0
	c0,0,0,0,0,0c0,0,0.1,0.1,0.1,0.1c0.1,0,0.1,0.1,0.2,0.1C7.7,39,7.9,39,8,39c0.1,0,0.1,0,0.2,0l22-4c0.3-0.1,0.6-0.3,0.7-0.5
	l5.4-10.8l1,1c0.2,0.2,0.5,0.3,0.7,0.3s0.5-0.1,0.7-0.3l4-4c0.4-0.4,0.4-1,0-1.4l-16-16c-0.4-0.4-1-0.4-1.4,0l-4,4
	c-0.4,0.4-0.4,1,0,1.4l1,1l-10.8,5.4C11.3,15.2,11.1,15.5,11,15.8z M26,5.4L40.6,20L38,22.6L23.4,8L26,5.4z M23.8,11.2l11,11
	l-5.5,10.9l-18.4,3.3l8.2-8.3C20,28.7,21,29,22,29c1.3,0,2.6-0.5,3.5-1.5c1.9-1.9,1.9-5.1,0-7.1C24.6,19.5,23.3,19,22,19
	s-2.6,0.5-3.5,1.5c-1.7,1.7-1.9,4.3-0.7,6.2L9.6,35l3.3-18.3L23.8,11.2z M19.9,26.1c-1.2-1.2-1.2-3.1,0-4.2c0.6-0.6,1.3-0.9,2.1-0.9
	s1.6,0.3,2.1,0.9c1.2,1.2,1.2,3.1,0,4.2C23,27.3,21,27.3,19.9,26.1z"/>
<path d="M8,45h32c0.6,0,1-0.4,1-1s-0.4-1-1-1H8c-0.6,0-1,0.4-1,1S7.4,45,8,45z"/>
</svg>
