<?xml version="1.0" encoding="utf-8"?>
<!-- Generator: Adobe Illustrator 19.1.0, SVG Export Plug-In . SVG Version: 6.00 Build 0)  -->
<!DOCTYPE svg PUBLIC "-//W3C//DTD SVG 1.1//EN" "http://www.w3.org/Graphics/SVG/1.1/DTD/svg11.dtd">
<svg version="1.1" id="Layer_1" xmlns="http://www.w3.org/2000/svg" xmlns:xlink="http://www.w3.org/1999/xlink" x="0px" y="0px"
	 width="48px" height="48px" viewBox="0 0 48 48" enable-background="new 0 0 48 48" xml:space="preserve">
<path d="M20,47c10.5,0,19-8.5,19-19c0-3.4-0.9-6.7-2.5-9.5l1.2,0.4c0.1,0,0.2,0.1,0.3,0.1c0.3,0,0.5-0.1,0.7-0.3l6-6
	c0.2-0.2,0.3-0.6,0.3-0.9c-0.1-0.3-0.3-0.6-0.7-0.7l-4.5-1.5l2.9-2.9c0.4-0.4,0.4-1,0-1.4s-1-0.4-1.4,0l-2.9,2.9l-1.5-4.5
	c-0.1-0.3-0.4-0.6-0.7-0.7c-0.3-0.1-0.7,0-0.9,0.3l-6,6c-0.3,0.3-0.4,0.7-0.2,1l0.4,1.2C26.7,9.9,23.4,9,20,9C9.5,9,1,17.5,1,28
	S9.5,47,20,47z M37.7,16.9l-3.2-1.1c-0.1-0.2-0.3-0.3-0.4-0.5l2-2l2.2-2.2l3.9,1.3L37.7,16.9z M31.1,10.3l4.4-4.4l1.3,3.9l-4.2,4.2
	c-0.2-0.1-0.3-0.3-0.5-0.4L31.1,10.3z M20,11c4,0,7.6,1.4,10.5,3.7l0.4,1.1L27,19.6C25.1,18,22.7,17,20,17c-6.1,0-11,4.9-11,11
	s4.9,11,11,11s11-4.9,11-11c0-2.7-1-5.1-2.6-7l3.8-3.8l1.1,0.4C35.6,20.4,37,24,37,28c0,9.4-7.6,17-17,17S3,37.4,3,28S10.6,11,20,11
	z M19.3,28.7c0.2,0.2,0.5,0.3,0.7,0.3s0.5-0.1,0.7-0.3l6.3-6.3c1.2,1.5,2,3.5,2,5.6c0,5-4,9-9,9s-9-4-9-9s4-9,9-9
	c2.1,0,4.1,0.7,5.6,2l-6.3,6.3C18.9,27.7,18.9,28.3,19.3,28.7z"/>
</svg>
