<?xml version="1.0" encoding="utf-8"?>
<!-- Generator: Adobe Illustrator 19.1.0, SVG Export Plug-In . SVG Version: 6.00 Build 0)  -->
<!DOCTYPE svg PUBLIC "-//W3C//DTD SVG 1.1//EN" "http://www.w3.org/Graphics/SVG/1.1/DTD/svg11.dtd">
<svg version="1.1" id="Layer_1" xmlns="http://www.w3.org/2000/svg" xmlns:xlink="http://www.w3.org/1999/xlink" x="0px" y="0px"
	 width="48px" height="48px" viewBox="0 0 48 48" enable-background="new 0 0 48 48" xml:space="preserve">
<path d="M46,23h-3V10c0-0.6-0.4-1-1-1h-9V2c0-0.6-0.4-1-1-1H6C3.2,1,1,3.2,1,6v34c0,3.9,3.1,7,7,7h34c0.6,0,1-0.4,1-1V33h3
	c0.6,0,1-0.4,1-1v-8C47,23.4,46.6,23,46,23z M6,3h25v6H6C4.3,9,3,7.7,3,6S4.3,3,6,3z M41,45H8c-2.8,0-5-2.2-5-5V10
	c0,0,0.1,0,0.1,0.1c0.1,0.1,0.2,0.1,0.3,0.2c0.2,0.1,0.3,0.2,0.5,0.3c0.1,0,0.2,0.1,0.3,0.1c0.2,0.1,0.4,0.1,0.6,0.2
	c0.1,0,0.2,0.1,0.3,0.1C5.4,11,5.7,11,6,11h35v12h-5c-2.8,0-5,2.2-5,5s2.2,5,5,5h5V45z M45,31h-9c-1.7,0-3-1.3-3-3s1.3-3,3-3h9V31z"
	/>
</svg>
