<?xml version="1.0" encoding="utf-8"?>
<!-- Generator: Adobe Illustrator 19.1.0, SVG Export Plug-In . SVG Version: 6.00 Build 0)  -->
<!DOCTYPE svg PUBLIC "-//W3C//DTD SVG 1.1//EN" "http://www.w3.org/Graphics/SVG/1.1/DTD/svg11.dtd">
<svg version="1.1" id="Layer_1" xmlns="http://www.w3.org/2000/svg" xmlns:xlink="http://www.w3.org/1999/xlink" x="0px" y="0px"
	 width="48px" height="48px" viewBox="0 0 48 48" enable-background="new 0 0 48 48" xml:space="preserve">
<path d="M46,29H18H4c-0.3,0-0.6,0.1-0.8,0.4C3,29.6,3,29.9,3,30.2c0.1,0.3,2,8.3,14,8.8v7c0,0.6,0.4,1,1,1h22c0.6,0,1-0.4,1-1
	c0-2.8,2.2-5,5-5c0.6,0,1-0.4,1-1V30C47,29.4,46.6,29,46,29z M5.4,31H17v6C9.3,36.7,6.4,33,5.4,31z M45,39.1
	c-3.1,0.4-5.5,2.9-5.9,5.9H19V31h26V39.1z"/>
<path d="M29.3,22.7c0.2,0.2,0.5,0.3,0.7,0.3s0.5-0.1,0.7-0.3l3.3-3.3l5.3,5.3c0.2,0.2,0.5,0.3,0.7,0.3s0.5-0.1,0.7-0.3l4-4
	c0.4-0.4,0.4-1,0-1.4L39.4,14l3.3-3.3c0.4-0.4,0.4-1,0-1.4l-6-6c-0.4-0.4-1-0.4-1.4,0l-12,12c-0.4,0.4-0.4,1,0,1.4L29.3,22.7z
	 M42.6,20L40,22.6L35.4,18l2.6-2.6L42.6,20z M36,5.4l4.6,4.6L30,20.6L25.4,16L36,5.4z"/>
<path d="M10,23c-0.6,0-1,0.4-1,1s0.4,1,1,1h4c0.6,0,1-0.4,1-1s-0.4-1-1-1H10z"/>
<path d="M16.3,19.3c0.3,0,0.5-0.1,0.7-0.3c0.4-0.4,0.4-1,0-1.4l-2.8-2.8c-0.4-0.4-1-0.4-1.4,0s-0.4,1,0,1.4l2.8,2.8
	C15.8,19.2,16.1,19.3,16.3,19.3z"/>
</svg>
