<?xml version="1.0" encoding="utf-8"?>
<!-- Generator: Adobe Illustrator 19.1.0, SVG Export Plug-In . SVG Version: 6.00 Build 0)  -->
<!DOCTYPE svg PUBLIC "-//W3C//DTD SVG 1.1//EN" "http://www.w3.org/Graphics/SVG/1.1/DTD/svg11.dtd">
<svg version="1.1" id="Layer_1" xmlns="http://www.w3.org/2000/svg" xmlns:xlink="http://www.w3.org/1999/xlink" x="0px" y="0px"
	 width="48px" height="48px" viewBox="0 0 48 48" enable-background="new 0 0 48 48" xml:space="preserve">
<path d="M5,28c0,0.6,0.4,1,1,1h3.7c2.2,8.1,9.6,14,18.3,14c4.1,0,8.1-1.3,11.4-3.8c0.4-0.3,0.5-1,0.2-1.4c-0.3-0.4-1-0.5-1.4-0.2
	c-3,2.2-6.5,3.4-10.2,3.4c-7.6,0-14.1-5.1-16.2-12H26c0.6,0,1-0.4,1-1s-0.4-1-1-1H11.3c-0.2-1-0.3-2-0.3-3s0.1-2,0.3-3H26
	c0.6,0,1-0.4,1-1s-0.4-1-1-1H11.8C13.9,12.1,20.4,7,28,7c3.7,0,7.2,1.2,10.2,3.4c0.4,0.3,1.1,0.2,1.4-0.2c0.3-0.4,0.2-1.1-0.2-1.4
	C36.1,6.3,32.1,5,28,5c-8.7,0-16.1,5.9-18.3,14H6c-0.6,0-1,0.4-1,1s0.4,1,1,1h3.3C9.1,22,9,23,9,24s0.1,2,0.3,3H6
	C5.4,27,5,27.4,5,28z"/>
</svg>
