<?xml version="1.0" encoding="utf-8"?>
<!-- Generator: Adobe Illustrator 19.1.0, SVG Export Plug-In . SVG Version: 6.00 Build 0)  -->
<!DOCTYPE svg PUBLIC "-//W3C//DTD SVG 1.1//EN" "http://www.w3.org/Graphics/SVG/1.1/DTD/svg11.dtd">
<svg version="1.1" id="Layer_1" xmlns="http://www.w3.org/2000/svg" xmlns:xlink="http://www.w3.org/1999/xlink" x="0px" y="0px"
	 width="48px" height="48px" viewBox="0 0 48 48" enable-background="new 0 0 48 48" xml:space="preserve">
<path d="M20,25c-0.6,0-1,0.4-1,1v18c0,0.6,0.4,1,1,1h8c0.6,0,1-0.4,1-1V26c0-0.6-0.4-1-1-1H20z M27,43h-6V27h6V43z"/>
<path d="M3,34v10c0,0.6,0.4,1,1,1h8c0.6,0,1-0.4,1-1V34c0-0.6-0.4-1-1-1H4C3.4,33,3,33.4,3,34z M5,35h6v8H5V35z"/>
<path d="M36,45h8c0.6,0,1-0.4,1-1V18c0-0.6-0.4-1-1-1h-8c-0.6,0-1,0.4-1,1v26C35,44.6,35.4,45,36,45z M37,19h6v24h-6V19z"/>
<path d="M37,12c0,0.6,0.4,1,1,1s1-0.4,1-1V4c0-0.1,0-0.3-0.1-0.4c-0.1-0.2-0.3-0.4-0.5-0.5C38.3,3,38.1,3,38,3h-8c-0.6,0-1,0.4-1,1
	s0.4,1,1,1h5.6L24,16.6l-5.3-5.3c-0.4-0.4-1-0.4-1.4,0l-8,8c-0.4,0.4-0.4,1,0,1.4C9.5,20.9,9.7,21,10,21s0.5-0.1,0.7-0.3l7.3-7.3
	l5.3,5.3c0.4,0.4,1,0.4,1.4,0L37,6.4V12z"/>
</svg>
