<?xml version="1.0" encoding="utf-8"?>
<!-- Generator: Adobe Illustrator 19.1.0, SVG Export Plug-In . SVG Version: 6.00 Build 0)  -->
<!DOCTYPE svg PUBLIC "-//W3C//DTD SVG 1.1//EN" "http://www.w3.org/Graphics/SVG/1.1/DTD/svg11.dtd">
<svg version="1.1" id="Layer_1" xmlns="http://www.w3.org/2000/svg" xmlns:xlink="http://www.w3.org/1999/xlink" x="0px" y="0px"
	 width="48px" height="48px" viewBox="0 0 48 48" enable-background="new 0 0 48 48" xml:space="preserve">
<path d="M6,45h36c0.6,0,1-0.4,1-1s-0.4-1-1-1H6c-0.6,0-1,0.4-1,1S5.4,45,6,45z"/>
<path d="M5.3,36.7C5.5,36.9,5.7,37,6,37s0.5-0.1,0.7-0.3l1.4-1.4c0.6,0.3,1.2,0.5,1.9,0.5c1,0,2-0.4,2.7-1.1L24,23.4l1.3,1.3
	c0.2,0.2,0.5,0.3,0.7,0.3s0.5-0.1,0.7-0.3L38,13.4l1.6,1.6l-7.3,7.3c-0.4,0.4-0.4,1,0,1.4c0.2,0.2,0.5,0.3,0.7,0.3s0.5-0.1,0.7-0.3
	l8-8c0.4-0.4,0.4-1,0-1.4l-2.4-2.4c1.9-2.6,1.7-6.3-0.6-8.6c-2.6-2.6-6.8-2.6-9.4,0l-12,12c-0.4,0.4-0.4,1,0,1.4l1.3,1.3L7.3,29.3
	c-1.2,1.2-1.4,3.1-0.6,4.6l-1.4,1.4C4.9,35.7,4.9,36.3,5.3,36.7z M30.7,4.7c1.8-1.8,4.8-1.8,6.6,0c1.8,1.8,1.8,4.8,0,6.6L26,22.6
	L19.4,16L30.7,4.7z M8.7,30.7L20,19.4l2.6,2.6L11.3,33.3c-0.7,0.7-1.9,0.7-2.6,0S8,31.4,8.7,30.7z"/>
</svg>
