<?xml version="1.0" encoding="utf-8"?>
<!-- Generator: Adobe Illustrator 19.1.0, SVG Export Plug-In . SVG Version: 6.00 Build 0)  -->
<!DOCTYPE svg PUBLIC "-//W3C//DTD SVG 1.1//EN" "http://www.w3.org/Graphics/SVG/1.1/DTD/svg11.dtd">
<svg version="1.1" id="Layer_1" xmlns="http://www.w3.org/2000/svg" xmlns:xlink="http://www.w3.org/1999/xlink" x="0px" y="0px"
	 width="48px" height="48px" viewBox="0 0 48 48" enable-background="new 0 0 48 48" xml:space="preserve">
<path d="M46,11h-3V6c0-0.6-0.4-1-1-1H6C5.4,5,5,5.4,5,6v5H2c-0.6,0-1,0.4-1,1v32c0,0.6,0.4,1,1,1h44c0.6,0,1-0.4,1-1V12
	C47,11.4,46.6,11,46,11z M7,7h34v4H7V7z M45,43H3V13h42V43z"/>
<path d="M24,23c-2.8,0-5,2.2-5,5s2.2,5,5,5s5-2.2,5-5S26.8,23,24,23z M24,31c-1.7,0-3-1.3-3-3s1.3-3,3-3s3,1.3,3,3S25.7,31,24,31z"
	/>
<path d="M40,23c-2.8,0-5-2.2-5-5c0-0.6-0.4-1-1-1H14c-0.6,0-1,0.4-1,1c0,2.8-2.2,5-5,5c-0.6,0-1,0.4-1,1v8c0,0.6,0.4,1,1,1
	c2.8,0,5,2.2,5,5c0,0.6,0.4,1,1,1h20c0.6,0,1-0.4,1-1c0-2.8,2.2-5,5-5c0.6,0,1-0.4,1-1v-8C41,23.4,40.6,23,40,23z M39,31.1
	c-3.1,0.4-5.5,2.9-5.9,5.9H14.9c-0.4-3.1-2.9-5.5-5.9-5.9v-6.1c3.1-0.4,5.5-2.9,5.9-5.9h18.1c0.4,3.1,2.9,5.5,5.9,5.9V31.1z"/>
</svg>
