<?xml version="1.0" encoding="utf-8"?>
<!-- Generator: Adobe Illustrator 19.1.0, SVG Export Plug-In . SVG Version: 6.00 Build 0)  -->
<!DOCTYPE svg PUBLIC "-//W3C//DTD SVG 1.1//EN" "http://www.w3.org/Graphics/SVG/1.1/DTD/svg11.dtd">
<svg version="1.1" id="Layer_1" xmlns="http://www.w3.org/2000/svg" xmlns:xlink="http://www.w3.org/1999/xlink" x="0px" y="0px"
	 width="48px" height="48px" viewBox="0 0 48 48" enable-background="new 0 0 48 48" xml:space="preserve">
<path d="M8,45c-0.6,0-1,0.4-1,1s0.4,1,1,1h32c0.6,0,1-0.4,1-1s-0.4-1-1-1h-3.2l-5.7-26.5l5.4-3.6c0.3-0.2,0.4-0.5,0.4-0.8V2
	c0-0.6-0.4-1-1-1h-4c-0.6,0-1,0.4-1,1v3h-4V2c0-0.6-0.4-1-1-1h-4c-0.6,0-1,0.4-1,1v3h-4V2c0-0.6-0.4-1-1-1h-4c-0.6,0-1,0.4-1,1v12
	c0,0.3,0.2,0.6,0.4,0.8l5.4,3.6L11.2,45H8z M13,3h2v3c0,0.6,0.4,1,1,1h6c0.6,0,1-0.4,1-1V3h2v3c0,0.6,0.4,1,1,1h6c0.6,0,1-0.4,1-1V3
	h2v10.5L29.7,17H18.3L13,13.5V3z M18.8,19h10.4l5.6,26H13.2L18.8,19z"/>
</svg>
