<?xml version="1.0" encoding="utf-8"?>
<!-- Generator: Adobe Illustrator 19.1.0, SVG Export Plug-In . SVG Version: 6.00 Build 0)  -->
<!DOCTYPE svg PUBLIC "-//W3C//DTD SVG 1.1//EN" "http://www.w3.org/Graphics/SVG/1.1/DTD/svg11.dtd">
<svg version="1.1" id="Layer_1" xmlns="http://www.w3.org/2000/svg" xmlns:xlink="http://www.w3.org/1999/xlink" x="0px" y="0px"
	 width="48px" height="48px" viewBox="0 0 48 48" enable-background="new 0 0 48 48" xml:space="preserve">
<path d="M24,1C11.3,1,1,11.3,1,24s10.3,23,23,23s23-10.3,23-23S36.7,1,24,1z M24,45C12.4,45,3,35.6,3,24S12.4,3,24,3s21,9.4,21,21
	S35.6,45,24,45z"/>
<path d="M22,17c0-2.8-2.2-5-5-5s-5,2.2-5,5s2.2,5,5,5S22,19.8,22,17z M14,17c0-1.7,1.3-3,3-3s3,1.3,3,3s-1.3,3-3,3S14,18.7,14,17z"
	/>
<path d="M32,27c-2.8,0-5,2.2-5,5s2.2,5,5,5s5-2.2,5-5S34.8,27,32,27z M32,35c-1.7,0-3-1.3-3-3s1.3-3,3-3s3,1.3,3,3S33.7,35,32,35z"
	/>
<path d="M33,20c0,0.6,0.4,1,1,1s1-0.4,1-1v-6c0-0.1,0-0.3-0.1-0.4c-0.1-0.2-0.3-0.4-0.5-0.5C34.3,13,34.1,13,34,13h-6
	c-0.6,0-1,0.4-1,1s0.4,1,1,1h3.6L15.3,31.3c-0.4,0.4-0.4,1,0,1.4c0.2,0.2,0.5,0.3,0.7,0.3s0.5-0.1,0.7-0.3L33,16.4V20z"/>
</svg>
