<?xml version="1.0" encoding="utf-8"?>
<!-- Generator: Adobe Illustrator 19.1.0, SVG Export Plug-In . SVG Version: 6.00 Build 0)  -->
<!DOCTYPE svg PUBLIC "-//W3C//DTD SVG 1.1//EN" "http://www.w3.org/Graphics/SVG/1.1/DTD/svg11.dtd">
<svg version="1.1" id="Layer_1" xmlns="http://www.w3.org/2000/svg" xmlns:xlink="http://www.w3.org/1999/xlink" x="0px" y="0px"
	 width="48px" height="48px" viewBox="0 0 48 48" enable-background="new 0 0 48 48" xml:space="preserve">
<path d="M46.5,15.1c-0.3-0.2-0.7-0.1-1,0.1L33,24.1V16c0-0.4-0.2-0.7-0.5-0.9c-0.3-0.2-0.7-0.2-1,0l-15.1,9.5l-5.5-9.1
	C10.7,15.2,10.4,15,10,15H2c-0.6,0-1,0.4-1,1v30c0,0.6,0.4,1,1,1h44c0.6,0,1-0.4,1-1V16C47,15.6,46.8,15.3,46.5,15.1z M45,45H3V17
	h6.4l5.7,9.5c0.1,0.2,0.4,0.4,0.6,0.5c0.3,0.1,0.5,0,0.8-0.1l14.5-9V26c0,0.4,0.2,0.7,0.5,0.9c0.3,0.2,0.7,0.1,1-0.1L45,17.9V45z"/>
<path d="M34,41h6c0.6,0,1-0.4,1-1v-6c0-0.6-0.4-1-1-1h-6c-0.6,0-1,0.4-1,1v6C33,40.6,33.4,41,34,41z M35,35h4v4h-4V35z"/>
<path d="M28,33h-6c-0.6,0-1,0.4-1,1v6c0,0.6,0.4,1,1,1h6c0.6,0,1-0.4,1-1v-6C29,33.4,28.6,33,28,33z M27,39h-4v-4h4V39z"/>
<path d="M2,11h26c0.5,0,1-0.4,1-0.9c0,0,0-0.1,0-0.1c0-3.9-3.1-7-7-7c-1.7,0-3.4,0.7-4.7,1.8C15.6,2.4,12.9,1,10,1c-5,0-9,4-9,9
	C1,10.6,1.4,11,2,11z M10,3c2.7,0,5,1.5,6.2,3.9c0.2,0.3,0.5,0.5,0.8,0.6c0.3,0,0.7-0.1,0.9-0.4C18.9,5.7,20.4,5,22,5
	c2.4,0,4.5,1.7,4.9,4H3.1C3.6,5.6,6.5,3,10,3z"/>
</svg>
