<?xml version="1.0" encoding="utf-8"?>
<!-- Generator: Adobe Illustrator 19.1.0, SVG Export Plug-In . SVG Version: 6.00 Build 0)  -->
<!DOCTYPE svg PUBLIC "-//W3C//DTD SVG 1.1//EN" "http://www.w3.org/Graphics/SVG/1.1/DTD/svg11.dtd">
<svg version="1.1" id="Layer_1" xmlns="http://www.w3.org/2000/svg" xmlns:xlink="http://www.w3.org/1999/xlink" x="0px" y="0px"
	 width="48px" height="48px" viewBox="0 0 48 48" enable-background="new 0 0 48 48" xml:space="preserve">
<path d="M46,33h-3V14c0-2.8-2.2-5-5-5H10c-2.8,0-5,2.2-5,5v19H2c-0.6,0-1,0.4-1,1c0,2.8,2.2,5,5,5h36c2.8,0,5-2.2,5-5
	C47,33.4,46.6,33,46,33z M7,14c0-1.7,1.3-3,3-3h28c1.7,0,3,1.3,3,3v19H7V14z M42,37H6c-1.3,0-2.4-0.8-2.8-2h41.7
	C44.4,36.2,43.3,37,42,37z"/>
<path d="M24,14c-4.4,0-8,3.6-8,8s3.6,8,8,8s8-3.6,8-8S28.4,14,24,14z M29.9,21H25v-4.9C27.5,16.5,29.5,18.5,29.9,21z M24,28
	c-3.3,0-6-2.7-6-6c0-3,2.2-5.4,5-5.9V22c0,0.6,0.4,1,1,1h5.9C29.4,25.8,27,28,24,28z"/>
</svg>
