<?xml version="1.0" encoding="utf-8"?>
<!-- Generator: Adobe Illustrator 19.1.0, SVG Export Plug-In . SVG Version: 6.00 Build 0)  -->
<!DOCTYPE svg PUBLIC "-//W3C//DTD SVG 1.1//EN" "http://www.w3.org/Graphics/SVG/1.1/DTD/svg11.dtd">
<svg version="1.1" id="Layer_1" xmlns="http://www.w3.org/2000/svg" xmlns:xlink="http://www.w3.org/1999/xlink" x="0px" y="0px"
	 width="48px" height="48px" viewBox="0 0 48 48" enable-background="new 0 0 48 48" xml:space="preserve">
<path d="M2,47h6h28c1.7,0,3-1.3,3-3V4c0-1.7-1.3-3-3-3H8H2C1.4,1,1,1.4,1,2v44C1,46.6,1.4,47,2,47z M37,4v40c0,0.6-0.4,1-1,1H9V3h27
	C36.6,3,37,3.4,37,4z M3,3h4v42H3V3z"/>
<path d="M16,19h14c0.6,0,1-0.4,1-1v-8c0-0.6-0.4-1-1-1H16c-0.6,0-1,0.4-1,1v8C15,18.6,15.4,19,16,19z M17,11h12v6H17V11z"/>
<path d="M16,25h14c0.6,0,1-0.4,1-1s-0.4-1-1-1H16c-0.6,0-1,0.4-1,1S15.4,25,16,25z"/>
<path d="M22,29h-6c-0.6,0-1,0.4-1,1s0.4,1,1,1h6c0.6,0,1-0.4,1-1S22.6,29,22,29z"/>
<path d="M43,8c0-0.6-0.4-1-1-1s-1,0.4-1,1v4c0,0.6,0.4,1,1,1s1-0.4,1-1V8z"/>
<path d="M42,17c-0.6,0-1,0.4-1,1v4c0,0.6,0.4,1,1,1s1-0.4,1-1v-4C43,17.4,42.6,17,42,17z"/>
</svg>
