<?xml version="1.0" encoding="utf-8"?>
<!-- Generator: Adobe Illustrator 19.1.0, SVG Export Plug-In . SVG Version: 6.00 Build 0)  -->
<!DOCTYPE svg PUBLIC "-//W3C//DTD SVG 1.1//EN" "http://www.w3.org/Graphics/SVG/1.1/DTD/svg11.dtd">
<svg version="1.1" id="Layer_1" xmlns="http://www.w3.org/2000/svg" xmlns:xlink="http://www.w3.org/1999/xlink" x="0px" y="0px"
	 width="48px" height="48px" viewBox="0 0 48 48" enable-background="new 0 0 48 48" xml:space="preserve">
<path d="M46,9H33V4c0-0.6-0.4-1-1-1H16c-0.6,0-1,0.4-1,1v5H2c-0.6,0-1,0.4-1,1v24c0,0.6,0.4,1,1,1h1v9c0,0.6,0.4,1,1,1h40
	c0.6,0,1-0.4,1-1v-9h1c0.6,0,1-0.4,1-1V10C47,9.4,46.6,9,46,9z M17,5h14v4H17V5z M43,43H5v-8h38V43z M45,33H3V11h42V33z"/>
<path d="M30,17H18c-0.6,0-1,0.4-1,1v8c0,0.6,0.4,1,1,1h12c0.6,0,1-0.4,1-1v-8C31,17.4,30.6,17,30,17z M29,25H19v-6h10V25z"/>
</svg>
