<?xml version="1.0" encoding="utf-8"?>
<!-- Generator: Adobe Illustrator 19.1.0, SVG Export Plug-In . SVG Version: 6.00 Build 0)  -->
<!DOCTYPE svg PUBLIC "-//W3C//DTD SVG 1.1//EN" "http://www.w3.org/Graphics/SVG/1.1/DTD/svg11.dtd">
<svg version="1.1" id="Layer_1" xmlns="http://www.w3.org/2000/svg" xmlns:xlink="http://www.w3.org/1999/xlink" x="0px" y="0px"
	 width="48px" height="48px" viewBox="0 0 48 48" enable-background="new 0 0 48 48" xml:space="preserve">
<path d="M24,43c0.6,0,1-0.4,1-1v-8V12.6l5.9,21.9l2.1,7.7c0.1,0.4,0.5,0.7,1,0.7c0.1,0,0.2,0,0.3,0l9.7-2.6c0.3-0.1,0.5-0.2,0.6-0.5
	c0.1-0.2,0.2-0.5,0.1-0.8l-2.1-7.7l-7.2-27c-0.1-0.5-0.7-0.9-1.2-0.7l-9,2.4V6c0-0.6-0.4-1-1-1H14H4C3.4,5,3,5.4,3,6v28v8
	c0,0.6,0.4,1,1,1h10H24z M34.6,40.8L33.1,35l3.9-1l3.9-1l1.6,5.8L34.6,40.8z M33.5,5.9L40.3,31l-3.9,1l-3.9,1L25.8,7.9L33.5,5.9z
	 M23,41h-8v-6h8V41z M23,33h-8V7h8V33z M5,7h8v26H5V7z M5,35h8v6H5V35z"/>
</svg>
