<?xml version="1.0" encoding="utf-8"?>
<!-- Generator: Adobe Illustrator 19.1.0, SVG Export Plug-In . SVG Version: 6.00 Build 0)  -->
<!DOCTYPE svg PUBLIC "-//W3C//DTD SVG 1.1//EN" "http://www.w3.org/Graphics/SVG/1.1/DTD/svg11.dtd">
<svg version="1.1" id="Layer_1" xmlns="http://www.w3.org/2000/svg" xmlns:xlink="http://www.w3.org/1999/xlink" x="0px" y="0px"
	 width="48px" height="48px" viewBox="0 0 48 48" enable-background="new 0 0 48 48" xml:space="preserve">
<path d="M29,44v-8c0-0.6-0.4-1-1-1h-8c-0.6,0-1,0.4-1,1v8c0,0.6,0.4,1,1,1h8C28.6,45,29,44.6,29,44z M27,43h-6v-6h6V43z"/>
<path d="M28,13c0.6,0,1-0.4,1-1V4c0-0.6-0.4-1-1-1h-8c-0.6,0-1,0.4-1,1v8c0,0.6,0.4,1,1,1H28z M21,5h6v6h-6V5z"/>
<path d="M45,44v-8c0-0.6-0.4-1-1-1h-8c-0.6,0-1,0.4-1,1v8c0,0.6,0.4,1,1,1h8C44.6,45,45,44.6,45,44z M43,43h-6v-6h6V43z"/>
<path d="M3,36v8c0,0.6,0.4,1,1,1h8c0.6,0,1-0.4,1-1v-8c0-0.6-0.4-1-1-1H4C3.4,35,3,35.4,3,36z M5,37h6v6H5V37z"/>
<path d="M7,24v6c0,0.6,0.4,1,1,1s1-0.4,1-1v-5h14v5c0,0.6,0.4,1,1,1s1-0.4,1-1v-5h14v5c0,0.6,0.4,1,1,1s1-0.4,1-1v-6
	c0-0.6-0.4-1-1-1H25v-5c0-0.6-0.4-1-1-1s-1,0.4-1,1v5H8C7.4,23,7,23.4,7,24z"/>
</svg>
