<?xml version="1.0" encoding="utf-8"?>
<!-- Generator: Adobe Illustrator 19.1.0, SVG Export Plug-In . SVG Version: 6.00 Build 0)  -->
<!DOCTYPE svg PUBLIC "-//W3C//DTD SVG 1.1//EN" "http://www.w3.org/Graphics/SVG/1.1/DTD/svg11.dtd">
<svg version="1.1" id="Layer_1" xmlns="http://www.w3.org/2000/svg" xmlns:xlink="http://www.w3.org/1999/xlink" x="0px" y="0px"
	 width="48px" height="48px" viewBox="0 0 48 48" enable-background="new 0 0 48 48" xml:space="preserve">
<path d="M24,1C11.3,1,1,11.3,1,24c0,5.9,2.2,11.2,5.8,15.3c0,0.2,0.1,0.3,0.2,0.4c0.1,0.1,0.3,0.2,0.4,0.3c4.2,4.3,10,7,16.5,7
	c12.7,0,23-10.3,23-23S36.7,1,24,1z M44.9,23H25V3.1C35.8,3.6,44.4,12.2,44.9,23z M23,3.1v20.5l-15,14C4.9,33.9,3,29.2,3,24
	C3,12.8,11.9,3.6,23,3.1z M24,45c-5.7,0-10.9-2.3-14.7-6l15.1-14h20.6C44.4,36.1,35.2,45,24,45z"/>
</svg>
