<?xml version="1.0" encoding="utf-8"?>
<!-- Generator: Adobe Illustrator 19.1.0, SVG Export Plug-In . SVG Version: 6.00 Build 0)  -->
<!DOCTYPE svg PUBLIC "-//W3C//DTD SVG 1.1//EN" "http://www.w3.org/Graphics/SVG/1.1/DTD/svg11.dtd">
<svg version="1.1" id="Layer_1" xmlns="http://www.w3.org/2000/svg" xmlns:xlink="http://www.w3.org/1999/xlink" x="0px" y="0px"
	 width="64px" height="64px" viewBox="0 0 64 64" enable-background="new 0 0 64 64" xml:space="preserve">
<path d="M36,1c-0.6,0-1,0.4-1,1v20c0,2.8,2.2,5,5,5h1v31c0,2.8,2.2,5,5,5s5-2.2,5-5V27h1c2.8,0,5-2.2,5-5V2c0-0.6-0.4-1-1-1
	s-1,0.4-1,1v13h-8V2c0-0.6-0.4-1-1-1s-1,0.4-1,1v13h-8V2C37,1.4,36.6,1,36,1z M49,58c0,1.7-1.3,3-3,3s-3-1.3-3-3V27h6V58z M55,17v5
	c0,1.7-1.3,3-3,3H40c-1.7,0-3-1.3-3-3v-5H55z"/>
<path d="M18,63c2.8,0,5-2.2,5-5V25.8c3.6-1.8,6-5.5,6-9.8v-4c0-6.1-4.9-11-11-11S7,5.9,7,12v4c0,4.3,2.4,8,6,9.8V58
	C13,60.8,15.2,63,18,63z M21,58c0,1.7-1.3,3-3,3s-3-1.3-3-3V26.6c1,0.3,2,0.4,3,0.4s2-0.2,3-0.4V58z M9,16v-4c0-5,4-9,9-9s9,4,9,9v4
	c0,5-4,9-9,9S9,21,9,16z"/>
</svg>
