<?xml version="1.0" encoding="utf-8"?>
<!-- Generator: Adobe Illustrator 19.1.0, SVG Export Plug-In . SVG Version: 6.00 Build 0)  -->
<!DOCTYPE svg PUBLIC "-//W3C//DTD SVG 1.1//EN" "http://www.w3.org/Graphics/SVG/1.1/DTD/svg11.dtd">
<svg version="1.1" id="Layer_1" xmlns="http://www.w3.org/2000/svg" xmlns:xlink="http://www.w3.org/1999/xlink" x="0px" y="0px"
	 width="64px" height="64px" viewBox="0 0 64 64" enable-background="new 0 0 64 64" xml:space="preserve">
<path d="M20,31c-0.6,0-1,0.4-1,1v2c0,0.6,0.4,1,1,1s1-0.4,1-1v-2C21,31.4,20.6,31,20,31z"/>
<path d="M26,45c-0.6,0-1,0.4-1,1v2c0,0.6,0.4,1,1,1s1-0.4,1-1v-2C27,45.4,26.6,45,26,45z"/>
<path d="M32,35c-0.6,0-1,0.4-1,1v2c0,0.6,0.4,1,1,1s1-0.4,1-1v-2C33,35.4,32.6,35,32,35z"/>
<path d="M44,31c-0.6,0-1,0.4-1,1v2c0,0.6,0.4,1,1,1s1-0.4,1-1v-2C45,31.4,44.6,31,44,31z"/>
<path d="M38,45c-0.6,0-1,0.4-1,1v2c0,0.6,0.4,1,1,1s1-0.4,1-1v-2C39,45.4,38.6,45,38,45z"/>
<path d="M46.2,19c-1.6-0.3-3.2-0.2-4.8,0.1c0.8-0.7,1.6-1.4,2.2-2.3c3.2-4.7,1.9-12.2,1.8-12.6c-0.1-0.5-0.6-0.9-1.2-0.8
	c-0.3,0.1-7.9,1.5-11.1,6.2c-1.1,1.6-1.7,3.5-1.9,5.3c-0.3-0.7-0.7-1.5-1.1-2.2c-2.5-4.1-5.9-6.4-8.3-7.6c-0.5-0.2-1.1,0-1.3,0.4
	c-0.2,0.5,0,1.1,0.4,1.3c2.2,1.1,5.2,3.1,7.5,6.8c1.6,2.6,2.3,5.2,2.5,7.2c-1.2-0.2-2.6-0.5-4-0.9c-2.8-0.8-6.1-1.6-9.1-1
	C10.7,20.4,7,26,7,35.3C7,48.8,23.3,63,32,63s25-14.2,25-27.7C57,26,53.3,20.4,46.2,19z M34.8,10.7c2.1-3.1,6.7-4.6,8.8-5.1
	c0.2,2.1,0.5,6.9-1.7,10c-2.1,3.1-6.7,4.6-8.8,5.1C32.9,18.6,32.7,13.8,34.8,10.7z M32,61C24.8,61,9,48.1,9,35.3
	c0-5.7,1.6-12.9,9.2-14.4c0.6-0.1,1.2-0.2,1.8-0.2c2.1,0,4.3,0.6,6.4,1.1c2,0.5,3.9,1,5.6,1c0,0,0,0,0,0c0,0,0,0,0,0c0,0,0,0,0,0
	c0,0,0,0,0,0c0,0,0,0,0.1,0c0,0,0,0,0,0c1.7,0,3.6-0.5,5.6-1c2.8-0.7,5.6-1.5,8.2-1c7.6,1.5,9.2,8.6,9.2,14.4C55,48.1,39.2,61,32,61
	z"/>
</svg>
