<?xml version="1.0" encoding="utf-8"?>
<!-- Generator: Adobe Illustrator 19.1.0, SVG Export Plug-In . SVG Version: 6.00 Build 0)  -->
<!DOCTYPE svg PUBLIC "-//W3C//DTD SVG 1.1//EN" "http://www.w3.org/Graphics/SVG/1.1/DTD/svg11.dtd">
<svg version="1.1" id="Layer_1" xmlns="http://www.w3.org/2000/svg" xmlns:xlink="http://www.w3.org/1999/xlink" x="0px" y="0px"
	 width="64px" height="64px" viewBox="0 0 64 64" enable-background="new 0 0 64 64" xml:space="preserve">
<path d="M42,23h-6c-0.6,0-1,0.4-1,1s0.4,1,1,1h6c0.6,0,1-0.4,1-1S42.6,23,42,23z"/>
<path d="M42,31h-6c-0.6,0-1,0.4-1,1s0.4,1,1,1h6c0.6,0,1-0.4,1-1S42.6,31,42,31z"/>
<path d="M42,39h-6c-0.6,0-1,0.4-1,1s0.4,1,1,1h6c0.6,0,1-0.4,1-1S42.6,39,42,39z"/>
<path d="M42,47h-6c-0.6,0-1,0.4-1,1s0.4,1,1,1h6c0.6,0,1-0.4,1-1S42.6,47,42,47z"/>
<path d="M62,5H52H4C3.6,5,3.3,5.2,3.1,5.5C3,5.8,3,6.2,3.1,6.5L11,20.3V52c0,3.9,3.1,7,7,7h28c3.9,0,7-3.1,7-7V25h5c2.8,0,5-2.2,5-5
	V6C63,5.4,62.6,5,62,5z M51,52c0,2.8-2.2,5-5,5H18c-2.8,0-5-2.2-5-5V20c0-0.2,0-0.3-0.1-0.5L5.7,7H51V52z M61,20c0,1.7-1.3,3-3,3h-5
	V7h8V20z"/>
</svg>
