<?xml version="1.0" encoding="utf-8"?>
<!-- Generator: Adobe Illustrator 19.1.0, SVG Export Plug-In . SVG Version: 6.00 Build 0)  -->
<!DOCTYPE svg PUBLIC "-//W3C//DTD SVG 1.1//EN" "http://www.w3.org/Graphics/SVG/1.1/DTD/svg11.dtd">
<svg version="1.1" id="Layer_1" xmlns="http://www.w3.org/2000/svg" xmlns:xlink="http://www.w3.org/1999/xlink" x="0px" y="0px"
	 width="64px" height="64px" viewBox="0 0 64 64" enable-background="new 0 0 64 64" xml:space="preserve">
<path d="M44.5,21.4c0.3,0,0.5-0.1,0.7-0.3l8.5-8.5c0.4-0.4,0.4-1,0-1.4s-1-0.4-1.4,0l-8.5,8.5c-0.4,0.4-0.4,1,0,1.4
	C44,21.3,44.2,21.4,44.5,21.4z"/>
<path d="M48.9,30c0.1,0,0.1,0,0.2,0l11.8-2.1c0.5-0.1,0.9-0.6,0.8-1.2c-0.1-0.5-0.6-0.9-1.2-0.8L48.8,28c-0.5,0.1-0.9,0.6-0.8,1.2
	C48,29.6,48.5,30,48.9,30z"/>
<path d="M37,4L35,15.8c-0.1,0.5,0.3,1.1,0.8,1.2c0.1,0,0.1,0,0.2,0c0.5,0,0.9-0.3,1-0.8L39,4.3c0.1-0.5-0.3-1.1-0.8-1.2
	C37.7,3.1,37.1,3.4,37,4z"/>
<path d="M32.3,62c0.1,0,0.3,0,0.4,0c11-0.1,21.8-5.6,29.7-14.9c0.7-0.8,0.8-2,0.3-3c-0.6-1-1.6-1.5-2.7-1.3
	c-4.2,0.7-7.7,1.6-10.8,2.3c-10.2,2.4-14.8,3.5-20.4-3.9c-2.5-3.2-2.9-9.2-3.2-14.1c-0.2-2.2-0.3-4.1-0.6-5.5c-1-4.8-4.3-7.5-9.9-8
	c1.1-2.5,2.9-3.5,4.1-3.8c0.5-0.1,0.9-0.6,0.8-1.2S19.4,8,18.8,8.1c-1.8,0.3-4.6,1.9-5.9,5.7C4.9,13.9,1,17.9,1,26.1
	c0,11.3,4.4,21.3,8.7,26.2C15.4,58.6,23.4,62,32.3,62z M12.4,15.8c-0.2,1.4-0.3,2.9-0.1,4.7c0.1,0.5,0.5,0.9,1,0.9c0,0,0.1,0,0.1,0
	c0.5-0.1,0.9-0.6,0.9-1.1c-0.2-1.8-0.1-3.3,0.1-4.5c5,0.3,7.7,2.3,8.6,6.4c0.3,1.3,0.4,3.3,0.6,5.3c0.4,5.1,0.8,11.4,3.6,15.1
	c6.4,8.4,12.1,7.1,22.5,4.6c3.1-0.7,6.5-1.6,10.6-2.3c0.4-0.1,0.5,0.2,0.6,0.3c0.1,0.1,0.2,0.4-0.1,0.7c-7.5,8.9-17.8,14-28.2,14.2
	c-8.5,0.1-16.1-3.1-21.5-9.1C7.1,46.3,3,36.9,3,26.1C3,19.2,5.9,16,12.4,15.8z"/>
</svg>
