<?xml version="1.0" encoding="utf-8"?>
<!-- Generator: Adobe Illustrator 19.1.0, SVG Export Plug-In . SVG Version: 6.00 Build 0)  -->
<!DOCTYPE svg PUBLIC "-//W3C//DTD SVG 1.1//EN" "http://www.w3.org/Graphics/SVG/1.1/DTD/svg11.dtd">
<svg version="1.1" id="Layer_1" xmlns="http://www.w3.org/2000/svg" xmlns:xlink="http://www.w3.org/1999/xlink" x="0px" y="0px"
	 width="64px" height="64px" viewBox="0 0 64 64" enable-background="new 0 0 64 64" xml:space="preserve">
<path d="M10.3,61c1.4,0,2.7-0.5,3.8-1.7c1.4-1.4,2.5-3.7,3.1-6.3c0.2-1,0.6-3.3,0-4.8l12.7-12.7c1.3,1,2.9,1.6,4.6,1.6
	c1.6,0,3.1-0.5,4.5-1.5l19-14c1.8-1.3,2.9-3.3,3.1-5.5c0.2-2.2-0.6-4.3-2.2-5.9l-5.1-5.1c-1.6-1.6-3.7-2.3-5.9-2.2
	c-2.2,0.2-4.2,1.3-5.5,3.1l-14,19c-2,2.7-1.9,6.4,0.1,9L15.8,46.8c-1.5-0.6-3.8-0.2-4.8,0c-2.6,0.6-4.9,1.8-6.3,3.1
	c-2.5,2.5-2.3,5.7,0.7,8.7C6.9,60.2,8.6,61,10.3,61z M59,16c-0.1,1.6-0.9,3.1-2.2,4l-19,14c-1.9,1.4-4.5,1.4-6.4,0.1L55.6,9.9
	l1.8,1.8C58.5,12.9,59.1,14.4,59,16z M30,26.3l14-19c1-1.3,2.4-2.1,4-2.2c1.6-0.1,3.2,0.5,4.3,1.6l1.8,1.8L29.9,32.7
	C28.6,30.8,28.6,28.3,30,26.3z M6.1,51.4c1.1-1.1,3.1-2.1,5.3-2.6c1-0.2,1.8-0.3,2.4-0.3c0.8,0,1.3,0.1,1.4,0.3
	c0.2,0.2,0.5,1.6-0.1,3.8c-0.5,2.2-1.5,4.2-2.6,5.3c-2.3,2.3-4.9,0.3-5.8-0.7C4.6,55.1,4.4,53.1,6.1,51.4z"/>
</svg>
