<?xml version="1.0" encoding="utf-8"?>
<!-- Generator: Adobe Illustrator 19.1.0, SVG Export Plug-In . SVG Version: 6.00 Build 0)  -->
<!DOCTYPE svg PUBLIC "-//W3C//DTD SVG 1.1//EN" "http://www.w3.org/Graphics/SVG/1.1/DTD/svg11.dtd">
<svg version="1.1" id="Layer_1" xmlns="http://www.w3.org/2000/svg" xmlns:xlink="http://www.w3.org/1999/xlink" x="0px" y="0px"
	 width="64px" height="64px" viewBox="0 0 64 64" enable-background="new 0 0 64 64" xml:space="preserve">
<path d="M45,14.7c0-3.2-5.6-10.5-6.2-11.3c-0.4-0.5-1.2-0.5-1.6,0C36.6,4.2,31,11.5,31,14.7c0,3.5,3.1,6.3,7,6.3S45,18.2,45,14.7z
	 M33,14.7c0-1.7,2.8-6,5-9c2.2,3,5,7.3,5,9c0,2.4-2.2,4.3-5,4.3S33,17.1,33,14.7z"/>
<path d="M57,56V36c0-0.6-0.4-1-1-1h-7v-5c0-2.8-2.2-5-5-5H28c-0.6,0-1,0.4-1,1v9h-6V4c0-0.6-0.4-1-1-1h-6c-3.9,0-7,3.1-7,7v20
	c0,3.9,3.1,7,7,7h5v19c0,3.9,3.1,7,7,7h24C53.9,63,57,59.9,57,56z M29,32h6c0.6,0,1-0.4,1-1s-0.4-1-1-1h-6v-3h15c1.7,0,3,1.3,3,3v5
	H29V32z M9,30V10c0-2.8,2.2-5,5-5h5v30h-5C11.2,35,9,32.8,9,30z M21,56V37h34v19c0,2.8-2.2,5-5,5H26C23.2,61,21,58.8,21,56z"/>
</svg>
