<?xml version="1.0" encoding="utf-8"?>
<!-- Generator: Adobe Illustrator 19.1.0, SVG Export Plug-In . SVG Version: 6.00 Build 0)  -->
<!DOCTYPE svg PUBLIC "-//W3C//DTD SVG 1.1//EN" "http://www.w3.org/Graphics/SVG/1.1/DTD/svg11.dtd">
<svg version="1.1" id="Layer_1" xmlns="http://www.w3.org/2000/svg" xmlns:xlink="http://www.w3.org/1999/xlink" x="0px" y="0px"
	 width="64px" height="64px" viewBox="0 0 64 64" enable-background="new 0 0 64 64" xml:space="preserve">
<path d="M42,29c3.9,0,7-3.1,7-7s-3.1-7-7-7s-7,3.1-7,7S38.1,29,42,29z M42,17c2.8,0,5,2.2,5,5s-2.2,5-5,5s-5-2.2-5-5S39.2,17,42,17z
	"/>
<path d="M4,53c0.1,0,0.2,0,0.4-0.1l11-4.3l-4.3,11c-0.2,0.5,0.1,1.1,0.6,1.3c0.1,0,0.2,0.1,0.4,0.1c0.4,0,0.8-0.2,0.9-0.6l5-12.8
	l42.4-16.7c0.5-0.2,0.8-0.8,0.6-1.3c-0.2-0.5-0.8-0.8-1.3-0.6l-6,2.3c2.1-2.6,3.3-5.9,3.3-9.4c0-8.3-6.7-15-15-15
	c-3.6,0-6.8,1.3-9.4,3.3l2.3-6c0.2-0.5-0.1-1.1-0.6-1.3c-0.5-0.2-1.1,0.1-1.3,0.6L16.4,46.1l-12.8,5c-0.5,0.2-0.8,0.8-0.6,1.3
	C3.2,52.8,3.6,53,4,53z M42,9c7.2,0,13,5.8,13,13s-5.8,13-13,13s-13-5.8-13-13S34.8,9,42,9z M27.2,24.1c0.9,6.6,6.1,11.8,12.7,12.7
	l-20.9,8.2L27.2,24.1z"/>
</svg>
