<?xml version="1.0" encoding="utf-8"?>
<!-- Generator: Adobe Illustrator 19.1.0, SVG Export Plug-In . SVG Version: 6.00 Build 0)  -->
<!DOCTYPE svg PUBLIC "-//W3C//DTD SVG 1.1//EN" "http://www.w3.org/Graphics/SVG/1.1/DTD/svg11.dtd">
<svg version="1.1" id="Layer_1" xmlns="http://www.w3.org/2000/svg" xmlns:xlink="http://www.w3.org/1999/xlink" x="0px" y="0px"
	 width="64px" height="64px" viewBox="0 0 64 64" enable-background="new 0 0 64 64" xml:space="preserve">
<path d="M44,5c0.6,0,1-0.4,1-1s-0.4-1-1-1c-8.5,0-12.6,5.9-13,12.1c-3.1,0.3-5.7,2.2-7,4.8C22.5,17,19.5,15,16,15c-5,0-9,4-9,9
	s4,9,9,9c0.2,0,0.4,0,0.5,0c-1,1.4-1.5,3.2-1.5,5c0,5,4,9,9,9c0.2,0,0.4,0,0.5,0c-1,1.4-1.5,3.2-1.5,5c0,5,4,9,9,9s9-4,9-9
	c0-1.9-0.6-3.6-1.5-5c0.2,0,0.4,0,0.5,0c5,0,9-4,9-9c0-1.9-0.6-3.6-1.5-5c0.2,0,0.4,0,0.5,0c5,0,9-4,9-9s-4-9-9-9
	c-3.5,0-6.5,2-8,4.9c-1.3-2.6-3.9-4.5-7-4.8C33.4,10.2,36.4,5,44,5z M9,24c0-3.9,3.1-7,7-7s7,3.1,7,7s-3.1,7-7,7S9,27.9,9,24z
	 M24,28.1c0.2,0.3,0.3,0.6,0.5,0.9c-0.2,0-0.4,0-0.5,0s-0.4,0-0.5,0C23.7,28.7,23.8,28.4,24,28.1z M17,38c0-3.9,3.1-7,7-7s7,3.1,7,7
	s-3.1,7-7,7S17,41.9,17,38z M31.5,33c0.2,0,0.4,0,0.5,0s0.4,0,0.5,0c-0.2,0.3-0.4,0.6-0.5,0.9C31.8,33.6,31.7,33.3,31.5,33z
	 M32,42.1c0.2,0.3,0.3,0.6,0.5,0.9c-0.2,0-0.4,0-0.5,0s-0.4,0-0.5,0C31.7,42.7,31.8,42.4,32,42.1z M32,59c-3.9,0-7-3.1-7-7
	s3.1-7,7-7s7,3.1,7,7S35.9,59,32,59z M40,45c-3.9,0-7-3.1-7-7s3.1-7,7-7s7,3.1,7,7S43.9,45,40,45z M39.5,29c0.2-0.3,0.4-0.6,0.5-0.9
	c0.2,0.3,0.3,0.6,0.5,0.9c-0.2,0-0.4,0-0.5,0S39.6,29,39.5,29z M48,17c3.9,0,7,3.1,7,7s-3.1,7-7,7s-7-3.1-7-7S44.1,17,48,17z M39,24
	c0,3.9-3.1,7-7,7s-7-3.1-7-7s3.1-7,7-7S39,20.1,39,24z"/>
</svg>
