<?xml version="1.0" encoding="utf-8"?>
<!-- Generator: Adobe Illustrator 19.1.0, SVG Export Plug-In . SVG Version: 6.00 Build 0)  -->
<!DOCTYPE svg PUBLIC "-//W3C//DTD SVG 1.1//EN" "http://www.w3.org/Graphics/SVG/1.1/DTD/svg11.dtd">
<svg version="1.1" id="Layer_1" xmlns="http://www.w3.org/2000/svg" xmlns:xlink="http://www.w3.org/1999/xlink" x="0px" y="0px"
	 width="64px" height="64px" viewBox="0 0 64 64" enable-background="new 0 0 64 64" xml:space="preserve">
<path d="M31.2,3.4C30.5,4.4,27,9.6,27,12c0,2.8,2.2,5,5,5s5-2.2,5-5c0-2.4-3.5-7.6-4.2-8.6C32.4,2.9,31.6,2.9,31.2,3.4z M35,12
	c0,1.7-1.3,3-3,3s-3-1.3-3-3c0-1.1,1.6-3.9,3-6.2C33.4,8.1,35,10.9,35,12z"/>
<path d="M41,62c0-3.9-3.1-7-7-7h-1v-6h15c0.6,0,1-0.4,1-1s-0.4-1-1-1h-9V24c0-0.6-0.4-1-1-1H26c-0.6,0-1,0.4-1,1v23h-9
	c-0.6,0-1,0.4-1,1s0.4,1,1,1h15v6h-1c-3.9,0-7,3.1-7,7c0,0.6,0.4,1,1,1h16C40.6,63,41,62.6,41,62z M27,25h10v22H27V25z M25.1,61
	c0.5-2.3,2.5-4,4.9-4h4c2.4,0,4.4,1.7,4.9,4H25.1z"/>
</svg>
