<?xml version="1.0" encoding="utf-8"?>
<!-- Generator: Adobe Illustrator 19.1.0, SVG Export Plug-In . SVG Version: 6.00 Build 0)  -->
<!DOCTYPE svg PUBLIC "-//W3C//DTD SVG 1.1//EN" "http://www.w3.org/Graphics/SVG/1.1/DTD/svg11.dtd">
<svg version="1.1" id="Layer_1" xmlns="http://www.w3.org/2000/svg" xmlns:xlink="http://www.w3.org/1999/xlink" x="0px" y="0px"
	 width="64px" height="64px" viewBox="0 0 64 64" enable-background="new 0 0 64 64" xml:space="preserve">
<path d="M5,62c0,0.6,0.4,1,1,1h6c0.6,0,1-0.4,1-1V18.8c2.5-2.9,4-7.9,4-10.4C17,4.3,13.4,1,9,1S1,4.3,1,8.4c0,2.5,1.5,7.5,4,10.4V62
	z M7,61V20.5C7.6,20.8,8.3,21,9,21s1.4-0.2,2-0.5V61H7z M9,3c3.3,0,6,2.4,6,5.4c0,2.5-1.6,7-3.7,9.3c0,0,0,0,0,0
	C10.6,18.5,9.8,19,9,19s-1.6-0.5-2.3-1.3c0,0,0,0,0,0C4.6,15.5,3,10.9,3,8.4C3,5.4,5.7,3,9,3z"/>
<path d="M62,25h-3v-7c0-0.6-0.4-1-1-1H26c-0.6,0-1,0.4-1,1v7h-3c-0.6,0-1,0.4-1,1v36c0,0.6,0.4,1,1,1h40c0.6,0,1-0.4,1-1V26
	C63,25.4,62.6,25,62,25z M27,19h30v6H27V19z M61,61H23V27h38V61z"/>
<path d="M41.2,35.4c-0.6,0.8-6.2,8.1-6.2,11.3c0,3.5,3.1,6.3,7,6.3s7-2.8,7-6.3c0-3.2-5.6-10.5-6.2-11.3
	C42.4,34.9,41.6,34.9,41.2,35.4z M42,51c-2.8,0-5-1.9-5-4.3c0-1.7,2.8-6,5-9c2.2,3,5,7.3,5,9C47,49.1,44.8,51,42,51z"/>
</svg>
