<?xml version="1.0" encoding="utf-8"?>
<!-- Generator: Adobe Illustrator 19.1.0, SVG Export Plug-In . SVG Version: 6.00 Build 0)  -->
<!DOCTYPE svg PUBLIC "-//W3C//DTD SVG 1.1//EN" "http://www.w3.org/Graphics/SVG/1.1/DTD/svg11.dtd">
<svg version="1.1" id="Layer_1" xmlns="http://www.w3.org/2000/svg" xmlns:xlink="http://www.w3.org/1999/xlink" x="0px" y="0px"
	 width="64px" height="64px" viewBox="0 0 64 64" enable-background="new 0 0 64 64" xml:space="preserve">
<path d="M52,45h-6c-0.6,0-1,0.4-1,1s0.4,1,1,1h6c0.6,0,1-0.4,1-1S52.6,45,52,45z"/>
<path d="M62.9,33.6c0-0.1-0.1-0.2-0.2-0.3c0,0,0,0,0,0c-0.1-0.1-0.1-0.1-0.2-0.2L45,23.4V6c0-0.6-0.4-1-1-1H20c-0.6,0-1,0.4-1,1
	v17.4L1.5,33.1c-0.1,0-0.2,0.1-0.2,0.2c0,0,0,0,0,0c-0.1,0.1-0.1,0.2-0.2,0.3c0,0,0,0.1,0,0.1C1,33.8,1,33.9,1,34v24
	c0,0.6,0.4,1,1,1h60c0.6,0,1-0.4,1-1V34C63,33.9,63,33.8,62.9,33.6C62.9,33.6,62.9,33.6,62.9,33.6z M20.5,24.9
	c0.3-0.2,0.5-0.5,0.5-0.9V7h22v17c0,0.4,0.2,0.7,0.5,0.9L58.1,33H5.9L20.5,24.9z M3,57V35h58v22H3z"/>
</svg>
