<?xml version="1.0" encoding="utf-8"?>
<!-- Generator: Adobe Illustrator 19.1.0, SVG Export Plug-In . SVG Version: 6.00 Build 0)  -->
<!DOCTYPE svg PUBLIC "-//W3C//DTD SVG 1.1//EN" "http://www.w3.org/Graphics/SVG/1.1/DTD/svg11.dtd">
<svg version="1.1" id="Layer_1" xmlns="http://www.w3.org/2000/svg" xmlns:xlink="http://www.w3.org/1999/xlink" x="0px" y="0px"
	 width="64px" height="64px" viewBox="0 0 64 64" enable-background="new 0 0 64 64" xml:space="preserve">
<path d="M62.9,25.6c0-0.1-0.1-0.1-0.1-0.2c0,0,0-0.1-0.1-0.1c-0.1-0.1-0.2-0.1-0.3-0.2c0,0,0,0,0,0c0,0,0,0,0,0l-38-16
	C24.3,9,24.1,9,24,9C5.8,9,1,19.7,1,26v28c0,0.6,0.4,1,1,1h60c0.6,0,1-0.4,1-1V26C63,25.9,63,25.8,62.9,25.6
	C62.9,25.6,62.9,25.6,62.9,25.6z M61,39H31V27h30V39z M23.8,11L57,25H30c-0.6,0-1,0.4-1,1v16c0,1.7-1.3,3-3,3s-3-1.3-3-3V26
	c0-0.6-0.4-1-1-1H3C3.5,19.4,8.3,11.1,23.8,11z M3,27h18v12H3V27z M3,53V41h18v1c0,2.8,2.2,5,5,5s5-2.2,5-5v-1h30v12H3z"/>
</svg>
