<?xml version="1.0" encoding="utf-8"?>
<!-- Generator: Adobe Illustrator 19.1.0, SVG Export Plug-In . SVG Version: 6.00 Build 0)  -->
<!DOCTYPE svg PUBLIC "-//W3C//DTD SVG 1.1//EN" "http://www.w3.org/Graphics/SVG/1.1/DTD/svg11.dtd">
<svg version="1.1" id="Layer_1" xmlns="http://www.w3.org/2000/svg" xmlns:xlink="http://www.w3.org/1999/xlink" x="0px" y="0px"
	 width="64px" height="64px" viewBox="0 0 64 64" enable-background="new 0 0 64 64" xml:space="preserve">
<path d="M15.7,1.6c-0.2-0.3-0.5-0.6-0.8-0.6c-3.7-0.2-7.4,1.1-10,3.8c-5,5-5.1,13-0.3,18.1c-1.5,4.1-1.3,7.9,0.6,11
	c1.4,2.2,3.6,3.9,6,4.6c-4.7,3.3-7.7,6.5-8,6.8c-0.4,0.4-0.4,1,0,1.4c0.3,0.3,3.6,3.8,8.7,7.3C9,56.4,9,61.7,9,62c0,0.6,0.4,1,1,1
	s1-0.4,1-1c0-0.1,0.1-5.5,2.8-6.8c5,3.1,11.3,5.8,18.2,5.8c6.9,0,13.2-2.8,18.2-5.9c2.3,1.1,2.8,5.2,2.8,6.9c0,0.6,0.4,1,1,1h0
	c0.6,0,1-0.4,1-1c0-0.3,0-5.7-3-8c5.1-3.5,8.4-7,8.7-7.3c0.4-0.4,0.4-1,0-1.4c-0.3-0.3-3.2-3.5-8-6.8c2.5-0.8,4.7-2.4,6-4.6
	c1.9-3.1,2.1-6.9,0.6-11c4.8-5.1,4.7-13.1-0.3-18.1c-2.6-2.6-6.3-4-10-3.8c-0.4,0-0.7,0.3-0.8,0.6c-0.2,0.3-0.1,0.7,0.1,1
	c2.4,3.1,3.8,10.5,2.3,12.1c-1.6,1.6-8.9,0.2-12.1-2.3c-0.3-0.2-0.7-0.3-1-0.1c-0.3,0.2-0.6,0.5-0.6,0.8c-0.2,3.7,1.1,7.4,3.8,10
	c2.5,2.5,5.9,3.8,9.2,3.8c2.8,0,5.5-0.9,7.9-2.7c1.3,4,0.3,6.8-0.7,8.5c-1.4,2.3-4,3.8-6.7,4.1c-5-3.1-11.4-6-18.4-6
	s-13.4,2.8-18.4,6c-2.7-0.3-5.3-1.8-6.7-4.1c-1.1-1.7-2-4.5-0.7-8.5C8.5,26.1,11.2,27,14,27c3.3,0,6.7-1.3,9.2-3.8
	c2.6-2.6,4-6.3,3.8-10c0-0.4-0.3-0.7-0.6-0.8c-0.3-0.2-0.7-0.1-1,0.1c-3.2,2.5-10.5,3.9-12.1,2.3c-1.5-1.5-0.1-9,2.3-12.1
	C15.8,2.4,15.9,2,15.7,1.6z M42.2,21.8C40.4,20,39.3,17.6,39,15c3.8,2,10.6,3.5,13.1,1.1c2.3-2.2,1-9.1-1.1-13.1
	c2.5,0.2,4.9,1.3,6.7,3.2c4.3,4.3,4.3,11.3,0,15.6C53.5,26.1,46.5,26.1,42.2,21.8z M58.6,46c-1.3,1.3-4.6,4.3-8.9,7.1
	c-0.1,0.1-0.3,0.1-0.4,0.2C44.5,56.3,38.4,59,32,59c-6.4,0-12.4-2.6-17.2-5.6c-0.1-0.2-0.4-0.3-0.6-0.4c-4.3-2.8-7.5-5.7-8.8-7
	c2.8-2.8,14-13,26.6-13C44.6,33,55.8,43.2,58.6,46z M11.9,16.1C14.3,18.5,21.1,17,25,15c-0.2,2.5-1.3,4.9-3.2,6.8
	c-4.3,4.3-11.3,4.3-15.6,0c-4.3-4.3-4.3-11.3,0-15.6c1.8-1.8,4.2-2.9,6.7-3.2C10.9,7.1,9.6,13.9,11.9,16.1z"/>
<circle cx="25" cy="42" r="2"/>
<circle cx="39" cy="42" r="2"/>
</svg>
