<?xml version="1.0" encoding="utf-8"?>
<!-- Generator: Adobe Illustrator 19.1.0, SVG Export Plug-In . SVG Version: 6.00 Build 0)  -->
<!DOCTYPE svg PUBLIC "-//W3C//DTD SVG 1.1//EN" "http://www.w3.org/Graphics/SVG/1.1/DTD/svg11.dtd">
<svg version="1.1" id="Layer_1" xmlns="http://www.w3.org/2000/svg" xmlns:xlink="http://www.w3.org/1999/xlink" x="0px" y="0px"
	 width="64px" height="64px" viewBox="0 0 64 64" enable-background="new 0 0 64 64" xml:space="preserve">
<path d="M38,19c-0.6,0-1,0.4-1,1v6h-4v-6c0-0.6-0.4-1-1-1s-1,0.4-1,1v6h-4v-6c0-0.6-0.4-1-1-1s-1,0.4-1,1v10c0,1.7,1.3,3,3,3v18
	c0,2.2,1.8,4,4,4s4-1.8,4-4V33c1.7,0,3-1.3,3-3V20C39,19.4,38.6,19,38,19z M34,51c0,1.1-0.9,2-2,2s-2-0.9-2-2V33h4V51z M36,31h-8
	c-0.6,0-1-0.4-1-1v-2h10v2C37,30.6,36.6,31,36,31z"/>
<path d="M57,62V6c0-0.6-0.4-1-1-1H45V2c0-0.6-0.4-1-1-1s-1,0.4-1,1v3H33V2c0-0.6-0.4-1-1-1s-1,0.4-1,1v3H21V2c0-0.6-0.4-1-1-1
	s-1,0.4-1,1v3H8C7.4,5,7,5.4,7,6v56c0,0.6,0.4,1,1,1h48C56.6,63,57,62.6,57,62z M55,61H9V7h10v3c0,0.6,0.4,1,1,1s1-0.4,1-1V7h10v3
	c0,0.6,0.4,1,1,1s1-0.4,1-1V7h10v3c0,0.6,0.4,1,1,1s1-0.4,1-1V7h10V61z"/>
</svg>
