<?xml version="1.0" encoding="utf-8"?>
<!-- Generator: Adobe Illustrator 19.1.0, SVG Export Plug-In . SVG Version: 6.00 Build 0)  -->
<!DOCTYPE svg PUBLIC "-//W3C//DTD SVG 1.1//EN" "http://www.w3.org/Graphics/SVG/1.1/DTD/svg11.dtd">
<svg version="1.1" id="Layer_1" xmlns="http://www.w3.org/2000/svg" xmlns:xlink="http://www.w3.org/1999/xlink" x="0px" y="0px"
	 width="64px" height="64px" viewBox="0 0 64 64" enable-background="new 0 0 64 64" xml:space="preserve">
<path d="M62,3.4c-5.1,0-8.8,2.1-11.1,6.1c-2.4-1.7-5.3-2.5-8.2-2.3c-3.7,0.2-7.2,2-9.5,5l-30.6,39c-2.2,2.8-2,6.9,0.6,9.5
	c1.4,1.4,3.2,2.1,5.1,2.1c1.6,0,3.1-0.5,4.4-1.5l39-30.6c2.9-2.3,4.8-5.8,5-9.5c0.2-3.7-1.2-7.4-3.8-10c-0.1-0.1-0.2-0.1-0.2-0.2
	c1.9-3.6,5-5.3,9.5-5.3c0.6,0,1-0.4,1-1S62.6,3.4,62,3.4z M54.5,20.8c-0.2,3.2-1.7,6.1-4.2,8.1L31.5,43.7l-5.8-5.8
	c-0.4-0.4-1-0.4-1.4,0s-0.4,1,0,1.4l5.6,5.6L11.3,59.5c-2,1.6-5,1.4-6.8-0.4c-1.8-1.8-2-4.8-0.4-6.8L8,47.4l3.3,3.3
	c0.2,0.2,0.5,0.3,0.7,0.3s0.5-0.1,0.7-0.3c0.4-0.4,0.4-1,0-1.4l-3.5-3.5l19.7-25l7,7c0.2,0.2,0.5,0.3,0.7,0.3s0.5-0.1,0.7-0.3
	c0.4-0.4,0.4-1,0-1.4l-7.2-7.2l4.6-5.9c2-2.5,4.9-4,8.1-4.2c3.2-0.2,6.3,1,8.5,3.2S54.7,17.7,54.5,20.8z"/>
</svg>
