<?xml version="1.0" encoding="utf-8"?>
<!-- Generator: Adobe Illustrator 19.1.0, SVG Export Plug-In . SVG Version: 6.00 Build 0)  -->
<!DOCTYPE svg PUBLIC "-//W3C//DTD SVG 1.1//EN" "http://www.w3.org/Graphics/SVG/1.1/DTD/svg11.dtd">
<svg version="1.1" id="Layer_1" xmlns="http://www.w3.org/2000/svg" xmlns:xlink="http://www.w3.org/1999/xlink" x="0px" y="0px"
	 width="64px" height="64px" viewBox="0 0 64 64" enable-background="new 0 0 64 64" xml:space="preserve">
<path d="M52,25c1.7,0,3-1.3,3-3s-1.3-3-3-3s-3,1.3-3,3S50.3,25,52,25z M52,21c0.6,0,1,0.4,1,1s-0.4,1-1,1s-1-0.4-1-1S51.4,21,52,21z
	"/>
<path d="M52,37c1.7,0,3-1.3,3-3s-1.3-3-3-3s-3,1.3-3,3S50.3,37,52,37z M52,33c0.6,0,1,0.4,1,1s-0.4,1-1,1s-1-0.4-1-1S51.4,33,52,33z
	"/>
<path d="M50,45h4c0.6,0,1-0.4,1-1s-0.4-1-1-1h-4c-0.6,0-1,0.4-1,1S49.4,45,50,45z"/>
<path d="M10,45h32c0.6,0,1-0.4,1-1V20c0-0.6-0.4-1-1-1H10c-0.6,0-1,0.4-1,1v24C9,44.6,9.4,45,10,45z M11,21h30v22H11V21z"/>
<path d="M62,9H2c-0.6,0-1,0.4-1,1v44c0,0.6,0.4,1,1,1h60c0.6,0,1-0.4,1-1V10C63,9.4,62.6,9,62,9z M61,53H3V11h58V53z"/>
</svg>
