<?xml version="1.0" encoding="utf-8"?>
<!-- Generator: Adobe Illustrator 19.1.0, SVG Export Plug-In . SVG Version: 6.00 Build 0)  -->
<!DOCTYPE svg PUBLIC "-//W3C//DTD SVG 1.1//EN" "http://www.w3.org/Graphics/SVG/1.1/DTD/svg11.dtd">
<svg version="1.1" id="Layer_1" xmlns="http://www.w3.org/2000/svg" xmlns:xlink="http://www.w3.org/1999/xlink" x="0px" y="0px"
	 width="64px" height="64px" viewBox="0 0 64 64" enable-background="new 0 0 64 64" xml:space="preserve">
<path d="M50.3,20.2c3.5,0,7.7-1.1,9.9-3.4c1.6-1.6,2.1-3.5,1.6-5.7c-0.5-1.8-1.6-3.6-3.5-5.5c-4-4-8.3-4.8-11.2-1.9
	c-3.3,3.3-4.2,11-2.5,14.2l-6.5,6.5l-5.1-5.1c-0.4-0.4-1-0.4-1.4,0l-5.1,5.1l-5.1-5.1c-0.2-0.2-0.4-0.3-0.7-0.3s-0.5,0.1-0.7,0.3
	L12,27.1c-0.4,0.4-0.4,1,0,1.4l7.6,7.6c-0.4,0-0.7-0.1-1.1-0.1c-2.5,0-4.8,1-6.6,2.7c-1.8,1.8-2.7,4.1-2.7,6.6c0,2.1,0.7,4.2,2,5.8
	l-9.1,9.1c-0.4,0.4-0.4,1,0,1.4C2.5,61.9,2.7,62,3,62s0.5-0.1,0.7-0.3l9.1-9.1c1.6,1.3,3.7,2,5.8,2c2.5,0,4.8-1,6.6-2.7
	c1.8-1.8,2.7-4.1,2.7-6.6c0-0.4,0-0.7-0.1-1.1l7.6,7.6c0.2,0.2,0.4,0.3,0.7,0.3s0.5-0.1,0.7-0.3l7.8-7.8c0.4-0.4,0.4-1,0-1.4
	l-5.1-5.1l5.1-5.1c0.2-0.2,0.3-0.4,0.3-0.7s-0.1-0.5-0.3-0.7l-5.1-5.1l6.5-6.5C47.1,19.9,48.6,20.2,50.3,20.2z M23.7,50.5
	c-1.4,1.4-3.2,2.1-5.1,2.1c-1.9,0-3.8-0.8-5.1-2.1c-1.4-1.4-2.1-3.2-2.1-5.1c0-1.9,0.8-3.8,2.1-5.1c1.4-1.4,3.2-2.1,5.1-2.1
	c1.9,0,3.8,0.8,5.1,2.1c1.4,1.4,2.1,3.2,2.1,5.1C25.9,47.3,25.1,49.1,23.7,50.5z M36.1,49.8l-22-22l6.4-6.4l1.2,1.2l15.6,15.6
	c0,0,0,0,0,0s0,0,0,0l5.1,5.1L36.1,49.8z M38.1,36.2L27.8,25.9l4.4-4.4l10.3,10.3L38.1,36.2z M48.5,5.2C49.3,4.3,50.2,4,51.1,4
	c2.4,0,4.8,2.2,5.7,3.1c1.6,1.6,2.6,3.2,3,4.6c0.4,1.5,0,2.7-1,3.8c-1.3,1.3-3.9,2.3-6.7,2.7c-2.8,0.3-4.9-0.1-5.5-0.7
	C45.1,15.9,45.6,8,48.5,5.2z"/>
</svg>
