<?xml version="1.0" encoding="utf-8"?>
<!-- Generator: Adobe Illustrator 19.1.0, SVG Export Plug-In . SVG Version: 6.00 Build 0)  -->
<!DOCTYPE svg PUBLIC "-//W3C//DTD SVG 1.1//EN" "http://www.w3.org/Graphics/SVG/1.1/DTD/svg11.dtd">
<svg version="1.1" id="Layer_1" xmlns="http://www.w3.org/2000/svg" xmlns:xlink="http://www.w3.org/1999/xlink" x="0px" y="0px"
	 width="64px" height="64px" viewBox="0 0 64 64" enable-background="new 0 0 64 64" xml:space="preserve">
<path d="M33,12V2c0-0.6-0.4-1-1-1s-1,0.4-1,1v10c0,0.6,0.4,1,1,1S33,12.6,33,12z"/>
<path d="M21,16V6c0-0.6-0.4-1-1-1s-1,0.4-1,1v10c0,0.6,0.4,1,1,1S21,16.6,21,16z"/>
<path d="M45,16V6c0-0.6-0.4-1-1-1s-1,0.4-1,1v10c0,0.6,0.4,1,1,1S45,16.6,45,16z"/>
<path d="M62,53h-3.2c-1.4-12.3-11-22-23.1-23.7c0.8-0.9,1.2-2,1.2-3.3c0-2.8-2.2-5-5-5s-5,2.2-5,5c0,1.3,0.5,2.4,1.2,3.3
	C16.2,31,6.5,40.7,5.2,53H2c-0.6,0-1,0.4-1,1c0,5,4,9,9,9h44c5,0,9-4,9-9C63,53.4,62.6,53,62,53z M29,26c0-1.7,1.3-3,3-3s3,1.3,3,3
	s-1.3,3-3,3S29,27.7,29,26z M32,31c12.6,0,23.3,9.6,24.8,22H7.2C8.7,40.6,19.4,31,32,31z M54,61H10c-3.5,0-6.4-2.6-6.9-6h57.9
	C60.4,58.4,57.5,61,54,61z"/>
<path d="M25.7,38.1c-4.6,1.6-8.3,4.9-10.6,9.2c-0.3,0.5-0.1,1.1,0.4,1.3c0.1,0.1,0.3,0.1,0.5,0.1c0.4,0,0.7-0.2,0.9-0.5
	c2-3.9,5.4-6.8,9.4-8.2c0.5-0.2,0.8-0.8,0.6-1.3S26.2,37.9,25.7,38.1z"/>
</svg>
