<?xml version="1.0" encoding="utf-8"?>
<!-- Generator: Adobe Illustrator 19.1.0, SVG Export Plug-In . SVG Version: 6.00 Build 0)  -->
<!DOCTYPE svg PUBLIC "-//W3C//DTD SVG 1.1//EN" "http://www.w3.org/Graphics/SVG/1.1/DTD/svg11.dtd">
<svg version="1.1" id="Layer_1" xmlns="http://www.w3.org/2000/svg" xmlns:xlink="http://www.w3.org/1999/xlink" x="0px" y="0px"
	 width="64px" height="64px" viewBox="0 0 64 64" enable-background="new 0 0 64 64" xml:space="preserve">
<path d="M20,31c-3.9,0-7,3.1-7,7s3.1,7,7,7s7-3.1,7-7S23.9,31,20,31z M20,43c-2.8,0-5-2.2-5-5s2.2-5,5-5s5,2.2,5,5S22.8,43,20,43z"
	/>
<path d="M37,33c-2.2,0-4,1.8-4,4s1.8,4,4,4s4-1.8,4-4S39.2,33,37,33z M37,39c-1.1,0-2-0.9-2-2s0.9-2,2-2s2,0.9,2,2S38.1,39,37,39z"
	/>
<path d="M62.9,23.6c0-0.1-0.1-0.1-0.1-0.2c0,0,0-0.1-0.1-0.1c-0.1-0.1-0.2-0.1-0.3-0.2c0,0,0,0,0,0c0,0,0,0,0,0l-38-16
	C24.3,7,24.1,7,24,7C5.8,7,1,17.6,1,23.8V52c0,0.6,0.4,1,1,1h60c0.6,0,1-0.4,1-1v-6c0-0.6-0.4-1-1-1c-3.9,0-7-3.1-7-7s3.1-7,7-7
	c0.6,0,1-0.4,1-1v-6C63,23.9,63,23.8,62.9,23.6C62.9,23.6,62.9,23.6,62.9,23.6z M23.8,9L57,23H3C3.5,17.5,8.2,9.1,23.8,9z M53,38
	c0,4.6,3.5,8.4,8,8.9V51H3V25h58v4.1C56.5,29.6,53,33.4,53,38z"/>
</svg>
