<?xml version="1.0" encoding="utf-8"?>
<!-- Generator: Adobe Illustrator 19.1.0, SVG Export Plug-In . SVG Version: 6.00 Build 0)  -->
<!DOCTYPE svg PUBLIC "-//W3C//DTD SVG 1.1//EN" "http://www.w3.org/Graphics/SVG/1.1/DTD/svg11.dtd">
<svg version="1.1" id="Layer_1" xmlns="http://www.w3.org/2000/svg" xmlns:xlink="http://www.w3.org/1999/xlink" x="0px" y="0px"
	 width="64px" height="64px" viewBox="0 0 64 64" enable-background="new 0 0 64 64" xml:space="preserve">
<path d="M48,63c2.8,0,5-2.2,5-5V40V2c0-0.6-0.4-1-1-1c-7.2,0-13,5.8-13,13v26c0,0.6,0.4,1,1,1h3v17C43,60.8,45.2,63,48,63z M48,61
	c-1.7,0-3-1.3-3-3V41h6v17C51,59.7,49.7,61,48,61z M41,14c0-5.7,4.4-10.4,10-11v36H41V14z"/>
<path d="M18,63c2.8,0,5-2.2,5-5V27h1c2.8,0,5-2.2,5-5V2c0-0.6-0.4-1-1-1s-1,0.4-1,1v13h-8V2c0-0.6-0.4-1-1-1s-1,0.4-1,1v13H9V2
	c0-0.6-0.4-1-1-1S7,1.4,7,2v20c0,2.8,2.2,5,5,5h1v31C13,60.8,15.2,63,18,63z M21,58c0,1.7-1.3,3-3,3s-3-1.3-3-3V27h6V58z M9,22v-5
	h18v5c0,1.7-1.3,3-3,3H12C10.3,25,9,23.7,9,22z"/>
</svg>
