<?xml version="1.0" encoding="utf-8"?>
<!-- Generator: Adobe Illustrator 19.1.0, SVG Export Plug-In . SVG Version: 6.00 Build 0)  -->
<!DOCTYPE svg PUBLIC "-//W3C//DTD SVG 1.1//EN" "http://www.w3.org/Graphics/SVG/1.1/DTD/svg11.dtd">
<svg version="1.1" id="Layer_1" xmlns="http://www.w3.org/2000/svg" xmlns:xlink="http://www.w3.org/1999/xlink" x="0px" y="0px"
	 width="64px" height="64px" viewBox="0 0 64 64" enable-background="new 0 0 64 64" xml:space="preserve">
<path d="M51.1,9.2c-1.3,0-2.7,0.2-4,0.7C44.1,4.4,38.3,1,32,1S19.9,4.4,16.9,9.9c-1.3-0.5-2.6-0.7-4-0.7C6.3,9.2,1,14.5,1,21.1
	c0,4.4,2.4,8.2,6,10.3l7.7,30.9c0.1,0.4,0.5,0.8,1,0.8h32.7c0.5,0,0.9-0.3,1-0.8L57,31.4c3.6-2.1,6-5.9,6-10.3
	C63,14.5,57.7,9.2,51.1,9.2z M47.6,61h-8.5L41,46.1c0.1-0.5-0.3-1-0.9-1.1c-0.5-0.1-1,0.3-1.1,0.9L37.1,61H26.9L25,45.9
	c-0.1-0.5-0.6-0.9-1.1-0.9c-0.5,0.1-0.9,0.6-0.9,1.1L24.9,61h-8.5L9.3,32.4c1.1,0.4,2.4,0.6,3.6,0.6c2.5,0,4.9-0.8,6.9-2.3
	c3.2,3.2,7.6,5,12.2,5s8.9-1.8,12.2-5c2,1.5,4.4,2.3,6.9,2.3c1.3,0,2.5-0.2,3.6-0.6L47.6,61z M51.1,31c-2.3,0-4.5-0.8-6.4-2.4
	c-0.4-0.3-1-0.3-1.4,0.1c-2.9,3.2-7,5-11.3,5s-8.4-1.8-11.3-5c-0.2-0.2-0.5-0.3-0.7-0.3c-0.2,0-0.5,0.1-0.6,0.2
	c-1.8,1.6-4,2.4-6.4,2.4C7.4,31,3,26.6,3,21.1s4.4-9.9,9.9-9.9c1.4,0,2.7,0.3,4,0.9c0.5,0.2,1.1,0,1.3-0.5C20.8,6.3,26.1,3,32,3
	s11.2,3.3,13.8,8.6c0.2,0.5,0.8,0.7,1.3,0.5c1.3-0.6,2.6-0.9,4-0.9c5.5,0,9.9,4.4,9.9,9.9S56.6,31,51.1,31z"/>
<path d="M50.7,17.3c-0.4-0.4-1-0.4-1.4,0s-0.4,1,0,1.4l2,2c0.2,0.2,0.5,0.3,0.7,0.3s0.5-0.1,0.7-0.3c0.4-0.4,0.4-1,0-1.4L50.7,17.3z
	"/>
<path d="M12.7,19.3c-0.4-0.4-1-0.4-1.4,0s-0.4,1,0,1.4l2,2c0.2,0.2,0.5,0.3,0.7,0.3s0.5-0.1,0.7-0.3c0.4-0.4,0.4-1,0-1.4L12.7,19.3z
	"/>
<path d="M29.3,11.3l-2,2c-0.4,0.4-0.4,1,0,1.4c0.2,0.2,0.5,0.3,0.7,0.3s0.5-0.1,0.7-0.3l2-2c0.4-0.4,0.4-1,0-1.4
	S29.7,10.9,29.3,11.3z"/>
<path d="M38,21c-0.6,0-1,0.4-1,1v2c0,0.6,0.4,1,1,1s1-0.4,1-1v-2C39,21.4,38.6,21,38,21z"/>
</svg>
