<?xml version="1.0" encoding="utf-8"?>
<!-- Generator: Adobe Illustrator 19.1.0, SVG Export Plug-In . SVG Version: 6.00 Build 0)  -->
<!DOCTYPE svg PUBLIC "-//W3C//DTD SVG 1.1//EN" "http://www.w3.org/Graphics/SVG/1.1/DTD/svg11.dtd">
<svg version="1.1" id="Layer_1" xmlns="http://www.w3.org/2000/svg" xmlns:xlink="http://www.w3.org/1999/xlink" x="0px" y="0px"
	 width="64px" height="64px" viewBox="0 0 64 64" enable-background="new 0 0 64 64" xml:space="preserve">
<path d="M2,38.4c3.1,13.3,18.9,20.7,32.9,21.1c0.7,0,1.3,0,2,0c11.9,0,21.7-2.9,24.6-7.5c2.1-3.3,1.8-7.1,0.3-9.1
	c-0.9-1.3-2.3-1.9-3.6-1.6l-0.3,0.1c-1.5,0.4-4.4,1-8.8,0.9c6.5-2.8,10.8-6.3,12-9.8c1.3-3.7,0.1-7.3-1.8-9
	c-1.2-1.1-2.7-1.3-3.9-0.7L55,23c-2.8,1.5-11.5,5.9-28.4,2.9c-5.9-1-10.2-2.6-13.4-4.9c-1.3-4.3-1.7-9.3-2.2-15.5
	c0-0.3-0.2-0.5-0.4-0.7c-0.2-0.2-0.5-0.3-0.8-0.2L3.2,5.4c-0.5,0.1-0.9,0.5-0.9,1l0.3,9.8C2.2,17.6-0.4,28.2,2,38.4z M26.3,27.9
	C43.9,31,53,26.3,56,24.8l0.3-0.1c0.6-0.3,1.3,0,1.7,0.4c1.4,1.2,2.3,4,1.3,6.8c-1.2,3.5-6.8,7.3-14.6,10.1
	c-4.1-0.6-9.1-1.9-14.9-4.5c-8.5-3.8-12.9-7.9-15.3-13.4C17.5,25.7,21.4,27,26.3,27.9z M4.6,16.5c0-0.1,0-0.2,0-0.3l-0.3-9l4.9-0.6
	c1.2,16.2,2.9,25.2,19.6,32.6c6.2,2.7,11.5,4.1,15.8,4.7c0,0,0,0,0,0c0,0,0,0,0,0c7.1,1,11.7-0.1,13.7-0.6l0.3-0.1
	c0.7-0.2,1.2,0.3,1.5,0.8c1,1.5,1.3,4.4-0.4,6.9c-2.7,4.2-13,6.9-24.9,6.5C17.4,57,6.1,47.3,3.9,37.9C1.5,27.7,4.6,16.7,4.6,16.5z"
	/>
</svg>
