<?xml version="1.0" encoding="utf-8"?>
<!-- Generator: Adobe Illustrator 19.1.0, SVG Export Plug-In . SVG Version: 6.00 Build 0)  -->
<!DOCTYPE svg PUBLIC "-//W3C//DTD SVG 1.1//EN" "http://www.w3.org/Graphics/SVG/1.1/DTD/svg11.dtd">
<svg version="1.1" id="Layer_1" xmlns="http://www.w3.org/2000/svg" xmlns:xlink="http://www.w3.org/1999/xlink" x="0px" y="0px"
	 width="64px" height="64px" viewBox="0 0 64 64" enable-background="new 0 0 64 64" xml:space="preserve">
<path d="M50,1c-6.8,0-12.4,5.3-12.9,12H6c-0.4,0-0.7,0.2-0.9,0.6c-0.2,0.4-0.1,0.8,0.1,1.1L27,40.4V61H14c-0.6,0-1,0.4-1,1
	s0.4,1,1,1h28c0.6,0,1-0.4,1-1s-0.4-1-1-1H29V40.4l13.4-15.8c2.2,1.6,4.9,2.5,7.6,2.5c7.2,0,13-5.8,13-13S57.2,1,50,1z M47.8,15
	l-8.5,10H16.6L8.2,15H47.8z M28,38.5L18.3,27h19.4L28,38.5z M50,25c-2.3,0-4.5-0.7-6.3-2l7.1-8.4c0.3-0.3,0.3-0.7,0.1-1.1
	C50.7,13.2,50.4,13,50,13H39.1C39.6,7.4,44.3,3,50,3c6.1,0,11,4.9,11,11S56.1,25,50,25z"/>
</svg>
