<?xml version="1.0" encoding="utf-8"?>
<!-- Generator: Adobe Illustrator 19.1.0, SVG Export Plug-In . SVG Version: 6.00 Build 0)  -->
<!DOCTYPE svg PUBLIC "-//W3C//DTD SVG 1.1//EN" "http://www.w3.org/Graphics/SVG/1.1/DTD/svg11.dtd">
<svg version="1.1" id="Layer_1" xmlns="http://www.w3.org/2000/svg" xmlns:xlink="http://www.w3.org/1999/xlink" x="0px" y="0px"
	 width="64px" height="64px" viewBox="0 0 64 64" enable-background="new 0 0 64 64" xml:space="preserve">
<path d="M12.5,61l5.5-5.5c0.6,0.3,1.2,0.5,1.9,0.5c1,0,2-0.4,2.7-1.1L55,22.6c0.7-0.7,1.1-1.7,1.1-2.7c0-0.7-0.2-1.3-0.5-1.9
	l5.5-5.5c2.6-2.6,2.6-6.9,0-9.5c-2.6-2.6-6.9-2.6-9.5,0L46,8.4c-1.5-0.8-3.4-0.6-4.6,0.6L9,41.4c-0.7,0.7-1.1,1.7-1.1,2.7
	c0,0.7,0.2,1.3,0.5,1.9L3,51.5c-2.6,2.6-2.6,6.9,0,9.5c1.3,1.3,3,2,4.8,2C9.4,63,11.2,62.3,12.5,61z M52.9,4.4
	c1.8-1.8,4.8-1.8,6.7,0c1.8,1.8,1.8,4.8,0,6.7l-5.4,5.4l-6.7-6.7L52.9,4.4z M10.5,42.8l32.4-32.4c0.4-0.4,0.8-0.5,1.3-0.5
	s1,0.2,1.3,0.5l8.1,8.1c0.4,0.4,0.5,0.8,0.5,1.3s-0.2,1-0.5,1.3L21.2,53.5c-0.7,0.7-1.9,0.7-2.6,0l-8.1-8.1
	c-0.4-0.4-0.5-0.8-0.5-1.3S10.1,43.2,10.5,42.8z M4.4,52.9l5.4-5.4l6.7,6.7l-5.4,5.4c-1.8,1.8-4.8,1.8-6.7,0
	C2.5,57.8,2.5,54.8,4.4,52.9z"/>
</svg>
