<?xml version="1.0" encoding="utf-8"?>
<!-- Generator: Adobe Illustrator 19.1.0, SVG Export Plug-In . SVG Version: 6.00 Build 0)  -->
<!DOCTYPE svg PUBLIC "-//W3C//DTD SVG 1.1//EN" "http://www.w3.org/Graphics/SVG/1.1/DTD/svg11.dtd">
<svg version="1.1" id="Layer_1" xmlns="http://www.w3.org/2000/svg" xmlns:xlink="http://www.w3.org/1999/xlink" x="0px" y="0px"
	 width="64px" height="64px" viewBox="0 0 64 64" enable-background="new 0 0 64 64" xml:space="preserve">
<path d="M44.2,26.1c-0.3,4.2-0.6,8.5-5,12.9c-4.3,4.3-8.5,4.6-12.6,4.9c-4.2,0.3-8.5,0.6-12.8,4.9l1.4,1.4c3.8-3.8,7.4-4,11.5-4.3
	c4-0.3,9-0.6,13.9-5.4c4.9-4.9,5.3-10,5.6-14.1c0.3-4,0.6-7.5,4-11.1c0.4-0.4,0.4-1,0-1.4c-0.4-0.4-1-0.4-1.4,0
	C44.8,17.9,44.5,22.1,44.2,26.1z"/>
<path d="M50,2.3c-0.4-0.4-1-0.4-1.4,0l-5.5,5.5c-6.4,6.4-6.9,13-7.2,17.9c-0.3,4-0.5,5.4-2.5,7.5c-2,2-3.4,2.1-7.1,2.4
	c-4.9,0.3-11.7,0.8-18.3,7.4l-5.7,5.7C2.1,48.8,2,49,2,49.3s0.1,0.5,0.3,0.7L14,61.7c0.2,0.2,0.5,0.3,0.7,0.3s0.5-0.1,0.7-0.3
	l5.7-5.7c1.6-1.6,2.7-1.7,6.4-2c4.8-0.3,12-0.8,19-7.8c7-7,7.6-14.3,7.9-19.2c0.3-3.9,0.5-4.8,1.8-6.2l5.5-5.5
	c0.2-0.2,0.3-0.4,0.3-0.7s-0.1-0.5-0.3-0.7L50,2.3z M54.8,19.5c-1.9,1.9-2.1,3.6-2.4,7.4C52,31.5,51.5,38.4,45,44.9
	c-6.5,6.5-13.2,6.9-17.7,7.2c-3.9,0.3-5.5,0.4-7.7,2.6l-5,5L4.4,49.3l5-5c6.1-6.1,12.4-6.5,17-6.8c3.7-0.2,5.8-0.4,8.4-3
	c2.5-2.5,2.8-4.5,3.1-8.7c0.3-4.6,0.8-10.8,6.6-16.7l4.8-4.8l10.3,10.3L54.8,19.5z"/>
</svg>
