<?xml version="1.0" encoding="utf-8"?>
<!-- Generator: Adobe Illustrator 19.1.0, SVG Export Plug-In . SVG Version: 6.00 Build 0)  -->
<!DOCTYPE svg PUBLIC "-//W3C//DTD SVG 1.1//EN" "http://www.w3.org/Graphics/SVG/1.1/DTD/svg11.dtd">
<svg version="1.1" id="Layer_1" xmlns="http://www.w3.org/2000/svg" xmlns:xlink="http://www.w3.org/1999/xlink" x="0px" y="0px"
	 width="64px" height="64px" viewBox="0 0 64 64" enable-background="new 0 0 64 64" xml:space="preserve">
<path d="M62,33h-9V18c0-0.5-0.4-0.9-0.9-1c-4.3-0.5-7.7-3.2-9.2-7.3c-0.1-0.4-0.6-0.7-1-0.7c-7.7,0.6-10.2-4.3-11-7.3
	C30.9,1.3,30.5,1,30,1H10C9.4,1,9,1.4,9,2v31H2c-0.6,0-1,0.4-1,1v14c0,0.3,0.1,0.6,0.4,0.8C1.5,48.9,1.8,49,2,49c0.1,0,0.1,0,0.2,0
	L9,47.8V62c0,0.6,0.4,1,1,1h42c0.6,0,1-0.4,1-1V48l8.9,1c0.3,0,0.6-0.1,0.8-0.2S63,48.3,63,48V34C63,33.4,62.6,33,62,33z M25,33V23
	h12v10H25z M39,23h12v10H39V23z M41.3,11c1.7,4.2,5.2,7,9.7,7.8V21H39V11C39.7,11,40.5,11.1,41.3,11z M37,10.6V21H25V3h4.2
	C30.5,7,33.2,9.6,37,10.6z M23,3v18H11V3H23z M11,23h12v10H11V23z M51,61H11V47.5L26,45l25,2.8V61z M61,46.9L26.1,43
	c0,0-0.1,0-0.1,0c-0.1,0-0.1,0-0.2,0L3,46.8V35h7h42h9V46.9z"/>
</svg>
