<?xml version="1.0" encoding="utf-8"?>
<!-- Generator: Adobe Illustrator 19.1.0, SVG Export Plug-In . SVG Version: 6.00 Build 0)  -->
<!DOCTYPE svg PUBLIC "-//W3C//DTD SVG 1.1//EN" "http://www.w3.org/Graphics/SVG/1.1/DTD/svg11.dtd">
<svg version="1.1" id="Layer_1" xmlns="http://www.w3.org/2000/svg" xmlns:xlink="http://www.w3.org/1999/xlink" x="0px" y="0px"
	 width="64px" height="64px" viewBox="0 0 64 64" enable-background="new 0 0 64 64" xml:space="preserve">
<path d="M32,49c5,0,9-4,9-9s-4-9-9-9s-9,4-9,9S27,49,32,49z M32,33c3.9,0,7,3.1,7,7s-3.1,7-7,7s-7-3.1-7-7S28.1,33,32,33z"/>
<path d="M59,8c0-0.6-0.4-1-1-1H46.6l-2.8-5.5C43.6,1.2,43.3,1,42.9,1H21.1c-0.4,0-0.7,0.2-0.9,0.5L17.4,7H6C5.4,7,5,7.4,5,8v8
	c0,0.6,0.4,1,1,1h5.1L15,62.1c0,0.5,0.5,0.9,1,0.9h32c0.5,0,1-0.4,1-0.9L52.9,17H58c0.6,0,1-0.4,1-1V8z M47.1,61H16.9l-3.8-44h37.8
	L47.1,61z M57,15H7V9h11c0.4,0,0.7-0.2,0.9-0.5L21.7,3h20.6l2.8,5.5C45.3,8.8,45.6,9,46,9h11V15z"/>
</svg>
