<?xml version="1.0" encoding="utf-8"?>
<!-- Generator: Adobe Illustrator 19.1.0, SVG Export Plug-In . SVG Version: 6.00 Build 0)  -->
<!DOCTYPE svg PUBLIC "-//W3C//DTD SVG 1.1//EN" "http://www.w3.org/Graphics/SVG/1.1/DTD/svg11.dtd">
<svg version="1.1" id="Layer_1" xmlns="http://www.w3.org/2000/svg" xmlns:xlink="http://www.w3.org/1999/xlink" x="0px" y="0px"
	 width="64px" height="64px" viewBox="0 0 64 64" enable-background="new 0 0 64 64" xml:space="preserve">
<path d="M32,63c13.1,0,27-3.2,27-9V34c0-5.7-13.2-8.8-26-9v-4.1c3.4-0.4,6-3.1,6-6.3c0-3.2-5.6-10.5-6.2-11.3
	c-0.4-0.5-1.2-0.5-1.6,0C30.6,4.2,25,11.5,25,14.7c0,3.2,2.6,5.8,6,6.3V25c-12.8,0.2-26,3.3-26,9v20C5,59.8,18.9,63,32,63z M32,61
	c-14.7,0-25-3.7-25-7v-6.4c4.3,3.5,14.9,5.4,25,5.4s20.7-1.9,25-5.4V54C57,57.3,46.7,61,32,61z M57,44c0,3.3-10.3,7-25,7
	S7,47.3,7,44v-6.4c4.3,3.5,14.9,5.4,25,5.4s20.7-1.9,25-5.4V44z M27,14.7c0-1.7,2.8-6,5-9c2.2,3,5,7.3,5,9c0,2.4-2.2,4.3-5,4.3
	S27,17.1,27,14.7z M31,27v5c0,0.6,0.4,1,1,1s1-0.4,1-1v-5c14.2,0.2,24,3.8,24,7c0,3.3-10.3,7-25,7S7,37.3,7,34
	C7,30.8,16.8,27.2,31,27z"/>
</svg>
