<?xml version="1.0" encoding="utf-8"?>
<!-- Generator: Adobe Illustrator 19.1.0, SVG Export Plug-In . SVG Version: 6.00 Build 0)  -->
<!DOCTYPE svg PUBLIC "-//W3C//DTD SVG 1.1//EN" "http://www.w3.org/Graphics/SVG/1.1/DTD/svg11.dtd">
<svg version="1.1" id="Layer_1" xmlns="http://www.w3.org/2000/svg" xmlns:xlink="http://www.w3.org/1999/xlink" x="0px" y="0px"
	 width="64px" height="64px" viewBox="0 0 64 64" enable-background="new 0 0 64 64" xml:space="preserve">
<path d="M32,55c5,0,9-4,9-9v-6c0-0.6-0.4-1-1-1H24c-0.6,0-1,0.4-1,1v6C23,51,27,55,32,55z M25,41h14v5c0,3.9-3.1,7-7,7s-7-3.1-7-7
	V41z"/>
<path d="M6,63h52c0.6,0,1-0.4,1-1V30v-6c0-3.9-3.1-7-7-7c-0.6,0-1,0.4-1,1s0.4,1,1,1c2.8,0,5,2.2,5,5v5h-1c-6.1,0-11-4.9-11-11v-4
	c0-7.2-5.8-13-13-13S19,6.8,19,14v4c0,6.1-4.9,11-11,11H7v-5c0-2.8,2.2-5,5-5c0.6,0,1-0.4,1-1s-0.4-1-1-1c-3.9,0-7,3.1-7,7v6v32
	C5,62.6,5.4,63,6,63z M32,3c6.1,0,11,4.9,11,11v3H21v-3C21,7.9,25.9,3,32,3z M21,19H43c0.5,6.7,6.1,12,13,12h1v30H7V31h1
	C14.8,31,20.4,25.7,21,19z"/>
</svg>
