<?xml version="1.0" encoding="utf-8"?>
<!-- Generator: Adobe Illustrator 19.1.0, SVG Export Plug-In . SVG Version: 6.00 Build 0)  -->
<!DOCTYPE svg PUBLIC "-//W3C//DTD SVG 1.1//EN" "http://www.w3.org/Graphics/SVG/1.1/DTD/svg11.dtd">
<svg version="1.1" id="Layer_1" xmlns="http://www.w3.org/2000/svg" xmlns:xlink="http://www.w3.org/1999/xlink" x="0px" y="0px"
	 width="64px" height="64px" viewBox="0 0 64 64" enable-background="new 0 0 64 64" xml:space="preserve">
<path d="M33,42c0,2.8,2.2,5,5,5s5-2.2,5-5s-2.2-5-5-5S33,39.2,33,42z M38,39c1.7,0,3,1.3,3,3s-1.3,3-3,3s-3-1.3-3-3S36.3,39,38,39z"
	/>
<path d="M32,29c1.7,0,3-1.3,3-3s-1.3-3-3-3s-3,1.3-3,3S30.3,29,32,29z M32,25c0.6,0,1,0.4,1,1s-0.4,1-1,1s-1-0.4-1-1S31.4,25,32,25z
	"/>
<path d="M31.1,5.5L5.5,55.9c-0.1,0.2-0.1,0.5-0.1,0.8c0.1,0.3,0.3,0.5,0.5,0.6c8.2,3.8,17,5.7,26.1,5.7s17.8-1.9,26.1-5.7
	c0.2-0.1,0.4-0.3,0.5-0.6c0.1-0.3,0.1-0.5-0.1-0.8L32.9,5.5C32.6,4.9,31.4,4.9,31.1,5.5z M32,8.2l19.8,38.9C45.6,49.6,38.6,51,32,51
	s-13.6-1.4-19.8-3.8l5-9.9c0.6,2.1,2.5,3.7,4.8,3.7c2.8,0,5-2.2,5-5s-2.2-5-5-5c-0.6,0-1.2,0.1-1.8,0.3L32,8.2z M22,33
	c1.7,0,3,1.3,3,3s-1.3,3-3,3s-3-1.3-3-3S20.3,33,22,33z M32,61c-8.4,0-16.6-1.7-24.3-5.1l3.6-7C17.8,51.6,25.1,53,32,53
	s14.2-1.4,20.7-4.1l3.6,7C48.6,59.3,40.4,61,32,61z"/>
</svg>
