<?xml version="1.0" encoding="utf-8"?>
<!-- Generator: Adobe Illustrator 19.1.0, SVG Export Plug-In . SVG Version: 6.00 Build 0)  -->
<!DOCTYPE svg PUBLIC "-//W3C//DTD SVG 1.1//EN" "http://www.w3.org/Graphics/SVG/1.1/DTD/svg11.dtd">
<svg version="1.1" id="Layer_1" xmlns="http://www.w3.org/2000/svg" xmlns:xlink="http://www.w3.org/1999/xlink" x="0px" y="0px"
	 width="64px" height="64px" viewBox="0 0 64 64" enable-background="new 0 0 64 64" xml:space="preserve">
<path d="M32,13c0.6,0,1-0.4,1-1V2c0-0.6-0.4-1-1-1s-1,0.4-1,1v10C31,12.6,31.4,13,32,13z"/>
<path d="M22,17c0.6,0,1-0.4,1-1V8c0-0.6-0.4-1-1-1s-1,0.4-1,1v8C21,16.6,21.4,17,22,17z"/>
<path d="M42,17c0.6,0,1-0.4,1-1V8c0-0.6-0.4-1-1-1s-1,0.4-1,1v8C41,16.6,41.4,17,42,17z"/>
<path d="M4,24h56c0.6,0,1-0.4,1-1s-0.4-1-1-1H4c-0.6,0-1,0.4-1,1S3.4,24,4,24z"/>
<path d="M4,30h3c0.4,10.4,7.2,19.2,16.6,22.5l-4.5,9c-0.2,0.5,0,1.1,0.4,1.3C19.7,63,19.8,63,20,63c0.4,0,0.7-0.2,0.9-0.6l1.7-3.4
	h18.8l1.7,3.4c0.2,0.4,0.5,0.6,0.9,0.6c0.1,0,0.3,0,0.4-0.1c0.5-0.2,0.7-0.8,0.4-1.3l-4.5-9C49.8,49.2,56.6,40.4,57,30h3
	c0.6,0,1-0.4,1-1s-0.4-1-1-1H4c-0.6,0-1,0.4-1,1S3.4,30,4,30z M40.4,57H23.6l1.9-3.9c2.1,0.6,4.2,0.9,6.5,0.9s4.4-0.3,6.5-0.9
	L40.4,57z M32,52C19.7,52,9.6,42.2,9,30H55C54.4,42.2,44.3,52,32,52z"/>
<path d="M26,36h12c0.6,0,1-0.4,1-1s-0.4-1-1-1H26c-0.6,0-1,0.4-1,1S25.4,36,26,36z"/>
</svg>
