<?xml version="1.0" encoding="utf-8"?>
<!-- Generator: Adobe Illustrator 19.1.0, SVG Export Plug-In . SVG Version: 6.00 Build 0)  -->
<!DOCTYPE svg PUBLIC "-//W3C//DTD SVG 1.1//EN" "http://www.w3.org/Graphics/SVG/1.1/DTD/svg11.dtd">
<svg version="1.1" id="Layer_1" xmlns="http://www.w3.org/2000/svg" xmlns:xlink="http://www.w3.org/1999/xlink" x="0px" y="0px"
	 width="64px" height="64px" viewBox="0 0 64 64" enable-background="new 0 0 64 64" xml:space="preserve">
<path d="M26,35c-5,0-9,4-9,9s4,9,9,9s9-4,9-9S31,35,26,35z M26,51c-3.9,0-7-3.1-7-7s3.1-7,7-7s7,3.1,7,7S29.9,51,26,51z"/>
<path d="M58.8,25.5c-0.1-0.1-0.1-0.2-0.2-0.2c0,0,0,0,0,0L39,9.5V2c0-0.6-0.4-1-1-1H26c-0.6,0-1,0.4-1,1v7.5L5.4,25.2c0,0,0,0,0,0
	c-0.1,0.1-0.1,0.1-0.2,0.2c0,0,0,0.1-0.1,0.1C5,25.7,5,25.9,5,26v36c0,0.6,0.4,1,1,1h40h12c0.6,0,1-0.4,1-1V26
	C59,25.9,59,25.7,58.8,25.5C58.9,25.6,58.9,25.5,58.8,25.5z M26,11.3L43.1,25H8.9L26,11.3z M46.4,25L28.9,11h8.8l17.5,14H46.4z
	 M27,3h10v6H27V3z M7,27h38v34H7V27z M47,61V27h10v34H47z"/>
</svg>
