<?xml version="1.0" encoding="utf-8"?>
<!-- Generator: Adobe Illustrator 19.1.0, SVG Export Plug-In . SVG Version: 6.00 Build 0)  -->
<!DOCTYPE svg PUBLIC "-//W3C//DTD SVG 1.1//EN" "http://www.w3.org/Graphics/SVG/1.1/DTD/svg11.dtd">
<svg version="1.1" id="Layer_1" xmlns="http://www.w3.org/2000/svg" xmlns:xlink="http://www.w3.org/1999/xlink" x="0px" y="0px"
	 width="64px" height="64px" viewBox="0 0 64 64" enable-background="new 0 0 64 64" xml:space="preserve">
<path d="M61.1,44.7L41.4,23.1c0,0,0,0,0,0c0,0,0,0,0,0l-19-20.8c-0.3-0.3-0.7-0.4-1.1-0.2C10,7.1,2.6,18.3,2.6,30.7
	C2.6,48,16.6,62,33.9,62c11.4,0,21.9-6.2,27.4-16.2C61.5,45.4,61.4,45,61.1,44.7z M38.5,22.9l-24.6,1.2C16,17.9,21,12.8,27.4,10.7
	L38.5,22.9z M13.4,26.1l24.5-1.2L17.1,43.3c-2.7-3.5-4.2-7.9-4.2-12.6C12.9,29.2,13.1,27.6,13.4,26.1z M39.6,26.1l-1.3,25.2
	c-1.4,0.3-2.9,0.5-4.4,0.5c-6.1,0-11.6-2.7-15.5-6.9L39.6,26.1z M41.6,26.2l11.6,12.8c-2.4,5.8-7.2,10-12.9,11.8L41.6,26.2z
	 M33.9,60C17.7,60,4.6,46.9,4.6,30.7C4.6,19.4,11.2,9,21.5,4.2L26,9.1c-7.1,2.6-12.4,8.5-14.3,15.6c0,0.1-0.1,0.1-0.1,0.2
	c-0.5,1.8-0.7,3.8-0.7,5.7c0,5.6,2,10.7,5.3,14.7c0,0,0,0,0,0.1c0,0,0,0,0,0c4.2,5,10.6,8.2,17.6,8.2c9,0,17-5.1,20.8-13.2l4.5,4.9
	C53.9,54.5,44.3,60,33.9,60z"/>
</svg>
