<?xml version="1.0" encoding="utf-8"?>
<!-- Generator: Adobe Illustrator 19.1.0, SVG Export Plug-In . SVG Version: 6.00 Build 0)  -->
<!DOCTYPE svg PUBLIC "-//W3C//DTD SVG 1.1//EN" "http://www.w3.org/Graphics/SVG/1.1/DTD/svg11.dtd">
<svg version="1.1" id="Layer_1" xmlns="http://www.w3.org/2000/svg" xmlns:xlink="http://www.w3.org/1999/xlink" x="0px" y="0px"
	 width="64px" height="64px" viewBox="0 0 64 64" enable-background="new 0 0 64 64" xml:space="preserve">
<path d="M62.5,44.4c-0.3-0.2-0.7-0.2-1,0l-6.3,4.2c-0.8-3.9-4.3-6.9-8.5-6.9c-13.5,0-24.5-11-24.5-24.5c0-4.2-3-7.6-6.9-8.5l4.2-6.3
	c0.2-0.3,0.2-0.7,0-1C19.4,1.2,19.1,1,18.7,1H8.5C8.2,1,7.8,1.2,7.7,1.5c-0.2,0.3-0.2,0.7,0,1l4.2,6.3C8,9.6,5,13.1,5,17.3
	C5,40.3,23.7,59,46.7,59c4.2,0,7.6-3,8.5-6.9l6.3,4.2c0.2,0.1,0.4,0.2,0.6,0.2c0.2,0,0.3,0,0.5-0.1c0.3-0.2,0.5-0.5,0.5-0.9V45.3
	C63,44.9,62.8,44.6,62.5,44.4z M16.9,3l-3.2,4.8L10.4,3H16.9z M46.7,57C24.8,57,7,39.2,7,17.3c0-3.7,3-6.6,6.6-6.6
	c3.7,0,6.6,3,6.6,6.6c0,14.6,11.9,26.5,26.5,26.5c3.7,0,6.6,3,6.6,6.6S50.4,57,46.7,57z M61,53.6l-4.8-3.2l4.8-3.2V53.6z"/>
</svg>
