<?xml version="1.0" encoding="utf-8"?>
<!-- Generator: Adobe Illustrator 19.1.0, SVG Export Plug-In . SVG Version: 6.00 Build 0)  -->
<!DOCTYPE svg PUBLIC "-//W3C//DTD SVG 1.1//EN" "http://www.w3.org/Graphics/SVG/1.1/DTD/svg11.dtd">
<svg version="1.1" id="Layer_1" xmlns="http://www.w3.org/2000/svg" xmlns:xlink="http://www.w3.org/1999/xlink" x="0px" y="0px"
	 width="64px" height="64px" viewBox="0 0 64 64" enable-background="new 0 0 64 64" xml:space="preserve">
<path d="M15,40v22c0,0.6,0.4,1,1,1h32c0.6,0,1-0.4,1-1V40c0-5.7-4.4-10.4-10-11V11h1c0.6,0,1-0.4,1-1V2c0-0.6-0.4-1-1-1H24
	c-0.6,0-1,0.4-1,1v8c0,0.6,0.4,1,1,1h1v18C19.4,29.6,15,34.3,15,40z M17,61V45h30v16H17z M25,3h14v6H25V3z M26,31c0.6,0,1-0.4,1-1
	V11h10v19c0,0.6,0.4,1,1,1c5,0,9,4,9,9v3H17v-3C17,35,21,31,26,31z"/>
</svg>
