<?xml version="1.0" encoding="utf-8"?>
<!-- Generator: Adobe Illustrator 19.1.0, SVG Export Plug-In . SVG Version: 6.00 Build 0)  -->
<!DOCTYPE svg PUBLIC "-//W3C//DTD SVG 1.1//EN" "http://www.w3.org/Graphics/SVG/1.1/DTD/svg11.dtd">
<svg version="1.1" id="Layer_1" xmlns="http://www.w3.org/2000/svg" xmlns:xlink="http://www.w3.org/1999/xlink" x="0px" y="0px"
	 width="64px" height="64px" viewBox="0 0 64 64" enable-background="new 0 0 64 64" xml:space="preserve">
<path d="M18.6,33l9.9,27.5C29,62,30.4,63,32,63s3-1,3.5-2.5L45.4,33H46c5,0,9-4,9-9c0-3.9-2.5-7.3-6.2-8.5C47.6,7.2,40.5,1,32,1
	S16.4,7.2,15.2,15.5C11.5,16.7,9,20.1,9,24c0,5,4,9,9,9H18.6z M33.6,59.9c-0.3,0.8-1,1.1-1.6,1.1s-1.3-0.3-1.6-1.1L20.8,33h22.5
	L33.6,59.9z M11,24c0-3.2,2.2-6,5.3-6.8c0,0,0.1,0,0.1,0c0.5-0.1,1-0.2,1.6-0.2c2.5,0,4.8,1.3,6.1,3.5c0.2,0.3,0.5,0.5,0.9,0.5
	c0.2,0,0.3,0,0.5-0.1c0.5-0.3,0.6-0.9,0.4-1.4C24.2,16.7,21.2,15,18,15c-0.2,0-0.5,0-0.7,0c1.4-7,7.5-12,14.7-12s13.3,5.1,14.7,12
	c-0.2,0-0.5,0-0.7,0c-3.2,0-6.2,1.7-7.8,4.5c-0.3,0.5-0.1,1.1,0.4,1.4c0.2,0.1,0.3,0.1,0.5,0.1c0.3,0,0.7-0.2,0.9-0.5
	c1.3-2.2,3.6-3.5,6.1-3.5c0.5,0,1.1,0.1,1.6,0.2c0,0,0.1,0,0.1,0C50.8,18,53,20.8,53,24c0,3.9-3.1,7-7,7H18C14.1,31,11,27.9,11,24z"
	/>
</svg>
