<?xml version="1.0" encoding="utf-8"?>
<!-- Generator: Adobe Illustrator 19.1.0, SVG Export Plug-In . SVG Version: 6.00 Build 0)  -->
<!DOCTYPE svg PUBLIC "-//W3C//DTD SVG 1.1//EN" "http://www.w3.org/Graphics/SVG/1.1/DTD/svg11.dtd">
<svg version="1.1" id="Layer_1" xmlns="http://www.w3.org/2000/svg" xmlns:xlink="http://www.w3.org/1999/xlink" x="0px" y="0px"
	 width="64px" height="64px" viewBox="0 0 64 64" enable-background="new 0 0 64 64" xml:space="preserve">
<path d="M28,37h6l-4.8,6.4c-0.3,0.4-0.2,1.1,0.2,1.4c0.2,0.1,0.4,0.2,0.6,0.2c0.3,0,0.6-0.1,0.8-0.4l6-8c0.2-0.3,0.3-0.7,0.1-1
	S36.4,35,36,35h-6l4.8-6.4c0.3-0.4,0.2-1.1-0.2-1.4c-0.4-0.3-1.1-0.2-1.4,0.2l-6,8c-0.2,0.3-0.3,0.7-0.1,1S27.6,37,28,37z"/>
<path d="M9.4,17.2C9.1,17.4,9,17.7,9,18v38c0,3.9,3.1,7,7,7h32c3.9,0,7-3.1,7-7V18c0-0.3-0.1-0.6-0.4-0.8c-4.1-3.2-6.2-6.5-7.1-8.2
	H52c0.6,0,1-0.4,1-1V2c0-0.6-0.4-1-1-1H12c-0.6,0-1,0.4-1,1v6c0,0.6,0.4,1,1,1h4.5C15.6,10.8,13.5,14,9.4,17.2z M13,3h38v4H13V3z
	 M18.7,9h26.7c0.7,1.6,2.8,5.5,7.7,9.5V56c0,2.8-2.2,5-5,5H16c-2.8,0-5-2.2-5-5V18.5C15.9,14.5,18,10.6,18.7,9z"/>
</svg>
