<?xml version="1.0" encoding="utf-8"?>
<!-- Generator: Adobe Illustrator 19.1.0, SVG Export Plug-In . SVG Version: 6.00 Build 0)  -->
<!DOCTYPE svg PUBLIC "-//W3C//DTD SVG 1.1//EN" "http://www.w3.org/Graphics/SVG/1.1/DTD/svg11.dtd">
<svg version="1.1" id="Layer_1" xmlns="http://www.w3.org/2000/svg" xmlns:xlink="http://www.w3.org/1999/xlink" x="0px" y="0px"
	 width="64px" height="64px" viewBox="0 0 64 64" enable-background="new 0 0 64 64" xml:space="preserve">
<path d="M32,5C17,5,1,8.2,1,14v14c0,17.1,13.9,31,31,31s31-13.9,31-31V14C63,8.2,47,5,32,5z M32,7c18,0,29,4.1,29,7s-11,7-29,7
	S3,16.9,3,14S14,7,32,7z M32,57C16,57,3,44,3,28V17.4C7.7,21,20.2,23,32,23s24.3-2,29-5.6V28C61,44,48,57,32,57z"/>
</svg>
