<?xml version="1.0" encoding="utf-8"?>
<!-- Generator: Adobe Illustrator 19.1.0, SVG Export Plug-In . SVG Version: 6.00 Build 0)  -->
<!DOCTYPE svg PUBLIC "-//W3C//DTD SVG 1.1//EN" "http://www.w3.org/Graphics/SVG/1.1/DTD/svg11.dtd">
<svg version="1.1" id="Layer_1" xmlns="http://www.w3.org/2000/svg" xmlns:xlink="http://www.w3.org/1999/xlink" x="0px" y="0px"
	 width="64px" height="64px" viewBox="0 0 64 64" enable-background="new 0 0 64 64" xml:space="preserve">
<path d="M29.6,22.8c-0.4-0.4-1-0.4-1.4,0l-5.8,5.8c-5.8-1.3-12,0.4-16.3,4.6c-6.8,6.8-6.8,17.9,0,24.7C9.5,61.3,14,63,18.4,63
	c4.5,0,8.9-1.7,12.3-5.1c4.2-4.2,6-10.4,4.6-16.3l5.8-5.8c0.4-0.4,0.4-1,0-1.4L40,33.2l11.6-11.6c3,1.6,6.7,1,9.2-1.4
	c3.1-3.1,3.1-8,0-11.1c-1-1-2.3-1.7-3.7-2.1c-0.3-1.4-1-2.7-2.1-3.7c-3.1-3.1-8-3.1-11.1,0c-2.4,2.4-3,6.2-1.4,9.2L30.8,24
	L29.6,22.8z M33.6,40.6c-0.3,0.3-0.4,0.6-0.3,1c1.4,5.3-0.1,11-4,14.9c-6,6-15.8,6-21.8,0s-6-15.8,0-21.8c2.9-2.9,6.9-4.5,10.9-4.5
	c1.3,0,2.7,0.2,4,0.5c0.3,0.1,0.7,0,1-0.3l5.5-5.5l10.2,10.2L33.6,40.6z M44.3,13.3c0.3-0.3,0.4-0.9,0.1-1.3
	c-1.5-2.3-1.2-5.4,0.7-7.4c2.3-2.3,6-2.3,8.3,0c0.9,0.9,1.5,2,1.6,3.3c0.1,0.4,0.4,0.8,0.9,0.9c1.3,0.2,2.4,0.7,3.3,1.6
	c2.3,2.3,2.3,6,0,8.3c-2,2-5.1,2.3-7.4,0.7c-0.4-0.3-0.9-0.2-1.3,0.1L38.6,31.8l-6.3-6.3L44.3,13.3z"/>
</svg>
