<?xml version="1.0" encoding="utf-8"?>
<!-- Generator: Adobe Illustrator 19.1.0, SVG Export Plug-In . SVG Version: 6.00 Build 0)  -->
<!DOCTYPE svg PUBLIC "-//W3C//DTD SVG 1.1//EN" "http://www.w3.org/Graphics/SVG/1.1/DTD/svg11.dtd">
<svg version="1.1" id="Layer_1" xmlns="http://www.w3.org/2000/svg" xmlns:xlink="http://www.w3.org/1999/xlink" x="0px" y="0px"
	 width="64px" height="64px" viewBox="0 0 64 64" enable-background="new 0 0 64 64" xml:space="preserve">
<path d="M28,1h-8c-0.6,0-1,0.4-1,1v5h-7c-0.6,0-1,0.4-1,1v15H6c-0.3,0-0.6,0.1-0.8,0.4C5,23.6,5,23.9,5,24.2l8,38
	c0.1,0.5,0.5,0.8,1,0.8h36c0.5,0,0.9-0.3,1-0.8l8-38c0.1-0.3,0-0.6-0.2-0.8C58.6,23.1,58.3,23,58,23h-5V8c0-0.6-0.4-1-1-1h-7V4
	c0-0.6-0.4-1-1-1h-8c-0.6,0-1,0.4-1,1v7h-6V2C29,1.4,28.6,1,28,1z M21,3h6v20h-6V3z M13,9h6v14h-6V9z M49.2,61H14.8L7.2,25h49.5
	L49.2,61z M51,9v14h-6V9H51z M37,5h6v18h-6V5z M35,13v10h-6V13H35z"/>
<path d="M32,35c-5,0-9,4-9,9s4,9,9,9s9-4,9-9S37,35,32,35z M32,51c-3.9,0-7-3.1-7-7s3.1-7,7-7s7,3.1,7,7S35.9,51,32,51z"/>
</svg>
