<?xml version="1.0" encoding="utf-8"?>
<!-- Generator: Adobe Illustrator 19.1.0, SVG Export Plug-In . SVG Version: 6.00 Build 0)  -->
<!DOCTYPE svg PUBLIC "-//W3C//DTD SVG 1.1//EN" "http://www.w3.org/Graphics/SVG/1.1/DTD/svg11.dtd">
<svg version="1.1" id="Layer_1" xmlns="http://www.w3.org/2000/svg" xmlns:xlink="http://www.w3.org/1999/xlink" x="0px" y="0px"
	 width="64px" height="64px" viewBox="0 0 64 64" enable-background="new 0 0 64 64" xml:space="preserve">
<path d="M23.3,26.7c0.2,0.2,0.5,0.3,0.7,0.3s0.5-0.1,0.7-0.3c0.4-0.4,0.4-1,0-1.4l-2-2c-0.4-0.4-1-0.4-1.4,0s-0.4,1,0,1.4L23.3,26.7
	z"/>
<path d="M39.3,42.7c0.2,0.2,0.5,0.3,0.7,0.3s0.5-0.1,0.7-0.3c0.4-0.4,0.4-1,0-1.4l-2-2c-0.4-0.4-1-0.4-1.4,0s-0.4,1,0,1.4L39.3,42.7
	z"/>
<path d="M25.3,38.7c0.2,0.2,0.5,0.3,0.7,0.3s0.5-0.1,0.7-0.3l2-2c0.4-0.4,0.4-1,0-1.4s-1-0.4-1.4,0l-2,2
	C24.9,37.7,24.9,38.3,25.3,38.7z"/>
<path d="M54.4,43.4C54.4,43.4,54.4,43.4,54.4,43.4C54.4,43.4,54.4,43.4,54.4,43.4L14.3,3.3c-0.4-0.4-1-0.4-1.4,0
	c-13.2,13.2-13.2,34.6,0,47.8c6.4,6.4,14.9,9.9,23.9,9.9s17.5-3.5,23.9-9.9c0.4-0.4,0.4-1,0-1.4L54.4,43.4z M52.2,44
	c-4.2,3.9-9.7,6-15.4,6c-6.1,0-11.8-2.4-16.2-6.7c-4.3-4.3-6.7-10.1-6.7-16.2c0-5.8,2.1-11.2,6-15.4L52.2,44z M36.8,59
	c-8.5,0-16.5-3.3-22.5-9.3c-6-6-9.3-14-9.3-22.5C5,19,8.1,11.3,13.6,5.4l4.9,4.9c-4.3,4.6-6.6,10.5-6.6,16.9
	c0,6.6,2.6,12.9,7.3,17.6c4.7,4.7,10.9,7.3,17.6,7.3c6.3,0,12.2-2.3,16.9-6.6l4.9,4.9C52.7,55.9,45,59,36.8,59z"/>
</svg>
