<?xml version="1.0" encoding="utf-8"?>
<!-- Generator: Adobe Illustrator 19.1.0, SVG Export Plug-In . SVG Version: 6.00 Build 0)  -->
<!DOCTYPE svg PUBLIC "-//W3C//DTD SVG 1.1//EN" "http://www.w3.org/Graphics/SVG/1.1/DTD/svg11.dtd">
<svg version="1.1" id="Layer_1" xmlns="http://www.w3.org/2000/svg" xmlns:xlink="http://www.w3.org/1999/xlink" x="0px" y="0px"
	 width="64px" height="64px" viewBox="0 0 64 64" enable-background="new 0 0 64 64" xml:space="preserve">
<path d="M56.7,55.3c-0.4-0.4-1-0.4-1.4,0s-0.4,1,0,1.4l2,2c0.2,0.2,0.5,0.3,0.7,0.3s0.5-0.1,0.7-0.3c0.4-0.4,0.4-1,0-1.4L56.7,55.3z
	"/>
<path d="M56,45c0.3,0,0.5-0.1,0.7-0.3c0.4-0.4,0.4-1,0-1.4l-2-2c-0.4-0.4-1-0.4-1.4,0s-0.4,1,0,1.4l2,2C55.5,44.9,55.7,45,56,45z"/>
<path d="M42.7,53.3c-0.4-0.4-1-0.4-1.4,0s-0.4,1,0,1.4l2,2c0.2,0.2,0.5,0.3,0.7,0.3s0.5-0.1,0.7-0.3c0.4-0.4,0.4-1,0-1.4L42.7,53.3z
	"/>
<path d="M44.2,23.4c-0.2-0.2-0.4-0.3-0.7-0.3s-0.5,0.1-0.7,0.3l-1,1l-9.6-16c-1.9-3.2-5.1-5.3-8.8-5.7c-3.7-0.5-7.3,0.8-9.9,3.4
	l-7.3,7.3c-2.6,2.6-3.9,6.3-3.4,9.9s2.5,6.9,5.7,8.8l16,9.6l-1,1c-0.4,0.4-0.4,1,0,1.4l5.8,5.8c0.2,0.2,0.4,0.3,0.7,0.3
	s0.5-0.1,0.7-0.3L50,30.6c0.4-0.4,0.4-1,0-1.4L44.2,23.4z M9.5,30.5c-2.7-1.6-4.4-4.3-4.8-7.3C4.3,20,5.3,17,7.5,14.8l7.3-7.3
	C17,5.3,20,4.3,23.1,4.7c3.1,0.4,5.8,2.1,7.3,4.8l9.8,16.4L25.9,40.3L9.5,30.5z M29.9,47.9l-4.4-4.4l1.2-1.2c0,0,0,0,0,0l16.8-16.8
	l4.4,4.4L29.9,47.9z"/>
</svg>
