<?xml version="1.0" encoding="utf-8"?>
<!-- Generator: Adobe Illustrator 19.1.0, SVG Export Plug-In . SVG Version: 6.00 Build 0)  -->
<!DOCTYPE svg PUBLIC "-//W3C//DTD SVG 1.1//EN" "http://www.w3.org/Graphics/SVG/1.1/DTD/svg11.dtd">
<svg version="1.1" id="Layer_1" xmlns="http://www.w3.org/2000/svg" xmlns:xlink="http://www.w3.org/1999/xlink" x="0px" y="0px"
	 width="64px" height="64px" viewBox="0 0 64 64" enable-background="new 0 0 64 64" xml:space="preserve">
<path d="M20,35c-5,0-9,4-9,9s4,9,9,9s9-4,9-9S25,35,20,35z M20,51c-3.9,0-7-3.1-7-7s3.1-7,7-7s7,3.1,7,7S23.9,51,20,51z"/>
<path d="M36,23c-2.8,0-5,2.2-5,5s2.2,5,5,5s5-2.2,5-5S38.8,23,36,23z M36,31c-1.7,0-3-1.3-3-3s1.3-3,3-3s3,1.3,3,3S37.7,31,36,31z"
	/>
<path d="M62,1H44c-0.6,0-1,0.4-1,1c0,6.1-4.9,11-11,11S21,8.1,21,2c0-0.6-0.4-1-1-1H2C1.4,1,1,1.4,1,2v60c0,0.6,0.4,1,1,1h60
	c0.6,0,1-0.4,1-1V44c0-0.6-0.4-1-1-1c-6.1,0-11-4.9-11-11s4.9-11,11-11c0.6,0,1-0.4,1-1V2C63,1.4,62.6,1,62,1z M61,19
	c-6.7,0.5-12,6.1-12,13s5.3,12.4,12,13v16H3V3h16c0.5,6.7,6.1,12,13,12S44.4,9.7,45,3h16V19z"/>
</svg>
