<?xml version="1.0" encoding="utf-8"?>
<!-- Generator: Adobe Illustrator 19.1.0, SVG Export Plug-In . SVG Version: 6.00 Build 0)  -->
<!DOCTYPE svg PUBLIC "-//W3C//DTD SVG 1.1//EN" "http://www.w3.org/Graphics/SVG/1.1/DTD/svg11.dtd">
<svg version="1.1" id="Layer_1" xmlns="http://www.w3.org/2000/svg" xmlns:xlink="http://www.w3.org/1999/xlink" x="0px" y="0px"
	 width="64px" height="64px" viewBox="0 0 64 64" enable-background="new 0 0 64 64" xml:space="preserve">
<path d="M28,27h-2c-0.6,0-1,0.4-1,1s0.4,1,1,1h2c0.6,0,1-0.4,1-1S28.6,27,28,27z"/>
<path d="M28,35h-2c-0.6,0-1,0.4-1,1s0.4,1,1,1h2c0.6,0,1-0.4,1-1S28.6,35,28,35z"/>
<path d="M28,43h-2c-0.6,0-1,0.4-1,1s0.4,1,1,1h2c0.6,0,1-0.4,1-1S28.6,43,28,43z"/>
<path d="M28,51h-2c-0.6,0-1,0.4-1,1s0.4,1,1,1h2c0.6,0,1-0.4,1-1S28.6,51,28,51z"/>
<path d="M62,9h-9.5l-5.7-7.6c0,0,0,0,0,0c-0.1-0.1-0.2-0.2-0.3-0.3c0,0,0,0,0,0C46.3,1,46.2,1,46,1c0,0,0,0,0,0H18c0,0,0,0,0,0
	c-0.1,0-0.3,0-0.4,0.1c0,0,0,0,0,0c-0.1,0.1-0.2,0.2-0.3,0.3c0,0,0,0,0,0L11.5,9H2c-0.6,0-1,0.4-1,1v52c0,0.6,0.4,1,1,1h60
	c0.6,0,1-0.4,1-1V10C63,9.4,62.6,9,62,9z M26.6,17l-7-14h24.8l-7,14H26.6z M3,11h9c0.3,0,0.6-0.1,0.8-0.4l5-6.7L24.4,17H18
	c-0.6,0-1,0.4-1,1v43H3V11z M61,61H19V19h19c0.4,0,0.7-0.2,0.9-0.6l7.3-14.6l5,6.7c0.2,0.3,0.5,0.4,0.8,0.4h9V61z"/>
</svg>
