<?xml version="1.0" encoding="utf-8"?>
<!-- Generator: Adobe Illustrator 19.1.0, SVG Export Plug-In . SVG Version: 6.00 Build 0)  -->
<!DOCTYPE svg PUBLIC "-//W3C//DTD SVG 1.1//EN" "http://www.w3.org/Graphics/SVG/1.1/DTD/svg11.dtd">
<svg version="1.1" id="Layer_1" xmlns="http://www.w3.org/2000/svg" xmlns:xlink="http://www.w3.org/1999/xlink" x="0px" y="0px"
	 width="64px" height="64px" viewBox="0 0 64 64" enable-background="new 0 0 64 64" xml:space="preserve">
<path d="M20.7,17.3c-0.4-0.4-1-0.4-1.4,0s-0.4,1,0,1.4l2,2c0.2,0.2,0.5,0.3,0.7,0.3s0.5-0.1,0.7-0.3c0.4-0.4,0.4-1,0-1.4L20.7,17.3z
	"/>
<path d="M31.3,13.3l-2,2c-0.4,0.4-0.4,1,0,1.4c0.2,0.2,0.5,0.3,0.7,0.3s0.5-0.1,0.7-0.3l2-2c0.4-0.4,0.4-1,0-1.4
	S31.7,12.9,31.3,13.3z"/>
<path d="M44,15c-0.6,0-1,0.4-1,1v2c0,0.6,0.4,1,1,1s1-0.4,1-1v-2C45,15.4,44.6,15,44,15z"/>
<path d="M63,29c0-2.2-1.8-4-4-4h-2.1C56.4,13.9,47.2,5,36,5h-8C16.8,5,7.6,13.9,7.1,25H5c-2.2,0-4,1.8-4,4c0,1.8,1.2,3.4,2.9,3.8
	C2.1,34.3,1,36.5,1,39c0,3.7,2.6,6.9,6,7.7C7.4,52.5,12.2,57,18,57h28c5.8,0,10.6-4.5,11-10.3c3.5-0.9,6-4,6-7.7
	c0-2.5-1.1-4.7-2.9-6.2C61.8,32.4,63,30.8,63,29z M28,7h8c10.1,0,18.4,8,18.9,18H9.1C9.6,15,17.9,7,28,7z M46,55H18
	c-4.6,0-8.4-3.5-8.9-8h45.9C54.4,51.5,50.6,55,46,55z M61,39c0,3.3-2.7,6-6,6H9c-3.3,0-6-2.7-6-6s2.7-6,6-6h24.7l7.7,5.8
	c0.2,0.1,0.4,0.2,0.6,0.2s0.4-0.1,0.6-0.2l7.7-5.8H55C58.3,33,61,35.7,61,39z M59,31h-9c-0.2,0-0.4,0.1-0.6,0.2L42,36.8l-7.4-5.5
	C34.4,31.1,34.2,31,34,31H5c-1.1,0-2-0.9-2-2s0.9-2,2-2h54c1.1,0,2,0.9,2,2S60.1,31,59,31z"/>
</svg>
