<?xml version="1.0" encoding="utf-8"?>
<!-- Generator: Adobe Illustrator 19.1.0, SVG Export Plug-In . SVG Version: 6.00 Build 0)  -->
<!DOCTYPE svg PUBLIC "-//W3C//DTD SVG 1.1//EN" "http://www.w3.org/Graphics/SVG/1.1/DTD/svg11.dtd">
<svg version="1.1" id="Layer_1" xmlns="http://www.w3.org/2000/svg" xmlns:xlink="http://www.w3.org/1999/xlink" x="0px" y="0px"
	 width="64px" height="64px" viewBox="0 0 64 64" enable-background="new 0 0 64 64" xml:space="preserve">
<path d="M40,25H24c-0.6,0-1,0.4-1,1v8c0,4.6,3.5,8.4,8,8.9V49h-5c-0.6,0-1,0.4-1,1s0.4,1,1,1h12c0.6,0,1-0.4,1-1s-0.4-1-1-1h-5v-6.1
	c4.5-0.5,8-4.3,8-8.9v-8C41,25.4,40.6,25,40,25z M39,34c0,3.9-3.1,7-7,7s-7-3.1-7-7v-7h14V34z"/>
<path d="M62,3H2C1.4,3,1,3.4,1,4v56c0,0.6,0.4,1,1,1h60c0.6,0,1-0.4,1-1V4C63,3.4,62.6,3,62,3z M61,5v10H3V5H61z M3,59V17h58v42H3z"
	/>
<path d="M10,11h8c0.6,0,1-0.4,1-1s-0.4-1-1-1h-8c-0.6,0-1,0.4-1,1S9.4,11,10,11z"/>
<path d="M52,11h2c0.6,0,1-0.4,1-1s-0.4-1-1-1h-2c-0.6,0-1,0.4-1,1S51.4,11,52,11z"/>
<path d="M42,11h2c0.6,0,1-0.4,1-1s-0.4-1-1-1h-2c-0.6,0-1,0.4-1,1S41.4,11,42,11z"/>
</svg>
