<?xml version="1.0" encoding="utf-8"?>
<!-- Generator: Adobe Illustrator 19.2.1, SVG Export Plug-In . SVG Version: 6.00 Build 0)  -->
<!DOCTYPE svg PUBLIC "-//W3C//DTD SVG 1.1//EN" "http://www.w3.org/Graphics/SVG/1.1/DTD/svg11.dtd">
<svg version="1.1" id="Layer_1" xmlns="http://www.w3.org/2000/svg" xmlns:xlink="http://www.w3.org/1999/xlink" x="0px" y="0px"
	 width="24px" height="24px" viewBox="0 0 24 24" enable-background="new 0 0 24 24" xml:space="preserve">
<path d="M10,20c1.631,0,3.168-0.401,4.53-1.097l4.99,4.99l4.394-4.393l-4.997-4.997C19.604,13.147,20,11.621,20,10
	c0-5.514-4.486-10-10-10S0,4.486,0,10S4.486,20,10,20z M21.086,19.5l-1.565,1.565l-3.271-3.271c0.577-0.464,1.1-0.99,1.562-1.568
	L21.086,19.5z M10,2c4.411,0,8,3.589,8,8s-3.589,8-8,8s-8-3.589-8-8S5.589,2,10,2z"/>
</svg>
