<?xml version="1.0" encoding="utf-8"?>
<!-- Generator: Adobe Illustrator 19.2.1, SVG Export Plug-In . SVG Version: 6.00 Build 0)  -->
<!DOCTYPE svg PUBLIC "-//W3C//DTD SVG 1.1//EN" "http://www.w3.org/Graphics/SVG/1.1/DTD/svg11.dtd">
<svg version="1.1" id="Layer_1" xmlns="http://www.w3.org/2000/svg" xmlns:xlink="http://www.w3.org/1999/xlink" x="0px" y="0px"
	 width="24px" height="24px" viewBox="0 0 24 24" enable-background="new 0 0 24 24" xml:space="preserve">
<path d="M23.178,2.942l-3.42,3.422l-2.122-2.122l3.421-3.419l-1.552-0.505c-0.834-0.271-1.693-0.37-2.567-0.294
	c-3.329,0.289-5.993,3.243-5.937,6.585c0.007,0.412,0.053,0.821,0.138,1.225l-9.15,8.076c-0.891,0.787-1.423,1.919-1.459,3.106
	c-0.037,1.188,0.424,2.351,1.264,3.19c0.809,0.809,1.917,1.266,3.058,1.266c0.044,0,0.089,0,0.133-0.002
	c1.188-0.036,2.319-0.568,3.106-1.459l8.076-9.149c0.863,0.183,1.746,0.186,2.631,0.009c2.358-0.47,4.301-2.261,4.95-4.562
	c0.356-1.265,0.334-2.583-0.065-3.813L23.178,2.942z M21.821,7.767c-0.446,1.585-1.787,2.818-3.415,3.144
	c-0.771,0.154-1.537,0.111-2.278-0.124l-0.621-0.199L6.59,20.688c-0.429,0.485-1.021,0.765-1.669,0.784
	c-0.65,0.021-1.256-0.221-1.714-0.679s-0.699-1.066-0.679-1.714c0.02-0.647,0.299-1.24,0.784-1.669l10.101-8.917l-0.199-0.622
	c-0.135-0.42-0.206-0.855-0.213-1.294c-0.039-2.286,1.759-4.31,4.024-4.552l-2.218,2.217l4.95,4.95l2.218-2.218
	C21.947,7.237,21.896,7.502,21.821,7.767z"/>
</svg>
