<?xml version="1.0" encoding="utf-8"?>
<!-- Generator: Adobe Illustrator 19.2.1, SVG Export Plug-In . SVG Version: 6.00 Build 0)  -->
<!DOCTYPE svg PUBLIC "-//W3C//DTD SVG 1.1//EN" "http://www.w3.org/Graphics/SVG/1.1/DTD/svg11.dtd">
<svg version="1.1" id="Layer_1" xmlns="http://www.w3.org/2000/svg" xmlns:xlink="http://www.w3.org/1999/xlink" x="0px" y="0px"
	 width="24px" height="24px" viewBox="0 0 24 24" enable-background="new 0 0 24 24" xml:space="preserve">
<path d="M12,0C5.383,0,0,5.383,0,12s5.383,12,12,12s12-5.383,12-12S18.617,0,12,0z M13,21.949V19h-2v2.949
	C6.283,21.479,2.521,17.717,2.051,13H5v-2H2.051C2.521,6.283,6.283,2.521,11,2.051V5h2V2.051c4.717,0.471,8.479,4.232,8.949,8.949
	H19v2h2.949C21.479,17.717,17.717,21.479,13,21.949z"/>
<polygon points="8.277,4.613 6.613,5.723 11.465,13 17,13 17,11 12.535,11 "/>
</svg>
