<?xml version="1.0" encoding="utf-8"?>
<!-- Generator: Adobe Illustrator 19.2.1, SVG Export Plug-In . SVG Version: 6.00 Build 0)  -->
<!DOCTYPE svg PUBLIC "-//W3C//DTD SVG 1.1//EN" "http://www.w3.org/Graphics/SVG/1.1/DTD/svg11.dtd">
<svg version="1.1" id="Layer_1" xmlns="http://www.w3.org/2000/svg" xmlns:xlink="http://www.w3.org/1999/xlink" x="0px" y="0px"
	 width="24px" height="24px" viewBox="0 0 24 24" enable-background="new 0 0 24 24" xml:space="preserve">
<path d="M23.177,2.944l-3.419,3.42l-2.122-2.122l3.42-3.419l-1.551-0.505C18.855,0.107,18.181,0,17.5,0C13.916,0,11,2.916,11,6.5
	c0,0.43,0.042,0.856,0.127,1.276L0.289,15.881l7.817,8.037l8.123-11.043C16.647,12.958,17.072,13,17.5,13c3.584,0,6.5-2.916,6.5-6.5
	c0-0.681-0.107-1.355-0.318-2.005L23.177,2.944z M17.5,11c-0.466,0-0.927-0.072-1.371-0.214l-0.685-0.219L7.894,20.832l-4.583-4.713
	L13.432,8.55l-0.218-0.679C13.072,7.427,13,6.966,13,6.5c0-2.321,1.767-4.237,4.025-4.476l-2.218,2.218l4.95,4.95l2.218-2.218
	C21.737,9.233,19.821,11,17.5,11z"/>
</svg>
