<?xml version="1.0" encoding="utf-8"?>
<!-- Generator: Adobe Illustrator 19.2.1, SVG Export Plug-In . SVG Version: 6.00 Build 0)  -->
<!DOCTYPE svg PUBLIC "-//W3C//DTD SVG 1.1//EN" "http://www.w3.org/Graphics/SVG/1.1/DTD/svg11.dtd">
<svg version="1.1" id="Layer_1" xmlns="http://www.w3.org/2000/svg" xmlns:xlink="http://www.w3.org/1999/xlink" x="0px" y="0px"
	 width="24px" height="24px" viewBox="0 0 24 24" enable-background="new 0 0 24 24" xml:space="preserve">
<path d="M12,23.166L23.943,16l-3.333-2l3.333-2l-3.333-2l3.333-2L12,0.834L0.057,8l3.333,2l-3.333,2l3.333,2l-3.333,2L12,23.166z
	 M20.057,16L12,20.834L3.943,16l1.39-0.834l6.667,4l6.667-4L20.057,16z M12,3.166L20.057,8L12,12.834L3.943,8L12,3.166z M12,15.166
	l6.666-4L20.057,12L12,16.834L3.943,12l1.39-0.834L12,15.166z"/>
</svg>
