<?xml version="1.0" encoding="utf-8"?>
<!-- Generator: Adobe Illustrator 19.2.1, SVG Export Plug-In . SVG Version: 6.00 Build 0)  -->
<!DOCTYPE svg PUBLIC "-//W3C//DTD SVG 1.1//EN" "http://www.w3.org/Graphics/SVG/1.1/DTD/svg11.dtd">
<svg version="1.1" id="Layer_1" xmlns="http://www.w3.org/2000/svg" xmlns:xlink="http://www.w3.org/1999/xlink" x="0px" y="0px"
	 width="24px" height="24px" viewBox="0 0 24 24" enable-background="new 0 0 24 24" xml:space="preserve">
<path d="M2,23.414l3.558-3.558c0.84,0.35,2.356,0.852,4.192,0.852c2.109,0,4.623-0.667,6.957-3.001
	c4.746-4.745,6.223-15.131,6.283-15.57l0.186-1.342l-1.337,0.218c-0.452,0.074-11.127,1.861-15.546,6.28
	c-4.382,4.382-2.916,9.342-2.153,11.153L0.586,22L2,23.414z M7.707,8.707C10.796,5.618,17.786,3.88,20.77,3.255
	c-0.56,2.929-2.165,9.727-5.477,13.038c-3.056,3.055-6.415,2.592-8.192,2.02L14.414,11L13,9.586l-7.32,7.32
	C5.102,15.137,4.63,11.785,7.707,8.707z"/>
</svg>
