<?xml version="1.0" encoding="utf-8"?>
<!-- Generator: Adobe Illustrator 19.2.1, SVG Export Plug-In . SVG Version: 6.00 Build 0)  -->
<!DOCTYPE svg PUBLIC "-//W3C//DTD SVG 1.1//EN" "http://www.w3.org/Graphics/SVG/1.1/DTD/svg11.dtd">
<svg version="1.1" id="Layer_1" xmlns="http://www.w3.org/2000/svg" xmlns:xlink="http://www.w3.org/1999/xlink" x="0px" y="0px"
	 width="24px" height="24px" viewBox="0 0 24 24" enable-background="new 0 0 24 24" xml:space="preserve">
<path d="M12,1C5.383,1,0,5.486,0,11s5.383,10,12,10c1.002,0,2.011-0.108,3.003-0.321l7.175,2.869l-0.711-6.401
	C23.104,15.396,24,13.23,24,11C24,5.486,18.617,1,12,1z M19.822,20.452l-4.659-1.863l-0.309,0.073C13.912,18.887,12.952,19,12,19
	c-5.514,0-10-3.589-10-8s4.486-8,10-8s10,3.589,10,8c0,1.84-0.809,3.64-2.276,5.068l-0.351,0.341L19.822,20.452z"/>
</svg>
