<?xml version="1.0" encoding="utf-8"?>
<!-- Generator: Adobe Illustrator 19.2.1, SVG Export Plug-In . SVG Version: 6.00 Build 0)  -->
<!DOCTYPE svg PUBLIC "-//W3C//DTD SVG 1.1//EN" "http://www.w3.org/Graphics/SVG/1.1/DTD/svg11.dtd">
<svg version="1.1" id="Layer_1" xmlns="http://www.w3.org/2000/svg" xmlns:xlink="http://www.w3.org/1999/xlink" x="0px" y="0px"
	 width="24px" height="24px" viewBox="0 0 24 24" enable-background="new 0 0 24 24" xml:space="preserve">
<path d="M15.807,4.962C14.645,4.333,13.328,4,12,4c-4.411,0-8,3.589-8,8c0,1.328,0.333,2.644,0.962,3.806l0.639,1.179L16.985,5.601
	L15.807,4.962z M6.204,13.553C6.069,13.048,6,12.525,6,12c0-3.309,2.691-6,6-6c0.526,0,1.049,0.069,1.553,0.204L6.204,13.553z"/>
<path d="M18.399,7.015L7.015,18.399l1.178,0.639C9.355,19.667,10.672,20,12,20c4.411,0,8-3.589,8-8c0-1.328-0.333-2.645-0.962-3.807
	L18.399,7.015z M12,18c-0.526,0-1.049-0.069-1.553-0.204l7.349-7.349C17.931,10.951,18,11.474,18,12C18,15.309,15.309,18,12,18z"/>
<path d="M12,0C5.383,0,0,5.383,0,12s5.383,12,12,12s12-5.383,12-12S18.617,0,12,0z M12,22C6.486,22,2,17.514,2,12S6.486,2,12,2
	s10,4.486,10,10S17.514,22,12,22z"/>
</svg>
