<?xml version="1.0" encoding="utf-8"?>
<!-- Generator: Adobe Illustrator 19.2.1, SVG Export Plug-In . SVG Version: 6.00 Build 0)  -->
<!DOCTYPE svg PUBLIC "-//W3C//DTD SVG 1.1//EN" "http://www.w3.org/Graphics/SVG/1.1/DTD/svg11.dtd">
<svg version="1.1" id="Layer_1" xmlns="http://www.w3.org/2000/svg" xmlns:xlink="http://www.w3.org/1999/xlink" x="0px" y="0px"
	 width="24px" height="24px" viewBox="0 0 24 24" enable-background="new 0 0 24 24" xml:space="preserve">
<path d="M17,0c-1.903,0-3.695,0.768-5,2.103C10.695,0.768,8.903,0,7,0C3.141,0,0,3.14,0,7c0,6.4,10.902,15.394,11.367,15.774
	L12,23.292l0.633-0.518C13.098,22.394,24,13.4,24,7C24,3.14,20.859,0,17,0z M12,20.694C8.71,17.87,2,11.234,2,7c0-2.757,2.243-5,5-5
	c1.679,0,3.236,0.837,4.167,2.239L12,5.494l0.833-1.255C13.764,2.837,15.321,2,17,2c2.757,0,5,2.243,5,5
	C22,11.234,15.29,17.87,12,20.694z"/>
</svg>
