<?xml version="1.0" encoding="utf-8"?>
<!-- Generator: Adobe Illustrator 19.2.1, SVG Export Plug-In . SVG Version: 6.00 Build 0)  -->
<!DOCTYPE svg PUBLIC "-//W3C//DTD SVG 1.1//EN" "http://www.w3.org/Graphics/SVG/1.1/DTD/svg11.dtd">
<svg version="1.1" id="Layer_1" xmlns="http://www.w3.org/2000/svg" xmlns:xlink="http://www.w3.org/1999/xlink" x="0px" y="0px"
	 width="24px" height="24px" viewBox="0 0 24 24" enable-background="new 0 0 24 24" xml:space="preserve">
<path d="M20,0H4C1.794,0,0,1.794,0,4v2v2v16h7h2h15V8V6V4C24,1.794,22.206,0,20,0z M2,22V8h5v14H2z M22,22H9V8h13V22z M9,6H7H2V4
	c0-1.103,0.897-2,2-2h16c1.103,0,2,0.897,2,2v2H9z"/>
</svg>
