<?xml version="1.0" encoding="utf-8"?>
<!-- Generator: Adobe Illustrator 19.2.1, SVG Export Plug-In . SVG Version: 6.00 Build 0)  -->
<!DOCTYPE svg PUBLIC "-//W3C//DTD SVG 1.1//EN" "http://www.w3.org/Graphics/SVG/1.1/DTD/svg11.dtd">
<svg version="1.1" id="Layer_1" xmlns="http://www.w3.org/2000/svg" xmlns:xlink="http://www.w3.org/1999/xlink" x="0px" y="0px"
	 width="24px" height="24px" viewBox="0 0 24 24" enable-background="new 0 0 24 24" xml:space="preserve">
<path fill="#222221" d="M22.307,9.249l-0.75-0.661l-1.323,1.499l0.749,0.662C21.629,11.319,22,12.14,22,13v4c0,1.654-1.346,3-3,3h-9
	c-1.654,0-3-1.346-3-3v-4c0-1.654,1.346-3,3-3h5V8h-5c-2.757,0-5,2.243-5,5v4c0,2.757,2.243,5,5,5h9c2.757,0,5-2.243,5-5v-4
	C24,11.566,23.383,10.199,22.307,9.249z"/>
<path fill="#222221" d="M2,11V7c0-1.654,1.346-3,3-3h9c1.654,0,3,1.346,3,3v4c0,1.654-1.346,3-3,3H9v2h5c2.757,0,5-2.243,5-5V7
	c0-2.757-2.243-5-5-5H5C2.243,2,0,4.243,0,7v4c0,1.434,0.617,2.801,1.693,3.751l0.75,0.661l1.323-1.499l-0.749-0.662
	C2.371,12.681,2,11.86,2,11z"/>
</svg>
