<?xml version="1.0" encoding="utf-8"?>
<!-- Generator: Adobe Illustrator 19.2.1, SVG Export Plug-In . SVG Version: 6.00 Build 0)  -->
<!DOCTYPE svg PUBLIC "-//W3C//DTD SVG 1.1//EN" "http://www.w3.org/Graphics/SVG/1.1/DTD/svg11.dtd">
<svg version="1.1" id="Layer_1" xmlns="http://www.w3.org/2000/svg" xmlns:xlink="http://www.w3.org/1999/xlink" x="0px" y="0px"
	 width="24px" height="24px" viewBox="0 0 24 24" enable-background="new 0 0 24 24" xml:space="preserve">
<path d="M19.872,10.077C19.19,6.045,15.667,3,11.5,3c-4.304,0-7.877,3.197-8.419,7.396C1.236,11.161,0,12.963,0,15
	c0,2.757,2.243,5,5,5h14c2.757,0,5-2.243,5-5c0-1.342-0.525-2.603-1.478-3.55C21.789,10.723,20.87,10.25,19.872,10.077z M19,18H5
	c-1.654,0-3-1.346-3-3c0-1.366,0.931-2.557,2.265-2.895l0.717-0.182l0.036-0.739C5.184,7.716,8.032,5,11.5,5
	c3.408,0,6.253,2.666,6.477,6.068l0.062,0.94l0.943-0.006c0.817-0.009,1.562,0.303,2.13,0.867C21.685,13.438,22,14.194,22,15
	C22,16.654,20.654,18,19,18z"/>
</svg>
