<?xml version="1.0" encoding="utf-8"?>
<!-- Generator: Adobe Illustrator 19.2.1, SVG Export Plug-In . SVG Version: 6.00 Build 0)  -->
<!DOCTYPE svg PUBLIC "-//W3C//DTD SVG 1.1//EN" "http://www.w3.org/Graphics/SVG/1.1/DTD/svg11.dtd">
<svg version="1.1" id="Layer_1" xmlns="http://www.w3.org/2000/svg" xmlns:xlink="http://www.w3.org/1999/xlink" x="0px" y="0px"
	 width="24px" height="24px" viewBox="0 0 24 24" enable-background="new 0 0 24 24" xml:space="preserve">
<path fill="#222221" d="M17,1c-1.87,0-3.627,0.729-4.949,2.05C12.034,3.067,12.017,3.084,12,3.102
	c-0.017-0.018-0.033-0.034-0.05-0.051C10.627,1.729,8.87,1,7,1S3.373,1.729,2.05,3.051S0,6.13,0,8s0.728,3.627,2.05,4.949l9.95,9.95
	l9.95-9.95C23.272,11.627,24,9.87,24,8c0-1.869-0.728-3.627-2.05-4.949S18.87,1,17,1z M20.536,11.535L12,20.071l-8.536-8.536
	C2.52,10.591,2,9.335,2,8s0.52-2.591,1.464-3.535S5.665,3,7,3s2.591,0.521,3.536,1.466c0.232,0.231,0.444,0.491,0.631,0.772
	L12,6.492l0.833-1.254c0.187-0.281,0.399-0.541,0.631-0.773C14.409,3.521,15.665,3,17,3s2.591,0.521,3.536,1.465S22,6.665,22,8
	S21.48,10.591,20.536,11.535z"/>
</svg>
