<?xml version="1.0" encoding="utf-8"?>
<!-- Generator: Adobe Illustrator 19.2.1, SVG Export Plug-In . SVG Version: 6.00 Build 0)  -->
<!DOCTYPE svg PUBLIC "-//W3C//DTD SVG 1.1//EN" "http://www.w3.org/Graphics/SVG/1.1/DTD/svg11.dtd">
<svg version="1.1" id="Layer_1" xmlns="http://www.w3.org/2000/svg" xmlns:xlink="http://www.w3.org/1999/xlink" x="0px" y="0px"
	 width="24px" height="24px" viewBox="0 0 24 24" enable-background="new 0 0 24 24" xml:space="preserve">
<path d="M12,8c-2.206,0-4,1.794-4,4s1.794,4,4,4s4-1.794,4-4S14.206,8,12,8z M12,14c-1.103,0-2-0.897-2-2s0.897-2,2-2s2,0.897,2,2
	S13.103,14,12,14z"/>
<path d="M19.136,6.526C18.075,5.142,16.643,4.102,15,3.522V0H9v3.522C7.357,4.102,5.925,5.142,4.864,6.526l-3.35-1.088l-1.854,5.706
	l3.352,1.09c0.043,1.751,0.588,3.437,1.573,4.867L2.52,19.944l4.854,3.527l2.069-2.848c1.672,0.498,3.442,0.498,5.115,0l2.069,2.848
	l4.854-3.527l-2.064-2.842c1-1.441,1.536-3.101,1.574-4.869l3.35-1.089l-1.854-5.706L19.136,6.526z M18.931,10.8l0.047,0.772
	c0.109,1.812-0.437,3.5-1.578,4.882l-0.494,0.598l1.781,2.451l-1.618,1.176l-1.784-2.456l-0.721,0.284
	c-1.655,0.654-3.476,0.653-5.128,0.001l-0.721-0.285l-1.784,2.456l-1.618-1.176l1.781-2.451L6.6,16.454
	c-1.142-1.382-1.687-3.069-1.578-4.882L5.069,10.8L2.18,9.861l0.618-1.903l2.886,0.938L6.1,8.244c0.958-1.5,2.432-2.57,4.15-3.015
	L11,5.036V2h2v3.036l0.75,0.193c1.718,0.444,3.192,1.515,4.15,3.015l0.416,0.652l2.886-0.938l0.618,1.903L18.931,10.8z"/>
</svg>
