<?xml version="1.0" encoding="utf-8"?>
<!-- Generator: Adobe Illustrator 19.2.1, SVG Export Plug-In . SVG Version: 6.00 Build 0)  -->
<!DOCTYPE svg PUBLIC "-//W3C//DTD SVG 1.1//EN" "http://www.w3.org/Graphics/SVG/1.1/DTD/svg11.dtd">
<svg version="1.1" id="Layer_1" xmlns="http://www.w3.org/2000/svg" xmlns:xlink="http://www.w3.org/1999/xlink" x="0px" y="0px"
	 width="24px" height="24px" viewBox="0 0 24 24" enable-background="new 0 0 24 24" xml:space="preserve">
<path d="M11,23c6.065,0,11-4.935,11-11c0-0.98-0.129-1.953-0.384-2.89l-1.93,0.524C19.895,10.401,20,11.196,20,12
	c0,4.962-4.037,9-9,9s-9-4.038-9-9s4.037-9,9-9c1.676,0,3.312,0.464,4.729,1.341l1.053-1.7C15.048,1.567,13.048,1,11,1
	C4.935,1,0,5.935,0,12S4.935,23,11,23z"/>
<polygon points="7,8.586 5.586,10 11,15.414 23.414,3 22,1.586 11,12.586 "/>
</svg>
