<?xml version="1.0" encoding="utf-8"?>
<!-- Generator: Adobe Illustrator 19.2.1, SVG Export Plug-In . SVG Version: 6.00 Build 0)  -->
<!DOCTYPE svg PUBLIC "-//W3C//DTD SVG 1.1//EN" "http://www.w3.org/Graphics/SVG/1.1/DTD/svg11.dtd">
<svg version="1.1" id="Layer_1" xmlns="http://www.w3.org/2000/svg" xmlns:xlink="http://www.w3.org/1999/xlink" x="0px" y="0px"
	 width="24px" height="24px" viewBox="0 0 24 24" enable-background="new 0 0 24 24" xml:space="preserve">
<rect x="7.722" y="6.5" transform="matrix(0.7071 -0.7071 0.7071 0.7071 -0.4706 13.864)" width="17.556" height="2"/>
<path d="M11,24c6.065,0,11-4.935,11-11c0-1.124-0.169-2.232-0.503-3.297l-0.299-0.954l-1.909,0.599l0.3,0.955
	C19.861,11.172,20,12.08,20,13c0,4.963-4.037,9-9,9s-9-4.037-9-9s4.037-9,9-9c0.919,0,1.826,0.138,2.697,0.41l0.955,0.299
	L15.249,2.8l-0.954-0.298C13.23,2.169,12.122,2,11,2C4.935,2,0,6.935,0,13S4.935,24,11,24z"/>
</svg>
