<?xml version="1.0" encoding="utf-8"?>
<!-- Generator: Adobe Illustrator 19.2.1, SVG Export Plug-In . SVG Version: 6.00 Build 0)  -->
<!DOCTYPE svg PUBLIC "-//W3C//DTD SVG 1.1//EN" "http://www.w3.org/Graphics/SVG/1.1/DTD/svg11.dtd">
<svg version="1.1" id="Layer_1" xmlns="http://www.w3.org/2000/svg" xmlns:xlink="http://www.w3.org/1999/xlink" x="0px" y="0px"
	 width="24px" height="24px" viewBox="0 0 24 24" enable-background="new 0 0 24 24" xml:space="preserve">
<path d="M12,24c4.816,0,10-1.252,10-4v-8v-1V4c0-2.748-5.184-4-10-4S2,1.252,2,4v7v1v8C2,22.748,7.184,24,12,24z M12,22
	c-5.25,0-8-1.486-8-2v-5.476C5.949,15.525,9.041,16,12,16s6.051-0.475,8-1.476V20C20,20.514,17.25,22,12,22z M12,2
	c5.25,0,8,1.486,8,2s-2.75,2-8,2S4,4.514,4,4S6.75,2,12,2z M4,6.524C5.949,7.525,9.041,8,12,8s6.051-0.475,8-1.476V11v1
	c0,0.514-2.75,2-8,2s-8-1.486-8-2v-1V6.524z"/>
</svg>
