<?xml version="1.0" encoding="utf-8"?>
<!-- Generator: Adobe Illustrator 19.2.1, SVG Export Plug-In . SVG Version: 6.00 Build 0)  -->
<!DOCTYPE svg PUBLIC "-//W3C//DTD SVG 1.1//EN" "http://www.w3.org/Graphics/SVG/1.1/DTD/svg11.dtd">
<svg version="1.1" id="Layer_1" xmlns="http://www.w3.org/2000/svg" xmlns:xlink="http://www.w3.org/1999/xlink" x="0px" y="0px"
	 width="24px" height="24px" viewBox="0 0 24 24" enable-background="new 0 0 24 24" xml:space="preserve">
<path d="M20.121,1.707c-1.17-1.17-3.072-1.17-4.242,0L2.066,15.52l-1.283,7.697l7.697-1.283L22.293,8.121
	c1.17-1.17,1.17-3.072,0-4.242L20.121,1.707z M4.414,16L14.5,5.914L18.086,9.5L8,19.586L4.414,16z M3.667,18.081l2.252,2.252
	l-2.702,0.45L3.667,18.081z M20.879,6.707L19.5,8.086L15.914,4.5l1.379-1.379c0.391-0.391,1.023-0.391,1.414,0l2.172,2.172
	C21.269,5.683,21.269,6.317,20.879,6.707z"/>
</svg>
