<?xml version="1.0" encoding="utf-8"?>
<!-- Generator: Adobe Illustrator 19.2.1, SVG Export Plug-In . SVG Version: 6.00 Build 0)  -->
<!DOCTYPE svg PUBLIC "-//W3C//DTD SVG 1.1//EN" "http://www.w3.org/Graphics/SVG/1.1/DTD/svg11.dtd">
<svg version="1.1" id="Layer_1" xmlns="http://www.w3.org/2000/svg" xmlns:xlink="http://www.w3.org/1999/xlink" x="0px" y="0px"
	 width="24px" height="24px" viewBox="0 0 24 24" enable-background="new 0 0 24 24" xml:space="preserve">
<path d="M14.896,7.111l-1.414-1.414l-6.718,6.717c-1.365,1.364-1.365,3.586,0,4.95c1.366,1.364,3.586,1.362,4.95,0l7.07-7.071
	c2.145-2.145,2.145-5.634,0-7.778s-5.633-2.145-7.777,0l-7.778,7.778c-1.417,1.416-2.197,3.3-2.197,5.304
	c0,2.003,0.78,3.887,2.197,5.303c1.462,1.462,3.382,2.192,5.303,2.192s3.842-0.73,5.304-2.192l9.546-9.546l-1.414-1.414
	l-9.546,9.546c-2.144,2.144-5.633,2.144-7.778,0c-1.039-1.039-1.611-2.42-1.611-3.889c0-1.47,0.572-2.851,1.611-3.89l7.778-7.778
	c1.365-1.365,3.584-1.365,4.949,0c0.661,0.661,1.025,1.54,1.025,2.475c0,0.936-0.364,1.814-1.025,2.476l-7.07,7.071
	c-0.583,0.583-1.537,0.585-2.122,0s-0.585-1.537,0-2.122L14.896,7.111z"/>
</svg>
