<?xml version="1.0" encoding="utf-8"?>
<!-- Generator: Adobe Illustrator 19.2.1, SVG Export Plug-In . SVG Version: 6.00 Build 0)  -->
<!DOCTYPE svg PUBLIC "-//W3C//DTD SVG 1.1//EN" "http://www.w3.org/Graphics/SVG/1.1/DTD/svg11.dtd">
<svg version="1.1" id="Layer_1" xmlns="http://www.w3.org/2000/svg" xmlns:xlink="http://www.w3.org/1999/xlink" x="0px" y="0px"
	 width="24px" height="24px" viewBox="0 0 24 24" enable-background="new 0 0 24 24" xml:space="preserve">
<path d="M14.829,4.929L12,7.757L9.171,4.929L4.929,9.171L7.757,12l-2.828,2.829l4.242,4.242L12,16.243l2.829,2.828l4.242-4.242
	L16.243,12l2.828-2.829L14.829,4.929z M16.243,14.829l-1.414,1.414L12,13.415l-2.829,2.828l-1.414-1.414L10.585,12L7.757,9.171
	l1.414-1.414L12,10.585l2.829-2.828l1.414,1.414L13.415,12L16.243,14.829z"/>
<path d="M0,24h24V0H0V24z M2,2h20v20H2V2z"/>
</svg>
