<?xml version="1.0" encoding="utf-8"?>
<!-- Generator: Adobe Illustrator 19.2.1, SVG Export Plug-In . SVG Version: 6.00 Build 0)  -->
<!DOCTYPE svg PUBLIC "-//W3C//DTD SVG 1.1//EN" "http://www.w3.org/Graphics/SVG/1.1/DTD/svg11.dtd">
<svg version="1.1" id="Layer_1" xmlns="http://www.w3.org/2000/svg" xmlns:xlink="http://www.w3.org/1999/xlink" x="0px" y="0px"
	 width="24px" height="24px" viewBox="0 0 24 24" enable-background="new 0 0 24 24" xml:space="preserve">
<polygon points="13,13 13,9 11,9 11,15 17,15 17,13 "/>
<path d="M12,5c-4.962,0-9,4.038-9,9c0,2.122,0.742,4.071,1.975,5.611l-2.682,2.682l1.414,1.414l2.682-2.682
	C7.929,22.258,9.878,23,12,23s4.071-0.742,5.611-1.975l2.682,2.682l1.414-1.414l-2.682-2.682C20.258,18.071,21,16.122,21,14
	C21,9.038,16.962,5,12,5z M12,21c-3.86,0-7-3.14-7-7s3.14-7,7-7s7,3.14,7,7S15.86,21,12,21z"/>
<path d="M0.618,8.612l0.838,1.725L2.39,8.663c1.523-2.73,4.139-4.691,7.175-5.381l1.875-0.426l-1.425-1.291C8.9,0.556,7.475,0,6,0
	C2.691,0,0,2.691,0,6C0,6.89,0.208,7.769,0.618,8.612z M6,2c0.276,0,0.551,0.03,0.819,0.088C4.96,2.898,3.312,4.136,2.011,5.697
	C2.167,3.632,3.896,2,6,2z"/>
<path d="M18,0c-1.475,0-2.9,0.556-4.015,1.565L12.56,2.855l1.875,0.426c3.037,0.69,5.651,2.651,7.175,5.381l0.934,1.673l0.838-1.723
	C23.792,7.771,24,6.891,24,6C24,2.691,21.309,0,18,0z M17.182,2.088C17.449,2.03,17.724,2,18,2c2.104,0,3.833,1.632,3.989,3.697
	C20.688,4.136,19.04,2.898,17.182,2.088z"/>
</svg>
