<?xml version="1.0" encoding="utf-8"?>
<!-- Generator: Adobe Illustrator 19.2.1, SVG Export Plug-In . SVG Version: 6.00 Build 0)  -->
<!DOCTYPE svg PUBLIC "-//W3C//DTD SVG 1.1//EN" "http://www.w3.org/Graphics/SVG/1.1/DTD/svg11.dtd">
<svg version="1.1" id="Layer_1" xmlns="http://www.w3.org/2000/svg" xmlns:xlink="http://www.w3.org/1999/xlink" x="0px" y="0px"
	 width="24px" height="24px" viewBox="0 0 24 24" enable-background="new 0 0 24 24" xml:space="preserve">
<path d="M6,6v2H3v16h18V8H8V6c0-2.206,1.794-4,4-4c1.59,0,3.029,0.941,3.667,2.399l1.832-0.802C16.543,1.412,14.385,0,12,0
	C8.691,0,6,2.691,6,6z M19,22H5V10h14V22z"/>
<path d="M11,17.816V20h2v-2.184c1.161-0.414,2-1.514,2-2.816c0-1.654-1.346-3-3-3s-3,1.346-3,3C9,16.302,9.839,17.402,11,17.816z
	 M12,14c0.551,0,1,0.449,1,1s-0.449,1-1,1s-1-0.449-1-1S11.449,14,12,14z"/>
</svg>
