<?xml version="1.0" encoding="utf-8"?>
<!-- Generator: Adobe Illustrator 19.2.1, SVG Export Plug-In . SVG Version: 6.00 Build 0)  -->
<!DOCTYPE svg PUBLIC "-//W3C//DTD SVG 1.1//EN" "http://www.w3.org/Graphics/SVG/1.1/DTD/svg11.dtd">
<svg version="1.1" id="Layer_1" xmlns="http://www.w3.org/2000/svg" xmlns:xlink="http://www.w3.org/1999/xlink" x="0px" y="0px"
	 width="24px" height="24px" viewBox="0 0 24 24" enable-background="new 0 0 24 24" xml:space="preserve">
<path d="M12,24c4.424,0,9-3.366,9-9c0-5.289-7.952-13.363-8.29-13.705L12,0.58l-0.71,0.715C10.952,1.637,3,9.711,3,15
	C3,20.634,7.576,24,12,24z M12,3.445c2.459,2.638,7,8.202,7,11.555c0,4.382-3.559,7-7,7s-7-2.618-7-7C5,11.65,9.542,6.084,12,3.445z
	"/>
<path d="M12,19c1.305,0,4-0.975,3.999-4.037c-0.074-1.56-2.04-4.382-3.204-5.925l-0.798-1.057l-0.798,1.057
	C10.037,10.577,8.076,13.392,8,15C8,17.914,10.454,19,12,19z M11.997,11.339c1.423,2.032,1.985,3.308,2.003,3.671
	C14,16.946,12.02,17,12,17s-2-0.054-2.001-1.952C10.018,14.644,10.579,13.364,11.997,11.339z"/>
</svg>
