<?xml version="1.0" encoding="utf-8"?>
<!-- Generator: Adobe Illustrator 19.2.1, SVG Export Plug-In . SVG Version: 6.00 Build 0)  -->
<!DOCTYPE svg PUBLIC "-//W3C//DTD SVG 1.1//EN" "http://www.w3.org/Graphics/SVG/1.1/DTD/svg11.dtd">
<svg version="1.1" id="Layer_1" xmlns="http://www.w3.org/2000/svg" xmlns:xlink="http://www.w3.org/1999/xlink" x="0px" y="0px"
	 width="24px" height="24px" viewBox="0 0 24 24" enable-background="new 0 0 24 24" xml:space="preserve">
<path fill="#222221" d="M21.95,3.051C20.627,1.729,18.87,1,17,1s-3.627,0.729-4.949,2.05C12.034,3.067,12.017,3.084,12,3.102
	c-0.017-0.018-0.033-0.034-0.05-0.051C10.627,1.729,8.87,1,7,1S3.373,1.729,2.05,3.051S0,6.13,0,8s0.728,3.627,2.05,4.949l9.95,9.95
	l1.094-1.094C14.21,22.559,15.555,23,17,23c3.86,0,7-3.141,7-7c0-1.486-0.469-2.863-1.262-3.998
	C24.657,9.259,24.376,5.476,21.95,3.051z M2,8c0-1.335,0.52-2.591,1.464-3.535S5.665,3,7,3s2.591,0.521,3.536,1.466
	c0.232,0.231,0.444,0.491,0.631,0.772L12,6.492l0.833-1.254c0.187-0.281,0.399-0.541,0.631-0.773C14.409,3.521,15.665,3,17,3
	s2.591,0.521,3.536,1.465c1.631,1.631,1.905,4.121,0.788,6.041C20.132,9.566,18.632,9,17,9c-3.86,0-7,3.141-7,7
	c0,0.906,0.179,1.769,0.493,2.564l-7.029-7.029C2.52,10.591,2,9.335,2,8z M17,21c-2.757,0-5-2.243-5-5s2.243-5,5-5s5,2.243,5,5
	S19.757,21,17,21z"/>
<polygon fill="#222221" points="18,13 16,13 16,15 14,15 14,17 16,17 16,19 18,19 18,17 20,17 20,15 18,15 "/>
</svg>
