<?xml version="1.0" encoding="utf-8"?>
<!-- Generator: Adobe Illustrator 19.2.1, SVG Export Plug-In . SVG Version: 6.00 Build 0)  -->
<!DOCTYPE svg PUBLIC "-//W3C//DTD SVG 1.1//EN" "http://www.w3.org/Graphics/SVG/1.1/DTD/svg11.dtd">
<svg version="1.1" id="Layer_1" xmlns="http://www.w3.org/2000/svg" xmlns:xlink="http://www.w3.org/1999/xlink" x="0px" y="0px"
	 width="24px" height="24px" viewBox="0 0 24 24" enable-background="new 0 0 24 24" xml:space="preserve">
<path d="M12,19c6.428,0,10.653-6.179,10.83-6.442l0.373-0.556l-0.371-0.557C22.656,11.182,18.461,5,12,5
	C5.506,5,1.34,11.185,1.166,11.448L0.8,12.002l0.368,0.553C1.344,12.818,5.539,19,12,19z M15,10c0,1.654-1.346,3-3,3s-3-1.346-3-3
	s1.346-3,3-3S15,8.346,15,10z M7.287,8.398C7.114,8.904,7,9.437,7,10c0,2.757,2.243,5,5,5s5-2.243,5-5
	c0-0.56-0.113-1.089-0.284-1.592c1.948,1.165,3.371,2.757,4.034,3.59C19.623,13.407,16.324,17,12,17
	c-4.35,0-7.635-3.596-8.753-5.002C3.907,11.164,5.33,9.565,7.287,8.398z"/>
</svg>
