<?xml version="1.0" encoding="utf-8"?>
<!-- Generator: Adobe Illustrator 19.2.1, SVG Export Plug-In . SVG Version: 6.00 Build 0)  -->
<!DOCTYPE svg PUBLIC "-//W3C//DTD SVG 1.1//EN" "http://www.w3.org/Graphics/SVG/1.1/DTD/svg11.dtd">
<svg version="1.1" id="Layer_1" xmlns="http://www.w3.org/2000/svg" xmlns:xlink="http://www.w3.org/1999/xlink" x="0px" y="0px"
	 width="24px" height="24px" viewBox="0 0 24 24" enable-background="new 0 0 24 24" xml:space="preserve">
<polygon points="11,9 11,15 17,15 17,13 13,13 13,9 "/>
<path d="M2,14c0,5.514,4.486,10,10,10s10-4.486,10-10c0-5.177-3.954-9.446-9-9.949V2h2V0h-2h-2H9v2h2v2.051
	C5.954,4.554,2,8.823,2,14z M20,14c0,4.411-3.589,8-8,8s-8-3.589-8-8s3.589-8,8-8S20,9.589,20,14z"/>
</svg>
