<?xml version="1.0" encoding="utf-8"?>
<!-- Generator: Adobe Illustrator 19.2.1, SVG Export Plug-In . SVG Version: 6.00 Build 0)  -->
<!DOCTYPE svg PUBLIC "-//W3C//DTD SVG 1.1//EN" "http://www.w3.org/Graphics/SVG/1.1/DTD/svg11.dtd">
<svg version="1.1" id="Layer_1" xmlns="http://www.w3.org/2000/svg" xmlns:xlink="http://www.w3.org/1999/xlink" x="0px" y="0px"
	 width="24px" height="24px" viewBox="0 0 24 24" enable-background="new 0 0 24 24" xml:space="preserve">
<polygon fill="#222221" points="20,13 18,13 18,22 2,22 2,6 11,6 11,4 0,4 0,24 20,24 "/>
<path fill="#222221" d="M19,0c-2.757,0-5,2.243-5,5s2.243,5,5,5s5-2.243,5-5S21.757,0,19,0z M19,8c-1.654,0-3-1.346-3-3s1.346-3,3-3
	s3,1.346,3,3S20.654,8,19,8z"/>
</svg>
