<?xml version="1.0" encoding="utf-8"?>
<!-- Generator: Adobe Illustrator 19.2.1, SVG Export Plug-In . SVG Version: 6.00 Build 0)  -->
<!DOCTYPE svg PUBLIC "-//W3C//DTD SVG 1.1//EN" "http://www.w3.org/Graphics/SVG/1.1/DTD/svg11.dtd">
<svg version="1.1" id="Layer_1" xmlns="http://www.w3.org/2000/svg" xmlns:xlink="http://www.w3.org/1999/xlink" x="0px" y="0px"
	 width="24px" height="24px" viewBox="0 0 24 24" enable-background="new 0 0 24 24" xml:space="preserve">
<path d="M10,0C4.486,0,0,4.486,0,10s4.486,10,10,10c2.398,0,4.6-0.85,6.324-2.262L22,23.414L23.414,22l-5.676-5.676
	C19.15,14.599,20,12.398,20,10C20,4.486,15.514,0,10,0z M2,10c0-4.411,3.589-8,8-8s8,3.589,8,8s-3.589,8-8,8S2,14.411,2,10z"/>
</svg>
