<?xml version="1.0" encoding="utf-8"?>
<!-- Generator: Adobe Illustrator 19.2.1, SVG Export Plug-In . SVG Version: 6.00 Build 0)  -->
<!DOCTYPE svg PUBLIC "-//W3C//DTD SVG 1.1//EN" "http://www.w3.org/Graphics/SVG/1.1/DTD/svg11.dtd">
<svg version="1.1" id="Layer_1" xmlns="http://www.w3.org/2000/svg" xmlns:xlink="http://www.w3.org/1999/xlink" x="0px" y="0px"
	 width="24px" height="24px" viewBox="0 0 24 24" enable-background="new 0 0 24 24" xml:space="preserve">
<path fill="#222221" d="M0.586,22L2,23.414l4.312-4.312C9.68,22.136,14.121,24,19,24h0.414l4-4L17,13.586l-3,3l-1.172-1.172
	l-1.414,1.414L14,19.414l3-3L20.586,20l-1.995,1.995c-4.168-0.099-7.957-1.718-10.866-4.306L10,15.414L11.414,14l12-12L22,0.586
	l-12,12L7.414,10l3-3L4,0.586l-4,4V5c0,4.879,1.864,9.32,4.898,12.688L0.586,22z M2.005,5.409L4,3.414L7.586,7l-3,3l4,4L6.31,16.276
	C3.722,13.366,2.104,9.577,2.005,5.409z"/>
</svg>
