<?xml version="1.0" encoding="utf-8"?>
<!-- Generator: Adobe Illustrator 19.2.1, SVG Export Plug-In . SVG Version: 6.00 Build 0)  -->
<!DOCTYPE svg PUBLIC "-//W3C//DTD SVG 1.1//EN" "http://www.w3.org/Graphics/SVG/1.1/DTD/svg11.dtd">
<svg version="1.1" id="Layer_1" xmlns="http://www.w3.org/2000/svg" xmlns:xlink="http://www.w3.org/1999/xlink" x="0px" y="0px"
	 width="24px" height="24px" viewBox="0 0 24 24" enable-background="new 0 0 24 24" xml:space="preserve">
<path d="M15,3c-3.875,0-7.242,2.435-8.49,6.026C6.336,9.009,6.167,9,6,9c-3.309,0-6,2.691-6,6s2.691,6,6,6h9c4.963,0,9-4.038,9-9
	S19.963,3,15,3z M15,19H6c-2.206,0-4-1.794-4-4s1.794-4,4-4c0.295,0,0.604,0.043,0.975,0.137l0.985,0.248l0.232-0.989
	C8.938,7.219,11.738,5,15,5c3.859,0,7,3.14,7,7S18.859,19,15,19z"/>
</svg>
