<?xml version="1.0" encoding="utf-8"?>
<!-- Generator: Adobe Illustrator 19.2.1, SVG Export Plug-In . SVG Version: 6.00 Build 0)  -->
<!DOCTYPE svg PUBLIC "-//W3C//DTD SVG 1.1//EN" "http://www.w3.org/Graphics/SVG/1.1/DTD/svg11.dtd">
<svg version="1.1" id="Layer_1" xmlns="http://www.w3.org/2000/svg" xmlns:xlink="http://www.w3.org/1999/xlink" x="0px" y="0px"
	 width="24px" height="24px" viewBox="0 0 24 24" enable-background="new 0 0 24 24" xml:space="preserve">
<path d="M23,17.63L16.46,10H7.54L1,17.63V24h22V17.63z M21,22H3v-3.63L8.46,12h7.08L21,18.37V22z"/>
<path d="M20,0H4C1.794,0,0,1.794,0,4v5h8V6h8v3h8V4C24,1.794,22.206,0,20,0z M22,7h-4V4H6v3H2V4c0-1.103,0.897-2,2-2h16
	c1.103,0,2,0.897,2,2V7z"/>
<path d="M12,14c-1.654,0-3,1.346-3,3s1.346,3,3,3s3-1.346,3-3S13.654,14,12,14z M12,18c-0.551,0-1-0.449-1-1s0.449-1,1-1
	s1,0.449,1,1S12.551,18,12,18z"/>
</svg>
