<?xml version="1.0" encoding="utf-8"?>
<!-- Generator: Adobe Illustrator 19.2.1, SVG Export Plug-In . SVG Version: 6.00 Build 0)  -->
<!DOCTYPE svg PUBLIC "-//W3C//DTD SVG 1.1//EN" "http://www.w3.org/Graphics/SVG/1.1/DTD/svg11.dtd">
<svg version="1.1" id="Layer_1" xmlns="http://www.w3.org/2000/svg" xmlns:xlink="http://www.w3.org/1999/xlink" x="0px" y="0px"
	 width="24px" height="24px" viewBox="0 0 24 24" enable-background="new 0 0 24 24" xml:space="preserve">
<path d="M4.415,0.437L0.173,4.679l3.972,3.974l2.123-0.708l2.084,2.084l-6.644,5.864c-0.89,0.786-1.422,1.917-1.459,3.104
	s0.423,2.352,1.264,3.192c0.809,0.809,1.917,1.266,3.059,1.266c0.044,0,0.089,0,0.133-0.002c1.188-0.037,2.319-0.569,3.105-1.459
	l3.52-3.988l4.683,4.684c0.884,0.884,2.046,1.326,3.207,1.326s2.323-0.442,3.207-1.326c1.769-1.769,1.769-4.646,0-6.414
	l-3.526-3.527c2.181-0.58,3.953-2.283,4.566-4.456c0.356-1.266,0.333-2.584-0.065-3.813l-0.504-1.554l-3.42,3.422l-2.122-2.122
	l3.422-3.422L19.222,0.3c-0.833-0.271-1.695-0.369-2.564-0.293c-3.33,0.288-5.994,3.242-5.938,6.585
	c0.007,0.41,0.053,0.819,0.138,1.224L9.853,8.702L7.681,6.53l0.707-2.122L4.415,0.437z M21.012,21.275
	c-0.988,0.988-2.598,0.988-3.586,0l-4.771-4.772l3.23-3.659c0.112,0.024,0.224,0.036,0.337,0.053l4.79,4.791
	C22,18.678,22,20.287,21.012,21.275z M12.934,7.855c-0.135-0.425-0.207-0.86-0.214-1.296c-0.039-2.286,1.759-4.31,4.023-4.552
	l-2.217,2.217l4.95,4.95l2.218-2.218c-0.028,0.263-0.079,0.527-0.154,0.792c-0.446,1.585-1.787,2.818-3.415,3.144
	c-0.771,0.154-1.538,0.111-2.278-0.124l-0.621-0.199L6.309,20.67c-0.428,0.485-1.021,0.765-1.668,0.784
	c-0.643,0.029-1.257-0.22-1.715-0.679s-0.699-1.068-0.679-1.716c0.021-0.646,0.299-1.239,0.784-1.667l10.1-8.916L12.934,7.855z
	 M4.686,6.363L3.001,4.679l1.414-1.414L6.1,4.949L5.746,6.01L4.686,6.363z"/>
</svg>
