<?xml version="1.0" encoding="utf-8"?>
<!-- Generator: Adobe Illustrator 19.2.1, SVG Export Plug-In . SVG Version: 6.00 Build 0)  -->
<!DOCTYPE svg PUBLIC "-//W3C//DTD SVG 1.1//EN" "http://www.w3.org/Graphics/SVG/1.1/DTD/svg11.dtd">
<svg version="1.1" id="Layer_1" xmlns="http://www.w3.org/2000/svg" xmlns:xlink="http://www.w3.org/1999/xlink" x="0px" y="0px"
	 width="24px" height="24px" viewBox="0 0 24 24" enable-background="new 0 0 24 24" xml:space="preserve">
<path d="M6,18h5.414L19,10.414L20.414,9l3-3L18,0.586l-3,3L13.586,5L6,12.586V18z M18,3.414L20.586,6L19,7.586L16.414,5L18,3.414z
	 M8,13.414l7-7L17.586,9l-7,7H8V13.414z"/>
<polygon points="0,24 20,24 20,14 18,14 18,22 2,22 2,6 10,6 10,4 0,4 "/>
</svg>
