<?xml version="1.0" encoding="utf-8"?>
<!-- Generator: Adobe Illustrator 19.2.1, SVG Export Plug-In . SVG Version: 6.00 Build 0)  -->
<!DOCTYPE svg PUBLIC "-//W3C//DTD SVG 1.1//EN" "http://www.w3.org/Graphics/SVG/1.1/DTD/svg11.dtd">
<svg version="1.1" id="Layer_1" xmlns="http://www.w3.org/2000/svg" xmlns:xlink="http://www.w3.org/1999/xlink" x="0px" y="0px"
	 width="24px" height="24px" viewBox="0 0 24 24" enable-background="new 0 0 24 24" xml:space="preserve">
<polygon points="2,4 8,4 8,2 0,2 0,10 2,10 "/>
<polygon points="16,4 22,4 22,10 24,10 24,2 16,2 "/>
<polygon points="22,20 16,20 16,22 24,22 24,14 22,14 "/>
<polygon points="8,20 2,20 2,14 0,14 0,22 8,22 "/>
<path d="M20,6H4v12h16V6z M18,16H6V8h12V16z"/>
</svg>
