<?xml version="1.0" encoding="utf-8"?>
<!-- Generator: Adobe Illustrator 19.2.1, SVG Export Plug-In . SVG Version: 6.00 Build 0)  -->
<!DOCTYPE svg PUBLIC "-//W3C//DTD SVG 1.1//EN" "http://www.w3.org/Graphics/SVG/1.1/DTD/svg11.dtd">
<svg version="1.1" id="Layer_1" xmlns="http://www.w3.org/2000/svg" xmlns:xlink="http://www.w3.org/1999/xlink" x="0px" y="0px"
	 width="24px" height="24px" viewBox="0 0 24 24" enable-background="new 0 0 24 24" xml:space="preserve">
<path d="M12,24c6.617,0,12-5.383,12-12S18.617,0,12,0S0,5.383,0,12S5.383,24,12,24z M12,2c5.514,0,10,4.486,10,10s-4.486,10-10,10
	S2,17.514,2,12S6.486,2,12,2z"/>
<path d="M9,12c0,1.654,1.346,3,3,3s3-1.346,3-3s-1.346-3-3-3c-0.462,0-0.894,0.114-1.286,0.301L7,5.586L5.586,7L9.3,10.715
	C9.113,11.106,9,11.538,9,12z M13,12c0,0.551-0.448,1-1,1s-1-0.449-1-1c0-0.265,0.108-0.503,0.277-0.683l0.041-0.041
	C11.496,11.108,11.735,11,12,11C12.552,11,13,11.449,13,12z"/>
<rect x="11" y="4" width="2" height="3"/>
<rect x="15.096" y="6.404" transform="matrix(0.7076 -0.7066 0.7066 0.7076 -0.3789 13.8921)" width="3" height="2"/>
<rect x="17" y="11" width="3" height="2"/>
<rect x="4" y="11" width="3" height="2"/>
</svg>
