<?xml version="1.0" encoding="utf-8"?>
<!-- Generator: Adobe Illustrator 19.2.1, SVG Export Plug-In . SVG Version: 6.00 Build 0)  -->
<!DOCTYPE svg PUBLIC "-//W3C//DTD SVG 1.1//EN" "http://www.w3.org/Graphics/SVG/1.1/DTD/svg11.dtd">
<svg version="1.1" id="Layer_1" xmlns="http://www.w3.org/2000/svg" xmlns:xlink="http://www.w3.org/1999/xlink" x="0px" y="0px"
	 width="24px" height="24px" viewBox="0 0 24 24" enable-background="new 0 0 24 24" xml:space="preserve">
<path d="M12,0C7.589,0,4,3.589,4,8v5c0,3.628-1.815,6.419-1.832,6.445L1.131,21h7.011c0.447,1.721,2,3,3.858,3s3.411-1.279,3.858-3
	h7.011l-1.037-1.555C21.814,19.418,20,16.655,20,13V8C20,3.589,16.411,0,12,0z M12,22c-0.737,0-1.375-0.405-1.722-1h3.443
	C13.375,21.595,12.737,22,12,22z M16,19h-2h-4H8H4.662C5.274,17.646,6,15.513,6,13V8c0-3.309,2.691-6,6-6s6,2.691,6,6v5
	c0,2.513,0.726,4.646,1.338,6H16z"/>
</svg>
