<?xml version="1.0" encoding="utf-8"?>
<!-- Generator: Adobe Illustrator 19.2.1, SVG Export Plug-In . SVG Version: 6.00 Build 0)  -->
<!DOCTYPE svg PUBLIC "-//W3C//DTD SVG 1.1//EN" "http://www.w3.org/Graphics/SVG/1.1/DTD/svg11.dtd">
<svg version="1.1" id="Layer_1" xmlns="http://www.w3.org/2000/svg" xmlns:xlink="http://www.w3.org/1999/xlink" x="0px" y="0px"
	 width="24px" height="24px" viewBox="0 0 24 24" enable-background="new 0 0 24 24" xml:space="preserve">
<path d="M12,0C8.691,0,6,2.691,6,6v4.726C4.759,12.136,4,13.979,4,16c0,4.411,3.589,8,8,8s8-3.589,8-8c0-2.021-0.759-3.864-2-5.274
	V6C18,2.691,15.309,0,12,0z M12,2c2.206,0,4,1.794,4,4v3.082C14.822,8.398,13.458,8,12,8S9.178,8.398,8,9.082V6
	C8,3.794,9.794,2,12,2z M12,22c-3.309,0-6-2.691-6-6s2.691-6,6-6s6,2.691,6,6S15.309,22,12,22z"/>
<path d="M12,12c-1.654,0-3,1.346-3,3c0,1.302,0.839,2.402,2,2.816V20h2v-2.184c1.161-0.414,2-1.514,2-2.816
	C15,13.346,13.654,12,12,12z M12,16c-0.551,0-1-0.449-1-1s0.449-1,1-1s1,0.449,1,1S12.551,16,12,16z"/>
</svg>
