<?xml version="1.0" encoding="utf-8"?>
<!-- Generator: Adobe Illustrator 19.2.1, SVG Export Plug-In . SVG Version: 6.00 Build 0)  -->
<!DOCTYPE svg PUBLIC "-//W3C//DTD SVG 1.1//EN" "http://www.w3.org/Graphics/SVG/1.1/DTD/svg11.dtd">
<svg version="1.1" id="Layer_1" xmlns="http://www.w3.org/2000/svg" xmlns:xlink="http://www.w3.org/1999/xlink" x="0px" y="0px"
	 width="24px" height="24px" viewBox="0 0 24 24" enable-background="new 0 0 24 24" xml:space="preserve">
<path d="M0,24h24V0H0V24z M2,2h20v20H2V2z"/>
<path d="M12,6c-1.51,0-3.07,1.06-3.708,2.521l-0.4,0.916l1.833,0.801l0.401-0.917C10.408,8.672,11.188,8,12,8c1.065,0,2,0.935,2,2
	s-0.935,2-2,2h-1v3h2v-1.132c1.703-0.457,3-2.043,3-3.868C16,7.832,14.168,6,12,6z"/>
<rect x="11" y="16" width="2" height="3"/>
</svg>
