<?xml version="1.0" encoding="utf-8"?>
<!-- Generator: Adobe Illustrator 19.2.1, SVG Export Plug-In . SVG Version: 6.00 Build 0)  -->
<!DOCTYPE svg PUBLIC "-//W3C//DTD SVG 1.1//EN" "http://www.w3.org/Graphics/SVG/1.1/DTD/svg11.dtd">
<svg version="1.1" id="Layer_1" xmlns="http://www.w3.org/2000/svg" xmlns:xlink="http://www.w3.org/1999/xlink" x="0px" y="0px"
	 width="24px" height="24px" viewBox="0 0 24 24" enable-background="new 0 0 24 24" xml:space="preserve">
<path d="M12,11c-0.462,0-0.894,0.113-1.285,0.301L7.707,8.293L6.293,9.707l3.008,3.008C9.113,13.106,9,13.538,9,14
	c0,1.654,1.346,3,3,3s3-1.346,3-3S13.654,11,12,11z M12,15c-0.551,0-1-0.449-1-1s0.449-1,1-1s1,0.449,1,1S12.551,15,12,15z"/>
<path d="M12,2C5.383,2,0,7.383,0,14c0,2.783,0.975,5.495,2.744,7.637L3.043,22h17.913l0.3-0.363C23.025,19.495,24,16.783,24,14
	C24,7.383,18.617,2,12,2z M20,20H4c-1.092-1.456-1.76-3.192-1.943-5H4v-2H2.051C2.521,8.283,6.283,4.521,11,4.051V6h2V4.051
	c2.008,0.2,3.842,0.998,5.324,2.211L16.95,7.636l1.414,1.414l1.375-1.375c1.213,1.482,2.011,3.316,2.211,5.324H20v2h1.944
	C21.761,16.808,21.093,18.544,20,20z"/>
</svg>
