<?xml version="1.0" encoding="utf-8"?>
<!-- Generator: Adobe Illustrator 19.2.1, SVG Export Plug-In . SVG Version: 6.00 Build 0)  -->
<!DOCTYPE svg PUBLIC "-//W3C//DTD SVG 1.1//EN" "http://www.w3.org/Graphics/SVG/1.1/DTD/svg11.dtd">
<svg version="1.1" id="Layer_1" xmlns="http://www.w3.org/2000/svg" xmlns:xlink="http://www.w3.org/1999/xlink" x="0px" y="0px"
	 width="24px" height="24px" viewBox="0 0 24 24" enable-background="new 0 0 24 24" xml:space="preserve">
<path d="M12,24c4.424,0,9-3.366,9-9c0-5.289-7.952-13.363-8.29-13.705L12,0.58l-0.71,0.715C10.952,1.637,3,9.711,3,15
	C3,20.634,7.576,24,12,24z M12,3.445c2.459,2.638,7,8.202,7,11.555c0,4.382-3.559,7-7,7s-7-2.618-7-7C5,11.65,9.542,6.084,12,3.445z
	"/>
<path d="M12,19h1v-2h-1c-0.02,0-2-0.054-2-2v-1H8v1C8,17.914,10.454,19,12,19z"/>
</svg>
