<?xml version="1.0" encoding="utf-8"?>
<!-- Generator: Adobe Illustrator 19.2.1, SVG Export Plug-In . SVG Version: 6.00 Build 0)  -->
<!DOCTYPE svg PUBLIC "-//W3C//DTD SVG 1.1//EN" "http://www.w3.org/Graphics/SVG/1.1/DTD/svg11.dtd">
<svg version="1.1" id="Layer_1" xmlns="http://www.w3.org/2000/svg" xmlns:xlink="http://www.w3.org/1999/xlink" x="0px" y="0px"
	 width="24px" height="24px" viewBox="0 0 24 24" enable-background="new 0 0 24 24" xml:space="preserve">
<path d="M5,1H0v4v2v16h24V7V5V1H7H5z M2,3h3v2H2V3z M22,21H2V7h3h2h15V21z M22,3v2H7V3H22z"/>
<polygon points="11,18 13,18 13,15 16,15 16,13 13,13 13,10 11,10 11,13 8,13 8,15 11,15 "/>
</svg>
