<?xml version="1.0" encoding="utf-8"?>
<!-- Generator: Adobe Illustrator 19.2.1, SVG Export Plug-In . SVG Version: 6.00 Build 0)  -->
<!DOCTYPE svg PUBLIC "-//W3C//DTD SVG 1.1//EN" "http://www.w3.org/Graphics/SVG/1.1/DTD/svg11.dtd">
<svg version="1.1" id="Layer_1" xmlns="http://www.w3.org/2000/svg" xmlns:xlink="http://www.w3.org/1999/xlink" x="0px" y="0px"
	 width="24px" height="24px" viewBox="0 0 24 24" enable-background="new 0 0 24 24" xml:space="preserve">
<path d="M21,9h-0.522c-0.105-0.298-0.226-0.59-0.361-0.874l0.369-0.369c0.566-0.566,0.878-1.319,0.878-2.121
	c0-0.801-0.312-1.555-0.878-2.121c-1.17-1.17-3.074-1.171-4.243,0l-0.369,0.369C15.589,3.749,15.297,3.628,15,3.522V3
	c0-1.654-1.346-3-3-3S9,1.346,9,3v0.522C8.703,3.628,8.411,3.749,8.127,3.884l-0.37-0.369c-1.169-1.17-3.072-1.171-4.243,0
	c-0.566,0.566-0.878,1.32-0.878,2.121c0,0.802,0.312,1.555,0.878,2.121l0.37,0.369C3.749,8.41,3.628,8.702,3.522,9H3
	c-1.654,0-3,1.346-3,3s1.346,3,3,3h0.522c0.105,0.298,0.226,0.59,0.361,0.874l-0.369,0.369c-1.17,1.17-1.17,3.072,0,4.242
	s3.073,1.169,4.243,0l0.369-0.369C8.411,20.251,8.703,20.372,9,20.478V21c0,1.654,1.346,3,3,3s3-1.346,3-3v-0.522
	c0.297-0.105,0.589-0.227,0.873-0.361l0.37,0.369c1.168,1.169,3.072,1.17,4.243,0c0.566-0.566,0.878-1.32,0.878-2.121
	c0-0.802-0.312-1.555-0.878-2.121l-0.37-0.369c0.135-0.284,0.256-0.576,0.361-0.874H21c1.654,0,3-1.346,3-3S22.654,9,21,9z M21,13
	h-2.037l-0.193,0.75c-0.164,0.635-0.414,1.24-0.744,1.799l-0.395,0.668l1.44,1.44c0.189,0.188,0.292,0.439,0.292,0.707
	c0,0.267-0.104,0.519-0.292,0.707c-0.389,0.389-1.025,0.391-1.414,0l-1.44-1.44l-0.667,0.394c-0.56,0.331-1.166,0.582-1.8,0.746
	L13,18.964V21c0,0.552-0.449,1-1,1s-1-0.448-1-1v-2.036l-0.75-0.193c-0.634-0.164-1.24-0.415-1.8-0.746l-0.667-0.394l-1.44,1.44
	c-0.39,0.391-1.025,0.391-1.415,0c-0.39-0.39-0.39-1.024,0-1.414l1.44-1.44l-0.395-0.668c-0.33-0.559-0.58-1.164-0.744-1.799
	L5.037,13H3c-0.551,0-1-0.448-1-1s0.449-1,1-1h2.037l0.193-0.75c0.164-0.635,0.414-1.24,0.744-1.799l0.395-0.668l-1.44-1.44
	C4.74,6.154,4.636,5.903,4.636,5.636c0-0.267,0.104-0.519,0.292-0.707c0.39-0.389,1.025-0.391,1.414,0l1.44,1.44l0.667-0.394
	c0.56-0.331,1.166-0.582,1.8-0.746L11,5.036V3c0-0.552,0.449-1,1-1s1,0.448,1,1v2.036l0.75,0.193c0.634,0.164,1.24,0.415,1.8,0.746
	l0.667,0.394l1.44-1.44c0.39-0.392,1.024-0.391,1.414,0c0.189,0.188,0.293,0.44,0.293,0.707c0,0.268-0.104,0.519-0.293,0.707
	l-1.44,1.44l0.395,0.668c0.33,0.559,0.58,1.164,0.744,1.799L18.963,11H21c0.551,0,1,0.448,1,1S21.551,13,21,13z"/>
<path d="M12,8c-2.206,0-4,1.794-4,4s1.794,4,4,4s4-1.794,4-4S14.206,8,12,8z M12,14c-1.103,0-2-0.897-2-2s0.897-2,2-2s2,0.897,2,2
	S13.103,14,12,14z"/>
</svg>
