<?xml version="1.0" encoding="utf-8"?>
<!-- Generator: Adobe Illustrator 19.2.1, SVG Export Plug-In . SVG Version: 6.00 Build 0)  -->
<!DOCTYPE svg PUBLIC "-//W3C//DTD SVG 1.1//EN" "http://www.w3.org/Graphics/SVG/1.1/DTD/svg11.dtd">
<svg version="1.1" id="Layer_1" xmlns="http://www.w3.org/2000/svg" xmlns:xlink="http://www.w3.org/1999/xlink" x="0px" y="0px"
	 width="24px" height="24px" viewBox="0 0 24 24" enable-background="new 0 0 24 24" xml:space="preserve">
<polygon fill="#222221" points="5,8.586 0.586,13 5,17.414 6.414,16 4.414,14 14,14 14,12 4.414,12 6.414,10 "/>
<polygon fill="#222221" points="19,0 17,0 17,2 11,2 11,0 9,0 9,2 4,2 4,7 6,7 6,4 9,4 9,6 11,6 11,4 17,4 17,6 19,6 19,4 22,4 
	22,22 6,22 6,19 4,19 4,24 24,24 24,2 19,2 "/>
</svg>
