<?xml version="1.0" encoding="utf-8"?>
<!-- Generator: Adobe Illustrator 19.2.1, SVG Export Plug-In . SVG Version: 6.00 Build 0)  -->
<!DOCTYPE svg PUBLIC "-//W3C//DTD SVG 1.1//EN" "http://www.w3.org/Graphics/SVG/1.1/DTD/svg11.dtd">
<svg version="1.1" id="Layer_1" xmlns="http://www.w3.org/2000/svg" xmlns:xlink="http://www.w3.org/1999/xlink" x="0px" y="0px"
	 width="24px" height="24px" viewBox="0 0 24 24" enable-background="new 0 0 24 24" xml:space="preserve">
<rect x="13" y="3" width="11" height="2"/>
<rect x="21" y="11" width="3" height="2"/>
<rect x="13" y="19" width="11" height="2"/>
<path d="M7,8c2.206,0,4-1.794,4-4S9.206,0,7,0C5.142,0,3.589,1.28,3.142,3H0v2h3.142C3.589,6.72,5.142,8,7,8z M7,2
	c1.103,0,2,0.897,2,2S8.103,6,7,6S5,5.103,5,4S5.897,2,7,2z"/>
<path d="M15,16c2.206,0,4-1.794,4-4s-1.794-4-4-4c-1.858,0-3.411,1.28-3.858,3H0v2h11.142C11.589,14.72,13.142,16,15,16z M15,10
	c1.103,0,2,0.897,2,2s-0.897,2-2,2s-2-0.897-2-2S13.897,10,15,10z"/>
<path d="M7,24c2.206,0,4-1.794,4-4s-1.794-4-4-4c-1.858,0-3.411,1.28-3.858,3H0v2h3.142C3.589,22.72,5.142,24,7,24z M7,18
	c1.103,0,2,0.897,2,2s-0.897,2-2,2s-2-0.897-2-2S5.897,18,7,18z"/>
</svg>
