<?xml version="1.0" encoding="utf-8"?>
<!-- Generator: Adobe Illustrator 19.2.1, SVG Export Plug-In . SVG Version: 6.00 Build 0)  -->
<!DOCTYPE svg PUBLIC "-//W3C//DTD SVG 1.1//EN" "http://www.w3.org/Graphics/SVG/1.1/DTD/svg11.dtd">
<svg version="1.1" id="Layer_1" xmlns="http://www.w3.org/2000/svg" xmlns:xlink="http://www.w3.org/1999/xlink" x="0px" y="0px"
	 width="24px" height="24px" viewBox="0 0 24 24" enable-background="new 0 0 24 24" xml:space="preserve">
<polygon fill="#222221" points="19,17.414 23.414,13 19,8.586 17.586,10 19.586,12 10,12 10,14 19.586,14 17.586,16 "/>
<polygon fill="#222221" points="20,19 18,19 18,22 2,22 2,4 5,4 5,6 7,6 7,4 13,4 13,6 15,6 15,4 18,4 18,7 20,7 20,2 15,2 15,0 
	13,0 13,2 7,2 7,0 5,0 5,2 0,2 0,24 20,24 "/>
</svg>
