<?xml version="1.0" encoding="utf-8"?>
<!-- Generator: Adobe Illustrator 19.2.1, SVG Export Plug-In . SVG Version: 6.00 Build 0)  -->
<!DOCTYPE svg PUBLIC "-//W3C//DTD SVG 1.1//EN" "http://www.w3.org/Graphics/SVG/1.1/DTD/svg11.dtd">
<svg version="1.1" id="Layer_1" xmlns="http://www.w3.org/2000/svg" xmlns:xlink="http://www.w3.org/1999/xlink" x="0px" y="0px"
	 width="24px" height="24px" viewBox="0 0 24 24" enable-background="new 0 0 24 24" xml:space="preserve">
<path fill="#222221" d="M6.411,2L0.856,12l5.555,10h11.178l5.555-10L17.589,2H6.411z M16.411,20H7.589l-4.445-8l4.445-8h8.822
	l4.445,8L16.411,20z"/>
<path fill="#222221" d="M12,7c-2.757,0-5,2.243-5,5s2.243,5,5,5s5-2.243,5-5S14.757,7,12,7z M12,15c-1.654,0-3-1.346-3-3
	s1.346-3,3-3s3,1.346,3,3S13.654,15,12,15z"/>
</svg>
