<?xml version="1.0" encoding="utf-8"?>
<!-- Generator: Adobe Illustrator 19.2.1, SVG Export Plug-In . SVG Version: 6.00 Build 0)  -->
<!DOCTYPE svg PUBLIC "-//W3C//DTD SVG 1.1//EN" "http://www.w3.org/Graphics/SVG/1.1/DTD/svg11.dtd">
<svg version="1.1" id="Layer_1" xmlns="http://www.w3.org/2000/svg" xmlns:xlink="http://www.w3.org/1999/xlink" x="0px" y="0px"
	 width="24px" height="24px" viewBox="0 0 24 24" enable-background="new 0 0 24 24" xml:space="preserve">
<path d="M19,14c-1.049,0-2.021,0.328-2.826,0.882L13,12.5V9.899C15.279,9.434,17,7.414,17,5c0-2.757-2.243-5-5-5S7,2.243,7,5
	c0,2.414,1.721,4.434,4,4.899V12.5l-3.174,2.382C7.021,14.328,6.049,14,5,14c-2.757,0-5,2.243-5,5s2.243,5,5,5s5-2.243,5-5
	c0-0.98-0.294-1.888-0.783-2.661L12,14.25l2.783,2.089C14.294,17.112,14,18.02,14,19c0,2.757,2.243,5,5,5s5-2.243,5-5
	S21.757,14,19,14z M5,22c-1.654,0-3-1.346-3-3s1.346-3,3-3s3,1.346,3,3S6.654,22,5,22z M9,5c0-1.654,1.346-3,3-3s3,1.346,3,3
	s-1.346,3-3,3S9,6.654,9,5z M19,22c-1.654,0-3-1.346-3-3s1.346-3,3-3s3,1.346,3,3S20.654,22,19,22z"/>
</svg>
