<?xml version="1.0" encoding="utf-8"?>
<!-- Generator: Adobe Illustrator 19.1.0, SVG Export Plug-In . SVG Version: 6.00 Build 0)  -->
<!DOCTYPE svg PUBLIC "-//W3C//DTD SVG 1.1//EN" "http://www.w3.org/Graphics/SVG/1.1/DTD/svg11.dtd">
<svg version="1.1" id="Layer_1" xmlns="http://www.w3.org/2000/svg" xmlns:xlink="http://www.w3.org/1999/xlink" x="0px" y="0px"
	 width="48px" height="48px" viewBox="0 0 48 48" enable-background="new 0 0 48 48" xml:space="preserve">
<path data-color="color-2" fill="#444444" d="M15,9h2v2h6V9h2v2h6V9h2v2h8V6c0-2.7568359-2.2431641-5-5-5H12C9.2431641,1,7,3.2431641,7,6
	v5h8V9z"/>
<path fill="#444444" d="M45,17c-0.5527344,0-1,0.4472656-1,1v3h-3v-8h-8v2h-2v-2h-6v2h-2v-2h-6v2h-2v-2H7v8H4v-3
	c0-0.5527344-0.4472656-1-1-1s-1,0.4472656-1,1v8c0,0.5527344,0.4472656,1,1,1s1-0.4472656,1-1v-3h3v7
	c0,9.3740234,7.6259766,17,17,17s17-7.6259766,17-17v-7h3v3c0,0.5527344,0.4472656,1,1,1s1-0.4472656,1-1v-8
	C46,17.4472656,45.5527344,17,45,17z M16,26c0-1.1046143,0.8954468-2,2-2s2,0.8953857,2,2c0,1.1045532-0.8954468,2-2,2
	S16,27.1045532,16,26z M26,39h-4c-1.6568604,0-3-1.3431396-3-3s1.3431396-3,3-3h4c1.6568604,0,3,1.3431396,3,3S27.6568604,39,26,39z
	 M30,28c-1.1045532,0-2-0.8954468-2-2c0-1.1046143,0.8954468-2,2-2s2,0.8953857,2,2C32,27.1045532,31.1045532,28,30,28z"/>
</svg>
