<?xml version="1.0" encoding="utf-8"?>
<!-- Generator: Adobe Illustrator 19.1.0, SVG Export Plug-In . SVG Version: 6.00 Build 0)  -->
<!DOCTYPE svg PUBLIC "-//W3C//DTD SVG 1.1//EN" "http://www.w3.org/Graphics/SVG/1.1/DTD/svg11.dtd">
<svg version="1.1" id="Layer_1" xmlns="http://www.w3.org/2000/svg" xmlns:xlink="http://www.w3.org/1999/xlink" x="0px" y="0px"
	 width="48px" height="48px" viewBox="0 0 48 48" enable-background="new 0 0 48 48" xml:space="preserve">
<rect x="15" y="42" fill="#444444" width="14" height="2"/>
<path data-color="color-2" fill="#444444" d="M46,40c-0.5527344,0-1,0.4477539-1,1c0,1.6542969-1.3457031,3-3,3H31v-2h-2v2H15v-2h-2v2H2
	c-0.5527344,0-1,0.4477539-1,1s0.4472656,1,1,1h40c2.7568359,0,5-2.2431641,5-5C47,40.4477539,46.5527344,40,46,40z"/>
<path fill="#444444" d="M38,40c0.5527344,0,1-0.4477539,1-1v-6c0-3.8598633-3.140625-7-7-7h-5v-4h-6v-2h6v-4h-6v-2h6v-4h-6V8h6V3
	c0-0.5522461-0.4472656-1-1-1H6C5.4472656,2,5,2.4477539,5,3v36c0,0.5522461,0.4472656,1,1,1H38z"/>
</svg>
