<?xml version="1.0" encoding="utf-8"?>
<!-- Generator: Adobe Illustrator 19.1.0, SVG Export Plug-In . SVG Version: 6.00 Build 0)  -->
<!DOCTYPE svg PUBLIC "-//W3C//DTD SVG 1.1//EN" "http://www.w3.org/Graphics/SVG/1.1/DTD/svg11.dtd">
<svg version="1.1" id="Layer_1" xmlns="http://www.w3.org/2000/svg" xmlns:xlink="http://www.w3.org/1999/xlink" x="0px" y="0px"
	 width="48px" height="48px" viewBox="0 0 48 48" enable-background="new 0 0 48 48" xml:space="preserve">
<path data-color="color-2" fill="#444444" d="M46,45h-8v-8c0-0.5527344-0.4477539-1-1-1h-3l-4,5l-4-5H13c-0.5522461,0-1,0.4472656-1,1v8H2
	c-0.5522461,0-1,0.4472656-1,1s0.4477539,1,1,1h44c0.5522461,0,1-0.4472656,1-1S46.5522461,45,46,45z"/>
<path fill="#444444" d="M15,27.2999878V34h11.9614258L30,37.7988281L33.0385742,34H35V7.5C35,6.1192627,33.8807373,5,32.5,5
	S30,6.1192627,30,7.5v-3C30,3.0999756,28.9000244,2,27.5,2S25,3.0999756,25,4.5v-1C25,2.0999756,23.9000244,1,22.5,1
	S20,2.0999756,20,3.5v2C20,4.1192627,18.8807373,3,17.5,3S15,4.1192627,15,5.5v13.3999634l-1.7999878-1.7999878
	c-1.1000366-1.2000122-3-1.2000122-4.2000122,0c-1.2000122,1.1000366-1.2000122,3,0,4.2000122L15,27.2999878z"/>
</svg>
