<?xml version="1.0" encoding="utf-8"?>
<!-- Generator: Adobe Illustrator 19.1.0, SVG Export Plug-In . SVG Version: 6.00 Build 0)  -->
<!DOCTYPE svg PUBLIC "-//W3C//DTD SVG 1.1//EN" "http://www.w3.org/Graphics/SVG/1.1/DTD/svg11.dtd">
<svg version="1.1" id="Layer_1" xmlns="http://www.w3.org/2000/svg" xmlns:xlink="http://www.w3.org/1999/xlink" x="0px" y="0px"
	 width="48px" height="48px" viewBox="0 0 48 48" enable-background="new 0 0 48 48" xml:space="preserve">
<circle data-color="color-2" fill="#444444" cx="14" cy="20" r="2"/>
<circle data-color="color-2" fill="#444444" cx="34" cy="20" r="2"/>
<path fill="#444444" d="M47,9h-7.5170898C35.9150391,3.984375,30.1721191,1,24,1S12.0849609,3.984375,8.5170898,9H1v1
	c0,2.4778442,1.0110474,4.7182007,2.6377563,6.3442383C3.2321777,17.4900513,3,18.71698,3,20
	c0,3.5159912,1.6643677,6.644043,4.2397461,8.6591187C5.2489014,30.4839478,4,33.081665,4,36
	c0,2.2618408,0.7791748,4.324707,2.0452881,6c1.7720337-2.3448486,4.4766235-3.8613281,7.5603638-3.9822998
	C17.4907227,42.8955078,21.8381958,47,24,47s6.5092773-4.1044922,10.3943481-8.9822998
	C37.4780884,38.1386719,40.1826782,39.6551514,41.9547119,42C43.2208252,40.324707,44,38.2618408,44,36
	c0-2.918335-1.2489014-5.5160522-3.2397461-7.3408813C43.3356323,26.644043,45,23.5159912,45,20
	c0-1.28302-0.2321777-2.5099487-0.6377563-3.6557617C45.9889526,14.7182007,47,12.4778442,47,10V9z M14,29
	c-4.9624023,0-9-4.0371094-9-9s4.0375977-9,9-9s9,4.0371094,9,9S18.9624023,29,14,29z M24,34c-1.1045532,0-2-2.8954468-2-4
	c0-1.1046143,0.8954468-2,2-2s2,0.8953857,2,2C26,31.1045532,25.1045532,34,24,34z M34,29c-4.9624023,0-9-4.0371094-9-9
	s4.0375977-9,9-9s9,4.0371094,9,9S38.9624023,29,34,29z"/>
</svg>
