<?xml version="1.0" encoding="utf-8"?>
<!-- Generator: Adobe Illustrator 19.1.0, SVG Export Plug-In . SVG Version: 6.00 Build 0)  -->
<!DOCTYPE svg PUBLIC "-//W3C//DTD SVG 1.1//EN" "http://www.w3.org/Graphics/SVG/1.1/DTD/svg11.dtd">
<svg version="1.1" id="Layer_1" xmlns="http://www.w3.org/2000/svg" xmlns:xlink="http://www.w3.org/1999/xlink" x="0px" y="0px"
	 width="48px" height="48px" viewBox="0 0 48 48" enable-background="new 0 0 48 48" xml:space="preserve">
<path data-color="color-2" fill="#444444" d="M34,21H3c-0.5522461,0-1,0.4477539-1,1v7c0,0.5522461,0.4477539,1,1,1h31
	c0.5522461,0,1-0.4477539,1-1v-7C35,21.4477539,34.5522461,21,34,21z"/>
<path data-color="color-2" fill="#444444" d="M40,36c-3.3085938,0-6,2.6914062-6,6s2.6914062,6,6,6s6-2.6914062,6-6S43.3085938,36,40,36z"
	/>
<path fill="#444444" d="M37,34.5889893C37.9274292,34.2121582,38.9388428,34,40,34s2.0725708,0.2121582,3,0.5889893v-13.660717
	c0-9.6006498-6.7776527-18.0738068-16.2469234-19.6566525C15.7242975-0.5719053,5.6609488,7.1890907,4.2138672,17.8657227
	c-0.0390625,0.2861328,0.0478516,0.574707,0.237793,0.7919922C4.6416016,18.8754883,4.9160156,19,5.2045898,19H35
	c1.1045685,0,2,0.8954296,2,2V34.5889893z"/>
</svg>
