<?xml version="1.0" encoding="utf-8"?>
<!-- Generator: Adobe Illustrator 19.1.0, SVG Export Plug-In . SVG Version: 6.00 Build 0)  -->
<!DOCTYPE svg PUBLIC "-//W3C//DTD SVG 1.1//EN" "http://www.w3.org/Graphics/SVG/1.1/DTD/svg11.dtd">
<svg version="1.1" id="Layer_1" xmlns="http://www.w3.org/2000/svg" xmlns:xlink="http://www.w3.org/1999/xlink" x="0px" y="0px"
	 width="48px" height="48px" viewBox="0 0 48 48" enable-background="new 0 0 48 48" xml:space="preserve">
<path data-color="color-2" fill="#444444" d="M47,41H1v5c0,0.5522842,0.4477153,1,1,1h44c0.5522842,0,1-0.4477158,1-1V41z"/>
<path fill="#444444" d="M23.1123047,1.0167847C10.6660767,1.4876709,1,12.1086426,1,24.5637817V39h22v-5h-6
	c-0.3579102,0-0.6889648-0.1914062-0.8671875-0.5019531s-0.1772461-0.6923828,0.003418-1.0019531l7-12
	c0.3583984-0.6142578,1.3691406-0.6142578,1.7275391,0l7,12c0.1806641,0.3095703,0.1816406,0.6914062,0.003418,1.0019531
	S31.3579102,34,31,34h-6v5h22V24C47,11.0231934,36.1970825,0.5217896,23.1123047,1.0167847z M13,24c0,0.5522461-0.4477539,1-1,1
	s-1-0.4477539-1-1v-2c0-0.5522461,0.4477539-1,1-1s1,0.4477539,1,1V24z M22,12c0,0.5522461-0.4477539,1-1,1s-1-0.4477539-1-1v-2
	c0-0.5522461,0.4477539-1,1-1s1,0.4477539,1,1V12z M35,19c0,0.5522461-0.4477539,1-1,1s-1-0.4477539-1-1v-2
	c0-0.5522461,0.4477539-1,1-1s1,0.4477539,1,1V19z"/>
</svg>
