<?xml version="1.0" encoding="utf-8"?>
<!-- Generator: Adobe Illustrator 19.1.0, SVG Export Plug-In . SVG Version: 6.00 Build 0)  -->
<!DOCTYPE svg PUBLIC "-//W3C//DTD SVG 1.1//EN" "http://www.w3.org/Graphics/SVG/1.1/DTD/svg11.dtd">
<svg version="1.1" id="Layer_1" xmlns="http://www.w3.org/2000/svg" xmlns:xlink="http://www.w3.org/1999/xlink" x="0px" y="0px"
	 width="48px" height="48px" viewBox="0 0 48 48" enable-background="new 0 0 48 48" xml:space="preserve">
<path fill="#444444" d="M40,8c0-3.3137207-2.6862793-6-6-6s-6,2.6862793-6,6c0,1.6568604,0.6715088,3.1569824,1.7573242,4.2426758
	L12.2426758,29.7573242C11.1568604,28.6715088,9.6568604,28,8,28c-3.3137207,0-6,2.6862793-6,6s2.6862793,6,6,6
	c0,3.3137207,2.6862793,6,6,6s6-2.6862793,6-6c0-1.6568604-0.6715088-3.1568604-1.7573242-4.2426758l17.5146484-17.5146484
	C36.8430176,19.3284912,38.3431396,20,40,20c3.3137207,0,6-2.6862793,6-6S43.3137207,8,40,8z"/>
<path data-color="color-2" fill="#444444" d="M40,28c-1.6568604,0-3.1568604,0.6715088-4.2426758,1.7573242l-4.3432007-4.3432007
	l-5.9998779,6.0001221l4.3430786,4.3430786C28.6715088,36.8431396,28,38.3431396,28,40c0,3.3137207,2.6862793,6,6,6s6-2.6862793,6-6
	c3.3137207,0,6-2.6862793,6-6S43.3137207,28,40,28z"/>
<path data-color="color-2" fill="#444444" d="M8,20c1.6568604,0,3.1569824-0.6715088,4.2426758-1.7573242l4.3432007,4.3432007
	l5.9998779-6.0001221l-4.3430786-4.3430786C19.3284912,11.1569824,20,9.6568604,20,8c0-3.3137207-2.6862793-6-6-6S8,4.6862793,8,8
	c-3.3137207,0-6,2.6862793-6,6S4.6862793,20,8,20z"/>
</svg>
