<?xml version="1.0" encoding="utf-8"?>
<!-- Generator: Adobe Illustrator 19.1.0, SVG Export Plug-In . SVG Version: 6.00 Build 0)  -->
<!DOCTYPE svg PUBLIC "-//W3C//DTD SVG 1.1//EN" "http://www.w3.org/Graphics/SVG/1.1/DTD/svg11.dtd">
<svg version="1.1" id="Layer_1" xmlns="http://www.w3.org/2000/svg" xmlns:xlink="http://www.w3.org/1999/xlink" x="0px" y="0px"
	 width="48px" height="48px" viewBox="0 0 48 48" enable-background="new 0 0 48 48" xml:space="preserve">
<path fill="#444444" d="M24,1C13.5234375,1,5,9.5234375,5,20v24c0,0.3691406,0.203125,0.7080078,0.5283203,0.8818359
	c0.3232422,0.1738281,0.7182617,0.1542969,1.0263672-0.0498047l5.3789062-3.5859375l5.4262695,4.5224609
	c0.3710938,0.3085938,0.9091797,0.3085938,1.2802734,0L24,41.3017578l5.3598633,4.4667969
	C29.5454102,45.9228516,29.7724609,46,30,46s0.4545898-0.0771484,0.6401367-0.2314453l5.4262695-4.5224609l5.3789062,3.5859375
	c0.3071289,0.2041016,0.7016602,0.2236328,1.0263672,0.0498047C42.796875,44.7080078,43,44.3691406,43,44V20
	C43,9.5234375,34.4765625,1,24,1z M17,25c-1.6568604,0-3-1.3431396-3-3s1.3431396-3,3-3s3,1.3431396,3,3S18.6568604,25,17,25z
	 M31,25c-1.6568604,0-3-1.3431396-3-3s1.3431396-3,3-3s3,1.3431396,3,3S32.6568604,25,31,25z"/>
</svg>
