<?xml version="1.0" encoding="utf-8"?>
<!-- Generator: Adobe Illustrator 19.1.0, SVG Export Plug-In . SVG Version: 6.00 Build 0)  -->
<!DOCTYPE svg PUBLIC "-//W3C//DTD SVG 1.1//EN" "http://www.w3.org/Graphics/SVG/1.1/DTD/svg11.dtd">
<svg version="1.1" id="Layer_1" xmlns="http://www.w3.org/2000/svg" xmlns:xlink="http://www.w3.org/1999/xlink" x="0px" y="0px"
	 width="48px" height="48px" viewBox="0 0 48 48" enable-background="new 0 0 48 48" xml:space="preserve">
<path fill="#444444" d="M41.2787476,24C39.1051025,16.5022583,32.1890869,11,24,11S8.8948975,16.5022583,6.7212524,24H41.2787476z"
	/>
<path data-color="color-2" fill="#444444" d="M42,29c0-1.0241699-0.105835-2.0220947-0.2709351-3H6.2709351
	C6.105835,26.9779053,6,27.9758301,6,29s0.105835,2.0220947,0.2709351,3h35.4581299C41.894165,31.0220947,42,30.0241699,42,29z"/>
<path fill="#444444" d="M6.7212524,34C8.8948975,41.4977417,15.8109131,47,24,47s15.1051025-5.5022583,17.2787476-13H6.7212524z"/>
<path data-color="color-2" fill="#444444" d="M24,9c2.46521,0,4.8175049,0.4696655,7,1.2891235V6c0-0.5522461-0.4477539-1-1-1h-5V1h-2v4
	h-5c-0.5522461,0-1,0.4477539-1,1v4.2891235C19.1824951,9.4696655,21.53479,9,24,9z"/>
</svg>
