<?xml version="1.0" encoding="utf-8"?>
<!-- Generator: Adobe Illustrator 19.1.0, SVG Export Plug-In . SVG Version: 6.00 Build 0)  -->
<!DOCTYPE svg PUBLIC "-//W3C//DTD SVG 1.1//EN" "http://www.w3.org/Graphics/SVG/1.1/DTD/svg11.dtd">
<svg version="1.1" id="Layer_1" xmlns="http://www.w3.org/2000/svg" xmlns:xlink="http://www.w3.org/1999/xlink" x="0px" y="0px"
	 width="48px" height="48px" viewBox="0 0 48 48" enable-background="new 0 0 48 48" xml:space="preserve">
<path fill="#444444" d="M40.9365234,17.6484375l-6-16C34.7900391,1.2587891,34.4169922,1,34,1H14
	c-0.4169922,0-0.7900391,0.2587891-0.9365234,0.6484375l-6,16c-0.0673828,0.1796875-0.0810547,0.3740234-0.0410156,0.5615234l6,28
	C13.1210938,46.6708984,13.5283203,47,14,47h20c0.4716797,0,0.8789062-0.3291016,0.9775391-0.7900391l6-28
	C41.0175781,18.0224609,41.0039062,17.828125,40.9365234,17.6484375z M29,19h-4v8h-2v-8h-4v-2h4v-4h2v4h4V19z"/>
</svg>
