<?xml version="1.0" encoding="utf-8"?>
<!-- Generator: Adobe Illustrator 19.1.0, SVG Export Plug-In . SVG Version: 6.00 Build 0)  -->
<!DOCTYPE svg PUBLIC "-//W3C//DTD SVG 1.1//EN" "http://www.w3.org/Graphics/SVG/1.1/DTD/svg11.dtd">
<svg version="1.1" id="Layer_1" xmlns="http://www.w3.org/2000/svg" xmlns:xlink="http://www.w3.org/1999/xlink" x="0px" y="0px"
	 width="48px" height="48px" viewBox="0 0 48 48" enable-background="new 0 0 48 48" xml:space="preserve">
<circle data-color="color-2" fill="#444444" cx="18" cy="5" r="3"/>
<path fill="#444444" d="M41.2741699,42.067749C44.7549438,40.1514282,47,37.0325928,47,32
	c0-4.2099609-1.5766602-6.8583984-4-10.3164062V14c0-2.9990234-6.9367065-4.1836548-11.4922485-4.6403809
	C31.8170166,9.8314819,32,10.3936768,32,11c0,0.1431274-0.0227051,0.2800293-0.0421143,0.4178467
	c6.3933105,0.7095337,8.8947144,2.0556641,9.0440674,2.5635986c-0.0996094,0.3486328-1.9375,1.8095703-9.1118164,2.6035156
	C31.3833008,16.6416016,31,17.0693359,31,17.5791016V28c0,1.1025391-0.8969727,2-2,2s-2-0.8974609-2-2V17.9736328
	c0-0.5484619-0.4447632-1-1-1c-0.0083008,0-0.0166016,0-0.0244141,0c-7.9177856,0.2009888-18.9376831-1.243042-18.9775391-2.9560547
	C7.2944336,12.9648438,13.3950195,11,24,11c0.6832886,0,1.3397827,0.0231323,2.0040283,0.0400391l0.000061,0.0007324
	C26.0039062,11.0268555,26,11.0139771,26,11c0-0.7463379,0.2824707-1.4204102,0.7334595-1.9453735
	C25.8381958,9.024353,24.9321289,9,24,9c-7.0571289,0-19,1.0527344-19,5v7.6835938C2.5766602,25.1416016,1,27.7900391,1,32
	c0,5.0325928,2.2450562,8.1514282,5.7258301,10.067749L4.203125,45.3964844
	c-0.3334961,0.4394531-0.2470703,1.0673828,0.1928711,1.4003906C4.5766602,46.9335938,4.7885742,47,4.9990234,47
	c0.3027344,0,0.6010742-0.1367188,0.7978516-0.3964844l2.7832642-3.6726074C12.8668213,44.6296387,18.4614258,45,24,45
	s11.1331787-0.3703613,15.4198608-2.0690918l2.7832642,3.6726074C42.3999023,46.8632812,42.6982422,47,43.0009766,47
	c0.2104492,0,0.4223633-0.0664062,0.6030273-0.203125c0.4399414-0.3330078,0.5263672-0.9609375,0.1928711-1.4003906
	L41.2741699,42.067749z"/>
<circle data-color="color-2" fill="#444444" cx="29" cy="11" r="3"/>
</svg>
