<?xml version="1.0" encoding="utf-8"?>
<!-- Generator: Adobe Illustrator 19.1.0, SVG Export Plug-In . SVG Version: 6.00 Build 0)  -->
<!DOCTYPE svg PUBLIC "-//W3C//DTD SVG 1.1//EN" "http://www.w3.org/Graphics/SVG/1.1/DTD/svg11.dtd">
<svg version="1.1" id="Layer_1" xmlns="http://www.w3.org/2000/svg" xmlns:xlink="http://www.w3.org/1999/xlink" x="0px" y="0px"
	 width="48px" height="48px" viewBox="0 0 48 48" enable-background="new 0 0 48 48" xml:space="preserve">
<path data-color="color-2" fill="#444444" d="M37,9h-6V2c0-0.5522461-0.4477539-1-1-1H18c-0.5522461,0-1,0.4477539-1,1v7h-6v2h5.5319824
	C15.5498657,12.4680786,15,14.2017822,15,16c0,4.9624023,4.0375977,9,9,9s9-4.0375977,9-9
	c0-1.7984009-0.5496826-3.5321045-1.5317993-5H37V9z"/>
<path fill="#444444" d="M46.7905273,19.387207c-0.3388672-0.4365234-0.9682617-0.515625-1.4033203-0.1777344l-3.1362915,2.4312134
	l-1.2836304-4.8945923c-0.1396484-0.534668-0.6860352-0.8554688-1.2211914-0.7133789
	c-0.5341797,0.1401367-0.8535156,0.6865234-0.7133789,1.2211914l1.4997559,5.7188721l-3.0834351,2.3901978
	c-0.8619995-1.7478638-2.0662231-3.3168335-3.5407715-4.6170044C32.131958,24.4386597,28.3643799,27,24,27
	c-4.3627319,0-8.1290894-2.5593262-9.90625-6.2498169c-1.4766846,1.3052979-2.6824951,2.8781738-3.5449829,4.6281128
	L7.46521,22.9815063l1.5020752-5.7276001c0.1401367-0.534668-0.1791992-1.0810547-0.7133789-1.2211914
	c-0.5375977-0.1411133-1.0810547,0.1801758-1.2211914,0.7133789l-1.2850952,4.9002686l-3.1338501-2.4359131
	c-0.4360352-0.3388672-1.0644531-0.2612305-1.4033203,0.1757812c-0.3388672,0.4360352-0.2602539,1.0644531,0.1757812,1.4033203
	l8.3778687,6.512085C9.2677002,28.7991333,9,30.3823853,9,32c0,8.2709961,6.7290039,15,15,15s15-6.7290039,15-15
	c0-1.6245117-0.2683105-3.2131348-0.7661743-4.7142944l4.0437622-3.1346436l0.0005493-0.0003662l4.3346558-3.3601685
	C47.0493164,20.4521484,47.1289062,19.8237305,46.7905273,19.387207z"/>
</svg>
