<?xml version="1.0" encoding="utf-8"?>
<!-- Generator: Adobe Illustrator 19.1.0, SVG Export Plug-In . SVG Version: 6.00 Build 0)  -->
<!DOCTYPE svg PUBLIC "-//W3C//DTD SVG 1.1//EN" "http://www.w3.org/Graphics/SVG/1.1/DTD/svg11.dtd">
<svg version="1.1" id="Layer_1" xmlns="http://www.w3.org/2000/svg" xmlns:xlink="http://www.w3.org/1999/xlink" x="0px" y="0px"
	 width="48px" height="48px" viewBox="0 0 48 48" enable-background="new 0 0 48 48" xml:space="preserve">
<path data-color="color-2" fill="#444444" d="M26,10h-4l-4-4c0,0,0,8.2233887,0,10c0,3.3137207,2.6862793,6,6,6s6-2.6862793,6-6
	c0-1.7766113,0-10,0-10L26,10z"/>
<path fill="#444444" d="M38.5986328,5.2011719L37.0019531,4l-0.0048828,1.9980469
	C36.9883423,9.4562988,34.9851685,12.5478516,32,14.0350952V16c0,4.4111328-3.5888672,8-8,8s-8-3.5888672-8-8v-1.9649048
	c-2.9851685-1.4872437-4.9883423-4.5787964-4.9970703-8.0370483L10.9980469,4L9.4013672,5.2011719
	C4.0624886,9.2167969,1,15.3310547,1,21.9746094c0,3.8203125,1.0576172,7.5810547,3.0595703,10.8759766l0.5664062,0.9326172
	l0.8798828-0.6464844C7.4101562,31.7392578,9.65625,31,12,31c4.4091797,0,9.5117188,8.2636719,11.1054688,11.4472656L24,44.2333984
	l0.8945312-1.7861328C26.4882812,39.2636719,31.5908203,31,36,31c2.34375,0,4.5898438,0.7392578,6.4941406,2.1367188
	l0.8798828,0.6464844l0.5664062-0.9326172C45.9423828,29.5556641,47,25.7949219,47,21.9746094
	C47,15.3310547,43.9374886,9.2167969,38.5986328,5.2011719z"/>
</svg>
