<?xml version="1.0" encoding="utf-8"?>
<!-- Generator: Adobe Illustrator 19.1.0, SVG Export Plug-In . SVG Version: 6.00 Build 0)  -->
<!DOCTYPE svg PUBLIC "-//W3C//DTD SVG 1.1//EN" "http://www.w3.org/Graphics/SVG/1.1/DTD/svg11.dtd">
<svg version="1.1" id="Layer_1" xmlns="http://www.w3.org/2000/svg" xmlns:xlink="http://www.w3.org/1999/xlink" x="0px" y="0px"
	 width="64px" height="64px" viewBox="0 0 64 64" enable-background="new 0 0 64 64" xml:space="preserve">
<path d="M63,17c0-6.6-5.4-12-12-12c-5.5,0-10.3,3.8-11.6,9.1C37,13.4,34.6,13,32,13c-2.6,0-5,0.4-7.4,1.1C23.3,8.8,18.5,5,13,5
	C6.4,5,1,10.4,1,17c0,5.1,3.2,9.6,8,11.3c-1.3,3-2,6.3-2,9.7c0,13.8,11.2,25,25,25s25-11.2,25-25c0-3.4-0.7-6.7-2-9.7
	C59.8,26.6,63,22.1,63,17z M18,17.3C18,17.3,18,17.3,18,17.3c-1.9,1.3-3.7,2.9-5.1,4.7c0,0,0,0-0.1,0C10.1,21.9,8,19.7,8,17
	c0-2.8,2.2-5,5-5s5,2.2,5,5C18,17.1,18,17.2,18,17.3z M21,30c0-1.7,1.3-3,3-3s3,1.3,3,3s-1.3,3-3,3S21,31.7,21,30z M38,53H26
	c-0.6,0-1-0.4-1-1s0.4-1,1-1h5v-4.7l-3.8-5.7c-0.2-0.3-0.2-0.7,0-1c0.2-0.3,0.5-0.5,0.9-0.5h8c0.4,0,0.7,0.2,0.9,0.5
	c0.2,0.3,0.2,0.7,0,1L33,46.3V51h5c0.6,0,1,0.4,1,1S38.6,53,38,53z M40,33c-1.7,0-3-1.3-3-3s1.3-3,3-3s3,1.3,3,3S41.7,33,40,33z
	 M51.2,22C51.2,22,51.2,22,51.2,22c-1.5-1.8-3.3-3.4-5.2-4.7c0,0,0,0,0,0c0-0.1,0-0.2,0-0.3c0-2.8,2.2-5,5-5s5,2.2,5,5
	C56,19.7,53.9,21.9,51.2,22z"/>
</svg>
