<?xml version="1.0" encoding="utf-8"?>
<!-- Generator: Adobe Illustrator 19.1.0, SVG Export Plug-In . SVG Version: 6.00 Build 0)  -->
<!DOCTYPE svg PUBLIC "-//W3C//DTD SVG 1.1//EN" "http://www.w3.org/Graphics/SVG/1.1/DTD/svg11.dtd">
<svg version="1.1" id="Layer_1" xmlns="http://www.w3.org/2000/svg" xmlns:xlink="http://www.w3.org/1999/xlink" x="0px" y="0px"
	 width="64px" height="64px" viewBox="0 0 64 64" enable-background="new 0 0 64 64" xml:space="preserve">
<path d="M30.1,10.8c-7.8-2.2-16.1-0.1-22,5.7c-1.3,1.3-2.5,2.8-3.4,4.5c-0.2,0.4-0.2,0.9,0.2,1.2l7.2,7.2
	C15.5,24.1,21.4,16.7,30.1,10.8z"/>
<path d="M34.5,51.9l7.3,7.3c0.2,0.2,0.4,0.3,0.7,0.3c0.2,0,0.3,0,0.5-0.1c1.7-1,3.2-2.2,4.5-3.4c5.9-5.9,8-14.3,5.7-22.1
	C47.2,42.5,39.9,48.4,34.5,51.9z"/>
<path d="M13.9,50.1c-1.2-1.2-2.8-1.9-4.5-1.9c-1.7,0-3.3,0.7-4.5,1.9C2.6,52.4,3,59.2,3.1,60c0,0.5,0.4,0.9,0.9,0.9
	c0,0,0.8,0.1,2,0.1c4,0,6.7-0.6,8-1.9c1.2-1.2,1.9-2.8,1.9-4.5S15.1,51.3,13.9,50.1z"/>
<path d="M56.6,23.2c2.3-5.5,4-11.9,4.4-19.1c0-0.3-0.1-0.6-0.3-0.8C60.5,3.1,60.2,3,59.9,3c-7.3,0.4-13.7,2-19.2,4.3L56.6,23.2z"/>
<path d="M38.8,8.2C18,17.9,9.9,37.5,9.8,37.7c-0.1,0.4-0.1,0.8,0.2,1.1L25.2,54c0.2,0.2,0.4,0.3,0.7,0.3c0.1,0,0.3,0,0.4-0.1
	c0.3-0.1,19.8-8.3,29.5-29L38.8,8.2z M39.9,33.1c-1.2,1.2-2.8,1.9-4.5,1.9s-3.3-0.7-4.5-1.9c-2.5-2.5-2.5-6.5,0-9
	c1.2-1.2,2.8-1.9,4.5-1.9s3.3,0.7,4.5,1.9C42.3,26.6,42.3,30.7,39.9,33.1z"/>
</svg>
