<?xml version="1.0" encoding="utf-8"?>
<!-- Generator: Adobe Illustrator 19.1.0, SVG Export Plug-In . SVG Version: 6.00 Build 0)  -->
<!DOCTYPE svg PUBLIC "-//W3C//DTD SVG 1.1//EN" "http://www.w3.org/Graphics/SVG/1.1/DTD/svg11.dtd">
<svg version="1.1" id="Layer_1" xmlns="http://www.w3.org/2000/svg" xmlns:xlink="http://www.w3.org/1999/xlink" x="0px" y="0px"
	 width="64px" height="64px" viewBox="0 0 64 64" enable-background="new 0 0 64 64" xml:space="preserve">
<path d="M32,1C16,1,3,14,3,30c0,10.1,5.3,19.5,14,24.8V62c0,0.6,0.4,1,1,1h8v-5c0-0.6,0.4-1,1-1s1,0.4,1,1v5h8v-5c0-0.6,0.4-1,1-1
	s1,0.4,1,1v5h8c0.6,0,1-0.4,1-1v-7.2c8.7-5.2,14-14.7,14-24.8C61,14,48,1,32,1z M20,41c-5,0-9-4-9-9s4-9,9-9s9,4,9,9S25,41,20,41z
	 M36.9,48.4C36.8,48.8,36.4,49,36,49h-8c-0.4,0-0.8-0.2-0.9-0.6c-0.2-0.4-0.1-0.8,0.2-1.1l4-4c0.4-0.4,1-0.4,1.4,0l4,4
	C37,47.6,37.1,48,36.9,48.4z M44,41c-5,0-9-4-9-9s4-9,9-9s9,4,9,9S49,41,44,41z"/>
</svg>
