<?xml version="1.0" encoding="utf-8"?>
<!-- Generator: Adobe Illustrator 19.1.0, SVG Export Plug-In . SVG Version: 6.00 Build 0)  -->
<!DOCTYPE svg PUBLIC "-//W3C//DTD SVG 1.1//EN" "http://www.w3.org/Graphics/SVG/1.1/DTD/svg11.dtd">
<svg version="1.1" id="Layer_1" xmlns="http://www.w3.org/2000/svg" xmlns:xlink="http://www.w3.org/1999/xlink" x="0px" y="0px"
	 width="64px" height="64px" viewBox="0 0 64 64" enable-background="new 0 0 64 64" xml:space="preserve">
<path d="M61,26c0-6.9-2.5-13.5-6.9-18.7l4.6-4.6c0.4-0.4,0.4-1,0-1.4s-1-0.4-1.4,0l-4.5,4.5c-1.3-1.3-2.7-2.5-4.2-3.6
	c-0.5-0.3-1.1-0.2-1.4,0.2c-0.3,0.5-0.2,1.1,0.2,1.4C54.7,8.9,59,17.2,59,26c0,14.9-12.1,27-27,27c-9.6,0-18.6-5.2-23.4-13.5
	c-0.3-0.5-0.9-0.6-1.4-0.4c-0.5,0.3-0.6,0.9-0.4,1.4c1.4,2.3,3,4.4,4.9,6.3l-4.5,4.5c-0.4,0.4-0.4,1,0,1.4C7.5,52.9,7.7,53,8,53
	s0.5-0.1,0.7-0.3l4.6-4.6c4.9,4.1,11.1,6.6,17.7,6.8v6H20c-0.6,0-1,0.4-1,1s0.4,1,1,1h24c0.6,0,1-0.4,1-1s-0.4-1-1-1H33v-6
	C48.5,54.4,61,41.7,61,26z"/>
<path d="M46.1,41.5l-6-6c-5.5,5.2-12.3,8.5-17.6,8.5c-0.5,0-1,0-1.5-0.1c3.3,2,7.1,3.2,11,3.2C37.3,47,42.2,45,46.1,41.5z"/>
<path d="M25.3,17.9l6.7,6.7l13.5-13.5c-1-0.7-2.3-1-4-1C36.7,10.1,30.4,13.1,25.3,17.9z"/>
<path d="M16.8,31c-1.1,3.5-1,6.6,0.3,8.5L30.6,26l-6.6-6.6C20.6,22.9,18,27.1,16.8,31z"/>
<path d="M41.5,34.1l6,6c6.4-7,7.2-17.3,2.3-25.1c0.2,1.9,0,4.1-0.8,6.6C47.8,25.8,45,30.3,41.5,34.1z"/>
<path d="M38.7,34.1L32,27.4L18.5,40.9c1,0.7,2.3,1,4,1C27.3,41.9,33.6,38.9,38.7,34.1z"/>
<path d="M14.9,30.4c1.3-4.2,4.1-8.7,7.6-12.5l-6-6c-6.4,7-7.2,17.3-2.3,25.1C13.9,35.1,14.1,32.9,14.9,30.4z"/>
<path d="M33.4,26l6.6,6.6c3.3-3.5,5.9-7.7,7.1-11.7c1.1-3.5,1-6.6-0.3-8.5L33.4,26z"/>
<path d="M41.5,8.1c0.5,0,1,0,1.5,0.1C39.8,6.1,36,5,32,5c-5.3,0-10.2,2-14.1,5.5l6,6C29.4,11.4,36.2,8.1,41.5,8.1z"/>
</svg>
