<?xml version="1.0" encoding="utf-8"?>
<!-- Generator: Adobe Illustrator 19.1.0, SVG Export Plug-In . SVG Version: 6.00 Build 0)  -->
<!DOCTYPE svg PUBLIC "-//W3C//DTD SVG 1.1//EN" "http://www.w3.org/Graphics/SVG/1.1/DTD/svg11.dtd">
<svg version="1.1" id="Layer_1" xmlns="http://www.w3.org/2000/svg" xmlns:xlink="http://www.w3.org/1999/xlink" x="0px" y="0px"
	 width="64px" height="64px" viewBox="0 0 64 64" enable-background="new 0 0 64 64" xml:space="preserve">
<path d="M58.4,5.6c-2.9-2.9-6.7-4.5-10.8-4.5s-7.9,1.6-10.8,4.5L11.3,31.3C11.1,31.5,11,31.7,11,32v19.6l-7.7,7.7
	c-0.4,0.4-0.4,1,0,1.4C3.5,60.9,3.7,61,4,61s0.5-0.1,0.7-0.3L32,33.4L17.8,53H32c0.3,0,0.5-0.1,0.7-0.3l25.7-25.6
	C64.4,21.2,64.4,11.5,58.4,5.6z"/>
</svg>
