<?xml version="1.0" encoding="utf-8"?>
<!-- Generator: Adobe Illustrator 19.1.0, SVG Export Plug-In . SVG Version: 6.00 Build 0)  -->
<!DOCTYPE svg PUBLIC "-//W3C//DTD SVG 1.1//EN" "http://www.w3.org/Graphics/SVG/1.1/DTD/svg11.dtd">
<svg version="1.1" id="Layer_1" xmlns="http://www.w3.org/2000/svg" xmlns:xlink="http://www.w3.org/1999/xlink" x="0px" y="0px"
	 width="64px" height="64px" viewBox="0 0 64 64" enable-background="new 0 0 64 64" xml:space="preserve">
<path d="M60,51.5c-24.6,0-44.6-20-44.6-44.6c0-0.6-0.4-1-1-1s-1,0.4-1,1c0,25.7,20.9,46.6,46.6,46.6c0.6,0,1-0.4,1-1
	S60.6,51.5,60,51.5z"/>
<path d="M30.2,47c-0.7,0-1.3,0.1-2,0.2c-5.2,0.9-9.1,5.3-9.3,5.5c-0.3,0.4-0.3,1,0,1.3c0.2,0.2,5.3,5.9,10.4,5.9
	c0.4,0,0.8,0,1.1-0.1c6.7-1.2,10.8-7.4,11-7.6c0.3-0.5,0.2-1.1-0.3-1.4C40.9,50.5,35.7,47,30.2,47z"/>
<path d="M25,39.5c-0.1-0.3-3.1-6.5-7.4-7.1c-0.4-0.1-0.9-0.1-1.4-0.1c-4.8,0-8.6,3.1-8.8,3.3c-0.4,0.3-0.5,1-0.1,1.4
	c0.2,0.2,4.1,5.1,9,5.8c0.4,0.1,0.8,0.1,1.3,0.1c3.7,0,7-1.9,7.1-2C25,40.5,25.2,39.9,25,39.5z"/>
<path d="M23.7,26.5c-0.4,5.4,3.5,9.8,3.7,10c0.2,0.2,0.5,0.3,0.7,0.3c0.2,0,0.5-0.1,0.7-0.2c0.2-0.2,4.9-4.3,5.3-9.2
	c0.3-4.2-2.2-8.1-2.4-8.3c-0.3-0.4-0.8-0.6-1.3-0.3C30.2,18.9,24.1,22.1,23.7,26.5z"/>
<path d="M15.2,25.1c0.5-0.2,0.8-0.6,0.7-1.1c0-0.2-0.9-4.3-3.8-6.7c-2.7-2.3-6.8-2.5-8.4-2.5c-0.5,0-0.8,0-0.8,0c-0.5,0-1,0.5-0.9,1
	c0,0.2,0.3,5.5,4,8.7c1.1,0.9,2.6,1.4,4.6,1.4C13,25.8,15.1,25.2,15.2,25.1z"/>
<path d="M17.9,18c0.1,0,0.1,0,0.2,0c0.2,0,5.4-1,8-5.2c2.1-3.4-0.5-9-0.6-9.2c-0.2-0.5-0.8-0.7-1.2-0.5c-0.2,0.1-4.1,1.5-6.1,4.7
	c-2.4,3.7-1.2,9.2-1.2,9.5C17.1,17.7,17.5,18,17.9,18z"/>
<path d="M51.3,50c0.1,0,0.1,0,0.2,0c0.4,0,0.8-0.3,1-0.7c0.1-0.2,1.6-5.9-0.5-10.8c-2.4-5.7-9.7-8.7-10-8.8c-0.5-0.2-1.1,0-1.3,0.5
	c-0.1,0.3-3.1,7.1-0.4,13.4C42.3,48.5,50.9,49.9,51.3,50z"/>
</svg>
