<?xml version="1.0" encoding="utf-8"?>
<!-- Generator: Adobe Illustrator 19.1.0, SVG Export Plug-In . SVG Version: 6.00 Build 0)  -->
<!DOCTYPE svg PUBLIC "-//W3C//DTD SVG 1.1//EN" "http://www.w3.org/Graphics/SVG/1.1/DTD/svg11.dtd">
<svg version="1.1" id="Layer_1" xmlns="http://www.w3.org/2000/svg" xmlns:xlink="http://www.w3.org/1999/xlink" x="0px" y="0px"
	 width="64px" height="64px" viewBox="0 0 64 64" enable-background="new 0 0 64 64" xml:space="preserve">
<path d="M44,55c-0.6,0-1,0.4-1,1c0,2.8-2.2,5-5,5s-5-2.2-5-5V36c0-0.6-0.4-1-1-1s-1,0.4-1,1v20c0,3.9,3.1,7,7,7s7-3.1,7-7
	C45,55.4,44.6,55,44,55z"/>
<path d="M33,7V2c0-0.6-0.4-1-1-1s-1,0.4-1,1v5C17.1,7.5,5.3,18,3.3,31.9c0,0.3,0,0.6,0.2,0.8C3.8,32.9,4,33,4.3,33h55.4
	c0.3,0,0.6-0.1,0.8-0.3c0.2-0.2,0.3-0.5,0.2-0.8C58.7,18,46.9,7.5,33,7z"/>
</svg>
