<?xml version="1.0" encoding="utf-8"?>
<!-- Generator: Adobe Illustrator 19.1.0, SVG Export Plug-In . SVG Version: 6.00 Build 0)  -->
<!DOCTYPE svg PUBLIC "-//W3C//DTD SVG 1.1//EN" "http://www.w3.org/Graphics/SVG/1.1/DTD/svg11.dtd">
<svg version="1.1" id="Layer_1" xmlns="http://www.w3.org/2000/svg" xmlns:xlink="http://www.w3.org/1999/xlink" x="0px" y="0px"
	 width="64px" height="64px" viewBox="0 0 64 64" enable-background="new 0 0 64 64" xml:space="preserve">
<path d="M32.2,16.4L24,24.6l4.7,4.7c0.4,0.4,0.4,1,0,1.4C28.5,30.9,28.3,31,28,31s-0.5-0.1-0.7-0.3L22.6,26L18,30.6l4.7,4.7
	c0.4,0.4,0.4,1,0,1.4C22.5,36.9,22.3,37,22,37s-0.5-0.1-0.7-0.3L16.6,32L12,36.6l4.7,4.7c0.4,0.4,0.4,1,0,1.4
	C16.5,42.9,16.3,43,16,43s-0.5-0.1-0.7-0.3L10.6,38l-5.1,5.1c-2.7,2.7-2.7,7.2,0,9.9l5.5,5.5c1.4,1.4,3.2,2,4.9,2s3.6-0.7,4.9-2
	l26.6-26.6L32.2,16.4z"/>
<path d="M59.7,4.3c-2-2-5.4-2-7.4,0L44,12.6l-7.3-7.3c-0.4-0.4-1-0.4-1.4,0l-5,5c-0.4,0.4-0.4,1,0,1.4l22,22
	c0.2,0.2,0.5,0.3,0.7,0.3s0.5-0.1,0.7-0.3l5-5c0.4-0.4,0.4-1,0-1.4L51.4,20l8.3-8.3C61.8,9.7,61.8,6.3,59.7,4.3z"/>
</svg>
