<?xml version="1.0" encoding="utf-8"?>
<!-- Generator: Adobe Illustrator 19.1.0, SVG Export Plug-In . SVG Version: 6.00 Build 0)  -->
<!DOCTYPE svg PUBLIC "-//W3C//DTD SVG 1.1//EN" "http://www.w3.org/Graphics/SVG/1.1/DTD/svg11.dtd">
<svg version="1.1" id="Layer_1" xmlns="http://www.w3.org/2000/svg" xmlns:xlink="http://www.w3.org/1999/xlink" x="0px" y="0px"
	 width="64px" height="64px" viewBox="0 0 64 64" enable-background="new 0 0 64 64" xml:space="preserve">
<path d="M53.9,10.1C48.1,4.2,40.3,1,32,1s-16.1,3.2-21.9,9.1C-2,22.2-2,41.8,10.1,53.9C15.9,59.8,23.7,63,32,63s16.1-3.2,21.9-9.1
	C66,41.8,66,22.2,53.9,10.1z M36.9,44C36.9,44,36.9,44,36.9,44c-1.5,0.6-3.2,1-4.9,1s-3.4-0.3-4.9-0.9c0,0,0,0,0,0
	c-1.6-0.6-3.1-1.6-4.3-2.9C20.4,38.7,19,35.5,19,32s1.4-6.7,3.8-9.2c1.3-1.3,2.7-2.2,4.3-2.9c0,0,0,0,0,0c1.5-0.6,3.2-0.9,4.9-0.9
	c1.7,0,3.4,0.3,4.9,1c0,0,0,0,0,0c1.6,0.6,3.1,1.6,4.3,2.9c2.5,2.5,3.8,5.7,3.8,9.2s-1.4,6.7-3.8,9.2C39.9,42.4,38.5,43.4,36.9,44z
	 M55.4,14.9L45.3,25c-0.7-1.3-1.6-2.5-2.7-3.6c-1.1-1.1-2.3-2-3.6-2.7L49.1,8.6c1.2,0.9,2.3,1.8,3.4,2.9
	C53.6,12.6,54.5,13.7,55.4,14.9z M11.5,11.5c1.1-1.1,2.2-2,3.4-2.9L25,18.7c-1.3,0.7-2.5,1.6-3.6,2.7s-2,2.3-2.7,3.6L8.6,14.9
	C9.5,13.7,10.4,12.6,11.5,11.5z M8.6,49.1L18.7,39c0.7,1.3,1.6,2.5,2.7,3.6s2.3,2,3.6,2.7L14.9,55.4c-1.2-0.9-2.3-1.8-3.4-2.9
	C10.4,51.4,9.5,50.3,8.6,49.1z M52.5,52.5c-1.1,1.1-2.2,2-3.4,2.9L39,45.3c1.3-0.7,2.5-1.6,3.6-2.7s2-2.3,2.7-3.6l10.1,10.1
	C54.5,50.3,53.6,51.4,52.5,52.5z"/>
</svg>
