<?xml version="1.0" encoding="utf-8"?>
<!-- Generator: Adobe Illustrator 19.1.0, SVG Export Plug-In . SVG Version: 6.00 Build 0)  -->
<!DOCTYPE svg PUBLIC "-//W3C//DTD SVG 1.1//EN" "http://www.w3.org/Graphics/SVG/1.1/DTD/svg11.dtd">
<svg version="1.1" id="Layer_1" xmlns="http://www.w3.org/2000/svg" xmlns:xlink="http://www.w3.org/1999/xlink" x="0px" y="0px"
	 width="64px" height="64px" viewBox="0 0 64 64" enable-background="new 0 0 64 64" xml:space="preserve">
<path d="M26,1h-8c-0.6,0-1,0.4-1,1v4c0,0.6,0.4,1,1,1h8c0.6,0,1-0.4,1-1V2C27,1.4,26.6,1,26,1z"/>
<path d="M46,1h-8c-0.6,0-1,0.4-1,1v4c0,0.6,0.4,1,1,1h8c0.6,0,1-0.4,1-1V2C47,1.4,46.6,1,46,1z"/>
<path d="M53,17v-7c0-0.6-0.4-1-1-1H12c-0.6,0-1,0.4-1,1v7H53z"/>
<path d="M53,19H11v32h42V19z M30.8,42.6C30.6,42.9,30.3,43,30,43c-0.2,0-0.4-0.1-0.6-0.2c-0.4-0.3-0.5-1-0.2-1.4L34,35h-6
	c-0.4,0-0.7-0.2-0.9-0.6s-0.1-0.7,0.1-1l6-8c0.3-0.4,1-0.5,1.4-0.2c0.4,0.3,0.5,1,0.2,1.4L30,33h6c0.4,0,0.7,0.2,0.9,0.6
	s0.1,0.7-0.1,1L30.8,42.6z"/>
<path d="M11,53v7c0,0.6,0.4,1,1,1h40c0.6,0,1-0.4,1-1v-7H11z"/>
</svg>
