<?xml version="1.0" encoding="utf-8"?>
<!-- Generator: Adobe Illustrator 19.1.0, SVG Export Plug-In . SVG Version: 6.00 Build 0)  -->
<!DOCTYPE svg PUBLIC "-//W3C//DTD SVG 1.1//EN" "http://www.w3.org/Graphics/SVG/1.1/DTD/svg11.dtd">
<svg version="1.1" id="Layer_1" xmlns="http://www.w3.org/2000/svg" xmlns:xlink="http://www.w3.org/1999/xlink" x="0px" y="0px"
	 width="64px" height="64px" viewBox="0 0 64 64" enable-background="new 0 0 64 64" xml:space="preserve">
<path d="M4,35h13.97815L9.09766,53.56836c-0.14795,0.31006-0.12695,0.67432,0.05615,0.96484S9.65674,55,10,55h21v7
	c0,0.55225,0.44775,1,1,1s1-0.44775,1-1v-7h21c0.34326,0,0.66309-0.17627,0.84619-0.4668s0.2041-0.65479,0.05615-0.96484
	L46.02185,35H60c0.34668,0,0.66846-0.17969,0.85059-0.47412c0.18213-0.29492,0.19873-0.66309,0.04395-0.97314l-14-28
	c-0.33887-0.67773-1.4502-0.67773-1.78906,0l-6.72986,13.45972L32.90234,7.56836C32.73584,7.22119,32.38525,7,32,7
	s-0.73584,0.22119-0.90234,0.56836l-5.47327,11.44409L18.89453,5.55273c-0.33887-0.67773-1.4502-0.67773-1.78906,0l-14,28
	c-0.15479,0.31006-0.13818,0.67822,0.04395,0.97314C3.33154,34.82031,3.65332,35,4,35z M46,8.23584L58.38184,33H45.06531
	l-5.59637-11.70154L46,8.23584z M32,10.31787L52.41309,53H11.58691L32,10.31787z M18,8.23584l6.53107,13.06262L18.93469,33H5.61816
	L18,8.23584z"/>
</svg>
