<?xml version="1.0" encoding="utf-8"?>
<!-- Generator: Adobe Illustrator 19.1.0, SVG Export Plug-In . SVG Version: 6.00 Build 0)  -->
<!DOCTYPE svg PUBLIC "-//W3C//DTD SVG 1.1//EN" "http://www.w3.org/Graphics/SVG/1.1/DTD/svg11.dtd">
<svg version="1.1" id="Layer_1" xmlns="http://www.w3.org/2000/svg" xmlns:xlink="http://www.w3.org/1999/xlink" x="0px" y="0px"
	 width="64px" height="64px" viewBox="0 0 64 64" enable-background="new 0 0 64 64" xml:space="preserve">
<path d="M26,41c-1.6543,0-3,1.3457-3,3s1.3457,3,3,3s3-1.3457,3-3S27.6543,41,26,41z M26,45c-0.55127,0-1-0.44824-1-1s0.44873-1,1-1
	s1,0.44824,1,1S26.55127,45,26,45z"/>
<path d="M38,41c-1.6543,0-3,1.3457-3,3s1.3457,3,3,3s3-1.3457,3-3S39.6543,41,38,41z M38,45c-0.55127,0-1-0.44824-1-1s0.44873-1,1-1
	s1,0.44824,1,1S38.55127,45,38,45z"/>
<path d="M20,28c2.20557,0,4-1.79443,4-4s-1.79443-4-4-4s-4,1.79443-4,4S17.79443,28,20,28z M20,22c1.10303,0,2,0.89697,2,2
	s-0.89697,2-2,2s-2-0.89697-2-2S18.89697,22,20,22z"/>
<path d="M44,20c-2.20557,0-4,1.79443-4,4s1.79443,4,4,4s4-1.79443,4-4S46.20557,20,44,20z M44,26c-1.10303,0-2-0.89697-2-2
	s0.89697-2,2-2s2,0.89697,2,2S45.10303,26,44,26z"/>
<path d="M62,1c-8.96899,0-15.74463,1.92725-20.16864,5.71863C38.7597,5.60828,35.44989,5,32,5
	c-3.44977,0-6.75946,0.60822-9.83099,1.71851C17.74457,2.92688,10.96881,1,2,1C1.44775,1,1,1.44775,1,2
	c0,12.10107,1.0257,17.16443,4.30975,20.66254C3.82397,26.14709,3,29.97894,3,34c0,15.99023,13.00928,29,29,29s29-13.00977,29-29
	c0-4.02106-0.82397-7.85291-2.30975-11.33746C61.9743,19.16443,63,14.10107,63,2C63,1.44775,62.55225,1,62,1z M3.00244,3.0083
	c7.43945,0.12555,13.14758,1.6723,17.04004,4.58221C14.1087,10.28796,9.2403,14.92426,6.24823,20.68939
	C3.86554,17.69135,3.05157,13.07306,3.00244,3.0083z M32,61C17.1123,61,5,48.8877,5,34c0-3.96881,0.86774-7.73645,2.41241-11.13391
	c0.01276-0.02838,0.02789-0.05432,0.03784-0.0835c2.92584-6.37744,8.26147-11.42365,14.83765-13.96844
	c0.05438-0.01764,0.10602-0.03503,0.15723-0.06213C25.41748,7.62329,28.63666,7,32,7c3.36249,0,6.58093,0.62299,9.55273,1.75116
	c0.0531,0.02832,0.10675,0.04645,0.16333,0.06451c6.5744,2.54529,11.90845,7.59076,14.83368,13.96692
	c0.00995,0.02917,0.02509,0.05511,0.03784,0.0835C58.13226,26.26355,59,30.03119,59,34C59,48.8877,46.8877,61,32,61z
	 M57.75177,20.68939C54.7597,14.92432,49.89142,10.28809,43.9577,7.59064c3.89215-2.90997,9.60065-4.45679,17.03986-4.58234
	C60.94843,13.07306,60.13446,17.69135,57.75177,20.68939z"/>
<path d="M36,33h-8c-6.06543,0-11,4.93457-11,11s4.93457,11,11,11h8c6.06543,0,11-4.93457,11-11S42.06543,33,36,33z M36,53h-8
	c-4.9624,0-9-4.03711-9-9s4.0376-9,9-9h8c4.9624,0,9,4.03711,9,9S40.9624,53,36,53z"/>
</svg>
