<?xml version="1.0" encoding="utf-8"?>
<!-- Generator: Adobe Illustrator 19.1.0, SVG Export Plug-In . SVG Version: 6.00 Build 0)  -->
<!DOCTYPE svg PUBLIC "-//W3C//DTD SVG 1.1//EN" "http://www.w3.org/Graphics/SVG/1.1/DTD/svg11.dtd">
<svg version="1.1" id="Layer_1" xmlns="http://www.w3.org/2000/svg" xmlns:xlink="http://www.w3.org/1999/xlink" x="0px" y="0px"
	 width="64px" height="64px" viewBox="0 0 64 64" enable-background="new 0 0 64 64" xml:space="preserve">
<path d="M47,1c-5.0802,0-9.83984,2.26819-12.86115,6.08875C33.43542,7.03021,32.72192,7,32,7s-1.43542,0.03021-2.13885,0.08875
	C26.83984,3.26819,22.0802,1,17,1C8.17773,1,1,7.72852,1,16c0,6.40668,4.44647,12.1582,10.87793,14.20154
	c0.86115,3.68463,2.31104,8.13934,4.13849,12.57013l-8.41388-1.26093c-0.55664-0.07324-1.05566,0.2959-1.1377,0.84082
	c-0.08203,0.54688,0.29492,1.05566,0.84082,1.1377l9.63354,1.44373c1.12244,2.53925,2.3576,5.01868,3.66632,7.29333
	l-10.59186,1.80396c-0.54395,0.0918-0.91016,0.6084-0.81738,1.15332c0.08301,0.4873,0.50586,0.83203,0.98438,0.83203
	c0.05566,0,0.1123-0.00488,0.16895-0.01465L21.7099,54.0661c1.20239,1.91748,2.45221,3.6333,3.72296,5.03546
	c0.04504,0.07043,0.08301,0.14465,0.14722,0.2041c0.02679,0.0249,0.06067,0.03442,0.08929,0.05579
	C27.77563,61.61639,29.92999,63,32,63c3.39874,0,7.02362-3.72485,10.2901-8.9339l11.36029,1.93488
	c0.05664,0.00977,0.11328,0.01465,0.16895,0.01465c0.47852,0,0.90137-0.34473,0.98438-0.83203
	c0.09277-0.54492-0.27344-1.06152-0.81738-1.15332l-10.59186-1.80396c1.30872-2.27466,2.54388-4.75409,3.66632-7.29333
	l9.63354-1.44373c0.5459-0.08203,0.92285-0.59082,0.84082-1.1377c-0.08105-0.54492-0.58008-0.91406-1.1377-0.84082l-8.41388,1.26093
	c1.82745-4.43079,3.27734-8.8855,4.13849-12.57013C58.55353,28.1582,63,22.40668,63,16C63,7.72852,55.82227,1,47,1z M3,16
	C3,8.83203,9.28027,3,17,3c4.0437,0,7.85114,1.62378,10.4978,4.4082C18.07697,9.10205,11,15.98254,11,24.2002
	c0,1.008,0.14441,2.27228,0.40125,3.70502C6.3844,25.85846,3,21.17218,3,16z M27.66418,58.62292
	C28.91724,57.57446,30.46857,57,32.125,57c1.59222,0,3.0968,0.53467,4.32745,1.50995C34.90881,60.07007,33.39465,61,32,61
	C30.64056,61,29.16736,60.112,27.66418,58.62292z M39.17871,46.10254c0.04883,0,0.09863-0.00391,0.14941-0.01074l5.3335-0.79932
	c-1.06146,2.31342-2.20184,4.54865-3.38293,6.57349l-3.65662-0.6228c-0.54199-0.09375-1.06055,0.27344-1.15332,0.81738
	c-0.09277,0.54492,0.27344,1.06152,0.81738,1.15332l2.86896,0.48865c-0.78345,1.22528-1.5766,2.33911-2.36957,3.31079
	C36.18707,55.71173,34.21411,55,32.125,55c-2.12775,0-4.18823,0.77429-5.80511,2.14288
	c-0.82794-1.00116-1.6568-2.16077-2.47498-3.44037l2.86896-0.48865c0.54395-0.0918,0.91016-0.6084,0.81738-1.15332
	c-0.09277-0.54395-0.60938-0.91113-1.15332-0.81738l-3.65662,0.6228c-1.18109-2.02484-2.32147-4.26007-3.38293-6.57349
	l5.3335,0.79932c0.05078,0.00684,0.10059,0.01074,0.14941,0.01074c0.4873,0,0.91406-0.35547,0.98828-0.85156
	c0.08203-0.54688-0.29492-1.05566-0.84082-1.1377l-6.59332-0.9881C15.2276,35.78552,13,28.10461,13,24.2002
	C13,15.81836,21.52344,9,32,9s19,6.81836,19,15.2002c0,3.90442-2.2276,11.58533-5.37543,18.92499l-6.59332,0.9881
	c-0.5459,0.08203-0.92285,0.59082-0.84082,1.1377C38.26465,45.74707,38.69141,46.10254,39.17871,46.10254z M52.59875,27.90521
	C52.85559,26.47247,53,25.20819,53,24.2002c0-8.21765-7.07697-15.09814-16.4978-16.79199C39.14886,4.62378,42.9563,3,47,3
	c7.71973,0,14,5.83203,14,13C61,21.17218,57.6156,25.85846,52.59875,27.90521z"/>
<path d="M24,28c-2.20605,0-4,1.79395-4,4s1.79395,4,4,4s4-1.79395,4-4S26.20605,28,24,28z M24,34c-1.10254,0-2-0.89746-2-2
	s0.89746-2,2-2s2,0.89746,2,2S25.10254,34,24,34z"/>
<path d="M44,32c0-2.20605-1.79395-4-4-4s-4,1.79395-4,4s1.79395,4,4,4S44,34.20605,44,32z M38,32c0-1.10254,0.89746-2,2-2
	s2,0.89746,2,2s-0.89746,2-2,2S38,33.10254,38,32z"/>
</svg>
