<?xml version="1.0" encoding="utf-8"?>
<!-- Generator: Adobe Illustrator 19.1.0, SVG Export Plug-In . SVG Version: 6.00 Build 0)  -->
<!DOCTYPE svg PUBLIC "-//W3C//DTD SVG 1.1//EN" "http://www.w3.org/Graphics/SVG/1.1/DTD/svg11.dtd">
<svg version="1.1" id="Layer_1" xmlns="http://www.w3.org/2000/svg" xmlns:xlink="http://www.w3.org/1999/xlink" x="0px" y="0px"
	 width="64px" height="64px" viewBox="0 0 64 64" enable-background="new 0 0 64 64" xml:space="preserve">
<path d="M55.9975,21.84882c-0.03705-0.88037-0.67285-2.98798-11.30389-4.19238C42.56268,14.87421,39.36877,13,36,13
	c-2.68848,0-5.15137,0.95703-7.16895,2.77588C27.30078,15.08887,25.38574,15,24,15c-2.46527,0-4.70093,1.09497-6.32794,2.86292
	c-9.09747,1.24084-9.63855,3.12335-9.66992,3.98724l-6.7951,23.2973C1.06934,45.42578,1,45.71191,1,46c0,5.93164,29.73438,6,31,6
	s31-0.06836,31-6c0-0.28809-0.06934-0.57422-0.20703-0.85254L55.9975,21.84882z M53.94824,22.00244
	c-0.50201,0.57709-2.80554,1.34888-6.69476,1.96533c-0.14899-1.44659-0.57928-2.84082-1.2124-4.1283
	C51.54303,20.58588,53.53357,21.56274,53.94824,22.00244z M24,17c0.78223,0,3.16113,0,4.45605,0.83936
	c0.39941,0.25732,0.92578,0.20068,1.25879-0.14014C31.46582,15.9082,33.58008,15,36,15c4.51624,0,8.79541,4.38062,9.26721,9.24799
	C41.78888,24.68951,37.34619,25,32,25c-6.25446,0-11.27924-0.42358-14.95508-0.98718C17.42755,20.07526,20.39941,17,24,17z
	 M16.11548,20.12286c-0.54187,1.07825-0.90045,2.27979-1.04169,3.55457c-2.87756-0.55542-4.59277-1.18439-5.02106-1.67352
	C10.41547,21.63062,11.98029,20.82458,16.11548,20.12286z M32,50c-18.36035,0-28.49121-2.58691-28.99219-3.98145
	c0.03906-0.06738,0.06934-0.13965,0.09082-0.21387L9.466,23.97327C14.35529,26.89996,29.93341,27,32,27
	s17.64471-0.10004,22.534-3.02673l6.36737,21.83142c0.02148,0.07422,0.06445,0.09277,0.10352,0.16113
	C60.49121,47.41309,50.36035,50,32,50z"/>
</svg>
