<?xml version="1.0" encoding="utf-8"?>
<!-- Generator: Adobe Illustrator 19.1.0, SVG Export Plug-In . SVG Version: 6.00 Build 0)  -->
<!DOCTYPE svg PUBLIC "-//W3C//DTD SVG 1.1//EN" "http://www.w3.org/Graphics/SVG/1.1/DTD/svg11.dtd">
<svg version="1.1" id="Layer_1" xmlns="http://www.w3.org/2000/svg" xmlns:xlink="http://www.w3.org/1999/xlink" x="0px" y="0px"
	 width="64px" height="64px" viewBox="0 0 64 64" enable-background="new 0 0 64 64" xml:space="preserve">
<path d="M62,61h-7V23.68079l6.375,5.09998C61.55957,28.92822,61.78027,29,61.99902,29c0.29395,0,0.58398-0.12842,0.78223-0.37549
	c0.34473-0.43115,0.27441-1.06055-0.15625-1.40527l-30-24c-0.36523-0.29199-0.88477-0.29199-1.25,0l-30,24
	c-0.43066,0.34473-0.50098,0.97412-0.15625,1.40527c0.3457,0.43164,0.97363,0.50146,1.40625,0.15625L9,23.68079V61H2
	c-0.55273,0-1,0.44727-1,1s0.44727,1,1,1h60c0.55273,0,1-0.44727,1-1S62.55273,61,62,61z M11,22.08075L32,5.28076l21,16.79999V61H43
	V44c0-6.06543-4.93457-11-11-11s-11,4.93457-11,11v17H11V22.08075z M41,61H23V44c0-4.96289,4.03711-9,9-9s9,4.03711,9,9V61z"/>
</svg>
