<?xml version="1.0" encoding="utf-8"?>
<!-- Generator: Adobe Illustrator 19.1.0, SVG Export Plug-In . SVG Version: 6.00 Build 0)  -->
<!DOCTYPE svg PUBLIC "-//W3C//DTD SVG 1.1//EN" "http://www.w3.org/Graphics/SVG/1.1/DTD/svg11.dtd">
<svg version="1.1" id="Layer_1" xmlns="http://www.w3.org/2000/svg" xmlns:xlink="http://www.w3.org/1999/xlink" x="0px" y="0px"
	 width="64px" height="64px" viewBox="0 0 64 64" enable-background="new 0 0 64 64" xml:space="preserve">
<path d="M37.17847,15.44904C39.26581,14.27582,41,12.5119,41,10.40039C41,4.1416,35.22998,1,32,1s-9,3.1416-9,9.40039
	c0,2.11151,1.73419,3.87543,3.82153,5.04865C11.74023,18.05328,1,31.67993,1,44c0,0.55273,0.44775,1,1,1h12.99707
	c1.49786,0,2.95154-0.26672,4.31409-0.75098C21.78961,53.5116,26.32776,63,32,63c5.67078,0,10.21075-9.48743,12.69153-18.74994
	C46.05328,44.7337,47.50604,45,49.00293,45H62c0.55225,0,1-0.44727,1-1C63,31.67993,52.25977,18.05328,37.17847,15.44904z
	 M25,10.40039C25,5.54199,29.55713,3,32,3s7,2.54199,7,7.40039C39,12.72754,34.5708,15,32,15S25,12.72754,25,10.40039z M3.02246,43
	c0.64111-14.22852,14.86475-25.24316,27.65869-25.96289c-1.45654,5.31641-3.55664,12.63086-5.12012,18.03027
	C24.20801,39.73828,19.86426,43,14.99707,43H3.02246z M32,19.77362c1.39667,5.02338,3.15912,11.15802,4.51807,15.8504
	C36.65509,36.09705,36.82703,36.5528,37.0141,37H26.9859c0.18707-0.4472,0.35901-0.90295,0.49603-1.37598
	C28.84088,30.93164,30.60333,24.797,32,19.77362z M32,61c-3.00977,0-6.00604-4.40479-8.31244-10h16.62622
	C38.00629,56.59503,35.00916,61,32,61z M41.09058,49h-18.1795c-0.66418-1.81293-1.25031-3.70154-1.74493-5.57648
	C23.09125,42.37927,24.737,40.85754,25.93341,39h12.13318c1.19696,1.8584,2.84363,3.3808,4.7699,4.42505
	C42.34149,45.29944,41.755,47.1875,41.09058,49z M49.00293,43c-4.86719,0-9.21094-3.26172-10.56396-7.93262
	c-1.56348-5.39941-3.66357-12.71387-5.12012-18.03027C46.11279,17.75684,60.33643,28.77148,60.97754,43H49.00293z"/>
</svg>
