<?xml version="1.0" encoding="utf-8"?>
<!-- Generator: Adobe Illustrator 19.1.0, SVG Export Plug-In . SVG Version: 6.00 Build 0)  -->
<!DOCTYPE svg PUBLIC "-//W3C//DTD SVG 1.1//EN" "http://www.w3.org/Graphics/SVG/1.1/DTD/svg11.dtd">
<svg version="1.1" id="Layer_1" xmlns="http://www.w3.org/2000/svg" xmlns:xlink="http://www.w3.org/1999/xlink" x="0px" y="0px"
	 width="64px" height="64px" viewBox="0 0 64 64" enable-background="new 0 0 64 64" xml:space="preserve">
<path d="M20,26c-1.6543,0-3,1.3457-3,3s1.3457,3,3,3s3-1.3457,3-3S21.6543,26,20,26z M20,30c-0.55176,0-1-0.44824-1-1s0.44824-1,1-1
	s1,0.44824,1,1S20.55176,30,20,30z"/>
<path d="M44,26c-1.6543,0-3,1.3457-3,3s1.3457,3,3,3s3-1.3457,3-3S45.6543,26,44,26z M44,30c-0.55176,0-1-0.44824-1-1s0.44824-1,1-1
	s1,0.44824,1,1S44.55176,30,44,30z"/>
<path d="M56.52148,18.59833C60.3028,17.50665,63,14.04639,63,10c0-4.96289-4.03711-9-9-9c-3.84644,0-7.2002,2.43903-8.45709,5.96814
	C41.66681,4.51892,37.1463,3,32,3s-9.66681,1.51892-13.54291,3.96814C17.2002,3.43903,13.84644,1,10,1c-4.96289,0-9,4.03711-9,9
	c0,4.04639,2.6972,7.50665,6.47852,8.59833c-1.39825,2.33234-2.54846,4.75726-3.44336,7.14679
	C1.10156,33.57812-1.2041,44.63379,4.46973,52.81738C9.1543,59.57422,18.41699,63,32,63s22.8457-3.42578,27.53027-10.18262
	c5.67383-8.18359,3.36816-19.23926,0.43457-27.07227C59.06995,23.35559,57.91974,20.93066,56.52148,18.59833z M54,3
	c3.85938,0,7,3.14062,7,7c0,3.34308-2.37274,6.17468-5.6095,6.8197c-2.19519-3.27448-4.9021-6.28644-8.10382-8.65845
	C48.10754,5.14471,50.82794,3,54,3z M3,10c0-3.85938,3.14062-7,7-7c3.17206,0,5.89246,2.14471,6.71332,5.16125
	c-3.20172,2.37201-5.90863,5.38397-8.10382,8.65845C5.37274,16.17468,3,13.34308,3,10z M57.88672,51.67871
	C53.59863,57.86328,44.88867,61,32,61s-21.59863-3.13672-25.88672-9.32129C0.93262,44.20508,3.1416,33.83203,5.9082,26.44629
	c1.0097-2.69617,2.36133-5.43884,4.03839-8.02374c0.01373-0.02258,0.03082-0.0415,0.04279-0.06525
	C14.76294,11.03143,22.17639,5,32,5s17.23706,6.03143,22.01062,13.3573c0.01196,0.02374,0.02905,0.04266,0.04279,0.06525
	c1.67706,2.5849,3.02869,5.32758,4.03839,8.02374C60.8584,33.83203,63.06738,44.20508,57.88672,51.67871z"/>
<path d="M28.9043,24.93555c-1.34375-5.25781-4.64746-6.36133-7.18262-6.36133c-6.63086,0-11.61133,9.33594-11.66895,13.30371
	c-0.03809,2.61914,1.02148,5.34473,2.76367,7.1123c1.1748,1.19141,2.54199,1.82129,3.95605,1.82129
	c3.96973,0,7.11621-3.71777,9.67188-7.35352C29.37793,29.28418,29.62305,27.74219,28.9043,24.93555z M16.77246,38.81152
	c-1.09473,0-1.98047-0.66602-2.53125-1.22461c-1.35938-1.37891-2.21875-3.6084-2.18848-5.67969
	c0.05078-3.54004,4.75879-11.33301,9.66895-11.33301c2.73145,0,4.39844,1.54297,5.24512,4.85742
	c0.50781,1.9834,0.60449,2.94531-2.15918,6.87598C21.64746,36.80566,19.16895,38.81152,16.77246,38.81152z"/>
<path d="M42.27832,18.57422c-2.53516,0-5.83887,1.10352-7.18262,6.36133c-0.71875,2.80664-0.47363,4.34863,2.45996,8.52246
	c2.55566,3.63574,5.70215,7.35352,9.67188,7.35352c1.41406,0,2.78125-0.62988,3.95605-1.82129
	c1.74219-1.76758,2.80176-4.49316,2.76367-7.1123C53.88965,27.91016,48.90918,18.57422,42.27832,18.57422z M49.75879,37.58691
	c-0.55078,0.55859-1.43652,1.22461-2.53125,1.22461c-2.39648,0-4.875-2.00586-8.03516-6.50391
	c-2.76367-3.93066-2.66699-4.89258-2.15918-6.87598c0.84668-3.31445,2.51367-4.85742,5.24512-4.85742
	c4.91016,0,9.61816,7.79297,9.66895,11.33301C51.97754,33.97852,51.11816,36.20801,49.75879,37.58691z"/>
<path d="M40,51c-0.55273,0-1,0.44727-1,1c0,1.6543-1.3457,3-3,3s-3-1.3457-3-3v-2.3913
	c0.51837-0.1842,0.98773-0.4931,1.34277-0.93585l3.83887-4.79883c0.72656-0.90918,0.86523-2.125,0.36133-3.17383
	S37.00293,39,35.83887,39h-7.67773c-1.16406,0-2.2002,0.65137-2.7041,1.7002s-0.36523,2.26465,0.36133,3.17383l3.83887,4.79883
	C30.01227,49.1156,30.48163,49.4245,31,49.6087V52c0,1.6543-1.3457,3-3,3s-3-1.3457-3-3c0-0.55273-0.44727-1-1-1s-1,0.44727-1,1
	c0,2.75684,2.24316,5,5,5c1.6413,0,3.08777-0.80573,4-2.03094C32.91223,56.19427,34.3587,57,36,57c2.75684,0,5-2.24316,5-5
	C41,51.44727,40.55273,51,40,51z M27.38086,42.62402c-0.24609-0.30762-0.29102-0.70215-0.12109-1.05762
	C27.43066,41.21191,27.76758,41,28.16113,41h7.67773c0.39355,0,0.73047,0.21191,0.90137,0.56641
	c0.16992,0.35547,0.125,0.75-0.12109,1.05762l-3.83887,4.79883c-0.38086,0.47852-1.17969,0.47852-1.56055,0L27.38086,42.62402z"/>
</svg>
