<?xml version="1.0" encoding="utf-8"?>
<!-- Generator: Adobe Illustrator 19.1.0, SVG Export Plug-In . SVG Version: 6.00 Build 0)  -->
<!DOCTYPE svg PUBLIC "-//W3C//DTD SVG 1.1//EN" "http://www.w3.org/Graphics/SVG/1.1/DTD/svg11.dtd">
<svg version="1.1" id="Layer_1" xmlns="http://www.w3.org/2000/svg" xmlns:xlink="http://www.w3.org/1999/xlink" x="0px" y="0px"
	 width="64px" height="64px" viewBox="0 0 64 64" enable-background="new 0 0 64 64" xml:space="preserve">
<path d="M8,47h7v15c0,0.55225,0.44727,1,1,1h32c0.55273,0,1-0.44775,1-1V47h7c0.55273,0,1-0.44775,1-1v-8c0-0.55225-0.44727-1-1-1
	H33v-6h1c6.06543,0,11-4.93457,11-11v-4c0-0.55225-0.44727-1-1-1h-2c-3.71985,0-7.00824,1.86072-9,4.69525V16V2
	c0-0.55225-0.44727-1-1-1s-1,0.44775-1,1v7.69525C29.00824,6.86072,25.71985,5,22,5h-2c-0.55273,0-1,0.44775-1,1v4
	c0,6.06543,4.93457,11,11,11h1v5v4v7H8c-0.55273,0-1,0.44775-1,1v8C7,46.55225,7.44727,47,8,47z M42,17h1v3c0,4.9624-4.03711,9-9,9
	h-1v-3C33,21.0376,37.03711,17,42,17z M30,19c-4.96289,0-9-4.0376-9-9V7h1c4.96289,0,9,4.0376,9,9v3H30z M47,61H17V47h30V61z M9,39
	h46v6H9V39z"/>
</svg>
