<?xml version="1.0" encoding="utf-8"?>
<!-- Generator: Adobe Illustrator 19.1.0, SVG Export Plug-In . SVG Version: 6.00 Build 0)  -->
<!DOCTYPE svg PUBLIC "-//W3C//DTD SVG 1.1//EN" "http://www.w3.org/Graphics/SVG/1.1/DTD/svg11.dtd">
<svg version="1.1" id="Layer_1" xmlns="http://www.w3.org/2000/svg" xmlns:xlink="http://www.w3.org/1999/xlink" x="0px" y="0px"
	 width="64px" height="64px" viewBox="0 0 64 64" enable-background="new 0 0 64 64" xml:space="preserve">
<path d="M18.23828,27.7002c-2.41504,3.87207-2.8623,7.37402-1.08789,9.14893c1.77539,1.7749,5.27734,1.32861,9.14941-1.0874
	c0.89044,3.84235,2.62561,6.44537,4.7002,7.0824V60v2c0,0.55225,0.44727,1,1,1c7.16797,0,13-5.83154,13-13v-2
	c0-0.55225-0.44727-1-1-1c-4.63342,0-8.69739,2.44427-11,6.10364V42.84412c2.07458-0.63702,3.80975-3.24005,4.7002-7.0824
	c3.87109,2.4165,7.37402,2.86328,9.14941,1.0874c1.77441-1.7749,1.32715-5.27686-1.08789-9.14893
	C50.20801,26.6709,53,24.51074,53,22s-2.79199-4.6709-7.2373-5.7002c2.41504-3.87158,2.8623-7.37354,1.08691-9.14893
	c-1.77637-1.77637-5.27832-1.3291-9.14941,1.08691C36.66992,3.79248,34.50977,1,32,1s-4.66992,2.79248-5.7002,7.23779
	c-3.87109-2.41504-7.37305-2.8623-9.14941-1.08691c-1.77539,1.77539-1.32812,5.27734,1.08691,9.14893
	C13.79199,17.3291,11,19.48926,11,22S13.79199,26.6709,18.23828,27.7002z M43,49.04492V50c0,5.72852-4.40137,10.44824-10,10.95508
	V60C33,54.27148,37.40137,49.55176,43,49.04492z M20.06738,17.979c0.34277-0.05518,0.63184-0.28418,0.76465-0.60449
	c0.13281-0.3208,0.08984-0.68701-0.11328-0.96826c-2.75098-3.81055-3.16602-6.8291-2.1543-7.84131
	c1.00977-1.01123,4.0293-0.59766,7.8418,2.15381c0.28125,0.20312,0.64648,0.24658,0.96777,0.11328
	c0.32031-0.13281,0.54883-0.42188,0.60449-0.76416C28.72852,5.42773,30.56934,3,32,3s3.27148,2.42773,4.02148,7.06787
	c0.05566,0.34229,0.28418,0.63135,0.60449,0.76416c0.31934,0.1333,0.68652,0.09033,0.96777-0.11328
	c3.81152-2.75098,6.82812-3.16602,7.8418-2.15381c1.01172,1.01221,0.59668,4.03076-2.1543,7.84131
	c-0.20312,0.28125-0.24609,0.64746-0.11328,0.96826c0.13281,0.32031,0.42188,0.54932,0.76465,0.60449
	C48.57227,18.72803,51,20.56885,51,22s-2.42773,3.27197-7.06738,4.021c-0.34277,0.05518-0.63184,0.28418-0.76465,0.60449
	s-0.08984,0.68701,0.11328,0.96826c2.75,3.81104,3.16602,6.82959,2.1543,7.84131c-1.0127,1.01172-4.0293,0.59863-7.8418-2.1543
	c-0.28027-0.20264-0.64648-0.24658-0.96777-0.11328c-0.32031,0.13281-0.54883,0.42188-0.60449,0.76416
	C35.27148,38.57227,33.43066,41,32,41s-3.27148-2.42773-4.02148-7.06836c-0.05566-0.34229-0.28418-0.63135-0.60449-0.76416
	c-0.12305-0.05127-0.25293-0.07617-0.38281-0.07617c-0.20703,0-0.41211,0.06445-0.58496,0.18945
	c-3.81055,2.75244-6.82812,3.16797-7.8418,2.1543c-1.01172-1.01172-0.5957-4.03027,2.1543-7.84131
	c0.20312-0.28125,0.24609-0.64795,0.11328-0.96826s-0.42188-0.54932-0.76465-0.60449C15.42773,25.27197,13,23.43115,13,22
	S15.42773,18.72803,20.06738,17.979z"/>
<path d="M32,28c3.30859,0,6-2.69141,6-6s-2.69141-6-6-6s-6,2.69141-6,6S28.69141,28,32,28z M32,18c2.20605,0,4,1.79443,4,4
	s-1.79395,4-4,4s-4-1.79443-4-4S29.79395,18,32,18z"/>
</svg>
