<?xml version="1.0" encoding="utf-8"?>
<!-- Generator: Adobe Illustrator 19.1.0, SVG Export Plug-In . SVG Version: 6.00 Build 0)  -->
<!DOCTYPE svg PUBLIC "-//W3C//DTD SVG 1.1//EN" "http://www.w3.org/Graphics/SVG/1.1/DTD/svg11.dtd">
<svg version="1.1" id="Layer_1" xmlns="http://www.w3.org/2000/svg" xmlns:xlink="http://www.w3.org/1999/xlink" x="0px" y="0px"
	 width="64px" height="64px" viewBox="0 0 64 64" enable-background="new 0 0 64 64" xml:space="preserve">
<path d="M28,33.93414V35c0,1.94537,0.93457,3.67218,2.3739,4.76917C27.21338,41.16711,25,44.32758,25,48c0,4.96289,4.03711,9,9,9
	s9-4.03711,9-9c0-3.67242-2.21338-6.83295-5.3739-8.23083C39.06543,38.67218,40,36.94537,40,35v-1.2478
	C50.15179,33.14441,62,31.30261,62,27V15c0-5.53711-19.62402-7-30-7S2,9.46289,2,15v12C2,31.88605,17.27716,33.59869,28,33.93414z
	 M4,27v-9.22687C9.25201,21.04669,23.63104,22,32,22c1.77228,0,3.81757-0.04407,5.9856-0.14246C37.98737,21.90588,38,21.95123,38,22
	v9.87122C36.1123,31.95343,34.11469,32,32,32C13.88281,32,4,28.69678,4,27z M30.54517,19.9917C31.24133,18.79236,32.54382,18,34,18
	c1.43195,0,2.68054,0.76239,3.38727,1.89618C35.6803,19.96234,33.88757,20,32,20C31.50806,20,31.0249,19.99646,30.54517,19.9917z
	 M41,48c0,3.85938-3.14062,7-7,7s-7-3.14062-7-7s3.14062-7,7-7S41,44.14062,41,48z M38,35c0,2.20605-1.79395,4-4,4s-4-1.79395-4-4
	v-1.01715C30.69647,33.99438,31.36597,34,32,34c1.77625,0,3.8266-0.04431,6-0.14313V35z M40,31.76917V22
	c0-0.08337-0.00916-0.16443-0.01251-0.24701C47.6153,21.29706,56.19769,20.14313,60,17.77313V27
	C60,28.42731,53.00507,30.99078,40,31.76917z M32,10c18.11719,0,28,3.30322,28,5c0,1.44275-7.14911,4.04559-20.4259,4.79309
	C38.69257,17.57458,36.52887,16,34,16c-2.54968,0-4.78729,1.62256-5.62762,3.953C12.57031,19.55042,4,16.57971,4,15
	C4,13.30322,13.88281,10,32,10z"/>
</svg>
