<?xml version="1.0" encoding="utf-8"?>
<!-- Generator: Adobe Illustrator 19.1.0, SVG Export Plug-In . SVG Version: 6.00 Build 0)  -->
<!DOCTYPE svg PUBLIC "-//W3C//DTD SVG 1.1//EN" "http://www.w3.org/Graphics/SVG/1.1/DTD/svg11.dtd">
<svg version="1.1" id="Layer_1" xmlns="http://www.w3.org/2000/svg" xmlns:xlink="http://www.w3.org/1999/xlink" x="0px" y="0px"
	 width="64px" height="64px" viewBox="0 0 64 64" enable-background="new 0 0 64 64" xml:space="preserve">
<path d="M15.72607,28.74658c-1.11426,2.98877-0.59717,6.08105,1.4248,8.10254c2.02148,2.02197,5.11328,2.53857,8.10254,1.4248
	c1.16785,2.56042,3.2948,4.27618,5.74658,4.64673V60v2c0,0.55225,0.44775,1,1,1c7.16846,0,13-5.83154,13-13v-2
	c0-0.55225-0.44775-1-1-1c-4.63367,0-8.69751,2.44421-11,6.10345v-10.1828c2.45178-0.37054,4.57874-2.0863,5.74658-4.64673
	c2.98877,1.11328,6.08057,0.59619,8.10254-1.4248c2.02197-2.02148,2.53906-5.11377,1.4248-8.10254
	C51.17725,27.42236,53,24.86621,53,22s-1.82275-5.42236-4.72607-6.74658c1.11426-2.98877,0.59717-6.08105-1.4248-8.10254
	c-2.021-2.021-5.11279-2.53955-8.10254-1.4248C37.42236,2.82275,34.86621,1,32,1s-5.42236,1.82275-6.74658,4.72607
	c-2.98926-1.11475-6.08105-0.59619-8.10254,1.4248c-2.02197,2.02148-2.53906,5.11377-1.4248,8.10254
	C12.82275,16.57764,11,19.13379,11,22S12.82275,27.42236,15.72607,28.74658z M43,49.04492V50
	c0,5.72852-4.40137,10.44824-10,10.95508V60C33,54.27148,37.40137,49.55176,43,49.04492z M17.37012,16.75488
	c0.27637-0.09131,0.49902-0.29785,0.61035-0.56641s0.1001-0.57227-0.03027-0.83203c-1.25439-2.49756-1.01318-5.16309,0.61475-6.7915
	c1.62842-1.62695,4.29297-1.86865,6.7915-0.61475c0.25977,0.12988,0.56348,0.1416,0.83203,0.03027s0.4751-0.33398,0.56641-0.61035
	C27.63135,4.71533,29.69043,3,32,3s4.36865,1.71533,5.24512,4.37012c0.09131,0.27637,0.29785,0.49902,0.56641,0.61035
	c0.26904,0.11133,0.57275,0.09961,0.83203-0.03027c2.49707-1.25488,5.1626-1.01367,6.7915,0.61475
	c1.62793,1.62842,1.86914,4.29395,0.61475,6.7915c-0.13037,0.25977-0.1416,0.56348-0.03027,0.83203s0.33398,0.4751,0.61035,0.56641
	C49.28467,17.63135,51,19.69043,51,22s-1.71533,4.36865-4.37012,5.24512c-0.27637,0.09131-0.49902,0.29785-0.61035,0.56641
	s-0.1001,0.57227,0.03027,0.83203c1.25439,2.49756,1.01318,5.16309-0.61475,6.7915c-1.62695,1.62842-4.29248,1.86963-6.7915,0.61475
	c-0.25928-0.13086-0.56299-0.14111-0.83203-0.03027c-0.26855,0.11133-0.4751,0.33398-0.56641,0.61035
	C36.36865,39.28467,34.30957,41,32,41s-4.36865-1.71533-5.24512-4.37012c-0.09131-0.27637-0.29785-0.49902-0.56641-0.61035
	c-0.12305-0.05078-0.25342-0.07617-0.3833-0.07617c-0.1543,0-0.30811,0.03564-0.44873,0.10645
	c-2.49854,1.25293-5.16406,1.0127-6.7915-0.61475c-1.62793-1.62842-1.86914-4.29395-0.61475-6.7915
	c0.13037-0.25977,0.1416-0.56348,0.03027-0.83203s-0.33398-0.4751-0.61035-0.56641C14.71533,26.36865,13,24.30957,13,22
	S14.71533,17.63135,17.37012,16.75488z"/>
<path d="M32,29c3.85986,0,7-3.14014,7-7s-3.14014-7-7-7s-7,3.14014-7,7S28.14014,29,32,29z M32,17c2.75684,0,5,2.24316,5,5
	s-2.24316,5-5,5s-5-2.24316-5-5S29.24316,17,32,17z"/>
</svg>
