<?xml version="1.0" encoding="utf-8"?>
<!-- Generator: Adobe Illustrator 19.1.0, SVG Export Plug-In . SVG Version: 6.00 Build 0)  -->
<!DOCTYPE svg PUBLIC "-//W3C//DTD SVG 1.1//EN" "http://www.w3.org/Graphics/SVG/1.1/DTD/svg11.dtd">
<svg version="1.1" id="Layer_1" xmlns="http://www.w3.org/2000/svg" xmlns:xlink="http://www.w3.org/1999/xlink" x="0px" y="0px"
	 width="64px" height="64px" viewBox="0 0 64 64" enable-background="new 0 0 64 64" xml:space="preserve">
<path d="M16,51h15v10H20c-0.55225,0-1,0.44775-1,1s0.44775,1,1,1h24c0.55225,0,1-0.44775,1-1s-0.44775-1-1-1H33V51h15
	c7.16846,0,13-5.83154,13-13c0-5.64014-3.56201-10.52783-8.80762-12.29932C52.72363,24.53711,53,23.27832,53,22
	c0-4.9624-4.0376-9-9-9h-1.0459C42.98486,12.66699,43,12.33301,43,12c0-6.06543-4.93457-11-11-11S21,5.93457,21,12
	c0,0.33301,0.01514,0.66699,0.0459,1H20c-4.9624,0-9,4.0376-9,9c0,1.27832,0.27637,2.53711,0.80762,3.70068
	C6.56201,27.47217,3,32.35986,3,38C3,45.16846,8.83154,51,16,51z M13.50879,27.29443
	c0.31738-0.07324,0.57861-0.29688,0.70117-0.59814c0.12207-0.30176,0.09033-0.64404-0.08643-0.91797
	C13.38867,24.63818,13,23.33154,13,22c0-3.85986,3.14014-7,7-7h2.20166c0.30029,0,0.58447-0.13477,0.77441-0.36719
	s0.26514-0.5376,0.20557-0.83203C23.06104,13.20752,23,12.60156,23,12c0-4.9624,4.0376-9,9-9s9,4.0376,9,9
	c0,0.60156-0.06104,1.20752-0.18164,1.80078c-0.05957,0.29443,0.01562,0.59961,0.20557,0.83203S41.49805,15,41.79834,15H44
	c3.85986,0,7,3.14014,7,7c0,1.33154-0.38867,2.63818-1.12354,3.77832c-0.17676,0.27393-0.2085,0.61621-0.08643,0.91797
	c0.12256,0.30127,0.38379,0.5249,0.70117,0.59814C55.50098,28.45605,59,32.85791,59,38c0,6.06543-4.93457,11-11,11H33v-3.58594
	l9.70703-9.70703c0.39062-0.39062,0.39062-1.02344,0-1.41406s-1.02344-0.39062-1.41406,0L33,42.58594V22c0-0.55225-0.44775-1-1-1
	s-1,0.44775-1,1v14.58594l-8.29297-8.29297c-0.39062-0.39062-1.02344-0.39062-1.41406,0s-0.39062,1.02344,0,1.41406L31,39.41406V49
	H16C9.93457,49,5,44.06543,5,38C5,32.85791,8.49902,28.45605,13.50879,27.29443z"/>
</svg>
