<?xml version="1.0" encoding="utf-8"?>
<!-- Generator: Adobe Illustrator 19.1.0, SVG Export Plug-In . SVG Version: 6.00 Build 0)  -->
<!DOCTYPE svg PUBLIC "-//W3C//DTD SVG 1.1//EN" "http://www.w3.org/Graphics/SVG/1.1/DTD/svg11.dtd">
<svg version="1.1" id="Layer_1" xmlns="http://www.w3.org/2000/svg" xmlns:xlink="http://www.w3.org/1999/xlink" x="0px" y="0px"
	 width="64px" height="64px" viewBox="0 0 64 64" enable-background="new 0 0 64 64" xml:space="preserve">
<path d="M19,48.38037V60c0,0.55225,0.44727,1,1,1h40c0.55273,0,1-0.44775,1-1V4c0-0.55225-0.44727-1-1-1h-6
	c-0.37891,0-0.72461,0.21387-0.89453,0.55273L48,13.76416L42.89453,3.55273C42.72461,3.21387,42.37891,3,42,3H20
	c-0.55273,0-1,0.44775-1,1v25.91943l-8.375-6.7002c-0.39746-0.31787-0.9707-0.28711-1.33203,0.07373l-6,6
	c-0.37402,0.37451-0.39258,0.97559-0.04004,1.37158L19,48.38037z M10.07422,25.33984l9.30078,7.44092
	c0.2998,0.23975,0.71289,0.28564,1.05859,0.12061C20.7793,32.73486,21,32.38428,21,32V5h11v8c0,0.55225,0.44727,1,1,1s1-0.44775,1-1
	V5h7.38184l5.72363,11.44727c0.33984,0.67773,1.44922,0.67773,1.78906,0L54.61816,5H59v54H48v-8c0-0.55225-0.44727-1-1-1
	s-1,0.44775-1,1v8H34V44c0-0.55225-0.44727-1-1-1s-1,0.44775-1,1v15H21V48c0-0.24512-0.08984-0.48145-0.25293-0.66455
	L5.37402,30.04053L10.07422,25.33984z"/>
<path d="M33,39c0.55273,0,1-0.44775,1-1v-2c0-0.55225-0.44727-1-1-1s-1,0.44775-1,1v2C32,38.55225,32.44727,39,33,39z"/>
</svg>
