<?xml version="1.0" encoding="utf-8"?>
<!-- Generator: Adobe Illustrator 19.1.0, SVG Export Plug-In . SVG Version: 6.00 Build 0)  -->
<!DOCTYPE svg PUBLIC "-//W3C//DTD SVG 1.1//EN" "http://www.w3.org/Graphics/SVG/1.1/DTD/svg11.dtd">
<svg version="1.1" id="Layer_1" xmlns="http://www.w3.org/2000/svg" xmlns:xlink="http://www.w3.org/1999/xlink" x="0px" y="0px"
	 width="64px" height="64px" viewBox="0 0 64 64" enable-background="new 0 0 64 64" xml:space="preserve">
<path d="M62,11H44.94098C44.97754,10.6712,45,10.33838,45,10c0-4.9624-4.0376-9-9-9c-2.53125,0-4.88574,1.04883-6.58984,2.90723
	C28.36279,3.31104,27.2002,3,26,3c-3.85986,0-7,3.14014-7,7c0,0.34039,0.03265,0.67249,0.07983,1H2c-0.55225,0-1,0.44775-1,1
	c0,6.07782,4.15936,11.25299,10,12.62781V42c0,11.5791,9.42041,21,21,21s21-9.4209,21-21V24.62781
	C58.84064,23.25299,63,18.07782,63,12C63,11.44775,62.55225,11,62,11z M26,5c1.07617,0,2.11523,0.35645,3.00391,1.03076
	c0.21289,0.16064,0.48096,0.229,0.74414,0.19336c0.26416-0.03711,0.50195-0.17822,0.66162-0.3916C31.75391,4.03223,33.7915,3,36,3
	c3.85986,0,7,3.14014,7,7s-3.14014,7-7,7c-2.2085,0-4.24609-1.03223-5.59033-2.83252
	c-0.15967-0.21338-0.39746-0.35449-0.66162-0.3916c-0.04639-0.00635-0.09326-0.00977-0.13965-0.00977
	c-0.2168,0-0.42969,0.0708-0.60449,0.20312C28.11523,14.64355,27.07617,15,26,15c-2.75684,0-5-2.24316-5-5S23.24316,5,26,5z
	 M3.04443,13h14.04962c-3.31158,2.0968-5.56775,5.63568-6.00665,9.59161C6.66101,21.38782,3.45508,17.5752,3.04443,13z
	 M32.78027,49.42383c-0.38086,0.47656-1.1792,0.47754-1.56104-0.00098l-3.83887-4.79883
	c-0.24609-0.30762-0.29102-0.70215-0.12061-1.05762C27.43066,43.21191,27.76758,43,28.16113,43h7.67773
	c0.39355,0,0.73047,0.21191,0.90137,0.56641c0.17041,0.35547,0.12549,0.75-0.12061,1.05762L32.78027,49.42383z M51,42
	c0,10.13904-7.98938,18.42444-18,18.94934v-9.34045c0.51868-0.1842,0.98804-0.49316,1.34229-0.93604l3.83887-4.79883
	c0.72705-0.90918,0.86572-2.125,0.36182-3.17383C38.03857,41.65137,37.00244,41,35.83887,41h-7.67773
	c-1.16357,0-2.19971,0.65137-2.7041,1.7002c-0.50391,1.04883-0.36523,2.26465,0.36182,3.17383l3.83838,4.79785
	c0.35455,0.44348,0.82404,0.75269,1.34277,0.93695v9.34052C20.98938,60.42444,13,52.13904,13,42V24
	c0-4.55573,2.87622-8.67151,7.08185-10.27844C21.32257,15.6875,23.50836,17,26,17c1.2002,0,2.36279-0.31104,3.41016-0.90723
	C31.11426,17.95117,33.46875,19,36,19c3.60156,0,6.70721-2.13177,8.14447-5.19531C48.27997,15.46796,51,19.45782,51,24V42z
	 M52.91608,22.59058c-0.42651-3.9975-2.64374-7.50366-5.97443-9.59058h14.01392
	C60.54504,17.57397,57.34064,21.38574,52.91608,22.59058z"/>
<path d="M24,29c-2.75684,0-5,2.24316-5,5c0,0.55273,0.44775,1,1,1s1-0.44727,1-1c0-1.6543,1.3457-3,3-3s3,1.3457,3,3
	c0,0.55273,0.44775,1,1,1s1-0.44727,1-1C29,31.24316,26.75684,29,24,29z"/>
<path d="M40,29c-2.75684,0-5,2.24316-5,5c0,0.55273,0.44775,1,1,1s1-0.44727,1-1c0-1.6543,1.3457-3,3-3s3,1.3457,3,3
	c0,0.55273,0.44775,1,1,1s1-0.44727,1-1C45,31.24316,42.75684,29,40,29z"/>
</svg>
