<?xml version="1.0" encoding="utf-8"?>
<!-- Generator: Adobe Illustrator 19.1.0, SVG Export Plug-In . SVG Version: 6.00 Build 0)  -->
<!DOCTYPE svg PUBLIC "-//W3C//DTD SVG 1.1//EN" "http://www.w3.org/Graphics/SVG/1.1/DTD/svg11.dtd">
<svg version="1.1" id="Layer_1" xmlns="http://www.w3.org/2000/svg" xmlns:xlink="http://www.w3.org/1999/xlink" x="0px" y="0px"
	 width="64px" height="64px" viewBox="0 0 64 64" enable-background="new 0 0 64 64" xml:space="preserve">
<path d="M54,1c-3.74109,0-6.98895,2.25909-8.33545,5.6394C41.75958,4.3327,37.08136,3,32,3
	c-5.08118,0-9.75922,1.33258-13.66406,3.63916C16.98907,3.2594,13.74078,1,10,1c-4.9624,0-9,4.0376-9,9
	c0,4.3399,3.07489,7.95654,7.21521,8.7851C7.42883,21.04633,7,23.46808,7,26c0,7.2373,2.70361,16.30469,7.05566,23.66504
	C19.14014,58.26465,25.51318,63,32,63c13.80029,0,25-22.38867,25-37c0-2.53174-0.42877-4.95331-1.21503-7.21442
	C59.92529,17.95697,63,14.34027,63,10C63,5.0376,58.9624,1,54,1z M3,10c0-3.85986,3.14014-7,7-7
	c3.04291,0,5.64758,1.93372,6.59717,4.76685c-3.32861,2.36475-5.96826,5.49231-7.62836,9.12836C5.56842,16.39557,3,13.49652,3,10z
	 M32,61c-7.75977,0-13.49463-7.73926-16.22266-12.35254C11.66016,41.68457,9,32.79541,9,26
	c0-2.63434,0.50891-5.1394,1.43829-7.44366c0.0976-0.12927,0.16412-0.27814,0.18951-0.44666
	c1.54608-3.57758,4.12085-6.64441,7.41473-8.90961c0.20947-0.05499,0.37756-0.17834,0.50671-0.33447
	C22.30884,6.42621,26.93707,5,32,5c5.06305,0,9.69141,1.42627,13.45105,3.86578c0.12909,0.15613,0.29712,0.27936,0.50659,0.33441
	c3.29358,2.26501,5.86823,5.33167,7.41431,8.90887c0.02533,0.16931,0.0921,0.31879,0.19025,0.44849
	C54.49127,20.86151,55,23.36609,55,26C55,39.50195,44.47412,61,32,61z M55.03137,16.89563
	c-1.65997-3.63611-4.29962-6.76379-7.62823-9.1286C48.35223,4.93378,50.95703,3,54,3c3.85986,0,7,3.14014,7,7
	C61,13.49689,58.43164,16.39594,55.03137,16.89563z"/>
<path d="M40,43c-0.55225,0-1,0.44727-1,1v2c0,1.6543-1.3457,3-3,3s-3-1.3457-3-3v-4.39111
	c0.51868-0.1842,0.98804-0.49316,1.34229-0.93604l3.83887-4.79883c0.72705-0.90918,0.86572-2.125,0.36182-3.17334
	C38.03857,31.65137,37.00244,31,35.83887,31h-7.67773c-1.16357,0-2.19971,0.65137-2.7041,1.70068
	c-0.50391,1.04834-0.36523,2.26416,0.36182,3.17334l3.83838,4.79785c0.35455,0.44348,0.82404,0.75269,1.34277,0.93695V46
	c0,1.6543-1.3457,3-3,3s-3-1.3457-3-3v-2c0-0.55273-0.44775-1-1-1s-1,0.44727-1,1v2c0,2.75684,2.24316,5,5,5
	c1.6413,0,3.08777-0.80573,4-2.03094C32.91223,50.19427,34.3587,51,36,51c2.75684,0,5-2.24316,5-5v-2C41,43.44727,40.55225,43,40,43
	z M27.38037,34.62402c-0.24609-0.30762-0.29102-0.70215-0.12061-1.05762C27.43066,33.21191,27.76758,33,28.16113,33h7.67773
	c0.39355,0,0.73047,0.21191,0.90137,0.56641c0.17041,0.35547,0.12549,0.75-0.12061,1.05762l-3.83936,4.7998
	c-0.38086,0.47656-1.1792,0.47754-1.56104-0.00098L27.38037,34.62402z"/>
<path d="M26,22c0-2.20557-1.79443-4-4-4s-4,1.79443-4,4s1.79443,4,4,4S26,24.20557,26,22z M22,24c-1.10303,0-2-0.89697-2-2
	s0.89697-2,2-2s2,0.89697,2,2S23.10303,24,22,24z"/>
<path d="M42,18c-2.20557,0-4,1.79443-4,4s1.79443,4,4,4s4-1.79443,4-4S44.20557,18,42,18z M42,24c-1.10303,0-2-0.89697-2-2
	s0.89697-2,2-2s2,0.89697,2,2S43.10303,24,42,24z"/>
</svg>
