<?xml version="1.0" encoding="utf-8"?>
<!-- Generator: Adobe Illustrator 19.1.0, SVG Export Plug-In . SVG Version: 6.00 Build 0)  -->
<!DOCTYPE svg PUBLIC "-//W3C//DTD SVG 1.1//EN" "http://www.w3.org/Graphics/SVG/1.1/DTD/svg11.dtd">
<svg version="1.1" id="Layer_1" xmlns="http://www.w3.org/2000/svg" xmlns:xlink="http://www.w3.org/1999/xlink" x="0px" y="0px"
	 width="64px" height="64px" viewBox="0 0 64 64" enable-background="new 0 0 64 64" xml:space="preserve">
<path d="M22,13c-3.85938,0-7,3.14062-7,7s3.14062,7,7,7s7-3.14062,7-7S25.85938,13,22,13z M22,25c-2.75684,0-5-2.24316-5-5
	s2.24316-5,5-5s5,2.24316,5,5S24.75684,25,22,25z"/>
<path d="M32,1C14.40234,1,1,17.66211,1,26c0,3.63385,6.96277,7.31128,16.15417,9.35925l-1.64832,6.10657
	c-1.39648,5.1748-0.32812,10.58301,2.93066,14.83789C21.69531,60.55957,26.63867,63,31.99902,63s10.30273-2.44043,13.5625-6.69629
	c3.25879-4.25586,4.32617-9.66406,2.92969-14.83984l-1.63446-6.05621C56.1073,33.38806,63,29.71857,63,26
	C63,17.66211,49.59766,1,32,1z M57.03467,16.62738c-2.38678,2.17242-5.56726,3.46344-8.67139,3.46344
	c-6.96777,0-12.63574-5.66895-12.63574-12.63672c0-1.35645,0.24701-2.74365,0.69385-4.06348
	C45.17261,4.92657,52.69269,10.76453,57.03467,16.62738z M46.55957,41.98535c1.23438,4.56934,0.29102,9.34473-2.58594,13.10254
	C41.0957,58.84473,36.73145,61,31.99902,61s-9.09668-2.15527-11.97461-5.91211c-2.87695-3.75684-3.82031-8.53223-2.58691-13.10059
	l1.67926-6.22113C23.18622,36.54346,27.60406,37,32,37c4.43542,0,8.84662-0.43872,12.89221-1.19275L46.55957,41.98535z M32,35
	c-16.46289,0-29-5.99805-29-9C3,18.22754,16.12988,3,32,3c0.80731,0,1.60535,0.04913,2.39709,0.12494
	c-0.43634,1.41205-0.66956,2.88599-0.66956,4.32916c0,8.07031,6.56543,14.63672,14.63574,14.63672
	c3.50665,0,7.09192-1.41168,9.81934-3.80414C59.98468,21.1087,61,23.84192,61,26C61,29.08105,48.75391,35,32,35z"/>
</svg>
