<?xml version="1.0" encoding="utf-8"?>
<!-- Generator: Adobe Illustrator 19.1.0, SVG Export Plug-In . SVG Version: 6.00 Build 0)  -->
<!DOCTYPE svg PUBLIC "-//W3C//DTD SVG 1.1//EN" "http://www.w3.org/Graphics/SVG/1.1/DTD/svg11.dtd">
<svg version="1.1" id="Layer_1" xmlns="http://www.w3.org/2000/svg" xmlns:xlink="http://www.w3.org/1999/xlink" x="0px" y="0px"
	 width="64px" height="64px" viewBox="0 0 64 64" enable-background="new 0 0 64 64" xml:space="preserve">
<path d="M32,63c1.26562,0,31-0.06836,31-6c0-0.28809-0.06934-0.57422-0.20703-0.85254l-6.7951-23.29736
	c-0.03021-0.85614-0.54865-2.68927-9.20276-3.92322l2.61896-4.57483c1.91113,0.8374,4.03223,0.99805,6.07617,0.44141
	c4.88477-1.32764,7.7793-6.38281,6.45215-11.26855c-1.24414-4.57471-5.75586-7.40576-10.33789-6.6543
	c-0.75488-1.96387-2.15039-3.59521-4.00195-4.65479c-2.12793-1.21875-4.60156-1.53711-6.9707-0.89209
	c-2.36621,0.64307-4.34082,2.16943-5.55957,4.29785s-1.53516,4.604-0.8916,6.9707c0.55566,2.04199,1.76758,3.79199,3.45508,5.01611
	L31.677,28.00079c-3.51825,0.01422-22.86255,0.29767-23.63861,4.72504L1.20703,56.14746C1.06934,56.42578,1,56.71191,1,57
	C1,62.93164,30.73438,63,32,63z M53.94824,33.00293c-0.66473,0.7619-4.45801,1.86328-10.91602,2.49695l2.69049-4.69977
	C51.4859,31.55591,53.52856,32.56488,53.94824,33.00293z M39.93945,17.02197c-0.06934-0.25586-0.2373-0.47363-0.46777-0.60547
	c-1.66406-0.95264-2.85742-2.49707-3.36133-4.34863c-0.50293-1.85156-0.25586-3.7876,0.69824-5.45264
	c0.95312-1.66455,2.49707-2.8584,4.34863-3.36182c1.85059-0.50146,3.78711-0.25537,5.45215,0.69824
	c1.66406,0.95312,2.8584,2.49756,3.36133,4.34863c0.06934,0.25586,0.2373,0.47363,0.46777,0.60547
	c0.22949,0.13184,0.50195,0.16602,0.75977,0.09717c3.81836-1.03857,7.77539,1.22461,8.81445,5.04639
	c1.03809,3.82178-1.22656,7.77588-5.04785,8.81445c-1.85059,0.50342-3.78613,0.25635-5.45117-0.69775
	c-0.23047-0.13281-0.50391-0.16699-0.75879-0.09717c-0.25684,0.06934-0.47461,0.23779-0.60645,0.46777l-3.82678,6.6842
	c-0.00165,0.00281-0.00311,0.00543-0.00476,0.00824l-3.70776,6.47638C38.0672,35.88831,35.19531,36,32,36
	c-0.88959,0-1.75-0.00995-2.59009-0.02618L39.8418,17.78174C39.97363,17.55127,40.00879,17.27832,39.93945,17.02197z
	 M30.52319,30.01306l-3.38098,5.89655C16.90979,35.52441,10.89343,33.97968,10.04883,33
	C10.98236,31.91718,18.24304,30.14752,30.52319,30.01306z M3.09863,56.80469l6.36755-21.83148
	c3.51562,2.10413,12.54871,2.74683,18.12109,2.94183c0.04034,0.00494,0.08038,0.01562,0.12073,0.01562
	c0.02356,0,0.04614-0.00739,0.06952-0.00903C29.86084,37.99182,31.43634,38,32,38c2.06659,0,17.64435-0.1004,22.53381-3.02679
	l6.36755,21.83148c0.02148,0.07422,0.06445,0.09277,0.10352,0.16113C60.49121,58.41309,50.36035,61,32,61
	S3.50879,58.41309,3.00781,57.01855C3.04688,56.95117,3.07715,56.87891,3.09863,56.80469z"/>
</svg>
