<?xml version="1.0" encoding="utf-8"?>
<!-- Generator: Adobe Illustrator 19.1.0, SVG Export Plug-In . SVG Version: 6.00 Build 0)  -->
<!DOCTYPE svg PUBLIC "-//W3C//DTD SVG 1.1//EN" "http://www.w3.org/Graphics/SVG/1.1/DTD/svg11.dtd">
<svg version="1.1" id="Layer_1" xmlns="http://www.w3.org/2000/svg" xmlns:xlink="http://www.w3.org/1999/xlink" x="0px" y="0px"
	 width="32px" height="32px" viewBox="0 0 32 32" enable-background="new 0 0 32 32" xml:space="preserve">
<path d="M22,15c-0.8291,0-1.59979,0.25391-2.2392,0.6875C19.21442,14.12799,17.74353,13,16,13s-3.21442,1.12799-3.7608,2.6875
	C11.59979,15.25391,10.8291,15,10,15c-2.20557,0-4,1.79395-4,4v12c0,0.55273,0.44775,1,1,1s1-0.44727,1-1V19
	c0-1.10254,0.89697-2,2-2s2,0.89746,2,2v12c0,0.55273,0.44775,1,1,1s1-0.44727,1-1V17c0-1.10254,0.89697-2,2-2s2,0.89746,2,2v14
	c0,0.55273,0.44775,1,1,1s1-0.44727,1-1V19c0-1.10254,0.89697-2,2-2s2,0.89746,2,2v12c0,0.55273,0.44775,1,1,1s1-0.44727,1-1V19
	C26,16.79395,24.20557,15,22,15z"/>
<path d="M29,6H5.41406l2.29297-2.29297c0.39062-0.39062,0.39062-1.02344,0-1.41406s-1.02344-0.39062-1.41406,0L2.29382,6.29211
	C2.20123,6.38446,2.12793,6.49518,2.07709,6.61792C1.97601,6.8623,1.97607,7.1377,2.07715,7.38208
	c0.05078,0.12274,0.12408,0.23346,0.21667,0.32581l3.99915,3.99915C6.48828,11.90234,6.74414,12,7,12
	s0.51172-0.09766,0.70703-0.29297c0.39062-0.39062,0.39062-1.02344,0-1.41406L5.41406,8H29c0.55225,0,1-0.44727,1-1S29.55225,6,29,6
	z"/>
</svg>
