<?xml version="1.0" encoding="utf-8"?>
<!-- Generator: Adobe Illustrator 19.1.0, SVG Export Plug-In . SVG Version: 6.00 Build 0)  -->
<!DOCTYPE svg PUBLIC "-//W3C//DTD SVG 1.1//EN" "http://www.w3.org/Graphics/SVG/1.1/DTD/svg11.dtd">
<svg version="1.1" id="Layer_1" xmlns="http://www.w3.org/2000/svg" xmlns:xlink="http://www.w3.org/1999/xlink" x="0px" y="0px"
	 width="32px" height="32px" viewBox="0 0 32 32" enable-background="new 0 0 32 32" xml:space="preserve">
<path d="M5.29211,18.70618c0.09235,0.09259,0.20306,0.16589,0.32581,0.21667C5.74011,18.97339,5.86981,19,6,19
	s0.25989-0.02655,0.38208-0.07709c0.12274-0.05084,0.23346-0.12415,0.32581-0.21674l3.99915-3.99915
	c0.39062-0.39062,0.39062-1.02344,0-1.41406s-1.02344-0.39062-1.41406,0L7,15.58594V5c0-0.55225-0.44727-1-1-1S5,4.44775,5,5
	v10.58594l-2.29297-2.29297c-0.39062-0.39062-1.02344-0.39062-1.41406,0s-0.39062,1.02344,0,1.41406L5.29211,18.70618z"/>
<path d="M28.30664,14.49365L25,13.89258V6c0-1.6543-1.3457-3-3-3c-1.06055,0-1.99414,0.55322-2.52832,1.38672
	C19.03711,4.14062,18.53418,4,18,4c-1.6543,0-3,1.3457-3,3v9h-1c-1.6543,0-3,1.3457-3,3v2.89551
	c0,1.58301,0.54492,3.13574,1.5332,4.37256l2.68555,3.35645C15.40918,29.86182,15.69629,30,16,30h13
	c0.49316,0,0.91309-0.36035,0.98828-0.84814l1.55566-10.11426C31.87598,16.88037,30.4541,14.88477,28.30664,14.49365z
	 M29.56738,18.73389L28.1416,28H16.48047l-2.38477-2.98096C13.38867,24.13525,13,23.02588,13,21.89551V19c0-0.55127,0.44824-1,1-1h1
	v2c0,0.55225,0.44727,1,1,1s1-0.44775,1-1v-3V7c0-0.55127,0.44824-1,1-1s1,0.44873,1,1v8c0,0.55225,0.44727,1,1,1s1-0.44775,1-1V7V6
	c0-0.55127,0.44824-1,1-1s1,0.44873,1,1v8.72705c0,0.4834,0.3457,0.89746,0.82129,0.98389l4.12793,0.75049
	C29.02246,16.65674,29.7334,17.65479,29.56738,18.73389z"/>
</svg>
