<?xml version="1.0" encoding="utf-8"?>
<!-- Generator: Adobe Illustrator 19.1.0, SVG Export Plug-In . SVG Version: 6.00 Build 0)  -->
<!DOCTYPE svg PUBLIC "-//W3C//DTD SVG 1.1//EN" "http://www.w3.org/Graphics/SVG/1.1/DTD/svg11.dtd">
<svg version="1.1" id="Layer_1" xmlns="http://www.w3.org/2000/svg" xmlns:xlink="http://www.w3.org/1999/xlink" x="0px" y="0px"
	 width="32px" height="32px" viewBox="0 0 32 32" enable-background="new 0 0 32 32" xml:space="preserve">
<path d="M30.70673,15.29266l-4.99969-4.99969c-0.39062-0.39062-1.02344-0.39062-1.41406,0s-0.39062,1.02344,0,1.41406L27.58594,15
	h-9.64496C17.44147,10.50702,13.62402,7,9,7c-4.9624,0-9,4.0376-9,9s4.0376,9,9,9c4.62402,0,8.44147-3.50702,8.94098-8h9.64496
	l-3.29297,3.29297c-0.39062,0.39062-0.39062,1.02344,0,1.41406C24.48828,21.90234,24.74414,22,25,22
	s0.51172-0.09766,0.70703-0.29297l4.99969-4.99969c0.09229-0.09216,0.16534-0.20282,0.21606-0.3252
	c0.10114-0.24451,0.10114-0.51978,0-0.76428C30.87207,15.49548,30.79901,15.38483,30.70673,15.29266z M9,23
	c-3.85986,0-7-3.14014-7-7s3.14014-7,7-7s7,3.14014,7,7S12.85986,23,9,23z"/>
</svg>
