<?xml version="1.0" encoding="utf-8"?>
<!-- Generator: Adobe Illustrator 19.1.0, SVG Export Plug-In . SVG Version: 6.00 Build 0)  -->
<!DOCTYPE svg PUBLIC "-//W3C//DTD SVG 1.1//EN" "http://www.w3.org/Graphics/SVG/1.1/DTD/svg11.dtd">
<svg version="1.1" id="Layer_1" xmlns="http://www.w3.org/2000/svg" xmlns:xlink="http://www.w3.org/1999/xlink" x="0px" y="0px"
	 width="32px" height="32px" viewBox="0 0 32 32" enable-background="new 0 0 32 32" xml:space="preserve">
<path d="M9.21875,31.62451C9.40918,31.86182,9.69629,32,10,32h13c0.49316,0,0.91309-0.36035,0.98828-0.84814l1.55566-10.11426
	c0.33203-2.15723-1.08984-4.15283-3.2373-4.54395L19,15.89258V8c0-1.6543-1.3457-3-3-3c-1.06055,0-1.99414,0.55322-2.52832,1.38672
	C13.03711,6.14062,12.53418,6,12,6c-1.6543,0-3,1.3457-3,3v9H8c-1.6543,0-3,1.3457-3,3v2.89551
	c0,1.58301,0.54492,3.13574,1.5332,4.37256L9.21875,31.62451z M7,21c0-0.55127,0.44824-1,1-1h1v2c0,0.55225,0.44727,1,1,1
	s1-0.44775,1-1v-3V9c0-0.55127,0.44824-1,1-1s1,0.44873,1,1v8c0,0.55225,0.44727,1,1,1s1-0.44775,1-1V9V8c0-0.55127,0.44824-1,1-1
	s1,0.44873,1,1v8.72705c0,0.4834,0.3457,0.89746,0.82129,0.98389l4.12793,0.75049c1.07324,0.19531,1.78418,1.19336,1.61816,2.27246
	L22.1416,30H10.48047L8.0957,27.01904C7.38867,26.13525,7,25.02588,7,23.89551V21z"/>
<path d="M7.57031,13.86279c0.47754-0.27637,0.6416-0.88818,0.36426-1.36621C7.32324,11.43994,7,10.23096,7,9
	c0-3.85986,3.14062-7,7-7s7,3.14014,7,7c0,1.23096-0.32324,2.44141-0.93555,3.5c-0.27734,0.47803-0.11328,1.08936,0.36426,1.36621
	c0.1582,0.09131,0.33008,0.13428,0.5,0.13428c0.3457,0,0.68164-0.17871,0.86621-0.49951C22.58301,12.13867,23,10.58203,23,9
	c0-4.9624-4.03711-9-9-9S5,4.0376,5,9c0,1.58252,0.41602,3.13818,1.2041,4.49854
	C6.48047,13.97607,7.09277,14.13867,7.57031,13.86279z"/>
</svg>
