<?xml version="1.0" encoding="utf-8"?>
<!-- Generator: Adobe Illustrator 19.1.0, SVG Export Plug-In . SVG Version: 6.00 Build 0)  -->
<!DOCTYPE svg PUBLIC "-//W3C//DTD SVG 1.1//EN" "http://www.w3.org/Graphics/SVG/1.1/DTD/svg11.dtd">
<svg version="1.1" id="Layer_1" xmlns="http://www.w3.org/2000/svg" xmlns:xlink="http://www.w3.org/1999/xlink" x="0px" y="0px"
	 width="32px" height="32px" viewBox="0 0 32 32" enable-background="new 0 0 32 32" xml:space="preserve">
<path d="M7,21v2.89551c0,1.58301,0.54492,3.13623,1.53418,4.37256l2.68506,3.35645C11.40869,31.86182,11.69629,32,12,32h13
	c0.49365,0,0.91309-0.36035,0.98828-0.84814l1.55615-10.11426c0.33203-2.15723-1.09033-4.15332-3.23779-4.54395h-0.00049
	L17,15.16553V10c0-1.6543-1.3457-3-3-3s-3,1.3457-3,3v8h-1C8.3457,18,7,19.3457,7,21z M13,10c0-0.55127,0.44873-1,1-1s1,0.44873,1,1
	v6c0,0.4834,0.3457,0.89746,0.82129,0.98389l8.12695,1.47754c1.07422,0.19531,1.78564,1.19336,1.61963,2.27246L24.14209,30H12.48047
	l-2.38477-2.98096C9.38916,26.13525,9,25.02637,9,23.89551V21c0-0.55127,0.44873-1,1-1h1v2c0,0.55225,0.44775,1,1,1s1-0.44775,1-1
	v-3V10z"/>
<path d="M14,4c0.55225,0,1-0.44775,1-1V1c0-0.55225-0.44775-1-1-1s-1,0.44775-1,1v2C13,3.55225,13.44775,4,14,4z"/>
<path d="M18.94971,6.05029c0.25586,0,0.51172-0.09766,0.70703-0.29297l1.41406-1.41406c0.39062-0.39062,0.39062-1.02344,0-1.41406
	s-1.02344-0.39062-1.41406,0l-1.41406,1.41406c-0.39062,0.39062-0.39062,1.02344,0,1.41406
	C18.43799,5.95264,18.69385,6.05029,18.94971,6.05029z"/>
<path d="M20,10c0,0.55225,0.44775,1,1,1h2c0.55225,0,1-0.44775,1-1s-0.44775-1-1-1h-2C20.44775,9,20,9.44775,20,10z"/>
<path d="M8.34326,5.75732c0.19531,0.19531,0.45117,0.29297,0.70703,0.29297s0.51172-0.09766,0.70703-0.29297
	c0.39062-0.39062,0.39062-1.02344,0-1.41406L8.34326,2.9292c-0.39062-0.39062-1.02344-0.39062-1.41406,0s-0.39062,1.02344,0,1.41406
	L8.34326,5.75732z"/>
<path d="M5,11h2c0.55225,0,1-0.44775,1-1S7.55225,9,7,9H5c-0.55225,0-1,0.44775-1,1S4.44775,11,5,11z"/>
</svg>
