<?xml version="1.0" encoding="utf-8"?>
<!-- Generator: Adobe Illustrator 19.1.0, SVG Export Plug-In . SVG Version: 6.00 Build 0)  -->
<!DOCTYPE svg PUBLIC "-//W3C//DTD SVG 1.1//EN" "http://www.w3.org/Graphics/SVG/1.1/DTD/svg11.dtd">
<svg version="1.1" id="Layer_1" xmlns="http://www.w3.org/2000/svg" xmlns:xlink="http://www.w3.org/1999/xlink" x="0px" y="0px"
	 width="32px" height="32px" viewBox="0 0 32 32" enable-background="new 0 0 32 32" xml:space="preserve">
<path d="M30.70673,15.29266l-3.99969-3.99969c-0.39062-0.39062-1.02344-0.39062-1.41406,0s-0.39062,1.02344,0,1.41406L27.58594,15
	h-5.67627C21.48639,12.49286,19.50714,10.51361,17,10.09033V4.41406l2.29297,2.29297C19.48828,6.90234,19.74414,7,20,7
	s0.51172-0.09766,0.70703-0.29297c0.39062-0.39062,0.39062-1.02344,0-1.41406l-3.99969-3.99969
	c-0.09216-0.09229-0.20282-0.16534-0.3252-0.21606c-0.24451-0.10114-0.51978-0.10114-0.76428,0
	c-0.12238,0.05072-0.23303,0.12378-0.3252,0.21606l-3.99969,3.99969c-0.39062,0.39062-0.39062,1.02344,0,1.41406
	s1.02344,0.39062,1.41406,0L15,4.41406v5.67627C12.49286,10.51361,10.51361,12.49286,10.09033,15H4.41406l2.29297-2.29297
	c0.39062-0.39062,0.39062-1.02344,0-1.41406s-1.02344-0.39062-1.41406,0l-3.99969,3.99969
	c-0.09229,0.09216-0.16534,0.20282-0.21606,0.3252c-0.10114,0.24451-0.10114,0.51978,0,0.76428
	c0.05072,0.12238,0.12378,0.23303,0.21606,0.3252l3.99969,3.99969C5.48828,20.90234,5.74414,21,6,21
	s0.51172-0.09766,0.70703-0.29297c0.39062-0.39062,0.39062-1.02344,0-1.41406L4.41406,17h5.67627
	c0.42328,2.50714,2.40253,4.48639,4.90967,4.90967v5.67627l-2.29297-2.29297c-0.39062-0.39062-1.02344-0.39062-1.41406,0
	s-0.39062,1.02344,0,1.41406l3.99933,3.99933c0.09235,0.09253,0.20306,0.16577,0.32568,0.21655C15.74017,30.97345,15.86981,31,16,31
	s0.25983-0.02655,0.38202-0.07709c0.12262-0.05078,0.23334-0.12402,0.32568-0.21655l3.99933-3.99933
	c0.39062-0.39062,0.39062-1.02344,0-1.41406s-1.02344-0.39062-1.41406,0L17,27.58594v-5.67627
	c2.50714-0.42328,4.48639-2.40253,4.90967-4.90967h5.67627l-2.29297,2.29297c-0.39062,0.39062-0.39062,1.02344,0,1.41406
	C25.48828,20.90234,25.74414,21,26,21s0.51172-0.09766,0.70703-0.29297l3.99969-3.99969
	c0.09229-0.09216,0.16534-0.20282,0.21606-0.3252c0.10114-0.24451,0.10114-0.51978,0-0.76428
	C30.87207,15.49548,30.79901,15.38483,30.70673,15.29266z M16,20c-2.20557,0-4-1.79395-4-4c0-2.20557,1.79443-4,4-4s4,1.79443,4,4
	C20,18.20605,18.20557,20,16,20z"/>
</svg>
