<?xml version="1.0" encoding="utf-8"?>
<!-- Generator: Adobe Illustrator 19.1.0, SVG Export Plug-In . SVG Version: 6.00 Build 0)  -->
<!DOCTYPE svg PUBLIC "-//W3C//DTD SVG 1.1//EN" "http://www.w3.org/Graphics/SVG/1.1/DTD/svg11.dtd">
<svg version="1.1" id="Layer_1" xmlns="http://www.w3.org/2000/svg" xmlns:xlink="http://www.w3.org/1999/xlink" x="0px" y="0px"
	 width="32px" height="32px" viewBox="0 0 32 32" enable-background="new 0 0 32 32" xml:space="preserve">
<path d="M26.72949,11.28809L18,10.12402V3.64355c0-1.85645-1.37988-3.44824-3.14258-3.62598
	c-0.99414-0.10156-1.97461,0.22461-2.70508,0.88672C11.41992,1.56738,11,2.5127,11,3.5v13.5166
	c0,0.33496-0.24805,0.44629-0.35449,0.47852c-0.10449,0.03418-0.375,0.0791-0.56055-0.19922l-1.66504-2.4834
	c-1.1875-1.77246-3.5498-2.2998-5.38086-1.20215C1.1582,14.73828,0.5459,17.18652,1.6748,19.06836l7.46777,12.44629
	C9.32324,31.81543,9.64844,32,10,32h18c0.46875,0,0.875-0.3252,0.97656-0.7832l2.81738-12.67969
	c0.36328-1.63672,0.02148-3.36328-0.93848-4.7373C29.89551,12.4248,28.3916,11.50977,26.72949,11.28809z M29.84082,18.10352
	L27.19824,30H10.56641L3.38965,18.03906c-0.27148-0.45312-0.35059-0.98438-0.22266-1.49707s0.44824-0.94531,0.90137-1.2168
	c0.91504-0.54883,2.09766-0.2832,2.68945,0.60059l1.66602,2.48438c0.62695,0.93359,1.72656,1.32617,2.80469,0.99805
	C12.30469,19.08105,13,18.1416,13,17.0166V3.5c0-0.42871,0.17578-0.82422,0.49414-1.1123s0.73633-0.42773,1.16406-0.37988
	C15.41016,2.08301,16,2.80176,16,3.64355V11c0,0.50098,0.37109,0.9248,0.86816,0.99121l9.59766,1.2793
	c1.12402,0.15039,2.10059,0.74414,2.75,1.67383S30.08691,16.99609,29.84082,18.10352z"/>
</svg>
