<?xml version="1.0" encoding="utf-8"?>
<!-- Generator: Adobe Illustrator 19.1.0, SVG Export Plug-In . SVG Version: 6.00 Build 0)  -->
<!DOCTYPE svg PUBLIC "-//W3C//DTD SVG 1.1//EN" "http://www.w3.org/Graphics/SVG/1.1/DTD/svg11.dtd">
<svg version="1.1" id="Layer_1" xmlns="http://www.w3.org/2000/svg" xmlns:xlink="http://www.w3.org/1999/xlink" x="0px" y="0px"
	 width="32px" height="32px" viewBox="0 0 32 32" enable-background="new 0 0 32 32" xml:space="preserve">
<path d="M14.07721,7.38214c0.05072,0.12238,0.12378,0.23303,0.21606,0.3252l3.99969,3.99969C18.48828,11.90234,18.74414,12,19,12
	s0.51172-0.09766,0.70703-0.29297c0.39062-0.39062,0.39062-1.02344,0-1.41406L17.41406,8H28c0.55225,0,1-0.44775,1-1s-0.44775-1-1-1
	H17.41406l2.29297-2.29297c0.39062-0.39062,0.39062-1.02344,0-1.41406s-1.02344-0.39062-1.41406,0l-3.99969,3.99969
	c-0.09229,0.09216-0.16534,0.20282-0.21606,0.3252C13.97607,6.86237,13.97607,7.13763,14.07721,7.38214z"/>
<path d="M6.21924,29.62451C6.40869,29.86182,6.69629,30,7,30h13c0.49365,0,0.91309-0.36035,0.98828-0.84814l1.55615-10.11426
	c0.33203-2.15723-1.09033-4.15332-3.23779-4.54395h-0.00049L12,13.16553V7c0-1.6543-1.3457-3-3-3S6,5.3457,6,7v9H5
	c-1.6543,0-3,1.3457-3,3v2.89551c0,1.58301,0.54492,3.13623,1.53418,4.37256L6.21924,29.62451z M4,19c0-0.55127,0.44873-1,1-1h1v2
	c0,0.55225,0.44775,1,1,1s1-0.44775,1-1v-3V7c0-0.55127,0.44873-1,1-1s1,0.44873,1,1v7c0,0.4834,0.3457,0.89746,0.82129,0.98389
	l8.12695,1.47754c1.07422,0.19531,1.78564,1.19336,1.61963,2.27246L19.14209,28H7.48047L5.0957,25.01904
	C4.38916,24.13525,4,23.02637,4,21.89551V19z"/>
</svg>
