<?xml version="1.0" encoding="utf-8"?>
<!-- Generator: Adobe Illustrator 19.1.0, SVG Export Plug-In . SVG Version: 6.00 Build 0)  -->
<!DOCTYPE svg PUBLIC "-//W3C//DTD SVG 1.1//EN" "http://www.w3.org/Graphics/SVG/1.1/DTD/svg11.dtd">
<svg version="1.1" id="Layer_1" xmlns="http://www.w3.org/2000/svg" xmlns:xlink="http://www.w3.org/1999/xlink" x="0px" y="0px"
	 width="32px" height="32px" viewBox="0 0 32 32" enable-background="new 0 0 32 32" xml:space="preserve">
<path d="M16,1c-2.20605,0-4,1.79443-4,4s1.79395,4,4,4s4-1.79443,4-4S18.20605,1,16,1z M16,7c-1.10254,0-2-0.89697-2-2
	s0.89746-2,2-2s2,0.89697,2,2S17.10254,7,16,7z"/>
<path d="M27,1c-2.20605,0-4,1.79443-4,4s1.79395,4,4,4s4-1.79443,4-4S29.20605,1,27,1z M27,7c-1.10254,0-2-0.89697-2-2
	s0.89746-2,2-2s2,0.89697,2,2S28.10254,7,27,7z"/>
<path d="M27,12c-2.20605,0-4,1.79443-4,4c0,2.20605,1.79395,4,4,4s4-1.79395,4-4C31,13.79443,29.20605,12,27,12z M27,18
	c-1.10254,0-2-0.89746-2-2c0-1.10303,0.89746-2,2-2s2,0.89697,2,2C29,17.10254,28.10254,18,27,18z"/>
<path d="M9,27c0-2.20605-1.79395-4-4-4s-4,1.79395-4,4s1.79395,4,4,4S9,29.20605,9,27z M5,29c-1.10254,0-2-0.89746-2-2
	s0.89746-2,2-2s2,0.89746,2,2S6.10254,29,5,29z"/>
<path d="M27,23c-1.8587,0-3.41095,1.27948-3.85803,3h-3.28394C19.49451,24.60101,18.39899,23.50549,17,23.14197v-3.28394
	C18.72052,19.41095,20,17.8587,20,16c0-2.20557-1.79395-4-4-4c-1.8587,0-3.41083,1.27972-3.85797,3H8.85797
	C8.49438,13.6012,7.39899,12.50562,6,12.14197V8.85803C7.72052,8.41083,9,6.85834,9,5c0-2.20557-1.79395-4-4-4S1,2.79443,1,5
	c0,1.85834,1.27948,3.41083,3,3.85803v3.28394C2.27948,12.58917,1,14.14166,1,16c0,2.20605,1.79395,4,4,4
	c1.8587,0,3.41095-1.27948,3.85803-3h3.28394c0.36353,1.39899,1.45905,2.49451,2.85803,2.85803v3.28394
	C13.27948,23.58905,12,25.1413,12,27c0,2.20605,1.79395,4,4,4c1.8587,0,3.41095-1.27948,3.85803-3h3.28394
	C23.58905,29.72052,25.1413,31,27,31c2.20605,0,4-1.79395,4-4S29.20605,23,27,23z M3,5c0-1.10303,0.89746-2,2-2s2,0.89697,2,2
	S6.10254,7,5,7S3,6.10303,3,5z M5,18c-1.10254,0-2-0.89746-2-2c0-1.10303,0.89746-2,2-2s2,0.89697,2,2C7,17.10254,6.10254,18,5,18z
	 M14,16c0-1.10303,0.89746-2,2-2s2,0.89697,2,2c0,1.10254-0.89746,2-2,2S14,17.10254,14,16z M16,29c-1.10254,0-2-0.89746-2-2
	s0.89746-2,2-2s2,0.89746,2,2S17.10254,29,16,29z M27,29c-1.10254,0-2-0.89746-2-2s0.89746-2,2-2s2,0.89746,2,2S28.10254,29,27,29z"
	/>
</svg>
