<?xml version="1.0" encoding="utf-8"?>
<!-- Generator: Adobe Illustrator 19.1.0, SVG Export Plug-In . SVG Version: 6.00 Build 0)  -->
<!DOCTYPE svg PUBLIC "-//W3C//DTD SVG 1.1//EN" "http://www.w3.org/Graphics/SVG/1.1/DTD/svg11.dtd">
<svg version="1.1" id="Layer_1" xmlns="http://www.w3.org/2000/svg" xmlns:xlink="http://www.w3.org/1999/xlink" x="0px" y="0px"
	 width="32px" height="32px" viewBox="0 0 32 32" enable-background="new 0 0 32 32" xml:space="preserve">
<path d="M2.70703,9.70703L5,7.41406V18c0,0.55225,0.44727,1,1,1s1-0.44775,1-1V7.41406l2.29297,2.29297
	C9.48828,9.90234,9.74414,10,10,10s0.51172-0.09766,0.70703-0.29297c0.39062-0.39062,0.39062-1.02344,0-1.41406L6.70789,4.29382
	C6.61554,4.20123,6.50482,4.12793,6.38208,4.07709C6.1377,3.97601,5.8623,3.97607,5.61792,4.07715
	C5.49518,4.12793,5.38446,4.20123,5.29211,4.29382L1.29297,8.29297c-0.39062,0.39062-0.39062,1.02344,0,1.41406
	S2.31641,10.09766,2.70703,9.70703z"/>
<path d="M25,6c0-1.6543-1.3457-3-3-3c-1.06055,0-1.99414,0.55322-2.52832,1.38672C19.03711,4.14062,18.53418,4,18,4
	c-1.6543,0-3,1.3457-3,3v9h-1c-1.6543,0-3,1.3457-3,3v2.89551c0,1.58301,0.54492,3.13574,1.5332,4.37256l2.68555,3.35645
	C15.40918,29.86182,15.69629,30,16,30h13c0.49316,0,0.91309-0.36035,0.98828-0.84814l1.55566-10.11426
	c0.33203-2.15723-1.08984-4.15283-3.2373-4.54395L25,13.89258V6z M27.94922,16.46143
	c1.07324,0.19531,1.78418,1.19336,1.61816,2.27246L28.1416,28H16.48047l-2.38477-2.98096C13.38867,24.13525,13,23.02588,13,21.89551
	V19c0-0.55127,0.44824-1,1-1h1v2c0,0.55225,0.44727,1,1,1s1-0.44775,1-1v-3V7c0-0.55127,0.44824-1,1-1s1,0.44873,1,1v8
	c0,0.55225,0.44727,1,1,1s1-0.44775,1-1V7V6c0-0.55127,0.44824-1,1-1s1,0.44873,1,1v8.72705
	c0,0.4834,0.3457,0.89746,0.82129,0.98389L27.94922,16.46143z"/>
</svg>
