<?xml version="1.0" encoding="utf-8"?>
<!-- Generator: Adobe Illustrator 19.1.0, SVG Export Plug-In . SVG Version: 6.00 Build 0)  -->
<!DOCTYPE svg PUBLIC "-//W3C//DTD SVG 1.1//EN" "http://www.w3.org/Graphics/SVG/1.1/DTD/svg11.dtd">
<svg version="1.1" id="Layer_1" xmlns="http://www.w3.org/2000/svg" xmlns:xlink="http://www.w3.org/1999/xlink" x="0px" y="0px"
	 width="32px" height="32px" viewBox="0 0 32 32" enable-background="new 0 0 32 32" xml:space="preserve">
<path d="M3,10c0.55225,0,1-0.44775,1-1V4h5c0.55225,0,1-0.44775,1-1S9.55225,2,9,2H3C2.44775,2,2,2.44775,2,3v6
	C2,9.55225,2.44775,10,3,10z"/>
<path d="M23,2c-0.55225,0-1,0.44775-1,1s0.44775,1,1,1h5v5c0,0.55225,0.44775,1,1,1s1-0.44775,1-1V3c0-0.55225-0.44775-1-1-1H23z"/>
<path d="M29,30c0.55225,0,1-0.44727,1-1v-6c0-0.55273-0.44775-1-1-1s-1,0.44727-1,1v5h-5c-0.55225,0-1,0.44727-1,1s0.44775,1,1,1H29
	z"/>
<path d="M3,22c-0.55225,0-1,0.44727-1,1v6c0,0.55273,0.44775,1,1,1h6c0.55225,0,1-0.44727,1-1s-0.44775-1-1-1H4v-5
	C4,22.44727,3.55225,22,3,22z"/>
<path d="M31,15H1c-0.55225,0-1,0.44775-1,1s0.44775,1,1,1h30c0.55225,0,1-0.44775,1-1S31.55225,15,31,15z"/>
</svg>
