<?xml version="1.0" encoding="utf-8"?>
<!-- Generator: Adobe Illustrator 19.1.0, SVG Export Plug-In . SVG Version: 6.00 Build 0)  -->
<!DOCTYPE svg PUBLIC "-//W3C//DTD SVG 1.1//EN" "http://www.w3.org/Graphics/SVG/1.1/DTD/svg11.dtd">
<svg version="1.1" id="Layer_1" xmlns="http://www.w3.org/2000/svg" xmlns:xlink="http://www.w3.org/1999/xlink" x="0px" y="0px"
	 width="32px" height="32px" viewBox="0 0 32 32" enable-background="new 0 0 32 32" xml:space="preserve">
<path d="M28.44287,16.4292L22,15.04834v-3.94141c0-1.51562-1.07617-2.83398-2.50342-3.06641
	c-0.87842-0.14404-1.76855,0.10205-2.43945,0.67383C16.38525,9.28564,16,10.11865,16,11v11.23389l-2.4292-1.45752
	c-0.96973-0.58203-2.20654-0.5542-3.15039,0.07471c-0.7373,0.4917-1.20996,1.2793-1.29736,2.16113s0.22217,1.74707,0.84863,2.37354
	l6.32129,6.32129C16.48047,31.89453,16.73486,32,17,32h12c0.49365,0,0.91309-0.35986,0.98828-0.84814l1.56982-10.20264
	C31.87988,18.85742,30.51172,16.87207,28.44287,16.4292z M29.58154,20.64502L28.14209,30H17.41406l-6.02832-6.02832
	c-0.27539-0.27539-0.28906-0.59619-0.27246-0.76221c0.0166-0.1665,0.09229-0.47803,0.41602-0.69434
	c0.30225-0.20117,0.70068-0.21045,1.01221-0.02393l3.94385,2.36621c0.30908,0.18604,0.69434,0.19092,1.00732,0.0127
	C17.80615,24.69287,18,24.36035,18,24V11c0-0.29395,0.12842-0.57178,0.35254-0.76221
	c0.22754-0.19336,0.51904-0.27246,0.82275-0.22363C19.6377,10.08984,20,10.56982,20,11.10693v4.75
	c0,0.47168,0.32959,0.87891,0.79053,0.97803l7.2334,1.55029C29.05811,18.60645,29.74219,19.59912,29.58154,20.64502z"/>
<path d="M6,16c0.55225,0,1-0.44775,1-1s-0.44775-1-1-1H3.41406L14,3.41406V6c0,0.55225,0.44775,1,1,1s1-0.44775,1-1V1
	c0-0.13025-0.02661-0.25989-0.07721-0.38214c-0.10138-0.24445-0.2962-0.43927-0.54065-0.54065C15.25989,0.02661,15.13025,0,15,0h-5
	C9.44775,0,9,0.44775,9,1s0.44775,1,1,1h2.58594L2,12.58594V10c0-0.55225-0.44775-1-1-1s-1,0.44775-1,1v5
	c0,0.13025,0.02667,0.25989,0.07721,0.38214c0.10138,0.24445,0.2962,0.43927,0.54065,0.54065C0.74011,15.97339,0.86975,16,1,16H6z"
	/>
</svg>
