<?xml version="1.0" encoding="utf-8"?>
<!-- Generator: Adobe Illustrator 19.1.0, SVG Export Plug-In . SVG Version: 6.00 Build 0)  -->
<!DOCTYPE svg PUBLIC "-//W3C//DTD SVG 1.1//EN" "http://www.w3.org/Graphics/SVG/1.1/DTD/svg11.dtd">
<svg version="1.1" id="Layer_1" xmlns="http://www.w3.org/2000/svg" xmlns:xlink="http://www.w3.org/1999/xlink" x="0px" y="0px"
	 width="32px" height="32px" viewBox="0 0 32 32" enable-background="new 0 0 32 32" xml:space="preserve">
<path d="M19.49658,8.04053c-0.87793-0.14404-1.76855,0.10205-2.43945,0.67383C16.38525,9.28564,16,10.11865,16,11v11.23389
	l-2.4292-1.45752c-0.96924-0.58203-2.20654-0.5542-3.15039,0.07471c-0.7373,0.4917-1.20996,1.2793-1.29736,2.16113
	s0.22217,1.74707,0.84863,2.37354l6.32129,6.32129C16.48047,31.89453,16.73486,32,17,32h12
	c0.49365,0,0.91309-0.35986,0.98828-0.84814l1.56982-10.20264c0.32178-2.0918-1.04639-4.07715-3.11523-4.52002L22,15.04834v-3.94141
	C22,9.59131,20.92383,8.27295,19.49658,8.04053z M28.02393,18.38525c1.03418,0.22119,1.71826,1.21387,1.55762,2.25977L28.14209,30
	H17.41406l-6.02832-6.02832c-0.27539-0.27539-0.28906-0.59619-0.27246-0.76221c0.0166-0.1665,0.09229-0.47803,0.41602-0.69434
	c0.30273-0.20117,0.7002-0.21045,1.01221-0.02393l3.94385,2.36621c0.30859,0.18604,0.69385,0.19092,1.00732,0.0127
	C17.80615,24.69287,18,24.36035,18,24V11c0-0.29395,0.12842-0.57178,0.35254-0.76221
	c0.22754-0.19336,0.51855-0.27246,0.82275-0.22363C19.6377,10.08984,20,10.56982,20,11.10693v4.75
	c0,0.47168,0.32959,0.87891,0.79053,0.97803L28.02393,18.38525z"/>
<path d="M1,17c0.25586,0,0.51172-0.09766,0.70703-0.29297L6,12.41406V15c0,0.55225,0.44775,1,1,1s1-0.44775,1-1v-5
	c0-0.13025-0.02661-0.25989-0.07721-0.38214c-0.10138-0.24445-0.2962-0.43927-0.54065-0.54065C7.25989,9.02661,7.13025,9,7,9H2
	c-0.55225,0-1,0.44775-1,1s0.44775,1,1,1h2.58594l-4.29297,4.29297c-0.39062,0.39062-0.39062,1.02344,0,1.41406
	C0.48828,16.90234,0.74414,17,1,17z"/>
<path d="M10,1C9.44775,1,9,1.44775,9,2v5c0,0.13025,0.02667,0.25989,0.07721,0.38214
	c0.10138,0.24445,0.2962,0.43927,0.54065,0.54065C9.74011,7.97339,9.86975,8,10,8h5c0.55225,0,1-0.44775,1-1s-0.44775-1-1-1
	h-2.58594l4.29297-4.29297c0.39062-0.39062,0.39062-1.02344,0-1.41406s-1.02344-0.39062-1.41406,0L11,4.58594V2
	C11,1.44775,10.55225,1,10,1z"/>
</svg>
