<?xml version="1.0" encoding="utf-8"?>
<!-- Generator: Adobe Illustrator 20.0.0, SVG Export Plug-In . SVG Version: 6.00 Build 0)  -->
<!DOCTYPE svg PUBLIC "-//W3C//DTD SVG 1.1//EN" "http://www.w3.org/Graphics/SVG/1.1/DTD/svg11.dtd">
<svg version="1.1" id="Layer_1" xmlns="http://www.w3.org/2000/svg" xmlns:xlink="http://www.w3.org/1999/xlink" x="0px" y="0px"
	 width="32px" height="32px" viewBox="0 0 32 32" enable-background="new 0 0 32 32" xml:space="preserve">
<path d="M19,29H2v-4.217c0-0.792,0.463-1.508,1.179-1.826C5.192,22.064,8.703,21,14,21c0.332,0,0.658,0.004,0.976,0.012l1,0.024
	l0.048-1.999l-1-0.024C14.69,19.004,14.349,19,14,19c-5.647,0-9.442,1.158-11.632,2.129C0.93,21.767,0,23.201,0,24.783V31h19V29z"/>
<path d="M14,17c4.579,0,8-4.751,8-9c0-4.411-3.589-8-8-8S6,3.589,6,8C6,12.249,9.421,17,14,17z M14,2c3.309,0,6,2.691,6,6
	c0,3.237-2.621,7-6,7s-6-3.763-6-7C8,4.691,10.691,2,14,2z"/>
<path d="M19.239,25.477L25,31.439l5.761-5.963c1.646-1.704,1.646-4.476,0-6.18c-0.907-0.938-2.158-1.405-3.445-1.276
	c-0.864,0.086-1.666,0.434-2.315,0.987c-0.649-0.554-1.451-0.901-2.315-0.987c-1.279-0.124-2.539,0.338-3.446,1.276
	C17.593,21.001,17.593,23.773,19.239,25.477z M20.678,20.687C21.105,20.244,21.677,20,22.271,20c0.072,0,0.144,0.003,0.216,0.011
	c0.68,0.068,1.289,0.448,1.671,1.044L25,22.368l0.842-1.312c0.382-0.596,0.991-0.977,1.672-1.044
	c0.671-0.065,1.329,0.18,1.809,0.676c0.906,0.938,0.906,2.463,0,3.4L25,28.561l-4.322-4.474
	C19.772,23.149,19.772,21.624,20.678,20.687z"/>
</svg>
