<?xml version="1.0" encoding="utf-8"?>
<!-- Generator: Adobe Illustrator 20.0.0, SVG Export Plug-In . SVG Version: 6.00 Build 0)  -->
<!DOCTYPE svg PUBLIC "-//W3C//DTD SVG 1.1//EN" "http://www.w3.org/Graphics/SVG/1.1/DTD/svg11.dtd">
<svg version="1.1" id="Layer_1" xmlns="http://www.w3.org/2000/svg" xmlns:xlink="http://www.w3.org/1999/xlink" x="0px" y="0px"
	 width="32px" height="32px" viewBox="0 0 32 32" enable-background="new 0 0 32 32" xml:space="preserve">
<polygon points="27,22 27,9.414 30,12.414 31.414,11 26,5.586 20.586,11 22,12.414 25,9.414 25,22 "/>
<path d="M18,16c0-2.757-2.243-5-5-5H7c-2.757,0-5,2.243-5,5v8h3v8h10v-8h3V16z M16,22h-3v8H7v-8H4v-6c0-1.654,1.346-3,3-3h6
	c1.654,0,3,1.346,3,3V22z"/>
<path d="M15,5c0-2.757-2.243-5-5-5S5,2.243,5,5s2.243,5,5,5S15,7.757,15,5z M7,5c0-1.654,1.346-3,3-3s3,1.346,3,3s-1.346,3-3,3
	S7,6.654,7,5z"/>
</svg>
