<?xml version="1.0" encoding="utf-8"?>
<!-- Generator: Adobe Illustrator 20.0.0, SVG Export Plug-In . SVG Version: 6.00 Build 0)  -->
<!DOCTYPE svg PUBLIC "-//W3C//DTD SVG 1.1//EN" "http://www.w3.org/Graphics/SVG/1.1/DTD/svg11.dtd">
<svg version="1.1" id="Layer_1" xmlns="http://www.w3.org/2000/svg" xmlns:xlink="http://www.w3.org/1999/xlink" x="0px" y="0px"
	 width="32px" height="32px" viewBox="0 0 32 32" enable-background="new 0 0 32 32" xml:space="preserve">
<path d="M21.761,2.297c-0.907-0.938-2.168-1.401-3.445-1.276C17.451,1.106,16.649,1.454,16,2.008
	c-0.65-0.554-1.451-0.901-2.316-0.987c-1.286-0.126-2.538,0.339-3.445,1.276c-1.646,1.703-1.646,4.476,0,6.18L16,14.439l5.761-5.963
	C23.407,6.772,23.407,4,21.761,2.297z M20.322,7.087L16,11.561l-4.322-4.473c-0.906-0.938-0.906-2.464,0-3.401
	C12.105,3.244,12.676,3,13.271,3c0.071,0,0.144,0.004,0.215,0.011c0.68,0.067,1.29,0.448,1.672,1.045L16,5.369l0.842-1.313
	c0.382-0.597,0.991-0.978,1.671-1.045c0.67-0.061,1.33,0.18,1.809,0.676v0.001C21.228,4.624,21.228,6.149,20.322,7.087z"/>
<path d="M25,22c2.206,0,4-1.794,4-4s-1.794-4-4-4s-4,1.794-4,4S22.794,22,25,22z M25,16c1.103,0,2,0.897,2,2s-0.897,2-2,2
	s-2-0.897-2-2S23.897,16,25,16z"/>
<path d="M7,14c-2.206,0-4,1.794-4,4s1.794,4,4,4s4-1.794,4-4S9.206,14,7,14z M7,20c-1.103,0-2-0.897-2-2s0.897-2,2-2s2,0.897,2,2
	S8.103,20,7,20z"/>
<path d="M14,27.018c0-1.058-0.565-2.048-1.475-2.585C11.421,23.779,9.565,23,7,23c-2.599,0-4.446,0.776-5.539,1.429
	C0.56,24.967,0,25.955,0,27.007V31h14V27.018z M12,29H2v-1.993c0-0.357,0.182-0.679,0.486-0.861C3.363,25.623,4.857,25,7,25
	c2.113,0,3.618,0.627,4.508,1.154C11.816,26.336,12,26.659,12,27.018V29z"/>
<path d="M30.525,24.433C29.421,23.779,27.565,23,25,23c-2.599,0-4.446,0.776-5.539,1.429C18.56,24.967,18,25.955,18,27.007V31h14
	v-3.982C32,25.96,31.435,24.97,30.525,24.433z M30,29H20v-1.993c0-0.357,0.182-0.679,0.486-0.861C21.363,25.623,22.857,25,25,25
	c2.113,0,3.618,0.627,4.508,1.154C29.816,26.336,30,26.659,30,27.018V29z"/>
</svg>
