<?xml version="1.0" encoding="utf-8"?>
<!-- Generator: Adobe Illustrator 20.0.0, SVG Export Plug-In . SVG Version: 6.00 Build 0)  -->
<!DOCTYPE svg PUBLIC "-//W3C//DTD SVG 1.1//EN" "http://www.w3.org/Graphics/SVG/1.1/DTD/svg11.dtd">
<svg version="1.1" id="Layer_1" xmlns="http://www.w3.org/2000/svg" xmlns:xlink="http://www.w3.org/1999/xlink" x="0px" y="0px"
	 width="32px" height="32px" viewBox="0 0 32 32" enable-background="new 0 0 32 32" xml:space="preserve">
<path d="M8,32h16c1.654,0,3-1.346,3-3v-3v-2V6V4V3c0-1.654-1.346-3-3-3H8C6.346,0,5,1.346,5,3v1v2v18v2v3C5,30.654,6.346,32,8,32z
	 M7,3c0-0.551,0.448-1,1-1h16c0.552,0,1,0.449,1,1v1H7V3z M7,6h18v18H7V6z M25,26v3c0,0.551-0.448,1-1,1H8c-0.552,0-1-0.449-1-1v-3
	H25z"/>
<path d="M16,15c1.654,0,3-1.346,3-3s-1.346-3-3-3s-3,1.346-3,3S14.346,15,16,15z M16,11c0.552,0,1,0.449,1,1s-0.448,1-1,1
	s-1-0.449-1-1S15.448,11,16,11z"/>
<path d="M17,16h-2c-2.757,0-5,2.243-5,5v1h12v-1C22,18.243,19.757,16,17,16z M12.171,20c0.413-1.164,1.525-2,2.829-2h2
	c1.304,0,2.416,0.836,2.829,2H12.171z"/>
</svg>
