<?xml version="1.0" encoding="utf-8"?>
<!-- Generator: Adobe Illustrator 20.0.0, SVG Export Plug-In . SVG Version: 6.00 Build 0)  -->
<!DOCTYPE svg PUBLIC "-//W3C//DTD SVG 1.1//EN" "http://www.w3.org/Graphics/SVG/1.1/DTD/svg11.dtd">
<svg version="1.1" id="Layer_1" xmlns="http://www.w3.org/2000/svg" xmlns:xlink="http://www.w3.org/1999/xlink" x="0px" y="0px"
	 width="32px" height="32px" viewBox="0 0 32 32" enable-background="new 0 0 32 32" xml:space="preserve">
<path d="M16,0C7.178,0,0,7.178,0,16s7.178,16,16,16s16-7.178,16-16S24.822,0,16,0z M16,2c6.821,0,12.51,4.906,13.744,11.373
	c-1.704-0.498-4.823-1.938-7.444-6.089l-0.635-1.005l-0.881,0.797c-4.167,3.77-8.194,3.761-11.714,3.766
	c-2.308-0.004-4.527-0.002-6.448,1.036C4.385,6.164,9.714,2,16,2z M16,30C8.28,30,2,23.72,2,16c0-0.359,0.027-0.711,0.054-1.063
	c1.707-2.077,3.932-2.096,7.015-2.095c3.48-0.001,7.752,0.004,12.181-3.537c3.234,4.537,7.025,5.822,8.725,6.182
	C29.98,15.66,30,15.827,30,16C30,23.72,23.72,30,16,30z"/>
<circle cx="9" cy="19" r="2"/>
<circle cx="23" cy="19" r="2"/>
</svg>
