<?xml version="1.0" encoding="utf-8"?>
<!-- Generator: Adobe Illustrator 20.0.0, SVG Export Plug-In . SVG Version: 6.00 Build 0)  -->
<!DOCTYPE svg PUBLIC "-//W3C//DTD SVG 1.1//EN" "http://www.w3.org/Graphics/SVG/1.1/DTD/svg11.dtd">
<svg version="1.1" id="Layer_1" xmlns="http://www.w3.org/2000/svg" xmlns:xlink="http://www.w3.org/1999/xlink" x="0px" y="0px"
	 width="32px" height="32px" viewBox="0 0 32 32" enable-background="new 0 0 32 32" xml:space="preserve">
<polygon points="30,16.586 27,19.586 27,7 25,7 25,19.586 22,16.586 20.586,18 26,23.414 31.414,18 "/>
<path d="M5,24v8h10v-8h4.428L14.7,11H5.3L0.572,24H5z M6.7,13h6.6l3.272,9H13v8H7v-8H3.428L6.7,13z"/>
<path d="M5,5c0,2.757,2.243,5,5,5s5-2.243,5-5s-2.243-5-5-5S5,2.243,5,5z M13,5c0,1.654-1.346,3-3,3S7,6.654,7,5s1.346-3,3-3
	S13,3.346,13,5z"/>
</svg>
