<?xml version="1.0" encoding="utf-8"?>
<!-- Generator: Adobe Illustrator 20.0.0, SVG Export Plug-In . SVG Version: 6.00 Build 0)  -->
<!DOCTYPE svg PUBLIC "-//W3C//DTD SVG 1.1//EN" "http://www.w3.org/Graphics/SVG/1.1/DTD/svg11.dtd">
<svg version="1.1" id="Layer_1" xmlns="http://www.w3.org/2000/svg" xmlns:xlink="http://www.w3.org/1999/xlink" x="0px" y="0px"
	 width="32px" height="32px" viewBox="0 0 32 32" enable-background="new 0 0 32 32" xml:space="preserve">
<path d="M20,4c0-2.206-1.794-4-4-4s-4,1.794-4,4s1.794,4,4,4S20,6.206,20,4z M14,4c0-1.103,0.897-2,2-2s2,0.897,2,2s-0.897,2-2,2
	S14,5.103,14,4z"/>
<path d="M4,13c2.206,0,4-1.794,4-4S6.206,5,4,5S0,6.794,0,9S1.794,13,4,13z M4,7c1.103,0,2,0.897,2,2s-0.897,2-2,2s-2-0.897-2-2
	S2.897,7,4,7z"/>
<path d="M28,5c-2.206,0-4,1.794-4,4s1.794,4,4,4s4-1.794,4-4S30.206,5,28,5z M28,11c-1.103,0-2-0.897-2-2s0.897-2,2-2s2,0.897,2,2
	S29.103,11,28,11z"/>
<path d="M10,17c0,3.309,2.691,6,6,6s6-2.691,6-6s-2.691-6-6-6S10,13.691,10,17z M16,13c2.206,0,4,1.794,4,4s-1.794,4-4,4
	s-4-1.794-4-4S13.794,13,16,13z"/>
<path d="M5,29.356V32h22v-2.644c0-2.518-1.889-4.652-4.393-4.964c-4.179-0.52-9.035-0.52-13.214,0C6.889,24.704,5,26.838,5,29.356z
	 M22.36,26.376c1.505,0.188,2.64,1.469,2.64,2.98V30H7v-0.644c0-1.511,1.135-2.792,2.64-2.98
	C13.655,25.877,18.345,25.877,22.36,26.376z"/>
</svg>
