<?xml version="1.0" encoding="utf-8"?>
<!-- Generator: Adobe Illustrator 20.0.0, SVG Export Plug-In . SVG Version: 6.00 Build 0)  -->
<!DOCTYPE svg PUBLIC "-//W3C//DTD SVG 1.1//EN" "http://www.w3.org/Graphics/SVG/1.1/DTD/svg11.dtd">
<svg version="1.1" id="Layer_1" xmlns="http://www.w3.org/2000/svg" xmlns:xlink="http://www.w3.org/1999/xlink" x="0px" y="0px"
	 width="32px" height="32px" viewBox="0 0 32 32" enable-background="new 0 0 32 32" xml:space="preserve">
<path d="M10,23h9v-2h-9C4.486,21,0,25.486,0,31v1h31v-2H2.062C2.556,26.06,5.928,23,10,23z"/>
<path d="M16,18c4.411,0,8-3.589,8-8V8c0-4.411-3.589-8-8-8S8,3.589,8,8v2C8,14.411,11.589,18,16,18z M10,8c0-3.309,2.691-6,6-6
	s6,2.691,6,6v2c0,3.309-2.691,6-6,6s-6-2.691-6-6V8z"/>
<rect x="22" y="21" width="10" height="2"/>
</svg>
