<?xml version="1.0" encoding="utf-8"?>
<!-- Generator: Adobe Illustrator 20.0.0, SVG Export Plug-In . SVG Version: 6.00 Build 0)  -->
<!DOCTYPE svg PUBLIC "-//W3C//DTD SVG 1.1//EN" "http://www.w3.org/Graphics/SVG/1.1/DTD/svg11.dtd">
<svg version="1.1" id="Layer_1" xmlns="http://www.w3.org/2000/svg" xmlns:xlink="http://www.w3.org/1999/xlink" x="0px" y="0px"
	 width="32px" height="32px" viewBox="0 0 32 32" enable-background="new 0 0 32 32" xml:space="preserve">
<path d="M16,29H2v-4.217c0-0.792,0.463-1.508,1.179-1.826C5.191,22.064,8.702,21,14,21c2.445,0,4.729,0.224,6.79,0.665l0.978,0.209
	l0.419-1.956l-0.979-0.209C19.012,19.239,16.586,19,14,19c-5.648,0-9.443,1.158-11.632,2.129C0.93,21.767,0,23.201,0,24.783V31h16
	V29z"/>
<path d="M14,17c4.579,0,8-4.751,8-9c0-4.411-3.589-8-8-8S6,3.589,6,8C6,12.249,9.421,17,14,17z M14,2c3.309,0,6,2.691,6,6
	c0,3.237-2.621,7-6,7s-6-3.763-6-7C8,4.691,10.691,2,14,2z"/>
<polygon points="18.586,27 23,31.414 31.414,23 30,21.586 23,28.586 20,25.586 "/>
</svg>
