<?xml version="1.0" encoding="utf-8"?>
<!-- Generator: Adobe Illustrator 20.0.0, SVG Export Plug-In . SVG Version: 6.00 Build 0)  -->
<!DOCTYPE svg PUBLIC "-//W3C//DTD SVG 1.1//EN" "http://www.w3.org/Graphics/SVG/1.1/DTD/svg11.dtd">
<svg version="1.1" id="Layer_1" xmlns="http://www.w3.org/2000/svg" xmlns:xlink="http://www.w3.org/1999/xlink" x="0px" y="0px"
	 width="32px" height="32px" viewBox="0 0 32 32" enable-background="new 0 0 32 32" xml:space="preserve">
<circle cx="11.5" cy="17.5" r="1.5"/>
<circle cx="20.5" cy="17.5" r="1.5"/>
<path d="M16,0C7.178,0,0,7.178,0,16v11.414l0.293,0.293C0.468,27.883,4.715,32,16,32s15.532-4.117,15.707-4.293L32,27.414V16
	C32,7.178,24.822,0,16,0z M30,26.54C28.935,27.37,24.858,30,16,30c-8.782,0-12.923-2.642-14-3.465V16C2,8.28,8.28,2,16,2
	s14,6.28,14,14V26.54z"/>
<path d="M21.313,5.251l-0.734-0.363l-0.501,0.648C17.398,9.009,13.36,11,9,11c-0.969,0-1.946-0.104-2.906-0.307l-0.803-0.17
	l-0.324,0.755C4.326,12.776,4,14.365,4,16c0,6.617,5.383,12,12,12s12-5.383,12-12C28,11.413,25.438,7.295,21.313,5.251z M16,26
	c-5.514,0-10-4.486-10-10c0-1.096,0.176-2.167,0.523-3.194C7.345,12.935,8.175,13,9,13c4.7,0,9.071-2.022,12.121-5.578
	C24.149,9.225,26,12.443,26,16C26,21.514,21.514,26,16,26z"/>
</svg>
