<?xml version="1.0" encoding="utf-8"?>
<!-- Generator: Adobe Illustrator 20.0.0, SVG Export Plug-In . SVG Version: 6.00 Build 0)  -->
<!DOCTYPE svg PUBLIC "-//W3C//DTD SVG 1.1//EN" "http://www.w3.org/Graphics/SVG/1.1/DTD/svg11.dtd">
<svg version="1.1" id="Layer_1" xmlns="http://www.w3.org/2000/svg" xmlns:xlink="http://www.w3.org/1999/xlink" x="0px" y="0px"
	 width="32px" height="32px" viewBox="0 0 32 32" enable-background="new 0 0 32 32" xml:space="preserve">
<path d="M20,29H2v-4.217c0-0.792,0.463-1.508,1.179-1.826C5.191,22.064,8.702,21,14,21c1,0,1.983,0.038,2.921,0.112l0.997,0.079
	l0.158-1.994l-0.997-0.079C16.089,19.04,15.053,19,14,19c-5.648,0-9.443,1.158-11.632,2.129C0.93,21.767,0,23.201,0,24.783V31h20V29
	z"/>
<path d="M14,17c4.579,0,8-4.751,8-9c0-4.411-3.589-8-8-8S6,3.589,6,8C6,12.249,9.421,17,14,17z M14,2c3.309,0,6,2.691,6,6
	c0,3.237-2.621,7-6,7s-6-3.763-6-7C8,4.691,10.691,2,14,2z"/>
<path d="M29,24c1.654,0,3-1.346,3-3s-1.346-3-3-3s-3,1.346-3,3c0,0.147,0.023,0.289,0.044,0.431L23.8,22.615
	C23.297,22.235,22.678,22,22,22c-1.654,0-3,1.346-3,3s1.346,3,3,3c0.678,0,1.297-0.235,1.8-0.615l2.243,1.185
	C26.023,28.711,26,28.853,26,29c0,1.654,1.346,3,3,3s3-1.346,3-3s-1.346-3-3-3c-0.782,0-1.489,0.308-2.024,0.8l-2.069-1.093
	C24.962,25.479,25,25.245,25,25s-0.038-0.479-0.093-0.707l2.069-1.093C27.511,23.692,28.218,24,29,24z M29,20c0.552,0,1,0.449,1,1
	s-0.448,1-1,1s-1-0.449-1-1S28.448,20,29,20z M22,26c-0.552,0-1-0.449-1-1s0.448-1,1-1s1,0.449,1,1S22.552,26,22,26z M29,28
	c0.552,0,1,0.449,1,1s-0.448,1-1,1s-1-0.449-1-1S28.448,28,29,28z"/>
</svg>
