<?xml version="1.0" encoding="utf-8"?>
<!-- Generator: Adobe Illustrator 20.0.0, SVG Export Plug-In . SVG Version: 6.00 Build 0)  -->
<!DOCTYPE svg PUBLIC "-//W3C//DTD SVG 1.1//EN" "http://www.w3.org/Graphics/SVG/1.1/DTD/svg11.dtd">
<svg version="1.1" id="Layer_1" xmlns="http://www.w3.org/2000/svg" xmlns:xlink="http://www.w3.org/1999/xlink" x="0px" y="0px"
	 width="32px" height="32px" viewBox="0 0 32 32" enable-background="new 0 0 32 32" xml:space="preserve">
<polygon points="22.414,10 19.414,7 26,7 26,13 28,13 28,5 19.414,5 22.414,2 21,0.586 15.586,6 21,11.414 "/>
<polygon points="9.586,22 12.586,25 6,25 6,19 4,19 4,27 12.586,27 9.586,30 11,31.414 16.414,26 11,20.586 "/>
<path d="M14,13.018c0-1.057-0.565-2.048-1.474-2.585C11.422,9.779,9.567,9,7,9c-2.6,0-4.447,0.777-5.538,1.429
	C0.56,10.967,0,11.955,0,13.007V15h14V13.018z M2,13c0.002-0.354,0.184-0.673,0.487-0.854C3.362,11.623,4.856,11,7,11
	c2.114,0,3.618,0.627,4.508,1.154C11.811,12.333,11.994,12.648,12,13H2z"/>
<path d="M3,4c0,2.206,1.794,4,4,4s4-1.794,4-4S9.206,0,7,0S3,1.794,3,4z M9,4c0,1.103-0.897,2-2,2S5,5.103,5,4s0.897-2,2-2
	S9,2.897,9,4z"/>
<path d="M30.526,27.433C29.422,26.779,27.567,26,25,26c-2.6,0-4.447,0.777-5.538,1.429C18.56,27.967,18,28.955,18,30.007V32h14
	v-1.982C32,28.96,31.435,27.97,30.526,27.433z M20,30c0.002-0.354,0.184-0.673,0.487-0.854C21.362,28.623,22.856,28,25,28
	c2.114,0,3.618,0.627,4.508,1.154C29.811,29.333,29.994,29.648,30,30H20z"/>
<path d="M25,25c2.206,0,4-1.794,4-4s-1.794-4-4-4s-4,1.794-4,4S22.794,25,25,25z M25,19c1.103,0,2,0.897,2,2s-0.897,2-2,2
	s-2-0.897-2-2S23.897,19,25,19z"/>
</svg>
