<?xml version="1.0" encoding="utf-8"?>
<!-- Generator: Adobe Illustrator 20.0.0, SVG Export Plug-In . SVG Version: 6.00 Build 0)  -->
<!DOCTYPE svg PUBLIC "-//W3C//DTD SVG 1.1//EN" "http://www.w3.org/Graphics/SVG/1.1/DTD/svg11.dtd">
<svg version="1.1" id="Layer_1" xmlns="http://www.w3.org/2000/svg" xmlns:xlink="http://www.w3.org/1999/xlink" x="0px" y="0px"
	 width="32px" height="32px" viewBox="0 0 32 32" enable-background="new 0 0 32 32" xml:space="preserve">
<path d="M18,9.5c0,3.006,2.402,6.5,5.5,6.5S29,12.506,29,9.5C29,6.467,26.532,4,23.5,4S18,6.467,18,9.5z M27,9.5
	c0,1.983-1.647,4.5-3.5,4.5S20,11.483,20,9.5C20,7.57,21.57,6,23.5,6S27,7.57,27,9.5z"/>
<path d="M29.499,19.128C28.208,18.613,26.12,18,23.5,18s-4.708,0.613-5.999,1.128c-0.459,0.183-0.87,0.455-1.227,0.788
	C14.767,19.413,12.832,19,10.5,19c-3.493,0-6.118,0.922-7.705,1.695C1.097,21.522,0,23.285,0,25.185V29h21v-3.815
	c0-1.776-0.965-3.421-2.477-4.306C19.662,20.456,21.375,20,23.5,20c2.303,0,4.131,0.536,5.259,0.985
	C29.513,21.286,30,22.013,30,22.838V24h-6v2h8v-3.162C32,21.189,31.019,19.733,29.499,19.128z M19,27H2v-1.815
	c0-1.141,0.655-2.197,1.67-2.692C5.068,21.812,7.389,21,10.5,21s5.432,0.812,6.83,1.493c1.015,0.495,1.67,1.551,1.67,2.692V27z"/>
<path d="M10.5,3C6.916,3,4,5.916,4,9.5c0,3.468,2.839,7.5,6.5,7.5S17,12.968,17,9.5C17,5.916,14.084,3,10.5,3z M10.5,15
	C8.007,15,6,11.991,6,9.5C6,7.019,8.019,5,10.5,5S15,7.019,15,9.5C15,11.991,12.993,15,10.5,15z"/>
</svg>
