<?xml version="1.0" encoding="utf-8"?>
<!-- Generator: Adobe Illustrator 20.0.0, SVG Export Plug-In . SVG Version: 6.00 Build 0)  -->
<!DOCTYPE svg PUBLIC "-//W3C//DTD SVG 1.1//EN" "http://www.w3.org/Graphics/SVG/1.1/DTD/svg11.dtd">
<svg version="1.1" id="Layer_1" xmlns="http://www.w3.org/2000/svg" xmlns:xlink="http://www.w3.org/1999/xlink" x="0px" y="0px"
	 width="32px" height="32px" viewBox="0 0 32 32" enable-background="new 0 0 32 32" xml:space="preserve">
<path d="M30.293,1.293L28,3.586l-2-2L24.586,3l2,2l-1.975,1.975C23.071,5.742,21.122,5,19,5c-1.849,0-3.569,0.562-5,1.522
	C12.569,5.562,10.849,5,9,5c-4.963,0-9,4.038-9,9c0,4.625,3.507,8.442,8,8.941V26H5v2h3v3h2v-3h3v-2h-3v-3.059
	c1.468-0.163,2.831-0.678,4-1.463C15.431,22.438,17.151,23,19,23c4.963,0,9-4.037,9-9c0-2.122-0.742-4.071-1.975-5.611L28,6.414l2,2
	L31.414,7l-2-2l2.293-2.293L30.293,1.293z M14,18.889c-1.235-1.263-2-2.988-2-4.889c0-1.902,0.765-3.627,2-4.889
	c1.235,1.263,2,2.988,2,4.889C16,15.902,15.235,17.626,14,18.889z M2,14c0-3.86,3.141-7,7-7c1.238,0,2.399,0.326,3.409,0.892
	C10.919,9.498,10,11.641,10,14c0,2.359,0.919,4.502,2.409,6.108C11.399,20.674,10.237,21,9,21C5.141,21,2,17.859,2,14z M19,21
	c-1.237,0-2.399-0.326-3.409-0.892C17.081,18.502,18,16.359,18,14c0-2.359-0.919-4.502-2.409-6.108C16.601,7.326,17.762,7,19,7
	c3.859,0,7,3.14,7,7C26,17.859,22.859,21,19,21z"/>
</svg>
