<?xml version="1.0" encoding="utf-8"?>
<!-- Generator: Adobe Illustrator 20.0.0, SVG Export Plug-In . SVG Version: 6.00 Build 0)  -->
<!DOCTYPE svg PUBLIC "-//W3C//DTD SVG 1.1//EN" "http://www.w3.org/Graphics/SVG/1.1/DTD/svg11.dtd">
<svg version="1.1" id="Layer_1" xmlns="http://www.w3.org/2000/svg" xmlns:xlink="http://www.w3.org/1999/xlink" x="0px" y="0px"
	 width="32px" height="32px" viewBox="0 0 32 32" enable-background="new 0 0 32 32" xml:space="preserve">
<path d="M26.785,23.537l-5.177-1.035C20.676,22.315,20,21.491,20,20.541c2.809-0.59,5.364-1.652,6.66-2.79l0.793-0.696l-0.739-0.754
	c-2.458-2.51-2.671-4.954-2.715-8.398C23.936,3.545,20.348,0,16,0c-4.411,0-8,3.589-8,8c0,2.901,0,5.643-2.7,8.285L4.53,17.04
	l0.811,0.711c1.302,1.145,3.857,2.207,6.66,2.794c-0.002,0.948-0.677,1.771-1.608,1.957l-5.176,1.035
	C3.353,23.909,2,25.559,2,27.459V32h28v-4.541C30,25.559,28.647,23.909,26.785,23.537z M28,30H4v-2.541
	c0-0.95,0.676-1.774,1.608-1.961l5.176-1.035C12.647,24.091,14,22.441,14,20.541v-1.666l-0.83-0.143
	c-2.197-0.379-4.315-1.096-5.663-1.888C10,13.871,10,10.768,10,8c0-3.309,2.691-6,6-6c3.261,0,5.952,2.661,5.999,5.93
	c0.036,2.779,0.077,5.896,2.513,8.903c-1.344,0.792-3.471,1.513-5.683,1.896L18,18.873v1.668c0,1.9,1.353,3.55,3.215,3.922
	l5.177,1.035h0C27.324,25.685,28,26.509,28,27.459V30z"/>
</svg>
