<?xml version="1.0" encoding="utf-8"?>
<!-- Generator: Adobe Illustrator 20.0.0, SVG Export Plug-In . SVG Version: 6.00 Build 0)  -->
<!DOCTYPE svg PUBLIC "-//W3C//DTD SVG 1.1//EN" "http://www.w3.org/Graphics/SVG/1.1/DTD/svg11.dtd">
<svg version="1.1" id="Layer_1" xmlns="http://www.w3.org/2000/svg" xmlns:xlink="http://www.w3.org/1999/xlink" x="0px" y="0px"
	 width="32px" height="32px" viewBox="0 0 32 32" enable-background="new 0 0 32 32" xml:space="preserve">
<path d="M11,32h10v-8h3v-8c0-2.757-2.243-5-5-5h-6c-2.757,0-5,2.243-5,5v8h3V32z M10,22v-6c0-1.654,1.346-3,3-3h6
	c1.654,0,3,1.346,3,3v6h-3v8h-6v-8H10z"/>
<path d="M16,10c2.757,0,5-2.243,5-5s-2.243-5-5-5s-5,2.243-5,5S13.243,10,16,10z M16,2c1.654,0,3,1.346,3,3s-1.346,3-3,3
	s-3-1.346-3-3S14.346,2,16,2z"/>
</svg>
