<?xml version="1.0" encoding="utf-8"?>
<!-- Generator: Adobe Illustrator 20.0.0, SVG Export Plug-In . SVG Version: 6.00 Build 0)  -->
<!DOCTYPE svg PUBLIC "-//W3C//DTD SVG 1.1//EN" "http://www.w3.org/Graphics/SVG/1.1/DTD/svg11.dtd">
<svg version="1.1" id="Layer_1" xmlns="http://www.w3.org/2000/svg" xmlns:xlink="http://www.w3.org/1999/xlink" x="0px" y="0px"
	 width="32px" height="32px" viewBox="0 0 32 32" enable-background="new 0 0 32 32" xml:space="preserve">
<path d="M12,28h8v-7h3v-8c0-2.206-1.794-4-4-4h-6c-2.206,0-4,1.794-4,4v8h3V28z M11,19v-6c0-1.103,0.897-2,2-2h6
	c1.103,0,2,0.897,2,2v6h-3v7h-4v-7H11z"/>
<path d="M16,8c2.206,0,4-1.794,4-4s-1.794-4-4-4s-4,1.794-4,4S13.794,8,16,8z M16,2c1.103,0,2,0.897,2,2s-0.897,2-2,2s-2-0.897-2-2
	S14.897,2,16,2z"/>
<path d="M23.122,23.411l-0.244,1.985c4.997,0.616,6.96,1.711,7.128,2.062C29.662,28.345,24.55,30,16,30S2.338,28.345,1.994,27.542
	c0.168-0.434,2.131-1.529,7.128-2.146l-0.244-1.985C4.828,23.911,0,25.026,0,27.5C0,31.052,10.058,32,16,32s16-0.948,16-4.5
	C32,25.026,27.172,23.911,23.122,23.411z"/>
</svg>
