<?xml version="1.0" encoding="utf-8"?>
<!-- Generator: Adobe Illustrator 20.0.0, SVG Export Plug-In . SVG Version: 6.00 Build 0)  -->
<!DOCTYPE svg PUBLIC "-//W3C//DTD SVG 1.1//EN" "http://www.w3.org/Graphics/SVG/1.1/DTD/svg11.dtd">
<svg version="1.1" id="Layer_1" xmlns="http://www.w3.org/2000/svg" xmlns:xlink="http://www.w3.org/1999/xlink" x="0px" y="0px"
	 width="32px" height="32px" viewBox="0 0 32 32" enable-background="new 0 0 32 32" xml:space="preserve">
<path d="M28,29V3c0-1.654-1.387-3-3.091-3H8H6H1v32h5h2h16.909C26.613,32,28,30.654,28,29z M3,30V2h3v28H3z M26,29
	c0,0.551-0.489,1-1.091,1H8V2h16.909C25.511,2,26,2.449,26,3V29z"/>
<rect x="30" y="4" width="2" height="6"/>
<rect x="30" y="12" width="2" height="6"/>
<path d="M17,15c1.654,0,3-1.346,3-3s-1.346-3-3-3s-3,1.346-3,3S15.346,15,17,15z M17,11c0.552,0,1,0.449,1,1s-0.448,1-1,1
	s-1-0.449-1-1S16.448,11,17,11z"/>
<path d="M18,16h-2c-2.757,0-5,2.243-5,5v1h12v-1C23,18.243,20.757,16,18,16z M13.171,20c0.413-1.164,1.525-2,2.829-2h2
	c1.304,0,2.416,0.836,2.829,2H13.171z"/>
</svg>
