<?xml version="1.0" encoding="utf-8"?>
<!-- Generator: Adobe Illustrator 20.0.0, SVG Export Plug-In . SVG Version: 6.00 Build 0)  -->
<!DOCTYPE svg PUBLIC "-//W3C//DTD SVG 1.1//EN" "http://www.w3.org/Graphics/SVG/1.1/DTD/svg11.dtd">
<svg version="1.1" id="Layer_1" xmlns="http://www.w3.org/2000/svg" xmlns:xlink="http://www.w3.org/1999/xlink" x="0px" y="0px"
	 width="32px" height="32px" viewBox="0 0 32 32" enable-background="new 0 0 32 32" xml:space="preserve">
<path d="M28,14c0-7.72-6.28-14-14-14S0,6.28,0,14s6.28,14,14,14c3.501,0,6.697-1.3,9.154-3.432l7.139,7.139l1.414-1.414
	l-7.139-7.139C26.7,20.697,28,17.5,28,14z M14,26C7.383,26,2,20.617,2,14S7.383,2,14,2s12,5.383,12,12S20.617,26,14,26z"/>
<path d="M19.526,16.433C18.422,15.779,16.567,15,14,15c-2.601,0-4.447,0.777-5.538,1.429C7.561,16.967,7,17.955,7,19.007V21h14
	v-1.982C21,17.96,20.435,16.97,19.526,16.433z M9,19c0.002-0.354,0.184-0.673,0.487-0.854C10.362,17.623,11.855,17,14,17
	c2.114,0,3.618,0.627,4.508,1.154C18.811,18.333,18.994,18.648,19,19H9z"/>
<path d="M14,14c2.206,0,4-1.794,4-4s-1.794-4-4-4s-4,1.794-4,4S11.794,14,14,14z M14,8c1.103,0,2,0.897,2,2s-0.897,2-2,2
	s-2-0.897-2-2S12.897,8,14,8z"/>
</svg>
