<?xml version="1.0" encoding="utf-8"?>
<!-- Generator: Adobe Illustrator 20.0.0, SVG Export Plug-In . SVG Version: 6.00 Build 0)  -->
<!DOCTYPE svg PUBLIC "-//W3C//DTD SVG 1.1//EN" "http://www.w3.org/Graphics/SVG/1.1/DTD/svg11.dtd">
<svg version="1.1" id="Layer_1" xmlns="http://www.w3.org/2000/svg" xmlns:xlink="http://www.w3.org/1999/xlink" x="0px" y="0px"
	 width="32px" height="32px" viewBox="0 0 32 32" enable-background="new 0 0 32 32" xml:space="preserve">
<path d="M25,22c2.206,0,4-1.794,4-4s-1.794-4-4-4s-4,1.794-4,4S22.794,22,25,22z M25,16c1.103,0,2,0.897,2,2s-0.897,2-2,2
	s-2-0.897-2-2S23.897,16,25,16z"/>
<path d="M3,18c0,2.206,1.794,4,4,4s4-1.794,4-4s-1.794-4-4-4S3,15.794,3,18z M9,18c0,1.103-0.897,2-2,2s-2-0.897-2-2s0.897-2,2-2
	S9,16.897,9,18z"/>
<path d="M14,27.018c0-1.058-0.565-2.048-1.475-2.585C11.421,23.779,9.565,23,7,23c-2.6,0-4.446,0.776-5.538,1.429
	C0.561,24.968,0,25.955,0,27.007V31h14V27.018z M12,29H2v-1.993c0-0.357,0.183-0.679,0.487-0.861C3.362,25.623,4.856,25,7,25
	c2.113,0,3.617,0.627,4.508,1.154C11.816,26.336,12,26.659,12,27.018V29z"/>
<path d="M30.525,24.433C29.421,23.779,27.565,23,25,23c-2.6,0-4.446,0.776-5.538,1.429C18.561,24.968,18,25.955,18,27.007V31h14
	v-3.982C32,25.96,31.435,24.97,30.525,24.433z M30,29H20v-1.993c0-0.357,0.183-0.679,0.487-0.861C21.362,25.623,22.856,25,25,25
	c2.113,0,3.617,0.627,4.508,1.154C29.816,26.336,30,26.659,30,27.018V29z"/>
<polygon points="14,8.586 11,5.586 9.586,7 14,11.414 22.414,3 21,1.586 "/>
</svg>
