<?xml version="1.0" encoding="utf-8"?>
<!-- Generator: Adobe Illustrator 20.0.0, SVG Export Plug-In . SVG Version: 6.00 Build 0)  -->
<!DOCTYPE svg PUBLIC "-//W3C//DTD SVG 1.1//EN" "http://www.w3.org/Graphics/SVG/1.1/DTD/svg11.dtd">
<svg version="1.1" id="Layer_1" xmlns="http://www.w3.org/2000/svg" xmlns:xlink="http://www.w3.org/1999/xlink" x="0px" y="0px"
	 width="32px" height="32px" viewBox="0 0 32 32" enable-background="new 0 0 32 32" xml:space="preserve">
<path d="M21,2h7.586l-7.139,7.139C19.173,7.187,16.225,6,13,6C5.832,6,0,11.832,0,19s5.832,13,13,13s13-5.832,13-13
	c0-3.225-1.187-6.173-3.139-8.447L30,3.414V11h2V0H21V2z M13,30C6.935,30,2,25.065,2,19S6.935,8,13,8s11,4.935,11,11
	S19.065,30,13,30z"/>
</svg>
