<?xml version="1.0" encoding="utf-8"?>
<!-- Generator: Adobe Illustrator 20.0.0, SVG Export Plug-In . SVG Version: 6.00 Build 0)  -->
<!DOCTYPE svg PUBLIC "-//W3C//DTD SVG 1.1//EN" "http://www.w3.org/Graphics/SVG/1.1/DTD/svg11.dtd">
<svg version="1.1" id="Layer_1" xmlns="http://www.w3.org/2000/svg" xmlns:xlink="http://www.w3.org/1999/xlink" x="0px" y="0px"
	 width="32px" height="32px" viewBox="0 0 32 32" enable-background="new 0 0 32 32" xml:space="preserve">
<path d="M3,31h8v-8h3v-8c0-2.757-2.243-5-5-5H5c-2.757,0-5,2.243-5,5v8h3V31z M2,21v-6c0-1.654,1.346-3,3-3h4c1.654,0,3,1.346,3,3v6
	H9v8H5v-8H2z"/>
<path d="M7,1C4.794,1,3,2.794,3,5s1.794,4,4,4s4-1.794,4-4S9.206,1,7,1z M7,7C5.897,7,5,6.103,5,5s0.897-2,2-2s2,0.897,2,2
	S8.103,7,7,7z"/>
<path d="M23,9c2.206,0,4-1.794,4-4s-1.794-4-4-4s-4,1.794-4,4S20.794,9,23,9z M23,3c1.103,0,2,0.897,2,2s-0.897,2-2,2s-2-0.897-2-2
	S21.897,3,23,3z"/>
<path d="M19,23v8h8v-8h4.428L26.7,10h-7.4l-4.728,13H19z M20.7,12h4.6l3.272,9H25v8h-4v-8h-3.572L20.7,12z"/>
</svg>
