<?xml version="1.0" encoding="utf-8"?>
<!-- Generator: Adobe Illustrator 20.0.0, SVG Export Plug-In . SVG Version: 6.00 Build 0)  -->
<!DOCTYPE svg PUBLIC "-//W3C//DTD SVG 1.1//EN" "http://www.w3.org/Graphics/SVG/1.1/DTD/svg11.dtd">
<svg version="1.1" id="Layer_1" xmlns="http://www.w3.org/2000/svg" xmlns:xlink="http://www.w3.org/1999/xlink" x="0px" y="0px"
	 width="32px" height="32px" viewBox="0 0 32 32" enable-background="new 0 0 32 32" xml:space="preserve">
<path d="M15,29H2v-4.217c0-0.792,0.463-1.508,1.179-1.826C5.192,22.064,8.703,21,14,21h1v-2h-1c-5.647,0-9.442,1.158-11.632,2.129
	C0.93,21.767,0,23.201,0,24.783V31h15V29z"/>
<path d="M14,17c4.579,0,8-4.751,8-9c0-4.411-3.589-8-8-8S6,3.589,6,8C6,12.249,9.421,17,14,17z M14,2c3.309,0,6,2.691,6,6
	c0,3.237-2.621,7-6,7s-6-3.763-6-7C8,4.691,10.691,2,14,2z"/>
<path d="M24,16c-4.411,0-8,3.589-8,8s3.589,8,8,8s8-3.589,8-8S28.411,16,24,16z M24,30c-3.309,0-6-2.691-6-6s2.691-6,6-6
	s6,2.691,6,6S27.309,30,24,30z"/>
<polygon points="25,20 23,20 23,25 28,25 28,23 25,23 "/>
</svg>
