<?xml version="1.0" encoding="utf-8"?>
<!-- Generator: Adobe Illustrator 20.0.0, SVG Export Plug-In . SVG Version: 6.00 Build 0)  -->
<!DOCTYPE svg PUBLIC "-//W3C//DTD SVG 1.1//EN" "http://www.w3.org/Graphics/SVG/1.1/DTD/svg11.dtd">
<svg version="1.1" id="Layer_1" xmlns="http://www.w3.org/2000/svg" xmlns:xlink="http://www.w3.org/1999/xlink" x="0px" y="0px"
	 width="32px" height="32px" viewBox="0 0 32 32" enable-background="new 0 0 32 32" xml:space="preserve">
<path d="M21,15c4.007,0,7-4.224,7-8c0-3.86-3.141-7-7-7s-7,3.14-7,7C14,10.776,16.993,15,21,15z M21,2c2.757,0,5,2.243,5,5
	c0,2.718-2.23,6-5,6s-5-3.282-5-6C16,4.243,18.243,2,21,2z"/>
<path d="M29.075,18.742C27.348,17.947,24.544,17,21,17c-1.423,0-2.841,0.152-4.214,0.453l0.428,1.954C18.446,19.137,19.721,19,21,19
	c3.183,0,5.693,0.848,7.239,1.559C29.309,21.051,30,22.125,30,23.293V30h-9v2h11v-8.707C32,21.347,30.853,19.561,29.075,18.742z"/>
<path d="M9,10c-3.309,0-6,2.691-6,6c0,3.237,2.621,7,6,7s6-3.763,6-7C15,12.691,12.309,10,9,10z M9,21c-2.154,0-4-2.75-4-5
	c0-2.206,1.794-4,4-4s4,1.794,4,4C13,18.25,11.154,21,9,21z"/>
<path d="M18,28.926c0-1.663-1.05-3.171-2.611-3.753C13.952,24.638,11.678,24,9,24s-4.952,0.638-6.388,1.173
	C1.05,25.755,0,27.263,0,28.926V32h18V28.926z M16,30H2v-1.074c0-0.832,0.526-1.587,1.311-1.879C4.593,26.57,6.62,26,9,26
	s4.407,0.57,5.69,1.047c0.783,0.292,1.31,1.047,1.31,1.879V30z"/>
</svg>
