<?xml version="1.0" encoding="utf-8"?>
<!-- Generator: Adobe Illustrator 20.0.0, SVG Export Plug-In . SVG Version: 6.00 Build 0)  -->
<!DOCTYPE svg PUBLIC "-//W3C//DTD SVG 1.1//EN" "http://www.w3.org/Graphics/SVG/1.1/DTD/svg11.dtd">
<svg version="1.1" id="Layer_1" xmlns="http://www.w3.org/2000/svg" xmlns:xlink="http://www.w3.org/1999/xlink" x="0px" y="0px"
	 width="32px" height="32px" viewBox="0 0 32 32" enable-background="new 0 0 32 32" xml:space="preserve">
<path d="M16,31.562L21.468,25H32V0H0v25h10.532L16,31.562z M2,2h28v21h-9.468L16,28.438L11.468,23H2V2z"/>
<path d="M23,18.018c0-1.057-0.565-2.048-1.474-2.585C20.422,14.779,18.567,14,16,14c-2.6,0-4.447,0.777-5.538,1.429
	C9.56,15.967,9,16.955,9,18.007V20h14V18.018z M11,18c0.002-0.354,0.184-0.673,0.487-0.854C12.362,16.623,13.856,16,16,16
	c2.114,0,3.618,0.627,4.508,1.154C20.811,17.333,20.994,17.648,21,18H11z"/>
<path d="M16,13c2.206,0,4-1.794,4-4s-1.794-4-4-4s-4,1.794-4,4S13.794,13,16,13z M16,7c1.103,0,2,0.897,2,2s-0.897,2-2,2
	s-2-0.897-2-2S14.897,7,16,7z"/>
</svg>
