<?xml version="1.0" encoding="utf-8"?>
<!-- Generator: Adobe Illustrator 20.0.0, SVG Export Plug-In . SVG Version: 6.00 Build 0)  -->
<!DOCTYPE svg PUBLIC "-//W3C//DTD SVG 1.1//EN" "http://www.w3.org/Graphics/SVG/1.1/DTD/svg11.dtd">
<svg version="1.1" id="Layer_1" xmlns="http://www.w3.org/2000/svg" xmlns:xlink="http://www.w3.org/1999/xlink" x="0px" y="0px"
	 width="32px" height="32px" viewBox="0 0 32 32" enable-background="new 0 0 32 32" xml:space="preserve">
<path d="M3,31c0-7.168,5.832-13,13-13s13,5.832,13,13v1h2v-1c0-6.669-4.377-12.329-10.407-14.274C23.227,15.154,25,12.284,25,9
	c0-4.962-4.038-9-9-9S7,4.038,7,9c0,3.284,1.773,6.154,4.407,7.726C5.377,18.671,1,24.331,1,31v1h2V31z M9,9c0-3.86,3.14-7,7-7
	s7,3.14,7,7s-3.14,7-7,7S9,12.86,9,9z"/>
</svg>
