<?xml version="1.0" encoding="utf-8"?>
<!-- Generator: Adobe Illustrator 20.0.0, SVG Export Plug-In . SVG Version: 6.00 Build 0)  -->
<!DOCTYPE svg PUBLIC "-//W3C//DTD SVG 1.1//EN" "http://www.w3.org/Graphics/SVG/1.1/DTD/svg11.dtd">
<svg version="1.1" id="Layer_1" xmlns="http://www.w3.org/2000/svg" xmlns:xlink="http://www.w3.org/1999/xlink" x="0px" y="0px"
	 width="32px" height="32px" viewBox="0 0 32 32" enable-background="new 0 0 32 32" xml:space="preserve">
<path d="M10.392,21.502l-5.176,1.035C3.353,22.909,2,24.559,2,26.459V32h28v-5.541c0-1.9-1.353-3.55-3.215-3.922l-5.177-1.035
	C20.676,21.315,20,20.491,20,19.541v-0.872c2.379-1.676,4-4.744,4-7.669V7.074c0-2.42-1.92-4.4-4.317-4.496L19.039,1.29
	c-0.452-0.904-1.534-1.321-2.468-0.946l-5.504,2.202C9.347,3.232,8,5.223,8,7.075V11c0,2.925,1.621,5.993,4,7.669v0.872
	C12,20.491,11.324,21.315,10.392,21.502z M13.514,17.269C11.445,16.031,10,13.453,10,11V7.075c0-1.038,0.845-2.287,1.809-2.672
	l5.44-2.22l1.195,2.391h1.055c1.379,0,2.501,1.121,2.501,2.5V11c0,2.453-1.445,5.031-3.514,6.269L18,17.56v1.981
	c0,1.9,1.353,3.55,3.215,3.922l5.177,1.035h0C27.324,24.685,28,25.509,28,26.459V30H4v-3.541c0-0.95,0.676-1.774,1.608-1.961
	l5.176-1.035C12.647,23.091,14,21.441,14,19.541V17.56L13.514,17.269z"/>
</svg>
