<?xml version="1.0" encoding="utf-8"?>
<!-- Generator: Adobe Illustrator 19.1.0, SVG Export Plug-In . SVG Version: 6.00 Build 0)  -->
<!DOCTYPE svg PUBLIC "-//W3C//DTD SVG 1.1//EN" "http://www.w3.org/Graphics/SVG/1.1/DTD/svg11.dtd">
<svg version="1.1" id="Layer_1" xmlns="http://www.w3.org/2000/svg" xmlns:xlink="http://www.w3.org/1999/xlink" x="0px" y="0px"
	 width="24px" height="24px" viewBox="0 0 24 24" enable-background="new 0 0 24 24" xml:space="preserve">
<path d="M18,9h-5V3c0-0.6-0.4-1-1-1s-1,0.4-1,1v6H6c-3.3,0-6,2.7-6,6s2.7,6,6,6c2.2,0,4.1-1.2,5.2-3h1.6c1.1,1.8,3,3,5.2,3
	c3.3,0,6-2.7,6-6S21.3,9,18,9z M18,19c-1.6,0-3-0.9-3.7-2.4c-0.2-0.4-0.5-0.6-0.9-0.6h-2.8c-0.4,0-0.8,0.2-0.9,0.6
	C9,18.1,7.6,19,6,19c-2.2,0-4-1.8-4-4s1.8-4,4-4h12c2.2,0,4,1.8,4,4S20.2,19,18,19z"/>
<path d="M8,14H7v-1c0-0.6-0.4-1-1-1s-1,0.4-1,1v1H4c-0.6,0-1,0.4-1,1s0.4,1,1,1h1v1c0,0.6,0.4,1,1,1s1-0.4,1-1v-1h1c0.6,0,1-0.4,1-1
	S8.6,14,8,14z"/>
<path d="M17.7,14.7l1-1c0.4-0.4,0.4-1,0-1.4s-1-0.4-1.4,0l-1,1c-0.4,0.4-0.4,1,0,1.4c0.2,0.2,0.5,0.3,0.7,0.3S17.5,14.9,17.7,14.7z"
	/>
<path d="M18.3,15.3l-1,1c-0.4,0.4-0.4,1,0,1.4c0.2,0.2,0.5,0.3,0.7,0.3s0.5-0.1,0.7-0.3l1-1c0.4-0.4,0.4-1,0-1.4
	S18.7,14.9,18.3,15.3z"/>
</svg>
