<?xml version="1.0" encoding="utf-8"?>
<!-- Generator: Adobe Illustrator 19.1.0, SVG Export Plug-In . SVG Version: 6.00 Build 0)  -->
<!DOCTYPE svg PUBLIC "-//W3C//DTD SVG 1.1//EN" "http://www.w3.org/Graphics/SVG/1.1/DTD/svg11.dtd">
<svg version="1.1" id="Layer_1" xmlns="http://www.w3.org/2000/svg" xmlns:xlink="http://www.w3.org/1999/xlink" x="0px" y="0px"
	 width="24px" height="24px" viewBox="0 0 24 24" enable-background="new 0 0 24 24" xml:space="preserve">
<path d="M4,24h16c0.4,0,0.7-0.2,0.9-0.5s0.2-0.7,0-1L15,13.7V3c0-1.7-1.3-3-3-3S9,1.3,9,3v10.7l-5.8,8.7c-0.2,0.3-0.2,0.7,0,1
	S3.6,24,4,24z M11,11h2v2h-2V11z M12,2c0.6,0,1,0.4,1,1v6h-2V3C11,2.4,11.4,2,12,2z M10.5,15h2.9l4.7,7H16v-1c0-0.6-0.4-1-1-1
	s-1,0.4-1,1v1h-1v-1c0-0.6-0.4-1-1-1s-1,0.4-1,1v1h-1v-1c0-0.6-0.4-1-1-1s-1,0.4-1,1v1H5.9L10.5,15z"/>
</svg>
