<?xml version="1.0" encoding="utf-8"?>
<!-- Generator: Adobe Illustrator 19.1.0, SVG Export Plug-In . SVG Version: 6.00 Build 0)  -->
<!DOCTYPE svg PUBLIC "-//W3C//DTD SVG 1.1//EN" "http://www.w3.org/Graphics/SVG/1.1/DTD/svg11.dtd">
<svg version="1.1" id="Layer_1" xmlns="http://www.w3.org/2000/svg" xmlns:xlink="http://www.w3.org/1999/xlink" x="0px" y="0px"
	 width="24px" height="24px" viewBox="0 0 24 24" enable-background="new 0 0 24 24" xml:space="preserve">
<path d="M4.7,11.3c-0.8,1.3-1.2,2.2-1.2,2.2c-0.1,0.4-0.1,0.8,0.2,1.1l5.7,5.7c0.2,0.2,0.4,0.3,0.7,0.3c0.1,0,0.3,0,0.4-0.1
	c0,0,0.9-0.4,2.2-1.2l2.9,2.9c0.2,0.2,0.4,0.3,0.7,0.3c0.2,0,0.3,0,0.5-0.1c0.7-0.4,1.3-0.9,1.8-1.4c2.5-2.5,3.3-6.2,2.1-9.5
	c0.4-0.6,0.7-1.2,1.1-1.9c0-0.1,0.1-0.1,0.1-0.2c1.1-2.3,1.9-5,2-8.2c0-0.3-0.1-0.6-0.3-0.8c-0.2-0.2-0.5-0.3-0.8-0.3
	c-3.2,0.2-5.9,0.9-8.2,2c-0.1,0-0.1,0.1-0.2,0.1c-0.7,0.3-1.3,0.7-1.9,1.1C9.2,2.1,5.6,2.9,3.1,5.4c-0.5,0.5-1,1.1-1.4,1.8
	C1.5,7.6,1.5,8.1,1.8,8.4L4.7,11.3z M10.4,18.3l-4.7-4.7c0.8-1.7,3.5-6.5,9.1-9.3l4.9,4.9c-0.3,0.5-0.5,1-0.8,1.4c0,0,0,0.1-0.1,0.1
	c-1.9,3-4.4,5.1-6.3,6.3c-0.1,0-0.3,0.1-0.4,0.2c0,0,0,0,0,0C11.4,17.8,10.8,18.1,10.4,18.3z M17.2,19.5c-0.2,0.2-0.5,0.4-0.8,0.7
	l-2-2c1.5-1.1,3.2-2.6,4.8-4.6C19.5,15.7,18.8,17.9,17.2,19.5z M20.6,7.3l-3.9-3.9c1.5-0.6,3.2-1,5.1-1.2
	C21.6,4.1,21.1,5.8,20.6,7.3z M4.5,6.8c1.6-1.6,3.8-2.3,5.9-2c-2,1.6-3.4,3.3-4.5,4.8l-2-2C4,7.3,4.3,7,4.5,6.8z"/>
<path d="M13.7,13.3c0.8,0,1.5-0.3,2.1-0.9c1.2-1.2,1.2-3.1,0-4.2c-1.2-1.2-3.1-1.2-4.2,0c0,0,0,0,0,0c-1.2,1.2-1.2,3.1,0,4.2
	C12.1,13,12.9,13.3,13.7,13.3z M13,9.6c0.4-0.4,1-0.4,1.4,0c0.4,0.4,0.4,1,0,1.4c-0.4,0.4-1,0.4-1.4,0C12.6,10.6,12.6,10,13,9.6z"/>
<path d="M1.9,23c0.2,0,0.5,0,0.8,0c1,0,2.6-0.1,3.4-0.9C6.7,21.6,7,20.8,7,20s-0.3-1.6-0.9-2.1c-1.2-1.2-3.1-1.2-4.2,0c0,0,0,0,0,0
	c-1,1-0.9,3.5-0.9,4.2C1,22.6,1.4,23,1.9,23z M3.3,19.3c0.4-0.4,1-0.4,1.4,0C4.9,19.5,5,19.7,5,20s-0.1,0.5-0.3,0.7
	C4.5,20.9,3.8,21,3,21C3,20.2,3.1,19.5,3.3,19.3z"/>
</svg>
