<?xml version="1.0" encoding="utf-8"?>
<!-- Generator: Adobe Illustrator 19.1.0, SVG Export Plug-In . SVG Version: 6.00 Build 0)  -->
<!DOCTYPE svg PUBLIC "-//W3C//DTD SVG 1.1//EN" "http://www.w3.org/Graphics/SVG/1.1/DTD/svg11.dtd">
<svg version="1.1" id="Layer_1" xmlns="http://www.w3.org/2000/svg" xmlns:xlink="http://www.w3.org/1999/xlink" x="0px" y="0px"
	 width="24px" height="24px" viewBox="0 0 24 24" enable-background="new 0 0 24 24" xml:space="preserve">
<path d="M3,18.2V22c0,0.6,0.4,1,1,1s1-0.4,1-1v-0.9c1.8,1.8,4.3,2.9,7,2.9c2.7,0,5.2-1.1,7-2.9V22c0,0.6,0.4,1,1,1s1-0.4,1-1v-3.8
	c0,0,0-0.1,0-0.1V18c0-0.1,0-0.1,0-0.2c0,0,0,0,0,0c-0.1-0.4-0.5-0.8-1-0.8h-4c-0.6,0-1,0.4-1,1s0.4,1,1,1h2.2
	c-1.3,1.6-3.2,2.7-5.2,2.9V9h2c0.6,0,1-0.4,1-1s-0.4-1-1-1h-2V5.8c1.2-0.4,2-1.5,2-2.8c0-1.7-1.3-3-3-3S9,1.3,9,3
	c0,1.3,0.8,2.4,2,2.8V7H9C8.4,7,8,7.4,8,8s0.4,1,1,1h2v12.9c-2.1-0.3-3.9-1.3-5.2-2.9H8c0.6,0,1-0.4,1-1s-0.4-1-1-1H4
	c-0.5,0-0.9,0.3-1,0.8c0,0,0,0,0,0c0,0.1,0,0.1,0,0.2V18.2C3,18.2,3,18.2,3,18.2z M12,2c0.6,0,1,0.4,1,1s-0.4,1-1,1s-1-0.4-1-1
	S11.4,2,12,2z"/>
</svg>
