<?xml version="1.0" encoding="utf-8"?>
<!-- Generator: Adobe Illustrator 19.1.0, SVG Export Plug-In . SVG Version: 6.00 Build 0)  -->
<!DOCTYPE svg PUBLIC "-//W3C//DTD SVG 1.1//EN" "http://www.w3.org/Graphics/SVG/1.1/DTD/svg11.dtd">
<svg version="1.1" id="Layer_1" xmlns="http://www.w3.org/2000/svg" xmlns:xlink="http://www.w3.org/1999/xlink" x="0px" y="0px"
	 width="24px" height="24px" viewBox="0 0 24 24" enable-background="new 0 0 24 24" xml:space="preserve">
<path d="M23.4,0.1C23.3,0,23.1,0,23,0H7C6.7,0,6.5,0.1,6.3,0.3l-6,6C0.2,6.4,0.1,6.5,0.1,6.6C0,6.7,0,6.9,0,7v16c0,0.6,0.4,1,1,1h16
	c0.1,0,0.3,0,0.4-0.1c0.1-0.1,0.2-0.1,0.3-0.2l6-6c0.2-0.2,0.3-0.4,0.3-0.7V1c0-0.1,0-0.3-0.1-0.4C23.8,0.4,23.6,0.2,23.4,0.1z
	 M7.4,2h13.2l-4,4H3.4L7.4,2z M2,8h14v14H2V8z M18,20.6V7.4l4-4v13.2L18,20.6z"/>
<circle cx="12" cy="12" r="2"/>
<circle cx="6" cy="12" r="2"/>
<circle cx="12" cy="18" r="2"/>
<circle cx="6" cy="18" r="2"/>
</svg>
