<?xml version="1.0" encoding="utf-8"?>
<!-- Generator: Adobe Illustrator 19.1.0, SVG Export Plug-In . SVG Version: 6.00 Build 0)  -->
<!DOCTYPE svg PUBLIC "-//W3C//DTD SVG 1.1//EN" "http://www.w3.org/Graphics/SVG/1.1/DTD/svg11.dtd">
<svg version="1.1" id="Layer_1" xmlns="http://www.w3.org/2000/svg" xmlns:xlink="http://www.w3.org/1999/xlink" x="0px" y="0px"
	 width="24px" height="24px" viewBox="0 0 24 24" enable-background="new 0 0 24 24" xml:space="preserve">
<path d="M12,0C5.4,0,0,4.5,0,10c0,5.5,7.3,14,12,14s12-8.5,12-14C24,4.6,18.5,0,12,0z M12,22C8.4,22,2,14.4,2,10c0-4.4,4.5-8,10-8
	c5.4,0,10,3.7,10,8C22,14.7,15.4,22,12,22z"/>
<path d="M5,8C4.4,8,4,8.5,4,9c0,0.1,0,3.3,1.9,5.1c1.5,1.5,3.9,1.8,4,1.9c0,0,0.1,0,0.1,0c0.5,0,0.9-0.3,1-0.8
	c0.1-0.4,0.8-3.7-0.9-5.3C8.1,7.9,5.1,8,5,8z M9.2,13.8c-0.6-0.2-1.3-0.5-1.9-1.1c-0.7-0.7-1-1.8-1.2-2.6c0.8,0.1,1.8,0.5,2.6,1.2
	C9.2,11.8,9.2,12.9,9.2,13.8z"/>
<path d="M13.9,9.9c-1.7,1.7-1,5-0.9,5.3c0.1,0.5,0.5,0.8,1,0.8c0,0,0.1,0,0.1,0c0.1,0,2.5-0.3,4-1.9C20,12.3,20,9.1,20,9
	c0-0.5-0.4-1-1-1C18.9,8,15.9,7.9,13.9,9.9z M16.7,12.7c-0.5,0.5-1.3,0.9-1.9,1.1c-0.1-0.9,0-2,0.5-2.5c0.8-0.8,1.8-1.1,2.6-1.2
	C17.7,10.9,17.4,12,16.7,12.7z"/>
</svg>
