<?xml version="1.0" encoding="utf-8"?>
<!-- Generator: Adobe Illustrator 19.1.0, SVG Export Plug-In . SVG Version: 6.00 Build 0)  -->
<!DOCTYPE svg PUBLIC "-//W3C//DTD SVG 1.1//EN" "http://www.w3.org/Graphics/SVG/1.1/DTD/svg11.dtd">
<svg version="1.1" id="Layer_1" xmlns="http://www.w3.org/2000/svg" xmlns:xlink="http://www.w3.org/1999/xlink" x="0px" y="0px"
	 width="24px" height="24px" viewBox="0 0 24 24" enable-background="new 0 0 24 24" xml:space="preserve">
<path d="M4,12.9C4,12.9,4,12.9,4,12.9C4,12.9,4,12.9,4,12.9L1.9,15c-0.8,0.8-1.2,1.8-1.2,2.8s0.4,2.1,1.2,2.8l1.4,1.4
	c0.8,0.8,1.8,1.2,2.8,1.2s2.1-0.4,2.8-1.2l9.2-9.2l0.7,0.7c0.2,0.2,0.5,0.3,0.7,0.3s0.5-0.1,0.7-0.3l2.1-2.1c0.4-0.4,0.4-1,0-1.4
	L20.3,8l2.1-2.1c1.2-1.2,1.2-3.1,0-4.2c-1.2-1.2-3.1-1.2-4.2,0L16,3.7l-2.1-2.1c-0.4-0.4-1-0.4-1.4,0l-2.1,2.1c-0.4,0.4-0.4,1,0,1.4
	l0.7,0.7L4,12.9z M19.6,3c0.4-0.4,1-0.4,1.4,0c0.4,0.4,0.4,1,0,1.4l-2.1,2.1l-1.4-1.4L19.6,3z M13.2,3.7l7.1,7.1l-0.7,0.7l-7.1-7.1
	L13.2,3.7z M16.7,11.5l-9.2,9.2c-0.8,0.8-2.1,0.8-2.8,0l-1.4-1.4c-0.4-0.4-0.6-0.9-0.6-1.4s0.2-1,0.6-1.4L4.7,15l0.7,0.7
	C5.6,15.9,5.9,16,6.1,16s0.5-0.1,0.7-0.3c0.4-0.4,0.4-1,0-1.4l-0.7-0.7l0.7-0.7l0.7,0.7c0.2,0.2,0.5,0.3,0.7,0.3s0.5-0.1,0.7-0.3
	c0.4-0.4,0.4-1,0-1.4l-0.7-0.7L9,10.8l0.7,0.7c0.2,0.2,0.5,0.3,0.7,0.3s0.5-0.1,0.7-0.3c0.4-0.4,0.4-1,0-1.4l-0.7-0.7l2.1-2.1
	L16.7,11.5z"/>
</svg>
