<?xml version="1.0" encoding="utf-8"?>
<!-- Generator: Adobe Illustrator 19.1.0, SVG Export Plug-In . SVG Version: 6.00 Build 0)  -->
<!DOCTYPE svg PUBLIC "-//W3C//DTD SVG 1.1//EN" "http://www.w3.org/Graphics/SVG/1.1/DTD/svg11.dtd">
<svg version="1.1" id="Layer_1" xmlns="http://www.w3.org/2000/svg" xmlns:xlink="http://www.w3.org/1999/xlink" x="0px" y="0px"
	 width="24px" height="24px" viewBox="0 0 24 24" enable-background="new 0 0 24 24" xml:space="preserve">
<path d="M13,3V1c0-0.6-0.4-1-1-1s-1,0.4-1,1v2C6,3.5,1,7,1,16c0,5.9,5.9,8,11,8s11-2.1,11-8C23,7,18,3.5,13,3z M12,22
	c-4.2,0-9-1.6-9-6C3,6.1,9.3,5,12,5s9,1.1,9,11C21,20.4,16.2,22,12,22z"/>
<path d="M12,6c-4,0-8,2.7-8,8c0,3.7,4.3,5,8,5s8-1.3,8-5C20,8.8,15.9,6,12,6z M12,17c-0.2,0-6,0-6-3c0-4.7,3.9-6,6-6
	c2.4,0,6,1.6,6,6C18,17,12.2,17,12,17z"/>
<path d="M10.8,9.1C9.7,9.4,8.3,10,7.5,11.6c-0.2,0.5,0,1.1,0.4,1.3C8.1,13,8.3,13,8.4,13c0.4,0,0.7-0.2,0.9-0.6
	c0.3-0.7,1-1.1,1.9-1.4c0.5-0.1,0.9-0.7,0.8-1.2C11.9,9.4,11.3,9,10.8,9.1z"/>
</svg>
