<?xml version="1.0" encoding="utf-8"?>
<!-- Generator: Adobe Illustrator 19.1.0, SVG Export Plug-In . SVG Version: 6.00 Build 0)  -->
<!DOCTYPE svg PUBLIC "-//W3C//DTD SVG 1.1//EN" "http://www.w3.org/Graphics/SVG/1.1/DTD/svg11.dtd">
<svg version="1.1" id="Layer_1" xmlns="http://www.w3.org/2000/svg" xmlns:xlink="http://www.w3.org/1999/xlink" x="0px" y="0px"
	 width="24px" height="24px" viewBox="0 0 24 24" enable-background="new 0 0 24 24" xml:space="preserve">
<path d="M3,20c0.3,0,0.5-0.1,0.7-0.3L5,18.4c1.7,1.4,3.8,2.3,6,2.5V22H8c-0.6,0-1,0.4-1,1s0.4,1,1,1h8c0.6,0,1-0.4,1-1s-0.4-1-1-1
	h-3v-1.1c5.6-0.5,10-5.2,10-10.9c0-2.6-0.9-5.1-2.6-7l1.3-1.3c0.4-0.4,0.4-1,0-1.4s-1-0.4-1.4,0L19,1.6c-0.3-0.3-0.7-0.6-1.1-0.8
	c-0.5-0.3-1.1-0.2-1.4,0.3c-0.3,0.5-0.2,1.1,0.3,1.4C19.5,4.1,21,6.9,21,10c0,5-4,9-9,9c-3.1,0-6-1.6-7.6-4.2
	c-0.3-0.5-0.9-0.6-1.4-0.3c-0.5,0.3-0.6,0.9-0.3,1.4C3,16.3,3.2,16.7,3.6,17l-1.3,1.3c-0.4,0.4-0.4,1,0,1.4C2.5,19.9,2.7,20,3,20z"
	/>
<path d="M12,18c4.4,0,8-3.6,8-8s-3.6-8-8-8s-8,3.6-8,8S7.6,18,12,18z M12,4c3.3,0,6,2.7,6,6s-2.7,6-6,6s-6-2.7-6-6S8.7,4,12,4z"/>
</svg>
