<?xml version="1.0" encoding="utf-8"?>
<!-- Generator: Adobe Illustrator 19.1.0, SVG Export Plug-In . SVG Version: 6.00 Build 0)  -->
<!DOCTYPE svg PUBLIC "-//W3C//DTD SVG 1.1//EN" "http://www.w3.org/Graphics/SVG/1.1/DTD/svg11.dtd">
<svg version="1.1" id="Layer_1" xmlns="http://www.w3.org/2000/svg" xmlns:xlink="http://www.w3.org/1999/xlink" x="0px" y="0px"
	 width="24px" height="24px" viewBox="0 0 24 24" enable-background="new 0 0 24 24" xml:space="preserve">
<path d="M8.6,16.1C8.2,16.2,8,16.6,8,17v6c0,0.6,0.4,1,1,1h11c0.6,0,1-0.4,1-1V8c0.6,0,1-0.4,1-1V3c0-0.6-0.4-1-1-1H10
	C9.4,2,9,2.4,9,3v4c0,0.6,0.4,1,1,1h3.9c-1.1,1.1-2.5,1.8-4,1.9C9.3,10,8.9,10.5,9,11.1c0.1,0.5,0.5,0.9,1,0.9c0,0,0.1,0,0.1,0
	c1.6-0.2,3-0.8,4.3-1.8C12.9,14.1,8.8,16,8.6,16.1z M11,4h9v2h-9V4z M16.9,8H19v14h-9v-4.4C11.7,16.7,16.4,13.7,16.9,8z"/>
<path d="M2,5c0,0.6,0.4,1,1,1h2c0.6,0,1-0.4,1-1S5.6,4,5,4H3C2.4,4,2,4.4,2,5z"/>
<path d="M5.3,7.1l-1,0.6C3.8,8,3.6,8.6,3.9,9.1c0.2,0.3,0.5,0.5,0.9,0.5c0.2,0,0.3,0,0.5-0.1l1-0.6C6.8,8.6,6.9,8,6.7,7.5
	C6.4,7,5.8,6.9,5.3,7.1z"/>
<path d="M6.3,1.1l-1-0.6C4.8,0.3,4.2,0.4,3.9,0.9S3.8,2,4.3,2.3l1,0.6C5.5,3,5.6,3,5.8,3c0.3,0,0.7-0.2,0.9-0.5
	C6.9,2,6.8,1.4,6.3,1.1z"/>
</svg>
