<?xml version="1.0" encoding="utf-8"?>
<!-- Generator: Adobe Illustrator 19.1.0, SVG Export Plug-In . SVG Version: 6.00 Build 0)  -->
<!DOCTYPE svg PUBLIC "-//W3C//DTD SVG 1.1//EN" "http://www.w3.org/Graphics/SVG/1.1/DTD/svg11.dtd">
<svg version="1.1" id="Layer_1" xmlns="http://www.w3.org/2000/svg" xmlns:xlink="http://www.w3.org/1999/xlink" x="0px" y="0px"
	 width="24px" height="24px" viewBox="0 0 24 24" enable-background="new 0 0 24 24" xml:space="preserve">
<path d="M23,8h-0.8c-1.1-2.9-3.4-5.1-6.2-6.2V1c0-0.6-0.4-1-1-1H9C8.4,0,8,0.4,8,1v0.8C5.1,2.9,2.9,5.1,1.8,8H1C0.4,8,0,8.4,0,9v6
	c0,0.6,0.4,1,1,1h0.8c1.1,2.9,3.4,5.1,6.2,6.2V23c0,0.6,0.4,1,1,1h6c0.6,0,1-0.4,1-1v-0.8c2.9-1.1,5.1-3.4,6.2-6.2H23
	c0.6,0,1-0.4,1-1V9C24,8.4,23.6,8,23,8z M2,14v-4h0.5c0,0,0,0,0,0s0,0,0,0h3.9C6.1,10.6,6,11.3,6,12s0.1,1.4,0.4,2H2z M8,12
	c0-2.2,1.8-4,4-4s4,1.8,4,4s-1.8,4-4,4S8,14.2,8,12z M17.6,10h3.9c0,0,0,0,0,0c0,0,0,0,0,0H22v4h-4.4c0.2-0.6,0.4-1.3,0.4-2
	S17.9,10.6,17.6,10z M20.1,8h-3.6c-0.1-0.2-0.3-0.3-0.5-0.5V3.9C17.8,4.8,19.2,6.2,20.1,8z M14,2v4.4C13.4,6.1,12.7,6,12,6
	s-1.4,0.1-2,0.4V2H14z M8,3.9v3.6C7.8,7.7,7.7,7.8,7.5,8H3.9C4.8,6.2,6.2,4.8,8,3.9z M3.9,16h3.6c0.1,0.2,0.3,0.3,0.5,0.5v3.6
	C6.2,19.2,4.8,17.8,3.9,16z M10,22v-4.4c0.6,0.2,1.3,0.4,2,0.4s1.4-0.1,2-0.4V22H10z M16,20.1v-3.6c0.2-0.1,0.3-0.3,0.5-0.5h3.6
	C19.2,17.8,17.8,19.2,16,20.1z"/>
</svg>
