<?xml version="1.0" encoding="utf-8"?>
<!-- Generator: Adobe Illustrator 19.1.0, SVG Export Plug-In . SVG Version: 6.00 Build 0)  -->
<!DOCTYPE svg PUBLIC "-//W3C//DTD SVG 1.1//EN" "http://www.w3.org/Graphics/SVG/1.1/DTD/svg11.dtd">
<svg version="1.1" id="Layer_1" xmlns="http://www.w3.org/2000/svg" xmlns:xlink="http://www.w3.org/1999/xlink" x="0px" y="0px"
	 width="24px" height="24px" viewBox="0 0 24 24" enable-background="new 0 0 24 24" xml:space="preserve">
<path d="M2,22h6c0.6,0,1-0.4,1-1c0-1.1,0.9-2,2-2s2,0.9,2,2c0,0.6,0.4,1,1,1h5c0.6,0,1-0.4,1-1v-4c2.2,0,4-1.8,4-4s-1.8-4-4-4V5
	c0-0.6-0.4-1-1-1h-4c0-2.2-1.8-4-4-4S7,1.8,7,4H2C1.4,4,1,4.4,1,5v5c0,0.6,0.4,1,1,1c1.1,0,2,0.9,2,2s-0.9,2-2,2c-0.6,0-1,0.4-1,1v5
	C1,21.6,1.4,22,2,22z M3,16.9c1.7-0.4,3-2,3-3.9S4.7,9.6,3,9.1V6h5.2C8.5,6,8.8,5.8,9,5.6S9.2,5,9.1,4.7C9,4.4,9,4.2,9,4
	c0-1.1,0.9-2,2-2s2,0.9,2,2c0,0.2,0,0.4-0.1,0.7C12.8,5,12.8,5.3,13,5.6S13.5,6,13.8,6H18v4.2c0,0.3,0.2,0.6,0.4,0.8
	c0.3,0.2,0.6,0.2,0.9,0.1C19.6,11,19.8,11,20,11c1.1,0,2,0.9,2,2s-0.9,2-2,2c-0.2,0-0.4,0-0.7-0.1c-0.3-0.1-0.6-0.1-0.9,0.1
	c-0.3,0.2-0.4,0.5-0.4,0.8V20h-3.1c-0.4-1.7-2-3-3.9-3s-3.4,1.3-3.9,3H3V16.9z"/>
</svg>
