<?xml version="1.0" encoding="utf-8"?>
<!-- Generator: Adobe Illustrator 19.1.0, SVG Export Plug-In . SVG Version: 6.00 Build 0)  -->
<!DOCTYPE svg PUBLIC "-//W3C//DTD SVG 1.1//EN" "http://www.w3.org/Graphics/SVG/1.1/DTD/svg11.dtd">
<svg version="1.1" id="Layer_1" xmlns="http://www.w3.org/2000/svg" xmlns:xlink="http://www.w3.org/1999/xlink" x="0px" y="0px"
	 width="24px" height="24px" viewBox="0 0 24 24" enable-background="new 0 0 24 24" xml:space="preserve">
<path d="M22.9,11.6c-0.1-0.1-0.1-0.2-0.2-0.3l-3-3c-0.4-0.4-1-0.4-1.4,0s-0.4,1,0,1.4l1.3,1.3h-3.6c-0.2-3.1-1.4-6.1-3.4-8.5
	c0,0,0-0.1-0.1-0.1c0,0,0,0,0,0c-0.6-0.7-1.2-1.3-1.9-1.9c-0.4-0.4-1.1-0.3-1.4,0.1C8.9,1.1,8.9,1.7,9.4,2c0.4,0.3,0.8,0.7,1.2,1.1
	l-7,7.8H1c-0.6,0-1,0.4-1,1s0.4,1,1,1h2.6l7,7.8c-0.4,0.4-0.7,0.8-1.2,1.1c-0.4,0.4-0.5,1-0.1,1.4c0.2,0.2,0.5,0.4,0.8,0.4
	c0.2,0,0.5-0.1,0.6-0.2c0.7-0.6,1.3-1.2,1.9-1.9c0,0,0,0,0,0c0,0,0-0.1,0.1-0.1c2-2.4,3.1-5.4,3.4-8.5h3.6l-1.3,1.3
	c-0.4,0.4-0.4,1,0,1.4c0.2,0.2,0.5,0.3,0.7,0.3s0.5-0.1,0.7-0.3l3-3c0.1-0.1,0.2-0.2,0.2-0.3C23,12.1,23,11.9,22.9,11.6z M11.8,4.8
	c1.2,1.8,2,4,2.2,6.2H6.2L11.8,4.8z M11.8,19.2L6.2,13h7.7C13.8,15.3,13,17.4,11.8,19.2z"/>
</svg>
