<?xml version="1.0" encoding="utf-8"?>
<!-- Generator: Adobe Illustrator 19.1.0, SVG Export Plug-In . SVG Version: 6.00 Build 0)  -->
<!DOCTYPE svg PUBLIC "-//W3C//DTD SVG 1.1//EN" "http://www.w3.org/Graphics/SVG/1.1/DTD/svg11.dtd">
<svg version="1.1" id="Layer_1" xmlns="http://www.w3.org/2000/svg" xmlns:xlink="http://www.w3.org/1999/xlink" x="0px" y="0px"
	 width="24px" height="24px" viewBox="0 0 24 24" enable-background="new 0 0 24 24" xml:space="preserve">
<path d="M23,11h-8c-0.6,0-1,0.4-1,1v3c0,0.6-0.4,1-1,1s-1-0.4-1-1V9h1c0.6,0,1-0.4,1-1s-0.4-1-1-1h-2V4c0-2.2-1.8-4-4-4H3
	C2.4,0,2,0.4,2,1v3c0,0.6,0.4,1,1,1h3v2H4C3.4,7,3,7.4,3,8s0.4,1,1,1h1v6c0,5,4,9,9,9h1c5,0,9-4,9-9v-3C24,11.4,23.6,11,23,11z M6,3
	H4V2h3c1.1,0,2,0.9,2,2v3H8V5C8,3.9,7.1,3,6,3z M22,15c0,3.9-3.1,7-7,7h-1c-3.9,0-7-3.1-7-7V9h3v6c0,1.7,1.3,3,3,3s3-1.3,3-3v-2h6
	V15z"/>
</svg>
