<?xml version="1.0" encoding="utf-8"?>
<!-- Generator: Adobe Illustrator 19.1.0, SVG Export Plug-In . SVG Version: 6.00 Build 0)  -->
<!DOCTYPE svg PUBLIC "-//W3C//DTD SVG 1.1//EN" "http://www.w3.org/Graphics/SVG/1.1/DTD/svg11.dtd">
<svg version="1.1" id="Layer_1" xmlns="http://www.w3.org/2000/svg" xmlns:xlink="http://www.w3.org/1999/xlink" x="0px" y="0px"
	 width="48px" height="48px" viewBox="0 0 48 48" enable-background="new 0 0 48 48" xml:space="preserve">
<path d="M41,36.1V36c0-0.6-0.4-1-1-1h-8c-0.6,0-1,0.4-1,1s0.4,1,1,1h6.4c-2.9,4.7-7.9,7.6-13.4,8V17h5c0.6,0,1-0.4,1-1s-0.4-1-1-1
	h-5v-4.1c2.3-0.5,4-2.5,4-4.9c0-2.8-2.2-5-5-5s-5,2.2-5,5c0,2.4,1.7,4.4,4,4.9V15h-5c-0.6,0-1,0.4-1,1s0.4,1,1,1h5v28
	c-5.5-0.3-10.5-3.3-13.4-8H16c0.6,0,1-0.4,1-1s-0.4-1-1-1H8c-0.6,0-1,0.4-1,1v0.1c0,0.1,0,0.1,0,0.2V44c0,0.6,0.4,1,1,1s1-0.4,1-1
	v-4.3c3.6,4.6,9,7.3,15,7.3c6,0,11.4-2.7,15-7.3V44c0,0.6,0.4,1,1,1s1-0.4,1-1v-7.6C41,36.3,41,36.2,41,36.1z"/>
</svg>
