<?xml version="1.0" encoding="utf-8"?>
<!-- Generator: Adobe Illustrator 19.1.0, SVG Export Plug-In . SVG Version: 6.00 Build 0)  -->
<!DOCTYPE svg PUBLIC "-//W3C//DTD SVG 1.1//EN" "http://www.w3.org/Graphics/SVG/1.1/DTD/svg11.dtd">
<svg version="1.1" id="Layer_1" xmlns="http://www.w3.org/2000/svg" xmlns:xlink="http://www.w3.org/1999/xlink" x="0px" y="0px"
	 width="48px" height="48px" viewBox="0 0 48 48" enable-background="new 0 0 48 48" xml:space="preserve">
<path d="M24,1C11.3,1,1,11.3,1,24s10.3,23,23,23s23-10.3,23-23S36.7,1,24,1z M18,25c-1.7,0-3-1.3-3-3s1.3-3,3-3s3,1.3,3,3
	S19.7,25,18,25z M24,15c-1.7,0-3-1.3-3-3s1.3-3,3-3s3,1.3,3,3S25.7,15,24,15z M30,25c-1.7,0-3-1.3-3-3s1.3-3,3-3s3,1.3,3,3
	S31.7,25,30,25z"/>
</svg>
