<?xml version="1.0" encoding="utf-8"?>
<!-- Generator: Adobe Illustrator 19.1.0, SVG Export Plug-In . SVG Version: 6.00 Build 0)  -->
<!DOCTYPE svg PUBLIC "-//W3C//DTD SVG 1.1//EN" "http://www.w3.org/Graphics/SVG/1.1/DTD/svg11.dtd">
<svg version="1.1" id="Layer_1" xmlns="http://www.w3.org/2000/svg" xmlns:xlink="http://www.w3.org/1999/xlink" x="0px" y="0px"
	 width="48px" height="48px" viewBox="0 0 48 48" enable-background="new 0 0 48 48" xml:space="preserve">
<path d="M44.9,24.4c0.1-0.2,0.1-0.5,0-0.8c-0.1-0.1-0.1-0.2-0.2-0.3l-6-6c-0.4-0.4-1-0.4-1.4,0s-0.4,1,0,1.4l4.3,4.3H31
	c-0.3-8.2-4-15.9-10.3-21.2c-0.4-0.4-1.1-0.3-1.4,0.1c-0.4,0.4-0.3,1.1,0.1,1.4c1.1,0.9,2.1,1.9,3,3L7.6,23H2c-0.6,0-1,0.4-1,1
	s0.4,1,1,1h5.6l14.8,16.7c-0.9,1.1-1.9,2.1-3,3c-0.4,0.4-0.5,1-0.1,1.4c0.2,0.2,0.5,0.4,0.8,0.4c0.2,0,0.5-0.1,0.6-0.2
	c6.3-5.3,10-13,10.3-21.2h10.6l-4.3,4.3c-0.4,0.4-0.4,1,0,1.4c0.2,0.2,0.5,0.3,0.7,0.3s0.5-0.1,0.7-0.3l6-6
	C44.8,24.6,44.9,24.5,44.9,24.4z M23.7,7.9c3.2,4.4,5.1,9.6,5.3,15.1H10.2L23.7,7.9z M23.7,40.1L10.2,25H29
	C28.8,30.5,26.9,35.8,23.7,40.1z"/>
</svg>
