<?xml version="1.0" encoding="utf-8"?>
<!-- Generator: Adobe Illustrator 19.1.0, SVG Export Plug-In . SVG Version: 6.00 Build 0)  -->
<!DOCTYPE svg PUBLIC "-//W3C//DTD SVG 1.1//EN" "http://www.w3.org/Graphics/SVG/1.1/DTD/svg11.dtd">
<svg version="1.1" id="Layer_1" xmlns="http://www.w3.org/2000/svg" xmlns:xlink="http://www.w3.org/1999/xlink" x="0px" y="0px"
	 width="48px" height="48px" viewBox="0 0 48 48" enable-background="new 0 0 48 48" xml:space="preserve">
<path d="M24,1C12.4,1,3,10.4,3,22c0,7.3,3.8,14.1,10,17.9V46c0,0.6,0.4,1,1,1h5v-3c0-0.6,0.4-1,1-1s1,0.4,1,1v3h6v-3
	c0-0.6,0.4-1,1-1s1,0.4,1,1v3h5c0.6,0,1-0.4,1-1v-6.1c6.2-3.8,10-10.6,10-17.9C45,10.4,35.6,1,24,1z M16,31c-3.9,0-7-3.1-7-7
	s3.1-7,7-7s7,3.1,7,7S19.9,31,16,31z M26.9,36.4C26.8,36.8,26.4,37,26,37h-4c-0.4,0-0.8-0.2-0.9-0.6c-0.2-0.4-0.1-0.8,0.2-1.1l2-2
	c0.4-0.4,1-0.4,1.4,0l2,2C27,35.6,27.1,36,26.9,36.4z M32,31c-3.9,0-7-3.1-7-7s3.1-7,7-7s7,3.1,7,7S35.9,31,32,31z"/>
</svg>
