<?xml version="1.0" encoding="utf-8"?>
<!-- Generator: Adobe Illustrator 19.1.0, SVG Export Plug-In . SVG Version: 6.00 Build 0)  -->
<!DOCTYPE svg PUBLIC "-//W3C//DTD SVG 1.1//EN" "http://www.w3.org/Graphics/SVG/1.1/DTD/svg11.dtd">
<svg version="1.1" id="Layer_1" xmlns="http://www.w3.org/2000/svg" xmlns:xlink="http://www.w3.org/1999/xlink" x="0px" y="0px"
	 width="48px" height="48px" viewBox="0 0 48 48" enable-background="new 0 0 48 48" xml:space="preserve">
<path d="M20,40H2c-0.6,0-1,0.4-1,1v3c0,0.6,0.4,1,1,1h18c0.6,0,1-0.4,1-1v-3C21,40.4,20.6,40,20,40z"/>
<path d="M14,8h6c0.6,0,1-0.4,1-1V4c0-0.6-0.4-1-1-1h-6c-0.6,0-1,0.4-1,1v3C13,7.6,13.4,8,14,8z"/>
<path d="M44,40H26c-0.6,0-1,0.4-1,1v3c0,0.6,0.4,1,1,1h18c0.6,0,1-0.4,1-1v-3C45,40.4,44.6,40,44,40z"/>
<path d="M26,8h6c0.6,0,1-0.4,1-1V4c0-0.6-0.4-1-1-1h-6c-0.6,0-1,0.4-1,1v3C25,7.6,25.4,8,26,8z"/>
<path d="M25,12v25c0,0.6,0.4,1,1,1h16c0.6,0,1-0.4,1-1v-7c0-0.1,0-0.2,0-0.3l-6-19c-0.1-0.4-0.5-0.7-1-0.7h-4h-6h-6h-6h-4
	c-0.4,0-0.8,0.3-1,0.7l-6,19c0,0.1,0,0.2,0,0.3v7c0,0.6,0.4,1,1,1h16c0.6,0,1-0.4,1-1V12H25z"/>
</svg>
