<?xml version="1.0" encoding="utf-8"?>
<!-- Generator: Adobe Illustrator 19.1.0, SVG Export Plug-In . SVG Version: 6.00 Build 0)  -->
<!DOCTYPE svg PUBLIC "-//W3C//DTD SVG 1.1//EN" "http://www.w3.org/Graphics/SVG/1.1/DTD/svg11.dtd">
<svg version="1.1" id="Layer_1" xmlns="http://www.w3.org/2000/svg" xmlns:xlink="http://www.w3.org/1999/xlink" x="0px" y="0px"
	 width="48px" height="48px" viewBox="0 0 48 48" enable-background="new 0 0 48 48" xml:space="preserve">
<path d="M46,17h-2.2C41.7,11,37,6.3,31,4.2V2c0-0.6-0.4-1-1-1H18c-0.6,0-1,0.4-1,1v2.2C11,6.3,6.3,11,4.2,17H2c-0.6,0-1,0.4-1,1v12
	c0,0.6,0.4,1,1,1h2.2C6.3,37,11,41.7,17,43.8V46c0,0.6,0.4,1,1,1h12c0.6,0,1-0.4,1-1v-2.2C37,41.7,41.7,37,43.8,31H46
	c0.6,0,1-0.4,1-1V18C47,17.4,46.6,17,46,17z M24,33c-5,0-9-4-9-9s4-9,9-9s9,4,9,9S29,33,24,33z M29,3v11.2c-1.5-0.8-3.2-1.2-5-1.2
	s-3.5,0.4-5,1.2V3H29z M3,19h1.9c0,0,0,0,0,0c0,0,0,0,0,0h9.3c-0.8,1.5-1.2,3.2-1.2,5s0.4,3.5,1.2,5H3V19z M19,45V33.8
	c1.5,0.8,3.2,1.2,5,1.2s3.5-0.4,5-1.2V45H19z M45,29H33.8c0.8-1.5,1.2-3.2,1.2-5s-0.4-3.5-1.2-5h9.3c0,0,0,0,0,0c0,0,0,0,0,0H45V29z
	"/>
</svg>
