<?xml version="1.0" encoding="utf-8"?>
<!-- Generator: Adobe Illustrator 19.1.0, SVG Export Plug-In . SVG Version: 6.00 Build 0)  -->
<!DOCTYPE svg PUBLIC "-//W3C//DTD SVG 1.1//EN" "http://www.w3.org/Graphics/SVG/1.1/DTD/svg11.dtd">
<svg version="1.1" id="Layer_1" xmlns="http://www.w3.org/2000/svg" xmlns:xlink="http://www.w3.org/1999/xlink" x="0px" y="0px"
	 width="48px" height="48px" viewBox="0 0 48 48" enable-background="new 0 0 48 48" xml:space="preserve">
<path d="M24,1C11.3,1,1,11.3,1,24s10.3,23,23,23s23-10.3,23-23S36.7,1,24,1z M24,35c-7.2,0-13-5.8-13-13S16.8,9,24,9s13,5.8,13,13
	S31.2,35,24,35z"/>
<path d="M26.8,20.9c0.7-0.7,1.2-1.7,1.2-2.9c0-2.2-1.8-4-4-4s-4,1.8-4,4c0,1.1,0.5,2.1,1.2,2.9C19.9,21.8,19,23.3,19,25
	c0,2.8,2.2,5,5,5s5-2.2,5-5C29,23.3,28.1,21.8,26.8,20.9z M22,18c0-1.1,0.9-2,2-2s2,0.9,2,2s-0.9,2-2,2S22,19.1,22,18z M24,28
	c-1.7,0-3-1.3-3-3s1.3-3,3-3s3,1.3,3,3S25.7,28,24,28z"/>
</svg>
