<?xml version="1.0" encoding="utf-8"?>
<!-- Generator: Adobe Illustrator 19.1.0, SVG Export Plug-In . SVG Version: 6.00 Build 0)  -->
<!DOCTYPE svg PUBLIC "-//W3C//DTD SVG 1.1//EN" "http://www.w3.org/Graphics/SVG/1.1/DTD/svg11.dtd">
<svg version="1.1" id="Layer_1" xmlns="http://www.w3.org/2000/svg" xmlns:xlink="http://www.w3.org/1999/xlink" x="0px" y="0px"
	 width="48px" height="48px" viewBox="0 0 48 48" enable-background="new 0 0 48 48" xml:space="preserve">
<path d="M47,10c0-3.9-3.1-7-7-7s-7,3.1-7,7c0,0.5,0,0.9,0.1,1.3C30.4,9.9,27.3,9,24,9s-6.4,0.9-9.1,2.3C15,10.9,15,10.5,15,10
	c0-3.9-3.1-7-7-7s-7,3.1-7,7s3.1,7,7,7c0.2,0,0.4,0,0.6,0C6.3,20.1,5,23.9,5,28c0,10.5,8.5,19,19,19s19-8.5,19-19
	c0-4.1-1.3-7.9-3.6-11c0.2,0,0.4,0,0.6,0C43.9,17,47,13.9,47,10z M16,22c0-1.1,0.9-2,2-2s2,0.9,2,2s-0.9,2-2,2S16,23.1,16,22z
	 M28,37h-8c-0.6,0-1-0.4-1-1s0.4-1,1-1h3v-2.8l-1.9-3.8c-0.2-0.3-0.1-0.7,0-1c0.2-0.3,0.5-0.5,0.9-0.5h4c0.3,0,0.7,0.2,0.9,0.5
	c0.2,0.3,0.2,0.7,0,1L25,32.2V35h3c0.6,0,1,0.4,1,1S28.6,37,28,37z M30,24c-1.1,0-2-0.9-2-2s0.9-2,2-2s2,0.9,2,2S31.1,24,30,24z"/>
</svg>
