<?xml version="1.0" encoding="utf-8"?>
<!-- Generator: Adobe Illustrator 19.1.0, SVG Export Plug-In . SVG Version: 6.00 Build 0)  -->
<!DOCTYPE svg PUBLIC "-//W3C//DTD SVG 1.1//EN" "http://www.w3.org/Graphics/SVG/1.1/DTD/svg11.dtd">
<svg version="1.1" id="Layer_1" xmlns="http://www.w3.org/2000/svg" xmlns:xlink="http://www.w3.org/1999/xlink" x="0px" y="0px"
	 width="48px" height="48px" viewBox="0 0 48 48" enable-background="new 0 0 48 48" xml:space="preserve">
<path d="M45.3,15.5l-6.4-6.4l3.5-3.5c0.4-0.4,0.4-1,0-1.4s-1-0.4-1.4,0L29.7,15.5c0,0,0,0,0,0c0,0,0,0,0,0l-9.2,9.2
	c-2-1.6-4.4-2.5-7-2.5c-2.9,0-5.7,1.1-7.8,3.2c-2.1,2.1-3.2,4.8-3.2,7.8s1.1,5.7,3.2,7.8s4.8,3.2,7.8,3.2c2.9,0,5.7-1.1,7.8-3.2
	s3.2-4.8,3.2-7.8c0-2.6-0.9-5.1-2.5-7l8.5-8.5l6.4,6.4c0.2,0.2,0.4,0.3,0.7,0.3s0.5-0.1,0.7-0.3l7.1-7.1
	C45.7,16.5,45.7,15.9,45.3,15.5z"/>
</svg>
