<?xml version="1.0" encoding="utf-8"?>
<!-- Generator: Adobe Illustrator 19.1.0, SVG Export Plug-In . SVG Version: 6.00 Build 0)  -->
<!DOCTYPE svg PUBLIC "-//W3C//DTD SVG 1.1//EN" "http://www.w3.org/Graphics/SVG/1.1/DTD/svg11.dtd">
<svg version="1.1" id="Layer_1" xmlns="http://www.w3.org/2000/svg" xmlns:xlink="http://www.w3.org/1999/xlink" x="0px" y="0px"
	 width="48px" height="48px" viewBox="0 0 48 48" enable-background="new 0 0 48 48" xml:space="preserve">
<path d="M40.3,7.7C35.9,3.4,30.1,1,24,1S12.1,3.4,7.7,7.7c-9,9-9,23.6,0,32.5C12.1,44.6,17.9,47,24,47s11.9-2.4,16.3-6.7
	C49.2,31.3,49.2,16.7,40.3,7.7z M41.9,34.9l-7.5-7.5c0.7-2.2,0.7-4.6,0-6.8l7.5-7.5C46,19.8,46,28.2,41.9,34.9z M27.3,32.4
	C27.3,32.4,27.3,32.4,27.3,32.4C26.2,32.8,25.1,33,24,33s-2.2-0.2-3.2-0.6c0,0,0,0-0.1,0c-1.1-0.4-2.2-1.1-3.1-2
	c-0.9-0.9-1.6-2-2-3.1c0,0,0,0,0,0c-0.8-2.1-0.8-4.4,0-6.5c0,0,0,0,0,0c0.4-1.1,1.1-2.2,2-3.1c0.9-0.9,1.9-1.6,3.1-2c0,0,0,0,0.1,0
	c1-0.4,2.1-0.6,3.2-0.6s2.2,0.2,3.2,0.6c0,0,0,0,0.1,0c1.1,0.4,2.2,1.1,3.1,2c0.9,0.9,1.6,2,2,3.1c0,0,0,0,0,0
	c0.8,2.1,0.8,4.4,0,6.5c0,0,0,0,0,0c-0.4,1.1-1.1,2.2-2,3.1C29.5,31.2,28.4,31.9,27.3,32.4z M34.9,6.1l-7.5,7.5
	C26.3,13.2,25.2,13,24,13s-2.3,0.2-3.4,0.5l-7.5-7.5c3.2-2,7-3.1,10.9-3.1S31.6,4.1,34.9,6.1z M6.1,13.1l7.5,7.5
	c-0.7,2.2-0.7,4.6,0,6.8l-7.5,7.5C2,28.2,2,19.8,6.1,13.1z M13.1,41.9l7.5-7.5c1.1,0.3,2.2,0.5,3.4,0.5s2.3-0.2,3.4-0.5l7.5,7.5
	c-3.2,2-7,3.1-10.9,3.1S16.4,43.9,13.1,41.9z"/>
</svg>
