<?xml version="1.0" encoding="utf-8"?>
<!-- Generator: Adobe Illustrator 19.1.0, SVG Export Plug-In . SVG Version: 6.00 Build 0)  -->
<!DOCTYPE svg PUBLIC "-//W3C//DTD SVG 1.1//EN" "http://www.w3.org/Graphics/SVG/1.1/DTD/svg11.dtd">
<svg version="1.1" id="Layer_1" xmlns="http://www.w3.org/2000/svg" xmlns:xlink="http://www.w3.org/1999/xlink" x="0px" y="0px"
	 width="48px" height="48px" viewBox="0 0 48 48" enable-background="new 0 0 48 48" xml:space="preserve">
<path d="M38,23H25V10.9c3.4-0.5,6-3.4,6-6.9V2c0-0.6-0.4-1-1-1H18c-0.6,0-1,0.4-1,1v2c0,3.5,2.6,6.4,6,6.9V23H10c-0.6,0-1,0.4-1,1
	v15c0,4.4,3.6,8,8,8h14c4.4,0,8-3.6,8-8V24C39,23.4,38.6,23,38,23z M19,4V3h10v1c0,2.8-2.2,5-5,5S19,6.8,19,4z"/>
</svg>
