<?xml version="1.0" encoding="utf-8"?>
<!-- Generator: Adobe Illustrator 19.1.0, SVG Export Plug-In . SVG Version: 6.00 Build 0)  -->
<!DOCTYPE svg PUBLIC "-//W3C//DTD SVG 1.1//EN" "http://www.w3.org/Graphics/SVG/1.1/DTD/svg11.dtd">
<svg version="1.1" id="Layer_1" xmlns="http://www.w3.org/2000/svg" xmlns:xlink="http://www.w3.org/1999/xlink" x="0px" y="0px"
	 width="48px" height="48px" viewBox="0 0 48 48" enable-background="new 0 0 48 48" xml:space="preserve">
<path d="M40.7,29.1c0.2-1,0.3-2,0.3-3.1c0-10.5-8.5-19-19-19c-1.1,0-2.1,0.1-3.1,0.3c-7.4-5-13.1-6.5-15.5-4.1
	c-2,2-1.5,5.9,1.4,11.3c0.3,0.5,0.6,1.1,1,1.7C4,19.1,3,22.4,3,26c0,10.5,8.5,19,19,19c3.6,0,6.9-1,9.8-2.8c0.6,0.3,1.1,0.7,1.7,1
	c3.2,1.7,5.9,2.6,8,2.6c1.4,0,2.5-0.4,3.3-1.2C47.2,42.2,45.8,36.5,40.7,29.1z M13.1,32.8c-1.1,0-1.9-0.9-1.9-1.9S12,29,13.1,29
	s1.9,0.9,1.9,1.9S14.1,32.8,13.1,32.8z M7,14.4C4.3,9.6,3.5,6,4.8,4.6C6,3.4,10,4,16.2,7.9C12.5,9.1,9.3,11.4,7,14.4z M22,21
	c-1.7,0-3-1.3-3-3s1.3-3,3-3s3,1.3,3,3S23.7,21,22,21z M30,30c-1.1,0-2-0.9-2-2s0.9-2,2-2s2,0.9,2,2S31.1,30,30,30z M43.4,43.2
	c-1.2,1.2-4.6,0.6-8.9-1.8c-0.3-0.1-0.5-0.3-0.8-0.5c3-2.3,5.3-5.5,6.4-9.2C44,38,44.6,42,43.4,43.2z"/>
</svg>
