<?xml version="1.0" encoding="utf-8"?>
<!-- Generator: Adobe Illustrator 19.1.0, SVG Export Plug-In . SVG Version: 6.00 Build 0)  -->
<!DOCTYPE svg PUBLIC "-//W3C//DTD SVG 1.1//EN" "http://www.w3.org/Graphics/SVG/1.1/DTD/svg11.dtd">
<svg version="1.1" id="Layer_1" xmlns="http://www.w3.org/2000/svg" xmlns:xlink="http://www.w3.org/1999/xlink" x="0px" y="0px"
	 width="48px" height="48px" viewBox="0 0 48 48" enable-background="new 0 0 48 48" xml:space="preserve">
<path d="M41,38.3L29.7,27L40.8,20c0.3-0.2,0.4-0.4,0.5-0.7c0-0.2,0.6-5.6-5.9-12.1c-5.4-5.4-9.9-6-11.6-6c-0.3,0-0.5,0-0.5,0
	c-0.3,0-0.6,0.2-0.7,0.5l-6.9,11.1l-1.4-1.4c-2-2-5.1-1.9-7.1,0c-1.9,1.9-1.9,5.1,0,7.1l3,3l-1.8,2.8c-0.2,0.4-0.2,0.9,0.1,1.2
	l8.5,8.5c0.2,0.2,0.7,0.4,1.2,0.1l2.8-1.8l12.9,12.9c1,1,2.3,1.5,3.5,1.5c1.3,0,2.6-0.5,3.5-1.5C42.9,43.4,42.9,40.2,41,38.3z
	 M17.8,32.1l-7.4-7.4L20.6,8.4c1.3,0,5.1,0.4,9.1,4.4c4,4,4.4,7.8,4.4,9.1L17.8,32.1z"/>
</svg>
