<?xml version="1.0" encoding="utf-8"?>
<!-- Generator: Adobe Illustrator 19.1.0, SVG Export Plug-In . SVG Version: 6.00 Build 0)  -->
<!DOCTYPE svg PUBLIC "-//W3C//DTD SVG 1.1//EN" "http://www.w3.org/Graphics/SVG/1.1/DTD/svg11.dtd">
<svg version="1.1" id="Layer_1" xmlns="http://www.w3.org/2000/svg" xmlns:xlink="http://www.w3.org/1999/xlink" x="0px" y="0px"
	 width="48px" height="48px" viewBox="0 0 48 48" enable-background="new 0 0 48 48" xml:space="preserve">
<path d="M41,18c0-9.4-7.6-17-17-17S7,8.6,7,18c0,8.6,6.4,15.7,14.8,16.8l-2.5,2.5c-0.3,0.3-0.4,0.7-0.2,1.1c0.2,0.4,0.5,0.6,0.9,0.6
	h3v7c0,0.6,0.4,1,1,1s1-0.4,1-1v-7h3c0,0,0,0,0,0c0.6,0,1-0.4,1-1c0-0.3-0.2-0.6-0.4-0.8l-2.4-2.4C34.6,33.7,41,26.6,41,18z
	 M15.2,16.2c-0.1,0.5-0.5,0.8-1,0.8c-0.1,0-0.1,0-0.2,0c-0.5-0.1-0.9-0.6-0.8-1.2c0.9-4.3,4.2-7.7,8.6-8.6C22.4,7.1,22.9,7.5,23,8
	c0.1,0.5-0.2,1.1-0.8,1.2C18.7,9.9,15.9,12.7,15.2,16.2z"/>
</svg>
