<?xml version="1.0" encoding="utf-8"?>
<!-- Generator: Adobe Illustrator 19.1.0, SVG Export Plug-In . SVG Version: 6.00 Build 0)  -->
<!DOCTYPE svg PUBLIC "-//W3C//DTD SVG 1.1//EN" "http://www.w3.org/Graphics/SVG/1.1/DTD/svg11.dtd">
<svg version="1.1" id="Layer_1" xmlns="http://www.w3.org/2000/svg" xmlns:xlink="http://www.w3.org/1999/xlink" x="0px" y="0px"
	 width="48px" height="48px" viewBox="0 0 48 48" enable-background="new 0 0 48 48" xml:space="preserve">
<path d="M24,35c8.3,0,15-6.7,15-15S32.3,5,24,5S9,11.7,9,20S15.7,35,24,35z"/>
<path id="color" d="M45,20c0-5.3-2-10.3-5.5-14.1l3.2-3.2c0.4-0.4,0.4-1,0-1.4s-1-0.4-1.4,0l-3.2,3.2c-0.9-0.8-1.8-1.5-2.8-2.1
	C34.9,2,34.3,2.2,34,2.6c-0.3,0.5-0.2,1.1,0.3,1.4c5.5,3.5,8.7,9.5,8.7,16c0,10.5-8.5,19-19,19c-5.1,0-9.9-2-13.4-5.5c0,0,0,0,0,0
	c0,0,0,0,0,0c-1-1-1.9-2.1-2.6-3.3c-0.3-0.5-0.9-0.6-1.4-0.3c-0.5,0.3-0.6,0.9-0.3,1.4c0.7,1.1,1.4,2.1,2.3,3l-3.2,3.2
	c-0.4,0.4-0.4,1,0,1.4C5.5,38.9,5.7,39,6,39s0.5-0.1,0.7-0.3l3.2-3.2c3.6,3.3,8.2,5.2,13.1,5.4v4h-7c-0.6,0-1,0.4-1,1s0.4,1,1,1h16
	c0.6,0,1-0.4,1-1s-0.4-1-1-1h-7v-4.1C36.1,40.4,45,31.2,45,20z"/>
</svg>
