<?xml version="1.0" encoding="utf-8"?>
<!-- Generator: Adobe Illustrator 19.1.0, SVG Export Plug-In . SVG Version: 6.00 Build 0)  -->
<!DOCTYPE svg PUBLIC "-//W3C//DTD SVG 1.1//EN" "http://www.w3.org/Graphics/SVG/1.1/DTD/svg11.dtd">
<svg version="1.1" id="Layer_1" xmlns="http://www.w3.org/2000/svg" xmlns:xlink="http://www.w3.org/1999/xlink" x="0px" y="0px"
	 width="48px" height="48px" viewBox="0 0 48 48" enable-background="new 0 0 48 48" xml:space="preserve">
<path d="M42,5H20c-0.6,0-1,0.4-1,1v8c0,0.6,0.4,1,1,1h10c-2.4,3.2-6.1,5.4-10.1,5.9C19.3,21,18.9,21.5,19,22c0.1,0.5,0.5,0.9,1,0.9
	c0,0,0.1,0,0.1,0c4.1-0.5,7.9-2.5,10.6-5.6c-2,10.7-13,15.7-13.1,15.8C17.2,33.2,17,33.6,17,34v12c0,0.6,0.4,1,1,1h22
	c0.6,0,1-0.4,1-1V15h1c0.6,0,1-0.4,1-1V6C43,5.4,42.6,5,42,5z"/>
<path d="M11,10c0-0.6-0.4-1-1-1H6c-0.6,0-1,0.4-1,1s0.4,1,1,1h4C10.6,11,11,10.6,11,10z"/>
<path d="M11.1,15.1L9,16.3c-0.5,0.3-0.6,0.9-0.4,1.4c0.2,0.3,0.5,0.5,0.9,0.5c0.2,0,0.3,0,0.5-0.1l2.1-1.2c0.5-0.3,0.6-0.9,0.4-1.4
	C12.2,15,11.6,14.9,11.1,15.1z"/>
<path d="M12.1,3.1L10,1.9C9.6,1.7,9,1.8,8.7,2.3S8.6,3.4,9,3.7l2.1,1.2C11.3,5,11.4,5,11.6,5c0.3,0,0.7-0.2,0.9-0.5
	C12.8,4,12.6,3.4,12.1,3.1z"/>
</svg>
