<?xml version="1.0" encoding="utf-8"?>
<!-- Generator: Adobe Illustrator 18.1.1, SVG Export Plug-In . SVG Version: 6.00 Build 0)  -->
<!DOCTYPE svg PUBLIC "-//W3C//DTD SVG 1.1//EN" "http://www.w3.org/Graphics/SVG/1.1/DTD/svg11.dtd">
<svg version="1.1" id="Layer_1" xmlns="http://www.w3.org/2000/svg" xmlns:xlink="http://www.w3.org/1999/xlink" x="0px" y="0px"
	 width="32px" height="32px" viewBox="0 0 32 32" enable-background="new 0 0 32 32" xml:space="preserve">
<path d="M31,13h-6.4l-3.7-6.5C20.7,6.2,20.4,6,20,6H8C7.6,6,7.2,6.2,7.1,6.6L4.3,13H1c-0.6,0-1,0.4-1,1v8c0,0.6,0.4,1,1,1h2.1
	c0.4,1.7,2,3,3.9,3s3.4-1.3,3.9-3h10.3c0.4,1.7,2,3,3.9,3s3.4-1.3,3.9-3H31c0.6,0,1-0.4,1-1v-8C32,13.4,31.6,13,31,13z M7,24
	c-1.1,0-2-0.9-2-2s0.9-2,2-2s2,0.9,2,2S8.1,24,7,24z M19,15h-4c-0.6,0-1-0.4-1-1v-4c0-0.6,0.4-1,1-1s1,0.4,1,1v3h3c0.6,0,1,0.4,1,1
	S19.6,15,19,15z M25,24c-1.1,0-2-0.9-2-2s0.9-2,2-2s2,0.9,2,2S26.1,24,25,24z"/>
</svg>
