<?xml version="1.0" encoding="utf-8"?>
<!-- Generator: Adobe Illustrator 18.1.1, SVG Export Plug-In . SVG Version: 6.00 Build 0)  -->
<!DOCTYPE svg PUBLIC "-//W3C//DTD SVG 1.1//EN" "http://www.w3.org/Graphics/SVG/1.1/DTD/svg11.dtd">
<svg version="1.1" id="Layer_1" xmlns="http://www.w3.org/2000/svg" xmlns:xlink="http://www.w3.org/1999/xlink" x="0px" y="0px"
	 width="32px" height="32px" viewBox="0 0 32 32" enable-background="new 0 0 32 32" xml:space="preserve">
<path d="M19,26h-6c-0.6,0-1,0.4-1,1v4c0,0.6,0.4,1,1,1h6c0.6,0,1-0.4,1-1v-4C20,26.4,19.6,26,19,26z"/>
<path d="M16,0C16,0,16,0,16,0C16,0,16,0,16,0C16,0,16,0,16,0C16,0,16,0,16,0C10.1,0,5,5.2,5,11c0,5.3,6,12.4,6.2,12.7
	c0.2,0.2,0.5,0.3,0.8,0.3h1c0,0,0,0,0,0c0,0,0,0,0,0h7c0.3,0,0.6-0.1,0.8-0.3C21,23.4,27,16.3,27,11C27,5.2,21.9,0,16,0z M11.1,20.2
	C9.4,17.9,7,14,7,11c0-3.3,2.1-6.4,5-7.9C8.6,7.9,10,15.8,11.1,20.2z M15,22h-1.3C12.8,19.1,9.4,7.1,15,2.8V22z M18.3,22H17V2.8
	C22.6,7.1,19.2,19.1,18.3,22z M20.9,20.2C22,15.9,23.4,7.9,20,3.1c2.9,1.6,5,4.6,5,7.9C25,14,22.6,17.9,20.9,20.2z"/>
</svg>
