<?xml version="1.0" encoding="utf-8"?>
<!-- Generator: Adobe Illustrator 18.1.1, SVG Export Plug-In . SVG Version: 6.00 Build 0)  -->
<!DOCTYPE svg PUBLIC "-//W3C//DTD SVG 1.1//EN" "http://www.w3.org/Graphics/SVG/1.1/DTD/svg11.dtd">
<svg version="1.1" id="Layer_1" xmlns="http://www.w3.org/2000/svg" xmlns:xlink="http://www.w3.org/1999/xlink" x="0px" y="0px"
	 width="32px" height="32px" viewBox="0 0 32 32" enable-background="new 0 0 32 32" xml:space="preserve">
<path d="M31,4c0.6,0,1-0.4,1-1s-0.4-1-1-1H11c-0.6,0-1,0.4-1,1s0.4,1,1,1h9v3H5.8L5,3.8C4.9,3.3,4.5,3,4,3H2C1.7,3,1.4,3.1,1.3,3.3
	C1.1,3.6,1,3.8,1,4.1l1,8C2.1,12.6,2.5,13,3,13h7v3c0,4.5,3.3,8.2,7.6,8.9L16.3,28H11c-0.6,0-1,0.4-1,1s0.4,1,1,1h6c0,0,0,0,0,0
	c0,0,0,0,0,0h9c0,0,0,0,0,0c0,0,0,0,0,0h2c2.2,0,4-1.8,4-4c0-0.6-0.4-1-1-1s-1,0.4-1,1c0,1.1-0.9,2-2,2h-1.3l-1.3-3.3
	c3.8-1,6.7-4.5,6.7-8.7c0-5-4-9-9-9h-1V4H31z M18.5,28l1.2-3H23c0.1,0,0.2,0,0.3,0l1.2,3H18.5z M27,15c0.6,0,1,0.4,1,1s-0.4,1-1,1
	h-6c-0.6,0-1-0.4-1-1v-4c0-0.6,0.4-1,1-1s1,0.4,1,1v3H27z"/>
</svg>
