<?xml version="1.0" encoding="utf-8"?>
<!-- Generator: Adobe Illustrator 18.1.1, SVG Export Plug-In . SVG Version: 6.00 Build 0)  -->
<!DOCTYPE svg PUBLIC "-//W3C//DTD SVG 1.1//EN" "http://www.w3.org/Graphics/SVG/1.1/DTD/svg11.dtd">
<svg version="1.1" id="Layer_1" xmlns="http://www.w3.org/2000/svg" xmlns:xlink="http://www.w3.org/1999/xlink" x="0px" y="0px"
	 width="32px" height="32px" viewBox="0 0 32 32" enable-background="new 0 0 32 32" xml:space="preserve">
<path d="M2.1,29.3C2.2,29.7,2.6,30,3,30h23c0.3,0,0.5-0.1,0.7-0.3l3-3c0.3-0.3,0.4-0.7,0.2-1.1C29.8,25.2,29.4,25,29,25H2
	c-0.3,0-0.6,0.2-0.8,0.4C1,25.7,0.9,26,1.1,26.3L2.1,29.3z"/>
<path d="M21,23h5c0.3,0,0.7-0.2,0.9-0.5c0.2-0.3,0.2-0.7,0-1l-5-10c-0.2-0.4-0.7-0.6-1.1-0.5c-0.5,0.1-0.8,0.5-0.8,1v10
	C20,22.6,20.4,23,21,23z"/>
<path d="M4,23h13c0.6,0,1-0.4,1-1V4c0-0.4-0.3-0.8-0.7-1c-0.4-0.1-0.9,0-1.1,0.4l-13,18c-0.2,0.3-0.3,0.7-0.1,1
	C3.3,22.8,3.6,23,4,23z"/>
</svg>
