<?xml version="1.0" encoding="utf-8"?>
<!-- Generator: Adobe Illustrator 18.1.1, SVG Export Plug-In . SVG Version: 6.00 Build 0)  -->
<!DOCTYPE svg PUBLIC "-//W3C//DTD SVG 1.1//EN" "http://www.w3.org/Graphics/SVG/1.1/DTD/svg11.dtd">
<svg version="1.1" id="Layer_1" xmlns="http://www.w3.org/2000/svg" xmlns:xlink="http://www.w3.org/1999/xlink" x="0px" y="0px"
	 width="32px" height="32px" viewBox="0 0 32 32" enable-background="new 0 0 32 32" xml:space="preserve">
<path d="M1,18c0.6,0,1-0.4,1-1v-3c0-0.6-0.4-1-1-1s-1,0.4-1,1v3C0,17.6,0.4,18,1,18z"/>
<path d="M31,13c-0.6,0-1,0.4-1,1v3c0,0.6,0.4,1,1,1s1-0.4,1-1v-3C32,13.4,31.6,13,31,13z"/>
<path d="M22,31h4c0.6,0,1-0.4,1-1v-2h1c0.6,0,1-0.4,1-1V3c0-1.7-1.3-3-3-3H6C4.3,0,3,1.3,3,3v24c0,0.6,0.4,1,1,1h1v2
	c0,0.6,0.4,1,1,1h4c0.6,0,1-0.4,1-1v-2h10v2C21,30.6,21.4,31,22,31z M14,3h4c0.6,0,1,0.4,1,1s-0.4,1-1,1h-4c-0.6,0-1-0.4-1-1
	S13.4,3,14,3z M5,18V8h22v10H5z M11,24H8c-0.6,0-1-0.4-1-1s0.4-1,1-1h3c0.6,0,1,0.4,1,1S11.6,24,11,24z M20,23c0-0.6,0.4-1,1-1h3
	c0.6,0,1,0.4,1,1s-0.4,1-1,1h-3C20.4,24,20,23.6,20,23z"/>
</svg>
