<?xml version="1.0" encoding="utf-8"?>
<!-- Generator: Adobe Illustrator 18.1.1, SVG Export Plug-In . SVG Version: 6.00 Build 0)  -->
<!DOCTYPE svg PUBLIC "-//W3C//DTD SVG 1.1//EN" "http://www.w3.org/Graphics/SVG/1.1/DTD/svg11.dtd">
<svg version="1.1" id="Layer_1" xmlns="http://www.w3.org/2000/svg" xmlns:xlink="http://www.w3.org/1999/xlink" x="0px" y="0px"
	 width="32px" height="32px" viewBox="0 0 32 32" enable-background="new 0 0 32 32" xml:space="preserve">
<path d="M11.1,12.6l6-6L9.5,1.6C8.1,0.7,6.2,0.8,5,2l-3,3C1.7,5.3,1.6,5.6,1.7,5.9c0,0.3,0.2,0.6,0.4,0.7L11.1,12.6z"/>
<path d="M25.3,14.9l-6,6l6,9c0.2,0.2,0.4,0.4,0.7,0.4c0,0,0.1,0,0.1,0c0.3,0,0.5-0.1,0.7-0.3l3-3c1.2-1.2,1.4-3.1,0.4-4.5L25.3,14.9
	z"/>
<path d="M4.4,25.9C3.7,27,5,28.3,6.1,27.6l1.2-0.8l3.3,3.3c0.7,0.7,1.8,0.1,1.7-0.8L12,23.9l4.3-2.7L28.9,8.6c1.5-1.5,1.5-3.9,0-5.4
	c-1.5-1.5-3.9-1.5-5.4,0L10.8,15.8L8.1,20l-5.5-0.4c-0.9-0.1-1.4,1-0.8,1.7l3.3,3.3L4.4,25.9z"/>
</svg>
