<?xml version="1.0" encoding="utf-8"?>
<!-- Generator: Adobe Illustrator 18.1.1, SVG Export Plug-In . SVG Version: 6.00 Build 0)  -->
<!DOCTYPE svg PUBLIC "-//W3C//DTD SVG 1.1//EN" "http://www.w3.org/Graphics/SVG/1.1/DTD/svg11.dtd">
<svg version="1.1" id="Layer_1" xmlns="http://www.w3.org/2000/svg" xmlns:xlink="http://www.w3.org/1999/xlink" x="0px" y="0px"
	 width="32px" height="32px" viewBox="0 0 32 32" enable-background="new 0 0 32 32" xml:space="preserve">
<path d="M26,10c0.4,0,0.7-0.2,0.9-0.6l3-6c0.2-0.3,0.1-0.7,0-1C29.7,2.2,29.3,2,29,2h-4V1c0-0.6-0.4-1-1-1H8C7.4,0,7,0.4,7,1v1H3
	C2.7,2,2.3,2.2,2.1,2.5C2,2.8,2,3.1,2.1,3.4l3,6C5.3,9.8,5.6,10,6,10h1v1H3c-0.3,0-0.7,0.2-0.9,0.5c-0.2,0.3-0.2,0.7,0,1l3,6
	C5.3,18.8,5.6,19,6,19h1v1H3c-0.3,0-0.7,0.2-0.9,0.5c-0.2,0.3-0.2,0.7,0,1l3,6C5.3,27.8,5.6,28,6,28h1v3c0,0.6,0.4,1,1,1h16
	c0.6,0,1-0.4,1-1v-3h1c0.4,0,0.7-0.2,0.9-0.6l3-6c0.2-0.3,0.1-0.7,0-1C29.7,20.2,29.3,20,29,20h-4v-1h1c0.4,0,0.7-0.2,0.9-0.6l3-6
	c0.2-0.3,0.1-0.7,0-1C29.7,11.2,29.3,11,29,11h-4v-1H26z M25,4h2.4l-2,4H25V4z M7,26H6.6l-2-4H7V26z M7,17H6.6l-2-4H7V17z M7,8H6.6
	l-2-4H7V8z M16,28c-1.7,0-3-1.3-3-3s1.3-3,3-3s3,1.3,3,3S17.7,28,16,28z M16,19c-1.7,0-3-1.3-3-3s1.3-3,3-3s3,1.3,3,3S17.7,19,16,19
	z M16,10c-1.7,0-3-1.3-3-3s1.3-3,3-3s3,1.3,3,3S17.7,10,16,10z M27.4,22l-2,4H25v-4H27.4z M27.4,13l-2,4H25v-4H27.4z"/>
</svg>
