<?xml version="1.0" encoding="utf-8"?>
<!-- Generator: Adobe Illustrator 18.1.1, SVG Export Plug-In . SVG Version: 6.00 Build 0)  -->
<!DOCTYPE svg PUBLIC "-//W3C//DTD SVG 1.1//EN" "http://www.w3.org/Graphics/SVG/1.1/DTD/svg11.dtd">
<svg version="1.1" id="Layer_1" xmlns="http://www.w3.org/2000/svg" xmlns:xlink="http://www.w3.org/1999/xlink" x="0px" y="0px"
	 width="32px" height="32px" viewBox="0 0 32 32" enable-background="new 0 0 32 32" xml:space="preserve">
<path d="M29,5H3C1.3,5,0,6.3,0,8v14c0,0.6,0.4,1,1,1h2.1c0.4,1.7,2,3,3.9,3s3.4-1.3,3.9-3h10.3c0.4,1.7,2,3,3.9,3s3.4-1.3,3.9-3H31
	c0.6,0,1-0.4,1-1V8C32,6.3,30.7,5,29,5z M7,24c-1.1,0-2-0.9-2-2s0.9-2,2-2s2,0.9,2,2S8.1,24,7,24z M19,15c0,0.6-0.4,1-1,1H5
	c-0.6,0-1-0.4-1-1v-5c0-0.6,0.4-1,1-1h13c0.6,0,1,0.4,1,1V15z M25,24c-1.1,0-2-0.9-2-2s0.9-2,2-2s2,0.9,2,2S26.1,24,25,24z M28,15
	c0,0.6-0.4,1-1,1h-4c-0.6,0-1-0.4-1-1v-5c0-0.6,0.4-1,1-1h4c0.6,0,1,0.4,1,1V15z"/>
</svg>
