<?xml version="1.0" encoding="utf-8"?>
<!-- Generator: Adobe Illustrator 18.1.1, SVG Export Plug-In . SVG Version: 6.00 Build 0)  -->
<!DOCTYPE svg PUBLIC "-//W3C//DTD SVG 1.1//EN" "http://www.w3.org/Graphics/SVG/1.1/DTD/svg11.dtd">
<svg version="1.1" id="Layer_1" xmlns="http://www.w3.org/2000/svg" xmlns:xlink="http://www.w3.org/1999/xlink" x="0px" y="0px"
	 width="32px" height="32px" viewBox="0 0 32 32" enable-background="new 0 0 32 32" xml:space="preserve">
<path d="M30.2,17.3l-1.3-0.9l-1.5-8.1c-0.3-1.9-2-3.3-3.9-3.3H21V2c0-0.6-0.4-1-1-1h-8c-0.6,0-1,0.4-1,1v3H8.5
	C6.6,5,4.9,6.4,4.6,8.3l-1.5,8.1l-1.3,0.9C0.7,18,0,19.3,0,20.6V26c0,0.6,0.4,1,1,1h1v2c0,0.6,0.4,1,1,1h4c0.6,0,1-0.4,1-1v-2h16v2
	c0,0.6,0.4,1,1,1h4c0.6,0,1-0.4,1-1v-2h1c0.6,0,1-0.4,1-1v-5.4C32,19.3,31.3,18,30.2,17.3z M6,24c-1.1,0-2-0.9-2-2c0-1.1,0.9-2,2-2
	s2,0.9,2,2C8,23.1,7.1,24,6,24z M19,23h-6c-0.6,0-1-0.4-1-1s0.4-1,1-1h6c0.6,0,1,0.4,1,1S19.6,23,19,23z M5.2,16l1.3-7.4
	c0.2-1,1-1.6,2-1.6h15c1,0,1.8,0.7,2,1.6l1.3,7.4H5.2z M26,24c-1.1,0-2-0.9-2-2c0-1.1,0.9-2,2-2s2,0.9,2,2C28,23.1,27.1,24,26,24z"
	/>
</svg>
