<svg xmlns="http://www.w3.org/2000/svg" width="16" height="16" viewBox="0 0 16 16">
  <title>tech-16px_controller-modern</title>
  <rect x="7" width="2" height="4"/>
  <path d="M14.657,7.523A3.165,3.165,0,0,0,11.559,5a4.041,4.041,0,0,0-3.1,2H7.539a4.041,4.041,0,0,0-3.1-2,3.165,3.165,0,0,0-3.1,2.522L.033,14.011a1.629,1.629,0,0,0,.739,1.728,1.67,1.67,0,0,0,1.883-.064L6.326,13H9.674l3.67,2.674a1.67,1.67,0,0,0,1.883.064,1.629,1.629,0,0,0,.739-1.728ZM6,10H5v1H4V10H3V9H4V8H5V9H6Zm5,1H10V10h1Zm0-3h1V9H11Zm2,3H12V10h1Z"/>
</svg>
