<svg xmlns="http://www.w3.org/2000/svg" width="16" height="16" viewBox="0 0 16 16">
  <title>tech-16px_navigation</title>
  <path d="M14,3H12.576A4.99,4.99,0,0,0,3.424,3H2A2,2,0,0,0,0,5v9a2,2,0,0,0,2,2H14a2,2,0,0,0,2-2V5A2,2,0,0,0,14,3ZM8,2a3,3,0,0,1,3,3c0,1.073-1.57,3.529-3,5.4C6.569,8.531,5,6.075,5,5A3,3,0,0,1,8,2ZM2,5H3c0,1.276.959,3.066,1.976,4.61L2,12.586Zm1.414,9,2.733-2.733c.485.644.892,1.143,1.085,1.374a1,1,0,0,0,1.535,0c.193-.231.6-.731,1.083-1.376L12.586,14ZM14,12.586,11.019,9.605C12.032,8.064,12.988,6.276,13,5h1Z"/>
  <circle cx="8" cy="5" r="1"/>
</svg>
