<svg xmlns="http://www.w3.org/2000/svg" width="16" height="16" viewBox="0 0 16 16">
  <title>tech-16px-2_wifi-protected</title>
  <path d="M0,3.2,1.4,4.6A9.469,9.469,0,0,1,8,2a9.139,9.139,0,0,1,6.6,2.7L16,3.2A11.435,11.435,0,0,0,8,0,11.435,11.435,0,0,0,0,3.2Z"/>
  <path d="M7.678,6.531A5,5,0,0,1,9.542,4.669,6.993,6.993,0,0,0,8,4.5,6.505,6.505,0,0,0,3.1,6.6L4.5,8A4.633,4.633,0,0,1,7.678,6.531Z"/>
  <path d="M15,10V9A3,3,0,0,0,9,9v1a1,1,0,0,0-1,1v4a1,1,0,0,0,1,1h6a1,1,0,0,0,1-1V11A1,1,0,0,0,15,10Zm-2,0H11V9a1,1,0,0,1,2,0Z"/>
</svg>
