<svg xmlns="http://www.w3.org/2000/svg" width="16" height="16" viewBox="0 0 16 16">
  <title>tech-16px-2_wifi-off</title>
  <path d="M12.9,9.6a6.425,6.425,0,0,0-2.77-1.773L9.573,9.776A4.457,4.457,0,0,1,11.5,11Z"/>
  <path d="M7.814,5.008l-.73,2.555A6.424,6.424,0,0,0,3.1,9.6L4.5,11A4.374,4.374,0,0,1,6.451,9.78L5.038,14.725a1,1,0,1,0,1.924.55l4-14A1,1,0,0,0,9.038.725l-.657,2.3C8.253,3.02,8.129,3,8,3A11.435,11.435,0,0,0,0,6.2L1.4,7.6A9.454,9.454,0,0,1,7.814,5.008Z"/>
  <path d="M10.819,5.417A9.056,9.056,0,0,1,14.6,7.7L16,6.2a11.448,11.448,0,0,0-4.632-2.707Z"/>
</svg>
