<?xml version="1.0" encoding="utf-8"?>
<!-- Generator: Adobe Illustrator 19.1.0, SVG Export Plug-In . SVG Version: 6.00 Build 0)  -->
<!DOCTYPE svg PUBLIC "-//W3C//DTD SVG 1.1//EN" "http://www.w3.org/Graphics/SVG/1.1/DTD/svg11.dtd">
<svg version="1.1" id="Layer_1" xmlns="http://www.w3.org/2000/svg" xmlns:xlink="http://www.w3.org/1999/xlink" x="0px" y="0px"
	 width="48px" height="48px" viewBox="0 0 48 48" enable-background="new 0 0 48 48" xml:space="preserve">
<path fill="#223E49" d="M15,29H2c-0.36621,0-0.70312-0.2002-0.87842-0.52246c-0.17529-0.32129-0.16016-0.71289,0.03906-1.02051
	l11-17.00049c0.18262-0.28271,0.49561-0.4541,0.83252-0.45654c0.32666-0.03662,0.65137,0.16504,0.83887,0.44531l6,9
	c0.19922,0.29834,0.22266,0.68115,0.0625,1.00195l-4,8C15.7251,28.78613,15.37891,29,15,29z"/>
<path fill="#223E49" d="M32.10547,28.44727l-4-8c-0.16016-0.3208-0.13672-0.70361,0.0625-1.00195l6-9
	c0.1875-0.28027,0.51221-0.48193,0.83887-0.44531c0.33691,0.00244,0.6499,0.17383,0.83252,0.45654l11,17.00049
	c0.19922,0.30762,0.21436,0.69922,0.03906,1.02051C46.70312,28.7998,46.36621,29,46,29H33
	C32.62109,29,32.2749,28.78613,32.10547,28.44727z"/>
<path fill="#335262" d="M3.15186,39.46973c-0.19238,0.30859-0.20264,0.69727-0.02637,1.01465C3.30176,40.80273,3.63623,41,4,41h40
	c0.36377,0,0.69824-0.19727,0.87451-0.51562c0.17627-0.31738,0.16602-0.70605-0.02637-1.01465L33.9422,22.02051L28,18l-4,4l-4-4
	l-5.9422,4.02051L3.15186,39.46973z"/>
<path fill="#B3B3B3" d="M20,18l4,4l4-4l5.9422,4.02051L24.84814,7.47021c-0.36621-0.58496-1.33008-0.58496-1.69629,0
	L14.0578,22.02051L20,18z"/>
</svg>
