<?xml version="1.0" encoding="utf-8"?>
<!-- Generator: Adobe Illustrator 19.1.0, SVG Export Plug-In . SVG Version: 6.00 Build 0)  -->
<!DOCTYPE svg PUBLIC "-//W3C//DTD SVG 1.1//EN" "http://www.w3.org/Graphics/SVG/1.1/DTD/svg11.dtd">
<svg version="1.1" id="Layer_1" xmlns="http://www.w3.org/2000/svg" xmlns:xlink="http://www.w3.org/1999/xlink" x="0px" y="0px"
	 width="48px" height="48px" viewBox="0 0 48 48" enable-background="new 0 0 48 48" xml:space="preserve">
<path fill="#ED69AB" d="M24,40.00098c-5.39551,0-23-0.28809-23-4c0-0.30664,0.09863-0.59863,0.29199-0.87012l7.79395-17.53613
	C9.24707,17.23389,9.60449,17.00098,10,17.00098h28c0.39551,0,0.75293,0.23291,0.91406,0.59375l7.79395,17.53613
	C46.90137,35.40234,47,35.69434,47,36.00098C47,39.71289,29.39551,40.00098,24,40.00098z"/>
<path fill="#C64692" d="M24,21c-3.78516,0-7.35156-0.21143-10.04102-0.5957C10.39062,19.89453,9,19.22021,9,18
	s1.39062-1.89453,4.95898-2.4043C16.64844,15.21143,20.21484,15,24,15s7.35156,0.21143,10.04102,0.5957
	C37.60938,16.10547,39,16.77979,39,18s-1.39062,1.89453-4.95898,2.4043C31.35156,20.78857,27.78516,21,24,21z"/>
<path fill="#DDBE99" d="M27,9.99915c-3.19556,0-5.98474,1.67664-7.58167,4.18689C18.96143,14.07471,18.49109,13.99915,18,13.99915
	c-3.3031,0-5.9812,2.70154-5.99841,6.00085H12v0.0528c0.56732,0.12616,1.20435,0.24371,1.95898,0.3515
	C16.64844,20.78857,20.21484,21,24,21s7.35156-0.21143,10.04102-0.5957c0.75464-0.10779,1.39172-0.22534,1.95898-0.3515V20
	c0.03644-0.32886,0-0.66229,0-1.00085C36,14.02856,31.97058,9.99915,27,9.99915z"/>
</svg>
