<?xml version="1.0" encoding="utf-8"?>
<!-- Generator: Adobe Illustrator 19.1.0, SVG Export Plug-In . SVG Version: 6.00 Build 0)  -->
<!DOCTYPE svg PUBLIC "-//W3C//DTD SVG 1.1//EN" "http://www.w3.org/Graphics/SVG/1.1/DTD/svg11.dtd">
<svg version="1.1" id="Layer_1" xmlns="http://www.w3.org/2000/svg" xmlns:xlink="http://www.w3.org/1999/xlink" x="0px" y="0px"
	 width="48px" height="48px" viewBox="0 0 48 48" enable-background="new 0 0 48 48" xml:space="preserve">
<path fill="#72C472" d="M34,18c-3.96655,0-7.38348,2.31537-9,5.66302V2c0-0.55225-0.44727-1-1-1s-1,0.44775-1,1v11.66302
	C21.38348,10.31537,17.96655,8,14,8h-2v4c0,5.52283,4.47717,10,10,10h1v16.25293c0,0.55225,0.44727,1,1,1s1-0.44775,1-1V32h1
	c5.52283,0,10-4.47717,10-10v-4H34z"/>
<path fill="#A67C52" d="M46,47H2c-0.55273,0-1-0.44775-1-1s0.44727-1,1-1h9.10059c0.46484-2.2793,2.48438-4,4.89941-4
	c0.76367,0,1.51562,0.18164,2.19922,0.52295C19.78809,38.74121,22.73633,37,26,37c4.625,0,8.44531,3.50635,8.94434,8H46
	c0.55273,0,1,0.44775,1,1S46.55273,47,46,47z"/>
</svg>
