<?xml version="1.0" encoding="utf-8"?>
<!-- Generator: Adobe Illustrator 19.1.0, SVG Export Plug-In . SVG Version: 6.00 Build 0)  -->
<!DOCTYPE svg PUBLIC "-//W3C//DTD SVG 1.1//EN" "http://www.w3.org/Graphics/SVG/1.1/DTD/svg11.dtd">
<svg version="1.1" id="Layer_1" xmlns="http://www.w3.org/2000/svg" xmlns:xlink="http://www.w3.org/1999/xlink" x="0px" y="0px"
	 width="48px" height="48px" viewBox="0 0 48 48" enable-background="new 0 0 48 48" xml:space="preserve">
<path fill="#ED69AB" d="M24,47c-5.39551,0-23-0.28809-23-4c0-0.2168,0.05371-0.53418,0.29199-0.86914L9.35059,24h29.29883
	l8.05859,18.13086C46.94629,42.46582,47,42.7832,47,43C47,46.71191,29.39551,47,24,47z"/>
<path fill="#C64692" d="M24,28c-3.78516,0-7.35156-0.21191-10.04102-0.5957C10.39062,26.89453,9,26.2207,9,25
	c0-1.22021,1.39062-1.89453,4.95898-2.4043C16.64844,22.21143,20.21484,22,24,22s7.35156,0.21143,10.04102,0.5957
	C37.60938,23.10547,39,23.77979,39,25c0,1.2207-1.39062,1.89453-4.95898,2.4043C31.35156,27.78809,27.78516,28,24,28z"/>
<path fill="#B3B3B3" d="M37.4248,6.4278c-0.86914-3.19769-4.16595-5.08539-7.36365-4.21625s-5.08539,4.16589-4.21625,7.36365
	c0.43457,1.59882,1.47601,2.8703,2.80859,3.63324l-8.4856,14.71503C21.40173,27.9729,22.68591,28,24,28
	c2.13116,0,4.1861-0.0694,6.06104-0.19659l5.95612-10.37872c1.33246,0.763,2.95618,1.01758,4.55505,0.58301
	c3.19769-0.86914,5.08539-4.16589,4.21625-7.36365C43.91931,7.44635,40.6225,5.55865,37.4248,6.4278z"/>
</svg>
