<?xml version="1.0" encoding="utf-8"?>
<!-- Generator: Adobe Illustrator 19.1.0, SVG Export Plug-In . SVG Version: 6.00 Build 0)  -->
<!DOCTYPE svg PUBLIC "-//W3C//DTD SVG 1.1//EN" "http://www.w3.org/Graphics/SVG/1.1/DTD/svg11.dtd">
<svg version="1.1" id="Layer_1" xmlns="http://www.w3.org/2000/svg" xmlns:xlink="http://www.w3.org/1999/xlink" x="0px" y="0px"
	 width="48px" height="48px" viewBox="0 0 48 48" enable-background="new 0 0 48 48" xml:space="preserve">
<polygon fill="#444444" points="27.71533,13 20.28467,13 16.87042,23 31.13116,23 "/>
<path fill="#444444" d="M14.01367,31.36719l0.06738,0.28125c0.14862,0.6228,0.46045,1.85168,0.93079,3.35156h17.97699
	c0.47119-1.49988,0.78394-2.72876,0.93304-3.35156l0.06738-0.28125L33.18066,29H14.8219L14.01367,31.36719z"/>
<path fill="#444444" d="M24,47c2.77014,0,4.97876-2.77594,6.6106-6H17.38715C19.01782,44.22406,21.22644,47,24,47z"/>
<path fill="#EFD358" d="M17.38715,41H30.6106c1.0199-2.01508,1.81348-4.20245,2.37823-6H15.01184
	C15.57544,36.79755,16.36798,38.98492,17.38715,41z"/>
<polygon fill="#EFD358" points="16.87042,23 14.8219,29 33.18066,29 31.13116,23 "/>
<path fill="#444444" d="M24,13c-2.40332,0-7-1.94727-7-5c0-4.33691,4.07715-7,7-7s7,2.66309,7,7C31,11.05273,26.40332,13,24,13z"/>
<path fill="#BADEFC" d="M25.29523,11.04218L24,11l-1.29523,0.04218C11.18762,11.72589,1,21.40552,1,32v1h11.04785
	c4.00537,0,7.46973-2.57715,8.6123-6.38867C20.68011,26.55096,22.34418,21.47888,24,15.71405
	c1.65564,5.7641,3.31848,10.8327,3.33154,10.87189C28.48242,30.42285,31.94678,33,35.95215,33H47v-1
	C47,21.40552,36.81238,11.72589,25.29523,11.04218z"/>
</svg>
