<?xml version="1.0" encoding="utf-8"?>
<!-- Generator: Adobe Illustrator 19.1.0, SVG Export Plug-In . SVG Version: 6.00 Build 0)  -->
<!DOCTYPE svg PUBLIC "-//W3C//DTD SVG 1.1//EN" "http://www.w3.org/Graphics/SVG/1.1/DTD/svg11.dtd">
<svg version="1.1" id="Layer_1" xmlns="http://www.w3.org/2000/svg" xmlns:xlink="http://www.w3.org/1999/xlink" x="0px" y="0px"
	 width="48px" height="48px" viewBox="0 0 48 48" enable-background="new 0 0 48 48" xml:space="preserve">
<path fill="#7C5839" d="M38.75586,31.34473C38.56543,31.12598,38.29004,31,38,31H10c-0.29004,0-0.56543,0.12598-0.75586,0.34473
	c-0.18945,0.21924-0.27539,0.50977-0.23438,0.79688l2,14C11.08008,46.63428,11.50195,47,12,47h24
	c0.49805,0,0.91992-0.36572,0.99023-0.8584l2-14C39.03125,31.85449,38.94531,31.56396,38.75586,31.34473z"/>
<path fill="#72C472" d="M34,6c-3.96655,0-7.38348,2.31537-9,5.66302V2c0-0.55225-0.44727-1-1-1s-1,0.44775-1,1v26
	c0,0.55225,0.44727,1,1,1s1-0.44775,1-1v-8h1c5.52283,0,10-4.47717,10-10V6H34z"/>
<path fill="#A67C52" d="M42,33H6c-0.55273,0-1-0.44775-1-1v-4c0-0.55225,0.44727-1,1-1h36c0.55273,0,1,0.44775,1,1v4
	C43,32.55225,42.55273,33,42,33z"/>
</svg>
