<?xml version="1.0" encoding="utf-8"?>
<!-- Generator: Adobe Illustrator 19.1.0, SVG Export Plug-In . SVG Version: 6.00 Build 0)  -->
<!DOCTYPE svg PUBLIC "-//W3C//DTD SVG 1.1//EN" "http://www.w3.org/Graphics/SVG/1.1/DTD/svg11.dtd">
<svg version="1.1" id="Layer_1" xmlns="http://www.w3.org/2000/svg" xmlns:xlink="http://www.w3.org/1999/xlink" x="0px" y="0px"
	 width="48px" height="48px" viewBox="0 0 48 48" enable-background="new 0 0 48 48" xml:space="preserve">
<path fill="#4DA34D" d="M24,47c-0.55225,0-1-0.44727-1-1V28.72754c0-0.55273,0.44775-1,1-1s1,0.44727,1,1V46
	C25,46.55273,24.55225,47,24,47z"/>
<path fill="#72C472" d="M27.81836,31c-1.71191,0-3.0708-0.62598-3.81836-1.06934C23.25244,30.37402,21.89355,31,20.18164,31
	c-1.22559,0-2.3291-0.53809-3.10742-1.51562c-0.9043-1.13477-1.22021-2.66895-0.8667-4.20898l0.68115-2.1626l-2.08643,0.65869
	c-1.61719,0.37305-3.15186,0.05859-4.28662-0.8457C9.53809,22.14746,9,21.04395,9,19.81836C9,18.10645,9.62598,16.74756,10.06982,16
	C9.62598,15.25244,9,13.89355,9,12.18164c0-1.22559,0.53809-2.3291,1.51562-3.10742c1.13525-0.9043,2.67041-1.22021,4.20898-0.8667
	l2.1626,0.68115l-0.65869-2.08643c-0.37451-1.61719-0.05859-3.15137,0.8457-4.28662C17.85254,1.53809,18.95605,1,20.18164,1
	C21.89355,1,23.25244,1.62598,24,2.06982C24.74756,1.62598,26.10645,1,27.81836,1c1.22559,0,2.3291,0.53809,3.10742,1.51562
	c0.9043,1.13525,1.22021,2.66943,0.8667,4.20898l-0.68115,2.1626l2.08643-0.65869c1.61719-0.37451,3.15137-0.05859,4.28662,0.8457
	C38.46191,9.85254,39,10.95605,39,12.18164c0,1.71191-0.62598,3.0708-1.06982,3.81836C38.37402,16.74756,39,18.10645,39,19.81836
	c0,1.22559-0.53809,2.3291-1.51562,3.10742c-1.13525,0.9043-2.66895,1.21924-4.20898,0.8667l-2.1626-0.68115l0.65869,2.08691
	c0.37451,1.61719,0.05859,3.15137-0.8457,4.28613C30.14746,30.46191,29.04395,31,27.81836,31z"/>
</svg>
