<?xml version="1.0" encoding="utf-8"?>
<!-- Generator: Adobe Illustrator 19.1.0, SVG Export Plug-In . SVG Version: 6.00 Build 0)  -->
<!DOCTYPE svg PUBLIC "-//W3C//DTD SVG 1.1//EN" "http://www.w3.org/Graphics/SVG/1.1/DTD/svg11.dtd">
<svg version="1.1" id="Layer_1" xmlns="http://www.w3.org/2000/svg" xmlns:xlink="http://www.w3.org/1999/xlink" x="0px" y="0px"
	 width="48px" height="48px" viewBox="0 0 48 48" enable-background="new 0 0 48 48" xml:space="preserve">
<path fill="#72C472" d="M32,33c-3.01385,0-5.63599,1.66821-7,4.13007V26c0-0.55225-0.44727-1-1-1s-1,0.44775-1,1v20
	c0,0.55225,0.44727,1,1,1s1-0.44775,1-1v-3c4.41827,0,8-3.58173,8-8v-2H32z"/>
<path fill="#C64692" d="M39,16c0-2.11115-1.57245-3.91284-3.79266-4.64612c1.04865-2.08722,0.89087-4.46887-0.60071-5.96051
	c-1.49164-1.49158-3.87329-1.64935-5.96051-0.60077C27.91284,2.57239,26.11115,1,24,1s-3.91284,1.57239-4.64612,3.7926
	c-2.08722-1.04858-4.46887-0.89081-5.96051,0.60077c-1.49158,1.49164-1.64935,3.87329-0.60071,5.96051
	C10.57245,12.08716,9,13.88885,9,16s1.57245,3.91284,3.79266,4.64612c-1.04865,2.08722-0.89087,4.46887,0.60071,5.96045
	c1.49164,1.49164,3.87329,1.64941,5.96051,0.60077C20.08716,29.42755,21.88885,31,24,31s3.91284-1.57245,4.64612-3.79266
	c2.08722,1.04865,4.46887,0.89087,5.96051-0.60077c1.49158-1.49158,1.64935-3.87323,0.60071-5.96045
	C37.42755,19.91284,39,18.11115,39,16z"/>
<circle fill="#FFFFFF" cx="24" cy="16" r="4"/>
</svg>
