<?xml version="1.0" encoding="utf-8"?>
<!-- Generator: Adobe Illustrator 19.1.0, SVG Export Plug-In . SVG Version: 6.00 Build 0)  -->
<!DOCTYPE svg PUBLIC "-//W3C//DTD SVG 1.1//EN" "http://www.w3.org/Graphics/SVG/1.1/DTD/svg11.dtd">
<svg version="1.1" id="Layer_1" xmlns="http://www.w3.org/2000/svg" xmlns:xlink="http://www.w3.org/1999/xlink" x="0px" y="0px"
	 width="48px" height="48px" viewBox="0 0 48 48" enable-background="new 0 0 48 48" xml:space="preserve">
<path fill="#DDBE99" d="M5.88428,18.51465c-0.22363,0-0.44727-0.07471-0.63135-0.22461C1.9541,15.60254,1,11.94873,1,2
	c0-0.55225,0.44775-1,1-1c7.54639,0,12.99121,1.83008,16.18457,5.43945c0.36328,0.41113,0.32812,1.03809-0.07959,1.40527
	L6.55371,18.25732C6.36426,18.42871,6.12451,18.51465,5.88428,18.51465z"/>
<path fill="#DDBE99" d="M41.44629,18.25732L29.89502,7.84473c-0.40771-0.36719-0.44287-0.99414-0.07959-1.40527
	C33.00879,2.83008,38.45361,1,46,1c0.55225,0,1,0.44775,1,1c0,9.94873-0.9541,13.60254-4.25293,16.29004
	c-0.18408,0.1499-0.40771,0.22461-0.63135,0.22461C41.87549,18.51465,41.63574,18.42871,41.44629,18.25732z"/>
<path fill="#EAD8C5" d="M24,47C12.42041,47,3,37.5791,3,26C3,14.42041,12.42041,5,24,5s21,9.42041,21,21
	C45,37.5791,35.57959,47,24,47z"/>
<path fill="#DDBE99" d="M27.00001,40h-6.00002C17.134,40,14,36.866,14,33.00001v-0.00002C14,29.134,17.134,26,20.99999,26h6.00002
	C30.866,26,34,29.134,34,32.99999v0.00002C34,36.866,30.866,40,27.00001,40z"/>
<circle fill="#444444" cx="14" cy="20" r="2"/>
<circle fill="#444444" cx="34" cy="20" r="2"/>
<circle fill="#B7946E" cx="20" cy="33" r="2"/>
<circle fill="#B7946E" cx="28" cy="33" r="2"/>
</svg>
