<?xml version="1.0" encoding="utf-8"?>
<!-- Generator: Adobe Illustrator 19.1.0, SVG Export Plug-In . SVG Version: 6.00 Build 0)  -->
<!DOCTYPE svg PUBLIC "-//W3C//DTD SVG 1.1//EN" "http://www.w3.org/Graphics/SVG/1.1/DTD/svg11.dtd">
<svg version="1.1" id="Layer_1" xmlns="http://www.w3.org/2000/svg" xmlns:xlink="http://www.w3.org/1999/xlink" x="0px" y="0px"
	 width="48px" height="48px" viewBox="0 0 48 48" enable-background="new 0 0 48 48" xml:space="preserve">
<path fill="#444444" d="M7,24c-3.30859,0-6-2.69141-6-6V2c0-0.55273,0.44775-1,1-1c6.10547,0,11.76855,3.5625,14.42773,9.07617
	c0.15527,0.32227,0.12646,0.70312-0.0752,0.99805L7.82568,23.56348C7.63965,23.83691,7.33057,24,7,24z"/>
<path fill="#444444" d="M41,24c-0.33057,0-0.63965-0.16309-0.82568-0.43652l-8.52686-12.48926
	c-0.20166-0.29492-0.23047-0.67578-0.0752-0.99805C34.23145,4.5625,39.89453,1,46,1c0.55225,0,1,0.44727,1,1v16
	C47,21.30859,44.30859,24,41,24z"/>
<path fill="#E6E6E6" d="M29,9H19C11.83154,9,6,14.83203,6,22v12c0,3.91309,2.10547,7.5625,5.49512,9.52539l0.23242,0.13477
	l24.5415,0.00195l0.23242-0.13477C39.89307,41.56543,42,37.91406,42,34V22C42,14.83203,36.16846,9,29,9z"/>
<circle fill="#444444" cx="15" cy="24" r="2"/>
<circle fill="#444444" cx="33" cy="24" r="2"/>
<path fill="#444444" d="M12.39331,38C13.72736,43.17285,18.41052,47,24,47c5.58954,0,10.27264-3.82715,11.60669-9H12.39331z"/>
<path fill="#B3B3B3" d="M24,35.33333V38c0,4.4-3.6,8-8,8h-5V36c0-3.31371,2.68629-6,6-6h2.5L24,35.33333z"/>
<path fill="#B3B3B3" d="M24,35.33333V38c0,4.4,3.6,8,8,8h5V36c0-3.31371-2.68629-6-6-6h-2.5L24,35.33333z"/>
<path fill="#444444" d="M29.23584,30.38184C28.80957,29.5293,27.95264,29,27,29h-6c-0.95264,0-1.80957,0.5293-2.23584,1.38184
	C18.33789,31.2334,18.42822,32.2373,19,33l3,4.00098C22.47656,37.63574,23.20557,38,24,38s1.52344-0.36426,2-1l3.00049-4
	C29.57178,32.2373,29.66211,31.2334,29.23584,30.38184z"/>
</svg>
