<?xml version="1.0" encoding="utf-8"?>
<!-- Generator: Adobe Illustrator 19.1.0, SVG Export Plug-In . SVG Version: 6.00 Build 0)  -->
<!DOCTYPE svg PUBLIC "-//W3C//DTD SVG 1.1//EN" "http://www.w3.org/Graphics/SVG/1.1/DTD/svg11.dtd">
<svg version="1.1" id="Layer_1" xmlns="http://www.w3.org/2000/svg" xmlns:xlink="http://www.w3.org/1999/xlink" x="0px" y="0px"
	 width="48px" height="48px" viewBox="0 0 48 48" enable-background="new 0 0 48 48" xml:space="preserve">
<path fill="#458BC4" d="M34.40943,47.97863C30.17535,47.67301,27,43.94133,27,39.69624L27,32c0,0,4.28998,0,7.69624,0
	c4.24509,0,7.97677,3.17536,8.28239,7.40943C43.33053,44.28457,39.28457,48.33053,34.40943,47.97863z"/>
<path fill="#458BC4" d="M13.59057,47.97863c-4.87514,0.35189-8.9211-3.69406-8.5692-8.5692C5.32699,35.17535,9.05867,32,13.30376,32
	L21,32c0,0,0,4.28998,0,7.69624C21,43.94133,17.82465,47.67301,13.59057,47.97863z"/>
<path fill="#444444" d="M27,17v27c0,1.65685-1.34314,3-3,3H24c-1.65685,0-3-1.34314-3-3V17H27z"/>
<path fill="#43A6DD" d="M21,32H11C4.92487,32,0,27.07513,0,21L0,9c0-0.54227,0.4334-0.99928,0.97568-0.99993
	C12.01464,7.98682,21,16.96358,21,28V32z"/>
<path fill="#444444" d="M30.7334,1.32031c-0.37646-0.40625-1.00879-0.42969-1.41309-0.05371
	c-2.36029,2.18713-3.57648,4.47632-4.1488,7.88654C24.79388,9.06165,24.40527,9,24,9s-0.79388,0.06165-1.17151,0.15314
	c-0.57233-3.41022-1.78851-5.6994-4.1488-7.88654c-0.4043-0.37598-1.0376-0.35254-1.41309,0.05371
	c-0.37549,0.40527-0.35156,1.03809,0.05371,1.41309c2.18396,2.02423,3.16266,4.00317,3.62256,7.33936
	C19.76941,10.98859,19,12.39972,19,14c0,2.75684,2.24316,5,5,5s5-2.24316,5-5c0-1.60028-0.76941-3.01141-1.94287-3.92725
	c0.4599-3.33618,1.4386-5.31512,3.62256-7.33936C31.08496,2.3584,31.10889,1.72559,30.7334,1.32031z"/>
<path fill="#43A6DD" d="M37,32H27v-4c0-11.03642,8.98536-20.01318,20.02432-19.99994C47.56659,8.00072,48,8.45773,48,9l0,12
	C48,27.07513,43.07513,32,37,32z"/>
<circle fill="#FFFFFF" cx="13" cy="40" r="2"/>
<circle fill="#FFFFFF" cx="10" cy="23" r="4"/>
<circle fill="#FFFFFF" cx="38" cy="23" r="4"/>
<circle fill="#FFFFFF" cx="35" cy="40" r="2"/>
</svg>
