<?xml version="1.0" encoding="utf-8"?>
<!-- Generator: Adobe Illustrator 19.1.0, SVG Export Plug-In . SVG Version: 6.00 Build 0)  -->
<!DOCTYPE svg PUBLIC "-//W3C//DTD SVG 1.1//EN" "http://www.w3.org/Graphics/SVG/1.1/DTD/svg11.dtd">
<svg version="1.1" id="Layer_1" xmlns="http://www.w3.org/2000/svg" xmlns:xlink="http://www.w3.org/1999/xlink" x="0px" y="0px"
	 width="48px" height="48px" viewBox="0 0 48 48" enable-background="new 0 0 48 48" xml:space="preserve">
<path fill="#B3B3B3" d="M10.00049,20.79688c-0.06689,0-0.13379-0.00635-0.20117-0.02051C4.70068,19.73291,1,15.20068,1,10
	c0-0.55225,0.44775-1,1-1h8c1.71875,0,3.42822,0.40283,4.94385,1.16455c0.23828,0.12012,0.41895,0.33008,0.50146,0.58398
	c0.08301,0.25342,0.06055,0.52979-0.06152,0.76709l-4.49463,8.73877C10.71533,20.59229,10.36914,20.79688,10.00049,20.79688z"/>
<path fill="#B3B3B3" d="M37.99951,20.79688c-0.36865,0-0.71484-0.20459-0.88867-0.54248l-4.49463-8.73877
	c-0.12207-0.2373-0.14453-0.51367-0.06152-0.76709c0.08252-0.25391,0.26318-0.46387,0.50146-0.58398
	C34.57178,9.40283,36.28125,9,38,9h8c0.55225,0,1,0.44775,1,1c0,5.20068-3.70068,9.73291-8.79932,10.77637
	C38.1333,20.79053,38.06641,20.79688,37.99951,20.79688z"/>
<path fill="#E6E6E6" d="M24,47c-8.271,0-15-6.72852-15-15V18.64111c0-4.50879,3.0625-8.37061,7.44727-9.39209
	c0.07617-0.01758,0.15723-0.04395,0.23096-0.02588l14.87793,0.05566c0.08398,0.00049,0.16797,0.01123,0.24902,0.03271
	C36.0415,10.41943,39,14.25635,39,18.64111V32C39,40.27148,32.271,47,24,47z"/>
<path fill="#B3B3B3" d="M26,15c-1.87939,0-3.65869-0.76318-4.97705-2.11426C20.6792,12.9624,20.34082,13,20,13
	c-2.75684,0-5-2.24316-5-5s2.24316-5,5-5c0.34082,0,0.6792,0.0376,1.02295,0.11426C22.34131,1.76318,24.12061,1,26,1
	c3.85986,0,7,3.14014,7,7S29.85986,15,26,15z"/>
<path fill="#444444" d="M21,26c-0.55225,0-1-0.44727-1-1c0-1.10303-0.89697-2-2-2s-2,0.89697-2,2c0,0.55273-0.44775,1-1,1
	s-1-0.44727-1-1c0-2.20557,1.79443-4,4-4s4,1.79443,4,4C22,25.55273,21.55225,26,21,26z"/>
<path fill="#444444" d="M33,26c-0.55225,0-1-0.44727-1-1c0-1.10303-0.89697-2-2-2s-2,0.89697-2,2c0,0.55273-0.44775,1-1,1
	s-1-0.44727-1-1c0-2.20557,1.79443-4,4-4s4,1.79443,4,4C34,25.55273,33.55225,26,33,26z"/>
<path fill="#B3B3B3" d="M30,37c-0.55273,0-1,0.44727-1,1v1c0,1.10254-0.89746,2-2,2s-2-0.89746-2-2v-3.67383
	c0-0.55273-0.44727-1-1-1s-1,0.44727-1,1V39c0,1.10254-0.89746,2-2,2s-2-0.89746-2-2v-1c0-0.55273-0.44727-1-1-1s-1,0.44727-1,1v1
	c0,2.20605,1.79395,4,4,4c1.2005,0,2.2663-0.54224,3-1.38202C24.7337,42.45776,25.7995,43,27,43c2.20605,0,4-1.79395,4-4v-1
	C31,37.44727,30.55273,37,30,37z"/>
<path fill="#444444" d="M21,31h6c1.23607,0,1.94164,1.41114,1.2,2.4l-3,4c-0.6,0.8-1.8,0.8-2.4,0l-3-4
	C19.05836,32.41114,19.76393,31,21,31z"/>
</svg>
