<?xml version="1.0" encoding="utf-8"?>
<!-- Generator: Adobe Illustrator 19.1.0, SVG Export Plug-In . SVG Version: 6.00 Build 0)  -->
<!DOCTYPE svg PUBLIC "-//W3C//DTD SVG 1.1//EN" "http://www.w3.org/Graphics/SVG/1.1/DTD/svg11.dtd">
<svg version="1.1" id="Layer_1" xmlns="http://www.w3.org/2000/svg" xmlns:xlink="http://www.w3.org/1999/xlink" x="0px" y="0px"
	 width="48px" height="48px" viewBox="0 0 48 48" enable-background="new 0 0 48 48" xml:space="preserve">
<path fill="#E86C60" d="M42.58447,22.41113c-0.15186,0-0.30322-0.03418-0.44287-0.10352l-18.21875-8.99609
	c-0.24561-0.12109-0.43066-0.33789-0.51221-0.59961C23.14209,11.84766,23,10.91016,23,10c0-4.96289,4.0376-9,9-9
	c4.64648,0,8.48242,3.54004,8.95166,8.06445C44.36279,9.53027,47,12.46289,47,16c0,2.68066-1.56396,5.1582-3.98486,6.31348
	C42.87891,22.37891,42.73145,22.41113,42.58447,22.41113z"/>
<path fill="#EFD358" d="M13,38c-0.16699,0-0.33447-0.04199-0.48584-0.12598l-9-5C3.19678,32.69824,3,32.36328,3,32
	s0.19678-0.69824,0.51416-0.87402l9-5c0.31006-0.17285,0.68604-0.16797,0.99316,0.01172C13.8125,26.31738,14,26.64551,14,27v10
	c0,0.35449-0.1875,0.68262-0.49268,0.8623C13.35059,37.9541,13.17529,38,13,38z"/>
<path fill="#E6E6E6" d="M44,47H12c-0.55225,0-1-0.44727-1-1V28c0-9.37402,7.62598-17,17-17s17,7.62598,17,17v18
	C45,46.55273,44.55225,47,44,47z"/>
<circle fill="#444444" cx="22" cy="28" r="3"/>
</svg>
