<?xml version="1.0" encoding="utf-8"?>
<!-- Generator: Adobe Illustrator 19.1.0, SVG Export Plug-In . SVG Version: 6.00 Build 0)  -->
<!DOCTYPE svg PUBLIC "-//W3C//DTD SVG 1.1//EN" "http://www.w3.org/Graphics/SVG/1.1/DTD/svg11.dtd">
<svg version="1.1" id="Layer_1" xmlns="http://www.w3.org/2000/svg" xmlns:xlink="http://www.w3.org/1999/xlink" x="0px" y="0px"
	 width="48px" height="48px" viewBox="0 0 48 48" enable-background="new 0 0 48 48" xml:space="preserve">
<path fill="#A67C52" d="M40,1c-3.30322,0-6.18604,2.34082-6.85498,5.56543l0.97882,0.20306c0,0.00006,0,0.00006,0,0.00006
	l6.55133,7.19556l0.00012-0.00006l0.11719,0.99298C44.33105,14.54004,47,11.54932,47,8C47,4.14014,43.85986,1,40,1z"/>
<path fill="#A67C52" d="M8,1C4.14014,1,1,4.14014,1,8c0,3.54932,2.66895,6.54004,6.20752,6.95703l0.11719-0.99298l0.00012,0.00006
	l6.55133-7.1955c0,0,0-0.00006,0-0.00012l0.97882-0.20306C14.18604,3.34082,11.30322,1,8,1z"/>
<circle fill="#87613E" cx="8" cy="8" r="4"/>
<circle fill="#87613E" cx="40" cy="8" r="4"/>
<path fill="#C19F85" d="M24,47C13.51172,47,5,30.66211,5,20c0-9.37402,8.52344-17,19-17s19,7.62598,19,17
	C43,30.66211,34.48828,47,24,47z"/>
<path fill="#8E725E" d="M30,31c-0.55225,0-1,0.44727-1,1v1c0,1.10254-0.89697,2-2,2s-2-0.89746-2-2v-3.67383
	c0-0.55273-0.44775-1-1-1s-1,0.44727-1,1V33c0,1.10254-0.89697,2-2,2s-2-0.89746-2-2v-1c0-0.55273-0.44775-1-1-1s-1,0.44727-1,1v1
	c0,2.20605,1.79443,4,4,4c1.20032,0,2.26624-0.5423,3-1.3822C24.73376,36.4577,25.79968,37,27,37c2.20557,0,4-1.79395,4-4v-1
	C31,31.44727,30.55225,31,30,31z"/>
<circle fill="#444444" cx="16" cy="16" r="2"/>
<circle fill="#444444" cx="32" cy="16" r="2"/>
<path fill="#444444" d="M29.23584,22.38184C28.80957,21.5293,27.95264,21,27,21h-6c-0.95264,0-1.80957,0.5293-2.23584,1.38184
	C18.33789,23.23389,18.42822,24.2373,19,25l3,4.00098C22.47656,29.63574,23.20557,30,24,30s1.52344-0.36426,2-1l3.00049-4.00049
	C29.57178,24.2373,29.66211,23.23389,29.23584,22.38184z"/>
</svg>
