<?xml version="1.0" encoding="utf-8"?>
<!-- Generator: Adobe Illustrator 19.1.0, SVG Export Plug-In . SVG Version: 6.00 Build 0)  -->
<!DOCTYPE svg PUBLIC "-//W3C//DTD SVG 1.1//EN" "http://www.w3.org/Graphics/SVG/1.1/DTD/svg11.dtd">
<svg version="1.1" id="Layer_1" xmlns="http://www.w3.org/2000/svg" xmlns:xlink="http://www.w3.org/1999/xlink" x="0px" y="0px"
	 width="48px" height="48px" viewBox="0 0 48 48" enable-background="new 0 0 48 48" xml:space="preserve">
<path fill="#444444" d="M10.47754,22.74121c-0.07031,0-0.14062-0.00684-0.21094-0.02246C4.81055,21.54297,1,17.13477,1,12
	C1,5.93457,6.38281,1,13,1c3.80664,0,7.43652,1.68262,9.71094,4.50195c0.28516,0.35352,0.2959,0.85352,0.02832,1.21973
	L11.28418,22.33301C11.09277,22.59277,10.79199,22.74121,10.47754,22.74121z"/>
<path fill="#EEBC99" d="M9.33691,18.22461C6.70801,17.03711,5,14.66602,5,12c0-3.85938,3.58887-7,8-7
	c1.80469,0,3.54102,0.53906,4.94336,1.49609L9.33691,18.22461z"/>
<path fill="#444444" d="M37.52246,22.74121c-0.31445,0-0.61523-0.14844-0.80664-0.4082L25.26074,6.72168
	c-0.26758-0.36621-0.25684-0.86621,0.02832-1.21973C27.56348,2.68262,31.19336,1,35,1c6.61719,0,12,4.93457,12,11
	c0,5.13477-3.81055,9.54297-9.2666,10.71875C37.66309,22.73438,37.59277,22.74121,37.52246,22.74121z"/>
<path fill="#EEBC99" d="M38.66309,18.22461C41.29199,17.03711,43,14.66602,43,12c0-3.85938-3.58887-7-8-7
	c-1.80469,0-3.54102,0.53906-4.94336,1.49609L38.66309,18.22461z"/>
<path fill="#7C7C7C" d="M24.08331,42c1.83514,0,3.4754,0.82605,4.57599,2.12408C34.07245,37.90857,39,23.34381,39,18
	c0-7.16797-6.72852-13-15-13S9,10.83203,9,18c0,3.51562,2.02051,10.61914,4.80469,16.89062
	c1.46564,3.30188,3.40027,6.9726,5.56873,9.39978C20.47217,42.89734,22.17139,42,24.08331,42z"/>
<path fill="#444444" d="M7.99902,41.34473c-0.47852,0-0.90137-0.34473-0.98438-0.83203
	c-0.09277-0.54492,0.27344-1.06152,0.81738-1.15332l12-2.04395c0.54395-0.09082,1.06055,0.27344,1.15332,0.81738
	c0.09277,0.54492-0.27344,1.06055-0.81738,1.15332l-12,2.04395C8.11133,41.33984,8.05469,41.34473,7.99902,41.34473z"/>
<path fill="#444444" d="M18.73535,35.0752c-0.04883,0-0.09863-0.00391-0.14941-0.01074l-12.73438-1.9082
	c-0.5459-0.08203-0.92285-0.59082-0.84082-1.1377c0.08203-0.5459,0.58301-0.91113,1.1377-0.84082l12.73438,1.9082
	c0.5459,0.08203,0.92285,0.59082,0.84082,1.1377C19.64941,34.71973,19.22266,35.0752,18.73535,35.0752z"/>
<path fill="#444444" d="M40.00098,41.34473c-0.05566,0-0.1123-0.00488-0.16895-0.01465l-12-2.04395
	c-0.54395-0.09277-0.91016-0.6084-0.81738-1.15332c0.09277-0.54395,0.60938-0.9082,1.15332-0.81738l12,2.04395
	c0.54395,0.0918,0.91016,0.6084,0.81738,1.15332C40.90234,41,40.47949,41.34473,40.00098,41.34473z"/>
<path fill="#444444" d="M29.26465,35.0752c-0.4873,0-0.91406-0.35547-0.98828-0.85156
	c-0.08203-0.54688,0.29492-1.05566,0.84082-1.1377l12.73438-1.9082c0.55762-0.07031,1.05664,0.29492,1.1377,0.84082
	c0.08203,0.54688-0.29492,1.05566-0.84082,1.1377l-12.73438,1.9082C29.36328,35.07129,29.31348,35.0752,29.26465,35.0752z"/>
<circle fill="#EFD358" cx="17" cy="22" r="2"/>
<circle fill="#EFD358" cx="31" cy="22" r="2"/>
<path fill="#444444" d="M24,47c1.52368,0,3.11121-1.09839,4.6593-2.87592C27.55872,42.82605,25.91846,42,24.08331,42
	c-1.91193,0-3.61115,0.89734-4.7099,2.29041C20.83301,45.92413,22.39746,47,24,47z"/>
</svg>
