<?xml version="1.0" encoding="utf-8"?>
<!-- Generator: Adobe Illustrator 19.1.0, SVG Export Plug-In . SVG Version: 6.00 Build 0)  -->
<!DOCTYPE svg PUBLIC "-//W3C//DTD SVG 1.1//EN" "http://www.w3.org/Graphics/SVG/1.1/DTD/svg11.dtd">
<svg version="1.1" id="Layer_1" xmlns="http://www.w3.org/2000/svg" xmlns:xlink="http://www.w3.org/1999/xlink" x="0px" y="0px"
	 width="48px" height="48px" viewBox="0 0 48 48" enable-background="new 0 0 48 48" xml:space="preserve">
<path fill="#CCCCCC" d="M24,47c-3.75293,0-7.26953-1.66504-9.64941-4.56738c-2.37891-2.90234-3.32129-6.67676-2.58496-10.35742
	l1.20996-6.04883l22.05469,0.02539l1.2041,6.02344c0.73633,3.68066-0.20605,7.45508-2.58496,10.35742
	C31.26953,45.33496,27.75293,47,24,47z"/>
<path fill="#E86C60" d="M24,29c-12.68262,0-23-4.03711-23-9C1,13.5791,11.41309,1,24,1c7.62891,0,13.45215,4.42969,16.24316,7.07031
	C44.28516,11.89258,47,16.68652,47,20C47,25.04688,36.89746,29,24,29z"/>
<circle fill="#FFFFFF" cx="14.5" cy="18.5" r="3.5"/>
<circle fill="#FFFFFF" cx="30" cy="15" r="7"/>
</svg>
