<?xml version="1.0" encoding="utf-8"?>
<!-- Generator: Adobe Illustrator 19.2.1, SVG Export Plug-In . SVG Version: 6.00 Build 0)  -->
<!DOCTYPE svg PUBLIC "-//W3C//DTD SVG 1.1//EN" "http://www.w3.org/Graphics/SVG/1.1/DTD/svg11.dtd">
<svg version="1.1" id="Layer_1" xmlns="http://www.w3.org/2000/svg" xmlns:xlink="http://www.w3.org/1999/xlink" x="0px" y="0px"
	 width="64px" height="64px" viewBox="0 0 64 64" enable-background="new 0 0 64 64" xml:space="preserve">
<path d="M21.858,9.152c-6.545,0.937-11.77,6.162-12.707,12.707C9.073,22.405,9.453,22.912,10,22.99
	c0.048,0.007,0.096,0.01,0.143,0.01c0.489,0,0.917-0.36,0.988-0.858c0.812-5.671,5.339-10.199,11.01-11.01
	c0.547-0.078,0.927-0.584,0.848-1.131C22.912,9.454,22.401,9.076,21.858,9.152z"/>
<path d="M47.621,41.964c-0.391-0.391-1.024-0.391-1.414,0l-1.061,1.061l-3.868-3.868C44.836,35.106,47,29.802,47,24
	C47,11.318,36.682,1,24,1S1,11.318,1,24s10.318,23,23,23c5.802,0,11.106-2.164,15.157-5.722l3.868,3.868l-1.061,1.061
	c-0.391,0.391-0.391,1.024,0,1.414L57.05,62.707c0.391,0.391,1.024,0.391,1.414,0l4.243-4.243c0.391-0.391,0.391-1.024,0-1.414
	L47.621,41.964z M24,45C12.421,45,3,35.579,3,24S12.421,3,24,3s21,9.421,21,21S35.579,45,24,45z"/>
</svg>
