<?xml version="1.0" encoding="utf-8"?>
<!-- Generator: Adobe Illustrator 19.2.1, SVG Export Plug-In . SVG Version: 6.00 Build 0)  -->
<!DOCTYPE svg PUBLIC "-//W3C//DTD SVG 1.1//EN" "http://www.w3.org/Graphics/SVG/1.1/DTD/svg11.dtd">
<svg version="1.1" id="Layer_1" xmlns="http://www.w3.org/2000/svg" xmlns:xlink="http://www.w3.org/1999/xlink" x="0px" y="0px"
	 width="64px" height="64px" viewBox="0 0 64 64" enable-background="new 0 0 64 64" xml:space="preserve">
<path d="M61,1H3C1.895,1,1,1.895,1,3v58c0,1.105,0.895,2,2,2h58c1.105,0,2-0.895,2-2V3C63,1.895,62.105,1,61,1z M48,47H16
	c-0.553,0-1-0.448-1-1s0.447-1,1-1h32c0.553,0,1,0.448,1,1S48.553,47,48,47z M48,33H16c-0.553,0-1-0.448-1-1s0.447-1,1-1h32
	c0.553,0,1,0.448,1,1S48.553,33,48,33z M48,19H16c-0.553,0-1-0.448-1-1s0.447-1,1-1h32c0.553,0,1,0.448,1,1S48.553,19,48,19z"/>
</svg>
