<?xml version="1.0" encoding="utf-8"?>
<!-- Generator: Adobe Illustrator 19.2.1, SVG Export Plug-In . SVG Version: 6.00 Build 0)  -->
<!DOCTYPE svg PUBLIC "-//W3C//DTD SVG 1.1//EN" "http://www.w3.org/Graphics/SVG/1.1/DTD/svg11.dtd">
<svg version="1.1" id="Layer_1" xmlns="http://www.w3.org/2000/svg" xmlns:xlink="http://www.w3.org/1999/xlink" x="0px" y="0px"
	 width="64px" height="64px" viewBox="0 0 64 64" enable-background="new 0 0 64 64" xml:space="preserve">
<path d="M32,1C15.242,1,1.556,14.368,1.025,31h13.993l7.906-15.811c0.169-0.339,0.516-0.553,0.895-0.553s0.725,0.214,0.895,0.553
	l15.469,30.938l7.288-14.574C47.639,31.214,47.985,31,48.364,31h14.611C62.444,14.368,48.758,1,32,1z"/>
<path d="M40.182,49.363c-0.379,0-0.725-0.214-0.895-0.553L23.818,17.873l-7.288,14.574C16.361,32.786,16.015,33,15.636,33H1.025
	C1.556,49.632,15.242,63,32,63s30.444-13.368,30.975-30H48.982l-7.906,15.811C40.907,49.149,40.561,49.363,40.182,49.363z"/>
</svg>
