<?xml version="1.0" encoding="utf-8"?>
<!-- Generator: Adobe Illustrator 19.2.1, SVG Export Plug-In . SVG Version: 6.00 Build 0)  -->
<!DOCTYPE svg PUBLIC "-//W3C//DTD SVG 1.1//EN" "http://www.w3.org/Graphics/SVG/1.1/DTD/svg11.dtd">
<svg version="1.1" id="Layer_1" xmlns="http://www.w3.org/2000/svg" xmlns:xlink="http://www.w3.org/1999/xlink" x="0px" y="0px"
	 width="64px" height="64px" viewBox="0 0 64 64" enable-background="new 0 0 64 64" xml:space="preserve">
<path d="M2,17h38c0.553,0,1-0.447,1-1V4c0-0.553-0.447-1-1-1H2C1.447,3,1,3.447,1,4v12C1,16.553,1.447,17,2,17z"/>
<path d="M2,39h38c0.553,0,1-0.447,1-1V26c0-0.553-0.447-1-1-1H2c-0.553,0-1,0.447-1,1v12C1,38.553,1.447,39,2,39z"/>
<path d="M2,61h38c0.553,0,1-0.447,1-1V48c0-0.553-0.447-1-1-1H2c-0.553,0-1,0.447-1,1v12C1,60.553,1.447,61,2,61z"/>
<path d="M62,3H50c-0.553,0-1,0.447-1,1v56c0,0.553,0.447,1,1,1h12c0.553,0,1-0.447,1-1V4C63,3.447,62.553,3,62,3z"/>
</svg>
