<?xml version="1.0" encoding="utf-8"?>
<!-- Generator: Adobe Illustrator 19.2.1, SVG Export Plug-In . SVG Version: 6.00 Build 0)  -->
<!DOCTYPE svg PUBLIC "-//W3C//DTD SVG 1.1//EN" "http://www.w3.org/Graphics/SVG/1.1/DTD/svg11.dtd">
<svg version="1.1" id="Layer_1" xmlns="http://www.w3.org/2000/svg" xmlns:xlink="http://www.w3.org/1999/xlink" x="0px" y="0px"
	 width="64px" height="64px" viewBox="0 0 64 64" enable-background="new 0 0 64 64" xml:space="preserve">
<path d="M2,19c0.553,0,1-0.447,1-1V3h15c0.553,0,1-0.447,1-1s-0.447-1-1-1H2C1.447,1,1,1.447,1,2v16C1,18.553,1.447,19,2,19z"/>
<path d="M63,2c0-0.553-0.447-1-1-1H46c-0.553,0-1,0.447-1,1s0.447,1,1,1h15v15c0,0.553,0.447,1,1,1s1-0.447,1-1V2z"/>
<path d="M46,63h16c0.553,0,1-0.447,1-1V46c0-0.553-0.447-1-1-1s-1,0.447-1,1v15H46c-0.553,0-1,0.447-1,1S45.447,63,46,63z"/>
<path d="M2,63h16c0.553,0,1-0.447,1-1s-0.447-1-1-1H3V46c0-0.553-0.447-1-1-1s-1,0.447-1,1v16C1,62.553,1.447,63,2,63z"/>
<path d="M47,40V24c0-0.553-0.447-1-1-1H18c-0.553,0-1,0.447-1,1v16c0,0.553,0.447,1,1,1h28C46.553,41,47,40.553,47,40z"/>
</svg>
