<?xml version="1.0" encoding="utf-8"?>
<!-- Generator: Adobe Illustrator 19.2.1, SVG Export Plug-In . SVG Version: 6.00 Build 0)  -->
<!DOCTYPE svg PUBLIC "-//W3C//DTD SVG 1.1//EN" "http://www.w3.org/Graphics/SVG/1.1/DTD/svg11.dtd">
<svg version="1.1" id="Layer_1" xmlns="http://www.w3.org/2000/svg" xmlns:xlink="http://www.w3.org/1999/xlink" x="0px" y="0px"
	 width="64px" height="64px" viewBox="0 0 64 64" enable-background="new 0 0 64 64" xml:space="preserve">
<path d="M3,10v4c0,0.552,0.447,1,1,1h56c0.553,0,1-0.448,1-1v-4c0-0.552-0.447-1-1-1H43V2c0-0.552-0.447-1-1-1H22
	c-0.553,0-1,0.448-1,1v7H4C3.447,9,3,9.448,3,10z M23,3h18v6H23V3z"/>
<path d="M52,63c1.657,0,3-1.343,3-3V17H9v43c0,1.657,1.343,3,3,3H52z M41,30c0-0.552,0.447-1,1-1s1,0.448,1,1v20
	c0,0.552-0.447,1-1,1s-1-0.448-1-1V30z M31,30c0-0.552,0.447-1,1-1s1,0.448,1,1v20c0,0.552-0.447,1-1,1s-1-0.448-1-1V30z M21,30
	c0-0.552,0.447-1,1-1s1,0.448,1,1v20c0,0.552-0.447,1-1,1s-1-0.448-1-1V30z"/>
</svg>
