<?xml version="1.0" encoding="utf-8"?>
<!-- Generator: Adobe Illustrator 19.2.1, SVG Export Plug-In . SVG Version: 6.00 Build 0)  -->
<!DOCTYPE svg PUBLIC "-//W3C//DTD SVG 1.1//EN" "http://www.w3.org/Graphics/SVG/1.1/DTD/svg11.dtd">
<svg version="1.1" id="Layer_1" xmlns="http://www.w3.org/2000/svg" xmlns:xlink="http://www.w3.org/1999/xlink" x="0px" y="0px"
	 width="64px" height="64px" viewBox="0 0 64 64" enable-background="new 0 0 64 64" xml:space="preserve">
<path d="M61,1H3C1.895,1,1,1.895,1,3v58c0,1.105,0.895,2,2,2h58c1.105,0,2-0.895,2-2V3C63,1.895,62.105,1,61,1z M47,10
	c0-0.552,0.447-1,1-1s1,0.448,1,1v24c0,0.552-0.447,1-1,1s-1-0.448-1-1V10z M31,10c0-0.552,0.447-1,1-1s1,0.448,1,1v6
	c0,0.552-0.447,1-1,1s-1-0.448-1-1V10z M15,10c0-0.552,0.447-1,1-1s1,0.448,1,1v24c0,0.552-0.447,1-1,1s-1-0.448-1-1V10z M23,48
	c0,0.552-0.447,1-1,1h-5v5c0,0.552-0.447,1-1,1s-1-0.448-1-1v-5h-5c-0.553,0-1-0.448-1-1v-8c0-0.552,0.447-1,1-1h12
	c0.553,0,1,0.448,1,1V48z M39,30c0,0.552-0.447,1-1,1h-5v23c0,0.552-0.447,1-1,1s-1-0.448-1-1V31h-5c-0.553,0-1-0.448-1-1v-8
	c0-0.552,0.447-1,1-1h12c0.553,0,1,0.448,1,1V30z M55,48c0,0.552-0.447,1-1,1h-5v5c0,0.552-0.447,1-1,1s-1-0.448-1-1v-5h-5
	c-0.553,0-1-0.448-1-1v-8c0-0.552,0.447-1,1-1h12c0.553,0,1,0.448,1,1V48z"/>
</svg>
