<?xml version="1.0" encoding="utf-8"?>
<!-- Generator: Adobe Illustrator 19.2.1, SVG Export Plug-In . SVG Version: 6.00 Build 0)  -->
<!DOCTYPE svg PUBLIC "-//W3C//DTD SVG 1.1//EN" "http://www.w3.org/Graphics/SVG/1.1/DTD/svg11.dtd">
<svg version="1.1" id="Layer_1" xmlns="http://www.w3.org/2000/svg" xmlns:xlink="http://www.w3.org/1999/xlink" x="0px" y="0px"
	 width="64px" height="64px" viewBox="0 0 64 64" enable-background="new 0 0 64 64" xml:space="preserve">
<path fill="#222221" d="M3,25h19c0.553,0,1-0.448,1-1s-0.447-1-1-1H3c-0.553,0-1,0.448-1,1S2.447,25,3,25z"/>
<path fill="#222221" d="M3,41h19c0.553,0,1-0.448,1-1s-0.447-1-1-1H3c-0.553,0-1,0.448-1,1S2.447,41,3,41z"/>
<path fill="#222221" d="M3,57h39c0.553,0,1-0.448,1-1s-0.447-1-1-1H3c-0.553,0-1,0.448-1,1S2.447,57,3,57z"/>
<path fill="#222221" d="M57,7H3C2.447,7,2,7.448,2,8s0.447,1,1,1h54c0.553,0,1-0.448,1-1S57.553,7,57,7z"/>
<path fill="#222221" d="M62.707,51.293c0.391-0.391,0.391-1.024,0-1.414l-10.1-10.1c-0.042-0.042-0.096-0.062-0.144-0.095
	C54.05,37.528,55,34.876,55,32c0-7.168-5.832-13-13-13s-13,5.832-13,13s5.832,13,13,13c2.876,0,5.528-0.95,7.683-2.537
	c0.033,0.047,0.053,0.101,0.095,0.144l10.1,10.1c0.391,0.391,1.024,0.391,1.414,0L62.707,51.293z M42,43c-6.065,0-11-4.935-11-11
	s4.935-11,11-11s11,4.935,11,11S48.065,43,42,43z"/>
</svg>
