<?xml version="1.0" encoding="utf-8"?>
<!-- Generator: Adobe Illustrator 19.2.1, SVG Export Plug-In . SVG Version: 6.00 Build 0)  -->
<!DOCTYPE svg PUBLIC "-//W3C//DTD SVG 1.1//EN" "http://www.w3.org/Graphics/SVG/1.1/DTD/svg11.dtd">
<svg version="1.1" id="Layer_1" xmlns="http://www.w3.org/2000/svg" xmlns:xlink="http://www.w3.org/1999/xlink" x="0px" y="0px"
	 width="64px" height="64px" viewBox="0 0 64 64" enable-background="new 0 0 64 64" xml:space="preserve">
<path d="M3,63h58c1.105,0,2-0.895,2-2V3c0-1.105-0.895-2-2-2H3C1.895,1,1,1.895,1,3v58C1,62.105,1.895,63,3,63z M35,14
	c0-0.553,0.447-1,1-1h14c0.553,0,1,0.447,1,1v14c0,0.553-0.447,1-1,1H36c-0.553,0-1-0.447-1-1V14z M35,36c0-0.553,0.447-1,1-1h14
	c0.553,0,1,0.447,1,1v14c0,0.553-0.447,1-1,1H36c-0.553,0-1-0.447-1-1V36z M13,14c0-0.553,0.447-1,1-1h14c0.553,0,1,0.447,1,1v14
	c0,0.553-0.447,1-1,1H14c-0.553,0-1-0.447-1-1V14z M13,36c0-0.553,0.447-1,1-1h14c0.553,0,1,0.447,1,1v14c0,0.553-0.447,1-1,1H14
	c-0.553,0-1-0.447-1-1V36z"/>
</svg>
