<?xml version="1.0" encoding="utf-8"?>
<!-- Generator: Adobe Illustrator 19.2.1, SVG Export Plug-In . SVG Version: 6.00 Build 0)  -->
<!DOCTYPE svg PUBLIC "-//W3C//DTD SVG 1.1//EN" "http://www.w3.org/Graphics/SVG/1.1/DTD/svg11.dtd">
<svg version="1.1" id="Layer_1" xmlns="http://www.w3.org/2000/svg" xmlns:xlink="http://www.w3.org/1999/xlink" x="0px" y="0px"
	 width="64px" height="64px" viewBox="0 0 64 64" enable-background="new 0 0 64 64" xml:space="preserve">
<path d="M62,9H31v2h31c0.552,0,1-0.448,1-1S62.552,9,62,9z"/>
<path d="M1,10c0,0.552,0.448,1,1,1h7.059c0.498,4.499,4.309,8,8.941,8c4.971,0,9-4.029,9-9s-4.029-9-9-9
	c-4.632,0-8.443,3.501-8.941,8H2C1.448,9,1,9.448,1,10z"/>
<path d="M62,53H31v2h31c0.552,0,1-0.448,1-1S62.552,53,62,53z"/>
<path d="M2,55h7.059c0.498,4.499,4.309,8,8.941,8c4.971,0,9-4.029,9-9s-4.029-9-9-9c-4.632,0-8.443,3.501-8.941,8H2
	c-0.552,0-1,0.448-1,1S1.448,55,2,55z"/>
<path d="M2,33h31v-2H2c-0.552,0-1,0.448-1,1S1.448,33,2,33z"/>
<path d="M62,31h-7.059c-0.498-4.499-4.309-8-8.941-8c-4.971,0-9,4.029-9,9s4.029,9,9,9c4.632,0,8.443-3.501,8.941-8H62
	c0.552,0,1-0.448,1-1S62.552,31,62,31z"/>
</svg>
