<?xml version="1.0" encoding="utf-8"?>
<!-- Generator: Adobe Illustrator 19.2.1, SVG Export Plug-In . SVG Version: 6.00 Build 0)  -->
<!DOCTYPE svg PUBLIC "-//W3C//DTD SVG 1.1//EN" "http://www.w3.org/Graphics/SVG/1.1/DTD/svg11.dtd">
<svg version="1.1" id="Layer_1" xmlns="http://www.w3.org/2000/svg" xmlns:xlink="http://www.w3.org/1999/xlink" x="0px" y="0px"
	 width="64px" height="64px" viewBox="0 0 64 64" enable-background="new 0 0 64 64" xml:space="preserve">
<path d="M30,61c14.888,0,27-12.112,27-27c0-3.562-0.7-6.963-1.959-10.08l-1.53,1.583C54.473,28.157,55,31.018,55,34
	c0,13.785-11.215,25-25,25S5,47.785,5,34S16.215,9,30,9c5.683,0,10.927,1.91,15.131,5.117l1.526-1.343C42.065,9.162,36.282,7,30,7
	C15.112,7,3,19.112,3,34S15.112,61,30,61z"/>
<polygon points="21,23 17,27 32,42 61,12 57,9 32,31 "/>
</svg>
