<?xml version="1.0" encoding="utf-8"?>
<!-- Generator: Adobe Illustrator 19.2.1, SVG Export Plug-In . SVG Version: 6.00 Build 0)  -->
<!DOCTYPE svg PUBLIC "-//W3C//DTD SVG 1.1//EN" "http://www.w3.org/Graphics/SVG/1.1/DTD/svg11.dtd">
<svg version="1.1" id="Layer_1" xmlns="http://www.w3.org/2000/svg" xmlns:xlink="http://www.w3.org/1999/xlink" x="0px" y="0px"
	 width="64px" height="64px" viewBox="0 0 64 64" enable-background="new 0 0 64 64" xml:space="preserve">
<path d="M53.187,42.39L35.8,29.578l15.428-11.999c0.508-0.396,0.795-1.01,0.771-1.652s-0.354-1.234-0.89-1.591l-18-12
	c-0.614-0.411-1.404-0.448-2.053-0.1C30.406,2.585,30,3.263,30,4v21.306L13.576,13.203l-2.373,3.221l17.971,13.241l-17.98,13.984
	l2.456,3.157L30,34.089V60c0,0.769,0.44,1.47,1.134,1.803C31.409,61.936,31.705,62,32,62c0.445,0,0.888-0.149,1.249-0.438l20-16
	c0.485-0.388,0.763-0.979,0.751-1.602C53.987,43.339,53.687,42.759,53.187,42.39z M34,7.737l12.582,8.388L34,25.911V7.737z
	 M34,55.839V33.221l14.717,10.845L34,55.839z"/>
</svg>
