<?xml version="1.0" encoding="utf-8"?>
<!-- Generator: Adobe Illustrator 19.2.1, SVG Export Plug-In . SVG Version: 6.00 Build 0)  -->
<!DOCTYPE svg PUBLIC "-//W3C//DTD SVG 1.1//EN" "http://www.w3.org/Graphics/SVG/1.1/DTD/svg11.dtd">
<svg version="1.1" id="Layer_1" xmlns="http://www.w3.org/2000/svg" xmlns:xlink="http://www.w3.org/1999/xlink" x="0px" y="0px"
	 width="64px" height="64px" viewBox="0 0 64 64" enable-background="new 0 0 64 64" xml:space="preserve">
<path d="M59.839,3.014c-1.243,0.203-30.577,5.111-42.546,17.08c-8.674,8.675-8.621,18.193-7.218,24.374l15.537-10.212
	c0.469-0.308,0.982,0.322,0.586,0.719L1.172,60.001L4,62.829l10.531-10.531c2.153,0.913,6.212,2.292,11.122,2.292
	c5.526,0,12.121-1.749,18.254-7.882C56.771,33.843,60.824,5.345,60.99,4.138c0.044-0.315-0.064-0.631-0.292-0.853
	C60.47,3.063,60.15,2.961,59.839,3.014z"/>
</svg>
