<?xml version="1.0" encoding="utf-8"?>
<!-- Generator: Adobe Illustrator 19.2.1, SVG Export Plug-In . SVG Version: 6.00 Build 0)  -->
<!DOCTYPE svg PUBLIC "-//W3C//DTD SVG 1.1//EN" "http://www.w3.org/Graphics/SVG/1.1/DTD/svg11.dtd">
<svg version="1.1" id="Layer_1" xmlns="http://www.w3.org/2000/svg" xmlns:xlink="http://www.w3.org/1999/xlink" x="0px" y="0px"
	 width="64px" height="64px" viewBox="0 0 64 64" enable-background="new 0 0 64 64" xml:space="preserve">
<path d="M26,51c4.722,0,9.142-1.317,12.914-3.601l14.433,14.433c0.188,0.188,0.441,0.293,0.707,0.293s0.52-0.105,0.707-0.293
	l7.071-7.071c0.391-0.391,0.391-1.023,0-1.414L47.399,38.913C49.683,35.142,51,30.722,51,26C51,12.215,39.785,1,26,1S1,12.215,1,26
	S12.215,51,26,51z M26,3c12.703,0,23,10.297,23,23c0,12.703-10.297,23-23,23S3,38.703,3,26C3,13.297,13.297,3,26,3z"/>
</svg>
