<?xml version="1.0" encoding="utf-8"?>
<!-- Generator: Adobe Illustrator 19.2.1, SVG Export Plug-In . SVG Version: 6.00 Build 0)  -->
<!DOCTYPE svg PUBLIC "-//W3C//DTD SVG 1.1//EN" "http://www.w3.org/Graphics/SVG/1.1/DTD/svg11.dtd">
<svg version="1.1" id="Layer_1" xmlns="http://www.w3.org/2000/svg" xmlns:xlink="http://www.w3.org/1999/xlink" x="0px" y="0px"
	 width="64px" height="64px" viewBox="0 0 64 64" enable-background="new 0 0 64 64" xml:space="preserve">
<path d="M62,18H35c-0.552,0-1,0.448-1,1v8h4v-5h21v20H38v-5h-4v8c0,0.552,0.448,1,1,1h27c0.552,0,1-0.448,1-1V19
	C63,18.448,62.552,18,62,18z"/>
<path d="M2,46h27c0.552,0,1-0.448,1-1v-8h-4v5H5V22h21v5h4v-8c0-0.552-0.448-1-1-1H2c-0.552,0-1,0.448-1,1v26
	C1,45.552,1.448,46,2,46z"/>
<path d="M18,32c0,1.104,0.896,2,2,2h24c1.104,0,2-0.896,2-2s-0.896-2-2-2H20C18.896,30,18,30.896,18,32z"/>
</svg>
