<?xml version="1.0" encoding="utf-8"?>
<!-- Generator: Adobe Illustrator 19.2.1, SVG Export Plug-In . SVG Version: 6.00 Build 0)  -->
<!DOCTYPE svg PUBLIC "-//W3C//DTD SVG 1.1//EN" "http://www.w3.org/Graphics/SVG/1.1/DTD/svg11.dtd">
<svg version="1.1" id="Layer_1" xmlns="http://www.w3.org/2000/svg" xmlns:xlink="http://www.w3.org/1999/xlink" x="0px" y="0px"
	 width="64px" height="64px" viewBox="0 0 64 64" enable-background="new 0 0 64 64" xml:space="preserve">
<path d="M62,25h-6.12c-1.155,0-2.188-0.698-2.653-1.828c-0.444-1.074-0.206-2.294,0.608-3.107l4.328-4.328
	c0.391-0.391,0.391-1.023,0-1.414l-8.485-8.485c-0.375-0.375-1.039-0.375-1.414,0l-4.327,4.328
	c-0.802,0.802-1.948,1.086-3.158,0.588C39.698,10.309,39,9.275,39,8.12V2c0-0.553-0.448-1-1-1H26c-0.552,0-1,0.447-1,1v6.12
	c0,1.155-0.698,2.188-1.828,2.653c-1.06,0.436-2.306,0.192-3.108-0.608l-4.328-4.328c-0.375-0.375-1.039-0.375-1.414,0l-8.485,8.485
	c-0.391,0.391-0.391,1.023,0,1.414l4.327,4.328c0.814,0.813,1.053,2.033,0.588,3.157C10.309,24.302,9.275,25,8.12,25H2
	c-0.552,0-1,0.447-1,1v12c0,0.553,0.448,1,1,1h6.12c1.155,0,2.188,0.698,2.653,1.828c0.444,1.074,0.206,2.294-0.608,3.107
	l-4.327,4.328c-0.391,0.391-0.391,1.023,0,1.414l8.485,8.485c0.375,0.375,1.039,0.375,1.414,0l4.328-4.328
	c0.801-0.802,1.946-1.087,3.157-0.588C24.302,53.691,25,54.725,25,55.88V62c0,0.553,0.448,1,1,1h12c0.552,0,1-0.447,1-1v-6.12
	c0-1.155,0.698-2.188,1.828-2.653c1.062-0.438,2.307-0.193,3.108,0.608l4.328,4.328c0.188,0.188,0.442,0.293,0.707,0.293
	s0.52-0.105,0.707-0.293l8.485-8.485c0.391-0.391,0.391-1.023,0-1.414l-4.328-4.328c-0.814-0.813-1.053-2.033-0.588-3.157
	C53.691,39.698,54.725,39,55.88,39H62c0.552,0,1-0.447,1-1V26C63,25.447,62.552,25,62,25z M32,41c-4.962,0-9-4.037-9-9s4.038-9,9-9
	s9,4.037,9,9S36.962,41,32,41z"/>
</svg>
