<?xml version="1.0" encoding="utf-8"?>
<!-- Generator: Adobe Illustrator 19.2.1, SVG Export Plug-In . SVG Version: 6.00 Build 0)  -->
<!DOCTYPE svg PUBLIC "-//W3C//DTD SVG 1.1//EN" "http://www.w3.org/Graphics/SVG/1.1/DTD/svg11.dtd">
<svg version="1.1" id="Layer_1" xmlns="http://www.w3.org/2000/svg" xmlns:xlink="http://www.w3.org/1999/xlink" x="0px" y="0px"
	 width="64px" height="64px" viewBox="0 0 64 64" enable-background="new 0 0 64 64" xml:space="preserve">
<path d="M32,1C14.907,1,1,14.906,1,32s13.907,31,31,31s31-13.906,31-31S49.093,1,32,1z M46,33H33v13c0,0.553-0.448,1-1,1
	s-1-0.447-1-1V33H18c-0.552,0-1-0.447-1-1s0.448-1,1-1h13V18c0-0.553,0.448-1,1-1s1,0.447,1,1v13h13c0.552,0,1,0.447,1,1
	S46.552,33,46,33z"/>
</svg>
