<?xml version="1.0" encoding="utf-8"?>
<!-- Generator: Adobe Illustrator 19.2.1, SVG Export Plug-In . SVG Version: 6.00 Build 0)  -->
<!DOCTYPE svg PUBLIC "-//W3C//DTD SVG 1.1//EN" "http://www.w3.org/Graphics/SVG/1.1/DTD/svg11.dtd">
<svg version="1.1" id="Layer_1" xmlns="http://www.w3.org/2000/svg" xmlns:xlink="http://www.w3.org/1999/xlink" x="0px" y="0px"
	 width="64px" height="64px" viewBox="0 0 64 64" enable-background="new 0 0 64 64" xml:space="preserve">
<path d="M12,43c6.065,0,11-4.935,11-11s-4.935-11-11-11S1,25.935,1,32S5.935,43,12,43z"/>
<path d="M39.619,15.954l-17.039,8.52c0.772,1.082,1.387,2.281,1.801,3.572l17.039-8.52C40.648,18.445,40.033,17.246,39.619,15.954z"
	/>
<path d="M52,1c-6.065,0-11,4.935-11,11s4.935,11,11,11s11-4.935,11-11S58.065,1,52,1z"/>
<path d="M22.58,39.526l17.039,8.52c0.414-1.292,1.029-2.491,1.801-3.572l-17.039-8.52C23.967,37.245,23.352,38.445,22.58,39.526z"/>
<path d="M52,41c-6.065,0-11,4.935-11,11s4.935,11,11,11s11-4.935,11-11S58.065,41,52,41z"/>
</svg>
