<?xml version="1.0" encoding="utf-8"?>
<!-- Generator: Adobe Illustrator 19.2.1, SVG Export Plug-In . SVG Version: 6.00 Build 0)  -->
<!DOCTYPE svg PUBLIC "-//W3C//DTD SVG 1.1//EN" "http://www.w3.org/Graphics/SVG/1.1/DTD/svg11.dtd">
<svg version="1.1" id="Layer_1" xmlns="http://www.w3.org/2000/svg" xmlns:xlink="http://www.w3.org/1999/xlink" x="0px" y="0px"
	 width="64px" height="64px" viewBox="0 0 64 64" enable-background="new 0 0 64 64" xml:space="preserve">
<path d="M32,3C14.617,3,1,13.981,1,28c0,14.086,13.907,25.546,31,25.546c2.784,0,5.585-0.32,8.331-0.951l15.287,6.329
	C55.741,58.975,55.871,59,56,59c0.207,0,0.413-0.064,0.585-0.189c0.281-0.203,0.437-0.537,0.412-0.883l-1.001-13.762
	C60.517,39.612,63,33.89,63,28C63,13.981,49.383,3,32,3z M34,35H18c-0.552,0-1-0.447-1-1s0.448-1,1-1h16c0.552,0,1,0.447,1,1
	S34.552,35,34,35z M46,23H18c-0.552,0-1-0.447-1-1s0.448-1,1-1h28c0.552,0,1,0.447,1,1S46.552,23,46,23z"/>
</svg>
