<?xml version="1.0" encoding="utf-8"?>
<!-- Generator: Adobe Illustrator 19.2.1, SVG Export Plug-In . SVG Version: 6.00 Build 0)  -->
<!DOCTYPE svg PUBLIC "-//W3C//DTD SVG 1.1//EN" "http://www.w3.org/Graphics/SVG/1.1/DTD/svg11.dtd">
<svg version="1.1" id="Layer_1" xmlns="http://www.w3.org/2000/svg" xmlns:xlink="http://www.w3.org/1999/xlink" x="0px" y="0px"
	 width="64px" height="64px" viewBox="0 0 64 64" enable-background="new 0 0 64 64" xml:space="preserve">
<path d="M5.091,43.597c-0.017,0.039-0.024,0.079-0.036,0.12c-0.016,0.053-0.04,0.103-0.047,0.159l-2,16
	c-0.039,0.307,0.067,0.613,0.285,0.831C3.481,60.896,3.736,61,4,61c0.041,0,0.083-0.003,0.124-0.008l16-2
	c0.055-0.007,0.106-0.031,0.159-0.047c0.041-0.012,0.081-0.018,0.12-0.036c0.112-0.05,0.217-0.114,0.304-0.202l29.999-29.999
	c0,0,0.001,0,0.001,0s0.001-0.001,0.001-0.001l5.998-5.998l0.001-0.001l0.001-0.001l3.17-3.171c0.944-0.943,1.465-2.199,1.465-3.535
	s-0.521-2.592-1.465-3.535l-8.343-8.344c-0.945-0.944-2.2-1.464-3.536-1.464s-2.591,0.52-3.536,1.464L5.293,43.293
	C5.205,43.381,5.14,43.485,5.091,43.597z M42,9.414L54.586,22L50,26.586L37.414,14L42,9.414z M15.293,47.293l24-24
	c0.391-0.391,1.023-0.391,1.414,0s0.391,1.023,0,1.414l-24,24C16.512,48.902,16.256,49,16,49s-0.512-0.098-0.707-0.293
	C14.902,48.316,14.902,47.684,15.293,47.293z M6.739,46.153l11.108,11.108l-7.264,0.908l-4.752-4.753L6.739,46.153z"/>
</svg>
