<?xml version="1.0" encoding="utf-8"?>
<!-- Generator: Adobe Illustrator 19.2.1, SVG Export Plug-In . SVG Version: 6.00 Build 0)  -->
<!DOCTYPE svg PUBLIC "-//W3C//DTD SVG 1.1//EN" "http://www.w3.org/Graphics/SVG/1.1/DTD/svg11.dtd">
<svg version="1.1" id="Layer_1" xmlns="http://www.w3.org/2000/svg" xmlns:xlink="http://www.w3.org/1999/xlink" x="0px" y="0px"
	 width="64px" height="64px" viewBox="0 0 64 64" enable-background="new 0 0 64 64" xml:space="preserve">
<path d="M3.182,31.425c-0.243,0.346-0.242,0.807,0.002,1.152c0.317,0.448,4.95,6.907,11.945,12.052l7.273-7.273
	C21.512,35.77,21,33.945,21,32c0-6.065,4.935-11,11-11c1.945,0,3.77,0.512,5.357,1.401l6.297-6.297C40.091,14.256,36.151,13,32,13
	C16.309,13,3.71,30.673,3.182,31.425z"/>
<path d="M32,43c-1.945,0-3.77-0.512-5.357-1.401l-6.297,6.297C23.909,49.744,27.849,51,32,51c15.53,0,28.279-17.668,28.814-18.42
	c0.247-0.346,0.247-0.81,0.002-1.157c-0.317-0.448-4.95-6.907-11.945-12.052l-7.273,7.273C42.488,28.23,43,30.055,43,32
	C43,38.065,38.065,43,32,43z"/>
<path d="M55.293,7.293l-48,48c-0.391,0.391-0.391,1.023,0,1.414C7.488,56.902,7.744,57,8,57s0.512-0.098,0.707-0.293l48-48
	c0.391-0.391,0.391-1.023,0-1.414S55.684,6.902,55.293,7.293z"/>
</svg>
