<?xml version="1.0" encoding="utf-8"?>
<!-- Generator: Adobe Illustrator 19.2.1, SVG Export Plug-In . SVG Version: 6.00 Build 0)  -->
<!DOCTYPE svg PUBLIC "-//W3C//DTD SVG 1.1//EN" "http://www.w3.org/Graphics/SVG/1.1/DTD/svg11.dtd">
<svg version="1.1" id="Layer_1" xmlns="http://www.w3.org/2000/svg" xmlns:xlink="http://www.w3.org/1999/xlink" x="0px" y="0px"
	 width="64px" height="64px" viewBox="0 0 64 64" enable-background="new 0 0 64 64" xml:space="preserve">
<rect x="6.699" y="25.304" transform="matrix(0.7071 -0.7071 0.7071 0.7071 -14.6298 31.4305)" width="47.851" height="16.142"/>
<path d="M4.025,58.775c-0.077,0.336,0.024,0.688,0.268,0.932C4.482,59.896,4.738,60,5,60c0.075,0,0.15-0.009,0.225-0.025
	l12.46-2.875L6.901,46.315L4.025,58.775z"/>
<path d="M51.414,4c-0.781-0.781-2.047-0.781-2.828,0L43.25,9.336L54.664,20.75L60,15.414c0.781-0.781,0.781-2.047,0-2.828L51.414,4z
	"/>
</svg>
