<?xml version="1.0" encoding="utf-8"?>
<!-- Generator: Adobe Illustrator 19.2.1, SVG Export Plug-In . SVG Version: 6.00 Build 0)  -->
<!DOCTYPE svg PUBLIC "-//W3C//DTD SVG 1.1//EN" "http://www.w3.org/Graphics/SVG/1.1/DTD/svg11.dtd">
<svg version="1.1" id="Layer_1" xmlns="http://www.w3.org/2000/svg" xmlns:xlink="http://www.w3.org/1999/xlink" x="0px" y="0px"
	 width="64px" height="64px" viewBox="0 0 64 64" enable-background="new 0 0 64 64" xml:space="preserve">
<path d="M9,19l4.006,43.104C13.059,62.614,13.488,63,14,63h36c0.512,0,0.941-0.386,0.994-0.896L55,19H9z"/>
<path d="M55,11H42.949C42.442,5.402,37.728,1,32,1S21.558,5.402,21.051,11H9c-3.314,0-6,2.686-6,6h58C61,13.686,58.314,11,55,11z
	 M23.059,11C23.558,6.507,27.375,3,32,3s8.442,3.507,8.941,8H23.059z"/>
</svg>
