<?xml version="1.0" encoding="utf-8"?>
<!-- Generator: Adobe Illustrator 19.2.1, SVG Export Plug-In . SVG Version: 6.00 Build 0)  -->
<!DOCTYPE svg PUBLIC "-//W3C//DTD SVG 1.1//EN" "http://www.w3.org/Graphics/SVG/1.1/DTD/svg11.dtd">
<svg version="1.1" id="Layer_1" xmlns="http://www.w3.org/2000/svg" xmlns:xlink="http://www.w3.org/1999/xlink" x="0px" y="0px"
	 width="64px" height="64px" viewBox="0 0 64 64" enable-background="new 0 0 64 64" xml:space="preserve">
<path fill="#222221" d="M51,19c-6.759,0-12.986,5.073-19,10.338C25.986,24.073,19.759,19,13,19C5.832,19,0,24.832,0,32
	c0,7.168,5.832,13,13,13c6.759,0,12.986-5.073,19-10.338C38.014,39.927,44.241,45,51,45c7.168,0,13-5.832,13-13
	C64,24.832,58.168,19,51,19z M13,41c-4.963,0-9-4.037-9-9c0-4.962,4.037-9,9-9c5.188,0,10.639,4.354,15.968,9
	C23.639,36.646,18.188,41,13,41z M51,41c-5.188,0-10.639-4.354-15.968-9c5.329-4.646,10.779-9,15.968-9c4.963,0,9,4.038,9,9
	C60,36.963,55.963,41,51,41z"/>
</svg>
