<?xml version="1.0" encoding="utf-8"?>
<!-- Generator: Adobe Illustrator 19.2.1, SVG Export Plug-In . SVG Version: 6.00 Build 0)  -->
<!DOCTYPE svg PUBLIC "-//W3C//DTD SVG 1.1//EN" "http://www.w3.org/Graphics/SVG/1.1/DTD/svg11.dtd">
<svg version="1.1" id="Layer_1" xmlns="http://www.w3.org/2000/svg" xmlns:xlink="http://www.w3.org/1999/xlink" x="0px" y="0px"
	 width="64px" height="64px" viewBox="0 0 64 64" enable-background="new 0 0 64 64" xml:space="preserve">
<path d="M31,8v48c0,0.553,0.448,1,1,1s1-0.447,1-1V8c0-0.553-0.448-1-1-1S31,7.447,31,8z"/>
<path d="M49,18H36v4h13c5.514,0,10,4.486,10,10s-4.486,10-10,10H36v4h13c7.72,0,14-6.28,14-14S56.72,18,49,18z"/>
<path d="M15,46h13v-4H15C9.486,42,5,37.514,5,32s4.486-10,10-10h13v-4H15C7.28,18,1,24.28,1,32S7.28,46,15,46z"/>
<path d="M46,32c0-1.104-0.896-2-2-2h-8v4h8C45.104,34,46,33.104,46,32z"/>
<path d="M18,32c0,1.104,0.896,2,2,2h8v-4h-8C18.896,30,18,30.896,18,32z"/>
</svg>
