<?xml version="1.0" encoding="utf-8"?>
<!-- Generator: Adobe Illustrator 19.2.1, SVG Export Plug-In . SVG Version: 6.00 Build 0)  -->
<!DOCTYPE svg PUBLIC "-//W3C//DTD SVG 1.1//EN" "http://www.w3.org/Graphics/SVG/1.1/DTD/svg11.dtd">
<svg version="1.1" id="Layer_1" xmlns="http://www.w3.org/2000/svg" xmlns:xlink="http://www.w3.org/1999/xlink" x="0px" y="0px"
	 width="64px" height="64px" viewBox="0 0 64 64" enable-background="new 0 0 64 64" xml:space="preserve">
<path fill="#222221" d="M62,33v-2c0-0.552-0.448-1-1-1H3c-0.552,0-1,0.448-1,1v2c0,0.552,0.448,1,1,1h58C61.552,34,62,33.552,62,33z
	"/>
<path fill="#222221" d="M62,13c0-0.552-0.448-1-1-1H3c-0.552,0-1,0.448-1,1v2c0,0.552,0.448,1,1,1h58c0.552,0,1-0.448,1-1V13z"/>
<path fill="#222221" d="M3,48c-0.552,0-1,0.448-1,1v2c0,0.552,0.448,1,1,1h30c0.552,0,1-0.448,1-1v-2c0-0.552-0.448-1-1-1H3z"/>
</svg>
