<?xml version="1.0" encoding="utf-8"?>
<!-- Generator: Adobe Illustrator 19.2.1, SVG Export Plug-In . SVG Version: 6.00 Build 0)  -->
<!DOCTYPE svg PUBLIC "-//W3C//DTD SVG 1.1//EN" "http://www.w3.org/Graphics/SVG/1.1/DTD/svg11.dtd">
<svg version="1.1" id="Layer_1" xmlns="http://www.w3.org/2000/svg" xmlns:xlink="http://www.w3.org/1999/xlink" x="0px" y="0px"
	 width="64px" height="64px" viewBox="0 0 64 64" enable-background="new 0 0 64 64" xml:space="preserve">
<path d="M1,28c0,3.91,2.51,7.236,6,8.475v-16.95C3.51,20.764,1,24.09,1,28z"/>
<path d="M29.277,62.857c0.449,0.097,0.901,0.145,1.349,0.145c1.234,0,2.441-0.363,3.495-1.065c1.407-0.938,2.364-2.367,2.695-4.025
	c0.332-1.657-0.002-3.345-0.94-4.751L29.107,43H14.602l10.641,17.025C26.158,61.488,27.59,62.494,29.277,62.857z"/>
<path d="M62.539,3.157c-0.288-0.184-0.648-0.207-0.958-0.065L35.78,15H10c-0.552,0-1,0.447-1,1v24c0,0.553,0.448,1,1,1h25.78
	l25.801,11.908C61.714,52.97,61.857,53,62,53c0.188,0,0.375-0.053,0.539-0.157C62.826,52.658,63,52.341,63,52V4
	C63,3.659,62.826,3.342,62.539,3.157z"/>
</svg>
