<?xml version="1.0" encoding="utf-8"?>
<!-- Generator: Adobe Illustrator 19.2.1, SVG Export Plug-In . SVG Version: 6.00 Build 0)  -->
<!DOCTYPE svg PUBLIC "-//W3C//DTD SVG 1.1//EN" "http://www.w3.org/Graphics/SVG/1.1/DTD/svg11.dtd">
<svg version="1.1" id="Layer_1" xmlns="http://www.w3.org/2000/svg" xmlns:xlink="http://www.w3.org/1999/xlink" x="0px" y="0px"
	 width="64px" height="64px" viewBox="0 0 64 64" enable-background="new 0 0 64 64" xml:space="preserve">
<path d="M62.132,27.009L54.19,25.95c-0.516-1.896-1.268-3.693-2.223-5.36l4.869-6.367c0.304-0.398,0.267-0.96-0.087-1.314
	l-5.657-5.657c-0.355-0.355-0.916-0.394-1.314-0.087l-6.367,4.869c-1.667-0.955-3.464-1.707-5.36-2.223l-1.059-7.942
	C36.925,1.371,36.501,1,36,1h-8c-0.501,0-0.925,0.371-0.991,0.868L25.95,9.81c-1.896,0.516-3.693,1.268-5.36,2.223l-6.367-4.869
	c-0.398-0.306-0.96-0.268-1.314,0.087l-5.657,5.657c-0.354,0.354-0.392,0.916-0.087,1.314l4.869,6.367
	c-0.955,1.667-1.707,3.464-2.223,5.36l-7.942,1.059C1.371,27.075,1,27.499,1,28v8c0,0.501,0.371,0.925,0.868,0.991L9.81,38.05
	c0.516,1.896,1.268,3.693,2.223,5.36l-4.869,6.367c-0.304,0.398-0.267,0.96,0.087,1.314l5.657,5.657
	c0.194,0.194,0.45,0.293,0.708,0.293c0.213,0,0.427-0.067,0.607-0.206l6.367-4.869c1.667,0.955,3.464,1.707,5.36,2.223l1.059,7.942
	C27.075,62.629,27.499,63,28,63h8c0.501,0,0.925-0.371,0.991-0.868l1.059-7.942c1.896-0.516,3.693-1.268,5.36-2.223l6.367,4.869
	c0.18,0.139,0.394,0.206,0.607,0.206c0.258,0,0.514-0.099,0.708-0.293l5.657-5.657c0.354-0.354,0.392-0.916,0.087-1.314
	l-4.869-6.367c0.955-1.667,1.707-3.464,2.223-5.36l7.942-1.059C62.629,36.925,63,36.501,63,36v-8
	C63,27.499,62.629,27.075,62.132,27.009z M32,41c-4.971,0-9-4.029-9-9c0-4.971,4.029-9,9-9c4.971,0,9,4.029,9,9
	C41,36.971,36.971,41,32,41z"/>
</svg>
