<?xml version="1.0" encoding="utf-8"?>
<!-- Generator: Adobe Illustrator 19.2.1, SVG Export Plug-In . SVG Version: 6.00 Build 0)  -->
<!DOCTYPE svg PUBLIC "-//W3C//DTD SVG 1.1//EN" "http://www.w3.org/Graphics/SVG/1.1/DTD/svg11.dtd">
<svg version="1.1" id="Layer_1" xmlns="http://www.w3.org/2000/svg" xmlns:xlink="http://www.w3.org/1999/xlink" x="0px" y="0px"
	 width="64px" height="64px" viewBox="0 0 64 64" enable-background="new 0 0 64 64" xml:space="preserve">
<path d="M62,23h-5v18h5c0.552,0,1-0.448,1-1V24C63,23.448,62.552,23,62,23z"/>
<path d="M53,15H3c-1.105,0-2,0.895-2,2v30c0,1.105,0.895,2,2,2h50c1.105,0,2-0.895,2-2V17C55,15.895,54.105,15,53,15z
	 M41.924,34.381c-0.18,0.437-0.643,0.692-1.103,0.603L31,33.198V41c0,0.371-0.206,0.712-0.535,0.885C30.319,41.962,30.16,42,30,42
	c-0.199,0-0.396-0.06-0.566-0.176l-16-11c-0.389-0.268-0.538-0.77-0.358-1.205c0.179-0.438,0.64-0.694,1.103-0.603L24,30.802V23
	c0-0.371,0.206-0.712,0.535-0.885c0.328-0.173,0.725-0.148,1.032,0.061l16,11C41.955,33.443,42.104,33.945,41.924,34.381z"/>
</svg>
