<?xml version="1.0" encoding="utf-8"?>
<!-- Generator: Adobe Illustrator 19.2.1, SVG Export Plug-In . SVG Version: 6.00 Build 0)  -->
<!DOCTYPE svg PUBLIC "-//W3C//DTD SVG 1.1//EN" "http://www.w3.org/Graphics/SVG/1.1/DTD/svg11.dtd">
<svg version="1.1" id="Layer_1" xmlns="http://www.w3.org/2000/svg" xmlns:xlink="http://www.w3.org/1999/xlink" x="0px" y="0px"
	 width="64px" height="64px" viewBox="0 0 64 64" enable-background="new 0 0 64 64" xml:space="preserve">
<path d="M32,1c-7.168,0-13,5.832-13,13v9h2v-9c0-6.065,4.935-11,11-11s11,4.935,11,11h2C45,6.832,39.168,1,32,1z"/>
<path d="M9,27v34c0,1.105,0.895,2,2,2h42c1.105,0,2-0.895,2-2V27c0-1.105-0.895-2-2-2H11C9.895,25,9,25.895,9,27z M32,35
	c3.314,0,6,2.686,6,6c0,2.972-2.163,5.433-5,5.91V53h-2v-6.09c-2.837-0.477-5-2.938-5-5.91C26,37.686,28.686,35,32,35z"/>
</svg>
