<?xml version="1.0" encoding="utf-8"?>
<!-- Generator: Adobe Illustrator 19.2.1, SVG Export Plug-In . SVG Version: 6.00 Build 0)  -->
<!DOCTYPE svg PUBLIC "-//W3C//DTD SVG 1.1//EN" "http://www.w3.org/Graphics/SVG/1.1/DTD/svg11.dtd">
<svg version="1.1" id="Layer_1" xmlns="http://www.w3.org/2000/svg" xmlns:xlink="http://www.w3.org/1999/xlink" x="0px" y="0px"
	 width="64px" height="64px" viewBox="0 0 64 64" enable-background="new 0 0 64 64" xml:space="preserve">
<path d="M1,13.637V60c0,0.553,0.447,1,1,1s1-0.447,1-1c0-3.859,6.28-7,14-7c5.323,0,9.962,1.493,12.329,3.686
	C29.968,57.278,31,56.823,31,55.952V9.26C28.343,6.651,23.25,5,17,5C7.729,5,1,8.632,1,13.637z"/>
<path d="M47,5c-6.25,0-11.343,1.651-14,4.26v46.692c0,0.871,1.032,1.326,1.671,0.734C37.038,54.493,41.677,53,47,53
	c7.72,0,14,3.141,14,7c0,0.553,0.447,1,1,1s1-0.447,1-1V13.637C63,8.632,56.271,5,47,5z"/>
</svg>
