<?xml version="1.0" encoding="utf-8"?>
<!-- Generator: Adobe Illustrator 19.2.1, SVG Export Plug-In . SVG Version: 6.00 Build 0)  -->
<!DOCTYPE svg PUBLIC "-//W3C//DTD SVG 1.1//EN" "http://www.w3.org/Graphics/SVG/1.1/DTD/svg11.dtd">
<svg version="1.1" id="Layer_1" xmlns="http://www.w3.org/2000/svg" xmlns:xlink="http://www.w3.org/1999/xlink" x="0px" y="0px"
	 width="64px" height="64px" viewBox="0 0 64 64" enable-background="new 0 0 64 64" xml:space="preserve">
<path fill="#222221" d="M2,55h27v-2H3V3h50v26h2V2c0-0.552-0.447-1-1-1H2C1.447,1,1,1.448,1,2v52C1,54.552,1.447,55,2,55z"/>
<path fill="#222221" d="M31.293,31.293c-0.268,0.268-0.361,0.664-0.241,1.023l9,27c0.133,0.4,0.504,0.674,0.926,0.683
	c0.008,0,0.015,0,0.022,0c0.413,0,0.784-0.254,0.934-0.641l4.054-10.543l10.891,10.891c0.391,0.391,1.024,0.391,1.414,0l1.414-1.414
	c0.391-0.391,0.391-1.024,0-1.414L48.816,45.988l10.543-4.055c0.394-0.152,0.65-0.534,0.641-0.957
	c-0.01-0.422-0.283-0.792-0.684-0.926l-27-9C31.956,30.93,31.561,31.025,31.293,31.293z"/>
</svg>
