<?xml version="1.0" encoding="utf-8"?>
<!-- Generator: Adobe Illustrator 19.2.1, SVG Export Plug-In . SVG Version: 6.00 Build 0)  -->
<!DOCTYPE svg PUBLIC "-//W3C//DTD SVG 1.1//EN" "http://www.w3.org/Graphics/SVG/1.1/DTD/svg11.dtd">
<svg version="1.1" id="Layer_1" xmlns="http://www.w3.org/2000/svg" xmlns:xlink="http://www.w3.org/1999/xlink" x="0px" y="0px"
	 width="64px" height="64px" viewBox="0 0 64 64" enable-background="new 0 0 64 64" xml:space="preserve">
<path fill="#222221" d="M24.586,35.172L17.414,28L26,19.414c0.781-0.781,0.781-2.047,0-2.828L13.414,4
	c-0.781-0.781-2.047-0.781-2.828,0l-9.293,9.293C1.107,13.479,1,13.734,1,13.997C0.999,26.43,5.662,37.789,13.319,46.438
	L24.586,35.172z"/>
<path fill="#222221" d="M44.586,38L36,46.586l-7.172-7.172L17.562,50.681C26.211,58.338,37.57,63.001,50.003,63
	c0.263,0,0.518-0.107,0.704-0.293L60,53.414c0.781-0.781,0.781-2.047,0-2.828L47.414,38C46.633,37.219,45.367,37.219,44.586,38z"/>
<rect x="-8.598" y="31" transform="matrix(0.7071 -0.7071 0.7071 0.7071 -13.2548 32)" fill="#222221" width="81.196" height="2"/>
</svg>
