<?xml version="1.0" encoding="utf-8"?>
<!-- Generator: Adobe Illustrator 19.2.1, SVG Export Plug-In . SVG Version: 6.00 Build 0)  -->
<!DOCTYPE svg PUBLIC "-//W3C//DTD SVG 1.1//EN" "http://www.w3.org/Graphics/SVG/1.1/DTD/svg11.dtd">
<svg version="1.1" id="Layer_1" xmlns="http://www.w3.org/2000/svg" xmlns:xlink="http://www.w3.org/1999/xlink" x="0px" y="0px"
	 width="64px" height="64px" viewBox="0 0 64 64" enable-background="new 0 0 64 64" xml:space="preserve">
<path fill="#222221" d="M23,11h38c0.552,0,1-0.448,1-1s-0.448-1-1-1H23c-0.552,0-1,0.448-1,1S22.448,11,23,11z"/>
<path fill="#222221" d="M23,27h38c0.552,0,1-0.448,1-1s-0.448-1-1-1H23c-0.552,0-1,0.448-1,1S22.448,27,23,27z"/>
<path fill="#222221" d="M23,43h38c0.552,0,1-0.448,1-1s-0.448-1-1-1H23c-0.552,0-1,0.448-1,1S22.448,43,23,43z"/>
<path fill="#222221" d="M23,59h38c0.552,0,1-0.448,1-1s-0.448-1-1-1H23c-0.552,0-1,0.448-1,1S22.448,59,23,59z"/>
<circle fill="#222221" cx="9" cy="10" r="7"/>
<circle fill="#222221" cx="9" cy="42" r="7"/>
</svg>
