<?xml version="1.0" encoding="utf-8"?>
<!-- Generator: Adobe Illustrator 19.2.1, SVG Export Plug-In . SVG Version: 6.00 Build 0)  -->
<!DOCTYPE svg PUBLIC "-//W3C//DTD SVG 1.1//EN" "http://www.w3.org/Graphics/SVG/1.1/DTD/svg11.dtd">
<svg version="1.1" id="Layer_1" xmlns="http://www.w3.org/2000/svg" xmlns:xlink="http://www.w3.org/1999/xlink" x="0px" y="0px"
	 width="64px" height="64px" viewBox="0 0 64 64" enable-background="new 0 0 64 64" xml:space="preserve">
<path d="M32,1C14.907,1,1,14.907,1,32s13.907,31,31,31s31-13.907,31-31S49.093,1,32,1z M31,12c0-0.552,0.448-1,1-1s1,0.448,1,1v24
	c0,0.552-0.448,1-1,1s-1-0.448-1-1V12z M32,51c-1.657,0-3-1.343-3-3s1.343-3,3-3s3,1.343,3,3S33.657,51,32,51z"/>
</svg>
