<?xml version="1.0" encoding="utf-8"?>
<!-- Generator: Adobe Illustrator 19.2.1, SVG Export Plug-In . SVG Version: 6.00 Build 0)  -->
<!DOCTYPE svg PUBLIC "-//W3C//DTD SVG 1.1//EN" "http://www.w3.org/Graphics/SVG/1.1/DTD/svg11.dtd">
<svg version="1.1" id="Layer_1" xmlns="http://www.w3.org/2000/svg" xmlns:xlink="http://www.w3.org/1999/xlink" x="0px" y="0px"
	 width="64px" height="64px" viewBox="0 0 64 64" enable-background="new 0 0 64 64" xml:space="preserve">
<path d="M61,1H3C1.895,1,1,1.895,1,3v58c0,1.105,0.895,2,2,2h58c1.105,0,2-0.895,2-2V3C63,1.895,62.105,1,61,1z M32,53
	c-1.657,0-3-1.343-3-3s1.343-3,3-3c1.657,0,3,1.343,3,3S33.657,53,32,53z M33,32.955V38c0,0.552-0.448,1-1,1s-1-0.448-1-1v-6
	c0-0.552,0.448-1,1-1c4.962,0,9-4.038,9-9s-4.038-9-9-9c-3.579,0-6.818,2.12-8.251,5.399c-0.221,0.506-0.812,0.735-1.317,0.516
	c-0.506-0.221-0.737-0.811-0.516-1.317C23.668,13.59,27.626,11,32,11c6.065,0,11,4.935,11,11C43,27.729,38.599,32.448,33,32.955z"/>
</svg>
