<?xml version="1.0" encoding="utf-8"?>
<!-- Generator: Adobe Illustrator 19.2.1, SVG Export Plug-In . SVG Version: 6.00 Build 0)  -->
<!DOCTYPE svg PUBLIC "-//W3C//DTD SVG 1.1//EN" "http://www.w3.org/Graphics/SVG/1.1/DTD/svg11.dtd">
<svg version="1.1" id="Layer_1" xmlns="http://www.w3.org/2000/svg" xmlns:xlink="http://www.w3.org/1999/xlink" x="0px" y="0px"
	 width="64px" height="64px" viewBox="0 0 64 64" enable-background="new 0 0 64 64" xml:space="preserve">
<path d="M58,27h-3.563c-0.58-2.622-1.596-5.082-3.031-7.335l2.515-2.515c1.954-1.954,1.954-5.116,0-7.07
	c-1.955-1.955-5.117-1.954-7.071,0l-2.514,2.514c-2.251-1.435-4.711-2.451-7.335-3.03V6c0-2.757-2.243-5-5-5s-5,2.243-5,5v3.563
	c-2.623,0.579-5.083,1.596-7.335,3.03l-2.514-2.514c-1.955-1.955-5.117-1.954-7.071,0c-1.954,1.954-1.954,5.116,0,7.07l2.515,2.515
	c-1.435,2.253-2.452,4.713-3.031,7.335H6c-2.757,0-5,2.243-5,5s2.243,5,5,5h3.563c0.58,2.622,1.596,5.082,3.031,7.335L10.08,46.85
	c-1.954,1.954-1.954,5.116,0,7.07c1.955,1.955,5.117,1.954,7.071,0l2.514-2.514c2.251,1.435,4.712,2.451,7.335,3.03V58
	c0,2.757,2.243,5,5,5s5-2.243,5-5v-3.563c2.624-0.579,5.084-1.596,7.335-3.03l2.514,2.514c1.955,1.955,5.117,1.954,7.071,0
	c1.954-1.954,1.954-5.116,0-7.07l-2.515-2.515c1.435-2.253,2.452-4.713,3.031-7.335H58c2.757,0,5-2.243,5-5S60.757,27,58,27z M32,41
	c-4.962,0-9-4.037-9-9s4.038-9,9-9s9,4.037,9,9S36.962,41,32,41z"/>
</svg>
