<?xml version="1.0" encoding="utf-8"?>
<!-- Generator: Adobe Illustrator 19.2.1, SVG Export Plug-In . SVG Version: 6.00 Build 0)  -->
<!DOCTYPE svg PUBLIC "-//W3C//DTD SVG 1.1//EN" "http://www.w3.org/Graphics/SVG/1.1/DTD/svg11.dtd">
<svg version="1.1" id="Layer_1" xmlns="http://www.w3.org/2000/svg" xmlns:xlink="http://www.w3.org/1999/xlink" x="0px" y="0px"
	 width="64px" height="64px" viewBox="0 0 64 64" enable-background="new 0 0 64 64" xml:space="preserve">
<path d="M37,46h11.594c7.53,0,14.018-5.774,14.389-13.295C63.379,24.666,56.953,18,49,18H37c-0.552,0-1,0.448-1,1v2
	c0,0.552,0.448,1,1,1h12c5.741,0,10.367,4.863,9.977,10.685C58.621,37.994,53.967,42,48.647,42H37c-0.552,0-1,0.448-1,1v2
	C36,45.552,36.448,46,37,46z"/>
<path d="M15.353,22H27c0.552,0,1-0.448,1-1v-2c0-0.552-0.448-1-1-1H15C7.047,18,0.621,24.666,1.017,32.705
	C1.388,40.226,7.876,46,15.406,46H27c0.552,0,1-0.448,1-1v-2c0-0.552-0.448-1-1-1H15c-5.741,0-10.367-4.863-9.977-10.686
	C5.379,26.006,10.033,22,15.353,22z"/>
<path d="M46,32c0-1.104-0.896-2-2-2H20c-1.104,0-2,0.896-2,2s0.896,2,2,2h24C45.104,34,46,33.104,46,32z"/>
</svg>
