<?xml version="1.0" encoding="utf-8"?>
<!-- Generator: Adobe Illustrator 19.2.1, SVG Export Plug-In . SVG Version: 6.00 Build 0)  -->
<!DOCTYPE svg PUBLIC "-//W3C//DTD SVG 1.1//EN" "http://www.w3.org/Graphics/SVG/1.1/DTD/svg11.dtd">
<svg version="1.1" id="Layer_1" xmlns="http://www.w3.org/2000/svg" xmlns:xlink="http://www.w3.org/1999/xlink" x="0px" y="0px"
	 width="64px" height="64px" viewBox="0 0 64 64" enable-background="new 0 0 64 64" xml:space="preserve">
<path d="M61,1H3C1.895,1,1,1.895,1,3v28h14.382l7.724-15.447c0.34-0.678,1.449-0.678,1.789,0L40,45.764l7.105-14.211
	C47.275,31.214,47.621,31,48,31h15V3C63,1.895,62.105,1,61,1z"/>
<path d="M40.895,48.447C40.725,48.786,40.379,49,40,49s-0.725-0.214-0.895-0.553L24,18.236l-7.105,14.211
	C16.725,32.786,16.379,33,16,33H1v28c0,1.105,0.895,2,2,2h58c1.105,0,2-0.895,2-2V33H48.618L40.895,48.447z"/>
</svg>
