<?xml version="1.0" encoding="utf-8"?>
<!-- Generator: Adobe Illustrator 19.2.1, SVG Export Plug-In . SVG Version: 6.00 Build 0)  -->
<!DOCTYPE svg PUBLIC "-//W3C//DTD SVG 1.1//EN" "http://www.w3.org/Graphics/SVG/1.1/DTD/svg11.dtd">
<svg version="1.1" id="Layer_1" xmlns="http://www.w3.org/2000/svg" xmlns:xlink="http://www.w3.org/1999/xlink" x="0px" y="0px"
	 width="64px" height="64px" viewBox="0 0 64 64" enable-background="new 0 0 64 64" xml:space="preserve">
<path d="M55.231,18.074c-0.391,0.391-1.024,0.391-1.414,0l-6.9-6.899c-0.391-0.391-0.391-1.024,0-1.414l6.892-6.892
	c-1.504-0.552-3.122-0.869-4.817-0.869c-7.732,0-14,6.268-14,14c0,1.309,0.193,2.57,0.529,3.772L7.197,42.747
	C2.26,46.548,1.582,53.738,5.721,58.395h0c4.382,4.929,12.129,4.783,16.321-0.309l23.209-28.608c1.192,0.33,2.443,0.521,3.741,0.521
	c7.732,0,14-6.268,14-14c0-1.696-0.317-3.313-0.869-4.817L55.231,18.074z M14.992,52.999c-1.654,0-3-1.346-3-3s1.346-3,3-3
	s3,1.346,3,3S16.647,52.999,14.992,52.999z"/>
<path d="M15,30c7.732,0,14-6.268,14-14S22.732,2,15,2c-1.693,0-3.309,0.316-4.811,0.866l0.001,0.002l6.889,6.889
	c0.391,0.391,0.391,1.024,0,1.414l-6.93,6.93c-0.392,0.392-1.029,0.39-1.419-0.004l-6.853-6.938C1.32,12.67,1,14.296,1,16
	C1,23.732,7.268,30,15,30z"/>
<path d="M56.803,42.747L44.898,33.09L33.288,47.4l8.669,10.686c4.192,5.092,11.94,5.238,16.321,0.309h0
	C62.418,53.738,61.74,46.548,56.803,42.747z M49.008,52.999c-1.654,0-3-1.346-3-3s1.346-3,3-3s3,1.346,3,3
	S50.662,52.999,49.008,52.999z"/>
</svg>
