<?xml version="1.0" encoding="utf-8"?>
<!-- Generator: Adobe Illustrator 19.2.1, SVG Export Plug-In . SVG Version: 6.00 Build 0)  -->
<!DOCTYPE svg PUBLIC "-//W3C//DTD SVG 1.1//EN" "http://www.w3.org/Graphics/SVG/1.1/DTD/svg11.dtd">
<svg version="1.1" id="Layer_1" xmlns="http://www.w3.org/2000/svg" xmlns:xlink="http://www.w3.org/1999/xlink" x="0px" y="0px"
	 width="64px" height="64px" viewBox="0 0 64 64" enable-background="new 0 0 64 64" xml:space="preserve">
<path d="M3.731,23.282c3.988-8.85,12.003-15.49,21.714-17.581C22.881,2.823,19.158,1,15,1C7.268,1,1,7.268,1,15
	C1,18.103,2.022,20.961,3.731,23.282z"/>
<path d="M49,1c-4.158,0-7.881,1.823-10.445,4.701c9.712,2.091,17.726,8.731,21.714,17.581C61.978,20.961,63,18.103,63,15
	C63,7.268,56.732,1,49,1z"/>
<path d="M32,9C17.088,9,5,21.088,5,36c0,6.119,2.038,11.761,5.469,16.289l-5.883,5.883c-0.391,0.391-0.391,1.024,0,1.414
	l2.828,2.828c0.391,0.391,1.024,0.391,1.414,0l5.773-5.773C19.301,60.606,25.37,63,32,63s12.699-2.394,17.398-6.359l5.773,5.773
	c0.391,0.391,1.024,0.391,1.414,0l2.828-2.828c0.391-0.391,0.391-1.024,0-1.414l-5.883-5.883C56.962,47.761,59,42.119,59,36
	C59,21.088,46.912,9,32,9z M32,40c-2.209,0-4-1.791-4-4c0-0.356,0.061-0.695,0.149-1.023l-7.563-7.563
	c-0.781-0.781-0.781-2.047,0-2.828c0.78-0.781,2.048-0.781,2.828,0l7.563,7.563c0.745-0.198,1.302-0.198,2.047,0l6.563-6.563
	c0.78-0.781,2.048-0.781,2.828,0c0.781,0.781,0.781,2.047,0,2.828l-6.563,6.563C35.939,35.305,36,35.644,36,36
	C36,38.209,34.209,40,32,40z M43.293,48.707l-7.822-7.822c0.547-0.39,1.024-0.867,1.414-1.414l7.822,7.822L43.293,48.707z"/>
</svg>
