<?xml version="1.0" encoding="utf-8"?>
<!-- Generator: Adobe Illustrator 19.2.1, SVG Export Plug-In . SVG Version: 6.00 Build 0)  -->
<!DOCTYPE svg PUBLIC "-//W3C//DTD SVG 1.1//EN" "http://www.w3.org/Graphics/SVG/1.1/DTD/svg11.dtd">
<svg version="1.1" id="Layer_1" xmlns="http://www.w3.org/2000/svg" xmlns:xlink="http://www.w3.org/1999/xlink" x="0px" y="0px"
	 width="64px" height="64px" viewBox="0 0 64 64" enable-background="new 0 0 64 64" xml:space="preserve">
<path d="M37,46c0,6.627,5.373,12,12,12s12-5.373,12-12s-5.373-12-12-12S37,39.373,37,46z M55,46c0,0.552-0.448,1-1,1H44
	c-0.552,0-1-0.448-1-1s0.448-1,1-1h10C54.552,45,55,45.448,55,46z"/>
<path d="M31.362,60.77C31.547,60.923,31.773,61,32,61s0.453-0.077,0.638-0.23c0.335-0.278,2.729-2.282,6.017-5.361
	C36.391,52.922,35,49.628,35,46c0-7.732,6.268-14,14-14c2.957,0,5.695,0.922,7.955,2.487C60.507,29.055,63,23.494,63,18.571
	C63,8.882,55.211,1,45.637,1C40.283,1,35.283,3.48,32,7.701C28.717,3.48,23.717,1,18.363,1C8.789,1,1,8.882,1,18.571
	C1,35.419,30.122,59.743,31.362,60.77z"/>
</svg>
