<?xml version="1.0" encoding="utf-8"?>
<!-- Generator: Adobe Illustrator 19.2.1, SVG Export Plug-In . SVG Version: 6.00 Build 0)  -->
<!DOCTYPE svg PUBLIC "-//W3C//DTD SVG 1.1//EN" "http://www.w3.org/Graphics/SVG/1.1/DTD/svg11.dtd">
<svg version="1.1" id="Layer_1" xmlns="http://www.w3.org/2000/svg" xmlns:xlink="http://www.w3.org/1999/xlink" x="0px" y="0px"
	 width="64px" height="64px" viewBox="0 0 64 64" enable-background="new 0 0 64 64" xml:space="preserve">
<path d="M15.443,41.899c0,0.265,0.105,0.52,0.293,0.707l5.657,5.657c0.391,0.391,1.023,0.391,1.414,0L32,39.071l9.192,9.192
	c0.195,0.195,0.451,0.293,0.707,0.293s0.512-0.098,0.707-0.293l5.657-5.657c0.188-0.188,0.293-0.442,0.293-0.707
	s-0.105-0.52-0.293-0.707L39.071,32l9.192-9.192c0.188-0.188,0.293-0.442,0.293-0.707s-0.105-0.52-0.293-0.707l-5.657-5.657
	c-0.391-0.391-1.023-0.391-1.414,0L32,24.929l-9.192-9.192c-0.391-0.391-1.023-0.391-1.414,0l-5.657,5.657
	c-0.188,0.188-0.293,0.442-0.293,0.707s0.105,0.52,0.293,0.707L24.929,32l-9.192,9.192C15.549,41.38,15.443,41.634,15.443,41.899z"
	/>
</svg>
