<?xml version="1.0" encoding="utf-8"?>
<!-- Generator: Adobe Illustrator 19.2.1, SVG Export Plug-In . SVG Version: 6.00 Build 0)  -->
<!DOCTYPE svg PUBLIC "-//W3C//DTD SVG 1.1//EN" "http://www.w3.org/Graphics/SVG/1.1/DTD/svg11.dtd">
<svg version="1.1" id="Layer_1" xmlns="http://www.w3.org/2000/svg" xmlns:xlink="http://www.w3.org/1999/xlink" x="0px" y="0px"
	 width="64px" height="64px" viewBox="0 0 64 64" enable-background="new 0 0 64 64" xml:space="preserve">
<path d="M32,1C14.906,1,1,14.907,1,32s13.906,31,31,31s31-13.907,31-31S49.094,1,32,1z M11,32c0-11.58,9.421-21,21-21
	c3.858,0,7.594,1.052,10.877,3.052L14.052,42.876C12.052,39.594,11,35.858,11,32z M32,53c-3.858,0-7.594-1.052-10.877-3.052
	l28.825-28.825C51.948,24.406,53,28.142,53,32C53,43.58,43.579,53,32,53z"/>
</svg>
