<?xml version="1.0" encoding="utf-8"?>
<!-- Generator: Adobe Illustrator 19.2.1, SVG Export Plug-In . SVG Version: 6.00 Build 0)  -->
<!DOCTYPE svg PUBLIC "-//W3C//DTD SVG 1.1//EN" "http://www.w3.org/Graphics/SVG/1.1/DTD/svg11.dtd">
<svg version="1.1" id="Layer_1" xmlns="http://www.w3.org/2000/svg" xmlns:xlink="http://www.w3.org/1999/xlink" x="0px" y="0px"
	 width="64px" height="64px" viewBox="0 0 64 64" enable-background="new 0 0 64 64" xml:space="preserve">
<path d="M32,23H16c-0.552,0-1,0.448-1,1s0.448,1,1,1h16c0.552,0,1-0.448,1-1S32.552,23,32,23z"/>
<path d="M47.621,41.964c-0.391-0.391-1.024-0.391-1.414,0l-1.061,1.061l-3.868-3.868C44.836,35.106,47,29.802,47,24
	C47,11.318,36.682,1,24,1S1,11.318,1,24s10.318,23,23,23c5.802,0,11.106-2.164,15.157-5.722l3.868,3.868l-1.061,1.061
	c-0.391,0.391-0.391,1.024,0,1.414L57.05,62.707c0.391,0.391,1.024,0.391,1.414,0l4.243-4.243c0.391-0.391,0.391-1.024,0-1.414
	L47.621,41.964z M24,45C12.421,45,3,35.579,3,24S12.421,3,24,3c11.579,0,21,9.421,21,21S35.579,45,24,45z"/>
</svg>
