<?xml version="1.0" encoding="utf-8"?>
<!-- Generator: Adobe Illustrator 19.2.1, SVG Export Plug-In . SVG Version: 6.00 Build 0)  -->
<!DOCTYPE svg PUBLIC "-//W3C//DTD SVG 1.1//EN" "http://www.w3.org/Graphics/SVG/1.1/DTD/svg11.dtd">
<svg version="1.1" id="Layer_1" xmlns="http://www.w3.org/2000/svg" xmlns:xlink="http://www.w3.org/1999/xlink" x="0px" y="0px"
	 width="64px" height="64px" viewBox="0 0 64 64" enable-background="new 0 0 64 64" xml:space="preserve">
<path d="M32,63c17.093,0,31-13.907,31-31S49.093,1,32,1S1,14.907,1,32S14.907,63,32,63z M32,53c-1.657,0-3-1.343-3-3s1.343-3,3-3
	c1.657,0,3,1.343,3,3S33.657,53,32,53z M21.916,17.599C23.668,13.59,27.626,11,32,11c6.065,0,11,4.935,11,11
	c0,5.729-4.401,10.448-10,10.955V38c0,0.552-0.448,1-1,1s-1-0.448-1-1v-6c0-0.552,0.448-1,1-1c4.962,0,9-4.038,9-9s-4.038-9-9-9
	c-3.579,0-6.818,2.12-8.251,5.399c-0.222,0.506-0.812,0.735-1.317,0.516C21.925,18.694,21.694,18.104,21.916,17.599z"/>
</svg>
