<?xml version="1.0" encoding="utf-8"?>
<!-- Generator: Adobe Illustrator 19.2.1, SVG Export Plug-In . SVG Version: 6.00 Build 0)  -->
<!DOCTYPE svg PUBLIC "-//W3C//DTD SVG 1.1//EN" "http://www.w3.org/Graphics/SVG/1.1/DTD/svg11.dtd">
<svg version="1.1" id="Layer_1" xmlns="http://www.w3.org/2000/svg" xmlns:xlink="http://www.w3.org/1999/xlink" x="0px" y="0px"
	 width="64px" height="64px" viewBox="0 0 64 64" enable-background="new 0 0 64 64" xml:space="preserve">
<path fill="#222221" d="M61,7H3C1.895,7,1,7.895,1,9v46c0,1.105,0.895,2,2,2h58c1.105,0,2-0.895,2-2V9C63,7.895,62.105,7,61,7z
	 M57,26c0,0.552-0.448,1-1,1H8c-0.552,0-1-0.448-1-1V14c0-0.552,0.448-1,1-1h48c0.552,0,1,0.448,1,1V26z"/>
</svg>
