<?xml version="1.0" encoding="utf-8"?>
<!-- Generator: Adobe Illustrator 19.2.1, SVG Export Plug-In . SVG Version: 6.00 Build 0)  -->
<!DOCTYPE svg PUBLIC "-//W3C//DTD SVG 1.1//EN" "http://www.w3.org/Graphics/SVG/1.1/DTD/svg11.dtd">
<svg version="1.1" id="Layer_1" xmlns="http://www.w3.org/2000/svg" xmlns:xlink="http://www.w3.org/1999/xlink" x="0px" y="0px"
	 width="64px" height="64px" viewBox="0 0 64 64" enable-background="new 0 0 64 64" xml:space="preserve">
<path d="M27,4c0-0.553-0.447-1-1-1H4C3.447,3,3,3.447,3,4v22c0,0.553,0.447,1,1,1h22c0.553,0,1-0.447,1-1V4z"/>
<path d="M61,4c0-0.553-0.447-1-1-1H38c-0.553,0-1,0.447-1,1v22c0,0.553,0.447,1,1,1h22c0.553,0,1-0.447,1-1V4z"/>
<path d="M26,37H4c-0.553,0-1,0.447-1,1v22c0,0.553,0.447,1,1,1h22c0.553,0,1-0.447,1-1V38C27,37.447,26.553,37,26,37z"/>
<path d="M60,37H38c-0.553,0-1,0.447-1,1v22c0,0.553,0.447,1,1,1h22c0.553,0,1-0.447,1-1V38C61,37.447,60.553,37,60,37z"/>
</svg>
