<?xml version="1.0" encoding="utf-8"?>
<!-- Generator: Adobe Illustrator 19.2.1, SVG Export Plug-In . SVG Version: 6.00 Build 0)  -->
<!DOCTYPE svg PUBLIC "-//W3C//DTD SVG 1.1//EN" "http://www.w3.org/Graphics/SVG/1.1/DTD/svg11.dtd">
<svg version="1.1" id="Layer_1" xmlns="http://www.w3.org/2000/svg" xmlns:xlink="http://www.w3.org/1999/xlink" x="0px" y="0px"
	 width="64px" height="64px" viewBox="0 0 64 64" enable-background="new 0 0 64 64" xml:space="preserve">
<path d="M27,2C13.215,2,2,13.215,2,27s11.215,25,25,25s25-11.215,25-25S40.785,2,27,2z M27,50C14.318,50,4,39.682,4,27
	C4,14.318,14.318,4,27,4s23,10.318,23,23C50,39.682,39.682,50,27,50z"/>
<path d="M61.535,57.293L48.091,43.848c-1.253,1.566-2.676,2.989-4.242,4.242l13.444,13.445c0.391,0.391,1.024,0.391,1.414,0
	l2.828-2.828C61.926,58.317,61.926,57.683,61.535,57.293z"/>
</svg>
