<?xml version="1.0" encoding="utf-8"?>
<!-- Generator: Adobe Illustrator 19.2.1, SVG Export Plug-In . SVG Version: 6.00 Build 0)  -->
<!DOCTYPE svg PUBLIC "-//W3C//DTD SVG 1.1//EN" "http://www.w3.org/Graphics/SVG/1.1/DTD/svg11.dtd">
<svg version="1.1" id="Layer_1" xmlns="http://www.w3.org/2000/svg" xmlns:xlink="http://www.w3.org/1999/xlink" x="0px" y="0px"
	 width="64px" height="64px" viewBox="0 0 64 64" enable-background="new 0 0 64 64" xml:space="preserve">
<path fill="#222221" d="M16.134,58.5C16.312,58.809,16.643,59,17,59h30c0.357,0,0.688-0.191,0.866-0.5l15-26
	c0.179-0.309,0.179-0.69,0-0.999l-15-26C47.688,5.191,47.357,5,47,5H17c-0.357,0-0.688,0.191-0.866,0.5l-15,26
	c-0.179,0.309-0.179,0.69,0,0.999L16.134,58.5z M32,21c6.065,0,11,4.935,11,11s-4.935,11-11,11s-11-4.935-11-11S25.935,21,32,21z"/>
</svg>
