<?xml version="1.0" encoding="utf-8"?>
<!-- Generator: Adobe Illustrator 19.2.1, SVG Export Plug-In . SVG Version: 6.00 Build 0)  -->
<!DOCTYPE svg PUBLIC "-//W3C//DTD SVG 1.1//EN" "http://www.w3.org/Graphics/SVG/1.1/DTD/svg11.dtd">
<svg version="1.1" id="Layer_1" xmlns="http://www.w3.org/2000/svg" xmlns:xlink="http://www.w3.org/1999/xlink" x="0px" y="0px"
	 width="64px" height="64px" viewBox="0 0 64 64" enable-background="new 0 0 64 64" xml:space="preserve">
<path fill="#222221" d="M62,54c0-0.552-0.448-1-1-1H28c-0.552,0-1,0.448-1,1s0.448,1,1,1h33C61.552,55,62,54.552,62,54z"/>
<path fill="#222221" d="M28,11h33c0.552,0,1-0.448,1-1s-0.448-1-1-1H28c-0.552,0-1,0.448-1,1S27.448,11,28,11z"/>
<path fill="#222221" d="M16.349,44.759C16.534,44.917,16.766,45,17,45c0.142,0,0.284-0.03,0.418-0.091
	C17.772,44.745,18,44.391,18,44V34h43c0.552,0,1-0.448,1-1v-2c0-0.552-0.448-1-1-1H18V20c0-0.391-0.228-0.745-0.582-0.909
	c-0.355-0.162-0.772-0.104-1.069,0.149l-14,12C2.127,31.431,2,31.708,2,32s0.127,0.569,0.349,0.759L16.349,44.759z"/>
</svg>
