<?xml version="1.0" encoding="utf-8"?>
<!-- Generator: Adobe Illustrator 19.1.0, SVG Export Plug-In . SVG Version: 6.00 Build 0)  -->
<!DOCTYPE svg PUBLIC "-//W3C//DTD SVG 1.1//EN" "http://www.w3.org/Graphics/SVG/1.1/DTD/svg11.dtd">
<svg version="1.1" id="Layer_1" xmlns="http://www.w3.org/2000/svg" xmlns:xlink="http://www.w3.org/1999/xlink" x="0px" y="0px"
	 width="64px" height="64px" viewBox="0 0 64 64" enable-background="new 0 0 64 64" xml:space="preserve">
<path fill-rule="evenodd" clip-rule="evenodd" fill="#444444" d="M8.00043,0C3.58191,0,0,3.58382,0,8.00044v47.99912
	C0,60.41808,3.58382,64,8.00043,64h47.99912C60.41808,64,64,60.41618,64,55.99957V8.00044C64,3.58192,60.41618,0,55.99955,0H8.00043
	L8.00043,0z M36,12v20c0,2.20914,1.79086,4,4,4h12c2.20914,0,4-1.79086,4-4V12c0-2.20914-1.79086-4-4-4H40
	C37.79086,8,36,9.79086,36,12z M8,12v36c0,2.20914,1.79086,4,4,4h12c2.20914,0,4-1.79086,4-4V12c0-2.20914-1.79086-4-4-4H12
	C9.79086,8,8,9.79086,8,12z"/>
</svg>
