<?xml version="1.0" encoding="utf-8"?>
<!-- Generator: Adobe Illustrator 19.1.0, SVG Export Plug-In . SVG Version: 6.00 Build 0)  -->
<!DOCTYPE svg PUBLIC "-//W3C//DTD SVG 1.1//EN" "http://www.w3.org/Graphics/SVG/1.1/DTD/svg11.dtd">
<svg version="1.1" id="Layer_1" xmlns="http://www.w3.org/2000/svg" xmlns:xlink="http://www.w3.org/1999/xlink" x="0px" y="0px"
	 width="64px" height="64px" viewBox="0 0 64 64" enable-background="new 0 0 64 64" xml:space="preserve">
<path fill="#444444" d="M60.05375,31.81666c-1.64868,0.38004-3.24341,0.54774-4.67896,0.54774
	c-8.07492,0-14.29192-5.63955-14.29192-15.44543c0-4.8063,1.8583-7.30581,4.48602-7.30581
	c2.50001,0,4.16653,2.24302,4.16653,6.79337c0,2.58725-0.69293,5.42266-1.20457,7.10016c0,0,2.48835,4.34082,9.29269,3.00863
	c1.44487-3.20759,2.2302-7.3617,2.2302-11.0057C60.05375,5.70371,55.05453,0,45.88954,0
	C36.46913,0,30.9572,7.24213,30.9572,16.79154c0,9.46001,4.42226,17.58023,11.71457,21.28016
	c-3.06639,6.13392-6.96816,11.53706-11.03737,15.60809c-7.38295-8.92487-14.05723-20.8313-16.79597-44.06664H3.94627
	c5.0323,38.69746,20.0292,51.01928,23.99445,53.38535c2.2431,1.34587,4.17429,1.28183,6.22525,0.1277
	c3.21971-1.83073,12.887-11.4963,18.24531-22.8181c2.24922-0.0062,4.95147-0.26435,7.64247-0.87247V31.81666z"/>
</svg>
