<?xml version="1.0" encoding="utf-8"?>
<!-- Generator: Adobe Illustrator 19.1.0, SVG Export Plug-In . SVG Version: 6.00 Build 0)  -->
<!DOCTYPE svg PUBLIC "-//W3C//DTD SVG 1.1//EN" "http://www.w3.org/Graphics/SVG/1.1/DTD/svg11.dtd">
<svg version="1.1" id="Layer_1" xmlns="http://www.w3.org/2000/svg" xmlns:xlink="http://www.w3.org/1999/xlink" x="0px" y="0px"
	 width="64px" height="64px" viewBox="0 0 64 64" enable-background="new 0 0 64 64" xml:space="preserve">
<path fill="#444444" d="M9.37617,30.81116c-1.01575,1.66639-1.44444,6.9118-1.09333,10.39495
	c0.12427,1.14992,0.32832,2.10618,0.62185,2.67874c0.4058,0.7907,1.08983,1.26169,1.87014,1.28858
	c0.49878,0.02799,0.8094-0.06068,10.20069-3.15102c0,0,4.17477-1.35966,4.19227-1.36897
	c1.04034-0.26823,1.74077-1.24779,1.81105-2.50018c0.06598-1.28039-0.58256-2.41511-1.6479-2.82211
	c0,0-2.94178-1.2279-2.94917-1.2279c-10.09182-4.25775-10.54391-4.42561-11.05458-4.43251
	C10.55088,29.64045,9.85435,30.04155,9.37617,30.81116z"/>
<path fill="#444444" d="M31.95372,62.53856c0.16306-0.48278,0.18246-0.8163,0.20915-10.90942c0,0,0.02399-4.4593,0.02689-4.50589
	c0.06549-1.09043-0.62185-2.08389-1.75847-2.53408c-1.16561-0.45829-2.4202-0.17376-3.12363,0.72532
	c0,0-2.05709,2.50029-2.06499,2.50029c-7.07436,8.49421-7.36559,8.88602-7.53835,9.38979
	c-0.10488,0.29963-0.14936,0.61105-0.11117,0.92697c0.04229,0.44779,0.23944,0.89458,0.57116,1.30738
	c1.6377,1.99631,9.50136,4.95498,12.01165,4.51759C31.05034,63.79215,31.68188,63.29067,31.95372,62.53856z"/>
<path fill="#444444" d="M47.9006,59.02612c2.37002-0.96676,7.54494-7.6967,7.90826-10.28547
	c0.12407-0.90138-0.15117-1.67809-0.75761-2.17257c-0.3973-0.30542-0.70403-0.42559-10.08792-3.57652
	c0,0-4.11699-1.39126-4.17057-1.41805c-0.99416-0.3942-2.13408-0.03039-2.89899,0.93887
	c-0.7911,0.98996-0.91428,2.29134-0.28053,3.28269l1.65819,2.75672c5.57283,9.25792,5.99693,9.91226,6.39933,10.23288
	C46.29039,59.28386,47.0791,59.36654,47.9006,59.02612L47.9006,59.02612z"/>
<path fill="#444444" d="M43.05449,35.19708c10.66687-2.64135,11.07777-2.78362,11.49917-3.06585
	c0.64574-0.44309,0.96946-1.18831,0.91427-2.09679c0-0.03029,0.0046-0.05709,0-0.09078
	c-0.27363-2.67754-4.8661-9.64763-7.12614-10.77765c-0.7998-0.3942-1.60291-0.36731-2.26355,0.08738
	c-0.4126,0.27653-0.71692,0.68933-6.42722,8.67857c0,0-2.58207,3.59761-2.61346,3.63141
	c-0.68113,0.84419-0.68803,2.06059-0.02509,3.09954c0.68743,1.07523,1.85244,1.6011,2.91888,1.29788
	c0,0-0.04439,0.07708-0.05629,0.09228C40.40004,35.84772,41.34161,35.61338,43.05449,35.19708z"/>
<path fill="#444444" d="M32.34242,26.1874L32.34242,26.1874c-0.18235-4.32294-1.45224-23.5784-1.60221-24.47158
	c-0.21885-0.807-0.8333-1.38416-1.72368-1.614c-2.71953-0.69153-13.12587,2.29274-15.0571,4.32874
	c-0.61785,0.66014-0.84819,1.47644-0.66284,2.19466c0.30143,0.64034,13.19935,21.39194,13.19935,21.39194
	c1.90783,3.16132,3.46225,2.67154,3.97002,2.50938C30.97336,30.36577,32.51858,29.87589,32.34242,26.1874z"/>
</svg>
