<?xml version="1.0" encoding="utf-8"?>
<!-- Generator: Adobe Illustrator 19.1.0, SVG Export Plug-In . SVG Version: 6.00 Build 0)  -->
<!DOCTYPE svg PUBLIC "-//W3C//DTD SVG 1.1//EN" "http://www.w3.org/Graphics/SVG/1.1/DTD/svg11.dtd">
<svg version="1.1" id="Layer_1" xmlns="http://www.w3.org/2000/svg" xmlns:xlink="http://www.w3.org/1999/xlink" x="0px" y="0px"
	 width="64px" height="64px" viewBox="0 0 64 64" enable-background="new 0 0 64 64" xml:space="preserve">
<path fill="#444444" d="M56,0H8C3.58171,0,0,3.58171,0,8v48c0,4.41829,3.58171,8,8,8h48c4.41829,0,8-3.58171,8-8V8
	C64,3.58171,60.41829,0,56,0z M40.30908,21.31201l-3.01221,0.0013c-2.36198,0-2.81934,1.1224-2.81934,2.76937v3.632h5.63314
	l-0.7334,5.68864h-4.89974V48h-5.87451V33.40332h-4.91211v-5.68864h4.91211v-4.19531C28.60303,18.65088,31.57666,16,35.9196,16
	c2.0804,0,3.86832,0.15479,4.38948,0.22412V21.31201z"/>
</svg>
