<?xml version="1.0" encoding="utf-8"?>
<!-- Generator: Adobe Illustrator 19.1.0, SVG Export Plug-In . SVG Version: 6.00 Build 0)  -->
<!DOCTYPE svg PUBLIC "-//W3C//DTD SVG 1.1//EN" "http://www.w3.org/Graphics/SVG/1.1/DTD/svg11.dtd">
<svg version="1.1" id="Layer_1" xmlns="http://www.w3.org/2000/svg" xmlns:xlink="http://www.w3.org/1999/xlink" x="0px" y="0px"
	 width="64px" height="64px" viewBox="0 0 64 64" enable-background="new 0 0 64 64" xml:space="preserve">
<path fill="#444444" d="M32.07194,18.67806c-7.27214,0-13.18636,5.91195-13.18929,13.17871
	c-0.00098,2.49007,0.69613,4.91553,2.01579,7.01383l0.31348,0.4987l-1.33187,4.86344l4.98975-1.30859l0.48145,0.28564
	c2.02409,1.20085,4.3444,1.83627,6.70996,1.83708h0.00553c7.26644,0,13.18066-5.91227,13.18359-13.17953
	c0.0013-3.52165-1.36865-6.83301-3.85775-9.32405C38.90348,20.05208,35.59326,18.67936,32.07194,18.67806z M39.82666,37.52295
	c-0.3304,0.92546-1.91374,1.77034-2.67513,1.88411c-0.68295,0.10189-1.54688,0.14453-2.49642-0.15706
	c-0.57552-0.18262-1.3138-0.42643-2.25944-0.83464c-3.97575-1.71614-6.57227-5.7181-6.77035-5.98258
	c-0.19824-0.26449-1.61833-2.14844-1.61833-4.09863c0-1.95003,1.02376-2.90869,1.38704-3.30534
	c0.36328-0.39648,0.79264-0.49577,1.0568-0.49577c0.26432,0,0.52881,0.00244,0.7596,0.014
	c0.24333,0.01204,0.57015-0.09245,0.89176,0.68018c0.33024,0.79329,1.12288,2.74349,1.22201,2.94173s0.1652,0.42969,0.03304,0.69417
	c-0.13216,0.26432-0.19824,0.42969-0.39632,0.66097c-0.19824,0.23145-0.41618,0.5166-0.59456,0.69417
	c-0.1984,0.19743-0.40495,0.41195-0.17366,0.80859c0.23112,0.39665,1.02653,1.69417,2.20475,2.74479
	c1.51383,1.34977,2.79085,1.76823,3.18718,1.96647c0.39632,0.19841,0.6276,0.1652,0.85872-0.09912
	c0.23112-0.26448,0.99072-1.1569,1.25488-1.55355c0.26432-0.39665,0.52848-0.33057,0.89177-0.19824
	c0.36328,0.13216,2.31185,1.09066,2.70817,1.28906c0.39632,0.19824,0.66048,0.29736,0.75961,0.46273
	C40.1569,35.8042,40.1569,36.59749,39.82666,37.52295z"/>
<path fill="#444444" d="M32,0C14.32682,0,0,14.32682,0,32c0,17.67302,14.32682,32,32,32s32-14.32698,32-32
	C64,14.32682,49.67318,0,32,0z M32.06673,47.72493h-0.00651c-2.65479-0.00098-5.26319-0.66666-7.58008-1.93001L16.07162,48
	l2.25032-8.21696c-1.38802-2.40462-2.11849-5.13265-2.11735-7.92741C16.20817,23.11279,23.32373,16,32.06657,16
	c4.24316,0.00163,8.22575,1.65316,11.22038,4.65023c2.99479,2.99723,4.64307,6.98112,4.64144,11.2181
	C47.9248,40.61116,40.80859,47.72493,32.06673,47.72493z"/>
</svg>
