<?xml version="1.0" encoding="utf-8"?>
<!-- Generator: Adobe Illustrator 19.2.1, SVG Export Plug-In . SVG Version: 6.00 Build 0)  -->
<!DOCTYPE svg PUBLIC "-//W3C//DTD SVG 1.1//EN" "http://www.w3.org/Graphics/SVG/1.1/DTD/svg11.dtd">
<svg version="1.1" id="Layer_1" xmlns="http://www.w3.org/2000/svg" xmlns:xlink="http://www.w3.org/1999/xlink" x="0px" y="0px"
	 width="64px" height="64px" viewBox="0 0 64 64" enable-background="new 0 0 64 64" xml:space="preserve">
<path d="M43.276,20.724c-1.3-1.3-2.99-1.665-4.811-1.748c-1.687-0.077-2.193-0.093-6.465-0.093s-4.778,0.016-6.465,0.093
	c-1.821,0.083-3.511,0.448-4.811,1.748c-1.3,1.3-1.665,2.99-1.748,4.811c-0.077,1.687-0.093,2.193-0.093,6.465
	s0.016,4.778,0.093,6.465c0.083,1.821,0.448,3.511,1.748,4.811c1.3,1.3,2.99,1.665,4.811,1.748c1.687,0.077,2.193,0.093,6.465,0.093
	s4.778-0.016,6.465-0.093c1.821-0.083,3.511-0.448,4.811-1.748s1.665-2.99,1.748-4.811c0.077-1.687,0.093-2.193,0.093-6.465
	s-0.016-4.778-0.093-6.465C44.941,23.714,44.576,22.024,43.276,20.724z M32,40.216c-4.538,0-8.216-3.678-8.216-8.216
	s3.678-8.216,8.216-8.216s8.216,3.678,8.216,8.216S36.538,40.216,32,40.216z M40.541,25.379c-1.06,0-1.92-0.86-1.92-1.92
	c0-1.06,0.86-1.92,1.92-1.92c1.06,0,1.92,0.86,1.92,1.92C42.461,24.52,41.601,25.379,40.541,25.379z"/>
<path d="M56,0H8C3.582,0,0,3.582,0,8v48c0,4.418,3.582,8,8,8h48c4.418,0,8-3.582,8-8V8C64,3.582,60.418,0,56,0z M47.904,38.597
	c-0.119,2.601-0.756,4.885-2.589,6.718c-1.834,1.834-4.118,2.471-6.718,2.589C36.89,47.982,36.345,48,32,48s-4.89-0.018-6.597-0.096
	c-2.601-0.119-4.885-0.756-6.718-2.589c-1.834-1.834-2.471-4.118-2.589-6.718C16.018,36.89,16,36.345,16,32s0.018-4.89,0.096-6.597
	c0.119-2.601,0.756-4.885,2.589-6.718c1.834-1.834,4.118-2.471,6.718-2.589C27.11,16.018,27.655,16,32,16s4.89,0.018,6.597,0.096
	c2.601,0.119,4.885,0.756,6.718,2.589c1.834,1.834,2.471,4.118,2.589,6.718C47.982,27.11,48,27.655,48,32
	S47.982,36.89,47.904,38.597z"/>
<circle cx="32" cy="32" r="5.333"/>
</svg>
