<?xml version="1.0" encoding="utf-8"?>
<!-- Generator: Adobe Illustrator 19.1.0, SVG Export Plug-In . SVG Version: 6.00 Build 0)  -->
<!DOCTYPE svg PUBLIC "-//W3C//DTD SVG 1.1//EN" "http://www.w3.org/Graphics/SVG/1.1/DTD/svg11.dtd">
<svg version="1.1" id="Layer_1" xmlns="http://www.w3.org/2000/svg" xmlns:xlink="http://www.w3.org/1999/xlink" x="0px" y="0px"
	 width="64px" height="64px" viewBox="0 0 64 64" enable-background="new 0 0 64 64" xml:space="preserve">
<path fill="#444444" d="M64,31.42139c0-4.24105-3.45036-7.69141-7.69124-7.69141c-1.83594,0-3.52246,0.64762-4.84587,1.72542
	c-4.69108-2.94792-10.64307-4.72314-17.02295-5.09993l3.32845-10.521l9.14535,2.15267
	c0.23991,3.33024,3.02409,5.96696,6.41439,5.96696c3.5472,0,6.43311-2.88591,6.43311-6.43311
	c0-3.54736-2.88591-6.43327-6.43311-6.43327c-2.48063,0-4.63639,1.41227-5.70931,3.47412L36.99121,6.06039
	c-0.89014-0.20964-1.79102,0.30241-2.06689,1.17415l-4.13119,13.05876c-6.87435,0.16895-13.33626,1.9502-18.37077,5.0708
	c-1.3055-1.02262-2.94775-1.63411-4.73096-1.63411C3.45036,23.72998,0,27.18034,0,31.42139
	c0,2.6224,1.32015,4.94076,3.33008,6.32926c-0.0835,0.60889-0.12728,1.22412-0.12728,1.84473
	c0,5.30322,3.08154,10.23486,8.67708,13.88672c5.36523,3.50163,12.46452,5.43001,19.99023,5.43001
	c7.52604,0,14.62532-1.92838,19.9904-5.43001c5.59554-3.65186,8.67725-8.5835,8.67725-13.88672
	c0-0.56624-0.03727-1.12809-0.10693-1.68489C62.57454,36.54411,64,34.14665,64,31.42139z M53.32812,8.5835
	c1.61963,0,2.93734,1.31771,2.93734,2.9375c0,1.61963-1.31771,2.9375-2.93734,2.9375s-2.93734-1.31787-2.93734-2.9375
	C50.39079,9.90121,51.7085,8.5835,53.32812,8.5835z M18.14811,36.18066c0-2.39111,2.00602-4.39697,4.39697-4.39697
	c2.39111,0,4.33154,2.00586,4.33154,4.39697s-1.94043,4.33138-4.33154,4.33138
	C20.15413,40.51205,18.14811,38.57178,18.14811,36.18066z M42.53564,48.92009c-2.22754,2.22542-5.66309,3.30729-10.50261,3.30729
	c-0.01155,0-0.02262-0.00146-0.03418-0.00163c-0.01139,0.00016-0.02246,0.00163-0.03402,0.00163
	c-4.84033,0-8.27523-1.08203-10.50098-3.30795c-0.68262-0.68245-0.68262-1.78922,0-2.47184
	c0.68262-0.68229,1.78922-0.68246,2.47184,0.00016c1.53679,1.53679,4.16325,2.28386,8.02913,2.28386
	c0.01156,0,0.02262,0.00163,0.03402,0.00179c0.01156-0.00016,0.02262-0.00179,0.03418-0.00179
	c3.86589,0,6.49316-0.74723,8.0319-2.2845c0.68294-0.68229,1.78955-0.68164,2.47184,0.00114
	C43.21907,47.13119,43.21859,48.23779,42.53564,48.92009z M41.52034,40.51205c-2.39225,0-4.40234-1.93913-4.40234-4.33138
	c0-2.39225,2.01009-4.39697,4.40234-4.39697c2.39242,0,4.33154,2.00472,4.33154,4.39697
	C45.85189,38.57292,43.91276,40.51205,41.52034,40.51205z"/>
</svg>
