<?xml version="1.0" encoding="utf-8"?>
<!-- Generator: Adobe Illustrator 19.1.0, SVG Export Plug-In . SVG Version: 6.00 Build 0)  -->
<!DOCTYPE svg PUBLIC "-//W3C//DTD SVG 1.1//EN" "http://www.w3.org/Graphics/SVG/1.1/DTD/svg11.dtd">
<svg version="1.1" id="Layer_1" xmlns="http://www.w3.org/2000/svg" xmlns:xlink="http://www.w3.org/1999/xlink" x="0px" y="0px"
	 width="64px" height="64px" viewBox="0 0 64 64" enable-background="new 0 0 64 64" xml:space="preserve">
<path fill="#444444" d="M56,0H8C3.58171,0,0,3.58171,0,8v48c0,4.41829,3.58171,8,8,8h48c4.41829,0,8-3.58171,8-8V8
	C64,3.58171,60.41829,0,56,0z M23.16406,47.97087h-6.6377V26.63509h6.6377V47.97087z M19.84701,23.72005
	c-2.12972,0-3.84701-1.72282-3.84701-3.8457c0-2.1224,1.71729-3.84521,3.84701-3.84521c2.12126,0,3.84342,1.72282,3.84342,3.84521
	C23.69043,21.99723,21.96826,23.72005,19.84701,23.72005z M48,47.97087h-6.63054V37.59521
	c0-2.47412-0.04248-5.65706-3.44547-5.65706c-3.45052,0-3.97689,2.69661-3.97689,5.47998v10.55273h-6.62321V26.63509h6.35645
	v2.91683h0.09098c0.88412-1.67741,3.04769-3.44629,6.27377-3.44629C46.75928,26.10563,48,30.52344,48,36.2697V47.97087z"/>
</svg>
