<?xml version="1.0" encoding="utf-8"?>
<!-- Generator: Adobe Illustrator 19.1.0, SVG Export Plug-In . SVG Version: 6.00 Build 0)  -->
<!DOCTYPE svg PUBLIC "-//W3C//DTD SVG 1.1//EN" "http://www.w3.org/Graphics/SVG/1.1/DTD/svg11.dtd">
<svg version="1.1" id="Layer_1" xmlns="http://www.w3.org/2000/svg" xmlns:xlink="http://www.w3.org/1999/xlink" x="0px" y="0px"
	 width="64px" height="64px" viewBox="0 0 64 64" enable-background="new 0 0 64 64" xml:space="preserve">
<path fill="#444444" d="M51.99352,59.63053c-0.41396-1.65838-1.44505-4.58722-2.29139-6.50781
	c-1.6533-3.75167-3.78532-10.83789-6.0183-19.99961c-0.7657-3.1428-1.61902-6.13131-1.8952-6.64115
	c-0.71363-1.31616-1.13839,2.84757-1.5187,14.89496c-0.1765,5.5872-0.7003,11.44422-1.16315,13.01562l-0.84253,2.85709
	c-7.63429,0.70647-4.62986,0.42861-12.54198,1.15998c-2.51063-3.14877-10.9528-16.55904-10.9528-16.55904
	c-0.00464,0.00461,1.44715,12.18268,1.17902,13.20673c-0.43428,1.65902-6.42019,4.01135-9.95219,3.91167
	c-2.93328-0.08381-3.55739-1.29966-4.49071-8.7592C-0.08802,37.48746-0.22961,34.5364,0.22626,23.59248l0.45333-10.87979
	l2.79296-0.74729c4.49769-1.20315,9.5014-0.97141,10.87471,0.50285c0.63999,0.6876,3.70977,6.18718,6.82082,12.22199
	l5.65704,10.97186l0.80125-6.03163c1.1803-8.88936,4.69706-20.79007,7.72747-26.14806l1.19045-2.10535l5.60624,0.13714
	c4.61261,0.11301,5.82782,0.35872,6.85574,1.38664c1.59299,1.59299,4.60118,12.98261,9.02649,34.17204
	c0.52633,2.52312,1.37585,5.77322,1.88821,7.22335c0.51174,1.4495,0.93014,3.16248,0.93014,3.80627
	c0,0.64379,0.71427,3.35866,1.58727,6.0329c1.60441,4.91609,1.9314,6.52559,1.1695,5.76433c0,0-7.63765,2.56646-10.45948,2.72312
	C52.92747,62.63618,52.40749,61.28891,51.99352,59.63053L51.99352,59.63053z"/>
</svg>
