<?xml version="1.0" encoding="utf-8"?>
<!-- Generator: Adobe Illustrator 19.1.0, SVG Export Plug-In . SVG Version: 6.00 Build 0)  -->
<!DOCTYPE svg PUBLIC "-//W3C//DTD SVG 1.1//EN" "http://www.w3.org/Graphics/SVG/1.1/DTD/svg11.dtd">
<svg version="1.1" id="Layer_1" xmlns="http://www.w3.org/2000/svg" xmlns:xlink="http://www.w3.org/1999/xlink" x="0px" y="0px"
	 width="64px" height="64px" viewBox="0 0 64 64" enable-background="new 0 0 64 64" xml:space="preserve">
<path fill="#444444" d="M63.3609,19.20399c0,0-0.6254-4.41032-2.54424-6.35248c-2.43368-2.54908-5.16161-2.56171-6.41258-2.71092
	c-8.95591-0.64739-22.39017-0.64739-22.39017-0.64739h-0.02781c0,0-13.43398,0-22.39017,0.64739
	c-1.25106,0.14921-3.97802,0.16184-6.41258,2.71092c-1.91887,1.94216-2.54329,6.35248-2.54329,6.35248S0,24.38309,0,29.56219
	v4.85542c0,5.17904,0.64005,10.35814,0.64005,10.35814s0.62443,4.41034,2.54329,6.3525
	c2.43457,2.54908,5.63253,2.46849,7.05689,2.73564c5.12012,0.49097,21.75982,0.6429,21.75982,0.6429
	s13.44812-0.02026,22.40403-0.66762c1.25098-0.14924,3.9789-0.16184,6.41258-2.71092c1.91884-1.94215,2.54424-6.3525,2.54424-6.3525
	S64,39.59666,64,34.41761v-4.85542C64,24.38309,63.3609,19.20399,63.3609,19.20399z M25.39277,40.30148l-0.00294-17.9823
	l17.29309,9.02248L25.39277,40.30148z"/>
</svg>
