<?xml version="1.0" encoding="utf-8"?>
<!-- Generator: Adobe Illustrator 19.1.0, SVG Export Plug-In . SVG Version: 6.00 Build 0)  -->
<!DOCTYPE svg PUBLIC "-//W3C//DTD SVG 1.1//EN" "http://www.w3.org/Graphics/SVG/1.1/DTD/svg11.dtd">
<svg version="1.1" id="Layer_1" xmlns="http://www.w3.org/2000/svg" xmlns:xlink="http://www.w3.org/1999/xlink" x="0px" y="0px"
	 width="64px" height="64px" viewBox="0 0 64 64" enable-background="new 0 0 64 64" xml:space="preserve">
<polygon fill="#444444" points="22.50879,28.4764 31.99984,34.33708 41.49121,28.4764 31.99984,22.61589 "/>
<path fill="#444444" d="M56,0H8C3.58171,0,0,3.58171,0,8v48c0,4.41829,3.58171,8,8,8h48c4.41829,0,8-3.58171,8-8V8
	C64,3.58171,60.41829,0,56,0z M41.45231,41.2251l-9.43295,5.65657l-9.43294-5.65657v-2.06901l2.82682,1.84554l6.60612-5.48177
	l6.60612,5.48177l2.82682-1.84554V41.2251z M48,33.68896l-9.41325,6.146l-6.58691-5.49788l-6.58659,5.49788L16,33.68896
	l6.50879-5.21256L16,23.26432l9.41325-6.14616l6.58659,5.49772l6.58691-5.49772L48,23.26432l-6.50879,5.21208L48,33.68896z"/>
</svg>
