<?xml version="1.0" encoding="utf-8"?>
<!-- Generator: Adobe Illustrator 19.1.0, SVG Export Plug-In . SVG Version: 6.00 Build 0)  -->
<!DOCTYPE svg PUBLIC "-//W3C//DTD SVG 1.1//EN" "http://www.w3.org/Graphics/SVG/1.1/DTD/svg11.dtd">
<svg version="1.1" id="Layer_1" xmlns="http://www.w3.org/2000/svg" xmlns:xlink="http://www.w3.org/1999/xlink" x="0px" y="0px"
	 width="64px" height="64px" viewBox="0 0 64 64" enable-background="new 0 0 64 64" xml:space="preserve">
<path fill="#444444" d="M32.00014,0.00022C14.32706,0.00022,0,14.32697,0,31.99998c0,13.55656,8.43444,25.13559,20.33834,29.79816
	c-0.27991-2.53182-0.53233-6.41521,0.11103-9.1797c0.5811-2.49693,3.7524-15.90618,3.7524-15.90618
	s-0.95743-1.91645-0.95743-4.75038c0-4.44946,2.5792-7.77133,5.79027-7.77133c2.73011,0,4.04892,2.04987,4.04892,4.50757
	c0,2.74554-1.74795,6.85044-2.65033,10.65411c-0.75376,3.1857,1.59735,5.78337,4.73866,5.78337
	c5.68782,0,10.05955-5.99762,10.05955-14.65412c0-7.66166-5.50514-13.01862-13.36662-13.01862
	c-9.10484,0-14.44916,6.82945-14.44916,13.8869c0,2.75037,1.05946,5.6995,2.38138,7.30267
	c0.26131,0.31706,0.29954,0.59456,0.22175,0.91747c-0.24273,1.01134-0.78259,3.18502-0.88851,3.62964
	c-0.13963,0.58564-0.46393,0.70976-1.07022,0.4278c-3.99689-1.86073-6.49547-7.70398-6.49547-12.3969
	c0-10.09426,7.33426-19.36457,21.14339-19.36457c11.10043,0,19.72736,7.90993,19.72736,18.48149
	c0,11.0286-6.95358,19.90412-16.60487,19.90412c-3.24281,0-6.29096-1.68464-7.33434-3.67469c0,0-1.60456,6.11009-1.99338,7.60698
	c-0.72285,2.77933-2.6731,6.26341-3.97769,8.38892c2.99426,0.92694,6.17618,1.42708,9.47509,1.42708
	C49.67323,63.99978,64,49.67303,64,31.99998C64,14.32697,49.67323,0.00022,32.00014,0.00022z"/>
</svg>
