<?xml version="1.0" encoding="utf-8"?>
<!-- Generator: Adobe Illustrator 19.1.0, SVG Export Plug-In . SVG Version: 6.00 Build 0)  -->
<!DOCTYPE svg PUBLIC "-//W3C//DTD SVG 1.1//EN" "http://www.w3.org/Graphics/SVG/1.1/DTD/svg11.dtd">
<svg version="1.1" id="Layer_1" xmlns="http://www.w3.org/2000/svg" xmlns:xlink="http://www.w3.org/1999/xlink" x="0px" y="0px"
	 width="64px" height="64px" viewBox="0 0 64 64" enable-background="new 0 0 64 64" xml:space="preserve">
<path fill="#444444" d="M61.33333,0H2.66667C1.19391,0,0,1.19391,0,2.66667v58.66667C0,62.8061,1.19391,64,2.66667,64H34V40h-8V30h8
	v-8c0-8.26636,5.2332-12.33372,12.60736-12.33372c3.5323,0,6.56813,0.26298,7.45285,0.38053v8.63883l-5.11437,0.00233
	C44.93536,18.68797,44,20.59369,44,23.39021V30h10l-2,10h-8l0.15883,24h17.1745C62.80609,64,64,62.8061,64,61.33334V2.66667
	C64,1.19391,62.80609,0,61.33333,0z"/>
</svg>
