<?xml version="1.0" encoding="utf-8"?>
<!-- Generator: Adobe Illustrator 19.1.0, SVG Export Plug-In . SVG Version: 6.00 Build 0)  -->
<!DOCTYPE svg PUBLIC "-//W3C//DTD SVG 1.1//EN" "http://www.w3.org/Graphics/SVG/1.1/DTD/svg11.dtd">
<svg version="1.1" id="Layer_1" xmlns="http://www.w3.org/2000/svg" xmlns:xlink="http://www.w3.org/1999/xlink" x="0px" y="0px"
	 width="64px" height="64px" viewBox="0 0 64 64" enable-background="new 0 0 64 64" xml:space="preserve">
<path fill="#444444" d="M25.82895,29.85479c0,0,6.05632-0.44991,6.05632-7.55229c0-7.10251-4.95518-10.56857-11.23174-10.56857
	H9.1004H8.76099H0v39.69149h8.76099H9.1004h11.55313c0,0,12.6082,0.39742,12.6082-11.71523
	C33.26174,39.71019,33.81225,29.85479,25.82895,29.85479z M9.1004,18.78818h10.0665h1.48663c0,0,2.80787,0,2.80787,4.12936
	s-1.65176,4.72811-3.52364,4.72811H9.1004V18.78818z M20.12105,44.37115H9.1004V33.7639h11.55313
	c0,0,4.18434-0.05496,4.18434,5.45062C24.83788,43.8051,21.77728,44.32509,20.12105,44.37115z"/>
<path fill="#444444" d="M50.07751,21.83227c-15.26344,0-15.24964,15.24973-15.24964,15.24973s-1.04747,15.17283,15.25008,15.17283
	c0,0,13.58157,0.77574,13.58157-10.55488h-6.98494c0,0,0.2327,4.26789-6.36391,4.26789c0,0-6.98505,0.46718-6.98505-6.90628
	h20.56662C63.89225,39.06155,66.14234,21.83227,50.07751,21.83227z M56.28607,33.7639H43.24784c0,0,0.85374-6.11826,6.98494-6.11826
	C56.36406,27.64564,56.28607,33.7639,56.28607,33.7639z"/>
<rect data-color="color-2" x="41.53893" y="14" fill="#444444" width="16.37532" height="4"/>
</svg>
