<?xml version="1.0" encoding="utf-8"?>
<!-- Generator: Adobe Illustrator 19.1.0, SVG Export Plug-In . SVG Version: 6.00 Build 0)  -->
<!DOCTYPE svg PUBLIC "-//W3C//DTD SVG 1.1//EN" "http://www.w3.org/Graphics/SVG/1.1/DTD/svg11.dtd">
<svg version="1.1" id="Layer_1" xmlns="http://www.w3.org/2000/svg" xmlns:xlink="http://www.w3.org/1999/xlink" x="0px" y="0px"
	 width="64px" height="64px" viewBox="0 0 64 64" enable-background="new 0 0 64 64" xml:space="preserve">
<path fill="#444444" d="M44.25671,28.18628c0-1.27673-1.03503-2.31177-2.31177-2.31177h-5.17493v4.62341h5.17493
	C43.22168,30.49792,44.25671,29.46301,44.25671,28.18628z"/>
<path fill="#444444" d="M42.30872,32.84485h-5.5387v5.35095h5.5387c1.47766,0,2.67554-1.19788,2.67554-2.67554
	C44.98425,34.04272,43.78638,32.84485,42.30872,32.84485z"/>
<path fill="#444444" d="M56,0H8C3.58167,0,0,3.58167,0,8v48c0,4.41821,3.58167,8,8,8h48c4.41833,0,8-3.58179,8-8V8
	C64,3.58167,60.41833,0,56,0z M23.99121,41.08252C18.56982,41.08252,16,36.40039,16,31.85913s2.88672-8.94165,8.34326-8.94165
	s6.58301,5.59729,6.58301,5.59729h-1.47852c0,0-0.84485-4.18921-5.13977-4.18921c-4.2948,0-6.79419,3.802-6.79419,7.56885
	c0,3.76672,1.97131,7.85034,6.72388,7.85034c4.75244,0,5.38611-5.52698,5.38611-5.52698h1.58411
	C31.20789,36.08362,29.4126,41.08252,23.99121,41.08252z M43.45874,40.5896c-2.18262,0-9.68091,0-9.68091,0V23.44556
	c0,0,6.44214,0,9.57532,0c3.13306,0,3.90759,2.73413,3.90759,4.2948c0,1.49023-0.42249,2.99231-2.6051,3.66113
	C47.00256,31.92957,48,33.78357,48,35.90759C48,38.37183,45.64136,40.5896,43.45874,40.5896z"/>
</svg>
