<?xml version="1.0" encoding="utf-8"?>
<!-- Generator: Adobe Illustrator 19.1.0, SVG Export Plug-In . SVG Version: 6.00 Build 0)  -->
<!DOCTYPE svg PUBLIC "-//W3C//DTD SVG 1.1//EN" "http://www.w3.org/Graphics/SVG/1.1/DTD/svg11.dtd">
<svg version="1.1" id="Layer_1" xmlns="http://www.w3.org/2000/svg" xmlns:xlink="http://www.w3.org/1999/xlink" x="0px" y="0px"
	 width="64px" height="64px" viewBox="0 0 64 64" enable-background="new 0 0 64 64" xml:space="preserve">
<path fill="#444444" d="M32,0C14.32682,0,0,14.32682,0,32c0,17.67302,14.32682,32,32,32s32-14.32698,32-32
	C64,14.32682,49.67318,0,32,0z M35.6543,47.99788c-6.97054,0.11898-9.61198-4.96647-9.61198-8.54573V28.99626h-3.23779v-4.13346
	c4.85368-1.74967,6.02181-6.12826,6.2959-8.62321C29.11914,16.06803,29.25374,16,29.3304,16c0.07682,0,4.68783,0,4.68783,0v8.15186
	h6.40218v4.8444h-6.42562v9.9611c0.02197,1.35596,0.51807,3.2238,3.07975,3.15495c0.84863-0.02197,1.98682-0.26937,2.58171-0.55257
	l1.53923,4.56396C40.61768,46.97233,38.00602,47.9572,35.6543,47.99788z"/>
</svg>
