<?xml version="1.0" encoding="utf-8"?>
<!-- Generator: Adobe Illustrator 19.1.0, SVG Export Plug-In . SVG Version: 6.00 Build 0)  -->
<!DOCTYPE svg PUBLIC "-//W3C//DTD SVG 1.1//EN" "http://www.w3.org/Graphics/SVG/1.1/DTD/svg11.dtd">
<svg version="1.1" id="Layer_1" xmlns="http://www.w3.org/2000/svg" xmlns:xlink="http://www.w3.org/1999/xlink" x="0px" y="0px"
	 width="64px" height="64px" viewBox="0 0 64 64" enable-background="new 0 0 64 64" xml:space="preserve">
<path fill="#444444" d="M37.67725,35.83284H26.29069c-1.06917,0-1.93522,0.86605-1.93522,1.92448
	c0,1.04785,0.86605,1.92448,1.93522,1.92448h11.38656c1.05843,0,1.92448-0.87663,1.92448-1.92448
	C39.60173,36.69889,38.73568,35.83284,37.67725,35.83284z"/>
<path fill="#444444" d="M26.29069,28.12419h5.60238c1.06917,0,1.93522-0.87663,1.93522-1.93506
	c0-1.05859-0.86605-1.92448-1.93522-1.92448h-5.60238c-1.06917,0-1.93522,0.86588-1.93522,1.92448
	C24.35547,27.24756,25.22152,28.12419,26.29069,28.12419z"/>
<path fill="#444444" d="M56,0H8C3.58171,0,0,3.58171,0,8v48c0,4.41829,3.58171,8,8,8h48c4.41829,0,8-3.58171,8-8V8
	C64,3.58171,60.41829,0,56,0z M47.87712,37.90706C47.84505,43.45605,43.33317,48,37.77344,48h-11.611
	c-5.55973,0-10.10368-4.54395-10.10368-10.09294v-11.7928C16.05876,20.55453,20.6027,16,26.16244,16h7.06706
	c3.04834,0,6.4043,2.5446,7.80485,5.51676c0.38493,0.83398,0.5389,1.31364,0.90885,3.43213
	c0.22087,1.26449,0.25668,2.21305,0.82324,2.73698c0.80192,0.72705,3.6888,0.40625,4.36214,0.69499
	c0.81266,0.34831,0.81266,1.35775,0.81266,1.35775L47.87712,37.90706z"/>
</svg>
