<?xml version="1.0" encoding="utf-8"?>
<!-- Generator: Adobe Illustrator 19.1.0, SVG Export Plug-In . SVG Version: 6.00 Build 0)  -->
<!DOCTYPE svg PUBLIC "-//W3C//DTD SVG 1.1//EN" "http://www.w3.org/Graphics/SVG/1.1/DTD/svg11.dtd">
<svg version="1.1" id="Layer_1" xmlns="http://www.w3.org/2000/svg" xmlns:xlink="http://www.w3.org/1999/xlink" x="0px" y="0px"
	 width="64px" height="64px" viewBox="0 0 64 64" enable-background="new 0 0 64 64" xml:space="preserve">
<path fill="#444444" d="M34.18913,26.12321c-0.45557-0.56787-1.01921-1.03776-1.51611-1.56787
	c-0.2334-0.2015-0.50472-0.58154-0.85579-0.40592c-0.40788,0.30306-0.73665,0.69662-1.09994,1.0498
	c-2.70264,2.70101-5.40104,5.40853-8.10938,8.10482c-0.19694,0.20622-0.5153,0.51205-0.26676,0.80469
	c0.43001,0.52881,0.91813,1.02393,1.45101,1.45101c0.60482,0.09407,1.39095,0.23356,1.83789-0.29818
	c2.77051-2.7832,5.55095-5.55664,8.33073-8.33073C34.1665,26.72933,34.42448,26.40381,34.18913,26.12321z"/>
<path fill="#444444" d="M32.64404,32.00749c-0.22542-0.19401-0.47412-0.53955-0.81348-0.39388
	c-0.33936,0.20752-0.59212,0.52132-0.87272,0.79378c-1.53581,1.54671-3.07796,3.08431-4.62191,4.62223
	c-0.2347,0.21761-0.51986,0.5957-0.21501,0.88461c0.45736,0.49219,0.89958,1.03304,1.46794,1.39941
	c0.59082,0.04866,1.34814,0.21582,1.77865-0.31185c1.53288-1.54964,3.07959-3.08756,4.62174-4.62809
	c0.18782-0.18636,0.42725-0.48047,0.22136-0.74252C33.74235,33.04199,33.15771,32.55729,32.64404,32.00749z"/>
<path fill="#444444" d="M32.46517,39.30518c-0.19075-0.2168-0.54346-0.31494-0.77978-0.11605
	c-0.63509,0.57959-1.2487,1.18864-1.82275,1.82617c-0.34066,0.37125,0.07259,0.75765,0.33643,1.01465
	c0.37126,0.33854,0.67741,0.77864,1.13004,1.00797c0.47135,0.06804,0.96647,0.09408,1.4318-0.01855
	c0.50732-0.4056,0.95882-0.88265,1.39046-1.36832c0.23356-0.21159,0.12142-0.55843-0.0848-0.74154
	C33.54248,40.36345,33.00781,39.82927,32.46517,39.30518z"/>
<path fill="#444444" d="M32,0C14.32682,0,0,14.32682,0,32c0,17.67302,14.32682,32,32,32s32-14.32698,32-32
	C64,14.32682,49.67318,0,32,0z M47.41195,35.8252c-0.34863,0.50391-0.81234,0.91048-1.24072,1.34473
	c-2.62874,2.62402-5.25098,5.2557-7.88086,7.87793c-0.75602,0.7653-1.83626,1.14665-2.9043,1.07861
	c-2.37239-0.00928-4.74609,0.00586-7.12028-0.00749c-0.92676,0.01091-1.84033-0.37386-2.48877-1.03499
	c-2.9012-2.90544-5.80534-5.80485-8.70784-8.70866c-0.86686-0.85172-1.29102-2.17708-0.95296-3.36068
	c0.15121-0.65723,0.52132-1.24821,0.99528-1.72103c4.11751-4.11572,8.23503-8.23372,12.35124-12.35124
	c0.47591-0.47542,1.07096-0.8361,1.72998-0.98779c0.75293-0.16032,1.56527-0.11328,2.2666,0.21973
	c0.70605,0.3016,1.20866,0.90169,1.74365,1.42708c3.65853,3.66309,7.32031,7.32308,10.98177,10.98503
	c0.60596,0.61051,1.30729,1.18929,1.59961,2.02848C48.15853,33.66016,48.05273,34.90251,47.41195,35.8252z"/>
</svg>
