<?xml version="1.0" encoding="utf-8"?>
<!-- Generator: Adobe Illustrator 19.1.0, SVG Export Plug-In . SVG Version: 6.00 Build 0)  -->
<!DOCTYPE svg PUBLIC "-//W3C//DTD SVG 1.1//EN" "http://www.w3.org/Graphics/SVG/1.1/DTD/svg11.dtd">
<svg version="1.1" id="Layer_1" xmlns="http://www.w3.org/2000/svg" xmlns:xlink="http://www.w3.org/1999/xlink" x="0px" y="0px"
	 width="64px" height="64px" viewBox="0 0 64 64" enable-background="new 0 0 64 64" xml:space="preserve">
<path fill="#444444" d="M40.95996,33.11995c-4.95996-3.04004-12.15999-3.91992-18-2.15999
	C22.31999,31.11996,22,31.84001,22.15999,32.47998c0.15999,0.63997,0.88005,0.95996,1.52002,0.79997
	c5.04004-1.59994,11.59994-0.79997,15.91992,1.84c0.56006,0.40007,1.28011,0.16,1.68002-0.40006
	C41.68001,34.15999,41.43994,33.36003,40.95996,33.11995z"/>
<path fill="#444444" d="M38.95996,37.75993C34.79997,35.20003,29.52002,34.63997,23.43994,36
	c-0.47998,0.15999-0.87988,0.63997-0.71989,1.20003c0.15999,0.47998,0.63997,0.87988,1.19987,0.71989
	C29.52002,36.63997,34.24007,37.11995,38,39.43994c0.47998,0.31999,1.04004,0.15999,1.36003-0.31999
	C39.59993,38.63997,39.52002,38,38.95996,37.75993z"/>
<path fill="#444444" d="M22,25.59994c-0.72005,0.24007-1.20003,1.04004-0.95996,1.84001
	c0.23991,0.72005,1.04004,1.20003,1.84001,0.95996c4.87988-1.52002,13.43994-1.19987,18.5599,1.84001
	c0.72005,0.40006,1.68001,0.15999,2.08008-0.3999c0.3999-0.72005,0.15999-1.68001-0.56006-2.08008
	C37.04004,24.23991,27.68001,23.91992,22,25.59994z"/>
<path fill="#444444" d="M56,0H8C3.58171,0,0,3.58171,0,8v48c0,4.41829,3.58171,8,8,8h48c4.41829,0,8-3.58171,8-8V8
	C64,3.58171,60.41829,0,56,0z M32,48c-8.79997,0-16-7.20003-16-16s7.20003-16,16-16c8.88005,0,16,7.20003,16,16S40.79997,48,32,48z"
	/>
</svg>
