<?xml version="1.0" encoding="utf-8"?>
<!-- Generator: Adobe Illustrator 19.1.0, SVG Export Plug-In . SVG Version: 6.00 Build 0)  -->
<!DOCTYPE svg PUBLIC "-//W3C//DTD SVG 1.1//EN" "http://www.w3.org/Graphics/SVG/1.1/DTD/svg11.dtd">
<svg version="1.1" id="Layer_1" xmlns="http://www.w3.org/2000/svg" xmlns:xlink="http://www.w3.org/1999/xlink" x="0px" y="0px"
	 width="64px" height="64px" viewBox="0 0 64 64" enable-background="new 0 0 64 64" xml:space="preserve">
<path fill="#444444" d="M32,0C14.32682,0,0,14.32682,0,32c0,17.67302,14.32682,32,32,32s32-14.32698,32-32
	C64,14.32682,49.67318,0,32,0z M42.4043,22.22852c2.81104,0,5.09066,2.27165,5.09066,5.07275
	c0,2.80176-2.27962,5.07259-5.09066,5.07259c-2.81299,0-5.0931-2.27083-5.0931-5.07259
	C37.3112,24.50016,39.59131,22.22852,42.4043,22.22852z M30.93424,24.1818c2.53011,0,4.58268,2.04427,4.58268,4.56624
	c0,2.52116-2.05257,4.56543-4.58268,4.56543c-2.53141,0-4.58317-2.04427-4.58317-4.56543
	C26.35107,26.22607,28.40283,24.1818,30.93424,24.1818z M20.53271,25.94238c2.27767,0,4.12467,1.83903,4.12467,4.10905
	c0,2.26904-1.847,4.10742-4.12467,4.10742c-2.27832,0-4.12467-1.83838-4.12467-4.10742
	C16.40804,27.78141,18.25439,25.94238,20.53271,25.94238z M25.0651,41.36035c0,0.22575-0.18473,0.41097-0.4126,0.41097h-0.14567
	h-7.94873h-0.14616C16.18473,41.77132,16,41.5861,16,41.36035v-1.59619c0-2.37158,1.91748-4.66716,4.53288-4.66716
	c2.61523,0,4.53223,2.29557,4.53223,4.66716V41.36035z M35.9707,41.31445c0,0.25098-0.20508,0.45687-0.45882,0.45687h-0.16195
	h-8.83252h-0.16244c-0.25244,0-0.45785-0.20589-0.45785-0.45687v-1.77376c0-2.63525,2.13102-5.1862,5.03695-5.1862
	s5.03662,2.55095,5.03662,5.1862V41.31445z M48,41.26384c0,0.27881-0.22819,0.50748-0.51009,0.50748h-0.17936h-9.81364h-0.18066
	c-0.2806,0-0.50879-0.22868-0.50879-0.50748v-1.97054c0-2.92855,2.36752-5.76253,5.59636-5.76253
	c3.229,0,5.59619,2.83398,5.59619,5.76253V41.26384z"/>
</svg>
