<?xml version="1.0" encoding="utf-8"?>
<!-- Generator: Adobe Illustrator 19.1.0, SVG Export Plug-In . SVG Version: 6.00 Build 0)  -->
<!DOCTYPE svg PUBLIC "-//W3C//DTD SVG 1.1//EN" "http://www.w3.org/Graphics/SVG/1.1/DTD/svg11.dtd">
<svg version="1.1" id="Layer_1" xmlns="http://www.w3.org/2000/svg" xmlns:xlink="http://www.w3.org/1999/xlink" x="0px" y="0px"
	 width="64px" height="64px" viewBox="0 0 64 64" enable-background="new 0 0 64 64" xml:space="preserve">
<path fill="#444444" d="M32,0C14.32682,0,0,14.32682,0,32c0,17.67302,14.32682,32,32,32s32-14.32698,32-32
	C64,14.32682,49.67318,0,32,0z M38.7845,20.80648c-1.31396,0-2.243,1.24984-2.243,3.65299c0,4.90283,3.1084,7.72266,7.14583,7.72266
	c0.71777,0,1.51514-0.08382,2.33952-0.27376v3.80941c-1.34554,0.30404-2.69661,0.43311-3.82129,0.4362
	c-2.67904,5.66097-7.5127,10.49365-9.12256,11.40902c-1.02555,0.57715-1.99105,0.60921-3.11263-0.0638
	c-1.98258-1.18295-9.48112-7.34391-11.99723-26.69271h5.44613c1.3693,11.61767,4.70638,17.57096,8.39795,22.03337
	c2.03451-2.03548,3.98551-4.73714,5.51872-7.80404c-3.64616-1.84994-5.85726-5.91016-5.85726-10.64014
	c0-4.77458,2.75586-8.39567,7.46615-8.39567c4.58236,0,7.08203,2.85189,7.08203,7.75472c0,1.8221-0.39258,3.89909-1.11507,5.50293
	c-3.40218,0.66602-4.64632-1.50439-4.64632-1.50439c0.25586-0.83871,0.60221-2.25635,0.60221-3.54997
	C40.86768,21.92806,40.0345,20.80648,38.7845,20.80648z"/>
</svg>
