<?xml version="1.0" encoding="utf-8"?>
<!-- Generator: Adobe Illustrator 19.1.0, SVG Export Plug-In . SVG Version: 6.00 Build 0)  -->
<!DOCTYPE svg PUBLIC "-//W3C//DTD SVG 1.1//EN" "http://www.w3.org/Graphics/SVG/1.1/DTD/svg11.dtd">
<svg version="1.1" id="Layer_1" xmlns="http://www.w3.org/2000/svg" xmlns:xlink="http://www.w3.org/1999/xlink" x="0px" y="0px"
	 width="64px" height="64px" viewBox="0 0 64 64" enable-background="new 0 0 64 64" xml:space="preserve">
<path fill="#444444" d="M32,0C14.32682,0,0,14.32682,0,32c0,17.67302,14.32682,32,32,32s32-14.32698,32-32
	C64,14.32682,49.67318,0,32,0z M20.6639,48C18.08805,48,16,45.91179,16,43.33594s2.08805-4.6639,4.6639-4.6639
	s4.66406,2.08805,4.66406,4.6639S23.23975,48,20.6639,48z M32.19466,48c0-8.93034-7.26432-16.19482-16.19466-16.19482v-4.92301
	c11.64421,0,21.11784,9.47363,21.11784,21.11784H32.19466z M43.07698,48c0-14.93034-12.14665-27.07699-27.07698-27.07699V16
	c17.64421,0,32,14.35579,32,32H43.07698z"/>
</svg>
