<?xml version="1.0" encoding="utf-8"?>
<!-- Generator: Adobe Illustrator 19.1.0, SVG Export Plug-In . SVG Version: 6.00 Build 0)  -->
<!DOCTYPE svg PUBLIC "-//W3C//DTD SVG 1.1//EN" "http://www.w3.org/Graphics/SVG/1.1/DTD/svg11.dtd">
<svg version="1.1" id="Layer_1" xmlns="http://www.w3.org/2000/svg" xmlns:xlink="http://www.w3.org/1999/xlink" x="0px" y="0px"
	 width="64px" height="64px" viewBox="0 0 64 64" enable-background="new 0 0 64 64" xml:space="preserve">
<path fill-rule="evenodd" clip-rule="evenodd" fill="#444444" d="M31.99793,0.7902C14.3285,0.7902,0,15.11693,0,32.79206
	c0,14.13676,9.16808,26.13071,21.88514,30.36272c1.60006,0.29349,2.18407-0.69443,2.18407-1.54248
	c0-0.75965-0.0277-2.77203-0.04322-5.44251c-8.90131,1.9338-10.77951-4.28957-10.77951-4.28957
	c-1.45508-3.6967-3.55291-4.68089-3.55291-4.68089c-2.90542-1.98547,0.21982-1.9452,0.21982-1.9452
	c3.2113,0.2263,4.9015,3.29772,4.9015,3.29772c2.85454,4.8901,7.48946,3.47805,9.31286,2.65888
	c0.29074-2.06798,1.11738-3.47806,2.03163-4.27798c-7.10581-0.80758-14.57602-3.5529-14.57602-15.81539
	c0-3.49338,1.24684-6.34989,3.29379-8.58681c-0.32905-0.80955-1.42717-4.06307,0.31372-8.46874c0,0,2.68678-0.86043,8.79975,3.28043
	c2.55241-0.70975,5.28987-1.06473,8.01122-1.07711c2.71742,0.01237,5.45508,0.36735,8.01122,1.07711
	c6.10924-4.14086,8.79111-3.28043,8.79111-3.28043c1.7458,4.40567,0.64748,7.65919,0.31844,8.46874
	c2.05088,2.23692,3.28928,5.09342,3.28928,8.58681c0,12.29313-7.4818,14.99817-14.61059,15.79044
	c1.14901,0.98792,2.17249,2.94098,2.17249,5.92596c0,4.27798-0.03929,7.72932-0.03929,8.77853
	c0,0.85571,0.57637,1.8513,2.20038,1.53875C54.83957,58.91118,64,46.92509,64,32.79206C64,15.11693,49.67131,0.7902,31.99793,0.7902
	z"/>
</svg>
