<?xml version="1.0" encoding="utf-8"?>
<!-- Generator: Adobe Illustrator 19.1.0, SVG Export Plug-In . SVG Version: 6.00 Build 0)  -->
<!DOCTYPE svg PUBLIC "-//W3C//DTD SVG 1.1//EN" "http://www.w3.org/Graphics/SVG/1.1/DTD/svg11.dtd">
<svg version="1.1" id="Layer_1" xmlns="http://www.w3.org/2000/svg" xmlns:xlink="http://www.w3.org/1999/xlink" x="0px" y="0px"
	 width="64px" height="64px" viewBox="0 0 64 64" enable-background="new 0 0 64 64" xml:space="preserve">
<rect x="27.6598" y="27.49112" transform="matrix(-0.3176 -0.94822 0.94822 -0.3176 11.81992 72.50636)" fill="#444444" width="8.68018" height="9.0178"/>
<rect x="27.65978" y="27.49112" transform="matrix(-0.3176 -0.94822 0.94822 -0.3176 11.81996 72.50636)" fill="#444444" width="8.6802" height="9.01779"/>
<path fill="#444444" d="M61.32131,23.20317C54.7237,1.2122,45.19417-3.91893,23.20319,2.67868
	C1.21219,9.2763-3.91891,18.80583,2.67868,40.7968c6.59761,21.991,16.12714,27.12214,38.11814,20.52452
	C62.7878,54.72371,67.91893,45.19418,61.32131,23.20317z M50.19855,37.47924l-4.14643,1.38867l1.43706,4.29055
	c0.58197,1.73737-0.35487,3.61747-2.09218,4.19926c-0.37786,0.12653-0.76256,0.18124-1.139,0.17147
	c-1.35492-0.03508-2.60469-0.90414-3.05997-2.26365l-1.43706-4.2907l-8.55094,2.86375l1.43711,4.29066
	c0.58192,1.73731-0.35484,3.61732-2.09218,4.19926c-0.37783,0.12653-0.76251,0.18122-1.13903,0.17147
	c-1.35459-0.03511-2.60471-0.90432-3.05992-2.26368l-1.43716-4.29078l-4.14722,1.38892
	c-0.37783,0.12653-0.76253,0.18122-1.13903,0.17147c-1.35458-0.03511-2.60468-0.90432-3.0599-2.26368
	c-0.58194-1.73734,0.35484-3.61732,2.09218-4.19926l4.14674-1.38877l-2.75676-8.23072l-4.14666,1.38872
	c-0.37786,0.12655-0.76256,0.18124-1.13903,0.1715c-1.35458-0.03511-2.60471-0.90432-3.05992-2.26368
	c-0.58197-1.73734,0.35484-3.61729,2.09218-4.19926l4.1462-1.3886l-1.43709-4.29063
	c-0.58199-1.73734,0.35482-3.61729,2.09218-4.19926c1.73762-0.58146,3.61732,0.35517,4.19893,2.09221l1.43714,4.29073
	l8.55117-2.8638l-1.43709-4.29063c-0.58194-1.73734,0.35487-3.61747,2.09218-4.19926
	c1.73704-0.58179,3.61732,0.35487,4.19893,2.09221l1.43711,4.29071l4.14697-1.38885
	c1.73797-0.58163,3.61732,0.35515,4.19898,2.09218c0.58192,1.73734-0.35489,3.61732-2.09223,4.19926l-4.14658,1.38872
	l2.75678,8.23085l4.14684-1.3888c1.73764-0.58115,3.61729,0.35499,4.19896,2.09218
	C52.87275,35.01732,51.93589,36.89729,50.19855,37.47924z"/>
</svg>
