<?xml version="1.0" encoding="utf-8"?>
<!-- Generator: Adobe Illustrator 19.1.0, SVG Export Plug-In . SVG Version: 6.00 Build 0)  -->
<!DOCTYPE svg PUBLIC "-//W3C//DTD SVG 1.1//EN" "http://www.w3.org/Graphics/SVG/1.1/DTD/svg11.dtd">
<svg version="1.1" id="Layer_1" xmlns="http://www.w3.org/2000/svg" xmlns:xlink="http://www.w3.org/1999/xlink" x="0px" y="0px"
	 width="64px" height="64px" viewBox="0 0 64 64" enable-background="new 0 0 64 64" xml:space="preserve">
<path fill="#444444" d="M31.4235,17.28564c-0.17204-0.11816-0.35124-0.17855-0.52962-0.17855
	c-2.96419,0-4.62923,3.89177-5.33073,6.27946c0.79085-0.24496,1.64616-0.50977,2.52116-0.78076
	C28.68311,19.47559,30.10075,17.90804,31.4235,17.28564z"/>
<path fill="#444444" d="M29.34863,22.21419c1.09375-0.33871,2.1849-0.67643,3.18945-0.98747
	c0.00049-0.05843,0.00098-0.11605,0.00098-0.17904c0-1.23145-0.16504-2.14421-0.41878-2.78027
	C31.11377,18.69938,29.96273,19.84424,29.34863,22.21419z"/>
<path fill="#444444" d="M23.85677,32.83724c0,3.55062,3.5428,3.64697,3.5428,5.80795c0,0.52213-0.36963,1.23714-1.27734,1.23714
	c-1.38981,0-3.03662-1.4139-3.03662-1.4139l-0.83887,2.77148c0,0,1.60205,1.94987,4.73503,1.94987
	c2.61084,0,4.54688-1.96582,4.54688-5.01855c0-3.88004-4.31804-4.51465-4.31804-6.17122c0-0.30355,0.09652-1.50863,2.01644-1.50863
	c1.30941,0,2.37793,0.57048,2.37793,0.57048l1.21924-3.62712c0,0-0.82422-0.47786-2.49251-0.47786
	C26.00179,26.95687,23.85677,29.84879,23.85677,32.83724z"/>
<path fill="#444444" d="M33.25244,18.06527c0.22738,0.65137,0.36898,1.47298,0.36898,2.49349
	c0,0.11703-0.00049,0.22412-0.00081,0.33285c0.56478-0.1748,1.08577-0.33594,1.54395-0.4777
	C34.77344,19.21859,34.16536,18.18001,33.25244,18.06527z"/>
<path fill="#444444" d="M32,0C14.32682,0,0,14.32682,0,32c0,17.67302,14.32682,32,32,32s32-14.32698,32-32
	C64,14.32682,49.67318,0,32,0z M36.18099,48L17.9305,44.58057c0,0,2.34212-18.11296,2.43099-18.75146
	c0.11735-0.84342,0.14551-0.87158,1.04069-1.15251c0.14551-0.04574,1.28483-0.39893,2.88835-0.89583
	C24.90869,21.15918,26.88037,16,31.00732,16c0.53906,0,1.16325,0.28955,1.66699,0.95589
	c0.05062-0.00277,0.10091-0.00505,0.1499-0.00505c1.77148,0,2.77848,1.50895,3.34912,3.15088
	c0.58284-0.18018,0.93489-0.2889,0.95605-0.29508c0.14225-0.04183,0.50846-0.09879,0.69596,0.08887
	c0.1875,0.1875,1.89567,1.88346,1.89567,1.88346s2.45964,0.18213,2.57601,0.19189c0.11621,0.00977,0.25716,0.0988,0.2793,0.25977
	c0.02197,0.16097,3.49316,23.63004,3.49316,23.63004L36.18099,48z"/>
</svg>
