<?xml version="1.0" encoding="utf-8"?>
<!-- Generator: Adobe Illustrator 19.1.0, SVG Export Plug-In . SVG Version: 6.00 Build 0)  -->
<!DOCTYPE svg PUBLIC "-//W3C//DTD SVG 1.1//EN" "http://www.w3.org/Graphics/SVG/1.1/DTD/svg11.dtd">
<svg version="1.1" id="Layer_1" xmlns="http://www.w3.org/2000/svg" xmlns:xlink="http://www.w3.org/1999/xlink" x="0px" y="0px"
	 width="64px" height="64px" viewBox="0 0 64 64" enable-background="new 0 0 64 64" xml:space="preserve">
<path fill="#444444" d="M34.85498,30.16927l-3.53451-0.78434c-1.34359-0.30664-2.8916-0.7111-2.8916-1.97868
	c0-1.26986,1.08578-2.15739,3.04557-2.15739c3.94922,0,3.58789,2.7137,5.54883,2.7137c1.03174,0,1.93489-0.60645,1.93489-1.64941
	c0-2.43424-3.89583-4.26042-7.20019-4.26042c-3.58756,0-7.40755,1.52311-7.40755,5.58073c0,1.9541,0.69775,4.03288,4.54313,4.99707
	l4.77474,1.19205c1.44515,0.35612,1.8068,1.16911,1.8068,1.90218c0,1.2194-1.21191,2.41097-3.40576,2.41097
	c-4.2863,0-3.69141-3.29883-5.98877-3.29883c-1.03239,0-1.78125,0.71094-1.78125,1.72559c0,1.97819,2.40137,4.61735,7.77002,4.61735
	c5.10775,0,7.63818-2.46191,7.63818-5.75895C39.70752,33.29167,38.72607,31.03141,34.85498,30.16927z"/>
<path fill="#444444" d="M32,0C14.32682,0,0,14.32682,0,32c0,17.67302,14.32682,32,32,32s32-14.32698,32-32
	C64,14.32682,49.67318,0,32,0z M45.38004,45.3418c-1.68961,1.69059-3.93489,2.61979-6.32438,2.61979
	c-1.54688,0-3.06234-0.40234-4.40055-1.15951c-0.86849,0.15414-1.7583,0.23486-2.64616,0.23486
	c-2.04004,0-4.01953-0.39941-5.88183-1.18929c-1.80046-0.75911-3.41585-1.84993-4.80404-3.23714
	c-1.38721-1.38737-2.47689-3.00277-3.23714-4.8029c-0.78874-1.86312-1.18815-3.84196-1.18815-5.88184
	c0-0.87386,0.07861-1.74854,0.22754-2.60449C16.39095,28.00016,16,26.50521,16,24.98438c0-2.38949,0.93083-4.63623,2.61995-6.32552
	c1.68962-1.6901,3.93587-2.62061,6.32536-2.62061c1.46387,0,2.9095,0.36507,4.19515,1.04867
	c0.00261-0.00065,0.00488-0.00081,0.00488-0.00081c0.93945-0.18001,1.90202-0.27034,2.86361-0.27034
	c2.03939,0,4.01855,0.39909,5.88086,1.18734c1.79883,0.76107,3.41569,1.8501,4.80241,3.23779
	c1.38867,1.38753,2.47754,3.00358,3.23861,4.80322c0.7889,1.86263,1.18832,3.84163,1.18832,5.88167
	c0,0.91976-0.08675,1.84001-0.25146,2.73877C47.60709,35.99089,48,37.49089,48,39.01677
	C48,41.40641,47.07015,43.65332,45.38004,45.3418z"/>
</svg>
