<?xml version="1.0" encoding="utf-8"?>
<!-- Generator: Adobe Illustrator 19.1.0, SVG Export Plug-In . SVG Version: 6.00 Build 0)  -->
<!DOCTYPE svg PUBLIC "-//W3C//DTD SVG 1.1//EN" "http://www.w3.org/Graphics/SVG/1.1/DTD/svg11.dtd">
<svg version="1.1" id="Layer_1" xmlns="http://www.w3.org/2000/svg" xmlns:xlink="http://www.w3.org/1999/xlink" x="0px" y="0px"
	 width="64px" height="64px" viewBox="0 0 64 64" enable-background="new 0 0 64 64" xml:space="preserve">
<path fill="#444444" d="M63.96891,17.12899c-0.28535,6.22921-4.63562,14.75811-13.05249,25.5853
	C42.215,54.02034,34.85237,59.67566,28.83199,59.67566c-3.73184,0-6.88864-3.44171-9.46767-10.32956
	c-1.7219-6.31352-3.44215-12.62659-5.16495-18.94056c-1.91569-6.88386-3.96892-10.33-6.16651-10.33
	c-0.47912,0-2.15437,1.00757-5.02317,3.01369l-3.0097-3.87761c3.15849-2.77457,6.27369-5.54905,9.33883-8.32787
	c4.21271-3.63849,7.37731-5.5533,9.48492-5.74654c4.97908-0.47877,8.045,2.92539,9.19534,10.21186
	c1.24368,7.86256,2.10504,12.75209,2.58761,14.66557c1.43745,6.52368,3.01758,9.78206,4.74207,9.78206
	c1.338,0,3.35138-2.11549,6.03508-6.34895c2.6785-4.23009,4.11416-7.44916,4.30785-9.66188
	c0.38321-3.65142-1.05336-5.48112-4.30785-5.48112c-1.53257,0-3.1127,0.35248-4.73771,1.04911
	C39.79246,9.05326,45.80159,4.05046,54.67076,4.3359C61.24722,4.52878,64.34858,8.79297,63.96891,17.12899z"/>
</svg>
