<?xml version="1.0" encoding="utf-8"?>
<!-- Generator: Adobe Illustrator 19.1.0, SVG Export Plug-In . SVG Version: 6.00 Build 0)  -->
<!DOCTYPE svg PUBLIC "-//W3C//DTD SVG 1.1//EN" "http://www.w3.org/Graphics/SVG/1.1/DTD/svg11.dtd">
<svg version="1.1" id="Layer_1" xmlns="http://www.w3.org/2000/svg" xmlns:xlink="http://www.w3.org/1999/xlink" x="0px" y="0px"
	 width="64px" height="64px" viewBox="0 0 64 64" enable-background="new 0 0 64 64" xml:space="preserve">
<path fill="#444444" d="M32,0C14.32682,0,0,14.32682,0,32c0,17.67302,14.32682,32,32,32s32-14.32698,32-32
	C64,14.32682,49.67318,0,32,0z M34.46891,39.12663c-1.98486,0-3.85124-1.07275-4.48991-2.29102c0,0-1.06771,4.2347-1.29297,5.05241
	c-0.7959,2.88786-3.13721,5.77816-3.31836,6.01481c-0.12695,0.16504-0.40723,0.11312-0.43685-0.10498
	c-0.05046-0.36816-0.64713-4.01253,0.05518-6.98503c0.3527-1.49251,2.3641-10.01562,2.3641-10.01562s-0.5861-1.17367-0.5861-2.90853
	c0-2.72396,1.57894-4.75765,3.5446-4.75765c1.67139,0,2.479,1.25505,2.479,2.75944c0,1.68083-1.07015,4.19368-1.62256,6.5223
	c-0.46143,1.95036,0.97786,3.54053,2.90088,3.54053c3.48177,0,5.82731-4.47282,5.82731-9.77262
	c0-4.02799-2.71191-7.04395-7.64795-7.04395c-5.57406,0-9.04948,4.1582-9.04948,8.80338c0,1.60091,0.47298,2.73128,1.21321,3.60449
	c0.33968,0.40186,0.38737,0.56348,0.26432,1.02458c-0.08968,0.33854-0.29053,1.15218-0.37549,1.47494
	c-0.12207,0.46598-0.49919,0.63216-0.92009,0.46012c-2.56706-1.04834-3.764-3.86068-3.764-7.02197
	C19.61377,22.26107,24.01693,16,32.74984,16c7.01839,0,11.63639,5.07747,11.63639,10.52979
	C44.38623,33.73991,40.37761,39.12663,34.46891,39.12663z"/>
</svg>
