<?xml version="1.0" encoding="utf-8"?>
<!-- Generator: Adobe Illustrator 19.1.0, SVG Export Plug-In . SVG Version: 6.00 Build 0)  -->
<!DOCTYPE svg PUBLIC "-//W3C//DTD SVG 1.1//EN" "http://www.w3.org/Graphics/SVG/1.1/DTD/svg11.dtd">
<svg version="1.1" id="Layer_1" xmlns="http://www.w3.org/2000/svg" xmlns:xlink="http://www.w3.org/1999/xlink" x="0px" y="0px"
	 width="64px" height="64px" viewBox="0 0 64 64" enable-background="new 0 0 64 64" xml:space="preserve">
<path fill="#444444" d="M32,0C14.32682,0,0,14.32682,0,32c0,17.67302,14.32682,32,32,32s32-14.32698,32-32
	C64,14.32682,49.67318,0,32,0z M48,33.20882c0,2.58952-0.3195,5.17904-0.3195,5.17904s-0.31282,2.20508-1.27213,3.17627
	c-1.2168,1.27457-2.58089,1.28076-3.20638,1.35547C38.72412,43.24316,32,43.25342,32,43.25342s-8.31982-0.07601-10.87988-0.32145
	c-0.71224-0.13363-2.3112-0.09326-3.52848-1.36784c-0.95947-0.97119-1.27165-3.17627-1.27165-3.17627S16,35.79834,16,33.20882
	v-2.42773c0-2.58952,0.31999-5.1792,0.31999-5.1792s0.31218-2.20508,1.27165-3.17611
	c1.21729-1.27458,2.58073-1.28092,3.20638-1.35547c4.47803-0.32373,11.19499-0.32373,11.19499-0.32373h0.014
	c0,0,6.71712,0,11.19498,0.32373c0.62549,0.07454,1.98959,0.08089,3.20638,1.35547c0.95931,0.97103,1.27213,3.17611,1.27213,3.17611
	S48,28.19157,48,30.78109V33.20882z"/>
<polygon fill="#444444" points="28.69645,36.15071 37.34147,31.67074 28.69499,27.15951 "/>
</svg>
