<?xml version="1.0" encoding="utf-8"?>
<!-- Generator: Adobe Illustrator 19.1.0, SVG Export Plug-In . SVG Version: 6.00 Build 0)  -->
<!DOCTYPE svg PUBLIC "-//W3C//DTD SVG 1.1//EN" "http://www.w3.org/Graphics/SVG/1.1/DTD/svg11.dtd">
<svg version="1.1" id="Layer_1" xmlns="http://www.w3.org/2000/svg" xmlns:xlink="http://www.w3.org/1999/xlink" x="0px" y="0px"
	 width="64px" height="64px" viewBox="0 0 64 64" enable-background="new 0 0 64 64" xml:space="preserve">
<path fill="#444444" d="M9.53726,45.42745c0-5.11271,2.17193-7.8119,6.4-8.97255c-0.66928-1.67321-1.00392-2.90719-1.00392-3.70196
	c0-2.94214,3.71782-6.58824,6.52549-6.58824c0.71111,0,1.54771,0.18824,2.5098,0.56471
	c-2.00784-5.73072-3.45098-10.08105-4.32941-13.05098c-1.14689-3.87075-2.6821-8.90421,0-11.92157
	C20.68497,0.58562,22.08628,0,23.84314,0c3.01176,0,6.63006,6.16993,10.8549,18.5098l1.06667,3.07451
	c1.60044-4.00109,6.51167-20.39216,12.04706-20.39216c1.67321,0,2.99085,0.56471,3.95294,1.69412
	c2.70464,3.04272,1.11075,7.54845,0,11.48235c-0.87843,3.05359-2.25882,7.2366-4.14118,12.54902
	c2.38432,0.58562,4.09935,1.71503,5.1451,3.38824c1.12941,1.79869,1.69412,4.58039,1.69412,8.3451
	c0,7.44575-2.21699,13.53202-6.65098,18.25882C43.29412,61.6366,37.5634,64,30.61961,64
	c-8.5755,0-16.10694-5.03698-19.45098-11.85882C10.08105,49.88235,9.53726,47.64444,9.53726,45.42745z M13.61569,45.11372
	c0,2.62099,1.74969,5.78461,3.32549,7.90588c3.69099,4.77127,8.51745,6.83921,14.18039,6.83921
	c5.39608,0,9.93464-2.02876,13.61569-6.08627c3.63922-4.01569,5.45882-9.09804,5.45882-15.24706
	c0-2.10297-0.00566-5.24855-1.56863-6.58824c-1.12941-0.96209-3.34641-1.79869-6.65098-2.5098
	c-3.30457-0.75294-6.8183-1.12941-10.54118-1.12941c-1.43876,0-2.19608,0.21722-2.19608,1.63137
	c0,1.71503,0.96209,2.92811,2.88628,3.63922c2.0915,0.87843,5.54248,1.31765,10.35294,1.31765h1.75686
	c0.98341,0,1.85661,0.51374,2.13333,2.63529c-1.80373,1.80373-4.77489,2.04585-6.77647,3.57647
	c-1.6732,1.21307-3.01176,2.65621-4.01569,4.32941c-0.96209,1.63137-1.44313,3.17908-1.44313,4.64314
	c0,0.87843,0.20915,1.9451,0.62745,3.2c0.46013,1.38039,0.69014,2.27974,0.69014,2.69804
	c-0.01104,0.38832-0.12544,0.65882-0.59595,0.84706c-1.94507,0.43922-2.83406-0.51242-3.67067-2.10196
	c-0.71111-1.33856-1.1085-3.0536-1.19216-5.1451c-0.25329,0.08443-1.17039,0.06275-1.44314,0.06275
	c0.04183,0.20915,0.06275,0.46013,0.06275,0.75294c0,1.2549-0.48104,2.32157-1.44314,3.2
	c-0.96209,0.87843-2.0915,1.31765-3.38824,1.31765c-1.96601,0-3.95294-0.94118-5.96078-2.82353
	c-2.00784-1.92418-3.01177-3.80654-3.01177-5.64706c0-1.09209,0.46719-1.65935,1.19216-2.38432
	c1.04575,1.29673,1.75686,2.19608,2.13333,2.69804c1.75686,2.46797,3.34641,3.70196,4.76863,3.70196
	c0.79858,0,1.44314-0.59163,1.44314-1.00392c0-0.33464-0.25098-0.94118-0.75294-1.81961
	c-0.73396-1.37617-3.62945-5.21457-5.1451-6.46274c-0.62745-0.58562-1.08758-0.87843-1.38039-0.87843
	C15.65478,40.28235,13.61569,42.09456,13.61569,45.11372z M19.26274,33.12941c0,0.54379,0.33464,1.48497,1.00392,2.82353
	c1.23368,2.37923,4.13412,6.21811,6.33726,8.15686c1.00392,0.8366,1.75686,1.2549,2.25882,1.2549
	c0.64382,0,1.31765-0.76571,1.31765-1.44313c0-0.50196-0.37647-1.71503-1.12941-3.63922
	c-1.03639-2.51695-3.24074-7.12374-5.33333-8.84706c-0.66928-0.62745-1.31765-0.94118-1.9451-0.94118
	C20.87737,30.49412,19.26274,32.13429,19.26274,33.12941z M22.08628,6.02353c0,1.42222,0.50196,3.66013,1.50588,6.71373
	c0.92026,2.96993,2.30065,6.94379,4.14118,11.92157c0.94744-0.56846,3.24166-0.29853,4.4549-0.18823l-4.32941-12.54902
	C26.68758,8.57516,25.76732,6.4,25.09804,5.39608c-0.54379-0.87843-1.08758-1.31765-1.63137-1.31765
	C22.55669,4.07843,22.08628,5.10608,22.08628,6.02353z M32.50196,38.02353c0.37647,0.96209,0.77386,2.00784,1.19216,3.13726
	c0.8366-0.96209,1.6732-1.75686,2.5098-2.38432C34.92761,38.5212,33.90032,38.48965,32.50196,38.02353z M39.09019,25.22353
	l4.20392,0.75294c1.88235-5.18693,3.32549-9.34902,4.32941-12.48627c0.57841-1.87406,2.25423-6.14597,1.12941-7.59216
	c-0.38023-0.6654-1.55192-0.86437-2.88628,1.2549c-0.79477,1.21307-1.69411,3.32549-2.69804,6.33726L39.09019,25.22353z"/>
</svg>
