<?xml version="1.0" encoding="utf-8"?>
<!-- Generator: Adobe Illustrator 19.1.0, SVG Export Plug-In . SVG Version: 6.00 Build 0)  -->
<!DOCTYPE svg PUBLIC "-//W3C//DTD SVG 1.1//EN" "http://www.w3.org/Graphics/SVG/1.1/DTD/svg11.dtd">
<svg version="1.1" id="Layer_1" xmlns="http://www.w3.org/2000/svg" xmlns:xlink="http://www.w3.org/1999/xlink" x="0px" y="0px"
	 width="64px" height="64px" viewBox="0 0 64 64" enable-background="new 0 0 64 64" xml:space="preserve">
<path fill="#444444" d="M61.33333,0H2.66667C1.19391,0,0,1.19391,0,2.66667v58.66667C0,62.8061,1.19391,64,2.66667,64h58.66666
	C62.80609,64,64,62.8061,64,61.33334V2.66667C64,1.19391,62.80609,0,61.33333,0z M18.98524,54.53476H9.48352V23.99307h9.50173
	V54.53476z M14.237,19.82027c-3.0486,0-5.50693-2.4661-5.50693-5.50516c0-3.03821,2.45833-5.50436,5.50693-5.50436
	c3.03646,0,5.50167,2.46615,5.50167,5.50436C19.73867,17.35417,17.27346,19.82027,14.237,19.82027z M54.53742,54.53476h-9.49138
	V39.68231c0-3.54169-0.0608-8.09813-4.93227-8.09813c-4.9392,0-5.6928,3.86027-5.6928,7.84462v15.10595h-9.48089V23.99307h9.09902
	v4.17529h0.13013c1.2656-2.40107,4.36285-4.93316,8.98098-4.93316c9.61102,0,11.3872,6.32391,11.3872,14.54951V54.53476z"/>
</svg>
