<?xml version="1.0" encoding="utf-8"?>
<!-- Generator: Adobe Illustrator 19.1.0, SVG Export Plug-In . SVG Version: 6.00 Build 0)  -->
<!DOCTYPE svg PUBLIC "-//W3C//DTD SVG 1.1//EN" "http://www.w3.org/Graphics/SVG/1.1/DTD/svg11.dtd">
<svg version="1.1" id="Layer_1" xmlns="http://www.w3.org/2000/svg" xmlns:xlink="http://www.w3.org/1999/xlink" x="0px" y="0px"
	 width="64px" height="64px" viewBox="0 0 64 64" enable-background="new 0 0 64 64" xml:space="preserve">
<g>
	<path fill="#444444" d="M36.26667,22.4v0.00005H27.2v9.6h9.06667V31.9999c2.65098-0.00003,4.79987-2.14904,4.79987-4.79995
		C41.06654,24.54902,38.91764,22.40003,36.26667,22.4z"/>
</g>
<g>
	<g>
		<path fill="#444444" d="M32,0C14.32689,0,0,14.32689,0,32s14.32689,32,32,32s32-14.32689,32-32S49.67311,0,32,0z M36.26667,38.4
			v0.00005H27.2V48h-6.4V16l15.46667,0.00005V16c6.18561,0,11.2,5.0144,11.2,11.2C47.46667,33.38558,42.45228,38.4,36.26667,38.4z"
			/>
	</g>
</g>
</svg>
