<?xml version="1.0" encoding="utf-8"?>
<!-- Generator: Adobe Illustrator 19.1.0, SVG Export Plug-In . SVG Version: 6.00 Build 0)  -->
<!DOCTYPE svg PUBLIC "-//W3C//DTD SVG 1.1//EN" "http://www.w3.org/Graphics/SVG/1.1/DTD/svg11.dtd">
<svg version="1.1" id="Layer_1" xmlns="http://www.w3.org/2000/svg" xmlns:xlink="http://www.w3.org/1999/xlink" x="0px" y="0px"
	 width="64px" height="64px" viewBox="0 0 64 64" enable-background="new 0 0 64 64" xml:space="preserve">
<path fill="#444444" d="M56,0H8C3.58171,0,0,3.58171,0,8v48c0,4.41829,3.58171,8,8,8h48c4.41829,0,8-3.58171,8-8V8
	C64,3.58171,60.41829,0,56,0z M16.71663,38.29248c-0.02279,0.07878-0.13623,0.13363-0.27523,0.13363
	c-0.14128,0-0.25749-0.05631-0.27604-0.13444l-0.65185-2.91l0.65185-2.97607c0.01921-0.07731,0.13542-0.13363,0.27604-0.13363
	c0.13965,0,0.25309,0.05452,0.27588,0.13363l0.74105,2.97607L16.71663,38.29248z M22.27799,38.92285v-0.00114
	c-0.01774,0.13867-0.26562,0.24805-0.56478,0.24805c-0.30078,0-0.54883-0.10905-0.56396-0.24723l-0.58398-3.53841l0.58398-5.4751
	c0.01449-0.139,0.26318-0.24837,0.56396-0.24837c0.29915,0,0.54704,0.10938,0.56478,0.24837l0.66016,5.4751L22.27799,38.92285z
	 M28.12744,38.81266v-0.00244c-0.01432,0.20312-0.44076,0.36246-0.96973,0.36246c-0.53288,0-0.95931-0.15934-0.9707-0.36035
	l-0.51286-3.42529l0.51188-7.34261c0.01139-0.20312,0.43782-0.36198,0.9707-0.36198c0.52897,0,0.9554,0.15885,0.96973,0.36198
	l0.5765,7.34229L28.12744,38.81266z M43.92432,39.19548c-0.07275,0-11.28744-0.0057-11.29785-0.00684
	c-0.24333-0.02458-0.43685-0.23226-0.44011-0.48177V25.77083c0.00293-0.23763,0.0848-0.36019,0.39241-0.47917
	c0.7915-0.30615,1.68766-0.48714,2.6071-0.48714c3.75749,0,6.83789,2.88151,7.16227,6.55485
	c0.48535-0.20345,1.01807-0.31641,1.5765-0.31641c2.25081,0,4.07536,1.8252,4.07536,4.0765
	C48,37.37061,46.17513,39.19548,43.92432,39.19548z"/>
</svg>
