<?xml version="1.0" encoding="utf-8"?>
<!-- Generator: Adobe Illustrator 19.1.0, SVG Export Plug-In . SVG Version: 6.00 Build 0)  -->
<!DOCTYPE svg PUBLIC "-//W3C//DTD SVG 1.1//EN" "http://www.w3.org/Graphics/SVG/1.1/DTD/svg11.dtd">
<svg version="1.1" id="Layer_1" xmlns="http://www.w3.org/2000/svg" xmlns:xlink="http://www.w3.org/1999/xlink" x="0px" y="0px"
	 width="64px" height="64px" viewBox="0 0 64 64" enable-background="new 0 0 64 64" xml:space="preserve">
<path fill="#444444" d="M0.14319,64l4.50056-16.43389C1.8677,42.75694,0.40691,37.30086,0.40919,31.71148
	C0.4162,14.22571,14.64739,0,32.13302,0c8.48633,0.00338,16.45153,3.30629,22.44089,9.30062
	c5.98952,5.99434,9.28619,13.96232,9.2829,22.43616c-0.00708,17.48576-14.23954,31.71333-31.72337,31.71333h-0.00009h-0.01299
	c-5.3095-0.0022-10.52641-1.33365-15.15993-3.86007L0.14319,64z M17.73955,53.84847l0.96286,0.57132
	c4.04827,2.40172,8.68888,3.67226,13.42014,3.67412h0.0108c14.53298,0,26.36135-11.82467,26.36726-26.35916
	c0.0027-7.04317-2.73733-13.66586-7.71556-18.64815S39.18648,5.35889,32.14382,5.3562
	c-14.54415,0-26.37261,11.82382-26.37843,26.3573c-0.00202,4.98043,1.39203,9.83111,4.0314,14.02796l0.62701,0.9972
	l-2.66376,9.72684L17.73955,53.84847z"/>
<path data-color="color-2" fill-rule="evenodd" clip-rule="evenodd" fill="#444444" d="M24.20448,18.45449
	c-0.64338-1.5452-1.29688-1.33614-1.78345-1.36035c-0.46182-0.02299-0.99079-0.02784-1.51921-0.02784
	c-0.52842,0-1.38714,0.1983-2.11374,0.99155c-0.72656,0.79329-2.77423,2.71041-2.77423,6.61067
	c0,3.90025,2.84029,7.66827,3.23664,8.19716c0.39631,0.52889,5.58938,8.53281,13.54092,11.96522
	c1.89114,0.81641,3.36771,1.30386,4.51879,1.66925c1.89898,0.60296,3.62696,0.51792,4.99274,0.31393
	c1.52289-0.22745,4.68971-1.91703,5.3503-3.76802c0.6605-1.85098,0.6605-3.43755,0.46232-3.7681
	c-0.19808-0.33046-0.72655-0.5288-1.51917-0.92549c-0.7927-0.3966-4.68979-2.31372-5.41644-2.57812
	c-0.72655-0.26441-1.25493-0.39661-1.7834,0.39668c-0.52838,0.79321-2.04747,2.57812-2.50988,3.10693
	c-0.46232,0.52889-0.92473,0.59503-1.71734,0.19834c-0.7927-0.3966-3.34678-1.23342-6.3744-3.93304
	c-2.35633-2.10104-3.94729-4.6962-4.40966-5.48949c-0.46236-0.79329-0.04918-1.22221,0.34764-1.6172
	c0.35652-0.35501,0.79261-0.92549,1.18896-1.38824c0.39631-0.46274,0.52842-0.79329,0.79261-1.32209
	c0.26423-0.52889,0.13212-0.99163-0.06606-1.38828C26.45029,23.94133,24.86506,20.04102,24.20448,18.45449z"/>
</svg>
