<?xml version="1.0" encoding="utf-8"?>
<!-- Generator: Adobe Illustrator 19.1.0, SVG Export Plug-In . SVG Version: 6.00 Build 0)  -->
<!DOCTYPE svg PUBLIC "-//W3C//DTD SVG 1.1//EN" "http://www.w3.org/Graphics/SVG/1.1/DTD/svg11.dtd">
<svg version="1.1" id="Layer_1" xmlns="http://www.w3.org/2000/svg" xmlns:xlink="http://www.w3.org/1999/xlink" x="0px" y="0px"
	 width="64px" height="64px" viewBox="0 0 64 64" enable-background="new 0 0 64 64" xml:space="preserve">
<path data-color="color-2" fill="#444444" d="M1.20308,32.81144c-0.02281-0.15823-0.13613-0.26727-0.27583-0.26727
	c-0.14041,0-0.25658,0.11261-0.27583,0.26727L0,38.76342l0.65143,5.82013c0.01853,0.15609,0.13471,0.2687,0.27583,0.2687
	c0.13898,0,0.25231-0.10976,0.27511-0.26727l0.74124-5.82155L1.20308,32.81144z"/>
<path data-color="color-2" fill="#444444" d="M11.4692,27.32131c-0.26727,0-0.48822,0.21881-0.50105,0.49677l-0.51887,10.95033
	l0.51887,7.07666c0.01354,0.27654,0.23377,0.49463,0.50105,0.49463c0.26585,0,0.48608-0.2188,0.50176-0.49606v0.00214
	l0.58657-7.07737l-0.58657-10.95033C11.95528,27.54011,11.73504,27.32131,11.4692,27.32131z"/>
<path data-color="color-2" fill="#444444" d="M6.15582,31.12727c-0.20527,0-0.37276,0.16393-0.38915,0.38273l-0.58444,7.25556
	l0.58444,7.01965c0.01568,0.21738,0.18388,0.38131,0.38915,0.38131c0.20313,0,0.37062-0.16393,0.38844-0.38131l0.66426-7.01964
	l-0.66426-7.25698C6.52644,31.29119,6.35895,31.12727,6.15582,31.12727z"/>
<path data-color="color-2" fill="#444444" d="M16.86881,46.33899c0.33142,0,0.60083-0.26727,0.61437-0.60938l0.50889-6.95764
	L17.4839,24.19315c-0.01354-0.34211-0.28295-0.60938-0.61437-0.60938c-0.33427,0-0.60439,0.26799-0.61508,0.61009l-0.45116,14.5774
	l0.45116,6.96049C16.26513,46.071,16.53526,46.33899,16.86881,46.33899z"/>
<path data-color="color-2" fill="#444444" d="M27.9232,46.37178c0.45615,0,0.83246-0.37561,0.84102-0.83746v0.00499v-0.00499
	l0.35494-6.75807L28.76422,21.9388c-0.00784-0.46113-0.38487-0.83745-0.84102-0.83745c-0.45686,0-0.83389,0.37561-0.84102,0.83817
	l-0.31716,16.83104c0,0.01069,0.31716,6.76805,0.31716,6.76805C27.08931,45.99617,27.46706,46.37178,27.9232,46.37178z"/>
<path data-color="color-2" fill="#444444" d="M22.35396,46.34541c0.39699,0,0.717-0.31859,0.72769-0.72484v0.00499l0.43191-6.85215
	l-0.43262-14.68431c-0.01069-0.40625-0.33071-0.72413-0.72769-0.72413c-0.39984,0-0.71985,0.31787-0.72841,0.72413
	l-0.38416,14.68502l0.38487,6.85073C21.6341,46.02682,21.95412,46.34541,22.35396,46.34541z"/>
<path fill="#444444" d="M55.84926,30.08597c-1.11684,0-2.18237,0.22593-3.1531,0.6329
	c-0.64859-7.34678-6.80939-13.10989-14.32438-13.10989c-1.83884,0-3.63134,0.36207-5.21431,0.9743
	c-0.61508,0.23805-0.77901,0.48323-0.78471,0.95862v25.87198c0.00641,0.49891,0.39342,0.91443,0.88022,0.96361
	c0.02067,0.00214,22.45017,0.01354,22.59557,0.01354c4.50158,0,8.15146-3.64987,8.15146-8.15217
	S60.35084,30.08597,55.84926,30.08597z"/>
</svg>
