<?xml version="1.0" encoding="utf-8"?>
<!-- Generator: Adobe Illustrator 19.1.0, SVG Export Plug-In . SVG Version: 6.00 Build 0)  -->
<!DOCTYPE svg PUBLIC "-//W3C//DTD SVG 1.1//EN" "http://www.w3.org/Graphics/SVG/1.1/DTD/svg11.dtd">
<svg version="1.1" id="Layer_1" xmlns="http://www.w3.org/2000/svg" xmlns:xlink="http://www.w3.org/1999/xlink" x="0px" y="0px"
	 width="64px" height="64px" viewBox="0 0 64 64" enable-background="new 0 0 64 64" xml:space="preserve">
<path fill-rule="evenodd" clip-rule="evenodd" fill="#444444" d="M32,64C14.35511,64,0,49.64489,0,32S14.35511,0,32,0
	s32,14.35511,32,32S49.64489,64,32,64z M58.98723,36.38034c-0.93508-0.29519-8.46015-2.53949-17.02538-1.16842
	c3.57503,9.824,5.02989,17.82534,5.30997,19.48806C53.40374,50.55371,57.76902,43.98563,58.98723,36.38034z M42.67678,57.20236
	c-0.40655-2.39806-1.9935-10.75561-5.8309-20.72753c-0.06011,0.02049-0.12018,0.03997-0.18029,0.06091
	c-15.41673,5.37209-20.95091,16.06339-21.44277,17.06892C19.85721,57.21857,25.6813,59.37461,32,59.37461
	C35.78632,59.37461,39.39503,58.60023,42.67678,57.20236z M11.69371,50.31731c0.61916-1.05988,8.12062-13.48035,22.21725-18.03692
	c0.35627-0.11514,0.71548-0.22334,1.07706-0.32519c-0.68611-1.55271-1.43347-3.10719-2.21601-4.63855
	c-13.64977,4.08502-26.89518,3.91438-28.09103,3.88984c-0.00837,0.27751-0.01392,0.55569-0.01392,0.83518
	C4.66706,39.06189,7.32826,45.47164,11.69371,50.31731z M5.24441,26.44356c1.22252,0.01615,12.48357,0.06504,25.26892-3.33019
	C25.98444,15.06261,21.10008,8.294,20.37949,7.30579C12.73268,10.91259,7.01682,17.96192,5.24441,26.44356z M25.59481,5.46856
	c0.75552,1.01161,5.71978,7.77189,10.1987,16.00102c9.71927-3.64288,13.8337-9.17317,14.32532-9.87338
	C45.29201,7.31378,38.94498,4.70873,32,4.70873C29.79465,4.70873,27.65022,4.97312,25.59481,5.46856z M53.15741,14.75694
	c-0.57621,0.77948-5.15646,6.65111-15.26245,10.7771c0.636,1.30194,1.24575,2.62609,1.81339,3.95904
	c0.20119,0.47242,0.39714,0.94258,0.58884,1.41055c9.0947-1.14359,18.13133,0.68923,19.03249,0.87983
	C59.26954,25.33212,56.96422,19.40806,53.15741,14.75694z"/>
</svg>
