<?xml version="1.0" encoding="utf-8"?>
<!-- Generator: Adobe Illustrator 19.1.0, SVG Export Plug-In . SVG Version: 6.00 Build 0)  -->
<!DOCTYPE svg PUBLIC "-//W3C//DTD SVG 1.1//EN" "http://www.w3.org/Graphics/SVG/1.1/DTD/svg11.dtd">
<svg version="1.1" id="Layer_1" xmlns="http://www.w3.org/2000/svg" xmlns:xlink="http://www.w3.org/1999/xlink" x="0px" y="0px"
	 width="64px" height="64px" viewBox="0 0 64 64" enable-background="new 0 0 64 64" xml:space="preserve">
<path fill="#444444" d="M52.8087,32.74781c5.62189,0,10.18125-4.54157,10.18125-10.14534
	c0-5.60218-4.55936-10.14528-10.18125-10.14528c-5.62624,0-10.18624,4.5431-10.18624,10.14528
	C42.62246,28.20624,47.18246,32.74781,52.8087,32.74781z"/>
<ellipse data-color="color-2" fill="#444444" cx="29.86841" cy="25.49546" rx="9.16531" ry="9.13171"/>
<ellipse fill="#444444" cx="9.06528" cy="28.10125" rx="8.24941" ry="8.21654"/>
<path fill="#444444" d="M9.0656,38.19408C3.83494,38.19408,0,42.78531,0,47.52842v3.19251l0,0
	c0,0.45126,0.36934,0.82189,0.82374,0.82189h0.29248h15.89747h0.29126c0.45594,0,0.82534-0.37062,0.82534-0.82189l0,0v-3.19251
	C18.1303,42.78531,14.29619,38.19408,9.0656,38.19408z"/>
<path data-color="color-2" fill="#444444" d="M29.86809,36.70909c-5.8119,0-10.07373,5.10183-10.07373,10.37248v3.54752l0,0
	c0,0.50182,0.41062,0.91373,0.91558,0.91373h0.32499h17.66502h0.32377c0.50746,0,0.91751-0.4119,0.91751-0.91373l0,0v-3.54752
	C39.94124,41.81091,35.67999,36.70909,29.86809,36.70909z"/>
<path fill="#444444" d="M52.80748,35.06154c-6.45753,0-11.19251,5.66816-11.19251,11.52499v3.94125l0,0
	c0,0.55751,0.45626,1.01504,1.01748,1.01504h0.36128h19.62752h0.35872c0.56378,0,1.02003-0.45753,1.02003-1.01504l0,0v-3.94125
	C63.99999,40.7297,59.26559,35.06154,52.80748,35.06154z"/>
</svg>
