<?xml version="1.0" encoding="utf-8"?>
<!-- Generator: Adobe Illustrator 19.1.0, SVG Export Plug-In . SVG Version: 6.00 Build 0)  -->
<!DOCTYPE svg PUBLIC "-//W3C//DTD SVG 1.1//EN" "http://www.w3.org/Graphics/SVG/1.1/DTD/svg11.dtd">
<svg version="1.1" id="Layer_1" xmlns="http://www.w3.org/2000/svg" xmlns:xlink="http://www.w3.org/1999/xlink" x="0px" y="0px"
	 width="64px" height="64px" viewBox="0 0 64 64" enable-background="new 0 0 64 64" xml:space="preserve">
<path fill="#444444" d="M28.22489,45.89215l-2.34623-6.37757c0,0-3.81247,4.25198-9.52988,4.25198
	c-5.05889,0-8.65087-4.39872-8.65087-11.43661c0-9.01699,4.54479-12.24268,9.0173-12.24268
	c6.4508,0,8.50342,4.17862,10.26313,9.53044l2.34623,7.33106c2.34542,7.11071,6.74414,12.82865,19.42649,12.82865
	C57.84211,49.77742,64,46.99196,64,39.66129c0-5.93804-3.37283-9.01741-9.67746-10.48365l-4.69162-1.02632
	c-3.22527-0.73313-4.17823-2.05263-4.17823-4.252c0-2.49256,1.97885-3.9588,5.20493-3.9588
	c3.51888,0,5.42479,1.31981,5.71825,4.47211l7.33064-0.87985c-0.58636-6.59782-5.13129-9.3102-12.60921-9.3102
	c-6.59757,0-13.04892,2.49256-13.04892,10.48323c0,4.98511,2.4192,8.13756,8.50331,9.6038l4.98579,1.17264
	c3.73872,0.87999,4.98444,2.41934,4.98444,4.54547c0,2.71199-2.63888,3.8118-7.62413,3.8118
	c-7.40431,0-10.48284-3.8853-12.24268-9.23713l-2.4192-7.33053c-3.07853-9.53041-7.99067-13.04928-17.74122-13.04928
	C5.71839,14.22258,0,21.04022,0,32.62315c0,11.1434,5.71839,17.15427,15.98207,17.15427
	C24.26567,49.77742,28.22489,45.89215,28.22489,45.89215L28.22489,45.89215z"/>
</svg>
