<?xml version="1.0" encoding="utf-8"?>
<!-- Generator: Adobe Illustrator 19.1.0, SVG Export Plug-In . SVG Version: 6.00 Build 0)  -->
<!DOCTYPE svg PUBLIC "-//W3C//DTD SVG 1.1//EN" "http://www.w3.org/Graphics/SVG/1.1/DTD/svg11.dtd">
<svg version="1.1" id="Layer_1" xmlns="http://www.w3.org/2000/svg" xmlns:xlink="http://www.w3.org/1999/xlink" x="0px" y="0px"
	 width="64px" height="64px" viewBox="0 0 64 64" enable-background="new 0 0 64 64" xml:space="preserve">
<path fill="#444444" d="M56,0H8C3.58171,0,0,3.58171,0,8v48c0,4.41829,3.58171,8,8,8h48c4.41829,0,8-3.58171,8-8V8
	C64,3.58171,60.41829,0,56,0z M46.20296,36.2762l-3.23616,1.08382l1.12175,3.34847c0.4541,1.35596-0.27702,2.82341-1.63298,3.27734
	c-0.29476,0.09863-0.59505,0.14144-0.88884,0.13395c-1.05762-0.02751-2.03288-0.70573-2.38818-1.76677l-1.12158-3.34863
	l-6.6735,2.23503l1.12158,3.34847c0.4541,1.35596-0.27702,2.82324-1.63281,3.27751c-0.29492,0.09863-0.59505,0.14127-0.889,0.13363
	c-1.05713-0.02734-2.03288-0.70573-2.38818-1.7666l-1.12158-3.34863l-3.23665,1.08382
	c-0.29492,0.0988-0.59505,0.14144-0.88883,0.13395c-1.05729-0.02751-2.03304-0.70589-2.38818-1.7666
	c-0.45427-1.35612,0.27686-2.82324,1.63281-3.27751l3.23616-1.08382l-2.15137-6.42366l-3.23616,1.08382
	c-0.29509,0.0988-0.59521,0.14144-0.889,0.13395c-1.05729-0.02751-2.03288-0.70589-2.38802-1.76677
	c-0.45426-1.35579,0.27686-2.82308,1.63265-3.27718l3.236-1.08382l-1.12158-3.34863
	c-0.45426-1.35596,0.27686-2.82308,1.63281-3.27734c1.35612-0.45378,2.82308,0.27734,3.27702,1.63297l1.12158,3.34863
	l6.67367-2.23503l-1.12142-3.34863c-0.4541-1.35596,0.27686-2.82324,1.63281-3.27734
	c1.35563-0.45394,2.82308,0.27702,3.27702,1.63297l1.12158,3.34863l3.23649-1.08382c1.35645-0.4541,2.82308,0.27702,3.27718,1.63265
	c0.4541,1.35596-0.27702,2.82324-1.63298,3.27734l-3.23616,1.08382l2.15153,6.42383l3.23633-1.08398
	c1.35612-0.45361,2.82308,0.27702,3.27718,1.63281C48.29004,34.35482,47.55892,35.82194,46.20296,36.2762z"/>
<rect x="28.61264" y="28.48109" transform="matrix(-0.31759 -0.94823 0.94823 -0.31759 11.81946 72.5061)" fill="#444444" width="6.77456" height="7.03782"/>
</svg>
