<?xml version="1.0" encoding="utf-8"?>
<!-- Generator: Adobe Illustrator 19.1.0, SVG Export Plug-In . SVG Version: 6.00 Build 0)  -->
<!DOCTYPE svg PUBLIC "-//W3C//DTD SVG 1.1//EN" "http://www.w3.org/Graphics/SVG/1.1/DTD/svg11.dtd">
<svg version="1.1" id="Layer_1" xmlns="http://www.w3.org/2000/svg" xmlns:xlink="http://www.w3.org/1999/xlink" x="0px" y="0px"
	 width="64px" height="64px" viewBox="0 0 64 64" enable-background="new 0 0 64 64" xml:space="preserve">
<path fill="#444444" d="M35.29704,31.46322l4.104-2.03906l-1.63444-2.60059l-3.66179,2.48747
	c-0.15853,0.1071-0.36898,0.11881-0.53939,0.01969c-0.16878-0.09717-0.26595-0.28157-0.25212-0.47607l0.23796-4.45508h-3.01693
	l0.30957,4.45508c0.01384,0.1945-0.08333,0.37891-0.25195,0.47607c-0.17073,0.09912-0.37891,0.0874-0.53939-0.01969
	l-3.76497-2.46159l-1.49756,2.67969l4.07422,1.93408c0.17643,0.08317,0.28955,0.26172,0.28955,0.45817
	c0,0.19629-0.11312,0.375-0.28955,0.45801l-4.10791,2.03939l1.63444,2.60026l3.66179-2.48747
	c0.16048-0.10905,0.36865-0.11702,0.53939-0.01969c0.16862,0.09717,0.26579,0.28174,0.25195,0.47591
	c0,0-0.23616,4.41943-0.24788,4.4572c0.0057,0,0.01383,0,0.01383,0h3.01481l-0.31136-4.45524
	c-0.01383-0.19417,0.08334-0.37874,0.25212-0.47591c0.07927-0.04557,0.1665-0.06738,0.25374-0.06738
	c0.09929,0,0.19841,0.02979,0.28564,0.0874l3.7666,2.45963l1.49789-2.68001l-4.07227-1.93408
	c-0.1766-0.08301-0.28971-0.26172-0.28971-0.45801C35.00732,31.72494,35.12044,31.54639,35.29704,31.46322z"/>
<path fill="#444444" d="M42.26286,19.98226c-1.06641,0-1.92773,0.86133-1.92773,1.92578c0,1.06429,0.86133,1.92757,1.92773,1.92757
	c1.06038,0,1.92171-0.86328,1.92171-1.92757C44.18457,20.84359,43.32324,19.98226,42.26286,19.98226z"/>
<path fill="#444444" d="M56,0H8C3.58171,0,0,3.58171,0,8v48c0,4.41829,3.58171,8,8,8h48c4.41829,0,8-3.58171,8-8V8
	C64,3.58171,60.41829,0,56,0z M45.84473,33.5931C44.77441,34.66341,32.88818,46.5498,32.38818,47.0498
	c-0.49984,0.5-2.47266,2.19515-5.35921-0.69141l-9.38639-9.38851c-2.88477-2.88444-1.19336-4.8571-0.69336-5.3571
	c0.50195-0.5,12.38639-12.38639,13.45866-13.45654C32.61279,15.94922,33.78662,16,35.54622,16
	c1.22656,0,8.50765,0.52734,8.50765,0.52734c1.15413,0,1.92773,0.42969,2.45296,0.96484
	c0.53711,0.52718,0.96484,1.30078,0.96484,2.45492c0,0,0.52718,7.28092,0.52718,8.5057
	C47.99886,30.21436,48.05176,31.38623,45.84473,33.5931z"/>
</svg>
