<?xml version="1.0" encoding="utf-8"?>
<!-- Generator: Adobe Illustrator 19.1.0, SVG Export Plug-In . SVG Version: 6.00 Build 0)  -->
<!DOCTYPE svg PUBLIC "-//W3C//DTD SVG 1.1//EN" "http://www.w3.org/Graphics/SVG/1.1/DTD/svg11.dtd">
<svg version="1.1" id="Layer_1" xmlns="http://www.w3.org/2000/svg" xmlns:xlink="http://www.w3.org/1999/xlink" x="0px" y="0px"
	 width="64px" height="64px" viewBox="0 0 64 64" enable-background="new 0 0 64 64" xml:space="preserve">
<path fill="#444444" d="M0.00129,31.9988c0,12.66568,7.35982,23.61247,18.03496,28.79842L2.77209,18.976
	C0.99656,22.95539,0.00129,27.35941,0.00129,31.9988z"/>
<path fill="#444444" d="M53.60176,30.38492c0-3.95603-1.42116-6.69395-2.63818-8.82497
	c-1.62164-2.63709-3.1432-4.86814-3.1432-7.50527c0-2.94092,2.2303-5.67917,5.3735-5.67917
	c0.14199,0,0.27659,0.01729,0.41451,0.02591C47.91563,3.18516,40.33051,0,32.00008,0C20.82049,0,10.98594,5.73638,5.2641,14.42268
	c0.75141,0.02407,1.45905,0.03879,2.0595,0.03879c3.3462,0,8.5283-0.40679,8.5283-0.40679
	c1.72423-0.10097,1.92783,2.43319,0.2047,2.63713c0,0-1.73417,0.20281-3.662,0.30416l11.65203,34.66146l7.00361-21.00183
	l-4.98512-13.65963c-1.72408-0.10135-3.35633-0.30416-3.35633-0.30416c-1.72479-0.10192-1.52251-2.7381,0.203-2.63713
	c0,0,5.28341,0.40679,8.42755,0.40679c3.34586,0,8.52887-0.40679,8.52887-0.40679c1.72498-0.10097,1.92836,2.43319,0.20413,2.63713
	c0,0-1.73602,0.20281-3.66215,0.30416l11.56427,34.39737l3.1925-10.66392C52.54842,36.30148,53.60176,33.12336,53.60176,30.38492z"
	/>
<path fill="#444444" d="M32.5619,34.79795l-9.60191,27.89821C25.8275,63.5395,28.85926,64,32.00008,64
	c3.72633,0,7.30024-0.64328,10.62622-1.81398c-0.08493-0.13719-0.1644-0.28284-0.22914-0.44099L32.5619,34.79795z"/>
<path fill="#444444" d="M60.07945,16.64748c0.13754,1.01915,0.21517,2.11245,0.21517,3.2905
	c0,3.24583-0.60799,6.89605-2.43338,11.46112l-9.7735,28.25831c9.5131-5.54675,15.91095-15.85322,15.91095-27.65861
	C63.99869,26.43533,62.57716,21.20506,60.07945,16.64748z"/>
</svg>
