<?xml version="1.0" encoding="utf-8"?>
<!-- Generator: Adobe Illustrator 19.1.0, SVG Export Plug-In . SVG Version: 6.00 Build 0)  -->
<!DOCTYPE svg PUBLIC "-//W3C//DTD SVG 1.1//EN" "http://www.w3.org/Graphics/SVG/1.1/DTD/svg11.dtd">
<svg version="1.1" id="Layer_1" xmlns="http://www.w3.org/2000/svg" xmlns:xlink="http://www.w3.org/1999/xlink" x="0px" y="0px"
	 width="64px" height="64px" viewBox="0 0 64 64" enable-background="new 0 0 64 64" xml:space="preserve">
<path fill="#444444" d="M32,0C14.32682,0,0,14.32682,0,32c0,17.67302,14.32682,32,32,32s32-14.32698,32-32
	C64,14.32682,49.67318,0,32,0z M19.29639,44.44971c-0.5249,0-0.92578-0.46924-0.84359-0.98698l4.14079-26.26155
	C22.70329,16.50977,23.29899,16,24.00016,16h9.94466c3.42643,0,6.10482,0.72396,7.58659,2.41276
	c1.34635,1.53402,1.72086,3.22542,1.34896,5.71729c0,0-0.06282,0.3833-0.10173,0.58236
	c-1.31104,6.73438-5.79866,9.06234-11.52995,9.06234h-2.91748c-0.7002,0-1.2915,0.50977-1.4012,1.20117l0.04769-0.30631
	l-1.54183,9.78011H19.29639z M45.33333,31.18392c-1.14713,5.89062-5.07291,7.92741-10.08643,7.92741h-0.77441
	c-0.61263,0-1.13395,0.44596-1.22949,1.05062l-0.06282,0.34164l-0.97542,6.18196l-0.05046,0.26367
	C32.05876,47.55387,31.53727,48,30.9248,48h-4.24381l1.95117-12.4554h2.61654c7.21322,0,11.76009-3.50928,13.18571-10.13932
	C45.57275,26.83789,45.79297,28.82064,45.33333,31.18392z"/>
</svg>
