<?xml version="1.0" encoding="utf-8"?>
<!-- Generator: Adobe Illustrator 19.1.0, SVG Export Plug-In . SVG Version: 6.00 Build 0)  -->
<!DOCTYPE svg PUBLIC "-//W3C//DTD SVG 1.1//EN" "http://www.w3.org/Graphics/SVG/1.1/DTD/svg11.dtd">
<svg version="1.1" id="Layer_1" xmlns="http://www.w3.org/2000/svg" xmlns:xlink="http://www.w3.org/1999/xlink" x="0px" y="0px"
	 width="64px" height="64px" viewBox="0 0 64 64" enable-background="new 0 0 64 64" xml:space="preserve">
<path fill="#444444" d="M53.15259,12.46124c-0.04406-0.32196-0.32604-0.50001-0.55859-0.51946
	c-0.23256-0.01939-5.15181-0.3839-5.15181-0.3839s-3.41637-3.39161-3.79136-3.76691
	c-0.37502-0.37524-1.10762-0.26139-1.39201-0.17774c-0.04227,0.01243-0.74653,0.22995-1.91211,0.59045
	c-1.14116-3.28385-3.15519-6.30185-6.69833-6.30185c-0.09794,0-0.19854,0.00446-0.29968,0.00998
	C32.34102,0.57902,31.09292,0,30.01473,0c-8.2539,0-12.1972,10.31842-13.43361,15.56176
	c-3.20722,0.99368-5.48562,1.7001-5.77683,1.79154c-1.79038,0.56189-1.84662,0.61812-2.0814,2.30492
	c-0.17774,1.2771-4.86192,37.50301-4.86192,37.50301L40.36187,64l19.77716-4.27872
	C60.13903,59.72128,53.19662,12.78319,53.15259,12.46124z M33.07817,10.09538c0,0.12596-0.00107,0.24144-0.00201,0.35823
	c-2.0092,0.62195-4.19145,1.29756-6.37889,1.97493c1.22834-4.74013,3.53018-7.02961,5.5434-7.8935
	C32.74799,5.80711,33.07817,7.63249,33.07817,10.09538z M29.78786,2.21423c0.3566,0,0.71521,0.12075,1.05904,0.35729
	c-2.64555,1.24465-5.48073,4.37989-6.67832,10.64c-1.75006,0.542-3.46042,1.07175-5.04216,1.56172
	C20.52932,9.99785,23.85943,2.21423,29.78786,2.21423z M31.20984,30.1237c0,0-2.13685-1.14072-4.7557-1.14072
	c-3.8399,0-4.0328,2.40998-4.0328,3.01706c0,3.31316,8.63586,4.58241,8.63586,12.34255c0,6.10529-3.87204,10.03707-9.09366,10.03707
	c-6.26595,0-9.46994-3.89965-9.46994-3.89965l1.67767-5.54296c0,0,3.29364,2.82771,6.07315,2.82771
	c1.81552,0,2.55458-1.42992,2.55458-2.47425c0-4.3219-7.08535-4.5147-7.08535-11.61611
	c0-5.97675,4.28977-11.76071,12.94963-11.76071c3.33673,0,4.98499,0.95596,4.98499,0.95596L31.20984,30.1237z M35.24113,9.7834
	c0.00072-0.21746,0.0016-0.4316,0.0016-0.66582c0-2.04095-0.28308-3.68432-0.73777-4.9869
	c1.82578,0.22932,3.042,2.30655,3.82415,4.69708C37.41278,9.1113,36.37071,9.43376,35.24113,9.7834z"/>
</svg>
