<?xml version="1.0" encoding="utf-8"?>
<!-- Generator: Adobe Illustrator 19.1.0, SVG Export Plug-In . SVG Version: 6.00 Build 0)  -->
<!DOCTYPE svg PUBLIC "-//W3C//DTD SVG 1.1//EN" "http://www.w3.org/Graphics/SVG/1.1/DTD/svg11.dtd">
<svg version="1.1" id="Layer_1" xmlns="http://www.w3.org/2000/svg" xmlns:xlink="http://www.w3.org/1999/xlink" x="0px" y="0px"
	 width="64px" height="64px" viewBox="0 0 64 64" enable-background="new 0 0 64 64" xml:space="preserve">
<path fill="#444444" d="M32,0C14.32682,0,0,14.32682,0,32c0,17.67302,14.32682,32,32,32s32-14.32698,32-32
	C64,14.32682,49.67318,0,32,0z M23.11117,39.111C19.18376,39.111,16,35.92725,16,32c0-3.92741,3.18376-7.11117,7.11117-7.11117
	s7.111,3.18376,7.111,7.11117C30.22217,35.92725,27.03857,39.111,23.11117,39.111z M40.88884,39.111
	c-3.92741,0-7.111-3.18376-7.111-7.111c0-3.92741,3.18359-7.11117,7.111-7.11117S48,28.07259,48,32
	C48,35.92725,44.81624,39.111,40.88884,39.111z"/>
</svg>
