<?xml version="1.0" encoding="utf-8"?>
<!-- Generator: Adobe Illustrator 19.1.0, SVG Export Plug-In . SVG Version: 6.00 Build 0)  -->
<!DOCTYPE svg PUBLIC "-//W3C//DTD SVG 1.1//EN" "http://www.w3.org/Graphics/SVG/1.1/DTD/svg11.dtd">
<svg version="1.1" id="Layer_1" xmlns="http://www.w3.org/2000/svg" xmlns:xlink="http://www.w3.org/1999/xlink" x="0px" y="0px"
	 width="64px" height="64px" viewBox="0 0 64 64" enable-background="new 0 0 64 64" xml:space="preserve">
<path fill="#444444" d="M56,0H8C3.58171,0,0,3.58171,0,8v48c0,4.41829,3.58171,8,8,8h48c4.41829,0,8-3.58171,8-8V8
	C64,3.58171,60.41829,0,56,0z M36.54866,44.77002c0,0-2.16471,0.26155-4.54866,0.26155s-4.57585-0.24202-4.57585-0.24202
	C21.85482,44.15657,16,42.00488,16,32.39404c0-2.73812,0.97721-4.97689,2.58154-6.73014
	c-0.25781-0.63444-1.11849-3.18441,0.24593-6.63753c0,0,2.10579-0.67432,6.89697,2.57113
	c2.00049-0.55631,4.146-0.83447,6.27881-0.84424c2.12988,0.00977,4.27555,0.28792,6.27897,0.84424
	c4.78825-3.24544,6.89014-2.57113,6.89014-2.57113c1.36833,3.45312,0.50749,6.00309,0.24968,6.63753
	C47.02946,27.41716,48,29.65593,48,32.39404C48,42.02897,42.13607,44.14909,36.54866,44.77002z"/>
</svg>
