<?xml version="1.0" encoding="utf-8"?>
<!-- Generator: Adobe Illustrator 19.1.0, SVG Export Plug-In . SVG Version: 6.00 Build 0)  -->
<!DOCTYPE svg PUBLIC "-//W3C//DTD SVG 1.1//EN" "http://www.w3.org/Graphics/SVG/1.1/DTD/svg11.dtd">
<svg version="1.1" id="Layer_1" xmlns="http://www.w3.org/2000/svg" xmlns:xlink="http://www.w3.org/1999/xlink" x="0px" y="0px"
	 width="64px" height="64px" viewBox="0 0 64 64" enable-background="new 0 0 64 64" xml:space="preserve">
<path fill="#444444" d="M56,0H8C3.58179,0,0,3.58167,0,8v48c0,4.41821,3.58179,8,8,8h48c4.41833,0,8-3.58179,8-8V8
	C64,3.58167,60.41833,0,56,0z M47.80396,45.94983c0,0-3.81885,1.2832-5.22974,1.36157
	c-0.11047,0.00671-0.37048-0.66699-0.57739-1.49622c-0.20703-0.8291-0.72253-2.29358-1.14575-3.25391
	c-0.82666-1.87573-1.89258-5.41895-3.00916-9.99976c-0.38281-1.57141-0.80945-3.06567-0.94751-3.32056
	c-0.35693-0.65808-0.56921,1.42371-0.7594,7.44751c-0.08826,2.79358-0.35022,5.72205-0.58154,6.50781l-0.42126,1.42847
	c-3.81714,0.35327-2.31494,0.21436-6.271,0.57996c-1.25537-1.57434-5.47644-8.27942-5.47644-8.27942
	c-0.00232,0.0022,0.72363,6.09131,0.58948,6.60327c-0.21704,0.82959-3.21008,2.00574-4.97607,1.95593
	c-1.46667-0.04199-1.77869-0.6499-2.24536-4.37964c-0.79675-6.36121-0.86755-7.83667-0.63965-13.30859l0.22668-5.43994
	l1.39648-0.37366c2.24878-0.60156,4.75073-0.48572,5.43738,0.25146c0.31995,0.34375,1.85486,3.09351,3.4104,6.11096l2.82849,5.48596
	l0.40063-3.01587c0.59009-4.4447,2.34851-10.39502,3.86377-13.07397l0.59521-1.05273l2.8031,0.0686
	c2.30627,0.05652,2.91394,0.17932,3.42786,0.69336c0.79651,0.79639,2.30054,6.49121,4.51318,17.08594
	c0.26318,1.2616,0.68799,2.8866,0.94421,3.61169c0.25586,0.72473,0.46497,1.5813,0.46497,1.9032s0.35718,1.67932,0.7937,3.01636
	C48.02148,45.52576,48.18494,46.33044,47.80396,45.94983z"/>
</svg>
