<?xml version="1.0" encoding="utf-8"?>
<!-- Generator: Adobe Illustrator 19.1.0, SVG Export Plug-In . SVG Version: 6.00 Build 0)  -->
<!DOCTYPE svg PUBLIC "-//W3C//DTD SVG 1.1//EN" "http://www.w3.org/Graphics/SVG/1.1/DTD/svg11.dtd">
<svg version="1.1" id="Layer_1" xmlns="http://www.w3.org/2000/svg" xmlns:xlink="http://www.w3.org/1999/xlink" x="0px" y="0px"
	 width="64px" height="64px" viewBox="0 0 64 64" enable-background="new 0 0 64 64" xml:space="preserve">
<path fill="#444444" d="M0,8v48c0,4.41828,3.58172,8,8,8h48c4.41828,0,8-3.58172,8-8V8c0-4.41828-3.58172-8-8-8H8
	C3.58172,0,0,3.58172,0,8z M26,48H16c-1.10457,0-2-0.89543-2-2V18c0-1.10457,0.89543-2,2-2h10c1.10457,0,2,0.89543,2,2v28
	C28,47.10457,27.10457,48,26,48z M47.99228,36.04629l-10-0.0386C36.89073,36.00344,36,35.10926,36,34.00771V18
	c0-1.10457,0.89543-2,2-2h10c1.10457,0,2,0.89543,2,2v16.0463C50,35.15389,49.09986,36.05056,47.99228,36.04629z"/>
</svg>
