<?xml version="1.0" encoding="utf-8"?>
<!-- Generator: Adobe Illustrator 19.1.0, SVG Export Plug-In . SVG Version: 6.00 Build 0)  -->
<!DOCTYPE svg PUBLIC "-//W3C//DTD SVG 1.1//EN" "http://www.w3.org/Graphics/SVG/1.1/DTD/svg11.dtd">
<svg version="1.1" id="Layer_1" xmlns="http://www.w3.org/2000/svg" xmlns:xlink="http://www.w3.org/1999/xlink" x="0px" y="0px"
	 width="64px" height="64px" viewBox="0 0 64 64" enable-background="new 0 0 64 64" xml:space="preserve">
<path data-color="color-2" fill="#444444" d="M26.89549,25.0297h2.9571c0,0-2.25303-11.19472-13.16612-11.19472S0,22.63586,0,31.71837
	s5.13971,18.44664,15.9824,18.44664s14.43344-9.9978,14.43344-13.72937h-3.16832c0,0-1.26733,11.05391-10.77228,11.05391
	S3.0275,39.32233,3.0275,31.78878s4.9989-15.13751,13.58856-15.13751S26.89549,25.0297,26.89549,25.0297z"/>
<path fill="#444444" d="M57.31133,30.76788c4.36523-1.33773,5.21012-4.34176,5.21012-7.32233
	c0-3.12139-1.54896-8.58966-7.81518-8.58966s-19.15071,0-19.15071,0v34.28823c0,0,14.9967,0,19.36193,0S64,44.70847,64,39.77998
	C64,35.53207,62.00512,31.82398,57.31133,30.76788z M41.54015,19.71397h10.34983c2.55342,0,4.62339,2.06996,4.62339,4.62338
	c0,2.55346-2.06996,4.62342-4.62339,4.62342H41.54015V19.71397z M52.61754,44.35643H41.54015V33.65456h11.07738
	c2.95524,0,5.35094,2.3957,5.35094,5.35094S55.57278,44.35643,52.61754,44.35643z"/>
</svg>
