<?xml version="1.0" encoding="utf-8"?>
<!-- Generator: Adobe Illustrator 19.1.0, SVG Export Plug-In . SVG Version: 6.00 Build 0)  -->
<!DOCTYPE svg PUBLIC "-//W3C//DTD SVG 1.1//EN" "http://www.w3.org/Graphics/SVG/1.1/DTD/svg11.dtd">
<svg version="1.1" id="Layer_1" xmlns="http://www.w3.org/2000/svg" xmlns:xlink="http://www.w3.org/1999/xlink" x="0px" y="0px"
	 width="64px" height="64px" viewBox="0 0 64 64" enable-background="new 0 0 64 64" xml:space="preserve">
<path fill="#444444" d="M64,12.15122c-2.3547,1.04429-4.88519,1.75024-7.54142,2.06756
	c2.71109-1.62497,4.79306-4.19822,5.77335-7.26437c-2.5369,1.50474-5.34699,2.59748-8.33792,3.1864
	c-2.39515-2.552-5.80765-4.14656-9.58407-4.14656c-7.2518,0-13.13075,5.87898-13.13075,13.13008
	c0,1.02921,0.11614,2.0312,0.33993,2.99229C20.60658,21.56908,10.93152,16.34167,4.4554,8.39764
	c-1.13025,1.93932-1.77767,4.19478-1.77767,6.60115c0,4.55532,2.31811,8.57431,5.84124,10.92901
	c-2.15237-0.06812-4.17697-0.65887-5.94733-1.64236c-0.00092,0.05487-0.00113,0.10975-0.00113,0.16506
	c0,6.36192,4.52603,11.6689,10.5328,12.87507c-1.1019,0.29993-2.26188,0.46043-3.45934,0.46043
	c-0.8461,0-1.66865-0.08231-2.47039-0.23548c1.67092,5.21646,6.52001,9.01278,12.26571,9.11885
	c-4.49382,3.52154-10.15539,5.62065-16.30709,5.62065c-1.05986,0-2.10506-0.06218-3.13221-0.18335
	c5.81086,3.72544,12.71263,5.89909,20.12764,5.89909c24.15165,0,37.35853-20.00762,37.35853-37.35888
	c0-0.56926-0.01278-1.13552-0.03794-1.69859C60.01348,17.09698,62.2397,14.78435,64,12.15122z"/>
</svg>
