<?xml version="1.0" encoding="utf-8"?>
<!-- Generator: Adobe Illustrator 19.1.0, SVG Export Plug-In . SVG Version: 6.00 Build 0)  -->
<!DOCTYPE svg PUBLIC "-//W3C//DTD SVG 1.1//EN" "http://www.w3.org/Graphics/SVG/1.1/DTD/svg11.dtd">
<svg version="1.1" id="Layer_1" xmlns="http://www.w3.org/2000/svg" xmlns:xlink="http://www.w3.org/1999/xlink" x="0px" y="0px"
	 width="64px" height="64px" viewBox="0 0 64 64" enable-background="new 0 0 64 64" xml:space="preserve">
<path fill="#444444" d="M32,0C14.4,0,0,14.4,0,32s14.4,32,32,32s32-14.4,32-32S49.75999,0,32,0z M46.72,46.24
	c-0.64,0.96-1.76,1.28-2.72,0.64c-7.52-4.64-16.96-5.6-28.16-3.04c-1.12,0.32-2.08-0.48-2.4-1.44c-0.32-1.12,0.48-2.08,1.44-2.4
	c12.16-2.72,22.72-1.6,31.04,3.52C47.04,44,47.2,45.28,46.72,46.24z M50.56,37.44c-0.8,1.12-2.24001,1.6-3.36,0.8
	c-8.64-5.28-21.76-6.88-31.84-3.68c-1.28,0.32-2.72-0.32-3.04-1.6c-0.32-1.28,0.32-2.72,1.6-3.04c11.68-3.52,26.08-1.76,36,4.32
	C50.88,34.72001,51.36,36.32,50.56,37.44z M50.88,28.48c-10.24-6.08-27.36-6.72-37.12-3.68c-1.6,0.48-3.2-0.48-3.68-1.92
	c-0.48-1.6,0.48-3.2,1.92-3.68c11.36-3.36,30.08-2.72,41.92,4.32c1.44,0.8,1.92,2.72,1.12,4.16C54.24,28.8,52.32,29.28,50.88,28.48z
	"/>
</svg>
