<?xml version="1.0" encoding="utf-8"?>
<!-- Generator: Adobe Illustrator 19.1.0, SVG Export Plug-In . SVG Version: 6.00 Build 0)  -->
<!DOCTYPE svg PUBLIC "-//W3C//DTD SVG 1.1//EN" "http://www.w3.org/Graphics/SVG/1.1/DTD/svg11.dtd">
<svg version="1.1" id="Layer_1" xmlns="http://www.w3.org/2000/svg" xmlns:xlink="http://www.w3.org/1999/xlink" x="0px" y="0px"
	 width="64px" height="64px" viewBox="0 0 64 64" enable-background="new 0 0 64 64" xml:space="preserve">
<path fill="#444444" d="M32,0C14.32682,0,0,14.32682,0,32c0,17.67302,14.32682,32,32,32s32-14.32698,32-32
	C64,14.32682,49.67318,0,32,0z M44.22998,40.42009c-4.06185,8.80078-14.25928,8.80111-19.4279,5.70003
	c-4.41553-2.64925-11.15902-10.99854-3.69287-21.19417c0.31608-0.38639,1.07373-0.35124,0.90316,0.81787
	c-0.12109,0.82975-1.20426,6.78874,0.86296,9.37777c0.94336,1.2946,1.16406,0.40137,1.16406,0.40137
	s-0.16048-8.67025,6.54297-15.25326c4.25488-4.01416,10.15544-4.65641,11.3195-4.0944
	C43.35905,16.87874,49.28776,29.46175,44.22998,40.42009z"/>
</svg>
