<?xml version="1.0" encoding="utf-8"?>
<!-- Generator: Adobe Illustrator 19.1.0, SVG Export Plug-In . SVG Version: 6.00 Build 0)  -->
<!DOCTYPE svg PUBLIC "-//W3C//DTD SVG 1.1//EN" "http://www.w3.org/Graphics/SVG/1.1/DTD/svg11.dtd">
<svg version="1.1" id="Layer_1" xmlns="http://www.w3.org/2000/svg" xmlns:xlink="http://www.w3.org/1999/xlink" x="0px" y="0px"
	 width="64px" height="64px" viewBox="0 0 64 64" enable-background="new 0 0 64 64" xml:space="preserve">
<path fill="#444444" d="M32,0C14.32682,0,0,14.32682,0,32c0,17.67302,14.32682,32,32,32s32-14.32698,32-32
	C64,14.32682,49.67318,0,32,0z M40.37549,40.88867c-6.34114,0-8.54053-2.85905-9.71322-6.41439l-1.17318-3.66553
	c-0.87972-2.67578-1.90609-4.76514-5.13151-4.76514c-2.23616,0-4.50863,1.61279-4.50863,6.12126
	c0,3.51904,1.79606,5.71843,4.32536,5.71843c2.85872,0,4.76497-2.12598,4.76497-2.12598l1.17318,3.18864
	c0,0-1.97965,1.94271-6.12142,1.94271C18.85921,40.88867,16,37.8833,16,32.31152c0-5.7915,2.85921-9.2002,8.2474-9.2002
	c4.87516,0,7.33122,1.75928,8.8706,6.52458l1.20947,3.6652c0.88005,2.67595,2.41927,4.61865,6.12142,4.61865
	c2.49268,0,3.81201-0.54996,3.81201-1.90592c0-1.06315-0.62289-1.83268-2.49219-2.27279l-2.49284-0.58626
	c-3.04216-0.73307-4.25163-2.30941-4.25163-4.80192c0-3.99528,3.22559-5.24154,6.52441-5.24154
	c3.73893,0,6.01139,1.35612,6.30453,4.65495l-3.6652,0.43994c-0.14681-1.57617-1.09977-2.236-2.85921-2.236
	c-1.61296,0-2.60238,0.73307-2.60238,1.97933c0,1.09977,0.4764,1.75944,2.08903,2.12614l2.34587,0.51302
	C46.31364,31.32194,48,32.86165,48,35.83057C48,39.49593,44.92106,40.88867,40.37549,40.88867z"/>
</svg>
