<?xml version="1.0" encoding="utf-8"?>
<!-- Generator: Adobe Illustrator 19.1.0, SVG Export Plug-In . SVG Version: 6.00 Build 0)  -->
<!DOCTYPE svg PUBLIC "-//W3C//DTD SVG 1.1//EN" "http://www.w3.org/Graphics/SVG/1.1/DTD/svg11.dtd">
<svg version="1.1" id="Layer_1" xmlns="http://www.w3.org/2000/svg" xmlns:xlink="http://www.w3.org/1999/xlink" x="0px" y="0px"
	 width="64px" height="64px" viewBox="0 0 64 64" enable-background="new 0 0 64 64" xml:space="preserve">
<path fill="#444444" d="M32,0C14.32682,0,0,14.32682,0,32c0,17.67302,14.32682,32,32,32s32-14.32698,32-32
	C64,14.32682,49.67318,0,32,0z M41.45817,37.3571c-4.35059,5.65299-8.0319,8.48063-11.04215,8.48063
	c-1.86589,0-3.44434-1.72086-4.73389-5.16471c-0.86084-3.15674-1.72103-6.31332-2.58252-9.47022
	c-0.95785-3.44206-1.98438-5.16504-3.08317-5.16504c-0.23958,0-1.07715,0.50374-2.51155,1.50684L16,25.60579
	c1.57926-1.38737,3.13688-2.77458,4.66943-4.1639c2.10628-1.81934,3.68864-2.77669,4.74251-2.87337
	c2.48942-0.23942,4.02246,1.46273,4.59766,5.10596c0.62175,3.93132,1.05241,6.37598,1.29378,7.33285
	c0.71875,3.26172,1.50879,4.89095,2.37093,4.89095c0.66911,0,1.67578-1.05778,3.01758-3.17448
	c1.33936-2.11507,2.05713-3.72461,2.15397-4.83089c0.19157-1.82568-0.52669-2.74056-2.15397-2.74056
	c-0.76628,0-1.55632,0.17627-2.36882,0.52458c1.57324-5.15039,4.5778-7.65169,9.01237-7.50895
	c3.28825,0.09635,4.83887,2.22852,4.64909,6.39648C47.8418,27.67904,45.66666,31.94352,41.45817,37.3571z"/>
</svg>
