<?xml version="1.0" encoding="utf-8"?>
<!-- Generator: Adobe Illustrator 19.1.0, SVG Export Plug-In . SVG Version: 6.00 Build 0)  -->
<!DOCTYPE svg PUBLIC "-//W3C//DTD SVG 1.1//EN" "http://www.w3.org/Graphics/SVG/1.1/DTD/svg11.dtd">
<svg version="1.1" id="Layer_1" xmlns="http://www.w3.org/2000/svg" xmlns:xlink="http://www.w3.org/1999/xlink" x="0px" y="0px"
	 width="64px" height="64px" viewBox="0 0 64 64" enable-background="new 0 0 64 64" xml:space="preserve">
<path fill="#444444" d="M31.25667,27.55664c-2.26448-4.02539-4.70671-7.40967-5.06689-7.90381
	c-3.82341,1.80338-6.68132,5.32812-7.56755,9.56885C19.2334,29.22982,24.86393,29.25423,31.25667,27.55664z"/>
<path fill="#444444" d="M32.9554,32.14014c0.17822-0.05762,0.35775-0.11165,0.53857-0.1626
	c-0.3431-0.77637-0.71663-1.55355-1.10791-2.31917c-6.82487,2.04248-13.44759,1.9572-14.04557,1.94482
	c-0.00423,0.13884-0.007,0.27783-0.007,0.41764c0,3.51009,1.33057,6.71501,3.51335,9.13786
	C22.15641,40.62874,25.90723,34.41846,32.9554,32.14014z"/>
<path fill="#444444" d="M41.05941,21.79801C38.646,19.6569,35.47249,18.35433,32,18.35433
	c-1.1027,0-2.17497,0.13216-3.20264,0.37988c0.37777,0.50586,2.85986,3.8859,5.09945,8.00049
	C38.75635,24.91325,40.81364,22.14811,41.05941,21.79801z"/>
<path fill="#444444" d="M34.33284,34.2679c-7.70833,2.68604-10.47542,8.03158-10.72135,8.53434
	c2.31706,1.80696,5.22917,2.88509,8.38851,2.88509c1.89323,0,3.69759-0.38721,5.33838-1.08626
	c-0.20329-1.19889-0.99675-5.37777-2.91536-10.36377C34.3929,34.24756,34.36279,34.25732,34.33284,34.2679z"/>
<path fill="#444444" d="M32,0C14.32682,0,0,14.32682,0,32c0,17.67302,14.32682,32,32,32s32-14.32698,32-32
	C64,14.32682,49.67318,0,32,0z M32,48c-8.82243,0-16-7.17757-16-16s7.17757-16,16-16s16,7.17757,16,16S40.82243,48,32,48z"/>
<path fill="#444444" d="M34.94743,28.76693c0.31803,0.65104,0.62288,1.31315,0.90674,1.97949
	c0.10059,0.23633,0.19857,0.47135,0.29443,0.7054c4.54736-0.57178,9.06559,0.34456,9.51627,0.43994
	c-0.03011-3.22575-1.18278-6.18782-3.0861-8.51335C42.29053,23.76823,40.00049,26.70394,34.94743,28.76693z"/>
<path fill="#444444" d="M36.98096,33.60596c1.78743,4.91195,2.51497,8.9126,2.65495,9.74398
	c3.06592-2.07308,5.24854-5.35709,5.85775-9.15983C45.02604,34.04248,41.26351,32.92041,36.98096,33.60596z"/>
</svg>
