<?xml version="1.0" encoding="utf-8"?>
<!-- Generator: Adobe Illustrator 19.1.0, SVG Export Plug-In . SVG Version: 6.00 Build 0)  -->
<!DOCTYPE svg PUBLIC "-//W3C//DTD SVG 1.1//EN" "http://www.w3.org/Graphics/SVG/1.1/DTD/svg11.dtd">
<svg version="1.1" id="Layer_1" xmlns="http://www.w3.org/2000/svg" xmlns:xlink="http://www.w3.org/1999/xlink" x="0px" y="0px"
	 width="64px" height="64px" viewBox="0 0 64 64" enable-background="new 0 0 64 64" xml:space="preserve">
<path data-color="color-2" fill="#444444" d="M10.57537,12.39575c0,0,0,0,0.00394,0h6.0064c0.34414,0,0.62096-0.28031,0.62165-0.62187
	c0-0.00215-0.07293-5.15005-0.07293-6.58162V5.1753c0-1.17571,0.24676-2.20082,0.6766-3.05981l0.20539-0.38579
	c-0.02295,0.00388-0.04595,0.01514-0.06878,0.03803L6.2771,13.34076c-0.02285,0.0188-0.03712,0.04315-0.04369,0.06814
	c0.24142-0.11947,0.57145-0.28274,0.61804-0.3032C7.86779,12.64709,9.10022,12.39575,10.57537,12.39575z"/>
<path fill="#444444" d="M57.31268,11.13556c-0.47711-2.55408-1.99561-3.81268-3.36847-4.30756
	c-1.4812-0.53534-4.48468-1.0899-8.25836-1.53467c-3.03601-0.3576-6.60443-0.32916-8.75983-0.26245
	c-0.25873-1.77191-1.50153-3.39062-2.89209-3.95105c-3.7052-1.49133-9.42981-1.13104-10.89966-0.71912
	c-1.16791,0.32642-2.46063,0.99542-3.18018,2.02631c-0.48248,0.68854-0.79468,1.57074-0.79712,2.80316
	c0,0.69757,0.01941,2.3407,0.03717,3.8006c0.0177,1.46448,0.03687,2.77423,0.03687,2.78308
	c-0.00073,1.30383-1.05737,2.36493-2.36688,2.36664h-6.00739c-1.28137,0-2.2605,0.21527-3.00836,0.55511
	c-0.74902,0.34015-1.27954,0.79865-1.68262,1.34106c-0.80237,1.07709-0.94165,2.40631-0.93835,3.76276
	c0,0,0.01184,1.10846,0.27887,3.25385C5.72833,24.71338,7.52856,36.31,9.23846,39.83685
	c0.66302,1.37225,1.10461,1.94379,2.4071,2.54858c2.9021,1.24243,9.53088,2.62476,12.6377,3.02057
	c3.10114,0.39673,5.04755,1.2309,6.20764-1.20123c0.00385-0.00604,0.23236-0.6051,0.54657-1.48389
	c1.00708-3.05164,1.14722-5.75934,1.14722-7.71875c0-0.19916,0.29236-0.20831,0.29236,0c0,1.38336-0.26416,6.27863,3.43365,7.59198
	c1.45984,0.51776,4.48816,0.97925,7.56525,1.33997c2.78223,0.3197,4.80133,1.41461,4.80133,8.55267
	c0,4.34283-0.91211,4.93823-5.68066,4.93823c-3.86548,0-5.33868,0.1001-5.33868-2.97083c0-2.48199,2.45477-2.22186,4.27411-2.22186
	c0.81262,0,0.22278-0.60449,0.22278-2.13574c0-1.52319,0.9527-2.40381,0.05164-2.42609
	c-6.29108-0.17316-9.99274-0.0072-9.99274,7.86066c0,7.14264,2.7334,8.46887,11.66223,8.46887
	c7.00061,0,9.46832-0.22925,12.35901-9.19824c0.57214-1.77051,1.95538-7.17395,2.7926-16.24622
	C59.15668,32.81909,58.1283,15.50537,57.31268,11.13556z M45.10925,30.27271c-0.86493-0.03027-1.69684,0.02429-2.47247,0.14899
	c0.21826-1.76318,0.94604-3.9267,3.52411-3.83612c2.85388,0.09814,3.25378,2.79553,3.26398,4.62256
	C48.22144,30.67163,46.73181,30.32965,45.10925,30.27271z"/>
</svg>
