<?xml version="1.0" encoding="utf-8"?>
<!-- Generator: Adobe Illustrator 19.1.0, SVG Export Plug-In . SVG Version: 6.00 Build 0)  -->
<!DOCTYPE svg PUBLIC "-//W3C//DTD SVG 1.1//EN" "http://www.w3.org/Graphics/SVG/1.1/DTD/svg11.dtd">
<svg version="1.1" id="Layer_1" xmlns="http://www.w3.org/2000/svg" xmlns:xlink="http://www.w3.org/1999/xlink" x="0px" y="0px"
	 width="64px" height="64px" viewBox="0 0 64 64" enable-background="new 0 0 64 64" xml:space="preserve">
<path fill="#444444" d="M26.32682,32.88184h-5.77669v5.30371h5.51042c0.82812-0.02311,2.3584-0.28304,2.3584-2.57829
	C28.41895,32.85449,26.32682,32.88184,26.32682,32.88184z"/>
<path fill="#444444" d="M41.11637,29.82275c-3.06559,0-3.49252,3.05908-3.49252,3.05908h6.51921
	C44.14307,32.88184,44.18196,29.82275,41.11637,29.82275z"/>
<path fill="#444444" d="M27.73063,27.45866c0-2.06462-1.40381-2.06462-1.40381-2.06462H25.5835h-5.03337v4.42871h5.41878
	C26.90479,29.82275,27.73063,29.52344,27.73063,27.45866z"/>
<path fill="#444444" d="M32,0C14.32682,0,0,14.32682,0,32c0,17.67302,14.32682,32,32,32s32-14.32698,32-32
	C64,14.32682,49.67318,0,32,0z M36.76953,23.03581h8.18766v2.4445h-8.18766V23.03581z M32.63086,35.85498
	c0,6.05648-6.30404,5.85775-6.30404,5.85775h-5.77669h-0.1696H16V21.86686h4.38053h0.1696h5.77669
	c3.13818,0,5.61588,1.73307,5.61588,5.28434s-3.02816,3.7762-3.02816,3.7762C32.90609,30.92741,32.63086,35.85498,32.63086,35.85498
	z M47.94613,35.53076H37.66276c0,3.68669,3.49251,3.45312,3.49251,3.45312c3.29834,0,3.18196-2.13395,3.18196-2.13395h3.49252
	c0,5.66537-6.79086,5.27751-6.79086,5.27751c-8.14876,0-7.625-7.58643-7.625-7.58643s-0.00684-7.625,7.62484-7.625
	C49.07113,26.91602,47.94613,35.53076,47.94613,35.53076z"/>
</svg>
