<?xml version="1.0" encoding="utf-8"?>
<!-- Generator: Adobe Illustrator 19.1.0, SVG Export Plug-In . SVG Version: 6.00 Build 0)  -->
<!DOCTYPE svg PUBLIC "-//W3C//DTD SVG 1.1//EN" "http://www.w3.org/Graphics/SVG/1.1/DTD/svg11.dtd">
<svg version="1.1" id="Layer_1" xmlns="http://www.w3.org/2000/svg" xmlns:xlink="http://www.w3.org/1999/xlink" x="0px" y="0px"
	 width="64px" height="64px" viewBox="0 0 64 64" enable-background="new 0 0 64 64" xml:space="preserve">
<path fill="#444444" d="M32,0C14.32678,0,0,14.32678,0,32c0,17.67297,14.32678,32,32,32s32-14.32703,32-32
	C64,14.32678,49.67322,0,32,0z M24.28003,46c-7.73999,0-14-6.26001-14-14s6.26001-14,14-14c3.78003,0,6.93994,1.38,9.38,3.66003
	l-3.80005,3.65991c-1.04004-1-2.85999-2.15991-5.57996-2.15991C19.5,23.16003,15.59998,27.12,15.59998,32
	s3.90002,8.83997,8.68005,8.83997c5.53992,0,7.62-3.97998,7.93994-6.03992H24V30h13.5c0.12,0.69995,0.21997,1.40002,0.21997,2.31995
	C37.71997,40.31995,32.35999,46,24.28003,46z M54,34h-4v4h-4v-4h-4v-4h4v-4h4v4h4V34z"/>
</svg>
