<?xml version="1.0" encoding="utf-8"?>
<!-- Generator: Adobe Illustrator 19.1.0, SVG Export Plug-In . SVG Version: 6.00 Build 0)  -->
<!DOCTYPE svg PUBLIC "-//W3C//DTD SVG 1.1//EN" "http://www.w3.org/Graphics/SVG/1.1/DTD/svg11.dtd">
<svg version="1.1" id="Layer_1" xmlns="http://www.w3.org/2000/svg" xmlns:xlink="http://www.w3.org/1999/xlink" x="0px" y="0px"
	 width="64px" height="64px" viewBox="0 0 64 64" enable-background="new 0 0 64 64" xml:space="preserve">
<path fill-rule="evenodd" clip-rule="evenodd" fill="#444444" d="M62.25726,24.76178
	c-1.34692-0.57731-7.1206,0.06415-8.72435-1.38991c-1.1333-1.04778-1.20491-2.94487-1.64651-5.47411
	c-0.73975-4.23691-1.04778-5.19612-1.81757-6.86402C47.26762,5.08921,40.55556,0,34.45907,0H20.32476
	C9.20548,0,0.1176,9.10926,0.1176,20.22854v23.58571C0.1176,54.91214,9.20548,64,20.32476,64h23.22218
	c11.11928,0,20.14301-9.08786,20.20716-20.18576l0.1283-16.33678C63.8824,27.47746,63.8824,25.45833,62.25726,24.76178z
	 M20.58136,16.52924h11.2048c2.13833,0,3.87036,1.73203,3.87036,3.84899c0,2.11694-1.73203,3.87036-3.87036,3.87036h-11.2048
	c-2.13833,0-3.87038-1.75342-3.87038-3.87036C16.71099,18.26127,18.44304,16.52924,20.58136,16.52924z M43.3545,47.36385H20.58136
	c-2.13833,0-3.87038-1.75342-3.87038-3.84897c0-2.11695,1.73205-3.84899,3.87038-3.84899H43.3545
	c2.11694,0,3.84897,1.73203,3.84897,3.84899C47.20347,45.61043,45.47144,47.36385,43.3545,47.36385z"/>
</svg>
