<?xml version="1.0" encoding="utf-8"?>
<!-- Generator: Adobe Illustrator 19.1.0, SVG Export Plug-In . SVG Version: 6.00 Build 0)  -->
<!DOCTYPE svg PUBLIC "-//W3C//DTD SVG 1.1//EN" "http://www.w3.org/Graphics/SVG/1.1/DTD/svg11.dtd">
<svg version="1.1" id="Layer_1" xmlns="http://www.w3.org/2000/svg" xmlns:xlink="http://www.w3.org/1999/xlink" x="0px" y="0px"
	 width="64px" height="64px" viewBox="0 0 64 64" enable-background="new 0 0 64 64" xml:space="preserve">
<path fill="#444444" d="M63.9978,24.90561c0-2.44932-1.05441-17.01133-1.05441-17.01133c0-2.30833-0.85559-3.8554-1.92982-4.90986
	C59.96312,1.9142,58.416,1.05466,56.1079,1.05466c0,0-14.56223-1.05446-17.01547-1.05446
	c-3.51914,0-5.86688-0.10162-10.27679,4.31229C26.67118,6.45298,2.90225,30.22565,1.89843,31.22552
	c-1.00014,1.00013-4.38266,4.94531,1.38675,10.71449l18.77286,18.77682c5.77314,5.77315,9.7185,2.38288,10.71841,1.38302
	c0.99987-1.00032,24.77253-24.77299,26.91303-26.91352C64.10339,30.77246,63.9978,28.42872,63.9978,24.90561z M38.59401,32.75898
	l8.14463,3.86801l-2.99567,5.36008l-7.53319-4.91932c-0.17464-0.11527-0.37302-0.17464-0.5714-0.17464
	c-0.17464,0-0.34883,0.04356-0.50766,0.13459c-0.33739,0.19441-0.5318,0.56351-0.5041,0.95193l0.62288,8.91044h-6.02981
	c0,0-0.01608,0-0.0277,0c0.02352-0.07563,0.49572-8.9144,0.49572-8.9144c0.02775-0.38842-0.16649-0.75748-0.50387-0.95193
	c-0.34135-0.19442-0.7577-0.1786-1.07883,0.03959l-7.32332,4.97477l-3.26909-5.20044l8.21589-4.07869
	c0.35302-0.16626,0.5791-0.52369,0.5791-0.91626c0-0.39284-0.22608-0.74982-0.5791-0.91631l-8.14837-3.86819l2.99504-5.35923
	l7.52985,4.92306c0.32113,0.21423,0.73748,0.23779,1.07883,0.03959c0.33739-0.19441,0.53162-0.56329,0.50387-0.95216
	l-0.61892-8.91021h6.03378l-0.47595,8.91021c-0.0277,0.38887,0.16671,0.75775,0.5041,0.95216
	c0.34095,0.1982,0.76189,0.17464,1.07905-0.03959l7.32337-4.97495l3.26883,5.2013l-8.20797,4.07801
	c-0.35324,0.16649-0.57932,0.52347-0.57932,0.91631C38.01468,32.23529,38.24076,32.59272,38.59401,32.75898z M52.52584,15.67139
	c-2.13302,0-3.85563-1.72657-3.85563-3.85522c0-2.12887,1.72261-3.85148,3.85563-3.85148c2.12072,0,3.84337,1.72261,3.84337,3.85148
	C56.36921,13.94482,54.64656,15.67139,52.52584,15.67139z"/>
</svg>
