<?xml version="1.0" encoding="utf-8"?>
<!-- Generator: Adobe Illustrator 19.1.0, SVG Export Plug-In . SVG Version: 6.00 Build 0)  -->
<!DOCTYPE svg PUBLIC "-//W3C//DTD SVG 1.1//EN" "http://www.w3.org/Graphics/SVG/1.1/DTD/svg11.dtd">
<svg version="1.1" id="Layer_1" xmlns="http://www.w3.org/2000/svg" xmlns:xlink="http://www.w3.org/1999/xlink" x="0px" y="0px"
	 width="64px" height="64px" viewBox="0 0 64 64" enable-background="new 0 0 64 64" xml:space="preserve">
<path fill="#444444" d="M32,0C14.32682,0,0,14.32682,0,32c0,17.67302,14.32682,32,32,32s32-14.32698,32-32
	C64,14.32682,49.67318,0,32,0z M44.72412,25.47412c0.01253,0.28158,0.01904,0.56462,0.01904,0.84928
	c0,8.67562-6.60352,18.67936-18.67936,18.67936c-3.70752,0-7.15837-1.08675-10.0638-2.94954
	c0.51351,0.06071,1.03613,0.0918,1.56608,0.0918c3.07585,0,5.90674-1.04964,8.15365-2.81038
	c-2.87288-0.05306-5.29753-1.95117-6.13297-4.55941c0.40088,0.0765,0.81217,0.11768,1.23519,0.11768
	c0.5988,0,1.17871-0.08024,1.72966-0.23014c-3.00326-0.60303-5.26628-3.25651-5.26628-6.4375c0-0.02767,0-0.05518,0.00049-0.08252
	c0.88525,0.4917,1.89746,0.78711,2.97363,0.82113c-1.76155-1.17741-2.92057-3.18685-2.92057-5.46452
	c0-1.20312,0.32373-2.33089,0.88883-3.30062c3.23812,3.97201,8.07552,6.58578,13.5319,6.85954
	c-0.11198-0.48047-0.17009-0.98161-0.17009-1.49609c0-3.62565,2.93962-6.5651,6.56543-6.5651
	c1.88818,0,3.5944,0.79736,4.79199,2.07324c1.49561-0.29443,2.90055-0.84082,4.16895-1.5931
	c-0.49007,1.53304-1.53109,2.81966-2.88656,3.63216c1.32812-0.15869,2.59326-0.51172,3.77067-1.03385
	C47.11979,23.39209,46.00667,24.5485,44.72412,25.47412z"/>
</svg>
