<?xml version="1.0" encoding="utf-8"?>
<!-- Generator: Adobe Illustrator 19.1.0, SVG Export Plug-In . SVG Version: 6.00 Build 0)  -->
<!DOCTYPE svg PUBLIC "-//W3C//DTD SVG 1.1//EN" "http://www.w3.org/Graphics/SVG/1.1/DTD/svg11.dtd">
<svg version="1.1" id="Layer_1" xmlns="http://www.w3.org/2000/svg" xmlns:xlink="http://www.w3.org/1999/xlink" x="0px" y="0px"
	 width="64px" height="64px" viewBox="0 0 64 64" enable-background="new 0 0 64 64" xml:space="preserve">
<path fill="#444444" d="M34.1333,22.40007h-9.06657v9.6001h9.06657V32c2.65104-0.00016,4.79997-2.14909,4.79997-4.79997
	C38.93327,24.54899,36.78434,22.40007,34.1333,22.40007z"/>
<path fill="#444444" d="M56,0H8C3.58171,0,0,3.58171,0,8v48c0,4.41829,3.58171,8,8,8h48c4.41829,0,8-3.58171,8-8V8
	C64,3.58171,60.41829,0,56,0z M34.1333,38.40007h-9.06657V48h-6.40006V16l15.46663,0.00016V16
	c6.18571,0,11.20003,5.01449,11.20003,11.20003S40.31901,38.40007,34.1333,38.40007z"/>
</svg>
