<?xml version="1.0" encoding="utf-8"?>
<!-- Generator: Adobe Illustrator 19.1.0, SVG Export Plug-In . SVG Version: 6.00 Build 0)  -->
<!DOCTYPE svg PUBLIC "-//W3C//DTD SVG 1.1//EN" "http://www.w3.org/Graphics/SVG/1.1/DTD/svg11.dtd">
<svg version="1.1" id="Layer_1" xmlns="http://www.w3.org/2000/svg" xmlns:xlink="http://www.w3.org/1999/xlink" x="0px" y="0px"
	 width="64px" height="64px" viewBox="0 0 64 64" enable-background="new 0 0 64 64" xml:space="preserve">
<path fill="#444444" d="M60.36934,29.17284C53.04663,21.84912,45.7229,14.529,38.40606,7.20285
	c-1.06998-1.05089-2.07548-2.2511-3.48745-2.85422c-1.40268-0.66608-3.02727-0.76017-4.53334-0.43935
	c-1.31787,0.30328-2.50811,1.02474-3.45974,1.97569c-8.23236,8.23494-16.46748,16.47075-24.70242,24.70225
	c-0.94819,0.94577-1.68824,2.12776-1.99066,3.4422c-0.67621,2.36704,0.1722,5.01793,1.90586,6.72131
	c5.80493,5.80752,11.61332,11.60661,17.41567,17.41739c1.29688,1.32216,3.12395,2.09164,4.97766,2.06979
	c4.74837,0.02684,9.4957-0.00344,14.24063,0.01514c2.13602,0.13607,4.29646-0.62668,5.80838-2.15717
	c5.25981-5.24466,10.50445-10.50791,15.76185-15.75582c0.85668-0.86855,1.78404-1.6817,2.48125-2.68959
	c1.28175-1.84549,1.49334-4.33001,0.74503-6.42061C62.9841,31.5516,61.58141,30.39405,60.36934,29.17284z M19.25998,38.5232
	c-0.89366,1.06345-2.46596,0.7846-3.67563,0.59641c-1.06586-0.85427-2.04192-1.84461-2.90204-2.90204
	c-0.49715-0.5854,0.13951-1.19694,0.53345-1.60945c5.41685-5.39243,10.81358-10.80773,16.21873-16.20944
	c0.72663-0.7065,1.38427-1.49351,2.19984-2.09989c0.7022-0.35112,1.24476,0.40907,1.71181,0.81212
	c0.99378,1.06018,2.12088,1.99995,3.03226,3.13563c0.47049,0.56116-0.04541,1.2121-0.45689,1.6153
	C30.36188,27.40978,24.80121,32.95686,19.25998,38.5232z M36.30288,51.30232c-0.86356,0.97107-1.76651,1.92529-2.78111,2.73653
	c-0.93065,0.2252-1.92098,0.17307-2.86351,0.037c-0.90536-0.45861-1.51777-1.33886-2.26022-2.01577
	c-0.5276-0.51418-1.35416-1.28691-0.67295-2.02938c1.14824-1.27502,2.37546-2.49312,3.64551-3.65222
	c0.47289-0.39806,1.17836-0.20161,1.55974,0.23189c1.0853,1.04831,2.1546,2.11675,3.20274,3.20858
	C36.54561,50.1852,36.76993,50.87897,36.30288,51.30232z M35.97862,36.74757c-3.08438,3.08094-6.17789,6.1569-9.24369,9.25625
	c-0.86098,1.05502-2.37547,0.72078-3.55728,0.62341c-1.13656-0.73248-2.02094-1.81433-2.93576-2.79882
	c-0.60965-0.57783-0.03938-1.33387,0.43006-1.76892c3.08782-3.07596,6.17204-6.15105,9.24386-9.24455
	c0.56114-0.54514,1.06672-1.17269,1.74535-1.58761c0.6788-0.29141,1.17595,0.39978,1.627,0.78787
	c1.02732,1.09958,2.19657,2.06876,3.13307,3.24727C36.83289,35.78665,36.35415,36.37462,35.97862,36.74757z"/>
</svg>
