<?xml version="1.0" encoding="utf-8"?>
<!-- Generator: Adobe Illustrator 19.1.0, SVG Export Plug-In . SVG Version: 6.00 Build 0)  -->
<!DOCTYPE svg PUBLIC "-//W3C//DTD SVG 1.1//EN" "http://www.w3.org/Graphics/SVG/1.1/DTD/svg11.dtd">
<svg version="1.1" id="Layer_1" xmlns="http://www.w3.org/2000/svg" xmlns:xlink="http://www.w3.org/1999/xlink" x="0px" y="0px"
	 width="64px" height="64px" viewBox="0 0 64 64" enable-background="new 0 0 64 64" xml:space="preserve">
<path fill="#444444" d="M26.59571,2.33694c-0.10287-0.05797-0.2098-0.10744-0.31471-0.16288
	c-0.10693,0.02128-0.21386,0.04308-0.32069,0.06385L26.59571,2.33694z"/>
<path fill="#444444" d="M2.3042,26.31364c-0.02078,0.10886-0.03466,0.21923-0.05341,0.32909
	c0.05645,0.10096,0.10592,0.20445,0.16328,0.30387L2.3042,26.31364z"/>
<path fill="#444444" d="M61.67897,37.66802c0.02179-0.1123,0.03558-0.22612,0.05635-0.33893
	c-0.05635-0.10054-0.10582-0.20494-0.16521-0.30538L61.67897,37.66802z"/>
<path fill="#444444" d="M37.00242,61.43592c0.10298,0.0599,0.20687,0.11088,0.30782,0.16825
	c0.11382-0.02027,0.22572-0.03365,0.33751-0.05534L37.00242,61.43592z"/>
<path fill="#444444" d="M61.73533,37.32909c-0.02077,0.11281-0.03456,0.22663-0.05635,0.33893l-0.10886-0.64431
	C61.62951,37.12415,61.67897,37.22854,61.73533,37.32909c0.32961-1.79754,0.50282-3.63803,0.50282-5.47752
	c0-4.07994-0.79868-8.03815-2.37646-11.76324c-1.52224-3.59941-3.69986-6.83153-6.47718-9.60641
	c-2.77337-2.7754-6.0071-4.95343-9.60499-6.47578c-3.72459-1.57626-7.6828-2.37453-11.76172-2.37453
	c-1.92311,0-3.84824,0.18072-5.7229,0.54c-0.00406,0.00052-0.00891,0.00093-0.01389,0.00245
	c0.1049,0.05544,0.21183,0.1049,0.31471,0.16288l-0.63539-0.09902c0.10683-0.02078,0.21376-0.04257,0.32069-0.06385
	c-2.57146-1.36738-5.46272-2.09734-8.39046-2.09734c-4.77878,0-9.27143,1.86076-12.6506,5.24094
	C1.86179,8.69635,0,13.19002,0,17.96869c0,3.04166,0.78195,6.03183,2.25079,8.67403
	c0.01875-0.10986,0.03264-0.22023,0.05341-0.32909l0.10987,0.63296c-0.05737-0.09943-0.10683-0.20291-0.16328-0.30387
	c-0.29798,1.71188-0.45529,3.46127-0.45529,5.20884c0,4.07994,0.79878,8.03754,2.37647,11.76365
	c1.52032,3.60043,3.69986,6.83111,6.47424,9.606c2.77641,2.77439,6.0071,4.95584,9.60793,6.47414
	c3.72459,1.57972,7.68371,2.37849,11.76365,2.37849c1.77574,0,3.55534-0.16136,5.29245-0.46968
	c-0.10095-0.05737-0.20484-0.10835-0.30782-0.16825l0.64533,0.11291c-0.1118,0.02169-0.22369,0.03507-0.33751,0.05534
	c2.67638,1.51444,5.70719,2.3191,8.80125,2.3191c4.77878,0,9.26942-1.85834,12.64859-5.23944
	C62.14025,55.30669,64,50.81303,64,46.03374C64,42.98175,63.2141,39.98174,61.73533,37.32909z M32.1386,50.35967
	c-10.73733,0-15.53982-5.27805-15.53982-9.23474c0-2.02913,1.49762-3.45093,3.56232-3.45093
	c4.59461,0,3.40491,6.59749,11.9775,6.59749c4.38775,0,6.81176-2.38297,6.81176-4.82186c0-1.46631-0.72357-3.09204-3.61381-3.80425
	l-9.54945-2.38437c-7.6907-1.92817-9.08636-6.08575-9.08636-9.99399c0-8.11528,7.64024-11.1614,14.81524-11.1614
	c6.60884,0,14.40049,3.65232,14.40049,8.52068c0,2.086-1.80634,3.29901-3.87003,3.29901
	c-3.92162,0-3.19906-5.42755-11.09764-5.42755c-3.91949,0-6.09112,1.77513-6.09112,4.31498c0,2.53488,3.09608,3.344,5.78331,3.9572
	l7.06909,1.56877c7.74219,1.72425,9.70493,6.24467,9.70493,10.5032C47.415,45.43594,42.35426,50.35967,32.1386,50.35967z"/>
</svg>
