<?xml version="1.0" encoding="utf-8"?>
<!-- Generator: Adobe Illustrator 19.1.0, SVG Export Plug-In . SVG Version: 6.00 Build 0)  -->
<!DOCTYPE svg PUBLIC "-//W3C//DTD SVG 1.1//EN" "http://www.w3.org/Graphics/SVG/1.1/DTD/svg11.dtd">
<svg version="1.1" id="Layer_1" xmlns="http://www.w3.org/2000/svg" xmlns:xlink="http://www.w3.org/1999/xlink" x="0px" y="0px"
	 width="64px" height="64px" viewBox="0 0 64 64" enable-background="new 0 0 64 64" xml:space="preserve">
<path fill="#444444" d="M53.77267,16.18072c-0.00389,0.02637-0.00486,0.03242-0.01189,0.07953
	C53.76078,16.26024,53.76651,16.22188,53.77267,16.18072z"/>
<path fill="#444444" d="M53.77267,16.18072C53.79093,16.05851,53.78347,16.10811,53.77267,16.18072L53.77267,16.18072z"/>
<path fill="#444444" d="M51.06287,4.82577C48.09935,1.4481,42.74241,0,35.88951,0H16.00016
	c-1.40207,0-2.59354,1.01968-2.81299,2.40229L4.90562,54.92546c-0.16456,1.03556,0.63739,1.97387,1.68711,1.97387h12.27889
	l3.08388-19.56011l-0.09562,0.61254c0.21956-1.38262,1.40207-2.40229,2.80241-2.40229h5.83496
	c11.46268,0,20.43813-4.65591,23.05998-18.12444c0.0778-0.39828,0.20357-1.16479,0.20357-1.16479
	C54.50439,11.2764,53.75549,7.89376,51.06287,4.82577z"/>
<path data-color="color-2" fill="#444444" d="M56.86876,18.81078c-2.85103,13.25999-11.9448,20.27865-26.37142,20.27865h-5.23312
	L21.36186,64h8.48771c1.22508,0,2.26777-0.89217,2.45891-2.10137l0.10092-0.5275l1.95086-12.36382l0.12577-0.68331
	c0.19114-1.2092,1.23383-2.10138,2.45891-2.10138h1.54902c10.027,0,17.8783-4.07351,20.17265-15.85483
	C59.58602,25.64132,59.14539,21.67586,56.86876,18.81078z"/>
</svg>
