<?xml version="1.0" encoding="utf-8"?>
<!-- Generator: Adobe Illustrator 19.1.0, SVG Export Plug-In . SVG Version: 6.00 Build 0)  -->
<!DOCTYPE svg PUBLIC "-//W3C//DTD SVG 1.1//EN" "http://www.w3.org/Graphics/SVG/1.1/DTD/svg11.dtd">
<svg version="1.1" id="Layer_1" xmlns="http://www.w3.org/2000/svg" xmlns:xlink="http://www.w3.org/1999/xlink" x="0px" y="0px"
	 width="64px" height="64px" viewBox="0 0 64 64" enable-background="new 0 0 64 64" xml:space="preserve">
<path fill="#444444" d="M15.80883,42.05185c0.01399,0.03881,0.34559,0.95559,0.53768,1.41005
	c1.05459,2.49354,2.56482,4.73345,4.48887,6.65746c1.92257,1.92252,4.16274,3.43257,6.65838,4.48812
	c2.58341,1.09284,5.32711,1.64695,8.15486,1.64695c2.82722,0,5.57092-0.5542,8.15487-1.64716
	c2.49467-1.05516,4.73493-2.56543,6.65837-4.48882c1.92327-1.92313,3.43349-4.16335,4.48887-6.65829
	c1.09283-2.58381,1.64695-5.32751,1.64695-8.1549c0-2.82762-0.55411-5.57131-1.64695-8.15491
	c-1.0552-2.49476-2.56542-4.73498-4.48887-6.65841c-1.92283-1.92301-4.16309-3.43331-6.65837-4.48891
	c-2.58368-1.09284-5.32737-1.64695-8.15487-1.64695c-2.86104,0-5.71981,0.5695-8.26742,1.64695
	c-2.03626,0.8615-5.48305,3.07925-7.50062,5.15997l-0.01191,0.01221V3.93432l28.96128-0.00027
	c1.0539-0.01152,1.0539-1.48328,1.0539-1.9669c0-0.48353,0-1.95491-1.05712-1.96694L17.51193,0
	c-0.85251,0-1.3802,0.70913-1.3802,1.36616v24.26737c0,0.78292,0.97523,1.3482,1.88137,1.54208
	c1.76959,0.37797,2.17838-0.18766,2.61176-0.78623l0.05745-0.0794c0.66162-0.98284,2.72927-3.06378,2.74995-3.08451
	c3.22671-3.22658,7.54104-5.00352,12.14812-5.00352c4.58508,0,8.88715,1.77694,12.11377,5.00347
	c3.23758,3.23775,5.02064,7.52778,5.02064,12.07984c0,4.56848-1.77394,8.85834-4.995,12.07944
	c-3.17994,3.1799-7.62222,5.00369-12.18774,5.00369c-3.09234,0-6.07732-0.82395-8.63431-2.38329l0.01095-14.75556
	c0-1.96747,0.85381-4.10629,2.28389-5.72134c1.63504-1.84638,3.88834-2.86325,6.34503-2.86325
	c2.37915,0,4.60116,0.90322,6.25681,2.54326c1.64373,1.62839,2.54899,3.7979,2.54899,6.10887
	c0,4.93094-3.87738,8.79351-8.82718,8.79351c-0.9542,0-2.68885-0.4216-2.76012-0.43899
	c-0.99948-0.29765-1.42461,1.08984-1.56455,1.54717c-0.53794,1.7589,0.27049,2.10758,0.43798,2.15964
	c1.59288,0.49431,2.6373,0.58801,4.0075,0.58801c6.98754,0,12.67233-5.68757,12.67233-12.67849
	c0-6.93482-5.68131-12.57672-12.66459-12.57672c-3.41976,0-6.63238,1.30723-9.04596,3.68091
	c-2.29859,2.26056-3.61689,5.27475-3.61689,8.26895l-0.0013,0.07432c-0.01121,0.37336-0.01851,9.21906-0.0206,12.12194
	l-0.01304-0.01442c-1.31352-1.45434-2.61158-3.68048-3.47234-5.95494c-0.33742-0.8914-1.09945-0.7336-2.13944-0.41335
	c-0.45416,0.1399-1.83634,0.56567-1.53065,1.5648L15.80883,42.05185z"/>
<path data-color="color-2" fill="#444444" d="M30.69412,38.58503c0.00452,0.42416,0.39262,0.79597,0.62443,1.01817l0.07284,0.07027
	c0.39757,0.39105,0.77628,0.58932,1.12544,0.58932c0.28918,0,0.46737-0.13678,0.53047-0.19553
	c0.17514-0.16262,2.15621-2.16998,2.34517-2.36147l2.20931,2.2022c0.20452,0.23042,0.42687,0.34589,0.68597,0.35302
	c0.3528,0,0.73725-0.20977,1.14264-0.62355c0.95333-0.97342,0.47632-1.49828,0.24564-1.75204L37.4375,35.6462l2.33448-2.351
	c0.51196-0.55394,0.05997-1.14264-0.39096-1.59362c-0.65477-0.65477-1.2865-0.82374-1.69137-0.45064l-2.32127,2.32527
	l-2.34734-2.348c-0.12438-0.11921-0.28127-0.18223-0.45372-0.18223c-0.31283,0-0.68293,0.21152-1.10014,0.62873
	c-0.72195,0.72177-0.87676,1.22078-0.501,1.61887l2.34795,2.34079L30.98,37.97269
	C30.78799,38.16443,30.69177,38.37047,30.69412,38.58503z"/>
<path data-color="color-2" fill="#444444" d="M35.80984,6.85707c-3.75257,0-7.74416,0.7575-10.67691,2.02613
	c-0.31352,0.12273-0.50091,0.37458-0.54203,0.7283c-0.03859,0.33373,0.05155,0.77402,0.2758,1.34699
	c0.18184,0.46476,0.66494,1.69936,1.60019,1.34256c3.0015-1.14495,6.31956-1.7755,9.34296-1.7755
	c3.42585,0,6.74834,0.67058,9.87535,1.99315c2.48467,1.05111,4.82906,2.56938,7.37798,4.77809
	c0.18583,0.1611,0.38305,0.24277,0.58618,0.24277c0.49692,0,0.97359-0.48809,1.38133-0.94564
	c0.68058-0.76354,1.14794-1.39809,0.47745-2.03322c-2.43409-2.3058-5.1013-4.02827-8.39398-5.42068
	C43.53315,7.62517,39.72982,6.85707,35.80984,6.85707z"/>
<path data-color="color-2" fill="#444444" d="M56.03025,53.19553h0.00008c-0.45155-0.45029-0.83512-0.71622-1.17254-0.813
	c-0.34212-0.09822-0.64764-0.02504-0.88363,0.2116l-0.22216,0.22174c-2.32579,2.32605-5.03419,4.15218-8.04987,5.42768
	c-3.12075,1.32-6.43681,1.98928-9.85613,1.98928c-3.41933,0-6.7353-0.66928-9.85606-1.98928
	c-3.01541-1.27537-5.72364-3.10141-8.04952-5.42751c-2.42323-2.42318-4.24931-5.13129-5.42733-8.04917
	c-1.14864-2.84513-1.52379-4.985-1.64704-5.68813c-0.01156-0.06585-0.02069-0.11795-0.02786-0.15563
	c-0.15806-0.82795-0.92017-0.88588-2.0154-0.71835c-0.4555,0.06971-1.8416,0.28175-1.70962,1.27902l0.00317,0.02277
	c0.36698,2.30853,1.01527,4.57204,1.92691,6.7276c1.46534,3.46439,3.56257,6.57505,6.23334,9.24561
	c2.67086,2.67099,5.7817,4.76814,9.24597,6.23325C28.10923,63.23055,31.91898,64,35.84601,64
	c3.92501,0,7.73487-0.76984,11.32351-2.28811c3.46313-1.4646,6.57397-3.56217,9.24605-6.23434
	c0.00617-0.00613,0.15211-0.15099,0.23199-0.23795C56.9416,54.91948,57.19749,54.35929,56.03025,53.19553z"/>
</svg>
