<?xml version="1.0" encoding="utf-8"?>
<!-- Generator: Adobe Illustrator 19.1.0, SVG Export Plug-In . SVG Version: 6.00 Build 0)  -->
<!DOCTYPE svg PUBLIC "-//W3C//DTD SVG 1.1//EN" "http://www.w3.org/Graphics/SVG/1.1/DTD/svg11.dtd">
<svg version="1.1" id="Layer_1" xmlns="http://www.w3.org/2000/svg" xmlns:xlink="http://www.w3.org/1999/xlink" x="0px" y="0px"
	 width="64px" height="64px" viewBox="0 0 64 64" enable-background="new 0 0 64 64" xml:space="preserve">
<path fill="#444444" d="M56,0H8C3.58171,0,0,3.58171,0,8v48c0,4.41829,3.58171,8,8,8h48c4.41829,0,8-3.58171,8-8V8
	C64,3.58171,60.41829,0,56,0z M41.92595,21.88884l-5.89323,11.24479l0.44873,0.49593h5.4445v7.92594H32l-0.62793,0.47103
	l-2.74251,5.23275L27.92594,48h-5.85189v-5.92595L27.93311,30.896l-0.37761-0.48861h-5.48145v-7.96305h9.9082l0.58561-0.39062
	l2.76546-5.27604L36.11116,16h5.81478V21.88884z"/>
</svg>
