<?xml version="1.0" encoding="utf-8"?>
<!-- Generator: Adobe Illustrator 19.1.0, SVG Export Plug-In . SVG Version: 6.00 Build 0)  -->
<!DOCTYPE svg PUBLIC "-//W3C//DTD SVG 1.1//EN" "http://www.w3.org/Graphics/SVG/1.1/DTD/svg11.dtd">
<svg version="1.1" id="Layer_1" xmlns="http://www.w3.org/2000/svg" xmlns:xlink="http://www.w3.org/1999/xlink" x="0px" y="0px"
	 width="64px" height="64px" viewBox="0 0 64 64" enable-background="new 0 0 64 64" xml:space="preserve">
<path fill="#444444" d="M32,0C14.32682,0,0,14.32682,0,32c0,17.67302,14.32682,32,32,32s32-14.32698,32-32
	C64,14.32682,49.67318,0,32,0z M20.45231,37.94238c-0.14681-0.2863-0.2487-0.76448-0.31087-1.33936
	c-0.17562-1.74154,0.03874-4.36426,0.54671-5.19743c0.2391-0.38493,0.58724-0.58545,0.97542-0.57031
	c0.25537,0.00342,0.48145,0.0874,5.52734,2.21631c0.00374,0,1.47461,0.61393,1.47461,0.61393
	c0.53255,0.20345,0.85693,0.77083,0.82389,1.41113c-0.03516,0.62614-0.38542,1.11589-0.9056,1.25
	c-0.00863,0.00472-2.09603,0.68457-2.09603,0.68457c-4.69564,1.54509-4.85091,1.58952-5.10042,1.57552
	C20.99723,38.57324,20.65527,38.33773,20.45231,37.94238z M32.08138,41.81445c-0.01334,5.04671-0.02295,5.21338-0.10449,5.45475
	c-0.13591,0.37614-0.45166,0.62679-0.88884,0.70898c-1.25521,0.21875-5.18701-1.26058-6.00586-2.25879
	c-0.16585-0.20638-0.26448-0.42985-0.28564-0.65365c-0.01904-0.15804,0.00326-0.31364,0.05566-0.46354
	c0.08626-0.25179,0.23193-0.44775,3.76904-4.69482c0.00407,0,1.03255-1.25016,1.03255-1.25016
	c0.35172-0.44954,0.979-0.5918,1.56185-0.36263c0.56836,0.2251,0.91195,0.72184,0.87923,1.26693
	C32.09343,39.5848,32.08138,41.81445,32.08138,41.81445z M31.23307,31.26318c-0.25391,0.08105-1.03125,0.32601-1.98503-1.25472
	c0,0-6.44906-10.37565-6.59977-10.69596c-0.09261-0.35905,0.02246-0.76726,0.33138-1.09733
	c0.96566-1.0179,6.16878-2.51009,7.52865-2.16423c0.44515,0.11491,0.75244,0.40348,0.86182,0.80697
	c0.07503,0.44662,0.70996,10.07422,0.80111,12.23568C32.25928,30.93783,31.48665,31.18278,31.23307,31.26318z M34.51872,31.78158
	c0.01579-0.01677,1.3068-1.81559,1.3068-1.81559c2.85514-3.99463,3.00732-4.20101,3.21354-4.33936
	c0.3304-0.22738,0.73193-0.24072,1.13184-0.04362c1.13005,0.56494,3.42627,4.04997,3.56299,5.38883
	c0.00244,0.01677,0,0.03027,0,0.04541c0.02767,0.4541-0.13411,0.82682-0.45703,1.04834
	c-0.21077,0.14111-0.41618,0.21224-5.74968,1.53288c-0.85645,0.20817-1.32715,0.32536-1.58969,0.42806
	c0.00603-0.00765,0.02816-0.04623,0.02816-0.04623c-0.5332,0.1517-1.11572-0.11133-1.45947-0.64893
	C34.1748,32.81201,34.17822,32.20378,34.51872,31.78158z M39.95036,45.51302c-0.41081,0.17025-0.80518,0.12891-1.11491-0.12077
	c-0.20134-0.16032-0.41325-0.48747-3.19971-5.11637l-0.8291-1.37842c-0.31689-0.49561-0.25537-1.14632,0.1403-1.64128
	c0.38232-0.4847,0.95231-0.6665,1.44938-0.4694c0.02686,0.01334,2.08529,0.70898,2.08529,0.70898
	c4.69205,1.57536,4.84538,1.63558,5.04395,1.78825c0.30322,0.24723,0.44092,0.63558,0.37891,1.08627
	C43.72282,41.66471,41.13525,45.02962,39.95036,45.51302z"/>
</svg>
