<?xml version="1.0" encoding="utf-8"?>
<!-- Generator: Adobe Illustrator 19.1.0, SVG Export Plug-In . SVG Version: 6.00 Build 0)  -->
<!DOCTYPE svg PUBLIC "-//W3C//DTD SVG 1.1//EN" "http://www.w3.org/Graphics/SVG/1.1/DTD/svg11.dtd">
<svg version="1.1" id="Layer_1" xmlns="http://www.w3.org/2000/svg" xmlns:xlink="http://www.w3.org/1999/xlink" x="0px" y="0px"
	 width="24px" height="24px" viewBox="0 0 24 24" enable-background="new 0 0 24 24" xml:space="preserve">
<path d="M12,24c4.4,0,8.4-2.4,10.5-6.2c0.2-0.4,0.2-0.8-0.1-1.2L8.3,1.3C8,0.9,7.6,0.8,7.2,1C2.8,2.9,0,7.2,0,12
	C0,18.6,5.4,24,12,24z M12,18c-1.5,0-2.9-0.6-4-1.5l5.3-4.7L13,17.9C12.7,18,12.3,18,12,18z M12.3,8.6L6.9,8.9
	c0.7-1.2,1.9-2.1,3.3-2.6L12.3,8.6z M11.7,10.6l-4.9,4.3C6.3,14.1,6,13.1,6,12c0-0.4,0-0.7,0.1-1.1L11.7,10.6z M15.3,11.9l2.2,2.4
	c-0.5,1.2-1.4,2.2-2.5,2.8L15.3,11.9z M7.3,3.2l1.4,1.5C6.7,5.6,5.1,7.4,4.4,9.5c0,0,0,0.1,0,0.1C4.1,10.4,4,11.2,4,12
	c0,1.9,0.7,3.7,1.8,5.1c0,0,0,0,0,0c0,0,0,0,0,0C7.3,18.9,9.5,20,12,20c0.8,0,1.5-0.1,2.3-0.3c0,0,0.1,0,0.1,0
	c2-0.6,3.6-1.9,4.6-3.7l1.4,1.5c-1.8,2.8-5,4.6-8.4,4.6C6.5,22,2,17.5,2,12C2,8.3,4.1,4.9,7.3,3.2z"/>
</svg>
