<?xml version="1.0" encoding="utf-8"?>
<!-- Generator: Adobe Illustrator 19.1.0, SVG Export Plug-In . SVG Version: 6.00 Build 0)  -->
<!DOCTYPE svg PUBLIC "-//W3C//DTD SVG 1.1//EN" "http://www.w3.org/Graphics/SVG/1.1/DTD/svg11.dtd">
<svg version="1.1" id="Layer_1" xmlns="http://www.w3.org/2000/svg" xmlns:xlink="http://www.w3.org/1999/xlink" x="0px" y="0px"
	 width="24px" height="24px" viewBox="0 0 24 24" enable-background="new 0 0 24 24" xml:space="preserve">
<path d="M17.7,3.4C17.1,1.4,15.2,0,13,0c-2,0-3.8,1.2-4.6,3C7.9,3,7.4,3,6.9,3.2C5.2,3.7,4,5.4,4,7.2V9v2c0,2.1,0.5,4.2,1,6.3
	c0.5,2,1,3.9,1,5.7c0,0.6,0.4,1,1,1h10c0.6,0,1-0.4,1-1c0-1.9,0.5-3.8,1-5.8c0.5-2,1-4.1,1-6.2V9V7C20,5.5,19.1,4.1,17.7,3.4z
	 M6,7.2c0-1,0.6-1.9,1.4-2.1C7.9,5,8.3,5,8.7,5.1C9,5.2,9.3,5.2,9.6,5.1c0.3-0.1,0.4-0.4,0.5-0.7C10.3,3,11.6,2,13,2
	c1.4,0,2.6,1,2.9,2.4C16,4.7,16.3,5,16.6,5.1C17.4,5.4,18,6.1,18,7v1h-5c-0.6,0-1,0.4-1,1v4c0,0.6-0.4,1-1,1s-1-0.4-1-1V9
	c0-0.6-0.4-1-1-1H6V7.2z M17,16.8c-0.4,1.7-0.9,3.5-1,5.2H8c-0.1-1.8-0.6-3.5-1-5.2c-0.5-2-1-3.9-1-5.8v-1h2v3c0,1.7,1.3,3,3,3
	s3-1.3,3-3v-3h4v1C18,12.9,17.5,14.8,17,16.8z"/>
</svg>
