<?xml version="1.0" encoding="utf-8"?>
<!-- Generator: Adobe Illustrator 19.1.0, SVG Export Plug-In . SVG Version: 6.00 Build 0)  -->
<!DOCTYPE svg PUBLIC "-//W3C//DTD SVG 1.1//EN" "http://www.w3.org/Graphics/SVG/1.1/DTD/svg11.dtd">
<svg version="1.1" id="Layer_1" xmlns="http://www.w3.org/2000/svg" xmlns:xlink="http://www.w3.org/1999/xlink" x="0px" y="0px"
	 width="24px" height="24px" viewBox="0 0 24 24" enable-background="new 0 0 24 24" xml:space="preserve">
<path d="M6,24c1.7,0,3-1.3,3-3v-9.2c1.2-0.4,2-1.5,2-2.8V1c0-0.6-0.4-1-1-1S9,0.4,9,1v4H7V1c0-0.6-0.4-1-1-1S5,0.4,5,1v4H3V1
	c0-0.6-0.4-1-1-1S1,0.4,1,1v8c0,1.3,0.8,2.4,2,2.8V21C3,22.7,4.3,24,6,24z M6,22c-0.6,0-1-0.4-1-1v-9h2v9C7,21.6,6.6,22,6,22z M9,7
	v2c0,0.6-0.4,1-1,1H4c-0.6,0-1-0.4-1-1V7H9z"/>
<path d="M18,24c1.7,0,3-1.3,3-3v-6V1c0-0.6-0.4-1-1-1c-3.9,0-7,3.1-7,7v8c0,0.6,0.4,1,1,1h1v5C15,22.7,16.3,24,18,24z M18,22
	c-0.6,0-1-0.4-1-1v-5h2v5C19,21.6,18.6,22,18,22z M15,7c0-2.4,1.7-4.4,4-4.9V14h-4V7z"/>
</svg>
