<?xml version="1.0" encoding="utf-8"?>
<!-- Generator: Adobe Illustrator 19.1.0, SVG Export Plug-In . SVG Version: 6.00 Build 0)  -->
<!DOCTYPE svg PUBLIC "-//W3C//DTD SVG 1.1//EN" "http://www.w3.org/Graphics/SVG/1.1/DTD/svg11.dtd">
<svg version="1.1" id="Layer_1" xmlns="http://www.w3.org/2000/svg" xmlns:xlink="http://www.w3.org/1999/xlink" x="0px" y="0px"
	 width="24px" height="24px" viewBox="0 0 24 24" enable-background="new 0 0 24 24" xml:space="preserve">
<path d="M10.1,22.7c0.3,0.8,1,1.3,1.9,1.3s1.6-0.5,1.9-1.3L17.7,12c1.8-0.1,3.3-1.6,3.3-3.5c0-1.6-1.1-3-2.7-3.4
	C17.7,2.1,15.1,0,12,0S6.3,2.1,5.7,5.1C4.1,5.5,3,6.9,3,8.5c0,1.9,1.5,3.4,3.3,3.5L10.1,22.7z M12,22L8.4,12h7.2L12,22z M5,8.5
	C5,7.7,5.7,7,6.5,7c0,0,0,0,0.1,0c0.5,0,0.9-0.4,1-0.9C7.7,3.8,9.7,2,12,2s4.3,1.8,4.5,4.1c0,0.5,0.5,1,1.1,0.9
	C18.3,7,19,7.7,19,8.5c0,0.8-0.7,1.5-1.5,1.5h-11C5.7,10,5,9.3,5,8.5z"/>
</svg>
