<?xml version="1.0" encoding="utf-8"?>
<!-- Generator: Adobe Illustrator 19.1.0, SVG Export Plug-In . SVG Version: 6.00 Build 0)  -->
<!DOCTYPE svg PUBLIC "-//W3C//DTD SVG 1.1//EN" "http://www.w3.org/Graphics/SVG/1.1/DTD/svg11.dtd">
<svg version="1.1" id="Layer_1" xmlns="http://www.w3.org/2000/svg" xmlns:xlink="http://www.w3.org/1999/xlink" x="0px" y="0px"
	 width="24px" height="24px" viewBox="0 0 24 24" enable-background="new 0 0 24 24" xml:space="preserve">
<path d="M23,1H1C0.4,1,0,1.4,0,2v21c0,0.6,0.4,1,1,1h22c0.6,0,1-0.4,1-1V2C24,1.4,23.6,1,23,1z M22,22H2V3h20V22z"/>
<path d="M8,12c2.2,0,4-1.8,4-4s-1.8-4-4-4S4,5.8,4,8S5.8,12,8,12z M8,6c1.1,0,2,0.9,2,2s-0.9,2-2,2S6,9.1,6,8S6.9,6,8,6z"/>
<path d="M8,21c2.2,0,4-1.8,4-4s-1.8-4-4-4s-4,1.8-4,4S5.8,21,8,21z M8,15c1.1,0,2,0.9,2,2s-0.9,2-2,2s-2-0.9-2-2S6.9,15,8,15z"/>
<path d="M17,7h2c0.6,0,1-0.4,1-1s-0.4-1-1-1h-2c-0.6,0-1,0.4-1,1S16.4,7,17,7z"/>
<path d="M17,11h2c0.6,0,1-0.4,1-1s-0.4-1-1-1h-2c-0.6,0-1,0.4-1,1S16.4,11,17,11z"/>
<path d="M17,16h2c0.6,0,1-0.4,1-1s-0.4-1-1-1h-2c-0.6,0-1,0.4-1,1S16.4,16,17,16z"/>
<path d="M17,20h2c0.6,0,1-0.4,1-1s-0.4-1-1-1h-2c-0.6,0-1,0.4-1,1S16.4,20,17,20z"/>
</svg>
