<?xml version="1.0" encoding="utf-8"?>
<!-- Generator: Adobe Illustrator 19.1.0, SVG Export Plug-In . SVG Version: 6.00 Build 0)  -->
<!DOCTYPE svg PUBLIC "-//W3C//DTD SVG 1.1//EN" "http://www.w3.org/Graphics/SVG/1.1/DTD/svg11.dtd">
<svg version="1.1" id="Layer_1" xmlns="http://www.w3.org/2000/svg" xmlns:xlink="http://www.w3.org/1999/xlink" x="0px" y="0px"
	 width="24px" height="24px" viewBox="0 0 24 24" enable-background="new 0 0 24 24" xml:space="preserve">
<path d="M19,1c-2.4,0-4.4,1.7-4.9,4H3C2.6,5,2.2,5.2,2.1,5.6C1.9,5.9,2,6.4,2.3,6.7l7.7,8.7V21H6c-0.6,0-1,0.4-1,1s0.4,1,1,1h10
	c0.6,0,1-0.4,1-1s-0.4-1-1-1h-4v-5.6l4.5-5.1c0.8,0.4,1.6,0.7,2.5,0.7c2.8,0,5-2.2,5-5S21.8,1,19,1z M16.8,7L15,9H7L5.2,7H16.8z
	 M11,13.5L8.8,11h4.4L11,13.5z M19,9c-0.4,0-0.8-0.1-1.1-0.2l1.9-2.1c0.3-0.3,0.3-0.7,0.2-1.1C19.8,5.2,19.4,5,19,5h-2.8
	c0.4-1.2,1.5-2,2.8-2c1.7,0,3,1.3,3,3S20.7,9,19,9z"/>
</svg>
