<?xml version="1.0" encoding="utf-8"?>
<!-- Generator: Adobe Illustrator 19.1.0, SVG Export Plug-In . SVG Version: 6.00 Build 0)  -->
<!DOCTYPE svg PUBLIC "-//W3C//DTD SVG 1.1//EN" "http://www.w3.org/Graphics/SVG/1.1/DTD/svg11.dtd">
<svg version="1.1" id="Layer_1" xmlns="http://www.w3.org/2000/svg" xmlns:xlink="http://www.w3.org/1999/xlink" x="0px" y="0px"
	 width="24px" height="24px" viewBox="0 0 24 24" enable-background="new 0 0 24 24" xml:space="preserve">
<path d="M11.7,23.3c0.1,0,0.1,0,0.2,0c4.1-0.1,8-2,11-5.5c0.4-0.5,0.5-1.2,0.2-1.8c-0.3-0.6-1-0.9-1.6-0.8c-0.9,0.2-1.8,0.3-2.6,0.5
	c-4.5,0.9-6,1.2-8-1.4c-0.7-0.9-0.7-2.2-0.7-3.5c0-0.7,0-1.5-0.1-2.1c-0.3-1.7-1.6-3-3.3-3.6C6.9,5.1,7,5,7.2,5
	C7.7,4.9,8.1,4.4,8,3.8C7.9,3.3,7.4,2.9,6.8,3C6.1,3.1,5,3.7,4.4,5C1.5,5.2,0,6.9,0,10c0,4.5,1.7,8,3.2,9.7
	C5.4,22,8.4,23.3,11.7,23.3z M4,7.1c0,0.3,0,0.6,0,1C4.1,8.6,4.5,9,5,9c0,0,0.1,0,0.1,0C5.7,8.9,6.1,8.4,6,7.9c0-0.3,0-0.5,0-0.8
	C7,7.4,7.8,8.1,8,9.2c0.1,0.5,0.1,1.1,0.1,1.7c0,1.5,0,3.3,1.1,4.7c2.7,3.6,5.5,3.1,10,2.2c0.4-0.1,0.8-0.2,1.2-0.2
	c-2.4,2.4-5.5,3.8-8.6,3.8c-2.8,0-5.3-1-7.1-3C3.4,16.8,2,13.6,2,10C2,8.2,2.6,7.4,4,7.1z"/>
<path d="M16,9c0.3,0,0.5-0.1,0.7-0.3l3-3c0.4-0.4,0.4-1,0-1.4s-1-0.4-1.4,0l-3,3c-0.4,0.4-0.4,1,0,1.4C15.5,8.9,15.7,9,16,9z"/>
<path d="M17.6,12c0.1,0,0.1,0,0.2,0l4.2-0.7c0.5-0.1,0.9-0.6,0.8-1.2c-0.1-0.5-0.6-0.9-1.2-0.8L17.4,10c-0.5,0.1-0.9,0.6-0.8,1.2
	C16.7,11.7,17.1,12,17.6,12z"/>
<path d="M12.7,2.1L12,6.3c-0.1,0.5,0.3,1.1,0.8,1.2c0.1,0,0.1,0,0.2,0c0.5,0,0.9-0.3,1-0.8l0.7-4.2c0.1-0.5-0.3-1.1-0.8-1.2
	C13.3,1.2,12.8,1.5,12.7,2.1z"/>
</svg>
