<?xml version="1.0" encoding="utf-8"?>
<!-- Generator: Adobe Illustrator 19.1.0, SVG Export Plug-In . SVG Version: 6.00 Build 0)  -->
<!DOCTYPE svg PUBLIC "-//W3C//DTD SVG 1.1//EN" "http://www.w3.org/Graphics/SVG/1.1/DTD/svg11.dtd">
<svg version="1.1" id="Layer_1" xmlns="http://www.w3.org/2000/svg" xmlns:xlink="http://www.w3.org/1999/xlink" x="0px" y="0px"
	 width="24px" height="24px" viewBox="0 0 24 24" enable-background="new 0 0 24 24" xml:space="preserve">
<path d="M2.1,21.9c0.8,0.8,1.8,1.2,2.8,1.2c0.8,0,1.5-0.2,2.1-0.6c0.9,0.6,1.8,0.9,2.8,0.9c1.3,0,2.6-0.5,3.5-1.5l8.5-8.5
	c1.7-1.7,1.9-4.4,0.6-6.4c0.4-0.6,0.6-1.3,0.6-2.1c0-1.1-0.4-2.1-1.2-2.8c-1.3-1.3-3.4-1.5-4.9-0.6c-1.9-1.4-4.7-1.2-6.4,0.6
	l-8.5,8.5C0.4,12.3,0.2,15,1.5,17c-0.4,0.6-0.6,1.3-0.6,2.1C0.9,20.1,1.3,21.1,2.1,21.9z M20.5,12L12,20.5c-0.9,0.9-2.3,1.1-3.4,0.6
	L21.1,8.6C21.6,9.7,21.4,11.1,20.5,12z M19.1,2.9c0.5,0,1,0.2,1.4,0.6s0.6,0.9,0.6,1.4s-0.2,1-0.6,1.4L6.3,20.5
	c-0.8,0.8-2.1,0.8-2.8,0c-0.4-0.4-0.6-0.9-0.6-1.4s0.2-1,0.6-1.4L17.7,3.5C18,3.1,18.5,2.9,19.1,2.9z M3.5,12L12,3.5
	c0.9-0.9,2.3-1.1,3.4-0.6L2.9,15.4C2.4,14.3,2.6,12.9,3.5,12z"/>
</svg>
