<?xml version="1.0" encoding="utf-8"?>
<!-- Generator: Adobe Illustrator 19.1.0, SVG Export Plug-In . SVG Version: 6.00 Build 0)  -->
<!DOCTYPE svg PUBLIC "-//W3C//DTD SVG 1.1//EN" "http://www.w3.org/Graphics/SVG/1.1/DTD/svg11.dtd">
<svg version="1.1" id="Layer_1" xmlns="http://www.w3.org/2000/svg" xmlns:xlink="http://www.w3.org/1999/xlink" x="0px" y="0px"
	 width="24px" height="24px" viewBox="0 0 24 24" enable-background="new 0 0 24 24" xml:space="preserve">
<path d="M0.5,20.5c0,0.8,0.3,1.6,0.9,2.1c0.6,0.6,1.3,0.9,2.1,0.9s1.6-0.3,2.1-0.9L7.2,21c0.2,0,0.3,0.1,0.5,0.1
	c0.5,0,1-0.2,1.4-0.6L20.5,9.2C21,8.7,21.2,7.9,21,7.2l1.6-1.6c0.6-0.6,0.9-1.3,0.9-2.1S23.2,2,22.6,1.4c-1.1-1.1-3.1-1.1-4.2,0
	L16.8,3c-0.7-0.2-1.4,0-1.9,0.5L3.5,14.8C3,15.3,2.8,16.1,3,16.8l-1.6,1.6C0.8,18.9,0.5,19.7,0.5,20.5z M19.8,2.8
	c0.4-0.4,1-0.4,1.4,0c0.2,0.2,0.3,0.4,0.3,0.7S21.4,4,21.2,4.2l-1.4,1.4l-1.4-1.4L19.8,2.8z M16.2,4.9l2.8,2.8L7.8,19.1l0,0
	l-2.8-2.8L16.2,4.9z M2.8,19.8l1.4-1.4l1.4,1.4l-1.4,1.4c-0.4,0.4-1,0.4-1.4,0c-0.2-0.2-0.3-0.4-0.3-0.7S2.6,20,2.8,19.8z"/>
</svg>
