<?xml version="1.0" encoding="utf-8"?>
<!-- Generator: Adobe Illustrator 19.1.0, SVG Export Plug-In . SVG Version: 6.00 Build 0)  -->
<!DOCTYPE svg PUBLIC "-//W3C//DTD SVG 1.1//EN" "http://www.w3.org/Graphics/SVG/1.1/DTD/svg11.dtd">
<svg version="1.1" id="Layer_1" xmlns="http://www.w3.org/2000/svg" xmlns:xlink="http://www.w3.org/1999/xlink" x="0px" y="0px"
	 width="24px" height="24px" viewBox="0 0 24 24" enable-background="new 0 0 24 24" xml:space="preserve">
<path d="M22,10c0.6,0,1-0.4,1-1V1c0-0.6-0.4-1-1-1h-8c-0.6,0-1,0.4-1,1v8c0,0.6,0.4,1,1,1h3v4h-1c-0.6,0-1,0.4-1,1v6
	c0,1.7,1.3,3,3,3s3-1.3,3-3v-6c0-0.6-0.4-1-1-1h-1v-4H22z M19,21c0,0.6-0.4,1-1,1s-1-0.4-1-1v-5h2V21z M21,8h-2V2h2V8z M15,8V2h2v6
	H15z"/>
<path d="M10,6V1c0-0.6-0.4-1-1-1S8,0.4,8,1v5c0,1.1-0.9,2-2,2S4,7.1,4,6V1c0-0.6-0.4-1-1-1S2,0.4,2,1v5c0,1.9,1.3,3.4,3,3.9V14H4
	c-0.6,0-1,0.4-1,1v6c0,1.7,1.3,3,3,3s3-1.3,3-3v-6c0-0.6-0.4-1-1-1H7V9.9C8.7,9.4,10,7.9,10,6z M7,21c0,0.6-0.4,1-1,1s-1-0.4-1-1v-5
	h2V21z"/>
</svg>
