<?xml version="1.0" encoding="utf-8"?>
<!-- Generator: Adobe Illustrator 19.1.0, SVG Export Plug-In . SVG Version: 6.00 Build 0)  -->
<!DOCTYPE svg PUBLIC "-//W3C//DTD SVG 1.1//EN" "http://www.w3.org/Graphics/SVG/1.1/DTD/svg11.dtd">
<svg version="1.1" id="Layer_1" xmlns="http://www.w3.org/2000/svg" xmlns:xlink="http://www.w3.org/1999/xlink" x="0px" y="0px"
	 width="24px" height="24px" viewBox="0 0 24 24" enable-background="new 0 0 24 24" xml:space="preserve">
<circle cx="16" cy="8" r="2"/>
<path d="M2,20c0.1,0,0.2,0,0.4-0.1l2.8-1.1l-1.1,2.8c-0.2,0.5,0,1.1,0.6,1.3C4.8,23,4.9,23,5,23c0.4,0,0.8-0.2,0.9-0.6l1.8-4.6
	l14.6-5.8c0.5-0.2,0.8-0.8,0.6-1.3c-0.2-0.5-0.8-0.8-1.3-0.6l0,0C21.9,9.4,22,8.7,22,8c0-3.3-2.7-6-6-6c-0.7,0-1.4,0.1-2.1,0.4l0,0
	c0.2-0.5,0-1.1-0.6-1.3c-0.5-0.2-1.1,0-1.3,0.6L6.2,16.2l-4.6,1.8c-0.5,0.2-0.8,0.8-0.6,1.3C1.2,19.8,1.6,20,2,20z M20,8
	c0,2.2-1.8,4-4,4s-4-1.8-4-4s1.8-4,4-4S20,5.8,20,8z M10.6,10.6c0.6,1.2,1.6,2.2,2.7,2.7l-4.6,1.8L10.6,10.6z"/>
</svg>
