<?xml version="1.0" encoding="utf-8"?>
<!-- Generator: Adobe Illustrator 19.1.0, SVG Export Plug-In . SVG Version: 6.00 Build 0)  -->
<!DOCTYPE svg PUBLIC "-//W3C//DTD SVG 1.1//EN" "http://www.w3.org/Graphics/SVG/1.1/DTD/svg11.dtd">
<svg version="1.1" id="Layer_1" xmlns="http://www.w3.org/2000/svg" xmlns:xlink="http://www.w3.org/1999/xlink" x="0px" y="0px"
	 width="24px" height="24px" viewBox="0 0 24 24" enable-background="new 0 0 24 24" xml:space="preserve">
<path d="M19.8,5.1C19.1,2.7,17,1,14.5,1c-1.1,0-2.2,0.3-3.1,1C10.3,0.7,8.7,0,7,0C3.7,0,1,2.7,1,6c0,0.4,0,0.8,0.1,1.2
	C0.4,8,0,9,0,10c0,2.2,1.8,4,4,4c0.4,0,0.8-0.1,1.1-0.2c0.3,0.5,0.7,0.9,1.1,1.3C9,19.4,9,22.9,9,23c0,0.3,0.1,0.5,0.3,0.7
	C9.5,23.9,9.7,24,10,24h4c0.3,0,0.6-0.1,0.8-0.3c0.2-0.2,0.3-0.5,0.2-0.8c0-0.1-0.6-4.9,3.1-8C18.4,15,18.7,15,19,15
	c2.8,0,5-2.2,5-5C24,7.3,22.3,5.4,19.8,5.1z M12.9,22h-2c-0.1-1.1-0.5-2.9-1.5-5.2c0.5,0.1,1,0.2,1.6,0.2c1.3,0,2.5-0.3,3.5-1
	C13.2,18.3,12.9,20.6,12.9,22z M19,13c-0.8,0-1.5-0.3-2.1-0.8c-0.2-0.2-0.5-0.3-0.8-0.3c-0.3,0-0.6,0.2-0.7,0.5
	C14.5,14,12.8,15,11,15c-1.9,0-3.7-1.1-4.5-2.9c-0.1-0.3-0.3-0.5-0.6-0.5c-0.1,0-0.2,0-0.3,0c-0.2,0-0.4,0.1-0.5,0.1
	C4.7,11.9,4.4,12,4,12c-1.1,0-2-0.9-2-2c0-0.6,0.3-1.3,0.8-1.6c0.4-0.3,0.5-0.7,0.4-1.1C3.1,6.8,3,6.4,3,6c0-2.2,1.8-4,4-4
	c1.4,0,2.7,0.7,3.4,1.9c0.2,0.3,0.4,0.4,0.7,0.5c0.3,0,0.6-0.1,0.8-0.3C12.6,3.4,13.5,3,14.5,3c1.8,0,3.3,1.3,3.5,3.1
	C18,6.6,18.4,7,19,7c2.2,0,3,1.5,3,3C22,11.7,20.7,13,19,13z"/>
</svg>
