<?xml version="1.0" encoding="utf-8"?>
<!-- Generator: Adobe Illustrator 19.1.0, SVG Export Plug-In . SVG Version: 6.00 Build 0)  -->
<!DOCTYPE svg PUBLIC "-//W3C//DTD SVG 1.1//EN" "http://www.w3.org/Graphics/SVG/1.1/DTD/svg11.dtd">
<svg version="1.1" id="Layer_1" xmlns="http://www.w3.org/2000/svg" xmlns:xlink="http://www.w3.org/1999/xlink" x="0px" y="0px"
	 width="24px" height="24px" viewBox="0 0 24 24" enable-background="new 0 0 24 24" xml:space="preserve">
<path d="M16,9h1c0.6,0,1-0.4,1-1s-0.4-1-1-1h-1c-0.6,0-1,0.4-1,1S15.4,9,16,9z"/>
<path d="M20,0H9C8.4,0,8,0.4,8,1s0.4,1,1,1h11c1.1,0,2,0.9,2,2H10C7.3,4,4.8,5.1,3,6.9c0,0,0,0,0,0c0,0,0,0,0,0C1.1,8.8,0,11.3,0,14
	c0,1.2,0.2,2.3,0.6,3.3c0,0,0,0.1,0,0.1C2,21.3,5.7,24,10,24h3h8c0.6,0,1-0.4,1-1v-5c0-0.4-0.2-0.7-0.5-0.9c-0.3-0.2-0.7-0.2-1,0
	l-7.6,4.7c-1.7-0.7-2.9-2.6-2.9-4.4c0-2.5,2-4.5,4.5-4.5H16c2.1,0,8-1.5,8-8V4C24,1.8,22.2,0,20,0z M20,19.8V22h-3.5L20,19.8z
	 M3.7,9.1l5.2,5.2c-0.3,0.5-0.5,1.1-0.7,1.7H2.3C2.1,15.4,2,14.7,2,14C2,12.2,2.6,10.5,3.7,9.1z M3.1,18H8c0.1,1.5,0.8,2.9,1.7,4
	C6.9,21.9,4.4,20.3,3.1,18z M10.1,12.7l-5-5C6.5,6.6,8.2,6,10,6h2v5.5C11.3,11.8,10.7,12.2,10.1,12.7z M16,11h-1.5
	c-0.2,0-0.3,0-0.5,0V6h7.9C21.4,10.1,17.4,11,16,11z"/>
</svg>
