<?xml version="1.0" encoding="utf-8"?>
<!-- Generator: Adobe Illustrator 19.1.0, SVG Export Plug-In . SVG Version: 6.00 Build 0)  -->
<!DOCTYPE svg PUBLIC "-//W3C//DTD SVG 1.1//EN" "http://www.w3.org/Graphics/SVG/1.1/DTD/svg11.dtd">
<svg version="1.1" id="Layer_1" xmlns="http://www.w3.org/2000/svg" xmlns:xlink="http://www.w3.org/1999/xlink" x="0px" y="0px"
	 width="24px" height="24px" viewBox="0 0 24 24" enable-background="new 0 0 24 24" xml:space="preserve">
<path d="M18,4c-0.1,0-0.2,0-0.3,0c-0.8-2.3-3-4-5.7-4S7.2,1.7,6.3,4C6.2,4,6.1,4,6,4c-3.3,0-6,2.7-6,6c0,3,2.2,5.4,5,5.9V23
	c0,0.6,0.4,1,1,1h12c0.6,0,1-0.4,1-1v-7.1c2.8-0.5,5-2.9,5-5.9C24,6.7,21.3,4,18,4z M7,22v-2h10v2H7z M18,14c-0.6,0-1,0.4-1,1v3h-4
	v-3c0-0.6-0.4-1-1-1s-1,0.4-1,1v3H7v-3c0-0.6-0.4-1-1-1c-2.2,0-4-1.8-4-4s1.8-4,4-4c0,0.8,0.2,1.6,0.5,2.4C6.7,8.8,7,9,7.4,9
	c0.1,0,0.3,0,0.4-0.1c0.5-0.2,0.7-0.8,0.5-1.3S8,6.6,8,6c0-2.2,1.8-4,4-4s4,1.8,4,4c0,0.6-0.1,1.1-0.3,1.6c-0.2,0.5,0,1.1,0.5,1.3
	c0.5,0.2,1.1,0,1.3-0.5C17.8,7.6,18,6.8,18,6c2.2,0,4,1.8,4,4S20.2,14,18,14z"/>
</svg>
