<?xml version="1.0" encoding="utf-8"?>
<!-- Generator: Adobe Illustrator 19.1.0, SVG Export Plug-In . SVG Version: 6.00 Build 0)  -->
<!DOCTYPE svg PUBLIC "-//W3C//DTD SVG 1.1//EN" "http://www.w3.org/Graphics/SVG/1.1/DTD/svg11.dtd">
<svg version="1.1" id="Layer_1" xmlns="http://www.w3.org/2000/svg" xmlns:xlink="http://www.w3.org/1999/xlink" x="0px" y="0px"
	 width="24px" height="24px" viewBox="0 0 24 24" enable-background="new 0 0 24 24" xml:space="preserve">
<path d="M5,15v8c0,0.6,0.4,1,1,1h12c0.6,0,1-0.4,1-1v-8c0-2.4-1.7-4.4-4-4.9V6h1c0.6,0,1-0.4,1-1V1c0-0.6-0.4-1-1-1H8
	C7.4,0,7,0.4,7,1v4c0,0.6,0.4,1,1,1h1v4.1C6.7,10.6,5,12.6,5,15z M7,22v-3h10v3H7z M9,2h6v2H9V2z M13,6v5c0,0.6,0.4,1,1,1
	c1.7,0,3,1.3,3,3v2H7v-2c0-1.7,1.3-3,3-3c0.6,0,1-0.4,1-1V6H13z"/>
</svg>
