<?xml version="1.0" encoding="utf-8"?>
<!-- Generator: Adobe Illustrator 19.1.0, SVG Export Plug-In . SVG Version: 6.00 Build 0)  -->
<!DOCTYPE svg PUBLIC "-//W3C//DTD SVG 1.1//EN" "http://www.w3.org/Graphics/SVG/1.1/DTD/svg11.dtd">
<svg version="1.1" id="Layer_1" xmlns="http://www.w3.org/2000/svg" xmlns:xlink="http://www.w3.org/1999/xlink" x="0px" y="0px"
	 width="24px" height="24px" viewBox="0 0 24 24" enable-background="new 0 0 24 24" xml:space="preserve">
<path d="M12,5c0.6,0,1-0.4,1-1V1c0-0.6-0.4-1-1-1s-1,0.4-1,1v3C11,4.6,11.4,5,12,5z"/>
<path d="M8,7c0.6,0,1-0.4,1-1V3c0-0.6-0.4-1-1-1S7,2.4,7,3v3C7,6.6,7.4,7,8,7z"/>
<path d="M16,7c0.6,0,1-0.4,1-1V3c0-0.6-0.4-1-1-1s-1,0.4-1,1v3C15,6.6,15.4,7,16,7z"/>
<path d="M23,9h-1H2H1c-0.6,0-1,0.4-1,1s0.4,1,1,1h0.1c0.3,3.7,2.5,6.8,5.5,8.6l-1.5,3c-0.2,0.5,0,1.1,0.5,1.3C5.7,24,5.9,24,6,24
	c0.4,0,0.7-0.2,0.9-0.6l1.5-3.1C9.5,20.8,10.7,21,12,21s2.5-0.2,3.6-0.6l1.5,3.1c0.2,0.4,0.5,0.6,0.9,0.6c0.1,0,0.3,0,0.4-0.1
	c0.5-0.2,0.7-0.8,0.5-1.3l-1.5-3c3-1.7,5.2-4.9,5.5-8.6H23c0.6,0,1-0.4,1-1S23.6,9,23,9z M15.7,18.2C15.7,18.2,15.7,18.2,15.7,18.2
	C15.7,18.2,15.6,18.2,15.7,18.2C14.5,18.7,13.3,19,12,19s-2.5-0.3-3.6-0.8c0,0,0,0,0,0c0,0,0,0-0.1,0c-2.8-1.3-4.9-4-5.2-7.2h17.9
	C20.6,14.2,18.5,16.9,15.7,18.2z"/>
<path d="M10,15h4c0.6,0,1-0.4,1-1s-0.4-1-1-1h-4c-0.6,0-1,0.4-1,1S9.4,15,10,15z"/>
</svg>
