<?xml version="1.0" encoding="utf-8"?>
<!-- Generator: Adobe Illustrator 19.1.0, SVG Export Plug-In . SVG Version: 6.00 Build 0)  -->
<!DOCTYPE svg PUBLIC "-//W3C//DTD SVG 1.1//EN" "http://www.w3.org/Graphics/SVG/1.1/DTD/svg11.dtd">
<svg version="1.1" id="Layer_1" xmlns="http://www.w3.org/2000/svg" xmlns:xlink="http://www.w3.org/1999/xlink" x="0px" y="0px"
	 width="24px" height="24px" viewBox="0 0 24 24" enable-background="new 0 0 24 24" xml:space="preserve">
<path d="M19,0.8c-0.4-0.4-1-0.4-1.4,0l-2,2c-2.5,2.5-2.7,5.1-2.8,6.9c-0.1,1.4-0.2,1.7-0.7,2.3c-0.6,0.6-0.8,0.6-2.2,0.7
	c-1.8,0.1-4.5,0.3-7,2.9l-2.1,2.1c-0.4,0.4-0.4,1,0,1.4L5,23.2c0.2,0.2,0.4,0.3,0.7,0.3s0.5-0.1,0.7-0.3l2.1-2.1
	c0.4-0.4,0.5-0.4,1.9-0.5c1.7-0.1,4.6-0.3,7.3-3c2.7-2.7,2.9-5.6,3.1-7.4c0.1-1.4,0.2-1.5,0.5-1.8l2-2c0.4-0.4,0.4-1,0-1.4L19,0.8z
	 M19.8,7c-0.9,0.9-1,1.8-1.1,3.1c-0.1,1.7-0.3,3.9-2.5,6.1c-2.2,2.2-4.4,2.3-6,2.4c-1.5,0.1-2.3,0.2-3.2,1.1l-1.3,1.3l-2.8-2.8
	l1.3-1.3c2-2,4.1-2.2,5.8-2.3c1.4-0.1,2.3-0.2,3.4-1.3c1.1-1.1,1.2-2,1.3-3.6C14.9,8.2,15,6.1,17,4.2l1.3-1.3l2.8,2.8L19.8,7z"/>
</svg>
