<?xml version="1.0" encoding="utf-8"?>
<!-- Generator: Adobe Illustrator 19.1.0, SVG Export Plug-In . SVG Version: 6.00 Build 0)  -->
<!DOCTYPE svg PUBLIC "-//W3C//DTD SVG 1.1//EN" "http://www.w3.org/Graphics/SVG/1.1/DTD/svg11.dtd">
<svg version="1.1" id="Layer_1" xmlns="http://www.w3.org/2000/svg" xmlns:xlink="http://www.w3.org/1999/xlink" x="0px" y="0px"
	 width="24px" height="24px" viewBox="0 0 24 24" enable-background="new 0 0 24 24" xml:space="preserve">
<path d="M10,15h1.6l-1.3,1.3c-0.4,0.4-0.4,1,0,1.4c0.2,0.2,0.5,0.3,0.7,0.3s0.5-0.1,0.7-0.3l3-3c0.3-0.3,0.4-0.7,0.2-1.1
	C14.8,13.2,14.4,13,14,13h-1.6l1.3-1.3c0.4-0.4,0.4-1,0-1.4s-1-0.4-1.4,0l-3,3C9,13.6,8.9,14,9.1,14.4C9.2,14.8,9.6,15,10,15z"/>
<path d="M3.4,7.2C3.1,7.4,3,7.7,3,8v12c0,2.2,1.8,4,4,4h10c2.2,0,4-1.8,4-4V8c0-0.3-0.1-0.6-0.4-0.8c-0.9-0.7-1.6-1.6-2-2.2H19
	c0.6,0,1-0.4,1-1V1c0-0.6-0.4-1-1-1H5C4.4,0,4,0.4,4,1v3c0,0.6,0.4,1,1,1h0.4C5,5.7,4.3,6.5,3.4,7.2z M6,2h12v1H6V2z M5,8.5
	C6.5,7.2,7.3,5.8,7.7,5h8.7c0.4,0.8,1.2,2.2,2.7,3.5V20c0,1.1-0.9,2-2,2H7c-1.1,0-2-0.9-2-2V8.5z"/>
</svg>
