<?xml version="1.0" encoding="utf-8"?>
<!-- Generator: Adobe Illustrator 19.1.0, SVG Export Plug-In . SVG Version: 6.00 Build 0)  -->
<!DOCTYPE svg PUBLIC "-//W3C//DTD SVG 1.1//EN" "http://www.w3.org/Graphics/SVG/1.1/DTD/svg11.dtd">
<svg version="1.1" id="Layer_1" xmlns="http://www.w3.org/2000/svg" xmlns:xlink="http://www.w3.org/1999/xlink" x="0px" y="0px"
	 width="24px" height="24px" viewBox="0 0 24 24" enable-background="new 0 0 24 24" xml:space="preserve">
<path d="M17,7c-1.8,0-2.7-0.8-3.8-1.9C11.8,3.7,10,2,6,2C2.6,2,0,4.6,0,8v5c0,3.5,3.3,9,12,9c7.4,0,12-0.2,12-5v-5C24,9,20.4,7,17,7
	z M6,4c3.2,0,4.5,1.2,5.8,2.5C13,7.7,14.3,9,17,9c2.6,0,5,1.4,5,3c0,2.3-1.4,3-10,3C4.7,15,2,10.7,2,8C2,5.7,3.7,4,6,4z M12,20
	c-7.3,0-10-4.3-10-7c1.8,2.2,5,4,10,4c4.5,0,8-0.1,10-1.2V17C22,19.3,20.6,20,12,20z"/>
<path d="M6.7,11.4c0.2,0,0.4,0.1,0.7,0.1c1,0,2.1-0.4,2.8-0.9C10.9,9.9,11,9.4,11,9c0-1.8-2.9-3.4-4.4-3.4C4.9,5.6,4,6.9,4,8.2
	C4,9.6,5.2,11,6.7,11.4z M6.6,7.6c0.7,0,2,0.8,2.3,1.3C8.6,9.2,7.7,9.5,7.1,9.4C6.5,9.3,6,8.6,6,8.2C6,7.9,6.1,7.6,6.6,7.6z"/>
</svg>
