<?xml version="1.0" encoding="utf-8"?>
<!-- Generator: Adobe Illustrator 19.1.0, SVG Export Plug-In . SVG Version: 6.00 Build 0)  -->
<!DOCTYPE svg PUBLIC "-//W3C//DTD SVG 1.1//EN" "http://www.w3.org/Graphics/SVG/1.1/DTD/svg11.dtd">
<svg version="1.1" id="Layer_1" xmlns="http://www.w3.org/2000/svg" xmlns:xlink="http://www.w3.org/1999/xlink" x="0px" y="0px"
	 width="24px" height="24px" viewBox="0 0 24 24" enable-background="new 0 0 24 24" xml:space="preserve">
<path d="M23,1H1C0.4,1,0,1.4,0,2s0.4,1,1,1h10v2H3C2.4,5,2,5.4,2,6v16c0,0.6,0.4,1,1,1h18c0.6,0,1-0.4,1-1V6c0-0.6-0.4-1-1-1h-8V3
	h10c0.6,0,1-0.4,1-1S23.6,1,23,1z M20,21H4V7h16V21z"/>
<path d="M6,14c0,3.3,2.7,6,6,6s6-2.7,6-6s-2.7-6-6-6S6,10.7,6,14z M16,14c0,2.2-1.8,4-4,4s-4-1.8-4-4s1.8-4,4-4S16,11.8,16,14z"/>
<path d="M10.3,12.3c-0.4,0.4-0.4,1,0,1.4l1,1c0.2,0.2,0.5,0.3,0.7,0.3s0.5-0.1,0.7-0.3c0.4-0.4,0.4-1,0-1.4l-1-1
	C11.3,11.9,10.7,11.9,10.3,12.3z"/>
</svg>
