<?xml version="1.0" encoding="utf-8"?>
<!-- Generator: Adobe Illustrator 19.1.0, SVG Export Plug-In . SVG Version: 6.00 Build 0)  -->
<!DOCTYPE svg PUBLIC "-//W3C//DTD SVG 1.1//EN" "http://www.w3.org/Graphics/SVG/1.1/DTD/svg11.dtd">
<svg version="1.1" id="Layer_1" xmlns="http://www.w3.org/2000/svg" xmlns:xlink="http://www.w3.org/1999/xlink" x="0px" y="0px"
	 width="24px" height="24px" viewBox="0 0 24 24" enable-background="new 0 0 24 24" xml:space="preserve">
<path d="M1.2,20.9c0,0.8,0.3,1.6,0.9,2.1s1.3,0.9,2.1,0.9c0.8,0,1.6-0.3,2.1-0.9l3.5-3.5L22.6,6.8c0.4-0.4,0.4-1,0-1.4l-3.5-3.5
	c-1.1-1.1-2.6-1.8-4.2-1.8s-3.1,0.6-4.2,1.8L1.4,11c-0.4,0.4-0.4,1,0,1.4L4.9,16l-2.8,2.8C1.5,19.4,1.2,20.1,1.2,20.9z M12,3.2
	c1.5-1.5,4.1-1.5,5.7,0l2.8,2.8L9.2,17.4l-5.7-5.7L12,3.2z M3.5,20.2l2.8-2.8l1.4,1.4l-2.8,2.8c-0.4,0.4-1,0.4-1.4,0
	c-0.2-0.2-0.3-0.4-0.3-0.7C3.2,20.7,3.3,20.4,3.5,20.2z"/>
<path d="M9.2,14.1c0.3,0,0.5-0.1,0.7-0.3l4.9-5c0.4-0.4,0.4-1,0-1.4s-1-0.4-1.4,0l-4.9,5c-0.4,0.4-0.4,1,0,1.4
	C8.7,14,8.9,14.1,9.2,14.1z"/>
</svg>
