<?xml version="1.0" encoding="utf-8"?>
<!-- Generator: Adobe Illustrator 19.1.0, SVG Export Plug-In . SVG Version: 6.00 Build 0)  -->
<!DOCTYPE svg PUBLIC "-//W3C//DTD SVG 1.1//EN" "http://www.w3.org/Graphics/SVG/1.1/DTD/svg11.dtd">
<svg version="1.1" id="Layer_1" xmlns="http://www.w3.org/2000/svg" xmlns:xlink="http://www.w3.org/1999/xlink" x="0px" y="0px"
	 width="24px" height="24px" viewBox="0 0 24 24" enable-background="new 0 0 24 24" xml:space="preserve">
<path d="M19,3c-0.4,0-0.8,0-1.2,0.1C16.5,1.2,14.4,0,12,0S7.5,1.2,6.2,3.1C5.8,3,5.4,3,5,3C2.2,3,0,5.2,0,8c0,1.7,0.9,3.3,2.3,4.2
	L5,23.2C5.1,23.7,5.5,24,6,24h12c0.5,0,0.9-0.3,1-0.8l2.8-11.1C23.1,11.3,24,9.7,24,8C24,5.2,21.8,3,19,3z M17.2,22h-2l0.8-4.8
	c0.1-0.5-0.3-1.1-0.8-1.2c-0.5-0.1-1.1,0.3-1.2,0.8L13.2,22h-2.3L10,16.8c-0.1-0.5-0.6-0.9-1.2-0.8c-0.5,0.1-0.9,0.6-0.8,1.2L8.8,22
	h-2l-2.3-9c0.2,0,0.3,0,0.5,0c0.9,0,1.7-0.2,2.5-0.7C8.7,13.4,10.3,14,12,14s3.3-0.6,4.5-1.7c0.8,0.4,1.6,0.7,2.5,0.7
	c0.2,0,0.3,0,0.5,0L17.2,22z M19,11c-0.9,0-1.5-0.4-1.9-0.7c-0.4-0.3-1-0.3-1.4,0.1c-0.9,1-2.3,1.6-3.7,1.6s-2.7-0.6-3.7-1.6
	C8.1,10.1,7.8,10,7.6,10c-0.2,0-0.5,0.1-0.6,0.2C6.5,10.6,5.9,11,5,11c-1.7,0-3-1.3-3-3s1.3-3,3-3c0.4,0,0.8,0.1,1.2,0.3
	c0.5,0.2,1.1,0,1.3-0.5C8.4,3.1,10.1,2,12,2s3.6,1.1,4.5,2.8c0.2,0.5,0.8,0.7,1.3,0.5C18.2,5.1,18.6,5,19,5c1.7,0,3,1.3,3,3
	S20.7,11,19,11z"/>
</svg>
