<?xml version="1.0" encoding="utf-8"?>
<!-- Generator: Adobe Illustrator 19.1.0, SVG Export Plug-In . SVG Version: 6.00 Build 0)  -->
<!DOCTYPE svg PUBLIC "-//W3C//DTD SVG 1.1//EN" "http://www.w3.org/Graphics/SVG/1.1/DTD/svg11.dtd">
<svg version="1.1" id="Layer_1" xmlns="http://www.w3.org/2000/svg" xmlns:xlink="http://www.w3.org/1999/xlink" x="0px" y="0px"
	 width="24px" height="24px" viewBox="0 0 24 24" enable-background="new 0 0 24 24" xml:space="preserve">
<path d="M14.4,1.9c0.5-0.2,0.8-0.8,0.6-1.3c-0.2-0.5-0.8-0.8-1.3-0.6C12,0.7,11,2.2,11,4.1c-0.8,0.2-1.5,0.6-2,1.2
	C8.3,4.5,7.2,4,6,4C3.8,4,2,5.8,2,8c0,2.1,1.6,3.7,3.6,4C5.2,12.6,5,13.3,5,14c0,2.1,1.6,3.7,3.6,4C8.2,18.6,8,19.3,8,20
	c0,2.2,1.8,4,4,4s4-1.8,4-4c0-0.7-0.2-1.4-0.6-2c2-0.2,3.6-1.9,3.6-4c0-0.7-0.2-1.4-0.6-2c2-0.2,3.6-1.9,3.6-4c0-2.2-1.8-4-4-4
	c-1.2,0-2.3,0.5-3,1.4c-0.5-0.6-1.2-1-2-1.2C13,3,13.5,2.3,14.4,1.9z M4,8c0-1.1,0.9-2,2-2s2,0.9,2,2s-0.9,2-2,2S4,9.1,4,8z M7,14
	c0-1.1,0.9-2,2-2s2,0.9,2,2s-0.9,2-2,2S7,15.1,7,14z M12,22c-1.1,0-2-0.9-2-2s0.9-2,2-2s2,0.9,2,2S13.1,22,12,22z M15,16
	c-1.1,0-2-0.9-2-2s0.9-2,2-2s2,0.9,2,2S16.1,16,15,16z M18,6c1.1,0,2,0.9,2,2s-0.9,2-2,2s-2-0.9-2-2S16.9,6,18,6z M14,8
	c0,1.1-0.9,2-2,2s-2-0.9-2-2s0.9-2,2-2S14,6.9,14,8z"/>
</svg>
