<?xml version="1.0" encoding="utf-8"?>
<!-- Generator: Adobe Illustrator 19.1.0, SVG Export Plug-In . SVG Version: 6.00 Build 0)  -->
<!DOCTYPE svg PUBLIC "-//W3C//DTD SVG 1.1//EN" "http://www.w3.org/Graphics/SVG/1.1/DTD/svg11.dtd">
<svg version="1.1" id="Layer_1" xmlns="http://www.w3.org/2000/svg" xmlns:xlink="http://www.w3.org/1999/xlink" x="0px" y="0px"
	 width="24px" height="24px" viewBox="0 0 24 24" enable-background="new 0 0 24 24" xml:space="preserve">
<path d="M21.6,13.2c-0.9-0.7-1.9-0.5-2.7-0.3c-0.1,0-0.2,0-0.3,0c-1.2-2.7-1.8-6.3,1.1-9.2C20,3.4,20.1,3,19.9,2.6
	C19.8,2.2,19.4,2,19,2c-1.6,0-3.2,0.3-4.8,0.9C13.2,2,10.7,0,8,0C4.7,0,1.4,3.2,1.3,3.3C1.1,3.5,1,3.7,1,4c0,0.3,0.1,0.5,0.3,0.7
	c0.1,0.1,2.8,2.7,5.8,3.2c-1.1,1.5-1.8,3.2-2,5c0,0,0,0,0,0c-0.8-0.2-1.8-0.3-2.7,0.3C0.9,14.4,0,16.1,0,18c0,3.3,2.7,6,6,6
	s6-2.7,6-6c0-1.9-0.9-3.7-2.4-4.8c-0.8-0.6-1.7-0.5-2.5-0.4c0.3-2.3,1.7-4,2.9-5.2c2.2-0.7,4-2.3,4.6-2.8c0.8-0.3,1.5-0.5,2.3-0.7
	c-1.4,2.4-1.6,5.4-0.4,8.5c-0.6-0.1-1.3-0.1-2,0.4C12.9,14.4,12,16.1,12,18c0,3.3,2.7,6,6,6s6-2.7,6-6C24,16.1,23.1,14.3,21.6,13.2z
	 M8.4,14.8c1,0.8,1.6,1.9,1.6,3.2c0,2.2-1.8,4-4,4s-4-1.8-4-4c0-1.3,0.6-2.4,1.6-3.2c0.1-0.1,0.2-0.1,0.3-0.1c0.2,0,0.4,0,0.8,0.1
	C5.1,14.9,5.5,15,6,15c0.5,0,0.9-0.1,1.3-0.2C7.9,14.7,8.2,14.7,8.4,14.8z M8,6C6.3,6,4.5,4.8,3.5,4C4.6,3.1,6.4,2,8,2
	c1.7,0,3.5,1.2,4.5,2C11.5,4.8,9.7,6,8,6z M18,22c-2.2,0-4-1.8-4-4c0-1.3,0.6-2.4,1.6-3.2c0.1-0.1,0.2-0.1,0.3-0.1
	c0.2,0,0.4,0,0.8,0.1c0.4,0.1,0.8,0.2,1.3,0.2c0,0,0,0,0,0c0,0,0,0,0,0c0,0,0,0,0,0c0.5,0,0.9-0.1,1.3-0.2c0.6-0.1,0.9-0.2,1.1,0
	c1,0.8,1.6,1.9,1.6,3.2C22,20.2,20.2,22,18,22z"/>
</svg>
