<?xml version="1.0" encoding="utf-8"?>
<!-- Generator: Adobe Illustrator 19.1.0, SVG Export Plug-In . SVG Version: 6.00 Build 0)  -->
<!DOCTYPE svg PUBLIC "-//W3C//DTD SVG 1.1//EN" "http://www.w3.org/Graphics/SVG/1.1/DTD/svg11.dtd">
<svg version="1.1" id="Layer_1" xmlns="http://www.w3.org/2000/svg" xmlns:xlink="http://www.w3.org/1999/xlink" x="0px" y="0px"
	 width="24px" height="24px" viewBox="0 0 24 24" enable-background="new 0 0 24 24" xml:space="preserve">
<path d="M3,7v13c0,2.2,1.8,4,4,4h8c2.2,0,4-1.8,4-4v-8.1c2.3-0.5,4-2.5,4-4.9c0-2.8-2.2-5-5-5c-2.4,0-4.4,1.7-4.9,4h-4L8,0.8
	C7.9,0.3,7.5,0,7,0H3C2.4,0,2,0.4,2,1s0.4,1,1,1h3.2l0.9,4H4C3.4,6,3,6.4,3,7z M15,22H7c-1.1,0-2-0.9-2-2v-4h4.3l0.7,3.2
	c0.1,0.5,0.5,0.8,1,0.8c0.1,0,0.1,0,0.2,0c0.5-0.1,0.9-0.7,0.8-1.2L11.4,16H17v4C17,21.1,16.1,22,15,22z M18,4c1.7,0,3,1.3,3,3
	c0,1.3-0.8,2.4-2,2.8V7c0-0.6-0.4-1-1-1h-2.8C15.6,4.8,16.7,4,18,4z M17,8v6h-6.1L9.6,8H17z M7.5,8l1.3,6H5V8H7.5z"/>
</svg>
