<?xml version="1.0" encoding="utf-8"?>
<!-- Generator: Adobe Illustrator 19.1.0, SVG Export Plug-In . SVG Version: 6.00 Build 0)  -->
<!DOCTYPE svg PUBLIC "-//W3C//DTD SVG 1.1//EN" "http://www.w3.org/Graphics/SVG/1.1/DTD/svg11.dtd">
<svg version="1.1" id="Layer_1" xmlns="http://www.w3.org/2000/svg" xmlns:xlink="http://www.w3.org/1999/xlink" x="0px" y="0px"
	 width="24px" height="24px" viewBox="0 0 24 24" enable-background="new 0 0 24 24" xml:space="preserve">
<path d="M18,1H6C2.7,1,0,3.7,0,7c0,2.6,1.6,4.8,4,5.7V22c0,0.6,0.4,1,1,1h14c0.6,0,1-0.4,1-1v-9.3c2.4-0.8,4-3.1,4-5.7
	C24,3.7,21.3,1,18,1z M18.8,10.9c-0.5,0.1-0.8,0.5-0.8,1V21H6v-9.1c0-0.5-0.3-0.9-0.8-1C3.3,10.5,2,8.9,2,7c0-2.2,1.8-4,4-4h12
	c2.2,0,4,1.8,4,4C22,8.9,20.7,10.5,18.8,10.9z"/>
<path d="M13.7,11.7c0.4-0.4,0.4-1,0-1.4l-1-1c-0.4-0.4-1-0.4-1.4,0s-0.4,1,0,1.4l1,1c0.2,0.2,0.5,0.3,0.7,0.3S13.5,11.9,13.7,11.7z"
	/>
<path d="M14.3,15.3l-1,1c-0.4,0.4-0.4,1,0,1.4c0.2,0.2,0.5,0.3,0.7,0.3s0.5-0.1,0.7-0.3l1-1c0.4-0.4,0.4-1,0-1.4
	S14.7,14.9,14.3,15.3z"/>
<path d="M16,5c-0.6,0-1,0.4-1,1v1c0,0.6,0.4,1,1,1s1-0.4,1-1V6C17,5.4,16.6,5,16,5z"/>
<path d="M8.7,5.3c-0.4-0.4-1-0.4-1.4,0l-1,1c-0.4,0.4-0.4,1,0,1.4C6.5,7.9,6.7,8,7,8s0.5-0.1,0.7-0.3l1-1C9.1,6.3,9.1,5.7,8.7,5.3z"
	/>
<path d="M9,14c-0.6,0-1,0.4-1,1v1c0,0.6,0.4,1,1,1s1-0.4,1-1v-1C10,14.4,9.6,14,9,14z"/>
</svg>
