<?xml version="1.0" encoding="utf-8"?>
<!-- Generator: Adobe Illustrator 19.1.0, SVG Export Plug-In . SVG Version: 6.00 Build 0)  -->
<!DOCTYPE svg PUBLIC "-//W3C//DTD SVG 1.1//EN" "http://www.w3.org/Graphics/SVG/1.1/DTD/svg11.dtd">
<svg version="1.1" id="Layer_1" xmlns="http://www.w3.org/2000/svg" xmlns:xlink="http://www.w3.org/1999/xlink" x="0px" y="0px"
	 width="24px" height="24px" viewBox="0 0 24 24" enable-background="new 0 0 24 24" xml:space="preserve">
<path d="M3,12.7V23c0,0.6,0.4,1,1,1h6c0.6,0,1-0.4,1-1v-4h2v4c0,0.6,0.4,1,1,1h6c0.6,0,1-0.4,1-1V12.7c1.1-0.5,2-1.7,2-3.7
	c0-0.2,0-0.3-0.1-0.4l-4-8C18.7,0.2,18.4,0,18,0H6C5.6,0,5.3,0.2,5.1,0.6l-4,8C1,8.7,1,8.8,1,9C1,10.9,1.9,12.1,3,12.7z M15,22v-4
	c0-0.6-0.4-1-1-1h-4c-0.6,0-1,0.4-1,1v4H5v-9c0.8-0.1,1.5-0.5,2-1c0.6,0.6,1.5,1,2.5,1s1.9-0.4,2.5-1c0.6,0.6,1.5,1,2.5,1
	s1.9-0.4,2.5-1c0.5,0.5,1.2,0.9,2,1v9H15z M6.6,2h10.8L21,9.2c0,0.7-0.3,1.8-1.5,1.8c-0.8,0-1.5-0.7-1.5-1.5c0-0.6-0.4-1-1-1
	s-1,0.4-1,1c0,0.8-0.7,1.5-1.5,1.5S13,10.3,13,9.5c0-0.6-0.4-1-1-1s-1,0.4-1,1c0,0.8-0.7,1.5-1.5,1.5S8,10.3,8,9.5c0-0.6-0.4-1-1-1
	s-1,0.4-1,1C6,10.3,5.3,11,4.5,11C3.3,11,3,10,3,9.2L6.6,2z"/>
</svg>
