<?xml version="1.0" encoding="utf-8"?>
<!-- Generator: Adobe Illustrator 19.1.0, SVG Export Plug-In . SVG Version: 6.00 Build 0)  -->
<!DOCTYPE svg PUBLIC "-//W3C//DTD SVG 1.1//EN" "http://www.w3.org/Graphics/SVG/1.1/DTD/svg11.dtd">
<svg version="1.1" id="Layer_1" xmlns="http://www.w3.org/2000/svg" xmlns:xlink="http://www.w3.org/1999/xlink" x="0px" y="0px"
	 width="24px" height="24px" viewBox="0 0 24 24" enable-background="new 0 0 24 24" xml:space="preserve">
<path d="M23,0H1C0.4,0,0,0.4,0,1v22c0,0.6,0.4,1,1,1h22c0.6,0,1-0.4,1-1V1C24,0.4,23.6,0,23,0z M22,4h-2V2h2V4z M18,2v2H2V2H18z
	 M2,22V6h20v16H2z"/>
<path d="M15,8H9C8.4,8,8,8.4,8,9v3c0,1.9,1.3,3.4,3,3.9V18h-1c-0.6,0-1,0.4-1,1s0.4,1,1,1h4c0.6,0,1-0.4,1-1s-0.4-1-1-1h-1v-2.1
	c1.7-0.4,3-2,3-3.9V9C16,8.4,15.6,8,15,8z M14,12c0,1.1-0.9,2-2,2s-2-0.9-2-2v-2h4V12z"/>
</svg>
