<?xml version="1.0" encoding="utf-8"?>
<!-- Generator: Adobe Illustrator 19.1.0, SVG Export Plug-In . SVG Version: 6.00 Build 0)  -->
<!DOCTYPE svg PUBLIC "-//W3C//DTD SVG 1.1//EN" "http://www.w3.org/Graphics/SVG/1.1/DTD/svg11.dtd">
<svg version="1.1" id="Layer_1" xmlns="http://www.w3.org/2000/svg" xmlns:xlink="http://www.w3.org/1999/xlink" x="0px" y="0px"
	 width="24px" height="24px" viewBox="0 0 24 24" enable-background="new 0 0 24 24" xml:space="preserve">
<path d="M23.4,8.1c-0.3-0.2-0.7-0.1-1,0.1l-3.1,2.3C18.1,8.7,15,5,10,5c-5.6,0-8.8,6.3-8.9,6.6c-0.1,0.3-0.1,0.6,0,0.9
	c0.1,0.2,2.5,5,6.8,6.2c0,0,0,0,0,0C8.6,18.9,9.3,19,10,19c5,0,8.1-3.7,9.3-5.5l3.1,2.3c0.2,0.1,0.4,0.2,0.6,0.2
	c0.2,0,0.3,0,0.4-0.1c0.3-0.2,0.6-0.5,0.6-0.9V9C24,8.6,23.8,8.3,23.4,8.1z M3.1,12c0.6-1,2.2-3.5,4.6-4.5C8.6,8.9,9,10.4,9,12
	c0,1.6-0.4,3.1-1.2,4.5C5.4,15.5,3.7,13,3.1,12z M10,17c-0.1,0-0.1,0-0.2,0c0.8-1.5,1.2-3.2,1.2-5c0-1.7-0.4-3.4-1.2-5
	C9.9,7,9.9,7,10,7c4.4,0,7,3.7,7.8,5C17,13.3,14.4,17,10,17z M22,13l-1.3-1l1.3-1V13z"/>
</svg>
