<?xml version="1.0" encoding="utf-8"?>
<!-- Generator: Adobe Illustrator 19.1.0, SVG Export Plug-In . SVG Version: 6.00 Build 0)  -->
<!DOCTYPE svg PUBLIC "-//W3C//DTD SVG 1.1//EN" "http://www.w3.org/Graphics/SVG/1.1/DTD/svg11.dtd">
<svg version="1.1" id="Layer_1" xmlns="http://www.w3.org/2000/svg" xmlns:xlink="http://www.w3.org/1999/xlink" x="0px" y="0px"
	 width="24px" height="24px" viewBox="0 0 24 24" enable-background="new 0 0 24 24" xml:space="preserve">
<path d="M21.6,1.1c-0.3,0.1-0.6,0.3-0.7,0.6C20.5,2.5,19.8,3,19,3s-1.5-0.5-1.9-1.2c-0.1-0.3-0.4-0.5-0.7-0.6
	c-0.3-0.1-0.7,0-0.9,0.3c-1,1-1.5,2.2-1.5,3.6c0,2.4,1.7,4.4,3.9,4.9c-0.2,1-0.7,1.8-1.2,2.2c-1.4-0.6-3-1-4.7-1s-3.3,0.4-4.7,1
	c-0.5-0.4-1-1.2-1.2-2.2C8.3,9.4,10,7.4,10,5c0-1.4-0.5-2.6-1.5-3.6C8.2,1.2,7.9,1.1,7.6,1.1C7.2,1.2,7,1.4,6.9,1.8
	C6.5,2.5,5.8,3,5,3S3.5,2.5,3.1,1.8C3,1.4,2.8,1.2,2.4,1.1c-0.3-0.1-0.7,0-0.9,0.3C0.5,2.4,0,3.6,0,5c0,2.4,1.8,4.5,4.1,4.9
	c0.2,1.2,0.7,2.3,1.3,3.1c-2.5,1.5-4,3.2-4.2,3.3c-0.3,0.4-0.3,1,0,1.3c0.1,0.1,1.1,1.2,2.8,2.4C3.2,21,3,22.2,3,23c0,0.6,0.4,1,1,1
	h0c0.6,0,1-0.4,1-1c0,0,0-1.3,0.7-1.8c1.8,1,3.9,1.8,6.3,1.8c2.4,0,4.5-0.8,6.3-1.8C19,21.7,19,23,19,23c0,0.6,0.4,1,1,1h0
	c0.6,0,1-0.4,1-1c0-0.8-0.3-2-1-2.9c1.6-1.2,2.7-2.3,2.8-2.4c0.3-0.4,0.3-1,0-1.3c-0.1-0.1-1.7-1.9-4.2-3.3c0.7-0.8,1.2-1.9,1.3-3.1
	C22.2,9.5,24,7.4,24,5c0-1.4-0.5-2.6-1.5-3.6C22.2,1.2,21.9,1.1,21.6,1.1z M2,5c0-0.4,0.1-0.8,0.2-1.1C2.9,4.6,3.9,5,5,5
	s2.1-0.4,2.8-1.1C7.9,4.2,8,4.6,8,5c0,1.7-1.3,3-3,3S2,6.7,2,5z M12,21c-3.9,0-7.2-2.7-8.6-4c1.4-1.3,4.7-4,8.6-4
	c3.8,0,7.2,2.7,8.6,4C19.2,18.3,15.8,21,12,21z M19,8c-1.7,0-3-1.3-3-3c0-0.4,0.1-0.8,0.2-1.1C16.9,4.6,17.9,5,19,5s2.1-0.4,2.8-1.1
	C21.9,4.2,22,4.6,22,5C22,6.7,20.7,8,19,8z"/>
</svg>
