<?xml version="1.0" encoding="utf-8"?>
<!-- Generator: Adobe Illustrator 19.1.0, SVG Export Plug-In . SVG Version: 6.00 Build 0)  -->
<!DOCTYPE svg PUBLIC "-//W3C//DTD SVG 1.1//EN" "http://www.w3.org/Graphics/SVG/1.1/DTD/svg11.dtd">
<svg version="1.1" id="Layer_1" xmlns="http://www.w3.org/2000/svg" xmlns:xlink="http://www.w3.org/1999/xlink" x="0px" y="0px"
	 width="24px" height="24px" viewBox="0 0 24 24" enable-background="new 0 0 24 24" xml:space="preserve">
<path d="M21,2c0.6,0,1-0.4,1-1s-0.4-1-1-1h-4c-0.4,0-0.8,0.3-0.9,0.7L14.3,6H3C2.4,6,2,6.4,2,7v4c0,0.6,0.4,1,1,1h1.3L6,23.2
	C6.1,23.6,6.5,24,7,24h10c0.5,0,0.9-0.4,1-0.8L19.7,12H21c0.6,0,1-0.4,1-1V7c0-0.6-0.4-1-1-1h-4.6l1.3-4H21z M16.1,22H7.9L6.3,12
	h11.4L16.1,22z M20,10H4V8h16V10z"/>
</svg>
