<?xml version="1.0" encoding="utf-8"?>
<!-- Generator: Adobe Illustrator 19.1.0, SVG Export Plug-In . SVG Version: 6.00 Build 0)  -->
<!DOCTYPE svg PUBLIC "-//W3C//DTD SVG 1.1//EN" "http://www.w3.org/Graphics/SVG/1.1/DTD/svg11.dtd">
<svg version="1.1" id="Layer_1" xmlns="http://www.w3.org/2000/svg" xmlns:xlink="http://www.w3.org/1999/xlink" x="0px" y="0px"
	 width="24px" height="24px" viewBox="0 0 24 24" enable-background="new 0 0 24 24" xml:space="preserve">
<path d="M18.6,8.4c0.3,0,0.7,0,0.9-0.1c0.6-0.1,2.2-0.4,3.2-1.4c0.7-0.7,1-1.7,0.7-2.7C23.2,3.5,22.7,2.8,22,2
	c-0.7-0.7-1.5-1.2-2.3-1.4c-1-0.2-1.9,0-2.6,0.7c-1,1-1.3,2.6-1.4,3.2c-0.1,0.5-0.1,1.4,0.1,2.2l-1.6,1.6L12.8,7
	c-0.4-0.4-1-0.4-1.4,0L10,8.4L8.5,7c-0.4-0.4-1-0.4-1.4,0L4.3,9.8C4.1,10,4,10.2,4,10.5s0.1,0.5,0.3,0.7L6.1,13
	c-0.7,0.2-1.3,0.5-1.8,1c-1.3,1.3-1.5,3.3-0.6,4.8l-2.9,2.9c-0.4,0.4-0.4,1,0,1.4c0.2,0.2,0.5,0.3,0.7,0.3s0.5-0.1,0.7-0.3l2.9-2.9
	c0.6,0.4,1.3,0.6,2,0.6c1,0,2-0.4,2.8-1.2c0.5-0.5,0.8-1.1,1-1.8l1.8,1.8c0.2,0.2,0.5,0.3,0.7,0.3s0.5-0.1,0.7-0.3l2.8-2.8
	c0.2-0.2,0.3-0.4,0.3-0.7s-0.1-0.5-0.3-0.7L15.6,14l1.4-1.4c0.2-0.2,0.3-0.4,0.3-0.7s-0.1-0.5-0.3-0.7l-1.4-1.4l1.6-1.6
	C17.7,8.3,18.2,8.4,18.6,8.4z M9.1,16.9c0,0.5-0.2,1-0.6,1.4c-0.8,0.8-2,0.8-2.8,0c-0.8-0.8-0.8-2,0-2.8c0.8-0.8,2-0.8,2.8,0l0,0
	C8.9,15.8,9.1,16.3,9.1,16.9z M13.5,17.6L10,14c0,0,0,0,0,0c0,0,0,0,0,0l-3.5-3.5l1.4-1.4l1.4,1.4c0,0,0,0,0,0s0,0,0,0l4.2,4.2
	c0,0,0,0,0,0s0,0,0,0l1.4,1.4L13.5,17.6z M11.4,9.8l0.7-0.7l1.4,1.4c0,0,0,0,0,0s0,0,0,0l1.4,1.4l-0.7,0.7L11.4,9.8z M18.4,2.7
	c0.2-0.2,0.3-0.2,0.5-0.2c0.1,0,0.2,0,0.3,0c0.4,0.1,0.9,0.4,1.4,0.9c0.5,0.5,0.8,1,0.9,1.4c0.1,0.3,0,0.5-0.2,0.8
	c-0.8,0.8-3.1,1-3.5,0.7C17.5,5.8,17.6,3.5,18.4,2.7z"/>
</svg>
