<?xml version="1.0" encoding="utf-8"?>
<!-- Generator: Adobe Illustrator 19.1.0, SVG Export Plug-In . SVG Version: 6.00 Build 0)  -->
<!DOCTYPE svg PUBLIC "-//W3C//DTD SVG 1.1//EN" "http://www.w3.org/Graphics/SVG/1.1/DTD/svg11.dtd">
<svg version="1.1" id="Layer_1" xmlns="http://www.w3.org/2000/svg" xmlns:xlink="http://www.w3.org/1999/xlink" x="0px" y="0px"
	 width="24px" height="24px" viewBox="0 0 24 24" enable-background="new 0 0 24 24" xml:space="preserve">
<path d="M13.5,5C11,5,9,7,9,9.5s2,4.5,4.5,4.5S18,12,18,9.5S16,5,13.5,5z M13.5,12c-1.4,0-2.5-1.1-2.5-2.5S12.1,7,13.5,7
	S16,8.1,16,9.5S14.9,12,13.5,12z"/>
<path d="M12,0C7.6,0,3.8,2,2.1,5.2c-2.3,4.6-0.4,7,1.2,8.9c0.8,1,1.5,1.9,1.7,3c0.7,5.7,3.3,6.9,7,6.9c6.6,0,12-5.4,12-12
	S18.6,0,12,0z M12,22c-2.7,0-4.5-0.4-5-5.1c-0.2-1.7-1.2-2.9-2.1-4c-1.5-1.9-2.7-3.3-1-6.7C5.2,3.6,8.4,2,12,2c5.5,0,10,4.5,10,10
	S17.5,22,12,22z"/>
</svg>
