<?xml version="1.0" encoding="utf-8"?>
<!-- Generator: Adobe Illustrator 19.1.0, SVG Export Plug-In . SVG Version: 6.00 Build 0)  -->
<!DOCTYPE svg PUBLIC "-//W3C//DTD SVG 1.1//EN" "http://www.w3.org/Graphics/SVG/1.1/DTD/svg11.dtd">
<svg version="1.1" id="Layer_1" xmlns="http://www.w3.org/2000/svg" xmlns:xlink="http://www.w3.org/1999/xlink" x="0px" y="0px"
	 width="24px" height="24px" viewBox="0 0 24 24" enable-background="new 0 0 24 24" xml:space="preserve">
<path d="M23.9,12.6c0-0.1-0.1-0.2-0.2-0.3c0,0,0,0,0,0c0,0-0.1-0.1-0.1-0.1L18,8.5V3c0-0.6-0.4-1-1-1H7C6.4,2,6,2.4,6,3v5.5
	l-5.6,3.7c0,0-0.1,0.1-0.1,0.1c0,0,0,0,0,0c-0.1,0.1-0.1,0.2-0.2,0.3c0,0,0,0,0,0.1C0,12.8,0,12.9,0,13v8c0,0.6,0.4,1,1,1h22
	c0.6,0,1-0.4,1-1v-8C24,12.9,24,12.8,23.9,12.6C23.9,12.6,23.9,12.6,23.9,12.6z M7.6,9.8C7.8,9.6,8,9.3,8,9V4h8v5
	c0,0.3,0.2,0.6,0.4,0.8l3.3,2.2H4.3L7.6,9.8z M2,20v-6h20v6H2z"/>
<path d="M19,16h-2c-0.6,0-1,0.4-1,1s0.4,1,1,1h2c0.6,0,1-0.4,1-1S19.6,16,19,16z"/>
</svg>
