<?xml version="1.0" encoding="utf-8"?>
<!-- Generator: Adobe Illustrator 19.1.0, SVG Export Plug-In . SVG Version: 6.00 Build 0)  -->
<!DOCTYPE svg PUBLIC "-//W3C//DTD SVG 1.1//EN" "http://www.w3.org/Graphics/SVG/1.1/DTD/svg11.dtd">
<svg version="1.1" id="Layer_1" xmlns="http://www.w3.org/2000/svg" xmlns:xlink="http://www.w3.org/1999/xlink" x="0px" y="0px"
	 width="24px" height="24px" viewBox="0 0 24 24" enable-background="new 0 0 24 24" xml:space="preserve">
<path d="M22,21v-7c0-0.6-0.4-1-1-1h-2v-2c0-0.6-0.4-1-1-1h-7c-0.6,0-1,0.4-1,1v2H8V2c0-0.6-0.4-1-1-1H5C3.3,1,2,2.3,2,4v8
	c0,1.7,1.3,3,3,3h1v6c0,1.7,1.3,3,3,3h10C20.7,24,22,22.7,22,21z M12,12h5v1h-5V12z M4,12V4c0-0.6,0.4-1,1-1h1v10H5
	C4.4,13,4,12.6,4,12z M8,21v-6h12v6c0,0.6-0.4,1-1,1H9C8.4,22,8,21.6,8,21z"/>
<path d="M19,6c0-1.3-1.5-3.6-2.2-4.6c-0.4-0.5-1.3-0.5-1.6,0C14.5,2.4,13,4.7,13,6c0,1.7,1.3,3,3,3S19,7.7,19,6z M15,6
	c0-0.3,0.4-1.2,1-2.1c0.6,1,1,1.8,1,2.1c0,0.6-0.4,1-1,1S15,6.6,15,6z"/>
</svg>
