<?xml version="1.0" encoding="utf-8"?>
<!-- Generator: Adobe Illustrator 19.1.0, SVG Export Plug-In . SVG Version: 6.00 Build 0)  -->
<!DOCTYPE svg PUBLIC "-//W3C//DTD SVG 1.1//EN" "http://www.w3.org/Graphics/SVG/1.1/DTD/svg11.dtd">
<svg version="1.1" id="Layer_1" xmlns="http://www.w3.org/2000/svg" xmlns:xlink="http://www.w3.org/1999/xlink" x="0px" y="0px"
	 width="24px" height="24px" viewBox="0 0 24 24" enable-background="new 0 0 24 24" xml:space="preserve">
<path d="M23.9,8.6c0-0.1-0.1-0.1-0.1-0.2c0,0,0-0.1-0.1-0.1c-0.1-0.1-0.2-0.1-0.3-0.2l0,0c0,0,0,0,0,0l-14-6C9.3,2,9.1,2,9,2
	C2.8,2,0,5.6,0,9v12c0,0.6,0.4,1,1,1h22c0.6,0,1-0.4,1-1V9C24,8.9,24,8.8,23.9,8.6C23.9,8.6,23.9,8.6,23.9,8.6z M8.8,4l9.3,4H12
	c-0.6,0-1,0.4-1,1v5c0,0.6-0.4,1-1,1s-1-0.4-1-1V9c0-0.6-0.4-1-1-1H2.1C2.6,6.2,4.3,4.1,8.8,4z M2,20V10h5v4c0,1.7,1.3,3,3,3
	s3-1.3,3-3v-4h9v10H2z"/>
</svg>
