<?xml version="1.0" encoding="utf-8"?>
<!-- Generator: Adobe Illustrator 20.0.0, SVG Export Plug-In . SVG Version: 6.00 Build 0)  -->
<!DOCTYPE svg PUBLIC "-//W3C//DTD SVG 1.1//EN" "http://www.w3.org/Graphics/SVG/1.1/DTD/svg11.dtd">
<svg version="1.1" id="Layer_1" xmlns="http://www.w3.org/2000/svg" xmlns:xlink="http://www.w3.org/1999/xlink" x="0px" y="0px"
	 width="64px" height="64px" viewBox="0 0 64 64" enable-background="new 0 0 64 64" xml:space="preserve">
<path d="M42,29c7.321,0,13-8.063,13-15c0-7.168-5.832-13-13-13S29,6.832,29,14C29,20.937,34.679,29,42,29z M42,3
	c6.065,0,11,4.935,11,11c0,7.321-5.913,13-11,13s-11-5.679-11-13C31,7.935,35.935,3,42,3z"/>
<path d="M57.731,38.393C54.369,36.845,48.911,35,42,35c-2.773,0-5.537,0.297-8.214,0.883c-0.539,0.118-0.881,0.651-0.763,1.191
	c0.117,0.54,0.652,0.877,1.19,0.763C36.75,37.282,39.37,37,42,37c6.549,0,11.715,1.746,14.896,3.21
	C59.389,41.357,61,43.86,61,46.586V61H42c-0.553,0-1,0.448-1,1s0.447,1,1,1h20c0.553,0,1-0.448,1-1V46.586
	C63,43.082,60.932,39.865,57.731,38.393z"/>
<path d="M29,32c0-6.065-4.935-11-11-11S7,25.935,7,32c0,6.012,4.805,13,11,13S29,38.012,29,32z M9,32c0-4.962,4.037-9,9-9
	s9,4.038,9,9c0,4.982-4.015,11-9,11S9,36.982,9,32z"/>
<path d="M2,63h32c0.553,0,1-0.448,1-1v-4.147c0-2.911-1.838-5.55-4.574-6.569C27.63,50.242,23.204,49,18,49
	s-9.63,1.242-12.426,2.283C2.838,52.302,1,54.942,1,57.853V62C1,62.552,1.447,63,2,63z M3,57.853c0-2.08,1.314-3.966,3.271-4.695
	C8.914,52.173,13.094,51,18,51s9.086,1.173,11.729,2.157C31.686,53.886,33,55.773,33,57.853V61H3V57.853z"/>
</svg>
