<?xml version="1.0" encoding="utf-8"?>
<!-- Generator: Adobe Illustrator 20.0.0, SVG Export Plug-In . SVG Version: 6.00 Build 0)  -->
<!DOCTYPE svg PUBLIC "-//W3C//DTD SVG 1.1//EN" "http://www.w3.org/Graphics/SVG/1.1/DTD/svg11.dtd">
<svg version="1.1" id="Layer_1" xmlns="http://www.w3.org/2000/svg" xmlns:xlink="http://www.w3.org/1999/xlink" x="0px" y="0px"
	 width="64px" height="64px" viewBox="0 0 64 64" enable-background="new 0 0 64 64" xml:space="preserve">
<path d="M32,16c-6.617,0-12,5.383-12,12v3c0,6.617,5.383,12,12,12s12-5.383,12-12v-3C44,21.383,38.617,16,32,16z M42,31
	c0,5.514-4.486,10-10,10s-10-4.486-10-10v-3c0-5.514,4.486-10,10-10s10,4.486,10,10V31z"/>
<path d="M32,1C14.906,1,1,14.907,1,32c0,10.344,5.097,19.514,12.907,25.149c0.059,0.048,0.11,0.104,0.181,0.14
	c0.007,0.004,0.015,0.002,0.022,0.005C19.169,60.882,25.34,63,32,63c6.66,0,12.831-2.118,17.889-5.706
	c0.008-0.004,0.016-0.003,0.024-0.006c0.071-0.035,0.123-0.091,0.182-0.14C57.903,51.513,63,42.343,63,32C63,14.907,49.094,1,32,1z
	 M15.837,56.066C18.328,51.687,22.911,49,28,49h8c5.082,0,9.664,2.688,12.162,7.066C43.541,59.18,37.979,61,32,61
	C26.021,61,20.458,59.18,15.837,56.066z M49.788,54.879C46.911,49.99,41.733,47,36,47h-8c-5.74,0-10.918,2.99-13.789,7.878
	C7.396,49.567,3,41.29,3,32C3,16.009,16.01,3,32,3s29,13.009,29,29C61,41.29,56.604,49.568,49.788,54.879z"/>
</svg>
