<?xml version="1.0" encoding="utf-8"?>
<!-- Generator: Adobe Illustrator 20.0.0, SVG Export Plug-In . SVG Version: 6.00 Build 0)  -->
<!DOCTYPE svg PUBLIC "-//W3C//DTD SVG 1.1//EN" "http://www.w3.org/Graphics/SVG/1.1/DTD/svg11.dtd">
<svg version="1.1" id="Layer_1" xmlns="http://www.w3.org/2000/svg" xmlns:xlink="http://www.w3.org/1999/xlink" x="0px" y="0px"
	 width="64px" height="64px" viewBox="0 0 64 64" enable-background="new 0 0 64 64" xml:space="preserve">
<path d="M48.914,39.594C48.753,39.232,48.396,39,48,39H29V29h11c0.553,0,1-0.447,1-1s-0.447-1-1-1H29v-5c0-0.553-0.447-1-1-1
	s-1,0.447-1,1v18c0,0.553,0.447,1,1,1h19.351l7.735,17.406C55.252,58.779,55.617,59,56.001,59c0.136,0,0.273-0.027,0.405-0.086
	c0.505-0.225,0.731-0.815,0.508-1.32L48.914,39.594z"/>
<path d="M20,9c0,4.411,3.589,8,8,8s8-3.589,8-8s-3.589-8-8-8S20,4.589,20,9z M28,3c3.309,0,6,2.691,6,6s-2.691,6-6,6s-6-2.691-6-6
	S24.691,3,28,3z"/>
<path d="M34,47c-0.553,0-1,0.447-1,1c0,7.168-5.832,13-13,13S7,55.168,7,48s5.832-13,13-13c0.553,0,1-0.447,1-1s-0.447-1-1-1
	c-8.271,0-15,6.729-15,15s6.729,15,15,15s15-6.729,15-15C35,47.447,34.553,47,34,47z"/>
</svg>
