<?xml version="1.0" encoding="utf-8"?>
<!-- Generator: Adobe Illustrator 20.0.0, SVG Export Plug-In . SVG Version: 6.00 Build 0)  -->
<!DOCTYPE svg PUBLIC "-//W3C//DTD SVG 1.1//EN" "http://www.w3.org/Graphics/SVG/1.1/DTD/svg11.dtd">
<svg version="1.1" id="Layer_1" xmlns="http://www.w3.org/2000/svg" xmlns:xlink="http://www.w3.org/1999/xlink" x="0px" y="0px"
	 width="64px" height="64px" viewBox="0 0 64 64" enable-background="new 0 0 64 64" xml:space="preserve">
<path d="M49.728,3c-3.927,0-7.63,1.708-10.162,4.686c-2.2,2.589-3.263,5.805-3.056,9.176c-3-0.48-6.02-0.48-9.02,0
	c0.207-3.371-0.854-6.586-3.056-9.175C21.903,4.708,18.199,3,14.272,3C6.954,3,1,8.899,1,16.15c0,5.301,3.183,9.977,8.051,12.031
	c-4.364,6.085-5.796,13.851-4.028,22.03c0.057,0.26,0.214,0.486,0.438,0.63C14.009,56.332,22.69,59,32,59s17.991-2.668,26.54-8.159
	c0.224-0.144,0.381-0.37,0.438-0.63c1.769-8.18,0.336-15.945-4.028-22.03C59.817,26.127,63,21.451,63,16.15
	C63,8.899,57.046,3,49.728,3z M53.039,26.75c-0.317,0.097-0.565,0.345-0.663,0.662c-0.098,0.317-0.031,0.662,0.177,0.921
	c4.552,5.658,6.163,13.12,4.555,21.05C49.005,54.508,40.787,57,32,57s-17.005-2.492-25.107-7.617
	c-1.607-7.929,0.003-15.392,4.555-21.05c0.208-0.259,0.274-0.604,0.177-0.921c-0.098-0.317-0.346-0.565-0.663-0.662
	C6.199,25.292,3,21.033,3,16.15C3,10.002,8.057,5,14.272,5c3.339,0,6.487,1.452,8.639,3.982c2.115,2.488,2.984,5.665,2.449,8.945
	c-0.053,0.325,0.058,0.656,0.296,0.884c0.239,0.228,0.577,0.324,0.896,0.256c3.607-0.753,7.289-0.753,10.896,0
	c0.321,0.069,0.656-0.028,0.896-0.256c0.238-0.228,0.349-0.559,0.296-0.884c-0.535-3.281,0.335-6.458,2.45-8.946
	C43.24,6.451,46.389,5,49.728,5C55.943,5,61,10.002,61,16.15C61,21.033,57.801,25.292,53.039,26.75z"/>
</svg>
