<?xml version="1.0" encoding="utf-8"?>
<!-- Generator: Adobe Illustrator 20.0.0, SVG Export Plug-In . SVG Version: 6.00 Build 0)  -->
<!DOCTYPE svg PUBLIC "-//W3C//DTD SVG 1.1//EN" "http://www.w3.org/Graphics/SVG/1.1/DTD/svg11.dtd">
<svg version="1.1" id="Layer_1" xmlns="http://www.w3.org/2000/svg" xmlns:xlink="http://www.w3.org/1999/xlink" x="0px" y="0px"
	 width="64px" height="64px" viewBox="0 0 64 64" enable-background="new 0 0 64 64" xml:space="preserve">
<path d="M14,49H2c-0.552,0-1,0.447-1,1s0.448,1,1,1h12c0.552,0,1-0.447,1-1S14.552,49,14,49z"/>
<path d="M2,15h22c0.552,0,1-0.447,1-1s-0.448-1-1-1H2c-0.552,0-1,0.447-1,1S1.448,15,2,15z"/>
<path d="M24,25H2c-0.552,0-1,0.447-1,1s0.448,1,1,1h22c0.552,0,1-0.447,1-1S24.552,25,24,25z"/>
<path d="M14,37H2c-0.552,0-1,0.447-1,1s0.448,1,1,1h12c0.552,0,1-0.447,1-1S14.552,37,14,37z"/>
<path d="M56.551,36.881C52.338,35.633,48.115,35,44,35c-4.04,0-8.257,0.641-12.534,1.904C27.599,38.048,25,41.521,25,45.545V55
	c0,0.553,0.448,1,1,1h36c0.552,0,1-0.447,1-1v-9.483C63,41.493,60.408,38.022,56.551,36.881z M61,54H27v-8.455
	c0-3.131,2.023-5.832,5.033-6.723C36.126,37.613,40.152,37,44,37c3.923,0,7.955,0.605,11.983,1.799c3,0.888,5.017,3.588,5.017,6.718
	V54z"/>
<path d="M44,31c6.195,0,11-6.988,11-13c0-6.065-4.935-11-11-11s-11,4.935-11,11C33,24.012,37.805,31,44,31z M44,9
	c4.962,0,9,4.037,9,9c0,4.982-4.015,11-9,11s-9-6.018-9-11C35,13.037,39.038,9,44,9z"/>
</svg>
