<?xml version="1.0" encoding="utf-8"?>
<!-- Generator: Adobe Illustrator 20.0.0, SVG Export Plug-In . SVG Version: 6.00 Build 0)  -->
<!DOCTYPE svg PUBLIC "-//W3C//DTD SVG 1.1//EN" "http://www.w3.org/Graphics/SVG/1.1/DTD/svg11.dtd">
<svg version="1.1" id="Layer_1" xmlns="http://www.w3.org/2000/svg" xmlns:xlink="http://www.w3.org/1999/xlink" x="0px" y="0px"
	 width="64px" height="64px" viewBox="0 0 64 64" enable-background="new 0 0 64 64" xml:space="preserve">
<path d="M24,19c0,0.552,0.448,1,1,1h14c0.552,0,1-0.448,1-1c0-3.86-3.14-7-7-7h-2C27.14,12,24,15.14,24,19z M31,14h2
	c2.415,0,4.435,1.721,4.899,4H26.101C26.565,15.721,28.585,14,31,14z"/>
<path d="M37,6c0-2.757-2.243-5-5-5s-5,2.243-5,5s2.243,5,5,5S37,8.757,37,6z M29,6c0-1.654,1.346-3,3-3s3,1.346,3,3s-1.346,3-3,3
	S29,7.654,29,6z"/>
<path d="M2,29h14c0.552,0,1-0.448,1-1c0-3.86-3.14-7-7-7H8c-3.86,0-7,3.14-7,7C1,28.552,1.448,29,2,29z M8,23h2
	c2.415,0,4.435,1.721,4.899,4H3.101C3.565,24.721,5.585,23,8,23z"/>
<path d="M9,20c2.757,0,5-2.243,5-5s-2.243-5-5-5s-5,2.243-5,5S6.243,20,9,20z M9,12c1.654,0,3,1.346,3,3s-1.346,3-3,3s-3-1.346-3-3
	S7.346,12,9,12z"/>
<path d="M57,21h-2c-3.86,0-7,3.14-7,7c0,0.552,0.448,1,1,1h14c0.552,0,1-0.448,1-1C64,24.14,60.86,21,57,21z M50.101,27
	c0.464-2.279,2.485-4,4.899-4h2c2.415,0,4.435,1.721,4.899,4H50.101z"/>
<path d="M51,15c0,2.757,2.243,5,5,5s5-2.243,5-5s-2.243-5-5-5S51,12.243,51,15z M59,15c0,1.654-1.346,3-3,3s-3-1.346-3-3
	s1.346-3,3-3S59,13.346,59,15z"/>
<path d="M32,46c5.514,0,10-4.486,10-10s-4.486-10-10-10s-10,4.486-10,10S26.486,46,32,46z M32,28c4.411,0,8,3.589,8,8s-3.589,8-8,8
	s-8-3.589-8-8S27.589,28,32,28z"/>
<path d="M16,62c0,0.552,0.448,1,1,1h30c0.552,0,1-0.448,1-1c0-7.168-5.832-13-13-13h-6C21.832,49,16,54.832,16,62z M29,51h6
	c5.729,0,10.448,4.401,10.955,10h-27.91C18.552,55.401,23.271,51,29,51z"/>
</svg>
