<?xml version="1.0" encoding="utf-8"?>
<!-- Generator: Adobe Illustrator 20.0.0, SVG Export Plug-In . SVG Version: 6.00 Build 0)  -->
<!DOCTYPE svg PUBLIC "-//W3C//DTD SVG 1.1//EN" "http://www.w3.org/Graphics/SVG/1.1/DTD/svg11.dtd">
<svg version="1.1" id="Layer_1" xmlns="http://www.w3.org/2000/svg" xmlns:xlink="http://www.w3.org/1999/xlink" x="0px" y="0px"
	 width="64px" height="64px" viewBox="0 0 64 64" enable-background="new 0 0 64 64" xml:space="preserve">
<path d="M28,33c8.585,0,15-8.975,15-17c0-8.271-6.729-15-15-15S13,7.729,13,16C13,24.025,19.415,33,28,33z M28,3
	c7.168,0,13,5.832,13,13c0,6.937-5.679,15-13,15s-13-8.063-13-15C15,8.832,20.832,3,28,3z"/>
<path d="M54,49h-3v-3c0-0.552-0.448-1-1-1s-1,0.448-1,1v3h-3c-0.552,0-1,0.448-1,1s0.448,1,1,1h3v3c0,0.552,0.448,1,1,1s1-0.448,1-1
	v-3h3c0.552,0,1-0.448,1-1S54.552,49,54,49z"/>
<path d="M50,37c-3.294,0-6.297,1.242-8.591,3.269C37.27,39.434,32.768,39,28,39c-11.118,0-18.567,2.269-22.858,4.173
	C2.625,44.288,1,46.798,1,49.567V60c0,0.552,0.448,1,1,1h32c0.552,0,1-0.448,1-1s-0.448-1-1-1H3v-9.433
	c0-1.979,1.159-3.771,2.952-4.566C10.067,43.176,17.232,41,28,41c4.164,0,8.103,0.351,11.771,1.004C38.041,44.212,37,46.984,37,50
	c0,7.168,5.832,13,13,13s13-5.832,13-13S57.168,37,50,37z M50,61c-6.065,0-11-4.935-11-11s4.935-11,11-11s11,4.935,11,11
	S56.065,61,50,61z"/>
</svg>
