<?xml version="1.0" encoding="utf-8"?>
<!-- Generator: Adobe Illustrator 20.0.0, SVG Export Plug-In . SVG Version: 6.00 Build 0)  -->
<!DOCTYPE svg PUBLIC "-//W3C//DTD SVG 1.1//EN" "http://www.w3.org/Graphics/SVG/1.1/DTD/svg11.dtd">
<svg version="1.1" id="Layer_1" xmlns="http://www.w3.org/2000/svg" xmlns:xlink="http://www.w3.org/1999/xlink" x="0px" y="0px"
	 width="64px" height="64px" viewBox="0 0 64 64" enable-background="new 0 0 64 64" xml:space="preserve">
<path d="M61.999,23c0.357,0,0.703-0.192,0.884-0.529c0.26-0.487,0.075-1.093-0.412-1.353l-30-16c-0.295-0.157-0.646-0.157-0.941,0
	l-30,16c-0.487,0.26-0.672,0.866-0.412,1.353c0.261,0.487,0.863,0.672,1.354,0.412L32,7.133l29.529,15.749
	C61.68,22.962,61.841,23,61.999,23z"/>
<path d="M43,36c0,3.859,3.141,7,7,7s7-3.141,7-7c0-3.86-3.141-7-7-7S43,32.14,43,36z M55,36c0,2.757-2.243,5-5,5s-5-2.243-5-5
	s2.243-5,5-5S55,33.243,55,36z"/>
<path d="M7,36c0,3.859,3.141,7,7,7s7-3.141,7-7c0-3.86-3.141-7-7-7S7,32.14,7,36z M19,36c0,2.757-2.243,5-5,5s-5-2.243-5-5
	s2.243-5,5-5S19,33.243,19,36z"/>
<path d="M2,57h24c0.553,0,1-0.447,1-1v-1.965c0-1.763-0.941-3.414-2.457-4.31C22.442,48.482,18.907,47,14,47
	c-4.972,0-8.489,1.478-10.564,2.717C1.934,50.613,1,52.26,1,54.014V56C1,56.553,1.447,57,2,57z M3,54.014
	c0-1.069,0.546-2.034,1.461-2.58C6.32,50.323,9.484,49,14,49c4.455,0,7.638,1.33,9.524,2.447C24.448,51.993,25,52.961,25,54.035V55
	H3V54.014z"/>
<path d="M60.543,49.726C58.442,48.482,54.907,47,50,47c-4.972,0-8.489,1.478-10.564,2.717C37.934,50.613,37,52.26,37,54.014V56
	c0,0.553,0.447,1,1,1h24c0.553,0,1-0.447,1-1v-1.965C63,52.272,62.059,50.621,60.543,49.726z M61,55H39v-0.986
	c0-1.069,0.546-2.034,1.461-2.58C42.32,50.323,45.484,49,50,49c4.455,0,7.638,1.33,9.524,2.447C60.448,51.993,61,52.961,61,54.035
	V55z"/>
</svg>
