<?xml version="1.0" encoding="utf-8"?>
<!-- Generator: Adobe Illustrator 20.0.0, SVG Export Plug-In . SVG Version: 6.00 Build 0)  -->
<!DOCTYPE svg PUBLIC "-//W3C//DTD SVG 1.1//EN" "http://www.w3.org/Graphics/SVG/1.1/DTD/svg11.dtd">
<svg version="1.1" id="Layer_1" xmlns="http://www.w3.org/2000/svg" xmlns:xlink="http://www.w3.org/1999/xlink" x="0px" y="0px"
	 width="64px" height="64px" viewBox="0 0 64 64" enable-background="new 0 0 64 64" xml:space="preserve">
<path d="M4,63h56c0.552,0,1-0.448,1-1c0-11.601-6.653-14.705-14.691-17.315c-4.893-1.588-6.67-6.312-7.316-9.425
	C43.748,32.742,47,27.746,47,22v-6c0-8.271-6.729-15-15-15S17,7.729,17,16v6c0,5.746,3.251,10.742,8.008,13.26
	c-0.647,3.113-2.426,7.838-7.317,9.425C9.653,47.295,3,50.399,3,62C3,62.552,3.448,63,4,63z M19,22v-6c0-7.168,5.832-13,13-13
	s13,5.832,13,13v6c0,7.168-5.832,13-13,13S19,29.168,19,22z M18.309,46.587c5.616-1.823,7.752-6.944,8.566-10.509
	C28.477,36.664,30.198,37,32,37c1.802,0,3.523-0.336,5.125-0.921c0.813,3.564,2.947,8.684,8.566,10.508
	c8.691,2.822,12.992,5.76,13.292,14.413H5.017C5.317,52.347,9.618,49.409,18.309,46.587z"/>
</svg>
