<?xml version="1.0" encoding="utf-8"?>
<!-- Generator: Adobe Illustrator 20.0.0, SVG Export Plug-In . SVG Version: 6.00 Build 0)  -->
<!DOCTYPE svg PUBLIC "-//W3C//DTD SVG 1.1//EN" "http://www.w3.org/Graphics/SVG/1.1/DTD/svg11.dtd">
<svg version="1.1" id="Layer_1" xmlns="http://www.w3.org/2000/svg" xmlns:xlink="http://www.w3.org/1999/xlink" x="0px" y="0px"
	 width="64px" height="64px" viewBox="0 0 64 64" enable-background="new 0 0 64 64" xml:space="preserve">
<path d="M28,59H3v-9.434c0-1.979,1.159-3.771,2.953-4.565c3.777-1.676,10.327-3.727,20.073-3.976C26.578,41.011,27.014,40.552,27,40
	c-0.014-0.554-0.505-1.017-1.025-0.975C15.9,39.284,9.084,41.424,5.142,43.173C2.625,44.288,1,46.798,1,49.566V60
	c0,0.553,0.448,1,1,1h26c0.552,0,1-0.447,1-1S28.552,59,28,59z"/>
<path d="M13,16c0,8.024,6.415,17,15,17s15-8.976,15-17c0-8.271-6.729-15-15-15S13,7.729,13,16z M41,16c0,6.937-5.679,15-13,15
	s-13-8.063-13-15c0-7.168,5.832-13,13-13S41,8.832,41,16z"/>
<path d="M60.144,43.729l-8.463-1.23l-3.784-7.668c-0.337-0.684-1.457-0.684-1.794,0l-3.784,7.668l-8.463,1.23
	c-0.376,0.055-0.689,0.318-0.807,0.681c-0.118,0.361-0.02,0.759,0.253,1.024l6.124,5.969l-1.446,8.429
	c-0.064,0.375,0.09,0.754,0.398,0.978c0.309,0.226,0.717,0.254,1.053,0.076L47,56.906l7.569,3.979
	C54.716,60.962,54.875,61,55.035,61c0.207,0,0.414-0.064,0.588-0.191c0.308-0.224,0.462-0.603,0.398-0.978l-1.446-8.429l6.124-5.969
	c0.272-0.266,0.371-0.663,0.253-1.024C60.833,44.047,60.521,43.783,60.144,43.729z M52.802,50.338
	c-0.235,0.229-0.343,0.561-0.288,0.885l1.192,6.949l-6.241-3.28C47.32,54.814,47.16,54.776,47,54.776s-0.32,0.038-0.465,0.115
	l-6.241,3.28l1.192-6.949c0.055-0.324-0.052-0.655-0.288-0.885l-5.049-4.922l6.978-1.015c0.326-0.047,0.607-0.252,0.753-0.547
	L47,37.532l3.12,6.322c0.146,0.295,0.427,0.5,0.753,0.547l6.978,1.015L52.802,50.338z"/>
</svg>
