<?xml version="1.0" encoding="utf-8"?>
<!-- Generator: Adobe Illustrator 20.0.0, SVG Export Plug-In . SVG Version: 6.00 Build 0)  -->
<!DOCTYPE svg PUBLIC "-//W3C//DTD SVG 1.1//EN" "http://www.w3.org/Graphics/SVG/1.1/DTD/svg11.dtd">
<svg version="1.1" id="Layer_1" xmlns="http://www.w3.org/2000/svg" xmlns:xlink="http://www.w3.org/1999/xlink" x="0px" y="0px"
	 width="64px" height="64px" viewBox="0 0 64 64" enable-background="new 0 0 64 64" xml:space="preserve">
<path d="M57,19c0-5.514-4.486-10-10-10s-10,4.486-10,10c0,5.435,4.461,12,10,12S57,24.435,57,19z M39,19c0-4.411,3.589-8,8-8
	s8,3.589,8,8c0,4.501-3.691,10-8,10S39,23.501,39,19z"/>
<path d="M58.628,39.184C56.127,38.188,52.079,37,47,37s-9.127,1.188-11.628,2.184c-0.987,0.393-1.854,1.013-2.559,1.795
	C29.81,39.913,25.846,39,21,39c-6.795,0-11.893,1.789-14.972,3.289C2.974,43.777,1,46.949,1,50.37V56c0,0.552,0.447,1,1,1h38
	c0.553,0,1-0.448,1-1v-5.63c0-3.421-1.974-6.593-5.028-8.081c-0.343-0.167-0.721-0.339-1.113-0.51
	c0.378-0.304,0.798-0.555,1.254-0.736C38.451,40.11,42.238,39,47,39s8.549,1.11,10.888,2.042C59.778,41.795,61,43.614,61,45.676V49
	H48c-0.553,0-1,0.448-1,1s0.447,1,1,1h14c0.553,0,1-0.448,1-1v-4.324C63,42.791,61.284,40.242,58.628,39.184z M39,50.37V55H3v-4.63
	c0-2.662,1.532-5.128,3.903-6.283C9.794,42.679,14.586,41,21,41s11.206,1.679,14.097,3.087C37.468,45.242,39,47.708,39,50.37z"/>
<path d="M33,19c0-6.617-5.383-12-12-12S9,12.383,9,19c0,6.474,5.242,14,12,14S33,25.474,33,19z M11,19c0-5.514,4.486-10,10-10
	s10,4.486,10,10c0,5.435-4.461,12-10,12S11,24.435,11,19z"/>
</svg>
