<?xml version="1.0" encoding="utf-8"?>
<!-- Generator: Adobe Illustrator 20.0.0, SVG Export Plug-In . SVG Version: 6.00 Build 0)  -->
<!DOCTYPE svg PUBLIC "-//W3C//DTD SVG 1.1//EN" "http://www.w3.org/Graphics/SVG/1.1/DTD/svg11.dtd">
<svg version="1.1" id="Layer_1" xmlns="http://www.w3.org/2000/svg" xmlns:xlink="http://www.w3.org/1999/xlink" x="0px" y="0px"
	 width="64px" height="64px" viewBox="0 0 64 64" enable-background="new 0 0 64 64" xml:space="preserve">
<path d="M62,13H40c-0.552,0-1,0.447-1,1s0.448,1,1,1h22c0.552,0,1-0.447,1-1S62.552,13,62,13z"/>
<path d="M62,25H40c-0.552,0-1,0.447-1,1s0.448,1,1,1h22c0.552,0,1-0.447,1-1S62.552,25,62,25z"/>
<path d="M62,37H50c-0.552,0-1,0.447-1,1s0.448,1,1,1h12c0.552,0,1-0.447,1-1S62.552,37,62,37z"/>
<path d="M62,49H50c-0.552,0-1,0.447-1,1s0.448,1,1,1h12c0.552,0,1-0.447,1-1S62.552,49,62,49z"/>
<path d="M32.533,36.904C28.257,35.641,24.04,35,20,35c-4.115,0-8.338,0.633-12.551,1.881C3.592,38.022,1,41.493,1,45.517V55
	c0,0.553,0.448,1,1,1h36c0.552,0,1-0.447,1-1v-9.455C39,41.521,36.401,38.048,32.533,36.904z M37,54H3v-8.483
	c0-3.13,2.016-5.83,5.017-6.718C12.045,37.605,16.077,37,20,37c3.848,0,7.874,0.613,11.966,1.822C34.977,39.713,37,42.414,37,45.545
	V54z"/>
<path d="M9,18c0,6.012,4.805,13,11,13s11-6.988,11-13c0-6.065-4.935-11-11-11S9,11.935,9,18z M29,18c0,4.982-4.015,11-9,11
	s-9-6.018-9-11c0-4.963,4.038-9,9-9S29,13.037,29,18z"/>
</svg>
