<?xml version="1.0" encoding="utf-8"?>
<!-- Generator: Adobe Illustrator 20.0.0, SVG Export Plug-In . SVG Version: 6.00 Build 0)  -->
<!DOCTYPE svg PUBLIC "-//W3C//DTD SVG 1.1//EN" "http://www.w3.org/Graphics/SVG/1.1/DTD/svg11.dtd">
<svg version="1.1" id="Layer_1" xmlns="http://www.w3.org/2000/svg" xmlns:xlink="http://www.w3.org/1999/xlink" x="0px" y="0px"
	 width="64px" height="64px" viewBox="0 0 64 64" enable-background="new 0 0 64 64" xml:space="preserve">
<path d="M25,8c0,3.859,3.141,7,7,7s7-3.141,7-7s-3.141-7-7-7S25,4.141,25,8z M37,8c0,2.757-2.243,5-5,5s-5-2.243-5-5s2.243-5,5-5
	S37,5.243,37,8z"/>
<path d="M44.438,23.4c-1.069-2.673-3.621-4.4-6.5-4.4H26.062c-2.879,0-5.431,1.728-6.5,4.4l-6.491,16.229
	c-0.205,0.513,0.045,1.095,0.558,1.3c0.507,0.204,1.095-0.043,1.3-0.558l6.491-16.229C22.184,22.233,24.006,21,26.062,21h11.875
	c2.057,0,3.879,1.233,4.643,3.143l6.491,16.229C49.228,40.763,49.604,41,50,41c0.124,0,0.25-0.022,0.371-0.071
	c0.513-0.205,0.763-0.787,0.558-1.3L44.438,23.4z"/>
<path d="M39.812,28.018c-0.542,0.104-0.898,0.627-0.795,1.17L42.792,49H21.208l3.774-19.812c0.104-0.543-0.253-1.066-0.795-1.17
	c-0.549-0.104-1.066,0.254-1.17,0.795l-4,21c-0.056,0.293,0.022,0.596,0.212,0.825C19.42,50.867,19.702,51,20,51h5v11
	c0,0.553,0.447,1,1,1s1-0.447,1-1V51h10v11c0,0.553,0.447,1,1,1s1-0.447,1-1V51h5c0.298,0,0.58-0.133,0.771-0.362
	c0.189-0.229,0.268-0.532,0.212-0.825l-4-21C40.879,28.271,40.364,27.917,39.812,28.018z"/>
</svg>
