<?xml version="1.0" encoding="utf-8"?>
<!-- Generator: Adobe Illustrator 20.0.0, SVG Export Plug-In . SVG Version: 6.00 Build 0)  -->
<!DOCTYPE svg PUBLIC "-//W3C//DTD SVG 1.1//EN" "http://www.w3.org/Graphics/SVG/1.1/DTD/svg11.dtd">
<svg version="1.1" id="Layer_1" xmlns="http://www.w3.org/2000/svg" xmlns:xlink="http://www.w3.org/1999/xlink" x="0px" y="0px"
	 width="64px" height="64px" viewBox="0 0 64 64" enable-background="new 0 0 64 64" xml:space="preserve">
<path d="M32,1C14.907,1,1,14.907,1,32s13.907,31,31,31s31-13.907,31-31S49.093,1,32,1z M32,3c14.659,0,26.804,10.934,28.727,25.074
	c-2.951-0.608-10.737-3.098-16.972-12.972c-0.158-0.25-0.417-0.417-0.71-0.457c-0.293-0.041-0.588,0.052-0.807,0.249
	c-8.62,7.799-16.853,7.78-24.1,7.791c-5.355-0.018-10.455,0.003-14.533,3.412C6.34,12.927,18.031,3,32,3z M32,61
	C16.009,61,3,47.991,3,32c0-0.852,0.045-1.694,0.117-2.528c3.74-4.783,8.739-4.816,15.02-4.786
	c7.016-0.013,15.679,0.008,24.564-7.537c6.987,10.395,15.495,12.565,18.234,13.004C60.974,30.764,61,31.379,61,32
	C61,47.991,47.991,61,32,61z"/>
<path d="M18.5,34c-2.481,0-4.5,2.019-4.5,4.5s2.019,4.5,4.5,4.5s4.5-2.019,4.5-4.5S20.981,34,18.5,34z M18.5,41
	c-1.378,0-2.5-1.122-2.5-2.5s1.122-2.5,2.5-2.5s2.5,1.122,2.5,2.5S19.878,41,18.5,41z"/>
<path d="M45.5,34c-2.481,0-4.5,2.019-4.5,4.5s2.019,4.5,4.5,4.5s4.5-2.019,4.5-4.5S47.981,34,45.5,34z M45.5,41
	c-1.378,0-2.5-1.122-2.5-2.5s1.122-2.5,2.5-2.5s2.5,1.122,2.5,2.5S46.878,41,45.5,41z"/>
</svg>
