<?xml version="1.0" encoding="utf-8"?>
<!-- Generator: Adobe Illustrator 20.0.0, SVG Export Plug-In . SVG Version: 6.00 Build 0)  -->
<!DOCTYPE svg PUBLIC "-//W3C//DTD SVG 1.1//EN" "http://www.w3.org/Graphics/SVG/1.1/DTD/svg11.dtd">
<svg version="1.1" id="Layer_1" xmlns="http://www.w3.org/2000/svg" xmlns:xlink="http://www.w3.org/1999/xlink" x="0px" y="0px"
	 width="64px" height="64px" viewBox="0 0 64 64" enable-background="new 0 0 64 64" xml:space="preserve">
<path d="M13,16c0,8.024,6.415,17,15,17s15-8.976,15-17c0-8.271-6.729-15-15-15S13,7.729,13,16z M28,3c7.168,0,13,5.832,13,13
	c0,6.937-5.679,15-13,15s-13-8.063-13-15C15,8.832,20.832,3,28,3z"/>
<path d="M53.536,46.465c-0.391-0.391-1.023-0.391-1.414,0L50,48.586l-2.122-2.121c-0.391-0.391-1.023-0.391-1.414,0
	s-0.391,1.023,0,1.414L48.586,50l-2.121,2.121c-0.391,0.391-0.391,1.023,0,1.414c0.195,0.195,0.451,0.293,0.707,0.293
	s0.512-0.098,0.707-0.293L50,51.414l2.122,2.121c0.195,0.195,0.451,0.293,0.707,0.293s0.512-0.098,0.707-0.293
	c0.391-0.391,0.391-1.023,0-1.414L51.414,50l2.121-2.121C53.926,47.488,53.926,46.855,53.536,46.465z"/>
<path d="M41.405,40.268C37.266,39.434,32.766,39,28,39c-11.12,0-18.568,2.27-22.858,4.173C2.625,44.288,1,46.798,1,49.566V60
	c0,0.553,0.448,1,1,1h32c0.552,0,1-0.447,1-1s-0.448-1-1-1H3v-9.434c0-1.979,1.159-3.771,2.953-4.565C10.066,43.176,17.23,41,28,41
	c4.161,0,8.097,0.35,11.763,1.003c-3.986,5.096-3.644,12.501,1.044,17.19c2.534,2.534,5.863,3.802,9.192,3.802
	s6.658-1.268,9.192-3.802c5.068-5.068,5.068-13.316,0-18.385C54.316,35.931,46.505,35.761,41.405,40.268z M57.778,57.778
	c-4.289,4.288-11.267,4.29-15.557,0c-4.289-4.289-4.289-11.268,0-15.557c2.145-2.145,4.961-3.217,7.778-3.217
	s5.634,1.072,7.778,3.217C62.067,46.511,62.067,53.489,57.778,57.778z"/>
</svg>
