<?xml version="1.0" encoding="utf-8"?>
<!-- Generator: Adobe Illustrator 20.0.0, SVG Export Plug-In . SVG Version: 6.00 Build 0)  -->
<!DOCTYPE svg PUBLIC "-//W3C//DTD SVG 1.1//EN" "http://www.w3.org/Graphics/SVG/1.1/DTD/svg11.dtd">
<svg version="1.1" id="Layer_1" xmlns="http://www.w3.org/2000/svg" xmlns:xlink="http://www.w3.org/1999/xlink" x="0px" y="0px"
	 width="64px" height="64px" viewBox="0 0 64 64" enable-background="new 0 0 64 64" xml:space="preserve">
<path d="M60,61H3.029C3.549,52.09,10.962,45,20,45h16c0.553,0,1-0.447,1-1s-0.447-1-1-1H20C9.523,43,1,51.523,1,62
	c0,0.553,0.447,1,1,1h58c0.553,0,1-0.447,1-1S60.553,61,60,61z"/>
<path d="M32,35c8.271,0,15-6.729,15-15v-4c0-8.271-6.729-15-15-15S17,7.729,17,16v4C17,28.271,23.729,35,32,35z M19,16
	c0-7.168,5.832-13,13-13s13,5.832,13,13v4c0,7.168-5.832,13-13,13s-13-5.832-13-13V16z"/>
<path d="M62,43H46c-0.553,0-1,0.447-1,1s0.447,1,1,1h16c0.553,0,1-0.447,1-1S62.553,43,62,43z"/>
</svg>
