<?xml version="1.0" encoding="utf-8"?>
<!-- Generator: Adobe Illustrator 20.0.0, SVG Export Plug-In . SVG Version: 6.00 Build 0)  -->
<!DOCTYPE svg PUBLIC "-//W3C//DTD SVG 1.1//EN" "http://www.w3.org/Graphics/SVG/1.1/DTD/svg11.dtd">
<svg version="1.1" id="Layer_1" xmlns="http://www.w3.org/2000/svg" xmlns:xlink="http://www.w3.org/1999/xlink" x="0px" y="0px"
	 width="64px" height="64px" viewBox="0 0 64 64" enable-background="new 0 0 64 64" xml:space="preserve">
<path d="M62,1H2C1.448,1,1,1.448,1,2v46c0,0.552,0.448,1,1,1h19.532l9.7,11.64C31.422,60.868,31.703,61,32,61
	s0.578-0.132,0.768-0.36l9.7-11.64H62c0.552,0,1-0.448,1-1V2C63,1.448,62.552,1,62,1z M61,47H42c-0.297,0-0.578,0.132-0.768,0.36
	L32,58.438L22.768,47.36C22.578,47.132,22.297,47,22,47H3V3h58V47z"/>
<path d="M20,39h24c0.552,0,1-0.448,1-1v-1.965c0-1.762-0.942-3.413-2.458-4.31C40.441,30.482,36.906,29,32,29
	c-4.972,0-8.489,1.478-10.564,2.717C19.933,32.613,19,34.26,19,36.014V38C19,38.552,19.448,39,20,39z M21,36.014
	c0-1.069,0.546-2.034,1.461-2.58C24.32,32.324,27.484,31,32,31c4.454,0,7.637,1.33,9.524,2.446C42.448,33.993,43,34.96,43,36.035V37
	H21V36.014z"/>
<path d="M32,25c3.86,0,7-3.14,7-7s-3.14-7-7-7s-7,3.14-7,7S28.14,25,32,25z M32,13c2.757,0,5,2.243,5,5s-2.243,5-5,5s-5-2.243-5-5
	S29.243,13,32,13z"/>
</svg>
