<?xml version="1.0" encoding="utf-8"?>
<!-- Generator: Adobe Illustrator 20.0.0, SVG Export Plug-In . SVG Version: 6.00 Build 0)  -->
<!DOCTYPE svg PUBLIC "-//W3C//DTD SVG 1.1//EN" "http://www.w3.org/Graphics/SVG/1.1/DTD/svg11.dtd">
<svg version="1.1" id="Layer_1" xmlns="http://www.w3.org/2000/svg" xmlns:xlink="http://www.w3.org/1999/xlink" x="0px" y="0px"
	 width="64px" height="64px" viewBox="0 0 64 64" enable-background="new 0 0 64 64" xml:space="preserve">
<path d="M62.382,3.077C62.26,3.026,62.13,3,62,3H51c-0.552,0-1,0.447-1,1s0.448,1,1,1h8.586L49.275,15.311
	C46.27,12.639,42.328,11,38,11c-3.74,0-7.19,1.228-10,3.283C25.19,12.228,21.74,11,18,11C8.626,11,1,18.626,1,28
	c0,9.036,7.092,16.427,16,16.949V53h-5c-0.552,0-1,0.447-1,1s0.448,1,1,1h5v5c0,0.553,0.448,1,1,1s1-0.447,1-1v-5h5
	c0.552,0,1-0.447,1-1s-0.448-1-1-1h-5v-8.051c3.354-0.197,6.444-1.363,9-3.232C30.81,43.772,34.26,45,38,45c9.374,0,17-7.626,17-17
	c0-4.328-1.639-8.27-4.311-11.275L61,6.414V15c0,0.553,0.448,1,1,1s1-0.447,1-1V4c0-0.13-0.027-0.26-0.077-0.382
	C62.822,3.373,62.627,3.178,62.382,3.077z M18,43C9.729,43,3,36.271,3,28s6.729-15,15-15c3.118,0,6.015,0.958,8.417,2.592
	C23.093,18.697,21,23.103,21,28s2.093,9.303,5.417,12.408C24.015,42.042,21.118,43,18,43z M33,28c0,4.428-1.939,8.401-5,11.149
	c-3.061-2.748-5-6.721-5-11.149s1.939-8.401,5-11.149C31.061,19.599,33,23.572,33,28z M38,43c-3.118,0-6.015-0.958-8.417-2.592
	C32.907,37.303,35,32.897,35,28s-2.093-9.303-5.417-12.408C31.985,13.958,34.882,13,38,13c8.271,0,15,6.729,15,15S46.271,43,38,43z"
	/>
</svg>
