<?xml version="1.0" encoding="utf-8"?>
<!-- Generator: Adobe Illustrator 20.0.0, SVG Export Plug-In . SVG Version: 6.00 Build 0)  -->
<!DOCTYPE svg PUBLIC "-//W3C//DTD SVG 1.1//EN" "http://www.w3.org/Graphics/SVG/1.1/DTD/svg11.dtd">
<svg version="1.1" id="Layer_1" xmlns="http://www.w3.org/2000/svg" xmlns:xlink="http://www.w3.org/1999/xlink" x="0px" y="0px"
	 width="64px" height="64px" viewBox="0 0 64 64" enable-background="new 0 0 64 64" xml:space="preserve">
<path d="M2,61h28c0.553,0,1-0.448,1-1s-0.447-1-1-1H3v-9.433c0-1.979,1.159-3.771,2.952-4.566C10.067,43.176,17.233,41,28,41
	c4.958,0,9.598,0.455,13.79,1.352c0.539,0.116,1.07-0.229,1.187-0.769c0.116-0.541-0.229-1.072-0.769-1.188
	C37.879,39.47,33.099,39,28,39c-11.117,0-18.566,2.269-22.858,4.173C2.626,44.288,1,46.798,1,49.567V60C1,60.552,1.447,61,2,61z"/>
<path d="M28,33c8.585,0,15-8.975,15-17c0-8.271-6.729-15-15-15S13,7.729,13,16C13,24.025,19.415,33,28,33z M28,3
	c7.168,0,13,5.832,13,13c0,6.937-5.679,15-13,15s-13-8.063-13-15C15,8.832,20.832,3,28,3z"/>
<path d="M39.293,53.293c-0.391,0.391-0.391,1.023,0,1.414l6,6C45.488,60.902,45.744,61,46,61s0.512-0.098,0.707-0.293l14-14
	c0.391-0.391,0.391-1.023,0-1.414s-1.023-0.391-1.414,0L46,58.586l-5.293-5.293C40.316,52.902,39.684,52.902,39.293,53.293z"/>
</svg>
