<?xml version="1.0" encoding="utf-8"?>
<!-- Generator: Adobe Illustrator 20.0.0, SVG Export Plug-In . SVG Version: 6.00 Build 0)  -->
<!DOCTYPE svg PUBLIC "-//W3C//DTD SVG 1.1//EN" "http://www.w3.org/Graphics/SVG/1.1/DTD/svg11.dtd">
<svg version="1.1" id="Layer_1" xmlns="http://www.w3.org/2000/svg" xmlns:xlink="http://www.w3.org/1999/xlink" x="0px" y="0px"
	 width="64px" height="64px" viewBox="0 0 64 64" enable-background="new 0 0 64 64" xml:space="preserve">
<path d="M62.382,1.077C62.26,1.027,62.13,1,62,1H44c-0.553,0-1,0.448-1,1s0.447,1,1,1h15.586l-16.64,16.64
	C38.487,15.522,32.534,13,26,13C12.215,13,1,24.215,1,38s11.215,25,25,25s25-11.215,25-25c0-6.534-2.522-12.487-6.64-16.946
	L61,4.414V20c0,0.552,0.447,1,1,1s1-0.448,1-1V2c0-0.13-0.026-0.26-0.077-0.382C62.822,1.373,62.627,1.178,62.382,1.077z M26,61
	C13.317,61,3,50.682,3,38s10.317-23,23-23s23,10.318,23,23S38.683,61,26,61z"/>
</svg>
