<?xml version="1.0" encoding="utf-8"?>
<!-- Generator: Adobe Illustrator 20.0.0, SVG Export Plug-In . SVG Version: 6.00 Build 0)  -->
<!DOCTYPE svg PUBLIC "-//W3C//DTD SVG 1.1//EN" "http://www.w3.org/Graphics/SVG/1.1/DTD/svg11.dtd">
<svg version="1.1" id="Layer_1" xmlns="http://www.w3.org/2000/svg" xmlns:xlink="http://www.w3.org/1999/xlink" x="0px" y="0px"
	 width="64px" height="64px" viewBox="0 0 64 64" enable-background="new 0 0 64 64" xml:space="preserve">
<path d="M28,33c8.585,0,15-8.975,15-17c0-8.271-6.729-15-15-15S13,7.729,13,16C13,24.025,19.415,33,28,33z M28,3
	c7.168,0,13,5.832,13,13c0,6.937-5.679,15-13,15s-13-8.063-13-15C15,8.832,20.832,3,28,3z"/>
<path d="M2,61h37c0.552,0,1-0.448,1-1s-0.448-1-1-1H3v-9.433c0-1.979,1.159-3.771,2.952-4.566C10.067,43.176,17.232,41,28,41
	c3.356,0,6.585,0.23,9.641,0.659c-1.201,2.841-0.687,6.278,1.557,8.6L49.28,60.695C49.468,60.89,49.728,61,49.999,61
	s0.531-0.11,0.719-0.305l10.084-10.436c2.922-3.024,2.922-7.946,0-10.97c-1.601-1.656-3.811-2.475-6.072-2.252
	c-1.825,0.182-3.491,1.025-4.73,2.365c-1.239-1.34-2.905-2.183-4.729-2.365c-2.255-0.218-4.472,0.596-6.073,2.252
	c-0.158,0.163-0.303,0.335-0.444,0.508C35.364,39.274,31.754,39,28,39c-11.118,0-18.567,2.269-22.858,4.173
	C2.625,44.288,1,46.798,1,49.567V60C1,60.552,1.448,61,2,61z M44.541,39c0.177,0,0.354,0.009,0.532,0.026
	c1.666,0.166,3.155,1.093,4.085,2.543c0.368,0.574,1.315,0.574,1.684,0c0.93-1.451,2.42-2.378,4.086-2.544
	c1.642-0.164,3.263,0.438,4.436,1.652c2.182,2.258,2.182,5.933,0,8.191l-9.365,9.692l-9.363-9.692c-2.182-2.258-2.182-5.933,0-8.191
	C41.682,39.596,43.082,39,44.541,39z"/>
</svg>
