<?xml version="1.0" encoding="utf-8"?>
<!-- Generator: Adobe Illustrator 20.0.0, SVG Export Plug-In . SVG Version: 6.00 Build 0)  -->
<!DOCTYPE svg PUBLIC "-//W3C//DTD SVG 1.1//EN" "http://www.w3.org/Graphics/SVG/1.1/DTD/svg11.dtd">
<svg version="1.1" id="Layer_1" xmlns="http://www.w3.org/2000/svg" xmlns:xlink="http://www.w3.org/1999/xlink" x="0px" y="0px"
	 width="64px" height="64px" viewBox="0 0 64 64" enable-background="new 0 0 64 64" xml:space="preserve">
<path d="M4,63h56c0.552,0,1-0.448,1-1v-8.826c0-3.781-2.378-7.181-5.918-8.46C50.396,43.02,42.587,41,32,41
	s-18.396,2.02-23.082,3.713C5.378,45.993,3,49.393,3,53.174V62C3,62.552,3.448,63,4,63z M5,53.174c0-2.941,1.848-5.585,4.598-6.58
	C14.134,44.955,21.703,43,32,43s17.866,1.955,22.402,3.594c2.75,0.994,4.598,3.638,4.598,6.58V61H5V53.174z"/>
<path d="M32,35c8.271,0,15-6.729,15-15v-4c0-8.271-6.729-15-15-15S17,7.729,17,16v4C17,28.271,23.729,35,32,35z M19,16
	c0-7.168,5.832-13,13-13s13,5.832,13,13v4c0,7.168-5.832,13-13,13s-13-5.832-13-13V16z"/>
</svg>
