<?xml version="1.0" encoding="utf-8"?>
<!-- Generator: Adobe Illustrator 20.0.0, SVG Export Plug-In . SVG Version: 6.00 Build 0)  -->
<!DOCTYPE svg PUBLIC "-//W3C//DTD SVG 1.1//EN" "http://www.w3.org/Graphics/SVG/1.1/DTD/svg11.dtd">
<svg version="1.1" id="Layer_1" xmlns="http://www.w3.org/2000/svg" xmlns:xlink="http://www.w3.org/1999/xlink" x="0px" y="0px"
	 width="64px" height="64px" viewBox="0 0 64 64" enable-background="new 0 0 64 64" xml:space="preserve">
<path d="M56,58V6c0-2.757-2.324-5-5.182-5H5C4.447,1,4,1.448,4,2v60c0,0.552,0.447,1,1,1h45.818C53.676,63,56,60.757,56,58z M6,3h8
	v58H6V3z M54,58c0,1.654-1.428,3-3.182,3H16V3h34.818C52.572,3,54,4.346,54,6V58z"/>
<path d="M61,19c0.553,0,1-0.448,1-1v-8c0-0.552-0.447-1-1-1s-1,0.448-1,1v8C60,18.552,60.447,19,61,19z"/>
<path d="M60,34c0,0.552,0.447,1,1,1s1-0.448,1-1v-8c0-0.552-0.447-1-1-1s-1,0.448-1,1V34z"/>
<path d="M35,30c2.757,0,5-2.243,5-5s-2.243-5-5-5s-5,2.243-5,5S32.243,30,35,30z M35,22c1.654,0,3,1.346,3,3s-1.346,3-3,3
	s-3-1.346-3-3S33.346,22,35,22z"/>
<path d="M37,33h-4c-4.963,0-9,4.038-9,9c0,0.552,0.447,1,1,1h20c0.553,0,1-0.448,1-1C46,37.038,41.963,33,37,33z M26.071,41
	c0.486-3.388,3.408-6,6.929-6h4c3.521,0,6.442,2.612,6.929,6H26.071z"/>
</svg>
