<?xml version="1.0" encoding="utf-8"?>
<!-- Generator: Adobe Illustrator 20.0.0, SVG Export Plug-In . SVG Version: 6.00 Build 0)  -->
<!DOCTYPE svg PUBLIC "-//W3C//DTD SVG 1.1//EN" "http://www.w3.org/Graphics/SVG/1.1/DTD/svg11.dtd">
<svg version="1.1" id="Layer_1" xmlns="http://www.w3.org/2000/svg" xmlns:xlink="http://www.w3.org/1999/xlink" x="0px" y="0px"
	 width="64px" height="64px" viewBox="0 0 64 64" enable-background="new 0 0 64 64" xml:space="preserve">
<path d="M47.773,46.359C52.253,41.537,55,35.085,55,28C55,13.112,42.888,1,28,1S1,13.112,1,28s12.112,27,27,27
	c7.085,0,13.537-2.747,18.359-7.227l14.934,14.934C61.488,62.902,61.744,63,62,63s0.512-0.098,0.707-0.293
	c0.391-0.391,0.391-1.023,0-1.414L47.773,46.359z M3,28C3,14.215,14.215,3,28,3s25,11.215,25,25S41.785,53,28,53S3,41.785,3,28z"/>
<path d="M38.542,33.725C36.441,32.482,32.907,31,28,31c-4.972,0-8.489,1.478-10.564,2.717C15.934,34.613,15,36.26,15,38.014V40
	c0,0.552,0.447,1,1,1h24c0.553,0,1-0.448,1-1v-1.965C41,36.273,40.059,34.622,38.542,33.725z M39,39H17v-0.986
	c0-1.069,0.546-2.034,1.461-2.58C20.32,34.324,23.484,33,28,33c4.454,0,7.638,1.33,9.524,2.446C38.448,35.993,39,36.96,39,38.035V39
	z"/>
<path d="M28,27c3.859,0,7-3.14,7-7s-3.141-7-7-7s-7,3.14-7,7S24.141,27,28,27z M28,15c2.757,0,5,2.243,5,5s-2.243,5-5,5
	s-5-2.243-5-5S25.243,15,28,15z"/>
</svg>
