<?xml version="1.0" encoding="utf-8"?>
<!-- Generator: Adobe Illustrator 20.0.0, SVG Export Plug-In . SVG Version: 6.00 Build 0)  -->
<!DOCTYPE svg PUBLIC "-//W3C//DTD SVG 1.1//EN" "http://www.w3.org/Graphics/SVG/1.1/DTD/svg11.dtd">
<svg version="1.1" id="Layer_1" xmlns="http://www.w3.org/2000/svg" xmlns:xlink="http://www.w3.org/1999/xlink" x="0px" y="0px"
	 width="64px" height="64px" viewBox="0 0 64 64" enable-background="new 0 0 64 64" xml:space="preserve">
<path d="M62,1H2C1.448,1,1,1.447,1,2v60c0,0.553,0.448,1,1,1h60c0.552,0,1-0.447,1-1V2C63,1.447,62.552,1,62,1z M32,39
	c-5.54,0-10-6.564-10-12v-2c0-5.514,4.486-10,10-10s10,4.486,10,10v2C42,32.436,37.54,39,32,39z M27,44v-4.45
	c1.514,0.905,3.2,1.45,5,1.45s3.486-0.545,5-1.45V44c0,0.481,0.343,0.895,0.816,0.982l9.474,1.776C50.599,47.38,53,50.273,53,53.64
	V61H11v-7.36c0-3.366,2.401-6.26,5.71-6.881l9.474-1.776C26.657,44.895,27,44.481,27,44z M61,61h-6v-7.36
	c0-4.328-3.087-8.048-7.342-8.846L39,43.17v-5.115c3.048-2.785,5-7.11,5-11.054v-2c0-6.617-5.383-12-12-12s-12,5.383-12,12v2
	c0,3.944,1.952,8.269,5,11.054v5.115l-8.659,1.624C12.087,45.592,9,49.312,9,53.64V61H3V3h58V61z"/>
</svg>
