<?xml version="1.0" encoding="utf-8"?>
<!-- Generator: Adobe Illustrator 20.0.0, SVG Export Plug-In . SVG Version: 6.00 Build 0)  -->
<!DOCTYPE svg PUBLIC "-//W3C//DTD SVG 1.1//EN" "http://www.w3.org/Graphics/SVG/1.1/DTD/svg11.dtd">
<svg version="1.1" id="Layer_1" xmlns="http://www.w3.org/2000/svg" xmlns:xlink="http://www.w3.org/1999/xlink" x="0px" y="0px"
	 width="64px" height="64px" viewBox="0 0 64 64" enable-background="new 0 0 64 64" xml:space="preserve">
<path d="M42.707,3.293c-0.391-0.391-1.023-0.391-1.414,0l-8,8c-0.092,0.092-0.165,0.203-0.216,0.325
	c-0.101,0.245-0.101,0.52,0,0.764c0.051,0.122,0.124,0.233,0.216,0.325l8,8C41.488,20.902,41.744,21,42,21s0.512-0.098,0.707-0.293
	c0.391-0.391,0.391-1.023,0-1.414L36.414,13H46c3.86,0,7,3.14,7,7v6c0,0.552,0.448,1,1,1s1-0.448,1-1v-6c0-4.962-4.038-9-9-9h-9.586
	l6.293-6.293C43.098,4.316,43.098,3.684,42.707,3.293z"/>
<path d="M30.923,51.618c-0.051-0.122-0.124-0.233-0.216-0.325l-8-8c-0.391-0.391-1.023-0.391-1.414,0s-0.391,1.023,0,1.414
	L27.586,51H18c-3.86,0-7-3.14-7-7v-6c0-0.552-0.448-1-1-1s-1,0.448-1,1v6c0,4.962,4.038,9,9,9h9.586l-6.293,6.293
	c-0.391,0.391-0.391,1.023,0,1.414C21.488,60.902,21.744,61,22,61s0.512-0.098,0.707-0.293l8-8c0.092-0.092,0.165-0.203,0.216-0.325
	C31.024,52.138,31.024,51.862,30.923,51.618z"/>
<path d="M2,29h24c0.552,0,1-0.448,1-1v-1.965c0-1.762-0.942-3.413-2.458-4.31C22.441,20.482,18.906,19,14,19
	c-4.972,0-8.489,1.478-10.564,2.717C1.933,22.613,1,24.26,1,26.014V28C1,28.552,1.448,29,2,29z M3,26.014
	c0-1.069,0.546-2.034,1.461-2.58C6.32,22.324,9.484,21,14,21c4.454,0,7.637,1.33,9.524,2.446C24.448,23.993,25,24.96,25,26.035V27H3
	V26.014z"/>
<path d="M21,8c0-3.86-3.14-7-7-7S7,4.14,7,8s3.14,7,7,7S21,11.86,21,8z M9,8c0-2.757,2.243-5,5-5s5,2.243,5,5s-2.243,5-5,5
	S9,10.757,9,8z"/>
<path d="M60.542,55.725C58.441,54.482,54.906,53,50,53c-4.972,0-8.489,1.478-10.564,2.717C37.933,56.613,37,58.26,37,60.014V62
	c0,0.552,0.448,1,1,1h24c0.552,0,1-0.448,1-1v-1.965C63,58.273,62.058,56.622,60.542,55.725z M61,61H39v-0.986
	c0-1.069,0.546-2.034,1.461-2.58C42.32,56.324,45.484,55,50,55c4.454,0,7.637,1.33,9.524,2.446C60.448,57.993,61,58.96,61,60.035V61
	z"/>
<path d="M50,35c-3.86,0-7,3.14-7,7s3.14,7,7,7s7-3.14,7-7S53.86,35,50,35z M50,47c-2.757,0-5-2.243-5-5s2.243-5,5-5s5,2.243,5,5
	S52.757,47,50,47z"/>
</svg>
