<?xml version="1.0" encoding="utf-8"?>
<!-- Generator: Adobe Illustrator 20.0.0, SVG Export Plug-In . SVG Version: 6.00 Build 0)  -->
<!DOCTYPE svg PUBLIC "-//W3C//DTD SVG 1.1//EN" "http://www.w3.org/Graphics/SVG/1.1/DTD/svg11.dtd">
<svg version="1.1" id="Layer_1" xmlns="http://www.w3.org/2000/svg" xmlns:xlink="http://www.w3.org/1999/xlink" x="0px" y="0px"
	 width="64px" height="64px" viewBox="0 0 64 64" enable-background="new 0 0 64 64" xml:space="preserve">
<path d="M50,49c3.859,0,7-3.14,7-7s-3.141-7-7-7s-7,3.14-7,7S46.141,49,50,49z M50,37c2.757,0,5,2.243,5,5s-2.243,5-5,5
	s-5-2.243-5-5S47.243,37,50,37z"/>
<path d="M14,35c-3.859,0-7,3.14-7,7s3.141,7,7,7s7-3.14,7-7S17.859,35,14,35z M14,47c-2.757,0-5-2.243-5-5s2.243-5,5-5s5,2.243,5,5
	S16.757,47,14,47z"/>
<path d="M45,28v-1.965c0-1.762-0.941-3.413-2.458-4.31C40.441,20.482,36.907,19,32,19c-4.972,0-8.489,1.478-10.564,2.717
	C19.934,22.613,19,24.26,19,26.014V28c0,0.552,0.447,1,1,1h24C44.553,29,45,28.552,45,28z M43,27H21v-0.986
	c0-1.069,0.546-2.034,1.461-2.58C24.32,22.324,27.484,21,32,21c4.454,0,7.638,1.33,9.524,2.446C42.448,23.993,43,24.96,43,26.035V27
	z"/>
<path d="M2,63h24c0.553,0,1-0.448,1-1v-1.965c0-1.762-0.941-3.413-2.458-4.31C22.441,54.482,18.907,53,14,53
	c-4.972,0-8.489,1.478-10.564,2.717C1.934,56.613,1,58.26,1,60.014V62C1,62.552,1.447,63,2,63z M3,60.014
	c0-1.069,0.546-2.034,1.461-2.58C6.32,56.324,9.484,55,14,55c4.454,0,7.638,1.33,9.524,2.446C24.448,57.993,25,58.96,25,60.035V61H3
	V60.014z"/>
<path d="M60.542,55.725C58.441,54.482,54.907,53,50,53c-4.972,0-8.489,1.478-10.564,2.717C37.934,56.613,37,58.26,37,60.014V62
	c0,0.552,0.447,1,1,1h24c0.553,0,1-0.448,1-1v-1.965C63,58.273,62.059,56.622,60.542,55.725z M61,61H39v-0.986
	c0-1.069,0.546-2.034,1.461-2.58C42.32,56.324,45.484,55,50,55c4.454,0,7.638,1.33,9.524,2.446C60.448,57.993,61,58.96,61,60.035V61
	z"/>
<path d="M39,8c0-3.86-3.141-7-7-7s-7,3.14-7,7s3.141,7,7,7S39,11.86,39,8z M27,8c0-2.757,2.243-5,5-5s5,2.243,5,5s-2.243,5-5,5
	S27,10.757,27,8z"/>
</svg>
