<?xml version="1.0" encoding="utf-8"?>
<!-- Generator: Adobe Illustrator 20.0.0, SVG Export Plug-In . SVG Version: 6.00 Build 0)  -->
<!DOCTYPE svg PUBLIC "-//W3C//DTD SVG 1.1//EN" "http://www.w3.org/Graphics/SVG/1.1/DTD/svg11.dtd">
<svg version="1.1" id="Layer_1" xmlns="http://www.w3.org/2000/svg" xmlns:xlink="http://www.w3.org/1999/xlink" x="0px" y="0px"
	 width="64px" height="64px" viewBox="0 0 64 64" enable-background="new 0 0 64 64" xml:space="preserve">
<path d="M31,4v7h-7c-0.552,0-1,0.447-1,1s0.448,1,1,1h7v7c0,0.553,0.448,1,1,1s1-0.447,1-1v-7h7c0.552,0,1-0.447,1-1s-0.448-1-1-1
	h-7V4c0-0.553-0.448-1-1-1S31,3.447,31,4z"/>
<path d="M43,36c0,3.859,3.14,7,7,7s7-3.141,7-7s-3.14-7-7-7S43,32.141,43,36z M55,36c0,2.757-2.243,5-5,5s-5-2.243-5-5s2.243-5,5-5
	S55,33.243,55,36z"/>
<path d="M14,29c-3.86,0-7,3.141-7,7s3.14,7,7,7s7-3.141,7-7S17.86,29,14,29z M14,41c-2.757,0-5-2.243-5-5s2.243-5,5-5s5,2.243,5,5
	S16.757,41,14,41z"/>
<path d="M2,61h24c0.552,0,1-0.447,1-1v-5.965c0-1.762-0.942-3.414-2.458-4.31C22.441,48.482,18.907,47,14,47
	c-4.972,0-8.489,1.478-10.564,2.717C1.934,50.613,1,52.26,1,54.014V60C1,60.553,1.448,61,2,61z M3,54.014
	c0-1.069,0.546-2.034,1.461-2.58C6.32,50.323,9.484,49,14,49c4.454,0,7.638,1.33,9.524,2.446C24.448,51.993,25,52.961,25,54.035V59
	H3V54.014z"/>
<path d="M60.542,49.726C58.441,48.482,54.907,47,50,47c-4.972,0-8.489,1.478-10.564,2.717C37.934,50.613,37,52.26,37,54.014V60
	c0,0.553,0.448,1,1,1h24c0.552,0,1-0.447,1-1v-5.965C63,52.273,62.058,50.621,60.542,49.726z M61,59H39v-4.986
	c0-1.069,0.546-2.034,1.461-2.58C42.32,50.323,45.484,49,50,49c4.454,0,7.638,1.33,9.524,2.446C60.448,51.993,61,52.961,61,54.035
	V59z"/>
</svg>
