<?xml version="1.0" encoding="utf-8"?>
<!-- Generator: Adobe Illustrator 20.0.0, SVG Export Plug-In . SVG Version: 6.00 Build 0)  -->
<!DOCTYPE svg PUBLIC "-//W3C//DTD SVG 1.1//EN" "http://www.w3.org/Graphics/SVG/1.1/DTD/svg11.dtd">
<svg version="1.1" id="Layer_1" xmlns="http://www.w3.org/2000/svg" xmlns:xlink="http://www.w3.org/1999/xlink" x="0px" y="0px"
	 width="64px" height="64px" viewBox="0 0 64 64" enable-background="new 0 0 64 64" xml:space="preserve">
<path d="M13,46.517V51c0,0.553,0.447,1,1,1h36c0.553,0,1-0.447,1-1v-4.455c0-4.024-2.599-7.497-6.467-8.641
	C40.257,36.641,36.04,36,32,36c-4.115,0-8.339,0.633-12.552,1.881C15.592,39.022,13,42.493,13,46.517z M32,38
	c3.848,0,7.874,0.613,11.967,1.822C46.978,40.713,49,43.414,49,46.545V50H15v-3.483c0-3.13,2.016-5.83,5.017-6.718
	C24.045,38.605,28.077,38,32,38z"/>
<path d="M43,19c0-6.065-4.935-11-11-11s-11,4.935-11,11c0,6.012,4.805,13,11,13S43,25.012,43,19z M23,19c0-4.963,4.037-9,9-9
	s9,4.037,9,9c0,4.982-4.015,11-9,11S23,23.982,23,19z"/>
<path d="M2,15c0.553,0,1-0.447,1-1V3h11c0.553,0,1-0.447,1-1s-0.447-1-1-1H2C1.447,1,1,1.447,1,2v12C1,14.553,1.447,15,2,15z"/>
<path d="M62,1H50c-0.553,0-1,0.447-1,1s0.447,1,1,1h11v11c0,0.553,0.447,1,1,1s1-0.447,1-1V2C63,1.447,62.553,1,62,1z"/>
<path d="M15,62c0-0.553-0.447-1-1-1H3V50c0-0.553-0.447-1-1-1s-1,0.447-1,1v12c0,0.553,0.447,1,1,1h12C14.553,63,15,62.553,15,62z"
	/>
<path d="M62,49c-0.553,0-1,0.447-1,1v11H50c-0.553,0-1,0.447-1,1s0.447,1,1,1h12c0.553,0,1-0.447,1-1V50C63,49.447,62.553,49,62,49z
	"/>
</svg>
