<?xml version="1.0" encoding="utf-8"?>
<!-- Generator: Adobe Illustrator 20.0.0, SVG Export Plug-In . SVG Version: 6.00 Build 0)  -->
<!DOCTYPE svg PUBLIC "-//W3C//DTD SVG 1.1//EN" "http://www.w3.org/Graphics/SVG/1.1/DTD/svg11.dtd">
<svg version="1.1" id="Layer_1" xmlns="http://www.w3.org/2000/svg" xmlns:xlink="http://www.w3.org/1999/xlink" x="0px" y="0px"
	 width="64px" height="64px" viewBox="0 0 64 64" enable-background="new 0 0 64 64" xml:space="preserve">
<path d="M32,1C14.906,1,1,14.907,1,32c0,9.547,4.341,18.097,11.15,23.788c0.027,0.032,0.063,0.053,0.094,0.081
	C17.611,60.32,24.498,63,32,63c7.499,0,14.384-2.677,19.751-7.125c0.02-0.02,0.045-0.033,0.063-0.055C58.644,50.129,63,41.565,63,32
	C63,14.907,49.094,1,32,1z M13.951,54.674c0.471-5.209,3.372-7.132,8.82-8.949c3.786-1.262,5.326-4.691,5.954-7.223
	C29.76,38.825,30.86,39,32,39c1.138,0,2.236-0.174,3.269-0.496c0.628,2.53,2.169,5.957,5.96,7.221
	c5.427,1.809,8.315,3.734,8.787,8.975C45.064,58.638,38.804,61,32,61C25.181,61,18.908,58.628,13.951,54.674z M32,37
	c-4.963,0-9-4.038-9-9v-4c0-4.962,4.037-9,9-9s9,4.037,9,9v4C41,32.962,36.963,37,32,37z M51.816,53.145
	c-1.077-5.848-5.31-7.77-9.954-9.318c-3.057-1.019-4.255-4.011-4.724-6.108C40.62,35.871,43,32.21,43,28v-4c0-6.065-4.935-11-11-11
	s-11,4.935-11,11v4c0,4.206,2.376,7.865,5.853,9.715c-0.522,2.383-1.764,5.129-4.715,6.113c-4.659,1.553-8.904,3.477-9.986,9.288
	C6.525,47.823,3,40.317,3,32C3,16.009,16.01,3,32,3s29,13.009,29,29C61,40.333,57.462,47.851,51.816,53.145z"/>
</svg>
