<?xml version="1.0" encoding="utf-8"?>
<!-- Generator: Adobe Illustrator 19.2.1, SVG Export Plug-In . SVG Version: 6.00 Build 0)  -->
<!DOCTYPE svg PUBLIC "-//W3C//DTD SVG 1.1//EN" "http://www.w3.org/Graphics/SVG/1.1/DTD/svg11.dtd">
<svg version="1.1" id="Layer_1" xmlns="http://www.w3.org/2000/svg" xmlns:xlink="http://www.w3.org/1999/xlink" x="0px" y="0px"
	 width="64px" height="64px" viewBox="0 0 64 64" enable-background="new 0 0 64 64" xml:space="preserve">
<path d="M60,18c0.552,0,1,0.448,1,1v38c0,0.552-0.448,1-1,1H4c-0.552,0-1-0.448-1-1V19c0-0.552,0.448-1,1-1h34.171L52.172,4H3
	C1.895,4,1,4.895,1,6v52c0,1.105,0.895,2,2,2h58c1.105,0,2-0.895,2-2V10.828L55.828,18H60z M21,9c1.105,0,2,0.895,2,2
	c0,1.105-0.895,2-2,2s-2-0.895-2-2C19,9.895,19.895,9,21,9z M14,9c1.105,0,2,0.895,2,2c0,1.105-0.895,2-2,2s-2-0.895-2-2
	C12,9.895,12.895,9,14,9z M7,9c1.105,0,2,0.895,2,2c0,1.105-0.895,2-2,2s-2-0.895-2-2C5,9.895,5.895,9,7,9z"/>
<path d="M61.757,3.243c-1.657-1.657-4.343-1.657-6,0L33.708,25.292c1.427,0.378,2.738,1.119,3.81,2.191
	c1.072,1.072,1.812,2.383,2.191,3.809L61.757,9.243C63.414,7.586,63.414,4.899,61.757,3.243L61.757,3.243z"/>
<path d="M31.526,27c-1.729,0-3.355,0.674-4.578,1.896c-2.431,2.43-2.927,11.12-2.947,11.489c-0.009,0.165,0.053,0.327,0.17,0.444
	c0.11,0.11,0.258,0.171,0.412,0.171c0.011,0,0.021,0,0.032-0.001c0.369-0.02,9.058-0.516,11.489-2.947
	C37.326,36.83,38,35.204,38,33.474s-0.674-3.355-1.896-4.578C34.881,27.674,33.255,27,31.526,27z"/>
<path d="M7,47v6c0,0.552,0.448,1,1,1h48c0.552,0,1-0.448,1-1v-6c0-0.552-0.448-1-1-1H8C7.448,46,7,46.448,7,47z"/>
</svg>
