<?xml version="1.0" encoding="utf-8"?>
<!-- Generator: Adobe Illustrator 19.2.1, SVG Export Plug-In . SVG Version: 6.00 Build 0)  -->
<!DOCTYPE svg PUBLIC "-//W3C//DTD SVG 1.1//EN" "http://www.w3.org/Graphics/SVG/1.1/DTD/svg11.dtd">
<svg version="1.1" id="Layer_1" xmlns="http://www.w3.org/2000/svg" xmlns:xlink="http://www.w3.org/1999/xlink" x="0px" y="0px"
	 width="64px" height="64px" viewBox="0 0 64 64" enable-background="new 0 0 64 64" xml:space="preserve">
<path fill="#222221" d="M12.002,56.106C12.161,60.585,22.38,63,32,63s19.839-2.415,19.998-6.894l8.789-44.923
	C60.927,10.802,61,10.407,61,10c0-5.846-14.941-9-29-9S3,4.154,3,10c0,0.407,0.073,0.802,0.213,1.184L12.002,56.106z M32,3
	c15.322,0,26.804,3.633,26.997,6.916l-0.145,0.738C57.468,13.773,46.439,17,32,17S6.532,13.773,5.147,10.654L5.003,9.916
	C5.196,6.633,16.678,3,32,3z"/>
</svg>
