<?xml version="1.0" encoding="utf-8"?>
<!-- Generator: Adobe Illustrator 19.2.1, SVG Export Plug-In . SVG Version: 6.00 Build 0)  -->
<!DOCTYPE svg PUBLIC "-//W3C//DTD SVG 1.1//EN" "http://www.w3.org/Graphics/SVG/1.1/DTD/svg11.dtd">
<svg version="1.1" id="Layer_1" xmlns="http://www.w3.org/2000/svg" xmlns:xlink="http://www.w3.org/1999/xlink" x="0px" y="0px"
	 width="64px" height="64px" viewBox="0 0 64 64" enable-background="new 0 0 64 64" xml:space="preserve">
<path d="M2,9c0.553,0,1-0.448,1-1V3h5c0.553,0,1-0.448,1-1S8.553,1,8,1H2C1.447,1,1,1.448,1,2v6C1,8.552,1.447,9,2,9z"/>
<path d="M2,48h6c0.553,0,1-0.448,1-1s-0.447-1-1-1H3v-5c0-0.552-0.447-1-1-1s-1,0.448-1,1v6C1,47.552,1.447,48,2,48z"/>
<path d="M48,2c0-0.552-0.447-1-1-1h-6c-0.553,0-1,0.448-1,1s0.447,1,1,1h5v5c0,0.552,0.447,1,1,1s1-0.448,1-1V2z"/>
<path d="M21,1h-6c-0.553,0-1,0.448-1,1s0.447,1,1,1h6c0.553,0,1-0.448,1-1S21.553,1,21,1z"/>
<path d="M2,22c0.553,0,1-0.448,1-1v-6c0-0.552-0.447-1-1-1s-1,0.448-1,1v6C1,21.552,1.447,22,2,22z"/>
<path d="M2,35c0.553,0,1-0.448,1-1v-6c0-0.552-0.447-1-1-1s-1,0.448-1,1v6C1,34.552,1.447,35,2,35z"/>
<path d="M48,15c0-0.552-0.447-1-1-1s-1,0.448-1,1v6c0,0.552,0.447,1,1,1s1-0.448,1-1V15z"/>
<path d="M47,27c-0.553,0-1,0.448-1,1v2c0,0.552,0.447,1,1,1s1-0.448,1-1v-2C48,27.448,47.553,27,47,27z"/>
<path d="M35,2c0-0.552-0.447-1-1-1h-6c-0.553,0-1,0.448-1,1s0.447,1,1,1h6C34.553,3,35,2.552,35,2z"/>
<path d="M21,46h-6c-0.553,0-1,0.448-1,1s0.447,1,1,1h6c0.553,0,1-0.448,1-1S21.553,46,21,46z"/>
<path d="M30,46h-2c-0.553,0-1,0.448-1,1s0.447,1,1,1h2c0.553,0,1-0.448,1-1S30.553,46,30,46z"/>
<path d="M51.688,46.274l10.759-5.379c0.368-0.184,0.586-0.575,0.549-0.985c-0.037-0.41-0.322-0.755-0.717-0.87l-31-9
	c-0.355-0.1-0.729-0.005-0.986,0.253c-0.258,0.258-0.355,0.636-0.253,0.986l9,31c0.114,0.396,0.46,0.68,0.869,0.717
	C39.94,62.999,39.971,63,40,63c0.376,0,0.724-0.212,0.895-0.553l5.38-10.759l11.019,11.019c0.391,0.391,1.023,0.391,1.414,0l4-4
	c0.391-0.391,0.391-1.023,0-1.414L51.688,46.274z"/>
</svg>
