<?xml version="1.0" encoding="utf-8"?>
<!-- Generator: Adobe Illustrator 19.2.1, SVG Export Plug-In . SVG Version: 6.00 Build 0)  -->
<!DOCTYPE svg PUBLIC "-//W3C//DTD SVG 1.1//EN" "http://www.w3.org/Graphics/SVG/1.1/DTD/svg11.dtd">
<svg version="1.1" id="Layer_1" xmlns="http://www.w3.org/2000/svg" xmlns:xlink="http://www.w3.org/1999/xlink" x="0px" y="0px"
	 width="64px" height="64px" viewBox="0 0 64 64" enable-background="new 0 0 64 64" xml:space="preserve">
<path fill="#222221" d="M21,32c0,6.065,4.935,11,11,11s11-4.935,11-11s-4.935-11-11-11S21,25.935,21,32z"/>
<path fill="#222221" d="M32,1C22.329,1,13.68,5.454,7.991,12.415l11.033,19.11C19.277,24.578,24.992,19,32,19h28.132
	C55.207,8.384,44.453,1,32,1z"/>
<path fill="#222221" d="M38.896,21C42.555,23.303,45,27.367,45,32c0,2.341-0.631,4.534-1.719,6.434
	c-0.01,0.021-0.01,0.045-0.022,0.066L29.191,62.867C30.117,62.95,31.052,63,32,63c17.094,0,31-13.906,31-31
	c0-3.873-0.72-7.579-2.023-11H38.896z"/>
<path fill="#222221" d="M32,45c-4.754,0-8.908-2.573-11.175-6.391c-0.028-0.036-0.06-0.068-0.084-0.109L6.681,14.147
	C3.108,19.198,1,25.356,1,32c0,15.404,11.295,28.214,26.036,30.598l11.033-19.11C36.256,44.45,34.192,45,32,45z"/>
</svg>
