<?xml version="1.0" encoding="utf-8"?>
<!-- Generator: Adobe Illustrator 19.2.1, SVG Export Plug-In . SVG Version: 6.00 Build 0)  -->
<!DOCTYPE svg PUBLIC "-//W3C//DTD SVG 1.1//EN" "http://www.w3.org/Graphics/SVG/1.1/DTD/svg11.dtd">
<svg version="1.1" id="Layer_1" xmlns="http://www.w3.org/2000/svg" xmlns:xlink="http://www.w3.org/1999/xlink" x="0px" y="0px"
	 width="64px" height="64px" viewBox="0 0 64 64" enable-background="new 0 0 64 64" xml:space="preserve">
<path d="M22,15v34c0,1.105,0.895,2,2,2h16c1.105,0,2-0.895,2-2V15c0-1.105-0.895-2-2-2H24C22.895,13,22,13.895,22,15z"/>
<path d="M8,62V2c0-0.553-0.448-1-1-1S6,1.447,6,2v60c0,0.553,0.448,1,1,1S8,62.553,8,62z"/>
<path d="M56,2v60c0,0.553,0.448,1,1,1s1-0.447,1-1V2c0-0.553-0.448-1-1-1S56,1.447,56,2z"/>
</svg>
