<?xml version="1.0" encoding="utf-8"?>
<!-- Generator: Adobe Illustrator 19.2.1, SVG Export Plug-In . SVG Version: 6.00 Build 0)  -->
<!DOCTYPE svg PUBLIC "-//W3C//DTD SVG 1.1//EN" "http://www.w3.org/Graphics/SVG/1.1/DTD/svg11.dtd">
<svg version="1.1" id="Layer_1" xmlns="http://www.w3.org/2000/svg" xmlns:xlink="http://www.w3.org/1999/xlink" x="0px" y="0px"
	 width="64px" height="64px" viewBox="0 0 64 64" enable-background="new 0 0 64 64" xml:space="preserve">
<path d="M3,21h40v22H21V23h-6v25c0,0.552,0.448,1,1,1h45c0.552,0,1-0.448,1-1v-4c0-0.552-0.448-1-1-1H49V16c0-0.552-0.448-1-1-1H21
	V3c0-0.552-0.448-1-1-1h-4c-0.552,0-1,0.448-1,1v12H3c-0.552,0-1,0.448-1,1v4C2,20.552,2.448,21,3,21z"/>
<path d="M48,62c0.552,0,1-0.448,1-1V51h-6v10c0,0.552,0.448,1,1,1H48z"/>
<path d="M50.293,13.707C50.488,13.902,50.744,14,51,14s0.512-0.098,0.707-0.293l10-10c0.391-0.391,0.391-1.023,0-1.414
	s-1.023-0.391-1.414,0l-10,10C49.902,12.684,49.902,13.316,50.293,13.707z"/>
<path d="M24.707,40.707l16-16c0.391-0.391,0.391-1.023,0-1.414s-1.023-0.391-1.414,0l-16,16c-0.391,0.391-0.391,1.023,0,1.414
	C23.488,40.902,23.744,41,24,41S24.512,40.902,24.707,40.707z"/>
</svg>
