<?xml version="1.0" encoding="utf-8"?>
<!-- Generator: Adobe Illustrator 19.2.1, SVG Export Plug-In . SVG Version: 6.00 Build 0)  -->
<!DOCTYPE svg PUBLIC "-//W3C//DTD SVG 1.1//EN" "http://www.w3.org/Graphics/SVG/1.1/DTD/svg11.dtd">
<svg version="1.1" id="Layer_1" xmlns="http://www.w3.org/2000/svg" xmlns:xlink="http://www.w3.org/1999/xlink" x="0px" y="0px"
	 width="64px" height="64px" viewBox="0 0 64 64" enable-background="new 0 0 64 64" xml:space="preserve">
<path d="M26,16c0.552,0,1-0.448,1-1V8c0-0.552-0.448-1-1-1h-8c-0.552,0-1,0.448-1,1v7c0,0.552,0.448,1,1,1H26z"/>
<path d="M58,16c0-0.552-0.448-1-1-1H47c-0.552,0-1,0.448-1,1s0.448,1,1,1h10C57.552,17,58,16.552,58,16z"/>
<path d="M42.293,23.707l6,6C48.488,29.902,48.744,30,49,30s0.512-0.098,0.707-0.293c0.391-0.391,0.391-1.023,0-1.414l-6-6
	c-0.391-0.391-1.023-0.391-1.414,0S41.902,23.316,42.293,23.707z"/>
<path d="M48.293,2.293l-6,6c-0.391,0.391-0.391,1.023,0,1.414C42.488,9.902,42.744,10,43,10s0.512-0.098,0.707-0.293l6-6
	c0.391-0.391,0.391-1.023,0-1.414S48.684,1.902,48.293,2.293z"/>
<path d="M6,30v31c0,1.105,0.895,2,2,2h28c1.105,0,2-0.895,2-2V30c0-6.627-5.373-12-12-12h-8C11.373,18,6,23.373,6,30z"/>
</svg>
