<?xml version="1.0" encoding="utf-8"?>
<!-- Generator: Adobe Illustrator 19.2.1, SVG Export Plug-In . SVG Version: 6.00 Build 0)  -->
<!DOCTYPE svg PUBLIC "-//W3C//DTD SVG 1.1//EN" "http://www.w3.org/Graphics/SVG/1.1/DTD/svg11.dtd">
<svg version="1.1" id="Layer_1" xmlns="http://www.w3.org/2000/svg" xmlns:xlink="http://www.w3.org/1999/xlink" x="0px" y="0px"
	 width="64px" height="64px" viewBox="0 0 64 64" enable-background="new 0 0 64 64" xml:space="preserve">
<path d="M2,15h12c0.553,0,1-0.448,1-1V2c0-0.552-0.447-1-1-1H2C1.447,1,1,1.448,1,2v12C1,14.552,1.447,15,2,15z"/>
<path d="M62,1H50c-0.553,0-1,0.448-1,1v12c0,0.552,0.447,1,1,1h12c0.553,0,1-0.448,1-1V2C63,1.448,62.553,1,62,1z"/>
<path d="M2,63h12c0.553,0,1-0.448,1-1V50c0-0.552-0.447-1-1-1H2c-0.553,0-1,0.448-1,1v12C1,62.552,1.447,63,2,63z"/>
<path d="M62,49H50c-0.553,0-1,0.448-1,1v12c0,0.552,0.447,1,1,1h12c0.553,0,1-0.448,1-1V50C63,49.448,62.553,49,62,49z"/>
<rect x="17" y="7" width="30" height="2"/>
<rect x="7" y="17" width="2" height="30"/>
<rect x="17" y="55" width="30" height="2"/>
<rect x="55" y="17" width="2" height="30"/>
</svg>
