<?xml version="1.0" encoding="utf-8"?>
<!-- Generator: Adobe Illustrator 19.2.1, SVG Export Plug-In . SVG Version: 6.00 Build 0)  -->
<!DOCTYPE svg PUBLIC "-//W3C//DTD SVG 1.1//EN" "http://www.w3.org/Graphics/SVG/1.1/DTD/svg11.dtd">
<svg version="1.1" id="Layer_1" xmlns="http://www.w3.org/2000/svg" xmlns:xlink="http://www.w3.org/1999/xlink" x="0px" y="0px"
	 width="64px" height="64px" viewBox="0 0 64 64" enable-background="new 0 0 64 64" xml:space="preserve">
<path d="M22.003,55.983C23.785,59.672,27.719,63,32,63c4.285,0,8.38-3.544,10.122-7.35c2.244,3.848,7.448,7.351,11.88,7.35
	C54.553,63,55,62.553,55,62.002C55,56.936,55,33,55,33H9v29c0,0.557,0.457,1.001,1.014,1C14.651,62.994,19.864,60.133,22.003,55.983
	z"/>
<path d="M48,21H38V7c0-3.314-2.686-6-6-6s-6,2.686-6,6v14H16c-3.866,0-7,3.134-7,7v3h46v-3C55,24.134,51.866,21,48,21z M32,9
	c-1.105,0-2-0.895-2-2s0.895-2,2-2s2,0.895,2,2S33.105,9,32,9z"/>
</svg>
