<?xml version="1.0" encoding="utf-8"?>
<!-- Generator: Adobe Illustrator 19.2.1, SVG Export Plug-In . SVG Version: 6.00 Build 0)  -->
<!DOCTYPE svg PUBLIC "-//W3C//DTD SVG 1.1//EN" "http://www.w3.org/Graphics/SVG/1.1/DTD/svg11.dtd">
<svg version="1.1" id="Layer_1" xmlns="http://www.w3.org/2000/svg" xmlns:xlink="http://www.w3.org/1999/xlink" x="0px" y="0px"
	 width="64px" height="64px" viewBox="0 0 64 64" enable-background="new 0 0 64 64" xml:space="preserve">
<path fill="#222221" d="M52.661,8.891c-7.951-3.874-15.362-1.162-17.815,0.53C42.657,11.135,48.558,20.578,48.558,32
	s-5.901,20.865-13.712,22.579c2.453,1.692,9.864,4.404,17.815,0.53C59.006,49.433,63,41.183,63,32v0v0v0
	C63,22.817,59.006,14.568,52.661,8.891z"/>
<path fill="#222221" d="M32,1C14.879,1,1,14.879,1,32c0,16.625,13.088,30.193,29.524,30.964C31.013,62.987,31.505,63,32,63
	c7.937,0,15.175-2.984,20.659-7.889c-3.633,2.41-7.882,3.796-12.422,3.796c-7.382,0-13.993-3.662-18.44-9.437
	c-3.427-4.046-5.648-10.027-5.798-16.74c0-0.017,0-1.443,0-1.461c0.151-6.712,2.371-12.694,5.798-16.739
	c4.447-5.775,11.058-9.437,18.441-9.437c4.541,0,8.791,1.387,12.424,3.798c-5.457-4.882-12.652-7.861-20.544-7.89
	C32.078,1.001,32.039,1,32,1z"/>
</svg>
