<?xml version="1.0" encoding="utf-8"?>
<!-- Generator: Adobe Illustrator 19.2.1, SVG Export Plug-In . SVG Version: 6.00 Build 0)  -->
<!DOCTYPE svg PUBLIC "-//W3C//DTD SVG 1.1//EN" "http://www.w3.org/Graphics/SVG/1.1/DTD/svg11.dtd">
<svg version="1.1" id="Layer_1" xmlns="http://www.w3.org/2000/svg" xmlns:xlink="http://www.w3.org/1999/xlink" x="0px" y="0px"
	 width="64px" height="64px" viewBox="0 0 64 64" enable-background="new 0 0 64 64" xml:space="preserve">
<path fill="#222221" d="M10,1C9.448,1,9,1.448,9,2v12v2v33c0,0.552,0.448,1,1,1h21v-2H11V16h20v-2H11V2C11,1.448,10.552,1,10,1z"/>
<path fill="#222221" d="M54,63c0.552,0,1-0.447,1-1V43c0-0.266-0.105-0.52-0.293-0.707l-7-7C47.52,35.105,47.265,35,47,35H34
	c-0.552,0-1,0.447-1,1v26c0,0.553,0.448,1,1,1H54z"/>
<path fill="#222221" d="M47.707,1.293C47.52,1.105,47.265,1,47,1H34c-0.552,0-1,0.447-1,1v26c0,0.553,0.448,1,1,1h20
	c0.552,0,1-0.447,1-1V9c0-0.266-0.105-0.52-0.293-0.707L47.707,1.293z"/>
</svg>
