<?xml version="1.0" encoding="utf-8"?>
<!-- Generator: Adobe Illustrator 19.2.1, SVG Export Plug-In . SVG Version: 6.00 Build 0)  -->
<!DOCTYPE svg PUBLIC "-//W3C//DTD SVG 1.1//EN" "http://www.w3.org/Graphics/SVG/1.1/DTD/svg11.dtd">
<svg version="1.1" id="Layer_1" xmlns="http://www.w3.org/2000/svg" xmlns:xlink="http://www.w3.org/1999/xlink" x="0px" y="0px"
	 width="64px" height="64px" viewBox="0 0 64 64" enable-background="new 0 0 64 64" xml:space="preserve">
<path d="M58,62V2c0-0.553-0.448-1-1-1s-1,0.447-1,1v60c0,0.553,0.448,1,1,1S58,62.553,58,62z"/>
<path d="M50,13c0-1.105-0.895-2-2-2H8c-1.105,0-2,0.895-2,2v12c0,1.105,0.895,2,2,2h40c1.105,0,2-0.895,2-2V13z"/>
<path d="M48,37H26c-1.105,0-2,0.895-2,2v12c0,1.105,0.895,2,2,2h22c1.105,0,2-0.895,2-2V39C50,37.895,49.105,37,48,37z"/>
</svg>
