<?xml version="1.0" encoding="utf-8"?>
<!-- Generator: Adobe Illustrator 19.2.1, SVG Export Plug-In . SVG Version: 6.00 Build 0)  -->
<!DOCTYPE svg PUBLIC "-//W3C//DTD SVG 1.1//EN" "http://www.w3.org/Graphics/SVG/1.1/DTD/svg11.dtd">
<svg version="1.1" id="Layer_1" xmlns="http://www.w3.org/2000/svg" xmlns:xlink="http://www.w3.org/1999/xlink" x="0px" y="0px"
	 width="64px" height="64px" viewBox="0 0 64 64" enable-background="new 0 0 64 64" xml:space="preserve">
<path d="M61.707,16.293L58.414,13L42.707,28.707C42.512,28.902,42.256,29,42,29s-0.512-0.098-0.707-0.293l-6-6
	c-0.391-0.391-0.391-1.023,0-1.414L51,5.586l-3.293-3.293c-0.391-0.391-1.023-0.391-1.414,0l-37,37
	c-0.391,0.391-0.391,1.023,0,1.414l14,14C23.488,54.902,23.744,55,24,55s0.512-0.098,0.707-0.293l37-37
	C62.098,17.316,62.098,16.684,61.707,16.293z"/>
<path d="M2.043,55.29c0.107,0.353,0.399,0.619,0.761,0.691l10,2c0.326,0.066,0.665-0.035,0.903-0.273l4.879-4.879l-7.414-7.414
	l-8.879,8.879C2.032,54.554,1.936,54.937,2.043,55.29z"/>
</svg>
