<?xml version="1.0" encoding="utf-8"?>
<!-- Generator: Adobe Illustrator 19.2.1, SVG Export Plug-In . SVG Version: 6.00 Build 0)  -->
<!DOCTYPE svg PUBLIC "-//W3C//DTD SVG 1.1//EN" "http://www.w3.org/Graphics/SVG/1.1/DTD/svg11.dtd">
<svg version="1.1" id="Layer_1" xmlns="http://www.w3.org/2000/svg" xmlns:xlink="http://www.w3.org/1999/xlink" x="0px" y="0px"
	 width="64px" height="64px" viewBox="0 0 64 64" enable-background="new 0 0 64 64" xml:space="preserve">
<path d="M32,8c0.552,0,1-0.447,1-1V3c0-0.553-0.448-1-1-1s-1,0.447-1,1v4C31,7.553,31.448,8,32,8z"/>
<path d="M31,19c0,0.553,0.448,1,1,1s1-0.447,1-1v-4c0-0.553-0.448-1-1-1s-1,0.447-1,1V19z"/>
<path d="M33,52v-4c0-0.553-0.448-1-1-1s-1,0.447-1,1v4c0,0.553,0.448,1,1,1S33,52.553,33,52z"/>
<path d="M54,2L33.317,26.13l5.794,6.759l12.643-12.643C56.6,15.4,57.526,7.877,54,2z"/>
<path d="M49,40c-1.909,0-3.705,0.49-5.272,1.35L10,2c-3.526,5.877-2.6,13.4,2.246,18.246l14.061,14.061l-6.036,7.042
	C18.705,40.49,16.909,40,15,40C8.935,40,4,44.935,4,51s4.935,11,11,11s11-4.935,11-11c0-1.477-0.297-2.885-0.827-4.173L32,40
	l6.827,6.827C38.297,48.115,38,49.523,38,51c0,6.065,4.935,11,11,11s11-4.935,11-11S55.065,40,49,40z M15,58c-3.86,0-7-3.141-7-7
	s3.14-7,7-7s7,3.141,7,7S18.86,58,15,58z M49,58c-3.86,0-7-3.141-7-7s3.14-7,7-7s7,3.141,7,7S52.86,58,49,58z"/>
</svg>
