<?xml version="1.0" encoding="utf-8"?>
<!-- Generator: Adobe Illustrator 19.2.1, SVG Export Plug-In . SVG Version: 6.00 Build 0)  -->
<!DOCTYPE svg PUBLIC "-//W3C//DTD SVG 1.1//EN" "http://www.w3.org/Graphics/SVG/1.1/DTD/svg11.dtd">
<svg version="1.1" id="Layer_1" xmlns="http://www.w3.org/2000/svg" xmlns:xlink="http://www.w3.org/1999/xlink" x="0px" y="0px"
	 width="64px" height="64px" viewBox="0 0 64 64" enable-background="new 0 0 64 64" xml:space="preserve">
<path d="M54,2L33.317,26.13l5.794,6.759l12.643-12.643C56.6,15.4,57.526,7.877,54,2z"/>
<path d="M49,62c6.065,0,11-4.935,11-11s-4.935-11-11-11c-1.909,0-3.705,0.49-5.272,1.35L10,2c-3.526,5.877-2.6,13.4,2.246,18.246
	l14.061,14.061l-6.036,7.042C18.705,40.49,16.909,40,15,40C8.935,40,4,44.935,4,51s4.935,11,11,11s11-4.935,11-11
	c0-1.477-0.297-2.885-0.827-4.173L32,40l6.827,6.827C38.297,48.115,38,49.523,38,51C38,57.065,42.935,62,49,62z M49,44
	c3.86,0,7,3.141,7,7s-3.14,7-7,7s-7-3.141-7-7S45.14,44,49,44z M15,58c-3.86,0-7-3.141-7-7s3.14-7,7-7s7,3.141,7,7S18.86,58,15,58z"
	/>
</svg>
