<?xml version="1.0" encoding="utf-8"?>
<!-- Generator: Adobe Illustrator 19.2.1, SVG Export Plug-In . SVG Version: 6.00 Build 0)  -->
<!DOCTYPE svg PUBLIC "-//W3C//DTD SVG 1.1//EN" "http://www.w3.org/Graphics/SVG/1.1/DTD/svg11.dtd">
<svg version="1.1" id="Layer_1" xmlns="http://www.w3.org/2000/svg" xmlns:xlink="http://www.w3.org/1999/xlink" x="0px" y="0px"
	 width="64px" height="64px" viewBox="0 0 64 64" enable-background="new 0 0 64 64" xml:space="preserve">
<path fill="#222221" d="M39,63h16c2.209,0,4-1.791,4-4V29c0-2.209-1.791-4-4-4H39c-2.209,0-4,1.791-4,4v30
	C35,61.209,36.791,63,39,63z M47,60c-1.105,0-2-0.895-2-2c0-1.105,0.895-2,2-2s2,0.895,2,2C49,59.105,48.105,60,47,60z M39,30
	c0-0.552,0.448-1,1-1h14c0.552,0,1,0.448,1,1v22c0,0.552-0.448,1-1,1H40c-0.552,0-1-0.448-1-1V30z"/>
<path fill="#222221" d="M12,7h30c0.552,0,1,0.448,1,1v15h6V7c0-3.314-2.686-6-6-6H11C7.686,1,5,3.686,5,7v46c0,3.314,2.686,6,6,6h22
	V47H12c-0.552,0-1-0.448-1-1V8C11,7.448,11.448,7,12,7z M27,50c1.657,0,3,1.343,3,3s-1.343,3-3,3s-3-1.343-3-3S25.343,50,27,50z"/>
</svg>
