<?xml version="1.0" encoding="utf-8"?>
<!-- Generator: Adobe Illustrator 19.2.1, SVG Export Plug-In . SVG Version: 6.00 Build 0)  -->
<!DOCTYPE svg PUBLIC "-//W3C//DTD SVG 1.1//EN" "http://www.w3.org/Graphics/SVG/1.1/DTD/svg11.dtd">
<svg version="1.1" id="Layer_1" xmlns="http://www.w3.org/2000/svg" xmlns:xlink="http://www.w3.org/1999/xlink" x="0px" y="0px"
	 width="64px" height="64px" viewBox="0 0 64 64" enable-background="new 0 0 64 64" xml:space="preserve">
<path fill="#222221" d="M36,1h-8c-0.552,0-1,0.448-1,1v3H7C6.448,5,6,5.448,6,6v40c0,0.552,0.448,1,1,1h13.64l-4.594,14.702
	c-0.165,0.527,0.129,1.088,0.656,1.253C16.801,62.985,16.901,63,17,63c0.426,0,0.82-0.274,0.954-0.702L20.235,55h23.529l2.281,7.298
	C46.179,62.726,46.574,63,47,63c0.099,0,0.2-0.015,0.299-0.046c0.527-0.165,0.821-0.726,0.656-1.253L43.36,47H57
	c0.552,0,1-0.448,1-1V6c0-0.552-0.448-1-1-1H37V2C37,1.448,36.552,1,36,1z M43.14,53H20.86l1.875-6h18.529L43.14,53z M56,34
	L42.67,22.574c-0.383-0.328-0.95-0.32-1.323,0.019L31,32l4,7L18.581,26.445c-0.346-0.265-0.824-0.275-1.181-0.025L8,33V7h20h8h20V34
	z"/>
<circle fill="#222221" cx="26" cy="18" r="5"/>
</svg>
