<?xml version="1.0" encoding="utf-8"?>
<!-- Generator: Adobe Illustrator 19.2.1, SVG Export Plug-In . SVG Version: 6.00 Build 0)  -->
<!DOCTYPE svg PUBLIC "-//W3C//DTD SVG 1.1//EN" "http://www.w3.org/Graphics/SVG/1.1/DTD/svg11.dtd">
<svg version="1.1" id="Layer_1" xmlns="http://www.w3.org/2000/svg" xmlns:xlink="http://www.w3.org/1999/xlink" x="0px" y="0px"
	 width="64px" height="64px" viewBox="0 0 64 64" enable-background="new 0 0 64 64" xml:space="preserve">
<path d="M42.76,19C41.297,8.841,32.558,1,22,1C10.42,1,1,10.421,1,22c0,10.558,7.84,19.297,18,20.76V23c0-2.206,1.794-4,4-4H42.76z"
	/>
<path d="M61,21H23c-1.105,0-2,0.895-2,2v38c0,1.105,0.895,2,2,2h38c1.105,0,2-0.895,2-2V23C63,21.895,62.105,21,61,21z"/>
</svg>
