<?xml version="1.0" encoding="utf-8"?>
<!-- Generator: Adobe Illustrator 19.2.1, SVG Export Plug-In . SVG Version: 6.00 Build 0)  -->
<!DOCTYPE svg PUBLIC "-//W3C//DTD SVG 1.1//EN" "http://www.w3.org/Graphics/SVG/1.1/DTD/svg11.dtd">
<svg version="1.1" id="Layer_1" xmlns="http://www.w3.org/2000/svg" xmlns:xlink="http://www.w3.org/1999/xlink" x="0px" y="0px"
	 width="64px" height="64px" viewBox="0 0 64 64" enable-background="new 0 0 64 64" xml:space="preserve">
<path d="M62,5H2C1.448,5,1,5.447,1,6v52c0,0.553,0.448,1,1,1h60c0.552,0,1-0.447,1-1V6C63,5.447,62.552,5,62,5z M61,57H3V7h58V57z"
	/>
<circle cx="27" cy="21" r="5"/>
<path d="M6,55h52c0.369,0,0.708-0.203,0.882-0.528c0.174-0.325,0.155-0.72-0.05-1.026l-16-24c-0.174-0.261-0.459-0.425-0.772-0.443
	c-0.313-0.019-0.616,0.109-0.819,0.348l-9.606,11.206l4.449,6.986L20.625,35.219c-0.209-0.168-0.479-0.245-0.742-0.212
	c-0.266,0.031-0.508,0.168-0.672,0.379l-14,18c-0.234,0.302-0.276,0.711-0.109,1.054C5.27,54.782,5.618,55,6,55z"/>
</svg>
