<?xml version="1.0" encoding="utf-8"?>
<!-- Generator: Adobe Illustrator 19.2.1, SVG Export Plug-In . SVG Version: 6.00 Build 0)  -->
<!DOCTYPE svg PUBLIC "-//W3C//DTD SVG 1.1//EN" "http://www.w3.org/Graphics/SVG/1.1/DTD/svg11.dtd">
<svg version="1.1" id="Layer_1" xmlns="http://www.w3.org/2000/svg" xmlns:xlink="http://www.w3.org/1999/xlink" x="0px" y="0px"
	 width="64px" height="64px" viewBox="0 0 64 64" enable-background="new 0 0 64 64" xml:space="preserve">
<path d="M21.293,9.292c-0.391,0.391-0.391,1.023,0,1.414l4,4C25.488,14.902,25.744,15,26,15s0.512-0.098,0.707-0.293
	c0.391-0.391,0.391-1.023,0-1.414l-4-4C22.316,8.902,21.684,8.902,21.293,9.292z"/>
<path d="M37,3v6c0,0.552,0.448,1,1,1s1-0.448,1-1V3c0-0.552-0.448-1-1-1S37,2.448,37,3z"/>
<path d="M54.707,9.292c-0.391-0.391-1.023-0.391-1.414,0l-4,4c-0.391,0.391-0.391,1.023,0,1.414C49.488,14.902,49.744,15,50,15
	s0.512-0.098,0.707-0.293l4-4C55.098,10.316,55.098,9.683,54.707,9.292z"/>
<path d="M61,25h-6c-0.552,0-1,0.448-1,1s0.448,1,1,1h6c0.552,0,1-0.448,1-1S61.552,25,61,25z"/>
<path d="M49.293,37.292c-0.391,0.391-0.391,1.023,0,1.414l4,4C53.488,42.902,53.744,43,54,43s0.512-0.098,0.707-0.293
	c0.391-0.391,0.391-1.023,0-1.414l-4-4C50.316,36.902,49.684,36.902,49.293,37.292z"/>
<path d="M11.293,61.707C11.488,61.902,11.744,62,12,62s0.512-0.098,0.707-0.293L39.5,34.914L29.086,24.5L2.293,51.293
	c-0.391,0.391-0.391,1.023,0,1.414L11.293,61.707z"/>
<path d="M48.707,25.707c0.391-0.391,0.391-1.023,0-1.414l-9-9c-0.391-0.391-1.023-0.391-1.414,0L30.5,23.086L40.914,33.5
	L48.707,25.707z"/>
</svg>
