<?xml version="1.0" encoding="utf-8"?>
<!-- Generator: Adobe Illustrator 19.2.1, SVG Export Plug-In . SVG Version: 6.00 Build 0)  -->
<!DOCTYPE svg PUBLIC "-//W3C//DTD SVG 1.1//EN" "http://www.w3.org/Graphics/SVG/1.1/DTD/svg11.dtd">
<svg version="1.1" id="Layer_1" xmlns="http://www.w3.org/2000/svg" xmlns:xlink="http://www.w3.org/1999/xlink" x="0px" y="0px"
	 width="64px" height="64px" viewBox="0 0 64 64" enable-background="new 0 0 64 64" xml:space="preserve">
<path d="M58.998,23.937c-0.017-0.267-0.14-0.516-0.342-0.691l-9.117-7.929l-9.256,30.076l18.463-20.727
	C58.924,24.466,59.015,24.203,58.998,23.937z"/>
<path d="M48.293,9.167L37,5.692v43.571l11.955-38.846c0.078-0.253,0.052-0.527-0.072-0.762S48.547,9.245,48.293,9.167z"/>
<path d="M33,1H11C9.895,1,9,1.895,9,3v36h26V3C35,1.895,34.105,1,33,1z"/>
<path d="M9,61c0,1.105,0.895,2,2,2h22c1.105,0,2-0.895,2-2V41H9V61z M22,49c1.654,0,3,1.346,3,3s-1.346,3-3,3s-3-1.346-3-3
	S20.346,49,22,49z"/>
</svg>
