<?xml version="1.0" encoding="utf-8"?>
<!-- Generator: Adobe Illustrator 19.2.1, SVG Export Plug-In . SVG Version: 6.00 Build 0)  -->
<!DOCTYPE svg PUBLIC "-//W3C//DTD SVG 1.1//EN" "http://www.w3.org/Graphics/SVG/1.1/DTD/svg11.dtd">
<svg version="1.1" id="Layer_1" xmlns="http://www.w3.org/2000/svg" xmlns:xlink="http://www.w3.org/1999/xlink" x="0px" y="0px"
	 width="64px" height="64px" viewBox="0 0 64 64" enable-background="new 0 0 64 64" xml:space="preserve">
<path d="M7.177,45.406C6.647,46.173,2,52.987,2,55.974c0,3.309,2.691,6,6,6s6-2.691,6-6c0-2.987-4.647-9.801-5.177-10.568
	C8.448,44.865,7.552,44.865,7.177,45.406z"/>
<path d="M37,29h7h2c7.168,0,13-5.832,13-13S53.168,3,46,3h-8.019c-0.092-0.124-0.406-0.513-0.414-0.521
	c-3.834-3.836-13.889,0.205-22.887,9.202C5.685,20.678,1.643,30.73,5.479,34.567c0.051,0.051,0.646,0.532,0.93,0.697L36.213,57.12
	c0.669,0.634,1.59,0.95,2.716,0.95c1.274,0,2.811-0.404,4.54-1.212c3-1.4,6.351-3.87,9.436-6.954
	c5.759-5.759,10.217-13.537,7.216-16.691l-4.317-5.887C53.174,29.611,49.75,31,46,31h-9c-0.552,0-1-0.448-1-1
	C36,29.448,36.448,29,37,29z M46,5c6.065,0,11,4.935,11,11c0,3.2-1.382,6.077-3.571,8.088L39.431,5H46z M26.95,23.951
	C20.03,30.87,10.093,36.35,6.893,33.153c-3.198-3.199,2.283-13.138,9.202-20.058c5.528-5.528,12.983-10.138,17.39-10.138
	c1.109,0,2.025,0.292,2.669,0.936C39.352,7.092,33.87,17.031,26.95,23.951z"/>
</svg>
