<?xml version="1.0" encoding="utf-8"?>
<!-- Generator: Adobe Illustrator 19.2.1, SVG Export Plug-In . SVG Version: 6.00 Build 0)  -->
<!DOCTYPE svg PUBLIC "-//W3C//DTD SVG 1.1//EN" "http://www.w3.org/Graphics/SVG/1.1/DTD/svg11.dtd">
<svg version="1.1" id="Layer_1" xmlns="http://www.w3.org/2000/svg" xmlns:xlink="http://www.w3.org/1999/xlink" x="0px" y="0px"
	 width="64px" height="64px" viewBox="0 0 64 64" enable-background="new 0 0 64 64" xml:space="preserve">
<path d="M60.944,59.643l-1.883-11.299L48.333,59.071l11.492,1.915C59.881,60.996,59.935,61,59.99,61c0.005,0,0.011,0,0.02,0
	c0.552,0,1-0.448,1-1C61.01,59.874,60.987,59.753,60.944,59.643z"/>
<path d="M8.576,20L19.99,8.586l-5.293-5.293c-0.391-0.391-1.023-0.391-1.414,0l-10,10c-0.391,0.391-0.391,1.023,0,1.414L8.576,20z"
	/>
<path d="M32.293,21.707L30.586,20L26,24.586l3.707,3.707c0.391,0.391,0.391,1.023,0,1.414s-1.023,0.391-1.414,0L24.586,26L20,30.586
	l1.707,1.707c0.391,0.391,0.391,1.023,0,1.414s-1.023,0.391-1.414,0L18.586,32L14,36.586l3.707,3.707
	c0.391,0.391,0.391,1.023,0,1.414s-1.023,0.391-1.414,0L12.586,38l-9.293,9.293c-0.391,0.391-0.391,1.023,0,1.414l12,12
	C15.488,60.902,15.744,61,16,61s0.512-0.098,0.707-0.293l44-44c0.391-0.391,0.391-1.023,0-1.414l-12-12
	c-0.391-0.391-1.023-0.391-1.414,0L38,12.586l3.707,3.707c0.391,0.391,0.391,1.023,0,1.414s-1.023,0.391-1.414,0L36.586,14
	L32,18.586l1.707,1.707c0.391,0.391,0.391,1.023,0,1.414S32.684,22.098,32.293,21.707z M50.5,15c1.378,0,2.5,1.122,2.5,2.5
	S51.878,20,50.5,20S48,18.878,48,17.5S49.122,15,50.5,15z"/>
<rect x="38.129" y="37.606" transform="matrix(0.7071 -0.7071 0.7071 0.7071 -19.1435 46.2025)" width="16.142" height="17.207"/>
<rect x="11.715" y="14.014" transform="matrix(0.7071 -0.7071 0.7071 0.7071 -8.2025 19.7884)" width="16.142" height="11.564"/>
</svg>
