<?xml version="1.0" encoding="utf-8"?>
<!-- Generator: Adobe Illustrator 19.2.1, SVG Export Plug-In . SVG Version: 6.00 Build 0)  -->
<!DOCTYPE svg PUBLIC "-//W3C//DTD SVG 1.1//EN" "http://www.w3.org/Graphics/SVG/1.1/DTD/svg11.dtd">
<svg version="1.1" id="Layer_1" xmlns="http://www.w3.org/2000/svg" xmlns:xlink="http://www.w3.org/1999/xlink" x="0px" y="0px"
	 width="64px" height="64px" viewBox="0 0 64 64" enable-background="new 0 0 64 64" xml:space="preserve">
<path d="M4,47h31v-6H14c-0.552,0-1-0.448-1-1V8c0-0.552,0.448-1,1-1h38c0.552,0,1,0.448,1,1v15h6V4c0-1.657-1.343-3-3-3H4
	C2.343,1,1,2.343,1,4v40C1,45.657,2.343,47,4,47z M7,22c1.105,0,2,0.895,2,2c0,1.105-0.895,2-2,2s-2-0.895-2-2
	C5,22.895,5.895,22,7,22z"/>
<path d="M60,25H40c-1.657,0-3,1.343-3,3v32c0,1.657,1.343,3,3,3h20c1.657,0,3-1.343,3-3V28C63,26.343,61.657,25,60,25z M50,60
	c-1.105,0-2-0.895-2-2c0-1.105,0.895-2,2-2s2,0.895,2,2C52,59.105,51.105,60,50,60z M59,52c0,0.552-0.448,1-1,1H42
	c-0.552,0-1-0.448-1-1V30c0-0.552,0.448-1,1-1h16c0.552,0,1,0.448,1,1V52z"/>
</svg>
