<?xml version="1.0" encoding="utf-8"?>
<!-- Generator: Adobe Illustrator 19.2.1, SVG Export Plug-In . SVG Version: 6.00 Build 0)  -->
<!DOCTYPE svg PUBLIC "-//W3C//DTD SVG 1.1//EN" "http://www.w3.org/Graphics/SVG/1.1/DTD/svg11.dtd">
<svg version="1.1" id="Layer_1" xmlns="http://www.w3.org/2000/svg" xmlns:xlink="http://www.w3.org/1999/xlink" x="0px" y="0px"
	 width="64px" height="64px" viewBox="0 0 64 64" enable-background="new 0 0 64 64" xml:space="preserve">
<path fill="#222221" d="M6,1C5.448,1,5,1.448,5,2v33c0,0.552,0.448,1,1,1h21c0.552,0,1-0.448,1-1V2c0-0.552-0.448-1-1-1H6z"/>
<path fill="#222221" d="M5,62c0,0.552,0.448,1,1,1h21c0.552,0,1-0.448,1-1V45c0-0.552-0.448-1-1-1H6c-0.552,0-1,0.448-1,1V62z"/>
<path fill="#222221" d="M36,2v17c0,0.552,0.448,1,1,1h21c0.552,0,1-0.448,1-1V2c0-0.552-0.448-1-1-1H37C36.448,1,36,1.448,36,2z"/>
<path fill="#222221" d="M37,63h21c0.552,0,1-0.448,1-1V29c0-0.552-0.448-1-1-1H37c-0.552,0-1,0.448-1,1v33
	C36,62.552,36.448,63,37,63z"/>
</svg>
