<?xml version="1.0" encoding="utf-8"?>
<!-- Generator: Adobe Illustrator 19.2.1, SVG Export Plug-In . SVG Version: 6.00 Build 0)  -->
<!DOCTYPE svg PUBLIC "-//W3C//DTD SVG 1.1//EN" "http://www.w3.org/Graphics/SVG/1.1/DTD/svg11.dtd">
<svg version="1.1" id="Layer_1" xmlns="http://www.w3.org/2000/svg" xmlns:xlink="http://www.w3.org/1999/xlink" x="0px" y="0px"
	 width="64px" height="64px" viewBox="0 0 64 64" enable-background="new 0 0 64 64" xml:space="preserve">
<path d="M42,59h-5v-5H27v5h-5c-0.553,0-1,0.447-1,1s0.447,1,1,1h20c0.553,0,1-0.447,1-1S42.553,59,42,59z"/>
<path d="M3,10h28V8H2C1.447,8,1,8.447,1,9v40c0,0.553,0.447,1,1,1h3v-2H3V10z"/>
<path d="M62,8h-3v2h2v38H25v2h37c0.553,0,1-0.447,1-1V9C63,8.447,62.553,8,62,8z"/>
<path d="M23,54V32c0-1.103-0.897-2-2-2H9c-1.103,0-2,0.897-2,2v22c0,1.103,0.897,2,2,2h12C22.103,56,23,55.103,23,54z M15,53
	c-1.105,0-2-0.895-2-2c0-1.105,0.895-2,2-2s2,0.895,2,2C17,52.105,16.105,53,15,53z"/>
<path d="M33,4v28c0,1.103,0.897,2,2,2h20c1.103,0,2-0.897,2-2V4c0-1.103-0.897-2-2-2H35C33.897,2,33,2.897,33,4z M45,26
	c1.105,0,2,0.895,2,2c0,1.105-0.895,2-2,2s-2-0.895-2-2C43,26.895,43.895,26,45,26z"/>
</svg>
