<?xml version="1.0" encoding="utf-8"?>
<!-- Generator: Adobe Illustrator 19.2.1, SVG Export Plug-In . SVG Version: 6.00 Build 0)  -->
<!DOCTYPE svg PUBLIC "-//W3C//DTD SVG 1.1//EN" "http://www.w3.org/Graphics/SVG/1.1/DTD/svg11.dtd">
<svg version="1.1" id="Layer_1" xmlns="http://www.w3.org/2000/svg" xmlns:xlink="http://www.w3.org/1999/xlink" x="0px" y="0px"
	 width="64px" height="64px" viewBox="0 0 64 64" enable-background="new 0 0 64 64" xml:space="preserve">
<path d="M26,2c0-0.552-0.447-1-1-1s-1,0.448-1,1v9h2V2z"/>
<path d="M33,2c0-0.552-0.447-1-1-1s-1,0.448-1,1v9h2V2z"/>
<path d="M40,2c0-0.552-0.447-1-1-1s-1,0.448-1,1v9h2V2z"/>
<path d="M62,26c0.552,0,1-0.447,1-1s-0.448-1-1-1h-9v2H62z"/>
<path d="M62,33c0.552,0,1-0.447,1-1s-0.448-1-1-1h-9v2H62z"/>
<path d="M62,40c0.552,0,1-0.447,1-1s-0.448-1-1-1h-9v2H62z"/>
<path d="M38,62c0,0.552,0.447,1,1,1s1-0.448,1-1v-9h-2V62z"/>
<path d="M31,62c0,0.552,0.447,1,1,1s1-0.448,1-1v-9h-2V62z"/>
<path d="M24,62c0,0.552,0.447,1,1,1s1-0.448,1-1v-9h-2V62z"/>
<path d="M2,38c-0.552,0-1,0.447-1,1s0.448,1,1,1h9v-2H2z"/>
<path d="M2,31c-0.552,0-1,0.447-1,1s0.448,1,1,1h9v-2H2z"/>
<path d="M2,24c-0.552,0-1,0.447-1,1s0.448,1,1,1h9v-2H2z"/>
<path d="M47,26c-0.552,0-1-0.447-1-1s0.448-1,1-1h6V13c0-1.105-0.895-2-2-2H40v6c0,0.552-0.447,1-1,1s-1-0.448-1-1v-6h-5v6
	c0,0.552-0.447,1-1,1s-1-0.448-1-1v-6h-5v6c0,0.552-0.447,1-1,1s-1-0.448-1-1v-6H13c-1.105,0-2,0.895-2,2v11h6c0.552,0,1,0.447,1,1
	s-0.448,1-1,1h-6v5h6c0.552,0,1,0.447,1,1s-0.448,1-1,1h-6v5h6c0.552,0,1,0.447,1,1s-0.448,1-1,1h-6v11c0,1.105,0.895,2,2,2h11v-6
	c0-0.552,0.447-1,1-1s1,0.448,1,1v6h5v-6c0-0.552,0.447-1,1-1s1,0.448,1,1v6h5v-6c0-0.552,0.447-1,1-1s1,0.448,1,1v6h11
	c1.105,0,2-0.895,2-2V40h-6c-0.552,0-1-0.447-1-1s0.448-1,1-1h6v-5h-6c-0.552,0-1-0.447-1-1s0.448-1,1-1h6v-5H47z"/>
</svg>
