<?xml version="1.0" encoding="utf-8"?>
<!-- Generator: Adobe Illustrator 19.2.1, SVG Export Plug-In . SVG Version: 6.00 Build 0)  -->
<!DOCTYPE svg PUBLIC "-//W3C//DTD SVG 1.1//EN" "http://www.w3.org/Graphics/SVG/1.1/DTD/svg11.dtd">
<svg version="1.1" id="Layer_1" xmlns="http://www.w3.org/2000/svg" xmlns:xlink="http://www.w3.org/1999/xlink" x="0px" y="0px"
	 width="64px" height="64px" viewBox="0 0 64 64" enable-background="new 0 0 64 64" xml:space="preserve">
<path d="M62,6H2C1.447,6,1,6.448,1,7s0.447,1,1,1h60c0.553,0,1-0.448,1-1S62.553,6,62,6z"/>
<path d="M51,58c1.105,0,2-0.895,2-2V16c0-1.105-0.895-2-2-2H39c-1.105,0-2,0.895-2,2v40c0,1.105,0.895,2,2,2H51z"/>
<path d="M25,40c1.105,0,2-0.895,2-2V16c0-1.105-0.895-2-2-2H13c-1.105,0-2,0.895-2,2v22c0,1.105,0.895,2,2,2H25z"/>
</svg>
