<?xml version="1.0" encoding="utf-8"?>
<!-- Generator: Adobe Illustrator 19.2.1, SVG Export Plug-In . SVG Version: 6.00 Build 0)  -->
<!DOCTYPE svg PUBLIC "-//W3C//DTD SVG 1.1//EN" "http://www.w3.org/Graphics/SVG/1.1/DTD/svg11.dtd">
<svg version="1.1" id="Layer_1" xmlns="http://www.w3.org/2000/svg" xmlns:xlink="http://www.w3.org/1999/xlink" x="0px" y="0px"
	 width="64px" height="64px" viewBox="0 0 64 64" enable-background="new 0 0 64 64" xml:space="preserve">
<path d="M15,51h34c1.105,0,2-0.895,2-2V15c0-1.105-0.895-2-2-2H15c-1.105,0-2,0.895-2,2v34C13,50.105,13.895,51,15,51z"/>
<path d="M2,15h6c0.553,0,1-0.448,1-1s-0.447-1-1-1H2c-0.553,0-1,0.448-1,1S1.447,15,2,15z"/>
<path d="M2,51h6c0.553,0,1-0.448,1-1s-0.447-1-1-1H2c-0.553,0-1,0.448-1,1S1.447,51,2,51z"/>
<path d="M56,15h6c0.553,0,1-0.448,1-1s-0.447-1-1-1h-6c-0.553,0-1,0.448-1,1S55.447,15,56,15z"/>
<path d="M62,49h-6c-0.553,0-1,0.448-1,1s0.447,1,1,1h6c0.553,0,1-0.448,1-1S62.553,49,62,49z"/>
<path d="M14,9c0.553,0,1-0.448,1-1V2c0-0.552-0.447-1-1-1s-1,0.448-1,1v6C13,8.552,13.447,9,14,9z"/>
<path d="M50,1c-0.553,0-1,0.448-1,1v6c0,0.552,0.447,1,1,1s1-0.448,1-1V2C51,1.448,50.553,1,50,1z"/>
<path d="M14,63c0.553,0,1-0.448,1-1v-6c0-0.552-0.447-1-1-1s-1,0.448-1,1v6C13,62.552,13.447,63,14,63z"/>
<path d="M51,62v-6c0-0.552-0.447-1-1-1s-1,0.448-1,1v6c0,0.552,0.447,1,1,1S51,62.552,51,62z"/>
</svg>
