<?xml version="1.0" encoding="utf-8"?>
<!-- Generator: Adobe Illustrator 19.2.1, SVG Export Plug-In . SVG Version: 6.00 Build 0)  -->
<!DOCTYPE svg PUBLIC "-//W3C//DTD SVG 1.1//EN" "http://www.w3.org/Graphics/SVG/1.1/DTD/svg11.dtd">
<svg version="1.1" id="Layer_1" xmlns="http://www.w3.org/2000/svg" xmlns:xlink="http://www.w3.org/1999/xlink" x="0px" y="0px"
	 width="64px" height="64px" viewBox="0 0 64 64" enable-background="new 0 0 64 64" xml:space="preserve">
<path d="M47,2H17c-1.105,0-2,0.895-2,2v9h34V4C49,2.895,48.105,2,47,2z"/>
<path d="M17,62h30c1.105,0,2-0.895,2-2v-9H15v9C15,61.105,15.895,62,17,62z"/>
<path d="M13,16v32c0,0.552,0.448,1,1,1h36c0.552,0,1-0.448,1-1V16c0-0.552-0.448-1-1-1H14C13.448,15,13,15.448,13,16z M21,30
	c0-0.552,0.448-1,1-1s1,0.448,1,1v10c0,0.552-0.448,1-1,1s-1-0.448-1-1V30z"/>
</svg>
