<?xml version="1.0" encoding="utf-8"?>
<!-- Generator: Adobe Illustrator 19.2.1, SVG Export Plug-In . SVG Version: 6.00 Build 0)  -->
<!DOCTYPE svg PUBLIC "-//W3C//DTD SVG 1.1//EN" "http://www.w3.org/Graphics/SVG/1.1/DTD/svg11.dtd">
<svg version="1.1" id="Layer_1" xmlns="http://www.w3.org/2000/svg" xmlns:xlink="http://www.w3.org/1999/xlink" x="0px" y="0px"
	 width="64px" height="64px" viewBox="0 0 64 64" enable-background="new 0 0 64 64" xml:space="preserve">
<path fill="#222221" d="M62.793,26.562c-0.136-0.954-0.634-2.641-0.634-2.641s-0.543,1.429-1.221,3.719
	c1.072-10.055-4.302-16.121-5.587-16.831c0,0,0.064,0.346,0.175,0.956c-1.681-2.642-4.239-3.884-4.239-3.884
	s0.077,0.439,0.202,1.348C46.242,4.731,39.437,2,32,2c-8.819,0-16.748,3.836-22.241,9.915c-1.467-1.881-1.586-4.345-1.586-4.345
	s-3.866,3.855-3.125,10.916C3.551,20.608,2.149,23.132,1,29.613c0,0,0.003-0.01,0.009-0.027c-0.002,0.013-0.005,0.025-0.007,0.037
	c0,0,0.02-0.063,0.058-0.174c-0.009,0.049-0.018,0.095-0.027,0.145c0,0,0.004-0.011,0.009-0.027
	c-0.002,0.012-0.004,0.024-0.007,0.037c0,0,0.063-0.2,0.189-0.537c0.002-0.01,0.004-0.019,0.005-0.029
	c0.225-0.6,0.644-1.62,1.256-2.736C2.483,26.31,2.48,26.32,2.477,26.329c-0.006,0.012-0.013,0.023-0.019,0.035
	c0.006-0.011,0.013-0.023,0.019-0.034c-0.726,2.296-1.283,5.822-0.946,11.057c0-0.003,0.001-0.008,0.001-0.011
	c0,0.007,0.001,0.014,0.001,0.021c0.003-0.032,0.01-0.105,0.022-0.211c0.003,0.057,0.006,0.113,0.01,0.171
	c0-0.003,0.001-0.009,0.001-0.012c0,0.008,0.001,0.015,0.001,0.023c0.006-0.077,0.039-0.372,0.106-0.829
	c0-0.007-0.001-0.013-0.001-0.02c0.089-0.6,0.236-1.476,0.462-2.502c0.248,4.546,1.494,8.701,3.802,12.651
	c2.106,3.608,7.193,11.602,21.466,15.088c-1.137-0.31-2.363-1.297-2.363-1.297c2.332,0.748,6.505,1.657,8.957,1.53
	c-0.309-0.147-1.385-0.781-1.385-0.781c8.181,0.459,17.579-2.334,18.75-6.821c0.571-0.296,1.156-0.639,1.758-1.048
	c3.723-2.527,8.417-8.241,6.915-12.298C62.265,36.602,63.521,31.328,62.793,26.562z M52.636,28.615
	c-1.186-3.026-2.81-4.283-2.81-4.283c0.538,6.149,0.699,8.344-0.423,12.723c-0.326-1.411-0.766-2.198-0.766-2.198
	c-0.471,5.203-3.907,11.292-5.442,10.238c-0.001-0.002-0.006-0.005-0.006-0.005c0.044-0.379,0.083-0.777-0.018-1.031
	c0,0-0.714,0.389-1.149,0.968c-0.542,0.723-2.332,2.319-2.738,2.037c0.378-0.116,0.68-0.597,0.762-1.07
	c-2.176,1.521-6.801,2.151-11.781-0.34c0.653-0.075,1.631-0.305,2.376,0.136c-0.745-0.814-2.545-0.645-3.836-1.052
	c-1.123-0.355-2.588-1.93-3.432-2.728c0.025,0.006,3.465,1.011,7.422-0.315c0.686-0.23,1.297-0.547,1.816-0.906
	c1.426-0.987,3.478-2.444,4.42-2.29c0.037,0.005,0.074,0.008,0.111,0.017c1.135,0.254,1.892-0.886,1.008-1.899
	c-0.881-1.013-3.218-2.93-5.928-1.646c-7.443,3.525-12.409-1.686-11.548-4.741c0.161-0.574,0.775-1.334,1.036-1.384
	c1.445-0.192,2.711,0.969,2.711,0.969s0.696-2.134,0.15-4.002c1.258-1.582,5.686-2.985,6.597-5.21
	c0.216-0.527,0.46-1.765-0.246-2.024c-1.173-0.281-3.959-0.29-4.989-0.282c-1.962,0.016-2.876-1.69-3.178-2.412
	c-0.001,0.003-0.001,0.005-0.002,0.008c-0.003-0.007-0.006-0.014-0.009-0.021c0.569-2.064,1.17-3.412,4.178-5.894
	c-5.165-0.753-8.148,3.368-8.15,3.373c-2.782-0.691-5.144-0.524-7.118,0.108c-0.002-0.002-0.005-0.003-0.008-0.005
	c-0.138-0.066-0.262-0.143-0.389-0.219C16.381,7.572,23.777,4,32,4c4.679,0,9.087,1.164,12.967,3.203
	c4.067,3.093,5.807,5.793,6.964,8.233c-1.527-1.562-4.142-3.192-5.908-3.328C48.655,14.066,53.047,19.852,52.636,28.615z"/>
</svg>
