<?xml version="1.0" encoding="utf-8"?>
<!-- Generator: Adobe Illustrator 19.2.1, SVG Export Plug-In . SVG Version: 6.00 Build 0)  -->
<!DOCTYPE svg PUBLIC "-//W3C//DTD SVG 1.1//EN" "http://www.w3.org/Graphics/SVG/1.1/DTD/svg11.dtd">
<svg version="1.1" id="Layer_1" xmlns="http://www.w3.org/2000/svg" xmlns:xlink="http://www.w3.org/1999/xlink" x="0px" y="0px"
	 width="64px" height="64px" viewBox="0 0 64 64" enable-background="new 0 0 64 64" xml:space="preserve">
<path d="M32,63c0.552,0,1-0.447,1-1v-9h19c1.105,0,2-0.895,2-2V39c0-1.105-0.895-2-2-2H33V27h10c1.105,0,2-0.895,2-2V13
	c0-1.105-0.895-2-2-2H33V2c0-0.553-0.448-1-1-1s-1,0.447-1,1v9H21c-1.105,0-2,0.895-2,2v12c0,1.105,0.895,2,2,2h10v10H12
	c-1.105,0-2,0.895-2,2v12c0,1.105,0.895,2,2,2h19v9C31,62.553,31.448,63,32,63z"/>
</svg>
