<?xml version="1.0" encoding="utf-8"?>
<!-- Generator: Adobe Illustrator 19.2.1, SVG Export Plug-In . SVG Version: 6.00 Build 0)  -->
<!DOCTYPE svg PUBLIC "-//W3C//DTD SVG 1.1//EN" "http://www.w3.org/Graphics/SVG/1.1/DTD/svg11.dtd">
<svg version="1.1" id="Layer_1" xmlns="http://www.w3.org/2000/svg" xmlns:xlink="http://www.w3.org/1999/xlink" x="0px" y="0px"
	 width="64px" height="64px" viewBox="0 0 64 64" enable-background="new 0 0 64 64" xml:space="preserve">
<path d="M60,2H8C7.447,2,7,2.448,7,3v14c0,0.552,0.447,1,1,1h52c0.553,0,1-0.448,1-1V3C61,2.448,60.553,2,60,2z"/>
<path d="M4,8C3.447,8,3,8.448,3,9v13c0,2.206,1.794,4,4,4h23c1.103,0,2,0.897,2,2v8h-4c-0.553,0-1,0.448-1,1v24c0,0.552,0.447,1,1,1
	h10c0.553,0,1-0.448,1-1V37c0-0.552-0.447-1-1-1h-4v-8c0-2.206-1.794-4-4-4H7c-1.103,0-2-0.897-2-2V9C5,8.448,4.553,8,4,8z"/>
<path d="M55.177,27.432C54.647,28.199,50,35.013,50,38c0,3.309,2.691,6,6,6s6-2.691,6-6c0-2.987-4.647-9.801-5.177-10.568
	C56.448,26.891,55.552,26.891,55.177,27.432z"/>
</svg>
