<?xml version="1.0" encoding="utf-8"?>
<!-- Generator: Adobe Illustrator 19.2.1, SVG Export Plug-In . SVG Version: 6.00 Build 0)  -->
<!DOCTYPE svg PUBLIC "-//W3C//DTD SVG 1.1//EN" "http://www.w3.org/Graphics/SVG/1.1/DTD/svg11.dtd">
<svg version="1.1" id="Layer_1" xmlns="http://www.w3.org/2000/svg" xmlns:xlink="http://www.w3.org/1999/xlink" x="0px" y="0px"
	 width="64px" height="64px" viewBox="0 0 64 64" enable-background="new 0 0 64 64" xml:space="preserve">
<path d="M30.5,19.085l7.464-7.464c0.391-0.391,0.391-1.023,0-1.414L30.05,2.293c-0.391-0.391-1.023-0.391-1.414,0l-7.464,7.464
	L30.5,19.085z"/>
<path d="M61.707,33.95l-7.914-7.914c-0.391-0.391-1.023-0.391-1.414,0L44.915,33.5l9.328,9.328l7.464-7.464
	C62.098,34.974,62.098,34.341,61.707,33.95z"/>
<path d="M8.85,55.15C13.267,59.567,19.139,62,25.386,62c6.246,0,12.118-2.433,16.535-6.85l10.908-10.908L43.5,34.915L32.593,45.822
	c-1.922,1.922-4.482,2.98-7.207,2.98c-2.726,0-5.286-1.059-7.208-2.98c-3.974-3.975-3.974-10.44,0-14.415L29.085,20.5l-9.328-9.328
	L8.85,22.079C-0.269,31.197-0.269,46.032,8.85,55.15z"/>
</svg>
