<?xml version="1.0" encoding="utf-8"?>
<!-- Generator: Adobe Illustrator 19.2.1, SVG Export Plug-In . SVG Version: 6.00 Build 0)  -->
<!DOCTYPE svg PUBLIC "-//W3C//DTD SVG 1.1//EN" "http://www.w3.org/Graphics/SVG/1.1/DTD/svg11.dtd">
<svg version="1.1" id="Layer_1" xmlns="http://www.w3.org/2000/svg" xmlns:xlink="http://www.w3.org/1999/xlink" x="0px" y="0px"
	 width="64px" height="64px" viewBox="0 0 64 64" enable-background="new 0 0 64 64" xml:space="preserve">
<path fill="#222221" d="M15,62c0,0.552,0.447,1,1,1h32c0.553,0,1-0.448,1-1c0-3.86,3.141-7,7-7c0.553,0,1-0.448,1-1V10
	c0-0.552-0.447-1-1-1c-3.859,0-7-3.14-7-7c0-0.552-0.447-1-1-1H16c-0.553,0-1,0.448-1,1c0,3.86-3.141,7-7,7c-0.553,0-1,0.448-1,1v44
	c0,0.552,0.447,1,1,1C11.859,55,15,58.14,15,62z M32,9c9.374,0,17,10.318,17,23s-7.626,23-17,23S15,44.682,15,32S22.626,9,32,9z"/>
</svg>
