<?xml version="1.0" encoding="utf-8"?>
<!-- Generator: Adobe Illustrator 19.2.0, SVG Export Plug-In . SVG Version: 6.00 Build 0)  -->
<!DOCTYPE svg PUBLIC "-//W3C//DTD SVG 1.1//EN" "http://www.w3.org/Graphics/SVG/1.1/DTD/svg11.dtd">
<svg version="1.1" id="Layer_1" xmlns="http://www.w3.org/2000/svg" xmlns:xlink="http://www.w3.org/1999/xlink" x="0px" y="0px"
	 width="48px" height="48px" viewBox="0 0 48 48" enable-background="new 0 0 48 48" xml:space="preserve">
<path fill="#72C472" d="M24.82031,29.74707c-2.92725,0-4.9917-0.74414-5.16992-0.81055
	c-0.27832-0.10352-0.49609-0.32617-0.59424-0.60645c-0.13574-0.38672-3.23193-9.56836,4.23682-17.03711l0,0
	c7.36719-7.36816,20.10498-8.25684,20.64355-8.29102c0.29199-0.0127,0.56787,0.08789,0.77051,0.29102
	c0.20312,0.20312,0.30908,0.4834,0.29102,0.77051c-0.03418,0.53906-0.92383,13.27539-8.29102,20.64355
	C32.63916,28.77539,28.16602,29.74707,24.82031,29.74707z M24,12h0.00977H24z"/>
<path fill="#4DA34D" d="M14,35c-0.25586,0-0.51172-0.09766-0.70703-0.29297c-0.39062-0.39062-0.39062-1.02344,0-1.41406l16-16
	c0.39062-0.39062,1.02344-0.39062,1.41406,0s0.39062,1.02344,0,1.41406l-16,16C14.51172,34.90234,14.25586,35,14,35z"/>
<path fill="#B3B3B3" d="M42,47H2c-0.55225,0-1-0.44727-1-1V6c0-0.55273,0.44775-1,1-1h16c0.55225,0,1,0.44727,1,1s-0.44775,1-1,1H3
	v38h38V30c0-0.55273,0.44775-1,1-1s1,0.44727,1,1v16C43,46.55273,42.55225,47,42,47z"/>
</svg>
