<?xml version="1.0" encoding="utf-8"?>
<!-- Generator: Adobe Illustrator 19.2.0, SVG Export Plug-In . SVG Version: 6.00 Build 0)  -->
<!DOCTYPE svg PUBLIC "-//W3C//DTD SVG 1.1//EN" "http://www.w3.org/Graphics/SVG/1.1/DTD/svg11.dtd">
<svg version="1.1" id="Layer_1" xmlns="http://www.w3.org/2000/svg" xmlns:xlink="http://www.w3.org/1999/xlink" x="0px" y="0px"
	 width="48px" height="48px" viewBox="0 0 48 48" enable-background="new 0 0 48 48" xml:space="preserve">
<path fill="#B3B3B3" d="M10,34v11c0,0.55228-0.44771,1-1,1H7c-0.55228,0-1-0.44772-1-1V34H10z"/>
<path fill="#B3B3B3" d="M26,16v29c0,0.55228-0.44772,1-1,1h-2c-0.55228,0-1-0.44772-1-1V16H26z"/>
<path fill="#B3B3B3" d="M42,34v11c0,0.55228-0.44772,1-1,1h-2c-0.55228,0-1-0.44772-1-1V34H42z"/>
<rect x="6" y="39" transform="matrix(4.501980e-11 1 -1 4.501980e-11 49 33)" fill="#898989" width="4" height="4"/>
<rect x="22" y="21" transform="matrix(4.501980e-11 1 -1 4.501980e-11 47 -1)" fill="#898989" width="4" height="4"/>
<rect x="38" y="39" transform="matrix(4.501980e-11 1 -1 4.501980e-11 81 1)" fill="#898989" width="4" height="4"/>
<path fill="#43A6DD" d="M10,3v31H6V3c0-0.55228,0.44772-1,1-1h2C9.55229,2,10,2.44772,10,3z"/>
<path fill="#43A6DD" d="M26,3v13h-4V3c0-0.55228,0.44772-1,1-1h2C25.55228,2,26,2.44772,26,3z"/>
<path fill="#43A6DD" d="M42,3v31h-4V3c0-0.55228,0.44772-1,1-1h2C41.55228,2,42,2.44772,42,3z"/>
<circle fill="#E6E6E6" cx="8" cy="33" r="7"/>
<circle fill="#E6E6E6" cx="24" cy="15" r="7"/>
<circle fill="#E6E6E6" cx="40" cy="33" r="7"/>
</svg>
