<?xml version="1.0" encoding="utf-8"?>
<!-- Generator: Adobe Illustrator 19.2.0, SVG Export Plug-In . SVG Version: 6.00 Build 0)  -->
<!DOCTYPE svg PUBLIC "-//W3C//DTD SVG 1.1//EN" "http://www.w3.org/Graphics/SVG/1.1/DTD/svg11.dtd">
<svg version="1.1" id="Layer_1" xmlns="http://www.w3.org/2000/svg" xmlns:xlink="http://www.w3.org/1999/xlink" x="0px" y="0px"
	 width="48px" height="48px" viewBox="0 0 48 48" enable-background="new 0 0 48 48" xml:space="preserve">
<path fill="#444444" d="M45,46H3c-1.10457,0-2-0.89543-2-2V4c0-1.10457,0.89543-2,2-2h42c1.10457,0,2,0.89543,2,2v40
	C47,45.10457,46.10457,46,45,46z"/>
<path fill="#E86C60" d="M44,14H4V7c0-1.10457,0.89543-2,2-2h36c1.10457,0,2,0.89543,2,2V14z"/>
<path fill="#FFFFFF" d="M4,13v28c0,1.10457,0.89543,2,2,2h36c1.10457,0,2-0.89543,2-2V13H4z"/>
<path fill="#C9514B" d="M25,10h-2c-0.55228,0-1-0.44771-1-1v0c0-0.55228,0.44771-1,1-1h2c0.55228,0,1,0.44771,1,1v0
	C26,9.55229,25.55229,10,25,10z"/>
<path fill="#C9514B" d="M14,10h-2c-0.55228,0-1-0.44771-1-1v0c0-0.55228,0.44771-1,1-1h2c0.55228,0,1,0.44771,1,1v0
	C15,9.55229,14.55229,10,14,10z"/>
<path fill="#C9514B" d="M36,10h-2c-0.55228,0-1-0.44771-1-1v0c0-0.55228,0.44772-1,1-1h2c0.55228,0,1,0.44771,1,1v0
	C37,9.55229,36.55228,10,36,10z"/>
<path fill="#B3B3B3" d="M23.23886,35.78709H12.35928v-2.28876c2.89073-2.92224,5.35929-5.36246,6.17432-6.41384
	c1.38263-1.7836,1.13626-3.30227,0.48436-3.88024c-1.28728-1.1413-3.43459-0.08432-4.91284,1.13906l-1.78842-2.11843
	C13.72027,21.02925,15.10687,20,17.87359,20c2.88031,0,4.92881,1.66124,4.92881,4.21557c0,1.54288-0.58078,2.74091-1.5489,3.94943
	c-0.82659,1.03185-4.79574,4.85429-4.79574,4.85429h6.78111V35.78709z"/>
<path fill="#B3B3B3" d="M24.69727,29.17631c0-3.08006,0.65114-5.37237,1.95343-6.87691
	c1.30229-1.50455,3.25216-2.25682,5.84963-2.25682c0.88712,0,1.58261,0.05323,2.08649,0.15968v2.62941
	c-0.63163-0.14194-1.25615-0.21291-1.87358-0.21291c-1.80339,0-3.5177,0.43043-4.3646,2.02262
	c-0.35485,0.66711-0.56421,1.61455-0.62808,2.84232c0.00132,0,1.09696-1.80972,3.51298-1.80972
	c2.93756,0,4.44977,2.01521,4.44977,4.92881C35.6833,33.87423,33.76658,36,30.3819,36
	C26.59653,36,24.69727,33.14171,24.69727,29.17631z M30.31803,33.37059c1.54489,0,2.1823-1.15985,2.1823-2.72522
	c0-1.46066-0.65146-2.44844-2.11843-2.44844c-1.40058,0-2.4165,1.0591-2.4165,2.16101
	C27.9654,31.87778,28.82044,33.37059,30.31803,33.37059z"/>
</svg>
