<?xml version="1.0" encoding="utf-8"?>
<!-- Generator: Adobe Illustrator 19.2.0, SVG Export Plug-In . SVG Version: 6.00 Build 0)  -->
<!DOCTYPE svg PUBLIC "-//W3C//DTD SVG 1.1//EN" "http://www.w3.org/Graphics/SVG/1.1/DTD/svg11.dtd">
<svg version="1.1" id="Layer_1" xmlns="http://www.w3.org/2000/svg" xmlns:xlink="http://www.w3.org/1999/xlink" x="0px" y="0px"
	 width="48px" height="48px" viewBox="0 0 48 48" enable-background="new 0 0 48 48" xml:space="preserve">
<path fill="#B3B3B3" d="M43,45c-0.51172,0-1.02393-0.19531-1.41406-0.58594l-11-11c-0.78125-0.78076-0.78125-2.04736,0-2.82812
	c0.78027-0.78125,2.04785-0.78125,2.82812,0l11,11c0.78125,0.78076,0.78125,2.04736,0,2.82812C44.02393,44.80469,43.51172,45,43,45z
	"/>
<circle fill="#43A6DD" cx="20" cy="20" r="18"/>
<path fill="#444444" d="M20,39C9.52344,39,1,30.47656,1,20S9.52344,1,20,1s19,8.52344,19,19S30.47656,39,20,39z M20,3
	C10.62598,3,3,10.62598,3,20s7.62598,17,17,17s17-7.62598,17-17S29.37402,3,20,3z"/>
<path fill="#BADEFC" d="M26,19h-5v-5c0-0.55225-0.44775-1-1-1s-1,0.44775-1,1v5h-5c-0.55225,0-1,0.44775-1,1s0.44775,1,1,1h5v5
	c0,0.55225,0.44775,1,1,1s1-0.44775,1-1v-5h5c0.55225,0,1-0.44775,1-1S26.55225,19,26,19z"/>
</svg>
