<?xml version="1.0" encoding="utf-8"?>
<!-- Generator: Adobe Illustrator 19.2.1, SVG Export Plug-In . SVG Version: 6.00 Build 0)  -->
<!DOCTYPE svg PUBLIC "-//W3C//DTD SVG 1.1//EN" "http://www.w3.org/Graphics/SVG/1.1/DTD/svg11.dtd">
<svg version="1.1" id="Layer_1" xmlns="http://www.w3.org/2000/svg" xmlns:xlink="http://www.w3.org/1999/xlink" x="0px" y="0px"
	 width="48px" height="48px" viewBox="0 0 48 48" enable-background="new 0 0 48 48" xml:space="preserve">
<path fill="#9BCED3" d="M46.274,8.981c-0.168-0.342-0.516-0.559-0.897-0.559H2.623c-0.381,0-0.729,0.217-0.897,0.559
	C1.558,9.323,1.598,9.73,1.831,10.033L19,32.34V45c0,1.105,0.895,2,2,2h6c1.105,0,2-0.895,2-2V32.34l17.169-22.307
	C46.402,9.73,46.442,9.323,46.274,8.981z"/>
<ellipse fill="#335262" cx="24" cy="8" rx="22" ry="6"/>
<path fill="#BFDEE0" d="M24,15C12.57,15,1,12.596,1,8s11.57-7,23-7s23,2.404,23,7S35.43,15,24,15z M24,3C11.181,3,3,5.961,3,8
	s8.181,5,21,5s21-2.961,21-5S36.819,3,24,3z"/>
</svg>
