<?xml version="1.0" encoding="utf-8"?>
<!-- Generator: Adobe Illustrator 19.2.0, SVG Export Plug-In . SVG Version: 6.00 Build 0)  -->
<!DOCTYPE svg PUBLIC "-//W3C//DTD SVG 1.1//EN" "http://www.w3.org/Graphics/SVG/1.1/DTD/svg11.dtd">
<svg version="1.1" id="Layer_1" xmlns="http://www.w3.org/2000/svg" xmlns:xlink="http://www.w3.org/1999/xlink" x="0px" y="0px"
	 width="48px" height="48px" viewBox="0 0 48 48" enable-background="new 0 0 48 48" xml:space="preserve">
<path fill="#E6E6E6" d="M1,43c0,1.10455,0.89545,2,2,2h42c1.10455,0,2-0.89545,2-2V11H1V43z"/>
<path fill="#B3B3B3" d="M45,3H3C1.89545,3,1,3.89539,1,5v6h46V5C47,3.89539,46.10455,3,45,3z"/>
<path fill="#E6E6E6" d="M10,8H6C5.44775,8,5,7.55273,5,7s0.44775-1,1-1h4c0.55225,0,1,0.44727,1,1S10.55225,8,10,8z"/>
<circle fill="#72C472" cx="24" cy="28" r="10"/>
<path fill="#FFFFFF" d="M28,27h-3v-3c0-0.55225-0.44775-1-1-1s-1,0.44775-1,1v3h-3c-0.55225,0-1,0.44775-1,1s0.44775,1,1,1h3v3
	c0,0.55225,0.44775,1,1,1s1-0.44775,1-1v-3h3c0.55225,0,1-0.44775,1-1S28.55225,27,28,27z"/>
</svg>
