<?xml version="1.0" encoding="utf-8"?>
<!-- Generator: Adobe Illustrator 19.2.1, SVG Export Plug-In . SVG Version: 6.00 Build 0)  -->
<!DOCTYPE svg PUBLIC "-//W3C//DTD SVG 1.1//EN" "http://www.w3.org/Graphics/SVG/1.1/DTD/svg11.dtd">
<svg version="1.1" id="Layer_1" xmlns="http://www.w3.org/2000/svg" xmlns:xlink="http://www.w3.org/1999/xlink" x="0px" y="0px"
	 width="48px" height="48px" viewBox="0 0 48 48" enable-background="new 0 0 48 48" xml:space="preserve">
<path fill="#BADEFC" d="M47,29c0-7.168-7.626-13-17-13s-17,5.832-17,13s7.626,13,17,13c1.119,0,2.211-0.088,3.27-0.247l8.283,4.141
	C41.694,45.965,41.847,46,42,46c0.183,0,0.365-0.05,0.526-0.149C42.82,45.668,43,45.347,43,45v-7.64C45.492,35.097,47,32.182,47,29z
	"/>
<path fill="#43A6DD" d="M22,2C10.42,2,1,9.626,1,19c0,3.603,1.381,7.038,4,9.96V39c0,0.347,0.18,0.668,0.474,0.851
	C5.635,39.95,5.817,40,6,40c0.153,0,0.306-0.035,0.447-0.105l9.33-4.665C17.812,35.741,19.903,36,22,36c11.58,0,21-7.626,21-17
	S33.58,2,22,2z"/>
</svg>
