<?xml version="1.0" encoding="utf-8"?>
<!-- Generator: Adobe Illustrator 19.2.0, SVG Export Plug-In . SVG Version: 6.00 Build 0)  -->
<!DOCTYPE svg PUBLIC "-//W3C//DTD SVG 1.1//EN" "http://www.w3.org/Graphics/SVG/1.1/DTD/svg11.dtd">
<svg version="1.1" id="Layer_1" xmlns="http://www.w3.org/2000/svg" xmlns:xlink="http://www.w3.org/1999/xlink" x="0px" y="0px"
	 width="48px" height="48px" viewBox="0 0 48 48" enable-background="new 0 0 48 48" xml:space="preserve">
<path fill="#444444" d="M32,21v-5c0-0.55231-0.44769-1-1-1h-2c-0.55225,0-1,0.44769-1,1v3h-8v-3c0-0.55231-0.44769-1-1-1h-2
	c-0.55225,0-1,0.44769-1,1v5L3,35h42L32,21z"/>
<path fill="#565656" d="M5,43h38c1.10461,0,2-0.89545,2-2v-6H3v6C3,42.10455,3.89545,43,5,43z"/>
<ellipse fill="#E6E6E6" cx="24" cy="28" rx="7" ry="4"/>
<path fill="#444444" d="M7.99999,5C4.68629,5,2,7.68629,2,10.99999V11v4c0,1.10457,0.89543,2,2,2h7c1.10457,0,2-0.89543,2-2v-5h22v5
	c0,1.10457,0.89543,2,2,2h7c1.10457,0,2-0.89543,2-2v-4v-0.00001C46,7.68629,43.31371,5,40.00001,5H7.99999z"/>
</svg>
