<?xml version="1.0" encoding="utf-8"?>
<!-- Generator: Adobe Illustrator 19.2.0, SVG Export Plug-In . SVG Version: 6.00 Build 0)  -->
<!DOCTYPE svg PUBLIC "-//W3C//DTD SVG 1.1//EN" "http://www.w3.org/Graphics/SVG/1.1/DTD/svg11.dtd">
<svg version="1.1" id="Layer_1" xmlns="http://www.w3.org/2000/svg" xmlns:xlink="http://www.w3.org/1999/xlink" x="0px" y="0px"
	 width="48px" height="48px" viewBox="0 0 48 48" enable-background="new 0 0 48 48" xml:space="preserve">
<path fill="#B3B3B3" d="M2,15c-0.55273,0-1-0.44727-1-1V2c0-0.55273,0.44727-1,1-1h12c0.55273,0,1,0.44727,1,1s-0.44727,1-1,1H3v11
	C3,14.55273,2.55273,15,2,15z"/>
<path fill="#B3B3B3" d="M46,15c-0.55273,0-1-0.44727-1-1V3H34c-0.55273,0-1-0.44727-1-1s0.44727-1,1-1h12c0.55273,0,1,0.44727,1,1
	v12C47,14.55273,46.55273,15,46,15z"/>
<path fill="#B3B3B3" d="M46,47H34c-0.55273,0-1-0.44727-1-1s0.44727-1,1-1h11V34c0-0.55273,0.44727-1,1-1s1,0.44727,1,1v12
	C47,46.55273,46.55273,47,46,47z"/>
<path fill="#B3B3B3" d="M14,47H2c-0.55273,0-1-0.44727-1-1V34c0-0.55273,0.44727-1,1-1s1,0.44727,1,1v11h11c0.55273,0,1,0.44727,1,1
	S14.55273,47,14,47z"/>
<path fill="#72C472" d="M33,17H15c-1.10457,0-2,0.89543-2,2v10c0,1.10457,0.89543,2,2,2h18c1.10457,0,2-0.89543,2-2V19
	C35,17.89543,34.10457,17,33,17z"/>
</svg>
