<?xml version="1.0" encoding="utf-8"?>
<!-- Generator: Adobe Illustrator 19.2.0, SVG Export Plug-In . SVG Version: 6.00 Build 0)  -->
<!DOCTYPE svg PUBLIC "-//W3C//DTD SVG 1.1//EN" "http://www.w3.org/Graphics/SVG/1.1/DTD/svg11.dtd">
<svg version="1.1" id="Layer_1" xmlns="http://www.w3.org/2000/svg" xmlns:xlink="http://www.w3.org/1999/xlink" x="0px" y="0px"
	 width="48px" height="48px" viewBox="0 0 48 48" enable-background="new 0 0 48 48" xml:space="preserve">
<path fill="#EA9860" d="M47,22C47,11.52344,36.68262,3,24,3S1,11.52344,1,22s10.31738,19,23,19
	c2.03809,0,4.08594-0.23047,6.09277-0.68652l11.53613,4.61523C41.74902,44.97656,41.875,45,42,45
	c0.21582,0,0.42871-0.06934,0.60547-0.2041c0.28027-0.21289,0.42676-0.55664,0.38867-0.90625l-1.10645-9.9502
	C45.18848,30.56641,47,26.34473,47,22z"/>
<path fill="#FFFFFF" d="M32,19H16c-0.55273,0-1-0.44727-1-1s0.44727-1,1-1h16c0.55273,0,1,0.44727,1,1S32.55273,19,32,19z"/>
<path fill="#FFFFFF" d="M26,27H16c-0.55273,0-1-0.44727-1-1s0.44727-1,1-1h10c0.55273,0,1,0.44727,1,1S26.55273,27,26,27z"/>
</svg>
