<?xml version="1.0" encoding="utf-8"?>
<!-- Generator: Adobe Illustrator 19.2.0, SVG Export Plug-In . SVG Version: 6.00 Build 0)  -->
<!DOCTYPE svg PUBLIC "-//W3C//DTD SVG 1.1//EN" "http://www.w3.org/Graphics/SVG/1.1/DTD/svg11.dtd">
<svg version="1.1" id="Layer_1" xmlns="http://www.w3.org/2000/svg" xmlns:xlink="http://www.w3.org/1999/xlink" x="0px" y="0px"
	 width="48px" height="48px" viewBox="0 0 48 48" enable-background="new 0 0 48 48" xml:space="preserve">
<path fill="#43A6DD" d="M24,47C11.31738,47,1,36.68262,1,24c0-0.55273,0.44727-1,1-1h9.38184l5.72363-11.44727
	c0.33984-0.67773,1.44922-0.67773,1.78906,0L30,33.76367l5.10547-10.21094C35.27539,23.21387,35.62109,23,36,23h10
	c0.55273,0,1,0.44727,1,1C47,36.68262,36.68262,47,24,47z"/>
<path fill="#335262" d="M18,12l12,23l6-11h11C47,11.31738,36.68262,1,24,1S1,11.31738,1,24h11L18,12z"/>
<path fill="#FFFFFF" d="M47,24c0-0.33539-0.01105-0.66809-0.02527-1H36c-0.37891,0-0.72461,0.21387-0.89453,0.55273L30,33.76367
	L18.89453,11.55273c-0.33984-0.67773-1.44922-0.67773-1.78906,0L11.38184,23H1.02527C1.01105,23.33191,1,23.66461,1,24
	s0.01105,0.66809,0.02527,1H12c0.37891,0,0.72461-0.21387,0.89453-0.55273L18,14.23633l11.10547,22.21094
	C29.27539,36.78613,29.62109,37,30,37s0.72461-0.21387,0.89453-0.55273L36.61816,25h10.35657C46.98895,24.66809,47,24.33539,47,24z"
	/>
</svg>
