<?xml version="1.0" encoding="utf-8"?>
<!-- Generator: Adobe Illustrator 19.2.0, SVG Export Plug-In . SVG Version: 6.00 Build 0)  -->
<!DOCTYPE svg PUBLIC "-//W3C//DTD SVG 1.1//EN" "http://www.w3.org/Graphics/SVG/1.1/DTD/svg11.dtd">
<svg version="1.1" id="Layer_1" xmlns="http://www.w3.org/2000/svg" xmlns:xlink="http://www.w3.org/1999/xlink" x="0px" y="0px"
	 width="48px" height="48px" viewBox="0 0 48 48" enable-background="new 0 0 48 48" xml:space="preserve">
<path fill="#B3B3B3" d="M17.27895,26.00297L24.6087,38.5028c1.11746,1.90567,0.47849,4.3564-1.42718,5.47386l-0.00001,0
	c-1.90567,1.11746-4.3564,0.47849-5.47386-1.42718L8,25.99446L14.57928,17L17.27895,26.00297z"/>
<path fill="#E6E6E6" d="M38,35c-5.8418,0-11.30859-3.05078-14.40625-8H6c-2.85059,0-5-3.86914-5-9s2.14941-9,5-9h17.59375
	C26.69238,4.05078,32.15918,1,38,1c0.55273,0,1,0.44727,1,1v32C39,34.55273,38.55273,35,38,35z"/>
<path fill="#B3B3B3" d="M38,35c-5.04688,0-9-7.46777-9-17s3.95312-17,9-17s9,7.46777,9,17S43.04688,35,38,35z"/>
<path fill="#444444" d="M30,12c-0.1474,0-0.29187,0.01166-0.43658,0.02209C29.20465,13.87653,29,15.88263,29,18
	s0.20465,4.12347,0.56342,5.97791C29.70813,23.98834,29.8526,24,30,24c3.31372,0,6-2.68628,6-6S33.31372,12,30,12z"/>
</svg>
