<?xml version="1.0" encoding="utf-8"?>
<!-- Generator: Adobe Illustrator 19.2.0, SVG Export Plug-In . SVG Version: 6.00 Build 0)  -->
<!DOCTYPE svg PUBLIC "-//W3C//DTD SVG 1.1//EN" "http://www.w3.org/Graphics/SVG/1.1/DTD/svg11.dtd">
<svg version="1.1" id="Layer_1" xmlns="http://www.w3.org/2000/svg" xmlns:xlink="http://www.w3.org/1999/xlink" x="0px" y="0px"
	 width="48px" height="48px" viewBox="0 0 48 48" enable-background="new 0 0 48 48" xml:space="preserve">
<path fill="#72C472" d="M28,47h-8c-0.55273,0-1-0.44727-1-1V29H2c-0.55273,0-1-0.44727-1-1v-8c0-0.55273,0.44727-1,1-1h17V2
	c0-0.55273,0.44727-1,1-1h8c0.55273,0,1,0.44727,1,1v17h17c0.55273,0,1,0.44727,1,1v8c0,0.55273-0.44727,1-1,1H29v17
	C29,46.55273,28.55273,47,28,47z"/>
</svg>
