<?xml version="1.0" encoding="utf-8"?>
<!-- Generator: Adobe Illustrator 19.2.0, SVG Export Plug-In . SVG Version: 6.00 Build 0)  -->
<!DOCTYPE svg PUBLIC "-//W3C//DTD SVG 1.1//EN" "http://www.w3.org/Graphics/SVG/1.1/DTD/svg11.dtd">
<svg version="1.1" id="Layer_1" xmlns="http://www.w3.org/2000/svg" xmlns:xlink="http://www.w3.org/1999/xlink" x="0px" y="0px"
	 width="48px" height="48px" viewBox="0 0 48 48" enable-background="new 0 0 48 48" xml:space="preserve">
<path fill="#EAD8C5" d="M24.00002,3l-17,15.11108v25.88843c0,1.10455,0.89545,2,2,2h30c1.10461,0,2-0.89545,2-2V18.11108L24.00002,3
	z"/>
<path fill="#E86C60" d="M45.99953,23.99951c-0.23975,0-0.48047-0.08594-0.67236-0.25977L24.00002,4.35107L2.67288,23.73975
	c-0.40918,0.37109-1.0415,0.33984-1.4126-0.06738c-0.37158-0.40918-0.3418-1.04102,0.06689-1.41309l22-20
	c0.38184-0.3457,0.96387-0.3457,1.3457,0l22,20c0.40869,0.37207,0.43848,1.00391,0.06689,1.41309
	C46.5425,23.88916,46.27151,23.99951,45.99953,23.99951z"/>
<path fill="#5A7A84" d="M28.00002,33h-8c-0.55228,0-1,0.44772-1,1v12h10V34C29.00002,33.44772,28.55231,33,28.00002,33z"/>
<path fill="#43A6DD" d="M28.00002,27h-8c-0.55228,0-1-0.44772-1-1v-6c0-0.55228,0.44772-1,1-1h8c0.55229,0,1,0.44772,1,1v6
	C29.00002,26.55228,28.55231,27,28.00002,27z"/>
</svg>
