<?xml version="1.0" encoding="utf-8"?>
<!-- Generator: Adobe Illustrator 19.2.0, SVG Export Plug-In . SVG Version: 6.00 Build 0)  -->
<!DOCTYPE svg PUBLIC "-//W3C//DTD SVG 1.1//EN" "http://www.w3.org/Graphics/SVG/1.1/DTD/svg11.dtd">
<svg version="1.1" id="Layer_1" xmlns="http://www.w3.org/2000/svg" xmlns:xlink="http://www.w3.org/1999/xlink" x="0px" y="0px"
	 width="48px" height="48px" viewBox="0 0 48 48" enable-background="new 0 0 48 48" xml:space="preserve">
<path fill="#B3B3B3" d="M37,47H11c-2.20914,0-4-1.79086-4-4V16c0-0.55229,0.44772-1,1-1h32c0.55228,0,1,0.44771,1,1v27
	C41,45.20914,39.20914,47,37,47z"/>
<path fill="#8E8E8E" d="M24,41c-0.55273,0-1-0.44775-1-1V23c0-0.55225,0.44727-1,1-1s1,0.44775,1,1v17
	C25,40.55225,24.55273,41,24,41z"/>
<path fill="#8E8E8E" d="M16,41c-0.55273,0-1-0.44775-1-1V23c0-0.55225,0.44727-1,1-1s1,0.44775,1,1v17
	C17,40.55225,16.55273,41,16,41z"/>
<path fill="#8E8E8E" d="M32,41c-0.55273,0-1-0.44775-1-1V23c0-0.55225,0.44727-1,1-1s1,0.44775,1,1v17
	C33,40.55225,32.55273,41,32,41z"/>
<path fill="#E6E6E6" d="M40,10h-7c0-4.9624-4.03711-9-9-9s-9,4.0376-9,9H8c-3.31372,0-6,2.68628-6,6h44
	C46,12.68628,43.31372,10,40,10z M17,10c0-3.85986,3.14062-7,7-7s7,3.14014,7,7H17z"/>
</svg>
