<?xml version="1.0" encoding="utf-8"?>
<!-- Generator: Adobe Illustrator 19.2.0, SVG Export Plug-In . SVG Version: 6.00 Build 0)  -->
<!DOCTYPE svg PUBLIC "-//W3C//DTD SVG 1.1//EN" "http://www.w3.org/Graphics/SVG/1.1/DTD/svg11.dtd">
<svg version="1.1" id="Layer_1" xmlns="http://www.w3.org/2000/svg" xmlns:xlink="http://www.w3.org/1999/xlink" x="0px" y="0px"
	 width="48px" height="48px" viewBox="0 0 48 48" enable-background="new 0 0 48 48" xml:space="preserve">
<path fill="#5A7A84" d="M45,47H3c-1.10457,0-2-0.89543-2-2V3c0-1.10457,0.89543-2,2-2h42c1.10457,0,2,0.89543,2,2v42
	C47,46.10457,46.10457,47,45,47z"/>
<path fill="#335262" d="M40,17H18c-0.55225,0-1-0.44775-1-1s0.44775-1,1-1h22c0.55225,0,1,0.44775,1,1S40.55225,17,40,17z"/>
<path fill="#EFD358" d="M15,17H8c-0.55225,0-1-0.44775-1-1s0.44775-1,1-1h7c0.55225,0,1,0.44775,1,1S15.55225,17,15,17z"/>
<path fill="#EFD358" d="M30,33H8c-0.55225,0-1-0.44775-1-1s0.44775-1,1-1h22c0.55225,0,1,0.44775,1,1S30.55225,33,30,33z"/>
<path fill="#335262" d="M40,33h-8c-0.55225,0-1-0.44775-1-1s0.44775-1,1-1h8c0.55225,0,1,0.44775,1,1S40.55225,33,40,33z"/>
<circle fill="#FFFFFF" cx="16" cy="16" r="5"/>
<circle fill="#FFFFFF" cx="32" cy="32" r="5"/>
</svg>
