<?xml version="1.0" encoding="utf-8"?>
<!-- Generator: Adobe Illustrator 19.2.0, SVG Export Plug-In . SVG Version: 6.00 Build 0)  -->
<!DOCTYPE svg PUBLIC "-//W3C//DTD SVG 1.1//EN" "http://www.w3.org/Graphics/SVG/1.1/DTD/svg11.dtd">
<svg version="1.1" id="Layer_1" xmlns="http://www.w3.org/2000/svg" xmlns:xlink="http://www.w3.org/1999/xlink" x="0px" y="0px"
	 width="48px" height="48px" viewBox="0 0 48 48" enable-background="new 0 0 48 48" xml:space="preserve">
<path fill="#8680D8" d="M46,20H2c-0.55273,0-1,0.44775-1,1v6c0,0.55225,0.44727,1,1,1h44c0.55273,0,1-0.44775,1-1v-6
	C47,20.44775,46.55273,20,46,20z"/>
<path fill="#8680D8" d="M46,4H2C1.44727,4,1,4.44775,1,5v6c0,0.55225,0.44727,1,1,1h44c0.55273,0,1-0.44775,1-1V5
	C47,4.44775,46.55273,4,46,4z"/>
<path fill="#8680D8" d="M46,36H2c-0.55273,0-1,0.44775-1,1v6c0,0.55225,0.44727,1,1,1h44c0.55273,0,1-0.44775,1-1v-6
	C47,36.44775,46.55273,36,46,36z"/>
</svg>
