<?xml version="1.0" encoding="utf-8"?>
<!-- Generator: Adobe Illustrator 19.2.1, SVG Export Plug-In . SVG Version: 6.00 Build 0)  -->
<!DOCTYPE svg PUBLIC "-//W3C//DTD SVG 1.1//EN" "http://www.w3.org/Graphics/SVG/1.1/DTD/svg11.dtd">
<svg version="1.1" id="Layer_1" xmlns="http://www.w3.org/2000/svg" xmlns:xlink="http://www.w3.org/1999/xlink" x="0px" y="0px"
	 width="48px" height="48px" viewBox="0 0 48 48" enable-background="new 0 0 48 48" xml:space="preserve">
<path fill="#C64692" d="M38,34c-5.383,0-10.369-3.79-14-7.211C20.369,30.21,15.383,34,10,34C4.486,34,0,29.514,0,24s4.486-10,10-10
	c5.383,0,10.369,3.79,14,7.211C27.631,17.79,32.617,14,38,14c5.514,0,10,4.486,10,10S43.514,34,38,34z M26.879,24
	c4.338,4.034,7.987,6,11.121,6c3.309,0,6-2.691,6-6s-2.691-6-6-6C34.866,18,31.217,19.966,26.879,24z M10,18c-3.309,0-6,2.691-6,6
	s2.691,6,6,6c3.134,0,6.783-1.966,11.121-6C16.783,19.966,13.134,18,10,18z"/>
</svg>
