<?xml version="1.0" encoding="utf-8"?>
<!-- Generator: Adobe Illustrator 19.2.0, SVG Export Plug-In . SVG Version: 6.00 Build 0)  -->
<!DOCTYPE svg PUBLIC "-//W3C//DTD SVG 1.1//EN" "http://www.w3.org/Graphics/SVG/1.1/DTD/svg11.dtd">
<svg version="1.1" id="Layer_1" xmlns="http://www.w3.org/2000/svg" xmlns:xlink="http://www.w3.org/1999/xlink" x="0px" y="0px"
	 width="48px" height="48px" viewBox="0 0 48 48" enable-background="new 0 0 48 48" xml:space="preserve">
<path fill="#43A6DD" d="M24,47c-8.35645,0-17-6.35889-17-17C7,19.83008,22.625,3.96582,23.29004,3.29541
	c0.37598-0.37793,1.04395-0.37793,1.41992,0C25.375,3.96582,41,19.83008,41,30C41,40.64111,32.35645,47,24,47z"/>
<path fill="#BADEFC" d="M24,37c-1.81592,0-7-1.28613-7-7c0-0.55225,0.44775-1,1-1s1,0.44775,1,1c0,4.78516,4.9502,5,5,5
	c0.55225,0,1,0.44775,1,1S24.55225,37,24,37z"/>
</svg>
