<?xml version="1.0" encoding="utf-8"?>
<!-- Generator: Adobe Illustrator 19.2.1, SVG Export Plug-In . SVG Version: 6.00 Build 0)  -->
<!DOCTYPE svg PUBLIC "-//W3C//DTD SVG 1.1//EN" "http://www.w3.org/Graphics/SVG/1.1/DTD/svg11.dtd">
<svg version="1.1" id="Layer_1" xmlns="http://www.w3.org/2000/svg" xmlns:xlink="http://www.w3.org/1999/xlink" x="0px" y="0px"
	 width="48px" height="48px" viewBox="0 0 48 48" enable-background="new 0 0 48 48" xml:space="preserve">
<path fill="#5B5B5B" d="M7,2C5.896,2,5,2.896,5,4v28.082C2.613,33.468,1,36.047,1,39c0,4.411,3.589,8,8,8
	c2.953,0,5.532-1.613,6.918-4H44c1.104,0,2-0.896,2-2C46,19.495,28.505,2,7,2z"/>
<path fill="#E86C60" d="M9,43c-1.068,0-2.073-0.416-2.828-1.171c-1.56-1.56-1.56-4.098,0-5.657
	c1.082-1.082,9.109-6.434,13.799-9.527c0.396-0.261,0.922-0.208,1.258,0.127s0.39,0.861,0.128,1.258
	c-3.096,4.691-8.45,12.722-9.528,13.799C11.073,42.584,10.068,43,9,43z"/>
<path fill="#444444" d="M37.188,35c-0.455,0-0.866-0.312-0.974-0.775c-2.561-11.079-11.368-19.89-22.439-22.447
	c-0.538-0.124-0.874-0.661-0.75-1.199c0.125-0.538,0.662-0.874,1.199-0.749c11.812,2.727,21.208,12.126,23.939,23.945
	c0.124,0.538-0.211,1.075-0.749,1.199C37.339,34.992,37.263,35,37.188,35z"/>
<path fill="#72C472" d="M28.911,20.089c-0.256,0-0.512-0.098-0.707-0.293c-3.982-3.985-8.972-6.758-14.429-8.018
	c-0.538-0.125-0.874-0.662-0.75-1.2c0.125-0.538,0.662-0.87,1.199-0.75c5.823,1.345,11.146,4.302,15.394,8.553
	c0.391,0.391,0.391,1.024,0,1.415C29.423,19.991,29.167,20.089,28.911,20.089z"/>
</svg>
