<?xml version="1.0" encoding="utf-8"?>
<!-- Generator: Adobe Illustrator 19.2.0, SVG Export Plug-In . SVG Version: 6.00 Build 0)  -->
<!DOCTYPE svg PUBLIC "-//W3C//DTD SVG 1.1//EN" "http://www.w3.org/Graphics/SVG/1.1/DTD/svg11.dtd">
<svg version="1.1" id="Layer_1" xmlns="http://www.w3.org/2000/svg" xmlns:xlink="http://www.w3.org/1999/xlink" x="0px" y="0px"
	 width="48px" height="48px" viewBox="0 0 48 48" enable-background="new 0 0 48 48" xml:space="preserve">
<path fill="#444444" d="M7.08282,45.08282L6,42l-3.08282-1.08282l-0.6614,3.66536c-0.12386,0.68639,0.47529,1.28554,1.16168,1.16169
	L7.08282,45.08282z"/>
<polygon fill="#EAD8C5" points="14.70703,43.70703 12.9375,35.0625 4.29297,33.29297 2.91718,40.91718 7.08282,45.08282 "/>
<path fill="#5A7A84" d="M44.70703,12.29297l-9-9c-0.39062-0.39062-1.02344-0.39062-1.41406,0l-6,6l10.41406,10.41406l6-6
	C45.09766,13.31641,45.09766,12.68359,44.70703,12.29297z"/>
<polygon fill="#E86C60" points="28.29297,9.29297 4.29297,33.29297 10.25,39.25 34.20833,15.20833 "/>
<rect x="7.13295" y="25.42159" transform="matrix(0.70711 -0.70711 0.70711 0.70711 -13.51954 25.56798)" fill="#C9514B" width="33.94112" height="7.36385"/>
<rect x="32.50011" y="7.13615" transform="matrix(0.70711 -0.70711 0.70711 0.70711 -0.44113 27.93503)" fill="#223E49" width="1.99979" height="14.72771"/>
</svg>
