<?xml version="1.0" encoding="utf-8"?>
<!-- Generator: Adobe Illustrator 19.2.1, SVG Export Plug-In . SVG Version: 6.00 Build 0)  -->
<!DOCTYPE svg PUBLIC "-//W3C//DTD SVG 1.1//EN" "http://www.w3.org/Graphics/SVG/1.1/DTD/svg11.dtd">
<svg version="1.1" id="Layer_1" xmlns="http://www.w3.org/2000/svg" xmlns:xlink="http://www.w3.org/1999/xlink" x="0px" y="0px"
	 width="48px" height="48px" viewBox="0 0 48 48" enable-background="new 0 0 48 48" xml:space="preserve">
<circle fill="#BFDEE0" cx="32" cy="24" r="9"/>
<path fill="#335262" d="M47.121,36.293l-6.784-6.784C41.386,27.928,42,26.035,42,24c0-5.514-4.486-10-10-10s-10,4.486-10,10
	s4.486,10,10,10c2.035,0,3.928-0.614,5.509-1.663l6.784,6.784c0.391,0.391,1.024,0.391,1.414,0l1.414-1.414
	C47.512,37.317,47.512,36.683,47.121,36.293z M32,32c-4.418,0-8-3.582-8-8s3.582-8,8-8s8,3.582,8,8S36.418,32,32,32z"/>
<path fill="#B3B3B3" d="M42,7H2C1.447,7,1,6.552,1,6s0.447-1,1-1h40c0.553,0,1,0.448,1,1S42.553,7,42,7z"/>
<path fill="#B3B3B3" d="M17,19H2c-0.553,0-1-0.448-1-1s0.447-1,1-1h15c0.553,0,1,0.448,1,1S17.553,19,17,19z"/>
<path fill="#B3B3B3" d="M17,31H2c-0.553,0-1-0.448-1-1s0.447-1,1-1h15c0.553,0,1,0.448,1,1S17.553,31,17,31z"/>
<path fill="#B3B3B3" d="M36,43H2c-0.553,0-1-0.448-1-1s0.447-1,1-1h34c0.553,0,1,0.448,1,1S36.553,43,36,43z"/>
</svg>
