<?xml version="1.0" encoding="utf-8"?>
<!-- Generator: Adobe Illustrator 19.2.0, SVG Export Plug-In . SVG Version: 6.00 Build 0)  -->
<!DOCTYPE svg PUBLIC "-//W3C//DTD SVG 1.1//EN" "http://www.w3.org/Graphics/SVG/1.1/DTD/svg11.dtd">
<svg version="1.1" id="Layer_1" xmlns="http://www.w3.org/2000/svg" xmlns:xlink="http://www.w3.org/1999/xlink" x="0px" y="0px"
	 width="48px" height="48px" viewBox="0 0 48 48" enable-background="new 0 0 48 48" xml:space="preserve">
<circle fill="#E6E6E6" cx="24" cy="24" r="21"/>
<path fill="#335262" d="M24,47C11.31738,47,1,36.68213,1,24S11.31738,1,24,1s23,10.31787,23,23S36.68262,47,24,47z M24,5
	C13.52344,5,5,13.52344,5,24s8.52344,19,19,19s19-8.52344,19-19S34.47656,5,24,5z"/>
<path fill="#E86C60" d="M14.99902,36c-0.22266,0-0.44629-0.07422-0.63184-0.22607c-0.42773-0.34961-0.49121-0.97949-0.1416-1.40723
	l9-11c0.34961-0.42676,0.97949-0.48975,1.40723-0.14062c0.42773,0.34961,0.49121,0.97949,0.1416,1.40723l-9,11
	C15.57617,35.875,15.28906,36,14.99902,36z"/>
<circle fill="#223E49" cx="24" cy="24" r="3"/>
<path fill="#223E49" d="M33,25h-9c-0.33398,0-0.64648-0.16699-0.83203-0.44531l-8-12
	c-0.30664-0.45947-0.18262-1.08057,0.27734-1.38672c0.45996-0.30811,1.08008-0.18213,1.38672,0.27734L24.53516,23H33
	c0.55273,0,1,0.44775,1,1S33.55273,25,33,25z"/>
<path fill="#B3B3B3" d="M24,11c-0.55273,0-1-0.44775-1-1V8c0-0.55225,0.44727-1,1-1s1,0.44775,1,1v2C25,10.55225,24.55273,11,24,11z
	"/>
<path fill="#B3B3B3" d="M37,24c0-0.55273,0.44775-1,1-1h2c0.55225,0,1,0.44727,1,1s-0.44775,1-1,1h-2C37.44775,25,37,24.55273,37,24
	z"/>
<path fill="#B3B3B3" d="M24,37c0.55273,0,1,0.44775,1,1v2c0,0.55225-0.44727,1-1,1s-1-0.44775-1-1v-2C23,37.44775,23.44727,37,24,37
	z"/>
<path fill="#B3B3B3" d="M11,24c0,0.55273-0.44775,1-1,1H8c-0.55225,0-1-0.44727-1-1s0.44775-1,1-1h2C10.55225,23,11,23.44727,11,24z
	"/>
</svg>
