<?xml version="1.0" encoding="utf-8"?>
<!-- Generator: Adobe Illustrator 19.2.0, SVG Export Plug-In . SVG Version: 6.00 Build 0)  -->
<!DOCTYPE svg PUBLIC "-//W3C//DTD SVG 1.1//EN" "http://www.w3.org/Graphics/SVG/1.1/DTD/svg11.dtd">
<svg version="1.1" id="Layer_1" xmlns="http://www.w3.org/2000/svg" xmlns:xlink="http://www.w3.org/1999/xlink" x="0px" y="0px"
	 width="48px" height="48px" viewBox="0 0 48 48" enable-background="new 0 0 48 48" xml:space="preserve">
<path fill="#EFD358" d="M46,41H2c-0.55225,0-1-0.44727-1-1c0-4.10742,2.14307-11.25293,8-14.5957V16C9,7.72852,15.729,1,24,1
	s15,6.72852,15,15v9.40137C44.85693,28.71777,47,35.87598,47,40C47,40.55273,46.55225,41,46,41z"/>
<path fill="#A58C21" d="M24,47c-11.42969,0-23-2.4043-23-7s11.57031-7,23-7s23,2.4043,23,7S35.42969,47,24,47z"/>
<path fill="#756211" d="M18.03119,33.22284l-0.008,0.00726C18.14685,36.43469,20.76514,39,24,39s5.85315-2.56531,5.97681-5.7699
	l-0.00378-0.00696C28.01959,33.07587,26.00824,33,24,33C21.99316,33,19.98334,33.07574,18.03119,33.22284z"/>
</svg>
