<?xml version="1.0" encoding="utf-8"?>
<!-- Generator: Adobe Illustrator 19.2.1, SVG Export Plug-In . SVG Version: 6.00 Build 0)  -->
<!DOCTYPE svg PUBLIC "-//W3C//DTD SVG 1.1//EN" "http://www.w3.org/Graphics/SVG/1.1/DTD/svg11.dtd">
<svg version="1.1" id="Layer_1" xmlns="http://www.w3.org/2000/svg" xmlns:xlink="http://www.w3.org/1999/xlink" x="0px" y="0px"
	 width="48px" height="48px" viewBox="0 0 48 48" enable-background="new 0 0 48 48" xml:space="preserve">
<path fill="#C19F85" d="M40.707,17.293l-16-16c-0.391-0.391-1.023-0.391-1.414,0l-16,16C7.105,17.48,7,17.735,7,18v28
	c0,0.552,0.447,1,1,1h32c0.553,0,1-0.448,1-1V18C41,17.735,40.895,17.48,40.707,17.293z M24,19c-1.657,0-3-1.343-3-3s1.343-3,3-3
	s3,1.343,3,3S25.657,19,24,19z"/>
<path fill="#E6E6E6" d="M34,41H14c-0.552,0-1-0.448-1-1V26c0-0.552,0.448-1,1-1h20c0.552,0,1,0.448,1,1v14
	C35,40.552,34.552,41,34,41z"/>
<path fill="#A67C52" d="M24,11c-2.761,0-5,2.239-5,5s2.239,5,5,5s5-2.239,5-5S26.761,11,24,11z M24,19c-1.657,0-3-1.343-3-3
	s1.343-3,3-3s3,1.343,3,3S25.657,19,24,19z"/>
<path fill="#B3B3B3" d="M30,31H18c-0.552,0-1-0.448-1-1v0c0-0.552,0.448-1,1-1h12c0.552,0,1,0.448,1,1v0C31,30.552,30.552,31,30,31z
	"/>
<path fill="#B3B3B3" d="M30,37H18c-0.552,0-1-0.448-1-1l0,0c0-0.552,0.448-1,1-1h12c0.552,0,1,0.448,1,1l0,0
	C31,36.552,30.552,37,30,37z"/>
</svg>
