<?xml version="1.0" encoding="utf-8"?>
<!-- Generator: Adobe Illustrator 19.2.0, SVG Export Plug-In . SVG Version: 6.00 Build 0)  -->
<!DOCTYPE svg PUBLIC "-//W3C//DTD SVG 1.1//EN" "http://www.w3.org/Graphics/SVG/1.1/DTD/svg11.dtd">
<svg version="1.1" id="Layer_1" xmlns="http://www.w3.org/2000/svg" xmlns:xlink="http://www.w3.org/1999/xlink" x="0px" y="0px"
	 width="48px" height="48px" viewBox="0 0 48 48" enable-background="new 0 0 48 48" xml:space="preserve">
<path fill="#E6E6E6" d="M24,37C11.60742,37,3.50684,25.06299,3.16797,24.55469c-0.22363-0.33496-0.22363-0.771-0.00195-1.10645
	C3.50195,22.93994,11.54297,11,24,11c12.39258,0,20.49316,11.93701,20.83203,12.44531
	c0.22461,0.33691,0.22363,0.77637-0.00195,1.1123C44.48828,25.06592,36.3291,37,24,37z"/>
<circle fill="#A67C52" cx="24" cy="22" r="9"/>
<circle fill="#444444" cx="24" cy="22" r="5"/>
<circle fill="#FFFFFF" cx="20.5" cy="19.5" r="2.5"/>
<path fill="#E86C60" d="M6,41c-0.25586,0-0.51172-0.09766-0.70703-0.29297c-0.39062-0.39062-0.39062-1.02344,0-1.41406l32-32
	c0.39062-0.39062,1.02344-0.39062,1.41406,0s0.39062,1.02344,0,1.41406l-32,32C6.51172,40.90234,6.25586,41,6,41z"/>
</svg>
