<?xml version="1.0" encoding="utf-8"?>
<!-- Generator: Adobe Illustrator 19.2.0, SVG Export Plug-In . SVG Version: 6.00 Build 0)  -->
<!DOCTYPE svg PUBLIC "-//W3C//DTD SVG 1.1//EN" "http://www.w3.org/Graphics/SVG/1.1/DTD/svg11.dtd">
<svg version="1.1" id="Layer_1" xmlns="http://www.w3.org/2000/svg" xmlns:xlink="http://www.w3.org/1999/xlink" x="0px" y="0px"
	 width="48px" height="48px" viewBox="0 0 48 48" enable-background="new 0 0 48 48" xml:space="preserve">
<path fill="#5A7A84" d="M23.08464,45.56934c-0.32129,0-0.64551-0.03418-0.96875-0.10352
	c-1.21387-0.26172-2.24512-0.98535-2.90332-2.03809l-8.06055-12.89746c-0.18457-0.2959-0.20215-0.66602-0.04688-0.97754l3-6
	c0.15137-0.30176,0.44434-0.50684,0.7793-0.5459c0.33203-0.04297,0.66797,0.09375,0.88379,0.35254l5,6
	c0.02246,0.02734,0.04395,0.05664,0.06348,0.08594l6.0293,9.04395c0.6748,1.01172,0.91504,2.22559,0.67676,3.41797
	c-0.23926,1.19238-0.92773,2.2207-1.93945,2.89551C24.8405,45.30762,23.97331,45.56934,23.08464,45.56934z"/>
<path fill="#335262" d="M24,31H11c-4.96289,0-9-4.03711-9-9s4.03711-9,9-9h13c0.55273,0,1,0.44727,1,1v16
	C25,30.55273,24.55273,31,24,31z"/>
<path fill="#E6E6E6" d="M43,41c-0.16699,0-0.33496-0.04199-0.48535-0.12598L24,31V13l18.51465-9.87402
	c0.30762-0.17285,0.68652-0.16797,0.99219,0.01172C43.81248,3.31738,44,3.64551,44,4v36c0,0.35449-0.18752,0.68262-0.49316,0.8623
	C43.35059,40.9541,43.17578,41,43,41z"/>
<path fill="#E86C60" d="M45,41h-2c-0.55273,0-1-0.44727-1-1V4c0-0.55273,0.44727-1,1-1h2c0.55273,0,1,0.44727,1,1v36
	C46,40.55273,45.55273,41,45,41z"/>
</svg>
