<?xml version="1.0" encoding="utf-8"?>
<!-- Generator: Adobe Illustrator 19.2.0, SVG Export Plug-In . SVG Version: 6.00 Build 0)  -->
<!DOCTYPE svg PUBLIC "-//W3C//DTD SVG 1.1//EN" "http://www.w3.org/Graphics/SVG/1.1/DTD/svg11.dtd">
<svg version="1.1" id="Layer_1" xmlns="http://www.w3.org/2000/svg" xmlns:xlink="http://www.w3.org/1999/xlink" x="0px" y="0px"
	 width="48px" height="48px" viewBox="0 0 48 48" enable-background="new 0 0 48 48" xml:space="preserve">
<path fill="#444444" d="M45,45H3c-1.10457,0-2-0.89543-2-2V9c0-1.10457,0.89543-2,2-2h42c1.10457,0,2,0.89543,2,2v34
	C47,44.10457,46.10457,45,45,45z"/>
<path fill="#B3B3B3" d="M24,40c0,0-4.82016-1.89646-16.99971-1.99594C6.45017,37.99956,6,37.55563,6,37.0055V6c12.91667,0,18,2,18,2
	V40z"/>
<path fill="#B3B3B3" d="M24,40c0,0,4.82016-1.89646,16.99971-1.99594C41.54983,37.99956,42,37.55563,42,37.0055V6
	C29.08333,6,24,8,24,8V40z"/>
<path fill="#E6E6E6" d="M24,39c0,0-6.72025-3.79496-19.00562-3.99205C4.44716,34.99917,4,34.56,4,34.0127V4.01287
	c0-0.55728,0.46262-1.01367,1.01982-1.0045C17.28903,3.21027,24,7,24,7V39z"/>
<path fill="#D1D1D1" d="M24,39c0,0,6.72025-3.79496,19.00562-3.99205C43.55285,34.99917,44,34.56,44,34.0127V4.01287
	c0-0.55728-0.46262-1.01367-1.01982-1.0045C30.71097,3.21027,24,7,24,7V39z"/>
</svg>
