<?xml version="1.0" encoding="utf-8"?>
<!-- Generator: Adobe Illustrator 19.2.0, SVG Export Plug-In . SVG Version: 6.00 Build 0)  -->
<!DOCTYPE svg PUBLIC "-//W3C//DTD SVG 1.1//EN" "http://www.w3.org/Graphics/SVG/1.1/DTD/svg11.dtd">
<svg version="1.1" id="Layer_1" xmlns="http://www.w3.org/2000/svg" xmlns:xlink="http://www.w3.org/1999/xlink" x="0px" y="0px"
	 width="48px" height="48px" viewBox="0 0 48 48" enable-background="new 0 0 48 48" xml:space="preserve">
<path fill="#335262" d="M18,12l12,24l6-12h11V3c0-1.10461-0.89545-2-2-2H3C1.89545,1,1,1.89539,1,3v21h11L18,12z"/>
<path fill="#43A6DD" d="M45,47H3c-1.10457,0-2-0.89543-2-2V24c0-0.55228,0.44772-1,1-1h9.38184l5.72363-11.44727
	c0.33984-0.67773,1.44922-0.67773,1.78906,0L30,33.76367l5.10538-10.21077C35.27481,23.21405,35.62115,23,36,23h10
	c0.55228,0,1,0.44772,1,1v21C47,46.10457,46.10457,47,45,47z"/>
<path fill="#FFFFFF" d="M30,37c-0.37891,0-0.72461-0.21387-0.89453-0.55273L18,14.23633l-5.10547,10.21094
	C12.72461,24.78613,12.37891,25,12,25H1v-2h10.38184l5.72363-11.44727c0.33984-0.67773,1.44922-0.67773,1.78906,0L30,33.76367
	l5.10547-10.21094C35.27539,23.21387,35.62109,23,36,23h11v2H36.61816l-5.72363,11.44727C30.72461,36.78613,30.37891,37,30,37z"/>
</svg>
