<?xml version="1.0" encoding="utf-8"?>
<!-- Generator: Adobe Illustrator 19.2.0, SVG Export Plug-In . SVG Version: 6.00 Build 0)  -->
<!DOCTYPE svg PUBLIC "-//W3C//DTD SVG 1.1//EN" "http://www.w3.org/Graphics/SVG/1.1/DTD/svg11.dtd">
<svg version="1.1" id="Layer_1" xmlns="http://www.w3.org/2000/svg" xmlns:xlink="http://www.w3.org/1999/xlink" x="0px" y="0px"
	 width="48px" height="48px" viewBox="0 0 48 48" enable-background="new 0 0 48 48" xml:space="preserve">
<path fill="#B3B3B3" d="M46,19h-4.11035c-0.95898,0-1.81787-0.58008-2.20605-1.52246
	c-0.37256-0.89648-0.17578-1.91406,0.50146-2.5918l2.90674-2.90625c0.1875-0.1875,0.29297-0.44141,0.29297-0.70703
	s-0.10547-0.51953-0.29297-0.70703L37.43506,4.9082c-0.39062-0.39062-1.02344-0.39062-1.41406,0l-2.90674,2.90625
	c-0.67822,0.67773-1.6958,0.87598-2.63623,0.4834C29.58008,7.92773,29,7.06934,29,6.11035V2c0-0.55273-0.44775-1-1-1h-8
	c-0.55225,0-1,0.44727-1,1v4.11035c0,0.95898-0.58008,1.81738-1.52148,2.20605c-0.89746,0.37207-1.91504,0.17578-2.59277-0.50195
	L11.979,4.9082c-0.39062-0.39062-1.02344-0.39062-1.41406,0L4.9082,10.56543c-0.1875,0.1875-0.29297,0.44141-0.29297,0.70703
	s0.10547,0.51953,0.29297,0.70703l2.90625,2.90625c0.67773,0.67773,0.87451,1.69531,0.4834,2.63672
	C7.92822,18.41992,7.06934,19,6.11035,19H2c-0.55225,0-1,0.44727-1,1v8c0,0.55273,0.44775,1,1,1h4.11035
	c0.95898,0,1.81787,0.58008,2.20605,1.52246c0.37256,0.89648,0.17578,1.91406-0.50146,2.5918L4.9082,36.02051
	c-0.1875,0.1875-0.29297,0.44141-0.29297,0.70703s0.10547,0.51953,0.29297,0.70703l5.65674,5.65723
	c0.39062,0.39062,1.02344,0.39062,1.41406,0l2.90674-2.90625c0.67822-0.67773,1.6958-0.87598,2.63623-0.4834
	C18.41992,40.07227,19,40.93066,19,41.88965V46c0,0.55273,0.44775,1,1,1h8c0.55225,0,1-0.44727,1-1v-4.11035
	c0-0.95898,0.58008-1.81738,1.52148-2.20605c0.89746-0.37207,1.91504-0.17676,2.59277,0.50195L36.021,43.0918
	c0.39062,0.39062,1.02344,0.39062,1.41406,0l5.65674-5.65723c0.1875-0.1875,0.29297-0.44141,0.29297-0.70703
	s-0.10547-0.51953-0.29297-0.70703l-2.90625-2.90625c-0.67773-0.67773-0.87451-1.69531-0.4834-2.63672
	C40.07178,29.58008,40.93066,29,41.88965,29H46c0.55225,0,1-0.44727,1-1v-8C47,19.44727,46.55225,19,46,19z M24,31
	c-3.86597,0-7-3.13403-7-7c0-3.86603,3.13403-7,7-7s7,3.13397,7,7C31,27.86597,27.86597,31,24,31z"/>
<path fill="#969696" d="M24,13c-6.07513,0-11,4.92487-11,11s4.92487,11,11,11s11-4.92487,11-11S30.07513,13,24,13z M24,31
	c-3.86597,0-7-3.13403-7-7c0-3.86603,3.13403-7,7-7s7,3.13397,7,7C31,27.86597,27.86597,31,24,31z"/>
</svg>
