<?xml version="1.0" encoding="utf-8"?>
<!-- Generator: Adobe Illustrator 19.2.0, SVG Export Plug-In . SVG Version: 6.00 Build 0)  -->
<!DOCTYPE svg PUBLIC "-//W3C//DTD SVG 1.1//EN" "http://www.w3.org/Graphics/SVG/1.1/DTD/svg11.dtd">
<svg version="1.1" id="Layer_1" xmlns="http://www.w3.org/2000/svg" xmlns:xlink="http://www.w3.org/1999/xlink" x="0px" y="0px"
	 width="48px" height="48px" viewBox="0 0 48 48" enable-background="new 0 0 48 48" xml:space="preserve">
<path fill="#E86C60" d="M24,47C11.31787,47,1,36.68262,1,24S11.31787,1,24,1s23,10.31738,23,23S36.68213,47,24,47z"/>
<path fill="#FFFFFF" d="M25.41406,24l7.29297-7.29297c0.39062-0.39062,0.39062-1.02344,0-1.41406s-1.02344-0.39062-1.41406,0
	L24,22.58594l-7.29297-7.29297c-0.39062-0.39062-1.02344-0.39062-1.41406,0s-0.39062,1.02344,0,1.41406L22.58594,24
	l-7.29297,7.29297c-0.39062,0.39062-0.39062,1.02344,0,1.41406C15.48828,32.90234,15.74414,33,16,33
	s0.51172-0.09766,0.70703-0.29297L24,25.41406l7.29297,7.29297C31.48828,32.90234,31.74414,33,32,33
	s0.51172-0.09766,0.70703-0.29297c0.39062-0.39062,0.39062-1.02344,0-1.41406L25.41406,24z"/>
</svg>
