<?xml version="1.0" encoding="utf-8"?>
<!-- Generator: Adobe Illustrator 19.2.0, SVG Export Plug-In . SVG Version: 6.00 Build 0)  -->
<!DOCTYPE svg PUBLIC "-//W3C//DTD SVG 1.1//EN" "http://www.w3.org/Graphics/SVG/1.1/DTD/svg11.dtd">
<svg version="1.1" id="Layer_1" xmlns="http://www.w3.org/2000/svg" xmlns:xlink="http://www.w3.org/1999/xlink" x="0px" y="0px"
	 width="48px" height="48px" viewBox="0 0 48 48" enable-background="new 0 0 48 48" xml:space="preserve">
<path fill="#444444" d="M42,20h-2.52441c-0.37756-1.46423-0.95325-2.84485-1.70349-4.11523l1.78424-1.78424
	c1.56207-1.56213,1.56207-4.09479,0-5.65686c-1.56207-1.56213-4.09479-1.56213-5.65686,0l-1.78424,1.78424
	C30.84485,9.47766,29.46423,8.90198,28,8.52441V6c0-2.20917-1.79083-4-4-4s-4,1.79083-4,4v2.52441
	c-1.46423,0.37756-2.84485,0.95325-4.11523,1.70349l-1.78424-1.78424c-1.56207-1.56213-4.09479-1.56213-5.65686,0
	c-1.56207,1.56207-1.56207,4.09473,0,5.65686l1.78424,1.78424C9.47766,17.15515,8.90198,18.53577,8.52441,20H6
	c-2.20917,0-4,1.79083-4,4c0,2.20911,1.79083,4,4,4h2.52441c0.37756,1.46423,0.95325,2.84485,1.70349,4.11523l-1.78424,1.78424
	c-1.56207,1.56207-1.56207,4.09473,0,5.65686c1.56207,1.56207,4.09479,1.56207,5.65686,0l1.78424-1.78424
	c1.27039,0.75024,2.651,1.32593,4.11523,1.70349V42c0,2.20911,1.79083,4,4,4s4-1.79089,4-4v-2.52441
	c1.46423-0.37756,2.84485-0.95325,4.11523-1.70349l1.78424,1.78424c1.56207,1.56207,4.09479,1.56207,5.65686,0
	c1.56207-1.56213,1.56207-4.09479,0-5.65686l-1.78424-1.78424c0.75024-1.27039,1.32593-2.651,1.70349-4.11523H42
	c2.20917,0,4-1.79089,4-4C46,21.79083,44.20917,20,42,20z M24,30c-3.31372,0-6-2.68628-6-6s2.68628-6,6-6s6,2.68628,6,6
	S27.31372,30,24,30z"/>
<path fill="#282828" d="M24,14c-5.52283,0-10,4.47711-10,10c0,5.52283,4.47717,10,10,10s10-4.47717,10-10
	C34,18.47711,29.52283,14,24,14z M24,30c-3.31372,0-6-2.68628-6-6s2.68628-6,6-6s6,2.68628,6,6S27.31372,30,24,30z"/>
</svg>
