<?xml version="1.0" encoding="utf-8"?>
<!-- Generator: Adobe Illustrator 19.2.0, SVG Export Plug-In . SVG Version: 6.00 Build 0)  -->
<!DOCTYPE svg PUBLIC "-//W3C//DTD SVG 1.1//EN" "http://www.w3.org/Graphics/SVG/1.1/DTD/svg11.dtd">
<svg version="1.1" id="Layer_1" xmlns="http://www.w3.org/2000/svg" xmlns:xlink="http://www.w3.org/1999/xlink" x="0px" y="0px"
	 width="48px" height="48px" viewBox="0 0 48 48" enable-background="new 0 0 48 48" xml:space="preserve">
<path fill="#BADEFC" d="M37.93579,46C37.97363,45.34033,38,44.67517,38,44c0-8.8905-3.36267-16.5304-8.19238-20
	C34.63733,20.5304,38,12.8905,38,4c0-0.67517-0.02637-1.34033-0.06421-2H10.06421C10.02637,2.65967,10,3.32483,10,4
	c0,8.8905,3.36267,16.5304,8.19238,20C13.36267,27.4696,10,35.1095,10,44c0,0.67517,0.02637,1.34033,0.06421,2H37.93579z"/>
<path fill="#A67C52" d="M42,1H6C5.44727,1,5,1.44727,5,2v2c0,0.55273,0.44727,1,1,1h36c0.55273,0,1-0.44727,1-1V2
	C43,1.44727,42.55273,1,42,1z"/>
<path fill="#A67C52" d="M42,43H6c-0.55273,0-1,0.44727-1,1v2c0,0.55273,0.44727,1,1,1h36c0.55273,0,1-0.44727,1-1v-2
	C43,43.44727,42.55273,43,42,43z"/>
<path fill="#EA9860" d="M17.24469,17c0.93774,1.57007,2.04333,2.86139,3.28168,3.75098L24,23.24707l3.47363-2.49609
	c1.23834-0.88959,2.34393-2.18091,3.28168-3.75098H17.24469z"/>
<path fill="#EA9860" d="M14,41h20c-1-4-7.06251-11-10-11C20.93749,30,14.93749,37.0625,14,41z"/>
</svg>
