<?xml version="1.0" encoding="utf-8"?>
<!-- Generator: Adobe Illustrator 19.2.0, SVG Export Plug-In . SVG Version: 6.00 Build 0)  -->
<!DOCTYPE svg PUBLIC "-//W3C//DTD SVG 1.1//EN" "http://www.w3.org/Graphics/SVG/1.1/DTD/svg11.dtd">
<svg version="1.1" id="Layer_1" xmlns="http://www.w3.org/2000/svg" xmlns:xlink="http://www.w3.org/1999/xlink" x="0px" y="0px"
	 width="48px" height="48px" viewBox="0 0 48 48" enable-background="new 0 0 48 48" xml:space="preserve">
<path fill="#72C472" d="M33,15H15c-1.10457,0-2,0.89543-2,2v14c0,1.10457,0.89543,2,2,2h18c1.10457,0,2-0.89543,2-2V17
	C35,15.89543,34.10457,15,33,15z"/>
<path fill="#B3B3B3" d="M8,33c-0.55273,0-1-0.44727-1-1V16c0-0.55273,0.44727-1,1-1s1,0.44727,1,1v16C9,32.55273,8.55273,33,8,33z"
	/>
<path fill="#B3B3B3" d="M40,33c-0.55273,0-1-0.44727-1-1V16c0-0.55273,0.44727-1,1-1s1,0.44727,1,1v16
	C41,32.55273,40.55273,33,40,33z"/>
<path fill="#B3B3B3" d="M2,41c-0.55273,0-1-0.44727-1-1V8c0-0.55273,0.44727-1,1-1s1,0.44727,1,1v32C3,40.55273,2.55273,41,2,41z"/>
<path fill="#B3B3B3" d="M46,41c-0.55273,0-1-0.44727-1-1V8c0-0.55273,0.44727-1,1-1s1,0.44727,1,1v32C47,40.55273,46.55273,41,46,41
	z"/>
</svg>
