<?xml version="1.0" encoding="utf-8"?>
<!-- Generator: Adobe Illustrator 19.2.0, SVG Export Plug-In . SVG Version: 6.00 Build 0)  -->
<!DOCTYPE svg PUBLIC "-//W3C//DTD SVG 1.1//EN" "http://www.w3.org/Graphics/SVG/1.1/DTD/svg11.dtd">
<svg version="1.1" id="Layer_1" xmlns="http://www.w3.org/2000/svg" xmlns:xlink="http://www.w3.org/1999/xlink" x="0px" y="0px"
	 width="48px" height="48px" viewBox="0 0 48 48" enable-background="new 0 0 48 48" xml:space="preserve">
<path fill="#43A6DD" d="M22,34h-7c-0.55225,0-1-0.44727-1-1v-7c0-0.26562,0.10547-0.51953,0.29297-0.70703l22-22
	c0.39062-0.39062,1.02344-0.39062,1.41406,0l7,7c0.39062,0.39062,0.39062,1.02344,0,1.41406l-22,22
	C22.51953,33.89453,22.26514,34,22,34z"/>
<path fill="#B3B3B3" d="M38,47H2c-0.55225,0-1-0.44727-1-1V10c0-0.55273,0.44775-1,1-1h16c0.55225,0,1,0.44727,1,1s-0.44775,1-1,1H3
	v34h34V30c0-0.55273,0.44775-1,1-1s1,0.44727,1,1v16C39,46.55273,38.55225,47,38,47z"/>
</svg>
