<?xml version="1.0" encoding="utf-8"?>
<!-- Generator: Adobe Illustrator 19.2.0, SVG Export Plug-In . SVG Version: 6.00 Build 0)  -->
<!DOCTYPE svg PUBLIC "-//W3C//DTD SVG 1.1//EN" "http://www.w3.org/Graphics/SVG/1.1/DTD/svg11.dtd">
<svg version="1.1" id="Layer_1" xmlns="http://www.w3.org/2000/svg" xmlns:xlink="http://www.w3.org/1999/xlink" x="0px" y="0px"
	 width="48px" height="48px" viewBox="0 0 48 48" enable-background="new 0 0 48 48" xml:space="preserve">
<path fill="#E86C60" d="M35.70703,16.29297l-4-4c-0.39062-0.39062-1.02344-0.39062-1.41406,0L24,18.58594l-6.29297-6.29297
	c-0.39062-0.39062-1.02344-0.39062-1.41406,0l-4,4c-0.39062,0.39062-0.39062,1.02344,0,1.41406L18.58594,24l-6.29297,6.29297
	c-0.39062,0.39062-0.39062,1.02344,0,1.41406l4,4c0.39062,0.39062,1.02344,0.39062,1.41406,0L24,29.41406l6.29297,6.29297
	C30.48828,35.90234,30.74414,36,31,36s0.51172-0.09766,0.70703-0.29297l4-4c0.39062-0.39062,0.39062-1.02344,0-1.41406L29.41406,24
	l6.29297-6.29297C36.09766,17.31641,36.09766,16.68359,35.70703,16.29297z"/>
</svg>
