<?xml version="1.0" encoding="utf-8"?>
<!-- Generator: Adobe Illustrator 19.2.1, SVG Export Plug-In . SVG Version: 6.00 Build 0)  -->
<!DOCTYPE svg PUBLIC "-//W3C//DTD SVG 1.1//EN" "http://www.w3.org/Graphics/SVG/1.1/DTD/svg11.dtd">
<svg version="1.1" id="Layer_1" xmlns="http://www.w3.org/2000/svg" xmlns:xlink="http://www.w3.org/1999/xlink" x="0px" y="0px"
	 width="48px" height="48px" viewBox="0 0 48 48" enable-background="new 0 0 48 48" xml:space="preserve">
<path fill="#B3B3B3" d="M21,42H2c-0.553,0-1-0.448-1-1V2c0-0.552,0.447-1,1-1h39c0.553,0,1,0.448,1,1v18c0,0.552-0.447,1-1,1
	s-1-0.448-1-1V3H3v37h18c0.553,0,1,0.448,1,1S21.553,42,21,42z"/>
<path fill="#43A6DD" d="M44.793,41.965l-7.917-7.917l7.581-3.033c0.396-0.158,0.646-0.548,0.628-0.973s-0.305-0.791-0.712-0.914
	l-20-6c-0.353-0.105-0.733-0.009-0.994,0.251c-0.26,0.26-0.356,0.642-0.251,0.994l6,20c0.122,0.408,0.488,0.693,0.913,0.712
	c0.016,0,0.03,0.001,0.045,0.001c0.407,0,0.776-0.248,0.929-0.628l3.033-7.582l7.917,7.917c0.391,0.391,1.024,0.391,1.414,0
	l1.414-1.414C45.183,42.988,45.183,42.355,44.793,41.965z"/>
</svg>
