<?xml version="1.0" encoding="utf-8"?>
<!-- Generator: Adobe Illustrator 19.2.0, SVG Export Plug-In . SVG Version: 6.00 Build 0)  -->
<!DOCTYPE svg PUBLIC "-//W3C//DTD SVG 1.1//EN" "http://www.w3.org/Graphics/SVG/1.1/DTD/svg11.dtd">
<svg version="1.1" id="Layer_1" xmlns="http://www.w3.org/2000/svg" xmlns:xlink="http://www.w3.org/1999/xlink" x="0px" y="0px"
	 width="48px" height="48px" viewBox="0 0 48 48" enable-background="new 0 0 48 48" xml:space="preserve">
<path fill="#B3B3B3" d="M38,47H2c-0.55273,0-1-0.44727-1-1V10c0-0.55273,0.44727-1,1-1h16c0.55273,0,1,0.44727,1,1s-0.44727,1-1,1H3
	v34h34V30c0-0.55273,0.44727-1,1-1s1,0.44727,1,1v16C39,46.55273,38.55273,47,38,47z"/>
<path fill="#444444" d="M16.46124,35.46124L15,33l-2.46124-1.46124l-0.38593,3.19574
	c-0.07777,0.64399,0.46869,1.19045,1.11268,1.11268L16.46124,35.46124z"/>
<polygon fill="#EAD8C5" points="22.70703,34.70703 21.95831,26 13.29297,25.29297 12.53876,31.53876 16.46124,35.46124 "/>
<polygon fill="#E86C60" points="32.29297,6.29297 13.29297,25.29297 18.75,30.75 37.65625,11.65625 "/>
<rect x="16.41849" y="19.52514" transform="matrix(0.70711 -0.70711 0.70711 0.70711 -7.41598 27.80326)" fill="#C9514B" width="26.87006" height="6.65675"/>
<path fill="#5A7A84" d="M46.70703,9.29297l-8-8c-0.39062-0.39062-1.02344-0.39062-1.41406,0l-5,5l9.41406,9.41406l5-5
	C47.09766,10.31641,47.09766,9.68359,46.70703,9.29297z"/>
<rect x="36.00011" y="4.34325" transform="matrix(0.70711 -0.70711 0.70711 0.70711 3.05887 29.38478)" fill="#223E49" width="1.99979" height="13.31349"/>
</svg>
