<?xml version="1.0" encoding="utf-8"?>
<!-- Generator: Adobe Illustrator 19.2.0, SVG Export Plug-In . SVG Version: 6.00 Build 0)  -->
<!DOCTYPE svg PUBLIC "-//W3C//DTD SVG 1.1//EN" "http://www.w3.org/Graphics/SVG/1.1/DTD/svg11.dtd">
<svg version="1.1" id="Layer_1" xmlns="http://www.w3.org/2000/svg" xmlns:xlink="http://www.w3.org/1999/xlink" x="0px" y="0px"
	 width="48px" height="48px" viewBox="0 0 48 48" enable-background="new 0 0 48 48" xml:space="preserve">
<path fill="#EA9860" d="M45,26H3c-0.55228,0-1-0.44772-1-1v-2c0-0.55228,0.44772-1,1-1h42c0.55228,0,1,0.44772,1,1v2
	C46,25.55228,45.55228,26,45,26z"/>
<path fill="#EA9860" d="M45,12H3c-0.55228,0-1-0.44771-1-1V9c0-0.55229,0.44772-1,1-1h42c0.55228,0,1,0.44771,1,1v2
	C46,11.55229,45.55228,12,45,12z"/>
<path fill="#EA9860" d="M45,40H3c-0.55228,0-1-0.44772-1-1v-2c0-0.55228,0.44772-1,1-1h42c0.55228,0,1,0.44772,1,1v2
	C46,39.55228,45.55228,40,45,40z"/>
</svg>
