<?xml version="1.0" encoding="utf-8"?>
<!-- Generator: Adobe Illustrator 19.2.0, SVG Export Plug-In . SVG Version: 6.00 Build 0)  -->
<!DOCTYPE svg PUBLIC "-//W3C//DTD SVG 1.1//EN" "http://www.w3.org/Graphics/SVG/1.1/DTD/svg11.dtd">
<svg version="1.1" id="Layer_1" xmlns="http://www.w3.org/2000/svg" xmlns:xlink="http://www.w3.org/1999/xlink" x="0px" y="0px"
	 width="48px" height="48px" viewBox="0 0 48 48" enable-background="new 0 0 48 48" xml:space="preserve">
<path fill="#5A7A84" d="M20,45c-0.18262,0-0.36523-0.0498-0.52588-0.14941C19.17969,44.66797,19,44.34668,19,44V22.45996
	L5.34912,10.75879C5.12744,10.56934,5,10.29199,5,10V2c0-0.55273,0.44775-1,1-1h36c0.55225,0,1,0.44727,1,1v8
	c0,0.29199-0.12744,0.56934-0.34912,0.75879L29,22.45996V40c0,0.37891-0.21387,0.72461-0.55273,0.89453l-8,4
	C20.30615,44.96484,20.15283,45,20,45z M42,10h0.00977H42z"/>
</svg>
