<?xml version="1.0" encoding="utf-8"?>
<!-- Generator: Adobe Illustrator 19.2.0, SVG Export Plug-In . SVG Version: 6.00 Build 0)  -->
<!DOCTYPE svg PUBLIC "-//W3C//DTD SVG 1.1//EN" "http://www.w3.org/Graphics/SVG/1.1/DTD/svg11.dtd">
<svg version="1.1" id="Layer_1" xmlns="http://www.w3.org/2000/svg" xmlns:xlink="http://www.w3.org/1999/xlink" x="0px" y="0px"
	 width="48px" height="48px" viewBox="0 0 48 48" enable-background="new 0 0 48 48" xml:space="preserve">
<path fill="#444444" d="M45,46H3c-1.10457,0-2-0.89543-2-2V4c0-1.10457,0.89543-2,2-2h42c1.10457,0,2,0.89543,2,2v40
	C47,45.10457,46.10457,46,45,46z"/>
<path fill="#E86C60" d="M44,14H4V7c0-1.10457,0.89543-2,2-2h36c1.10457,0,2,0.89543,2,2V14z"/>
<path fill="#FFFFFF" d="M4,13v28c0,1.10457,0.89543,2,2,2h36c1.10457,0,2-0.89543,2-2V13H4z"/>
<path fill="#C9514B" d="M25,10h-2c-0.55228,0-1-0.44771-1-1v0c0-0.55228,0.44771-1,1-1h2c0.55228,0,1,0.44771,1,1v0
	C26,9.55229,25.55229,10,25,10z"/>
<path fill="#C9514B" d="M14,10h-2c-0.55228,0-1-0.44771-1-1v0c0-0.55228,0.44771-1,1-1h2c0.55228,0,1,0.44771,1,1v0
	C15,9.55229,14.55229,10,14,10z"/>
<path fill="#C9514B" d="M36,10h-2c-0.55228,0-1-0.44771-1-1v0c0-0.55228,0.44772-1,1-1h2c0.55228,0,1,0.44771,1,1v0
	C37,9.55229,36.55228,10,36,10z"/>
<path fill="#B3B3B3" d="M40,31h-3v-6h3c0.55273,0,1-0.44727,1-1s-0.44727-1-1-1h-3v-5c0-0.55273-0.44727-1-1-1s-1,0.44727-1,1v5h-6
	v-5c0-0.55273-0.44727-1-1-1s-1,0.44727-1,1v5h-6v-5c0-0.55273-0.44727-1-1-1s-1,0.44727-1,1v5h-6v-5c0-0.55273-0.44727-1-1-1
	s-1,0.44727-1,1v5H8c-0.55273,0-1,0.44727-1,1s0.44727,1,1,1h3v6H8c-0.55273,0-1,0.44727-1,1s0.44727,1,1,1h3v5
	c0,0.55273,0.44727,1,1,1s1-0.44727,1-1v-5h6v5c0,0.55273,0.44727,1,1,1s1-0.44727,1-1v-5h6v5c0,0.55273,0.44727,1,1,1
	s1-0.44727,1-1v-5h6v5c0,0.55273,0.44727,1,1,1s1-0.44727,1-1v-5h3c0.55273,0,1-0.44727,1-1S40.55273,31,40,31z M13,31v-6h6v6H13z
	 M21,31v-6h6v6H21z M29,31v-6h6v6H29z"/>
</svg>
