<?xml version="1.0" encoding="utf-8"?>
<!-- Generator: Adobe Illustrator 19.2.1, SVG Export Plug-In . SVG Version: 6.00 Build 0)  -->
<!DOCTYPE svg PUBLIC "-//W3C//DTD SVG 1.1//EN" "http://www.w3.org/Graphics/SVG/1.1/DTD/svg11.dtd">
<svg version="1.1" id="Layer_1" xmlns="http://www.w3.org/2000/svg" xmlns:xlink="http://www.w3.org/1999/xlink" x="0px" y="0px"
	 width="48px" height="48px" viewBox="0 0 48 48" enable-background="new 0 0 48 48" xml:space="preserve">
<path fill="#43A6DD" d="M5,35c-2.206,0-4-1.794-4-4s1.794-4,4-4s4,1.794,4,4S7.206,35,5,35z"/>
<path fill="#43A6DD" d="M5,11c-2.206,0-4-1.794-4-4s1.794-4,4-4s4,1.794,4,4S7.206,11,5,11z"/>
<path fill="#B3B3B3" d="M46,8H14c-0.552,0-1-0.448-1-1s0.448-1,1-1h32c0.552,0,1,0.448,1,1S46.552,8,46,8z"/>
<path fill="#B3B3B3" d="M46,20H14c-0.552,0-1-0.448-1-1s0.448-1,1-1h32c0.552,0,1,0.448,1,1S46.552,20,46,20z"/>
<path fill="#B3B3B3" d="M46,32H14c-0.552,0-1-0.448-1-1s0.448-1,1-1h32c0.552,0,1,0.448,1,1S46.552,32,46,32z"/>
<path fill="#B3B3B3" d="M46,44H14c-0.552,0-1-0.448-1-1s0.448-1,1-1h32c0.552,0,1,0.448,1,1S46.552,44,46,44z"/>
</svg>
