<?xml version="1.0" encoding="utf-8"?>
<!-- Generator: Adobe Illustrator 19.2.0, SVG Export Plug-In . SVG Version: 6.00 Build 0)  -->
<!DOCTYPE svg PUBLIC "-//W3C//DTD SVG 1.1//EN" "http://www.w3.org/Graphics/SVG/1.1/DTD/svg11.dtd">
<svg version="1.1" id="Layer_1" xmlns="http://www.w3.org/2000/svg" xmlns:xlink="http://www.w3.org/1999/xlink" x="0px" y="0px"
	 width="48px" height="48px" viewBox="0 0 48 48" enable-background="new 0 0 48 48" xml:space="preserve">
<path fill="#72C472" d="M12.99999,22h22.00002C40.52285,22,45,17.52285,45,12.00001v-0.00002C45,6.47715,40.52285,2,35.00001,2
	H12.99999C7.47715,2,3,6.47715,3,11.99999v0.00002C3,17.52285,7.47715,22,12.99999,22z"/>
<path fill="#E86C60" d="M12.99999,46h22.00002C40.52285,46,45,41.52285,45,36.00001v-0.00002C45,30.47715,40.52285,26,35.00001,26
	H12.99999C7.47715,26,3,30.47715,3,35.99999v0.00002C3,41.52285,7.47715,46,12.99999,46z"/>
<circle fill="#FFFFFF" cx="13" cy="12" r="7"/>
<circle fill="#FFFFFF" cx="35" cy="36" r="7"/>
</svg>
