<?xml version="1.0" encoding="utf-8"?>
<!-- Generator: Adobe Illustrator 19.2.0, SVG Export Plug-In . SVG Version: 6.00 Build 0)  -->
<!DOCTYPE svg PUBLIC "-//W3C//DTD SVG 1.1//EN" "http://www.w3.org/Graphics/SVG/1.1/DTD/svg11.dtd">
<svg version="1.1" id="Layer_1" xmlns="http://www.w3.org/2000/svg" xmlns:xlink="http://www.w3.org/1999/xlink" x="0px" y="0px"
	 width="48px" height="48px" viewBox="0 0 48 48" enable-background="new 0 0 48 48" xml:space="preserve">
<path fill="#E6E6E6" d="M45,43H3c-1.10457,0-2-0.89543-2-2V7c0-1.10457,0.89543-2,2-2h42c1.10457,0,2,0.89543,2,2v34
	C47,42.10457,46.10457,43,45,43z"/>
<path fill="#B3B3B3" d="M24,29c-0.25586,0-0.51172-0.09766-0.70703-0.29297l-14-14c-0.39062-0.39062-0.39062-1.02344,0-1.41406
	s1.02344-0.39062,1.41406,0L24,26.58594l13.29297-13.29297c0.39062-0.39062,1.02344-0.39062,1.41406,0s0.39062,1.02344,0,1.41406
	l-14,14C24.51172,28.90234,24.25586,29,24,29z"/>
<path fill="#B3B3B3" d="M10,35c-0.25586,0-0.51172-0.09766-0.70703-0.29297c-0.39062-0.39062-0.39062-1.02344,0-1.41406l4-4
	c0.39062-0.39062,1.02344-0.39062,1.41406,0s0.39062,1.02344,0,1.41406l-4,4C10.51172,34.90234,10.25586,35,10,35z"/>
<path fill="#B3B3B3" d="M38,35c-0.25586,0-0.51172-0.09766-0.70703-0.29297l-4-4c-0.39062-0.39062-0.39062-1.02344,0-1.41406
	s1.02344-0.39062,1.41406,0l4,4c0.39062,0.39062,0.39062,1.02344,0,1.41406C38.51172,34.90234,38.25586,35,38,35z"/>
</svg>
