<?xml version="1.0" encoding="utf-8"?>
<!-- Generator: Adobe Illustrator 19.2.1, SVG Export Plug-In . SVG Version: 6.00 Build 0)  -->
<!DOCTYPE svg PUBLIC "-//W3C//DTD SVG 1.1//EN" "http://www.w3.org/Graphics/SVG/1.1/DTD/svg11.dtd">
<svg version="1.1" id="Layer_1" xmlns="http://www.w3.org/2000/svg" xmlns:xlink="http://www.w3.org/1999/xlink" x="0px" y="0px"
	 width="48px" height="48px" viewBox="0 0 48 48" enable-background="new 0 0 48 48" xml:space="preserve">
<path fill="#B9B9E7" d="M3,22h4c0.552,0,1,0.448,1,1v2c0,0.552-0.448,1-1,1H3c-0.552,0-1-0.448-1-1v-2C2,22.448,2.448,22,3,22z"/>
<path fill="#827FD3" d="M3,8h32c0.552,0,1,0.448,1,1v2c0,0.552-0.448,1-1,1H3c-0.552,0-1-0.448-1-1V9C2,8.448,2.448,8,3,8z"/>
<path fill="#827FD3" d="M13,22h32c0.552,0,1,0.448,1,1v2c0,0.552-0.448,1-1,1H13c-0.552,0-1-0.448-1-1v-2C12,22.448,12.448,22,13,22
	z"/>
<path fill="#B9B9E7" d="M41,8h4c0.552,0,1,0.448,1,1v2c0,0.552-0.448,1-1,1h-4c-0.552,0-1-0.448-1-1V9C40,8.448,40.448,8,41,8z"/>
<path fill="#B9B9E7" d="M41,36h4c0.552,0,1,0.448,1,1v2c0,0.552-0.448,1-1,1h-4c-0.552,0-1-0.448-1-1v-2C40,36.448,40.448,36,41,36z
	"/>
<path fill="#827FD3" d="M3,36h32c0.552,0,1,0.448,1,1v2c0,0.552-0.448,1-1,1H3c-0.552,0-1-0.448-1-1v-2C2,36.448,2.448,36,3,36z"/>
</svg>
