<?xml version="1.0" encoding="utf-8"?>
<!-- Generator: Adobe Illustrator 19.2.0, SVG Export Plug-In . SVG Version: 6.00 Build 0)  -->
<!DOCTYPE svg PUBLIC "-//W3C//DTD SVG 1.1//EN" "http://www.w3.org/Graphics/SVG/1.1/DTD/svg11.dtd">
<svg version="1.1" id="Layer_1" xmlns="http://www.w3.org/2000/svg" xmlns:xlink="http://www.w3.org/1999/xlink" x="0px" y="0px"
	 width="48px" height="48px" viewBox="0 0 48 48" enable-background="new 0 0 48 48" xml:space="preserve">
<path fill="#E86C60" d="M24,47c-8.35645,0-17-6.35889-17-17C7,19.83008,22.625,3.96582,23.29004,3.29541
	c0.37598-0.37793,1.04395-0.37793,1.41992,0C25.375,3.96582,41,19.83008,41,30C41,40.64111,32.35645,47,24,47z"/>
<path fill="#EFD358" d="M24,36c-1.55664,0-6-1.10254-6-6c0.0918-1.91602,2.56348-6.17676,5.99316-10.71875
	c3.4375,4.55469,5.91602,8.82324,6.00684,10.74023C30,34.89746,25.55664,36,24,36z"/>
</svg>
