<?xml version="1.0" encoding="utf-8"?>
<!-- Generator: Adobe Illustrator 19.2.0, SVG Export Plug-In . SVG Version: 6.00 Build 0)  -->
<!DOCTYPE svg PUBLIC "-//W3C//DTD SVG 1.1//EN" "http://www.w3.org/Graphics/SVG/1.1/DTD/svg11.dtd">
<svg version="1.1" id="Layer_1" xmlns="http://www.w3.org/2000/svg" xmlns:xlink="http://www.w3.org/1999/xlink" x="0px" y="0px"
	 width="48px" height="48px" viewBox="0 0 48 48" enable-background="new 0 0 48 48" xml:space="preserve">
<path fill="#B3B3B3" d="M43,45c-0.51172,0-1.02393-0.19531-1.41406-0.58594l-11-11c-0.78125-0.78076-0.78125-2.04736,0-2.82812
	c0.78027-0.78125,2.04785-0.78125,2.82812,0l11,11c0.78125,0.78076,0.78125,2.04736,0,2.82812C44.02393,44.80469,43.51172,45,43,45z
	"/>
<circle fill="#43A6DD" cx="20" cy="20" r="18"/>
<path fill="#444444" d="M20,39C9.52344,39,1,30.47656,1,20S9.52344,1,20,1s19,8.52344,19,19S30.47656,39,20,39z M20,3
	C10.62598,3,3,10.62598,3,20s7.62598,17,17,17s17-7.62598,17-17S29.37402,3,20,3z"/>
<path fill="#BADEFC" d="M10.20117,18.99951c-0.06592,0-0.13281-0.00635-0.19971-0.02002
	c-0.5415-0.10986-0.89111-0.6377-0.78125-1.17871c0.87939-4.33301,4.24756-7.70068,8.58105-8.58057
	c0.54004-0.11133,1.06885,0.23975,1.17871,0.78125c0.10986,0.54102-0.23975,1.06885-0.78125,1.17871
	c-3.54395,0.71973-6.29883,3.47461-7.01855,7.01807C11.08398,18.67236,10.66699,18.99951,10.20117,18.99951z"/>
</svg>
