<?xml version="1.0" encoding="utf-8"?>
<!-- Generator: Adobe Illustrator 19.2.0, SVG Export Plug-In . SVG Version: 6.00 Build 0)  -->
<!DOCTYPE svg PUBLIC "-//W3C//DTD SVG 1.1//EN" "http://www.w3.org/Graphics/SVG/1.1/DTD/svg11.dtd">
<svg version="1.1" id="Layer_1" xmlns="http://www.w3.org/2000/svg" xmlns:xlink="http://www.w3.org/1999/xlink" x="0px" y="0px"
	 width="48px" height="48px" viewBox="0 0 48 48" enable-background="new 0 0 48 48" xml:space="preserve">
<path fill="#E86C60" d="M18,13c-0.40479,0-0.78564-0.24707-0.93652-0.64844l-3-8c-0.19385-0.51758,0.06836-1.09375,0.58545-1.28809
	c0.51758-0.19238,1.09326,0.06836,1.2876,0.58496l3,8c0.19385,0.51758-0.06836,1.09375-0.58545,1.28809
	C18.23535,12.97949,18.1167,13,18,13z"/>
<path fill="#E86C60" d="M28,13c-0.1167,0-0.23535-0.02051-0.35107-0.06348c-0.51709-0.19434-0.7793-0.77051-0.58545-1.28809l3-8
	c0.19482-0.5166,0.77148-0.77734,1.2876-0.58496c0.51709,0.19434,0.7793,0.77051,0.58545,1.28809l-3,8
	C28.78564,12.75293,28.40479,13,28,13z"/>
<path fill="#E86C60" d="M15,44c-0.1167,0-0.23535-0.02051-0.35107-0.06348c-0.51709-0.19434-0.7793-0.77051-0.58545-1.28809l3-8
	c0.19482-0.5166,0.77148-0.77637,1.2876-0.58496c0.51709,0.19434,0.7793,0.77051,0.58545,1.28809l-3,8
	C15.78564,43.75293,15.40479,44,15,44z"/>
<path fill="#E86C60" d="M31,44c-0.40479,0-0.78564-0.24707-0.93652-0.64844l-3-8c-0.19385-0.51758,0.06836-1.09375,0.58545-1.28809
	c0.51758-0.19141,1.09326,0.06836,1.2876,0.58496l3,8c0.19385,0.51758-0.06836,1.09375-0.58545,1.28809
	C31.23535,43.97949,31.1167,44,31,44z"/>
<path fill="#B3B3B3" d="M14.5,32h-6C3.81348,32,0,28.18652,0,23.5S3.81348,15,8.5,15h6c4.68652,0,8.5,3.81348,8.5,8.5
	S19.18652,32,14.5,32z M8.5,18C5.46777,18,3,20.46777,3,23.5S5.46777,29,8.5,29h6c3.03223,0,5.5-2.46777,5.5-5.5
	S17.53223,18,14.5,18H8.5z"/>
<path fill="#B3B3B3" d="M38.5,32h-6c-4.68652,0-8.5-3.81348-8.5-8.5s3.81348-8.5,8.5-8.5h6c4.68652,0,8.5,3.81348,8.5,8.5
	S43.18652,32,38.5,32z M32.5,18c-3.03223,0-5.5,2.46777-5.5,5.5s2.46777,5.5,5.5,5.5h6c3.03223,0,5.5-2.46777,5.5-5.5
	S41.53223,18,38.5,18H32.5z"/>
<path fill="#D8D8D8" d="M33.5,25h-20c-0.82812,0-1.5-0.67188-1.5-1.5s0.67188-1.5,1.5-1.5h20c0.82812,0,1.5,0.67188,1.5,1.5
	S34.32812,25,33.5,25z"/>
<path fill="#999999" d="M22.85925,25h-3.07257c-0.21082,0.74133-0.56891,1.42114-1.04767,2h3.49792
	C22.52319,26.36993,22.73376,25.70032,22.85925,25z"/>
<path fill="#999999" d="M24.76306,27h3.49792c-0.47876-0.57886-0.83685-1.25867-1.04767-2h-3.07257
	C24.26624,25.70032,24.47681,26.36993,24.76306,27z"/>
</svg>
