<?xml version="1.0" encoding="utf-8"?>
<!-- Generator: Adobe Illustrator 19.2.0, SVG Export Plug-In . SVG Version: 6.00 Build 0)  -->
<!DOCTYPE svg PUBLIC "-//W3C//DTD SVG 1.1//EN" "http://www.w3.org/Graphics/SVG/1.1/DTD/svg11.dtd">
<svg version="1.1" id="Layer_1" xmlns="http://www.w3.org/2000/svg" xmlns:xlink="http://www.w3.org/1999/xlink" x="0px" y="0px"
	 width="48px" height="48px" viewBox="0 0 48 48" enable-background="new 0 0 48 48" xml:space="preserve">
<path fill="#72C472" d="M22,31c-0.25586,0-0.51172-0.09766-0.70703-0.29297l-8-8c-0.39062-0.39062-0.39062-1.02344,0-1.41406
	s1.02344-0.39062,1.41406,0L22,28.58594L43.29297,7.29297c0.39062-0.39062,1.02344-0.39062,1.41406,0s0.39062,1.02344,0,1.41406
	l-22,22C22.51172,30.90234,22.25586,31,22,31z"/>
<path fill="#B3B3B3" d="M40,47H2c-0.55225,0-1-0.44775-1-1V8c0-0.55225,0.44775-1,1-1h28c0.55225,0,1,0.44775,1,1s-0.44775,1-1,1H3
	v36h36V26c0-0.55225,0.44775-1,1-1s1,0.44775,1,1v20C41,46.55225,40.55225,47,40,47z"/>
</svg>
