<?xml version="1.0" encoding="utf-8"?>
<!-- Generator: Adobe Illustrator 19.2.0, SVG Export Plug-In . SVG Version: 6.00 Build 0)  -->
<!DOCTYPE svg PUBLIC "-//W3C//DTD SVG 1.1//EN" "http://www.w3.org/Graphics/SVG/1.1/DTD/svg11.dtd">
<svg version="1.1" id="Layer_1" xmlns="http://www.w3.org/2000/svg" xmlns:xlink="http://www.w3.org/1999/xlink" x="0px" y="0px"
	 width="48px" height="48px" viewBox="0 0 48 48" enable-background="new 0 0 48 48" xml:space="preserve">
<path fill="#444444" d="M24,47C11.31738,47,1,36.68213,1,24S11.31738,1,24,1s23,10.31787,23,23S36.68262,47,24,47z"/>
<path fill="#E86C60" d="M24,11c-0.55273,0-1-0.44775-1-1V8c0-0.55225,0.44727-1,1-1s1,0.44775,1,1v2C25,10.55225,24.55273,11,24,11z
	"/>
<path fill="#E86C60" d="M40,25h-2c-0.55273,0-1-0.44775-1-1s0.44727-1,1-1h2c0.55273,0,1,0.44775,1,1S40.55273,25,40,25z"/>
<path fill="#E86C60" d="M33.89941,15.10059c-0.25586,0-0.51172-0.09766-0.70703-0.29297c-0.39062-0.39062-0.39062-1.02344,0-1.41406
	l1.41406-1.41406c0.39062-0.39062,1.02344-0.39062,1.41406,0s0.39062,1.02344,0,1.41406l-1.41406,1.41406
	C34.41113,15.00293,34.15527,15.10059,33.89941,15.10059z"/>
<path fill="#43A6DD" d="M14.10059,15.10059c0.25586,0,0.51172-0.09766,0.70703-0.29297c0.39062-0.39062,0.39062-1.02344,0-1.41406
	l-1.41406-1.41406c-0.39062-0.39062-1.02344-0.39062-1.41406,0s-0.39062,1.02344,0,1.41406l1.41406,1.41406
	C13.58887,15.00293,13.84473,15.10059,14.10059,15.10059z"/>
<path fill="#E86C60" d="M33.89941,32.89941c-0.25586,0-0.51172,0.09766-0.70703,0.29297c-0.39062,0.39062-0.39062,1.02344,0,1.41406
	l1.41406,1.41406c0.39062,0.39062,1.02344,0.39062,1.41406,0s0.39062-1.02344,0-1.41406l-1.41406-1.41406
	C34.41113,32.99707,34.15527,32.89941,33.89941,32.89941z"/>
<path fill="#43A6DD" d="M14.10059,32.89941c0.25586,0,0.51172,0.09766,0.70703,0.29297c0.39062,0.39062,0.39062,1.02344,0,1.41406
	l-1.41406,1.41406c-0.39062,0.39062-1.02344,0.39062-1.41406,0s-0.39062-1.02344,0-1.41406l1.41406-1.41406
	C13.58887,32.99707,13.84473,32.89941,14.10059,32.89941z"/>
<path fill="#43A6DD" d="M10,25H8c-0.55273,0-1-0.44775-1-1s0.44727-1,1-1h2c0.55273,0,1,0.44775,1,1S10.55273,25,10,25z"/>
<path fill="#FFFFFF" d="M26.12132,26.12132c-1.16963,1.16963-3.07302,1.16963-4.24264,0S17,17,17,17
	s7.95169,3.70905,9.12132,4.87868S27.29095,24.95169,26.12132,26.12132z"/>
</svg>
