<?xml version="1.0" encoding="utf-8"?>
<!-- Generator: Adobe Illustrator 19.2.0, SVG Export Plug-In . SVG Version: 6.00 Build 0)  -->
<!DOCTYPE svg PUBLIC "-//W3C//DTD SVG 1.1//EN" "http://www.w3.org/Graphics/SVG/1.1/DTD/svg11.dtd">
<svg version="1.1" id="Layer_1" xmlns="http://www.w3.org/2000/svg" xmlns:xlink="http://www.w3.org/1999/xlink" x="0px" y="0px"
	 width="48px" height="48px" viewBox="0 0 48 48" enable-background="new 0 0 48 48" xml:space="preserve">
<path fill="#335262" d="M35,46c-0.18457,0-0.36816-0.05078-0.53027-0.15186L19,36.1792L3.53027,45.84814
	c-0.30859,0.19336-0.69824,0.20264-1.01465,0.02637C2.19727,45.69824,2,45.36377,2,45V4c0-1.10457,0.89543-2,2-2h30
	c1.10457,0,2,0.89543,2,2v41c0,0.36377-0.19727,0.69824-0.51562,0.87451C35.33398,45.9585,35.16699,46,35,46z"/>
<circle fill="#72C472" cx="36" cy="26" r="10"/>
<path fill="#FFFFFF" d="M40,25h-3v-3c0-0.55225-0.44775-1-1-1s-1,0.44775-1,1v3h-3c-0.55225,0-1,0.44775-1,1s0.44775,1,1,1h3v3
	c0,0.55225,0.44775,1,1,1s1-0.44775,1-1v-3h3c0.55225,0,1-0.44775,1-1S40.55225,25,40,25z"/>
</svg>
