<?xml version="1.0" encoding="utf-8"?>
<!-- Generator: Adobe Illustrator 19.2.0, SVG Export Plug-In . SVG Version: 6.00 Build 0)  -->
<!DOCTYPE svg PUBLIC "-//W3C//DTD SVG 1.1//EN" "http://www.w3.org/Graphics/SVG/1.1/DTD/svg11.dtd">
<svg version="1.1" id="Layer_1" xmlns="http://www.w3.org/2000/svg" xmlns:xlink="http://www.w3.org/1999/xlink" x="0px" y="0px"
	 width="48px" height="48px" viewBox="0 0 48 48" enable-background="new 0 0 48 48" xml:space="preserve">
<path fill="#E86C60" d="M45,1H3C1.89543,1,1,1.89543,1,3v42c0,1.10457,0.89543,2,2,2h42c1.10457,0,2-0.89543,2-2V3
	C47,1.89543,46.10457,1,45,1z"/>
<path fill="#FFFFFF" d="M34.29289,30.29289L28,24l6.29289-6.29289c0.39053-0.39053,0.39053-1.02369,0-1.41422l-2.58578-2.58579
	c-0.39053-0.39052-1.02369-0.39052-1.41422,0L24,20l-6.29289-6.29289c-0.39053-0.39052-1.02369-0.39052-1.41422,0l-2.58579,2.58579
	c-0.39052,0.39053-0.39052,1.02369,0,1.41422L20,24l-6.29289,6.29289c-0.39052,0.39053-0.39052,1.02369,0,1.41422l2.58579,2.58578
	c0.39053,0.39053,1.02369,0.39053,1.41422,0L24,28l6.29289,6.29289c0.39053,0.39053,1.02369,0.39053,1.41422,0l2.58578-2.58578
	C34.68342,31.31658,34.68342,30.68342,34.29289,30.29289z"/>
</svg>
