<?xml version="1.0" encoding="utf-8"?>
<!-- Generator: Adobe Illustrator 19.2.0, SVG Export Plug-In . SVG Version: 6.00 Build 0)  -->
<!DOCTYPE svg PUBLIC "-//W3C//DTD SVG 1.1//EN" "http://www.w3.org/Graphics/SVG/1.1/DTD/svg11.dtd">
<svg version="1.1" id="Layer_1" xmlns="http://www.w3.org/2000/svg" xmlns:xlink="http://www.w3.org/1999/xlink" x="0px" y="0px"
	 width="48px" height="48px" viewBox="0 0 48 48" enable-background="new 0 0 48 48" xml:space="preserve">
<path fill="#223E49" d="M24,45c-0.17773,0-0.35645-0.04736-0.51465-0.14258l-20-12C3.18457,32.67676,3,32.35107,3,32
	s0.18457-0.67676,0.48535-0.85742l20-12c0.31641-0.19043,0.71289-0.19043,1.0293,0l20,12C44.81543,31.32324,45,31.64893,45,32
	s-0.18457,0.67676-0.48535,0.85742l-20,12C24.35645,44.95264,24.17773,45,24,45z"/>
<path fill="#335262" d="M24,37c-0.17773,0-0.35645-0.04736-0.51465-0.14258l-20-12C3.18457,24.67676,3,24.35107,3,24
	s0.18457-0.67676,0.48535-0.85742l20-12c0.31641-0.19043,0.71289-0.19043,1.0293,0l20,12C44.81543,23.32324,45,23.64893,45,24
	s-0.18457,0.67676-0.48535,0.85742l-20,12C24.35645,36.95264,24.17773,37,24,37z"/>
<path fill="#5A7A84" d="M24,29c-0.17773,0-0.35645-0.04736-0.51465-0.14258l-20-12C3.18457,16.67676,3,16.35107,3,16
	s0.18457-0.67676,0.48535-0.85742l20-12c0.31641-0.19043,0.71289-0.19043,1.0293,0l20,12C44.81543,15.32324,45,15.64893,45,16
	s-0.18457,0.67676-0.48535,0.85742l-20,12C24.35645,28.95264,24.17773,29,24,29z"/>
</svg>
