<?xml version="1.0" encoding="utf-8"?>
<!-- Generator: Adobe Illustrator 19.2.0, SVG Export Plug-In . SVG Version: 6.00 Build 0)  -->
<!DOCTYPE svg PUBLIC "-//W3C//DTD SVG 1.1//EN" "http://www.w3.org/Graphics/SVG/1.1/DTD/svg11.dtd">
<svg version="1.1" id="Layer_1" xmlns="http://www.w3.org/2000/svg" xmlns:xlink="http://www.w3.org/1999/xlink" x="0px" y="0px"
	 width="48px" height="48px" viewBox="0 0 48 48" enable-background="new 0 0 48 48" xml:space="preserve">
<path fill="#B3B3B3" d="M41,19h5c0.55228,0,1,0.44772,1,1v8c0,0.55228-0.44772,1-1,1h-5V19z"/>
<path fill="#335262" d="M40,11H3c-1.10457,0-2,0.89543-2,2v22c0,1.10457,0.89543,2,2,2h37c1.10457,0,2-0.89543,2-2V13
	C42,11.89543,41.10457,11,40,11z"/>
<path fill="#EFD358" d="M11,21.99951c0-0.17822,0.04736-0.35742,0.14551-0.51855c0.24902-0.41064,0.75586-0.58594,1.20557-0.41748
	L19,23.55713V17c0-0.39502,0.23242-0.75293,0.59326-0.91357s0.78223-0.09375,1.07568,0.17041l10,9
	c0.35791,0.32178,0.43506,0.85156,0.18555,1.26221c-0.24902,0.41064-0.75586,0.58594-1.20557,0.41748L23,24.44287V31
	c0,0.39502-0.23242,0.75293-0.59326,0.91357s-0.78223,0.09375-1.07568-0.17041l-10-9C11.11377,22.54785,11,22.27539,11,21.99951z"/>
</svg>
