<?xml version="1.0" encoding="utf-8"?>
<!-- Generator: Adobe Illustrator 19.2.1, SVG Export Plug-In . SVG Version: 6.00 Build 0)  -->
<!DOCTYPE svg PUBLIC "-//W3C//DTD SVG 1.1//EN" "http://www.w3.org/Graphics/SVG/1.1/DTD/svg11.dtd">
<svg version="1.1" id="Layer_1" xmlns="http://www.w3.org/2000/svg" xmlns:xlink="http://www.w3.org/1999/xlink" x="0px" y="0px"
	 width="48px" height="48px" viewBox="0 0 48 48" enable-background="new 0 0 48 48" xml:space="preserve">
<path fill="#B3B3B3" d="M46.865,23.499l-11-19C35.687,4.19,35.356,4,35,4H13c-0.356,0-0.687,0.19-0.865,0.499l-11,19
	c-0.18,0.31-0.18,0.692,0,1.002l11,19C12.313,43.81,12.644,44,13,44h22c0.356,0,0.687-0.19,0.865-0.499l11-19
	C47.045,24.191,47.045,23.809,46.865,23.499z M24,33c-4.971,0-9-4.029-9-9c0-4.971,4.029-9,9-9s9,4.029,9,9
	C33,28.971,28.971,33,24,33z"/>
</svg>
