<?xml version="1.0" encoding="utf-8"?>
<!-- Generator: Adobe Illustrator 19.2.0, SVG Export Plug-In . SVG Version: 6.00 Build 0)  -->
<!DOCTYPE svg PUBLIC "-//W3C//DTD SVG 1.1//EN" "http://www.w3.org/Graphics/SVG/1.1/DTD/svg11.dtd">
<svg version="1.1" id="Layer_1" xmlns="http://www.w3.org/2000/svg" xmlns:xlink="http://www.w3.org/1999/xlink" x="0px" y="0px"
	 width="48px" height="48px" viewBox="0 0 48 48" enable-background="new 0 0 48 48" xml:space="preserve">
<path fill="#43A6DD" d="M24,1C11.31738,1,1,11.31787,1,24s10.31738,23,23,23s23-10.31787,23-23S36.68262,1,24,1z"/>
<path fill="#FFFFFF" d="M28,33h-3V22c0-0.55225-0.44727-1-1-1h-4c-0.55273,0-1,0.44775-1,1s0.44727,1,1,1h3v10h-3
	c-0.55273,0-1,0.44775-1,1s0.44727,1,1,1h8c0.55273,0,1-0.44775,1-1S28.55273,33,28,33z"/>
<circle fill="#FFFFFF" cx="24" cy="16" r="2"/>
</svg>
