<?xml version="1.0" encoding="utf-8"?>
<!-- Generator: Adobe Illustrator 19.2.0, SVG Export Plug-In . SVG Version: 6.00 Build 0)  -->
<!DOCTYPE svg PUBLIC "-//W3C//DTD SVG 1.1//EN" "http://www.w3.org/Graphics/SVG/1.1/DTD/svg11.dtd">
<svg version="1.1" id="Layer_1" xmlns="http://www.w3.org/2000/svg" xmlns:xlink="http://www.w3.org/1999/xlink" x="0px" y="0px"
	 width="48px" height="48px" viewBox="0 0 48 48" enable-background="new 0 0 48 48" xml:space="preserve">
<path fill="#8E8E8E" d="M21,18.69922l-6.42957-6.42957l0.86511-2.59583c0.12012-0.35938,0.02637-0.75586-0.24121-1.02344
	L9.53809,2.99414c-0.39062-0.39062-1.02344-0.39062-1.41406,0L2.4668,8.65039C2.2793,8.83789,2.17383,9.0918,2.17383,9.35742
	S2.2793,9.87695,2.4668,10.06445l5.65723,5.65723c0.19043,0.19043,0.44629,0.29297,0.70703,0.29297
	c0.10547,0,0.21289-0.0166,0.31641-0.05176l2.59497-0.86499l6.42944,6.42944c0.39061,0.39062,0.90234,0.58594,1.41406,0.58594
	S20.60938,21.91797,21,21.52734C21.78125,20.74609,21.78125,19.48047,21,18.69922z"/>
<path fill="#E86C60" d="M20.73654,31.26346l12.701,12.70101c2.76142,2.76142,7.23857,2.76142,9.99999,0l0.00001-0.00001
	c2.76142-2.76142,2.76142-7.23857,0-9.99999l-12.701-12.70101L20.73654,31.26346z"/>
<path fill="#C9514B" d="M39.32031,40.84668c-0.25586,0-0.51172-0.09766-0.70703-0.29297L30.1543,32.0957
	c-0.39062-0.39062-0.39062-1.02344,0-1.41406s1.02344-0.39062,1.41406,0l8.45898,8.45801c0.39062,0.39062,0.39062,1.02344,0,1.41406
	C39.83203,40.74902,39.57617,40.84668,39.32031,40.84668z"/>
<path fill="#B3B3B3" d="M45.85059,9.26562c-0.10742-0.33105-0.37891-0.58203-0.7168-0.66406
	c-0.3418-0.08105-0.69531,0.01953-0.94141,0.26562l-5.24023,5.23926l-5.65723-5.65723l5.24023-5.23926
	c0.24609-0.24609,0.34668-0.60254,0.26562-0.94043c-0.08203-0.33887-0.33301-0.61035-0.66406-0.71777
	c-1.53906-0.49902-3.13477-0.68066-4.73633-0.54199c-6.14941,0.53223-11.06641,5.9873-10.96094,12.1582
	c0.0166,0.95117,0.14551,1.89648,0.38574,2.81738L4.07617,32.53516c-1.59863,1.41211-2.51465,3.36328-2.58105,5.49414
	s0.72754,4.13477,2.23535,5.64258c1.44922,1.44922,3.35742,2.23828,5.39648,2.23828c0.08203,0,0.16504-0.00098,0.24707-0.00391
	c2.13086-0.06641,4.08203-0.9834,5.49316-2.58105l16.54883-18.74805c1.76855,0.46289,3.58789,0.51172,5.4209,0.14844
	c4.35057-0.86621,7.93555-4.16895,9.13184-8.41309C46.62695,13.97461,46.58691,11.53809,45.85059,9.26562z M10,39
	c-1.10455,0-2-0.89545-2-2c0-1.10461,0.89545-2,2-2s2,0.89539,2,2C12,38.10455,11.10455,39,10,39z"/>
</svg>
