<?xml version="1.0" encoding="utf-8"?>
<!-- Generator: Adobe Illustrator 19.2.1, SVG Export Plug-In . SVG Version: 6.00 Build 0)  -->
<!DOCTYPE svg PUBLIC "-//W3C//DTD SVG 1.1//EN" "http://www.w3.org/Graphics/SVG/1.1/DTD/svg11.dtd">
<svg version="1.1" id="Layer_1" xmlns="http://www.w3.org/2000/svg" xmlns:xlink="http://www.w3.org/1999/xlink" x="0px" y="0px"
	 width="48px" height="48px" viewBox="0 0 48 48" enable-background="new 0 0 48 48" xml:space="preserve">
<path fill="#E86C60" d="M42,8c0-1.105-0.895-2-2-2H3C1.895,6,1,6.895,1,8v6h41V8z"/>
<path fill="#E6E6E6" d="M42,44V14H1v30c0,1.105,0.895,2,2,2h37C41.105,46,42,45.105,42,44z"/>
<path fill="#444444" d="M12,2h-2C9.447,2,9,2.447,9,3v6c0,0.553,0.447,1,1,1h2c0.553,0,1-0.447,1-1V3C13,2.447,12.553,2,12,2z"/>
<path fill="#444444" d="M33,10h-2c-0.552,0-1-0.448-1-1V3c0-0.552,0.448-1,1-1h2c0.552,0,1,0.448,1,1v6C34,9.552,33.552,10,33,10z"
	/>
<path fill="#B3B3B3" d="M23,31h16v3c0,0.388,0.225,0.741,0.576,0.906c0.353,0.164,0.767,0.111,1.064-0.138l6-5
	C46.868,29.578,47,29.297,47,29s-0.132-0.578-0.36-0.768l-6-5C40.457,23.079,40.229,23,40,23c-0.144,0-0.289,0.031-0.424,0.095
	C39.225,23.259,39,23.612,39,24v3H23c-0.552,0-1,0.448-1,1v2C22,30.552,22.448,31,23,31z"/>
</svg>
