<?xml version="1.0" encoding="utf-8"?>
<!-- Generator: Adobe Illustrator 19.2.0, SVG Export Plug-In . SVG Version: 6.00 Build 0)  -->
<!DOCTYPE svg PUBLIC "-//W3C//DTD SVG 1.1//EN" "http://www.w3.org/Graphics/SVG/1.1/DTD/svg11.dtd">
<svg version="1.1" id="Layer_1" xmlns="http://www.w3.org/2000/svg" xmlns:xlink="http://www.w3.org/1999/xlink" x="0px" y="0px"
	 width="48px" height="48px" viewBox="0 0 48 48" enable-background="new 0 0 48 48" xml:space="preserve">
<path fill="#7F7F7F" d="M13,43c-0.20215,0,4.0459-17.29785,4.0459-17.29785c0.10352-0.33398,0.375-0.58984,0.71484-0.67285
	c0.33887-0.08594,0.69922,0.0166,0.94629,0.26367l7,7c0.20508,0.20508,0.31055,0.48828,0.29004,0.77832
	c-0.02051,0.28906-0.16504,0.55469-0.39746,0.72852l-12,9C13.42285,42.93359,13.21094,43,13,43z"/>
<path fill="#E6E6E6" d="M35.99219,45c-0.21289,0-0.4248-0.06836-0.59961-0.2002l-31.99219-24
	c-0.29004-0.2168-0.43945-0.57227-0.3916-0.93066c0.04688-0.3584,0.28418-0.66309,0.62012-0.79785l40-16
	c0.34082-0.13477,0.72949-0.07617,1.01074,0.16016c0.28223,0.23438,0.41309,0.60449,0.34082,0.96484l-8.00781,40
	c-0.06738,0.33691-0.30273,0.61523-0.62402,0.73828C36.2334,44.97852,36.1123,45,35.99219,45z"/>
<path fill="#B3B3B3" d="M13.00098,43c-0.05371,0-0.10742-0.00391-0.16113-0.0127C12.35547,42.9082,12,42.49023,12,42V27
	c0-0.31641,0.15039-0.61426,0.4043-0.80273l31-23c0.4248-0.31543,1.01855-0.24512,1.35938,0.15625
	c0.34082,0.40332,0.30957,1.00098-0.07031,1.36719L17.19855,31.15095l-3.25031,11.16545C13.81055,42.72949,13.4248,43,13.00098,43z"
	/>
</svg>
