<?xml version="1.0" encoding="utf-8"?>
<!-- Generator: Adobe Illustrator 19.2.0, SVG Export Plug-In . SVG Version: 6.00 Build 0)  -->
<!DOCTYPE svg PUBLIC "-//W3C//DTD SVG 1.1//EN" "http://www.w3.org/Graphics/SVG/1.1/DTD/svg11.dtd">
<svg version="1.1" id="Layer_1" xmlns="http://www.w3.org/2000/svg" xmlns:xlink="http://www.w3.org/1999/xlink" x="0px" y="0px"
	 width="48px" height="48px" viewBox="0 0 48 48" enable-background="new 0 0 48 48" xml:space="preserve">
<path fill="#E6E6E6" d="M1,45c0,1.10455,0.89545,2,2,2h42c1.10455,0,2-0.89545,2-2V15H1V45z"/>
<path fill="#E86C60" d="M45,5H3C1.89545,5,1,5.89539,1,7v8h46V7C47,5.89539,46.10455,5,45,5z"/>
<path fill="#444444" d="M10,10V2c0-0.55228,0.44771-1,1-1h2c0.55229,0,1,0.44772,1,1v8c0,0.55229-0.44771,1-1,1h-2
	C10.44771,11,10,10.55229,10,10z"/>
<path fill="#444444" d="M34,10V2c0-0.55228,0.44772-1,1-1h2c0.55228,0,1,0.44772,1,1v8c0,0.55229-0.44772,1-1,1h-2
	C34.44772,11,34,10.55229,34,10z"/>
<path fill="#B3B3B3" d="M40,34h-3v-6h3c0.55273,0,1-0.44727,1-1s-0.44727-1-1-1h-3v-5c0-0.55273-0.44727-1-1-1s-1,0.44727-1,1v5h-6
	v-5c0-0.55273-0.44727-1-1-1s-1,0.44727-1,1v5h-6v-5c0-0.55273-0.44727-1-1-1s-1,0.44727-1,1v5h-6v-5c0-0.55273-0.44727-1-1-1
	s-1,0.44727-1,1v5H8c-0.55273,0-1,0.44727-1,1s0.44727,1,1,1h3v6H8c-0.55273,0-1,0.44727-1,1s0.44727,1,1,1h3v5
	c0,0.55273,0.44727,1,1,1s1-0.44727,1-1v-5h6v5c0,0.55273,0.44727,1,1,1s1-0.44727,1-1v-5h6v5c0,0.55273,0.44727,1,1,1
	s1-0.44727,1-1v-5h6v5c0,0.55273,0.44727,1,1,1s1-0.44727,1-1v-5h3c0.55273,0,1-0.44727,1-1S40.55273,34,40,34z M13,34v-6h6v6H13z
	 M21,34v-6h6v6H21z M29,34v-6h6v6H29z"/>
</svg>
