<?xml version="1.0" encoding="utf-8"?>
<!-- Generator: Adobe Illustrator 19.2.0, SVG Export Plug-In . SVG Version: 6.00 Build 0)  -->
<!DOCTYPE svg PUBLIC "-//W3C//DTD SVG 1.1//EN" "http://www.w3.org/Graphics/SVG/1.1/DTD/svg11.dtd">
<svg version="1.1" id="Layer_1" xmlns="http://www.w3.org/2000/svg" xmlns:xlink="http://www.w3.org/1999/xlink" x="0px" y="0px"
	 width="48px" height="48px" viewBox="0 0 48 48" enable-background="new 0 0 48 48" xml:space="preserve">
<path fill="#335262" d="M32.70703,22.29297l-7-7c-0.37109-0.37109-0.96777-0.39258-1.36328-0.04785l-23,20
	c-0.20898,0.18262-0.33301,0.44336-0.34277,0.71973c-0.00977,0.27734,0.0957,0.5459,0.29199,0.74219l10,10
	C11.48047,46.89453,11.73535,47,12,47c0.01172,0,0.02344,0,0.03516-0.00098c0.27637-0.00977,0.53711-0.13379,0.71973-0.34277l20-23
	C33.09961,23.25977,33.07812,22.66406,32.70703,22.29297z M12,38c-1.10455,0-2-0.89545-2-2c0-1.10461,0.89545-2,2-2s2,0.89539,2,2
	C14,37.10455,13.10455,38,12,38z"/>
<path fill="#5A7A84" d="M45.81293,7.84393l-6.52002,6.52002l-5.65686-5.65686l6.52002-6.52002C38.59009,1.43451,36.8454,1,35,1
	c-6.59998,0-12,5.39996-12,12c0,6.59998,5.40002,12,12,12s12-5.40002,12-12C47,11.15454,46.56549,9.40991,45.81293,7.84393z"/>
</svg>
