<?xml version="1.0" encoding="utf-8"?>
<!-- Generator: Adobe Illustrator 19.2.0, SVG Export Plug-In . SVG Version: 6.00 Build 0)  -->
<!DOCTYPE svg PUBLIC "-//W3C//DTD SVG 1.1//EN" "http://www.w3.org/Graphics/SVG/1.1/DTD/svg11.dtd">
<svg version="1.1" id="Layer_1" xmlns="http://www.w3.org/2000/svg" xmlns:xlink="http://www.w3.org/1999/xlink" x="0px" y="0px"
	 width="48px" height="48px" viewBox="0 0 48 48" enable-background="new 0 0 48 48" xml:space="preserve">
<path fill="#ED69AB" d="M45,1H3C1.89543,1,1,1.89543,1,3v42c0,1.10457,0.89543,2,2,2h42c1.10457,0,2-0.89543,2-2V3
	C47,1.89543,46.10457,1,45,1z"/>
<path fill="#FFFFFF" d="M24,12c-2.6416,0-5.375,1.86816-6.50049,4.44238c-0.22119,0.50586,0.00977,1.0957,0.51611,1.31689
	c0.50488,0.21973,1.09473-0.00977,1.31689-0.51611C20.14062,15.39453,22.14697,14,24,14c2.66357,0,5,2.33643,5,5s-2.33643,5-5,5
	c-0.55225,0-1,0.44775-1,1v4c0,0.55225,0.44775,1,1,1s1-0.44775,1-1v-3.07471c3.34131-0.50195,6-3.46973,6-6.92529
	C31,15.20557,27.79443,12,24,12z"/>
<circle fill="#FFFFFF" cx="24" cy="35" r="2"/>
</svg>
