<?xml version="1.0" encoding="utf-8"?>
<!-- Generator: Adobe Illustrator 19.2.1, SVG Export Plug-In . SVG Version: 6.00 Build 0)  -->
<!DOCTYPE svg PUBLIC "-//W3C//DTD SVG 1.1//EN" "http://www.w3.org/Graphics/SVG/1.1/DTD/svg11.dtd">
<svg version="1.1" id="Layer_1" xmlns="http://www.w3.org/2000/svg" xmlns:xlink="http://www.w3.org/1999/xlink" x="0px" y="0px"
	 width="48px" height="48px" viewBox="0 0 48 48" enable-background="new 0 0 48 48" xml:space="preserve">
<path fill="#E6E6E6" d="M24,4c-6,4-14,6-20,6c0,14,6,28,20,34c14-6,20-20,20-34C38,10,30,8,24,4z"/>
<path fill="#E86C60" d="M6.193,24C9.043,32.612,14.775,40.047,24,44V24H6.193z"/>
<path fill="#E86C60" d="M41.807,24C43.282,19.542,44,14.775,44,10c-6,0-14-2-20-6v20H41.807z"/>
<path fill="#444444" d="M46,7h-2c-6.131,0-13.328-2.157-18.336-5.496l-1.109-0.74c-0.336-0.224-0.773-0.224-1.109,0l-1.109,0.74
	C17.328,4.843,10.131,7,4,7H2C1.448,7,1,7.448,1,8v2c0,17.161,8.156,30.902,21.818,36.757l0.788,0.338
	c0.125,0.054,0.26,0.081,0.394,0.081s0.269-0.027,0.394-0.081l0.788-0.338C38.844,40.902,47,27.161,47,10V8C47,7.448,46.552,7,46,7z
	 M24,42.908C12.349,37.72,5.307,25.864,5.01,10.984C11.498,10.777,18.625,8.607,24,5.193c5.375,3.414,12.502,5.584,18.99,5.791
	C42.693,25.864,35.651,37.721,24,42.908z"/>
</svg>
