<?xml version="1.0" encoding="utf-8"?>
<!-- Generator: Adobe Illustrator 19.2.0, SVG Export Plug-In . SVG Version: 6.00 Build 0)  -->
<!DOCTYPE svg PUBLIC "-//W3C//DTD SVG 1.1//EN" "http://www.w3.org/Graphics/SVG/1.1/DTD/svg11.dtd">
<svg version="1.1" id="Layer_1" xmlns="http://www.w3.org/2000/svg" xmlns:xlink="http://www.w3.org/1999/xlink" x="0px" y="0px"
	 width="48px" height="48px" viewBox="0 0 48 48" enable-background="new 0 0 48 48" xml:space="preserve">
<path fill="#72C472" d="M24,47C11.31787,47,1,36.68262,1,24S11.31787,1,24,1s23,10.31738,23,23S36.68213,47,24,47z"/>
<path fill="#FFFFFF" d="M34,23h-9v-9c0-0.55273-0.44775-1-1-1s-1,0.44727-1,1v9h-9c-0.55225,0-1,0.44727-1,1s0.44775,1,1,1h9v9
	c0,0.55273,0.44775,1,1,1s1-0.44727,1-1v-9h9c0.55225,0,1-0.44727,1-1S34.55225,23,34,23z"/>
</svg>
