<?xml version="1.0" encoding="utf-8"?>
<!-- Generator: Adobe Illustrator 19.2.0, SVG Export Plug-In . SVG Version: 6.00 Build 0)  -->
<!DOCTYPE svg PUBLIC "-//W3C//DTD SVG 1.1//EN" "http://www.w3.org/Graphics/SVG/1.1/DTD/svg11.dtd">
<svg version="1.1" id="Layer_1" xmlns="http://www.w3.org/2000/svg" xmlns:xlink="http://www.w3.org/1999/xlink" x="0px" y="0px"
	 width="48px" height="48px" viewBox="0 0 48 48" enable-background="new 0 0 48 48" xml:space="preserve">
<path fill="#FFFFFF" d="M26.00002,14h-4.00004C10.9543,14,2,22.9543,2,33.99998V34h44v-0.00002C46,22.9543,37.0457,14,26.00002,14z"
	/>
<path fill="#B3B3B3" d="M38.83643,29.99756c-0.39551,0-0.77002-0.23633-0.92725-0.625
	c-1.28467-3.17188-3.64404-5.83496-6.64404-7.49902c-0.48291-0.26807-0.65723-0.87646-0.38916-1.35986
	c0.26758-0.48242,0.87695-0.65576,1.35986-0.38916c3.39795,1.88525,6.07129,4.90283,7.52686,8.49707
	c0.20752,0.51172-0.03955,1.09521-0.55127,1.30225C39.08838,29.97363,38.96143,29.99756,38.83643,29.99756z"/>
<path fill="#43A6DD" d="M9.1626,30c-0.125,0-0.25195-0.02393-0.37451-0.07373c-0.51221-0.20703-0.75928-0.79004-0.55176-1.30176
	C10.84863,22.17041,17.03662,18,24,18c2.88232,0,5.72998,0.73486,8.23535,2.12451c0.4834,0.26807,0.65771,0.87646,0.38965,1.35938
	c-0.26758,0.48389-0.87793,0.65869-1.35938,0.38965C29.05615,20.64795,26.54395,20,24,20
	c-6.14453,0-11.60449,3.67969-13.91016,9.37451C9.93262,29.76367,9.55811,30,9.1626,30z"/>
<path fill="#444444" d="M24,11C10.76611,11,0,21.76611,0,35c0,1.10449,0.89551,2,2,2h14.26221c0.88934,3.44861,4.01147,6,7.73779,6
	s6.84845-2.55139,7.73779-6H46c1.10449,0,2-0.89551,2-2C48,21.76611,37.23389,11,24,11z M4.09912,33
	C5.10596,22.90771,13.64697,15,24,15s18.89404,7.90771,19.90088,18H4.09912z"/>
<path fill="#E86C60" d="M21.8262,38.35777c-1.85444-1.20056-2.38452-3.67712-1.18396-5.53157S30,25,30,25
	s-1.44168,10.31936-2.64223,12.1738S23.68064,39.55832,21.8262,38.35777z"/>
</svg>
