<?xml version="1.0" encoding="utf-8"?>
<!-- Generator: Adobe Illustrator 19.2.0, SVG Export Plug-In . SVG Version: 6.00 Build 0)  -->
<!DOCTYPE svg PUBLIC "-//W3C//DTD SVG 1.1//EN" "http://www.w3.org/Graphics/SVG/1.1/DTD/svg11.dtd">
<svg version="1.1" id="Layer_1" xmlns="http://www.w3.org/2000/svg" xmlns:xlink="http://www.w3.org/1999/xlink" x="0px" y="0px"
	 width="48px" height="48px" viewBox="0 0 48 48" enable-background="new 0 0 48 48" xml:space="preserve">
<path fill="#335262" d="M37,47H11c-2.20914,0-4-1.79086-4-4V14c0-0.55229,0.44772-1,1-1h32c0.55228,0,1,0.44771,1,1v29
	C41,45.20914,39.20914,47,37,47z"/>
<path fill="#223E49" d="M24,39c-0.55273,0-1-0.44775-1-1V23c0-0.55225,0.44727-1,1-1s1,0.44775,1,1v15
	C25,38.55225,24.55273,39,24,39z"/>
<path fill="#223E49" d="M16,39c-0.55273,0-1-0.44775-1-1V23c0-0.55225,0.44727-1,1-1s1,0.44775,1,1v15
	C17,38.55225,16.55273,39,16,39z"/>
<path fill="#223E49" d="M32,39c-0.55273,0-1-0.44775-1-1V23c0-0.55225,0.44727-1,1-1s1,0.44775,1,1v15
	C33,38.55225,32.55273,39,32,39z"/>
<path fill="#5A7A84" d="M30,11c-0.55273,0-1-0.44775-1-1V3H19v7c0,0.55225-0.44727,1-1,1s-1-0.44775-1-1V2c0-0.55225,0.44727-1,1-1
	h12c0.55273,0,1,0.44775,1,1v8C31,10.55225,30.55273,11,30,11z"/>
<path fill="#5A7A84" d="M46,14H2c-0.55273,0-1-0.44775-1-1V9c0-0.55225,0.44727-1,1-1h44c0.55273,0,1,0.44775,1,1v4
	C47,13.55225,46.55273,14,46,14z"/>
</svg>
