<?xml version="1.0" encoding="utf-8"?>
<!-- Generator: Adobe Illustrator 19.2.1, SVG Export Plug-In . SVG Version: 6.00 Build 0)  -->
<!DOCTYPE svg PUBLIC "-//W3C//DTD SVG 1.1//EN" "http://www.w3.org/Graphics/SVG/1.1/DTD/svg11.dtd">
<svg version="1.1" id="Layer_1" xmlns="http://www.w3.org/2000/svg" xmlns:xlink="http://www.w3.org/1999/xlink" x="0px" y="0px"
	 width="48px" height="48px" viewBox="0 0 48 48" enable-background="new 0 0 48 48" xml:space="preserve">
<path fill="#E86C60" d="M6,8c0-1.105,0.895-2,2-2h37c1.105,0,2,0.895,2,2v6H6V8z"/>
<path fill="#E6E6E6" d="M6,44V14h41v30c0,1.105-0.895,2-2,2H8C6.895,46,6,45.105,6,44z"/>
<path fill="#444444" d="M36,2h2c0.553,0,1,0.447,1,1v6c0,0.553-0.447,1-1,1h-2c-0.553,0-1-0.447-1-1V3C35,2.447,35.447,2,36,2z"/>
<path fill="#444444" d="M15,10h2c0.552,0,1-0.448,1-1V3c0-0.552-0.448-1-1-1h-2c-0.552,0-1,0.448-1,1v6C14,9.552,14.448,10,15,10z"
	/>
<path fill="#B3B3B3" d="M25,31H9v3c0,0.388-0.225,0.741-0.576,0.906c-0.353,0.164-0.767,0.111-1.064-0.138l-6-5
	C1.132,29.578,1,29.297,1,29s0.132-0.578,0.36-0.768l6-5C7.543,23.079,7.771,23,8,23c0.144,0,0.289,0.031,0.424,0.095
	C8.775,23.259,9,23.612,9,24v3h16c0.552,0,1,0.448,1,1v2C26,30.552,25.552,31,25,31z"/>
</svg>
