<?xml version="1.0" encoding="utf-8"?>
<!-- Generator: Adobe Illustrator 19.2.0, SVG Export Plug-In . SVG Version: 6.00 Build 0)  -->
<!DOCTYPE svg PUBLIC "-//W3C//DTD SVG 1.1//EN" "http://www.w3.org/Graphics/SVG/1.1/DTD/svg11.dtd">
<svg version="1.1" id="Layer_1" xmlns="http://www.w3.org/2000/svg" xmlns:xlink="http://www.w3.org/1999/xlink" x="0px" y="0px"
	 width="48px" height="48px" viewBox="0 0 48 48" enable-background="new 0 0 48 48" xml:space="preserve">
<path fill="#B3B3B3" d="M41,19h5c0.55228,0,1,0.44772,1,1v8c0,0.55228-0.44772,1-1,1h-5V19z"/>
<path fill="#335262" d="M40,11H3c-1.10457,0-2,0.89543-2,2v22c0,1.10457,0.89543,2,2,2h37c1.10457,0,2-0.89543,2-2V13
	C42,11.89543,41.10457,11,40,11z"/>
<path fill="#E86C60" d="M14,31H8c-0.55228,0-1-0.44772-1-1V18c0-0.55228,0.44772-1,1-1h6c0.55229,0,1,0.44772,1,1v12
	C15,30.55228,14.55229,31,14,31z"/>
</svg>
