<?xml version="1.0" encoding="utf-8"?>
<!-- Generator: Adobe Illustrator 19.2.0, SVG Export Plug-In . SVG Version: 6.00 Build 0)  -->
<!DOCTYPE svg PUBLIC "-//W3C//DTD SVG 1.1//EN" "http://www.w3.org/Graphics/SVG/1.1/DTD/svg11.dtd">
<svg version="1.1" id="Layer_1" xmlns="http://www.w3.org/2000/svg" xmlns:xlink="http://www.w3.org/1999/xlink" x="0px" y="0px"
	 width="48px" height="48px" viewBox="0 0 48 48" enable-background="new 0 0 48 48" xml:space="preserve">
<path fill="#E86C60" d="M45,1H3C1.89543,1,1,1.89543,1,3v42c0,1.10457,0.89543,2,2,2h42c1.10457,0,2-0.89543,2-2V3
	C47,1.89543,46.10457,1,45,1z"/>
<path fill="#FFFFFF" d="M32.70703,15.29297c-0.39062-0.39062-1.02344-0.39062-1.41406,0L24,22.58594l-7.29297-7.29297
	c-0.39062-0.39062-1.02344-0.39062-1.41406,0s-0.39062,1.02344,0,1.41406L22.58594,24l-7.29297,7.29297
	c-0.39062,0.39062-0.39062,1.02344,0,1.41406C15.48828,32.90234,15.74414,33,16,33s0.51172-0.09766,0.70703-0.29297L24,25.41406
	l7.29297,7.29297C31.48828,32.90234,31.74414,33,32,33s0.51172-0.09766,0.70703-0.29297c0.39062-0.39062,0.39062-1.02344,0-1.41406
	L25.41406,24l7.29297-7.29297C33.09766,16.31641,33.09766,15.68359,32.70703,15.29297z"/>
</svg>
