<?xml version="1.0" encoding="utf-8"?>
<!-- Generator: Adobe Illustrator 19.2.0, SVG Export Plug-In . SVG Version: 6.00 Build 0)  -->
<!DOCTYPE svg PUBLIC "-//W3C//DTD SVG 1.1//EN" "http://www.w3.org/Graphics/SVG/1.1/DTD/svg11.dtd">
<svg version="1.1" id="Layer_1" xmlns="http://www.w3.org/2000/svg" xmlns:xlink="http://www.w3.org/1999/xlink" x="0px" y="0px"
	 width="48px" height="48px" viewBox="0 0 48 48" enable-background="new 0 0 48 48" xml:space="preserve">
<path fill="#444444" d="M24,47C11.31738,47,1,36.68213,1,24S11.31738,1,24,1s23,10.31787,23,23S36.68262,47,24,47z"/>
<path fill="#FFFFFF" d="M26.12132,26.12132c-1.16963,1.16963-3.07302,1.16963-4.24264,0S17,17,17,17
	s7.95169,3.70905,9.12132,4.87868S27.29095,24.95169,26.12132,26.12132z"/>
<path fill="#282828" d="M33.79785,35c-0.25879,0-0.51855-0.1001-0.71387-0.30029c-0.38672-0.39404-0.38086-1.02734,0.01367-1.41406
	C35.61426,30.81982,37,27.52197,37,24c0-7.16846-5.83203-13-13-13c-3.52246,0-6.82031,1.38574-9.28613,3.90186
	c-0.38672,0.39551-1.01953,0.39941-1.41406,0.01465c-0.39453-0.38672-0.40039-1.01953-0.01367-1.41406
	C16.13086,10.59912,19.93555,9,24,9c8.27148,0,15,6.729,15,15c0,4.06396-1.59863,7.86865-4.50195,10.71436
	C34.30273,34.90479,34.05078,35,33.79785,35z"/>
<path fill="#43A6DD" d="M14.20117,34.99902c-0.25293,0-0.50488-0.09521-0.7002-0.28564C10.59863,31.86865,9,28.06396,9,24
	c0-3.94971,1.52246-7.67773,4.28613-10.49805c0.38574-0.39502,1.01855-0.3999,1.41406-0.01416
	c0.39453,0.38672,0.40039,1.02002,0.01367,1.41455C12.31934,17.3457,11,20.57715,11,24c0,3.52197,1.38574,6.81934,3.90137,9.28467
	c0.39453,0.38672,0.40039,1.02002,0.01367,1.41406C14.71973,34.89893,14.45996,34.99902,14.20117,34.99902z"/>
</svg>
