<?xml version="1.0" encoding="utf-8"?>
<!-- Generator: Adobe Illustrator 19.2.0, SVG Export Plug-In . SVG Version: 6.00 Build 0)  -->
<!DOCTYPE svg PUBLIC "-//W3C//DTD SVG 1.1//EN" "http://www.w3.org/Graphics/SVG/1.1/DTD/svg11.dtd">
<svg version="1.1" id="Layer_1" xmlns="http://www.w3.org/2000/svg" xmlns:xlink="http://www.w3.org/1999/xlink" x="0px" y="0px"
	 width="48px" height="48px" viewBox="0 0 48 48" enable-background="new 0 0 48 48" xml:space="preserve">
<path fill="#444444" d="M11.46124,37.46124L10,35l-2.46124-1.46124l-0.38593,3.19574
	c-0.07777,0.64399,0.46869,1.19045,1.11268,1.11268L11.46124,37.46124z"/>
<polygon fill="#EAD8C5" points="17.70703,36.70703 16.95831,28 8.29297,27.29297 7.53876,33.53876 11.46124,37.46124 "/>
<polygon fill="#E86C60" points="27.29297,8.29297 8.29297,27.29297 13.75,32.75 32.65625,13.65625 "/>
<rect x="11.41849" y="21.52514" transform="matrix(0.70711 -0.70711 0.70711 0.70711 -10.29466 24.85352)" fill="#C9514B" width="26.87006" height="6.65675"/>
<path fill="#5A7A84" d="M41.70703,11.29297l-8-8c-0.39062-0.39062-1.02344-0.39062-1.41406,0l-5,5l9.41406,9.41406l5-5
	C42.09766,12.31641,42.09766,11.68359,41.70703,11.29297z"/>
<path fill="#B3B3B3" d="M40,46H8c-0.55225,0-1-0.44727-1-1s0.44775-1,1-1h32c0.55225,0,1,0.44727,1,1S40.55225,46,40,46z"/>
<rect x="31.00011" y="6.34325" transform="matrix(0.70711 -0.70711 0.70711 0.70711 0.18019 26.43503)" fill="#223E49" width="1.99979" height="13.31349"/>
</svg>
