<?xml version="1.0" encoding="utf-8"?>
<!-- Generator: Adobe Illustrator 19.2.1, SVG Export Plug-In . SVG Version: 6.00 Build 0)  -->
<!DOCTYPE svg PUBLIC "-//W3C//DTD SVG 1.1//EN" "http://www.w3.org/Graphics/SVG/1.1/DTD/svg11.dtd">
<svg version="1.1" id="Layer_1" xmlns="http://www.w3.org/2000/svg" xmlns:xlink="http://www.w3.org/1999/xlink" x="0px" y="0px"
	 width="48px" height="48px" viewBox="0 0 48 48" enable-background="new 0 0 48 48" xml:space="preserve">
<path fill="#BADEFC" d="M40,20H8c-0.552,0-1-0.448-1-1v-2c0-0.552,0.448-1,1-1h32c0.552,0,1,0.448,1,1v2C41,19.552,40.552,20,40,20z
	"/>
<path fill="#43A6DD" d="M46,8H2C1.448,8,1,7.552,1,7V5c0-0.552,0.448-1,1-1h44c0.552,0,1,0.448,1,1v2C47,7.552,46.552,8,46,8z"/>
<path fill="#43A6DD" d="M34,32H14c-0.552,0-1-0.448-1-1v-2c0-0.552,0.448-1,1-1h20c0.552,0,1,0.448,1,1v2C35,31.552,34.552,32,34,32
	z"/>
<path fill="#BADEFC" d="M28,44h-8c-0.552,0-1-0.448-1-1v-2c0-0.552,0.448-1,1-1h8c0.552,0,1,0.448,1,1v2C29,43.552,28.552,44,28,44z
	"/>
</svg>
