<?xml version="1.0" encoding="utf-8"?>
<!-- Generator: Adobe Illustrator 19.2.1, SVG Export Plug-In . SVG Version: 6.00 Build 0)  -->
<!DOCTYPE svg PUBLIC "-//W3C//DTD SVG 1.1//EN" "http://www.w3.org/Graphics/SVG/1.1/DTD/svg11.dtd">
<svg version="1.1" id="Layer_1" xmlns="http://www.w3.org/2000/svg" xmlns:xlink="http://www.w3.org/1999/xlink" x="0px" y="0px"
	 width="48px" height="48px" viewBox="0 0 48 48" enable-background="new 0 0 48 48" xml:space="preserve">
<path fill="#335262" d="M38,47C17.598,47,1,30.402,1,10c0-0.265,0.105-0.52,0.293-0.707l6-6c0.391-0.391,1.023-0.391,1.414,0l10,10
	c0.391,0.391,0.391,1.023,0,1.414L13.414,20L28,34.586l5.293-5.293c0.391-0.391,1.023-0.391,1.414,0l10,10
	c0.391,0.391,0.391,1.023,0,1.414l-6,6C38.52,46.895,38.265,47,38,47z"/>
<path fill="#B3B3B3" d="M46,21c-0.552,0-1-0.448-1-1c0-9.374-7.626-17-17-17c-0.552,0-1-0.448-1-1s0.448-1,1-1
	c10.477,0,19,8.523,19,19C47,20.552,46.552,21,46,21z"/>
<path fill="#B3B3B3" d="M38,21c-0.552,0-1-0.448-1-1c0-4.962-4.038-9-9-9c-0.552,0-1-0.448-1-1s0.448-1,1-1c6.065,0,11,4.935,11,11
	C39,20.552,38.552,21,38,21z"/>
</svg>
