<?xml version="1.0" encoding="utf-8"?>
<!-- Generator: Adobe Illustrator 19.2.0, SVG Export Plug-In . SVG Version: 6.00 Build 0)  -->
<!DOCTYPE svg PUBLIC "-//W3C//DTD SVG 1.1//EN" "http://www.w3.org/Graphics/SVG/1.1/DTD/svg11.dtd">
<svg version="1.1" id="Layer_1" xmlns="http://www.w3.org/2000/svg" xmlns:xlink="http://www.w3.org/1999/xlink" x="0px" y="0px"
	 width="48px" height="48px" viewBox="0 0 48 48" enable-background="new 0 0 48 48" xml:space="preserve">
<path fill="#B3B3B3" d="M46,47H2c-0.55273,0-1-0.44775-1-1V2c0-0.55225,0.44727-1,1-1h44c0.55273,0,1,0.44775,1,1v44
	C47,46.55225,46.55273,47,46,47z M3,45h42V3H3V45z"/>
<path fill="#72C472" d="M20,9H10c-0.55273,0-1,0.44775-1,1v10c0,0.55225,0.44727,1,1,1h10c0.55273,0,1-0.44775,1-1V10
	C21,9.44775,20.55273,9,20,9z"/>
<path fill="#72C472" d="M38,9H28c-0.55273,0-1,0.44775-1,1v10c0,0.55225,0.44727,1,1,1h10c0.55273,0,1-0.44775,1-1V10
	C39,9.44775,38.55273,9,38,9z"/>
<path fill="#72C472" d="M20,27H10c-0.55273,0-1,0.44775-1,1v10c0,0.55225,0.44727,1,1,1h10c0.55273,0,1-0.44775,1-1V28
	C21,27.44775,20.55273,27,20,27z"/>
<path fill="#72C472" d="M38,27H28c-0.55273,0-1,0.44775-1,1v10c0,0.55225,0.44727,1,1,1h10c0.55273,0,1-0.44775,1-1V28
	C39,27.44775,38.55273,27,38,27z"/>
</svg>
