<?xml version="1.0" encoding="utf-8"?>
<!-- Generator: Adobe Illustrator 19.2.0, SVG Export Plug-In . SVG Version: 6.00 Build 0)  -->
<!DOCTYPE svg PUBLIC "-//W3C//DTD SVG 1.1//EN" "http://www.w3.org/Graphics/SVG/1.1/DTD/svg11.dtd">
<svg version="1.1" id="Layer_1" xmlns="http://www.w3.org/2000/svg" xmlns:xlink="http://www.w3.org/1999/xlink" x="0px" y="0px"
	 width="48px" height="48px" viewBox="0 0 48 48" enable-background="new 0 0 48 48" xml:space="preserve">
<path fill="#444444" d="M24,47c-9.21094,0-19-2.45312-19-7V8c0-0.55225,0.44775-1,1-1h36c0.55225,0,1,0.44775,1,1v32
	C43,44.54688,33.21094,47,24,47z"/>
<path fill="#B3B3B3" d="M24,15c-9.21094,0-19-2.45312-19-7s9.78906-7,19-7s19,2.45312,19,7S33.21094,15,24,15z"/>
<path fill="#B3B3B3" d="M43,19c0,2.08789-7.22803,5-19,5S5,21.08789,5,19v3.16351C8.54883,24.69165,16.3067,26,24,26
	c7.69324,0,15.45111-1.30829,19-3.83643V19z"/>
<path fill="#B3B3B3" d="M43,30c0,2.08789-7.22803,5-19,5S5,32.08789,5,30v3.16351C8.54883,35.69165,16.3067,37,24,37
	c7.69324,0,15.45111-1.30829,19-3.83643V30z"/>
</svg>
