<?xml version="1.0" encoding="utf-8"?>
<!-- Generator: Adobe Illustrator 19.2.0, SVG Export Plug-In . SVG Version: 6.00 Build 0)  -->
<!DOCTYPE svg PUBLIC "-//W3C//DTD SVG 1.1//EN" "http://www.w3.org/Graphics/SVG/1.1/DTD/svg11.dtd">
<svg version="1.1" id="Layer_1" xmlns="http://www.w3.org/2000/svg" xmlns:xlink="http://www.w3.org/1999/xlink" x="0px" y="0px"
	 width="48px" height="48px" viewBox="0 0 48 48" enable-background="new 0 0 48 48" xml:space="preserve">
<path fill="#ED69AB" d="M24,1C11.31738,1,1,11.31787,1,24s10.31738,23,23,23s23-10.31787,23-23S36.68262,1,24,1z"/>
<path fill="#FFFFFF" d="M24,12c-2.6416,0-5.375,1.86816-6.5,4.44238c-0.22168,0.50586,0.00977,1.0957,0.51562,1.31689
	c0.50781,0.22266,1.09668-0.00977,1.31641-0.51611C20.14062,15.39453,22.14746,14,24,14c2.66309,0,5,2.33643,5,5s-2.33691,5-5,5
	c-0.55273,0-1,0.44775-1,1v4c0,0.55225,0.44727,1,1,1s1-0.44775,1-1v-3.07471c3.34082-0.50195,6-3.46973,6-6.92529
	C31,15.20557,27.79395,12,24,12z"/>
<circle fill="#FFFFFF" cx="24" cy="35" r="2"/>
</svg>
