<?xml version="1.0" encoding="utf-8"?>
<!-- Generator: Adobe Illustrator 19.2.1, SVG Export Plug-In . SVG Version: 6.00 Build 0)  -->
<!DOCTYPE svg PUBLIC "-//W3C//DTD SVG 1.1//EN" "http://www.w3.org/Graphics/SVG/1.1/DTD/svg11.dtd">
<svg version="1.1" id="Layer_1" xmlns="http://www.w3.org/2000/svg" xmlns:xlink="http://www.w3.org/1999/xlink" x="0px" y="0px"
	 width="48px" height="48px" viewBox="0 0 48 48" enable-background="new 0 0 48 48" xml:space="preserve">
<path fill="#EA9860" d="M45,1H3C1.895,1,1,1.895,1,3v30c0,1.105,0.895,2,2,2h8v9c0,0.375,0.209,0.718,0.542,0.89
	C11.687,44.964,11.844,45,12,45c0.205,0,0.408-0.062,0.581-0.187L26.32,35H45c1.105,0,2-0.895,2-2V3C47,1.895,46.105,1,45,1z"/>
<path fill="#FFFFFF" d="M12,20h16v3c0,0.388,0.225,0.741,0.576,0.906c0.353,0.164,0.767,0.111,1.064-0.138l6-5
	C35.868,18.578,36,18.297,36,18s-0.132-0.578-0.36-0.768l-6-5C29.457,12.079,29.229,12,29,12c-0.144,0-0.289,0.031-0.424,0.095
	C28.225,12.259,28,12.612,28,13v3H12c-0.552,0-1,0.448-1,1v2C11,19.552,11.448,20,12,20z"/>
</svg>
