<?xml version="1.0" encoding="utf-8"?>
<!-- Generator: Adobe Illustrator 19.2.1, SVG Export Plug-In . SVG Version: 6.00 Build 0)  -->
<!DOCTYPE svg PUBLIC "-//W3C//DTD SVG 1.1//EN" "http://www.w3.org/Graphics/SVG/1.1/DTD/svg11.dtd">
<svg version="1.1" id="Layer_1" xmlns="http://www.w3.org/2000/svg" xmlns:xlink="http://www.w3.org/1999/xlink" x="0px" y="0px"
	 width="48px" height="48px" viewBox="0 0 48 48" enable-background="new 0 0 48 48" xml:space="preserve">
<circle fill="#223E49" cx="24" cy="24" r="3"/>
<path id="color_52_" fill="#8680D8" d="M17.263,35.097l2.073-3.414C16.741,30.102,15,27.254,15,24c0-4.963,4.037-9,9-9s9,4.037,9,9
	c0,3.254-1.741,6.102-4.336,7.682l2.073,3.414C34.484,32.813,37,28.7,37,24c0-7.168-5.832-13-13-13s-13,5.832-13,13
	C11,28.7,13.516,32.813,17.263,35.097z"/>
<path fill="#223E49" d="M12.066,43.655l2.087-3.437C8.677,36.88,5,30.869,5,24C5,13.523,13.523,5,24,5s19,8.523,19,19
	c0,6.869-3.677,12.88-9.153,16.218l2.087,3.437C42.564,39.615,47,32.316,47,24C47,11.317,36.683,1,24,1S1,11.317,1,24
	C1,32.316,5.436,39.615,12.066,43.655z"/>
</svg>
