<?xml version="1.0" encoding="utf-8"?>
<!-- Generator: Adobe Illustrator 19.2.0, SVG Export Plug-In . SVG Version: 6.00 Build 0)  -->
<!DOCTYPE svg PUBLIC "-//W3C//DTD SVG 1.1//EN" "http://www.w3.org/Graphics/SVG/1.1/DTD/svg11.dtd">
<svg version="1.1" id="Layer_1" xmlns="http://www.w3.org/2000/svg" xmlns:xlink="http://www.w3.org/1999/xlink" x="0px" y="0px"
	 width="48px" height="48px" viewBox="0 0 48 48" enable-background="new 0 0 48 48" xml:space="preserve">
<path fill="#B3B3B3" d="M10.93945,45.55664c-2.17676,0-4.35352-0.82812-6.01074-2.48535
	c-3.31348-3.31445-3.31348-8.70703,0-12.02051l4.24316-4.24316c3.31543-3.31543,8.70703-3.31348,12.02051,0
	c3.31445,3.31445,3.31445,8.70605,0,12.02051l-4.24316,4.24316C15.29297,44.72852,13.11621,45.55664,10.93945,45.55664z
	 M15.18164,27.32031c-1.4082,0-2.81641,0.53613-3.88867,1.6084L7.0498,33.17188c-2.14355,2.14453-2.14355,5.63379,0,7.77832
	c2.14551,2.14551,5.63477,2.14551,7.77832,0l4.24316-4.24316c2.14453-2.14453,2.14453-5.63379,0-7.77832
	C17.99902,27.85645,16.59082,27.32031,15.18164,27.32031z"/>
<path fill="#B3B3B3" d="M32.81836,23.67773c-2.17676,0-4.35352-0.82812-6.01074-2.48535
	c-3.31445-3.31445-3.31445-8.70605,0-12.02051l4.24316-4.24316c3.3125-3.31445,8.70605-3.31445,12.02051,0
	c3.31348,3.31445,3.31348,8.70703,0,12.02051l-4.24316,4.24316C37.1709,22.84961,34.99414,23.67773,32.81836,23.67773z
	 M37.06055,5.44141c-1.4082,0-2.81641,0.53613-3.88867,1.6084l-4.24316,4.24316c-2.14453,2.14453-2.14453,5.63379,0,7.77832
	c2.14355,2.14453,5.63281,2.14648,7.77832,0l4.24316-4.24316c2.14355-2.14453,2.14355-5.63379,0-7.77832
	C39.87793,5.97754,38.46875,5.44141,37.06055,5.44141z"/>
<path fill="#999999" d="M26.80762,21.19238c0.88275,0.88275,1.91498,1.52277,3.01404,1.93518l2.49512-2.49512
	c-1.23657-0.11267-2.44385-0.61652-3.38806-1.56116c-0.1803-0.1803-0.32324-0.38196-0.47321-0.57965
	c-0.73969,0.75226-1.45215,1.49902-2.09851,2.20203C26.50171,20.8631,26.6474,21.03217,26.80762,21.19238z"/>
<path fill="#D8D8D8" d="M25.93945,23.56055c-0.38379,0-0.76758-0.14648-1.06055-0.43945c-0.58594-0.58594-0.58594-1.53516,0-2.12109
	l7.58594-7.58594c0.58594-0.58594,1.53516-0.58594,2.12109,0s0.58594,1.53516,0,2.12109L27,23.12109
	C26.70703,23.41406,26.32324,23.56055,25.93945,23.56055z"/>
<path fill="#E86C60" d="M13.39258,20.0498c-0.13184,0-0.26562-0.02637-0.39453-0.08203l-9.39355-4.0498
	c-0.50781-0.21875-0.74121-0.80664-0.52246-1.31348c0.21875-0.50977,0.80762-0.74121,1.31348-0.52246l9.39355,4.0498
	c0.50781,0.21875,0.74121,0.80664,0.52246,1.31348C14.14844,19.82422,13.78027,20.0498,13.39258,20.0498z"/>
<path fill="#E86C60" d="M19.0498,14.39355c-0.38672,0-0.75488-0.22559-0.91797-0.60449l-4.0498-9.39355
	c-0.21875-0.50684,0.01465-1.09473,0.52246-1.31348c0.50391-0.21777,1.09473,0.0127,1.31348,0.52246l4.0498,9.39355
	c0.21875,0.50684-0.01465,1.09473-0.52246,1.31348C19.31641,14.36719,19.18262,14.39355,19.0498,14.39355z"/>
<path fill="#E86C60" d="M33,45c-0.38672,0-0.75488-0.22559-0.91797-0.60449l-4.0498-9.39355
	c-0.21875-0.50684,0.01465-1.09473,0.52246-1.31348c0.50488-0.2168,1.09375,0.0127,1.31348,0.52246l4.0498,9.39355
	c0.21875,0.50684-0.01465,1.09473-0.52246,1.31348C33.2666,44.97363,33.13281,45,33,45z"/>
<path fill="#E86C60" d="M44,34c-0.13281,0-0.2666-0.02637-0.39551-0.08203l-9.39355-4.0498
	c-0.50781-0.21875-0.74121-0.80664-0.52246-1.31348c0.21875-0.50781,0.80566-0.74219,1.31348-0.52246l9.39355,4.0498
	c0.50781,0.21875,0.74121,0.80664,0.52246,1.31348C44.75488,33.77441,44.38672,34,44,34z"/>
<path fill="#999999" d="M21.19238,26.80762c-0.20477-0.20477-0.41772-0.39642-0.63739-0.57593
	c-0.73187,0.62476-1.51117,1.31702-2.29193,2.03717c0.284,0.19244,0.55688,0.40851,0.80823,0.65985
	c0.94464,0.94464,1.44806,2.1521,1.56055,3.38867l2.49597-2.49597C22.71527,28.72247,22.07513,27.69037,21.19238,26.80762z"/>
<path fill="#D8D8D8" d="M14.47461,35.02539c-0.38379,0-0.76758-0.14648-1.06055-0.43945c-0.58594-0.58594-0.58594-1.53516,0-2.12109
	L21,24.87891c0.58594-0.58594,1.53516-0.58594,2.12109,0s0.58594,1.53516,0,2.12109l-7.58594,7.58594
	C15.24219,34.87891,14.8584,35.02539,14.47461,35.02539z"/>
</svg>
