<?xml version="1.0" encoding="utf-8"?>
<!-- Generator: Adobe Illustrator 19.2.0, SVG Export Plug-In . SVG Version: 6.00 Build 0)  -->
<!DOCTYPE svg PUBLIC "-//W3C//DTD SVG 1.1//EN" "http://www.w3.org/Graphics/SVG/1.1/DTD/svg11.dtd">
<svg version="1.1" id="Layer_1" xmlns="http://www.w3.org/2000/svg" xmlns:xlink="http://www.w3.org/1999/xlink" x="0px" y="0px"
	 width="48px" height="48px" viewBox="0 0 48 48" enable-background="new 0 0 48 48" xml:space="preserve">
<path fill="#72C472" d="M36,20h-8v-8c0-0.55225-0.44775-1-1-1h-6c-0.55225,0-1,0.44775-1,1v8h-8c-0.55225,0-1,0.44775-1,1v6
	c0,0.55225,0.44775,1,1,1h8v8c0,0.55225,0.44775,1,1,1h6c0.55225,0,1-0.44775,1-1v-8h8c0.55225,0,1-0.44775,1-1v-6
	C37,20.44775,36.55225,20,36,20z"/>
</svg>
