<?xml version="1.0" encoding="utf-8"?>
<!-- Generator: Adobe Illustrator 19.2.1, SVG Export Plug-In . SVG Version: 6.00 Build 0)  -->
<!DOCTYPE svg PUBLIC "-//W3C//DTD SVG 1.1//EN" "http://www.w3.org/Graphics/SVG/1.1/DTD/svg11.dtd">
<svg version="1.1" id="Layer_1" xmlns="http://www.w3.org/2000/svg" xmlns:xlink="http://www.w3.org/1999/xlink" x="0px" y="0px"
	 width="48px" height="48px" viewBox="0 0 48 48" enable-background="new 0 0 48 48" xml:space="preserve">
<path fill="#E6E6E6" d="M1,45c0,1.105,0.895,2,2,2h42c1.105,0,2-0.895,2-2V15H1V45z"/>
<path fill="#E86C60" d="M45,5H3C1.895,5,1,5.895,1,7v8h46V7C47,5.895,46.105,5,45,5z"/>
<path fill="#444444" d="M10,10V2c0-0.552,0.448-1,1-1h2c0.552,0,1,0.448,1,1v8c0,0.552-0.448,1-1,1h-2C10.448,11,10,10.552,10,10z"
	/>
<path fill="#444444" d="M34,10V2c0-0.552,0.448-1,1-1h2c0.552,0,1,0.448,1,1v8c0,0.552-0.448,1-1,1h-2C34.448,11,34,10.552,34,10z"
	/>
<path fill="#B3B3B3" d="M30,29h-5v-5c0-0.552-0.447-1-1-1s-1,0.448-1,1v5h-5c-0.553,0-1,0.448-1,1s0.447,1,1,1h5v5
	c0,0.552,0.447,1,1,1s1-0.448,1-1v-5h5c0.553,0,1-0.448,1-1S30.553,29,30,29z"/>
</svg>
