<?xml version="1.0" encoding="utf-8"?>
<!-- Generator: Adobe Illustrator 19.2.1, SVG Export Plug-In . SVG Version: 6.00 Build 0)  -->
<!DOCTYPE svg PUBLIC "-//W3C//DTD SVG 1.1//EN" "http://www.w3.org/Graphics/SVG/1.1/DTD/svg11.dtd">
<svg version="1.1" id="Layer_1" xmlns="http://www.w3.org/2000/svg" xmlns:xlink="http://www.w3.org/1999/xlink" x="0px" y="0px"
	 width="48px" height="48px" viewBox="0 0 48 48" enable-background="new 0 0 48 48" xml:space="preserve">
<path fill="#E6E6E6" d="M45,43H3c-1.105,0-2-0.895-2-2V7c0-1.105,0.895-2,2-2h42c1.105,0,2,0.895,2,2v34C47,42.105,46.105,43,45,43z
	"/>
<path fill="#B3B3B3" d="M42,29H6c-0.552,0-1,0.448-1,1v8c0,0.552,0.448,1,1,1h36c0.552,0,1-0.448,1-1v-8C43,29.448,42.552,29,42,29z
	"/>
</svg>
