<?xml version="1.0" encoding="utf-8"?>
<!-- Generator: Adobe Illustrator 19.2.0, SVG Export Plug-In . SVG Version: 6.00 Build 0)  -->
<!DOCTYPE svg PUBLIC "-//W3C//DTD SVG 1.1//EN" "http://www.w3.org/Graphics/SVG/1.1/DTD/svg11.dtd">
<svg version="1.1" id="Layer_1" xmlns="http://www.w3.org/2000/svg" xmlns:xlink="http://www.w3.org/1999/xlink" x="0px" y="0px"
	 width="48px" height="48px" viewBox="0 0 48 48" enable-background="new 0 0 48 48" xml:space="preserve">
<rect x="14.34325" y="15.00574" transform="matrix(0.89448 -0.44712 0.44712 0.89448 -5.07228 12.51996)" fill="#4DA34D" width="19.28958" height="4.00025"/>
<rect x="21.98791" y="21.22435" transform="matrix(0.44723 -0.89442 0.89442 0.44723 -14.35011 38.51873)" fill="#4DA34D" width="4.00025" height="19.28958"/>
<path fill="#72C472" d="M10,15c-4.9624,0-9,4.03711-9,9s4.0376,9,9,9s9-4.03711,9-9S14.9624,15,10,15z"/>
<path fill="#72C472" d="M38,19c4.9624,0,9-4.03711,9-9s-4.0376-9-9-9s-9,4.03711-9,9S33.0376,19,38,19z"/>
<path fill="#72C472" d="M38,29c-4.9624,0-9,4.03711-9,9s4.0376,9,9,9s9-4.03711,9-9S42.9624,29,38,29z"/>
</svg>
