<?xml version="1.0" encoding="utf-8"?>
<!-- Generator: Adobe Illustrator 19.2.1, SVG Export Plug-In . SVG Version: 6.00 Build 0)  -->
<!DOCTYPE svg PUBLIC "-//W3C//DTD SVG 1.1//EN" "http://www.w3.org/Graphics/SVG/1.1/DTD/svg11.dtd">
<svg version="1.1" id="Layer_1" xmlns="http://www.w3.org/2000/svg" xmlns:xlink="http://www.w3.org/1999/xlink" x="0px" y="0px"
	 width="48px" height="48px" viewBox="0 0 48 48" enable-background="new 0 0 48 48" xml:space="preserve">
<polygon fill="#E86C60" points="46.828,30 44,27.172 38,33.172 32,27.172 29.172,30 35.172,36 29.172,42 32,44.828 38,38.828 
	44,44.828 46.828,42 40.828,36 "/>
<path fill="#B3B3B3" d="M45,7H3C2.447,7,2,6.553,2,6s0.447-1,1-1h42c0.553,0,1,0.447,1,1S45.553,7,45,7z"/>
<path fill="#B3B3B3" d="M45,19H3c-0.553,0-1-0.447-1-1s0.447-1,1-1h42c0.553,0,1,0.447,1,1S45.553,19,45,19z"/>
<path fill="#B3B3B3" d="M23,31H3c-0.553,0-1-0.447-1-1s0.447-1,1-1h20c0.553,0,1,0.447,1,1S23.553,31,23,31z"/>
<path fill="#B3B3B3" d="M23,43H3c-0.553,0-1-0.447-1-1s0.447-1,1-1h20c0.553,0,1,0.447,1,1S23.553,43,23,43z"/>
</svg>
