<?xml version="1.0" encoding="utf-8"?>
<!-- Generator: Adobe Illustrator 19.2.0, SVG Export Plug-In . SVG Version: 6.00 Build 0)  -->
<!DOCTYPE svg PUBLIC "-//W3C//DTD SVG 1.1//EN" "http://www.w3.org/Graphics/SVG/1.1/DTD/svg11.dtd">
<svg version="1.1" id="Layer_1" xmlns="http://www.w3.org/2000/svg" xmlns:xlink="http://www.w3.org/1999/xlink" x="0px" y="0px"
	 width="48px" height="48px" viewBox="0 0 48 48" enable-background="new 0 0 48 48" xml:space="preserve">
<path fill="#8680D8" d="M10,1H2C1.44727,1,1,1.44775,1,2v8c0,0.55225,0.44727,1,1,1h8c0.55273,0,1-0.44775,1-1V2
	C11,1.44775,10.55273,1,10,1z"/>
<path fill="#8680D8" d="M10,19H2c-0.55273,0-1,0.44775-1,1v8c0,0.55225,0.44727,1,1,1h8c0.55273,0,1-0.44775,1-1v-8
	C11,19.44775,10.55273,19,10,19z"/>
<path fill="#8680D8" d="M10,37H2c-0.55273,0-1,0.44775-1,1v8c0,0.55225,0.44727,1,1,1h8c0.55273,0,1-0.44775,1-1v-8
	C11,37.44775,10.55273,37,10,37z"/>
<path fill="#8680D8" d="M28,1h-8c-0.55273,0-1,0.44775-1,1v8c0,0.55225,0.44727,1,1,1h8c0.55273,0,1-0.44775,1-1V2
	C29,1.44775,28.55273,1,28,1z"/>
<path fill="#8680D8" d="M28,19h-8c-0.55273,0-1,0.44775-1,1v8c0,0.55225,0.44727,1,1,1h8c0.55273,0,1-0.44775,1-1v-8
	C29,19.44775,28.55273,19,28,19z"/>
<path fill="#8680D8" d="M28,37h-8c-0.55273,0-1,0.44775-1,1v8c0,0.55225,0.44727,1,1,1h8c0.55273,0,1-0.44775,1-1v-8
	C29,37.44775,28.55273,37,28,37z"/>
<path fill="#8680D8" d="M46,1h-8c-0.55273,0-1,0.44775-1,1v8c0,0.55225,0.44727,1,1,1h8c0.55273,0,1-0.44775,1-1V2
	C47,1.44775,46.55273,1,46,1z"/>
<path fill="#8680D8" d="M46,19h-8c-0.55273,0-1,0.44775-1,1v8c0,0.55225,0.44727,1,1,1h8c0.55273,0,1-0.44775,1-1v-8
	C47,19.44775,46.55273,19,46,19z"/>
<path fill="#8680D8" d="M46,37h-8c-0.55273,0-1,0.44775-1,1v8c0,0.55225,0.44727,1,1,1h8c0.55273,0,1-0.44775,1-1v-8
	C47,37.44775,46.55273,37,46,37z"/>
</svg>
