<?xml version="1.0" encoding="utf-8"?>
<!-- Generator: Adobe Illustrator 19.2.1, SVG Export Plug-In . SVG Version: 6.00 Build 0)  -->
<!DOCTYPE svg PUBLIC "-//W3C//DTD SVG 1.1//EN" "http://www.w3.org/Graphics/SVG/1.1/DTD/svg11.dtd">
<svg version="1.1" id="Layer_1" xmlns="http://www.w3.org/2000/svg" xmlns:xlink="http://www.w3.org/1999/xlink" x="0px" y="0px"
	 width="48px" height="48px" viewBox="0 0 48 48" enable-background="new 0 0 48 48" xml:space="preserve">
<path fill="#E86C60" d="M43.192,6.808c-5.068-5.068-13.316-5.068-18.385,0C24.526,7.089,24.257,7.385,24,7.695
	c-0.257-0.311-0.526-0.606-0.808-0.888c-5.068-5.068-13.316-5.068-18.385,0s-5.068,13.316,0,18.385l18.485,18.485
	c0.195,0.195,0.451,0.293,0.707,0.293s0.512-0.098,0.707-0.293l18.485-18.485C48.261,20.124,48.261,11.876,43.192,6.808z"/>
<path id="color_50_" fill="#72C472" d="M36,22c-4.971,0-9,4.029-9,9s4.029,9,9,9s9-4.029,9-9S40.971,22,36,22z"/>
<path id="color_1_" fill="#FFFFFF" d="M40,32h-3v3c0,0.552-0.448,1-1,1s-1-0.448-1-1v-3h-3c-0.552,0-1-0.448-1-1s0.448-1,1-1h3v-3
	c0-0.552,0.448-1,1-1s1,0.448,1,1v3h3c0.552,0,1,0.448,1,1S40.552,32,40,32z"/>
</svg>
