<?xml version="1.0" encoding="utf-8"?>
<!-- Generator: Adobe Illustrator 19.2.0, SVG Export Plug-In . SVG Version: 6.00 Build 0)  -->
<!DOCTYPE svg PUBLIC "-//W3C//DTD SVG 1.1//EN" "http://www.w3.org/Graphics/SVG/1.1/DTD/svg11.dtd">
<svg version="1.1" id="Layer_1" xmlns="http://www.w3.org/2000/svg" xmlns:xlink="http://www.w3.org/1999/xlink" x="0px" y="0px"
	 width="48px" height="48px" viewBox="0 0 48 48" enable-background="new 0 0 48 48" xml:space="preserve">
<path fill="#335262" d="M36,15.5c-0.38379,0-0.76758-0.14648-1.06055-0.43945c-0.58594-0.58545-0.58594-1.53564,0-2.12109l4-4
	c0.58594-0.58594,1.53516-0.58594,2.12109,0c0.58594,0.58545,0.58594,1.53564,0,2.12109l-4,4
	C36.76758,15.35352,36.38379,15.5,36,15.5z"/>
<circle fill="#FFFFFF" cx="24" cy="28" r="18"/>
<path fill="#335262" d="M24,48C12.97217,48,4,39.02783,4,28S12.97217,8,24,8s20,8.97217,20,20S35.02783,48,24,48z M24,12
	c-8.82227,0-16,7.17773-16,16s7.17773,16,16,16s16-7.17773,16-16S32.82227,12,24,12z"/>
<path fill="#335262" d="M24,10c-2.75684,0-5-2.24316-5-5s2.24316-5,5-5s5,2.24316,5,5S26.75684,10,24,10z M24,2
	c-1.6543,0-3,1.3457-3,3s1.3457,3,3,3s3-1.3457,3-3S25.6543,2,24,2z"/>
<path fill="#E86C60" d="M22.58579,26.58579c0.78105-0.78105,9.8995-7.07107,9.8995-7.07107s-6.29002,9.11845-7.07107,9.89949
	c-0.78105,0.78105-2.04738,0.78105-2.82843,0C21.80474,28.63317,21.80474,27.36683,22.58579,26.58579z"/>
<path fill="#B3B3B3" d="M24,18c-0.55273,0-1-0.44775-1-1v-2c0-0.55225,0.44727-1,1-1s1,0.44775,1,1v2C25,17.55225,24.55273,18,24,18
	z"/>
<path fill="#B3B3B3" d="M34,28c0-0.55273,0.44775-1,1-1h2c0.55225,0,1,0.44727,1,1s-0.44775,1-1,1h-2C34.44775,29,34,28.55273,34,28
	z"/>
<path fill="#B3B3B3" d="M24,38c0.55273,0,1,0.44775,1,1v2c0,0.55225-0.44727,1-1,1s-1-0.44775-1-1v-2C23,38.44775,23.44727,38,24,38
	z"/>
<path fill="#B3B3B3" d="M14,28c0,0.55273-0.44775,1-1,1h-2c-0.55225,0-1-0.44727-1-1s0.44775-1,1-1h2C13.55225,27,14,27.44727,14,28
	z"/>
<path fill="#B3B3B3" d="M42.17157,14.8995l-7.07107-7.07107c-0.39053-0.39052-0.39053-1.02369,0-1.41421l2.12132-2.12132
	c0.39053-0.39052,1.02369-0.39052,1.41422,0l7.07107,7.07107c0.39052,0.39052,0.39052,1.02369,0,1.41421l-2.12132,2.12132
	C43.19526,15.29002,42.5621,15.29002,42.17157,14.8995z"/>
<path fill="#335262" d="M12,15.5c-0.38379,0-0.76758-0.14648-1.06055-0.43945l-4-4c-0.58594-0.58545-0.58594-1.53564,0-2.12109
	c0.58594-0.58594,1.53516-0.58594,2.12109,0l4,4c0.58594,0.58545,0.58594,1.53564,0,2.12109
	C12.76758,15.35352,12.38379,15.5,12,15.5z"/>
<path fill="#B3B3B3" d="M5.82843,14.8995l7.07107-7.07107c0.39052-0.39052,0.39052-1.02369,0-1.41421l-2.12132-2.12132
	c-0.39052-0.39052-1.02369-0.39052-1.41421,0l-7.07107,7.07107c-0.39052,0.39052-0.39052,1.02369,0,1.41421l2.12132,2.12132
	C4.80474,15.29002,5.4379,15.29002,5.82843,14.8995z"/>
</svg>
