<?xml version="1.0" encoding="utf-8"?>
<!-- Generator: Adobe Illustrator 19.2.0, SVG Export Plug-In . SVG Version: 6.00 Build 0)  -->
<!DOCTYPE svg PUBLIC "-//W3C//DTD SVG 1.1//EN" "http://www.w3.org/Graphics/SVG/1.1/DTD/svg11.dtd">
<svg version="1.1" id="Layer_1" xmlns="http://www.w3.org/2000/svg" xmlns:xlink="http://www.w3.org/1999/xlink" x="0px" y="0px"
	 width="48px" height="48px" viewBox="0 0 48 48" enable-background="new 0 0 48 48" xml:space="preserve">
<path fill="#E6E6E6" d="M23.99988,39C11.56238,39,3.4696,25.08838,3.13171,24.49609
	c-0.1748-0.30615-0.17578-0.68213-0.00195-0.98926C3.4657,22.91455,11.4989,9,23.99988,9
	c12.4375,0,20.53027,13.91162,20.86816,14.50391c0.17676,0.3086,0.17578,0.6875-0.00195,0.99512
	C44.52526,25.09131,36.37292,39,23.99988,39z"/>
<circle fill="#43A6DD" cx="23.99988" cy="24" r="11"/>
<circle fill="#444444" cx="23.99988" cy="24" r="6"/>
<circle fill="#FFFFFF" cx="19.49988" cy="20.5" r="2.5"/>
<path fill="#E86C60" d="M6,43c-0.25586,0-0.51172-0.09766-0.70703-0.29297c-0.39062-0.39062-0.39062-1.02344,0-1.41406l36-36
	c0.39062-0.39062,1.02344-0.39062,1.41406,0s0.39062,1.02344,0,1.41406l-36,36C6.51172,42.90234,6.25586,43,6,43z"/>
</svg>
