<?xml version="1.0" encoding="utf-8"?>
<!-- Generator: Adobe Illustrator 19.2.0, SVG Export Plug-In . SVG Version: 6.00 Build 0)  -->
<!DOCTYPE svg PUBLIC "-//W3C//DTD SVG 1.1//EN" "http://www.w3.org/Graphics/SVG/1.1/DTD/svg11.dtd">
<svg version="1.1" id="Layer_1" xmlns="http://www.w3.org/2000/svg" xmlns:xlink="http://www.w3.org/1999/xlink" x="0px" y="0px"
	 width="48px" height="48px" viewBox="0 0 48 48" enable-background="new 0 0 48 48" xml:space="preserve">
<path fill="#B3B3B3" d="M45,46H3c-0.55273,0-1-0.44775-1-1V3c0-0.55225,0.44727-1,1-1h42c0.55273,0,1,0.44775,1,1v42
	C46,45.55225,45.55273,46,45,46z M4,44h40V4H4V44z"/>
<path fill="#72C472" d="M15,8H9C8.44727,8,8,8.44775,8,9v6c0,0.55225,0.44727,1,1,1h6c0.55273,0,1-0.44775,1-1V9
	C16,8.44775,15.55273,8,15,8z"/>
<path fill="#72C472" d="M27,8h-6c-0.55273,0-1,0.44775-1,1v6c0,0.55225,0.44727,1,1,1h6c0.55273,0,1-0.44775,1-1V9
	C28,8.44775,27.55273,8,27,8z"/>
<path fill="#72C472" d="M39,8h-6c-0.55273,0-1,0.44775-1,1v6c0,0.55225,0.44727,1,1,1h6c0.55273,0,1-0.44775,1-1V9
	C40,8.44775,39.55273,8,39,8z"/>
<path fill="#72C472" d="M15,20H9c-0.55273,0-1,0.44775-1,1v6c0,0.55225,0.44727,1,1,1h6c0.55273,0,1-0.44775,1-1v-6
	C16,20.44775,15.55273,20,15,20z"/>
<path fill="#72C472" d="M27,20h-6c-0.55273,0-1,0.44775-1,1v6c0,0.55225,0.44727,1,1,1h6c0.55273,0,1-0.44775,1-1v-6
	C28,20.44775,27.55273,20,27,20z"/>
<path fill="#72C472" d="M39,20h-6c-0.55273,0-1,0.44775-1,1v6c0,0.55225,0.44727,1,1,1h6c0.55273,0,1-0.44775,1-1v-6
	C40,20.44775,39.55273,20,39,20z"/>
<path fill="#72C472" d="M15,32H9c-0.55273,0-1,0.44775-1,1v6c0,0.55225,0.44727,1,1,1h6c0.55273,0,1-0.44775,1-1v-6
	C16,32.44775,15.55273,32,15,32z"/>
<path fill="#72C472" d="M27,32h-6c-0.55273,0-1,0.44775-1,1v6c0,0.55225,0.44727,1,1,1h6c0.55273,0,1-0.44775,1-1v-6
	C28,32.44775,27.55273,32,27,32z"/>
<path fill="#72C472" d="M39,32h-6c-0.55273,0-1,0.44775-1,1v6c0,0.55225,0.44727,1,1,1h6c0.55273,0,1-0.44775,1-1v-6
	C40,32.44775,39.55273,32,39,32z"/>
</svg>
