<?xml version="1.0" encoding="utf-8"?>
<!-- Generator: Adobe Illustrator 19.1.0, SVG Export Plug-In . SVG Version: 6.00 Build 0)  -->
<!DOCTYPE svg PUBLIC "-//W3C//DTD SVG 1.1//EN" "http://www.w3.org/Graphics/SVG/1.1/DTD/svg11.dtd">
<svg version="1.1" id="Layer_1" xmlns="http://www.w3.org/2000/svg" xmlns:xlink="http://www.w3.org/1999/xlink" x="0px" y="0px"
	 width="48px" height="48px" viewBox="0 0 48 48" enable-background="new 0 0 48 48" xml:space="preserve">
<path fill="#76B5B5" d="M47,10H15c-0.55229,0-1-0.44771-1-1V7c0-0.55228,0.44771-1,1-1h32c0.55228,0,1,0.44772,1,1v2
	C48,9.55229,47.55228,10,47,10z"/>
<path fill="#76B5B5" d="M35,26H15c-0.55229,0-1-0.44772-1-1v-2c0-0.55228,0.44771-1,1-1h20c0.55228,0,1,0.44772,1,1v2
	C36,25.55228,35.55228,26,35,26z"/>
<path fill="#76B5B5" d="M47,42H15c-0.55229,0-1-0.44772-1-1v-2c0-0.55228,0.44771-1,1-1h32c0.55228,0,1,0.44772,1,1v2
	C48,41.55228,47.55228,42,47,42z"/>
<path fill="#5A7A84" d="M3.19728,13.18562v-1.42287l1.54885-0.12598c0.25196-0.01758,0.28809-0.08984,0.28809-0.35938V4.99312
	c0-0.21582-0.05371-0.32422-0.23438-0.37793L3.23342,4.29097l0.19824-1.47658h4.32135v8.463
	c0,0.28809,0.01758,0.3418,0.28809,0.35938l1.47658,0.12598v1.42287H3.19728z"/>
<path fill="#5A7A84" d="M2.26123,29.32087v-1.67483l2.41312-2.35843c1.81838-1.76467,2.59281-2.48441,2.59281-3.51079
	c0-0.667-0.32422-1.15236-1.27834-1.15236c-0.99122,0-1.40529,0.32422-1.40529,1.60256l-2.44828-0.2168
	c0.01758-2.86234,2.19632-3.3311,4.08697-3.3311c2.79105,0,3.7813,1.18849,3.7813,2.8809c0,1.69338-1.16994,2.80961-2.48441,4.06939
	l-2.03518,1.94534h2.6475c0.17969,0,0.25196-0.03613,0.28809-0.2168l0.25196-1.42189h1.90823v3.38481H2.26123z"/>
<path fill="#5A7A84" d="M8.33798,39.80224c1.53127,0.23438,2.37699,1.15236,2.37699,2.7725
	c0,2.37698-1.78225,3.49321-4.35748,3.49321c-1.81838,0-3.43852-0.64747-4.35748-1.65627l1.44045-1.58401
	c0.68458,0.66602,1.44045,1.18752,2.70121,1.18752c1.0088,0,1.87307-0.35938,1.87307-1.62014
	c0-1.09864-0.68458-1.54885-1.80081-1.54885c-0.4502,0-0.792,0.03613-1.33303,0.12598v-1.79983l0.88282-0.1084
	c1.29592-0.16211,1.99807-0.792,1.99807-1.94436c0-0.68458-0.30567-1.24221-1.31447-1.24221
	c-0.97169,0-1.43947,0.32423-1.43947,1.60256l-2.46683-0.2168c0-2.84476,2.14261-3.3311,4.03326-3.3311
	c2.7725,0,3.83501,1.06251,3.83501,2.9893c0,1.51271-0.93654,2.46683-2.07132,2.80863V39.80224z"/>
</svg>
