<?xml version="1.0" encoding="utf-8"?>
<!-- Generator: Adobe Illustrator 19.1.0, SVG Export Plug-In . SVG Version: 6.00 Build 0)  -->
<!DOCTYPE svg PUBLIC "-//W3C//DTD SVG 1.1//EN" "http://www.w3.org/Graphics/SVG/1.1/DTD/svg11.dtd">
<svg version="1.1" id="Layer_1" xmlns="http://www.w3.org/2000/svg" xmlns:xlink="http://www.w3.org/1999/xlink" x="0px" y="0px"
	 width="48px" height="48px" viewBox="0 0 48 48" enable-background="new 0 0 48 48" xml:space="preserve">
<path fill="#C64692" d="M46,37H2c-0.55273,0-1,0.44775-1,1v8c0,0.55225,0.44727,1,1,1h44c0.55273,0,1-0.44775,1-1v-8
	C47,37.44775,46.55273,37,46,37z"/>
<path fill="#444444" d="M28.62104,33v-2.3861l3.62414-0.39768L29.85908,23H17.5255l-2.34291,7.21622l3.58095,0.39768V33H8.59653
	v-2.34291l1.90024-0.48586c0.70899-0.17635,0.92853-0.30951,1.10487-0.84035L21.32598,1h5.12849l9.90069,28.37586
	c0.17635,0.53084,0.52905,0.61902,1.06169,0.75038l1.98662,0.48766V33H28.62104z M23.75887,4.44779L18.544,20h10.33976
	L23.75887,4.44779z"/>
</svg>
