<?xml version="1.0" encoding="utf-8"?>
<!-- Generator: Adobe Illustrator 19.1.0, SVG Export Plug-In . SVG Version: 6.00 Build 0)  -->
<!DOCTYPE svg PUBLIC "-//W3C//DTD SVG 1.1//EN" "http://www.w3.org/Graphics/SVG/1.1/DTD/svg11.dtd">
<svg version="1.1" id="Layer_1" xmlns="http://www.w3.org/2000/svg" xmlns:xlink="http://www.w3.org/1999/xlink" x="0px" y="0px"
	 width="48px" height="48px" viewBox="0 0 48 48" enable-background="new 0 0 48 48" xml:space="preserve">
<path fill="#EA9860" d="M45,1H3C1.89543,1,1,1.89543,1,3v42c0,1.10457,0.89543,2,2,2h42c1.10457,0,2-0.89543,2-2V3
	C47,1.89543,46.10457,1,45,1z"/>
<path fill="#FFFFFF" d="M42,9H6C5.44775,9,5,8.55273,5,8s0.44775-1,1-1h36c0.55225,0,1,0.44727,1,1S42.55225,9,42,9z"/>
<path fill="#FFFFFF" d="M22,17H6c-0.55225,0-1-0.44727-1-1s0.44775-1,1-1h16c0.55225,0,1,0.44727,1,1S22.55225,17,22,17z"/>
<path fill="#FFFFFF" d="M22,25H6c-0.55225,0-1-0.44727-1-1s0.44775-1,1-1h16c0.55225,0,1,0.44727,1,1S22.55225,25,22,25z"/>
<path fill="#FFFFFF" d="M42,41H6c-0.55225,0-1-0.44727-1-1s0.44775-1,1-1h36c0.55225,0,1,0.44727,1,1S42.55225,41,42,41z"/>
<path fill="#FFFFFF" d="M22,33H6c-0.55225,0-1-0.44727-1-1s0.44775-1,1-1h16c0.55225,0,1,0.44727,1,1S22.55225,33,22,33z"/>
<path fill="#FFFFFF" d="M42,23H30.41406l4.29297-4.29297c0.39062-0.39062,0.39062-1.02344,0-1.41406s-1.02344-0.39062-1.41406,0
	l-5.99915,5.99915c-0.09259,0.09235-0.16589,0.20306-0.21674,0.32581c-0.10107,0.24438-0.10101,0.51978,0.00006,0.76416
	c0.05078,0.12274,0.12408,0.23346,0.21667,0.32581l5.99915,5.99915C33.48828,30.90234,33.74414,31,34,31
	s0.51172-0.09766,0.70703-0.29297c0.39062-0.39062,0.39062-1.02344,0-1.41406L30.41406,25H42c0.55225,0,1-0.44727,1-1
	S42.55225,23,42,23z"/>
</svg>
