<?xml version="1.0" encoding="utf-8"?>
<!-- Generator: Adobe Illustrator 19.1.0, SVG Export Plug-In . SVG Version: 6.00 Build 0)  -->
<!DOCTYPE svg PUBLIC "-//W3C//DTD SVG 1.1//EN" "http://www.w3.org/Graphics/SVG/1.1/DTD/svg11.dtd">
<svg version="1.1" id="Layer_1" xmlns="http://www.w3.org/2000/svg" xmlns:xlink="http://www.w3.org/1999/xlink" x="0px" y="0px"
	 width="48px" height="48px" viewBox="0 0 48 48" enable-background="new 0 0 48 48" xml:space="preserve">
<path fill="#EA9860" d="M45,1H3C1.89543,1,1,1.89543,1,3v42c0,1.10457,0.89543,2,2,2h42c1.10457,0,2-0.89543,2-2V3
	C47,1.89543,46.10457,1,45,1z"/>
<path fill="#FFFFFF" d="M42,9H6C5.44775,9,5,8.55273,5,8s0.44775-1,1-1h36c0.55225,0,1,0.44727,1,1S42.55225,9,42,9z"/>
<path fill="#FFFFFF" d="M42,17H26c-0.55225,0-1-0.44727-1-1s0.44775-1,1-1h16c0.55225,0,1,0.44727,1,1S42.55225,17,42,17z"/>
<path fill="#FFFFFF" d="M42,25H26c-0.55225,0-1-0.44727-1-1s0.44775-1,1-1h16c0.55225,0,1,0.44727,1,1S42.55225,25,42,25z"/>
<path fill="#FFFFFF" d="M42,41H6c-0.55225,0-1-0.44727-1-1s0.44775-1,1-1h36c0.55225,0,1,0.44727,1,1S42.55225,41,42,41z"/>
<path fill="#FFFFFF" d="M42,33H26c-0.55225,0-1-0.44727-1-1s0.44775-1,1-1h16c0.55225,0,1,0.44727,1,1S42.55225,33,42,33z"/>
<path fill="#FFFFFF" d="M20.92285,24.38208c0.10107-0.24438,0.10114-0.51978,0.00006-0.76416
	c-0.05084-0.12274-0.12415-0.23346-0.21674-0.32581l-5.99915-5.99915c-0.39062-0.39062-1.02344-0.39062-1.41406,0
	s-0.39062,1.02344,0,1.41406L17.58594,23H6c-0.55225,0-1,0.44727-1,1s0.44775,1,1,1h11.58594l-4.29297,4.29297
	c-0.39062,0.39062-0.39062,1.02344,0,1.41406C13.48828,30.90234,13.74414,31,14,31s0.51172-0.09766,0.70703-0.29297l5.99915-5.99915
	C20.79877,24.61554,20.87207,24.50482,20.92285,24.38208z"/>
</svg>
