<?xml version="1.0" encoding="utf-8"?>
<!-- Generator: Adobe Illustrator 19.1.0, SVG Export Plug-In . SVG Version: 6.00 Build 0)  -->
<!DOCTYPE svg PUBLIC "-//W3C//DTD SVG 1.1//EN" "http://www.w3.org/Graphics/SVG/1.1/DTD/svg11.dtd">
<svg version="1.1" id="Layer_1" xmlns="http://www.w3.org/2000/svg" xmlns:xlink="http://www.w3.org/1999/xlink" x="0px" y="0px"
	 width="48px" height="48px" viewBox="0 0 48 48" enable-background="new 0 0 48 48" xml:space="preserve">
<path fill="#444444" d="M21.66145,33.81676c0,4.29661-3.96109,8.22346-8.91304,8.22346C4.56585,42.04022,1,35.98671,1,27.90615
	c0-9.27484,9.34862-18.21943,17.83035-21.94637l2.26574,3.64916C14.10766,12.9954,8.88433,17.58691,8.14413,25.28492h2.89106
	c3.09587,0,6.31198,0.4991,8.45903,2.72402C21.02498,29.59761,21.66145,31.62025,21.66145,33.81676z M47,33.81676
	c0,4.29661-3.96109,8.22346-8.91304,8.22346c-8.18256,0-11.74842-6.05352-11.74842-14.13408
	c0-9.27484,9.34862-18.21943,17.83035-21.94637l2.26574,3.64916c-6.98843,3.38646-12.21176,7.97797-12.95195,15.67598
	c3.15316,0,5.76908-0.11425,8.09925,0.71955C45.21084,27.30299,47,30.10812,47,33.81676z"/>
</svg>
