<?xml version="1.0" encoding="utf-8"?>
<!-- Generator: Adobe Illustrator 19.1.0, SVG Export Plug-In . SVG Version: 6.00 Build 0)  -->
<!DOCTYPE svg PUBLIC "-//W3C//DTD SVG 1.1//EN" "http://www.w3.org/Graphics/SVG/1.1/DTD/svg11.dtd">
<svg version="1.1" id="Layer_1" xmlns="http://www.w3.org/2000/svg" xmlns:xlink="http://www.w3.org/1999/xlink" x="0px" y="0px"
	 width="48px" height="48px" viewBox="0 0 48 48" enable-background="new 0 0 48 48" xml:space="preserve">
<path fill="#444444" d="M13,47v-4l7.06191-0.47739C20.9517,42.45535,21,42.20187,21,41.25V6h-9.76872
	c-0.70097,0-0.88979,0.06725-1.01653,0.69838L9,12H5V1h38v11h-4l-1.21216-5.30162C37.6611,6.06725,37.46969,6,36.77131,6H27v35.25
	c0,0.88979-0.01378,1.14328,0.93809,1.20535L35,43v4H13z"/>
<path fill="#72C472" d="M43,23h-4v-4c0-0.55225-0.44775-1-1-1s-1,0.44775-1,1v4h-4c-0.55225,0-1,0.44775-1,1s0.44775,1,1,1h4v4
	c0,0.55273,0.44775,1,1,1s1-0.44727,1-1v-4h4c0.55225,0,1-0.44775,1-1S43.55225,23,43,23z"/>
<path fill="#E86C60" d="M15,25H5c-0.55225,0-1-0.44775-1-1s0.44775-1,1-1h10c0.55225,0,1,0.44775,1,1S15.55225,25,15,25z"/>
</svg>
