<?xml version="1.0" encoding="utf-8"?>
<!-- Generator: Adobe Illustrator 19.1.0, SVG Export Plug-In . SVG Version: 6.00 Build 0)  -->
<!DOCTYPE svg PUBLIC "-//W3C//DTD SVG 1.1//EN" "http://www.w3.org/Graphics/SVG/1.1/DTD/svg11.dtd">
<svg version="1.1" id="Layer_1" xmlns="http://www.w3.org/2000/svg" xmlns:xlink="http://www.w3.org/1999/xlink" x="0px" y="0px"
	 width="48px" height="48px" viewBox="0 0 48 48" enable-background="new 0 0 48 48" xml:space="preserve">
<path fill="#5A7A84" d="M45,1H3C1.89543,1,1,1.89543,1,3v42c0,1.10457,0.89543,2,2,2h42c1.10457,0,2-0.89543,2-2V3
	C47,1.89543,46.10457,1,45,1z"/>
<path fill="#FFFFFF" d="M28.62104,40v-2.3861l3.62413-0.39768L29.85908,30H17.5255l-2.34291,7.21622l3.58095,0.39768V40H8.59652
	v-2.34291l1.90024-0.48586c0.70899-0.17635,0.92853-0.30951,1.10488-0.84035L21.32598,8h5.12849l9.90069,28.37587
	c0.17635,0.53084,0.52905,0.61902,1.06169,0.75038l1.98662,0.48766V40H28.62104z M23.75887,11.44779L18.544,27h10.33976
	L23.75887,11.44779z"/>
</svg>
