<?xml version="1.0" encoding="utf-8"?>
<!-- Generator: Adobe Illustrator 19.2.0, SVG Export Plug-In . SVG Version: 6.00 Build 0)  -->
<!DOCTYPE svg PUBLIC "-//W3C//DTD SVG 1.1//EN" "http://www.w3.org/Graphics/SVG/1.1/DTD/svg11.dtd">
<svg version="1.1" id="Layer_1" xmlns="http://www.w3.org/2000/svg" xmlns:xlink="http://www.w3.org/1999/xlink" x="0px" y="0px"
	 width="64px" height="64px" viewBox="0 0 64 64" enable-background="new 0 0 64 64" xml:space="preserve">
<path d="M44.447,57.105L37,53.382V38c0-0.553-0.448-1-1-1s-1,0.447-1,1v16c0,0.379,0.214,0.725,0.553,0.895L43,58.618V61H21v-2.382
	l7.447-3.724C28.786,54.725,29,54.379,29,54V38c0-0.553-0.448-1-1-1s-1,0.447-1,1v15.382l-7.447,3.724
	C19.214,57.275,19,57.621,19,58v4c0,0.553,0.448,1,1,1h24c0.552,0,1-0.447,1-1v-4C45,57.621,44.786,57.275,44.447,57.105z"/>
<path d="M62,31H37V11h13.586l3.707,3.707C54.48,14.895,54.735,15,55,15h3c0.552,0,1-0.447,1-1V2c0-0.553-0.448-1-1-1H6
	C5.448,1,5,1.447,5,2v12c0,0.553,0.448,1,1,1h3c0.315,0,0.611-0.148,0.8-0.4l2.7-3.6H27v20H2c-0.552,0-1,0.447-1,1s0.448,1,1,1h60
	c0.552,0,1-0.447,1-1S62.552,31,62,31z M28,9H12c-0.315,0-0.611,0.148-0.8,0.4L8.5,13H7V3h50v10h-1.586l-3.707-3.707
	C51.52,9.105,51.265,9,51,9H36c-0.552,0-1,0.447-1,1v21h-6V10C29,9.447,28.552,9,28,9z"/>
</svg>
