<?xml version="1.0" encoding="utf-8"?>
<!-- Generator: Adobe Illustrator 19.2.0, SVG Export Plug-In . SVG Version: 6.00 Build 0)  -->
<!DOCTYPE svg PUBLIC "-//W3C//DTD SVG 1.1//EN" "http://www.w3.org/Graphics/SVG/1.1/DTD/svg11.dtd">
<svg version="1.1" id="Layer_1" xmlns="http://www.w3.org/2000/svg" xmlns:xlink="http://www.w3.org/1999/xlink" x="0px" y="0px"
	 width="64px" height="64px" viewBox="0 0 64 64" enable-background="new 0 0 64 64" xml:space="preserve">
<path d="M62,7H2C1.448,7,1,7.447,1,8s0.448,1,1,1h60c0.552,0,1-0.447,1-1S62.552,7,62,7z"/>
<path d="M62,19H38c-0.552,0-1,0.447-1,1s0.448,1,1,1h24c0.552,0,1-0.447,1-1S62.552,19,62,19z"/>
<path d="M62,31H38c-0.552,0-1,0.447-1,1s0.448,1,1,1h24c0.552,0,1-0.447,1-1S62.552,31,62,31z"/>
<path d="M62,55H2c-0.552,0-1,0.447-1,1s0.448,1,1,1h60c0.552,0,1-0.447,1-1S62.552,55,62,55z"/>
<path d="M62,43H38c-0.552,0-1,0.447-1,1s0.448,1,1,1h24c0.552,0,1-0.447,1-1S62.552,43,62,43z"/>
<path d="M1,32c0,0.553,0.448,1,1,1h22.586l-8.293,8.293c-0.391,0.391-0.391,1.023,0,1.414C16.488,42.902,16.744,43,17,43
	s0.512-0.098,0.707-0.293l9.999-9.999c0.093-0.092,0.166-0.203,0.217-0.326c0.101-0.244,0.101-0.52,0-0.764
	c-0.051-0.123-0.124-0.233-0.217-0.326l-9.999-9.999c-0.391-0.391-1.023-0.391-1.414,0s-0.391,1.023,0,1.414L24.586,31H2
	C1.448,31,1,31.447,1,32z"/>
</svg>
