<?xml version="1.0" encoding="utf-8"?>
<!-- Generator: Adobe Illustrator 19.2.0, SVG Export Plug-In . SVG Version: 6.00 Build 0)  -->
<!DOCTYPE svg PUBLIC "-//W3C//DTD SVG 1.1//EN" "http://www.w3.org/Graphics/SVG/1.1/DTD/svg11.dtd">
<svg version="1.1" id="Layer_1" xmlns="http://www.w3.org/2000/svg" xmlns:xlink="http://www.w3.org/1999/xlink" x="0px" y="0px"
	 width="64px" height="64px" viewBox="0 0 64 64" enable-background="new 0 0 64 64" xml:space="preserve">
<path d="M5,9h54c0.553,0,1-0.448,1-1s-0.447-1-1-1H5C4.447,7,4,7.448,4,8S4.447,9,5,9z"/>
<path d="M59,19H30c-0.553,0-1,0.448-1,1s0.447,1,1,1h29c0.553,0,1-0.448,1-1S59.553,19,59,19z"/>
<path d="M5,33h54c0.553,0,1-0.448,1-1s-0.447-1-1-1H5c-0.553,0-1,0.448-1,1S4.447,33,5,33z"/>
<path d="M59,43H30c-0.553,0-1,0.448-1,1s0.447,1,1,1h29c0.553,0,1-0.448,1-1S59.553,43,59,43z"/>
<path d="M5,57h54c0.553,0,1-0.448,1-1s-0.447-1-1-1H5c-0.553,0-1,0.448-1,1S4.447,57,5,57z"/>
</svg>
