<?xml version="1.0" encoding="utf-8"?>
<!-- Generator: Adobe Illustrator 19.2.0, SVG Export Plug-In . SVG Version: 6.00 Build 0)  -->
<!DOCTYPE svg PUBLIC "-//W3C//DTD SVG 1.1//EN" "http://www.w3.org/Graphics/SVG/1.1/DTD/svg11.dtd">
<svg version="1.1" id="Layer_1" xmlns="http://www.w3.org/2000/svg" xmlns:xlink="http://www.w3.org/1999/xlink" x="0px" y="0px"
	 width="64px" height="64px" viewBox="0 0 64 64" enable-background="new 0 0 64 64" xml:space="preserve">
<path d="M62,19H36c-0.552,0-1,0.448-1,1s0.448,1,1,1h26c0.552,0,1-0.448,1-1S62.552,19,62,19z"/>
<path d="M62,31H36c-0.552,0-1,0.448-1,1s0.448,1,1,1h26c0.552,0,1-0.448,1-1S62.552,31,62,31z"/>
<path d="M62,43H2c-0.552,0-1,0.447-1,1s0.448,1,1,1h60c0.552,0,1-0.447,1-1S62.552,43,62,43z"/>
<path d="M62,55H2c-0.552,0-1,0.447-1,1s0.448,1,1,1h60c0.552,0,1-0.447,1-1S62.552,55,62,55z"/>
<path d="M3.586,32.91c0.5,0.229,1.095,0.006,1.324-0.497L8.28,25h13.44l3.37,7.414C25.257,32.782,25.621,33,26,33
	c0.139,0,0.279-0.029,0.413-0.09c0.503-0.229,0.725-0.821,0.497-1.324l-3.625-7.974c0-0.001-0.001-0.002-0.001-0.003L16.91,9.586
	C16.748,9.229,16.392,9,16,9h-2c-0.392,0-0.748,0.229-0.91,0.586L6.716,23.609c0,0.001-0.001,0.002-0.001,0.003L3.09,31.586
	C2.861,32.089,3.083,32.682,3.586,32.91z M14.644,11h0.712l5.455,12H9.189L14.644,11z"/>
<path d="M62,7H36c-0.552,0-1,0.448-1,1s0.448,1,1,1h26c0.552,0,1-0.448,1-1S62.552,7,62,7z"/>
</svg>
