<?xml version="1.0" encoding="utf-8"?>
<!-- Generator: Adobe Illustrator 19.2.0, SVG Export Plug-In . SVG Version: 6.00 Build 0)  -->
<!DOCTYPE svg PUBLIC "-//W3C//DTD SVG 1.1//EN" "http://www.w3.org/Graphics/SVG/1.1/DTD/svg11.dtd">
<svg version="1.1" id="Layer_1" xmlns="http://www.w3.org/2000/svg" xmlns:xlink="http://www.w3.org/1999/xlink" x="0px" y="0px"
	 width="64px" height="64px" viewBox="0 0 64 64" enable-background="new 0 0 64 64" xml:space="preserve">
<path d="M33,46c0-0.553-0.447-1-1-1h-9V3h18v5c0,0.553,0.447,1,1,1s1-0.447,1-1V2c0-0.553-0.447-1-1-1H2C1.447,1,1,1.447,1,2v6
	c0,0.553,0.447,1,1,1s1-0.447,1-1V3h18v42h-9c-0.553,0-1,0.447-1,1s0.447,1,1,1h20C32.553,47,33,46.553,33,46z"/>
<path d="M62,17H30c-0.553,0-1,0.447-1,1s0.447,1,1,1h11v42h-9c-0.553,0-1,0.447-1,1s0.447,1,1,1h20c0.553,0,1-0.447,1-1
	s-0.447-1-1-1h-9V19h18v5c0,0.553,0.447,1,1,1s1-0.447,1-1v-6C63,17.447,62.553,17,62,17z"/>
</svg>
