<?xml version="1.0" encoding="utf-8"?>
<!-- Generator: Adobe Illustrator 19.2.0, SVG Export Plug-In . SVG Version: 6.00 Build 0)  -->
<!DOCTYPE svg PUBLIC "-//W3C//DTD SVG 1.1//EN" "http://www.w3.org/Graphics/SVG/1.1/DTD/svg11.dtd">
<svg version="1.1" id="Layer_1" xmlns="http://www.w3.org/2000/svg" xmlns:xlink="http://www.w3.org/1999/xlink" x="0px" y="0px"
	 width="32px" height="32px" viewBox="0 0 32 32" enable-background="new 0 0 32 32" xml:space="preserve">
<path d="M31,24H1c-0.553,0-1,0.448-1,1v6c0,0.552,0.447,1,1,1h30c0.553,0,1-0.448,1-1v-6C32,24.448,31.553,24,31,24z"/>
<path d="M12.727,18.509l-2.238-0.249l1.43-4.26h7.78l1.455,4.26l-2.265,0.249V20h6.739v-1.491l-1.242-0.305
	c-0.333-0.082-0.553-0.137-0.664-0.469L17.534,0h-3.205L8.251,17.707c-0.11,0.332-0.247,0.415-0.691,0.525l-1.188,0.304V20h6.354
	V18.509z M15.849,2.155L19.094,12h-6.547L15.849,2.155z"/>
</svg>
