<?xml version="1.0" encoding="utf-8"?>
<!-- Generator: Adobe Illustrator 19.2.0, SVG Export Plug-In . SVG Version: 6.00 Build 0)  -->
<!DOCTYPE svg PUBLIC "-//W3C//DTD SVG 1.1//EN" "http://www.w3.org/Graphics/SVG/1.1/DTD/svg11.dtd">
<svg version="1.1" id="Layer_1" xmlns="http://www.w3.org/2000/svg" xmlns:xlink="http://www.w3.org/1999/xlink" x="0px" y="0px"
	 width="32px" height="32px" viewBox="0 0 32 32" enable-background="new 0 0 32 32" xml:space="preserve">
<path d="M30.561,5.781c-0.024,0.119-0.072,0.143-0.192,0.143h-1.763l1.355-1.294c0.875-0.84,1.655-1.583,1.655-2.71
	c0-1.127-0.66-1.919-2.519-1.919c-1.259,0-2.71,0.312-2.723,2.219l1.631,0.144c0-0.852,0.276-1.067,0.935-1.067
	c0.636,0,0.852,0.324,0.852,0.768c0,0.684-0.516,1.164-1.727,2.339l-1.607,1.571v1.115H32V4.833h-1.271L30.561,5.781z"/>
<path d="M0,11.004h2.347L3.01,7.397C3.092,6.986,3.215,7,3.673,7H10v21.603c0,0.621,0.012,0.786-0.568,0.83L5,29.723V32h14v-2.277
	l-4.432-0.334C13.948,29.348,14,29.183,14,28.603V7h6.329c0.456,0,0.58-0.014,0.663,0.397l0.663,3.607H24V4H0V11.004z"/>
</svg>
