<?xml version="1.0" encoding="utf-8"?>
<!-- Generator: Adobe Illustrator 19.2.0, SVG Export Plug-In . SVG Version: 6.00 Build 0)  -->
<!DOCTYPE svg PUBLIC "-//W3C//DTD SVG 1.1//EN" "http://www.w3.org/Graphics/SVG/1.1/DTD/svg11.dtd">
<svg version="1.1" id="Layer_1" xmlns="http://www.w3.org/2000/svg" xmlns:xlink="http://www.w3.org/1999/xlink" x="0px" y="0px"
	 width="32px" height="32px" viewBox="0 0 32 32" enable-background="new 0 0 32 32" xml:space="preserve">
<path d="M28.452,22.754c0-4.143-2.195-6.795-6.918-7.335v-0.123c2.527-0.828,5.054-3.025,5.054-6.962
	C26.588,4.232,24.599,1,17.513,1H4v3l1.632,0.544C6.449,4.816,7,5.581,7,6.442v19.117c0,0.861-0.551,1.625-1.368,1.897L4,28v3h13.14
	C23.646,31,28.452,28.886,28.452,22.754z M13,5h3.5C18.985,5,21,7.015,21,9.5S18.985,14,16.5,14H13V5z M13,18h4.5
	c2.485,0,4.5,2.015,4.5,4.5S19.985,27,17.5,27H13V18z"/>
</svg>
