<?xml version="1.0" encoding="utf-8"?>
<!-- Generator: Adobe Illustrator 19.2.0, SVG Export Plug-In . SVG Version: 6.00 Build 0)  -->
<!DOCTYPE svg PUBLIC "-//W3C//DTD SVG 1.1//EN" "http://www.w3.org/Graphics/SVG/1.1/DTD/svg11.dtd">
<svg version="1.1" id="Layer_1" xmlns="http://www.w3.org/2000/svg" xmlns:xlink="http://www.w3.org/1999/xlink" x="0px" y="0px"
	 width="32px" height="32px" viewBox="0 0 32 32" enable-background="new 0 0 32 32" xml:space="preserve">
<path d="M31,3H1C0.448,3,0,3.447,0,4s0.448,1,1,1h30c0.552,0,1-0.447,1-1S31.552,3,31,3z"/>
<path d="M1,11h12c0.552,0,1-0.447,1-1s-0.448-1-1-1H1c-0.552,0-1,0.447-1,1S0.448,11,1,11z"/>
<path d="M1,17h12c0.552,0,1-0.447,1-1s-0.448-1-1-1H1c-0.552,0-1,0.447-1,1S0.448,17,1,17z"/>
<path d="M31,27H1c-0.552,0-1,0.447-1,1s0.448,1,1,1h30c0.552,0,1-0.447,1-1S31.552,27,31,27z"/>
<path d="M1,23h12c0.552,0,1-0.447,1-1s-0.448-1-1-1H1c-0.552,0-1,0.447-1,1S0.448,23,1,23z"/>
<path d="M31,15h-8v-4l-6,5l6,5v-4h8c0.552,0,1-0.448,1-1C32,15.448,31.552,15,31,15z"/>
</svg>
