<?xml version="1.0" encoding="utf-8"?>
<!-- Generator: Adobe Illustrator 19.2.0, SVG Export Plug-In . SVG Version: 6.00 Build 0)  -->
<!DOCTYPE svg PUBLIC "-//W3C//DTD SVG 1.1//EN" "http://www.w3.org/Graphics/SVG/1.1/DTD/svg11.dtd">
<svg version="1.1" id="Layer_1" xmlns="http://www.w3.org/2000/svg" xmlns:xlink="http://www.w3.org/1999/xlink" x="0px" y="0px"
	 width="32px" height="32px" viewBox="0 0 32 32" enable-background="new 0 0 32 32" xml:space="preserve">
<path d="M14.106,6.615l-1.478-2.38c-3.204,1.408-5.944,3.475-8.218,6.201c-4.584,5.496-4.059,11.641-1.427,14.883
	c2.223,2.745,6.972,3.43,9.76,0.838c1.763-1.639,2.095-3.704,1.411-5.765c-0.431-1.317-1.482-2.465-3.212-3.084
	c-1.52-0.544-3.226-0.469-5.282-0.469C6.142,11.818,9.548,8.823,14.106,6.615z"/>
<path d="M30.631,6.615l-1.478-2.38c-3.204,1.408-5.944,3.475-8.218,6.201c-4.584,5.496-4.059,11.641-1.427,14.883
	c2.223,2.745,6.972,3.43,9.76,0.838c1.763-1.639,2.095-3.704,1.411-5.765c-0.431-1.317-1.482-2.465-3.212-3.084
	c-1.52-0.544-3.226-0.469-5.282-0.469C22.667,11.818,26.074,8.823,30.631,6.615z"/>
</svg>
