<?xml version="1.0" encoding="utf-8"?>
<!-- Generator: Adobe Illustrator 19.1.0, SVG Export Plug-In . SVG Version: 6.00 Build 0)  -->
<!DOCTYPE svg PUBLIC "-//W3C//DTD SVG 1.1//EN" "http://www.w3.org/Graphics/SVG/1.1/DTD/svg11.dtd">
<svg version="1.1" id="Layer_1" xmlns="http://www.w3.org/2000/svg" xmlns:xlink="http://www.w3.org/1999/xlink" x="0px" y="0px"
	 width="16px" height="16px" viewBox="0 0 16 16" enable-background="new 0 0 16 16" xml:space="preserve">
<path fill="#444444" d="M14,6c-0.6,0-1,0.4-1,1v2H9V1c0-0.6-0.4-1-1-1S7,0.4,7,1v4H3V3c0-0.6-0.4-1-1-1S1,2.4,1,3v3c0,0.6,0.4,1,1,1
	h5v7H4v2h8v-2H9v-3h5c0.6,0,1-0.4,1-1V7C15,6.4,14.6,6,14,6z"/>
</svg>
