<?xml version="1.0" encoding="utf-8"?>
<!-- Generator: Adobe Illustrator 19.1.0, SVG Export Plug-In . SVG Version: 6.00 Build 0)  -->
<!DOCTYPE svg PUBLIC "-//W3C//DTD SVG 1.1//EN" "http://www.w3.org/Graphics/SVG/1.1/DTD/svg11.dtd">
<svg version="1.1" id="Layer_1" xmlns="http://www.w3.org/2000/svg" xmlns:xlink="http://www.w3.org/1999/xlink" x="0px" y="0px"
	 width="16px" height="16px" viewBox="0 0 16 16" enable-background="new 0 0 16 16" xml:space="preserve">
<path fill="#444444" d="M14,0H2C1.4,0,1,0.5,1,1v11c0,0.4,0.2,0.8,0.6,0.9l7,3c0.3,0.1,0.7,0.1,0.9-0.1C9.8,15.6,10,15.3,10,15v-2h4
	c0.6,0,1-0.4,1-1V1C15,0.4,14.6,0,14,0z M13,11h-3V4c0-0.4-0.2-0.8-0.6-0.9L6.9,2H13V11z"/>
</svg>
