<?xml version="1.0" encoding="utf-8"?>
<!-- Generator: Adobe Illustrator 19.1.0, SVG Export Plug-In . SVG Version: 6.00 Build 0)  -->
<!DOCTYPE svg PUBLIC "-//W3C//DTD SVG 1.1//EN" "http://www.w3.org/Graphics/SVG/1.1/DTD/svg11.dtd">
<svg version="1.1" id="Layer_1" xmlns="http://www.w3.org/2000/svg" xmlns:xlink="http://www.w3.org/1999/xlink" x="0px" y="0px"
	 width="16px" height="16px" viewBox="0 0 16 16" enable-background="new 0 0 16 16" xml:space="preserve">
<path data-color="color-2" fill="#444444" d="M15,6V1c0-0.6-0.4-1-1-1H2C1.4,0,1,0.4,1,1v5H15z M6,2h4v2H6V2z"/>
<path fill="#444444" d="M1,8v5c0,0.6,0.4,1,1,1h1v2h3v-2h4v2h3v-2h1c0.6,0,1-0.4,1-1V8H1z M10,12H6v-2h4V12z"/>
</svg>
