<?xml version="1.0" encoding="utf-8"?>
<!-- Generator: Adobe Illustrator 19.1.0, SVG Export Plug-In . SVG Version: 6.00 Build 0)  -->
<!DOCTYPE svg PUBLIC "-//W3C//DTD SVG 1.1//EN" "http://www.w3.org/Graphics/SVG/1.1/DTD/svg11.dtd">
<svg version="1.1" id="Layer_1" xmlns="http://www.w3.org/2000/svg" xmlns:xlink="http://www.w3.org/1999/xlink" x="0px" y="0px"
	 width="64px" height="64px" viewBox="0 0 64 64" enable-background="new 0 0 64 64" xml:space="preserve">
<path d="M62,9H52l-3-7.4C48.8,1.2,48.4,1,48,1H16c-0.4,0-0.8,0.2-0.9,0.6L12,9H2c-0.6,0-1,0.4-1,1v52c0,0.6,0.4,1,1,1h29V45.3
	L19.2,31.8l2.1-4.1l-11-9l3.4-8.3c0,0,0,0,0,0l2.5-6L32,34.1L47.9,4.3l2.5,6c0,0,0,0,0,0l3.4,8.3l-11,9l2.1,4.1L33,45.3V63h29
	c0.6,0,1-0.4,1-1V10C63,9.4,62.6,9,62,9z M52,51h-9c-0.6,0-1-0.4-1-1s0.4-1,1-1h9c0.6,0,1,0.4,1,1S52.6,51,52,51z"/>
</svg>
