<?xml version="1.0" encoding="utf-8"?>
<!-- Generator: Adobe Illustrator 19.1.0, SVG Export Plug-In . SVG Version: 6.00 Build 0)  -->
<!DOCTYPE svg PUBLIC "-//W3C//DTD SVG 1.1//EN" "http://www.w3.org/Graphics/SVG/1.1/DTD/svg11.dtd">
<svg version="1.1" id="Layer_1" xmlns="http://www.w3.org/2000/svg" xmlns:xlink="http://www.w3.org/1999/xlink" x="0px" y="0px"
	 width="64px" height="64px" viewBox="0 0 64 64" enable-background="new 0 0 64 64" xml:space="preserve">
<path id="color_19_" d="M42,19H22c-0.6,0-1,0.4-1,1v24c0,0.6,0.4,1,1,1h20c0.6,0,1-0.4,1-1V20C43,19.4,42.6,19,42,19z M30,33h-5
	c-0.6,0-1-0.4-1-1s0.4-1,1-1h5c0.6,0,1,0.4,1,1S30.6,33,30,33z"/>
<path d="M62,23H45v18h17c0.6,0,1-0.4,1-1V24C63,23.4,62.6,23,62,23z M55,33h-2c-0.6,0-1-0.4-1-1s0.4-1,1-1h2c0.6,0,1,0.4,1,1
	S55.6,33,55,33z"/>
<path d="M2,23c-0.6,0-1,0.4-1,1v16c0,0.6,0.4,1,1,1h17V23H2z M11,33H9c-0.6,0-1-0.4-1-1c0-0.6,0.4-1,1-1h2c0.6,0,1,0.4,1,1
	C12,32.6,11.6,33,11,33z"/>
</svg>
