<?xml version="1.0" encoding="utf-8"?>
<!-- Generator: Adobe Illustrator 19.1.0, SVG Export Plug-In . SVG Version: 6.00 Build 0)  -->
<!DOCTYPE svg PUBLIC "-//W3C//DTD SVG 1.1//EN" "http://www.w3.org/Graphics/SVG/1.1/DTD/svg11.dtd">
<svg version="1.1" id="Layer_1" xmlns="http://www.w3.org/2000/svg" xmlns:xlink="http://www.w3.org/1999/xlink" x="0px" y="0px"
	 width="64px" height="64px" viewBox="0 0 64 64" enable-background="new 0 0 64 64" xml:space="preserve">
<path d="M54,1L42,1c-0.6,0-1,0.4-1,1c0,6.8-7.7,11.9-14.9,7.1c-2.3-1.5-3.3-4.3-3.1-7c0-0.6-0.4-1-1-1H10c-5,0-9,4-9,9v24
	c0,0.6,0.4,1,1,1h10v-9c0-0.6,0.4-1,1-1s1,0.4,1,1v36c0,0.6,0.4,1,1,1h34c0.6,0,1-0.4,1-1V26c0-0.6,0.4-1,1-1s1,0.4,1,1v9h10
	c0.6,0,1-0.4,1-1V10C63,5,59,1,54,1z"/>
</svg>
