<?xml version="1.0" encoding="utf-8"?>
<!-- Generator: Adobe Illustrator 19.1.0, SVG Export Plug-In . SVG Version: 6.00 Build 0)  -->
<!DOCTYPE svg PUBLIC "-//W3C//DTD SVG 1.1//EN" "http://www.w3.org/Graphics/SVG/1.1/DTD/svg11.dtd">
<svg version="1.1" id="Layer_1" xmlns="http://www.w3.org/2000/svg" xmlns:xlink="http://www.w3.org/1999/xlink" x="0px" y="0px"
	 width="64px" height="64px" viewBox="0 0 64 64" enable-background="new 0 0 64 64" xml:space="preserve">
<path d="M62,9H49V2c0-0.6-0.4-1-1-1H16c-0.6,0-1,0.4-1,1v7H2c-0.6,0-1,0.4-1,1v52c0,0.6,0.4,1,1,1h60c0.6,0,1-0.4,1-1V10
	C63,9.4,62.6,9,62,9z M17,22.4V4.3l13.3,11.5l-11.8,7.4C17.9,23.7,17,23.2,17,22.4z M33,56c0,0.6-0.4,1-1,1s-1-0.4-1-1v-2
	c0-0.6,0.4-1,1-1s1,0.4,1,1V56z M33,46c0,0.6-0.4,1-1,1s-1-0.4-1-1v-2c0-0.6,0.4-1,1-1s1,0.4,1,1V46z M33,36c0,0.6-0.4,1-1,1
	s-1-0.4-1-1v-2c0-0.6,0.4-1,1-1s1,0.4,1,1V36z M33,26c0,0.6-0.4,1-1,1s-1-0.4-1-1v-2c0-0.6,0.4-1,1-1s1,0.4,1,1V26z M47,4.3v18.1
	c0,0.8-0.9,1.3-1.5,0.8l-11.8-7.4L47,4.3z M55,47c0,0.4-0.2,0.7-0.6,0.9l-6,3C48.3,51,48.2,51,48,51s-0.3,0-0.4-0.1l-6-3
	C41.2,47.7,41,47.4,41,47V36c0-0.6,0.4-1,1-1h12c0.6,0,1,0.4,1,1V47z"/>
</svg>
