<?xml version="1.0" encoding="utf-8"?>
<!-- Generator: Adobe Illustrator 19.1.0, SVG Export Plug-In . SVG Version: 6.00 Build 0)  -->
<!DOCTYPE svg PUBLIC "-//W3C//DTD SVG 1.1//EN" "http://www.w3.org/Graphics/SVG/1.1/DTD/svg11.dtd">
<svg version="1.1" id="Layer_1" xmlns="http://www.w3.org/2000/svg" xmlns:xlink="http://www.w3.org/1999/xlink" x="0px" y="0px"
	 width="64px" height="64px" viewBox="0 0 64 64" enable-background="new 0 0 64 64" xml:space="preserve">
<path d="M60.7,25.3C55,19.7,51,10.1,51,2c0-0.6-0.4-1-1-1h-6c-0.6,0-1,0.4-1,1c0,6.1-4.9,11-11,11S21,8.1,21,2c0-0.6-0.4-1-1-1h-6
	c-0.6,0-1,0.4-1,1c0,8-4,17.6-9.7,23.3C3.1,25.5,3,25.7,3,26v36c0,0.6,0.4,1,1,1h56c0.6,0,1-0.4,1-1V26C61,25.7,60.9,25.5,60.7,25.3
	z"/>
</svg>
