<?xml version="1.0" encoding="utf-8"?>
<!-- Generator: Adobe Illustrator 19.1.0, SVG Export Plug-In . SVG Version: 6.00 Build 0)  -->
<!DOCTYPE svg PUBLIC "-//W3C//DTD SVG 1.1//EN" "http://www.w3.org/Graphics/SVG/1.1/DTD/svg11.dtd">
<svg version="1.1" id="Layer_1" xmlns="http://www.w3.org/2000/svg" xmlns:xlink="http://www.w3.org/1999/xlink" x="0px" y="0px"
	 width="64px" height="64px" viewBox="0 0 64 64" enable-background="new 0 0 64 64" xml:space="preserve">
<rect id="color_47_" x="33" y="1" width="11" height="7"/>
<path id="color_46_" d="M59,8V2c0-0.6-0.4-1-1-1H46v7H59z"/>
<path id="color_45_" d="M18,8V1H6C5.4,1,5,1.4,5,2v6H18z"/>
<rect id="color_44_" x="20" y="1" width="11" height="7"/>
<path d="M48,20c0-0.6,0.4-1,1-1s1,0.4,1,1c0,5,4,9,9,9V10H33v12.8c0,0.6-0.4,1-1,1s-1-0.4-1-1V10H5v19c5,0,9-4,9-9c0-0.6,0.4-1,1-1
	s1,0.4,1,1c0,6.1-4.9,11-11,11v31c0,0.6,0.4,1,1,1h22c0.6,0,1-0.4,1-1V38c0-1.7,1.3-3,3-3s3,1.3,3,3v24c0,0.6,0.4,1,1,1h22
	c0.6,0,1-0.4,1-1V31C52.9,31,48,26.1,48,20z"/>
</svg>
