<?xml version="1.0" encoding="utf-8"?>
<!-- Generator: Adobe Illustrator 19.1.0, SVG Export Plug-In . SVG Version: 6.00 Build 0)  -->
<!DOCTYPE svg PUBLIC "-//W3C//DTD SVG 1.1//EN" "http://www.w3.org/Graphics/SVG/1.1/DTD/svg11.dtd">
<svg version="1.1" id="Layer_1" xmlns="http://www.w3.org/2000/svg" xmlns:xlink="http://www.w3.org/1999/xlink" x="0px" y="0px"
	 width="64px" height="64px" viewBox="0 0 64 64" enable-background="new 0 0 64 64" xml:space="preserve">
<path id="color_63_" d="M2,23c1.7,0,3.4,0.1,5,0.4V10c0-0.6-0.4-1-1-1H2c-0.6,0-1,0.4-1,1v13.2C1.3,23.1,1.6,23,2,23z"/>
<path id="color_62_" d="M62,23c0.4,0,0.7,0.1,1,0.2V10c0-0.6-0.4-1-1-1h-4c-0.6,0-1,0.4-1,1v13.4C58.6,23.1,60.3,23,62,23z"/>
<path d="M62,25c-17.3,0-27.1,12.7-30,17.1C29.1,37.7,19.3,25,2,25c-0.6,0-1,0.4-1,1v18c0,6.1,4.9,11,11,11h40c6.1,0,11-4.9,11-11V26
	C63,25.4,62.6,25,62,25z"/>
</svg>
