<?xml version="1.0" encoding="utf-8"?>
<!-- Generator: Adobe Illustrator 19.1.0, SVG Export Plug-In . SVG Version: 6.00 Build 0)  -->
<!DOCTYPE svg PUBLIC "-//W3C//DTD SVG 1.1//EN" "http://www.w3.org/Graphics/SVG/1.1/DTD/svg11.dtd">
<svg version="1.1" id="Layer_1" xmlns="http://www.w3.org/2000/svg" xmlns:xlink="http://www.w3.org/1999/xlink" x="0px" y="0px"
	 width="64px" height="64px" viewBox="0 0 64 64" enable-background="new 0 0 64 64" xml:space="preserve">
<path d="M33.4,16l9.3-9.3c0.4-0.4,0.4-1,0-1.4l-4-4C38.5,1.1,38.3,1,38,1H26c-0.3,0-0.5,0.1-0.7,0.3l-4,4c-0.4,0.4-0.4,1,0,1.4
	l9.3,9.3C18.6,16.8,9,26.8,9,39c0,12.7,10.3,23,23,23s23-10.3,23-23C55,26.8,45.4,16.8,33.4,16z M32,58c-10.5,0-19-8.5-19-19
	s8.5-19,19-19s19,8.5,19,19S42.5,58,32,58z"/>
</svg>
