<?xml version="1.0" encoding="utf-8"?>
<!-- Generator: Adobe Illustrator 19.1.0, SVG Export Plug-In . SVG Version: 6.00 Build 0)  -->
<!DOCTYPE svg PUBLIC "-//W3C//DTD SVG 1.1//EN" "http://www.w3.org/Graphics/SVG/1.1/DTD/svg11.dtd">
<svg version="1.1" id="Layer_1" xmlns="http://www.w3.org/2000/svg" xmlns:xlink="http://www.w3.org/1999/xlink" x="0px" y="0px"
	 width="64px" height="64px" viewBox="0 0 64 64" enable-background="new 0 0 64 64" xml:space="preserve">
<path id="color_54_" d="M29,1H16c-0.6,0-1,0.4-1,1v7h14V1z"/>
<path id="color_53_" d="M56,1H43v8h14V2C57,1.4,56.6,1,56,1z"/>
<rect id="color_52_" x="31" y="1" width="10" height="8"/>
<path d="M15,25.6l-7.8,9.7C7,35.6,7,35.9,7,36.2l6,26c0.1,0.5,0.5,0.8,1,0.8h42c0.6,0,1-0.4,1-1V11H15V25.6z M46.5,40.9l-10,6
	C36.4,47,36.2,47,36,47s-0.4,0-0.5-0.1l-10-6C25.2,40.7,25,40.4,25,40V29h22v11C47,40.4,46.8,40.7,46.5,40.9z M26,23h20
	c0.6,0,1,0.4,1,1v3H25v-3C25,23.4,25.4,23,26,23z"/>
</svg>
