<?xml version="1.0" encoding="utf-8"?>
<!-- Generator: Adobe Illustrator 19.1.0, SVG Export Plug-In . SVG Version: 6.00 Build 0)  -->
<!DOCTYPE svg PUBLIC "-//W3C//DTD SVG 1.1//EN" "http://www.w3.org/Graphics/SVG/1.1/DTD/svg11.dtd">
<svg version="1.1" id="Layer_1" xmlns="http://www.w3.org/2000/svg" xmlns:xlink="http://www.w3.org/1999/xlink" x="0px" y="0px"
	 width="64px" height="64px" viewBox="0 0 64 64" enable-background="new 0 0 64 64" xml:space="preserve">
<path d="M62,9H50.2l-3.3-7.4C46.8,1.2,46.4,1,46,1H18c-0.4,0-0.8,0.2-0.9,0.6L13.8,9H2c-0.6,0-1,0.4-1,1v52c0,0.6,0.4,1,1,1h60
	c0.6,0,1-0.4,1-1V10C63,9.4,62.6,9,62,9z M15.4,10.4C15.4,10.4,15.4,10.4,15.4,10.4l2.7-6.1l12.3,24l-3.3,5.9L11.2,19.7L15.4,10.4z
	 M30,58c0,0.6-0.4,1-1,1s-1-0.4-1-1v-3c0-0.6,0.4-1,1-1s1,0.4,1,1V58z M30,50c0,0.6-0.4,1-1,1s-1-0.4-1-1v-3c0-0.6,0.4-1,1-1
	s1,0.4,1,1V50z M24,44L45.9,4.2l2.7,6.1c0,0,0,0,0,0l4.1,9.3L24,44z"/>
</svg>
