<?xml version="1.0" encoding="utf-8"?>
<!-- Generator: Adobe Illustrator 19.1.0, SVG Export Plug-In . SVG Version: 6.00 Build 0)  -->
<!DOCTYPE svg PUBLIC "-//W3C//DTD SVG 1.1//EN" "http://www.w3.org/Graphics/SVG/1.1/DTD/svg11.dtd">
<svg version="1.1" id="Layer_1" xmlns="http://www.w3.org/2000/svg" xmlns:xlink="http://www.w3.org/1999/xlink" x="0px" y="0px"
	 width="64px" height="64px" viewBox="0 0 64 64" enable-background="new 0 0 64 64" xml:space="preserve">
<path d="M58,1H6C5.4,1,5,1.4,5,2v38c0,0.3,0.1,0.6,0.4,0.8l26,20c0.2,0.1,0.4,0.2,0.6,0.2s0.4-0.1,0.6-0.2l26-20
	c0.2-0.2,0.4-0.5,0.4-0.8V2C59,1.4,58.6,1,58,1z M14,13H8c-0.6,0-1-0.4-1-1s0.4-1,1-1h6c0.6,0,1,0.4,1,1S14.6,13,14,13z M28,13h-6
	c-0.6,0-1-0.4-1-1s0.4-1,1-1h6c0.6,0,1,0.4,1,1S28.6,13,28,13z M42,13h-6c-0.6,0-1-0.4-1-1s0.4-1,1-1h6c0.6,0,1,0.4,1,1
	S42.6,13,42,13z M56,13h-6c-0.6,0-1-0.4-1-1s0.4-1,1-1h6c0.6,0,1,0.4,1,1S56.6,13,56,13z"/>
</svg>
