<?xml version="1.0" encoding="utf-8"?>
<!-- Generator: Adobe Illustrator 19.1.0, SVG Export Plug-In . SVG Version: 6.00 Build 0)  -->
<!DOCTYPE svg PUBLIC "-//W3C//DTD SVG 1.1//EN" "http://www.w3.org/Graphics/SVG/1.1/DTD/svg11.dtd">
<svg version="1.1" id="Layer_1" xmlns="http://www.w3.org/2000/svg" xmlns:xlink="http://www.w3.org/1999/xlink" x="0px" y="0px"
	 width="64px" height="64px" viewBox="0 0 64 64" enable-background="new 0 0 64 64" xml:space="preserve">
<path id="color_60_" d="M12,5c-0.6,0-1,0.4-1,1v8c0,0.6,0.4,1,1,1h13V5H12z"/>
<path id="color_59_" d="M52,5H39v10h13c0.6,0,1-0.4,1-1V6C53,5.4,52.6,5,52,5z"/>
<rect id="color_58_" x="27" y="5" width="10" height="10"/>
<path d="M60.9,57.6L53.2,17H33v10c0,0.6-0.4,1-1,1s-1-0.4-1-1V17H10.8L3,57.8c-0.1,0.3,0,0.6,0.2,0.8C3.4,58.9,3.7,59,4,59h56
	c0,0,0,0,0,0c0.6,0,1-0.4,1-1C61,57.9,61,57.7,60.9,57.6z"/>
</svg>
