<?xml version="1.0" encoding="utf-8"?>
<!-- Generator: Adobe Illustrator 19.1.0, SVG Export Plug-In . SVG Version: 6.00 Build 0)  -->
<!DOCTYPE svg PUBLIC "-//W3C//DTD SVG 1.1//EN" "http://www.w3.org/Graphics/SVG/1.1/DTD/svg11.dtd">
<svg version="1.1" id="Layer_1" xmlns="http://www.w3.org/2000/svg" xmlns:xlink="http://www.w3.org/1999/xlink" x="0px" y="0px"
	 width="64px" height="64px" viewBox="0 0 64 64" enable-background="new 0 0 64 64" xml:space="preserve">
<path d="M49,9c-2.2,0-4,1.8-4,4v12c0,0.6-0.4,1-1,1s-1-0.4-1-1V10c0-2.2-1.8-4-4-4c-2.2,0-4,1.8-4,4v15c0,0.6-0.4,1-1,1s-1-0.4-1-1
	V6c0-2.2-1.8-4-4-4c-2.2,0-4,1.8-4,4v19c0,0.6-0.4,1-1,1s-1-0.4-1-1V8c0-2.2-1.8-4-4-4c-2.2,0-4,1.8-4,4v33.2l7.6-7.6
	c1.2-1.2,2.7-1.8,4.4-1.8s3.2,0.6,4.4,1.8c2.4,2.4,2.4,6.4,0,8.8L27,46.8V63h14c0.4,0,0.7-0.2,0.9-0.6l2.1-4.2l2.1,4.2
	c0.2,0.3,0.5,0.6,0.9,0.6h5c0.6,0,1-0.4,1-1V13C53,10.8,51.2,9,49,9z"/>
<path id="color_12_" d="M25,63V46l5-5c1.7-1.7,1.7-4.3,0-6l0,0c-1.7-1.7-4.3-1.7-6,0l-9,9v18c0,0.6,0.4,1,1,1H25z"/>
</svg>
