<?xml version="1.0" encoding="utf-8"?>
<!-- Generator: Adobe Illustrator 19.1.0, SVG Export Plug-In . SVG Version: 6.00 Build 0)  -->
<!DOCTYPE svg PUBLIC "-//W3C//DTD SVG 1.1//EN" "http://www.w3.org/Graphics/SVG/1.1/DTD/svg11.dtd">
<svg version="1.1" id="Layer_1" xmlns="http://www.w3.org/2000/svg" xmlns:xlink="http://www.w3.org/1999/xlink" x="0px" y="0px"
	 width="64px" height="64px" viewBox="0 0 64 64" enable-background="new 0 0 64 64" xml:space="preserve">
<circle cx="32" cy="30" r="3"/>
<path d="M32,45c2.8,0,5-2.2,5-5s-2.2-5-5-5s-5,2.2-5,5S29.2,45,32,45z"/>
<path id="color_20_" d="M3,57v5c0,0.6,0.4,1,1,1h56c0.6,0,1-0.4,1-1v-5H3z"/>
<path d="M61,55V26c0-0.3-0.1-0.5-0.3-0.7C55,19.7,51,10.1,51,2c0-0.6-0.4-1-1-1h-6c-0.6,0-1,0.4-1,1c0,6.1-4.9,11-11,11S21,8.1,21,2
	c0-0.6-0.4-1-1-1h-6c-0.6,0-1,0.4-1,1c0,8-4,17.6-9.7,23.3C3.1,25.5,3,25.7,3,26v29H61z M27,30c0-2.8,2.2-5,5-5s5,2.2,5,5
	c0,1.5-0.7,2.9-1.8,3.8C37.5,35,39,37.3,39,40c0,3.9-3.1,7-7,7s-7-3.1-7-7c0-2.7,1.5-5,3.8-6.2C27.7,32.9,27,31.5,27,30z"/>
</svg>
