<?xml version="1.0" encoding="utf-8"?>
<!-- Generator: Adobe Illustrator 19.2.1, SVG Export Plug-In . SVG Version: 6.00 Build 0)  -->
<!DOCTYPE svg PUBLIC "-//W3C//DTD SVG 1.1//EN" "http://www.w3.org/Graphics/SVG/1.1/DTD/svg11.dtd">
<svg version="1.1" id="Layer_1" xmlns="http://www.w3.org/2000/svg" xmlns:xlink="http://www.w3.org/1999/xlink" x="0px" y="0px"
	 width="64px" height="64px" viewBox="0 0 64 64" enable-background="new 0 0 64 64" xml:space="preserve">
<path d="M41,44.169c0-0.44-0.527-0.665-0.845-0.362l-7.822,7.469c-0.244,0.244-0.257,0.634-0.03,0.894l7.822,8.842
	C40.431,61.356,41,61.141,41,60.68V57h15.183c0.36,0,0.692-0.193,0.87-0.506L62,48H41V44.169z"/>
<path d="M49.427,46h11.67l-8.694-18.664c-0.235-0.507-0.84-0.723-1.343-0.48l-7.821,3.781c-0.493,0.238-0.702,0.828-0.471,1.324
	L49.427,46z"/>
<path d="M20.036,40.648c0.403,0.187,0.832-0.205,0.681-0.623l-4.058-11.267c-0.093-0.257-0.374-0.392-0.632-0.304L4.818,32.294
	C4.392,32.44,4.361,33.03,4.77,33.22l3.138,1.458L2.122,47.091c-0.199,0.428-0.153,0.93,0.121,1.314l6.1,8.539l7.967-18.027
	L20.036,40.648z"/>
<path d="M32.787,22.964l11.718,2.469c0.267,0.056,0.53-0.112,0.591-0.378l2.624-11.554c0.1-0.439-0.387-0.776-0.763-0.528
	l-2.889,1.904L37.289,2.675c-0.231-0.415-0.669-0.673-1.144-0.673L23.588,2l12.458,17.798l-3.431,2.26
	C32.244,22.302,32.353,22.873,32.787,22.964z"/>
<path d="M13.482,21.506c-0.26,0.503-0.051,1.122,0.461,1.364l7.835,3.698c0.49,0.231,1.074,0.031,1.319-0.452l6.262-12.384
	l-6.823-9.748L13.482,21.506z"/>
<path d="M27,47H14.924l-4.419,10H27c0.552,0,1-0.448,1-1v-8C28,47.448,27.552,47,27,47z"/>
</svg>
