<?xml version="1.0" encoding="utf-8"?>
<!-- Generator: Adobe Illustrator 19.2.1, SVG Export Plug-In . SVG Version: 6.00 Build 0)  -->
<!DOCTYPE svg PUBLIC "-//W3C//DTD SVG 1.1//EN" "http://www.w3.org/Graphics/SVG/1.1/DTD/svg11.dtd">
<svg version="1.1" id="Layer_1" xmlns="http://www.w3.org/2000/svg" xmlns:xlink="http://www.w3.org/1999/xlink" x="0px" y="0px"
	 width="64px" height="64px" viewBox="0 0 64 64" enable-background="new 0 0 64 64" xml:space="preserve">
<path d="M12,62c3,0,6-2.2,6-6s-6-10-6-10s-6,6.2-6,10S9,62,12,62z"/>
<path d="M7,38h10c0.552,0,1-0.448,1-1v-5c0-2.209,1.791-4,4-4h7.999c1.824,2.436,4.724,4,8.001,4c3.277,0,6.176-1.565,8-4h11
	c0.552,0,1-0.448,1-1V17c0-0.552-0.448-1-1-1H46c-1.441-1.925-3.56-3.291-6-3.785V6h9c0.552,0,1-0.448,1-1V3c0-0.552-0.448-1-1-1H27
	c-0.552,0-1,0.448-1,1v2c0,0.552,0.448,1,1,1h9v6.215c-2.44,0.494-4.559,1.861-6.001,3.785H22c-8.837,0-16,7.163-16,16v5
	C6,37.552,6.448,38,7,38z"/>
</svg>
