<?xml version="1.0" encoding="utf-8"?>
<!-- Generator: Adobe Illustrator 19.1.0, SVG Export Plug-In . SVG Version: 6.00 Build 0)  -->
<!DOCTYPE svg PUBLIC "-//W3C//DTD SVG 1.1//EN" "http://www.w3.org/Graphics/SVG/1.1/DTD/svg11.dtd">
<svg version="1.1" id="Layer_49" xmlns="http://www.w3.org/2000/svg" xmlns:xlink="http://www.w3.org/1999/xlink" x="0px" y="0px"
	 width="24px" height="24px" viewBox="0 0 24 24" enable-background="new 0 0 24 24" xml:space="preserve">
<path fill="#231F20" d="M24,12c0-0.6-0.4-1-1-1h-2.1c-0.5-4.2-3.8-7.5-7.9-7.9V1c0-0.6-0.4-1-1-1s-1,0.4-1,1v2.1
	C6.8,3.5,3.5,6.8,3.1,11H1c-0.6,0-1,0.4-1,1s0.4,1,1,1v9c-0.6,0-1,0.4-1,1s0.4,1,1,1h22c0.6,0,1-0.4,1-1s-0.4-1-1-1v-9
	C23.6,13,24,12.6,24,12z M12,5c3.5,0,6.4,2.6,6.9,6H5.1C5.6,7.6,8.5,5,12,5z M11,13v9H8v-9H11z M13,13h3v9h-3V13z M3,13h3v9H3V13z
	 M21,22h-3v-9h3V22z"/>
</svg>
