<?xml version="1.0" encoding="utf-8"?>
<!-- Generator: Adobe Illustrator 19.1.0, SVG Export Plug-In . SVG Version: 6.00 Build 0)  -->
<!DOCTYPE svg PUBLIC "-//W3C//DTD SVG 1.1//EN" "http://www.w3.org/Graphics/SVG/1.1/DTD/svg11.dtd">
<svg version="1.1" id="Layer_49" xmlns="http://www.w3.org/2000/svg" xmlns:xlink="http://www.w3.org/1999/xlink" x="0px" y="0px"
	 width="24px" height="24px" viewBox="0 0 24 24" enable-background="new 0 0 24 24" xml:space="preserve">
<path fill="#231F20" d="M23.1,7.6C21.4,3.1,17.1,0,12,0C6.9,0,2.6,3.1,0.9,7.6c0,0,0,0.1,0,0.1C0.3,9,0,10.5,0,12v9c0,0.6,0.4,1,1,1
	h6v1c0,0.6,0.4,1,1,1h8c0.6,0,1-0.4,1-1v-1h6c0.6,0,1-0.4,1-1v-9c0-1.5-0.3-3-0.8-4.3C23.2,7.6,23.2,7.6,23.1,7.6z M15,14
	c-0.8-0.6-1.9-1-3-1s-2.1,0.4-3,1H7V9h10v5H15z M2,14v-2c0-1,0.2-2.1,0.5-3H5v5H2z M19,9h2.5c0.3,0.9,0.5,2,0.5,3v2h-3V9z M20.6,7
	H13V2.1C16.3,2.4,19.1,4.3,20.6,7z M11,2.1V7H3.4C4.9,4.3,7.7,2.4,11,2.1z M2,20v-4h5.4C7.2,16.6,7,17.3,7,18v2H2z M15,22H9v-4
	c0-1.7,1.3-3,3-3s3,1.3,3,3V22z M17,20v-2c0-0.7-0.2-1.4-0.4-2H22v4H17z"/>
</svg>
