<?xml version="1.0" encoding="utf-8"?>
<!-- Generator: Adobe Illustrator 19.1.0, SVG Export Plug-In . SVG Version: 6.00 Build 0)  -->
<!DOCTYPE svg PUBLIC "-//W3C//DTD SVG 1.1//EN" "http://www.w3.org/Graphics/SVG/1.1/DTD/svg11.dtd">
<svg version="1.1" id="Layer_49" xmlns="http://www.w3.org/2000/svg" xmlns:xlink="http://www.w3.org/1999/xlink" x="0px" y="0px"
	 width="24px" height="24px" viewBox="0 0 24 24" enable-background="new 0 0 24 24" xml:space="preserve">
<path fill="#231F20" d="M12.1,0C12,0,12,0,12.1,0C12,0,12,0,12.1,0C12,0,12,0,12.1,0C12,0,12,0,11.9,0C5.4,0,0,5.4,0,12
	c0,6.6,5.4,12,12,12c0,0,0,0,0,0s0,0,0,0c0,0,0,0,0,0s0,0,0,0c0,0,0,0,0,0s0,0,0,0c6.6,0,12-5.4,12-12C24,5.4,18.6,0,12.1,0z
	 M21.9,11h-3c-0.2-3.3-1.3-6.1-3-8.2C19.2,4.2,21.6,7.3,21.9,11z M11,2.8V11H7.1C7.3,7.5,8.7,4.5,11,2.8z M11,13v8.2
	c-2.3-1.7-3.7-4.7-3.9-8.2H11z M13,21.2V13h3.9C16.7,16.5,15.3,19.5,13,21.2z M13,11V2.8c2.3,1.7,3.7,4.7,3.9,8.2H13z M8.1,2.8
	C6.3,4.9,5.2,7.7,5,11h-3C2.4,7.3,4.8,4.2,8.1,2.8z M2.1,13h3c0.2,3.3,1.3,6.1,3,8.2C4.8,19.8,2.4,16.7,2.1,13z M15.9,21.2
	c1.8-2.1,2.9-4.9,3-8.2h3C21.6,16.7,19.2,19.8,15.9,21.2z"/>
</svg>
