<?xml version="1.0" encoding="utf-8"?>
<!-- Generator: Adobe Illustrator 19.1.0, SVG Export Plug-In . SVG Version: 6.00 Build 0)  -->
<!DOCTYPE svg PUBLIC "-//W3C//DTD SVG 1.1//EN" "http://www.w3.org/Graphics/SVG/1.1/DTD/svg11.dtd">
<svg version="1.1" id="Layer_49" xmlns="http://www.w3.org/2000/svg" xmlns:xlink="http://www.w3.org/1999/xlink" x="0px" y="0px"
	 width="24px" height="24px" viewBox="0 0 24 24" enable-background="new 0 0 24 24" xml:space="preserve">
<path fill="#231F20" d="M23.3,14c0,0-1.8-0.6-2.8-2H21c0.6,0,1-0.4,1-1v-1c0-0.4-0.3-0.8-0.7-1c0,0-2.8-0.9-3.3-3.3
	C17.9,5.3,17.5,5,17,5h-1.1c-0.6-2.2-3-3.7-3.3-3.9c-0.3-0.2-0.7-0.2-1,0C11.2,1.3,8.8,2.8,8.1,5H7C6.5,5,6.1,5.3,6,5.8
	C5.5,8.1,2.7,9,2.7,9C2.3,9.2,2,9.6,2,10v1c0,0.6,0.4,1,1,1h0.5c-1,1.4-2.8,2-2.8,2C0.3,14.2,0,14.6,0,15v1c0,0.6,0.4,1,1,1h1v5
	c0,0.6,0.4,1,1,1h18c0.6,0,1-0.4,1-1v-5h1c0.6,0,1-0.4,1-1v-1C24,14.6,23.7,14.2,23.3,14z M12,3.2c0.6,0.4,1.3,1.1,1.7,1.8h-3.4
	C10.7,4.3,11.4,3.6,12,3.2z M7.7,7h8.5c0.6,1.4,1.6,2.4,2.5,3H5.2C6.1,9.4,7.2,8.4,7.7,7z M5.7,12h12.6c0.6,1.4,1.6,2.4,2.5,3H3.2
	C4.1,14.4,5.2,13.4,5.7,12z M12,19c-0.6,0-1,0.4-1,1v1H8v-4h8v4h-3v-1C13,19.4,12.6,19,12,19z M4,17h2v4H4V17z M20,21h-2v-4h2V21z"
	/>
</svg>
