<?xml version="1.0" encoding="utf-8"?>
<!-- Generator: Adobe Illustrator 19.1.0, SVG Export Plug-In . SVG Version: 6.00 Build 0)  -->
<!DOCTYPE svg PUBLIC "-//W3C//DTD SVG 1.1//EN" "http://www.w3.org/Graphics/SVG/1.1/DTD/svg11.dtd">
<svg version="1.1" id="Layer_49" xmlns="http://www.w3.org/2000/svg" xmlns:xlink="http://www.w3.org/1999/xlink" x="0px" y="0px"
	 width="24px" height="24px" viewBox="0 0 24 24" enable-background="new 0 0 24 24" xml:space="preserve">
<path fill="#231F20" d="M7,18c0.6,0,1-0.4,1-1v-4h8v4c0,0.6,0.4,1,1,1s1-0.4,1-1V7c0-0.6-0.4-1-1-1s-1,0.4-1,1v4H8V7
	c0-0.6-0.4-1-1-1S6,6.4,6,7v10C6,17.6,6.4,18,7,18z"/>
<path fill="#231F20" d="M23,0H1C0.4,0,0,0.4,0,1v22c0,0.6,0.4,1,1,1h22c0.6,0,1-0.4,1-1V1C24,0.4,23.6,0,23,0z M22,22H2V2h20V22z"/>
</svg>
