<?xml version="1.0" encoding="utf-8"?>
<!-- Generator: Adobe Illustrator 19.1.0, SVG Export Plug-In . SVG Version: 6.00 Build 0)  -->
<!DOCTYPE svg PUBLIC "-//W3C//DTD SVG 1.1//EN" "http://www.w3.org/Graphics/SVG/1.1/DTD/svg11.dtd">
<svg version="1.1" id="Layer_49" xmlns="http://www.w3.org/2000/svg" xmlns:xlink="http://www.w3.org/1999/xlink" x="0px" y="0px"
	 width="24px" height="24px" viewBox="0 0 24 24" enable-background="new 0 0 24 24" xml:space="preserve">
<path fill="#231F20" d="M19,20c0.6,0,1-0.4,1-1V3c0-1.7-1.3-3-3-3c-0.6,0-1,0.4-1,1s0.4,1,1,1c0.6,0,1,0.4,1,1v2H6V3
	c0-0.6,0.4-1,1-1c0.6,0,1-0.4,1-1S7.6,0,7,0C5.3,0,4,1.3,4,3v16c0,0.6,0.4,1,1,1s1-0.4,1-1v-2h12v2C18,19.6,18.4,20,19,20z M18,7v3
	H6V7H18z M6,15v-3h12v3H6z"/>
<path fill="#231F20" d="M23,18c-0.6,0-1,0.4-1,1c0,1.7-1.3,3-3,3c-1.1,0-2.1-0.6-2.6-1.6c-0.4-0.6-1.4-0.6-1.8,0
	c-0.5,1-1.5,1.6-2.6,1.6s-2.1-0.6-2.6-1.6c-0.4-0.6-1.4-0.6-1.8,0C7.1,21.4,6.1,22,5,22c-1.7,0-3-1.3-3-3c0-0.6-0.4-1-1-1
	s-1,0.4-1,1c0,2.8,2.2,5,5,5c1.3,0,2.6-0.5,3.5-1.5C9.4,23.5,10.7,24,12,24s2.6-0.5,3.5-1.5c0.9,0.9,2.2,1.5,3.5,1.5
	c2.8,0,5-2.2,5-5C24,18.4,23.6,18,23,18z"/>
</svg>
