<?xml version="1.0" encoding="utf-8"?>
<!-- Generator: Adobe Illustrator 19.1.0, SVG Export Plug-In . SVG Version: 6.00 Build 0)  -->
<!DOCTYPE svg PUBLIC "-//W3C//DTD SVG 1.1//EN" "http://www.w3.org/Graphics/SVG/1.1/DTD/svg11.dtd">
<svg version="1.1" id="Layer_49" xmlns="http://www.w3.org/2000/svg" xmlns:xlink="http://www.w3.org/1999/xlink" x="0px" y="0px"
	 width="24px" height="24px" viewBox="0 0 24 24" enable-background="new 0 0 24 24" xml:space="preserve">
<path fill="#231F20" d="M22,3.2V1c0-0.6-0.4-1-1-1s-1,0.4-1,1v2.2c-1.2,0.4-2,1.5-2,2.8v3v1.4c-1.1-1.8-2.9-3-5-3.3V4
	c0-0.6-0.4-1-1-1s-1,0.4-1,1v3.1c-2.1,0.3-3.9,1.6-5,3.3V9V6c0-1.3-0.8-2.4-2-2.8V1c0-0.6-0.4-1-1-1S2,0.4,2,1v2.2
	C0.8,3.6,0,4.7,0,6v3v14c0,0.6,0.4,1,1,1h22c0.6,0,1-0.4,1-1V9V6C24,4.7,23.2,3.6,22,3.2z M14,19c-0.6,0-1,0.4-1,1v2h-2v-2
	c0-0.6-0.4-1-1-1s-1,0.4-1,1v2H6v-7h12v7h-3v-2C15,19.4,14.6,19,14,19z M2,10h2v12H2V10z M20,10h2v12h-2V10z M21,5c0.6,0,1,0.4,1,1
	v2h-2V6C20,5.4,20.4,5,21,5z M12,9c2.4,0,4.4,1.7,4.9,4H7.1C7.6,10.7,9.6,9,12,9z M3,5c0.6,0,1,0.4,1,1v2H2V6C2,5.4,2.4,5,3,5z"/>
</svg>
