<?xml version="1.0" encoding="utf-8"?>
<!-- Generator: Adobe Illustrator 19.1.0, SVG Export Plug-In . SVG Version: 6.00 Build 0)  -->
<!DOCTYPE svg PUBLIC "-//W3C//DTD SVG 1.1//EN" "http://www.w3.org/Graphics/SVG/1.1/DTD/svg11.dtd">
<svg version="1.1" id="Layer_49" xmlns="http://www.w3.org/2000/svg" xmlns:xlink="http://www.w3.org/1999/xlink" x="0px" y="0px"
	 width="24px" height="24px" viewBox="0 0 24 24" enable-background="new 0 0 24 24" xml:space="preserve">
<path fill="#231F20" d="M23,18V7c0-0.6-0.4-1-1-1h-5.5l-3.7-5.6C12.6,0.2,12.3,0,12,0H4C2.3,0,1,1.3,1,3v15c-0.6,0-1,0.4-1,1v4
	c0,0.6,0.4,1,1,1h22c0.6,0,1-0.4,1-1v-4C24,18.4,23.6,18,23,18z M21,12h-2v-1c0-0.6-0.4-1-1-1s-1,0.4-1,1v1h-2v-1c0-0.6-0.4-1-1-1
	s-1,0.4-1,1v1h-2v-1c0-0.6-0.4-1-1-1s-1,0.4-1,1v1H7v-1c0-0.6-0.4-1-1-1s-1,0.4-1,1v1H3V8h13h5V12z M4,2h7.5l2.7,4H11V5
	c0-0.6-0.4-1-1-1S9,4.4,9,5v1H7V5c0-0.6-0.4-1-1-1S5,4.4,5,5v1H3V3C3,2.4,3.4,2,4,2z M3,14h18v4h-2v-1c0-0.6-0.4-1-1-1s-1,0.4-1,1v1
	h-2v-1c0-0.6-0.4-1-1-1s-1,0.4-1,1v1h-2v-1c0-0.6-0.4-1-1-1s-1,0.4-1,1v1H7v-1c0-0.6-0.4-1-1-1s-1,0.4-1,1v1H3V14z M22,22H2v-2h20
	V22z"/>
</svg>
