<?xml version="1.0" encoding="utf-8"?>
<!-- Generator: Adobe Illustrator 19.1.0, SVG Export Plug-In . SVG Version: 6.00 Build 0)  -->
<!DOCTYPE svg PUBLIC "-//W3C//DTD SVG 1.1//EN" "http://www.w3.org/Graphics/SVG/1.1/DTD/svg11.dtd">
<svg version="1.1" id="Layer_49" xmlns="http://www.w3.org/2000/svg" xmlns:xlink="http://www.w3.org/1999/xlink" x="0px" y="0px"
	 width="24px" height="24px" viewBox="0 0 24 24" enable-background="new 0 0 24 24" xml:space="preserve">
<path fill="#231F20" d="M23,17c-0.6,0-1,0.4-1,1c0,1.7-1.3,3-3,3c-1.1,0-2.1-0.6-2.6-1.6c-0.3-0.6-1.4-0.6-1.8,0
	c-0.5,1-1.5,1.6-2.6,1.6s-2.1-0.6-2.6-1.6c-0.3-0.6-1.4-0.6-1.8,0C7.1,20.4,6.1,21,5,21c-1.7,0-3-1.3-3-3c0-0.6-0.4-1-1-1
	s-1,0.4-1,1c0,2.8,2.2,5,5,5c1.3,0,2.6-0.5,3.5-1.5C9.4,22.5,10.7,23,12,23s2.6-0.5,3.5-1.5c0.9,0.9,2.2,1.5,3.5,1.5
	c2.8,0,5-2.2,5-5C24,17.4,23.6,17,23,17z"/>
<path fill="#231F20" d="M6,16V3c6.7,0.5,12,6.1,12,13c0,0.6,0.4,1,1,1s1-0.4,1-1C20,7.7,13.3,1,5,1C4.4,1,4,1.4,4,2v14
	c0,0.6,0.4,1,1,1S6,16.6,6,16z"/>
</svg>
