<?xml version="1.0" encoding="utf-8"?>
<!-- Generator: Adobe Illustrator 19.1.0, SVG Export Plug-In . SVG Version: 6.00 Build 0)  -->
<!DOCTYPE svg PUBLIC "-//W3C//DTD SVG 1.1//EN" "http://www.w3.org/Graphics/SVG/1.1/DTD/svg11.dtd">
<svg version="1.1" id="Layer_49" xmlns="http://www.w3.org/2000/svg" xmlns:xlink="http://www.w3.org/1999/xlink" x="0px" y="0px"
	 width="24px" height="24px" viewBox="0 0 24 24" enable-background="new 0 0 24 24" xml:space="preserve">
<path fill="#231F20" d="M0.9,18.4c-0.1,0.2-0.1,0.5,0,0.8l1.4,3.8c0.1,0.4,0.5,0.7,0.9,0.7c0.1,0,0.2,0,0.3-0.1l8.4-3l8.4,3
	c0.1,0,0.2,0.1,0.3,0.1c0.4,0,0.8-0.3,0.9-0.7l1.4-3.8c0.1-0.2,0.1-0.5,0-0.8c-0.1-0.2-0.3-0.4-0.6-0.5l-1.7-0.6l1.7-0.6
	c0.2-0.1,0.5-0.3,0.6-0.5c0.1-0.2,0.1-0.5,0-0.8l-1.4-3.8c-0.1-0.2-0.3-0.5-0.5-0.6c-0.2-0.1-0.5-0.1-0.8,0L17.7,12
	c0.2-0.6,0.3-1.3,0.3-2c0-3.4-4.8-8.2-5.3-8.8c-0.4-0.4-1-0.4-1.4,0C10.8,1.8,6,6.7,6,10c0,0.7,0.1,1.4,0.3,2l-2.8-1
	c-0.5-0.2-1.1,0.1-1.3,0.6l-1.4,3.8c-0.1,0.2-0.1,0.5,0,0.8c0.1,0.2,0.3,0.4,0.6,0.5l1.7,0.6l-1.7,0.6C1.2,18,1,18.2,0.9,18.4z
	 M20.7,19.4L20,21.3l-5.2-1.9l2.9-1.1L20.7,19.4z M12,3.4c1.8,1.9,4,4.9,4,6.6c0,2.6-2.1,4-4,4s-4-1.4-4-4C8,8.4,10.2,5.4,12,3.4z
	 M3.1,15.2l0.7-1.9l5,1.8c0,0,0.1,0,0.1,0.1l-2.9,1.1L3.1,15.2z M12.7,16c0.9-0.1,1.9-0.4,2.7-1l4.7-1.7l0.7,1.9L3.8,21.3l-0.7-1.9
	L12.7,16z"/>
</svg>
