<?xml version="1.0" encoding="utf-8"?>
<!-- Generator: Adobe Illustrator 19.1.0, SVG Export Plug-In . SVG Version: 6.00 Build 0)  -->
<!DOCTYPE svg PUBLIC "-//W3C//DTD SVG 1.1//EN" "http://www.w3.org/Graphics/SVG/1.1/DTD/svg11.dtd">
<svg version="1.1" id="Layer_49" xmlns="http://www.w3.org/2000/svg" xmlns:xlink="http://www.w3.org/1999/xlink" x="0px" y="0px"
	 width="24px" height="24px" viewBox="0 0 24 24" enable-background="new 0 0 24 24" xml:space="preserve">
<path fill="#231F20" d="M23,5h-8V3c0-1.7-1.3-3-3-3S9,1.3,9,3v2H1C0.4,5,0,5.4,0,6v3c0,0.6,0.4,1,1,1h2v2c0,0.6,0.4,1,1,1h3v5
	c-0.6,0-1,0.4-1,1v4c0,0.6,0.4,1,1,1h10c0.6,0,1-0.4,1-1v-4c0-0.6-0.4-1-1-1v-5h3c0.6,0,1-0.4,1-1v-2h2c0.6,0,1-0.4,1-1V6
	C24,5.4,23.6,5,23,5z M16,22H8v-2h8V22z M22,8h-2c-0.6,0-1,0.4-1,1v2h-3c-0.6,0-1,0.4-1,1v6H9v-6c0-0.6-0.4-1-1-1H5V9
	c0-0.6-0.4-1-1-1H2V7h8c0.6,0,1-0.4,1-1V3c0-0.6,0.4-1,1-1s1,0.4,1,1v3c0,0.6,0.4,1,1,1h8V8z"/>
</svg>
