<?xml version="1.0" encoding="utf-8"?>
<!-- Generator: Adobe Illustrator 18.1.1, SVG Export Plug-In . SVG Version: 6.00 Build 0)  -->
<!DOCTYPE svg PUBLIC "-//W3C//DTD SVG 1.1//EN" "http://www.w3.org/Graphics/SVG/1.1/DTD/svg11.dtd">
<svg version="1.1" id="Layer_1" xmlns="http://www.w3.org/2000/svg" xmlns:xlink="http://www.w3.org/1999/xlink" x="0px" y="0px"
	 width="32px" height="32px" viewBox="0 0 32 32" enable-background="new 0 0 32 32" xml:space="preserve">
<path d="M31,22h-2V8c0-1.7-1.3-3-3-3H6C4.3,5,3,6.3,3,8v14H1c-0.6,0-1,0.4-1,1c0,2.2,1.8,4,4,4h24c2.2,0,4-1.8,4-4
	C32,22.4,31.6,22,31,22z M5,8c0-0.6,0.4-1,1-1h20c0.6,0,1,0.4,1,1v14H5V8z M28,25H4c-0.7,0-1.4-0.4-1.7-1h27.5
	C29.4,24.6,28.7,25,28,25z"/>
<path d="M16,9c-3.3,0-6,2.7-6,6s2.7,6,6,6s6-2.7,6-6S19.3,9,16,9z M19.9,14H17v-2.9C18.4,11.5,19.5,12.6,19.9,14z M16,19
	c-2.2,0-4-1.8-4-4c0-1.9,1.3-3.4,3-3.9V15c0,0.6,0.4,1,1,1h3.9C19.4,17.7,17.9,19,16,19z"/>
</svg>
