<?xml version="1.0" encoding="utf-8"?>
<!-- Generator: Adobe Illustrator 18.1.1, SVG Export Plug-In . SVG Version: 6.00 Build 0)  -->
<!DOCTYPE svg PUBLIC "-//W3C//DTD SVG 1.1//EN" "http://www.w3.org/Graphics/SVG/1.1/DTD/svg11.dtd">
<svg version="1.1" id="Layer_1" xmlns="http://www.w3.org/2000/svg" xmlns:xlink="http://www.w3.org/1999/xlink" x="0px" y="0px"
	 width="32px" height="32px" viewBox="0 0 32 32" enable-background="new 0 0 32 32" xml:space="preserve">
<path d="M4,32h24c0.6,0,1-0.4,1-1s-0.4-1-1-1H4c-0.6,0-1,0.4-1,1S3.4,32,4,32z"/>
<path d="M2.3,27.7C2.5,27.9,2.7,28,3,28s0.5-0.1,0.7-0.3l0.9-0.9C5.1,27,5.5,27.1,6,27.1c0.8,0,1.6-0.3,2.2-0.9l1.5-1.5l7.3-7.3
	l0.3,0.3c0.2,0.2,0.5,0.3,0.7,0.3s0.5-0.1,0.7-0.3L27,9.4l0.6,0.6l-5.3,5.3c-0.4,0.4-0.4,1,0,1.4c0.2,0.2,0.5,0.3,0.7,0.3
	s0.5-0.1,0.7-0.3l6-6c0.4-0.4,0.4-1,0-1.4L28.4,8c1.6-1.8,1.5-4.5-0.2-6.2c-0.9-0.9-2-1.3-3.2-1.3s-2.4,0.5-3.2,1.3l-9.5,9.5
	c-0.4,0.4-0.4,1,0,1.4l0.3,0.3l-7.3,7.3l-1.5,1.5c-1,1-1.2,2.4-0.6,3.6l-0.9,0.9C1.9,26.7,1.9,27.3,2.3,27.7z M23.2,3.2
	c1-1,2.6-1,3.6,0c1,1,1,2.6,0,3.6L18,15.6L14.4,12L23.2,3.2z M14,14.4l1.6,1.6L9,22.6L7.4,21L14,14.4z M5.2,23.2L6,22.4L7.6,24
	l-0.8,0.8c-0.4,0.4-1.1,0.4-1.6,0C4.8,24.4,4.8,23.6,5.2,23.2z"/>
</svg>
