<?xml version="1.0" encoding="utf-8"?>
<!-- Generator: Adobe Illustrator 18.1.1, SVG Export Plug-In . SVG Version: 6.00 Build 0)  -->
<!DOCTYPE svg PUBLIC "-//W3C//DTD SVG 1.1//EN" "http://www.w3.org/Graphics/SVG/1.1/DTD/svg11.dtd">
<svg version="1.1" id="Layer_1" xmlns="http://www.w3.org/2000/svg" xmlns:xlink="http://www.w3.org/1999/xlink" x="0px" y="0px"
	 width="32px" height="32px" viewBox="0 0 32 32" enable-background="new 0 0 32 32" xml:space="preserve">
<path d="M31,20h-2V4c0-0.6-0.4-1-1-1h-9V1c0-0.6-0.4-1-1-1h-4c-0.6,0-1,0.4-1,1v2H4C3.4,3,3,3.4,3,4v16H1c-0.6,0-1,0.4-1,1v3
	c0,0.6,0.4,1,1,1h9.8l-4.6,5.3c-0.4,0.4-0.3,1.1,0.1,1.4C6.5,31.9,6.8,32,7,32c0.3,0,0.6-0.1,0.8-0.3l5.7-6.7H15v5c0,0.6,0.4,1,1,1
	s1-0.4,1-1v-5h1.5l5.7,6.7c0.2,0.2,0.5,0.3,0.8,0.3c0.2,0,0.5-0.1,0.7-0.2c0.4-0.4,0.5-1,0.1-1.4L21.2,25H31c0.6,0,1-0.4,1-1v-3
	C32,20.4,31.6,20,31,20z M15,2h2v1h-2V2z M5,5h22v15H5V5z M30,23H2v-1h28V23z"/>
<path d="M22.9,9.6c-0.1-0.2-0.3-0.4-0.5-0.5C22.3,9,22.1,9,22,9h-4c-0.6,0-1,0.4-1,1s0.4,1,1,1h1.6L16,14.6l-3.3-3.3
	c-0.4-0.4-1-0.4-1.4,0l-3,3c-0.4,0.4-0.4,1,0,1.4s1,0.4,1.4,0l2.3-2.3l3.3,3.3c0.2,0.2,0.5,0.3,0.7,0.3s0.5-0.1,0.7-0.3l4.3-4.3V14
	c0,0.6,0.4,1,1,1s1-0.4,1-1v-4C23,9.9,23,9.7,22.9,9.6z"/>
</svg>
