<?xml version="1.0" encoding="utf-8"?>
<!-- Generator: Adobe Illustrator 18.1.1, SVG Export Plug-In . SVG Version: 6.00 Build 0)  -->
<!DOCTYPE svg PUBLIC "-//W3C//DTD SVG 1.1//EN" "http://www.w3.org/Graphics/SVG/1.1/DTD/svg11.dtd">
<svg version="1.1" id="Layer_1" xmlns="http://www.w3.org/2000/svg" xmlns:xlink="http://www.w3.org/1999/xlink" x="0px" y="0px"
	 width="32px" height="32px" viewBox="0 0 32 32" enable-background="new 0 0 32 32" xml:space="preserve">
<path d="M15.3,30.7c0.2,0.2,0.5,0.3,0.7,0.3s0.5-0.1,0.7-0.3l7-7c0.2-0.2,0.3-0.6,0.3-0.9l-0.6-2.5l3.4-3.6c0.3-0.4,0.4-0.9,0.1-1.3
	l-6.6-8.5l2.7-5.4c0.2-0.3,0.1-0.7,0-1C22.7,0.2,22.3,0,22,0H10C9.7,0,9.3,0.2,9.1,0.5C9,0.8,9,1.1,9.1,1.4l2.8,5.7L8,22.8
	c-0.1,0.3,0,0.7,0.3,0.9L15.3,30.7z M22.8,18l-1.7-6.6l3.6,4.6L22.8,18z M20.4,2l-2,4h-4.8l-2-4H20.4z M13.8,8h4.4l3.7,14.7L16,28.6
	l-5.9-5.9L13.8,8z"/>
</svg>
