<?xml version="1.0" encoding="utf-8"?>
<!-- Generator: Adobe Illustrator 18.1.1, SVG Export Plug-In . SVG Version: 6.00 Build 0)  -->
<!DOCTYPE svg PUBLIC "-//W3C//DTD SVG 1.1//EN" "http://www.w3.org/Graphics/SVG/1.1/DTD/svg11.dtd">
<svg version="1.1" id="Layer_1" xmlns="http://www.w3.org/2000/svg" xmlns:xlink="http://www.w3.org/1999/xlink" x="0px" y="0px"
	 width="32px" height="32px" viewBox="0 0 32 32" enable-background="new 0 0 32 32" xml:space="preserve">
<path d="M1,5v20c0,2.8,2.2,5,5,5h22c0.6,0,1-0.4,1-1v-7h1c0.6,0,1-0.4,1-1v-6c0-0.6-0.4-1-1-1h-1V7c0-0.6-0.4-1-1-1h-4V3
	c0-0.6-0.4-1-1-1H4C2.3,2,1,3.3,1,5z M29,20h-6c-1.1,0-2-0.9-2-2s0.9-2,2-2h6V20z M27,10h-1c-0.6,0-1,0.4-1,1s0.4,1,1,1h1v2h-4
	c-2.2,0-4,1.8-4,4s1.8,4,4,4h4v2h-1c-0.6,0-1,0.4-1,1s0.4,1,1,1h1v2H6c-1.3,0-2.4-0.8-2.8-2H4c0.6,0,1-0.4,1-1s-0.4-1-1-1H3V12h1
	c0.6,0,1-0.4,1-1s-0.4-1-1-1H3V7.8c0.1,0,0.2,0,0.3,0.1c0.1,0,0.1,0,0.2,0C3.6,8,3.8,8,4,8h23V10z M22,6H4C3.4,6,3,5.6,3,5
	s0.4-1,1-1h18V6z"/>
<path d="M26,17h-1c-0.6,0-1,0.4-1,1s0.4,1,1,1h1c0.6,0,1-0.4,1-1S26.6,17,26,17z"/>
<path d="M22,10h-2c-0.6,0-1,0.4-1,1s0.4,1,1,1h2c0.6,0,1-0.4,1-1S22.6,10,22,10z"/>
<path d="M16,10h-2c-0.6,0-1,0.4-1,1s0.4,1,1,1h2c0.6,0,1-0.4,1-1S16.6,10,16,10z"/>
<path d="M10,10H8c-0.6,0-1,0.4-1,1s0.4,1,1,1h2c0.6,0,1-0.4,1-1S10.6,10,10,10z"/>
<path d="M20,26h2c0.6,0,1-0.4,1-1s-0.4-1-1-1h-2c-0.6,0-1,0.4-1,1S19.4,26,20,26z"/>
<path d="M16,24h-2c-0.6,0-1,0.4-1,1s0.4,1,1,1h2c0.6,0,1-0.4,1-1S16.6,24,16,24z"/>
<path d="M10,24H8c-0.6,0-1,0.4-1,1s0.4,1,1,1h2c0.6,0,1-0.4,1-1S10.6,24,10,24z"/>
</svg>
