<?xml version="1.0" encoding="utf-8"?>
<!-- Generator: Adobe Illustrator 18.1.1, SVG Export Plug-In . SVG Version: 6.00 Build 0)  -->
<!DOCTYPE svg PUBLIC "-//W3C//DTD SVG 1.1//EN" "http://www.w3.org/Graphics/SVG/1.1/DTD/svg11.dtd">
<svg version="1.1" id="Layer_1" xmlns="http://www.w3.org/2000/svg" xmlns:xlink="http://www.w3.org/1999/xlink" x="0px" y="0px"
	 width="32px" height="32px" viewBox="0 0 32 32" enable-background="new 0 0 32 32" xml:space="preserve">
<path d="M13,17c-0.6,0-1,0.4-1,1v12c0,0.6,0.4,1,1,1h6c0.6,0,1-0.4,1-1V18c0-0.6-0.4-1-1-1H13z M18,29h-4V19h4V29z"/>
<path d="M2,24v6c0,0.6,0.4,1,1,1h6c0.6,0,1-0.4,1-1v-6c0-0.6-0.4-1-1-1H3C2.4,23,2,23.4,2,24z M4,25h4v4H4V25z"/>
<path d="M22,12v18c0,0.6,0.4,1,1,1h6c0.6,0,1-0.4,1-1V12c0-0.6-0.4-1-1-1h-6C22.4,11,22,11.4,22,12z M24,13h4v16h-4V13z"/>
<path d="M5.3,11.7c0.4,0.4,1,0.4,1.4,0L11,7.4l4.3,4.3c0.2,0.2,0.5,0.3,0.7,0.3s0.5-0.1,0.7-0.3L25,3.4V7c0,0.6,0.4,1,1,1s1-0.4,1-1
	V1c0-0.1,0-0.3-0.1-0.4c-0.1-0.2-0.3-0.4-0.5-0.5C26.3,0,26.1,0,26,0h-6c-0.6,0-1,0.4-1,1s0.4,1,1,1h3.6L16,9.6l-4.3-4.3
	c-0.4-0.4-1-0.4-1.4,0l-5,5C4.9,10.7,4.9,11.3,5.3,11.7z"/>
</svg>
