<?xml version="1.0" encoding="utf-8"?>
<!-- Generator: Adobe Illustrator 18.1.1, SVG Export Plug-In . SVG Version: 6.00 Build 0)  -->
<!DOCTYPE svg PUBLIC "-//W3C//DTD SVG 1.1//EN" "http://www.w3.org/Graphics/SVG/1.1/DTD/svg11.dtd">
<svg version="1.1" id="Layer_1" xmlns="http://www.w3.org/2000/svg" xmlns:xlink="http://www.w3.org/1999/xlink" x="0px" y="0px"
	 width="32px" height="32px" viewBox="0 0 32 32" enable-background="new 0 0 32 32" xml:space="preserve">
<path d="M31,16h-2c-0.6,0-1,0.4-1,1s0.4,1,1,1v7h-1.1c-0.3-1.6-1.4-2.9-2.9-3.6V1c0-0.6-0.4-1-1-1H8C7.4,0,7,0.4,7,1v20.4
	c-1.5,0.6-2.6,2-2.9,3.6H3v-7c0.6,0,1-0.4,1-1s-0.4-1-1-1H1c-0.6,0-1,0.4-1,1s0.4,1,1,1v8c0,0.6,0.4,1,1,1h3h10v3H9
	c-0.6,0-1,0.4-1,1s0.4,1,1,1h14c0.6,0,1-0.4,1-1s-0.4-1-1-1h-6v-3h10c0,0,0,0,0,0h3c0.6,0,1-0.4,1-1v-8c0.6,0,1-0.4,1-1
	S31.6,16,31,16z M9,2h14v19H9V2z M6.2,25c0.4-1.2,1.5-2,2.8-2h14c1.3,0,2.4,0.8,2.8,2H6.2z"/>
</svg>
