<?xml version="1.0" encoding="utf-8"?>
<!-- Generator: Adobe Illustrator 18.1.1, SVG Export Plug-In . SVG Version: 6.00 Build 0)  -->
<!DOCTYPE svg PUBLIC "-//W3C//DTD SVG 1.1//EN" "http://www.w3.org/Graphics/SVG/1.1/DTD/svg11.dtd">
<svg version="1.1" id="Layer_1" xmlns="http://www.w3.org/2000/svg" xmlns:xlink="http://www.w3.org/1999/xlink" x="0px" y="0px"
	 width="32px" height="32px" viewBox="0 0 32 32" enable-background="new 0 0 32 32" xml:space="preserve">
<path d="M31,22h-2V8c0-1.7-1.3-3-3-3H6C4.3,5,3,6.3,3,8v14H1c-0.6,0-1,0.4-1,1c0,2.2,1.8,4,4,4h24c2.2,0,4-1.8,4-4
	C32,22.4,31.6,22,31,22z M5,8c0-0.6,0.4-1,1-1h20c0.6,0,1,0.4,1,1v14H5V8z M28,25H4c-0.7,0-1.4-0.4-1.7-1h27.5
	C29.4,24.6,28.7,25,28,25z"/>
<path d="M22.4,11.1C22.3,11,22.1,11,22,11h-4c-0.6,0-1,0.4-1,1s0.4,1,1,1h1.6L16,16.6l-3.3-3.3c-0.4-0.4-1-0.4-1.4,0l-3,3
	c-0.4,0.4-0.4,1,0,1.4s1,0.4,1.4,0l2.3-2.3l3.3,3.3c0.2,0.2,0.5,0.3,0.7,0.3s0.5-0.1,0.7-0.3l4.3-4.3V16c0,0.6,0.4,1,1,1s1-0.4,1-1
	v-4c0-0.1,0-0.3-0.1-0.4C22.8,11.4,22.6,11.2,22.4,11.1z"/>
</svg>
