<?xml version="1.0" encoding="utf-8"?>
<!-- Generator: Adobe Illustrator 18.1.1, SVG Export Plug-In . SVG Version: 6.00 Build 0)  -->
<!DOCTYPE svg PUBLIC "-//W3C//DTD SVG 1.1//EN" "http://www.w3.org/Graphics/SVG/1.1/DTD/svg11.dtd">
<svg version="1.1" id="Layer_1" xmlns="http://www.w3.org/2000/svg" xmlns:xlink="http://www.w3.org/1999/xlink" x="0px" y="0px"
	 width="32px" height="32px" viewBox="0 0 32 32" enable-background="new 0 0 32 32" xml:space="preserve">
<path d="M29.8,14.1c-0.5-0.1-1,0.2-1.1,0.7C27.1,11.9,24,10,20.5,10h-7.4c-2.2-3.4-5.7-3.4-7.4-3C5.5,7.1,5.2,7.3,5.1,7.5
	C5,7.8,5,8.1,5.1,8.3l1.3,3.9c-1.2,1-2.1,2.3-2.7,3.7H1c-0.6,0-1,0.4-1,1v7c0,0.6,0.4,1,1,1h3.8c0.8,1.2,2,2.2,3.2,2.9V31
	c0,0.6,0.4,1,1,1h5c0.6,0,1-0.4,1-1v-2h3v2c0,0.6,0.4,1,1,1h5c0.6,0,1-0.4,1-1v-3.1c2.8-1.5,4.6-4.3,4.9-7.4
	c1.3-0.6,2.1-1.8,2.1-3.4C32,15.1,30.6,14.2,29.8,14.1z M23.6,26.3c-0.4,0.2-0.6,0.5-0.6,0.9V30h-3v-1c0.6,0,1-0.4,1-1s-0.4-1-1-1
	h-7c-0.6,0-1,0.4-1,1s0.4,1,1,1v1h-3v-2.8c0-0.4-0.2-0.7-0.6-0.9c-1.3-0.6-2.5-1.6-3.3-2.9C6,23.2,5.6,23,5.3,23H2v-5h2.4
	c0.4,0,0.8-0.3,1-0.7c0.5-1.5,1.5-2.9,2.8-3.9c0.4-0.3,0.5-0.7,0.4-1.1L7.3,8.8c1.2,0,3,0.4,4.3,2.7c0.2,0.3,0.5,0.5,0.9,0.5h8
	c4.1,0,7.4,3.3,7.5,7.3c-0.1,0.2-0.2,0.4-0.1,0.6c0,0.1,0,0.2,0.1,0.2C27.7,22.8,26.1,25.2,23.6,26.3z M29.9,17.9
	c-0.1-0.7-0.3-1.3-0.5-1.9c0,0,0.1,0,0.1,0c0,0,0.6,0.1,0.6,1.1C30,17.4,29.9,17.7,29.9,17.9z"/>
<path d="M9.5,15C8.1,15,7,16.1,7,17.5S8.1,20,9.5,20s2.5-1.1,2.5-2.5S10.9,15,9.5,15z M9.5,18C9.2,18,9,17.8,9,17.5S9.2,17,9.5,17
	s0.5,0.2,0.5,0.5S9.8,18,9.5,18z"/>
<path d="M22,5c0-2.2-1.8-4-4-4s-4,1.8-4,4s1.8,4,4,4S22,7.2,22,5z M16,5c0-1.1,0.9-2,2-2s2,0.9,2,2s-0.9,2-2,2S16,6.1,16,5z"/>
<path d="M21,13h-6c-0.6,0-1,0.4-1,1s0.4,1,1,1h6c0.6,0,1-0.4,1-1S21.6,13,21,13z"/>
</svg>
