<?xml version="1.0" encoding="utf-8"?>
<!-- Generator: Adobe Illustrator 18.1.1, SVG Export Plug-In . SVG Version: 6.00 Build 0)  -->
<!DOCTYPE svg PUBLIC "-//W3C//DTD SVG 1.1//EN" "http://www.w3.org/Graphics/SVG/1.1/DTD/svg11.dtd">
<svg version="1.1" id="Layer_1" xmlns="http://www.w3.org/2000/svg" xmlns:xlink="http://www.w3.org/1999/xlink" x="0px" y="0px"
	 width="32px" height="32px" viewBox="0 0 32 32" enable-background="new 0 0 32 32" xml:space="preserve">
<path d="M31,0H1C0.4,0,0,0.4,0,1v22c0,0.6,0.4,1,1,1h12.5c0,0,0,0,0,0c-0.3,0.5-0.6,1-0.6,1.5c0,0.5,0.2,1.1,0.6,1.5
	c-0.3,0.5-0.6,1-0.6,1.5c0,2,2.6,3.5,6,3.5s6-1.5,6-3.5c0-0.5-0.2-1-0.6-1.5c0,0,0.1-0.1,0.1-0.1C25,27,25.5,27,26,27
	c3.4,0,6-1.5,6-3.5c0-0.5-0.2-1-0.6-1.5c0.4-0.5,0.6-1,0.6-1.5c0-0.5-0.2-1-0.6-1.5c0.4-0.5,0.6-1,0.6-1.5c0-0.5-0.2-1-0.6-1.5
	c0.4-0.5,0.6-1,0.6-1.5c0,0,0,0,0,0c0,0,0,0,0,0V1C32,0.4,31.6,0,31,0z M30,20.5c0,0.5-1.5,1.5-4,1.5c-0.4,0-0.7,0-1.1-0.1
	c-0.1-0.3-0.2-0.6-0.5-0.9c0,0,0.1-0.1,0.1-0.1C25,21,25.5,21,26,21c1.5,0,2.8-0.3,3.9-0.8C30,20.3,30,20.4,30,20.5z M22.2,26.3
	C21.5,26.7,20.4,27,19,27c-2.5,0-4-1-4-1.5c0-0.1,0-0.2,0.1-0.3c1,0.5,2.4,0.8,3.9,0.8c1.5,0,2.8-0.3,3.9-0.8
	c0.1,0.1,0.1,0.2,0.1,0.2c0,0,0,0.1,0,0.1c0,0.1,0,0.1,0,0.2c-0.1,0.1-0.1,0.2-0.2,0.3C22.5,26,22.3,26.1,22.2,26.3z M9.9,18
	C9.5,16,8,14.5,6,14.1V9.9C8,9.5,9.5,8,9.9,6h12.2C22.5,8,24,9.5,26,9.9V11c-3.4,0-6,1.5-6,3.5c0,0.5,0.2,1,0.5,1.5
	c0,0,0,0.1-0.1,0.1C20,16,19.5,16,19,16c-2.5,0-4.5,0.8-5.5,2H9.9z M29.5,15.1c-0.1,0-0.1,0.1-0.2,0.1C28.7,15.6,27.5,16,26,16
	c-1.5,0-2.7-0.4-3.4-0.8c0,0-0.1-0.1-0.1-0.1c-0.3-0.2-0.5-0.5-0.5-0.6c0-0.5,1.5-1.5,4-1.5s4,1,4,1.5C30,14.7,29.8,14.9,29.5,15.1z
	 M22.4,23.2C21.7,23.6,20.5,24,19,24c-2.5,0-4-1-4-1.5c0-0.1,0-0.2,0.1-0.3c1,0.5,2.4,0.8,3.9,0.8c1.5,0,2.8-0.3,3.9-0.8
	c0.1,0.1,0.1,0.1,0.1,0.2c0,0,0,0.1-0.1,0.1c0,0.1,0,0.1,0,0.2C22.8,22.9,22.7,23,22.4,23.2C22.4,23.2,22.4,23.2,22.4,23.2z
	 M20.6,18.1c0.1,0,0.1,0.1,0.2,0.1c0.1,0,0.1,0,0.2,0c0,0,0,0,0,0c1.2,0.3,1.9,0.8,1.9,1.2c0,0,0,0.1,0,0.1c0,0.1,0,0.1,0,0.2
	c-0.1,0.1-0.3,0.3-0.5,0.4c0,0,0,0,0,0C21.8,20.6,20.6,21,19,21c-2.5,0-4-1-4-1.5c0,0,0,0,0-0.1c0,0,0-0.1,0-0.1
	c0.3-0.5,1.7-1.3,3.9-1.3C19.6,18,20.2,18.1,20.6,18.1z M30,17.5c0,0.2-0.2,0.4-0.6,0.7c0,0,0,0,0,0C28.8,18.6,27.6,19,26,19
	c-0.4,0-0.7,0-1.1-0.1c-0.1-0.4-0.3-0.7-0.6-1.1c0.5,0.1,1.1,0.1,1.6,0.1c1.5,0,2.8-0.3,3.9-0.8C30,17.3,30,17.4,30,17.5z M2,2h28
	v9.8c-0.6-0.3-1.2-0.5-2-0.7V9c0-0.6-0.4-1-1-1c-1.7,0-3-1.3-3-3c0-0.6-0.4-1-1-1H9C8.4,4,8,4.4,8,5c0,1.7-1.3,3-3,3
	C4.4,8,4,8.4,4,9v6c0,0.6,0.4,1,1,1c1.7,0,3,1.3,3,3c0,0.6,0.4,1,1,1h4.1c0.1,0.4,0.2,0.7,0.5,1c-0.2,0.3-0.4,0.6-0.5,1H2V2z M19,30
	c-2.5,0-4-1-4-1.5c0-0.1,0-0.2,0.1-0.3c1,0.5,2.4,0.8,3.9,0.8c1.5,0,2.8-0.3,3.9-0.8c0.1,0.1,0.1,0.2,0.1,0.3C23,29,21.5,30,19,30z
	 M26,25c-0.4,0-0.7,0-1.1-0.1c-0.1-0.3-0.2-0.6-0.5-0.9c0,0,0.1-0.1,0.1-0.1C25,24,25.5,24,26,24c1.5,0,2.8-0.3,3.9-0.8
	c0.1,0.1,0.1,0.2,0.1,0.3C30,24,28.5,25,26,25z"/>
<path d="M20,12c0-2.2-1.8-4-4-4s-4,1.8-4,4s1.8,4,4,4S20,14.2,20,12z M14,12c0-1.1,0.9-2,2-2s2,0.9,2,2s-0.9,2-2,2S14,13.1,14,12z"
	/>
</svg>
