<?xml version="1.0" encoding="utf-8"?>
<!-- Generator: Adobe Illustrator 18.1.1, SVG Export Plug-In . SVG Version: 6.00 Build 0)  -->
<!DOCTYPE svg PUBLIC "-//W3C//DTD SVG 1.1//EN" "http://www.w3.org/Graphics/SVG/1.1/DTD/svg11.dtd">
<svg version="1.1" id="Layer_1" xmlns="http://www.w3.org/2000/svg" xmlns:xlink="http://www.w3.org/1999/xlink" x="0px" y="0px"
	 width="32px" height="32px" viewBox="0 0 32 32" enable-background="new 0 0 32 32" xml:space="preserve">
<path d="M1,30c0,0.6,0.4,1,1,1h28c0.6,0,1-0.4,1-1V2c0-0.6-0.4-1-1-1H2C1.4,1,1,1.4,1,2V30z M3,17h12v12H3V17z M17,29V17h12v12H17z
	 M29,15H17V3h12V15z M15,3v12H3V3H15z"/>
<path d="M6,10h2v2c0,0.6,0.4,1,1,1s1-0.4,1-1v-2h2c0.6,0,1-0.4,1-1s-0.4-1-1-1h-2V6c0-0.6-0.4-1-1-1S8,5.4,8,6v2H6C5.4,8,5,8.4,5,9
	S5.4,10,6,10z"/>
<path d="M10.4,23l1.3-1.3c0.4-0.4,0.4-1,0-1.4s-1-0.4-1.4,0L9,21.6l-1.3-1.3c-0.4-0.4-1-0.4-1.4,0s-0.4,1,0,1.4L7.6,23l-1.3,1.3
	c-0.4,0.4-0.4,1,0,1.4C6.5,25.9,6.7,26,7,26s0.5-0.1,0.7-0.3L9,24.4l1.3,1.3c0.2,0.2,0.5,0.3,0.7,0.3s0.5-0.1,0.7-0.3
	c0.4-0.4,0.4-1,0-1.4L10.4,23z"/>
<path d="M20,10h6c0.6,0,1-0.4,1-1s-0.4-1-1-1h-6c-0.6,0-1,0.4-1,1S19.4,10,20,10z"/>
<path d="M26,20h-6c-0.6,0-1,0.4-1,1s0.4,1,1,1h6c0.6,0,1-0.4,1-1S26.6,20,26,20z"/>
<path d="M26,24h-6c-0.6,0-1,0.4-1,1s0.4,1,1,1h6c0.6,0,1-0.4,1-1S26.6,24,26,24z"/>
</svg>
