<?xml version="1.0" encoding="utf-8"?>
<!-- Generator: Adobe Illustrator 18.1.1, SVG Export Plug-In . SVG Version: 6.00 Build 0)  -->
<!DOCTYPE svg PUBLIC "-//W3C//DTD SVG 1.1//EN" "http://www.w3.org/Graphics/SVG/1.1/DTD/svg11.dtd">
<svg version="1.1" id="Layer_1" xmlns="http://www.w3.org/2000/svg" xmlns:xlink="http://www.w3.org/1999/xlink" x="0px" y="0px"
	 width="32px" height="32px" viewBox="0 0 32 32" enable-background="new 0 0 32 32" xml:space="preserve">
<path d="M31,6h-1V4c0-0.6-0.4-1-1-1H3C2.4,3,2,3.4,2,4v2H1C0.4,6,0,6.4,0,7v22c0,0.6,0.4,1,1,1h30c0.6,0,1-0.4,1-1V7
	C32,6.4,31.6,6,31,6z M4,5h24v1H4V5z M30,28H2V8h28V28z"/>
<path d="M16,14c-2.2,0-4,1.8-4,4s1.8,4,4,4s4-1.8,4-4S18.2,14,16,14z M16,20c-1.1,0-2-0.9-2-2s0.9-2,2-2s2,0.9,2,2S17.1,20,16,20z"
	/>
<path d="M27,14c-1.7,0-3-1.3-3-3c0-0.6-0.4-1-1-1H9c-0.6,0-1,0.4-1,1c0,1.7-1.3,3-3,3c-0.6,0-1,0.4-1,1v6c0,0.6,0.4,1,1,1
	c1.7,0,3,1.3,3,3c0,0.6,0.4,1,1,1h14c0.6,0,1-0.4,1-1c0-1.7,1.3-3,3-3c0.6,0,1-0.4,1-1v-6C28,14.4,27.6,14,27,14z M26,20.1
	c-2,0.4-3.5,1.9-3.9,3.9H9.9C9.5,22,8,20.5,6,20.1v-4.2C8,15.5,9.5,14,9.9,12h12.2c0.4,2,1.9,3.5,3.9,3.9V20.1z"/>
</svg>
