<?xml version="1.0" encoding="utf-8"?>
<!-- Generator: Adobe Illustrator 18.1.1, SVG Export Plug-In . SVG Version: 6.00 Build 0)  -->
<!DOCTYPE svg PUBLIC "-//W3C//DTD SVG 1.1//EN" "http://www.w3.org/Graphics/SVG/1.1/DTD/svg11.dtd">
<svg version="1.1" id="Layer_1" xmlns="http://www.w3.org/2000/svg" xmlns:xlink="http://www.w3.org/1999/xlink" x="0px" y="0px"
	 width="32px" height="32px" viewBox="0 0 32 32" enable-background="new 0 0 32 32" xml:space="preserve">
<path d="M31,10c0-0.4-0.2-0.7-0.6-0.9c-0.3-0.2-0.8-0.1-1.1,0.1L22,15v-5c0-0.4-0.2-0.7-0.5-0.9c-0.3-0.2-0.7-0.1-1,0.1l-9.1,6.4
	l-3.5-6C7.7,9.2,7.4,9,7,9H2c-0.6,0-1,0.4-1,1v20c0,0.6,0.4,1,1,1h28c0.6,0,1-0.4,1-1V10z M29,29H3V11h3.4l3.7,6.5
	c0.1,0.2,0.4,0.4,0.6,0.5c0.3,0.1,0.6,0,0.8-0.2l8.4-5.9V17c0,0.4,0.2,0.7,0.6,0.9c0.3,0.2,0.8,0.1,1.1-0.1L29,12V29z"/>
<path d="M21,22v4c0,0.6,0.4,1,1,1h4c0.6,0,1-0.4,1-1v-4c0-0.6-0.4-1-1-1h-4C21.4,21,21,21.4,21,22z M23,23h2v2h-2V23z"/>
<path d="M18,21h-4c-0.6,0-1,0.4-1,1v4c0,0.6,0.4,1,1,1h4c0.6,0,1-0.4,1-1v-4C19,21.4,18.6,21,18,21z M17,25h-2v-2h2V25z"/>
<path d="M2,8h16.9c0.3,0,0.6-0.1,0.7-0.3s0.3-0.5,0.2-0.8C19.6,4.1,17.3,2,14.5,2c-1.1,0-2.2,0.3-3.1,1C10.3,1.7,8.7,1,7,1
	C3.7,1,1,3.7,1,7C1,7.6,1.4,8,2,8z M7,3c1.4,0,2.7,0.7,3.4,1.9c0.2,0.3,0.4,0.4,0.7,0.5c0.3,0,0.6-0.1,0.8-0.3
	C12.6,4.4,13.5,4,14.5,4c1.4,0,2.6,0.8,3.1,2H3.1C3.6,4.3,5.1,3,7,3z"/>
</svg>
