<?xml version="1.0" encoding="utf-8"?>
<!-- Generator: Adobe Illustrator 18.1.1, SVG Export Plug-In . SVG Version: 6.00 Build 0)  -->
<!DOCTYPE svg PUBLIC "-//W3C//DTD SVG 1.1//EN" "http://www.w3.org/Graphics/SVG/1.1/DTD/svg11.dtd">
<svg version="1.1" id="Layer_1" xmlns="http://www.w3.org/2000/svg" xmlns:xlink="http://www.w3.org/1999/xlink" x="0px" y="0px"
	 width="32px" height="32px" viewBox="0 0 32 32" enable-background="new 0 0 32 32" xml:space="preserve">
<path d="M10.4,17.9c0.2,0.1,0.3,0.1,0.5,0.1c0.3,0,0.7-0.2,0.9-0.5l2.2-3.8c0.6,0.2,1.3,0.4,2,0.4c3.3,0,6-2.7,6-6s-2.7-6-6-6
	s-6,2.7-6,6c0,1.9,0.9,3.6,2.2,4.7l-2.2,3.8C9.8,17,10,17.6,10.4,17.9z M16,4c2.2,0,4,1.8,4,4s-1.8,4-4,4s-4-1.8-4-4S13.8,4,16,4z"
	/>
<path d="M7,30c3,0,5.4-2.2,5.9-5H17c0.6,0,1-0.4,1-1s-0.4-1-1-1h-4.1c-0.5-2.8-2.9-5-5.9-5c-3.3,0-6,2.7-6,6S3.7,30,7,30z M7,20
	c2.2,0,4,1.8,4,4s-1.8,4-4,4s-4-1.8-4-4S4.8,20,7,20z"/>
<path d="M31,24c0-3.3-2.7-6-6-6c-0.7,0-1.3,0.1-1.9,0.3l-2.2-4.2c-0.3-0.5-0.9-0.7-1.4-0.4c-0.5,0.3-0.7,0.9-0.4,1.4l2.2,4.2
	C19.9,20.4,19,22.1,19,24c0,3.3,2.7,6,6,6S31,27.3,31,24z M25,28c-2.2,0-4-1.8-4-4s1.8-4,4-4s4,1.8,4,4S27.2,28,25,28z"/>
</svg>
