<?xml version="1.0" encoding="utf-8"?>
<!-- Generator: Adobe Illustrator 18.1.1, SVG Export Plug-In . SVG Version: 6.00 Build 0)  -->
<!DOCTYPE svg PUBLIC "-//W3C//DTD SVG 1.1//EN" "http://www.w3.org/Graphics/SVG/1.1/DTD/svg11.dtd">
<svg version="1.1" id="Layer_1" xmlns="http://www.w3.org/2000/svg" xmlns:xlink="http://www.w3.org/1999/xlink" x="0px" y="0px"
	 width="32px" height="32px" viewBox="0 0 32 32" enable-background="new 0 0 32 32" xml:space="preserve">
<path d="M28.1,14.6c1,0,1.9-0.4,2.6-1.1l0.3-0.3c0.4-0.4,0.4-1,0-1.4L20.1,1c-0.4-0.4-1-0.4-1.4,0l-0.3,0.3
	c-0.7,0.7-1.1,1.6-1.1,2.6c0,0.7,0.2,1.4,0.6,1.9L7.7,12.4l-0.8-0.8c-1.4-1.4-3.8-1.4-5.1,0l-0.3,0.3c-0.4,0.4-0.4,1,0,1.4l8,8
	L1,29.5c-0.4,0.4-0.4,1,0,1.4c0.2,0.2,0.5,0.3,0.7,0.3s0.5-0.1,0.7-0.3l8.3-8.3l8,8c0.2,0.2,0.5,0.3,0.7,0.3s0.5-0.1,0.7-0.3
	l0.3-0.3c0.7-0.7,1.1-1.6,1.1-2.6s-0.4-1.9-1.1-2.6l-0.8-0.8l6.5-10.3C26.7,14.4,27.4,14.6,28.1,14.6z M19.5,3.2l9.3,9.3
	c-0.6,0.3-1.4,0.1-1.8-0.3l-0.3-0.3l-6.5-6.5l-0.3-0.3c-0.3-0.3-0.5-0.7-0.5-1.2C19.4,3.7,19.4,3.4,19.5,3.2z M19.4,28.4L3.6,12.6
	C4.2,12.4,5,12.5,5.4,13l1.4,1.4l10.8,10.8l1.4,1.4c0.3,0.3,0.5,0.7,0.5,1.2C19.5,28,19.5,28.2,19.4,28.4z M18.2,22.9l-9.1-9.1
	l10.2-6.5l5.4,5.4L18.2,22.9z"/>
</svg>
