<?xml version="1.0" encoding="utf-8"?>
<!-- Generator: Adobe Illustrator 18.1.1, SVG Export Plug-In . SVG Version: 6.00 Build 0)  -->
<!DOCTYPE svg PUBLIC "-//W3C//DTD SVG 1.1//EN" "http://www.w3.org/Graphics/SVG/1.1/DTD/svg11.dtd">
<svg version="1.1" id="Layer_1" xmlns="http://www.w3.org/2000/svg" xmlns:xlink="http://www.w3.org/1999/xlink" x="0px" y="0px"
	 width="32px" height="32px" viewBox="0 0 32 32" enable-background="new 0 0 32 32" xml:space="preserve">
<path d="M16,0c-0.6,0-1,0.4-1,1v3h-1c-0.6,0-1,0.4-1,1v2h-2c-0.6,0-1,0.4-1,1v11H3c-0.6,0-1,0.4-1,1v11c0,0.6,0.4,1,1,1h11h3.9
	c0,0,0,0,0,0c0,0,0,0,0,0h11c0.6,0,1-0.4,1-1V17c0-0.6-0.4-1-1-1h-7V8c0-0.6-0.4-1-1-1h-2V5c0-0.6-0.4-1-1-1h-1V1
	C17,0.4,16.6,0,16,0z M4,21h9v9H4V21z M28,30h-9V18h2c0,0,0,0,0,0s0,0,0,0h7V30z M18,9h2v7h-2c-0.6,0-1,0.4-1,1v13h-2V20
	c0-0.6-0.4-1-1-1h-2V9h2c0.6,0,1-0.4,1-1V6h2v2C17,8.6,17.4,9,18,9z"/>
<path d="M21,20c-0.6,0-1,0.4-1,1s0.4,1,1,1h1c0.6,0,1-0.4,1-1s-0.4-1-1-1H21z"/>
<path d="M22,23h-1c-0.6,0-1,0.4-1,1s0.4,1,1,1h1c0.6,0,1-0.4,1-1S22.6,23,22,23z"/>
<path d="M22,26h-1c-0.6,0-1,0.4-1,1s0.4,1,1,1h1c0.6,0,1-0.4,1-1S22.6,26,22,26z"/>
<path d="M25,22h1c0.6,0,1-0.4,1-1s-0.4-1-1-1h-1c-0.6,0-1,0.4-1,1S24.4,22,25,22z"/>
<path d="M25,25h1c0.6,0,1-0.4,1-1s-0.4-1-1-1h-1c-0.6,0-1,0.4-1,1S24.4,25,25,25z"/>
<path d="M25,28h1c0.6,0,1-0.4,1-1s-0.4-1-1-1h-1c-0.6,0-1,0.4-1,1S24.4,28,25,28z"/>
<path d="M11,23h-1c-0.6,0-1,0.4-1,1s0.4,1,1,1h1c0.6,0,1-0.4,1-1S11.6,23,11,23z"/>
<path d="M11,26h-1c-0.6,0-1,0.4-1,1s0.4,1,1,1h1c0.6,0,1-0.4,1-1S11.6,26,11,26z"/>
<path d="M7,23H6c-0.6,0-1,0.4-1,1s0.4,1,1,1h1c0.6,0,1-0.4,1-1S7.6,23,7,23z"/>
<path d="M7,26H6c-0.6,0-1,0.4-1,1s0.4,1,1,1h1c0.6,0,1-0.4,1-1S7.6,26,7,26z"/>
</svg>
