<?xml version="1.0" encoding="utf-8"?>
<!-- Generator: Adobe Illustrator 18.1.1, SVG Export Plug-In . SVG Version: 6.00 Build 0)  -->
<!DOCTYPE svg PUBLIC "-//W3C//DTD SVG 1.1//EN" "http://www.w3.org/Graphics/SVG/1.1/DTD/svg11.dtd">
<svg version="1.1" id="Layer_1" xmlns="http://www.w3.org/2000/svg" xmlns:xlink="http://www.w3.org/1999/xlink" x="0px" y="0px"
	 width="32px" height="32px" viewBox="0 0 32 32" enable-background="new 0 0 32 32" xml:space="preserve">
<path d="M31,15c-0.6,0-1,0.4-1,1c0,7.7-6.3,14-14,14S2,23.7,2,16S8.3,2,16,2c4.9,0,9.4,2.6,11.9,6.6l-2.5-0.3
	c-0.5-0.1-1.1,0.3-1.1,0.9c-0.1,0.5,0.3,1.1,0.9,1.1l4.4,0.6c0,0,0.1,0,0.1,0c0.5,0,0.9-0.4,1-0.9l0.6-4.8c0.1-0.5-0.3-1.1-0.9-1.1
	c-0.6-0.1-1.1,0.3-1.1,0.9l-0.2,1.8C26.1,2.6,21.3,0,16,0C7.2,0,0,7.2,0,16s7.2,16,16,16s16-7.2,16-16C32,15.4,31.6,15,31,15z"/>
<path d="M22,22c0.6,0,1-0.4,1-1v-2h2c0.6,0,1-0.4,1-1s-0.4-1-1-1h-2v-6c0-0.4-0.3-0.8-0.7-1c-0.4-0.1-0.9,0-1.1,0.4l-5,7
	c-0.2,0.3-0.2,0.7-0.1,1c0.2,0.3,0.5,0.5,0.9,0.5h4v2C21,21.6,21.4,22,22,22z M18.9,17l2.1-2.9V17H18.9z"/>
<path d="M15,14c0-2.1-1.9-4-4-4c-2.1,0-4,1.9-4,4c0,0.6,0.4,1,1,1s1-0.4,1-1c0-1,1-2,2-2c0.9,0,2,0.9,2,2c0,1.2-2.9,4.1-5.6,6.2
	c-0.3,0.3-0.5,0.7-0.3,1.1C7.2,21.7,7.6,22,8,22h6c0.6,0,1-0.4,1-1s-0.4-1-1-1h-3.2C12.7,18.3,15,15.8,15,14z"/>
</svg>
