<?xml version="1.0" encoding="utf-8"?>
<!-- Generator: Adobe Illustrator 18.1.1, SVG Export Plug-In . SVG Version: 6.00 Build 0)  -->
<!DOCTYPE svg PUBLIC "-//W3C//DTD SVG 1.1//EN" "http://www.w3.org/Graphics/SVG/1.1/DTD/svg11.dtd">
<svg version="1.1" id="Layer_1" xmlns="http://www.w3.org/2000/svg" xmlns:xlink="http://www.w3.org/1999/xlink" x="0px" y="0px"
	 width="32px" height="32px" viewBox="0 0 32 32" enable-background="new 0 0 32 32" xml:space="preserve">
<path d="M28,32c0.6,0,1-0.4,1-1V4c0-0.6-0.4-1-1-1h-6c0-0.6-0.4-1-1-1h-2.2c-0.4-1.2-1.5-2-2.8-2s-2.4,0.8-2.8,2H11
	c-0.6,0-1,0.4-1,1H4C3.4,3,3,3.4,3,4v27c0,0.6,0.4,1,1,1H28z M24,21h-4c-0.6,0-1,0.4-1,1v4H8V8h2c0,0.6,0.4,1,1,1h10
	c0.6,0,1-0.4,1-1h2V21z M22.6,23L21,24.6V23H22.6z M14,4c0.6,0,1-0.4,1-1c0-0.6,0.4-1,1-1s1,0.4,1,1c0,0.6,0.4,1,1,1h2v3h-8V4H14z
	 M5,5h5v1H7C6.4,6,6,6.4,6,7v20c0,0.6,0.4,1,1,1h13c0.1,0,0.3,0,0.4-0.1c0.1-0.1,0.2-0.1,0.3-0.2l5-5c0.1-0.1,0.2-0.2,0.2-0.3
	C26,22.3,26,22.1,26,22V7c0-0.6-0.4-1-1-1h-3V5h5v25H5V5z"/>
<path d="M21,12H11c-0.6,0-1,0.4-1,1s0.4,1,1,1h10c0.6,0,1-0.4,1-1S21.6,12,21,12z"/>
<path d="M21,16H11c-0.6,0-1,0.4-1,1s0.4,1,1,1h10c0.6,0,1-0.4,1-1S21.6,16,21,16z"/>
<path d="M15,20h-4c-0.6,0-1,0.4-1,1s0.4,1,1,1h4c0.6,0,1-0.4,1-1S15.6,20,15,20z"/>
</svg>
