<?xml version="1.0" encoding="utf-8"?>
<!-- Generator: Adobe Illustrator 18.1.1, SVG Export Plug-In . SVG Version: 6.00 Build 0)  -->
<!DOCTYPE svg PUBLIC "-//W3C//DTD SVG 1.1//EN" "http://www.w3.org/Graphics/SVG/1.1/DTD/svg11.dtd">
<svg version="1.1" id="Layer_1" xmlns="http://www.w3.org/2000/svg" xmlns:xlink="http://www.w3.org/1999/xlink" x="0px" y="0px"
	 width="32px" height="32px" viewBox="0 0 32 32" enable-background="new 0 0 32 32" xml:space="preserve">
<path d="M14,13V7c0-0.6-0.4-1-1-1s-1,0.4-1,1v5H7c-0.6,0-1,0.4-1,1s0.4,1,1,1h6C13.6,14,14,13.6,14,13z"/>
<path d="M26,11c-0.1,0-0.1,0-0.2,0C24.9,4.8,19.4,0,13,0C5.8,0,0,5.8,0,13s5.8,13,13,13c0,0,0,0,0.1,0c0.1,0.4,0.2,0.7,0.5,1
	c-0.3,0.5-0.6,1-0.6,1.5c0,2,2.6,3.5,6,3.5s6-1.5,6-3.5c0-0.5-0.2-1-0.6-1.5c0,0,0.1-0.1,0.1-0.1C25,27,25.5,27,26,27
	c3.4,0,6-1.5,6-3.5c0-0.5-0.2-1-0.6-1.5c0.4-0.5,0.6-1,0.6-1.5c0-0.5-0.2-1-0.6-1.5c0.4-0.5,0.6-1,0.6-1.5c0-0.5-0.2-1-0.6-1.5
	c0.4-0.5,0.6-1,0.6-1.5C32,12.5,29.4,11,26,11z M30,20.5c0,0.5-1.5,1.5-4,1.5c-0.4,0-0.7,0-1.1-0.1c-0.1-0.3-0.2-0.6-0.5-0.9
	c0,0,0.1-0.1,0.1-0.1C25,21,25.5,21,26,21c1.5,0,2.8-0.3,3.9-0.8C30,20.3,30,20.4,30,20.5z M22.2,26.3C21.5,26.7,20.4,27,19,27
	c-2.5,0-4-1-4-1.5c0-0.1,0-0.2,0.1-0.3c1,0.5,2.4,0.8,3.9,0.8c1.5,0,2.8-0.3,3.9-0.8c0.1,0.1,0.1,0.2,0.1,0.2c0,0,0,0.1,0,0.1
	c0,0.1,0,0.1,0,0.2c-0.1,0.1-0.1,0.2-0.2,0.3C22.5,26,22.3,26.1,22.2,26.3z M20.6,18.1c0.1,0,0.1,0.1,0.2,0.1c0.1,0,0.1,0,0.2,0
	c0,0,0,0,0,0c1.2,0.3,1.9,0.8,1.9,1.2c0,0,0,0.1-0.1,0.1c0,0.1,0,0.1,0,0.2c-0.1,0.1-0.3,0.3-0.5,0.4c0,0,0,0,0,0
	C21.8,20.6,20.6,21,19,21c-2.5,0-4-1-4-1.5s1.5-1.5,4-1.5C19.6,18,20.2,18.1,20.6,18.1z M22.4,23.2C21.7,23.6,20.5,24,19,24
	c-2.5,0-4-1-4-1.5c0-0.1,0-0.2,0.1-0.3c1,0.5,2.4,0.8,3.9,0.8c1.5,0,2.8-0.3,3.9-0.8c0.1,0.1,0.1,0.1,0.1,0.2c0,0,0,0.1-0.1,0.1
	c0,0.1,0,0.1,0,0.2C22.8,22.9,22.7,23,22.4,23.2C22.4,23.2,22.4,23.2,22.4,23.2z M30,17.5c0,0.2-0.2,0.4-0.6,0.7c0,0,0,0,0,0
	C28.8,18.6,27.6,19,26,19c-0.4,0-0.7,0-1.1-0.1c-0.1-0.4-0.3-0.7-0.6-1.1c0.5,0.1,1.1,0.1,1.6,0.1c1.5,0,2.8-0.3,3.9-0.8
	C30,17.3,30,17.4,30,17.5z M30,14.5c0,0.2-0.2,0.4-0.5,0.6c-0.1,0-0.1,0.1-0.2,0.1C28.7,15.6,27.5,16,26,16c-1.5,0-2.7-0.4-3.4-0.8
	c0,0-0.1-0.1-0.1-0.1c-0.3-0.2-0.5-0.5-0.5-0.6c0-0.5,1.1-1.2,3-1.4c0,0,0,0,0,0c0,0,0,0,0,0c0.3,0,0.6-0.1,0.9-0.1
	C28.5,13,30,14,30,14.5z M2,13C2,6.9,6.9,2,13,2c5.4,0,10,4,10.8,9.2c-2.3,0.5-3.8,1.7-3.8,3.3c0,0.5,0.2,1,0.5,1.5
	c0,0,0,0.1-0.1,0.1C20,16,19.5,16,19,16c-3.4,0-6,1.5-6,3.5c0,0.5,0.2,1.1,0.6,1.5c-0.3,0.5-0.6,1-0.6,1.5c0,0.5,0.2,1,0.5,1.5
	c-0.2,0-0.4,0-0.5,0C6.9,24,2,19.1,2,13z M19,30c-2.5,0-4-1-4-1.5c0-0.1,0-0.2,0.1-0.3c1,0.5,2.4,0.8,3.9,0.8c1.5,0,2.8-0.3,3.9-0.8
	c0.1,0.1,0.1,0.2,0.1,0.3C23,29,21.5,30,19,30z M26,25c-0.4,0-0.7,0-1.1-0.1c-0.1-0.3-0.2-0.6-0.5-0.9c0,0,0.1-0.1,0.1-0.1
	C25,24,25.5,24,26,24c1.5,0,2.8-0.3,3.9-0.8c0.1,0.1,0.1,0.2,0.1,0.3C30,24,28.5,25,26,25z"/>
</svg>
