<?xml version="1.0" encoding="utf-8"?>
<!-- Generator: Adobe Illustrator 18.1.1, SVG Export Plug-In . SVG Version: 6.00 Build 0)  -->
<!DOCTYPE svg PUBLIC "-//W3C//DTD SVG 1.1//EN" "http://www.w3.org/Graphics/SVG/1.1/DTD/svg11.dtd">
<svg version="1.1" id="Layer_1" xmlns="http://www.w3.org/2000/svg" xmlns:xlink="http://www.w3.org/1999/xlink" x="0px" y="0px"
	 width="32px" height="32px" viewBox="0 0 32 32" enable-background="new 0 0 32 32" xml:space="preserve">
<path d="M26,19c0,0.6,0.4,1,1,1s1-0.4,1-1v-3c0-0.6-0.4-1-1-1H17v-2c0-0.6-0.4-1-1-1s-1,0.4-1,1v2H5c-0.6,0-1,0.4-1,1v3
	c0,0.6,0.4,1,1,1s1-0.4,1-1v-2h9v2c0,0.6,0.4,1,1,1s1-0.4,1-1v-2h9V19z"/>
<path d="M12,6c0,2.2,1.8,4,4,4s4-1.8,4-4s-1.8-4-4-4S12,3.8,12,6z M18,6c0,1.1-0.9,2-2,2s-2-0.9-2-2s0.9-2,2-2S18,4.9,18,6z"/>
<path d="M5,30c2.2,0,4-1.8,4-4s-1.8-4-4-4s-4,1.8-4,4S2.8,30,5,30z M5,24c1.1,0,2,0.9,2,2s-0.9,2-2,2s-2-0.9-2-2S3.9,24,5,24z"/>
<path d="M12,26c0,2.2,1.8,4,4,4s4-1.8,4-4s-1.8-4-4-4S12,23.8,12,26z M18,26c0,1.1-0.9,2-2,2s-2-0.9-2-2s0.9-2,2-2S18,24.9,18,26z"
	/>
<path d="M27,30c2.2,0,4-1.8,4-4s-1.8-4-4-4s-4,1.8-4,4S24.8,30,27,30z M27,24c1.1,0,2,0.9,2,2s-0.9,2-2,2s-2-0.9-2-2S25.9,24,27,24z
	"/>
</svg>
