<?xml version="1.0" encoding="utf-8"?>
<!-- Generator: Adobe Illustrator 18.1.1, SVG Export Plug-In . SVG Version: 6.00 Build 0)  -->
<!DOCTYPE svg PUBLIC "-//W3C//DTD SVG 1.1//EN" "http://www.w3.org/Graphics/SVG/1.1/DTD/svg11.dtd">
<svg version="1.1" id="Layer_1" xmlns="http://www.w3.org/2000/svg" xmlns:xlink="http://www.w3.org/1999/xlink" x="0px" y="0px"
	 width="32px" height="32px" viewBox="0 0 32 32" enable-background="new 0 0 32 32" xml:space="preserve">
<path d="M30,16h-1V9c0-0.6-0.4-1-1-1h-1V5c0-0.6-0.4-1-1-1h-2V2c0-0.6-0.4-1-1-1H6C5.4,1,5,1.4,5,2v2H4C2.3,4,1,5.3,1,7v20
	c0,2.8,2.2,5,5,5h22c0.6,0,1-0.4,1-1v-7h1c0.6,0,1-0.4,1-1v-6C31,16.4,30.6,16,30,16z M25,6v2h-1V6H25z M7,3h15v5H7V3z M4,6h1v2H4
	C3.4,8,3,7.6,3,7S3.4,6,4,6z M27,30H6c-1.7,0-3-1.3-3-3V9.8c0.1,0,0.2,0,0.3,0.1c0.1,0,0.1,0,0.2,0C3.6,10,3.8,10,4,10h23v6h-4
	c-2.2,0-4,1.8-4,4s1.8,4,4,4h4V30z M29,22h-6c-1.1,0-2-0.9-2-2s0.9-2,2-2h6V22z"/>
<path d="M26,19h-1c-0.6,0-1,0.4-1,1s0.4,1,1,1h1c0.6,0,1-0.4,1-1S26.6,19,26,19z"/>
</svg>
