<?xml version="1.0" encoding="utf-8"?>
<!-- Generator: Adobe Illustrator 18.1.1, SVG Export Plug-In . SVG Version: 6.00 Build 0)  -->
<!DOCTYPE svg PUBLIC "-//W3C//DTD SVG 1.1//EN" "http://www.w3.org/Graphics/SVG/1.1/DTD/svg11.dtd">
<svg version="1.1" id="Layer_1" xmlns="http://www.w3.org/2000/svg" xmlns:xlink="http://www.w3.org/1999/xlink" x="0px" y="0px"
	 width="32px" height="32px" viewBox="0 0 32 32" enable-background="new 0 0 32 32" xml:space="preserve">
<path d="M31,0H1C0.4,0,0,0.4,0,1v16c0,0.6,0.4,1,1,1h14v13c0,0.6,0.4,1,1,1s1-0.4,1-1v-2c4.8-0.2,8-1.8,8-8c0-0.6-0.4-1-1-1
	c-3.3,0-5.5,0.6-7,2v-4h14c0.6,0,1-0.4,1-1V1C32,0.4,31.6,0,31,0z M23,22c-0.2,3.6-1.7,4.8-5.9,5C17.2,24,18.5,22.2,23,22z M30,16H2
	V2h28V16z"/>
<path d="M16,12c1.7,0,3-1.3,3-3s-1.3-3-3-3s-3,1.3-3,3S14.3,12,16,12z M16,8c0.6,0,1,0.4,1,1s-0.4,1-1,1s-1-0.4-1-1S15.4,8,16,8z"/>
<path d="M4,12c1.1,0,2,0.9,2,2c0,0.6,0.4,1,1,1h18c0.6,0,1-0.4,1-1c0-1.1,0.9-2,2-2c0.6,0,1-0.4,1-1V7c0-0.6-0.4-1-1-1
	c-1.1,0-2-0.9-2-2c0-0.6-0.4-1-1-1H7C6.4,3,6,3.4,6,4c0,1.1-0.9,2-2,2C3.4,6,3,6.4,3,7v4C3,11.6,3.4,12,4,12z M5,7.9
	C6.4,7.5,7.5,6.4,7.9,5h16.3c0.4,1.4,1.5,2.5,2.9,2.9v2.3c-1.4,0.4-2.5,1.5-2.9,2.9H7.9c-0.4-1.4-1.5-2.5-2.9-2.9V7.9z"/>
</svg>
