<?xml version="1.0" encoding="utf-8"?>
<!-- Generator: Adobe Illustrator 18.1.1, SVG Export Plug-In . SVG Version: 6.00 Build 0)  -->
<!DOCTYPE svg PUBLIC "-//W3C//DTD SVG 1.1//EN" "http://www.w3.org/Graphics/SVG/1.1/DTD/svg11.dtd">
<svg version="1.1" id="Layer_1" xmlns="http://www.w3.org/2000/svg" xmlns:xlink="http://www.w3.org/1999/xlink" x="0px" y="0px"
	 width="32px" height="32px" viewBox="0 0 32 32" enable-background="new 0 0 32 32" xml:space="preserve">
<path d="M23,32h3c1.7,0,3-1.3,3-3V3c0-1.7-1.3-3-3-3h-3H4C3.4,0,3,0.4,3,1v30c0,0.6,0.4,1,1,1H23z M27,24h-3v-9h3V24z M22,24H5v-9
	h17V24z M5,26h17v4H5V26z M26,30h-2v-4h3v3C27,29.6,26.6,30,26,30z M27,3v10h-3V2h2C26.6,2,27,2.4,27,3z M10,2h4v5.1l-1.4-1
	c-0.3-0.2-0.8-0.2-1.1,0l-1.4,1V2z M8,2v7c0,0.4,0.2,0.7,0.5,0.9c0.3,0.2,0.7,0.2,1,0L12,8.2l2.4,1.6C14.6,9.9,14.8,10,15,10
	c0.2,0,0.3,0,0.5-0.1C15.8,9.7,16,9.4,16,9V2h6v11H5V2H8z"/>
<path d="M9,19h8c0.6,0,1-0.4,1-1s-0.4-1-1-1H9c-0.6,0-1,0.4-1,1S8.4,19,9,19z"/>
<path d="M13,20H9c-0.6,0-1,0.4-1,1s0.4,1,1,1h4c0.6,0,1-0.4,1-1S13.6,20,13,20z"/>
</svg>
