<?xml version="1.0" encoding="utf-8"?>
<!-- Generator: Adobe Illustrator 18.1.1, SVG Export Plug-In . SVG Version: 6.00 Build 0)  -->
<!DOCTYPE svg PUBLIC "-//W3C//DTD SVG 1.1//EN" "http://www.w3.org/Graphics/SVG/1.1/DTD/svg11.dtd">
<svg version="1.1" id="Layer_1" xmlns="http://www.w3.org/2000/svg" xmlns:xlink="http://www.w3.org/1999/xlink" x="0px" y="0px"
	 width="32px" height="32px" viewBox="0 0 32 32" enable-background="new 0 0 32 32" xml:space="preserve">
<path d="M19,28c0.6,0,1-0.4,1-1V5c0-0.6-0.4-1-1-1h-6c-0.6,0-1,0.4-1,1v22c0,0.6,0.4,1,1,1H19z M14,6h4v20h-4V6z"/>
<path d="M9,28c0.6,0,1-0.4,1-1v-8c0-0.6-0.4-1-1-1H3c-0.6,0-1,0.4-1,1v8c0,0.6,0.4,1,1,1H9z M4,20h4v6H4V20z"/>
<path d="M29,28c0.6,0,1-0.4,1-1V13c0-0.6-0.4-1-1-1h-6c-0.6,0-1,0.4-1,1v14c0,0.6,0.4,1,1,1H29z M24,14h4v12h-4V14z"/>
</svg>
