<?xml version="1.0" encoding="utf-8"?>
<!-- Generator: Adobe Illustrator 18.1.1, SVG Export Plug-In . SVG Version: 6.00 Build 0)  -->
<!DOCTYPE svg PUBLIC "-//W3C//DTD SVG 1.1//EN" "http://www.w3.org/Graphics/SVG/1.1/DTD/svg11.dtd">
<svg version="1.1" id="Layer_1" xmlns="http://www.w3.org/2000/svg" xmlns:xlink="http://www.w3.org/1999/xlink" x="0px" y="0px"
	 width="32px" height="32px" viewBox="0 0 32 32" enable-background="new 0 0 32 32" xml:space="preserve">
<path d="M31,5h-9V2c0-0.6-0.4-1-1-1H11c-0.6,0-1,0.4-1,1v3H1C0.4,5,0,5.4,0,6v16c0,0.6,0.4,1,1,1h1v7c0,0.6,0.4,1,1,1h26
	c0.6,0,1-0.4,1-1v-7h1c0.6,0,1-0.4,1-1V6C32,5.4,31.6,5,31,5z M12,3h8v2h-8V3z M28,29H4v-6h8v1c0,0.6,0.4,1,1,1h6c0.6,0,1-0.4,1-1
	v-1h8V29z M18,23h-4v-3h4V23z M30,21H20v-2c0-0.6-0.4-1-1-1h-6c-0.6,0-1,0.4-1,1v2H2V7h28V21z"/>
</svg>
