<?xml version="1.0" encoding="utf-8"?>
<!-- Generator: Adobe Illustrator 18.1.1, SVG Export Plug-In . SVG Version: 6.00 Build 0)  -->
<!DOCTYPE svg PUBLIC "-//W3C//DTD SVG 1.1//EN" "http://www.w3.org/Graphics/SVG/1.1/DTD/svg11.dtd">
<svg version="1.1" id="Layer_1" xmlns="http://www.w3.org/2000/svg" xmlns:xlink="http://www.w3.org/1999/xlink" x="0px" y="0px"
	 width="32px" height="32px" viewBox="0 0 32 32" enable-background="new 0 0 32 32" xml:space="preserve">
<path d="M16,1C7.7,1,1,7.7,1,16c0,3.8,1.4,7.2,3.7,9.9c0,0.1,0.1,0.3,0.2,0.4c0.1,0.1,0.2,0.2,0.4,0.2C8,29.3,11.8,31,16,31
	c8.3,0,15-6.7,15-15S24.3,1,16,1z M28.9,15h-6c-0.4-3.1-2.9-5.5-5.9-5.9v-6C23.4,3.5,28.5,8.6,28.9,15z M12.6,19.7
	c0-0.1-0.1-0.2-0.2-0.4c-0.1-0.1-0.2-0.2-0.3-0.2C11.4,18.2,11,17.2,11,16c0-2.8,2.2-5,5-5s5,2.2,5,5s-2.2,5-5,5
	C14.7,21,13.5,20.5,12.6,19.7z M15,3.1v6c-3.4,0.5-6,3.4-6,6.9c0,1.5,0.5,2.8,1.2,4l-4.4,4.1C4.1,21.9,3,19.1,3,16
	C3,9.2,8.3,3.6,15,3.1z M16,29c-3.4,0-6.5-1.3-8.8-3.5l4.4-4.1c1.2,1,2.7,1.6,4.4,1.6c3.5,0,6.4-2.6,6.9-6h6
	C28.4,23.7,22.8,29,16,29z"/>
</svg>
