<?xml version="1.0" encoding="utf-8"?>
<!-- Generator: Adobe Illustrator 18.1.1, SVG Export Plug-In . SVG Version: 6.00 Build 0)  -->
<!DOCTYPE svg PUBLIC "-//W3C//DTD SVG 1.1//EN" "http://www.w3.org/Graphics/SVG/1.1/DTD/svg11.dtd">
<svg version="1.1" id="Layer_1" xmlns="http://www.w3.org/2000/svg" xmlns:xlink="http://www.w3.org/1999/xlink" x="0px" y="0px"
	 width="32px" height="32px" viewBox="0 0 32 32" enable-background="new 0 0 32 32" xml:space="preserve">
<path d="M5,10.8l-3,16c0,0,0,0.1,0,0.1c0,0,0,0,0,0.1c0,0.1,0,0.2,0.1,0.3c0,0,0,0,0,0.1c0,0.1,0.1,0.2,0.2,0.3
	c0.1,0.1,0.2,0.2,0.3,0.2C2.7,28,2.9,28,3,28c0.1,0,0.1,0,0.2,0l16-3c0.3-0.1,0.6-0.3,0.7-0.6l3.4-7.7l1,1c0.2,0.2,0.5,0.3,0.7,0.3
	s0.5-0.1,0.7-0.3l3-3c0.4-0.4,0.4-1,0-1.4l-12-12c-0.4-0.4-1-0.4-1.4,0l-3,3c-0.4,0.4-0.4,1,0,1.4l1,1l-7.7,3.4
	C5.3,10.2,5.1,10.5,5,10.8z M16,3.4L26.6,14L25,15.6l-9.3-9.3c0,0,0,0,0,0L14.4,5L16,3.4z M14.8,8.2l7,7l-3.5,7.9L6,25.4l5.7-5.7
	c0.4,0.2,0.8,0.3,1.3,0.3c0.8,0,1.6-0.3,2.1-0.9c0.6-0.6,0.9-1.3,0.9-2.1s-0.3-1.6-0.9-2.1c-1.1-1.1-3.1-1.1-4.2,0
	C10.3,15.4,10,16.2,10,17c0,0.5,0.1,0.9,0.3,1.3L4.6,24l2.3-12.3L14.8,8.2z M12.3,17.7C12.1,17.5,12,17.3,12,17s0.1-0.5,0.3-0.7
	S12.7,16,13,16s0.5,0.1,0.7,0.3c0.2,0.2,0.3,0.4,0.3,0.7s-0.1,0.5-0.3,0.7C13.3,18.1,12.7,18.1,12.3,17.7z"/>
<path d="M3,32h24c0.6,0,1-0.4,1-1s-0.4-1-1-1H3c-0.6,0-1,0.4-1,1S2.4,32,3,32z"/>
</svg>
