<?xml version="1.0" encoding="utf-8"?>
<!-- Generator: Adobe Illustrator 18.1.1, SVG Export Plug-In . SVG Version: 6.00 Build 0)  -->
<!DOCTYPE svg PUBLIC "-//W3C//DTD SVG 1.1//EN" "http://www.w3.org/Graphics/SVG/1.1/DTD/svg11.dtd">
<svg version="1.1" id="Layer_1" xmlns="http://www.w3.org/2000/svg" xmlns:xlink="http://www.w3.org/1999/xlink" x="0px" y="0px"
	 width="32px" height="32px" viewBox="0 0 32 32" enable-background="new 0 0 32 32" xml:space="preserve">
<path d="M22.5,19.3c1.3-1.3,2.2-3,2.4-5c1.3-1.2,2.1-2.9,2.1-4.8c0-0.2,0-0.4,0-0.6c0-0.5-0.5-0.9-1-0.9h-1c-0.5-4.5-4.3-8-8.9-8
	S7.6,3.5,7.1,8H6c-0.5,0-1,0.4-1,0.9c0,0.2,0,0.4,0,0.6c0,1.9,0.8,3.6,2.1,4.8c0.3,1.9,1.1,3.7,2.4,5C4.1,20.4,0,25.2,0,31
	c0,0.6,0.4,1,1,1h11h8h11c0.6,0,1-0.4,1-1C32,25.2,27.9,20.4,22.5,19.3z M17.4,23h-2.8L14,21.8c0.6,0.1,1.3,0.2,2,0.2
	c0.7,0,1.4-0.1,2-0.2L17.4,23z M16,2c3.5,0,6.4,2.6,6.9,6H9.1C9.6,4.6,12.5,2,16,2z M25,10c-0.2,2.2-2.2,4-4.5,4
	c-1.5,0-2.8-0.7-3.7-1.9c-0.2-0.3-0.5-0.4-0.8-0.4s-0.6,0.2-0.8,0.4C14.3,13.3,13,14,11.5,14c-1.1,0-2-0.4-2.8-1
	c0,0-0.1-0.1-0.1-0.1C7.7,12.2,7.2,11.2,7,10H25z M11.5,16c1.7,0,3.3-0.7,4.5-1.8c1.2,1.2,2.8,1.8,4.5,1.8c0.7,0,1.3-0.1,2-0.3
	c-0.6,1.4-1.6,2.6-3,3.4c-0.1,0-0.1,0.1-0.2,0.1c-1,0.5-2.1,0.8-3.3,0.8c-2.9,0-5.4-1.8-6.5-4.3C10.2,15.9,10.8,16,11.5,16z
	 M11.4,21l1.5,3.1L11.2,30H2C2.5,25.2,6.5,21.3,11.4,21z M13.3,30l1.4-5h2.5l1.4,5H13.3z M20.8,30l-1.7-5.9l1.5-3.1
	c4.9,0.3,8.9,4.1,9.3,9H20.8z"/>
</svg>
