<?xml version="1.0" encoding="utf-8"?>
<!-- Generator: Adobe Illustrator 18.1.1, SVG Export Plug-In . SVG Version: 6.00 Build 0)  -->
<!DOCTYPE svg PUBLIC "-//W3C//DTD SVG 1.1//EN" "http://www.w3.org/Graphics/SVG/1.1/DTD/svg11.dtd">
<svg version="1.1" id="Layer_1" xmlns="http://www.w3.org/2000/svg" xmlns:xlink="http://www.w3.org/1999/xlink" x="0px" y="0px"
	 width="32px" height="32px" viewBox="0 0 32 32" enable-background="new 0 0 32 32" xml:space="preserve">
<path d="M1,28h20v1c0,0.4,0.2,0.7,0.5,0.9c0.3,0.2,0.7,0.2,1,0l2.4-1.6l2.4,1.6c0.2,0.1,0.4,0.2,0.6,0.2c0.2,0,0.3,0,0.5-0.1
	c0.3-0.2,0.5-0.5,0.5-0.9v-5.5c1.2-1.1,2-2.7,2-4.5s-0.8-3.4-2-4.5V7c0-0.6-0.4-1-1-1h-4.7l-6.8-4.3c-0.2-0.9-1-1.7-2-1.7
	c-1,0-1.8,0.7-2,1.7L5.7,6H1C0.4,6,0,6.4,0,7v20C0,27.6,0.4,28,1,28z M24,13.1c-2.8,0.5-5,2.9-5,5.9c0,1.5,0.6,2.9,1.5,4H5V11h19
	V13.1z M27,27.1l-1.4-1c-0.3-0.2-0.8-0.2-1.1,0l-1.4,1V27c0,0,0,0,0,0s0,0,0,0v-2.3c0.6,0.2,1.3,0.4,2,0.4s1.4-0.1,2-0.4V27.1z
	 M27.4,22.2c0,0-0.1,0.1-0.1,0.1C26.6,22.7,25.8,23,25,23c-2.2,0-4-1.8-4-4s1.8-4,4-4s4,1.8,4,4C29,20.3,28.4,21.4,27.4,22.2z
	 M13.3,3.6C13.6,3.8,14,4,14.5,4c0.5,0,0.9-0.2,1.2-0.4L19.6,6H9.4L13.3,3.6z M2,8h25v5.4c-0.3-0.1-0.7-0.2-1-0.3V10
	c0-0.6-0.4-1-1-1H4c-0.6,0-1,0.4-1,1v14c0,0.6,0.4,1,1,1h17v1H2V8z"/>
<path d="M8,16h10c0.6,0,1-0.4,1-1s-0.4-1-1-1H8c-0.6,0-1,0.4-1,1S7.4,16,8,16z"/>
<path d="M8,20h6c0.6,0,1-0.4,1-1s-0.4-1-1-1H8c-0.6,0-1,0.4-1,1S7.4,20,8,20z"/>
</svg>
