<?xml version="1.0" encoding="utf-8"?>
<!-- Generator: Adobe Illustrator 18.1.1, SVG Export Plug-In . SVG Version: 6.00 Build 0)  -->
<!DOCTYPE svg PUBLIC "-//W3C//DTD SVG 1.1//EN" "http://www.w3.org/Graphics/SVG/1.1/DTD/svg11.dtd">
<svg version="1.1" id="Layer_1" xmlns="http://www.w3.org/2000/svg" xmlns:xlink="http://www.w3.org/1999/xlink" x="0px" y="0px"
	 width="32px" height="32px" viewBox="0 0 32 32" enable-background="new 0 0 32 32" xml:space="preserve">
<path d="M3.6,26.3c0.2,0.3,0.6,0.4,0.9,0.4l3.9-0.6l2,3.4c0.2,0.3,0.5,0.5,0.9,0.5c0,0,0,0,0.1,0c0.4,0,0.7-0.2,0.9-0.6l3.5-7.4
	c0.1,0,0.1,0,0.2,0c0.1,0,0.1,0,0.2,0l3.5,7.4c0.2,0.3,0.5,0.6,0.9,0.6c0,0,0,0,0.1,0c0.3,0,0.7-0.2,0.9-0.5l2-3.4l3.9,0.6
	c0.4,0.1,0.7-0.1,0.9-0.4c0.2-0.3,0.3-0.7,0.1-1l-3.7-7.7c1.4-1.8,2.2-4.1,2.2-6.5c0-6.1-4.9-11-11-11S5,4.9,5,11
	c0,2.5,0.8,4.7,2.2,6.5l-3.7,7.7C3.4,25.6,3.4,26,3.6,26.3z M23.1,24c-0.4-0.1-0.8,0.1-1,0.5l-1.4,2.4l-2.4-5.1
	c1.9-0.4,3.7-1.3,5.1-2.6l2.5,5.3L23.1,24z M16,2c5,0,9,4,9,9c0,2.1-0.7,4-2,5.6c-0.1,0.1-0.2,0.2-0.3,0.3c-1.5,1.7-3.6,2.8-6,3
	c0,0,0,0-0.1,0c-0.2,0-0.5,0-0.7,0c-0.2,0-0.4,0-0.6,0c-0.1,0-0.2,0-0.2,0c-2.3-0.2-4.3-1.3-5.8-3c-0.1-0.2-0.2-0.4-0.4-0.5
	C7.7,15,7,13.1,7,11C7,6,11,2,16,2z M8.6,19.1c1.4,1.3,3.2,2.2,5.1,2.6l-2.4,5.1l-1.4-2.4c-0.2-0.3-0.6-0.5-1-0.5l-2.7,0.4L8.6,19.1
	z"/>
<path d="M12.4,12.6l-0.5,2.9c-0.1,0.4,0.1,0.8,0.4,1c0.3,0.2,0.7,0.3,1.1,0.1l2.6-1.4l2.6,1.4c0.1,0.1,0.3,0.1,0.5,0.1
	c0.2,0,0.4-0.1,0.6-0.2c0.3-0.2,0.5-0.6,0.4-1l-0.5-2.9l2.1-2.1c0.3-0.3,0.4-0.7,0.3-1c-0.1-0.4-0.4-0.6-0.8-0.7l-2.9-0.4l-1.3-2.7
	c-0.2-0.3-0.5-0.6-0.9-0.6c-0.4,0-0.7,0.2-0.9,0.6l-1.3,2.6l-2.9,0.4c-0.4,0.1-0.7,0.3-0.8,0.7c-0.1,0.4,0,0.8,0.2,1L12.4,12.6z
	 M14.6,10.3c0.3,0,0.6-0.2,0.8-0.5L16,8.5l0.6,1.3c0.1,0.3,0.4,0.5,0.7,0.6l1.4,0.2l-1.1,1c-0.2,0.2-0.3,0.6-0.3,0.9l0.2,1.4
	l-1.3-0.7c-0.1-0.1-0.3-0.1-0.5-0.1c-0.2,0-0.3,0-0.5,0.1l-1.3,0.7l0.3-1.4c0.1-0.3,0-0.7-0.3-0.9l-1-1L14.6,10.3z"/>
</svg>
