<?xml version="1.0" encoding="utf-8"?>
<!-- Generator: Adobe Illustrator 18.1.1, SVG Export Plug-In . SVG Version: 6.00 Build 0)  -->
<!DOCTYPE svg PUBLIC "-//W3C//DTD SVG 1.1//EN" "http://www.w3.org/Graphics/SVG/1.1/DTD/svg11.dtd">
<svg version="1.1" id="Layer_1" xmlns="http://www.w3.org/2000/svg" xmlns:xlink="http://www.w3.org/1999/xlink" x="0px" y="0px"
	 width="32px" height="32px" viewBox="0 0 32 32" enable-background="new 0 0 32 32" xml:space="preserve">
<path d="M31,2H1C0.4,2,0,2.4,0,3v26c0,0.6,0.4,1,1,1h30c0.6,0,1-0.4,1-1V3C32,2.4,31.6,2,31,2z M30,9.7l-4.1,5.8l-1.1-1.1
	c0.2-0.4,0.2-0.9,0.2-1.3c0-1.9-1.3-3.4-3-3.9V4h8V9.7z M21,15c-1.1,0-2-0.9-2-2s0.9-2,2-2s2,0.9,2,2c0,0.4-0.1,0.7-0.3,1
	c0,0.1-0.1,0.1-0.1,0.2C22.2,14.7,21.7,15,21,15z M20,4v5.1c-1.7,0.4-3,2-3,3.9c0,0.3,0,0.6,0.1,0.9l-2.1,1.7l-3.4-3.4
	c-0.2-0.2-0.6-0.3-0.9-0.3c-0.3,0.1-0.6,0.3-0.7,0.5l-2.4,4.8l-2-2C5.5,15.1,5.3,15,5,15c-0.3,0-0.5,0.1-0.7,0.3L2,17.6V4H20z
	 M2,20.5l3-3.1l2.3,2.3C7.5,19.9,7.8,20,8.2,20c0.3-0.1,0.6-0.3,0.7-0.5l2.4-4.8l3,3c0.4,0.4,1,0.4,1.3,0.1l2.4-2
	c0.5,0.5,1.2,0.9,1.9,1.1V28H2V20.5z M22,28V16.9c0.6-0.2,1.1-0.4,1.6-0.8l1.7,1.7c0.2,0.2,0.4,0.3,0.7,0.3c0,0,0.1,0,0.1,0
	c0.3,0,0.6-0.2,0.7-0.4l3.2-4.5V28H22z"/>
</svg>
