<?xml version="1.0" encoding="utf-8"?>
<!-- Generator: Adobe Illustrator 18.1.1, SVG Export Plug-In . SVG Version: 6.00 Build 0)  -->
<!DOCTYPE svg PUBLIC "-//W3C//DTD SVG 1.1//EN" "http://www.w3.org/Graphics/SVG/1.1/DTD/svg11.dtd">
<svg version="1.1" id="Layer_1" xmlns="http://www.w3.org/2000/svg" xmlns:xlink="http://www.w3.org/1999/xlink" x="0px" y="0px"
	 width="32px" height="32px" viewBox="0 0 32 32" enable-background="new 0 0 32 32" xml:space="preserve">
<path d="M1,5v20c0,2.8,2.2,5,5,5h22c0.6,0,1-0.4,1-1v-7h1c0.6,0,1-0.4,1-1v-6c0-0.6-0.4-1-1-1h-1V7c0-0.6-0.4-1-1-1h-4V3
	c0-0.6-0.4-1-1-1H4C2.3,2,1,3.3,1,5z M29,20h-6c-1.1,0-2-0.9-2-2s0.9-2,2-2h6V20z M27,14h-4c-2.2,0-4,1.8-4,4s1.8,4,4,4h4v6H6
	c-1.7,0-3-1.3-3-3V7.8c0.1,0,0.2,0,0.3,0.1c0.1,0,0.1,0,0.2,0C3.6,8,3.8,8,4,8h23V14z M4,4h18v2H4C3.4,6,3,5.6,3,5S3.4,4,4,4z"/>
<path d="M26,17h-1c-0.6,0-1,0.4-1,1s0.4,1,1,1h1c0.6,0,1-0.4,1-1S26.6,17,26,17z"/>
</svg>
