<?xml version="1.0" encoding="utf-8"?>
<!-- Generator: Adobe Illustrator 18.1.1, SVG Export Plug-In . SVG Version: 6.00 Build 0)  -->
<!DOCTYPE svg PUBLIC "-//W3C//DTD SVG 1.1//EN" "http://www.w3.org/Graphics/SVG/1.1/DTD/svg11.dtd">
<svg version="1.1" id="Layer_1" xmlns="http://www.w3.org/2000/svg" xmlns:xlink="http://www.w3.org/1999/xlink" x="0px" y="0px"
	 width="32px" height="32px" viewBox="0 0 32 32" enable-background="new 0 0 32 32" xml:space="preserve">
<path d="M30.7,14.3L25.4,9l2.3-2.3c0.4-0.4,0.4-1,0-1.4l-4-4c-0.4-0.4-1-0.4-1.4,0l-9,9c-0.4,0.4-0.4,1,0,1.4l4,4
	c0.2,0.2,0.5,0.3,0.7,0.3s0.5-0.1,0.7-0.3l2.3-2.3l5.3,5.3c0.2,0.2,0.5,0.3,0.7,0.3s0.5-0.1,0.7-0.3l3-3
	C31.1,15.3,31.1,14.7,30.7,14.3z M18,13.6L15.4,11L23,3.4L25.6,6L18,13.6z M27,16.6L22.4,12l1.6-1.6l4.6,4.6L27,16.6z"/>
<path d="M3,17c0,0.6,0.4,1,1,1h4c0.6,0,1-0.4,1-1s-0.4-1-1-1H4C3.4,16,3,16.4,3,17z"/>
<path d="M9.5,14.5c0.3,0,0.5-0.1,0.7-0.3c0.4-0.4,0.4-1,0-1.4L7.3,9.9c-0.4-0.4-1-0.4-1.4,0s-0.4,1,0,1.4l2.8,2.8
	C9,14.4,9.2,14.5,9.5,14.5z"/>
<path d="M30,27c0.6,0,1-0.4,1-1v-5c0-0.6-0.4-1-1-1H11H2c-0.3,0-0.6,0.1-0.8,0.4C1,20.6,1,20.9,1,21.2c0,0.2,1.2,5.3,9,5.8v4
	c0,0.6,0.4,1,1,1h14c0.6,0,1-0.4,1-1C26,28.8,27.8,27,30,27z M3.6,22H10v3C6.1,24.7,4.3,23.1,3.6,22z M24.1,30H12v-8h17v3.1
	C26.5,25.5,24.5,27.5,24.1,30z"/>
</svg>
