<?xml version="1.0" encoding="utf-8"?>
<!-- Generator: Adobe Illustrator 18.1.1, SVG Export Plug-In . SVG Version: 6.00 Build 0)  -->
<!DOCTYPE svg PUBLIC "-//W3C//DTD SVG 1.1//EN" "http://www.w3.org/Graphics/SVG/1.1/DTD/svg11.dtd">
<svg version="1.1" id="Layer_1" xmlns="http://www.w3.org/2000/svg" xmlns:xlink="http://www.w3.org/1999/xlink" x="0px" y="0px"
	 width="32px" height="32px" viewBox="0 0 32 32" enable-background="new 0 0 32 32" xml:space="preserve">
<path d="M16,0C7.2,0,0,7.2,0,16s7.2,16,16,16s16-7.2,16-16S24.8,0,16,0z M16,30C8.3,30,2,23.7,2,16S8.3,2,16,2s14,6.3,14,14
	S23.7,30,16,30z"/>
<path d="M19,12.5c0,0.6,0.4,1,1,1s1-0.4,1-1c0-2.4-1.8-4.3-4-4.5V7c0-0.6-0.4-1-1-1s-1,0.4-1,1v1c-2.2,0.2-4,2.1-4,4.5
	c0,2.8,2.1,3.7,4,4.3V22c-1.1-0.2-2-1.2-2-2.5c0-0.6-0.4-1-1-1s-1,0.4-1,1c0,2.4,1.8,4.3,4,4.5v1c0,0.6,0.4,1,1,1s1-0.4,1-1v-1
	c2.2-0.2,4-2.1,4-4.5c0-2.8-2.1-3.7-4-4.3V10C18.1,10.2,19,11.2,19,12.5z M13,12.5c0-1.3,0.9-2.3,2-2.5v4.6
	C13.6,14.2,13,13.7,13,12.5z M19,19.5c0,1.3-0.9,2.3-2,2.5v-4.6C18.4,17.8,19,18.3,19,19.5z"/>
</svg>
