<?xml version="1.0" encoding="utf-8"?>
<!-- Generator: Adobe Illustrator 19.1.0, SVG Export Plug-In . SVG Version: 6.00 Build 0)  -->
<!DOCTYPE svg PUBLIC "-//W3C//DTD SVG 1.1//EN" "http://www.w3.org/Graphics/SVG/1.1/DTD/svg11.dtd">
<svg version="1.1" id="Layer_1" xmlns="http://www.w3.org/2000/svg" xmlns:xlink="http://www.w3.org/1999/xlink" x="0px" y="0px"
	 width="24px" height="24px" viewBox="0 0 24 24" enable-background="new 0 0 24 24" xml:space="preserve">
<path d="M23,3H1C0.4,3,0,3.4,0,4v5c0,0.6,0.4,1,1,1c1.1,0,2,0.9,2,2s-0.9,2-2,2c-0.6,0-1,0.4-1,1v5c0,0.6,0.4,1,1,1h22
	c0.6,0,1-0.4,1-1v-5c0-0.6-0.4-1-1-1c-1.1,0-2-0.9-2-2s0.9-2,2-2c0.6,0,1-0.4,1-1V4C24,3.4,23.6,3,23,3z M22,8.1c-1.7,0.4-3,2-3,3.9
	s1.3,3.4,3,3.9V19H2v-3.1c1.7-0.4,3-2,3-3.9S3.7,8.6,2,8.1V5h20V8.1z"/>
<path d="M8,16h8c0.6,0,1-0.4,1-1V9c0-0.6-0.4-1-1-1H8C7.4,8,7,8.4,7,9v6C7,15.6,7.4,16,8,16z M9,10h6v4H9V10z"/>
</svg>
