<?xml version="1.0" encoding="utf-8"?>
<!-- Generator: Adobe Illustrator 19.1.0, SVG Export Plug-In . SVG Version: 6.00 Build 0)  -->
<!DOCTYPE svg PUBLIC "-//W3C//DTD SVG 1.1//EN" "http://www.w3.org/Graphics/SVG/1.1/DTD/svg11.dtd">
<svg version="1.1" id="Layer_1" xmlns="http://www.w3.org/2000/svg" xmlns:xlink="http://www.w3.org/1999/xlink" x="0px" y="0px"
	 width="24px" height="24px" viewBox="0 0 24 24" enable-background="new 0 0 24 24" xml:space="preserve">
<path d="M23,12h-2c-0.3,0-0.6,0.1-0.8,0.4l-1.8,2.4L15,3.7C14.8,3.3,14.4,3,14,3c0,0,0,0,0,0c-0.4,0-0.8,0.3-1,0.7L8.9,17l-3-7.4
	C5.8,9.3,5.5,9,5.1,9C4.7,9,4.4,9.1,4.2,9.4L2.5,12H1c-0.6,0-1,0.4-1,1s0.4,1,1,1h2c0.3,0,0.6-0.2,0.8-0.4l0.9-1.4l3.3,8.2
	C8.2,20.8,8.6,21,9,21c0,0,0,0,0,0c0.4,0,0.8-0.3,0.9-0.7l4-12.9l3.1,9.9c0.1,0.4,0.4,0.6,0.8,0.7c0.4,0.1,0.7-0.1,1-0.4l2.7-3.6H23
	c0.6,0,1-0.4,1-1S23.6,12,23,12z"/>
</svg>
