<?xml version="1.0" encoding="utf-8"?>
<!-- Generator: Adobe Illustrator 19.1.0, SVG Export Plug-In . SVG Version: 6.00 Build 0)  -->
<!DOCTYPE svg PUBLIC "-//W3C//DTD SVG 1.1//EN" "http://www.w3.org/Graphics/SVG/1.1/DTD/svg11.dtd">
<svg version="1.1" id="Layer_1" xmlns="http://www.w3.org/2000/svg" xmlns:xlink="http://www.w3.org/1999/xlink" x="0px" y="0px"
	 width="24px" height="24px" viewBox="0 0 24 24" enable-background="new 0 0 24 24" xml:space="preserve">
<path d="M16.5,1.1c-0.3-0.2-0.7-0.2-1,0L7.7,6H4c-2.2,0-4,1.8-4,4c0,1.6,1,3,2.3,3.6l3.5,7.7c0.4,1,1.4,1.5,2.4,1.5
	c0.4,0,0.7-0.1,1.1-0.2c1.3-0.6,1.9-2.1,1.3-3.4l-2.1-4.8l7.1,4.4c0.2,0.1,0.3,0.2,0.5,0.2c0.2,0,0.3,0,0.5-0.1
	c0.3-0.2,0.5-0.5,0.5-0.9V2C17,1.6,16.8,1.3,16.5,1.1z M4,8v4c-1.1,0-2-0.9-2-2S2.9,8,4,8z M8.4,20.9c-0.3,0.1-0.7,0-0.8-0.3L4.7,14
	H6l2.7,6.1C8.9,20.4,8.7,20.7,8.4,20.9z M15,16.2l-6.5-4C8.4,12.1,8.2,12,8,12H6.7c0,0-0.1,0-0.1,0H6V8h2c0.2,0,0.4-0.1,0.5-0.2
	l6.5-4V16.2z"/>
<path d="M23,9h-2c-0.6,0-1,0.4-1,1s0.4,1,1,1h2c0.6,0,1-0.4,1-1S23.6,9,23,9z"/>
<path d="M19.8,6.5c0.2,0,0.3,0,0.5-0.1l1.7-1c0.5-0.3,0.6-0.9,0.4-1.4c-0.3-0.5-0.9-0.6-1.4-0.4l-1.7,1c-0.5,0.3-0.6,0.9-0.4,1.4
	C19.1,6.3,19.4,6.5,19.8,6.5z"/>
<path d="M22,14.6l-1.7-1c-0.5-0.3-1.1-0.1-1.4,0.4s-0.1,1.1,0.4,1.4l1.7,1c0.2,0.1,0.3,0.1,0.5,0.1c0.3,0,0.7-0.2,0.9-0.5
	C22.7,15.5,22.5,14.9,22,14.6z"/>
</svg>
