<?xml version="1.0" encoding="utf-8"?>
<!-- Generator: Adobe Illustrator 19.1.0, SVG Export Plug-In . SVG Version: 6.00 Build 0)  -->
<!DOCTYPE svg PUBLIC "-//W3C//DTD SVG 1.1//EN" "http://www.w3.org/Graphics/SVG/1.1/DTD/svg11.dtd">
<svg version="1.1" id="Layer_1" xmlns="http://www.w3.org/2000/svg" xmlns:xlink="http://www.w3.org/1999/xlink" x="0px" y="0px"
	 width="24px" height="24px" viewBox="0 0 24 24" enable-background="new 0 0 24 24" xml:space="preserve">
<path d="M22.7,6L17,7.7V4c0-0.6-0.4-1-1-1H1C0.4,3,0,3.4,0,4v16c0,0.6,0.4,1,1,1h15c0.6,0,1-0.4,1-1v-3.7l5.7,1.6
	c0.3,0.1,0.6,0,0.9-0.2c0.3-0.2,0.4-0.5,0.4-0.8V7c0-0.3-0.1-0.6-0.4-0.8C23.4,6,23,6,22.7,6z M22,15.7L16.3,14
	c-0.3-0.1-0.6,0-0.9,0.2C15.1,14.4,15,14.7,15,15v4H2V5h13v4c0,0.3,0.1,0.6,0.4,0.8C15.6,10,16,10,16.3,10L22,8.3V15.7z"/>
<path d="M6,7H5C4.4,7,4,7.4,4,8s0.4,1,1,1h1c0.6,0,1-0.4,1-1S6.6,7,6,7z"/>
</svg>
