<?xml version="1.0" encoding="utf-8"?>
<!-- Generator: Adobe Illustrator 19.1.0, SVG Export Plug-In . SVG Version: 6.00 Build 0)  -->
<!DOCTYPE svg PUBLIC "-//W3C//DTD SVG 1.1//EN" "http://www.w3.org/Graphics/SVG/1.1/DTD/svg11.dtd">
<svg version="1.1" id="Layer_1" xmlns="http://www.w3.org/2000/svg" xmlns:xlink="http://www.w3.org/1999/xlink" x="0px" y="0px"
	 width="24px" height="24px" viewBox="0 0 24 24" enable-background="new 0 0 24 24" xml:space="preserve">
<path d="M12,24c3.1,0,6.1-1.2,8.5-3.5c4.7-4.7,4.7-12.3,0-17c-4.7-4.7-12.3-4.7-17,0c-4.7,4.7-4.7,12.3,0,17C5.9,22.8,8.9,24,12,24z
	 M4.9,4.9C6.9,3,9.4,2,12,2s5.1,1,7.1,2.9c3.9,3.9,3.9,10.2,0,14.1C15.2,23,8.8,23,4.9,19.1C1,15.2,1,8.8,4.9,4.9z"/>
<path d="M12,9c1.7,0,3-1.3,3-3s-1.3-3-3-3S9,4.3,9,6S10.3,9,12,9z M12,5c0.6,0,1,0.4,1,1s-0.4,1-1,1s-1-0.4-1-1S11.4,5,12,5z"/>
<path d="M18,15c1.7,0,3-1.3,3-3s-1.3-3-3-3s-3,1.3-3,3S16.3,15,18,15z M18,11c0.6,0,1,0.4,1,1s-0.4,1-1,1s-1-0.4-1-1S17.4,11,18,11z
	"/>
<path d="M12,15c-1.7,0-3,1.3-3,3s1.3,3,3,3s3-1.3,3-3S13.7,15,12,15z M12,19c-0.6,0-1-0.4-1-1s0.4-1,1-1s1,0.4,1,1S12.6,19,12,19z"
	/>
<path d="M9,12c0-1.7-1.3-3-3-3s-3,1.3-3,3s1.3,3,3,3S9,13.7,9,12z M5,12c0-0.6,0.4-1,1-1s1,0.4,1,1s-0.4,1-1,1S5,12.6,5,12z"/>
</svg>
