<?xml version="1.0" encoding="utf-8"?>
<!-- Generator: Adobe Illustrator 19.1.0, SVG Export Plug-In . SVG Version: 6.00 Build 0)  -->
<!DOCTYPE svg PUBLIC "-//W3C//DTD SVG 1.1//EN" "http://www.w3.org/Graphics/SVG/1.1/DTD/svg11.dtd">
<svg version="1.1" id="Layer_1" xmlns="http://www.w3.org/2000/svg" xmlns:xlink="http://www.w3.org/1999/xlink" x="0px" y="0px"
	 width="24px" height="24px" viewBox="0 0 24 24" enable-background="new 0 0 24 24" xml:space="preserve">
<path d="M15.8,0.4C15.6,0.1,15.3,0,15,0H8C7.5,0,7.2,0.3,7,0.7l-3,11C4,12,4,12.4,4.2,12.6C4.4,12.9,4.7,13,5,13h4.7L8,19.8
	c-0.1,0.5,0.1,0.9,0.5,1.1C8.7,21,8.8,21,9,21c0.3,0,0.6-0.1,0.8-0.4l10-12c0.2-0.3,0.3-0.7,0.1-1.1C19.7,7.2,19.4,7,19,7h-4.7
	L16,1.3C16,1,16,0.6,15.8,0.4z M16.9,9L11,16l0.9-3.8c0.1-0.3,0-0.6-0.2-0.9S11.3,11,11,11H6.3l2.5-9h4.9L12,7.7
	C12,8,12,8.4,12.2,8.6S12.7,9,13,9H16.9z"/>
</svg>
