<?xml version="1.0" encoding="utf-8"?>
<!-- Generator: Adobe Illustrator 19.1.0, SVG Export Plug-In . SVG Version: 6.00 Build 0)  -->
<!DOCTYPE svg PUBLIC "-//W3C//DTD SVG 1.1//EN" "http://www.w3.org/Graphics/SVG/1.1/DTD/svg11.dtd">
<svg version="1.1" id="Layer_1" xmlns="http://www.w3.org/2000/svg" xmlns:xlink="http://www.w3.org/1999/xlink" x="0px" y="0px"
	 width="24px" height="24px" viewBox="0 0 24 24" enable-background="new 0 0 24 24" xml:space="preserve">
<path d="M23,0H1C0.4,0,0,0.4,0,1v22c0,0.6,0.4,1,1,1h22c0.6,0,1-0.4,1-1V1C24,0.4,23.6,0,23,0z M22,22H2V2h20V22z"/>
<path d="M8.5,16.9C8.7,17,8.8,17,9,17c0.2,0,0.4-0.1,0.6-0.2l6-4c0.3-0.2,0.4-0.5,0.4-0.8s-0.2-0.6-0.4-0.8l-6-4
	c-0.3-0.2-0.7-0.2-1,0C8.2,7.3,8,7.6,8,8v8C8,16.4,8.2,16.7,8.5,16.9z M10,9.9l3.2,2.1L10,14.1V9.9z"/>
</svg>
