<?xml version="1.0" encoding="utf-8"?>
<!-- Generator: Adobe Illustrator 19.1.0, SVG Export Plug-In . SVG Version: 6.00 Build 0)  -->
<!DOCTYPE svg PUBLIC "-//W3C//DTD SVG 1.1//EN" "http://www.w3.org/Graphics/SVG/1.1/DTD/svg11.dtd">
<svg version="1.1" id="Layer_1" xmlns="http://www.w3.org/2000/svg" xmlns:xlink="http://www.w3.org/1999/xlink" x="0px" y="0px"
	 width="24px" height="24px" viewBox="0 0 24 24" enable-background="new 0 0 24 24" xml:space="preserve">
<path d="M14,1C9.1,1,5,4.5,4.1,9.3C1.7,10.1,0,12.4,0,15c0,3.3,2.7,6,6,6h8c5.5,0,10-4.5,10-10S19.5,1,14,1z M14,19H6
	c-2.2,0-4-1.8-4-4c0-1.9,1.4-3.6,3.2-3.9C5.7,11,6,10.6,6,10.2C6.5,6.1,9.9,3,14,3c4.4,0,8,3.6,8,8S18.4,19,14,19z"/>
<path d="M17,7h-6c-0.6,0-1,0.4-1,1v4.1C9.8,12,9.7,12,9.5,12C8.1,12,7,13.1,7,14.5S8.1,17,9.5,17s2.5-1.1,2.5-2.5c0-0.1,0-0.2,0-0.3
	c0-0.1,0-0.1,0-0.2V9h4v3.1c-0.2,0-0.3-0.1-0.5-0.1c-1.4,0-2.5,1.1-2.5,2.5s1.1,2.5,2.5,2.5s2.5-1.1,2.5-2.5c0-0.1,0-0.2,0-0.3
	c0-0.1,0-0.1,0-0.2V8C18,7.4,17.6,7,17,7z M9.5,15C9.2,15,9,14.8,9,14.5S9.2,14,9.5,14s0.5,0.2,0.5,0.5S9.8,15,9.5,15z M15.5,15
	c-0.3,0-0.5-0.2-0.5-0.5s0.2-0.5,0.5-0.5s0.5,0.2,0.5,0.5S15.8,15,15.5,15z"/>
</svg>
