<?xml version="1.0" encoding="utf-8"?>
<!-- Generator: Adobe Illustrator 19.1.0, SVG Export Plug-In . SVG Version: 6.00 Build 0)  -->
<!DOCTYPE svg PUBLIC "-//W3C//DTD SVG 1.1//EN" "http://www.w3.org/Graphics/SVG/1.1/DTD/svg11.dtd">
<svg version="1.1" id="Layer_1" xmlns="http://www.w3.org/2000/svg" xmlns:xlink="http://www.w3.org/1999/xlink" x="0px" y="0px"
	 width="24px" height="24px" viewBox="0 0 24 24" enable-background="new 0 0 24 24" xml:space="preserve">
<path d="M10,6H7C6.4,6,6,6.4,6,7v10c0,0.6,0.4,1,1,1h3c0.6,0,1-0.4,1-1V7C11,6.4,10.6,6,10,6z M9,16H8V8h1V16z"/>
<path d="M17,6h-3c-0.6,0-1,0.4-1,1v10c0,0.6,0.4,1,1,1h3c0.6,0,1-0.4,1-1V7C18,6.4,17.6,6,17,6z M16,16h-1V8h1V16z"/>
<path d="M12,0C5.4,0,0,5.4,0,12s5.4,12,12,12s12-5.4,12-12S18.6,0,12,0z M12,22C6.5,22,2,17.5,2,12S6.5,2,12,2s10,4.5,10,10
	S17.5,22,12,22z"/>
</svg>
