<?xml version="1.0" encoding="utf-8"?>
<!-- Generator: Adobe Illustrator 19.1.0, SVG Export Plug-In . SVG Version: 6.00 Build 0)  -->
<!DOCTYPE svg PUBLIC "-//W3C//DTD SVG 1.1//EN" "http://www.w3.org/Graphics/SVG/1.1/DTD/svg11.dtd">
<svg version="1.1" id="Layer_1" xmlns="http://www.w3.org/2000/svg" xmlns:xlink="http://www.w3.org/1999/xlink" x="0px" y="0px"
	 width="24px" height="24px" viewBox="0 0 24 24" enable-background="new 0 0 24 24" xml:space="preserve">
<path d="M7,13c1.7,0,3-1.3,3-3S8.7,7,7,7s-3,1.3-3,3S5.3,13,7,13z M7,9c0.6,0,1,0.4,1,1s-0.4,1-1,1s-1-0.4-1-1S6.4,9,7,9z"/>
<path d="M17,13c1.7,0,3-1.3,3-3s-1.3-3-3-3s-3,1.3-3,3S15.3,13,17,13z M17,9c0.6,0,1,0.4,1,1s-0.4,1-1,1s-1-0.4-1-1S16.4,9,17,9z"/>
<path d="M23,3H1C0.4,3,0,3.4,0,4v16c0,0.6,0.4,1,1,1h22c0.6,0,1-0.4,1-1V4C24,3.4,23.6,3,23,3z M6.6,19l1-2h8.8l1,2H6.6z M22,19
	h-2.4l-1.7-3.4C17.7,15.2,17.4,15,17,15H7c-0.4,0-0.7,0.2-0.9,0.6L4.4,19H2V5h20V19z"/>
</svg>
