<?xml version="1.0" encoding="utf-8"?>
<!-- Generator: Adobe Illustrator 19.1.0, SVG Export Plug-In . SVG Version: 6.00 Build 0)  -->
<!DOCTYPE svg PUBLIC "-//W3C//DTD SVG 1.1//EN" "http://www.w3.org/Graphics/SVG/1.1/DTD/svg11.dtd">
<svg version="1.1" id="Layer_1" xmlns="http://www.w3.org/2000/svg" xmlns:xlink="http://www.w3.org/1999/xlink" x="0px" y="0px"
	 width="24px" height="24px" viewBox="0 0 24 24" enable-background="new 0 0 24 24" xml:space="preserve">
<path d="M20,3H4C3.4,3,3,3.4,3,4v16c0,0.6,0.4,1,1,1h16c0.6,0,1-0.4,1-1V4C21,3.4,20.6,3,20,3z M19,19H5V5h14V19z"/>
<path d="M1,6C0.4,6,0,6.4,0,7v10c0,0.6,0.4,1,1,1s1-0.4,1-1V7C2,6.4,1.6,6,1,6z"/>
<path d="M23,6c-0.6,0-1,0.4-1,1v10c0,0.6,0.4,1,1,1s1-0.4,1-1V7C24,6.4,23.6,6,23,6z"/>
<path d="M8.5,17c1.4,0,2.5-1.1,2.5-2.5c0-0.1,0-0.2,0-0.3c0-0.1,0-0.1,0-0.2V9h4v3.1c-0.2,0-0.3-0.1-0.5-0.1c-1.4,0-2.5,1.1-2.5,2.5
	s1.1,2.5,2.5,2.5s2.5-1.1,2.5-2.5c0-0.1,0-0.2,0-0.3c0-0.1,0-0.1,0-0.2V8c0-0.6-0.4-1-1-1h-6C9.4,7,9,7.4,9,8v4.1
	C8.8,12,8.7,12,8.5,12C7.1,12,6,13.1,6,14.5S7.1,17,8.5,17z M14.5,15c-0.3,0-0.5-0.2-0.5-0.5s0.2-0.5,0.5-0.5s0.5,0.2,0.5,0.5
	S14.8,15,14.5,15z M8.5,14C8.8,14,9,14.2,9,14.5S8.8,15,8.5,15S8,14.8,8,14.5S8.2,14,8.5,14z"/>
</svg>
