<?xml version="1.0" encoding="utf-8"?>
<!-- Generator: Adobe Illustrator 19.1.0, SVG Export Plug-In . SVG Version: 6.00 Build 0)  -->
<!DOCTYPE svg PUBLIC "-//W3C//DTD SVG 1.1//EN" "http://www.w3.org/Graphics/SVG/1.1/DTD/svg11.dtd">
<svg version="1.1" id="Layer_1" xmlns="http://www.w3.org/2000/svg" xmlns:xlink="http://www.w3.org/1999/xlink" x="0px" y="0px"
	 width="24px" height="24px" viewBox="0 0 24 24" enable-background="new 0 0 24 24" xml:space="preserve">
<path d="M15.4,1.1c-0.3-0.2-0.7-0.1-1,0.1L6.7,7H1C0.4,7,0,7.4,0,8v8c0,0.6,0.4,1,1,1h5.7l7.7,5.8c0.2,0.1,0.4,0.2,0.6,0.2
	c0.2,0,0.3,0,0.4-0.1c0.3-0.2,0.6-0.5,0.6-0.9V2C16,1.6,15.8,1.3,15.4,1.1z M14,20l-6.4-4.8C7.4,15.1,7.2,15,7,15H2V9h5
	c0.2,0,0.4-0.1,0.6-0.2L14,4V20z"/>
<path d="M23,11h-4c-0.6,0-1,0.4-1,1s0.4,1,1,1h4c0.6,0,1-0.4,1-1S23.6,11,23,11z"/>
</svg>
