<?xml version="1.0" encoding="utf-8"?>
<!-- Generator: Adobe Illustrator 19.1.0, SVG Export Plug-In . SVG Version: 6.00 Build 0)  -->
<!DOCTYPE svg PUBLIC "-//W3C//DTD SVG 1.1//EN" "http://www.w3.org/Graphics/SVG/1.1/DTD/svg11.dtd">
<svg version="1.1" id="Layer_1" xmlns="http://www.w3.org/2000/svg" xmlns:xlink="http://www.w3.org/1999/xlink" x="0px" y="0px"
	 width="24px" height="24px" viewBox="0 0 24 24" enable-background="new 0 0 24 24" xml:space="preserve">
<path d="M23,0H1C0.4,0,0,0.4,0,1v22c0,0.6,0.4,1,1,1h22c0.6,0,1-0.4,1-1V1C24,0.4,23.6,0,23,0z M22,22H2V2h20V22z"/>
<path d="M4,20h16c0.4,0,0.7-0.2,0.9-0.5s0.2-0.7,0-1l-5-8c-0.2-0.3-0.5-0.4-0.8-0.5c-0.3,0-0.6,0.1-0.8,0.4l-3.3,4.1l-2.2-2.2
	C8.5,12.1,8.2,12,7.9,12c-0.3,0-0.6,0.2-0.7,0.4l-4,6c-0.2,0.3-0.2,0.7,0,1C3.3,19.8,3.6,20,4,20z M8.2,14.6l2.1,2.1
	c0.2,0.2,0.5,0.3,0.8,0.3c0.3,0,0.5-0.2,0.7-0.4l3.1-3.9l3.3,5.3H5.9L8.2,14.6z"/>
<path d="M10,10c1.7,0,3-1.3,3-3s-1.3-3-3-3S7,5.3,7,7S8.3,10,10,10z M10,6c0.6,0,1,0.4,1,1s-0.4,1-1,1S9,7.6,9,7S9.4,6,10,6z"/>
</svg>
