<?xml version="1.0" encoding="utf-8"?>
<!-- Generator: Adobe Illustrator 19.1.0, SVG Export Plug-In . SVG Version: 6.00 Build 0)  -->
<!DOCTYPE svg PUBLIC "-//W3C//DTD SVG 1.1//EN" "http://www.w3.org/Graphics/SVG/1.1/DTD/svg11.dtd">
<svg version="1.1" id="Layer_1" xmlns="http://www.w3.org/2000/svg" xmlns:xlink="http://www.w3.org/1999/xlink" x="0px" y="0px"
	 width="24px" height="24px" viewBox="0 0 24 24" enable-background="new 0 0 24 24" xml:space="preserve">
<path d="M4,6h1c0.6,0,1-0.4,1-1S5.6,4,5,4H4C3.4,4,3,4.4,3,5S3.4,6,4,6z"/>
<path d="M19,0H5C2.2,0,0,2.2,0,5v14c0,2.8,2.2,5,5,5h14c2.8,0,5-2.2,5-5V5C24,2.2,21.8,0,19,0z M22,5v9h-7v-2c1.2-0.9,2-2.3,2-4
	s-0.8-3.1-2-4V2h4C20.7,2,22,3.3,22,5z M11,14v-1.1c0.3,0.1,0.7,0.1,1,0.1s0.7,0,1-0.1V14H11z M12,3c-0.3,0-0.7,0-1,0.1V2h2v1.1
	C12.7,3,12.3,3,12,3z M12,5c1.7,0,3,1.3,3,3s-1.3,3-3,3S9,9.7,9,8S10.3,5,12,5z M5,2h4v2C7.8,4.9,7,6.4,7,8s0.8,3.1,2,4v2H2V5
	C2,3.3,3.3,2,5,2z M19,22H5c-1.7,0-3-1.3-3-3v-3h20v3C22,20.7,20.7,22,19,22z"/>
<path d="M17,18H7c-0.6,0-1,0.4-1,1s0.4,1,1,1h10c0.6,0,1-0.4,1-1S17.6,18,17,18z"/>
</svg>
