<?xml version="1.0" encoding="utf-8"?>
<!-- Generator: Adobe Illustrator 19.1.0, SVG Export Plug-In . SVG Version: 6.00 Build 0)  -->
<!DOCTYPE svg PUBLIC "-//W3C//DTD SVG 1.1//EN" "http://www.w3.org/Graphics/SVG/1.1/DTD/svg11.dtd">
<svg version="1.1" id="Layer_1" xmlns="http://www.w3.org/2000/svg" xmlns:xlink="http://www.w3.org/1999/xlink" x="0px" y="0px"
	 width="24px" height="24px" viewBox="0 0 24 24" enable-background="new 0 0 24 24" xml:space="preserve">
<path d="M23.6,10.2c-0.3-0.2-0.6-0.2-0.9-0.1L17,12.5V10c0-0.6-0.4-1-1-1H1c-0.6,0-1,0.4-1,1v12c0,0.6,0.4,1,1,1h15c0.6,0,1-0.4,1-1
	v-2.5l5.6,2.4C22.7,22,22.9,22,23,22c0.2,0,0.4-0.1,0.6-0.2c0.3-0.2,0.4-0.5,0.4-0.8V11C24,10.7,23.8,10.4,23.6,10.2z M15,21H2V11
	h13v3v4V21z M22,19.5l-5-2.1v-2.7l5-2.1V19.5z"/>
<path d="M4,8c2.2,0,4-1.8,4-4S6.2,0,4,0S0,1.8,0,4S1.8,8,4,8z M4,2c1.1,0,2,0.9,2,2S5.1,6,4,6S2,5.1,2,4S2.9,2,4,2z"/>
<path d="M9,5c0,1.7,1.3,3,3,3s3-1.3,3-3s-1.3-3-3-3S9,3.3,9,5z M13,5c0,0.6-0.4,1-1,1s-1-0.4-1-1s0.4-1,1-1S13,4.4,13,5z"/>
</svg>
