<?xml version="1.0" encoding="utf-8"?>
<!-- Generator: Adobe Illustrator 19.1.0, SVG Export Plug-In . SVG Version: 6.00 Build 0)  -->
<!DOCTYPE svg PUBLIC "-//W3C//DTD SVG 1.1//EN" "http://www.w3.org/Graphics/SVG/1.1/DTD/svg11.dtd">
<svg version="1.1" id="Layer_1" xmlns="http://www.w3.org/2000/svg" xmlns:xlink="http://www.w3.org/1999/xlink" x="0px" y="0px"
	 width="24px" height="24px" viewBox="0 0 24 24" enable-background="new 0 0 24 24" xml:space="preserve">
<path d="M1,24c0.6,0,1-0.4,1-1V1c0-0.6-0.4-1-1-1S0,0.4,0,1v22C0,23.6,0.4,24,1,24z"/>
<path d="M23,0c-0.6,0-1,0.4-1,1v22c0,0.6,0.4,1,1,1s1-0.4,1-1V1C24,0.4,23.6,0,23,0z"/>
<path d="M7,11h10c0.6,0,1-0.4,1-1V1c0-0.6-0.4-1-1-1H7C6.4,0,6,0.4,6,1v9C6,10.6,6.4,11,7,11z M8,2h8v7H8V2z"/>
<path d="M6,23c0,0.6,0.4,1,1,1h10c0.6,0,1-0.4,1-1v-9c0-0.6-0.4-1-1-1H7c-0.6,0-1,0.4-1,1V23z M8,15h8v7H8V15z"/>
<path d="M4,4c0.6,0,1-0.4,1-1V2c0-0.6-0.4-1-1-1S3,1.4,3,2v1C3,3.6,3.4,4,4,4z"/>
<path d="M3,9c0,0.6,0.4,1,1,1s1-0.4,1-1V8c0-0.6-0.4-1-1-1S3,7.4,3,8V9z"/>
<path d="M3,15c0,0.6,0.4,1,1,1s1-0.4,1-1v-1c0-0.6-0.4-1-1-1s-1,0.4-1,1V15z"/>
<path d="M3,21c0,0.6,0.4,1,1,1s1-0.4,1-1v-1c0-0.6-0.4-1-1-1s-1,0.4-1,1V21z"/>
<path d="M20,4c0.6,0,1-0.4,1-1V2c0-0.6-0.4-1-1-1s-1,0.4-1,1v1C19,3.6,19.4,4,20,4z"/>
<path d="M19,9c0,0.6,0.4,1,1,1s1-0.4,1-1V8c0-0.6-0.4-1-1-1s-1,0.4-1,1V9z"/>
<path d="M19,15c0,0.6,0.4,1,1,1s1-0.4,1-1v-1c0-0.6-0.4-1-1-1s-1,0.4-1,1V15z"/>
<path d="M19,21c0,0.6,0.4,1,1,1s1-0.4,1-1v-1c0-0.6-0.4-1-1-1s-1,0.4-1,1V21z"/>
</svg>
