<?xml version="1.0" encoding="utf-8"?>
<!-- Generator: Adobe Illustrator 19.1.0, SVG Export Plug-In . SVG Version: 6.00 Build 0)  -->
<!DOCTYPE svg PUBLIC "-//W3C//DTD SVG 1.1//EN" "http://www.w3.org/Graphics/SVG/1.1/DTD/svg11.dtd">
<svg version="1.1" id="Layer_1" xmlns="http://www.w3.org/2000/svg" xmlns:xlink="http://www.w3.org/1999/xlink" x="0px" y="0px"
	 width="24px" height="24px" viewBox="0 0 24 24" enable-background="new 0 0 24 24" xml:space="preserve">
<path d="M12,0C5.4,0,0,5.4,0,12s5.4,12,12,12s12-5.4,12-12S18.6,0,12,0z M13,21.9V19c0-0.6-0.4-1-1-1s-1,0.4-1,1v2.9
	c-4.7-0.5-8.5-4.2-8.9-8.9H5c0.6,0,1-0.4,1-1s-0.4-1-1-1H2.1C2.5,6.3,6.3,2.5,11,2.1V5c0,0.6,0.4,1,1,1s1-0.4,1-1V2.1
	c4.7,0.5,8.5,4.2,8.9,8.9H19c-0.6,0-1,0.4-1,1s0.4,1,1,1h2.9C21.5,17.7,17.7,21.5,13,21.9z"/>
<path d="M12,9c-1.7,0-3,1.3-3,3s1.3,3,3,3s3-1.3,3-3S13.7,9,12,9z M12,13c-0.6,0-1-0.4-1-1s0.4-1,1-1s1,0.4,1,1S12.6,13,12,13z"/>
</svg>
