<?xml version="1.0" encoding="utf-8"?>
<!-- Generator: Adobe Illustrator 19.1.0, SVG Export Plug-In . SVG Version: 6.00 Build 0)  -->
<!DOCTYPE svg PUBLIC "-//W3C//DTD SVG 1.1//EN" "http://www.w3.org/Graphics/SVG/1.1/DTD/svg11.dtd">
<svg version="1.1" id="Layer_1" xmlns="http://www.w3.org/2000/svg" xmlns:xlink="http://www.w3.org/1999/xlink" x="0px" y="0px"
	 width="24px" height="24px" viewBox="0 0 24 24" enable-background="new 0 0 24 24" xml:space="preserve">
<path d="M19,0c-2.8,0-5,2.2-5,5c0,1,0.3,2,0.8,2.8L14,8.6l-3.3-3.3C10.5,5,10.1,4.9,9.8,5l-4,1C5.2,6.2,4.9,6.7,5,7.2
	C5.2,7.8,5.7,8.1,6.2,8l3.5-0.9l2.9,2.9l-0.3,0.3c0,0,0,0,0,0s0,0,0,0l-4,4c0,0,0,0,0,0s0,0,0,0l-7,7c-0.4,0.4-0.4,1,0,1.4
	C1.5,22.9,1.7,23,2,23s0.5-0.1,0.7-0.3L9,16.4l3.2,3.2l-3.6,1.4c-0.5,0.2-0.8,0.8-0.6,1.3C8.2,22.8,8.6,23,9,23c0.1,0,0.2,0,0.4-0.1
	l5-2c0.3-0.1,0.5-0.4,0.6-0.7c0.1-0.3,0-0.7-0.3-0.9L10.4,15l2.6-2.6l3.3,3.3c0.2,0.2,0.5,0.3,0.7,0.3s0.5-0.1,0.7-0.3l3-3
	c0.4-0.4,0.4-1,0-1.4s-1-0.4-1.4,0L17,13.6L14.4,11l1.8-1.8C17,9.7,18,10,19,10c2.8,0,5-2.2,5-5S21.8,0,19,0z M19,8
	c-0.8,0-1.6-0.3-2.1-0.9c0,0,0,0,0,0c0,0,0,0,0,0C16.3,6.6,16,5.8,16,5c0-1.7,1.3-3,3-3s3,1.3,3,3S20.7,8,19,8z"/>
</svg>
