<?xml version="1.0" encoding="utf-8"?>
<!-- Generator: Adobe Illustrator 19.1.0, SVG Export Plug-In . SVG Version: 6.00 Build 0)  -->
<!DOCTYPE svg PUBLIC "-//W3C//DTD SVG 1.1//EN" "http://www.w3.org/Graphics/SVG/1.1/DTD/svg11.dtd">
<svg version="1.1" id="Layer_1" xmlns="http://www.w3.org/2000/svg" xmlns:xlink="http://www.w3.org/1999/xlink" x="0px" y="0px"
	 width="24px" height="24px" viewBox="0 0 24 24" enable-background="new 0 0 24 24" xml:space="preserve">
<path d="M23,0H1C0.4,0,0,0.4,0,1v22c0,0.6,0.4,1,1,1h22c0.6,0,1-0.4,1-1V1C24,0.4,23.6,0,23,0z M22,22H2V2h20V22z"/>
<path d="M4,21h16c0.6,0,1-0.4,1-1V4c0-0.6-0.4-1-1-1H4C3.4,3,3,3.4,3,4v16C3,20.6,3.4,21,4,21z M5,19v-1.6l2.2-2.2l4.3,2.6
	C11.6,18,11.8,18,12,18c0.3,0,0.5-0.1,0.7-0.3l4.4-4.4l1.9,1.4V19H5z M19,5v7.2l-1.4-1c-0.4-0.3-0.9-0.2-1.3,0.1l-4.4,4.4l-4.3-2.6
	c-0.4-0.2-0.9-0.2-1.2,0.2L5,14.6V5H19z"/>
<path d="M11,13c1.7,0,3-1.3,3-3s-1.3-3-3-3s-3,1.3-3,3S9.3,13,11,13z M11,9c0.6,0,1,0.4,1,1s-0.4,1-1,1s-1-0.4-1-1S10.4,9,11,9z"/>
</svg>
