<?xml version="1.0" encoding="utf-8"?>
<!-- Generator: Adobe Illustrator 19.1.0, SVG Export Plug-In . SVG Version: 6.00 Build 0)  -->
<!DOCTYPE svg PUBLIC "-//W3C//DTD SVG 1.1//EN" "http://www.w3.org/Graphics/SVG/1.1/DTD/svg11.dtd">
<svg version="1.1" id="Layer_1" xmlns="http://www.w3.org/2000/svg" xmlns:xlink="http://www.w3.org/1999/xlink" x="0px" y="0px"
	 width="24px" height="24px" viewBox="0 0 24 24" enable-background="new 0 0 24 24" xml:space="preserve">
<path d="M9.6,19.9C9.7,20,9.8,20,10,20c0.2,0,0.4-0.1,0.6-0.2l4-3c0.3-0.2,0.4-0.5,0.4-0.8s-0.1-0.6-0.4-0.8l-4-3
	c-0.3-0.2-0.7-0.3-1-0.1C9.2,12.3,9,12.6,9,13v6C9,19.4,9.2,19.7,9.6,19.9z M11,15l1.3,1L11,17V15z"/>
<path d="M22.2,4.9L21.5,1c-0.1-0.3-0.2-0.5-0.4-0.6c-0.2-0.1-0.5-0.2-0.8-0.1L1,4.1C0.5,4.2,0.1,4.7,0.2,5.3L1,9.1V23
	c0,0.6,0.4,1,1,1h20c0.6,0,1-0.4,1-1V9c0-0.6-0.4-1-1-1H11.9l9.6-2C22,5.9,22.3,5.4,22.2,4.9z M12.6,5.8l1.1-2.3l2.4-0.5L15,5.3
	L12.6,5.8z M7.7,6.8l1.1-2.3l2.4-0.5l-1.1,2.3L7.7,6.8z M6.3,5.1L5.2,7.3L2.8,7.8l-0.4-2L6.3,5.1z M21,22H3V10h18V22z M17.5,4.8
	l1.1-2.3l1.2-0.2l0.4,2L17.5,4.8z"/>
</svg>
