<?xml version="1.0" encoding="utf-8"?>
<!-- Generator: Adobe Illustrator 19.1.0, SVG Export Plug-In . SVG Version: 6.00 Build 0)  -->
<!DOCTYPE svg PUBLIC "-//W3C//DTD SVG 1.1//EN" "http://www.w3.org/Graphics/SVG/1.1/DTD/svg11.dtd">
<svg version="1.1" id="Layer_1" xmlns="http://www.w3.org/2000/svg" xmlns:xlink="http://www.w3.org/1999/xlink" x="0px" y="0px"
	 width="24px" height="24px" viewBox="0 0 24 24" enable-background="new 0 0 24 24" xml:space="preserve">
<path d="M23.9,1.6c0-0.1-0.1-0.1-0.1-0.2c0,0,0-0.1-0.1-0.1c0,0,0,0,0,0c-0.1-0.1-0.1-0.1-0.2-0.1c0,0-0.1-0.1-0.1-0.1
	c-0.1,0-0.1,0-0.2,0c-0.1,0-0.1,0-0.2,0c0,0,0,0,0,0H1C0.4,1,0,1.4,0,2v20c0,0.1,0,0.1,0,0.1c0,0.1,0,0.1,0,0.2
	c0,0.1,0.1,0.1,0.1,0.2c0,0,0,0.1,0.1,0.1c0,0,0,0,0,0c0.1,0.1,0.2,0.1,0.3,0.2c0,0,0,0,0.1,0C0.7,23,0.9,23,1,23h22
	c0.6,0,1-0.4,1-1V2c0-0.1,0-0.1,0-0.1C24,1.8,24,1.7,23.9,1.6z M20.4,3L2,19.7V3H20.4z M3.6,21L22,4.3V21H3.6z"/>
<path d="M4,8h1v1c0,0.6,0.4,1,1,1s1-0.4,1-1V8h1c0.6,0,1-0.4,1-1S8.6,6,8,6H7V5c0-0.6-0.4-1-1-1S5,4.4,5,5v1H4C3.4,6,3,6.4,3,7
	S3.4,8,4,8z"/>
<path d="M20,16h-4c-0.6,0-1,0.4-1,1s0.4,1,1,1h4c0.6,0,1-0.4,1-1S20.6,16,20,16z"/>
</svg>
