<?xml version="1.0" encoding="utf-8"?>
<!-- Generator: Adobe Illustrator 19.1.0, SVG Export Plug-In . SVG Version: 6.00 Build 0)  -->
<!DOCTYPE svg PUBLIC "-//W3C//DTD SVG 1.1//EN" "http://www.w3.org/Graphics/SVG/1.1/DTD/svg11.dtd">
<svg version="1.1" id="Layer_1" xmlns="http://www.w3.org/2000/svg" xmlns:xlink="http://www.w3.org/1999/xlink" x="0px" y="0px"
	 width="24px" height="24px" viewBox="0 0 24 24" enable-background="new 0 0 24 24" xml:space="preserve">
<path d="M20.4,0.7c-0.4-0.4-1-0.4-1.4,0l-2.8,2.8c-0.4,0.4-0.4,1,0,1.4l0.7,0.7l-1.5,1.5c-1.2-0.9-2.7-1.4-4.2-1.4
	c-1.9,0-3.6,0.7-4.9,2.1L5.6,8.5c-0.4,0.4-0.4,1,0,1.4c0.2,0.2,0.3,0.4,0.3,0.7c0,0.3-0.1,0.5-0.3,0.7c-0.4,0.4-1,0.4-1.4,0
	c-0.2-0.2-0.4-0.3-0.7-0.3s-0.5,0.1-0.7,0.3l-0.7,0.7C0.7,13.4,0,15.1,0,17s0.7,3.6,2.1,4.9S5.1,24,7,24s3.6-0.7,4.9-2l0.7-0.7
	c0.2-0.2,0.3-0.4,0.3-0.7c0-0.3-0.1-0.5-0.3-0.7c-0.4-0.4-0.4-1,0-1.4c0,0,0,0,0,0c0.2-0.2,0.4-0.3,0.7-0.3c0,0,0,0,0,0
	c0.3,0,0.5,0.1,0.7,0.3c0.4,0.4,1,0.4,1.4,0l0.7-0.7c2.5-2.5,2.7-6.4,0.7-9.1l1.5-1.5L19,7.8c0.2,0.2,0.4,0.3,0.7,0.3
	s0.5-0.1,0.7-0.3L23.3,5c0.2-0.2,0.3-0.4,0.3-0.7s-0.1-0.5-0.3-0.7L20.4,0.7z M14.8,16.3l-0.1,0.1c-0.4-0.2-0.8-0.3-1.3-0.3
	c0,0,0,0,0,0c-0.8,0-1.6,0.3-2.1,0.9c0,0,0,0,0,0c-0.6,0.6-0.9,1.3-0.9,2.1c0,0.5,0.1,0.9,0.3,1.3l-0.1,0.1C9.6,21.5,8.3,22,7,22
	s-2.6-0.5-3.5-1.5S2,18.3,2,17s0.5-2.6,1.5-3.5l0.1-0.1c1.1,0.5,2.5,0.3,3.4-0.6c0.9-0.9,1.1-2.3,0.6-3.4l0.1-0.1
	c0.9-0.9,2.2-1.5,3.5-1.5c1,0,1.9,0.3,2.8,0.8l-1.5,1.5c-0.7-0.2-1.4,0-1.9,0.5c0,0,0,0,0,0c-0.8,0.8-0.8,2,0,2.8
	c0.4,0.4,0.9,0.6,1.4,0.6c0.5,0,1-0.2,1.4-0.6c0.5-0.5,0.7-1.3,0.5-1.9l1.5-1.5C16.7,11.9,16.5,14.6,14.8,16.3z M19.7,5.7l-1.4-1.4
	l1.4-1.4l1.4,1.4L19.7,5.7z"/>
<path d="M6.3,16.3c-0.4-0.4-1-0.4-1.4,0s-0.4,1,0,1.4l1.4,1.4c0.2,0.2,0.5,0.3,0.7,0.3s0.5-0.1,0.7-0.3c0.4-0.4,0.4-1,0-1.4
	L6.3,16.3z"/>
</svg>
