<?xml version="1.0" encoding="utf-8"?>
<!-- Generator: Adobe Illustrator 19.1.0, SVG Export Plug-In . SVG Version: 6.00 Build 0)  -->
<!DOCTYPE svg PUBLIC "-//W3C//DTD SVG 1.1//EN" "http://www.w3.org/Graphics/SVG/1.1/DTD/svg11.dtd">
<svg version="1.1" id="Layer_1" xmlns="http://www.w3.org/2000/svg" xmlns:xlink="http://www.w3.org/1999/xlink" x="0px" y="0px"
	 width="24px" height="24px" viewBox="0 0 24 24" enable-background="new 0 0 24 24" xml:space="preserve">
<path d="M23,17V7V2c0-0.6-0.4-1-1-1H7C6.4,1,6,1.4,6,2v5v8.6C5.4,15.2,4.7,15,4,15c-2.2,0-4,1.8-4,4s1.8,4,4,4s4-1.8,4-4V8h13v5.6
	c-0.6-0.3-1.3-0.6-2-0.6c-2.2,0-4,1.8-4,4s1.8,4,4,4S23,19.2,23,17z M4,21c-1.1,0-2-0.9-2-2s0.9-2,2-2s2,0.9,2,2S5.1,21,4,21z M8,3
	h13v3H8V3z M17,17c0-1.1,0.9-2,2-2s2,0.9,2,2s-0.9,2-2,2S17,18.1,17,17z"/>
</svg>
