<?xml version="1.0" encoding="utf-8"?>
<!-- Generator: Adobe Illustrator 19.1.0, SVG Export Plug-In . SVG Version: 6.00 Build 0)  -->
<!DOCTYPE svg PUBLIC "-//W3C//DTD SVG 1.1//EN" "http://www.w3.org/Graphics/SVG/1.1/DTD/svg11.dtd">
<svg version="1.1" id="Layer_1" xmlns="http://www.w3.org/2000/svg" xmlns:xlink="http://www.w3.org/1999/xlink" x="0px" y="0px"
	 width="24px" height="24px" viewBox="0 0 24 24" enable-background="new 0 0 24 24" xml:space="preserve">
<path d="M23,0H1C0.4,0,0,0.4,0,1v22c0,0.6,0.4,1,1,1h22c0.6,0,1-0.4,1-1V1C24,0.4,23.6,0,23,0z M22,22H2V2h20V22z"/>
<path d="M8.5,13.9C8.7,14,8.8,14,9,14c0.2,0,0.4-0.1,0.6-0.2l6-4C15.8,9.6,16,9.3,16,9s-0.2-0.6-0.4-0.8l-6-4c-0.3-0.2-0.7-0.2-1,0
	C8.2,4.3,8,4.6,8,5v8C8,13.4,8.2,13.7,8.5,13.9z M10,6.9L13.2,9L10,11.1V6.9z"/>
<path d="M18,19h2c0.6,0,1-0.4,1-1s-0.4-1-1-1h-2c-0.6,0-1,0.4-1,1S17.4,19,18,19z"/>
<path d="M4,19h6.2c0.4,1.2,1.5,2,2.8,2c1.7,0,3-1.3,3-3s-1.3-3-3-3c-1.3,0-2.4,0.8-2.8,2H4c-0.6,0-1,0.4-1,1S3.4,19,4,19z M13,17
	c0.6,0,1,0.4,1,1s-0.4,1-1,1s-1-0.4-1-1S12.4,17,13,17z"/>
</svg>
