<?xml version="1.0" encoding="utf-8"?>
<!-- Generator: Adobe Illustrator 19.1.0, SVG Export Plug-In . SVG Version: 6.00 Build 0)  -->
<!DOCTYPE svg PUBLIC "-//W3C//DTD SVG 1.1//EN" "http://www.w3.org/Graphics/SVG/1.1/DTD/svg11.dtd">
<svg version="1.1" id="Layer_1" xmlns="http://www.w3.org/2000/svg" xmlns:xlink="http://www.w3.org/1999/xlink" x="0px" y="0px"
	 width="24px" height="24px" viewBox="0 0 24 24" enable-background="new 0 0 24 24" xml:space="preserve">
<path d="M23,0c-0.6,0-1,0.4-1,1v2h-2V1c0-0.6-0.4-1-1-1H5C4.4,0,4,0.4,4,1v2H2V1c0-0.6-0.4-1-1-1S0,0.4,0,1v22c0,0.6,0.4,1,1,1
	s1-0.4,1-1v-2h2v2c0,0.6,0.4,1,1,1h14c0.6,0,1-0.4,1-1v-2h2v2c0,0.6,0.4,1,1,1s1-0.4,1-1V1C24,0.4,23.6,0,23,0z M20,13h2v2h-2V13z
	 M20,9h2v2h-2V9z M22,5v2h-2V5H22z M6,2h12v9H6V2z M4,15H2v-2h2V15z M2,11V9h2v2H2z M4,5v2H2V5H4z M2,19v-2h2v2H2z M18,22H6v-9h12
	V22z M20,19v-2h2v2H20z"/>
</svg>
