<?xml version="1.0" encoding="utf-8"?>
<!-- Generator: Adobe Illustrator 19.1.0, SVG Export Plug-In . SVG Version: 6.00 Build 0)  -->
<!DOCTYPE svg PUBLIC "-//W3C//DTD SVG 1.1//EN" "http://www.w3.org/Graphics/SVG/1.1/DTD/svg11.dtd">
<svg version="1.1" id="Layer_1" xmlns="http://www.w3.org/2000/svg" xmlns:xlink="http://www.w3.org/1999/xlink" x="0px" y="0px"
	 width="24px" height="24px" viewBox="0 0 24 24" enable-background="new 0 0 24 24" xml:space="preserve">
<path d="M2,24h20c0.6,0,1-0.4,1-1V1c0-0.6-0.4-1-1-1H2C1.4,0,1,0.4,1,1v22C1,23.6,1.4,24,2,24z M3,2h18v20H3V2z"/>
<path d="M19,3H5C4.4,3,4,3.4,4,4v12c0,0.6,0.4,1,1,1h14c0.6,0,1-0.4,1-1V4C20,3.4,19.6,3,19,3z M18,5v4.6l-1.3-1.3
	c-0.4-0.4-1-0.4-1.4,0l-3.5,3.5l-3.4-1.7C8.1,9.9,7.6,10,7.3,10.3L6,11.6V5H18z M6,15v-0.6l2.2-2.2l3.4,1.7c0.4,0.2,0.9,0.1,1.2-0.2
	l3.3-3.3l2,2V15H6z"/>
<circle cx="11" cy="8" r="2"/>
</svg>
