<?xml version="1.0" encoding="utf-8"?>
<!-- Generator: Adobe Illustrator 19.1.0, SVG Export Plug-In . SVG Version: 6.00 Build 0)  -->
<!DOCTYPE svg PUBLIC "-//W3C//DTD SVG 1.1//EN" "http://www.w3.org/Graphics/SVG/1.1/DTD/svg11.dtd">
<svg version="1.1" id="Layer_1" xmlns="http://www.w3.org/2000/svg" xmlns:xlink="http://www.w3.org/1999/xlink" x="0px" y="0px"
	 width="24px" height="24px" viewBox="0 0 24 24" enable-background="new 0 0 24 24" xml:space="preserve">
<path d="M23,0H7C6.4,0,6,0.4,6,1v2H4C3.4,3,3,3.4,3,4v2H1C0.4,6,0,6.4,0,7v16c0,0.6,0.4,1,1,1h16c0.6,0,1-0.4,1-1v-2h2
	c0.6,0,1-0.4,1-1v-2h2c0.6,0,1-0.4,1-1V1C24,0.4,23.6,0,23,0z M16,22H2V8h14V22z M19,19h-1V7c0-0.6-0.4-1-1-1H5V5h14V19z M22,16h-1
	V4c0-0.6-0.4-1-1-1H8V2h14V16z"/>
</svg>
