<?xml version="1.0" encoding="utf-8"?>
<!-- Generator: Adobe Illustrator 19.1.0, SVG Export Plug-In . SVG Version: 6.00 Build 0)  -->
<!DOCTYPE svg PUBLIC "-//W3C//DTD SVG 1.1//EN" "http://www.w3.org/Graphics/SVG/1.1/DTD/svg11.dtd">
<svg version="1.1" id="Layer_1" xmlns="http://www.w3.org/2000/svg" xmlns:xlink="http://www.w3.org/1999/xlink" x="0px" y="0px"
	 width="24px" height="24px" viewBox="0 0 24 24" enable-background="new 0 0 24 24" xml:space="preserve">
<path d="M15,13c0.6,0,1-0.4,1-1V6h3c0.6,0,1-0.4,1-1V1c0-0.6-0.4-1-1-1H5C4.4,0,4,0.4,4,1v4c0,0.6,0.4,1,1,1h3v6c0,0.6,0.4,1,1,1h2
	v2.6l-5.7,5.7c-0.4,0.4-0.4,1,0,1.4s1,0.4,1.4,0l4.3-4.3V21c0,0.6,0.4,1,1,1s1-0.4,1-1v-2.6l4.3,4.3c0.2,0.2,0.5,0.3,0.7,0.3
	s0.5-0.1,0.7-0.3c0.4-0.4,0.4-1,0-1.4L13,15.6V13H15z M6,2h12v2H6V2z M10,6h4v5h-4V6z"/>
</svg>
