<?xml version="1.0" encoding="utf-8"?>
<!-- Generator: Adobe Illustrator 19.1.0, SVG Export Plug-In . SVG Version: 6.00 Build 0)  -->
<!DOCTYPE svg PUBLIC "-//W3C//DTD SVG 1.1//EN" "http://www.w3.org/Graphics/SVG/1.1/DTD/svg11.dtd">
<svg version="1.1" id="Layer_1" xmlns="http://www.w3.org/2000/svg" xmlns:xlink="http://www.w3.org/1999/xlink" x="0px" y="0px"
	 width="24px" height="24px" viewBox="0 0 24 24" enable-background="new 0 0 24 24" xml:space="preserve">
<path d="M23,1H10.6C9.5,0.4,8.3,0,7,0C3.1,0,0,3.1,0,7c0,2.3,1.1,4.4,3,5.7V23c0,0.6,0.4,1,1,1h6c0.6,0,1-0.4,1-1v-8h12
	c0.6,0,1-0.4,1-1V2C24,1.4,23.6,1,23,1z M9,22H5v-9.8c0-0.4-0.2-0.7-0.5-0.9C3,10.4,2,8.8,2,7c0-2.8,2.2-5,5-5s5,2.2,5,5
	c0,1.8-1,3.4-2.5,4.3C9.2,11.5,9,11.8,9,12.2V22z M22,13H11v-0.3c1.9-1.3,3-3.5,3-5.7c0-1.5-0.5-2.9-1.3-4H22V13z"/>
<path d="M11,7c0-2.2-1.8-4-4-4S3,4.8,3,7s1.8,4,4,4S11,9.2,11,7z M7,9C5.9,9,5,8.1,5,7s0.9-2,2-2s2,0.9,2,2S8.1,9,7,9z"/>
<path d="M17,7h2c0.6,0,1-0.4,1-1s-0.4-1-1-1h-2c-0.6,0-1,0.4-1,1S16.4,7,17,7z"/>
</svg>
