<?xml version="1.0" encoding="utf-8"?>
<!-- Generator: Adobe Illustrator 19.1.0, SVG Export Plug-In . SVG Version: 6.00 Build 0)  -->
<!DOCTYPE svg PUBLIC "-//W3C//DTD SVG 1.1//EN" "http://www.w3.org/Graphics/SVG/1.1/DTD/svg11.dtd">
<svg version="1.1" id="Layer_1" xmlns="http://www.w3.org/2000/svg" xmlns:xlink="http://www.w3.org/1999/xlink" x="0px" y="0px"
	 width="24px" height="24px" viewBox="0 0 24 24" enable-background="new 0 0 24 24" xml:space="preserve">
<path d="M4.9,4.9C4.6,5.3,4.5,5.8,4.8,6.1c1,1.7,4.3,7.2,5.1,8c0.6,0.6,1.3,0.9,2.1,0.9s1.6-0.3,2.1-0.9c0.6-0.6,0.9-1.3,0.9-2.1
	s-0.3-1.6-0.9-2.1c-0.8-0.8-6.3-4.1-8-5.1C5.8,4.5,5.3,4.6,4.9,4.9z M12.7,11.3l0.7-0.7L12.7,11.3c0.2,0.2,0.3,0.4,0.3,0.7
	s-0.1,0.5-0.3,0.7c-0.4,0.4-1,0.4-1.4,0c-0.3-0.3-1.4-2-2.7-4.1C10.7,9.9,12.4,11,12.7,11.3z"/>
<path d="M3,11c-0.6,0-1,0.4-1,1c0,5.5,4.5,10,10,10s10-4.5,10-10c0-4.5-2.9-8.3-7.1-9.6C14.7,1.1,13.5,0,12,0c-1.7,0-3,1.3-3,3
	s1.3,3,3,3c1.1,0,2.1-0.6,2.6-1.6C17.8,5.5,20,8.5,20,12c0,4.4-3.6,8-8,8s-8-3.6-8-8C4,11.4,3.6,11,3,11z M12,4c-0.6,0-1-0.4-1-1
	s0.4-1,1-1s1,0.4,1,1S12.6,4,12,4z"/>
</svg>
