<?xml version="1.0" encoding="utf-8"?>
<!-- Generator: Adobe Illustrator 19.1.0, SVG Export Plug-In . SVG Version: 6.00 Build 0)  -->
<!DOCTYPE svg PUBLIC "-//W3C//DTD SVG 1.1//EN" "http://www.w3.org/Graphics/SVG/1.1/DTD/svg11.dtd">
<svg version="1.1" id="Layer_1" xmlns="http://www.w3.org/2000/svg" xmlns:xlink="http://www.w3.org/1999/xlink" x="0px" y="0px"
	 width="24px" height="24px" viewBox="0 0 24 24" enable-background="new 0 0 24 24" xml:space="preserve">
<path d="M23,2H1C0.4,2,0,2.4,0,3v18c0,0.6,0.4,1,1,1h22c0.6,0,1-0.4,1-1V3C24,2.4,23.6,2,23,2z M22,20H2V4h20V20z"/>
<path d="M9,18c3.3,0,6-2.7,6-6s-2.7-6-6-6s-6,2.7-6,6S5.7,18,9,18z M9,8c2.2,0,4,1.8,4,4s-1.8,4-4,4s-4-1.8-4-4S6.8,8,9,8z"/>
<path d="M18,11c-0.6,0-1,0.4-1,1v5c0,0.6,0.4,1,1,1s1-0.4,1-1v-5C19,11.4,18.6,11,18,11z"/>
<path d="M16,10h4c0.6,0,1-0.4,1-1s-0.4-1-1-1h-1V7c0-0.6-0.4-1-1-1s-1,0.4-1,1v1h-1c-0.6,0-1,0.4-1,1S15.4,10,16,10z"/>
<circle cx="9" cy="12" r="2"/>
</svg>
