<?xml version="1.0" encoding="utf-8"?>
<!-- Generator: Adobe Illustrator 19.1.0, SVG Export Plug-In . SVG Version: 6.00 Build 0)  -->
<!DOCTYPE svg PUBLIC "-//W3C//DTD SVG 1.1//EN" "http://www.w3.org/Graphics/SVG/1.1/DTD/svg11.dtd">
<svg version="1.1" id="Layer_1" xmlns="http://www.w3.org/2000/svg" xmlns:xlink="http://www.w3.org/1999/xlink" x="0px" y="0px"
	 width="24px" height="24px" viewBox="0 0 24 24" enable-background="new 0 0 24 24" xml:space="preserve">
<path d="M3,18c0,0.6,0.4,1,1,1h12c0.6,0,1-0.4,1-1V6c0-0.6-0.4-1-1-1H4C3.4,5,3,5.4,3,6V18z M5,7h10v10H5V7z"/>
<path d="M1,17c0.6,0,1-0.4,1-1V8c0-0.6-0.4-1-1-1S0,7.4,0,8v8C0,16.6,0.4,17,1,17z"/>
<path d="M12,8H8C7.4,8,7,8.4,7,9s0.4,1,1,1h4c0.6,0,1-0.4,1-1S12.6,8,12,8z"/>
<path d="M12,11H8c-0.6,0-1,0.4-1,1s0.4,1,1,1h4c0.6,0,1-0.4,1-1S12.6,11,12,11z"/>
<path d="M12,14H8c-0.6,0-1,0.4-1,1s0.4,1,1,1h4c0.6,0,1-0.4,1-1S12.6,14,12,14z"/>
<path d="M23.5,3.1c-0.3-0.2-0.7-0.2-1,0l-4,2C18.2,5.3,18,5.6,18,6v12c0,0.4,0.2,0.7,0.6,0.9l4,2C22.7,21,22.8,21,23,21
	c0.2,0,0.4,0,0.5-0.1c0.3-0.2,0.5-0.5,0.5-0.9V4C24,3.7,23.8,3.3,23.5,3.1z M22,18.4l-2-1V6.6l2-1V18.4z"/>
</svg>
