<?xml version="1.0" encoding="utf-8"?>
<!-- Generator: Adobe Illustrator 19.0.1, SVG Export Plug-In . SVG Version: 6.00 Build 0)  -->
<!DOCTYPE svg PUBLIC "-//W3C//DTD SVG 1.1//EN" "http://www.w3.org/Graphics/SVG/1.1/DTD/svg11.dtd">
<svg version="1.1" id="Layer_1" xmlns="http://www.w3.org/2000/svg" xmlns:xlink="http://www.w3.org/1999/xlink" x="0px" y="0px"
	 width="16px" height="16px" viewBox="0 0 16 16" enable-background="new 0 0 16 16" xml:space="preserve">
<path fill="#444444" d="M8,0C3.6,0,0,3.6,0,8s3.6,8,8,8s8-3.6,8-8S12.4,0,8,0z M8,14c-3.3,0-6-2.7-6-6s2.7-6,6-6s6,2.7,6,6
	S11.3,14,8,14z"/>
<circle data-color="color-2" fill="#444444" cx="6" cy="6" r="1"/>
<circle data-color="color-2" fill="#444444" cx="10" cy="6" r="1"/>
<path data-color="color-2" fill="#444444" d="M8,8c-1.7,0-3,1.3-3,3c0,0.6,0.4,1,1,1s1-0.4,1-1c0-0.6,0.4-1,1-1s1,0.4,1,1c0,0.6,0.4,1,1,1
	s1-0.4,1-1C11,9.3,9.7,8,8,8z"/>
</svg>
