<?xml version="1.0" encoding="utf-8"?>
<!-- Generator: Adobe Illustrator 19.0.1, SVG Export Plug-In . SVG Version: 6.00 Build 0)  -->
<!DOCTYPE svg PUBLIC "-//W3C//DTD SVG 1.1//EN" "http://www.w3.org/Graphics/SVG/1.1/DTD/svg11.dtd">
<svg version="1.1" id="Layer_1" xmlns="http://www.w3.org/2000/svg" xmlns:xlink="http://www.w3.org/1999/xlink" x="0px" y="0px"
	 width="16px" height="16px" viewBox="0 0 16 16" enable-background="new 0 0 16 16" xml:space="preserve">
<path fill="#444444" d="M8,0C4.1,0,1,3.1,1,7c0,2.4,1.2,4.5,3,5.7V15c0,0.6,0.4,1,1,1h1v-2h1v2h2v-2h1v2h1c0.6,0,1-0.4,1-1v-2.3
	c1.8-1.3,3-3.4,3-5.7C15,3.1,11.9,0,8,0z M5.5,9C4.7,9,4,8.3,4,7.5S4.7,6,5.5,6S7,6.7,7,7.5S6.3,9,5.5,9z M10.5,9C9.7,9,9,8.3,9,7.5
	S9.7,6,10.5,6S12,6.7,12,7.5S11.3,9,10.5,9z"/>
</svg>
