<?xml version="1.0" encoding="utf-8"?>
<!-- Generator: Adobe Illustrator 19.0.1, SVG Export Plug-In . SVG Version: 6.00 Build 0)  -->
<!DOCTYPE svg PUBLIC "-//W3C//DTD SVG 1.1//EN" "http://www.w3.org/Graphics/SVG/1.1/DTD/svg11.dtd">
<svg version="1.1" id="Layer_1" xmlns="http://www.w3.org/2000/svg" xmlns:xlink="http://www.w3.org/1999/xlink" x="0px" y="0px"
	 width="16px" height="16px" viewBox="0 0 16 16" enable-background="new 0 0 16 16" xml:space="preserve">
<path fill="#444444" d="M8,0C3.6,0,0,3.6,0,8s3.6,8,8,8s8-3.6,8-8S12.4,0,8,0z M10,5c0.6,0,1,0.4,1,1s-0.4,1-1,1S9,6.6,9,6
	S9.4,5,10,5z M6,5c0.6,0,1,0.4,1,1S6.6,7,6,7S5,6.6,5,6S5.4,5,6,5z M11.8,10.3C11.2,11.9,9.7,13,8,13c-1.7,0-3.2-1.1-3.8-2.7
	C4,9.8,4.3,9.2,4.8,9.1c0.5-0.2,1.1,0.1,1.3,0.6C6.4,10.5,7.2,11,8,11c0.8,0,1.6-0.5,1.9-1.3c0.2-0.5,0.8-0.8,1.3-0.6
	C11.7,9.2,12,9.8,11.8,10.3z"/>
</svg>
