<?xml version="1.0" encoding="utf-8"?>
<!-- Generator: Adobe Illustrator 19.0.1, SVG Export Plug-In . SVG Version: 6.00 Build 0)  -->
<!DOCTYPE svg PUBLIC "-//W3C//DTD SVG 1.1//EN" "http://www.w3.org/Graphics/SVG/1.1/DTD/svg11.dtd">
<svg version="1.1" id="Layer_1" xmlns="http://www.w3.org/2000/svg" xmlns:xlink="http://www.w3.org/1999/xlink" x="0px" y="0px"
	 width="16px" height="16px" viewBox="0 0 16 16" enable-background="new 0 0 16 16" xml:space="preserve">
<path fill="#444444" d="M16,8c0-4.4-3.6-8-8-8S0,3.6,0,8s3.6,8,8,8c0.9,0,1.9-0.2,2.7-0.5c0.5,0.3,1.1,0.5,1.8,0.5
	c1.9,0,3.5-1.6,3.5-3.5c0-0.5-0.2-1.1-0.5-1.8C15.8,9.9,16,8.9,16,8z M2,8c0-3.3,2.7-6,6-6c3.3,0,6,2.7,6,6c-0.3-0.4-0.5-0.8-0.7-1
	l-0.8-1.2l-0.8,1.2C11,7.8,9,10.9,9,12.5c0,0.5,0.1,0.9,0.3,1.4C8.9,13.9,8.4,14,8,14C4.7,14,2,11.3,2,8z M12.5,14
	c-0.8,0-1.5-0.7-1.5-1.5c0-0.5,0.7-1.8,1.5-3.2c0.8,1.3,1.5,2.7,1.5,3.2C14,13.3,13.3,14,12.5,14z"/>
<circle data-color="color-2" fill="#444444" cx="6" cy="6" r="1"/>
<circle data-color="color-2" fill="#444444" cx="10" cy="6" r="1"/>
</svg>
