<?xml version="1.0" encoding="utf-8"?>
<!-- Generator: Adobe Illustrator 19.0.1, SVG Export Plug-In . SVG Version: 6.00 Build 0)  -->
<!DOCTYPE svg PUBLIC "-//W3C//DTD SVG 1.1//EN" "http://www.w3.org/Graphics/SVG/1.1/DTD/svg11.dtd">
<svg version="1.1" id="Layer_1" xmlns="http://www.w3.org/2000/svg" xmlns:xlink="http://www.w3.org/1999/xlink" x="0px" y="0px"
	 width="16px" height="16px" viewBox="0 0 16 16" enable-background="new 0 0 16 16" xml:space="preserve">
<path fill="#444444" d="M8,0C3.6,0,0,3.6,0,8s3.6,8,8,8s8-3.6,8-8S12.4,0,8,0z M8,14c-3.3,0-6-2.7-6-6s2.7-6,6-6s6,2.7,6,6
	S11.3,14,8,14z"/>
<circle data-color="color-2" fill="#444444" cx="6" cy="6" r="1"/>
<circle data-color="color-2" fill="#444444" cx="10" cy="6" r="1"/>
<path data-color="color-2" fill="#444444" d="M8.5,8c-0.6,0-1,0.4-1,1s0.4,1,1,1C8.8,10,9,10.2,9,10.5S8.8,11,8.5,11c-0.6,0-1,0.4-1,1
	s0.4,1,1,1c1.4,0,2.5-1.1,2.5-2.5S9.9,8,8.5,8z"/>
</svg>
