<?xml version="1.0" encoding="utf-8"?>
<!-- Generator: Adobe Illustrator 19.1.0, SVG Export Plug-In . SVG Version: 6.00 Build 0)  -->
<!DOCTYPE svg PUBLIC "-//W3C//DTD SVG 1.1//EN" "http://www.w3.org/Graphics/SVG/1.1/DTD/svg11.dtd">
<svg version="1.1" id="Layer_1" xmlns="http://www.w3.org/2000/svg" xmlns:xlink="http://www.w3.org/1999/xlink" x="0px" y="0px"
	 width="16px" height="16px" viewBox="0 0 16 16" enable-background="new 0 0 16 16" xml:space="preserve">
<polygon data-color="color-2" fill="#444444" points="3,0 0,3 2,3 2,13 0,13 3,16 6,13 4,13 4,3 6,3 "/>
<polygon fill="#444444" points="8,1 8,4 9,4 10,3 11,3 11,9 10,10 10,11 14,11 14,10 13,9 13,3 14,3 15,4 16,4 16,1 "/>
<rect x="8" y="13" fill="#444444" width="8" height="2"/>
</svg>
