<?xml version="1.0" encoding="utf-8"?>
<!-- Generator: Adobe Illustrator 19.1.0, SVG Export Plug-In . SVG Version: 6.00 Build 0)  -->
<!DOCTYPE svg PUBLIC "-//W3C//DTD SVG 1.1//EN" "http://www.w3.org/Graphics/SVG/1.1/DTD/svg11.dtd">
<svg version="1.1" id="Layer_1" xmlns="http://www.w3.org/2000/svg" xmlns:xlink="http://www.w3.org/1999/xlink" x="0px" y="0px"
	 width="16px" height="16px" viewBox="0 0 16 16" enable-background="new 0 0 16 16" xml:space="preserve">
<polygon data-color="color-2" fill="#444444" points="3,0 0,3 2,3 2,13 0,13 3,16 6,13 4,13 4,3 6,3 "/>
<polygon fill="#444444" points="11,4 6,4 6,8 7,8 8,6 10,6 10,12 8,13 8,14 11,14 14,14 14,13 12,12 12,6 14,6 15,8 16,8 16,4 "/>
</svg>
