<?xml version="1.0" encoding="utf-8"?>
<!-- Generator: Adobe Illustrator 19.1.0, SVG Export Plug-In . SVG Version: 6.00 Build 0)  -->
<!DOCTYPE svg PUBLIC "-//W3C//DTD SVG 1.1//EN" "http://www.w3.org/Graphics/SVG/1.1/DTD/svg11.dtd">
<svg version="1.1" id="Layer_1" xmlns="http://www.w3.org/2000/svg" xmlns:xlink="http://www.w3.org/1999/xlink" x="0px" y="0px"
	 width="16px" height="16px" viewBox="0 0 16 16" enable-background="new 0 0 16 16" xml:space="preserve">
<polygon data-color="color-2" fill="#444444" points="16,13 13,10 13,12 3,12 3,10 0,13 3,16 3,14 13,14 13,16 "/>
<polygon fill="#444444" points="8,0 3,0 3,4 4,4 5,2 7,2 7,8 5,9 5,10 8,10 11,10 11,9 9,8 9,2 11,2 12,4 13,4 13,0 "/>
</svg>
