<?xml version="1.0" encoding="utf-8"?>
<!-- Generator: Adobe Illustrator 19.1.0, SVG Export Plug-In . SVG Version: 6.00 Build 0)  -->
<!DOCTYPE svg PUBLIC "-//W3C//DTD SVG 1.1//EN" "http://www.w3.org/Graphics/SVG/1.1/DTD/svg11.dtd">
<svg version="1.1" id="Layer_1" xmlns="http://www.w3.org/2000/svg" xmlns:xlink="http://www.w3.org/1999/xlink" x="0px" y="0px"
	 width="48px" height="48px" viewBox="0 0 48 48" enable-background="new 0 0 48 48" xml:space="preserve">
<path fill="#231F20" d="M44.5,22.1C42.3,20.8,41,18.5,41,16c0-2.5,1.3-4.8,3.5-6.1C45,9.7,45.1,9,44.9,8.6c-0.3-0.5-0.9-0.6-1.4-0.4
	c-2.5,1.4-4.1,4-4.4,6.8H8.9C8.6,12.2,7,9.6,4.5,8.2C4,7.9,3.4,8.1,3.1,8.6C2.9,9,3,9.7,3.5,9.9C5.7,11.2,7,13.5,7,16
	c0,2.5-1.3,4.8-3.5,6.1C3,22.3,2.9,23,3.1,23.4c0.2,0.3,0.5,0.5,0.9,0.5c0.2,0,0.3,0,0.5-0.1c2.5-1.4,4.1-4,4.4-6.8h30.1
	c0.3,2.8,1.9,5.4,4.4,6.8c0.2,0.1,0.3,0.1,0.5,0.1c0.3,0,0.7-0.2,0.9-0.5C45.1,23,45,22.3,44.5,22.1z"/>
<path id="color_5_" fill="#231F20" d="M25,28c0,0.6-0.4,1-1,1s-1-0.4-1-1v-9H13v13c0,6.1,4.9,11,11,11s11-4.9,11-11V19H25V28z"/>
</svg>
