<?xml version="1.0" encoding="utf-8"?>
<!-- Generator: Adobe Illustrator 19.1.0, SVG Export Plug-In . SVG Version: 6.00 Build 0)  -->
<!DOCTYPE svg PUBLIC "-//W3C//DTD SVG 1.1//EN" "http://www.w3.org/Graphics/SVG/1.1/DTD/svg11.dtd">
<svg version="1.1" id="Layer_1" xmlns="http://www.w3.org/2000/svg" xmlns:xlink="http://www.w3.org/1999/xlink" x="0px" y="0px"
	 width="48px" height="48px" viewBox="0 0 48 48" enable-background="new 0 0 48 48" xml:space="preserve">
<path fill="#231F20" d="M24,1C11.3,1,1,11.3,1,24s10.3,23,23,23s23-10.3,23-23S36.7,1,24,1z M13,18c0-1.7,1.3-3,3-3c1.7,0,3,1.3,3,3
	s-1.3,3-3,3C14.3,21,13,19.7,13,18z M32.2,31l-16,4c-0.1,0-0.2,0-0.2,0c-0.4,0-0.9-0.3-1-0.8c-0.1-0.5,0.2-1.1,0.7-1.2l16-4
	c0.5-0.1,1.1,0.2,1.2,0.7C33.1,30.3,32.8,30.8,32.2,31z M32,21c-1.7,0-3-1.3-3-3s1.3-3,3-3c1.7,0,3,1.3,3,3S33.7,21,32,21z"/>
</svg>
