<?xml version="1.0" encoding="utf-8"?>
<!-- Generator: Adobe Illustrator 19.1.0, SVG Export Plug-In . SVG Version: 6.00 Build 0)  -->
<!DOCTYPE svg PUBLIC "-//W3C//DTD SVG 1.1//EN" "http://www.w3.org/Graphics/SVG/1.1/DTD/svg11.dtd">
<svg version="1.1" id="Layer_1" xmlns="http://www.w3.org/2000/svg" xmlns:xlink="http://www.w3.org/1999/xlink" x="0px" y="0px"
	 width="48px" height="48px" viewBox="0 0 48 48" enable-background="new 0 0 48 48" xml:space="preserve">
<path fill="#231F20" d="M36.6,4.8L26.2,15.2C26.7,16,27,17,27,18v2c0,2.8-2.2,5-5,5h-4c-1,0-2-0.3-2.8-0.8L4,35.4
	C8,42.3,15.5,47,24,47c12.7,0,23-10.3,23-23C47,16,42.9,8.9,36.6,4.8z M34.8,32.6C30.6,38.9,24.3,39,24,39c-0.6,0-1-0.4-1-1
	c0-0.6,0.4-1,1-1c0.2,0,5.5-0.1,9.2-5.6c0.3-0.5,0.9-0.6,1.4-0.3C35,31.5,35.1,32.1,34.8,32.6z"/>
<path fill="#231F20" d="M13.8,22.8C13.3,22,13,21,13,20v-2c0-2.8,2.2-5,5-5h4c1,0,2,0.3,2.8,0.8L34.9,3.7C31.6,2,27.9,1,24,1
	C11.3,1,1,11.3,1,24c0,3.4,0.7,6.6,2.1,9.5L13.8,22.8z"/>
</svg>
