<?xml version="1.0" encoding="utf-8"?>
<!-- Generator: Adobe Illustrator 19.1.0, SVG Export Plug-In . SVG Version: 6.00 Build 0)  -->
<!DOCTYPE svg PUBLIC "-//W3C//DTD SVG 1.1//EN" "http://www.w3.org/Graphics/SVG/1.1/DTD/svg11.dtd">
<svg version="1.1" id="Layer_1" xmlns="http://www.w3.org/2000/svg" xmlns:xlink="http://www.w3.org/1999/xlink" x="0px" y="0px"
	 width="48px" height="48px" viewBox="0 0 48 48" enable-background="new 0 0 48 48" xml:space="preserve">
<path fill="#231F20" d="M24,1C11.3,1,1,11.3,1,24s10.3,23,23,23s23-10.3,23-23S36.7,1,24,1z M29.5,16.1l5-3c0.5-0.3,1.1-0.1,1.4,0.3
	c0.3,0.5,0.1,1.1-0.3,1.4l-5,3C30.4,18,30.2,18,30,18c-0.3,0-0.7-0.2-0.9-0.5C28.9,17,29,16.4,29.5,16.1z M12.1,13.5
	c0.3-0.5,0.9-0.6,1.4-0.3l5,3c0.5,0.3,0.6,0.9,0.3,1.4C18.7,17.8,18.3,18,18,18c-0.2,0-0.4,0-0.5-0.1l-5-3
	C12,14.6,11.9,14,12.1,13.5z M31,37H17c-3.3,0-6-2.7-6-6s2.7-6,6-6h14c3.3,0,6,2.7,6,6S34.3,37,31,37z"/>
</svg>
