<?xml version="1.0" encoding="utf-8"?>
<!-- Generator: Adobe Illustrator 19.1.0, SVG Export Plug-In . SVG Version: 6.00 Build 0)  -->
<!DOCTYPE svg PUBLIC "-//W3C//DTD SVG 1.1//EN" "http://www.w3.org/Graphics/SVG/1.1/DTD/svg11.dtd">
<svg version="1.1" id="Layer_1" xmlns="http://www.w3.org/2000/svg" xmlns:xlink="http://www.w3.org/1999/xlink" x="0px" y="0px"
	 width="48px" height="48px" viewBox="0 0 48 48" enable-background="new 0 0 48 48" xml:space="preserve">
<path fill="#231F20" d="M24,1C11.3,1,1,11.3,1,24s10.3,23,23,23c12.7,0,23-10.3,23-23S36.7,1,24,1z M12,14h8c0.6,0,1,0.4,1,1
	s-0.4,1-1,1h-8c-0.6,0-1-0.4-1-1S11.4,14,12,14z M13,33c0,0.6-0.4,1-1,1c-0.6,0-1-0.4-1-1v-3c0-0.6,0.4-1,1-1c0.6,0,1,0.4,1,1V33z
	 M13,24c0,0.6-0.4,1-1,1c-0.6,0-1-0.4-1-1v-3c0-0.6,0.4-1,1-1c0.6,0,1,0.4,1,1V24z M24,37c-2.8,0-5-2.2-5-5s2.2-5,5-5
	c2.8,0,5,2.2,5,5S26.8,37,24,37z M37,33c0,0.6-0.4,1-1,1c-0.6,0-1-0.4-1-1v-3c0-0.6,0.4-1,1-1c0.6,0,1,0.4,1,1V33z M37,25
	c0,0.6-0.4,1-1,1c-0.6,0-1-0.4-1-1v-3c0-0.6,0.4-1,1-1c0.6,0,1,0.4,1,1V25z M36,16h-8c-0.6,0-1-0.4-1-1s0.4-1,1-1h8c0.6,0,1,0.4,1,1
	S36.6,16,36,16z"/>
</svg>
