<?xml version="1.0" encoding="utf-8"?>
<!-- Generator: Adobe Illustrator 19.1.0, SVG Export Plug-In . SVG Version: 6.00 Build 0)  -->
<!DOCTYPE svg PUBLIC "-//W3C//DTD SVG 1.1//EN" "http://www.w3.org/Graphics/SVG/1.1/DTD/svg11.dtd">
<svg version="1.1" id="Layer_1" xmlns="http://www.w3.org/2000/svg" xmlns:xlink="http://www.w3.org/1999/xlink" x="0px" y="0px"
	 width="48px" height="48px" viewBox="0 0 48 48" enable-background="new 0 0 48 48" xml:space="preserve">
<path fill="#231F20" d="M24.9,9c-0.5-4.5-4.3-8-8.9-8c-4.9,0-8.8,3.9-9,8.7l-3.8,5.8c-0.2,0.3-0.2,0.7,0,1C3.3,16.8,3.6,17,4,17h9
	v21c0,5,4,9,9,9h22c0.6,0,1-0.4,1-1V30C45,18.7,36.1,9.5,24.9,9z M15,10c-1.1,0-2-0.9-2-2s0.9-2,2-2c1.1,0,2,0.9,2,2S16.1,10,15,10z
	 M35.8,28.6l-5,6C30.6,34.9,30.3,35,30,35c-0.3,0-0.6-0.1-0.8-0.4l-5-6c-0.4-0.4-0.3-1.1,0.1-1.4c0.4-0.4,1.1-0.3,1.4,0.1l4.2,5.1
	l4.2-5.1c0.4-0.4,1-0.5,1.4-0.1C36.1,27.6,36.1,28.2,35.8,28.6z"/>
</svg>
