<?xml version="1.0" encoding="utf-8"?>
<!-- Generator: Adobe Illustrator 19.1.0, SVG Export Plug-In . SVG Version: 6.00 Build 0)  -->
<!DOCTYPE svg PUBLIC "-//W3C//DTD SVG 1.1//EN" "http://www.w3.org/Graphics/SVG/1.1/DTD/svg11.dtd">
<svg version="1.1" id="Layer_1" xmlns="http://www.w3.org/2000/svg" xmlns:xlink="http://www.w3.org/1999/xlink" x="0px" y="0px"
	 width="48px" height="48px" viewBox="0 0 48 48" enable-background="new 0 0 48 48" xml:space="preserve">
<path fill="#231F20" d="M24,1C11.3,1,1,11.3,1,24s10.3,23,23,23s23-10.3,23-23S36.7,1,24,1z M13,16c0-1.7,1.3-3,3-3c1.7,0,3,1.3,3,3
	s-1.3,3-3,3C14.3,19,13,17.7,13,16z M31.4,34.9C31.3,35,31.1,35,30.9,35c-0.3,0-0.7-0.2-0.9-0.5C28.8,32.3,26.5,31,24,31
	c-2.5,0-4.8,1.3-6.1,3.5c-0.3,0.5-0.9,0.6-1.4,0.4c-0.5-0.3-0.6-0.9-0.4-1.4c1.6-2.8,4.6-4.5,7.8-4.5c3.2,0,6.2,1.7,7.8,4.5
	C32.1,34,31.9,34.6,31.4,34.9z M32,29c-1.7,0-3-1.3-3-3c0-1.3,1.5-3.6,2.2-4.6c0.4-0.5,1.3-0.5,1.6,0c0.7,0.9,2.2,3.3,2.2,4.6
	C35,27.7,33.7,29,32,29z M32,19c-1.7,0-3-1.3-3-3s1.3-3,3-3c1.7,0,3,1.3,3,3S33.7,19,32,19z"/>
</svg>
