<?xml version="1.0" encoding="utf-8"?>
<!-- Generator: Adobe Illustrator 19.1.0, SVG Export Plug-In . SVG Version: 6.00 Build 0)  -->
<!DOCTYPE svg PUBLIC "-//W3C//DTD SVG 1.1//EN" "http://www.w3.org/Graphics/SVG/1.1/DTD/svg11.dtd">
<svg version="1.1" id="Layer_1" xmlns="http://www.w3.org/2000/svg" xmlns:xlink="http://www.w3.org/1999/xlink" x="0px" y="0px"
	 width="48px" height="48px" viewBox="0 0 48 48" enable-background="new 0 0 48 48" xml:space="preserve">
<path fill="#231F20" d="M45.6,16.2l-8.7,2.6C36.5,21.2,34.5,23,32,23c-2.4,0-4.4-1.7-4.9-4h-6.2c-0.5,2.3-2.5,4-4.9,4
	c-2.5,0-4.5-1.8-4.9-4.2l-8.7-2.6C1.5,18.6,1,21.2,1,24c0,12.7,10.3,23,23,23s23-10.3,23-23C47,21.2,46.5,18.6,45.6,16.2z M24,39
	c-5,0-9-4-9-9c0-0.6,0.4-1,1-1h16c0.6,0,1,0.4,1,1C33,35,29,39,24,39z"/>
<path fill="#231F20" d="M11.2,16.7c0.6-2.1,2.5-3.7,4.8-3.7c2.4,0,4.4,1.7,4.9,4h6.2c0.5-2.3,2.5-4,4.9-4c2.3,0,4.2,1.6,4.8,3.7
	l8-2.4C41.2,6.5,33.2,1,24,1S6.8,6.5,3.2,14.3L11.2,16.7z"/>
</svg>
