<?xml version="1.0" encoding="utf-8"?>
<!-- Generator: Adobe Illustrator 19.1.0, SVG Export Plug-In . SVG Version: 6.00 Build 0)  -->
<!DOCTYPE svg PUBLIC "-//W3C//DTD SVG 1.1//EN" "http://www.w3.org/Graphics/SVG/1.1/DTD/svg11.dtd">
<svg version="1.1" id="Layer_1" xmlns="http://www.w3.org/2000/svg" xmlns:xlink="http://www.w3.org/1999/xlink" x="0px" y="0px"
	 width="48px" height="48px" viewBox="0 0 48 48" enable-background="new 0 0 48 48" xml:space="preserve">
<path fill="#231F20" d="M24,1C11.3,1,1,11.3,1,24s10.3,23,23,23c12.7,0,23-10.3,23-23S36.7,1,24,1z M13,18c0-1.7,1.3-3,3-3
	c1.7,0,3,1.3,3,3s-1.3,3-3,3C14.3,21,13,19.7,13,18z M32,31h-2v4c0,2.2-1.8,4-4,4c-2.2,0-4-1.8-4-4v-4h-6c-0.6,0-1-0.4-1-1
	s0.4-1,1-1h16c0.6,0,1,0.4,1,1S32.6,31,32,31z M32,21c-1.7,0-3-1.3-3-3s1.3-3,3-3c1.7,0,3,1.3,3,3S33.7,21,32,21z"/>
</svg>
