<?xml version="1.0" encoding="utf-8"?>
<!-- Generator: Adobe Illustrator 19.1.0, SVG Export Plug-In . SVG Version: 6.00 Build 0)  -->
<!DOCTYPE svg PUBLIC "-//W3C//DTD SVG 1.1//EN" "http://www.w3.org/Graphics/SVG/1.1/DTD/svg11.dtd">
<svg version="1.1" id="Layer_1" xmlns="http://www.w3.org/2000/svg" xmlns:xlink="http://www.w3.org/1999/xlink" x="0px" y="0px"
	 width="48px" height="48px" viewBox="0 0 48 48" enable-background="new 0 0 48 48" xml:space="preserve">
<path fill="#231F20" d="M15,30v-2c0-1.7,1.3-3,3-3h12c1.7,0,3,1.3,3,3v2h13.2c0.5-1.9,0.8-3.9,0.8-6C47,11.3,36.7,1,24,1
	C11.3,1,1,11.3,1,24c0,2.1,0.3,4.1,0.8,6H15z M29,16h6c0.6,0,1,0.4,1,1s-0.4,1-1,1h-6c-0.6,0-1-0.4-1-1S28.4,16,29,16z M13,16h6
	c0.6,0,1,0.4,1,1s-0.4,1-1,1h-6c-0.6,0-1-0.4-1-1S12.4,16,13,16z"/>
<path fill="#231F20" d="M33,32v2c0,1.7-1.3,3-3,3H18c-1.7,0-3-1.3-3-3v-2H2.4C5.7,40.7,14.1,47,24,47c9.9,0,18.3-6.3,21.6-15H33z"/>
</svg>
