<?xml version="1.0" encoding="utf-8"?>
<!-- Generator: Adobe Illustrator 19.1.0, SVG Export Plug-In . SVG Version: 6.00 Build 0)  -->
<!DOCTYPE svg PUBLIC "-//W3C//DTD SVG 1.1//EN" "http://www.w3.org/Graphics/SVG/1.1/DTD/svg11.dtd">
<svg version="1.1" id="Layer_1" xmlns="http://www.w3.org/2000/svg" xmlns:xlink="http://www.w3.org/1999/xlink" x="0px" y="0px"
	 width="48px" height="48px" viewBox="0 0 48 48" enable-background="new 0 0 48 48" xml:space="preserve">
<path fill="#231F20" d="M24,1C11.3,1,1,11.3,1,24s10.3,23,23,23s23-10.3,23-23S36.7,1,24,1z M7,20c0-0.6,0.4-1,1-1c0.6,0,1,0.4,1,1
	c0,2.8,2.2,5,5,5c2.8,0,5-2.2,5-5c0-0.6,0.4-1,1-1c0.6,0,1,0.4,1,1c0,3.9-3.1,7-7,7C10.1,27,7,23.9,7,20z M29,35H19
	c-0.6,0-1-0.4-1-1s0.4-1,1-1h10c0.6,0,1,0.4,1,1S29.6,35,29,35z M34,27c-3.9,0-7-3.1-7-7c0-0.6,0.4-1,1-1c0.6,0,1,0.4,1,1
	c0,2.8,2.2,5,5,5c2.8,0,5-2.2,5-5c0-0.6,0.4-1,1-1c0.6,0,1,0.4,1,1C41,23.9,37.9,27,34,27z"/>
</svg>
