<?xml version="1.0" encoding="utf-8"?>
<!-- Generator: Adobe Illustrator 19.1.0, SVG Export Plug-In . SVG Version: 6.00 Build 0)  -->
<!DOCTYPE svg PUBLIC "-//W3C//DTD SVG 1.1//EN" "http://www.w3.org/Graphics/SVG/1.1/DTD/svg11.dtd">
<svg version="1.1" id="Layer_1" xmlns="http://www.w3.org/2000/svg" xmlns:xlink="http://www.w3.org/1999/xlink" x="0px" y="0px"
	 width="48px" height="48px" viewBox="0 0 48 48" enable-background="new 0 0 48 48" xml:space="preserve">
<path fill="#231F20" d="M24,1C11.3,1,1,11.3,1,24s10.3,23,23,23c12.7,0,23-10.3,23-23S36.7,1,24,1z M12.1,15.5
	c0.3-0.5,0.9-0.6,1.4-0.3l5,3c0.5,0.3,0.6,0.9,0.3,1.4C18.7,19.8,18.3,20,18,20c-0.2,0-0.4,0-0.5-0.1l-5-3
	C12,16.6,11.9,16,12.1,15.5z M24,37c-5,0-9-4-9-9c0-0.6,0.4-1,1-1c0.6,0,1,0.4,1,1c0,3.9,3.1,7,7,7c3.9,0,7-3.1,7-7c0-0.6,0.4-1,1-1
	c0.6,0,1,0.4,1,1C33,33,29,37,24,37z M35.5,16.9l-5,3C30.4,20,30.2,20,30,20c-0.3,0-0.7-0.2-0.9-0.5c-0.3-0.5-0.1-1.1,0.3-1.4l5-3
	c0.5-0.3,1.1-0.1,1.4,0.3C36.1,16,36,16.6,35.5,16.9z"/>
</svg>
