<?xml version="1.0" encoding="utf-8"?>
<!-- Generator: Adobe Illustrator 19.1.0, SVG Export Plug-In . SVG Version: 6.00 Build 0)  -->
<!DOCTYPE svg PUBLIC "-//W3C//DTD SVG 1.1//EN" "http://www.w3.org/Graphics/SVG/1.1/DTD/svg11.dtd">
<svg version="1.1" id="Layer_1" xmlns="http://www.w3.org/2000/svg" xmlns:xlink="http://www.w3.org/1999/xlink" x="0px" y="0px"
	 width="48px" height="48px" viewBox="0 0 48 48" enable-background="new 0 0 48 48" xml:space="preserve">
<path fill="#231F20" d="M24,1C11.3,1,1,11.3,1,24s10.3,23,23,23c12.7,0,23-10.3,23-23S36.7,1,24,1z M16,15c1.7,0,3,1.3,3,3
	s-1.3,3-3,3c-1.7,0-3-1.3-3-3S14.3,15,16,15z M34,33h-3v2c0,0.6-0.4,1-1,1c-0.6,0-1-0.4-1-1v-2h-4v2c0,0.6-0.4,1-1,1
	c-0.6,0-1-0.4-1-1v-2h-4v2c0,0.6-0.4,1-1,1c-0.6,0-1-0.4-1-1v-2h-3c-0.6,0-1-0.4-1-1s0.4-1,1-1h3v-2c0-0.6,0.4-1,1-1
	c0.6,0,1,0.4,1,1v2h4v-2c0-0.6,0.4-1,1-1c0.6,0,1,0.4,1,1v2h4v-2c0-0.6,0.4-1,1-1c0.6,0,1,0.4,1,1v2h3c0.6,0,1,0.4,1,1
	S34.6,33,34,33z M32,21c-1.7,0-3-1.3-3-3s1.3-3,3-3c1.7,0,3,1.3,3,3S33.7,21,32,21z"/>
</svg>
