<?xml version="1.0" encoding="utf-8"?>
<!-- Generator: Adobe Illustrator 19.1.0, SVG Export Plug-In . SVG Version: 6.00 Build 0)  -->
<!DOCTYPE svg PUBLIC "-//W3C//DTD SVG 1.1//EN" "http://www.w3.org/Graphics/SVG/1.1/DTD/svg11.dtd">
<svg version="1.1" id="Layer_1" xmlns="http://www.w3.org/2000/svg" xmlns:xlink="http://www.w3.org/1999/xlink" x="0px" y="0px"
	 width="48px" height="48px" viewBox="0 0 48 48" enable-background="new 0 0 48 48" xml:space="preserve">
<path fill="#231F20" d="M38,3H10c-5,0-9,4-9,9v13c0,5,4,9,9,9h1V21c0-0.6,0.4-1,1-1c0.6,0,1,0.4,1,1v13h10V21c0-0.6,0.4-1,1-1
	c0.6,0,1,0.4,1,1v13h10V21c0-0.6,0.4-1,1-1c0.6,0,1,0.4,1,1v13h1c5,0,9-4,9-9V12C47,7,43,3,38,3z"/>
<path fill="#231F20" d="M38,36H19c0,5,4,9,9,9h14c2.8,0,5-2.2,5-5v-8.7C45,34.1,41.7,36,38,36z"/>
</svg>
