<?xml version="1.0" encoding="utf-8"?>
<!-- Generator: Adobe Illustrator 19.1.0, SVG Export Plug-In . SVG Version: 6.00 Build 0)  -->
<!DOCTYPE svg PUBLIC "-//W3C//DTD SVG 1.1//EN" "http://www.w3.org/Graphics/SVG/1.1/DTD/svg11.dtd">
<svg version="1.1" id="Layer_1" xmlns="http://www.w3.org/2000/svg" xmlns:xlink="http://www.w3.org/1999/xlink" x="0px" y="0px"
	 width="48px" height="48px" viewBox="0 0 48 48" enable-background="new 0 0 48 48" xml:space="preserve">
<path fill="#231F20" d="M44,4c-1.7,0-3,1.3-3,3v4c0,0.6,0.4,1,1,1h1v11h-4v-7c0-8.3-6.7-15-15-15C15.7,1,9,7.7,9,16v7H5V12h1
	c0.6,0,1-0.4,1-1V7c0-1.7-1.3-3-3-3C2.3,4,1,5.3,1,7v4c0,0.6,0.4,1,1,1h1v12c0,0.6,0.4,1,1,1h5v21c0,0.6,0.4,1,1,1h28
	c0.6,0,1-0.4,1-1V25h5c0.6,0,1-0.4,1-1V12h1c0.6,0,1-0.4,1-1V7C47,5.3,45.7,4,44,4z M17,15h4c0.6,0,1,0.4,1,1s-0.4,1-1,1h-4
	c-0.6,0-1-0.4-1-1S16.4,15,17,15z M31,27h-2v4c0,1.7-1.3,3-3,3c-1.7,0-3-1.3-3-3v-4h-6c-0.6,0-1-0.4-1-1s0.4-1,1-1h14
	c0.6,0,1,0.4,1,1S31.6,27,31,27z M31,17h-4c-0.6,0-1-0.4-1-1s0.4-1,1-1h4c0.6,0,1,0.4,1,1S31.6,17,31,17z"/>
</svg>
