<?xml version="1.0" encoding="utf-8"?>
<!-- Generator: Adobe Illustrator 19.1.0, SVG Export Plug-In . SVG Version: 6.00 Build 0)  -->
<!DOCTYPE svg PUBLIC "-//W3C//DTD SVG 1.1//EN" "http://www.w3.org/Graphics/SVG/1.1/DTD/svg11.dtd">
<svg version="1.1" id="Layer_1" xmlns="http://www.w3.org/2000/svg" xmlns:xlink="http://www.w3.org/1999/xlink" x="0px" y="0px"
	 width="48px" height="48px" viewBox="0 0 48 48" enable-background="new 0 0 48 48" xml:space="preserve">
<path id="color_7_" fill="#231F20" d="M9,1H2C1.4,1,1,1.4,1,2v22c0,0.6,0.4,1,1,1h7V1z"/>
<path fill="#231F20" d="M11,25l6,21.3c0.1,0.4,0.5,0.7,1,0.7c3.9,0,7-3.1,7-7V29h14c2,0,4-0.9,5.3-2.4c1.3-1.6,1.9-3.6,1.6-5.6
	l-2.2-14C43.2,3.5,40.3,1,36.9,1H12h-1V25z"/>
</svg>
