<?xml version="1.0" encoding="utf-8"?>
<!-- Generator: Adobe Illustrator 19.1.0, SVG Export Plug-In . SVG Version: 6.00 Build 0)  -->
<!DOCTYPE svg PUBLIC "-//W3C//DTD SVG 1.1//EN" "http://www.w3.org/Graphics/SVG/1.1/DTD/svg11.dtd">
<svg version="1.1" id="Layer_1" xmlns="http://www.w3.org/2000/svg" xmlns:xlink="http://www.w3.org/1999/xlink" x="0px" y="0px"
	 width="48px" height="48px" viewBox="0 0 48 48" enable-background="new 0 0 48 48" xml:space="preserve">
<path fill="#231F20" d="M24,1C11.3,1,1,11.3,1,24s10.3,23,23,23s23-10.3,23-23S36.7,1,24,1z M32,14c1.7,0,3,1.3,3,3s-1.3,3-3,3
	c-1.7,0-3-1.3-3-3S30.3,14,32,14z M16,14c1.7,0,3,1.3,3,3s-1.3,3-3,3s-3-1.3-3-3S14.3,14,16,14z M12.1,28.5l-0.8-0.8
	c-0.4-0.4-0.4-1,0-1.4c0.4-0.4,1-0.4,1.4,0l0.8,0.8c0.6,0.6,1.3,0.9,2.1,0.9H21c0.6,0,1,0.4,1,1s-0.4,1-1,1h-5.3
	C14.3,30,13.1,29.5,12.1,28.5z M29,38H19c-0.6,0-1-0.4-1-1s0.4-1,1-1h10c0.6,0,1,0.4,1,1S29.6,38,29,38z M36.7,27.7l-0.8,0.8
	c-0.9,0.9-2.2,1.5-3.5,1.5H27c-0.6,0-1-0.4-1-1s0.4-1,1-1h5.3c0.8,0,1.6-0.3,2.1-0.9l0.8-0.8c0.4-0.4,1-0.4,1.4,0
	C37.1,26.7,37.1,27.3,36.7,27.7z"/>
</svg>
