<?xml version="1.0" encoding="utf-8"?>
<!-- Generator: Adobe Illustrator 19.2.1, SVG Export Plug-In . SVG Version: 6.00 Build 0)  -->
<!DOCTYPE svg PUBLIC "-//W3C//DTD SVG 1.1//EN" "http://www.w3.org/Graphics/SVG/1.1/DTD/svg11.dtd">
<svg version="1.1" id="Layer_1" xmlns="http://www.w3.org/2000/svg" xmlns:xlink="http://www.w3.org/1999/xlink" x="0px" y="0px"
	 width="16px" height="16px" viewBox="0 0 16 16" enable-background="new 0 0 16 16" xml:space="preserve">
<polygon points="9,2 12.586,2 9.293,5.293 10.707,6.707 14,3.414 14,7 16,7 16,0 9,0 "/>
<polygon points="7,14 3.414,14 6.707,10.707 5.293,9.293 2,12.586 2,9 0,9 0,16 7,16 "/>
<polygon points="2,3.414 5.293,6.707 6.707,5.293 3.414,2 7,2 7,0 0,0 0,7 2,7 "/>
<polygon points="14,12.586 10.707,9.293 9.293,10.707 12.586,14 9,14 9,16 16,16 16,9 14,9 "/>
</svg>
