<?xml version="1.0" encoding="utf-8"?>
<!-- Generator: Adobe Illustrator 19.2.1, SVG Export Plug-In . SVG Version: 6.00 Build 0)  -->
<!DOCTYPE svg PUBLIC "-//W3C//DTD SVG 1.1//EN" "http://www.w3.org/Graphics/SVG/1.1/DTD/svg11.dtd">
<svg version="1.1" id="Layer_1" xmlns="http://www.w3.org/2000/svg" xmlns:xlink="http://www.w3.org/1999/xlink" x="0px" y="0px"
	 width="16px" height="16px" viewBox="0 0 16 16" enable-background="new 0 0 16 16" xml:space="preserve">
<path d="M7.999,16C8,16,8,16,7.999,16C8,16,8,16,8.001,16c0.326,0,0.632-0.159,0.819-0.427l7-10
	c0.214-0.305,0.238-0.704,0.068-1.035C15.715,4.207,15.374,4,15.001,4H0.999C0.626,4,0.285,4.207,0.112,4.538
	c-0.17,0.331-0.146,0.73,0.068,1.035l7,10C7.367,15.841,7.673,16,7.999,16z"/>
<path d="M15,0H1C0.447,0,0,0.448,0,1s0.447,1,1,1h14c0.553,0,1-0.448,1-1S15.553,0,15,0z"/>
</svg>
