<?xml version="1.0" encoding="utf-8"?>
<!-- Generator: Adobe Illustrator 19.2.1, SVG Export Plug-In . SVG Version: 6.00 Build 0)  -->
<!DOCTYPE svg PUBLIC "-//W3C//DTD SVG 1.1//EN" "http://www.w3.org/Graphics/SVG/1.1/DTD/svg11.dtd">
<svg version="1.1" id="Layer_1" xmlns="http://www.w3.org/2000/svg" xmlns:xlink="http://www.w3.org/1999/xlink" x="0px" y="0px"
	 width="16px" height="16px" viewBox="0 0 16 16" enable-background="new 0 0 16 16" xml:space="preserve">
<path fill="#222221" d="M8,13c2.414,0,4.434-1.721,4.899-4H16V7h-3.101C12.434,4.721,10.414,3,8,3S3.566,4.721,3.101,7H0v2h3.101
	C3.566,11.279,5.586,13,8,13z M8,5c1.654,0,3,1.346,3,3s-1.346,3-3,3c-1.302,0-2.402-0.839-2.816-2H7c0.552,0,1-0.448,1-1
	c0-0.552-0.448-1-1-1H5.184C5.598,5.839,6.698,5,8,5z"/>
</svg>
