<?xml version="1.0" encoding="utf-8"?>
<!-- Generator: Adobe Illustrator 19.2.1, SVG Export Plug-In . SVG Version: 6.00 Build 0)  -->
<!DOCTYPE svg PUBLIC "-//W3C//DTD SVG 1.1//EN" "http://www.w3.org/Graphics/SVG/1.1/DTD/svg11.dtd">
<svg version="1.1" id="Layer_1" xmlns="http://www.w3.org/2000/svg" xmlns:xlink="http://www.w3.org/1999/xlink" x="0px" y="0px"
	 width="16px" height="16px" viewBox="0 0 16 16" enable-background="new 0 0 16 16" xml:space="preserve">
<path fill="#222221" d="M12,3.085C9.159,3.486,7.59,5.547,6.2,7.4C4.751,9.332,3.5,11,1,11H0v2h1c3.5,0,5.253-2.338,6.8-4.4
	C9.249,6.668,10.5,5,13,5h3l-4-4V3.085z"/>
<path fill="#222221" d="M4.406,6.455C4.472,6.368,4.531,6.293,4.6,6.201c0.314-0.419,0.656-0.872,1.033-1.33
	C4.475,3.802,3.038,3,1,3H0v2h1C2.471,5,3.505,5.586,4.406,6.455z"/>
<path fill="#222221" d="M9.594,9.545C9.528,9.632,9.469,9.707,9.4,9.799c-0.316,0.422-0.656,0.873-1.028,1.328
	C9.331,12.005,10.48,12.7,12,12.915V15l4-4h-3C11.529,11,10.495,10.414,9.594,9.545z"/>
</svg>
