<?xml version="1.0" encoding="utf-8"?>
<!-- Generator: Adobe Illustrator 19.2.1, SVG Export Plug-In . SVG Version: 6.00 Build 0)  -->
<!DOCTYPE svg PUBLIC "-//W3C//DTD SVG 1.1//EN" "http://www.w3.org/Graphics/SVG/1.1/DTD/svg11.dtd">
<svg version="1.1" id="Layer_1" xmlns="http://www.w3.org/2000/svg" xmlns:xlink="http://www.w3.org/1999/xlink" x="0px" y="0px"
	 width="16px" height="16px" viewBox="0 0 16 16" enable-background="new 0 0 16 16" xml:space="preserve">
<path d="M12.986,7.137C12.987,7.091,13,7.047,13,7c0-2.761-2.239-5-5-5C5.495,2,3.439,3.848,3.075,6.252C1.293,6.851,0,8.516,0,10.5
	C0,12.985,2.015,15,4.5,15c1.678,0,5.905,0,7.5,0c2.209,0,4-1.791,4-4C16,9.133,14.716,7.578,12.986,7.137z M9,10v3H7v-3H4l4-4l4,4
	H9z"/>
</svg>
