<?xml version="1.0" encoding="utf-8"?>
<!-- Generator: Adobe Illustrator 19.2.1, SVG Export Plug-In . SVG Version: 6.00 Build 0)  -->
<!DOCTYPE svg PUBLIC "-//W3C//DTD SVG 1.1//EN" "http://www.w3.org/Graphics/SVG/1.1/DTD/svg11.dtd">
<svg version="1.1" id="Layer_1" xmlns="http://www.w3.org/2000/svg" xmlns:xlink="http://www.w3.org/1999/xlink" x="0px" y="0px"
	 width="16px" height="16px" viewBox="0 0 16 16" enable-background="new 0 0 16 16" xml:space="preserve">
<circle fill="#222221" cx="8" cy="8" r="2"/>
<polygon fill="#222221" points="6,6 6,0 3.707,2.293 1.707,0.293 0.293,1.707 2.293,3.707 0,6 "/>
<polygon fill="#222221" points="15.707,1.707 14.293,0.293 12.293,2.293 10,0 10,6 16,6 13.707,3.707 "/>
<polygon fill="#222221" points="10,16 12.293,13.707 14.293,15.707 15.707,14.293 13.707,12.293 16,10 10,10 "/>
<polygon fill="#222221" points="0.293,14.293 1.707,15.707 3.707,13.707 6,16 6,10 0,10 2.293,12.293 "/>
</svg>
