<?xml version="1.0" encoding="utf-8"?>
<!-- Generator: Adobe Illustrator 19.2.1, SVG Export Plug-In . SVG Version: 6.00 Build 0)  -->
<!DOCTYPE svg PUBLIC "-//W3C//DTD SVG 1.1//EN" "http://www.w3.org/Graphics/SVG/1.1/DTD/svg11.dtd">
<svg version="1.1" id="Layer_1" xmlns="http://www.w3.org/2000/svg" xmlns:xlink="http://www.w3.org/1999/xlink" x="0px" y="0px"
	 width="16px" height="16px" viewBox="0 0 16 16" enable-background="new 0 0 16 16" xml:space="preserve">
<path d="M15.462,0.112c-0.331-0.17-0.73-0.146-1.035,0.068l-10,7C4.159,7.367,4,7.673,4,7.999c0,0,0,0,0,0S4,8,4,8.001
	C4,8.327,4.159,8.633,4.427,8.82l10,7c0.305,0.214,0.704,0.238,1.035,0.068C15.793,15.715,16,15.374,16,15.001V0.999
	C16,0.626,15.793,0.285,15.462,0.112z"/>
<path d="M1,16c0.552,0,1-0.447,1-1V1c0-0.553-0.448-1-1-1S0,0.447,0,1v14C0,15.553,0.448,16,1,16z"/>
</svg>
