<?xml version="1.0" encoding="utf-8"?>
<!-- Generator: Adobe Illustrator 19.2.1, SVG Export Plug-In . SVG Version: 6.00 Build 0)  -->
<!DOCTYPE svg PUBLIC "-//W3C//DTD SVG 1.1//EN" "http://www.w3.org/Graphics/SVG/1.1/DTD/svg11.dtd">
<svg version="1.1" id="Layer_1" xmlns="http://www.w3.org/2000/svg" xmlns:xlink="http://www.w3.org/1999/xlink" x="0px" y="0px"
	 width="16px" height="16px" viewBox="0 0 16 16" enable-background="new 0 0 16 16" xml:space="preserve">
<path d="M0.538,15.888c0.331,0.17,0.73,0.146,1.035-0.068l10-7C11.841,8.633,12,8.327,12,8.001c0,0,0,0,0,0S12,8,12,7.999
	c0-0.326-0.159-0.632-0.427-0.819l-10-7C1.269-0.034,0.869-0.058,0.538,0.112C0.207,0.285,0,0.626,0,0.999v14.001
	C0,15.374,0.207,15.715,0.538,15.888z"/>
<path d="M15,0c-0.552,0-1,0.447-1,1v14c0,0.553,0.448,1,1,1s1-0.447,1-1V1C16,0.447,15.552,0,15,0z"/>
</svg>
