<?xml version="1.0" encoding="utf-8"?>
<!-- Generator: Adobe Illustrator 20.1.0, SVG Export Plug-In . SVG Version: 6.00 Build 0)  -->
<!DOCTYPE svg PUBLIC "-//W3C//DTD SVG 1.1//EN" "http://www.w3.org/Graphics/SVG/1.1/DTD/svg11.dtd">
<svg version="1.1" id="Layer_1" xmlns="http://www.w3.org/2000/svg" xmlns:xlink="http://www.w3.org/1999/xlink" x="0px" y="0px"
	 width="64px" height="64px" viewBox="0 0 64 64" enable-background="new 0 0 64 64" xml:space="preserve">
<path d="M7,61c0,1.105,0.895,2,2,2h46c1.105,0,2-0.895,2-2V3c0-1.105-0.895-2-2-2H35c-1.105,0-2,0.895-2,2v17h6c0.552,0,1,0.448,1,1
	v12c0,0.552-0.448,1-1,1H25c-0.552,0-1-0.448-1-1V21c0-0.552,0.448-1,1-1h6V3c0-1.105-0.895-2-2-2H9C7.895,1,7,1.895,7,3V61z M30,39
	h4c0.552,0,1,0.447,1,1s-0.448,1-1,1h-4c-0.552,0-1-0.447-1-1S29.448,39,30,39z M30,46h4c0.552,0,1,0.447,1,1s-0.448,1-1,1h-4
	c-0.552,0-1-0.447-1-1S29.448,46,30,46z"/>
<circle cx="32" cy="27" r="2"/>
</svg>
