<?xml version="1.0" encoding="utf-8"?>
<!-- Generator: Adobe Illustrator 20.1.0, SVG Export Plug-In . SVG Version: 6.00 Build 0)  -->
<!DOCTYPE svg PUBLIC "-//W3C//DTD SVG 1.1//EN" "http://www.w3.org/Graphics/SVG/1.1/DTD/svg11.dtd">
<svg version="1.1" id="Layer_1" xmlns="http://www.w3.org/2000/svg" xmlns:xlink="http://www.w3.org/1999/xlink" x="0px" y="0px"
	 width="64px" height="64px" viewBox="0 0 64 64" enable-background="new 0 0 64 64" xml:space="preserve">
<polygon points="42,16 55.414,16 42,2.586 "/>
<path d="M7,61c0,1.105,0.895,2,2,2h46c1.105,0,2-0.895,2-2V18H41c-0.552,0-1-0.448-1-1V1H9C7.895,1,7,1.895,7,3V61z M41,30
	c0-0.553,0.448-1,1-1h6c0.552,0,1,0.447,1,1v12c0,0.553-0.448,1-1,1h-6c-0.552,0-1-0.447-1-1V30z M28,22c0-0.553,0.448-1,1-1h6
	c0.552,0,1,0.447,1,1v20c0,0.553-0.448,1-1,1h-6c-0.552,0-1-0.447-1-1V22z M15,35c0-0.553,0.448-1,1-1h6c0.552,0,1,0.447,1,1v7
	c0,0.553-0.448,1-1,1h-6c-0.552,0-1-0.447-1-1V35z"/>
</svg>
