<?xml version="1.0" encoding="utf-8"?>
<!-- Generator: Adobe Illustrator 20.1.0, SVG Export Plug-In . SVG Version: 6.00 Build 0)  -->
<!DOCTYPE svg PUBLIC "-//W3C//DTD SVG 1.1//EN" "http://www.w3.org/Graphics/SVG/1.1/DTD/svg11.dtd">
<svg version="1.1" id="Layer_1" xmlns="http://www.w3.org/2000/svg" xmlns:xlink="http://www.w3.org/1999/xlink" x="0px" y="0px"
	 width="64px" height="64px" viewBox="0 0 64 64" enable-background="new 0 0 64 64" xml:space="preserve">
<polygon points="42,16 55.414,16 42,2.586 "/>
<path d="M7,61c0,1.105,0.895,2,2,2h46c1.105,0,2-0.895,2-2V18H41c-0.552,0-1-0.448-1-1V1H9C7.895,1,7,1.895,7,3V61z M20,17h8
	c0.553,0,1,0.448,1,1s-0.447,1-1,1h-8c-0.553,0-1-0.448-1-1S19.447,17,20,17z M20,27h24c0.553,0,1,0.448,1,1s-0.447,1-1,1H20
	c-0.553,0-1-0.448-1-1S19.447,27,20,27z M20,37h24c0.553,0,1,0.448,1,1s-0.447,1-1,1H20c-0.553,0-1-0.448-1-1S19.447,37,20,37z
	 M20,47h24c0.553,0,1,0.448,1,1s-0.447,1-1,1H20c-0.553,0-1-0.448-1-1S19.447,47,20,47z"/>
</svg>
