<?xml version="1.0" encoding="utf-8"?>
<!-- Generator: Adobe Illustrator 20.1.0, SVG Export Plug-In . SVG Version: 6.00 Build 0)  -->
<!DOCTYPE svg PUBLIC "-//W3C//DTD SVG 1.1//EN" "http://www.w3.org/Graphics/SVG/1.1/DTD/svg11.dtd">
<svg version="1.1" id="Layer_1" xmlns="http://www.w3.org/2000/svg" xmlns:xlink="http://www.w3.org/1999/xlink" x="0px" y="0px"
	 width="64px" height="64px" viewBox="0 0 64 64" enable-background="new 0 0 64 64" xml:space="preserve">
<path d="M62,13h-3v31c0,1.379-0.935,2.576-2.272,2.911l-24,6C32.494,52.969,32.248,53,32,53s-0.494-0.031-0.732-0.091L7.272,46.911
	C5.935,46.576,5,45.379,5,44V13H2c-0.553,0-1,0.448-1,1v44c0,0.552,0.447,1,1,1h60c0.553,0,1-0.448,1-1V14
	C63,13.448,62.553,13,62,13z"/>
<path d="M7.758,44.97L31,50.781V10.719L8.242,5.03C7.945,4.957,7.628,5.022,7.385,5.212S7,5.692,7,6v38
	C7,44.459,7.312,44.859,7.758,44.97z"/>
<path d="M57,44V6c0-0.308-0.142-0.599-0.385-0.788c-0.243-0.19-0.561-0.257-0.857-0.182L33,10.719v40.062l23.242-5.811
	C56.688,44.859,57,44.459,57,44z"/>
</svg>
