<?xml version="1.0" encoding="utf-8"?>
<!-- Generator: Adobe Illustrator 20.1.0, SVG Export Plug-In . SVG Version: 6.00 Build 0)  -->
<!DOCTYPE svg PUBLIC "-//W3C//DTD SVG 1.1//EN" "http://www.w3.org/Graphics/SVG/1.1/DTD/svg11.dtd">
<svg version="1.1" id="Layer_1" xmlns="http://www.w3.org/2000/svg" xmlns:xlink="http://www.w3.org/1999/xlink" x="0px" y="0px"
	 width="64px" height="64px" viewBox="0 0 64 64" enable-background="new 0 0 64 64" xml:space="preserve">
<polygon points="45,13 56.414,13 45,1.586 "/>
<path d="M9,1C7.895,1,7,1.895,7,3v58c0,1.105,0.895,2,2,2h46c1.105,0,2-0.895,2-2V15H44c-0.552,0-1-0.448-1-1V1H9z M26,21
	c2.209,0,4,1.791,4,4c0,2.209-1.791,4-4,4s-4-1.791-4-4C22,22.791,23.791,21,26,21z M51.8,43.4c0.228,0.303,0.264,0.708,0.095,1.047
	C51.725,44.786,51.379,45,51,45H14c-0.369,0-0.708-0.203-0.882-0.528s-0.154-0.72,0.05-1.026l6-9
	c0.152-0.229,0.393-0.385,0.663-0.431c0.271-0.045,0.549,0.021,0.769,0.186l7.246,5.434l10.391-12.28
	c0.197-0.232,0.504-0.362,0.793-0.354c0.305,0.009,0.588,0.156,0.771,0.399L51.8,43.4z"/>
</svg>
