<?xml version="1.0" encoding="utf-8"?>
<!-- Generator: Adobe Illustrator 20.1.0, SVG Export Plug-In . SVG Version: 6.00 Build 0)  -->
<!DOCTYPE svg PUBLIC "-//W3C//DTD SVG 1.1//EN" "http://www.w3.org/Graphics/SVG/1.1/DTD/svg11.dtd">
<svg version="1.1" id="Layer_1" xmlns="http://www.w3.org/2000/svg" xmlns:xlink="http://www.w3.org/1999/xlink" x="0px" y="0px"
	 width="64px" height="64px" viewBox="0 0 64 64" enable-background="new 0 0 64 64" xml:space="preserve">
<path d="M62,12H30.5l-5.7-7.6C24.611,4.148,24.314,4,24,4H2C1.447,4,1,4.447,1,5v50c0,2.757,2.243,5,5,5h52c2.757,0,5-2.243,5-5V13
	C63,12.447,62.553,12,62,12z M43,47H21c-3.309,0-6-2.691-6-6c0-3.323,2.729-5.989,6.045-6C21.552,29.401,26.271,25,32,25
	s10.448,4.401,10.955,10c0.015,0,0.03,0,0.045,0c3.309,0,6,2.691,6,6S46.309,47,43,47z"/>
</svg>
