<?xml version="1.0" encoding="utf-8"?>
<!-- Generator: Adobe Illustrator 20.1.0, SVG Export Plug-In . SVG Version: 6.00 Build 0)  -->
<!DOCTYPE svg PUBLIC "-//W3C//DTD SVG 1.1//EN" "http://www.w3.org/Graphics/SVG/1.1/DTD/svg11.dtd">
<svg version="1.1" id="Layer_1" xmlns="http://www.w3.org/2000/svg" xmlns:xlink="http://www.w3.org/1999/xlink" x="0px" y="0px"
	 width="64px" height="64px" viewBox="0 0 64 64" enable-background="new 0 0 64 64" xml:space="preserve">
<polygon points="42,16 55.414,16 42,2.586 "/>
<path d="M40,17V1H9C7.895,1,7,1.895,7,3v58c0,1.105,0.895,2,2,2h46c1.105,0,2-0.895,2-2V18H41C40.448,18,40,17.552,40,17z M23,22
	c3.309,0,6,2.691,6,6s-2.691,6-6,6s-6-2.691-6-6S19.691,22,23,22z M33,46c0,0.553-0.447,1-1,1H14c-0.553,0-1-0.447-1-1v-2.328
	c0-1.538,0.676-2.957,1.854-3.892C16.452,38.512,19.163,37,23,37s6.548,1.512,8.146,2.78C32.324,40.715,33,42.134,33,43.672V46z
	 M51,43.672V46c0,0.553-0.447,1-1,1H34.816C34.928,46.686,35,46.352,35,46v-2.328c0-1.62-0.539-3.146-1.512-4.363
	C35.13,38.166,37.63,37,41,37c3.837,0,6.548,1.512,8.146,2.78C50.324,40.715,51,42.134,51,43.672z M47,28c0,3.309-2.691,6-6,6
	s-6-2.691-6-6s2.691-6,6-6S47,24.691,47,28z"/>
</svg>
