<?xml version="1.0" encoding="utf-8"?>
<!-- Generator: Adobe Illustrator 20.1.0, SVG Export Plug-In . SVG Version: 6.00 Build 0)  -->
<!DOCTYPE svg PUBLIC "-//W3C//DTD SVG 1.1//EN" "http://www.w3.org/Graphics/SVG/1.1/DTD/svg11.dtd">
<svg version="1.1" id="Layer_1" xmlns="http://www.w3.org/2000/svg" xmlns:xlink="http://www.w3.org/1999/xlink" x="0px" y="0px"
	 width="64px" height="64px" viewBox="0 0 64 64" enable-background="new 0 0 64 64" xml:space="preserve">
<polygon points="45,13 56.414,13 45,1.586 "/>
<path d="M7,61c0,1.105,0.895,2,2,2h46c1.105,0,2-0.895,2-2V15H44c-0.552,0-1-0.448-1-1V1H9C7.895,1,7,1.895,7,3V61z M21,30
	c0-0.552,0.448-1,1-1h3v-5c0-3.86,3.14-7,7-7s7,3.14,7,7v5h3c0.552,0,1,0.448,1,1v16c0,0.552-0.448,1-1,1H22c-0.552,0-1-0.448-1-1
	V30z"/>
<path d="M37,24c0-2.757-2.243-5-5-5s-5,2.243-5,5v5h10V24z"/>
<path d="M32,34c-1.654,0-3,1.346-3,3c0,1.302,0.839,2.402,2,2.816V42c0,0.552,0.448,1,1,1s1-0.448,1-1v-2.184
	c1.161-0.414,2-1.514,2-2.816C35,35.346,33.654,34,32,34z"/>
</svg>
