<?xml version="1.0" encoding="utf-8"?>
<!-- Generator: Adobe Illustrator 20.1.0, SVG Export Plug-In . SVG Version: 6.00 Build 0)  -->
<!DOCTYPE svg PUBLIC "-//W3C//DTD SVG 1.1//EN" "http://www.w3.org/Graphics/SVG/1.1/DTD/svg11.dtd">
<svg version="1.1" id="Layer_1" xmlns="http://www.w3.org/2000/svg" xmlns:xlink="http://www.w3.org/1999/xlink" x="0px" y="0px"
	 width="64px" height="64px" viewBox="0 0 64 64" enable-background="new 0 0 64 64" xml:space="preserve">
<path d="M62,12H30.5l-5.7-7.6C24.611,4.148,24.315,4,24,4H2C1.448,4,1,4.447,1,5v50c0,2.757,2.243,5,5,5h52c2.757,0,5-2.243,5-5V13
	C63,12.447,62.552,12,62,12z M23,46c0,0.553-0.448,1-1,1h-6c-0.552,0-1-0.447-1-1v-7c0-0.553,0.448-1,1-1h6c0.552,0,1,0.447,1,1V46z
	 M36,46c0,0.553-0.448,1-1,1h-6c-0.552,0-1-0.447-1-1V26c0-0.553,0.448-1,1-1h6c0.552,0,1,0.447,1,1V46z M49,46c0,0.553-0.448,1-1,1
	h-6c-0.552,0-1-0.447-1-1V34c0-0.553,0.448-1,1-1h6c0.552,0,1,0.447,1,1V46z"/>
</svg>
