<?xml version="1.0" encoding="utf-8"?>
<!-- Generator: Adobe Illustrator 20.1.0, SVG Export Plug-In . SVG Version: 6.00 Build 0)  -->
<!DOCTYPE svg PUBLIC "-//W3C//DTD SVG 1.1//EN" "http://www.w3.org/Graphics/SVG/1.1/DTD/svg11.dtd">
<svg version="1.1" id="Layer_1" xmlns="http://www.w3.org/2000/svg" xmlns:xlink="http://www.w3.org/1999/xlink" x="0px" y="0px"
	 width="64px" height="64px" viewBox="0 0 64 64" enable-background="new 0 0 64 64" xml:space="preserve">
<polygon points="45,13 56.414,13 45,1.586 "/>
<path d="M9,63h46c1.105,0,2-0.895,2-2V15H44c-0.552,0-1-0.448-1-1V1H9C7.895,1,7,1.895,7,3v58C7,62.105,7.895,63,9,63z
	 M18.049,28.772c0.118-0.362,0.431-0.626,0.808-0.681l8.462-1.229l3.785-7.668c0.336-0.684,1.457-0.684,1.793,0l3.785,7.668
	l8.462,1.229c0.377,0.055,0.689,0.318,0.808,0.681c0.117,0.361,0.02,0.759-0.253,1.024l-6.124,5.97l1.445,8.428
	c0.064,0.375-0.09,0.754-0.397,0.978c-0.175,0.127-0.381,0.191-0.588,0.191c-0.159,0-0.319-0.038-0.465-0.115L32,41.27l-7.569,3.979
	c-0.334,0.178-0.743,0.148-1.053-0.076c-0.308-0.224-0.462-0.603-0.397-0.978l1.445-8.428l-6.124-5.97
	C18.029,29.531,17.932,29.134,18.049,28.772z"/>
</svg>
