<?xml version="1.0" encoding="utf-8"?>
<!-- Generator: Adobe Illustrator 20.1.0, SVG Export Plug-In . SVG Version: 6.00 Build 0)  -->
<!DOCTYPE svg PUBLIC "-//W3C//DTD SVG 1.1//EN" "http://www.w3.org/Graphics/SVG/1.1/DTD/svg11.dtd">
<svg version="1.1" id="Layer_1" xmlns="http://www.w3.org/2000/svg" xmlns:xlink="http://www.w3.org/1999/xlink" x="0px" y="0px"
	 width="64px" height="64px" viewBox="0 0 64 64" enable-background="new 0 0 64 64" xml:space="preserve">
<path d="M9,63h46c1.105,0,2-0.895,2-2V3c0-1.105-0.895-2-2-2H9C7.895,1,7,1.895,7,3v58C7,62.105,7.895,63,9,63z M37,15h9
	c0.553,0,1,0.448,1,1s-0.447,1-1,1h-9c-0.553,0-1-0.448-1-1S36.447,15,37,15z M37,25h9c0.553,0,1,0.448,1,1s-0.447,1-1,1h-9
	c-0.553,0-1-0.448-1-1S36.447,25,37,25z M17,16c0-0.552,0.447-1,1-1h10c0.553,0,1,0.448,1,1v10c0,0.552-0.447,1-1,1H18
	c-0.553,0-1-0.448-1-1V16z M18,35h28c0.553,0,1,0.448,1,1s-0.447,1-1,1H18c-0.553,0-1-0.448-1-1S17.447,35,18,35z M18,45h28
	c0.553,0,1,0.448,1,1s-0.447,1-1,1H18c-0.553,0-1-0.448-1-1S17.447,45,18,45z"/>
</svg>
