<?xml version="1.0" encoding="utf-8"?>
<!-- Generator: Adobe Illustrator 20.1.0, SVG Export Plug-In . SVG Version: 6.00 Build 0)  -->
<!DOCTYPE svg PUBLIC "-//W3C//DTD SVG 1.1//EN" "http://www.w3.org/Graphics/SVG/1.1/DTD/svg11.dtd">
<svg version="1.1" id="Layer_1" xmlns="http://www.w3.org/2000/svg" xmlns:xlink="http://www.w3.org/1999/xlink" x="0px" y="0px"
	 width="64px" height="64px" viewBox="0 0 64 64" enable-background="new 0 0 64 64" xml:space="preserve">
<polygon points="45,13 56.414,13 45,1.586 "/>
<path d="M9,1C7.895,1,7,1.895,7,3v58c0,1.105,0.895,2,2,2h46c1.105,0,2-0.895,2-2V15H44c-0.552,0-1-0.448-1-1V1H9z M32,48
	c-1.103,0-2-0.897-2-2s0.897-2,2-2s2,0.897,2,2S33.103,48,32,48z M33,32.925V38c0,0.552-0.448,1-1,1s-1-0.448-1-1v-6
	c0-0.552,0.448-1,1-1c2.664,0,5-2.336,5-5s-2.336-5-5-5c-1.853,0-3.859,1.395-4.667,3.243c-0.222,0.506-0.81,0.735-1.317,0.516
	c-0.506-0.221-0.737-0.811-0.516-1.317C26.625,20.868,29.358,19,32,19c3.794,0,7,3.206,7,7C39,29.456,36.341,32.423,33,32.925z"/>
</svg>
