<?xml version="1.0" encoding="utf-8"?>
<!-- Generator: Adobe Illustrator 20.1.0, SVG Export Plug-In . SVG Version: 6.00 Build 0)  -->
<!DOCTYPE svg PUBLIC "-//W3C//DTD SVG 1.1//EN" "http://www.w3.org/Graphics/SVG/1.1/DTD/svg11.dtd">
<svg version="1.1" id="Layer_1" xmlns="http://www.w3.org/2000/svg" xmlns:xlink="http://www.w3.org/1999/xlink" x="0px" y="0px"
	 width="64px" height="64px" viewBox="0 0 64 64" enable-background="new 0 0 64 64" xml:space="preserve">
<path d="M62,12H30.5l-5.7-7.6C24.611,4.148,24.314,4,24,4H2C1.447,4,1,4.447,1,5v50c0,2.757,2.243,5,5,5h52c2.757,0,5-2.243,5-5V13
	C63,12.447,62.553,12,62,12z M46.707,50.707C46.512,50.902,46.256,51,46,51s-0.512-0.098-0.707-0.293l-8.259-8.259
	C35.125,44.039,32.673,45,30,45c-6.065,0-11-4.935-11-11s4.935-11,11-11s11,4.935,11,11c0,2.673-0.961,5.125-2.552,7.034
	l8.259,8.259C47.098,49.684,47.098,50.316,46.707,50.707z"/>
<path d="M30,25c-4.963,0-9,4.037-9,9s4.037,9,9,9c2.474,0,4.717-1.004,6.346-2.625c0.005-0.005,0.007-0.012,0.012-0.018
	s0.012-0.007,0.018-0.012C37.996,38.717,39,36.474,39,34C39,29.037,34.963,25,30,25z"/>
</svg>
