<?xml version="1.0" encoding="utf-8"?>
<!-- Generator: Adobe Illustrator 20.1.0, SVG Export Plug-In . SVG Version: 6.00 Build 0)  -->
<!DOCTYPE svg PUBLIC "-//W3C//DTD SVG 1.1//EN" "http://www.w3.org/Graphics/SVG/1.1/DTD/svg11.dtd">
<svg version="1.1" id="Layer_1" xmlns="http://www.w3.org/2000/svg" xmlns:xlink="http://www.w3.org/1999/xlink" x="0px" y="0px"
	 width="64px" height="64px" viewBox="0 0 64 64" enable-background="new 0 0 64 64" xml:space="preserve">
<path d="M53,9v48h4c1.105,0,2-0.895,2-2V3c0-1.105-0.895-2-2-2H14c-1.105,0-2,0.895-2,2v4h39C52.105,7,53,7.895,53,9z"/>
<path d="M7,63h42c1.105,0,2-0.895,2-2V11c0-1.105-0.895-2-2-2H7c-1.105,0-2,0.895-2,2v50C5,62.105,5.895,63,7,63z M16,23h24
	c0.552,0,1,0.448,1,1s-0.448,1-1,1H16c-0.552,0-1-0.448-1-1S15.448,23,16,23z M16,35h24c0.552,0,1,0.448,1,1s-0.448,1-1,1H16
	c-0.552,0-1-0.448-1-1S15.448,35,16,35z M16,47h8c0.552,0,1,0.448,1,1s-0.448,1-1,1h-8c-0.552,0-1-0.448-1-1S15.448,47,16,47z"/>
</svg>
