<?xml version="1.0" encoding="utf-8"?>
<!-- Generator: Adobe Illustrator 20.1.0, SVG Export Plug-In . SVG Version: 6.00 Build 0)  -->
<!DOCTYPE svg PUBLIC "-//W3C//DTD SVG 1.1//EN" "http://www.w3.org/Graphics/SVG/1.1/DTD/svg11.dtd">
<svg version="1.1" id="Layer_1" xmlns="http://www.w3.org/2000/svg" xmlns:xlink="http://www.w3.org/1999/xlink" x="0px" y="0px"
	 width="64px" height="64px" viewBox="0 0 64 64" enable-background="new 0 0 64 64" xml:space="preserve">
<path d="M62,12H30.5l-5.7-7.6C24.611,4.148,24.314,4,24,4H2C1.447,4,1,4.447,1,5v50c0,2.757,2.243,5,5,5h52c2.757,0,5-2.243,5-5V13
	C63,12.447,62.553,12,62,12z M35.536,45.54l-2.828,2.828c-3.509,3.509-9.219,3.509-12.728,0c-3.509-3.509-3.509-9.219,0-12.728
	l2.828-2.828c3.509-3.509,9.219-3.509,12.728,0c1.295,1.295,2.109,2.891,2.448,4.565c-0.564,0.461-1.2,0.781-1.872,0.955
	c-0.181-1.501-0.84-2.955-1.99-4.105c-2.729-2.729-7.171-2.729-9.899,0l-2.828,2.828c-2.729,2.729-2.729,7.17,0,9.899
	c2.729,2.729,7.17,2.729,9.899,0l2.498-2.498c0.908,0.085,1.823,0.046,2.725-0.094C36.225,44.774,35.904,45.171,35.536,45.54z
	 M44.021,37.054l-2.828,2.828c-3.509,3.509-9.219,3.509-12.728,0c-1.295-1.295-2.109-2.891-2.448-4.565
	c0.564-0.461,1.2-0.781,1.872-0.955c0.181,1.501,0.84,2.955,1.99,4.105c2.729,2.729,7.17,2.729,9.899,0l2.828-2.828
	c2.729-2.729,2.729-7.17,0-9.9c-2.729-2.729-7.171-2.729-9.9,0l-2.498,2.498c-0.908-0.085-1.823-0.046-2.725,0.094
	c0.291-0.412,0.612-0.81,0.981-1.178l2.828-2.828c3.509-3.509,9.219-3.509,12.728,0C47.53,27.835,47.53,33.545,44.021,37.054z"/>
</svg>
