<?xml version="1.0" encoding="utf-8"?>
<!-- Generator: Adobe Illustrator 20.1.0, SVG Export Plug-In . SVG Version: 6.00 Build 0)  -->
<!DOCTYPE svg PUBLIC "-//W3C//DTD SVG 1.1//EN" "http://www.w3.org/Graphics/SVG/1.1/DTD/svg11.dtd">
<svg version="1.1" id="Layer_1" xmlns="http://www.w3.org/2000/svg" xmlns:xlink="http://www.w3.org/1999/xlink" x="0px" y="0px"
	 width="64px" height="64px" viewBox="0 0 64 64" enable-background="new 0 0 64 64" xml:space="preserve">
<polygon points="42,16 55.414,16 42,2.586 "/>
<path d="M7,61c0,1.105,0.895,2,2,2h46c1.105,0,2-0.895,2-2V18H41c-0.552,0-1-0.448-1-1V1H9C7.895,1,7,1.895,7,3V61z M17.21,33.386
	L31,15.656V30c0,0.047,0.021,0.088,0.027,0.133C29.291,30.57,28,32.128,28,34c0,2.209,1.791,4,4,4c2.209,0,4-1.791,4-4
	c0-1.872-1.291-3.43-3.027-3.867C32.979,30.088,33,30.047,33,30V15.656l13.79,17.729c0.249,0.32,0.28,0.759,0.079,1.11L39.723,47H44
	c0.552,0,1,0.447,1,1s-0.448,1-1,1h-6H26h-6c-0.552,0-1-0.447-1-1s0.448-1,1-1h4.277l-7.145-12.504
	C16.931,34.145,16.962,33.706,17.21,33.386z"/>
</svg>
