<?xml version="1.0" encoding="utf-8"?>
<!-- Generator: Adobe Illustrator 20.1.0, SVG Export Plug-In . SVG Version: 6.00 Build 0)  -->
<!DOCTYPE svg PUBLIC "-//W3C//DTD SVG 1.1//EN" "http://www.w3.org/Graphics/SVG/1.1/DTD/svg11.dtd">
<svg version="1.1" id="Layer_1" xmlns="http://www.w3.org/2000/svg" xmlns:xlink="http://www.w3.org/1999/xlink" x="0px" y="0px"
	 width="64px" height="64px" viewBox="0 0 64 64" enable-background="new 0 0 64 64" xml:space="preserve">
<polygon points="45,13 56.414,13 45,1.586 "/>
<path d="M9,1C7.895,1,7,1.895,7,3v58c0,1.105,0.895,2,2,2h46c1.105,0,2-0.895,2-2V15H44c-0.552,0-1-0.448-1-1V1H9z M42.707,28.707
	C42.512,28.902,42.256,29,42,29s-0.512-0.098-0.707-0.293L33,20.414V46c0,0.552-0.448,1-1,1s-1-0.448-1-1V20.414l-8.293,8.293
	c-0.391,0.391-1.023,0.391-1.414,0s-0.391-1.023,0-1.414l10-10c0.092-0.092,0.203-0.165,0.325-0.216c0.245-0.101,0.52-0.101,0.764,0
	c0.122,0.051,0.233,0.124,0.325,0.216l10,10C43.098,27.684,43.098,28.316,42.707,28.707z"/>
</svg>
