<?xml version="1.0" encoding="utf-8"?>
<!-- Generator: Adobe Illustrator 20.1.0, SVG Export Plug-In . SVG Version: 6.00 Build 0)  -->
<!DOCTYPE svg PUBLIC "-//W3C//DTD SVG 1.1//EN" "http://www.w3.org/Graphics/SVG/1.1/DTD/svg11.dtd">
<svg version="1.1" id="Layer_1" xmlns="http://www.w3.org/2000/svg" xmlns:xlink="http://www.w3.org/1999/xlink" x="0px" y="0px"
	 width="64px" height="64px" viewBox="0 0 64 64" enable-background="new 0 0 64 64" xml:space="preserve">
<path d="M57,15H44c-0.552,0-1-0.448-1-1V1H9C7.895,1,7,1.895,7,3v58c0,1.105,0.895,2,2,2h46c1.105,0,2-0.895,2-2V15z M44.707,24.707
	l-16,16C28.512,40.902,28.256,41,28,41s-0.512-0.098-0.707-0.293l-8-8c-0.391-0.391-0.391-1.023,0-1.414s1.023-0.391,1.414,0
	L28,38.586l15.293-15.293c0.391-0.391,1.023-0.391,1.414,0S45.098,24.316,44.707,24.707z"/>
<polygon points="45,13 56.414,13 45,1.586 "/>
</svg>
