<?xml version="1.0" encoding="utf-8"?>
<!-- Generator: Adobe Illustrator 20.1.0, SVG Export Plug-In . SVG Version: 6.00 Build 0)  -->
<!DOCTYPE svg PUBLIC "-//W3C//DTD SVG 1.1//EN" "http://www.w3.org/Graphics/SVG/1.1/DTD/svg11.dtd">
<svg version="1.1" id="Layer_1" xmlns="http://www.w3.org/2000/svg" xmlns:xlink="http://www.w3.org/1999/xlink" x="0px" y="0px"
	 width="64px" height="64px" viewBox="0 0 64 64" enable-background="new 0 0 64 64" xml:space="preserve">
<path d="M62,12H30.5l-5.7-7.6C24.611,4.148,24.315,4,24,4H2C1.448,4,1,4.447,1,5v50c0,2.757,2.243,5,5,5h52c2.757,0,5-2.243,5-5V13
	C63,12.447,62.552,12,62,12z M26,22c2.209,0,4,1.791,4,4c0,2.209-1.791,4-4,4s-4-1.791-4-4C22,23.791,23.791,22,26,22z
	 M50.882,48.472C50.708,48.797,50.369,49,50,49H14c-0.365,0-0.701-0.199-0.876-0.519c-0.176-0.32-0.163-0.71,0.033-1.019l7-11
	c0.147-0.231,0.384-0.393,0.653-0.444c0.272-0.055,0.549,0.009,0.772,0.168l6.245,4.46l9.406-11.287
	c0.202-0.242,0.502-0.378,0.821-0.358c0.315,0.018,0.604,0.182,0.779,0.444l12,18C51.037,47.752,51.056,48.146,50.882,48.472z"/>
</svg>
