<?xml version="1.0" encoding="utf-8"?>
<!-- Generator: Adobe Illustrator 20.1.0, SVG Export Plug-In . SVG Version: 6.00 Build 0)  -->
<!DOCTYPE svg PUBLIC "-//W3C//DTD SVG 1.1//EN" "http://www.w3.org/Graphics/SVG/1.1/DTD/svg11.dtd">
<svg version="1.1" id="Layer_1" xmlns="http://www.w3.org/2000/svg" xmlns:xlink="http://www.w3.org/1999/xlink" x="0px" y="0px"
	 width="64px" height="64px" viewBox="0 0 64 64" enable-background="new 0 0 64 64" xml:space="preserve">
<path d="M32,19c-7.168,0-13,5.832-13,13c0,3.225,1.187,6.173,3.139,8.447l18.309-18.309C38.173,20.187,35.225,19,32,19z"/>
<path d="M23.553,41.861C25.827,43.813,28.775,45,32,45c7.168,0,13-5.832,13-13c0-3.225-1.187-6.173-3.138-8.447L23.553,41.861z"/>
<path d="M57,15H44c-0.552,0-1-0.448-1-1V1H9C7.895,1,7,1.895,7,3v58c0,1.105,0.895,2,2,2h46c1.105,0,2-0.895,2-2V15z M32,47
	c-8.271,0-15-6.729-15-15s6.729-15,15-15s15,6.729,15,15S40.271,47,32,47z"/>
<polygon points="45,13 56.414,13 45,1.586 "/>
</svg>
