<?xml version="1.0" encoding="utf-8"?>
<!-- Generator: Adobe Illustrator 20.1.0, SVG Export Plug-In . SVG Version: 6.00 Build 0)  -->
<!DOCTYPE svg PUBLIC "-//W3C//DTD SVG 1.1//EN" "http://www.w3.org/Graphics/SVG/1.1/DTD/svg11.dtd">
<svg version="1.1" id="Layer_1" xmlns="http://www.w3.org/2000/svg" xmlns:xlink="http://www.w3.org/1999/xlink" x="0px" y="0px"
	 width="64px" height="64px" viewBox="0 0 64 64" enable-background="new 0 0 64 64" xml:space="preserve">
<path d="M8,63h48c1.105,0,2-0.895,2-2V3c0-1.105-0.895-2-2-2H8C6.895,1,6,1.895,6,3v58C6,62.105,6.895,63,8,63z M40,56.414V45
	h11.414L40,56.414z M12,8c0-0.552,0.448-1,1-1h38c0.552,0,1,0.448,1,1v35H39c-0.552,0-1,0.448-1,1v13H13c-0.552,0-1-0.448-1-1V8z"/>
</svg>
