<?xml version="1.0" encoding="utf-8"?>
<!-- Generator: Adobe Illustrator 20.1.0, SVG Export Plug-In . SVG Version: 6.00 Build 0)  -->
<!DOCTYPE svg PUBLIC "-//W3C//DTD SVG 1.1//EN" "http://www.w3.org/Graphics/SVG/1.1/DTD/svg11.dtd">
<svg version="1.1" id="Layer_1" xmlns="http://www.w3.org/2000/svg" xmlns:xlink="http://www.w3.org/1999/xlink" x="0px" y="0px"
	 width="64px" height="64px" viewBox="0 0 64 64" enable-background="new 0 0 64 64" xml:space="preserve">
<path d="M62.946,42.733c-0.019-0.066-0.038-0.129-0.069-0.189c-0.011-0.022-0.012-0.047-0.025-0.068L55,29.717v3.815L60.211,42H42
	c-0.552,0-1,0.448-1,1v5H23v-5c0-0.552-0.448-1-1-1H3.789L9,33.533v-3.815L1.148,42.476c-0.013,0.022-0.014,0.046-0.025,0.069
	c-0.031,0.06-0.05,0.122-0.069,0.188c-0.018,0.066-0.035,0.129-0.039,0.195C1.013,42.953,1,42.974,1,43v17c0,1.105,0.895,2,2,2h58
	c1.105,0,2-0.895,2-2V43c0-0.026-0.013-0.047-0.015-0.072C62.981,42.861,62.965,42.798,62.946,42.733z"/>
<path d="M53,4c0-1.105-0.895-2-2-2H13c-1.105,0-2,0.895-2,2v36h42V4z M42.707,13.707l-14,14C28.512,27.902,28.256,28,28,28
	s-0.512-0.098-0.707-0.293l-6-6c-0.391-0.391-0.391-1.023,0-1.414s1.023-0.391,1.414,0L28,25.586l13.293-13.293
	c0.391-0.391,1.023-0.391,1.414,0S43.098,13.316,42.707,13.707z"/>
</svg>
