<?xml version="1.0" encoding="utf-8"?>
<!-- Generator: Adobe Illustrator 20.1.0, SVG Export Plug-In . SVG Version: 6.00 Build 0)  -->
<!DOCTYPE svg PUBLIC "-//W3C//DTD SVG 1.1//EN" "http://www.w3.org/Graphics/SVG/1.1/DTD/svg11.dtd">
<svg version="1.1" id="Layer_1" xmlns="http://www.w3.org/2000/svg" xmlns:xlink="http://www.w3.org/1999/xlink" x="0px" y="0px"
	 width="64px" height="64px" viewBox="0 0 64 64" enable-background="new 0 0 64 64" xml:space="preserve">
<polygon points="45,13 56.414,13 45,1.586 "/>
<path d="M7,61c0,1.105,0.895,2,2,2h46c1.105,0,2-0.895,2-2V15H44c-0.552,0-1-0.448-1-1V1H9C7.895,1,7,1.895,7,3V61z M23,21
	c0-0.362,0.195-0.695,0.511-0.872c0.316-0.177,0.702-0.17,1.011,0.019l18,11C42.819,31.329,43,31.652,43,32
	s-0.181,0.671-0.479,0.854l-18,11C24.362,43.951,24.181,44,24,44c-0.168,0-0.337-0.042-0.489-0.128C23.195,43.695,23,43.362,23,43
	V21z"/>
</svg>
