<?xml version="1.0" encoding="utf-8"?>
<!-- Generator: Adobe Illustrator 20.1.0, SVG Export Plug-In . SVG Version: 6.00 Build 0)  -->
<!DOCTYPE svg PUBLIC "-//W3C//DTD SVG 1.1//EN" "http://www.w3.org/Graphics/SVG/1.1/DTD/svg11.dtd">
<svg version="1.1" id="Layer_1" xmlns="http://www.w3.org/2000/svg" xmlns:xlink="http://www.w3.org/1999/xlink" x="0px" y="0px"
	 width="64px" height="64px" viewBox="0 0 64 64" enable-background="new 0 0 64 64" xml:space="preserve">
<polygon points="45,13 56.414,13 45,1.586 "/>
<path d="M7,61c0,1.105,0.895,2,2,2h46c1.105,0,2-0.895,2-2V15H44c-0.552,0-1-0.448-1-1V1H9C7.895,1,7,1.895,7,3V61z M32,18
	c7.732,0,14,6.268,14,14s-6.268,14-14,14s-14-6.268-14-14S24.268,18,32,18z"/>
<path d="M32,33h7c0.552,0,1-0.448,1-1s-0.448-1-1-1h-6v-6c0-0.552-0.448-1-1-1s-1,0.448-1,1v7C31,32.552,31.448,33,32,33z"/>
</svg>
