<?xml version="1.0" encoding="utf-8"?>
<!-- Generator: Adobe Illustrator 20.1.0, SVG Export Plug-In . SVG Version: 6.00 Build 0)  -->
<!DOCTYPE svg PUBLIC "-//W3C//DTD SVG 1.1//EN" "http://www.w3.org/Graphics/SVG/1.1/DTD/svg11.dtd">
<svg version="1.1" id="Layer_1" xmlns="http://www.w3.org/2000/svg" xmlns:xlink="http://www.w3.org/1999/xlink" x="0px" y="0px"
	 width="64px" height="64px" viewBox="0 0 64 64" enable-background="new 0 0 64 64" xml:space="preserve">
<path d="M62,5H2C1.448,5,1,5.448,1,6v12c0,0.552,0.448,1,1,1h60c0.552,0,1-0.448,1-1V6C63,5.448,62.552,5,62,5z"/>
<path d="M55,59c1.105,0,2-0.895,2-2V21H7v36c0,1.105,0.895,2,2,2H55z M23,30c0-0.552,0.448-1,1-1h16c0.552,0,1,0.448,1,1v10
	c0,0.552-0.448,1-1,1H24c-0.552,0-1-0.448-1-1V30z"/>
</svg>
