<?xml version="1.0" encoding="utf-8"?>
<!-- Generator: Adobe Illustrator 19.1.0, SVG Export Plug-In . SVG Version: 6.00 Build 0)  -->
<!DOCTYPE svg PUBLIC "-//W3C//DTD SVG 1.1//EN" "http://www.w3.org/Graphics/SVG/1.1/DTD/svg11.dtd">
<svg version="1.1" id="Layer_1" xmlns="http://www.w3.org/2000/svg" xmlns:xlink="http://www.w3.org/1999/xlink" x="0px" y="0px"
	 width="24px" height="24px" viewBox="0 0 24 24" enable-background="new 0 0 24 24" xml:space="preserve">
<path d="M22,20v1c0,0.55127-0.44824,1-1,1h-5v-2h4v-4c0-2.20557-1.79395-4-4-4h-2v-1V9V7V5V0H2v20h4v2H0v2h6h2h6h2h5
	c1.6543,0,3-1.3457,3-3v-1H22z M4,18V2h8v3H9v2h3v2H9v2h3v3h4c1.10254,0,2,0.89697,2,2v2h-2h-2H8H6H4z M8,22v-2h6v2H8z"/>
</svg>
