<?xml version="1.0" encoding="utf-8"?>
<!-- Generator: Adobe Illustrator 19.1.0, SVG Export Plug-In . SVG Version: 6.00 Build 0)  -->
<!DOCTYPE svg PUBLIC "-//W3C//DTD SVG 1.1//EN" "http://www.w3.org/Graphics/SVG/1.1/DTD/svg11.dtd">
<svg version="1.1" id="Layer_1" xmlns="http://www.w3.org/2000/svg" xmlns:xlink="http://www.w3.org/1999/xlink" x="0px" y="0px"
	 width="24px" height="24px" viewBox="0 0 24 24" enable-background="new 0 0 24 24" xml:space="preserve">
<path d="M18.40033,14.72736l-1.13177-6.00177c4.06299,0.38232,5.28955-0.5835,5.66602-1.36963
	c0.18604-0.48779,0.08496-1.01855-0.2998-1.57715C21.22803,3.73779,14.74121,0,12,0C9.45935,0,7.2301,7.42102,5.65204,14.72015
	C2.06201,15.59839,0,17.13464,0,19c0,3.28271,6.03662,5,12,5s12-1.71729,12-5C24,17.13312,21.95721,15.59937,18.40033,14.72736z
	 M16.86816,17.39355C16.10156,17.646,14.56836,18,12,18c-2.56494,0-4.09717-0.35303-4.86035-0.60303
	c0.138-0.68152,0.28552-1.36804,0.43726-2.05359c1.27057,0.42444,3.01819,0.66589,4.77417,0.66589
	c1.48499,0,2.96448-0.17389,4.15302-0.54578L16.86816,17.39355z M12.06934,2.00098c2.10303,0.07129,7.49219,3.29834,8.73828,4.67139
	c-1.12451,0.31934-4.4375,0.0542-7.58984-0.64844l-0.43555,1.95215c0.87158,0.19434,1.66846,0.3501,2.39844,0.47168l0.94958,5.03394
	c-2.12378,0.76697-6.27252,0.6322-8.10742-0.08423C9.37811,7.72485,11.04822,2.59906,12.06934,2.00098z M12,22
	c-6.01172,0-10-1.80566-10-3c0-0.48083,0.91083-1.38074,3.19745-2.0871c-0.06,0.29913-0.12128,0.60016-0.17889,0.89569
	L4.8877,18.48047l0.57812,0.36523C5.65332,18.96387,7.42627,20,12,20s6.34668-1.03613,6.53418-1.1543l0.57422-0.36328
	l-0.29651-1.57227C20.8822,17.55127,22,18.40479,22,19C22,20.19434,18.01172,22,12,22z"/>
</svg>
