<?xml version="1.0" encoding="utf-8"?>
<!-- Generator: Adobe Illustrator 19.1.0, SVG Export Plug-In . SVG Version: 6.00 Build 0)  -->
<!DOCTYPE svg PUBLIC "-//W3C//DTD SVG 1.1//EN" "http://www.w3.org/Graphics/SVG/1.1/DTD/svg11.dtd">
<svg version="1.1" id="Layer_1" xmlns="http://www.w3.org/2000/svg" xmlns:xlink="http://www.w3.org/1999/xlink" x="0px" y="0px"
	 width="24px" height="24px" viewBox="0 0 24 24" enable-background="new 0 0 24 24" xml:space="preserve">
<circle cx="9" cy="9" r="2"/>
<circle cx="15" cy="9" r="2"/>
<path d="M12,12c-2.75684,0-5,2.24316-5,5v1h6v2h2v-2h2v-1C17,14.24316,14.75684,12,12,12z M9.17139,16
	c0.4126-1.16406,1.5249-2,2.82861-2s2.41602,0.83594,2.82861,2H13H9.17139z"/>
<path d="M19,5V4h-1c-1.6543,0-3-1.3457-3-3V0h-5C5.58887,0,2,3.58887,2,8v6c0,5.51416,4.48584,10,10,10s10-4.48584,10-10V7h-1
	C19.89697,7,19,6.10303,19,5z M20,14c0,4.41113-3.58887,8-8,8s-8-3.58887-8-8V8c0-3.30859,2.69141-6,6-6h3.10059
	c0.40576,1.9917,1.99951,3.55664,4.00635,3.91992C17.44727,7.36133,18.56982,8.50391,20,8.87354V14z"/>
</svg>
