<?xml version="1.0" encoding="utf-8"?>
<!-- Generator: Adobe Illustrator 19.1.0, SVG Export Plug-In . SVG Version: 6.00 Build 0)  -->
<!DOCTYPE svg PUBLIC "-//W3C//DTD SVG 1.1//EN" "http://www.w3.org/Graphics/SVG/1.1/DTD/svg11.dtd">
<svg version="1.1" id="Layer_1" xmlns="http://www.w3.org/2000/svg" xmlns:xlink="http://www.w3.org/1999/xlink" x="0px" y="0px"
	 width="24px" height="24px" viewBox="0 0 24 24" enable-background="new 0 0 24 24" xml:space="preserve">
<path d="M18.41309,7.90967l2.71814,1.9707L12,14.86108L2.86877,9.88037l2.71814-1.9707L4.41309,6.29053L0,9.48975V23h24V9.48975
	l-4.41309-3.19922L18.41309,7.90967z M22,11.68439v8.63123L14.08807,16L22,11.68439z M2,11.68439L19.07861,21H2V11.68439z"/>
<path d="M11.3623,10.46289L12,10.98975l0.6377-0.52686C13.36621,9.86084,17,6.729,17,4.23096C17,2.41943,15.61426,1,13.8457,1
	C13.16699,1,12.52637,1.20508,12,1.57471C11.47363,1.20508,10.83301,1,10.1543,1C8.38574,1,7,2.41943,7,4.23096
	C7,6.729,10.63379,9.86084,11.3623,10.46289z M10.1543,3c0.41699,0,0.79004,0.19824,0.99805,0.53027L12,4.88574l0.84766-1.35547
	C13.05566,3.19824,13.42871,3,13.8457,3C14.50391,3,15,3.5293,15,4.23096c0,1.00146-1.59277,2.84521-3,4.13428
	c-1.40723-1.28906-3-3.13281-3-4.13428C9,3.5293,9.49609,3,10.1543,3z"/>
</svg>
