<?xml version="1.0" encoding="utf-8"?>
<!-- Generator: Adobe Illustrator 19.1.0, SVG Export Plug-In . SVG Version: 6.00 Build 0)  -->
<!DOCTYPE svg PUBLIC "-//W3C//DTD SVG 1.1//EN" "http://www.w3.org/Graphics/SVG/1.1/DTD/svg11.dtd">
<svg version="1.1" id="Layer_1" xmlns="http://www.w3.org/2000/svg" xmlns:xlink="http://www.w3.org/1999/xlink" x="0px" y="0px"
	 width="24px" height="24px" viewBox="0 0 24 24" enable-background="new 0 0 24 24" xml:space="preserve">
<path d="M11,0v12.09033C8.16687,12.56866,6,15.03278,6,18c0,3.30859,2.69141,6,6,6s6-2.69141,6-6
	c0-2.96722-2.16687-5.43134-5-5.90967V0H11z M16,18c0,2.20557-1.79443,4-4,4s-4-1.79443-4-4s1.79443-4,4-4S16,15.79443,16,18z"/>
<path d="M9.41406,9L6,5.58594V0H4v5.58594L0.58594,9L5,13.41406L9.41406,9z M5,7.41406L6.58594,9L5,10.58594L3.41406,9L5,7.41406z"
	/>
<path d="M20,5.58594V0h-2v5.58594L14.58594,9L19,13.41406L23.41406,9L20,5.58594z M17.41406,9L19,7.41406L20.58594,9L19,10.58594
	L17.41406,9z"/>
</svg>
