<?xml version="1.0" encoding="utf-8"?>
<!-- Generator: Adobe Illustrator 19.1.0, SVG Export Plug-In . SVG Version: 6.00 Build 0)  -->
<!DOCTYPE svg PUBLIC "-//W3C//DTD SVG 1.1//EN" "http://www.w3.org/Graphics/SVG/1.1/DTD/svg11.dtd">
<svg version="1.1" id="Layer_1" xmlns="http://www.w3.org/2000/svg" xmlns:xlink="http://www.w3.org/1999/xlink" x="0px" y="0px"
	 width="24px" height="24px" viewBox="0 0 24 24" enable-background="new 0 0 24 24" xml:space="preserve">
<circle cx="9" cy="15" r="2"/>
<path d="M21.6084,0.33789c-2.59277-1.45752-6.88379,2.57178-8.46094,5.13867c-0.09729,0.15857-0.19324,0.32739-0.28851,0.49902
	c-0.84839-2.29596-2.17621-4.58545-3.53473-5.51172C8.74805,0.07129,8.17578-0.07568,7.62598,0.03369
	C7.24707,0.10742,6.70703,0.3457,6.2793,1.06006C5.16736,2.91986,5.383,7.24084,6.0296,9.87213
	C4.17358,11.44403,3,13.83423,3,16.43799V18c0,3.30859,2.69141,6,6,6h1.78223c4.02637,0,7.43066-2.78027,8.09668-6.61084
	c0.23926-1.37695,0.11914-2.77002-0.34668-4.0708c0.88965-0.86475,1.71094-1.84961,2.30859-2.77637
	c1.2334-1.91309,2.58887-6.05078,1.99609-8.44287C22.58203,1.07129,22.02832,0.57373,21.6084,0.33789z M8.03418,2.01562
	c0.7417,0.24768,2.57245,3,3.38776,6.00604C10.52423,7.9715,9.63995,8.07037,8.7793,8.33447
	C8.44464,8.43671,8.12885,8.57812,7.81537,8.7229C7.26288,5.9397,7.47772,2.63751,8.03418,2.01562z M19.15918,9.45801
	c-0.61914,0.96045-1.52246,2.00049-2.47949,2.85303L16.125,12.80566l0.31348,0.67383c0.51953,1.1167,0.68164,2.3501,0.46973,3.56689
	C16.41797,19.87061,13.78418,22,10.78223,22H9c-2.20605,0-4-1.79443-4-4v-1.56201c0-2.85986,1.79395-5.40576,4.36328-6.19141
	c0.54102-0.16504,1.08301-0.24756,1.63477-0.24756c0.43262,0,0.87109,0.05029,1.32129,0.15137l0.87402,0.19629l0.29102-0.84766
	c0.36914-1.07715,0.86719-2.16162,1.36719-2.97559c1.59473-2.59521,4.90527-4.93311,5.77637-4.44238
	c0.10645,0.06006,0.2041,0.2417,0.26758,0.49902C21.29883,4.20801,20.27832,7.72266,19.15918,9.45801z"/>
</svg>
