<?xml version="1.0" encoding="utf-8"?>
<!-- Generator: Adobe Illustrator 19.1.0, SVG Export Plug-In . SVG Version: 6.00 Build 0)  -->
<!DOCTYPE svg PUBLIC "-//W3C//DTD SVG 1.1//EN" "http://www.w3.org/Graphics/SVG/1.1/DTD/svg11.dtd">
<svg version="1.1" id="Layer_1" xmlns="http://www.w3.org/2000/svg" xmlns:xlink="http://www.w3.org/1999/xlink" x="0px" y="0px"
	 width="24px" height="24px" viewBox="0 0 24 24" enable-background="new 0 0 24 24" xml:space="preserve">
<path d="M7.98145,23.97607c1.53711,0,3.07422-0.58545,4.24512-1.75586L19,15.4126V7h3V0H4v7h3v3.51123l-3.26025,3.22559
	c-1.1333,1.13281-1.75732,2.63965-1.75732,4.24219s0.62402,3.10938,1.75732,4.24268
	C4.90918,23.39111,6.44531,23.97607,7.98145,23.97607z M6,5V2h14v3h-1h-2H9V4.99951H7V5H6z M5.1499,15.15479L9,11.34619V7h8v7.5874
	l-6.18945,6.22021c-1.55859,1.55957-4.09619,1.56055-5.65674,0c-0.75537-0.75537-1.17139-1.76025-1.17139-2.82861
	S4.39844,15.90625,5.1499,15.15479z"/>
</svg>
