<?xml version="1.0" encoding="utf-8"?>
<!-- Generator: Adobe Illustrator 19.1.0, SVG Export Plug-In . SVG Version: 6.00 Build 0)  -->
<!DOCTYPE svg PUBLIC "-//W3C//DTD SVG 1.1//EN" "http://www.w3.org/Graphics/SVG/1.1/DTD/svg11.dtd">
<svg version="1.1" id="Layer_1" xmlns="http://www.w3.org/2000/svg" xmlns:xlink="http://www.w3.org/1999/xlink" x="0px" y="0px"
	 width="24px" height="24px" viewBox="0 0 24 24" enable-background="new 0 0 24 24" xml:space="preserve">
<path d="M21,7.55634V7c0-3.85986-3.14062-7-7-7h-4C6.14062,0,3,3.14014,3,7v0.55634C2.4093,7.21185,1.73187,7,1,7H0v4
	c0,1.85834,1.27948,3.41083,3,3.85803V15c0,4.9624,4.03711,9,9,9s9-4.0376,9-9v-0.14197c1.72052-0.4472,3-1.99969,3-3.85803V7h-1
	C22.26813,7,21.5907,7.21185,21,7.55634z M10,2h4c1.45795,0,2.76001,0.63812,3.6748,1.63702C16.86829,3.23309,15.96185,3,15,3
	c-1.05762,0-2.08203,0.28223-3,0.82129C11.08203,3.28223,10.05762,3,9,3C8.03815,3,7.13171,3.23309,6.3252,3.63702
	C7.23999,2.63812,8.54205,2,10,2z M2,11V9.26855C2.59766,9.61475,3,10.26123,3,11v1.73145C2.40234,12.38525,2,11.73877,2,11z M12,22
	c-3.85938,0-7-3.14014-7-7v-4v-1V9c0-2.20557,1.79395-4,4-4c0.85742,0,1.68652,0.28369,2.39746,0.82031L12,6.27539l0.60254-0.45508
	C13.31348,5.28369,14.14258,5,15,5c2.20605,0,4,1.79443,4,4v1v1v4C19,18.85986,15.85938,22,12,22z M22,11
	c0,0.73877-0.40234,1.38525-1,1.73145V11c0-0.73877,0.40234-1.38525,1-1.73145V11z"/>
<polygon points="9,20.23584 10.61816,17 13.38184,17 15,20.23584 17.61816,15 6.38184,15 "/>
<circle cx="9" cy="10" r="2"/>
<circle cx="15" cy="10" r="2"/>
</svg>
