<?xml version="1.0" encoding="utf-8"?>
<!-- Generator: Adobe Illustrator 19.1.0, SVG Export Plug-In . SVG Version: 6.00 Build 0)  -->
<!DOCTYPE svg PUBLIC "-//W3C//DTD SVG 1.1//EN" "http://www.w3.org/Graphics/SVG/1.1/DTD/svg11.dtd">
<svg version="1.1" id="Layer_1" xmlns="http://www.w3.org/2000/svg" xmlns:xlink="http://www.w3.org/1999/xlink" x="0px" y="0px"
	 width="24px" height="24px" viewBox="0 0 24 24" enable-background="new 0 0 24 24" xml:space="preserve">
<circle cx="9" cy="13" r="2"/>
<circle cx="15" cy="13" r="2"/>
<rect x="9" y="17" width="6" height="2"/>
<path d="M22,10h-1V7V5V3c0-1.6543-1.3457-3-3-3H6C4.3457,0,3,1.3457,3,3v2v2v3H2V8H0v2v2v2h2v-2h1v3c0,4.9624,4.03711,9,9,9
	s9-4.0376,9-9v-3h1v2h2v-2v-2V8h-2V10z M5,3c0-0.55127,0.44824-1,1-1h12c0.55176,0,1,0.44873,1,1v2h-2V4h-2v1h-2V4h-2v1H9V4H7v1H5V3
	z M19,15c0,3.85986-3.14062,7-7,7s-7-3.14014-7-7v-3v-2V7h2v1h2V7h2v1h2V7h2v1h2V7h2v3v2V15z"/>
</svg>
