<?xml version="1.0" encoding="utf-8"?>
<!-- Generator: Adobe Illustrator 19.1.0, SVG Export Plug-In . SVG Version: 6.00 Build 0)  -->
<!DOCTYPE svg PUBLIC "-//W3C//DTD SVG 1.1//EN" "http://www.w3.org/Graphics/SVG/1.1/DTD/svg11.dtd">
<svg version="1.1" id="Layer_1" xmlns="http://www.w3.org/2000/svg" xmlns:xlink="http://www.w3.org/1999/xlink" x="0px" y="0px"
	 width="24px" height="24px" viewBox="0 0 24 24" enable-background="new 0 0 24 24" xml:space="preserve">
<path d="M12,0C5.3833,0,0,5.3833,0,12v6v1v5h24v-5v-1v-6C24,5.3833,18.6167,0,12,0z M22,22H2v-2h20V22z M22,18H2v-6
	C2,6.48584,6.48584,2,12,2s10,4.48584,10,10V18z"/>
<rect x="10" y="5" width="2" height="3"/>
<rect x="6" y="10" width="2" height="3"/>
<rect x="16" y="8" width="2" height="3"/>
<rect x="12" y="13" width="2" height="3"/>
</svg>
