<?xml version="1.0" encoding="utf-8"?>
<!-- Generator: Adobe Illustrator 19.1.0, SVG Export Plug-In . SVG Version: 6.00 Build 0)  -->
<!DOCTYPE svg PUBLIC "-//W3C//DTD SVG 1.1//EN" "http://www.w3.org/Graphics/SVG/1.1/DTD/svg11.dtd">
<svg version="1.1" id="Layer_1" xmlns="http://www.w3.org/2000/svg" xmlns:xlink="http://www.w3.org/1999/xlink" x="0px" y="0px"
	 width="24px" height="24px" viewBox="0 0 24 24" enable-background="new 0 0 24 24" xml:space="preserve">
<path d="M3.72266,18.95703c-1.16992,1.16943-1.16992,3.07324,0,4.24268c0.58447,0.58496,1.35254,0.87695,2.12109,0.87695
	c0.76807,0,1.53662-0.29199,2.12158-0.87695L19.1084,12.05615c2.729-2.729,2.729-7.16992,0-9.89941
	c-2.72852-2.72949-7.16943-2.72803-9.8999,0C8.03955,3.32666,8.03955,5.22949,9.20898,6.3999
	c1.16943,1.16846,3.07227,1.16797,4.24268-0.00049c0.38965-0.39062,1.0249-0.38965,1.41455,0
	c0.18799,0.18848,0.29199,0.43945,0.29199,0.70703s-0.104,0.51855-0.29199,0.70703L3.72266,18.95703z M17.01105,11.32538
	l-1.82001,1.82001l-0.94299-1.88562l1.63147-1.63147L17.01105,11.32538z M11.24872,14.25909l1.50848-1.50848l0.94299,1.88562
	l-1.50903,1.50903L11.24872,14.25909z M10.7005,17.63593l-1.50946,1.50946l-0.94299-1.88562l1.51001-1.51001L10.7005,17.63593z
	 M5.13672,21.78564c-0.18896-0.18896-0.29297-0.44043-0.29297-0.70752c0-0.2666,0.104-0.51807,0.29297-0.70703l1.62048-1.62048
	l0.94299,1.88562l-1.14893,1.14893C6.16162,22.1748,5.52637,22.17529,5.13672,21.78564z M18.37927,9.77228l-1.31293-1.96899
	c0.10376-0.43604,0.11346-0.88782,0.02014-1.32574l1.73328-1.15533C19.37299,6.77496,19.22656,8.43018,18.37927,9.77228z
	 M10.62354,4.98535C10.2334,4.59521,10.2334,3.96094,10.62305,3.5708C11.30084,2.89331,12.12964,2.46698,13,2.26044v2.08228
	c-0.34961,0.14606-0.67816,0.35815-0.9624,0.64215C11.64844,5.375,11.0127,5.37549,10.62354,4.98535z M15,4.242V2.18933
	c0.98712,0.16724,1.93414,0.62128,2.69434,1.38147c0.01971,0.01978,0.03247,0.04346,0.05182,0.06348l-1.71783,1.14508
	C15.7157,4.5285,15.36829,4.34937,15,4.242z"/>
</svg>
