<?xml version="1.0" encoding="utf-8"?>
<!-- Generator: Adobe Illustrator 19.1.0, SVG Export Plug-In . SVG Version: 6.00 Build 0)  -->
<!DOCTYPE svg PUBLIC "-//W3C//DTD SVG 1.1//EN" "http://www.w3.org/Graphics/SVG/1.1/DTD/svg11.dtd">
<svg version="1.1" id="Layer_1" xmlns="http://www.w3.org/2000/svg" xmlns:xlink="http://www.w3.org/1999/xlink" x="0px" y="0px"
	 width="24px" height="24px" viewBox="0 0 24 24" enable-background="new 0 0 24 24" xml:space="preserve">
<path d="M22,5c0-2.78369-7.6543-3-10-3S2,2.21631,2,5v3.68457C0.78516,10.4292,0,11.80322,0,14
	c0,2.54059,1.11462,4.15082,2.69769,5.18188l-1.52631,2.25806l1.65723,1.12012l1.68384-2.49115C7.09393,20.99445,10.17065,21,12,21
	s4.90607-0.00555,7.48755-0.93109l1.68384,2.49115l1.65723-1.12012l-1.52631-2.25806C22.88538,18.15082,24,16.54059,24,14
	c0-2.19678-0.78516-3.5708-2-5.31543V5z M12,4c3.93652,0,6.55469,0.55615,7.60596,0.99561
	c-0.58203,0.24658-1.72998,0.58008-3.71582,0.7998L15,5.89404V12c0,0.27588-0.22412,0.5-0.5,0.5S14,12.27588,14,12V5.96191
	L12.97559,5.9873C9.91797,6.06201,5.68164,5.64062,4.31396,5.03027C5.30811,4.58594,7.95947,4,12,4z M12,19
	c-7.19629,0-10-1.40186-10-5c0-1.66162,0.58203-2.66992,1.81738-4.42432L4,9.31689V7.01508
	c2.30908,0.80475,6.16656,0.95142,8,0.97223V12c0,1.37842,1.12158,2.5,2.5,2.5S17,13.37842,17,12V7.67188
	c1.32056-0.18689,2.28485-0.42719,3-0.68805v2.33307l0.18262,0.25879C21.41797,11.33008,22,12.33838,22,14
	C22,17.59814,19.19629,19,12,19z"/>
</svg>
