<?xml version="1.0" encoding="utf-8"?>
<!-- Generator: Adobe Illustrator 19.1.0, SVG Export Plug-In . SVG Version: 6.00 Build 0)  -->
<!DOCTYPE svg PUBLIC "-//W3C//DTD SVG 1.1//EN" "http://www.w3.org/Graphics/SVG/1.1/DTD/svg11.dtd">
<svg version="1.1" id="Layer_1" xmlns="http://www.w3.org/2000/svg" xmlns:xlink="http://www.w3.org/1999/xlink" x="0px" y="0px"
	 width="24px" height="24px" viewBox="0 0 24 24" enable-background="new 0 0 24 24" xml:space="preserve">
<path d="M12,24c5.51416,0,10-4.48584,10-10c0-4.0918-2.4726-7.61273-6-9.1593V0H8v4.8407C4.4726,6.38727,2,9.9082,2,14
	C2,19.51416,6.48584,24,12,24z M12,22c-3.34998,0-6.22125-2.07202-7.41101-5h14.82202C18.22125,19.92798,15.34998,22,12,22z M4,14
	c0-0.33936,0.02826-0.67163,0.06946-1h15.86108C19.97174,13.32837,20,13.66064,20,14s-0.02826,0.67163-0.06946,1H4.06946
	C4.02826,14.67163,4,14.33936,4,14z M10,2h4v2.20154C13.35358,4.06976,12.68481,4,12,4s-1.35358,0.06976-2,0.20154V2z M12,6
	c3.34998,0,6.22125,2.07202,7.41101,5H4.58899C5.77875,8.07202,8.65002,6,12,6z"/>
</svg>
