<?xml version="1.0" encoding="utf-8"?>
<!-- Generator: Adobe Illustrator 19.1.0, SVG Export Plug-In . SVG Version: 6.00 Build 0)  -->
<!DOCTYPE svg PUBLIC "-//W3C//DTD SVG 1.1//EN" "http://www.w3.org/Graphics/SVG/1.1/DTD/svg11.dtd">
<svg version="1.1" id="Layer_1" xmlns="http://www.w3.org/2000/svg" xmlns:xlink="http://www.w3.org/1999/xlink" x="0px" y="0px"
	 width="24px" height="24px" viewBox="0 0 24 24" enable-background="new 0 0 24 24" xml:space="preserve">
<path d="M12,4H8V3c0-1.6543-1.3457-3-3-3S2,1.3457,2,3v1H1v8h1v9c0,1.6543,1.3457,3,3,3s3-1.3457,3-3v-9h2
	c3.8667,0,7.51855,0,11.57471,1.90527l1.67725,0.7876l-0.26221-1.83447C22.03223,6.15234,19.36182,4,12,4z M4,3
	c0-0.55127,0.44873-1,1-1s1,0.44873,1,1v1H4V3z M6,21c0,0.55127-0.44873,1-1,1s-1-0.44873-1-1v-9h2V21z M10,10H3V6h1h2h2h4
	c5.70264,0,7.73584,1.10547,8.69385,5.37207C16.94287,10,13.55713,10,10,10z"/>
</svg>
