<?xml version="1.0" encoding="utf-8"?>
<!-- Generator: Adobe Illustrator 19.1.0, SVG Export Plug-In . SVG Version: 6.00 Build 0)  -->
<!DOCTYPE svg PUBLIC "-//W3C//DTD SVG 1.1//EN" "http://www.w3.org/Graphics/SVG/1.1/DTD/svg11.dtd">
<svg version="1.1" id="Layer_1" xmlns="http://www.w3.org/2000/svg" xmlns:xlink="http://www.w3.org/1999/xlink" x="0px" y="0px"
	 width="24px" height="24px" viewBox="0 0 24 24" enable-background="new 0 0 24 24" xml:space="preserve">
<path d="M22.60059,9.2998c1.54297-1.15771,1.85742-3.35596,0.69922-4.8999c-1.15723-1.54395-3.35742-1.85645-4.90723-0.69434
	l-0.66431,0.508C16.96613,1.77478,14.68665,0,12,0C9.31329,0,7.03387,1.77472,6.27173,4.21356L5.59961,3.69971
	C4.05566,2.54248,1.85742,2.85791,0.7002,4.3999c-1.1582,1.54395-0.84375,3.74219,0.69238,4.89453L5,12.05273v2.89453
	L1.39941,17.7002c-1.54297,1.15771-1.85742,3.35596-0.69922,4.8999c1.15723,1.54346,3.35742,1.85742,4.90723,0.69434
	l3.35547-2.56592c1.78906-1.36719,4.28711-1.36719,6.07422,0l3.36328,2.57178c0.62793,0.4707,1.36426,0.69775,2.09473,0.69775
	c1.06543,0,2.11816-0.48291,2.80469-1.39795c1.1582-1.54395,0.84375-3.74219-0.69238-4.89453L19,14.94727v-2.89453L22.60059,9.2998z
	 M21.7002,5.6001c0.49609,0.66162,0.36133,1.60352-0.30762,2.10547l-0.1001,0.07654l-1.8703-2.34613l0.17743-0.13568
	C20.26172,4.80518,21.20312,4.93896,21.7002,5.6001z M12,2c2.20605,0,4,1.79443,4,4s-1.79395,4-4,4S8,8.20557,8,6S9.79395,2,12,2z
	 M2.2998,5.6001c0.49512-0.66016,1.43945-0.7959,2.09277-0.30566l0.18524,0.1416L2.70758,7.78204L2.60059,7.7002
	C1.93848,7.20361,1.80371,6.26172,2.2998,5.6001z M2.2998,21.3999c-0.49609-0.66162-0.36133-1.60352,0.30762-2.10547
	l0.09869-0.07544l1.86566,2.34961l-0.17139,0.1311C3.73926,22.19629,2.79785,22.06152,2.2998,21.3999z M21.7002,21.3999
	c-0.49512,0.66113-1.4375,0.79785-2.09277,0.30566l-0.17743-0.13568l1.87018-2.34595l0.09924,0.07587
	C22.06152,19.79639,22.19629,20.73828,21.7002,21.3999z M19.71057,18.00836l-1.87018,2.34595l-1.58844-1.21466
	c-2.50391-1.91406-6-1.91406-8.50391,0l-1.58698,1.21362l-1.86566-2.34961L7,15.93555v-4.87109L4.29718,8.99756l1.7608-2.20874
	C6.44617,9.72504,8.95941,12,12,12s5.55383-2.27496,5.94202-5.21118l1.76086,2.2088L17,11.06445v4.87109L19.71057,18.00836z"/>
<rect x="11" y="13" width="2" height="3"/>
</svg>
