<?xml version="1.0" encoding="utf-8"?>
<!-- Generator: Adobe Illustrator 19.1.0, SVG Export Plug-In . SVG Version: 6.00 Build 0)  -->
<!DOCTYPE svg PUBLIC "-//W3C//DTD SVG 1.1//EN" "http://www.w3.org/Graphics/SVG/1.1/DTD/svg11.dtd">
<svg version="1.1" id="Layer_1" xmlns="http://www.w3.org/2000/svg" xmlns:xlink="http://www.w3.org/1999/xlink" x="0px" y="0px"
	 width="24px" height="24px" viewBox="0 0 24 24" enable-background="new 0 0 24 24" xml:space="preserve">
<polygon points="13,7 11,7 11,9 9,9 9,11 11,11 11,15 13,15 13,11 15,11 15,9 13,9 "/>
<path d="M22,10c0-5.51416-4.48584-10-10-10S2,4.48584,2,10v12H0v2h2h2h3v-1c0-0.55127,0.44873-1,1-1
	c0.29639,0,0.51465,0.13477,0.646,0.24805l1.05322,0.90967l0.52588-1.28857C10.68848,20.73389,11.77783,20,13,20
	c1.6543,0,3,1.3457,3,3v1h4h2h2v-2h-2V10z M17.89941,22C17.43506,19.7207,15.41455,18,13,18
	c-1.66406,0-3.1792,0.81396-4.1001,2.1416C8.60986,20.04834,8.30664,20,8,20c-1.30371,0-2.41602,0.83594-2.82861,2H4V10
	c0-4.41113,3.58887-8,8-8s8,3.58887,8,8v12H17.89941z"/>
</svg>
