<?xml version="1.0" encoding="utf-8"?>
<!-- Generator: Adobe Illustrator 19.2.0, SVG Export Plug-In . SVG Version: 6.00 Build 0)  -->
<!DOCTYPE svg PUBLIC "-//W3C//DTD SVG 1.1//EN" "http://www.w3.org/Graphics/SVG/1.1/DTD/svg11.dtd">
<svg version="1.1" id="Layer_1" xmlns="http://www.w3.org/2000/svg" xmlns:xlink="http://www.w3.org/1999/xlink" x="0px" y="0px"
	 width="48px" height="48px" viewBox="0 0 48 48" enable-background="new 0 0 48 48" xml:space="preserve">
<path fill="#72C472" d="M32.85421,9.17819c-0.84356,1.01229,0.30723,3.43114,0,4.919c-0.40937,1.9827-1.9676,2.9514-0.9838,3.9352
	c0.52061,0.5206,1.98228,2.05182,8.02395,3.71105c0.50622-4.65693-1.01824-9.49475-4.58064-13.05716
	c-0.25346-0.25346-0.51559-0.49277-0.78144-0.72566C34.03247,8.17767,33.39895,8.52447,32.85421,9.17819z"/>
<path fill="#72C472" d="M11.21059,20.9838c1.50233-0.37934,3.44462-1.38413,3.9352-3.9352
	c0.32629-1.69655,0.07791-4.01311,0.9838-4.919c1.20393-1.20393,4.56983,1.27995,6.8866,0.9838
	c2.04821-0.26183,3.12016-3.28253,3.41649-4.45644c0.30155-1.1945,0.22863-3.18549,0.0837-4.44818
	c-4.88931-0.77253-10.07009,0.71749-13.8301,4.47751c-3.39614,3.39614-4.93897,7.9515-4.63742,12.40418
	C9.0932,21.17436,10.61004,21.13545,11.21059,20.9838z"/>
<path fill="#BADEFC" d="M39.89435,21.74345c-6.04166-1.65923-7.50334-3.19045-8.02395-3.71105
	c-0.9838-0.9838,0.57443-1.9525,0.9838-3.9352c0.30723-1.48786-0.84356-3.90671,0-4.919
	c0.54474-0.65373,1.17826-1.00052,1.67806-1.21756c-2.33364-2.04404-5.1228-3.29475-8.01587-3.75185
	c0.14492,1.26269,0.21785,3.25368-0.0837,4.44818c-0.29633,1.17391-1.36828,4.1946-3.41649,4.45644
	c-2.31677,0.29615-5.68267-2.18773-6.8866-0.9838c-0.90589,0.90589-0.65751,3.22245-0.9838,4.919
	c-0.49058,2.55107-2.43287,3.55586-3.9352,3.9352c-0.60055,0.15165-2.11739,0.19056-3.16171,0.10667
	c0.25237,3.72642,1.79521,7.38103,4.63742,10.22324c6.23834,6.23834,16.38907,6.23834,22.62742,0
	C37.98965,28.63777,39.51411,25.24154,39.89435,21.74345z M18.09719,27.87041c-0.4919-2.4595,2.5415-2.04959,5.02793-6.96761
	c1.04009-2.05722,4.49303-1.40977,6.3947,0.4919c1.9017,1.9017,2.09976,4.74283,0.4919,6.3947
	C27.01937,30.86378,18.69892,30.87891,18.09719,27.87041z"/>
<path fill="#72C472" d="M29.51983,21.3947c-1.90167-1.90167-5.35461-2.54912-6.3947-0.4919
	c-2.48643,4.91801-5.51983,4.50811-5.02793,6.96761c0.60173,3.00851,8.92218,2.99338,11.91453-0.081
	C31.61959,26.13753,31.42153,23.2964,29.51983,21.3947z"/>
<path fill="#A67C52" d="M45,19.9917c0-5.29797-1.9834-10.29578-5.46588-14.11273l3.17242-3.17242
	c0.39062-0.39062,0.39062-1.02344,0-1.41406s-1.02344-0.39062-1.41406,0l-3.18005,3.18005
	c-0.82434-0.74701-1.70685-1.44171-2.65784-2.06189c-0.46338-0.30176-1.08301-0.17188-1.38379,0.29102
	c-0.30176,0.46289-0.17139,1.08252,0.29102,1.38379C39.771,7.61328,43,13.55957,43,19.9917C43,30.46387,34.47656,39,24,39
	c-5.06396,0-9.86877-2.03589-13.40009-5.55487c-0.00781-0.00836-0.01019-0.01947-0.01837-0.02765
	c-0.00745-0.00745-0.01758-0.00958-0.02521-0.01672c-0.80383-0.80627-1.54187-1.68884-2.20038-2.64294
	c-0.31445-0.45459-0.93652-0.56934-1.39111-0.25537S6.396,31.43896,6.70947,31.89355
	c0.54132,0.78436,1.13501,1.52045,1.76715,2.21478l-3.18414,3.18414c-0.39062,0.39062-0.39062,1.02344,0,1.41406
	c0.19531,0.19531,0.45117,0.29297,0.70703,0.29297s0.51172-0.09766,0.70703-0.29297l3.1853-3.1853
	C13.47418,38.77386,18.10004,40.70111,23,40.9364V45h-7c-0.55225,0-1,0.44775-1,1s0.44775,1,1,1h16c0.55225,0,1-0.44775,1-1
	s-0.44775-1-1-1h-7v-4.06726C36.11389,40.4057,45,31.229,45,19.9917z"/>
</svg>
