<?xml version="1.0" encoding="utf-8"?>
<!-- Generator: Adobe Illustrator 19.2.0, SVG Export Plug-In . SVG Version: 6.00 Build 0)  -->
<!DOCTYPE svg PUBLIC "-//W3C//DTD SVG 1.1//EN" "http://www.w3.org/Graphics/SVG/1.1/DTD/svg11.dtd">
<svg version="1.1" id="Layer_1" xmlns="http://www.w3.org/2000/svg" xmlns:xlink="http://www.w3.org/1999/xlink" x="0px" y="0px"
	 width="48px" height="48px" viewBox="0 0 48 48" enable-background="new 0 0 48 48" xml:space="preserve">
<path fill="#E6E6E6" d="M39,3H9C5.68629,3,3,5.68629,3,9v30c0,3.31371,2.68629,6,6,6h30c3.31371,0,6-2.68629,6-6V9
	C45,5.68629,42.31371,3,39,3z"/>
<path fill="#444444" d="M32,20c-2.20573,0-4-1.79427-4-4s1.79427-4,4-4s4,1.79427,4,4S34.20573,20,32,20z"/>
<path fill="#444444" d="M16,20c-2.20573,0-4-1.79427-4-4s1.79427-4,4-4s4,1.79427,4,4S18.20573,20,16,20z"/>
<path fill="#444444" d="M32,36c-2.20573,0-4-1.79427-4-4s1.79427-4,4-4s4,1.79427,4,4S34.20573,36,32,36z"/>
<path fill="#444444" d="M16,36c-2.20573,0-4-1.79427-4-4s1.79427-4,4-4s4,1.79427,4,4S18.20573,36,16,36z"/>
</svg>
