<?xml version="1.0" encoding="utf-8"?>
<!-- Generator: Adobe Illustrator 19.2.0, SVG Export Plug-In . SVG Version: 6.00 Build 0)  -->
<!DOCTYPE svg PUBLIC "-//W3C//DTD SVG 1.1//EN" "http://www.w3.org/Graphics/SVG/1.1/DTD/svg11.dtd">
<svg version="1.1" id="Layer_1" xmlns="http://www.w3.org/2000/svg" xmlns:xlink="http://www.w3.org/1999/xlink" x="0px" y="0px"
	 width="48px" height="48px" viewBox="0 0 48 48" enable-background="new 0 0 48 48" xml:space="preserve">
<path fill="#5B5B5B" d="M32,45h-7V24c0-0.55225-0.44775-1-1-1s-1,0.44775-1,1v21h-7c-0.55225,0-1,0.44775-1,1s0.44775,1,1,1h16
	c0.55225,0,1-0.44775,1-1S32.55225,45,32,45z"/>
<path fill="#9EDB9E" d="M24,5c5.92151,2.94727,8,10.20001,8,20h11.89893c0.28223,0,0.55176-0.11963,0.74121-0.32861
	c0.18945-0.20947,0.28174-0.48926,0.25391-0.77002C43.82422,13.12598,34.8418,5,24,5z"/>
<path fill="#9EDB9E" d="M24,5C13.15869,5,4.17627,13.12549,3.10596,23.90137c-0.02783,0.28076,0.06445,0.56055,0.25391,0.77002
	C3.54932,24.88037,3.81885,25,4.10107,25H16C16,15.20001,18.07849,7.94727,24,5z"/>
<path fill="#72C472" d="M24,5c-5.92151,2.94727-8,10.20001-8,20h16C32,15.20001,29.92151,7.94727,24,5z"/>
<path fill="#5B5B5B" d="M24,6c-0.55225,0-1-0.44775-1-1V2c0-0.55225,0.44775-1,1-1s1,0.44775,1,1v3C25,5.55225,24.55225,6,24,6z"/>
</svg>
