<?xml version="1.0" encoding="utf-8"?>
<!-- Generator: Adobe Illustrator 19.2.0, SVG Export Plug-In . SVG Version: 6.00 Build 0)  -->
<!DOCTYPE svg PUBLIC "-//W3C//DTD SVG 1.1//EN" "http://www.w3.org/Graphics/SVG/1.1/DTD/svg11.dtd">
<svg version="1.1" id="Layer_1" xmlns="http://www.w3.org/2000/svg" xmlns:xlink="http://www.w3.org/1999/xlink" x="0px" y="0px"
	 width="48px" height="48px" viewBox="0 0 48 48" enable-background="new 0 0 48 48" xml:space="preserve">
<path fill="#8680D8" d="M22,45C11.52344,45,3,36.47656,3,26S11.52344,7,22,7s19,8.52344,19,19S32.47656,45,22,45z"/>
<circle fill="#5757B2" cx="11.96875" cy="31.96875" r="1.90625"/>
<circle fill="#5757B2" cx="30" cy="28" r="2"/>
<path fill="#5757B2" d="M22,21c-1.6543,0-3-1.3457-3-3s1.3457-3,3-3s3,1.3457,3,3S23.6543,21,22,21z"/>
<path fill="#5757B2" d="M40.74097,29.11511c-0.1524,0.90942-0.37775,1.79352-0.65558,2.65436
	c3.91235,6.22052,4.52814,10.20245,3.2774,11.45367c-1.22607,1.22607-4.56055,0.55859-8.91943-1.78857
	c-4.82715-2.59912-10.39111-6.93604-15.6665-12.21143c-11.36963-11.36963-16.50342-22.08252-14-24.58594
	c1.25128-1.24994,5.23352-0.6344,11.45343,3.27747c0.86102-0.27795,1.74542-0.5033,2.65515-0.6557
	C11.47174,2.24097,5.8222,0.76324,3.36279,3.22314C1.39258,5.19336,1.89111,9.09424,4.8042,14.50488
	c2.68945,4.99365,7.14941,10.72314,12.55859,16.13232s11.13867,9.86914,16.13232,12.55859
	c3.24219,1.74561,5.94189,2.62402,8.00977,2.62402c1.38232,0,2.48242-0.39307,3.27197-1.18262
	C47.23755,42.17651,45.7594,36.52911,40.74097,29.11511z"/>
</svg>
