<?xml version="1.0" encoding="utf-8"?>
<!-- Generator: Adobe Illustrator 19.2.0, SVG Export Plug-In . SVG Version: 6.00 Build 0)  -->
<!DOCTYPE svg PUBLIC "-//W3C//DTD SVG 1.1//EN" "http://www.w3.org/Graphics/SVG/1.1/DTD/svg11.dtd">
<svg version="1.1" id="Layer_1" xmlns="http://www.w3.org/2000/svg" xmlns:xlink="http://www.w3.org/1999/xlink" x="0px" y="0px"
	 width="48px" height="48px" viewBox="0 0 48 48" enable-background="new 0 0 48 48" xml:space="preserve">
<path fill="#EEBC99" d="M37.72792,15.92893l5.65686-5.65686c1.5621-1.5621,1.5621-4.09475,0-5.65685l0-0.00001
	c-1.5621-1.5621-4.09475-1.5621-5.65685,0l-5.65686,5.65686L37.72792,15.92893z"/>
<path fill="#BFDEE0" d="M12.27197,46.38281c-1.28027,0-2.56055-0.48779-3.53516-1.4624l-5.65723-5.65723
	c-1.94971-1.94922-1.94971-5.12158,0-7.0708l21.21338-21.21289c0.39062-0.39062,1.02344-0.39062,1.41406,0l11.31348,11.31348
	c0.39062,0.39062,0.39062,1.02344,0,1.41406L15.80762,44.92041C14.83301,45.89502,13.55273,46.38281,12.27197,46.38281z"/>
<path fill="#8680D8" d="M39.14209,26.82861c-0.25586,0-0.51172-0.09766-0.70703-0.29297l-16.9707-16.9707
	c-0.39062-0.39062-0.39062-1.02344,0-1.41406l4.24268-4.24268c0.39062-0.39062,1.02344-0.39062,1.41406,0l16.9707,16.9707
	c0.39062,0.39062,0.39062,1.02344,0,1.41406l-4.24268,4.24268C39.65381,26.73096,39.39795,26.82861,39.14209,26.82861z"/>
<path fill="#76B5B5" d="M20.75732,22.58594c-0.25586,0-0.51172-0.09766-0.70703-0.29297l-2.82861-2.82861
	c-0.39062-0.39062-0.39062-1.02344,0-1.41406s1.02344-0.39062,1.41406,0l2.82861,2.82861c0.39062,0.39062,0.39062,1.02344,0,1.41406
	C21.26904,22.48828,21.01318,22.58594,20.75732,22.58594z"/>
<path fill="#76B5B5" d="M16.51465,26.82861c-0.25586,0-0.51172-0.09766-0.70703-0.29297l-2.82812-2.82861
	c-0.39062-0.39062-0.39062-1.02393,0-1.41406c0.39062-0.39062,1.02344-0.39062,1.41406,0l2.82812,2.82861
	c0.39062,0.39062,0.39062,1.02393,0,1.41406C17.02637,26.73096,16.77051,26.82861,16.51465,26.82861z"/>
<path fill="#76B5B5" d="M12.27197,31.07129c-0.25586,0-0.51172-0.09766-0.70703-0.29297l-2.82812-2.82861
	c-0.39062-0.39062-0.39062-1.02393,0-1.41406c0.39062-0.39062,1.02344-0.39062,1.41406,0l2.82812,2.82861
	c0.39062,0.39062,0.39062,1.02393,0,1.41406C12.78369,30.97363,12.52783,31.07129,12.27197,31.07129z"/>
</svg>
