<?xml version="1.0" encoding="utf-8"?>
<!-- Generator: Adobe Illustrator 19.2.0, SVG Export Plug-In . SVG Version: 6.00 Build 0)  -->
<!DOCTYPE svg PUBLIC "-//W3C//DTD SVG 1.1//EN" "http://www.w3.org/Graphics/SVG/1.1/DTD/svg11.dtd">
<svg version="1.1" id="Layer_1" xmlns="http://www.w3.org/2000/svg" xmlns:xlink="http://www.w3.org/1999/xlink" x="0px" y="0px"
	 width="48px" height="48px" viewBox="0 0 48 48" enable-background="new 0 0 48 48" xml:space="preserve">
<path fill="#EFD358" d="M16,7h-4V2c0-0.55228,0.44771-1,1-1h2c0.55229,0,1,0.44772,1,1V7z"/>
<path fill="#EFD358" d="M36,7h-4V2c0-0.55228,0.44772-1,1-1h2c0.55228,0,1,0.44772,1,1V7z"/>
<path fill="#999999" d="M41,7c0-1.10457-0.89543-2-2-2H9C7.89543,5,7,5.89543,7,7v5h34V7z"/>
<path fill="#999999" d="M7,45c0,1.10457,0.89543,2,2,2h30c1.10457,0,2-0.89543,2-2v-5H7V45z"/>
<rect x="7" y="12" fill="#5B5B5B" width="34" height="28"/>
<path fill="#EFD358" d="M22.00244,35.99658c-0.17822,0-0.35742-0.04736-0.51855-0.14502
	c-0.41064-0.24951-0.58594-0.75586-0.41748-1.20605L23.55713,28H17c-0.39502,0-0.75293-0.23242-0.91357-0.59326
	s-0.09375-0.78223,0.17041-1.07568l9-10c0.32129-0.35791,0.85205-0.43506,1.26221-0.18555
	c0.41064,0.24902,0.58594,0.75586,0.41748,1.20557L24.44287,24H31c0.39502,0,0.75293,0.23242,0.91357,0.59326
	s0.09375,0.78223-0.17041,1.07568l-8.99707,9.99658C22.55078,35.88281,22.27832,35.99658,22.00244,35.99658z"/>
</svg>
