<?xml version="1.0" encoding="utf-8"?>
<!-- Generator: Adobe Illustrator 19.2.0, SVG Export Plug-In . SVG Version: 6.00 Build 0)  -->
<!DOCTYPE svg PUBLIC "-//W3C//DTD SVG 1.1//EN" "http://www.w3.org/Graphics/SVG/1.1/DTD/svg11.dtd">
<svg version="1.1" id="Layer_1" xmlns="http://www.w3.org/2000/svg" xmlns:xlink="http://www.w3.org/1999/xlink" x="0px" y="0px"
	 width="48px" height="48px" viewBox="0 0 48 48" enable-background="new 0 0 48 48" xml:space="preserve">
<path fill="#E6E6E6" d="M24,47c0,0-11-1.91667-11-9V25c0-0.55228,0.44771-1,1-1h20c0.55228,0,1,0.44772,1,1v13C35,45,24,47,24,47z"
	/>
<path fill="#A67C52" d="M29,1H19c-0.55225,0-1,0.44775-1,1v1c0,2.96722,2.16687,5.43134,5,5.90967V31c0,0.55225,0.44775,1,1,1
	s1-0.44775,1-1V8.90967C27.83313,8.43134,30,5.96722,30,3V2C30,1.44775,29.55225,1,29,1z M24,7c-2.20557,0-4-1.79443-4-4h8
	C28,5.20557,26.20557,7,24,7z"/>
</svg>
