<?xml version="1.0" encoding="utf-8"?>
<!-- Generator: Adobe Illustrator 19.2.0, SVG Export Plug-In . SVG Version: 6.00 Build 0)  -->
<!DOCTYPE svg PUBLIC "-//W3C//DTD SVG 1.1//EN" "http://www.w3.org/Graphics/SVG/1.1/DTD/svg11.dtd">
<svg version="1.1" id="Layer_1" xmlns="http://www.w3.org/2000/svg" xmlns:xlink="http://www.w3.org/1999/xlink" x="0px" y="0px"
	 width="48px" height="48px" viewBox="0 0 48 48" enable-background="new 0 0 48 48" xml:space="preserve">
<path fill="#C6C6C6" d="M23,34h-8c-0.55273,0-1-0.44775-1-1v-8c0-0.26514,0.10547-0.51953,0.29297-0.70703l22-22
	C36.48047,2.10547,36.73438,2,37,2h8c0.55273,0,1,0.44775,1,1v8c0,0.26514-0.10547,0.51953-0.29297,0.70703l-3,3
	C42.51953,14.89453,42.26562,15,42,15h-5v5c0,0.55225-0.44727,1-1,1h-5v5c0,0.26514-0.10547,0.51953-0.29297,0.70703l-7,7
	C23.51953,33.89453,23.26562,34,23,34z"/>
<path fill="#999999" d="M25,20c-0.25586,0-0.51172-0.09766-0.70703-0.29297c-0.39062-0.39062-0.39062-1.02344,0-1.41406l13-13
	c0.39062-0.39062,1.02344-0.39062,1.41406,0s0.39062,1.02344,0,1.41406l-13,13C25.51172,19.90234,25.25586,20,25,20z"/>
<path fill="#5B5B5B" d="M15,20C7.83203,20,2,25.83154,2,33s5.83203,13,13,13s13-5.83154,13-13S22.16797,20,15,20z M12,39
	c-1.65686,0-3-1.34314-3-3s1.34314-3,3-3s3,1.34314,3,3S13.65686,39,12,39z"/>
</svg>
