<?xml version="1.0" encoding="utf-8"?>
<!-- Generator: Adobe Illustrator 19.2.0, SVG Export Plug-In . SVG Version: 6.00 Build 0)  -->
<!DOCTYPE svg PUBLIC "-//W3C//DTD SVG 1.1//EN" "http://www.w3.org/Graphics/SVG/1.1/DTD/svg11.dtd">
<svg version="1.1" id="Layer_1" xmlns="http://www.w3.org/2000/svg" xmlns:xlink="http://www.w3.org/1999/xlink" x="0px" y="0px"
	 width="48px" height="48px" viewBox="0 0 48 48" enable-background="new 0 0 48 48" xml:space="preserve">
<path fill="#B3B3B3" d="M24,9c-0.55225,0-1-0.44775-1-1V2c0-0.55225,0.44775-1,1-1s1,0.44775,1,1v6C25,8.55225,24.55225,9,24,9z"/>
<path fill="#C64692" d="M38,23H10c-0.55225,0-1-0.44775-1-1v-2c0-8.271,6.729-15,15-15s15,6.729,15,15v2
	C39,22.55225,38.55225,23,38,23z"/>
<polygon fill="#72C472" points="19,29 29,29 34,45 14,45 "/>
<ellipse transform="matrix(0.90683 -0.4215 0.4215 0.90683 -3.60984 9.26748)" fill="#D366AC" cx="19.15755" cy="12.79899" rx="4" ry="3"/>
<path fill="#E0E0E0" d="M47,27H1v-0.00001C1,24.23857,3.23857,22,6,22H42C44.76143,22,47,24.23857,47,27L47,27z"/>
<path fill="#CCCCCC" d="M47,27H1v0.00001C1,29.76143,3.23857,32,6,32H42C44.76143,32,47,29.76143,47,27L47,27z"/>
<ellipse fill="#9EDB9E" cx="24" cy="45" rx="10" ry="2"/>
</svg>
