<?xml version="1.0" encoding="utf-8"?>
<!-- Generator: Adobe Illustrator 19.2.0, SVG Export Plug-In . SVG Version: 6.00 Build 0)  -->
<!DOCTYPE svg PUBLIC "-//W3C//DTD SVG 1.1//EN" "http://www.w3.org/Graphics/SVG/1.1/DTD/svg11.dtd">
<svg version="1.1" id="Layer_1" xmlns="http://www.w3.org/2000/svg" xmlns:xlink="http://www.w3.org/1999/xlink" x="0px" y="0px"
	 width="48px" height="48px" viewBox="0 0 48 48" enable-background="new 0 0 48 48" xml:space="preserve">
<path fill="#76B5B5" d="M38,43H26c-0.55273,0-1-0.44775-1-1v-1c0-2.75684-2.24316-5-5-5s-5,2.24316-5,5v1c0,0.55225-0.44727,1-1,1H2
	c-0.55273,0-1-0.44775-1-1v-9c0-0.55225,0.44727-1,1-1h1c2.75684,0,5-2.24316,5-5s-2.24316-5-5-5H2c-0.55273,0-1-0.44775-1-1v-9
	c0-0.55225,0.44727-1,1-1h13V9c0-2.75684,2.24316-5,5-5s5,2.24316,5,5v2h13c0.55273,0,1,0.44775,1,1v10h2c2.75684,0,5,2.24316,5,5
	s-2.24316,5-5,5h-2v10C39,42.55225,38.55273,43,38,43z"/>
</svg>
