<?xml version="1.0" encoding="utf-8"?>
<!-- Generator: Adobe Illustrator 19.2.0, SVG Export Plug-In . SVG Version: 6.00 Build 0)  -->
<!DOCTYPE svg PUBLIC "-//W3C//DTD SVG 1.1//EN" "http://www.w3.org/Graphics/SVG/1.1/DTD/svg11.dtd">
<svg version="1.1" id="Layer_1" xmlns="http://www.w3.org/2000/svg" xmlns:xlink="http://www.w3.org/1999/xlink" x="0px" y="0px"
	 width="48px" height="48px" viewBox="0 0 48 48" enable-background="new 0 0 48 48" xml:space="preserve">
<path fill="#EFD358" d="M9.13672,14.42627C7.78613,15.56055,7,17.21973,7,19c0,3.30859,2.69141,6,6,6
	c1.78027,0,3.43945-0.78662,4.57324-2.13721L9.13672,14.42627z"/>
<path fill="#B3B3B3" d="M42.00098,21c-0.92273,0-1.77692,0.26855-2.51971,0.7063L28.99414,10.05371
	c-0.37012-0.41113-1.00195-0.44531-1.41211-0.07422c-0.41016,0.36914-0.44336,1.00146-0.07422,1.41211l10.48456,11.64972
	C37.37726,23.87213,37.00098,24.88934,37.00098,26s0.37628,2.12781,0.99139,2.95862L23.25781,45.33105
	c-0.36914,0.41064-0.33594,1.04297,0.07422,1.41211C23.52344,46.91553,23.7627,47,24.00098,47
	c0.27344,0,0.5459-0.11182,0.74316-0.33105L39.48126,30.2937C40.22406,30.73145,41.07825,31,42.00098,31c2.75684,0,5-2.24316,5-5
	S44.75781,21,42.00098,21z M42.00098,29c-1.6543,0-3-1.3457-3-3s1.3457-3,3-3s3,1.3457,3,3S43.65527,29,42.00098,29z"/>
<path fill="#999999" d="M25,8c-0.25586,0-0.51172-0.09766-0.70703-0.29297c-0.39062-0.39062-0.39062-1.02344,0-1.41406l5-5
	c0.39062-0.39062,1.02344-0.39062,1.41406,0s0.39062,1.02344,0,1.41406l-5,5C25.51172,7.90234,25.25586,8,25,8z"/>
<path fill="#E6E6E6" d="M25.37305,30.24805c-0.26562,0-0.51953-0.10547-0.70703-0.29297L2.04492,7.33398
	C1.85645,7.146,1.75098,6.89014,1.75195,6.62402s0.10742-0.521,0.29688-0.70801C5.25391,2.74609,9.49805,1,14,1
	c9.37402,0,17,7.62598,17,17c0,4.50244-1.74609,8.74707-4.91602,11.95117c-0.1875,0.18945-0.44238,0.29639-0.70801,0.29688
	C25.375,30.24805,25.37402,30.24805,25.37305,30.24805z"/>
<path fill="#999999" d="M35,43H13c-1.10457,0-2,0.89543-2,2V45c0,1.10457,0.89543,2,2,2H35c1.10457,0,2-0.89543,2-2V45
	C37,43.89543,36.10457,43,35,43z"/>
</svg>
