<?xml version="1.0" encoding="utf-8"?>
<!-- Generator: Adobe Illustrator 19.2.0, SVG Export Plug-In . SVG Version: 6.00 Build 0)  -->
<!DOCTYPE svg PUBLIC "-//W3C//DTD SVG 1.1//EN" "http://www.w3.org/Graphics/SVG/1.1/DTD/svg11.dtd">
<svg version="1.1" id="Layer_1" xmlns="http://www.w3.org/2000/svg" xmlns:xlink="http://www.w3.org/1999/xlink" x="0px" y="0px"
	 width="48px" height="48px" viewBox="0 0 48 48" enable-background="new 0 0 48 48" xml:space="preserve">
<path fill="none" d="M34.06635,19.59039l-1.23822,1.23822l-5.65625-5.65723l1.23773-1.23773
	c-2.8053-1.22467-6.01392-1.22467-8.81921,0l1.23822,1.23822l-5.65723,5.65625l-1.23773-1.23773
	c-1.22467,2.8053-1.22467,6.01392,0,8.81921l1.23822-1.23822l5.65625,5.65723l-1.23773,1.23773
	c2.8053,1.22467,6.01392,1.22467,8.81921,0l-1.23822-1.23822l5.65723-5.65625l1.23773,1.23773
	C35.29102,25.60431,35.29102,22.39569,34.06635,19.59039z"/>
<path fill="#E86C60" d="M13.93365,19.59039l-8.76257-8.76257c-5.51904,7.88336-5.51929,18.46082-0.00006,26.34442l8.76263-8.76263
	C12.70898,25.60431,12.70898,22.39569,13.93365,19.59039z"/>
<path fill="#E86C60" d="M34.06635,28.40961l8.76257,8.76257c5.51904-7.88336,5.51929-18.46082,0.00006-26.34442l-8.76263,8.76263
	C35.29102,22.39569,35.29102,25.60431,34.06635,28.40961z"/>
<path fill="#E86C60" d="M28.40961,13.93365l8.76263-8.76263c-7.88361-5.51923-18.46106-5.51898-26.34442,0.00006l8.76257,8.76257
	C22.39569,12.70898,25.60431,12.70898,28.40961,13.93365z"/>
<path fill="#E86C60" d="M19.59039,34.06635l-8.76263,8.76263c7.88361,5.51923,18.46106,5.51898,26.34442-0.00006l-8.76257-8.76257
	C25.60431,35.29102,22.39569,35.29102,19.59039,34.06635z"/>
<path fill="#E6E6E6" d="M31.7782,16.2218c0.99854,0.99854,1.75458,2.14636,2.28815,3.36859l8.76263-8.76263
	c-0.75806-1.08276-1.59924-2.12488-2.56555-3.09119s-2.00842-1.8075-3.09119-2.56555l-8.76263,8.76263
	C29.63184,14.46722,30.77966,15.22327,31.7782,16.2218z"/>
<path fill="#E6E6E6" d="M42.82892,37.17218l-8.76257-8.76257c-0.53357,1.22223-1.28961,2.37006-2.28815,3.36859
	s-2.14636,1.75458-3.36859,2.28815l8.76257,8.76257c1.08282-0.75806,2.12494-1.59918,3.09125-2.56549
	S42.07086,38.255,42.82892,37.17218z"/>
<path fill="#E6E6E6" d="M16.2218,31.7782c-0.99854-0.99854-1.75458-2.14636-2.28815-3.36859l-8.76263,8.76263
	c0.75806,1.08276,1.59924,2.12488,2.56555,3.09119s2.00842,1.8075,3.09119,2.56555l8.76263-8.76263
	C18.36816,33.53278,17.22034,32.77673,16.2218,31.7782z"/>
<path fill="#E6E6E6" d="M16.2218,16.2218c0.99854-0.99854,2.14636-1.75458,3.36859-2.28815l-8.76257-8.76257
	C9.745,5.92914,8.70288,6.77026,7.73657,7.73657S5.92914,9.745,5.17108,10.82782l8.76257,8.76257
	C14.46722,18.36816,15.22327,17.22034,16.2218,16.2218z"/>
</svg>
