<?xml version="1.0" encoding="utf-8"?>
<!-- Generator: Adobe Illustrator 19.2.0, SVG Export Plug-In . SVG Version: 6.00 Build 0)  -->
<!DOCTYPE svg PUBLIC "-//W3C//DTD SVG 1.1//EN" "http://www.w3.org/Graphics/SVG/1.1/DTD/svg11.dtd">
<svg version="1.1" id="Layer_1" xmlns="http://www.w3.org/2000/svg" xmlns:xlink="http://www.w3.org/1999/xlink" x="0px" y="0px"
	 width="48px" height="48px" viewBox="0 0 48 48" enable-background="new 0 0 48 48" xml:space="preserve">
<path fill="#C6C6C6" d="M24,21c-0.55225,0-1-0.44775-1-1V6c0-0.55225,0.44775-1,1-1s1,0.44775,1,1v14C25,20.55225,24.55225,21,24,21
	z"/>
<path fill="#E6E6E6" d="M36,41c-4.14258,0-7.91504-2.33398-9.78809-6h-4.42383C19.91504,38.66602,16.14258,41,12,41
	C5.93457,41,1,36.06543,1,30s4.93457-11,11-11h24c6.06543,0,11,4.93457,11,11S42.06543,41,36,41z"/>
<circle fill="#C6C6C6" cx="12" cy="30" r="7"/>
<path fill="#5B5B5B" d="M16,29h-3v-3c0-0.55225-0.44775-1-1-1s-1,0.44775-1,1v3H8c-0.55225,0-1,0.44775-1,1s0.44775,1,1,1h3v3
	c0,0.55225,0.44775,1,1,1s1-0.44775,1-1v-3h3c0.55225,0,1-0.44775,1-1S16.55225,29,16,29z"/>
<circle fill="#72C472" cx="31" cy="30" r="2"/>
<circle fill="#E86C60" cx="41" cy="30" r="2"/>
<circle fill="#458BC4" cx="36" cy="25" r="2"/>
<circle fill="#EFD358" cx="36" cy="35" r="2"/>
</svg>
