<?xml version="1.0" encoding="utf-8"?>
<!-- Generator: Adobe Illustrator 19.2.0, SVG Export Plug-In . SVG Version: 6.00 Build 0)  -->
<!DOCTYPE svg PUBLIC "-//W3C//DTD SVG 1.1//EN" "http://www.w3.org/Graphics/SVG/1.1/DTD/svg11.dtd">
<svg version="1.1" id="Layer_1" xmlns="http://www.w3.org/2000/svg" xmlns:xlink="http://www.w3.org/1999/xlink" x="0px" y="0px"
	 width="48px" height="48px" viewBox="0 0 48 48" enable-background="new 0 0 48 48" xml:space="preserve">
<path fill="#E86C60" d="M24.86816,10.50391c-0.35547-0.62305-1.38086-0.62305-1.73633,0L16.56262,22h14.87476L24.86816,10.50391z"/>
<path fill="#C6A279" d="M44.86816,45.50391L31.43738,22H16.56262L3.13184,45.50391
	c-0.17676,0.30957-0.17578,0.68994,0.00342,0.99805C3.31396,46.81006,3.64355,47,4,47h40c0.35645,0,0.68604-0.18994,0.86475-0.49805
	C45.04395,46.19385,45.04492,45.81348,44.86816,45.50391z"/>
<polygon fill="#87613E" points="15,47 24,31 33,47 "/>
<line fill="none" stroke="#87613E" stroke-width="2" stroke-miterlimit="10" x1="24" y1="12" x2="20" y2="4"/>
<line fill="none" stroke="#87613E" stroke-width="2" stroke-miterlimit="10" x1="24" y1="12" x2="28" y2="4"/>
</svg>
