<?xml version="1.0" encoding="utf-8"?>
<!-- Generator: Adobe Illustrator 19.2.0, SVG Export Plug-In . SVG Version: 6.00 Build 0)  -->
<!DOCTYPE svg PUBLIC "-//W3C//DTD SVG 1.1//EN" "http://www.w3.org/Graphics/SVG/1.1/DTD/svg11.dtd">
<svg version="1.1" id="Layer_1" xmlns="http://www.w3.org/2000/svg" xmlns:xlink="http://www.w3.org/1999/xlink" x="0px" y="0px"
	 width="48px" height="48px" viewBox="0 0 48 48" enable-background="new 0 0 48 48" xml:space="preserve">
<path fill="#84C459" d="M23.62988,44.99951c-3.88574,0-7.76465-4.24805-7.93945-4.44189
	c-0.34277-0.37988-0.34375-0.95605-0.00294-1.33691c0.12599-0.14062,3.12794-3.45264,7.08107-4.14502
	c4.64941-0.81592,9.59082,2.55518,9.7998,2.69873c0.44434,0.30713,0.56445,0.91211,0.27148,1.36621
	c-0.12891,0.19922-3.21582,4.88672-8.3457,5.78516C24.20703,44.97607,23.91797,44.99951,23.62988,44.99951z"/>
<path fill="#84C459" d="M15.02832,33.00049c-0.32031,0-0.64453-0.01904-0.96973-0.06104
	c-3.75293-0.48633-6.72168-4.22803-6.8457-4.38672c-0.33398-0.42578-0.26855-1.03955,0.14746-1.38525
	c0.14551-0.12109,3.62012-2.96387,7.76074-2.42969c3.33789,0.43213,5.50098,4.93408,5.73633,5.44629
	c0.21387,0.46387,0.04297,1.01416-0.39551,1.27637C20.3457,31.52979,17.84863,33.00049,15.02832,33.00049z"/>
<path fill="#84C459" d="M22.2793,29.06689c-0.27051,0-0.53906-0.10889-0.73633-0.32324
	c-0.12793-0.13965-3.1416-3.46826-2.81055-7.63086C19,17.7583,23.38965,15.375,23.88867,15.11426
	c0.4541-0.23535,1.01172-0.09277,1.29492,0.33203c0.08398,0.12549,2.04883,3.11377,1.79395,6.32275
	c-0.30078,3.77246-3.89062,6.92139-4.04395,7.05371C22.74512,28.98633,22.51172,29.06689,22.2793,29.06689z"/>
<path fill="#84C459" d="M9.68457,20.34912c-1.2627,0-2.61426-0.25244-3.60449-1.09766
	c-2.85742-2.43896-3.05469-6.46924-3.06152-6.63965c-0.02246-0.54004,0.38867-1,0.92773-1.03857
	c0.18164-0.01172,4.45605-0.28955,7.04785,1.92188c2.2041,1.88135,2.85156,5.02979,2.87793,5.1626
	c0.09961,0.50098-0.19434,0.99658-0.68164,1.14941C12.91406,19.89404,11.37988,20.34912,9.68457,20.34912z"/>
<path fill="#84C459" d="M14.19336,15.25049c-0.46289,0-0.87598-0.32227-0.97656-0.79004
	c-0.03809-0.17725-0.91113-4.37354,0.91602-7.24756c1.55371-2.4458,4.58008-3.52881,4.70801-3.57373
	c0.48242-0.16846,1.01465,0.05225,1.23438,0.51416c0.21777,0.45752,2.08105,4.5459,0.44531,7.11865
	c-2.01562,3.1709-5.97754,3.93115-6.14551,3.96191C14.31445,15.24512,14.25293,15.25049,14.19336,15.25049z"/>
<path fill="#84C459" d="M39.60059,39.00098c-0.05176,0-0.10254-0.00391-0.15527-0.01172
	c-0.27734-0.04346-6.80957-1.10303-8.47363-4.97803c-2.05664-4.78516,0.17676-9.93359,0.27344-10.15039
	c0.21875-0.49414,0.79102-0.72607,1.29199-0.52051c0.23438,0.09521,5.76074,2.39111,7.62207,6.72412
	c1.58398,3.68652,0.45508,8.0127,0.40625,8.19531C40.44727,38.70215,40.0459,39.00098,39.60059,39.00098z"/>
<path fill="#8E6E62" d="M46.00098,41.00098c-19.29883,0-35-15.70117-35-35c0-0.55225,0.44727-1,1-1s1,0.44775,1,1
	c0,18.19629,14.80371,33,33,33c0.55273,0,1,0.44775,1,1S46.55371,41.00098,46.00098,41.00098z"/>
</svg>
