<?xml version="1.0" encoding="utf-8"?>
<!-- Generator: Adobe Illustrator 19.2.0, SVG Export Plug-In . SVG Version: 6.00 Build 0)  -->
<!DOCTYPE svg PUBLIC "-//W3C//DTD SVG 1.1//EN" "http://www.w3.org/Graphics/SVG/1.1/DTD/svg11.dtd">
<svg version="1.1" id="Layer_1" xmlns="http://www.w3.org/2000/svg" xmlns:xlink="http://www.w3.org/1999/xlink" x="0px" y="0px"
	 width="48px" height="48px" viewBox="0 0 48 48" enable-background="new 0 0 48 48" xml:space="preserve">
<path fill="#EEBC99" d="M31,8c0-3.86597-3.13397-7-7-7c-3.86597,0-7,3.13403-7,7c0,2.37756,1.18805,4.47485,3,5.73999V20h8v-6.26001
	C29.81201,12.47485,31,10.37756,31,8z"/>
<path fill="#C64692" d="M24,23c-6.61682,0-12,5.38318-12,12s5.38318,12,12,12s12-5.38318,12-12S30.61682,23,24,23z M24,44
	c-4.9624,0-9-4.0376-9-9s4.0376-9,9-9s9,4.0376,9,9S28.9624,44,24,44z"/>
<path fill="#ED69AB" d="M38,27H10c-0.55229,0-1-0.44772-1-1v-6c0-0.55228,0.44771-1,1-1h28c0.55228,0,1,0.44772,1,1v6
	C39,26.55228,38.55228,27,38,27z"/>
</svg>
