<?xml version="1.0" encoding="utf-8"?>
<!-- Generator: Adobe Illustrator 19.2.0, SVG Export Plug-In . SVG Version: 6.00 Build 0)  -->
<!DOCTYPE svg PUBLIC "-//W3C//DTD SVG 1.1//EN" "http://www.w3.org/Graphics/SVG/1.1/DTD/svg11.dtd">
<svg version="1.1" id="Layer_1" xmlns="http://www.w3.org/2000/svg" xmlns:xlink="http://www.w3.org/1999/xlink" x="0px" y="0px"
	 width="48px" height="48px" viewBox="0 0 48 48" enable-background="new 0 0 48 48" xml:space="preserve">
<path fill="#444444" d="M42.70801,29.29395c-0.21436-0.21533-0.51025-0.31738-0.81836-0.28809l-9.02002,1
	c-0.38184,0.04248-0.70605,0.30029-0.83301,0.66309c-0.12744,0.36279-0.03564,0.76611,0.23633,1.03809l2.83307,2.83307
	C32.17603,37.36157,28.23987,39,24.02002,39c-4.2298,0-8.17419-1.64636-11.1062-4.47974l2.81323-2.81323
	c0.27197-0.27197,0.36377-0.67529,0.23633-1.03809c-0.12695-0.36279-0.45117-0.62061-0.83301-0.66309l-9.02002-1
	c-0.30713-0.03369-0.60449,0.07227-0.81836,0.28809c-0.21484,0.21533-0.31982,0.5166-0.28564,0.81885l1.02002,9
	c0.04346,0.38135,0.30127,0.70459,0.66357,0.83105C6.79785,39.98193,6.90918,40,7.02002,40
	c0.26074,0,0.5166-0.10205,0.70703-0.29297l2.3587-2.3587C13.75555,40.92133,18.7074,43,24.02002,43
	c5.30298,0,10.2464-2.07074,13.91412-5.63177l2.33881,2.33881C40.46338,39.89795,40.71924,40,40.97998,40
	c0.11084,0,0.22217-0.01807,0.33008-0.05615c0.3623-0.12646,0.62012-0.44971,0.66357-0.83105l1.02002-9
	C43.02783,29.81055,42.92285,29.50928,42.70801,29.29395z"/>
<path fill="#B3B3B3" d="M30.02002,7c0-3.30859-2.69141-6-6-6s-6,2.69141-6,6c0,2.60614,1.67291,4.82306,3.99896,5.6496L22,43
	c-0.00061,1.10504,0.89612,2.00116,2.00116,2.00116c1.10413,0,1.99823-0.89703,1.99884-2.00116V12.65033
	C28.32715,11.82434,30.02002,9.60693,30.02002,7z M24.02002,9c-1.10303,0-2-0.89697-2-2s0.89697-2,2-2s2,0.89697,2,2
	S25.12305,9,24.02002,9z"/>
<path fill="#E6E6E6" d="M31.02002,16h-14c-0.55228,0-1-0.44771-1-1v-2c0-0.55229,0.44772-1,1-1h14c0.55228,0,1,0.44771,1,1v2
	C32.02002,15.55229,31.5723,16,31.02002,16z"/>
<rect x="22.5" y="15.5" transform="matrix(6.002647e-11 1 -1 6.002647e-11 41.5 -6.5)" fill="#898989" width="3" height="4"/>
</svg>
