<?xml version="1.0" encoding="utf-8"?>
<!-- Generator: Adobe Illustrator 19.2.0, SVG Export Plug-In . SVG Version: 6.00 Build 0)  -->
<!DOCTYPE svg PUBLIC "-//W3C//DTD SVG 1.1//EN" "http://www.w3.org/Graphics/SVG/1.1/DTD/svg11.dtd">
<svg version="1.1" id="Layer_1" xmlns="http://www.w3.org/2000/svg" xmlns:xlink="http://www.w3.org/1999/xlink" x="0px" y="0px"
	 width="48px" height="48px" viewBox="0 0 48 48" enable-background="new 0 0 48 48" xml:space="preserve">
<path fill="#5B5B5B" d="M23,40H9c-0.55273,0-1-0.44775-1-1V25c0-0.26514,0.10547-0.51953,0.29297-0.70703l18-18
	c4.25-4.25,11.16406-4.25,15.41406,0c4.25,4.24951,4.25,11.16455,0,15.41406l-18,18C23.51953,39.89453,23.26562,40,23,40z"/>
<path fill="#494949" d="M17,31l-8.70715,8.70715C8.47375,39.88806,8.72369,40,9,40h14c0.26562,0,0.51953-0.10547,0.70703-0.29297
	L32.41406,31H17z"/>
<polygon fill="#494949" points="26,6.58594 21,11.58594 21,27 26,22 "/>
<path fill="#999999" d="M4,45c-0.25586,0-0.51172-0.09766-0.70703-0.29297c-0.39062-0.39062-0.39062-1.02344,0-1.41406l26-26
	c0.39062-0.39062,1.02344-0.39062,1.41406,0s0.39062,1.02344,0,1.41406l-26,26C4.51172,44.90234,4.25586,45,4,45z"/>
</svg>
