<?xml version="1.0" encoding="utf-8"?>
<!-- Generator: Adobe Illustrator 19.2.0, SVG Export Plug-In . SVG Version: 6.00 Build 0)  -->
<!DOCTYPE svg PUBLIC "-//W3C//DTD SVG 1.1//EN" "http://www.w3.org/Graphics/SVG/1.1/DTD/svg11.dtd">
<svg version="1.1" id="Layer_1" xmlns="http://www.w3.org/2000/svg" xmlns:xlink="http://www.w3.org/1999/xlink" x="0px" y="0px"
	 width="48px" height="48px" viewBox="0 0 48 48" enable-background="new 0 0 48 48" xml:space="preserve">
<path fill="#EAD8C5" d="M4,25c-0.25586,0-0.51172-0.09766-0.70703-0.29297c-0.39062-0.39062-0.39062-1.02344,0-1.41406l19.5-19.5
	c0.39062-0.39062,1.02344-0.39062,1.41406,0s0.39062,1.02344,0,1.41406l-19.5,19.5C4.51172,24.90234,4.25586,25,4,25z"/>
<path fill="#DDBE99" d="M44,25H6c-0.55273,0-1-0.44775-1-1s0.44727-1,1-1h38c0.55273,0,1,0.44775,1,1S44.55273,25,44,25z"/>
<path fill="#E86C60" d="M38,29c-0.18262,0-0.36523-0.05029-0.52539-0.14941C37.17969,28.66846,37,28.34668,37,28v-8
	c0-0.34668,0.17969-0.66846,0.47461-0.85059s0.66211-0.19824,0.97266-0.04395l8,4C46.78613,23.2749,47,23.62109,47,24
	s-0.21387,0.7251-0.55273,0.89453l-8,4C38.30566,28.96484,38.15332,29,38,29z"/>
<path fill="#EAD8C5" d="M23.5,44.5c-0.25586,0-0.51172-0.09766-0.70703-0.29297l-19.5-19.5
	c-0.39062-0.39062-0.39062-1.02344,0-1.41406s1.02344-0.39062,1.41406,0l19.5,19.5c0.39062,0.39062,0.39062,1.02344,0,1.41406
	C24.01172,44.40234,23.75586,44.5,23.5,44.5z"/>
<path fill="#A67C52" d="M22.00098,46.43408c-0.28516,0-0.56836-0.12109-0.7666-0.35645
	c-0.35547-0.42285-0.30078-1.05371,0.12207-1.40918C27.48535,39.51611,31,31.98291,31,24S27.48535,8.48389,21.35645,3.33154
	c-0.42285-0.35547-0.47754-0.98633-0.12207-1.40918c0.35547-0.42139,0.98633-0.47607,1.40918-0.12207
	C29.22559,7.33398,33,15.42529,33,24s-3.77441,16.66602-10.35645,22.19971C22.45605,46.35693,22.22754,46.43408,22.00098,46.43408z"
	/>
<path fill="#E86C60" d="M9.41406,28h-7c-0.4043,0-0.76953-0.24365-0.92383-0.61719c-0.15527-0.37402-0.06934-0.80371,0.2168-1.08984
	L4,24l-2.29297-2.29297c-0.28613-0.28613-0.37207-0.71582-0.2168-1.08984C1.64453,20.24365,2.00977,20,2.41406,20h7
	c0.26562,0,0.51953,0.10547,0.70703,0.29297l3,3c0.39062,0.39062,0.39062,1.02344,0,1.41406l-3,3
	C9.93359,27.89453,9.67969,28,9.41406,28z"/>
</svg>
