<?xml version="1.0" encoding="utf-8"?>
<!-- Generator: Adobe Illustrator 19.2.0, SVG Export Plug-In . SVG Version: 6.00 Build 0)  -->
<!DOCTYPE svg PUBLIC "-//W3C//DTD SVG 1.1//EN" "http://www.w3.org/Graphics/SVG/1.1/DTD/svg11.dtd">
<svg version="1.1" id="Layer_1" xmlns="http://www.w3.org/2000/svg" xmlns:xlink="http://www.w3.org/1999/xlink" x="0px" y="0px"
	 width="48px" height="48px" viewBox="0 0 48 48" enable-background="new 0 0 48 48" xml:space="preserve">
<path fill="#999999" d="M19.99902,22.87598c-0.49707,0-0.92871-0.37012-0.99121-0.87646
	c-0.06836-0.54785,0.32031-1.04736,0.86816-1.11572c4.62012-0.57617,8.77637-3.33643,11.11816-7.38428
	c0.27539-0.47803,0.88477-0.64307,1.36621-0.36475c0.47754,0.27686,0.6416,0.88818,0.36426,1.3667
	c-2.65332,4.58643-7.36328,7.71387-12.60059,8.3667C20.08203,22.87354,20.04004,22.87598,19.99902,22.87598z"/>
<path fill="#8680D8" d="M40,47H18c-0.55273,0-1-0.44775-1-1V33.99902c0-0.39551,0.23438-0.75439,0.5957-0.91504
	C17.73047,33.0249,31,27.00049,31,14c0-0.55225,0.44727-1,1-1h8c0.55273,0,1,0.44775,1,1v32C41,46.55225,40.55273,47,40,47z"/>
<path fill="#43A6DD" d="M10,11H6c-0.55273,0-1-0.44775-1-1s0.44727-1,1-1h4c0.55273,0,1,0.44775,1,1S10.55273,11,10,11z"/>
<path fill="#43A6DD" d="M9.54883,18.18896c-0.3457,0-0.68164-0.1792-0.86719-0.5c-0.27637-0.47852-0.1123-1.08984,0.36621-1.36621
	l2.05957-1.18896c0.47559-0.27588,1.08887-0.1123,1.36621,0.36621c0.27637,0.47852,0.1123,1.08984-0.36621,1.36621l-2.05957,1.18896
	C9.89062,18.146,9.71875,18.18896,9.54883,18.18896z"/>
<path fill="#43A6DD" d="M11.60645,5c-0.16992,0-0.3418-0.04297-0.49902-0.13379L9.04785,3.67725
	c-0.47852-0.27637-0.64258-0.8877-0.36621-1.36621c0.27637-0.479,0.8877-0.64307,1.36621-0.36621l2.05957,1.18896
	C12.58594,3.41016,12.75,4.02148,12.47363,4.5C12.28809,4.8208,11.95215,5,11.60645,5z"/>
<path fill="#EFD358" d="M42,15H20c-0.55273,0-1-0.44775-1-1V6c0-0.55225,0.44727-1,1-1h22c0.55273,0,1,0.44775,1,1v8
	C43,14.55225,42.55273,15,42,15z"/>
</svg>
