<?xml version="1.0" encoding="utf-8"?>
<!-- Generator: Adobe Illustrator 19.2.0, SVG Export Plug-In . SVG Version: 6.00 Build 0)  -->
<!DOCTYPE svg PUBLIC "-//W3C//DTD SVG 1.1//EN" "http://www.w3.org/Graphics/SVG/1.1/DTD/svg11.dtd">
<svg version="1.1" id="Layer_1" xmlns="http://www.w3.org/2000/svg" xmlns:xlink="http://www.w3.org/1999/xlink" x="0px" y="0px"
	 width="48px" height="48px" viewBox="0 0 48 48" enable-background="new 0 0 48 48" xml:space="preserve">
<path fill="#B3B3B3" d="M24,47c-0.55273,0-1-0.44775-1-1v-8c0-0.55225,0.44727-1,1-1s1,0.44775,1,1v8C25,46.55225,24.55273,47,24,47
	z"/>
<path fill="#C64692" d="M28,40h-8c-0.4043,0-0.76953-0.24365-0.92383-0.61719c-0.15527-0.37402-0.06934-0.80371,0.2168-1.08984l4-4
	c0.39062-0.39062,1.02344-0.39062,1.41406,0l4,4c0.28613,0.28613,0.37207,0.71582,0.2168,1.08984
	C28.76953,39.75635,28.4043,40,28,40z"/>
<path fill="#ED69AB" d="M24,35c-9.37402,0-17-7.62598-17-17S14.62598,1,24,1s17,7.62598,17,17S33.37402,35,24,35z"/>
<path fill="#F2CEE2" d="M14.20117,17c-0.06543,0-0.13281-0.00635-0.2002-0.02002c-0.54102-0.10986-0.89062-0.6377-0.78125-1.17871
	c0.87988-4.3335,4.24805-7.70166,8.58105-8.58105c0.55078-0.10889,1.06934,0.24072,1.17969,0.78125
	c0.10938,0.54102-0.24023,1.06885-0.78125,1.17871c-3.54492,0.71924-6.2998,3.47412-7.01855,7.01855
	C15.08398,16.67285,14.66699,17,14.20117,17z"/>
</svg>
