<?xml version="1.0" encoding="utf-8"?>
<!-- Generator: Adobe Illustrator 19.2.0, SVG Export Plug-In . SVG Version: 6.00 Build 0)  -->
<!DOCTYPE svg PUBLIC "-//W3C//DTD SVG 1.1//EN" "http://www.w3.org/Graphics/SVG/1.1/DTD/svg11.dtd">
<svg version="1.1" id="Layer_1" xmlns="http://www.w3.org/2000/svg" xmlns:xlink="http://www.w3.org/1999/xlink" x="0px" y="0px"
	 width="48px" height="48px" viewBox="0 0 48 48" enable-background="new 0 0 48 48" xml:space="preserve">
<path fill="#A67C52" d="M40,47H8c-0.376,0-0.72-0.21-0.891-0.545c-0.171-0.334-0.14-0.736,0.08-1.041l13-18
	C20.377,27.154,20.679,27,21,27h6c0.321,0,0.623,0.154,0.811,0.415l13,18c0.22,0.304,0.251,0.707,0.08,1.041
	C40.72,46.79,40.376,47,40,47z"/>
<path fill="#87613E" d="M15,47c-0.119,0-0.241-0.021-0.359-0.067c-0.515-0.199-0.772-0.777-0.574-1.292l5-13
	c0.199-0.516,0.775-0.773,1.293-0.575c0.515,0.199,0.772,0.777,0.574,1.292l-5,13C15.78,46.756,15.401,47,15,47z"/>
<path fill="#87613E" d="M33,47c-0.401,0-0.78-0.244-0.934-0.642l-5-13c-0.198-0.515,0.06-1.094,0.574-1.292
	c0.517-0.196,1.094,0.059,1.293,0.575l5,13c0.198,0.515-0.06,1.094-0.574,1.292C33.241,46.979,33.119,47,33,47z"/>
<path fill="#87613E" d="M24,47c-0.553,0-1-0.448-1-1V33c0-0.552,0.447-1,1-1s1,0.448,1,1v13C25,46.552,24.553,47,24,47z"/>
<path fill="#C6A279" d="M24,1c-2.206,0-4,1.794-4,4v17h8V5C28,2.794,26.206,1,24,1z"/>
<path fill="#E6E6E6" d="M20,27c0,0.552,0.448,1,1,1h6c0.552,0,1-0.448,1-1v-5h-8V27z"/>
</svg>
