<?xml version="1.0" encoding="utf-8"?>
<!-- Generator: Adobe Illustrator 19.2.0, SVG Export Plug-In . SVG Version: 6.00 Build 0)  -->
<!DOCTYPE svg PUBLIC "-//W3C//DTD SVG 1.1//EN" "http://www.w3.org/Graphics/SVG/1.1/DTD/svg11.dtd">
<svg version="1.1" id="Layer_1" xmlns="http://www.w3.org/2000/svg" xmlns:xlink="http://www.w3.org/1999/xlink" x="0px" y="0px"
	 width="48px" height="48px" viewBox="0 0 48 48" enable-background="new 0 0 48 48" xml:space="preserve">
<path fill="#5A7A84" d="M24,47C11.31787,47,1,36.68213,1,24S11.31787,1,24,1s23,10.31787,23,23S36.68213,47,24,47z"/>
<path opacity="0.15" d="M24,42C12.16278,42,2.38867,33.01019,1.13831,21.5C1.04907,22.32159,1,23.15509,1,24
	c0,12.68213,10.31787,23,23,23s23-10.31787,23-23c0-0.84491-0.04907-1.67841-0.13831-2.5C45.61133,33.01019,35.83722,42,24,42z"/>
<path fill="#335262" d="M24,14c-1.6543,0-3-1.3457-3-3s1.3457-3,3-3s3,1.3457,3,3S25.6543,14,24,14z"/>
<path fill="#335262" d="M17,26c-1.6543,0-3-1.3457-3-3s1.3457-3,3-3s3,1.3457,3,3S18.6543,26,17,26z"/>
<path fill="#335262" d="M31,26c-1.6543,0-3-1.3457-3-3s1.3457-3,3-3s3,1.3457,3,3S32.6543,26,31,26z"/>
</svg>
