<?xml version="1.0" encoding="utf-8"?>
<!-- Generator: Adobe Illustrator 20.1.0, SVG Export Plug-In . SVG Version: 6.00 Build 0)  -->
<!DOCTYPE svg PUBLIC "-//W3C//DTD SVG 1.1//EN" "http://www.w3.org/Graphics/SVG/1.1/DTD/svg11.dtd">
<svg version="1.1" id="Layer_1" xmlns="http://www.w3.org/2000/svg" xmlns:xlink="http://www.w3.org/1999/xlink" x="0px" y="0px"
	 width="48px" height="48px" viewBox="0 0 48 48" enable-background="new 0 0 48 48" xml:space="preserve">
<path d="M6,29c0.552,0,1-0.448,1-1V8h34v20c0,0.552,0.448,1,1,1s1-0.448,1-1V7c0-0.552-0.448-1-1-1H6C5.448,6,5,6.448,5,7v21
	C5,28.552,5.448,29,6,29z"/>
<path d="M46,32H32c-0.552,0-1,0.448-1,1v2H17v-2c0-0.552-0.448-1-1-1H2c-0.552,0-1,0.448-1,1v8c0,0.552,0.448,1,1,1h44
	c0.552,0,1-0.448,1-1v-8C47,32.448,46.552,32,46,32z M45,40H3v-6h12v2c0,0.552,0.448,1,1,1h16c0.552,0,1-0.448,1-1v-2h12V40z"/>
<path d="M23,12c-0.552,0-1,0.448-1,1s0.448,1,1,1h2c0.552,0,1-0.448,1-1s-0.448-1-1-1H23z"/>
</svg>
