<?xml version="1.0" encoding="utf-8"?>
<!-- Generator: Adobe Illustrator 20.1.0, SVG Export Plug-In . SVG Version: 6.00 Build 0)  -->
<!DOCTYPE svg PUBLIC "-//W3C//DTD SVG 1.1//EN" "http://www.w3.org/Graphics/SVG/1.1/DTD/svg11.dtd">
<svg version="1.1" id="Layer_1" xmlns="http://www.w3.org/2000/svg" xmlns:xlink="http://www.w3.org/1999/xlink" x="0px" y="0px"
	 width="48px" height="48px" viewBox="0 0 48 48" enable-background="new 0 0 48 48" xml:space="preserve">
<path d="M37,24c-5.514,0-10,4.486-10,10s4.486,10,10,10s10-4.486,10-10S42.514,24,37,24z M37,42c-4.411,0-8-3.589-8-8s3.589-8,8-8
	s8,3.589,8,8S41.411,42,37,42z"/>
<path d="M40,33h-6c-0.553,0-1,0.447-1,1s0.447,1,1,1h6c0.553,0,1-0.447,1-1S40.553,33,40,33z"/>
<path d="M8,37h14c0.553,0,1-0.447,1-1s-0.447-1-1-1H8c-2.415,0-4.435-1.721-4.899-4H22c0.553,0,1-0.447,1-1s-0.447-1-1-1H2
	c-0.553,0-1,0.447-1,1C1,33.859,4.141,37,8,37z"/>
<path d="M42,20c0.553,0,1-0.447,1-1V9c0-2.757-2.243-5-5-5H10C7.243,4,5,6.243,5,9v16c0,0.553,0.447,1,1,1s1-0.447,1-1V9
	c0-1.654,1.346-3,3-3h28c1.654,0,3,1.346,3,3v10C41,19.553,41.447,20,42,20z"/>
<path d="M25,10h-2c-0.553,0-1,0.447-1,1s0.447,1,1,1h2c0.553,0,1-0.447,1-1S25.553,10,25,10z"/>
</svg>
