<?xml version="1.0" encoding="utf-8"?>
<!-- Generator: Adobe Illustrator 20.1.0, SVG Export Plug-In . SVG Version: 6.00 Build 0)  -->
<!DOCTYPE svg PUBLIC "-//W3C//DTD SVG 1.1//EN" "http://www.w3.org/Graphics/SVG/1.1/DTD/svg11.dtd">
<svg version="1.1" id="Layer_1" xmlns="http://www.w3.org/2000/svg" xmlns:xlink="http://www.w3.org/1999/xlink" x="0px" y="0px"
	 width="48px" height="48px" viewBox="0 0 48 48" enable-background="new 0 0 48 48" xml:space="preserve">
<path d="M8,39h6c0.552,0,1-0.448,1-1V24c0-0.552-0.448-1-1-1H5v-1C5,11.523,13.523,3,24,3s19,8.523,19,19v1h-9c-0.552,0-1,0.448-1,1
	v14c0,0.552,0.448,1,1,1h6c1.13,0,2.162-0.391,3-1.026V40c0,2.757-2.243,5-5,5H28c-0.552,0-1,0.448-1,1s0.448,1,1,1h10
	c3.86,0,7-3.14,7-7v-6V24v-2c0-11.58-9.42-21-21-21S3,10.42,3,22v2v10C3,36.757,5.243,39,8,39z M40,37h-5V25h8v9
	C43,35.654,41.654,37,40,37z M13,37H8c-1.654,0-3-1.346-3-3v-9h8V37z"/>
</svg>
