<?xml version="1.0" encoding="utf-8"?>
<!-- Generator: Adobe Illustrator 20.1.0, SVG Export Plug-In . SVG Version: 6.00 Build 0)  -->
<!DOCTYPE svg PUBLIC "-//W3C//DTD SVG 1.1//EN" "http://www.w3.org/Graphics/SVG/1.1/DTD/svg11.dtd">
<svg version="1.1" id="Layer_1" xmlns="http://www.w3.org/2000/svg" xmlns:xlink="http://www.w3.org/1999/xlink" x="0px" y="0px"
	 width="48px" height="48px" viewBox="0 0 48 48" enable-background="new 0 0 48 48" xml:space="preserve">
<path d="M6,29c0.553,0,1-0.448,1-1V12c0-1.654,1.346-3,3-3h28c1.654,0,3,1.346,3,3v16c0,0.552,0.447,1,1,1s1-0.448,1-1V12
	c0-2.757-2.243-5-5-5H10c-2.757,0-5,2.243-5,5v16C5,28.552,5.447,29,6,29z"/>
<path d="M23,13c-0.553,0-1,0.448-1,1s0.447,1,1,1h2c0.553,0,1-0.448,1-1s-0.447-1-1-1H23z"/>
<path d="M46,32H31c-0.553,0-1,0.448-1,1v1H18v-1c0-0.552-0.447-1-1-1H2c-0.553,0-1,0.448-1,1v3c0,2.757,2.243,5,5,5h36
	c2.757,0,5-2.243,5-5v-3C47,32.448,46.553,32,46,32z M45,36c0,1.654-1.346,3-3,3H6c-1.654,0-3-1.346-3-3v-2h13v1
	c0,0.552,0.447,1,1,1h14c0.553,0,1-0.448,1-1v-1h13V36z"/>
</svg>
