<?xml version="1.0" encoding="utf-8"?>
<!-- Generator: Adobe Illustrator 20.1.0, SVG Export Plug-In . SVG Version: 6.00 Build 0)  -->
<!DOCTYPE svg PUBLIC "-//W3C//DTD SVG 1.1//EN" "http://www.w3.org/Graphics/SVG/1.1/DTD/svg11.dtd">
<svg version="1.1" id="Layer_1" xmlns="http://www.w3.org/2000/svg" xmlns:xlink="http://www.w3.org/1999/xlink" x="0px" y="0px"
	 width="48px" height="48px" viewBox="0 0 48 48" enable-background="new 0 0 48 48" xml:space="preserve">
<path d="M42,7h-8.152C31.938,3.177,27.925,1,24,1s-7.938,2.177-9.848,6H6c-2.757,0-5,2.243-5,5v30c0,2.757,2.243,5,5,5h36
	c2.757,0,5-2.243,5-5V12C47,9.243,44.757,7,42,7z M24,35c-0.552,0-1,0.447-1,1v3H9.997l10.133-13.546
	c1.668,1.985,3.011,3.35,3.161,3.5c0.188,0.189,0.443,0.296,0.71,0.296s0.522-0.106,0.71-0.296c0.149-0.15,1.492-1.515,3.161-3.5
	L38.003,39H25v-3C25,35.447,24.552,35,24,35z M18.829,23.855L9,36.994V15h4.564C14.57,17.982,16.77,21.236,18.829,23.855z
	 M39,36.994l-9.829-13.139c2.058-2.618,4.258-5.872,5.265-8.855H39V36.994z M24,3c4.424,0,9,3.366,9,9c0,4.351-5.953,11.572-9,14.81
	c-3.048-3.236-9-10.455-9-14.81C15,6.366,19.576,3,24,3z M45,42c0,1.654-1.346,3-3,3H6c-1.654,0-3-1.346-3-3V12c0-1.654,1.346-3,3-3
	h7.398C13.149,9.932,13,10.928,13,12c0,0.324,0.031,0.66,0.078,1H8c-0.552,0-1,0.447-1,1v26c0,0.025,0.012,0.045,0.014,0.069
	c0.005,0.069,0.021,0.133,0.04,0.199c0.017,0.061,0.033,0.12,0.061,0.175c0.027,0.055,0.064,0.102,0.102,0.151
	c0.042,0.056,0.084,0.108,0.137,0.153c0.018,0.016,0.027,0.038,0.047,0.052c0.042,0.032,0.09,0.047,0.135,0.07
	c0.037,0.02,0.071,0.042,0.11,0.057C7.761,40.972,7.88,41,7.999,41c0,0,0,0,0,0S8,41,8,41h32c0,0,0,0,0.001,0s0,0,0,0
	c0.119,0,0.238-0.028,0.352-0.071c0.04-0.015,0.073-0.038,0.11-0.057c0.045-0.024,0.093-0.039,0.135-0.07
	c0.019-0.015,0.028-0.036,0.047-0.052c0.053-0.046,0.095-0.098,0.137-0.153c0.038-0.05,0.075-0.097,0.102-0.151
	c0.028-0.055,0.044-0.114,0.061-0.175c0.019-0.067,0.035-0.13,0.04-0.199C40.988,40.045,41,40.025,41,40V14c0-0.553-0.448-1-1-1
	h-5.078C34.969,12.66,35,12.324,35,12c0-1.072-0.149-2.068-0.398-3H42c1.654,0,3,1.346,3,3V42z"/>
<circle cx="24" cy="12" r="2"/>
</svg>
