<?xml version="1.0" encoding="utf-8"?>
<!-- Generator: Adobe Illustrator 20.1.0, SVG Export Plug-In . SVG Version: 6.00 Build 0)  -->
<!DOCTYPE svg PUBLIC "-//W3C//DTD SVG 1.1//EN" "http://www.w3.org/Graphics/SVG/1.1/DTD/svg11.dtd">
<svg version="1.1" id="Layer_1" xmlns="http://www.w3.org/2000/svg" xmlns:xlink="http://www.w3.org/1999/xlink" x="0px" y="0px"
	 width="48px" height="48px" viewBox="0 0 48 48" enable-background="new 0 0 48 48" xml:space="preserve">
<path d="M34,7H14c-2.757,0-5,2.243-5,5v30c0,2.757,2.243,5,5,5h20c2.757,0,5-2.243,5-5V12C39,9.243,36.757,7,34,7z M37,42
	c0,1.654-1.346,3-3,3H14c-1.654,0-3-1.346-3-3V12c0-1.654,1.346-3,3-3h20c1.654,0,3,1.346,3,3V42z"/>
<path d="M32,3c0.553,0,1-0.447,1-1s-0.447-1-1-1h-5c-0.553,0-1,0.447-1,1s0.447,1,1,1H32z"/>
<path d="M18,25c-0.553,0-1,0.447-1,1v2c0,0.553,0.447,1,1,1s1-0.447,1-1v-2C19,25.447,18.553,25,18,25z"/>
<path d="M24,19c-0.553,0-1,0.447-1,1v14c0,0.553,0.447,1,1,1s1-0.447,1-1V20C25,19.447,24.553,19,24,19z"/>
<path d="M30,23c-0.553,0-1,0.447-1,1v6c0,0.553,0.447,1,1,1s1-0.447,1-1v-6C31,23.447,30.553,23,30,23z"/>
</svg>
