<?xml version="1.0" encoding="utf-8"?>
<!-- Generator: Adobe Illustrator 20.1.0, SVG Export Plug-In . SVG Version: 6.00 Build 0)  -->
<!DOCTYPE svg PUBLIC "-//W3C//DTD SVG 1.1//EN" "http://www.w3.org/Graphics/SVG/1.1/DTD/svg11.dtd">
<svg version="1.1" id="Layer_1" xmlns="http://www.w3.org/2000/svg" xmlns:xlink="http://www.w3.org/1999/xlink" x="0px" y="0px"
	 width="48px" height="48px" viewBox="0 0 48 48" enable-background="new 0 0 48 48" xml:space="preserve">
<path d="M24,39c-1.07,0-2.068-0.578-2.603-1.507c-0.276-0.479-0.886-0.645-1.366-0.368c-0.479,0.275-0.644,0.887-0.368,1.365
	C20.554,40.038,22.216,41,24,41c2.757,0,5-2.243,5-5c0-1.778-0.957-3.437-2.497-4.329c-0.477-0.277-1.09-0.114-1.366,0.364
	c-0.277,0.478-0.114,1.09,0.364,1.367C26.426,33.937,27,34.933,27,36C27,37.654,25.654,39,24,39z"/>
<path d="M4.908,16.908C10.007,11.809,16.787,9,24,9c3.92,0,7.71,0.836,11.174,2.412l-7.904,7.904C26.204,19.109,25.11,19,24,19
	c-4.541,0-8.81,1.769-12.021,4.979c-0.391,0.391-0.391,1.023,0,1.414s1.023,0.391,1.414,0C16.227,22.561,19.993,21,24,21
	c0.508,0,1.012,0.026,1.51,0.076L7.293,39.293c-0.391,0.391-0.391,1.023,0,1.414C7.488,40.902,7.744,41,8,41
	s0.512-0.098,0.707-0.293l19.184-19.184c2.515,0.672,4.826,1.98,6.716,3.87c0.195,0.195,0.451,0.293,0.707,0.293
	s0.512-0.098,0.707-0.293c0.391-0.391,0.391-1.023,0-1.414c-1.868-1.868-4.1-3.23-6.528-4.058l7.563-7.563
	c2.187,1.212,4.22,2.732,6.037,4.549c0.195,0.195,0.451,0.293,0.707,0.293s0.512-0.098,0.707-0.293c0.391-0.39,0.391-1.023,0-1.414
	c-1.812-1.812-3.825-3.349-5.984-4.602l6.185-6.185c0.391-0.391,0.391-1.023,0-1.414s-1.023-0.391-1.414,0l-6.615,6.615
	C32.777,8.008,28.467,7,24,7c-7.747,0-15.029,3.017-20.506,8.494c-0.391,0.391-0.391,1.024,0,1.414
	C3.885,17.299,4.518,17.299,4.908,16.908z"/>
</svg>
