<?xml version="1.0" encoding="utf-8"?>
<!-- Generator: Adobe Illustrator 20.1.0, SVG Export Plug-In . SVG Version: 6.00 Build 0)  -->
<!DOCTYPE svg PUBLIC "-//W3C//DTD SVG 1.1//EN" "http://www.w3.org/Graphics/SVG/1.1/DTD/svg11.dtd">
<svg version="1.1" id="Layer_1" xmlns="http://www.w3.org/2000/svg" xmlns:xlink="http://www.w3.org/1999/xlink" x="0px" y="0px"
	 width="48px" height="48px" viewBox="0 0 48 48" enable-background="new 0 0 48 48" xml:space="preserve">
<path d="M37,7H11c-0.552,0-1,0.447-1,1v30c0,0.553,0.448,1,1,1h26c0.552,0,1-0.447,1-1V8C38,7.447,37.552,7,37,7z M36,9v20H12V9H36z
	 M12,37v-6h24v6H12z"/>
<path d="M39,1H9C6.243,1,4,3.243,4,6v36c0,2.757,2.243,5,5,5h30c2.757,0,5-2.243,5-5V6C44,3.243,41.757,1,39,1z M42,42
	c0,1.654-1.346,3-3,3H9c-1.654,0-3-1.346-3-3V6c0-1.654,1.346-3,3-3h30c1.654,0,3,1.346,3,3V42z"/>
</svg>
