<?xml version="1.0" encoding="utf-8"?>
<!-- Generator: Adobe Illustrator 20.1.0, SVG Export Plug-In . SVG Version: 6.00 Build 0)  -->
<!DOCTYPE svg PUBLIC "-//W3C//DTD SVG 1.1//EN" "http://www.w3.org/Graphics/SVG/1.1/DTD/svg11.dtd">
<svg version="1.1" id="Layer_1" xmlns="http://www.w3.org/2000/svg" xmlns:xlink="http://www.w3.org/1999/xlink" x="0px" y="0px"
	 width="48px" height="48px" viewBox="0 0 48 48" enable-background="new 0 0 48 48" xml:space="preserve">
<path d="M44.707,34.293c-0.391-0.391-1.023-0.391-1.414,0L34,43.586l-3.293-3.293c-0.391-0.391-1.023-0.391-1.414,0
	s-0.391,1.023,0,1.414l4,4C33.488,45.902,33.744,46,34,46s0.512-0.098,0.707-0.293l10-10C45.098,35.316,45.098,34.684,44.707,34.293
	z"/>
<path d="M39,28c0.553,0,1-0.447,1-1V6c0-2.757-2.243-5-5-5H11C8.243,1,6,3.243,6,6v36c0,2.757,2.243,5,5,5h12c0.553,0,1-0.447,1-1
	s-0.447-1-1-1H11c-1.654,0-3-1.346-3-3v-5h15c0.553,0,1-0.447,1-1s-0.447-1-1-1H8V11h30v16C38,27.553,38.447,28,39,28z M8,9V6
	c0-1.654,1.346-3,3-3h24c1.654,0,3,1.346,3,3v3H8z"/>
</svg>
