<?xml version="1.0" encoding="utf-8"?>
<!-- Generator: Adobe Illustrator 20.1.0, SVG Export Plug-In . SVG Version: 6.00 Build 0)  -->
<!DOCTYPE svg PUBLIC "-//W3C//DTD SVG 1.1//EN" "http://www.w3.org/Graphics/SVG/1.1/DTD/svg11.dtd">
<svg version="1.1" id="Layer_1" xmlns="http://www.w3.org/2000/svg" xmlns:xlink="http://www.w3.org/1999/xlink" x="0px" y="0px"
	 width="48px" height="48px" viewBox="0 0 48 48" enable-background="new 0 0 48 48" xml:space="preserve">
<path d="M46,11H35V6c0-0.553-0.448-1-1-1s-1,0.447-1,1v5H23V8c0-3.859-3.14-7-7-7S9,4.141,9,8v3H2c-0.552,0-1,0.447-1,1v24
	c0,0.553,0.448,1,1,1h19v3c0,3.859,3.14,7,7,7s7-3.141,7-7v-3h11c0.552,0,1-0.447,1-1V12C47,11.447,46.552,11,46,11z M11,8
	c0-2.757,2.243-5,5-5s5,2.243,5,5v3H11V8z M33,40c0,2.757-2.243,5-5,5s-5-2.243-5-5v-3h10V40z M45,35H3V13h42V35z"/>
<path d="M10,19H8c-0.552,0-1,0.447-1,1s0.448,1,1,1h2c0.552,0,1-0.447,1-1S10.552,19,10,19z"/>
<path d="M18,21h2c0.552,0,1-0.447,1-1s-0.448-1-1-1h-2c-0.552,0-1,0.447-1,1S17.448,21,18,21z"/>
<path d="M30,19h-2c-0.552,0-1,0.447-1,1s0.448,1,1,1h2c0.552,0,1-0.447,1-1S30.552,19,30,19z"/>
<path d="M38,21h2c0.552,0,1-0.447,1-1s-0.448-1-1-1h-2c-0.552,0-1,0.447-1,1S37.448,21,38,21z"/>
<path d="M10,27H8c-0.552,0-1,0.447-1,1s0.448,1,1,1h2c0.552,0,1-0.447,1-1S10.552,27,10,27z"/>
<path d="M30,27H18c-0.552,0-1,0.447-1,1s0.448,1,1,1h12c0.552,0,1-0.447,1-1S30.552,27,30,27z"/>
<path d="M38,29h2c0.552,0,1-0.447,1-1s-0.448-1-1-1h-2c-0.552,0-1,0.447-1,1S37.448,29,38,29z"/>
</svg>
