<?xml version="1.0" encoding="utf-8"?>
<!-- Generator: Adobe Illustrator 20.1.0, SVG Export Plug-In . SVG Version: 6.00 Build 0)  -->
<!DOCTYPE svg PUBLIC "-//W3C//DTD SVG 1.1//EN" "http://www.w3.org/Graphics/SVG/1.1/DTD/svg11.dtd">
<svg version="1.1" id="Layer_1" xmlns="http://www.w3.org/2000/svg" xmlns:xlink="http://www.w3.org/1999/xlink" x="0px" y="0px"
	 width="48px" height="48px" viewBox="0 0 48 48" enable-background="new 0 0 48 48" xml:space="preserve">
<ellipse transform="matrix(0.9831 -0.1831 0.1831 0.9831 -2.2587 3.5317)" cx="18" cy="14" rx="2" ry="2"/>
<path d="M12.104,29.106c0.167,0.115,0.365,0.175,0.565,0.175c0.061,0,0.122-0.005,0.183-0.017l32.822-6.112
	c0.543-0.101,0.901-0.623,0.801-1.166l-2.929-15.73c-0.245-1.313-0.985-2.452-2.087-3.208c-1.101-0.755-2.433-1.038-3.743-0.792
	L8.826,7.637C8.565,7.685,8.334,7.835,8.185,8.054c-0.15,0.219-0.207,0.488-0.159,0.749l3.661,19.662
	C11.735,28.726,11.886,28.957,12.104,29.106z M38.083,4.223c0.784-0.147,1.585,0.022,2.245,0.476
	c0.661,0.453,1.105,1.137,1.252,1.924l2.746,14.747L13.47,27.116L10.175,9.42L38.083,4.223z"/>
<path d="M2.689,10.813c-0.542,0.101-0.9,0.623-0.8,1.166l2.93,15.729c0.09,0.481,0.51,0.817,0.982,0.817
	c0.061,0,0.122-0.005,0.185-0.017c0.542-0.101,0.9-0.623,0.8-1.166l-2.93-15.729C3.755,11.07,3.239,10.711,2.689,10.813z"/>
<path d="M46,34c-0.553,0-1,0.448-1,1v5h-8.611c-1.473,0-2.717-1.054-2.959-2.507l-1.067-6.401c-0.09-0.545-0.604-0.914-1.15-0.822
	c-0.545,0.091-0.913,0.606-0.822,1.151l1.067,6.401C31.86,40.243,33.935,42,36.389,42H45v4c0,0.552,0.447,1,1,1s1-0.448,1-1V35
	C47,34.448,46.553,34,46,34z"/>
</svg>
