<?xml version="1.0" encoding="utf-8"?>
<!-- Generator: Adobe Illustrator 20.1.0, SVG Export Plug-In . SVG Version: 6.00 Build 0)  -->
<!DOCTYPE svg PUBLIC "-//W3C//DTD SVG 1.1//EN" "http://www.w3.org/Graphics/SVG/1.1/DTD/svg11.dtd">
<svg version="1.1" id="Layer_1" xmlns="http://www.w3.org/2000/svg" xmlns:xlink="http://www.w3.org/1999/xlink" x="0px" y="0px"
	 width="48px" height="48px" viewBox="0 0 48 48" enable-background="new 0 0 48 48" xml:space="preserve">
<path d="M46.889,23.562c-0.015-0.03-0.023-0.063-0.041-0.092l-10-16C36.665,7.178,36.345,7,36,7H12c-0.345,0-0.665,0.178-0.848,0.47
	l-10,16c-0.018,0.029-0.026,0.062-0.041,0.092c-0.015,0.031-0.029,0.061-0.042,0.093C1.028,23.766,1,23.881,1,24v16
	c0,0.552,0.447,1,1,1h44c0.553,0,1-0.448,1-1V24c0-0.119-0.028-0.234-0.069-0.344C46.918,23.623,46.904,23.593,46.889,23.562z
	 M12.555,9h22.891l8.75,14H3.804L12.555,9z M3,39V25h42v14H3z"/>
<path d="M38,31H10c-0.553,0-1,0.448-1,1s0.447,1,1,1h28c0.553,0,1-0.448,1-1S38.553,31,38,31z"/>
</svg>
