<?xml version="1.0" encoding="utf-8"?>
<!-- Generator: Adobe Illustrator 20.1.0, SVG Export Plug-In . SVG Version: 6.00 Build 0)  -->
<!DOCTYPE svg PUBLIC "-//W3C//DTD SVG 1.1//EN" "http://www.w3.org/Graphics/SVG/1.1/DTD/svg11.dtd">
<svg version="1.1" id="Layer_1" xmlns="http://www.w3.org/2000/svg" xmlns:xlink="http://www.w3.org/1999/xlink" x="0px" y="0px"
	 width="48px" height="48px" viewBox="0 0 48 48" enable-background="new 0 0 48 48" xml:space="preserve">
<path d="M41.598,37.184C42.474,36.015,43,34.57,43,33c0-3.859-3.141-7-7-7s-7,3.141-7,7s3.141,7,7,7c1.57,0,3.015-0.526,4.184-1.402
	l5.109,5.109C45.488,43.902,45.744,44,46,44s0.512-0.098,0.707-0.293c0.391-0.391,0.391-1.023,0-1.414L41.598,37.184z M31,33
	c0-2.757,2.243-5,5-5s5,2.243,5,5s-2.243,5-5,5S31,35.757,31,33z"/>
<path d="M25,31c0-0.553-0.447-1-1-1H2c-0.553,0-1,0.447-1,1c0,3.859,3.141,7,7,7h16c0.553,0,1-0.447,1-1s-0.447-1-1-1H8
	c-2.415,0-4.435-1.721-4.899-4H24C24.553,32,25,31.553,25,31z"/>
<path d="M42,22c0.553,0,1-0.447,1-1V10c0-2.757-2.243-5-5-5H10c-2.757,0-5,2.243-5,5v16c0,0.553,0.447,1,1,1s1-0.447,1-1V10
	c0-1.654,1.346-3,3-3h28c1.654,0,3,1.346,3,3v11C41,21.553,41.447,22,42,22z"/>
<path d="M25,11h-2c-0.553,0-1,0.447-1,1s0.447,1,1,1h2c0.553,0,1-0.447,1-1S25.553,11,25,11z"/>
</svg>
