<?xml version="1.0" encoding="utf-8"?>
<!-- Generator: Adobe Illustrator 20.1.0, SVG Export Plug-In . SVG Version: 6.00 Build 0)  -->
<!DOCTYPE svg PUBLIC "-//W3C//DTD SVG 1.1//EN" "http://www.w3.org/Graphics/SVG/1.1/DTD/svg11.dtd">
<svg version="1.1" id="Layer_1" xmlns="http://www.w3.org/2000/svg" xmlns:xlink="http://www.w3.org/1999/xlink" x="0px" y="0px"
	 width="48px" height="48px" viewBox="0 0 48 48" enable-background="new 0 0 48 48" xml:space="preserve">
<path d="M42,11H6c-2.757,0-5,2.243-5,5v20c0,0.553,0.448,1,1,1h7v9c0,0.553,0.448,1,1,1h28c0.552,0,1-0.447,1-1v-9h7
	c0.552,0,1-0.447,1-1V16C47,13.243,44.757,11,42,11z M37,45H11V24h26V45z M45,35h-6V23c0-0.553-0.448-1-1-1H10c-0.552,0-1,0.447-1,1
	v12H3V16c0-1.654,1.346-3,3-3h36c1.654,0,3,1.346,3,3V35z"/>
<path d="M38,8c0.552,0,1-0.447,1-1V2c0-0.553-0.448-1-1-1H10C9.448,1,9,1.447,9,2v5c0,0.553,0.448,1,1,1s1-0.447,1-1V3h26v4
	C37,7.553,37.448,8,38,8z"/>
<path d="M30,30H18c-0.552,0-1,0.447-1,1s0.448,1,1,1h12c0.552,0,1-0.447,1-1S30.552,30,30,30z"/>
<path d="M30,37H18c-0.552,0-1,0.447-1,1s0.448,1,1,1h12c0.552,0,1-0.447,1-1S30.552,37,30,37z"/>
</svg>
