<?xml version="1.0" encoding="utf-8"?>
<!-- Generator: Adobe Illustrator 20.1.0, SVG Export Plug-In . SVG Version: 6.00 Build 0)  -->
<!DOCTYPE svg PUBLIC "-//W3C//DTD SVG 1.1//EN" "http://www.w3.org/Graphics/SVG/1.1/DTD/svg11.dtd">
<svg version="1.1" id="Layer_1" xmlns="http://www.w3.org/2000/svg" xmlns:xlink="http://www.w3.org/1999/xlink" x="0px" y="0px"
	 width="48px" height="48px" viewBox="0 0 48 48" enable-background="new 0 0 48 48" xml:space="preserve">
<path d="M46,3H2C1.448,3,1,3.448,1,4v24c0,0.552,0.448,1,1,1h44c0.552,0,1-0.448,1-1V4C47,3.448,46.552,3,46,3z M45,27H3V5h42V27z"
	/>
<path d="M8,13h2c0.552,0,1-0.448,1-1s-0.448-1-1-1H8c-0.552,0-1,0.448-1,1S7.448,13,8,13z"/>
<path d="M18,13h2c0.552,0,1-0.448,1-1s-0.448-1-1-1h-2c-0.552,0-1,0.448-1,1S17.448,13,18,13z"/>
<path d="M28,13h2c0.552,0,1-0.448,1-1s-0.448-1-1-1h-2c-0.552,0-1,0.448-1,1S27.448,13,28,13z"/>
<path d="M38,13h2c0.552,0,1-0.448,1-1s-0.448-1-1-1h-2c-0.552,0-1,0.448-1,1S37.448,13,38,13z"/>
<path d="M8,21h2c0.552,0,1-0.448,1-1s-0.448-1-1-1H8c-0.552,0-1,0.448-1,1S7.448,21,8,21z"/>
<path d="M18,21h12c0.552,0,1-0.448,1-1s-0.448-1-1-1H18c-0.552,0-1,0.448-1,1S17.448,21,18,21z"/>
<path d="M38,21h2c0.552,0,1-0.448,1-1s-0.448-1-1-1h-2c-0.552,0-1,0.448-1,1S37.448,21,38,21z"/>
<path d="M24,45c0.211,0,0.422-0.067,0.6-0.2l8-6c0.442-0.331,0.531-0.958,0.2-1.4c-0.33-0.44-0.956-0.531-1.4-0.2L24,42.75
	l-7.4-5.55c-0.442-0.332-1.068-0.241-1.4,0.2c-0.332,0.442-0.242,1.069,0.2,1.4l8,6C23.578,44.933,23.789,45,24,45z"/>
</svg>
