<?xml version="1.0" encoding="utf-8"?>
<!-- Generator: Adobe Illustrator 20.1.0, SVG Export Plug-In . SVG Version: 6.00 Build 0)  -->
<!DOCTYPE svg PUBLIC "-//W3C//DTD SVG 1.1//EN" "http://www.w3.org/Graphics/SVG/1.1/DTD/svg11.dtd">
<svg version="1.1" id="Layer_1" xmlns="http://www.w3.org/2000/svg" xmlns:xlink="http://www.w3.org/1999/xlink" x="0px" y="0px"
	 width="48px" height="48px" viewBox="0 0 48 48" enable-background="new 0 0 48 48" xml:space="preserve">
<path d="M8,47h14c0.552,0,1-0.448,1-1s-0.448-1-1-1H8c-1.654,0-3-1.346-3-3v-5h17c0.552,0,1-0.448,1-1s-0.448-1-1-1H5V11h30v9
	c0,0.552,0.448,1,1,1s1-0.448,1-1V6c0-2.757-2.243-5-5-5H8C5.243,1,3,3.243,3,6v36C3,44.757,5.243,47,8,47z M8,3h24
	c1.654,0,3,1.346,3,3v3H5V6C5,4.346,6.346,3,8,3z"/>
<path d="M31,30v5h-3c-0.552,0-1,0.448-1,1v10c0,0.552,0.448,1,1,1h16c0.552,0,1-0.448,1-1V36c0-0.552-0.448-1-1-1h-3v-5
	c0-2.757-2.243-5-5-5S31,27.243,31,30z M43,45H29v-8h14V45z M39,30v5h-6v-5c0-1.654,1.346-3,3-3S39,28.346,39,30z"/>
</svg>
