<?xml version="1.0" encoding="utf-8"?>
<!-- Generator: Adobe Illustrator 20.1.0, SVG Export Plug-In . SVG Version: 6.00 Build 0)  -->
<!DOCTYPE svg PUBLIC "-//W3C//DTD SVG 1.1//EN" "http://www.w3.org/Graphics/SVG/1.1/DTD/svg11.dtd">
<svg version="1.1" id="Layer_1" xmlns="http://www.w3.org/2000/svg" xmlns:xlink="http://www.w3.org/1999/xlink" x="0px" y="0px"
	 width="48px" height="48px" viewBox="0 0 48 48" enable-background="new 0 0 48 48" xml:space="preserve">
<path d="M23,10h2c0.552,0,1-0.448,1-1s-0.448-1-1-1h-2c-0.552,0-1,0.448-1,1S22.448,10,23,10z"/>
<path d="M42,2H6C3.243,2,1,4.243,1,7v26c0,2.757,2.243,5,5,5h11v6h-5c-0.552,0-1,0.448-1,1s0.448,1,1,1h24c0.552,0,1-0.448,1-1
	s-0.448-1-1-1h-5v-6h11c2.757,0,5-2.243,5-5V7C47,4.243,44.757,2,42,2z M6,4h36c1.654,0,3,1.346,3,3v21H3V7C3,5.346,4.346,4,6,4z
	 M29,44H19v-6h10V44z M42,36H6c-1.654,0-3-1.346-3-3v-3h42v3C45,34.654,43.654,36,42,36z"/>
</svg>
