<?xml version="1.0" encoding="utf-8"?>
<!-- Generator: Adobe Illustrator 20.1.0, SVG Export Plug-In . SVG Version: 6.00 Build 0)  -->
<!DOCTYPE svg PUBLIC "-//W3C//DTD SVG 1.1//EN" "http://www.w3.org/Graphics/SVG/1.1/DTD/svg11.dtd">
<svg version="1.1" id="Layer_1" xmlns="http://www.w3.org/2000/svg" xmlns:xlink="http://www.w3.org/1999/xlink" x="0px" y="0px"
	 width="48px" height="48px" viewBox="0 0 48 48" enable-background="new 0 0 48 48" xml:space="preserve">
<path d="M13,47h22c2.757,0,5-2.243,5-5V6c0-2.757-2.243-5-5-5H13c-2.757,0-5,2.243-5,5v36C8,44.757,10.243,47,13,47z M38,33H10V13
	h28V33z M35,45H13c-1.654,0-3-1.346-3-3v-7h28v7C38,43.654,36.654,45,35,45z M13,3h22c1.654,0,3,1.346,3,3v5H10V6
	C10,4.346,11.346,3,13,3z"/>
<path d="M22,8h4c0.553,0,1-0.448,1-1s-0.447-1-1-1h-4c-0.553,0-1,0.448-1,1S21.447,8,22,8z"/>
</svg>
