<?xml version="1.0" encoding="utf-8"?>
<!-- Generator: Adobe Illustrator 20.1.0, SVG Export Plug-In . SVG Version: 6.00 Build 0)  -->
<!DOCTYPE svg PUBLIC "-//W3C//DTD SVG 1.1//EN" "http://www.w3.org/Graphics/SVG/1.1/DTD/svg11.dtd">
<svg version="1.1" id="Layer_1" xmlns="http://www.w3.org/2000/svg" xmlns:xlink="http://www.w3.org/1999/xlink" x="0px" y="0px"
	 width="48px" height="48px" viewBox="0 0 48 48" enable-background="new 0 0 48 48" xml:space="preserve">
<path d="M26.5,25.668C25.742,25.231,24.878,25,24,25c-2.757,0-5,2.243-5,5s2.243,5,5,5c0.553,0,1-0.448,1-1s-0.447-1-1-1
	c-1.654,0-3-1.346-3-3s1.346-3,3-3c0.527,0,1.046,0.139,1.5,0.401c0.477,0.275,1.089,0.112,1.366-0.366
	C27.143,26.556,26.979,25.945,26.5,25.668z"/>
<path d="M35.313,19.687c0.256,0,0.512-0.098,0.707-0.293c0.391-0.391,0.391-1.023,0-1.414C32.81,14.769,28.541,13,24,13
	s-8.81,1.769-12.021,4.979c-0.391,0.391-0.391,1.023,0,1.414s1.023,0.391,1.414,0C16.227,16.561,19.993,15,24,15
	s7.773,1.561,10.606,4.394C34.802,19.589,35.058,19.687,35.313,19.687z"/>
<path d="M4.908,10.908C10.007,5.809,16.787,3,24,3s13.993,2.809,19.092,7.908c0.195,0.195,0.451,0.293,0.707,0.293
	s0.512-0.098,0.707-0.293c0.391-0.39,0.391-1.023,0-1.414C39.029,4.017,31.747,1,24,1S8.971,4.017,3.494,9.494
	c-0.391,0.391-0.391,1.024,0,1.414C3.885,11.299,4.518,11.299,4.908,10.908z"/>
<path d="M46,35h-3v-5c0-2.757-2.243-5-5-5s-5,2.243-5,5v5h-3c-0.553,0-1,0.448-1,1v10c0,0.552,0.447,1,1,1h16c0.553,0,1-0.448,1-1
	V36C47,35.448,46.553,35,46,35z M35,30c0-1.654,1.346-3,3-3s3,1.346,3,3v5h-6V30z M45,45H31v-8h14V45z"/>
</svg>
