<?xml version="1.0" encoding="utf-8"?>
<!-- Generator: Adobe Illustrator 20.1.0, SVG Export Plug-In . SVG Version: 6.00 Build 0)  -->
<!DOCTYPE svg PUBLIC "-//W3C//DTD SVG 1.1//EN" "http://www.w3.org/Graphics/SVG/1.1/DTD/svg11.dtd">
<svg version="1.1" id="Layer_1" xmlns="http://www.w3.org/2000/svg" xmlns:xlink="http://www.w3.org/1999/xlink" x="0px" y="0px"
	 width="48px" height="48px" viewBox="0 0 48 48" enable-background="new 0 0 48 48" xml:space="preserve">
<path d="M38,24c-4.424,0-9,3.229-9,8.634c0,5.016,7.459,12.278,8.31,13.09C37.503,45.908,37.751,46,38,46s0.497-0.092,0.69-0.276
	c0.851-0.812,8.31-8.074,8.31-13.09C47,27.229,42.424,24,38,24z M38,43.595c-2.448-2.484-7-7.764-7-10.961C31,28.481,34.56,26,38,26
	s7,2.481,7,6.634C45,35.827,40.448,41.109,38,43.595z"/>
<circle cx="38" cy="33" r="2"/>
<path d="M5,6v36c0,2.757,2.243,5,5,5h20c0.553,0,1-0.447,1-1s-0.447-1-1-1H10c-1.654,0-3-1.346-3-3v-5h17c0.553,0,1-0.447,1-1
	s-0.447-1-1-1H7V11h30v8c0,0.552,0.447,1,1,1s1-0.448,1-1V6c0-2.757-2.243-5-5-5H10C7.243,1,5,3.243,5,6z M10,3h24
	c1.654,0,3,1.346,3,3v3H7V6C7,4.346,8.346,3,10,3z"/>
</svg>
