<?xml version="1.0" encoding="utf-8"?>
<!-- Generator: Adobe Illustrator 20.1.0, SVG Export Plug-In . SVG Version: 6.00 Build 0)  -->
<!DOCTYPE svg PUBLIC "-//W3C//DTD SVG 1.1//EN" "http://www.w3.org/Graphics/SVG/1.1/DTD/svg11.dtd">
<svg version="1.1" id="Layer_1" xmlns="http://www.w3.org/2000/svg" xmlns:xlink="http://www.w3.org/1999/xlink" x="0px" y="0px"
	 width="48px" height="48px" viewBox="0 0 48 48" enable-background="new 0 0 48 48" xml:space="preserve">
<path d="M46,11H2c-0.552,0-1,0.447-1,1v24c0,0.553,0.448,1,1,1h44c0.552,0,1-0.447,1-1V12C47,11.447,46.552,11,46,11z M45,35H3V13
	h42V35z"/>
<path d="M8,21h2c0.552,0,1-0.447,1-1s-0.448-1-1-1H8c-0.552,0-1,0.447-1,1S7.448,21,8,21z"/>
<path d="M18,21h2c0.552,0,1-0.447,1-1s-0.448-1-1-1h-2c-0.552,0-1,0.447-1,1S17.448,21,18,21z"/>
<path d="M28,21h2c0.552,0,1-0.447,1-1s-0.448-1-1-1h-2c-0.552,0-1,0.447-1,1S27.448,21,28,21z"/>
<path d="M38,21h2c0.552,0,1-0.447,1-1s-0.448-1-1-1h-2c-0.552,0-1,0.447-1,1S37.448,21,38,21z"/>
<path d="M8,29h2c0.552,0,1-0.447,1-1s-0.448-1-1-1H8c-0.552,0-1,0.447-1,1S7.448,29,8,29z"/>
<path d="M18,29h12c0.552,0,1-0.447,1-1s-0.448-1-1-1H18c-0.552,0-1,0.447-1,1S17.448,29,18,29z"/>
<path d="M38,29h2c0.552,0,1-0.447,1-1s-0.448-1-1-1h-2c-0.552,0-1,0.447-1,1S37.448,29,38,29z"/>
</svg>
