<?xml version="1.0" encoding="utf-8"?>
<!-- Generator: Adobe Illustrator 20.1.0, SVG Export Plug-In . SVG Version: 6.00 Build 0)  -->
<!DOCTYPE svg PUBLIC "-//W3C//DTD SVG 1.1//EN" "http://www.w3.org/Graphics/SVG/1.1/DTD/svg11.dtd">
<svg version="1.1" id="Layer_1" xmlns="http://www.w3.org/2000/svg" xmlns:xlink="http://www.w3.org/1999/xlink" x="0px" y="0px"
	 width="48px" height="48px" viewBox="0 0 48 48" enable-background="new 0 0 48 48" xml:space="preserve">
<path d="M11.057,34.995l1.958,11.178C13.099,46.651,13.514,47,14,47h20c0.486,0,0.901-0.349,0.985-0.828l1.958-11.178
	C39.467,32.028,41,28.192,41,24s-1.533-8.028-4.057-10.995L34.985,1.828C34.901,1.349,34.486,1,34,1H14
	c-0.486,0-0.901,0.349-0.985,0.828l-1.958,11.178C8.533,15.972,7,19.808,7,24S8.533,32.028,11.057,34.995z M33.16,45H14.84
	l-1.341-7.658C16.393,39.625,20.036,41,24,41s7.607-1.375,10.502-3.658L33.16,45z M24,39c-8.271,0-15-6.729-15-15S15.729,9,24,9
	s15,6.729,15,15S32.271,39,24,39z M14.84,3h18.32l1.341,7.658C31.607,8.375,27.964,7,24,7s-7.607,1.375-10.502,3.658L14.84,3z"/>
<path d="M32,23h-7v-7c0-0.552-0.448-1-1-1s-1,0.448-1,1v8c0,0.552,0.448,1,1,1h8c0.552,0,1-0.448,1-1S32.552,23,32,23z"/>
</svg>
