<?xml version="1.0" encoding="utf-8"?>
<!-- Generator: Adobe Illustrator 20.1.0, SVG Export Plug-In . SVG Version: 6.00 Build 0)  -->
<!DOCTYPE svg PUBLIC "-//W3C//DTD SVG 1.1//EN" "http://www.w3.org/Graphics/SVG/1.1/DTD/svg11.dtd">
<svg version="1.1" id="Layer_1" xmlns="http://www.w3.org/2000/svg" xmlns:xlink="http://www.w3.org/1999/xlink" x="0px" y="0px"
	 width="48px" height="48px" viewBox="0 0 48 48" enable-background="new 0 0 48 48" xml:space="preserve">
<path d="M5,20c0,1.426,0.159,2.847,0.473,4.222C5.578,24.686,5.99,25,6.446,25c0.073,0,0.148-0.008,0.223-0.025
	c0.539-0.123,0.876-0.659,0.753-1.197C7.142,22.548,7,21.277,7,20c0-9.374,7.626-17,17-17s17,7.626,17,17
	c0,1.276-0.142,2.547-0.422,3.777c-0.123,0.539,0.214,1.075,0.753,1.197c0.534,0.121,1.073-0.214,1.196-0.753
	C42.841,22.846,43,21.426,43,20C43,9.523,34.477,1,24,1S5,9.523,5,20z"/>
<path d="M46,29H2c-0.553,0-1,0.448-1,1v16c0,0.552,0.447,1,1,1h44c0.553,0,1-0.448,1-1V30C47,29.448,46.553,29,46,29z M45,45H3V31
	h42V45z"/>
<path d="M12,39h24c0.553,0,1-0.448,1-1s-0.447-1-1-1H12c-0.553,0-1,0.448-1,1S11.447,39,12,39z"/>
<path d="M20.941,8.35c-0.184-0.52-0.754-0.794-1.275-0.609c-3.667,1.296-6.63,4.259-7.926,7.926
	c-0.185,0.521,0.089,1.092,0.609,1.276C12.46,16.982,12.572,17,12.683,17c0.412,0,0.798-0.257,0.942-0.667
	c1.098-3.104,3.604-5.611,6.707-6.708C20.853,9.442,21.126,8.871,20.941,8.35z"/>
<path d="M24,25c2.757,0,5-2.243,5-5s-2.243-5-5-5s-5,2.243-5,5S21.243,25,24,25z M24,17c1.654,0,3,1.346,3,3s-1.346,3-3,3
	s-3-1.346-3-3S22.346,17,24,17z"/>
</svg>
