<?xml version="1.0" encoding="utf-8"?>
<!-- Generator: Adobe Illustrator 20.1.0, SVG Export Plug-In . SVG Version: 6.00 Build 0)  -->
<!DOCTYPE svg PUBLIC "-//W3C//DTD SVG 1.1//EN" "http://www.w3.org/Graphics/SVG/1.1/DTD/svg11.dtd">
<svg version="1.1" id="Layer_1" xmlns="http://www.w3.org/2000/svg" xmlns:xlink="http://www.w3.org/1999/xlink" x="0px" y="0px"
	 width="48px" height="48px" viewBox="0 0 48 48" enable-background="new 0 0 48 48" xml:space="preserve">
<path d="M24,1C11.317,1,1,11.318,1,24s10.317,23,23,23s23-10.318,23-23S36.683,1,24,1z M24,45C12.421,45,3,35.58,3,24S12.421,3,24,3
	s21,9.42,21,21S35.579,45,24,45z"/>
<path d="M20.969,8.254c-0.138-0.535-0.688-0.853-1.218-0.719C13.759,9.078,9.078,13.759,7.535,19.75
	c-0.138,0.535,0.185,1.08,0.72,1.218C8.338,20.99,8.422,21,8.505,21c0.445,0,0.852-0.299,0.968-0.75
	c1.36-5.287,5.49-9.416,10.776-10.777C20.784,9.334,21.106,8.79,20.969,8.254z"/>
<path d="M24,17c-3.859,0-7,3.14-7,7s3.141,7,7,7s7-3.14,7-7S27.859,17,24,17z M24,29c-2.757,0-5-2.243-5-5s2.243-5,5-5s5,2.243,5,5
	S26.757,29,24,29z"/>
</svg>
