<?xml version="1.0" encoding="utf-8"?>
<!-- Generator: Adobe Illustrator 20.1.0, SVG Export Plug-In . SVG Version: 6.00 Build 0)  -->
<!DOCTYPE svg PUBLIC "-//W3C//DTD SVG 1.1//EN" "http://www.w3.org/Graphics/SVG/1.1/DTD/svg11.dtd">
<svg version="1.1" id="Layer_1" xmlns="http://www.w3.org/2000/svg" xmlns:xlink="http://www.w3.org/1999/xlink" x="0px" y="0px"
	 width="48px" height="48px" viewBox="0 0 48 48" enable-background="new 0 0 48 48" xml:space="preserve">
<path d="M46,32h-3v-5c0-2.757-2.243-5-5-5s-5,2.243-5,5v5h-3c-0.552,0-1,0.447-1,1v10c0,0.553,0.448,1,1,1h16c0.552,0,1-0.447,1-1
	V33C47,32.447,46.552,32,46,32z M35,27c0-1.654,1.346-3,3-3s3,1.346,3,3v5h-6V27z M45,42H31v-8h14V42z"/>
<path d="M1,30c0,3.859,3.14,7,7,7h16c0.552,0,1-0.447,1-1s-0.448-1-1-1H8c-2.415,0-4.435-1.721-4.899-4H24c0.552,0,1-0.447,1-1
	s-0.448-1-1-1H2C1.448,29,1,29.447,1,30z"/>
<path d="M5,25c0,0.553,0.448,1,1,1s1-0.447,1-1V9c0-1.654,1.346-3,3-3h28c1.654,0,3,1.346,3,3v9c0,0.553,0.448,1,1,1s1-0.447,1-1V9
	c0-2.757-2.243-5-5-5H10C7.243,4,5,6.243,5,9V25z"/>
<path d="M23,10c-0.552,0-1,0.447-1,1s0.448,1,1,1h2c0.552,0,1-0.447,1-1s-0.448-1-1-1H23z"/>
</svg>
