<?xml version="1.0" encoding="utf-8"?>
<!-- Generator: Adobe Illustrator 20.1.0, SVG Export Plug-In . SVG Version: 6.00 Build 0)  -->
<!DOCTYPE svg PUBLIC "-//W3C//DTD SVG 1.1//EN" "http://www.w3.org/Graphics/SVG/1.1/DTD/svg11.dtd">
<svg version="1.1" id="Layer_1" xmlns="http://www.w3.org/2000/svg" xmlns:xlink="http://www.w3.org/1999/xlink" x="0px" y="0px"
	 width="48px" height="48px" viewBox="0 0 48 48" enable-background="new 0 0 48 48" xml:space="preserve">
<path d="M25,14V6c0-0.553-0.448-1-1-1s-1,0.447-1,1v8c0,0.553,0.448,1,1,1S25,14.553,25,14z"/>
<path d="M42.023,21.014c-0.697-3.485-3.783-6.015-7.337-6.015c-1.999,0-3.878,0.778-5.292,2.191l-1.808,1.809h-7.172l-1.808-1.809
	c-1.413-1.413-3.292-2.191-5.291-2.191c-3.554,0-6.641,2.529-7.338,6.015L2.046,40.669c-0.246,1.23,0.28,2.458,1.342,3.127
	c0.495,0.312,1.049,0.466,1.602,0.466c0.632,0,1.262-0.202,1.798-0.604l6.959-5.219c0.68,0.347,1.438,0.561,2.253,0.561
	c2.414,0,4.434-1.72,4.899-3.999h6.202c0.465,2.279,2.485,3.999,4.899,3.999c0.818,0,1.579-0.216,2.261-0.566l6.951,5.224
	c1.004,0.755,2.339,0.807,3.4,0.139c1.062-0.669,1.588-1.896,1.342-3.127L42.023,21.014z M16,36.999c-1.654,0-3-1.346-3-3
	s1.346-3,3-3s3,1.346,3,3S17.654,36.999,16,36.999z M29,33.999c0-1.654,1.346-3,3-3s3,1.346,3,3s-1.346,3-3,3S29,35.653,29,33.999z
	 M43.545,42.104c-0.136,0.085-0.623,0.337-1.133-0.046l-6.55-4.923c0.7-0.861,1.138-1.943,1.138-3.136c0-2.757-2.243-5-5-5
	c-2.415,0-4.435,1.721-4.899,4.001h-6.202c-0.464-2.28-2.484-4.001-4.899-4.001c-2.757,0-5,2.243-5,5
	c0,1.196,0.44,2.281,1.143,3.142l-6.555,4.916c-0.509,0.382-0.997,0.132-1.133,0.046s-0.573-0.416-0.447-1.042l3.931-19.655
	c0.511-2.554,2.772-4.407,5.377-4.407c1.465,0,2.841,0.57,3.877,1.605l2.101,2.102c0.188,0.188,0.442,0.293,0.707,0.293h8
	c0.265,0,0.52-0.105,0.707-0.293l2.101-2.102c1.036-1.035,2.413-1.605,3.877-1.605c2.604,0,4.865,1.854,5.376,4.407l3.931,19.655
	C44.118,41.688,43.682,42.018,43.545,42.104z"/>
</svg>
