<?xml version="1.0" encoding="utf-8"?>
<!-- Generator: Adobe Illustrator 20.1.0, SVG Export Plug-In . SVG Version: 6.00 Build 0)  -->
<!DOCTYPE svg PUBLIC "-//W3C//DTD SVG 1.1//EN" "http://www.w3.org/Graphics/SVG/1.1/DTD/svg11.dtd">
<svg version="1.1" id="Layer_1" xmlns="http://www.w3.org/2000/svg" xmlns:xlink="http://www.w3.org/1999/xlink" x="0px" y="0px"
	 width="48px" height="48px" viewBox="0 0 48 48" enable-background="new 0 0 48 48" xml:space="preserve">
<path d="M46,1H2C1.447,1,1,1.448,1,2v44c0,0.552,0.447,1,1,1h44c0.553,0,1-0.448,1-1V2C47,1.448,46.553,1,46,1z M45,45H3V3h42V45z"
	/>
<path d="M14,21c0.553,0,1-0.448,1-1v-8c0-0.552-0.447-1-1-1s-1,0.448-1,1v8C13,20.552,13.447,21,14,21z"/>
<path d="M34,21c0.553,0,1-0.448,1-1v-8c0-0.552-0.447-1-1-1s-1,0.448-1,1v8C33,20.552,33.447,21,34,21z"/>
<path d="M18,37h12c0.553,0,1-0.448,1-1v-4c0-3.86-3.141-7-7-7s-7,3.14-7,7v4C17,36.552,17.447,37,18,37z M19,32c0-2.757,2.243-5,5-5
	s5,2.243,5,5v3H19V32z"/>
</svg>
