<?xml version="1.0" encoding="utf-8"?>
<!-- Generator: Adobe Illustrator 19.1.0, SVG Export Plug-In . SVG Version: 6.00 Build 0)  -->
<!DOCTYPE svg PUBLIC "-//W3C//DTD SVG 1.1//EN" "http://www.w3.org/Graphics/SVG/1.1/DTD/svg11.dtd">
<svg version="1.1" id="Layer_2" xmlns="http://www.w3.org/2000/svg" xmlns:xlink="http://www.w3.org/1999/xlink" x="0px" y="0px"
	 width="16px" height="16px" viewBox="0 0 16 16" enable-background="new 0 0 16 16" xml:space="preserve">
<path fill="#444444" d="M15.1430054,0.8548584C13.5193481-0.7687988,7.4591675-0.2427979,3.6173096,3.5991211
	c-3.8762207,3.8761597-4.3678589,9.9019775-2.7442017,11.5256348c1.6693726,1.6694336,7.6837769,1.0977173,11.5256348-2.7442017
	C16.2063599,8.572998,16.7666626,2.4785156,15.1430054,0.8548584z M12.4140625,8L11,9.4140625l-1.5-1.5L7.9140625,9.5l1.5,1.5
	L8,12.4140625l-1.5-1.5l-1.5,1.5L3.5859375,11l1.5-1.5l-1.5-1.5L5,6.5859375l1.5,1.5L8.0859375,6.5l-1.5-1.5L8,3.5859375l1.5,1.5
	l1.5-1.5L12.4140625,5l-1.5,1.5L12.4140625,8z"/>
</svg>
