<?xml version="1.0" encoding="utf-8"?>
<!-- Generator: Adobe Illustrator 19.1.0, SVG Export Plug-In . SVG Version: 6.00 Build 0)  -->
<!DOCTYPE svg PUBLIC "-//W3C//DTD SVG 1.1//EN" "http://www.w3.org/Graphics/SVG/1.1/DTD/svg11.dtd">
<svg version="1.1" id="Layer_2" xmlns="http://www.w3.org/2000/svg" xmlns:xlink="http://www.w3.org/1999/xlink" x="0px" y="0px"
	 width="16px" height="16px" viewBox="0 0 16 16" enable-background="new 0 0 16 16" xml:space="preserve">
<path fill="#444444" d="M14,3H9V2h2V0H5v2h2v1H2C1.4472656,3,1,3.4477539,1,4s0.4472656,1,1,1h1.083313L4,16h8l0.916687-11H14
	c0.5527344,0,1-0.4477539,1-1S14.5527344,3,14,3z M11,13H8v-1h3V13z M11,10H8V9h3V10z M11,7H8V6h3V7z"/>
</svg>
