<?xml version="1.0" encoding="utf-8"?>
<!-- Generator: Adobe Illustrator 19.1.0, SVG Export Plug-In . SVG Version: 6.00 Build 0)  -->
<!DOCTYPE svg PUBLIC "-//W3C//DTD SVG 1.1//EN" "http://www.w3.org/Graphics/SVG/1.1/DTD/svg11.dtd">
<svg version="1.1" id="Layer_2" xmlns="http://www.w3.org/2000/svg" xmlns:xlink="http://www.w3.org/1999/xlink" x="0px" y="0px"
	 width="16px" height="16px" viewBox="0 0 16 16" enable-background="new 0 0 16 16" xml:space="preserve">
<path data-color="color-2" fill="#444444" d="M10.885437,9.5146484c-0.9159546-0.4533081-1.8479004-0.6727295-2.56073-0.7807617
	c-2.3302331,1.9337626-4.9294128,2.7115898-7.7952881,2.1088867c0.293457,0.7704468,0.6990967,1.4841309,1.2026367,2.1193237
	C7.0050049,13.1400757,9.4481201,11.8061523,10.885437,9.5146484z"/>
<path data-color="color-2" fill="#444444" d="M7.7686157,4.2805786c0.1811523,0.9857788,0.5522461,1.8534546,0.8885498,2.487854
	c1.515625,0.2334595,2.8834839,0.7410889,4.0169678,1.4819336c0.0013428,0.0006714,0.0027466,0.0004272,0.0040894,0.0010986
	c0.6641092,0.3284063,1.8161182,1.3940086,2.6814575,2.8867188c0.2993774-0.7011719,0.4990234-1.4543457,0.5869751-2.2414551
	C12.7458496,4.8132324,10.336853,3.9376221,7.7686157,4.2805786z"/>
<path data-color="color-2" fill="#444444" d="M6.2000122,0.2108154C5.3044434,0.4170532,4.4679565,0.7730103,3.715271,1.2519531
	C3.0819702,3.0513916,3.0120239,6.2752075,4.6080933,8.6462402c0.8567505-0.3228149,1.5859375-0.7825928,2.1447144-1.2108154
	C5.4256587,4.7772331,5.3951268,2.4192657,6.2000122,0.2108154z"/>
<path fill="#444444" d="M7.7286377,2.2733154c2.8931885-0.3218384,5.3326416,0.6505127,7.8460693,3.168396
	c-1.0213013-3.0240479-3.7973633-5.2310181-7.1190796-5.4187012C8.0354519,0.8446149,7.8351955,1.5382538,7.7286377,2.2733154z"/>
<path fill="#444444" d="M12.5271606,10.6929932c-1.347229,2.1889038-3.5404053,4.0241699-8.4539185,4.272522
	C5.2338867,15.6213379,6.5717773,16,8,16c2.4594727,0,4.6574707-1.1119995,6.125-2.8582153
	C13.7547035,12.2275887,13.2507715,11.4191771,12.5271606,10.6929932z"/>
<path fill="#444444" d="M2.4897461,9.0561523c0.0079956,0,0.0155029-0.0016479,0.0234985-0.001709
	C1.6102295,7.375,1.2493896,5.4331665,1.3009644,3.6346436C0.480896,4.8905029,0,6.3881836,0,8
	c0,0.2159424,0.0155029,0.4280396,0.0322876,0.6397095C0.8378296,8.9123535,1.6633911,9.0561523,2.4897461,9.0561523z"/>
</svg>
