<?xml version="1.0" encoding="utf-8"?>
<!-- Generator: Adobe Illustrator 19.1.0, SVG Export Plug-In . SVG Version: 6.00 Build 0)  -->
<!DOCTYPE svg PUBLIC "-//W3C//DTD SVG 1.1//EN" "http://www.w3.org/Graphics/SVG/1.1/DTD/svg11.dtd">
<svg version="1.1" id="Layer_2" xmlns="http://www.w3.org/2000/svg" xmlns:xlink="http://www.w3.org/1999/xlink" x="0px" y="0px"
	 width="16px" height="16px" viewBox="0 0 16 16" enable-background="new 0 0 16 16" xml:space="preserve">
<path fill="#444444" d="M12.7506714,7.3449707l0.7512817-3.7565918c0.1772461-0.8847656-0.0493164-1.7924805-0.621582-2.4902344
	S11.4628906,0,10.5605469,0H5.4394531C4.5371094,0,3.6918945,0.4003906,3.1196289,1.0981445
	s-0.7988281,1.6054688-0.621582,2.4902344l0.7512817,3.7565918C2.4689941,8.357666,2,9.6226807,2,11
	c0,2.0881348,1.0678101,3.925354,2.6860352,5h6.6279297C12.9321899,14.925354,14,13.0881348,14,11
	C14,9.6226807,13.5310059,8.357666,12.7506714,7.3449707z M4.6665039,2.3662109C4.8569336,2.1333008,5.1386719,2,5.4394531,2
	h5.1210938c0.3007812,0,0.5825195,0.1333008,0.7729492,0.3662109c0.190918,0.2324219,0.2666016,0.5351562,0.2075195,0.8295898
	l-0.5246582,2.6233521C10.1293945,5.3015747,9.1010132,5,8,5S5.8706055,5.3015747,4.9836426,5.8191528L4.4589844,3.1958008
	C4.3999023,2.9013672,4.4755859,2.5986328,4.6665039,2.3662109z"/>
</svg>
