<?xml version="1.0" encoding="utf-8"?>
<!-- Generator: Adobe Illustrator 19.1.0, SVG Export Plug-In . SVG Version: 6.00 Build 0)  -->
<!DOCTYPE svg PUBLIC "-//W3C//DTD SVG 1.1//EN" "http://www.w3.org/Graphics/SVG/1.1/DTD/svg11.dtd">
<svg version="1.1" id="Layer_2" xmlns="http://www.w3.org/2000/svg" xmlns:xlink="http://www.w3.org/1999/xlink" x="0px" y="0px"
	 width="16px" height="16px" viewBox="0 0 16 16" enable-background="new 0 0 16 16" xml:space="preserve">
<path data-color="color-2" fill="#444444" d="M0.2929688,5.7070312c0.3906362,0.390636,1.0234263,0.390636,1.4140625,0L3,4.4140625
	l1.2929688,1.2929688c0.390636,0.390636,1.0234265,0.390636,1.4140625,0c0.390625-0.390625,0.390625-1.0234375,0-1.4140625
	L4.4140625,3l1.2929688-1.2929688c0.390625-0.390625,0.390625-1.0234375,0-1.4140625s-1.0234375-0.390625-1.4140625,0L3,1.5859375
	L1.7070312,0.2929688c-0.390625-0.390625-1.0234375-0.390625-1.4140625,0s-0.390625,1.0234375,0,1.4140625L1.5859375,3
	L0.2929688,4.2929688C-0.0976562,4.6835938-0.0976562,5.3164062,0.2929688,5.7070312z"/>
<path data-color="color-2" fill="#444444" d="M15.7070312,10.2929688c-0.390625-0.390625-1.0234375-0.390625-1.4140625,0L13,11.5859375
	l-1.2929688-1.2929688c-0.390625-0.390625-1.0234375-0.390625-1.4140625,0s-0.390625,1.0234375,0,1.4140625L11.5859375,13
	l-1.2929688,1.2929688c-0.390625,0.390625-0.390625,1.0234375,0,1.4140625C10.4882812,15.9023438,10.7441406,16,11,16
	s0.5117188-0.0976562,0.7070312-0.2929688L13,14.4140625l1.2929688,1.2929688C14.4882812,15.9023438,14.7441406,16,15,16
	s0.5117188-0.0976562,0.7070312-0.2929688c0.390625-0.390625,0.390625-1.0234375,0-1.4140625L14.4140625,13l1.2929688-1.2929688
	C16.0976562,11.3164062,16.0976562,10.6835938,15.7070312,10.2929688z"/>
<path fill="#444444" d="M15,0h-5v2h2.5859375L6.0192261,8.5667114C5.4243164,8.2153931,4.739624,8,4,8c-2.2060547,0-4,1.7944336-4,4
	s1.7939453,4,4,4s4-1.7944336,4-4c0-0.739563-0.2154541-1.4241943-0.5667725-2.019165L14,3.4140625V6h2V1
	C16,0.4477539,15.5527344,0,15,0z M4,14c-1.1025391,0-2-0.8969727-2-2s0.8974609-2,2-2s2,0.8969727,2,2S5.1025391,14,4,14z"/>
</svg>
