<?xml version="1.0" encoding="utf-8"?>
<!-- Generator: Adobe Illustrator 19.1.0, SVG Export Plug-In . SVG Version: 6.00 Build 0)  -->
<!DOCTYPE svg PUBLIC "-//W3C//DTD SVG 1.1//EN" "http://www.w3.org/Graphics/SVG/1.1/DTD/svg11.dtd">
<svg version="1.1" id="Layer_2" xmlns="http://www.w3.org/2000/svg" xmlns:xlink="http://www.w3.org/1999/xlink" x="0px" y="0px"
	 width="16px" height="16px" viewBox="0 0 16 16" enable-background="new 0 0 16 16" xml:space="preserve">
<path fill="#444444" d="M11.1501465,9.736084L9.4140625,8l6.2929688-6.2929688c0.390625-0.390625,0.390625-1.0234375,0-1.4140625
	s-1.0234375-0.390625-1.4140625,0L8,6.5859375L1.7070312,0.2929688c-0.390625-0.390625-1.0234375-0.390625-1.4140625,0
	s-0.390625,1.0234375,0,1.4140625L6.5859375,8l-1.736084,1.736084C3.3165894,8.8336792,1.3164062,9.0266724,0,10.3431396
	l2.1213989,2.1213989l-1.8284302,1.8284302c-0.390625,0.390625-0.390625,1.0234375,0,1.4140625
	C0.4882812,15.9023438,0.7441406,16,1,16s0.5117188-0.0976562,0.7070312-0.2929688l1.8284302-1.8284302L5.6568604,16
	c1.3164062-1.3164673,1.5093994-3.3166504,0.6070557-4.8498535L8,9.4140625l1.736084,1.736084
	C8.8337402,12.6833496,9.0267334,14.6835327,10.3431396,16l2.1213989-2.1213989l1.8284302,1.8284302
	C14.4882812,15.9023438,14.7441406,16,15,16s0.5117188-0.0976562,0.7070312-0.2929688
	c0.390625-0.390625,0.390625-1.0234375,0-1.4140625l-1.8284302-1.8284302L16,10.3431396
	C14.6835938,9.0266724,12.6834106,8.8336792,11.1501465,9.736084z"/>
</svg>
