<?xml version="1.0" encoding="utf-8"?>
<!-- Generator: Adobe Illustrator 19.1.0, SVG Export Plug-In . SVG Version: 6.00 Build 0)  -->
<!DOCTYPE svg PUBLIC "-//W3C//DTD SVG 1.1//EN" "http://www.w3.org/Graphics/SVG/1.1/DTD/svg11.dtd">
<svg version="1.1" id="Layer_2" xmlns="http://www.w3.org/2000/svg" xmlns:xlink="http://www.w3.org/1999/xlink" x="0px" y="0px"
	 width="16px" height="16px" viewBox="0 0 16 16" enable-background="new 0 0 16 16" xml:space="preserve">
<circle data-color="color-2" fill="#444444" cx="13" cy="10" r="2"/>
<path fill="#444444" d="M9,10c0-2.2055664,1.7944336-4,4-4c0.3724976,0,0.7261963,0.067688,1.0686035,0.1633911
	c0.8852539-0.8851318,1.493103-1.4926758,1.493103-1.4926758c0.5844116-0.5844116,0.5844116-1.5318604,0-2.1162109
	l-2.1162109-2.1162109c-0.5843506-0.5844116-1.5318604-0.5844116-2.1162109,0c0,0-7.4067383,7.4067383-8.4648438,8.4648438
	c-1.0581665,1.0581055-0.0330811,2.149292-1.0581665,3.1743164C0.78125,13.102478,0.2191162,13.6646118,0.2191162,13.6646118
	c-0.2921753,0.2921753-0.2921753,0.7659302,0,1.0581055l1.0581055,1.0581055c0.2922363,0.2922363,0.7659302,0.2922363,1.0581665,0
	c0,0,0.5620728-0.5620728,1.5871582-1.5871582c1.0250244-1.0250244,2.149231-0.03302,3.1743164-1.0581055
	c0.2869873-0.2869873,1.0788574-1.0802612,2.0661011-2.0682373C9.0675049,10.7253418,9,10.3720703,9,10z"/>
</svg>
