<?xml version="1.0" encoding="utf-8"?>
<!-- Generator: Adobe Illustrator 19.1.0, SVG Export Plug-In . SVG Version: 6.00 Build 0)  -->
<!DOCTYPE svg PUBLIC "-//W3C//DTD SVG 1.1//EN" "http://www.w3.org/Graphics/SVG/1.1/DTD/svg11.dtd">
<svg version="1.1" id="Layer_2" xmlns="http://www.w3.org/2000/svg" xmlns:xlink="http://www.w3.org/1999/xlink" x="0px" y="0px"
	 width="16px" height="16px" viewBox="0 0 16 16" enable-background="new 0 0 16 16" xml:space="preserve">
<circle data-color="color-2" fill="#444444" cx="12" cy="9" r="2"/>
<path fill="#444444" d="M8,9c0-2.2055664,1.7944336-4,4-4c0.7913818,0,1.5252686,0.2380981,2.1468506,0.6362305l1.069458-1.0683594
	c1.0429688-1.0429688,1.0429688-2.7402344,0-3.784668c-1.0439453-1.0424805-2.7412109-1.0419922-3.7841797,0.0004883
	L4.559082,7.6567383C3.8051758,8.4106445,3.5146484,9.512207,3.3027344,10.3168945
	c-0.0693359,0.2641602-0.1650391,0.6264648-0.1650391,0.6577148l-1.7107544,1.7104492
	c-0.3716431-0.1775513-0.8260498-0.1218872-1.1339722,0.1860352c-0.390625,0.390625-0.390625,1.0234375,0,1.4140625
	l1.421875,1.421875C1.9101562,15.9023438,2.1660156,16,2.421875,16s0.5117188-0.0976562,0.7070312-0.2929688
	c0.3079224-0.3079224,0.3636475-0.762207,0.1860962-1.1338501l1.6557007-1.6557007
	c0.128418-0.0556641,0.4384766-0.1381836,0.6708984-0.199707C6.4604492,12.5,7.5820312,12.2021484,8.3432617,11.4414062
	l0.2935791-0.293457C8.2382812,10.526123,8,9.7918091,8,9z"/>
</svg>
