<svg xmlns="http://www.w3.org/2000/svg" xmlns:xlink="http://www.w3.org/1999/xlink" x="0px" y="0px" width="48px" height="48px" viewBox="0 0 48 48"><g >
<path fill="#76B5B5" d="M41,26H13v-4c0-0.552,0.448-1,1-1h23c2.209,0,4,1.791,4,4V26z"/>
<path fill="#B3B3B3" d="M14,23c-0.552,0-1-0.447-1-1V3H8C7.448,3,7,2.553,7,2s0.448-1,1-1h6c0.552,0,1,0.447,1,1v20
	C15,22.553,14.552,23,14,23z"/>
<path fill="#B3B3B3" d="M40,35c-0.552,0-1-0.447-1-1v-7c0-0.553,0.448-1,1-1s1,0.447,1,1v7C41,34.553,40.552,35,40,35z"/>
<path fill="#444444" d="M40,47c-3.86,0-7-3.141-7-7s3.14-7,7-7s7,3.141,7,7S43.86,47,40,47z"/>
<path fill="#E6E6E6" d="M40,45c-2.757,0-5-2.243-5-5s2.243-5,5-5s5,2.243,5,5S42.757,45,40,45z"/>
<path fill="#737373" d="M40,42c-1.103,0-2-0.897-2-2s0.897-2,2-2s2,0.897,2,2S41.103,42,40,42z"/>
<rect x="13" y="26" fill="#737373" width="28" height="2"/>
<path fill="#444444" d="M14,47C6.832,47,1,41.168,1,34s5.832-13,13-13s13,5.832,13,13S21.168,47,14,47z"/>
<path fill="#E6E6E6" d="M14,45C7.934,45,3,40.065,3,34s4.934-11,11-11s11,4.935,11,11S20.066,45,14,45z"/>
<path fill="#B3B3B3" d="M34,24c-0.552,0-1-0.447-1-1v-7c0-1.654-1.346-3-3-3H14c-0.552,0-1-0.447-1-1s0.448-1,1-1h16
	c2.757,0,5,2.243,5,5v7C35,23.553,34.552,24,34,24z"/>
<path fill="#B3B3B3" d="M14,26c-4.411,0-8,3.589-8,8s3.589,8,8,8s8-3.589,8-8S18.411,26,14,26z M14,40c-3.309,0-6-2.692-6-6
	s2.691-6,6-6s6,2.692,6,6S17.309,40,14,40z"/>
<path fill="#737373" d="M14,36c-1.103,0-2-0.897-2-2s0.897-2,2-2s2,0.897,2,2S15.103,36,14,36z"/>
</g></svg>