<svg xmlns="http://www.w3.org/2000/svg" xmlns:xlink="http://www.w3.org/1999/xlink" x="0px" y="0px" width="48px" height="48px" viewBox="0 0 48 48"><g >
<path fill="#B3B3B3" d="M32,11c-0.553,0-1-0.448-1-1V3H17v7c0,0.552-0.447,1-1,1s-1-0.448-1-1V2c0-0.552,0.447-1,1-1h16
	c0.553,0,1,0.448,1,1v8C33,10.552,32.553,11,32,11z"/>
<path fill="#E6E6E6" d="M43,47H5c-2.209,0-4-1.791-4-4V13c0-2.209,1.791-4,4-4h38c2.209,0,4,1.791,4,4v30C47,45.209,45.209,47,43,47
	z"/>
<path fill="#E86C60" d="M35,25h-8v-8c0-0.552-0.448-1-1-1h-4c-0.552,0-1,0.448-1,1v8h-8c-0.552,0-1,0.448-1,1v4c0,0.552,0.448,1,1,1
	h8v8c0,0.552,0.448,1,1,1h4c0.552,0,1-0.448,1-1v-8h8c0.552,0,1-0.448,1-1v-4C36,25.448,35.552,25,35,25z"/>
</g></svg>