<svg xmlns="http://www.w3.org/2000/svg" xmlns:xlink="http://www.w3.org/1999/xlink" x="0px" y="0px" width="48px" height="48px" viewBox="0 0 48 48"><g >
<path fill="#5A7A84" d="M41.664,27.464c-0.027,0-0.054-0.001-0.08-0.003l-11.962-0.953c-0.551-0.044-0.962-0.526-0.918-1.076
	c0.322-4.042-0.096-6.424-0.464-8.524c-0.305-1.739-0.593-3.381-0.417-5.591c0.246-3.09,1.397-5.821,3.241-7.691
	c1.818-1.845,4.16-2.747,6.604-2.559c2.434,0.194,4.605,1.475,6.115,3.606c1.522,2.148,2.227,5.017,1.982,8.074
	c-0.481,6.034-3.047,13.712-3.155,14.036C42.473,27.192,42.09,27.464,41.664,27.464z"/>
<path fill="#335262" d="M34.939,42.958c-0.202,0-0.405-0.009-0.608-0.024c-2.267-0.181-4.311-1.355-5.607-3.223
	s-1.685-4.192-1.062-6.379l0.601-2.114c0.13-0.459,0.584-0.76,1.041-0.724l11.962,0.954c0.476,0.038,0.857,0.406,0.914,0.879
	l0.259,2.183c0.267,2.259-0.484,4.493-2.061,6.131C38.941,42.132,36.987,42.958,34.939,42.958z"/>
<path fill="#5A7A84" d="M6.414,31.562c-0.419,0-0.798-0.264-0.941-0.665c-0.114-0.321-2.812-7.954-3.397-13.979
	c-0.297-3.054,0.357-5.933,1.843-8.107C5.391,6.652,7.54,5.334,9.97,5.099c5.112-0.502,9.415,3.836,10.021,10.078
	c0.214,2.206-0.046,3.854-0.32,5.597c-0.332,2.107-0.709,4.496-0.317,8.531c0.054,0.55-0.349,1.039-0.898,1.092l-11.943,1.16
	C6.479,31.56,6.446,31.562,6.414,31.562z"/>
<path fill="#335262" d="M13.291,46.938c-2.001,0-3.917-0.79-5.347-2.225c-1.604-1.61-2.394-3.831-2.165-6.093L6,36.433
	c0.048-0.474,0.424-0.849,0.898-0.895l11.943-1.16c0.468-0.042,0.915,0.249,1.054,0.705l0.638,2.104
	c0.659,2.176,0.312,4.507-0.952,6.396c-1.265,1.889-3.288,3.099-5.551,3.318C13.783,46.926,13.536,46.938,13.291,46.938z"/>
</g></svg>