<svg xmlns="http://www.w3.org/2000/svg" xmlns:xlink="http://www.w3.org/1999/xlink" x="0px" y="0px" width="48px" height="48px" viewBox="0 0 48 48"><g >
<path fill="#B3B3B3" d="M12,5H8C7.448,5,7,4.552,7,4v0c0-0.552,0.448-1,1-1h4c0.552,0,1,0.448,1,1v0C13,4.552,12.552,5,12,5z"/>
<path fill="#B3B3B3" d="M12,13H8c-0.552,0-1-0.448-1-1v0c0-0.552,0.448-1,1-1h4c0.552,0,1,0.448,1,1v0C13,12.552,12.552,13,12,13z"/>
<path fill="#B3B3B3" d="M12,21H8c-0.552,0-1-0.448-1-1v0c0-0.552,0.448-1,1-1h4c0.552,0,1,0.448,1,1v0C13,20.552,12.552,21,12,21z"/>
<path fill="#BFDEE0" d="M33,23.041V8c0-3.86-3.14-7-7-7s-7,3.14-7,7v15.04c-3.769,2.418-6,6.473-6,10.96c0,7.168,5.832,13,13,13
	s13-5.832,13-13C39,29.583,36.715,25.437,33,23.041z"/>
<path fill="#E86C60" d="M26,41c-3.86,0-7-3.14-7-7c0-0.552,0.448-1,1-1h12c0.552,0,1,0.448,1,1C33,37.86,29.86,41,26,41z"/>
</g></svg>