<svg xmlns="http://www.w3.org/2000/svg" xmlns:xlink="http://www.w3.org/1999/xlink" x="0px" y="0px" width="48px" height="48px" viewBox="0 0 48 48"><g >
<path fill="#B3B3B3" d="M44,45H4c-0.553,0-1-0.448-1-1v-8c0-0.552,0.447-1,1-1h40c0.553,0,1,0.448,1,1v8C45,44.552,44.553,45,44,45z
	"/>
<path fill="#B3B3B3" d="M32,13c-0.553,0-1-0.448-1-1V5H17v7c0,0.552-0.447,1-1,1s-1-0.448-1-1V4c0-0.552,0.447-1,1-1h16
	c0.553,0,1,0.448,1,1v8C33,12.552,32.553,13,32,13z"/>
<path fill="#E6E6E6" d="M46,37H2c-0.552,0-1-0.448-1-1V12c0-0.552,0.448-1,1-1h44c0.552,0,1,0.448,1,1v24C47,36.552,46.552,37,46,37
	z"/>
<path fill="#E86C60" d="M29,22h-3v-3c0-0.552-0.448-1-1-1h-2c-0.552,0-1,0.448-1,1v3h-3c-0.552,0-1,0.448-1,1v2c0,0.552,0.448,1,1,1
	h3v3c0,0.552,0.448,1,1,1h2c0.552,0,1-0.448,1-1v-3h3c0.552,0,1-0.448,1-1v-2C30,22.448,29.552,22,29,22z"/>
</g></svg>