<svg xmlns="http://www.w3.org/2000/svg" xmlns:xlink="http://www.w3.org/1999/xlink" x="0px" y="0px" width="48px" height="48px" viewBox="0 0 48 48"><g >
<path fill="#E6E6E6" d="M23,39c-6.283,0-11.857-4.3-13.5-10.314C4.537,27.536,1,23.143,1,18C1,11.935,5.935,7,12,7
	c0.351,0,0.687,0.029,1.008,0.068C15.382,3.309,19.532,1,24,1c6.855,0,12.489,5.334,12.967,12.07C37.321,13.023,37.661,13,38,13
	c4.963,0,9,4.037,9,9s-4.037,9-9,9c-0.735,0-1.481-0.1-2.228-0.298C33.537,35.702,28.52,39,23,39z"/>
<path fill="#E6E6E6" d="M6,47c-2.757,0-5-2.243-5-5s2.243-5,5-5s5,2.243,5,5S8.757,47,6,47z"/>
<path fill="#43A6DD" d="M28,25h-8c-0.385,0-0.734-0.221-0.901-0.566c-0.166-0.347-0.12-0.758,0.12-1.059l6.7-8.375H20
	c-0.553,0-1-0.447-1-1s0.447-1,1-1h8c0.385,0,0.734,0.221,0.901,0.566c0.166,0.347,0.12,0.758-0.12,1.059L22.081,23H28
	c0.553,0,1,0.447,1,1S28.553,25,28,25z"/>
</g></svg>