<svg xmlns="http://www.w3.org/2000/svg" xmlns:xlink="http://www.w3.org/1999/xlink" x="0px" y="0px" width="48px" height="48px" viewBox="0 0 48 48"><g >
<path fill="#B3B3B3" d="M41,45H7c-2.209,0-4-1.791-4-4V7c0-2.209,1.791-4,4-4h34c2.209,0,4,1.791,4,4v34C45,43.209,43.209,45,41,45z
	"/>
<path fill="#E6E6E6" d="M38,25H10c-0.553,0-1-0.448-1-1c0-8.271,6.729-15,15-15s15,6.729,15,15C39,24.552,38.553,25,38,25z"/>
<path fill="#E86C60" d="M24,26c-0.104,0-0.211-0.017-0.316-0.052c-0.523-0.175-0.807-0.741-0.632-1.265l3-9
	c0.175-0.523,0.735-0.809,1.265-0.632c0.523,0.175,0.807,0.741,0.632,1.265l-3,9C24.809,25.735,24.419,26,24,26z"/>
<circle fill="#5B5B5B" cx="24" cy="25" r="3"/>
</g></svg>