<svg xmlns="http://www.w3.org/2000/svg" xmlns:xlink="http://www.w3.org/1999/xlink" x="0px" y="0px" width="48px" height="48px" viewBox="0 0 48 48"><g >
<path fill="#E6E6E6" d="M40.189,45c-1.986,0-3.407-1.423-4.077-2.271l-7.694-9.107C26.886,31.835,25.481,31,24,31
	c-1.863,0-3.427,1.421-4.411,2.614l-7.722,9.141C10.567,44.249,9.206,45,7.811,45C5.158,45,3,42.842,3,40.189l1.986-20.094
	C4.652,18.944,3,13.083,3,10c0-3.86,3.14-7,7-7c1.508,0,4.396,0.69,8.584,2.052c3.507,1.139,7.322,1.14,10.831,0
	C33.604,3.69,36.492,3,38,3c3.86,0,7,3.14,7,7c0,3.083-1.652,8.944-1.986,10.094l1.981,19.996C45,42.842,42.842,45,40.189,45z"/>
<path fill="#B3B3B3" d="M23.993,15.913c-2.094-0.002-4.186-0.243-6.22-0.716c-0.538-0.125-0.873-0.663-0.748-1.201
	c0.125-0.539,0.662-0.871,1.201-0.748c1.887,0.439,3.827,0.663,5.767,0.665c1.948-0.002,3.893-0.226,5.781-0.665
	c0.535-0.125,1.076,0.209,1.201,0.748c0.125,0.538-0.209,1.076-0.748,1.201C28.192,15.67,26.094,15.911,23.993,15.913z"/>
</g></svg>