<svg xmlns="http://www.w3.org/2000/svg" xmlns:xlink="http://www.w3.org/1999/xlink" x="0px" y="0px" width="48px" height="48px" viewBox="0 0 48 48"><g >
<path fill="#E6E6E6" d="M14.808,14.808l-8,8c-5.077,5.077-5.077,13.308,0,18.385c5.077,5.077,13.308,5.077,18.385,0l8-8
	L14.808,14.808z"/>
<path fill="#ED69AB" d="M41.192,25.192c5.077-5.077,5.077-13.308,0-18.385c-5.077-5.077-13.308-5.077-18.385,0l-8,8l18.385,18.385
	L41.192,25.192z"/>
<path fill="#F2CEE2" d="M37.657,11.343c-0.256,0-0.512-0.098-0.707-0.293C35.627,9.728,33.87,9,32,9s-3.627,0.728-4.95,2.05
	c-0.391,0.391-1.023,0.391-1.414,0c-0.391-0.39-0.391-1.023,0-1.414C27.336,7.936,29.596,7,32,7s4.664,0.936,6.364,2.636
	c0.391,0.391,0.391,1.024,0,1.414C38.168,11.246,37.913,11.343,37.657,11.343z"/>
</g></svg>