<svg xmlns="http://www.w3.org/2000/svg" xmlns:xlink="http://www.w3.org/1999/xlink" x="0px" y="0px" width="48px" height="48px" viewBox="0 0 48 48"><g >
<path fill="#EFD358" d="M44,47H30c-0.552,0-1-0.448-1-1V2c0-0.552,0.448-1,1-1h14c0.552,0,1,0.448,1,1v44C45,46.552,44.552,47,44,47
	z"/>
<circle fill="#5A7A84" cx="11" cy="7" r="6"/>
<path fill="#335262" d="M7.001,15C3.687,15,1,17.678,1,21.003v8.996c0,0.553,0.398,1.2,0.888,1.445L5,33l1.004,13.083
	C6.047,46.602,6.479,47,7,47h8c0.521,0,0.953-0.398,0.996-0.917l0.941-13.287l3.141-1.388C20.587,31.182,21,30.555,21,29.999v-8.996
	C21,17.688,18.323,15,14.999,15H7.001z"/>
<path fill="#C19A3A" d="M35,10c0-0.552-0.447-1-1-1h-5v2h5C34.553,11,35,10.552,35,10z"/>
<path fill="#C19A3A" d="M33,19c0-0.552-0.447-1-1-1h-3v2h3C32.553,20,33,19.552,33,19z"/>
<path fill="#C19A3A" d="M35,29c0-0.552-0.447-1-1-1h-5v2h5C34.553,30,35,29.552,35,29z"/>
<path fill="#C19A3A" d="M33,38c0-0.552-0.447-1-1-1h-3v2h3C32.553,39,33,38.552,33,38z"/>
</g></svg>