<svg xmlns="http://www.w3.org/2000/svg" xmlns:xlink="http://www.w3.org/1999/xlink" x="0px" y="0px" width="48px" height="48px" viewBox="0 0 48 48"><g >
<path fill="#E6E6E6" d="M46,35H31V9h10c1.105,0,2,0.895,2,2v9.382l3.447,1.724C46.786,22.275,47,22.621,47,23v11
	C47,34.552,46.552,35,46,35z"/>
<path fill="#E6E6E6" d="M29,35H2c-0.552,0-1-0.448-1-1V8c0-0.552,0.448-1,1-1h26c0.552,0,1,0.448,1,1V35z"/>
<path fill="#E86C60" d="M15,21c-0.553,0-1-0.448-1-1v-8c0-0.552,0.447-1,1-1s1,0.448,1,1v8C16,20.552,15.553,21,15,21z"/>
<path fill="#E86C60" d="M19,17h-8c-0.553,0-1-0.448-1-1s0.447-1,1-1h8c0.553,0,1,0.448,1,1S19.553,17,19,17z"/>
<path fill="#B3B3B3" d="M40,20h-6c-0.552,0-1-0.448-1-1v-7c0-0.552,0.448-1,1-1h6c0.552,0,1,0.448,1,1v7C41,19.552,40.552,20,40,20z
	"/>
<rect x="1" y="25" fill="#E86C60" width="28" height="2"/>
<rect x="31" y="25" fill="#E86C60" width="16" height="2"/>
<rect x="29" y="9" fill="#B3B3B3" width="2" height="26"/>
<path fill="#444444" d="M10,41c-3.309,0-6-2.691-6-6s2.691-6,6-6s6,2.691,6,6S13.309,41,10,41z"/>
<path fill="#E6E6E6" d="M10,38c-1.654,0-3-1.346-3-3s1.346-3,3-3s3,1.346,3,3S11.654,38,10,38z"/>
<path fill="#444444" d="M39,41c-3.309,0-6-2.691-6-6s2.691-6,6-6s6,2.691,6,6S42.309,41,39,41z"/>
<path fill="#E6E6E6" d="M39,38c-1.654,0-3-1.346-3-3s1.346-3,3-3s3,1.346,3,3S40.654,38,39,38z"/>
</g></svg>