<svg xmlns="http://www.w3.org/2000/svg" xmlns:xlink="http://www.w3.org/1999/xlink" x="0px" y="0px" width="48px" height="48px" viewBox="0 0 48 48"><g >
<path fill="#CC9875" d="M44.645,22.78C46.171,20.845,47,18.476,47,16c0-5.965-4.772-10.836-10.7-10.996C35.151,2.582,32.706,1,30,1
	c-2.548,0-4.775,1.373-6,3.413C22.775,2.373,20.548,1,18,1c-2.706,0-5.151,1.582-6.3,4.004C5.773,5.164,1,10.035,1,16
	c0,2.476,0.829,4.845,2.355,6.78C1.863,24.098,1,25.98,1,28c0,2.014,0.882,3.929,2.39,5.252C3.128,34.21,3,35.114,3,36
	c0,6.065,4.935,11,11,11c4.439,0,8.264-2.649,10-6.444C25.736,44.351,29.561,47,34,47c6.065,0,11-4.935,11-11
	c0-0.886-0.128-1.79-0.39-2.748C46.118,31.929,47,30.014,47,28C47,25.979,46.137,24.098,44.645,22.78z"/>
<path fill="#EEBC99" d="M42.879,32.075c-0.358,0.254-0.509,0.712-0.372,1.129C42.839,34.21,43,35.125,43,36c0,4.962-4.037,9-9,9
	s-9-4.038-9-9V20c0-0.552-0.447-1-1-1s-1,0.448-1,1v16c0,4.962-4.037,9-9,9s-9-4.038-9-9c0-0.875,0.161-1.79,0.493-2.796
	c0.137-0.417-0.014-0.875-0.372-1.129C3.793,31.134,3,29.61,3,28c0-1.458,0.638-2.811,1.729-3.755
	c1.779,1.575,3.979,2.514,6.346,2.709c0.354,2.559,2.099,4.761,4.579,5.643c0.11,0.039,0.224,0.058,0.335,0.058
	c0.411,0,0.797-0.256,0.942-0.666c0.185-0.52-0.087-1.092-0.607-1.277C14.336,30.005,13,28.111,13,26
	c0-1.42,0.607-2.778,1.666-3.727c0.411-0.369,0.446-1.001,0.078-1.412c-0.368-0.413-1.002-0.446-1.412-0.078
	c-1.219,1.092-2.001,2.574-2.244,4.171c-2.1-0.209-4.033-1.141-5.528-2.673c-0.011-0.013-0.014-0.031-0.026-0.043
	C3.9,20.545,3,18.33,3,16c0-4.958,4.029-8.992,9.033-8.992c0.005,0,0.01,0,0.015,0c0.09,0.013,0.18,0.024,0.272,0.028
	c0.44,0.016,0.836-0.256,0.98-0.67C14.002,4.353,15.891,3,18,3c2.757,0,5,2.243,5,5s-2.243,5-5,5c-0.553,0-1,0.448-1,1s0.447,1,1,1
	c2.548,0,4.775-1.373,6-3.413C25.225,13.627,27.452,15,30,15c0.553,0,1-0.448,1-1s-0.447-1-1-1c-2.757,0-5-2.243-5-5s2.243-5,5-5
	c2.109,0,3.998,1.352,4.699,3.365c0.145,0.414,0.543,0.684,0.98,0.67C35.771,7.032,35.861,7.021,36,7c4.963,0,9,4.038,9,9
	c0,2.33-0.9,4.545-2.534,6.238c-0.012,0.012-0.015,0.03-0.026,0.043c-1.495,1.532-3.428,2.464-5.528,2.673
	c-0.242-1.597-1.024-3.079-2.244-4.171c-0.409-0.368-1.044-0.333-1.412,0.078c-0.368,0.411-0.333,1.043,0.078,1.412
	C34.393,23.222,35,24.58,35,26c0,2.111-1.336,4.005-3.324,4.712c-0.521,0.186-0.792,0.757-0.607,1.277
	c0.146,0.41,0.531,0.666,0.942,0.666c0.111,0,0.225-0.019,0.335-0.058c2.48-0.883,4.226-3.084,4.579-5.643
	c2.367-0.195,4.567-1.134,6.346-2.709C44.362,25.189,45,26.542,45,28C45,29.61,44.207,31.134,42.879,32.075z"/>
</g></svg>