<svg xmlns="http://www.w3.org/2000/svg" xmlns:xlink="http://www.w3.org/1999/xlink" x="0px" y="0px" width="48px" height="48px" viewBox="0 0 48 48"><g >
<rect x="36" y="20" fill="#B3B3B3" width="4" height="8"/>
<path fill="#43A6DD" d="M11.757,10.97c0.536,0.134,1.079-0.191,1.213-0.727L13.031,10h17.938l0.061,0.243
	c0.114,0.454,0.521,0.758,0.969,0.757c0.081,0,0.162-0.009,0.244-0.03c0.536-0.134,0.861-0.677,0.728-1.213l-2-8
	C30.859,1.313,30.459,1,30,1H14c-0.459,0-0.859,0.313-0.97,0.757l-2,8C10.896,10.294,11.222,10.836,11.757,10.97z"/>
<path fill="#43A6DD" d="M32.243,37.03c-0.533-0.134-1.079,0.192-1.213,0.727L30.969,38H13.031l-0.061-0.243
	c-0.134-0.536-0.677-0.862-1.213-0.727c-0.536,0.134-0.861,0.677-0.727,1.213l2,8C13.141,46.688,13.541,47,14,47h16
	c0.459,0,0.859-0.312,0.97-0.757l2-8C33.104,37.707,32.778,37.164,32.243,37.03z"/>
<path fill="#444444" d="M32,9H12c-2.757,0-5,2.243-5,5v20c0,2.757,2.243,5,5,5h20c2.757,0,5-2.243,5-5V14C37,11.243,34.757,9,32,9z"/>
<rect x="11" y="13" fill="#5B5B5B" width="22" height="22"/>
<path fill="#72C472" d="M24,29c-0.053,0-0.106-0.004-0.16-0.013c-0.317-0.052-0.591-0.252-0.734-0.54l-3.38-6.759l-3.019,3.019
	C16.52,24.895,16.266,25,16,25h-2c-0.553,0-1-0.448-1-1s0.447-1,1-1h1.586l3.707-3.707c0.226-0.227,0.543-0.33,0.867-0.28
	c0.317,0.052,0.591,0.252,0.734,0.54l3.38,6.759l3.019-3.019C27.48,23.105,27.734,23,28,23h2c0.553,0,1,0.448,1,1s-0.447,1-1,1
	h-1.586l-3.707,3.707C24.519,28.896,24.263,29,24,29z"/>
</g></svg>