<svg xmlns="http://www.w3.org/2000/svg" xmlns:xlink="http://www.w3.org/1999/xlink" x="0px" y="0px" width="48px" height="48px" viewBox="0 0 48 48"><g >
<path fill="#E86C60" d="M30,9c-2.135,0-4.162,0.453-6,1.256C22.162,9.453,20.135,9,18,9C9.716,9,3,15.716,3,24
	c0,8.284,7.716,23,16,23c1.799,0,3.476-0.695,5-1.866C25.524,46.305,27.201,47,29,47c8.284,0,16-14.716,16-23
	C45,15.716,38.284,9,30,9z"/>
<path fill="#88C057" d="M21.738,4.622c-3.041-3.15-7.581-3.396-7.773-3.404l-1.122-0.052l0.078,1.121
	c0.013,0.191,0.361,4.708,3.391,7.738c3.029,3.029,7.547,3.377,7.738,3.39l0.077-1.098l0.99-0.073
	C25.103,12.062,24.755,7.747,21.738,4.622z"/>
<path fill="#8E6E62" d="M24,19c-0.552,0-1-0.448-1-1c0-8.729,0.932-13.231,6.453-16.837c0.462-0.301,1.082-0.172,1.384,0.291
	c0.303,0.462,0.172,1.082-0.29,1.384C26.192,5.681,25,8.94,25,18C25,18.552,24.552,19,24,19z"/>
<path fill="#C94F49" d="M23.919,19.017c-2.471,0-4.694-0.742-6.607-2.206c-0.439-0.335-0.522-0.963-0.187-1.402
	c0.335-0.439,0.964-0.523,1.402-0.187c1.557,1.191,3.371,1.794,5.393,1.794s3.836-0.604,5.393-1.794
	c0.44-0.334,1.067-0.251,1.401,0.187c0.336,0.438,0.252,1.066-0.187,1.402C28.612,18.274,26.39,19.017,23.919,19.017z"/>
</g></svg>