<svg xmlns="http://www.w3.org/2000/svg" xmlns:xlink="http://www.w3.org/1999/xlink" x="0px" y="0px" width="48px" height="48px" viewBox="0 0 48 48"><g >
<path fill="#DDBE99" d="M38,33H10c-4.963,0-9-4.038-9-9s4.037-9,9-9h28c4.963,0,9,4.038,9,9S42.963,33,38,33z"/>
<path fill="#DDBE99" d="M24,47c-4.963,0-9-4.038-9-9V10c0-4.962,4.037-9,9-9s9,4.038,9,9v28C33,42.962,28.963,47,24,47z"/>
<rect x="15" y="15" fill="#C6A279" width="18" height="18"/>
<circle fill="#A67C52" cx="28" cy="20" r="2"/>
<circle fill="#A67C52" cx="28" cy="28" r="2"/>
<circle fill="#A67C52" cx="20" cy="20" r="2"/>
<circle fill="#A67C52" cx="20" cy="28" r="2"/>
</g></svg>