<svg xmlns="http://www.w3.org/2000/svg" xmlns:xlink="http://www.w3.org/1999/xlink" x="0px" y="0px" width="48px" height="48px" viewBox="0 0 48 48"><g >
<path fill="#E6E6E6" d="M24,47C11.318,47,1,36.682,1,24S11.318,1,24,1s23,10.318,23,23S36.682,47,24,47z"/>
<path fill="#E86C60" d="M35,21h-8v-8c0-0.552-0.448-1-1-1h-4c-0.552,0-1,0.448-1,1v8h-8c-0.552,0-1,0.448-1,1v4c0,0.552,0.448,1,1,1
	h8v8c0,0.552,0.448,1,1,1h4c0.552,0,1-0.448,1-1v-8h8c0.552,0,1-0.448,1-1v-4C36,21.448,35.552,21,35,21z"/>
</g></svg>