<svg xmlns="http://www.w3.org/2000/svg" xmlns:xlink="http://www.w3.org/1999/xlink" x="0px" y="0px" width="48px" height="48px" viewBox="0 0 48 48"><g >
<path fill="#444444" d="M41,45H7c-2.209,0-4-1.791-4-4V7c0-2.209,1.791-4,4-4h34c2.209,0,4,1.791,4,4v34C45,43.209,43.209,45,41,45z
	"/>
<rect x="7" y="7" fill="#5B5B5B" width="34" height="29"/>
<path fill="#72C472" d="M9.999,30c-0.226,0-0.452-0.076-0.64-0.232c-0.424-0.354-0.481-0.984-0.128-1.408l10-12
	c0.35-0.418,0.966-0.482,1.394-0.141l9.301,7.441l7.367-7.367c0.391-0.391,1.023-0.391,1.414,0s0.391,1.023,0,1.414l-8,8
	c-0.361,0.362-0.936,0.392-1.332,0.074l-9.234-7.388L10.769,29.64C10.57,29.877,10.286,30,9.999,30z"/>
<circle fill="#E86C60" cx="39.5" cy="40.5" r="1.5"/>
</g></svg>