<svg xmlns="http://www.w3.org/2000/svg" xmlns:xlink="http://www.w3.org/1999/xlink" x="0px" y="0px" width="48px" height="48px" viewBox="0 0 48 48"><g >
<path fill="#72C472" d="M26,43c-0.4,0-0.762-0.238-0.919-0.606L14,16.539L8.919,28.394C8.762,28.762,8.4,29,8,29H2
	c-0.553,0-1-0.448-1-1s0.447-1,1-1h5.341l5.74-13.394C13.238,13.238,13.6,13,14,13s0.762,0.238,0.919,0.606L26,39.461l5.081-11.855
	C31.238,27.238,31.6,27,32,27h14c0.553,0,1,0.448,1,1s-0.447,1-1,1H32.659l-5.74,13.394C26.762,42.762,26.4,43,26,43z"/>
<path fill="#EFD358" d="M35.983,20.997c-0.704,0-1.42-0.081-2.139-0.249c-3.248-0.759-5.837-3.348-6.594-6.595
	c-1.134-4.858,1.722-9.629,6.499-10.861c0.303-0.079,0.619-0.012,0.862,0.178C34.857,3.659,35,3.951,35,4.26V8c0,2.757,2.243,5,5,5
	h3.739c0.31,0,0.601,0.143,0.79,0.388c0.189,0.244,0.256,0.562,0.179,0.862C43.658,18.321,40.037,20.997,35.983,20.997z"/>
</g></svg>