<svg xmlns="http://www.w3.org/2000/svg" xmlns:xlink="http://www.w3.org/1999/xlink" x="0px" y="0px" width="48px" height="48px" viewBox="0 0 48 48"><g >
<path fill="#C64B4B" d="M38,11H12c-0.552,0-1-0.449-1-1s0.448-1,1-1h21c2.209,0,4-1.791,4-4c0-2.209-1.791-4-4-4H12
	c-4.971,0-9,4.029-9,9c0,4.971,4.029,9,9,9h26c0.552,0,1,0.449,1,1s-0.448,1-1,1H12c-4.971,0-9,4.029-9,9c0,4.971,4.029,9,9,9h7
	c0.552,0,1,0.448,1,1v6c0,0.552,0.448,1,1,1h6c0.552,0,1-0.448,1-1v-7c0-4.418-3.582-8-8-8h-8c-0.552,0-1-0.449-1-1s0.448-1,1-1h26
	c4.971,0,9-4.029,9-9C47,15.029,42.971,11,38,11z"/>
</g></svg>