<svg xmlns="http://www.w3.org/2000/svg" xmlns:xlink="http://www.w3.org/1999/xlink" x="0px" y="0px" width="48px" height="48px" viewBox="0 0 48 48"><g >
<path fill="#E6E6E6" d="M35,18c-0.256,0-0.512-0.098-0.707-0.293l-4-4c-0.391-0.391-0.391-1.023,0-1.414l7-7
	c0.391-0.391,1.023-0.391,1.414,0l4,4c0.391,0.391,0.391,1.023,0,1.414l-7,7C35.512,17.902,35.256,18,35,18z"/>
<path fill="#B3B3B3" d="M3.494,45.506c-0.256,0-0.512-0.098-0.707-0.293c-0.391-0.391-0.391-1.023,0-1.414l9.899-9.899
	c0.391-0.391,1.023-0.391,1.414,0s0.391,1.023,0,1.414l-9.899,9.899C4.006,45.408,3.75,45.506,3.494,45.506z"/>
<path fill="#E6E6E6" d="M17.636,39.849c-0.256,0-0.512-0.098-0.707-0.293l-8.485-8.485c-0.391-0.391-0.391-1.023,0-1.414
	L28.243,9.858c0.391-0.391,1.023-0.391,1.414,0l8.485,8.485c0.391,0.391,0.391,1.023,0,1.414L18.343,39.556
	C18.148,39.751,17.892,39.849,17.636,39.849z"/>
<path fill="#B3B3B3" d="M26.121,20.05c-0.256,0-0.512-0.098-0.707-0.293l-2.828-2.829c-0.391-0.391-0.391-1.024,0-1.414
	c0.391-0.391,1.023-0.391,1.414,0l2.828,2.829c0.391,0.391,0.391,1.024,0,1.414C26.633,19.953,26.377,20.05,26.121,20.05z"/>
<path fill="#B3B3B3" d="M17.636,28.536c-0.256,0-0.512-0.098-0.707-0.293l-2.829-2.829c-0.391-0.391-0.391-1.023,0-1.414
	s1.023-0.391,1.414,0l2.829,2.829c0.391,0.391,0.391,1.023,0,1.414C18.148,28.438,17.892,28.536,17.636,28.536z"/>
<path fill="#B3B3B3" d="M44.506,12.979c-0.256,0-0.512-0.098-0.707-0.293l-8.485-8.485c-0.391-0.391-0.391-1.023,0-1.414
	s1.023-0.391,1.414,0l8.485,8.485c0.391,0.391,0.391,1.023,0,1.414C45.018,12.881,44.762,12.979,44.506,12.979z"/>
<path fill="#B3B3B3" d="M21.879,24.293c-0.256,0-0.512-0.098-0.707-0.293l-2.829-2.829c-0.391-0.391-0.391-1.023,0-1.414
	s1.023-0.391,1.414,0l2.829,2.829c0.391,0.391,0.391,1.023,0,1.414C22.391,24.195,22.135,24.293,21.879,24.293z"/>
<path fill="#B3B3B3" d="M43.092,25.707c-0.256,0-0.512-0.098-0.707-0.293L22.586,5.615c-0.391-0.391-0.391-1.023,0-1.414
	s1.023-0.391,1.414,0L43.799,24c0.391,0.391,0.391,1.023,0,1.414C43.604,25.609,43.348,25.707,43.092,25.707z"/>
</g></svg>