<svg xmlns="http://www.w3.org/2000/svg" xmlns:xlink="http://www.w3.org/1999/xlink" x="0px" y="0px" width="48px" height="48px" viewBox="0 0 48 48"><g >
<path fill="#E6E6E6" d="M40,35c-3.86,0-7-3.141-7-7s3.14-7,7-7s7,3.141,7,7S43.86,35,40,35z"/>
<path fill="#B3B3B3" d="M22.531,33H9.469c-2.472,0-4.6-1.846-4.95-4.293L1.336,6.425C1.213,5.563,1.469,4.692,2.04,4.034
	C2.61,3.377,3.436,3,4.306,3H10c0.552,0,1,0.447,1,1s-0.448,1-1,1H4.306C4.012,5,3.743,5.122,3.55,5.345S3.274,5.851,3.316,6.142
	l3.183,22.282C6.709,29.893,7.986,31,9.469,31h13.062c1.483,0,2.76-1.107,2.97-2.576l3.183-22.282
	c0.042-0.291-0.042-0.574-0.234-0.797S27.988,5,27.694,5H22c-0.552,0-1-0.447-1-1s0.448-1,1-1h5.694c0.87,0,1.696,0.377,2.267,1.034
	c0.57,0.658,0.827,1.529,0.703,2.391L27.48,28.707C27.131,31.154,25.003,33,22.531,33z"/>
<path fill="#B3B3B3" d="M10,7C9.448,7,9,6.553,9,6V2c0-0.553,0.448-1,1-1s1,0.447,1,1v4C11,6.553,10.552,7,10,7z"/>
<path fill="#B3B3B3" d="M22,7c-0.552,0-1-0.447-1-1V2c0-0.553,0.448-1,1-1s1,0.447,1,1v4C23,6.553,22.552,7,22,7z"/>
<path fill="#B3B3B3" d="M40,27c-0.552,0-1,0.448-1,1v6c0,6.065-4.935,11-11,11s-11-4.935-11-11v-2c0-0.553-0.448-1-1-1s-1,0.447-1,1
	v2c0,7.168,5.832,13,13,13s13-5.832,13-13v-6C41,27.448,40.552,27,40,27z"/>
</g></svg>