<svg xmlns="http://www.w3.org/2000/svg" xmlns:xlink="http://www.w3.org/1999/xlink" x="0px" y="0px" width="48px" height="48px" viewBox="0 0 48 48"><g >
<path fill="#E86C60" d="M34,1c-3.896,0-7.541,1.734-10,4.698C21.541,2.734,17.896,1,14,1C6.832,1,1,6.832,1,14
	c0,12.332,21.453,30.027,22.367,30.774C23.551,44.925,23.775,45,24,45s0.449-0.075,0.633-0.226C25.547,44.027,47,26.332,47,14
	C47,6.832,41.168,1,34,1z"/>
<path fill="#E6E6E6" d="M26,29c-0.334,0-0.646-0.167-0.832-0.445L18,17.803l-3.168,4.752C14.646,22.833,14.334,23,14,23H1
	c-0.553,0-1-0.448-1-1s0.447-1,1-1h12.465l3.703-5.555c0.371-0.557,1.293-0.557,1.664,0L26,26.197l3.168-4.752
	C29.354,21.167,29.666,21,30,21h17c0.553,0,1,0.448,1,1s-0.447,1-1,1H30.535l-3.703,5.555C26.646,28.833,26.334,29,26,29z"/>
</g></svg>