<?xml version="1.0" encoding="utf-8"?>
<!-- Generator: Adobe Illustrator 19.0.1, SVG Export Plug-In . SVG Version: 6.00 Build 0)  -->
<!DOCTYPE svg PUBLIC "-//W3C//DTD SVG 1.1//EN" "http://www.w3.org/Graphics/SVG/1.1/DTD/svg11.dtd">
<svg version="1.1" id="Layer_1" xmlns="http://www.w3.org/2000/svg" xmlns:xlink="http://www.w3.org/1999/xlink" x="0px" y="0px"
	 width="32px" height="32px" viewBox="0 0 32 32" enable-background="new 0 0 32 32" xml:space="preserve">
<path d="M24,32c1.7,0,3-1.3,3-3v-9V1c0-0.6-0.4-1-1-1c-3.9,0-7,3.1-7,7v13c0,0.6,0.4,1,1,1h1v8C21,30.7,22.3,32,24,32z M24,30
	c-0.6,0-1-0.4-1-1v-8h2v8C25,29.6,24.6,30,24,30z M21,7c0-2.4,1.7-4.4,4-4.9V19h-4V7z"/>
<path d="M9,32c1.7,0,3-1.3,3-3V14c1.7,0,3-1.3,3-3V1c0-0.6-0.4-1-1-1s-1,0.4-1,1v6h-3V1c0-0.6-0.4-1-1-1S8,0.4,8,1v6H5V1
	c0-0.6-0.4-1-1-1S3,0.4,3,1v10c0,1.7,1.3,3,3,3v15C6,30.7,7.3,32,9,32z M5,11V9h8v2c0,0.6-0.4,1-1,1H6C5.4,12,5,11.6,5,11z M10,14
	v15c0,0.6-0.4,1-1,1s-1-0.4-1-1V14H10z"/>
</svg>
