<?xml version="1.0" encoding="utf-8"?>
<!-- Generator: Adobe Illustrator 19.0.1, SVG Export Plug-In . SVG Version: 6.00 Build 0)  -->
<!DOCTYPE svg PUBLIC "-//W3C//DTD SVG 1.1//EN" "http://www.w3.org/Graphics/SVG/1.1/DTD/svg11.dtd">
<svg version="1.1" id="Layer_1" xmlns="http://www.w3.org/2000/svg" xmlns:xlink="http://www.w3.org/1999/xlink" x="0px" y="0px"
	 width="32px" height="32px" viewBox="0 0 32 32" enable-background="new 0 0 32 32" xml:space="preserve">
<path d="M13,8V1c0-0.6-0.4-1-1-1s-1,0.4-1,1v7c0,1.1-0.9,2-2,2S7,9.1,7,8V1c0-0.6-0.4-1-1-1S5,0.4,5,1v7c0,1.9,1.3,3.4,3,3.9V18H7
	c-0.6,0-1,0.4-1,1v10c0,1.7,1.3,3,3,3s3-1.3,3-3V19c0-0.6-0.4-1-1-1h-1v-6.1C11.7,11.4,13,9.9,13,8z M10,29c0,0.6-0.4,1-1,1
	s-1-0.4-1-1v-9h2V29z"/>
<path d="M27,12c0.6,0,1-0.4,1-1V1c0-0.6-0.4-1-1-1h-8c-0.6,0-1,0.4-1,1v10c0,0.6,0.4,1,1,1h3v6h-1c-0.6,0-1,0.4-1,1v10
	c0,1.7,1.3,3,3,3s3-1.3,3-3V19c0-0.6-0.4-1-1-1h-1v-6H27z M24,29c0,0.6-0.4,1-1,1s-1-0.4-1-1v-9h2V29z M26,10h-2V2h2V10z M20,10V2h2
	v8H20z"/>
</svg>
