<?xml version="1.0" encoding="utf-8"?>
<!-- Generator: Adobe Illustrator 19.0.1, SVG Export Plug-In . SVG Version: 6.00 Build 0)  -->
<!DOCTYPE svg PUBLIC "-//W3C//DTD SVG 1.1//EN" "http://www.w3.org/Graphics/SVG/1.1/DTD/svg11.dtd">
<svg version="1.1" id="Layer_1" xmlns="http://www.w3.org/2000/svg" xmlns:xlink="http://www.w3.org/1999/xlink" x="0px" y="0px"
	 width="32px" height="32px" viewBox="0 0 32 32" enable-background="new 0 0 32 32" xml:space="preserve">
<path d="M29,28V18c0-0.6-0.4-1-1-1h-3v-2c0-1.7-1.3-3-3-3h-8c-0.6,0-1,0.4-1,1v4h-2V2c0-0.6-0.4-1-1-1H7C4.8,1,3,2.8,3,5v10
	c0,2.2,1.8,4,4,4h2v9c0,2.2,1.8,4,4,4h12C27.2,32,29,30.2,29,28z M15,14h7c0.6,0,1,0.4,1,1v2h-8V14z M5,15V5c0-1.1,0.9-2,2-2h2v14H7
	C5.9,17,5,16.1,5,15z M11,28v-9h16v9c0,1.1-0.9,2-2,2H13C11.9,30,11,29.1,11,28z"/>
<path d="M23,7.3c0-1.7-2.5-5-3.2-5.9c-0.4-0.5-1.2-0.5-1.6,0c-0.8,1-3.2,4.3-3.2,5.9c0,2,1.8,3.7,4,3.7S23,9.4,23,7.3z M17,7.3
	c0-0.5,0.9-2.1,2-3.7c1.1,1.5,2,3.1,2,3.7C21,8.3,20.1,9,19,9S17,8.3,17,7.3z"/>
</svg>
