<?xml version="1.0" encoding="utf-8"?>
<!-- Generator: Adobe Illustrator 19.0.1, SVG Export Plug-In . SVG Version: 6.00 Build 0)  -->
<!DOCTYPE svg PUBLIC "-//W3C//DTD SVG 1.1//EN" "http://www.w3.org/Graphics/SVG/1.1/DTD/svg11.dtd">
<svg version="1.1" id="Layer_1" xmlns="http://www.w3.org/2000/svg" xmlns:xlink="http://www.w3.org/1999/xlink" x="0px" y="0px"
	 width="32px" height="32px" viewBox="0 0 32 32" enable-background="new 0 0 32 32" xml:space="preserve">
<path d="M4,16.7V31c0,0.6,0.4,1,1,1h8c0.6,0,1-0.4,1-1v-6h4v6c0,0.6,0.4,1,1,1h8c0.6,0,1-0.4,1-1V16.7c1.6-0.6,3-2.1,3-4.7
	c0-0.2,0-0.3-0.1-0.5l-6-11C24.7,0.2,24.4,0,24,0H8C7.6,0,7.3,0.2,7.1,0.5l-6,11C1,11.7,1,11.8,1,12C1,14.7,2.4,16.2,4,16.7z M20,30
	v-6c0-0.6-0.4-1-1-1h-6c-0.6,0-1,0.4-1,1v6H6V17c1.2-0.1,2.3-0.6,3-1.4c0.8,0.9,2.1,1.4,3.6,1.4c1.4,0,2.6-0.5,3.4-1.3
	c0.8,0.8,2,1.3,3.4,1.3c1.5,0,2.8-0.5,3.6-1.4c0.7,0.8,1.8,1.3,3,1.4v13H20z M8.6,2h14.8L29,12.2C28.9,14,28,15,26.5,15
	c-1.2,0-2.5-0.6-2.5-2c0-0.6-0.4-1-1-1s-1,0.4-1,1c0,1.4-1.3,2-2.6,2c-1.2,0-2.4-0.5-2.4-2c0-0.6-0.4-1-1-1s-1,0.4-1,1
	c0,1.5-1.2,2-2.4,2c-1.3,0-2.6-0.6-2.6-2c0-0.6-0.4-1-1-1s-1,0.4-1,1c0,1.4-1.3,2-2.5,2C4,15,3.1,14,3,12.2L8.6,2z"/>
</svg>
