<?xml version="1.0" encoding="utf-8"?>
<!-- Generator: Adobe Illustrator 19.0.1, SVG Export Plug-In . SVG Version: 6.00 Build 0)  -->
<!DOCTYPE svg PUBLIC "-//W3C//DTD SVG 1.1//EN" "http://www.w3.org/Graphics/SVG/1.1/DTD/svg11.dtd">
<svg version="1.1" id="Layer_1" xmlns="http://www.w3.org/2000/svg" xmlns:xlink="http://www.w3.org/1999/xlink" x="0px" y="0px"
	 width="32px" height="32px" viewBox="0 0 32 32" enable-background="new 0 0 32 32" xml:space="preserve">
<path d="M31,12h-1V9c0-0.6-0.4-1-1-1H13c-0.6,0-1,0.4-1,1v3h-1c-0.6,0-1,0.4-1,1v18c0,0.6,0.4,1,1,1h20c0.6,0,1-0.4,1-1V13
	C32,12.4,31.6,12,31,12z M14,10h14v2H14V10z M30,30H12V14h18V30z"/>
<path d="M2,31c0,0.6,0.4,1,1,1h3c0.6,0,1-0.4,1-1V9.5c1.3-1.6,2-4,2-5.3C9,1.9,7,0,4.5,0S0,1.9,0,4.2C0,5.5,0.7,8,2,9.5V31z M4,30
	V10.9C4.2,11,4.3,11,4.5,11s0.3,0,0.5-0.1V30H4z M4.5,2C5.9,2,7,3,7,4.2c0,1.2-0.8,3.3-1.7,4.3c0,0,0,0,0,0C5,8.8,4.7,9,4.5,9
	C4.3,9,4,8.8,3.7,8.5c0,0,0,0,0,0C2.8,7.5,2,5.4,2,4.2C2,3,3.1,2,4.5,2z"/>
<path d="M20.2,17.4c-0.8,1-3.2,4.3-3.2,5.9c0,2,1.8,3.7,4,3.7s4-1.6,4-3.7c0-1.7-2.5-5-3.2-5.9C21.4,16.9,20.6,16.9,20.2,17.4z
	 M21,25c-1.1,0-2-0.7-2-1.7c0-0.5,0.9-2.1,2-3.7c1.1,1.5,2,3.1,2,3.7C23,24.3,22.1,25,21,25z"/>
</svg>
