<?xml version="1.0" encoding="utf-8"?>
<!-- Generator: Adobe Illustrator 19.0.1, SVG Export Plug-In . SVG Version: 6.00 Build 0)  -->
<!DOCTYPE svg PUBLIC "-//W3C//DTD SVG 1.1//EN" "http://www.w3.org/Graphics/SVG/1.1/DTD/svg11.dtd">
<svg version="1.1" id="Layer_1" xmlns="http://www.w3.org/2000/svg" xmlns:xlink="http://www.w3.org/1999/xlink" x="0px" y="0px"
	 width="32px" height="32px" viewBox="0 0 32 32" enable-background="new 0 0 32 32" xml:space="preserve">
<path d="M19,9c-0.6,0-1,0.4-1,1v4h-1v-4c0-0.6-0.4-1-1-1s-1,0.4-1,1v4h-1v-4c0-0.6-0.4-1-1-1s-1,0.4-1,1v4c0,1.1,0.9,2,2,2h1v3h-1
	c-0.6,0-1,0.4-1,1v5c0,1.7,1.3,3,3,3s3-1.3,3-3v-5c0-0.6-0.4-1-1-1h-1v-3h1c1.1,0,2-0.9,2-2v-4C20,9.4,19.6,9,19,9z M17,25
	c0,0.6-0.4,1-1,1s-1-0.4-1-1v-4h2V25z"/>
<path d="M29,31V3c0-0.6-0.4-1-1-1h-5V1c0-0.6-0.4-1-1-1s-1,0.4-1,1v1h-4V1c0-0.6-0.4-1-1-1s-1,0.4-1,1v1h-4V1c0-0.6-0.4-1-1-1
	S9,0.4,9,1v1H4C3.4,2,3,2.4,3,3v28c0,0.6,0.4,1,1,1h24C28.6,32,29,31.6,29,31z M27,30H5V4h4v1c0,0.6,0.4,1,1,1s1-0.4,1-1V4h4v1
	c0,0.6,0.4,1,1,1s1-0.4,1-1V4h4v1c0,0.6,0.4,1,1,1s1-0.4,1-1V4h4V30z"/>
</svg>
