<?xml version="1.0" encoding="utf-8"?>
<!-- Generator: Adobe Illustrator 19.0.1, SVG Export Plug-In . SVG Version: 6.00 Build 0)  -->
<!DOCTYPE svg PUBLIC "-//W3C//DTD SVG 1.1//EN" "http://www.w3.org/Graphics/SVG/1.1/DTD/svg11.dtd">
<svg version="1.1" id="Layer_1" xmlns="http://www.w3.org/2000/svg" xmlns:xlink="http://www.w3.org/1999/xlink" x="0px" y="0px"
	 width="32px" height="32px" viewBox="0 0 32 32" enable-background="new 0 0 32 32" xml:space="preserve">
<path d="M18,0h-5c-0.6,0-1,0.4-1,1v3H3C2.6,4,2.3,4.2,2.1,4.6C1.9,4.9,2,5.3,2.2,5.6l4.8,5.8L8,16.9L4,30.7C4,31,4,31.4,4.2,31.6
	S4.7,32,5,32h21c0.3,0,0.6-0.2,0.8-0.4c0.2-0.3,0.2-0.6,0.1-0.9L22.1,17l1-3H26c2.2,0,4-1.8,4-4V5c0-0.6-0.4-1-1-1h-4h-6V1
	C19,0.4,18.6,0,18,0z M14,2h3v2h-3V2z M24.6,30H6.3l3.4-12h10.5L24.6,30z M28,10c0,1.1-0.9,2-2,2h-2.3l2-6H28V10z M20.3,16H9.8
	L9,10.8c0-0.2-0.1-0.3-0.2-0.5L5.1,6H13h5h5.6L20.3,16z"/>
</svg>
