<?xml version="1.0" encoding="utf-8"?>
<!-- Generator: Adobe Illustrator 19.0.1, SVG Export Plug-In . SVG Version: 6.00 Build 0)  -->
<!DOCTYPE svg PUBLIC "-//W3C//DTD SVG 1.1//EN" "http://www.w3.org/Graphics/SVG/1.1/DTD/svg11.dtd">
<svg version="1.1" id="Layer_1" xmlns="http://www.w3.org/2000/svg" xmlns:xlink="http://www.w3.org/1999/xlink" x="0px" y="0px"
	 width="32px" height="32px" viewBox="0 0 32 32" enable-background="new 0 0 32 32" xml:space="preserve">
<path d="M8.9,30.8c1.1,1,2.4,1.3,3.5,1.3c1.5,0,2.9-0.5,3.6-0.9c1.3,0.6,4.6,1.8,7.1-0.4c6.6-5.6,7.9-10.9,7.9-14.3
	c0-4.3-2.2-7.6-4-9.1c0,0,0,0,0,0c-2.8-2.1-5.9-2.7-9.3-1.9c0.5-1.6,1.4-2.6,2.9-3.5c0.5-0.3,0.6-0.9,0.3-1.4
	c-0.3-0.5-0.9-0.6-1.4-0.3c-2.2,1.4-3.4,3.1-3.9,5.5C11.6,4.4,8.1,5,5,7.3C3.2,8.8,1,12.1,1,16.4C1,19.9,2.3,25.2,8.9,30.8z
	 M6.2,8.9C7.9,7.6,9.6,7,11.6,7c1.1,0,2.3,0.2,3.6,0.7c-0.1,1-0.2,2-0.2,3.2c-0.9-0.2-1.8-0.6-2.5-1.2c-0.4-0.3-1.1-0.3-1.4,0.1
	s-0.3,1.1,0.1,1.4c1.3,1.1,3.1,1.7,4.7,1.7s3.4-0.6,4.7-1.7c0.4-0.3,0.5-1,0.1-1.4s-1-0.5-1.4-0.1c-0.7,0.6-1.6,1-2.5,1.2
	c0-1.3,0.1-2.4,0.2-3.3c3.3-1,6-0.6,8.6,1.3c1.6,1.3,3.2,4.1,3.2,7.5c0,4.4-2.4,8.8-7.1,12.8c-2.1,1.8-5.3-0.1-5.3-0.1
	c-0.3-0.2-0.7-0.2-1,0c0,0-3.2,1.9-5.3,0.1C5.4,25.2,3,20.8,3,16.4C3,13,4.6,10.2,6.2,8.9z"/>
</svg>
