<?xml version="1.0" encoding="utf-8"?>
<!-- Generator: Adobe Illustrator 19.0.1, SVG Export Plug-In . SVG Version: 6.00 Build 0)  -->
<!DOCTYPE svg PUBLIC "-//W3C//DTD SVG 1.1//EN" "http://www.w3.org/Graphics/SVG/1.1/DTD/svg11.dtd">
<svg version="1.1" id="Layer_1" xmlns="http://www.w3.org/2000/svg" xmlns:xlink="http://www.w3.org/1999/xlink" x="0px" y="0px"
	 width="32px" height="32px" viewBox="0 0 32 32" enable-background="new 0 0 32 32" xml:space="preserve">
<path d="M13,1v3c0,0.6,0.4,1,1,1s1-0.4,1-1V1c0-0.6-0.4-1-1-1S13,0.4,13,1z"/>
<path d="M8,3v3c0,0.6,0.4,1,1,1s1-0.4,1-1V3c0-0.6-0.4-1-1-1S8,2.4,8,3z"/>
<path d="M18,3v3c0,0.6,0.4,1,1,1s1-0.4,1-1V3c0-0.6-0.4-1-1-1S18,2.4,18,3z"/>
<path d="M0,27c0,2.8,2.2,5,5,5h18c2.8,0,5-2.2,5-5c0-0.6-0.4-1-1-1h-6.4c2.7-1.8,4.6-4.7,5.2-8H27c1.7,0,3-1.3,3-3v-5
	c0-0.6-0.4-1-1-1h-4H3c-0.6,0-1,0.4-1,1v6c0,4.2,2.1,7.8,5.4,10H1C0.4,26,0,26.4,0,27z M28,15c0,0.6-0.4,1-1,1h-1v-5h2V15z M4,16v-5
	h20v5c0,5.5-4.5,10-10,10S4,21.5,4,16z M25.8,28c-0.4,1.2-1.5,2-2.8,2H5c-1.3,0-2.4-0.8-2.8-2H25.8z"/>
</svg>
