<?xml version="1.0" encoding="utf-8"?>
<!-- Generator: Adobe Illustrator 19.0.1, SVG Export Plug-In . SVG Version: 6.00 Build 0)  -->
<!DOCTYPE svg PUBLIC "-//W3C//DTD SVG 1.1//EN" "http://www.w3.org/Graphics/SVG/1.1/DTD/svg11.dtd">
<svg version="1.1" id="Layer_1" xmlns="http://www.w3.org/2000/svg" xmlns:xlink="http://www.w3.org/1999/xlink" x="0px" y="0px"
	 width="32px" height="32px" viewBox="0 0 32 32" enable-background="new 0 0 32 32" xml:space="preserve">
<path d="M10,24h12c0.6,0,1-0.4,1-1v-6c0-0.6-0.4-1-1-1H10c-0.6,0-1,0.4-1,1v6C9,23.6,9.4,24,10,24z M11,18h10v4H11V18z"/>
<path d="M29,2H3C1.3,2,0,3.3,0,5c0,1.2,0.7,2.3,1.8,2.7l-0.8,3c-0.1,0.3,0,0.6,0.2,0.9S1.7,12,2,12v15c0,1.7,1.3,3,3,3h22
	c1.7,0,3-1.3,3-3V12c0.3,0,0.6-0.1,0.8-0.4s0.3-0.6,0.2-0.9l-0.8-3C31.3,7.3,32,6.2,32,5C32,3.3,30.7,2,29,2z M3,4h26
	c0.6,0,1,0.4,1,1s-0.4,1-1,1H3C2.4,6,2,5.6,2,5S2.4,4,3,4z M28.7,10H3.3l0.5-2h24.4L28.7,10z M28,27c0,0.6-0.4,1-1,1H5
	c-0.6,0-1-0.4-1-1V12h24V27z"/>
</svg>
