<?xml version="1.0" encoding="utf-8"?>
<!-- Generator: Adobe Illustrator 19.0.1, SVG Export Plug-In . SVG Version: 6.00 Build 0)  -->
<!DOCTYPE svg PUBLIC "-//W3C//DTD SVG 1.1//EN" "http://www.w3.org/Graphics/SVG/1.1/DTD/svg11.dtd">
<svg version="1.1" id="Layer_1" xmlns="http://www.w3.org/2000/svg" xmlns:xlink="http://www.w3.org/1999/xlink" x="0px" y="0px"
	 width="32px" height="32px" viewBox="0 0 32 32" enable-background="new 0 0 32 32" xml:space="preserve">
<path d="M15.8,0C9.8,0,5.3,2.3,3.1,6.5C0,12.5,3,15.9,5.3,18.7c1.3,1.5,2.5,2.8,2.7,4.4c0.9,7.5,2.8,8.9,7.8,8.9
	C24.7,32,32,24.8,32,16S24.7,0,15.8,0z M15.8,30c-3.4,0-5,0-5.8-7.1c-0.3-2.2-1.7-3.9-3.1-5.5c-2.4-2.7-4.4-5.1-2-9.9
	C7.3,2.7,12.8,2,15.8,2C23.6,2,30,8.3,30,16S23.6,30,15.8,30z"/>
<path d="M16.5,5C12.9,5,10,7.9,10,11.5s2.9,6.5,6.5,6.5s6.5-2.9,6.5-6.5S20.1,5,16.5,5z M16.5,16C14,16,12,14,12,11.5S14,7,16.5,7
	S21,9,21,11.5S19,16,16.5,16z"/>
</svg>
