<?xml version="1.0" encoding="utf-8"?>
<!-- Generator: Adobe Illustrator 19.0.1, SVG Export Plug-In . SVG Version: 6.00 Build 0)  -->
<!DOCTYPE svg PUBLIC "-//W3C//DTD SVG 1.1//EN" "http://www.w3.org/Graphics/SVG/1.1/DTD/svg11.dtd">
<svg version="1.1" id="Layer_1" xmlns="http://www.w3.org/2000/svg" xmlns:xlink="http://www.w3.org/1999/xlink" x="0px" y="0px"
	 width="32px" height="32px" viewBox="0 0 32 32" enable-background="new 0 0 32 32" xml:space="preserve">
<path d="M8,15c2.2,0,4-1.8,4-4s-1.8-4-4-4s-4,1.8-4,4S5.8,15,8,15z M8,9c1.1,0,2,0.9,2,2s-0.9,2-2,2s-2-0.9-2-2S6.9,9,8,9z"/>
<path d="M18,15c2.2,0,4-1.8,4-4s-1.8-4-4-4s-4,1.8-4,4S15.8,15,18,15z M18,9c1.1,0,2,0.9,2,2s-0.9,2-2,2s-2-0.9-2-2S16.9,9,18,9z"/>
<path d="M8,25c2.2,0,4-1.8,4-4s-1.8-4-4-4s-4,1.8-4,4S5.8,25,8,25z M8,19c1.1,0,2,0.9,2,2s-0.9,2-2,2s-2-0.9-2-2S6.9,19,8,19z"/>
<path d="M18,25c2.2,0,4-1.8,4-4s-1.8-4-4-4s-4,1.8-4,4S15.8,25,18,25z M18,19c1.1,0,2,0.9,2,2s-0.9,2-2,2s-2-0.9-2-2S16.9,19,18,19z
	"/>
<path d="M25,10h2c0.6,0,1-0.4,1-1s-0.4-1-1-1h-2c-0.6,0-1,0.4-1,1S24.4,10,25,10z"/>
<path d="M25,14h2c0.6,0,1-0.4,1-1s-0.4-1-1-1h-2c-0.6,0-1,0.4-1,1S24.4,14,25,14z"/>
<path d="M25,20h2c0.6,0,1-0.4,1-1s-0.4-1-1-1h-2c-0.6,0-1,0.4-1,1S24.4,20,25,20z"/>
<path d="M25,24h2c0.6,0,1-0.4,1-1s-0.4-1-1-1h-2c-0.6,0-1,0.4-1,1S24.4,24,25,24z"/>
<path d="M31,1H1C0.4,1,0,1.4,0,2v28c0,0.6,0.4,1,1,1h30c0.6,0,1-0.4,1-1V2C32,1.4,31.6,1,31,1z M30,29H2V3h28V29z"/>
</svg>
