<?xml version="1.0" encoding="utf-8"?>
<!-- Generator: Adobe Illustrator 19.0.1, SVG Export Plug-In . SVG Version: 6.00 Build 0)  -->
<!DOCTYPE svg PUBLIC "-//W3C//DTD SVG 1.1//EN" "http://www.w3.org/Graphics/SVG/1.1/DTD/svg11.dtd">
<svg version="1.1" id="Layer_1" xmlns="http://www.w3.org/2000/svg" xmlns:xlink="http://www.w3.org/1999/xlink" x="0px" y="0px"
	 width="32px" height="32px" viewBox="0 0 32 32" enable-background="new 0 0 32 32" xml:space="preserve">
<path d="M31,4H1C0.4,4,0,4.4,0,5v22c0,0.6,0.4,1,1,1h30c0.6,0,1-0.4,1-1V5C32,4.4,31.6,4,31,4z M30,26H2V6h28V26z"/>
<circle cx="26" cy="11" r="2"/>
<circle cx="26" cy="17" r="2"/>
<path d="M25,23h2c0.6,0,1-0.4,1-1s-0.4-1-1-1h-2c-0.6,0-1,0.4-1,1S24.4,23,25,23z"/>
<path d="M5,23h16c0.6,0,1-0.4,1-1V10c0-0.6-0.4-1-1-1H5c-0.6,0-1,0.4-1,1v12C4,22.6,4.4,23,5,23z M6,11h14v10H6V11z"/>
</svg>
