<?xml version="1.0" encoding="utf-8"?>
<!-- Generator: Adobe Illustrator 19.0.1, SVG Export Plug-In . SVG Version: 6.00 Build 0)  -->
<!DOCTYPE svg PUBLIC "-//W3C//DTD SVG 1.1//EN" "http://www.w3.org/Graphics/SVG/1.1/DTD/svg11.dtd">
<svg version="1.1" id="Layer_1" xmlns="http://www.w3.org/2000/svg" xmlns:xlink="http://www.w3.org/1999/xlink" x="0px" y="0px"
	 width="32px" height="32px" viewBox="0 0 32 32" enable-background="new 0 0 32 32" xml:space="preserve">
<path d="M4,32h24c0.6,0,1-0.4,1-1V1c0-0.6-0.4-1-1-1H4C3.4,0,3,0.4,3,1v30C3,31.6,3.4,32,4,32z M5,30V15h22v15H5z M27,2v11H5V2H27z"
	/>
<path d="M8,11c0.6,0,1-0.4,1-1V7c0-0.6-0.4-1-1-1S7,6.4,7,7v3C7,10.6,7.4,11,8,11z"/>
<path d="M8,17c-0.6,0-1,0.4-1,1v5c0,0.6,0.4,1,1,1s1-0.4,1-1v-5C9,17.4,8.6,17,8,17z"/>
</svg>
