<?xml version="1.0" encoding="utf-8"?>
<!-- Generator: Adobe Illustrator 19.0.1, SVG Export Plug-In . SVG Version: 6.00 Build 0)  -->
<!DOCTYPE svg PUBLIC "-//W3C//DTD SVG 1.1//EN" "http://www.w3.org/Graphics/SVG/1.1/DTD/svg11.dtd">
<svg version="1.1" id="Layer_1" xmlns="http://www.w3.org/2000/svg" xmlns:xlink="http://www.w3.org/1999/xlink" x="0px" y="0px"
	 width="32px" height="32px" viewBox="0 0 32 32" enable-background="new 0 0 32 32" xml:space="preserve">
<path d="M31.9,16.6c0-0.1-0.1-0.2-0.2-0.3c0,0,0,0,0,0c-0.1-0.1-0.1-0.1-0.2-0.2L23,11.4V3c0-0.6-0.4-1-1-1H10C9.4,2,9,2.4,9,3v8.4
	l-8.5,4.7c-0.1,0-0.2,0.1-0.2,0.2c0,0,0,0,0,0c-0.1,0.1-0.1,0.2-0.2,0.3c0,0,0,0.1,0,0.1C0,16.8,0,16.9,0,17v12c0,0.6,0.4,1,1,1h30
	c0.6,0,1-0.4,1-1V17C32,16.9,32,16.8,31.9,16.6C31.9,16.6,31.9,16.6,31.9,16.6z M10.5,12.9c0.3-0.2,0.5-0.5,0.5-0.9V4h10v8
	c0,0.4,0.2,0.7,0.5,0.9l5.6,3.1H4.9L10.5,12.9z M2,28V18h28v10H2z"/>
<path d="M26,22h-3c-0.6,0-1,0.4-1,1s0.4,1,1,1h3c0.6,0,1-0.4,1-1S26.6,22,26,22z"/>
</svg>
