<?xml version="1.0" encoding="utf-8"?>
<!-- Generator: Adobe Illustrator 19.0.1, SVG Export Plug-In . SVG Version: 6.00 Build 0)  -->
<!DOCTYPE svg PUBLIC "-//W3C//DTD SVG 1.1//EN" "http://www.w3.org/Graphics/SVG/1.1/DTD/svg11.dtd">
<svg version="1.1" id="Layer_1" xmlns="http://www.w3.org/2000/svg" xmlns:xlink="http://www.w3.org/1999/xlink" x="0px" y="0px"
	 width="32px" height="32px" viewBox="0 0 32 32" enable-background="new 0 0 32 32" xml:space="preserve">
<path d="M10.7,4.5C10.7,4.5,10.7,4.5,10.7,4.5C10.7,4.5,10.7,4.5,10.7,4.5L7.5,1.3c-0.4-0.4-1-0.4-1.4,0C2.8,4.6,1,9,1,13.6
	c0,4.6,1.8,9,5.1,12.3c3.4,3.4,7.8,5.1,12.3,5.1c4.5,0,8.9-1.7,12.3-5.1c0.4-0.4,0.4-1,0-1.4L10.7,4.5z M25.4,22
	c-4.3,3.6-10.7,3.3-14.7-0.7c-2.1-2.1-3.2-4.8-3.2-7.7c0-2.6,0.9-5,2.5-7L25.4,22z M7.5,24.5C4.6,21.6,3,17.7,3,13.6
	C3,9.8,4.4,6.2,6.8,3.4l1.8,1.8c-2,2.3-3.1,5.3-3.1,8.4c0,3.5,1.3,6.7,3.8,9.1c2.5,2.5,5.8,3.8,9.1,3.8c3,0,6-1,8.4-3.1l1.8,1.8
	C22.5,30.5,13.3,30.3,7.5,24.5z"/>
<path d="M10.3,12.7l1,1c0.2,0.2,0.5,0.3,0.7,0.3s0.5-0.1,0.7-0.3c0.4-0.4,0.4-1,0-1.4l-1-1c-0.4-0.4-1-0.4-1.4,0S9.9,12.3,10.3,12.7
	z"/>
<path d="M19.3,21.7c0.2,0.2,0.5,0.3,0.7,0.3s0.5-0.1,0.7-0.3c0.4-0.4,0.4-1,0-1.4l-1-1c-0.4-0.4-1-0.4-1.4,0s-0.4,1,0,1.4L19.3,21.7
	z"/>
<path d="M12.3,19.7c0.2,0.2,0.5,0.3,0.7,0.3s0.5-0.1,0.7-0.3l1-1c0.4-0.4,0.4-1,0-1.4s-1-0.4-1.4,0l-1,1
	C11.9,18.7,11.9,19.3,12.3,19.7z"/>
</svg>
