<?xml version="1.0" encoding="utf-8"?>
<!-- Generator: Adobe Illustrator 19.0.1, SVG Export Plug-In . SVG Version: 6.00 Build 0)  -->
<!DOCTYPE svg PUBLIC "-//W3C//DTD SVG 1.1//EN" "http://www.w3.org/Graphics/SVG/1.1/DTD/svg11.dtd">
<svg version="1.1" id="Layer_1" xmlns="http://www.w3.org/2000/svg" xmlns:xlink="http://www.w3.org/1999/xlink" x="0px" y="0px"
	 width="32px" height="32px" viewBox="0 0 32 32" enable-background="new 0 0 32 32" xml:space="preserve">
<path d="M17,6V1c0-0.6-0.4-1-1-1s-1,0.4-1,1v5c0,0.6,0.4,1,1,1S17,6.6,17,6z"/>
<path d="M11,8V3c0-0.6-0.4-1-1-1S9,2.4,9,3v5c0,0.6,0.4,1,1,1S11,8.6,11,8z"/>
<path d="M23,8V3c0-0.6-0.4-1-1-1s-1,0.4-1,1v5c0,0.6,0.4,1,1,1S23,8.6,23,8z"/>
<path d="M31,26h-1.2c-0.8-5.9-5.4-10.6-11.1-11.7c0.2-0.4,0.3-0.8,0.3-1.3c0-1.7-1.3-3-3-3s-3,1.3-3,3c0,0.5,0.1,0.9,0.3,1.3
	C7.6,15.4,3,20.1,2.2,26H1c-0.6,0-1,0.4-1,1c0,2.8,2.2,5,5,5h22c2.8,0,5-2.2,5-5C32,26.4,31.6,26,31,26z M15,13c0-0.6,0.4-1,1-1
	s1,0.4,1,1s-0.4,1-1,1S15,13.6,15,13z M16,16c5.9,0,10.9,4.3,11.8,10H4.2C5.1,20.3,10.1,16,16,16z M27,30H5c-1.3,0-2.4-0.8-2.8-2
	h27.7C29.4,29.2,28.3,30,27,30z"/>
<path d="M12.7,18.6c-2.4,0.9-4.4,2.6-5.6,4.8c-0.3,0.5-0.1,1.1,0.4,1.3c0.1,0.1,0.3,0.1,0.5,0.1c0.4,0,0.7-0.2,0.9-0.5
	c0.9-1.8,2.6-3.2,4.4-3.9c0.5-0.2,0.8-0.8,0.6-1.3S13.2,18.4,12.7,18.6z"/>
</svg>
