<?xml version="1.0" encoding="utf-8"?>
<!-- Generator: Adobe Illustrator 19.0.1, SVG Export Plug-In . SVG Version: 6.00 Build 0)  -->
<!DOCTYPE svg PUBLIC "-//W3C//DTD SVG 1.1//EN" "http://www.w3.org/Graphics/SVG/1.1/DTD/svg11.dtd">
<svg version="1.1" id="Layer_1" xmlns="http://www.w3.org/2000/svg" xmlns:xlink="http://www.w3.org/1999/xlink" x="0px" y="0px"
	 width="32px" height="32px" viewBox="0 0 32 32" enable-background="new 0 0 32 32" xml:space="preserve">
<path d="M21,15c2.2,0,4-1.8,4-4s-1.8-4-4-4s-4,1.8-4,4S18.8,15,21,15z M21,9c1.1,0,2,0.9,2,2s-0.9,2-2,2s-2-0.9-2-2S19.9,9,21,9z"/>
<path d="M2,27c0.1,0,0.2,0,0.4-0.1l4.5-1.7l-1.7,4.5c-0.2,0.5,0.1,1.1,0.6,1.3C5.8,31,5.9,31,6,31c0.4,0,0.8-0.2,0.9-0.6l2.4-6.2
	l21-8.3c0.5-0.2,0.8-0.8,0.6-1.3c-0.2-0.5-0.8-0.8-1.3-0.6l-1.5,0.6c0.6-1.1,0.9-2.3,0.9-3.7c0-4.4-3.6-8-8-8
	c-1.3,0-2.6,0.3-3.7,0.9l0.6-1.5c0.2-0.5-0.1-1.1-0.6-1.3c-0.5-0.2-1.1,0.1-1.3,0.6l-8.3,21l-6.2,2.4c-0.5,0.2-0.8,0.8-0.6,1.3
	C1.2,26.8,1.6,27,2,27z M27,11c0,3.3-2.7,6-6,6s-6-2.7-6-6s2.7-6,6-6S27,7.7,27,11z M13.5,13.7c0.8,2.2,2.6,4,4.8,4.8l-7.9,3.1
	L13.5,13.7z"/>
</svg>
