<?xml version="1.0" encoding="utf-8"?>
<!-- Generator: Adobe Illustrator 19.0.1, SVG Export Plug-In . SVG Version: 6.00 Build 0)  -->
<!DOCTYPE svg PUBLIC "-//W3C//DTD SVG 1.1//EN" "http://www.w3.org/Graphics/SVG/1.1/DTD/svg11.dtd">
<svg version="1.1" id="Layer_1" xmlns="http://www.w3.org/2000/svg" xmlns:xlink="http://www.w3.org/1999/xlink" x="0px" y="0px"
	 width="32px" height="32px" viewBox="0 0 32 32" enable-background="new 0 0 32 32" xml:space="preserve">
<path d="M16,21c0,1.7,1.3,3,3,3s3-1.3,3-3s-1.3-3-3-3S16,19.3,16,21z M19,20c0.6,0,1,0.4,1,1s-0.4,1-1,1s-1-0.4-1-1S18.4,20,19,20z"
	/>
<circle cx="16" cy="13" r="2"/>
<path d="M15.1,2.5L2.3,27.7c-0.1,0.2-0.1,0.5-0.1,0.8c0.1,0.3,0.3,0.5,0.5,0.6C6.9,31,11.4,32,16,32s9.1-1,13.2-2.9
	c0.2-0.1,0.4-0.3,0.5-0.6c0.1-0.3,0.1-0.5-0.1-0.8L16.9,2.5C16.6,1.9,15.4,1.9,15.1,2.5z M16,5.2l9.2,18.1C22.3,24.4,19.1,25,16,25
	s-6.3-0.6-9.2-1.7l1.8-3.5C9.1,20.5,10,21,11,21c1.7,0,3-1.3,3-3c0-1.6-1.3-3-3-3L16,5.2z M11,17c0.6,0,1,0.4,1,1s-0.4,1-1,1
	s-1-0.4-1-1S10.4,17,11,17z M16,30c-4,0-7.8-0.8-11.5-2.3l1.3-2.6C9.1,26.3,12.6,27,16,27s6.9-0.7,10.1-1.9l1.3,2.6
	C23.8,29.2,20,30,16,30z"/>
</svg>
