<?xml version="1.0" encoding="utf-8"?>
<!-- Generator: Adobe Illustrator 19.0.1, SVG Export Plug-In . SVG Version: 6.00 Build 0)  -->
<!DOCTYPE svg PUBLIC "-//W3C//DTD SVG 1.1//EN" "http://www.w3.org/Graphics/SVG/1.1/DTD/svg11.dtd">
<svg version="1.1" id="Layer_1" xmlns="http://www.w3.org/2000/svg" xmlns:xlink="http://www.w3.org/1999/xlink" x="0px" y="0px"
	 width="32px" height="32px" viewBox="0 0 32 32" enable-background="new 0 0 32 32" xml:space="preserve">
<path d="M24,32c1.7,0,3-1.3,3-3v-9V1c0-0.6-0.4-1-1-1c-3.9,0-7,3.1-7,7v13c0,0.6,0.4,1,1,1h1v8C21,30.7,22.3,32,24,32z M24,30
	c-0.6,0-1-0.4-1-1v-8h2v8C25,29.6,24.6,30,24,30z M21,7c0-2.4,1.7-4.4,4-4.9V19h-4V7z"/>
<path d="M9,32c1.7,0,3-1.3,3-3V13.2c1.8-1,3-3,3-5.2V6c0-3.3-2.7-6-6-6S3,2.7,3,6v2c0,2.2,1.2,4.1,3,5.2V29C6,30.7,7.3,32,9,32z
	 M10,29c0,0.6-0.4,1-1,1s-1-0.4-1-1V13.9C8.3,14,8.7,14,9,14s0.7,0,1-0.1V29z M5,6c0-2.2,1.8-4,4-4s4,1.8,4,4v2c0,2.2-1.8,4-4,4
	s-4-1.8-4-4V6z"/>
</svg>
