<?xml version="1.0" encoding="utf-8"?>
<!-- Generator: Adobe Illustrator 19.0.1, SVG Export Plug-In . SVG Version: 6.00 Build 0)  -->
<!DOCTYPE svg PUBLIC "-//W3C//DTD SVG 1.1//EN" "http://www.w3.org/Graphics/SVG/1.1/DTD/svg11.dtd">
<svg version="1.1" id="Layer_1" xmlns="http://www.w3.org/2000/svg" xmlns:xlink="http://www.w3.org/1999/xlink" x="0px" y="0px"
	 width="32px" height="32px" viewBox="0 0 32 32" enable-background="new 0 0 32 32" xml:space="preserve">
<path d="M6.6,30.9l2.5-2.5c0.3,0.1,0.6,0.2,0.9,0.2c0.6,0,1.2-0.2,1.7-0.7l16.2-16.2c0.7-0.7,0.9-1.7,0.6-2.6l2.5-2.5
	c1.5-1.5,1.5-4,0-5.5c-1.5-1.5-4-1.5-5.5,0l-2.5,2.5c-0.9-0.3-1.9-0.1-2.6,0.6L4.2,20.4c-0.7,0.7-0.9,1.7-0.6,2.6l-2.5,2.5
	c-1.5,1.5-1.5,4,0,5.5C1.9,31.6,2.9,32,3.9,32S5.8,31.6,6.6,30.9z M26.8,2.5c0.7-0.7,1.9-0.7,2.6,0c0.7,0.7,0.7,1.9,0,2.6l-2.3,2.3
	l-2.6-2.6L26.8,2.5z M5.6,21.8L21.8,5.6c0.1-0.1,0.2-0.1,0.3-0.1s0.2,0,0.3,0.1l4,4c0.2,0.2,0.2,0.4,0,0.6L10.2,26.4
	c-0.2,0.2-0.4,0.2-0.6,0l-4-4C5.4,22.2,5.4,21.9,5.6,21.8z M2.5,29.5c-0.7-0.7-0.7-1.9,0-2.6l2.3-2.3l2.6,2.6l-2.3,2.3
	C4.5,30.2,3.3,30.2,2.5,29.5z"/>
</svg>
