<?xml version="1.0" encoding="utf-8"?>
<!-- Generator: Adobe Illustrator 19.0.1, SVG Export Plug-In . SVG Version: 6.00 Build 0)  -->
<!DOCTYPE svg PUBLIC "-//W3C//DTD SVG 1.1//EN" "http://www.w3.org/Graphics/SVG/1.1/DTD/svg11.dtd">
<svg version="1.1" id="Layer_1" xmlns="http://www.w3.org/2000/svg" xmlns:xlink="http://www.w3.org/1999/xlink" x="0px" y="0px"
	 width="32px" height="32px" viewBox="0 0 32 32" enable-background="new 0 0 32 32" xml:space="preserve">
<path d="M16,7c0.6,0,1-0.4,1-1V1c0-0.6-0.4-1-1-1s-1,0.4-1,1v5C15,6.6,15.4,7,16,7z"/>
<path d="M11,9c0.6,0,1-0.4,1-1V4c0-0.6-0.4-1-1-1s-1,0.4-1,1v4C10,8.6,10.4,9,11,9z"/>
<path d="M21,9c0.6,0,1-0.4,1-1V4c0-0.6-0.4-1-1-1s-1,0.4-1,1v4C20,8.6,20.4,9,21,9z"/>
<path d="M31,11h-2H3H1c-0.6,0-1,0.4-1,1s0.4,1,1,1h1v1c0,5.7,3.4,10.6,8.3,12.8l-2.2,3.7C7.9,31,8,31.6,8.5,31.9C8.6,32,8.8,32,9,32
	c0.3,0,0.7-0.2,0.9-0.5l2.4-4c1.2,0.3,2.4,0.5,3.7,0.5s2.5-0.2,3.7-0.5l2.4,4c0.2,0.3,0.5,0.5,0.9,0.5c0.2,0,0.4,0,0.5-0.1
	c0.5-0.3,0.6-0.9,0.3-1.4l-2.2-3.7C26.6,24.6,30,19.7,30,14v-1h1c0.6,0,1-0.4,1-1S31.6,11,31,11z M28,14c0,6.6-5.4,12-12,12
	S4,20.6,4,14v-1h24V14z"/>
<path d="M14,17h4c0.6,0,1-0.4,1-1s-0.4-1-1-1h-4c-0.6,0-1,0.4-1,1S13.4,17,14,17z"/>
</svg>
