<?xml version="1.0" encoding="utf-8"?>
<!-- Generator: Adobe Illustrator 19.0.1, SVG Export Plug-In . SVG Version: 6.00 Build 0)  -->
<!DOCTYPE svg PUBLIC "-//W3C//DTD SVG 1.1//EN" "http://www.w3.org/Graphics/SVG/1.1/DTD/svg11.dtd">
<svg version="1.1" id="Layer_1" xmlns="http://www.w3.org/2000/svg" xmlns:xlink="http://www.w3.org/1999/xlink" x="0px" y="0px"
	 width="32px" height="32px" viewBox="0 0 32 32" enable-background="new 0 0 32 32" xml:space="preserve">
<path d="M17.7,9.3l-1-1c-0.4-0.4-1-0.4-1.4,0s-0.4,1,0,1.4l1,1c0.2,0.2,0.5,0.3,0.7,0.3s0.5-0.1,0.7-0.3
	C18.1,10.3,18.1,9.7,17.7,9.3z"/>
<path d="M14.7,21.3c-0.4-0.4-1-0.4-1.4,0s-0.4,1,0,1.4l1,1c0.2,0.2,0.5,0.3,0.7,0.3s0.5-0.1,0.7-0.3c0.4-0.4,0.4-1,0-1.4L14.7,21.3z
	"/>
<path d="M19.3,16.3l-1,1c-0.4,0.4-0.4,1,0,1.4c0.2,0.2,0.5,0.3,0.7,0.3s0.5-0.1,0.7-0.3l1-1c0.4-0.4,0.4-1,0-1.4
	S19.7,15.9,19.3,16.3z"/>
<path d="M23,7c-0.6,0-1,0.4-1,1v1c0,0.6,0.4,1,1,1s1-0.4,1-1V8C24,7.4,23.6,7,23,7z"/>
<path d="M8.3,7.3l-1,1c-0.4,0.4-0.4,1,0,1.4C7.5,9.9,7.7,10,8,10s0.5-0.1,0.7-0.3l1-1c0.4-0.4,0.4-1,0-1.4S8.7,6.9,8.3,7.3z"/>
<path d="M14,16v-1c0-0.6-0.4-1-1-1s-1,0.4-1,1v1c0,0.6,0.4,1,1,1S14,16.6,14,16z"/>
<path d="M25,2H7C3.1,2,0,5.1,0,9c0,3.5,2.6,6.4,6,6.9V29c0,0.6,0.4,1,1,1h18c0.6,0,1-0.4,1-1V15.9c3.4-0.5,6-3.4,6-6.9
	C32,5.1,28.9,2,25,2z M25,14c-0.6,0-1,0.4-1,1v13H8V15c0-0.6-0.4-1-1-1c-2.8,0-5-2.2-5-5s2.2-5,5-5h18c2.8,0,5,2.2,5,5
	S27.8,14,25,14z"/>
</svg>
