<?xml version="1.0" encoding="utf-8"?>
<!-- Generator: Adobe Illustrator 19.0.1, SVG Export Plug-In . SVG Version: 6.00 Build 0)  -->
<!DOCTYPE svg PUBLIC "-//W3C//DTD SVG 1.1//EN" "http://www.w3.org/Graphics/SVG/1.1/DTD/svg11.dtd">
<svg version="1.1" id="Layer_1" xmlns="http://www.w3.org/2000/svg" xmlns:xlink="http://www.w3.org/1999/xlink" x="0px" y="0px"
	 width="32px" height="32px" viewBox="0 0 32 32" enable-background="new 0 0 32 32" xml:space="preserve">
<path d="M17.3,11.3l-6,6c-0.4,0.4-0.4,1,0,1.4c0.2,0.2,0.5,0.3,0.7,0.3s0.5-0.1,0.7-0.3l6-6c0.4-0.4,0.4-1,0-1.4
	S17.7,10.9,17.3,11.3z"/>
<path d="M29.9,6.7L26,2.8c-3-3-8-3-11,0L2.4,15.3c-0.4,0.4-0.4,1,0,1.4l4.7,4.7l-4.3,4.3c-0.6,0.6-1,1.5-1,2.4s0.4,1.8,1,2.4
	c0.7,0.7,1.5,1,2.4,1c0.9,0,1.7-0.3,2.4-1l5.1-5.1L29.9,8.1C30.3,7.7,30.3,7.1,29.9,6.7z M6.1,29.1c-0.5,0.5-1.4,0.5-1.9,0
	c-0.3-0.3-0.4-0.6-0.4-1s0.1-0.7,0.4-1l4.3-4.3l1.9,1.9L6.1,29.1z M11.9,23.3L4.6,16L16.4,4.2c2.3-2.3,5.9-2.3,8.2,0l3.2,3.2
	L11.9,23.3z"/>
</svg>
