<?xml version="1.0" encoding="utf-8"?>
<!-- Generator: Adobe Illustrator 19.0.1, SVG Export Plug-In . SVG Version: 6.00 Build 0)  -->
<!DOCTYPE svg PUBLIC "-//W3C//DTD SVG 1.1//EN" "http://www.w3.org/Graphics/SVG/1.1/DTD/svg11.dtd">
<svg version="1.1" id="Layer_1" xmlns="http://www.w3.org/2000/svg" xmlns:xlink="http://www.w3.org/1999/xlink" x="0px" y="0px"
	 width="32px" height="32px" viewBox="0 0 32 32" enable-background="new 0 0 32 32" xml:space="preserve">
<path d="M31.4,11.1c-0.3-0.2-0.8-0.1-1.1,0.1L25.6,15h-1.7c-0.1-1.5-0.4-2.9-1-4.2c-0.2-0.5-0.8-0.7-1.3-0.5
	c-0.5,0.2-0.7,0.8-0.5,1.3c0.5,1.1,0.8,2.2,0.9,3.4h-3c-0.2-2.8-1.3-5.5-3.2-7.6c-0.4-0.4-1-0.5-1.4-0.1c-0.4,0.4-0.5,1-0.1,1.4
	c1.6,1.8,2.5,4,2.7,6.3h-3c-0.2-2.2-1.2-4.6-2.9-7.1c-0.2-0.4-0.7-0.5-1.1-0.4c-5.6,1.8-8.7,7.8-8.9,8.1c-0.1,0.3-0.1,0.6,0,0.9
	c0.1,0.3,3.2,6.3,8.9,8.1c0.1,0,0.2,0,0.3,0c0.3,0,0.6-0.2,0.8-0.4c1.7-2.5,2.7-4.9,2.9-7.1h3c-0.2,2.3-1.2,4.6-2.8,6.3
	c-0.4,0.4-0.3,1,0.1,1.4c0.2,0.2,0.4,0.3,0.7,0.3c0.3,0,0.5-0.1,0.7-0.3c1.9-2.1,3-4.8,3.3-7.7h3c-0.1,0.9-0.3,1.8-0.6,2.7
	c-0.2,0.5,0.1,1.1,0.6,1.3c0.1,0,0.2,0.1,0.3,0.1c0.4,0,0.8-0.3,0.9-0.7c0.4-1.1,0.6-2.2,0.7-3.3h1.7l4.7,3.8
	c0.2,0.1,0.4,0.2,0.6,0.2c0.1,0,0.3,0,0.4-0.1c0.3-0.2,0.6-0.5,0.6-0.9v-8C32,11.6,31.8,11.3,31.4,11.1z M9.9,22.4
	c-3.6-1.5-6-5.1-6.7-6.4c0.8-1.3,3.2-4.9,6.7-6.4C11.3,12,12,14.1,12,16C12,18,11.3,20,9.9,22.4z M30,17.9L27.6,16l2.4-1.9V17.9z"/>
</svg>
