<?xml version="1.0" encoding="utf-8"?>
<!-- Generator: Adobe Illustrator 19.0.1, SVG Export Plug-In . SVG Version: 6.00 Build 0)  -->
<!DOCTYPE svg PUBLIC "-//W3C//DTD SVG 1.1//EN" "http://www.w3.org/Graphics/SVG/1.1/DTD/svg11.dtd">
<svg version="1.1" id="Layer_1" xmlns="http://www.w3.org/2000/svg" xmlns:xlink="http://www.w3.org/1999/xlink" x="0px" y="0px"
	 width="32px" height="32px" viewBox="0 0 32 32" enable-background="new 0 0 32 32" xml:space="preserve">
<path d="M20,1c0-0.6-0.4-1-1-1h-6c-0.6,0-1,0.4-1,1v10.1C9.2,11.6,7,14,7,17v14c0,0.6,0.4,1,1,1h16c0.6,0,1-0.4,1-1V17
	c0-3-2.2-5.4-5-5.9V1z M18,2v2h-4V2H18z M23,25H9v-5h14V25z M9,30v-3h14v3H9z M23,17v1H9v-1c0-2.2,1.8-4,4-4c0.6,0,1-0.4,1-1V6h4v6
	c0,0.6,0.4,1,1,1C21.2,13,23,14.8,23,17z"/>
</svg>
