<?xml version="1.0" encoding="utf-8"?>
<!-- Generator: Adobe Illustrator 19.0.1, SVG Export Plug-In . SVG Version: 6.00 Build 0)  -->
<!DOCTYPE svg PUBLIC "-//W3C//DTD SVG 1.1//EN" "http://www.w3.org/Graphics/SVG/1.1/DTD/svg11.dtd">
<svg version="1.1" id="Layer_1" xmlns="http://www.w3.org/2000/svg" xmlns:xlink="http://www.w3.org/1999/xlink" x="0px" y="0px"
	 width="32px" height="32px" viewBox="0 0 32 32" enable-background="new 0 0 32 32" xml:space="preserve">
<path d="M14,14h1v3h-1c-0.6,0-1,0.4-1,1v5c0,1.7,1.3,3,3,3s3-1.3,3-3v-5c0-0.6-0.4-1-1-1h-1v-3h1c1.1,0,2-0.9,2-2V8c0-0.6-0.4-1-1-1
	s-1,0.4-1,1v4h-1V8c0-0.6-0.4-1-1-1s-1,0.4-1,1v4h-1V8c0-0.6-0.4-1-1-1s-1,0.4-1,1v4C12,13.1,12.9,14,14,14z M17,23c0,0.6-0.4,1-1,1
	s-1-0.4-1-1v-4h2V23z"/>
<path d="M2,32h4h18.9c1.7,0,3.1-1.3,3.1-3V17h2c0.6,0,1-0.4,1-1v-5V6c0-0.6-0.4-1-1-1h-2V3c0-1.7-1.4-3-3.1-3H6H2C1.4,0,1,0.4,1,1
	v30C1,31.6,1.4,32,2,32z M29,15h-1v-3h1V15z M29,7v3h-1V7H29z M26,3v26c0,0.6-0.5,1-1.1,1H7V2h17.9C25.5,2,26,2.4,26,3z M3,2h2v28H3
	V2z"/>
</svg>
