<?xml version="1.0" encoding="utf-8"?>
<!-- Generator: Adobe Illustrator 19.0.1, SVG Export Plug-In . SVG Version: 6.00 Build 0)  -->
<!DOCTYPE svg PUBLIC "-//W3C//DTD SVG 1.1//EN" "http://www.w3.org/Graphics/SVG/1.1/DTD/svg11.dtd">
<svg version="1.1" id="Layer_1" xmlns="http://www.w3.org/2000/svg" xmlns:xlink="http://www.w3.org/1999/xlink" x="0px" y="0px"
	 width="32px" height="32px" viewBox="0 0 32 32" enable-background="new 0 0 32 32" xml:space="preserve">
<path d="M28,14h-4v-1c1.2-0.9,2-2.3,2-4c0-3-2.6-5.4-5.6-5c-1.1-2.5-3.6-4-6.4-4S8.8,1.6,7.6,4C4.6,3.6,2,6,2,9c0,1.6,0.8,3.1,2,4
	v15c0,2.2,1.8,4,4,4h12c2.2,0,4-1.8,4-4v-4h2c1.7,0,3-1.3,3-3v-6C29,14.4,28.6,14,28,14z M7,6c0.3,0,0.6,0.1,0.9,0.2
	c0.3,0.1,0.5,0.1,0.8-0.1C9,6,9.1,5.8,9.2,5.5C9.9,3.4,11.8,2,14,2s4.1,1.4,4.8,3.5C18.9,5.8,19,6,19.3,6.1c0.2,0.1,0.5,0.1,0.8,0.1
	C20.4,6.1,20.7,6,21,6c1.7,0,3,1.3,3,3s-1.3,3-3,3h-8c-0.6,0-1,0.4-1,1v6c0,0.6-0.4,1-1,1s-1-0.4-1-1v-6c0-0.6-0.4-1-1-1H7
	c-1.7,0-3-1.3-3-3S5.3,6,7,6z M22,28c0,1.1-0.9,2-2,2H8c-1.1,0-2-0.9-2-2V13.9C6.3,14,6.7,14,7,14h1v5c0,1.7,1.3,3,3,3s3-1.3,3-3v-5
	h7c0.3,0,0.7,0,1-0.1V28z M27,21c0,0.6-0.4,1-1,1h-2v-6h3V21z"/>
</svg>
