<?xml version="1.0" encoding="utf-8"?>
<!-- Generator: Adobe Illustrator 19.0.1, SVG Export Plug-In . SVG Version: 6.00 Build 0)  -->
<!DOCTYPE svg PUBLIC "-//W3C//DTD SVG 1.1//EN" "http://www.w3.org/Graphics/SVG/1.1/DTD/svg11.dtd">
<svg version="1.1" id="Layer_1" xmlns="http://www.w3.org/2000/svg" xmlns:xlink="http://www.w3.org/1999/xlink" x="0px" y="0px"
	 width="32px" height="32px" viewBox="0 0 32 32" enable-background="new 0 0 32 32" xml:space="preserve">
<path d="M29,3h-5.4l-1.3-2.5C22.2,0.2,21.8,0,21.5,0H10.5c-0.4,0-0.7,0.2-0.9,0.5L8.4,3H3C2.4,3,2,3.4,2,4v4c0,0.6,0.4,1,1,1h2.1
	l0.3,4H5c-0.3,0-0.5,0.1-0.7,0.3C4.1,13.5,4,13.8,4,14.1l1,12C5,26.6,5.5,27,6,27h0.6L7,31.1C7,31.6,7.5,32,8,32h16
	c0.5,0,1-0.4,1-0.9l0.4-4.1H26c0.5,0,1-0.4,1-0.9l1-12c0-0.3-0.1-0.6-0.3-0.8C27.5,13.1,27.3,13,27,13h-0.4l0.3-4H29
	c0.6,0,1-0.4,1-1V4C30,3.4,29.6,3,29,3z M23.1,30H8.9l-0.3-3h14.7L23.1,30z M25.1,25H6.9L6.1,15h19.4c0,0,0,0,0,0c0,0,0,0,0,0h0.4
	L25.1,25z M24.6,13H7.4L7.1,9h17.8L24.6,13z M28,7H4V5h5c0.4,0,0.7-0.2,0.9-0.5L11.2,2h9.7l1.3,2.5C22.3,4.8,22.6,5,23,5h5V7z"/>
<path d="M16,17c-1.7,0-3,1.3-3,3s1.3,3,3,3s3-1.3,3-3S17.7,17,16,17z M16,21c-0.6,0-1-0.4-1-1s0.4-1,1-1s1,0.4,1,1S16.6,21,16,21z"
	/>
</svg>
