<?xml version="1.0" encoding="utf-8"?>
<!-- Generator: Adobe Illustrator 19.0.1, SVG Export Plug-In . SVG Version: 6.00 Build 0)  -->
<!DOCTYPE svg PUBLIC "-//W3C//DTD SVG 1.1//EN" "http://www.w3.org/Graphics/SVG/1.1/DTD/svg11.dtd">
<svg version="1.1" id="Layer_1" xmlns="http://www.w3.org/2000/svg" xmlns:xlink="http://www.w3.org/1999/xlink" x="0px" y="0px"
	 width="32px" height="32px" viewBox="0 0 32 32" enable-background="new 0 0 32 32" xml:space="preserve">
<path d="M3,9v19c0,2.2,1.8,4,4,4h13c2.2,0,4-1.8,4-4V15.9c3.4-0.5,6-3.4,6-6.9c0-3.9-3.1-7-7-7c-3.5,0-6.4,2.6-6.9,6h-5.6L9,0.8
	C8.9,0.3,8.5,0,8,0H3C2.4,0,2,0.4,2,1s0.4,1,1,1h4.2l1.2,6H4C3.4,8,3,8.4,3,9z M20,30H7c-1.1,0-2-0.9-2-2v-7h6.1l0.9,4.2
	c0.1,0.5,0.5,0.8,1,0.8c0.1,0,0.1,0,0.2,0c0.5-0.1,0.9-0.6,0.8-1.2L13.2,21H22v7C22,29.1,21.1,30,20,30z M23,4c2.8,0,5,2.2,5,5
	c0,2.4-1.7,4.4-4,4.9V9c0-0.6-0.4-1-1-1h-4.9C18.6,5.7,20.6,4,23,4z M22,10v9h-9.2l-1.9-9H22z M8.9,10l1.9,9H5v-9H8.9z"/>
</svg>
