<?xml version="1.0" encoding="utf-8"?>
<!-- Generator: Adobe Illustrator 19.0.1, SVG Export Plug-In . SVG Version: 6.00 Build 0)  -->
<!DOCTYPE svg PUBLIC "-//W3C//DTD SVG 1.1//EN" "http://www.w3.org/Graphics/SVG/1.1/DTD/svg11.dtd">
<svg version="1.1" id="Layer_1" xmlns="http://www.w3.org/2000/svg" xmlns:xlink="http://www.w3.org/1999/xlink" x="0px" y="0px"
	 width="32px" height="32px" viewBox="0 0 32 32" enable-background="new 0 0 32 32" xml:space="preserve">
<path d="M29.3,1.4c-0.3,0.1-0.6,0.3-0.7,0.6C28,3.4,26.6,5.5,26,5.9c-0.6-0.5-2-2.5-2.5-3.9c-0.1-0.3-0.4-0.5-0.7-0.6
	c-0.3-0.1-0.7,0-0.9,0.3C20.7,2.8,20,4.4,20,6c0,2.9,2.1,5.4,4.9,5.9c-0.3,1.9-1.7,4-3.6,4.9c-0.1-0.5-0.3-1-0.5-1.4l-2.4-4.9
	C17.9,9.6,17,9,16,9s-1.9,0.6-2.3,1.4l-2.4,4.9c-0.2,0.5-0.4,1-0.5,1.4c-1.9-0.9-3.3-3-3.6-4.9C9.9,11.4,12,8.9,12,6
	c0-1.6-0.7-3.2-1.8-4.3C9.9,1.5,9.6,1.4,9.3,1.4C8.9,1.5,8.7,1.7,8.5,2C8,3.4,6.6,5.5,6,5.9C5.4,5.5,4.1,3.5,3.5,2
	C3.3,1.7,3.1,1.5,2.7,1.4c-0.3-0.1-0.7,0-0.9,0.3C0.7,2.8,0,4.4,0,6c0,3,2.2,5.5,5.1,5.9c0.4,2.8,2.5,5.9,5.4,6.9
	c0,0.6,0.1,1.2,0.3,1.8l2,5.9C11.1,27.4,10,29,10,31c0,0.6,0.4,1,1,1h10c0.6,0,1-0.4,1-1c0-2-1.1-3.6-2.8-4.5l2-5.9
	c0.2-0.6,0.3-1.2,0.3-1.8c2.9-1,5-4.2,5.4-6.9C29.8,11.5,32,9,32,6c0-1.6-0.7-3.2-1.8-4.3C29.9,1.5,29.6,1.4,29.3,1.4z M2,6
	c0-0.6,0.1-1.1,0.4-1.7C3.2,5.9,4.6,8,6,8c1.4,0,2.8-2.1,3.6-3.7C9.9,4.8,10,5.4,10,6c0,2.2-1.8,4-4,4S2,8.2,2,6z M12.2,30
	c0.4-1.2,1.5-2,2.8-2h2c1.3,0,2.4,0.8,2.8,2H12.2z M19.3,20l-2,6c-0.1,0-0.2,0-0.3,0h-2c-0.1,0-0.2,0-0.3,0l-2-6
	c-0.4-1.3-0.3-2.6,0.3-3.8l2.4-4.9c0.2-0.4,0.9-0.4,1.1,0l2.4,4.9C19.6,17.4,19.7,18.8,19.3,20z M26,10c-2.2,0-4-1.8-4-4
	c0-0.6,0.1-1.2,0.4-1.7C23.2,5.9,24.6,8,26,8c1.4,0,2.8-2.1,3.6-3.7C29.9,4.8,30,5.4,30,6C30,8.2,28.2,10,26,10z"/>
</svg>
