<?xml version="1.0" encoding="utf-8"?>
<!-- Generator: Adobe Illustrator 19.0.1, SVG Export Plug-In . SVG Version: 6.00 Build 0)  -->
<!DOCTYPE svg PUBLIC "-//W3C//DTD SVG 1.1//EN" "http://www.w3.org/Graphics/SVG/1.1/DTD/svg11.dtd">
<svg version="1.1" id="Layer_1" xmlns="http://www.w3.org/2000/svg" xmlns:xlink="http://www.w3.org/1999/xlink" x="0px" y="0px"
	 width="32px" height="32px" viewBox="0 0 32 32" enable-background="new 0 0 32 32" xml:space="preserve">
<path d="M20,19h-8c-0.6,0-1,0.4-1,1v3c0,2.8,2.2,5,5,5s5-2.2,5-5v-3C21,19.4,20.6,19,20,19z M19,23c0,1.7-1.3,3-3,3s-3-1.3-3-3v-2h6
	V23z"/>
<path d="M3,32h26c0.6,0,1-0.4,1-1V15c0-0.6-0.4-1-1-1h-1c-2.8,0-5-2.2-5-5V7c0-3.9-3.1-7-7-7S9,3.1,9,7v2c0,2.8-2.2,5-5,5H3
	c-0.6,0-1,0.4-1,1v16C2,31.6,2.4,32,3,32z M16,2c2.8,0,5,2.2,5,5v1H11V7C11,4.2,13.2,2,16,2z M4,16c3.5,0,6.4-2.6,6.9-6h10.1
	c0.5,3.4,3.4,6,6.9,6v14H4V16z"/>
</svg>
