<?xml version="1.0" encoding="utf-8"?>
<!-- Generator: Adobe Illustrator 19.0.1, SVG Export Plug-In . SVG Version: 6.00 Build 0)  -->
<!DOCTYPE svg PUBLIC "-//W3C//DTD SVG 1.1//EN" "http://www.w3.org/Graphics/SVG/1.1/DTD/svg11.dtd">
<svg version="1.1" id="Layer_1" xmlns="http://www.w3.org/2000/svg" xmlns:xlink="http://www.w3.org/1999/xlink" x="0px" y="0px"
	 width="32px" height="32px" viewBox="0 0 32 32" enable-background="new 0 0 32 32" xml:space="preserve">
<path d="M25.5,4.1c-0.6,0-1.2,0.1-1.8,0.2C22.1,1.6,19.2,0,16,0S9.9,1.6,8.2,4.3C7.6,4.2,7,4.1,6.5,4.1C2.9,4.1,0,7,0,10.5
	c0,2.3,1.2,4.3,3,5.5l3.8,15.2C7,31.7,7.4,32,7.8,32h16.4c0.5,0,0.9-0.3,1-0.8L29,16c1.8-1.1,3-3.2,3-5.5C32,7,29.1,4.1,25.5,4.1z
	 M23.4,30h-3.3l0.9-6.9c0.1-0.5-0.3-1-0.9-1.1c-0.5-0.1-1,0.3-1.1,0.9L18.1,30h-4.2L13,22.9c-0.1-0.5-0.6-0.9-1.1-0.9
	c-0.5,0.1-0.9,0.6-0.9,1.1l0.9,6.9H8.6L5.3,16.9C5.7,17,6.1,17,6.5,17c1.2,0,2.4-0.3,3.4-1c1.7,1.5,3.9,2.4,6.1,2.4s4.5-0.9,6.1-2.4
	c1,0.7,2.2,1,3.4,1c0.4,0,0.8,0,1.1-0.1L23.4,30z M25.5,15c-1,0-2-0.4-2.9-1.1c-0.4-0.3-1-0.3-1.4,0.1c-1.4,1.5-3.3,2.3-5.3,2.3
	s-3.9-0.9-5.3-2.3c-0.2-0.2-0.5-0.3-0.7-0.3c-0.2,0-0.5,0.1-0.6,0.2C8.5,14.6,7.5,15,6.5,15C4,15,2,13,2,10.5s2-4.5,4.5-4.5
	c0.6,0,1.2,0.1,1.8,0.4c0.5,0.2,1.1,0,1.3-0.5c1.2-2.5,3.7-4,6.4-4s5.2,1.5,6.4,4c0.2,0.5,0.8,0.7,1.3,0.5c0.6-0.3,1.2-0.4,1.8-0.4
	c2.5,0,4.5,2,4.5,4.5S28,15,25.5,15z"/>
<path d="M25.7,8.3c-0.4-0.4-1-0.4-1.4,0s-0.4,1,0,1.4l1,1c0.2,0.2,0.5,0.3,0.7,0.3s0.5-0.1,0.7-0.3c0.4-0.4,0.4-1,0-1.4L25.7,8.3z"
	/>
<path d="M6.7,9.3c-0.4-0.4-1-0.4-1.4,0s-0.4,1,0,1.4l1,1C6.5,11.9,6.7,12,7,12s0.5-0.1,0.7-0.3c0.4-0.4,0.4-1,0-1.4L6.7,9.3z"/>
<path d="M14.3,5.3l-1,1c-0.4,0.4-0.4,1,0,1.4C13.5,7.9,13.7,8,14,8s0.5-0.1,0.7-0.3l1-1c0.4-0.4,0.4-1,0-1.4S14.7,4.9,14.3,5.3z"/>
<path d="M19,10c-0.6,0-1,0.4-1,1v1c0,0.6,0.4,1,1,1s1-0.4,1-1v-1C20,10.4,19.6,10,19,10z"/>
</svg>
