<?xml version="1.0" encoding="utf-8"?>
<!-- Generator: Adobe Illustrator 19.0.1, SVG Export Plug-In . SVG Version: 6.00 Build 0)  -->
<!DOCTYPE svg PUBLIC "-//W3C//DTD SVG 1.1//EN" "http://www.w3.org/Graphics/SVG/1.1/DTD/svg11.dtd">
<svg version="1.1" id="Layer_1" xmlns="http://www.w3.org/2000/svg" xmlns:xlink="http://www.w3.org/1999/xlink" x="0px" y="0px"
	 width="32px" height="32px" viewBox="0 0 32 32" enable-background="new 0 0 32 32" xml:space="preserve">
<path d="M31.9,11.6c0-0.1-0.1-0.1-0.1-0.2c0,0,0-0.1-0.1-0.1c-0.1-0.1-0.2-0.1-0.3-0.2c0,0,0,0,0,0c0,0,0,0,0,0l-19-8
	C12.3,3,12.1,3,12,3C2.5,3,0,8.6,0,11.9V26c0,0.6,0.4,1,1,1h30c0.6,0,1-0.4,1-1v-3c0-0.6-0.4-1-1-1c-1.7,0-3-1.3-3-3s1.3-3,3-3
	c0.6,0,1-0.4,1-1v-3C32,11.9,32,11.8,31.9,11.6C31.9,11.6,31.9,11.6,31.9,11.6z M11.8,5L26,11h-24C2.5,8.5,4.9,5.1,11.8,5z M26,19
	c0,2.4,1.7,4.4,4,4.9V25H2V13h28v1.1C27.7,14.6,26,16.6,26,19z"/>
<path d="M10,15c-2.2,0-4,1.8-4,4s1.8,4,4,4s4-1.8,4-4S12.2,15,10,15z M10,21c-1.1,0-2-0.9-2-2s0.9-2,2-2s2,0.9,2,2S11.1,21,10,21z"
	/>
<path d="M18.5,16c-1.4,0-2.5,1.1-2.5,2.5s1.1,2.5,2.5,2.5s2.5-1.1,2.5-2.5S19.9,16,18.5,16z M18.5,19c-0.3,0-0.5-0.2-0.5-0.5
	s0.2-0.5,0.5-0.5s0.5,0.2,0.5,0.5S18.8,19,18.5,19z"/>
</svg>
