<?xml version="1.0" encoding="utf-8"?>
<!-- Generator: Adobe Illustrator 19.0.1, SVG Export Plug-In . SVG Version: 6.00 Build 0)  -->
<!DOCTYPE svg PUBLIC "-//W3C//DTD SVG 1.1//EN" "http://www.w3.org/Graphics/SVG/1.1/DTD/svg11.dtd">
<svg version="1.1" id="Layer_1" xmlns="http://www.w3.org/2000/svg" xmlns:xlink="http://www.w3.org/1999/xlink" x="0px" y="0px"
	 width="32px" height="32px" viewBox="0 0 32 32" enable-background="new 0 0 32 32" xml:space="preserve">
<path d="M16,32c7,0,14-1.7,14-5V17c0-3.1-6.4-4.8-13-5v-1.1c1.7-0.4,3-1.8,3-3.5c0-1.7-2.5-5-3.2-5.9c-0.4-0.5-1.2-0.5-1.6,0
	c-0.8,1-3.2,4.3-3.2,5.9c0,1.7,1.3,3.1,3,3.5V12c-6.6,0.2-13,1.9-13,5v10C2,30.3,9,32,16,32z M16,30c-7.4,0-12-1.9-12-3v-7.3
	c2.6,1.5,7.3,2.3,12,2.3s9.4-0.8,12-2.3V27C28,28.1,23.4,30,16,30z M14,7.3c0-0.5,0.9-2.1,2-3.7c1.1,1.5,2,3.1,2,3.7
	C18,8.3,17.1,9,16,9S14,8.3,14,7.3z M15,14v2c0,0.6,0.4,1,1,1s1-0.4,1-1v-2c6.8,0.2,11,2,11,3c0,1.1-4.6,3-12,3S4,18.1,4,17
	C4,16,8.2,14.2,15,14z"/>
</svg>
