<?xml version="1.0" encoding="utf-8"?>
<!-- Generator: Adobe Illustrator 19.0.1, SVG Export Plug-In . SVG Version: 6.00 Build 0)  -->
<!DOCTYPE svg PUBLIC "-//W3C//DTD SVG 1.1//EN" "http://www.w3.org/Graphics/SVG/1.1/DTD/svg11.dtd">
<svg version="1.1" id="Layer_1" xmlns="http://www.w3.org/2000/svg" xmlns:xlink="http://www.w3.org/1999/xlink" x="0px" y="0px"
	 width="32px" height="32px" viewBox="0 0 32 32" enable-background="new 0 0 32 32" xml:space="preserve">
<path d="M31,1.2c-2.6,0-4.5,1-5.7,2.8c-1.2-0.7-2.6-1-4-1c-2,0.1-3.9,1.1-5.1,2.7L0.9,25.2c-1.3,1.6-1.1,3.9,0.3,5.4
	C2,31.4,3,31.8,4.1,31.8c0.9,0,1.8-0.3,2.5-0.9l19.5-15.3c1.6-1.2,2.6-3.1,2.7-5.1c0.1-1.9-0.6-3.8-1.9-5.2c0.9-1.4,2.2-2.1,4.1-2.1
	c0.6,0,1-0.4,1-1S31.6,1.2,31,1.2z M26.8,10.4c-0.1,1.4-0.8,2.8-1.9,3.7l-9.1,7.1l-2.6-2.6c-0.4-0.4-1-0.4-1.4,0s-0.4,1,0,1.4
	l2.4,2.4l-8.8,7c-0.8,0.6-2,0.6-2.7-0.2c-0.7-0.7-0.8-1.9-0.2-2.7l1.6-2l1.3,1.3C5.5,25.9,5.7,26,6,26s0.5-0.1,0.7-0.3
	c0.4-0.4,0.4-1,0-1.4l-1.4-1.4l9.2-11.7l3.1,3.1c0.2,0.2,0.5,0.3,0.7,0.3s0.5-0.1,0.7-0.3c0.4-0.4,0.4-1,0-1.4l-3.3-3.3l2-2.6
	C18.7,5.8,20,5.1,21.4,5c1.4-0.1,2.9,0.4,3.9,1.5C26.3,7.5,26.9,9,26.8,10.4z"/>
</svg>
