<?xml version="1.0" encoding="utf-8"?>
<!-- Generator: Adobe Illustrator 19.2.0, SVG Export Plug-In . SVG Version: 6.00 Build 0)  -->
<!DOCTYPE svg PUBLIC "-//W3C//DTD SVG 1.1//EN" "http://www.w3.org/Graphics/SVG/1.1/DTD/svg11.dtd">
<svg version="1.1" id="Layer_1" xmlns="http://www.w3.org/2000/svg" xmlns:xlink="http://www.w3.org/1999/xlink" x="0px" y="0px"
	 width="48px" height="48px" viewBox="0 0 48 48" enable-background="new 0 0 48 48" xml:space="preserve">
<path fill="#9EDB9E" d="M2,12h9v4c0,0.39062,0.22754,0.74512,0.58203,0.90869C11.71582,16.97021,11.8584,17,12,17
	c0.23438,0,0.46582-0.08252,0.65039-0.24072l7-6C19.87207,10.56934,20,10.29199,20,10s-0.12793-0.56934-0.34961-0.75928l-7-6
	c-0.29492-0.25342-0.71289-0.31104-1.06836-0.14941C11.22754,3.25488,11,3.60938,11,4v4H2C1.44769,8,1,8.44769,1,9v2
	C1,11.55225,1.44769,12,2,12z"/>
<path fill="#4DA34D" d="M38.65039,17.24072c-0.29492-0.25342-0.71289-0.31104-1.06836-0.14941C37.22754,17.25488,37,17.60938,37,18
	v4H2c-0.55231,0-1,0.44769-1,1v2c0,0.55225,0.44769,1,1,1h35v4c0,0.39062,0.22754,0.74512,0.58203,0.90869
	C37.71582,30.97021,37.8584,31,38,31c0.23438,0,0.46582-0.08252,0.65039-0.24072l7-6C45.87207,24.56934,46,24.29199,46,24
	s-0.12793-0.56934-0.34961-0.75928L38.65039,17.24072z"/>
<path fill="#72C472" d="M26.65039,31.23999c-0.29492-0.25342-0.71289-0.31104-1.06836-0.14941
	C25.22754,31.25415,25,31.60864,25,31.99927v4H2c-0.55231,0-1,0.44769-1,1v2c0,0.55225,0.44769,1,1,1h23v4
	c0,0.39062,0.22754,0.74512,0.58203,0.90869C25.71582,44.96948,25.8584,44.99927,26,44.99927
	c0.23438,0,0.46582-0.08252,0.65039-0.24072l7-6C33.87207,38.5686,34,38.29126,34,37.99927s-0.12793-0.56934-0.34961-0.75928
	L26.65039,31.23999z"/>
</svg>
