<?xml version="1.0" encoding="utf-8"?>
<!-- Generator: Adobe Illustrator 19.2.0, SVG Export Plug-In . SVG Version: 6.00 Build 0)  -->
<!DOCTYPE svg PUBLIC "-//W3C//DTD SVG 1.1//EN" "http://www.w3.org/Graphics/SVG/1.1/DTD/svg11.dtd">
<svg version="1.1" id="Layer_1" xmlns="http://www.w3.org/2000/svg" xmlns:xlink="http://www.w3.org/1999/xlink" x="0px" y="0px"
	 width="48px" height="48px" viewBox="0 0 48 48" enable-background="new 0 0 48 48" xml:space="preserve">
<path fill="#335262" d="M24,6c5.54071,0,10.63733,2.49341,14.0119,6.68988l-7.65057-1.02484l-0.53125,3.96484l11.89355,1.59326
	c0.08887,0.01172,0.17773,0.01758,0.26562,0.01758c0.43652,0,0.86328-0.14258,1.21387-0.41064
	c0.42188-0.32178,0.69824-0.79834,0.76855-1.32373L45.56445,3.6123l-3.96484-0.53125l-0.88593,6.61633
	C36.59375,4.86322,30.5556,2,24,2C11.86914,2,2,11.86914,2,24h4C6,14.07471,14.0752,6,24,6z"/>
<circle fill="#43A6DD" cx="24" cy="24" r="7"/>
<path fill="#335262" d="M4.79688,31.16992C4.375,31.4917,4.09863,31.96826,4.02832,32.49365L2.43555,44.3877l3.96484,0.53125
	l0.88593-6.61633C11.40625,43.13678,17.4444,46,24,46c12.13086,0,22-9.86914,22-22h-4c0,9.92529-8.0752,18-18,18
	c-5.54071,0-10.63733-2.49341-14.0119-6.68988l7.65057,1.02484l0.53125-3.96484L6.27637,30.77686
	C5.74707,30.70752,5.21777,30.84766,4.79688,31.16992z"/>
</svg>
