<?xml version="1.0" encoding="utf-8"?>
<!-- Generator: Adobe Illustrator 19.2.0, SVG Export Plug-In . SVG Version: 6.00 Build 0)  -->
<!DOCTYPE svg PUBLIC "-//W3C//DTD SVG 1.1//EN" "http://www.w3.org/Graphics/SVG/1.1/DTD/svg11.dtd">
<svg version="1.1" id="Layer_1" xmlns="http://www.w3.org/2000/svg" xmlns:xlink="http://www.w3.org/1999/xlink" x="0px" y="0px"
	 width="48px" height="48px" viewBox="0 0 48 48" enable-background="new 0 0 48 48" xml:space="preserve">
<path fill="#72C472" d="M24,1C11.31738,1,1,11.31787,1,24s10.31738,23,23,23s23-10.31787,23-23S36.68262,1,24,1z"/>
<path fill="#FFFFFF" d="M32.89062,25.54639C32.7207,25.21094,32.37598,25,32,25h-6V12c0-0.55229-0.44772-1-1-1h-2
	c-0.55228,0-1,0.44771-1,1v13h-6c-0.37598,0-0.7207,0.21094-0.89062,0.54639c-0.1709,0.33496-0.13965,0.73779,0.08203,1.04199l8,11
	C23.37988,37.84668,23.67969,38,24,38s0.62012-0.15332,0.80859-0.41162l8-11C33.03027,26.28418,33.06152,25.88135,32.89062,25.54639
	z"/>
</svg>
