<?xml version="1.0" encoding="utf-8"?>
<!-- Generator: Adobe Illustrator 19.2.0, SVG Export Plug-In . SVG Version: 6.00 Build 0)  -->
<!DOCTYPE svg PUBLIC "-//W3C//DTD SVG 1.1//EN" "http://www.w3.org/Graphics/SVG/1.1/DTD/svg11.dtd">
<svg version="1.1" id="Layer_1" xmlns="http://www.w3.org/2000/svg" xmlns:xlink="http://www.w3.org/1999/xlink" x="0px" y="0px"
	 width="48px" height="48px" viewBox="0 0 48 48" enable-background="new 0 0 48 48" xml:space="preserve">
<path fill="#BADEFC" d="M38.86328,16.04102C37.89014,8.09766,31.08936,2,23,2C14.69971,2,7.84326,8.31836,7.08789,16.51074
	C3.46875,17.74609,1,21.13867,1,25c0,4.96289,4.0376,9,9,9h28c4.9624,0,9-4.03711,9-9
	C47,20.32812,43.42236,16.47656,38.86328,16.04102z"/>
<path fill="#223E49" d="M24.75293,16.3418C24.5625,16.12402,24.28809,16,24,16s-0.5625,0.12402-0.75293,0.3418l-7,8
	c-0.25781,0.29492-0.32031,0.71387-0.15723,1.07129C16.25195,25.77051,16.60742,26,17,26h5v19c0,0.55228,0.44772,1,1,1h2
	c0.55228,0,1-0.44772,1-1V26h5c0.39258,0,0.74805-0.22949,0.91016-0.58691c0.16309-0.35742,0.10059-0.77637-0.15723-1.07129
	L24.75293,16.3418z"/>
</svg>
