<?xml version="1.0" encoding="utf-8"?>
<!-- Generator: Adobe Illustrator 19.2.0, SVG Export Plug-In . SVG Version: 6.00 Build 0)  -->
<!DOCTYPE svg PUBLIC "-//W3C//DTD SVG 1.1//EN" "http://www.w3.org/Graphics/SVG/1.1/DTD/svg11.dtd">
<svg version="1.1" id="Layer_1" xmlns="http://www.w3.org/2000/svg" xmlns:xlink="http://www.w3.org/1999/xlink" x="0px" y="0px"
	 width="48px" height="48px" viewBox="0 0 48 48" enable-background="new 0 0 48 48" xml:space="preserve">
<rect x="2" y="2" fill="#59391F" width="24" height="30"/>
<path fill="#A67C52" d="M26,33H2c-0.55225,0-1-0.44727-1-1V2c0-0.55273,0.44775-1,1-1h24c0.55225,0,1,0.44727,1,1v30
	C27,32.55273,26.55225,33,26,33z M3,31h22V3H3V31z"/>
<path fill="#A67C52" d="M16.58252,11.21875l-14-10.03125C2.27686,0.96875,1.87549,0.93848,1.54297,1.11035
	C1.20947,1.28223,1,1.625,1,2v30c0,0.32324,0.15576,0.62598,0.41895,0.81348l14,10C15.5918,42.9375,15.79541,43,16,43
	c0.15625,0,0.31348-0.03711,0.45752-0.11035C16.79053,42.71777,17,42.375,17,42V12.03125
	C17,11.70898,16.84473,11.40625,16.58252,11.21875z"/>
<path fill="#EFD358" d="M45.61377,17.21094l-9-7c-0.30127-0.23438-0.70996-0.27734-1.05322-0.10938
	C35.21777,10.26953,35,10.61816,35,11v5H22c-0.55228,0-1,0.44772-1,1v2c0,0.55228,0.44772,1,1,1h13v5
	c0,0.38184,0.21777,0.73047,0.56055,0.89844C35.7002,25.9668,35.8501,26,36,26c0.21826,0,0.43506-0.07129,0.61377-0.21094l9-7
	C45.85742,18.59961,46,18.30859,46,18S45.85742,17.40039,45.61377,17.21094z"/>
</svg>
