<?xml version="1.0" encoding="utf-8"?>
<!-- Generator: Adobe Illustrator 19.2.1, SVG Export Plug-In . SVG Version: 6.00 Build 0)  -->
<!DOCTYPE svg PUBLIC "-//W3C//DTD SVG 1.1//EN" "http://www.w3.org/Graphics/SVG/1.1/DTD/svg11.dtd">
<svg version="1.1" id="Layer_1" xmlns="http://www.w3.org/2000/svg" xmlns:xlink="http://www.w3.org/1999/xlink" x="0px" y="0px"
	 width="48px" height="48px" viewBox="0 0 48 48" enable-background="new 0 0 48 48" xml:space="preserve">
<path fill="#8680D8" d="M44.383,29.076C44.259,29.025,44.129,29,44,29c-0.26,0-0.516,0.102-0.707,0.293l-5.586,5.586L6.121,3.293
	c-0.391-0.391-1.024-0.391-1.414,0L3.293,4.707c-0.391,0.391-0.391,1.024,0,1.414l31.586,31.586l-5.586,5.586
	c-0.286,0.286-0.372,0.716-0.217,1.09C29.231,44.756,29.596,45,30,45h14c0.552,0,1-0.448,1-1V30
	C45,29.596,44.756,29.231,44.383,29.076z"/>
<path fill="#ED69AB" d="M44,3H30c-0.404,0-0.769,0.244-0.924,0.617c-0.155,0.374-0.069,0.804,0.217,1.09l5.586,5.586L3.293,41.879
	c-0.391,0.391-0.391,1.024,0,1.414l1.414,1.414c0.391,0.391,1.024,0.391,1.414,0l31.586-31.586l5.586,5.586
	C43.484,18.898,43.74,19,44,19c0.129,0,0.259-0.025,0.383-0.076C44.756,18.769,45,18.404,45,18V4C45,3.448,44.552,3,44,3z"/>
</svg>
