<?xml version="1.0" encoding="utf-8"?>
<!-- Generator: Adobe Illustrator 19.2.0, SVG Export Plug-In . SVG Version: 6.00 Build 0)  -->
<!DOCTYPE svg PUBLIC "-//W3C//DTD SVG 1.1//EN" "http://www.w3.org/Graphics/SVG/1.1/DTD/svg11.dtd">
<svg version="1.1" id="Layer_1" xmlns="http://www.w3.org/2000/svg" xmlns:xlink="http://www.w3.org/1999/xlink" x="0px" y="0px"
	 width="48px" height="48px" viewBox="0 0 48 48" enable-background="new 0 0 48 48" xml:space="preserve">
<rect x="22" y="6" fill="#E86C60" width="4" height="36"/>
<path fill="#335262" d="M39.65039,17.24072c-0.29492-0.25342-0.71289-0.31104-1.06836-0.14941C38.22754,17.25488,38,17.60938,38,18
	v4h-7c-0.55228,0-1,0.44772-1,1v2c0,0.55228,0.44772,1,1,1h7v4c0,0.39062,0.22754,0.74512,0.58203,0.90869
	C38.71582,30.97021,38.8584,31,39,31c0.23438,0,0.46582-0.08252,0.65039-0.24072l7-6C46.87207,24.56934,47,24.29199,47,24
	s-0.12793-0.56934-0.34961-0.75928L39.65039,17.24072z"/>
<path fill="#335262" d="M10,18c0-0.39062-0.22754-0.74512-0.58203-0.90869c-0.35547-0.16162-0.77344-0.104-1.06836,0.14941l-7,6
	C1.12793,23.43066,1,23.70801,1,24s0.12793,0.56934,0.34961,0.75928l7,6C8.53418,30.91748,8.76562,31,9,31
	c0.1416,0,0.28418-0.02979,0.41797-0.09131C9.77246,30.74512,10,30.39062,10,30v-4h7c0.55228,0,1-0.44772,1-1v-2
	c0-0.55228-0.44772-1-1-1h-7V18z"/>
</svg>
