<?xml version="1.0" encoding="utf-8"?>
<!-- Generator: Adobe Illustrator 19.2.0, SVG Export Plug-In . SVG Version: 6.00 Build 0)  -->
<!DOCTYPE svg PUBLIC "-//W3C//DTD SVG 1.1//EN" "http://www.w3.org/Graphics/SVG/1.1/DTD/svg11.dtd">
<svg version="1.1" id="Layer_1" xmlns="http://www.w3.org/2000/svg" xmlns:xlink="http://www.w3.org/1999/xlink" x="0px" y="0px"
	 width="48px" height="48px" viewBox="0 0 48 48" enable-background="new 0 0 48 48" xml:space="preserve">
<polygon fill="#59391F" points="40,13 46,28 46,37 2,37 2,28 8,13 "/>
<path fill="#A67C52" d="M46.92871,27.62891l-0.00726-0.01813v-0.00012l-5.99274-14.98175C40.77637,12.24902,40.40918,12,40,12H8
	c-0.40918,0-0.77637,0.24902-0.92871,0.62891L1.07855,27.61066v0.00012l-0.00726,0.01813C1.02441,27.74707,1,27.87305,1,28v9v6
	c0,1.10455,0.89545,2,2,2h42c1.10455,0,2-0.89545,2-2v-6v-9C47,27.87305,46.97559,27.74707,46.92871,27.62891z M8.67676,14h30.64648
	l5.19983,13H32c-0.55231,0-1,0.44769-1,1v4H17v-4c0-0.55231-0.44769-1-1-1H3.47693L8.67676,14z"/>
<path fill="#EA9860" d="M30.75879,19.65039l-6,7c-0.39885,0.46532-1.11873,0.46532-1.51758,0l-6-7
	c-0.25488-0.2959-0.3125-0.71387-0.14941-1.06836S17.60938,18,18,18h4V4c0-0.55228,0.44772-1,1-1h2c0.55228,0,1,0.44772,1,1v14h4
	c0.39062,0,0.74512,0.22754,0.9082,0.58203S31.01367,19.35449,30.75879,19.65039z"/>
</svg>
