<?xml version="1.0" encoding="utf-8"?>
<!-- Generator: Adobe Illustrator 19.2.1, SVG Export Plug-In . SVG Version: 6.00 Build 0)  -->
<!DOCTYPE svg PUBLIC "-//W3C//DTD SVG 1.1//EN" "http://www.w3.org/Graphics/SVG/1.1/DTD/svg11.dtd">
<svg version="1.1" id="Layer_1" xmlns="http://www.w3.org/2000/svg" xmlns:xlink="http://www.w3.org/1999/xlink" x="0px" y="0px"
	 width="48px" height="48px" viewBox="0 0 48 48" enable-background="new 0 0 48 48" xml:space="preserve">
<path fill="#B3B3B3" d="M46,7H2C1.448,7,1,6.552,1,6s0.448-1,1-1h44c0.552,0,1,0.448,1,1S46.552,7,46,7z"/>
<path fill="#B3B3B3" d="M46,43H2c-0.552,0-1-0.448-1-1s0.448-1,1-1h44c0.552,0,1,0.448,1,1S46.552,43,46,43z"/>
<path fill="#B3B3B3" d="M16,31H2c-0.552,0-1-0.448-1-1s0.448-1,1-1h14c0.552,0,1,0.448,1,1S16.552,31,16,31z"/>
<path fill="#B3B3B3" d="M16,19H2c-0.552,0-1-0.448-1-1s0.448-1,1-1h14c0.552,0,1,0.448,1,1S16.552,19,16,19z"/>
<path fill="#72C472" d="M46.633,23.226l-11-9c-0.3-0.245-0.713-0.295-1.062-0.13C34.223,14.262,34,14.614,34,15v7H22
	c-0.552,0-1,0.448-1,1v2c0,0.552,0.448,1,1,1h12v7c0,0.386,0.223,0.738,0.572,0.904c0.349,0.165,0.762,0.115,1.062-0.13l11-9
	C46.865,24.584,47,24.3,47,24S46.865,23.416,46.633,23.226z"/>
</svg>
