<?xml version="1.0" encoding="utf-8"?>
<!-- Generator: Adobe Illustrator 19.2.0, SVG Export Plug-In . SVG Version: 6.00 Build 0)  -->
<!DOCTYPE svg PUBLIC "-//W3C//DTD SVG 1.1//EN" "http://www.w3.org/Graphics/SVG/1.1/DTD/svg11.dtd">
<svg version="1.1" id="Layer_1" xmlns="http://www.w3.org/2000/svg" xmlns:xlink="http://www.w3.org/1999/xlink" x="0px" y="0px"
	 width="48px" height="48px" viewBox="0 0 48 48" enable-background="new 0 0 48 48" xml:space="preserve">
<polygon fill="#1A3138" points="39,15 46,30 40,40 8,41 2,30 9,15 "/>
<path fill="#335262" d="M8,42c-0.36523,0-0.70215-0.19922-0.87793-0.52148l-6-11c-0.15234-0.27832-0.16309-0.61328-0.02832-0.90137
	l7-15C8.25781,14.22461,8.61133,14,9,14h30c0.38867,0,0.74219,0.22461,0.90625,0.57715l7,15
	c0.14062,0.30078,0.12207,0.65234-0.04883,0.9375l-6,10c-0.1748,0.29199-0.48633,0.47461-0.82617,0.48438l-32,1
	C8.02051,42,8.01074,42,8,42z M3.12012,29.96484l5.46289,10.0166l30.83984-0.96387l5.44629-9.07617L38.36328,16H9.63672
	L3.12012,29.96484z"/>
<path fill="#5A7A84" d="M46,29H2c-0.55273,0-1,0.44727-1,1v16c0,0.55273,0.44727,1,1,1h44c0.55273,0,1-0.44727,1-1V30
	C47,29.44727,46.55273,29,46,29z"/>
<path fill="#EFD358" d="M29,39H19c-0.55273,0-1-0.44727-1-1s0.44727-1,1-1h10c0.55273,0,1,0.44727,1,1S29.55273,39,29,39z"/>
<path fill="#BADEFC" d="M30.75879,8.34961l-6-7c-0.39885-0.46532-1.11873-0.46532-1.51758,0l-6,7
	c-0.25488,0.2959-0.3125,0.71387-0.14941,1.06836S17.60938,10,18,10h4v13c0,0.55228,0.44772,1,1,1h2c0.55228,0,1-0.44772,1-1V10h4
	c0.39062,0,0.74512-0.22754,0.9082-0.58203S31.01367,8.64551,30.75879,8.34961z"/>
</svg>
