<?xml version="1.0" encoding="utf-8"?>
<!-- Generator: Adobe Illustrator 19.2.1, SVG Export Plug-In . SVG Version: 6.00 Build 0)  -->
<!DOCTYPE svg PUBLIC "-//W3C//DTD SVG 1.1//EN" "http://www.w3.org/Graphics/SVG/1.1/DTD/svg11.dtd">
<svg version="1.1" id="Layer_1" xmlns="http://www.w3.org/2000/svg" xmlns:xlink="http://www.w3.org/1999/xlink" x="0px" y="0px"
	 width="48px" height="48px" viewBox="0 0 48 48" enable-background="new 0 0 48 48" xml:space="preserve">
<path fill="#B3B3B3" d="M2,7h44c0.552,0,1-0.448,1-1s-0.448-1-1-1H2C1.448,5,1,5.448,1,6S1.448,7,2,7z"/>
<path fill="#B3B3B3" d="M2,43h44c0.552,0,1-0.448,1-1s-0.448-1-1-1H2c-0.552,0-1,0.448-1,1S1.448,43,2,43z"/>
<path fill="#B3B3B3" d="M32,31h14c0.552,0,1-0.448,1-1s-0.448-1-1-1H32c-0.552,0-1,0.448-1,1S31.448,31,32,31z"/>
<path fill="#B3B3B3" d="M32,19h14c0.552,0,1-0.448,1-1s-0.448-1-1-1H32c-0.552,0-1,0.448-1,1S31.448,19,32,19z"/>
<path fill="#72C472" d="M1.367,23.226l11-9c0.3-0.245,0.713-0.295,1.062-0.13C13.777,14.262,14,14.614,14,15v7h12
	c0.552,0,1,0.448,1,1v2c0,0.552-0.448,1-1,1H14v7c0,0.386-0.223,0.738-0.572,0.904c-0.349,0.165-0.762,0.115-1.062-0.13l-11-9
	C1.135,24.584,1,24.3,1,24S1.135,23.416,1.367,23.226z"/>
</svg>
