<?xml version="1.0" encoding="utf-8"?>
<!-- Generator: Adobe Illustrator 19.2.0, SVG Export Plug-In . SVG Version: 6.00 Build 0)  -->
<!DOCTYPE svg PUBLIC "-//W3C//DTD SVG 1.1//EN" "http://www.w3.org/Graphics/SVG/1.1/DTD/svg11.dtd">
<svg version="1.1" id="Layer_1" xmlns="http://www.w3.org/2000/svg" xmlns:xlink="http://www.w3.org/1999/xlink" x="0px" y="0px"
	 width="48px" height="48px" viewBox="0 0 48 48" enable-background="new 0 0 48 48" xml:space="preserve">
<path fill="#72C472" d="M26,41V18.82849l6.58594,6.58557l2.82812-2.82812l-10-10c-0.78097-0.78096-2.04716-0.78096-2.82812,0l-10,10
	l2.82812,2.82812L22,18.82849V41c0,0.55228,0.44772,1,1,1h2C25.55228,42,26,41.55228,26,41z"/>
<path fill="#B3B3B3" d="M10,7h28c0.55225,0,1-0.44775,1-1s-0.44775-1-1-1H10C9.44775,5,9,5.44775,9,6S9.44775,7,10,7z"/>
</svg>
