<?xml version="1.0" encoding="utf-8"?>
<!-- Generator: Adobe Illustrator 19.2.0, SVG Export Plug-In . SVG Version: 6.00 Build 0)  -->
<!DOCTYPE svg PUBLIC "-//W3C//DTD SVG 1.1//EN" "http://www.w3.org/Graphics/SVG/1.1/DTD/svg11.dtd">
<svg version="1.1" id="Layer_1" xmlns="http://www.w3.org/2000/svg" xmlns:xlink="http://www.w3.org/1999/xlink" x="0px" y="0px"
	 width="48px" height="48px" viewBox="0 0 48 48" enable-background="new 0 0 48 48" xml:space="preserve">
<path fill="#B3B3B3" d="M46,9H16c-0.29199,0-0.56934,0.12744-0.75879,0.34912l-12,14c-0.32129,0.37451-0.32129,0.92725,0,1.30176
	l12,14C15.43066,38.87256,15.70801,39,16,39h30c0.55273,0,1-0.44775,1-1V10C47,9.44775,46.55273,9,46,9z"/>
<path fill="#FFFFFF" d="M32,29c-0.25586,0-0.51172-0.09766-0.70703-0.29297l-8-8c-0.39062-0.39062-0.39062-1.02344,0-1.41406
	s1.02344-0.39062,1.41406,0l8,8c0.39062,0.39062,0.39062,1.02344,0,1.41406C32.51172,28.90234,32.25586,29,32,29z"/>
<path fill="#FFFFFF" d="M24,29c-0.25586,0-0.51172-0.09766-0.70703-0.29297c-0.39062-0.39062-0.39062-1.02344,0-1.41406l8-8
	c0.39062-0.39062,1.02344-0.39062,1.41406,0s0.39062,1.02344,0,1.41406l-8,8C24.51172,28.90234,24.25586,29,24,29z"/>
</svg>
