<?xml version="1.0" encoding="utf-8"?>
<!-- Generator: Adobe Illustrator 19.2.0, SVG Export Plug-In . SVG Version: 6.00 Build 0)  -->
<!DOCTYPE svg PUBLIC "-//W3C//DTD SVG 1.1//EN" "http://www.w3.org/Graphics/SVG/1.1/DTD/svg11.dtd">
<svg version="1.1" id="Layer_1" xmlns="http://www.w3.org/2000/svg" xmlns:xlink="http://www.w3.org/1999/xlink" x="0px" y="0px"
	 width="48px" height="48px" viewBox="0 0 48 48" enable-background="new 0 0 48 48" xml:space="preserve">
<path fill="#9BCED3" d="M24.62451,7.21875c-0.30078-0.24121-0.71289-0.28809-1.05762-0.12012C23.22021,7.26562,23,7.61523,23,8
	v13.91913L4.62451,7.21875c-0.30029-0.24121-0.7124-0.28809-1.05762-0.12012C3.22021,7.26562,3,7.61523,3,8v32
	c0,0.38477,0.22021,0.73438,0.56689,0.90137C3.70459,40.96777,3.85254,41,4,41c0.22266,0,0.44385-0.07422,0.62451-0.21875
	L23,26.08087V40c0,0.38477,0.22021,0.73438,0.56689,0.90137C23.70459,40.96777,23.85254,41,24,41
	c0.22266,0,0.44385-0.07422,0.62451-0.21875l20-16C44.86182,24.59082,45,24.30371,45,24s-0.13818-0.59082-0.37549-0.78125
	L24.62451,7.21875z"/>
</svg>
