<?xml version="1.0" encoding="utf-8"?>
<!-- Generator: Adobe Illustrator 19.2.1, SVG Export Plug-In . SVG Version: 6.00 Build 0)  -->
<!DOCTYPE svg PUBLIC "-//W3C//DTD SVG 1.1//EN" "http://www.w3.org/Graphics/SVG/1.1/DTD/svg11.dtd">
<svg version="1.1" id="Layer_1" xmlns="http://www.w3.org/2000/svg" xmlns:xlink="http://www.w3.org/1999/xlink" x="0px" y="0px"
	 width="48px" height="48px" viewBox="0 0 48 48" enable-background="new 0 0 48 48" xml:space="preserve">
<path fill="#B3B3B3" d="M46,41H30c-0.552,0-1-0.448-1-1l0,0c0-0.552,0.448-1,1-1h16c0.552,0,1,0.448,1,1l0,0
	C47,40.552,46.552,41,46,41z"/>
<path fill="#B3B3B3" d="M46,27H30c-0.552,0-1-0.448-1-1v0c0-0.552,0.448-1,1-1h16c0.552,0,1,0.448,1,1v0C47,26.552,46.552,27,46,27z
	"/>
<path fill="#B3B3B3" d="M46,13H30c-0.552,0-1-0.448-1-1v0c0-0.552,0.448-1,1-1h16c0.552,0,1,0.448,1,1v0C47,12.552,46.552,13,46,13z
	"/>
<path fill="#43A6DD" d="M23,38h-7C9.001,38,3.383,31.979,4.055,24.844C4.639,18.626,10.106,14,16.351,14h0.821l-6,6L14,22.828
	l9.414-9.414c0.781-0.781,0.781-2.047,0-2.828L14,1.172L11.172,4l6,6H16C6.91,10-0.434,17.619,0.02,26.806
	C0.444,35.401,7.859,42,16.464,42H23c0.552,0,1-0.448,1-1v-2C24,38.448,23.552,38,23,38z"/>
</svg>
