<?xml version="1.0" encoding="utf-8"?>
<!-- Generator: Adobe Illustrator 19.2.0, SVG Export Plug-In . SVG Version: 6.00 Build 0)  -->
<!DOCTYPE svg PUBLIC "-//W3C//DTD SVG 1.1//EN" "http://www.w3.org/Graphics/SVG/1.1/DTD/svg11.dtd">
<svg version="1.1" id="Layer_1" xmlns="http://www.w3.org/2000/svg" xmlns:xlink="http://www.w3.org/1999/xlink" x="0px" y="0px"
	 width="48px" height="48px" viewBox="0 0 48 48" enable-background="new 0 0 48 48" xml:space="preserve">
<path fill="#EA9860" d="M18.70703,4.70703c0.28613-0.28613,0.37158-0.71582,0.2168-1.08984S18.4043,3,18,3H4
	C3.44772,3,3,3.44772,3,4v14c0,0.4043,0.24365,0.76953,0.61719,0.92383C3.74121,18.97559,3.87109,19,4,19
	c0.26025,0,0.51562-0.10156,0.70703-0.29297l5.58594-5.58594l7.58586,7.58586c0.39053,0.39053,1.02369,0.39053,1.41422,0
	l1.41391-1.41391c0.39053-0.39053,0.39053-1.02369,0-1.41422l-7.58586-7.58586L18.70703,4.70703z"/>
<path fill="#EA9860" d="M44.38281,29.07617c-0.37549-0.15723-0.8042-0.07031-1.08984,0.2168l-5.58594,5.58594l-7.58586-7.58586
	c-0.39053-0.39053-1.02369-0.39053-1.41422,0l-1.41391,1.41391c-0.39053,0.39053-0.39053,1.02369,0,1.41422l7.58586,7.58586
	l-5.58594,5.58594c-0.28613,0.28613-0.37158,0.71582-0.2168,1.08984S29.5957,45,30,45h14c0.55228,0,1-0.44772,1-1V30
	C45,29.5957,44.75635,29.23047,44.38281,29.07617z"/>
</svg>
