<?xml version="1.0" encoding="utf-8"?>
<!-- Generator: Adobe Illustrator 19.2.0, SVG Export Plug-In . SVG Version: 6.00 Build 0)  -->
<!DOCTYPE svg PUBLIC "-//W3C//DTD SVG 1.1//EN" "http://www.w3.org/Graphics/SVG/1.1/DTD/svg11.dtd">
<svg version="1.1" id="Layer_1" xmlns="http://www.w3.org/2000/svg" xmlns:xlink="http://www.w3.org/1999/xlink" x="0px" y="0px"
	 width="48px" height="48px" viewBox="0 0 48 48" enable-background="new 0 0 48 48" xml:space="preserve">
<path fill="#B3B3B3" d="M24,42c-9.92529,0-18-8.0752-18-18S14.07471,6,24,6c5.53674,0,10.63702,2.49341,14.01215,6.68951
	l-7.65131-1.02448l-0.53125,3.96484l11.89404,1.59277c0.09033,0.01172,0.17969,0.01758,0.26807,0.01758
	c0.98682,0,1.84521-0.72949,1.97998-1.73438L45.56445,3.6123l-3.96484-0.53125L40.7135,9.69849C36.59204,4.86426,30.5506,2,24,2
	C11.86914,2,2,11.86914,2,24s9.86914,22,22,22s22-9.86914,22-22h-4C42,33.9248,33.92529,42,24,42z"/>
<path fill="#43A6DD" d="M22,22h-7c-0.55229,0-1,0.44772-1,1v2c0,0.55228,0.44771,1,1,1h9c1.10457,0,2-0.89543,2-2v-9
	c0-0.55229-0.44772-1-1-1h-2c-0.55228,0-1,0.44771-1,1V22z"/>
</svg>
