<?xml version="1.0" encoding="utf-8"?>
<!-- Generator: Adobe Illustrator 19.2.1, SVG Export Plug-In . SVG Version: 6.00 Build 0)  -->
<!DOCTYPE svg PUBLIC "-//W3C//DTD SVG 1.1//EN" "http://www.w3.org/Graphics/SVG/1.1/DTD/svg11.dtd">
<svg version="1.1" id="Layer_1" xmlns="http://www.w3.org/2000/svg" xmlns:xlink="http://www.w3.org/1999/xlink" x="0px" y="0px"
	 width="48px" height="48px" viewBox="0 0 48 48" enable-background="new 0 0 48 48" xml:space="preserve">
<path fill="#223E49" d="M2,1h16c0.404,0,0.77,0.244,0.924,0.617c0.155,0.374,0.069,0.804-0.217,1.09l-6.586,6.586l8.586,8.586
	c0.391,0.391,0.391,1.024,0,1.414l-1.414,1.414c-0.391,0.391-1.024,0.391-1.414,0l-8.586-8.586l-6.586,6.586
	C2.516,18.899,2.26,19,2,19c-0.129,0-0.259-0.025-0.383-0.076C1.243,18.769,1,18.404,1,18V2C1,1.448,1.447,1,2,1z"/>
<path fill="#76B5B5" d="M27,47h18c1.105,0,2-0.895,2-2V27c0-1.105-0.895-2-2-2H27c-1.105,0-2,0.895-2,2v18
	C25,46.105,25.895,47,27,47z"/>
</svg>
