<?xml version="1.0" encoding="utf-8"?>
<!-- Generator: Adobe Illustrator 19.2.0, SVG Export Plug-In . SVG Version: 6.00 Build 0)  -->
<!DOCTYPE svg PUBLIC "-//W3C//DTD SVG 1.1//EN" "http://www.w3.org/Graphics/SVG/1.1/DTD/svg11.dtd">
<svg version="1.1" id="Layer_1" xmlns="http://www.w3.org/2000/svg" xmlns:xlink="http://www.w3.org/1999/xlink" x="0px" y="0px"
	 width="48px" height="48px" viewBox="0 0 48 48" enable-background="new 0 0 48 48" xml:space="preserve">
<path fill="#BADEFC" d="M30,7c-9.37402,0-17,7.62598-17,17s7.62598,17,17,17s17-7.62598,17-17S39.37402,7,30,7z"/>
<path fill="#335262" d="M30.65039,17.24072c-0.29492-0.25342-0.71289-0.31104-1.06836-0.14941C29.22754,17.25488,29,17.60938,29,18
	v4H3c-0.55228,0-1,0.44772-1,1v2c0,0.55228,0.44772,1,1,1h26v4c0,0.39062,0.22754,0.74512,0.58203,0.90869
	C29.71582,30.97021,29.8584,31,30,31c0.23438,0,0.46582-0.08252,0.65039-0.24072l7-6C37.87207,24.56934,38,24.29199,38,24
	s-0.12793-0.56934-0.34961-0.75928L30.65039,17.24072z"/>
</svg>
