<?xml version="1.0" encoding="utf-8"?>
<!-- Generator: Adobe Illustrator 19.2.0, SVG Export Plug-In . SVG Version: 6.00 Build 0)  -->
<!DOCTYPE svg PUBLIC "-//W3C//DTD SVG 1.1//EN" "http://www.w3.org/Graphics/SVG/1.1/DTD/svg11.dtd">
<svg version="1.1" id="Layer_1" xmlns="http://www.w3.org/2000/svg" xmlns:xlink="http://www.w3.org/1999/xlink" x="0px" y="0px"
	 width="48px" height="48px" viewBox="0 0 48 48" enable-background="new 0 0 48 48" xml:space="preserve">
<path fill="#335262" d="M46.65039,23.24072l-7-6c-0.2959-0.25342-0.71191-0.31104-1.06836-0.14941
	C38.22754,17.25488,38,17.60938,38,18v4h-8V5h-4v38h4V26h8v4c0,0.39062,0.22754,0.74512,0.58203,0.90869
	C38.71582,30.97021,38.8584,31,39,31c0.23438,0,0.46582-0.08252,0.65039-0.24072l7-6C46.87207,24.56934,47,24.29199,47,24
	S46.87207,23.43066,46.65039,23.24072z"/>
<path fill="#E86C60" d="M18,22h-8v-4c0-0.39062-0.22754-0.74512-0.58203-0.90869c-0.35547-0.16357-0.77246-0.104-1.06836,0.14941
	l-7,6C1.12793,23.43066,1,23.70801,1,24s0.12793,0.56934,0.34961,0.75928l7,6C8.53418,30.91748,8.76562,31,9,31
	c0.1416,0,0.28418-0.03027,0.41797-0.09131C9.77246,30.74512,10,30.39062,10,30v-4h8v17h4V5h-4V22z"/>
</svg>
