<?xml version="1.0" encoding="utf-8"?>
<!-- Generator: Adobe Illustrator 19.2.0, SVG Export Plug-In . SVG Version: 6.00 Build 0)  -->
<!DOCTYPE svg PUBLIC "-//W3C//DTD SVG 1.1//EN" "http://www.w3.org/Graphics/SVG/1.1/DTD/svg11.dtd">
<svg version="1.1" id="Layer_1" xmlns="http://www.w3.org/2000/svg" xmlns:xlink="http://www.w3.org/1999/xlink" x="0px" y="0px"
	 width="48px" height="48px" viewBox="0 0 48 48" enable-background="new 0 0 48 48" xml:space="preserve">
<path fill="#335262" d="M38,15.17139L35.17139,18l4,4H26V8.82861l4,4L32.82861,10l-7.41455-7.41406
	c-0.78027-0.78125-2.04785-0.78125-2.82812,0L15.17139,10L18,12.82861l4-4V22H8.82861l4-4L10,15.17139l-7.41406,7.41455
	c-0.78125,0.78076-0.78125,2.04736,0,2.82812L10,32.82861L12.82861,30l-4-4H22v13.17139l-4-4L15.17139,38l7.41455,7.41406
	C22.97607,45.80469,23.48828,46,24,46s1.02393-0.19531,1.41406-0.58594L32.82861,38L30,35.17139l-4,4V26h13.17139l-4,4L38,32.82861
	l7.41406-7.41455c0.78125-0.78076,0.78125-2.04736,0-2.82812L38,15.17139z"/>
</svg>
