<?xml version="1.0" encoding="utf-8"?>
<!-- Generator: Adobe Illustrator 19.2.1, SVG Export Plug-In . SVG Version: 6.00 Build 0)  -->
<!DOCTYPE svg PUBLIC "-//W3C//DTD SVG 1.1//EN" "http://www.w3.org/Graphics/SVG/1.1/DTD/svg11.dtd">
<svg version="1.1" id="Layer_1" xmlns="http://www.w3.org/2000/svg" xmlns:xlink="http://www.w3.org/1999/xlink" x="0px" y="0px"
	 width="48px" height="48px" viewBox="0 0 48 48" enable-background="new 0 0 48 48" xml:space="preserve">
<path fill="#B3B3B3" d="M24,42c10.539,0,18.992-9.105,17.906-19.862c-0.862-8.531-7.863-15.387-16.409-16.077
	c-6.106-0.493-11.83,2.057-15.508,6.629l7.65-1.024l0.531,3.965L6.276,17.223c-0.09,0.012-0.18,0.018-0.269,0.018
	c-0.986,0-1.845-0.729-1.979-1.734L2.436,3.612L6.4,3.081l0.886,6.617c4.686-5.496,11.853-8.446,19.428-7.535
	c10.097,1.214,18.149,9.444,19.17,19.562C47.212,34.873,36.881,46,24,46C12.213,46,2.561,36.682,2.024,25.026
	C1.998,24.464,2.464,24,3.026,24h2.003c0.541,0,0.969,0.431,0.997,0.972C6.532,34.447,14.401,42,24,42z"/>
<path fill="#43A6DD" d="M29.879,32.707l-7.293-7.293C22.211,25.039,22,24.53,22,23.999V15c0-0.552,0.448-1,1-1h2
	c0.552,0,1,0.448,1,1v8.172l6.707,6.707c0.391,0.391,0.391,1.024,0,1.414l-1.414,1.414C30.903,33.097,30.269,33.097,29.879,32.707z"
	/>
</svg>
