<?xml version="1.0" encoding="utf-8"?>
<!-- Generator: Adobe Illustrator 19.2.0, SVG Export Plug-In . SVG Version: 6.00 Build 0)  -->
<!DOCTYPE svg PUBLIC "-//W3C//DTD SVG 1.1//EN" "http://www.w3.org/Graphics/SVG/1.1/DTD/svg11.dtd">
<svg version="1.1" id="Layer_1" xmlns="http://www.w3.org/2000/svg" xmlns:xlink="http://www.w3.org/1999/xlink" x="0px" y="0px"
	 width="48px" height="48px" viewBox="0 0 48 48" enable-background="new 0 0 48 48" xml:space="preserve">
<path fill="#72C472" d="M17,11h5v20c0,0.55228,0.44772,1,1,1h2c0.55228,0,1-0.44772,1-1V11h5
	c0.39258,0,0.74805-0.22949,0.91016-0.58691c0.16309-0.35742,0.10059-0.77637-0.15723-1.07129l-7-8
	c-0.3986-0.45554-1.10726-0.45554-1.50586,0l-7,8c-0.25781,0.29492-0.32031,0.71387-0.15723,1.07129
	C16.25195,10.77051,16.60742,11,17,11z"/>
<path fill="#B3B3B3" d="M39,17h-6c-0.55273,0-1,0.44727-1,1s0.44727,1,1,1h5v26H10V19h5c0.55273,0,1-0.44727,1-1s-0.44727-1-1-1H9
	c-0.55273,0-1,0.44727-1,1v28c0,0.55273,0.44727,1,1,1h30c0.55273,0,1-0.44727,1-1V18C40,17.44727,39.55273,17,39,17z"/>
</svg>
