<?xml version="1.0" encoding="utf-8"?>
<!-- Generator: Adobe Illustrator 19.2.0, SVG Export Plug-In . SVG Version: 6.00 Build 0)  -->
<!DOCTYPE svg PUBLIC "-//W3C//DTD SVG 1.1//EN" "http://www.w3.org/Graphics/SVG/1.1/DTD/svg11.dtd">
<svg version="1.1" id="Layer_1" xmlns="http://www.w3.org/2000/svg" xmlns:xlink="http://www.w3.org/1999/xlink" x="0px" y="0px"
	 width="48px" height="48px" viewBox="0 0 48 48" enable-background="new 0 0 48 48" xml:space="preserve">
<path fill="#8680D8" d="M36.75293,11.34131c-0.38086-0.43359-1.125-0.43359-1.50586,0l-7,8
	c-0.25781,0.29541-0.32031,0.71484-0.15723,1.07178C28.25195,20.77051,28.60742,21,29,21h5v9.76416l-8,3.99963V11h5
	c0.39258,0,0.74805-0.22949,0.91016-0.58691c0.16309-0.35693,0.10059-0.77637-0.15723-1.07178l-7-8
	c-0.38086-0.43359-1.125-0.43359-1.50586,0l-7,8c-0.25781,0.29541-0.32031,0.71484-0.15723,1.07178
	C16.25195,10.77051,16.60742,11,17,11h5v26.76379l-8-3.99963V26h5c0.39258,0,0.74805-0.22949,0.91016-0.58691
	c0.16309-0.35693,0.10059-0.77637-0.15723-1.07178l-7-8c-0.38086-0.43359-1.125-0.43359-1.50586,0l-7,8
	c-0.25781,0.29541-0.32031,0.71484-0.15723,1.07178C4.25195,25.77051,4.60742,26,5,26h5v9c0,0.75732,0.42773,1.4502,1.10547,1.78906
	L22,42.23584V45v1h4v-1v-4v-1.76416l10.89453-5.44678C37.57227,33.4502,38,32.75732,38,32V21h5
	c0.39258,0,0.74805-0.22949,0.91016-0.58691c0.16309-0.35693,0.10059-0.77637-0.15723-1.07178L36.75293,11.34131z"/>
</svg>
