<?xml version="1.0" encoding="utf-8"?>
<!-- Generator: Adobe Illustrator 19.2.0, SVG Export Plug-In . SVG Version: 6.00 Build 0)  -->
<!DOCTYPE svg PUBLIC "-//W3C//DTD SVG 1.1//EN" "http://www.w3.org/Graphics/SVG/1.1/DTD/svg11.dtd">
<svg version="1.1" id="Layer_1" xmlns="http://www.w3.org/2000/svg" xmlns:xlink="http://www.w3.org/1999/xlink" x="0px" y="0px"
	 width="48px" height="48px" viewBox="0 0 48 48" enable-background="new 0 0 48 48" xml:space="preserve">
<path fill="#72C472" d="M23.24707,34.6582C23.43749,34.87598,23.71191,35,24,35s0.56249-0.12402,0.75293-0.3418l7-8
	c0.25781-0.29492,0.32031-0.71387,0.15723-1.07129C31.74805,25.22949,31.39258,25,31,25h-5V3c0-0.55228-0.44772-1-1-1h-2
	c-0.55228,0-1,0.44772-1,1v22h-5c-0.39258,0-0.74805,0.22949-0.91016,0.58691c-0.16309,0.35742-0.10059,0.77637,0.15723,1.07129
	L23.24707,34.6582z"/>
<path fill="#B3B3B3" d="M39,17h-6c-0.55273,0-1,0.44727-1,1s0.44727,1,1,1h5v26H10V19h5c0.55273,0,1-0.44727,1-1s-0.44727-1-1-1H9
	c-0.55273,0-1,0.44727-1,1v28c0,0.55273,0.44727,1,1,1h30c0.55273,0,1-0.44727,1-1V18C40,17.44727,39.55273,17,39,17z"/>
</svg>
