<?xml version="1.0" encoding="utf-8"?>
<!-- Generator: Adobe Illustrator 19.2.0, SVG Export Plug-In . SVG Version: 6.00 Build 0)  -->
<!DOCTYPE svg PUBLIC "-//W3C//DTD SVG 1.1//EN" "http://www.w3.org/Graphics/SVG/1.1/DTD/svg11.dtd">
<svg version="1.1" id="Layer_1" xmlns="http://www.w3.org/2000/svg" xmlns:xlink="http://www.w3.org/1999/xlink" x="0px" y="0px"
	 width="48px" height="48px" viewBox="0 0 48 48" enable-background="new 0 0 48 48" xml:space="preserve">
<path fill="#335262" d="M15.41406,15.41406l-2.82812-2.82812l-10,10c-0.78097,0.78097-0.78097,2.04716,0,2.82812l10,10
	l2.82812-2.82812L8.82849,26H25c0.55228,0,1-0.44772,1-1v-2c0-0.55228-0.44772-1-1-1H8.82849L15.41406,15.41406z"/>
<path fill="#9EDB9E" d="M46,7H34c-0.55225,0-1,0.44727-1,1v32c0,0.55273,0.44775,1,1,1h12c0.55225,0,1-0.44727,1-1V8
	C47,7.44727,46.55225,7,46,7z"/>
</svg>
