<?xml version="1.0" encoding="utf-8"?>
<!-- Generator: Adobe Illustrator 19.2.0, SVG Export Plug-In . SVG Version: 6.00 Build 0)  -->
<!DOCTYPE svg PUBLIC "-//W3C//DTD SVG 1.1//EN" "http://www.w3.org/Graphics/SVG/1.1/DTD/svg11.dtd">
<svg version="1.1" id="Layer_1" xmlns="http://www.w3.org/2000/svg" xmlns:xlink="http://www.w3.org/1999/xlink" x="0px" y="0px"
	 width="48px" height="48px" viewBox="0 0 48 48" enable-background="new 0 0 48 48" xml:space="preserve">
<path fill="#EA9860" d="M24,1C11.31738,1,1,11.31787,1,24s10.31738,23,23,23s23-10.31787,23-23S36.68262,1,24,1z"/>
<path fill="#FFFFFF" d="M30.47168,15.11816c-0.32422-0.17432-0.71973-0.15381-1.02637,0.0498l-12,8
	C17.16699,23.35352,17,23.66553,17,24s0.16699,0.64648,0.44531,0.83203l12,8C29.6123,32.94385,29.80566,33,30,33
	c0.16211,0,0.32422-0.03906,0.47168-0.11816C30.79688,32.70752,31,32.36865,31,32V16
	C31,15.63135,30.79688,15.29248,30.47168,15.11816z"/>
</svg>
