<?xml version="1.0" encoding="utf-8"?>
<!-- Generator: Adobe Illustrator 19.2.1, SVG Export Plug-In . SVG Version: 6.00 Build 0)  -->
<!DOCTYPE svg PUBLIC "-//W3C//DTD SVG 1.1//EN" "http://www.w3.org/Graphics/SVG/1.1/DTD/svg11.dtd">
<svg version="1.1" id="Layer_1" xmlns="http://www.w3.org/2000/svg" xmlns:xlink="http://www.w3.org/1999/xlink" x="0px" y="0px"
	 width="48px" height="48px" viewBox="0 0 48 48" enable-background="new 0 0 48 48" xml:space="preserve">
<path fill="#335262" d="M10.121,40.707l4.586-4.586c0.391-0.391,0.391-1.024,0-1.414l-1.414-1.414c-0.391-0.391-1.024-0.391-1.414,0
	l-4.586,4.586l-4.586-4.586c-0.285-0.286-0.715-0.371-1.09-0.217C1.243,33.231,1,33.596,1,34v12c0,0.552,0.447,1,1,1h12
	c0.404,0,0.77-0.244,0.924-0.617c0.155-0.374,0.069-0.804-0.217-1.09L10.121,40.707z"/>
<path fill="#335262" d="M37.879,40.707l-4.586-4.586c-0.391-0.391-0.391-1.024,0-1.414l1.414-1.414c0.391-0.391,1.024-0.391,1.414,0
	l4.586,4.586l4.586-4.586c0.285-0.286,0.715-0.371,1.09-0.217C46.757,33.231,47,33.596,47,34v12c0,0.552-0.447,1-1,1H34
	c-0.404,0-0.77-0.244-0.924-0.617c-0.155-0.374-0.069-0.804,0.217-1.09L37.879,40.707z"/>
<path fill="#335262" d="M10.121,7.293l4.586,4.586c0.391,0.391,0.391,1.024,0,1.414l-1.414,1.414c-0.391,0.391-1.024,0.391-1.414,0
	l-4.586-4.586l-4.586,4.586c-0.285,0.286-0.715,0.371-1.09,0.217C1.243,14.769,1,14.404,1,14V2c0-0.552,0.447-1,1-1h12
	c0.404,0,0.77,0.244,0.924,0.617c0.155,0.374,0.069,0.804-0.217,1.09L10.121,7.293z"/>
<path fill="#335262" d="M37.879,7.293l-4.586,4.586c-0.391,0.391-0.391,1.024,0,1.414l1.414,1.414c0.391,0.391,1.024,0.391,1.414,0
	l4.586-4.586l4.586,4.586c0.285,0.286,0.715,0.371,1.09,0.217C46.757,14.769,47,14.404,47,14V2c0-0.552-0.447-1-1-1H34
	c-0.404,0-0.77,0.244-0.924,0.617c-0.155,0.374-0.069,0.804,0.217,1.09L37.879,7.293z"/>
<circle fill="#76B5B5" cx="24" cy="24" r="9"/>
</svg>
