<?xml version="1.0" encoding="utf-8"?>
<!-- Generator: Adobe Illustrator 19.2.0, SVG Export Plug-In . SVG Version: 6.00 Build 0)  -->
<!DOCTYPE svg PUBLIC "-//W3C//DTD SVG 1.1//EN" "http://www.w3.org/Graphics/SVG/1.1/DTD/svg11.dtd">
<svg version="1.1" id="Layer_1" xmlns="http://www.w3.org/2000/svg" xmlns:xlink="http://www.w3.org/1999/xlink" x="0px" y="0px"
	 width="48px" height="48px" viewBox="0 0 48 48" enable-background="new 0 0 48 48" xml:space="preserve">
<path fill="#43A6DD" d="M44,17H27V8c0-0.37598-0.21094-0.72021-0.54639-0.89111c-0.33447-0.16992-0.7373-0.13867-1.04199,0.08252
	l-22,16C3.15332,23.37939,3,23.68018,3,24s0.15332,0.62061,0.41162,0.80859l22,16C25.58594,40.93555,25.79248,41,26,41
	c0.15479,0,0.31055-0.03613,0.45361-0.10889C26.78906,40.72021,27,40.37598,27,40v-9h17c0.55225,0,1-0.44775,1-1V18
	C45,17.44775,44.55225,17,44,17z"/>
</svg>
