<?xml version="1.0" encoding="utf-8"?>
<!-- Generator: Adobe Illustrator 19.2.0, SVG Export Plug-In . SVG Version: 6.00 Build 0)  -->
<!DOCTYPE svg PUBLIC "-//W3C//DTD SVG 1.1//EN" "http://www.w3.org/Graphics/SVG/1.1/DTD/svg11.dtd">
<svg version="1.1" id="Layer_1" xmlns="http://www.w3.org/2000/svg" xmlns:xlink="http://www.w3.org/1999/xlink" x="0px" y="0px"
	 width="48px" height="48px" viewBox="0 0 48 48" enable-background="new 0 0 48 48" xml:space="preserve">
<rect x="6" y="22" fill="#E86C60" width="36" height="4"/>
<path fill="#335262" d="M18,10h4v7c0,0.55228,0.44772,1,1,1h2c0.55228,0,1-0.44772,1-1v-7h4
	c0.39062,0,0.74512-0.22754,0.90869-0.58203C30.97021,9.28418,31,9.1416,31,9c0-0.23438-0.08252-0.46582-0.24072-0.65039l-6-7
	C24.56934,1.12793,24.29199,1,24,1s-0.56934,0.12793-0.75928,0.34961l-6,7c-0.25342,0.29492-0.31104,0.71289-0.14941,1.06836
	C17.25488,9.77246,17.60938,10,18,10z"/>
<path fill="#335262" d="M30,38h-4v-7c0-0.55228-0.44772-1-1-1h-2c-0.55228,0-1,0.44772-1,1v7h-4
	c-0.39062,0-0.74512,0.22754-0.90869,0.58203c-0.16162,0.35547-0.104,0.77344,0.14941,1.06836l6,7
	C23.43066,46.87207,23.70801,47,24,47s0.56934-0.12793,0.75928-0.34961l6-7C30.91748,39.46582,31,39.23438,31,39
	c0-0.1416-0.02979-0.28418-0.09131-0.41797C30.74512,38.22754,30.39062,38,30,38z"/>
</svg>
