<?xml version="1.0" encoding="utf-8"?>
<!-- Generator: Adobe Illustrator 19.2.0, SVG Export Plug-In . SVG Version: 6.00 Build 0)  -->
<!DOCTYPE svg PUBLIC "-//W3C//DTD SVG 1.1//EN" "http://www.w3.org/Graphics/SVG/1.1/DTD/svg11.dtd">
<svg version="1.1" id="Layer_1" xmlns="http://www.w3.org/2000/svg" xmlns:xlink="http://www.w3.org/1999/xlink" x="0px" y="0px"
	 width="48px" height="48px" viewBox="0 0 48 48" enable-background="new 0 0 48 48" xml:space="preserve">
<path fill="#8680D8" d="M37.6582,16.24756c-0.29395-0.25732-0.71484-0.31982-1.07129-0.1582C36.22949,16.25146,36,16.60742,36,17v5
	H22.82812l-9.41443-9.41443C13.03876,12.21064,12.53024,12,12,12H3c-0.55228,0-1,0.44771-1,1v2c0,0.55229,0.44772,1,1,1h8.17188l8,8
	l-8,8H3c-0.55228,0-1,0.44772-1,1v2c0,0.55228,0.44772,1,1,1h9c0.53024,0,1.03876-0.21064,1.4137-0.58557L22.82812,26H36v5
	c0,0.39258,0.22949,0.74854,0.58691,0.91064C36.71875,31.9707,36.86035,32,37,32c0.2373,0,0.47266-0.08496,0.6582-0.24756l8-7
	C45.87598,24.5625,46,24.28857,46,24s-0.12402-0.5625-0.3418-0.75244L37.6582,16.24756z"/>
</svg>
