<?xml version="1.0" encoding="utf-8"?>
<!-- Generator: Adobe Illustrator 19.2.0, SVG Export Plug-In . SVG Version: 6.00 Build 0)  -->
<!DOCTYPE svg PUBLIC "-//W3C//DTD SVG 1.1//EN" "http://www.w3.org/Graphics/SVG/1.1/DTD/svg11.dtd">
<svg version="1.1" id="Layer_1" xmlns="http://www.w3.org/2000/svg" xmlns:xlink="http://www.w3.org/1999/xlink" x="0px" y="0px"
	 width="48px" height="48px" viewBox="0 0 48 48" enable-background="new 0 0 48 48" xml:space="preserve">
<path fill="#EA9860" d="M17.87883,27.29305l-7.58586,7.58586l-5.58594-5.58594c-0.28662-0.28711-0.71631-0.37402-1.08984-0.2168
	C3.24365,29.23047,3,29.5957,3,30v14c0,0.55228,0.44772,1,1,1h14c0.4043,0,0.76904-0.24316,0.92383-0.61719
	s0.06934-0.80371-0.2168-1.08984l-5.58594-5.58594l7.58586-7.58586c0.39053-0.39053,0.39053-1.02369,0-1.41422l-1.41391-1.41391
	C18.90252,26.90252,18.26936,26.90252,17.87883,27.29305z"/>
<path fill="#EA9860" d="M44,3H30c-0.4043,0-0.76904,0.24316-0.92383,0.61719s-0.06934,0.80371,0.2168,1.08984l5.58594,5.58594
	l-7.58586,7.58586c-0.39053,0.39053-0.39053,1.02369,0,1.41422l1.41391,1.41391c0.39053,0.39053,1.02369,0.39053,1.41422,0
	l7.58586-7.58586l5.58594,5.58594C43.48438,18.89844,43.73975,19,44,19c0.12891,0,0.25879-0.02441,0.38281-0.07617
	C44.75635,18.76953,45,18.4043,45,18V4C45,3.44772,44.55228,3,44,3z"/>
</svg>
