<?xml version="1.0" encoding="utf-8"?>
<!-- Generator: Adobe Illustrator 19.2.0, SVG Export Plug-In . SVG Version: 6.00 Build 0)  -->
<!DOCTYPE svg PUBLIC "-//W3C//DTD SVG 1.1//EN" "http://www.w3.org/Graphics/SVG/1.1/DTD/svg11.dtd">
<svg version="1.1" id="Layer_1" xmlns="http://www.w3.org/2000/svg" xmlns:xlink="http://www.w3.org/1999/xlink" x="0px" y="0px"
	 width="48px" height="48px" viewBox="0 0 48 48" enable-background="new 0 0 48 48" xml:space="preserve">
<path fill="#72C472" d="M22,15v22.17151l-6.58594-6.58557l-2.82812,2.82812l10,10C22.97607,43.80469,23.48828,44,24,44
	s1.02393-0.19531,1.41406-0.58594l10-10l-2.82812-2.82812L26,37.17151V15c0-0.55229-0.44772-1-1-1h-2C22.44772,14,22,14.44771,22,15
	z"/>
<path fill="#B3B3B3" d="M10,7h28c0.55225,0,1-0.44775,1-1s-0.44775-1-1-1H10C9.44775,5,9,5.44775,9,6S9.44775,7,10,7z"/>
</svg>
