<?xml version="1.0" encoding="utf-8"?>
<!-- Generator: Adobe Illustrator 19.2.0, SVG Export Plug-In . SVG Version: 6.00 Build 0)  -->
<!DOCTYPE svg PUBLIC "-//W3C//DTD SVG 1.1//EN" "http://www.w3.org/Graphics/SVG/1.1/DTD/svg11.dtd">
<svg version="1.1" id="Layer_1" xmlns="http://www.w3.org/2000/svg" xmlns:xlink="http://www.w3.org/1999/xlink" x="0px" y="0px"
	 width="48px" height="48px" viewBox="0 0 48 48" enable-background="new 0 0 48 48" xml:space="preserve">
<path fill="#EA9860" d="M45,1H3C1.89543,1,1,1.89543,1,3v42c0,1.10457,0.89543,2,2,2h42c1.10457,0,2-0.89543,2-2V3
	C47,1.89543,46.10457,1,45,1z"/>
<path fill="#FFFFFF" d="M24.83203,17.44531c-0.37109-0.55664-1.29297-0.55664-1.66406,0l-8,12
	c-0.20459,0.30664-0.22363,0.70117-0.0498,1.02637C15.29248,30.79688,15.63135,31,16,31h16
	c0.36865,0,0.70752-0.20312,0.88184-0.52832c0.17383-0.3252,0.15479-0.71973-0.0498-1.02637L24.83203,17.44531z"/>
</svg>
