<?xml version="1.0" encoding="utf-8"?>
<!-- Generator: Adobe Illustrator 19.2.1, SVG Export Plug-In . SVG Version: 6.00 Build 0)  -->
<!DOCTYPE svg PUBLIC "-//W3C//DTD SVG 1.1//EN" "http://www.w3.org/Graphics/SVG/1.1/DTD/svg11.dtd">
<svg version="1.1" id="Layer_1" xmlns="http://www.w3.org/2000/svg" xmlns:xlink="http://www.w3.org/1999/xlink" x="0px" y="0px"
	 width="48px" height="48px" viewBox="0 0 48 48" enable-background="new 0 0 48 48" xml:space="preserve">
<path fill="#BFDEE0" d="M44,47H4c-0.308,0-0.599-0.142-0.788-0.385s-0.257-0.559-0.182-0.858l6-24C9.141,21.312,9.541,21,10,21h28
	c0.459,0,0.859,0.312,0.97,0.757l6,24c0.075,0.299,0.007,0.615-0.182,0.858S44.308,47,44,47z"/>
<path fill="#335262" d="M24,1c-0.001,0-0.002,0-0.003,0l0,0c-0.134,0-0.262,0.027-0.378,0.075c-0.119,0.049-0.23,0.122-0.326,0.218
	l-8,8c-0.391,0.391-0.391,1.023,0,1.414s1.023,0.391,1.414,0L23,4.414V34c0,0.552,0.448,1,1,1s1-0.448,1-1V4.414l6.293,6.293
	c0.391,0.391,1.023,0.391,1.414,0s0.391-1.023,0-1.414l-8-8c-0.096-0.096-0.208-0.169-0.326-0.218C24.265,1.027,24.137,1,24.003,1
	l0,0C24.002,1,24.001,1,24,1z"/>
</svg>
