<?xml version="1.0" encoding="utf-8"?>
<!-- Generator: Adobe Illustrator 19.2.1, SVG Export Plug-In . SVG Version: 6.00 Build 0)  -->
<!DOCTYPE svg PUBLIC "-//W3C//DTD SVG 1.1//EN" "http://www.w3.org/Graphics/SVG/1.1/DTD/svg11.dtd">
<svg version="1.1" id="Layer_1" xmlns="http://www.w3.org/2000/svg" xmlns:xlink="http://www.w3.org/1999/xlink" x="0px" y="0px"
	 width="48px" height="48px" viewBox="0 0 48 48" enable-background="new 0 0 48 48" xml:space="preserve">
<path fill="#ED69AB" d="M16,16h15c0.552,0,1-0.448,1-1v-2c0-0.552-0.448-1-1-1H16V5c0-0.372-0.207-0.713-0.536-0.886
	c-0.328-0.173-0.727-0.148-1.033,0.063l-13,9C1.161,13.365,1,13.672,1,14s0.161,0.635,0.431,0.822l13,9
	c0.311,0.215,0.71,0.234,1.033,0.063C15.793,23.713,16,23.372,16,23V16z"/>
<path fill="#ED69AB" d="M32,36H17c-0.552,0-1-0.448-1-1v-2c0-0.552,0.448-1,1-1h15v-7c0-0.372,0.207-0.713,0.536-0.886
	c0.328-0.173,0.727-0.148,1.033,0.063l13,9C46.839,33.365,47,33.672,47,34s-0.161,0.635-0.431,0.822l-13,9
	c-0.311,0.215-0.71,0.234-1.033,0.063C32.207,43.713,32,43.372,32,43V36z"/>
</svg>
