<?xml version="1.0" encoding="utf-8"?>
<!-- Generator: Adobe Illustrator 19.2.0, SVG Export Plug-In . SVG Version: 6.00 Build 0)  -->
<!DOCTYPE svg PUBLIC "-//W3C//DTD SVG 1.1//EN" "http://www.w3.org/Graphics/SVG/1.1/DTD/svg11.dtd">
<svg version="1.1" id="Layer_1" xmlns="http://www.w3.org/2000/svg" xmlns:xlink="http://www.w3.org/1999/xlink" x="0px" y="0px"
	 width="48px" height="48px" viewBox="0 0 48 48" enable-background="new 0 0 48 48" xml:space="preserve">
<polygon fill="#444444" points="39.00026,15 46.00026,30 40.00026,40 8.00025,41 2.00025,30 9.00025,15 "/>
<path fill="#B3B3B3" d="M8.00025,42c-0.36523,0-0.70215-0.19922-0.87793-0.52148l-6-11
	C0.96998,30.2002,0.95924,29.86523,1.094,29.57715l7-15C8.25807,14.22461,8.61158,14,9.00025,14h30
	c0.38867,0,0.74219,0.22461,0.90625,0.57715l7,15c0.14062,0.30078,0.12207,0.65234-0.04883,0.9375l-6,10
	c-0.1748,0.29199-0.48633,0.47461-0.82617,0.48438l-32,1C8.02076,42,8.011,42,8.00025,42z M3.12037,29.96484l5.46289,10.0166
	l30.83985-0.96387l5.44629-9.07617L38.36354,16H9.63697L3.12037,29.96484z"/>
<path fill="#B3B3B3" d="M46.00026,29h-44c-0.55273,0-1,0.44727-1,1v16c0,0.55273,0.44727,1,1,1h44c0.55273,0,1-0.44727,1-1V30
	C47.00026,29.44727,46.55299,29,46.00026,29z"/>
<path fill="#43A6DD" d="M30.75904,8.34961l-6-7c-0.39885-0.46532-1.11873-0.46532-1.51758,0l-6,7
	c-0.25488,0.2959-0.3125,0.71387-0.14941,1.06836S17.60963,10,18.00025,10h4v13c0,0.55228,0.44772,1,1,1h2c0.55228,0,1-0.44772,1-1
	V10h4c0.39062,0,0.74512-0.22754,0.9082-0.58203S31.01393,8.64551,30.75904,8.34961z"/>
<circle fill="#E6E6E6" cx="24" cy="38" r="3"/>
</svg>
