<?xml version="1.0" encoding="utf-8"?>
<!-- Generator: Adobe Illustrator 19.2.0, SVG Export Plug-In . SVG Version: 6.00 Build 0)  -->
<!DOCTYPE svg PUBLIC "-//W3C//DTD SVG 1.1//EN" "http://www.w3.org/Graphics/SVG/1.1/DTD/svg11.dtd">
<svg version="1.1" id="Layer_1" xmlns="http://www.w3.org/2000/svg" xmlns:xlink="http://www.w3.org/1999/xlink" x="0px" y="0px"
	 width="48px" height="48px" viewBox="0 0 48 48" enable-background="new 0 0 48 48" xml:space="preserve">
<rect x="20" y="33" fill="#282828" width="8" height="9"/>
<rect x="10" y="41" fill="#444444" width="28" height="2"/>
<path fill="#444444" d="M46.9565,5H1.0435C0.4673,5,0,5.4478,0,6v29c0,0.5522,0.4673,1,1.0435,1h45.913C47.5327,36,48,35.5522,48,35
	V6C48,5.4478,47.5327,5,46.9565,5z"/>
<path fill="#E6E6E6" d="M44,33H4c-0.55228,0-1-0.44772-1-1V9c0-0.55229,0.44772-1,1-1h40c0.55228,0,1,0.44771,1,1v23
	C45,32.55228,44.55228,33,44,33z"/>
<path fill="#43A6DD" d="M17.99963,21H22v7c0,0.55228,0.44772,1,1,1h1.99963c0.55228,0,1-0.44772,1-1v-7h4
	c0.39062,0,0.74512-0.22754,0.90869-0.58203C30.96984,20.28418,30.99963,20.1416,30.99963,20
	c0-0.23438-0.08252-0.46582-0.24072-0.65039l-6-7C24.56897,12.12793,24.29162,12,23.99963,12s-0.56934,0.12793-0.75928,0.34961l-6,7
	c-0.25342,0.29492-0.31104,0.71289-0.14941,1.06836C17.25451,20.77246,17.609,21,17.99963,21z"/>
</svg>
