<?xml version="1.0" encoding="utf-8"?>
<!-- Generator: Adobe Illustrator 19.2.0, SVG Export Plug-In . SVG Version: 6.00 Build 0)  -->
<!DOCTYPE svg PUBLIC "-//W3C//DTD SVG 1.1//EN" "http://www.w3.org/Graphics/SVG/1.1/DTD/svg11.dtd">
<svg version="1.1" id="Layer_1" xmlns="http://www.w3.org/2000/svg" xmlns:xlink="http://www.w3.org/1999/xlink" x="0px" y="0px"
	 width="48px" height="48px" viewBox="0 0 48 48" enable-background="new 0 0 48 48" xml:space="preserve">
<path fill="#DDBE99" d="M44,3H30c-0.4043,0-0.76953,0.24316-0.92383,0.61719c-0.15527,0.37402-0.06934,0.80371,0.2168,1.08984
	l5.58594,5.58594L10.29297,34.87891l-5.58594-5.58594c-0.28613-0.28516-0.71484-0.37207-1.08984-0.2168
	C3.24316,29.23047,3,29.5957,3,30v14c0,0.55273,0.44727,1,1,1h14c0.4043,0,0.76953-0.24316,0.92383-0.61719
	c0.15527-0.37402,0.06934-0.80371-0.2168-1.08984l-5.58594-5.58594l24.58594-24.58594l5.58594,5.58594
	C43.48438,18.89844,43.74023,19,44,19c0.12891,0,0.25879-0.02441,0.38281-0.07617C44.75684,18.76953,45,18.4043,45,18V4
	C45,3.44727,44.55273,3,44,3z"/>
</svg>
