<?xml version="1.0" encoding="utf-8"?>
<!-- Generator: Adobe Illustrator 19.2.1, SVG Export Plug-In . SVG Version: 6.00 Build 0)  -->
<!DOCTYPE svg PUBLIC "-//W3C//DTD SVG 1.1//EN" "http://www.w3.org/Graphics/SVG/1.1/DTD/svg11.dtd">
<svg version="1.1" id="Layer_1" xmlns="http://www.w3.org/2000/svg" xmlns:xlink="http://www.w3.org/1999/xlink" x="0px" y="0px"
	 width="48px" height="48px" viewBox="0 0 48 48" enable-background="new 0 0 48 48" xml:space="preserve">
<path fill="#B3B3B3" d="M47.658,33.247l-8-7c-0.294-0.257-0.715-0.32-1.071-0.157C38.229,26.252,38,26.607,38,27v5
	c-7.171,0-11.745-4.573-16.586-9.414C16.21,17.382,10.829,12,2,12H1c-0.552,0-1,0.448-1,1v2c0,0.552,0.448,1,1,1h1
	c7.171,0,11.745,4.573,16.586,9.414C23.79,30.618,29.171,36,38,36v5c0,0.393,0.229,0.748,0.587,0.91C38.719,41.971,38.86,42,39,42
	c0.237,0,0.473-0.085,0.658-0.247l8-7C47.876,34.562,48,34.288,48,34S47.876,33.437,47.658,33.247z"/>
<path fill="#444444" d="M47.658,13.247l-8-7c-0.294-0.257-0.715-0.32-1.071-0.157C38.229,6.252,38,6.607,38,7v5
	c-8.829,0-14.21,5.382-19.414,10.586C13.745,27.427,9.171,32,2,32H1c-0.552,0-1,0.448-1,1v2c0,0.552,0.448,1,1,1h1
	c8.829,0,14.21-5.382,19.414-10.586C26.255,20.573,30.829,16,38,16v5c0,0.393,0.229,0.748,0.587,0.91C38.719,21.971,38.86,22,39,22
	c0.237,0,0.473-0.085,0.658-0.247l8-7C47.876,14.562,48,14.288,48,14S47.876,13.438,47.658,13.247z"/>
</svg>
