<?xml version="1.0" encoding="utf-8"?>
<!-- Generator: Adobe Illustrator 19.2.0, SVG Export Plug-In . SVG Version: 6.00 Build 0)  -->
<!DOCTYPE svg PUBLIC "-//W3C//DTD SVG 1.1//EN" "http://www.w3.org/Graphics/SVG/1.1/DTD/svg11.dtd">
<svg version="1.1" id="Layer_1" xmlns="http://www.w3.org/2000/svg" xmlns:xlink="http://www.w3.org/1999/xlink" x="0px" y="0px"
	 width="48px" height="48px" viewBox="0 0 48 48" enable-background="new 0 0 48 48" xml:space="preserve">
<path fill="#8680D8" d="M44.58105,13.18652l-14-10c-0.30566-0.21973-0.70508-0.24609-1.03906-0.07617
	C29.20898,3.28223,29,3.625,29,4v8H5c-0.55228,0-1,0.44771-1,1v2c0,0.55229,0.44772,1,1,1h24v8
	c0,0.375,0.20898,0.71777,0.54199,0.88965c0.32799,0.16843,0.73051,0.14522,1.03906-0.07617l14-10
	C44.84375,14.62598,45,14.32324,45,14S44.84375,13.37402,44.58105,13.18652z"/>
<path fill="#8680D8" d="M19,24c0-0.375-0.20898-0.71777-0.54199-0.88965c-0.33496-0.17188-0.73438-0.14258-1.03906,0.07617l-14,10
	C3.15625,33.37402,3,33.67676,3,34s0.15625,0.62598,0.41895,0.81348l14,10c0.3008,0.21583,0.69893,0.24854,1.03906,0.07617
	C18.79102,44.71777,19,44.375,19,44v-8h24c0.55228,0,1-0.44772,1-1v-2c0-0.55228-0.44772-1-1-1H19V24z"/>
</svg>
