<?xml version="1.0" encoding="utf-8"?>
<!-- Generator: Adobe Illustrator 19.2.0, SVG Export Plug-In . SVG Version: 6.00 Build 0)  -->
<!DOCTYPE svg PUBLIC "-//W3C//DTD SVG 1.1//EN" "http://www.w3.org/Graphics/SVG/1.1/DTD/svg11.dtd">
<svg version="1.1" id="Layer_1" xmlns="http://www.w3.org/2000/svg" xmlns:xlink="http://www.w3.org/1999/xlink" x="0px" y="0px"
	 width="48px" height="48px" viewBox="0 0 48 48" enable-background="new 0 0 48 48" xml:space="preserve">
<path fill="#335262" d="M24.625,7.21875c-0.30078-0.24121-0.71387-0.28711-1.05859-0.12012C23.2207,7.26562,23,7.61523,23,8v9H10
	c-0.55273,0-1,0.44727-1,1v12c0,0.55273,0.44727,1,1,1h13v9c0,0.38477,0.2207,0.73438,0.56641,0.90137
	C23.70508,40.96777,23.85254,41,24,41c0.22266,0,0.44434-0.07422,0.625-0.21875l20-16C44.8623,24.59082,45,24.30371,45,24
	s-0.1377-0.59082-0.375-0.78125L24.625,7.21875z"/>
<path fill="#5A7A84" d="M4,17c-0.55273,0-1,0.44727-1,1v12c0,0.55273,0.44727,1,1,1s1-0.44727,1-1V18C5,17.44727,4.55273,17,4,17z"
	/>
</svg>
