<?xml version="1.0" encoding="utf-8"?>
<!-- Generator: Adobe Illustrator 19.2.0, SVG Export Plug-In . SVG Version: 6.00 Build 0)  -->
<!DOCTYPE svg PUBLIC "-//W3C//DTD SVG 1.1//EN" "http://www.w3.org/Graphics/SVG/1.1/DTD/svg11.dtd">
<svg version="1.1" id="Layer_1" xmlns="http://www.w3.org/2000/svg" xmlns:xlink="http://www.w3.org/1999/xlink" x="0px" y="0px"
	 width="48px" height="48px" viewBox="0 0 48 48" enable-background="new 0 0 48 48" xml:space="preserve">
<path fill="#5A7A84" d="M36.59961,17.2002c-0.30176-0.22852-0.70898-0.2627-1.04688-0.09473C35.21387,17.27539,35,17.62109,35,18v4
	h-9v-9h4c0.37891,0,0.72461-0.21387,0.89453-0.55273c0.16895-0.33887,0.13281-0.74414-0.09473-1.04688l-6-8
	c-0.37695-0.50391-1.22266-0.50391-1.59961,0l-6,8c-0.22754,0.30273-0.26367,0.70801-0.09473,1.04688
	C17.27539,12.78613,17.62109,13,18,13h4v9h-9v-4c0-0.37891-0.21387-0.72461-0.55273-0.89453
	c-0.33789-0.16699-0.74414-0.13281-1.04688,0.09473l-8,6C3.14844,23.38867,3,23.68555,3,24s0.14844,0.61133,0.40039,0.7998l8,6
	C11.57617,30.93262,11.78809,31,12,31c0.15234,0,0.30566-0.03516,0.44727-0.10547C12.78613,30.72461,13,30.37891,13,30v-4h9v9h-4
	c-0.37891,0-0.72461,0.21387-0.89453,0.55273c-0.16895,0.33887-0.13281,0.74414,0.09473,1.04688l6,8
	C23.38867,44.85156,23.68555,45,24,45s0.61133-0.14844,0.7998-0.40039l6-8c0.22754-0.30273,0.26367-0.70801,0.09473-1.04688
	C30.72461,35.21387,30.37891,35,30,35h-4v-9h9v4c0,0.37891,0.21387,0.72461,0.55273,0.89453C35.69434,30.96484,35.84766,31,36,31
	c0.21191,0,0.42383-0.06738,0.59961-0.2002l8-6C44.85156,24.61133,45,24.31445,45,24s-0.14844-0.61133-0.40039-0.7998
	L36.59961,17.2002z"/>
</svg>
