<?xml version="1.0" encoding="utf-8"?>
<!-- Generator: Adobe Illustrator 19.2.0, SVG Export Plug-In . SVG Version: 6.00 Build 0)  -->
<!DOCTYPE svg PUBLIC "-//W3C//DTD SVG 1.1//EN" "http://www.w3.org/Graphics/SVG/1.1/DTD/svg11.dtd">
<svg version="1.1" id="Layer_1" xmlns="http://www.w3.org/2000/svg" xmlns:xlink="http://www.w3.org/1999/xlink" x="0px" y="0px"
	 width="48px" height="48px" viewBox="0 0 48 48" enable-background="new 0 0 48 48" xml:space="preserve">
<path fill="#BADEFC" d="M38.86328,14.04102C37.89014,6.09766,31.08936,0,23,0C14.69971,0,7.84326,6.31836,7.08789,14.51074
	C3.46875,15.74609,1,19.13867,1,23c0,4.96289,4.0376,9,9,9h28c4.9624,0,9-4.03711,9-9
	C47,18.32812,43.42236,14.47656,38.86328,14.04102z"/>
<path fill="#223E49" d="M23.24707,47.6582C23.4375,47.87598,23.71191,48,24,48s0.5625-0.12402,0.75293-0.3418l7-8
	c0.25781-0.29492,0.32031-0.71387,0.15723-1.07129C31.74805,38.22949,31.39258,38,31,38h-5V19c0-0.55228-0.44772-1-1-1h-2
	c-0.55228,0-1,0.44772-1,1v19h-5c-0.39258,0-0.74805,0.22949-0.91016,0.58691c-0.16309,0.35742-0.10059,0.77637,0.15723,1.07129
	L23.24707,47.6582z"/>
</svg>
