<?xml version="1.0" encoding="utf-8"?>
<!-- Generator: Adobe Illustrator 19.2.0, SVG Export Plug-In . SVG Version: 6.00 Build 0)  -->
<!DOCTYPE svg PUBLIC "-//W3C//DTD SVG 1.1//EN" "http://www.w3.org/Graphics/SVG/1.1/DTD/svg11.dtd">
<svg version="1.1" id="Layer_1" xmlns="http://www.w3.org/2000/svg" xmlns:xlink="http://www.w3.org/1999/xlink" x="0px" y="0px"
	 width="48px" height="48px" viewBox="0 0 48 48" enable-background="new 0 0 48 48" xml:space="preserve">
<path fill="#E86C60" d="M36.58691,21.91064C36.71875,21.9707,36.86035,22,37,22c0.2373,0,0.47266-0.08496,0.6582-0.24756l8-7
	C45.87598,14.5625,46,14.28857,46,14s-0.12402-0.5625-0.3418-0.75244l-8-7c-0.29492-0.25732-0.71582-0.31982-1.07129-0.1582
	C36.22949,6.25146,36,6.60742,36,7v5h-7.85742c-3.18269,0-6.23502,1.26432-8.48552,3.51482L13.17188,22H3c-0.55228,0-1,0.44772-1,1
	v2c0,0.55228,0.44772,1,1,1h10.17188l6.48518,6.48518C21.90756,34.73568,24.95989,36,28.14258,36H36v5
	c0,0.39258,0.22949,0.74854,0.58691,0.91064C36.71875,41.9707,36.86035,42,37,42c0.2373,0,0.47266-0.08496,0.6582-0.24756l8-7
	C45.87598,34.5625,46,34.28857,46,34s-0.12402-0.5625-0.3418-0.75244l-8-7c-0.29492-0.25781-0.71582-0.32031-1.07129-0.1582
	C36.22949,26.25146,36,26.60742,36,27v5h-7.85869c-2.1214,0-4.1559-0.84272-5.65596-2.34277L16.82812,24l5.65723-5.65723
	C23.9854,16.84272,26.01991,16,28.14131,16H36v5C36,21.39258,36.22949,21.74854,36.58691,21.91064z"/>
</svg>
