<?xml version="1.0" encoding="utf-8"?>
<!-- Generator: Adobe Illustrator 19.2.0, SVG Export Plug-In . SVG Version: 6.00 Build 0)  -->
<!DOCTYPE svg PUBLIC "-//W3C//DTD SVG 1.1//EN" "http://www.w3.org/Graphics/SVG/1.1/DTD/svg11.dtd">
<svg version="1.1" id="Layer_1" xmlns="http://www.w3.org/2000/svg" xmlns:xlink="http://www.w3.org/1999/xlink" x="0px" y="0px"
	 width="48px" height="48px" viewBox="0 0 48 48" enable-background="new 0 0 48 48" xml:space="preserve">
<path fill="#E86C60" d="M21,15.0127V6c0-0.4043-0.24365-0.76953-0.61719-0.92383c-0.37451-0.15625-0.8042-0.07031-1.08984,0.2168
	l-16,16c-0.39062,0.39062-0.39062,1.02344,0,1.41406l16,16c0.28564,0.28613,0.71533,0.37207,1.08984,0.2168
	C20.75635,38.76953,21,38.4043,21,38v-8.99609c13.73047,0.11523,19.00439,2.67969,24.13574,11.49902
	C45.31787,40.81641,45.65039,41,46,41c0.08643,0,0.17383-0.01074,0.26025-0.03418C46.69678,40.84766,47,40.45215,47,40
	C47,18.31836,29.56641,15.22168,21,15.0127z"/>
</svg>
