<?xml version="1.0" encoding="utf-8"?>
<!-- Generator: Adobe Illustrator 19.2.0, SVG Export Plug-In . SVG Version: 6.00 Build 0)  -->
<!DOCTYPE svg PUBLIC "-//W3C//DTD SVG 1.1//EN" "http://www.w3.org/Graphics/SVG/1.1/DTD/svg11.dtd">
<svg version="1.1" id="Layer_1" xmlns="http://www.w3.org/2000/svg" xmlns:xlink="http://www.w3.org/1999/xlink" x="0px" y="0px"
	 width="48px" height="48px" viewBox="0 0 48 48" enable-background="new 0 0 48 48" xml:space="preserve">
<path fill="#444444" d="M16.6001,5.2002c-0.30371-0.22852-0.7085-0.2627-1.04736-0.09473C15.21387,5.27539,15,5.62109,15,6v36
	c0,0.37891,0.21387,0.72461,0.55273,0.89453C15.69434,42.96484,15.84766,43,16,43c0.2124,0,0.42334-0.06738,0.6001-0.2002l24-18
	C40.85205,24.61133,41,24.31445,41,24s-0.14795-0.61133-0.3999-0.7998L16.6001,5.2002z"/>
<path fill="#B3B3B3" d="M10,5C9.44775,5,9,5.44727,9,6v36c0,0.55273,0.44775,1,1,1s1-0.44727,1-1V6C11,5.44727,10.55225,5,10,5z"/>
</svg>
