<?xml version="1.0" encoding="utf-8"?>
<!-- Generator: Adobe Illustrator 19.2.0, SVG Export Plug-In . SVG Version: 6.00 Build 0)  -->
<!DOCTYPE svg PUBLIC "-//W3C//DTD SVG 1.1//EN" "http://www.w3.org/Graphics/SVG/1.1/DTD/svg11.dtd">
<svg version="1.1" id="Layer_1" xmlns="http://www.w3.org/2000/svg" xmlns:xlink="http://www.w3.org/1999/xlink" x="0px" y="0px"
	 width="48px" height="48px" viewBox="0 0 48 48" enable-background="new 0 0 48 48" xml:space="preserve">
<path fill="#4DA34D" d="M24,6c5.54041,0,10.63666,2.49304,14.01129,6.68939l-7.64996-1.02435l-0.53125,3.96484l11.89355,1.59277
	c0.08984,0.01172,0.17969,0.01758,0.26855,0.01758c0.98633,0,1.84473-0.72949,1.97949-1.73438L45.56445,3.6123l-3.96484-0.53125
	l-0.88599,6.61633C36.59338,4.86353,30.55487,2,24,2C12.21294,2,2.56122,11.31766,2.02383,22.97426
	c-0.02589,0.56149,0.43978,1.02572,1.00186,1.02572h2.00288c0.54112,0,0.96867-0.43146,0.99755-0.9718
	C6.53253,13.55338,14.40122,6,24,6z"/>
<path fill="#9EDB9E" d="M24,42c-5.54041,0-10.63666-2.49304-14.01129-6.68939l7.64996,1.02435l0.53125-3.96484L6.27637,30.77734
	c-1.08691-0.13965-2.10156,0.62207-2.24805,1.7168L2.43555,44.3877l2.97362,0.39844
	c0.54742,0.07335,1.05065-0.31099,1.12396-0.85842l0.75325-5.6251C11.40662,43.13647,17.44513,46,24,46
	c11.78704,0,21.43875-9.31764,21.97622-20.97421c0.02589-0.56152-0.4398-1.02578-1.00192-1.02578h-2.00288
	c-0.54109,0-0.96862,0.43143-0.99749,0.97175C41.46751,34.44659,33.5988,42,24,42z"/>
</svg>
