<?xml version="1.0" encoding="utf-8"?>
<!-- Generator: Adobe Illustrator 19.2.0, SVG Export Plug-In . SVG Version: 6.00 Build 0)  -->
<!DOCTYPE svg PUBLIC "-//W3C//DTD SVG 1.1//EN" "http://www.w3.org/Graphics/SVG/1.1/DTD/svg11.dtd">
<svg version="1.1" id="Layer_1" xmlns="http://www.w3.org/2000/svg" xmlns:xlink="http://www.w3.org/1999/xlink" x="0px" y="0px"
	 width="48px" height="48px" viewBox="0 0 48 48" enable-background="new 0 0 48 48" xml:space="preserve">
<path fill="#335262" d="M40,23h-9V10c0-0.55273-0.44775-1-1-1H18c-0.55225,0-1,0.44727-1,1v13H8
	c-0.38428,0-0.73486,0.2207-0.90137,0.56641C6.93213,23.91309,6.979,24.32422,7.21924,24.625l16,20
	C23.40869,44.8623,23.69629,45,24,45s0.59131-0.1377,0.78076-0.375l16-20c0.24023-0.30078,0.28711-0.71191,0.12061-1.05859
	C40.73486,23.2207,40.38428,23,40,23z"/>
<path fill="#5A7A84" d="M18,5h12c0.55225,0,1-0.44727,1-1s-0.44775-1-1-1H18c-0.55225,0-1,0.44727-1,1S17.44775,5,18,5z"/>
</svg>
