<?xml version="1.0" encoding="utf-8"?>
<!-- Generator: Adobe Illustrator 19.2.0, SVG Export Plug-In . SVG Version: 6.00 Build 0)  -->
<!DOCTYPE svg PUBLIC "-//W3C//DTD SVG 1.1//EN" "http://www.w3.org/Graphics/SVG/1.1/DTD/svg11.dtd">
<svg version="1.1" id="Layer_1" xmlns="http://www.w3.org/2000/svg" xmlns:xlink="http://www.w3.org/1999/xlink" x="0px" y="0px"
	 width="48px" height="48px" viewBox="0 0 48 48" enable-background="new 0 0 48 48" xml:space="preserve">
<path fill="#E86C60" d="M38,14c-3.35547,0-7.9375,3.15039-15.08594,8.33984C18.21191,25.75293,12.36133,30,10,30
	c-3.30859,0-6-2.69141-6-6s2.69141-6,6-6c0.26599,0,0.93628,0.07257,2.20758,0.6076l-2.03473,3.7215
	c-0.18652,0.34082-0.15918,0.75879,0.07129,1.07129c0.19043,0.25977,0.49121,0.4082,0.80566,0.4082
	c0.06445,0,0.12988-0.00586,0.19531-0.01953l9.3877-1.87109c0.29492-0.05859,0.54688-0.24609,0.6875-0.51074
	c0.14062-0.26562,0.15527-0.58008,0.03906-0.85645l-3.63086-8.6582c-0.14844-0.35449-0.48633-0.5918-0.87012-0.6123
	c-0.39941-0.02637-0.74512,0.18262-0.92871,0.51953l-1.79663,3.28601C12.51129,14.3656,11.13599,14,10,14
	C4.48633,14,0,18.48633,0,24s4.48633,10,10,10c3.66016,0,9.03711-3.90332,15.26367-8.42285C29.91406,22.20117,35.70117,18,38,18
	c3.30859,0,6,2.69141,6,6s-2.69141,6-6,6c-0.64648,0-2.6748-0.35645-7.54199-3.66016l-2.24609,3.30859
	C32.52441,32.57715,35.72656,34,38,34c5.51367,0,10-4.48633,10-10S43.51367,14,38,14z"/>
</svg>
