<?xml version="1.0" encoding="utf-8"?>
<!-- Generator: Adobe Illustrator 19.2.1, SVG Export Plug-In . SVG Version: 6.00 Build 0)  -->
<!DOCTYPE svg PUBLIC "-//W3C//DTD SVG 1.1//EN" "http://www.w3.org/Graphics/SVG/1.1/DTD/svg11.dtd">
<svg version="1.1" id="Layer_1" xmlns="http://www.w3.org/2000/svg" xmlns:xlink="http://www.w3.org/1999/xlink" x="0px" y="0px"
	 width="48px" height="48px" viewBox="0 0 48 48" enable-background="new 0 0 48 48" xml:space="preserve">
<path fill="#43A6DD" d="M45,43H3c-1.105,0-2-0.895-2-2V7c0-1.105,0.895-2,2-2h42c1.105,0,2,0.895,2,2v34C47,42.105,46.105,43,45,43z
	"/>
<path fill="#BADEFC" d="M32.707,23.293c-0.391-0.391-1.023-0.391-1.414,0L25,29.586V5h-2v24.586l-6.293-6.293
	c-0.391-0.391-1.023-0.391-1.414,0s-0.391,1.023,0,1.414l8,8C23.488,32.902,23.744,33,24,33s0.512-0.098,0.707-0.293l8-8
	C33.098,24.316,33.098,23.684,32.707,23.293z"/>
</svg>
