<?xml version="1.0" encoding="utf-8"?>
<!-- Generator: Adobe Illustrator 19.2.1, SVG Export Plug-In . SVG Version: 6.00 Build 0)  -->
<!DOCTYPE svg PUBLIC "-//W3C//DTD SVG 1.1//EN" "http://www.w3.org/Graphics/SVG/1.1/DTD/svg11.dtd">
<svg version="1.1" id="Layer_1" xmlns="http://www.w3.org/2000/svg" xmlns:xlink="http://www.w3.org/1999/xlink" x="0px" y="0px"
	 width="48px" height="48px" viewBox="0 0 48 48" enable-background="new 0 0 48 48" xml:space="preserve">
<path fill="#8680D8" d="M45,41c-0.348,0-0.68-0.183-0.862-0.494C39.186,32.069,35.064,29.134,21,29.005V38
	c0,0.404-0.244,0.77-0.617,0.924c-0.375,0.156-0.804,0.069-1.09-0.217l-16-16c-0.391-0.391-0.391-1.023,0-1.414l16-16
	c0.286-0.287,0.715-0.374,1.09-0.217C20.756,5.23,21,5.596,21,6v9.011C42.721,15.467,46,30.803,46,40
	c0,0.451-0.302,0.847-0.738,0.965C45.175,40.988,45.087,41,45,41z"/>
</svg>
