<?xml version="1.0" encoding="utf-8"?>
<!-- Generator: Adobe Illustrator 19.2.0, SVG Export Plug-In . SVG Version: 6.00 Build 0)  -->
<!DOCTYPE svg PUBLIC "-//W3C//DTD SVG 1.1//EN" "http://www.w3.org/Graphics/SVG/1.1/DTD/svg11.dtd">
<svg version="1.1" id="Layer_1" xmlns="http://www.w3.org/2000/svg" xmlns:xlink="http://www.w3.org/1999/xlink" x="0px" y="0px"
	 width="48px" height="48px" viewBox="0 0 48 48" enable-background="new 0 0 48 48" xml:space="preserve">
<polygon fill="#1A3138" points="38.99998,15 45.99998,30 39.99998,40 7.99998,41 1.99998,30 8.99998,15 "/>
<path fill="#335262" d="M7.99998,42c-0.36523,0-0.70215-0.19922-0.87793-0.52148l-6-11
	c-0.15234-0.27832-0.16309-0.61328-0.02832-0.90137l7-15C8.25779,14.22461,8.61131,14,8.99998,14h30
	c0.38867,0,0.74219,0.22461,0.90625,0.57715l7,15c0.14062,0.30078,0.12207,0.65234-0.04883,0.9375l-6,10
	c-0.1748,0.29199-0.48633,0.47461-0.82617,0.48438l-32,1C8.02048,42,8.01072,42,7.99998,42z M3.12009,29.96484l5.46289,10.0166
	l30.83984-0.96387l5.44629-9.07617L38.36326,16H9.6367L3.12009,29.96484z"/>
<path fill="#5A7A84" d="M45.99998,29h-44c-0.55273,0-1,0.44727-1,1v16c0,0.55273,0.44727,1,1,1h44c0.55273,0,1-0.44727,1-1V30
	C46.99998,29.44727,46.55271,29,45.99998,29z"/>
<path fill="#EFD358" d="M28.99998,39h-10c-0.55273,0-1-0.44727-1-1s0.44727-1,1-1h10c0.55273,0,1,0.44727,1,1
	S29.55271,39,28.99998,39z"/>
<path fill="#BADEFC" d="M30.75879,19.65039l-6,7c-0.39885,0.46532-1.11873,0.46532-1.51758,0l-6-7
	c-0.25488-0.2959-0.3125-0.71387-0.14941-1.06836S17.60938,18,18,18h4V2c0-0.55228,0.44772-1,1-1h2c0.55228,0,1,0.44772,1,1v16h4
	c0.39062,0,0.74512,0.22754,0.9082,0.58203S31.01367,19.35449,30.75879,19.65039z"/>
</svg>
