<?xml version="1.0" encoding="utf-8"?>
<!-- Generator: Adobe Illustrator 19.2.0, SVG Export Plug-In . SVG Version: 6.00 Build 0)  -->
<!DOCTYPE svg PUBLIC "-//W3C//DTD SVG 1.1//EN" "http://www.w3.org/Graphics/SVG/1.1/DTD/svg11.dtd">
<svg version="1.1" id="Layer_1" xmlns="http://www.w3.org/2000/svg" xmlns:xlink="http://www.w3.org/1999/xlink" x="0px" y="0px"
	 width="48px" height="48px" viewBox="0 0 48 48" enable-background="new 0 0 48 48" xml:space="preserve">
<path fill="#43A6DD" d="M38.86328,21.04102C37.89062,13.09766,31.08887,7,23,7C14.69922,7,7.84277,13.31836,7.08789,21.51074
	C3.46875,22.74609,1,26.13867,1,30c0,4.96289,4.03711,9,9,9h28c4.96289,0,9-4.03711,9-9
	C47,25.3291,43.42285,21.47754,38.86328,21.04102z"/>
<path fill="#FFFFFF" d="M30.70703,22.29297l-5.99872-5.99872c-0.09247-0.09277-0.20343-0.16638-0.32654-0.21729
	c-0.24426-0.10095-0.51935-0.10095-0.76361,0c-0.12299,0.0509-0.23401,0.12451-0.32648,0.21729l-5.99872,5.99872
	c-0.39062,0.39062-0.39062,1.02344,0,1.41406s1.02344,0.39062,1.41406,0L23,19.41406V33c0,0.55273,0.44727,1,1,1s1-0.44727,1-1
	V19.41406l4.29297,4.29297C29.48828,23.90234,29.74414,24,30,24s0.51172-0.09766,0.70703-0.29297
	C31.09766,23.31641,31.09766,22.68359,30.70703,22.29297z"/>
</svg>
