<?xml version="1.0" encoding="utf-8"?>
<!-- Generator: Adobe Illustrator 19.2.1, SVG Export Plug-In . SVG Version: 6.00 Build 0)  -->
<!DOCTYPE svg PUBLIC "-//W3C//DTD SVG 1.1//EN" "http://www.w3.org/Graphics/SVG/1.1/DTD/svg11.dtd">
<svg version="1.1" id="Layer_1" xmlns="http://www.w3.org/2000/svg" xmlns:xlink="http://www.w3.org/1999/xlink" x="0px" y="0px"
	 width="48px" height="48px" viewBox="0 0 48 48" enable-background="new 0 0 48 48" xml:space="preserve">
<path fill="#B3B3B3" d="M38,47H10c-0.552,0-1-0.448-1-1V2c0-0.552,0.448-1,1-1h28c0.552,0,1,0.448,1,1v6c0,0.552-0.448,1-1,1
	s-1-0.448-1-1V3H11v42h26v-5c0-0.552,0.448-1,1-1s1,0.448,1,1v6C39,46.552,38.552,47,38,47z"/>
<path fill="#8680D8" d="M43.633,23.226l-11-9c-0.3-0.245-0.713-0.295-1.062-0.13C31.223,14.262,31,14.614,31,15v7H19
	c-0.552,0-1,0.448-1,1v2c0,0.552,0.448,1,1,1h12v7c0,0.386,0.223,0.738,0.572,0.904c0.349,0.165,0.762,0.115,1.062-0.13l11-9
	C43.865,24.584,44,24.3,44,24S43.865,23.416,43.633,23.226z"/>
</svg>
