<?xml version="1.0" encoding="utf-8"?>
<!-- Generator: Adobe Illustrator 19.2.0, SVG Export Plug-In . SVG Version: 6.00 Build 0)  -->
<!DOCTYPE svg PUBLIC "-//W3C//DTD SVG 1.1//EN" "http://www.w3.org/Graphics/SVG/1.1/DTD/svg11.dtd">
<svg version="1.1" id="Layer_1" xmlns="http://www.w3.org/2000/svg" xmlns:xlink="http://www.w3.org/1999/xlink" x="0px" y="0px"
	 width="48px" height="48px" viewBox="0 0 48 48" enable-background="new 0 0 48 48" xml:space="preserve">
<path fill="#72C472" d="M24,1C11.31787,1,1,11.31787,1,24s10.31787,23,23,23s23-10.31787,23-23S36.68213,1,24,1z"/>
<path fill="#FFFFFF" d="M34.92279,23.61786c-0.05072-0.12238-0.12378-0.23303-0.21606-0.3252l-7.99969-7.99969
	c-0.39062-0.39062-1.02344-0.39062-1.41406,0s-0.39062,1.02344,0,1.41406L31.58594,23H12c-0.55225,0-1,0.44775-1,1s0.44775,1,1,1
	h19.58594l-6.29297,6.29297c-0.39062,0.39062-0.39062,1.02344,0,1.41406C25.48828,32.90234,25.74414,33,26,33
	s0.51172-0.09766,0.70703-0.29297l7.99969-7.99969c0.09229-0.09216,0.16534-0.20282,0.21606-0.3252
	C35.02393,24.13763,35.02393,23.86237,34.92279,23.61786z"/>
</svg>
