<?xml version="1.0" encoding="utf-8"?>
<!-- Generator: Adobe Illustrator 19.2.1, SVG Export Plug-In . SVG Version: 6.00 Build 0)  -->
<!DOCTYPE svg PUBLIC "-//W3C//DTD SVG 1.1//EN" "http://www.w3.org/Graphics/SVG/1.1/DTD/svg11.dtd">
<svg version="1.1" id="Layer_1" xmlns="http://www.w3.org/2000/svg" xmlns:xlink="http://www.w3.org/1999/xlink" x="0px" y="0px"
	 width="48px" height="48px" viewBox="0 0 48 48" enable-background="new 0 0 48 48" xml:space="preserve">
<path fill="#E6E6E6" d="M38.613,40.597l-2.92-2.734l1.367-1.46c1.192-1.273,2.182-2.712,2.939-4.275l0.873-1.8l3.599,1.745
	l-0.872,1.8c-0.934,1.926-2.151,3.697-3.619,5.264L38.613,40.597z"/>
<path fill="#E6E6E6" d="M22.549,46.042l-0.097-3.999l2-0.048c1.984-0.048,3.924-0.412,5.766-1.082l1.879-0.684l1.368,3.759
	l-1.88,0.684c-2.25,0.818-4.617,1.263-7.037,1.322L22.549,46.042z"/>
<path fill="#E6E6E6" d="M16.018,44.591l-1.789-0.893c-2.201-1.099-4.194-2.551-5.925-4.317l-1.399-1.428l2.856-2.8l1.4,1.428
	c1.418,1.447,3.052,2.638,4.854,3.538l1.789,0.894L16.018,44.591z"/>
<path fill="#E6E6E6" d="M3.618,32.499l-0.604-1.907C2.342,28.463,2,26.245,2,24v-2h4v2c0,1.835,0.279,3.647,0.829,5.386l0.603,1.907
	L3.618,32.499z"/>
<path fill="#B3B3B3" d="M6.008,17.24c0.088,0,0.178-0.006,0.268-0.018L18.17,15.63l-0.531-3.965L9.988,12.69
	C13.363,8.493,18.463,6,24,6c9.925,0,18,8.075,18,18h4c0-12.131-9.869-22-22-22C17.449,2,11.408,4.864,7.286,9.698L6.4,3.081
	L2.436,3.612l1.593,11.893C4.163,16.511,5.021,17.24,6.008,17.24z"/>
</svg>
