<?xml version="1.0" encoding="utf-8"?>
<!-- Generator: Adobe Illustrator 19.2.0, SVG Export Plug-In . SVG Version: 6.00 Build 0)  -->
<!DOCTYPE svg PUBLIC "-//W3C//DTD SVG 1.1//EN" "http://www.w3.org/Graphics/SVG/1.1/DTD/svg11.dtd">
<svg version="1.1" id="Layer_1" xmlns="http://www.w3.org/2000/svg" xmlns:xlink="http://www.w3.org/1999/xlink" x="0px" y="0px"
	 width="48px" height="48px" viewBox="0 0 48 48" enable-background="new 0 0 48 48" xml:space="preserve">
<path fill="#43A6DD" d="M44.58838,23.19141l-22-16c-0.30322-0.22119-0.70703-0.25244-1.04199-0.08252
	C21.21094,7.27979,21,7.62402,21,8v9H4c-0.55225,0-1,0.44775-1,1v12c0,0.55225,0.44775,1,1,1h17v9
	c0,0.37598,0.21094,0.72021,0.54639,0.89111C21.68945,40.96387,21.84521,41,22,41c0.20752,0,0.41406-0.06445,0.58838-0.19141l22-16
	C44.84668,24.62061,45,24.31982,45,24S44.84668,23.37939,44.58838,23.19141z"/>
</svg>
