<?xml version="1.0" encoding="utf-8"?>
<!-- Generator: Adobe Illustrator 19.2.0, SVG Export Plug-In . SVG Version: 6.00 Build 0)  -->
<!DOCTYPE svg PUBLIC "-//W3C//DTD SVG 1.1//EN" "http://www.w3.org/Graphics/SVG/1.1/DTD/svg11.dtd">
<svg version="1.1" id="Layer_1" xmlns="http://www.w3.org/2000/svg" xmlns:xlink="http://www.w3.org/1999/xlink" x="0px" y="0px"
	 width="48px" height="48px" viewBox="0 0 48 48" enable-background="new 0 0 48 48" xml:space="preserve">
<path fill="#ED69AB" d="M44,12H30v4h9.50909L25.92383,31.09473L15.41406,20.58594c-0.78027-0.78125-2.04785-0.78125-2.82812,0
	l-9.29289,9.29289c-0.39052,0.39053-0.39052,1.02369,0,1.41422l1.41391,1.41391c0.39052,0.39053,1.02369,0.39053,1.41421,0
	L14,24.82812l10.58594,10.58594C24.96143,35.79004,25.47021,36,26,36c0.01758,0,0.03516,0,0.05273-0.00098
	c0.54834-0.01367,1.06689-0.25293,1.43408-0.66113L42,19.21216V28h4V14C46,12.89543,45.10457,12,44,12z"/>
</svg>
