<?xml version="1.0" encoding="utf-8"?>
<!-- Generator: Adobe Illustrator 19.2.0, SVG Export Plug-In . SVG Version: 6.00 Build 0)  -->
<!DOCTYPE svg PUBLIC "-//W3C//DTD SVG 1.1//EN" "http://www.w3.org/Graphics/SVG/1.1/DTD/svg11.dtd">
<svg version="1.1" id="Layer_1" xmlns="http://www.w3.org/2000/svg" xmlns:xlink="http://www.w3.org/1999/xlink" x="0px" y="0px"
	 width="48px" height="48px" viewBox="0 0 48 48" enable-background="new 0 0 48 48" xml:space="preserve">
<path fill="#43A6DD" d="M38.86328,21.04102C37.89014,13.09766,31.08936,7,23,7C14.69971,7,7.84326,13.31836,7.08789,21.51074
	C3.46875,22.74609,1,26.13867,1,30c0,4.96289,4.0376,9,9,9h28c4.9624,0,9-4.03711,9-9
	C47,25.32812,43.42236,21.47656,38.86328,21.04102z"/>
<path fill="#FFFFFF" d="M29.29297,26.29297L25,30.58594V17c0-0.55273-0.44775-1-1-1s-1,0.44727-1,1v13.58594l-4.29297-4.29297
	c-0.39062-0.39062-1.02344-0.39062-1.41406,0s-0.39062,1.02344,0,1.41406l5.99933,5.99933
	c0.09235,0.09253,0.20306,0.16577,0.32568,0.21655C23.74017,33.97345,23.86981,34,24,34s0.25983-0.02655,0.38202-0.07709
	c0.12262-0.05078,0.23334-0.12402,0.32568-0.21655l5.99933-5.99933c0.39062-0.39062,0.39062-1.02344,0-1.41406
	S29.68359,25.90234,29.29297,26.29297z"/>
</svg>
