<?xml version="1.0" encoding="utf-8"?>
<!-- Generator: Adobe Illustrator 19.2.0, SVG Export Plug-In . SVG Version: 6.00 Build 0)  -->
<!DOCTYPE svg PUBLIC "-//W3C//DTD SVG 1.1//EN" "http://www.w3.org/Graphics/SVG/1.1/DTD/svg11.dtd">
<svg version="1.1" id="Layer_1" xmlns="http://www.w3.org/2000/svg" xmlns:xlink="http://www.w3.org/1999/xlink" x="0px" y="0px"
	 width="48px" height="48px" viewBox="0 0 48 48" enable-background="new 0 0 48 48" xml:space="preserve">
<path fill="#72C472" d="M24,1C11.31787,1,1,11.31787,1,24s10.31787,23,23,23s23-10.31787,23-23S36.68213,1,24,1z"/>
<path fill="#FFFFFF" d="M23,16c0-0.37598-0.21094-0.72021-0.54639-0.89111c-0.33496-0.16992-0.73682-0.13867-1.04199,0.08252l-11,8
	C10.15332,23.37939,10,23.68018,10,24s0.15332,0.62061,0.41162,0.80859l11,8C21.58594,32.93555,21.79248,33,22,33
	c0.15479,0,0.31055-0.03613,0.45361-0.10889C22.78906,32.72021,23,32.37598,23,32v-6h13c0.55228,0,1-0.44772,1-1v-2
	c0-0.55228-0.44772-1-1-1H23V16z"/>
</svg>
