<?xml version="1.0" encoding="utf-8"?>
<!-- Generator: Adobe Illustrator 19.2.0, SVG Export Plug-In . SVG Version: 6.00 Build 0)  -->
<!DOCTYPE svg PUBLIC "-//W3C//DTD SVG 1.1//EN" "http://www.w3.org/Graphics/SVG/1.1/DTD/svg11.dtd">
<svg version="1.1" id="Layer_1" xmlns="http://www.w3.org/2000/svg" xmlns:xlink="http://www.w3.org/1999/xlink" x="0px" y="0px"
	 width="48px" height="48px" viewBox="0 0 48 48" enable-background="new 0 0 48 48" xml:space="preserve">
<path fill="#EA9860" d="M45,1H3C1.89543,1,1,1.89543,1,3v42c0,1.10457,0.89543,2,2,2h42c1.10457,0,2-0.89543,2-2V3
	C47,1.89543,46.10457,1,45,1z"/>
<path fill="#FFFFFF" d="M24.70789,13.29382c-0.09235-0.09259-0.20306-0.16589-0.32581-0.21674
	c-0.24438-0.10107-0.51978-0.10101-0.76416,0.00006c-0.12274,0.05078-0.23346,0.12408-0.32581,0.21667l-7.99915,7.99915
	c-0.39062,0.39062-0.39062,1.02344,0,1.41406s1.02344,0.39062,1.41406,0L23,16.41406V36c0,0.55225,0.44727,1,1,1s1-0.44775,1-1
	V16.41406l6.29297,6.29297C31.48828,22.90234,31.74414,23,32,23s0.51172-0.09766,0.70703-0.29297
	c0.39062-0.39062,0.39062-1.02344,0-1.41406L24.70789,13.29382z"/>
</svg>
