<?xml version="1.0" encoding="utf-8"?>
<!-- Generator: Adobe Illustrator 19.2.0, SVG Export Plug-In . SVG Version: 6.00 Build 0)  -->
<!DOCTYPE svg PUBLIC "-//W3C//DTD SVG 1.1//EN" "http://www.w3.org/Graphics/SVG/1.1/DTD/svg11.dtd">
<svg version="1.1" id="Layer_1" xmlns="http://www.w3.org/2000/svg" xmlns:xlink="http://www.w3.org/1999/xlink" x="0px" y="0px"
	 width="48px" height="48px" viewBox="0 0 48 48" enable-background="new 0 0 48 48" xml:space="preserve">
<path fill="#72C472" d="M24,1C11.31738,1,1,11.31787,1,24s10.31738,23,23,23s23-10.31787,23-23S36.68262,1,24,1z"/>
<path fill="#FFFFFF" d="M28,33c-0.25586,0-0.51172-0.09766-0.70703-0.29297l-8-8c-0.39062-0.39062-0.39062-1.02344,0-1.41406l8-8
	c0.39062-0.39062,1.02344-0.39062,1.41406,0s0.39062,1.02344,0,1.41406L21.41406,24l7.29297,7.29297
	c0.39062,0.39062,0.39062,1.02344,0,1.41406C28.51172,32.90234,28.25586,33,28,33z"/>
</svg>
