<?xml version="1.0" encoding="utf-8"?>
<!-- Generator: Adobe Illustrator 19.2.0, SVG Export Plug-In . SVG Version: 6.00 Build 0)  -->
<!DOCTYPE svg PUBLIC "-//W3C//DTD SVG 1.1//EN" "http://www.w3.org/Graphics/SVG/1.1/DTD/svg11.dtd">
<svg version="1.1" id="Layer_1" xmlns="http://www.w3.org/2000/svg" xmlns:xlink="http://www.w3.org/1999/xlink" x="0px" y="0px"
	 width="48px" height="48px" viewBox="0 0 48 48" enable-background="new 0 0 48 48" xml:space="preserve">
<path fill="#E86C60" d="M28.70703,5.29297c-0.28662-0.28711-0.71582-0.37305-1.08984-0.2168C27.24365,5.23047,27,5.5957,27,6v9.0127
	C18.43359,15.22168,1,18.31836,1,40c0,0.45215,0.30322,0.84766,0.73975,0.96582C1.82617,40.98926,1.91357,41,2,41
	c0.34961,0,0.68213-0.18359,0.86426-0.49707C7.99561,31.68359,13.26953,29.11914,27,29.00391V38
	c0,0.4043,0.24365,0.76953,0.61719,0.92383c0.37402,0.15527,0.80322,0.06934,1.08984-0.2168l16-16
	c0.39062-0.39062,0.39062-1.02344,0-1.41406L28.70703,5.29297z"/>
</svg>
