<?xml version="1.0" encoding="utf-8"?>
<!-- Generator: Adobe Illustrator 19.2.0, SVG Export Plug-In . SVG Version: 6.00 Build 0)  -->
<!DOCTYPE svg PUBLIC "-//W3C//DTD SVG 1.1//EN" "http://www.w3.org/Graphics/SVG/1.1/DTD/svg11.dtd">
<svg version="1.1" id="Layer_1" xmlns="http://www.w3.org/2000/svg" xmlns:xlink="http://www.w3.org/1999/xlink" x="0px" y="0px"
	 width="48px" height="48px" viewBox="0 0 48 48" enable-background="new 0 0 48 48" xml:space="preserve">
<path fill="#72C472" d="M24.62451,7.21924c-0.30127-0.24072-0.7124-0.28613-1.05762-0.12061C23.22021,7.26514,23,7.61572,23,8v9H10
	c-3.85986,0-7,3.14014-7,7s3.14014,7,7,7h13v9c0,0.38428,0.22021,0.73486,0.56689,0.90137C23.70459,40.96729,23.85254,41,24,41
	c0.22266,0,0.44385-0.07471,0.62451-0.21924l20-16C44.86182,24.59131,45,24.30371,45,24s-0.13818-0.59131-0.37549-0.78076
	L24.62451,7.21924z"/>
</svg>
