<?xml version="1.0" encoding="utf-8"?>
<!-- Generator: Adobe Illustrator 19.2.1, SVG Export Plug-In . SVG Version: 6.00 Build 0)  -->
<!DOCTYPE svg PUBLIC "-//W3C//DTD SVG 1.1//EN" "http://www.w3.org/Graphics/SVG/1.1/DTD/svg11.dtd">
<svg version="1.1" id="Layer_1" xmlns="http://www.w3.org/2000/svg" xmlns:xlink="http://www.w3.org/1999/xlink" x="0px" y="0px"
	 width="48px" height="48px" viewBox="0 0 48 48" enable-background="new 0 0 48 48" xml:space="preserve">
<path fill="#223E49" d="M46,47H30c-0.404,0-0.77-0.244-0.924-0.617c-0.155-0.374-0.069-0.804,0.217-1.09l6.586-6.586l-8.586-8.586
	c-0.391-0.391-0.391-1.024,0-1.414l1.414-1.414c0.391-0.391,1.024-0.391,1.414,0l8.586,8.586l6.586-6.586
	C45.484,29.101,45.74,29,46,29c0.129,0,0.259,0.025,0.383,0.076C46.757,29.231,47,29.596,47,30v16C47,46.552,46.553,47,46,47z"/>
<path fill="#76B5B5" d="M21,1H3C1.895,1,1,1.895,1,3v18c0,1.105,0.895,2,2,2h18c1.105,0,2-0.895,2-2V3C23,1.895,22.105,1,21,1z"/>
</svg>
