<?xml version="1.0" encoding="utf-8"?>
<!-- Generator: Adobe Illustrator 19.2.0, SVG Export Plug-In . SVG Version: 6.00 Build 0)  -->
<!DOCTYPE svg PUBLIC "-//W3C//DTD SVG 1.1//EN" "http://www.w3.org/Graphics/SVG/1.1/DTD/svg11.dtd">
<svg version="1.1" id="Layer_1" xmlns="http://www.w3.org/2000/svg" xmlns:xlink="http://www.w3.org/1999/xlink" x="0px" y="0px"
	 width="48px" height="48px" viewBox="0 0 48 48" enable-background="new 0 0 48 48" xml:space="preserve">
<path fill="#BADEFC" d="M31,7c-9.37402,0-17,7.62598-17,17s7.62598,17,17,17s17-7.62598,17-17S40.37402,7,31,7z"/>
<path fill="#335262" d="M35,22H9v-4c0-0.39062-0.22754-0.74512-0.58203-0.90869s-0.77246-0.10498-1.06836,0.14941l-7,6
	C0.12793,23.43066,0,23.70801,0,24s0.12793,0.56934,0.34961,0.75928l7,6C7.53418,30.91748,7.76562,31,8,31
	c0.1416,0,0.28418-0.03027,0.41797-0.09131C8.77246,30.74512,9,30.39062,9,30v-4h26c0.55228,0,1-0.44772,1-1v-2
	C36,22.44772,35.55228,22,35,22z"/>
</svg>
