<?xml version="1.0" encoding="utf-8"?>
<!-- Generator: Adobe Illustrator 19.2.0, SVG Export Plug-In . SVG Version: 6.00 Build 0)  -->
<!DOCTYPE svg PUBLIC "-//W3C//DTD SVG 1.1//EN" "http://www.w3.org/Graphics/SVG/1.1/DTD/svg11.dtd">
<svg version="1.1" id="Layer_1" xmlns="http://www.w3.org/2000/svg" xmlns:xlink="http://www.w3.org/1999/xlink" x="0px" y="0px"
	 width="48px" height="48px" viewBox="0 0 48 48" enable-background="new 0 0 48 48" xml:space="preserve">
<path fill="#B3B3B3" d="M45.6582,34.75312l-8,7c-0.29395,0.25684-0.71484,0.32031-1.07129,0.15723
	C36.22949,41.74823,36,41.39277,36,41.00019v-5h-2.4375c-2.8346,0-5.53599-1.20312-7.43221-3.31009L12.89746,17.98651
	c-1.13789-1.26435-2.75894-1.98633-4.45994-1.98633H3c-0.55228,0-1-0.44771-1-1v-2c0-0.55229,0.44772-1,1-1h5.4375
	c2.8346,0,5.53599,1.20312,7.43221,3.31009l13.23282,14.70356c1.1379,1.26436,2.75897,1.98635,4.45998,1.98635H36v-5
	c0-0.39258,0.22949-0.74805,0.58691-0.91016c0.13184-0.06055,0.27344-0.08984,0.41309-0.08984
	c0.2373,0,0.47266,0.08496,0.6582,0.24707l8,7C45.87598,33.43769,46,33.7121,46,34.00019S45.87598,34.56269,45.6582,34.75312z"/>
<path fill="#444444" d="M45.6582,13.24707l-8-7c-0.29395-0.25684-0.71484-0.32031-1.07129-0.15723C36.22949,6.25195,36,6.60742,36,7
	v5h-2.43751c-2.83459,0-5.53598,1.20312-7.4322,3.31009L12.89746,30.01367C11.75957,31.27803,10.13852,32,8.43752,32H3
	c-0.55228,0-1,0.44772-1,1v2c0,0.55228,0.44772,1,1,1h5.43749c2.83461,0,5.536-1.20312,7.43222-3.31009l13.23282-14.70357
	C30.24042,16.72198,31.86149,16,33.56249,16H36v5c0,0.39258,0.22949,0.74805,0.58691,0.91016C36.71875,21.9707,36.86035,22,37,22
	c0.2373,0,0.47266-0.08496,0.6582-0.24707l8-7C45.87598,14.5625,46,14.28809,46,14S45.87598,13.4375,45.6582,13.24707z"/>
</svg>
