<?xml version="1.0" encoding="utf-8"?>
<!-- Generator: Adobe Illustrator 19.2.0, SVG Export Plug-In . SVG Version: 6.00 Build 0)  -->
<!DOCTYPE svg PUBLIC "-//W3C//DTD SVG 1.1//EN" "http://www.w3.org/Graphics/SVG/1.1/DTD/svg11.dtd">
<svg version="1.1" id="Layer_1" xmlns="http://www.w3.org/2000/svg" xmlns:xlink="http://www.w3.org/1999/xlink" x="0px" y="0px"
	 width="48px" height="48px" viewBox="0 0 48 48" enable-background="new 0 0 48 48" xml:space="preserve">
<path fill="#E86C60" d="M37.61426,20.21094c-0.30273-0.23535-0.70996-0.27734-1.05371-0.10938C36.21777,20.26953,36,20.61816,36,21
	v5h-2c-3.07507,0-5.87439,1.17236-8,3.08093V13h5c0.38184,0,0.73047-0.21777,0.89844-0.56055s0.125-0.75195-0.10938-1.05371l-7-9
	c-0.40021-0.51456-1.17791-0.51456-1.57812,0l-7,9c-0.23438,0.30176-0.27734,0.71094-0.10938,1.05371S16.61816,13,17,13h5v16.08093
	C19.87439,27.17236,17.07507,26,14,26h-2v-5c0-0.38184-0.21777-0.73047-0.56055-0.89844s-0.75-0.12598-1.05371,0.10938l-9,7
	C1.14258,27.40039,1,27.69141,1,28s0.14258,0.59961,0.38574,0.78906l9,7C10.56543,35.92871,10.78223,36,11,36
	c0.14941,0,0.2998-0.0332,0.43945-0.10156C11.78223,35.73047,12,35.38184,12,35v-5h2c4.41828,0,8,3.58172,8,8v2v5
	c0,0.55228,0.44772,1,1,1h2c0.55228,0,1-0.44772,1-1v-5v-2c0-4.41828,3.58172-8,8-8h2v5c0,0.38184,0.21777,0.73047,0.56055,0.89844
	C36.7002,35.9668,36.85059,36,37,36c0.21777,0,0.43457-0.07129,0.61426-0.21094l9-7C46.85742,28.59961,47,28.30859,47,28
	s-0.14258-0.59961-0.38574-0.78906L37.61426,20.21094z"/>
</svg>
