<?xml version="1.0" encoding="utf-8"?>
<!-- Generator: Adobe Illustrator 19.2.1, SVG Export Plug-In . SVG Version: 6.00 Build 0)  -->
<!DOCTYPE svg PUBLIC "-//W3C//DTD SVG 1.1//EN" "http://www.w3.org/Graphics/SVG/1.1/DTD/svg11.dtd">
<svg version="1.1" id="Layer_1" xmlns="http://www.w3.org/2000/svg" xmlns:xlink="http://www.w3.org/1999/xlink" x="0px" y="0px"
	 width="48px" height="48px" viewBox="0 0 48 48" enable-background="new 0 0 48 48" xml:space="preserve">
<path fill="#B3B3B3" d="M24,2C17.449,2,11.408,4.864,7.286,9.698L6.4,3.081L2.436,3.612l1.593,11.893
	c0.135,1.005,0.993,1.734,1.98,1.734c0.088,0,0.178-0.006,0.268-0.018L18.17,15.63l-0.531-3.965L9.988,12.69
	C13.363,8.493,18.463,6,24,6c9.925,0,18,8.075,18,18s-8.075,18-18,18c-4.963,0-9.463-2.019-12.722-5.278l-2.827,2.827
	C12.435,43.533,17.935,46,24,46c12.131,0,22-9.869,22-22S36.131,2,24,2z"/>
<path fill="#8680D8" d="M8,43c-3.859,0-7-3.14-7-7s3.141-7,7-7s7,3.14,7,7S11.859,43,8,43z"/>
</svg>
