<?xml version="1.0" encoding="utf-8"?>
<!-- Generator: Adobe Illustrator 19.2.1, SVG Export Plug-In . SVG Version: 6.00 Build 0)  -->
<!DOCTYPE svg PUBLIC "-//W3C//DTD SVG 1.1//EN" "http://www.w3.org/Graphics/SVG/1.1/DTD/svg11.dtd">
<svg version="1.1" id="Layer_1" xmlns="http://www.w3.org/2000/svg" xmlns:xlink="http://www.w3.org/1999/xlink" x="0px" y="0px"
	 width="48px" height="48px" viewBox="0 0 48 48" enable-background="new 0 0 48 48" xml:space="preserve">
<path fill="#B3B3B3" d="M46,7H30c-0.552,0-1,0.448-1,1v0c0,0.552,0.448,1,1,1h16c0.552,0,1-0.448,1-1v0C47,7.448,46.552,7,46,7z"/>
<path fill="#B3B3B3" d="M46,21H30c-0.552,0-1,0.448-1,1v0c0,0.552,0.448,1,1,1h16c0.552,0,1-0.448,1-1v0C47,21.448,46.552,21,46,21z
	"/>
<path fill="#B3B3B3" d="M46,35H30c-0.552,0-1,0.448-1,1l0,0c0,0.552,0.448,1,1,1h16c0.552,0,1-0.448,1-1l0,0
	C47,35.448,46.552,35,46,35z"/>
<path fill="#43A6DD" d="M23,10h-7C9.001,10,3.383,16.021,4.055,23.156C4.639,29.374,10.106,34,16.351,34h0.821l-6-6L14,25.172
	l9.414,9.414c0.781,0.781,0.781,2.047,0,2.828L14,46.828L11.172,44l6-6H16C6.91,38-0.434,30.381,0.02,21.194
	C0.444,12.599,7.859,6,16.464,6H23c0.552,0,1,0.448,1,1v2C24,9.552,23.552,10,23,10z"/>
</svg>
