<?xml version="1.0" encoding="utf-8"?>
<!-- Generator: Adobe Illustrator 19.2.0, SVG Export Plug-In . SVG Version: 6.00 Build 0)  -->
<!DOCTYPE svg PUBLIC "-//W3C//DTD SVG 1.1//EN" "http://www.w3.org/Graphics/SVG/1.1/DTD/svg11.dtd">
<svg version="1.1" id="Layer_1" xmlns="http://www.w3.org/2000/svg" xmlns:xlink="http://www.w3.org/1999/xlink" x="0px" y="0px"
	 width="48px" height="48px" viewBox="0 0 48 48" enable-background="new 0 0 48 48" xml:space="preserve">
<path fill="#EA9860" d="M45,1H3C1.89543,1,1,1.89543,1,3v42c0,1.10457,0.89543,2,2,2h42c1.10457,0,2-0.89543,2-2V3
	C47,1.89543,46.10457,1,45,1z"/>
<path fill="#FFFFFF" d="M34.92297,23.6181c-0.05078-0.12274-0.12408-0.23346-0.21661-0.32581l-7.99933-7.99933
	c-0.39062-0.39062-1.02344-0.39062-1.41406,0s-0.39062,1.02344,0,1.41406L31.58594,23H12c-0.55273,0-1,0.44775-1,1s0.44727,1,1,1
	h19.58594l-6.29297,6.29297c-0.39062,0.39062-0.39062,1.02344,0,1.41406C25.48828,32.90234,25.74414,33,26,33
	s0.51172-0.09766,0.70703-0.29297l7.99933-7.99933c0.09253-0.09235,0.16583-0.20306,0.21661-0.32581
	C35.02399,24.13763,35.02399,23.86237,34.92297,23.6181z"/>
</svg>
