<?xml version="1.0" encoding="utf-8"?>
<!-- Generator: Adobe Illustrator 19.2.0, SVG Export Plug-In . SVG Version: 6.00 Build 0)  -->
<!DOCTYPE svg PUBLIC "-//W3C//DTD SVG 1.1//EN" "http://www.w3.org/Graphics/SVG/1.1/DTD/svg11.dtd">
<svg version="1.1" id="Layer_1" xmlns="http://www.w3.org/2000/svg" xmlns:xlink="http://www.w3.org/1999/xlink" x="0px" y="0px"
	 width="48px" height="48px" viewBox="0 0 48 48" enable-background="new 0 0 48 48" xml:space="preserve">
<path fill="#444444" d="M24.58594,18.58594l2.82812,2.82812l8-8c0.78096-0.78096,0.78096-2.04716,0-2.82812l-8-8l-2.82812,2.82812
	L29.17151,10H20c-6.62742,0-12,5.37258-12,12v5c0,0.55228,0.44771,1,1,1h2c0.55229,0,1-0.44772,1-1v-5c0-4.41828,3.58172-8,8-8
	h9.17151L24.58594,18.58594z"/>
<path fill="#EF8EC3" d="M38,27H22c-0.55225,0-1,0.44727-1,1v16c0,0.55273,0.44775,1,1,1h16c0.55225,0,1-0.44727,1-1V28
	C39,27.44727,38.55225,27,38,27z"/>
</svg>
