<?xml version="1.0" encoding="utf-8"?>
<!-- Generator: Adobe Illustrator 19.2.0, SVG Export Plug-In . SVG Version: 6.00 Build 0)  -->
<!DOCTYPE svg PUBLIC "-//W3C//DTD SVG 1.1//EN" "http://www.w3.org/Graphics/SVG/1.1/DTD/svg11.dtd">
<svg version="1.1" id="Layer_1" xmlns="http://www.w3.org/2000/svg" xmlns:xlink="http://www.w3.org/1999/xlink" x="0px" y="0px"
	 width="48px" height="48px" viewBox="0 0 48 48" enable-background="new 0 0 48 48" xml:space="preserve">
<path fill="#444444" d="M43.84766,18.76562c0.30957-0.74805,0.13867-1.60742-0.43359-2.17969l-14-14l-2.82812,2.82812L37.17139,16H3
	c-0.55228,0-1,0.44772-1,1v2c0,0.55228,0.44772,1,1,1h39C42.80908,20,43.53809,19.5127,43.84766,18.76562z"/>
<path fill="#8680D8" d="M4.15234,29.23438c-0.30957,0.74805-0.13867,1.60742,0.43359,2.17969l14,14l2.82812-2.82812L10.82861,32H45
	c0.55228,0,1-0.44772,1-1v-2c0-0.55228-0.44772-1-1-1H6C5.19092,28,4.46191,28.4873,4.15234,29.23438z"/>
</svg>
