<?xml version="1.0" encoding="utf-8"?>
<!-- Generator: Adobe Illustrator 19.2.0, SVG Export Plug-In . SVG Version: 6.00 Build 0)  -->
<!DOCTYPE svg PUBLIC "-//W3C//DTD SVG 1.1//EN" "http://www.w3.org/Graphics/SVG/1.1/DTD/svg11.dtd">
<svg version="1.1" id="Layer_1" xmlns="http://www.w3.org/2000/svg" xmlns:xlink="http://www.w3.org/1999/xlink" x="0px" y="0px"
	 width="48px" height="48px" viewBox="0 0 48 48" enable-background="new 0 0 48 48" xml:space="preserve">
<path fill="#43A6DD" d="M36,16v-5c0-0.39258-0.22949-0.74854-0.58691-0.91064c-0.35645-0.1626-0.77734-0.10059-1.07129,0.1582l-8,7
	C26.12402,17.4375,26,17.71143,26,18s0.12402,0.5625,0.3418,0.75244l8,7C34.52734,25.91504,34.7627,26,35,26
	c0.13965,0,0.28125-0.0293,0.41309-0.08936C35.77051,25.74854,36,25.39258,36,25v-5c4.41113,0,8,3.58887,8,8s-3.58887,8-8,8H12
	c-4.41113,0-8-3.58887-8-8s3.58887-8,8-8v5c0,0.39258,0.22949,0.74854,0.58691,0.91064C12.71875,25.9707,12.86035,26,13,26
	c0.2373,0,0.47266-0.08496,0.6582-0.24756l8-7C21.87598,18.5625,22,18.28857,22,18s-0.12402-0.5625-0.3418-0.75244l-8-7
	c-0.29492-0.2583-0.71387-0.31982-1.07129-0.1582C12.22949,10.25146,12,10.60742,12,11v5C5.38281,16,0,21.3833,0,28
	s5.38281,12,12,12h24c6.61719,0,12-5.3833,12-12S42.61719,16,36,16z"/>
</svg>
