<?xml version="1.0" encoding="utf-8"?>
<!-- Generator: Adobe Illustrator 19.2.0, SVG Export Plug-In . SVG Version: 6.00 Build 0)  -->
<!DOCTYPE svg PUBLIC "-//W3C//DTD SVG 1.1//EN" "http://www.w3.org/Graphics/SVG/1.1/DTD/svg11.dtd">
<svg version="1.1" id="Layer_1" xmlns="http://www.w3.org/2000/svg" xmlns:xlink="http://www.w3.org/1999/xlink" x="0px" y="0px"
	 width="48px" height="48px" viewBox="0 0 48 48" enable-background="new 0 0 48 48" xml:space="preserve">
<path fill="#43A6DD" d="M40,21h-9V4c0-0.55225-0.44775-1-1-1H18c-0.55225,0-1,0.44775-1,1v17H8
	c-0.37598,0-0.72021,0.21094-0.89111,0.54639c-0.1709,0.33496-0.13867,0.73779,0.08252,1.04199l16,22
	C23.37939,44.84668,23.68018,45,24,45s0.62061-0.15332,0.80859-0.41162l16-22c0.22119-0.3042,0.25342-0.70703,0.08252-1.04199
	C40.72021,21.21094,40.37598,21,40,21z"/>
</svg>
