<?xml version="1.0" encoding="utf-8"?>
<!-- Generator: Adobe Illustrator 19.2.1, SVG Export Plug-In . SVG Version: 6.00 Build 0)  -->
<!DOCTYPE svg PUBLIC "-//W3C//DTD SVG 1.1//EN" "http://www.w3.org/Graphics/SVG/1.1/DTD/svg11.dtd">
<svg version="1.1" id="Layer_1" xmlns="http://www.w3.org/2000/svg" xmlns:xlink="http://www.w3.org/1999/xlink" x="0px" y="0px"
	 width="48px" height="48px" viewBox="0 0 48 48" enable-background="new 0 0 48 48" xml:space="preserve">
<path fill="#5757B2" d="M19,41c-0.26,0-0.516-0.102-0.707-0.293l-16.014-16C2.092,24.52,1.986,24.266,1.986,24
	s0.105-0.52,0.293-0.707l16.014-16c0.287-0.286,0.718-0.373,1.09-0.217C19.756,7.231,20,7.596,20,8v32
	c0,0.404-0.244,0.769-0.617,0.924C19.259,40.975,19.129,41,19,41z"/>
<path fill="#8680D8" d="M28,41c-0.26,0-0.516-0.102-0.707-0.293l-16-16c-0.391-0.391-0.391-1.023,0-1.414l16-16
	c0.287-0.286,0.715-0.373,1.09-0.217C28.756,7.23,29,7.596,29,8v9.022c4.53,0.203,8.258,1.806,11.092,4.771
	c6.371,6.666,5.944,17.782,5.922,18.252c-0.02,0.428-0.309,0.795-0.719,0.915c-0.411,0.117-0.852-0.035-1.098-0.386
	c-0.065-0.092-6.362-8.903-15.197-9.538V40c0,0.404-0.244,0.77-0.617,0.924C28.259,40.976,28.129,41,28,41z"/>
</svg>
