<?xml version="1.0" encoding="utf-8"?>
<!-- Generator: Adobe Illustrator 19.2.0, SVG Export Plug-In . SVG Version: 6.00 Build 0)  -->
<!DOCTYPE svg PUBLIC "-//W3C//DTD SVG 1.1//EN" "http://www.w3.org/Graphics/SVG/1.1/DTD/svg11.dtd">
<svg version="1.1" id="Layer_1" xmlns="http://www.w3.org/2000/svg" xmlns:xlink="http://www.w3.org/1999/xlink" x="0px" y="0px"
	 width="48px" height="48px" viewBox="0 0 48 48" enable-background="new 0 0 48 48" xml:space="preserve">
<path fill="#72C472" d="M24,42C13.46113,42,5.00782,32.89463,6.09426,22.13802c0.86161-8.53066,7.86295-15.387,16.40916-16.0775
	c6.10592-0.49333,11.83048,2.05715,15.50824,6.62893l-7.65033-1.02441l-0.53125,3.96484l11.89355,1.59277
	c0.08984,0.01172,0.17969,0.01758,0.26855,0.01758c0.98633,0,1.84473-0.72949,1.97949-1.73438L45.56445,3.6123l-3.96484-0.53125
	L40.7135,9.69843c-4.68644-5.49594-11.85303-8.44562-19.42831-7.53513C11.18779,3.37692,3.1361,11.6071,2.11499,21.72578
	C0.78828,34.87276,11.11912,46,24,46c11.78703,0,21.43873-9.31762,21.97628-20.97415
	c0.0259-0.56156-0.43982-1.02584-1.00197-1.02584h-2.00288c-0.54106,0-0.96856,0.4314-0.99744,0.97169
	C41.46755,34.44655,33.59883,42,24,42z"/>
</svg>
