<?xml version="1.0" encoding="utf-8"?>
<!-- Generator: Adobe Illustrator 19.2.0, SVG Export Plug-In . SVG Version: 6.00 Build 0)  -->
<!DOCTYPE svg PUBLIC "-//W3C//DTD SVG 1.1//EN" "http://www.w3.org/Graphics/SVG/1.1/DTD/svg11.dtd">
<svg version="1.1" id="Layer_1" xmlns="http://www.w3.org/2000/svg" xmlns:xlink="http://www.w3.org/1999/xlink" x="0px" y="0px"
	 width="48px" height="48px" viewBox="0 0 48 48" enable-background="new 0 0 48 48" xml:space="preserve">
<path fill="#B3B3B3" d="M2,15c0.55273,0,1-0.44727,1-1V3h11c0.55273,0,1-0.44727,1-1s-0.44727-1-1-1H2C1.44727,1,1,1.44727,1,2v12
	C1,14.55273,1.44727,15,2,15z"/>
<path fill="#B3B3B3" d="M46,1H34c-0.55273,0-1,0.44727-1,1s0.44727,1,1,1h11v11c0,0.55273,0.44727,1,1,1s1-0.44727,1-1V2
	C47,1.44727,46.55273,1,46,1z"/>
<path fill="#B3B3B3" d="M46,33c-0.55273,0-1,0.44727-1,1v11H34c-0.55273,0-1,0.44727-1,1s0.44727,1,1,1h12c0.55273,0,1-0.44727,1-1
	V34C47,33.44727,46.55273,33,46,33z"/>
<path fill="#B3B3B3" d="M14,45H3V34c0-0.55273-0.44727-1-1-1s-1,0.44727-1,1v12c0,0.55273,0.44727,1,1,1h12c0.55273,0,1-0.44727,1-1
	S14.55273,45,14,45z"/>
<path fill="#72C472" d="M33,16c0-0.55273-0.44727-1-1-1H16c-0.55273,0-1,0.44727-1,1v16c0,0.55273,0.44727,1,1,1h16
	c0.55273,0,1-0.44727,1-1V16z"/>
</svg>
