<?xml version="1.0" encoding="utf-8"?>
<!-- Generator: Adobe Illustrator 19.2.0, SVG Export Plug-In . SVG Version: 6.00 Build 0)  -->
<!DOCTYPE svg PUBLIC "-//W3C//DTD SVG 1.1//EN" "http://www.w3.org/Graphics/SVG/1.1/DTD/svg11.dtd">
<svg version="1.1" id="Layer_1" xmlns="http://www.w3.org/2000/svg" xmlns:xlink="http://www.w3.org/1999/xlink" x="0px" y="0px"
	 width="48px" height="48px" viewBox="0 0 48 48" enable-background="new 0 0 48 48" xml:space="preserve">
<path fill="#8680D8" d="M21,14c0-0.37451-0.20898-0.71777-0.54199-0.88916c-0.33496-0.17188-0.73535-0.14209-1.03906,0.0752l-14,10
	C5.15625,23.37402,5,23.67725,5,24s0.15625,0.62598,0.41895,0.81396l14,10C19.5918,34.93701,19.79492,35,20,35
	c0.15625,0,0.31348-0.03662,0.45801-0.11084C20.79102,34.71777,21,34.37451,21,34v-8h24c0.55228,0,1-0.44772,1-1v-2
	c0-0.55228-0.44772-1-1-1H21V14z"/>
</svg>
