<?xml version="1.0" encoding="utf-8"?>
<!-- Generator: Adobe Illustrator 19.2.1, SVG Export Plug-In . SVG Version: 6.00 Build 0)  -->
<!DOCTYPE svg PUBLIC "-//W3C//DTD SVG 1.1//EN" "http://www.w3.org/Graphics/SVG/1.1/DTD/svg11.dtd">
<svg version="1.1" id="Layer_1" xmlns="http://www.w3.org/2000/svg" xmlns:xlink="http://www.w3.org/1999/xlink" x="0px" y="0px"
	 width="48px" height="48px" viewBox="0 0 48 48" enable-background="new 0 0 48 48" xml:space="preserve">
<path fill="#335262" d="M40.65,17.241c-0.295-0.253-0.713-0.311-1.068-0.149C39.228,17.255,39,17.609,39,18v4H20v4h19v4
	c0,0.391,0.228,0.745,0.582,0.909C39.716,30.97,39.858,31,40,31c0.234,0,0.466-0.083,0.65-0.241l7-6C47.872,24.569,48,24.292,48,24
	s-0.128-0.569-0.35-0.759L40.65,17.241z"/>
<path fill="#BADEFC" d="M20,35c-6.065,0-11-4.935-11-11s4.935-11,11-11s11,4.935,11,11S26.065,35,20,35z"/>
<path fill="#335262" d="M18,26H1c-0.552,0-1-0.448-1-1v-2c0-0.552,0.448-1,1-1h17c1.105,0,2,0.895,2,2v0C20,25.105,19.105,26,18,26z
	"/>
</svg>
