<?xml version="1.0" encoding="utf-8"?>
<!-- Generator: Adobe Illustrator 19.2.0, SVG Export Plug-In . SVG Version: 6.00 Build 0)  -->
<!DOCTYPE svg PUBLIC "-//W3C//DTD SVG 1.1//EN" "http://www.w3.org/Graphics/SVG/1.1/DTD/svg11.dtd">
<svg version="1.1" id="Layer_1" xmlns="http://www.w3.org/2000/svg" xmlns:xlink="http://www.w3.org/1999/xlink" x="0px" y="0px"
	 width="48px" height="48px" viewBox="0 0 48 48" enable-background="new 0 0 48 48" xml:space="preserve">
<path fill="#444444" d="M8.59961,5.2002C8.29688,4.97168,7.89062,4.93652,7.55273,5.10547C7.21387,5.27539,7,5.62109,7,6v36
	c0,0.37891,0.21387,0.72461,0.55273,0.89453C7.69434,42.96484,7.84766,43,8,43c0.21191,0,0.42383-0.06738,0.59961-0.2002l24-18
	C32.85156,24.61133,33,24.31445,33,24s-0.14844-0.61133-0.40039-0.7998L8.59961,5.2002z"/>
<path fill="#B3B3B3" d="M40,5c-0.55273,0-1,0.44727-1,1v36c0,0.55273,0.44727,1,1,1s1-0.44727,1-1V6C41,5.44727,40.55273,5,40,5z"/>
</svg>
