<?xml version="1.0" encoding="utf-8"?>
<!-- Generator: Adobe Illustrator 19.2.0, SVG Export Plug-In . SVG Version: 6.00 Build 0)  -->
<!DOCTYPE svg PUBLIC "-//W3C//DTD SVG 1.1//EN" "http://www.w3.org/Graphics/SVG/1.1/DTD/svg11.dtd">
<svg version="1.1" id="Layer_1" xmlns="http://www.w3.org/2000/svg" xmlns:xlink="http://www.w3.org/1999/xlink" x="0px" y="0px"
	 width="48px" height="48px" viewBox="0 0 48 48" enable-background="new 0 0 48 48" xml:space="preserve">
<path fill="#444444" d="M32.44727,5.10547C32.10742,4.9375,31.70264,4.97168,31.3999,5.2002l-24,18
	C7.14795,23.38867,7,23.68555,7,24s0.14795,0.61133,0.3999,0.7998l24,18C31.57666,42.93262,31.7876,43,32,43
	c0.15234,0,0.30566-0.03516,0.44727-0.10547C32.78613,42.72461,33,42.37891,33,42V6C33,5.62109,32.78613,5.27539,32.44727,5.10547z"
	/>
<path fill="#B3B3B3" d="M38,5c-0.55225,0-1,0.44727-1,1v36c0,0.55273,0.44775,1,1,1s1-0.44727,1-1V6C39,5.44727,38.55225,5,38,5z"/>
</svg>
