<?xml version="1.0" encoding="utf-8"?>
<!-- Generator: Adobe Illustrator 19.2.0, SVG Export Plug-In . SVG Version: 6.00 Build 0)  -->
<!DOCTYPE svg PUBLIC "-//W3C//DTD SVG 1.1//EN" "http://www.w3.org/Graphics/SVG/1.1/DTD/svg11.dtd">
<svg version="1.1" id="Layer_1" xmlns="http://www.w3.org/2000/svg" xmlns:xlink="http://www.w3.org/1999/xlink" x="0px" y="0px"
	 width="48px" height="48px" viewBox="0 0 48 48" enable-background="new 0 0 48 48" xml:space="preserve">
<path fill="#E6E6E6" d="M1,43c0,1.10455,0.89545,2,2,2h42c1.10455,0,2-0.89545,2-2V11H1V43z"/>
<path fill="#B3B3B3" d="M45,3H3C1.89545,3,1,3.89539,1,5v6h46V5C47,3.89539,46.10455,3,45,3z"/>
<path fill="#E6E6E6" d="M10,8H6C5.44775,8,5,7.55273,5,7s0.44775-1,1-1h4c0.55225,0,1,0.44727,1,1S10.55225,8,10,8z"/>
<path fill="#444444" d="M38.38177,19.07697C38.2597,19.02649,38.13007,19,38,19H26c-0.55273,0-1,0.44727-1,1s0.44727,1,1,1h9.58594
	L23.29297,33.29297c-0.39062,0.39062-0.39062,1.02344,0,1.41406C23.48828,34.90234,23.74414,35,24,35
	s0.51172-0.09766,0.70703-0.29297L37,22.41406V32c0,0.55273,0.44727,1,1,1s1-0.44727,1-1V20
	c0-0.13007-0.02649-0.2597-0.07697-0.38177C38.82172,19.37317,38.62683,19.17828,38.38177,19.07697z"/>
</svg>
