<?xml version="1.0" encoding="utf-8"?>
<!-- Generator: Adobe Illustrator 19.2.0, SVG Export Plug-In . SVG Version: 6.00 Build 0)  -->
<!DOCTYPE svg PUBLIC "-//W3C//DTD SVG 1.1//EN" "http://www.w3.org/Graphics/SVG/1.1/DTD/svg11.dtd">
<svg version="1.1" id="Layer_1" xmlns="http://www.w3.org/2000/svg" xmlns:xlink="http://www.w3.org/1999/xlink" x="0px" y="0px"
	 width="48px" height="48px" viewBox="0 0 48 48" enable-background="new 0 0 48 48" xml:space="preserve">
<path fill="#335262" d="M42,24c0,5.52285-4.47715,10-10,10H8.82849l4.58557-4.58594l-2.82812-2.82812l-8,8
	c-0.78097,0.78096-0.78097,2.04716,0,2.82812l8,8l2.82812-2.82812L8.82849,38H32c7.73199,0,14-6.26801,14-14v-1
	c0-0.55228-0.44772-1-1-1h-2c-0.55228,0-1,0.44772-1,1V24z"/>
<path fill="#E86C60" d="M37.41406,2.58594l-2.82812,2.82812L39.17151,10H16C8.26801,10,2,16.26801,2,24v1c0,0.55228,0.44772,1,1,1h2
	c0.55228,0,1-0.44772,1-1v-1c0-5.52285,4.47715-10,10-10h23.17151l-4.58557,4.58594l2.82812,2.82812l8-8
	c0.78096-0.78096,0.78096-2.04716,0-2.82812L37.41406,2.58594z"/>
</svg>
