<?xml version="1.0" encoding="utf-8"?>
<!-- Generator: Adobe Illustrator 19.2.0, SVG Export Plug-In . SVG Version: 6.00 Build 0)  -->
<!DOCTYPE svg PUBLIC "-//W3C//DTD SVG 1.1//EN" "http://www.w3.org/Graphics/SVG/1.1/DTD/svg11.dtd">
<svg version="1.1" id="Layer_1" xmlns="http://www.w3.org/2000/svg" xmlns:xlink="http://www.w3.org/1999/xlink" x="0px" y="0px"
	 width="48px" height="48px" viewBox="0 0 48 48" enable-background="new 0 0 48 48" xml:space="preserve">
<path fill="#EA9860" d="M45,1H3C1.89543,1,1,1.89543,1,3v42c0,1.10457,0.89543,2,2,2h42c1.10457,0,2-0.89543,2-2V3
	C47,1.89543,46.10457,1,45,1z"/>
<path fill="#FFFFFF" d="M38,25c-0.55273,0-1,0.44775-1,1v9.58594L24.70703,23.29297c-0.39062-0.39062-1.02344-0.39062-1.41406,0
	s-0.39062,1.02344,0,1.41406L35.58594,37H26c-0.55273,0-1,0.44775-1,1s0.44727,1,1,1h12c0.13019,0,0.25989-0.02655,0.38208-0.07709
	c0.24475-0.10138,0.43958-0.29626,0.54089-0.54102C38.97351,38.25977,39,38.13013,39,38V26C39,25.44775,38.55273,25,38,25z"/>
</svg>
