<?xml version="1.0" encoding="utf-8"?>
<!-- Generator: Adobe Illustrator 19.2.0, SVG Export Plug-In . SVG Version: 6.00 Build 0)  -->
<!DOCTYPE svg PUBLIC "-//W3C//DTD SVG 1.1//EN" "http://www.w3.org/Graphics/SVG/1.1/DTD/svg11.dtd">
<svg version="1.1" id="Layer_1" xmlns="http://www.w3.org/2000/svg" xmlns:xlink="http://www.w3.org/1999/xlink" x="0px" y="0px"
	 width="48px" height="48px" viewBox="0 0 48 48" enable-background="new 0 0 48 48" xml:space="preserve">
<path fill="#BADEFC" d="M38.86328,22.04102C37.89062,14.09766,31.08887,8,23,8C14.69922,8,7.84277,14.31787,7.08789,22.51074
	C3.46875,23.74561,1,27.13867,1,31c0,4.9624,4.03711,9,9,9h28c4.96289,0,9-4.0376,9-9
	C47,26.32861,43.42285,22.47705,38.86328,22.04102z"/>
<path fill="#223E49" d="M17.51074,25.76904h-2c0-4.68115,3.80859-8.48975,8.48926-8.48975
	c3.26855,0,6.19238,1.82471,7.62988,4.76221l-1.79688,0.87891C28.73438,20.67432,26.49902,19.2793,24,19.2793
	C20.42188,19.2793,17.51074,22.19043,17.51074,25.76904z"/>
<path fill="#223E49" d="M24,34.51514c-3.27051,0-6.19531-1.82666-7.63184-4.76758l1.79688-0.87793
	c1.09863,2.24854,3.33398,3.64551,5.83496,3.64551c3.57812,0,6.48926-2.91113,6.48926-6.48926h2
	C32.48926,30.70703,28.68066,34.51514,24,34.51514z"/>
<polygon fill="#223E49" points="30.95126,18 30.7365,22.48857 26.24793,22.27382 "/>
<path fill="#223E49" d="M30.73633,23.48877c-0.01562,0-0.03223-0.00049-0.04785-0.00098l-4.48828-0.21484
	c-0.4043-0.01953-0.75684-0.28027-0.89355-0.66113c-0.13672-0.38037-0.03027-0.80615,0.26855-1.07812l4.70312-4.27393
	c0.2998-0.27148,0.73145-0.3374,1.09961-0.16406c0.36523,0.17236,0.5918,0.54834,0.57227,0.95215l-0.21484,4.48877
	c-0.0127,0.26465-0.12988,0.51367-0.32617,0.69238C31.22461,23.39648,30.98438,23.48877,30.73633,23.48877z M28.70703,21.39062
	l1.07812,0.05127l0.05176-1.07812L28.70703,21.39062z"/>
<polygon fill="#223E49" points="17.24029,33.79971 17.2635,29.30606 21.75715,29.32927 "/>
<path fill="#223E49" d="M17.24023,34.7998c-0.13086,0-0.2627-0.02539-0.3877-0.07812
	c-0.37305-0.15674-0.61426-0.52246-0.6123-0.92725l0.02344-4.49365c0.00293-0.55029,0.4502-0.99463,1-0.99463
	c0.00195,0,0.00293,0,0.00488,0l4.49316,0.02295c0.4043,0.00195,0.76855,0.24756,0.9209,0.62207
	c0.15332,0.37451,0.06543,0.8042-0.22266,1.08887l-4.5166,4.4707C17.75293,34.69971,17.49805,34.7998,17.24023,34.7998z
	 M18.25879,30.31104l-0.00586,1.07959l1.08496-1.07373L18.25879,30.31104z"/>
</svg>
