<?xml version="1.0" encoding="utf-8"?>
<!-- Generator: Adobe Illustrator 19.2.0, SVG Export Plug-In . SVG Version: 6.00 Build 0)  -->
<!DOCTYPE svg PUBLIC "-//W3C//DTD SVG 1.1//EN" "http://www.w3.org/Graphics/SVG/1.1/DTD/svg11.dtd">
<svg version="1.1" id="Layer_1" xmlns="http://www.w3.org/2000/svg" xmlns:xlink="http://www.w3.org/1999/xlink" x="0px" y="0px"
	 width="48px" height="48px" viewBox="0 0 48 48" enable-background="new 0 0 48 48" xml:space="preserve">
<path fill="#444444" d="M23.2002,32.59961C23.38867,32.85156,23.68555,33,24,33s0.61133-0.14844,0.7998-0.40039l18-24
	c0.22754-0.30273,0.26367-0.70801,0.09473-1.04688C42.72461,7.21387,42.37891,7,42,7H6C5.62109,7,5.27539,7.21387,5.10547,7.55273
	C4.93652,7.8916,4.97266,8.29688,5.2002,8.59961L23.2002,32.59961z"/>
<path fill="#B3B3B3" d="M42,39H6c-0.55273,0-1,0.44727-1,1s0.44727,1,1,1h36c0.55273,0,1-0.44727,1-1S42.55273,39,42,39z"/>
</svg>
