<?xml version="1.0" encoding="utf-8"?>
<!-- Generator: Adobe Illustrator 19.2.0, SVG Export Plug-In . SVG Version: 6.00 Build 0)  -->
<!DOCTYPE svg PUBLIC "-//W3C//DTD SVG 1.1//EN" "http://www.w3.org/Graphics/SVG/1.1/DTD/svg11.dtd">
<svg version="1.1" id="Layer_1" xmlns="http://www.w3.org/2000/svg" xmlns:xlink="http://www.w3.org/1999/xlink" x="0px" y="0px"
	 width="48px" height="48px" viewBox="0 0 48 48" enable-background="new 0 0 48 48" xml:space="preserve">
<path fill="#E86C60" d="M36.75293,11.34131c-0.38086-0.43359-1.125-0.43359-1.50586,0l-7,8
	c-0.25781,0.29541-0.32031,0.71484-0.15723,1.07178C28.25195,20.77051,28.60742,21,29,21h5v4.81877
	c0,3.03056-1.71223,5.80102-4.42285,7.15632L26,34.76367V11h5c0.39258,0,0.74805-0.22949,0.91016-0.58691
	c0.16309-0.35693,0.10059-0.77637-0.15723-1.07178l-7-8c-0.38086-0.43359-1.125-0.43359-1.50586,0l-7,8
	c-0.25781,0.29541-0.32031,0.71484-0.15723,1.07178C16.25195,10.77051,16.60742,11,17,11h5v27v0.76367l-3.57809-1.78904
	C15.71187,35.61961,14,32.84974,14,29.81982V26h5c0.39258,0,0.74805-0.22949,0.91016-0.58691
	c0.16309-0.35693,0.10059-0.77637-0.15723-1.07178l-7-8c-0.38086-0.43359-1.125-0.43359-1.50586,0l-7,8
	c-0.25781,0.29541-0.32031,0.71484-0.15723,1.07178C4.25195,25.77051,4.60742,26,5,26h5v3.81982
	c0,4.54564,2.56841,8.70108,6.6343,10.73365L22,43.23584V45c0,0.55228,0.44772,1,1,1h2c0.55228,0,1-0.44772,1-1v-3v-2.76416
	l5.3657-2.68236C35.43159,34.5209,38,30.36546,38,25.81982V21h5c0.39258,0,0.74805-0.22949,0.91016-0.58691
	c0.16309-0.35693,0.10059-0.77637-0.15723-1.07178L36.75293,11.34131z"/>
</svg>
