<?xml version="1.0" encoding="utf-8"?>
<!-- Generator: Adobe Illustrator 19.2.0, SVG Export Plug-In . SVG Version: 6.00 Build 0)  -->
<!DOCTYPE svg PUBLIC "-//W3C//DTD SVG 1.1//EN" "http://www.w3.org/Graphics/SVG/1.1/DTD/svg11.dtd">
<svg version="1.1" id="Layer_1" xmlns="http://www.w3.org/2000/svg" xmlns:xlink="http://www.w3.org/1999/xlink" x="0px" y="0px"
	 width="48px" height="48px" viewBox="0 0 48 48" enable-background="new 0 0 48 48" xml:space="preserve">
<path fill="#B3B3B3" d="M40,47H2c-0.55225,0-1-0.44727-1-1V14c0-0.55273,0.44775-1,1-1h6c0.55225,0,1,0.44727,1,1s-0.44775,1-1,1H3
	v30h36V32c0-0.55273,0.44775-1,1-1s1,0.44727,1,1v14C41,46.55273,40.55225,47,40,47z"/>
<path fill="#72C472" d="M43.13991,19.24742L29.6585,7.45119C29.01192,6.88543,28,7.34461,28,8.20377V14
	c-10.41667,0-18,3.83333-18,20c3.75-4.91667,7.33333-8.08333,18-8v5.79623c0,0.85916,1.01192,1.31833,1.6585,0.75258
	l13.48141-11.79623C43.59524,20.35417,43.59524,19.64583,43.13991,19.24742z"/>
</svg>
