<?xml version="1.0" encoding="utf-8"?>
<!-- Generator: Adobe Illustrator 19.2.0, SVG Export Plug-In . SVG Version: 6.00 Build 0)  -->
<!DOCTYPE svg PUBLIC "-//W3C//DTD SVG 1.1//EN" "http://www.w3.org/Graphics/SVG/1.1/DTD/svg11.dtd">
<svg version="1.1" id="Layer_1" xmlns="http://www.w3.org/2000/svg" xmlns:xlink="http://www.w3.org/1999/xlink" x="0px" y="0px"
	 width="48px" height="48px" viewBox="0 0 48 48" enable-background="new 0 0 48 48" xml:space="preserve">
<path fill="#72C472" d="M33.41406,12.58594l-2.82812,2.82812L37.17151,22H15c-0.55229,0-1,0.44772-1,1v2c0,0.55228,0.44771,1,1,1
	h22.17151l-6.58557,6.58594l2.82812,2.82812l10-10c0.78096-0.78097,0.78096-2.04716,0-2.82812L33.41406,12.58594z"/>
<path fill="#B3B3B3" d="M6,9c-0.55225,0-1,0.44775-1,1v28c0,0.55225,0.44775,1,1,1s1-0.44775,1-1V10C7,9.44775,6.55225,9,6,9z"/>
</svg>
