<?xml version="1.0" encoding="utf-8"?>
<!-- Generator: Adobe Illustrator 19.2.0, SVG Export Plug-In . SVG Version: 6.00 Build 0)  -->
<!DOCTYPE svg PUBLIC "-//W3C//DTD SVG 1.1//EN" "http://www.w3.org/Graphics/SVG/1.1/DTD/svg11.dtd">
<svg version="1.1" id="Layer_1" xmlns="http://www.w3.org/2000/svg" xmlns:xlink="http://www.w3.org/1999/xlink" x="0px" y="0px"
	 width="48px" height="48px" viewBox="0 0 48 48" enable-background="new 0 0 48 48" xml:space="preserve">
<path fill="#72C472" d="M38,17H23V8c0-0.39355-0.23145-0.75098-0.59082-0.91211c-0.35645-0.16113-0.7793-0.09717-1.07324,0.16455
	l-18,16C3.12207,23.44238,3,23.71436,3,24s0.12207,0.55762,0.33594,0.74756l18,16C21.52246,40.91357,21.75977,41,22,41
	c0.13867,0,0.27832-0.02881,0.40918-0.08789C22.76855,40.75098,23,40.39355,23,40v-9h15c3.85938,0,7-3.14014,7-7S41.85938,17,38,17z
	"/>
</svg>
