<?xml version="1.0" encoding="utf-8"?>
<!-- Generator: Adobe Illustrator 19.2.1, SVG Export Plug-In . SVG Version: 6.00 Build 0)  -->
<!DOCTYPE svg PUBLIC "-//W3C//DTD SVG 1.1//EN" "http://www.w3.org/Graphics/SVG/1.1/DTD/svg11.dtd">
<svg version="1.1" id="Layer_1" xmlns="http://www.w3.org/2000/svg" xmlns:xlink="http://www.w3.org/1999/xlink" x="0px" y="0px"
	 width="48px" height="48px" viewBox="0 0 48 48" enable-background="new 0 0 48 48" xml:space="preserve">
<path fill="#444444" d="M12.829,17L10,14.172l-8.414,8.414c-0.781,0.781-0.781,2.047,0,2.828L10,33.828L12.829,31l-5-5H17v-4H7.829
	L12.829,17z"/>
<path fill="#444444" d="M46.414,22.586L38,14.172L35.171,17l5,5H31v4h9.171l-5,5L38,33.828l8.414-8.414
	C47.195,24.633,47.195,23.367,46.414,22.586z"/>
<path fill="#EA9860" d="M24,32c-4.411,0-8-3.589-8-8s3.589-8,8-8s8,3.589,8,8S28.411,32,24,32z"/>
</svg>
