<?xml version="1.0" encoding="utf-8"?>
<!-- Generator: Adobe Illustrator 19.2.0, SVG Export Plug-In . SVG Version: 6.00 Build 0)  -->
<!DOCTYPE svg PUBLIC "-//W3C//DTD SVG 1.1//EN" "http://www.w3.org/Graphics/SVG/1.1/DTD/svg11.dtd">
<svg version="1.1" id="Layer_1" xmlns="http://www.w3.org/2000/svg" xmlns:xlink="http://www.w3.org/1999/xlink" x="0px" y="0px"
	 width="48px" height="48px" viewBox="0 0 48 48" enable-background="new 0 0 48 48" xml:space="preserve">
<path fill="#335262" d="M44.43359,7.09863C44.08594,6.93359,43.6748,6.979,43.375,7.21924L24,22.71924l-19.375-15.5
	C4.32422,6.97803,3.91211,6.93311,3.56641,7.09863C3.2207,7.26514,3,7.61572,3,8v16c0,0.30371,0.1377,0.59131,0.375,0.78076l20,16
	C23.55762,40.92676,23.7793,41,24,41s0.44238-0.07324,0.625-0.21924l20-16C44.8623,24.59131,45,24.30371,45,24V8
	C45,7.61572,44.7793,7.26514,44.43359,7.09863z"/>
</svg>
