<?xml version="1.0" encoding="utf-8"?>
<!-- Generator: Adobe Illustrator 19.1.0, SVG Export Plug-In . SVG Version: 6.00 Build 0)  -->
<!DOCTYPE svg PUBLIC "-//W3C//DTD SVG 1.1//EN" "http://www.w3.org/Graphics/SVG/1.1/DTD/svg11.dtd">
<svg version="1.1" id="Layer_1" xmlns="http://www.w3.org/2000/svg" xmlns:xlink="http://www.w3.org/1999/xlink" x="0px" y="0px"
	 width="16px" height="16px" viewBox="0 0 16 16" enable-background="new 0 0 16 16" xml:space="preserve">
<path fill="#444444" d="M14.4,1.6c-1-1-2.3-1.6-3.8-1.6C9.3,0,7.9,0.6,6.9,1.6v0c-1,1-1.6,2.3-1.6,3.8c0,1.4,0.6,2.8,1.6,3.8
	c1,1,2.4,1.6,3.8,1.6s2.7-0.5,3.8-1.6C16.5,7,16.5,3.6,14.4,1.6z"/>
<path data-color="color-2" fill="#444444" d="M5.5,10.5C4.7,9.7,4.1,8.7,3.8,7.7l-3.6,4.6c-0.3,0.4-0.3,1,0.1,1.3l2,2
	c0.4,0.4,0.9,0.4,1.3,0.1l4.6-3.6C7.3,11.9,6.3,11.3,5.5,10.5z"/>
</svg>
