<?xml version="1.0" encoding="utf-8"?>
<!-- Generator: Adobe Illustrator 19.1.0, SVG Export Plug-In . SVG Version: 6.00 Build 0)  -->
<!DOCTYPE svg PUBLIC "-//W3C//DTD SVG 1.1//EN" "http://www.w3.org/Graphics/SVG/1.1/DTD/svg11.dtd">
<svg version="1.1" id="Layer_1" xmlns="http://www.w3.org/2000/svg" xmlns:xlink="http://www.w3.org/1999/xlink" x="0px" y="0px"
	 width="16px" height="16px" viewBox="0 0 16 16" enable-background="new 0 0 16 16" xml:space="preserve">
<path fill="#444444" d="M15,8.7V5c0-2.8-2.2-5-5-5H6C3.2,0,1,2.2,1,5v3.7c-0.6,0.8-1,1.7-1,2.8C0,14,2,16,4.5,16
	c0.7,0,1.3-0.2,1.9-0.4C6.8,15.4,7,15,7,14.7V8.3C7,8,6.8,7.6,6.4,7.4C5.8,7.2,5.2,7,4.5,7C4,7,3.5,7.1,3,7.3V5c0-1.7,1.3-3,3-3h4
	c1.7,0,3,1.3,3,3v2.3C12.5,7.1,12,7,11.5,7c-0.7,0-1.3,0.2-1.9,0.4C9.2,7.6,9,8,9,8.3v6.3c0,0.4,0.2,0.7,0.6,0.9
	c0.6,0.3,1.3,0.4,1.9,0.4c2.5,0,4.5-2,4.5-4.5C16,10.4,15.6,9.5,15,8.7z M5,9.1v4.9c-1.5,0.3-3-0.9-3-2.4C2,9.9,3.5,8.7,5,9.1z
	 M11,13.9V9.1c1.5-0.3,3,0.9,3,2.4C14,13,12.5,14.3,11,13.9z"/>
</svg>
