<?xml version="1.0" encoding="utf-8"?>
<!-- Generator: Adobe Illustrator 19.1.0, SVG Export Plug-In . SVG Version: 6.00 Build 0)  -->
<!DOCTYPE svg PUBLIC "-//W3C//DTD SVG 1.1//EN" "http://www.w3.org/Graphics/SVG/1.1/DTD/svg11.dtd">
<svg version="1.1" id="Layer_1" xmlns="http://www.w3.org/2000/svg" xmlns:xlink="http://www.w3.org/1999/xlink" x="0px" y="0px"
	 width="16px" height="16px" viewBox="0 0 16 16" enable-background="new 0 0 16 16" xml:space="preserve">
<rect data-color="color-2" fill="#444444" width="2" height="16"/>
<rect data-color="color-2" x="14" fill="#444444" width="2" height="16"/>
<path fill="#444444" d="M11,7H5C4.4,7,4,6.6,4,6V1c0-0.6,0.4-1,1-1h6c0.6,0,1,0.4,1,1v5C12,6.6,11.6,7,11,7z M6,5h4V2H6V5z"/>
<path fill="#444444" d="M11,16H5c-0.6,0-1-0.4-1-1v-5c0-0.6,0.4-1,1-1h6c0.6,0,1,0.4,1,1v5C12,15.6,11.6,16,11,16z M6,14h4v-3H6V14z
	"/>
</svg>
