<?xml version="1.0" encoding="utf-8"?>
<!-- Generator: Adobe Illustrator 19.1.0, SVG Export Plug-In . SVG Version: 6.00 Build 0)  -->
<!DOCTYPE svg PUBLIC "-//W3C//DTD SVG 1.1//EN" "http://www.w3.org/Graphics/SVG/1.1/DTD/svg11.dtd">
<svg version="1.1" id="Layer_1" xmlns="http://www.w3.org/2000/svg" xmlns:xlink="http://www.w3.org/1999/xlink" x="0px" y="0px"
	 width="16px" height="16px" viewBox="0 0 16 16" enable-background="new 0 0 16 16" xml:space="preserve">
<path fill="#444444" d="M14.6,0.1L9.8,2H1C0.4,2,0,2.4,0,3v10c0,0.6,0.4,1,1,1h8.8l4.8,1.9c0.6,0.3,1.4-0.2,1.4-0.9V1
	C16,0.3,15.3-0.2,14.6,0.1z M2,4h7v8H2V4z M14,13.5l-3-1.2V3.7l3-1.2V13.5z"/>
<rect data-color="color-2" x="4" y="6" fill="#444444" width="3" height="1"/>
<rect data-color="color-2" x="4" y="9" fill="#444444" width="3" height="1"/>
</svg>
