<?xml version="1.0" encoding="utf-8"?>
<!-- Generator: Adobe Illustrator 19.1.0, SVG Export Plug-In . SVG Version: 6.00 Build 0)  -->
<!DOCTYPE svg PUBLIC "-//W3C//DTD SVG 1.1//EN" "http://www.w3.org/Graphics/SVG/1.1/DTD/svg11.dtd">
<svg version="1.1" id="Layer_1" xmlns="http://www.w3.org/2000/svg" xmlns:xlink="http://www.w3.org/1999/xlink" x="0px" y="0px"
	 width="16px" height="16px" viewBox="0 0 16 16" enable-background="new 0 0 16 16" xml:space="preserve">
<circle data-color="color-2" fill="#444444" cx="8" cy="8" r="3"/>
<path fill="#444444" d="M2,8c0-1.6,0.6-3.1,1.8-4.3c0.4-0.4,0.4-1,0-1.4c-0.4-0.4-1-0.4-1.4,0C0.9,3.8,0,5.8,0,8
	c0,2.2,0.9,4.2,2.4,5.7C2.6,13.9,2.9,14,3.1,14c0.3,0,0.5-0.1,0.7-0.3c0.4-0.4,0.4-1,0-1.4C2.6,11.1,2,9.6,2,8z"/>
<path fill="#444444" d="M13.6,2.3c-0.4-0.4-1-0.4-1.4,0c-0.4,0.4-0.4,1,0,1.4C13.4,4.9,14,6.4,14,8c0,1.6-0.6,3.1-1.8,4.3
	c-0.4,0.4-0.4,1,0,1.4c0.2,0.2,0.5,0.3,0.7,0.3c0.3,0,0.5-0.1,0.7-0.3C15.1,12.2,16,10.2,16,8C16,5.8,15.1,3.8,13.6,2.3z"/>
</svg>
