<?xml version="1.0" encoding="utf-8"?>
<!-- Generator: Adobe Illustrator 19.1.0, SVG Export Plug-In . SVG Version: 6.00 Build 0)  -->
<!DOCTYPE svg PUBLIC "-//W3C//DTD SVG 1.1//EN" "http://www.w3.org/Graphics/SVG/1.1/DTD/svg11.dtd">
<svg version="1.1" id="Layer_1" xmlns="http://www.w3.org/2000/svg" xmlns:xlink="http://www.w3.org/1999/xlink" x="0px" y="0px"
	 width="16px" height="16px" viewBox="0 0 16 16" enable-background="new 0 0 16 16" xml:space="preserve">
<path fill="#444444" d="M15,4h-2.5l-1.7-2.6C10.6,1.2,10.3,1,10,1H6C5.7,1,5.4,1.2,5.2,1.4L3.5,4H1C0.4,4,0,4.4,0,5v9
	c0,0.6,0.4,1,1,1h14c0.6,0,1-0.4,1-1V5C16,4.4,15.6,4,15,4z M11,10H7V6h2v2h2V10z"/>
</svg>
