<?xml version="1.0" encoding="utf-8"?>
<!-- Generator: Adobe Illustrator 19.1.0, SVG Export Plug-In . SVG Version: 6.00 Build 0)  -->
<!DOCTYPE svg PUBLIC "-//W3C//DTD SVG 1.1//EN" "http://www.w3.org/Graphics/SVG/1.1/DTD/svg11.dtd">
<svg version="1.1" id="Layer_1" xmlns="http://www.w3.org/2000/svg" xmlns:xlink="http://www.w3.org/1999/xlink" x="0px" y="0px"
	 width="16px" height="16px" viewBox="0 0 16 16" enable-background="new 0 0 16 16" xml:space="preserve">
<path data-color="color-2" fill="#444444" d="M1.8,8.4C1.2,7.6,0,8.1,0,9v6c0,0.6,0.4,1,1,1h5c0.8,0,1.3-1,0.8-1.6L1.8,8.4z"/>
<path data-color="color-2" fill="#444444" d="M14.2,8.4l-5,6C8.7,15,9.2,16,10,16h5c0.6,0,1-0.4,1-1V9C16,8.1,14.8,7.6,14.2,8.4z"/>
<path fill="#444444" d="M5,8h6c0.6,0,1-0.4,1-1V1c0-0.6-0.4-1-1-1H5C4.4,0,4,0.4,4,1v6C4,7.6,4.4,8,5,8z"/>
</svg>
