<?xml version="1.0" encoding="utf-8"?>
<!-- Generator: Adobe Illustrator 19.1.0, SVG Export Plug-In . SVG Version: 6.00 Build 0)  -->
<!DOCTYPE svg PUBLIC "-//W3C//DTD SVG 1.1//EN" "http://www.w3.org/Graphics/SVG/1.1/DTD/svg11.dtd">
<svg version="1.1" id="Layer_1" xmlns="http://www.w3.org/2000/svg" xmlns:xlink="http://www.w3.org/1999/xlink" x="0px" y="0px"
	 width="16px" height="16px" viewBox="0 0 16 16" enable-background="new 0 0 16 16" xml:space="preserve">
<path data-color="color-2" fill="#444444" d="M9.4,6.6c0.8,0.8,0.8,2,0,2.8c-0.8,0.8-2,0.8-2.8,0C5.8,8.6,1.6,1.6,1.6,1.6S8.6,5.8,9.4,6.6
	z"/>
<path fill="#444444" d="M8,16c-4.4,0-8-3.6-8-8c0-0.6,0.4-1,1-1s1,0.4,1,1c0,3.3,2.7,6,6,6s6-2.7,6-6s-2.7-6-6-6C7.4,2,7,1.6,7,1
	s0.4-1,1-1c4.4,0,8,3.6,8,8S12.4,16,8,16z"/>
</svg>
