<?xml version="1.0" encoding="utf-8"?>
<!-- Generator: Adobe Illustrator 19.1.0, SVG Export Plug-In . SVG Version: 6.00 Build 0)  -->
<!DOCTYPE svg PUBLIC "-//W3C//DTD SVG 1.1//EN" "http://www.w3.org/Graphics/SVG/1.1/DTD/svg11.dtd">
<svg version="1.1" id="Layer_1" xmlns="http://www.w3.org/2000/svg" xmlns:xlink="http://www.w3.org/1999/xlink" x="0px" y="0px"
	 width="16px" height="16px" viewBox="0 0 16 16" enable-background="new 0 0 16 16" xml:space="preserve">
<path fill="#444444" d="M14,0H2C1.4,0,1,0.4,1,1v14c0,0.6,0.4,1,1,1h12c0.6,0,1-0.4,1-1V1C15,0.4,14.6,0,14,0z M13,12H3V2h10V12z"/>
<polygon data-color="color-2" fill="#444444" points="7,10 9,10 9,8 11,8 11,6 9,6 9,4 7,4 7,6 5,6 5,8 7,8 "/>
</svg>
