<?xml version="1.0" encoding="utf-8"?>
<!-- Generator: Adobe Illustrator 19.1.0, SVG Export Plug-In . SVG Version: 6.00 Build 0)  -->
<!DOCTYPE svg PUBLIC "-//W3C//DTD SVG 1.1//EN" "http://www.w3.org/Graphics/SVG/1.1/DTD/svg11.dtd">
<svg version="1.1" id="Layer_1" xmlns="http://www.w3.org/2000/svg" xmlns:xlink="http://www.w3.org/1999/xlink" x="0px" y="0px"
	 width="16px" height="16px" viewBox="0 0 16 16" enable-background="new 0 0 16 16" xml:space="preserve">
<path fill="#444444" d="M8,0C3.6,0,0,3.6,0,8s3.6,8,8,8s8-3.6,8-8S12.4,0,8,0z M9.1,9.8L7,9.8L5.9,8l1-1.8l2.1,0L10.1,8L9.1,9.8z
	 M2.4,5.9l2.3,3.9l-2.4,0C1.9,8.6,1.9,7.2,2.4,5.9z M11.3,6.2l2.4,0c0.4,1.3,0.4,2.6-0.1,3.9L11.3,6.2z M12.6,4.2l-4.5,0l1.2-2.1
	C10.6,2.4,11.8,3.1,12.6,4.2z M7,2.1L4.7,6L3.5,4C4.4,3,5.6,2.3,7,2.1z M3.4,11.8l4.5,0l-1.2,2.1C5.4,13.6,4.2,12.9,3.4,11.8z
	 M9,13.9l2.2-3.9l1.2,2C11.6,13,10.4,13.7,9,13.9z"/>
</svg>
