<?xml version="1.0" encoding="utf-8"?>
<!-- Generator: Adobe Illustrator 19.1.0, SVG Export Plug-In . SVG Version: 6.00 Build 0)  -->
<!DOCTYPE svg PUBLIC "-//W3C//DTD SVG 1.1//EN" "http://www.w3.org/Graphics/SVG/1.1/DTD/svg11.dtd">
<svg version="1.1" id="Layer_1" xmlns="http://www.w3.org/2000/svg" xmlns:xlink="http://www.w3.org/1999/xlink" x="0px" y="0px"
	 width="16px" height="16px" viewBox="0 0 16 16" enable-background="new 0 0 16 16" xml:space="preserve">
<path fill="#444444" d="M14,0H5C4.4,0,4,0.4,4,1v9.2C3.7,10.1,3.4,10,3,10c-1.7,0-3,1.3-3,3s1.3,3,3,3s3-1.3,3-3V5h7v3.2
	C12.7,8.1,12.4,8,12,8c-1.7,0-3,1.3-3,3s1.3,3,3,3s3-1.3,3-3V1C15,0.4,14.6,0,14,0z"/>
</svg>
