<?xml version="1.0" encoding="utf-8"?>
<!-- Generator: Adobe Illustrator 19.1.0, SVG Export Plug-In . SVG Version: 6.00 Build 0)  -->
<!DOCTYPE svg PUBLIC "-//W3C//DTD SVG 1.1//EN" "http://www.w3.org/Graphics/SVG/1.1/DTD/svg11.dtd">
<svg version="1.1" id="Layer_1" xmlns="http://www.w3.org/2000/svg" xmlns:xlink="http://www.w3.org/1999/xlink" x="0px" y="0px"
	 width="16px" height="16px" viewBox="0 0 16 16" enable-background="new 0 0 16 16" xml:space="preserve">
<rect data-color="color-2" x="5" y="6" fill="#444444" width="6" height="4"/>
<path fill="#444444" d="M14,3v1.5c-1.2,0.7-2,2-2,3.5s0.8,2.8,2,3.5V13H2v-1.5c1.2-0.7,2-2,2-3.5S3.2,5.2,2,4.5V3H14 M16,1H0v5
	c1.1,0,2,0.9,2,2c0,1.1-0.9,2-2,2v5h16v-5c-1.1,0-2-0.9-2-2c0-1.1,0.9-2,2-2V1L16,1z"/>
</svg>
