<?xml version="1.0" encoding="utf-8"?>
<!-- Generator: Adobe Illustrator 19.1.0, SVG Export Plug-In . SVG Version: 6.00 Build 0)  -->
<!DOCTYPE svg PUBLIC "-//W3C//DTD SVG 1.1//EN" "http://www.w3.org/Graphics/SVG/1.1/DTD/svg11.dtd">
<svg version="1.1" id="Layer_1" xmlns="http://www.w3.org/2000/svg" xmlns:xlink="http://www.w3.org/1999/xlink" x="0px" y="0px"
	 width="16px" height="16px" viewBox="0 0 16 16" enable-background="new 0 0 16 16" xml:space="preserve">
<path fill="#444444" d="M8,10c2.2,0,4-1.8,4-4V4c0-2.2-1.8-4-4-4S4,1.8,4,4v2C4,8.2,5.8,10,8,10z M6,4c0-1.1,0.9-2,2-2s2,0.9,2,2v2
	c0,1.1-0.9,2-2,2S6,7.1,6,6V4z"/>
<path data-color="color-2" fill="#444444" d="M15.9,7.1C16,6.6,15.6,6.1,15.1,6c-0.5-0.1-1.1,0.3-1.1,0.8C13.5,9.8,11,12,8,12
	S2.5,9.8,2.1,6.9C2,6.3,1.5,5.9,0.9,6C0.4,6.1,0,6.6,0.1,7.1c0.5,3.6,3.4,6.3,6.9,6.8V16h2v-2.1C12.5,13.5,15.4,10.7,15.9,7.1z"/>
</svg>
