<?xml version="1.0" encoding="utf-8"?>
<!-- Generator: Adobe Illustrator 19.1.0, SVG Export Plug-In . SVG Version: 6.00 Build 0)  -->
<!DOCTYPE svg PUBLIC "-//W3C//DTD SVG 1.1//EN" "http://www.w3.org/Graphics/SVG/1.1/DTD/svg11.dtd">
<svg version="1.1" id="Layer_1" xmlns="http://www.w3.org/2000/svg" xmlns:xlink="http://www.w3.org/1999/xlink" x="0px" y="0px"
	 width="16px" height="16px" viewBox="0 0 16 16" enable-background="new 0 0 16 16" xml:space="preserve">
<rect data-color="color-2" x="7" fill="#444444" width="2" height="2"/>
<rect data-color="color-2" x="11.9" y="2.1" transform="matrix(0.7069 0.7074 -0.7074 0.7069 5.9537 -8.2658)" fill="#444444" width="2" height="2"/>
<rect data-color="color-2" x="14" y="7" fill="#444444" width="2" height="2"/>
<rect data-color="color-2" x="11.9" y="11.9" transform="matrix(-0.7074 -0.7069 0.7069 -0.7074 12.956 31.2634)" fill="#444444" width="2" height="2"/>
<rect data-color="color-2" x="7" y="14" fill="#444444" width="2" height="2"/>
<rect data-color="color-2" x="2.1" y="11.9" transform="matrix(-0.7069 -0.7074 0.7074 -0.7069 -3.9536 24.261)" fill="#444444" width="2" height="2"/>
<rect data-color="color-2" y="7" fill="#444444" width="2" height="2"/>
<rect data-color="color-2" x="2.1" y="2.1" transform="matrix(0.7074 0.7069 -0.7069 0.7074 3.0488 -1.2635)" fill="#444444" width="2" height="2"/>
<path fill="#444444" d="M8,4C5.8,4,4,5.8,4,8s1.8,4,4,4s4-1.8,4-4S10.2,4,8,4z M6,8c0-1.1,0.9-2,2-2v4C6.9,10,6,9.1,6,8z"/>
</svg>
