<?xml version="1.0" encoding="utf-8"?>
<!-- Generator: Adobe Illustrator 19.1.0, SVG Export Plug-In . SVG Version: 6.00 Build 0)  -->
<!DOCTYPE svg PUBLIC "-//W3C//DTD SVG 1.1//EN" "http://www.w3.org/Graphics/SVG/1.1/DTD/svg11.dtd">
<svg version="1.1" id="Layer_1" xmlns="http://www.w3.org/2000/svg" xmlns:xlink="http://www.w3.org/1999/xlink" x="0px" y="0px"
	 width="16px" height="16px" viewBox="0 0 16 16" enable-background="new 0 0 16 16" xml:space="preserve">
<path fill="#444444" d="M16,7.8C16,4.1,13,1,9.3,1C5.8,1,3,4.1,3,8v0.9c-1,0.4-3,1.3-3,2.8c0,2.2,5.1,3.5,7.4,3.5
	c2.8,0,7.7-3.9,8.3-4.4c0,0,0,0,0,0c0.2-0.2,0.4-0.5,0.4-0.8V7.8z M2.1,11.6c0.3-0.2,0.8-0.5,1.3-0.8C3.9,11.2,5.4,12,9,12
	c0.5,0,1,0,1.4,0c-1.2,0.7-2.3,1.2-3.1,1.2C5.4,13.2,2.8,12.2,2.1,11.6z"/>
</svg>
