<?xml version="1.0" encoding="utf-8"?>
<!-- Generator: Adobe Illustrator 19.1.0, SVG Export Plug-In . SVG Version: 6.00 Build 0)  -->
<!DOCTYPE svg PUBLIC "-//W3C//DTD SVG 1.1//EN" "http://www.w3.org/Graphics/SVG/1.1/DTD/svg11.dtd">
<svg version="1.1" id="Layer_1" xmlns="http://www.w3.org/2000/svg" xmlns:xlink="http://www.w3.org/1999/xlink" x="0px" y="0px"
	 width="16px" height="16px" viewBox="0 0 16 16" enable-background="new 0 0 16 16" xml:space="preserve">
<path fill="#444444" d="M12,16H4c-0.6,0-1-0.4-1-1V8H1C0.4,8,0,7.6,0,7V2c0-0.4,0.2-0.7,0.6-0.9l2-1C2.7,0,2.8,0,3,0h2.2
	C5.6,0,6,0.3,6.1,0.7C6.4,1.5,7.2,2,8,2s1.6-0.5,1.9-1.3C10,0.3,10.4,0,10.8,0H13c0.2,0,0.3,0,0.4,0.1l2,1C15.8,1.3,16,1.6,16,2v5
	c0,0.6-0.4,1-1,1h-2v7C13,15.6,12.6,16,12,16z M5,14h6V7c0-0.6,0.4-1,1-1h2V2.6L12.8,2h-1.3c-0.7,1.2-2,2-3.5,2S5.3,3.2,4.5,2H3.2
	L2,2.6V6h2c0.6,0,1,0.4,1,1V14z"/>
</svg>
