<?xml version="1.0" encoding="utf-8"?>
<!-- Generator: Adobe Illustrator 19.1.0, SVG Export Plug-In . SVG Version: 6.00 Build 0)  -->
<!DOCTYPE svg PUBLIC "-//W3C//DTD SVG 1.1//EN" "http://www.w3.org/Graphics/SVG/1.1/DTD/svg11.dtd">
<svg version="1.1" id="Layer_1" xmlns="http://www.w3.org/2000/svg" xmlns:xlink="http://www.w3.org/1999/xlink" x="0px" y="0px"
	 width="16px" height="16px" viewBox="0 0 16 16" enable-background="new 0 0 16 16" xml:space="preserve">
<path fill="#444444" d="M12,0H4C3.4,0,3,0.4,3,1v10c0,0.6,0.4,1,1,1h8c0.6,0,1-0.4,1-1V1C13,0.4,12.6,0,12,0z"/>
<path data-color="color-2" fill="#444444" d="M13,16H3c-1.7,0-3-1.3-3-3c0-0.6,0.4-1,1-1s1,0.4,1,1c0,0.6,0.4,1,1,1h10c0.6,0,1-0.4,1-1
	c0-0.6,0.4-1,1-1s1,0.4,1,1C16,14.7,14.7,16,13,16z"/>
</svg>
