<?xml version="1.0" encoding="utf-8"?>
<!-- Generator: Adobe Illustrator 19.1.0, SVG Export Plug-In . SVG Version: 6.00 Build 0)  -->
<!DOCTYPE svg PUBLIC "-//W3C//DTD SVG 1.1//EN" "http://www.w3.org/Graphics/SVG/1.1/DTD/svg11.dtd">
<svg version="1.1" id="Layer_1" xmlns="http://www.w3.org/2000/svg" xmlns:xlink="http://www.w3.org/1999/xlink" x="0px" y="0px"
	 width="16px" height="16px" viewBox="0 0 16 16" enable-background="new 0 0 16 16" xml:space="preserve">
<path data-color="color-2" fill="#444444" d="M15,2V1c0-0.6-0.4-1-1-1H2C1.4,0,1,0.4,1,1v1H15z"/>
<path fill="#444444" d="M1,4v11c0,0.6,0.4,1,1,1h4c0.6,0,1-0.4,1-1v-5c0-0.6,0.4-1,1-1s1,0.4,1,1v5c0,0.6,0.4,1,1,1h4
	c0.6,0,1-0.4,1-1V4H1z"/>
</svg>
