<?xml version="1.0" encoding="utf-8"?>
<!-- Generator: Adobe Illustrator 19.1.0, SVG Export Plug-In . SVG Version: 6.00 Build 0)  -->
<!DOCTYPE svg PUBLIC "-//W3C//DTD SVG 1.1//EN" "http://www.w3.org/Graphics/SVG/1.1/DTD/svg11.dtd">
<svg version="1.1" id="Layer_1" xmlns="http://www.w3.org/2000/svg" xmlns:xlink="http://www.w3.org/1999/xlink" x="0px" y="0px"
	 width="16px" height="16px" viewBox="0 0 16 16" enable-background="new 0 0 16 16" xml:space="preserve">
<path fill="#444444" d="M10,14H6c-0.6,0-1-0.4-1-1v-2c0-1.1-0.9-2-2-2H1C0.4,9,0,8.6,0,8V3c0-0.6,0.4-1,1-1h14c0.6,0,1,0.4,1,1v5
	c0,0.6-0.4,1-1,1h-2c-1.1,0-2,0.9-2,2v2C11,13.6,10.6,14,10,14z M7,12h2v-1c0-2.2,1.8-4,4-4h1V4H2v3h1c2.2,0,4,1.8,4,4V12z"/>
</svg>
