<?xml version="1.0" encoding="utf-8"?>
<!-- Generator: Adobe Illustrator 19.1.0, SVG Export Plug-In . SVG Version: 6.00 Build 0)  -->
<!DOCTYPE svg PUBLIC "-//W3C//DTD SVG 1.1//EN" "http://www.w3.org/Graphics/SVG/1.1/DTD/svg11.dtd">
<svg version="1.1" id="Layer_1" xmlns="http://www.w3.org/2000/svg" xmlns:xlink="http://www.w3.org/1999/xlink" x="0px" y="0px"
	 width="16px" height="16px" viewBox="0 0 16 16" enable-background="new 0 0 16 16" xml:space="preserve">
<path fill="#444444" d="M12.9,3.9l-3,1.9C9.9,4.8,9,4,8,4S6.1,4.8,6,5.8l-3-1.9C1.7,3.1,0,4,0,5.6v4.8c0,1.6,1.7,2.5,3.1,1.7l3-1.9
	c0.1,1,1,1.8,2,1.8s1.9-0.8,2-1.8l3,1.9c1.3,0.8,3.1-0.1,3.1-1.7V5.6C16,4,14.3,3.1,12.9,3.9z"/>
</svg>
