<?xml version="1.0" encoding="utf-8"?>
<!-- Generator: Adobe Illustrator 19.1.0, SVG Export Plug-In . SVG Version: 6.00 Build 0)  -->
<!DOCTYPE svg PUBLIC "-//W3C//DTD SVG 1.1//EN" "http://www.w3.org/Graphics/SVG/1.1/DTD/svg11.dtd">
<svg version="1.1" id="Layer_1" xmlns="http://www.w3.org/2000/svg" xmlns:xlink="http://www.w3.org/1999/xlink" x="0px" y="0px"
	 width="16px" height="16px" viewBox="0 0 16 16" enable-background="new 0 0 16 16" xml:space="preserve">
<path fill="#444444" d="M14,1h-3v2h3v5H2V3h3V1H2C0.9,1,0,1.9,0,3v10c0,1.1,0.9,2,2,2h4c1.1,0,2-0.9,2-2c0,1.1,0.9,2,2,2h4
	c1.1,0,2-0.9,2-2V3C16,1.9,15.1,1,14,1z M6,13H2v-3h4V13z M14,13h-4v-3h4V13z"/>
</svg>
