<?xml version="1.0" encoding="utf-8"?>
<!-- Generator: Adobe Illustrator 19.1.0, SVG Export Plug-In . SVG Version: 6.00 Build 0)  -->
<!DOCTYPE svg PUBLIC "-//W3C//DTD SVG 1.1//EN" "http://www.w3.org/Graphics/SVG/1.1/DTD/svg11.dtd">
<svg version="1.1" id="Layer_1" xmlns="http://www.w3.org/2000/svg" xmlns:xlink="http://www.w3.org/1999/xlink" x="0px" y="0px"
	 width="16px" height="16px" viewBox="0 0 16 16" enable-background="new 0 0 16 16" xml:space="preserve">
<path data-color="color-2" fill="#444444" d="M15,12H1c-0.6,0-1,0.4-1,1v2c0,0.6,0.4,1,1,1h14c0.6,0,1-0.4,1-1v-2C16,12.4,15.6,12,15,12z"/>
<path fill="#444444" d="M14,10V8c0-2.6-1.7-4.8-4-5.7C10.2,1.1,9.2,0,8,0C6.8,0,5.8,1.1,6,2.3C3.7,3.2,2,5.4,2,8v2H14z"/>
</svg>
