<?xml version="1.0" encoding="utf-8"?>
<!-- Generator: Adobe Illustrator 19.1.0, SVG Export Plug-In . SVG Version: 6.00 Build 0)  -->
<!DOCTYPE svg PUBLIC "-//W3C//DTD SVG 1.1//EN" "http://www.w3.org/Graphics/SVG/1.1/DTD/svg11.dtd">
<svg version="1.1" id="Layer_1" xmlns="http://www.w3.org/2000/svg" xmlns:xlink="http://www.w3.org/1999/xlink" x="0px" y="0px"
	 width="16px" height="16px" viewBox="0 0 16 16" enable-background="new 0 0 16 16" xml:space="preserve">
<path fill="#444444" d="M15,2c-0.6,0-1,0.4-1,1v3.1c-3,0.3-5,2-6,3.2C7,8.1,5,6.4,2,6.1V3c0-0.6-0.4-1-1-1S0,2.4,0,3v10
	c0,0.6,0.4,1,1,1h14c0.6,0,1-0.4,1-1V3C16,2.4,15.6,2,15,2z M14,12H8H2V8.1c3.4,0.5,5.1,3.3,5.1,3.4C7.3,11.8,7.6,12,8,12
	c0.4,0,0.7-0.2,0.9-0.5c0,0,1.7-2.9,5.1-3.4V12z"/>
</svg>
