<?xml version="1.0" encoding="utf-8"?>
<!-- Generator: Adobe Illustrator 19.1.0, SVG Export Plug-In . SVG Version: 6.00 Build 0)  -->
<!DOCTYPE svg PUBLIC "-//W3C//DTD SVG 1.1//EN" "http://www.w3.org/Graphics/SVG/1.1/DTD/svg11.dtd">
<svg version="1.1" id="Layer_1" xmlns="http://www.w3.org/2000/svg" xmlns:xlink="http://www.w3.org/1999/xlink" x="0px" y="0px"
	 width="16px" height="16px" viewBox="0 0 16 16" enable-background="new 0 0 16 16" xml:space="preserve">
<path fill="#444444" d="M15,1h-2V0H3v1H1C0.4,1,0,1.4,0,2v13c0,0.6,0.4,1,1,1h14c0.6,0,1-0.4,1-1V2C16,1.4,15.6,1,15,1z M11,2L8,5
	L5,2H11z M2,3h1v5l4-1.6V14H2V3z M14,14H9V6.4L13,8V3h1V14z"/>
</svg>
