<?xml version="1.0" encoding="utf-8"?>
<!-- Generator: Adobe Illustrator 19.1.0, SVG Export Plug-In . SVG Version: 6.00 Build 0)  -->
<!DOCTYPE svg PUBLIC "-//W3C//DTD SVG 1.1//EN" "http://www.w3.org/Graphics/SVG/1.1/DTD/svg11.dtd">
<svg version="1.1" id="Layer_1" xmlns="http://www.w3.org/2000/svg" xmlns:xlink="http://www.w3.org/1999/xlink" x="0px" y="0px"
	 width="48px" height="48px" viewBox="0 0 48 48" enable-background="new 0 0 48 48" xml:space="preserve">
<path id="color_85_" d="M32,1H4C2.3,1,1,2.3,1,4s1.3,3,3,3h28c0.6,0,1-0.4,1-1V2C33,1.4,32.6,1,32,1z"/>
<path d="M46,24H36c-2.4,0-4.4,1.7-4.9,4C31,27.7,31,27.3,31,27c0-2.8,2.2-5,5-5h7V9H4C2.9,9,1.8,8.6,1,8v32c0,3.9,3.1,7,7,7h34
	c0.6,0,1-0.4,1-1V34h3c0.6,0,1-0.4,1-1v-8C47,24.4,46.6,24,46,24z M35,28h2c0.6,0,1,0.4,1,1s-0.4,1-1,1h-2c-0.6,0-1-0.4-1-1
	S34.4,28,35,28z"/>
</svg>
