<?xml version="1.0" encoding="utf-8"?>
<!-- Generator: Adobe Illustrator 19.1.0, SVG Export Plug-In . SVG Version: 6.00 Build 0)  -->
<!DOCTYPE svg PUBLIC "-//W3C//DTD SVG 1.1//EN" "http://www.w3.org/Graphics/SVG/1.1/DTD/svg11.dtd">
<svg version="1.1" id="Layer_1" xmlns="http://www.w3.org/2000/svg" xmlns:xlink="http://www.w3.org/1999/xlink" x="0px" y="0px"
	 width="48px" height="48px" viewBox="0 0 48 48" enable-background="new 0 0 48 48" xml:space="preserve">
<path d="M29,6H19c-0.6,0-1,0.4-1,1v34c0,0.6,0.4,1,1,1h10c0.6,0,1-0.4,1-1V7C30,6.4,29.6,6,29,6z"/>
<path id="color_90_" d="M13,26H3c-0.6,0-1,0.4-1,1v14c0,0.6,0.4,1,1,1h10c0.6,0,1-0.4,1-1V27C14,26.4,13.6,26,13,26z"/>
<path id="color_89_" d="M45,16H35c-0.6,0-1,0.4-1,1v24c0,0.6,0.4,1,1,1h10c0.6,0,1-0.4,1-1V17C46,16.4,45.6,16,45,16z"/>
</svg>
