<?xml version="1.0" encoding="utf-8"?>
<!-- Generator: Adobe Illustrator 19.1.0, SVG Export Plug-In . SVG Version: 6.00 Build 0)  -->
<!DOCTYPE svg PUBLIC "-//W3C//DTD SVG 1.1//EN" "http://www.w3.org/Graphics/SVG/1.1/DTD/svg11.dtd">
<svg version="1.1" id="Layer_1" xmlns="http://www.w3.org/2000/svg" xmlns:xlink="http://www.w3.org/1999/xlink" x="0px" y="0px"
	 width="48px" height="48px" viewBox="0 0 48 48" enable-background="new 0 0 48 48" xml:space="preserve">
<path d="M45,11h-9V6c0-2.2-1.8-4-4-4c-0.8,0-1.6,0.3-2.2,0.7C29.2,1.1,27.7,0,26,0s-3.2,1.1-3.8,2.7C21.6,2.3,20.8,2,20,2
	c-1.5,0-2.7,0.8-3.4,2C15.9,3.4,15,3,14,3c-2.2,0-4,1.8-4,4v4H3c-0.6,0-1,0.4-1,1v19c0,0.6,0.4,1,1,1h7.1c0.5,8.4,7.5,15,15.9,15
	s15.4-6.6,15.9-15H45c0.6,0,1-0.4,1-1V12C46,11.4,45.6,11,45,11z M30,6c0-1.1,0.9-2,2-2s2,0.9,2,2v5h-4V6z M24,6V4c0-1.1,0.9-2,2-2
	s2,0.9,2,2v2v5h-4V6z M24,17c2.8,0,5,2.2,5,5s-2.2,5-5,5s-5-2.2-5-5S21.2,17,24,17z M18,7V6c0-1.1,0.9-2,2-2s2,0.9,2,2v5h-4V7z
	 M12,7c0-1.1,0.9-2,2-2s2,0.9,2,2v4h-4V7z M9,18c-0.6,0-1-0.4-1-1s0.4-1,1-1h6c0.6,0,1,0.4,1,1s-0.4,1-1,1H9z M40,31
	c0,7.7-6.3,14-14,14c-7.4,0-13.4-5.7-13.9-13h14.1c-0.7,1.2-1.1,2.6-1.1,4c0,0.6,0.4,1,1,1s1-0.4,1-1c0-1.6,0.7-3.1,1.8-4.3
	c0,0,0,0,0,0c1.5-1.6,3.8-2.7,6.2-2.7c0.6,0,1-0.4,1-1v-4c0-2.6,1.6-4.5,4-4.9V31z"/>
</svg>
