<?xml version="1.0" encoding="utf-8"?>
<!-- Generator: Adobe Illustrator 19.1.0, SVG Export Plug-In . SVG Version: 6.00 Build 0)  -->
<!DOCTYPE svg PUBLIC "-//W3C//DTD SVG 1.1//EN" "http://www.w3.org/Graphics/SVG/1.1/DTD/svg11.dtd">
<svg version="1.1" id="Layer_1" xmlns="http://www.w3.org/2000/svg" xmlns:xlink="http://www.w3.org/1999/xlink" x="0px" y="0px"
	 width="48px" height="48px" viewBox="0 0 48 48" enable-background="new 0 0 48 48" xml:space="preserve">
<path d="M33,15.1c2.2,0.4,3.8,2.3,4,4.6l3.8,2.1l6.2-7.2V4c0-0.6-0.4-1-1-1H33V15.1z"/>
<path d="M5.7,25.6l3.5-6.1C9.3,19.2,9.7,19,10,19c0.4,0,0.7,0.2,0.9,0.5l5.1,9.3l3.1-6.3c0.1-0.3,0.4-0.5,0.7-0.5
	c0.3-0.1,0.6,0,0.8,0.2l3.3,2.4l3.2-3.7C27,20.6,27,20.3,27,20c0-2.4,1.7-4.4,4-4.9V3H2C1.4,3,1,3.4,1,4v18.5L5.7,25.6z"/>
<path id="color_22_" d="M41.8,23.7C41.6,23.9,41.3,24,41,24c-0.2,0-0.3,0-0.5-0.1l-3.9-2.1c-0.6,1.6-2,2.8-3.7,3.1V45h13
	c0.6,0,1-0.4,1-1V17.6L41.8,23.7z"/>
<path id="color_21_" d="M31,24.9c-1.2-0.3-2.3-1-3-2l-3.2,3.7c-0.3,0.4-0.9,0.5-1.4,0.1l-3-2.3l-3.5,6.9C16.7,31.8,16.4,32,16,32
	c0,0,0,0,0,0c-0.4,0-0.7-0.2-0.9-0.5L10,22.1l-3.1,5.4c-0.1,0.2-0.4,0.4-0.6,0.5C6,28,5.7,28,5.4,27.8l-4.4-3V44c0,0.6,0.4,1,1,1h29
	V24.9z"/>
</svg>
