<?xml version="1.0" encoding="utf-8"?>
<!-- Generator: Adobe Illustrator 19.1.0, SVG Export Plug-In . SVG Version: 6.00 Build 0)  -->
<!DOCTYPE svg PUBLIC "-//W3C//DTD SVG 1.1//EN" "http://www.w3.org/Graphics/SVG/1.1/DTD/svg11.dtd">
<svg version="1.1" id="Layer_1" xmlns="http://www.w3.org/2000/svg" xmlns:xlink="http://www.w3.org/1999/xlink" x="0px" y="0px"
	 width="48px" height="48px" viewBox="0 0 48 48" enable-background="new 0 0 48 48" xml:space="preserve">
<path d="M24,1C14.6,1,7,8.6,7,18c0,6.7,3.9,12.7,10,15.5V38c0,0.6,0.4,1,1,1h12c0.6,0,1-0.4,1-1v-4.5c6.1-2.8,10-8.8,10-15.5
	C41,8.6,33.4,1,24,1z M24,11c-3.9,0-7,3.1-7,7c0,0.6-0.4,1-1,1s-1-0.4-1-1c0-5,4-9,9-9c0.6,0,1,0.4,1,1S24.6,11,24,11z"/>
<path id="color_42_" d="M30,43H18c-0.6,0-1-0.4-1-1s0.4-1,1-1h12c0.6,0,1,0.4,1,1S30.6,43,30,43z"/>
<path id="color_41_" d="M26,47h-4c-0.6,0-1-0.4-1-1s0.4-1,1-1h4c0.6,0,1,0.4,1,1S26.6,47,26,47z"/>
</svg>
