<?xml version="1.0" encoding="utf-8"?>
<!-- Generator: Adobe Illustrator 19.1.0, SVG Export Plug-In . SVG Version: 6.00 Build 0)  -->
<!DOCTYPE svg PUBLIC "-//W3C//DTD SVG 1.1//EN" "http://www.w3.org/Graphics/SVG/1.1/DTD/svg11.dtd">
<svg version="1.1" id="Layer_1" xmlns="http://www.w3.org/2000/svg" xmlns:xlink="http://www.w3.org/1999/xlink" x="0px" y="0px"
	 width="48px" height="48px" viewBox="0 0 48 48" enable-background="new 0 0 48 48" xml:space="preserve">
<g>
	<path d="M19,19c0,2.2,1.5,3,4,3.7V15C20.8,15,19,16.8,19,19z"/>
	<path d="M25,33c2.2,0,4-1.8,4-4c0-2.2-1.5-3-4-3.7V33z"/>
	<path d="M45,1H3C1.9,1,1,1.9,1,3v42c0,1.1,0.9,2,2,2h42c1.1,0,2-0.9,2-2V3C47,1.9,46.1,1,45,1z M31,29c0,3.3-2.7,6-6,6v1
		c0,0.6-0.4,1-1,1s-1-0.4-1-1v-1c-3.3,0-6-2.7-6-6c0-0.6,0.4-1,1-1s1,0.4,1,1c0,2.2,1.8,4,4,4v-8.2c-2.8-0.7-6-1.8-6-5.8
		c0-3.3,2.7-6,6-6v-1c0-0.6,0.4-1,1-1s1,0.4,1,1v1c3.3,0,6,2.7,6,6c0,0.6-0.4,1-1,1s-1-0.4-1-1c0-2.2-1.8-4-4-4v8.2
		C27.8,24,31,25.1,31,29z"/>
</g>
</svg>
