<?xml version="1.0" encoding="utf-8"?>
<!-- Generator: Adobe Illustrator 19.1.0, SVG Export Plug-In . SVG Version: 6.00 Build 0)  -->
<!DOCTYPE svg PUBLIC "-//W3C//DTD SVG 1.1//EN" "http://www.w3.org/Graphics/SVG/1.1/DTD/svg11.dtd">
<svg version="1.1" id="Layer_1" xmlns="http://www.w3.org/2000/svg" xmlns:xlink="http://www.w3.org/1999/xlink" x="0px" y="0px"
	 width="48px" height="48px" viewBox="0 0 48 48" enable-background="new 0 0 48 48" xml:space="preserve">
<path id="color_93_" d="M34.8,1.5C34.7,1.2,34.3,1,34,1H14c-0.3,0-0.7,0.2-0.8,0.5s-0.2,0.6-0.1,1l4,9c0.2,0.4,0.5,0.6,0.9,0.6h5V8
	c0-0.6,0.4-1,1-1s1,0.4,1,1v4h5c0.4,0,0.8-0.2,0.9-0.6l4-9C35.1,2.1,35,1.7,34.8,1.5z"/>
<path d="M39.9,33.9l-9-19.3C30.7,14.2,30.4,14,30,14H18c-0.4,0-0.7,0.2-0.9,0.6L8.1,34c-1.2,2.9-0.9,6.2,0.8,8.8
	c1.7,2.6,4.7,4.2,7.8,4.2h14.5c3.2,0,6.1-1.6,7.8-4.2C40.8,40.2,41.1,36.9,39.9,33.9z M24.2,30c1.5,0.4,3.8,0.9,3.8,3.5
	c0,1.8-1.3,3.2-3,3.4V39c0,0.6-0.4,1-1,1s-1-0.4-1-1v-2.1c-1.7-0.2-3-1.7-3-3.4c0-0.6,0.4-1,1-1s1,0.4,1,1c0,0.8,0.7,1.5,1.5,1.5
	h0.3c0.1,0,0.1,0,0.2,0s0.1,0,0.2,0h0.3c0.8,0,1.5-0.7,1.5-1.5c0-0.8-0.5-1.1-2.2-1.5C22.3,31.6,20,31,20,28.5c0-1.8,1.3-3.2,3-3.4
	V23c0-0.6,0.4-1,1-1s1,0.4,1,1v2.1c1.7,0.2,3,1.7,3,3.4c0,0.6-0.4,1-1,1s-1-0.4-1-1c0-0.8-0.7-1.5-1.5-1.5h-1
	c-0.8,0-1.5,0.7-1.5,1.5C22,29.3,22.5,29.6,24.2,30z"/>
</svg>
