<?xml version="1.0" encoding="utf-8"?>
<!-- Generator: Adobe Illustrator 19.1.0, SVG Export Plug-In . SVG Version: 6.00 Build 0)  -->
<!DOCTYPE svg PUBLIC "-//W3C//DTD SVG 1.1//EN" "http://www.w3.org/Graphics/SVG/1.1/DTD/svg11.dtd">
<svg version="1.1" id="Layer_1" xmlns="http://www.w3.org/2000/svg" xmlns:xlink="http://www.w3.org/1999/xlink" x="0px" y="0px"
	 width="48px" height="48px" viewBox="0 0 48 48" enable-background="new 0 0 48 48" xml:space="preserve">
<path id="color_15_" d="M46,34H2c-0.6,0-1,0.4-1,1v1c0,0.6,0.4,1,1,1h15.9l-6.7,8.4c-0.3,0.4-0.3,1.1,0.2,1.4
	c0.2,0.1,0.4,0.2,0.6,0.2c0.3,0,0.6-0.1,0.8-0.4l7.7-9.6H23v7c0,0.6,0.4,1,1,1s1-0.4,1-1v-7h2.5l7.7,9.6c0.2,0.2,0.5,0.4,0.8,0.4
	c0.2,0,0.4-0.1,0.6-0.2c0.4-0.3,0.5-1,0.2-1.4L30.1,37H46c0.6,0,1-0.4,1-1v-1C47,34.4,46.6,34,46,34z"/>
<path d="M42,6H27V4c0-0.6-0.4-1-1-1h-4c-0.6,0-1,0.4-1,1v2H6C5.4,6,5,6.4,5,7v24c0,0.6,0.4,1,1,1h36c0.6,0,1-0.4,1-1V7
	C43,6.4,42.6,6,42,6z M18,25c0,0.6-0.4,1-1,1h-2c-0.6,0-1-0.4-1-1v-4c0-0.6,0.4-1,1-1h2c0.6,0,1,0.4,1,1V25z M26,25c0,0.6-0.4,1-1,1
	h-2c-0.6,0-1-0.4-1-1V13c0-0.6,0.4-1,1-1h2c0.6,0,1,0.4,1,1V25z M34,25c0,0.6-0.4,1-1,1h-2c-0.6,0-1-0.4-1-1v-8c0-0.6,0.4-1,1-1h2
	c0.6,0,1,0.4,1,1V25z"/>
</svg>
