<?xml version="1.0" encoding="utf-8"?>
<!-- Generator: Adobe Illustrator 19.1.0, SVG Export Plug-In . SVG Version: 6.00 Build 0)  -->
<!DOCTYPE svg PUBLIC "-//W3C//DTD SVG 1.1//EN" "http://www.w3.org/Graphics/SVG/1.1/DTD/svg11.dtd">
<svg version="1.1" id="Layer_1" xmlns="http://www.w3.org/2000/svg" xmlns:xlink="http://www.w3.org/1999/xlink" x="0px" y="0px"
	 width="48px" height="48px" viewBox="0 0 48 48" enable-background="new 0 0 48 48" xml:space="preserve">
<path d="M22.3,29.8C21.8,30.5,21,31,20,31c-1.7,0-3-1.3-3-3c0-1,0.5-1.8,1.2-2.3c0.1-0.1,5.7-5.8,5.7-5.8C22.7,19.3,21.4,19,20,19
	c-5,0-9,4-9,9s4,9,9,9s9-4,9-9c0-1.4-0.3-2.7-0.9-3.9C28.1,24.1,22.4,29.8,22.3,29.8z"/>
<path d="M37,20.8l-4.2-1.4l-3.2,3.2c0.9,1.6,1.4,3.4,1.4,5.4c0,6.1-4.9,11-11,11S9,34.1,9,28s4.9-11,11-11c1.9,0,3.8,0.5,5.4,1.4
	l3.2-3.2l-1.4-4.2c-0.1-0.2-0.1-0.4-0.1-0.6C24.9,9.5,22.5,9,20,9C9.5,9,1,17.5,1,28s8.5,19,19,19s19-8.5,19-19c0-2.5-0.5-4.9-1.4-7
	C37.4,20.9,37.2,20.9,37,20.8z"/>
<path id="color_71_" d="M45,11.8c-0.1-0.3-0.3-0.6-0.7-0.7l-4.5-1.5l2.9-2.9c0.4-0.4,0.4-1,0-1.4s-1-0.4-1.4,0l-2.9,2.9l-1.5-4.5
	c-0.1-0.3-0.4-0.6-0.7-0.7c-0.3-0.1-0.7,0-0.9,0.3l-6,6c-0.3,0.3-0.4,0.7-0.2,1l1.8,5.4L19,27.6c-0.4,0.4-0.4,1,0,1.4
	c0.2,0.2,0.5,0.3,0.7,0.3s0.5-0.1,0.7-0.3l11.9-11.9l5.4,1.8c0.1,0,0.2,0.1,0.3,0.1c0.3,0,0.5-0.1,0.7-0.3l6-6
	C45,12.5,45.1,12.1,45,11.8z"/>
</svg>
