<?xml version="1.0" encoding="utf-8"?>
<!-- Generator: Adobe Illustrator 19.1.0, SVG Export Plug-In . SVG Version: 6.00 Build 0)  -->
<!DOCTYPE svg PUBLIC "-//W3C//DTD SVG 1.1//EN" "http://www.w3.org/Graphics/SVG/1.1/DTD/svg11.dtd">
<svg version="1.1" id="Layer_1" xmlns="http://www.w3.org/2000/svg" xmlns:xlink="http://www.w3.org/1999/xlink" x="0px" y="0px"
	 width="48px" height="48px" viewBox="0 0 48 48" enable-background="new 0 0 48 48" xml:space="preserve">
<path id="color_76_" d="M6,24H2c-0.6,0-1-0.4-1-1s0.4-1,1-1h4c0.6,0,1,0.4,1,1S6.6,24,6,24z"/>
<path id="color_75_" d="M11.3,11.3c-0.3,0-0.5-0.1-0.7-0.3L7.7,8.2c-0.4-0.4-0.4-1,0-1.4s1-0.4,1.4,0L12,9.6c0.4,0.4,0.4,1,0,1.4
	C11.8,11.2,11.5,11.3,11.3,11.3z"/>
<path id="color_74_" d="M24,6c-0.6,0-1-0.4-1-1V1c0-0.6,0.4-1,1-1s1,0.4,1,1v4C25,5.6,24.6,6,24,6z"/>
<path id="color_73_" d="M36.7,11.3c-0.3,0-0.5-0.1-0.7-0.3c-0.4-0.4-0.4-1,0-1.4l2.8-2.8c0.4-0.4,1-0.4,1.4,0s0.4,1,0,1.4L37.4,11
	C37.2,11.2,37,11.3,36.7,11.3z"/>
<path id="color_72_" d="M46,24h-4c-0.6,0-1-0.4-1-1s0.4-1,1-1h4c0.6,0,1,0.4,1,1S46.6,24,46,24z"/>
<path d="M24,10c-7.2,0-13,5.8-13,13c0,5.2,3.2,10,8,12v4c0,0.6,0.4,1,1,1h8c0.6,0,1-0.4,1-1v-4c4.8-2,8-6.7,8-12
	C37,15.8,31.2,10,24,10z"/>
<path d="M28,44h-8c-0.6,0-1-0.4-1-1s0.4-1,1-1h8c0.6,0,1,0.4,1,1S28.6,44,28,44z"/>
<path d="M25,48h-2c-0.6,0-1-0.4-1-1s0.4-1,1-1h2c0.6,0,1,0.4,1,1S25.6,48,25,48z"/>
</svg>
