<?xml version="1.0" encoding="utf-8"?>
<!-- Generator: Adobe Illustrator 19.1.0, SVG Export Plug-In . SVG Version: 6.00 Build 0)  -->
<!DOCTYPE svg PUBLIC "-//W3C//DTD SVG 1.1//EN" "http://www.w3.org/Graphics/SVG/1.1/DTD/svg11.dtd">
<svg version="1.1" id="Layer_1" xmlns="http://www.w3.org/2000/svg" xmlns:xlink="http://www.w3.org/1999/xlink" x="0px" y="0px"
	 width="48px" height="48px" viewBox="0 0 48 48" enable-background="new 0 0 48 48" xml:space="preserve">
<path d="M40.9,31.7C40.8,31.3,40.4,31,40,31H28c-0.4,0-0.8,0.3-0.9,0.7L24,40.8l-3.1-9.2C20.8,31.3,20.4,31,20,31H8
	c-0.4,0-0.8,0.3-0.9,0.7l-4,12C2.9,44,3,44.3,3.2,44.6S3.7,45,4,45h20h20c0.3,0,0.6-0.2,0.8-0.4s0.2-0.6,0.1-0.9L40.9,31.7z"/>
<path d="M14,29h20c0.3,0,0.6-0.2,0.8-0.4s0.2-0.6,0.1-0.9l-4-12C30.8,15.3,30.4,15,30,15H18c-0.4,0-0.8,0.3-0.9,0.7l-4,12
	c-0.1,0.3-0.1,0.6,0.1,0.9S13.7,29,14,29z"/>
<path id="color_64_" d="M7,24c0-0.6-0.4-1-1-1H2c-0.6,0-1,0.4-1,1s0.4,1,1,1h4C6.6,25,7,24.6,7,24z"/>
<path id="color_63_" d="M10.6,12c0.2,0.2,0.5,0.3,0.7,0.3s0.5-0.1,0.7-0.3c0.4-0.4,0.4-1,0-1.4L9.2,7.7c-0.4-0.4-1-0.4-1.4,0
	s-0.4,1,0,1.4L10.6,12z"/>
<path id="color_62_" d="M24,7c0.6,0,1-0.4,1-1V2c0-0.6-0.4-1-1-1s-1,0.4-1,1v4C23,6.6,23.4,7,24,7z"/>
<path id="color_61_" d="M36.7,12.3c0.3,0,0.5-0.1,0.7-0.3l2.8-2.8c0.4-0.4,0.4-1,0-1.4s-1-0.4-1.4,0L36,10.6c-0.4,0.4-0.4,1,0,1.4
	C36.2,12.2,36.5,12.3,36.7,12.3z"/>
<path id="color_60_" d="M46,23h-4c-0.6,0-1,0.4-1,1s0.4,1,1,1h4c0.6,0,1-0.4,1-1S46.6,23,46,23z"/>
</svg>
