<?xml version="1.0" encoding="utf-8"?>
<!-- Generator: Adobe Illustrator 19.1.0, SVG Export Plug-In . SVG Version: 6.00 Build 0)  -->
<!DOCTYPE svg PUBLIC "-//W3C//DTD SVG 1.1//EN" "http://www.w3.org/Graphics/SVG/1.1/DTD/svg11.dtd">
<svg version="1.1" id="Layer_1" xmlns="http://www.w3.org/2000/svg" xmlns:xlink="http://www.w3.org/1999/xlink" x="0px" y="0px"
	 width="48px" height="48px" viewBox="0 0 48 48" enable-background="new 0 0 48 48" xml:space="preserve">
<path d="M9,31V11h30v20h4V11c0-2.2-1.7-4-3.9-4H8.9C6.7,7,5,8.8,5,11v20H9z"/>
<path d="M47,33H1c-0.6,0-1,0.4-1,1c0,2.8,2.2,5,5,5h38c2.8,0,5-2.2,5-5C48,33.4,47.6,33,47,33z"/>
<path id="color_20_" d="M24,14c-4.4,0-8,3.6-8,8c0,4.4,3.6,8,8,8s8-3.6,8-8h-8V14z"/>
</svg>
