<?xml version="1.0" encoding="utf-8"?>
<!-- Generator: Adobe Illustrator 19.1.0, SVG Export Plug-In . SVG Version: 6.00 Build 0)  -->
<!DOCTYPE svg PUBLIC "-//W3C//DTD SVG 1.1//EN" "http://www.w3.org/Graphics/SVG/1.1/DTD/svg11.dtd">
<svg version="1.1" id="Layer_1" xmlns="http://www.w3.org/2000/svg" xmlns:xlink="http://www.w3.org/1999/xlink" x="0px" y="0px"
	 width="48px" height="48px" viewBox="0 0 48 48" enable-background="new 0 0 48 48" xml:space="preserve">
<path d="M43.4,18.6l-14-14c-0.8-0.8-2-0.8-2.8,0s-0.8,2,0,2.8l2.8,2.8l-16.5,9l15.8,15.8l9-16.5l2.8,2.8C41,21.8,41.5,22,42,22
	s1-0.2,1.4-0.6C44.2,20.6,44.2,19.4,43.4,18.6z"/>
<path id="color_45_" d="M31.4,40.6l-24-24c-0.8-0.8-2-0.8-2.8,0s-0.8,2,0,2.8l11.3,11.3L5.3,41.3c-0.4,0.4-0.4,1,0,1.4
	C5.5,42.9,5.7,43,6,43s0.5-0.1,0.7-0.3l10.6-10.6l11.3,11.3C29,43.8,29.5,44,30,44s1-0.2,1.4-0.6C32.2,42.6,32.2,41.4,31.4,40.6z"/>
</svg>
