<?xml version="1.0" encoding="utf-8"?>
<!-- Generator: Adobe Illustrator 19.1.0, SVG Export Plug-In . SVG Version: 6.00 Build 0)  -->
<!DOCTYPE svg PUBLIC "-//W3C//DTD SVG 1.1//EN" "http://www.w3.org/Graphics/SVG/1.1/DTD/svg11.dtd">
<svg version="1.1" id="Layer_1" xmlns="http://www.w3.org/2000/svg" xmlns:xlink="http://www.w3.org/1999/xlink" x="0px" y="0px"
	 width="48px" height="48px" viewBox="0 0 48 48" enable-background="new 0 0 48 48" xml:space="preserve">
<path id="color_100_" d="M42.7,19.3l-16-16c-0.4-0.4-1-0.4-1.4,0l-2,2c-0.4,0.4-0.4,1,0,1.4l16,16c0.2,0.2,0.5,0.3,0.7,0.3
	s0.5-0.1,0.7-0.3l2-2C43.1,20.3,43.1,19.7,42.7,19.3z"/>
<path d="M36.2,22.4L23.6,9.8c-0.3-0.3-0.8-0.4-1.2-0.2l-10.9,5.4c-0.3,0.1-0.5,0.4-0.5,0.7L7.6,34.4c-0.2,1,1,1.6,1.7,0.9l9.2-9.2
	c-1.1-1.8-0.6-4.2,1.4-5.4c1.3-0.8,2.9-0.8,4.2,0c2.3,1.4,2.5,4.5,0.8,6.3c-1.3,1.3-3.3,1.5-4.8,0.6l-9.2,9.2
	c-0.7,0.7-0.1,1.9,0.9,1.7L30.2,35c0.3-0.1,0.6-0.3,0.7-0.5l5.4-10.9C36.5,23.2,36.5,22.7,36.2,22.4z"/>
<path d="M40,45H8c-0.6,0-1-0.4-1-1s0.4-1,1-1h32c0.6,0,1,0.4,1,1S40.6,45,40,45z"/>
</svg>
