<?xml version="1.0" encoding="utf-8"?>
<!-- Generator: Adobe Illustrator 19.1.0, SVG Export Plug-In . SVG Version: 6.00 Build 0)  -->
<!DOCTYPE svg PUBLIC "-//W3C//DTD SVG 1.1//EN" "http://www.w3.org/Graphics/SVG/1.1/DTD/svg11.dtd">
<svg version="1.1" id="Layer_1" xmlns="http://www.w3.org/2000/svg" xmlns:xlink="http://www.w3.org/1999/xlink" x="0px" y="0px"
	 width="48px" height="48px" viewBox="0 0 48 48" enable-background="new 0 0 48 48" xml:space="preserve">
<path id="color_50_" d="M47,7H6C5.4,7,5,7.4,5,8v1h39c1.1,0,2,0.9,2,2v26h1c0.6,0,1-0.4,1-1V8C48,7.4,47.6,7,47,7z"/>
<path d="M31.1,17H12.9c-0.4,3.1-2.9,5.5-5.9,5.9v6.1c3.1,0.4,5.5,2.9,5.9,5.9h18.1c0.4-3.1,2.9-5.5,5.9-5.9v-6.1
	C33.9,22.5,31.5,20.1,31.1,17z M22,30c-2.2,0-4-1.8-4-4c0-2.2,1.8-4,4-4s4,1.8,4,4C26,28.2,24.2,30,22,30z"/>
<path d="M43,11H2c-0.6,0-1,0.4-1,1v28c0,0.6,0.4,1,1,1h41c0.6,0,1-0.4,1-1V12C44,11.4,43.6,11,43,11z M39,30c0,0.6-0.4,1-1,1
	c-2.8,0-5,2.2-5,5c0,0.6-0.4,1-1,1H12c-0.6,0-1-0.4-1-1c0-2.8-2.2-5-5-5c-0.6,0-1-0.4-1-1v-8c0-0.6,0.4-1,1-1c2.8,0,5-2.2,5-5
	c0-0.6,0.4-1,1-1h20c0.6,0,1,0.4,1,1c0,2.8,2.2,5,5,5c0.6,0,1,0.4,1,1V30z"/>
</svg>
