<?xml version="1.0" encoding="utf-8"?>
<!-- Generator: Adobe Illustrator 19.1.0, SVG Export Plug-In . SVG Version: 6.00 Build 0)  -->
<!DOCTYPE svg PUBLIC "-//W3C//DTD SVG 1.1//EN" "http://www.w3.org/Graphics/SVG/1.1/DTD/svg11.dtd">
<svg version="1.1" id="Layer_1" xmlns="http://www.w3.org/2000/svg" xmlns:xlink="http://www.w3.org/1999/xlink" x="0px" y="0px"
	 width="48px" height="48px" viewBox="0 0 48 48" enable-background="new 0 0 48 48" xml:space="preserve">
<path d="M23,13V3.1c-3.5,0.6-6.5,4.5-8.3,9.9H23z"/>
<path d="M23,25H13c0.1,2.8,0.5,5.5,1.1,8H23V25z"/>
<path d="M23,23v-8h-8.9c-0.6,2.5-1,5.2-1.1,8H23z"/>
<path d="M11,25h-8c0.1,2.9,0.8,5.6,2,8H12C11.4,30.5,11.1,27.8,11,25z"/>
<path d="M12,15H5.1c-1.2,2.4-1.9,5.1-2,8h8C11.1,20.2,11.4,17.5,12,15z"/>
<path d="M35,23c-0.1-2.8-0.5-5.5-1.1-8H25v8H35z"/>
<path d="M36,33h6.9c1.2-2.4,1.9-5.1,2-8h-8C36.9,27.8,36.6,30.5,36,33z"/>
<path d="M25,3.1V13h8.3C31.5,7.6,28.5,3.7,25,3.1z"/>
<path d="M25,25v8h8.9c0.6-2.5,1-5.2,1.1-8H25z"/>
<path d="M12.5,35H6.1c2.6,4.2,6.6,7.4,11.3,8.9C15.4,41.8,13.7,38.7,12.5,35z"/>
<path d="M35.5,35c-1.1,3.7-2.8,6.8-4.9,8.9c4.7-1.6,8.7-4.8,11.3-8.9H35.5z"/>
<path d="M12.5,13c1.1-3.7,2.8-6.8,4.9-8.9C12.7,5.6,8.7,8.8,6.1,13H12.5z"/>
<path d="M25,35v9.9c3.5-0.6,6.5-4.5,8.3-9.9H25z"/>
<path d="M23,44.9V35h-8.3C16.5,40.4,19.5,44.3,23,44.9z"/>
<path d="M36,15c0.6,2.5,0.9,5.2,1,8h8c-0.1-2.9-0.8-5.6-2-8H36z"/>
<path d="M35.5,13h6.4c-2.6-4.2-6.6-7.4-11.3-8.9C32.6,6.2,34.3,9.3,35.5,13z"/>
</svg>
