<?xml version="1.0" encoding="utf-8"?>
<!-- Generator: Adobe Illustrator 19.1.0, SVG Export Plug-In . SVG Version: 6.00 Build 0)  -->
<!DOCTYPE svg PUBLIC "-//W3C//DTD SVG 1.1//EN" "http://www.w3.org/Graphics/SVG/1.1/DTD/svg11.dtd">
<svg version="1.1" id="Layer_1" xmlns="http://www.w3.org/2000/svg" xmlns:xlink="http://www.w3.org/1999/xlink" x="0px" y="0px"
	 width="48px" height="48px" viewBox="0 0 48 48" enable-background="new 0 0 48 48" xml:space="preserve">
<path id="color_99_" d="M34,45h-9v-7c0-0.6-0.4-1-1-1s-1,0.4-1,1v7h-9c-0.6,0-1,0.4-1,1s0.4,1,1,1h20c0.6,0,1-0.4,1-1S34.6,45,34,45
	z"/>
<path id="color_98_" d="M10,39H4c-0.6,0-1-0.4-1-1V24c0-0.6,0.4-1,1-1h2c0.6,0,1,0.4,1,1s-0.4,1-1,1H5v12h5c0.6,0,1,0.4,1,1
	S10.6,39,10,39z"/>
<path id="color_97_" d="M44,39h-8c-0.6,0-1-0.4-1-1s0.4-1,1-1h7V25h-1c-0.6,0-1-0.4-1-1s0.4-1,1-1h2c0.6,0,1,0.4,1,1v14
	C45,38.6,44.6,39,44,39z"/>
<path d="M40,33H8c-0.6,0-1,0.4-1,1v4c0,0.6,0.4,1,1,1h32c0.6,0,1-0.4,1-1v-4C41,33.4,40.6,33,40,33z"/>
<path d="M36,1H12c-0.6,0-1,0.4-1,1v28c0,0.6,0.4,1,1,1h24c0.6,0,1-0.4,1-1V2C37,1.4,36.6,1,36,1z"/>
</svg>
