<?xml version="1.0" encoding="utf-8"?>
<!-- Generator: Adobe Illustrator 19.1.0, SVG Export Plug-In . SVG Version: 6.00 Build 0)  -->
<!DOCTYPE svg PUBLIC "-//W3C//DTD SVG 1.1//EN" "http://www.w3.org/Graphics/SVG/1.1/DTD/svg11.dtd">
<svg version="1.1" id="Layer_1" xmlns="http://www.w3.org/2000/svg" xmlns:xlink="http://www.w3.org/1999/xlink" x="0px" y="0px"
	 width="48px" height="48px" viewBox="0 0 48 48" enable-background="new 0 0 48 48" xml:space="preserve">
<path d="M32.4,15l-3.6,3.6c0.7,1,1.1,2.2,1.1,3.5c0,1.3-0.4,2.5-1.1,3.5l3.6,3.6c1.6-1.9,2.6-4.4,2.6-7C35,19.3,34,16.9,32.4,15z"/>
<path d="M19.1,25.5c-0.7-1-1.1-2.2-1.1-3.5c0-1.3,0.4-2.5,1.1-3.5L15.6,15C14,16.9,13,19.3,13,22c0,2.7,1,5.1,2.6,7L19.1,25.5z"/>
<path d="M20.5,17.1c1-0.7,2.2-1.1,3.5-1.1c1.3,0,2.5,0.4,3.5,1.1l3.6-3.6C29.1,12,26.7,11,24,11c-2.7,0-5.1,1-7,2.6L20.5,17.1z"/>
<path d="M46,1H2C1.4,1,1,1.4,1,2v40c0,0.6,0.4,1,1,1h44c0.6,0,1-0.4,1-1V2C47,1.4,46.6,1,46,1z M33.2,31.2
	C33.2,31.2,33.2,31.2,33.2,31.2C30.8,33.6,27.6,35,24,35c-3.6,0-6.8-1.4-9.2-3.8c0,0,0,0,0,0c0,0,0,0,0,0C12.5,28.8,11,25.6,11,22
	c0-3.6,1.5-6.8,3.8-9.2c0,0,0,0,0,0s0,0,0,0C17.2,10.5,20.4,9,24,9c3.6,0,6.8,1.5,9.2,3.8c0,0,0,0,0,0c0,0,0,0,0,0
	c2.3,2.4,3.8,5.6,3.8,9.2C37,25.6,35.6,28.8,33.2,31.2C33.2,31.2,33.2,31.2,33.2,31.2z"/>
<path d="M27.5,26.9c-1,0.7-2.2,1.1-3.5,1.1c-1.3,0-2.5-0.4-3.5-1.1L17,30.4c1.9,1.6,4.4,2.6,7,2.6c2.7,0,5.1-1,7-2.6L27.5,26.9z"/>
<path d="M14,47H8c-0.6,0-1-0.4-1-1s0.4-1,1-1h6c0.6,0,1,0.4,1,1S14.6,47,14,47z"/>
<path d="M40,47h-6c-0.6,0-1-0.4-1-1s0.4-1,1-1h6c0.6,0,1,0.4,1,1S40.6,47,40,47z"/>
</svg>
