<?xml version="1.0" encoding="utf-8"?>
<!-- Generator: Adobe Illustrator 19.1.0, SVG Export Plug-In . SVG Version: 6.00 Build 0)  -->
<!DOCTYPE svg PUBLIC "-//W3C//DTD SVG 1.1//EN" "http://www.w3.org/Graphics/SVG/1.1/DTD/svg11.dtd">
<svg version="1.1" id="Layer_1" xmlns="http://www.w3.org/2000/svg" xmlns:xlink="http://www.w3.org/1999/xlink" x="0px" y="0px"
	 width="48px" height="48px" viewBox="0 0 48 48" enable-background="new 0 0 48 48" xml:space="preserve">
<path d="M18,25c0.3,0,0.7,0,1,0c0-1,0.3-2.1,1-3c-0.2-0.3-0.4-0.7-0.6-1.1C18.9,21,18.5,21,18,21c-3.6,0-6.7-0.9-8.6-2.5
	C9.1,19,9,19.5,9,20C9,22.9,12.9,25,18,25z"/>
<path d="M18,19c0.3,0,0.7,0,1,0c0-1.6,0.8-3.1,2.1-4.2c-1,0.2-2,0.3-3.1,0.3c-3.6,0-6.7-0.9-8.6-2.5C9.1,13,9,13.5,9,14
	C9,16.9,12.9,19,18,19z"/>
<path d="M18,13c5.1,0,9-2.1,9-5s-3.9-5-9-5S9,5.1,9,8S12.9,13,18,13z"/>
<path d="M20,34c-0.2-0.3-0.4-0.7-0.6-1.1C18.9,33,18.5,33,18,33c-3.6,0-6.7-0.9-8.6-2.5C9.1,31,9,31.5,9,32c0,2.9,3.9,5,9,5
	c0.3,0,0.7,0,1,0C19,35.9,19.3,34.9,20,34z"/>
<path d="M18,31c0.3,0,0.7,0,1,0c0-1,0.3-2.1,1-3c-0.2-0.3-0.4-0.7-0.6-1.1C18.9,27,18.5,27,18,27c-3.6,0-6.7-0.9-8.6-2.5
	C9.1,25,9,25.5,9,26C9,28.9,12.9,31,18,31z"/>
<path d="M30,38c-3.6,0-6.7-0.9-8.6-2.5C21.1,36,21,36.5,21,37c0,2.9,3.9,5,9,5s9-2.1,9-5c0-0.5-0.1-1-0.4-1.5
	C36.7,37.1,33.6,38,30,38z"/>
<path d="M30,32c-3.6,0-6.7-0.9-8.6-2.5C21.1,30,21,30.5,21,31c0,2.9,3.9,5,9,5s9-2.1,9-5c0-0.5-0.1-1-0.4-1.5
	C36.7,31.1,33.6,32,30,32z"/>
<path d="M30,26c-3.6,0-6.7-0.9-8.6-2.5C21.1,24,21,24.5,21,25c0,2.9,3.9,5,9,5s9-2.1,9-5c0-0.5-0.1-1-0.4-1.5
	C36.7,25.1,33.6,26,30,26z"/>
<path d="M30,14c-5.1,0-9,2.1-9,5s3.9,5,9,5s9-2.1,9-5S35.1,14,30,14z"/>
</svg>
