<?xml version="1.0" encoding="utf-8"?>
<!-- Generator: Adobe Illustrator 19.1.0, SVG Export Plug-In . SVG Version: 6.00 Build 0)  -->
<!DOCTYPE svg PUBLIC "-//W3C//DTD SVG 1.1//EN" "http://www.w3.org/Graphics/SVG/1.1/DTD/svg11.dtd">
<svg version="1.1" id="Layer_1" xmlns="http://www.w3.org/2000/svg" xmlns:xlink="http://www.w3.org/1999/xlink" x="0px" y="0px"
	 width="48px" height="48px" viewBox="0 0 48 48" enable-background="new 0 0 48 48" xml:space="preserve">
<path d="M29,34H19c-0.6,0-1,0.4-1,1v8c0,0.6,0.4,1,1,1h10c0.6,0,1-0.4,1-1v-8C30,34.4,29.6,34,29,34z"/>
<path d="M45,34H35c-0.6,0-1,0.4-1,1v8c0,0.6,0.4,1,1,1h10c0.6,0,1-0.4,1-1v-8C46,34.4,45.6,34,45,34z"/>
<path d="M13,34H3c-0.6,0-1,0.4-1,1v8c0,0.6,0.4,1,1,1h10c0.6,0,1-0.4,1-1v-8C14,34.4,13.6,34,13,34z"/>
<path id="color_55_" d="M8,31c0.6,0,1-0.4,1-1v-5h14v5c0,0.6,0.4,1,1,1s1-0.4,1-1v-5h14v5c0,0.6,0.4,1,1,1s1-0.4,1-1v-6
	c0-0.6-0.4-1-1-1H25v-5c0-0.6-0.4-1-1-1s-1,0.4-1,1v5H8c-0.6,0-1,0.4-1,1v6C7,30.6,7.4,31,8,31z"/>
<path d="M24,14c2.8,0,5-2.2,5-5s-2.2-5-5-5s-5,2.2-5,5S21.2,14,24,14z"/>
</svg>
