<?xml version="1.0" encoding="utf-8"?>
<!-- Generator: Adobe Illustrator 19.1.0, SVG Export Plug-In . SVG Version: 6.00 Build 0)  -->
<!DOCTYPE svg PUBLIC "-//W3C//DTD SVG 1.1//EN" "http://www.w3.org/Graphics/SVG/1.1/DTD/svg11.dtd">
<svg version="1.1" id="Layer_1" xmlns="http://www.w3.org/2000/svg" xmlns:xlink="http://www.w3.org/1999/xlink" x="0px" y="0px"
	 width="48px" height="48px" viewBox="0 0 48 48" enable-background="new 0 0 48 48" xml:space="preserve">
<path d="M24,1C11.3,1,1,11.3,1,24s10.3,23,23,23s23-10.3,23-23S36.7,1,24,1z M26,19c0.6,0,1,0.4,1,1s-0.4,1-1,1h-8.5
	c-0.3,0.9-0.5,1.9-0.5,3c0,0.3,0,0.7,0.1,1H26c0.6,0,1,0.4,1,1s-0.4,1-1,1h-8.5c1.2,3.5,4.6,6,8.5,6c2,0,3.8-0.6,5.4-1.8
	c0.4-0.3,1.1-0.2,1.4,0.2c0.3,0.4,0.2,1.1-0.2,1.4C30.7,34.2,28.4,35,26,35c-5,0-9.3-3.4-10.6-8H14c-0.6,0-1-0.4-1-1s0.4-1,1-1h1.1
	c0-0.3-0.1-0.7-0.1-1c0-1,0.2-2,0.4-3H14c-0.6,0-1-0.4-1-1s0.4-1,1-1h2.2c1.8-3.6,5.5-6,9.8-6c2.4,0,4.7,0.8,6.6,2.2
	c0.4,0.3,0.5,1,0.2,1.4c-0.3,0.4-1,0.5-1.4,0.2C29.8,15.6,28,15,26,15c-3.1,0-5.9,1.6-7.5,4H26z"/>
</svg>
