<?xml version="1.0" encoding="utf-8"?>
<!-- Generator: Adobe Illustrator 19.1.0, SVG Export Plug-In . SVG Version: 6.00 Build 0)  -->
<!DOCTYPE svg PUBLIC "-//W3C//DTD SVG 1.1//EN" "http://www.w3.org/Graphics/SVG/1.1/DTD/svg11.dtd">
<svg version="1.1" id="Layer_1" xmlns="http://www.w3.org/2000/svg" xmlns:xlink="http://www.w3.org/1999/xlink" x="0px" y="0px"
	 width="48px" height="48px" viewBox="0 0 48 48" enable-background="new 0 0 48 48" xml:space="preserve">
<path d="M24,1C11.3,1,1,11.3,1,24s10.3,23,23,23s23-10.3,23-23S36.7,1,24,1z M26,23c0.6,0,1,0.4,1,1s-0.4,1-1,1h-5v6h9
	c0.6,0,1,0.4,1,1s-0.4,1-1,1H16c-0.6,0-1-0.4-1-1s0.4-1,1-1h3v-6h-3c-0.6,0-1-0.4-1-1s0.4-1,1-1h3v-4c0-3.3,2.7-6,6-6s6,2.7,6,6
	c0,0.6-0.4,1-1,1s-1-0.4-1-1c0-2.2-1.8-4-4-4s-4,1.8-4,4v4H26z"/>
</svg>
