<?xml version="1.0" encoding="utf-8"?>
<!-- Generator: Adobe Illustrator 19.1.0, SVG Export Plug-In . SVG Version: 6.00 Build 0)  -->
<!DOCTYPE svg PUBLIC "-//W3C//DTD SVG 1.1//EN" "http://www.w3.org/Graphics/SVG/1.1/DTD/svg11.dtd">
<svg version="1.1" id="Layer_1" xmlns="http://www.w3.org/2000/svg" xmlns:xlink="http://www.w3.org/1999/xlink" x="0px" y="0px"
	 width="48px" height="48px" viewBox="0 0 48 48" enable-background="new 0 0 48 48" xml:space="preserve">
<path d="M24,7c-0.6,0-1-0.4-1-1V2c0-0.6,0.4-1,1-1s1,0.4,1,1v4C25,6.6,24.6,7,24,7z"/>
<path d="M44,21H33v-9c0-0.6-0.4-1-1-1h-3V6c0-0.6-0.4-1-1-1h-8c-0.6,0-1,0.4-1,1v5h-3c-0.6,0-1,0.4-1,1v15H4c-0.6,0-1,0.4-1,1v18
	c0,0.6,0.4,1,1,1h40c0.6,0,1-0.4,1-1V22C45,21.4,44.6,21,44,21z M14,41h-4c-0.6,0-1-0.4-1-1s0.4-1,1-1h4c0.6,0,1,0.4,1,1
	S14.6,41,14,41z M14,35h-4c-0.6,0-1-0.4-1-1s0.4-1,1-1h4c0.6,0,1,0.4,1,1S14.6,35,14,35z M31,21h-3c-0.6,0-1,0.4-1,1v23h-6V28
	c0-0.6-0.4-1-1-1h-3V13h3c0.6,0,1-0.4,1-1V7h6v5c0,0.6,0.4,1,1,1h3V21z M38,41h-4c-0.6,0-1-0.4-1-1s0.4-1,1-1h4c0.6,0,1,0.4,1,1
	S38.6,41,38,41z M38,35h-4c-0.6,0-1-0.4-1-1s0.4-1,1-1h4c0.6,0,1,0.4,1,1S38.6,35,38,35z M38,29h-4c-0.6,0-1-0.4-1-1s0.4-1,1-1h4
	c0.6,0,1,0.4,1,1S38.6,29,38,29z"/>
</svg>
