<?xml version="1.0" encoding="utf-8"?>
<!-- Generator: Adobe Illustrator 19.1.0, SVG Export Plug-In . SVG Version: 6.00 Build 0)  -->
<!DOCTYPE svg PUBLIC "-//W3C//DTD SVG 1.1//EN" "http://www.w3.org/Graphics/SVG/1.1/DTD/svg11.dtd">
<svg version="1.1" id="Layer_1" xmlns="http://www.w3.org/2000/svg" xmlns:xlink="http://www.w3.org/1999/xlink" x="0px" y="0px"
	 width="48px" height="48px" viewBox="0 0 48 48" enable-background="new 0 0 48 48" xml:space="preserve">
<path d="M25,13.1c5.3,0.5,9.5,4.7,9.9,9.9h12C46.5,11.1,36.9,1.5,25,1V13.1z"/>
<path d="M15.2,30.6C13.8,28.7,13,26.5,13,24c0-5.7,4.4-10.4,10-10.9V1C10.8,1.6,1,11.7,1,24c0,5.5,2,10.6,5.3,14.6L15.2,30.6z"/>
<path id="color_107_" d="M34.9,25c-0.5,5.6-5.2,10-10.9,10c-2.9,0-5.5-1.1-7.5-2.9l-8.9,8c4.2,4.3,10,6.9,16.4,6.9
	c12.3,0,22.4-9.8,23-22H34.9z"/>
</svg>
