<?xml version="1.0" encoding="utf-8"?>
<!-- Generator: Adobe Illustrator 19.1.0, SVG Export Plug-In . SVG Version: 6.00 Build 0)  -->
<!DOCTYPE svg PUBLIC "-//W3C//DTD SVG 1.1//EN" "http://www.w3.org/Graphics/SVG/1.1/DTD/svg11.dtd">
<svg version="1.1" id="Layer_1" xmlns="http://www.w3.org/2000/svg" xmlns:xlink="http://www.w3.org/1999/xlink" x="0px" y="0px"
	 width="48px" height="48px" viewBox="0 0 48 48" enable-background="new 0 0 48 48" xml:space="preserve">
<path d="M46,7h-9V2c0-0.6-0.4-1-1-1H12c-0.6,0-1,0.4-1,1v5H2C1.4,7,1,7.4,1,8v38c0,0.6,0.4,1,1,1h21V18c0-0.6,0.4-1,1-1s1,0.4,1,1
	v29h21c0.6,0,1-0.4,1-1V8C47,7.4,46.6,7,46,7z M18,41h-1c-0.6,0-1-0.4-1-1s0.4-1,1-1h1c0.6,0,1,0.4,1,1S18.6,41,18,41z M18,34h-1
	c-0.6,0-1-0.4-1-1s0.4-1,1-1h1c0.6,0,1,0.4,1,1S18.6,34,18,34z M18,27h-1c-0.6,0-1-0.4-1-1s0.4-1,1-1h1c0.6,0,1,0.4,1,1
	S18.6,27,18,27z M14.6,17.1c-0.7,0.4-1.6,0-1.6-0.8V4.1l9.3,7.8L14.6,17.1z M35,4.1v12.1c0,0.8-0.9,1.3-1.6,0.8l-7.8-5.2L35,4.1z
	 M40,29h-6c-0.6,0-1-0.4-1-1s0.4-1,1-1h6c0.6,0,1,0.4,1,1S40.6,29,40,29z"/>
</svg>
