<?xml version="1.0" encoding="utf-8"?>
<!-- Generator: Adobe Illustrator 19.1.0, SVG Export Plug-In . SVG Version: 6.00 Build 0)  -->
<!DOCTYPE svg PUBLIC "-//W3C//DTD SVG 1.1//EN" "http://www.w3.org/Graphics/SVG/1.1/DTD/svg11.dtd">
<svg version="1.1" id="Layer_1" xmlns="http://www.w3.org/2000/svg" xmlns:xlink="http://www.w3.org/1999/xlink" x="0px" y="0px"
	 width="48px" height="48px" viewBox="0 0 48 48" enable-background="new 0 0 48 48" xml:space="preserve">
<path d="M22,1C10.4,1,1,10.4,1,22s9.4,21,21,21c1.7,0,3.4-0.2,5-0.6c0-0.1,0-0.2,0-0.4c0-1.1,0.3-2.1,1-3c-0.6-0.9-1-1.9-1-3
	s0.3-2.1,1-3c-0.6-0.9-1-1.9-1-3s0.3-2.1,1-3c-0.6-0.9-1-1.9-1-3c0-4.1,4.6-7,11-7c1.6,0,3.2,0.2,4.5,0.6C40.5,8.1,32.1,1,22,1z
	 M23,22c0,0.6-0.4,1-1,1H12c-0.6,0-1-0.4-1-1s0.4-1,1-1h9v-9c0-0.6,0.4-1,1-1s1,0.4,1,1V22z"/>
<path id="color_32_" d="M38,43c-3.6,0-6.7-0.9-8.6-2.5C29.1,41,29,41.5,29,42c0,2.9,3.9,5,9,5s9-2.1,9-5c0-0.5-0.1-1-0.4-1.5
	C44.7,42.1,41.6,43,38,43z"/>
<path id="color_31_" d="M38,37c-3.6,0-6.7-0.9-8.6-2.5C29.1,35,29,35.5,29,36c0,2.9,3.9,5,9,5s9-2.1,9-5c0-0.5-0.1-1-0.4-1.5
	C44.7,36.1,41.6,37,38,37z"/>
<path id="color_30_" d="M38,31c-3.6,0-6.7-0.9-8.6-2.5C29.1,29,29,29.5,29,30c0,2.9,3.9,5,9,5s9-2.1,9-5c0-0.5-0.1-1-0.4-1.5
	C44.7,30.1,41.6,31,38,31z"/>
<path id="color_29_" d="M38,19c-5.1,0-9,2.1-9,5s3.9,5,9,5s9-2.1,9-5S43.1,19,38,19z"/>
</svg>
