<?xml version="1.0" encoding="utf-8"?>
<!-- Generator: Adobe Illustrator 19.1.0, SVG Export Plug-In . SVG Version: 6.00 Build 0)  -->
<!DOCTYPE svg PUBLIC "-//W3C//DTD SVG 1.1//EN" "http://www.w3.org/Graphics/SVG/1.1/DTD/svg11.dtd">
<svg version="1.1" id="Layer_1" xmlns="http://www.w3.org/2000/svg" xmlns:xlink="http://www.w3.org/1999/xlink" x="0px" y="0px"
	 width="48px" height="48px" viewBox="0 0 48 48" enable-background="new 0 0 48 48" xml:space="preserve">
<path id="color_57_" d="M17.6,26H13c-0.6,0-1-0.4-1-1v-4.6c0-0.3,0.1-0.5,0.3-0.7l17-17c0.4-0.4,1-0.4,1.4,0l4.6,4.6
	c0.4,0.4,0.4,1,0,1.4l-17,17C18.1,25.9,17.9,26,17.6,26z"/>
<path d="M46,19H27.8l-8.1,8.1c-0.6,0.6-1.3,0.9-2.1,0.9H13c-1.7,0-3-1.3-3-3v-4.6c0-0.5,0.1-1,0.4-1.4H2c-0.6,0-1,0.4-1,1v23
	c0,0.6,0.4,1,1,1h44c0.6,0,1-0.4,1-1V20C47,19.4,46.6,19,46,19z M26,39H12c-0.6,0-1-0.4-1-1s0.4-1,1-1h14c0.6,0,1,0.4,1,1
	S26.6,39,26,39z M36,39h-4c-0.6,0-1-0.4-1-1s0.4-1,1-1h4c0.6,0,1,0.4,1,1S36.6,39,36,39z M36,34H12c-0.6,0-1-0.4-1-1s0.4-1,1-1h24
	c0.6,0,1,0.4,1,1S36.6,34,36,34z"/>
</svg>
