<?xml version="1.0" encoding="utf-8"?>
<!-- Generator: Adobe Illustrator 19.1.0, SVG Export Plug-In . SVG Version: 6.00 Build 0)  -->
<!DOCTYPE svg PUBLIC "-//W3C//DTD SVG 1.1//EN" "http://www.w3.org/Graphics/SVG/1.1/DTD/svg11.dtd">
<svg version="1.1" id="Layer_1" xmlns="http://www.w3.org/2000/svg" xmlns:xlink="http://www.w3.org/1999/xlink" x="0px" y="0px"
	 width="48px" height="48px" viewBox="0 0 48 48" enable-background="new 0 0 48 48" xml:space="preserve">
<path id="color_49_" d="M8,36H7c-0.6,0-1-0.4-1-1v-1H2c-0.6,0-1,0.4-1,1v9c0,0.6,0.4,1,1,1h6V36z"/>
<path id="color_48_" d="M14,34v1c0,0.6-0.4,1-1,1h-1v9h24v-9h-1c-0.6,0-1-0.4-1-1v-1H14z"/>
<path id="color_47_" d="M46,34h-4v1c0,0.6-0.4,1-1,1h-1v9h6c0.6,0,1-0.4,1-1v-9C47,34.4,46.6,34,46,34z"/>
<path d="M12,30h1c0.6,0,1,0.4,1,1v1h20v-1c0-0.6,0.4-1,1-1h1V9h-3V4c0-0.6-0.4-1-1-1H16c-0.6,0-1,0.4-1,1v5h-3V30z M17,5h14v4H17V5z
	"/>
<path d="M6,31c0-0.6,0.4-1,1-1h1V9H2c-0.6,0-1,0.4-1,1v21c0,0.6,0.4,1,1,1h4V31z"/>
<path d="M46,9h-6v21h1c0.6,0,1,0.4,1,1v1h4c0.6,0,1-0.4,1-1V10C47,9.4,46.6,9,46,9z"/>
</svg>
