<?xml version="1.0" encoding="utf-8"?>
<!-- Generator: Adobe Illustrator 20.1.0, SVG Export Plug-In . SVG Version: 6.00 Build 0)  -->
<!DOCTYPE svg PUBLIC "-//W3C//DTD SVG 1.1//EN" "http://www.w3.org/Graphics/SVG/1.1/DTD/svg11.dtd">
<svg version="1.1" id="Layer_1" xmlns="http://www.w3.org/2000/svg" xmlns:xlink="http://www.w3.org/1999/xlink" x="0px" y="0px"
	 width="32px" height="32px" viewBox="0 0 32 32" enable-background="new 0 0 32 32" xml:space="preserve">
<path d="M2,32h28V0H2V32z M4,2h24v28H4V2z"/>
<path d="M21.921,15.025C21.454,12.179,18.977,10,16,10s-5.454,2.179-5.921,5.025C8.347,15.233,7,16.713,7,18.5
	c0,1.93,1.57,3.5,3.5,3.5h11c1.93,0,3.5-1.57,3.5-3.5C25,16.713,23.653,15.233,21.921,15.025z M21.5,20h-11
	C9.673,20,9,19.327,9,18.5S9.673,17,10.5,17c0.104,0,0.207,0.011,0.306,0.03l1.199,0.244v-1.224L12,15.939
	C12.033,13.762,13.814,12,16,12c2.187,0,3.97,1.765,4,3.944l-0.005,1.33l1.199-0.244C21.293,17.011,21.396,17,21.5,17
	c0.827,0,1.5,0.673,1.5,1.5S22.327,20,21.5,20z"/>
</svg>
