<?xml version="1.0" encoding="utf-8"?>
<!-- Generator: Adobe Illustrator 20.1.0, SVG Export Plug-In . SVG Version: 6.00 Build 0)  -->
<!DOCTYPE svg PUBLIC "-//W3C//DTD SVG 1.1//EN" "http://www.w3.org/Graphics/SVG/1.1/DTD/svg11.dtd">
<svg version="1.1" id="Layer_1" xmlns="http://www.w3.org/2000/svg" xmlns:xlink="http://www.w3.org/1999/xlink" x="0px" y="0px"
	 width="32px" height="32px" viewBox="0 0 32 32" enable-background="new 0 0 32 32" xml:space="preserve">
<path d="M2,32h28V0H2V32z M4,2h24v28H4V2z"/>
<path d="M18.309,10.021c-0.862,0.086-1.66,0.428-2.309,0.973c-0.647-0.545-1.446-0.888-2.308-0.974
	c-1.278-0.122-2.538,0.33-3.446,1.252c-1.657,1.684-1.657,4.423,0,6.105L16,23.226l5.756-5.848c1.656-1.684,1.655-4.423-0.002-6.105
	C20.845,10.351,19.59,9.9,18.309,10.021z M20.33,15.976L16,20.374l-4.328-4.399c-0.896-0.909-0.896-2.389,0-3.299
	C12.101,12.24,12.674,12,13.271,12c0.074,0,0.148,0.004,0.223,0.011c0.68,0.068,1.288,0.441,1.669,1.023L16,14.316l0.837-1.282
	c0.381-0.582,0.989-0.955,1.67-1.022c0.682-0.069,1.34,0.175,1.821,0.664v0.001C21.225,13.586,21.225,15.065,20.33,15.976z"/>
</svg>
