<?xml version="1.0" encoding="utf-8"?>
<!-- Generator: Adobe Illustrator 20.1.0, SVG Export Plug-In . SVG Version: 6.00 Build 0)  -->
<!DOCTYPE svg PUBLIC "-//W3C//DTD SVG 1.1//EN" "http://www.w3.org/Graphics/SVG/1.1/DTD/svg11.dtd">
<svg version="1.1" id="Layer_1" xmlns="http://www.w3.org/2000/svg" xmlns:xlink="http://www.w3.org/1999/xlink" x="0px" y="0px"
	 width="32px" height="32px" viewBox="0 0 32 32" enable-background="new 0 0 32 32" xml:space="preserve">
<path d="M12.5,1H0v30h32V5H15.5L12.5,1z M30,29H2V3h9.5l3,4H30V29z"/>
<path d="M12,15.5c0,2.531,2.261,3.096,3.758,3.47C17.495,19.404,18,19.658,18,20.5c0,0.827-0.673,1.5-1.5,1.5h-1
	c-0.827,0-1.5-0.673-1.5-1.5h-2c0,1.758,1.308,3.204,3,3.449V26h2v-2.051c1.692-0.245,3-1.691,3-3.449
	c0-2.531-2.261-3.096-3.758-3.47C14.505,16.596,14,16.342,14,15.5c0-0.827,0.673-1.5,1.5-1.5h1c0.827,0,1.5,0.673,1.5,1.5h2
	c0-1.758-1.308-3.204-3-3.449V10h-2v2.051C13.308,12.296,12,13.742,12,15.5z"/>
</svg>
