<?xml version="1.0" encoding="utf-8"?>
<!-- Generator: Adobe Illustrator 20.1.0, SVG Export Plug-In . SVG Version: 6.00 Build 0)  -->
<!DOCTYPE svg PUBLIC "-//W3C//DTD SVG 1.1//EN" "http://www.w3.org/Graphics/SVG/1.1/DTD/svg11.dtd">
<svg version="1.1" id="Layer_1" xmlns="http://www.w3.org/2000/svg" xmlns:xlink="http://www.w3.org/1999/xlink" x="0px" y="0px"
	 width="32px" height="32px" viewBox="0 0 32 32" enable-background="new 0 0 32 32" xml:space="preserve">
<path d="M2,32h28V0H2V32z M4,2h24v28H4V2z"/>
<path d="M16,8c-4.411,0-8,3.589-8,8s3.589,8,8,8s8-3.589,8-8S20.411,8,16,8z M21.91,15H17v-4.91
	C19.507,10.514,21.486,12.493,21.91,15z M16,22c-3.309,0-6-2.691-6-6c0-2.967,2.167-5.431,5-5.91V17h6.91
	C21.431,19.833,18.967,22,16,22z"/>
</svg>
