<?xml version="1.0" encoding="utf-8"?>
<!-- Generator: Adobe Illustrator 20.1.0, SVG Export Plug-In . SVG Version: 6.00 Build 0)  -->
<!DOCTYPE svg PUBLIC "-//W3C//DTD SVG 1.1//EN" "http://www.w3.org/Graphics/SVG/1.1/DTD/svg11.dtd">
<svg version="1.1" id="Layer_1" xmlns="http://www.w3.org/2000/svg" xmlns:xlink="http://www.w3.org/1999/xlink" x="0px" y="0px"
	 width="32px" height="32px" viewBox="0 0 32 32" enable-background="new 0 0 32 32" xml:space="preserve">
<path d="M2,32h28V0H2V32z M4,2h24v28H4V2z"/>
<path d="M16,8c-4.411,0-8,3.589-8,8s3.589,8,8,8s8-3.589,8-8S20.411,8,16,8z M10,16c0-3.309,2.691-6,6-6
	c1.294,0,2.49,0.416,3.471,1.115l-8.356,8.356C10.416,18.49,10,17.294,10,16z M16,22c-1.294,0-2.49-0.416-3.471-1.115l8.356-8.356
	C21.584,13.51,22,14.706,22,16C22,19.309,19.309,22,16,22z"/>
</svg>
