<?xml version="1.0" encoding="utf-8"?>
<!-- Generator: Adobe Illustrator 20.1.0, SVG Export Plug-In . SVG Version: 6.00 Build 0)  -->
<!DOCTYPE svg PUBLIC "-//W3C//DTD SVG 1.1//EN" "http://www.w3.org/Graphics/SVG/1.1/DTD/svg11.dtd">
<svg version="1.1" id="Layer_1" xmlns="http://www.w3.org/2000/svg" xmlns:xlink="http://www.w3.org/1999/xlink" x="0px" y="0px"
	 width="32px" height="32px" viewBox="0 0 32 32" enable-background="new 0 0 32 32" xml:space="preserve">
<path d="M2,32h28V0H2V32z M4,2h24v28H4V2z"/>
<path d="M9,15h6V9H9V15z M11,11h2v2h-2V11z"/>
<path d="M17,15h6V9h-6V15z M19,11h2v2h-2V11z"/>
<path d="M9,23h6v-6H9V23z M11,19h2v2h-2V19z"/>
<path d="M17,23h6v-6h-6V23z M19,19h2v2h-2V19z"/>
</svg>
