<?xml version="1.0" encoding="utf-8"?>
<!-- Generator: Adobe Illustrator 20.1.0, SVG Export Plug-In . SVG Version: 6.00 Build 0)  -->
<!DOCTYPE svg PUBLIC "-//W3C//DTD SVG 1.1//EN" "http://www.w3.org/Graphics/SVG/1.1/DTD/svg11.dtd">
<svg version="1.1" id="Layer_1" xmlns="http://www.w3.org/2000/svg" xmlns:xlink="http://www.w3.org/1999/xlink" x="0px" y="0px"
	 width="32px" height="32px" viewBox="0 0 32 32" enable-background="new 0 0 32 32" xml:space="preserve">
<polygon points="14.87,20.615 9.926,16.66 5.586,21 7,22.414 10.074,19.34 15.13,23.385 20.974,16.567 24.844,21.406 26.405,20.156 
	21.026,13.433 "/>
<path d="M2,32h28V0H2V32z M4,2h24v28H4V2z"/>
<path d="M14.5,14c1.93,0,3.5-1.57,3.5-3.5S16.43,7,14.5,7S11,8.57,11,10.5S12.57,14,14.5,14z M14.5,9c0.827,0,1.5,0.673,1.5,1.5
	S15.327,12,14.5,12S13,11.327,13,10.5S13.673,9,14.5,9z"/>
</svg>
