<?xml version="1.0" encoding="utf-8"?>
<!-- Generator: Adobe Illustrator 20.1.0, SVG Export Plug-In . SVG Version: 6.00 Build 0)  -->
<!DOCTYPE svg PUBLIC "-//W3C//DTD SVG 1.1//EN" "http://www.w3.org/Graphics/SVG/1.1/DTD/svg11.dtd">
<svg version="1.1" id="Layer_1" xmlns="http://www.w3.org/2000/svg" xmlns:xlink="http://www.w3.org/1999/xlink" x="0px" y="0px"
	 width="32px" height="32px" viewBox="0 0 32 32" enable-background="new 0 0 32 32" xml:space="preserve">
<path d="M2,32h28V0H2V32z M4,2h24v28H4V2z"/>
<path d="M16,8.929l-0.707,0.707l1.414,1.414l0.707-0.707c1.169-1.171,3.072-1.171,4.243,0c1.17,1.17,1.17,3.073,0,4.243
	l-2.121,2.121c-1.134,1.133-3.109,1.133-4.243,0L14.586,16l-1.414,1.414l0.707,0.707c0.944,0.944,2.2,1.465,3.536,1.465
	c1.335,0,2.591-0.521,3.535-1.465L23.071,16c1.95-1.949,1.95-5.122,0-7.071C21.122,6.98,17.949,6.98,16,8.929z"/>
<path d="M14.586,21.657c-1.17,1.169-3.073,1.169-4.243,0c-1.17-1.17-1.17-3.073,0-4.243l2.121-2.121
	c1.134-1.133,3.109-1.133,4.243,0L17.414,16l1.414-1.414l-0.707-0.707c-0.944-0.944-2.2-1.465-3.536-1.465
	c-1.335,0-2.591,0.521-3.535,1.465L8.929,16c-1.95,1.949-1.95,5.122,0,7.071c0.975,0.975,2.255,1.462,3.535,1.462
	c1.281,0,2.561-0.487,3.536-1.462l0.707-0.707l-1.414-1.414L14.586,21.657z"/>
</svg>
