<?xml version="1.0" encoding="utf-8"?>
<!-- Generator: Adobe Illustrator 20.1.0, SVG Export Plug-In . SVG Version: 6.00 Build 0)  -->
<!DOCTYPE svg PUBLIC "-//W3C//DTD SVG 1.1//EN" "http://www.w3.org/Graphics/SVG/1.1/DTD/svg11.dtd">
<svg version="1.1" id="Layer_1" xmlns="http://www.w3.org/2000/svg" xmlns:xlink="http://www.w3.org/1999/xlink" x="0px" y="0px"
	 width="32px" height="32px" viewBox="0 0 32 32" enable-background="new 0 0 32 32" xml:space="preserve">
<path d="M12.5,1H0v30h32V5H15.5L12.5,1z M30,29H2V3h9.5l3,4H30V29z"/>
<path d="M10.079,17.025C8.347,17.233,7,18.713,7,20.5c0,1.93,1.57,3.5,3.5,3.5h11c1.93,0,3.5-1.57,3.5-3.5
	c0-1.787-1.347-3.267-3.079-3.475C21.454,14.179,18.977,12,16,12S10.546,14.179,10.079,17.025z M16,14c2.187,0,3.97,1.765,4,3.944
	l-0.005,1.33l1.199-0.244C21.293,19.011,21.396,19,21.5,19c0.827,0,1.5,0.673,1.5,1.5S22.327,22,21.5,22h-11
	C9.673,22,9,21.327,9,20.5S9.673,19,10.5,19c0.104,0,0.207,0.011,0.306,0.03l1.199,0.244v-1.224L12,17.939
	C12.033,15.762,13.814,14,16,14z"/>
</svg>
