<?xml version="1.0" encoding="utf-8"?>
<!-- Generator: Adobe Illustrator 20.1.0, SVG Export Plug-In . SVG Version: 6.00 Build 0)  -->
<!DOCTYPE svg PUBLIC "-//W3C//DTD SVG 1.1//EN" "http://www.w3.org/Graphics/SVG/1.1/DTD/svg11.dtd">
<svg version="1.1" id="Layer_1" xmlns="http://www.w3.org/2000/svg" xmlns:xlink="http://www.w3.org/1999/xlink" x="0px" y="0px"
	 width="32px" height="32px" viewBox="0 0 32 32" enable-background="new 0 0 32 32" xml:space="preserve">
<path d="M27,4H12.5l-3-4H0v28c0,2.206,1.794,4,4,4h1h23c2.206,0,4-1.794,4-4V10h-5V4z M6,28c0,1.103-0.897,2-2,2s-2-0.897-2-2V2h6.5
	l3,4H25v4H6V28z M30,12v16c0,1.103-0.897,2-2,2H7.463C7.805,29.411,8,28.728,8,28V12h17h2H30z"/>
</svg>
