<?xml version="1.0" encoding="utf-8"?>
<!-- Generator: Adobe Illustrator 20.1.0, SVG Export Plug-In . SVG Version: 6.00 Build 0)  -->
<!DOCTYPE svg PUBLIC "-//W3C//DTD SVG 1.1//EN" "http://www.w3.org/Graphics/SVG/1.1/DTD/svg11.dtd">
<svg version="1.1" id="Layer_1" xmlns="http://www.w3.org/2000/svg" xmlns:xlink="http://www.w3.org/1999/xlink" x="0px" y="0px"
	 width="32px" height="32px" viewBox="0 0 32 32" enable-background="new 0 0 32 32" xml:space="preserve">
<path d="M2,32h28V0H2V32z M4,2h24v28H4V2z"/>
<path d="M18.613,13.036L16,7.74l-2.613,5.296l-5.845,0.85l4.229,4.121l-0.999,5.821L16,21.08l5.228,2.748l-0.999-5.821l4.229-4.121
	L18.613,13.036z M18.571,20.172L16,18.82l-2.571,1.352l0.491-2.863l-2.079-2.026l2.874-0.418L16,12.26l1.285,2.604l2.874,0.418
	l-2.079,2.026L18.571,20.172z"/>
</svg>
