<?xml version="1.0" encoding="utf-8"?>
<!-- Generator: Adobe Illustrator 20.1.0, SVG Export Plug-In . SVG Version: 6.00 Build 0)  -->
<!DOCTYPE svg PUBLIC "-//W3C//DTD SVG 1.1//EN" "http://www.w3.org/Graphics/SVG/1.1/DTD/svg11.dtd">
<svg version="1.1" id="Layer_1" xmlns="http://www.w3.org/2000/svg" xmlns:xlink="http://www.w3.org/1999/xlink" x="0px" y="0px"
	 width="32px" height="32px" viewBox="0 0 32 32" enable-background="new 0 0 32 32" xml:space="preserve">
<path d="M12.5,1H0v30h32V5H15.5L12.5,1z M30,29H2V3h9.5l3,4H30V29z"/>
<path d="M7,18c0,4.963,4.037,9,9,9s9-4.037,9-9s-4.037-9-9-9S7,13.037,7,18z M16,11c3.859,0,7,3.141,7,7s-3.141,7-7,7s-7-3.141-7-7
	S12.141,11,16,11z"/>
<polygon points="21,17 17,17 17,13 15,13 15,19 21,19 "/>
</svg>
