<?xml version="1.0" encoding="utf-8"?>
<!-- Generator: Adobe Illustrator 20.1.0, SVG Export Plug-In . SVG Version: 6.00 Build 0)  -->
<!DOCTYPE svg PUBLIC "-//W3C//DTD SVG 1.1//EN" "http://www.w3.org/Graphics/SVG/1.1/DTD/svg11.dtd">
<svg version="1.1" id="Layer_1" xmlns="http://www.w3.org/2000/svg" xmlns:xlink="http://www.w3.org/1999/xlink" x="0px" y="0px"
	 width="32px" height="32px" viewBox="0 0 32 32" enable-background="new 0 0 32 32" xml:space="preserve">
<path d="M30,0H2v32h28V0z M28,30H4V2h24V30z"/>
<path d="M14.125,11.322C14.408,10.672,15.188,10,16,10c1.065,0,2,0.935,2,2s-0.935,2-2,2h-1v5h2v-3.132c1.703-0.457,3-2.043,3-3.868
	c0-2.168-1.832-4-4-4c-1.51,0-3.07,1.06-3.708,2.521l-0.4,0.916l1.833,0.801L14.125,11.322z"/>
<circle cx="16" cy="22" r="1"/>
</svg>
