<?xml version="1.0" encoding="utf-8"?>
<!-- Generator: Adobe Illustrator 19.1.0, SVG Export Plug-In . SVG Version: 6.00 Build 0)  -->
<!DOCTYPE svg PUBLIC "-//W3C//DTD SVG 1.1//EN" "http://www.w3.org/Graphics/SVG/1.1/DTD/svg11.dtd">
<svg version="1.1" id="Layer_1" xmlns="http://www.w3.org/2000/svg" xmlns:xlink="http://www.w3.org/1999/xlink" x="0px" y="0px"
	 width="24px" height="24px" viewBox="0 0 24 24" enable-background="new 0 0 24 24" xml:space="preserve">
<path d="M14,11c0-3.9-3.1-7-7-7s-7,3.1-7,7c0,3.5,2.6,6.4,6,6.9V20H5c-0.6,0-1,0.4-1,1s0.4,1,1,1h1v1c0,0.6,0.4,1,1,1s1-0.4,1-1v-1
	h1c0.6,0,1-0.4,1-1s-0.4-1-1-1H8v-2.1C11.4,17.4,14,14.5,14,11z M2,11c0-2.8,2.2-5,5-5s5,2.2,5,5s-2.2,5-5,5S2,13.8,2,11z"/>
<path d="M23.9,1.6c-0.1-0.2-0.3-0.4-0.5-0.5C23.3,1,23.1,1,23,1h-4c-0.6,0-1,0.4-1,1s0.4,1,1,1h1.6l-2.4,2.4C17,4.5,15.6,4,14,4
	c-3.9,0-7,3.1-7,7s3.1,7,7,7s7-3.1,7-7c0-1.6-0.5-3-1.4-4.2L22,4.4V6c0,0.6,0.4,1,1,1s1-0.4,1-1V2C24,1.9,24,1.7,23.9,1.6z M14,16
	c-2.8,0-5-2.2-5-5s2.2-5,5-5s5,2.2,5,5S16.8,16,14,16z"/>
</svg>
