<?xml version="1.0" encoding="utf-8"?>
<!-- Generator: Adobe Illustrator 19.1.0, SVG Export Plug-In . SVG Version: 6.00 Build 0)  -->
<!DOCTYPE svg PUBLIC "-//W3C//DTD SVG 1.1//EN" "http://www.w3.org/Graphics/SVG/1.1/DTD/svg11.dtd">
<svg version="1.1" id="Layer_1" xmlns="http://www.w3.org/2000/svg" xmlns:xlink="http://www.w3.org/1999/xlink" x="0px" y="0px"
	 width="24px" height="24px" viewBox="0 0 24 24" enable-background="new 0 0 24 24" xml:space="preserve">
<path d="M12.9,1.5c-0.4-0.6-1.4-0.6-1.7,0C11.1,1.6,9,5.1,9,9.5s2.1,7.9,2.1,8c0.2,0.3,0.5,0.5,0.9,0.5s0.7-0.2,0.9-0.5
	c0.1-0.1,2.1-3.6,2.1-8S12.9,1.6,12.9,1.5z"/>
<path id="color_18_" d="M14.3,18.7c0.2,0.2,0.4,0.3,0.7,0.3c0.1,0,0.1,0,0.2,0c0.1,0,2.9-0.6,5.1-2.7c2.1-2.1,2.7-4.9,2.7-5.1
	c0.1-0.3,0-0.7-0.3-0.9c-0.2-0.2-0.6-0.3-0.9-0.3c-0.1,0-2.9,0.6-5.1,2.7c-2.1,2.1-2.7,4.9-2.7,5.1C14,18.1,14.1,18.5,14.3,18.7z"/>
<path d="M22.9,20.8c-0.1-0.1-2-1.8-4.5-1.8s-4.4,1.7-4.5,1.8c-0.2,0.2-0.3,0.5-0.3,0.8s0.1,0.6,0.3,0.8c0.1,0.1,2,1.8,4.5,1.8
	s4.4-1.7,4.5-1.8c0.2-0.2,0.3-0.5,0.3-0.8S23.2,20.9,22.9,20.8z"/>
<path id="color_17_" d="M3.8,16.3C5.9,18.4,8.7,19,8.8,19c0.1,0,0.1,0,0.2,0c0.3,0,0.5-0.1,0.7-0.3c0.2-0.2,0.3-0.6,0.3-0.9
	c0-0.1-0.6-2.9-2.7-5.1c-2.1-2.1-4.9-2.7-5.1-2.7c-0.3-0.1-0.7,0-0.9,0.3c-0.2,0.2-0.3,0.6-0.3,0.9C1.1,11.4,1.6,14.2,3.8,16.3z"/>
<path d="M5.5,19c-2.4,0-4.4,1.7-4.5,1.8c-0.2,0.2-0.3,0.5-0.3,0.8s0.1,0.6,0.3,0.8c0.1,0.1,2,1.8,4.5,1.8s4.4-1.7,4.5-1.8
	c0.2-0.2,0.3-0.5,0.3-0.8s-0.1-0.6-0.3-0.8C9.9,20.7,8,19,5.5,19z"/>
</svg>
