<?xml version="1.0" encoding="utf-8"?>
<!-- Generator: Adobe Illustrator 19.1.0, SVG Export Plug-In . SVG Version: 6.00 Build 0)  -->
<!DOCTYPE svg PUBLIC "-//W3C//DTD SVG 1.1//EN" "http://www.w3.org/Graphics/SVG/1.1/DTD/svg11.dtd">
<svg version="1.1" id="Layer_1" xmlns="http://www.w3.org/2000/svg" xmlns:xlink="http://www.w3.org/1999/xlink" x="0px" y="0px"
	 width="24px" height="24px" viewBox="0 0 24 24" enable-background="new 0 0 24 24" xml:space="preserve">
<path d="M21,9c0-5-4-9-9-9S3,4,3,9c0,4.6,3.5,8.4,8,8.9V20H9c-0.6,0-1,0.4-1,1s0.4,1,1,1h2v1c0,0.6,0.4,1,1,1s1-0.4,1-1v-1h2
	c0.6,0,1-0.4,1-1s-0.4-1-1-1h-2v-2.1C17.5,17.4,21,13.6,21,9z M5,9c0-3.9,3.1-7,7-7s7,3.1,7,7s-3.1,7-7,7S5,12.9,5,9z"/>
</svg>
