<?xml version="1.0" encoding="utf-8"?>
<!-- Generator: Adobe Illustrator 19.1.0, SVG Export Plug-In . SVG Version: 6.00 Build 0)  -->
<!DOCTYPE svg PUBLIC "-//W3C//DTD SVG 1.1//EN" "http://www.w3.org/Graphics/SVG/1.1/DTD/svg11.dtd">
<svg version="1.1" id="Layer_1" xmlns="http://www.w3.org/2000/svg" xmlns:xlink="http://www.w3.org/1999/xlink" x="0px" y="0px"
	 width="24px" height="24px" viewBox="0 0 24 24" enable-background="new 0 0 24 24" xml:space="preserve">
<path d="M23.4,12.1L22,11.4V8c0-0.6-0.4-1-1-1h-5V4c0-0.6-0.4-1-1-1H1C0.4,3,0,3.4,0,4v13c0,0.6,0.4,1,1,1h1.1c0.4,1.7,2,3,3.9,3
	s3.4-1.3,3.9-3h4.2c0.2,1.7,1.7,3,3.4,3s3.2-1.3,3.4-3H23c0.6,0,1-0.4,1-1v-4C24,12.6,23.8,12.3,23.4,12.1z M6,19c-1.1,0-2-0.9-2-2
	c0-1.1,0.9-2,2-2s2,0.9,2,2C8,18.1,7.1,19,6,19z M11,10H9v2H7v-2H5V8h2V6h2v2h2V10z M17.5,19c-0.8,0-1.5-0.7-1.5-1.5
	s0.7-1.5,1.5-1.5s1.5,0.7,1.5,1.5S18.3,19,17.5,19z M20,10.5c0,0.3-0.2,0.5-0.5,0.5h-2c-0.3,0-0.5-0.2-0.5-0.5v-1
	C17,9.2,17.2,9,17.5,9h2C19.8,9,20,9.2,20,9.5V10.5z"/>
</svg>
