<?xml version="1.0" encoding="utf-8"?>
<!-- Generator: Adobe Illustrator 19.1.0, SVG Export Plug-In . SVG Version: 6.00 Build 0)  -->
<!DOCTYPE svg PUBLIC "-//W3C//DTD SVG 1.1//EN" "http://www.w3.org/Graphics/SVG/1.1/DTD/svg11.dtd">
<svg version="1.1" id="Layer_1" xmlns="http://www.w3.org/2000/svg" xmlns:xlink="http://www.w3.org/1999/xlink" x="0px" y="0px"
	 width="24px" height="24px" viewBox="0 0 24 24" enable-background="new 0 0 24 24" xml:space="preserve">
<path d="M19.3,3l-7-2C12.1,1,11.9,1,11.7,1l-7,2C4.3,3.2,4,3.6,4,4v8v4c0,4.4,3.6,8,8,8s8-3.6,8-8v-4V4C20,3.6,19.7,3.2,19.3,3z
	 M9,6h2V4h2v2h2v2h-2v2h-2V8H9V6z M18,16c0,3.3-2.7,6-6,6s-6-2.7-6-6v-3h12V16z"/>
</svg>
