<?xml version="1.0" encoding="utf-8"?>
<!-- Generator: Adobe Illustrator 19.1.0, SVG Export Plug-In . SVG Version: 6.00 Build 0)  -->
<!DOCTYPE svg PUBLIC "-//W3C//DTD SVG 1.1//EN" "http://www.w3.org/Graphics/SVG/1.1/DTD/svg11.dtd">
<svg version="1.1" id="Layer_1" xmlns="http://www.w3.org/2000/svg" xmlns:xlink="http://www.w3.org/1999/xlink" x="0px" y="0px"
	 width="24px" height="24px" viewBox="0 0 24 24" enable-background="new 0 0 24 24" xml:space="preserve">
<path d="M22.9,1.6c-0.1-0.2-0.3-0.4-0.5-0.5C22.3,1,22.1,1,22,1h-6c-0.6,0-1,0.4-1,1s0.4,1,1,1h3.6l-4,4c-1.5-1.2-3.5-2-5.6-2
	c-5,0-9,4-9,9s4,9,9,9s9-4,9-9c0-2.1-0.7-4.1-2-5.6l4-4V8c0,0.6,0.4,1,1,1s1-0.4,1-1V2C23,1.9,23,1.7,22.9,1.6z M10,21
	c-3.9,0-7-3.1-7-7s3.1-7,7-7s7,3.1,7,7S13.9,21,10,21z"/>
</svg>
