<?xml version="1.0" encoding="utf-8"?>
<!-- Generator: Adobe Illustrator 19.1.0, SVG Export Plug-In . SVG Version: 6.00 Build 0)  -->
<!DOCTYPE svg PUBLIC "-//W3C//DTD SVG 1.1//EN" "http://www.w3.org/Graphics/SVG/1.1/DTD/svg11.dtd">
<svg version="1.1" id="Layer_1" xmlns="http://www.w3.org/2000/svg" xmlns:xlink="http://www.w3.org/1999/xlink" x="0px" y="0px"
	 width="24px" height="24px" viewBox="0 0 24 24" enable-background="new 0 0 24 24" xml:space="preserve">
<path d="M21,8H3C2.4,8,2,8.4,2,9v14c0,0.6,0.4,1,1,1h18c0.6,0,1-0.4,1-1V9C22,8.4,21.6,8,21,8z M17,18c0,0.6-0.4,1-1,1H8
	c-0.6,0-1-0.4-1-1v-4c0-0.6,0.4-1,1-1h8c0.6,0,1,0.4,1,1V18z"/>
<path id="color_12_" d="M0,1v4c0,0.6,0.4,1,1,1h4V3h2v3h2V3h2v3h2V3h2v3h2V3h2v3h4c0.6,0,1-0.4,1-1V1c0-0.6-0.4-1-1-1H1
	C0.4,0,0,0.4,0,1z"/>
</svg>
