<?xml version="1.0" encoding="utf-8"?>
<!-- Generator: Adobe Illustrator 19.1.0, SVG Export Plug-In . SVG Version: 6.00 Build 0)  -->
<!DOCTYPE svg PUBLIC "-//W3C//DTD SVG 1.1//EN" "http://www.w3.org/Graphics/SVG/1.1/DTD/svg11.dtd">
<svg version="1.1" id="Layer_1" xmlns="http://www.w3.org/2000/svg" xmlns:xlink="http://www.w3.org/1999/xlink" x="0px" y="0px"
	 width="24px" height="24px" viewBox="0 0 24 24" enable-background="new 0 0 24 24" xml:space="preserve">
<rect id="color_2_" x="4" y="1" width="3" height="2"/>
<rect id="color_1_" x="4" y="5" width="3" height="2"/>
<rect id="color" x="4" y="9" width="3" height="2"/>
<path d="M17,11.3V4c0-2.2-1.8-4-4-4S9,1.8,9,4v7.3c-1.9,1.3-3,3.5-3,5.7c0,3.9,3.1,7,7,7s7-3.1,7-7C20,14.7,18.9,12.6,17,11.3z
	 M13,21c-2.2,0-4-1.8-4-4h8C17,19.2,15.2,21,13,21z"/>
</svg>
