<?xml version="1.0" encoding="utf-8"?>
<!-- Generator: Adobe Illustrator 19.1.0, SVG Export Plug-In . SVG Version: 6.00 Build 0)  -->
<!DOCTYPE svg PUBLIC "-//W3C//DTD SVG 1.1//EN" "http://www.w3.org/Graphics/SVG/1.1/DTD/svg11.dtd">
<svg version="1.1" id="Layer_1" xmlns="http://www.w3.org/2000/svg" xmlns:xlink="http://www.w3.org/1999/xlink" x="0px" y="0px"
	 width="24px" height="24px" viewBox="0 0 24 24" enable-background="new 0 0 24 24" xml:space="preserve">
<path d="M19,8.4l2.1-2.1l0.4,0.4c0.4,0.4,1,0.4,1.4,0v0c0.4-0.4,0.4-1,0-1.4L18.7,1c-0.4-0.4-1-0.4-1.4,0v0c-0.4,0.4-0.4,1,0,1.4
	l0.4,0.4L15.6,5l-3.2-3.2c-0.4-0.4-1-0.4-1.4,0l0,0c-0.4,0.4-0.4,1,0,1.4l2.1,2.1L12.4,6L14,7.6L12.6,9L11,7.4L9.4,9l1.6,1.6L9.6,12
	L8,10.4L6.4,12L8,13.6L6.6,15L5,13.4l-1.8,1.8l2.1,2.1L1,21.5c-0.4,0.4-0.4,1,0,1.4h0c0.4,0.4,1,0.4,1.4,0l4.2-4.2l2.1,2.1l9.9-9.9
	l2.1,2.1c0.4,0.4,1,0.4,1.4,0v0c0.4-0.4,0.4-1,0-1.4L19,8.4z"/>
</svg>
