<?xml version="1.0" encoding="utf-8"?>
<!-- Generator: Adobe Illustrator 19.1.0, SVG Export Plug-In . SVG Version: 6.00 Build 0)  -->
<!DOCTYPE svg PUBLIC "-//W3C//DTD SVG 1.1//EN" "http://www.w3.org/Graphics/SVG/1.1/DTD/svg11.dtd">
<svg version="1.1" id="Layer_1" xmlns="http://www.w3.org/2000/svg" xmlns:xlink="http://www.w3.org/1999/xlink" x="0px" y="0px"
	 width="24px" height="24px" viewBox="0 0 24 24" enable-background="new 0 0 24 24" xml:space="preserve">
<path d="M18.6,13l-2.7,5.4C15.7,18.8,15.4,19,15,19s-0.7-0.2-0.9-0.6L9,8.2l-2.1,4.2C6.7,12.8,6.4,13,6,13H0.1
	C0.6,19.1,5.7,24,12,24s11.4-4.9,11.9-11H18.6z"/>
<path d="M5.4,11l2.7-5.4c0.3-0.7,1.4-0.7,1.8,0L15,15.8l2.1-4.2c0.2-0.3,0.5-0.6,0.9-0.6h5.9C23.4,4.9,18.3,0,12,0S0.6,4.9,0.1,11
	H5.4z"/>
</svg>
