<?xml version="1.0" encoding="utf-8"?>
<!-- Generator: Adobe Illustrator 19.1.0, SVG Export Plug-In . SVG Version: 6.00 Build 0)  -->
<!DOCTYPE svg PUBLIC "-//W3C//DTD SVG 1.1//EN" "http://www.w3.org/Graphics/SVG/1.1/DTD/svg11.dtd">
<svg version="1.1" id="Layer_1" xmlns="http://www.w3.org/2000/svg" xmlns:xlink="http://www.w3.org/1999/xlink" x="0px" y="0px"
	 width="24px" height="24px" viewBox="0 0 24 24" enable-background="new 0 0 24 24" xml:space="preserve">
<path d="M12.7,1.3c-0.4-0.4-1-0.4-1.4,0C11,1.6,3,9.7,3,15c0,5.6,4.6,9,9,9s9-3.4,9-9C21,9.7,13,1.6,12.7,1.3z M12,19
	c-1.5,0-4-1.1-4-4c0-0.6,0.4-1,1-1s1,0.4,1,1c0,1.9,2,2,2,2c0.6,0,1,0.4,1,1S12.6,19,12,19z"/>
</svg>
