<?xml version="1.0" encoding="utf-8"?>
<!-- Generator: Adobe Illustrator 19.1.0, SVG Export Plug-In . SVG Version: 6.00 Build 0)  -->
<!DOCTYPE svg PUBLIC "-//W3C//DTD SVG 1.1//EN" "http://www.w3.org/Graphics/SVG/1.1/DTD/svg11.dtd">
<svg version="1.1" id="Layer_1" xmlns="http://www.w3.org/2000/svg" xmlns:xlink="http://www.w3.org/1999/xlink" x="0px" y="0px"
	 width="24px" height="24px" viewBox="0 0 24 24" enable-background="new 0 0 24 24" xml:space="preserve">
<path d="M23,11h-5c-0.4,0-0.8,0.2-0.9,0.6L15,16.5L9.9,4.6C9.8,4.2,9.4,4,9,4S8.2,4.2,8.1,4.6L5.3,11H1c-0.6,0-1,0.4-1,1s0.4,1,1,1
	h5c0.4,0,0.8-0.2,0.9-0.6L9,7.5l5.1,11.9c0.2,0.4,0.5,0.6,0.9,0.6s0.8-0.2,0.9-0.6l2.7-6.4H23c0.6,0,1-0.4,1-1S23.6,11,23,11z"/>
</svg>
