<?xml version="1.0" encoding="utf-8"?>
<!-- Generator: Adobe Illustrator 19.1.0, SVG Export Plug-In . SVG Version: 6.00 Build 0)  -->
<!DOCTYPE svg PUBLIC "-//W3C//DTD SVG 1.1//EN" "http://www.w3.org/Graphics/SVG/1.1/DTD/svg11.dtd">
<svg version="1.1" id="Layer_1" xmlns="http://www.w3.org/2000/svg" xmlns:xlink="http://www.w3.org/1999/xlink" x="0px" y="0px"
	 width="48px" height="48px" viewBox="0 0 48 48" enable-background="new 0 0 48 48" xml:space="preserve">
<path id="color_23_" d="M10,5h2c0.6,0,1-0.4,1-1s-0.4-1-1-1h-2C9.4,3,9,3.4,9,4S9.4,5,10,5z"/>
<path id="color_22_" d="M12,11h-2c-0.6,0-1,0.4-1,1s0.4,1,1,1h2c0.6,0,1-0.4,1-1S12.6,11,12,11z"/>
<path id="color_21_" d="M12,19h-2c-0.6,0-1,0.4-1,1s0.4,1,1,1h2c0.6,0,1-0.4,1-1S12.6,19,12,19z"/>
<path d="M33,23.1V8c0-3.9-3.1-7-7-7s-7,3.1-7,7v15.1c-3.7,2.4-6,6.5-6,10.9c0,7.2,5.8,13,13,13s13-5.8,13-13
	C39,29.6,36.7,25.4,33,23.1z M26,41c-3.9,0-7-3.1-7-7c0-3.5,2.6-6.4,6-6.9V12c0-0.6,0.4-1,1-1s1,0.4,1,1v15.1c3.4,0.5,6,3.4,6,6.9
	C33,37.9,29.9,41,26,41z"/>
</svg>
