<?xml version="1.0" encoding="utf-8"?>
<!-- Generator: Adobe Illustrator 19.1.0, SVG Export Plug-In . SVG Version: 6.00 Build 0)  -->
<!DOCTYPE svg PUBLIC "-//W3C//DTD SVG 1.1//EN" "http://www.w3.org/Graphics/SVG/1.1/DTD/svg11.dtd">
<svg version="1.1" id="Layer_1" xmlns="http://www.w3.org/2000/svg" xmlns:xlink="http://www.w3.org/1999/xlink" x="0px" y="0px"
	 width="48px" height="48px" viewBox="0 0 48 48" enable-background="new 0 0 48 48" xml:space="preserve">
<path d="M40,21c-3.9,0-7,3.1-7,7s3.1,7,7,7s7-3.1,7-7S43.9,21,40,21z"/>
<path d="M22,33h0.5c2.5,0,4.6-1.8,4.9-4.3l3.2-22.3C30.8,5.6,30.5,4.7,30,4c-0.6-0.7-1.4-1-2.3-1H23V2c0-0.6-0.4-1-1-1s-1,0.4-1,1v4
	c0,0.6,0.4,1,1,1s1-0.4,1-1V5h4.7c0.3,0,0.6,0.1,0.8,0.3s0.3,0.5,0.2,0.8l-3.2,22.3c-0.2,1.5-1.5,2.6-3,2.6H9.5
	c-1.5,0-2.8-1.1-3-2.6L3.3,6.1c0-0.3,0-0.6,0.2-0.8S4,5,4.3,5H9v1c0,0.6,0.4,1,1,1s1-0.4,1-1V2c0-0.6-0.4-1-1-1S9,1.4,9,2v1H4.3
	C3.4,3,2.6,3.4,2,4C1.5,4.7,1.2,5.6,1.3,6.4l3.2,22.3C4.9,31.2,7,33,9.5,33H10H22z"/>
<path id="color" d="M40,37c-0.5,0-0.9,0-1.4-0.1C37.3,41.6,33.1,45,28,45c-5.7,0-10.4-4.4-10.9-10h-2c0.5,6.7,6.1,12,12.9,12
	c6.1,0,11.3-4.3,12.6-10C40.4,37,40.2,37,40,37z"/>
</svg>
