<?xml version="1.0" encoding="utf-8"?>
<!-- Generator: Adobe Illustrator 19.1.0, SVG Export Plug-In . SVG Version: 6.00 Build 0)  -->
<!DOCTYPE svg PUBLIC "-//W3C//DTD SVG 1.1//EN" "http://www.w3.org/Graphics/SVG/1.1/DTD/svg11.dtd">
<svg version="1.1" id="Layer_1" xmlns="http://www.w3.org/2000/svg" xmlns:xlink="http://www.w3.org/1999/xlink" x="0px" y="0px"
	 width="48px" height="48px" viewBox="0 0 48 48" enable-background="new 0 0 48 48" xml:space="preserve">
<path id="color_24_" d="M28,25h-3v-3c0-0.6-0.4-1-1-1s-1,0.4-1,1v3h-3c-0.6,0-1,0.4-1,1s0.4,1,1,1h3v3c0,0.6,0.4,1,1,1s1-0.4,1-1v-3
	h3c0.6,0,1-0.4,1-1S28.6,25,28,25z"/>
<path d="M44,3h-8v6h2c0.6,0,1,0.4,1,1v30c0,0.6-0.4,1-1,1H10c-0.6,0-1-0.4-1-1V10c0-0.6,0.4-1,1-1h2V3H4C3.4,3,3,3.4,3,4v42
	c0,0.6,0.4,1,1,1h40c0.6,0,1-0.4,1-1V4C45,3.4,44.6,3,44,3z"/>
<path d="M33,2H15c-0.6,0-1,0.4-1,1v9c0,0.6,0.4,1,1,1h3.1c0.5,0,0.9-0.4,1-0.8C19.5,9.8,21.6,8,24,8s4.5,1.8,4.9,4.2
	c0.1,0.5,0.5,0.8,1,0.8H33c0.6,0,1-0.4,1-1V3C34,2.4,33.6,2,33,2z"/>
</svg>
