<?xml version="1.0" encoding="utf-8"?>
<!-- Generator: Adobe Illustrator 19.1.0, SVG Export Plug-In . SVG Version: 6.00 Build 0)  -->
<!DOCTYPE svg PUBLIC "-//W3C//DTD SVG 1.1//EN" "http://www.w3.org/Graphics/SVG/1.1/DTD/svg11.dtd">
<svg version="1.1" id="Layer_1" xmlns="http://www.w3.org/2000/svg" xmlns:xlink="http://www.w3.org/1999/xlink" x="0px" y="0px"
	 width="48px" height="48px" viewBox="0 0 48 48" enable-background="new 0 0 48 48" xml:space="preserve">
<circle cx="24" cy="24" r="3"/>
<path d="M43.9,12.5C43.3,11.4,41.7,10,38,10c-1.9,0-4.1,0.4-6.5,1C29.8,4.5,26.9,1,24,1s-5.8,3.5-7.5,10c-2.4-0.7-4.6-1-6.5-1
	c-3.7,0-5.3,1.4-5.9,2.5C2.7,15,4.2,19.2,9,24c-4.8,4.8-6.3,9-4.9,11.5C4.7,36.6,6.3,38,10,38c0,0,0,0,0,0c1.9,0,4.1-0.4,6.5-1
	c1.7,6.6,4.7,10,7.5,10s5.8-3.5,7.5-10c2.4,0.7,4.6,1,6.5,1c3.7,0,5.3-1.4,5.9-2.5C45.3,33,43.8,28.8,39,24
	C43.8,19.2,45.3,15,43.9,12.5z M24,3c2,0,4.2,3.3,5.6,8.6c-1.8,0.6-3.7,1.4-5.6,2.3c-1.9-0.9-3.8-1.7-5.6-2.3C19.8,6.3,22,3,24,3z
	 M31,24c0,1.4-0.1,2.7-0.1,4c-1.1,0.7-2.2,1.4-3.4,2.1c-1.2,0.7-2.3,1.3-3.5,1.9c-1.2-0.6-2.3-1.2-3.5-1.9c-1.2-0.7-2.3-1.4-3.4-2.1
	c-0.1-1.3-0.1-2.6-0.1-4s0.1-2.7,0.1-4c1.1-0.7,2.2-1.4,3.4-2.1c1.2-0.7,2.3-1.3,3.5-1.9c1.2,0.6,2.3,1.2,3.5,1.9
	c1.2,0.7,2.3,1.4,3.4,2.1C30.9,21.3,31,22.6,31,24z M33,21.5c1.1,0.8,2.2,1.7,3.1,2.5c-0.9,0.8-2,1.7-3.1,2.5c0-0.8,0-1.6,0-2.5
	S33,22.3,33,21.5z M30.6,30.5c-0.2,1.4-0.4,2.7-0.6,3.9c-1.2-0.4-2.4-0.9-3.7-1.5c0.7-0.4,1.5-0.8,2.2-1.2
	C29.2,31.4,30,30.9,30.6,30.5z M21.7,33c-1.3,0.5-2.5,1-3.7,1.5c-0.2-1.2-0.5-2.5-0.6-3.9c0.7,0.4,1.4,0.9,2.1,1.3
	C20.2,32.2,21,32.6,21.7,33z M15,26.5c-1.1-0.8-2.2-1.7-3.1-2.5c0.9-0.8,2-1.7,3.1-2.5c0,0.8,0,1.6,0,2.5S15,25.7,15,26.5z
	 M17.4,17.5c0.2-1.4,0.4-2.7,0.6-3.9c1.2,0.4,2.4,0.9,3.7,1.5c-0.7,0.4-1.5,0.8-2.2,1.2C18.8,16.6,18,17.1,17.4,17.5z M28.5,16.2
	c-0.7-0.4-1.5-0.8-2.2-1.2c1.3-0.5,2.5-1,3.7-1.5c0.2,1.2,0.5,2.5,0.6,3.9C30,17.1,29.2,16.6,28.5,16.2z M5.8,13.5
	c0.6-1,2-1.5,4.2-1.5c1.7,0,3.8,0.3,6,1c-0.4,1.8-0.7,3.8-0.8,6c-1.8,1.2-3.4,2.5-4.7,3.7C6.5,18.7,4.8,15.3,5.8,13.5z M10,36
	c-2.1,0-3.6-0.5-4.2-1.5c-1-1.8,0.7-5.2,4.6-9.1c1.4,1.2,2.9,2.5,4.7,3.7c0.2,2.2,0.5,4.2,0.8,6C13.8,35.7,11.7,36,10,36z M24,45
	c-2,0-4.2-3.3-5.6-8.6c1.8-0.6,3.7-1.4,5.6-2.3c1.9,0.9,3.8,1.7,5.6,2.3C28.2,41.7,26,45,24,45z M42.2,34.5c-0.6,1-2,1.5-4.2,1.5
	c-1.7,0-3.8-0.3-6-1c0.4-1.8,0.7-3.8,0.8-6c1.8-1.2,3.4-2.5,4.7-3.7C41.5,29.3,43.2,32.7,42.2,34.5z M32.8,18.9
	c-0.2-2.2-0.5-4.2-0.8-6c2.2-0.6,4.3-1,6-1c2.1,0,3.6,0.5,4.2,1.5c1,1.8-0.7,5.2-4.6,9.1C36.2,21.4,34.6,20.2,32.8,18.9z"/>
</svg>
