<?xml version="1.0" encoding="utf-8"?>
<!-- Generator: Adobe Illustrator 19.1.0, SVG Export Plug-In . SVG Version: 6.00 Build 0)  -->
<!DOCTYPE svg PUBLIC "-//W3C//DTD SVG 1.1//EN" "http://www.w3.org/Graphics/SVG/1.1/DTD/svg11.dtd">
<svg version="1.1" id="Layer_1" xmlns="http://www.w3.org/2000/svg" xmlns:xlink="http://www.w3.org/1999/xlink" x="0px" y="0px"
	 width="48px" height="48px" viewBox="0 0 48 48" enable-background="new 0 0 48 48" xml:space="preserve">
<path d="M43.8,4.7c-1.5-2.1-3.7-3.4-6.1-3.6c-5.1-0.4-9.4,4-9.8,10.2c-0.2,2.2,0.1,3.9,0.4,5.6c0.4,2.1,0.8,4.5,0.5,8.5
	c0,0.5,0.4,1,0.9,1.1l12,1c0,0,0.1,0,0.1,0c0.4,0,0.8-0.3,0.9-0.7c0.1-0.3,2.7-8,3.2-14C46,9.7,45.3,6.8,43.8,4.7z"/>
<path id="color_5_" d="M42.2,32.3c-0.1-0.5-0.4-0.8-0.9-0.9l-12-1c-0.5,0-0.9,0.3-1,0.7l-0.6,2.1c-0.6,2.2-0.2,4.5,1.1,6.4
	s3.3,3,5.6,3.2c0.2,0,0.4,0,0.6,0c2.1,0,4.2-0.9,5.6-2.5c1.4-1.6,2.1-3.8,1.9-5.9L42.2,32.3z"/>
<path d="M6.5,31.6l11.9-1.2c0.5-0.1,1-0.5,0.9-1.1c-0.4-4,0-6.4,0.3-8.5c0.3-1.7,0.5-3.4,0.3-5.6c-0.6-6-4.4-10.1-9.2-10.1
	c-0.3,0-0.5,0-0.8,0C7.5,5.3,5.4,6.7,3.9,8.8c-1.5,2.2-2.1,5.1-1.8,8.1c0.6,6,3.3,13.7,3.4,14C5.6,31.3,6,31.6,6.5,31.6
	C6.4,31.6,6.5,31.6,6.5,31.6z"/>
<path id="color_4_" d="M19.9,35.1c-0.1-0.5-0.6-0.7-1.1-0.7L6.9,35.5C6.4,35.6,6,36,6,36.4l-0.2,2.2c-0.2,2.1,0.5,4.2,1.9,5.8
	c1.4,1.6,3.5,2.5,5.6,2.5c0.2,0,0.5,0,0.7,0c2.3-0.2,4.3-1.4,5.6-3.3c1.3-1.9,1.6-4.2,1-6.4L19.9,35.1z"/>
</svg>
