<?xml version="1.0" encoding="utf-8"?>
<!-- Generator: Adobe Illustrator 19.1.0, SVG Export Plug-In . SVG Version: 6.00 Build 0)  -->
<!DOCTYPE svg PUBLIC "-//W3C//DTD SVG 1.1//EN" "http://www.w3.org/Graphics/SVG/1.1/DTD/svg11.dtd">
<svg version="1.1" id="Layer_1" xmlns="http://www.w3.org/2000/svg" xmlns:xlink="http://www.w3.org/1999/xlink" x="0px" y="0px"
	 width="48px" height="48px" viewBox="0 0 48 48" enable-background="new 0 0 48 48" xml:space="preserve">
<path d="M21,34c0,0.6,0.4,1,1,1h14c0.6,0,1-0.4,1-1s-0.4-1-1-1H22C21.4,33,21,33.4,21,34z"/>
<path d="M12.6,9.5l9.3-3.8l-1.3-3.2C20.4,2,19.8,1.8,19.3,2l-7.4,3c-0.2,0.1-0.4,0.3-0.5,0.5c-0.1,0.2-0.1,0.5,0,0.8L12.6,9.5z"/>
<path d="M40,39H15v-3c0-4.6-3.5-8.4-8-8.9V26c0-5.3,2.7-10.1,7.1-12.8l5.5,13.5c0.1,0.2,0.3,0.4,0.5,0.5c0.1,0.1,0.3,0.1,0.4,0.1
	c0.1,0,0.3,0,0.4-0.1l7.4-3c0.5-0.2,0.8-0.8,0.5-1.3L22.6,7.6l-9.3,3.8l0,0C8.2,14.4,5,19.9,5,26v2v12v6c0,0.6,0.4,1,1,1h34
	c0.6,0,1-0.4,1-1v-6C41,39.4,40.6,39,40,39z"/>
</svg>
