<?xml version="1.0" encoding="utf-8"?>
<!-- Generator: Adobe Illustrator 19.1.0, SVG Export Plug-In . SVG Version: 6.00 Build 0)  -->
<!DOCTYPE svg PUBLIC "-//W3C//DTD SVG 1.1//EN" "http://www.w3.org/Graphics/SVG/1.1/DTD/svg11.dtd">
<svg version="1.1" id="Layer_1" xmlns="http://www.w3.org/2000/svg" xmlns:xlink="http://www.w3.org/1999/xlink" x="0px" y="0px"
	 width="48px" height="48px" viewBox="0 0 48 48" enable-background="new 0 0 48 48" xml:space="preserve">
<path d="M42,13H6c-0.6,0-1,0.4-1,1v31c0,0.6,0.4,1,1,1h36c0.6,0,1-0.4,1-1V14C43,13.4,42.6,13,42,13z M35,35c0,0.6-0.4,1-1,1H14
	c-0.6,0-1-0.4-1-1V21c0-0.6,0.4-1,1-1h20c0.6,0,1,0.4,1,1V35z"/>
<path d="M28,27h-8c-0.6,0-1,0.4-1,1s0.4,1,1,1h8c0.6,0,1-0.4,1-1S28.6,27,28,27z"/>
<path id="color_1_" d="M46,2H2C1.4,2,1,2.4,1,3v7c0,0.6,0.4,1,1,1h5V8c0-0.6,0.4-1,1-1s1,0.4,1,1v3h6V8c0-0.6,0.4-1,1-1s1,0.4,1,1v3
	h6V8c0-0.6,0.4-1,1-1s1,0.4,1,1v3h6V8c0-0.6,0.4-1,1-1s1,0.4,1,1v3h6V8c0-0.6,0.4-1,1-1s1,0.4,1,1v3h5c0.6,0,1-0.4,1-1V3
	C47,2.4,46.6,2,46,2z"/>
</svg>
