<?xml version="1.0" encoding="utf-8"?>
<!-- Generator: Adobe Illustrator 19.1.0, SVG Export Plug-In . SVG Version: 6.00 Build 0)  -->
<!DOCTYPE svg PUBLIC "-//W3C//DTD SVG 1.1//EN" "http://www.w3.org/Graphics/SVG/1.1/DTD/svg11.dtd">
<svg version="1.1" id="Layer_1" xmlns="http://www.w3.org/2000/svg" xmlns:xlink="http://www.w3.org/1999/xlink" x="0px" y="0px"
	 width="48px" height="48px" viewBox="0 0 48 48" enable-background="new 0 0 48 48" xml:space="preserve">
<path d="M44.9,3.6c-0.1-0.2-0.3-0.4-0.5-0.5C44.3,3,44.1,3,44,3H32c-0.6,0-1,0.4-1,1s0.4,1,1,1h9.6L31.3,15.3
	c-3-2.7-6.9-4.3-11.3-4.3c-9.4,0-17,7.6-17,17s7.6,17,17,17s17-7.6,17-17c0-4.3-1.6-8.3-4.3-11.3L43,6.4V16c0,0.6,0.4,1,1,1
	s1-0.4,1-1V4C45,3.9,45,3.7,44.9,3.6z M20,43c-8.3,0-15-6.7-15-15s6.7-15,15-15s15,6.7,15,15S28.3,43,20,43z"/>
</svg>
