<?xml version="1.0" encoding="utf-8"?>
<!-- Generator: Adobe Illustrator 19.1.0, SVG Export Plug-In . SVG Version: 6.00 Build 0)  -->
<!DOCTYPE svg PUBLIC "-//W3C//DTD SVG 1.1//EN" "http://www.w3.org/Graphics/SVG/1.1/DTD/svg11.dtd">
<svg version="1.1" id="Layer_1" xmlns="http://www.w3.org/2000/svg" xmlns:xlink="http://www.w3.org/1999/xlink" x="0px" y="0px"
	 width="48px" height="48px" viewBox="0 0 48 48" enable-background="new 0 0 48 48" xml:space="preserve">
<path d="M24.7,3.3c-0.4-0.4-1-0.4-1.4,0C22.6,4,7,19.8,7,30c0,10.6,8.6,17,17,17s17-6.4,17-17C41,19.8,25.4,4,24.7,3.3z M24,37
	c-1.8,0-7-1.3-7-7c0.1-3.1,4.8-9.4,6.2-11.3c0.2-0.3,0.5-0.4,0.8-0.4c0.3,0,0.6,0.1,0.8,0.4c1.4,1.9,6.1,8.3,6.2,11.3
	C31,35.7,25.8,37,24,37z"/>
</svg>
