<?xml version="1.0" encoding="utf-8"?>
<!-- Generator: Adobe Illustrator 19.1.0, SVG Export Plug-In . SVG Version: 6.00 Build 0)  -->
<!DOCTYPE svg PUBLIC "-//W3C//DTD SVG 1.1//EN" "http://www.w3.org/Graphics/SVG/1.1/DTD/svg11.dtd">
<svg version="1.1" id="Layer_1" xmlns="http://www.w3.org/2000/svg" xmlns:xlink="http://www.w3.org/1999/xlink" x="0px" y="0px"
	 width="48px" height="48px" viewBox="0 0 48 48" enable-background="new 0 0 48 48" xml:space="preserve">
<path d="M24.9,3.5c-0.4-0.6-1.4-0.6-1.7,0C23,3.8,19,10.5,19,19s4,15.2,4.1,15.5c0.2,0.3,0.5,0.5,0.9,0.5s0.7-0.2,0.9-0.5
	C25,34.2,29,27.5,29,19S25,3.8,24.9,3.5z"/>
<path id="color_11_" d="M30,37c0.1,0,0.1,0,0.2,0c0.2,0,5.6-1.1,9.6-5.1c4-4,5.1-9.4,5.1-9.6c0.1-0.3,0-0.7-0.3-0.9S44,21,43.7,21.1
	c-0.2,0-5.6,1.1-9.6,5.1c-4,4-5.1,9.4-5.1,9.6c-0.1,0.3,0,0.7,0.3,0.9C29.5,36.9,29.7,37,30,37z"/>
<path d="M37,39c-4.5,0-8.1,3.1-8.3,3.2c-0.2,0.2-0.3,0.5-0.3,0.8s0.1,0.6,0.3,0.8c0.2,0.1,3.7,3.2,8.3,3.2c4.5,0,8.1-3.1,8.3-3.2
	c0.2-0.2,0.3-0.5,0.3-0.8s-0.1-0.6-0.3-0.8C45.1,42.1,41.5,39,37,39z"/>
<path id="color_10_" d="M8.2,31.9c4,4,9.4,5.1,9.6,5.1c0.1,0,0.1,0,0.2,0c0.3,0,0.5-0.1,0.7-0.3c0.2-0.2,0.3-0.6,0.3-0.9
	c0-0.2-1.1-5.6-5.1-9.6c-4-4-9.4-5.1-9.6-5.1c-0.3-0.1-0.7,0-0.9,0.3C3.1,21.6,3,22,3.1,22.3C3.2,22.5,4.2,27.9,8.2,31.9z"/>
<path d="M11,39c-4.5,0-8.1,3.1-8.3,3.2c-0.2,0.2-0.3,0.5-0.3,0.8s0.1,0.6,0.3,0.8C2.9,43.9,6.5,47,11,47c4.5,0,8.1-3.1,8.3-3.2
	c0.2-0.2,0.3-0.5,0.3-0.8s-0.1-0.6-0.3-0.8C19.2,42.1,15.6,39,11,39z"/>
</svg>
