<?xml version="1.0" encoding="utf-8"?>
<!-- Generator: Adobe Illustrator 19.1.0, SVG Export Plug-In . SVG Version: 6.00 Build 0)  -->
<!DOCTYPE svg PUBLIC "-//W3C//DTD SVG 1.1//EN" "http://www.w3.org/Graphics/SVG/1.1/DTD/svg11.dtd">
<svg version="1.1" id="Layer_1" xmlns="http://www.w3.org/2000/svg" xmlns:xlink="http://www.w3.org/1999/xlink" x="0px" y="0px"
	 width="48px" height="48px" viewBox="0 0 48 48" enable-background="new 0 0 48 48" xml:space="preserve">
<path d="M46,23H36c-0.4,0-0.8,0.2-0.9,0.6L30,35.5L18.9,9.6C18.8,9.2,18.4,9,18,9s-0.8,0.2-0.9,0.6L11.3,23H2c-0.6,0-1,0.4-1,1
	s0.4,1,1,1h10c0.4,0,0.8-0.2,0.9-0.6L18,12.5l11.1,25.9c0.2,0.4,0.5,0.6,0.9,0.6s0.8-0.2,0.9-0.6L36.7,25H46c0.6,0,1-0.4,1-1
	S46.6,23,46,23z"/>
</svg>
