<?xml version="1.0" encoding="utf-8"?>
<!-- Generator: Adobe Illustrator 19.1.0, SVG Export Plug-In . SVG Version: 6.00 Build 0)  -->
<!DOCTYPE svg PUBLIC "-//W3C//DTD SVG 1.1//EN" "http://www.w3.org/Graphics/SVG/1.1/DTD/svg11.dtd">
<svg version="1.1" id="Layer_1" xmlns="http://www.w3.org/2000/svg" xmlns:xlink="http://www.w3.org/1999/xlink" x="0px" y="0px"
	 width="48px" height="48px" viewBox="0 0 48 48" enable-background="new 0 0 48 48" xml:space="preserve">
<path id="color_17_" d="M24,15c3.9,0,7-3.1,7-7s-3.1-7-7-7s-7,3.1-7,7S20.1,15,24,15z"/>
<path d="M31,25.8V20c0-0.6-0.4-1-1-1H18c-0.6,0-1,0.4-1,1v5.8l-5.9,11.8c-0.2,0.3-0.1,0.7,0,1c0.2,0.3,0.5,0.5,0.9,0.5h7v7
	c0,0.6,0.4,1,1,1h8c0.6,0,1-0.4,1-1v-7h7c0.3,0,0.7-0.2,0.9-0.5c0.2-0.3,0.2-0.7,0-1L31,25.8z"/>
</svg>
