<?xml version="1.0" encoding="utf-8"?>
<!-- Generator: Adobe Illustrator 19.1.0, SVG Export Plug-In . SVG Version: 6.00 Build 0)  -->
<!DOCTYPE svg PUBLIC "-//W3C//DTD SVG 1.1//EN" "http://www.w3.org/Graphics/SVG/1.1/DTD/svg11.dtd">
<svg version="1.1" id="Layer_1" xmlns="http://www.w3.org/2000/svg" xmlns:xlink="http://www.w3.org/1999/xlink" x="0px" y="0px"
	 width="48px" height="48px" viewBox="0 0 48 48" enable-background="new 0 0 48 48" xml:space="preserve">
<path d="M11.4,23l5.7-11.4c0.3-0.7,1.4-0.7,1.8,0L30,33.8l5.1-10.2c0.2-0.3,0.5-0.6,0.9-0.6h11V2c0-0.6-0.4-1-1-1H2C1.4,1,1,1.4,1,2
	v21H11.4z"/>
<path d="M36.6,25l-5.7,11.4C30.7,36.8,30.4,37,30,37s-0.7-0.2-0.9-0.6L18,14.2l-5.1,10.2C12.7,24.8,12.4,25,12,25H1v21
	c0,0.6,0.4,1,1,1h44c0.6,0,1-0.4,1-1V25H36.6z"/>
</svg>
