<?xml version="1.0" encoding="utf-8"?>
<!-- Generator: Adobe Illustrator 19.1.0, SVG Export Plug-In . SVG Version: 6.00 Build 0)  -->
<!DOCTYPE svg PUBLIC "-//W3C//DTD SVG 1.1//EN" "http://www.w3.org/Graphics/SVG/1.1/DTD/svg11.dtd">
<svg version="1.1" id="Layer_1" xmlns="http://www.w3.org/2000/svg" xmlns:xlink="http://www.w3.org/1999/xlink" x="0px" y="0px"
	 width="48px" height="48px" viewBox="0 0 48 48" enable-background="new 0 0 48 48" xml:space="preserve">
<circle id="color_8_" cx="40" cy="42" r="5"/>
<path id="color_7_" d="M14,21C6.8,21,1,26.8,1,34s5.8,13,13,13s13-5.8,13-13S21.2,21,14,21z"/>
<path d="M8,3h5v16.1c0.3,0,0.7-0.1,1-0.1s0.7,0,1,0.1V13h19c0.6,0,1-0.4,1-1s-0.4-1-1-1H15V2c0-0.6-0.4-1-1-1H8C7.4,1,7,1.4,7,2
	S7.4,3,8,3z"/>
<path d="M39,35.1c0.3,0,0.7-0.1,1-0.1s0.7,0,1,0.1V26v-2c0-1.7-1.3-3-3-3H21.5c2.5,1.4,4.5,3.5,5.8,6H39V35.1z"/>
</svg>
