<?xml version="1.0" encoding="utf-8"?>
<!-- Generator: Adobe Illustrator 19.1.0, SVG Export Plug-In . SVG Version: 6.00 Build 0)  -->
<!DOCTYPE svg PUBLIC "-//W3C//DTD SVG 1.1//EN" "http://www.w3.org/Graphics/SVG/1.1/DTD/svg11.dtd">
<svg version="1.1" id="Layer_1" xmlns="http://www.w3.org/2000/svg" xmlns:xlink="http://www.w3.org/1999/xlink" x="0px" y="0px"
	 width="24px" height="24px" viewBox="0 0 24 24" enable-background="new 0 0 24 24" xml:space="preserve">
<path id="color_31_" d="M4,15c0.6,0,1-0.4,1-1v-1h6v1c0,0.6,0.4,1,1,1s1-0.4,1-1v-1h6v1c0,0.6,0.4,1,1,1s1-0.4,1-1v-2
	c0-0.6-0.4-1-1-1h-7v-1c0-0.6-0.4-1-1-1s-1,0.4-1,1v1H4c-0.6,0-1,0.4-1,1v2C3,14.6,3.4,15,4,15z"/>
<circle cx="12" cy="4" r="3"/>
<circle cx="4" cy="20" r="3"/>
<circle cx="12" cy="20" r="3"/>
<circle cx="20" cy="20" r="3"/>
</svg>
