<?xml version="1.0" encoding="utf-8"?>
<!-- Generator: Adobe Illustrator 19.1.0, SVG Export Plug-In . SVG Version: 6.00 Build 0)  -->
<!DOCTYPE svg PUBLIC "-//W3C//DTD SVG 1.1//EN" "http://www.w3.org/Graphics/SVG/1.1/DTD/svg11.dtd">
<svg version="1.1" id="Layer_1" xmlns="http://www.w3.org/2000/svg" xmlns:xlink="http://www.w3.org/1999/xlink" x="0px" y="0px"
	 width="24px" height="24px" viewBox="0 0 24 24" enable-background="new 0 0 24 24" xml:space="preserve">
<path id="color_15_" d="M15.5,0h-14C0.7,0,0,0.7,0,1.5v0C0,2.3,0.7,3,1.5,3h14C16.3,3,17,2.3,17,1.5v0C17,0.7,16.3,0,15.5,0z"/>
<path d="M23,12h-5c-1.5,0-2.7,1.1-2.9,2.5c0-0.2-0.1-0.3-0.1-0.5c0-1.7,1.3-3,3-3h4V6c0-0.6-0.4-1-1-1H2C1.2,5,0.5,4.7,0,4.2V20
	c0,2.2,1.8,4,4,4h17c0.6,0,1-0.4,1-1v-5h1c0.6,0,1-0.4,1-1v-4C24,12.4,23.6,12,23,12z M19,7h2c0.3,0,0.5,0.2,0.5,0.5S21.3,8,21,8h-2
	c-0.3,0-0.5-0.2-0.5-0.5S18.7,7,19,7z M3,21H1c-0.3,0-0.5-0.2-0.5-0.5S0.7,20,1,20h2c0.3,0,0.5,0.2,0.5,0.5S3.3,21,3,21z M3,8H1
	C0.7,8,0.5,7.8,0.5,7.5S0.7,7,1,7h2c0.3,0,0.5,0.2,0.5,0.5S3.3,8,3,8z M13,7h2c0.3,0,0.5,0.2,0.5,0.5S15.3,8,15,8h-2
	c-0.3,0-0.5-0.2-0.5-0.5S12.7,7,13,7z M9,21H7c-0.3,0-0.5-0.2-0.5-0.5S6.7,20,7,20h2c0.3,0,0.5,0.2,0.5,0.5S9.3,21,9,21z M9,8H7
	C6.7,8,6.5,7.8,6.5,7.5S6.7,7,7,7h2c0.3,0,0.5,0.2,0.5,0.5S9.3,8,9,8z M15,21h-2c-0.3,0-0.5-0.2-0.5-0.5S12.7,20,13,20h2
	c0.3,0,0.5,0.2,0.5,0.5S15.3,21,15,21z M18,15c0-0.6,0.4-1,1-1h1c0.6,0,1,0.4,1,1c0,0.6-0.4,1-1,1h-1C18.4,16,18,15.6,18,15z M21,21
	h-2c-0.3,0-0.5-0.2-0.5-0.5S18.7,20,19,20h2c0.3,0,0.5,0.2,0.5,0.5S21.3,21,21,21z"/>
</svg>
