<?xml version="1.0" encoding="utf-8"?>
<!-- Generator: Adobe Illustrator 19.1.0, SVG Export Plug-In . SVG Version: 6.00 Build 0)  -->
<!DOCTYPE svg PUBLIC "-//W3C//DTD SVG 1.1//EN" "http://www.w3.org/Graphics/SVG/1.1/DTD/svg11.dtd">
<svg version="1.1" id="Layer_1" xmlns="http://www.w3.org/2000/svg" xmlns:xlink="http://www.w3.org/1999/xlink" x="0px" y="0px"
	 width="24px" height="24px" viewBox="0 0 24 24" enable-background="new 0 0 24 24" xml:space="preserve">
<path d="M14,3h-4C9.4,3,9,3.4,9,4v16c0,0.6,0.4,1,1,1h4c0.6,0,1-0.4,1-1V4C15,3.4,14.6,3,14,3z"/>
<path id="color_54_" d="M6,13H2c-0.6,0-1,0.4-1,1v6c0,0.6,0.4,1,1,1h4c0.6,0,1-0.4,1-1v-6C7,13.4,6.6,13,6,13z"/>
<path id="color_53_" d="M22,8h-4c-0.6,0-1,0.4-1,1v11c0,0.6,0.4,1,1,1h4c0.6,0,1-0.4,1-1V9C23,8.4,22.6,8,22,8z"/>
</svg>
