<?xml version="1.0" encoding="utf-8"?>
<!-- Generator: Adobe Illustrator 19.1.0, SVG Export Plug-In . SVG Version: 6.00 Build 0)  -->
<!DOCTYPE svg PUBLIC "-//W3C//DTD SVG 1.1//EN" "http://www.w3.org/Graphics/SVG/1.1/DTD/svg11.dtd">
<svg version="1.1" id="Layer_1" xmlns="http://www.w3.org/2000/svg" xmlns:xlink="http://www.w3.org/1999/xlink" x="0px" y="0px"
	 width="24px" height="24px" viewBox="0 0 24 24" enable-background="new 0 0 24 24" xml:space="preserve">
<path id="color_77_" d="M15,22H9c-0.6,0-1,0.4-1,1s0.4,1,1,1h6c0.6,0,1-0.4,1-1S15.6,22,15,22z"/>
<path d="M12,0C7,0,3,4,3,9c0,3.5,1.9,6.5,5,8.1V19c0,0.6,0.4,1,1,1h6c0.6,0,1-0.4,1-1v-1.9c3.1-1.5,5-4.6,5-8.1C21,4,17,0,12,0z
	 M12,6c-1.7,0-3,1.3-3,3c0,0.6-0.4,1-1,1S7,9.6,7,9c0-2.8,2.2-5,5-5c0.6,0,1,0.4,1,1S12.6,6,12,6z"/>
</svg>
