<?xml version="1.0" encoding="utf-8"?>
<!-- Generator: Adobe Illustrator 19.1.0, SVG Export Plug-In . SVG Version: 6.00 Build 0)  -->
<!DOCTYPE svg PUBLIC "-//W3C//DTD SVG 1.1//EN" "http://www.w3.org/Graphics/SVG/1.1/DTD/svg11.dtd">
<svg version="1.1" id="Layer_1" xmlns="http://www.w3.org/2000/svg" xmlns:xlink="http://www.w3.org/1999/xlink" x="0px" y="0px"
	 width="24px" height="24px" viewBox="0 0 24 24" enable-background="new 0 0 24 24" xml:space="preserve">
<path id="color_23_" d="M17.4,8.1C17.3,8,17.1,8,17,8h-3c-0.6,0-1,0.4-1,1s0.4,1,1,1h0.6L12,12.6l-2.3-2.3c-0.4-0.4-1-0.4-1.4,0
	l-2,2c-0.4,0.4-0.4,1,0,1.4s1,0.4,1.4,0L9,12.4l2.3,2.3c0.2,0.2,0.5,0.3,0.7,0.3s0.5-0.1,0.7-0.3l3.3-3.3V12c0,0.6,0.4,1,1,1
	s1-0.4,1-1V9c0-0.1,0-0.3-0.1-0.4C17.8,8.4,17.6,8.2,17.4,8.1z"/>
<path d="M22,7c0-1.7-1.3-3-3-3H5C3.3,4,2,5.3,2,7v9H0v1c0,1.7,1.3,3,3,3h18c1.7,0,3-1.3,3-3v-1h-2V7z M4,7c0-0.6,0.4-1,1-1h14
	c0.6,0,1,0.4,1,1v9H4V7z"/>
</svg>
