<?xml version="1.0" encoding="utf-8"?>
<!-- Generator: Adobe Illustrator 19.1.0, SVG Export Plug-In . SVG Version: 6.00 Build 0)  -->
<!DOCTYPE svg PUBLIC "-//W3C//DTD SVG 1.1//EN" "http://www.w3.org/Graphics/SVG/1.1/DTD/svg11.dtd">
<svg version="1.1" id="Layer_1" xmlns="http://www.w3.org/2000/svg" xmlns:xlink="http://www.w3.org/1999/xlink" x="0px" y="0px"
	 width="24px" height="24px" viewBox="0 0 24 24" enable-background="new 0 0 24 24" xml:space="preserve">
<path id="color_76_" d="M15,5c0-2.2-1.8-4-4-4c-0.8,0-1.6,0.3-2.3,0.7C7.8,0.6,6.5,0,5,0C2.2,0,0,2.2,0,5v1h15L15,5z"/>
<path d="M17,11.1V6.2l-8.8,5.5L5.5,8H0v15c0,0.6,0.4,1,1,1h22c0.6,0,1-0.4,1-1V6.1L17,11.1z M13,20h-2c-0.6,0-1-0.4-1-1v-2
	c0-0.6,0.4-1,1-1h2c0.6,0,1,0.4,1,1v2C14,19.6,13.6,20,13,20z M20,20h-2c-0.6,0-1-0.4-1-1v-2c0-0.6,0.4-1,1-1h2c0.6,0,1,0.4,1,1v2
	C21,19.6,20.6,20,20,20z"/>
</svg>
