<?xml version="1.0" encoding="utf-8"?>
<!-- Generator: Adobe Illustrator 19.1.0, SVG Export Plug-In . SVG Version: 6.00 Build 0)  -->
<!DOCTYPE svg PUBLIC "-//W3C//DTD SVG 1.1//EN" "http://www.w3.org/Graphics/SVG/1.1/DTD/svg11.dtd">
<svg version="1.1" id="Layer_1" xmlns="http://www.w3.org/2000/svg" xmlns:xlink="http://www.w3.org/1999/xlink" x="0px" y="0px"
	 width="24px" height="24px" viewBox="0 0 24 24" enable-background="new 0 0 24 24" xml:space="preserve">
<path d="M0,1v22c0,0.6,0.4,1,1,1h22c0.6,0,1-0.4,1-1V1c0-0.6-0.4-1-1-1H1C0.4,0,0,0.4,0,1z M11,17v-1H9c-0.6,0-1-0.4-1-1s0.4-1,1-1
	h2v-1H9c-0.6,0-1-0.4-1-1s0.4-1,1-1h1L8.2,8.6C7.9,8.2,8,7.5,8.4,7.2C8.8,6.9,9.5,7,9.8,7.4l2.2,2.9l2.2-2.9c0.3-0.4,1-0.5,1.4-0.2
	c0.4,0.3,0.5,1,0.2,1.4L14,11h1c0.6,0,1,0.4,1,1s-0.4,1-1,1h-2v1h2c0.6,0,1,0.4,1,1s-0.4,1-1,1h-2v1c0,0.6-0.4,1-1,1S11,17.6,11,17z
	"/>
</svg>
