<?xml version="1.0" encoding="utf-8"?>
<!-- Generator: Adobe Illustrator 19.1.0, SVG Export Plug-In . SVG Version: 6.00 Build 0)  -->
<!DOCTYPE svg PUBLIC "-//W3C//DTD SVG 1.1//EN" "http://www.w3.org/Graphics/SVG/1.1/DTD/svg11.dtd">
<svg version="1.1" id="Layer_1" xmlns="http://www.w3.org/2000/svg" xmlns:xlink="http://www.w3.org/1999/xlink" x="0px" y="0px"
	 width="24px" height="24px" viewBox="0 0 24 24" enable-background="new 0 0 24 24" xml:space="preserve">
<path d="M12,11H8c-0.6,0-1,0.4-1,1v9c0,0.6,0.4,1,1,1h4c0.6,0,1-0.4,1-1v-9C13,11.4,12.6,11,12,11z"/>
<path id="color_51_" d="M4,15H1c-0.6,0-1,0.4-1,1v5c0,0.6,0.4,1,1,1h3c0.6,0,1-0.4,1-1v-5C5,15.4,4.6,15,4,15z"/>
<path id="color_50_" d="M18,1.4L12,9h3v12c0,0.6,0.4,1,1,1h4c0.6,0,1-0.4,1-1V9h3L18,1.4z"/>
</svg>
