<?xml version="1.0" encoding="utf-8"?>
<!-- Generator: Adobe Illustrator 19.1.0, SVG Export Plug-In . SVG Version: 6.00 Build 0)  -->
<!DOCTYPE svg PUBLIC "-//W3C//DTD SVG 1.1//EN" "http://www.w3.org/Graphics/SVG/1.1/DTD/svg11.dtd">
<svg version="1.1" id="Layer_1" xmlns="http://www.w3.org/2000/svg" xmlns:xlink="http://www.w3.org/1999/xlink" x="0px" y="0px"
	 width="24px" height="24px" viewBox="0 0 24 24" enable-background="new 0 0 24 24" xml:space="preserve">
<path d="M8.2,4.6C8.4,4.8,8.7,5,9,5h4c0.3,0,0.6-0.2,0.8-0.4l2-3c0.2-0.3,0.2-0.7,0-1C15.7,0.2,15.4,0,15,0H7C6.6,0,6.3,0.2,6.1,0.5
	c-0.2,0.3-0.2,0.7,0,1L8.2,4.6z"/>
<path id="color_60_" d="M20.8,11.4l-4.1-4.5c-0.4-0.4-1,0-0.8,0.5l2.5,7c0.1,0.4,0.6,0.5,0.8,0.2l1.6-1.9
	C21.1,12.3,21.1,11.7,20.8,11.4z"/>
<path d="M16.9,16.7l-3-9C13.8,7.3,13.4,7,13,7H9C8.6,7,8.2,7.3,8.1,7.7l-3,9c-0.1,0.4,0,0.8,0.2,1l5,5c0.2,0.2,0.5,0.3,0.7,0.3
	s0.5-0.1,0.7-0.3l5-5C17,17.4,17.1,17,16.9,16.7z"/>
</svg>
