<?xml version="1.0" encoding="utf-8"?>
<!-- Generator: Adobe Illustrator 19.1.0, SVG Export Plug-In . SVG Version: 6.00 Build 0)  -->
<!DOCTYPE svg PUBLIC "-//W3C//DTD SVG 1.1//EN" "http://www.w3.org/Graphics/SVG/1.1/DTD/svg11.dtd">
<svg version="1.1" id="Layer_1" xmlns="http://www.w3.org/2000/svg" xmlns:xlink="http://www.w3.org/1999/xlink" x="0px" y="0px"
	 width="24px" height="24px" viewBox="0 0 24 24" enable-background="new 0 0 24 24" xml:space="preserve">
<path id="color_49_" d="M15.5,0h-14C0.7,0,0,0.7,0,1.5v0C0,2.3,0.7,3,1.5,3h14C16.3,3,17,2.3,17,1.5v0C17,0.7,16.3,0,15.5,0z"/>
<path d="M23,12h-5c-1.5,0-2.7,1.1-2.9,2.5c0-0.2-0.1-0.3-0.1-0.5c0-1.7,1.3-3,3-3h4V6c0-0.6-0.4-1-1-1H2C1.2,5,0.5,4.7,0,4.2V20
	c0,2.2,1.8,4,4,4h17c0.6,0,1-0.4,1-1v-5h1c0.6,0,1-0.4,1-1v-4C24,12.4,23.6,12,23,12z M19,14h1c0.6,0,1,0.4,1,1s-0.4,1-1,1h-1
	c-0.6,0-1-0.4-1-1S18.4,14,19,14z"/>
</svg>
