<?xml version="1.0" encoding="utf-8"?>
<!-- Generator: Adobe Illustrator 19.1.0, SVG Export Plug-In . SVG Version: 6.00 Build 0)  -->
<!DOCTYPE svg PUBLIC "-//W3C//DTD SVG 1.1//EN" "http://www.w3.org/Graphics/SVG/1.1/DTD/svg11.dtd">
<svg version="1.1" id="Layer_1" xmlns="http://www.w3.org/2000/svg" xmlns:xlink="http://www.w3.org/1999/xlink" x="0px" y="0px"
	 width="24px" height="24px" viewBox="0 0 24 24" enable-background="new 0 0 24 24" xml:space="preserve">
<path d="M23,0H1C0.4,0,0,0.4,0,1v20c0,0.6,0.4,1,1,1h2c0,0,0,0.4,0,1s0.4,1,1,1h3c0.6,0,1-0.4,1-1s0-1,0-1h8c0,0,0,0.4,0,1
	s0.4,1,1,1h3c0.6,0,1-0.4,1-1s0-1,0-1h2c0.6,0,1-0.4,1-1V1C24,0.4,23.6,0,23,0z M12,18c-3.9,0-7-3.1-7-7s3.1-7,7-7s7,3.1,7,7
	S15.9,18,12,18z"/>
<g>
	<path d="M10.3,8.6C10.8,8.2,11.4,8,12,8s1.2,0.2,1.7,0.6l1.4-1.4C14.3,6.4,13.2,6,12,6S9.7,6.4,8.9,7.1L10.3,8.6z"/>
	<path d="M13.7,13.4C13.2,13.8,12.6,14,12,14s-1.2-0.2-1.7-0.6l-1.4,1.4C9.7,15.6,10.8,16,12,16s2.3-0.4,3.1-1.1L13.7,13.4z"/>
	<path d="M15.9,7.9l-1.4,1.4C14.8,9.8,15,10.4,15,11s-0.2,1.2-0.6,1.7l1.4,1.4c0.7-0.9,1.1-1.9,1.1-3.1S16.6,8.7,15.9,7.9z"/>
	<path d="M9.6,12.7C9.2,12.2,9,11.6,9,11s0.2-1.2,0.6-1.7L8.1,7.9C7.4,8.7,7,9.8,7,11s0.4,2.3,1.1,3.1L9.6,12.7z"/>
</g>
</svg>
