<?xml version="1.0" encoding="utf-8"?>
<!-- Generator: Adobe Illustrator 19.1.0, SVG Export Plug-In . SVG Version: 6.00 Build 0)  -->
<!DOCTYPE svg PUBLIC "-//W3C//DTD SVG 1.1//EN" "http://www.w3.org/Graphics/SVG/1.1/DTD/svg11.dtd">
<svg version="1.1" id="Layer_1" xmlns="http://www.w3.org/2000/svg" xmlns:xlink="http://www.w3.org/1999/xlink" x="0px" y="0px"
	 width="24px" height="24px" viewBox="0 0 24 24" enable-background="new 0 0 24 24" xml:space="preserve">
<path id="color_10_" d="M19,22c-2,0-3.7-0.5-4.9-1.4c0,0.1-0.1,0.2-0.1,0.4c0,1.7,2.1,3,5,3s5-1.3,5-3c0-0.1,0-0.2-0.1-0.4
	C22.7,21.5,21,22,19,22z"/>
<path id="color_9_" d="M19,18c-2,0-3.7-0.5-4.9-1.4c0,0.1-0.1,0.2-0.1,0.4c0,1.7,2.1,3,5,3s5-1.3,5-3c0-0.1,0-0.2-0.1-0.4
	C22.7,17.5,21,18,19,18z"/>
<path id="color_8_" d="M19,10c-2.9,0-5,1.3-5,3s2.1,3,5,3s5-1.3,5-3S21.9,10,19,10z"/>
<path d="M12,16c0-0.3,0-0.7,0.1-1H6v-1c0-1.1-0.9-2-2-2H3V6h1c1.1,0,2-0.9,2-2V3h12v1c0,1.1,0.9,2,2,2h1v1.2c1.2,0.2,2.2,0.6,3,1.2
	V1c0-0.6-0.4-1-1-1H1C0.4,0,0,0.4,0,1v16c0,0.6,0.4,1,1,1h11.5C12.2,17.4,12,16.7,12,16z"/>
<path d="M16.1,5H7.9C7.5,6.4,6.4,7.5,5,7.9v2.3c1.4,0.4,2.5,1.5,2.9,2.9h4.3C12,12.7,12,12.3,12,12c0-0.4,0-0.7,0.1-1
	c0,0-0.1,0-0.1,0c-1.1,0-2-0.9-2-2c0-1.1,0.9-2,2-2c0.9,0,1.7,0.6,1.9,1.5c0.9-0.7,2.2-1.2,3.6-1.4C16.8,6.6,16.3,5.8,16.1,5z"/>
</svg>
