<?xml version="1.0" encoding="utf-8"?>
<!-- Generator: Adobe Illustrator 19.1.0, SVG Export Plug-In . SVG Version: 6.00 Build 0)  -->
<!DOCTYPE svg PUBLIC "-//W3C//DTD SVG 1.1//EN" "http://www.w3.org/Graphics/SVG/1.1/DTD/svg11.dtd">
<svg version="1.1" id="Layer_1" xmlns="http://www.w3.org/2000/svg" xmlns:xlink="http://www.w3.org/1999/xlink" x="0px" y="0px"
	 width="24px" height="24px" viewBox="0 0 24 24" enable-background="new 0 0 24 24" xml:space="preserve">
<path id="color_48_" d="M20,23H4c-0.6,0-1-0.4-1-1s0.4-1,1-1h16c0.6,0,1,0.4,1,1S20.6,23,20,23z"/>
<path d="M22.4,10L13,0.6L10.6,3L12,4.4L5.1,7.3l-2,11.2l6-6C9,12.3,9,12.2,9,12c0-1.1,0.9-2,2-2s2,0.9,2,2c0,1.1-0.9,2-2,2
	c-0.2,0-0.3,0-0.5-0.1l-6,6l11.2-2l2.9-6.9l1.4,1.4L22.4,10z"/>
</svg>
