<?xml version="1.0" encoding="utf-8"?>
<!-- Generator: Adobe Illustrator 19.1.0, SVG Export Plug-In . SVG Version: 6.00 Build 0)  -->
<!DOCTYPE svg PUBLIC "-//W3C//DTD SVG 1.1//EN" "http://www.w3.org/Graphics/SVG/1.1/DTD/svg11.dtd">
<svg version="1.1" id="Layer_1" xmlns="http://www.w3.org/2000/svg" xmlns:xlink="http://www.w3.org/1999/xlink" x="0px" y="0px"
	 width="24px" height="24px" viewBox="0 0 24 24" enable-background="new 0 0 24 24" xml:space="preserve">
<path id="color_66_" d="M12,23c-0.6,0-1-0.4-1-1v-4c0-0.6,0.4-1,1-1s1,0.4,1,1v4C13,22.6,12.6,23,12,23z"/>
<path id="color_65_" d="M6,24c-0.2,0-0.4-0.1-0.6-0.2c-0.4-0.3-0.5-1-0.2-1.4l4-5c0.3-0.4,1-0.5,1.4-0.2c0.4,0.3,0.5,1,0.2,1.4l-4,5
	C6.6,23.9,6.3,24,6,24z"/>
<path id="color_64_" d="M18,24c-0.3,0-0.6-0.1-0.8-0.4l-4-5c-0.3-0.4-0.3-1.1,0.2-1.4c0.4-0.3,1.1-0.3,1.4,0.2l4,5
	c0.3,0.4,0.3,1.1-0.2,1.4C18.4,23.9,18.2,24,18,24z"/>
<path d="M23,17h-1V4c0-0.6-0.4-1-1-1h-7V2c0-0.6-0.4-1-1-1h-2c-0.6,0-1,0.4-1,1v1H3C2.4,3,2,3.4,2,4v13H1c-0.6,0-1,0.4-1,1
	s0.4,1,1,1h22c0.6,0,1-0.4,1-1S23.6,17,23,17z M9,14H7v-3h2V14z M13,14h-2V7h2V14z M17,14h-2V9h2V14z"/>
</svg>
