<?xml version="1.0" encoding="utf-8"?>
<!-- Generator: Adobe Illustrator 19.1.0, SVG Export Plug-In . SVG Version: 6.00 Build 0)  -->
<!DOCTYPE svg PUBLIC "-//W3C//DTD SVG 1.1//EN" "http://www.w3.org/Graphics/SVG/1.1/DTD/svg11.dtd">
<svg version="1.1" id="Layer_1" xmlns="http://www.w3.org/2000/svg" xmlns:xlink="http://www.w3.org/1999/xlink" x="0px" y="0px"
	 width="24px" height="24px" viewBox="0 0 24 24" enable-background="new 0 0 24 24" xml:space="preserve">
<path d="M21,23H3c-0.6,0-1-0.4-1-1s0.4-1,1-1h18c0.6,0,1,0.4,1,1S21.6,23,21,23z"/>
<path d="M7.2,10.4l-3.9,3.9c-0.5,0.5-0.7,1.1-0.7,1.7c0,0.3,0.1,0.6,0.2,0.8l-0.5,0.5c-0.4,0.4-0.4,1,0,1.4C2.5,18.9,2.7,19,3,19
	s0.5-0.1,0.7-0.3l0.5-0.5c0.3,0.1,0.5,0.2,0.8,0.2c0.6,0,1.2-0.3,1.7-0.7l3.9-3.9L7.2,10.4z"/>
<path id="color" d="M21.7,8.3l-1.8-1.8c1.3-1.5,1.2-3.8-0.2-5.2c-1.4-1.4-4-1.4-5.4,0l-6,6c-0.4,0.4-0.4,1,0,1.4l4,4
	c0.2,0.2,0.5,0.3,0.7,0.3s0.5-0.1,0.7-0.3l4.8-4.8L19.6,9l-4.3,4.3c-0.4,0.4-0.4,1,0,1.4c0.2,0.2,0.5,0.3,0.7,0.3s0.5-0.1,0.7-0.3
	l5-5C22.1,9.3,22.1,8.7,21.7,8.3z"/>
</svg>
