<?xml version="1.0" encoding="utf-8"?>
<!-- Generator: Adobe Illustrator 19.1.0, SVG Export Plug-In . SVG Version: 6.00 Build 0)  -->
<!DOCTYPE svg PUBLIC "-//W3C//DTD SVG 1.1//EN" "http://www.w3.org/Graphics/SVG/1.1/DTD/svg11.dtd">
<svg version="1.1" id="Layer_1" xmlns="http://www.w3.org/2000/svg" xmlns:xlink="http://www.w3.org/1999/xlink" x="0px" y="0px"
	 width="24px" height="24px" viewBox="0 0 24 24" enable-background="new 0 0 24 24" xml:space="preserve">
<path d="M21.7,9.3l-2-2l-3-3l-2-2c-0.4-0.4-1-0.4-1.4,0s-0.4,1,0,1.4l1.1,1.1L7,8.8l8.2,8.2l4-7.3l1.1,1.1c0.2,0.2,0.5,0.3,0.7,0.3
	s0.5-0.1,0.7-0.3C22.1,10.3,22.1,9.7,21.7,9.3z"/>
<path id="color_19_" d="M15.7,20.3l-12-12c-0.4-0.4-1-0.4-1.4,0s-0.4,1,0,1.4L7.6,15l-5.3,5.3c-0.4,0.4-0.4,1,0,1.4
	C2.5,21.9,2.7,22,3,22s0.5-0.1,0.7-0.3L9,16.4l5.3,5.3c0.2,0.2,0.5,0.3,0.7,0.3s0.5-0.1,0.7-0.3C16.1,21.3,16.1,20.7,15.7,20.3z"/>
</svg>
