<?xml version="1.0" encoding="utf-8"?>
<!-- Generator: Adobe Illustrator 19.1.0, SVG Export Plug-In . SVG Version: 6.00 Build 0)  -->
<!DOCTYPE svg PUBLIC "-//W3C//DTD SVG 1.1//EN" "http://www.w3.org/Graphics/SVG/1.1/DTD/svg11.dtd">
<svg version="1.1" id="Layer_1" xmlns="http://www.w3.org/2000/svg" xmlns:xlink="http://www.w3.org/1999/xlink" x="0px" y="0px"
	 width="24px" height="24px" viewBox="0 0 24 24" enable-background="new 0 0 24 24" xml:space="preserve">
<path id="color_57_" d="M17.9,0.5C17.7,0.2,17.3,0,17,0H7C6.7,0,6.3,0.2,6.1,0.5C6,0.8,6,1.1,6.1,1.4l2,4C8.3,5.8,8.6,6,9,6h2V4h2v2
	h2c0.4,0,0.7-0.2,0.9-0.6l2-4C18,1.1,18,0.8,17.9,0.5z"/>
<path d="M20.4,16.7l-4-8.2C16.2,8.2,15.9,8,15.5,8h-7C8.1,8,7.8,8.2,7.6,8.6l-4,8.2c-0.8,1.9-0.4,4.1,1.1,5.7c1,1,2.5,1.6,3.9,1.6
	l6.8,0c1.5,0,2.9-0.5,3.9-1.6C20.8,20.9,21.2,18.7,20.4,16.7z"/>
</svg>
