<?xml version="1.0" encoding="utf-8"?>
<!-- Generator: Adobe Illustrator 19.1.0, SVG Export Plug-In . SVG Version: 6.00 Build 0)  -->
<!DOCTYPE svg PUBLIC "-//W3C//DTD SVG 1.1//EN" "http://www.w3.org/Graphics/SVG/1.1/DTD/svg11.dtd">
<svg version="1.1" id="Layer_1" xmlns="http://www.w3.org/2000/svg" xmlns:xlink="http://www.w3.org/1999/xlink" x="0px" y="0px"
	 width="24px" height="24px" viewBox="0 0 24 24" enable-background="new 0 0 24 24" xml:space="preserve">
<path id="color_34_" d="M9,13H6v-3l8.3-8.3c0.4-0.4,1-0.4,1.4,0l1.6,1.6c0.4,0.4,0.4,1,0,1.4L9,13z"/>
<path d="M14.8,10l-5,5H4v-5H1c-0.6,0-1,0.4-1,1v12c0,0.6,0.4,1,1,1h22c0.6,0,1-0.4,1-1V11c0-0.6-0.4-1-1-1H14.8z M18,20H5
	c-0.6,0-1-0.4-1-1v0c0-0.6,0.4-1,1-1h13c0.6,0,1,0.4,1,1v0C19,19.6,18.6,20,18,20z"/>
</svg>
