<?xml version="1.0" encoding="utf-8"?>
<!-- Generator: Adobe Illustrator 19.1.0, SVG Export Plug-In . SVG Version: 6.00 Build 0)  -->
<!DOCTYPE svg PUBLIC "-//W3C//DTD SVG 1.1//EN" "http://www.w3.org/Graphics/SVG/1.1/DTD/svg11.dtd">
<svg version="1.1" id="Layer_1" xmlns="http://www.w3.org/2000/svg" xmlns:xlink="http://www.w3.org/1999/xlink" x="0px" y="0px"
	 width="24px" height="24px" viewBox="0 0 24 24" enable-background="new 0 0 24 24" xml:space="preserve">
<path d="M19,22H5c-2.8,0-5-2.2-5-5c0-0.6,0.4-1,1-1s1,0.4,1,1c0,1.7,1.3,3,3,3h14c1.7,0,3-1.3,3-3c0-0.6,0.4-1,1-1s1,0.4,1,1
	C24,19.8,21.8,22,19,22z"/>
<path d="M20,13v-3c0-4.4-3.6-8-8-8s-8,3.6-8,8v3H20z"/>
<path id="color_58_" d="M4,15v2c0,0.6,0.4,1,1,1h14c0.6,0,1-0.4,1-1v-2H4z"/>
</svg>
