<?xml version="1.0" encoding="utf-8"?>
<!-- Generator: Adobe Illustrator 19.1.0, SVG Export Plug-In . SVG Version: 6.00 Build 0)  -->
<!DOCTYPE svg PUBLIC "-//W3C//DTD SVG 1.1//EN" "http://www.w3.org/Graphics/SVG/1.1/DTD/svg11.dtd">
<svg version="1.1" id="Layer_1" xmlns="http://www.w3.org/2000/svg" xmlns:xlink="http://www.w3.org/1999/xlink" x="0px" y="0px"
	 width="24px" height="24px" viewBox="0 0 24 24" enable-background="new 0 0 24 24" xml:space="preserve">
<path d="M12,0C5.4,0,0,5.4,0,12s5.4,12,12,12s12-5.4,12-12S18.6,0,12,0z M8,6c1.1,0,2,0.9,2,2c0,1.1-0.9,2-2,2S6,9.1,6,8
	C6,6.9,6.9,6,8,6z M16,18c-1.1,0-2-0.9-2-2c0-1.1,0.9-2,2-2s2,0.9,2,2C18,17.1,17.1,18,16,18z M18,10c0,0.6-0.4,1-1,1s-1-0.4-1-1
	V9.4l-7.3,7.3C8.5,16.9,8.3,17,8,17s-0.5-0.1-0.7-0.3c-0.4-0.4-0.4-1,0-1.4L14.6,8H14c-0.6,0-1-0.4-1-1s0.4-1,1-1h3
	c0.1,0,0.3,0,0.4,0.1c0.2,0.1,0.4,0.3,0.5,0.5C18,6.7,18,6.9,18,7V10z"/>
</svg>
