<?xml version="1.0" encoding="utf-8"?>
<!-- Generator: Adobe Illustrator 19.1.0, SVG Export Plug-In . SVG Version: 6.00 Build 0)  -->
<!DOCTYPE svg PUBLIC "-//W3C//DTD SVG 1.1//EN" "http://www.w3.org/Graphics/SVG/1.1/DTD/svg11.dtd">
<svg version="1.1" id="Layer_1" xmlns="http://www.w3.org/2000/svg" xmlns:xlink="http://www.w3.org/1999/xlink" x="0px" y="0px"
	 width="24px" height="24px" viewBox="0 0 24 24" enable-background="new 0 0 24 24" xml:space="preserve">
<path d="M0,1v22c0,0.6,0.4,1,1,1h22c0.6,0,1-0.4,1-1V1c0-0.6-0.4-1-1-1H1C0.4,0,0,0.4,0,1z M4,6h2V4h2v2h2v2H8v2H6V8H4V6z M10.4,19
	L9,20.4l-2-2l-2,2L3.6,19l2-2l-2-2L5,13.6l2,2l2-2l1.4,1.4l-2,2L10.4,19z M20,20h-6v-2h6V20z M20,16h-6v-2h6V16z M20,8h-6V6h6V8z"/>
</svg>
