<?xml version="1.0" encoding="utf-8"?>
<!-- Generator: Adobe Illustrator 19.1.0, SVG Export Plug-In . SVG Version: 6.00 Build 0)  -->
<!DOCTYPE svg PUBLIC "-//W3C//DTD SVG 1.1//EN" "http://www.w3.org/Graphics/SVG/1.1/DTD/svg11.dtd">
<svg version="1.1" id="Layer_1" xmlns="http://www.w3.org/2000/svg" xmlns:xlink="http://www.w3.org/1999/xlink" x="0px" y="0px"
	 width="24px" height="24px" viewBox="0 0 24 24" enable-background="new 0 0 24 24" xml:space="preserve">
<path d="M15.3,15c1.6-1.1,2.7-2.9,2.7-5V7c0-3.3-2.7-6-6-6S6,3.7,6,7v3c0,2.1,1.1,3.9,2.7,5C4.4,15.2,1,18.7,1,23c0,0.6,0,1,0,1h7
	l2.2-3.6c0.2-0.3,0.5-0.4,0.8-0.4h2c0.3,0,0.6,0.2,0.8,0.4L16,24h7c0,0,0-0.4,0-1C23,18.7,19.6,15.2,15.3,15z M13.9,17.4
	C13.7,17.8,13.4,18,13,18h-2c-0.4,0-0.7-0.2-0.9-0.6l-1-2c0-0.1-0.1-0.2-0.1-0.2c0.9,0.5,1.9,0.8,3,0.8s2.1-0.3,3-0.8
	c0,0.1,0,0.2-0.1,0.2L13.9,17.4z"/>
</svg>
