<?xml version="1.0" encoding="utf-8"?>
<!-- Generator: Adobe Illustrator 19.1.0, SVG Export Plug-In . SVG Version: 6.00 Build 0)  -->
<!DOCTYPE svg PUBLIC "-//W3C//DTD SVG 1.1//EN" "http://www.w3.org/Graphics/SVG/1.1/DTD/svg11.dtd">
<svg version="1.1" id="Layer_1" xmlns="http://www.w3.org/2000/svg" xmlns:xlink="http://www.w3.org/1999/xlink" x="0px" y="0px"
	 width="24px" height="24px" viewBox="0 0 24 24" enable-background="new 0 0 24 24" xml:space="preserve">
<path d="M7.9,9.3L6,18.8c-0.1,0.3,0,0.6,0.2,0.8C6.4,19.9,6.7,20,7,20h10c0.3,0,0.6-0.1,0.8-0.4c0.2-0.2,0.3-0.5,0.2-0.8l-1.9-9.5
	l2.6-2.6C18.9,6.5,19,6.3,19,6V1c0-0.6-0.4-1-1-1h-1c-0.6,0-1,0.4-1,1v1h-2V1c0-0.6-0.4-1-1-1h-2c-0.6,0-1,0.4-1,1v1H8V1
	c0-0.6-0.4-1-1-1H6C5.4,0,5,0.4,5,1v5c0,0.3,0.1,0.5,0.3,0.7L7.9,9.3z"/>
<path id="color_25_" d="M19,22H5c-0.6,0-1,0.4-1,1s0.4,1,1,1h14c0.6,0,1-0.4,1-1S19.6,22,19,22z"/>
</svg>
