<?xml version="1.0" encoding="utf-8"?>
<!-- Generator: Adobe Illustrator 19.1.0, SVG Export Plug-In . SVG Version: 6.00 Build 0)  -->
<!DOCTYPE svg PUBLIC "-//W3C//DTD SVG 1.1//EN" "http://www.w3.org/Graphics/SVG/1.1/DTD/svg11.dtd">
<svg version="1.1" id="Layer_1" xmlns="http://www.w3.org/2000/svg" xmlns:xlink="http://www.w3.org/1999/xlink" x="0px" y="0px"
	 width="24px" height="24px" viewBox="0 0 24 24" enable-background="new 0 0 24 24" xml:space="preserve">
<path id="color_27_" d="M22,3V2c0-0.6-0.4-1-1-1H3C2.4,1,2,1.4,2,2v1H22z"/>
<path d="M0,6v16c0,0.6,0.4,1,1,1h22c0.6,0,1-0.4,1-1V6c0-0.6-0.4-1-1-1H1C0.4,5,0,5.4,0,6z M21,17h-1c-1.1,0-2,0.9-2,2v1H6v-1
	c0-1.1-0.9-2-2-2H3v-6h1c1.1,0,2-0.9,2-2V8h12v1c0,1.1,0.9,2,2,2h1V17z"/>
<path d="M16.1,10H7.9c-0.4,1.4-1.5,2.5-2.9,2.9v2.3c1.4,0.4,2.5,1.5,2.9,2.9h8.3c0.4-1.4,1.5-2.5,2.9-2.9v-2.3
	C17.6,12.5,16.5,11.4,16.1,10z M12,16c-1.1,0-2-0.9-2-2c0-1.1,0.9-2,2-2s2,0.9,2,2C14,15.1,13.1,16,12,16z"/>
</svg>
