<?xml version="1.0" encoding="utf-8"?>
<!-- Generator: Adobe Illustrator 19.1.0, SVG Export Plug-In . SVG Version: 6.00 Build 0)  -->
<!DOCTYPE svg PUBLIC "-//W3C//DTD SVG 1.1//EN" "http://www.w3.org/Graphics/SVG/1.1/DTD/svg11.dtd">
<svg version="1.1" id="Layer_1" xmlns="http://www.w3.org/2000/svg" xmlns:xlink="http://www.w3.org/1999/xlink" x="0px" y="0px"
	 width="48px" height="48px" viewBox="0 0 48 48" enable-background="new 0 0 48 48" xml:space="preserve">
<path id="color_16_" d="M4,19c-0.6,0-1-0.4-1-1v-6c0-0.6,0.4-1,1-1s1,0.4,1,1v6C5,18.6,4.6,19,4,19z"/>
<path id="color_15_" d="M44,19c-0.6,0-1-0.4-1-1v-6c0-0.6,0.4-1,1-1s1,0.4,1,1v6C45,18.6,44.6,19,44,19z"/>
<path d="M41,34V6c0-2.8-2.2-5-5-5H12C9.2,1,7,3.2,7,6v28c0,0.6,0.4,1,1,1h4.4L7.1,45.6c-0.2,0.5,0,1.1,0.4,1.3C7.7,47,7.8,47,8,47
	c0.4,0,0.7-0.2,0.9-0.6l2.7-5.4h24.8l2.7,5.4c0.2,0.4,0.5,0.6,0.9,0.6c0.1,0,0.3,0,0.4-0.1c0.5-0.2,0.7-0.8,0.4-1.3L35.6,35H40
	C40.6,35,41,34.6,41,34z M13.2,7.4C13.4,7.1,13.7,7,14,7h20c0.3,0,0.6,0.1,0.8,0.4S35,7.9,35,8.2l-2,11c-0.1,0.5-0.5,0.8-1,0.8H16
	c-0.5,0-0.9-0.3-1-0.8l-2-11C13,7.9,13,7.6,13.2,7.4z M35,27c0,1.1-0.9,2-2,2s-2-0.9-2-2c0-1.1,0.9-2,2-2S35,25.9,35,27z M27,27
	c0,0.6-0.4,1-1,1h-4c-0.6,0-1-0.4-1-1s0.4-1,1-1h4C26.6,26,27,26.4,27,27z M15,25c1.1,0,2,0.9,2,2c0,1.1-0.9,2-2,2s-2-0.9-2-2
	C13,25.9,13.9,25,15,25z M12.6,39l2-4h18.8l2,4H12.6z"/>
</svg>
