<?xml version="1.0" encoding="utf-8"?>
<!-- Generator: Adobe Illustrator 19.1.0, SVG Export Plug-In . SVG Version: 6.00 Build 0)  -->
<!DOCTYPE svg PUBLIC "-//W3C//DTD SVG 1.1//EN" "http://www.w3.org/Graphics/SVG/1.1/DTD/svg11.dtd">
<svg version="1.1" id="Layer_1" xmlns="http://www.w3.org/2000/svg" xmlns:xlink="http://www.w3.org/1999/xlink" x="0px" y="0px"
	 width="48px" height="48px" viewBox="0 0 48 48" enable-background="new 0 0 48 48" xml:space="preserve">
<path id="color_5_" d="M3,29c-0.6,0-1-0.4-1-1v-6c0-0.6,0.4-1,1-1s1,0.4,1,1v6C4,28.6,3.6,29,3,29z"/>
<path id="color_4_" d="M45,29c-0.6,0-1-0.4-1-1v-6c0-0.6,0.4-1,1-1s1,0.4,1,1v6C46,28.6,45.6,29,45,29z"/>
<path d="M36,11h-7.6l2.2-5.7l5.1,1.7C35.8,7,35.9,7,36,7c0.4,0,0.8-0.3,0.9-0.7c0.2-0.5-0.1-1.1-0.6-1.3l-6-2C30.2,3,30.1,3,30,3H18
	c-0.1,0-0.2,0-0.3,0.1l-6,2c-0.5,0.2-0.8,0.7-0.6,1.3c0.2,0.5,0.7,0.8,1.3,0.6l5.1-1.7l2.2,5.7H12c-2.8,0-5,2.2-5,5v28
	c0,0.6,0.4,1,1,1h32c0.6,0,1-0.4,1-1V16C41,13.2,38.8,11,36,11z M19.4,5h9.1l-2.2,6h-4.6L19.4,5z M13.2,17.4
	c0.2-0.2,0.5-0.4,0.8-0.4h20c0.3,0,0.6,0.1,0.8,0.4c0.2,0.2,0.3,0.5,0.2,0.8l-2,11c-0.1,0.5-0.5,0.8-1,0.8H16c-0.5,0-0.9-0.3-1-0.8
	l-2-11C13,17.9,13,17.6,13.2,17.4z M15,39c-1.1,0-2-0.9-2-2c0-1.1,0.9-2,2-2s2,0.9,2,2C17,38.1,16.1,39,15,39z M26,38h-4
	c-0.6,0-1-0.4-1-1s0.4-1,1-1h4c0.6,0,1,0.4,1,1S26.6,38,26,38z M33,39c-1.1,0-2-0.9-2-2c0-1.1,0.9-2,2-2s2,0.9,2,2
	C35,38.1,34.1,39,33,39z"/>
</svg>
