<?xml version="1.0" encoding="utf-8"?>
<!-- Generator: Adobe Illustrator 19.1.0, SVG Export Plug-In . SVG Version: 6.00 Build 0)  -->
<!DOCTYPE svg PUBLIC "-//W3C//DTD SVG 1.1//EN" "http://www.w3.org/Graphics/SVG/1.1/DTD/svg11.dtd">
<svg version="1.1" id="Layer_1" xmlns="http://www.w3.org/2000/svg" xmlns:xlink="http://www.w3.org/1999/xlink" x="0px" y="0px"
	 width="48px" height="48px" viewBox="0 0 48 48" enable-background="new 0 0 48 48" xml:space="preserve">
<path d="M30.2,11.3c0.4-0.7,0.6-1.5,0.7-2.3H36c0.6,0,1-0.4,1-1s-0.4-1-1-1h-5.1c-0.5-3.4-3.4-6-6.9-6s-6.4,2.6-6.9,6H12
	c-0.6,0-1,0.4-1,1s0.4,1,1,1h5.1c0.1,0.8,0.4,1.6,0.7,2.3c-3.9,1-6.8,4.5-6.8,8.7v20c0,0.6,0.4,1,1,1h7v1c0,2.8,2.2,5,5,5s5-2.2,5-5
	v-1h7c0.6,0,1-0.4,1-1V20C37,15.8,34.1,12.2,30.2,11.3z M24,3c2.8,0,5,2.2,5,5s-2.2,5-5,5s-5-2.2-5-5S21.2,3,24,3z M27,42
	c0,1.7-1.3,3-3,3s-3-1.3-3-3V32c0-1.7,1.3-3,3-3s3,1.3,3,3V42z"/>
</svg>
