<?xml version="1.0" encoding="utf-8"?>
<!-- Generator: Adobe Illustrator 19.1.0, SVG Export Plug-In . SVG Version: 6.00 Build 0)  -->
<!DOCTYPE svg PUBLIC "-//W3C//DTD SVG 1.1//EN" "http://www.w3.org/Graphics/SVG/1.1/DTD/svg11.dtd">
<svg version="1.1" id="Layer_1" xmlns="http://www.w3.org/2000/svg" xmlns:xlink="http://www.w3.org/1999/xlink" x="0px" y="0px"
	 width="48px" height="48px" viewBox="0 0 48 48" enable-background="new 0 0 48 48" xml:space="preserve">
<path id="color_23_" d="M3,17c-0.6,0-1,0.4-1,1v4c0,0.6,0.4,1,1,1s1-0.4,1-1v-4C4,17.4,3.6,17,3,17z"/>
<path id="color_22_" d="M45,17c-0.6,0-1,0.4-1,1v4c0,0.6,0.4,1,1,1s1-0.4,1-1v-4C46,17.4,45.6,17,45,17z"/>
<path id="color_21_" d="M8,6h32c0.6,0,1-0.4,1-1V2c0-0.6-0.4-1-1-1H8C7.4,1,7,1.4,7,2v3C7,5.6,7.4,6,8,6z"/>
<path d="M42,25.9l-1-2.1V9c0-0.6-0.4-1-1-1H8C7.4,8,7,8.4,7,9v14.8l-1,2.1c-0.6,1.2-1,2.6-1,4V40c0,0.6,0.4,1,1,1h2v4
	c0,0.6,0.4,1,1,1h6c0.6,0,1-0.4,1-1v-4h16v4c0,0.6,0.4,1,1,1h6c0.6,0,1-0.4,1-1v-4h2c0.6,0,1-0.4,1-1V29.9
	C43,28.5,42.7,27.1,42,25.9z M12,14c0-0.6,0.4-1,1-1h22c0.6,0,1,0.4,1,1v9c0,0.6-0.4,1-1,1H13c-0.6,0-1-0.4-1-1V14z M17,35
	c0,0.6-0.4,1-1,1h-5c-0.6,0-1-0.4-1-1v-3c0-0.6,0.4-1,1-1h5c0.6,0,1,0.4,1,1V35z M38,35c0,0.6-0.4,1-1,1h-5c-0.6,0-1-0.4-1-1v-3
	c0-0.6,0.4-1,1-1h5c0.6,0,1,0.4,1,1V35z"/>
</svg>
