<?xml version="1.0" encoding="utf-8"?>
<!-- Generator: Adobe Illustrator 19.1.0, SVG Export Plug-In . SVG Version: 6.00 Build 0)  -->
<!DOCTYPE svg PUBLIC "-//W3C//DTD SVG 1.1//EN" "http://www.w3.org/Graphics/SVG/1.1/DTD/svg11.dtd">
<svg version="1.1" id="Layer_1" xmlns="http://www.w3.org/2000/svg" xmlns:xlink="http://www.w3.org/1999/xlink" x="0px" y="0px"
	 width="48px" height="48px" viewBox="0 0 48 48" enable-background="new 0 0 48 48" xml:space="preserve">
<path d="M42.8,24.4C44.7,22.2,47,18.6,47,14c0-8-8.3-10.8-8.7-11c-0.4-0.1-0.8,0-1,0.2l-2,2C35.1,5.5,35,5.8,35,6.1
	c0,0.3,0.2,0.6,0.5,0.7c1.7,1,3.5,3.1,3.5,4.1c0,0.6-0.3,1.2-0.8,1.6l-4.9,5.7c-0.2,0.2-0.5,0.4-0.8,0.4c-0.2,0-0.5-0.1-0.7-0.2
	c-0.4-0.4-0.5-1-0.1-1.4l4.1-4.7l-1.3-0.4c-5.3-1.8-11.1,0-14.5,4.5L19.5,17h-5.1l-3.7-3.7c-0.1-0.1-0.3-0.2-0.5-0.3l-8-2
	c-0.3-0.1-0.6,0-0.9,0.2C1.1,11.4,1,11.7,1,12v4c0,0.3,0.1,0.5,0.3,0.7l6.8,6.5C4.1,24,1,27.7,1,32c0,5,4,9,9,9c4.6,0,8.4-3.5,8.9-8
	h10.1c0.5,4.5,4.3,8,8.9,8c5,0,9-4,9-9C47,28.8,45.3,26,42.8,24.4z M10,39c-3.9,0-7-3.1-7-7s3.1-7,7-7s7,3.1,7,7S13.9,39,10,39z
	 M38,39c-3.9,0-7-3.1-7-7s3.1-7,7-7s7,3.1,7,7S41.9,39,38,39z"/>
</svg>
