<?xml version="1.0" encoding="utf-8"?>
<!-- Generator: Adobe Illustrator 19.1.0, SVG Export Plug-In . SVG Version: 6.00 Build 0)  -->
<!DOCTYPE svg PUBLIC "-//W3C//DTD SVG 1.1//EN" "http://www.w3.org/Graphics/SVG/1.1/DTD/svg11.dtd">
<svg version="1.1" id="Layer_1" xmlns="http://www.w3.org/2000/svg" xmlns:xlink="http://www.w3.org/1999/xlink" x="0px" y="0px"
	 width="48px" height="48px" viewBox="0 0 48 48" enable-background="new 0 0 48 48" xml:space="preserve">
<path id="color_12_" d="M21.6,16h11.7L26.9,5.5C26.7,5.2,26.3,5,26,5h-9.3c-0.4,0-0.7,0.2-0.9,0.5s-0.2,0.7,0,1L21.6,16z"/>
<path d="M41,18H12.5l-3.7-5.6C8.6,12.2,8.3,12,8,12H4c-0.3,0-0.6,0.1-0.8,0.4S3,12.9,3,13.2l4,16C7.1,29.7,7.5,30,8,30h14.8l-7,10.4
	c-0.2,0.3-0.2,0.7,0,1s0.5,0.5,0.9,0.5H26c0.3,0,0.6-0.2,0.8-0.4L34.5,30H41c3.3,0,6-2.7,6-6S44.3,18,41,18z"/>
</svg>
