<?xml version="1.0" encoding="utf-8"?>
<!-- Generator: Adobe Illustrator 19.1.0, SVG Export Plug-In . SVG Version: 6.00 Build 0)  -->
<!DOCTYPE svg PUBLIC "-//W3C//DTD SVG 1.1//EN" "http://www.w3.org/Graphics/SVG/1.1/DTD/svg11.dtd">
<svg version="1.1" id="Layer_1" xmlns="http://www.w3.org/2000/svg" xmlns:xlink="http://www.w3.org/1999/xlink" x="0px" y="0px"
	 width="48px" height="48px" viewBox="0 0 48 48" enable-background="new 0 0 48 48" xml:space="preserve">
<path d="M45,20.2c0-0.3,0-0.6-0.2-0.8C44.6,19.1,44.3,19,44,19H28.6l-2.9-6.6c-0.6-1.4-2.1-2.4-3.7-2.4h-9.6c-1.9,0-3.5,1.3-3.9,3.1
	L7.2,19H2c-0.6,0-1,0.4-1,1v8c0,2.8,2.2,5,5,5h0c0.3,2.8,2.6,5,5.5,5s5.2-2.2,5.5-5H28c0.3,2.8,2.6,5,5.5,5s5.2-2.2,5.5-5h3
	c0.5,0,0.9-0.4,1-0.8L45,20.2z M11.5,36C9.6,36,8,34.4,8,32.5S9.6,29,11.5,29s3.5,1.6,3.5,3.5S13.4,36,11.5,36z M24,21h-7
	c-0.6,0-1-0.4-1-1v-5c0-0.6,0.4-1,1-1s1,0.4,1,1v4h6c0.6,0,1,0.4,1,1S24.6,21,24,21z M33.5,36c-1.9,0-3.5-1.6-3.5-3.5
	s1.6-3.5,3.5-3.5s3.5,1.6,3.5,3.5S35.4,36,33.5,36z"/>
</svg>
