<?xml version="1.0" encoding="utf-8"?>
<!-- Generator: Adobe Illustrator 19.1.0, SVG Export Plug-In . SVG Version: 6.00 Build 0)  -->
<!DOCTYPE svg PUBLIC "-//W3C//DTD SVG 1.1//EN" "http://www.w3.org/Graphics/SVG/1.1/DTD/svg11.dtd">
<svg version="1.1" id="Layer_1" xmlns="http://www.w3.org/2000/svg" xmlns:xlink="http://www.w3.org/1999/xlink" x="0px" y="0px"
	 width="48px" height="48px" viewBox="0 0 48 48" enable-background="new 0 0 48 48" xml:space="preserve">
<path id="color_14_" d="M17.7,19l8.5-8.5L13.5,2c-2-1.3-4.6-1.1-6.3,0.6L2.5,7.4C2.2,7.6,2.1,7.9,2.2,8.2c0,0.3,0.2,0.6,0.4,0.7
	L17.7,19z"/>
<path id="color_13_" d="M46,34.5l-8.5-12.7L29,30.3l10.1,15.1c0.2,0.2,0.4,0.4,0.7,0.4c0,0,0.1,0,0.1,0c0.3,0,0.5-0.1,0.7-0.3
	l4.8-4.8C47.1,39.1,47.3,36.5,46,34.5z"/>
<path d="M41.2,6.8c-2.3-2.3-6.1-2.3-8.5,0L15.9,23.6l-4.2,6.7l-7.4-0.6c-1.9-0.1-2.9,2.1-1.6,3.4l4.4,4.4l-1.2,1.9
	c-1.1,1.8,1,3.8,2.7,2.7l1.9-1.2l4.4,4.4c1.3,1.3,3.6,0.3,3.4-1.6l-0.6-7.4l6.7-4.2l16.8-16.8C43.5,13,43.5,9.2,41.2,6.8z"/>
</svg>
