<?xml version="1.0" encoding="utf-8"?>
<!-- Generator: Adobe Illustrator 19.1.0, SVG Export Plug-In . SVG Version: 6.00 Build 0)  -->
<!DOCTYPE svg PUBLIC "-//W3C//DTD SVG 1.1//EN" "http://www.w3.org/Graphics/SVG/1.1/DTD/svg11.dtd">
<svg version="1.1" id="Layer_1" xmlns="http://www.w3.org/2000/svg" xmlns:xlink="http://www.w3.org/1999/xlink" x="0px" y="0px"
	 width="48px" height="48px" viewBox="0 0 48 48" enable-background="new 0 0 48 48" xml:space="preserve">
<path id="color_37_" d="M9,3H4C3.7,3,3.3,3.2,3.1,3.5C3,3.8,3,4.1,3.1,4.4l4,8C7.3,12.8,7.6,13,8,13h1c0.6,0,1-0.4,1-1V4
	C10,3.4,9.6,3,9,3z"/>
<path id="color_36_" d="M9,17H4c-0.3,0-0.7,0.2-0.9,0.5c-0.2,0.3-0.2,0.7,0,1l4,8C7.3,26.8,7.6,27,8,27h1c0.6,0,1-0.4,1-1v-8
	C10,17.4,9.6,17,9,17z"/>
<path id="color_35_" d="M9,31H4c-0.3,0-0.7,0.2-0.9,0.5c-0.2,0.3-0.2,0.7,0,1l4,8C7.3,40.8,7.6,41,8,41h1c0.6,0,1-0.4,1-1v-8
	C10,31.4,9.6,31,9,31z"/>
<path id="color_34_" d="M39,13h1c0.4,0,0.7-0.2,0.9-0.6l4-8c0.2-0.3,0.1-0.7,0-1C44.7,3.2,44.3,3,44,3h-5c-0.6,0-1,0.4-1,1v8
	C38,12.6,38.4,13,39,13z"/>
<path id="color_33_" d="M44,17h-5c-0.6,0-1,0.4-1,1v8c0,0.6,0.4,1,1,1h1c0.4,0,0.7-0.2,0.9-0.6l4-8c0.2-0.3,0.1-0.7,0-1
	C44.7,17.2,44.3,17,44,17z"/>
<path id="color_32_" d="M44,31h-5c-0.6,0-1,0.4-1,1v8c0,0.6,0.4,1,1,1h1c0.4,0,0.7-0.2,0.9-0.6l4-8c0.2-0.3,0.1-0.7,0-1
	C44.7,31.2,44.3,31,44,31z"/>
<path d="M35,1H13c-0.6,0-1,0.4-1,1v44c0,0.6,0.4,1,1,1h22c0.6,0,1-0.4,1-1V2C36,1.4,35.6,1,35,1z M24,43c-2.8,0-5-2.2-5-5s2.2-5,5-5
	s5,2.2,5,5S26.8,43,24,43z M24,29c-2.8,0-5-2.2-5-5s2.2-5,5-5s5,2.2,5,5S26.8,29,24,29z M24,15c-2.8,0-5-2.2-5-5s2.2-5,5-5
	s5,2.2,5,5S26.8,15,24,15z"/>
</svg>
