<?xml version="1.0" encoding="utf-8"?>
<!-- Generator: Adobe Illustrator 19.1.0, SVG Export Plug-In . SVG Version: 6.00 Build 0)  -->
<!DOCTYPE svg PUBLIC "-//W3C//DTD SVG 1.1//EN" "http://www.w3.org/Graphics/SVG/1.1/DTD/svg11.dtd">
<svg version="1.1" id="Layer_1" xmlns="http://www.w3.org/2000/svg" xmlns:xlink="http://www.w3.org/1999/xlink" x="0px" y="0px"
	 width="48px" height="48px" viewBox="0 0 48 48" enable-background="new 0 0 48 48" xml:space="preserve">
<path d="M40,3h-2c-0.6,0-1,0.4-1,1s0.4,1,1,1h2c2.8,0,5,2.2,5,5v19c-1.8-2.4-4.7-4-8-4c-4.1,0-7.5,2.4-9.1,5.9
	C27,29.8,25.6,29,24,29c-1.6,0-3,0.8-3.9,1.9C18.5,27.4,15.1,25,11,25c-3.3,0-6.2,1.6-8,4V10c0-2.8,2.2-5,5-5h2c0.6,0,1-0.4,1-1
	s-0.4-1-1-1H8c-3.9,0-7,3.1-7,7v25c0,5.5,4.5,10,10,10s10-4.5,10-10c0-0.3,0-0.5,0-0.8c0-0.1,0-0.1,0-0.2c0-1.7,1.3-3,3-3s3,1.3,3,3
	c0,0.1,0,0.1,0,0.2c0,0.3,0,0.5,0,0.8c0,5.5,4.5,10,10,10s10-4.5,10-10V10C47,6.1,43.9,3,40,3z M11,43c-4.4,0-8-3.6-8-8s3.6-8,8-8
	s8,3.6,8,8S15.4,43,11,43z M37,43c-4.4,0-8-3.6-8-8s3.6-8,8-8s8,3.6,8,8S41.4,43,37,43z"/>
</svg>
