<?xml version="1.0" encoding="utf-8"?>
<!-- Generator: Adobe Illustrator 19.1.0, SVG Export Plug-In . SVG Version: 6.00 Build 0)  -->
<!DOCTYPE svg PUBLIC "-//W3C//DTD SVG 1.1//EN" "http://www.w3.org/Graphics/SVG/1.1/DTD/svg11.dtd">
<svg version="1.1" id="Layer_1" xmlns="http://www.w3.org/2000/svg" xmlns:xlink="http://www.w3.org/1999/xlink" x="0px" y="0px"
	 width="48px" height="48px" viewBox="0 0 48 48" enable-background="new 0 0 48 48" xml:space="preserve">
<path d="M6,13h5v5c0,0.6,0.4,1,1,1s1-0.4,1-1v-5h5c0.6,0,1-0.4,1-1s-0.4-1-1-1h-5V6c0-0.6-0.4-1-1-1s-1,0.4-1,1v5H6
	c-0.6,0-1,0.4-1,1S5.4,13,6,13z"/>
<path d="M5.3,42.7C5.5,42.9,5.7,43,6,43s0.5-0.1,0.7-0.3l5.3-5.3l5.3,5.3c0.2,0.2,0.5,0.3,0.7,0.3s0.5-0.1,0.7-0.3
	c0.4-0.4,0.4-1,0-1.4L13.4,36l5.3-5.3c0.4-0.4,0.4-1,0-1.4s-1-0.4-1.4,0L12,34.6l-5.3-5.3c-0.4-0.4-1-0.4-1.4,0s-0.4,1,0,1.4
	l5.3,5.3l-5.3,5.3C4.9,41.7,4.9,42.3,5.3,42.7z"/>
<path d="M30,13h12c0.6,0,1-0.4,1-1s-0.4-1-1-1H30c-0.6,0-1,0.4-1,1S29.4,13,30,13z"/>
<path d="M30,33h12c0.6,0,1-0.4,1-1s-0.4-1-1-1H30c-0.6,0-1,0.4-1,1S29.4,33,30,33z"/>
<path d="M30,41h12c0.6,0,1-0.4,1-1s-0.4-1-1-1H30c-0.6,0-1,0.4-1,1S29.4,41,30,41z"/>
</svg>
