<?xml version="1.0" encoding="utf-8"?>
<!-- Generator: Adobe Illustrator 19.1.0, SVG Export Plug-In . SVG Version: 6.00 Build 0)  -->
<!DOCTYPE svg PUBLIC "-//W3C//DTD SVG 1.1//EN" "http://www.w3.org/Graphics/SVG/1.1/DTD/svg11.dtd">
<svg version="1.1" id="Layer_1" xmlns="http://www.w3.org/2000/svg" xmlns:xlink="http://www.w3.org/1999/xlink" x="0px" y="0px"
	 width="48px" height="48px" viewBox="0 0 48 48" enable-background="new 0 0 48 48" xml:space="preserve">
<path d="M15,38c0,5,4,9,9,9s9-4,9-9V9h3c0.6,0,1-0.4,1-1V2c0-0.6-0.4-1-1-1H12c-0.6,0-1,0.4-1,1v6c0,0.6,0.4,1,1,1h3V38z M13,7V3h22
	v4h-3c-0.6,0-1,0.4-1,1v30c0,3.9-3.1,7-7,7s-7-3.1-7-7v-3h5c0.6,0,1-0.4,1-1s-0.4-1-1-1h-5v-6h5c0.6,0,1-0.4,1-1s-0.4-1-1-1h-5v-6h5
	c0.6,0,1-0.4,1-1s-0.4-1-1-1h-5V8c0-0.6-0.4-1-1-1H13z"/>
</svg>
