<?xml version="1.0" encoding="utf-8"?>
<!-- Generator: Adobe Illustrator 19.1.0, SVG Export Plug-In . SVG Version: 6.00 Build 0)  -->
<!DOCTYPE svg PUBLIC "-//W3C//DTD SVG 1.1//EN" "http://www.w3.org/Graphics/SVG/1.1/DTD/svg11.dtd">
<svg version="1.1" id="Layer_1" xmlns="http://www.w3.org/2000/svg" xmlns:xlink="http://www.w3.org/1999/xlink" x="0px" y="0px"
	 width="48px" height="48px" viewBox="0 0 48 48" enable-background="new 0 0 48 48" xml:space="preserve">
<path d="M45.7,3L24,9L2.3,3C2,3,1.6,3,1.4,3.2C1.1,3.4,1,3.7,1,4v34c0,0.5,0.3,0.8,0.7,1l22,6c0.1,0,0.2,0,0.3,0s0.2,0,0.3,0l22-6
	c0.4-0.1,0.7-0.5,0.7-1V4c0-0.3-0.1-0.6-0.4-0.8C46.4,3,46,3,45.7,3z M45,37.2L24,43L3,37.2V5.3L23.7,11c0.2,0,0.4,0,0.5,0L45,5.3
	V37.2z"/>
<path d="M18.3,33.1l-8-2.2c-0.5-0.1-1.1,0.2-1.2,0.7c-0.1,0.5,0.2,1.1,0.7,1.2l8,2.2c0.1,0,0.2,0,0.3,0c0.4,0,0.8-0.3,1-0.7
	C19.1,33.8,18.8,33.3,18.3,33.1z"/>
<path d="M18.3,15.7l-8-2.2c-0.5-0.1-1.1,0.2-1.2,0.7c-0.1,0.5,0.2,1.1,0.7,1.2l8,2.2c0.1,0,0.2,0,0.3,0c0.4,0,0.8-0.3,1-0.7
	C19.1,16.4,18.8,15.8,18.3,15.7z"/>
<path d="M18.3,24.1l-8-2.2c-0.5-0.1-1.1,0.2-1.2,0.7c-0.1,0.5,0.2,1.1,0.7,1.2l8,2.2c0.1,0,0.2,0,0.3,0c0.4,0,0.8-0.3,1-0.7
	C19.1,24.8,18.8,24.3,18.3,24.1z"/>
<path d="M30,35.1c0.1,0,0.2,0,0.3,0l8-2.2c0.5-0.1,0.8-0.7,0.7-1.2c-0.1-0.5-0.7-0.8-1.2-0.7l-8,2.2c-0.5,0.1-0.8,0.7-0.7,1.2
	C29.2,34.8,29.6,35.1,30,35.1z"/>
<path d="M30,17.7c0.1,0,0.2,0,0.3,0l8-2.2c0.5-0.1,0.8-0.7,0.7-1.2c-0.1-0.5-0.7-0.8-1.2-0.7l-8,2.2c-0.5,0.1-0.8,0.7-0.7,1.2
	C29.2,17.4,29.6,17.7,30,17.7z"/>
<path d="M30,26.1c0.1,0,0.2,0,0.3,0l8-2.2c0.5-0.1,0.8-0.7,0.7-1.2c-0.1-0.5-0.7-0.8-1.2-0.7l-8,2.2c-0.5,0.1-0.8,0.7-0.7,1.2
	C29.2,25.8,29.6,26.1,30,26.1z"/>
</svg>
