<?xml version="1.0" encoding="utf-8"?>
<!-- Generator: Adobe Illustrator 19.1.0, SVG Export Plug-In . SVG Version: 6.00 Build 0)  -->
<!DOCTYPE svg PUBLIC "-//W3C//DTD SVG 1.1//EN" "http://www.w3.org/Graphics/SVG/1.1/DTD/svg11.dtd">
<svg version="1.1" id="Layer_1" xmlns="http://www.w3.org/2000/svg" xmlns:xlink="http://www.w3.org/1999/xlink" x="0px" y="0px"
	 width="48px" height="48px" viewBox="0 0 48 48" enable-background="new 0 0 48 48" xml:space="preserve">
<path d="M43.9,15.5c1.9-1.9,1.9-5.1,0-7.1l-4.3-4.3c-1.9-2-5.1-2-7.1,0L5.3,31.3c-0.1,0.1-0.1,0.2-0.2,0.3c0,0,0,0.1,0,0.1
	c0,0,0,0.1,0,0.1l-2,12c-0.1,0.3,0.1,0.6,0.3,0.9C3.5,44.9,3.7,45,4,45c0.1,0,0.1,0,0.2,0l12-2c0,0,0.1,0,0.1,0c0,0,0.1,0,0.1,0
	c0.1,0,0.2-0.1,0.3-0.2L43.9,15.5z M33.9,5.5c1.2-1.2,3.1-1.2,4.2,0l4.3,4.3c1.2,1.2,1.2,3.1,0,4.2L40,16.6L31.4,8L33.9,5.5z
	 M36,20.6L27.4,12L30,9.4l8.6,8.6L36,20.6z M16,40.6L12.4,37L31,18.4l3.6,3.6L16,40.6z M26,13.4l3.6,3.6L11,35.6L7.4,32L26,13.4z
	 M6.7,34.1l7.3,7.3l-8.7,1.5L6.7,34.1z"/>
</svg>
