<?xml version="1.0" encoding="utf-8"?>
<!-- Generator: Adobe Illustrator 19.1.0, SVG Export Plug-In . SVG Version: 6.00 Build 0)  -->
<!DOCTYPE svg PUBLIC "-//W3C//DTD SVG 1.1//EN" "http://www.w3.org/Graphics/SVG/1.1/DTD/svg11.dtd">
<svg version="1.1" id="Layer_1" xmlns="http://www.w3.org/2000/svg" xmlns:xlink="http://www.w3.org/1999/xlink" x="0px" y="0px"
	 width="48px" height="48px" viewBox="0 0 48 48" enable-background="new 0 0 48 48" xml:space="preserve">
<path d="M42,47c0.6,0,1-0.4,1-1V34V6c0-2.8-2.2-5-5-5H10C7.2,1,5,3.2,5,6v34c0,3.9,3.1,7,7,7H42z M7,6c0-1.7,1.3-3,3-3h28
	c1.7,0,3,1.3,3,3v27H13V10c0-0.6-0.4-1-1-1s-1,0.4-1,1v23.1c-1.6,0.2-2.9,1-4,2V6z M7,40c0-2.8,2.2-5,5-5h29v4H18c-0.6,0-1,0.4-1,1
	s0.4,1,1,1h23v4H12C9.2,45,7,42.8,7,40z"/>
<path d="M20,23h14c0.6,0,1-0.4,1-1v-8c0-0.6-0.4-1-1-1H20c-0.6,0-1,0.4-1,1v8C19,22.6,19.4,23,20,23z M21,15h12v6H21V15z"/>
</svg>
