<?xml version="1.0" encoding="utf-8"?>
<!-- Generator: Adobe Illustrator 19.1.0, SVG Export Plug-In . SVG Version: 6.00 Build 0)  -->
<!DOCTYPE svg PUBLIC "-//W3C//DTD SVG 1.1//EN" "http://www.w3.org/Graphics/SVG/1.1/DTD/svg11.dtd">
<svg version="1.1" id="Layer_1" xmlns="http://www.w3.org/2000/svg" xmlns:xlink="http://www.w3.org/1999/xlink" x="0px" y="0px"
	 width="48px" height="48px" viewBox="0 0 48 48" enable-background="new 0 0 48 48" xml:space="preserve">
<path d="M30,33H10c-0.6,0-1,0.4-1,1s0.4,1,1,1h20c0.6,0,1-0.4,1-1S30.6,33,30,33z"/>
<path d="M39.3,25.9c1.1-1.7,1.7-3.7,1.7-5.9c0-2.3-0.7-4.5-2-6.3V2c0-0.6-0.4-1-1-1H2C1.4,1,1,1.4,1,2v44c0,0.6,0.4,1,1,1h36
	c0.6,0,1-0.4,1-1V28.4l6.3,6.3c0.2,0.2,0.5,0.3,0.7,0.3s0.5-0.1,0.7-0.3c0.4-0.4,0.4-1,0-1.4L39.3,25.9z M21.1,21H30
	c0.6,0,1-0.4,1-1s-0.4-1-1-1h-8.9c0.5-4.5,4.3-8,8.9-8c5,0,9,4,9,9s-4,9-9,9C25.4,29,21.6,25.5,21.1,21z M3,45V3h34v8.5
	C35.1,9.9,32.7,9,30,9c-3.4,0-6.5,1.6-8.5,4H10c-0.6,0-1,0.4-1,1s0.4,1,1,1h10.2c-0.8,1.5-1.2,3.2-1.2,5c0,1,0.2,2,0.4,3H10
	c-0.6,0-1,0.4-1,1s0.4,1,1,1h10.2c1.8,3.6,5.5,6,9.8,6c2.7,0,5.1-0.9,7-2.5V45H3z"/>
</svg>
