<?xml version="1.0" encoding="utf-8"?>
<!-- Generator: Adobe Illustrator 19.1.0, SVG Export Plug-In . SVG Version: 6.00 Build 0)  -->
<!DOCTYPE svg PUBLIC "-//W3C//DTD SVG 1.1//EN" "http://www.w3.org/Graphics/SVG/1.1/DTD/svg11.dtd">
<svg version="1.1" id="Layer_1" xmlns="http://www.w3.org/2000/svg" xmlns:xlink="http://www.w3.org/1999/xlink" x="0px" y="0px"
	 width="48px" height="48px" viewBox="0 0 48 48" enable-background="new 0 0 48 48" xml:space="preserve">
<path d="M4,47h40c0.6,0,1-0.4,1-1V2c0-0.6-0.4-1-1-1H4C3.4,1,3,1.4,3,2v44C3,46.6,3.4,47,4,47z M5,3h38v42H5V3z"/>
<path d="M12,21c-1.7,0-3,1.3-3,3s1.3,3,3,3s3-1.3,3-3S13.7,21,12,21z M12,25c-0.6,0-1-0.4-1-1s0.4-1,1-1s1,0.4,1,1S12.6,25,12,25z"
	/>
<path d="M12,31c-1.7,0-3,1.3-3,3s1.3,3,3,3s3-1.3,3-3S13.7,31,12,31z M12,35c-0.6,0-1-0.4-1-1s0.4-1,1-1s1,0.4,1,1S12.6,35,12,35z"
	/>
<path d="M12,11c-1.7,0-3,1.3-3,3s1.3,3,3,3s3-1.3,3-3S13.7,11,12,11z M12,15c-0.6,0-1-0.4-1-1s0.4-1,1-1s1,0.4,1,1S12.6,15,12,15z"
	/>
<path d="M34,19H22c-0.6,0-1,0.4-1,1s0.4,1,1,1h12c0.6,0,1-0.4,1-1S34.6,19,34,19z"/>
<path d="M30,27h-8c-0.6,0-1,0.4-1,1s0.4,1,1,1h8c0.6,0,1-0.4,1-1S30.6,27,30,27z"/>
</svg>
