<?xml version="1.0" encoding="utf-8"?>
<!-- Generator: Adobe Illustrator 19.1.0, SVG Export Plug-In . SVG Version: 6.00 Build 0)  -->
<!DOCTYPE svg PUBLIC "-//W3C//DTD SVG 1.1//EN" "http://www.w3.org/Graphics/SVG/1.1/DTD/svg11.dtd">
<svg version="1.1" id="Layer_1" xmlns="http://www.w3.org/2000/svg" xmlns:xlink="http://www.w3.org/1999/xlink" x="0px" y="0px"
	 width="48px" height="48px" viewBox="0 0 48 48" enable-background="new 0 0 48 48" xml:space="preserve">
<path d="M43.7,34.9c0.1,0,0.2,0.1,0.3,0.1c0.2,0,0.4-0.1,0.6-0.2c0.3-0.2,0.4-0.5,0.4-0.8V21.6c1.2-1.5,2-3.5,2-5.6
	c0-3.9-2.5-7.2-6-8.5V7c0-3.3-2.7-6-6-6H7C3.7,1,1,3.7,1,7v1c0,0.6,0.4,1,1,1h9v32c0,3.3,2.7,6,6,6h23h1c3.3,0,6-2.7,6-6v-1
	c0-0.6-0.4-1-1-1h-5v-4.9L43.7,34.9z M38.3,31.1c-0.2-0.1-0.4-0.1-0.6,0L33,32.6v-9.1c1.4,1,3.2,1.5,5,1.5s3.6-0.6,5-1.5v9.1
	L38.3,31.1z M45,16c0,1.7-0.6,3.3-1.6,4.5c0,0-0.1,0.1-0.1,0.1C41.9,22.1,40.1,23,38,23s-3.9-0.9-5.2-2.4c0,0-0.1-0.1-0.1-0.1
	c-1-1.2-1.6-2.8-1.6-4.5c0-3.9,3.1-7,7-7S45,12.1,45,16z M3,7c0-2.2,1.8-4,4-4s4,1.8,4,4H3z M41,45h-1H21.4c0.9-0.9,1.6-2.2,1.6-4
	h22C45,43.2,43.2,45,41,45z M39,39H22c-0.6,0-1,0.4-1,1v1c0,3.3-3.5,3.9-4,4c-2.2,0-4-1.8-4-4V8V7c0-0.4,0-0.7-0.1-1.1
	c0,0,0-0.1,0-0.1c-0.1-0.3-0.2-0.6-0.3-0.9c0,0,0-0.1,0-0.1c-0.1-0.3-0.3-0.6-0.4-0.8c0,0-0.1-0.1-0.1-0.1c-0.2-0.3-0.4-0.5-0.6-0.7
	c0,0,0,0,0-0.1H35c2.2,0,4,1.8,4,4v0.1C38.7,7,38.3,7,38,7c-5,0-9,4-9,9c0,2.1,0.8,4.1,2,5.6V34c0,0.3,0.2,0.6,0.4,0.8
	c0.3,0.2,0.6,0.2,0.9,0.1l5.7-1.9l1,0.3V39z"/>
</svg>
