<?xml version="1.0" encoding="utf-8"?>
<!-- Generator: Adobe Illustrator 19.1.0, SVG Export Plug-In . SVG Version: 6.00 Build 0)  -->
<!DOCTYPE svg PUBLIC "-//W3C//DTD SVG 1.1//EN" "http://www.w3.org/Graphics/SVG/1.1/DTD/svg11.dtd">
<svg version="1.1" id="Layer_1" xmlns="http://www.w3.org/2000/svg" xmlns:xlink="http://www.w3.org/1999/xlink" x="0px" y="0px"
	 width="48px" height="48px" viewBox="0 0 48 48" enable-background="new 0 0 48 48" xml:space="preserve">
<path d="M3,40.2c0.1,0.3,0.3,0.6,0.7,0.7l6,2C9.8,43,9.9,43,10,43c0.3,0,0.5-0.1,0.7-0.3l5.3-5.3l3.3,3.3c0.2,0.2,0.5,0.3,0.7,0.3
	s0.5-0.1,0.7-0.3l24-24c0.4-0.4,0.4-1,0-1.4l-12-12c-0.4-0.4-1-0.4-1.4,0l-24,24c-0.4,0.4-0.4,1,0,1.4l3.3,3.3l-7.3,7.3
	C3,39.5,2.9,39.9,3,40.2z M38.6,12L28,22.6L25.4,20L36,9.4L38.6,12z M32,5.4L34.6,8L23.3,19.3c-0.4,0.4-0.4,1,0,1.4l4,4
	c0.2,0.2,0.5,0.3,0.7,0.3s0.5-0.1,0.7-0.3L40,13.4l2.6,2.6L20,38.6L9.4,28L32,5.4z M12,33.4l2.6,2.6l-4.9,4.9l-3.9-1.3L12,33.4z"/>
</svg>
