<?xml version="1.0" encoding="utf-8"?>
<!-- Generator: Adobe Illustrator 19.1.0, SVG Export Plug-In . SVG Version: 6.00 Build 0)  -->
<!DOCTYPE svg PUBLIC "-//W3C//DTD SVG 1.1//EN" "http://www.w3.org/Graphics/SVG/1.1/DTD/svg11.dtd">
<svg version="1.1" id="Layer_1" xmlns="http://www.w3.org/2000/svg" xmlns:xlink="http://www.w3.org/1999/xlink" x="0px" y="0px"
	 width="48px" height="48px" viewBox="0 0 48 48" enable-background="new 0 0 48 48" xml:space="preserve">
<path d="M3.3,33.3c-0.4,0.4-0.4,1,0,1.4l10,10c0.2,0.2,0.5,0.3,0.7,0.3s0.5-0.1,0.7-0.3L25,34.4l8.3,8.3c0.1,0.1,0.2,0.1,0.3,0.2
	c0,0,0.1,0,0.1,0c0,0,0.1,0,0.1,0l10,2c0.1,0,0.1,0,0.2,0c0.3,0,0.5-0.1,0.7-0.3c0.2-0.2,0.3-0.6,0.3-0.9l-2-10c0,0,0-0.1,0-0.1
	c0,0,0-0.1,0-0.1c0-0.1-0.1-0.2-0.2-0.3L34.4,25l10.3-10.3c0.4-0.4,0.4-1,0-1.4l-10-10c-0.4-0.4-1-0.4-1.4,0L23,13.6L12.7,3.3
	c-0.4-0.4-1-0.4-1.4,0l-8,8c-0.4,0.4-0.4,1,0,1.4L13.6,23L3.3,33.3z M36,41.4l5.4-5.4l1.3,6.7L36,41.4z M40.6,34L34,40.6L26.4,33
	l6.6-6.6L40.6,34z M34,5.4l8.6,8.6L14,42.6L5.4,34l4.6-4.6l1.3,1.3c0.2,0.2,0.5,0.3,0.7,0.3s0.5-0.1,0.7-0.3c0.4-0.4,0.4-1,0-1.4
	L11.4,28l4.6-4.6l3.3,3.3c0.2,0.2,0.5,0.3,0.7,0.3s0.5-0.1,0.7-0.3c0.4-0.4,0.4-1,0-1.4L17.4,22l4.6-4.6l1.3,1.3
	c0.2,0.2,0.5,0.3,0.7,0.3s0.5-0.1,0.7-0.3c0.4-0.4,0.4-1,0-1.4L23.4,16l4.6-4.6l3.3,3.3c0.2,0.2,0.5,0.3,0.7,0.3s0.5-0.1,0.7-0.3
	c0.4-0.4,0.4-1,0-1.4L29.4,10L34,5.4z M12,5.4L14.6,8L8,14.6L5.4,12L12,5.4z M9.4,16L16,9.4l5.6,5.6L15,21.6L9.4,16z"/>
</svg>
