<?xml version="1.0" encoding="utf-8"?>
<!-- Generator: Adobe Illustrator 19.1.0, SVG Export Plug-In . SVG Version: 6.00 Build 0)  -->
<!DOCTYPE svg PUBLIC "-//W3C//DTD SVG 1.1//EN" "http://www.w3.org/Graphics/SVG/1.1/DTD/svg11.dtd">
<svg version="1.1" id="Layer_1" xmlns="http://www.w3.org/2000/svg" xmlns:xlink="http://www.w3.org/1999/xlink" x="0px" y="0px"
	 width="48px" height="48px" viewBox="0 0 48 48" enable-background="new 0 0 48 48" xml:space="preserve">
<path d="M6,47h38c0.6,0,1-0.4,1-1V2c0-0.6-0.4-1-1-1H6C5.4,1,5,1.4,5,2v44C5,46.6,5.4,47,6,47z M7,3h36v42H7V3z"/>
<path d="M38,7H12c-0.6,0-1,0.4-1,1v8c0,0.6,0.4,1,1,1h26c0.6,0,1-0.4,1-1V8C39,7.4,38.6,7,38,7z M37,15H13V9h24V15z"/>
<path d="M22,21H12c-0.6,0-1,0.4-1,1v6c0,0.6,0.4,1,1,1h10c0.6,0,1-0.4,1-1v-6C23,21.4,22.6,21,22,21z M21,27h-8v-4h8V27z"/>
<path d="M38,21H28c-0.6,0-1,0.4-1,1v18c0,0.6,0.4,1,1,1h10c0.6,0,1-0.4,1-1V22C39,21.4,38.6,21,38,21z M37,39h-8V23h8V39z"/>
<path d="M22,33H12c-0.6,0-1,0.4-1,1v6c0,0.6,0.4,1,1,1h10c0.6,0,1-0.4,1-1v-6C23,33.4,22.6,33,22,33z M21,39h-8v-4h8V39z"/>
</svg>
