<?xml version="1.0" encoding="utf-8"?>
<!-- Generator: Adobe Illustrator 19.1.0, SVG Export Plug-In . SVG Version: 6.00 Build 0)  -->
<!DOCTYPE svg PUBLIC "-//W3C//DTD SVG 1.1//EN" "http://www.w3.org/Graphics/SVG/1.1/DTD/svg11.dtd">
<svg version="1.1" id="Layer_1" xmlns="http://www.w3.org/2000/svg" xmlns:xlink="http://www.w3.org/1999/xlink" x="0px" y="0px"
	 width="48px" height="48px" viewBox="0 0 48 48" enable-background="new 0 0 48 48" xml:space="preserve">
<path d="M22,27h4c0.6,0,1-0.4,1-1s-0.4-1-1-1h-4c-0.6,0-1,0.4-1,1S21.4,27,22,27z"/>
<path d="M14,37h-4c-0.6,0-1,0.4-1,1s0.4,1,1,1h4c0.6,0,1-0.4,1-1S14.6,37,14,37z"/>
<path d="M34,39h4c0.6,0,1-0.4,1-1s-0.4-1-1-1h-4c-0.6,0-1,0.4-1,1S33.4,39,34,39z"/>
<path d="M3,46c0,0.6,0.4,1,1,1h40c0.6,0,1-0.4,1-1V30c0-0.6-0.4-1-1-1h-9v-7c0-0.3-0.1-0.6-0.4-0.8L25,13.5V9h7c0.6,0,1-0.4,1-1V2
	c0-0.6-0.4-1-1-1h-8c-0.6,0-1,0.4-1,1v11.5l-9.6,7.7C13.1,21.4,13,21.7,13,22v7H4c-0.6,0-1,0.4-1,1V46z M25,3h6v4h-6V3z M27,45h-6
	v-6h6V45z M5,31h9c0.6,0,1-0.4,1-1v-7.5l9-7.2l9,7.2V30c0,0.6,0.4,1,1,1h9v14H29v-7c0-0.6-0.4-1-1-1h-8c-0.6,0-1,0.4-1,1v7H5V31z"/>
</svg>
