<?xml version="1.0" encoding="utf-8"?>
<!-- Generator: Adobe Illustrator 19.1.0, SVG Export Plug-In . SVG Version: 6.00 Build 0)  -->
<!DOCTYPE svg PUBLIC "-//W3C//DTD SVG 1.1//EN" "http://www.w3.org/Graphics/SVG/1.1/DTD/svg11.dtd">
<svg version="1.1" id="Layer_1" xmlns="http://www.w3.org/2000/svg" xmlns:xlink="http://www.w3.org/1999/xlink" x="0px" y="0px"
	 width="48px" height="48px" viewBox="0 0 48 48" enable-background="new 0 0 48 48" xml:space="preserve">
<path d="M13.3,40.7c0.2,0.2,0.4,0.3,0.7,0.3h4c0.3,0,0.5-0.1,0.7-0.3l1.3-1.3l1.3,1.3c0.2,0.2,0.5,0.3,0.7,0.3s0.5-0.1,0.7-0.3
	l18-18c0.4-0.4,0.4-1,0-1.4L39.4,20l3.3-3.3c0.4-0.4,0.4-1,0-1.4l-12-12c-0.4-0.4-1-0.4-1.4,0L26,6.6l-1.3-1.3c-0.4-0.4-1-0.4-1.4,0
	l-18,18c-0.4,0.4-0.4,1,0,1.4L6.6,26l-3.3,3.3c-0.4,0.4-0.4,1,0,1.4L13.3,40.7z M30,5.4L40.6,16L38,18.6L27.4,8L30,5.4z M24,7.4
	L38.6,22L22,38.6L7.4,24L24,7.4z M8,27.4L18.6,38l-1,1h-3.2l-9-9L8,27.4z"/>
<path d="M14,25c0.3,0,0.5-0.1,0.7-0.3l4-4c0.4-0.4,0.4-1,0-1.4s-1-0.4-1.4,0l-4,4c-0.4,0.4-0.4,1,0,1.4C13.5,24.9,13.7,25,14,25z"/>
<path d="M10,45c-0.6,0-1,0.4-1,1s0.4,1,1,1h28c0.6,0,1-0.4,1-1s-0.4-1-1-1H10z"/>
</svg>
