<?xml version="1.0" encoding="utf-8"?>
<!-- Generator: Adobe Illustrator 19.1.0, SVG Export Plug-In . SVG Version: 6.00 Build 0)  -->
<!DOCTYPE svg PUBLIC "-//W3C//DTD SVG 1.1//EN" "http://www.w3.org/Graphics/SVG/1.1/DTD/svg11.dtd">
<svg version="1.1" id="Layer_1" xmlns="http://www.w3.org/2000/svg" xmlns:xlink="http://www.w3.org/1999/xlink" x="0px" y="0px"
	 width="48px" height="48px" viewBox="0 0 48 48" enable-background="new 0 0 48 48" xml:space="preserve">
<path d="M7.8,39.1c-1.1,1.5-1.3,3.5-0.4,5.2C8.3,46,10,47,11.9,47h24.3c1.9,0,3.6-1,4.5-2.7c0.9-1.7,0.7-3.7-0.4-5.2L29,23.7V9h3.1
	c0.6,0,1-0.4,1-1V2c0-0.6-0.4-1-1-1H16c-0.6,0-1,0.4-1,1v6c0,0.6,0.4,1,1,1h3v14.7L7.8,39.1z M38.8,43.4c-0.5,1-1.5,1.6-2.7,1.6
	H11.9c-1.2,0-2.2-0.6-2.7-1.6c-0.5-1-0.4-2.2,0.2-3.1l5.3-7.2h18.6l5.3,7.2C39.2,41.2,39.3,42.3,38.8,43.4z M20,7h-3V3h14.1v4H28
	c-0.6,0-1,0.4-1,1v16c0,0.2,0.1,0.4,0.2,0.6l4.7,6.4H16.1l4.7-6.4c0.1-0.2,0.2-0.4,0.2-0.6V8C21,7.4,20.6,7,20,7z"/>
</svg>
