<?xml version="1.0" encoding="utf-8"?>
<!-- Generator: Adobe Illustrator 19.1.0, SVG Export Plug-In . SVG Version: 6.00 Build 0)  -->
<!DOCTYPE svg PUBLIC "-//W3C//DTD SVG 1.1//EN" "http://www.w3.org/Graphics/SVG/1.1/DTD/svg11.dtd">
<svg version="1.1" id="Layer_1" xmlns="http://www.w3.org/2000/svg" xmlns:xlink="http://www.w3.org/1999/xlink" x="0px" y="0px"
	 width="48px" height="48px" viewBox="0 0 48 48" enable-background="new 0 0 48 48" xml:space="preserve">
<path d="M31,10V8c0-2.8-2.2-5-5-5h-4c-0.6,0-1,0.4-1,1s0.4,1,1,1h4c1.7,0,3,1.3,3,3v1h-6c-3.3,0-6,2.7-6,6s2.7,6,6,6h7
	c0.6,0,1-0.4,1-1V10z M19,15c0-2.2,1.8-4,4-4h6v8h-6C20.8,19,19,17.2,19,15z"/>
<path d="M12,31H7v-9c0-0.6-0.4-1-1-1s-1,0.4-1,1v10v12c0,0.6,0.4,1,1,1h6c3.9,0,7-3.1,7-7S15.9,31,12,31z M12,43H7V33h5
	c2.8,0,5,2.2,5,5S14.8,43,12,43z"/>
<path d="M44,41.1c-0.5-0.3-1.1-0.1-1.4,0.4C42.1,42.4,41.1,43,40,43h-4c-1.7,0-3-1.3-3-3v-6c0-1.7,1.3-3,3-3h4
	c1.1,0,2.1,0.6,2.6,1.5c0.3,0.5,0.9,0.6,1.4,0.4c0.5-0.3,0.6-0.9,0.4-1.4C43.4,30,41.8,29,40,29h-4c-2.8,0-5,2.2-5,5v6
	c0,2.8,2.2,5,5,5h4c1.8,0,3.4-1,4.3-2.5C44.6,42,44.4,41.4,44,41.1z"/>
</svg>
