<?xml version="1.0" encoding="utf-8"?>
<!-- Generator: Adobe Illustrator 19.1.0, SVG Export Plug-In . SVG Version: 6.00 Build 0)  -->
<!DOCTYPE svg PUBLIC "-//W3C//DTD SVG 1.1//EN" "http://www.w3.org/Graphics/SVG/1.1/DTD/svg11.dtd">
<svg version="1.1" id="Layer_1" xmlns="http://www.w3.org/2000/svg" xmlns:xlink="http://www.w3.org/1999/xlink" x="0px" y="0px"
	 width="48px" height="48px" viewBox="0 0 48 48" enable-background="new 0 0 48 48" xml:space="preserve">
<path d="M3.3,44.7C3.5,44.9,3.7,45,4,45s0.5-0.1,0.7-0.3L8,41.4l1.3,1.3C9.5,42.9,9.7,43,10,43s0.5-0.1,0.7-0.3l5.3-5.3l1.3,1.3
	c0.2,0.2,0.5,0.3,0.7,0.3s0.5-0.1,0.7-0.3L38,19.4l2.6,2.6L25.3,37.3c-0.4,0.4-0.4,1,0,1.4c0.2,0.2,0.5,0.3,0.7,0.3s0.5-0.1,0.7-0.3
	l16-16c0.4-0.4,0.4-1,0-1.4L39.4,18l3.3-3.3c0.4-0.4,0.4-1,0-1.4L41.4,12l3.3-3.3c0.4-0.4,0.4-1,0-1.4l-4-4c-0.4-0.4-1-0.4-1.4,0
	L36,6.6l-1.3-1.3c-0.4-0.4-1-0.4-1.4,0l-24,24c-0.4,0.4-0.4,1,0,1.4l1.3,1.3l-5.3,5.3c-0.4,0.4-0.4,1,0,1.4L6.6,40l-3.3,3.3
	C2.9,43.7,2.9,44.3,3.3,44.7z M40,5.4L42.6,8L40,10.6L37.4,8L40,5.4z M34,7.4l6.6,6.6L18,36.6L11.4,30L34,7.4z M12,33.4l2.6,2.6
	L10,40.6L7.4,38L12,33.4z"/>
</svg>
