<?xml version="1.0" encoding="utf-8"?>
<!-- Generator: Adobe Illustrator 19.1.0, SVG Export Plug-In . SVG Version: 6.00 Build 0)  -->
<!DOCTYPE svg PUBLIC "-//W3C//DTD SVG 1.1//EN" "http://www.w3.org/Graphics/SVG/1.1/DTD/svg11.dtd">
<svg version="1.1" id="Layer_1" xmlns="http://www.w3.org/2000/svg" xmlns:xlink="http://www.w3.org/1999/xlink" x="0px" y="0px"
	 width="48px" height="48px" viewBox="0 0 48 48" enable-background="new 0 0 48 48" xml:space="preserve">
<path d="M2,45h40c0.4,0,0.8-0.2,0.9-0.6c0.2-0.4,0.1-0.8-0.2-1.1l-40-40C2.4,3,2,2.9,1.6,3.1C1.2,3.2,1,3.6,1,4v40
	C1,44.6,1.4,45,2,45z M39.6,43H3v-6h3c0.6,0,1-0.4,1-1s-0.4-1-1-1H3v-6h3c0.6,0,1-0.4,1-1s-0.4-1-1-1H3v-6h3c0.6,0,1-0.4,1-1
	s-0.4-1-1-1H3V6.4L39.6,43z"/>
<path d="M12,37h10c0.4,0,0.8-0.2,0.9-0.6c0.2-0.4,0.1-0.8-0.2-1.1l-10-10c-0.3-0.3-0.7-0.4-1.1-0.2S11,25.6,11,26v10
	C11,36.6,11.4,37,12,37z M13,28.4l6.6,6.6H13V28.4z"/>
</svg>
