<?xml version="1.0" encoding="utf-8"?>
<!-- Generator: Adobe Illustrator 19.1.0, SVG Export Plug-In . SVG Version: 6.00 Build 0)  -->
<!DOCTYPE svg PUBLIC "-//W3C//DTD SVG 1.1//EN" "http://www.w3.org/Graphics/SVG/1.1/DTD/svg11.dtd">
<svg version="1.1" id="Layer_1" xmlns="http://www.w3.org/2000/svg" xmlns:xlink="http://www.w3.org/1999/xlink" x="0px" y="0px"
	 width="48px" height="48px" viewBox="0 0 48 48" enable-background="new 0 0 48 48" xml:space="preserve">
<path d="M3,46c0,0.6,0.4,1,1,1h40c0.6,0,1-0.4,1-1V4c0-0.6-0.4-1-1-1H33V2c0-0.6-0.4-1-1-1H16c-0.6,0-1,0.4-1,1v1H4C3.4,3,3,3.4,3,4
	V46z M16,15h4c0.6,0,1-0.4,1-1c0-1.7,1.3-3,3-3s3,1.3,3,3c0,0.6,0.4,1,1,1h4c0.6,0,1-0.4,1-1v-3h4v28H11V11h4v3
	C15,14.6,15.4,15,16,15z M17,3h14v10h-2.1c-0.5-2.3-2.5-4-4.9-4s-4.4,1.7-4.9,4H17V3z M5,5h10v4h-5c-0.6,0-1,0.4-1,1v30
	c0,0.6,0.4,1,1,1h28c0.6,0,1-0.4,1-1V10c0-0.6-0.4-1-1-1h-5V5h10v40H5V5z"/>
<path d="M18,25h12c0.6,0,1-0.4,1-1s-0.4-1-1-1H18c-0.6,0-1,0.4-1,1S17.4,25,18,25z"/>
<path d="M18,33h12c0.6,0,1-0.4,1-1s-0.4-1-1-1H18c-0.6,0-1,0.4-1,1S17.4,33,18,33z"/>
</svg>
