<?xml version="1.0" encoding="utf-8"?>
<!-- Generator: Adobe Illustrator 19.1.0, SVG Export Plug-In . SVG Version: 6.00 Build 0)  -->
<!DOCTYPE svg PUBLIC "-//W3C//DTD SVG 1.1//EN" "http://www.w3.org/Graphics/SVG/1.1/DTD/svg11.dtd">
<svg version="1.1" id="Layer_1" xmlns="http://www.w3.org/2000/svg" xmlns:xlink="http://www.w3.org/1999/xlink" x="0px" y="0px"
	 width="48px" height="48px" viewBox="0 0 48 48" enable-background="new 0 0 48 48" xml:space="preserve">
<path d="M38,1c-5.8,0-11.3,3.1-14.4,8H14H6c-2.9,0-5,3.9-5,9s2.1,9,5,9h2.9l9.4,16.1c0.7,1.2,1.8,2,3.1,2.3c0.4,0.1,0.8,0.2,1.3,0.2
	c0.9,0,1.7-0.2,2.5-0.7c1.2-0.7,2-1.8,2.3-3.1c0.3-1.3,0.2-2.6-0.5-3.8l-6.4-11h3.1c3.1,4.9,8.6,8,14.4,8c5,0,9-7.5,9-17S43,1,38,1z
	 M3,18c0-4,1.6-7,3-7h4.8C9.7,12.6,9,15.1,9,18s0.7,5.4,1.8,7H6C4.6,25,3,22,3,18z M25.2,39c0.4,0.7,0.5,1.5,0.3,2.3
	s-0.7,1.4-1.4,1.8c-0.7,0.4-1.5,0.5-2.3,0.3C21,43.2,20.4,42.7,20,42l-8.8-15H14h4.1L25.2,39z M25,25.5c-0.2-0.3-0.5-0.5-0.9-0.5H14
	c-1.4,0-3-3-3-7s1.6-7,3-7h10.2c0.4,0,0.7-0.2,0.9-0.5c1.8-3.1,4.6-5.4,7.9-6.6c-1.1,1.4-2.1,3.4-2.7,5.6C30.1,9.6,30,9.8,30,9.9
	c0,0,0,0.1,0,0.1c-0.6,2.4-1,5.1-1,7.9c0,2.9,0.4,5.6,1,8c0,0,0,0.1,0,0.1c0,0.2,0.1,0.3,0.2,0.4c0.7,2.3,1.6,4.2,2.7,5.6
	C29.6,30.9,26.8,28.6,25,25.5z M31,18c0-2.4,0.3-4.7,0.8-6.8c3,0.8,5.2,3.6,5.2,6.8c0,3.2-2.2,6-5.2,6.8C31.3,22.7,31,20.4,31,18z
	 M38,33c-2.3,0-4.4-2.5-5.7-6.3c3.9-1,6.7-4.6,6.7-8.7c0-4.1-2.8-7.6-6.7-8.7C33.6,5.5,35.7,3,38,3c3.8,0,7,6.9,7,15S41.8,33,38,33z
	"/>
</svg>
