<?xml version="1.0" encoding="utf-8"?>
<!-- Generator: Adobe Illustrator 19.1.0, SVG Export Plug-In . SVG Version: 6.00 Build 0)  -->
<!DOCTYPE svg PUBLIC "-//W3C//DTD SVG 1.1//EN" "http://www.w3.org/Graphics/SVG/1.1/DTD/svg11.dtd">
<svg version="1.1" id="Layer_1" xmlns="http://www.w3.org/2000/svg" xmlns:xlink="http://www.w3.org/1999/xlink" x="0px" y="0px"
	 width="48px" height="48px" viewBox="0 0 48 48" enable-background="new 0 0 48 48" xml:space="preserve">
<path d="M12,47h24c0.6,0,1-0.4,1-1v-7h1c0.6,0,1-0.4,1-1V10c0-0.6-0.4-1-1-1h-1V2c0-0.6-0.4-1-1-1H12c-0.6,0-1,0.4-1,1v7h-1
	c-0.6,0-1,0.4-1,1v28c0,0.6,0.4,1,1,1h1v7C11,46.6,11.4,47,12,47z M35,45H13v-6h22V45z M13,3h22v6H13V3z M11,11h26v26H11V11z"/>
<path d="M16,33c0.6,0,1-0.4,1-1v-6c0-0.6-0.4-1-1-1s-1,0.4-1,1v6C15,32.6,15.4,33,16,33z"/>
</svg>
