<?xml version="1.0" encoding="utf-8"?>
<!-- Generator: Adobe Illustrator 19.1.0, SVG Export Plug-In . SVG Version: 6.00 Build 0)  -->
<!DOCTYPE svg PUBLIC "-//W3C//DTD SVG 1.1//EN" "http://www.w3.org/Graphics/SVG/1.1/DTD/svg11.dtd">
<svg version="1.1" id="Layer_1" xmlns="http://www.w3.org/2000/svg" xmlns:xlink="http://www.w3.org/1999/xlink" x="0px" y="0px"
	 width="48px" height="48px" viewBox="0 0 48 48" enable-background="new 0 0 48 48" xml:space="preserve">
<path d="M14.2,18.8L9,13.6V4c0-0.6-0.4-1-1-1S7,3.4,7,4v10c0,0.3,0.1,0.5,0.3,0.7l5.5,5.5c0.4,0.4,0.3,0.8,0.3,1s-0.2,0.6-0.7,0.7
	L7.8,23C7.3,23.1,7,23.5,7,24v3.4l-3.8,1.8c-1,0.5-1.7,1.5-1.7,2.7c0,1.1,0.6,2.2,1.6,2.7l3.9,2V38c0,1.7-1.3,3-3,3H2
	c-0.6,0-1,0.4-1,1s0.4,1,1,1h2c2.8,0,5-2.2,5-5v-2c0-0.4-0.2-0.7-0.5-0.9L4,32.8c-0.3-0.2-0.5-0.5-0.5-0.9c0-0.4,0.2-0.7,0.6-0.9
	l4.4-2.1C8.8,28.7,9,28.4,9,28v-3.2l3.8-1c1.1-0.3,1.9-1.1,2.2-2.1C15.3,20.7,15,19.6,14.2,18.8z"/>
<path d="M42,7H26c-2.8,0-5,2.2-5,5v11.7l-5.8,7.7c-0.2,0.3-0.3,0.7-0.1,1c0.2,0.3,0.5,0.6,0.9,0.6h26c2.8,0,5-2.2,5-5V12
	C47,9.2,44.8,7,42,7z M45,28c0,1.7-1.3,3-3,3H18l4.8-6.4c0.1-0.2,0.2-0.4,0.2-0.6V12c0-1.7,1.3-3,3-3h16c1.7,0,3,1.3,3,3V28z"/>
<path d="M38,15h-8c-0.6,0-1,0.4-1,1s0.4,1,1,1h8c0.6,0,1-0.4,1-1S38.6,15,38,15z"/>
<path d="M34,23h-4c-0.6,0-1,0.4-1,1s0.4,1,1,1h4c0.6,0,1-0.4,1-1S34.6,23,34,23z"/>
</svg>
