<?xml version="1.0" encoding="utf-8"?>
<!-- Generator: Adobe Illustrator 19.1.0, SVG Export Plug-In . SVG Version: 6.00 Build 0)  -->
<!DOCTYPE svg PUBLIC "-//W3C//DTD SVG 1.1//EN" "http://www.w3.org/Graphics/SVG/1.1/DTD/svg11.dtd">
<svg version="1.1" id="Layer_1" xmlns="http://www.w3.org/2000/svg" xmlns:xlink="http://www.w3.org/1999/xlink" x="0px" y="0px"
	 width="48px" height="48px" viewBox="0 0 48 48" enable-background="new 0 0 48 48" xml:space="preserve">
<path d="M3,44c0,0.1,0,0.2,0.1,0.3c0,0,0,0,0,0.1c0,0.1,0.1,0.2,0.2,0.3c0.1,0.1,0.2,0.2,0.3,0.2S3.9,45,4,45c0.1,0,0.1,0,0.2,0
	l26-4c0.4-0.1,0.7-0.3,0.8-0.6l5.5-14.5l2.9,2.9c0.2,0.2,0.5,0.3,0.7,0.3s0.5-0.1,0.7-0.3l4-4c0.4-0.4,0.4-1,0-1.4l-20-20
	c-0.4-0.4-1-0.4-1.4,0l-4,4c-0.4,0.4-0.4,1,0,1.4l2.9,2.9L7.6,17.1c-0.3,0.1-0.6,0.4-0.6,0.8l-4,26C3,43.9,3,43.9,3,44
	C3,44,3,44,3,44z M24,5.4L42.6,24L40,26.6l-3.3-3.3c0,0,0,0,0,0L21.4,8L24,5.4z M8.9,18.7l14.8-5.6l11.1,11.1l-5.6,14.8L6.9,42.5
	l10.4-10.4C18.1,32.7,19,33,20,33c1.3,0,2.6-0.5,3.5-1.5c1.9-1.9,1.9-5.1,0-7.1C22.6,23.5,21.3,23,20,23s-2.6,0.5-3.5,1.5
	c-1.7,1.7-1.9,4.4-0.6,6.3L5.5,41.1L8.9,18.7z M17.9,30.1c-1.2-1.2-1.2-3.1,0-4.2c0.6-0.6,1.3-0.9,2.1-0.9s1.6,0.3,2.1,0.9
	c1.2,1.2,1.2,3.1,0,4.2C21,31.3,19,31.3,17.9,30.1z"/>
</svg>
