<?xml version="1.0" encoding="utf-8"?>
<!-- Generator: Adobe Illustrator 19.1.0, SVG Export Plug-In . SVG Version: 6.00 Build 0)  -->
<!DOCTYPE svg PUBLIC "-//W3C//DTD SVG 1.1//EN" "http://www.w3.org/Graphics/SVG/1.1/DTD/svg11.dtd">
<svg version="1.1" id="Layer_1" xmlns="http://www.w3.org/2000/svg" xmlns:xlink="http://www.w3.org/1999/xlink" x="0px" y="0px"
	 width="48px" height="48px" viewBox="0 0 48 48" enable-background="new 0 0 48 48" xml:space="preserve">
<path d="M10,1C9.4,1,9,1.4,9,2v26c0,0,0,0.1,0,0.1c0,0.1,0,0.1,0,0.2c0,0.1,0.1,0.1,0.1,0.2c0,0,0,0.1,0,0.1c0,0,0,0,0,0
	c0,0,0,0,0,0l14,16c0.2,0.2,0.5,0.3,0.8,0.3s0.6-0.1,0.8-0.3l14-16c0,0,0,0,0,0c0,0,0,0,0,0c0,0,0-0.1,0-0.1c0-0.1,0.1-0.1,0.1-0.2
	c0-0.1,0-0.1,0-0.2c0,0,0-0.1,0-0.1V2c0-0.6-0.4-1-1-1s-1,0.4-1,1v24l-6-4.5V4c0-0.6-0.4-1-1-1s-1,0.4-1,1v17.6l-5,5l-5-5V4
	c0-0.6-0.4-1-1-1s-1,0.4-1,1v17.5L11,26V2C11,1.4,10.6,1,10,1z M24,42.5L22.7,41h2.6L24,42.5z M24.7,28.7l5.4-5.4l6.4,4.8L27,39H21
	l-9.5-10.8l6.4-4.8l5.4,5.4C23.7,29.1,24.3,29.1,24.7,28.7z"/>
</svg>
