<?xml version="1.0" encoding="utf-8"?>
<!-- Generator: Adobe Illustrator 19.1.0, SVG Export Plug-In . SVG Version: 6.00 Build 0)  -->
<!DOCTYPE svg PUBLIC "-//W3C//DTD SVG 1.1//EN" "http://www.w3.org/Graphics/SVG/1.1/DTD/svg11.dtd">
<svg version="1.1" id="Layer_1" xmlns="http://www.w3.org/2000/svg" xmlns:xlink="http://www.w3.org/1999/xlink" x="0px" y="0px"
	 width="48px" height="48px" viewBox="0 0 48 48" enable-background="new 0 0 48 48" xml:space="preserve">
<path d="M20.5,30.9l7,4C27.7,35,27.8,35,28,35s0.3,0,0.5-0.1l7-4c0.3-0.2,0.5-0.5,0.5-0.9V18c0-0.6-0.4-1-1-1H21c-0.6,0-1,0.4-1,1
	v12C20,30.4,20.2,30.7,20.5,30.9z M28,32.8l-6-3.4V23h12v6.4L28,32.8z M34,19v2H22v-2H34z"/>
<path d="M10,47h32c0.6,0,1-0.4,1-1V2c0-0.6-0.4-1-1-1H12c-0.6,0-1,0.4-1,1v17.7l-5.8,7.7C5,27.6,5,27.9,5,28.2l4,18
	C9.1,46.7,9.5,47,10,47z M41,8h-8V3h8V8z M23,8V3h8v5H23z M21,3v5h-8V3H21z M12.8,20.6c0.1-0.2,0.2-0.4,0.2-0.6V10h28v35H10.8
	L7.1,28.2L12.8,20.6z"/>
</svg>
