<?xml version="1.0" encoding="utf-8"?>
<!-- Generator: Adobe Illustrator 19.1.0, SVG Export Plug-In . SVG Version: 6.00 Build 0)  -->
<!DOCTYPE svg PUBLIC "-//W3C//DTD SVG 1.1//EN" "http://www.w3.org/Graphics/SVG/1.1/DTD/svg11.dtd">
<svg version="1.1" id="Layer_1" xmlns="http://www.w3.org/2000/svg" xmlns:xlink="http://www.w3.org/1999/xlink" x="0px" y="0px"
	 width="48px" height="48px" viewBox="0 0 48 48" enable-background="new 0 0 48 48" xml:space="preserve">
<path d="M36,29h-5V8c0-1.4,0-5-2.6-6.4c0,0,0,0-0.1,0C27.7,1.2,27,1,26,1c-3.9,0-9,5.1-9,9v19h-5c-0.6,0-1,0.4-1,1v16
	c0,0.6,0.4,1,1,1h24c0.6,0,1-0.4,1-1V30C37,29.4,36.6,29,36,29z M26,3c0.3,0,0.7,0,1,0.1c-0.3,5.9-4.2,7.6-8,7.9v-1
	C19,7.3,23.3,3,26,3z M19,13c5.4-0.3,8.8-3.1,9.7-7.7C28.9,5.9,29,6.8,29,8v21H19V13z M35,45H13V31h22V45z"/>
</svg>
