<?xml version="1.0" encoding="utf-8"?>
<!-- Generator: Adobe Illustrator 19.1.0, SVG Export Plug-In . SVG Version: 6.00 Build 0)  -->
<!DOCTYPE svg PUBLIC "-//W3C//DTD SVG 1.1//EN" "http://www.w3.org/Graphics/SVG/1.1/DTD/svg11.dtd">
<svg version="1.1" id="Layer_1" xmlns="http://www.w3.org/2000/svg" xmlns:xlink="http://www.w3.org/1999/xlink" x="0px" y="0px"
	 width="48px" height="48px" viewBox="0 0 48 48" enable-background="new 0 0 48 48" xml:space="preserve">
<path d="M3,15.9C3,16,3,16,3,15.9C3,16,3,16,3,15.9c0,0.2,0,0.3,0.1,0.4c0,0,0,0.1,0.1,0.1c0,0.1,0,0.1,0.1,0.2l20,26c0,0,0,0,0,0
	c0,0,0,0,0.1,0.1c0,0,0,0.1,0.1,0.1c0,0,0.1,0.1,0.1,0.1c0,0,0.1,0,0.1,0c0,0,0.1,0,0.1,0c0,0,0,0,0,0c0.1,0,0.2,0,0.3,0
	c0,0,0,0,0,0c0,0,0,0,0,0s0,0,0,0c0,0,0,0,0,0c0.1,0,0.2,0,0.3,0c0,0,0,0,0,0c0,0,0.1,0,0.1,0c0,0,0.1,0,0.1,0c0,0,0.1,0,0.1-0.1
	c0,0,0.1-0.1,0.1-0.1c0,0,0,0,0.1-0.1c0,0,0,0,0,0l20-26c0,0,0.1-0.1,0.1-0.2c0,0,0-0.1,0.1-0.1c0-0.1,0.1-0.2,0.1-0.3c0,0,0,0,0,0
	c0,0,0,0,0-0.1c0-0.1,0-0.2-0.1-0.3c0,0,0-0.1-0.1-0.1c0,0,0-0.1,0-0.1l-8-12c0-0.1-0.1-0.1-0.2-0.2c0,0,0,0,0,0
	c-0.1-0.1-0.2-0.1-0.3-0.2c0,0,0,0,0,0c0,0,0,0,0,0c-0.1,0-0.2,0-0.3,0H12c-0.1,0-0.2,0-0.3,0c0,0,0,0,0,0c0,0,0,0,0,0
	c-0.1,0-0.2,0.1-0.3,0.2c0,0,0,0,0,0c-0.1,0.1-0.1,0.1-0.2,0.2l-8,12c0,0,0,0.1,0,0.1c0,0,0,0.1-0.1,0.1C3,15.8,3,15.8,3,15.9z
	 M11.7,6.3l2.9,8.7H5.9L11.7,6.3z M42.1,15h-8.7l2.9-8.7L42.1,15z M30.6,17L24,38.6L17.4,17H30.6z M17.9,15L24,5.8l6.1,9.2H17.9z
	 M32.7,17H42L26.6,37L32.7,17z M31.7,13.7L25.9,5h8.7L31.7,13.7z M16.3,13.7L13.4,5h8.7L16.3,13.7z M15.3,17l6.2,20L6,17H15.3z"/>
</svg>
