<?xml version="1.0" encoding="utf-8"?>
<!-- Generator: Adobe Illustrator 19.1.0, SVG Export Plug-In . SVG Version: 6.00 Build 0)  -->
<!DOCTYPE svg PUBLIC "-//W3C//DTD SVG 1.1//EN" "http://www.w3.org/Graphics/SVG/1.1/DTD/svg11.dtd">
<svg version="1.1" id="Layer_1" xmlns="http://www.w3.org/2000/svg" xmlns:xlink="http://www.w3.org/1999/xlink" x="0px" y="0px"
	 width="48px" height="48px" viewBox="0 0 48 48" enable-background="new 0 0 48 48" xml:space="preserve">
<path d="M40,29h-4.1c-2.3,0-4.4-0.8-6.1-2.4L6.7,5.3c-0.4-0.3-0.9-0.4-1.3,0C5.2,5.4,1,8.9,1,16c0,3.2,1.1,5.4,2.1,7.4
	c1,2,1.9,3.8,1.9,6.6v12c0,0.6,0.4,1,1,1h6c0.6,0,1-0.4,1-1V27.2c2.1,0.8,5.2,3.6,8.2,6.4C25.9,38,31.2,43,36,43h10c0.6,0,1-0.4,1-1
	v-6C47,32.1,43.9,29,40,29z M45,41h-9c-4,0-9-4.7-13.5-8.8C18.4,28.3,14.9,25,12,25c-0.6,0-1,0.4-1,1v15H7V30c0-3.2-1.1-5.4-2.1-7.4
	c-1-2-1.9-3.8-1.9-6.6c0-4.6,2-7.5,3-8.6l22.4,20.7c2,1.9,4.7,2.9,7.5,2.9H40c2.8,0,5,2.2,5,5V41z"/>
</svg>
