<?xml version="1.0" encoding="utf-8"?>
<!-- Generator: Adobe Illustrator 19.1.0, SVG Export Plug-In . SVG Version: 6.00 Build 0)  -->
<!DOCTYPE svg PUBLIC "-//W3C//DTD SVG 1.1//EN" "http://www.w3.org/Graphics/SVG/1.1/DTD/svg11.dtd">
<svg version="1.1" id="Layer_1" xmlns="http://www.w3.org/2000/svg" xmlns:xlink="http://www.w3.org/1999/xlink" x="0px" y="0px"
	 width="48px" height="48px" viewBox="0 0 48 48" enable-background="new 0 0 48 48" xml:space="preserve">
<path d="M46,7h-8.8l-2.3-5.4c0-0.1-0.1-0.1-0.1-0.2c0,0,0,0,0,0c-0.1-0.1-0.2-0.2-0.3-0.2c0,0,0,0,0,0c0,0,0,0-0.1,0
	c-0.1,0-0.2-0.1-0.3-0.1c0,0-0.1,0-0.1,0c0,0,0,0-0.1,0H14c0,0,0,0,0,0c0,0-0.1,0-0.1,0c-0.1,0-0.2,0-0.3,0.1c0,0,0,0-0.1,0
	c0,0,0,0,0,0c-0.1,0.1-0.2,0.1-0.3,0.2c0,0,0,0,0,0c-0.1,0.1-0.1,0.2-0.2,0.3L10.8,7H2C1.4,7,1,7.4,1,8v38c0,0.6,0.4,1,1,1h44
	c0.6,0,1-0.4,1-1V8C47,7.4,46.6,7,46,7z M12.3,8.4C12.3,8.4,12.3,8.4,12.3,8.4l1.7-4l8.5,17l-2.1,4L9.2,15.7L12.3,8.4z M23.7,19.2
	L15.6,3h16.7L23.7,19.2z M33.9,4.3l1.7,4.1c0,0,0,0,0,0l3.1,7.3l-17.8,13L33.9,4.3z M3,9h6.9l-2.8,6.6C6.9,16,7,16.5,7.3,16.8
	l12.1,10.4l-2.3,4.4c0,0.1-0.1,0.2-0.1,0.3c0,0,0,0,0,0.1c0,0,0,0.1,0,0.1v13H3V9z M45,45H19V32.5l21.6-15.7
	c0.4-0.3,0.5-0.8,0.3-1.2L38.1,9H45V45z"/>
<path d="M24,37c-0.6,0-1,0.4-1,1v2c0,0.6,0.4,1,1,1s1-0.4,1-1v-2C25,37.4,24.6,37,24,37z"/>
</svg>
