<?xml version="1.0" encoding="utf-8"?>
<!-- Generator: Adobe Illustrator 19.1.0, SVG Export Plug-In . SVG Version: 6.00 Build 0)  -->
<!DOCTYPE svg PUBLIC "-//W3C//DTD SVG 1.1//EN" "http://www.w3.org/Graphics/SVG/1.1/DTD/svg11.dtd">
<svg version="1.1" id="Layer_1" xmlns="http://www.w3.org/2000/svg" xmlns:xlink="http://www.w3.org/1999/xlink" x="0px" y="0px"
	 width="48px" height="48px" viewBox="0 0 48 48" enable-background="new 0 0 48 48" xml:space="preserve">
<path d="M38,1H10C9.4,1,9,1.4,9,2v44c0,0.6,0.4,1,1,1h28c0.6,0,1-0.4,1-1V2C39,1.4,38.6,1,38,1z M37,6h-5V3h5V6z M18,6V3h12v3H18z
	 M16,3v3h-5V3H16z M25,45V24c0-0.6-0.4-1-1-1s-1,0.4-1,1v21H11V19h1c2.8,0,5-2.2,5-5v-2c0-0.6-0.4-1-1-1s-1,0.4-1,1v2
	c0,1.7-1.3,3-3,3h-1V8h12v7c0,0.6,0.4,1,1,1s1-0.4,1-1V8h12v9h-1c-1.7,0-3-1.3-3-3v-2c0-0.6-0.4-1-1-1s-1,0.4-1,1v2c0,2.8,2.2,5,5,5
	h1v26H25z"/>
</svg>
