<?xml version="1.0" encoding="utf-8"?>
<!-- Generator: Adobe Illustrator 19.1.0, SVG Export Plug-In . SVG Version: 6.00 Build 0)  -->
<!DOCTYPE svg PUBLIC "-//W3C//DTD SVG 1.1//EN" "http://www.w3.org/Graphics/SVG/1.1/DTD/svg11.dtd">
<svg version="1.1" id="Layer_1" xmlns="http://www.w3.org/2000/svg" xmlns:xlink="http://www.w3.org/1999/xlink" x="0px" y="0px"
	 width="48px" height="48px" viewBox="0 0 48 48" enable-background="new 0 0 48 48" xml:space="preserve">
<path d="M32,17h-4c-0.6,0-1,0.4-1,1s0.4,1,1,1h4c0.6,0,1-0.4,1-1S32.6,17,32,17z"/>
<path d="M40,1h-8c-0.6,0-1,0.4-1,1c0,3.9-3.1,7-7,7s-7-3.1-7-7c0-0.6-0.4-1-1-1H8C4.1,1,1,4.1,1,8v32c0,0.6,0.4,1,1,1h7v5
	c0,0.6,0.4,1,1,1h28c0.6,0,1-0.4,1-1v-5h7c0.6,0,1-0.4,1-1V8C47,4.1,43.9,1,40,1z M3,39v-3h6v3H3z M39,39v-3h6v3H39z M45,34h-6V22
	c0-0.6-0.4-1-1-1s-1,0.4-1,1v18v5H11v-5V22c0-0.6-0.4-1-1-1s-1,0.4-1,1v12H3V8c0-2.8,2.2-5,5-5h7.1c0.5,4.5,4.3,8,8.9,8
	s8.4-3.5,8.9-8H40c2.8,0,5,2.2,5,5V34z"/>
</svg>
