<?xml version="1.0" encoding="utf-8"?>
<!-- Generator: Adobe Illustrator 19.1.0, SVG Export Plug-In . SVG Version: 6.00 Build 0)  -->
<!DOCTYPE svg PUBLIC "-//W3C//DTD SVG 1.1//EN" "http://www.w3.org/Graphics/SVG/1.1/DTD/svg11.dtd">
<svg version="1.1" id="Layer_1" xmlns="http://www.w3.org/2000/svg" xmlns:xlink="http://www.w3.org/1999/xlink" x="0px" y="0px"
	 width="48px" height="48px" viewBox="0 0 48 48" enable-background="new 0 0 48 48" xml:space="preserve">
<path d="M22,1c-0.6,0-1,0.4-1,1v4v11H10c-2.8,0-5,2.2-5,5v20v4c0,0.6,0.4,1,1,1s1-0.4,1-1v-3h8v3c0,0.6,0.4,1,1,1s1-0.4,1-1v-3h8v3
	c0,0.6,0.4,1,1,1s1-0.4,1-1v-4V29h11c2.8,0,5-2.2,5-5v-6V6V2c0-0.6-0.4-1-1-1s-1,0.4-1,1v3h-8V2c0-0.6-0.4-1-1-1s-1,0.4-1,1v3h-8V2
	C23,1.4,22.6,1,22,1z M7,22c0-1.7,1.3-3,3-3h16c-0.6,0.8-1,1.9-1,3v19H7V22z M30,19c1.7,0,3,1.3,3,3v2c0,1.1,0.4,2.2,1,3h-7v-5
	C27,20.3,28.3,19,30,19z M41,18v6c0,1.7-1.3,3-3,3s-3-1.3-3-3v-2c0-2.8-2.2-5-5-5h-7V7h18V18z"/>
</svg>
