<?xml version="1.0" encoding="utf-8"?>
<!-- Generator: Adobe Illustrator 19.1.0, SVG Export Plug-In . SVG Version: 6.00 Build 0)  -->
<!DOCTYPE svg PUBLIC "-//W3C//DTD SVG 1.1//EN" "http://www.w3.org/Graphics/SVG/1.1/DTD/svg11.dtd">
<svg version="1.1" id="Layer_1" xmlns="http://www.w3.org/2000/svg" xmlns:xlink="http://www.w3.org/1999/xlink" x="0px" y="0px"
	 width="48px" height="48px" viewBox="0 0 48 48" enable-background="new 0 0 48 48" xml:space="preserve">
<path d="M28,3c-1.4,0-2.8,0.2-4.1,0.5c0,0-0.1,0-0.1,0C15.3,5.4,9,13,9,22v5.3c-2.3,0.9-8,3.4-8,6.7c0,4.5,13.5,9,21,9
	c8.3,0,20.1-9.8,20.6-10.2c0,0,0,0,0,0c2.6-0.9,3.8-1.9,3.9-1.9c0.3-0.2,0.4-0.5,0.4-0.8v-8C47,11.5,38.5,3,28,3z M11,22
	c0-8,5.6-14.7,13-16.5c7.6,1.9,13,8.6,13,16.5v10.2c-2.4,0.5-5.4,0.8-9,0.8c-10.2,0-15.6-2.7-17-3.5V22z M22,41c-7.6,0-19-4.6-19-7
	c0-1.4,3.2-3.4,6-4.5V30c0,0.3,0.1,0.6,0.4,0.8C9.6,31,15.1,35,28,35c3.8,0,6.9-0.4,9.5-0.9C33.4,37,26.8,41,22,41z M45,29.5
	c-0.8,0.5-2.7,1.5-6,2.3V22c0-7.4-4.1-13.8-10.4-17C37.7,5.3,45,12.8,45,22V29.5z"/>
</svg>
