<?xml version="1.0" encoding="utf-8"?>
<!-- Generator: Adobe Illustrator 19.1.0, SVG Export Plug-In . SVG Version: 6.00 Build 0)  -->
<!DOCTYPE svg PUBLIC "-//W3C//DTD SVG 1.1//EN" "http://www.w3.org/Graphics/SVG/1.1/DTD/svg11.dtd">
<svg version="1.1" id="Layer_1" xmlns="http://www.w3.org/2000/svg" xmlns:xlink="http://www.w3.org/1999/xlink" x="0px" y="0px"
	 width="48px" height="48px" viewBox="0 0 48 48" enable-background="new 0 0 48 48" xml:space="preserve">
<path d="M38,5H10C9.4,5,9,5.4,9,6v7.9L3,41.8c-0.1,0.3,0,0.6,0.2,0.8C3.4,42.9,3.7,43,4,43h40c0.3,0,0.6-0.1,0.8-0.4
	c0.2-0.2,0.3-0.5,0.2-0.8l-6-27.9V6C39,5.4,38.6,5,38,5z M19,13V7h10v6H19z M31,7h6v6h-6V7z M11,7h6v6h-6V7z M5.2,41l5.6-26h26.4
	l5.6,26H5.2z"/>
</svg>
