<?xml version="1.0" encoding="utf-8"?>
<!-- Generator: Adobe Illustrator 19.1.0, SVG Export Plug-In . SVG Version: 6.00 Build 0)  -->
<!DOCTYPE svg PUBLIC "-//W3C//DTD SVG 1.1//EN" "http://www.w3.org/Graphics/SVG/1.1/DTD/svg11.dtd">
<svg version="1.1" id="Layer_1" xmlns="http://www.w3.org/2000/svg" xmlns:xlink="http://www.w3.org/1999/xlink" x="0px" y="0px"
	 width="48px" height="48px" viewBox="0 0 48 48" enable-background="new 0 0 48 48" xml:space="preserve">
<path d="M19,29c0,2.8,2.2,5,5,5s5-2.2,5-5c0-1.7-0.9-3.2-2.2-4.1c0.7-0.7,1.2-1.7,1.2-2.9c0-2.2-1.8-4-4-4s-4,1.8-4,4
	c0,1.1,0.5,2.1,1.2,2.9C19.9,25.8,19,27.3,19,29z M22,22c0-1.1,0.9-2,2-2s2,0.9,2,2s-0.9,2-2,2S22,23.1,22,22z M24,26
	c1.7,0,3,1.3,3,3s-1.3,3-3,3s-3-1.3-3-3S22.3,26,24,26z"/>
<path d="M44,47c0.6,0,1-0.4,1-1V18c0-0.2-0.1-0.5-0.2-0.7C41,13.1,39,7.7,39,2c0-0.6-0.4-1-1-1h-6c-0.6,0-1,0.4-1,1c0,3.9-3.1,7-7,7
	s-7-3.1-7-7c0-0.6-0.4-1-1-1h-6C9.4,1,9,1.4,9,2c0,5.7-2,11.1-5.8,15.3C3.1,17.5,3,17.8,3,18v28c0,0.6,0.4,1,1,1H44z M5,45v-3h38v3
	H5z M11,3h4.1c0.5,4.5,4.3,8,8.9,8s8.4-3.5,8.9-8H37c0.2,5.7,2.3,11.1,6,15.4V40H5V18.4C8.7,14.1,10.8,8.7,11,3z"/>
</svg>
