<?xml version="1.0" encoding="utf-8"?>
<!-- Generator: Adobe Illustrator 19.1.0, SVG Export Plug-In . SVG Version: 6.00 Build 0)  -->
<!DOCTYPE svg PUBLIC "-//W3C//DTD SVG 1.1//EN" "http://www.w3.org/Graphics/SVG/1.1/DTD/svg11.dtd">
<svg version="1.1" id="Layer_1" xmlns="http://www.w3.org/2000/svg" xmlns:xlink="http://www.w3.org/1999/xlink" x="0px" y="0px"
	 width="48px" height="48px" viewBox="0 0 48 48" enable-background="new 0 0 48 48" xml:space="preserve">
<path d="M9.3,47h29.4c2.1,0,4.1-0.9,5.4-2.6c1.3-1.6,1.9-3.7,1.5-5.8L41,15.8c-0.1-0.5-0.5-0.8-1-0.8h-7v-5c0-5-4-9-9-9s-9,4-9,9v5
	H8c-0.5,0-0.9,0.3-1,0.8L2.5,38.6c-0.4,2.1,0.1,4.2,1.5,5.8C5.2,46.1,7.2,47,9.3,47z M17,10c0-3.9,3.1-7,7-7s7,3.1,7,7v5H17V10z
	 M4.4,39l4.4-22h30.4l4.4,22c0.3,1.5-0.1,3-1,4.2c-1,1.2-2.4,1.8-3.9,1.8H9.3c-1.5,0-2.9-0.7-3.9-1.8C4.5,42,4.1,40.5,4.4,39z"/>
</svg>
