<?xml version="1.0" encoding="utf-8"?>
<!-- Generator: Adobe Illustrator 19.1.0, SVG Export Plug-In . SVG Version: 6.00 Build 0)  -->
<!DOCTYPE svg PUBLIC "-//W3C//DTD SVG 1.1//EN" "http://www.w3.org/Graphics/SVG/1.1/DTD/svg11.dtd">
<svg version="1.1" id="Layer_1" xmlns="http://www.w3.org/2000/svg" xmlns:xlink="http://www.w3.org/1999/xlink" x="0px" y="0px"
	 width="48px" height="48px" viewBox="0 0 48 48" enable-background="new 0 0 48 48" xml:space="preserve">
<path d="M46.4,7.1l-8-4C38.3,3,38.2,3,38,3h-6c-0.6,0-1,0.4-1,1c0,3.9-3.1,7-7,7s-7-3.1-7-7c0-0.6-0.4-1-1-1h-6C9.8,3,9.7,3,9.6,3.1
	l-8,4C1.2,7.3,1,7.6,1,8v12c0,0.6,0.4,1,1,1h7v23c0,0.6,0.4,1,1,1h28c0.6,0,1-0.4,1-1V21h7c0.6,0,1-0.4,1-1V8
	C47,7.6,46.8,7.3,46.4,7.1z M45,19h-7c-0.6,0-1,0.4-1,1v23H11V20c0-0.6-0.4-1-1-1H3V8.6L10.2,5h4.8c0.5,4.5,4.3,8,8.9,8
	s8.4-3.5,8.9-8h4.8L45,8.6V19z"/>
</svg>
