<?xml version="1.0" encoding="utf-8"?>
<!-- Generator: Adobe Illustrator 19.1.0, SVG Export Plug-In . SVG Version: 6.00 Build 0)  -->
<!DOCTYPE svg PUBLIC "-//W3C//DTD SVG 1.1//EN" "http://www.w3.org/Graphics/SVG/1.1/DTD/svg11.dtd">
<svg version="1.1" id="Layer_1" xmlns="http://www.w3.org/2000/svg" xmlns:xlink="http://www.w3.org/1999/xlink" x="0px" y="0px"
	 width="48px" height="48px" viewBox="0 0 48 48" enable-background="new 0 0 48 48" xml:space="preserve">
<path d="M24,20c-0.6,0-1,0.4-1,1v1c0,0.6,0.4,1,1,1s1-0.4,1-1v-1C25,20.4,24.6,20,24,20z"/>
<path d="M24,26c-0.6,0-1,0.4-1,1v1c0,0.6,0.4,1,1,1s1-0.4,1-1v-1C25,26.4,24.6,26,24,26z"/>
<path d="M24,32c-0.6,0-1,0.4-1,1v1c0,0.6,0.4,1,1,1s1-0.4,1-1v-1C25,32.4,24.6,32,24,32z"/>
<path d="M24,38c-0.6,0-1,0.4-1,1v1c0,0.6,0.4,1,1,1s1-0.4,1-1v-1C25,38.4,24.6,38,24,38z"/>
<path d="M30,25c-0.6,0-1,0.4-1,1v8c0,0.4,0.2,0.7,0.5,0.9l5,3C34.6,38,34.8,38,35,38s0.4,0,0.5-0.1l5-3c0.3-0.2,0.5-0.5,0.5-0.9v-8
	c0-0.6-0.4-1-1-1H30z M39,33.4l-4,2.4l-4-2.4V27h8V33.4z"/>
<path d="M46,7h-9V2c0-0.1,0-0.1,0-0.2c0,0,0,0,0,0c0,0,0,0,0,0v0c0,0,0-0.1,0-0.1c0,0,0,0,0,0c0,0,0,0,0,0c0,0,0,0,0,0c0,0,0,0,0,0
	c0-0.1,0-0.1-0.1-0.1v0c0,0,0,0,0,0c0,0,0,0,0,0c0-0.1-0.1-0.1-0.1-0.2c-0.1-0.1-0.2-0.2-0.3-0.2C36.3,1,36.2,1,36,1c0,0,0,0,0,0H12
	c0,0,0,0,0,0c-0.1,0-0.3,0-0.4,0.1c-0.1,0.1-0.2,0.1-0.3,0.2c0,0.1-0.1,0.1-0.1,0.2c0,0,0,0,0,0c0,0,0,0,0,0v0c0,0,0,0.1-0.1,0.1
	c0,0,0,0,0,0c0,0,0,0,0,0s0,0,0,0c0,0,0,0,0,0c0,0,0,0.1,0,0.1v0c0,0,0,0,0,0c0,0,0,0,0,0c0,0.1,0,0.1,0,0.2v5H2C1.4,7,1,7.4,1,8v38
	c0,0.6,0.4,1,1,1h44c0.6,0,1-0.4,1-1V8C47,7.4,46.6,7,46,7z M35,18.1l-9.3-6.2L35,4.1V18.1z M33.2,3L24,10.7L14.8,3H33.2z M13,4.1
	l9.3,7.8L13,18.1V4.1z M45,45H3V9h8v11c0,0.4,0.2,0.7,0.5,0.9c0.3,0.2,0.7,0.2,1,0L24,13.2l11.4,7.6c0.2,0.1,0.4,0.2,0.6,0.2
	c0.2,0,0.3,0,0.5-0.1c0.3-0.2,0.5-0.5,0.5-0.9V9h8V45z"/>
</svg>
