<?xml version="1.0" encoding="utf-8"?>
<!-- Generator: Adobe Illustrator 19.1.0, SVG Export Plug-In . SVG Version: 6.00 Build 0)  -->
<!DOCTYPE svg PUBLIC "-//W3C//DTD SVG 1.1//EN" "http://www.w3.org/Graphics/SVG/1.1/DTD/svg11.dtd">
<svg version="1.1" id="Layer_1" xmlns="http://www.w3.org/2000/svg" xmlns:xlink="http://www.w3.org/1999/xlink" x="0px" y="0px"
	 width="48px" height="48px" viewBox="0 0 48 48" enable-background="new 0 0 48 48" xml:space="preserve">
<path d="M46,7h-3c-0.6,0-1,0.4-1,1v11.3c-10.1,1.4-15.9,8.1-18,10.9c-2.1-2.8-7.9-9.5-18-10.9V8c0-0.6-0.4-1-1-1H2C1.4,7,1,7.4,1,8
	v12v10c0,6.1,4.9,11,11,11h24c6.1,0,11-4.9,11-11V20V8C47,7.4,46.6,7,46,7z M44,9h1v10c-0.3,0-0.7,0-1,0V9z M4,9v10.1
	c-0.3,0-0.7,0-1,0V9H4z M45,30c0,5-4,9-9,9H12c-5,0-9-4-9-9v-9c13.5,0.5,20.1,11.4,20.1,11.5c0.4,0.6,1.4,0.6,1.7,0
	c0.1-0.1,6.6-11,20.1-11.5V30z"/>
</svg>
