<?xml version="1.0" encoding="utf-8"?>
<!-- Generator: Adobe Illustrator 19.1.0, SVG Export Plug-In . SVG Version: 6.00 Build 0)  -->
<!DOCTYPE svg PUBLIC "-//W3C//DTD SVG 1.1//EN" "http://www.w3.org/Graphics/SVG/1.1/DTD/svg11.dtd">
<svg version="1.1" id="Layer_1" xmlns="http://www.w3.org/2000/svg" xmlns:xlink="http://www.w3.org/1999/xlink" x="0px" y="0px"
	 width="48px" height="48px" viewBox="0 0 48 48" enable-background="new 0 0 48 48" xml:space="preserve">
<path d="M4,47h6c0.6,0,1-0.4,1-1V35.2c1.5,0.5,3.1,2.1,4.9,3.8c3.8,3.6,8.5,8,16.1,8h12c0.6,0,1-0.4,1-1v-3.3c0-3.2-2.2-6-5.3-6.8
	l-3.2-0.8L25,23.6V2c0-0.6-0.4-1-1-1H4C3.4,1,3,1.4,3,2v44C3,46.6,3.4,47,4,47z M5,3h18v21c0,0.3,0.1,0.5,0.3,0.7l12,12
	c0.1,0.1,0.3,0.2,0.5,0.3l3.5,0.9c2.2,0.6,3.8,2.6,3.8,4.9V45H32c-6.8,0-11.2-4.2-14.7-7.5C14.8,35.1,12.6,33,10,33
	c-0.6,0-1,0.4-1,1v11H5V3z"/>
</svg>
