<?xml version="1.0" encoding="utf-8"?>
<!-- Generator: Adobe Illustrator 19.1.0, SVG Export Plug-In . SVG Version: 6.00 Build 0)  -->
<!DOCTYPE svg PUBLIC "-//W3C//DTD SVG 1.1//EN" "http://www.w3.org/Graphics/SVG/1.1/DTD/svg11.dtd">
<svg version="1.1" id="Layer_1" xmlns="http://www.w3.org/2000/svg" xmlns:xlink="http://www.w3.org/1999/xlink" x="0px" y="0px"
	 width="48px" height="48px" viewBox="0 0 48 48" enable-background="new 0 0 48 48" xml:space="preserve">
<path d="M24,47c9.9,0,18-8.1,18-18c0-9.2-7-16.8-15.9-17.9l4.7-5.5c0.3-0.3,0.3-0.8,0.1-1.2l-2-3C28.6,1.2,28.3,1,28,1h-8
	c-0.3,0-0.6,0.2-0.8,0.4l-2,3c-0.2,0.4-0.2,0.9,0.1,1.2l4.7,5.5C13,12.2,6,19.8,6,29C6,38.9,14.1,47,24,47z M20.5,3h6.9l1.3,1.9
	L24,10.5l-4.7-5.5L20.5,3z M24,13c8.8,0,16,7.2,16,16s-7.2,16-16,16S8,37.8,8,29S15.2,13,24,13z"/>
<path d="M24,42c7.2,0,13-5.8,13-13s-5.8-13-13-13s-13,5.8-13,13S16.8,42,24,42z M24,18c6.1,0,11,4.9,11,11s-4.9,11-11,11
	s-11-4.9-11-11S17.9,18,24,18z"/>
</svg>
