<?xml version="1.0" encoding="utf-8"?>
<!-- Generator: Adobe Illustrator 19.1.0, SVG Export Plug-In . SVG Version: 6.00 Build 0)  -->
<!DOCTYPE svg PUBLIC "-//W3C//DTD SVG 1.1//EN" "http://www.w3.org/Graphics/SVG/1.1/DTD/svg11.dtd">
<svg version="1.1" id="Layer_1" xmlns="http://www.w3.org/2000/svg" xmlns:xlink="http://www.w3.org/1999/xlink" x="0px" y="0px"
	 width="48px" height="48px" viewBox="0 0 48 48" enable-background="new 0 0 48 48" xml:space="preserve">
<path d="M38.9,5.7C38.8,5.3,38.4,5,38,5h-6c-0.6,0-1,0.4-1,1s0.4,1,1,1h5.3l7.3,20H27h-6H3.4l7.3-20H16c0.6,0,1-0.4,1-1s-0.4-1-1-1
	h-6C9.6,5,9.2,5.3,9.1,5.7l-8,22C1,27.7,1,27.9,1,28c0,0,0,0,0,0v0c0,0,0,0,0,0v10c0,2.8,2.2,5,5,5h11c2.8,0,5-2.2,5-5v-9h4v9
	c0,2.8,2.2,5,5,5h11c2.8,0,5-2.2,5-5V28c0,0,0,0,0,0v0c0,0,0,0,0,0c0-0.1,0-0.2-0.1-0.4L38.9,5.7z M20,38c0,1.7-1.3,3-3,3H6
	c-1.7,0-3-1.3-3-3v-9h17V38z M45,38c0,1.7-1.3,3-3,3H31c-1.7,0-3-1.3-3-3v-9h17V38z"/>
</svg>
