<?xml version="1.0" encoding="utf-8"?>
<!-- Generator: Adobe Illustrator 19.1.0, SVG Export Plug-In . SVG Version: 6.00 Build 0)  -->
<!DOCTYPE svg PUBLIC "-//W3C//DTD SVG 1.1//EN" "http://www.w3.org/Graphics/SVG/1.1/DTD/svg11.dtd">
<svg version="1.1" id="Layer_1" xmlns="http://www.w3.org/2000/svg" xmlns:xlink="http://www.w3.org/1999/xlink" x="0px" y="0px"
	 width="48px" height="48px" viewBox="0 0 48 48" enable-background="new 0 0 48 48" xml:space="preserve">
<path d="M8,47h32c2.8,0,5-2.2,5-5v-4c0-5-4-9-9-9H25V2c0-0.6-0.4-1-1-1H4C3.4,1,3,1.4,3,2v40C3,44.8,5.2,47,8,47z M40,45H8
	c-1.7,0-3-1.3-3-3h38C43,43.7,41.7,45,40,45z M23,3v3h-3c-0.6,0-1,0.4-1,1s0.4,1,1,1h3v4h-3c-0.6,0-1,0.4-1,1s0.4,1,1,1h3v4h-3
	c-0.6,0-1,0.4-1,1s0.4,1,1,1h3v4h-3c-0.6,0-1,0.4-1,1s0.4,1,1,1h3v4c0,0.6,0.4,1,1,1h12c3.9,0,7,3.1,7,7v2H5V3H23z"/>
</svg>
