<?xml version="1.0" encoding="utf-8"?>
<!-- Generator: Adobe Illustrator 19.1.0, SVG Export Plug-In . SVG Version: 6.00 Build 0)  -->
<!DOCTYPE svg PUBLIC "-//W3C//DTD SVG 1.1//EN" "http://www.w3.org/Graphics/SVG/1.1/DTD/svg11.dtd">
<svg version="1.1" id="Layer_1" xmlns="http://www.w3.org/2000/svg" xmlns:xlink="http://www.w3.org/1999/xlink" x="0px" y="0px"
	 width="48px" height="48px" viewBox="0 0 48 48" enable-background="new 0 0 48 48" xml:space="preserve">
<path d="M24,1C11.3,1,1,11.3,1,24s10.3,23,23,23s23-10.3,23-23S36.7,1,24,1z M24,45C12.4,45,3,35.6,3,24S12.4,3,24,3s21,9.4,21,21
	S35.6,45,24,45z"/>
<path d="M17,13c-2.2,0-4,1.8-4,4s1.8,4,4,4s4-1.8,4-4S19.2,13,17,13z M17,19c-1.1,0-2-0.9-2-2s0.9-2,2-2s2,0.9,2,2S18.1,19,17,19z"
	/>
<path d="M31,13c-2.2,0-4,1.8-4,4s1.8,4,4,4s4-1.8,4-4S33.2,13,31,13z M31,19c-1.1,0-2-0.9-2-2s0.9-2,2-2s2,0.9,2,2S32.1,19,31,19z"
	/>
<path d="M17,27c-2.2,0-4,1.8-4,4s1.8,4,4,4s4-1.8,4-4S19.2,27,17,27z M17,33c-1.1,0-2-0.9-2-2s0.9-2,2-2s2,0.9,2,2S18.1,33,17,33z"
	/>
<path d="M31,27c-2.2,0-4,1.8-4,4s1.8,4,4,4s4-1.8,4-4S33.2,27,31,27z M31,33c-1.1,0-2-0.9-2-2s0.9-2,2-2s2,0.9,2,2S32.1,33,31,33z"
	/>
</svg>
