<?xml version="1.0" encoding="utf-8"?>
<!-- Generator: Adobe Illustrator 19.1.0, SVG Export Plug-In . SVG Version: 6.00 Build 0)  -->
<!DOCTYPE svg PUBLIC "-//W3C//DTD SVG 1.1//EN" "http://www.w3.org/Graphics/SVG/1.1/DTD/svg11.dtd">
<svg version="1.1" id="Layer_1" xmlns="http://www.w3.org/2000/svg" xmlns:xlink="http://www.w3.org/1999/xlink" x="0px" y="0px"
	 width="48px" height="48px" viewBox="0 0 48 48" enable-background="new 0 0 48 48" xml:space="preserve">
<path d="M17,27h1c0.6,0,1-0.4,1-1s-0.4-1-1-1h-1c-0.6,0-1,0.4-1,1S16.4,27,17,27z"/>
<path d="M18,32h-1c-0.6,0-1,0.4-1,1s0.4,1,1,1h1c0.6,0,1-0.4,1-1S18.6,32,18,32z"/>
<path d="M18,39h-1c-0.6,0-1,0.4-1,1s0.4,1,1,1h1c0.6,0,1-0.4,1-1S18.6,39,18,39z"/>
<path d="M46,7h-9V2c0-0.1,0-0.1,0-0.2c0,0,0,0,0,0c0,0,0,0,0,0v0c0,0,0-0.1,0-0.1c0,0,0,0,0,0c0,0,0,0,0,0c0,0,0,0,0,0c0,0,0,0,0,0
	c0-0.1,0-0.1-0.1-0.1v0c0,0,0,0,0,0c0-0.1-0.1-0.1-0.1-0.2c-0.1-0.1-0.2-0.2-0.3-0.2C36.3,1,36.2,1,36,1c0,0,0,0,0,0H12c0,0,0,0,0,0
	c-0.1,0-0.3,0-0.4,0.1c-0.1,0.1-0.2,0.1-0.3,0.2c0,0.1-0.1,0.1-0.1,0.2c0,0,0,0,0,0v0c0,0,0,0.1-0.1,0.1c0,0,0,0,0,0c0,0,0,0,0,0
	c0,0,0,0,0,0c0,0,0,0,0,0c0,0,0,0.1,0,0.1v0c0,0,0,0,0,0c0,0,0,0,0,0c0,0.1,0,0.1,0,0.2v5H2C1.4,7,1,7.4,1,8v38c0,0.6,0.4,1,1,1h44
	c0.6,0,1-0.4,1-1V8C47,7.4,46.6,7,46,7z M35,18.1l-9.3-6.2L35,4.1V18.1z M33.2,3L24,10.7L14.8,3H33.2z M13,4.1l9.3,7.8L13,18.1V4.1z
	 M3,9h8v11c0,0.4,0.2,0.7,0.5,0.9c0.3,0.2,0.7,0.2,1,0l10.4-7V45H3V9z M45,45H25V13.9l10.4,7c0.2,0.1,0.4,0.2,0.6,0.2
	c0.2,0,0.3,0,0.5-0.1c0.3-0.2,0.5-0.5,0.5-0.9V9h8V45z"/>
</svg>
