<?xml version="1.0" encoding="utf-8"?>
<!-- Generator: Adobe Illustrator 19.1.0, SVG Export Plug-In . SVG Version: 6.00 Build 0)  -->
<!DOCTYPE svg PUBLIC "-//W3C//DTD SVG 1.1//EN" "http://www.w3.org/Graphics/SVG/1.1/DTD/svg11.dtd">
<svg version="1.1" id="Layer_1" xmlns="http://www.w3.org/2000/svg" xmlns:xlink="http://www.w3.org/1999/xlink" x="0px" y="0px"
	 width="32px" height="32px" viewBox="0 0 32 32" enable-background="new 0 0 32 32" xml:space="preserve">
<path fill="#444444" d="M16,0C7.1777344,0,0,7.1777344,0,16s7.1777344,16,16,16s16-7.1777344,16-16S24.8222656,0,16,0z M16,3
	c5.9138794,0,10.9088135,3.9733276,12.4789429,9.3881836c-2.328186-1.0298462-7.7669678-3.1873169-12.4788818-3.1873169
	c-4.736145,0-10.1766357,2.1660156-12.4788208,3.1867065C5.0916138,6.9730835,10.0863647,3,16,3z M3.2147217,18.2908936
	c5.0294189,1.2578735,8.9464722,5.3012695,10.0111084,10.4039307C8.1226807,27.5800781,4.1394653,23.4614868,3.2147217,18.2908936z
	 M16,19c-1.6568604,0-3-1.3431396-3-3s1.3431396-3,3-3s3,1.3431396,3,3S17.6568604,19,16,19z M18.7741699,28.6948242
	c1.0646362-5.1026611,4.9816895-9.1460571,10.0111084-10.4039307
	C27.8605347,23.4614868,23.8773193,27.5800781,18.7741699,28.6948242z"/>
</svg>
