<?xml version="1.0" encoding="utf-8"?>
<!-- Generator: Adobe Illustrator 19.1.0, SVG Export Plug-In . SVG Version: 6.00 Build 0)  -->
<!DOCTYPE svg PUBLIC "-//W3C//DTD SVG 1.1//EN" "http://www.w3.org/Graphics/SVG/1.1/DTD/svg11.dtd">
<svg version="1.1" id="Layer_1" xmlns="http://www.w3.org/2000/svg" xmlns:xlink="http://www.w3.org/1999/xlink" x="0px" y="0px"
	 width="32px" height="32px" viewBox="0 0 32 32" enable-background="new 0 0 32 32" xml:space="preserve">
<circle fill="#444444" cx="18" cy="5" r="4"/>
<path fill="#444444" d="M26,11H9V8c0-1.1044922-0.8955078-2-2-2S5,6.8955078,5,8v5c0,1.1044922,0.8955078,2,2,2h9v6.6015625
	l-6.0283203-3.3496094c-0.8535156-0.4736328-1.9238281-0.2646484-2.5332031,0.4990234l-4,5
	c-0.6904297,0.8623047-0.5507812,2.1210938,0.3125,2.8105469C4.1191406,26.8564453,4.5605469,27,4.9990234,27
	c0.5859375,0,1.1679688-0.2568359,1.5625-0.7509766l2.9443359-3.6796875l4.5517578,2.5283203
	c1.2519531,0.6972656,2.7382812,0.6757812,3.9707031-0.0498047C19.2626953,24.3222656,20,23.0332031,20,21.6005859V15h4v4
	c0,1.1044922,0.8955078,2,2,2s2-0.8955078,2-2v-6C28,11.8955078,27.1044922,11,26,11z"/>
<rect data-color="color-2" x="10" y="26" fill="#444444" width="2" height="6"/>
<rect data-color="color-2" x="10" fill="#444444" width="2" height="8"/>
</svg>
