<?xml version="1.0" encoding="utf-8"?>
<!-- Generator: Adobe Illustrator 19.1.0, SVG Export Plug-In . SVG Version: 6.00 Build 0)  -->
<!DOCTYPE svg PUBLIC "-//W3C//DTD SVG 1.1//EN" "http://www.w3.org/Graphics/SVG/1.1/DTD/svg11.dtd">
<svg version="1.1" id="Layer_1" xmlns="http://www.w3.org/2000/svg" xmlns:xlink="http://www.w3.org/1999/xlink" x="0px" y="0px"
	 width="32px" height="32px" viewBox="0 0 32 32" enable-background="new 0 0 32 32" xml:space="preserve">
<polygon data-color="color-2" fill="#444444" points="11,29 13,27 16,29 19,27 21,29 22,17 10,17 "/>
<path fill="#444444" d="M31,1H1C0.4477539,1,0,1.4477539,0,2v20c0,0.5522461,0.4477539,1,1,1h7.493042l-0.486145-5.8339233
	C8.0022583,17.1102905,8.0103149,17.055542,8.0103149,17H7c-0.5522461,0-1-0.4477539-1-1s0.4477539-1,1-1h3h12h3
	c0.5522461,0,1,0.4477539,1,1s-0.4477539,1-1,1h-1.0103149c0,0.055542,0.0080566,0.1102905,0.003418,0.1660767L23.506958,23H31
	c0.5522461,0,1-0.4477539,1-1V2C32,1.4477539,31.5522461,1,31,1z"/>
</svg>
