<?xml version="1.0" encoding="utf-8"?>
<!-- Generator: Adobe Illustrator 19.1.0, SVG Export Plug-In . SVG Version: 6.00 Build 0)  -->
<!DOCTYPE svg PUBLIC "-//W3C//DTD SVG 1.1//EN" "http://www.w3.org/Graphics/SVG/1.1/DTD/svg11.dtd">
<svg version="1.1" id="Layer_1" xmlns="http://www.w3.org/2000/svg" xmlns:xlink="http://www.w3.org/1999/xlink" x="0px" y="0px"
	 width="32px" height="32px" viewBox="0 0 32 32" enable-background="new 0 0 32 32" xml:space="preserve">
<path data-color="color-2" fill="#444444" d="M10,11H3c-0.5522461,0-1-0.4477539-1-1s0.4477539-1,1-1h7c0.5522461,0,1,0.4477539,1,1
	S10.5522461,11,10,11z"/>
<path data-color="color-2" fill="#444444" d="M10,23H3c-0.5522461,0-1-0.4477539-1-1s0.4477539-1,1-1h7c0.5522461,0,1,0.4477539,1,1
	S10.5522461,23,10,23z"/>
<path data-color="color-2" fill="#444444" d="M8,17H1c-0.5522461,0-1-0.4477539-1-1s0.4477539-1,1-1h7c0.5522461,0,1,0.4477539,1,1
	S8.5522461,17,8,17z"/>
<path fill="#444444" d="M18.171875,12.171875c1.5876465-1.5881348,2.4308472-3.7901001,2.3208618-6.0476074
	c-2.0975952,0.3157959-4.0357056,1.2766724-5.5635376,2.8049316c-1.5281982,1.527832-2.4890747,3.4660034-2.8049316,5.5635376
	C14.3861084,14.5998535,16.5837402,13.7595215,18.171875,12.171875z"/>
<path fill="#444444" d="M25.828125,19.828125c-1.5876465,1.5881348-2.4308472,3.7901001-2.3208618,6.0476074
	c2.0975952-0.3157959,4.0357056-1.2766724,5.5635376-2.8049316c1.5281982-1.527832,2.4890137-3.4658813,2.8048706-5.5634766
	C29.6162109,17.4016113,27.4162598,18.2404785,25.828125,19.828125z"/>
<path fill="#444444" d="M24.4140625,18.4140625c1.9880981-1.9876099,4.7479248-3.0402222,7.5620728-2.9038696
	c-0.1195679-2.4860229-1.1326294-4.8087158-2.9053345-6.5809937c-1.7722168-1.7727051-4.0949097-2.7857666-6.5809937-2.9053345
	c0.1382446,2.8206177-0.916748,5.5744629-2.9038696,7.5620728c-1.8720703,1.871582-4.4233398,2.918457-7.0703125,2.918457
	c-0.1638794,0-0.3278198-0.005249-0.4916992-0.0131836c0.1199341,2.4856567,1.1328735,4.8076782,2.9052734,6.5795898
	c1.7722168,1.7727051,4.0949097,2.7857666,6.5809937,2.9053345C21.3719482,23.1555176,22.4269409,20.4016724,24.4140625,18.4140625z
	"/>
</svg>
