<?xml version="1.0" encoding="utf-8"?>
<!-- Generator: Adobe Illustrator 19.1.0, SVG Export Plug-In . SVG Version: 6.00 Build 0)  -->
<!DOCTYPE svg PUBLIC "-//W3C//DTD SVG 1.1//EN" "http://www.w3.org/Graphics/SVG/1.1/DTD/svg11.dtd">
<svg version="1.1" id="Layer_1" xmlns="http://www.w3.org/2000/svg" xmlns:xlink="http://www.w3.org/1999/xlink" x="0px" y="0px"
	 width="32px" height="32px" viewBox="0 0 32 32" enable-background="new 0 0 32 32" xml:space="preserve">
<circle data-color="color-2" fill="#444444" cx="26" cy="20.0858917" r="4"/>
<path fill="#444444" d="M20,20.0859375c0-3.3085938,2.6914062-6,6-6c0.9448242,0,1.8358154,0.2255249,2.6316528,0.6161499
	c0.6201782-3.1970825-0.182251-6.4979248-2.5090332-8.824707c-3.9052124-3.9052734-10.5534668-3.5886841-14.8492432,0.7070923
	c-3.5656128,3.5656128-4.3798218,8.7474365-2.3237915,12.640686l-4.9886475,3.6583862
	c-0.9885254,0.7248535-1.0982666,2.1602783-0.2315063,3.0270386l2.3599854,2.3599854
	c0.8667603,0.8667603,2.302124,0.756958,3.0270386-0.2315063l3.6583862-4.9887085
	c2.4856567,1.3127441,5.4996338,1.428772,8.2825928,0.4299316C20.3917847,22.5140991,20,21.345459,20,20.0859375z"/>
</svg>
