<?xml version="1.0" encoding="utf-8"?>
<!-- Generator: Adobe Illustrator 19.1.0, SVG Export Plug-In . SVG Version: 6.00 Build 0)  -->
<!DOCTYPE svg PUBLIC "-//W3C//DTD SVG 1.1//EN" "http://www.w3.org/Graphics/SVG/1.1/DTD/svg11.dtd">
<svg version="1.1" id="Layer_1" xmlns="http://www.w3.org/2000/svg" xmlns:xlink="http://www.w3.org/1999/xlink" x="0px" y="0px"
	 width="32px" height="32px" viewBox="0 0 32 32" enable-background="new 0 0 32 32" xml:space="preserve">
<circle fill="#444444" cx="16" cy="5" r="4"/>
<path fill="#444444" d="M6.4042969,18.4140625c0.6074219,0.6074219,1.5371094,0.7597656,2.3085938,0.375L14,16.1455078V23H7
	c-1.1044922,0-2,0.8955078-2,2s0.8955078,2,2,2h18c1.1044922,0,2-0.8955078,2-2s-0.8955078-2-2-2h-7v-6.8544922l5.2871094,2.6435547
	C23.5712891,18.9306641,23.8769531,19,24.1806641,19c0.5195312,0,1.03125-0.2021484,1.4150391-0.5859375l4.0908203-4.0908203
	c0.78125-0.78125,0.78125-2.046875,0-2.828125s-2.046875-0.78125-2.828125,0l-3.0712891,3.0712891l-6.2851562-3.1425781
	c-0.8859501-0.4424906-2.111558-0.442996-3.0058594,0.0009766l-6.2832031,3.1416016l-3.0712891-3.0712891
	c-0.78125-0.78125-2.046875-0.78125-2.828125,0s-0.78125,2.046875,0,2.828125L6.4042969,18.4140625z"/>
<path data-color="color-2" fill="#444444" d="M31,29H1c-0.5527344,0-1,0.4472656-1,1s0.4472656,1,1,1h30c0.5527344,0,1-0.4472656,1-1
	S31.5527344,29,31,29z"/>
</svg>
