<?xml version="1.0" encoding="utf-8"?>
<!-- Generator: Adobe Illustrator 19.1.0, SVG Export Plug-In . SVG Version: 6.00 Build 0)  -->
<!DOCTYPE svg PUBLIC "-//W3C//DTD SVG 1.1//EN" "http://www.w3.org/Graphics/SVG/1.1/DTD/svg11.dtd">
<svg version="1.1" id="Layer_1" xmlns="http://www.w3.org/2000/svg" xmlns:xlink="http://www.w3.org/1999/xlink" x="0px" y="0px"
	 width="32px" height="32px" viewBox="0 0 32 32" enable-background="new 0 0 32 32" xml:space="preserve">
<path data-color="color-2" fill="#444444" d="M28,26H9c-0.5527344,0-1,0.4477539-1,1v4c0,0.5522461,0.4472656,1,1,1h19
	c0.5527344,0,1-0.4477539,1-1v-4C29,26.4477539,28.5527344,26,28,26z"/>
<path fill="#444444" d="M11.5,9c2.3102417,0,4.1970215,1.7561646,4.4494629,4H25c2.2060547,0,4-1.7944336,4-4V7V6
	c0-3.3085938-2.6914062-6-6-6H12C9.2431641,0,7,2.2431641,7,5v4H11.5z"/>
<path fill="#444444" d="M25,15h-9.2764282C15.102356,16.7421875,13.4529419,18,11.5,18H10c-0.5527344,0-1-0.4477539-1-1
	s0.4472656-1,1-1h1.5c1.3789062,0,2.5-1.121582,2.5-2.5S12.8789062,11,11.5,11H7c-2.375,0-4,2.5854492-4,5v1
	c0,4.828125,3.5087891,7,6,7h19c0.5527344,0,1-0.4477539,1-1v-9.5404663C27.9371948,14.4138184,26.5375366,15,25,15z"/>
</svg>
