<?xml version="1.0" encoding="utf-8"?>
<!-- Generator: Adobe Illustrator 19.1.0, SVG Export Plug-In . SVG Version: 6.00 Build 0)  -->
<!DOCTYPE svg PUBLIC "-//W3C//DTD SVG 1.1//EN" "http://www.w3.org/Graphics/SVG/1.1/DTD/svg11.dtd">
<svg version="1.1" id="Layer_1" xmlns="http://www.w3.org/2000/svg" xmlns:xlink="http://www.w3.org/1999/xlink" x="0px" y="0px"
	 width="32px" height="32px" viewBox="0 0 32 32" enable-background="new 0 0 32 32" xml:space="preserve">
<path data-color="color-2" fill="#444444" d="M2.6983845,29.3016205l-0.0000057-0.0000057
	c-1.5978384-1.5978374-1.5978384-4.188446,0-5.7862835l1.9287665-1.9287663l5.7862897,5.7862892l-1.9287663,1.9287663
	C6.8868308,30.8994598,4.2962227,30.8994598,2.6983845,29.3016205z"/>
<path fill="#444444" d="M29.7010498,13.871521c-1.0651855-1.0652466-2.7922363-1.0653076-3.8574829,0
	c1.0652466-1.0653076,1.0651855-2.7923584,0-3.8575439c-1.0652466-1.0652466-2.7922974-1.0653076-3.8575439,0
	c1.0652466-1.0653076,1.0651855-2.7922974,0-3.8575439c-1.0652466-1.0651855-2.7922363-1.0652466-3.8575439,0
	c1.0653076-1.0652466,1.0652466-2.7922974,0-3.8575439c-1.0651855-1.0651855-2.7922363-1.0652466-3.8575439,0
	c-0.3039551,0.3039551-0.5110474,0.6642456-0.6414795,1.0452271L5.5614624,19.6931763l6.7458496,6.7451172l16.3485718-8.067749
	c0.3809204-0.1304321,0.7412109-0.3375854,1.045166-0.6415405C30.7663574,16.6637573,30.7662964,14.9367065,29.7010498,13.871521z"
	/>
</svg>
