<?xml version="1.0" encoding="utf-8"?>
<!-- Generator: Adobe Illustrator 19.1.0, SVG Export Plug-In . SVG Version: 6.00 Build 0)  -->
<!DOCTYPE svg PUBLIC "-//W3C//DTD SVG 1.1//EN" "http://www.w3.org/Graphics/SVG/1.1/DTD/svg11.dtd">
<svg version="1.1" id="Layer_1" xmlns="http://www.w3.org/2000/svg" xmlns:xlink="http://www.w3.org/1999/xlink" x="0px" y="0px"
	 width="32px" height="32px" viewBox="0 0 32 32" enable-background="new 0 0 32 32" xml:space="preserve">
<path data-color="color-2" fill="#444444" d="M23.5,15c2.7329102,0,5.5-1.0302734,5.5-3v-2c0-3.9394531-11-3.9394531-11,0v2
	C18,13.9697266,20.7670898,15,23.5,15z"/>
<path fill="#444444" d="M28.4118042,20.7963257L18,24L6.3442383,3.8347778
	c-0.7050171-1.2196655-2.2600708-1.6452026-3.487915-0.9544067c-1.2495728,0.703125-1.6829834,2.2922363-0.9633179,3.5323486
	L14.421936,28.0037842C14.7797852,28.6204224,15.4387817,29,16.1517944,29H29c1.1045532,0,2-0.8954468,2-2v-4.2921143
	C31,21.3623047,29.697937,20.4006348,28.4118042,20.7963257z"/>
</svg>
