<?xml version="1.0" encoding="utf-8"?>
<!-- Generator: Adobe Illustrator 19.1.0, SVG Export Plug-In . SVG Version: 6.00 Build 0)  -->
<!DOCTYPE svg PUBLIC "-//W3C//DTD SVG 1.1//EN" "http://www.w3.org/Graphics/SVG/1.1/DTD/svg11.dtd">
<svg version="1.1" id="Layer_1" xmlns="http://www.w3.org/2000/svg" xmlns:xlink="http://www.w3.org/1999/xlink" x="0px" y="0px"
	 width="32px" height="32px" viewBox="0 0 32 32" enable-background="new 0 0 32 32" xml:space="preserve">
<path fill="#444444" d="M29.2324219,2.7675781c-3.0458984-3.0458984-8.0009766-3.0449219-11.0429688,0
	c-1.4658203,1.4648438-2.8076172,3.3886719-3.9912109,5.0849609c-0.9882812,1.4160156-1.921875,2.7539062-2.7490234,3.5810547
	C10.625,12.2568359,9.3017578,13.1796875,7.9003906,14.15625c-1.6992188,1.1835938-3.6259766,2.5263672-5.1171875,4.0175781
	c-3.0449219,3.0449219-3.0449219,7.9980469,0,11.0429688C4.3056641,30.7392578,6.3046875,31.5,8.3046875,31.5
	s3.9990234-0.7607422,5.5214844-2.2832031c1.4912109-1.4912109,2.8339844-3.4179688,4.0175781-5.1171875
	c0.9765625-1.4013672,1.8994141-2.7246094,2.7226562-3.5488281c0.8271484-0.8271484,2.1650391-1.7607422,3.5810547-2.7490234
	c1.6962891-1.1835938,3.6201172-2.5253906,5.0849609-3.9912109C32.2763672,10.7666016,32.2763672,5.8125,29.2324219,2.7675781z"/>
</svg>
