<?xml version="1.0" encoding="utf-8"?>
<!-- Generator: Adobe Illustrator 19.1.0, SVG Export Plug-In . SVG Version: 6.00 Build 0)  -->
<!DOCTYPE svg PUBLIC "-//W3C//DTD SVG 1.1//EN" "http://www.w3.org/Graphics/SVG/1.1/DTD/svg11.dtd">
<svg version="1.1" id="Layer_1" xmlns="http://www.w3.org/2000/svg" xmlns:xlink="http://www.w3.org/1999/xlink" x="0px" y="0px"
	 width="32px" height="32px" viewBox="0 0 32 32" enable-background="new 0 0 32 32" xml:space="preserve">
<path fill="#444444" d="M32,23V2h-1c-2.2060547,0-4,1.7939453-4,4c0,1.4677734,0.8028564,2.7392578,1.9841309,3.4351807
	l-5.9382324,5.1966553l-5.1380005-5.1380005C19.1478882,8.8137207,20,7.5115967,20,6c0-2.2060547-1.7939453-4-4-4s-4,1.7939453-4,4
	c0,1.5115967,0.8521118,2.8137207,2.0921021,3.4938354l-5.1380005,5.1380005L3.0158691,9.4351807
	C4.1971436,8.7392578,5,7.4677734,5,6c0-2.2060547-1.7939453-4-4-4H0v21H32z"/>
<path data-color="color-2" fill="#444444" d="M0,25v3c0,1.1045704,0.8954305,2,2,2h28c1.1045704,0,2-0.8954296,2-2v-3H0z"/>
</svg>
