<?xml version="1.0" encoding="utf-8"?>
<!-- Generator: Adobe Illustrator 19.1.0, SVG Export Plug-In . SVG Version: 6.00 Build 0)  -->
<!DOCTYPE svg PUBLIC "-//W3C//DTD SVG 1.1//EN" "http://www.w3.org/Graphics/SVG/1.1/DTD/svg11.dtd">
<svg version="1.1" id="Layer_1" xmlns="http://www.w3.org/2000/svg" xmlns:xlink="http://www.w3.org/1999/xlink" x="0px" y="0px"
	 width="32px" height="32px" viewBox="0 0 32 32" enable-background="new 0 0 32 32" xml:space="preserve">
<path data-color="color-2" fill="#444444" d="M4.5,25.2763672C7.0146484,22.8085938,8.3999023,19.5136719,8.3999023,16
	c0-3.5141602-1.3852539-6.8085938-3.8999023-9.2758789c-0.0557251-0.0546265-0.0857544-0.1226196-0.1259766-0.18573
	C2.2677002,9.1217041,1,12.4146729,1,16c0,3.5856323,1.2677612,6.8786621,3.3741455,9.4619751
	C4.4143066,25.3989258,4.4443359,25.3309326,4.5,25.2763672z"/>
<path data-color="color-2" fill="#444444" d="M27.6259766,6.5383911C27.5857544,6.6015015,27.5557251,6.6694946,27.5,6.7241211
	C24.9853516,9.1914062,23.6000977,12.4858398,23.6000977,16c0,3.5136719,1.3852539,6.8085938,3.8999023,9.2763672
	c0.0556641,0.0545654,0.0856934,0.1225586,0.1258545,0.1856079C29.7322388,22.8786621,31,19.5856323,31,16
	C31,12.4146729,29.7322998,9.1217041,27.6259766,6.5383911z"/>
<path fill="#444444" d="M26.0996094,26.7041016C23.1977539,23.8564453,21.6000977,20.0556641,21.6000977,16
	s1.5981445-7.8569336,4.4995117-10.7036133c0.0671997-0.06604,0.1483765-0.1047363,0.2271729-0.1478882
	C23.6343384,2.585144,20.0021973,1,16,1S8.3656616,2.585144,5.6732178,5.1484985
	c0.0787964,0.0431519,0.1599731,0.0818481,0.2271729,0.1478882C8.8017578,8.1430664,10.3999023,11.9443359,10.3999023,16
	s-1.5976562,7.8564453-4.4995117,10.7041016c-0.0670776,0.0657349-0.1478882,0.1049194-0.2265625,0.1480713
	C8.3662109,29.4152222,11.9981079,31,16,31s7.6337891-1.5847778,10.3261719-4.1478271
	C26.2474976,26.809021,26.166687,26.7698364,26.0996094,26.7041016z"/>
</svg>
