<?xml version="1.0" encoding="utf-8"?>
<!-- Generator: Adobe Illustrator 19.1.0, SVG Export Plug-In . SVG Version: 6.00 Build 0)  -->
<!DOCTYPE svg PUBLIC "-//W3C//DTD SVG 1.1//EN" "http://www.w3.org/Graphics/SVG/1.1/DTD/svg11.dtd">
<svg version="1.1" id="Layer_1" xmlns="http://www.w3.org/2000/svg" xmlns:xlink="http://www.w3.org/1999/xlink" x="0px" y="0px"
	 width="32px" height="32px" viewBox="0 0 32 32" enable-background="new 0 0 32 32" xml:space="preserve">
<path fill="#444444" d="M31.9960938,14.5463867C31.2597656,6.3896484,24.2333984,0,16,0C7.4765625,0,0,7.0092773,0,15
	c0,0.5522461,0.4477539,1,1,1h7.0009155c-0.0007935,1.729248-0.0409546,3.9432983-0.4852905,6H1c-0.5522461,0-1,0.4477539-1,1v6
	c0,0.5522461,0.4477539,1,1,1c2.3984375,0,4.3574219-0.7441406,5.8222656-2.2119141
	C7.8686523,26.7392578,8.5712891,25.4204102,9.0429688,24H15v1c0,3.8598633,3.1401367,7,7,7s7-3.1401367,7-7v-1
	c0-1.0517578,0.6191406-1.8754883,1.3359375-2.8295898C31.1157227,20.1318359,32,18.9550781,32,17.3637695L31.9960938,14.5463867z
	 M5.4067383,26.3754883C4.5180664,27.265625,3.3974609,27.7832031,2,27.9448242V24h4.9145508
	C6.5483398,24.9047852,6.059082,25.7211914,5.4067383,26.3754883z M15,22H9.5566406
	c0.4064941-2.119751,0.4436646-4.2838745,0.4443359-6H13c1.1030273,0,2,0.8969727,2,2V22z M22,27c-1.1045532,0-2-0.8954468-2-2
	c0-1.1046143,0.8954468-2,2-2s2,0.8953857,2,2C24,26.1045532,23.1045532,27,22,27z"/>
</svg>
