<?xml version="1.0" encoding="utf-8"?>
<!-- Generator: Adobe Illustrator 19.1.0, SVG Export Plug-In . SVG Version: 6.00 Build 0)  -->
<!DOCTYPE svg PUBLIC "-//W3C//DTD SVG 1.1//EN" "http://www.w3.org/Graphics/SVG/1.1/DTD/svg11.dtd">
<svg version="1.1" id="Layer_1" xmlns="http://www.w3.org/2000/svg" xmlns:xlink="http://www.w3.org/1999/xlink" x="0px" y="0px"
	 width="32px" height="32px" viewBox="0 0 32 32" enable-background="new 0 0 32 32" xml:space="preserve">
<path fill="#444444" d="M24,6c-1.1045532,0-2,0.8953857-2,2v6H10V8c0-1.1046143-0.8954468-2-2-2S6,6.8953857,6,8v16
	c0,1.1045532,0.8954468,2,2,2s2-0.8954468,2-2v-6h12v6c0,1.1045532,0.8954468,2,2,2s2-0.8954468,2-2V8
	C26,6.8953857,25.1045532,6,24,6z"/>
<path data-color="color-2" fill="#444444" d="M3,9c-0.5522461,0-1,0.4477539-1,1v5H1c-0.5522461,0-1,0.4477539-1,1s0.4477539,1,1,1h1v5
	c0,0.5522461,0.4477539,1,1,1s1-0.4477539,1-1V10C4,9.4477539,3.5522461,9,3,9z"/>
<path data-color="color-2" fill="#444444" d="M31,15h-1v-5c0-0.5522461-0.4477539-1-1-1s-1,0.4477539-1,1v12c0,0.5522461,0.4477539,1,1,1
	s1-0.4477539,1-1v-5h1c0.5522461,0,1-0.4477539,1-1S31.5522461,15,31,15z"/>
</svg>
