<?xml version="1.0" encoding="utf-8"?>
<!-- Generator: Adobe Illustrator 19.1.0, SVG Export Plug-In . SVG Version: 6.00 Build 0)  -->
<!DOCTYPE svg PUBLIC "-//W3C//DTD SVG 1.1//EN" "http://www.w3.org/Graphics/SVG/1.1/DTD/svg11.dtd">
<svg version="1.1" id="Layer_1" xmlns="http://www.w3.org/2000/svg" xmlns:xlink="http://www.w3.org/1999/xlink" x="0px" y="0px"
	 width="32px" height="32px" viewBox="0 0 32 32" enable-background="new 0 0 32 32" xml:space="preserve">
<path fill="#444444" d="M31.2373047,0.7626953c-0.390625-0.390625-1.0234375-0.390625-1.4140625,0l-7.1316528,7.1316528
	c-1.3849487-0.7653198-3.1610107-0.5772705-4.3341675,0.5958862c-0.996582,0.996582-4.4193115,7.1154785-5.5447388,9.1499634
	l-9.1456909,1.5765991c-1.5107422,0.2607422-2.671875,1.3486328-3.0292969,2.8388672
	c-0.3583984,1.4902344,0.1806641,2.9863281,1.4072266,3.9042969l2.2841797,1.7109375l1.7109375,2.2841797
	c0.9117441,1.2176914,2.4029417,1.7681293,3.9042969,1.4072266c1.4902344-0.3574219,2.578125-1.5185547,2.8388672-3.0292969
	l1.5765991-9.1456909c2.0344849-1.1254272,8.1533813-4.5481567,9.1499634-5.5447388
	c1.1740723-1.1740723,1.3621826-2.9492188,0.5960693-4.3343506l7.1314697-7.1314697
	C31.6279297,1.7861328,31.6279297,1.1533203,31.2373047,0.7626953z"/>
</svg>
