<?xml version="1.0" encoding="utf-8"?>
<!-- Generator: Adobe Illustrator 18.1.1, SVG Export Plug-In . SVG Version: 6.00 Build 0)  -->
<!DOCTYPE svg PUBLIC "-//W3C//DTD SVG 1.1//EN" "http://www.w3.org/Graphics/SVG/1.1/DTD/svg11.dtd">
<svg version="1.1" id="Layer_2" xmlns="http://www.w3.org/2000/svg" xmlns:xlink="http://www.w3.org/1999/xlink" x="0px" y="0px"
	 width="32px" height="32px" viewBox="0 0 32 32" enable-background="new 0 0 32 32" xml:space="preserve">
<path d="M5.6,8.2C2.4,9.1,0,12.1,0,15.5c0,0.2,0,0.4,0,0.6c0,0.5,0.5,0.9,1,0.9h30c0.3,0,0.5-0.1,0.7-0.3s0.3-0.5,0.3-0.8
	c-0.2-2.8-2.3-5.1-5.1-5.8C26,4.9,21.5,1,16,1C11.4,1,7.3,3.9,5.6,8.2z"/>
<path d="M31,20H1c-0.6,0-1,0.4-1,1s0.4,1,1,1h30c0.6,0,1-0.4,1-1S31.6,20,31,20z"/>
<path d="M28,25c0-0.6-0.4-1-1-1H5c-0.6,0-1,0.4-1,1s0.4,1,1,1h22C27.6,26,28,25.6,28,25z"/>
<path d="M24,29c0-0.6-0.4-1-1-1H9c-0.6,0-1,0.4-1,1s0.4,1,1,1h14C23.6,30,24,29.6,24,29z"/>
</svg>
