<?xml version="1.0" encoding="utf-8"?>
<!-- Generator: Adobe Illustrator 18.1.1, SVG Export Plug-In . SVG Version: 6.00 Build 0)  -->
<!DOCTYPE svg PUBLIC "-//W3C//DTD SVG 1.1//EN" "http://www.w3.org/Graphics/SVG/1.1/DTD/svg11.dtd">
<svg version="1.1" id="Layer_2" xmlns="http://www.w3.org/2000/svg" xmlns:xlink="http://www.w3.org/1999/xlink" x="0px" y="0px"
	 width="32px" height="32px" viewBox="0 0 32 32" enable-background="new 0 0 32 32" xml:space="preserve">
<path d="M13.2,1.3C13,1,12.6,0.9,12.2,1C5.6,2.8,1,8.9,1,15.7C1,24.2,7.8,31,16.3,31c6.9,0,12.9-4.6,14.7-11.2c0.1-0.3,0-0.7-0.3-1
	s-0.6-0.4-1-0.3c-1.2,0.3-2.3,0.5-3.5,0.5C18.9,19,13,13.1,13,5.8c0-1.1,0.2-2.3,0.5-3.5C13.6,1.9,13.5,1.5,13.2,1.3z"/>
</svg>
