<?xml version="1.0" encoding="utf-8"?>
<!-- Generator: Adobe Illustrator 18.1.1, SVG Export Plug-In . SVG Version: 6.00 Build 0)  -->
<!DOCTYPE svg PUBLIC "-//W3C//DTD SVG 1.1//EN" "http://www.w3.org/Graphics/SVG/1.1/DTD/svg11.dtd">
<svg version="1.1" id="Layer_2" xmlns="http://www.w3.org/2000/svg" xmlns:xlink="http://www.w3.org/1999/xlink" x="0px" y="0px"
	 width="32px" height="32px" viewBox="0 0 32 32" enable-background="new 0 0 32 32" xml:space="preserve">
<path d="M31,3c0.6,0,1-0.4,1-1s-0.4-1-1-1c-6.5,0-12.2,3.8-14.7,9.7C14.6,9.6,12.6,9,10.5,9C4.7,9,0,13.7,0,19.5S4.7,30,10.5,30
	h13.6c4.3,0,7.8-3.5,7.8-7.8c0-2.8-1.5-5.3-3.7-6.6c0.5-1,1.6-1.7,2.7-1.7c0.6,0,1-0.4,1-1s-0.4-1-1-1c-2,0-3.7,1.1-4.6,2.9
	c-0.7-0.2-1.5-0.3-2.3-0.3c-0.5,0-0.9,0.1-1.4,0.1c1-3.6,4.3-6.1,8.2-6.1c0.6,0,1-0.4,1-1s-0.4-1-1-1c-5.2,0-9.6,3.8-10.4,8.9
	c-0.1,0.1-0.2,0.1-0.3,0.2c-0.5-1.3-1.4-2.5-2.4-3.5C20,6.6,25.2,3,31,3z"/>
</svg>
