<?xml version="1.0" encoding="utf-8"?>
<!-- Generator: Adobe Illustrator 18.1.1, SVG Export Plug-In . SVG Version: 6.00 Build 0)  -->
<!DOCTYPE svg PUBLIC "-//W3C//DTD SVG 1.1//EN" "http://www.w3.org/Graphics/SVG/1.1/DTD/svg11.dtd">
<svg version="1.1" id="Layer_2" xmlns="http://www.w3.org/2000/svg" xmlns:xlink="http://www.w3.org/1999/xlink" x="0px" y="0px"
	 width="32px" height="32px" viewBox="0 0 32 32" enable-background="new 0 0 32 32" xml:space="preserve">
<path d="M3,5c0,2.2,1.8,4,4,4s4-1.8,4-4S9.2,1,7,1S3,2.8,3,5z M7,3c1.1,0,2,0.9,2,2S8.1,7,7,7S5,6.1,5,5S5.9,3,7,3z"/>
<path d="M22,8c1.9,0,3.8,0.5,5.5,1.5c0.5,0.3,1.1,0.1,1.4-0.4C29.1,8.6,29,8,28.5,7.7C26.5,6.6,24.3,6,22,6C14.8,6,9,11.8,9,19
	s5.8,13,13,13c2.2,0,4.4-0.6,6.3-1.6c0.5-0.3,0.7-0.9,0.4-1.4c-0.3-0.5-0.9-0.7-1.4-0.4C25.7,29.5,23.9,30,22,30
	c-6.1,0-11-4.9-11-11S15.9,8,22,8z"/>
</svg>
