<?xml version="1.0" encoding="utf-8"?>
<!-- Generator: Adobe Illustrator 18.1.1, SVG Export Plug-In . SVG Version: 6.00 Build 0)  -->
<!DOCTYPE svg PUBLIC "-//W3C//DTD SVG 1.1//EN" "http://www.w3.org/Graphics/SVG/1.1/DTD/svg11.dtd">
<svg version="1.1" id="Layer_2" xmlns="http://www.w3.org/2000/svg" xmlns:xlink="http://www.w3.org/1999/xlink" x="0px" y="0px"
	 width="32px" height="32px" viewBox="0 0 32 32" enable-background="new 0 0 32 32" xml:space="preserve">
<path d="M26.9,10.1C26,4.9,21.5,1,16,1C11.4,1,7.3,3.9,5.6,8.2C2.4,9.1,0,12.1,0,15.5c0,3.9,3,7.1,7,7.5h8v-1c0-0.6,0.4-1,1-1
	s1,0.4,1,1v1h9c0,0,0.1,0,0.1,0c3.4-0.4,5.9-3.2,5.9-6.5C32,13.4,29.9,10.8,26.9,10.1z M12,20c0,0.6-0.4,1-1,1s-1-0.4-1-1v-1
	c0-0.6,0.4-1,1-1s1,0.4,1,1V20z M22,20c0,0.6-0.4,1-1,1s-1-0.4-1-1v-1c0-0.6,0.4-1,1-1s1,0.4,1,1V20z"/>
<path d="M17,29v-1c0-0.6-0.4-1-1-1s-1,0.4-1,1v1c0,0.6,0.4,1,1,1S17,29.6,17,29z"/>
<path d="M12,26v-1c0-0.6-0.4-1-1-1s-1,0.4-1,1v1c0,0.6,0.4,1,1,1S12,26.6,12,26z"/>
<path d="M22,26v-1c0-0.6-0.4-1-1-1s-1,0.4-1,1v1c0,0.6,0.4,1,1,1S22,26.6,22,26z"/>
</svg>
