<?xml version="1.0" encoding="utf-8"?>
<!-- Generator: Adobe Illustrator 18.1.1, SVG Export Plug-In . SVG Version: 6.00 Build 0)  -->
<!DOCTYPE svg PUBLIC "-//W3C//DTD SVG 1.1//EN" "http://www.w3.org/Graphics/SVG/1.1/DTD/svg11.dtd">
<svg version="1.1" id="Layer_2" xmlns="http://www.w3.org/2000/svg" xmlns:xlink="http://www.w3.org/1999/xlink" x="0px" y="0px"
	 width="32px" height="32px" viewBox="0 0 32 32" enable-background="new 0 0 32 32" xml:space="preserve">
<path d="M0,11c0,0.6,0.4,1,1,1h17.5c2.8,0,5.1-2.3,5.1-5.1s-2.3-5.1-5.1-5.1c-2.2,0-4.1,1.4-4.8,3.4c-0.2,0.5,0.1,1.1,0.6,1.3
	c0.5,0.2,1.1-0.1,1.3-0.6c0.4-1.2,1.6-2.1,2.9-2.1c1.7,0,3.1,1.4,3.1,3.1S20.2,10,18.5,10H1C0.4,10,0,10.4,0,11z"/>
<path d="M10.3,20H1c-0.6,0-1,0.4-1,1s0.4,1,1,1h9.3c1.7,0,3.1,1.4,3.1,3.1s-1.4,3.1-3.1,3.1c-1.3,0-2.5-0.8-2.9-2.1
	c-0.2-0.5-0.8-0.8-1.3-0.6c-0.5,0.2-0.8,0.8-0.6,1.3c0.7,2,2.6,3.4,4.8,3.4c2.8,0,5.1-2.3,5.1-5.1S13.1,20,10.3,20z"/>
<path d="M26.9,15H1c-0.6,0-1,0.4-1,1s0.4,1,1,1h25.9c1.7,0,3.1,1.4,3.1,3.1s-1.4,3.1-3.1,3.1c-1.3,0-2.5-0.8-2.9-2.1
	c-0.2-0.5-0.8-0.8-1.3-0.6c-0.5,0.2-0.8,0.8-0.6,1.3c0.7,2,2.6,3.4,4.8,3.4c2.8,0,5.1-2.3,5.1-5.1S29.7,15,26.9,15z"/>
</svg>
