<?xml version="1.0" encoding="utf-8"?>
<!-- Generator: Adobe Illustrator 18.1.1, SVG Export Plug-In . SVG Version: 6.00 Build 0)  -->
<!DOCTYPE svg PUBLIC "-//W3C//DTD SVG 1.1//EN" "http://www.w3.org/Graphics/SVG/1.1/DTD/svg11.dtd">
<svg version="1.1" id="Layer_2" xmlns="http://www.w3.org/2000/svg" xmlns:xlink="http://www.w3.org/1999/xlink" x="0px" y="0px"
	 width="32px" height="32px" viewBox="0 0 32 32" enable-background="new 0 0 32 32" xml:space="preserve">
<path d="M31,10c0-0.4,0-0.9-0.1-1.4c0-0.3-0.2-0.5-0.4-0.7s-0.5-0.2-0.8-0.1C25.7,8.9,22,5.9,22,2.1c0-0.3-0.1-0.6-0.3-0.7
	c-0.2-0.2-0.5-0.3-0.8-0.2c-3.9,0.5-7,3.4-7.7,7.2c-2.2,0.6-4.1,2-5.2,4c-0.5-0.1-1-0.2-1.5-0.2C2.9,12.1,0,15,0,18.5
	C0,22.1,2.9,25,6.5,25H15v-1c0-0.6,0.4-1,1-1s1,0.4,1,1v1h8.5c3.6,0,6.5-2.9,6.5-6.5c0-1.8-0.7-3.4-1.9-4.6C30.7,12.7,31,11.4,31,10
	z M13,22c0,0.6-0.4,1-1,1s-1-0.4-1-1v-1c0-0.6,0.4-1,1-1s1,0.4,1,1V22z M21,22c0,0.6-0.4,1-1,1s-1-0.4-1-1v-1c0-0.6,0.4-1,1-1
	s1,0.4,1,1V22z M28.4,12.8c-0.9-0.4-1.8-0.7-2.9-0.7c-0.9,0-1.8,0.2-2.6,0.6C21.5,9.8,18.6,8,15.3,8c0,0,0,0,0,0
	c0.7-2.3,2.5-4.1,4.8-4.7c0.7,4.1,4.6,7.2,8.9,6.7c0,0,0,0,0,0.1C29,11,28.8,11.9,28.4,12.8z"/>
<path d="M16,28c-0.6,0-1,0.4-1,1v1c0,0.6,0.4,1,1,1s1-0.4,1-1v-1C17,28.4,16.6,28,16,28z"/>
<path d="M12,26c-0.6,0-1,0.4-1,1v1c0,0.6,0.4,1,1,1s1-0.4,1-1v-1C13,26.4,12.6,26,12,26z"/>
<path d="M20,26c-0.6,0-1,0.4-1,1v1c0,0.6,0.4,1,1,1s1-0.4,1-1v-1C21,26.4,20.6,26,20,26z"/>
</svg>
