<?xml version="1.0" encoding="utf-8"?>
<!-- Generator: Adobe Illustrator 18.1.1, SVG Export Plug-In . SVG Version: 6.00 Build 0)  -->
<!DOCTYPE svg PUBLIC "-//W3C//DTD SVG 1.1//EN" "http://www.w3.org/Graphics/SVG/1.1/DTD/svg11.dtd">
<svg version="1.1" id="Layer_2" xmlns="http://www.w3.org/2000/svg" xmlns:xlink="http://www.w3.org/1999/xlink" x="0px" y="0px"
	 width="32px" height="32px" viewBox="0 0 32 32" enable-background="new 0 0 32 32" xml:space="preserve">
<path d="M16,0C7.2,0,0,7.2,0,16s7.2,16,16,16s16-7.2,16-16S24.8,0,16,0z M23.4,14.9l-5.7,2.9l-2.9,5.7C14.7,23.8,14.4,24,14,24
	c0,0-0.1,0-0.1,0c-0.4,0-0.8-0.3-0.9-0.7l-4-13c-0.1-0.4,0-0.7,0.2-1C9.6,9,9.9,8.9,10.3,9l13,4c0.4,0.1,0.7,0.5,0.7,0.9
	C24,14.3,23.8,14.7,23.4,14.9z"/>
</svg>
