<?xml version="1.0" encoding="utf-8"?>
<!-- Generator: Adobe Illustrator 18.1.1, SVG Export Plug-In . SVG Version: 6.00 Build 0)  -->
<!DOCTYPE svg PUBLIC "-//W3C//DTD SVG 1.1//EN" "http://www.w3.org/Graphics/SVG/1.1/DTD/svg11.dtd">
<svg version="1.1" id="Layer_2" xmlns="http://www.w3.org/2000/svg" xmlns:xlink="http://www.w3.org/1999/xlink" x="0px" y="0px"
	 width="32px" height="32px" viewBox="0 0 32 32" enable-background="new 0 0 32 32" xml:space="preserve">
<path d="M21.9,27.1c-0.3-0.5-0.9-0.6-1.4-0.3C19.3,27.6,17.7,28,16,28c-1.9,0-3.6-0.5-4.9-1.4c-0.5-0.3-1.1-0.2-1.4,0.2
	c-0.3,0.5-0.2,1.1,0.2,1.4c1.6,1.1,3.8,1.8,6,1.8c2.1,0,4-0.5,5.6-1.5C22.1,28.2,22.2,27.6,21.9,27.1z"/>
<path d="M25,20.2c-0.4-0.4-1-0.4-1.4,0c-1.5,1.5-4.5,2.4-7.6,2.4c-3.1,0-5.9-0.9-7.5-2.3c-0.4-0.4-1-0.3-1.4,0.1
	c-0.4,0.4-0.3,1,0.1,1.4c1.9,1.8,5.3,2.8,8.9,2.8c3.7,0,7.1-1.1,9-3C25.4,21.2,25.4,20.6,25,20.2z"/>
<path d="M27.2,14.9c-0.3-0.4-1-0.5-1.4-0.2c-2,1.5-5.7,2.5-9.8,2.5c-4.1,0-7.8-1-9.8-2.5c-0.4-0.3-1.1-0.3-1.4,0.2
	C4.5,15.3,4.6,16,5,16.3c2.3,1.8,6.5,2.9,11,2.9c4.5,0,8.7-1.1,11-2.9C27.4,16,27.5,15.3,27.2,14.9z"/>
<ellipse cx="16" cy="7.4" rx="15" ry="5.4"/>
</svg>
