<?xml version="1.0" encoding="utf-8"?>
<!-- Generator: Adobe Illustrator 19.1.0, SVG Export Plug-In . SVG Version: 6.00 Build 0)  -->
<!DOCTYPE svg PUBLIC "-//W3C//DTD SVG 1.1//EN" "http://www.w3.org/Graphics/SVG/1.1/DTD/svg11.dtd">
<svg version="1.1" id="Layer_1" xmlns="http://www.w3.org/2000/svg" xmlns:xlink="http://www.w3.org/1999/xlink" x="0px" y="0px"
	 width="48px" height="48px" viewBox="0 0 48 48" enable-background="new 0 0 48 48" xml:space="preserve">
<path fill="#444444" d="M41.85156,33.17773l-6.9798,1.0459C37.33087,28.33362,39,22.1076,39,19c0-7.16797-6.72852-13-15-13
	S9,11.83203,9,19c0,3.20636,1.68317,9.39594,4.091,15.21808l-6.94257-1.04034c-0.55469-0.07324-1.05566,0.29492-1.1377,0.84082
	c-0.08203,0.54688,0.29492,1.05566,0.84082,1.1377l8.17584,1.2251c0.68011,1.50128,1.45099,3.05841,2.29468,4.53192
	l-8.49005,1.44611c-0.54395,0.0918-0.91016,0.6084-0.81738,1.15332C7.09766,44,7.52051,44.34473,7.99902,44.34473
	c0.05566,0,0.1123-0.00488,0.16895-0.01465l9.28033-1.58069C19.41083,45.73322,21.66583,48,24,48
	c2.12347,0,4.37109-2.12781,6.46252-5.26581l9.36951,1.59589c0.05664,0.00977,0.11328,0.01465,0.16895,0.01465
	c0.47852,0,0.90137-0.34473,0.98438-0.83203c0.09277-0.54492-0.27344-1.06152-0.81738-1.15332l-8.56738-1.45929
	c0.8147-1.39807,1.59497-2.92432,2.32379-4.51147l8.22406-1.23236c0.5459-0.08203,0.92285-0.59082,0.84082-1.1377
	C42.9082,33.47266,42.40918,33.10449,41.85156,33.17773z M17,25c-1.10455,0-2-0.89545-2-2c0-1.10461,0.89545-2,2-2s2,0.89539,2,2
	C19,24.10455,18.10455,25,17,25z M31,25c-1.10455,0-2-0.89545-2-2c0-1.10461,0.89545-2,2-2s2,0.89539,2,2
	C33,24.10455,32.10455,25,31,25z"/>
<path data-color="color-2" fill="#444444" d="M41,19c0,0.7511-0.08777,1.65356-0.24353,2.65735C44.54382,19.76721,47,16.11957,47,12
	c0-6.06543-5.38281-11-12-11c-3.16504,0-6.19586,1.17633-8.43896,3.18903C34.72101,5.28448,41,11.49854,41,19z"/>
<path data-color="color-2" fill="#444444" d="M7.24194,21.65649C7.08722,20.65247,7,19.75024,7,19
	c0-7.50146,6.27899-13.71552,14.43896-14.81097C19.19586,2.17633,16.16504,1,13,1C6.38281,1,1,5.93457,1,12
	C1,16.11902,3.45544,19.76611,7.24194,21.65649z"/>
</svg>
