<?xml version="1.0" encoding="utf-8"?>
<!-- Generator: Adobe Illustrator 19.1.0, SVG Export Plug-In . SVG Version: 6.00 Build 0)  -->
<!DOCTYPE svg PUBLIC "-//W3C//DTD SVG 1.1//EN" "http://www.w3.org/Graphics/SVG/1.1/DTD/svg11.dtd">
<svg version="1.1" id="Layer_1" xmlns="http://www.w3.org/2000/svg" xmlns:xlink="http://www.w3.org/1999/xlink" x="0px" y="0px"
	 width="48px" height="48px" viewBox="0 0 48 48" enable-background="new 0 0 48 48" xml:space="preserve">
<path data-color="color-2" fill="#444444" d="M26,2c-1.88684,0-3.54944,0.88843-4.64941,2.25024C20.92688,4.09741,20.47632,4,20,4
	c-2.20911,0-4,1.79077-4,4c0,2.20911,1.79089,4,4,4c0.47632,0,0.92688-0.09741,1.35059-0.25024C22.45056,13.11157,24.11316,14,26,14
	c3.31372,0,6-2.68628,6-6S29.31372,2,26,2z"/>
<path fill="#444444" d="M33.73669,10c-0.8916,3.4447-4.01721,6-7.73669,6c-1.97217,0-3.84717-0.73291-5.30566-2.04395
	C20.46143,13.98535,20.22998,14,20,14c-2.60651,0-4.82367-1.6734-5.64996-4H1v1c0,4.92401,3.31958,9.24377,8,10.57562V32
	c0,7.9339,6.1955,14.43085,14,14.94934v-6.34003c-0.07056-0.06384-0.1402-0.12958-0.20001-0.20935l-3-4
	C19.05835,35.41113,19.76392,34,21,34h6c1.23608,0,1.94165,1.41113,1.20001,2.39996l-3,4
	C25.1402,40.47974,25.07056,40.54547,25,40.60931v6.34003C32.8045,46.43085,39,39.9339,39,32V21.57562
	C43.68042,20.24377,47,15.92401,47,11v-1H33.73669z M21,28c-0.55225,0-1-0.44727-1-1c0-1.10254-0.89697-2-2-2s-2,0.89746-2,2
	c0,0.55273-0.44775,1-1,1s-1-0.44727-1-1c0-2.20557,1.79443-4,4-4s4,1.79443,4,4C22,27.55273,21.55225,28,21,28z M33,28
	c-0.55225,0-1-0.44727-1-1c0-1.10254-0.89697-2-2-2s-2,0.89746-2,2c0,0.55273-0.44775,1-1,1s-1-0.44727-1-1c0-2.20557,1.79443-4,4-4
	s4,1.79443,4,4C34,27.55273,33.55225,28,33,28z"/>
</svg>
