<?xml version="1.0" encoding="utf-8"?>
<!-- Generator: Adobe Illustrator 19.1.0, SVG Export Plug-In . SVG Version: 6.00 Build 0)  -->
<!DOCTYPE svg PUBLIC "-//W3C//DTD SVG 1.1//EN" "http://www.w3.org/Graphics/SVG/1.1/DTD/svg11.dtd">
<svg version="1.1" id="Layer_1" xmlns="http://www.w3.org/2000/svg" xmlns:xlink="http://www.w3.org/1999/xlink" x="0px" y="0px"
	 width="48px" height="48px" viewBox="0 0 48 48" enable-background="new 0 0 48 48" xml:space="preserve">
<path fill="#444444" d="M47,8c0-0.55273-0.44727-1-1-1H36V2c0-1.10449-0.89551-2-2-2s-2,0.89551-2,2v5H16V2c0-1.10449-0.89551-2-2-2
	s-2,0.89551-2,2v5H2C1.44727,7,1,7.44727,1,8c0,4.96289,4.03711,9,9,9h0.04755l-0.99188,9.42285
	c-0.00562,0.05267,0.01172,0.1004,0.01422,0.15173C9.90497,26.20734,10.82562,26,11.79492,26h24.41016
	c0.9693,0,1.88995,0.20734,2.72504,0.57458c0.0025-0.05133,0.01984-0.09906,0.01422-0.15173L37.95245,17H38
	C42.96289,17,47,12.96289,47,8z M17,21c-1.10455,0-2-0.89545-2-2c0-1.10461,0.89545-2,2-2s2,0.89539,2,2
	C19,20.10455,18.10455,21,17,21z M31,21c-1.10455,0-2-0.89545-2-2c0-1.10461,0.89545-2,2-2s2,0.89539,2,2
	C33,20.10455,32.10455,21,31,21z"/>
<path data-color="color-2" fill="#444444" d="M36.20508,28H11.79492C9.15137,28,7,30.15137,7,32.79492v4.71777
	C7,43.29492,11.70508,48,17.4873,48H30.5127C36.29492,48,41,43.29492,41,37.5127v-4.71777C41,30.15137,38.84863,28,36.20508,28z
	 M17,41c-1.65686,0-3-1.34314-3-3s1.34314-3,3-3s3,1.34314,3,3S18.65686,41,17,41z M31,41c-1.65686,0-3-1.34314-3-3s1.34314-3,3-3
	s3,1.34314,3,3S32.65686,41,31,41z"/>
</svg>
