<?xml version="1.0" encoding="utf-8"?>
<!-- Generator: Adobe Illustrator 19.1.0, SVG Export Plug-In . SVG Version: 6.00 Build 0)  -->
<!DOCTYPE svg PUBLIC "-//W3C//DTD SVG 1.1//EN" "http://www.w3.org/Graphics/SVG/1.1/DTD/svg11.dtd">
<svg version="1.1" id="Layer_1" xmlns="http://www.w3.org/2000/svg" xmlns:xlink="http://www.w3.org/1999/xlink" x="0px" y="0px"
	 width="48px" height="48px" viewBox="0 0 48 48" enable-background="new 0 0 48 48" xml:space="preserve">
<path fill="#444444" d="M46.92871,38.62891l-8-20.00049C38.77637,18.24902,38.40918,18,38,18H10
	c-0.40918,0-0.77637,0.24902-0.92871,0.62842l-8,20.00049c-0.12305,0.30762-0.08496,0.65723,0.10059,0.93164
	C1.3584,39.83496,1.66797,40,2,40h44c0.33203,0,0.6416-0.16504,0.82812-0.43945
	C47.01367,39.28613,47.05176,38.93652,46.92871,38.62891z"/>
<path data-color="color-2" fill="#444444" d="M35.94153,16C35.44391,11.50012,31.63251,7.99915,27,7.99915
	c-3.19556,0-5.98474,1.67664-7.58167,4.18689C18.96143,12.07471,18.49109,11.99915,18,11.99915
	c-2.60095,0-4.80884,1.67798-5.64117,4.00085H35.94153z"/>
</svg>
