<?xml version="1.0" encoding="utf-8"?>
<!-- Generator: Adobe Illustrator 19.1.0, SVG Export Plug-In . SVG Version: 6.00 Build 0)  -->
<!DOCTYPE svg PUBLIC "-//W3C//DTD SVG 1.1//EN" "http://www.w3.org/Graphics/SVG/1.1/DTD/svg11.dtd">
<svg version="1.1" id="Layer_1" xmlns="http://www.w3.org/2000/svg" xmlns:xlink="http://www.w3.org/1999/xlink" x="0px" y="0px"
	 width="48px" height="48px" viewBox="0 0 48 48" enable-background="new 0 0 48 48" xml:space="preserve">
<path data-color="color-2" fill="#444444" d="M2.63281,22.77393L24,5.29199l21.36719,17.48193C45.55273,22.92578,45.77637,23,45.99902,23
	c0.29004,0,0.57715-0.125,0.77539-0.3667c0.34961-0.42773,0.28613-1.05762-0.1416-1.40723l-22-18
	c-0.36719-0.30176-0.89844-0.30176-1.26562,0l-22,18c-0.42773,0.34961-0.49121,0.97949-0.1416,1.40723
	C1.5752,23.06055,2.20508,23.12305,2.63281,22.77393z"/>
<path fill="#444444" d="M46,45h-5V21.78497l-17-13.909l-17,13.909V45H2c-0.55273,0-1,0.44727-1,1s0.44727,1,1,1h44
	c0.55273,0,1-0.44727,1-1S46.55273,45,46,45z M17,32c0-3.85938,3.14062-7,7-7s7,3.14062,7,7v13H17V32z"/>
</svg>
