<?xml version="1.0" encoding="utf-8"?>
<!-- Generator: Adobe Illustrator 19.1.0, SVG Export Plug-In . SVG Version: 6.00 Build 0)  -->
<!DOCTYPE svg PUBLIC "-//W3C//DTD SVG 1.1//EN" "http://www.w3.org/Graphics/SVG/1.1/DTD/svg11.dtd">
<svg version="1.1" id="Layer_1" xmlns="http://www.w3.org/2000/svg" xmlns:xlink="http://www.w3.org/1999/xlink" x="0px" y="0px"
	 width="48px" height="48px" viewBox="0 0 48 48" enable-background="new 0 0 48 48" xml:space="preserve">
<path fill="#444444" d="M47,8c0-3.85986-3.14014-7-7-7c-2.85919,0-5.39716,1.75745-6.46332,4.32013
	C30.72974,3.85443,27.47772,3,24,3s-6.72974,0.85443-9.53668,2.32013C13.39716,2.75745,10.85919,1,8,1C4.14014,1,1,4.14014,1,8
	c0,3.11835,2.06079,5.80408,4.96088,6.69342C5.34491,16.36517,5,18.146,5,20c0,10.66211,8.51172,27,19,27s19-16.33789,19-27
	c0-1.854-0.34491-3.63483-0.96088-5.30658C44.93921,13.80408,47,11.11835,47,8z M5,8c0-1.65686,1.34314-3,3-3
	c1.54163,0,2.79688,1.16724,2.96606,2.66364c-1.16742,0.98792-2.19098,2.10504-3.04974,3.32794C6.29907,10.94623,5,9.62817,5,8z
	 M14,16c0-1.10461,0.89545-2,2-2s2,0.89539,2,2c0,1.10455-0.89545,2-2,2S14,17.10455,14,16z M31,33c0,2.20605-1.79443,4-4,4
	c-1.20032,0-2.26624-0.5423-3-1.3822C23.26624,36.4577,22.20032,37,21,37c-2.20557,0-4-1.79395-4-4v-1c0-0.55273,0.44775-1,1-1
	s1,0.44727,1,1v1c0,1.10254,0.89697,2,2,2s2-0.89746,2-2v-3.33337l-3.79999-5.06665C18.70557,23.94073,19.17596,23,20,23h8
	c0.82404,0,1.29443,0.94073,0.79999,1.59998L25,29.66663V33c0,1.10254,0.89697,2,2,2s2-0.89746,2-2v-1c0-0.55273,0.44775-1,1-1
	s1,0.44727,1,1V33z M32,18c-1.10455,0-2-0.89545-2-2c0-1.10461,0.89545-2,2-2s2,0.89539,2,2C34,17.10455,33.10455,18,32,18z
	 M40.08368,10.99158c-0.85876-1.2229-1.88232-2.34003-3.04974-3.32794C37.20312,6.16724,38.45837,5,40,5c1.65686,0,3,1.34314,3,3
	C43,9.62817,41.70093,10.94623,40.08368,10.99158z"/>
</svg>
