<?xml version="1.0" encoding="utf-8"?>
<!-- Generator: Adobe Illustrator 19.1.0, SVG Export Plug-In . SVG Version: 6.00 Build 0)  -->
<!DOCTYPE svg PUBLIC "-//W3C//DTD SVG 1.1//EN" "http://www.w3.org/Graphics/SVG/1.1/DTD/svg11.dtd">
<svg version="1.1" id="Layer_1" xmlns="http://www.w3.org/2000/svg" xmlns:xlink="http://www.w3.org/1999/xlink" x="0px" y="0px"
	 width="48px" height="48px" viewBox="0 0 48 48" enable-background="new 0 0 48 48" xml:space="preserve">
<path d="M37,1H24c-0.6,0-1,0.4-1,1s0.4,1,1,1h13c4.4,0,8,3.6,8,8s-3.6,8-8,8h-0.1c-0.5-3.4-3.4-6-6.9-6s-6.4,2.6-6.9,6H11
	C5.5,19,1,23.5,1,29s4.5,10,10,10h12.6l-4.3,4.3c-0.4,0.4-0.4,1,0,1.4c0.2,0.2,0.5,0.3,0.7,0.3s0.5-0.1,0.7-0.3l6-6
	c0.1-0.1,0.2-0.2,0.2-0.3c0.1-0.2,0.1-0.5,0-0.8c-0.1-0.1-0.1-0.2-0.2-0.3l-6-6c-0.4-0.4-1-0.4-1.4,0s-0.4,1,0,1.4l4.3,4.3H11
	c-4.4,0-8-3.6-8-8s3.6-8,8-8h12.1c0.5,3.4,3.4,6,6.9,6s6.4-2.6,6.9-6H37c5.5,0,10-4.5,10-10S42.5,1,37,1z M30,25c-2.8,0-5-2.2-5-5
	s2.2-5,5-5s5,2.2,5,5S32.8,25,30,25z"/>
<path d="M16,1c-0.6,0-1,0.4-1,1s0.4,1,1,1h2c0.6,0,1-0.4,1-1s-0.4-1-1-1H16z"/>
</svg>
