<?xml version="1.0" encoding="utf-8"?>
<!-- Generator: Adobe Illustrator 19.1.0, SVG Export Plug-In . SVG Version: 6.00 Build 0)  -->
<!DOCTYPE svg PUBLIC "-//W3C//DTD SVG 1.1//EN" "http://www.w3.org/Graphics/SVG/1.1/DTD/svg11.dtd">
<svg version="1.1" id="Layer_1" xmlns="http://www.w3.org/2000/svg" xmlns:xlink="http://www.w3.org/1999/xlink" x="0px" y="0px"
	 width="48px" height="48px" viewBox="0 0 48 48" enable-background="new 0 0 48 48" xml:space="preserve">
<path d="M38.9,33.6C38.7,33.2,38.4,33,38,33h-7.6c4-5,8.6-11.8,8.6-17c0-9.4-7.6-15-15-15S9,6.6,9,16c0,5.2,4.6,12,8.6,17H10
	c-0.4,0-0.7,0.2-0.9,0.6l-6,12c-0.2,0.3-0.1,0.7,0,1C3.3,46.8,3.7,47,4,47h40c0.3,0,0.7-0.2,0.9-0.5c0.2-0.3,0.2-0.7,0-1L38.9,33.6z
	 M24,3c6.4,0,13,4.9,13,13c0,7-10.2,18.3-13,21.3C21.2,34.3,11,23,11,16C11,7.9,17.6,3,24,3z M5.6,45l5-10h8.6
	c2.2,2.5,3.9,4.3,4,4.5c0.2,0.2,0.4,0.3,0.7,0.3s0.5-0.1,0.7-0.3c0.2-0.2,1.9-1.9,4-4.5h8.6l5,10H5.6z"/>
<path d="M29,16c0-2.8-2.2-5-5-5s-5,2.2-5,5s2.2,5,5,5S29,18.8,29,16z M21,16c0-1.7,1.3-3,3-3s3,1.3,3,3s-1.3,3-3,3S21,17.7,21,16z"
	/>
</svg>
