<?xml version="1.0" encoding="utf-8"?>
<!-- Generator: Adobe Illustrator 19.1.0, SVG Export Plug-In . SVG Version: 6.00 Build 0)  -->
<!DOCTYPE svg PUBLIC "-//W3C//DTD SVG 1.1//EN" "http://www.w3.org/Graphics/SVG/1.1/DTD/svg11.dtd">
<svg version="1.1" id="Layer_1" xmlns="http://www.w3.org/2000/svg" xmlns:xlink="http://www.w3.org/1999/xlink" x="0px" y="0px"
	 width="48px" height="48px" viewBox="0 0 48 48" enable-background="new 0 0 48 48" xml:space="preserve">
<path d="M9,46V2c0-0.6-0.4-1-1-1S7,1.4,7,2v44c0,0.6,0.4,1,1,1S9,46.6,9,46z"/>
<path d="M40.9,5.5C40.7,5.2,40.4,5,40,5H14c-0.6,0-1,0.4-1,1v20c0,0.6,0.4,1,1,1h26c0.4,0,0.7-0.2,0.9-0.5c0.2-0.3,0.2-0.7,0-1
	L35.2,16l5.7-9.5C41,6.2,41,5.8,40.9,5.5z M33.1,15.5c-0.2,0.3-0.2,0.7,0,1l5.1,8.5H15V7h23.2L33.1,15.5z"/>
</svg>
