<?xml version="1.0" encoding="utf-8"?>
<!-- Generator: Adobe Illustrator 19.1.0, SVG Export Plug-In . SVG Version: 6.00 Build 0)  -->
<!DOCTYPE svg PUBLIC "-//W3C//DTD SVG 1.1//EN" "http://www.w3.org/Graphics/SVG/1.1/DTD/svg11.dtd">
<svg version="1.1" id="Layer_1" xmlns="http://www.w3.org/2000/svg" xmlns:xlink="http://www.w3.org/1999/xlink" x="0px" y="0px"
	 width="48px" height="48px" viewBox="0 0 48 48" enable-background="new 0 0 48 48" xml:space="preserve">
<path d="M45.8,3L30,7L18.3,3.1c-0.1,0-0.2,0-0.3,0c0,0,0,0,0,0c0,0,0,0,0,0c-0.1,0-0.1,0-0.2,0l-16,4C1.3,7.1,1,7.5,1,8v36
	c0,0.3,0.1,0.6,0.4,0.8C1.6,44.9,1.8,45,2,45c0.1,0,0.2,0,0.2,0L18,41l11.7,3.9c0.1,0,0.2,0,0.3,0c0,0,0,0,0,0c0,0,0,0,0.1,0
	c0.1,0,0.1,0,0.2,0l16-4c0.4-0.1,0.8-0.5,0.8-1V4c0-0.3-0.1-0.6-0.4-0.8C46.4,3,46.1,3,45.8,3z M19,5.4l10,3.3v33.9l-10-3.3V5.4z
	 M3,8.8l14-3.5v33.9L3,42.7V8.8z M45,39.2l-14,3.5V8.8l14-3.5V39.2z"/>
</svg>
