<?xml version="1.0" encoding="utf-8"?>
<!-- Generator: Adobe Illustrator 19.1.0, SVG Export Plug-In . SVG Version: 6.00 Build 0)  -->
<!DOCTYPE svg PUBLIC "-//W3C//DTD SVG 1.1//EN" "http://www.w3.org/Graphics/SVG/1.1/DTD/svg11.dtd">
<svg version="1.1" id="Layer_1" xmlns="http://www.w3.org/2000/svg" xmlns:xlink="http://www.w3.org/1999/xlink" x="0px" y="0px"
	 width="48px" height="48px" viewBox="0 0 48 48" enable-background="new 0 0 48 48" xml:space="preserve">
<path d="M46.6,9.2C46.4,9,46.1,9,45.8,9l-13.1,3.3c0.2-0.7,0.3-1.5,0.3-2.3c0-5-4-9-9-9c-4.9,0-8.8,3.9-9,8.7L1.8,13
	C1.3,13.1,1,13.5,1,14v30c0,0.3,0.1,0.6,0.4,0.8C1.6,44.9,1.8,45,2,45c0.1,0,0.2,0,0.2,0L18,41l11.7,3.9c0.1,0,0.2,0,0.3,0
	c0,0,0,0,0,0c0,0,0,0,0,0c0.1,0,0.1,0,0.2,0l16-4c0.4-0.1,0.8-0.5,0.8-1V10C47,9.7,46.9,9.4,46.6,9.2z M19,17.5
	c1.2,0.8,2.5,1.3,4,1.5V28c0,0.6,0.4,1,1,1s1-0.4,1-1v-9.1c1.5-0.2,2.8-0.7,4-1.5v25.1l-10-3.3V17.5z M24,3c3.9,0,7,3.1,7,7
	c0,1.1-0.3,2.2-0.7,3.1c-0.1,0.1-0.1,0.2-0.2,0.3C28.9,15.6,26.6,17,24,17c-3.9,0-7-3.1-7-7S20.1,3,24,3z M3,14.8l12.2-3
	c0.3,1.5,0.9,2.8,1.8,3.9v23.6L3,42.7V14.8z M45,39.2l-14,3.5V15.6c0.3-0.3,0.5-0.7,0.7-1L45,11.3V39.2z"/>
</svg>
