<?xml version="1.0" encoding="utf-8"?>
<!-- Generator: Adobe Illustrator 19.1.0, SVG Export Plug-In . SVG Version: 6.00 Build 0)  -->
<!DOCTYPE svg PUBLIC "-//W3C//DTD SVG 1.1//EN" "http://www.w3.org/Graphics/SVG/1.1/DTD/svg11.dtd">
<svg version="1.1" id="Layer_1" xmlns="http://www.w3.org/2000/svg" xmlns:xlink="http://www.w3.org/1999/xlink" x="0px" y="0px"
	 width="48px" height="48px" viewBox="0 0 48 48" enable-background="new 0 0 48 48" xml:space="preserve">
<path d="M45.8,3L30,7L18.3,3.1C18.1,3,17.9,3,17.8,3l-16,4C1.3,7.1,1,7.5,1,8v36c0,0.3,0.1,0.6,0.4,0.8C1.6,44.9,1.8,45,2,45
	c0.1,0,0.2,0,0.2,0L18,41l11.7,3.9c0.2,0.1,0.4,0.1,0.6,0l16-4c0.4-0.1,0.8-0.5,0.8-1V4c0-0.3-0.1-0.6-0.4-0.8C46.4,3,46.1,3,45.8,3
	z M45,39.2L30,43l-11.7-3.9C18.2,39,18.1,39,18,39c-0.1,0-0.2,0-0.2,0L3,42.7V8.8L18,5l11.7,3.9C29.9,9,30.1,9,30.2,9L45,5.3V39.2z"
	/>
<path d="M29.3,19.3c-0.4,0.4-0.4,1,0,1.4l3.3,3.3l-3.3,3.3c-0.4,0.4-0.4,1,0,1.4c0.2,0.2,0.5,0.3,0.7,0.3s0.5-0.1,0.7-0.3l3.3-3.3
	l3.3,3.3c0.2,0.2,0.5,0.3,0.7,0.3s0.5-0.1,0.7-0.3c0.4-0.4,0.4-1,0-1.4L35.4,24l3.3-3.3c0.4-0.4,0.4-1,0-1.4s-1-0.4-1.4,0L34,22.6
	l-3.3-3.3C30.3,18.9,29.7,18.9,29.3,19.3z"/>
<path d="M12,23h-2c-0.6,0-1,0.4-1,1s0.4,1,1,1h2c0.6,0,1-0.4,1-1S12.6,23,12,23z"/>
<path d="M22,23h-2c-0.6,0-1,0.4-1,1s0.4,1,1,1h2c0.6,0,1-0.4,1-1S22.6,23,22,23z"/>
</svg>
