<?xml version="1.0" encoding="utf-8"?>
<!-- Generator: Adobe Illustrator 19.1.0, SVG Export Plug-In . SVG Version: 6.00 Build 0)  -->
<!DOCTYPE svg PUBLIC "-//W3C//DTD SVG 1.1//EN" "http://www.w3.org/Graphics/SVG/1.1/DTD/svg11.dtd">
<svg version="1.1" id="Layer_1" xmlns="http://www.w3.org/2000/svg" xmlns:xlink="http://www.w3.org/1999/xlink" x="0px" y="0px"
	 width="48px" height="48px" viewBox="0 0 48 48" enable-background="new 0 0 48 48" xml:space="preserve">
<path d="M36,7c-2.7,0-5.4,1-7.4,2.8C27.1,9.3,25.5,9,24,9c-1.5,0-3.1,0.3-4.6,0.8C17.4,8,14.7,7,12,7C6.6,7,1,11.1,1,18
	c0,6.5,9.9,16.3,10.3,16.7c0.2,0.2,0.4,0.3,0.7,0.3c0.3,0,0.5-0.1,0.7-0.3c0.1-0.1,1.1-1.1,2.6-2.8c3.4,4.7,7.8,8.5,8.1,8.8
	c0.2,0.2,0.4,0.3,0.7,0.3s0.5-0.1,0.7-0.3c0.3-0.3,4.6-4.1,8.1-8.8c1.4,1.6,2.5,2.7,2.6,2.8c0.2,0.2,0.4,0.3,0.7,0.3
	s0.5-0.1,0.7-0.3C37.1,34.3,47,24.5,47,18C47,11.1,41.4,7,36,7z M12,32.6C9,29.4,3,22.3,3,18c0-5.6,4.6-9,9-9c1.9,0,3.8,0.7,5.4,1.8
	c-3.7,2.1-6.4,6-6.4,11.2c0,2.6,1.3,5.5,3.1,8.2C13.3,31.2,12.5,32,12,32.6z M24,38.6c-1.5-1.4-5-4.9-7.7-8.7
	c-0.1-0.2-0.1-0.3-0.3-0.4c0,0,0,0,0,0c-1.7-2.6-3-5.2-3-7.5c0-6.9,5.6-11,11-11c1.5,0,2.9,0.3,4.3,0.9c0.1,0,0.1,0.1,0.2,0.1
	c3.6,1.6,6.5,5.1,6.5,10c0,2.3-1.3,5-3,7.5c0,0,0,0,0,0c-0.1,0.1-0.2,0.2-0.3,0.4C29,33.8,25.5,37.3,24,38.6z M36,32.6
	c-0.5-0.5-1.3-1.3-2.1-2.3c1.8-2.7,3.1-5.6,3.1-8.2c0-5.2-2.7-9.1-6.4-11.2C32.2,9.7,34.1,9,36,9c4.4,0,9,3.4,9,9
	C45,22.3,39,29.4,36,32.6z"/>
<path d="M24,17c-2.8,0-5,2.2-5,5s2.2,5,5,5s5-2.2,5-5S26.8,17,24,17z M24,25c-1.7,0-3-1.3-3-3s1.3-3,3-3s3,1.3,3,3S25.7,25,24,25z"
	/>
</svg>
