<?xml version="1.0" encoding="utf-8"?>
<!-- Generator: Adobe Illustrator 19.1.0, SVG Export Plug-In . SVG Version: 6.00 Build 0)  -->
<!DOCTYPE svg PUBLIC "-//W3C//DTD SVG 1.1//EN" "http://www.w3.org/Graphics/SVG/1.1/DTD/svg11.dtd">
<svg version="1.1" id="Layer_1" xmlns="http://www.w3.org/2000/svg" xmlns:xlink="http://www.w3.org/1999/xlink" x="0px" y="0px"
	 width="48px" height="48px" viewBox="0 0 48 48" enable-background="new 0 0 48 48" xml:space="preserve">
<path d="M8,41c0.1,0,0.2,0,0.3-0.1l24-8c0.3-0.1,0.5-0.3,0.6-0.6l8-24c0.1-0.4,0-0.8-0.2-1s-0.7-0.4-1-0.2l-24,8
	c-0.3,0.1-0.5,0.3-0.6,0.6l-8,24c-0.1,0.4,0,0.8,0.2,1C7.5,40.9,7.7,41,8,41z M16.8,16.8l21.6-7.2l-7.2,21.6L9.6,38.4L16.8,16.8z"/>
<path d="M24,19c-2.8,0-5,2.2-5,5s2.2,5,5,5s5-2.2,5-5S26.8,19,24,19z M24,27c-1.7,0-3-1.3-3-3s1.3-3,3-3s3,1.3,3,3S25.7,27,24,27z"
	/>
<path d="M24,5c0.6,0,1-0.4,1-1V2c0-0.6-0.4-1-1-1s-1,0.4-1,1v2C23,4.6,23.4,5,24,5z"/>
<path d="M46,23h-2c-0.6,0-1,0.4-1,1s0.4,1,1,1h2c0.6,0,1-0.4,1-1S46.6,23,46,23z"/>
<path d="M23,44v2c0,0.6,0.4,1,1,1s1-0.4,1-1v-2c0-0.6-0.4-1-1-1S23,43.4,23,44z"/>
<path d="M2,25h2c0.6,0,1-0.4,1-1s-0.4-1-1-1H2c-0.6,0-1,0.4-1,1S1.4,25,2,25z"/>
</svg>
