<?xml version="1.0" encoding="utf-8"?>
<!-- Generator: Adobe Illustrator 19.1.0, SVG Export Plug-In . SVG Version: 6.00 Build 0)  -->
<!DOCTYPE svg PUBLIC "-//W3C//DTD SVG 1.1//EN" "http://www.w3.org/Graphics/SVG/1.1/DTD/svg11.dtd">
<svg version="1.1" id="Layer_1" xmlns="http://www.w3.org/2000/svg" xmlns:xlink="http://www.w3.org/1999/xlink" x="0px" y="0px"
	 width="48px" height="48px" viewBox="0 0 48 48" enable-background="new 0 0 48 48" xml:space="preserve">
<path d="M38.9,33.6C38.7,33.2,38.4,33,38,33H25v-8.1c6.1-0.5,11-5.7,11-11.9c0-6.6-5.4-12-12-12S12,6.4,12,13
	c0,6.3,4.9,11.4,11,11.9V33H10c-0.4,0-0.7,0.2-0.9,0.6l-6,12c-0.2,0.3-0.1,0.7,0,1C3.3,46.8,3.7,47,4,47h40c0.3,0,0.7-0.2,0.9-0.5
	c0.2-0.3,0.2-0.7,0-1L38.9,33.6z M14,13c0-5.5,4.5-10,10-10s10,4.5,10,10s-4.5,10-10,10S14,18.5,14,13z M5.6,45l5-10H23v3
	c0,0.6,0.4,1,1,1s1-0.4,1-1v-3h12.4l5,10H5.6z"/>
</svg>
