<?xml version="1.0" encoding="utf-8"?>
<!-- Generator: Adobe Illustrator 19.1.0, SVG Export Plug-In . SVG Version: 6.00 Build 0)  -->
<!DOCTYPE svg PUBLIC "-//W3C//DTD SVG 1.1//EN" "http://www.w3.org/Graphics/SVG/1.1/DTD/svg11.dtd">
<svg version="1.1" id="Layer_1" xmlns="http://www.w3.org/2000/svg" xmlns:xlink="http://www.w3.org/1999/xlink" x="0px" y="0px"
	 width="48px" height="48px" viewBox="0 0 48 48" enable-background="new 0 0 48 48" xml:space="preserve">
<path d="M24,45c0.3,0,0.5-0.1,0.7-0.3C25.4,44,41,28.2,41,18C41,7.4,32.4,1,24,1S7,7.4,7,18c0,10.2,15.6,26,16.3,26.7
	C23.5,44.9,23.7,45,24,45z M24,3c7.4,0,15,5.6,15,15c0,8.2-11.9,21.3-15,24.6C20.9,39.3,9,26.2,9,18C9,8.6,16.6,3,24,3z"/>
<path d="M30,18c0-3.3-2.7-6-6-6s-6,2.7-6,6s2.7,6,6,6S30,21.3,30,18z M20,18c0-2.2,1.8-4,4-4s4,1.8,4,4s-1.8,4-4,4S20,20.2,20,18z"
	/>
</svg>
