<?xml version="1.0" encoding="utf-8"?>
<!-- Generator: Adobe Illustrator 19.1.0, SVG Export Plug-In . SVG Version: 6.00 Build 0)  -->
<!DOCTYPE svg PUBLIC "-//W3C//DTD SVG 1.1//EN" "http://www.w3.org/Graphics/SVG/1.1/DTD/svg11.dtd">
<svg version="1.1" id="Layer_1" xmlns="http://www.w3.org/2000/svg" xmlns:xlink="http://www.w3.org/1999/xlink" x="0px" y="0px"
	 width="48px" height="48px" viewBox="0 0 48 48" enable-background="new 0 0 48 48" xml:space="preserve">
<path d="M45.8,3L30,7L18.3,3.1c-0.1,0-0.2,0-0.3,0c0,0,0,0,0,0c0,0,0,0,0,0c-0.1,0-0.1,0-0.2,0l-16,4C1.3,7.1,1,7.5,1,8v30
	c0,0.3,0.1,0.6,0.4,0.8C1.6,38.9,1.8,39,2,39c0.1,0,0.2,0,0.2,0l14.9-3.7l1.9,7c0.1,0.4,0.4,0.7,0.8,0.7c0,0,0.1,0,0.1,0
	c0.3,0,0.7-0.2,0.9-0.5l3.3-5.4l5.6,1.9c0.1,0,0.2,0,0.3,0c0,0,0,0,0,0c0,0,0,0,0,0c0.1,0,0.1,0,0.2,0l16-4c0.4-0.1,0.8-0.5,0.8-1V4
	c0-0.3-0.1-0.6-0.4-0.8C46.4,3,46.1,3,45.8,3z M19,20.3V5.4l10,3.3v14.3L19,20.3z M3,36.7V8.8l14-3.5v14.5L14.3,19
	c-0.3-0.1-0.7,0-1,0.3s-0.4,0.6-0.3,1l3.6,13.1L3,36.7z M20.3,39.5l-4.9-18.1l18.1,4.9l-8,4.8c-0.1,0.1-0.3,0.2-0.3,0.3L20.3,39.5z
	 M26.7,32.7l2.3-1.4v5.2l-3.8-1.3L26.7,32.7z M45,33.2l-14,3.5v-6.6l5.5-3.3c0.3-0.2,0.5-0.6,0.5-1s-0.3-0.7-0.7-0.8L31,23.6V8.8
	l14-3.5V33.2z"/>
</svg>
