<?xml version="1.0" encoding="utf-8"?>
<!-- Generator: Adobe Illustrator 19.1.0, SVG Export Plug-In . SVG Version: 6.00 Build 0)  -->
<!DOCTYPE svg PUBLIC "-//W3C//DTD SVG 1.1//EN" "http://www.w3.org/Graphics/SVG/1.1/DTD/svg11.dtd">
<svg version="1.1" id="Layer_1" xmlns="http://www.w3.org/2000/svg" xmlns:xlink="http://www.w3.org/1999/xlink" x="0px" y="0px"
	 width="48px" height="48px" viewBox="0 0 48 48" enable-background="new 0 0 48 48" xml:space="preserve">
<path d="M24,47c9.2,0,19-2.5,19-7c0-3.8-6.6-5.9-12.9-6.6c4-5,8.9-12,8.9-17.4c0-9.4-7.6-15-15-15S9,6.6,9,16
	c0,5.3,4.8,12.4,8.9,17.4C11.6,34.1,5,36.2,5,40C5,44.5,14.8,47,24,47z M24,3c6.4,0,13,4.9,13,13c0,7-10.2,18.3-13,21.3
	C21.2,34.3,11,23,11,16C11,7.9,17.6,3,24,3z M19.4,35.2c2.1,2.4,3.7,4.1,3.9,4.2c0.2,0.2,0.4,0.3,0.7,0.3s0.5-0.1,0.7-0.3
	c0.2-0.2,1.8-1.8,3.9-4.2c7.7,0.7,12.4,3,12.4,4.8c0,2.1-6.5,5-17,5S7,42.1,7,40C7,38.2,11.7,35.9,19.4,35.2z"/>
<path d="M29,16c0-2.8-2.2-5-5-5s-5,2.2-5,5s2.2,5,5,5S29,18.8,29,16z M21,16c0-1.7,1.3-3,3-3s3,1.3,3,3s-1.3,3-3,3S21,17.7,21,16z"
	/>
</svg>
