<?xml version="1.0" encoding="utf-8"?>
<!-- Generator: Adobe Illustrator 19.1.0, SVG Export Plug-In . SVG Version: 6.00 Build 0)  -->
<!DOCTYPE svg PUBLIC "-//W3C//DTD SVG 1.1//EN" "http://www.w3.org/Graphics/SVG/1.1/DTD/svg11.dtd">
<svg version="1.1" id="Layer_1" xmlns="http://www.w3.org/2000/svg" xmlns:xlink="http://www.w3.org/1999/xlink" x="0px" y="0px"
	 width="48px" height="48px" viewBox="0 0 48 48" enable-background="new 0 0 48 48" xml:space="preserve">
<path d="M24,47c9.2,0,19-2.5,19-7c0-4.4-9.1-6.8-18-7v-8.1c6.1-0.5,11-5.7,11-11.9c0-6.6-5.4-12-12-12S12,6.4,12,13
	c0,6.3,4.9,11.4,11,11.9V33c-8.9,0.2-18,2.6-18,7C5,44.5,14.8,47,24,47z M14,13c0-5.5,4.5-10,10-10s10,4.5,10,10s-4.5,10-10,10
	S14,18.5,14,13z M23,35v3c0,0.6,0.4,1,1,1s1-0.4,1-1v-3c9.9,0.2,16,3,16,5c0,2.1-6.5,5-17,5S7,42.1,7,40C7,38,13.1,35.2,23,35z"/>
</svg>
