<?xml version="1.0" encoding="utf-8"?>
<!-- Generator: Adobe Illustrator 19.1.0, SVG Export Plug-In . SVG Version: 6.00 Build 0)  -->
<!DOCTYPE svg PUBLIC "-//W3C//DTD SVG 1.1//EN" "http://www.w3.org/Graphics/SVG/1.1/DTD/svg11.dtd">
<svg version="1.1" id="Layer_1" xmlns="http://www.w3.org/2000/svg" xmlns:xlink="http://www.w3.org/1999/xlink" x="0px" y="0px"
	 width="48px" height="48px" viewBox="0 0 48 48" enable-background="new 0 0 48 48" xml:space="preserve">
<path d="M34,13c1.7,0,3-1.3,3-3s-1.3-3-3-3s-3,1.3-3,3S32.3,13,34,13z M34,9c0.6,0,1,0.4,1,1s-0.4,1-1,1s-1-0.4-1-1S33.4,9,34,9z"/>
<path d="M43,10c0-5.6-4.6-9-9-9c-2.9,0-5.9,1.5-7.6,4.1C25.6,5.1,24.8,5,24,5c-4.4,0-8.5,1.4-11.9,3.7c-0.1,0-0.1,0.1-0.2,0.1
	C6.5,12.6,3,18.9,3,26c0,11.6,9.4,21,21,21c0,0,0,0,0,0c0,0,0,0,0,0c0,0,0,0,0,0c6.7,0,12.7-3.2,16.5-8.1c0.1-0.1,0.1-0.1,0.2-0.2
	C43.4,35.2,45,30.8,45,26c0-4.1-1.2-8.1-3.4-11.5C42.4,13,43,11.4,43,10z M34,3c3.4,0,7,2.6,7,7c0,1.2-0.6,2.5-1.4,3.9
	c-0.1,0.1-0.1,0.2-0.2,0.3c-1.6,2.5-3.9,5-5.5,6.5c-2.4-2.3-7-7.3-7-10.6C27,5.6,30.6,3,34,3z M5,26c0-6.2,3-11.7,7.6-15.1
	c0.9,0.8,1.6,1.7,2.4,2.9c0.9,1.5,2.2,4.6,1,6.2c-0.7,0.9-2.1,1.6-3.5,2.3c-2,1-4,1.9-4,3.8c0,1.5,1.2,2.9,2.4,4.3
	c0.5,0.6,1,1.2,1.4,1.8c1.6,2.4,0.9,4.7,0,6.2c-0.3,0.5-0.8,1-1.4,1.5C7.3,36.2,5,31.4,5,26z M24.4,45c-1.7-1.6-2.6-5-2.1-8.2
	c0.3-1.7,1.1-4.7,4-5.8c0.7-0.3,1.3,0.2,2.5,1.4c1.7,1.6,3.9,3.9,8.2,2.7c0.2-0.1,1,0.1,1.6,0.8c0.5,0.5,0.6,1.2,0.4,1.8
	C35.6,42,30.3,44.9,24.4,45z M43,26c0,3.4-0.9,6.5-2.4,9.2c-0.1-0.3-0.3-0.5-0.5-0.7c-1-1.1-2.5-1.7-3.6-1.4
	c-3.1,0.9-4.7-0.7-6.2-2.2c-1.2-1.2-2.6-2.6-4.6-1.8c-2.8,1.1-4.7,3.8-5.3,7.4c-0.5,3.1,0.1,6.2,1.4,8.4c-3.5-0.4-6.7-1.8-9.4-3.8
	c0.6-0.5,1.2-1.1,1.6-1.8c1.7-2.8,1.7-5.8,0-8.3c-0.5-0.7-1-1.3-1.6-1.9c-0.9-1-1.9-2.2-1.9-2.9c0-0.6,1.6-1.4,2.8-2
	c1.5-0.7,3.2-1.6,4.2-2.9c2.2-2.9-0.4-7.5-0.9-8.4c-0.7-1.2-1.5-2.2-2.4-3C17.1,8,20.4,7,24,7c0.5,0,1,0,1.5,0.1
	C25.2,8,25,8.9,25,10c0,5.3,8,12.4,8.3,12.7c0.2,0.2,0.4,0.3,0.7,0.3s0.5-0.1,0.7-0.3c0.2-0.2,3.4-3,5.7-6.4
	C42.1,19.3,43,22.6,43,26z"/>
</svg>
