<?xml version="1.0" encoding="utf-8"?>
<!-- Generator: Adobe Illustrator 19.1.0, SVG Export Plug-In . SVG Version: 6.00 Build 0)  -->
<!DOCTYPE svg PUBLIC "-//W3C//DTD SVG 1.1//EN" "http://www.w3.org/Graphics/SVG/1.1/DTD/svg11.dtd">
<svg version="1.1" id="Layer_1" xmlns="http://www.w3.org/2000/svg" xmlns:xlink="http://www.w3.org/1999/xlink" x="0px" y="0px"
	 width="48px" height="48px" viewBox="0 0 48 48" enable-background="new 0 0 48 48" xml:space="preserve">
<path d="M12,45c-0.6,0-1,0.4-1,1s0.4,1,1,1h24c0.6,0,1-0.4,1-1s-0.4-1-1-1h-8V26.4c5.2-1.7,9-6.6,9-12.4c0-7.2-5.8-13-13-13
	S11,6.8,11,14c0,5.8,3.8,10.7,9,12.4V45H12z M13,14c0-6.1,4.9-11,11-11s11,4.9,11,11s-4.9,11-11,11S13,20.1,13,14z M22,26.8
	c0.7,0.1,1.3,0.2,2,0.2s1.3-0.1,2-0.2V45h-4V26.8z"/>
</svg>
