<?xml version="1.0" encoding="utf-8"?>
<!-- Generator: Adobe Illustrator 19.1.0, SVG Export Plug-In . SVG Version: 6.00 Build 0)  -->
<!DOCTYPE svg PUBLIC "-//W3C//DTD SVG 1.1//EN" "http://www.w3.org/Graphics/SVG/1.1/DTD/svg11.dtd">
<svg version="1.1" id="Layer_1" xmlns="http://www.w3.org/2000/svg" xmlns:xlink="http://www.w3.org/1999/xlink" x="0px" y="0px"
	 width="48px" height="48px" viewBox="0 0 48 48" enable-background="new 0 0 48 48" xml:space="preserve">
<path d="M45.8,9L35,11.7C34.8,5,29.3,1,24,1c-4.9,0-10,3.4-10.8,9.2L1.8,13C1.3,13.1,1,13.5,1,14v30c0,0.3,0.1,0.6,0.4,0.8
	C1.6,44.9,1.8,45,2,45c0.1,0,0.2,0,0.2,0L18,41l11.7,3.9c0.1,0,0.2,0,0.3,0c0,0,0,0,0,0c0,0,0,0,0,0c0.1,0,0.1,0,0.2,0l16-4
	c0.4-0.1,0.8-0.5,0.8-1V10c0-0.3-0.1-0.6-0.4-0.8C46.4,9,46.1,9,45.8,9z M24,3c4.4,0,9,3.4,9,9c0,4.4-6,11.6-9,14.8
	c-3-3.2-9-10.5-9-14.8C15,6.4,19.6,3,24,3z M29,42.6l-10-3.3V24.1c2.2,2.7,4.1,4.7,4.3,4.9c0.2,0.2,0.4,0.3,0.7,0.3s0.5-0.1,0.7-0.3
	c0.2-0.2,2.1-2.2,4.3-4.9V42.6z M3,14.8l10-2.5c0.1,2.8,1.9,6.1,4,9.1v17.8L3,42.7V14.8z M45,39.2l-14,3.5V21.4
	c1.7-2.4,3.2-5.1,3.8-7.6L45,11.3V39.2z"/>
<path d="M27,12c0-1.7-1.3-3-3-3s-3,1.3-3,3s1.3,3,3,3S27,13.7,27,12z M23,12c0-0.6,0.4-1,1-1s1,0.4,1,1s-0.4,1-1,1S23,12.6,23,12z"
	/>
</svg>
