<?xml version="1.0" encoding="utf-8"?>
<!-- Generator: Adobe Illustrator 20.1.0, SVG Export Plug-In . SVG Version: 6.00 Build 0)  -->
<!DOCTYPE svg PUBLIC "-//W3C//DTD SVG 1.1//EN" "http://www.w3.org/Graphics/SVG/1.1/DTD/svg11.dtd">
<svg version="1.1" id="Layer_1" xmlns="http://www.w3.org/2000/svg" xmlns:xlink="http://www.w3.org/1999/xlink" x="0px" y="0px"
	 width="32px" height="32px" viewBox="0 0 32 32" enable-background="new 0 0 32 32" xml:space="preserve">
<path d="M12,20V6c0-0.552-0.447-1-1-1h-1V1c0-0.552-0.447-1-1-1H3C2.447,0,2,0.448,2,1v4H1C0.447,5,0,5.448,0,6v14
	c0,0.552,0.447,1,1,1h10C11.553,21,12,20.552,12,20z M8,5H4V2h4V5z"/>
<path d="M31,5h-1V1c0-0.552-0.447-1-1-1h-6c-0.553,0-1,0.448-1,1v4h-1c-0.553,0-1,0.448-1,1v14c0,0.552,0.447,1,1,1h10
	c0.553,0,1-0.448,1-1V6C32,5.448,31.553,5,31,5z M28,5h-4V2h4V5z"/>
<path d="M25,30H7v-7H5v8c0,0.552,0.447,1,1,1h20c0.553,0,1-0.448,1-1v-8h-2V30z"/>
</svg>
