<?xml version="1.0" encoding="utf-8"?>
<!-- Generator: Adobe Illustrator 20.1.0, SVG Export Plug-In . SVG Version: 6.00 Build 0)  -->
<!DOCTYPE svg PUBLIC "-//W3C//DTD SVG 1.1//EN" "http://www.w3.org/Graphics/SVG/1.1/DTD/svg11.dtd">
<svg version="1.1" id="Layer_1" xmlns="http://www.w3.org/2000/svg" xmlns:xlink="http://www.w3.org/1999/xlink" x="0px" y="0px"
	 width="32px" height="32px" viewBox="0 0 32 32" enable-background="new 0 0 32 32" xml:space="preserve">
<path d="M3,32h12c1.654,0,3-1.346,3-3V8c0-1.654-1.346-3-3-3H3C1.346,5,0,6.346,0,8v21C0,30.654,1.346,32,3,32z M2,10
	c0-0.552,0.448-1,1-1h12c0.552,0,1,0.448,1,1v16c0,0.552-0.448,1-1,1H3c-0.552,0-1-0.448-1-1V10z"/>
<path d="M31,14c0-2.414-1.721-4.434-4-4.899V1c0-0.552-0.447-1-1-1H9C8.447,0,8,0.448,8,1v3h2V2h15v7.101
	c-2.279,0.465-4,2.484-4,4.899v2h-1v2h2v3h2v-3h4v3h2v-3h2v-2h-1V14z"/>
</svg>
