<?xml version="1.0" encoding="utf-8"?>
<!-- Generator: Adobe Illustrator 20.1.0, SVG Export Plug-In . SVG Version: 6.00 Build 0)  -->
<!DOCTYPE svg PUBLIC "-//W3C//DTD SVG 1.1//EN" "http://www.w3.org/Graphics/SVG/1.1/DTD/svg11.dtd">
<svg version="1.1" id="Layer_1" xmlns="http://www.w3.org/2000/svg" xmlns:xlink="http://www.w3.org/1999/xlink" x="0px" y="0px"
	 width="32px" height="32px" viewBox="0 0 32 32" enable-background="new 0 0 32 32" xml:space="preserve">
<path d="M30,11c0-6.065-4.935-11-11-11h-6C6.935,0,2,4.935,2,11v7.034c-1.246,1.479-2,3.385-2,5.466C0,28.187,3.813,32,8.5,32
	c0.569,0,1.141-0.057,1.698-0.17C10.665,31.735,11,31.325,11,30.85V16.15c0-0.476-0.335-0.886-0.802-0.98
	C9.641,15.057,9.069,15,8.5,15c-1.653,0-3.193,0.482-4.5,1.302V11c0-4.962,4.037-9,9-9h6c4.963,0,9,4.038,9,9v5.302
	C26.693,15.482,25.153,15,23.5,15c-0.569,0-1.141,0.057-1.698,0.17C21.335,15.265,21,15.675,21,16.15V30.85
	c0,0.476,0.335,0.886,0.802,0.98C22.359,31.943,22.931,32,23.5,32c4.687,0,8.5-3.813,8.5-8.5c0-2.081-0.754-3.987-2-5.466V11z"/>
</svg>
