<?xml version="1.0" encoding="utf-8"?>
<!-- Generator: Adobe Illustrator 20.1.0, SVG Export Plug-In . SVG Version: 6.00 Build 0)  -->
<!DOCTYPE svg PUBLIC "-//W3C//DTD SVG 1.1//EN" "http://www.w3.org/Graphics/SVG/1.1/DTD/svg11.dtd">
<svg version="1.1" id="Layer_1" xmlns="http://www.w3.org/2000/svg" xmlns:xlink="http://www.w3.org/1999/xlink" x="0px" y="0px"
	 width="32px" height="32px" viewBox="0 0 32 32" enable-background="new 0 0 32 32" xml:space="preserve">
<path d="M5,9v10c0,0.227,0.077,0.447,0.219,0.625L9,24.351V31c0,0.552,0.447,1,1,1h12c0.553,0,1-0.448,1-1v-6.649l3.781-4.726
	C26.923,19.447,27,19.227,27,19V9c0-0.552-0.447-1-1-1h-2V1c0-0.552-0.447-1-1-1H9C8.447,0,8,0.448,8,1v7H6C5.447,8,5,8.448,5,9z
	 M10,2h12v6h-2V5h-2v3h-4V5h-2v3h-2V2z"/>
</svg>
