<?xml version="1.0" encoding="utf-8"?>
<!-- Generator: Adobe Illustrator 20.1.0, SVG Export Plug-In . SVG Version: 6.00 Build 0)  -->
<!DOCTYPE svg PUBLIC "-//W3C//DTD SVG 1.1//EN" "http://www.w3.org/Graphics/SVG/1.1/DTD/svg11.dtd">
<svg version="1.1" id="Layer_1" xmlns="http://www.w3.org/2000/svg" xmlns:xlink="http://www.w3.org/1999/xlink" x="0px" y="0px"
	 width="32px" height="32px" viewBox="0 0 32 32" enable-background="new 0 0 32 32" xml:space="preserve">
<path d="M26,0H6C2.691,0,0,2.691,0,6v3.026l1.018-0.018L1.136,9c1.079,0.028,1.947,0.915,1.947,2c0,1.086-0.871,1.974-1.951,2
	L0,12.974v7.052l1.018-0.018L1.136,20c1.079,0.028,1.947,0.915,1.947,2c0,1.086-0.871,1.974-1.951,2L0,23.974V26
	c0,3.309,2.691,6,6,6h20c3.309,0,6-2.691,6-6v-2h-1c-1.103,0-2-0.897-2-2s0.897-2,2-2h1v-7h-1c-1.103,0-2-0.897-2-2s0.897-2,2-2h1V6
	C32,2.691,29.309,0,26,0z M14,24c0,0.552-0.447,1-1,1H8c-0.553,0-1-0.448-1-1v-5c0-0.552,0.447-1,1-1h5c0.553,0,1,0.448,1,1V24z
	 M14,13c0,0.552-0.447,1-1,1H8c-0.553,0-1-0.448-1-1V8c0-0.552,0.447-1,1-1h5c0.553,0,1,0.448,1,1V13z M25,24c0,0.552-0.447,1-1,1
	h-5c-0.553,0-1-0.448-1-1v-5c0-0.552,0.447-1,1-1h5c0.553,0,1,0.448,1,1V24z M25,13c0,0.552-0.447,1-1,1h-5c-0.553,0-1-0.448-1-1V8
	c0-0.552,0.447-1,1-1h5c0.553,0,1,0.448,1,1V13z"/>
</svg>
