<?xml version="1.0" encoding="utf-8"?>
<!-- Generator: Adobe Illustrator 20.1.0, SVG Export Plug-In . SVG Version: 6.00 Build 0)  -->
<!DOCTYPE svg PUBLIC "-//W3C//DTD SVG 1.1//EN" "http://www.w3.org/Graphics/SVG/1.1/DTD/svg11.dtd">
<svg version="1.1" id="Layer_1" xmlns="http://www.w3.org/2000/svg" xmlns:xlink="http://www.w3.org/1999/xlink" x="0px" y="0px"
	 width="32px" height="32px" viewBox="0 0 32 32" enable-background="new 0 0 32 32" xml:space="preserve">
<path d="M25,17c-3.86,0-7,3.14-7,7s3.14,7,7,7s7-3.14,7-7S28.86,17,25,17z M24.707,26.707C24.512,26.902,24.256,27,24,27
	s-0.512-0.098-0.707-0.293L20.586,24L22,22.586l2,2l4-4L29.414,22L24.707,26.707z"/>
<circle cx="16" cy="7" r="1"/>
<path d="M16.231,22H0v1c0,2.757,2.243,5,5,5h11.947C16.346,26.794,16,25.439,16,24C16,23.312,16.084,22.644,16.231,22z"/>
<path d="M29,15.947V5c0-1.654-1.346-3-3-3H6C4.346,2,3,3.346,3,5v15h2V5c0-0.551,0.448-1,1-1h20c0.552,0,1,0.449,1,1v10.231
	C27.702,15.39,28.371,15.633,29,15.947z"/>
</svg>
