<?xml version="1.0" encoding="utf-8"?>
<!-- Generator: Adobe Illustrator 20.1.0, SVG Export Plug-In . SVG Version: 6.00 Build 0)  -->
<!DOCTYPE svg PUBLIC "-//W3C//DTD SVG 1.1//EN" "http://www.w3.org/Graphics/SVG/1.1/DTD/svg11.dtd">
<svg version="1.1" id="Layer_1" xmlns="http://www.w3.org/2000/svg" xmlns:xlink="http://www.w3.org/1999/xlink" x="0px" y="0px"
	 width="32px" height="32px" viewBox="0 0 32 32" enable-background="new 0 0 32 32" xml:space="preserve">
<path d="M24,30c0.553,0,1-0.448,1-1s-0.447-1-1-1H8c-0.553,0-1,0.448-1,1s0.447,1,1,1H24z"/>
<path d="M31,2H1C0.447,2,0,2.448,0,3v21c0,0.552,0.447,1,1,1h30c0.553,0,1-0.448,1-1V3C32,2.448,31.553,2,31,2z M20.555,14.832l-6,4
	C14.388,18.943,14.194,19,14,19c-0.162,0-0.324-0.039-0.472-0.118C13.203,18.708,13,18.369,13,18v-8
	c0-0.369,0.203-0.708,0.528-0.882c0.324-0.174,0.721-0.155,1.026,0.05l6,4C20.833,13.354,21,13.666,21,14
	S20.833,14.646,20.555,14.832z"/>
</svg>
