<?xml version="1.0" encoding="utf-8"?>
<!-- Generator: Adobe Illustrator 20.1.0, SVG Export Plug-In . SVG Version: 6.00 Build 0)  -->
<!DOCTYPE svg PUBLIC "-//W3C//DTD SVG 1.1//EN" "http://www.w3.org/Graphics/SVG/1.1/DTD/svg11.dtd">
<svg version="1.1" id="Layer_1" xmlns="http://www.w3.org/2000/svg" xmlns:xlink="http://www.w3.org/1999/xlink" x="0px" y="0px"
	 width="32px" height="32px" viewBox="0 0 32 32" enable-background="new 0 0 32 32" xml:space="preserve">
<circle cx="16" cy="24" r="3"/>
<path d="M25.192,16.807C22.737,14.352,19.472,13,16,13s-6.737,1.352-9.192,3.807l2.828,2.829C11.336,17.936,13.596,17,16,17
	s4.664,0.936,6.364,2.636L25.192,16.807z"/>
<path d="M16,5C10.324,5,4.988,7.21,0.974,11.224l2.828,2.828C7.061,10.794,11.393,9,16,9s8.939,1.794,12.198,5.052l2.828-2.828
	C27.012,7.21,21.676,5,16,5z"/>
</svg>
