<?xml version="1.0" encoding="utf-8"?>
<!-- Generator: Adobe Illustrator 20.1.0, SVG Export Plug-In . SVG Version: 6.00 Build 0)  -->
<!DOCTYPE svg PUBLIC "-//W3C//DTD SVG 1.1//EN" "http://www.w3.org/Graphics/SVG/1.1/DTD/svg11.dtd">
<svg version="1.1" id="Layer_1" xmlns="http://www.w3.org/2000/svg" xmlns:xlink="http://www.w3.org/1999/xlink" x="0px" y="0px"
	 width="32px" height="32px" viewBox="0 0 32 32" enable-background="new 0 0 32 32" xml:space="preserve">
<path d="M29,4h-3.75C25.722,5.135,26,6.408,26,7.818C26,7.878,25.989,7.94,25.987,8H28v18.117l-7.991-10.136
	C21.947,13.527,24,10.335,24,7.818C24,2.924,19.933,0,16,0S8,2.924,8,7.818c0,2.516,2.053,5.709,3.991,8.163L4,26.117V8h2.013
	C6.011,7.94,6,7.878,6,7.818C6,6.408,6.278,5.135,6.75,4H3C1.346,4,0,5.346,0,7v22c0,1.654,1.346,3,3,3h26c1.654,0,3-1.346,3-3V7
	C32,5.346,30.654,4,29,4z M16,6c1.105,0,2,0.895,2,2c0,1.105-0.895,2-2,2s-2-0.895-2-2C14,6.895,14.895,6,16,6z M17,28v-5h-2v5
	H5.062l8.235-10.445c0.977,1.124,1.766,1.923,1.997,2.154L16,20.412l0.706-0.703c0.231-0.23,1.02-1.029,1.997-2.154L26.938,28H17z"
	/>
</svg>
