<?xml version="1.0" encoding="utf-8"?>
<!-- Generator: Adobe Illustrator 20.1.0, SVG Export Plug-In . SVG Version: 6.00 Build 0)  -->
<!DOCTYPE svg PUBLIC "-//W3C//DTD SVG 1.1//EN" "http://www.w3.org/Graphics/SVG/1.1/DTD/svg11.dtd">
<svg version="1.1" id="Layer_1" xmlns="http://www.w3.org/2000/svg" xmlns:xlink="http://www.w3.org/1999/xlink" x="0px" y="0px"
	 width="32px" height="32px" viewBox="0 0 32 32" enable-background="new 0 0 32 32" xml:space="preserve">
<circle cx="16" cy="7" r="1"/>
<path d="M16,22H0v1c0,2.757,2.243,5,5,5h13.726C17.059,26.533,16,24.39,16,22z"/>
<path d="M29,15.765V5c0-1.654-1.346-3-3-3H6C4.346,2,3,3.346,3,5v15h2V5c0-0.551,0.448-1,1-1h20c0.552,0,1,0.449,1,1v9.589
	C27.726,14.884,28.398,15.281,29,15.765z"/>
<path d="M28.885,25.471C29.584,24.49,30,23.294,30,22c0-3.309-2.691-6-6-6s-6,2.691-6,6s2.691,6,6,6c1.294,0,2.49-0.416,3.471-1.115
	l2.822,2.822C30.488,29.902,30.744,30,31,30s0.512-0.098,0.707-0.293c0.391-0.391,0.391-1.023,0-1.414L28.885,25.471z M24,26
	c-2.206,0-4-1.794-4-4s1.794-4,4-4s4,1.794,4,4S26.206,26,24,26z"/>
</svg>
