<?xml version="1.0" encoding="utf-8"?>
<!-- Generator: Adobe Illustrator 20.1.0, SVG Export Plug-In . SVG Version: 6.00 Build 0)  -->
<!DOCTYPE svg PUBLIC "-//W3C//DTD SVG 1.1//EN" "http://www.w3.org/Graphics/SVG/1.1/DTD/svg11.dtd">
<svg version="1.1" id="Layer_1" xmlns="http://www.w3.org/2000/svg" xmlns:xlink="http://www.w3.org/1999/xlink" x="0px" y="0px"
	 width="32px" height="32px" viewBox="0 0 32 32" enable-background="new 0 0 32 32" xml:space="preserve">
<path d="M1.421,30.964c0.543,0.784,1.46,1.167,2.458,0.984L16,29.029l12.177,2.931c0.148,0.027,0.296,0.04,0.442,0.04
	c0.777,0,1.503-0.375,1.96-1.036c0.543-0.785,0.575-1.782,0.088-2.594l-4.393-7.435C27.976,18.737,29,15.989,29,13
	c0-7.168-5.832-13-13-13S3,5.832,3,13c0,2.99,1.025,5.738,2.727,7.937l-4.39,7.427C0.846,29.183,0.878,30.179,1.421,30.964z M5,13
	C5,6.935,9.935,2,16,2s11,4.935,11,11s-4.935,11-11,11S5,19.065,5,13z"/>
<path d="M16,21c3.866,0,7-3.134,7-7c0-3.866-3.134-7-7-7s-7,3.134-7,7C9,17.866,12.134,21,16,21z M16,12c1.103,0,2,0.897,2,2
	s-0.897,2-2,2s-2-0.897-2-2S14.897,12,16,12z"/>
</svg>
