<?xml version="1.0" encoding="utf-8"?>
<!-- Generator: Adobe Illustrator 20.1.0, SVG Export Plug-In . SVG Version: 6.00 Build 0)  -->
<!DOCTYPE svg PUBLIC "-//W3C//DTD SVG 1.1//EN" "http://www.w3.org/Graphics/SVG/1.1/DTD/svg11.dtd">
<svg version="1.1" id="Layer_1" xmlns="http://www.w3.org/2000/svg" xmlns:xlink="http://www.w3.org/1999/xlink" x="0px" y="0px"
	 width="32px" height="32px" viewBox="0 0 32 32" enable-background="new 0 0 32 32" xml:space="preserve">
<rect x="8" y="8" width="16" height="2"/>
<rect x="8" y="14" width="16" height="2"/>
<rect x="8" y="20" width="10" height="2"/>
<path d="M2,3v26c0,1.654,1.346,3,3,3h22c1.654,0,3-1.346,3-3V3c0-1.654-1.346-3-3-3H5C3.346,0,2,1.346,2,3z M28,5v21
	c0,0.552-0.448,1-1,1H5c-0.552,0-1-0.448-1-1V5c0-0.552,0.448-1,1-1h22C27.552,4,28,4.448,28,5z"/>
</svg>
