<?xml version="1.0" encoding="utf-8"?>
<!-- Generator: Adobe Illustrator 20.1.0, SVG Export Plug-In . SVG Version: 6.00 Build 0)  -->
<!DOCTYPE svg PUBLIC "-//W3C//DTD SVG 1.1//EN" "http://www.w3.org/Graphics/SVG/1.1/DTD/svg11.dtd">
<svg version="1.1" id="Layer_1" xmlns="http://www.w3.org/2000/svg" xmlns:xlink="http://www.w3.org/1999/xlink" x="0px" y="0px"
	 width="32px" height="32px" viewBox="0 0 32 32" enable-background="new 0 0 32 32" xml:space="preserve">
<path d="M23,18c-3.86,0-7,3.14-7,7s3.14,7,7,7s7-3.14,7-7S26.86,18,23,18z M22.707,27.707C22.512,27.902,22.256,28,22,28
	s-0.512-0.098-0.707-0.293L18.586,25L20,23.586l2,2l4-4L27.414,23L22.707,27.707z"/>
<path d="M2,3v26c0,1.654,1.346,3,3,3h12.349c-1.281-1.035-2.265-2.417-2.826-4H5c-0.552,0-1-0.448-1-1V5c0-0.552,0.448-1,1-1h16
	c0.552,0,1,0.448,1,1v11.059C22.329,16.022,22.662,16,23,16s0.671,0.022,1,0.059V3c0-1.654-1.346-3-3-3H5C3.346,0,2,1.346,2,3z"/>
</svg>
