<?xml version="1.0" encoding="utf-8"?>
<!-- Generator: Adobe Illustrator 20.1.0, SVG Export Plug-In . SVG Version: 6.00 Build 0)  -->
<!DOCTYPE svg PUBLIC "-//W3C//DTD SVG 1.1//EN" "http://www.w3.org/Graphics/SVG/1.1/DTD/svg11.dtd">
<svg version="1.1" id="Layer_1" xmlns="http://www.w3.org/2000/svg" xmlns:xlink="http://www.w3.org/1999/xlink" x="0px" y="0px"
	 width="32px" height="32px" viewBox="0 0 32 32" enable-background="new 0 0 32 32" xml:space="preserve">
<path d="M8,32h16c1.654,0,3-1.346,3-3V3c0-1.654-1.346-3-3-3H8C6.346,0,5,1.346,5,3v26C5,30.654,6.346,32,8,32z M16,2
	c0.552,0,1,0.448,1,1s-0.448,1-1,1s-1-0.448-1-1S15.448,2,16,2z M7,7c0-0.552,0.448-1,1-1h16c0.552,0,1,0.448,1,1v20
	c0,0.552-0.448,1-1,1H8c-0.552,0-1-0.448-1-1V7z"/>
</svg>
