<?xml version="1.0" encoding="utf-8"?>
<!-- Generator: Adobe Illustrator 20.1.0, SVG Export Plug-In . SVG Version: 6.00 Build 0)  -->
<!DOCTYPE svg PUBLIC "-//W3C//DTD SVG 1.1//EN" "http://www.w3.org/Graphics/SVG/1.1/DTD/svg11.dtd">
<svg version="1.1" id="Layer_1" xmlns="http://www.w3.org/2000/svg" xmlns:xlink="http://www.w3.org/1999/xlink" x="0px" y="0px"
	 width="32px" height="32px" viewBox="0 0 32 32" enable-background="new 0 0 32 32" xml:space="preserve">
<path d="M8,27h16c1.657,0,3-1.343,3-3v-5h2v-6h-2V8c0-1.657-1.343-3-3-3H8C6.343,5,5,6.343,5,8v16C5,25.657,6.343,27,8,27z M8,9
	c0-0.552,0.448-1,1-1h14c0.552,0,1,0.448,1,1v14c0,0.552-0.448,1-1,1H9c-0.552,0-1-0.448-1-1V9z"/>
<path d="M22.98,0.804C22.887,0.336,22.477,0,22,0H10C9.523,0,9.113,0.336,9.02,0.804L8.58,3H23.42L22.98,0.804z"/>
<path d="M10,32h12c0.477,0,0.887-0.336,0.98-0.804L23.42,29H8.58l0.439,2.196C9.113,31.664,9.523,32,10,32z"/>
</svg>
