<?xml version="1.0" encoding="utf-8"?>
<!-- Generator: Adobe Illustrator 20.1.0, SVG Export Plug-In . SVG Version: 6.00 Build 0)  -->
<!DOCTYPE svg PUBLIC "-//W3C//DTD SVG 1.1//EN" "http://www.w3.org/Graphics/SVG/1.1/DTD/svg11.dtd">
<svg version="1.1" id="Layer_1" xmlns="http://www.w3.org/2000/svg" xmlns:xlink="http://www.w3.org/1999/xlink" x="0px" y="0px"
	 width="32px" height="32px" viewBox="0 0 32 32" enable-background="new 0 0 32 32" xml:space="preserve">
<path d="M30,27V14c0-7.72-6.28-14-14-14S2,6.28,2,14v9c0,2.206,1.794,4,4,4h3c0.552,0,1-0.448,1-1V16c0-0.552-0.448-1-1-1H4v-1
	C4,7.383,9.383,2,16,2s12,5.383,12,12v1h-5c-0.552,0-1,0.448-1,1v10c0,0.552,0.448,1,1,1h3c0.732,0,1.409-0.212,2-0.556V27
	c0,1.654-1.346,3-3,3h-6c-0.552,0-1,0.448-1,1s0.448,1,1,1h6C27.757,32,30,29.757,30,27z"/>
</svg>
