<?xml version="1.0" encoding="utf-8"?>
<!-- Generator: Adobe Illustrator 20.1.0, SVG Export Plug-In . SVG Version: 6.00 Build 0)  -->
<!DOCTYPE svg PUBLIC "-//W3C//DTD SVG 1.1//EN" "http://www.w3.org/Graphics/SVG/1.1/DTD/svg11.dtd">
<svg version="1.1" id="Layer_1" xmlns="http://www.w3.org/2000/svg" xmlns:xlink="http://www.w3.org/1999/xlink" x="0px" y="0px"
	 width="32px" height="32px" viewBox="0 0 32 32" enable-background="new 0 0 32 32" xml:space="preserve">
<path d="M8.162,26.908l0.858,4.288C9.113,31.664,9.523,32,10,32h12c0.477,0,0.887-0.336,0.98-0.804l0.858-4.288
	C25.642,26.522,27,24.918,27,23v-4h2v-6h-2V9c0-1.918-1.358-3.522-3.162-3.908L22.98,0.804C22.887,0.336,22.477,0,22,0H10
	C9.523,0,9.113,0.336,9.02,0.804L8.162,5.092C6.358,5.478,5,7.082,5,9v14C5,24.918,6.358,26.522,8.162,26.908z M7,9
	c0-1.103,0.897-2,2-2h14c1.103,0,2,0.897,2,2v4v2v2v2v4c0,1.103-0.897,2-2,2H9c-1.103,0-2-0.897-2-2V9z"/>
<polygon points="22,15 17,15 17,10 15,10 15,17 22,17 "/>
</svg>
