<?xml version="1.0" encoding="utf-8"?>
<!-- Generator: Adobe Illustrator 20.1.0, SVG Export Plug-In . SVG Version: 6.00 Build 0)  -->
<!DOCTYPE svg PUBLIC "-//W3C//DTD SVG 1.1//EN" "http://www.w3.org/Graphics/SVG/1.1/DTD/svg11.dtd">
<svg version="1.1" id="Layer_1" xmlns="http://www.w3.org/2000/svg" xmlns:xlink="http://www.w3.org/1999/xlink" x="0px" y="0px"
	 width="32px" height="32px" viewBox="0 0 32 32" enable-background="new 0 0 32 32" xml:space="preserve">
<path d="M13.022,25.22C13.137,26.772,14.419,28,16,28c1.657,0,3-1.343,3-3c0-1.581-1.228-2.863-2.78-2.978L13.022,25.22z"/>
<path d="M22.364,20.636l2.828-2.829c-0.815-0.815-1.727-1.496-2.698-2.059l-2.97,2.97C20.572,19.164,21.535,19.807,22.364,20.636z"
	/>
<path d="M16,10c1.948,0,3.838,0.342,5.626,0.96l-3.267,3.267C17.588,14.083,16.801,14,16,14c-3.473,0-6.737,1.352-9.192,3.808
	l2.828,2.828c1.327-1.327,2.997-2.18,4.808-2.494L5.586,27L7,28.414L30.414,5L29,3.586l-4.285,4.285C22.01,6.651,19.056,6,16,6
	C10.324,6,4.988,8.21,0.975,12.224l2.828,2.828C7.061,11.794,11.393,10,16,10z"/>
<path d="M25.433,12.809c0.984,0.646,1.913,1.391,2.764,2.243l2.828-2.828c-0.849-0.849-1.768-1.598-2.726-2.282L25.433,12.809z"/>
</svg>
