<?xml version="1.0" encoding="utf-8"?>
<!-- Generator: Adobe Illustrator 20.1.0, SVG Export Plug-In . SVG Version: 6.00 Build 0)  -->
<!DOCTYPE svg PUBLIC "-//W3C//DTD SVG 1.1//EN" "http://www.w3.org/Graphics/SVG/1.1/DTD/svg11.dtd">
<svg version="1.1" id="Layer_1" xmlns="http://www.w3.org/2000/svg" xmlns:xlink="http://www.w3.org/1999/xlink" x="0px" y="0px"
	 width="32px" height="32px" viewBox="0 0 32 32" enable-background="new 0 0 32 32" xml:space="preserve">
<path d="M28,2H4C1.794,2,0,3.794,0,6v20c0,2.206,1.794,4,4,4h24c2.206,0,4-1.794,4-4V6C32,3.794,30.206,2,28,2z M28,25
	c0,0.552-0.448,1-1,1H5c-0.552,0-1-0.448-1-1V7c0-0.552,0.448-1,1-1h22c0.552,0,1,0.448,1,1V25z"/>
<path d="M19.555,15.168l-6-4c-0.307-0.205-0.702-0.223-1.026-0.05C12.203,11.292,12,11.631,12,12v8c0,0.369,0.203,0.708,0.528,0.882
	C12.676,20.961,12.838,21,13,21c0.194,0,0.388-0.057,0.555-0.168l6-4C19.833,16.646,20,16.334,20,16S19.833,15.354,19.555,15.168z"
	/>
</svg>
