<?xml version="1.0" encoding="utf-8"?>
<!-- Generator: Adobe Illustrator 20.1.0, SVG Export Plug-In . SVG Version: 6.00 Build 0)  -->
<!DOCTYPE svg PUBLIC "-//W3C//DTD SVG 1.1//EN" "http://www.w3.org/Graphics/SVG/1.1/DTD/svg11.dtd">
<svg version="1.1" id="Layer_1" xmlns="http://www.w3.org/2000/svg" xmlns:xlink="http://www.w3.org/1999/xlink" x="0px" y="0px"
	 width="32px" height="32px" viewBox="0 0 32 32" enable-background="new 0 0 32 32" xml:space="preserve">
<path d="M21.822,21.849l-1.973,0.329l1.164,6.986C21.094,29.646,21.511,30,22,30h10v-2h-9.153L21.822,21.849z"/>
<rect x="1.208" y="8.476" transform="matrix(0.9831 -0.1831 0.1831 0.9831 -2.7075 0.6577)" width="2" height="13.03"/>
<path d="M31.595,16.479L29.071,2.923c-0.049-0.261-0.199-0.491-0.418-0.642c-0.217-0.149-0.486-0.208-0.748-0.158l-23.3,4.339
	C4.345,6.511,4.113,6.661,3.964,6.879c-0.15,0.219-0.207,0.488-0.159,0.749l2.524,13.555C6.419,21.664,6.839,22,7.312,22
	c0.061,0,0.122-0.005,0.184-0.017l23.299-4.338C31.337,17.543,31.695,17.021,31.595,16.479z M11.5,13c-0.828,0-1.5-0.672-1.5-1.5
	s0.672-1.5,1.5-1.5s1.5,0.672,1.5,1.5S12.328,13,11.5,13z"/>
</svg>
