<?xml version="1.0" encoding="utf-8"?>
<!-- Generator: Adobe Illustrator 20.1.0, SVG Export Plug-In . SVG Version: 6.00 Build 0)  -->
<!DOCTYPE svg PUBLIC "-//W3C//DTD SVG 1.1//EN" "http://www.w3.org/Graphics/SVG/1.1/DTD/svg11.dtd">
<svg version="1.1" id="Layer_1" xmlns="http://www.w3.org/2000/svg" xmlns:xlink="http://www.w3.org/1999/xlink" x="0px" y="0px"
	 width="32px" height="32px" viewBox="0 0 32 32" enable-background="new 0 0 32 32" xml:space="preserve">
<path d="M22,0H6C4.346,0,3,1.346,3,3v26c0,1.654,1.346,3,3,3h16c0.233,0,0.458-0.033,0.675-0.083
	c-0.759-0.767-2.094-2.202-3.283-3.917H6c-0.552,0-1-0.448-1-1V5c0-0.552,0.448-1,1-1h16c0.552,0,1,0.448,1,1v9.263
	C23.641,14.097,24.308,14,25,14V3C25,1.346,23.654,0,22,0z"/>
<path d="M25,16c-3.309,0-6,2.691-6,6c0,3.383,4.755,8.176,5.297,8.711L25,31.405l0.703-0.694C26.245,30.176,31,25.383,31,22
	C31,18.691,28.309,16,25,16z M25,24c-1.105,0-2-0.895-2-2c0-1.105,0.895-2,2-2c1.105,0,2,0.895,2,2C27,23.105,26.105,24,25,24z"/>
</svg>
