<?xml version="1.0" encoding="utf-8"?>
<!-- Generator: Adobe Illustrator 20.1.0, SVG Export Plug-In . SVG Version: 6.00 Build 0)  -->
<!DOCTYPE svg PUBLIC "-//W3C//DTD SVG 1.1//EN" "http://www.w3.org/Graphics/SVG/1.1/DTD/svg11.dtd">
<svg version="1.1" id="Layer_1" xmlns="http://www.w3.org/2000/svg" xmlns:xlink="http://www.w3.org/1999/xlink" x="0px" y="0px"
	 width="32px" height="32px" viewBox="0 0 32 32" enable-background="new 0 0 32 32" xml:space="preserve">
<path d="M11,28v1h2v-1c0-6.617-5.383-12-12-12H0v2h1C6.514,18,11,22.486,11,28z"/>
<path d="M6,28v1h2v-1c0-3.859-3.14-7-7-7H0v2h1C3.757,23,6,25.243,6,28z"/>
<path d="M3,28c0-1.103-0.897-2-2-2H0v3h3V28z"/>
<path d="M31,3H4C3.448,3,3,3.447,3,4v9.149C10.011,14.085,15.477,19.853,15.95,27H31c0.552,0,1-0.447,1-1V4C32,3.447,31.552,3,31,3z
	"/>
</svg>
