<?xml version="1.0" encoding="utf-8"?>
<!-- Generator: Adobe Illustrator 20.1.0, SVG Export Plug-In . SVG Version: 6.00 Build 0)  -->
<!DOCTYPE svg PUBLIC "-//W3C//DTD SVG 1.1//EN" "http://www.w3.org/Graphics/SVG/1.1/DTD/svg11.dtd">
<svg version="1.1" id="Layer_1" xmlns="http://www.w3.org/2000/svg" xmlns:xlink="http://www.w3.org/1999/xlink" x="0px" y="0px"
	 width="32px" height="32px" viewBox="0 0 32 32" enable-background="new 0 0 32 32" xml:space="preserve">
<rect x="1" y="30" width="30" height="2"/>
<path d="M9,27h14c1.654,0,3-1.346,3-3V3c0-1.654-1.346-3-3-3H9C7.346,0,6,1.346,6,3v21C6,25.654,7.346,27,9,27z M8,5
	c0-0.552,0.448-1,1-1h14c0.552,0,1,0.448,1,1v17c0,0.552-0.448,1-1,1H9c-0.552,0-1-0.448-1-1V5z"/>
</svg>
