<?xml version="1.0" encoding="utf-8"?>
<!-- Generator: Adobe Illustrator 19.2.1, SVG Export Plug-In . SVG Version: 6.00 Build 0)  -->
<!DOCTYPE svg PUBLIC "-//W3C//DTD SVG 1.1//EN" "http://www.w3.org/Graphics/SVG/1.1/DTD/svg11.dtd">
<svg version="1.1" id="Layer_1" xmlns="http://www.w3.org/2000/svg" xmlns:xlink="http://www.w3.org/1999/xlink" x="0px" y="0px"
	 width="24px" height="24px" viewBox="0 0 24 24" enable-background="new 0 0 24 24" xml:space="preserve">
<path d="M23,9h-1.461C20.56,5.895,18.105,3.44,15,2.461V1c0-0.552-0.447-1-1-1h-4C9.447,0,9,0.448,9,1v1.461
	C5.895,3.44,3.44,5.895,2.461,9H1c-0.553,0-1,0.448-1,1v4c0,0.552,0.447,1,1,1h1.461C3.44,18.105,5.895,20.56,9,21.539V23
	c0,0.552,0.447,1,1,1h4c0.553,0,1-0.448,1-1v-1.461c3.105-0.979,5.56-3.434,6.539-6.539H23c0.553,0,1-0.448,1-1v-4
	C24,9.448,23.553,9,23,9z M15,19.411V19c0-0.552-0.447-1-1-1h-4c-0.553,0-1,0.448-1,1v0.411C6.999,18.598,5.402,17.001,4.589,15H5
	c0.553,0,1-0.448,1-1v-4c0-0.552-0.447-1-1-1H4.589C5.402,6.999,6.999,5.402,9,4.589V5c0,0.552,0.447,1,1,1h4c0.553,0,1-0.448,1-1
	V4.589c2.001,0.813,3.598,2.41,4.411,4.411H19c-0.553,0-1,0.448-1,1v4c0,0.552,0.447,1,1,1h0.411
	C18.598,17.001,17.001,18.598,15,19.411z"/>
</svg>
