<?xml version="1.0" encoding="utf-8"?>
<!-- Generator: Adobe Illustrator 19.2.1, SVG Export Plug-In . SVG Version: 6.00 Build 0)  -->
<!DOCTYPE svg PUBLIC "-//W3C//DTD SVG 1.1//EN" "http://www.w3.org/Graphics/SVG/1.1/DTD/svg11.dtd">
<svg version="1.1" id="Layer_1" xmlns="http://www.w3.org/2000/svg" xmlns:xlink="http://www.w3.org/1999/xlink" x="0px" y="0px"
	 width="24px" height="24px" viewBox="0 0 24 24" enable-background="new 0 0 24 24" xml:space="preserve">
<path d="M0.877,13.708c-1.17,1.169-1.17,3.073,0,4.242l5.172,5.172C6.616,23.688,7.369,24,8.17,24s1.555-0.312,2.121-0.878
	l0.879-0.879l-9.414-9.414L0.877,13.708z"/>
<path d="M17.951,0.85c-1.133-1.133-3.109-1.133-4.242,0L12.83,1.729l9.414,9.414l0.879-0.879c1.17-1.169,1.17-3.073,0-4.242
	L17.951,0.85z"/>
<path d="M20.843,12.571l-9.414-9.414l-8.258,8.258l9.414,9.414L20.843,12.571z M15,11c0.552,0,1,0.448,1,1c0,0.552-0.448,1-1,1
	s-1-0.448-1-1C14,11.448,14.448,11,15,11z M12,8c0.552,0,1,0.448,1,1c0,0.552-0.448,1-1,1s-1-0.448-1-1C11,8.448,11.448,8,12,8z
	 M9,13c-0.552,0-1-0.448-1-1c0-0.552,0.448-1,1-1s1,0.448,1,1C10,12.552,9.552,13,9,13z M11,15c0-0.552,0.448-1,1-1s1,0.448,1,1
	c0,0.552-0.448,1-1,1S11,15.552,11,15z"/>
</svg>
