<?xml version="1.0" encoding="utf-8"?>
<!-- Generator: Adobe Illustrator 19.2.1, SVG Export Plug-In . SVG Version: 6.00 Build 0)  -->
<!DOCTYPE svg PUBLIC "-//W3C//DTD SVG 1.1//EN" "http://www.w3.org/Graphics/SVG/1.1/DTD/svg11.dtd">
<svg version="1.1" id="Layer_1" xmlns="http://www.w3.org/2000/svg" xmlns:xlink="http://www.w3.org/1999/xlink" x="0px" y="0px"
	 width="24px" height="24px" viewBox="0 0 24 24" enable-background="new 0 0 24 24" xml:space="preserve">
<path d="M22.518,9.025L20.241,7.65l-2.3,9.284l4.916-6.537C23.142,9.925,22.99,9.311,22.518,9.025z"/>
<path d="M18.241,3.25L16,2.694v13.76l2.971-11.993C19.104,3.925,18.777,3.383,18.241,3.25z"/>
<path d="M2,23c0,0.553,0.448,1,1,1h10c0.552,0,1-0.447,1-1v-7H2V23z M8,18c1.103,0,2,0.897,2,2s-0.897,2-2,2s-2-0.897-2-2
	S6.896,18,8,18z"/>
<path d="M13,0H3C2.447,0,2,0.447,2,1v13h12V1C14,0.447,13.552,0,13,0z"/>
</svg>
