<?xml version="1.0" encoding="utf-8"?>
<!-- Generator: Adobe Illustrator 19.2.1, SVG Export Plug-In . SVG Version: 6.00 Build 0)  -->
<!DOCTYPE svg PUBLIC "-//W3C//DTD SVG 1.1//EN" "http://www.w3.org/Graphics/SVG/1.1/DTD/svg11.dtd">
<svg version="1.1" id="Layer_1" xmlns="http://www.w3.org/2000/svg" xmlns:xlink="http://www.w3.org/1999/xlink" x="0px" y="0px"
	 width="24px" height="24px" viewBox="0 0 24 24" enable-background="new 0 0 24 24" xml:space="preserve">
<path d="M1,7h20c0.552,0,1-0.448,1-1V2c0-0.552-0.448-1-1-1H1C0.448,1,0,1.448,0,2v4C0,6.552,0.448,7,1,7z"/>
<path d="M21,9.24l-0.823,1.191C19.522,11.379,18,13.722,18,15c0,1.654,1.346,3,3,3s3-1.346,3-3c0-1.278-1.522-3.621-2.177-4.568
	L21,9.24z"/>
<path d="M1,9v3c0,0.552,0.447,1,1,1h8v3H8v7c0,0.552,0.448,1,1,1h4c0.552,0,1-0.448,1-1v-7h-2v-4c0-0.552-0.447-1-1-1H3V9H1z"/>
</svg>
