<?xml version="1.0" encoding="utf-8"?>
<!-- Generator: Adobe Illustrator 19.2.1, SVG Export Plug-In . SVG Version: 6.00 Build 0)  -->
<!DOCTYPE svg PUBLIC "-//W3C//DTD SVG 1.1//EN" "http://www.w3.org/Graphics/SVG/1.1/DTD/svg11.dtd">
<svg version="1.1" id="Layer_1" xmlns="http://www.w3.org/2000/svg" xmlns:xlink="http://www.w3.org/1999/xlink" x="0px" y="0px"
	 width="24px" height="24px" viewBox="0 0 24 24" enable-background="new 0 0 24 24" xml:space="preserve">
<path d="M2,7h4c0.553,0,1-0.447,1-1V2c0-0.553-0.447-1-1-1H2C1.447,1,1,1.447,1,2v4C1,6.553,1.447,7,2,7z"/>
<path d="M1,14c0,0.553,0.447,1,1,1h4c0.553,0,1-0.447,1-1v-4c0-0.553-0.447-1-1-1H2c-0.553,0-1,0.447-1,1V14z"/>
<path d="M1,22c0,0.553,0.447,1,1,1h4c0.553,0,1-0.447,1-1v-4c0-0.553-0.447-1-1-1H2c-0.553,0-1,0.447-1,1V22z"/>
<rect x="9" y="3" width="14" height="2"/>
<rect x="9" y="11" width="14" height="2"/>
<rect x="9" y="19" width="14" height="2"/>
</svg>
