<?xml version="1.0" encoding="utf-8"?>
<!-- Generator: Adobe Illustrator 19.2.1, SVG Export Plug-In . SVG Version: 6.00 Build 0)  -->
<!DOCTYPE svg PUBLIC "-//W3C//DTD SVG 1.1//EN" "http://www.w3.org/Graphics/SVG/1.1/DTD/svg11.dtd">
<svg version="1.1" id="Layer_1" xmlns="http://www.w3.org/2000/svg" xmlns:xlink="http://www.w3.org/1999/xlink" x="0px" y="0px"
	 width="24px" height="24px" viewBox="0 0 24 24" enable-background="new 0 0 24 24" xml:space="preserve">
<path d="M22,0H2C1.447,0,1,0.448,1,1v22c0,0.552,0.447,1,1,1h20c0.553,0,1-0.448,1-1V1C23,0.448,22.553,0,22,0z M6,18H4v-2h2V18z
	 M6,13H4v-2h2V13z M6,8H4V6h2V8z M16,15h-6v-2h6V15z M19,11h-9V9h9V11z"/>
</svg>
