<?xml version="1.0" encoding="utf-8"?>
<!-- Generator: Adobe Illustrator 19.2.1, SVG Export Plug-In . SVG Version: 6.00 Build 0)  -->
<!DOCTYPE svg PUBLIC "-//W3C//DTD SVG 1.1//EN" "http://www.w3.org/Graphics/SVG/1.1/DTD/svg11.dtd">
<svg version="1.1" id="Layer_1" xmlns="http://www.w3.org/2000/svg" xmlns:xlink="http://www.w3.org/1999/xlink" x="0px" y="0px"
	 width="24px" height="24px" viewBox="0 0 24 24" enable-background="new 0 0 24 24" xml:space="preserve">
<path d="M1,24h12c0.552,0,1-0.448,1-1V11l-4-3V4c0-0.552-0.448-1-1-1H5C4.448,3,4,3.448,4,4v4l-4,3v12C0,23.552,0.448,24,1,24z"/>
<rect x="19" y="7" width="5" height="2"/>
<rect x="17.133" y="0.974" transform="matrix(0.7071 -0.7071 0.7071 0.7071 4.1471 13.9604)" width="3.584" height="2"/>
<rect x="17.949" y="12.29" transform="matrix(0.7071 -0.7071 0.7071 0.7071 -4.3842 17.5141)" width="2" height="3.518"/>
</svg>
