<?xml version="1.0" encoding="utf-8"?>
<!-- Generator: Adobe Illustrator 19.2.1, SVG Export Plug-In . SVG Version: 6.00 Build 0)  -->
<!DOCTYPE svg PUBLIC "-//W3C//DTD SVG 1.1//EN" "http://www.w3.org/Graphics/SVG/1.1/DTD/svg11.dtd">
<svg version="1.1" id="Layer_1" xmlns="http://www.w3.org/2000/svg" xmlns:xlink="http://www.w3.org/1999/xlink" x="0px" y="0px"
	 width="24px" height="24px" viewBox="0 0 24 24" enable-background="new 0 0 24 24" xml:space="preserve">
<path d="M2,23c0.065,0,0.131-0.006,0.196-0.02l4.475-0.895l-4.757-4.757L1.02,21.804c-0.066,0.328,0.037,0.667,0.273,0.903
	C1.482,22.896,1.737,23,2,23z"/>
<rect x="3.515" y="9.172" transform="matrix(0.7071 -0.7071 0.7071 0.7071 -5.9706 11.5858)" width="14.971" height="7.657"/>
<path d="M22.707,6.707c0.391-0.391,0.391-1.023,0-1.414l-4-4c-0.391-0.391-1.023-0.391-1.414,0L15,3.586L20.414,9L22.707,6.707z"/>
</svg>
