<?xml version="1.0" encoding="utf-8"?>
<!-- Generator: Adobe Illustrator 19.2.1, SVG Export Plug-In . SVG Version: 6.00 Build 0)  -->
<!DOCTYPE svg PUBLIC "-//W3C//DTD SVG 1.1//EN" "http://www.w3.org/Graphics/SVG/1.1/DTD/svg11.dtd">
<svg version="1.1" id="Layer_1" xmlns="http://www.w3.org/2000/svg" xmlns:xlink="http://www.w3.org/1999/xlink" x="0px" y="0px"
	 width="24px" height="24px" viewBox="0 0 24 24" enable-background="new 0 0 24 24" xml:space="preserve">
<path d="M1,1v22c0,0.552,0.447,1,1,1h20c0.553,0,1-0.448,1-1V1c0-0.552-0.447-1-1-1H2C1.447,0,1,0.448,1,1z M4,3h3v3h3
	c0-1.105,0.895-2,2-2s2,0.895,2,2h3V3h3v18H4V3z"/>
<path d="M11,14.586l-2-2L7.586,14l2.707,2.707C10.488,16.902,10.744,17,11,17s0.512-0.098,0.707-0.293L16.414,12L15,10.586
	L11,14.586z"/>
</svg>
