<?xml version="1.0" encoding="utf-8"?>
<!-- Generator: Adobe Illustrator 19.2.1, SVG Export Plug-In . SVG Version: 6.00 Build 0)  -->
<!DOCTYPE svg PUBLIC "-//W3C//DTD SVG 1.1//EN" "http://www.w3.org/Graphics/SVG/1.1/DTD/svg11.dtd">
<svg version="1.1" id="Layer_1" xmlns="http://www.w3.org/2000/svg" xmlns:xlink="http://www.w3.org/1999/xlink" x="0px" y="0px"
	 width="24px" height="24px" viewBox="0 0 24 24" enable-background="new 0 0 24 24" xml:space="preserve">
<path d="M21,15c-1.657,0-3,1.343-3,3s3,5,3,5s3-3.343,3-5S22.657,15,21,15z"/>
<path d="M23,13.424V3c0-1.105-0.895-2-2-2c-1.105,0-2,0.896-2,2v10.424C19.614,13.154,20.288,13,21,13S22.386,13.154,23,13.424z"/>
<path d="M14,24c1.105,0,2-0.895,2-2V2c0-1.105-0.895-2-2-2H3C1.895,0,1,0.895,1,2v20c0,1.105,0.895,2,2,2H14z M8.5,21
	C7.672,21,7,20.328,7,19.5S7.672,18,8.5,18s1.5,0.672,1.5,1.5S9.328,21,8.5,21z M4,4c0-0.552,0.448-1,1-1h7c0.552,0,1,0.448,1,1v10
	c0,0.552-0.448,1-1,1H5c-0.552,0-1-0.448-1-1V4z"/>
</svg>
