<?xml version="1.0" encoding="utf-8"?>
<!-- Generator: Adobe Illustrator 19.2.1, SVG Export Plug-In . SVG Version: 6.00 Build 0)  -->
<!DOCTYPE svg PUBLIC "-//W3C//DTD SVG 1.1//EN" "http://www.w3.org/Graphics/SVG/1.1/DTD/svg11.dtd">
<svg version="1.1" id="Layer_1" xmlns="http://www.w3.org/2000/svg" xmlns:xlink="http://www.w3.org/1999/xlink" x="0px" y="0px"
	 width="24px" height="24px" viewBox="0 0 24 24" enable-background="new 0 0 24 24" xml:space="preserve">
<path d="M16.414,12l2.293-2.293c0.391-0.391,0.391-1.023,0-1.414l-3-3c-0.391-0.391-1.023-0.391-1.414,0L12,7.586L16.414,12z"/>
<path d="M4.293,22.707C4.488,22.902,4.744,23,5,23s0.512-0.098,0.707-0.293L15,13.414L10.586,9l-9.293,9.293
	c-0.391,0.391-0.391,1.023,0,1.414L4.293,22.707z"/>
<rect x="14" width="2" height="3"/>
<rect x="18.803" y="2.697" transform="matrix(0.7071 -0.7071 0.7071 0.7071 3.3328 15.4393)" width="3" height="2"/>
<rect x="21" y="8" width="3" height="2"/>
<rect x="19.303" y="12.803" transform="matrix(0.7071 -0.7071 0.7071 0.7071 -4.1673 18.5454)" width="2" height="3"/>
<rect x="8.697" y="2.197" transform="matrix(0.7071 -0.7071 0.7071 0.7071 0.2262 7.9396)" width="2" height="3"/>
</svg>
