<?xml version="1.0" encoding="utf-8"?>
<!-- Generator: Adobe Illustrator 19.2.1, SVG Export Plug-In . SVG Version: 6.00 Build 0)  -->
<!DOCTYPE svg PUBLIC "-//W3C//DTD SVG 1.1//EN" "http://www.w3.org/Graphics/SVG/1.1/DTD/svg11.dtd">
<svg version="1.1" id="Layer_1" xmlns="http://www.w3.org/2000/svg" xmlns:xlink="http://www.w3.org/1999/xlink" x="0px" y="0px"
	 width="24px" height="24px" viewBox="0 0 24 24" enable-background="new 0 0 24 24" xml:space="preserve">
<path d="M6,5v5c0,0.553,0.448,1,1,1h14c0.552,0,1-0.447,1-1V5c0-0.553-0.448-1-1-1H7C6.448,4,6,4.447,6,5z"/>
<path d="M6,19c0,0.553,0.448,1,1,1h8c0.552,0,1-0.447,1-1v-5c0-0.553-0.448-1-1-1H7c-0.552,0-1,0.447-1,1V19z"/>
<rect x="2" width="2" height="24"/>
</svg>
