<?xml version="1.0" encoding="utf-8"?>
<!-- Generator: Adobe Illustrator 19.2.1, SVG Export Plug-In . SVG Version: 6.00 Build 0)  -->
<!DOCTYPE svg PUBLIC "-//W3C//DTD SVG 1.1//EN" "http://www.w3.org/Graphics/SVG/1.1/DTD/svg11.dtd">
<svg version="1.1" id="Layer_1" xmlns="http://www.w3.org/2000/svg" xmlns:xlink="http://www.w3.org/1999/xlink" x="0px" y="0px"
	 width="24px" height="24px" viewBox="0 0 24 24" enable-background="new 0 0 24 24" xml:space="preserve">
<path d="M5.445,16.832L11,20.535V24h2v-2.465l5.555-3.703C18.833,17.647,19,17.334,19,17v-2h2V9h-6v6h2v1.465l-4,2.667V5h3l-3.958-5
	L8,5h3v13.132l-4-2.667v-2.649c1.336-0.477,2.245-1.861,1.941-3.416c-0.23-1.175-1.198-2.131-2.376-2.348C4.664,6.703,3,8.161,3,10
	c0,1.302,0.839,2.402,2,2.816V16C5,16.334,5.167,16.647,5.445,16.832z"/>
</svg>
