<?xml version="1.0" encoding="utf-8"?>
<!-- Generator: Adobe Illustrator 19.2.1, SVG Export Plug-In . SVG Version: 6.00 Build 0)  -->
<!DOCTYPE svg PUBLIC "-//W3C//DTD SVG 1.1//EN" "http://www.w3.org/Graphics/SVG/1.1/DTD/svg11.dtd">
<svg version="1.1" id="Layer_1" xmlns="http://www.w3.org/2000/svg" xmlns:xlink="http://www.w3.org/1999/xlink" x="0px" y="0px"
	 width="24px" height="24px" viewBox="0 0 24 24" enable-background="new 0 0 24 24" xml:space="preserve">
<path d="M23,16h-1.58l-1.8-9H20c0.552,0,1-0.448,1-1V2c0-0.552-0.448-1-1-1h-4c-0.552,0-1,0.448-1,1v1H9V2c0-0.552-0.448-1-1-1H4
	C3.448,1,3,1.448,3,2v4c0,0.552,0.448,1,1,1h0.38l-1.8,9H1c-0.552,0-1,0.448-1,1v4c0,0.552,0.448,1,1,1h4c0.552,0,1-0.448,1-1v-1h12
	v1c0,0.552,0.448,1,1,1h4c0.552,0,1-0.448,1-1v-4C24,16.448,23.552,16,23,16z M6,18v-1c0-0.552-0.448-1-1-1H4.62l1.8-9H8
	c0.552,0,1-0.448,1-1V5h6v1c0,0.552,0.448,1,1,1h1.58l1.8,9H19c-0.552,0-1,0.448-1,1v1H6z"/>
</svg>
