<?xml version="1.0" encoding="utf-8"?>
<!-- Generator: Adobe Illustrator 19.2.1, SVG Export Plug-In . SVG Version: 6.00 Build 0)  -->
<!DOCTYPE svg PUBLIC "-//W3C//DTD SVG 1.1//EN" "http://www.w3.org/Graphics/SVG/1.1/DTD/svg11.dtd">
<svg version="1.1" id="Layer_1" xmlns="http://www.w3.org/2000/svg" xmlns:xlink="http://www.w3.org/1999/xlink" x="0px" y="0px"
	 width="24px" height="24px" viewBox="0 0 24 24" enable-background="new 0 0 24 24" xml:space="preserve">
<path d="M18.5,15c-0.728,0-1.406,0.19-2.016,0.499l-2.208-2.575l5.625-5.625C21.84,5.36,22.211,2.351,20.8,0L12,10.267L3.2,0
	C1.789,2.351,2.16,5.36,4.099,7.298l5.625,5.625l-2.208,2.575C6.906,15.19,6.228,15,5.5,15C3.019,15,1,17.019,1,19.5
	S3.019,24,5.5,24s4.5-2.019,4.5-4.5c0-0.672-0.158-1.304-0.423-1.877L12,15.2l2.423,2.423C14.158,18.196,14,18.828,14,19.5
	c0,2.481,2.019,4.5,4.5,4.5s4.5-2.019,4.5-4.5S20.981,15,18.5,15z M5.5,22C4.122,22,3,20.879,3,19.5S4.122,17,5.5,17
	S8,18.121,8,19.5S6.878,22,5.5,22z M18.5,22c-1.378,0-2.5-1.121-2.5-2.5s1.122-2.5,2.5-2.5s2.5,1.121,2.5,2.5S19.878,22,18.5,22z"/>
<rect x="11" width="2" height="3"/>
<rect x="11" y="5" width="2" height="3"/>
<rect x="11" y="19" width="2" height="3"/>
</svg>
