<?xml version="1.0" encoding="utf-8"?>
<!-- Generator: Adobe Illustrator 19.2.1, SVG Export Plug-In . SVG Version: 6.00 Build 0)  -->
<!DOCTYPE svg PUBLIC "-//W3C//DTD SVG 1.1//EN" "http://www.w3.org/Graphics/SVG/1.1/DTD/svg11.dtd">
<svg version="1.1" id="Layer_1" xmlns="http://www.w3.org/2000/svg" xmlns:xlink="http://www.w3.org/1999/xlink" x="0px" y="0px"
	 width="24px" height="24px" viewBox="0 0 24 24" enable-background="new 0 0 24 24" xml:space="preserve">
<path fill="#222221" d="M9,6v2c1.103,0,2,0.897,2,2v4c0,1.103-0.897,2-2,2v2c1.2,0,2.266-0.542,3-1.382C12.734,17.458,13.8,18,15,18
	v-2c-1.103,0-2-0.897-2-2v-4c0-1.103,0.897-2,2-2V6c-1.2,0-2.266,0.542-3,1.382C11.266,6.542,10.2,6,9,6z"/>
<path fill="#222221" d="M23,0h-4c-0.552,0-1,0.448-1,1v1H6V1c0-0.552-0.448-1-1-1H1C0.448,0,0,0.448,0,1v4c0,0.552,0.448,1,1,1h1v12
	H1c-0.552,0-1,0.448-1,1v4c0,0.552,0.448,1,1,1h4c0.552,0,1-0.448,1-1v-1h12v1c0,0.552,0.448,1,1,1h4c0.552,0,1-0.448,1-1v-4
	c0-0.552-0.448-1-1-1h-1V6h1c0.552,0,1-0.448,1-1V1C24,0.448,23.552,0,23,0z M20,18h-1c-0.552,0-1,0.448-1,1v1H6v-1
	c0-0.552-0.448-1-1-1H4V6h1c0.552,0,1-0.448,1-1V4h12v1c0,0.552,0.448,1,1,1h1V18z"/>
</svg>
