<?xml version="1.0" encoding="utf-8"?>
<!-- Generator: Adobe Illustrator 19.2.1, SVG Export Plug-In . SVG Version: 6.00 Build 0)  -->
<!DOCTYPE svg PUBLIC "-//W3C//DTD SVG 1.1//EN" "http://www.w3.org/Graphics/SVG/1.1/DTD/svg11.dtd">
<svg version="1.1" id="Layer_1" xmlns="http://www.w3.org/2000/svg" xmlns:xlink="http://www.w3.org/1999/xlink" x="0px" y="0px"
	 width="24px" height="24px" viewBox="0 0 24 24" enable-background="new 0 0 24 24" xml:space="preserve">
<path d="M22.707,7.293L21.414,6l-6.707,6.707C14.512,12.902,14.256,13,14,13s-0.512-0.098-0.707-0.293l-2-2
	c-0.391-0.391-0.391-1.023,0-1.414L18,2.586l-1.293-1.293c-0.391-0.391-1.023-0.391-1.414,0l-12,12
	c-0.391,0.391-0.391,1.023,0,1.414l6,6C9.488,20.902,9.744,21,10,21s0.512-0.098,0.707-0.293l12-12
	C23.098,8.316,23.098,7.684,22.707,7.293z"/>
<path d="M1.684,20.949l3,1C4.788,21.983,4.894,22,5,22c0.261,0,0.517-0.103,0.707-0.293l0.879-0.879l-3.414-3.414l-1.879,1.879
	c-0.245,0.245-0.346,0.6-0.266,0.937C1.106,20.567,1.355,20.839,1.684,20.949z"/>
</svg>
