<?xml version="1.0" encoding="utf-8"?>
<!-- Generator: Adobe Illustrator 19.2.1, SVG Export Plug-In . SVG Version: 6.00 Build 0)  -->
<!DOCTYPE svg PUBLIC "-//W3C//DTD SVG 1.1//EN" "http://www.w3.org/Graphics/SVG/1.1/DTD/svg11.dtd">
<svg version="1.1" id="Layer_1" xmlns="http://www.w3.org/2000/svg" xmlns:xlink="http://www.w3.org/1999/xlink" x="0px" y="0px"
	 width="24px" height="24px" viewBox="0 0 24 24" enable-background="new 0 0 24 24" xml:space="preserve">
<path d="M19,13c0,0.687-0.045,1.354-0.12,2H24v-4h-5.121C18.955,11.647,19,12.314,19,13z"/>
<path d="M10,13c0-0.697-0.059-1.364-0.161-2H0v4h9.846C9.943,14.351,10,13.683,10,13z"/>
<path d="M9.487,22h4.955c0.467-0.799,1.43-2.633,2.032-5h-4.995C10.981,18.978,10.206,20.696,9.487,22z"/>
<path d="M17,13c0-0.686-0.052-1.354-0.138-2h-5.007C11.943,11.641,12,12.305,12,13c0,0.684-0.055,1.35-0.139,2h5.003
	C16.949,14.355,17,13.687,17,13z"/>
<path d="M9.082,4c0.803,1.158,1.763,2.867,2.358,5h5.029c-0.603-2.357-1.563-4.197-2.03-5H9.082z"/>
<path d="M23,4h-6.283c0.592,1.164,1.342,2.904,1.818,5H24V5C24,4.448,23.553,4,23,4z"/>
<path d="M1,22h6.162c0.705-1.135,1.646-2.896,2.248-5H0v4C0,21.552,0.447,22,1,22z"/>
<path d="M16.722,22H23c0.553,0,1-0.448,1-1v-4h-5.461C18.064,19.101,17.315,20.838,16.722,22z"/>
<path d="M6.558,4H1C0.447,4,0,4.448,0,5v4h9.35C8.521,6.448,7.132,4.662,6.558,4z"/>
</svg>
