<?xml version="1.0" encoding="utf-8"?>
<!-- Generator: Adobe Illustrator 19.2.1, SVG Export Plug-In . SVG Version: 6.00 Build 0)  -->
<!DOCTYPE svg PUBLIC "-//W3C//DTD SVG 1.1//EN" "http://www.w3.org/Graphics/SVG/1.1/DTD/svg11.dtd">
<svg version="1.1" id="Layer_1" xmlns="http://www.w3.org/2000/svg" xmlns:xlink="http://www.w3.org/1999/xlink" x="0px" y="0px"
	 width="24px" height="24px" viewBox="0 0 24 24" enable-background="new 0 0 24 24" xml:space="preserve">
<path d="M23,0H1C0.448,0,0,0.448,0,1v22c0,0.552,0.448,1,1,1h22c0.552,0,1-0.448,1-1V1C24,0.448,23.552,0,23,0z M14,4h6v6h-6V4z
	 M10,18H8v2H6v-2H4v-2h2v-2h2v2h2V18z M7,10c-1.654,0-3-1.346-3-3s1.346-3,3-3s3,1.346,3,3S8.654,10,7,10z M13,20l4-6l4,6H13z"/>
</svg>
