<?xml version="1.0" encoding="utf-8"?>
<!-- Generator: Adobe Illustrator 19.2.1, SVG Export Plug-In . SVG Version: 6.00 Build 0)  -->
<!DOCTYPE svg PUBLIC "-//W3C//DTD SVG 1.1//EN" "http://www.w3.org/Graphics/SVG/1.1/DTD/svg11.dtd">
<svg version="1.1" id="Layer_1" xmlns="http://www.w3.org/2000/svg" xmlns:xlink="http://www.w3.org/1999/xlink" x="0px" y="0px"
	 width="24px" height="24px" viewBox="0 0 24 24" enable-background="new 0 0 24 24" xml:space="preserve">
<path fill="#222221" d="M22,7h-3v11c0,0.552-0.448,1-1,1H7v3c0,0.552,0.448,1,1,1h14c0.552,0,1-0.448,1-1V8C23,7.448,22.552,7,22,7z
	"/>
<path fill="#222221" d="M1,2v14c0,0.553,0.447,1,1,1h14c0.553,0,1-0.447,1-1V2c0-0.552-0.447-1-1-1H2C1.447,1,1,1.448,1,2z"/>
</svg>
