<?xml version="1.0" encoding="utf-8"?>
<!-- Generator: Adobe Illustrator 19.2.1, SVG Export Plug-In . SVG Version: 6.00 Build 0)  -->
<!DOCTYPE svg PUBLIC "-//W3C//DTD SVG 1.1//EN" "http://www.w3.org/Graphics/SVG/1.1/DTD/svg11.dtd">
<svg version="1.1" id="Layer_1" xmlns="http://www.w3.org/2000/svg" xmlns:xlink="http://www.w3.org/1999/xlink" x="0px" y="0px"
	 width="24px" height="24px" viewBox="0 0 24 24" enable-background="new 0 0 24 24" xml:space="preserve">
<path fill="#222221" d="M5,23c0,0.552,0.447,1,1,1h12c0.553,0,1-0.448,1-1c0-1.103,0.897-2,2-2c0.553,0,1-0.448,1-1V4
	c0-0.552-0.447-1-1-1c-1.103,0-2-0.897-2-2c0-0.552-0.447-1-1-1H6C5.447,0,5,0.448,5,1c0,1.103-0.897,2-2,2C2.447,3,2,3.448,2,4v16
	c0,0.552,0.447,1,1,1C4.103,21,5,21.897,5,23z M12,4c3.309,0,6,3.589,6,8s-2.691,8-6,8s-6-3.589-6-8S8.691,4,12,4z"/>
</svg>
