<?xml version="1.0" encoding="utf-8"?>
<!-- Generator: Adobe Illustrator 19.2.1, SVG Export Plug-In . SVG Version: 6.00 Build 0)  -->
<!DOCTYPE svg PUBLIC "-//W3C//DTD SVG 1.1//EN" "http://www.w3.org/Graphics/SVG/1.1/DTD/svg11.dtd">
<svg version="1.1" id="Layer_1" xmlns="http://www.w3.org/2000/svg" xmlns:xlink="http://www.w3.org/1999/xlink" x="0px" y="0px"
	 width="24px" height="24px" viewBox="0 0 24 24" enable-background="new 0 0 24 24" xml:space="preserve">
<path d="M19.657,17.071l-4.243-4.243l-3.656,3.657c-1.131,1.131-3.112,1.131-4.243,0c-1.169-1.17-1.169-3.073,0-4.243l3.657-3.656
	L6.929,4.343L3.272,8c-1.7,1.7-2.636,3.96-2.636,6.364c0,2.403,0.936,4.663,2.636,6.363s3.96,2.636,6.364,2.636
	c2.403,0,4.663-0.936,6.363-2.636L19.657,17.071z"/>
<path d="M12.586,7.172l2-2c0.188-0.188,0.293-0.441,0.293-0.707s-0.105-0.52-0.293-0.707l-2.829-2.829
	c-0.375-0.375-1.039-0.375-1.414,0l-2,2L12.586,7.172z"/>
<path d="M20.242,9.414c-0.375-0.375-1.039-0.375-1.414,0l-2,2l4.243,4.243l2-2c0.188-0.188,0.293-0.441,0.293-0.707
	s-0.105-0.52-0.293-0.707L20.242,9.414z"/>
</svg>
