<?xml version="1.0" encoding="utf-8"?>
<!-- Generator: Adobe Illustrator 19.2.1, SVG Export Plug-In . SVG Version: 6.00 Build 0)  -->
<!DOCTYPE svg PUBLIC "-//W3C//DTD SVG 1.1//EN" "http://www.w3.org/Graphics/SVG/1.1/DTD/svg11.dtd">
<svg version="1.1" id="Layer_1" xmlns="http://www.w3.org/2000/svg" xmlns:xlink="http://www.w3.org/1999/xlink" x="0px" y="0px"
	 width="24px" height="24px" viewBox="0 0 24 24" enable-background="new 0 0 24 24" xml:space="preserve">
<rect x="20" width="2" height="24"/>
<path d="M18,5c0-0.553-0.448-1-1-1H3C2.448,4,2,4.447,2,5v5c0,0.553,0.448,1,1,1h14c0.552,0,1-0.447,1-1V5z"/>
<path d="M17,13H9c-0.552,0-1,0.447-1,1v5c0,0.553,0.448,1,1,1h8c0.552,0,1-0.447,1-1v-5C18,13.447,17.552,13,17,13z"/>
</svg>
