<?xml version="1.0" encoding="utf-8"?>
<!-- Generator: Adobe Illustrator 19.2.1, SVG Export Plug-In . SVG Version: 6.00 Build 0)  -->
<!DOCTYPE svg PUBLIC "-//W3C//DTD SVG 1.1//EN" "http://www.w3.org/Graphics/SVG/1.1/DTD/svg11.dtd">
<svg version="1.1" id="Layer_1" xmlns="http://www.w3.org/2000/svg" xmlns:xlink="http://www.w3.org/1999/xlink" x="0px" y="0px"
	 width="24px" height="24px" viewBox="0 0 24 24" enable-background="new 0 0 24 24" xml:space="preserve">
<path d="M12.496,0.041C10.632-0.264,9,1.183,9,3v5H6c-1.657,0-3,1.343-3,3v2h18v-2c0-1.657-1.343-3-3-3h-3V3.107
	C15,1.591,13.924,0.273,12.496,0.041z"/>
<path d="M3,24h1c1.634,0,3.087-0.788,4-2.003C8.913,23.212,10.366,24,12,24s3.087-0.788,4-2.003C16.913,23.212,18.366,24,20,24h1v-9
	H3V24z"/>
</svg>
