<?xml version="1.0" encoding="utf-8"?>
<!-- Generator: Adobe Illustrator 19.2.1, SVG Export Plug-In . SVG Version: 6.00 Build 0)  -->
<!DOCTYPE svg PUBLIC "-//W3C//DTD SVG 1.1//EN" "http://www.w3.org/Graphics/SVG/1.1/DTD/svg11.dtd">
<svg version="1.1" id="Layer_1" xmlns="http://www.w3.org/2000/svg" xmlns:xlink="http://www.w3.org/1999/xlink" x="0px" y="0px"
	 width="24px" height="24px" viewBox="0 0 24 24" enable-background="new 0 0 24 24" xml:space="preserve">
<path d="M22,7c0.553,0,1-0.448,1-1V2c0-0.552-0.447-1-1-1h-4c-0.553,0-1,0.448-1,1v1H7V2c0-0.552-0.447-1-1-1H2C1.447,1,1,1.448,1,2
	v4c0,0.552,0.447,1,1,1h1v10H2c-0.553,0-1,0.448-1,1v4c0,0.552,0.447,1,1,1h4c0.553,0,1-0.448,1-1v-1h10v1c0,0.552,0.447,1,1,1h4
	c0.553,0,1-0.448,1-1v-4c0-0.552-0.447-1-1-1h-1V7H22z M19,17h-1c-0.553,0-1,0.448-1,1v1H7v-1c0-0.552-0.447-1-1-1H5V7h1
	c0.553,0,1-0.448,1-1V5h10v1c0,0.552,0.447,1,1,1h1V17z"/>
</svg>
