<?xml version="1.0" encoding="utf-8"?>
<!-- Generator: Adobe Illustrator 19.2.1, SVG Export Plug-In . SVG Version: 6.00 Build 0)  -->
<!DOCTYPE svg PUBLIC "-//W3C//DTD SVG 1.1//EN" "http://www.w3.org/Graphics/SVG/1.1/DTD/svg11.dtd">
<svg version="1.1" id="Layer_1" xmlns="http://www.w3.org/2000/svg" xmlns:xlink="http://www.w3.org/1999/xlink" x="0px" y="0px"
	 width="24px" height="24px" viewBox="0 0 24 24" enable-background="new 0 0 24 24" xml:space="preserve">
<path d="M4,1H1C0.448,1,0,1.448,0,2v2h4V1z"/>
<path d="M23,1H6v3h18V2C24,1.448,23.552,1,23,1z"/>
<path d="M0,22c0,0.552,0.448,1,1,1h22c0.552,0,1-0.448,1-1V6H0V22z M11,16h6v2h-6V16z M3.586,11L5,9.586l3.707,3.707
	c0.391,0.391,0.391,1.023,0,1.414L5,18.414L3.586,17l3-3L3.586,11z"/>
</svg>
