<?xml version="1.0" encoding="utf-8"?>
<!-- Generator: Adobe Illustrator 19.2.1, SVG Export Plug-In . SVG Version: 6.00 Build 0)  -->
<!DOCTYPE svg PUBLIC "-//W3C//DTD SVG 1.1//EN" "http://www.w3.org/Graphics/SVG/1.1/DTD/svg11.dtd">
<svg version="1.1" id="Layer_1" xmlns="http://www.w3.org/2000/svg" xmlns:xlink="http://www.w3.org/1999/xlink" x="0px" y="0px"
	 width="24px" height="24px" viewBox="0 0 24 24" enable-background="new 0 0 24 24" xml:space="preserve">
<rect x="8" width="8" height="4"/>
<path d="M23,2h-5v3c0,0.552-0.448,1-1,1H7C6.448,6,6,5.552,6,5V2H1C0.448,2,0,2.448,0,3v18c0,0.313,0.147,0.609,0.397,0.799
	c0.251,0.188,0.577,0.248,0.877,0.163l6.684-1.91l7.69,2.885C15.762,22.979,15.881,23,16,23c0.047,0,0.095-0.003,0.142-0.01l7-1
	C23.634,21.92,24,21.498,24,21V3C24,2.448,23.552,2,23,2z M10.414,15L9,16.414l-2.707-2.707c-0.391-0.391-0.391-1.023,0-1.414
	L9,9.586L10.414,11l-2,2L10.414,15z M17.707,13.707L15,16.414L13.586,15l2-2l-2-2L15,9.586l2.707,2.707
	C18.098,12.684,18.098,13.316,17.707,13.707z"/>
</svg>
