<?xml version="1.0" encoding="utf-8"?>
<!-- Generator: Adobe Illustrator 19.2.1, SVG Export Plug-In . SVG Version: 6.00 Build 0)  -->
<!DOCTYPE svg PUBLIC "-//W3C//DTD SVG 1.1//EN" "http://www.w3.org/Graphics/SVG/1.1/DTD/svg11.dtd">
<svg version="1.1" id="Layer_1" xmlns="http://www.w3.org/2000/svg" xmlns:xlink="http://www.w3.org/1999/xlink" x="0px" y="0px"
	 width="24px" height="24px" viewBox="0 0 24 24" enable-background="new 0 0 24 24" xml:space="preserve">
<path d="M2.707,15.636c-1.373,1.373-1.662,5.498-1.706,6.31c-0.015,0.284,0.091,0.561,0.292,0.761C1.481,22.895,1.735,23,2,23
	c0.018,0,0.036,0,0.054-0.001c0.812-0.044,4.937-0.333,6.31-1.706c0.756-0.755,1.172-1.76,1.172-2.828s-0.416-2.073-1.172-2.829
	c-0.755-0.755-1.76-1.171-2.828-1.171S3.463,14.88,2.707,15.636z"/>
<path d="M11.359,17.04L22.087,6.313c1.361-1.361,1.2-3.676-0.483-4.811c-1.252-0.844-2.951-0.583-4.018,0.484
	C15.29,4.282,9.228,10.343,6.937,12.635c1.066,0.254,2.047,0.792,2.841,1.587C10.567,15.01,11.103,15.982,11.359,17.04z"/>
</svg>
