<?xml version="1.0" encoding="utf-8"?>
<!-- Generator: Adobe Illustrator 19.2.1, SVG Export Plug-In . SVG Version: 6.00 Build 0)  -->
<!DOCTYPE svg PUBLIC "-//W3C//DTD SVG 1.1//EN" "http://www.w3.org/Graphics/SVG/1.1/DTD/svg11.dtd">
<svg version="1.1" id="Layer_1" xmlns="http://www.w3.org/2000/svg" xmlns:xlink="http://www.w3.org/1999/xlink" x="0px" y="0px"
	 width="24px" height="24px" viewBox="0 0 24 24" enable-background="new 0 0 24 24" xml:space="preserve">
<path fill="#222221" d="M12.206,0C6.002,0,1.39,4.774,0.92,10.659c0,0,1.632-2.526,4.487-4.303c1.726-1.075,4.185-1.77,6.187-1.77
	c5.314,0,4.816,5.086,4.816,5.086H7.9c0.154-1.336,0.75-2.765,1.659-3.825c0,0-2.124,0.861-3.804,2.817
	c-1.297,1.51-2.045,3.599-2.045,5.787c0,4.63,2.792,7.839,6.517,9.048c3.196,1.037,8.181,0.382,10.828-1.248l-0.002-5.06
	c-1.85,1.265-4.11,1.8-6.488,1.8c-6.932,0-6.564-5.064-6.564-5.064h15.073c0-1.794,0.088-3.874-0.438-6.025
	C21.547,3.445,17.341,0,12.206,0z"/>
</svg>
