<?xml version="1.0" encoding="utf-8"?>
<!-- Generator: Adobe Illustrator 19.2.1, SVG Export Plug-In . SVG Version: 6.00 Build 0)  -->
<!DOCTYPE svg PUBLIC "-//W3C//DTD SVG 1.1//EN" "http://www.w3.org/Graphics/SVG/1.1/DTD/svg11.dtd">
<svg version="1.1" id="Layer_1" xmlns="http://www.w3.org/2000/svg" xmlns:xlink="http://www.w3.org/1999/xlink" x="0px" y="0px"
	 width="24px" height="24px" viewBox="0 0 24 24" enable-background="new 0 0 24 24" xml:space="preserve">
<path d="M11,14l3.414-0.586l9-9c0.781-0.781,0.781-2.047,0-2.828c-0.78-0.781-2.048-0.781-2.828,0L17.172,5H1C0.448,5,0,5.448,0,6
	v16c0,0.552,0.448,1,1,1h22c0.552,0,1-0.448,1-1V7.242l-3,3V19c0,0.552-0.448,1-1,1H9c-0.552,0-1-0.448-1-1V9c0-0.552,0.448-1,1-1
	h5.172l-2.586,2.586L11,14z M3,8h2v2H3V8z M5,20H3v-2h2V20z M4,16c-1.103,0-2-0.897-2-2s0.897-2,2-2s2,0.897,2,2S5.103,16,4,16z"/>
</svg>
