<?xml version="1.0" encoding="utf-8"?>
<!-- Generator: Adobe Illustrator 19.2.1, SVG Export Plug-In . SVG Version: 6.00 Build 0)  -->
<!DOCTYPE svg PUBLIC "-//W3C//DTD SVG 1.1//EN" "http://www.w3.org/Graphics/SVG/1.1/DTD/svg11.dtd">
<svg version="1.1" id="Layer_1" xmlns="http://www.w3.org/2000/svg" xmlns:xlink="http://www.w3.org/1999/xlink" x="0px" y="0px"
	 width="24px" height="24px" viewBox="0 0 24 24" enable-background="new 0 0 24 24" xml:space="preserve">
<circle fill="#222221" cx="12" cy="12" r="4"/>
<path fill="#222221" d="M11.875,0C8.27,0,5.039,1.605,2.838,4.13l3.464,6.001C7.09,7.735,9.344,6,12,6h10.252
	C20.173,2.419,16.305,0,11.875,0z"/>
<path fill="#222221" d="M12,18c-2.217,0-4.151-1.211-5.19-3.003L6.804,15L1.554,5.908C0.495,7.696-0.125,9.775-0.125,12
	c0,5.909,4.296,10.821,9.926,11.808l3.427-5.935C12.831,17.956,12.421,18,12,18z"/>
<path fill="#222221" d="M16.46,8C17.414,9.063,18,10.462,18,12c0,1.092-0.298,2.114-0.81,2.997L17.196,15l-5.192,8.993
	c6.557-0.07,11.871-5.42,11.871-11.993c0-1.404-0.255-2.747-0.7-4H16.46z"/>
</svg>
