<?xml version="1.0" encoding="utf-8"?>
<!-- Generator: Adobe Illustrator 19.2.1, SVG Export Plug-In . SVG Version: 6.00 Build 0)  -->
<!DOCTYPE svg PUBLIC "-//W3C//DTD SVG 1.1//EN" "http://www.w3.org/Graphics/SVG/1.1/DTD/svg11.dtd">
<svg version="1.1" id="Layer_1" xmlns="http://www.w3.org/2000/svg" xmlns:xlink="http://www.w3.org/1999/xlink" x="0px" y="0px"
	 width="24px" height="24px" viewBox="0 0 24 24" enable-background="new 0 0 24 24" xml:space="preserve">
<path d="M18.051,1H1C0.448,1,0,1.448,0,2v2h15.051L18.051,1z"/>
<path d="M18.994,9.956c-0.005,1.274-0.505,2.5-1.433,3.427C16.487,14.456,14.374,15,11.28,15l-0.331-0.004l-1.895-0.051
	l-0.051-1.895c-0.04-1.464,0.039-5.038,1.613-6.612C10.782,6.274,10.967,6.138,11.15,6H0v16c0,0.553,0.448,1,1,1h22
	c0.552,0,1-0.447,1-1V6h-1.05L18.994,9.956z"/>
<path d="M21.439,0.439l-6.655,6.655c-0.956-0.235-2.006,0.011-2.753,0.758c-1.131,1.131-1.03,5.108-1.029,5.145
	c0.037,0.001,4.013,0.102,5.145-1.029c0.747-0.747,0.993-1.797,0.758-2.753l6.655-6.655c0.586-0.586,0.586-1.535,0-2.121
	S22.025-0.146,21.439,0.439z"/>
</svg>
