<?xml version="1.0" encoding="utf-8"?>
<!-- Generator: Adobe Illustrator 19.2.1, SVG Export Plug-In . SVG Version: 6.00 Build 0)  -->
<!DOCTYPE svg PUBLIC "-//W3C//DTD SVG 1.1//EN" "http://www.w3.org/Graphics/SVG/1.1/DTD/svg11.dtd">
<svg version="1.1" id="Layer_1" xmlns="http://www.w3.org/2000/svg" xmlns:xlink="http://www.w3.org/1999/xlink" x="0px" y="0px"
	 width="24px" height="24px" viewBox="0 0 24 24" enable-background="new 0 0 24 24" xml:space="preserve">
<path d="M20,1c0-0.552-0.448-1-1-1H5C4.448,0,4,0.448,4,1v2h16V1z"/>
<path d="M4,23c0,0.552,0.448,1,1,1h14c0.552,0,1-0.448,1-1v-2H4V23z"/>
<path d="M3,6v12c0,0.552,0.448,1,1,1h16c0.552,0,1-0.448,1-1V6c0-0.552-0.448-1-1-1H4C3.448,5,3,5.448,3,6z M7,11h2v5H7V11z"/>
</svg>
