<?xml version="1.0" encoding="utf-8"?>
<!-- Generator: Adobe Illustrator 19.2.1, SVG Export Plug-In . SVG Version: 6.00 Build 0)  -->
<!DOCTYPE svg PUBLIC "-//W3C//DTD SVG 1.1//EN" "http://www.w3.org/Graphics/SVG/1.1/DTD/svg11.dtd">
<svg version="1.1" id="Layer_1" xmlns="http://www.w3.org/2000/svg" xmlns:xlink="http://www.w3.org/1999/xlink" x="0px" y="0px"
	 width="24px" height="24px" viewBox="0 0 24 24" enable-background="new 0 0 24 24" xml:space="preserve">
<path d="M1,23h4V1H1C0.448,1,0,1.448,0,2v20C0,22.552,0.448,23,1,23z"/>
<path d="M23,1H7v22h16c0.552,0,1-0.448,1-1V2C24,1.448,23.552,1,23,1z M11,5h3v2h-3V5z M14,19h-3v-2h3V19z M17,15h-4v-2h4V15z
	 M20,11h-6V9h6V11z"/>
</svg>
