<?xml version="1.0" encoding="utf-8"?>
<!-- Generator: Adobe Illustrator 19.2.1, SVG Export Plug-In . SVG Version: 6.00 Build 0)  -->
<!DOCTYPE svg PUBLIC "-//W3C//DTD SVG 1.1//EN" "http://www.w3.org/Graphics/SVG/1.1/DTD/svg11.dtd">
<svg version="1.1" id="Layer_1" xmlns="http://www.w3.org/2000/svg" xmlns:xlink="http://www.w3.org/1999/xlink" x="0px" y="0px"
	 width="24px" height="24px" viewBox="0 0 24 24" enable-background="new 0 0 24 24" xml:space="preserve">
<path d="M22,8h-6c-1.103,0-2,0.897-2,2v12c0,1.103,0.897,2,2,2h6c1.103,0,2-0.897,2-2V10C24,8.897,23.103,8,22,8z M22,20h-6V10h6V20
	z"/>
<path d="M2,18h10v-3H7c-0.552,0-1-0.447-1-1V4c0-0.553,0.448-1,1-1h12c0.552,0,1,0.447,1,1v2h3V2c0-1.103-0.897-2-2-2H2
	C0.897,0,0,0.897,0,2v14C0,17.103,0.897,18,2,18z M3,8c0.552,0,1,0.448,1,1c0,0.552-0.448,1-1,1S2,9.552,2,9C2,8.448,2.448,8,3,8z"
	/>
</svg>
