<?xml version="1.0" encoding="utf-8"?>
<!-- Generator: Adobe Illustrator 19.2.1, SVG Export Plug-In . SVG Version: 6.00 Build 0)  -->
<!DOCTYPE svg PUBLIC "-//W3C//DTD SVG 1.1//EN" "http://www.w3.org/Graphics/SVG/1.1/DTD/svg11.dtd">
<svg version="1.1" id="Layer_1" xmlns="http://www.w3.org/2000/svg" xmlns:xlink="http://www.w3.org/1999/xlink" x="0px" y="0px"
	 width="24px" height="24px" viewBox="0 0 24 24" enable-background="new 0 0 24 24" xml:space="preserve">
<path d="M10,24h4c3.309,0,6-2.691,6-6V6c0-3.309-2.691-6-6-6h-4C6.691,0,4,2.691,4,6v12C4,21.309,6.691,24,10,24z M11,6.184V4h2
	v2.184C14.161,6.598,15,7.698,15,9s-0.839,2.402-2,2.816V14h-2v-2.184C9.839,11.402,9,10.302,9,9S9.839,6.598,11,6.184z"/>
</svg>
