<?xml version="1.0" encoding="utf-8"?>
<!-- Generator: Adobe Illustrator 19.2.1, SVG Export Plug-In . SVG Version: 6.00 Build 0)  -->
<!DOCTYPE svg PUBLIC "-//W3C//DTD SVG 1.1//EN" "http://www.w3.org/Graphics/SVG/1.1/DTD/svg11.dtd">
<svg version="1.1" id="Layer_1" xmlns="http://www.w3.org/2000/svg" xmlns:xlink="http://www.w3.org/1999/xlink" x="0px" y="0px"
	 width="24px" height="24px" viewBox="0 0 24 24" enable-background="new 0 0 24 24" xml:space="preserve">
<path d="M3,14c0,1.105,0.895,2,2,2h4v4.889c0,1.45,0.98,2.78,2.404,3.054C13.322,24.311,15,22.852,15,21v-5h4c1.105,0,2-0.895,2-2
	v-2H3V14z"/>
<path d="M21,1c0-0.552-0.448-1-1-1h-3l-2,4l-2-4H4C3.448,0,3,0.448,3,1v9h18V1z"/>
</svg>
