<?xml version="1.0" encoding="utf-8"?>
<!-- Generator: Adobe Illustrator 19.2.1, SVG Export Plug-In . SVG Version: 6.00 Build 0)  -->
<!DOCTYPE svg PUBLIC "-//W3C//DTD SVG 1.1//EN" "http://www.w3.org/Graphics/SVG/1.1/DTD/svg11.dtd">
<svg version="1.1" id="Layer_1" xmlns="http://www.w3.org/2000/svg" xmlns:xlink="http://www.w3.org/1999/xlink" x="0px" y="0px"
	 width="24px" height="24px" viewBox="0 0 24 24" enable-background="new 0 0 24 24" xml:space="preserve">
<path d="M5,18c0,0.552,0.447,1,1,1h12c0.553,0,1-0.448,1-1V6c0-0.552-0.447-1-1-1H6C5.447,5,5,5.448,5,6V18z"/>
<rect x="5" width="2" height="3"/>
<rect y="5" width="3" height="2"/>
<rect x="17" width="2" height="3"/>
<rect x="21" y="5" width="3" height="2"/>
<rect x="5" y="21" width="2" height="3"/>
<rect y="17" width="3" height="2"/>
<rect x="17" y="21" width="2" height="3"/>
<rect x="21" y="17" width="3" height="2"/>
</svg>
