<?xml version="1.0" encoding="utf-8"?>
<!-- Generator: Adobe Illustrator 19.2.1, SVG Export Plug-In . SVG Version: 6.00 Build 0)  -->
<!DOCTYPE svg PUBLIC "-//W3C//DTD SVG 1.1//EN" "http://www.w3.org/Graphics/SVG/1.1/DTD/svg11.dtd">
<svg version="1.1" id="Layer_1" xmlns="http://www.w3.org/2000/svg" xmlns:xlink="http://www.w3.org/1999/xlink" x="0px" y="0px"
	 width="24px" height="24px" viewBox="0 0 24 24" enable-background="new 0 0 24 24" xml:space="preserve">
<path fill="#222221" d="M3,0C2.448,0,2,0.448,2,1v20c0,0.552,0.448,1,1,1h4v-2H4v-6h3v-2H4V6h3V4H4V1C4,0.448,3.552,0,3,0z"/>
<path fill="#222221" d="M10,8h11c0.552,0,1-0.448,1-1V3c0-0.552-0.448-1-1-1H10C9.448,2,9,2.448,9,3v4C9,7.552,9.448,8,10,8z"/>
<path fill="#222221" d="M9,23c0,0.553,0.448,1,1,1h11c0.552,0,1-0.447,1-1v-4c0-0.553-0.448-1-1-1H10c-0.552,0-1,0.447-1,1V23z"/>
<path fill="#222221" d="M9,15c0,0.553,0.448,1,1,1h11c0.552,0,1-0.447,1-1v-4c0-0.552-0.448-1-1-1H10c-0.552,0-1,0.448-1,1V15z"/>
</svg>
