<?xml version="1.0" encoding="utf-8"?>
<!-- Generator: Adobe Illustrator 19.2.1, SVG Export Plug-In . SVG Version: 6.00 Build 0)  -->
<!DOCTYPE svg PUBLIC "-//W3C//DTD SVG 1.1//EN" "http://www.w3.org/Graphics/SVG/1.1/DTD/svg11.dtd">
<svg version="1.1" id="Layer_1" xmlns="http://www.w3.org/2000/svg" xmlns:xlink="http://www.w3.org/1999/xlink" x="0px" y="0px"
	 width="24px" height="24px" viewBox="0 0 24 24" enable-background="new 0 0 24 24" xml:space="preserve">
<path d="M1.293,18.293c-0.3,0.3-0.378,0.757-0.194,1.14C1.267,19.782,1.619,20,2,20c0.037,0,0.074-0.002,0.111-0.006l9-1
	C11.617,18.937,12,18.51,12,18v-3.586l1.879-1.879l-3.414-3.414L1.293,18.293z"/>
<path d="M22.702,1.921c-1.485-1.298-3.952-1.086-5.346,0.309c-1.997,1.997-5.477,5.477-5.477,5.477l4.707,4.707
	c0.195,0.195,0.451,0.293,0.707,0.293s0.512-0.098,0.707-0.293l4.776-4.776c0.653-0.653,1.124-1.493,1.221-2.411
	C24.13,3.962,23.653,2.753,22.702,1.921z"/>
</svg>
