<?xml version="1.0" encoding="utf-8"?>
<!-- Generator: Adobe Illustrator 19.1.0, SVG Export Plug-In . SVG Version: 6.00 Build 0)  -->
<!DOCTYPE svg PUBLIC "-//W3C//DTD SVG 1.1//EN" "http://www.w3.org/Graphics/SVG/1.1/DTD/svg11.dtd">
<svg version="1.1" id="Layer_1" xmlns="http://www.w3.org/2000/svg" xmlns:xlink="http://www.w3.org/1999/xlink" x="0px" y="0px"
	 width="24px" height="24px" viewBox="0 0 24 24" enable-background="new 0 0 24 24" xml:space="preserve">
<path d="M19,15h-2V9h2c2.2,0,4-1.8,4-4s-1.8-4-4-4s-4,1.8-4,4v2H9V5c0-2.2-1.8-4-4-4S1,2.8,1,5s1.8,4,4,4h2v6H5c-2.2,0-4,1.8-4,4
	s1.8,4,4,4s4-1.8,4-4v-2h6v2c0,2.2,1.8,4,4,4s4-1.8,4-4S21.2,15,19,15z M17,5c0-1.1,0.9-2,2-2s2,0.9,2,2s-0.9,2-2,2h-2V5z M3,5
	c0-1.1,0.9-2,2-2s2,0.9,2,2v2H5C3.9,7,3,6.1,3,5z M7,19c0,1.1-0.9,2-2,2s-2-0.9-2-2s0.9-2,2-2h2V19z M9,9h6v6H9V9z M19,21
	c-1.1,0-2-0.9-2-2v-2h2c1.1,0,2,0.9,2,2S20.1,21,19,21z"/>
</svg>
