<?xml version="1.0" encoding="utf-8"?>
<!-- Generator: Adobe Illustrator 19.1.0, SVG Export Plug-In . SVG Version: 6.00 Build 0)  -->
<!DOCTYPE svg PUBLIC "-//W3C//DTD SVG 1.1//EN" "http://www.w3.org/Graphics/SVG/1.1/DTD/svg11.dtd">
<svg version="1.1" id="Layer_1" xmlns="http://www.w3.org/2000/svg" xmlns:xlink="http://www.w3.org/1999/xlink" x="0px" y="0px"
	 width="24px" height="24px" viewBox="0 0 24 24" enable-background="new 0 0 24 24" xml:space="preserve">
<path d="M10.70703,10.70703l3.99969-3.99969c0.09229-0.09216,0.16534-0.20282,0.21606-0.3252
	c0.10114-0.24451,0.10114-0.51978,0-0.76428c-0.05072-0.12238-0.12378-0.23303-0.21606-0.3252l-3.99969-3.99969
	c-0.39062-0.39062-1.02344-0.39062-1.41406,0s-0.39062,1.02344,0,1.41406L11.58594,5H8C5.79443,5,4,6.79443,4,9v3
	c0,0.55225,0.44775,1,1,1s1-0.44775,1-1V9c0-1.10303,0.89697-2,2-2h3.58594L9.29297,9.29297
	c-0.39062,0.39062-0.39062,1.02344,0,1.41406C9.48828,10.90234,9.74414,11,10,11S10.51172,10.90234,10.70703,10.70703z"/>
<path d="M18.5,8c-2.48145,0-4.5,2.01855-4.5,4.5s2.01855,4.5,4.5,4.5s4.5-2.01855,4.5-4.5S20.98145,8,18.5,8z M18.5,15
	c-1.37842,0-2.5-1.12109-2.5-2.5c0-1.37842,1.12158-2.5,2.5-2.5s2.5,1.12158,2.5,2.5C21,13.87891,19.87842,15,18.5,15z"/>
<path d="M5.5,24c2.48145,0,4.5-2.01855,4.5-4.5S7.98145,15,5.5,15S1,17.01855,1,19.5S3.01855,24,5.5,24z M5.5,17
	C6.87842,17,8,18.12109,8,19.5S6.87842,22,5.5,22S3,20.87891,3,19.5S4.12158,17,5.5,17z"/>
</svg>
