<?xml version="1.0" encoding="utf-8"?>
<!-- Generator: Adobe Illustrator 19.1.0, SVG Export Plug-In . SVG Version: 6.00 Build 0)  -->
<!DOCTYPE svg PUBLIC "-//W3C//DTD SVG 1.1//EN" "http://www.w3.org/Graphics/SVG/1.1/DTD/svg11.dtd">
<svg version="1.1" id="Layer_1" xmlns="http://www.w3.org/2000/svg" xmlns:xlink="http://www.w3.org/1999/xlink" x="0px" y="0px"
	 width="24px" height="24px" viewBox="0 0 24 24" enable-background="new 0 0 24 24" xml:space="preserve">
<path d="M12,1C5.93457,1,1,5.93457,1,12s4.93457,11,11,11s11-4.93457,11-11S18.06543,1,12,1z M12,21c-4.9624,0-9-4.0376-9-9
	s4.0376-9,9-9s9,4.0376,9,9S16.9624,21,12,21z"/>
<path d="M12,6c-3.30859,0-6,2.69141-6,6s2.69141,6,6,6s6-2.69141,6-6S15.30859,6,12,6z M12,16c-2.20557,0-4-1.79443-4-4
	s1.79443-4,4-4s4,1.79443,4,4S14.20557,16,12,16z"/>
</svg>
