<?xml version="1.0" encoding="utf-8"?>
<!-- Generator: Adobe Illustrator 19.1.0, SVG Export Plug-In . SVG Version: 6.00 Build 0)  -->
<!DOCTYPE svg PUBLIC "-//W3C//DTD SVG 1.1//EN" "http://www.w3.org/Graphics/SVG/1.1/DTD/svg11.dtd">
<svg version="1.1" id="Layer_1" xmlns="http://www.w3.org/2000/svg" xmlns:xlink="http://www.w3.org/1999/xlink" x="0px" y="0px"
	 width="24px" height="24px" viewBox="0 0 24 24" enable-background="new 0 0 24 24" xml:space="preserve">
<path d="M16.5,11c-0.61157,0-1.17834,0.17157-1.6792,0.44849C14.37109,10.03436,13.06097,9,11.5,9s-2.87109,1.03436-3.3208,2.44849
	C7.67834,11.17157,7.11157,11,6.5,11C4.57031,11,3,12.57031,3,14.5V23c0,0.55273,0.44775,1,1,1s1-0.44727,1-1v-8.5
	C5,13.67285,5.67285,13,6.5,13S8,13.67285,8,14.5V15v8c0,0.55273,0.44775,1,1,1s1-0.44727,1-1v-8v-0.5v-2
	c0-0.82715,0.67285-1.5,1.5-1.5s1.5,0.67285,1.5,1.5v2V15v8c0,0.55273,0.44775,1,1,1s1-0.44727,1-1v-8v-0.5
	c0-0.82715,0.67285-1.5,1.5-1.5s1.5,0.67285,1.5,1.5V23c0,0.55273,0.44775,1,1,1s1-0.44727,1-1v-8.5
	C20,12.57031,18.42969,11,16.5,11z"/>
<path d="M22.92291,4.61792c-0.05084-0.12274-0.12415-0.23346-0.21674-0.32581l-2.99915-2.99915
	c-0.39062-0.39062-1.02344-0.39062-1.41406,0s-0.39062,1.02344,0,1.41406L19.58594,4H2C1.44775,4,1,4.44727,1,5s0.44775,1,1,1
	h17.58594l-1.29297,1.29297c-0.39062,0.39062-0.39062,1.02344,0,1.41406C18.48828,8.90234,18.74414,9,19,9
	s0.51172-0.09766,0.70703-0.29297l2.99915-2.99915c0.09259-0.09235,0.16589-0.20306,0.21667-0.32581
	C23.02393,5.1377,23.02399,4.8623,22.92291,4.61792z"/>
</svg>
