<?xml version="1.0" encoding="utf-8"?>
<!-- Generator: Adobe Illustrator 19.1.0, SVG Export Plug-In . SVG Version: 6.00 Build 0)  -->
<!DOCTYPE svg PUBLIC "-//W3C//DTD SVG 1.1//EN" "http://www.w3.org/Graphics/SVG/1.1/DTD/svg11.dtd">
<svg version="1.1" id="Layer_1" xmlns="http://www.w3.org/2000/svg" xmlns:xlink="http://www.w3.org/1999/xlink" x="0px" y="0px"
	 width="24px" height="24px" viewBox="0 0 24 24" enable-background="new 0 0 24 24" xml:space="preserve">
<path d="M1.79688,23.16016l7.71094-10.17041c0.83398-1.09863,2.40625-1.31396,3.50195-0.48193
	c0.53223,0.40332,0.87598,0.99023,0.9668,1.65137c0.09082,0.66211-0.08105,1.31934-0.48438,1.85059l-4.8418,6.38574
	c-0.33398,0.44043-0.24707,1.06738,0.19238,1.40137C9.02344,23.93359,9.23633,24,9.44629,24
	c0.30273,0,0.60156-0.13672,0.79785-0.39551l4.8418-6.38574c0.72656-0.95801,1.03613-2.1416,0.87207-3.33203
	s-0.78223-2.24609-1.73926-2.97266c-1.97754-1.5-4.80664-1.11035-6.30469,0.86768L0.20312,21.95117
	c-0.33398,0.44043-0.24707,1.06738,0.19238,1.40137C0.83594,23.68652,1.46387,23.59766,1.79688,23.16016z"/>
<path d="M22.70636,5.2923l-3.99933-3.99933c-0.39062-0.39062-1.02344-0.39062-1.41406,0s-0.39062,1.02344,0,1.41406L19.58594,5H7
	c-3.30859,0-6,2.69141-6,6c0,0.55225,0.44727,1,1,1s1-0.44775,1-1c0-2.20557,1.79395-4,4-4h12.58594l-2.29297,2.29297
	c-0.39062,0.39062-0.39062,1.02344,0,1.41406C17.48828,10.90234,17.74414,11,18,11s0.51172-0.09766,0.70703-0.29297l3.99933-3.99933
	c0.09253-0.09235,0.16583-0.20306,0.21661-0.32581c0.10101-0.24426,0.10101-0.51953,0-0.76379
	C22.87219,5.49536,22.79889,5.38464,22.70636,5.2923z"/>
</svg>
