<?xml version="1.0" encoding="utf-8"?>
<!-- Generator: Adobe Illustrator 19.1.0, SVG Export Plug-In . SVG Version: 6.00 Build 0)  -->
<!DOCTYPE svg PUBLIC "-//W3C//DTD SVG 1.1//EN" "http://www.w3.org/Graphics/SVG/1.1/DTD/svg11.dtd">
<svg version="1.1" id="Layer_1" xmlns="http://www.w3.org/2000/svg" xmlns:xlink="http://www.w3.org/1999/xlink" x="0px" y="0px"
	 width="24px" height="24px" viewBox="0 0 24 24" enable-background="new 0 0 24 24" xml:space="preserve">
<path d="M22.38214,1.07721C22.25989,1.02661,22.13025,1,22,1h-7c-0.55225,0-1,0.44775-1,1s0.44775,1,1,1h4.58594l-6.29297,6.29297
	c-0.39062,0.39062-0.39062,1.02344,0,1.41406C13.48828,10.90234,13.74414,11,14,11s0.51172-0.09766,0.70703-0.29297L21,4.41406V9
	c0,0.55225,0.44775,1,1,1s1-0.44775,1-1V2c0-0.13025-0.02661-0.25989-0.07721-0.38214
	C22.82141,1.37341,22.62659,1.17859,22.38214,1.07721z"/>
<path d="M2,14c-0.55225,0-1,0.44775-1,1v7c0,0.13025,0.02667,0.25989,0.07721,0.38214
	c0.10138,0.24445,0.2962,0.43927,0.54065,0.54065C1.74011,22.97339,1.86975,23,2,23h7c0.55225,0,1-0.44775,1-1s-0.44775-1-1-1
	H4.41406l6.29297-6.29297c0.39062-0.39062,0.39062-1.02344,0-1.41406s-1.02344-0.39062-1.41406,0L3,19.58594V15
	C3,14.44775,2.55225,14,2,14z"/>
</svg>
