<?xml version="1.0" encoding="utf-8"?>
<!-- Generator: Adobe Illustrator 19.1.0, SVG Export Plug-In . SVG Version: 6.00 Build 0)  -->
<!DOCTYPE svg PUBLIC "-//W3C//DTD SVG 1.1//EN" "http://www.w3.org/Graphics/SVG/1.1/DTD/svg11.dtd">
<svg version="1.1" id="Layer_1" xmlns="http://www.w3.org/2000/svg" xmlns:xlink="http://www.w3.org/1999/xlink" x="0px" y="0px"
	 width="24px" height="24px" viewBox="0 0 24 24" enable-background="new 0 0 24 24" xml:space="preserve">
<path d="M19,3c-1.3125,0-2.49915,0.51898-3.39215,1.34924C14.76099,4.12103,13.88757,4,13,4
	c-4.95795,0-9.08038,3.55481-9.86017,8.36737C1.30316,13.10779,0,14.90149,0,17c0,2.75684,2.24316,5,5,5s5-2.24316,5-5
	c0-2.67139-2.11163-4.84167-4.75055-4.97479C6.12543,8.51971,9.26587,6,13,6c0.46375,0,0.92175,0.04407,1.37292,0.12201
	C14.13623,6.70288,14,7.33514,14,8c0,2.75684,2.24316,5,5,5s5-2.24316,5-5S21.75684,3,19,3z M8,17c0,1.6543-1.3457,3-3,3
	s-3-1.3457-3-3s1.3457-3,3-3S8,15.3457,8,17z M19,11c-1.6543,0-3-1.3457-3-3s1.3457-3,3-3s3,1.3457,3,3S20.6543,11,19,11z"/>
</svg>
