<?xml version="1.0" encoding="utf-8"?>
<!-- Generator: Adobe Illustrator 19.1.0, SVG Export Plug-In . SVG Version: 6.00 Build 0)  -->
<!DOCTYPE svg PUBLIC "-//W3C//DTD SVG 1.1//EN" "http://www.w3.org/Graphics/SVG/1.1/DTD/svg11.dtd">
<svg version="1.1" id="Layer_1" xmlns="http://www.w3.org/2000/svg" xmlns:xlink="http://www.w3.org/1999/xlink" x="0px" y="0px"
	 width="24px" height="24px" viewBox="0 0 24 24" enable-background="new 0 0 24 24" xml:space="preserve">
<path d="M22,4H4.41406l1.29297-1.29297c0.39062-0.39062,0.39062-1.02344,0-1.41406s-1.02344-0.39062-1.41406,0L1.29382,4.29211
	C1.20123,4.38446,1.12793,4.49518,1.07709,4.61792C0.97601,4.8623,0.97607,5.1377,1.07715,5.38208
	c0.05078,0.12274,0.12408,0.23346,0.21667,0.32581l2.99915,2.99915C4.48828,8.90234,4.74414,9,5,9s0.51172-0.09766,0.70703-0.29297
	c0.39062-0.39062,0.39062-1.02344,0-1.41406L4.41406,6H22c0.55225,0,1-0.44727,1-1S22.55225,4,22,4z"/>
<path d="M19.5,14c-0.61157,0-1.17834,0.17157-1.6792,0.44849C17.37109,13.03436,16.06097,12,14.5,12
	c-0.61157,0-1.17834,0.17157-1.6792,0.44849C12.37109,11.03436,11.06097,10,9.5,10s-2.87109,1.03436-3.3208,2.44849
	C5.67834,12.17157,5.11157,12,4.5,12C2.57031,12,1,13.57031,1,15.5V23c0,0.55273,0.44775,1,1,1s1-0.44727,1-1v-7.5
	C3,14.67285,3.67285,14,4.5,14S6,14.67285,6,15.5V16v7c0,0.55273,0.44775,1,1,1s1-0.44727,1-1v-7v-0.5v-2
	C8,12.67285,8.67285,12,9.5,12s1.5,0.67285,1.5,1.5v2V16v7c0,0.55273,0.44775,1,1,1s1-0.44727,1-1v-7v-0.5
	c0-0.82715,0.67285-1.5,1.5-1.5s1.5,0.67285,1.5,1.5v2V18v5c0,0.55273,0.44775,1,1,1s1-0.44727,1-1v-5v-0.5
	c0-0.82715,0.67285-1.5,1.5-1.5s1.5,0.67285,1.5,1.5V23c0,0.55273,0.44775,1,1,1s1-0.44727,1-1v-5.5
	C23,15.57031,21.42969,14,19.5,14z"/>
</svg>
