<?xml version="1.0" encoding="utf-8"?>
<!-- Generator: Adobe Illustrator 19.1.0, SVG Export Plug-In . SVG Version: 6.00 Build 0)  -->
<!DOCTYPE svg PUBLIC "-//W3C//DTD SVG 1.1//EN" "http://www.w3.org/Graphics/SVG/1.1/DTD/svg11.dtd">
<svg version="1.1" id="Layer_1" xmlns="http://www.w3.org/2000/svg" xmlns:xlink="http://www.w3.org/1999/xlink" x="0px" y="0px"
	 width="24px" height="24px" viewBox="0 0 24 24" enable-background="new 0 0 24 24" xml:space="preserve">
<path d="M19.5,2C17.01855,2,15,4.01855,15,6.5V21c0,0.55225,0.44775,1,1,1s1-0.44775,1-1V6.5C17,5.12158,18.12158,4,19.5,4
	S22,5.12158,22,6.5V21c0,0.55225,0.44775,1,1,1s1-0.44775,1-1V6.5C24,4.01855,21.98145,2,19.5,2z"/>
<path d="M1.07721,8.38214c0.05072,0.12238,0.12378,0.23303,0.21606,0.3252l3.99969,3.99969C5.48828,12.90234,5.74414,13,6,13
	s0.51172-0.09766,0.70703-0.29297c0.39062-0.39062,0.39062-1.02344,0-1.41406L4.41406,9H12c0.55225,0,1-0.44775,1-1s-0.44775-1-1-1
	H4.41406l2.29297-2.29297c0.39062-0.39062,0.39062-1.02344,0-1.41406s-1.02344-0.39062-1.41406,0L1.29327,7.29266
	c-0.09229,0.09216-0.16534,0.20282-0.21606,0.3252C0.97607,7.86237,0.97607,8.13763,1.07721,8.38214z"/>
</svg>
