<?xml version="1.0" encoding="utf-8"?>
<!-- Generator: Adobe Illustrator 19.1.0, SVG Export Plug-In . SVG Version: 6.00 Build 0)  -->
<!DOCTYPE svg PUBLIC "-//W3C//DTD SVG 1.1//EN" "http://www.w3.org/Graphics/SVG/1.1/DTD/svg11.dtd">
<svg version="1.1" id="Layer_1" xmlns="http://www.w3.org/2000/svg" xmlns:xlink="http://www.w3.org/1999/xlink" x="0px" y="0px"
	 width="24px" height="24px" viewBox="0 0 24 24" enable-background="new 0 0 24 24" xml:space="preserve">
<path d="M16.08594,11.78174c-1.49805-1.97656-4.32617-2.36816-6.30469-0.86768c-0.95703,0.72656-1.5752,1.78223-1.73926,2.97266
	s0.14551,2.37402,0.87207,3.33203l4.8418,6.38574C13.95215,23.86328,14.25098,24,14.55371,24
	c0.20996,0,0.42285-0.06641,0.60352-0.20312c0.43945-0.33398,0.52637-0.96094,0.19238-1.40137l-4.8418-6.38574
	c-0.40332-0.53125-0.5752-1.18848-0.48438-1.85059c0.09082-0.66113,0.43457-1.24805,0.9668-1.65137
	c1.09668-0.83301,2.66895-0.61621,3.50195,0.48193l7.71094,10.17041c0.33203,0.4375,0.95996,0.52637,1.40137,0.19238
	c0.43945-0.33398,0.52637-0.96094,0.19238-1.40137L16.08594,11.78174z"/>
<path d="M1.29364,6.7077l3.99933,3.99933C5.48828,10.90234,5.74414,11,6,11s0.51172-0.09766,0.70703-0.29297
	c0.39062-0.39062,0.39062-1.02344,0-1.41406L4.41406,7H17c2.20605,0,4,1.79443,4,4c0,0.55225,0.44727,1,1,1s1-0.44775,1-1
	c0-3.30859-2.69141-6-6-6H4.41406l2.29297-2.29297c0.39062-0.39062,0.39062-1.02344,0-1.41406s-1.02344-0.39062-1.41406,0
	L1.29364,5.2923C1.20111,5.38464,1.12787,5.49536,1.07709,5.61798c-0.10107,0.24438-0.10107,0.51965,0,0.76404
	C1.12787,6.50464,1.20111,6.61536,1.29364,6.7077z"/>
</svg>
