<?xml version="1.0" encoding="utf-8"?>
<!-- Generator: Adobe Illustrator 19.1.0, SVG Export Plug-In . SVG Version: 6.00 Build 0)  -->
<!DOCTYPE svg PUBLIC "-//W3C//DTD SVG 1.1//EN" "http://www.w3.org/Graphics/SVG/1.1/DTD/svg11.dtd">
<svg version="1.1" id="Layer_1" xmlns="http://www.w3.org/2000/svg" xmlns:xlink="http://www.w3.org/1999/xlink" x="0px" y="0px"
	 width="24px" height="24px" viewBox="0 0 24 24" enable-background="new 0 0 24 24" xml:space="preserve">
<path d="M24,5c0-2.75684-2.24316-5-5-5s-5,2.24316-5,5c0,1.01733,0.30902,1.9624,0.83301,2.75293l-7.08008,7.08008
	C7.22852,14.48541,6.63715,14.23096,6,14.10107V9.89893C8.2793,9.43427,10,7.41443,10,5c0-2.75684-2.24316-5-5-5S0,2.24316,0,5
	c0,2.41443,1.7207,4.43427,4,4.89893v4.20215C1.7207,14.56573,0,16.58557,0,19c0,2.75684,2.24316,5,5,5s5-2.24316,5-5
	c0-1.01733-0.30902-1.9624-0.83301-2.75293l7.08008-7.08008C16.77148,9.51459,17.36285,9.76904,18,9.89893v4.20215
	c-2.2793,0.46466-4,2.4845-4,4.89893c0,2.75684,2.24316,5,5,5s5-2.24316,5-5c0-2.41443-1.7207-4.43427-4-4.89893V9.89893
	C22.2793,9.43427,24,7.41443,24,5z M19,2c1.6543,0,3,1.3457,3,3s-1.3457,3-3,3s-3-1.3457-3-3S17.3457,2,19,2z M2,5
	c0-1.6543,1.3457-3,3-3s3,1.3457,3,3S6.6543,8,5,8S2,6.6543,2,5z M5,22c-1.6543,0-3-1.3457-3-3s1.3457-3,3-3s3,1.3457,3,3
	S6.6543,22,5,22z M22,19c0,1.6543-1.3457,3-3,3s-3-1.3457-3-3s1.3457-3,3-3S22,17.3457,22,19z"/>
</svg>
