<?xml version="1.0" encoding="utf-8"?>
<!-- Generator: Adobe Illustrator 19.1.0, SVG Export Plug-In . SVG Version: 6.00 Build 0)  -->
<!DOCTYPE svg PUBLIC "-//W3C//DTD SVG 1.1//EN" "http://www.w3.org/Graphics/SVG/1.1/DTD/svg11.dtd">
<svg version="1.1" id="Layer_1" xmlns="http://www.w3.org/2000/svg" xmlns:xlink="http://www.w3.org/1999/xlink" x="0px" y="0px"
	 width="24px" height="24px" viewBox="0 0 24 24" enable-background="new 0 0 24 24" xml:space="preserve">
<path d="M14,2c-0.55225,0-1,0.44775-1,1v7c0,0.13025,0.02667,0.25989,0.07721,0.38214
	c0.10138,0.24445,0.2962,0.43927,0.54065,0.54065C13.74011,10.97339,13.86975,11,14,11h7c0.55225,0,1-0.44775,1-1s-0.44775-1-1-1
	h-4.58594l6.29297-6.29297c0.39062-0.39062,0.39062-1.02344,0-1.41406s-1.02344-0.39062-1.41406,0L15,7.58594V3
	C15,2.44775,14.55225,2,14,2z"/>
<path d="M10.38214,13.07721C10.25989,13.02661,10.13025,13,10,13H3c-0.55225,0-1,0.44775-1,1s0.44775,1,1,1h4.58594
	l-6.29297,6.29297c-0.39062,0.39062-0.39062,1.02344,0,1.41406C1.48828,22.90234,1.74414,23,2,23s0.51172-0.09766,0.70703-0.29297
	L9,16.41406V21c0,0.55225,0.44775,1,1,1s1-0.44775,1-1v-7c0-0.13025-0.02661-0.25989-0.07721-0.38214
	C10.82141,13.37341,10.62659,13.17859,10.38214,13.07721z"/>
</svg>
