<?xml version="1.0" encoding="utf-8"?>
<!-- Generator: Adobe Illustrator 19.1.0, SVG Export Plug-In . SVG Version: 6.00 Build 0)  -->
<!DOCTYPE svg PUBLIC "-//W3C//DTD SVG 1.1//EN" "http://www.w3.org/Graphics/SVG/1.1/DTD/svg11.dtd">
<svg version="1.1" id="Layer_1" xmlns="http://www.w3.org/2000/svg" xmlns:xlink="http://www.w3.org/1999/xlink" x="0px" y="0px"
	 width="24px" height="24px" viewBox="0 0 24 24" enable-background="new 0 0 24 24" xml:space="preserve">
<path d="M18.15527,3.51172L9.49609,2.42969C8.36719,2.28711,7.21387,2.63965,6.35352,3.39941C5.49316,4.1582,5,5.25098,5,6.39844V7
	H4c-1.6543,0-3,1.3457-3,3v3.89551c0,1.58301,0.54492,3.13672,1.5332,4.37305L5.21875,21.625C5.40918,21.8623,5.69629,22,6,22h14
	c0.50391,0,0.92969-0.37598,0.99219-0.87598l1.50391-12.03125C22.83887,6.3584,20.8916,3.85449,18.15527,3.51172z M20.51172,8.84473
	L19.11719,20H6.48047L4.0957,17.01855C3.38867,16.13574,3,15.02637,3,13.89551V10c0-0.55176,0.44824-1,1-1h1v3
	c0,0.55273,0.44727,1,1,1s1-0.44727,1-1V8V6.39844c0-0.58203,0.24023-1.11426,0.67676-1.5
	C8.11426,4.5127,8.67969,4.3418,9.24805,4.41406l8.65918,1.08203C19.54883,5.70215,20.7168,7.2041,20.51172,8.84473z"/>
</svg>
