<?xml version="1.0" encoding="utf-8"?>
<!-- Generator: Adobe Illustrator 19.1.0, SVG Export Plug-In . SVG Version: 6.00 Build 0)  -->
<!DOCTYPE svg PUBLIC "-//W3C//DTD SVG 1.1//EN" "http://www.w3.org/Graphics/SVG/1.1/DTD/svg11.dtd">
<svg version="1.1" id="Layer_1" xmlns="http://www.w3.org/2000/svg" xmlns:xlink="http://www.w3.org/1999/xlink" x="0px" y="0px"
	 width="24px" height="24px" viewBox="0 0 24 24" enable-background="new 0 0 24 24" xml:space="preserve">
<path d="M20.5,2c-1.56097,0-2.87109,1.03436-3.3208,2.44849C16.67834,4.17157,16.11157,4,15.5,4C13.57031,4,12,5.57031,12,7.5V21
	c0,0.55225,0.44727,1,1,1s1-0.44775,1-1V7.5C14,6.67285,14.67285,6,15.5,6S17,6.67285,17,7.5v0.49951V21c0,0.55225,0.44727,1,1,1
	s1-0.44775,1-1V7.99951V7.5v-2C19,4.67285,19.67285,4,20.5,4S22,4.67285,22,5.5V21c0,0.55225,0.44727,1,1,1s1-0.44775,1-1V5.5
	C24,3.57031,22.42969,2,20.5,2z"/>
<path d="M5.29211,18.70618c0.09235,0.09259,0.20306,0.16589,0.32581,0.21667C5.74011,18.97339,5.86981,19,6,19
	s0.25989-0.02655,0.38208-0.07709c0.12274-0.05084,0.23346-0.12415,0.32581-0.21674l3.99915-3.99915
	c0.39062-0.39062,0.39062-1.02344,0-1.41406s-1.02344-0.39062-1.41406,0L7,15.58594V5c0-0.55225-0.44727-1-1-1S5,4.44775,5,5
	v10.58594l-2.29297-2.29297c-0.39062-0.39062-1.02344-0.39062-1.41406,0s-0.39062,1.02344,0,1.41406L5.29211,18.70618z"/>
</svg>
