<?xml version="1.0" encoding="utf-8"?>
<!-- Generator: Adobe Illustrator 19.1.0, SVG Export Plug-In . SVG Version: 6.00 Build 0)  -->
<!DOCTYPE svg PUBLIC "-//W3C//DTD SVG 1.1//EN" "http://www.w3.org/Graphics/SVG/1.1/DTD/svg11.dtd">
<svg version="1.1" id="Layer_1" xmlns="http://www.w3.org/2000/svg" xmlns:xlink="http://www.w3.org/1999/xlink" x="0px" y="0px"
	 width="24px" height="24px" viewBox="0 0 24 24" enable-background="new 0 0 24 24" xml:space="preserve">
<path d="M12,6c-0.55273,0-1,0.44775-1,1v12.58594l-2.29297-2.29297c-0.39062-0.39062-1.02344-0.39062-1.41406,0
	s-0.39062,1.02344,0,1.41406l3.99915,3.99915c0.09235,0.09259,0.20306,0.16589,0.32581,0.21667C11.74011,22.97339,11.86981,23,12,23
	s0.25989-0.02655,0.38208-0.07709c0.12274-0.05084,0.23346-0.12415,0.32581-0.21674l3.99915-3.99915
	c0.39062-0.39062,0.39062-1.02344,0-1.41406s-1.02344-0.39062-1.41406,0L13,19.58594V7C13,6.44775,12.55273,6,12,6z"/>
<path d="M7.33203,12.2168c0.41113,0.36816,1.04395,0.33496,1.41211-0.07812c0.36816-0.41113,0.33301-1.04346-0.07812-1.41211
	C7.60742,9.77832,7,8.41992,7,7c0-2.75684,2.24316-5,5-5s5,2.24316,5,5c0,1.42041-0.60742,2.77832-1.66699,3.72656
	c-0.41113,0.36816-0.44629,1.00049-0.07812,1.41211c0.19727,0.2207,0.4707,0.33301,0.74512,0.33301
	c0.2373,0,0.47656-0.08398,0.66699-0.25488C18.14941,10.88965,19,8.98828,19,7c0-3.85986-3.14062-7-7-7S5,3.14014,5,7
	C5,8.98779,5.84961,10.88916,7.33203,12.2168z"/>
</svg>
