<?xml version="1.0" encoding="utf-8"?>
<!-- Generator: Adobe Illustrator 19.1.0, SVG Export Plug-In . SVG Version: 6.00 Build 0)  -->
<!DOCTYPE svg PUBLIC "-//W3C//DTD SVG 1.1//EN" "http://www.w3.org/Graphics/SVG/1.1/DTD/svg11.dtd">
<svg version="1.1" id="Layer_1" xmlns="http://www.w3.org/2000/svg" xmlns:xlink="http://www.w3.org/1999/xlink" x="0px" y="0px"
	 width="24px" height="24px" viewBox="0 0 24 24" enable-background="new 0 0 24 24" xml:space="preserve">
<path d="M12,0C5.93457,0,1,4.93457,1,11c0,1.93555,0.50977,3.83887,1.47461,5.50488c0.18506,0.32031,0.521,0.49902,0.86621,0.49902
	c0.16992,0,0.34229-0.04346,0.5-0.13477c0.47803-0.27637,0.64111-0.88818,0.36426-1.36621C3.41699,14.14111,3,12.58398,3,11
	c0-4.9624,4.0376-9,9-9s9,4.0376,9,9c0,1.58301-0.41602,3.13867-1.20361,4.49902c-0.27637,0.47803-0.11328,1.08984,0.36475,1.3667
	c0.47852,0.27637,1.08984,0.11328,1.3667-0.36475C22.49072,14.83643,23,12.93408,23,11C23,4.93457,18.06543,0,12,0z"/>
<path d="M16,24c0.55225,0,1-0.44775,1-1V12c0-2.75684-2.24316-5-5-5s-5,2.24316-5,5v11c0,0.55225,0.44775,1,1,1s1-0.44775,1-1V12
	c0-1.6543,1.3457-3,3-3s3,1.3457,3,3v11C15,23.55225,15.44775,24,16,24z"/>
</svg>
