<?xml version="1.0" encoding="utf-8"?>
<!-- Generator: Adobe Illustrator 19.1.0, SVG Export Plug-In . SVG Version: 6.00 Build 0)  -->
<!DOCTYPE svg PUBLIC "-//W3C//DTD SVG 1.1//EN" "http://www.w3.org/Graphics/SVG/1.1/DTD/svg11.dtd">
<svg version="1.1" id="Layer_1" xmlns="http://www.w3.org/2000/svg" xmlns:xlink="http://www.w3.org/1999/xlink" x="0px" y="0px"
	 width="24px" height="24px" viewBox="0 0 24 24" enable-background="new 0 0 24 24" xml:space="preserve">
<path d="M15,1c-2.06055,0-4.05273,0.71045-5.6543,2.00879C9.23145,3.00342,9.11621,3,9,3c-4.96289,0-9,4.0376-9,9
	c0,1.1665,0.2207,2.30225,0.65527,3.37646c0.15723,0.38916,0.53125,0.62549,0.92676,0.62549c0.125,0,0.25195-0.02393,0.375-0.07373
	c0.51172-0.20703,0.75879-0.79004,0.55176-1.30176C2.1709,13.7915,2,12.9082,2,12c0-3.85986,3.14062-7,7-7
	c0.20215,0,0.40039,0.01465,0.59863,0.03125c0.27246,0.02441,0.54395-0.06787,0.75-0.25049C11.63574,3.63232,13.28711,3,15,3
	c3.85938,0,7,3.14014,7,7c0,0.90918-0.1709,1.79199-0.50781,2.62451c-0.20703,0.51221,0.04004,1.09521,0.55176,1.30225
	c0.51172,0.20752,1.09473-0.03955,1.30176-0.55127C23.78027,12.30322,24,11.16748,24,10C24,5.0376,19.96289,1,15,1z"/>
<path d="M19,24c0.55273,0,1-0.44775,1-1V10.5C20,8.01855,17.98145,6,15.5,6c-1.94879,0-3.59583,1.25232-4.22009,2.98877
	C10.51208,8.37939,9.5542,8,8.5,8C6.01855,8,4,10.01855,4,12.5V23c0,0.55225,0.44727,1,1,1s1-0.44775,1-1V12.5
	C6,11.12158,7.12109,10,8.5,10s2.5,1.12158,2.5,2.5v0.50049V23c0,0.55225,0.44727,1,1,1s1-0.44775,1-1v-9.99951V12.5v-2
	C13,9.12158,14.12109,8,15.5,8S18,9.12158,18,10.5V23C18,23.55225,18.44727,24,19,24z"/>
</svg>
