<?xml version="1.0" encoding="utf-8"?>
<!-- Generator: Adobe Illustrator 19.1.0, SVG Export Plug-In . SVG Version: 6.00 Build 0)  -->
<!DOCTYPE svg PUBLIC "-//W3C//DTD SVG 1.1//EN" "http://www.w3.org/Graphics/SVG/1.1/DTD/svg11.dtd">
<svg version="1.1" id="Layer_1" xmlns="http://www.w3.org/2000/svg" xmlns:xlink="http://www.w3.org/1999/xlink" x="0px" y="0px"
	 width="24px" height="24px" viewBox="0 0 24 24" enable-background="new 0 0 24 24" xml:space="preserve">
<path d="M22.70618,11.29211l-2.99915-2.99915c-0.39062-0.39062-1.02344-0.39062-1.41406,0s-0.39062,1.02344,0,1.41406L19.58594,11
	H13V4.41406l1.29297,1.29297C14.48828,5.90234,14.74414,6,15,6s0.51172-0.09766,0.70703-0.29297
	c0.39062-0.39062,0.39062-1.02344,0-1.41406L12.7077,1.29364c-0.09235-0.09253-0.20306-0.16583-0.32581-0.21661
	c-0.24426-0.10101-0.51953-0.10101-0.76379,0c-0.12274,0.05078-0.23346,0.12408-0.32581,0.21661L8.29297,4.29297
	c-0.39062,0.39062-0.39062,1.02344,0,1.41406s1.02344,0.39062,1.41406,0L11,4.41406V11H4.41406l1.29297-1.29297
	c0.39062-0.39062,0.39062-1.02344,0-1.41406s-1.02344-0.39062-1.41406,0l-2.99915,2.99915
	c-0.09259,0.09235-0.16589,0.20306-0.21674,0.32581c-0.10107,0.24438-0.10101,0.51978,0.00006,0.76416
	c0.05078,0.12274,0.12408,0.23346,0.21667,0.32581l2.99915,2.99915C4.48828,15.90234,4.74414,16,5,16
	s0.51172-0.09766,0.70703-0.29297c0.39062-0.39062,0.39062-1.02344,0-1.41406L4.41406,13H11v6.58594l-1.29297-1.29297
	c-0.39062-0.39062-1.02344-0.39062-1.41406,0s-0.39062,1.02344,0,1.41406l2.99933,2.99933
	c0.09235,0.09253,0.20306,0.16577,0.32568,0.21655C11.74017,22.97345,11.86981,23,12,23s0.25983-0.02655,0.38202-0.07709
	c0.12262-0.05078,0.23334-0.12402,0.32568-0.21655l2.99933-2.99933c0.39062-0.39062,0.39062-1.02344,0-1.41406
	s-1.02344-0.39062-1.41406,0L13,19.58594V13h6.58594l-1.29297,1.29297c-0.39062,0.39062-0.39062,1.02344,0,1.41406
	C18.48828,15.90234,18.74414,16,19,16s0.51172-0.09766,0.70703-0.29297l2.99915-2.99915
	c0.09259-0.09235,0.16589-0.20306,0.21667-0.32581c0.10107-0.24438,0.10114-0.51978,0.00006-0.76416
	C22.87207,11.49518,22.79877,11.38446,22.70618,11.29211z"/>
</svg>
