<?xml version="1.0" encoding="utf-8"?>
<!-- Generator: Adobe Illustrator 19.2.1, SVG Export Plug-In . SVG Version: 6.00 Build 0)  -->
<!DOCTYPE svg PUBLIC "-//W3C//DTD SVG 1.1//EN" "http://www.w3.org/Graphics/SVG/1.1/DTD/svg11.dtd">
<svg version="1.1" id="Layer_1" xmlns="http://www.w3.org/2000/svg" xmlns:xlink="http://www.w3.org/1999/xlink" x="0px" y="0px"
	 width="32px" height="32px" viewBox="0 0 32 32" enable-background="new 0 0 32 32" xml:space="preserve">
<path fill="#222221" d="M2,13h28c0.552,0,1-0.448,1-1V4c0-0.552-0.448-1-1-1H2C1.448,3,1,3.448,1,4v8C1,12.552,1.448,13,2,13z"/>
<path fill="#222221" d="M2,21h28c0.552,0,1-0.448,1-1s-0.448-1-1-1H2c-0.552,0-1,0.448-1,1S1.448,21,2,21z"/>
<path fill="#222221" d="M2,29h28c0.552,0,1-0.448,1-1s-0.448-1-1-1H2c-0.552,0-1,0.448-1,1S1.448,29,2,29z"/>
</svg>
