<?xml version="1.0" encoding="utf-8"?>
<!-- Generator: Adobe Illustrator 19.2.1, SVG Export Plug-In . SVG Version: 6.00 Build 0)  -->
<!DOCTYPE svg PUBLIC "-//W3C//DTD SVG 1.1//EN" "http://www.w3.org/Graphics/SVG/1.1/DTD/svg11.dtd">
<svg version="1.1" id="Layer_1" xmlns="http://www.w3.org/2000/svg" xmlns:xlink="http://www.w3.org/1999/xlink" x="0px" y="0px"
	 width="32px" height="32px" viewBox="0 0 32 32" enable-background="new 0 0 32 32" xml:space="preserve">
<path fill="#222221" d="M31,2H13c-0.552,0-1,0.448-1,1v4c0,0.552,0.448,1,1,1h18c0.552,0,1-0.448,1-1V3C32,2.448,31.552,2,31,2z"/>
<path fill="#222221" d="M31,13H13c-0.552,0-1,0.448-1,1v4c0,0.552,0.448,1,1,1h18c0.552,0,1-0.448,1-1v-4C32,13.448,31.552,13,31,13
	z"/>
<path fill="#222221" d="M31,24H13c-0.552,0-1,0.448-1,1v4c0,0.552,0.448,1,1,1h18c0.552,0,1-0.448,1-1v-4C32,24.448,31.552,24,31,24
	z"/>
<polygon fill="#222221" points="9,9 1,16 9,23 "/>
</svg>
