<?xml version="1.0" encoding="utf-8"?>
<!-- Generator: Adobe Illustrator 19.2.1, SVG Export Plug-In . SVG Version: 6.00 Build 0)  -->
<!DOCTYPE svg PUBLIC "-//W3C//DTD SVG 1.1//EN" "http://www.w3.org/Graphics/SVG/1.1/DTD/svg11.dtd">
<svg version="1.1" id="Layer_1" xmlns="http://www.w3.org/2000/svg" xmlns:xlink="http://www.w3.org/1999/xlink" x="0px" y="0px"
	 width="32px" height="32px" viewBox="0 0 32 32" enable-background="new 0 0 32 32" xml:space="preserve">
<path d="M13.896,3.104l5.433,5.433l-4.883,3.909L9,7V5L5,1L1,5l4,4h2l5.224,5.224L0.883,23.303c-0.47,0.371-0.511,1.069-0.087,1.492
	l6.41,6.41c0.423,0.423,1.121,0.382,1.492-0.087l14.766-18.446l3.587,3.587l4.95-4.95l-8.205-8.205
	C19.125-1.566,13.896,3.104,13.896,3.104z"/>
<path d="M22.755,16.755L17.42,23.42l7.337,7.337c1.657,1.657,4.343,1.657,6,0h0c1.657-1.657,1.657-4.343,0-6L22.755,16.755z"/>
</svg>
