<?xml version="1.0" encoding="utf-8"?>
<!-- Generator: Adobe Illustrator 19.2.1, SVG Export Plug-In . SVG Version: 6.00 Build 0)  -->
<!DOCTYPE svg PUBLIC "-//W3C//DTD SVG 1.1//EN" "http://www.w3.org/Graphics/SVG/1.1/DTD/svg11.dtd">
<svg version="1.1" id="Layer_1" xmlns="http://www.w3.org/2000/svg" xmlns:xlink="http://www.w3.org/1999/xlink" x="0px" y="0px"
	 width="32px" height="32px" viewBox="0 0 32 32" enable-background="new 0 0 32 32" xml:space="preserve">
<path d="M1.293,29.293c-0.391,0.391-0.391,1.023,0,1.414C1.488,30.902,1.744,31,2,31s0.512-0.098,0.707-0.293l4.174-4.174
	c1.061,0.479,3.239,1.282,5.929,1.282c3.576,0,6.771-1.382,9.497-4.107c6.55-6.55,8.6-20.96,8.684-21.57
	c0.043-0.314-0.065-0.631-0.292-0.853c-0.228-0.222-0.548-0.324-0.859-0.271C29.211,1.115,14.39,3.595,8.293,9.693
	c-4.638,4.638-4.463,9.748-3.67,12.947l4.959-3.03c0.505-0.309,1.033,0.362,0.614,0.78L1.293,29.293z"/>
</svg>
