<?xml version="1.0" encoding="utf-8"?>
<!-- Generator: Adobe Illustrator 19.2.1, SVG Export Plug-In . SVG Version: 6.00 Build 0)  -->
<!DOCTYPE svg PUBLIC "-//W3C//DTD SVG 1.1//EN" "http://www.w3.org/Graphics/SVG/1.1/DTD/svg11.dtd">
<svg version="1.1" id="Layer_1" xmlns="http://www.w3.org/2000/svg" xmlns:xlink="http://www.w3.org/1999/xlink" x="0px" y="0px"
	 width="32px" height="32px" viewBox="0 0 32 32" enable-background="new 0 0 32 32" xml:space="preserve">
<path d="M16,32c5.898,0,12-4.489,12-12c0-7.267-10.83-18.242-11.291-18.705c-0.375-0.378-1.043-0.378-1.418,0
	C14.83,1.758,4,12.733,4,20C4,27.511,10.102,32,16,32z M15.194,12.12c0.188-0.252,0.485-0.401,0.801-0.401s0.612,0.149,0.801,0.401
	c1.239,1.658,4.129,5.741,4.204,7.853C21,24.103,17.391,25,16,25s-5-0.898-5-5C11.075,17.847,13.958,13.773,15.194,12.12z"/>
</svg>
