<?xml version="1.0" encoding="utf-8"?>
<!-- Generator: Adobe Illustrator 19.2.1, SVG Export Plug-In . SVG Version: 6.00 Build 0)  -->
<!DOCTYPE svg PUBLIC "-//W3C//DTD SVG 1.1//EN" "http://www.w3.org/Graphics/SVG/1.1/DTD/svg11.dtd">
<svg version="1.1" id="Layer_1" xmlns="http://www.w3.org/2000/svg" xmlns:xlink="http://www.w3.org/1999/xlink" x="0px" y="0px"
	 width="32px" height="32px" viewBox="0 0 32 32" enable-background="new 0 0 32 32" xml:space="preserve">
<path d="M31,0H1C0.447,0,0,0.448,0,1v30c0,0.552,0.447,1,1,1h30c0.553,0,1-0.448,1-1V1C32,0.448,31.553,0,31,0z M15,6
	c0-0.552,0.447-1,1-1s1,0.448,1,1v12c0,0.552-0.447,1-1,1s-1-0.448-1-1V6z M16,26c-1.105,0-2-0.895-2-2c0-1.105,0.895-2,2-2
	s2,0.895,2,2C18,25.105,17.105,26,16,26z"/>
</svg>
