<?xml version="1.0" encoding="utf-8"?>
<!-- Generator: Adobe Illustrator 19.2.1, SVG Export Plug-In . SVG Version: 6.00 Build 0)  -->
<!DOCTYPE svg PUBLIC "-//W3C//DTD SVG 1.1//EN" "http://www.w3.org/Graphics/SVG/1.1/DTD/svg11.dtd">
<svg version="1.1" id="Layer_1" xmlns="http://www.w3.org/2000/svg" xmlns:xlink="http://www.w3.org/1999/xlink" x="0px" y="0px"
	 width="32px" height="32px" viewBox="0 0 32 32" enable-background="new 0 0 32 32" xml:space="preserve">
<path d="M19.293,3.293l-3,3c-1.832,1.832-2.365,4.473-1.61,6.782l1.699-1.699c-0.106-1.315,0.322-2.666,1.326-3.669l3-3
	C21.615,3.799,22.808,3.346,24,3.346s2.385,0.453,3.293,1.361c1.815,1.815,1.815,4.771,0,6.586l-3,3
	c-1.004,1.004-2.355,1.433-3.67,1.326l-1.698,1.698c0.673,0.22,1.373,0.336,2.075,0.336c1.705,0,3.409-0.648,4.707-1.946l3-3
	c2.596-2.596,2.596-6.818,0-9.414S21.889,0.698,19.293,3.293z"/>
<rect x="7.929" y="15" transform="matrix(0.7071 -0.7071 0.7071 0.7071 -6.6276 16.0001)" width="16.142" height="2"/>
<path d="M3.293,19.293c-2.596,2.596-2.596,6.818,0,9.414C4.591,30.005,6.295,30.654,8,30.654s3.409-0.648,4.707-1.946l3-3
	c1.832-1.832,2.365-4.473,1.61-6.782l-1.699,1.699c0.106,1.315-0.322,2.666-1.326,3.669l-3,3c-1.816,1.816-4.77,1.816-6.586,0
	c-1.815-1.815-1.815-4.771,0-6.586l3-3c0.908-0.908,2.101-1.361,3.293-1.361c0.126,0,0.251,0.026,0.376,0.036l1.699-1.699
	c-2.309-0.754-4.95-0.222-6.782,1.61L3.293,19.293z"/>
<rect x="25.5" y="17.95" transform="matrix(0.1961 -0.9806 0.9806 0.1961 1.201 42.465)" width="2" height="5.099"/>
<rect x="19.5" y="23.95" transform="matrix(0.9805 -0.1963 0.1963 0.9805 -4.8032 4.5398)" width="2" height="5.099"/>
<rect x="10.5" y="2.95" transform="matrix(0.9805 -0.1963 0.1963 0.9805 -0.8559 2.3645)" width="2" height="5.099"/>
<rect x="4.5" y="8.95" transform="matrix(0.1961 -0.9806 0.9806 0.1961 -6.8553 14.6379)" width="2" height="5.099"/>
</svg>
