<?xml version="1.0" encoding="utf-8"?>
<!-- Generator: Adobe Illustrator 19.2.1, SVG Export Plug-In . SVG Version: 6.00 Build 0)  -->
<!DOCTYPE svg PUBLIC "-//W3C//DTD SVG 1.1//EN" "http://www.w3.org/Graphics/SVG/1.1/DTD/svg11.dtd">
<svg version="1.1" id="Layer_1" xmlns="http://www.w3.org/2000/svg" xmlns:xlink="http://www.w3.org/1999/xlink" x="0px" y="0px"
	 width="32px" height="32px" viewBox="0 0 32 32" enable-background="new 0 0 32 32" xml:space="preserve">
<path d="M1.838,13.101c1.86-5.359,6.665-9.347,12.477-10C12.852,1.217,10.57,0,8,0C3.582,0,0,3.582,0,8
	C0,9.939,0.69,11.716,1.838,13.101z"/>
<path d="M24,0c-2.57,0-4.852,1.217-6.315,3.101c5.812,0.653,10.617,4.641,12.477,10C31.31,11.716,32,9.939,32,8
	C32,3.582,28.418,0,24,0z"/>
<path d="M16,5C8.832,5,3,10.832,3,18c0,2.97,1.012,5.701,2.694,7.892l-4.401,4.401c-0.391,0.391-0.391,1.023,0,1.414
	C1.488,31.902,1.744,32,2,32s0.512-0.098,0.707-0.293l4.322-4.322C9.364,29.619,12.521,31,16,31s6.636-1.381,8.971-3.615
	l4.322,4.322C29.488,31.902,29.744,32,30,32s0.512-0.098,0.707-0.293c0.391-0.391,0.391-1.023,0-1.414l-4.401-4.401
	C27.988,23.701,29,20.97,29,18C29,10.832,23.168,5,16,5z M23,19h-8v-8h2v6h6V19z"/>
</svg>
