<?xml version="1.0" encoding="utf-8"?>
<!-- Generator: Adobe Illustrator 19.2.1, SVG Export Plug-In . SVG Version: 6.00 Build 0)  -->
<!DOCTYPE svg PUBLIC "-//W3C//DTD SVG 1.1//EN" "http://www.w3.org/Graphics/SVG/1.1/DTD/svg11.dtd">
<svg version="1.1" id="Layer_1" xmlns="http://www.w3.org/2000/svg" xmlns:xlink="http://www.w3.org/1999/xlink" x="0px" y="0px"
	 width="32px" height="32px" viewBox="0 0 32 32" enable-background="new 0 0 32 32" xml:space="preserve">
<path d="M7,23h6v-2H7c-2.757,0-5-2.243-5-5s2.243-5,5-5h6V9H7c-3.86,0-7,3.141-7,7S3.14,23,7,23z"/>
<path d="M9,16c0,0.553,0.448,1,1,1h3v-2h-3C9.448,15,9,15.447,9,16z"/>
<path d="M25,9h-6v2h6c2.757,0,5,2.243,5,5s-2.243,5-5,5h-6v2h6c3.86,0,7-3.141,7-7S28.86,9,25,9z"/>
<path d="M23,16c0-0.553-0.448-1-1-1h-3v2h3C22.552,17,23,16.553,23,16z"/>
<path d="M15,4v24c0,0.553,0.448,1,1,1s1-0.447,1-1V4c0-0.553-0.448-1-1-1S15,3.447,15,4z"/>
</svg>
