<?xml version="1.0" encoding="utf-8"?>
<!-- Generator: Adobe Illustrator 19.2.1, SVG Export Plug-In . SVG Version: 6.00 Build 0)  -->
<!DOCTYPE svg PUBLIC "-//W3C//DTD SVG 1.1//EN" "http://www.w3.org/Graphics/SVG/1.1/DTD/svg11.dtd">
<svg version="1.1" id="Layer_1" xmlns="http://www.w3.org/2000/svg" xmlns:xlink="http://www.w3.org/1999/xlink" x="0px" y="0px"
	 width="32px" height="32px" viewBox="0 0 32 32" enable-background="new 0 0 32 32" xml:space="preserve">
<path fill="#222221" d="M11.467,16.291l-3.124-3.124l4.528-4.528c0.396-0.396,0.396-1.038,0-1.434L6.962,1.297
	c-0.396-0.396-1.038-0.396-1.434,0L1,5.825c0,5.871,2.015,11.268,5.384,15.549L11.467,16.291z"/>
<path fill="#222221" d="M24.794,19.129c-0.396-0.396-1.038-0.396-1.434,0l-4.528,4.528l-3.124-3.124l-5.083,5.083
	C14.908,28.985,20.304,31,26.175,31l4.528-4.528c0.396-0.396,0.396-1.038,0-1.434L24.794,19.129z"/>
<path fill="#222221" d="M2,31c0.256,0,0.512-0.098,0.707-0.293l28-28c0.391-0.391,0.391-1.023,0-1.414s-1.023-0.391-1.414,0l-28,28
	c-0.391,0.391-0.391,1.023,0,1.414C1.488,30.902,1.744,31,2,31z"/>
</svg>
