<?xml version="1.0" encoding="utf-8"?>
<!-- Generator: Adobe Illustrator 19.2.1, SVG Export Plug-In . SVG Version: 6.00 Build 0)  -->
<!DOCTYPE svg PUBLIC "-//W3C//DTD SVG 1.1//EN" "http://www.w3.org/Graphics/SVG/1.1/DTD/svg11.dtd">
<svg version="1.1" id="Layer_1" xmlns="http://www.w3.org/2000/svg" xmlns:xlink="http://www.w3.org/1999/xlink" x="0px" y="0px"
	 width="32px" height="32px" viewBox="0 0 32 32" enable-background="new 0 0 32 32" xml:space="preserve">
<path d="M27,31V14h-2v16H2V7h16V5H1C0.447,5,0,5.447,0,6v25c0,0.553,0.447,1,1,1h25C26.553,32,27,31.553,27,31z"/>
<polygon points="13,16 12,20 16,19 28.722,6.136 25.864,3.278 "/>
<path d="M28.586,0.586l-1.3,1.286l2.842,2.842l1.286-1.3c0.781-0.781,0.781-2.047,0-2.828S29.367-0.195,28.586,0.586z"/>
</svg>
