<?xml version="1.0" encoding="utf-8"?>
<!-- Generator: Adobe Illustrator 19.2.1, SVG Export Plug-In . SVG Version: 6.00 Build 0)  -->
<!DOCTYPE svg PUBLIC "-//W3C//DTD SVG 1.1//EN" "http://www.w3.org/Graphics/SVG/1.1/DTD/svg11.dtd">
<svg version="1.1" id="Layer_1" xmlns="http://www.w3.org/2000/svg" xmlns:xlink="http://www.w3.org/1999/xlink" x="0px" y="0px"
	 width="32px" height="32px" viewBox="0 0 32 32" enable-background="new 0 0 32 32" xml:space="preserve">
<path d="M2.091,21.597c-0.017,0.039-0.024,0.079-0.036,0.12c-0.016,0.053-0.04,0.103-0.047,0.159l-1,8
	c-0.039,0.307,0.067,0.613,0.285,0.831C1.481,30.896,1.736,31,2,31c0.041,0,0.083-0.003,0.124-0.008l8-1
	c0.055-0.007,0.106-0.031,0.159-0.047c0.041-0.012,0.081-0.018,0.12-0.036c0.112-0.05,0.217-0.114,0.304-0.202l19.586-19.586
	c1.168-1.17,1.168-3.072,0-4.242l-4.171-4.172c-1.134-1.133-3.11-1.133-4.243,0L2.293,21.293C2.205,21.381,2.14,21.485,2.091,21.597
	z M10,27.586L7.914,25.5L21.5,11.914L23.586,14L10,27.586z M21,5.414L26.586,11L25,12.586L19.414,7L21,5.414z M18,8.414l2.086,2.086
	L6.5,24.086L4.414,22L18,8.414z"/>
</svg>
