<?xml version="1.0" encoding="utf-8"?>
<!-- Generator: Adobe Illustrator 19.2.1, SVG Export Plug-In . SVG Version: 6.00 Build 0)  -->
<!DOCTYPE svg PUBLIC "-//W3C//DTD SVG 1.1//EN" "http://www.w3.org/Graphics/SVG/1.1/DTD/svg11.dtd">
<svg version="1.1" id="Layer_1" xmlns="http://www.w3.org/2000/svg" xmlns:xlink="http://www.w3.org/1999/xlink" x="0px" y="0px"
	 width="32px" height="32px" viewBox="0 0 32 32" enable-background="new 0 0 32 32" xml:space="preserve">
<path fill="#222221" d="M30,8c0.552,0,1-0.448,1-1c0-0.552-0.448-1-1-1h-3c-0.552,0-1,0.448-1,1c0,0.552,0.448,1,1,1H30z"/>
<path fill="#222221" d="M22,6H2C1.448,6,1,6.448,1,7c0,0.552,0.448,1,1,1h20c0.552,0,1-0.448,1-1C23,6.448,22.552,6,22,6z"/>
<path fill="#222221" d="M2,17h3c0.552,0,1-0.448,1-1c0-0.552-0.448-1-1-1H2c-0.552,0-1,0.448-1,1C1,16.552,1.448,17,2,17z"/>
<path fill="#222221" d="M9,16c0,0.552,0.448,1,1,1h20c0.552,0,1-0.448,1-1c0-0.552-0.448-1-1-1H10C9.448,15,9,15.448,9,16z"/>
<path fill="#222221" d="M30,24h-3c-0.552,0-1,0.448-1,1c0,0.552,0.448,1,1,1h3c0.552,0,1-0.448,1-1C31,24.448,30.552,24,30,24z"/>
<path fill="#222221" d="M2,26h20c0.552,0,1-0.448,1-1c0-0.552-0.448-1-1-1H2c-0.552,0-1,0.448-1,1C1,25.552,1.448,26,2,26z"/>
</svg>
