<?xml version="1.0" encoding="utf-8"?>
<!-- Generator: Adobe Illustrator 19.2.1, SVG Export Plug-In . SVG Version: 6.00 Build 0)  -->
<!DOCTYPE svg PUBLIC "-//W3C//DTD SVG 1.1//EN" "http://www.w3.org/Graphics/SVG/1.1/DTD/svg11.dtd">
<svg version="1.1" id="Layer_1" xmlns="http://www.w3.org/2000/svg" xmlns:xlink="http://www.w3.org/1999/xlink" x="0px" y="0px"
	 width="32px" height="32px" viewBox="0 0 32 32" enable-background="new 0 0 32 32" xml:space="preserve">
<circle fill="#222221" cx="5" cy="5" r="4"/>
<path fill="#222221" d="M13,6h17c0.552,0,1-0.448,1-1c0-0.552-0.448-1-1-1H13c-0.552,0-1,0.448-1,1C12,5.552,12.448,6,13,6z"/>
<path fill="#222221" d="M13,14h17c0.552,0,1-0.448,1-1c0-0.552-0.448-1-1-1H13c-0.552,0-1,0.448-1,1C12,13.552,12.448,14,13,14z"/>
<circle fill="#222221" cx="5" cy="21" r="4"/>
<path fill="#222221" d="M13,22h17c0.552,0,1-0.448,1-1c0-0.552-0.448-1-1-1H13c-0.552,0-1,0.448-1,1C12,21.552,12.448,22,13,22z"/>
<path fill="#222221" d="M13,30h17c0.552,0,1-0.448,1-1c0-0.552-0.448-1-1-1H13c-0.552,0-1,0.448-1,1C12,29.552,12.448,30,13,30z"/>
</svg>
