<?xml version="1.0" encoding="utf-8"?>
<!-- Generator: Adobe Illustrator 19.2.1, SVG Export Plug-In . SVG Version: 6.00 Build 0)  -->
<!DOCTYPE svg PUBLIC "-//W3C//DTD SVG 1.1//EN" "http://www.w3.org/Graphics/SVG/1.1/DTD/svg11.dtd">
<svg version="1.1" id="Layer_1" xmlns="http://www.w3.org/2000/svg" xmlns:xlink="http://www.w3.org/1999/xlink" x="0px" y="0px"
	 width="32px" height="32px" viewBox="0 0 32 32" enable-background="new 0 0 32 32" xml:space="preserve">
<path d="M24,20v-8c0-0.553-0.447-1-1-1H9c-0.553,0-1,0.447-1,1v8c0,0.553,0.447,1,1,1h14C23.553,21,24,20.553,24,20z"/>
<path d="M2,2h8V0H1C0.447,0,0,0.447,0,1v9h2V2z"/>
<path d="M31,0h-9v2h8v8h2V1C32,0.447,31.553,0,31,0z"/>
<path d="M30,30h-8v2h9c0.553,0,1-0.447,1-1v-9h-2V30z"/>
<path d="M1,32h9v-2H2v-8H0v9C0,31.553,0.447,32,1,32z"/>
</svg>
