<?xml version="1.0" encoding="utf-8"?>
<!-- Generator: Adobe Illustrator 19.2.1, SVG Export Plug-In . SVG Version: 6.00 Build 0)  -->
<!DOCTYPE svg PUBLIC "-//W3C//DTD SVG 1.1//EN" "http://www.w3.org/Graphics/SVG/1.1/DTD/svg11.dtd">
<svg version="1.1" id="Layer_1" xmlns="http://www.w3.org/2000/svg" xmlns:xlink="http://www.w3.org/1999/xlink" x="0px" y="0px"
	 width="32px" height="32px" viewBox="0 0 32 32" enable-background="new 0 0 32 32" xml:space="preserve">
<path d="M31,0H1C0.447,0,0,0.447,0,1v30c0,0.553,0.447,1,1,1h30c0.553,0,1-0.447,1-1V1C32,0.447,31.553,0,31,0z M14,25
	c0,0.553-0.447,1-1,1H7c-0.553,0-1-0.447-1-1v-6c0-0.553,0.447-1,1-1h6c0.553,0,1,0.447,1,1V25z M14,13c0,0.553-0.447,1-1,1H7
	c-0.553,0-1-0.447-1-1V7c0-0.553,0.447-1,1-1h6c0.553,0,1,0.447,1,1V13z M26,25c0,0.553-0.447,1-1,1h-6c-0.553,0-1-0.447-1-1v-6
	c0-0.553,0.447-1,1-1h6c0.553,0,1,0.447,1,1V25z M26,13c0,0.553-0.447,1-1,1h-6c-0.553,0-1-0.447-1-1V7c0-0.553,0.447-1,1-1h6
	c0.553,0,1,0.447,1,1V13z"/>
</svg>
