<?xml version="1.0" encoding="utf-8"?>
<!-- Generator: Adobe Illustrator 19.2.1, SVG Export Plug-In . SVG Version: 6.00 Build 0)  -->
<!DOCTYPE svg PUBLIC "-//W3C//DTD SVG 1.1//EN" "http://www.w3.org/Graphics/SVG/1.1/DTD/svg11.dtd">
<svg version="1.1" id="Layer_1" xmlns="http://www.w3.org/2000/svg" xmlns:xlink="http://www.w3.org/1999/xlink" x="0px" y="0px"
	 width="32px" height="32px" viewBox="0 0 32 32" enable-background="new 0 0 32 32" xml:space="preserve">
<path d="M16,0C7.178,0,0,7.178,0,16s7.178,16,16,16s16-7.178,16-16S24.822,0,16,0z M16,27c-1.105,0-2-0.895-2-2c0-1.105,0.895-2,2-2
	c1.105,0,2,0.895,2,2C18,26.105,17.104,27,16,27z M17,16.917V19c0,0.552-0.448,1-1,1s-1-0.448-1-1v-3c0-0.552,0.448-1,1-1
	c2.206,0,4-1.794,4-4s-1.794-4-4-4c-1.591,0-3.03,0.942-3.668,2.4c-0.221,0.506-0.811,0.738-1.316,0.516
	c-0.506-0.221-0.737-0.811-0.516-1.316C11.456,6.413,13.615,5,16,5c3.309,0,6,2.691,6,6C22,13.968,19.834,16.439,17,16.917z"/>
</svg>
