<?xml version="1.0" encoding="utf-8"?>
<!-- Generator: Adobe Illustrator 19.2.1, SVG Export Plug-In . SVG Version: 6.00 Build 0)  -->
<!DOCTYPE svg PUBLIC "-//W3C//DTD SVG 1.1//EN" "http://www.w3.org/Graphics/SVG/1.1/DTD/svg11.dtd">
<svg version="1.1" id="Layer_1" xmlns="http://www.w3.org/2000/svg" xmlns:xlink="http://www.w3.org/1999/xlink" x="0px" y="0px"
	 width="32px" height="32px" viewBox="0 0 32 32" enable-background="new 0 0 32 32" xml:space="preserve">
<path d="M16,25c7.985,0,14.507-8.033,14.78-8.375c0.292-0.365,0.293-0.882,0.002-1.248c-0.262-0.33-6.335-7.828-13.989-8.329
	C16.532,7.019,16.269,7,16,7c-0.268,0-0.531,0.018-0.791,0.048C7.518,7.546,1.477,15.049,1.216,15.38
	c-0.288,0.364-0.287,0.879,0.002,1.243C1.489,16.964,7.974,25,16,25z M16,9c2.757,0,5,2.243,5,5s-2.243,5-5,5s-5-2.243-5-5
	S13.243,9,16,9z"/>
<path d="M16,17c0.553,0,1-0.448,1-1s-0.447-1-1-1c-0.552,0-1-0.449-1-1c0-0.552-0.447-1-1-1s-1,0.448-1,1C13,15.654,14.346,17,16,17
	z"/>
</svg>
