<?xml version="1.0" encoding="utf-8"?>
<!-- Generator: Adobe Illustrator 19.2.1, SVG Export Plug-In . SVG Version: 6.00 Build 0)  -->
<!DOCTYPE svg PUBLIC "-//W3C//DTD SVG 1.1//EN" "http://www.w3.org/Graphics/SVG/1.1/DTD/svg11.dtd">
<svg version="1.1" id="Layer_1" xmlns="http://www.w3.org/2000/svg" xmlns:xlink="http://www.w3.org/1999/xlink" x="0px" y="0px"
	 width="32px" height="32px" viewBox="0 0 32 32" enable-background="new 0 0 32 32" xml:space="preserve">
<path fill="#222221" d="M31,9h-3v11c0,1.105-0.895,2-2,2H15.128l-4.572,4h9.124l6.739,4.813c0.301,0.216,0.699,0.249,1.039,0.076
	C27.791,30.718,28,30.375,28,30v-4h3c0.552,0,1-0.448,1-1V10C32,9.448,31.552,9,31,9z"/>
<path fill="#222221" d="M25,20c0.553,0,1-0.447,1-1V2c0-0.553-0.447-1-1-1H1C0.447,1,0,1.447,0,2v17c0,0.553,0.447,1,1,1h4v6
	c0,0.393,0.229,0.748,0.587,0.91c0.351,0.161,0.773,0.103,1.071-0.157L14.376,20H25z"/>
</svg>
