<?xml version="1.0" encoding="utf-8"?>
<!-- Generator: Adobe Illustrator 19.2.1, SVG Export Plug-In . SVG Version: 6.00 Build 0)  -->
<!DOCTYPE svg PUBLIC "-//W3C//DTD SVG 1.1//EN" "http://www.w3.org/Graphics/SVG/1.1/DTD/svg11.dtd">
<svg version="1.1" id="Layer_1" xmlns="http://www.w3.org/2000/svg" xmlns:xlink="http://www.w3.org/1999/xlink" x="0px" y="0px"
	 width="32px" height="32px" viewBox="0 0 32 32" enable-background="new 0 0 32 32" xml:space="preserve">
<path d="M16,0C7.178,0,0,7.178,0,16s7.178,16,16,16s16-7.178,16-16S24.822,0,16,0z M29.949,17c-0.127,1.78-0.587,3.465-1.319,5H3.37
	c-0.733-1.535-1.193-3.22-1.319-5H5v-2H2.051c0.221-3.108,1.455-5.934,3.381-8.154l2.083,2.083l1.414-1.414L6.846,5.432
	c2.22-1.926,5.047-3.16,8.154-3.381V5h2V2.051c3.108,0.221,5.934,1.455,8.154,3.381l-2.083,2.083l1.414,1.414l2.083-2.083
	c1.926,2.22,3.16,5.047,3.381,8.154H27v2H29.949z"/>
<path d="M11.886,6.886c0,0,1.837,8.93,2.292,9.937c0.454,1.007,1.639,1.454,2.646,1c1.007-0.454,1.454-1.639,1-2.646
	C17.368,14.17,11.886,6.886,11.886,6.886z"/>
</svg>
