<?xml version="1.0" encoding="utf-8"?>
<!-- Generator: Adobe Illustrator 19.2.1, SVG Export Plug-In . SVG Version: 6.00 Build 0)  -->
<!DOCTYPE svg PUBLIC "-//W3C//DTD SVG 1.1//EN" "http://www.w3.org/Graphics/SVG/1.1/DTD/svg11.dtd">
<svg version="1.1" id="Layer_1" xmlns="http://www.w3.org/2000/svg" xmlns:xlink="http://www.w3.org/1999/xlink" x="0px" y="0px"
	 width="32px" height="32px" viewBox="0 0 32 32" enable-background="new 0 0 32 32" xml:space="preserve">
<path fill="#222221" d="M6.121,30.121C7.293,28.95,14,18,14,18S3.05,24.707,1.879,25.879s-1.172,3.071,0,4.243
	C3.05,31.293,4.95,31.293,6.121,30.121z"/>
<path fill="#222221" d="M31,29v-1C31,13.112,18.888,1,4,1H3v2h1c13.785,0,25,11.215,25,25v1H31z"/>
<rect x="3" y="6" fill="#222221" width="2" height="4"/>
<rect x="16.142" y="12.858" transform="matrix(0.7071 -0.7071 0.7071 0.7071 -4.4852 16.8875)" fill="#222221" width="4" height="2"/>
<rect x="22" y="27" fill="#222221" width="4" height="2"/>
</svg>
