<?xml version="1.0" encoding="utf-8"?>
<!-- Generator: Adobe Illustrator 19.2.1, SVG Export Plug-In . SVG Version: 6.00 Build 0)  -->
<!DOCTYPE svg PUBLIC "-//W3C//DTD SVG 1.1//EN" "http://www.w3.org/Graphics/SVG/1.1/DTD/svg11.dtd">
<svg version="1.1" id="Layer_1" xmlns="http://www.w3.org/2000/svg" xmlns:xlink="http://www.w3.org/1999/xlink" x="0px" y="0px"
	 width="32px" height="32px" viewBox="0 0 32 32" enable-background="new 0 0 32 32" xml:space="preserve">
<path d="M31,0H1C0.448,0,0,0.448,0,1v30c0,0.552,0.448,1,1,1h30c0.552,0,1-0.448,1-1V1C32,0.448,31.552,0,31,0z M22.707,21.293
	c0.391,0.391,0.391,1.023,0,1.414C22.512,22.902,22.256,23,22,23s-0.512-0.098-0.707-0.293L16,17.414l-5.293,5.293
	C10.512,22.902,10.256,23,10,23s-0.512-0.098-0.707-0.293c-0.391-0.391-0.391-1.023,0-1.414L14.586,16l-5.293-5.293
	c-0.391-0.391-0.391-1.023,0-1.414s1.023-0.391,1.414,0L16,14.586l5.293-5.293c0.391-0.391,1.023-0.391,1.414,0s0.391,1.023,0,1.414
	L17.414,16L22.707,21.293z"/>
</svg>
