<?xml version="1.0" encoding="utf-8"?>
<!-- Generator: Adobe Illustrator 19.2.1, SVG Export Plug-In . SVG Version: 6.00 Build 0)  -->
<!DOCTYPE svg PUBLIC "-//W3C//DTD SVG 1.1//EN" "http://www.w3.org/Graphics/SVG/1.1/DTD/svg11.dtd">
<svg version="1.1" id="Layer_1" xmlns="http://www.w3.org/2000/svg" xmlns:xlink="http://www.w3.org/1999/xlink" x="0px" y="0px"
	 width="32px" height="32px" viewBox="0 0 32 32" enable-background="new 0 0 32 32" xml:space="preserve">
<path d="M31,4H1C0.447,4,0,4.447,0,5v22c0,0.553,0.447,1,1,1h30c0.553,0,1-0.447,1-1V5C32,4.447,31.553,4,31,4z M28.555,8.832l-12,8
	C16.387,16.944,16.193,17,16,17s-0.387-0.056-0.555-0.168l-12-8c-0.46-0.307-0.584-0.927-0.277-1.387
	c0.306-0.46,0.925-0.583,1.387-0.277L16,14.798l11.445-7.63c0.461-0.306,1.081-0.183,1.387,0.277
	C29.139,7.905,29.015,8.525,28.555,8.832z"/>
</svg>
