<?xml version="1.0" encoding="utf-8"?>
<!-- Generator: Adobe Illustrator 19.2.1, SVG Export Plug-In . SVG Version: 6.00 Build 0)  -->
<!DOCTYPE svg PUBLIC "-//W3C//DTD SVG 1.1//EN" "http://www.w3.org/Graphics/SVG/1.1/DTD/svg11.dtd">
<svg version="1.1" id="Layer_1" xmlns="http://www.w3.org/2000/svg" xmlns:xlink="http://www.w3.org/1999/xlink" x="0px" y="0px"
	 width="32px" height="32px" viewBox="0 0 32 32" enable-background="new 0 0 32 32" xml:space="preserve">
<path d="M16,0C7.178,0,0,7.178,0,16s7.178,16,16,16s16-7.178,16-16S24.822,0,16,0z M7,16H5c0-1.866,0.47-3.623,1.294-5.164
	c0.463,0.686,0.901,1.333,1.314,1.939C7.221,13.778,7,14.862,7,16z M17.414,17.414c-0.781,0.781-2.047,0.781-2.828,0
	C13.805,16.633,8,8,8,8s8.633,5.805,9.414,6.586C18.195,15.367,18.195,16.633,17.414,17.414z M25,16c0-4.962-4.037-9-9-9
	c-1.138,0-2.222,0.221-3.225,0.608c-0.607-0.413-1.253-0.851-1.939-1.314C12.377,5.47,14.134,5,16,5c6.065,0,11,4.935,11,11H25z"/>
</svg>
