<?xml version="1.0" encoding="utf-8"?>
<!-- Generator: Adobe Illustrator 19.2.1, SVG Export Plug-In . SVG Version: 6.00 Build 0)  -->
<!DOCTYPE svg PUBLIC "-//W3C//DTD SVG 1.1//EN" "http://www.w3.org/Graphics/SVG/1.1/DTD/svg11.dtd">
<svg version="1.1" id="Layer_1" xmlns="http://www.w3.org/2000/svg" xmlns:xlink="http://www.w3.org/1999/xlink" x="0px" y="0px"
	 width="32px" height="32px" viewBox="0 0 32 32" enable-background="new 0 0 32 32" xml:space="preserve">
<path d="M31,0H1C0.448,0,0,0.448,0,1v30c0,0.552,0.448,1,1,1h30c0.552,0,1-0.448,1-1V1C32,0.448,31.552,0,31,0z M23.071,20.243
	c0.391,0.391,0.391,1.024,0,1.414l-1.414,1.414c-0.391,0.391-1.024,0.391-1.414,0L16,18.828l-4.243,4.243
	c-0.391,0.391-1.024,0.391-1.414,0l-1.414-1.414c-0.391-0.391-0.391-1.024,0-1.414L13.172,16l-4.243-4.243
	c-0.391-0.391-0.391-1.024,0-1.414l1.414-1.414c0.391-0.391,1.024-0.391,1.414,0L16,13.172l4.243-4.243
	c0.391-0.391,1.024-0.391,1.414,0l1.414,1.414c0.391,0.391,0.391,1.024,0,1.414L18.828,16L23.071,20.243z"/>
</svg>
