<?xml version="1.0" encoding="utf-8"?>
<!-- Generator: Adobe Illustrator 19.2.1, SVG Export Plug-In . SVG Version: 6.00 Build 0)  -->
<!DOCTYPE svg PUBLIC "-//W3C//DTD SVG 1.1//EN" "http://www.w3.org/Graphics/SVG/1.1/DTD/svg11.dtd">
<svg version="1.1" id="Layer_1" xmlns="http://www.w3.org/2000/svg" xmlns:xlink="http://www.w3.org/1999/xlink" x="0px" y="0px"
	 width="32px" height="32px" viewBox="0 0 32 32" enable-background="new 0 0 32 32" xml:space="preserve">
<circle fill="#222221" cx="16" cy="16" r="2"/>
<path fill="#222221" d="M16,0C7.178,0,0,7.178,0,16c0,5.177,2.534,10.061,6.778,13.062c0.449,0.319,1.074,0.212,1.394-0.239
	c0.319-0.45,0.212-1.074-0.239-1.394C4.218,24.802,2,20.529,2,16C2,8.28,8.28,2,16,2s14,6.28,14,14c0,4.529-2.218,8.802-5.933,11.43
	c-0.451,0.319-0.559,0.943-0.239,1.394c0.195,0.275,0.504,0.423,0.817,0.423c0.199,0,0.401-0.06,0.576-0.184
	C29.466,26.061,32,21.177,32,16C32,7.178,24.822,0,16,0z"/>
<path fill="#222221" d="M16,7c-4.963,0-9,4.037-9,9c0,2.911,1.425,5.658,3.812,7.348c0.452,0.319,1.075,0.212,1.395-0.238
	c0.319-0.451,0.212-1.075-0.238-1.395C10.109,20.4,9,18.264,9,16c0-3.859,3.141-7,7-7s7,3.141,7,7c0,2.264-1.109,4.4-2.968,5.715
	c-0.45,0.319-0.558,0.943-0.238,1.395c0.195,0.275,0.504,0.422,0.817,0.422c0.199,0,0.401-0.06,0.577-0.184
	C23.575,21.658,25,18.911,25,16C25,11.037,20.963,7,16,7z"/>
</svg>
