<?xml version="1.0" encoding="utf-8"?>
<!-- Generator: Adobe Illustrator 19.2.1, SVG Export Plug-In . SVG Version: 6.00 Build 0)  -->
<!DOCTYPE svg PUBLIC "-//W3C//DTD SVG 1.1//EN" "http://www.w3.org/Graphics/SVG/1.1/DTD/svg11.dtd">
<svg version="1.1" id="Layer_1" xmlns="http://www.w3.org/2000/svg" xmlns:xlink="http://www.w3.org/1999/xlink" x="0px" y="0px"
	 width="32px" height="32px" viewBox="0 0 32 32" enable-background="new 0 0 32 32" xml:space="preserve">
<path d="M16,22c-0.536,0-1.053-0.077-1.548-0.21l-3.197,3.197C12.745,25.602,14.336,26,16,26c8.021,0,14.541-9.036,14.814-9.42
	c0.247-0.346,0.247-0.81,0.002-1.157c-0.142-0.201-1.983-2.753-4.846-5.151l-4.18,4.18C21.923,14.947,22,15.464,22,16
	C22,19.309,19.309,22,16,22z"/>
<path d="M27.293,3.293l-4.65,4.65C20.648,6.807,18.398,6,16,6C7.898,6,1.452,15.04,1.182,15.425
	c-0.243,0.346-0.242,0.807,0.002,1.152c0.166,0.236,2.677,3.716,6.446,6.379l-4.337,4.337c-0.391,0.391-0.391,1.023,0,1.414
	C3.488,28.902,3.744,29,4,29s0.512-0.098,0.707-0.293l24-24c0.391-0.391,0.391-1.023,0-1.414S27.684,2.902,27.293,3.293z M10,16
	c0-3.309,2.691-6,6-6c1.294,0,2.49,0.416,3.471,1.115l-8.356,8.356C10.416,18.49,10,17.294,10,16z"/>
</svg>
