<?xml version="1.0" encoding="utf-8"?>
<!-- Generator: Adobe Illustrator 19.2.1, SVG Export Plug-In . SVG Version: 6.00 Build 0)  -->
<!DOCTYPE svg PUBLIC "-//W3C//DTD SVG 1.1//EN" "http://www.w3.org/Graphics/SVG/1.1/DTD/svg11.dtd">
<svg version="1.1" id="Layer_1" xmlns="http://www.w3.org/2000/svg" xmlns:xlink="http://www.w3.org/1999/xlink" x="0px" y="0px"
	 width="32px" height="32px" viewBox="0 0 32 32" enable-background="new 0 0 32 32" xml:space="preserve">
<path d="M25,9h-7v2h7c2.757,0,5,2.243,5,5s-2.243,5-5,5h-7v2h7c3.859,0,7-3.141,7-7S28.859,9,25,9z"/>
<path d="M7,23h7v-2H7c-2.757,0-5-2.243-5-5s2.243-5,5-5h7V9H7c-3.859,0-7,3.141-7,7S3.141,23,7,23z"/>
<rect x="9" y="15" width="14" height="2"/>
</svg>
