<?xml version="1.0" encoding="utf-8"?>
<!-- Generator: Adobe Illustrator 19.2.1, SVG Export Plug-In . SVG Version: 6.00 Build 0)  -->
<!DOCTYPE svg PUBLIC "-//W3C//DTD SVG 1.1//EN" "http://www.w3.org/Graphics/SVG/1.1/DTD/svg11.dtd">
<svg version="1.1" id="Layer_1" xmlns="http://www.w3.org/2000/svg" xmlns:xlink="http://www.w3.org/1999/xlink" x="0px" y="0px"
	 width="32px" height="32px" viewBox="0 0 32 32" enable-background="new 0 0 32 32" xml:space="preserve">
<path d="M13,26c7.168,0,13-5.832,13-13S20.168,0,13,0S0,5.832,0,13S5.832,26,13,26z M13,3c5.514,0,10,4.486,10,10s-4.486,10-10,10
	S3,18.514,3,13S7.486,3,13,3z"/>
<path d="M24.607,22.486c-0.635,0.776-1.346,1.486-2.121,2.121l6.453,6.453c0.586,0.586,1.535,0.586,2.121,0
	c0.586-0.585,0.586-1.536,0-2.121L24.607,22.486z"/>
<polygon points="12,18 14,18 14,14 18,14 18,12 14,12 14,8 12,8 12,12 8,12 8,14 12,14 "/>
</svg>
