<?xml version="1.0" encoding="utf-8"?>
<!-- Generator: Adobe Illustrator 19.2.1, SVG Export Plug-In . SVG Version: 6.00 Build 0)  -->
<!DOCTYPE svg PUBLIC "-//W3C//DTD SVG 1.1//EN" "http://www.w3.org/Graphics/SVG/1.1/DTD/svg11.dtd">
<svg version="1.1" id="Layer_1" xmlns="http://www.w3.org/2000/svg" xmlns:xlink="http://www.w3.org/1999/xlink" x="0px" y="0px"
	 width="32px" height="32px" viewBox="0 0 32 32" enable-background="new 0 0 32 32" xml:space="preserve">
<path d="M29.839,1.013C29.211,1.115,14.39,3.595,8.293,9.693c-4.633,4.633-4.464,9.735-3.672,12.935l8.507-5.199L1.293,29.293
	c-0.391,0.391-0.391,1.023,0,1.414C1.488,30.902,1.744,31,2,31s0.512-0.098,0.707-0.293l4.174-4.174
	c1.061,0.479,3.239,1.283,5.929,1.283c3.059,0,5.856-1.022,8.315-3.037c0.402-0.329,0.804-0.694,1.194-1.084
	c0.289-0.289,0.359-0.732,0.192-1.104l-2.324-5.163l3.857,2.239c0.237,0.137,0.521,0.169,0.784,0.095
	c0.263-0.078,0.483-0.26,0.608-0.504c0.304-0.592,0.598-1.212,0.88-1.853c2.871-6.494,4.59-14.853,4.662-15.205
	c0.065-0.322-0.031-0.655-0.259-0.893S30.163,0.958,29.839,1.013z"/>
</svg>
