<?xml version="1.0" encoding="utf-8"?>
<!-- Generator: Adobe Illustrator 19.2.1, SVG Export Plug-In . SVG Version: 6.00 Build 0)  -->
<!DOCTYPE svg PUBLIC "-//W3C//DTD SVG 1.1//EN" "http://www.w3.org/Graphics/SVG/1.1/DTD/svg11.dtd">
<svg version="1.1" id="Layer_1" xmlns="http://www.w3.org/2000/svg" xmlns:xlink="http://www.w3.org/1999/xlink" x="0px" y="0px"
	 width="32px" height="32px" viewBox="0 0 32 32" enable-background="new 0 0 32 32" xml:space="preserve">
<path d="M9,1v4c0,0.553,0.448,1,1,1h2v9.697L9.798,19h12.404L20,15.697V6h2c0.552,0,1-0.447,1-1V1c0-0.553-0.448-1-1-1H10
	C9.448,0,9,0.447,9,1z"/>
<path d="M6.737,32h18.526c1.108,0,2.122-0.607,2.645-1.584c0.523-0.978,0.466-2.157-0.148-3.08L23.535,21H8.465l-4.224,6.336
	c-0.615,0.923-0.672,2.103-0.148,3.08C4.615,31.393,5.628,32,6.737,32z"/>
</svg>
