<?xml version="1.0" encoding="utf-8"?>
<!-- Generator: Adobe Illustrator 19.2.1, SVG Export Plug-In . SVG Version: 6.00 Build 0)  -->
<!DOCTYPE svg PUBLIC "-//W3C//DTD SVG 1.1//EN" "http://www.w3.org/Graphics/SVG/1.1/DTD/svg11.dtd">
<svg version="1.1" id="Layer_1" xmlns="http://www.w3.org/2000/svg" xmlns:xlink="http://www.w3.org/1999/xlink" x="0px" y="0px"
	 width="32px" height="32px" viewBox="0 0 32 32" enable-background="new 0 0 32 32" xml:space="preserve">
<path d="M31,9H18c-0.553,0-1,0.447-1,1v3h2v-2h11v10H19v-2h-2v3c0,0.553,0.447,1,1,1h13c0.553,0,1-0.447,1-1V10
	C32,9.447,31.553,9,31,9z"/>
<path d="M1,23h13c0.553,0,1-0.447,1-1v-3h-2v2H2V11h11v2h2v-3c0-0.553-0.447-1-1-1H1c-0.553,0-1,0.447-1,1v12
	C0,22.553,0.447,23,1,23z"/>
<rect x="9" y="15" width="14" height="2"/>
</svg>
