<?xml version="1.0" encoding="utf-8"?>
<!-- Generator: Adobe Illustrator 19.2.1, SVG Export Plug-In . SVG Version: 6.00 Build 0)  -->
<!DOCTYPE svg PUBLIC "-//W3C//DTD SVG 1.1//EN" "http://www.w3.org/Graphics/SVG/1.1/DTD/svg11.dtd">
<svg version="1.1" id="Layer_1" xmlns="http://www.w3.org/2000/svg" xmlns:xlink="http://www.w3.org/1999/xlink" x="0px" y="0px"
	 width="32px" height="32px" viewBox="0 0 32 32" enable-background="new 0 0 32 32" xml:space="preserve">
<path d="M13,7c-0.553,0-1,0.447-1,1v13c0,2.206,1.794,4,4,4s4-1.794,4-4V7.5C20,3.916,17.084,1,13.5,1S7,3.916,7,7.5V22
	c0,4.963,4.037,9,9,9s9-4.037,9-9V8c0-0.553-0.447-1-1-1s-1,0.447-1,1v14c0,3.859-3.141,7-7,7s-7-3.141-7-7V7.5
	C9,5.019,11.019,3,13.5,3S18,5.019,18,7.5V21c0,1.103-0.897,2-2,2s-2-0.897-2-2V8C14,7.447,13.553,7,13,7z"/>
</svg>
