<?xml version="1.0" encoding="utf-8"?>
<!-- Generator: Adobe Illustrator 19.2.1, SVG Export Plug-In . SVG Version: 6.00 Build 0)  -->
<!DOCTYPE svg PUBLIC "-//W3C//DTD SVG 1.1//EN" "http://www.w3.org/Graphics/SVG/1.1/DTD/svg11.dtd">
<svg version="1.1" id="Layer_1" xmlns="http://www.w3.org/2000/svg" xmlns:xlink="http://www.w3.org/1999/xlink" x="0px" y="0px"
	 width="32px" height="32px" viewBox="0 0 32 32" enable-background="new 0 0 32 32" xml:space="preserve">
<path d="M16,17c0-4.411,3.589-8,8-8V2c0-0.552-0.448-1-1-1H3C2.448,1,2,1.448,2,2v28c0,0.36,0.194,0.693,0.507,0.87
	c0.313,0.178,0.698,0.173,1.007-0.013L13,25.166l9.485,5.691c0.308,0.186,0.695,0.191,1.007,0.013C23.806,30.693,24,30.36,24,30v-5
	C19.589,25,16,21.411,16,17z"/>
<path d="M30,17c0-3.314-2.686-6-6-6s-6,2.686-6,6s2.686,6,6,6S30,20.314,30,17z M21,16h6v2h-6V16z"/>
</svg>
