<?xml version="1.0" encoding="utf-8"?>
<!-- Generator: Adobe Illustrator 19.2.1, SVG Export Plug-In . SVG Version: 6.00 Build 0)  -->
<!DOCTYPE svg PUBLIC "-//W3C//DTD SVG 1.1//EN" "http://www.w3.org/Graphics/SVG/1.1/DTD/svg11.dtd">
<svg version="1.1" id="Layer_1" xmlns="http://www.w3.org/2000/svg" xmlns:xlink="http://www.w3.org/1999/xlink" x="0px" y="0px"
	 width="32px" height="32px" viewBox="0 0 32 32" enable-background="new 0 0 32 32" xml:space="preserve">
<path fill="#222221" d="M26,18H14c-0.552,0-1,0.448-1,1s0.448,1,1,1h12v4l6-5l-6-5V18z"/>
<path fill="#222221" d="M1,31h25c0.552,0,1-0.448,1-1v-4h-2v3H2V9h23v3h2V4c0-0.552-0.448-1-1-1h-5V0h-2v3H8V0H6v3H1
	C0.448,3,0,3.448,0,4v26C0,30.552,0.448,31,1,31z"/>
</svg>
