<?xml version="1.0" encoding="utf-8"?>
<!-- Generator: Adobe Illustrator 19.2.1, SVG Export Plug-In . SVG Version: 6.00 Build 0)  -->
<!DOCTYPE svg PUBLIC "-//W3C//DTD SVG 1.1//EN" "http://www.w3.org/Graphics/SVG/1.1/DTD/svg11.dtd">
<svg version="1.1" id="Layer_1" xmlns="http://www.w3.org/2000/svg" xmlns:xlink="http://www.w3.org/1999/xlink" x="0px" y="0px"
	 width="32px" height="32px" viewBox="0 0 32 32" enable-background="new 0 0 32 32" xml:space="preserve">
<path fill="#222221" d="M9,17h21c0.552,0,1-0.448,1-1s-0.448-1-1-1H9V9l-8,7l8,7V17z"/>
<path fill="#222221" d="M30,26H15c-0.552,0-1,0.448-1,1s0.448,1,1,1h15c0.552,0,1-0.448,1-1S30.552,26,30,26z"/>
<path fill="#222221" d="M15,6h15c0.552,0,1-0.448,1-1s-0.448-1-1-1H15c-0.552,0-1,0.448-1,1S14.448,6,15,6z"/>
</svg>
