<?xml version="1.0" encoding="utf-8"?>
<!-- Generator: Adobe Illustrator 19.2.1, SVG Export Plug-In . SVG Version: 6.00 Build 0)  -->
<!DOCTYPE svg PUBLIC "-//W3C//DTD SVG 1.1//EN" "http://www.w3.org/Graphics/SVG/1.1/DTD/svg11.dtd">
<svg version="1.1" id="Layer_1" xmlns="http://www.w3.org/2000/svg" xmlns:xlink="http://www.w3.org/1999/xlink" x="0px" y="0px"
	 width="32px" height="32px" viewBox="0 0 32 32" enable-background="new 0 0 32 32" xml:space="preserve">
<path d="M27.311,4.69c-0.004-0.004-0.011-0.006-0.015-0.01C24.399,1.79,20.405,0,16,0C7.178,0,0,7.178,0,16
	c0,4.405,1.79,8.399,4.679,11.295c0.004,0.005,0.006,0.011,0.01,0.015c0.004,0.004,0.011,0.006,0.015,0.01
	C7.601,30.21,11.595,32,16,32c8.822,0,16-7.178,16-16c0-4.405-1.79-8.399-4.679-11.295C27.316,4.701,27.315,4.694,27.311,4.69z
	 M2,16C2,8.28,8.28,2,16,2c3.501,0,6.697,1.3,9.154,3.432L5.432,25.154C3.3,22.697,2,19.5,2,16z M16,30
	c-3.501,0-6.697-1.3-9.154-3.432L26.568,6.846C28.7,9.303,30,12.5,30,16C30,23.72,23.72,30,16,30z"/>
</svg>
