<?xml version="1.0" encoding="utf-8"?>
<!-- Generator: Adobe Illustrator 19.2.1, SVG Export Plug-In . SVG Version: 6.00 Build 0)  -->
<!DOCTYPE svg PUBLIC "-//W3C//DTD SVG 1.1//EN" "http://www.w3.org/Graphics/SVG/1.1/DTD/svg11.dtd">
<svg version="1.1" id="Layer_1" xmlns="http://www.w3.org/2000/svg" xmlns:xlink="http://www.w3.org/1999/xlink" x="0px" y="0px"
	 width="32px" height="32px" viewBox="0 0 32 32" enable-background="new 0 0 32 32" xml:space="preserve">
<path d="M16,32c5.898,0,12-4.489,12-12c0-7.267-10.83-18.242-11.291-18.705c-0.375-0.378-1.043-0.378-1.418,0
	C14.83,1.758,4,12.733,4,20C4,27.511,10.102,32,16,32z M12,19c0.552,0,1,0.448,1,1c0,2.805,2.508,2.991,3.01,3
	c0.549,0.01,0.991,0.46,0.986,1.009S16.549,25,16,25c-1.391,0-5-0.898-5-5C11,19.448,11.448,19,12,19z"/>
</svg>
