<?xml version="1.0" encoding="utf-8"?>
<!-- Generator: Adobe Illustrator 19.2.1, SVG Export Plug-In . SVG Version: 6.00 Build 0)  -->
<!DOCTYPE svg PUBLIC "-//W3C//DTD SVG 1.1//EN" "http://www.w3.org/Graphics/SVG/1.1/DTD/svg11.dtd">
<svg version="1.1" id="Layer_1" xmlns="http://www.w3.org/2000/svg" xmlns:xlink="http://www.w3.org/1999/xlink" x="0px" y="0px"
	 width="32px" height="32px" viewBox="0 0 32 32" enable-background="new 0 0 32 32" xml:space="preserve">
<path d="M31,0H1C0.448,0,0,0.448,0,1v30c0,0.552,0.448,1,1,1h30c0.552,0,1-0.448,1-1V1C32,0.448,31.552,0,31,0z M23,4h2v14h-2V4z
	 M15,4h2v5h-2V4z M7,4h2v14H7V4z M12,24c0,0.552-0.448,1-1,1H9v3H7v-3H5c-0.552,0-1-0.448-1-1v-3c0-0.552,0.448-1,1-1h6
	c0.552,0,1,0.448,1,1V24z M19,16h-2v12h-2V16h-2c-0.552,0-1-0.448-1-1v-3c0-0.552,0.448-1,1-1h6c0.552,0,1,0.448,1,1v3
	C20,15.552,19.552,16,19,16z M28,24c0,0.552-0.448,1-1,1h-2v3h-2v-3h-2c-0.552,0-1-0.448-1-1v-3c0-0.552,0.448-1,1-1h6
	c0.552,0,1,0.448,1,1V24z"/>
</svg>
