<?xml version="1.0" encoding="utf-8"?>
<!-- Generator: Adobe Illustrator 19.2.1, SVG Export Plug-In . SVG Version: 6.00 Build 0)  -->
<!DOCTYPE svg PUBLIC "-//W3C//DTD SVG 1.1//EN" "http://www.w3.org/Graphics/SVG/1.1/DTD/svg11.dtd">
<svg version="1.1" id="Layer_1" xmlns="http://www.w3.org/2000/svg" xmlns:xlink="http://www.w3.org/1999/xlink" x="0px" y="0px"
	 width="32px" height="32px" viewBox="0 0 32 32" enable-background="new 0 0 32 32" xml:space="preserve">
<path d="M31,4H1C0.447,4,0,4.447,0,5v22c0,0.553,0.447,1,1,1h30c0.553,0,1-0.447,1-1V5C32,4.447,31.553,4,31,4z M9.781,17.625l-4,5
	C5.583,22.871,5.293,23,4.999,23c-0.219,0-0.439-0.071-0.624-0.219c-0.431-0.346-0.501-0.975-0.156-1.406l4-5
	c0.346-0.429,0.975-0.502,1.406-0.156C10.056,16.564,10.126,17.193,9.781,17.625z M27.625,22.781C27.44,22.929,27.22,23,27.001,23
	c-0.294,0-0.584-0.128-0.782-0.375l-4-5c-0.345-0.432-0.274-1.061,0.156-1.406c0.433-0.346,1.061-0.274,1.406,0.156l4,5
	C28.126,21.807,28.056,22.436,27.625,22.781z M27.633,9.774l-11,9C16.449,18.925,16.225,19,16,19s-0.449-0.075-0.633-0.226l-11-9
	c-0.428-0.351-0.491-0.98-0.142-1.407c0.351-0.428,0.979-0.49,1.407-0.142L16,16.708l10.367-8.482
	c0.427-0.349,1.057-0.287,1.407,0.142C28.124,8.794,28.061,9.424,27.633,9.774z"/>
</svg>
