<?xml version="1.0" encoding="utf-8"?>
<!-- Generator: Adobe Illustrator 19.2.1, SVG Export Plug-In . SVG Version: 6.00 Build 0)  -->
<!DOCTYPE svg PUBLIC "-//W3C//DTD SVG 1.1//EN" "http://www.w3.org/Graphics/SVG/1.1/DTD/svg11.dtd">
<svg version="1.1" id="Layer_1" xmlns="http://www.w3.org/2000/svg" xmlns:xlink="http://www.w3.org/1999/xlink" x="0px" y="0px"
	 width="32px" height="32px" viewBox="0 0 32 32" enable-background="new 0 0 32 32" xml:space="preserve">
<path d="M15,31c7.72,0,14-6.28,14-14c0-2.019-0.438-3.935-1.211-5.67l-1.512,1.607C26.736,14.208,27,15.572,27,17
	c0,6.617-5.383,12-12,12S3,23.617,3,17S8.383,5,15,5c2.639,0,5.074,0.867,7.058,2.316l1.554-1.332C21.233,4.122,18.248,3,15,3
	C7.28,3,1,9.28,1,17S7.28,31,15,31z"/>
<polygon points="9,11 7,13 15,22 31,5 29,4 15,16 "/>
</svg>
