<?xml version="1.0" encoding="utf-8"?>
<!-- Generator: Adobe Illustrator 19.2.1, SVG Export Plug-In . SVG Version: 6.00 Build 0)  -->
<!DOCTYPE svg PUBLIC "-//W3C//DTD SVG 1.1//EN" "http://www.w3.org/Graphics/SVG/1.1/DTD/svg11.dtd">
<svg version="1.1" id="Layer_1" xmlns="http://www.w3.org/2000/svg" xmlns:xlink="http://www.w3.org/1999/xlink" x="0px" y="0px"
	 width="32px" height="32px" viewBox="0 0 32 32" enable-background="new 0 0 32 32" xml:space="preserve">
<path fill="#222221" d="M1,8h18c0.552,0,1-0.448,1-1V3c0-0.552-0.448-1-1-1H1C0.448,2,0,2.448,0,3v4C0,7.552,0.448,8,1,8z"/>
<path fill="#222221" d="M1,19h18c0.552,0,1-0.448,1-1v-4c0-0.552-0.448-1-1-1H1c-0.552,0-1,0.448-1,1v4C0,18.552,0.448,19,1,19z"/>
<path fill="#222221" d="M1,30h18c0.552,0,1-0.448,1-1v-4c0-0.552-0.448-1-1-1H1c-0.552,0-1,0.448-1,1v4C0,29.552,0.448,30,1,30z"/>
<polygon fill="#222221" points="23,23 31,16 23,9 "/>
</svg>
