<?xml version="1.0" encoding="utf-8"?>
<!-- Generator: Adobe Illustrator 19.2.1, SVG Export Plug-In . SVG Version: 6.00 Build 0)  -->
<!DOCTYPE svg PUBLIC "-//W3C//DTD SVG 1.1//EN" "http://www.w3.org/Graphics/SVG/1.1/DTD/svg11.dtd">
<svg version="1.1" id="Layer_1" xmlns="http://www.w3.org/2000/svg" xmlns:xlink="http://www.w3.org/1999/xlink" x="0px" y="0px"
	 width="32px" height="32px" viewBox="0 0 32 32" enable-background="new 0 0 32 32" xml:space="preserve">
<path fill="#222221" d="M19,0h-1v2h1c6.065,0,11,4.935,11,11v1h2v-1C32,5.832,26.168,0,19,0z"/>
<path fill="#222221" d="M26,14v-1c0-3.86-3.14-7-7-7h-1v2h1c2.757,0,5,2.243,5,5v1H26z"/>
<path fill="#222221" d="M25.175,32l4.528-4.528c0.396-0.396,0.396-1.038,0-1.434l-5.909-5.909c-0.396-0.396-1.038-0.396-1.434,0
	l-4.528,4.528l-10.49-10.49l4.528-4.528c0.396-0.396,0.396-1.038,0-1.434L5.962,2.297c-0.396-0.396-1.038-0.396-1.434,0L0,6.825
	C0,20.729,11.271,32,25.175,32z"/>
</svg>
