<?xml version="1.0" encoding="utf-8"?>
<!-- Generator: Adobe Illustrator 19.2.1, SVG Export Plug-In . SVG Version: 6.00 Build 0)  -->
<!DOCTYPE svg PUBLIC "-//W3C//DTD SVG 1.1//EN" "http://www.w3.org/Graphics/SVG/1.1/DTD/svg11.dtd">
<svg version="1.1" id="Layer_1" xmlns="http://www.w3.org/2000/svg" xmlns:xlink="http://www.w3.org/1999/xlink" x="0px" y="0px"
	 width="32px" height="32px" viewBox="0 0 32 32" enable-background="new 0 0 32 32" xml:space="preserve">
<path d="M6.831,21.755l-3.538,3.538c-0.391,0.391-0.391,1.023,0,1.414C3.488,26.902,3.744,27,4,27s0.512-0.098,0.707-0.293l22-22
	c0.391-0.391,0.391-1.023,0-1.414s-1.023-0.391-1.414,0l-4.615,4.615c-1.231-0.452-2.53-0.771-3.885-0.86
	C16.532,7.019,16.269,7,16,7c-0.268,0-0.531,0.018-0.791,0.048C7.518,7.546,1.477,15.049,1.216,15.38
	c-0.288,0.364-0.287,0.879,0.002,1.243C1.372,16.816,3.532,19.482,6.831,21.755z M16,9c1.017,0,1.962,0.309,2.753,0.833l-6.92,6.92
	C11.309,15.962,11,15.017,11,14C11,11.243,13.243,9,16,9z"/>
<path d="M20.93,13.312C20.962,13.539,21,13.764,21,14c0,2.757-2.243,5-5,5c-0.236,0-0.461-0.038-0.688-0.07l-4.854,4.854
	C12.169,24.515,14.037,25,16,25c7.985,0,14.507-8.033,14.78-8.375c0.292-0.365,0.293-0.882,0.002-1.248
	c-0.165-0.208-2.623-3.241-6.324-5.594L20.93,13.312z"/>
</svg>
