<?xml version="1.0" encoding="utf-8"?>
<!-- Generator: Adobe Illustrator 19.2.1, SVG Export Plug-In . SVG Version: 6.00 Build 0)  -->
<!DOCTYPE svg PUBLIC "-//W3C//DTD SVG 1.1//EN" "http://www.w3.org/Graphics/SVG/1.1/DTD/svg11.dtd">
<svg version="1.1" id="Layer_1" xmlns="http://www.w3.org/2000/svg" xmlns:xlink="http://www.w3.org/1999/xlink" x="0px" y="0px"
	 width="32px" height="32px" viewBox="0 0 32 32" enable-background="new 0 0 32 32" xml:space="preserve">
<path d="M31,0H1C0.448,0,0,0.448,0,1v30c0,0.552,0.448,1,1,1h30c0.552,0,1-0.448,1-1V1C32,0.448,31.552,0,31,0z M16,27
	c-1.105,0-2-0.895-2-2c0-1.105,0.895-2,2-2c1.105,0,2,0.895,2,2C18,26.105,17.104,27,16,27z M17,16.917V19c0,0.552-0.448,1-1,1
	s-1-0.448-1-1v-3c0-0.552,0.448-1,1-1c2.206,0,4-1.794,4-4s-1.794-4-4-4c-1.591,0-3.03,0.942-3.668,2.4
	c-0.221,0.506-0.81,0.738-1.316,0.516c-0.506-0.221-0.737-0.811-0.516-1.316C11.456,6.413,13.615,5,16,5c3.309,0,6,2.691,6,6
	C22,13.968,19.834,16.439,17,16.917z"/>
</svg>
