<?xml version="1.0" encoding="utf-8"?>
<!-- Generator: Adobe Illustrator 19.2.1, SVG Export Plug-In . SVG Version: 6.00 Build 0)  -->
<!DOCTYPE svg PUBLIC "-//W3C//DTD SVG 1.1//EN" "http://www.w3.org/Graphics/SVG/1.1/DTD/svg11.dtd">
<svg version="1.1" id="Layer_1" xmlns="http://www.w3.org/2000/svg" xmlns:xlink="http://www.w3.org/1999/xlink" x="0px" y="0px"
	 width="48px" height="48px" viewBox="0 0 48 48" enable-background="new 0 0 48 48" xml:space="preserve">
<path fill="#335262" d="M40,7H26c-0.404,0-0.769,0.244-0.924,0.617c-0.155,0.374-0.069,0.804,0.217,1.09l5.586,5.586l-9,9
	c-0.391,0.391-0.391,1.024,0,1.414l1.414,1.414c0.391,0.391,1.024,0.391,1.414,0l9-9l5.586,5.586C39.484,22.898,39.74,23,40,23
	c0.129,0,0.259-0.025,0.383-0.076C40.756,22.769,41,22.404,41,22V8C41,7.448,40.552,7,40,7z"/>
<path fill="#E6E6E6" d="M46,47H2c-0.552,0-1-0.448-1-1V2c0-0.552,0.448-1,1-1h44c0.552,0,1,0.448,1,1v44C47,46.552,46.552,47,46,47z
	 M3,45h42V3H3V45z"/>
<path fill="#76B5B5" d="M18,47H2c-0.552,0-1-0.448-1-1V30c0-0.552,0.448-1,1-1h16c0.552,0,1,0.448,1,1v16C19,46.552,18.552,47,18,47
	z"/>
</svg>
