<?xml version="1.0" encoding="utf-8"?>
<!-- Generator: Adobe Illustrator 19.2.1, SVG Export Plug-In . SVG Version: 6.00 Build 0)  -->
<!DOCTYPE svg PUBLIC "-//W3C//DTD SVG 1.1//EN" "http://www.w3.org/Graphics/SVG/1.1/DTD/svg11.dtd">
<svg version="1.1" id="Layer_1" xmlns="http://www.w3.org/2000/svg" xmlns:xlink="http://www.w3.org/1999/xlink" x="0px" y="0px"
	 width="48px" height="48px" viewBox="0 0 48 48" enable-background="new 0 0 48 48" xml:space="preserve">
<path fill="#EFD358" d="M21,1H5C4.448,1,4,1.448,4,2v44c0,0.552,0.448,1,1,1h16c0.552,0,1-0.448,1-1V2C22,1.448,21.552,1,21,1z"/>
<rect x="4" y="7" fill="#CEB341" width="8" height="2"/>
<rect x="4" y="15" fill="#CEB341" width="5" height="2"/>
<rect x="4" y="23" fill="#CEB341" width="8" height="2"/>
<rect x="4" y="39" fill="#CEB341" width="8" height="2"/>
<rect x="4" y="31" fill="#CEB341" width="5" height="2"/>
<path fill="#335262" d="M44,9V2c0-0.552-0.447-1-1-1H31c-0.553,0-1,0.448-1,1v7H44z"/>
<rect x="30" y="8" fill="#E6E6E6" width="14" height="2"/>
<rect x="30" y="10" fill="#E86C60" width="7" height="27"/>
<rect x="37" y="10" fill="#DD5E58" width="7" height="27"/>
<polygon fill="#EAD8C5" points="30,37 37,47 44,37 "/>
<polygon fill="#223E49" points="39.8,43 34.2,43 37,47 "/>
</svg>
