<svg xmlns="http://www.w3.org/2000/svg" xmlns:xlink="http://www.w3.org/1999/xlink" x="0px" y="0px" width="48px" height="48px" viewBox="0 0 48 48"><g >
<path fill="#5A7A84" d="M33.476,14C31.697,7.103,25.453,2,18,2C9.163,2,2,9.163,2,18c0,7.453,5.103,13.697,12,15.476V46h32V14
	H33.476z"/>
<path fill="#223E49" d="M46,47H14c-0.552,0-1-0.447-1-1V34.232C5.896,32.052,1,25.485,1,18C1,8.626,8.626,1,18,1
	c7.485,0,14.052,4.896,16.232,12H46c0.552,0,1,0.447,1,1v32C47,46.553,46.552,47,46,47z M15,45h30V15H33.476
	c-0.456,0-0.854-0.309-0.968-0.75C30.799,7.626,24.833,3,18,3C9.729,3,3,9.729,3,18c0,6.834,4.626,12.8,11.25,14.507
	C14.691,32.621,15,33.02,15,33.476V45z"/>
<path fill="#5A7A84" d="M14,33.476C15.281,33.806,16.616,34,18,34c8.837,0,16-7.163,16-16c0-1.384-0.194-2.719-0.524-4H14V33.476z"/>
<path fill="#223E49" d="M18,35c-1.388,0-2.818-0.188-4.25-0.556C13.309,34.33,13,33.932,13,33.476V14c0-0.553,0.448-1,1-1h19.476
	c0.456,0,0.854,0.309,0.968,0.75C34.813,15.182,35,16.611,35,18C35,27.374,27.374,35,18,35z M15,32.682
	C16.015,32.894,17.021,33,18,33c8.271,0,15-6.729,15-15c0-0.979-0.107-1.985-0.318-3H15V32.682z"/>
</g></svg>