<svg xmlns="http://www.w3.org/2000/svg" xmlns:xlink="http://www.w3.org/1999/xlink" x="0px" y="0px" width="48px" height="48px" viewBox="0 0 48 48"><g >
<path fill="#B3B3B3" d="M25,26h-2v-5H2c-0.553,0-1-0.448-1-1V8c0-0.552,0.447-1,1-1h6v2H3v10h21c0.553,0,1,0.448,1,1V26z"/>
<rect x="20" y="26" fill="#444444" width="8" height="20"/>
<path fill="#444444" d="M28,47h-8c-0.553,0-1-0.448-1-1V26c0-0.552,0.447-1,1-1h8c0.553,0,1,0.448,1,1v20C29,46.552,28.553,47,28,47
	z M21,45h6V27h-6V45z"/>
<path fill="#43A6DD" d="M38,32c0-2.209,4-8,4-8s4,5.791,4,8s-1.791,4-4,4S38,34.209,38,32z"/>
<path fill="#43A6DD" d="M42,37c-2.757,0-5-2.243-5-5c0-2.399,3.479-7.559,4.177-8.568L42,22.24l0.823,1.191
	C43.521,24.441,47,29.601,47,32C47,34.757,44.757,37,42,37z M42,25.808c-1.439,2.249-3,5.1-3,6.192c0,1.654,1.346,3,3,3s3-1.346,3-3
	C45,30.907,43.439,28.057,42,25.808z"/>
<path fill="#EFD358" d="M40,15H8c-1.105,0-2-0.895-2-2V4h36v9C42,14.105,41.105,15,40,15z"/>
<path fill="#43A6DD" d="M42,3v2H6V3c0-1.105,0.895-2,2-2h32C41.105,1,42,1.895,42,3z"/>
</g></svg>