<svg xmlns="http://www.w3.org/2000/svg" xmlns:xlink="http://www.w3.org/1999/xlink" x="0px" y="0px" width="48px" height="48px" viewBox="0 0 48 48"><g >
<path fill="#72C472" d="M45,47H3c-1.105,0-2-0.895-2-2V3c0-1.105,0.895-2,2-2h42c1.105,0,2,0.895,2,2v42C47,46.105,46.105,47,45,47z
	"/>
<circle fill="#FFFFFF" cx="14" cy="14" r="7"/>
<path fill="#FFFFFF" d="M40,7H28c-0.552,0-1,0.448-1,1v12c0,0.552,0.448,1,1,1h12c0.552,0,1-0.448,1-1V8C41,7.448,40.552,7,40,7z"/>
<path fill="#FFFFFF" d="M34.857,29.485c-0.361-0.603-1.354-0.603-1.715,0l-6,10c-0.186,0.309-0.19,0.694-0.013,1.007
	C27.307,40.806,27.64,41,28,41h12c0.36,0,0.693-0.194,0.87-0.507c0.178-0.313,0.173-0.698-0.013-1.007L34.857,29.485z"/>
<path fill="#FFFFFF" d="M14.588,28.337c-0.351-0.255-0.825-0.255-1.176,0l-5.707,4.146c-0.351,0.255-0.497,0.706-0.363,1.118
	l2.18,6.708C9.656,40.721,10.04,41,10.473,41h7.054c0.433,0,0.817-0.279,0.951-0.691l2.18-6.708
	c0.134-0.412-0.013-0.863-0.363-1.118L14.588,28.337z"/>
</g></svg>