<svg xmlns="http://www.w3.org/2000/svg" xmlns:xlink="http://www.w3.org/1999/xlink" x="0px" y="0px" width="48px" height="48px" viewBox="0 0 48 48"><g >
<path fill="#EFD358" d="M39,46V7c0-2.761-2.239-5-5-5H6c1.634,0,1.088,1.788,2,3c0.629,0.836,3,0.873,3,2v34c0,2.761,2.239,5,5,5H39
	z"/>
<path fill="#A67C52" d="M11,8H1V7c0-2.761,2.239-5,5-5h0c2.761,0,5,2.239,5,5V8z"/>
<path fill="#A67C52" d="M21,40v1c0,4.5-5,5-5,5s23.657,0,24,0c2.761,0,5-2.239,5-5v-1H21z"/>
<path fill="#5A7A84" d="M45.172,6.828c-1.105-1.105-2.895-1.105-4,0L28.536,19.464c0.988,0.181,1.899,0.65,2.625,1.376
	c0.726,0.726,1.194,1.636,1.375,2.624l12.636-12.636C46.276,9.724,46.276,7.933,45.172,6.828z"/>
<path fill="#E6E6E6" d="M28.536,19.464L23,25l4,4l5.536-5.536c-0.181-0.988-0.65-1.899-1.375-2.624
	C30.435,20.115,29.524,19.646,28.536,19.464z"/>
<path fill="#444444" d="M27.785,24.215c-0.944-0.944-2.2-1.465-3.536-1.465c-1.336,0-2.591,0.521-3.536,1.465
	c-1.776,1.776-1.733,6.813-1.707,7.805l0.025,0.948l0.947,0.025C20.109,32.996,20.304,33,20.552,33c1.667,0,5.687-0.168,7.233-1.715
	c0.944-0.944,1.464-2.199,1.464-3.535S28.73,25.159,27.785,24.215z"/>
</g></svg>