<svg xmlns="http://www.w3.org/2000/svg" xmlns:xlink="http://www.w3.org/1999/xlink" x="0px" y="0px" width="48px" height="48px" viewBox="0 0 48 48"><g >
<path fill="#43A6DD" d="M38,11c-0.256,0-0.512-0.098-0.707-0.293c-0.391-0.391-0.391-1.023,0-1.414l3-3
	c0.391-0.391,1.023-0.391,1.414,0s0.391,1.023,0,1.414l-3,3C38.512,10.902,38.256,11,38,11z"/>
<path fill="#43A6DD" d="M45.971,20h-4.243c-0.552,0-1-0.448-1-1s0.448-1,1-1h4.243c0.552,0,1,0.448,1,1S46.523,20,45.971,20z"/>
<path fill="#43A6DD" d="M41,32c-0.256,0-0.512-0.098-0.707-0.293l-3-3c-0.391-0.391-0.391-1.023,0-1.414s1.023-0.391,1.414,0l3,3
	c0.391,0.391,0.391,1.023,0,1.414C41.512,31.902,41.256,32,41,32z"/>
<path fill="#43A6DD" d="M29,7.272c-0.552,0-1-0.448-1-1V2.029c0-0.552,0.448-1,1-1s1,0.448,1,1v4.243
	C30,6.824,29.552,7.272,29,7.272z"/>
<path fill="#43A6DD" d="M20,11c-0.256,0-0.512-0.098-0.707-0.293l-3-3c-0.391-0.391-0.391-1.023,0-1.414s1.023-0.391,1.414,0l3,3
	c0.391,0.391,0.391,1.023,0,1.414C20.512,10.902,20.256,11,20,11z"/>
<path fill="#444444" d="M2.293,38.293c-0.391,0.391-0.391,1.023,0,1.414l6,6C8.488,45.902,8.744,46,9,46s0.512-0.098,0.707-0.293
	l19-19l-7.414-7.414L2.293,38.293z"/>
<path fill="#E6E6E6" d="M35.707,18.293l-6-6c-0.391-0.391-1.023-0.391-1.414,0l-7,7l7.414,7.414l7-7
	C36.098,19.316,36.098,18.684,35.707,18.293z"/>
</g></svg>