<svg xmlns="http://www.w3.org/2000/svg" xmlns:xlink="http://www.w3.org/1999/xlink" x="0px" y="0px" width="48px" height="48px" viewBox="0 0 48 48"><g >
<path fill="#43A6DD" d="M44.667,11.355C44.879,11.165,45,10.895,45,10.61V2c0-0.552-0.448-1-1-1H4C3.448,1,3,1.448,3,2v8.61
	c0,0.284,0.121,0.555,0.333,0.745C6.934,14.585,9,19.194,9,24c0,4.805-2.066,9.414-5.668,12.645C3.121,36.835,3,37.105,3,37.39V46
	c0,0.552,0.448,1,1,1h12c0.552,0,1-0.448,1-1h14c0,0.552,0.448,1,1,1h12c0.552,0,1-0.448,1-1v-8.61c0-0.284-0.121-0.555-0.333-0.745
	C41.066,33.415,39,28.806,39,24C39,19.194,41.066,14.585,44.667,11.355z"/>
<path fill="#E6E6E6" d="M24,11c-4.971,0-9,4.029-9,9v27h13V11.947C26.794,11.346,25.439,11,24,11z"/>
<path fill="#CECECE" d="M33,20c0-3.532-2.039-6.58-5-8.053V47h5V20z"/>
<circle fill="#A0A0A0" cx="21" cy="30" r="3"/>
</g></svg>