<?xml version="1.0" encoding="utf-8"?>
<!-- Generator: Adobe Illustrator 19.2.1, SVG Export Plug-In . SVG Version: 6.00 Build 0)  -->
<!DOCTYPE svg PUBLIC "-//W3C//DTD SVG 1.1//EN" "http://www.w3.org/Graphics/SVG/1.1/DTD/svg11.dtd">
<svg version="1.1" id="Layer_1" xmlns="http://www.w3.org/2000/svg" xmlns:xlink="http://www.w3.org/1999/xlink" x="0px" y="0px"
	 width="48px" height="48px" viewBox="0 0 48 48" enable-background="new 0 0 48 48" xml:space="preserve">
<path fill="#72C472" d="M41,19H7c-1.105,0-2-0.895-2-2V3c0-1.105,0.895-2,2-2h34c1.105,0,2,0.895,2,2v14C43,18.105,42.105,19,41,19z
	"/>
<path fill="#72C472" d="M41,47H7c-1.105,0-2-0.895-2-2V31c0-1.105,0.895-2,2-2h34c1.105,0,2,0.895,2,2v14C43,46.105,42.105,47,41,47
	z"/>
<path fill="#B3B3B3" d="M46,25H2c-0.553,0-1-0.448-1-1s0.447-1,1-1h44c0.553,0,1,0.448,1,1S46.553,25,46,25z"/>
</svg>
