<svg xmlns="http://www.w3.org/2000/svg" xmlns:xlink="http://www.w3.org/1999/xlink" x="0px" y="0px" width="48px" height="48px" viewBox="0 0 48 48"><g >
<path fill="#707070" d="M42,1H9v11c1.105,0,2,0.895,2,2s-0.895,2-2,2v6c1.105,0,2,0.895,2,2s-0.895,2-2,2v3h35V3
	C44,1.895,43.105,1,42,1z"/>
<path fill="#444444" d="M7,34c0-1.105,0.895-2,2-2v-6c-1.105,0-2-0.895-2-2s0.895-2,2-2v-6c-1.105,0-2-0.895-2-2s0.895-2,2-2V1H6
	C4.895,1,4,1.895,4,3v42c0,1.105,0.895,2,2,2h3V36C7.895,36,7,35.105,7,34z"/>
<path fill="#969696" d="M9,29v3c1.105,0,2,0.895,2,2s-0.895,2-2,2v11h33c1.105,0,2-0.895,2-2V29H9z"/>
<path fill="#FFFFFF" d="M35,22H19c-0.552,0-1-0.448-1-1V11c0-0.552,0.448-1,1-1h16c0.552,0,1,0.448,1,1v10
	C36,21.552,35.552,22,35,22z"/>
<path fill="#444444" d="M32,15H22c-0.553,0-1-0.448-1-1s0.447-1,1-1h10c0.553,0,1,0.448,1,1S32.553,15,32,15z"/>
<path fill="#444444" d="M28,19h-6c-0.553,0-1-0.448-1-1s0.447-1,1-1h6c0.553,0,1,0.448,1,1S28.553,19,28,19z"/>
</g></svg>