<svg xmlns="http://www.w3.org/2000/svg" xmlns:xlink="http://www.w3.org/1999/xlink" x="0px" y="0px" width="48px" height="48px" viewBox="0 0 48 48"><g >
<polygon fill="#9EDB9E" points="46,2 16,2 16,16 2,16 2,46 32,46 32,32 46,32 "/>
<path fill="#4DA34D" d="M32,47H2c-0.553,0-1-0.447-1-1V16c0-0.553,0.447-1,1-1h13V2c0-0.553,0.447-1,1-1h30c0.553,0,1,0.447,1,1v30
	c0,0.553-0.447,1-1,1H33v13C33,46.553,32.553,47,32,47z M3,45h28V32c0-0.553,0.447-1,1-1h13V3H17v13c0,0.553-0.447,1-1,1H3V45z"/>
<rect x="16" y="16" fill="#FFFFFF" width="16" height="16"/>
<path fill="#7AC17A" d="M33,33H15V15h18V33z M17,31h14V17H17V31z"/>
</g></svg>