<svg xmlns="http://www.w3.org/2000/svg" xmlns:xlink="http://www.w3.org/1999/xlink" x="0px" y="0px" width="48px" height="48px" viewBox="0 0 48 48"><g >
<path fill="#A67C52" d="M43.707,4.293c-2.044-2.044-5.37-2.044-7.414,0L17.527,23.059c0.169-0.012,0.339-0.025,0.51-0.025
	c1.87,0,2.641,1.644,3.963,2.966c1.457,1.457,3.115,2.486,3.016,4.398l18.691-18.691C45.751,9.663,45.751,6.337,43.707,4.293z"/>
<path fill="#E6E6E6" d="M22.987,25.084c-1.322-1.322-3.08-2.05-4.949-2.05c-0.172,0-0.341,0.013-0.51,0.025l-4.732,4.732
	c-0.781,0.781-0.781,2.047,0,2.828l4.586,4.586c0.781,0.781,2.047,0.781,2.828,0l4.808-4.808
	C25.115,28.486,24.444,26.541,22.987,25.084z"/>
<path fill="#444444" d="M17.987,39.984c2.729-2.729,2.729-7.17,0-9.899c-1.322-1.322-3.08-2.05-4.949-2.05
	c-1.87,0-3.628,0.728-4.95,2.05c-1.551,1.551-2.349,5.307-2.75,8.219c2.132,0.014,3.556,1.59,5.628,2.145
	c1.8,0.482,4.213-0.053,6.435,0.015C17.619,40.311,17.818,40.153,17.987,39.984z"/>
<path fill="#EFD358" d="M5.259,42.812C5.447,43,5.702,43.105,5.966,43.105c0.018,0,0.036,0,0.054-0.001
	c0.893-0.048,8.328-0.513,11.381-2.64c-4.779-0.147-8.079-2.134-12.063-2.16c-0.255,1.858-0.35,3.375-0.37,3.748
	C4.952,42.334,5.058,42.611,5.259,42.812z"/>
</g></svg>