<svg xmlns="http://www.w3.org/2000/svg" xmlns:xlink="http://www.w3.org/1999/xlink" x="0px" y="0px" width="48px" height="48px" viewBox="0 0 48 48"><g >
<path fill="#444444" d="M42.356,23.388L27.27,2.815c-0.128-0.218-0.484-0.656-0.53-0.702c-1.442-1.443-4.004-1.479-7.207-0.105
	c-2.919,1.25-6.136,3.548-9.057,6.469s-5.219,6.137-6.469,9.056c-1.374,3.206-1.337,5.766,0.105,7.208
	c0.045,0.045,0.499,0.411,0.707,0.533l20.567,15.083c0.545,0.511,1.254,0.741,2.074,0.741c2.725,0,6.672-2.538,9.885-5.75
	C41.526,31.167,44.564,25.743,42.356,23.388z"/>
<path fill="#E86C60" d="M6.823,31.432c-0.375-0.541-1.271-0.541-1.646,0C4.479,32.441,1,37.601,1,40c0,2.757,2.243,5,5,5
	s5-2.243,5-5C11,37.601,7.521,32.441,6.823,31.432z"/>
<path fill="#B3B3B3" d="M32,5h-3.128l1.467,2H32c3.859,0,7,3.14,7,7s-3.141,7-7,7h-8c-0.553,0-1,0.448-1,1s0.447,1,1,1h8
	c4.963,0,9-4.038,9-9S36.963,5,32,5z"/>
<path fill="#E86C60" d="M20.32,3.846c-2.69,1.153-5.684,3.3-8.43,6.045c-2.745,2.746-4.892,5.739-6.045,8.429
	c-1,2.334-1.119,4.205-0.318,5.006c0.799,0.799,2.671,0.682,5.006-0.318c2.69-1.153,5.684-3.3,8.429-6.045s4.893-5.739,6.046-8.43
	c1-2.333,1.119-4.205,0.318-5.005c-0.352-0.352-0.91-0.526-1.623-0.526C22.792,3.001,21.629,3.285,20.32,3.846z"/>
</g></svg>