<svg xmlns="http://www.w3.org/2000/svg" xmlns:xlink="http://www.w3.org/1999/xlink" x="0px" y="0px" width="48px" height="48px" viewBox="0 0 48 48"><g >
<path fill="#B3B3B3" d="M2,41c-0.358,0-0.697-0.193-0.875-0.517c-0.215-0.39-0.146-0.875,0.168-1.19l24-24
	c0.391-0.391,1.023-0.391,1.414,0l5,5c0.391,0.391,0.391,1.023,0,1.414l-5.757,5.757l-0.958,7.66
	c-0.052,0.417-0.36,0.758-0.771,0.851l-22,5C2.147,40.992,2.073,41,2,41z"/>
<path fill="#444444" d="M32.053,23c-0.256,0-0.512-0.098-0.707-0.293l-7-7c-0.391-0.391-0.391-1.023,0-1.414L35.809,2.83
	c1.133-1.133,2.613-1.738,4.241-1.749c1.602,0.005,3.104,0.635,4.23,1.774c2.308,2.335,2.291,6.118-0.037,8.433L32.758,22.709
	C32.563,22.903,32.308,23,32.053,23z"/>
</g></svg>