<?xml version="1.0" encoding="utf-8"?>
<!-- Generator: Adobe Illustrator 19.2.1, SVG Export Plug-In . SVG Version: 6.00 Build 0)  -->
<!DOCTYPE svg PUBLIC "-//W3C//DTD SVG 1.1//EN" "http://www.w3.org/Graphics/SVG/1.1/DTD/svg11.dtd">
<svg version="1.1" id="Layer_1" xmlns="http://www.w3.org/2000/svg" xmlns:xlink="http://www.w3.org/1999/xlink" x="0px" y="0px"
	 width="48px" height="48px" viewBox="0 0 48 48" enable-background="new 0 0 48 48" xml:space="preserve">
<path fill="#43A6DD" d="M44.543,11.283c4.256-11.044-4.011-10.271-4.011-10.271c-5.304,0-11.934,4.83-11.934,4.83
	S20.69,3.711,12.781,8.494c-8.619,5.493-8.335,15.249-8.335,15.249c7.009-10.04,16.764-14.112,16.764-14.112v0.663
	C6.814,20.138,3.405,34.54,2.552,37.476C1.7,40.412,2.268,47,8.33,47c6.062,0,12.218-4.883,12.218-4.883s1.326,0.284,4.925,0.284
	C40.627,42.401,44.226,29,44.226,29H30.777c0,0-0.947,4.404-5.777,4.404c-6.63,0-6.251-6.914-6.251-6.914h25.667
	C45.647,8.684,30.114,6.126,30.114,6.126s5.489-3.883,10.229-3.883c7.512,0,3.96,8.8,3.96,8.8L44.543,11.283z M19.796,41.92
	c0,0-9.25,5.614-13.403,1.724c-2.225-3.89,1.39-9.399,1.39-9.399S10.842,39.918,19.796,41.92z M30.923,20.43H18.716
	c0,0-0.155-5.949,6.258-5.949C31.167,14.481,30.923,20.43,30.923,20.43z"/>
</svg>
