<svg xmlns="http://www.w3.org/2000/svg" xmlns:xlink="http://www.w3.org/1999/xlink" x="0px" y="0px" width="48px" height="48px" viewBox="0 0 48 48"><g >
<rect x="2.172" y="41" transform="matrix(0.7071 -0.7071 0.7071 0.7071 -27.9411 16.5442)" fill="#444444" width="7.657" height="2"/>
<path fill="#606060" d="M9,44c-0.256,0-0.512-0.098-0.707-0.293l-4-4c-0.391-0.391-0.391-1.023,0-1.414l11.5-11.5
	c0.391-0.391,1.023-0.391,1.414,0l4,4c0.391,0.391,0.391,1.023,0,1.414l-11.5,11.5C9.512,43.902,9.256,44,9,44z"/>
<path fill="#606060" d="M37.5,15.5c-0.256,0-0.512-0.098-0.707-0.293l-4-4c-0.391-0.391-0.391-1.023,0-1.414l7.5-7.5
	c0.391-0.391,1.023-0.391,1.414,0l4,4c0.391,0.391,0.391,1.023,0,1.414l-7.5,7.5C38.012,15.402,37.756,15.5,37.5,15.5z"/>
<path fill="#B3B3B3" d="M26,39c-0.256,0-0.512-0.098-0.707-0.293c-0.391-0.391-0.391-1.023,0-1.414L40.586,22l-3.293-3.293
	c-0.391-0.391-0.391-1.023,0-1.414s1.023-0.391,1.414,0l4,4c0.391,0.391,0.391,1.023,0,1.414l-16,16C26.512,38.902,26.256,39,26,39z
	"/>
<path fill="#444444" d="M42.707,13.293l-8-8c-0.391-0.391-1.023-0.391-1.414,0l-22.5,22.5c-0.391,0.391-0.391,1.023,0,1.414l8,8
	c0.195,0.195,0.451,0.293,0.707,0.293s0.512-0.098,0.707-0.293l22.5-22.5C43.098,14.316,43.098,13.684,42.707,13.293z"/>
</g></svg>