<svg xmlns="http://www.w3.org/2000/svg" xmlns:xlink="http://www.w3.org/1999/xlink" x="0px" y="0px" width="48px" height="48px" viewBox="0 0 48 48"><g >
<path fill="#B3B3B3" d="M46,5H2C1.448,5,1,4.553,1,4s0.448-1,1-1h44c0.552,0,1,0.447,1,1S46.552,5,46,5z"/>
<path fill="#B3B3B3" d="M46,45H2c-0.552,0-1-0.447-1-1s0.448-1,1-1h44c0.552,0,1,0.447,1,1S46.552,45,46,45z"/>
<path fill="#43A6DD" d="M38,17H10c-0.552,0-1,0.447-1,1v12c0,0.553,0.448,1,1,1h28c0.552,0,1-0.447,1-1V18
	C39,17.447,38.552,17,38,17z"/>
</g></svg>