<?xml version="1.0" encoding="utf-8"?>
<!-- Generator: Adobe Illustrator 19.2.1, SVG Export Plug-In . SVG Version: 6.00 Build 0)  -->
<!DOCTYPE svg PUBLIC "-//W3C//DTD SVG 1.1//EN" "http://www.w3.org/Graphics/SVG/1.1/DTD/svg11.dtd">
<svg version="1.1" id="Layer_1" xmlns="http://www.w3.org/2000/svg" xmlns:xlink="http://www.w3.org/1999/xlink" x="0px" y="0px"
	 width="48px" height="48px" viewBox="0 0 48 48" enable-background="new 0 0 48 48" xml:space="preserve">
<path fill="#B3B3B3" d="M24,13c-0.553,0-1-0.447-1-1V2c0-0.553,0.447-1,1-1s1,0.447,1,1v10C25,12.553,24.553,13,24,13z"/>
<path fill="#B3B3B3" d="M2.001,41c-0.367,0-0.72-0.202-0.896-0.553c-0.247-0.494-0.047-1.095,0.447-1.342l8-4
	c0.495-0.245,1.094-0.047,1.342,0.447c0.247,0.494,0.047,1.095-0.447,1.342l-8,4C2.304,40.966,2.151,41,2.001,41z"/>
<path fill="#B3B3B3" d="M45.999,41c-0.15,0-0.303-0.034-0.446-0.105l-8-4c-0.494-0.247-0.694-0.848-0.447-1.342
	c0.248-0.494,0.848-0.692,1.342-0.447l8,4c0.494,0.247,0.694,0.848,0.447,1.342C46.719,40.798,46.366,41,45.999,41z"/>
<path fill="#BADEFC" d="M24,26l14-7l0.887-0.444c-0.095-0.19-0.242-0.352-0.44-0.451l-14-7c-0.281-0.141-0.613-0.141-0.895,0l-14,7
	c-0.197,0.099-0.345,0.261-0.44,0.451L10,19L24,26z"/>
<path fill="#43A6DD" d="M10,19l-0.887-0.444C9.045,18.693,9,18.842,9,19v17c0,0.379,0.214,0.725,0.553,0.895l14,7
	C23.693,43.965,23.847,44,24,44V26L10,19z"/>
<path fill="#458BC4" d="M38.887,18.556L38,19l-14,7v18c0.153,0,0.307-0.035,0.447-0.105l14-7C38.786,36.725,39,36.379,39,36V19
	C39,18.842,38.955,18.693,38.887,18.556z"/>
</svg>
