<svg xmlns="http://www.w3.org/2000/svg" xmlns:xlink="http://www.w3.org/1999/xlink" x="0px" y="0px" width="48px" height="48px" viewBox="0 0 48 48"><g >
<path fill="#E6E6E6" d="M38,46H10c-2.209,0-4-1.791-4-4v-7h36v7C42,44.209,40.209,46,38,46z"/>
<path fill="#444444" d="M38,1H10C7.243,1,5,3.243,5,6v36c0,2.757,2.243,5,5,5h28c2.757,0,5-2.243,5-5v-8V6C43,3.243,40.757,1,38,1z
	 M41,42c0,1.654-1.346,3-3,3H10c-1.654,0-3-1.346-3-3s1.346-3,3-3h28c0.318,0,0.626-0.037,0.927-0.094
	c0.095-0.018,0.186-0.047,0.279-0.07c0.204-0.051,0.404-0.11,0.598-0.186c0.1-0.039,0.196-0.081,0.292-0.126
	c0.183-0.085,0.358-0.181,0.529-0.287c0.084-0.053,0.169-0.102,0.25-0.159c0.04-0.028,0.085-0.05,0.124-0.079V42z"/>
<polygon fill="#EFD358" points="26,15 20,11 14,15 14,1 26,1 "/>
<path fill="#B3B3B3" d="M37,43H11c-0.552,0-1-0.447-1-1s0.448-1,1-1h26c0.552,0,1,0.447,1,1S37.552,43,37,43z"/>
</g></svg>