<svg xmlns="http://www.w3.org/2000/svg" xmlns:xlink="http://www.w3.org/1999/xlink" x="0px" y="0px" width="48px" height="48px" viewBox="0 0 48 48"><g >
<circle fill="#9EDB9E" cx="24" cy="24" r="16"/>
<path fill="#4DA34D" d="M24,41c-9.374,0-17-7.626-17-17S14.626,7,24,7s17,7.626,17,17S33.374,41,24,41z M24,9
	C15.729,9,9,15.729,9,24s6.729,15,15,15s15-6.729,15-15S32.271,9,24,9z"/>
<rect x="20" y="4" fill="#E6E6E6" width="8" height="8"/>
<path fill="#335262" d="M28,13h-8c-0.553,0-1-0.448-1-1V4c0-0.552,0.447-1,1-1h8c0.553,0,1,0.448,1,1v8C29,12.552,28.553,13,28,13z
	 M21,11h6V5h-6V11z"/>
<rect x="4" y="20" fill="#E6E6E6" width="8" height="8"/>
<path fill="#335262" d="M12,29H4c-0.553,0-1-0.448-1-1v-8c0-0.552,0.447-1,1-1h8c0.553,0,1,0.448,1,1v8C13,28.552,12.553,29,12,29z
	 M5,27h6v-6H5V27z"/>
<rect x="36" y="20" fill="#E6E6E6" width="8" height="8"/>
<path fill="#335262" d="M44,29h-8c-0.553,0-1-0.448-1-1v-8c0-0.552,0.447-1,1-1h8c0.553,0,1,0.448,1,1v8C45,28.552,44.553,29,44,29z
	 M37,27h6v-6h-6V27z"/>
<rect x="20" y="36" fill="#E6E6E6" width="8" height="8"/>
<path fill="#335262" d="M28,45h-8c-0.553,0-1-0.448-1-1v-8c0-0.552,0.447-1,1-1h8c0.553,0,1,0.448,1,1v8C29,44.552,28.553,45,28,45z
	 M21,43h6v-6h-6V43z"/>
</g></svg>