<?xml version="1.0" encoding="utf-8"?>
<!-- Generator: Adobe Illustrator 19.2.1, SVG Export Plug-In . SVG Version: 6.00 Build 0)  -->
<!DOCTYPE svg PUBLIC "-//W3C//DTD SVG 1.1//EN" "http://www.w3.org/Graphics/SVG/1.1/DTD/svg11.dtd">
<svg version="1.1" id="Layer_1" xmlns="http://www.w3.org/2000/svg" xmlns:xlink="http://www.w3.org/1999/xlink" x="0px" y="0px"
	 width="48px" height="48px" viewBox="0 0 48 48" enable-background="new 0 0 48 48" xml:space="preserve">
<path fill="#C94F49" d="M24,1C11.297,1,1,11.297,1,24c0,12.703,10.297,23,23,23s23-10.297,23-23C47,11.297,36.703,1,24,1z M24,41
	c-6.627,0-12-7.611-12-17S17.373,7,24,7s12,7.611,12,17S30.627,41,24,41z"/>
<path fill="#E86C60" d="M30,44c-9.941,0-18-8.954-18-20c0-11.046,8.059-20,18-20c3.531,0,6.815,1.147,9.595,3.099
	C35.495,3.315,30.019,1,24,1C11.297,1,1,11.297,1,24c0,12.703,10.297,23,23,23c6.019,0,11.495-2.315,15.595-6.099
	C36.815,42.853,33.531,44,30,44z"/>
</svg>
