<?xml version="1.0" encoding="utf-8"?>
<!-- Generator: Adobe Illustrator 19.2.1, SVG Export Plug-In . SVG Version: 6.00 Build 0)  -->
<!DOCTYPE svg PUBLIC "-//W3C//DTD SVG 1.1//EN" "http://www.w3.org/Graphics/SVG/1.1/DTD/svg11.dtd">
<svg version="1.1" id="Layer_1" xmlns="http://www.w3.org/2000/svg" xmlns:xlink="http://www.w3.org/1999/xlink" x="0px" y="0px"
	 width="48px" height="48px" viewBox="0 0 48 48" enable-background="new 0 0 48 48" xml:space="preserve">
<rect x="1" y="11" fill="#444444" width="46" height="26"/>
<path fill="#999999" d="M47,12V7c0-1.105-0.895-2-2-2H3C1.895,5,1,5.895,1,7v5h5c1.105,0,2,0.895,2,2v20c0,1.105-0.895,2-2,2H1v5
	c0,1.105,0.895,2,2,2h42c1.105,0,2-0.895,2-2v-5h-5c-1.105,0-2-0.895-2-2V14c0-1.105,0.895-2,2-2H47z M35,36H13
	c-1.105,0-2-0.895-2-2V14c0-1.105,0.895-2,2-2h22c1.105,0,2,0.895,2,2v20C37,35.105,36.105,36,35,36z"/>
</svg>
