<?xml version="1.0" encoding="utf-8"?>
<!-- Generator: Adobe Illustrator 19.2.1, SVG Export Plug-In . SVG Version: 6.00 Build 0)  -->
<!DOCTYPE svg PUBLIC "-//W3C//DTD SVG 1.1//EN" "http://www.w3.org/Graphics/SVG/1.1/DTD/svg11.dtd">
<svg version="1.1" id="Layer_1" xmlns="http://www.w3.org/2000/svg" xmlns:xlink="http://www.w3.org/1999/xlink" x="0px" y="0px"
	 width="48px" height="48px" viewBox="0 0 48 48" enable-background="new 0 0 48 48" xml:space="preserve">
<path fill="#B3B3B3" d="M42.998,35.227c-1.039,2.301-1.535,3.328-2.873,5.361c-1.864,2.839-4.494,6.375-7.753,6.405
	c-2.895,0.027-3.639-1.884-7.569-1.861S20.054,47.027,17.159,47c-3.259-0.029-5.749-3.222-7.615-6.063
	c-5.216-7.94-5.761-17.257-2.544-22.21c2.286-3.522,5.894-5.58,9.285-5.58c3.453,0,5.624,1.893,8.48,1.893
	c2.77,0,4.457-1.896,8.45-1.896c3.018,0,6.216,1.643,8.495,4.482C34.243,21.717,35.457,32.376,42.998,35.227L42.998,35.227z"/>
<path fill="#B3B3B3" d="M30.607,8.176C32.058,6.314,33.158,3.687,32.758,1c-2.37,0.162-5.14,1.67-6.758,3.635
	c-1.469,1.783-2.682,4.428-2.21,6.999C26.375,11.715,29.052,10.17,30.607,8.176L30.607,8.176z"/>
</svg>
