<svg xmlns="http://www.w3.org/2000/svg" xmlns:xlink="http://www.w3.org/1999/xlink" x="0px" y="0px" width="48px" height="48px" viewBox="0 0 48 48"><g >
<rect x="23" y="3" fill="#ED69AB" width="2" height="5"/>
<rect x="23" y="12" fill="#ED69AB" width="2" height="5"/>
<rect x="23" y="31" fill="#ED69AB" width="2" height="5"/>
<rect x="23" y="40" fill="#ED69AB" width="2" height="5"/>
<path fill="#B3B3B3" d="M29.067,36.179c-0.537,1.484,5.396-5.201,3.857-4.402L6.615,1.083C3.828,5.728,4.56,11.672,8.39,15.502
	L29.067,36.179z"/>
<path fill="#444444" d="M28,39c0-4.411,3.589-8,8-8s8,3.589,8,8s-3.589,8-8,8S28,43.411,28,39z M30,39c0,3.309,2.691,6,6,6
	s6-2.691,6-6s-2.691-6-6-6S30,35.691,30,39z"/>
<polygon fill="#9E9E9E" points="26.327,24.081 21.894,29.006 26.121,33.233 30.456,28.898 "/>
<path fill="#B3B3B3" d="M39.61,15.502c3.83-3.83,4.562-9.774,1.775-14.419L15.076,31.777c-1.539-0.799,4.393,5.886,3.857,4.402
	L39.61,15.502z"/>
<path fill="#444444" d="M12,47c-4.411,0-8-3.589-8-8s3.589-8,8-8s8,3.589,8,8S16.411,47,12,47z M12,33c-3.309,0-6,2.691-6,6
	s2.691,6,6,6s6-2.691,6-6S15.309,33,12,33z"/>
<circle fill="#444444" cx="24" cy="26" r="2"/>
</g></svg>