<svg xmlns="http://www.w3.org/2000/svg" xmlns:xlink="http://www.w3.org/1999/xlink" x="0px" y="0px" width="48px" height="48px" viewBox="0 0 48 48"><g >
<path fill="#444444" d="M46,9H2c-0.552,0-1,0.448-1,1v32c0,0.552,0.448,1,1,1h44c0.552,0,1-0.448,1-1V10C47,9.448,46.552,9,46,9z"/>
<circle fill="#606060" cx="8" cy="26" r="3"/>
<path fill="#606060" d="M9,13H7c-0.552,0-1,0.448-1,1v6c0,0.552,0.448,1,1,1h2c0.552,0,1-0.448,1-1v-6C10,13.448,9.552,13,9,13z"/>
<path fill="#606060" d="M9,31H7c-0.552,0-1,0.448-1,1v6c0,0.552,0.448,1,1,1h2c0.552,0,1-0.448,1-1v-6C10,31.448,9.552,31,9,31z"/>
<path fill="#606060" d="M41,39H16c-0.552,0-1-0.448-1-1V14c0-0.552,0.448-1,1-1h25c0.552,0,1,0.448,1,1v24
	C42,38.552,41.552,39,41,39z"/>
<path fill="#333333" d="M22,24c0,0,0.604-4.604,2-6L40,2c1.105-1.105,2.895-1.105,4,0l0,0c1.105,1.105,1.105,2.895,0,4L28,22
	C26.583,23.417,22,24,22,24z"/>
</g></svg>