<?xml version="1.0" encoding="utf-8"?>
<!-- Generator: Adobe Illustrator 19.2.1, SVG Export Plug-In . SVG Version: 6.00 Build 0)  -->
<!DOCTYPE svg PUBLIC "-//W3C//DTD SVG 1.1//EN" "http://www.w3.org/Graphics/SVG/1.1/DTD/svg11.dtd">
<svg version="1.1" id="Layer_1" xmlns="http://www.w3.org/2000/svg" xmlns:xlink="http://www.w3.org/1999/xlink" x="0px" y="0px"
	 width="48px" height="48px" viewBox="0 0 48 48" enable-background="new 0 0 48 48" xml:space="preserve">
<path fill="#E6E6E6" d="M30.749,41.293L6.707,17.251L21.556,2.402c0.781-0.781,2.047-0.781,2.828,0L35.913,13.93
	c0.296,0.296,0.376,0.745,0.201,1.125l-3.274,7.117l7.178-3.224c0.379-0.17,0.823-0.088,1.117,0.205l4.462,4.462
	c0.781,0.781,0.781,2.047,0,2.828L30.749,41.293z"/>
<rect x="2.435" y="27.565" transform="matrix(0.7071 0.7071 -0.7071 0.7071 25.8909 -5.3762)" fill="#B3B3B3" width="34" height="2"/>
<path fill="#444444" d="M6.707,17.251L6,17.958c-2.729,2.729-2.729,7.171,0,9.899l3.536,3.536l-7.071,7.071
	c-1.949,1.949-1.949,5.122,0,7.071s5.122,1.949,7.071,0l7.071-7.071L20.142,42c2.729,2.729,7.17,2.729,9.899,0l0.707-0.707
	L6.707,17.251z M4.586,43.414c-0.781-0.781-0.781-2.047,0-2.828c0.781-0.781,2.047-0.781,2.828,0c0.781,0.781,0.781,2.047,0,2.828
	C6.633,44.195,5.367,44.195,4.586,43.414z"/>
<path fill="#E6E6E6" d="M4.586,43.414c-0.781-0.781-0.781-2.047,0-2.828c0.781-0.781,2.047-0.781,2.828,0
	c0.781,0.781,0.781,2.047,0,2.828C6.633,44.195,5.367,44.195,4.586,43.414z"/>
</svg>
