<?xml version="1.0" encoding="utf-8"?>
<!-- Generator: Adobe Illustrator 19.2.1, SVG Export Plug-In . SVG Version: 6.00 Build 0)  -->
<!DOCTYPE svg PUBLIC "-//W3C//DTD SVG 1.1//EN" "http://www.w3.org/Graphics/SVG/1.1/DTD/svg11.dtd">
<svg version="1.1" id="Layer_1" xmlns="http://www.w3.org/2000/svg" xmlns:xlink="http://www.w3.org/1999/xlink" x="0px" y="0px"
	 width="48px" height="48px" viewBox="0 0 48 48" enable-background="new 0 0 48 48" xml:space="preserve">
<path fill="#5B5B5B" d="M45,35H3c-1.105,0-2-0.895-2-2V3c0-1.105,0.895-2,2-2h42c1.105,0,2,0.895,2,2v30C47,34.105,46.105,35,45,35z
	"/>
<path fill="#B3B3B3" d="M10,46c-1.654,0-3-1.345-3-3s1.346-3,3-3s3,1.345,3,3S11.654,46,10,46z"/>
<path fill="#B3B3B3" d="M37,46c-1.654,0-3-1.345-3-3s1.346-3,3-3s3,1.345,3,3S38.654,46,37,46z"/>
<path fill="#43A6DD" d="M24,47c-2.205,0-4-1.795-4-4s1.795-4,4-4s4,1.795,4,4S26.205,47,24,47z"/>
</svg>
