<svg xmlns="http://www.w3.org/2000/svg" xmlns:xlink="http://www.w3.org/1999/xlink" x="0px" y="0px" width="48px" height="48px" viewBox="0 0 48 48"><g >
<path fill="#444444" d="M2.293,38.293c-0.391,0.391-0.391,1.023,0,1.414l6,6C8.488,45.902,8.744,46,9,46s0.512-0.098,0.707-0.293
	l19-19l-7.414-7.414L2.293,38.293z"/>
<path fill="#E6E6E6" d="M35.707,18.293l-6-6c-0.391-0.391-1.023-0.391-1.414,0l-7,7l7.414,7.414l7-7
	C36.098,19.316,36.098,18.684,35.707,18.293z"/>
<path fill="#43A6DD" d="M45,6c-1.654,0-3-1.346-3-3c0-0.552-0.447-1-1-1s-1,0.448-1,1c0,1.654-1.346,3-3,3c-0.553,0-1,0.448-1,1
	s0.447,1,1,1c1.654,0,3,1.346,3,3c0,0.552,0.447,1,1,1s1-0.448,1-1c0-1.654,1.346-3,3-3c0.553,0,1-0.448,1-1S45.553,6,45,6z"/>
<path fill="#43A6DD" d="M22,6c-1.654,0-3-1.346-3-3c0-0.552-0.447-1-1-1s-1,0.448-1,1c0,1.654-1.346,3-3,3c-0.553,0-1,0.448-1,1
	s0.447,1,1,1c1.654,0,3,1.346,3,3c0,0.552,0.447,1,1,1s1-0.448,1-1c0-1.654,1.346-3,3-3c0.553,0,1-0.448,1-1S22.553,6,22,6z"/>
<path fill="#43A6DD" d="M41,25c-0.552,0-1,0.447-1,1c0,1.654-1.346,3-3,3c-0.552,0-1,0.447-1,1s0.448,1,1,1c1.654,0,3,1.346,3,3
	c0,0.553,0.448,1,1,1s1-0.447,1-1c0-1.654,1.346-3,3-3c0.552,0,1-0.447,1-1s-0.448-1-1-1c-1.654,0-3-1.346-3-3
	C42,25.447,41.552,25,41,25z"/>
</g></svg>