<svg xmlns="http://www.w3.org/2000/svg" xmlns:xlink="http://www.w3.org/1999/xlink" x="0px" y="0px" width="48px" height="48px" viewBox="0 0 48 48"><g >
<path fill="#444444" d="M32,47H10c-2.209,0-4-1.791-4-4V5c0-2.209,1.791-4,4-4h22c2.209,0,4,1.791,4,4v38C36,45.209,34.209,47,32,47
	z"/>
<circle fill="#595959" cx="21" cy="42" r="2"/>
<path fill="#43A6DD" d="M32,37H10c-0.552,0-1-0.448-1-1V8c0-0.552,0.448-1,1-1h22c0.552,0,1,0.448,1,1v28C33,36.552,32.552,37,32,37
	z"/>
<path fill="#A67C52" d="M45.172,2.828c-1.105-1.105-2.895-1.105-4,0L28.536,15.464c0.988,0.181,1.899,0.65,2.625,1.376
	c0.726,0.726,1.194,1.636,1.375,2.624L45.172,6.828C46.276,5.724,46.276,3.933,45.172,2.828z"/>
<path fill="#E6E6E6" d="M28.536,15.464L23,21l4,4l5.536-5.536c-0.181-0.988-0.65-1.899-1.375-2.624
	C30.435,16.115,29.524,15.646,28.536,15.464z"/>
<path fill="#444444" d="M27.785,20.215c-0.944-0.944-2.2-1.465-3.536-1.465c-1.336,0-2.591,0.521-3.536,1.465
	c-1.776,1.776-1.733,6.813-1.707,7.805l0.025,0.948l0.947,0.025C20.109,28.996,20.304,29,20.552,29c1.667,0,5.687-0.168,7.233-1.715
	c0.944-0.944,1.464-2.199,1.464-3.535S28.73,21.159,27.785,20.215z"/>
</g></svg>