<svg xmlns="http://www.w3.org/2000/svg" xmlns:xlink="http://www.w3.org/1999/xlink" x="0px" y="0px" width="48px" height="48px" viewBox="0 0 48 48"><g >
<path fill="#B3B3B3" d="M46,43H2c-0.553,0-1-0.447-1-1s0.447-1,1-1h44c0.553,0,1,0.447,1,1S46.553,43,46,43z"/>
<path fill="#43A6DD" d="M20,5H10C9.447,5,9,5.447,9,6v28c0,0.553,0.447,1,1,1h10c0.553,0,1-0.447,1-1V6C21,5.447,20.553,5,20,5z"/>
<path fill="#43A6DD" d="M38,17H28c-0.553,0-1,0.447-1,1v16c0,0.553,0.447,1,1,1h10c0.553,0,1-0.447,1-1V18
	C39,17.447,38.553,17,38,17z"/>
</g></svg>