<svg xmlns="http://www.w3.org/2000/svg" xmlns:xlink="http://www.w3.org/1999/xlink" x="0px" y="0px" width="48px" height="48px" viewBox="0 0 48 48"><g >
<path fill="#B3B3B3" d="M6,47c-0.552,0-1-0.447-1-1V2c0-0.553,0.448-1,1-1s1,0.447,1,1v44C7,46.553,6.552,47,6,47z"/>
<path fill="#43A6DD" d="M42,9H14c-0.552,0-1,0.447-1,1v10c0,0.553,0.448,1,1,1h28c0.552,0,1-0.447,1-1V10C43,9.447,42.552,9,42,9z"/>
<path fill="#43A6DD" d="M30,27H14c-0.552,0-1,0.447-1,1v10c0,0.553,0.448,1,1,1h16c0.552,0,1-0.447,1-1V28
	C31,27.447,30.552,27,30,27z"/>
</g></svg>