<svg xmlns="http://www.w3.org/2000/svg" xmlns:xlink="http://www.w3.org/1999/xlink" x="0px" y="0px" width="48px" height="48px" viewBox="0 0 48 48"><g >
<path fill="#EAD8C5" d="M15,45.308c-3.153,0-6.307-1.201-8.707-3.601c-4.801-4.801-4.801-12.613,0-17.414l18-18
	c4.801-4.801,12.613-4.801,17.414,0c4.801,4.801,4.801,12.613,0,17.414l-18,18C21.307,44.107,18.153,45.308,15,45.308z"/>
<path fill="#DDBE99" d="M22.086,37.086L10.914,25.914c-0.781-0.781-0.781-2.047,0-2.828l12.172-12.172
	c0.781-0.781,2.047-0.781,2.828,0l11.172,11.172c0.781,0.781,0.781,2.047,0,2.828L24.914,37.086
	C24.133,37.867,22.867,37.867,22.086,37.086z"/>
<circle fill="#C6A279" cx="18" cy="24" r="2"/>
<circle fill="#C6A279" cx="24" cy="18" r="2"/>
<circle fill="#C6A279" cx="24" cy="30" r="2"/>
<circle fill="#C6A279" cx="30" cy="24" r="2"/>
</g></svg>