<?xml version="1.0" encoding="utf-8"?>
<!-- Generator: Adobe Illustrator 19.2.1, SVG Export Plug-In . SVG Version: 6.00 Build 0)  -->
<!DOCTYPE svg PUBLIC "-//W3C//DTD SVG 1.1//EN" "http://www.w3.org/Graphics/SVG/1.1/DTD/svg11.dtd">
<svg version="1.1" id="Layer_1" xmlns="http://www.w3.org/2000/svg" xmlns:xlink="http://www.w3.org/1999/xlink" x="0px" y="0px"
	 width="48px" height="48px" viewBox="0 0 48 48" enable-background="new 0 0 48 48" xml:space="preserve">
<rect x="6" y="5" fill="#FFFFFF" width="36" height="29"/>
<path fill="#A67C52" d="M26,6h-4c-0.552,0-1-0.448-1-1V1c0-0.552,0.448-1,1-1h4c0.552,0,1,0.448,1,1v4C27,5.552,26.552,6,26,6z"/>
<path fill="#A67C52" d="M36.956,46.706l-4-13c-0.163-0.529-0.726-0.825-1.25-0.662c-0.528,0.162-0.824,0.722-0.662,1.25L32.492,39
	H15.508l1.448-4.706c0.163-0.528-0.134-1.087-0.662-1.25c-0.525-0.164-1.088,0.132-1.25,0.662l-4,13
	c-0.163,0.528,0.134,1.087,0.662,1.25C11.804,47.986,11.903,48,12,48c0.427,0,0.823-0.276,0.955-0.707l1.943-6.314
	C14.934,40.983,14.964,41,15,41h18c0.036,0,0.066-0.017,0.102-0.021l1.943,6.314C35.176,47.724,35.572,48,36,48
	c0.098,0,0.197-0.015,0.294-0.045C36.822,47.793,37.118,47.234,36.956,46.706z"/>
<path fill="#EFD358" d="M20,17c-2.205,0-4-1.794-4-4s1.795-4,4-4s4,1.794,4,4S22.205,17,20,17z"/>
<path fill="#72C472" d="M31,35H6c-0.552,0-1-0.448-1-1v-6c0-0.289,0.125-0.562,0.341-0.752l8-7c0.358-0.314,0.889-0.33,1.266-0.042
	l17,13c0.341,0.26,0.477,0.709,0.34,1.115C31.81,34.727,31.429,35,31,35z"/>
<path fill="#4DA34D" d="M42,35H15c-0.404,0-0.769-0.244-0.924-0.617c-0.155-0.374-0.069-0.804,0.217-1.09l16-16
	c0.365-0.364,0.943-0.392,1.34-0.067l11,9C42.865,26.416,43,26.7,43,27v7C43,34.552,42.552,35,42,35z"/>
<path fill="#C19F85" d="M42,4H6C5.448,4,5,4.448,5,5v29c0,0.552,0.448,1,1,1h36c0.552,0,1-0.448,1-1V5C43,4.448,42.552,4,42,4z
	 M41,33H7V6h34V33z"/>
</svg>
