<?xml version="1.0" encoding="utf-8"?>
<!-- Generator: Adobe Illustrator 19.2.1, SVG Export Plug-In . SVG Version: 6.00 Build 0)  -->
<!DOCTYPE svg PUBLIC "-//W3C//DTD SVG 1.1//EN" "http://www.w3.org/Graphics/SVG/1.1/DTD/svg11.dtd">
<svg version="1.1" id="Layer_1" xmlns="http://www.w3.org/2000/svg" xmlns:xlink="http://www.w3.org/1999/xlink" x="0px" y="0px"
	 width="48px" height="48px" viewBox="0 0 48 48" enable-background="new 0 0 48 48" xml:space="preserve">
<path fill="#E6E6E6" d="M46,47H2c-0.552,0-1-0.448-1-1V2c0-0.552,0.448-1,1-1h44c0.552,0,1,0.448,1,1v44C47,46.552,46.552,47,46,47z
	 M3,45h42V3H3V45z"/>
<path fill="#76B5B5" d="M23,24H2c-0.552,0-1,0.448-1,1v21c0,0.552,0.448,1,1,1h21c0.552,0,1-0.448,1-1V25C24,24.448,23.552,24,23,24
	z"/>
</svg>
