<svg xmlns="http://www.w3.org/2000/svg" xmlns:xlink="http://www.w3.org/1999/xlink" x="0px" y="0px" width="48px" height="48px" viewBox="0 0 48 48"><g >
<path fill="#B3B3B3" d="M46,25H2c-0.553,0-1-0.447-1-1s0.447-1,1-1h44c0.553,0,1,0.447,1,1S46.553,25,46,25z"/>
<path fill="#72C472" d="M12,17h20c0.449,0,0.844-0.3,0.964-0.733c0.12-0.433-0.063-0.893-0.449-1.124l-20-12
	c-0.31-0.186-0.694-0.19-1.008-0.013S11,3.64,11,4v12C11,16.553,11.447,17,12,17z"/>
<path fill="#72C472" d="M32,31H12c-0.553,0-1,0.447-1,1v12c0,0.36,0.193,0.692,0.507,0.87C11.66,44.957,11.83,45,12,45
	c0.178,0,0.356-0.048,0.515-0.143l20-12c0.386-0.231,0.569-0.691,0.449-1.124C32.844,31.3,32.449,31,32,31z"/>
</g></svg>