<svg xmlns="http://www.w3.org/2000/svg" xmlns:xlink="http://www.w3.org/1999/xlink" x="0px" y="0px" width="48px" height="48px" viewBox="0 0 48 48"><g >
<path fill="#E6E6E6" d="M40.05,23.506L24.494,7.95c-0.391-0.391-0.391-1.024,0-1.414l4.95-4.95c0.781-0.781,2.047-0.781,2.828,0
	l14.142,14.142c0.781,0.781,0.781,2.047,0,2.828l-4.95,4.95C41.074,23.897,40.441,23.897,40.05,23.506z"/>
<path fill="#E6E6E6" d="M16.716,45.426L2.574,31.284c-0.781-0.781-0.781-2.047,0-2.828l4.95-4.95c0.391-0.391,1.024-0.391,1.414,0
	l15.556,15.556c0.391,0.391,0.391,1.024,0,1.414l-4.95,4.95C18.763,46.207,17.497,46.207,16.716,45.426z"/>
<path fill="#43A6DD" d="M23.787,41.184L6.816,24.213c-0.39-0.39-0.39-1.024,0-1.414L23.787,5.828c0.39-0.39,1.024-0.39,1.414,0
	l16.971,16.971c0.39,0.39,0.39,1.024,0,1.414L25.201,41.184C24.811,41.574,24.177,41.574,23.787,41.184z"/>
<rect x="15.362" y="14.824" transform="matrix(0.7071 0.7071 -0.7071 0.7071 19.1637 -5.617)" fill="#FFFFFF" width="2" height="11"/>
<path fill="#B3B3B3" d="M40,47H14c-0.552,0-1-0.448-1-1s0.448-1,1-1h26c0.552,0,1,0.448,1,1S40.552,47,40,47z"/>
</g></svg>