<svg xmlns="http://www.w3.org/2000/svg" xmlns:xlink="http://www.w3.org/1999/xlink" x="0px" y="0px" width="48px" height="48px" viewBox="0 0 48 48"><g >
<path fill="#B3B3B3" d="M24,47c-0.552,0-1-0.447-1-1V2c0-0.553,0.448-1,1-1s1,0.447,1,1v44C25,46.553,24.552,47,24,47z"/>
<path fill="#43A6DD" d="M38,27H10c-0.552,0-1,0.447-1,1v10c0,0.553,0.448,1,1,1h28c0.552,0,1-0.447,1-1V28
	C39,27.447,38.552,27,38,27z"/>
<path fill="#43A6DD" d="M16,21h16c0.552,0,1-0.447,1-1V10c0-0.553-0.448-1-1-1H16c-0.552,0-1,0.447-1,1v10
	C15,20.553,15.448,21,16,21z"/>
</g></svg>