<svg xmlns="http://www.w3.org/2000/svg" xmlns:xlink="http://www.w3.org/1999/xlink" x="0px" y="0px" width="48px" height="48px" viewBox="0 0 48 48"><g >
<path fill="#444444" d="M45,45H3c-1.105,0-2-0.895-2-2V5c0-1.105,0.895-2,2-2h42c1.105,0,2,0.895,2,2v38C47,44.105,46.105,45,45,45z
	"/>
<rect x="3" y="10" fill="#FFFFFF" width="42" height="33"/>
<circle fill="#E86C60" cx="4.5" cy="6.5" r="1.5"/>
<circle fill="#EFD358" cx="9.5" cy="6.5" r="1.5"/>
<circle fill="#72C472" cx="14.5" cy="6.5" r="1.5"/>
<path fill="#B3B3B3" d="M12,32.414l-4.707-4.707c-0.391-0.391-0.391-1.023,0-1.414L12,21.586L13.414,23l-4,4l4,4L12,32.414z"/>
<path fill="#B3B3B3" d="M36,32.414L34.586,31l4-4l-4-4L36,21.586l4.707,4.707c0.391,0.391,0.391,1.023,0,1.414L36,32.414z"/>
<path fill="#43A6DD" d="M28,38h-8c-0.552,0-1-0.447-1-1V17c0-0.553,0.448-1,1-1h8c0.552,0,1,0.447,1,1v20C29,37.553,28.552,38,28,38
	z"/>
</g></svg>