<svg xmlns="http://www.w3.org/2000/svg" xmlns:xlink="http://www.w3.org/1999/xlink" x="0px" y="0px" width="48px" height="48px" viewBox="0 0 48 48"><g >
<path fill="#335262" d="M44,7H20c-0.553,0-1,0.447-1,1s0.447,1,1,1h24c0.553,0,1-0.447,1-1S44.553,7,44,7z"/>
<path fill="#335262" d="M44,23H20c-0.553,0-1,0.447-1,1s0.447,1,1,1h24c0.553,0,1-0.447,1-1S44.553,23,44,23z"/>
<path fill="#335262" d="M44,39H20c-0.553,0-1,0.447-1,1s0.447,1,1,1h24c0.553,0,1-0.447,1-1S44.553,39,44,39z"/>
<circle fill="#72C472" cx="8" cy="8" r="5"/>
<circle fill="#72C472" cx="8" cy="24" r="5"/>
<circle fill="#72C472" cx="8" cy="40" r="5"/>
</g></svg>