<svg xmlns="http://www.w3.org/2000/svg" xmlns:xlink="http://www.w3.org/1999/xlink" x="0px" y="0px" width="48px" height="48px" viewBox="0 0 48 48"><g >
<path fill="#43A6DD" d="M14.957,38.043l-4-4c-0.391-0.391-1.023-0.391-1.414,0l-8,8c-0.245,0.245-0.346,0.6-0.266,0.937
	c0.08,0.337,0.328,0.609,0.657,0.719l6,2c0.104,0.035,0.21,0.051,0.316,0.051c0.261,0,0.517-0.103,0.707-0.293l6-6
	C15.348,39.066,15.348,38.434,14.957,38.043z"/>
<path fill="#444444" d="M46.457,13.543l-11-11c-0.391-0.391-1.023-0.391-1.414,0l-28,28c-0.391,0.391-0.391,1.023,0,1.414l11,11
	c0.195,0.195,0.451,0.293,0.707,0.293s0.512-0.098,0.707-0.293l28-28C46.848,14.566,46.848,13.934,46.457,13.543z"/>
<path fill="#43A6DD" d="M38.25,5.336L24.793,18.793c-0.391,0.391-0.391,1.024,0,1.414l4,4c0.391,0.391,1.024,0.391,1.414,0
	L43.664,10.75L38.25,5.336z"/>
</g></svg>