<svg xmlns="http://www.w3.org/2000/svg" xmlns:xlink="http://www.w3.org/1999/xlink" x="0px" y="0px" width="48px" height="48px" viewBox="0 0 48 48"><g >
<path fill="#E86C60" d="M44,13h-6c-0.552,0-1-0.448-1-1s0.448-1,1-1h6c0.552,0,1,0.448,1,1S44.553,13,44,13z"/>
<path fill="#E86C60" d="M36.486,21.485c-0.256,0-0.512-0.098-0.707-0.293l-4.243-4.243c-0.391-0.391-0.391-1.023,0-1.414
	s1.023-0.391,1.414,0l4.243,4.243c0.391,0.391,0.391,1.023,0,1.414C36.998,21.388,36.742,21.485,36.486,21.485z"/>
<path fill="#E86C60" d="M32.243,8.757c-0.256,0-0.512-0.098-0.707-0.293c-0.391-0.391-0.391-1.023,0-1.414l4.243-4.243
	c0.391-0.391,1.023-0.391,1.414,0s0.391,1.023,0,1.414L32.95,8.464C32.755,8.66,32.499,8.757,32.243,8.757z"/>
<path fill="#444444" d="M5,46c0,0.552,0.448,1,1,1h20c0.552,0,1-0.448,1-1V22c0-3.866-3.134-7-7-7h-8c-3.866,0-7,3.134-7,7V46z"/>
<path fill="#B3B3B3" d="M21,15H11c-0.552,0-1-0.448-1-1v0c0-0.552,0.448-1,1-1h10c0.552,0,1,0.448,1,1v0C22,14.552,21.552,15,21,15z
	"/>
<path fill="#606060" d="M20,5h-5c-2.209,0-4,1.791-4,4v4h10V6C21,5.448,20.552,5,20,5z"/>
<rect x="5" y="26" fill="#E86C60" width="22" height="14"/>
<path fill="#303030" d="M21,7c-1.105,0-2,0.895-2,2c0,1.105,0.895,2,2,2V7z"/>
</g></svg>