<svg xmlns="http://www.w3.org/2000/svg" xmlns:xlink="http://www.w3.org/1999/xlink" x="0px" y="0px" width="48px" height="48px" viewBox="0 0 48 48"><g >
<path fill="#444444" d="M45,45H3c-1.105,0-2-0.895-2-2V5c0-1.105,0.895-2,2-2h42c1.105,0,2,0.895,2,2v38C47,44.105,46.105,45,45,45z
	"/>
<rect x="3" y="10" fill="#FFFFFF" width="42" height="33"/>
<path fill="#B3B3B3" d="M41,21H7c-0.553,0-1-0.448-1-1v-6c0-0.552,0.447-1,1-1h34c0.553,0,1,0.448,1,1v6C42,20.552,41.553,21,41,21z
	 M8,19h32v-4H8V19z"/>
<path fill="#B3B3B3" d="M13,40H7c-0.553,0-1-0.448-1-1V25c0-0.552,0.447-1,1-1h6c0.553,0,1,0.448,1,1v14C14,39.552,13.553,40,13,40z
	 M8,38h4V26H8V38z"/>
<path fill="#B3B3B3" d="M40,40H18c-0.553,0-1-0.448-1-1V25c0-0.552,0.447-1,1-1h22c0.553,0,1,0.448,1,1v14
	C41,39.552,40.553,40,40,40z M19,38h20V26H19V38z"/>
<circle fill="#E86C60" cx="4.5" cy="6.5" r="1.5"/>
<circle fill="#EFD358" cx="9.5" cy="6.5" r="1.5"/>
<circle fill="#72C472" cx="14.5" cy="6.5" r="1.5"/>
</g></svg>