<?xml version="1.0" encoding="utf-8"?>
<!-- Generator: Adobe Illustrator 19.2.1, SVG Export Plug-In . SVG Version: 6.00 Build 0)  -->
<!DOCTYPE svg PUBLIC "-//W3C//DTD SVG 1.1//EN" "http://www.w3.org/Graphics/SVG/1.1/DTD/svg11.dtd">
<svg version="1.1" id="Layer_1" xmlns="http://www.w3.org/2000/svg" xmlns:xlink="http://www.w3.org/1999/xlink" x="0px" y="0px"
	 width="48px" height="48px" viewBox="0 0 48 48" enable-background="new 0 0 48 48" xml:space="preserve">
<path fill="#B3B3B3" d="M7,39H2c-0.552,0-1-0.447-1-1v-5h2v4h4V39z"/>
<path fill="#B3B3B3" d="M18,39h-5v-2h4v-4h2v5C19,38.553,18.552,39,18,39z"/>
<path fill="#B3B3B3" d="M19,15h-2v-4h-4V9h5c0.552,0,1,0.447,1,1V15z"/>
<path fill="#B3B3B3" d="M3,15H1v-5c0-0.553,0.448-1,1-1h5v2H3V15z"/>
<path fill="#72C472" d="M45,47H29c-1.105,0-2-0.895-2-2V3c0-1.105,0.895-2,2-2h16c1.105,0,2,0.895,2,2v42C47,46.105,46.105,47,45,47
	z"/>
<rect x="1" y="21" fill="#B3B3B3" width="2" height="6"/>
<rect x="17" y="21" fill="#B3B3B3" width="2" height="6"/>
</svg>
