<svg xmlns="http://www.w3.org/2000/svg" xmlns:xlink="http://www.w3.org/1999/xlink" x="0px" y="0px" width="48px" height="48px" viewBox="0 0 48 48"><g >
<path fill="#B3B3B3" d="M46,7H2C1.447,7,1,6.553,1,6s0.447-1,1-1h44c0.553,0,1,0.447,1,1S46.553,7,46,7z"/>
<path fill="#43A6DD" d="M38,13H28c-0.553,0-1,0.447-1,1v28c0,0.553,0.447,1,1,1h10c0.553,0,1-0.447,1-1V14
	C39,13.447,38.553,13,38,13z"/>
<path fill="#43A6DD" d="M20,13H10c-0.553,0-1,0.447-1,1v16c0,0.553,0.447,1,1,1h10c0.553,0,1-0.447,1-1V14
	C21,13.447,20.553,13,20,13z"/>
</g></svg>