<svg xmlns="http://www.w3.org/2000/svg" xmlns:xlink="http://www.w3.org/1999/xlink" x="0px" y="0px" width="48px" height="48px" viewBox="0 0 48 48"><g >
<path fill="#EAD8C5" d="M38,41H10c-1.657,0-3-1.343-3-3V10c0-1.657,1.343-3,3-3h28c1.657,0,3,1.343,3,3v28
	C41,39.657,39.657,41,38,41z"/>
<path fill="#C6A279" d="M24,11c-0.553,0-1-0.448-1-1V4c0-0.552,0.447-1,1-1s1,0.448,1,1v6C25,10.552,24.553,11,24,11z"/>
<path fill="#C6A279" d="M30,11c-0.553,0-1-0.448-1-1V4c0-0.552,0.447-1,1-1s1,0.448,1,1v6C31,10.552,30.553,11,30,11z"/>
<path fill="#C6A279" d="M18,11c-0.553,0-1-0.448-1-1V4c0-0.552,0.447-1,1-1s1,0.448,1,1v6C19,10.552,18.553,11,18,11z"/>
<path fill="#C6A279" d="M24,45c-0.553,0-1-0.448-1-1v-6c0-0.552,0.447-1,1-1s1,0.448,1,1v6C25,44.552,24.553,45,24,45z"/>
<path fill="#C6A279" d="M30,45c-0.553,0-1-0.448-1-1v-6c0-0.552,0.447-1,1-1s1,0.448,1,1v6C31,44.552,30.553,45,30,45z"/>
<path fill="#C6A279" d="M18,45c-0.553,0-1-0.448-1-1v-6c0-0.552,0.447-1,1-1s1,0.448,1,1v6C19,44.552,18.553,45,18,45z"/>
<path fill="#C6A279" d="M44,25h-6c-0.553,0-1-0.448-1-1s0.447-1,1-1h6c0.553,0,1,0.448,1,1S44.553,25,44,25z"/>
<path fill="#C6A279" d="M44,19h-6c-0.553,0-1-0.448-1-1s0.447-1,1-1h6c0.553,0,1,0.448,1,1S44.553,19,44,19z"/>
<path fill="#C6A279" d="M44,31h-6c-0.553,0-1-0.448-1-1s0.447-1,1-1h6c0.553,0,1,0.448,1,1S44.553,31,44,31z"/>
<path fill="#C6A279" d="M10,25H4c-0.553,0-1-0.448-1-1s0.447-1,1-1h6c0.553,0,1,0.448,1,1S10.553,25,10,25z"/>
<path fill="#C6A279" d="M10,19H4c-0.553,0-1-0.448-1-1s0.447-1,1-1h6c0.553,0,1,0.448,1,1S10.553,19,10,19z"/>
<path fill="#C6A279" d="M10,31H4c-0.553,0-1-0.448-1-1s0.447-1,1-1h6c0.553,0,1,0.448,1,1S10.553,31,10,31z"/>
</g></svg>