<?xml version="1.0" encoding="utf-8"?>
<!-- Generator: Adobe Illustrator 19.2.1, SVG Export Plug-In . SVG Version: 6.00 Build 0)  -->
<!DOCTYPE svg PUBLIC "-//W3C//DTD SVG 1.1//EN" "http://www.w3.org/Graphics/SVG/1.1/DTD/svg11.dtd">
<svg version="1.1" id="Layer_1" xmlns="http://www.w3.org/2000/svg" xmlns:xlink="http://www.w3.org/1999/xlink" x="0px" y="0px"
	 width="48px" height="48px" viewBox="0 0 48 48" enable-background="new 0 0 48 48" xml:space="preserve">
<path fill="#72C472" d="M45,33H17c-1.105,0-2-0.895-2-2V3c0-1.105,0.895-2,2-2h28c1.105,0,2,0.895,2,2v28C47,32.105,46.105,33,45,33
	z"/>
<path fill="#B3B3B3" d="M9,47H2c-0.552,0-1-0.448-1-1v-7h2v6h6V47z"/>
<path fill="#B3B3B3" d="M22,47h-7v-2h6v-6h2v7C23,46.552,22.552,47,22,47z"/>
<path fill="#B3B3B3" d="M1,33v-7c0-0.552,0.448-1,1-1h7v2H3v6H1z"/>
</svg>
