<?xml version="1.0" encoding="utf-8"?>
<!-- Generator: Adobe Illustrator 19.2.1, SVG Export Plug-In . SVG Version: 6.00 Build 0)  -->
<!DOCTYPE svg PUBLIC "-//W3C//DTD SVG 1.1//EN" "http://www.w3.org/Graphics/SVG/1.1/DTD/svg11.dtd">
<svg version="1.1" id="Layer_1" xmlns="http://www.w3.org/2000/svg" xmlns:xlink="http://www.w3.org/1999/xlink" x="0px" y="0px"
	 width="48px" height="48px" viewBox="0 0 48 48" enable-background="new 0 0 48 48" xml:space="preserve">
<path fill="#B3B3B3" d="M42,43H6c-0.553,0-1-0.448-1-1V6c0-0.552,0.447-1,1-1h36c0.553,0,1,0.448,1,1v36C43,42.552,42.553,43,42,43z
	 M7,41h34V7H7V41z"/>
<circle fill="#43A6DD" cx="24" cy="24" r="7"/>
<circle fill="#444444" cx="24" cy="6" r="5"/>
<circle fill="#E6E6E6" cx="24" cy="6" r="3"/>
<circle fill="#444444" cx="42" cy="6" r="5"/>
<circle fill="#E6E6E6" cx="42" cy="6" r="3"/>
<circle fill="#444444" cx="42" cy="42" r="5"/>
<circle fill="#E6E6E6" cx="42" cy="42" r="3"/>
<circle fill="#444444" cx="24" cy="42" r="5"/>
<circle fill="#E6E6E6" cx="24" cy="42" r="3"/>
<circle fill="#444444" cx="6" cy="42" r="5"/>
<circle fill="#E6E6E6" cx="6" cy="42" r="3"/>
<circle fill="#444444" cx="6" cy="24" r="5"/>
<circle fill="#E6E6E6" cx="6" cy="24" r="3"/>
<circle fill="#444444" cx="42" cy="24" r="5"/>
<circle fill="#E6E6E6" cx="42" cy="24" r="3"/>
<circle fill="#444444" cx="6" cy="6" r="5"/>
<circle fill="#E6E6E6" cx="6" cy="6" r="3"/>
</svg>
