<?xml version="1.0" encoding="utf-8"?>
<!-- Generator: Adobe Illustrator 19.2.1, SVG Export Plug-In . SVG Version: 6.00 Build 0)  -->
<!DOCTYPE svg PUBLIC "-//W3C//DTD SVG 1.1//EN" "http://www.w3.org/Graphics/SVG/1.1/DTD/svg11.dtd">
<svg version="1.1" id="Layer_1" xmlns="http://www.w3.org/2000/svg" xmlns:xlink="http://www.w3.org/1999/xlink" x="0px" y="0px"
	 width="48px" height="48px" viewBox="0 0 48 48" enable-background="new 0 0 48 48" xml:space="preserve">
<circle fill="#458BC4" cx="24" cy="23" r="22"/>
<path fill="#EA9860" d="M17.879,19.518c0.956-1.202,4.319-2.267,5.012-3.958c0.164-0.4,0.35-1.341-0.187-1.538
	c-0.891-0.214-3.008-0.22-3.79-0.214c-1.49,0.012-2.156-1.081-2.314-1.612c-0.157-0.531-0.464-1.797,3.066-4.708
	c-3.924-0.572-5.932,2.15-6.191,2.562c-2.114-0.525-3.908-0.398-5.408,0.082c-0.002-0.001-0.004-0.003-0.006-0.004
	C5.58,8.939,5.425,5.66,5.425,5.66s-3.145,2.529-2.374,8.293c-4.099,8.443-1.078,18.408,0.676,21.409
	C5.326,38.102,11.201,47,25.043,47s20.972-12.824,19.832-15.906c1.694-3.371,2.387-7.36,2.043-11.006
	c-0.803-8.508-8.741-14.192-8.741-14.192s0.097,0.545,0.243,1.707C36.324,5.34,34.596,4.18,31.68,4.18
	c4.005,2.887,7.835,10.81,7.523,17.467c-0.901-2.299-2.135-3.254-2.135-3.254c1.049,9.59-4.034,16.486-8.008,17.269
	c-2.974,0.586-8.52,0.342-12.088-3.839c2.218,0.543,5.225,0.312,7.018-0.928c1.083-0.75,2.288-1.781,3.442-1.727
	c0.899,0.042,1.437-0.673,0.765-1.443c-0.669-0.77-2.444-2.226-4.504-1.25c-5.654,2.678-9.426-1.281-8.773-3.602
	c0.421-1.498,1.822-1.254,2.846-0.315C17.766,22.558,18.294,20.937,17.879,19.518z"/>
</svg>
