<svg xmlns="http://www.w3.org/2000/svg" xmlns:xlink="http://www.w3.org/1999/xlink" x="0px" y="0px" width="48px" height="48px" viewBox="0 0 48 48"><g >
<path fill="#E86C60" d="M27.985,43.962c-0.125,0-0.25-0.023-0.372-0.072c-0.455-0.182-0.71-0.667-0.604-1.146l6.229-27.902
	c0.07-0.314,0.287-0.575,0.583-0.702c0.296-0.126,0.635-0.101,0.91,0.063l7.785,4.702c0.227,0.138,0.39,0.359,0.454,0.617
	c0.064,0.257,0.022,0.529-0.115,0.756l-14.015,23.2C28.656,43.786,28.327,43.962,27.985,43.962z"/>
<path fill="#EA9860" d="M28.012,41.688c-0.04,0-0.08-0.002-0.121-0.007c-0.501-0.061-0.879-0.485-0.88-0.99L26.91,6.439
	c-0.001-0.308,0.14-0.6,0.383-0.79c0.242-0.19,0.559-0.258,0.857-0.184l8.09,2.004c0.258,0.063,0.479,0.228,0.616,0.454
	c0.137,0.228,0.178,0.5,0.114,0.757l-7.989,32.248C28.87,41.38,28.465,41.688,28.012,41.688z"/>
<path fill="#EFD358" d="M29,2c0-0.553-0.448-1-1-1H10C9.448,1,9,1.447,9,2v31h20V2z"/>
<path fill="#E6E6E6" d="M10,47h18c0.552,0,1-0.447,1-1V33H9v13C9,46.553,9.448,47,10,47z"/>
<circle fill="#B3B3B3" cx="19" cy="40" r="3"/>
</g></svg>