<?xml version="1.0" encoding="utf-8"?>
<!-- Generator: Adobe Illustrator 19.2.1, SVG Export Plug-In . SVG Version: 6.00 Build 0)  -->
<!DOCTYPE svg PUBLIC "-//W3C//DTD SVG 1.1//EN" "http://www.w3.org/Graphics/SVG/1.1/DTD/svg11.dtd">
<svg version="1.1" id="Layer_1" xmlns="http://www.w3.org/2000/svg" xmlns:xlink="http://www.w3.org/1999/xlink" x="0px" y="0px"
	 width="48px" height="48px" viewBox="0 0 48 48" enable-background="new 0 0 48 48" xml:space="preserve">
<path sketch:type="MSShapeGroup" fill="#458BC4" d="M2.538,21.431C3.439,10.151,12.277,1,24.169,1c2.14,0,6.628,0.372,10.67,2.865
	c5.177,3.191,8.144,7.463,9.322,12.284C44.909,19.211,45,22.873,45,22.873V28H16c0,0-0.596,9.404,12.691,9.404
	c4.557,0,8.763-0.979,12.309-3.404v9.651c0,0-5.307,3.349-13.522,3.349c-7.839,0-13.249-3.114-16.339-7.635
	C8.497,35.5,7.885,32.846,7.885,28.701c0-7.784,4.868-13.921,11.21-16.492C17.353,14.24,16.295,16.439,16,19h16
	c0,0,0.708-9.208-9.002-9.208C14.556,9.792,6.679,15.022,2.538,21.431z"/>
</svg>
