<svg xmlns="http://www.w3.org/2000/svg" xmlns:xlink="http://www.w3.org/1999/xlink" x="0px" y="0px" width="48px" height="48px" viewBox="0 0 48 48"><g >
<path fill="#E86C60" d="M18,31c-0.256,0-0.512-0.098-0.707-0.293c-0.391-0.391-0.391-1.023,0-1.414l24-24
	c0.391-0.391,1.023-0.391,1.414,0s0.391,1.023,0,1.414l-24,24C18.512,30.902,18.256,31,18,31z"/>
<path fill="#595959" d="M45,36H13c-0.552,0-1-0.448-1-1V3c0-0.552,0.448-1,1-1h4c0.552,0,1,0.448,1,1v27h27c0.552,0,1,0.448,1,1v4
	C46,35.552,45.552,36,45,36z"/>
<path fill="#595959" d="M35,46h-4c-0.552,0-1-0.448-1-1V18H3c-0.552,0-1-0.448-1-1v-4c0-0.552,0.448-1,1-1h32c0.552,0,1,0.448,1,1
	v32C36,45.552,35.552,46,35,46z"/>
<rect x="12" y="18" fill="#444444" width="6" height="3"/>
<rect x="30" y="36" fill="#444444" width="6" height="3"/>
</g></svg>