<?xml version="1.0" encoding="utf-8"?>
<!-- Generator: Adobe Illustrator 19.2.1, SVG Export Plug-In . SVG Version: 6.00 Build 0)  -->
<!DOCTYPE svg PUBLIC "-//W3C//DTD SVG 1.1//EN" "http://www.w3.org/Graphics/SVG/1.1/DTD/svg11.dtd">
<svg version="1.1" id="Layer_1" xmlns="http://www.w3.org/2000/svg" xmlns:xlink="http://www.w3.org/1999/xlink" x="0px" y="0px"
	 width="48px" height="48px" viewBox="0 0 48 48" enable-background="new 0 0 48 48" xml:space="preserve">
<path fill="#43A6DD" d="M12,13H2c-0.552,0-1-0.448-1-1V2c0-0.552,0.448-1,1-1h10c0.552,0,1,0.448,1,1v10C13,12.552,12.552,13,12,13z
	"/>
<path fill="#43A6DD" d="M29,13H19c-0.552,0-1-0.448-1-1V2c0-0.552,0.448-1,1-1h10c0.552,0,1,0.448,1,1v10C30,12.552,29.552,13,29,13
	z"/>
<path fill="#43A6DD" d="M29,30H19c-0.552,0-1-0.448-1-1V19c0-0.552,0.448-1,1-1h10c0.552,0,1,0.448,1,1v10
	C30,29.552,29.552,30,29,30z"/>
<path fill="#B3B3B3" d="M27,45h-6c-0.552,0-1-0.448-1-1v-6c0-0.552,0.448-1,1-1h6c0.552,0,1,0.448,1,1v6C28,44.552,27.552,45,27,45z
	"/>
<path fill="#B3B3B3" d="M44,45h-6c-0.552,0-1-0.448-1-1v-6c0-0.552,0.448-1,1-1h6c0.552,0,1,0.448,1,1v6C45,44.552,44.552,45,44,45z
	"/>
<path fill="#B3B3B3" d="M44,28h-6c-0.552,0-1-0.448-1-1v-6c0-0.552,0.448-1,1-1h6c0.552,0,1,0.448,1,1v6C45,27.552,44.552,28,44,28z
	"/>
<path fill="#43A6DD" d="M46,13H36c-0.552,0-1-0.448-1-1V2c0-0.552,0.448-1,1-1h10c0.552,0,1,0.448,1,1v10C47,12.552,46.552,13,46,13
	z"/>
<path fill="#43A6DD" d="M12,30H2c-0.552,0-1-0.448-1-1V19c0-0.552,0.448-1,1-1h10c0.552,0,1,0.448,1,1v10C13,29.552,12.552,30,12,30
	z"/>
<path fill="#43A6DD" d="M12,47H2c-0.552,0-1-0.448-1-1V36c0-0.552,0.448-1,1-1h10c0.552,0,1,0.448,1,1v10C13,46.552,12.552,47,12,47
	z"/>
</svg>
