<svg xmlns="http://www.w3.org/2000/svg" xmlns:xlink="http://www.w3.org/1999/xlink" x="0px" y="0px" width="48px" height="48px" viewBox="0 0 48 48"><g >
<rect x="1" y="11" fill="#444444" width="5" height="2"/>
<rect x="1" y="35" fill="#444444" width="5" height="2"/>
<rect x="42" y="11" fill="#444444" width="5" height="2"/>
<rect x="42" y="35" fill="#444444" width="5" height="2"/>
<rect x="11" y="1" fill="#444444" width="2" height="5"/>
<rect x="35" y="1" fill="#444444" width="2" height="5"/>
<rect x="11" y="42" fill="#444444" width="2" height="5"/>
<rect x="35" y="42" fill="#444444" width="2" height="5"/>
<path fill="#B3B3B3" d="M37,38H11c-0.553,0-1-0.448-1-1V11c0-0.552,0.447-1,1-1h26c0.553,0,1,0.448,1,1v26
	C38,37.552,37.553,38,37,38z M12,36h24V12H12V36z"/>
<rect x="12" y="12" fill="#E6E6E6" width="6" height="6"/>
<rect x="18" y="12" fill="#FFFFFF" width="6" height="6"/>
<rect x="24" y="12" fill="#E6E6E6" width="6" height="6"/>
<rect x="30" y="12" fill="#FFFFFF" width="6" height="6"/>
<rect x="12" y="18" fill="#FFFFFF" width="6" height="6"/>
<rect x="18" y="18" fill="#E6E6E6" width="6" height="6"/>
<rect x="24" y="18" fill="#FFFFFF" width="6" height="6"/>
<rect x="30" y="18" fill="#E6E6E6" width="6" height="6"/>
<rect x="12" y="24" fill="#E6E6E6" width="6" height="6"/>
<rect x="18" y="24" fill="#FFFFFF" width="6" height="6"/>
<rect x="24" y="24" fill="#E6E6E6" width="6" height="6"/>
<rect x="30" y="24" fill="#FFFFFF" width="6" height="6"/>
<rect x="12" y="30" fill="#FFFFFF" width="6" height="6"/>
<rect x="18" y="30" fill="#E6E6E6" width="6" height="6"/>
<rect x="24" y="30" fill="#FFFFFF" width="6" height="6"/>
<rect x="30" y="30" fill="#E6E6E6" width="6" height="6"/>
</g></svg>