<svg xmlns="http://www.w3.org/2000/svg" xmlns:xlink="http://www.w3.org/1999/xlink" x="0px" y="0px" width="48px" height="48px" viewBox="0 0 48 48"><g >
<polygon fill="#444444" points="3,7 1,7 1,1 7,1 7,3 3,3 "/>
<polygon fill="#444444" points="7,39 1,39 1,33 3,33 3,37 7,37 "/>
<polygon fill="#444444" points="39,7 37,7 37,3 33,3 33,1 39,1 "/>
<rect x="12" y="1" fill="#444444" width="5" height="2"/>
<rect x="12" y="37" fill="#444444" width="5" height="2"/>
<rect x="23" y="1" fill="#444444" width="5" height="2"/>
<rect x="1" y="12" fill="#444444" width="2" height="5"/>
<rect x="37" y="12" fill="#444444" width="2" height="5"/>
<rect x="1" y="23" fill="#444444" width="2" height="5"/>
<polygon fill="#444444" points="43,25 20,20 25,43 30,34 40,44 44,40 34,30 "/>
<path fill="#E6E6E6" d="M40,45c-0.256,0-0.512-0.098-0.707-0.293l-9.062-9.062l-4.356,7.841c-0.201,0.363-0.594,0.569-1.021,0.503
	c-0.411-0.061-0.742-0.37-0.831-0.777l-5-23c-0.072-0.333,0.03-0.679,0.271-0.919c0.24-0.24,0.583-0.342,0.92-0.27l23,5
	c0.406,0.088,0.716,0.419,0.776,0.831s-0.14,0.818-0.504,1.02l-7.841,4.356l9.062,9.062c0.391,0.391,0.391,1.023,0,1.414l-4,4
	C40.512,44.902,40.256,45,40,45z M30,33c0.264,0,0.519,0.104,0.707,0.293L40,42.586L42.586,40l-9.293-9.293
	c-0.222-0.222-0.327-0.535-0.283-0.846c0.043-0.311,0.23-0.583,0.505-0.735l6.682-3.712l-18.889-4.106l4.106,18.888l3.712-6.682
	c0.152-0.274,0.425-0.461,0.735-0.504C29.907,33.003,29.954,33,30,33z"/>
</g></svg>