<svg xmlns="http://www.w3.org/2000/svg" xmlns:xlink="http://www.w3.org/1999/xlink" x="0px" y="0px" width="48px" height="48px" viewBox="0 0 48 48"><g >
<path fill="#B3B3B3" d="M30.5,11.5L10,32c0,0-1.268,4.001-2.001,4.001c-2.209,0-4,1.791-4,4c0,2.209,1.791,4,4,4s4-1.791,4-4
	C11.999,39.268,16,38,16,38l21-21L30.5,11.5z"/>
<path fill="#444444" d="M41.415,14l2.293-2.293c0.99-0.99,1.536-2.307,1.536-3.707c0-1.4-0.546-2.717-1.536-3.707
	c-0.99-0.99-2.307-1.536-3.707-1.536c-1.4,0-2.717,0.546-3.707,1.536L34,6.585l-3.293-3.293c-0.391-0.391-1.023-0.391-1.414,0l-4,4
	c-0.391,0.391-0.391,1.023,0,1.414l14,14C39.488,22.902,39.744,23,40,23s0.512-0.098,0.707-0.293l4-4
	c0.391-0.391,0.391-1.023,0-1.414L41.415,14z"/>
</g></svg>