<svg xmlns="http://www.w3.org/2000/svg" xmlns:xlink="http://www.w3.org/1999/xlink" x="0px" y="0px" width="48px" height="48px" viewBox="0 0 48 48"><g >
<path fill="#B3B3B3" d="M46,25H2c-0.553,0-1-0.447-1-1s0.447-1,1-1h44c0.553,0,1,0.447,1,1S46.553,25,46,25z"/>
<path fill="#43A6DD" d="M20,9H10c-0.553,0-1,0.447-1,1v28c0,0.553,0.447,1,1,1h10c0.553,0,1-0.447,1-1V10C21,9.447,20.553,9,20,9z"/>
<path fill="#43A6DD" d="M38,15H28c-0.553,0-1,0.447-1,1v16c0,0.553,0.447,1,1,1h10c0.553,0,1-0.447,1-1V16
	C39,15.447,38.553,15,38,15z"/>
</g></svg>