<svg xmlns="http://www.w3.org/2000/svg" xmlns:xlink="http://www.w3.org/1999/xlink" x="0px" y="0px" width="48px" height="48px" viewBox="0 0 48 48"><g >
<path fill="#EFD358" d="M37.707,22.293l-12-12c-0.286-0.286-0.715-0.371-1.088-0.218l-17,7c-0.324,0.133-0.554,0.427-0.607,0.773
	l-4,26c-0.048,0.314,0.056,0.634,0.281,0.859C3.482,44.896,3.737,45,4,45c0.05,0,0.102-0.004,0.152-0.012l26-4
	c0.346-0.053,0.64-0.284,0.773-0.607l7-17C38.079,23.007,37.993,22.578,37.707,22.293z"/>
<path fill="#444444" d="M44.707,20.293l-17-17c-0.391-0.391-1.023-0.391-1.414,0l-4.5,4.5c-0.391,0.391-0.391,1.023,0,1.414l17,17
	c0.195,0.195,0.451,0.293,0.707,0.293s0.512-0.098,0.707-0.293l4.5-4.5C45.098,21.316,45.098,20.684,44.707,20.293z"/>
<path fill="#B29930" d="M20.828,27.172c-1.562-1.562-4.095-1.562-5.657,0c-1.316,1.316-1.509,3.317-0.607,4.85L3.293,43.293
	c-0.391,0.391-0.391,1.023,0,1.414C3.488,44.902,3.744,45,4,45s0.512-0.098,0.707-0.293l11.272-11.272
	c1.533,0.902,3.533,0.709,4.85-0.607C22.391,31.266,22.391,28.734,20.828,27.172z"/>
</g></svg>