<?xml version="1.0" encoding="utf-8"?>
<!-- Generator: Adobe Illustrator 19.2.1, SVG Export Plug-In . SVG Version: 6.00 Build 0)  -->
<!DOCTYPE svg PUBLIC "-//W3C//DTD SVG 1.1//EN" "http://www.w3.org/Graphics/SVG/1.1/DTD/svg11.dtd">
<svg version="1.1" id="Layer_1" xmlns="http://www.w3.org/2000/svg" xmlns:xlink="http://www.w3.org/1999/xlink" x="0px" y="0px"
	 width="48px" height="48px" viewBox="0 0 48 48" enable-background="new 0 0 48 48" xml:space="preserve">
<path fill="#8680D8" d="M45,30H3c-1.105,0-2-0.895-2-2V3c0-1.105,0.895-2,2-2h42c1.105,0,2,0.895,2,2v25C47,29.105,46.105,30,45,30z
	"/>
<polygon fill="#444444" points="38,25 12,16 20,43 25,34 37,46 41,42 29,30 "/>
<path fill="#E6E6E6" d="M37,47c-0.256,0-0.512-0.098-0.707-0.293L25.23,35.645l-4.356,7.841c-0.195,0.351-0.579,0.548-0.983,0.508
	c-0.4-0.044-0.735-0.324-0.85-0.71l-8-27c-0.106-0.359-0.003-0.748,0.268-1.007c0.271-0.26,0.663-0.345,1.019-0.222l26,9
	c0.373,0.129,0.635,0.465,0.669,0.858s-0.166,0.77-0.511,0.961l-7.841,4.356l11.062,11.062c0.391,0.391,0.391,1.023,0,1.414l-4,4
	C37.512,46.902,37.256,47,37,47z M25,33c0.264,0,0.519,0.104,0.707,0.293L37,44.586L39.586,42L28.293,30.707
	c-0.222-0.222-0.327-0.535-0.283-0.846c0.043-0.311,0.23-0.583,0.505-0.735l7.043-3.913l-22.046-7.631l6.771,22.851l3.844-6.918
	c0.152-0.274,0.425-0.461,0.735-0.504C24.907,33.003,24.954,33,25,33z"/>
</svg>
