<svg xmlns="http://www.w3.org/2000/svg" xmlns:xlink="http://www.w3.org/1999/xlink" x="0px" y="0px" width="48px" height="48px" viewBox="0 0 48 48"><g >
<polygon fill="#9EDB9E" points="5,38 14,10 33,10 43,38 "/>
<path fill="#4DA34D" d="M43,39H5c-0.319,0-0.62-0.153-0.808-0.411c-0.188-0.258-0.242-0.591-0.144-0.895l9-28
	C13.181,9.28,13.565,9,14,9h19c0.423,0,0.8,0.266,0.942,0.664l10,28c0.109,0.306,0.063,0.646-0.125,0.913
	C43.63,38.842,43.325,39,43,39z M6.372,37h35.209l-9.286-26H14.729L6.372,37z"/>
<rect x="10" y="6" fill="#E6E6E6" width="8" height="8"/>
<path fill="#335262" d="M18,15h-8c-0.552,0-1-0.448-1-1V6c0-0.552,0.448-1,1-1h8c0.552,0,1,0.448,1,1v8C19,14.552,18.552,15,18,15z
	 M11,13h6V7h-6V13z"/>
<rect x="30" y="6" fill="#E6E6E6" width="8" height="8"/>
<path fill="#335262" d="M38,15h-8c-0.552,0-1-0.448-1-1V6c0-0.552,0.448-1,1-1h8c0.552,0,1,0.448,1,1v8C39,14.552,38.552,15,38,15z
	 M31,13h6V7h-6V13z"/>
<rect x="38" y="34" fill="#E6E6E6" width="8" height="8"/>
<path fill="#335262" d="M46,43h-8c-0.552,0-1-0.448-1-1v-8c0-0.552,0.448-1,1-1h8c0.552,0,1,0.448,1,1v8C47,42.552,46.552,43,46,43z
	 M39,41h6v-6h-6V41z"/>
<rect x="2" y="34" fill="#E6E6E6" width="8" height="8"/>
<path fill="#335262" d="M10,43H2c-0.552,0-1-0.448-1-1v-8c0-0.552,0.448-1,1-1h8c0.552,0,1,0.448,1,1v8C11,42.552,10.552,43,10,43z
	 M3,41h6v-6H3V41z"/>
</g></svg>