<?xml version="1.0" encoding="utf-8"?>
<!-- Generator: Adobe Illustrator 19.2.1, SVG Export Plug-In . SVG Version: 6.00 Build 0)  -->
<!DOCTYPE svg PUBLIC "-//W3C//DTD SVG 1.1//EN" "http://www.w3.org/Graphics/SVG/1.1/DTD/svg11.dtd">
<svg version="1.1" id="Layer_1" xmlns="http://www.w3.org/2000/svg" xmlns:xlink="http://www.w3.org/1999/xlink" x="0px" y="0px"
	 width="48px" height="48px" viewBox="0 0 48 48" enable-background="new 0 0 48 48" xml:space="preserve">
<path fill="#335262" d="M45,47H15c-1.105,0-2-0.895-2-2V14.881c0-1.105,0.895-2,2-2h30c1.105,0,2,0.895,2,2V45
	C47,46.105,46.105,47,45,47z"/>
<path fill="#5A7A84" d="M33,35H3c-1.105,0-2-0.895-2-2V2.881c0-1.105,0.895-2,2-2h30c1.105,0,2,0.895,2,2V33
	C35,34.105,34.105,35,33,35z"/>
</svg>
