<svg xmlns="http://www.w3.org/2000/svg" xmlns:xlink="http://www.w3.org/1999/xlink" x="0px" y="0px" width="48px" height="48px" viewBox="0 0 48 48"><g >
<rect x="16" y="2" fill="#9EDB9E" width="30" height="30"/>
<path fill="#4DA34D" d="M46,33H16c-0.552,0-1-0.447-1-1V2c0-0.553,0.448-1,1-1h30c0.552,0,1,0.447,1,1v30C47,32.553,46.552,33,46,33
	z M17,31h28V3H17V31z"/>
<rect x="2" y="16" fill="#FFFFFF" width="30" height="30"/>
<path fill="#B3B3B3" d="M32,47H2c-0.552,0-1-0.447-1-1V16c0-0.553,0.448-1,1-1h30c0.552,0,1,0.447,1,1v30C33,46.553,32.552,47,32,47
	z M3,45h28V17H3V45z"/>
</g></svg>