<svg xmlns="http://www.w3.org/2000/svg" xmlns:xlink="http://www.w3.org/1999/xlink" x="0px" y="0px" width="48px" height="48px" viewBox="0 0 48 48"><g >
<path fill="#B3B3B3" d="M24,47c-0.553,0-1-0.447-1-1V2c0-0.553,0.447-1,1-1s1,0.447,1,1v44C25,46.553,24.553,47,24,47z"/>
<path fill="#72C472" d="M16.267,15.036c-0.429-0.12-0.894,0.063-1.124,0.449l-12,20c-0.186,0.309-0.19,0.693-0.013,1.008
	C3.308,36.807,3.64,37,4,37h12c0.553,0,1-0.447,1-1V16C17,15.551,16.7,15.156,16.267,15.036z"/>
<path fill="#72C472" d="M32.857,15.485c-0.23-0.385-0.694-0.568-1.124-0.449C31.3,15.156,31,15.551,31,16v20c0,0.553,0.447,1,1,1h12
	c0.36,0,0.692-0.193,0.87-0.507c0.178-0.314,0.173-0.699-0.013-1.008L32.857,15.485z"/>
</g></svg>