<svg xmlns="http://www.w3.org/2000/svg" xmlns:xlink="http://www.w3.org/1999/xlink" x="0px" y="0px" width="48px" height="48px" viewBox="0 0 48 48"><g >
<path fill="#B3B3B3" d="M38,30h-4V18h4c4.411,0,8-3.589,8-8s-3.589-8-8-8s-8,3.589-8,8v4H18v-4c0-4.411-3.589-8-8-8s-8,3.589-8,8
	s3.589,8,8,8h4v12h-4c-4.411,0-8,3.589-8,8s3.589,8,8,8s8-3.589,8-8v-4h12v4c0,4.411,3.589,8,8,8s8-3.589,8-8S42.411,30,38,30z
	 M34,10c0-2.206,1.794-4,4-4s4,1.794,4,4s-1.794,4-4,4h-4V10z M6,10c0-2.206,1.794-4,4-4s4,1.794,4,4v4h-4C7.794,14,6,12.206,6,10z
	 M14,38c0,2.206-1.794,4-4,4s-4-1.794-4-4s1.794-4,4-4h4V38z M18,18h12v12H18V18z M38,42c-2.206,0-4-1.794-4-4v-4h4
	c2.206,0,4,1.794,4,4S40.206,42,38,42z"/>
</g></svg>