<svg xmlns="http://www.w3.org/2000/svg" xmlns:xlink="http://www.w3.org/1999/xlink" x="0px" y="0px" width="48px" height="48px" viewBox="0 0 48 48"><g >
<path fill="#335262" d="M44,7H20c-0.553,0-1,0.447-1,1s0.447,1,1,1h24c0.553,0,1-0.447,1-1S44.553,7,44,7z"/>
<path fill="#335262" d="M44,23H20c-0.553,0-1,0.447-1,1s0.447,1,1,1h24c0.553,0,1-0.447,1-1S44.553,23,44,23z"/>
<path fill="#335262" d="M44,39H20c-0.553,0-1,0.447-1,1s0.447,1,1,1h24c0.553,0,1-0.447,1-1S44.553,39,44,39z"/>
<path fill="#EF8EC3" d="M12,3H4C3.447,3,3,3.447,3,4v8c0,0.553,0.447,1,1,1h8c0.553,0,1-0.447,1-1V4C13,3.447,12.553,3,12,3z"/>
<path fill="#EF8EC3" d="M12,19H4c-0.553,0-1,0.447-1,1v8c0,0.553,0.447,1,1,1h8c0.553,0,1-0.447,1-1v-8C13,19.447,12.553,19,12,19z"/>
<path fill="#EF8EC3" d="M12,35H4c-0.553,0-1,0.447-1,1v8c0,0.553,0.447,1,1,1h8c0.553,0,1-0.447,1-1v-8C13,35.447,12.553,35,12,35z"/>
</g></svg>