<svg xmlns="http://www.w3.org/2000/svg" xmlns:xlink="http://www.w3.org/1999/xlink" x="0px" y="0px" width="48px" height="48px" viewBox="0 0 48 48"><g >
<path fill="#E6E6E6" d="M35.414,22l11.293-11.293c0.286-0.286,0.372-0.716,0.217-1.09C46.77,9.244,46.404,9,46,9H14
	c-0.266,0-0.52,0.105-0.707,0.293l-12,12C1.102,21.484,1.009,21.74,1.009,22H35.414z"/>
<path fill="#B3B3B3" d="M34,22h-1v16c0,0.404,0.243,0.769,0.617,0.924C33.741,38.975,33.871,39,34,39
	c0.26,0,0.516-0.102,0.707-0.293l12-12C46.895,26.52,47,26.265,47,26V10c0-0.27-0.116-0.517-0.299-0.701L34,22z"/>
<path fill="#CECECE" d="M34,22H1v16c0,0.552,0.447,1,1,1h32V22z"/>
</g></svg>