<svg xmlns="http://www.w3.org/2000/svg" xmlns:xlink="http://www.w3.org/1999/xlink" x="0px" y="0px" width="48px" height="48px" viewBox="0 0 48 48"><g >
<path fill="#EFD358" d="M42.707,43.293l-40-40C2.42,3.006,1.99,2.921,1.617,3.076C1.244,3.231,1,3.596,1,4v40c0,0.552,0.448,1,1,1
	h40c0.404,0,0.769-0.244,0.924-0.617C43.079,44.009,42.993,43.579,42.707,43.293z M22.924,36.383C22.769,36.756,22.404,37,22,37H12
	c-0.552,0-1-0.448-1-1V26c0-0.404,0.244-0.769,0.617-0.924c0.374-0.156,0.803-0.07,1.09,0.217l10,10
	C22.993,35.579,23.079,36.009,22.924,36.383z"/>
<rect x="1" y="20" fill="#CEB341" width="4" height="2"/>
<rect x="1" y="14" fill="#CEB341" width="4" height="2"/>
<rect x="1" y="26" fill="#CEB341" width="4" height="2"/>
<rect x="1" y="32" fill="#CEB341" width="4" height="2"/>
<rect x="1" y="38" fill="#CEB341" width="4" height="2"/>
</g></svg>