<?xml version="1.0" encoding="utf-8"?>
<!-- Generator: Adobe Illustrator 19.2.1, SVG Export Plug-In . SVG Version: 6.00 Build 0)  -->
<!DOCTYPE svg PUBLIC "-//W3C//DTD SVG 1.1//EN" "http://www.w3.org/Graphics/SVG/1.1/DTD/svg11.dtd">
<svg version="1.1" id="Layer_1" xmlns="http://www.w3.org/2000/svg" xmlns:xlink="http://www.w3.org/1999/xlink" x="0px" y="0px"
	 width="48px" height="48px" viewBox="0 0 48 48" enable-background="new 0 0 48 48" xml:space="preserve">
<path fill="#72C472" d="M8.5,31L8.5,31C7.119,31,6,29.881,6,28.5v-11C6,16.119,7.119,15,8.5,15h0c1.381,0,2.5,1.119,2.5,2.5v11
	C11,29.881,9.881,31,8.5,31z"/>
<path fill="#72C472" d="M39.5,31L39.5,31c-1.381,0-2.5-1.119-2.5-2.5v-11c0-1.381,1.119-2.5,2.5-2.5h0c1.381,0,2.5,1.119,2.5,2.5v11
	C42,29.881,40.881,31,39.5,31z"/>
<path fill="#72C472" d="M12,15v21c0,1.105,0.895,2,2,2h2v6.5c0,1.381,1.119,2.5,2.5,2.5c1.381,0,2.5-1.119,2.5-2.5V38h6v6.5
	c0,1.381,1.119,2.5,2.5,2.5c1.381,0,2.5-1.119,2.5-2.5V38h2c1.105,0,2-0.895,2-2V15H12z"/>
<path fill="#72C472" d="M29.864,4.544l2.041-2.659c0.168-0.219,0.127-0.533-0.092-0.701c-0.219-0.17-0.533-0.126-0.701,0.092
	l-2.155,2.807C27.445,3.395,25.771,3,24,3s-3.445,0.395-4.957,1.084l-2.155-2.807c-0.167-0.218-0.48-0.259-0.701-0.092
	c-0.219,0.168-0.26,0.482-0.092,0.701l2.041,2.659C14.757,6.447,12.387,9.931,12.05,14H35.95
	C35.613,9.931,33.243,6.447,29.864,4.544z"/>
<circle fill="#FFFFFF" cx="18.5" cy="8.5" r="1.5"/>
<circle fill="#FFFFFF" cx="29.5" cy="8.5" r="1.5"/>
</svg>
