<svg xmlns="http://www.w3.org/2000/svg" xmlns:xlink="http://www.w3.org/1999/xlink" x="0px" y="0px" width="48px" height="48px" viewBox="0 0 48 48"><g >
<polygon fill="#9EDB9E" points="6,38 24,8 42,38 "/>
<path fill="#4DA34D" d="M42,39H6c-0.36,0-0.692-0.194-0.87-0.507s-0.173-0.698,0.013-1.007l18-30c0.361-0.603,1.354-0.603,1.715,0
	l18,30c0.186,0.309,0.19,0.694,0.013,1.007S42.36,39,42,39z M7.767,37h32.467L24,9.944L7.767,37z"/>
<rect x="20" y="4" fill="#E6E6E6" width="8" height="8"/>
<path fill="#335262" d="M28,13h-8c-0.553,0-1-0.448-1-1V4c0-0.552,0.447-1,1-1h8c0.553,0,1,0.448,1,1v8C29,12.552,28.553,13,28,13z
	 M21,11h6V5h-6V11z"/>
<rect x="38" y="34" fill="#E6E6E6" width="8" height="8"/>
<path fill="#335262" d="M46,43h-8c-0.553,0-1-0.448-1-1v-8c0-0.552,0.447-1,1-1h8c0.553,0,1,0.448,1,1v8C47,42.552,46.553,43,46,43z
	 M39,41h6v-6h-6V41z"/>
<rect x="2" y="34" fill="#E6E6E6" width="8" height="8"/>
<path fill="#335262" d="M10,43H2c-0.553,0-1-0.448-1-1v-8c0-0.552,0.447-1,1-1h8c0.553,0,1,0.448,1,1v8C11,42.552,10.553,43,10,43z
	 M3,41h6v-6H3V41z"/>
</g></svg>