<svg xmlns="http://www.w3.org/2000/svg" xmlns:xlink="http://www.w3.org/1999/xlink" x="0px" y="0px" width="48px" height="48px" viewBox="0 0 48 48"><g >
<path fill="#B3B3B3" d="M34,47H14c-2.757,0-5-2.243-5-5V6c0-2.757,2.243-5,5-5h20c2.757,0,5,2.243,5,5v36C39,44.757,36.757,47,34,47
	z"/>
<rect x="9" y="7" fill="#444444" width="30" height="32"/>
<path fill="#BADEFC" d="M36,37H12c-0.552,0-1-0.448-1-1V10c0-0.552,0.448-1,1-1h24c0.552,0,1,0.448,1,1v26
	C37,36.552,36.552,37,36,37z"/>
<circle fill="#444444" cx="24" cy="4" r="1"/>
<circle fill="#969696" cx="24" cy="43" r="2"/>
</g></svg>