<?xml version="1.0" encoding="utf-8"?>
<!-- Generator: Adobe Illustrator 19.2.1, SVG Export Plug-In . SVG Version: 6.00 Build 0)  -->
<!DOCTYPE svg PUBLIC "-//W3C//DTD SVG 1.1//EN" "http://www.w3.org/Graphics/SVG/1.1/DTD/svg11.dtd">
<svg version="1.1" id="Layer_1" xmlns="http://www.w3.org/2000/svg" xmlns:xlink="http://www.w3.org/1999/xlink" x="0px" y="0px"
	 width="48px" height="48px" viewBox="0 0 48 48" enable-background="new 0 0 48 48" xml:space="preserve">
<path fill="#E86C60" d="M38,28c-4.962,0-9-4.038-9-9s4.038-9,9-9s9,4.038,9,9S42.962,28,38,28z"/>
<path fill="#B3B3B3" d="M25.974,22.672c-0.181-0.521-0.749-0.799-1.272-0.618c-4.017,1.39-8.057,4.982-10.179,10.45
	c-1.31-10.959-5.334-18.469-12.019-22.369c-0.478-0.278-1.09-0.117-1.368,0.36c-0.278,0.477-0.117,1.089,0.36,1.368
	C9.129,16.317,13,26.12,13,41c0,0.552,0.448,1,1,1s1-0.448,1-1c0-9.305,5.201-15.271,10.356-17.056
	C25.878,23.764,26.154,23.194,25.974,22.672z"/>
</svg>
