<svg xmlns="http://www.w3.org/2000/svg" xmlns:xlink="http://www.w3.org/1999/xlink" x="0px" y="0px" width="48px" height="48px" viewBox="0 0 48 48"><g >
<path fill="#444444" d="M28,46h-8c-5.523,0-10-4.477-10-10V12c0-5.523,4.477-10,10-10h8c5.523,0,10,4.477,10,10v24
	C38,41.523,33.523,46,28,46z"/>
<path fill="#444444" d="M28,47h-8c-6.065,0-11-4.935-11-11V12C9,5.935,13.935,1,20,1h8c6.065,0,11,4.935,11,11v24
	C39,42.065,34.065,47,28,47z M20,3c-4.963,0-9,4.038-9,9v24c0,4.962,4.037,9,9,9h8c4.963,0,9-4.038,9-9V12c0-4.962-4.037-9-9-9H20z"/>
<path fill="#606060" d="M23,3h-3c-4.971,0-9,4.029-9,9v3c0,4.971,4.029,9,9,9h3V3z"/>
<path fill="#606060" d="M25,3h3c4.971,0,9,4.029,9,9v3c0,4.971-4.029,9-9,9h-3V3z"/>
<path fill="#72C472" d="M24,17L24,17c-1.105,0-2-0.895-2-2v-3c0-1.105,0.895-2,2-2h0c1.105,0,2,0.895,2,2v3
	C26,16.105,25.105,17,24,17z"/>
</g></svg>