<?xml version="1.0" encoding="utf-8"?>
<!-- Generator: Adobe Illustrator 19.2.1, SVG Export Plug-In . SVG Version: 6.00 Build 0)  -->
<!DOCTYPE svg PUBLIC "-//W3C//DTD SVG 1.1//EN" "http://www.w3.org/Graphics/SVG/1.1/DTD/svg11.dtd">
<svg version="1.1" id="Layer_1" xmlns="http://www.w3.org/2000/svg" xmlns:xlink="http://www.w3.org/1999/xlink" x="0px" y="0px"
	 width="48px" height="48px" viewBox="0 0 48 48" enable-background="new 0 0 48 48" xml:space="preserve">
<path fill="#FFFFFF" d="M1,24c0,12.682,10.318,23,23,23s23-10.318,23-23S36.682,1,24,1S1,11.318,1,24z"/>
<path fill="#E86C60" d="M14.077,22.812C14.667,17.857,18.889,14,24,14h20.709C40.983,6.313,33.101,1,24,1
	C16.887,1,10.518,4.247,6.296,9.335L14.077,22.812z"/>
<circle fill="#43A6DD" cx="24" cy="24" r="8"/>
<path fill="#72C472" d="M27.93,33.193C26.722,33.711,25.395,34,24,34c-3.694,0-6.919-2.019-8.65-5.006L15.34,29L4.989,11.071
	C2.474,14.758,1,19.21,1,24c0,11.37,8.294,20.833,19.148,22.671L27.93,33.193z"/>
<path fill="#EFD358" d="M29.974,16C32.412,17.825,34,20.727,34,24c0,1.82-0.497,3.523-1.35,4.994L32.66,29L22.308,46.931
	C22.867,46.972,23.43,47,24,47c12.683,0,23-10.317,23-23c0-2.812-0.509-5.507-1.437-8H29.974z"/>
</svg>
