<svg xmlns="http://www.w3.org/2000/svg" xmlns:xlink="http://www.w3.org/1999/xlink" x="0px" y="0px" width="48px" height="48px" viewBox="0 0 48 48"><g >
<polygon fill="#223E49" points="8.183,44.183 7,41 3.817,39.817 2.725,45.275 "/>
<polygon fill="#EAD8C5" points="14.493,42.921 12,35.708 5.079,33.507 3.817,39.817 8.183,44.183 "/>
<path fill="#335262" d="M34.586,4l-5.293,5.293L33,15l5.707,3.707L44,13.414c0.781-0.781,0.781-2.047,0-2.828L37.414,4
	C36.633,3.219,35.367,3.219,34.586,4z"/>
<rect x="2.917" y="20.218" transform="matrix(0.7071 -0.7071 0.7071 0.7071 -11.2804 21.2734)" fill="#E86C60" width="34.244" height="8.071"/>
<rect x="7.125" y="25.132" transform="matrix(0.7071 -0.7071 0.7071 0.7071 -13.0231 25.4808)" fill="#DD5E58" width="34.244" height="6.657"/>
<rect x="33" y="7.343" transform="matrix(0.7071 -0.7071 0.7071 0.7071 0.0589 28.1421)" fill="#E6E6E6" width="2" height="13.314"/>
</g></svg>