<?xml version="1.0" encoding="utf-8"?>
<!-- Generator: Adobe Illustrator 19.2.1, SVG Export Plug-In . SVG Version: 6.00 Build 0)  -->
<!DOCTYPE svg PUBLIC "-//W3C//DTD SVG 1.1//EN" "http://www.w3.org/Graphics/SVG/1.1/DTD/svg11.dtd">
<svg version="1.1" id="Layer_1" xmlns="http://www.w3.org/2000/svg" xmlns:xlink="http://www.w3.org/1999/xlink" x="0px" y="0px"
	 width="48px" height="48px" viewBox="0 0 48 48" enable-background="new 0 0 48 48" xml:space="preserve">
<path fill="#A67C52" d="M42,7c-2.757,0-5-2.243-5-5c0-0.552-0.447-1-1-1H12c-0.553,0-1,0.448-1,1c0,2.757-2.243,5-5,5
	C5.447,7,5,7.448,5,8v32c0,0.552,0.447,1,1,1c2.757,0,5,2.243,5,5c0,0.552,0.447,1,1,1h24c0.553,0,1-0.448,1-1c0-2.757,2.243-5,5-5
	c0.553,0,1-0.448,1-1V8C43,7.448,42.553,7,42,7z M24,41c-7.168,0-13-7.626-13-17S16.832,7,24,7s13,7.626,13,17S31.168,41,24,41z"/>
<path fill="#C19F85" d="M12.929,45c-0.439-3.061-2.867-5.489-5.929-5.929V8.929c3.062-0.44,5.489-2.868,5.929-5.929h22.143
	C35.511,6.061,37.938,8.489,41,8.929v30.143c-3.062,0.44-5.489,2.868-5.929,5.929H12.929z"/>
<path fill="#E6E6E6" d="M24,41c-7.168,0-13-7.626-13-17S16.832,7,24,7s13,7.626,13,17S31.168,41,24,41z"/>
</svg>
