<svg xmlns="http://www.w3.org/2000/svg" xmlns:xlink="http://www.w3.org/1999/xlink" x="0px" y="0px" width="48px" height="48px" viewBox="0 0 48 48"><g >
<path fill="#A67C52" d="M45,45H3c-1.105,0-2-0.895-2-2V9c0-1.105,0.895-2,2-2h42c1.105,0,2,0.895,2,2v34C47,44.105,46.105,45,45,45z
	"/>
<path fill="#87613E" d="M24,40c0,0-4.82-1.896-17-1.996C6.45,38,6,37.556,6,37.006V6c12.917,0,18,2,18,2V40z"/>
<path fill="#87613E" d="M24,40c0,0,4.82-1.896,17-1.996c0.55-0.004,1-0.448,1-0.999V6C29.083,6,24,8,24,8V40z"/>
<path fill="#EFD358" d="M24,39c0,0-6.72-3.795-19.006-3.992C4.447,34.999,4,34.56,4,34.013v-30c0-0.557,0.463-1.014,1.02-1.004
	C17.289,3.21,24,7,24,7V39z"/>
<path fill="#E2C447" d="M24,39c0,0,6.72-3.795,19.006-3.992C43.553,34.999,44,34.56,44,34.013v-30c0-0.557-0.463-1.014-1.02-1.004
	C30.711,3.21,24,7,24,7V39z"/>
</g></svg>