<svg xmlns="http://www.w3.org/2000/svg" xmlns:xlink="http://www.w3.org/1999/xlink" x="0px" y="0px" width="48px" height="48px" viewBox="0 0 48 48"><g >
<path fill="#43A6DD" d="M46,9H2c-0.553,0-1,0.448-1,1v32c0,0.552,0.447,1,1,1h44c0.553,0,1-0.448,1-1V10C47,9.448,46.553,9,46,9z
	 M18.581,41c1.593-1.638,3.774-4.349,5.141-8h10.666c-0.844,4.539-2.32,7.116-2.905,8H18.581z M24.345,31
	C24.747,29.463,25,27.799,25,26s-0.253-3.463-0.655-5h10.346C34.881,22.498,35,24.156,35,26c0,1.847-0.118,3.504-0.306,5H24.345z
	 M3,21h19.263C22.716,22.524,23,24.194,23,26s-0.284,3.476-0.737,5H3V21z M31.479,11c0.587,0.898,2.057,3.492,2.902,8H23.723
	c-1.367-3.651-3.548-6.362-5.141-8H31.479z M36.706,21H45v10h-8.291C36.887,29.488,37,27.835,37,26
	C37,24.167,36.886,22.513,36.706,21z M45,19h-8.581c-0.671-3.844-1.787-6.475-2.611-8H45V19z M15.645,11
	c0.873,0.727,4,3.562,5.888,8H3v-8H15.645z M3,33h18.533c-1.888,4.438-5.015,7.273-5.888,8H3V33z M33.818,41
	c0.826-1.522,1.939-4.148,2.606-8H45v8H33.818z"/>
</g></svg>