<?xml version="1.0" encoding="utf-8"?>
<!-- Generator: Adobe Illustrator 19.2.1, SVG Export Plug-In . SVG Version: 6.00 Build 0)  -->
<!DOCTYPE svg PUBLIC "-//W3C//DTD SVG 1.1//EN" "http://www.w3.org/Graphics/SVG/1.1/DTD/svg11.dtd">
<svg version="1.1" id="Layer_1" xmlns="http://www.w3.org/2000/svg" xmlns:xlink="http://www.w3.org/1999/xlink" x="0px" y="0px"
	 width="48px" height="48px" viewBox="0 0 48 48" enable-background="new 0 0 48 48" xml:space="preserve">
<path fill="#335262" d="M8,41h14c0.404,0,0.769-0.244,0.924-0.617c0.155-0.374,0.069-0.804-0.217-1.09l-5.586-5.586l9-9
	c0.391-0.391,0.391-1.024,0-1.414l-1.414-1.414c-0.391-0.391-1.024-0.391-1.414,0l-9,9l-5.586-5.586C8.516,25.102,8.26,25,8,25
	c-0.129,0-0.259,0.025-0.383,0.076C7.244,25.231,7,25.596,7,26v14C7,40.552,7.448,41,8,41z"/>
<path fill="#E6E6E6" d="M2,1h44c0.552,0,1,0.448,1,1v44c0,0.552-0.448,1-1,1H2c-0.552,0-1-0.448-1-1V2C1,1.448,1.448,1,2,1z M45,3H3
	v42h42V3z"/>
<path fill="#76B5B5" d="M30,1h16c0.552,0,1,0.448,1,1v16c0,0.552-0.448,1-1,1H30c-0.552,0-1-0.448-1-1V2C29,1.448,29.448,1,30,1z"/>
</svg>
