<?xml version="1.0" encoding="utf-8"?>
<!-- Generator: Adobe Illustrator 19.1.0, SVG Export Plug-In . SVG Version: 6.00 Build 0)  -->
<!DOCTYPE svg PUBLIC "-//W3C//DTD SVG 1.1//EN" "http://www.w3.org/Graphics/SVG/1.1/DTD/svg11.dtd">
<svg version="1.1" id="Layer_1" xmlns="http://www.w3.org/2000/svg" xmlns:xlink="http://www.w3.org/1999/xlink" x="0px" y="0px"
	 width="64px" height="64px" viewBox="0 0 64 64" enable-background="new 0 0 64 64" xml:space="preserve">
<path d="M51.50586,4.00879c-0.94434-0.94434-2.19971-1.46484-3.53564-1.46484c-1.33545,0-2.59082,0.52051-3.53516,1.46484
	L14.73682,33.70703c-2.64209,2.64258-2.89551,5.86621-3.09912,8.45703c-0.14307,1.82129-0.26709,3.39453-1.14355,4.27148
	l-7.07178,7.07031c-1.16895,1.16992-1.16895,3.07324,0.00049,4.24316l2.82812,2.82812
	c0.56689,0.56641,1.32031,0.87891,2.12158,0.87891s1.55469-0.3125,2.12109-0.87891l7.07129-7.07129
	c0.86523-0.86523,2.40186-0.97461,4.18066-1.10156c2.59375-0.18457,5.82129-0.41504,8.54736-3.14062l8.242-8.242
	C40.15338,43.41986,42.89557,45,46,45c4.9624,0,9-4.03711,9-9c0-3.10474-1.58051-5.84686-3.9787-7.46521l8.96991-8.97034
	c0.94434-0.94434,1.46436-2.19922,1.46436-3.53516s-0.52002-2.59082-1.46436-3.53516L51.50586,4.00879z M21.60352,50.40918
	c-2.08789,0.14941-4.06006,0.29004-5.45264,1.68262L9.0791,59.16309c-0.37695,0.37891-1.03564,0.37891-1.41357,0L4.8374,56.33496
	c-0.39014-0.38965-0.39014-1.02539-0.00049-1.41504l7.07129-7.07031c1.39844-1.39844,1.55615-3.40527,1.72314-5.5293
	c0.17352-2.20758,0.35803-4.47949,1.86212-6.44257L28.1236,48.50836C26.10095,50.08099,23.81952,50.2514,21.60352,50.40918z M53,36
	c0,3.85938-3.14014,7-7,7s-7-3.14062-7-7s3.14014-7,7-7S53,32.14062,53,36z M58.57715,18.15039l-9.42865,9.42914
	C48.16675,27.21112,47.10876,27,46,27c-4.9624,0-9,4.03711-9,9c0,1.10895,0.21118,2.16705,0.57965,3.14886l-7.99371,7.99371
	L16.85791,34.41406L45.84912,5.42285c1.13379-1.13281,3.10889-1.13281,4.24268,0l8.48535,8.48535
	c0.56641,0.56641,0.87842,1.31934,0.87842,2.12109S59.14355,17.58398,58.57715,18.15039z"/>
</svg>
