<?xml version="1.0" encoding="utf-8"?>
<!-- Generator: Adobe Illustrator 19.1.0, SVG Export Plug-In . SVG Version: 6.00 Build 0)  -->
<!DOCTYPE svg PUBLIC "-//W3C//DTD SVG 1.1//EN" "http://www.w3.org/Graphics/SVG/1.1/DTD/svg11.dtd">
<svg version="1.1" id="Layer_1" xmlns="http://www.w3.org/2000/svg" xmlns:xlink="http://www.w3.org/1999/xlink" x="0px" y="0px"
	 width="64px" height="64px" viewBox="0 0 64 64" enable-background="new 0 0 64 64" xml:space="preserve">
<path d="M56.74902,7.25098c-5.84961-5.84863-15.36621-5.84668-21.21387,0l-0.70679,0.70728l-2.12134-2.12134
	c-0.39062-0.39062-1.02344-0.39062-1.41406,0l-8.48535,8.48535c-0.39062,0.39062-0.39062,1.02344,0,1.41406l2.12109,2.12109
	l-7.07129,7.07129l-2.12109-2.12109c-0.39062-0.39062-1.02344-0.39062-1.41406,0l-8.48535,8.48535
	c-0.39062,0.39062-0.39062,1.02344,0,1.41406l2.12134,2.12134l-0.70728,0.70679c-5.84766,5.84863-5.84766,15.36523,0,21.21387
	c2.9248,2.92383,6.76562,4.38574,10.60645,4.38574c3.8418,0,7.68359-1.46191,10.60742-4.38574l0.70679-0.70728l2.12134,2.12134
	C31.48828,58.3584,31.74414,58.45605,32,58.45605s0.51172-0.09766,0.70703-0.29297l8.48535-8.48535
	c0.39062-0.39062,0.39062-1.02344,0-1.41406l-2.12109-2.12109l7.07129-7.07129l2.12109,2.12109
	c0.19531,0.19531,0.45117,0.29297,0.70703,0.29297s0.51172-0.09766,0.70703-0.29297l8.48535-8.48535
	c0.39062-0.39062,0.39062-1.02344,0-1.41406l-2.12134-2.12134l0.70728-0.70679
	C62.59668,22.61621,62.59668,13.09961,56.74902,7.25098z M32,7.95801l2.11914,2.11914
	c0.00085,0.00085,0.0011,0.00208,0.00195,0.00293s0.00208,0.0011,0.00293,0.00195l2.11914,2.11914l-3.5332,3.5332
	c-0.00085,0.00085-0.00208,0.0011-0.00293,0.00195s-0.0011,0.00208-0.00195,0.00293l-3.5332,3.5332l-4.24316-4.24316L32,7.95801z
	 M15.0293,24.92871l4.24316,4.24316l-3.5332,3.5332c-0.00085,0.00085-0.00208,0.0011-0.00293,0.00195
	s-0.0011,0.00208-0.00195,0.00293l-3.5332,3.5332l-2.11914-2.11914c-0.00085-0.00085-0.0011-0.00208-0.00195-0.00293
	S10.078,34.12,10.07715,34.11914L7.95801,32L15.0293,24.92871z M27.05078,55.33496c-5.06934,5.06641-13.31641,5.06738-18.38574,0
	c-5.06836-5.06934-5.06836-13.31641,0-18.38574l0.70728-0.70679l2.12183,2.12183c0.19531,0.19531,0.45117,0.29297,0.70703,0.29297
	s0.51172-0.09766,0.70703-0.29297l3.53564-3.53564l12.72754,12.72754l-3.53564,3.53564c-0.39062,0.39062-0.39062,1.02344,0,1.41406
	l2.12183,2.12183L27.05078,55.33496z M32,56.04199l-2.11914-2.11914c-0.00085-0.00085-0.0011-0.00208-0.00195-0.00293
	s-0.00208-0.0011-0.00293-0.00195l-2.11914-2.11914l3.5332-3.5332c0.00085-0.00085,0.00208-0.0011,0.00293-0.00195
	s0.0011-0.00208,0.00195-0.00293l3.5332-3.5332l4.24316,4.24316L32,56.04199z M37.65723,44.72852l-2.12207-2.12207
	c-0.39062-0.39062-1.02344-0.39062-1.41406,0l-3.53564,3.53564L17.85791,33.41455l3.53564-3.53564
	c0.39062-0.39062,0.39062-1.02344,0-1.41406l-2.12207-2.12207l7.07129-7.07129l2.12207,2.12207
	c0.19531,0.19531,0.45117,0.29297,0.70703,0.29297s0.51172-0.09766,0.70703-0.29297l3.53564-3.53564l12.72754,12.72754
	l-3.53564,3.53564c-0.39062,0.39062-0.39062,1.02344,0,1.41406l2.12207,2.12207L37.65723,44.72852z M48.9707,39.07129
	l-4.24316-4.24316l3.5332-3.5332c0.00085-0.00085,0.00208-0.0011,0.00293-0.00195s0.0011-0.00208,0.00195-0.00293l3.5332-3.5332
	l2.11914,2.11914c0.00085,0.00085,0.0011,0.00208,0.00195,0.00293s0.00208,0.0011,0.00293,0.00195L56.04199,32L48.9707,39.07129z
	 M52.50586,25.63574c-0.39062-0.39062-1.02344-0.39062-1.41406,0l-3.53564,3.53564L34.82861,16.44385l3.53564-3.53564
	c0.39062-0.39062,0.39062-1.02344,0-1.41406l-2.12183-2.12183l0.70679-0.70728c5.06836-5.06738,13.31543-5.06836,18.38574,0
	c5.06836,5.06934,5.06836,13.31641,0,18.38574l-0.70728,0.70679L52.50586,25.63574z"/>
</svg>
