<?xml version="1.0" encoding="utf-8"?>
<!-- Generator: Adobe Illustrator 19.1.0, SVG Export Plug-In . SVG Version: 6.00 Build 0)  -->
<!DOCTYPE svg PUBLIC "-//W3C//DTD SVG 1.1//EN" "http://www.w3.org/Graphics/SVG/1.1/DTD/svg11.dtd">
<svg version="1.1" id="Layer_1" xmlns="http://www.w3.org/2000/svg" xmlns:xlink="http://www.w3.org/1999/xlink" x="0px" y="0px"
	 width="64px" height="64px" viewBox="0 0 64 64" enable-background="new 0 0 64 64" xml:space="preserve">
<path d="M60,9H48c-0.55225,0-1,0.44727-1,1v3c0,0.19727,0.05859,0.39062,0.16797,0.55469L49,16.30273v11.39551l-1.83203,2.74707
	C47.05859,30.60938,47,30.80273,47,31v3c0,0.55273,0.44775,1,1,1h5v16c0,5.51367-4.48584,10-10,10s-10-4.48633-10-10V13
	c0-6.61719-5.3833-12-12-12S9,6.38281,9,13v16H4c-0.55225,0-1,0.44727-1,1v3c0,0.19727,0.05859,0.39062,0.16797,0.55469L5,36.30273
	v11.39551l-1.83203,2.74707C3.05859,50.60938,3,50.80273,3,51v3c0,0.55273,0.44775,1,1,1h12c0.55225,0,1-0.44727,1-1v-3
	c0-0.19727-0.05859-0.39062-0.16797-0.55469L15,47.69824V36.30273l1.83203-2.74805C16.94141,33.39062,17,33.19727,17,33v-3
	c0-0.55273-0.44775-1-1-1h-5V13c0-5.51367,4.48584-10,10-10s10,4.48633,10,10v38c0,6.61719,5.3833,12,12,12s12-5.38281,12-12V35h5
	c0.55225,0,1-0.44727,1-1v-3c0-0.19727-0.05859-0.39062-0.16797-0.55469L59,27.69824V16.30273l1.83203-2.74805
	C60.94141,13.39062,61,13.19727,61,13v-3C61,9.44727,60.55225,9,60,9z M15,32.69727l-1.83203,2.74805
	C13.05859,35.60938,13,35.80273,13,36v12.00098c0,0.19727,0.05859,0.39062,0.16797,0.55469L15,51.30273V53H5v-1.69727
	l1.83203-2.74707C6.94141,48.3916,7,48.19824,7,48.00098V36c0-0.19727-0.05859-0.39062-0.16797-0.55469L5,32.69727V31h10V32.69727z
	 M59,12.69727l-1.83203,2.74805C57.05859,15.60938,57,15.80273,57,16v12.00098c0,0.19727,0.05859,0.39062,0.16797,0.55469
	L59,31.30273V33H49v-1.69727l1.83203-2.74707C50.94141,28.3916,51,28.19824,51,28.00098V16
	c0-0.19727-0.05859-0.39062-0.16797-0.55469L49,12.69727V11h10V12.69727z"/>
</svg>
