<?xml version="1.0" encoding="utf-8"?>
<!-- Generator: Adobe Illustrator 19.1.0, SVG Export Plug-In . SVG Version: 6.00 Build 0)  -->
<!DOCTYPE svg PUBLIC "-//W3C//DTD SVG 1.1//EN" "http://www.w3.org/Graphics/SVG/1.1/DTD/svg11.dtd">
<svg version="1.1" id="Layer_1" xmlns="http://www.w3.org/2000/svg" xmlns:xlink="http://www.w3.org/1999/xlink" x="0px" y="0px"
	 width="64px" height="64px" viewBox="0 0 64 64" enable-background="new 0 0 64 64" xml:space="preserve">
<path d="M31.41992,1.00537C14.3623,1.31738,1,14.93164,1,32v16c0,8.13086,6.70312,15,14.63672,15h24.54492
	C52.76367,63,63,52.76367,63,40.18164V32c0-8.3877-3.29688-16.24414-9.28223-22.12109
	C47.7334,4.00293,39.84277,0.86035,31.41992,1.00537z M3,32c0-2.41876,0.29108-4.7616,0.83331-7h31.84247
	c1.62695,0,3.10547,0.75684,4.05664,2.07666c0.9502,1.31982,1.20117,2.96143,0.68652,4.50439l-4.45508,13.36719
	C35.55371,46.17578,34.41016,47,33.11719,47H3V32z M61,40.18164C61,51.66113,51.66113,61,40.18164,61H15.63672
	C9.11456,61,3.56757,55.59979,3.05096,49h30.06622c2.15527,0,4.06152-1.37402,4.74316-3.41895l4.45508-13.36719
	c0.7207-2.16016,0.37012-4.4585-0.96094-6.30615C40.02344,24.05957,37.95312,23,35.67578,23H4.39716
	C8.07397,11.49463,18.64844,3.23938,31.45703,3.00537c7.83984-0.13184,15.26074,2.8042,20.85938,8.30029
	C57.91602,16.8042,61,24.15332,61,32V40.18164z"/>
</svg>
