<?xml version="1.0" encoding="utf-8"?>
<!-- Generator: Adobe Illustrator 19.1.0, SVG Export Plug-In . SVG Version: 6.00 Build 0)  -->
<!DOCTYPE svg PUBLIC "-//W3C//DTD SVG 1.1//EN" "http://www.w3.org/Graphics/SVG/1.1/DTD/svg11.dtd">
<svg version="1.1" id="Layer_1" xmlns="http://www.w3.org/2000/svg" xmlns:xlink="http://www.w3.org/1999/xlink" x="0px" y="0px"
	 width="64px" height="64px" viewBox="0 0 64 64" enable-background="new 0 0 64 64" xml:space="preserve">
<path d="M62,5H2C1.44775,5,1,5.44775,1,6v8c0,0.55225,0.44775,1,1,1h5.09064l3.91376,41.09473
	c0.03662,0.38135,0.2876,0.7085,0.64648,0.84229C11.76416,56.97949,11.88281,57,12,57c0.25293,0,0.50098-0.09619,0.69043-0.27686
	L22,47.83673l9.30957,8.88641C31.50293,56.90771,31.75146,57,32,57s0.49707-0.09229,0.69043-0.27686L42,47.83673l9.30957,8.88641
	C51.49902,56.9043,51.74707,57,52,57c0.11719,0,0.23584-0.02051,0.34912-0.06299c0.35889-0.13379,0.60986-0.46094,0.64648-0.84229
	L56.90936,15H62c0.55225,0,1-0.44775,1-1V6C63,5.44775,62.55225,5,62,5z M9.24988,16.57526l9.30212,8.87927l-7.75177,7.39941
	L9.24988,16.57526z M20,26.83673l10.552,10.07239l-8.55194,8.16327L11.448,35L20,26.83673z M21.448,25.45459L32,15.3822
	l10.552,10.07239L32,35.52698L21.448,25.45459z M44,26.83673L52.552,35L41.99994,45.07239L33.448,36.90912L44,26.83673z
	 M53.19977,32.85394L45.448,25.45453l9.30212-8.87927L53.19977,32.85394z M44,24.07239L34.49561,15h19.00879L44,24.07239z
	 M20,24.07239L10.49561,15h19.00879L20,24.07239z M12.80029,53.854l-1.55035-16.27869l9.30212,8.87927L12.80029,53.854z
	 M32,54.61768l-8.55194-8.16315L32,38.29126l8.55194,8.16327L32,54.61768z M51.19971,53.854l-7.75177-7.39941l9.30212-8.87927
	L51.19971,53.854z M61,13h-4.97595c-0.00043,0-0.00085,0-0.00128,0H32.02405c-0.00043,0-0.00085,0-0.00128,0H3V7h58V13z"/>
</svg>
