<?xml version="1.0" encoding="utf-8"?>
<!-- Generator: Adobe Illustrator 19.1.0, SVG Export Plug-In . SVG Version: 6.00 Build 0)  -->
<!DOCTYPE svg PUBLIC "-//W3C//DTD SVG 1.1//EN" "http://www.w3.org/Graphics/SVG/1.1/DTD/svg11.dtd">
<svg version="1.1" id="Layer_1" xmlns="http://www.w3.org/2000/svg" xmlns:xlink="http://www.w3.org/1999/xlink" x="0px" y="0px"
	 width="64px" height="64px" viewBox="0 0 64 64" enable-background="new 0 0 64 64" xml:space="preserve">
<path d="M32,3c-3.85938,0-7,3.14062-7,7s3.14062,7,7,7s7-3.14062,7-7S35.85938,3,32,3z M32,15c-2.75684,0-5-2.24316-5-5
	s2.24316-5,5-5s5,2.24316,5,5S34.75684,15,32,15z"/>
<path d="M46.57422,35.57812h0.00098c1.5332,0.76758,3.5166,0.41309,4.69043-0.8252l6.63672-7
	c0.73535-0.77637,1.125-1.79102,1.09668-2.85938s-0.47168-2.06055-1.24707-2.7959c-0.77734-0.73633-1.81641-1.11719-2.85938-1.09668
	c-1.06836,0.02832-2.06055,0.47168-2.79492,1.24609L47.5,27.09668l-12.49121-6.24707
	c-0.87988-0.43945-1.87305-0.68164-2.87598-0.70117c-0.07227-0.00781-0.15234-0.01172-0.25879,0
	c-1.00488,0.01855-2.00098,0.26074-2.88281,0.70117L16.5,27.09668l-4.59766-4.84863
	c-0.73438-0.77539-1.72754-1.21875-2.79492-1.24707c-1.06055-0.01953-2.08398,0.36035-2.85938,1.09668
	c-0.77539,0.73535-1.21875,1.72754-1.24707,2.7959s0.36133,2.08301,1.09668,2.85938l6.63672,7
	c1.21875,1.28516,3.10449,1.61719,4.69141,0.8252L28,30.29004V44H14c-2.20605,0-4,1.79395-4,4s1.79395,4,4,4h36
	c2.20605,0,4-1.79395,4-4s-1.79395-4-4-4H36V30.29004L46.57422,35.57812z M35,46h15c1.10254,0,2,0.89746,2,2s-0.89746,2-2,2H14
	c-1.10254,0-2-0.89746-2-2s0.89746-2,2-2h15c0.55273,0,1-0.44727,1-1V28.67188c0-0.34668-0.17969-0.66895-0.47461-0.85059
	c-0.29492-0.18457-0.66309-0.19824-0.97266-0.04395l-12.02051,6.01172c-0.79492,0.39551-1.7373,0.23047-2.34668-0.41309l-6.63672-7
	c-0.36816-0.3877-0.5625-0.89551-0.54785-1.42969c0.01367-0.5332,0.23535-1.03027,0.62305-1.39746
	C8.01074,23.18164,8.5,22.99902,9.05371,23c0.53418,0.01465,1.03027,0.23535,1.39746,0.62402l5.10742,5.38672
	c0.30371,0.32031,0.7793,0.40332,1.17285,0.20605l13.1543-6.57812c0.62598-0.31348,1.33789-0.4834,2.08887-0.49219
	c0.00684,0,0.0166-0.00098,0.02637-0.00195c0.02051,0.00195,0.04004,0.00293,0.05469,0.00293
	c0.7207,0.00781,1.43262,0.17773,2.05859,0.49121l13.1543,6.57812c0.39258,0.19727,0.87012,0.11426,1.17285-0.20605l5.10742-5.3877
	c0.36719-0.3877,0.86328-0.6084,1.39648-0.62305c0.56738-0.00195,1.04297,0.18164,1.43066,0.54883s0.60938,0.86426,0.62305,1.39746
	c0.01465,0.53418-0.17969,1.04199-0.54785,1.42969l-6.63672,7.00098c-0.59082,0.62109-1.57227,0.79688-2.34668,0.41211
	l-12.02051-6.01172c-0.30957-0.1543-0.67871-0.13965-0.97266,0.04395C34.17969,28.00293,34,28.3252,34,28.67188V45
	C34,45.55273,34.44727,46,35,46z"/>
<path d="M62,57H2c-0.55273,0-1,0.44727-1,1s0.44727,1,1,1h60c0.55273,0,1-0.44727,1-1S62.55273,57,62,57z"/>
</svg>
