<?xml version="1.0" encoding="utf-8"?>
<!-- Generator: Adobe Illustrator 19.1.0, SVG Export Plug-In . SVG Version: 6.00 Build 0)  -->
<!DOCTYPE svg PUBLIC "-//W3C//DTD SVG 1.1//EN" "http://www.w3.org/Graphics/SVG/1.1/DTD/svg11.dtd">
<svg version="1.1" id="Layer_1" xmlns="http://www.w3.org/2000/svg" xmlns:xlink="http://www.w3.org/1999/xlink" x="0px" y="0px"
	 width="64px" height="64px" viewBox="0 0 64 64" enable-background="new 0 0 64 64" xml:space="preserve">
<path d="M11.47168,57.24805c0.94189,0.94238,2.2124,1.46484,3.53418,1.46484c0.12695,0,0.25488-0.00488,0.38281-0.01465
	c1.45654-0.11182,2.78711-0.85107,3.65088-2.02881l6.81787-9.29736c5.05383,2.38391,11.10229,2.54608,16.65625,0.54816
	c0.04034-0.01276,0.07892-0.02411,0.11768-0.04205c1.02252-0.37396,2.02484-0.82928,3.00372-1.34979
	c1.63007,1.6322,3.88159,2.64349,6.36493,2.64349c4.9624,0,9-4.0376,9-9c0-2.95105-1.43433-5.56689-3.63544-7.20923
	c2.78748-7.87482,1.10242-16.40045-4.41241-21.91479c-8.18799-8.18701-22.14404-7.55322-31.1123,1.41406
	c-2.58246,2.58246-4.49011,5.62897-5.68427,8.8559c-0.03864,0.07172-0.06616,0.14355-0.086,0.22089
	c-1.96863,5.48492-1.86639,11.47455,0.55835,16.60388l-9.29736,6.81787c-1.17773,0.86377-1.91699,2.19434-2.02881,3.65088
	c-0.11133,1.45654,0.41748,2.88428,1.4502,3.91699L11.47168,57.24805z M59,40.17188c0,3.85986-3.14014,7-7,7s-7-3.14014-7-7
	s3.14014-7,7-7S59,36.31201,59,40.17188z M23.25391,13.87598c3.979-3.979,9.12207-6.31055,14.48242-6.56592
	c5.33008-0.25244,10.22607,1.57617,13.80176,5.15186c4.88434,4.88434,6.42444,12.42377,4.07031,19.47083
	c-1.1059-0.48633-2.32495-0.76086-3.6084-0.76086c-4.9624,0-9,4.0376-9,9c0,1.74945,0.50983,3.37848,1.37701,4.76166
	c-0.63208,0.323-1.27576,0.60913-1.92731,0.86627L18.20978,21.55988C19.31482,18.76758,21,16.12988,23.25391,13.87598z
	 M8.51318,46.57373l9.97754-7.31689c0.3999-0.29346,0.52441-0.83545,0.29297-1.27344
	c-2.29889-4.3526-2.65692-9.48035-1.29285-14.31433l22.84619,22.84619c-4.88898,1.36871-10.05151,0.95538-14.31995-1.29895
	c-0.43945-0.23145-0.98047-0.10693-1.27393,0.29297l-7.31689,9.97754c-0.51807,0.70654-1.31641,1.15039-2.18994,1.21729
	c-0.87988,0.06787-1.73047-0.25049-2.35059-0.87012l-4.71973-4.71973c-0.61963-0.61963-0.93652-1.47656-0.87012-2.35059
	C7.36279,47.89014,7.80664,47.0918,8.51318,46.57373z"/>
</svg>
