<?xml version="1.0" encoding="utf-8"?>
<!-- Generator: Adobe Illustrator 19.1.0, SVG Export Plug-In . SVG Version: 6.00 Build 0)  -->
<!DOCTYPE svg PUBLIC "-//W3C//DTD SVG 1.1//EN" "http://www.w3.org/Graphics/SVG/1.1/DTD/svg11.dtd">
<svg version="1.1" id="Layer_1" xmlns="http://www.w3.org/2000/svg" xmlns:xlink="http://www.w3.org/1999/xlink" x="0px" y="0px"
	 width="64px" height="64px" viewBox="0 0 64 64" enable-background="new 0 0 64 64" xml:space="preserve">
<path d="M43,12c0-3.85938-3.14062-7-7-7s-7,3.14062-7,7s3.14062,7,7,7S43,15.85938,43,12z M31,12c0-2.75684,2.24316-5,5-5
	s5,2.24316,5,5s-2.24316,5-5,5S31,14.75684,31,12z"/>
<path d="M23,54v8c0,0.55273,0.44727,1,1,1s1-0.44727,1-1v-8c0-0.55273-0.44727-1-1-1S23,53.44727,23,54z"/>
<path d="M25,14V2c0-0.55273-0.44727-1-1-1s-1,0.44727-1,1v12c0,0.55273,0.44727,1,1,1S25,14.55273,25,14z"/>
<path d="M19.94336,36.50391c-1.71387-0.95117-3.84277-0.53223-5.06738,0.99707l-8,10
	c-0.66699,0.83496-0.96973,1.87891-0.85156,2.94141c0.11816,1.06152,0.64258,2.01367,1.47656,2.68066
	C8.20703,53.68848,9.09375,54,9.99805,54c1.22266,0,2.36133-0.54688,3.12598-1.50098l5.8877-7.36133l9.10254,5.05664
	c2.50488,1.3916,5.47363,1.35645,7.94238-0.09766C38.52637,48.64355,40,46.06641,40,43.20215V30h9v8c0,2.20605,1.79395,4,4,4
	s4-1.79395,4-4V26c0-2.20605-1.79395-4-4-4H19v-6c0-2.20605-1.79395-4-4-4s-4,1.79395-4,4v10c0,2.20605,1.79395,4,4,4h17v13.20215
	L19.94336,36.50391z M33,28H15c-1.10254,0-2-0.89746-2-2V16c0-1.10254,0.89746-2,2-2s2,0.89746,2,2v7c0,0.55273,0.44727,1,1,1h35
	c1.10254,0,2,0.89746,2,2v12c0,1.10254-0.89746,2-2,2s-2-0.89746-2-2v-9c0-0.55273-0.44727-1-1-1H39c-0.55273,0-1,0.44727-1,1
	v14.20215c0,2.14844-1.10547,4.08105-2.95703,5.1709c-1.85352,1.08984-4.0791,1.11719-5.95703,0.07324l-9.8418-5.4668
	c-0.4248-0.23633-0.96094-0.13086-1.2666,0.24902l-6.41504,8.02051c-0.66992,0.83398-1.97754,0.98242-2.81152,0.3125
	c-0.41797-0.33301-0.67969-0.80957-0.73926-1.34082c-0.05859-0.53027,0.09277-1.05273,0.42676-1.46973l8-10.00098
	c0.3916-0.48926,0.96875-0.75195,1.55859-0.75195c0.33105,0,0.66602,0.08301,0.97461,0.25391L31.0293,44.9502
	c0.62891,0.35059,1.37305,0.33887,1.98438-0.02441C33.64062,44.55762,34,43.92969,34,43.20215V29C34,28.44727,33.55273,28,33,28z"/>
</svg>
