<?xml version="1.0" encoding="utf-8"?>
<!-- Generator: Adobe Illustrator 19.1.0, SVG Export Plug-In . SVG Version: 6.00 Build 0)  -->
<!DOCTYPE svg PUBLIC "-//W3C//DTD SVG 1.1//EN" "http://www.w3.org/Graphics/SVG/1.1/DTD/svg11.dtd">
<svg version="1.1" id="Layer_1" xmlns="http://www.w3.org/2000/svg" xmlns:xlink="http://www.w3.org/1999/xlink" x="0px" y="0px"
	 width="64px" height="64px" viewBox="0 0 64 64" enable-background="new 0 0 64 64" xml:space="preserve">
<path d="M30.58594,32l-6.62177,6.62177c-4.83252-4.10858-12.10907-3.89093-16.6712,0.6712
	c-0.39062,0.39062-0.39062,1.02344,0,1.41406L14.58594,48L3.29297,59.29297c-0.21875,0.21826-0.32373,0.52588-0.28516,0.83252
	c0.03857,0.30615,0.21729,0.57764,0.48291,0.73535c0.17432,0.10303,2.93604,1.7041,6.10645,1.7041
	c1.67773,0,3.4707-0.44873,5.05371-1.80566c2.86377-2.45471,3.05695-6.89429,2.79688-9.89746l5.84521,5.84521
	C23.48828,56.90234,23.74414,57,24,57s0.51172-0.09766,0.70703-0.29297c4.56262-4.56262,4.78027-11.83832,0.6712-16.6712
	L32,33.41406l6.62177,6.62177c-4.10907,4.83289-3.89142,12.10858,0.6712,16.6712C39.48828,56.90234,39.74414,57,40,57
	s0.51172-0.09766,0.70703-0.29297l5.84521-5.84521c-0.26007,3.00317-0.06689,7.44275,2.79688,9.89746
	c1.5835,1.35693,3.37598,1.80566,5.05371,1.80566c3.16992,0,5.93213-1.60107,6.10645-1.7041
	c0.26562-0.15771,0.44434-0.4292,0.48291-0.73535c0.03857-0.30664-0.06641-0.61426-0.28516-0.83252L49.41406,48l7.29297-7.29297
	c0.39062-0.39062,0.39062-1.02344,0-1.41406c-4.56213-4.56213-11.83868-4.77979-16.6712-0.6712L33.41406,32L62.70703,2.70703
	c0.39062-0.39062,0.39062-1.02344,0-1.41406s-1.02344-0.39062-1.41406,0L32,30.58594L2.70703,1.29297
	c-0.39062-0.39062-1.02344-0.39062-1.41406,0s-0.39062,1.02344,0,1.41406L30.58594,32z M13.34912,59.24072
	c-2.47266,2.11963-5.86426,1.19336-7.64258,0.4668l9.64307-9.64258C15.68311,52.59424,15.85352,57.09424,13.34912,59.24072z
	 M23.96582,54.55176L9.44824,40.03418c4.04736-3.33496,10.0625-3.10986,13.84473,0.67285
	C27.07568,44.48975,27.2998,50.50439,23.96582,54.55176z M50.65088,59.24072c-2.49756-2.14062-2.32959-6.64209-1.99854-9.17383
	l9.64404,9.64355C56.52246,60.44043,53.13525,61.37061,50.65088,59.24072z M54.55176,40.03418L40.03418,54.55176
	c-3.33398-4.04736-3.10986-10.06201,0.67285-13.84473c2.01074-2.01074,4.65186-3.01611,7.29297-3.01611
	C50.32764,37.69092,52.65576,38.47217,54.55176,40.03418z"/>
</svg>
