<?xml version="1.0" encoding="utf-8"?>
<!-- Generator: Adobe Illustrator 19.1.0, SVG Export Plug-In . SVG Version: 6.00 Build 0)  -->
<!DOCTYPE svg PUBLIC "-//W3C//DTD SVG 1.1//EN" "http://www.w3.org/Graphics/SVG/1.1/DTD/svg11.dtd">
<svg version="1.1" id="Layer_1" xmlns="http://www.w3.org/2000/svg" xmlns:xlink="http://www.w3.org/1999/xlink" x="0px" y="0px"
	 width="64px" height="64px" viewBox="0 0 64 64" enable-background="new 0 0 64 64" xml:space="preserve">
<path d="M11.91119,52.88507c0.04553,0.05682,0.09833,0.10217,0.15515,0.14795C17.2674,57.96478,24.28375,61,32,61
	c15.33276,0,27.91644-11.96344,28.9267-27.04425c0.00342-0.02295,0.0033-0.04492,0.00519-0.06805
	C60.97229,33.26294,61,32.63477,61,32C61,16.00977,47.99072,3,32,3c-6.51221,0-12.5293,2.15851-17.37518,5.79645
	c-0.00787,0.00763-0.0177,0.01202-0.02533,0.0199C7.56079,14.11261,3,22.53326,3,32C3,40.19727,6.42444,47.60553,11.91119,52.88507z
	 M6.04651,39.42474c2.67322,0.79041,5.39972,1.21198,8.13513,1.21198c8.16632,0,14.74988-4.61981,18.1416-7.59003
	c3.03015,0.37073,7.69073,1.36761,11.94159,4.01575c-4.77063,9.22186-11.88678,14.78967-31.14264,14.216
	C9.82385,48.04803,7.35217,43.98132,6.04651,39.42474z M16.14819,10.1629c3.89935-2.83844,8.58295-4.65619,13.66028-5.06635
	c-1.29883,2.4657-2.24677,5.05627-2.78259,7.73743c-1.55737,7.78687,1.46356,14.97003,3.69849,18.95441
	c-2.31415,1.98114-6.03168,4.60974-10.61517,5.96082C13.39972,29.23254,13.70624,16.7052,16.14819,10.1629z M54.83203,46.38477
	c-1.19257-2.5152-2.69464-4.82526-4.51611-6.86133c-5.42346-6.06354-13.21515-7.8999-17.69885-8.45551
	c-1.51416-2.64154-3.48486-6.92786-3.92389-11.86792c9.57147-1.96649,18.47809,0.02423,30.216,14.91638
	C58.55945,38.60059,57.112,42.77905,54.83203,46.38477z M32,59c-6.22974,0-11.96881-2.12653-16.54254-5.68414
	c0.06482,0.00018,0.13525,0.00348,0.19977,0.00348c18.16711,0,25.48755-6.01434,30.26782-15.11603
	c1.01935,0.7713,1.99872,1.64581,2.90063,2.65411c1.94543,2.17542,3.50824,4.68396,4.67938,7.44446
	C48.5697,54.79657,40.7677,59,32,59z M58.97473,31.00439c-8.46991-10.26752-17.17712-16.35956-30.37109-13.8219
	c0.00269-1.29175,0.11493-2.61462,0.38318-3.95593c0.57294-2.8656,1.64447-5.62524,3.15393-8.22296
	C46.63013,5.07837,58.44995,16.6236,58.97473,31.00439z M13.39087,12.46539c-1.59485,6.89417-1.42169,17.57495,4.59949,25.79694
	c-1.22314,0.23334-2.49274,0.37439-3.80872,0.37439c-2.92303,0-5.83948-0.50964-8.68207-1.48102C5.17529,35.48578,5,33.76331,5,32
	C5,24.32123,8.2276,17.38635,13.39087,12.46539z"/>
</svg>
