<?xml version="1.0" encoding="utf-8"?>
<!-- Generator: Adobe Illustrator 19.1.0, SVG Export Plug-In . SVG Version: 6.00 Build 0)  -->
<!DOCTYPE svg PUBLIC "-//W3C//DTD SVG 1.1//EN" "http://www.w3.org/Graphics/SVG/1.1/DTD/svg11.dtd">
<svg version="1.1" id="Layer_1" xmlns="http://www.w3.org/2000/svg" xmlns:xlink="http://www.w3.org/1999/xlink" x="0px" y="0px"
	 width="64px" height="64px" viewBox="0 0 64 64" enable-background="new 0 0 64 64" xml:space="preserve">
<path d="M9.27539,13.9624C7.85059,14.88867,7,16.45605,7,18.15527V24c0,2.75684,2.24316,5,5,5h13v10H12c-0.55225,0-1,0.44727-1,1v8
	c0,0.55273,0.44775,1,1,1h5v13c0,0.55273,0.44775,1,1,1s1-0.44727,1-1V49h22v13c0,0.55273,0.44775,1,1,1s1-0.44727,1-1V49h5
	c0.55225,0,1-0.44727,1-1v-8c0-0.55273-0.44775-1-1-1H35V21h17c2.75684,0,5-2.24316,5-5V6.21191
	c0-1.70752-0.85693-3.2793-2.29297-4.20361c-1.43555-0.9248-3.22119-1.05566-4.77588-0.34814L35.93066,8.02393
	C34.15039,8.8335,33,10.62012,33,12.57568V20v19h-6V28v-5.40039c0-1.97363-1.16553-3.76709-2.96924-4.56885l-10-4.44434
	C12.47852,12.89648,10.70068,13.03711,9.27539,13.9624z M35,12.57568c0-1.17334,0.69043-2.24561,1.7583-2.73145l14-6.36377
	c0.94678-0.43066,1.9917-0.35449,2.86572,0.20898C54.49854,4.25244,55,5.17188,55,6.21191V16c0,1.6543-1.3457,3-3,3H35V12.57568z
	 M47,47H13v-6h34V47z M25,22.59961V27H12c-1.6543,0-3-1.3457-3-3v-5.84473c0-1.03516,0.49756-1.95166,1.36523-2.51562
	c0.50146-0.32617,1.06104-0.49121,1.62598-0.49121c0.4126,0,0.82812,0.08789,1.22705,0.26562l10,4.44385
	C24.30078,20.33936,25,21.41553,25,22.59961z"/>
</svg>
