<?xml version="1.0" encoding="utf-8"?>
<!-- Generator: Adobe Illustrator 19.1.0, SVG Export Plug-In . SVG Version: 6.00 Build 0)  -->
<!DOCTYPE svg PUBLIC "-//W3C//DTD SVG 1.1//EN" "http://www.w3.org/Graphics/SVG/1.1/DTD/svg11.dtd">
<svg version="1.1" id="Layer_1" xmlns="http://www.w3.org/2000/svg" xmlns:xlink="http://www.w3.org/1999/xlink" x="0px" y="0px"
	 width="64px" height="64px" viewBox="0 0 64 64" enable-background="new 0 0 64 64" xml:space="preserve">
<path d="M56,45h-7.23633l-5.79883-21.26318c-0.03027-0.11084-0.11426-0.26465-0.17969-0.35889
	c-0.20508-0.29248-0.54199-0.45703-0.90625-0.42285C41.58789,22.98047,41.29688,23,41,23c-5.51367,0-10-4.48584-10-10
	c0-1.46094,0.31934-2.88379,0.94824-4.22852c0.15234-0.32373,0.11914-0.7041-0.08594-0.99707l-3.04297-4.34766
	c-0.15234-0.21729-0.38477-0.36523-0.64551-0.41162c-0.26172-0.0459-0.53027,0.01416-0.74707,0.16553L12.07227,13.92871
	c-3.03906,2.12793-3.89062,6.26562-1.93848,9.41943l23.01562,37.17822C33.33203,60.82129,33.65332,61,34,61h28
	c0.55273,0,1-0.44727,1-1v-8C63,48.14062,59.85938,45,56,45z M61,59H34.55664L11.83496,22.29541
	c-1.39453-2.25293-0.78613-5.20801,1.38379-6.72803l14.53516-10.1748l2.14746,3.06787C29.30273,9.91309,29,11.4375,29,13
	c0,6.6167,5.38281,12,12,12c0.0791,0,0.15723-0.00098,0.23535-0.00293l1.37653,5.04712l-5.69098,1.7063
	c-0.5293,0.15869-0.8291,0.71631-0.6709,1.24512c0.12988,0.43311,0.52734,0.71338,0.95801,0.71338
	c0.09473,0,0.19141-0.01367,0.28711-0.04297l5.64319-1.69153l1.30566,4.78741l-5.68127,1.65314
	c-0.53027,0.1543-0.83496,0.70898-0.68066,1.23926c0.12695,0.4375,0.52637,0.7207,0.95996,0.7207
	c0.0918,0,0.18652-0.0127,0.2793-0.04004l5.64893-1.64374l2.06494,7.57147C47.1543,46.69824,47.54883,47,48,47h8
	c2.75684,0,5,2.24316,5,5V59z"/>
<path d="M24,57H14c-0.55273,0-1,0.44727-1,1s0.44727,1,1,1h10c0.55273,0,1-0.44727,1-1S24.55273,57,24,57z"/>
<path d="M18,49H8c-0.55273,0-1,0.44727-1,1s0.44727,1,1,1h10c0.55273,0,1-0.44727,1-1S18.55273,49,18,49z"/>
<path d="M2,43h10c0.55273,0,1-0.44727,1-1s-0.44727-1-1-1H2c-0.55273,0-1,0.44727-1,1S1.44727,43,2,43z"/>
</svg>
