<?xml version="1.0" encoding="utf-8"?>
<!-- Generator: Adobe Illustrator 19.1.0, SVG Export Plug-In . SVG Version: 6.00 Build 0)  -->
<!DOCTYPE svg PUBLIC "-//W3C//DTD SVG 1.1//EN" "http://www.w3.org/Graphics/SVG/1.1/DTD/svg11.dtd">
<svg version="1.1" id="Layer_1" xmlns="http://www.w3.org/2000/svg" xmlns:xlink="http://www.w3.org/1999/xlink" x="0px" y="0px"
	 width="64px" height="64px" viewBox="0 0 64 64" enable-background="new 0 0 64 64" xml:space="preserve">
<path d="M9,28c0,0.55273,0.44775,1,1,1h10c0.55225,0,1-0.44727,1-1s-0.44775-1-1-1H10C9.44775,27,9,27.44727,9,28z"/>
<path d="M2,37h10c0.55225,0,1-0.44727,1-1s-0.44775-1-1-1H2c-0.55225,0-1,0.44727-1,1S1.44775,37,2,37z"/>
<path d="M44,13c0,3.85938,3.14014,7,7,7s7-3.14062,7-7s-3.14014-7-7-7S44,9.14062,44,13z M56,13c0,2.75684-2.24316,5-5,5
	s-5-2.24316-5-5s2.24316-5,5-5S56,10.24316,56,13z"/>
<path d="M56.73633,24.69824l-5.1582,3.22363l-18.74951-18.75c-1.39795-1.39941-3.64551-1.55859-5.22852-0.37207l-7.90918,5.93262
	c-1.58594,1.1875-2.13232,3.28906-1.2998,4.99707c0.53223,1.09082,1.50488,1.87793,2.66895,2.15918
	c1.16455,0.2793,2.38184,0.0293,3.33984-0.68848l5.22461-3.91895L35.34375,23l-7.37842,7.37695
	c-1.30908,1.31055-2.07959,2.9668-2.16895,4.66406c-0.1377,2.60547,1.08887,4.97949,3.28174,6.34961l9.30859,5.81738
	l-5.61914,8.42969c-1.23047,1.8457-0.83252,4.3584,0.88721,5.60254C34.34277,61.7373,35.15283,62,35.99707,62
	c1.34229,0,2.5874-0.66602,3.33105-1.78125l8-12c0.59619-0.89453,0.80859-2.01074,0.58203-3.06055
	c-0.22559-1.05078-0.87842-1.98047-1.79004-2.5498L34.3833,35.27246L41,28.65625l7.17139,7.17188
	c1.28613,1.28711,3.40723,1.53027,4.94824,0.56348l8-5c0.92627-0.57812,1.58252-1.52441,1.80029-2.59473
	c0.2207-1.08496-0.0083-2.18457-0.64551-3.09375C61.05469,23.95996,58.62012,23.51953,56.73633,24.69824z M60.95996,28.39844
	c-0.11035,0.54297-0.43018,1.00391-0.8999,1.29785l-8.00049,5c-0.771,0.48145-1.83105,0.36133-2.47363-0.28223l-7.87891-7.87891
	c-0.39062-0.39062-1.02344-0.39062-1.41406,0l-7.32324,7.32324c-0.43359,0.43262-0.64258,1.03027-0.57324,1.63965
	c0.06885,0.60938,0.40723,1.14551,0.92676,1.46973l11.73682,7.33691c0.45605,0.28418,0.78223,0.74902,0.89502,1.27441
	c0.11328,0.52539,0.00732,1.08301-0.29102,1.53027l-8,12c-0.60449,0.90723-1.94287,1.15625-2.83789,0.50977
	c-0.85889-0.62109-1.03613-1.90918-0.39453-2.87207l6.19043-9.28613c0.1499-0.22461,0.20264-0.50098,0.14551-0.76562
	c-0.05664-0.26367-0.21826-0.49414-0.44775-0.63672l-10.18164-6.36328c-1.56689-0.97949-2.44336-2.67969-2.34473-4.54883
	c0.06348-1.20312,0.62695-2.39551,1.58643-3.35547l8.08496-8.08398c0.1875-0.1875,0.29297-0.44141,0.29297-0.70703
	s-0.10547-0.51953-0.29297-0.70703l-7.03955-7.03906c-0.19385-0.19434-0.44971-0.29297-0.70752-0.29297
	c-0.20996,0-0.4209,0.06543-0.59961,0.2002l-5.91846,4.43945c-0.47852,0.35938-1.08838,0.48633-1.67041,0.34375
	c-0.59082-0.14258-1.06641-0.53027-1.34033-1.0918c-0.40625-0.83301-0.10449-1.91602,0.70166-2.52051l7.90967-5.93262
	c0.7915-0.5918,1.91504-0.5127,2.61377,0.18652l19.3125,19.3125c0.32959,0.33008,0.84229,0.38965,1.23682,0.14062l5.83301-3.64551
	c0.96533-0.60254,2.24072-0.39941,2.83936,0.45605C60.95508,27.30566,61.07031,27.85547,60.95996,28.39844z"/>
<path d="M16,52c1.06836,0,2.07275-0.41602,2.82812-1.17188l4.87891-4.87891c0.75586-0.75488,1.17188-1.75977,1.17188-2.82812
	s-0.41602-2.07324-1.17139-2.82812c-0.75537-0.75586-1.75977-1.17188-2.82861-1.17188s-2.07275,0.41602-2.82812,1.17188L14.34326,44
	H5c-2.20557,0-4,1.79395-4,4s1.79443,4,4,4H16z M3,48c0-1.10254,0.89697-2,2-2h9.75732c0.26514,0,0.51953-0.10547,0.70703-0.29297
	l4.00049-4h0.00049c0.75488-0.75586,2.07178-0.75586,2.82764,0c0.37793,0.37793,0.58594,0.87988,0.58594,1.41406
	s-0.20801,1.03613-0.58594,1.41406l-4.87891,4.87891C17.0415,49.78613,16.52637,50,16,50H5C3.89697,50,3,49.10254,3,48z"/>
</svg>
