<?xml version="1.0" encoding="utf-8"?>
<!-- Generator: Adobe Illustrator 19.1.0, SVG Export Plug-In . SVG Version: 6.00 Build 0)  -->
<!DOCTYPE svg PUBLIC "-//W3C//DTD SVG 1.1//EN" "http://www.w3.org/Graphics/SVG/1.1/DTD/svg11.dtd">
<svg version="1.1" id="Layer_1" xmlns="http://www.w3.org/2000/svg" xmlns:xlink="http://www.w3.org/1999/xlink" x="0px" y="0px"
	 width="64px" height="64px" viewBox="0 0 64 64" enable-background="new 0 0 64 64" xml:space="preserve">
<path d="M11.68604,52.67969c0.00983,0.01001,0.02319,0.013,0.03333,0.02252C16.95276,57.83008,24.11169,61,32,61
	c7.88837,0,15.04736-3.16998,20.28076-8.29791c0.01007-0.00946,0.02344-0.01245,0.0332-0.0224
	c0.00708-0.0072,0.00903-0.01703,0.01587-0.02441C57.67688,47.39166,61,40.07776,61,32s-3.32288-15.39148-8.66962-20.65497
	c-0.00702-0.00763-0.00909-0.01776-0.01642-0.02521c-0.01019-0.01038-0.02417-0.01361-0.03473-0.0235
	C47.04596,6.16931,39.88763,3,32,3s-15.04596,3.16931-20.2793,8.29639c-0.0105,0.00983-0.02448,0.01306-0.03467,0.02344
	c-0.00732,0.00745-0.0094,0.01758-0.01642,0.02521C6.32288,16.60852,3,23.92224,3,32s3.32312,15.39166,8.67017,20.65527
	C11.677,52.66266,11.67896,52.67249,11.68604,52.67969z M51.59827,50.54236C46.8233,45.50598,44.2002,38.96234,44.2002,32
	c0-6.96271,2.62311-13.50574,7.39789-18.54254C56.18054,18.29822,59,24.8241,59,32C59,39.17578,56.1806,45.7016,51.59827,50.54236z
	 M50.17578,12.05225C45.02814,17.46606,42.2002,24.50629,42.2002,32c0,7.49384,2.82806,14.53375,7.97583,19.94757
	C45.37506,56.32599,38.9942,59,32,59s-13.37506-2.67401-18.17603-7.05243C18.97174,46.53375,21.7998,39.49384,21.7998,32
	c0-7.49371-2.82794-14.53394-7.97559-19.94775C18.62512,7.67395,25.00592,5,32,5S45.37488,7.67395,50.17578,12.05225z
	 M12.40192,13.45746C17.1767,18.49426,19.7998,25.03729,19.7998,32c0,6.96234-2.62311,13.50598-7.39807,18.54236
	C7.8194,45.7016,5,39.17578,5,32C5,24.8241,7.81946,18.29822,12.40192,13.45746z"/>
</svg>
