<?xml version="1.0" encoding="utf-8"?>
<!-- Generator: Adobe Illustrator 19.1.0, SVG Export Plug-In . SVG Version: 6.00 Build 0)  -->
<!DOCTYPE svg PUBLIC "-//W3C//DTD SVG 1.1//EN" "http://www.w3.org/Graphics/SVG/1.1/DTD/svg11.dtd">
<svg version="1.1" id="Layer_1" xmlns="http://www.w3.org/2000/svg" xmlns:xlink="http://www.w3.org/1999/xlink" x="0px" y="0px"
	 width="64px" height="64px" viewBox="0 0 64 64" enable-background="new 0 0 64 64" xml:space="preserve">
<path d="M56.07568,43.25879l-6.15784-2.00085l5.51221-25.01031c1.32281-0.6629,2.42969-1.73071,3.12268-3.11676l4.3418-8.68359
	c0.24707-0.49414,0.04688-1.09473-0.44727-1.3418c-0.49512-0.24512-1.09473-0.04688-1.3418,0.44727l-4.3418,8.68359
	C55.91162,13.94141,54.19775,15,52.29199,15H44c-0.55225,0-1,0.44727-1,1s0.44775,1,1,1h8.29199
	c0.3175,0,0.63049-0.02405,0.93878-0.06506l-5.22394,23.70209L20.07861,31.5625c-0.07025-0.02045-1.54175-0.43219-3.29163-0.53766
	L13.28076,17H18c1.6543,0,3-1.3457,3-3v-0.46387c0-1.35645-0.91602-2.54785-2.22705-2.89746l-11-2.93359
	C6.8667,7.46387,5.91797,7.65332,5.17285,8.22363C4.42725,8.7959,4,9.66406,4,10.60352V14c0,1.6543,1.3457,3,3,3h4.21924
	l3.51599,14.06409C7.05518,31.70966,1,38.15546,1,46c0,8.27148,6.729,15,15,15h38c4.9624,0,9-4.03711,9-9
	C63,47.8125,60.15479,44.22461,56.07568,43.25879z M6,14v-3.39648c0-0.31348,0.14258-0.60254,0.39111-0.79395
	c0.17725-0.13574,0.38916-0.20703,0.60596-0.20703c0.08643,0,0.17383,0.01172,0.26025,0.03418l11,2.93359
	C18.69482,12.6875,19,13.08398,19,13.53613V14c0,0.55176-0.44873,1-1,1H7C6.44873,15,6,14.55176,6,14z M54,59H16
	C8.83154,59,3,53.16797,3,46s5.83154-13,13-13c1.77588,0,3.49365,0.47559,3.49658,0.47559l36.00098,11.69824
	c0.02734,0.00879,0.05518,0.0166,0.0835,0.02344C58.77148,45.93652,61,48.7334,61,52C61,55.85938,57.85986,59,54,59z"/>
<path d="M27.479,51.12207l-4.92499-2.68634C22.83746,47.67578,23,46.85742,23,46c0-3.85938-3.14014-7-7-7s-7,3.14062-7,7
	s3.14014,7,7,7c2.28735,0,4.31561-1.10785,5.59375-2.80963l4.92725,2.68756C26.67334,52.96094,26.8374,53,26.99902,53
	c0.354,0,0.69727-0.18848,0.87891-0.52148C28.14258,51.99414,27.96387,51.38672,27.479,51.12207z M16,51c-2.75684,0-5-2.24316-5-5
	s2.24316-5,5-5s5,2.24316,5,5c0,0.50989-0.09918,0.99243-0.2417,1.45624l-4.2793-2.33417
	c-0.48486-0.26367-1.09229-0.08496-1.35693,0.39941s-0.08594,1.0918,0.39893,1.35645l4.27869,2.3338
	C18.88177,50.29584,17.52832,51,16,51z"/>
</svg>
