<?xml version="1.0" encoding="utf-8"?>
<!-- Generator: Adobe Illustrator 19.1.0, SVG Export Plug-In . SVG Version: 6.00 Build 0)  -->
<!DOCTYPE svg PUBLIC "-//W3C//DTD SVG 1.1//EN" "http://www.w3.org/Graphics/SVG/1.1/DTD/svg11.dtd">
<svg version="1.1" id="Layer_1" xmlns="http://www.w3.org/2000/svg" xmlns:xlink="http://www.w3.org/1999/xlink" x="0px" y="0px"
	 width="64px" height="64px" viewBox="0 0 64 64" enable-background="new 0 0 64 64" xml:space="preserve">
<path d="M57,26v-6c0-2.85059-4.29883-5-10-5s-10,2.14941-10,5v6c0,2.85059,4.29883,5,10,5S57,28.85059,57,26z M47,17
	c4.8833,0,8,1.77686,8,3s-3.1167,3-8,3s-8-1.77686-8-3S42.1167,17,47,17z M39,26v-2.93555C40.79407,24.25452,43.65063,25,47,25
	s6.20593-0.74548,8-1.93555V26c0,1.22314-3.1167,3-8,3S39,27.22314,39,26z"/>
<path d="M60.9458,41.44727c-1.30518-0.95215-2.93652-1.21582-4.47559-0.7207h-0.00049l-22.01025,7.0752L10.87549,7.30518
	C9.521,4.97998,6.51221,4.1626,4.16895,5.48193c-1.16357,0.65479-1.99756,1.72461-2.34863,3.0127
	c-0.35156,1.2876-0.17578,2.63281,0.49414,3.7876l25.95361,44.72559C28.98096,58.23633,30.30664,59,31.72754,59H59
	c2.20557,0,4-1.79395,4-4v-9.5127C63,43.87207,62.25146,42.39941,60.9458,41.44727z M61,55c0,1.10254-0.89697,2-2,2H31.72754
	c-0.71045,0-1.37354-0.38184-1.72998-0.99609L4.04395,11.27832c-0.39893-0.68799-0.50391-1.48975-0.29443-2.25781
	c0.20947-0.76758,0.70654-1.40527,1.3999-1.79541c0.45312-0.25488,0.94775-0.37598,1.43652-0.37598
	c1.02002,0,2.01562,0.52637,2.56104,1.46289l23.98877,41.19092c0.23682,0.40625,0.72314,0.59082,1.17041,0.44922l22.77539-7.32129
	c0.92334-0.29688,1.90283-0.1377,2.68604,0.43262C60.55078,43.63477,61,44.51855,61,45.4873V55z"/>
</svg>
