<?xml version="1.0" encoding="utf-8"?>
<!-- Generator: Adobe Illustrator 19.1.0, SVG Export Plug-In . SVG Version: 6.00 Build 0)  -->
<!DOCTYPE svg PUBLIC "-//W3C//DTD SVG 1.1//EN" "http://www.w3.org/Graphics/SVG/1.1/DTD/svg11.dtd">
<svg version="1.1" id="Layer_1" xmlns="http://www.w3.org/2000/svg" xmlns:xlink="http://www.w3.org/1999/xlink" x="0px" y="0px"
	 width="64px" height="64px" viewBox="0 0 64 64" enable-background="new 0 0 64 64" xml:space="preserve">
<path d="M60.35352,2.23242L45.5448,17.04114c-1.06433-0.77228-2.33673-1.19543-3.67761-1.19543
	c-1.67969,0-3.25781,0.6543-4.44531,1.8418c-1.98608,1.98425-9.5141,15.52747-11.1535,18.4967L7.50391,39.41895
	c-2.62109,0.45117-4.63574,2.33887-5.25684,4.9248c-0.62207,2.58594,0.31445,5.18262,2.44336,6.77637l4.68359,3.50586
	l3.50586,4.68359c1.26758,1.69336,3.1709,2.63281,5.19824,2.63281c0.52051,0,1.0498-0.06152,1.57812-0.18945
	c2.58594-0.62109,4.47363-2.63574,4.9248-5.25684l3.23474-18.76447c2.96924-1.6394,16.51245-9.16742,18.4967-11.1535
	c1.1875-1.1875,1.8418-2.76562,1.8418-4.44531c0-1.34088-0.42316-2.61328-1.19543-3.67761L61.76758,3.64648
	c0.39062-0.39062,0.39062-1.02344,0-1.41406S60.74414,1.8418,60.35352,2.23242z M4.19141,44.81152
	c0.43164-1.79688,1.83105-3.1084,3.65234-3.42188l16.13324-2.7807L9.99481,52.59113l-4.10516-3.07257
	C4.41016,48.41211,3.75977,46.6084,4.19141,44.81152z M22.61035,56.15625c-0.31348,1.82129-1.625,3.2207-3.42188,3.65234
	c-1.79492,0.43457-3.59961-0.21777-4.70703-1.69824l-3.07257-4.10516l13.98218-13.98218L22.61035,56.15625z M44.89844,25.16406
	c-1.23438,1.23438-9.0332,5.7793-15.41406,9.35156c3.57227-6.38086,8.11719-14.17969,9.35156-15.41406
	c0.80957-0.80957,1.88672-1.25586,3.03125-1.25586s2.22168,0.44629,3.03125,1.25586s1.25586,1.88672,1.25586,3.03125
	S45.70801,24.35449,44.89844,25.16406z"/>
</svg>
