<?xml version="1.0" encoding="utf-8"?>
<!-- Generator: Adobe Illustrator 19.1.0, SVG Export Plug-In . SVG Version: 6.00 Build 0)  -->
<!DOCTYPE svg PUBLIC "-//W3C//DTD SVG 1.1//EN" "http://www.w3.org/Graphics/SVG/1.1/DTD/svg11.dtd">
<svg version="1.1" id="Layer_1" xmlns="http://www.w3.org/2000/svg" xmlns:xlink="http://www.w3.org/1999/xlink" x="0px" y="0px"
	 width="64px" height="64px" viewBox="0 0 64 64" enable-background="new 0 0 64 64" xml:space="preserve">
<path d="M11.29297,24.70703C11.48828,24.90234,11.74414,25,12,25s0.51172-0.09766,0.70703-0.29297L18,19.41406l5.29297,5.29297
	C23.48828,24.90234,23.74414,25,24,25s0.51172-0.09766,0.70703-0.29297c0.39062-0.39062,0.39062-1.02344,0-1.41406L19.41406,18
	l5.29297-5.29297c0.39062-0.39062,0.39062-1.02344,0-1.41406s-1.02344-0.39062-1.41406,0L18,16.58594l-5.29297-5.29297
	c-0.39062-0.39062-1.02344-0.39062-1.41406,0s-0.39062,1.02344,0,1.41406L16.58594,18l-5.29297,5.29297
	C10.90234,23.68359,10.90234,24.31641,11.29297,24.70703z"/>
<path d="M40.70703,39.29297c-0.39062-0.39062-1.02344-0.39062-1.41406,0s-0.39062,1.02344,0,1.41406L44.58594,46l-5.29297,5.29297
	c-0.39062,0.39062-0.39062,1.02344,0,1.41406C39.48828,52.90234,39.74414,53,40,53s0.51172-0.09766,0.70703-0.29297L46,47.41406
	l5.29297,5.29297C51.48828,52.90234,51.74414,53,52,53s0.51172-0.09766,0.70703-0.29297c0.39062-0.39062,0.39062-1.02344,0-1.41406
	L47.41406,46l5.29297-5.29297c0.39062-0.39062,0.39062-1.02344,0-1.41406s-1.02344-0.39062-1.41406,0L46,44.58594L40.70703,39.29297
	z"/>
<path d="M18,55c4.96289,0,9-4.03711,9-9c0-2.12177-0.74219-4.07086-1.97485-5.61108L49,16.41406V26c0,0.55225,0.44727,1,1,1
	s1-0.44775,1-1V14c0-0.13013-0.02649-0.25977-0.07703-0.3819c-0.10132-0.24475-0.29614-0.43964-0.54089-0.54102
	C50.25989,13.02655,50.13019,13,50,13H38c-0.55273,0-1,0.44775-1,1s0.44727,1,1,1h9.58594L23.61108,38.97485
	C22.07086,37.74219,20.12177,37,18,37c-4.96289,0-9,4.03711-9,9S13.03711,55,18,55z M18,39c3.85938,0,7,3.14062,7,7s-3.14062,7-7,7
	s-7-3.14062-7-7S14.14062,39,18,39z"/>
<path d="M62,1H2C1.44727,1,1,1.44775,1,2v60c0,0.55273,0.44727,1,1,1h60c0.55273,0,1-0.44727,1-1V2C63,1.44775,62.55273,1,62,1z
	 M61,61H3V3h58V61z"/>
</svg>
