<?xml version="1.0" encoding="utf-8"?>
<!-- Generator: Adobe Illustrator 19.1.0, SVG Export Plug-In . SVG Version: 6.00 Build 0)  -->
<!DOCTYPE svg PUBLIC "-//W3C//DTD SVG 1.1//EN" "http://www.w3.org/Graphics/SVG/1.1/DTD/svg11.dtd">
<svg version="1.1" id="Layer_1" xmlns="http://www.w3.org/2000/svg" xmlns:xlink="http://www.w3.org/1999/xlink" x="0px" y="0px"
	 width="64px" height="64px" viewBox="0 0 64 64" enable-background="new 0 0 64 64" xml:space="preserve">
<path d="M62,37H45V12c0-0.55225-0.44727-1-1-1H20c-0.55273,0-1,0.44775-1,1v15H2c-0.55273,0-1,0.44775-1,1v24
	c0,0.55225,0.44727,1,1,1h18h24h18c0.55273,0,1-0.44775,1-1V38C63,37.44775,62.55273,37,62,37z M3,29h16v22H3V29z M21,13h22v38H21
	V13z M61,51H45V39h16V51z"/>
</svg>
