<?xml version="1.0" encoding="utf-8"?>
<!-- Generator: Adobe Illustrator 19.1.0, SVG Export Plug-In . SVG Version: 6.00 Build 0)  -->
<!DOCTYPE svg PUBLIC "-//W3C//DTD SVG 1.1//EN" "http://www.w3.org/Graphics/SVG/1.1/DTD/svg11.dtd">
<svg version="1.1" id="Layer_1" xmlns="http://www.w3.org/2000/svg" xmlns:xlink="http://www.w3.org/1999/xlink" x="0px" y="0px"
	 width="64px" height="64px" viewBox="0 0 64 64" enable-background="new 0 0 64 64" xml:space="preserve">
<path d="M62,9H2c-0.55225,0-1,0.44775-1,1v44c0,0.55225,0.44775,1,1,1h60c0.55225,0,1-0.44775,1-1V10C63,9.44775,62.55225,9,62,9z
	 M61,41H51V23h10V41z M31,38.92017c-3.3866-0.48779-6-3.4007-6-6.92017s2.6134-6.43237,6-6.92017V38.92017z M33,25.07983
	c3.3866,0.48779,6,3.4007,6,6.92017s-2.6134,6.43237-6,6.92017V25.07983z M3,23h10v18H3V23z M3,43h11c0.55225,0,1-0.44775,1-1V22
	c0-0.55225-0.44775-1-1-1H3V11h28v12.05902C26.50702,23.55853,23,27.37598,23,32s3.50702,8.44147,8,8.94098V53H3V43z M33,53
	V40.94098c4.49298-0.49951,8-4.31696,8-8.94098s-3.50702-8.44147-8-8.94098V11h28v10H50c-0.55225,0-1,0.44775-1,1v20
	c0,0.55225,0.44775,1,1,1h11v10H33z"/>
</svg>
