<?xml version="1.0" encoding="utf-8"?>
<!-- Generator: Adobe Illustrator 19.1.0, SVG Export Plug-In . SVG Version: 6.00 Build 0)  -->
<!DOCTYPE svg PUBLIC "-//W3C//DTD SVG 1.1//EN" "http://www.w3.org/Graphics/SVG/1.1/DTD/svg11.dtd">
<svg version="1.1" id="Layer_1" xmlns="http://www.w3.org/2000/svg" xmlns:xlink="http://www.w3.org/1999/xlink" x="0px" y="0px"
	 width="64px" height="64px" viewBox="0 0 64 64" enable-background="new 0 0 64 64" xml:space="preserve">
<path d="M31,4v8c0,0.55225,0.44775,1,1,1s1-0.44775,1-1V4c0-0.55225-0.44775-1-1-1S31,3.44775,31,4z"/>
<path d="M48.26367,10.32227l-5.65723,5.65723c-0.39062,0.39062-0.39062,1.02344,0,1.41406
	c0.19531,0.19531,0.45117,0.29297,0.70703,0.29297s0.51172-0.09766,0.70703-0.29297l5.65723-5.65723
	c0.39062-0.39062,0.39062-1.02344,0-1.41406S48.6543,9.93164,48.26367,10.32227z"/>
<path d="M14.32227,10.32227c-0.39062,0.39062-0.39062,1.02344,0,1.41406l5.65723,5.65723
	c0.19531,0.19531,0.45117,0.29297,0.70703,0.29297s0.51172-0.09766,0.70703-0.29297c0.39062-0.39062,0.39062-1.02344,0-1.41406
	l-5.65723-5.65723C15.3457,9.93164,14.71289,9.93164,14.32227,10.32227z"/>
<path d="M18,61c9.37402,0,17-7.62598,17-17c0-0.98535-0.09375-1.99023-0.27979-3H54c0.37891,0,0.7251-0.21387,0.89453-0.55273l6-12
	c0.15479-0.31006,0.13818-0.67822-0.04395-0.97314C60.66846,27.17969,60.34668,27,60,27H18C8.62598,27,1,34.62598,1,44
	S8.62598,61,18,61z M18,29h40.38184l-5,10H33.47559c-0.30908,0-0.60107,0.14355-0.79053,0.3877s-0.25488,0.5625-0.17773,0.8623
	C32.83447,41.51562,33,42.77734,33,44c0,8.27148-6.729,15-15,15S3,52.27148,3,44S9.729,29,18,29z"/>
<path d="M18,51c3.85986,0,7-3.14062,7-7s-3.14014-7-7-7s-7,3.14062-7,7S14.14014,51,18,51z M18,39c2.75684,0,5,2.24316,5,5
	s-2.24316,5-5,5s-5-2.24316-5-5S15.24316,39,18,39z"/>
</svg>
