<?xml version="1.0" encoding="utf-8"?>
<!-- Generator: Adobe Illustrator 19.1.0, SVG Export Plug-In . SVG Version: 6.00 Build 0)  -->
<!DOCTYPE svg PUBLIC "-//W3C//DTD SVG 1.1//EN" "http://www.w3.org/Graphics/SVG/1.1/DTD/svg11.dtd">
<svg version="1.1" id="Layer_49" xmlns="http://www.w3.org/2000/svg" xmlns:xlink="http://www.w3.org/1999/xlink" x="0px" y="0px"
	 width="48px" height="48px" viewBox="0 0 48 48" enable-background="new 0 0 48 48" xml:space="preserve">
<path fill="#231F20" d="M12,26c2.8,0,5-2.2,5-5s-2.2-5-5-5s-5,2.2-5,5S9.2,26,12,26z M12,18c1.7,0,3,1.3,3,3s-1.3,3-3,3s-3-1.3-3-3
	S10.3,18,12,18z"/>
<path fill="#231F20" d="M12,33c-0.6,0-1,0.4-1,1v7c0,0.6,0.4,1,1,1s1-0.4,1-1v-7C13,33.4,12.6,33,12,33z"/>
<path fill="#231F20" d="M46,29c-0.6,0-1,0.4-1,1v3h-7v-3c0-0.6-0.4-1-1-1s-1,0.4-1,1v3h-6v-3c0-0.6-0.4-1-1-1s-1,0.4-1,1v3h-7v-3h1
	c0.6,0,1-0.4,1-1V13V8c0-0.6-0.4-1-1-1s-1,0.4-1,1v2.6l-8.3-8.3c-0.4-0.4-1-0.4-1.4,0L3,10.6V8c0-0.6-0.4-1-1-1S1,7.4,1,8v5v16
	c0,0.6,0.4,1,1,1h1v16c0,0.6,0.4,1,1,1h16h26c0.6,0,1-0.4,1-1V34v-4C47,29.4,46.6,29,46,29z M36,35v10h-6V35H36z M28,35v10h-7V35H28
	z M21,28h-1H4H3V14h18V28z M12,4.4l7.6,7.6H4.4L12,4.4z M5,30h14v15H5V30z M45,45h-7V35h7V45z"/>
</svg>
