<?xml version="1.0" encoding="utf-8"?>
<!-- Generator: Adobe Illustrator 19.1.0, SVG Export Plug-In . SVG Version: 6.00 Build 0)  -->
<!DOCTYPE svg PUBLIC "-//W3C//DTD SVG 1.1//EN" "http://www.w3.org/Graphics/SVG/1.1/DTD/svg11.dtd">
<svg version="1.1" id="Layer_49" xmlns="http://www.w3.org/2000/svg" xmlns:xlink="http://www.w3.org/1999/xlink" x="0px" y="0px"
	 width="48px" height="48px" viewBox="0 0 48 48" enable-background="new 0 0 48 48" xml:space="preserve">
<path fill="#231F20" d="M41.3,25L35,23.2V22c0-2.4-0.8-4.7-2.1-6.5c0.1-0.5,0.1-1,0.1-1.5c0-4.6-3.5-8.4-8-8.9V2c0-0.6-0.4-1-1-1
	s-1,0.4-1,1v3.1c-4.5,0.5-8,4.3-8,8.9c0,0.5,0.1,1,0.1,1.5C13.8,17.3,13,19.6,13,22v1.2L6.7,25C6.3,25.2,6,25.6,6,26v20
	c0,0.6,0.4,1,1,1h7h20h7c0.6,0,1-0.4,1-1V26C42,25.6,41.7,25.2,41.3,25z M24,7c3.7,0,6.7,2.9,7,6.5c-1.9-1.6-4.3-2.5-7-2.5
	s-5.1,0.9-7,2.5C17.3,9.9,20.3,7,24,7z M8,26.8l5-1.4V45H8V26.8z M15,22c0-5,4-9,9-9c2.8,0,5.3,1.3,6.9,3.3c0.1,0.1,0.1,0.2,0.2,0.3
	C32.3,18,33,19.9,33,22v23H15V22z M40,45h-5V25.3l5,1.4V45z"/>
<path fill="#231F20" d="M26,27h-4c-0.6,0-1,0.4-1,1s0.4,1,1,1h4c0.6,0,1-0.4,1-1S26.6,27,26,27z"/>
<path fill="#231F20" d="M26,21h-4c-0.6,0-1,0.4-1,1s0.4,1,1,1h4c0.6,0,1-0.4,1-1S26.6,21,26,21z"/>
<path fill="#231F20" d="M26,33h-4c-0.6,0-1,0.4-1,1s0.4,1,1,1h4c0.6,0,1-0.4,1-1S26.6,33,26,33z"/>
<path fill="#231F20" d="M26,39h-4c-0.6,0-1,0.4-1,1s0.4,1,1,1h4c0.6,0,1-0.4,1-1S26.6,39,26,39z"/>
</svg>
