<?xml version="1.0" encoding="utf-8"?>
<!-- Generator: Adobe Illustrator 19.1.0, SVG Export Plug-In . SVG Version: 6.00 Build 0)  -->
<!DOCTYPE svg PUBLIC "-//W3C//DTD SVG 1.1//EN" "http://www.w3.org/Graphics/SVG/1.1/DTD/svg11.dtd">
<svg version="1.1" id="Layer_49" xmlns="http://www.w3.org/2000/svg" xmlns:xlink="http://www.w3.org/1999/xlink" x="0px" y="0px"
	 width="48px" height="48px" viewBox="0 0 48 48" enable-background="new 0 0 48 48" xml:space="preserve">
<path fill="#231F20" d="M46.5,15.1l-22-12c-0.3-0.2-0.7-0.2-1,0l-22,12C1.2,15.3,1,15.6,1,16v6c0,0.6,0.4,1,1,1h3v22H2
	c-0.6,0-1,0.4-1,1s0.4,1,1,1h44c0.6,0,1-0.4,1-1s-0.4-1-1-1h-3V23h3c0.6,0,1-0.4,1-1v-6C47,15.6,46.8,15.3,46.5,15.1z M7,23h6v22H7
	V23z M19,23v22h-4V23H19z M27,23v22h-6V23H27z M33,23v22h-4V23H33z M41,45h-6V23h6V45z M45,21H3v-4.4L24,5.1l21,11.5V21z"/>
<path fill="#231F20" d="M21,14c0,1.7,1.3,3,3,3s3-1.3,3-3s-1.3-3-3-3S21,12.3,21,14z M25,14c0,0.6-0.4,1-1,1s-1-0.4-1-1s0.4-1,1-1
	S25,13.4,25,14z"/>
</svg>
