<?xml version="1.0" encoding="utf-8"?>
<!-- Generator: Adobe Illustrator 19.1.0, SVG Export Plug-In . SVG Version: 6.00 Build 0)  -->
<!DOCTYPE svg PUBLIC "-//W3C//DTD SVG 1.1//EN" "http://www.w3.org/Graphics/SVG/1.1/DTD/svg11.dtd">
<svg version="1.1" id="Layer_49" xmlns="http://www.w3.org/2000/svg" xmlns:xlink="http://www.w3.org/1999/xlink" x="0px" y="0px"
	 width="48px" height="48px" viewBox="0 0 48 48" enable-background="new 0 0 48 48" xml:space="preserve">
<path fill="#231F20" d="M46,37c-0.6,0-1,0.4-1,1c0,3.9-3.1,7-7,7c-2.5,0-4.9-1.4-6.1-3.7c-0.4-0.6-1.4-0.6-1.8,0
	C28.9,43.6,26.5,45,24,45s-4.9-1.4-6.1-3.7c-0.4-0.6-1.4-0.6-1.8,0C14.9,43.6,12.5,45,10,45c-3.9,0-7-3.1-7-7c0-0.6-0.4-1-1-1
	s-1,0.4-1,1c0,5,4,9,9,9c2.7,0,5.3-1.3,7-3.4c1.7,2.1,4.3,3.4,7,3.4s5.3-1.3,7-3.4c1.7,2.1,4.3,3.4,7,3.4c5,0,9-4,9-9
	C47,37.4,46.6,37,46,37z"/>
<path fill="#231F20" d="M38,39c0.6,0,1-0.4,1-1V6c0-2.8-2.2-5-5-5c-0.6,0-1,0.4-1,1s0.4,1,1,1c1.7,0,3,1.3,3,3v5H11V6
	c0-1.7,1.3-3,3-3c0.6,0,1-0.4,1-1s-0.4-1-1-1c-2.8,0-5,2.2-5,5v32c0,0.6,0.4,1,1,1s1-0.4,1-1v-5h26v5C37,38.6,37.4,39,38,39z M37,13
	v8H11v-8H37z M11,31v-8h26v8H11z"/>
</svg>
