<?xml version="1.0" encoding="utf-8"?>
<!-- Generator: Adobe Illustrator 19.1.0, SVG Export Plug-In . SVG Version: 6.00 Build 0)  -->
<!DOCTYPE svg PUBLIC "-//W3C//DTD SVG 1.1//EN" "http://www.w3.org/Graphics/SVG/1.1/DTD/svg11.dtd">
<svg version="1.1" id="Layer_49" xmlns="http://www.w3.org/2000/svg" xmlns:xlink="http://www.w3.org/1999/xlink" x="0px" y="0px"
	 width="48px" height="48px" viewBox="0 0 48 48" enable-background="new 0 0 48 48" xml:space="preserve">
<path fill="#231F20" d="M46,45h-1.5c-1.2-1.5-5.8-7.3-9.7-14H39c0.6,0,1-0.4,1-1s-0.4-1-1-1h-5.3c-0.9-1.7-1.7-3.3-2.4-5H35
	c0.6,0,1-0.4,1-1s-0.4-1-1-1h-4.5c-0.9-2.5-1.5-4.9-1.5-7v-5c0-2.4-1.7-4.4-4-4.9V2c0-0.6-0.4-1-1-1s-1,0.4-1,1v3.1
	c-2.3,0.5-4,2.5-4,4.9v5c0,2.1-0.6,4.5-1.5,7H13c-0.6,0-1,0.4-1,1s0.4,1,1,1h3.8c-0.7,1.7-1.5,3.3-2.4,5H9c-0.6,0-1,0.4-1,1
	s0.4,1,1,1h4.2c-3.9,6.7-8.5,12.5-9.7,14H2c-0.6,0-1,0.4-1,1s0.4,1,1,1h12c0,0,0,0,0,0c0.6,0,1-0.4,1-1c0-5,4-9,9-9s9,4,9,9
	c0,0.6,0.4,1,1,1c0,0,0,0,0,0h12c0.6,0,1-0.4,1-1S46.6,45,46,45z M24,7c1.7,0,3,1.3,3,3v4h-6v-4C21,8.3,22.3,7,24,7z M21,16H27
	c0.1,1.9,0.6,3.9,1.3,6h-8.7C20.4,19.9,20.8,17.9,21,16z M18.9,24h10.2c0.7,1.7,1.5,3.3,2.3,5H16.6C17.5,27.3,18.3,25.7,18.9,24z
	 M24,35c-5.7,0-10.4,4.4-10.9,10h-7c2-2.6,6.1-8,9.4-14h17c3.4,6,7.4,11.4,9.4,14h-7C34.4,39.4,29.7,35,24,35z"/>
</svg>
