<?xml version="1.0" encoding="utf-8"?>
<!-- Generator: Adobe Illustrator 19.1.0, SVG Export Plug-In . SVG Version: 6.00 Build 0)  -->
<!DOCTYPE svg PUBLIC "-//W3C//DTD SVG 1.1//EN" "http://www.w3.org/Graphics/SVG/1.1/DTD/svg11.dtd">
<svg version="1.1" id="Layer_49" xmlns="http://www.w3.org/2000/svg" xmlns:xlink="http://www.w3.org/1999/xlink" x="0px" y="0px"
	 width="48px" height="48px" viewBox="0 0 48 48" enable-background="new 0 0 48 48" xml:space="preserve">
<path fill="#231F20" d="M46,44H2c-0.6,0-1,0.4-1,1s0.4,1,1,1h44c0.6,0,1-0.4,1-1S46.6,44,46,44z"/>
<path fill="#231F20" d="M25,10V4h7c0.6,0,1-0.4,1-1s-0.4-1-1-1H16c-0.6,0-1,0.4-1,1s0.4,1,1,1h7v6C10.8,10.6,1,20.7,1,33v6
	c0,0.6,0.4,1,1,1h44c0.6,0,1-0.4,1-1v-6C47,20.7,37.2,10.6,25,10z M3,33c0-9.6,6.6-17.8,15.4-20.2C12.3,17,9,24,9,33v5H3V33z M45,38
	H11v-5c0-10.3,4.7-17.8,13.2-21C35.7,12.1,45,21.5,45,33V38z"/>
</svg>
