<?xml version="1.0" encoding="utf-8"?>
<!-- Generator: Adobe Illustrator 19.1.0, SVG Export Plug-In . SVG Version: 6.00 Build 0)  -->
<!DOCTYPE svg PUBLIC "-//W3C//DTD SVG 1.1//EN" "http://www.w3.org/Graphics/SVG/1.1/DTD/svg11.dtd">
<svg version="1.1" id="Layer_49" xmlns="http://www.w3.org/2000/svg" xmlns:xlink="http://www.w3.org/1999/xlink" x="0px" y="0px"
	 width="48px" height="48px" viewBox="0 0 48 48" enable-background="new 0 0 48 48" xml:space="preserve">
<path fill="#231F20" d="M4,47h40c0.4,0,0.7-0.2,0.9-0.5c0.2-0.3,0.2-0.7,0-1L31.2,21.6c0,0,0,0,0-0.1l-6-10.6l3.7-6.5
	C29.1,4,29,3.4,28.5,3.1C28,2.9,27.4,3,27.1,3.5L24,9l-3.1-5.5C20.6,3,20,2.9,19.5,3.1C19,3.4,18.9,4,19.1,4.5l3.7,6.5l-6,10.6
	c0,0,0,0,0,0.1L3.1,45.5c-0.2,0.3-0.2,0.7,0,1C3.3,46.8,3.6,47,4,47z M17.7,45L24,34l6.3,11H17.7z M24,13l4.6,8h-9.1L24,13z
	 M18.3,23h11.4l12.6,22h-9.7l-7.7-13.5c-0.4-0.6-1.4-0.6-1.7,0L15.4,45H5.7L18.3,23z"/>
</svg>
