<?xml version="1.0" encoding="utf-8"?>
<!-- Generator: Adobe Illustrator 19.1.0, SVG Export Plug-In . SVG Version: 6.00 Build 0)  -->
<!DOCTYPE svg PUBLIC "-//W3C//DTD SVG 1.1//EN" "http://www.w3.org/Graphics/SVG/1.1/DTD/svg11.dtd">
<svg version="1.1" id="Layer_49" xmlns="http://www.w3.org/2000/svg" xmlns:xlink="http://www.w3.org/1999/xlink" x="0px" y="0px"
	 width="48px" height="48px" viewBox="0 0 48 48" enable-background="new 0 0 48 48" xml:space="preserve">
<path fill="#231F20" d="M46,11H29V6c0-2.8-2.2-5-5-5s-5,2.2-5,5v5H2c-0.6,0-1,0.4-1,1v6c0,0.6,0.4,1,1,1h5v4c0,0.6,0.4,1,1,1h7v13
	h-1c-0.6,0-1,0.4-1,1v8c0,0.6,0.4,1,1,1h20c0.6,0,1-0.4,1-1v-8c0-0.6-0.4-1-1-1h-1V24h7c0.6,0,1-0.4,1-1v-4h5c0.6,0,1-0.4,1-1v-6
	C47,11.4,46.6,11,46,11z M33,45H15v-6h18V45z M17,37v-2.3l14-4.4V37H17z M45,17h-5c-0.6,0-1,0.4-1,1v4h-7c-0.6,0-1,0.4-1,1v5.3
	l-14,4.4V23c0-0.6-0.4-1-1-1H9v-4c0-0.6-0.4-1-1-1H3v-4h17c0.6,0,1-0.4,1-1V6c0-1.7,1.3-3,3-3s3,1.3,3,3v6c0,0.6,0.4,1,1,1h17V17z"
	/>
</svg>
