<?xml version="1.0" encoding="utf-8"?>
<!-- Generator: Adobe Illustrator 19.1.0, SVG Export Plug-In . SVG Version: 6.00 Build 0)  -->
<!DOCTYPE svg PUBLIC "-//W3C//DTD SVG 1.1//EN" "http://www.w3.org/Graphics/SVG/1.1/DTD/svg11.dtd">
<svg version="1.1" id="Layer_49" xmlns="http://www.w3.org/2000/svg" xmlns:xlink="http://www.w3.org/1999/xlink" x="0px" y="0px"
	 width="48px" height="48px" viewBox="0 0 48 48" enable-background="new 0 0 48 48" xml:space="preserve">
<path fill="#231F20" d="M28,36h-8c-0.6,0-1,0.4-1,1s0.4,1,1,1h8c0.6,0,1-0.4,1-1S28.6,36,28,36z"/>
<path fill="#231F20" d="M24,7c-6.1,0-11,4.9-11,11s4.9,11,11,11s11-4.9,11-11S30.1,7,24,7z M32.9,17h-3.7c-0.1-2.9-0.7-5.5-1.7-7.3
	C30.5,11,32.6,13.7,32.9,17z M24,27c-1.3,0-3.1-3-3.3-8h6.5C27.1,24,25.3,27,24,27z M20.7,17c0.2-5,2-8,3.3-8s3.1,3,3.3,8H20.7z
	 M20.4,9.7c-1,1.8-1.6,4.3-1.7,7.3h-3.7C15.4,13.7,17.5,11,20.4,9.7z M15.1,19h3.7c0.1,2.9,0.7,5.5,1.7,7.3
	C17.5,25,15.4,22.3,15.1,19z M27.6,26.3c1-1.8,1.6-4.3,1.7-7.3h3.7C32.6,22.3,30.5,25,27.6,26.3z"/>
<path fill="#231F20" d="M36,47c3.9,0,7-3.1,7-7V8c0-3.9-3.1-7-7-7H6C5.4,1,5,1.4,5,2v44c0,0.6,0.4,1,1,1H36z M7,3h29
	c2.8,0,5,2.2,5,5v32c0,2.8-2.2,5-5,5H7V3z"/>
</svg>
