<?xml version="1.0" encoding="utf-8"?>
<!-- Generator: Adobe Illustrator 19.1.0, SVG Export Plug-In . SVG Version: 6.00 Build 0)  -->
<!DOCTYPE svg PUBLIC "-//W3C//DTD SVG 1.1//EN" "http://www.w3.org/Graphics/SVG/1.1/DTD/svg11.dtd">
<svg version="1.1" id="Layer_49" xmlns="http://www.w3.org/2000/svg" xmlns:xlink="http://www.w3.org/1999/xlink" x="0px" y="0px"
	 width="48px" height="48px" viewBox="0 0 48 48" enable-background="new 0 0 48 48" xml:space="preserve">
<path fill="#231F20" d="M2.8,37.3c-0.1,0.2-0.1,0.5,0,0.8l2.7,7.5c0.1,0.4,0.5,0.7,0.9,0.7c0.1,0,0.2,0,0.3-0.1l17.1-6.2l17.1,6.2
	c0.1,0,0.2,0.1,0.3,0.1c0.4,0,0.8-0.3,0.9-0.7l2.7-7.5c0.1-0.2,0.1-0.5,0-0.8c-0.1-0.2-0.3-0.4-0.6-0.5l-5.9-2.1l5.9-2.1
	c0.2-0.1,0.5-0.3,0.6-0.5c0.1-0.2,0.1-0.5,0-0.8l-2.7-7.5c-0.1-0.2-0.3-0.5-0.5-0.6c-0.2-0.1-0.5-0.1-0.8,0l-7.5,2.7
	c1-1.6,1.5-3.5,1.5-5.7c0-6.4-9.8-17.3-10.3-17.8c-0.4-0.4-1.1-0.4-1.5,0C22.8,2.8,13,13.7,13,20.1c0,2.3,0.6,4.2,1.7,5.8l-7.9-2.9
	c-0.5-0.2-1.1,0.1-1.3,0.6l-2.7,7.5c-0.1,0.2-0.1,0.5,0,0.8c0.1,0.2,0.3,0.4,0.6,0.5l5.9,2.1l-5.9,2.1C3.1,36.8,2.9,37,2.8,37.3z
	 M42.7,38.3l-2.1,5.6l-13.9-5.1l8.8-3.2L42.7,38.3z M24,4.5c3.1,3.5,9,11.3,9,15.6c0,3.2-1.4,5.6-3.5,7.1l0,0
	c-0.1,0.1-0.3,0.1-0.4,0.3c-1.5,1-3.4,1.5-5.1,1.5c-1.6,0-3.3-0.4-4.8-1.3c-0.1-0.1-0.2-0.2-0.4-0.2C16.6,26,15,23.5,15,20.1
	C15,15.8,20.9,8.1,24,4.5z M5,30.9L7,25.3l11.1,4c0.8,0.5,1.6,0.9,2.5,1.1l-8.5,3.1L5,30.9z M25.1,30.9c1.8-0.2,3.6-0.8,5.2-1.9
	l10.4-3.8l2.1,5.6L7,43.9L5,38.3L25.1,30.9z"/>
<path fill="#231F20" d="M24,25c2.1,0,4.3-1.6,4.3-4.3c0-2.3-3-5.7-3.6-6.4c-0.4-0.4-1.1-0.4-1.5,0c-0.6,0.7-3.6,4.1-3.6,6.4
	C19.7,23.4,21.9,25,24,25z M24,16.5c1.1,1.4,2.3,3.2,2.3,4.2c0,1.5-1.2,2.3-2.3,2.3s-2.3-0.8-2.3-2.3C21.7,19.8,22.9,17.9,24,16.5z"
	/>
</svg>
