<?xml version="1.0" encoding="utf-8"?>
<!-- Generator: Adobe Illustrator 19.1.0, SVG Export Plug-In . SVG Version: 6.00 Build 0)  -->
<!DOCTYPE svg PUBLIC "-//W3C//DTD SVG 1.1//EN" "http://www.w3.org/Graphics/SVG/1.1/DTD/svg11.dtd">
<svg version="1.1" id="Layer_49" xmlns="http://www.w3.org/2000/svg" xmlns:xlink="http://www.w3.org/1999/xlink" x="0px" y="0px"
	 width="48px" height="48px" viewBox="0 0 48 48" enable-background="new 0 0 48 48" xml:space="preserve">
<path fill="#231F20" d="M46,1h-4c-0.6,0-1,0.4-1,1v39H2c-0.6,0-1,0.4-1,1s0.4,1,1,1h3v3c0,0.6,0.4,1,1,1s1-0.4,1-1v-3h30v3
	c0,0.6,0.4,1,1,1s1-0.4,1-1v-3h3c0.6,0,1-0.4,1-1V3h3c0.6,0,1-0.4,1-1S46.6,1,46,1z"/>
<path fill="#231F20" d="M4,37h32c0.6,0,1-0.4,1-1V12c0-0.6-0.4-1-1-1h-9V6c0-0.6-0.4-1-1-1H14c-0.6,0-1,0.4-1,1v5H4
	c-0.6,0-1,0.4-1,1v24C3,36.6,3.4,37,4,37z M5,35V21h10v5c0,0.6,0.4,1,1,1h8c0.6,0,1-0.4,1-1v-5h10v14H5z M23,21v4h-6v-4H23z M15,7
	h10v4H15V7z M35,13v6H5v-6H35z"/>
</svg>
