<?xml version="1.0" encoding="utf-8"?>
<!-- Generator: Adobe Illustrator 19.1.0, SVG Export Plug-In . SVG Version: 6.00 Build 0)  -->
<!DOCTYPE svg PUBLIC "-//W3C//DTD SVG 1.1//EN" "http://www.w3.org/Graphics/SVG/1.1/DTD/svg11.dtd">
<svg version="1.1" id="Layer_49" xmlns="http://www.w3.org/2000/svg" xmlns:xlink="http://www.w3.org/1999/xlink" x="0px" y="0px"
	 width="48px" height="48px" viewBox="0 0 48 48" enable-background="new 0 0 48 48" xml:space="preserve">
<path fill="#231F20" d="M24,15c-5,0-9,4-9,9s4,9,9,9s9-4,9-9S29,15,24,15z M24,31c-3.9,0-7-3.1-7-7s3.1-7,7-7s7,3.1,7,7
	S27.9,31,24,31z"/>
<path fill="#231F20" d="M25,8V2c0-0.6-0.4-1-1-1s-1,0.4-1,1v6c0,0.6,0.4,1,1,1S25,8.6,25,8z"/>
<path fill="#231F20" d="M36.7,9.9L34.6,12c-0.4,0.4-0.4,1,0,1.4c0.2,0.2,0.5,0.3,0.7,0.3s0.5-0.1,0.7-0.3l2.1-2.1
	c0.4-0.4,0.4-1,0-1.4S37.1,9.5,36.7,9.9z"/>
<path fill="#231F20" d="M36,34.6c-0.4-0.4-1-0.4-1.4,0s-0.4,1,0,1.4l2.1,2.1c0.2,0.2,0.5,0.3,0.7,0.3s0.5-0.1,0.7-0.3
	c0.4-0.4,0.4-1,0-1.4L36,34.6z"/>
<path fill="#231F20" d="M12,34.6l-2.1,2.1c-0.4,0.4-0.4,1,0,1.4c0.2,0.2,0.5,0.3,0.7,0.3s0.5-0.1,0.7-0.3l2.1-2.1
	c0.4-0.4,0.4-1,0-1.4S12.4,34.2,12,34.6z"/>
<path fill="#231F20" d="M11.3,9.9c-0.4-0.4-1-0.4-1.4,0s-0.4,1,0,1.4l2.1,2.1c0.2,0.2,0.5,0.3,0.7,0.3s0.5-0.1,0.7-0.3
	c0.4-0.4,0.4-1,0-1.4L11.3,9.9z"/>
<path fill="#231F20" d="M46,23h-6c-0.6,0-1,0.4-1,1s0.4,1,1,1h6c0.6,0,1-0.4,1-1S46.6,23,46,23z"/>
<path fill="#231F20" d="M24,39c-0.6,0-1,0.4-1,1v6c0,0.6,0.4,1,1,1s1-0.4,1-1v-6C25,39.4,24.6,39,24,39z"/>
<path fill="#231F20" d="M8,23H2c-0.6,0-1,0.4-1,1s0.4,1,1,1h6c0.6,0,1-0.4,1-1S8.6,23,8,23z"/>
</svg>
