<?xml version="1.0" encoding="utf-8"?>
<!-- Generator: Adobe Illustrator 19.1.0, SVG Export Plug-In . SVG Version: 6.00 Build 0)  -->
<!DOCTYPE svg PUBLIC "-//W3C//DTD SVG 1.1//EN" "http://www.w3.org/Graphics/SVG/1.1/DTD/svg11.dtd">
<svg version="1.1" id="Layer_49" xmlns="http://www.w3.org/2000/svg" xmlns:xlink="http://www.w3.org/1999/xlink" x="0px" y="0px"
	 width="48px" height="48px" viewBox="0 0 48 48" enable-background="new 0 0 48 48" xml:space="preserve">
<path fill="#231F20" d="M6,35h5.5l8.7,11.6c0.2,0.3,0.5,0.4,0.8,0.4h6c0.3,0,0.6-0.1,0.8-0.4L36.5,35H42c0.6,0,1-0.4,1-1s-0.4-1-1-1
	H6c-0.6,0-1,0.4-1,1S5.4,35,6,35z M26.5,45h-5L14,35h20L26.5,45z"/>
<path fill="#231F20" d="M6,1C5.4,1,5,1.4,5,2v16c0,5,4,9,9,9h20c5,0,9-4,9-9V2c0-0.6-0.4-1-1-1s-1,0.4-1,1v6.6L24,24.6L7,8.6V2
	C7,1.4,6.6,1,6,1z M41,18c0,3.9-3.1,7-7,7h-7.5L41,11.3V18z M21.5,25H14c-3.9,0-7-3.1-7-7v-6.7L21.5,25z"/>
</svg>
