<?xml version="1.0" encoding="utf-8"?>
<!-- Generator: Adobe Illustrator 19.1.0, SVG Export Plug-In . SVG Version: 6.00 Build 0)  -->
<!DOCTYPE svg PUBLIC "-//W3C//DTD SVG 1.1//EN" "http://www.w3.org/Graphics/SVG/1.1/DTD/svg11.dtd">
<svg version="1.1" id="Layer_49" xmlns="http://www.w3.org/2000/svg" xmlns:xlink="http://www.w3.org/1999/xlink" x="0px" y="0px"
	 width="48px" height="48px" viewBox="0 0 48 48" enable-background="new 0 0 48 48" xml:space="preserve">
<path fill="#231F20" d="M23.2,15.4c-0.4,0.5-4.2,5.4-4.2,8.3c0,4,3.4,5.3,5,5.3s5-1.3,5-5.3c0-2.9-3.8-7.8-4.2-8.3
	C24.4,14.9,23.6,14.9,23.2,15.4z M24,27c0,0-3-0.1-3-3.3c0-1.4,1.6-4.1,3-6c1.4,1.9,3,4.7,3,6C27,26.9,24,27,24,27z"/>
<path fill="#231F20" d="M30,1H18c-0.6,0-1,0.4-1,1v4H6C5.4,6,5,6.4,5,7s0.4,1,1,1h3v19c0,4.4,3.6,8,8,8v4h-1c-2.2,0-4,1.8-4,4v3
	c0,0.6,0.4,1,1,1h22c0.6,0,1-0.4,1-1v-3c0-2.2-1.8-4-4-4h-1v-4c4.4,0,8-3.6,8-8V8h3c0.6,0,1-0.4,1-1s-0.4-1-1-1H31V2
	C31,1.4,30.6,1,30,1z M19,3h10v3H19V3z M34,43v2H14v-2c0-1.1,0.9-2,2-2h16C33.1,41,34,41.9,34,43z M29,39H19v-4h10V39z M37,27
	c0,3.3-2.7,6-6,6H17c-3.3,0-6-2.7-6-6V8h7h12h7V27z"/>
</svg>
