<?xml version="1.0" encoding="utf-8"?>
<!-- Generator: Adobe Illustrator 19.1.0, SVG Export Plug-In . SVG Version: 6.00 Build 0)  -->
<!DOCTYPE svg PUBLIC "-//W3C//DTD SVG 1.1//EN" "http://www.w3.org/Graphics/SVG/1.1/DTD/svg11.dtd">
<svg version="1.1" id="Layer_49" xmlns="http://www.w3.org/2000/svg" xmlns:xlink="http://www.w3.org/1999/xlink" x="0px" y="0px"
	 width="48px" height="48px" viewBox="0 0 48 48" enable-background="new 0 0 48 48" xml:space="preserve">
<path fill="#231F20" d="M24,1C24,1,24,1,24,1C24,1,24,1,24,1C24,1,24,1,24,1C24,1,24,1,24,1C17.1,1,11,4,6.8,8.7c0,0,0,0,0,0
	c0,0,0,0.1-0.1,0.1C3.2,12.9,1,18.2,1,24c0,5.8,2.2,11.1,5.7,15.2c0,0,0,0.1,0.1,0.1c0,0,0,0,0,0C11,44,17.2,47,24,47h0h0
	c0,0,0,0,0,0s0,0,0,0h0h0c12.7,0,23-10.3,23-23C47,11.3,36.7,1,24,1z M44.9,23h-8c-0.1-2.9-0.5-5.7-1.3-8.2c1.7-1,3.4-2.3,4.8-3.8
	C43.1,14.4,44.7,18.5,44.9,23z M40.5,37c-1.4-1.5-3.1-2.7-4.8-3.8c0.8-2.5,1.2-5.3,1.3-8.2h8C44.7,29.5,43.1,33.6,40.5,37z M7.5,37
	c-2.6-3.3-4.2-7.5-4.5-12h8c0.1,2.9,0.5,5.7,1.3,8.2C10.6,34.2,8.9,35.5,7.5,37z M7.5,11c1.4,1.5,3.1,2.7,4.8,3.8
	c-0.8,2.5-1.2,5.3-1.3,8.2h-8C3.3,18.5,4.9,14.4,7.5,11z M25,18c3.1-0.1,6.1-0.9,8.9-2.2c0.6,2.2,1,4.7,1.1,7.2H25V18z M25,16V3.7
	c3.7,2.2,6.6,5.8,8.2,10.2C30.7,15.1,27.9,15.8,25,16z M23,16c-2.9-0.1-5.7-0.9-8.2-2.1c1.7-4.4,4.5-8,8.2-10.2V16z M23,18v5H13
	c0.1-2.6,0.4-5,1.1-7.2C16.9,17.1,19.9,17.8,23,18z M13,25h10v5c-3.1,0.1-6.1,0.9-8.9,2.2C13.5,30,13.1,27.6,13,25z M23,32v12.3
	c-3.7-2.2-6.6-5.8-8.2-10.2C17.3,32.9,20.1,32.2,23,32z M25,32c2.9,0.1,5.7,0.9,8.2,2.1c-1.7,4.4-4.5,8-8.2,10.2V32z M25,30v-5h10
	c-0.1,2.6-0.4,5-1.1,7.2C31.1,30.9,28.1,30.2,25,30z M39.2,9.5c-1.2,1.3-2.6,2.4-4.2,3.4c-1.5-3.9-3.8-7.1-6.9-9.5
	C32.4,4.3,36.3,6.5,39.2,9.5z M19.9,3.4c-3,2.4-5.4,5.6-6.9,9.5c-1.5-0.9-2.9-2.1-4.2-3.4C11.7,6.5,15.6,4.3,19.9,3.4z M8.8,38.5
	c1.2-1.3,2.7-2.4,4.2-3.4c1.5,3.9,3.8,7.1,6.9,9.5C15.6,43.7,11.7,41.5,8.8,38.5z M28.1,44.6c3-2.4,5.4-5.6,6.9-9.5
	c1.5,0.9,2.9,2.1,4.2,3.4C36.3,41.5,32.4,43.7,28.1,44.6z"/>
</svg>
