<?xml version="1.0" encoding="utf-8"?>
<!-- Generator: Adobe Illustrator 19.1.0, SVG Export Plug-In . SVG Version: 6.00 Build 0)  -->
<!DOCTYPE svg PUBLIC "-//W3C//DTD SVG 1.1//EN" "http://www.w3.org/Graphics/SVG/1.1/DTD/svg11.dtd">
<svg version="1.1" id="Layer_49" xmlns="http://www.w3.org/2000/svg" xmlns:xlink="http://www.w3.org/1999/xlink" x="0px" y="0px"
	 width="48px" height="48px" viewBox="0 0 48 48" enable-background="new 0 0 48 48" xml:space="preserve">
<path fill="#231F20" d="M27,26v17c0,2.2,1.8,4,4,4h10c2.2,0,4-1.8,4-4V26c0-4.6-3.5-8.4-8-8.9V3h3c0.6,0,1-0.4,1-1s-0.4-1-1-1h-8
	c-0.6,0-1,0.4-1,1s0.4,1,1,1h3v14.1C30.5,17.6,27,21.4,27,26z M43,26v17c0,1.1-0.9,2-2,2H31c-1.1,0-2-0.9-2-2V26
	c0-3.5,2.6-6.4,6-6.9V24c0,0.6,0.4,1,1,1s1-0.4,1-1v-4.9C40.4,19.6,43,22.5,43,26z"/>
<path fill="#231F20" d="M3,5v17c0,4.6,3.5,8.4,8,8.9V45H8c-0.6,0-1,0.4-1,1s0.4,1,1,1h8c0.6,0,1-0.4,1-1s-0.4-1-1-1h-3V30.9
	c4.5-0.5,8-4.3,8-8.9V5c0-2.2-1.8-4-4-4H7C4.8,1,3,2.8,3,5z M5,5c0-1.1,0.9-2,2-2h10c1.1,0,2,0.9,2,2v17c0,3.5-2.6,6.4-6,6.9V24
	c0-0.6-0.4-1-1-1s-1,0.4-1,1v4.9c-3.4-0.5-6-3.4-6-6.9V5z"/>
</svg>
