<?xml version="1.0" encoding="utf-8"?>
<!-- Generator: Adobe Illustrator 19.1.0, SVG Export Plug-In . SVG Version: 6.00 Build 0)  -->
<!DOCTYPE svg PUBLIC "-//W3C//DTD SVG 1.1//EN" "http://www.w3.org/Graphics/SVG/1.1/DTD/svg11.dtd">
<svg version="1.1" id="Layer_49" xmlns="http://www.w3.org/2000/svg" xmlns:xlink="http://www.w3.org/1999/xlink" x="0px" y="0px"
	 width="48px" height="48px" viewBox="0 0 48 48" enable-background="new 0 0 48 48" xml:space="preserve">
<path fill="#231F20" d="M46,37h-1V14c0-0.6-0.4-1-1-1H32.5L24.8,1.4C24.6,1.2,24.3,1,24,1H8C5.2,1,3,3.2,3,6v31H2c-0.6,0-1,0.4-1,1
	v8c0,0.6,0.4,1,1,1h44c0.6,0,1-0.4,1-1v-8C47,37.4,46.6,37,46,37z M36,33c-0.6,0-1,0.4-1,1v3h-6v-3c0-0.6-0.4-1-1-1s-1,0.4-1,1v3h-6
	v-3c0-0.6-0.4-1-1-1s-1,0.4-1,1v3h-6v-3c0-0.6-0.4-1-1-1s-1,0.4-1,1v3H5V27h38v10h-6v-3C37,33.4,36.6,33,36,33z M43,25h-6v-3
	c0-0.6-0.4-1-1-1s-1,0.4-1,1v3h-6v-3c0-0.6-0.4-1-1-1s-1,0.4-1,1v3h-6v-3c0-0.6-0.4-1-1-1s-1,0.4-1,1v3h-6v-3c0-0.6-0.4-1-1-1
	s-1,0.4-1,1v3H5V15h27h11V25z M8,3h15.5l6.7,10H21v-3c0-0.6-0.4-1-1-1s-1,0.4-1,1v3h-6v-3c0-0.6-0.4-1-1-1s-1,0.4-1,1v3H5V6
	C5,4.3,6.3,3,8,3z M45,45H3v-6h1h40h1V45z"/>
</svg>
