<svg xmlns="http://www.w3.org/2000/svg" xmlns:xlink="http://www.w3.org/1999/xlink" x="0px" y="0px" width="48px" height="48px" viewBox="0 0 48 48"><g >
<circle fill="#BFDEE0" cx="24" cy="24" r="23"/>
<circle fill="#5A7A84" cx="24" cy="10" r="5"/>
<path fill-rule="evenodd" clip-rule="evenodd" fill="#335262" d="M20.9966965,17C18.2370987,17,16,19.2295895,16,22.0038109
	v6.7917995c0,0.5547104,0.417099,1.1712494,0.9328003,1.3774986L19,31l0.9164963,10.9975281
	C19.9626007,42.551178,20.4530029,43,20.9970016,43h6.0059967c0.5505981,0,1.0350037-0.455761,1.0805054-1.0024719L29,31
	l2.0507965-0.6835899C31.5749969,30.1416607,32,29.5525093,32,29.0014992v-6.9939594C32,19.2419491,29.7584,17,27.0033035,17
	H20.9966965z"/>
</g></svg>