<svg xmlns="http://www.w3.org/2000/svg" xmlns:xlink="http://www.w3.org/1999/xlink" x="0px" y="0px" width="48px" height="48px" viewBox="0 0 48 48"><g >
<path fill-rule="evenodd" clip-rule="evenodd" fill="#444444" d="M14,47c-2.2089996,0-4-1.8724098-4-4.1818161V5
	c0-2.2091391,1.7908611-4,4-4h20c2.2089996,0,4,1.8724098,4,4.1818199v37.636364C38,45.1275902,36.2089996,47,34,47H14z"/>
<path fill-rule="evenodd" clip-rule="evenodd" fill="#B3B3B3" d="M22,43c0-1.1049995,0.8959999-2,2-2s2,0.8950005,2,2
	s-0.8959999,2-2,2S22,44.1049995,22,43"/>
<path fill-rule="evenodd" clip-rule="evenodd" fill="#42A6DD" d="M12,5.9991417C12,5.4473305,12.4474688,5,13.0006952,5h21.9986153
	C35.5519714,5,36,5.4549217,36,5.9991417v32.0017166C36,38.5526695,35.5525284,39,34.9993095,39H13.0006952
	C12.4480257,39,12,38.5450745,12,38.0008583V5.9991417z"/>
<path fill-rule="evenodd" clip-rule="evenodd" fill="#FFFFFF" d="M26,24h-4c-2.761425,0-5,2.2385807-5,5
	c0,0.5522804,0.4499493,1,1.0068455,1h11.9863052C30.5492191,30,31,29.5468102,31,29C31,26.2385807,28.7614193,24,26,24z"/>
<circle fill-rule="evenodd" clip-rule="evenodd" fill="#FFFFFF" cx="24" cy="18" r="4"/>
</g></svg>