<svg xmlns="http://www.w3.org/2000/svg" xmlns:xlink="http://www.w3.org/1999/xlink" x="0px" y="0px" width="48px" height="48px" viewBox="0 0 48 48"><g >
<rect x="17" y="24" fill-rule="evenodd" clip-rule="evenodd" fill="#DAC2A7" width="12" height="15"/>
<path fill-rule="evenodd" clip-rule="evenodd" fill="#EAD8C5" d="M34,12v8c0,6.0650005-4.9349995,11-11,11s-11-4.9349995-11-11v-8
	H34z"/>
<path fill-rule="evenodd" clip-rule="evenodd" fill="#444444" d="M45,44.0092545
	c0-1.6619644-1.2289314-3.5469093-2.7504997-4.2125969L29,34c-1.6879997,1.25-3.7539997,2-6,2s-4.3120003-0.75-5.9820004-2
	L3.753592,39.7966576C2.232825,40.4612465,1,42.3496704,1,44.0092545v2.9878159C1,47.550972,1.4498156,48,2.001672,48h41.9966583
	C44.5515404,48,45,47.5621185,45,46.9970703V44.0092545z"/>
<path fill-rule="evenodd" clip-rule="evenodd" fill="#C6A279" d="M12,11.9989014
	c0-3.3131027,2.5352898-6.9043617,5.6539803-8.0181808l7.4057007-2.6448898
	c0.5193291-0.1854706,1.1393986,0.0623283,1.3841782,0.551899L28,5c3.3137093,0,6,2.6930313,6,6v6c0-2.7614212-2.2385807-5-5-5H17
	c-2.7614202,0-5,2.2385788-5,5V11.9989014z"/>
<circle fill="#72C472" cx="39" cy="37" r="8"/>
<path fill="#FFFFFF" d="M42,36h-2v-2c0-0.5523071-0.4476929-1-1-1s-1,0.4476929-1,1v2h-2c-0.5523071,0-1,0.4476929-1,1
	c0,0.5522461,0.4476929,1,1,1h2v2c0,0.5522461,0.4476929,1,1,1s1-0.4477539,1-1v-2h2c0.5523071,0,1-0.4477539,1-1
	C43,36.4476929,42.5523071,36,42,36z"/>
</g></svg>