<svg xmlns="http://www.w3.org/2000/svg" xmlns:xlink="http://www.w3.org/1999/xlink" x="0px" y="0px" width="48px" height="48px" viewBox="0 0 48 48"><g >
<path fill="#42A6DD" d="M46.0043945,0h-9.0087891C36.4456787,0,36,0.4433594,36,1.0092773v1.9813232
	C36,3.5480957,36.4379272,4,37.0029297,4h3.1689453l-6.104187,6.104248C32.0308838,8.7783203,29.6063232,8,27,8v4
	c4.9624023,0,9,4.0371094,9,9s-4.0375977,9-9,9s-9-4.0371094-9-9h-4c0,7.1679688,5.831543,13,13,13s13-5.8320312,13-13
	c0-3.1193848-1.1060791-5.9844971-2.944519-8.2272949L43,6.828125v3.1689453C43,10.5510254,43.4434204,11,44.0093994,11h1.9812012
	C46.5480957,11,47,10.5551758,47,10.0043945V0.9956055C47,0.4458008,46.5552368,0,46.0043945,0z"/>
<path fill-rule="evenodd" clip-rule="evenodd" fill="#ED69AB" d="M27,21c0-7.1793213-5.8206787-13-13-13S1,13.8206787,1,21
	c0,6.4973145,4.772644,11.8662109,11,12.8305664V40H9.0025024C8.4558105,40,8,40.4519043,8,41.0092773v1.9813232
	C8,43.5566406,8.4487915,44,9.0025024,44H12v3c0,0.5452881,0.4519043,1,1.0093994,1h1.9812012C15.5565796,48,16,47.5522461,16,47v-3
	h2.9974976C19.5441895,44,20,43.5480957,20,42.9906006v-1.9813232C20,40.4433594,19.5512085,40,18.9974976,40H16v-6.1694336
	C22.227356,32.8662109,27,27.4973145,27,21z M5,21c0-4.9702148,4.0297852-9,9-9s9,4.0297852,9,9s-4.0297852,9-9,9S5,25.9702148,5,21
	z"/>
<path fill="#43A6DD" d="M27,12V8c-7.168457,0-13,5.8320312-13,13h4C18,16.0371094,22.0375977,12,27,12z"/>
</g></svg>