<svg xmlns="http://www.w3.org/2000/svg" xmlns:xlink="http://www.w3.org/1999/xlink" x="0px" y="0px" width="48px" height="48px" viewBox="0 0 48 48"><g >
<path fill="#42A6DD" d="M42.0043945,5h-9.0087891C32.4457397,5,32,5.4433594,32,6.0092773v1.9813232
	C32,8.5480957,32.4379272,9,33.0029297,9h3.1686401l-7.0852661,7.0852051C26.5629272,14.1577148,23.4202271,13,20,13
	c-8.2838135,0-15,6.7161865-15,15s6.7161865,15,15,15s15-6.7161865,15-15c0-3.420166-1.1577759-6.5629883-3.0852661-9.0864258
	L39,11.8283691v3.1687012C39,15.5510254,39.4434204,16,40.0093994,16h1.9812012C42.5480957,16,43,15.5551758,43,15.0043945
	V5.9956055C43,5.4458008,42.5552368,5,42.0043945,5z M20,39c-6.074707,0-11-4.925293-11-11s4.925293-11,11-11s11,4.925293,11,11
	S26.074707,39,20,39z"/>
</g></svg>