<svg xmlns="http://www.w3.org/2000/svg" xmlns:xlink="http://www.w3.org/1999/xlink" x="0px" y="0px" width="48px" height="48px" viewBox="0 0 48 48"><g >
<circle fill="#B3B3B3" cx="24" cy="24" r="23"/>
<path fill-rule="evenodd" clip-rule="evenodd" fill="#444444" d="M14,18c0-5.52285,4.47715-10,10-10s10,4.47715,10,10v8.9934998
	C34,29.2062302,32.2075272,31,30.0007706,31H17.9992294C15.7905197,31,14,29.2060509,14,26.9934998V18z"/>
<rect x="19" y="24" fill-rule="evenodd" clip-rule="evenodd" fill="#EAC3A2" width="10" height="11.4130402"/>
<path fill-rule="evenodd" clip-rule="evenodd" fill="#ED69AB" d="M37.309082,35.154541L29,31c0,0-2,2-5,2s-5-2-5-2
	l-8.309082,4.154541C9.1981201,35.9009399,8,37.8392944,8,39.4914551v1.0230103C12.1401367,44.5264282,17.7797241,47,24,47
	s11.8598633-2.4735718,16-6.4855347v-1.0230103C40,37.8416748,38.7952271,35.897583,37.309082,35.154541z"/>
<path fill-rule="evenodd" clip-rule="evenodd" fill="#EAD8C5" d="M16,19.5454483V21c0,4.4109097,3.5890903,8,8,8s8-3.5890903,8-8
	v-1.4545517c0-1.2049789-0.9768295-2.1818199-2.1818199-2.1818199c-2.533041,0-4.730011-1.4388599-5.8181801-3.5438499
	c-1.0881691,2.10499-3.2851391,3.5438499-5.8181801,3.5438499C16.9768295,17.3636284,16,18.3404694,16,19.5454483z"/>
</g></svg>