<svg xmlns="http://www.w3.org/2000/svg" xmlns:xlink="http://www.w3.org/1999/xlink" x="0px" y="0px" width="48px" height="48px" viewBox="0 0 48 48"><g >
<path fill-rule="evenodd" clip-rule="evenodd" fill="#444444" d="M11,42V14c0-7.1800003,5.8199997-13,13-13s13,5.8199997,13,13v28
	H11z"/>
<rect x="18" y="24" fill-rule="evenodd" clip-rule="evenodd" fill="#EAC3A2" width="12" height="15"/>
<path fill-rule="evenodd" clip-rule="evenodd" fill="#8680D8" d="M40.6829987,39.3419991L30,34c-1.6879997,1.25-3.7539997,2-6,2
	s-4.3120003-0.75-5.9820004-2L7.3169999,39.3419991C5.2839999,40.3580017,4,42.4360008,4,44.7080002v2.2864037
	C4,47.549778,4.4492188,48,5.0087748,48h37.9824448C43.5483589,48,44,47.5560265,44,46.9944038v-2.2864037
	C44,42.4360008,42.7159996,40.3580017,40.6829987,39.3419991z"/>
<path fill-rule="evenodd" clip-rule="evenodd" fill="#F1D9C5" d="M13,17v2c0,6.0650005,4.9350014,11,11,11s11-4.9349995,11-11v-2
	c0-1.6568508-1.3431473-3-3-3c-3.4829292,0-6.5037708-1.9784393-8-4.8727989C22.5037708,12.0215607,19.4829292,14,16,14
	C14.3431501,14,13,15.3431492,13,17z"/>
<path fill="#FFFFFF" d="M15.5362549,35.2388916l1.9467773,4.4976807c0.2560425,0.6257324,1.0463257,0.8223267,1.5656738,0.3894653
	L24,36c-2.2459717,0-4.3120117-0.75-5.9819946-2L15.5362549,35.2388916z"/>
<path fill="#FFFFFF" d="M30,34c-1.6879883,1.25-3.7539673,2-6,2l4.951355,4.1260986
	c0.5193481,0.4328003,1.3096313,0.2362061,1.5656738-0.3894653l1.9492188-4.503418L30,34z"/>
</g></svg>