<svg xmlns="http://www.w3.org/2000/svg" xmlns:xlink="http://www.w3.org/1999/xlink" x="0px" y="0px" width="48px" height="48px" viewBox="0 0 48 48"><g >
<path fill-rule="evenodd" clip-rule="evenodd" fill="#C6A279" d="M16.99757,31C13.6852036,31,11,28.3252907,11,25V14
	c0-7.1800003,5.8199997-13,13-13s13,5.8199997,13,13v11c0,3.3155499-2.6845322,6-5.99757,6H16.99757z"/>
<rect x="18" y="23" fill-rule="evenodd" clip-rule="evenodd" fill="#EAC3A2" width="12" height="22"/>
<path fill-rule="evenodd" clip-rule="evenodd" fill="#444444" d="M40.6829987,38.3419991L30,33l-6,12l-5.9820004-12
	L7.3169999,38.3419991C5.2839999,39.3580017,4,41.4360008,4,43.7080002v2.2864037C4,46.549778,4.4492188,47,5.0087748,47h37.9824448
	C43.5483589,47,44,46.5560265,44,45.9944038v-2.2864037C44,41.4360008,42.7159996,39.3580017,40.6829987,38.3419991z"/>
<polygon fill-rule="evenodd" clip-rule="evenodd" fill="#FFFFFF" points="18.0179996,33 14,39 24,45 "/>
<polygon fill-rule="evenodd" clip-rule="evenodd" fill="#FFFFFF" points="29.9910011,33 34,39 24.0089989,45 "/>
<path fill-rule="evenodd" clip-rule="evenodd" fill="#F1D9C5" d="M13,17.8727989v2c0,6.0650005,4.9350014,11,11,11
	s11-4.9349995,11-11v-2c0-1.6568508-1.3431473-3-3-3c-3.4829292,0-6.5037708-1.9784393-8-4.8727989
	c-1.4962292,2.8943596-4.5170708,4.8727989-8,4.8727989C14.3431501,14.8727989,13,16.2159481,13,17.8727989z"/>
<path fill-rule="evenodd" clip-rule="evenodd" fill="#444444" d="M36,16v1c0,2.7614231-2.238575,5-5,5h-1
	c-2.4190006,0-4.4360008-1.7180004-4.8990002-4h-0.0009995C25,17.4120007,24.552,17,24,17s-1.0200005,0.4510002-1.1000004,1
	h-0.0009995C22.4360008,20.2819996,20.4190006,22,18,22h-1c-2.7614241,0-5-2.2385769-5-5v-1c0-1.1045694,0.8954306-2,2-2h20
	C35.1045685,14,36,14.8954306,36,16z"/>
</g></svg>