<svg xmlns="http://www.w3.org/2000/svg" xmlns:xlink="http://www.w3.org/1999/xlink" x="0px" y="0px" width="48px" height="48px" viewBox="0 0 48 48"><g >
<rect x="17" y="23.9999981" fill-rule="evenodd" clip-rule="evenodd" fill="#DAC2A7" width="12" height="15"/>
<path fill-rule="evenodd" clip-rule="evenodd" fill="#EAD8C5" d="M34,11.9999981v8c0,6.0650005-4.9349995,11-11,11
	s-11-4.9349995-11-11v-8H34z"/>
<path fill-rule="evenodd" clip-rule="evenodd" fill="#444444" d="M45,44.0092506
	c0-1.6619644-1.2289314-3.5469093-2.7504997-4.2125969L29,33.9999962c-1.6879997,1.25-3.7539997,2-6,2s-4.3120003-0.75-5.9820004-2
	L3.753592,39.7966537C2.232825,40.4612427,1,42.3496666,1,44.0092506v2.9878197c0,0.5539017,0.4498156,1.0029259,1.001672,1.0029259
	h41.9966583C44.5515404,47.9999962,45,47.5621147,45,46.9970703V44.0092506z"/>
<path fill-rule="evenodd" clip-rule="evenodd" fill="#C6A279" d="M12,11.9988995
	c0-3.3131027,2.5352898-6.9043617,5.6539803-8.0181808l7.4057007-2.6448898
	c0.5193291-0.1854706,1.1393986,0.0623283,1.3841782,0.551899L28,4.9999981c3.3137093,0,6,2.6930313,6,6v6
	c0-2.7614212-2.2385807-5-5-5H17c-2.7614202,0-5,2.2385788-5,5V11.9988995z"/>
<circle fill="#E86C60" cx="39" cy="36.9999962" r="8"/>
<path fill="#FFFFFF" d="M42,37.9999962h-6c-0.5522842,0-1-0.4477119-1-0.9999962v-0.0000038c0-0.5522842,0.4477158-1,1-1h6
	c0.5522842,0,1,0.4477158,1,1V37C43,37.5522842,42.5522842,37.9999962,42,37.9999962z"/>
</g></svg>