<svg xmlns="http://www.w3.org/2000/svg" xmlns:xlink="http://www.w3.org/1999/xlink" x="0px" y="0px" width="48px" height="48px" viewBox="0 0 48 48"><g >
<path fill="#B4B4B4" d="M43,47H5c-2.2091391,0-4-1.7908592-4-4V5c0-2.2091391,1.7908609-4,4-4h38c2.2091408,0,4,1.7908609,4,4v38
	C47,45.2091408,45.2091408,47,43,47z"/>
<rect x="19" y="23.73913" fill-rule="evenodd" clip-rule="evenodd" fill="#DAC2A7" width="10" height="11.4130402"/>
<path fill-rule="evenodd" clip-rule="evenodd" fill="#F1D9C5" d="M24,29c-4.4182796,0-8-3.5817204-8-8v-3
	c0-4.4182816,3.5817204-8,8-8s8,3.5817184,8,8v3C32,25.4182796,28.4182796,29,24,29z"/>
<path fill-rule="evenodd" clip-rule="evenodd" fill="#42A6DD" d="M38.2770386,35.2519531L29,31c0,0-2,2-5,2s-5-2-5-2
	l-9.2769775,4.2519531C8.2166748,35.9423218,7,37.8392944,7,39.4914551v7.5081177L7.000061,47H40.999939L41,46.9995728v-7.5081177
	C41,37.8416748,39.7808838,35.9412231,38.2770386,35.2519531z"/>
<path fill-rule="evenodd" clip-rule="evenodd" fill="#444444" d="M28,14c2.2091408,0,4,1.7908592,4,4v-5.000061
	C32,10.7996483,30.2085896,9,27.9987698,9H27.5l-1.0499496-2.0998993c-0.2539501-0.5079002-0.8632202-0.7348289-1.3729-0.5309601
	l-6.2915897,2.5166397C17.2462902,9.5014801,16,11.3438911,16,13.0016708V18c0-2.2091408,1.7908592-4,4-4H28z"/>
</g></svg>