<svg xmlns="http://www.w3.org/2000/svg" xmlns:xlink="http://www.w3.org/1999/xlink" x="0px" y="0px" width="48px" height="48px" viewBox="0 0 48 48"><g >
<rect x="25" y="18" fill-rule="evenodd" clip-rule="evenodd" fill="#EAC3A2" width="10" height="12"/>
<path fill-rule="evenodd" clip-rule="evenodd" fill="#42A6DD" d="M14.9927902,47C14.4444904,47,14,46.5586662,14,45.9926872
	V33.5071716c0-1.6608124,1.1981297-3.6062412,2.6909008-4.3526211L25,25c0,0,2,2,5,2s5-2,5-2l8.3091011,4.1545506
	C44.7952385,29.8976192,46,31.8502598,46,33.5071716v12.4855156C46,46.5490112,45.5476418,47,45.0072098,47H14.9927902z"/>
<path fill-rule="evenodd" clip-rule="evenodd" fill="#EAD8C5" d="M38,15c0,4.4182796-3.5817184,8-8,8s-8-3.5817204-8-8v-3
	c0-4.4182816,3.5817204-8,8-8s8,3.5817184,8,8V15z"/>
<path fill-rule="evenodd" clip-rule="evenodd" fill="#444444" d="M38,13V7.999939C38,5.7996483,36.2085915,4,33.9987717,4H33.5
	l-1.0499496-2.0998993c-0.253952-0.5079002-0.8632202-0.7348289-1.3729-0.5309601l-6.2915897,2.5166397
	C23.2462902,4.5014801,22,6.3438911,22,8.0016708V13c0-2.2091408,1.7908592-4,4-4h8C36.2091408,9,38,10.7908592,38,13z"/>
<path fill-rule="evenodd" clip-rule="evenodd" fill="#87613E" d="M8,22c0-5.52285,4.47715-10,10-10s10,4.47715,10,10v7.9934998
	C28,32.2062302,26.2075291,34,24.0007706,34H11.9992304C9.7905159,34,8,32.2060509,8,29.9934998V22z"/>
<rect x="13" y="28" fill-rule="evenodd" clip-rule="evenodd" fill="#EAC3A2" width="10" height="11.413043"/>
<path fill-rule="evenodd" clip-rule="evenodd" fill="#ED69AB" d="M2.9927864,47C2.4444857,47,2,46.5532303,2,45.9986191V43.502655
	c0-1.6583214,1.198133-3.6017227,2.6909027-4.3481064L13,35c0,0,2,2,5,2s5-2,5-2l8.3090992,4.1545486
	C32.7952423,39.8976212,34,41.8468056,34,43.502655v2.4959641C34,46.5516663,33.5476379,47,33.0072098,47H2.9927864z"/>
<path fill-rule="evenodd" clip-rule="evenodd" fill="#EAD8C5" d="M10,23.6355591v1.4545517c0,4.4109097,3.5890903,8,8,8
	s8-3.5890903,8-8v-1.4545517c0-1.2049789-0.9768295-2.1818199-2.1818199-2.1818199
	c-2.533041,0-4.730011-1.4388599-5.8181801-3.5438499c-1.0881691,2.10499-3.28514,3.5438499-5.8181801,3.5438499
	C10.9768333,21.4537392,10,22.4305801,10,23.6355591z"/>
</g></svg>