<svg xmlns="http://www.w3.org/2000/svg" xmlns:xlink="http://www.w3.org/1999/xlink" x="0px" y="0px" width="48px" height="48px" viewBox="0 0 48 48"><g >
<path fill-rule="evenodd" clip-rule="evenodd" fill="#ED69AB" d="M39,16c0-8.2838135-6.7161865-15-15-15S9,7.7161865,9,16
	c0,7.6040039,5.6641235,13.8713379,13,14.8513184V38h-3.9931641C17.4499512,38,17,38.4519043,17,39.0092773v1.9813232
	C17,41.5566406,17.4508057,42,18.0068359,42H22v4.005127C22,46.5490723,22.4519043,47,23.0093994,47h1.9812622
	C25.5566406,47,26,46.5546875,26,46.005127V42h3.9931641C30.5500488,42,31,41.5480957,31,40.9906006v-1.9813232
	C31,38.4433594,30.5492554,38,29.9931641,38H26v-7.1486816C33.3358765,29.8713379,39,23.6040039,39,16z M13,16
	c0-6.074707,4.925354-11,11-11c6.074707,0,11,4.925293,11,11s-4.925293,11-11,11C17.925354,27,13,22.074707,13,16z"/>
</g></svg>