<svg xmlns="http://www.w3.org/2000/svg" xmlns:xlink="http://www.w3.org/1999/xlink" x="0px" y="0px" width="48px" height="48px" viewBox="0 0 48 48"><g >
<path fill-rule="evenodd" clip-rule="evenodd" fill="#444444" d="M14.99757,31.0000019c-3.3123665,0-5.99757-2.6747093-5.99757-6
	v-11c0-7.1800003,5.8199997-13,13-13s13,5.8199997,13,13v11c0,3.3155499-2.6845322,6-5.99757,6H14.99757z"/>
<rect x="16" y="23" fill-rule="evenodd" clip-rule="evenodd" fill="#EAC3A2" width="12" height="17"/>
<path fill-rule="evenodd" clip-rule="evenodd" fill="#E0E0E0" d="M38.6829987,38.3419991L28,33l-6,6l-5.9820004-6
	L5.3169999,38.3419991C3.2839999,39.3580017,2,41.4360008,2,43.7080002v2.2864037C2,46.549778,2.4492188,47,3.008775,47h37.9824448
	C41.5483589,47,42,46.5560265,42,45.9944038v-2.2864037C42,41.4360008,40.7159996,39.3580017,38.6829987,38.3419991z"/>
<path fill-rule="evenodd" clip-rule="evenodd" fill="#F1D9C5" d="M11,16v2c0,6.0650005,4.9350004,11,11,11s11-4.9349995,11-11v-2
	c0-1.6568508-1.3431492-3-3-3c-3.4829292,0-6.5037708-1.9784393-8-4.8727989C20.5037708,11.0215607,17.4829292,13,14,13
	C12.3431501,13,11,14.3431492,11,16z"/>
<circle fill="#72C472" cx="38" cy="37" r="8"/>
<path fill="#FFFFFF" d="M41,36h-2v-2c0-0.5523071-0.4476929-1-1-1s-1,0.4476929-1,1v2h-2c-0.5523071,0-1,0.4476929-1,1
	c0,0.5522461,0.4476929,1,1,1h2v2c0,0.5522461,0.4476929,1,1,1s1-0.4477539,1-1v-2h2c0.5523071,0,1-0.4477539,1-1
	C42,36.4476929,41.5523071,36,41,36z"/>
</g></svg>