<svg xmlns="http://www.w3.org/2000/svg" xmlns:xlink="http://www.w3.org/1999/xlink" x="0px" y="0px" width="48px" height="48px" viewBox="0 0 48 48"><g >
<ellipse fill-rule="evenodd" clip-rule="evenodd" fill="#BADEFC" cx="24" cy="40" rx="22" ry="6"/>
<circle fill="#5A7A84" cx="24" cy="7" r="5"/>
<path fill-rule="evenodd" clip-rule="evenodd" fill="#335262" d="M20.9966965,14C18.2370987,14,16,16.2479191,16,19.0016308
	v7.8059101c0,0.5481186,0.4171371,1.1593189,0.9327698,1.3655682L19,29l0.9095001,10.004425
	C19.9595032,39.5542641,20.4530029,40,20.9970016,40h6.0059967c0.5505981,0,1.0373993-0.4448357,1.0875015-0.995575L29,29
	l2.0507965-0.6835899C31.5749969,28.1416607,32,27.5500507,32,26.9931507v-7.9981213C32,16.2363491,29.7584,14,27.0033035,14
	H20.9966965z"/>
</g></svg>