<svg xmlns="http://www.w3.org/2000/svg" xmlns:xlink="http://www.w3.org/1999/xlink" x="0px" y="0px" width="48px" height="48px" viewBox="0 0 48 48"><g >
<path fill="#BADEFC" d="M43,47H5c-2.2091391,0-4-1.7908592-4-4V5c0-2.2091391,1.7908609-4,4-4h38c2.2091408,0,4,1.7908609,4,4v38
	C47,45.2091408,45.2091408,47,43,47z"/>
<path fill-rule="evenodd" clip-rule="evenodd" fill="#335262" d="M38.2770386,35.2519531L29,31v-7.2608643H19V31
	l-9.2769775,4.2519531C8.2166748,35.9423218,7,37.8392944,7,39.4914551v7.5081177L7.000061,47H40.999939L41,46.9995728v-7.5081177
	C41,37.8416748,39.7808838,35.9412231,38.2770386,35.2519531z"/>
<path fill-rule="evenodd" clip-rule="evenodd" fill="#5A7A84" d="M24,29c-4.4182796,0-8-3.5817204-8-8v-3
	c0-4.4182816,3.5817204-8,8-8s8,3.5817184,8,8v3C32,25.4182796,28.4182796,29,24,29z"/>
</g></svg>