<svg xmlns="http://www.w3.org/2000/svg" xmlns:xlink="http://www.w3.org/1999/xlink" x="0px" y="0px" width="48px" height="48px" viewBox="0 0 48 48"><g >
<path fill-rule="evenodd" clip-rule="evenodd" fill="#87613E" d="M20,12c0-5.52285,4.47715-10,10-10s10,4.47715,10,10v7.9934998
	C40,22.2062302,38.2075272,24,36.0007706,24H23.9992294C21.7905159,24,20,22.2060509,20,19.9934998V12z"/>
<rect x="25" y="18" fill-rule="evenodd" clip-rule="evenodd" fill="#EAC3A2" width="10" height="12"/>
<path fill-rule="evenodd" clip-rule="evenodd" fill="#ED69AB" d="M14.9927902,47C14.4444904,47,14,46.5586662,14,45.9926872
	V33.5071716c0-1.6608124,1.1981297-3.6062412,2.6909008-4.3526211L25,25c0,0,2,2,5,2s5-2,5-2l8.3091011,4.1545506
	C44.7952385,29.8976192,46,31.8502598,46,33.5071716v12.4855156C46,46.5490112,45.5476418,47,45.0072098,47H14.9927902z"/>
<path fill-rule="evenodd" clip-rule="evenodd" fill="#EAD8C5" d="M22,13.6355591v1.4545517c0,4.4109097,3.5890903,8,8,8
	s8-3.5890903,8-8v-1.4545517c0-1.2049789-0.9768295-2.1818199-2.1818199-2.1818199
	c-2.5330391,0-4.730011-1.4388599-5.8181801-3.5438499c-1.0881691,2.10499-3.285141,3.5438499-5.8181801,3.5438499
	C22.9768333,11.4537392,22,12.4305801,22,13.6355591z"/>
<rect x="13" y="28" fill-rule="evenodd" clip-rule="evenodd" fill="#EAC3A2" width="10" height="11.413043"/>
<path fill-rule="evenodd" clip-rule="evenodd" fill="#42A6DD" d="M2.9927864,47C2.4444857,47,2,46.5532303,2,45.9986191V43.502655
	c0-1.6583214,1.198133-3.6017227,2.6909027-4.3481064L13,35c0,0,2,2,5,2s5-2,5-2l8.3090992,4.1545486
	C32.7952423,39.8976212,34,41.8468056,34,43.502655v2.4959641C34,46.5516663,33.5476379,47,33.0072098,47H2.9927864z"/>
<path fill-rule="evenodd" clip-rule="evenodd" fill="#EAD8C5" d="M26,25c0,4.4182796-3.5817184,8-8,8s-8-3.5817204-8-8v-3
	c0-4.4182816,3.5817204-8,8-8s8,3.5817184,8,8V25z"/>
<path fill-rule="evenodd" clip-rule="evenodd" fill="#444444" d="M26,23v-5.000061C26,15.7996483,24.2085915,14,21.9987717,14H21.5
	l-1.0499496-2.0998993c-0.253952-0.5079002-0.8632202-0.7348289-1.3729-0.5309601l-6.2915897,2.5166397
	C11.2462902,14.5014801,10,16.3438911,10,18.0016708V23c0-2.2091408,1.7908592-4,4-4h8C24.2091408,19,26,20.7908592,26,23z"/>
</g></svg>