<svg xmlns="http://www.w3.org/2000/svg" xmlns:xlink="http://www.w3.org/1999/xlink" x="0px" y="0px" width="48px" height="48px" viewBox="0 0 48 48"><g >
<rect x="17.9983292" y="24" fill-rule="evenodd" clip-rule="evenodd" fill="#EAC3A2" width="12" height="17"/>
<path fill-rule="evenodd" clip-rule="evenodd" fill="#F1D9C5" d="M34.9983292,12v8c0,6.0650005-4.9349995,11-11,11
	s-11-4.9349995-11-11v-8H34.9983292z"/>
<path fill-rule="evenodd" clip-rule="evenodd" fill="#C6A279" d="M12.9983292,11.9989014
	c0-3.3131027,2.5352898-6.9043617,5.6539803-8.0181808l7.4057007-2.6448898
	c0.5193291-0.1854706,1.1393986,0.0623283,1.3841782,0.551899L28.9983292,5c3.3137093,0,6,2.6930313,6,6v6
	c0-2.7614212-2.2385788-5-5-5h-12c-2.7614202,0-5,2.2385788-5,5V11.9989014z"/>
<path fill-rule="evenodd" clip-rule="evenodd" fill="#444444" d="M46,44.0092545
	c0-1.6619644-1.2289314-3.5469093-2.7504997-4.2125969L30,34l-6.0016708,6l-5.9803295-6L4.753592,39.7966576
	C3.232825,40.4612465,2,42.3496704,2,44.0092545v2.9878159C2,47.550972,2.4498155,48,3.001672,48h41.9966583
	C45.5515404,48,46,47.5621185,46,46.9970703V44.0092545z"/>
</g></svg>