<?xml version="1.0" encoding="utf-8"?>
<!-- Generator: Adobe Illustrator 20.1.0, SVG Export Plug-In . SVG Version: 6.00 Build 0)  -->
<!DOCTYPE svg PUBLIC "-//W3C//DTD SVG 1.1//EN" "http://www.w3.org/Graphics/SVG/1.1/DTD/svg11.dtd">
<svg version="1.1" id="Layer_1" xmlns="http://www.w3.org/2000/svg" xmlns:xlink="http://www.w3.org/1999/xlink" x="0px" y="0px"
	 width="48px" height="48px" viewBox="0 0 48 48" enable-background="new 0 0 48 48" xml:space="preserve">
<path d="M5,45c0,1.105,0.895,2,2,2h34c1.105,0,2-0.895,2-2V3c0-1.105-0.895-2-2-2H7C5.895,1,5,1.895,5,3V45z M21.172,16.929L24,14.1
	c2.729-2.729,7.17-2.729,9.9,0c2.729,2.729,2.729,7.171,0,9.9l-2.828,2.828c-2.729,2.729-7.17,2.729-9.9,0
	c-0.76-0.76-1.3-1.655-1.637-2.606L19.757,24c0.443-0.443,0.991-0.706,1.563-0.811c0.22,0.814,0.628,1.588,1.266,2.225
	c1.949,1.949,5.122,1.949,7.071,0l2.828-2.828c1.949-1.949,1.949-5.122,0-7.071c-1.949-1.949-5.122-1.949-7.071,0l-1.793,1.793
	c-0.888-0.174-1.794-0.206-2.692-0.111C21.01,17.107,21.086,17.015,21.172,16.929z M14.101,24l2.828-2.828
	c2.729-2.729,7.17-2.729,9.899,0c0.76,0.76,1.3,1.654,1.637,2.606L28.243,24c-0.443,0.443-0.991,0.706-1.563,0.811
	c-0.22-0.814-0.628-1.588-1.266-2.226c-1.949-1.949-5.122-1.949-7.071,0l-2.828,2.828c-1.949,1.949-1.949,5.122,0,7.071
	c1.949,1.949,5.122,1.949,7.071,0l1.793-1.793c0.888,0.174,1.794,0.206,2.691,0.111c-0.081,0.089-0.156,0.182-0.242,0.268L24,33.899
	c-2.729,2.729-7.17,2.729-9.899,0C11.371,31.17,11.372,26.729,14.101,24z"/>
</svg>
