<?xml version="1.0" encoding="utf-8"?>
<!-- Generator: Adobe Illustrator 20.1.0, SVG Export Plug-In . SVG Version: 6.00 Build 0)  -->
<!DOCTYPE svg PUBLIC "-//W3C//DTD SVG 1.1//EN" "http://www.w3.org/Graphics/SVG/1.1/DTD/svg11.dtd">
<svg version="1.1" id="Layer_1" xmlns="http://www.w3.org/2000/svg" xmlns:xlink="http://www.w3.org/1999/xlink" x="0px" y="0px"
	 width="48px" height="48px" viewBox="0 0 48 48" enable-background="new 0 0 48 48" xml:space="preserve">
<path d="M46,31H32c-0.552,0-1,0.448-1,1v3H17v-3c0-0.552-0.448-1-1-1H2c-0.552,0-1,0.448-1,1v13c0,1.105,0.895,2,2,2h42
	c1.105,0,2-0.895,2-2V32C47,31.448,46.552,31,46,31z"/>
<path d="M29,33v-4h12V2c0-0.552-0.448-1-1-1H8C7.448,1,7,1.448,7,2v27h12v4H29z M17,10h14c0.552,0,1,0.448,1,1s-0.448,1-1,1H17
	c-0.552,0-1-0.448-1-1S16.448,10,17,10z M17,21c-0.552,0-1-0.448-1-1s0.448-1,1-1h14c0.552,0,1,0.448,1,1s-0.448,1-1,1H17z"/>
</svg>
