<?xml version="1.0" encoding="utf-8"?>
<!-- Generator: Adobe Illustrator 20.1.0, SVG Export Plug-In . SVG Version: 6.00 Build 0)  -->
<!DOCTYPE svg PUBLIC "-//W3C//DTD SVG 1.1//EN" "http://www.w3.org/Graphics/SVG/1.1/DTD/svg11.dtd">
<svg version="1.1" id="Layer_1" xmlns="http://www.w3.org/2000/svg" xmlns:xlink="http://www.w3.org/1999/xlink" x="0px" y="0px"
	 width="48px" height="48px" viewBox="0 0 48 48" enable-background="new 0 0 48 48" xml:space="preserve">
<path d="M46,10H24.5l-5.701-7.6C18.611,2.148,18.314,2,18,2H2C1.448,2,1,2.448,1,3v39c0,2.209,1.791,4,4,4h38c2.209,0,4-1.791,4-4
	V11C47,10.448,46.552,10,46,10z M32.277,29.217l-7.564,7.685C24.525,37.093,24.268,37.2,24,37.2s-0.525-0.107-0.713-0.299
	l-7.562-7.685c-2.295-2.331-2.295-6.125,0-8.457c1.256-1.277,2.995-1.907,4.763-1.73c1.337,0.133,2.565,0.714,3.512,1.637
	c0.946-0.923,2.175-1.503,3.512-1.637c1.77-0.18,3.506,0.453,4.763,1.73C34.569,23.091,34.57,26.885,32.277,29.217z"/>
</svg>
