<?xml version="1.0" encoding="utf-8"?>
<!-- Generator: Adobe Illustrator 20.1.0, SVG Export Plug-In . SVG Version: 6.00 Build 0)  -->
<!DOCTYPE svg PUBLIC "-//W3C//DTD SVG 1.1//EN" "http://www.w3.org/Graphics/SVG/1.1/DTD/svg11.dtd">
<svg version="1.1" id="Layer_1" xmlns="http://www.w3.org/2000/svg" xmlns:xlink="http://www.w3.org/1999/xlink" x="0px" y="0px"
	 width="48px" height="48px" viewBox="0 0 48 48" enable-background="new 0 0 48 48" xml:space="preserve">
<path d="M5,45c0,1.105,0.895,2,2,2h34c1.105,0,2-0.895,2-2V3c0-1.105-0.895-2-2-2H7C5.895,1,5,1.895,5,3V45z M15.293,25.293
	c0.391-0.391,1.023-0.391,1.414,0L20,28.586l11.293-11.293c0.391-0.391,1.023-0.391,1.414,0s0.391,1.023,0,1.414l-12,12
	C20.512,30.902,20.256,31,20,31s-0.512-0.098-0.707-0.293l-4-4C14.902,26.316,14.902,25.684,15.293,25.293z"/>
</svg>
