<?xml version="1.0" encoding="utf-8"?>
<!-- Generator: Adobe Illustrator 20.1.0, SVG Export Plug-In . SVG Version: 6.00 Build 0)  -->
<!DOCTYPE svg PUBLIC "-//W3C//DTD SVG 1.1//EN" "http://www.w3.org/Graphics/SVG/1.1/DTD/svg11.dtd">
<svg version="1.1" id="Layer_1" xmlns="http://www.w3.org/2000/svg" xmlns:xlink="http://www.w3.org/1999/xlink" x="0px" y="0px"
	 width="48px" height="48px" viewBox="0 0 48 48" enable-background="new 0 0 48 48" xml:space="preserve">
<path d="M38.949,3.684C38.813,3.275,38.43,3,38,3H10C9.57,3,9.187,3.275,9.051,3.684l-8,23.999C1.034,27.789,1.017,27.894,1,28v15
	c0,1.105,0.895,2,2,2h42c1.105,0,2-0.895,2-2V28c-0.017-0.106-0.034-0.211-0.051-0.317L38.949,3.684z M32,27c-0.552,0-1,0.448-1,1v5
	H17v-5c0-0.552-0.448-1-1-1H3.387l7.333-22h26.559l7.333,22H32z"/>
<path d="M31.293,10.293L20,21.586l-3.293-3.293c-0.391-0.391-1.023-0.391-1.414,0s-0.391,1.023,0,1.414l4,4
	C19.488,23.902,19.744,24,20,24s0.512-0.098,0.707-0.293l12-12c0.391-0.391,0.391-1.023,0-1.414S31.684,9.902,31.293,10.293z"/>
</svg>
