<?xml version="1.0" encoding="utf-8"?>
<!-- Generator: Adobe Illustrator 20.1.0, SVG Export Plug-In . SVG Version: 6.00 Build 0)  -->
<!DOCTYPE svg PUBLIC "-//W3C//DTD SVG 1.1//EN" "http://www.w3.org/Graphics/SVG/1.1/DTD/svg11.dtd">
<svg version="1.1" id="Layer_1" xmlns="http://www.w3.org/2000/svg" xmlns:xlink="http://www.w3.org/1999/xlink" x="0px" y="0px"
	 width="48px" height="48px" viewBox="0 0 48 48" enable-background="new 0 0 48 48" xml:space="preserve">
<path d="M5,45c0,1.105,0.895,2,2,2h34c1.105,0,2-0.895,2-2V3c0-1.105-0.895-2-2-2H7C5.895,1,5,1.895,5,3V45z M19,19
	c0.332,0,0.668,0.032,1.015,0.099C21.417,16.583,24.073,15,27,15c4.411,0,8,3.589,8,8s-3.589,8-8,8h-8c-3.309,0-6-2.691-6-6
	S15.691,19,19,19z"/>
</svg>
