<?xml version="1.0" encoding="utf-8"?>
<!-- Generator: Adobe Illustrator 20.1.0, SVG Export Plug-In . SVG Version: 6.00 Build 0)  -->
<!DOCTYPE svg PUBLIC "-//W3C//DTD SVG 1.1//EN" "http://www.w3.org/Graphics/SVG/1.1/DTD/svg11.dtd">
<svg version="1.1" id="Layer_1" xmlns="http://www.w3.org/2000/svg" xmlns:xlink="http://www.w3.org/1999/xlink" x="0px" y="0px"
	 width="48px" height="48px" viewBox="0 0 48 48" enable-background="new 0 0 48 48" xml:space="preserve">
<path d="M46,10H24.5l-5.701-7.6C18.611,2.148,18.314,2,18,2H2C1.448,2,1,2.448,1,3v39c0,2.209,1.791,4,4,4h38c2.209,0,4-1.791,4-4
	V11C47,10.448,46.552,10,46,10z M26.882,35.017l-2.828,2.828c-2.729,2.729-7.17,2.729-9.899,0c-2.729-2.729-2.729-7.17,0-9.899
	l2.828-2.828c2.729-2.729,7.17-2.729,9.899,0c0.76,0.76,1.3,1.654,1.637,2.606l-0.223,0.223c-0.443,0.443-0.991,0.706-1.563,0.811
	c-0.22-0.814-0.628-1.588-1.266-2.226c-1.949-1.949-5.122-1.949-7.071,0l-2.828,2.828c-1.949,1.949-1.949,5.122,0,7.071
	c1.949,1.949,5.122,1.949,7.071,0l1.793-1.793c0.888,0.174,1.794,0.206,2.691,0.111C27.043,34.839,26.968,34.931,26.882,35.017z
	 M33.953,27.946l-2.828,2.828c-2.729,2.729-7.17,2.729-9.9,0c-0.76-0.76-1.3-1.655-1.637-2.606l0.223-0.223
	c0.443-0.443,0.991-0.706,1.563-0.811c0.22,0.814,0.628,1.588,1.266,2.225c1.949,1.949,5.122,1.949,7.071,0l2.828-2.828
	c1.949-1.949,1.949-5.122,0-7.071c-1.949-1.949-5.122-1.949-7.071,0l-1.793,1.793c-0.888-0.174-1.794-0.206-2.692-0.111
	c0.081-0.089,0.156-0.182,0.242-0.268l2.828-2.828c2.729-2.729,7.17-2.729,9.9,0C36.682,20.776,36.682,25.217,33.953,27.946z"/>
</svg>
