<?xml version="1.0" encoding="utf-8"?>
<!-- Generator: Adobe Illustrator 20.1.0, SVG Export Plug-In . SVG Version: 6.00 Build 0)  -->
<!DOCTYPE svg PUBLIC "-//W3C//DTD SVG 1.1//EN" "http://www.w3.org/Graphics/SVG/1.1/DTD/svg11.dtd">
<svg version="1.1" id="Layer_1" xmlns="http://www.w3.org/2000/svg" xmlns:xlink="http://www.w3.org/1999/xlink" x="0px" y="0px"
	 width="48px" height="48px" viewBox="0 0 48 48" enable-background="new 0 0 48 48" xml:space="preserve">
<path d="M26.535,9l-3.703-5.555C22.646,3.167,22.334,3,22,3H7C6.447,3,6,3.448,6,4v11h36v-5c0-0.552-0.447-1-1-1H26.535z"/>
<path d="M7,45h34c0.479,0,0.892-0.34,0.982-0.811l5-26c0.056-0.293-0.021-0.596-0.212-0.826C46.581,17.133,46.298,17,46,17H2
	c-0.298,0-0.581,0.133-0.771,0.363c-0.19,0.23-0.268,0.533-0.212,0.826l5,26C6.108,44.66,6.521,45,7,45z"/>
</svg>
