<?xml version="1.0" encoding="utf-8"?>
<!-- Generator: Adobe Illustrator 20.1.0, SVG Export Plug-In . SVG Version: 6.00 Build 0)  -->
<!DOCTYPE svg PUBLIC "-//W3C//DTD SVG 1.1//EN" "http://www.w3.org/Graphics/SVG/1.1/DTD/svg11.dtd">
<svg version="1.1" id="Layer_1" xmlns="http://www.w3.org/2000/svg" xmlns:xlink="http://www.w3.org/1999/xlink" x="0px" y="0px"
	 width="48px" height="48px" viewBox="0 0 48 48" enable-background="new 0 0 48 48" xml:space="preserve">
<path d="M7,47h34c1.105,0,2-0.895,2-2V3c0-1.105-0.895-2-2-2H7C5.895,1,5,1.895,5,3v42C5,46.105,5.895,47,7,47z M14,13h20
	c0.552,0,1,0.448,1,1s-0.448,1-1,1H14c-0.552,0-1-0.448-1-1S13.448,13,14,13z M14,23h20c0.552,0,1,0.448,1,1s-0.448,1-1,1H14
	c-0.552,0-1-0.448-1-1S13.448,23,14,23z M14,33h8c0.552,0,1,0.448,1,1s-0.448,1-1,1h-8c-0.552,0-1-0.448-1-1S13.448,33,14,33z"/>
</svg>
