<?xml version="1.0" encoding="utf-8"?>
<!-- Generator: Adobe Illustrator 20.1.0, SVG Export Plug-In . SVG Version: 6.00 Build 0)  -->
<!DOCTYPE svg PUBLIC "-//W3C//DTD SVG 1.1//EN" "http://www.w3.org/Graphics/SVG/1.1/DTD/svg11.dtd">
<svg version="1.1" id="Layer_1" xmlns="http://www.w3.org/2000/svg" xmlns:xlink="http://www.w3.org/1999/xlink" x="0px" y="0px"
	 width="48px" height="48px" viewBox="0 0 48 48" enable-background="new 0 0 48 48" xml:space="preserve">
<path d="M5,45c0,1.105,0.895,2,2,2h34c1.105,0,2-0.895,2-2V3c0-1.105-0.895-2-2-2H7C5.895,1,5,1.895,5,3V45z M15,20
	c0-0.552,0.448-1,1-1h5.723l9.762-5.857c0.309-0.186,0.694-0.191,1.007-0.013C32.806,13.307,33,13.64,33,14v20
	c0,0.36-0.194,0.693-0.507,0.87C32.34,34.957,32.17,35,32,35c-0.178,0-0.356-0.047-0.515-0.143L21.723,29H16c-0.552,0-1-0.448-1-1
	V20z"/>
</svg>
