<?xml version="1.0" encoding="utf-8"?>
<!-- Generator: Adobe Illustrator 20.1.0, SVG Export Plug-In . SVG Version: 6.00 Build 0)  -->
<!DOCTYPE svg PUBLIC "-//W3C//DTD SVG 1.1//EN" "http://www.w3.org/Graphics/SVG/1.1/DTD/svg11.dtd">
<svg version="1.1" id="Layer_1" xmlns="http://www.w3.org/2000/svg" xmlns:xlink="http://www.w3.org/1999/xlink" x="0px" y="0px"
	 width="48px" height="48px" viewBox="0 0 48 48" enable-background="new 0 0 48 48" xml:space="preserve">
<polygon points="32,12 41.414,12 32,2.586 "/>
<path d="M5,45c0,1.105,0.895,2,2,2h34c1.105,0,2-0.895,2-2V14H31c-0.552,0-1-0.448-1-1V1H7C5.895,1,5,1.895,5,3V45z M14,15h8
	c0.553,0,1,0.448,1,1s-0.447,1-1,1h-8c-0.553,0-1-0.448-1-1S13.447,15,14,15z M14,25h20c0.553,0,1,0.448,1,1s-0.447,1-1,1H14
	c-0.553,0-1-0.448-1-1S13.447,25,14,25z M14,35h20c0.553,0,1,0.448,1,1s-0.447,1-1,1H14c-0.553,0-1-0.448-1-1S13.447,35,14,35z"/>
</svg>
