<?xml version="1.0" encoding="utf-8"?>
<!-- Generator: Adobe Illustrator 20.1.0, SVG Export Plug-In . SVG Version: 6.00 Build 0)  -->
<!DOCTYPE svg PUBLIC "-//W3C//DTD SVG 1.1//EN" "http://www.w3.org/Graphics/SVG/1.1/DTD/svg11.dtd">
<svg version="1.1" id="Layer_1" xmlns="http://www.w3.org/2000/svg" xmlns:xlink="http://www.w3.org/1999/xlink" x="0px" y="0px"
	 width="48px" height="48px" viewBox="0 0 48 48" enable-background="new 0 0 48 48" xml:space="preserve">
<path d="M7,47h34c1.105,0,2-0.895,2-2V3c0-1.105-0.895-2-2-2H7C5.895,1,5,1.895,5,3v42C5,46.105,5.895,47,7,47z M15.293,21.293l8-8
	c0.092-0.092,0.203-0.165,0.325-0.216c0.245-0.101,0.52-0.101,0.764,0c0.122,0.051,0.233,0.124,0.325,0.216l8,8
	c0.391,0.391,0.391,1.023,0,1.414C32.512,22.902,32.256,23,32,23s-0.512-0.098-0.707-0.293L25,16.414V34c0,0.552-0.448,1-1,1
	s-1-0.448-1-1V16.414l-6.293,6.293c-0.391,0.391-1.023,0.391-1.414,0S14.902,21.684,15.293,21.293z"/>
</svg>
