<?xml version="1.0" encoding="utf-8"?>
<!-- Generator: Adobe Illustrator 20.1.0, SVG Export Plug-In . SVG Version: 6.00 Build 0)  -->
<!DOCTYPE svg PUBLIC "-//W3C//DTD SVG 1.1//EN" "http://www.w3.org/Graphics/SVG/1.1/DTD/svg11.dtd">
<svg version="1.1" id="Layer_1" xmlns="http://www.w3.org/2000/svg" xmlns:xlink="http://www.w3.org/1999/xlink" x="0px" y="0px"
	 width="48px" height="48px" viewBox="0 0 48 48" enable-background="new 0 0 48 48" xml:space="preserve">
<path d="M46,10H24.5l-5.701-7.6C18.611,2.148,18.314,2,18,2H2C1.448,2,1,2.448,1,3v39c0,2.209,1.791,4,4,4h38c2.209,0,4-1.791,4-4
	V11C47,10.448,46.552,10,46,10z M31.707,26.707C31.512,26.902,31.256,27,31,27s-0.512-0.098-0.707-0.293L25,21.414V37
	c0,0.553-0.447,1-1,1s-1-0.447-1-1V21.414l-5.293,5.293c-0.391,0.391-1.023,0.391-1.414,0s-0.391-1.023,0-1.414l6.999-6.999
	c0.092-0.093,0.203-0.166,0.326-0.217c0.244-0.101,0.519-0.101,0.764,0c0.123,0.051,0.234,0.125,0.327,0.217l6.999,6.999
	C32.098,25.684,32.098,26.316,31.707,26.707z"/>
</svg>
