<?xml version="1.0" encoding="utf-8"?>
<!-- Generator: Adobe Illustrator 20.1.0, SVG Export Plug-In . SVG Version: 6.00 Build 0)  -->
<!DOCTYPE svg PUBLIC "-//W3C//DTD SVG 1.1//EN" "http://www.w3.org/Graphics/SVG/1.1/DTD/svg11.dtd">
<svg version="1.1" id="Layer_1" xmlns="http://www.w3.org/2000/svg" xmlns:xlink="http://www.w3.org/1999/xlink" x="0px" y="0px"
	 width="48px" height="48px" viewBox="0 0 48 48" enable-background="new 0 0 48 48" xml:space="preserve">
<path d="M46,10H24.5l-5.701-7.6C18.611,2.148,18.314,2,18,2H2C1.448,2,1,2.448,1,3v39c0,2.209,1.791,4,4,4h38c2.209,0,4-1.791,4-4
	V11C47,10.448,46.552,10,46,10z M19.5,18c1.381,0,2.5,1.119,2.5,2.5c0,1.381-1.119,2.5-2.5,2.5S17,21.881,17,20.5
	C17,19.119,18.119,18,19.5,18z M36.882,36.472C36.708,36.797,36.369,37,36,37H12c-0.356,0-0.686-0.19-0.865-0.498
	c-0.179-0.308-0.18-0.688-0.003-0.998l4-7c0.145-0.254,0.394-0.432,0.681-0.486c0.288-0.053,0.585,0.019,0.812,0.202l4.208,3.367
	l6.378-8.2c0.196-0.253,0.508-0.393,0.825-0.386c0.321,0.012,0.617,0.177,0.796,0.445l8,12
	C37.036,35.752,37.056,36.146,36.882,36.472z"/>
</svg>
