<?xml version="1.0" encoding="utf-8"?>
<!-- Generator: Adobe Illustrator 20.1.0, SVG Export Plug-In . SVG Version: 6.00 Build 0)  -->
<!DOCTYPE svg PUBLIC "-//W3C//DTD SVG 1.1//EN" "http://www.w3.org/Graphics/SVG/1.1/DTD/svg11.dtd">
<svg version="1.1" id="Layer_1" xmlns="http://www.w3.org/2000/svg" xmlns:xlink="http://www.w3.org/1999/xlink" x="0px" y="0px"
	 width="48px" height="48px" viewBox="0 0 48 48" enable-background="new 0 0 48 48" xml:space="preserve">
<path d="M4,44c1.657,0,3-1.343,3-3V16c0-1.657,1.343-3,3-3h31V9c0-0.552-0.448-1-1-1H18.534l-3.702-5.555
	C14.647,2.167,14.334,2,14,2H2C1.448,2,1,2.448,1,3v38C1,42.657,2.343,44,4,44z"/>
<path d="M46,15H10c-0.553,0-1,0.448-1,1v26c0,1.981-1.443,3.614-3.333,3.933C5.772,45.97,5.882,46,6,46h36c2.757,0,5-2.243,5-5V16
	C47,15.448,46.553,15,46,15z"/>
</svg>
