<?xml version="1.0" encoding="utf-8"?>
<!-- Generator: Adobe Illustrator 20.1.0, SVG Export Plug-In . SVG Version: 6.00 Build 0)  -->
<!DOCTYPE svg PUBLIC "-//W3C//DTD SVG 1.1//EN" "http://www.w3.org/Graphics/SVG/1.1/DTD/svg11.dtd">
<svg version="1.1" id="Layer_1" xmlns="http://www.w3.org/2000/svg" xmlns:xlink="http://www.w3.org/1999/xlink" x="0px" y="0px"
	 width="48px" height="48px" viewBox="0 0 48 48" enable-background="new 0 0 48 48" xml:space="preserve">
<path d="M5,45c0,1.105,0.895,2,2,2h34c1.105,0,2-0.895,2-2V3c0-1.105-0.895-2-2-2H27c-1.105,0-2,0.895-2,2v10h5c0.552,0,1,0.448,1,1
	v14c0,0.552-0.448,1-1,1H18c-0.552,0-1-0.448-1-1V14c0-0.552,0.448-1,1-1h5V3c0-1.105-0.895-2-2-2H7C5.895,1,5,1.895,5,3V45z M22,33
	h4c0.552,0,1,0.447,1,1s-0.448,1-1,1h-4c-0.552,0-1-0.447-1-1S21.448,33,22,33z M22,39h4c0.552,0,1,0.447,1,1s-0.448,1-1,1h-4
	c-0.552,0-1-0.447-1-1S21.448,39,22,39z"/>
<path d="M23,19v4c0,0.553,0.448,1,1,1s1-0.447,1-1v-4c0-0.553-0.448-1-1-1S23,18.447,23,19z"/>
</svg>
