<?xml version="1.0" encoding="utf-8"?>
<!-- Generator: Adobe Illustrator 20.1.0, SVG Export Plug-In . SVG Version: 6.00 Build 0)  -->
<!DOCTYPE svg PUBLIC "-//W3C//DTD SVG 1.1//EN" "http://www.w3.org/Graphics/SVG/1.1/DTD/svg11.dtd">
<svg version="1.1" id="Layer_1" xmlns="http://www.w3.org/2000/svg" xmlns:xlink="http://www.w3.org/1999/xlink" x="0px" y="0px"
	 width="48px" height="48px" viewBox="0 0 48 48" enable-background="new 0 0 48 48" xml:space="preserve">
<path d="M46,10H24.5l-5.701-7.6C18.611,2.148,18.314,2,18,2H2C1.448,2,1,2.448,1,3v39c0,2.209,1.791,4,4,4h38c2.209,0,4-1.791,4-4
	V11C47,10.448,46.552,10,46,10z M34,34c0,2.206-1.794,4-4,4s-4-1.794-4-4s1.794-4,4-4c0.732,0,1.409,0.212,2,0.556V22H20v14
	c0,2.206-1.794,4-4,4s-4-1.794-4-4s1.794-4,4-4c0.732,0,1.409,0.212,2,0.556V17c0-0.552,0.447-1,1-1h14c0.553,0,1,0.448,1,1V34z"/>
</svg>
