<?xml version="1.0" encoding="utf-8"?>
<!-- Generator: Adobe Illustrator 20.1.0, SVG Export Plug-In . SVG Version: 6.00 Build 0)  -->
<!DOCTYPE svg PUBLIC "-//W3C//DTD SVG 1.1//EN" "http://www.w3.org/Graphics/SVG/1.1/DTD/svg11.dtd">
<svg version="1.1" id="Layer_1" xmlns="http://www.w3.org/2000/svg" xmlns:xlink="http://www.w3.org/1999/xlink" x="0px" y="0px"
	 width="48px" height="48px" viewBox="0 0 48 48" enable-background="new 0 0 48 48" xml:space="preserve">
<path d="M41,1H7C5.895,1,5,1.895,5,3v42c0,1.105,0.895,2,2,2h34c1.105,0,2-0.895,2-2V3C43,1.895,42.105,1,41,1z M34,26h-3.295
	c-0.139,0.464-0.321,0.91-0.549,1.328l2.329,2.329l-2.828,2.828l-2.329-2.329c-0.419,0.227-0.864,0.41-1.328,0.549V34h-4v-3.295
	c-0.464-0.139-0.91-0.321-1.328-0.549l-2.329,2.329l-2.828-2.828l2.329-2.329c-0.227-0.419-0.41-0.864-0.549-1.328H14v-4h3.295
	c0.139-0.464,0.321-0.91,0.549-1.328l-2.329-2.329l2.828-2.828l2.329,2.329c0.419-0.227,0.864-0.41,1.328-0.549V14h4v3.295
	c0.464,0.139,0.91,0.321,1.328,0.549l2.329-2.329l2.828,2.828l-2.329,2.329c0.227,0.419,0.41,0.864,0.549,1.328H34V26z"/>
<circle cx="24" cy="24" r="3"/>
</svg>
