<?xml version="1.0" encoding="utf-8"?>
<!-- Generator: Adobe Illustrator 20.1.0, SVG Export Plug-In . SVG Version: 6.00 Build 0)  -->
<!DOCTYPE svg PUBLIC "-//W3C//DTD SVG 1.1//EN" "http://www.w3.org/Graphics/SVG/1.1/DTD/svg11.dtd">
<svg version="1.1" id="Layer_1" xmlns="http://www.w3.org/2000/svg" xmlns:xlink="http://www.w3.org/1999/xlink" x="0px" y="0px"
	 width="48px" height="48px" viewBox="0 0 48 48" enable-background="new 0 0 48 48" xml:space="preserve">
<path d="M5,45c0,1.105,0.895,2,2,2h34c1.105,0,2-0.895,2-2V3c0-1.105-0.895-2-2-2H7C5.895,1,5,1.895,5,3V45z M13.232,23.359
	L23,11.638v10.546c-1.163,0.413-2,1.512-2,2.816c0,1.657,1.343,3,3,3s3-1.343,3-3c0-1.304-0.837-2.403-2-2.816V11.638l9.768,11.722
	c0.239,0.286,0.298,0.682,0.155,1.025L30.5,35H32c0.552,0,1,0.447,1,1s-0.448,1-1,1H18.997c-0.002,0-0.004,0-0.005,0H16
	c-0.552,0-1-0.447-1-1s0.448-1,1-1h1.5l-4.423-10.615C12.934,24.041,12.993,23.646,13.232,23.359z"/>
</svg>
