<?xml version="1.0" encoding="utf-8"?>
<!-- Generator: Adobe Illustrator 20.0.0, SVG Export Plug-In . SVG Version: 6.00 Build 0)  -->
<!DOCTYPE svg PUBLIC "-//W3C//DTD SVG 1.1//EN" "http://www.w3.org/Graphics/SVG/1.1/DTD/svg11.dtd">
<svg version="1.1" id="Layer_1" xmlns="http://www.w3.org/2000/svg" xmlns:xlink="http://www.w3.org/1999/xlink" x="0px" y="0px"
	 width="48px" height="48px" viewBox="0 0 48 48" enable-background="new 0 0 48 48" xml:space="preserve">
<path d="M4,47h40c0.552,0,1-0.448,1-1c0-8.681-4.838-11-10.684-12.949c-3.685-1.228-4.81-5.141-5.154-7.344
	C32.632,23.855,35,20.2,35,16v-4c0-6.065-4.935-11-11-11S13,5.935,13,12v4c0,4.2,2.368,7.854,5.837,9.707
	c-0.344,2.203-1.47,6.116-5.154,7.344C7.838,35,3,37.319,3,46C3,46.552,3.448,47,4,47z M15,16v-4c0-4.962,4.038-9,9-9s9,4.038,9,9v4
	c0,4.962-4.038,9-9,9S15,20.962,15,16z M14.316,34.949c4.417-1.473,5.907-5.754,6.412-8.446C21.762,26.826,22.861,27,24,27
	c1.139,0,2.238-0.174,3.272-0.497c0.504,2.692,1.994,6.973,6.412,8.446c5.99,1.997,9.001,4.071,9.293,10.051H5.023
	C5.315,39.02,8.327,36.945,14.316,34.949z"/>
</svg>
