<?xml version="1.0" encoding="utf-8"?>
<!-- Generator: Adobe Illustrator 20.0.0, SVG Export Plug-In . SVG Version: 6.00 Build 0)  -->
<!DOCTYPE svg PUBLIC "-//W3C//DTD SVG 1.1//EN" "http://www.w3.org/Graphics/SVG/1.1/DTD/svg11.dtd">
<svg version="1.1" id="Layer_1" xmlns="http://www.w3.org/2000/svg" xmlns:xlink="http://www.w3.org/1999/xlink" x="0px" y="0px"
	 width="48px" height="48px" viewBox="0 0 48 48" enable-background="new 0 0 48 48" xml:space="preserve">
<path d="M24,1C11.318,1,1,11.318,1,24s10.318,23,23,23s23-10.318,23-23S36.682,1,24,1z M24,3c10.482,0,19.169,7.728,20.727,17.78
	c-2.349-0.547-7.571-2.49-11.881-9.315c-0.158-0.25-0.417-0.417-0.71-0.457c-0.295-0.041-0.588,0.052-0.807,0.249
	c-6.246,5.651-12.231,5.63-17.495,5.644c-3.72-0.002-7.267,0.006-10.203,2.08C5.89,9.822,14.152,3,24,3z M24,45
	C12.42,45,3,35.58,3,24c0-0.595,0.041-1.181,0.089-1.764c2.658-3.33,6.237-3.336,10.744-3.334c5.119,0.012,11.45,0.007,17.959-5.399
	c4.957,7.216,10.906,8.954,13.15,9.364C44.963,23.245,45,23.618,45,24C45,35.58,35.58,45,24,45z"/>
<path d="M15,26c-1.654,0-3,1.346-3,3s1.346,3,3,3s3-1.346,3-3S16.654,26,15,26z M15,30c-0.551,0-1-0.449-1-1s0.449-1,1-1
	s1,0.449,1,1S15.551,30,15,30z"/>
<path d="M33,26c-1.654,0-3,1.346-3,3s1.346,3,3,3s3-1.346,3-3S34.654,26,33,26z M33,30c-0.551,0-1-0.449-1-1s0.449-1,1-1
	s1,0.449,1,1S33.551,30,33,30z"/>
</svg>
