<?xml version="1.0" encoding="utf-8"?>
<!-- Generator: Adobe Illustrator 20.0.0, SVG Export Plug-In . SVG Version: 6.00 Build 0)  -->
<!DOCTYPE svg PUBLIC "-//W3C//DTD SVG 1.1//EN" "http://www.w3.org/Graphics/SVG/1.1/DTD/svg11.dtd">
<svg version="1.1" id="Layer_1" xmlns="http://www.w3.org/2000/svg" xmlns:xlink="http://www.w3.org/1999/xlink" x="0px" y="0px"
	 width="48px" height="48px" viewBox="0 0 48 48" enable-background="new 0 0 48 48" xml:space="preserve">
<path d="M15,20c0-0.553-0.447-1-1-1H2c-0.553,0-1,0.447-1,1s0.447,1,1,1h12C14.553,21,15,20.553,15,20z"/>
<path d="M21,10v4c0,4.963,4.037,9,9,9s9-4.037,9-9v-4c0-4.963-4.037-9-9-9S21,5.037,21,10z M30,3c3.859,0,7,3.141,7,7v4
	c0,3.859-3.141,7-7,7s-7-3.141-7-7v-4C23,6.141,26.141,3,30,3z"/>
<path d="M42.493,31.226C39.812,30.211,35.468,29,30,29s-9.812,1.211-12.493,2.226C14.812,32.247,13,34.877,13,37.771V46
	c0,0.553,0.447,1,1,1h32c0.553,0,1-0.447,1-1v-8.229C47,34.877,45.188,32.247,42.493,31.226z M45,45H15v-7.229
	c0-2.068,1.292-3.947,3.216-4.675C20.74,32.14,24.835,31,30,31s9.26,1.14,11.784,2.097C43.708,33.824,45,35.703,45,37.771V45z"/>
</svg>
