<?xml version="1.0" encoding="utf-8"?>
<!-- Generator: Adobe Illustrator 20.0.0, SVG Export Plug-In . SVG Version: 6.00 Build 0)  -->
<!DOCTYPE svg PUBLIC "-//W3C//DTD SVG 1.1//EN" "http://www.w3.org/Graphics/SVG/1.1/DTD/svg11.dtd">
<svg version="1.1" id="Layer_1" xmlns="http://www.w3.org/2000/svg" xmlns:xlink="http://www.w3.org/1999/xlink" x="0px" y="0px"
	 width="48px" height="48px" viewBox="0 0 48 48" enable-background="new 0 0 48 48" xml:space="preserve">
<path d="M33,23c5.539,0,10-6.565,10-12c0-5.514-4.486-10-10-10S23,5.486,23,11C23,16.435,27.461,23,33,23z M33,3
	c4.411,0,8,3.589,8,8c0,4.501-3.691,10-8,10s-8-5.499-8-10C25,6.589,28.589,3,33,3z"/>
<path d="M43.806,28.707C41.844,27.472,38.376,26,33,26c-2.598,0-5.049,0.34-7.287,1.01c-0.529,0.159-0.829,0.716-0.671,1.245
	c0.158,0.528,0.714,0.831,1.245,0.671C28.339,28.312,30.597,28,33,28c4.899,0,8.001,1.305,9.74,2.4
	c1.394,0.876,2.26,2.48,2.26,4.184V45H33c-0.553,0-1,0.448-1,1s0.447,1,1,1h13c0.553,0,1-0.448,1-1V34.584
	C47,32.162,45.806,29.965,43.806,28.707z"/>
<path d="M23,23c0-4.962-4.037-9-9-9s-9,4.038-9,9c0,4.721,3.849,10,9,10S23,27.721,23,23z M7,23c0-3.86,3.141-7,7-7s7,3.14,7,7
	c0,3.7-3.058,8-7,8S7,26.7,7,23z"/>
<path d="M2,47h24c0.553,0,1-0.448,1-1v-3.505c0-2.057-1.224-3.875-3.116-4.633C21.764,37.012,18.327,36,14,36
	s-7.764,1.012-9.884,1.861C2.224,38.619,1,40.438,1,42.495V46C1,46.552,1.447,47,2,47z M3,42.495c0-1.234,0.73-2.324,1.86-2.777
	C6.817,38.934,9.991,38,14,38s7.183,0.934,9.14,1.718C24.27,40.17,25,41.26,25,42.495V45H3V42.495z"/>
</svg>
