<?xml version="1.0" encoding="utf-8"?>
<!-- Generator: Adobe Illustrator 20.0.0, SVG Export Plug-In . SVG Version: 6.00 Build 0)  -->
<!DOCTYPE svg PUBLIC "-//W3C//DTD SVG 1.1//EN" "http://www.w3.org/Graphics/SVG/1.1/DTD/svg11.dtd">
<svg version="1.1" id="Layer_1" xmlns="http://www.w3.org/2000/svg" xmlns:xlink="http://www.w3.org/1999/xlink" x="0px" y="0px"
	 width="48px" height="48px" viewBox="0 0 48 48" enable-background="new 0 0 48 48" xml:space="preserve">
<path d="M2,45h18c0.552,0,1-0.447,1-1v-2.328c0-1.538-0.676-2.957-1.854-3.892C17.548,36.512,14.837,35,11,35
	s-6.548,1.512-8.146,2.78C1.676,38.715,1,40.134,1,41.672V44C1,44.553,1.448,45,2,45z M3,41.672c0-0.924,0.4-1.771,1.097-2.325
	C5.446,38.276,7.739,37,11,37s5.554,1.276,6.903,2.347C18.6,39.9,19,40.748,19,41.672V43H3V41.672z"/>
<path d="M5,26c0,3.309,2.691,6,6,6s6-2.691,6-6s-2.691-6-6-6S5,22.691,5,26z M15,26c0,2.206-1.794,4-4,4s-4-1.794-4-4s1.794-4,4-4
	S15,23.794,15,26z"/>
<path d="M45.146,37.78C43.548,36.512,40.837,35,37,35s-6.548,1.512-8.146,2.78C27.676,38.715,27,40.134,27,41.672V44
	c0,0.553,0.448,1,1,1h18c0.552,0,1-0.447,1-1v-2.328C47,40.134,46.324,38.715,45.146,37.78z M45,43H29v-1.328
	c0-0.924,0.4-1.771,1.097-2.325C31.446,38.276,33.739,37,37,37s5.554,1.276,6.903,2.347C44.6,39.9,45,40.748,45,41.672V43z"/>
<path d="M31,26c0,3.309,2.691,6,6,6s6-2.691,6-6s-2.691-6-6-6S31,22.691,31,26z M41,26c0,2.206-1.794,4-4,4s-4-1.794-4-4
	s1.794-4,4-4S41,23.794,41,26z"/>
<path d="M23,4v5h-5c-0.552,0-1,0.447-1,1s0.448,1,1,1h5v5c0,0.553,0.448,1,1,1s1-0.447,1-1v-5h5c0.552,0,1-0.447,1-1s-0.448-1-1-1
	h-5V4c0-0.553-0.448-1-1-1S23,3.447,23,4z"/>
</svg>
