<?xml version="1.0" encoding="utf-8"?>
<!-- Generator: Adobe Illustrator 20.0.0, SVG Export Plug-In . SVG Version: 6.00 Build 0)  -->
<!DOCTYPE svg PUBLIC "-//W3C//DTD SVG 1.1//EN" "http://www.w3.org/Graphics/SVG/1.1/DTD/svg11.dtd">
<svg version="1.1" id="Layer_1" xmlns="http://www.w3.org/2000/svg" xmlns:xlink="http://www.w3.org/1999/xlink" x="0px" y="0px"
	 width="48px" height="48px" viewBox="0 0 48 48" enable-background="new 0 0 48 48" xml:space="preserve">
<path d="M46.382,1.077C46.26,1.027,46.13,1,46,1h-8c-0.553,0-1,0.448-1,1s0.447,1,1,1h5.586l-7.139,7.139
	C34.173,8.187,31.225,7,28,7c-2.578,0-4.977,0.764-7,2.063C18.977,7.764,16.578,7,14,7C6.832,7,1,12.832,1,20
	c0,6.83,5.299,12.435,12,12.949v8.637l-4.293-4.293c-0.391-0.391-1.023-0.391-1.414,0s-0.391,1.023,0,1.414l5.999,5.999
	c0.092,0.093,0.203,0.166,0.326,0.217C13.74,44.974,13.87,45,14,45s0.26-0.026,0.382-0.077c0.123-0.051,0.234-0.124,0.326-0.217
	l5.999-5.999c0.391-0.391,0.391-1.023,0-1.414s-1.023-0.391-1.414,0L15,41.586v-8.637c2.198-0.169,4.242-0.883,6-2.013
	c2.023,1.3,4.422,2.063,7,2.063c7.168,0,13-5.832,13-13c0-3.225-1.187-6.173-3.139-8.447L45,4.414V10c0,0.552,0.447,1,1,1
	s1-0.448,1-1V2c0-0.13-0.026-0.26-0.077-0.382C46.822,1.373,46.627,1.178,46.382,1.077z M14,31C7.935,31,3,26.065,3,20S7.935,9,14,9
	c1.921,0,3.727,0.498,5.301,1.367C16.667,12.748,15,16.179,15,20c0,3.821,1.667,7.252,4.301,9.633C17.728,30.502,15.921,31,14,31z
	 M25,20c0,3.408-1.559,6.459-4,8.479c-2.441-2.019-4-5.07-4-8.479s1.559-6.459,4-8.479C23.441,13.541,25,16.592,25,20z M28,31
	c-1.921,0-3.728-0.498-5.301-1.367C25.333,27.252,27,23.821,27,20c0-3.821-1.667-7.252-4.301-9.633C24.273,9.498,26.079,9,28,9
	c6.065,0,11,4.935,11,11S34.065,31,28,31z"/>
</svg>
