<?xml version="1.0" encoding="utf-8"?>
<!-- Generator: Adobe Illustrator 20.0.0, SVG Export Plug-In . SVG Version: 6.00 Build 0)  -->
<!DOCTYPE svg PUBLIC "-//W3C//DTD SVG 1.1//EN" "http://www.w3.org/Graphics/SVG/1.1/DTD/svg11.dtd">
<svg version="1.1" id="Layer_1" xmlns="http://www.w3.org/2000/svg" xmlns:xlink="http://www.w3.org/1999/xlink" x="0px" y="0px"
	 width="48px" height="48px" viewBox="0 0 48 48" enable-background="new 0 0 48 48" xml:space="preserve">
<path d="M10,13c2.757,0,5-2.243,5-5s-2.243-5-5-5S5,5.243,5,8S7.243,13,10,13z M10,5c1.654,0,3,1.346,3,3s-1.346,3-3,3S7,9.654,7,8
	S8.346,5,10,5z"/>
<path d="M1.757,32.97l3.318,0.83l0.93,9.3C6.056,43.61,6.486,44,7,44h6c0.514,0,0.944-0.39,0.995-0.9l0.93-9.3l3.318-0.83
	C18.688,32.858,19,32.459,19,32V21c0-2.757-2.243-5-5-5H6c-2.757,0-5,2.243-5,5v11C1,32.459,1.312,32.858,1.757,32.97z M3,21
	c0-1.654,1.346-3,3-3h8c1.654,0,3,1.346,3,3v10.219l-3.243,0.812c-0.409,0.102-0.71,0.45-0.752,0.87l-0.91,9.1h-4.19l-0.91-9.1
	c-0.042-0.42-0.343-0.769-0.752-0.87L3,31.219V21z"/>
<path d="M40,8c0-2.757-2.243-5-5-5s-5,2.243-5,5s2.243,5,5,5S40,10.757,40,8z M32,8c0-1.654,1.346-3,3-3s3,1.346,3,3s-1.346,3-3,3
	S32,9.654,32,8z"/>
<path d="M28.63,18.197l-4.593,16.535c-0.084,0.301-0.022,0.624,0.167,0.873C24.393,35.854,24.688,36,25,36h5.117l0.891,7.124
	C31.07,43.624,31.496,44,32,44h6c0.504,0,0.93-0.376,0.992-0.876L39.883,36H45c0.312,0,0.607-0.146,0.796-0.395
	c0.189-0.249,0.251-0.572,0.167-0.873L41.37,18.197C41.011,16.904,39.823,16,38.48,16h-6.96C30.177,16,28.989,16.904,28.63,18.197z
	 M31.52,18h6.96c0.447,0,0.844,0.301,0.963,0.732L43.685,34H39c-0.504,0-0.93,0.376-0.992,0.876L37.117,42h-4.234l-0.891-7.124
	C31.93,34.376,31.504,34,31,34h-4.685l4.241-15.268C30.676,18.301,31.073,18,31.52,18z"/>
</svg>
