<?xml version="1.0" encoding="utf-8"?>
<!-- Generator: Adobe Illustrator 20.0.0, SVG Export Plug-In . SVG Version: 6.00 Build 0)  -->
<!DOCTYPE svg PUBLIC "-//W3C//DTD SVG 1.1//EN" "http://www.w3.org/Graphics/SVG/1.1/DTD/svg11.dtd">
<svg version="1.1" id="Layer_1" xmlns="http://www.w3.org/2000/svg" xmlns:xlink="http://www.w3.org/1999/xlink" x="0px" y="0px"
	 width="48px" height="48px" viewBox="0 0 48 48" enable-background="new 0 0 48 48" xml:space="preserve">
<path d="M17,32h14c0.553,0,1-0.448,1-1c0-3.86-3.141-7-7-7h-2c-3.859,0-7,3.14-7,7C16,31.552,16.447,32,17,32z M23,26h2
	c2.415,0,4.435,1.721,4.899,4H18.101C18.565,27.721,20.585,26,23,26z"/>
<path d="M24,23c2.757,0,5-2.243,5-5s-2.243-5-5-5s-5,2.243-5,5S21.243,23,24,23z M24,15c1.654,0,3,1.346,3,3s-1.346,3-3,3
	s-3-1.346-3-3S22.346,15,24,15z"/>
<path d="M12,47h24c2.757,0,5-2.243,5-5V6c0-2.757-2.243-5-5-5H12C9.243,1,7,3.243,7,6v36C7,44.757,9.243,47,12,47z M39,36H9V9h30V36
	z M36,45H12c-1.654,0-3-1.346-3-3v-4h30v4C39,43.654,37.654,45,36,45z M12,3h24c1.654,0,3,1.346,3,3v1H9V6C9,4.346,10.346,3,12,3z"
	/>
</svg>
