<?xml version="1.0" encoding="utf-8"?>
<!-- Generator: Adobe Illustrator 20.0.0, SVG Export Plug-In . SVG Version: 6.00 Build 0)  -->
<!DOCTYPE svg PUBLIC "-//W3C//DTD SVG 1.1//EN" "http://www.w3.org/Graphics/SVG/1.1/DTD/svg11.dtd">
<svg version="1.1" id="Layer_1" xmlns="http://www.w3.org/2000/svg" xmlns:xlink="http://www.w3.org/1999/xlink" x="0px" y="0px"
	 width="48px" height="48px" viewBox="0 0 48 48" enable-background="new 0 0 48 48" xml:space="preserve">
<path d="M46,35h-3v-5c0-2.757-2.243-5-5-5s-5,2.243-5,5v5h-3c-0.552,0-1,0.448-1,1v10c0,0.552,0.448,1,1,1h16c0.552,0,1-0.448,1-1
	V36C47,35.448,46.552,35,46,35z M35,30c0-1.654,1.346-3,3-3s3,1.346,3,3v5h-6V30z M45,45H31v-8h14V45z"/>
<path d="M22,27c6.195,0,11-6.988,11-13v-2c0-6.065-4.935-11-11-11S11,5.935,11,12v2C11,20.012,15.805,27,22,27z M13,12
	c0-4.962,4.038-9,9-9s9,4.038,9,9v2c0,4.982-4.015,11-9,11s-9-6.018-9-11V12z"/>
<path d="M2,45h21c0.552,0,1-0.448,1-1s-0.448-1-1-1H3v-3.144c0-2.678,1.725-4.99,4.292-5.754C10.517,33.143,15.687,32,22,32
	c0.667,0,1.322,0.012,1.964,0.037c0.543,0.02,1.016-0.41,1.037-0.962c0.021-0.552-0.41-1.016-0.962-1.037
	C23.372,30.013,22.693,30,22,30c-6.554,0-11.926,1.188-15.278,2.185C3.3,33.203,1,36.286,1,39.856V44C1,44.552,1.448,45,2,45z"/>
</svg>
