<?xml version="1.0" encoding="utf-8"?>
<!-- Generator: Adobe Illustrator 20.0.0, SVG Export Plug-In . SVG Version: 6.00 Build 0)  -->
<!DOCTYPE svg PUBLIC "-//W3C//DTD SVG 1.1//EN" "http://www.w3.org/Graphics/SVG/1.1/DTD/svg11.dtd">
<svg version="1.1" id="Layer_1" xmlns="http://www.w3.org/2000/svg" xmlns:xlink="http://www.w3.org/1999/xlink" x="0px" y="0px"
	 width="48px" height="48px" viewBox="0 0 48 48" enable-background="new 0 0 48 48" xml:space="preserve">
<path d="M30,21c-0.553,0-1,0.447-1,1v12H19V22c0-0.553-0.447-1-1-1s-1,0.447-1,1v24c0,0.553,0.447,1,1,1s1-0.447,1-1V36h10v10
	c0,0.553,0.447,1,1,1s1-0.447,1-1V22C31,21.447,30.553,21,30,21z"/>
<path d="M19,6c0,2.757,2.243,5,5,5s5-2.243,5-5s-2.243-5-5-5S19,3.243,19,6z M24,3c1.654,0,3,1.346,3,3s-1.346,3-3,3s-3-1.346-3-3
	S22.346,3,24,3z"/>
<path d="M35.485,17.162C35.094,15.33,33.449,14,31.575,14h-15.15c-1.874,0-3.519,1.33-3.91,3.161L10.022,28.79
	c-0.116,0.54,0.228,1.072,0.768,1.188c0.544,0.12,1.072-0.229,1.188-0.768l2.492-11.63c0.196-0.915,1.019-1.58,1.955-1.58h15.15
	c0.937,0,1.759,0.665,1.955,1.581l2.492,11.629c0.101,0.469,0.515,0.79,0.977,0.79c0.069,0,0.14-0.007,0.211-0.022
	c0.54-0.115,0.884-0.647,0.768-1.188L35.485,17.162z"/>
</svg>
