<?xml version="1.0" encoding="utf-8"?>
<!-- Generator: Adobe Illustrator 20.0.0, SVG Export Plug-In . SVG Version: 6.00 Build 0)  -->
<!DOCTYPE svg PUBLIC "-//W3C//DTD SVG 1.1//EN" "http://www.w3.org/Graphics/SVG/1.1/DTD/svg11.dtd">
<svg version="1.1" id="Layer_1" xmlns="http://www.w3.org/2000/svg" xmlns:xlink="http://www.w3.org/1999/xlink" x="0px" y="0px"
	 width="48px" height="48px" viewBox="0 0 48 48" enable-background="new 0 0 48 48" xml:space="preserve">
<path d="M42.493,31.226C39.812,30.211,35.469,29,30,29s-9.812,1.211-12.492,2.226C14.812,32.247,13,34.877,13,37.771V43
	c0,0.553,0.448,1,1,1h32c0.552,0,1-0.447,1-1v-5.229C47,34.877,45.188,32.247,42.493,31.226z M45,42H15v-4.229
	c0-2.068,1.292-3.947,3.216-4.675C20.74,32.14,24.833,31,30,31s9.26,1.14,11.784,2.097C43.708,33.824,45,35.703,45,37.771V42z"/>
<path d="M2,11h13c0.552,0,1-0.447,1-1s-0.448-1-1-1H2c-0.552,0-1,0.447-1,1S1.448,11,2,11z"/>
<path d="M2,21h13c0.552,0,1-0.447,1-1s-0.448-1-1-1H2c-0.552,0-1,0.447-1,1S1.448,21,2,21z"/>
<path d="M9,29H2c-0.552,0-1,0.447-1,1s0.448,1,1,1h7c0.552,0,1-0.447,1-1S9.552,29,9,29z"/>
<path d="M20,13c0,5.436,4.46,12,10,12s10-6.564,10-12c0-5.514-4.486-10-10-10S20,7.486,20,13z M30,5c4.411,0,8,3.589,8,8
	c0,4.501-3.691,10-8,10s-8-5.499-8-10C22,8.589,25.589,5,30,5z"/>
</svg>
