<?xml version="1.0" encoding="utf-8"?>
<!-- Generator: Adobe Illustrator 20.0.0, SVG Export Plug-In . SVG Version: 6.00 Build 0)  -->
<!DOCTYPE svg PUBLIC "-//W3C//DTD SVG 1.1//EN" "http://www.w3.org/Graphics/SVG/1.1/DTD/svg11.dtd">
<svg version="1.1" id="Layer_1" xmlns="http://www.w3.org/2000/svg" xmlns:xlink="http://www.w3.org/1999/xlink" x="0px" y="0px"
	 width="48px" height="48px" viewBox="0 0 48 48" enable-background="new 0 0 48 48" xml:space="preserve">
<path d="M42.572,35.978l-10.176-6.101c2.318-1.973,3.948-4.734,4.439-7.877H37c1.654,0,3-1.346,3-3v-6c0-1.654-1.346-3-3-3h-0.636
	C34.642,4.665,29.671,1,24,1c-5.672,0-10.643,3.665-12.363,9H11c-1.654,0-3,1.346-3,3v6c0,1.654,1.346,3,3,3h0.165
	c0.49,3.143,2.121,5.904,4.439,7.877L5.428,35.978C3.931,36.875,3,38.519,3,40.265V46c0,0.553,0.447,1,1,1h40c0.553,0,1-0.447,1-1
	v-5.735C45,38.519,44.069,36.875,42.572,35.978z M38,13v6c0,0.552-0.448,1-1,1h-7c-1.654,0-3-1.346-3-3v-4c0-0.552,0.448-1,1-1h9
	C37.552,12,38,12.448,38,13z M24,3c4.577,0,8.615,2.823,10.242,7H28c-1.654,0-3,1.346-3,3h-2c0-1.654-1.346-3-3-3h-6.241
	C15.385,5.823,19.422,3,24,3z M10,19v-6c0-0.552,0.448-1,1-1h9c0.552,0,1,0.448,1,1v4c0,1.654-1.346,3-3,3h-7
	C10.448,20,10,19.552,10,19z M13.184,22H18c2.757,0,5-2.243,5-5v-2h2v2c0,2.757,2.243,5,5,5h4.816c-0.95,5.126-5.504,9-10.816,9
	S14.134,27.126,13.184,22z M43,45H5v-4.735c0-1.048,0.559-2.033,1.457-2.572l10.915-6.544C19.326,32.319,21.594,33,24,33
	s4.674-0.681,6.628-1.851l10.915,6.544C42.441,38.231,43,39.217,43,40.265V45z"/>
</svg>
