<?xml version="1.0" encoding="utf-8"?>
<!-- Generator: Adobe Illustrator 20.0.0, SVG Export Plug-In . SVG Version: 6.00 Build 0)  -->
<!DOCTYPE svg PUBLIC "-//W3C//DTD SVG 1.1//EN" "http://www.w3.org/Graphics/SVG/1.1/DTD/svg11.dtd">
<svg version="1.1" id="Layer_1" xmlns="http://www.w3.org/2000/svg" xmlns:xlink="http://www.w3.org/1999/xlink" x="0px" y="0px"
	 width="48px" height="48px" viewBox="0 0 48 48" enable-background="new 0 0 48 48" xml:space="preserve">
<path d="M31.293,3.293L22,12.586l-3.293-3.293c-0.391-0.391-1.023-0.391-1.414,0s-0.391,1.023,0,1.414l4,4
	C21.488,14.902,21.744,15,22,15s0.512-0.098,0.707-0.293l10-10c0.391-0.391,0.391-1.023,0-1.414S31.684,2.902,31.293,3.293z"/>
<path d="M21,46v-2.328c0-1.538-0.676-2.957-1.854-3.892C17.548,38.512,14.837,37,11,37s-6.548,1.512-8.146,2.78
	C1.676,40.715,1,42.134,1,43.672V46c0,0.553,0.447,1,1,1h18C20.553,47,21,46.553,21,46z M19,45H3v-1.328
	c0-0.924,0.4-1.771,1.097-2.325C5.446,40.276,7.739,39,11,39s5.554,1.276,6.902,2.347C18.6,41.9,19,42.748,19,43.672V45z"/>
<path d="M5,28c0,3.309,2.691,6,6,6s6-2.691,6-6s-2.691-6-6-6S5,24.691,5,28z M15,28c0,2.206-1.794,4-4,4s-4-1.794-4-4s1.794-4,4-4
	S15,25.794,15,28z"/>
<path d="M45.146,39.78C43.548,38.512,40.837,37,37,37s-6.548,1.512-8.146,2.78C27.676,40.715,27,42.134,27,43.672V46
	c0,0.553,0.447,1,1,1h18c0.553,0,1-0.447,1-1v-2.328C47,42.134,46.324,40.715,45.146,39.78z M45,45H29v-1.328
	c0-0.924,0.4-1.771,1.097-2.325C31.446,40.276,33.739,39,37,39s5.554,1.276,6.902,2.347C44.6,41.9,45,42.748,45,43.672V45z"/>
<path d="M37,34c3.309,0,6-2.691,6-6s-2.691-6-6-6s-6,2.691-6,6S33.691,34,37,34z M37,24c2.206,0,4,1.794,4,4s-1.794,4-4,4
	s-4-1.794-4-4S34.794,24,37,24z"/>
</svg>
