<?xml version="1.0" encoding="utf-8"?>
<!-- Generator: Adobe Illustrator 20.0.0, SVG Export Plug-In . SVG Version: 6.00 Build 0)  -->
<!DOCTYPE svg PUBLIC "-//W3C//DTD SVG 1.1//EN" "http://www.w3.org/Graphics/SVG/1.1/DTD/svg11.dtd">
<svg version="1.1" id="Layer_1" xmlns="http://www.w3.org/2000/svg" xmlns:xlink="http://www.w3.org/1999/xlink" x="0px" y="0px"
	 width="48px" height="48px" viewBox="0 0 48 48" enable-background="new 0 0 48 48" xml:space="preserve">
<path d="M44,17c0.553,0,1-0.448,1-1V4c0-0.13-0.026-0.26-0.077-0.382c-0.101-0.245-0.296-0.44-0.541-0.541C44.26,3.027,44.13,3,44,3
	H32c-0.553,0-1,0.448-1,1s0.447,1,1,1h9.586L31.275,15.311C28.27,12.639,24.328,11,20,11c-9.374,0-17,7.626-17,17s7.626,17,17,17
	s17-7.626,17-17c0-4.328-1.639-8.27-4.311-11.275L43,6.414V16C43,16.552,43.447,17,44,17z M20,43c-8.271,0-15-6.729-15-15
	s6.729-15,15-15s15,6.729,15,15S28.271,43,20,43z"/>
</svg>
