<?xml version="1.0" encoding="utf-8"?>
<!-- Generator: Adobe Illustrator 20.0.0, SVG Export Plug-In . SVG Version: 6.00 Build 0)  -->
<!DOCTYPE svg PUBLIC "-//W3C//DTD SVG 1.1//EN" "http://www.w3.org/Graphics/SVG/1.1/DTD/svg11.dtd">
<svg version="1.1" id="Layer_1" xmlns="http://www.w3.org/2000/svg" xmlns:xlink="http://www.w3.org/1999/xlink" x="0px" y="0px"
	 width="48px" height="48px" viewBox="0 0 48 48" enable-background="new 0 0 48 48" xml:space="preserve">
<path d="M22,27c6.195,0,11-6.988,11-13v-2c0-6.065-4.935-11-11-11S11,5.935,11,12v2C11,20.012,15.805,27,22,27z M13,12
	c0-4.962,4.038-9,9-9s9,4.038,9,9v2c0,4.982-4.015,11-9,11s-9-6.018-9-11V12z"/>
<path d="M2,45h25c0.552,0,1-0.448,1-1s-0.448-1-1-1H3v-3.144c0-2.678,1.725-4.99,4.292-5.754C10.517,33.143,15.687,32,22,32
	c1.744,0,3.506,0.113,5.26,0.289c-0.574,2.005-0.102,4.251,1.47,5.827l7.561,7.59C36.478,45.894,36.733,46,36.999,46
	c0.266,0,0.521-0.106,0.708-0.294l7.563-7.59c2.302-2.31,2.302-6.069,0-8.379c-1.258-1.262-2.992-1.886-4.767-1.707
	c-1.333,0.133-2.559,0.708-3.504,1.619c-0.944-0.911-2.17-1.485-3.503-1.619c-1.773-0.183-3.509,0.445-4.767,1.707
	c-0.196,0.197-0.353,0.417-0.515,0.633C26.147,30.134,24.06,30,22,30c-6.554,0-11.926,1.188-15.278,2.185
	C3.3,33.203,1,36.286,1,39.856V44C1,44.552,1.448,45,2,45z M32.905,30c0.13,0,0.261,0.007,0.392,0.02
	c1.171,0.117,2.217,0.75,2.869,1.735c0.37,0.56,1.298,0.56,1.668,0c0.652-0.986,1.698-1.619,2.869-1.736
	c1.168-0.114,2.319,0.294,3.15,1.129c1.527,1.532,1.527,4.023,0,5.555l-6.854,6.879l-6.853-6.879c-1.527-1.532-1.527-4.023,0-5.555
	C30.885,30.408,31.873,30,32.905,30z"/>
</svg>
