<?xml version="1.0" encoding="utf-8"?>
<!-- Generator: Adobe Illustrator 20.0.0, SVG Export Plug-In . SVG Version: 6.00 Build 0)  -->
<!DOCTYPE svg PUBLIC "-//W3C//DTD SVG 1.1//EN" "http://www.w3.org/Graphics/SVG/1.1/DTD/svg11.dtd">
<svg version="1.1" id="Layer_1" xmlns="http://www.w3.org/2000/svg" xmlns:xlink="http://www.w3.org/1999/xlink" x="0px" y="0px"
	 width="48px" height="48px" viewBox="0 0 48 48" enable-background="new 0 0 48 48" xml:space="preserve">
<path d="M46.382,2.077C46.26,2.026,46.13,2,46,2h-8c-0.552,0-1,0.447-1,1s0.448,1,1,1h5.586l-7.139,7.139
	C34.173,9.187,31.225,8,28,8c-2.578,0-4.977,0.764-7,2.063C18.977,8.764,16.578,8,14,8C6.832,8,1,13.832,1,21
	c0,6.83,5.299,12.435,12,12.949V39h-3c-0.552,0-1,0.447-1,1s0.448,1,1,1h3v4c0,0.553,0.448,1,1,1s1-0.447,1-1v-4h3
	c0.552,0,1-0.447,1-1s-0.448-1-1-1h-3v-5.051c2.198-0.169,4.242-0.883,6-2.012C23.023,33.236,25.422,34,28,34
	c7.168,0,13-5.832,13-13c0-3.225-1.187-6.173-3.139-8.447L45,5.414V11c0,0.553,0.448,1,1,1s1-0.447,1-1V3
	c0-0.13-0.027-0.26-0.077-0.382C46.822,2.373,46.627,2.178,46.382,2.077z M14,32C7.935,32,3,27.065,3,21s4.935-11,11-11
	c1.921,0,3.728,0.498,5.301,1.367C16.667,13.748,15,17.179,15,21s1.667,7.252,4.301,9.633C17.728,31.502,15.921,32,14,32z M25,21
	c0,3.408-1.559,6.459-4,8.479c-2.441-2.019-4-5.07-4-8.479s1.559-6.459,4-8.479C23.441,14.541,25,17.592,25,21z M28,32
	c-1.921,0-3.728-0.498-5.301-1.367C25.333,28.252,27,24.821,27,21s-1.667-7.252-4.301-9.633C24.272,10.498,26.079,10,28,10
	c6.065,0,11,4.935,11,11S34.065,32,28,32z"/>
</svg>
