<?xml version="1.0" encoding="utf-8"?>
<!-- Generator: Adobe Illustrator 20.0.0, SVG Export Plug-In . SVG Version: 6.00 Build 0)  -->
<!DOCTYPE svg PUBLIC "-//W3C//DTD SVG 1.1//EN" "http://www.w3.org/Graphics/SVG/1.1/DTD/svg11.dtd">
<svg version="1.1" id="Layer_1" xmlns="http://www.w3.org/2000/svg" xmlns:xlink="http://www.w3.org/1999/xlink" x="0px" y="0px"
	 width="48px" height="48px" viewBox="0 0 48 48" enable-background="new 0 0 48 48" xml:space="preserve">
<path d="M41.598,40.185C42.474,39.016,43,37.57,43,36c0-3.86-3.141-7-7-7s-7,3.14-7,7s3.141,7,7,7c1.57,0,3.015-0.526,4.184-1.401
	l5.109,5.109C45.488,46.902,45.744,47,46,47s0.512-0.098,0.707-0.293c0.391-0.391,0.391-1.023,0-1.414L41.598,40.185z M31,36
	c0-2.757,2.243-5,5-5s5,2.243,5,5s-2.243,5-5,5S31,38.757,31,36z"/>
<path d="M22,27c6.195,0,11-6.988,11-13v-2c0-6.065-4.935-11-11-11S11,5.935,11,12v2C11,20.012,15.805,27,22,27z M13,12
	c0-4.962,4.037-9,9-9s9,4.038,9,9v2c0,4.982-4.015,11-9,11s-9-6.018-9-11V12z"/>
<path d="M2,45h25c0.553,0,1-0.448,1-1s-0.447-1-1-1H3v-3.144c0-2.678,1.725-4.99,4.292-5.754C10.518,33.143,15.688,32,22,32
	c0.981,0,1.973,0.027,2.944,0.082c0.542,0.021,1.023-0.392,1.054-0.943c0.031-0.551-0.391-1.023-0.942-1.054
	C24.047,30.029,23.019,30,22,30c-6.553,0-11.925,1.188-15.278,2.185C3.3,33.203,1,36.286,1,39.856V44C1,44.552,1.447,45,2,45z"/>
</svg>
