<?xml version="1.0" encoding="utf-8"?>
<!-- Generator: Adobe Illustrator 20.0.0, SVG Export Plug-In . SVG Version: 6.00 Build 0)  -->
<!DOCTYPE svg PUBLIC "-//W3C//DTD SVG 1.1//EN" "http://www.w3.org/Graphics/SVG/1.1/DTD/svg11.dtd">
<svg version="1.1" id="Layer_1" xmlns="http://www.w3.org/2000/svg" xmlns:xlink="http://www.w3.org/1999/xlink" x="0px" y="0px"
	 width="48px" height="48px" viewBox="0 0 48 48" enable-background="new 0 0 48 48" xml:space="preserve">
<path d="M2,47h18c0.552,0,1-0.447,1-1v-2.328c0-1.538-0.676-2.957-1.854-3.892C17.548,38.512,14.837,37,11,37
	s-6.548,1.512-8.146,2.78C1.676,40.715,1,42.134,1,43.672V46C1,46.553,1.448,47,2,47z M3,43.672c0-0.924,0.4-1.771,1.097-2.325
	C5.446,40.276,7.739,39,11,39s5.554,1.276,6.903,2.347C18.6,41.9,19,42.748,19,43.672V45H3V43.672z"/>
<path d="M5,28c0,3.309,2.691,6,6,6s6-2.691,6-6s-2.691-6-6-6S5,24.691,5,28z M11,24c2.206,0,4,1.794,4,4s-1.794,4-4,4s-4-1.794-4-4
	S8.794,24,11,24z"/>
<path d="M45.146,39.78C43.548,38.512,40.837,37,37,37s-6.548,1.512-8.146,2.78C27.676,40.715,27,42.134,27,43.672V46
	c0,0.553,0.448,1,1,1h18c0.552,0,1-0.447,1-1v-2.328C47,42.134,46.324,40.715,45.146,39.78z M45,45H29v-1.328
	c0-0.924,0.4-1.771,1.097-2.325C31.446,40.276,33.739,39,37,39s5.554,1.276,6.903,2.347C44.6,41.9,45,42.748,45,43.672V45z"/>
<path d="M37,34c3.309,0,6-2.691,6-6s-2.691-6-6-6s-6,2.691-6,6S33.691,34,37,34z M37,24c2.206,0,4,1.794,4,4s-1.794,4-4,4
	s-4-1.794-4-4S34.794,24,37,24z"/>
<path d="M24,1c-4.424,0-9,3.229-9,8.634c0,5.016,7.459,12.278,8.31,13.09C23.503,22.908,23.751,23,24,23s0.497-0.092,0.69-0.276
	C25.541,21.912,33,14.649,33,9.634C33,4.229,28.424,1,24,1z M24,20.595c-2.449-2.484-7-7.764-7-10.961C17,5.481,20.559,3,24,3
	s7,2.481,7,6.634C31,12.827,26.448,18.109,24,20.595z"/>
<circle cx="24" cy="10" r="2"/>
</svg>
