<?xml version="1.0" encoding="utf-8"?>
<!-- Generator: Adobe Illustrator 20.0.0, SVG Export Plug-In . SVG Version: 6.00 Build 0)  -->
<!DOCTYPE svg PUBLIC "-//W3C//DTD SVG 1.1//EN" "http://www.w3.org/Graphics/SVG/1.1/DTD/svg11.dtd">
<svg version="1.1" id="Layer_1" xmlns="http://www.w3.org/2000/svg" xmlns:xlink="http://www.w3.org/1999/xlink" x="0px" y="0px"
	 width="48px" height="48px" viewBox="0 0 48 48" enable-background="new 0 0 48 48" xml:space="preserve">
<path d="M22,27c6.195,0,11-6.988,11-13v-2c0-6.065-4.935-11-11-11S11,5.935,11,12v2C11,20.012,15.805,27,22,27z M13,12
	c0-4.962,4.037-9,9-9s9,4.038,9,9v2c0,4.982-4.015,11-9,11s-9-6.018-9-11V12z"/>
<path d="M2,45h25c0.553,0,1-0.448,1-1s-0.447-1-1-1H3v-3.144c0-2.678,1.725-4.99,4.292-5.754C10.518,33.143,15.688,32,22,32
	c1.303,0,2.623,0.049,3.926,0.146c0.562,0.036,1.03-0.373,1.071-0.923c0.041-0.551-0.372-1.031-0.923-1.071
	C24.723,30.051,23.352,30,22,30c-6.553,0-11.925,1.188-15.278,2.185C3.3,33.203,1,36.286,1,39.856V44C1,44.552,1.447,45,2,45z"/>
<path d="M43,35c2.206,0,4-1.794,4-4s-1.794-4-4-4s-4,1.794-4,4c0,0.393,0.075,0.766,0.181,1.125l-3.379,2.027
	C35.08,33.441,34.091,33,33,33c-2.206,0-4,1.794-4,4s1.794,4,4,4c1.091,0,2.08-0.441,2.802-1.152l3.379,2.027
	C39.075,42.234,39,42.607,39,43c0,2.206,1.794,4,4,4s4-1.794,4-4s-1.794-4-4-4c-1.091,0-2.08,0.441-2.802,1.152l-3.379-2.027
	C36.925,37.766,37,37.393,37,37s-0.075-0.766-0.181-1.125l3.379-2.027C40.92,34.559,41.909,35,43,35z M43,29c1.103,0,2,0.897,2,2
	s-0.897,2-2,2s-2-0.897-2-2S41.897,29,43,29z M33,39c-1.103,0-2-0.897-2-2s0.897-2,2-2s2,0.897,2,2S34.103,39,33,39z M43,41
	c1.103,0,2,0.897,2,2s-0.897,2-2,2s-2-0.897-2-2S41.897,41,43,41z"/>
</svg>
