<?xml version="1.0" encoding="utf-8"?>
<!-- Generator: Adobe Illustrator 20.0.0, SVG Export Plug-In . SVG Version: 6.00 Build 0)  -->
<!DOCTYPE svg PUBLIC "-//W3C//DTD SVG 1.1//EN" "http://www.w3.org/Graphics/SVG/1.1/DTD/svg11.dtd">
<svg version="1.1" id="Layer_1" xmlns="http://www.w3.org/2000/svg" xmlns:xlink="http://www.w3.org/1999/xlink" x="0px" y="0px"
	 width="48px" height="48px" viewBox="0 0 48 48" enable-background="new 0 0 48 48" xml:space="preserve">
<path d="M19,6c0,2.757,2.243,5,5,5s5-2.243,5-5s-2.243-5-5-5S19,3.243,19,6z M27,6c0,1.654-1.346,3-3,3s-3-1.346-3-3s1.346-3,3-3
	S27,4.346,27,6z"/>
<path d="M34,16.764C33.146,15.059,31.434,14,29.528,14H18.472c-1.905,0-3.618,1.059-4.472,2.764l-4.895,9.789
	c-0.247,0.494-0.047,1.095,0.447,1.342c0.493,0.246,1.094,0.047,1.342-0.447l4.895-9.789C16.301,16.636,17.329,16,18.472,16h11.057
	c1.143,0,2.171,0.636,2.683,1.658l4.895,9.789C37.281,27.798,37.634,28,38.001,28c0.15,0,0.303-0.034,0.446-0.105
	c0.494-0.247,0.694-0.848,0.447-1.342L34,16.764z"/>
<path d="M29.97,20.758c-0.134-0.537-0.679-0.862-1.212-0.728c-0.536,0.134-0.862,0.677-0.728,1.212L31.719,36H30H18h-1.719
	l3.688-14.758c0.135-0.535-0.191-1.078-0.728-1.212c-0.537-0.136-1.079,0.19-1.212,0.728l-4,16
	c-0.075,0.299-0.008,0.615,0.182,0.857C14.401,37.858,14.692,38,15,38h3h1v8c0,0.553,0.447,1,1,1s1-0.447,1-1v-8h6v8
	c0,0.553,0.447,1,1,1s1-0.447,1-1v-8h1h3c0.308,0,0.599-0.142,0.788-0.385c0.189-0.242,0.257-0.559,0.182-0.857L29.97,20.758z"/>
</svg>
