<?xml version="1.0" encoding="utf-8"?>
<!-- Generator: Adobe Illustrator 20.0.0, SVG Export Plug-In . SVG Version: 6.00 Build 0)  -->
<!DOCTYPE svg PUBLIC "-//W3C//DTD SVG 1.1//EN" "http://www.w3.org/Graphics/SVG/1.1/DTD/svg11.dtd">
<svg version="1.1" id="Layer_1" xmlns="http://www.w3.org/2000/svg" xmlns:xlink="http://www.w3.org/1999/xlink" x="0px" y="0px"
	 width="48px" height="48px" viewBox="0 0 48 48" enable-background="new 0 0 48 48" xml:space="preserve">
<path d="M46,1H2C1.448,1,1,1.448,1,2v35c0,0.552,0.448,1,1,1h13.586l7.707,7.707C23.488,45.902,23.744,46,24,46
	s0.512-0.098,0.707-0.293L32.414,38H46c0.552,0,1-0.448,1-1V2C47,1.448,46.552,1,46,1z M45,36H32c-0.265,0-0.52,0.105-0.707,0.293
	L24,43.586l-7.293-7.293C16.52,36.105,16.265,36,16,36H3V3h42V36z"/>
<path d="M15,31h18c0.552,0,1-0.448,1-1v-2.228c0-2.236-1.443-4.165-3.592-4.8c-4.408-1.303-8.56-1.275-12.826-0.012
	C15.439,23.595,14,25.523,14,27.758V30C14,30.552,14.448,31,15,31z M16,27.758c0-1.342,0.864-2.499,2.15-2.879
	c3.896-1.156,7.65-1.182,11.691,0.012C31.132,25.272,32,26.431,32,27.772V29H16V27.758z"/>
<path d="M24,21c3.379,0,6-3.763,6-7c0-3.309-2.691-6-6-6s-6,2.691-6,6C18,17.237,20.621,21,24,21z M24,10c2.206,0,4,1.794,4,4
	c0,2.25-1.846,5-4,5s-4-2.75-4-5C20,11.794,21.794,10,24,10z"/>
</svg>
