<?xml version="1.0" encoding="utf-8"?>
<!-- Generator: Adobe Illustrator 20.0.0, SVG Export Plug-In . SVG Version: 6.00 Build 0)  -->
<!DOCTYPE svg PUBLIC "-//W3C//DTD SVG 1.1//EN" "http://www.w3.org/Graphics/SVG/1.1/DTD/svg11.dtd">
<svg version="1.1" id="Layer_1" xmlns="http://www.w3.org/2000/svg" xmlns:xlink="http://www.w3.org/1999/xlink" x="0px" y="0px"
	 width="48px" height="48px" viewBox="0 0 48 48" enable-background="new 0 0 48 48" xml:space="preserve">
<path d="M36.895,31.553C36.725,31.214,36.379,31,36,31H23v-8h9c0.553,0,1-0.447,1-1s-0.447-1-1-1h-9v-6.08
	c3.386-0.488,6-3.401,6-6.92c0-3.859-3.141-7-7-7s-7,3.141-7,7c0,3.519,2.614,6.432,6,6.92V32c0,0.553,0.447,1,1,1h13.382
	l5.724,11.447C41.281,44.798,41.634,45,42.001,45c0.15,0,0.303-0.034,0.446-0.105c0.494-0.247,0.694-0.848,0.447-1.342
	L36.895,31.553z M17,8c0-2.757,2.243-5,5-5s5,2.243,5,5s-2.243,5-5,5S17,10.757,17,8z"/>
<path d="M25.999,37.02c-0.55-0.104-1.069,0.24-1.18,0.781C23.973,41.973,20.264,45,16,45c-4.963,0-9-4.037-9-9s4.037-9,9-9
	c0.553,0,1-0.447,1-1s-0.447-1-1-1C9.935,25,5,29.935,5,36s4.935,11,11,11c5.211,0,9.744-3.701,10.78-8.801
	C26.89,37.658,26.54,37.13,25.999,37.02z"/>
</svg>
