<?xml version="1.0" encoding="utf-8"?>
<!-- Generator: Adobe Illustrator 20.0.0, SVG Export Plug-In . SVG Version: 6.00 Build 0)  -->
<!DOCTYPE svg PUBLIC "-//W3C//DTD SVG 1.1//EN" "http://www.w3.org/Graphics/SVG/1.1/DTD/svg11.dtd">
<svg version="1.1" id="Layer_1" xmlns="http://www.w3.org/2000/svg" xmlns:xlink="http://www.w3.org/1999/xlink" x="0px" y="0px"
	 width="48px" height="48px" viewBox="0 0 48 48" enable-background="new 0 0 48 48" xml:space="preserve">
<path d="M27,25h-2c-3.859,0-7,3.14-7,7c0,0.552,0.447,1,1,1h14c0.553,0,1-0.448,1-1C34,28.14,30.859,25,27,25z M20.101,31
	c0.465-2.279,2.484-4,4.899-4h2c2.415,0,4.435,1.721,4.899,4H20.101z"/>
<path d="M26,24c2.757,0,5-2.243,5-5s-2.243-5-5-5s-5,2.243-5,5S23.243,24,26,24z M26,16c1.654,0,3,1.346,3,3s-1.346,3-3,3
	s-3-1.346-3-3S24.346,16,26,16z"/>
<path d="M44,10v6c0,0.552,0.447,1,1,1s1-0.448,1-1v-6c0-0.552-0.447-1-1-1S44,9.448,44,10z"/>
<path d="M45,22c-0.553,0-1,0.448-1,1v6c0,0.552,0.447,1,1,1s1-0.448,1-1v-6C46,22.448,45.553,22,45,22z"/>
<path d="M42,40V8c0-3.86-3.141-7-7-7H5C4.447,1,4,1.448,4,2v44c0,0.552,0.447,1,1,1h30C38.859,47,42,43.86,42,40z M6,3h4v42H6V3z
	 M35,45H12V3h23c2.757,0,5,2.243,5,5v32C40,42.757,37.757,45,35,45z"/>
</svg>
