<?xml version="1.0" encoding="utf-8"?>
<!-- Generator: Adobe Illustrator 20.0.0, SVG Export Plug-In . SVG Version: 6.00 Build 0)  -->
<!DOCTYPE svg PUBLIC "-//W3C//DTD SVG 1.1//EN" "http://www.w3.org/Graphics/SVG/1.1/DTD/svg11.dtd">
<svg version="1.1" id="Layer_1" xmlns="http://www.w3.org/2000/svg" xmlns:xlink="http://www.w3.org/1999/xlink" x="0px" y="0px"
	 width="48px" height="48px" viewBox="0 0 48 48" enable-background="new 0 0 48 48" xml:space="preserve">
<path d="M24,25c6.065,0,11-4.935,11-11v-2c0-6.065-4.935-11-11-11S13,5.935,13,12v2C13,20.065,17.935,25,24,25z M15,12
	c0-4.962,4.038-9,9-9s9,4.038,9,9v2c0,4.962-4.038,9-9,9s-9-4.038-9-9V12z"/>
<path d="M4,47h40c0.552,0,1-0.448,1-1v-7.144c0-3.57-2.3-6.653-5.722-7.671C35.926,30.188,30.554,29,24,29
	s-11.926,1.188-15.278,2.185C5.3,32.203,3,35.286,3,38.856V46C3,46.552,3.448,47,4,47z M5,38.856c0-2.678,1.725-4.99,4.292-5.754
	C12.517,32.143,17.687,31,24,31s11.483,1.143,14.708,2.102C41.275,33.866,43,36.178,43,38.856V45H5V38.856z"/>
</svg>
