<?xml version="1.0" encoding="utf-8"?>
<!-- Generator: Adobe Illustrator 20.0.0, SVG Export Plug-In . SVG Version: 6.00 Build 0)  -->
<!DOCTYPE svg PUBLIC "-//W3C//DTD SVG 1.1//EN" "http://www.w3.org/Graphics/SVG/1.1/DTD/svg11.dtd">
<svg version="1.1" id="Layer_1" xmlns="http://www.w3.org/2000/svg" xmlns:xlink="http://www.w3.org/1999/xlink" x="0px" y="0px"
	 width="48px" height="48px" viewBox="0 0 48 48" enable-background="new 0 0 48 48" xml:space="preserve">
<path d="M44.707,32.293c-0.391-0.391-1.023-0.391-1.414,0L38,37.586l-5.293-5.293c-0.391-0.391-1.023-0.391-1.414,0
	s-0.391,1.023,0,1.414L36.586,39l-5.293,5.293c-0.391,0.391-0.391,1.023,0,1.414C31.488,45.902,31.744,46,32,46
	s0.512-0.098,0.707-0.293L38,40.414l5.293,5.293C43.488,45.902,43.744,46,44,46s0.512-0.098,0.707-0.293
	c0.391-0.391,0.391-1.023,0-1.414L39.414,39l5.293-5.293C45.098,33.316,45.098,32.684,44.707,32.293z"/>
<path d="M33,12c0-6.065-4.935-11-11-11S11,5.935,11,12v2c0,6.012,4.805,13,11,13s11-6.988,11-13V12z M31,14c0,4.982-4.015,11-9,11
	s-9-6.018-9-11v-2c0-4.963,4.038-9,9-9s9,4.037,9,9V14z"/>
<path d="M25,43H3v-3.144c0-2.679,1.725-4.991,4.292-5.755C10.516,33.144,15.684,32,22,32c0.985,0,1.975,0.027,2.944,0.082
	c0.544,0.037,1.023-0.39,1.055-0.941c0.031-0.552-0.391-1.023-0.942-1.055C24.05,30.028,23.022,30,22,30
	c-6.557,0-11.927,1.188-15.278,2.185C3.3,33.202,1,36.285,1,39.856V44c0,0.553,0.448,1,1,1h23c0.552,0,1-0.447,1-1S25.552,43,25,43z
	"/>
</svg>
