<?xml version="1.0" encoding="utf-8"?>
<!-- Generator: Adobe Illustrator 20.0.0, SVG Export Plug-In . SVG Version: 6.00 Build 0)  -->
<!DOCTYPE svg PUBLIC "-//W3C//DTD SVG 1.1//EN" "http://www.w3.org/Graphics/SVG/1.1/DTD/svg11.dtd">
<svg version="1.1" id="Layer_1" xmlns="http://www.w3.org/2000/svg" xmlns:xlink="http://www.w3.org/1999/xlink" x="0px" y="0px"
	 width="48px" height="48px" viewBox="0 0 48 48" enable-background="new 0 0 48 48" xml:space="preserve">
<path d="M24,47c10.436,0,21-2.404,21-7c0-3.525-6.144-5.268-9.806-5.993c-0.541-0.109-1.068,0.245-1.176,0.787
	c-0.106,0.542,0.245,1.068,0.787,1.175C40.436,37.083,43,38.84,43,40c0,2.088-7.229,5-19,5S5,42.088,5,40
	c0-1.154,2.546-2.904,8.137-4.02c0.542-0.108,0.894-0.634,0.785-1.176c-0.107-0.542-0.638-0.894-1.176-0.785
	C9.106,34.745,3,36.487,3,40C3,44.596,13.564,47,24,47z"/>
<path d="M14.758,29.97l3.317,0.829l0.93,9.3C19.056,40.611,19.486,41,20,41h8c0.514,0,0.944-0.389,0.995-0.9l0.93-9.3l3.317-0.829
	C33.688,29.859,34,29.459,34,29v-8c0-2.757-2.243-5-5-5H19c-2.757,0-5,2.243-5,5v8C14,29.459,14.312,29.859,14.758,29.97z M16,21
	c0-1.654,1.346-3,3-3h10c1.654,0,3,1.346,3,3v7.219l-3.242,0.811c-0.41,0.103-0.711,0.451-0.753,0.871l-0.91,9.1h-6.189l-0.91-9.1
	c-0.042-0.42-0.343-0.768-0.753-0.871L16,28.219V21z"/>
<path d="M24,13c3.309,0,6-2.691,6-6s-2.691-6-6-6s-6,2.691-6,6S20.691,13,24,13z M24,3c2.206,0,4,1.794,4,4s-1.794,4-4,4
	s-4-1.794-4-4S21.794,3,24,3z"/>
</svg>
