<?xml version="1.0" encoding="utf-8"?>
<!-- Generator: Adobe Illustrator 20.0.0, SVG Export Plug-In . SVG Version: 6.00 Build 0)  -->
<!DOCTYPE svg PUBLIC "-//W3C//DTD SVG 1.1//EN" "http://www.w3.org/Graphics/SVG/1.1/DTD/svg11.dtd">
<svg version="1.1" id="Layer_1" xmlns="http://www.w3.org/2000/svg" xmlns:xlink="http://www.w3.org/1999/xlink" x="0px" y="0px"
	 width="48px" height="48px" viewBox="0 0 48 48" enable-background="new 0 0 48 48" xml:space="preserve">
<path d="M44,15c0-4.411-3.589-8-8-8s-8,3.589-8,8c0,4.529,3.568,10,8,10S44,19.529,44,15z M30,15c0-3.309,2.691-6,6-6s6,2.691,6,6
	c0,3.493-2.909,8-6,8S30,18.493,30,15z"/>
<path d="M44.263,29.236C42.521,28.672,39.675,28,36,28s-6.521,0.672-8.262,1.236c-0.593,0.192-1.115,0.53-1.55,0.961
	c-0.173-0.085-0.345-0.171-0.53-0.236C23.146,29.066,19.258,28,15,28s-8.146,1.066-10.658,1.96C2.343,30.671,1,32.567,1,34.678V42
	c0,0.552,0.447,1,1,1h26c0.553,0,1-0.448,1-1v-7.322c0-1.216-0.456-2.351-1.215-3.239c0.171-0.129,0.362-0.233,0.57-0.301
	C29.958,30.619,32.587,30,36,30s6.042,0.619,7.646,1.139C44.456,31.401,45,32.162,45,33.032V37H34c-0.553,0-1,0.448-1,1s0.447,1,1,1
	h12c0.553,0,1-0.448,1-1v-4.968C47,31.292,45.899,29.767,44.263,29.236z M27,41H3v-6.322c0-1.267,0.809-2.405,2.012-2.834
	C7.376,31.003,11.027,30,15,30s7.624,1.003,9.988,1.844C26.191,32.273,27,33.412,27,34.678V41z"/>
<path d="M24,14c0-4.962-4.037-9-9-9s-9,4.038-9,9c0,4.982,4.015,11,9,11S24,18.982,24,14z M8,14c0-3.86,3.141-7,7-7s7,3.14,7,7
	c0,3.967-3.296,9-7,9S8,17.967,8,14z"/>
</svg>
