<?xml version="1.0" encoding="utf-8"?>
<!-- Generator: Adobe Illustrator 20.0.0, SVG Export Plug-In . SVG Version: 6.00 Build 0)  -->
<!DOCTYPE svg PUBLIC "-//W3C//DTD SVG 1.1//EN" "http://www.w3.org/Graphics/SVG/1.1/DTD/svg11.dtd">
<svg version="1.1" id="Layer_1" xmlns="http://www.w3.org/2000/svg" xmlns:xlink="http://www.w3.org/1999/xlink" x="0px" y="0px"
	 width="48px" height="48px" viewBox="0 0 48 48" enable-background="new 0 0 48 48" xml:space="preserve">
<path d="M46,14c0.38,0,0.743-0.218,0.911-0.586c0.229-0.502,0.006-1.095-0.497-1.324l-22-10c-0.263-0.12-0.564-0.12-0.827,0l-22,10
	c-0.503,0.229-0.725,0.821-0.497,1.324c0.228,0.503,0.822,0.723,1.324,0.497L24,4.099l21.586,9.812C45.72,13.971,45.861,14,46,14z"
	/>
<path d="M9,43.375V46c0,0.553,0.448,1,1,1h28c0.552,0,1-0.447,1-1v-2.625c0-2.845-1.691-5.384-4.309-6.468
	C31.637,35.642,28.04,35,24,35s-7.637,0.642-10.691,1.907C10.691,37.991,9,40.53,9,43.375z M24,37c3.776,0,7.115,0.591,9.925,1.755
	C35.793,39.528,37,41.342,37,43.375V45H11v-1.625c0-2.033,1.207-3.847,3.075-4.62C16.885,37.591,20.224,37,24,37z"/>
<path d="M33,21c0-4.962-4.038-9-9-9s-9,4.038-9,9c0,4.982,4.015,11,9,11S33,25.982,33,21z M17,21c0-3.86,3.14-7,7-7s7,3.14,7,7
	c0,3.967-3.296,9-7,9S17,24.967,17,21z"/>
</svg>
