<?xml version="1.0" encoding="utf-8"?>
<!-- Generator: Adobe Illustrator 20.0.0, SVG Export Plug-In . SVG Version: 6.00 Build 0)  -->
<!DOCTYPE svg PUBLIC "-//W3C//DTD SVG 1.1//EN" "http://www.w3.org/Graphics/SVG/1.1/DTD/svg11.dtd">
<svg version="1.1" id="Layer_1" xmlns="http://www.w3.org/2000/svg" xmlns:xlink="http://www.w3.org/1999/xlink" x="0px" y="0px"
	 width="48px" height="48px" viewBox="0 0 48 48" enable-background="new 0 0 48 48" xml:space="preserve">
<path d="M24,11c-4.963,0-9,4.038-9,9v4c0,4.962,4.037,9,9,9s9-4.038,9-9v-4C33,15.038,28.963,11,24,11z M31,24c0,3.86-3.141,7-7,7
	s-7-3.14-7-7v-4c0-3.86,3.141-7,7-7s7,3.14,7,7V24z"/>
<path d="M24,1C11.317,1,1,11.318,1,24s10.317,23,23,23c4.729,0,9.129-1.436,12.788-3.893c0.021-0.015,0.045-0.021,0.065-0.038
	c0.003-0.003,0.004-0.007,0.008-0.01C42.974,38.921,47,31.922,47,24C47,11.318,36.683,1,24,1z M13.37,42.08
	C15.411,40.111,18.132,39,21,39h6c2.834,0,5.551,1.113,7.62,3.086C31.5,43.925,27.877,45,24,45C20.119,45,16.493,43.923,13.37,42.08
	z M36.316,40.972C33.842,38.446,30.504,37,27,37h-6c-3.54,0-6.881,1.444-9.324,3.966C6.43,37.145,3,30.973,3,24
	C3,12.42,12.421,3,24,3s21,9.42,21,21C45,30.976,41.567,37.151,36.316,40.972z"/>
</svg>
