<?xml version="1.0" encoding="utf-8"?>
<!-- Generator: Adobe Illustrator 20.0.0, SVG Export Plug-In . SVG Version: 6.00 Build 0)  -->
<!DOCTYPE svg PUBLIC "-//W3C//DTD SVG 1.1//EN" "http://www.w3.org/Graphics/SVG/1.1/DTD/svg11.dtd">
<svg version="1.1" id="Layer_1" xmlns="http://www.w3.org/2000/svg" xmlns:xlink="http://www.w3.org/1999/xlink" x="0px" y="0px"
	 width="48px" height="48px" viewBox="0 0 48 48" enable-background="new 0 0 48 48" xml:space="preserve">
<path d="M22,27c6.195,0,11-6.988,11-13v-2c0-6.065-4.935-11-11-11S11,5.935,11,12v2C11,20.012,15.805,27,22,27z M13,12
	c0-4.962,4.037-9,9-9s9,4.038,9,9v2c0,4.982-4.015,11-9,11s-9-6.018-9-11V12z"/>
<path d="M2,45h21c0.553,0,1-0.448,1-1s-0.447-1-1-1H3v-3.144c0-2.678,1.725-4.99,4.292-5.754C10.518,33.143,15.688,32,22,32
	c0.33,0,0.657,0.003,0.98,0.009c0.007,0,0.014,0,0.02,0c0.544,0,0.989-0.435,1-0.981c0.011-0.552-0.429-1.008-0.98-1.019
	C22.683,30.003,22.344,30,22,30c-6.553,0-11.925,1.188-15.278,2.185C3.3,33.203,1,36.286,1,39.856V44C1,44.552,1.447,45,2,45z"/>
<path d="M28.247,33.779c-0.122,0.539,0.216,1.074,0.754,1.196C29.076,34.992,29.15,35,29.224,35c0.456,0,0.869-0.314,0.975-0.779
	C31.029,30.559,34.238,28,38,28c2.44,0,4.673,1.126,6.164,3H40c-0.553,0-1,0.448-1,1s0.447,1,1,1h6c0.01,0,0.018-0.005,0.028-0.006
	c0.066-0.002,0.129-0.024,0.195-0.039c0.066-0.016,0.133-0.024,0.193-0.052c0.009-0.004,0.02-0.003,0.029-0.008
	c0.045-0.022,0.074-0.061,0.115-0.089c0.059-0.041,0.12-0.078,0.169-0.131c0.044-0.048,0.073-0.103,0.106-0.158
	c0.034-0.054,0.071-0.105,0.094-0.165c0.026-0.068,0.032-0.139,0.043-0.211C46.979,32.093,47,32.05,47,32v-6c0-0.552-0.447-1-1-1
	s-1,0.448-1,1v2.935C43.168,27.088,40.685,26,38,26C33.298,26,29.287,29.199,28.247,33.779z"/>
<path d="M46.999,37.025c-0.545-0.123-1.075,0.215-1.197,0.754C44.971,41.441,41.762,44,38,44c-2.44,0-4.673-1.126-6.164-3H36
	c0.553,0,1-0.448,1-1s-0.447-1-1-1h-6c-0.009,0-0.017,0.005-0.027,0.005c-0.068,0.002-0.135,0.025-0.203,0.041
	c-0.064,0.015-0.129,0.023-0.187,0.05c-0.01,0.004-0.02,0.003-0.029,0.008c-0.045,0.023-0.075,0.061-0.115,0.089
	c-0.059,0.041-0.12,0.078-0.169,0.131c-0.044,0.048-0.073,0.103-0.107,0.158c-0.034,0.054-0.071,0.104-0.094,0.165
	c-0.026,0.068-0.032,0.139-0.043,0.212C29.021,39.907,29,39.95,29,40v6c0,0.552,0.447,1,1,1s1-0.448,1-1v-2.935
	C32.832,44.912,35.315,46,38,46c4.702,0,8.713-3.199,9.753-7.779C47.875,37.683,47.537,37.147,46.999,37.025z"/>
</svg>
