<?xml version="1.0" encoding="utf-8"?>
<!-- Generator: Adobe Illustrator 18.1.1, SVG Export Plug-In . SVG Version: 6.00 Build 0)  -->
<!DOCTYPE svg PUBLIC "-//W3C//DTD SVG 1.1//EN" "http://www.w3.org/Graphics/SVG/1.1/DTD/svg11.dtd">
<svg version="1.1" id="Layer_1" xmlns="http://www.w3.org/2000/svg" xmlns:xlink="http://www.w3.org/1999/xlink" x="0px" y="0px"
	 width="32px" height="32px" viewBox="0 0 32 32" enable-background="new 0 0 32 32" xml:space="preserve">
<path d="M20,28v-5c0-0.6-0.4-1-1-1h-6c-0.6,0-1,0.4-1,1v5c0,0.6,0.4,1,1,1h6C19.6,29,20,28.6,20,28z"/>
<path d="M19,10c0.6,0,1-0.4,1-1V4c0-0.6-0.4-1-1-1h-6c-0.6,0-1,0.4-1,1v5c0,0.6,0.4,1,1,1H19z"/>
<path d="M31,23c0-0.6-0.4-1-1-1h-6c-0.6,0-1,0.4-1,1v5c0,0.6,0.4,1,1,1h6c0.6,0,1-0.4,1-1V23z"/>
<path d="M1,28c0,0.6,0.4,1,1,1h6c0.6,0,1-0.4,1-1v-5c0-0.6-0.4-1-1-1H2c-0.6,0-1,0.4-1,1V28z"/>
<path d="M4,16v3c0,0.6,0.4,1,1,1s1-0.4,1-1v-2h9v2c0,0.6,0.4,1,1,1s1-0.4,1-1v-2h9v2c0,0.6,0.4,1,1,1s1-0.4,1-1v-3c0-0.6-0.4-1-1-1
	H17v-2c0-0.6-0.4-1-1-1s-1,0.4-1,1v2H5C4.4,15,4,15.4,4,16z"/>
</svg>
