<?xml version="1.0" encoding="utf-8"?>
<!-- Generator: Adobe Illustrator 18.1.1, SVG Export Plug-In . SVG Version: 6.00 Build 0)  -->
<!DOCTYPE svg PUBLIC "-//W3C//DTD SVG 1.1//EN" "http://www.w3.org/Graphics/SVG/1.1/DTD/svg11.dtd">
<svg version="1.1" id="Layer_1" xmlns="http://www.w3.org/2000/svg" xmlns:xlink="http://www.w3.org/1999/xlink" x="0px" y="0px"
	 width="32px" height="32px" viewBox="0 0 32 32" enable-background="new 0 0 32 32" xml:space="preserve">
<path d="M31,10c0-0.4-0.2-0.7-0.6-0.9S29.7,9,29.4,9.2L22,15v-5c0-0.4-0.2-0.7-0.5-0.9c-0.3-0.2-0.7-0.1-1,0.1l-9.1,6.4l-3.5-6
	C7.7,9.2,7.4,9,7,9H2c-0.6,0-1,0.4-1,1v20c0,0.6,0.4,1,1,1h28c0.6,0,1-0.4,1-1V10z M19,25c0,0.6-0.4,1-1,1h-3c-0.6,0-1-0.4-1-1v-3
	c0-0.6,0.4-1,1-1h3c0.6,0,1,0.4,1,1V25z M27,25c0,0.6-0.4,1-1,1h-3c-0.6,0-1-0.4-1-1v-3c0-0.6,0.4-1,1-1h3c0.6,0,1,0.4,1,1V25z"/>
<path d="M2.1,7h16.6c0.7,0,1.2-0.7,0.9-1.3C19.1,4.2,17.7,2,14.5,2c-1.1,0-2.2,0.3-3.1,1C10.3,1.7,8.7,1,7,1C4.1,1,1.6,3.1,1.1,5.8
	C1,6.4,1.5,7,2.1,7z"/>
</svg>
