<?xml version="1.0" encoding="utf-8"?>
<!-- Generator: Adobe Illustrator 18.1.1, SVG Export Plug-In . SVG Version: 6.00 Build 0)  -->
<!DOCTYPE svg PUBLIC "-//W3C//DTD SVG 1.1//EN" "http://www.w3.org/Graphics/SVG/1.1/DTD/svg11.dtd">
<svg version="1.1" id="Layer_1" xmlns="http://www.w3.org/2000/svg" xmlns:xlink="http://www.w3.org/1999/xlink" x="0px" y="0px"
	 width="32px" height="32px" viewBox="0 0 32 32" enable-background="new 0 0 32 32" xml:space="preserve">
<path d="M14,32c7.7,0,14-6.3,14-14c0-0.6-0.4-1-1-1H15V5c0-0.6-0.4-1-1-1C6.3,4,0,10.3,0,18S6.3,32,14,32z"/>
<path d="M18,0c-0.6,0-1,0.4-1,1v13c0,0.6,0.4,1,1,1h13c0.6,0,1-0.4,1-1C32,6.3,25.7,0,18,0z"/>
</svg>
