<?xml version="1.0" encoding="utf-8"?>
<!-- Generator: Adobe Illustrator 18.1.1, SVG Export Plug-In . SVG Version: 6.00 Build 0)  -->
<!DOCTYPE svg PUBLIC "-//W3C//DTD SVG 1.1//EN" "http://www.w3.org/Graphics/SVG/1.1/DTD/svg11.dtd">
<svg version="1.1" id="Layer_1" xmlns="http://www.w3.org/2000/svg" xmlns:xlink="http://www.w3.org/1999/xlink" x="0px" y="0px"
	 width="32px" height="32px" viewBox="0 0 32 32" enable-background="new 0 0 32 32" xml:space="preserve">
<path d="M22,22.4c3.7-2.1,6-6.1,6-10.4c0-6.6-5.4-12-12-12S4,5.4,4,12c0,4.3,2.3,8.2,6,10.4V25c0,0.6,0.4,1,1,1h10c0.6,0,1-0.4,1-1
	V22.4z M21.7,14.7l-3,3C18.5,17.9,18.3,18,18,18s-0.5-0.1-0.7-0.3L16,16.4l-1.3,1.3c-0.4,0.4-1,0.4-1.4,0l-3-3c-0.4-0.4-0.4-1,0-1.4
	s1-0.4,1.4,0l2.3,2.3l1.3-1.3c0.4-0.4,1-0.4,1.4,0l1.3,1.3l2.3-2.3c0.4-0.4,1-0.4,1.4,0S22.1,14.3,21.7,14.7z"/>
<path d="M14,32h4c0.6,0,1-0.4,1-1v-1h2c0.6,0,1-0.4,1-1s-0.4-1-1-1H11c-0.6,0-1,0.4-1,1s0.4,1,1,1h2v1C13,31.6,13.4,32,14,32z"/>
</svg>
