<?xml version="1.0" encoding="utf-8"?>
<!-- Generator: Adobe Illustrator 18.1.1, SVG Export Plug-In . SVG Version: 6.00 Build 0)  -->
<!DOCTYPE svg PUBLIC "-//W3C//DTD SVG 1.1//EN" "http://www.w3.org/Graphics/SVG/1.1/DTD/svg11.dtd">
<svg version="1.1" id="Layer_1" xmlns="http://www.w3.org/2000/svg" xmlns:xlink="http://www.w3.org/1999/xlink" x="0px" y="0px"
	 width="32px" height="32px" viewBox="0 0 32 32" enable-background="new 0 0 32 32" xml:space="preserve">
<path d="M21.6,30.8l2.4-1.6l2.4,1.6c0.2,0.1,0.4,0.2,0.6,0.2c0.2,0,0.3,0,0.5-0.1c0.3-0.2,0.5-0.5,0.5-0.9v-2.9
	c-1.2,0.6-2.6,0.9-4,0.9s-2.8-0.3-4-0.9V30c0,0.4,0.2,0.7,0.5,0.9C20.9,31.1,21.2,31,21.6,30.8z"/>
<path d="M24,12c-3.9,0-7,3.1-7,7s3.1,7,7,7s7-3.1,7-7S27.9,12,24,12z"/>
<path d="M18,28v-2.3c-1.9-1.7-3-4.1-3-6.7c0-5,4-9,9-9c0.3,0,0.7,0,1,0.1V1c0-0.6-0.4-1-1-1H8v7c0,0.6-0.4,1-1,1H0v19
	c0,0.6,0.4,1,1,1H18z M5,11h10c0.6,0,1,0.4,1,1s-0.4,1-1,1H5c-0.6,0-1-0.4-1-1S4.4,11,5,11z M5,15h7c0.6,0,1,0.4,1,1s-0.4,1-1,1H5
	c-0.6,0-1-0.4-1-1S4.4,15,5,15z M5,19h7c0.6,0,1,0.4,1,1s-0.4,1-1,1H5c-0.6,0-1-0.4-1-1S4.4,19,5,19z"/>
<polygon points="6,6 6,0.6 0.6,6 "/>
</svg>
