<?xml version="1.0" encoding="utf-8"?>
<!-- Generator: Adobe Illustrator 18.1.1, SVG Export Plug-In . SVG Version: 6.00 Build 0)  -->
<!DOCTYPE svg PUBLIC "-//W3C//DTD SVG 1.1//EN" "http://www.w3.org/Graphics/SVG/1.1/DTD/svg11.dtd">
<svg version="1.1" id="Layer_1" xmlns="http://www.w3.org/2000/svg" xmlns:xlink="http://www.w3.org/1999/xlink" x="0px" y="0px"
	 width="32px" height="32px" viewBox="0 0 32 32" enable-background="new 0 0 32 32" xml:space="preserve">
<path d="M31,4h-6V1c0-0.6-0.4-1-1-1H8C7.4,0,7,0.4,7,1v3H1C0.4,4,0,4.4,0,5v26c0,0.6,0.4,1,1,1h7.3l4.8-13.3
	c0.1-0.4,0.5-0.7,0.9-0.7h4c0.4,0,0.8,0.3,0.9,0.7L23.7,32H31c0.6,0,1-0.4,1-1V5C32,4.4,31.6,4,31,4z M9,3.2l5.3,4.7L9,11.2V3.2z
	 M20.8,12.8l-2,2.8C18.6,15.9,18.3,16,18,16h-4c-0.3,0-0.6-0.1-0.8-0.4l-2-2.7c-0.2-0.2-0.1-0.6,0.1-0.7l4.4-2.8
	c0.2-0.1,0.4-0.1,0.5,0l4.4,2.8C21,12.3,21,12.6,20.8,12.8z M23,11.2l-5.3-3.3L23,3.2V11.2z"/>
</svg>
