<?xml version="1.0" encoding="utf-8"?>
<!-- Generator: Adobe Illustrator 18.1.1, SVG Export Plug-In . SVG Version: 6.00 Build 0)  -->
<!DOCTYPE svg PUBLIC "-//W3C//DTD SVG 1.1//EN" "http://www.w3.org/Graphics/SVG/1.1/DTD/svg11.dtd">
<svg version="1.1" id="Layer_1" xmlns="http://www.w3.org/2000/svg" xmlns:xlink="http://www.w3.org/1999/xlink" x="0px" y="0px"
	 width="32px" height="32px" viewBox="0 0 32 32" enable-background="new 0 0 32 32" xml:space="preserve">
<path d="M21.2,19.1c1.7-1.5,2.8-3.6,2.8-6.1v-0.4c-1.9-0.5-3.6-1.6-5-3c-2.1,2.2-4.9,3.5-8,3.5c-1,0-2-0.2-3-0.4V13
	c0,2.4,1.1,4.6,2.8,6.1C5.3,19.7,1,24.3,1,30c0,0.6,0.4,1,1,1h9.5l2.2-5.4c0.2-0.4,0.5-0.6,0.9-0.6h2.7c0.4,0,0.8,0.2,0.9,0.6
	l2.2,5.4H30c0,0,0,0,0,0c0.6,0,1-0.4,1-1c0-0.1,0-0.1,0-0.2C30.9,24.2,26.6,19.7,21.2,19.1z M19.9,20.4l-1.6,2.1
	c-0.2,0.3-0.5,0.4-0.8,0.4h-3c-0.3,0-0.6-0.1-0.8-0.4l-1.6-2.1C12,20.3,12,20.1,12,19.9c1.2,0.7,2.5,1.1,4,1.1s2.8-0.4,4-1.1
	C20,20.1,20,20.3,19.9,20.4z"/>
<path d="M8,9v1.5c0.9,0.3,1.9,0.5,3,0.5c2.9,0,5.5-1.3,7.2-3.6C18.4,7.1,18.7,7,19,7s0.6,0.1,0.8,0.4c1.1,1.5,2.6,2.5,4.2,3.1V9
	c0-4.4-3.6-8-8-8S8,4.6,8,9z"/>
</svg>
