<?xml version="1.0" encoding="utf-8"?>
<!-- Generator: Adobe Illustrator 18.1.1, SVG Export Plug-In . SVG Version: 6.00 Build 0)  -->
<!DOCTYPE svg PUBLIC "-//W3C//DTD SVG 1.1//EN" "http://www.w3.org/Graphics/SVG/1.1/DTD/svg11.dtd">
<svg version="1.1" id="Layer_1" xmlns="http://www.w3.org/2000/svg" xmlns:xlink="http://www.w3.org/1999/xlink" x="0px" y="0px"
	 width="32px" height="32px" viewBox="0 0 32 32" enable-background="new 0 0 32 32" xml:space="preserve">
<path d="M2,4.5C2,5.9,3.1,7,4.5,7H24c0.6,0,1-0.4,1-1V3c0-0.6-0.4-1-1-1H4.5C3.1,2,2,3.1,2,4.5z"/>
<path d="M31,17h-7.5c-1.6,0-2.9,1.1-3.3,2.5c-0.1-0.3-0.2-0.7-0.2-1c0-1.9,1.6-3.5,3.5-3.5H30v-3h-2v-1h2v-1c0-0.6-0.4-1-1-1H4.5
	C3.6,9,2.7,8.7,2,8.2V25c0,2.8,2.2,5,5,5h22c0.6,0,1-0.4,1-1v-2h-2v-1h2v-2h1c0.6,0,1-0.4,1-1v-5C32,17.4,31.6,17,31,17z M24,11h2v1
	h-2V11z M20,11h2v1h-2V11z M6,27H4v-1h2V27z M6,12H4v-1h2V12z M10,27H8v-1h2V27z M10,12H8v-1h2V12z M14,27h-2v-1h2V27z M14,12h-2v-1
	h2V12z M18,27h-2v-1h2V27z M18,12h-2v-1h2V12z M22,27h-2v-1h2V27z M26,27h-2v-1h2V27z M25.5,21h-2c-0.3,0-0.5-0.2-0.5-0.5
	s0.2-0.5,0.5-0.5h2c0.3,0,0.5,0.2,0.5,0.5S25.8,21,25.5,21z"/>
</svg>
