<?xml version="1.0" encoding="utf-8"?>
<!-- Generator: Adobe Illustrator 18.1.1, SVG Export Plug-In . SVG Version: 6.00 Build 0)  -->
<!DOCTYPE svg PUBLIC "-//W3C//DTD SVG 1.1//EN" "http://www.w3.org/Graphics/SVG/1.1/DTD/svg11.dtd">
<svg version="1.1" id="Layer_1" xmlns="http://www.w3.org/2000/svg" xmlns:xlink="http://www.w3.org/1999/xlink" x="0px" y="0px"
	 width="32px" height="32px" viewBox="0 0 32 32" enable-background="new 0 0 32 32" xml:space="preserve">
<path d="M20,15c0,0.5-0.1,0.9-0.3,1.3l2.2,2.2c0.7-1,1.1-2.2,1.1-3.5c0-1.3-0.4-2.5-1.1-3.5l-2.2,2.2C19.9,14.1,20,14.5,20,15z"/>
<path d="M17,18c-0.5,0-0.9-0.1-1.3-0.3l-2.2,2.2c1,0.7,2.2,1.1,3.5,1.1c1.3,0,2.5-0.4,3.5-1.1l-2.2-2.2C17.9,17.9,17.5,18,17,18z"/>
<path d="M17,12c0.5,0,0.9,0.1,1.3,0.3l2.2-2.2C19.5,9.4,18.3,9,17,9c-1.3,0-2.5,0.4-3.5,1.1l2.2,2.2C16.1,12.1,16.5,12,17,12z"/>
<path d="M14.3,16.3C14.1,15.9,14,15.5,14,15c0-0.5,0.1-0.9,0.3-1.3l-2.2-2.2c-0.7,1-1.1,2.2-1.1,3.5c0,1.3,0.4,2.5,1.1,3.5
	L14.3,16.3z"/>
<path d="M31,0H1C0.4,0,0,0.4,0,1v27c0,0.6,0.4,1,1,1h2c0,0.7,0,1.7,0,2c0,0.6,0.4,1,1,1h5c0.6,0,1-0.4,1-1c0-0.3,0-1.3,0-2h12
	c0,0.7,0,1.7,0,2c0,0.6,0.4,1,1,1h5c0.6,0,1-0.4,1-1c0-0.3,0-1.3,0-2h2c0.6,0,1-0.4,1-1V1C32,0.4,31.6,0,31,0z M29,25
	c0,0.6-0.4,1-1,1H5c-0.6,0-1-0.4-1-1v-3H2v-4h2v-7H2V7h2V4c0-0.6,0.4-1,1-1h23c0.6,0,1,0.4,1,1V25z"/>
<path d="M6,7h2v4H6v7h2v4H6v2h21V5H6V7z M11.3,9.4C11.3,9.4,11.3,9.3,11.3,9.4C11.3,9.3,11.4,9.3,11.3,9.4C12.8,7.9,14.8,7,17,7
	c2.2,0,4.2,0.9,5.6,2.3c0,0,0,0,0,0c0,0,0,0,0,0c1.4,1.4,2.3,3.4,2.3,5.6c0,2.2-0.9,4.2-2.3,5.6c0,0,0,0,0,0s0,0,0,0
	C21.2,22.1,19.2,23,17,23c-2.2,0-4.2-0.9-5.6-2.3c0,0,0,0,0,0c0,0,0,0,0,0C9.9,19.2,9,17.2,9,15C9,12.8,9.9,10.8,11.3,9.4z"/>
</svg>
