<?xml version="1.0" encoding="utf-8"?>
<!-- Generator: Adobe Illustrator 18.1.1, SVG Export Plug-In . SVG Version: 6.00 Build 0)  -->
<!DOCTYPE svg PUBLIC "-//W3C//DTD SVG 1.1//EN" "http://www.w3.org/Graphics/SVG/1.1/DTD/svg11.dtd">
<svg version="1.1" id="Layer_1" xmlns="http://www.w3.org/2000/svg" xmlns:xlink="http://www.w3.org/1999/xlink" x="0px" y="0px"
	 width="32px" height="32px" viewBox="0 0 32 32" enable-background="new 0 0 32 32" xml:space="preserve">
<path d="M3,24c-0.6,0-1,0.4-1,1v5c0,0.6,0.4,1,1,1h26c0.6,0,1-0.4,1-1v-5c0-0.6-0.4-1-1-1H19v1c0,0.6-0.4,1-1,1h-4c-0.6,0-1-0.4-1-1
	v-1H3z"/>
<path d="M31,5h-9V2c0-0.6-0.4-1-1-1H11c-0.6,0-1,0.4-1,1v3H1C0.4,5,0,5.4,0,6v15c0,0.6,0.4,1,1,1h12v-2c0-0.6,0.4-1,1-1h4
	c0.6,0,1,0.4,1,1v2h12c0.6,0,1-0.4,1-1V6C32,5.4,31.6,5,31,5z M20,5h-8V3h8V5z"/>
</svg>
