<?xml version="1.0" encoding="utf-8"?>
<!-- Generator: Adobe Illustrator 18.1.1, SVG Export Plug-In . SVG Version: 6.00 Build 0)  -->
<!DOCTYPE svg PUBLIC "-//W3C//DTD SVG 1.1//EN" "http://www.w3.org/Graphics/SVG/1.1/DTD/svg11.dtd">
<svg version="1.1" id="Layer_1" xmlns="http://www.w3.org/2000/svg" xmlns:xlink="http://www.w3.org/1999/xlink" x="0px" y="0px"
	 width="32px" height="32px" viewBox="0 0 32 32" enable-background="new 0 0 32 32" xml:space="preserve">
<path d="M26,17c0.3,0,0.5-0.1,0.7-0.3l2-2c0.4-0.4,0.4-1,0-1.4l-12-12c-0.4-0.4-1-0.4-1.4,0l-2,2c-0.4,0.4-0.4,1,0,1.4l12,12
	C25.5,16.9,25.7,17,26,17z"/>
<path d="M3,32h24c0.6,0,1-0.4,1-1s-0.4-1-1-1H3c-0.6,0-1,0.4-1,1S2.4,32,3,32z"/>
<path d="M5.6,10.1c-0.3,0.1-0.5,0.4-0.6,0.7L2.1,26.5l8.2-8.2C10.1,17.9,10,17.5,10,17c0-0.8,0.3-1.6,0.9-2.1c1.1-1.1,3.1-1.1,4.2,0
	c0.6,0.6,0.9,1.3,0.9,2.1s-0.3,1.6-0.9,2.1C14.6,19.7,13.8,20,13,20c-0.5,0-0.9-0.1-1.3-0.3l-8.2,8.2L19.2,25
	c0.3-0.1,0.6-0.3,0.7-0.6l3.2-7.1L12.7,6.9L5.6,10.1z"/>
</svg>
