<?xml version="1.0" encoding="utf-8"?>
<!-- Generator: Adobe Illustrator 18.1.1, SVG Export Plug-In . SVG Version: 6.00 Build 0)  -->
<!DOCTYPE svg PUBLIC "-//W3C//DTD SVG 1.1//EN" "http://www.w3.org/Graphics/SVG/1.1/DTD/svg11.dtd">
<svg version="1.1" id="Layer_1" xmlns="http://www.w3.org/2000/svg" xmlns:xlink="http://www.w3.org/1999/xlink" x="0px" y="0px"
	 width="32px" height="32px" viewBox="0 0 32 32" enable-background="new 0 0 32 32" xml:space="preserve">
<path d="M29,31c0-0.6-0.4-1-1-1H4c-0.6,0-1,0.4-1,1s0.4,1,1,1h24C28.6,32,29,31.6,29,31z"/>
<path d="M2.3,27.7C2.5,27.9,2.7,28,3,28s0.5-0.1,0.7-0.3l0.9-0.9C5,27,5.5,27.1,6,27.1c0.8,0,1.6-0.3,2.2-0.9l7.4-7.4l-4.4-4.4
	l-7.4,7.4c-1,1-1.2,2.4-0.6,3.6l-0.9,0.9C1.9,26.7,1.9,27.3,2.3,27.7z"/>
<path d="M29.7,10.3l-1.8-1.8l0.3-0.3c1.8-1.8,1.8-4.6,0-6.4c-0.9-0.9-2-1.3-3.2-1.3s-2.4,0.5-3.2,1.3l-9.5,9.5c-0.4,0.4-0.4,1,0,1.4
	l5,5c0.2,0.2,0.5,0.3,0.7,0.3s0.5-0.1,0.7-0.3l7.8-7.8l1.1,1.1l-5.3,5.3c-0.4,0.4-0.4,1,0,1.4c0.2,0.2,0.5,0.3,0.7,0.3
	s0.5-0.1,0.7-0.3l6-6C30.1,11.3,30.1,10.7,29.7,10.3z"/>
</svg>
