<?xml version="1.0" encoding="utf-8"?>
<!-- Generator: Adobe Illustrator 18.1.1, SVG Export Plug-In . SVG Version: 6.00 Build 0)  -->
<!DOCTYPE svg PUBLIC "-//W3C//DTD SVG 1.1//EN" "http://www.w3.org/Graphics/SVG/1.1/DTD/svg11.dtd">
<svg version="1.1" id="Layer_1" xmlns="http://www.w3.org/2000/svg" xmlns:xlink="http://www.w3.org/1999/xlink" x="0px" y="0px"
	 width="32px" height="32px" viewBox="0 0 32 32" enable-background="new 0 0 32 32" xml:space="preserve">
<path d="M2,32h28c0.6,0,1-0.4,1-1s-0.4-1-1-1H2c-0.6,0-1,0.4-1,1S1.4,32,2,32z"/>
<path d="M23,28h4c0.6,0,1-0.4,1-1V14h2c0.6,0,1-0.4,1-1v-3c0-0.4-0.2-0.7-0.5-0.9l-14-8c-0.3-0.2-0.7-0.2-1,0l-14,8
	C1.2,9.3,1,9.6,1,10v3c0,0.6,0.4,1,1,1h2v13c0,0.6,0.4,1,1,1h4c0.6,0,1-0.4,1-1V14h3v13c0,0.6,0.4,1,1,1h4c0.6,0,1-0.4,1-1V14h3v13
	C22,27.6,22.4,28,23,28z M16,10c-1.1,0-2-0.9-2-2c0-1.1,0.9-2,2-2s2,0.9,2,2C18,9.1,17.1,10,16,10z"/>
</svg>
