<?xml version="1.0" encoding="utf-8"?>
<!-- Generator: Adobe Illustrator 18.1.1, SVG Export Plug-In . SVG Version: 6.00 Build 0)  -->
<!DOCTYPE svg PUBLIC "-//W3C//DTD SVG 1.1//EN" "http://www.w3.org/Graphics/SVG/1.1/DTD/svg11.dtd">
<svg version="1.1" id="Layer_1" xmlns="http://www.w3.org/2000/svg" xmlns:xlink="http://www.w3.org/1999/xlink" x="0px" y="0px"
	 width="32px" height="32px" viewBox="0 0 32 32" enable-background="new 0 0 32 32" xml:space="preserve">
<path d="M2,31h3h22h3c0.6,0,1-0.4,1-1s-0.4-1-1-1h-2V4c0-1.7-1.3-3-3-3H7C5.3,1,4,2.3,4,4v25H2c-0.6,0-1,0.4-1,1S1.4,31,2,31z
	 M15,23h-1c-0.6,0-1-0.4-1-1s0.4-1,1-1h1c0.6,0,1,0.4,1,1S15.6,23,15,23z M15,19h-1c-0.6,0-1-0.4-1-1s0.4-1,1-1h1c0.6,0,1,0.4,1,1
	S15.6,19,15,19z M23,19h-4c-0.6,0-1-0.4-1-1s0.4-1,1-1h4c0.6,0,1,0.4,1,1S23.6,19,23,19z M8,6c0-0.6,0.4-1,1-1h14c0.6,0,1,0.4,1,1v8
	c0,0.6-0.4,1-1,1H9c-0.6,0-1-0.4-1-1V6z M9,17h1c0.6,0,1,0.4,1,1s-0.4,1-1,1H9c-0.6,0-1-0.4-1-1S8.4,17,9,17z M9,21h1
	c0.6,0,1,0.4,1,1s-0.4,1-1,1H9c-0.6,0-1-0.4-1-1S8.4,21,9,21z"/>
</svg>
