<?xml version="1.0" encoding="utf-8"?>
<!-- Generator: Adobe Illustrator 18.1.1, SVG Export Plug-In . SVG Version: 6.00 Build 0)  -->
<!DOCTYPE svg PUBLIC "-//W3C//DTD SVG 1.1//EN" "http://www.w3.org/Graphics/SVG/1.1/DTD/svg11.dtd">
<svg version="1.1" id="Layer_1" xmlns="http://www.w3.org/2000/svg" xmlns:xlink="http://www.w3.org/1999/xlink" x="0px" y="0px"
	 width="32px" height="32px" viewBox="0 0 32 32" enable-background="new 0 0 32 32" xml:space="preserve">
<path d="M22.1,12H9.9C9.5,14,8,15.5,6,15.9l0.1,3.9C8,20.3,9.5,21.9,9.9,24h12.2c0.4-2,1.9-3.5,3.9-3.9v-4.2
	C24,15.5,22.5,14,22.1,12z M16,21c-1.7,0-3-1.3-3-3s1.3-3,3-3s3,1.3,3,3S17.7,21,16,21z"/>
<path d="M31,6H1C0.4,6,0,6.4,0,7v22c0,0.6,0.4,1,1,1h30c0.6,0,1-0.4,1-1V7C32,6.4,31.6,6,31,6z M28,21c0,0.6-0.4,1-1,1
	c-1.7,0-3,1.3-3,3c0,0.6-0.4,1-1,1H9c-0.6,0-1-0.4-1-1c0-1.8-1.3-3.3-2.9-3.3c-0.5,0-1-0.4-1-1L4,15c0-0.3,0.1-0.5,0.3-0.7
	S4.7,14,5,14c1.7,0,3-1.3,3-3c0-0.6,0.4-1,1-1h14c0.6,0,1,0.4,1,1c0,1.7,1.3,3,3,3c0.6,0,1,0.4,1,1V21z"/>
<path d="M6,4h20c0.6,0,1-0.4,1-1s-0.4-1-1-1H6C5.4,2,5,2.4,5,3S5.4,4,6,4z"/>
</svg>
