<?xml version="1.0" encoding="utf-8"?>
<!-- Generator: Adobe Illustrator 18.1.1, SVG Export Plug-In . SVG Version: 6.00 Build 0)  -->
<!DOCTYPE svg PUBLIC "-//W3C//DTD SVG 1.1//EN" "http://www.w3.org/Graphics/SVG/1.1/DTD/svg11.dtd">
<svg version="1.1" id="Layer_1" xmlns="http://www.w3.org/2000/svg" xmlns:xlink="http://www.w3.org/1999/xlink" x="0px" y="0px"
	 width="32px" height="32px" viewBox="0 0 32 32" enable-background="new 0 0 32 32" xml:space="preserve">
<path d="M6.2,19.5l-2.7,5.7c-0.2,0.3-0.1,0.7,0.1,1c0.2,0.3,0.6,0.4,0.9,0.4l3.9-0.6l2,3.4c0.2,0.3,0.5,0.5,0.9,0.5c0,0,0,0,0.1,0
	c0.4,0,0.7-0.2,0.9-0.6l2.6-5.5C11.4,23.7,8.4,22,6.2,19.5z"/>
<path d="M20.5,30C20.6,30,20.6,30,20.5,30c0.4,0,0.7-0.2,0.9-0.5l2-3.4l3.9,0.6c0.1,0,0.1,0,0.2,0c0.5,0,1-0.4,1-1
	c0-0.2-0.1-0.4-0.2-0.6l-2.6-5.6c-2.2,2.5-5.2,4.1-8.7,4.4l2.6,5.5C19.8,29.8,20.2,30,20.5,30z"/>
<path d="M27,11c0-6.1-4.9-11-11-11S5,4.9,5,11s4.9,11,11,11S27,17.1,27,11z M13.3,16.6c-0.3,0.2-0.7,0.1-1.1-0.1
	c-0.3-0.2-0.5-0.6-0.4-1l0.5-2.9l-2.1-2.1c-0.3-0.3-0.4-0.7-0.2-1c0.1-0.4,0.4-0.6,0.8-0.7l2.9-0.4l1.3-2.6c0.2-0.3,0.5-0.6,0.9-0.6
	c0.4,0,0.7,0.2,0.9,0.6l1.3,2.7l2.9,0.4C21.5,9,21.8,9.2,22,9.6c0.1,0.4,0,0.8-0.3,1l-2.1,2.1l0.5,2.9c0.1,0.4-0.1,0.8-0.4,1
	c-0.2,0.1-0.4,0.2-0.6,0.2c-0.2,0-0.3,0-0.5-0.1L16,15.2L13.3,16.6z"/>
</svg>
