<?xml version="1.0" encoding="utf-8"?>
<!-- Generator: Adobe Illustrator 18.1.1, SVG Export Plug-In . SVG Version: 6.00 Build 0)  -->
<!DOCTYPE svg PUBLIC "-//W3C//DTD SVG 1.1//EN" "http://www.w3.org/Graphics/SVG/1.1/DTD/svg11.dtd">
<svg version="1.1" id="Layer_1" xmlns="http://www.w3.org/2000/svg" xmlns:xlink="http://www.w3.org/1999/xlink" x="0px" y="0px"
	 width="32px" height="32px" viewBox="0 0 32 32" enable-background="new 0 0 32 32" xml:space="preserve">
<path d="M20.1,1c-0.4-0.4-1-0.4-1.4,0l-0.3,0.3c-0.7,0.7-1.1,1.6-1.1,2.6c0,0.7,0.2,1.4,0.6,1.9l-8.5,5.4l11.3,11.3l5.4-8.5
	c0.6,0.4,1.2,0.6,1.9,0.6c1,0,1.9-0.4,2.6-1.1l0.3-0.3c0.4-0.4,0.4-1,0-1.4L20.1,1z"/>
<path d="M1.8,31.2c0.3,0,0.5-0.1,0.7-0.3l8.3-8.3l8,8c0.2,0.2,0.5,0.3,0.7,0.3s0.5-0.1,0.7-0.3l0.3-0.3c0.7-0.7,1.1-1.6,1.1-2.6
	s-0.4-1.9-1.1-2.6L6.8,11.6c-1.4-1.4-3.8-1.4-5.1,0l-0.3,0.3c-0.4,0.4-0.4,1,0,1.4l8,8L1,29.5c-0.4,0.4-0.4,1,0,1.4
	C1.2,31.2,1.5,31.2,1.8,31.2z"/>
</svg>
