<?xml version="1.0" encoding="utf-8"?>
<!-- Generator: Adobe Illustrator 18.1.1, SVG Export Plug-In . SVG Version: 6.00 Build 0)  -->
<!DOCTYPE svg PUBLIC "-//W3C//DTD SVG 1.1//EN" "http://www.w3.org/Graphics/SVG/1.1/DTD/svg11.dtd">
<svg version="1.1" id="Layer_1" xmlns="http://www.w3.org/2000/svg" xmlns:xlink="http://www.w3.org/1999/xlink" x="0px" y="0px"
	 width="32px" height="32px" viewBox="0 0 32 32" enable-background="new 0 0 32 32" xml:space="preserve">
<path d="M22.1,10H9.9C9.5,12,8,13.5,6,13.9l0.1,3.9C8,18.3,9.5,19.9,9.9,22h12.2c0.4-2,1.9-3.5,3.9-3.9v-4.2
	C24,13.5,22.5,12,22.1,10z M16,19c-1.7,0-3-1.3-3-3s1.3-3,3-3s3,1.3,3,3S17.7,19,16,19z"/>
<path d="M31,4H1C0.4,4,0,4.4,0,5v22c0,0.6,0.4,1,1,1h30c0.6,0,1-0.4,1-1V5C32,4.4,31.6,4,31,4z M28,19c0,0.6-0.4,1-1,1
	c-1.7,0-3,1.3-3,3c0,0.6-0.4,1-1,1H9c-0.6,0-1-0.4-1-1c0-1.8-1.3-3.3-2.9-3.3c-0.5,0-1-0.4-1-1L4,13c0-0.3,0.1-0.5,0.3-0.7
	S4.7,12,5,12c1.7,0,3-1.3,3-3c0-0.6,0.4-1,1-1h14c0.6,0,1,0.4,1,1c0,1.7,1.3,3,3,3c0.6,0,1,0.4,1,1V19z"/>
</svg>
