<?xml version="1.0" encoding="utf-8"?>
<!-- Generator: Adobe Illustrator 18.1.1, SVG Export Plug-In . SVG Version: 6.00 Build 0)  -->
<!DOCTYPE svg PUBLIC "-//W3C//DTD SVG 1.1//EN" "http://www.w3.org/Graphics/SVG/1.1/DTD/svg11.dtd">
<svg version="1.1" id="Layer_1" xmlns="http://www.w3.org/2000/svg" xmlns:xlink="http://www.w3.org/1999/xlink" x="0px" y="0px"
	 width="32px" height="32px" viewBox="0 0 32 32" enable-background="new 0 0 32 32" xml:space="preserve">
<path d="M30,0H2C0.9,0,0,0.9,0,2v28c0,1.1,0.9,2,2,2h28c1.1,0,2-0.9,2-2V2C32,0.9,31.1,0,30,0z M18,15c0.6,0,1,0.4,1,1s-0.4,1-1,1
	h-4v6h9c0.6,0,1,0.4,1,1s-0.4,1-1,1H9c-0.6,0-1-0.4-1-1s0.4-1,1-1h3v-6H9c-0.6,0-1-0.4-1-1s0.4-1,1-1h3v-4c0-3.3,2.7-6,6-6
	s6,2.7,6,6c0,0.6-0.4,1-1,1s-1-0.4-1-1c0-2.2-1.8-4-4-4s-4,1.8-4,4v4H18z"/>
</svg>
