<?xml version="1.0" encoding="utf-8"?>
<!-- Generator: Adobe Illustrator 18.1.1, SVG Export Plug-In . SVG Version: 6.00 Build 0)  -->
<!DOCTYPE svg PUBLIC "-//W3C//DTD SVG 1.1//EN" "http://www.w3.org/Graphics/SVG/1.1/DTD/svg11.dtd">
<svg version="1.1" id="Layer_1" xmlns="http://www.w3.org/2000/svg" xmlns:xlink="http://www.w3.org/1999/xlink" x="0px" y="0px"
	 width="32px" height="32px" viewBox="0 0 32 32" enable-background="new 0 0 32 32" xml:space="preserve">
<path d="M31,22H1c-0.6,0-1,0.4-1,1v1c0,0.6,0.4,1,1,1h9.8l-4.6,5.3c-0.4,0.4-0.3,1.1,0.1,1.4C6.5,31.9,6.8,32,7,32
	c0.3,0,0.6-0.1,0.8-0.3l5.7-6.7H15v5c0,0.6,0.4,1,1,1s1-0.4,1-1v-5h1.5l5.7,6.7c0.2,0.2,0.5,0.3,0.8,0.3c0.2,0,0.5-0.1,0.7-0.2
	c0.4-0.4,0.5-1,0.1-1.4L21.2,25H31c0.6,0,1-0.4,1-1v-1C32,22.4,31.6,22,31,22z"/>
<path d="M18,0h-4c-0.6,0-1,0.4-1,1v1H4C3.4,2,3,2.4,3,3v16c0,0.6,0.4,1,1,1h24c0.6,0,1-0.4,1-1V3c0-0.6-0.4-1-1-1h-9V1
	C19,0.4,18.6,0,18,0z M21,11c0,2.8-2.2,5-5,5s-5-2.2-5-5c0-2.8,2.2-5,5-5v5H21z"/>
</svg>
