<?xml version="1.0" encoding="utf-8"?>
<!-- Generator: Adobe Illustrator 18.1.1, SVG Export Plug-In . SVG Version: 6.00 Build 0)  -->
<!DOCTYPE svg PUBLIC "-//W3C//DTD SVG 1.1//EN" "http://www.w3.org/Graphics/SVG/1.1/DTD/svg11.dtd">
<svg version="1.1" id="Layer_1" xmlns="http://www.w3.org/2000/svg" xmlns:xlink="http://www.w3.org/1999/xlink" x="0px" y="0px"
	 width="32px" height="32px" viewBox="0 0 32 32" enable-background="new 0 0 32 32" xml:space="preserve">
<path d="M1,4.5C1,5.9,2.1,7,3.5,7H23c0.6,0,1-0.4,1-1V3c0-0.6-0.4-1-1-1H3.5C2.1,2,1,3.1,1,4.5z"/>
<path d="M1,25c0,2.8,2.2,5,5,5h22c0.6,0,1-0.4,1-1v-5h1c0.6,0,1-0.4,1-1v-5c0-0.6-0.4-1-1-1h-7.5c-1.6,0-2.9,1.1-3.3,2.5
	c-0.1-0.3-0.2-0.7-0.2-1c0-1.9,1.6-3.5,3.5-3.5H29v-5c0-0.6-0.4-1-1-1H3.5C2.6,9,1.7,8.7,1,8.2V25z M22.5,20h2
	c0.3,0,0.5,0.2,0.5,0.5S24.8,21,24.5,21h-2c-0.3,0-0.5-0.2-0.5-0.5S22.2,20,22.5,20z"/>
</svg>
