<?xml version="1.0" encoding="utf-8"?>
<!-- Generator: Adobe Illustrator 18.1.1, SVG Export Plug-In . SVG Version: 6.00 Build 0)  -->
<!DOCTYPE svg PUBLIC "-//W3C//DTD SVG 1.1//EN" "http://www.w3.org/Graphics/SVG/1.1/DTD/svg11.dtd">
<svg version="1.1" id="Layer_1" xmlns="http://www.w3.org/2000/svg" xmlns:xlink="http://www.w3.org/1999/xlink" x="0px" y="0px"
	 width="32px" height="32px" viewBox="0 0 32 32" enable-background="new 0 0 32 32" xml:space="preserve">
<path d="M3.5,16.6c-0.5,0.5-0.8,1.2-0.8,1.9S3,20,3.5,20.5C4,21,4.6,21.2,5.2,21.3C5.3,21.9,5.5,22.5,6,23c0.5,0.5,1.1,0.7,1.7,0.8
	C7.8,24.4,8,25,8.5,25.5c0.5,0.5,1.1,0.7,1.7,0.8c0.1,0.6,0.3,1.2,0.8,1.7c0.5,0.5,1.2,0.8,1.9,0.8c0.6,0,1.3-0.2,1.7-0.6l1.1,1.1
	c0.5,0.5,1.2,0.8,1.9,0.8s1.4-0.3,1.9-0.8c0.5-0.5,0.7-1.1,0.8-1.7c0.6-0.1,1.2-0.3,1.7-0.8c0.5-0.5,0.7-1.1,0.8-1.7
	c0.6-0.1,1.2-0.3,1.7-0.8c0.5-0.5,0.7-1.1,0.8-1.7c0.6-0.1,1.2-0.3,1.7-0.8c1-1,1.1-2.5,0.2-3.6c3.3-3.8,3.1-9.6-0.5-13.2
	C24.9,3,22.5,2,19.9,2c-1.4,0-2.7,0.3-3.9,0.8C12.3,1.2,8,2,5.2,4.9C2.1,8,1.5,12.8,3.5,16.6L3.5,16.6z M18.2,27.8
	c-0.3,0.3-0.8,0.3-1.1,0l-1.1-1.1l0.6-0.6c0.1-0.1,0.3-0.3,0.4-0.5l1.1,1.1c0.1,0.1,0.2,0.3,0.2,0.5C18.4,27.4,18.4,27.6,18.2,27.8z
	 M6.6,6.3c1.9-1.9,4.6-2.6,7.1-2.1c-0.3,0.2-0.5,0.4-0.7,0.7l-6.2,6.2c-0.2,0.2-0.3,0.5-0.3,0.8c0,0.3,0.2,0.6,0.4,0.7
	c1.2,0.8,4.1,1.5,6.9-0.9c1.1,0.5,3.5,1.4,5.8,1.1l6.1,6.4c0.3,0.3,0.3,0.8,0,1.1c-0.3,0.3-0.8,0.3-1.1,0l-2.2-2.2
	c-0.4-0.4-1-0.4-1.4,0s-0.4,1,0,1.4l2.2,2.2c0.1,0.1,0.2,0.3,0.2,0.5s-0.1,0.4-0.2,0.5c-0.3,0.3-0.8,0.3-1.1,0l-2.2-2.2
	c-0.4-0.4-1-0.4-1.4,0s-0.4,1,0,1.4l2.2,2.2c0.3,0.3,0.3,0.8,0,1.1s-0.8,0.3-1.1,0l-2.2-2.2c0,0,0,0,0,0l-0.2-0.2
	c-0.1-0.2-0.3-0.5-0.5-0.7c-0.5-0.5-1.1-0.7-1.7-0.8c-0.1-0.6-0.3-1.3-0.8-1.7c-0.5-0.5-1.1-0.7-1.7-0.8c-0.1-0.6-0.3-1.2-0.8-1.7
	c-0.5-0.5-1.1-0.7-1.7-0.8c-0.1-0.6-0.3-1.3-0.8-1.7c-1-1-2.9-1-3.9,0l-0.3,0.3C3.7,12.2,4.3,8.6,6.6,6.3z"/>
</svg>
