<?xml version="1.0" encoding="utf-8"?>
<!-- Generator: Adobe Illustrator 18.1.1, SVG Export Plug-In . SVG Version: 6.00 Build 0)  -->
<!DOCTYPE svg PUBLIC "-//W3C//DTD SVG 1.1//EN" "http://www.w3.org/Graphics/SVG/1.1/DTD/svg11.dtd">
<svg version="1.1" id="Layer_1" xmlns="http://www.w3.org/2000/svg" xmlns:xlink="http://www.w3.org/1999/xlink" x="0px" y="0px"
	 width="32px" height="32px" viewBox="0 0 32 32" enable-background="new 0 0 32 32" xml:space="preserve">
<path d="M12.6,26l-0.7-5.1C8,20.4,5,17,5,13c0-4.4,3.6-8,8-8c4,0,7.4,3,7.9,6.9l5.1,0.7C25.7,5.6,20,0,13,0C5.8,0,0,5.8,0,13
	C0,20,5.6,25.7,12.6,26z"/>
<path d="M13,10c1,0,1.8,0.5,2.3,1.2l3.5,0.5C18.2,9,15.8,7,13,7c-3.3,0-6,2.7-6,6c0,2.8,2,5.2,4.6,5.8l-0.5-3.5
	C10.5,14.8,10,14,10,13C10,11.3,11.3,10,13,10z"/>
<path d="M15.7,29.9c0.4,0.1,0.8,0,1-0.2l3.3-3.3l4.3,4.3c0.2,0.2,0.5,0.3,0.7,0.3s0.5-0.1,0.7-0.3l5-5c0.4-0.4,0.4-1,0-1.4L26.4,20
	l3.3-3.3c0.3-0.3,0.4-0.7,0.2-1s-0.4-0.6-0.8-0.7l-15-2c-0.3,0-0.6,0.1-0.8,0.3c-0.2,0.2-0.3,0.5-0.3,0.8l2,15
	C15.1,29.5,15.3,29.8,15.7,29.9z"/>
</svg>
