<?xml version="1.0" encoding="utf-8"?>
<!-- Generator: Adobe Illustrator 18.1.1, SVG Export Plug-In . SVG Version: 6.00 Build 0)  -->
<!DOCTYPE svg PUBLIC "-//W3C//DTD SVG 1.1//EN" "http://www.w3.org/Graphics/SVG/1.1/DTD/svg11.dtd">
<svg version="1.1" id="Layer_1" xmlns="http://www.w3.org/2000/svg" xmlns:xlink="http://www.w3.org/1999/xlink" x="0px" y="0px"
	 width="32px" height="32px" viewBox="0 0 32 32" enable-background="new 0 0 32 32" xml:space="preserve">
<path d="M1.1,15h6c0.1-1.8,0.3-3.4,0.6-5H2.3C1.6,11.5,1.2,13.2,1.1,15z"/>
<path d="M9.7,22H15v-5H9C9.1,18.8,9.3,20.5,9.7,22z"/>
<path d="M2.3,22h5.4c-0.3-1.6-0.6-3.2-0.6-5h-6C1.2,18.8,1.6,20.5,2.3,22z"/>
<path d="M15,10H9.7c-0.4,1.5-0.6,3.2-0.7,5h6V10z"/>
<path d="M29.7,10h-5.4c0.3,1.6,0.6,3.2,0.6,5h6C30.8,13.2,30.4,11.5,29.7,10z"/>
<path d="M17,15h6c-0.1-1.8-0.3-3.5-0.7-5H17V15z"/>
<path d="M17,2.2V8h4.7C20.6,4.9,18.9,2.7,17,2.2z"/>
<path d="M10.3,8H15V2.2C13.1,2.7,11.4,4.9,10.3,8z"/>
<path d="M17,29.8c1.9-0.6,3.6-2.8,4.7-5.8H17V29.8z"/>
<path d="M3.3,24c2,3.1,5.1,5.5,8.8,6.5c-1.7-1.4-3-3.6-3.9-6.5H3.3z"/>
<path d="M15,29.8V24h-4.7C11.4,27.1,13.1,29.3,15,29.8z"/>
<path d="M19.9,30.5c3.7-1,6.8-3.3,8.8-6.5h-4.8C22.9,26.8,21.5,29.1,19.9,30.5z"/>
<path d="M3.3,8h4.8c0.9-2.8,2.3-5.1,3.9-6.5C8.4,2.5,5.3,4.9,3.3,8z"/>
<path d="M17,22h5.3c0.4-1.5,0.6-3.2,0.7-5h-6V22z"/>
<path d="M25,17c-0.1,1.8-0.3,3.4-0.6,5h5.4c0.7-1.5,1.1-3.2,1.2-5H25z"/>
<path d="M19.9,1.5c1.7,1.4,3,3.6,3.9,6.5h4.8C26.7,4.9,23.6,2.5,19.9,1.5z"/>
</svg>
