<?xml version="1.0" encoding="utf-8"?>
<!-- Generator: Adobe Illustrator 18.1.1, SVG Export Plug-In . SVG Version: 6.00 Build 0)  -->
<!DOCTYPE svg PUBLIC "-//W3C//DTD SVG 1.1//EN" "http://www.w3.org/Graphics/SVG/1.1/DTD/svg11.dtd">
<svg version="1.1" id="Layer_1" xmlns="http://www.w3.org/2000/svg" xmlns:xlink="http://www.w3.org/1999/xlink" x="0px" y="0px"
	 width="32px" height="32px" viewBox="0 0 32 32" enable-background="new 0 0 32 32" xml:space="preserve">
<path d="M12.1,6.5C12.3,6.8,12.6,7,13,7h6c0.4,0,0.7-0.2,0.9-0.5l3-5c0.2-0.3,0.2-0.7,0-1C22.7,0.2,22.4,0,22,0H10
	C9.6,0,9.3,0.2,9.1,0.5C9,0.8,9,1.2,9.1,1.5L12.1,6.5z"/>
<path d="M15.3,30.7c0.2,0.2,0.5,0.3,0.7,0.3s0.5-0.1,0.7-0.3l7-7c0.3-0.3,0.4-0.6,0.2-1l-4-13C19.8,9.3,19.4,9,19,9h-6
	c-0.4,0-0.8,0.3-1,0.7l-4,13c-0.1,0.4,0,0.7,0.2,1L15.3,30.7z"/>
</svg>
