<?xml version="1.0" encoding="utf-8"?>
<!-- Generator: Adobe Illustrator 18.1.1, SVG Export Plug-In . SVG Version: 6.00 Build 0)  -->
<!DOCTYPE svg PUBLIC "-//W3C//DTD SVG 1.1//EN" "http://www.w3.org/Graphics/SVG/1.1/DTD/svg11.dtd">
<svg version="1.1" id="Layer_1" xmlns="http://www.w3.org/2000/svg" xmlns:xlink="http://www.w3.org/1999/xlink" x="0px" y="0px"
	 width="32px" height="32px" viewBox="0 0 32 32" enable-background="new 0 0 32 32" xml:space="preserve">
<path d="M29,31c0.6,0,1-0.4,1-1v-5c0-0.6-0.4-1-1-1h-2c0,0.6-0.4,1-1,1h-4c-0.6,0-1-0.4-1-1H11c0,0.6-0.4,1-1,1H6c-0.6,0-1-0.4-1-1
	H3c-0.6,0-1,0.4-1,1v5c0,0.6,0.4,1,1,1H29z"/>
<path d="M31,5h-9V2c0-0.6-0.4-1-1-1H11c-0.6,0-1,0.4-1,1v3H1C0.4,5,0,5.4,0,6v15c0,0.6,0.4,1,1,1h4c0-0.6,0.4-1,1-1h4
	c0.6,0,1,0.4,1,1h10c0-0.6,0.4-1,1-1h4c0.6,0,1,0.4,1,1h4c0.6,0,1-0.4,1-1V6C32,5.4,31.6,5,31,5z M12,3h8v2h-8V3z M21,15
	c0,0.6-0.4,1-1,1h-8c-0.6,0-1-0.4-1-1v-4c0-0.6,0.4-1,1-1h8c0.6,0,1,0.4,1,1V15z"/>
</svg>
