<?xml version="1.0" encoding="utf-8"?>
<!-- Generator: Adobe Illustrator 18.1.1, SVG Export Plug-In . SVG Version: 6.00 Build 0)  -->
<!DOCTYPE svg PUBLIC "-//W3C//DTD SVG 1.1//EN" "http://www.w3.org/Graphics/SVG/1.1/DTD/svg11.dtd">
<svg version="1.1" id="Layer_1" xmlns="http://www.w3.org/2000/svg" xmlns:xlink="http://www.w3.org/1999/xlink" x="0px" y="0px"
	 width="32px" height="32px" viewBox="0 0 32 32" enable-background="new 0 0 32 32" xml:space="preserve">
<path d="M31,4h-6V1c0-0.6-0.4-1-1-1H8C7.4,0,7,0.4,7,1v3H1C0.4,4,0,4.4,0,5v26c0,0.6,0.4,1,1,1h14V11c0-0.6,0.4-1,1-1s1,0.4,1,1v21
	h14c0.6,0,1-0.4,1-1V5C32,4.4,31.6,4,31,4z M9,11.2v-8l5.3,4.7L9,11.2z M23,3.2v8l-5.3-3.3L23,3.2z M27,20h-5c-0.6,0-1-0.4-1-1
	s0.4-1,1-1h5c0.6,0,1,0.4,1,1S27.6,20,27,20z"/>
</svg>
