<?xml version="1.0" encoding="utf-8"?>
<!-- Generator: Adobe Illustrator 18.1.1, SVG Export Plug-In . SVG Version: 6.00 Build 0)  -->
<!DOCTYPE svg PUBLIC "-//W3C//DTD SVG 1.1//EN" "http://www.w3.org/Graphics/SVG/1.1/DTD/svg11.dtd">
<svg version="1.1" id="Layer_1" xmlns="http://www.w3.org/2000/svg" xmlns:xlink="http://www.w3.org/1999/xlink" x="0px" y="0px"
	 width="32px" height="32px" viewBox="0 0 32 32" enable-background="new 0 0 32 32" xml:space="preserve">
<path d="M1,28h18v-3H3V9h23v2.1c1.1,0.1,2.1,0.5,3,1V7c0-0.6-0.4-1-1-1h-4.7l-6.8-4.3c-0.2-0.9-1-1.7-2-1.7c-1,0-1.8,0.7-2,1.7
	L5.7,6H1C0.4,6,0,6.4,0,7v20C0,27.6,0.4,28,1,28z M13.3,3.6C13.6,3.8,14,4,14.5,4c0.5,0,0.9-0.2,1.2-0.4L19.6,6H9.4L13.3,3.6z"/>
<path d="M18,15c0-0.6-0.4-1-1-1H7c-0.6,0-1,0.4-1,1s0.4,1,1,1h10C17.6,16,18,15.6,18,15z"/>
<path d="M7,18c-0.6,0-1,0.4-1,1s0.4,1,1,1h8c0.6,0,1-0.4,1-1s-0.4-1-1-1H7z"/>
<path d="M29,30.9v-7.4c1.2-1.1,2-2.7,2-4.5c0-3.3-2.7-6-6-6s-6,2.7-6,6c0,1.8,0.8,3.4,2,4.5v7.4l4-2.7L29,30.9z"/>
</svg>
