<?xml version="1.0" encoding="utf-8"?>
<!-- Generator: Adobe Illustrator 18.1.1, SVG Export Plug-In . SVG Version: 6.00 Build 0)  -->
<!DOCTYPE svg PUBLIC "-//W3C//DTD SVG 1.1//EN" "http://www.w3.org/Graphics/SVG/1.1/DTD/svg11.dtd">
<svg version="1.1" id="Layer_1" xmlns="http://www.w3.org/2000/svg" xmlns:xlink="http://www.w3.org/1999/xlink" x="0px" y="0px"
	 width="32px" height="32px" viewBox="0 0 32 32" enable-background="new 0 0 32 32" xml:space="preserve">
<path d="M16,0C7.2,0,0,7.2,0,16s7.2,16,16,16s16-7.2,16-16S24.8,0,16,0z M17,13c0.6,0,1,0.4,1,1s-0.4,1-1,1h-6.9
	c0,0.3-0.1,0.7-0.1,1s0,0.7,0.1,1H17c0.6,0,1,0.4,1,1s-0.4,1-1,1h-6.4c1.2,2.9,4.1,5,7.4,5c1.7,0,3.4-0.6,4.8-1.6
	c0.4-0.3,1.1-0.2,1.4,0.2c0.3,0.4,0.2,1.1-0.2,1.4c-1.7,1.3-3.8,2-6,2c-4.5,0-8.3-2.9-9.5-7H7c-0.6,0-1-0.4-1-1s0.4-1,1-1h1.1
	C8,16.7,8,16.3,8,16s0-0.7,0.1-1H7c-0.6,0-1-0.4-1-1s0.4-1,1-1h1.5c1.3-4.1,5.1-7,9.5-7c2.2,0,4.3,0.7,6,2c0.4,0.3,0.5,1,0.2,1.4
	c-0.3,0.4-1,0.5-1.4,0.2C21.4,8.6,19.7,8,18,8c-3.3,0-6.2,2.1-7.4,5H17z"/>
</svg>
