<?xml version="1.0" encoding="utf-8"?>
<!-- Generator: Adobe Illustrator 18.1.1, SVG Export Plug-In . SVG Version: 6.00 Build 0)  -->
<!DOCTYPE svg PUBLIC "-//W3C//DTD SVG 1.1//EN" "http://www.w3.org/Graphics/SVG/1.1/DTD/svg11.dtd">
<svg version="1.1" id="Layer_1" xmlns="http://www.w3.org/2000/svg" xmlns:xlink="http://www.w3.org/1999/xlink" x="0px" y="0px"
	 width="32px" height="32px" viewBox="0 0 32 32" enable-background="new 0 0 32 32" xml:space="preserve">
<path d="M8,20c0.1,0,0.2,0,0.3,0C8.1,19.5,8,19,8,18.5c0-0.2,0-0.3,0-0.5c0,0,0,0,0,0c-2.5,0-4.5-0.7-6-1.7c0,0.1,0,0.2,0,0.2
	C2,18.5,4.6,20,8,20z"/>
<path d="M8,12c0.7,0,1.3-0.1,1.9-0.2c0.9-0.7,2-1.2,3.3-1.5C13.7,9.8,14,9.2,14,8.5c0-0.1,0-0.2,0-0.2C12.5,9.3,10.5,10,8,10
	S3.5,9.3,2,8.3c0,0.1,0,0.2,0,0.2C2,10.5,4.6,12,8,12z"/>
<path d="M8,8c3.4,0,6-1.5,6-3.5S11.4,1,8,1S2,2.5,2,4.5S4.6,8,8,8z"/>
<path d="M8,16C8,16,8,16,8,16c0-0.2,0-0.3,0-0.5c0-0.5,0.1-1,0.3-1.5c-0.1,0-0.2,0-0.3,0c-2.5,0-4.5-0.7-6-1.7c0,0.1,0,0.2,0,0.2
	C2,14.5,4.6,16,8,16z"/>
<path d="M8,24C8,24,8,24,8,24c0.1-0.3,0.2-0.7,0.3-1c-0.1-0.3-0.2-0.7-0.2-1c0,0,0,0,0,0c-2.5,0-4.5-0.7-6-1.7c0,0.1,0,0.2,0,0.2
	C2,22.5,4.6,24,8,24z"/>
<path d="M10,27.3c0,0.1,0,0.2,0,0.2c0,2,2.6,3.5,6,3.5s6-1.5,6-3.5c0-0.1,0-0.2,0-0.2c-1.4,1.1-3.5,1.7-6,1.7S11.5,28.3,10,27.3z"/>
<path d="M22,23.3c-1.4,1.1-3.5,1.7-6,1.7s-4.5-0.7-6-1.7c0,0.1,0,0.2,0,0.2c0,2,2.6,3.5,6,3.5s6-1.5,6-3.5C22,23.4,22,23.3,22,23.3z
	"/>
<path d="M22,19.3c-1.4,1.1-3.5,1.7-6,1.7s-4.5-0.7-6-1.7c0,0.1,0,0.2,0,0.2c0,2,2.6,3.5,6,3.5s6-1.5,6-3.5C22,19.4,22,19.3,22,19.3z
	"/>
<path d="M10,15.5c0,2,2.6,3.5,6,3.5s6-1.5,6-3.5S19.4,12,16,12S10,13.5,10,15.5z"/>
<path d="M23,6c-3.4,0-6,1.5-6,3.5c0,0.2,0,0.4,0.1,0.5c2.8,0.2,5,1.3,6.1,2.9c3.3-0.1,5.8-1.5,5.8-3.5C29,7.5,26.4,6,23,6z"/>
<path d="M29,17.3c-1.2,0.9-3,1.6-5,1.7c0,0.4-0.1,0.7-0.2,1c0.1,0.3,0.2,0.6,0.2,1c2.9-0.3,5-1.7,5-3.5C29,17.4,29,17.3,29,17.3z"/>
<path d="M29,13.3c-1.2,0.9-3,1.6-5,1.7c0,0.2,0,0.4,0,0.5c0,0.5-0.1,1-0.3,1.5c3-0.2,5.3-1.6,5.3-3.5C29,13.4,29,13.3,29,13.3z"/>
<path d="M29,21.5c0-0.1,0-0.2,0-0.2c-1.3,1-3.1,1.6-5.2,1.7c0,0,0,0,0,0c0.2,0.5,0.3,1,0.3,1.5c0,0.2,0,0.3,0,0.5
	C26.9,24.7,29,23.3,29,21.5z"/>
</svg>
