<?xml version="1.0" encoding="utf-8"?>
<!-- Generator: Adobe Illustrator 19.1.0, SVG Export Plug-In . SVG Version: 6.00 Build 0)  -->
<!DOCTYPE svg PUBLIC "-//W3C//DTD SVG 1.1//EN" "http://www.w3.org/Graphics/SVG/1.1/DTD/svg11.dtd">
<svg version="1.1" id="Layer_1" xmlns="http://www.w3.org/2000/svg" xmlns:xlink="http://www.w3.org/1999/xlink" x="0px" y="0px"
	 width="24px" height="24px" viewBox="0 0 24 24" enable-background="new 0 0 24 24" xml:space="preserve">
<path d="M12.8,3.4c-0.4-0.5-1.2-0.5-1.6,0l-9,12c-0.2,0.3-0.3,0.7-0.1,1S2.6,17,3,17h18c0,0,0,0,0,0c0.6,0,1-0.4,1-1
	c0-0.3-0.1-0.6-0.3-0.7L12.8,3.4z"/>
<path id="color_25_" d="M21,19H3c-0.6,0-1,0.4-1,1s0.4,1,1,1h18c0.6,0,1-0.4,1-1S21.6,19,21,19z"/>
</svg>
