<?xml version="1.0" encoding="utf-8"?>
<!-- Generator: Adobe Illustrator 19.1.0, SVG Export Plug-In . SVG Version: 6.00 Build 0)  -->
<!DOCTYPE svg PUBLIC "-//W3C//DTD SVG 1.1//EN" "http://www.w3.org/Graphics/SVG/1.1/DTD/svg11.dtd">
<svg version="1.1" id="Layer_1" xmlns="http://www.w3.org/2000/svg" xmlns:xlink="http://www.w3.org/1999/xlink" x="0px" y="0px"
	 width="24px" height="24px" viewBox="0 0 24 24" enable-background="new 0 0 24 24" xml:space="preserve">
<path id="color_93_" d="M21,21c-0.6,0-1-0.4-1-1V2H5C4.4,2,4,1.6,4,1s0.4-1,1-1h16c0.6,0,1,0.4,1,1v19C22,20.6,21.6,21,21,21z"/>
<path d="M18,3H2C1.4,3,1,3.4,1,4v19c0,0.6,0.4,1,1,1h16c0.6,0,1-0.4,1-1V4C19,3.4,18.6,3,18,3z M15,15c0,0.6-0.4,1-1,1H6
	c-0.6,0-1-0.4-1-1V8c0-0.6,0.4-1,1-1h8c0.6,0,1,0.4,1,1V15z"/>
</svg>
