<?xml version="1.0" encoding="utf-8"?>
<!-- Generator: Adobe Illustrator 19.1.0, SVG Export Plug-In . SVG Version: 6.00 Build 0)  -->
<!DOCTYPE svg PUBLIC "-//W3C//DTD SVG 1.1//EN" "http://www.w3.org/Graphics/SVG/1.1/DTD/svg11.dtd">
<svg version="1.1" id="Layer_1" xmlns="http://www.w3.org/2000/svg" xmlns:xlink="http://www.w3.org/1999/xlink" x="0px" y="0px"
	 width="24px" height="24px" viewBox="0 0 24 24" enable-background="new 0 0 24 24" xml:space="preserve">
<path id="color_11_" d="M1,18c-0.6,0-1-0.4-1-1V7c0-0.6,0.4-1,1-1s1,0.4,1,1v10C2,17.6,1.6,18,1,18z"/>
<path id="color_10_" d="M23,18c-0.6,0-1-0.4-1-1V7c0-0.6,0.4-1,1-1s1,0.4,1,1v10C24,17.6,23.6,18,23,18z"/>
<path d="M20,3H4C3.4,3,3,3.4,3,4v16c0,0.6,0.4,1,1,1h16c0.6,0,1-0.4,1-1V4C21,3.4,20.6,3,20,3z M17,14c0,0.1,0,0.1,0,0.2
	c0,0.1,0,0.2,0,0.3c0,1.4-1.1,2.5-2.5,2.5S12,15.9,12,14.5s1.1-2.5,2.5-2.5c0.2,0,0.3,0,0.5,0.1V9h-4v5c0,0.1,0,0.1,0,0.2
	c0,0.1,0,0.2,0,0.3c0,1.4-1.1,2.5-2.5,2.5S6,15.9,6,14.5S7.1,12,8.5,12c0.2,0,0.3,0,0.5,0.1V8c0-0.6,0.4-1,1-1h6c0.6,0,1,0.4,1,1V14
	z"/>
</svg>
