<?xml version="1.0" encoding="utf-8"?>
<!-- Generator: Adobe Illustrator 19.1.0, SVG Export Plug-In . SVG Version: 6.00 Build 0)  -->
<!DOCTYPE svg PUBLIC "-//W3C//DTD SVG 1.1//EN" "http://www.w3.org/Graphics/SVG/1.1/DTD/svg11.dtd">
<svg version="1.1" id="Layer_1" xmlns="http://www.w3.org/2000/svg" xmlns:xlink="http://www.w3.org/1999/xlink" x="0px" y="0px"
	 width="24px" height="24px" viewBox="0 0 24 24" enable-background="new 0 0 24 24" xml:space="preserve">
<path d="M9.9,14.1c0.6,0.6,1.3,0.9,2.1,0.9s1.6-0.3,2.1-0.9c0.6-0.6,0.9-1.3,0.9-2.1s-0.3-1.6-0.9-2.1c-0.8-0.8-6.3-4.1-8-5.1
	C5.8,4.5,5.3,4.6,4.9,4.9C4.6,5.3,4.5,5.8,4.8,6.1C5.8,7.8,9.1,13.3,9.9,14.1z"/>
<path id="color_76_" d="M14.9,2.4C14.7,1.1,13.5,0,12,0c-1.7,0-3,1.3-3,3s1.3,3,3,3c1.1,0,2.1-0.6,2.6-1.6C17.8,5.5,20,8.5,20,12
	c0,4.4-3.6,8-8,8s-8-3.6-8-8c0-0.6-0.4-1-1-1s-1,0.4-1,1c0,5.5,4.5,10,10,10s10-4.5,10-10C22,7.5,19.1,3.7,14.9,2.4z"/>
</svg>
