<?xml version="1.0" encoding="utf-8"?>
<!-- Generator: Adobe Illustrator 19.1.0, SVG Export Plug-In . SVG Version: 6.00 Build 0)  -->
<!DOCTYPE svg PUBLIC "-//W3C//DTD SVG 1.1//EN" "http://www.w3.org/Graphics/SVG/1.1/DTD/svg11.dtd">
<svg version="1.1" id="Layer_1" xmlns="http://www.w3.org/2000/svg" xmlns:xlink="http://www.w3.org/1999/xlink" x="0px" y="0px"
	 width="24px" height="24px" viewBox="0 0 24 24" enable-background="new 0 0 24 24" xml:space="preserve">
<path id="color_77_" d="M12,0c-0.6,0-1,0.4-1,1v3c0,0.6,0.4,1,1,1s1-0.4,1-1V2c5,0.5,9,4.8,9,10c0,5.5-4.5,10-10,10S2,17.5,2,12
	c0-0.6-0.4-1-1-1s-1,0.4-1,1c0,6.6,5.4,12,12,12s12-5.4,12-12S18.6,0,12,0z"/>
<path d="M9.9,14.1c0.6,0.6,1.3,0.9,2.1,0.9s1.6-0.3,2.1-0.9c0.6-0.6,0.9-1.3,0.9-2.1s-0.3-1.6-0.9-2.1c-0.8-0.8-6.3-4.1-8-5.1
	C5.8,4.5,5.3,4.6,4.9,4.9S4.5,5.8,4.8,6.1C5.8,7.8,9.1,13.3,9.9,14.1z"/>
</svg>
