<?xml version="1.0" encoding="utf-8"?>
<!-- Generator: Adobe Illustrator 19.1.0, SVG Export Plug-In . SVG Version: 6.00 Build 0)  -->
<!DOCTYPE svg PUBLIC "-//W3C//DTD SVG 1.1//EN" "http://www.w3.org/Graphics/SVG/1.1/DTD/svg11.dtd">
<svg version="1.1" id="Layer_1" xmlns="http://www.w3.org/2000/svg" xmlns:xlink="http://www.w3.org/1999/xlink" x="0px" y="0px"
	 width="24px" height="24px" viewBox="0 0 24 24" enable-background="new 0 0 24 24" xml:space="preserve">
<circle cx="9" cy="7" r="2"/>
<path d="M23,14.7V1c0-0.6-0.4-1-1-1H1C0.4,0,0,0.4,0,1v21c0,0.6,0.4,1,1,1h13.7c0.9,0.6,2.1,1,3.3,1c3.3,0,6-2.7,6-6
	C24,16.8,23.6,15.6,23,14.7z M21,2v8.1l-4.4-3c-0.4-0.3-0.9-0.2-1.3,0.1l-5.4,5.4l-4.3-2.6C5.1,9.9,4.6,10,4.3,10.3L2,12.6V2H21z
	 M18,22c-2.2,0-4-1.8-4-4s1.8-4,4-4s4,1.8,4,4S20.2,22,18,22z"/>
<path id="color_91_" d="M20,17h-4c-0.6,0-1,0.4-1,1s0.4,1,1,1h4c0.6,0,1-0.4,1-1S20.6,17,20,17z"/>
</svg>
