<?xml version="1.0" encoding="utf-8"?>
<!-- Generator: Adobe Illustrator 19.1.0, SVG Export Plug-In . SVG Version: 6.00 Build 0)  -->
<!DOCTYPE svg PUBLIC "-//W3C//DTD SVG 1.1//EN" "http://www.w3.org/Graphics/SVG/1.1/DTD/svg11.dtd">
<svg version="1.1" id="Layer_1" xmlns="http://www.w3.org/2000/svg" xmlns:xlink="http://www.w3.org/1999/xlink" x="0px" y="0px"
	 width="24px" height="24px" viewBox="0 0 24 24" enable-background="new 0 0 24 24" xml:space="preserve">
<path id="color_52_" d="M1.7,12.3C1.5,12,1,11.9,0.6,12.1C0.3,12.2,0,12.6,0,13v9c0,0.6,0.4,1,1,1h8c0.4,0,0.8-0.2,0.9-0.6
	s0.1-0.8-0.2-1.1L1.7,12.3z"/>
<path id="color_51_" d="M23.4,12.1c-0.4-0.1-0.8,0-1.1,0.3l-8,9c-0.3,0.3-0.3,0.7-0.2,1.1S14.6,23,15,23h8c0.6,0,1-0.4,1-1v-9
	C24,12.6,23.7,12.2,23.4,12.1z"/>
<path d="M6,13h12c0.6,0,1-0.4,1-1V2c0-0.6-0.4-1-1-1H6C5.4,1,5,1.4,5,2v10C5,12.6,5.4,13,6,13z"/>
</svg>
