<?xml version="1.0" encoding="utf-8"?>
<!-- Generator: Adobe Illustrator 19.1.0, SVG Export Plug-In . SVG Version: 6.00 Build 0)  -->
<!DOCTYPE svg PUBLIC "-//W3C//DTD SVG 1.1//EN" "http://www.w3.org/Graphics/SVG/1.1/DTD/svg11.dtd">
<svg version="1.1" id="Layer_1" xmlns="http://www.w3.org/2000/svg" xmlns:xlink="http://www.w3.org/1999/xlink" x="0px" y="0px"
	 width="24px" height="24px" viewBox="0 0 24 24" enable-background="new 0 0 24 24" xml:space="preserve">
<path id="color_9_" d="M22,10c0-0.6-0.4-1-1-1s-1,0.4-1,1c0,4.4-3.6,8-8,8s-8-3.6-8-8c0-0.6-0.4-1-1-1s-1,0.4-1,1c0,5.2,4,9.4,9,9.9
	V22H7c-0.6,0-1,0.4-1,1s0.4,1,1,1h10c0.6,0,1-0.4,1-1s-0.4-1-1-1h-4v-2.1C18,19.4,22,15.2,22,10z"/>
<path d="M9,11H6.1c0.5,2.8,2.9,5,5.9,5s5.4-2.2,5.9-5H15V9h3V7h-3V5h2.9C17.4,2.2,15,0,12,0S6.6,2.2,6.1,5H9v2H6v2h3V11z"/>
</svg>
