<?xml version="1.0" encoding="utf-8"?>
<!-- Generator: Adobe Illustrator 19.1.0, SVG Export Plug-In . SVG Version: 6.00 Build 0)  -->
<!DOCTYPE svg PUBLIC "-//W3C//DTD SVG 1.1//EN" "http://www.w3.org/Graphics/SVG/1.1/DTD/svg11.dtd">
<svg version="1.1" id="Layer_1" xmlns="http://www.w3.org/2000/svg" xmlns:xlink="http://www.w3.org/1999/xlink" x="0px" y="0px"
	 width="24px" height="24px" viewBox="0 0 24 24" enable-background="new 0 0 24 24" xml:space="preserve">
<path d="M19,0H5C2.2,0,0,2.2,0,5v14c0,2.8,2.2,5,5,5h14c2.8,0,5-2.2,5-5V5C24,2.2,21.8,0,19,0z M12,19c-3.9,0-7-3.1-7-7s3.1-7,7-7
	s7,3.1,7,7S15.9,19,12,19z"/>
<path id="color_42_" d="M12,8c-0.6,0-1,0.4-1,1c0,1.1-0.9,2-2,2c-0.6,0-1,0.4-1,1c0,2.2,1.8,4,4,4s4-1.8,4-4S14.2,8,12,8z"/>
</svg>
