<?xml version="1.0" encoding="utf-8"?>
<!-- Generator: Adobe Illustrator 19.1.0, SVG Export Plug-In . SVG Version: 6.00 Build 0)  -->
<!DOCTYPE svg PUBLIC "-//W3C//DTD SVG 1.1//EN" "http://www.w3.org/Graphics/SVG/1.1/DTD/svg11.dtd">
<svg version="1.1" id="Layer_1" xmlns="http://www.w3.org/2000/svg" xmlns:xlink="http://www.w3.org/1999/xlink" x="0px" y="0px"
	 width="24px" height="24px" viewBox="0 0 24 24" enable-background="new 0 0 24 24" xml:space="preserve">
<path d="M14.4,1.1c-0.3-0.2-0.7-0.1-1,0.1L5.7,7H1C0.4,7,0,7.4,0,8v8c0,0.6,0.4,1,1,1h4.7l7.7,5.8c0.2,0.1,0.4,0.2,0.6,0.2
	c0.2,0,0.3,0,0.4-0.1c0.3-0.2,0.6-0.5,0.6-0.9V2C15,1.6,14.8,1.3,14.4,1.1z"/>
<path id="color_18_" d="M20,8c-2.2,0-4,1.8-4,4s1.8,4,4,4s4-1.8,4-4S22.2,8,20,8z M22,12c0,0.2,0,0.3-0.1,0.5l-2.4-2.4
	c0.2,0,0.3-0.1,0.5-0.1C21.1,10,22,10.9,22,12z M18,12c0-0.2,0-0.3,0.1-0.5l2.4,2.4C20.3,14,20.2,14,20,14C18.9,14,18,13.1,18,12z"
	/>
</svg>
