<?xml version="1.0" encoding="utf-8"?>
<!-- Generator: Adobe Illustrator 19.1.0, SVG Export Plug-In . SVG Version: 6.00 Build 0)  -->
<!DOCTYPE svg PUBLIC "-//W3C//DTD SVG 1.1//EN" "http://www.w3.org/Graphics/SVG/1.1/DTD/svg11.dtd">
<svg version="1.1" id="Layer_1" xmlns="http://www.w3.org/2000/svg" xmlns:xlink="http://www.w3.org/1999/xlink" x="0px" y="0px"
	 width="24px" height="24px" viewBox="0 0 24 24" enable-background="new 0 0 24 24" xml:space="preserve">
<path d="M1,1v22c0,0.6,0.4,1,1,1h20c0.6,0,1-0.4,1-1V1c0-0.6-0.4-1-1-1H2C1.4,0,1,0.4,1,1z M19,15c0,0.6-0.4,1-1,1h-1.2
	c-0.4-1.2-1.5-2-2.8-2h-4c-1.3,0-2.4,0.8-2.8,2H6c-0.6,0-1-0.4-1-1V5c0-0.6,0.4-1,1-1h12c0.6,0,1,0.4,1,1V15z"/>
<path d="M9,9v1c0,1.7,1.3,3,3,3h0c1.7,0,3-1.3,3-3V9c0-1.7-1.3-3-3-3h0C10.3,6,9,7.3,9,9z"/>
</svg>
