<?xml version="1.0" encoding="utf-8"?>
<!-- Generator: Adobe Illustrator 19.1.0, SVG Export Plug-In . SVG Version: 6.00 Build 0)  -->
<!DOCTYPE svg PUBLIC "-//W3C//DTD SVG 1.1//EN" "http://www.w3.org/Graphics/SVG/1.1/DTD/svg11.dtd">
<svg version="1.1" id="Layer_1" xmlns="http://www.w3.org/2000/svg" xmlns:xlink="http://www.w3.org/1999/xlink" x="0px" y="0px"
	 width="24px" height="24px" viewBox="0 0 24 24" enable-background="new 0 0 24 24" xml:space="preserve">
<path id="color_9_" d="M18.2,7.8c-0.4-0.4-1-0.4-1.4,0s-0.4,1,0,1.4c1.6,1.6,1.6,4.1,0,5.7c-0.4,0.4-0.4,1,0,1.4
	c0.2,0.2,0.5,0.3,0.7,0.3s0.5-0.1,0.7-0.3C20.6,13.9,20.6,10.1,18.2,7.8z"/>
<path id="color_8_" d="M21.1,4.9c-0.4-0.4-1-0.4-1.4,0s-0.4,1,0,1.4c3.1,3.1,3.1,8.2,0,11.3c-0.4,0.4-0.4,1,0,1.4
	c0.2,0.2,0.5,0.3,0.7,0.3s0.5-0.1,0.7-0.3C25,15.2,25,8.8,21.1,4.9z"/>
<path id="color_7_" d="M7.2,7.8c-0.4-0.4-1-0.4-1.4,0c-2.3,2.3-2.3,6.1,0,8.5c0.2,0.2,0.5,0.3,0.7,0.3s0.5-0.1,0.7-0.3
	c0.4-0.4,0.4-1,0-1.4c-1.6-1.6-1.6-4.1,0-5.7C7.6,8.8,7.6,8.1,7.2,7.8z"/>
<path id="color_6_" d="M4.3,6.3c0.4-0.4,0.4-1,0-1.4s-1-0.4-1.4,0C-1,8.8-1,15.2,2.9,19.1c0.2,0.2,0.5,0.3,0.7,0.3s0.5-0.1,0.7-0.3
	c0.4-0.4,0.4-1,0-1.4C1.2,14.5,1.2,9.5,4.3,6.3z"/>
<circle cx="12" cy="12" r="3"/>
</svg>
