<?xml version="1.0" encoding="utf-8"?>
<!-- Generator: Adobe Illustrator 19.1.0, SVG Export Plug-In . SVG Version: 6.00 Build 0)  -->
<!DOCTYPE svg PUBLIC "-//W3C//DTD SVG 1.1//EN" "http://www.w3.org/Graphics/SVG/1.1/DTD/svg11.dtd">
<svg version="1.1" id="Layer_1" xmlns="http://www.w3.org/2000/svg" xmlns:xlink="http://www.w3.org/1999/xlink" x="0px" y="0px"
	 width="24px" height="24px" viewBox="0 0 24 24" enable-background="new 0 0 24 24" xml:space="preserve">
<path d="M17,6H1C0.4,6,0,6.4,0,7v16c0,0.6,0.4,1,1,1h16c0.6,0,1-0.4,1-1V7C18,6.4,17.6,6,17,6z"/>
<path id="color_95_" d="M20,3H4C3.4,3,3,3.4,3,4s0.4,1,1,1h15v15c0,0.6,0.4,1,1,1s1-0.4,1-1V4C21,3.4,20.6,3,20,3z"/>
<path id="color_94_" d="M23,0H7C6.4,0,6,0.4,6,1s0.4,1,1,1h15v15c0,0.6,0.4,1,1,1s1-0.4,1-1V1C24,0.4,23.6,0,23,0z"/>
</svg>
