<?xml version="1.0" encoding="utf-8"?>
<!-- Generator: Adobe Illustrator 19.1.0, SVG Export Plug-In . SVG Version: 6.00 Build 0)  -->
<!DOCTYPE svg PUBLIC "-//W3C//DTD SVG 1.1//EN" "http://www.w3.org/Graphics/SVG/1.1/DTD/svg11.dtd">
<svg version="1.1" id="Layer_1" xmlns="http://www.w3.org/2000/svg" xmlns:xlink="http://www.w3.org/1999/xlink" x="0px" y="0px"
	 width="24px" height="24px" viewBox="0 0 24 24" enable-background="new 0 0 24 24" xml:space="preserve">
<path d="M17.6,2.2C17.3,2,17,1.9,16.6,2.1l-16,6C0.3,8.2,0,8.6,0,9v6c0,0.4,0.3,0.8,0.6,0.9L2,16.4V20c0,0.5,0.4,0.9,0.8,1l6,1
	c0.1,0,0.1,0,0.2,0c0.2,0,0.5-0.1,0.6-0.2C9.9,21.6,10,21.3,10,21v-1.6l6.6,2.5c0.1,0,0.2,0.1,0.4,0.1c0.2,0,0.4-0.1,0.6-0.2
	c0.3-0.2,0.4-0.5,0.4-0.8V3C18,2.7,17.8,2.4,17.6,2.2z M8,19.8l-4-0.7v-2l4,1.5V19.8z"/>
<path id="color_14_" d="M23,11h-2c-0.6,0-1,0.4-1,1s0.4,1,1,1h2c0.6,0,1-0.4,1-1S23.6,11,23,11z"/>
<path id="color_13_" d="M19.8,8.5c0.2,0,0.3,0,0.5-0.1l1.7-1c0.5-0.3,0.6-0.9,0.4-1.4c-0.3-0.5-0.9-0.6-1.4-0.4l-1.7,1
	c-0.5,0.3-0.6,0.9-0.4,1.4C19.1,8.3,19.4,8.5,19.8,8.5z"/>
<path id="color_12_" d="M22,16.6l-1.7-1c-0.5-0.3-1.1-0.1-1.4,0.4c-0.3,0.5-0.1,1.1,0.4,1.4l1.7,1c0.2,0.1,0.3,0.1,0.5,0.1
	c0.3,0,0.7-0.2,0.9-0.5C22.7,17.5,22.5,16.9,22,16.6z"/>
</svg>
