<?xml version="1.0" encoding="utf-8"?>
<!-- Generator: Adobe Illustrator 19.1.0, SVG Export Plug-In . SVG Version: 6.00 Build 0)  -->
<!DOCTYPE svg PUBLIC "-//W3C//DTD SVG 1.1//EN" "http://www.w3.org/Graphics/SVG/1.1/DTD/svg11.dtd">
<svg version="1.1" id="Layer_1" xmlns="http://www.w3.org/2000/svg" xmlns:xlink="http://www.w3.org/1999/xlink" x="0px" y="0px"
	 width="24px" height="24px" viewBox="0 0 24 24" enable-background="new 0 0 24 24" xml:space="preserve">
<path d="M20.5,3.5C18.2,1.2,15.2,0,12,0S5.8,1.2,3.5,3.5c-4.7,4.7-4.7,12.3,0,17C5.8,22.8,8.8,24,12,24s6.2-1.2,8.5-3.5
	C25.2,15.8,25.2,8.2,20.5,3.5z M6,14c-1.1,0-2-0.9-2-2c0-1.1,0.9-2,2-2s2,0.9,2,2C8,13.1,7.1,14,6,14z M12,20c-1.1,0-2-0.9-2-2
	c0-1.1,0.9-2,2-2s2,0.9,2,2C14,19.1,13.1,20,12,20z M12,8c-1.1,0-2-0.9-2-2c0-1.1,0.9-2,2-2s2,0.9,2,2C14,7.1,13.1,8,12,8z M18,14
	c-1.1,0-2-0.9-2-2c0-1.1,0.9-2,2-2s2,0.9,2,2C20,13.1,19.1,14,18,14z"/>
</svg>
