<?xml version="1.0" encoding="utf-8"?>
<!-- Generator: Adobe Illustrator 19.1.0, SVG Export Plug-In . SVG Version: 6.00 Build 0)  -->
<!DOCTYPE svg PUBLIC "-//W3C//DTD SVG 1.1//EN" "http://www.w3.org/Graphics/SVG/1.1/DTD/svg11.dtd">
<svg version="1.1" id="Layer_1" xmlns="http://www.w3.org/2000/svg" xmlns:xlink="http://www.w3.org/1999/xlink" x="0px" y="0px"
	 width="24px" height="24px" viewBox="0 0 24 24" enable-background="new 0 0 24 24" xml:space="preserve">
<path id="color_78_" d="M19,0H5C4.4,0,4,0.4,4,1v2c0,0.6,0.4,1,1,1h14c0.6,0,1-0.4,1-1V1C20,0.4,19.6,0,19,0z"/>
<path d="M13,15.6V13h1c0.6,0,1-0.4,1-1V7c0-0.6-0.4-1-1-1h-4C9.4,6,9,6.4,9,7v5c0,0.6,0.4,1,1,1h1v2.6l-5.7,5.7
	c-0.4,0.4-0.4,1,0,1.4s1,0.4,1.4,0l4.3-4.3V21c0,0.6,0.4,1,1,1s1-0.4,1-1v-2.6l4.3,4.3c0.2,0.2,0.5,0.3,0.7,0.3s0.5-0.1,0.7-0.3
	c0.4-0.4,0.4-1,0-1.4L13,15.6z"/>
</svg>
