<?xml version="1.0" encoding="utf-8"?>
<!-- Generator: Adobe Illustrator 19.1.0, SVG Export Plug-In . SVG Version: 6.00 Build 0)  -->
<!DOCTYPE svg PUBLIC "-//W3C//DTD SVG 1.1//EN" "http://www.w3.org/Graphics/SVG/1.1/DTD/svg11.dtd">
<svg version="1.1" id="Layer_1" xmlns="http://www.w3.org/2000/svg" xmlns:xlink="http://www.w3.org/1999/xlink" x="0px" y="0px"
	 width="24px" height="24px" viewBox="0 0 24 24" enable-background="new 0 0 24 24" xml:space="preserve">
<path d="M23,0H1C0.4,0,0,0.4,0,1v22c0,0.6,0.4,1,1,1h22c0.6,0,1-0.4,1-1V1C24,0.4,23.6,0,23,0z M11,2h2v2h-2V2z M7,2h2v2H7V2z M5,22
	H2v-2h3V22z M5,4H2V2h3V4z M9,22H7v-2h2V22z M13,22h-2v-2h2V22z M10.6,15.8C10.4,15.9,10.2,16,10,16c-0.2,0-0.3,0-0.4-0.1
	C9.2,15.7,9,15.4,9,15V9c0-0.4,0.2-0.7,0.6-0.9c0.3-0.2,0.7-0.1,1,0.1l4,3c0.3,0.2,0.4,0.5,0.4,0.8s-0.1,0.6-0.4,0.8L10.6,15.8z
	 M17,22h-2v-2h2V22z M17,4h-2V2h2V4z M22,22h-3v-2h3V22z M22,4h-3V2h3V4z"/>
</svg>
