<?xml version="1.0" encoding="utf-8"?>
<!-- Generator: Adobe Illustrator 19.1.0, SVG Export Plug-In . SVG Version: 6.00 Build 0)  -->
<!DOCTYPE svg PUBLIC "-//W3C//DTD SVG 1.1//EN" "http://www.w3.org/Graphics/SVG/1.1/DTD/svg11.dtd">
<svg version="1.1" id="Layer_1" xmlns="http://www.w3.org/2000/svg" xmlns:xlink="http://www.w3.org/1999/xlink" x="0px" y="0px"
	 width="24px" height="24px" viewBox="0 0 24 24" enable-background="new 0 0 24 24" xml:space="preserve">
<rect id="color_85_" x="1" y="1" width="4" height="2"/>
<path d="M23,4h-5.5l-1.7-2.6C15.6,1.2,15.3,1,15,1H9C8.7,1,8.4,1.2,8.2,1.4L6.5,4H1C0.4,4,0,4.4,0,5v17c0,0.6,0.4,1,1,1h22
	c0.6,0,1-0.4,1-1V5C24,4.4,23.6,4,23,4z M12,18c-2.8,0-5-2.2-5-5s2.2-5,5-5s5,2.2,5,5S14.8,18,12,18z"/>
</svg>
