<?xml version="1.0" encoding="utf-8"?>
<!-- Generator: Adobe Illustrator 19.1.0, SVG Export Plug-In . SVG Version: 6.00 Build 0)  -->
<!DOCTYPE svg PUBLIC "-//W3C//DTD SVG 1.1//EN" "http://www.w3.org/Graphics/SVG/1.1/DTD/svg11.dtd">
<svg version="1.1" id="Layer_1" xmlns="http://www.w3.org/2000/svg" xmlns:xlink="http://www.w3.org/1999/xlink" x="0px" y="0px"
	 width="24px" height="24px" viewBox="0 0 24 24" enable-background="new 0 0 24 24" xml:space="preserve">
<path d="M22,8H11.9l9.6-2c0.5-0.1,0.9-0.6,0.8-1.2L21.5,1c-0.1-0.3-0.2-0.5-0.4-0.6c-0.2-0.1-0.5-0.2-0.8-0.1L1,4.1
	C0.5,4.2,0.1,4.7,0.2,5.3L1,9.1V23c0,0.6,0.4,1,1,1h20c0.6,0,1-0.4,1-1V9C23,8.4,22.6,8,22,8z M11.2,4.1l-1.1,2.3L7.7,6.8l1.1-2.3
	L11.2,4.1z M16.1,3.1L15,5.3l-2.4,0.5l1.1-2.3L16.1,3.1z M20.1,4.3l-2.6,0.5l1.1-2.3l1.2-0.2L20.1,4.3z M6.3,5.1L5.2,7.3L2.8,7.8
	l-0.4-2L6.3,5.1z M17,18h-4v2h-2v-2H7v-2h10V18z M17,14H7v-2h10V14z"/>
</svg>
