<?xml version="1.0" encoding="utf-8"?>
<!-- Generator: Adobe Illustrator 19.1.0, SVG Export Plug-In . SVG Version: 6.00 Build 0)  -->
<!DOCTYPE svg PUBLIC "-//W3C//DTD SVG 1.1//EN" "http://www.w3.org/Graphics/SVG/1.1/DTD/svg11.dtd">
<svg version="1.1" id="Layer_1" xmlns="http://www.w3.org/2000/svg" xmlns:xlink="http://www.w3.org/1999/xlink" x="0px" y="0px"
	 width="24px" height="24px" viewBox="0 0 24 24" enable-background="new 0 0 24 24" xml:space="preserve">
<path d="M23,14.1V9c0-5-4-9-9-9h-4C5,0,1,4,1,9v5.1c-0.6,1-1,2.2-1,3.4C0,21.1,2.9,24,6.5,24c0.6,0,1.2-0.1,1.8-0.3
	c0.4-0.1,0.7-0.5,0.7-1V12.2c0-0.4-0.3-0.8-0.7-1C7.7,11.1,7.1,11,6.5,11C5.2,11,4,11.4,3,12V9c0-3.9,3.1-7,7-7h4c3.9,0,7,3.1,7,7v3
	c-1-0.6-2.2-1-3.5-1c-0.6,0-1.2,0.1-1.8,0.3c-0.4,0.1-0.7,0.5-0.7,1v10.6c0,0.4,0.3,0.8,0.7,1c0.6,0.2,1.2,0.3,1.8,0.3
	c3.6,0,6.5-2.9,6.5-6.5C24,16.2,23.6,15.1,23,14.1z"/>
</svg>
