<?xml version="1.0" encoding="utf-8"?>
<!-- Generator: Adobe Illustrator 19.1.0, SVG Export Plug-In . SVG Version: 6.00 Build 0)  -->
<!DOCTYPE svg PUBLIC "-//W3C//DTD SVG 1.1//EN" "http://www.w3.org/Graphics/SVG/1.1/DTD/svg11.dtd">
<svg version="1.1" id="Layer_1" xmlns="http://www.w3.org/2000/svg" xmlns:xlink="http://www.w3.org/1999/xlink" x="0px" y="0px"
	 width="24px" height="24px" viewBox="0 0 24 24" enable-background="new 0 0 24 24" xml:space="preserve">
<path d="M12,0C5.4,0,0,5.4,0,12s5.4,12,12,12s12-5.4,12-12S18.6,0,12,0z M15.6,12.8l-6,4C9.4,16.9,9.2,17,9,17c-0.2,0-0.3,0-0.5-0.1
	C8.2,16.7,8,16.4,8,16V8c0-0.4,0.2-0.7,0.5-0.9c0.3-0.2,0.7-0.2,1,0l6,4c0.3,0.2,0.4,0.5,0.4,0.8S15.8,12.6,15.6,12.8z"/>
</svg>
