<?xml version="1.0" encoding="utf-8"?>
<!-- Generator: Adobe Illustrator 19.1.0, SVG Export Plug-In . SVG Version: 6.00 Build 0)  -->
<!DOCTYPE svg PUBLIC "-//W3C//DTD SVG 1.1//EN" "http://www.w3.org/Graphics/SVG/1.1/DTD/svg11.dtd">
<svg version="1.1" id="Layer_1" xmlns="http://www.w3.org/2000/svg" xmlns:xlink="http://www.w3.org/1999/xlink" x="0px" y="0px"
	 width="24px" height="24px" viewBox="0 0 24 24" enable-background="new 0 0 24 24" xml:space="preserve">
<path d="M23,4h-3.5l-1.7-2.6C17.6,1.2,17.3,1,17,1h-6c-0.3,0-0.6,0.2-0.8,0.4L8.5,4H1C0.4,4,0,4.4,0,5v17c0,0.6,0.4,1,1,1h22
	c0.6,0,1-0.4,1-1V5C24,4.4,23.6,4,23,4z M7,10H4V8h3V10z M14,18c-2.8,0-5-2.2-5-5s2.2-5,5-5s5,2.2,5,5S16.8,18,14,18z"/>
</svg>
