<?xml version="1.0" encoding="utf-8"?>
<!-- Generator: Adobe Illustrator 19.1.0, SVG Export Plug-In . SVG Version: 6.00 Build 0)  -->
<!DOCTYPE svg PUBLIC "-//W3C//DTD SVG 1.1//EN" "http://www.w3.org/Graphics/SVG/1.1/DTD/svg11.dtd">
<svg version="1.1" id="Layer_1" xmlns="http://www.w3.org/2000/svg" xmlns:xlink="http://www.w3.org/1999/xlink" x="0px" y="0px"
	 width="24px" height="24px" viewBox="0 0 24 24" enable-background="new 0 0 24 24" xml:space="preserve">
<path d="M17.5,3.5c-0.5-0.3-1.1-0.1-1.4,0.4c-0.3,0.5-0.1,1.1,0.4,1.4C19.3,6.8,21,9.8,21,13c0,5-4,9-9,9s-9-4-9-9
	c0-3.2,1.7-6.2,4.5-7.8C8,4.9,8.1,4.3,7.9,3.8C7.6,3.4,7,3.2,6.5,3.5C3.1,5.4,1,9.1,1,13c0,6.1,4.9,11,11,11s11-4.9,11-11
	C23,9.1,20.9,5.4,17.5,3.5z"/>
<path id="color_22_" d="M12,9c0.6,0,1-0.4,1-1V1c0-0.6-0.4-1-1-1s-1,0.4-1,1v7C11,8.6,11.4,9,12,9z"/>
</svg>
