<?xml version="1.0" encoding="utf-8"?>
<!-- Generator: Adobe Illustrator 19.1.0, SVG Export Plug-In . SVG Version: 6.00 Build 0)  -->
<!DOCTYPE svg PUBLIC "-//W3C//DTD SVG 1.1//EN" "http://www.w3.org/Graphics/SVG/1.1/DTD/svg11.dtd">
<svg version="1.1" id="Layer_1" xmlns="http://www.w3.org/2000/svg" xmlns:xlink="http://www.w3.org/1999/xlink" x="0px" y="0px"
	 width="24px" height="24px" viewBox="0 0 24 24" enable-background="new 0 0 24 24" xml:space="preserve">
<rect x="9" y="16" width="5" height="7"/>
<rect y="9" width="7" height="5"/>
<rect x="16" y="9" width="7" height="5"/>
<rect x="9" y="9" width="5" height="5"/>
<path d="M7,0H1C0.4,0,0,0.4,0,1v6h7V0z"/>
<path d="M16,16v7h6c0.6,0,1-0.4,1-1v-6H16z"/>
<path d="M23,7V1c0-0.6-0.4-1-1-1h-6v7H23z"/>
<path d="M7,16H0v6c0,0.6,0.4,1,1,1h6V16z"/>
<rect x="9" width="5" height="7"/>
</svg>
