<?xml version="1.0" encoding="utf-8"?>
<!-- Generator: Adobe Illustrator 19.1.0, SVG Export Plug-In . SVG Version: 6.00 Build 0)  -->
<!DOCTYPE svg PUBLIC "-//W3C//DTD SVG 1.1//EN" "http://www.w3.org/Graphics/SVG/1.1/DTD/svg11.dtd">
<svg version="1.1" id="Layer_1" xmlns="http://www.w3.org/2000/svg" xmlns:xlink="http://www.w3.org/1999/xlink" x="0px" y="0px"
	 width="24px" height="24px" viewBox="0 0 24 24" enable-background="new 0 0 24 24" xml:space="preserve">
<path d="M20,0H4C3.4,0,3,0.4,3,1v22c0,0.6,0.4,1,1,1h16c0.6,0,1-0.4,1-1V1C21,0.4,20.6,0,20,0z M12,4c1.1,0,2,0.9,2,2
	c0,1.1-0.9,2-2,2s-2-0.9-2-2C10,4.9,10.9,4,12,4z M12,19c-2.2,0-4-1.8-4-4c0-2.2,1.8-4,4-4s4,1.8,4,4C16,17.2,14.2,19,12,19z"/>
</svg>
