<?xml version="1.0" encoding="utf-8"?>
<!-- Generator: Adobe Illustrator 19.1.0, SVG Export Plug-In . SVG Version: 6.00 Build 0)  -->
<!DOCTYPE svg PUBLIC "-//W3C//DTD SVG 1.1//EN" "http://www.w3.org/Graphics/SVG/1.1/DTD/svg11.dtd">
<svg version="1.1" id="Layer_1" xmlns="http://www.w3.org/2000/svg" xmlns:xlink="http://www.w3.org/1999/xlink" x="0px" y="0px"
	 width="24px" height="24px" viewBox="0 0 24 24" enable-background="new 0 0 24 24" xml:space="preserve">
<path id="color_74_" d="M1,9c0.6,0,1-0.4,1-1V3h5c0.6,0,1-0.4,1-1S7.6,1,7,1H1C0.4,1,0,1.4,0,2v6C0,8.6,0.4,9,1,9z"/>
<path id="color_73_" d="M23,1h-6c-0.6,0-1,0.4-1,1s0.4,1,1,1h5v5c0,0.6,0.4,1,1,1s1-0.4,1-1V2C24,1.4,23.6,1,23,1z"/>
<path id="color_72_" d="M23,15c-0.6,0-1,0.4-1,1v5h-5c-0.6,0-1,0.4-1,1s0.4,1,1,1h6c0.6,0,1-0.4,1-1v-6C24,15.4,23.6,15,23,15z"/>
<path id="color_71_" d="M7,21H2v-5c0-0.6-0.4-1-1-1s-1,0.4-1,1v6c0,0.6,0.4,1,1,1h6c0.6,0,1-0.4,1-1S7.6,21,7,21z"/>
<path d="M12,8c-2.2,0-4,1.8-4,4s1.8,4,4,4s4-1.8,4-4S14.2,8,12,8z"/>
</svg>
