<?xml version="1.0" encoding="utf-8"?>
<!-- Generator: Adobe Illustrator 19.1.0, SVG Export Plug-In . SVG Version: 6.00 Build 0)  -->
<!DOCTYPE svg PUBLIC "-//W3C//DTD SVG 1.1//EN" "http://www.w3.org/Graphics/SVG/1.1/DTD/svg11.dtd">
<svg version="1.1" id="Layer_1" xmlns="http://www.w3.org/2000/svg" xmlns:xlink="http://www.w3.org/1999/xlink" x="0px" y="0px"
	 width="24px" height="24px" viewBox="0 0 24 24" enable-background="new 0 0 24 24" xml:space="preserve">
<path d="M21.4,2.6c-1.3-1.3-3.1-2.1-4.9-2.1c-1.9,0-3.6,0.7-5,2.1c-2.7,2.7-2.7,7.2,0,9.9c1.3,1.3,3.1,2.1,5,2.1s3.6-0.7,4.9-2.1
	c1.3-1.3,2.1-3.1,2.1-4.9C23.4,5.7,22.7,3.9,21.4,2.6z"/>
<path d="M3,23.4c-0.3,0-0.5-0.1-0.7-0.3l-1.4-1.4c-0.4-0.4-0.4-1,0-1.4c0.4-0.4,1-0.4,1.4,0l1.4,1.4c0.4,0.4,0.4,1,0,1.4
	C3.5,23.3,3.2,23.4,3,23.4z"/>
<path id="color" d="M10.1,13.9c-1.1-1.1-1.8-2.3-2.2-3.7l-5.6,7.4c-0.3,0.4-0.3,1,0.1,1.3l2.8,2.8C5.3,21.9,5.6,22,5.8,22
	c0.2,0,0.4-0.1,0.6-0.2l7.4-5.6C12.4,15.8,11.1,15,10.1,13.9z"/>
</svg>
