<?xml version="1.0" encoding="utf-8"?>
<!-- Generator: Adobe Illustrator 19.1.0, SVG Export Plug-In . SVG Version: 6.00 Build 0)  -->
<!DOCTYPE svg PUBLIC "-//W3C//DTD SVG 1.1//EN" "http://www.w3.org/Graphics/SVG/1.1/DTD/svg11.dtd">
<svg version="1.1" id="Layer_1" xmlns="http://www.w3.org/2000/svg" xmlns:xlink="http://www.w3.org/1999/xlink" x="0px" y="0px"
	 width="24px" height="24px" viewBox="0 0 24 24" enable-background="new 0 0 24 24" xml:space="preserve">
<path d="M23.6,8.2c-0.3-0.2-0.6-0.2-0.9-0.1L17,10.5V7c0-0.6-0.4-1-1-1h-2V3c0-0.6-0.4-1-1-1H5C4.4,2,4,2.4,4,3s0.4,1,1,1h7v2H1
	C0.4,6,0,6.4,0,7v14c0,0.6,0.4,1,1,1h15c0.6,0,1-0.4,1-1v-3.5l5.6,2.4C22.7,20,22.9,20,23,20c0.2,0,0.4-0.1,0.6-0.2
	c0.3-0.2,0.4-0.5,0.4-0.8V9C24,8.7,23.8,8.4,23.6,8.2z M5,13c-1.1,0-2-0.9-2-2s0.9-2,2-2s2,0.9,2,2S6.1,13,5,13z M14,12h-4v-2h4V12z
	"/>
</svg>
