<?xml version="1.0" encoding="utf-8"?>
<!-- Generator: Adobe Illustrator 19.1.0, SVG Export Plug-In . SVG Version: 6.00 Build 0)  -->
<!DOCTYPE svg PUBLIC "-//W3C//DTD SVG 1.1//EN" "http://www.w3.org/Graphics/SVG/1.1/DTD/svg11.dtd">
<svg version="1.1" id="Layer_1" xmlns="http://www.w3.org/2000/svg" xmlns:xlink="http://www.w3.org/1999/xlink" x="0px" y="0px"
	 width="24px" height="24px" viewBox="0 0 24 24" enable-background="new 0 0 24 24" xml:space="preserve">
<path id="color_71_" d="M15.9,1c-1.8-0.7-3.9-0.3-5.4,1.1l-8.5,8.5C0.7,12,0.3,14.1,1,15.9L15.9,1z"/>
<path id="color_70_" d="M8.1,23c0.6,0.2,1.2,0.3,1.8,0.3c1.3,0,2.6-0.5,3.5-1.5l8.5-8.5c1.4-1.4,1.8-3.6,1.1-5.4L8.1,23z"/>
<path d="M22.5,5.7L5.7,22.5c-1.2,1.2-3.1,1.2-4.2,0l0,0c-1.2-1.2-1.2-3.1,0-4.2L18.3,1.5c1.2-1.2,3.1-1.2,4.2,0l0,0
	C23.7,2.7,23.7,4.6,22.5,5.7z"/>
</svg>
