<?xml version="1.0" encoding="utf-8"?>
<!-- Generator: Adobe Illustrator 19.1.0, SVG Export Plug-In . SVG Version: 6.00 Build 0)  -->
<!DOCTYPE svg PUBLIC "-//W3C//DTD SVG 1.1//EN" "http://www.w3.org/Graphics/SVG/1.1/DTD/svg11.dtd">
<svg version="1.1" id="Layer_1" xmlns="http://www.w3.org/2000/svg" xmlns:xlink="http://www.w3.org/1999/xlink" x="0px" y="0px"
	 width="24px" height="24px" viewBox="0 0 24 24" enable-background="new 0 0 24 24" xml:space="preserve">
<path id="color_51_" d="M21.9,4.9L21.9,4.9c0.8-0.8,0.8-2,0-2.8c-0.8-0.8-2-0.8-2.8,0l0,0L21.9,4.9z"/>
<path id="color_50_" d="M2.1,19.1L2.1,19.1c-0.8,0.8-0.8,2,0,2.8c0.8,0.8,2,0.8,2.8,0l0,0L2.1,19.1z"/>
<path d="M20.5,6.3l-2.8-2.8c-0.8-0.8-2-0.8-2.8,0L3.5,14.8c-0.8,0.8-0.8,2,0,2.8l2.8,2.8c0,0,0,0,0,0c0.4,0.4,0.9,0.6,1.4,0.6
	c0.5,0,1-0.2,1.4-0.6L20.5,9.2C21.3,8.4,21.3,7.1,20.5,6.3z"/>
</svg>
