<?xml version="1.0" encoding="utf-8"?>
<!-- Generator: Adobe Illustrator 19.1.0, SVG Export Plug-In . SVG Version: 6.00 Build 0)  -->
<!DOCTYPE svg PUBLIC "-//W3C//DTD SVG 1.1//EN" "http://www.w3.org/Graphics/SVG/1.1/DTD/svg11.dtd">
<svg version="1.1" id="Layer_1" xmlns="http://www.w3.org/2000/svg" xmlns:xlink="http://www.w3.org/1999/xlink" x="0px" y="0px"
	 width="24px" height="24px" viewBox="0 0 24 24" enable-background="new 0 0 24 24" xml:space="preserve">
<path id="color_58_" d="M9,9c0.6,0,1-0.4,1-1V4c0-0.6-0.4-1-1-1S8,3.4,8,4v4C8,8.6,8.4,9,9,9z"/>
<path id="color_57_" d="M4,12c0.6,0,1-0.4,1-1V7c0-0.6-0.4-1-1-1S3,6.4,3,7v4C3,11.6,3.4,12,4,12z"/>
<path id="color_56_" d="M14,12c0.6,0,1-0.4,1-1V7c0-0.6-0.4-1-1-1s-1,0.4-1,1v4C13,11.6,13.4,12,14,12z"/>
<path d="M23,14h-5H1c-0.6,0-1,0.4-1,1v3c0,1.7,1.3,3,3,3h13c1.7,0,3-1.3,3-3v-1h4c0.6,0,1-0.4,1-1v-1C24,14.4,23.6,14,23,14z"/>
</svg>
