<?xml version="1.0" encoding="utf-8"?>
<!-- Generator: Adobe Illustrator 19.1.0, SVG Export Plug-In . SVG Version: 6.00 Build 0)  -->
<!DOCTYPE svg PUBLIC "-//W3C//DTD SVG 1.1//EN" "http://www.w3.org/Graphics/SVG/1.1/DTD/svg11.dtd">
<svg version="1.1" id="Layer_1" xmlns="http://www.w3.org/2000/svg" xmlns:xlink="http://www.w3.org/1999/xlink" x="0px" y="0px"
	 width="24px" height="24px" viewBox="0 0 24 24" enable-background="new 0 0 24 24" xml:space="preserve">
<path d="M2,18c0,3.3,2.7,6,6,6H16c3.3,0,6-2.7,6-6H2z"/>
<path d="M14,1h-4C5.6,1,2,4.6,2,9h20C22,4.6,18.4,1,14,1z"/>
<path id="color_8_" d="M21.3,11H19l-3,3l-3-3H2.7C1.2,11,0,12.1,0,13.5C0,14.9,1.2,16,2.7,16h18.5c1.5,0,2.7-1.1,2.7-2.5
	C24,12.1,22.8,11,21.3,11z"/>
</svg>
