<?xml version="1.0" encoding="utf-8"?>
<!-- Generator: Adobe Illustrator 19.1.0, SVG Export Plug-In . SVG Version: 6.00 Build 0)  -->
<!DOCTYPE svg PUBLIC "-//W3C//DTD SVG 1.1//EN" "http://www.w3.org/Graphics/SVG/1.1/DTD/svg11.dtd">
<svg version="1.1" id="Layer_1" xmlns="http://www.w3.org/2000/svg" xmlns:xlink="http://www.w3.org/1999/xlink" x="0px" y="0px"
	 width="24px" height="24px" viewBox="0 0 24 24" enable-background="new 0 0 24 24" xml:space="preserve">
<path d="M23,7h-4H1C0.4,7,0,7.4,0,8v3c0,5.5,4.5,10,10,10c4.1,0,7.6-2.5,9.2-6H21c1.7,0,3-1.3,3-3V8C24,7.4,23.6,7,23,7z M22,12
	c0,0.6-0.4,1-1,1h-1.2c0.1-0.6,0.2-1.3,0.2-2V9h2V12z"/>
<path id="color_47_" d="M19,22H1c-0.6,0-1,0.4-1,1s0.4,1,1,1h18c0.6,0,1-0.4,1-1S19.6,22,19,22z"/>
<path id="color_46_" d="M10,4c0.6,0,1-0.4,1-1V1c0-0.6-0.4-1-1-1S9,0.4,9,1v2C9,3.6,9.4,4,10,4z"/>
<path id="color_45_" d="M5,5c0.6,0,1-0.4,1-1V2c0-0.6-0.4-1-1-1S4,1.4,4,2v2C4,4.6,4.4,5,5,5z"/>
<path id="color_44_" d="M15,5c0.6,0,1-0.4,1-1V2c0-0.6-0.4-1-1-1s-1,0.4-1,1v2C14,4.6,14.4,5,15,5z"/>
</svg>
