<?xml version="1.0" encoding="utf-8"?>
<!-- Generator: Adobe Illustrator 19.1.0, SVG Export Plug-In . SVG Version: 6.00 Build 0)  -->
<!DOCTYPE svg PUBLIC "-//W3C//DTD SVG 1.1//EN" "http://www.w3.org/Graphics/SVG/1.1/DTD/svg11.dtd">
<svg version="1.1" id="Layer_1" xmlns="http://www.w3.org/2000/svg" xmlns:xlink="http://www.w3.org/1999/xlink" x="0px" y="0px"
	 width="24px" height="24px" viewBox="0 0 24 24" enable-background="new 0 0 24 24" xml:space="preserve">
<path id="color_30_" d="M16,0H8C7.4,0,7,0.4,7,1v2c0,0.6,0.4,1,1,1h8c0.6,0,1-0.4,1-1V1C17,0.4,16.6,0,16,0z"/>
<path d="M15,10.1V6H9v4.1c-2.3,0.5-4,2.5-4,4.9v8c0,0.6,0.4,1,1,1h12c0.6,0,1-0.4,1-1v-8C19,12.6,17.3,10.6,15,10.1z"/>
</svg>
