<?xml version="1.0" encoding="utf-8"?>
<!-- Generator: Adobe Illustrator 19.1.0, SVG Export Plug-In . SVG Version: 6.00 Build 0)  -->
<!DOCTYPE svg PUBLIC "-//W3C//DTD SVG 1.1//EN" "http://www.w3.org/Graphics/SVG/1.1/DTD/svg11.dtd">
<svg version="1.1" id="Layer_1" xmlns="http://www.w3.org/2000/svg" xmlns:xlink="http://www.w3.org/1999/xlink" x="0px" y="0px"
	 width="24px" height="24px" viewBox="0 0 24 24" enable-background="new 0 0 24 24" xml:space="preserve">
<path d="M23,10H9c-0.6,0-1,0.4-1,1v12c0,0.6,0.4,1,1,1h14c0.6,0,1-0.4,1-1V11C24,10.4,23.6,10,23,10z"/>
<path id="color_66_" d="M7,3.5C7,1.6,5.4,0,3.5,0S0,1.6,0,3.5C0,4.3,0.3,5.8,1,7v16c0,0.6,0.4,1,1,1h3c0.6,0,1-0.4,1-1V7
	C6.7,5.8,7,4.3,7,3.5z M3,22V8.9C3.2,9,3.3,9,3.5,9S3.8,9,4,8.9V22H3z"/>
<path d="M23,7c0-0.6-0.4-1-1-1H10C9.4,6,9,6.4,9,7v1h14V7z"/>
</svg>
