<?xml version="1.0" encoding="utf-8"?>
<!-- Generator: Adobe Illustrator 19.1.0, SVG Export Plug-In . SVG Version: 6.00 Build 0)  -->
<!DOCTYPE svg PUBLIC "-//W3C//DTD SVG 1.1//EN" "http://www.w3.org/Graphics/SVG/1.1/DTD/svg11.dtd">
<svg version="1.1" id="Layer_1" xmlns="http://www.w3.org/2000/svg" xmlns:xlink="http://www.w3.org/1999/xlink" x="0px" y="0px"
	 width="24px" height="24px" viewBox="0 0 24 24" enable-background="new 0 0 24 24" xml:space="preserve">
<path d="M12,0C5.4,0,0,5.4,0,12s5.4,12,12,12c0.6,0,1-0.4,1-1V13h10c0.6,0,1-0.4,1-1C24,5.4,18.6,0,12,0z M11,22
	c-4.7-0.5-8.5-4.2-8.9-9h2c0.5,3.6,3.3,6.5,6.9,6.9V22z M8,9c0-0.6,0.4-1,1-1s1,0.4,1,1c0,0.6-0.4,1-1,1S8,9.6,8,9z M10,15
	c-0.6,0-1-0.4-1-1c0-0.6,0.4-1,1-1s1,0.4,1,1C11,14.6,10.6,15,10,15z M11,4.1C7.4,4.5,4.5,7.4,4.1,11h-2C2.5,6.3,6.3,2.5,11,2.1V4.1
	z M15,9c-0.6,0-1-0.4-1-1c0-0.6,0.4-1,1-1s1,0.4,1,1C16,8.6,15.6,9,15,9z M19.9,11c-0.5-3.6-3.3-6.5-6.9-6.9v-2
	c4.7,0.5,8.5,4.2,9,8.9H19.9z"/>
</svg>
