<?xml version="1.0" encoding="utf-8"?>
<!-- Generator: Adobe Illustrator 19.1.0, SVG Export Plug-In . SVG Version: 6.00 Build 0)  -->
<!DOCTYPE svg PUBLIC "-//W3C//DTD SVG 1.1//EN" "http://www.w3.org/Graphics/SVG/1.1/DTD/svg11.dtd">
<svg version="1.1" id="Layer_1" xmlns="http://www.w3.org/2000/svg" xmlns:xlink="http://www.w3.org/1999/xlink" x="0px" y="0px"
	 width="24px" height="24px" viewBox="0 0 24 24" enable-background="new 0 0 24 24" xml:space="preserve">
<path d="M23,1H1C0.4,1,0,1.4,0,2v17c0,2.2,1.8,4,4,4h16c2.2,0,4-1.8,4-4V2C24,1.4,23.6,1,23,1z M22,3v10h-7.4l-1.4-3.7
	c-0.1-0.2-0.3-0.4-0.5-0.6c-0.2-0.1-0.5-0.1-0.8,0L5.8,11c-0.5,0.2-0.8,0.8-0.6,1.3L5.5,13H2V3H22z M7.5,12.5l4.2-1.6l1.3,3.4
	c0,0,0,0.1,0,0.1l0.3,0.7L9,16.7L7.5,12.5z"/>
</svg>
