<?xml version="1.0" encoding="utf-8"?>
<!-- Generator: Adobe Illustrator 19.1.0, SVG Export Plug-In . SVG Version: 6.00 Build 0)  -->
<!DOCTYPE svg PUBLIC "-//W3C//DTD SVG 1.1//EN" "http://www.w3.org/Graphics/SVG/1.1/DTD/svg11.dtd">
<svg version="1.1" id="Layer_1" xmlns="http://www.w3.org/2000/svg" xmlns:xlink="http://www.w3.org/1999/xlink" x="0px" y="0px"
	 width="24px" height="24px" viewBox="0 0 24 24" enable-background="new 0 0 24 24" xml:space="preserve">
<path id="color_22_" d="M23.2,8L9.4,2.1C9.3,2,9.1,2,9,2C3.4,2,0.6,4.9,0.1,8H23.2z"/>
<path d="M23,13c0.6,0,1-0.4,1-1v-2H0v11c0,0.6,0.4,1,1,1h22c0.6,0,1-0.4,1-1v-3c0-0.6-0.4-1-1-1c-1.1,0-2-0.9-2-2S21.9,13,23,13z
	 M7,19c-1.7,0-3-1.3-3-3s1.3-3,3-3s3,1.3,3,3S8.7,19,7,19z M15,18c-1.1,0-2-0.9-2-2s0.9-2,2-2s2,0.9,2,2S16.1,18,15,18z"/>
</svg>
