<?xml version="1.0" encoding="utf-8"?>
<!-- Generator: Adobe Illustrator 19.1.0, SVG Export Plug-In . SVG Version: 6.00 Build 0)  -->
<!DOCTYPE svg PUBLIC "-//W3C//DTD SVG 1.1//EN" "http://www.w3.org/Graphics/SVG/1.1/DTD/svg11.dtd">
<svg version="1.1" id="Layer_1" xmlns="http://www.w3.org/2000/svg" xmlns:xlink="http://www.w3.org/1999/xlink" x="0px" y="0px"
	 width="24px" height="24px" viewBox="0 0 24 24" enable-background="new 0 0 24 24" xml:space="preserve">
<path d="M23,2H1C0.4,2,0,2.4,0,3v18c0,0.6,0.4,1,1,1h22c0.6,0,1-0.4,1-1V3C24,2.4,23.6,2,23,2z M15,16c0,0.6-0.4,1-1,1H4
	c-0.6,0-1-0.4-1-1V8c0-0.6,0.4-1,1-1h10c0.6,0,1,0.4,1,1V16z M20,17h-2c-0.6,0-1-0.4-1-1s0.4-1,1-1h2c0.6,0,1,0.4,1,1S20.6,17,20,17
	z M19,11c-1.1,0-2-0.9-2-2s0.9-2,2-2s2,0.9,2,2S20.1,11,19,11z"/>
</svg>
