<?xml version="1.0" encoding="utf-8"?>
<!-- Generator: Adobe Illustrator 19.1.0, SVG Export Plug-In . SVG Version: 6.00 Build 0)  -->
<!DOCTYPE svg PUBLIC "-//W3C//DTD SVG 1.1//EN" "http://www.w3.org/Graphics/SVG/1.1/DTD/svg11.dtd">
<svg version="1.1" id="Layer_1" xmlns="http://www.w3.org/2000/svg" xmlns:xlink="http://www.w3.org/1999/xlink" x="0px" y="0px"
	 width="24px" height="24px" viewBox="0 0 24 24" enable-background="new 0 0 24 24" xml:space="preserve">
<path d="M10,0C9.4,0,9,0.4,9,1v4H7V1c0-0.6-0.4-1-1-1S5,0.4,5,1v4H3V1c0-0.6-0.4-1-1-1S1,0.4,1,1v8c0,1.7,1.3,3,3,3v10
	c0,1.1,0.9,2,2,2s2-0.9,2-2V12c1.7,0,3-1.3,3-3V1C11,0.4,10.6,0,10,0z"/>
<path id="color_34_" d="M19,0c-3.3,0-6,2.7-6,6v9c0,0.6,0.4,1,1,1h2v6c0,1.1,0.9,2,2,2s2-0.9,2-2V1C20,0.4,19.6,0,19,0z"/>
</svg>
