<?xml version="1.0" encoding="utf-8"?>
<!-- Generator: Adobe Illustrator 19.1.0, SVG Export Plug-In . SVG Version: 6.00 Build 0)  -->
<!DOCTYPE svg PUBLIC "-//W3C//DTD SVG 1.1//EN" "http://www.w3.org/Graphics/SVG/1.1/DTD/svg11.dtd">
<svg version="1.1" id="Layer_1" xmlns="http://www.w3.org/2000/svg" xmlns:xlink="http://www.w3.org/1999/xlink" x="0px" y="0px"
	 width="24px" height="24px" viewBox="0 0 24 24" enable-background="new 0 0 24 24" xml:space="preserve">
<path id="color_37_" d="M20.8,8.4c-0.4-0.5-1.3-0.5-1.6,0C18.5,9.4,17,11.7,17,13c0,1.7,1.3,3,3,3s3-1.3,3-3
	C23,11.7,21.5,9.4,20.8,8.4z"/>
<path d="M8,0C4.1,0,1,3.1,1,7v10c0,0.6,0.4,1,1,1h4v4c0,1.1,0.9,2,2,2s2-0.9,2-2v-4h4c0.6,0,1-0.4,1-1V7C15,3.1,11.9,0,8,0z M7,13H5
	V6h2V13z M11,13H9V6h2V13z"/>
</svg>
