<?xml version="1.0" encoding="utf-8"?>
<!-- Generator: Adobe Illustrator 19.1.0, SVG Export Plug-In . SVG Version: 6.00 Build 0)  -->
<!DOCTYPE svg PUBLIC "-//W3C//DTD SVG 1.1//EN" "http://www.w3.org/Graphics/SVG/1.1/DTD/svg11.dtd">
<svg version="1.1" id="Layer_1" xmlns="http://www.w3.org/2000/svg" xmlns:xlink="http://www.w3.org/1999/xlink" x="0px" y="0px"
	 width="24px" height="24px" viewBox="0 0 24 24" enable-background="new 0 0 24 24" xml:space="preserve">
<path id="color_69_" d="M10,4c0.6,0,1-0.4,1-1V1c0-0.6-0.4-1-1-1S9,0.4,9,1v2C9,3.6,9.4,4,10,4z"/>
<path id="color_68_" d="M5,4c0.6,0,1-0.4,1-1V1c0-0.6-0.4-1-1-1S4,0.4,4,1v2C4,3.6,4.4,4,5,4z"/>
<path id="color_67_" d="M15,4c0.6,0,1-0.4,1-1V1c0-0.6-0.4-1-1-1s-1,0.4-1,1v2C14,3.6,14.4,4,15,4z"/>
<path d="M22,6h-4H2C1.4,6,1,6.4,1,7v12c0,2.8,2.2,5,5,5h8c2.8,0,5-2.2,5-5v-5h1c1.7,0,3-1.3,3-3V7C23,6.4,22.6,6,22,6z M21,11
	c0,0.6-0.4,1-1,1h-1V8h2V11z"/>
</svg>
