<?xml version="1.0" encoding="utf-8"?>
<!-- Generator: Adobe Illustrator 19.1.0, SVG Export Plug-In . SVG Version: 6.00 Build 0)  -->
<!DOCTYPE svg PUBLIC "-//W3C//DTD SVG 1.1//EN" "http://www.w3.org/Graphics/SVG/1.1/DTD/svg11.dtd">
<svg version="1.1" id="Layer_1" xmlns="http://www.w3.org/2000/svg" xmlns:xlink="http://www.w3.org/1999/xlink" x="0px" y="0px"
	 width="24px" height="24px" viewBox="0 0 24 24" enable-background="new 0 0 24 24" xml:space="preserve">
<path d="M17.4,11.4L15,9.5V4H9v5.5l-2.4,1.9C5,12.8,4,14.7,4,16.9V23c0,0.6,0.4,1,1,1h14c0.6,0,1-0.4,1-1v-6.1
	C20,14.7,19,12.8,17.4,11.4z M14.7,18.3c0.4,0.4,0.4,1,0,1.4C14.5,19.9,14.3,20,14,20s-0.5-0.1-0.7-0.3L12,18.4l-1.3,1.3
	C10.5,19.9,10.3,20,10,20s-0.5-0.1-0.7-0.3c-0.4-0.4-0.4-1,0-1.4l1.3-1.3l-1.3-1.3c-0.4-0.4-0.4-1,0-1.4s1-0.4,1.4,0l1.3,1.3
	l1.3-1.3c0.4-0.4,1-0.4,1.4,0s0.4,1,0,1.4L13.4,17L14.7,18.3z"/>
<path id="color_11_" d="M15,2V1c0-0.6-0.4-1-1-1h-4C9.4,0,9,0.4,9,1v1H15z"/>
</svg>
