<?xml version="1.0" encoding="utf-8"?>
<!-- Generator: Adobe Illustrator 19.1.0, SVG Export Plug-In . SVG Version: 6.00 Build 0)  -->
<!DOCTYPE svg PUBLIC "-//W3C//DTD SVG 1.1//EN" "http://www.w3.org/Graphics/SVG/1.1/DTD/svg11.dtd">
<svg version="1.1" id="Layer_1" xmlns="http://www.w3.org/2000/svg" xmlns:xlink="http://www.w3.org/1999/xlink" x="0px" y="0px"
	 width="24px" height="24px" viewBox="0 0 24 24" enable-background="new 0 0 24 24" xml:space="preserve">
<path id="color_38_" d="M12,9c1.7,0,3-1.3,3-3c0-1.3-1.5-3.6-2.2-4.6L12,0.2l-0.8,1.2C10.5,2.4,9,4.7,9,6C9,7.7,10.3,9,12,9z"/>
<path d="M19,22h-3V11c0-0.6-0.4-1-1-1H9c-0.6,0-1,0.4-1,1v11H5c-0.6,0-1,0.4-1,1s0.4,1,1,1h14c0.6,0,1-0.4,1-1S19.6,22,19,22z"/>
</svg>
