<?xml version="1.0" encoding="utf-8"?>
<!-- Generator: Adobe Illustrator 19.1.0, SVG Export Plug-In . SVG Version: 6.00 Build 0)  -->
<!DOCTYPE svg PUBLIC "-//W3C//DTD SVG 1.1//EN" "http://www.w3.org/Graphics/SVG/1.1/DTD/svg11.dtd">
<svg version="1.1" id="Layer_1" xmlns="http://www.w3.org/2000/svg" xmlns:xlink="http://www.w3.org/1999/xlink" x="0px" y="0px"
	 width="24px" height="24px" viewBox="0 0 24 24" enable-background="new 0 0 24 24" xml:space="preserve">
<path d="M23,3h-3.5l-1.4-2.1l-3.3,6.5C14.7,7.8,14.4,8,14,8H8v16h15c0.6,0,1-0.4,1-1V4C24,3.4,23.6,3,23,3z M12,20h-1
	c-0.6,0-1-0.4-1-1s0.4-1,1-1h1c0.6,0,1,0.4,1,1S12.6,20,12,20z M12,16h-1c-0.6,0-1-0.4-1-1s0.4-1,1-1h1c0.6,0,1,0.4,1,1
	S12.6,16,12,16z M12,12h-1c-0.6,0-1-0.4-1-1s0.4-1,1-1h1c0.6,0,1,0.4,1,1S12.6,12,12,12z"/>
<polygon id="color_19_" points="16.4,0 7.6,0 10.6,6 13.4,6 "/>
<path d="M6,7c0-0.6,0.4-1,1-1h1.4L5.8,0.9L4.5,3H1C0.4,3,0,3.4,0,4v19c0,0.6,0.4,1,1,1h5V7z"/>
</svg>
