<?xml version="1.0" encoding="utf-8"?>
<!-- Generator: Adobe Illustrator 19.1.0, SVG Export Plug-In . SVG Version: 6.00 Build 0)  -->
<!DOCTYPE svg PUBLIC "-//W3C//DTD SVG 1.1//EN" "http://www.w3.org/Graphics/SVG/1.1/DTD/svg11.dtd">
<svg version="1.1" id="Layer_1" xmlns="http://www.w3.org/2000/svg" xmlns:xlink="http://www.w3.org/1999/xlink" x="0px" y="0px"
	 width="24px" height="24px" viewBox="0 0 24 24" enable-background="new 0 0 24 24" xml:space="preserve">
<path d="M20.6,7.2C19.1,6,18.3,4.6,18.1,4H19c0.6,0,1-0.4,1-1V1c0-0.6-0.4-1-1-1H5C4.4,0,4,0.4,4,1v2c0,0.6,0.4,1,1,1h0.9
	c-0.3,0.6-1,2-2.5,3.2C3.1,7.4,3,7.7,3,8v12c0,2.2,1.8,4,4,4h10c2.2,0,4-1.8,4-4V8C21,7.7,20.9,7.4,20.6,7.2z M14.7,14.7l-3,3
	C11.5,17.9,11.3,18,11,18s-0.5-0.1-0.7-0.3c-0.4-0.4-0.4-1,0-1.4l1.3-1.3H10c-0.4,0-0.8-0.2-0.9-0.6C8.9,14,9,13.6,9.3,13.3l3-3
	c0.4-0.4,1-0.4,1.4,0s0.4,1,0,1.4L12.4,13H14c0.4,0,0.8,0.2,0.9,0.6C15.1,14,15,14.4,14.7,14.7z"/>
</svg>
