<?xml version="1.0" encoding="utf-8"?>
<!-- Generator: Adobe Illustrator 19.1.0, SVG Export Plug-In . SVG Version: 6.00 Build 0)  -->
<!DOCTYPE svg PUBLIC "-//W3C//DTD SVG 1.1//EN" "http://www.w3.org/Graphics/SVG/1.1/DTD/svg11.dtd">
<svg version="1.1" id="Layer_1" xmlns="http://www.w3.org/2000/svg" xmlns:xlink="http://www.w3.org/1999/xlink" x="0px" y="0px"
	 width="24px" height="24px" viewBox="0 0 24 24" enable-background="new 0 0 24 24" xml:space="preserve">
<path d="M12,5c0.6,0,1-0.4,1-1V1c0-0.6-0.4-1-1-1s-1,0.4-1,1v3C11,4.6,11.4,5,12,5z"/>
<path d="M8,7c0.6,0,1-0.4,1-1V3c0-0.6-0.4-1-1-1S7,2.4,7,3v3C7,6.6,7.4,7,8,7z"/>
<path d="M16,7c0.6,0,1-0.4,1-1V3c0-0.6-0.4-1-1-1s-1,0.4-1,1v3C15,6.6,15.4,7,16,7z"/>
<path d="M22,9H2c-0.6,0-1,0.4-1,1c0,0.3,0,1,0,1h22c0,0,0-0.7,0-1C23,9.4,22.6,9,22,9z"/>
<path d="M6.6,19.6l-1.5,3l1.8,0.9l1.5-3.1C9.5,20.8,10.7,21,12,21s2.5-0.2,3.6-0.6l1.5,3.1l1.8-0.9l-1.5-3c2.5-1.4,4.4-3.8,5.2-6.6
	H1.4C2.2,15.8,4.1,18.2,6.6,19.6z"/>
</svg>
