<svg xmlns="http://www.w3.org/2000/svg" xmlns:xlink="http://www.w3.org/1999/xlink" x="0px" y="0px" width="48px" height="48px" viewBox="0 0 48 48"><g >
<path fill="#E6E6E6" d="M20,22H0V8c0-1.105,0.895-2,2-2h18V22z"/>
<path fill="#0402FB" d="M46,6H20v16H0v18c0,1.105,0.895,2,2,2h44c1.105,0,2-0.895,2-2V24V8C48,6.895,47.105,6,46,6z"/>
<polygon fill="#FF0000" points="20,12 15.377,12 19.068,9.266 17.879,7.66 12.018,12 12,12 12,6 8,6 8,11.365 2.996,7.66 
	1.807,9.266 5.498,12 0,12 0,16 6.617,16 1.807,19.563 2.996,21.17 8,17.465 8,22 12,22 12,16.816 17.879,21.17 19.068,19.563 
	14.258,16 20,16 "/>
<path fill="#FF0000" d="M36.5,16.922h-2.105L33.51,15l-0.887,1.922H30.52l1.537,1.586l-0.568,2.313l2.022-1.147l2.021,1.147
	l-0.57-2.313L36.5,16.922z"/>
<path fill="#FF0000" d="M36.5,33.922h-2.105L33.51,32l-0.887,1.922H30.52l1.537,1.586l-0.568,2.313l2.022-1.147l2.021,1.147
	l-0.57-2.313L36.5,33.922z"/>
<path fill="#FF0000" d="M41.982,24.852h-2.105l-0.885-1.922l-0.887,1.922H36l1.539,1.586l-0.568,2.312l2.021-1.148l2.021,1.148
	l-0.57-2.312L41.982,24.852z"/>
<path fill="#FF0000" d="M31,24.852h-2.105L28.01,22.93l-0.887,1.922h-2.105l1.539,1.586l-0.568,2.312l2.021-1.148l2.021,1.148
	l-0.57-2.312L31,24.852z"/>
</g></svg>