<svg xmlns="http://www.w3.org/2000/svg" xmlns:xlink="http://www.w3.org/1999/xlink" x="0px" y="0px" width="48px" height="48px" viewBox="0 0 48 48"><g >
<path fill="#FD9840" d="M48,18H0V8c0-1.105,0.895-2,2-2h44c1.105,0,2,0.895,2,2V18z"/>
<rect y="18" fill="#E6E6E6" width="48" height="12"/>
<path fill="#1B8717" d="M48,40c0,1.105-0.895,2-2,2H2c-1.105,0-2-0.895-2-2V30h48V40z"/>
<path fill="#11188A" d="M24,20c-2.209,0-4,1.791-4,4s1.791,4,4,4s4-1.791,4-4S26.209,20,24,20z M24,26c-1.104,0-2-0.895-2-2
	s0.896-2,2-2s2,0.895,2,2S25.104,26,24,26z"/>
</g></svg>