<svg xmlns="http://www.w3.org/2000/svg" xmlns:xlink="http://www.w3.org/1999/xlink" x="0px" y="0px" width="48px" height="48px" viewBox="0 0 48 48"><g >
<path fill="#FE0C00" d="M48,40c0,1.105-0.895,2-2,2H2c-1.105,0-2-0.895-2-2V30h48V40z"/>
<rect y="18" fill="#002EE6" width="48" height="12"/>
<path fill="#E6E6E6" d="M48,18H0V8c0-1.105,0.895-2,2-2h44c1.105,0,2,0.895,2,2V18z"/>
<polygon fill="#002EE6" points="18,14 6,14 6,24 12,28 18,24 "/>
<path fill="#FFFFFF" d="M16,18c0,0-3,0-4,0s-4,0-4,0v4h8V18z"/>
</g></svg>