<svg xmlns="http://www.w3.org/2000/svg" xmlns:xlink="http://www.w3.org/1999/xlink" x="0px" y="0px" width="48px" height="48px" viewBox="0 0 48 48"><g >
<path fill="#040385" d="M20,22H0V8c0-1.105,0.895-2,2-2h18V22z"/>
<path fill="#0402FB" d="M46,6H20v16H0v18c0,1.105,0.895,2,2,2h44c1.105,0,2-0.895,2-2V24V8C48,6.895,47.105,6,46,6z"/>
<polygon fill="#FF0000" points="20,12 15.377,12 19.068,9.266 17.879,7.66 12.018,12 12,12 12,6 8,6 8,11.365 2.996,7.66 
	1.807,9.266 5.498,12 0,12 0,16 6.617,16 1.807,19.563 2.996,21.17 8,17.465 8,22 12,22 12,16.816 17.879,21.17 19.068,19.563 
	14.258,16 20,16 "/>
<path fill="#FFFFFF" d="M44,22H32v10.93c0,0.669,0.334,1.293,0.891,1.664L38,38l5.109-3.406C43.666,34.223,44,33.598,44,32.93V22z"/>
<rect x="32" y="26" fill="#FF0000" width="12" height="4"/>
<polygon fill="#FF0000" points="40,36.666 38,38 36,36.666 36,22 40,22 "/>
</g></svg>