<svg xmlns="http://www.w3.org/2000/svg" xmlns:xlink="http://www.w3.org/1999/xlink" x="0px" y="0px" width="48px" height="48px" viewBox="0 0 48 48"><g >
<path fill="#08339E" d="M48,16H0V8c0-1.105,0.895-2,2-2h44c1.105,0,2,0.895,2,2V16z"/>
<rect y="16" fill="#DD0B2D" width="48" height="16"/>
<path fill="#08339E" d="M48,40c0,1.105-0.895,2-2,2H2c-1.105,0-2-0.895-2-2v-8h48V40z"/>
<polygon fill="#FFFFFF" points="34,26 34,22 32,20 30,22 30,26 26,26 26,20 24,18 22,20 22,26 18,26 18,22 16,20 14,22 14,26 12,30 
	36,30 "/>
</g></svg>