<svg xmlns="http://www.w3.org/2000/svg" xmlns:xlink="http://www.w3.org/1999/xlink" x="0px" y="0px" width="48px" height="48px" viewBox="0 0 48 48"><g >
<path fill="#C22A34" d="M48,40c0,1.105-0.895,2-2,2H32V6h14c1.105,0,2,0.895,2,2V40z"/>
<path fill="#C22A34" d="M16,42H2c-1.105,0-2-0.895-2-2V8c0-1.105,0.895-2,2-2h14V42z"/>
<rect x="16" y="6" fill="#0A5395" width="16" height="36"/>
<path fill="#F8CE2F" d="M10,18v2H6v-2H4v12h2v-2h4v2h2V18H10z M10,26H6v-4h4V26z"/>
<path fill="#F8CE2F" d="M8,18c1.104,0,2-0.895,2-2s-2-4-2-4s-2,2.895-2,4S6.896,18,8,18z"/>
</g></svg>