<svg xmlns="http://www.w3.org/2000/svg" xmlns:xlink="http://www.w3.org/1999/xlink" x="0px" y="0px" width="48px" height="48px" viewBox="0 0 48 48"><g >
<path fill="#E6E6E6" d="M48,40c0,1.105-0.895,2-2,2H2c-1.105,0-2-0.895-2-2V8c0-1.105,0.895-2,2-2h44c1.105,0,2,0.895,2,2V40z"/>
<path fill="#ED8000" d="M34,16v2h-2v-2h-2v2h-2v-2h-2v2h-4v-2h-2v2h-2v-2h-2v2h-2v-2c-1.105,0-2,0.896-2,2v4c0,1.104,0.895,2,2,2v-2
	h2v2h2v-2h2v2h2v-2h4v2h2v-2h2v2h2v-2h2v2c1.105,0,2-0.896,2-2v-4C36,16.896,35.105,16,34,16z"/>
<path fill="#11674A" d="M10,30h12v-2H12C10.895,28,10,28.895,10,30z"/>
<path fill="#11674A" d="M26,30h12c0-1.105-0.895-2-2-2H26V30z"/>
</g></svg>