<svg xmlns="http://www.w3.org/2000/svg" xmlns:xlink="http://www.w3.org/1999/xlink" x="0px" y="0px" width="48px" height="48px" viewBox="0 0 48 48"><g >
<path fill="#D90E2B" d="M48,40c0,1.105-0.895,2-2,2H24L42,6h4c1.105,0,2,0.895,2,2V40z"/>
<path fill="#D90E2B" d="M24,42H2c-1.105,0-2-0.895-2-2V8c0-1.105,0.895-2,2-2h4L24,42z"/>
<polygon fill="#FFFFFF" points="24,42 24,42 15,24 33,24 "/>
<polygon fill="#0472C9" points="33,24 15,24 12,18 36,18 "/>
<path fill="#000302" d="M6,6l6,12h4c0-4.418,3.582-8,8-8s8,3.582,8,8h4l6-12H6z"/>
<path fill="#F8C422" d="M32,18c0-4.418-3.582-8-8-8s-8,3.582-8,8H32z"/>
</g></svg>