<svg xmlns="http://www.w3.org/2000/svg" xmlns:xlink="http://www.w3.org/1999/xlink" x="0px" y="0px" width="48px" height="48px" viewBox="0 0 48 48"><g >
<path fill="#000105" d="M48,40c0,1.105-0.895,2-2,2H2c-1.105,0-2-0.895-2-2V30h48V40z"/>
<rect y="18" fill="#E6E6E6" width="48" height="12"/>
<path fill="#CC162C" d="M48,18H0V8c0-1.105,0.895-2,2-2h44c1.105,0,2,0.895,2,2V18z"/>
<path fill="#0E783D" d="M20.313,22.613h-2.948l-1.236-2.684l-1.237,2.684h-2.947l2.153,2.227l-0.796,3.23l2.827-1.605l2.827,1.605
	l-0.796-3.23L20.313,22.613z"/>
<path fill="#0E783D" d="M36,22.613h-2.948l-1.236-2.684l-1.237,2.684h-2.947l2.153,2.227l-0.796,3.23l2.827-1.605l2.827,1.605
	l-0.796-3.23L36,22.613z"/>
</g></svg>