<svg xmlns="http://www.w3.org/2000/svg" xmlns:xlink="http://www.w3.org/1999/xlink" x="0px" y="0px" width="48px" height="48px" viewBox="0 0 48 48"><g >
<path fill="#3C5BBC" d="M48,14H0V8c0-1.105,0.895-2,2-2h44c1.105,0,2,0.895,2,2V14z"/>
<path fill="#3C5BBC" d="M48,40c0,1.105-0.895,2-2,2H2c-1.105,0-2-0.895-2-2v-6h48V40z"/>
<rect y="16" fill="#BD1D27" width="48" height="16"/>
<rect y="14" fill="#FFDB00" width="48" height="2"/>
<rect y="32" fill="#FFDB00" width="48" height="2"/>
<rect x="10" y="26" fill="#FFDB00" width="12" height="2"/>
<rect x="10" y="20" fill="#FFDB00" width="12" height="2"/>
<rect x="26" y="26" fill="#FFDB00" width="12" height="2"/>
<rect x="26" y="20" fill="#FFDB00" width="12" height="2"/>
<path fill="#3C3C3C" d="M18,24c0,3.314,2.687,6,6,6V18C20.687,18,18,20.686,18,24z"/>
<path fill="#FFFFFF" d="M30,24c0,3.314-2.687,6-6,6V18C27.313,18,30,20.686,30,24z"/>
</g></svg>