<svg xmlns="http://www.w3.org/2000/svg" xmlns:xlink="http://www.w3.org/1999/xlink" x="0px" y="0px" width="48px" height="48px" viewBox="0 0 48 48"><g >
<path fill="#D21F22" d="M14.369,22.543h-2.947l-1.238-2.684l-1.236,2.684H6l2.152,2.227L7.357,28l2.826-1.605L13.012,28l-0.797-3.23
	L14.369,22.543z"/>
<path fill="#DA2728" d="M46,6H2l20,18L2,42h44c1.105,0,2-0.895,2-2V24V8C48,6.895,47.105,6,46,6z"/>
<polygon fill="#FEC63C" points="28,24 2,6 22,24 2,42 "/>
<path d="M2,6C0.895,6,0,6.895,0,8v16v16c0,1.105,0.895,2,2,2l20-18L2,6z"/>
<path fill="#FFFFFF" d="M12.369,22.543H9.42l-1.234-2.684l-1.238,2.684H4l2.154,2.227L5.357,28l2.828-1.605L11.012,28l-0.795-3.23
	L12.369,22.543z"/>
</g></svg>