<svg xmlns="http://www.w3.org/2000/svg" xmlns:xlink="http://www.w3.org/1999/xlink" x="0px" y="0px" width="48px" height="48px" viewBox="0 0 48 48"><g >
<path fill="#17AC4E" d="M48,16H12L2,6h44c1.105,0,2,0.895,2,2V16z"/>
<polygon fill="#FFDB0C" points="48,32 12,32 20,24 12,16 48,16 "/>
<path fill="#17AC4E" d="M48,40c0,1.105-0.895,2-2,2H2l10-10h36V40z"/>
<path fill="#D91E2F" d="M2,6C0.896,6,0,6.895,0,8v16v16c0,1.105,0.896,2,2,2l18-18L2,6z"/>
<path fill="#424041" d="M30.369,22.543h-2.948l-1.236-2.684l-1.237,2.684H22l2.153,2.227L23.357,28l2.827-1.605L29.012,28
	l-0.796-3.23L30.369,22.543z"/>
<path fill="#424041" d="M42.369,22.543h-2.948l-1.236-2.684l-1.237,2.684H34l2.153,2.227L35.357,28l2.827-1.605L41.012,28
	l-0.796-3.23L42.369,22.543z"/>
</g></svg>