<svg xmlns="http://www.w3.org/2000/svg" xmlns:xlink="http://www.w3.org/1999/xlink" x="0px" y="0px" width="48px" height="48px" viewBox="0 0 48 48"><g >
<path fill="#CE2029" d="M48,8c0-1.104-0.896-2-2-2L24,22L2,6C0.896,6,0,6.896,0,8l22,16L0,40c0,1.104,0.896,2,2,2l22-16l22,16
	c1.104,0,2-0.896,2-2L26,24L48,8z"/>
<polygon fill="#E6E6E6" points="0,8 0,40 22,24 "/>
<polygon fill="#E6E6E6" points="26,24 48,40 48,8 "/>
<polygon fill="#E6E6E6" points="2,42 46,42 24,26 "/>
<polygon fill="#E6E6E6" points="46,6 2,6 24,22 "/>
<polygon fill="#CE2029" points="28,10 20,10 20,15.332 24,18 28,15.332 "/>
</g></svg>