<svg xmlns="http://www.w3.org/2000/svg" xmlns:xlink="http://www.w3.org/1999/xlink" x="0px" y="0px" width="48px" height="48px" viewBox="0 0 48 48"><g >
<path fill="#DD2026" d="M48,40c0,1.105-0.895,2-2,2H2c-1.105,0-2-0.895-2-2V30h48V40z"/>
<rect y="18" fill="#0038A7" width="48" height="12"/>
<path fill="#E6E6E6" d="M48,18H0V8c0-1.105,0.895-2,2-2h44c1.105,0,2,0.895,2,2V18z"/>
<path fill="#EE1E2E" d="M18,14H6v10.93c0,0.669,0.334,1.293,0.891,1.664L12,30l5.109-3.406C17.666,26.223,18,25.598,18,24.93V14z"/>
<rect x="8" y="16" fill="#FFFFFF" width="8" height="2"/>
<rect x="10" y="20" fill="#FFFFFF" width="4" height="2"/>
<rect x="10" y="24" fill="#FFFFFF" width="4" height="2"/>
</g></svg>