<svg xmlns="http://www.w3.org/2000/svg" xmlns:xlink="http://www.w3.org/1999/xlink" x="0px" y="0px" width="48px" height="48px" viewBox="0 0 48 48"><g >
<path fill="#E6E6E6" d="M20,22H0V8c0-1.105,0.895-2,2-2h18V22z"/>
<path fill="#0402FB" d="M46,6H20v16H0v18c0,1.105,0.895,2,2,2h44c1.105,0,2-0.895,2-2V24V8C48,6.895,47.105,6,46,6z"/>
<polygon fill="#FF0000" points="20,12 15.377,12 19.068,9.266 17.879,7.66 12.018,12 12,12 12,6 8,6 8,11.365 2.996,7.66 
	1.807,9.266 5.498,12 0,12 0,16 6.617,16 1.807,19.563 2.996,21.17 8,17.465 8,22 12,22 12,16.816 17.879,21.17 19.068,19.563 
	14.258,16 20,16 "/>
<polygon fill="#FFFFFF" points="28.828,18.344 29.752,20.941 32.242,19.758 31.059,22.248 33.656,23.172 31.059,24.096 
	32.242,26.586 29.752,25.402 28.828,28 27.904,25.402 25.414,26.586 26.598,24.096 24,23.172 26.598,22.248 25.414,19.758 
	27.904,20.941 "/>
<polygon fill="#FFFFFF" points="40.828,14 41.369,15.521 42.83,14.828 42.135,16.287 43.656,16.828 42.135,17.369 42.83,18.828 
	41.369,18.135 40.828,19.656 40.287,18.135 38.828,18.828 39.521,17.369 38,16.828 39.521,16.287 38.828,14.828 40.287,15.521 "/>
<polygon fill="#FFFFFF" points="18,31.172 18.541,32.693 20,32 19.307,33.459 20.828,34 19.307,34.541 20,36 18.541,35.307 
	18,36.828 17.459,35.307 16,36 16.693,34.541 15.172,34 16.693,33.459 16,32 17.459,32.693 "/>
<polygon fill="#FFFFFF" points="34.828,32 35.369,33.521 36.83,32.828 36.135,34.287 37.656,34.828 36.135,35.369 36.83,36.828 
	35.369,36.135 34.828,37.656 34.287,36.135 32.828,36.828 33.521,35.369 32,34.828 33.521,34.287 32.828,32.828 34.287,33.521 "/>
</g></svg>