<svg xmlns="http://www.w3.org/2000/svg" xmlns:xlink="http://www.w3.org/1999/xlink" x="0px" y="0px" width="48px" height="48px" viewBox="0 0 48 48"><g >
<path fill="#439845" d="M48,18H14L2,6h44c1.105,0,2,0.895,2,2V18z"/>
<polygon fill="#E6E6E6" points="48,30 14,30 20,24 14,18 48,18 "/>
<path fill="#D1142A" d="M48,40c0,1.105-0.895,2-2,2H2l12-12h34V40z"/>
<path fill="#23769E" d="M2,6C0.895,6,0,6.895,0,8v16v16c0,1.105,0.895,2,2,2l18-18L2,6z"/>
<polygon fill="#44443C" points="34,20 26,20 26,25.332 30,28 34,25.332 "/>
</g></svg>