<svg xmlns="http://www.w3.org/2000/svg" xmlns:xlink="http://www.w3.org/1999/xlink" x="0px" y="0px" width="48px" height="48px" viewBox="0 0 48 48"><g >
<path fill="#02247E" d="M46,6H2C0.896,6,0,6.896,0,8v10v22c0,1.104,0.896,2,2,2h44c1.104,0,2-0.896,2-2V18V8C48,6.896,47.104,6,46,6
	z"/>
<polygon fill="#C30F2C" points="20,14 14.828,14 18.485,10.343 15.657,7.515 12,11.172 12,6 8,6 8,11.172 4.343,7.515 1.515,10.343 
	5.172,14 0,14 0,18 5.172,18 1.515,21.657 4.343,24.485 8,20.828 8,26 12,26 12,20.828 15.657,24.485 18.485,21.657 14.828,18 
	20,18 "/>
<polygon fill="#703D35" points="44,24 32,24 32,34 38,38 44,34 "/>
</g></svg>