<svg xmlns="http://www.w3.org/2000/svg" xmlns:xlink="http://www.w3.org/1999/xlink" x="0px" y="0px" width="48px" height="48px" viewBox="0 0 48 48"><g >
<rect x="16" y="6" fill="#EBCA19" width="16" height="36"/>
<path fill="#DD2027" d="M48,40c0,1.105-0.895,2-2,2H32V6h14c1.105,0,2,0.895,2,2V40z"/>
<path fill="#0D8643" d="M16,42H2c-1.105,0-2-0.895-2-2V8c0-1.105,0.895-2,2-2h14V42z"/>
<path fill="#0D8643" d="M30.305,21.723h-4.441L24,17.684l-1.863,4.039h-4.441l3.244,3.359l-1.199,4.865l4.26-2.42l4.26,2.42
	l-1.199-4.865L30.305,21.723z"/>
</g></svg>