<svg xmlns="http://www.w3.org/2000/svg" xmlns:xlink="http://www.w3.org/1999/xlink" x="0px" y="0px" width="48px" height="48px" viewBox="0 0 48 48"><g >
<rect x="16" y="6" fill="#E6E6E6" width="16" height="36"/>
<path fill="#4897D0" d="M48,40c0,1.105-0.895,2-2,2H32V6h14c1.105,0,2,0.895,2,2V40z"/>
<path fill="#4897D0" d="M16,42H2c-1.105,0-2-0.895-2-2V8c0-1.105,0.895-2,2-2h14V42z"/>
<path fill="#738356" d="M24,18c-3.312,0-6,2.688-6,6c0,3.313,2.688,6,6,6c3.313,0,6-2.687,6-6C30,20.688,27.313,18,24,18z M24,28
	c-2.209,0-4-1.791-4-4s1.791-4,4-4c2.209,0,4,1.791,4,4S26.209,28,24,28z"/>
</g></svg>