<svg xmlns="http://www.w3.org/2000/svg" xmlns:xlink="http://www.w3.org/1999/xlink" x="0px" y="0px" width="48px" height="48px" viewBox="0 0 48 48"><g >
<path fill="#070084" d="M20,22H0V8c0-1.105,0.895-2,2-2h18V22z"/>
<path fill="#0482FB" d="M46,6H20v16H0v18c0,1.105,0.896,2,2,2h44c1.104,0,2-0.895,2-2V24V8C48,6.895,47.104,6,46,6z"/>
<polygon fill="#FF0000" points="20,12 15.377,12 19.068,9.266 17.878,7.66 12.018,12 12,12 12,6 8,6 8,11.365 2.997,7.66 
	1.807,9.266 5.498,12 0,12 0,16 6.617,16 1.807,19.563 2.997,21.17 8,17.465 8,22 12,22 12,16.816 17.878,21.17 19.068,19.563 
	14.258,16 20,16 "/>
<path fill="#F6D031" d="M34.911,24.934h-2.273l-0.954-2.072l-0.954,2.072h-2.272l1.66,1.711l-0.614,2.494l2.181-1.238l2.181,1.238
	l-0.614-2.494L34.911,24.934z"/>
<path fill="#F6D031" d="M28.036,27.625h-1.686l-0.708-1.537l-0.708,1.537h-1.686l1.231,1.27l-0.455,1.85l1.617-0.918l1.617,0.918
	l-0.455-1.85L28.036,27.625z"/>
<path fill="#F6D031" d="M21.964,29.313h-1.105l-0.465-1.008l-0.465,1.008h-1.106l0.808,0.834l-0.298,1.213l1.061-0.602l1.061,0.602
	l-0.298-1.213L21.964,29.313z"/>
<path fill="#F6D031" d="M17.464,30.225h-1.105l-0.465-1.008l-0.465,1.008h-1.106l0.808,0.834l-0.298,1.213l1.061-0.601l1.061,0.601
	l-0.298-1.213L17.464,30.225z"/>
<path fill="#F6D031" d="M42.981,29.555h-2.272l-0.954-2.072l-0.954,2.072h-2.272l1.66,1.711l-0.614,2.494l2.181-1.238l2.181,1.238
	l-0.614-2.494L42.981,29.555z"/>
<path fill="#F6D031" d="M36.106,32.246h-1.686l-0.708-1.537l-0.708,1.537h-1.685l1.231,1.27l-0.455,1.85l1.617-0.918l1.617,0.918
	l-0.455-1.85L36.106,32.246z"/>
<path fill="#F6D031" d="M30.034,33.934h-1.105l-0.465-1.008l-0.465,1.008h-1.105l0.808,0.834l-0.298,1.213l1.06-0.601l1.061,0.601
	l-0.298-1.213L30.034,33.934z"/>
<path fill="#F6D031" d="M25.534,34.846h-1.105l-0.465-1.008l-0.465,1.008h-1.105l0.808,0.834l-0.298,1.213l1.06-0.602l1.061,0.602
	l-0.298-1.213L25.534,34.846z"/>
</g></svg>