<svg xmlns="http://www.w3.org/2000/svg" xmlns:xlink="http://www.w3.org/1999/xlink" x="0px" y="0px" width="48px" height="48px" viewBox="0 0 48 48"><g ><path fill="#9B2086" d="M44,7H4c-1.657,0-3,1.343-3,3v28c0,1.657,1.343,3,3,3h40c1.657,0,3-1.343,3-3V10C47,8.343,45.657,7,44,7z"/>
<path fill="#FFFFFF" d="M26.88,22.426c1.647,2.529,0.932,5.915-1.597,7.563c-2.529,1.647-5.915,0.932-7.563-1.597l1.57-1.055
	c1.07,1.643,3.268,2.107,4.911,1.037c1.643-1.07,2.107-3.268,1.037-4.911L26.88,22.426z"/>
<path fill="#262626" d="M30.535,20.105c-1.651-2.527-5.037-3.238-7.565-1.588c-2.527,1.651-3.238,5.037-1.588,7.565l1.599-1.012
	c-1.072-1.641-0.61-3.84,1.031-4.912c1.641-1.072,3.84-0.61,4.912,1.031L30.535,20.105z"/>
<path fill="#FFFFFF" d="M24,36c-6.617,0-12-5.383-12-12s5.383-12,12-12s12,5.383,12,12S30.617,36,24,36z M24,14
	c-5.514,0-10,4.486-10,10s4.486,10,10,10s10-4.486,10-10S29.514,14,24,14z"/></g></svg>