<svg xmlns="http://www.w3.org/2000/svg" xmlns:xlink="http://www.w3.org/1999/xlink" x="0px" y="0px" width="48px" height="48px" viewBox="0 0 48 48"><g ><path fill="#E6E6E6" d="M44,7H4c-1.657,0-3,1.343-3,3v28c0,1.657,1.343,3,3,3h40c1.657,0,3-1.343,3-3V10C47,8.343,45.657,7,44,7z"/>
<path fill-rule="evenodd" clip-rule="evenodd" fill="#444444" d="M31.736,28.206c-0.423,0.937-0.625,1.355-1.17,2.183
	c-0.759,1.156-1.83,2.596-3.157,2.608c-1.179,0.011-1.482-0.767-3.082-0.758c-1.6,0.009-1.934,0.772-3.113,0.761
	c-1.327-0.012-2.341-1.312-3.101-2.469c-2.124-3.233-2.346-7.027-1.036-9.044c0.931-1.434,2.4-2.272,3.781-2.272
	c1.406,0,2.29,0.771,3.453,0.771c1.128,0,1.815-0.772,3.441-0.772c1.229,0,2.531,0.669,3.459,1.825
	C28.171,22.705,28.665,27.045,31.736,28.206L31.736,28.206z"/>
<path fill-rule="evenodd" clip-rule="evenodd" fill="#444444" d="M26.519,17.922c0.591-0.758,1.039-1.828,0.876-2.922
	c-0.965,0.066-2.093,0.68-2.752,1.48c-0.598,0.726-1.092,1.803-0.9,2.85C24.796,19.363,25.886,18.734,26.519,17.922L26.519,17.922z"/></g></svg>