<svg xmlns="http://www.w3.org/2000/svg" xmlns:xlink="http://www.w3.org/1999/xlink" x="0px" y="0px" width="48px" height="48px" viewBox="0 0 48 48"><g ><path fill="#003564" d="M44,7H4c-1.657,0-3,1.343-3,3v28c0,1.657,1.343,3,3,3h40c1.657,0,3-1.343,3-3V10C47,8.343,45.657,7,44,7z"/>
<circle fill="#2285DD" cx="19" cy="24" r="8"/>
<path fill="#376BD1" d="M24,30.24c0.093-0.075,0.177-0.161,0.267-0.24h-0.535C23.823,30.079,23.907,30.165,24,30.24z"/>
<path fill="#F01524" d="M29,16c-2.525,0-4.773,1.173-6.24,3h2.48c0.251,0.313,0.47,0.651,0.673,1h-3.827h-0.008
	c-0.186,0.321-0.352,0.653-0.492,1h0.009h4.809c0.132,0.324,0.246,0.656,0.335,1h-5.477c-0.084,0.326-0.151,0.659-0.193,1h5.865
	C26.975,23.328,27,23.661,27,24h-6c0,0.339,0.028,0.672,0.069,1h5.865c-0.043,0.341-0.111,0.674-0.195,1h-5.477
	c0.088,0.342,0.194,0.677,0.325,1h0.009h4.809c-0.141,0.346-0.305,0.68-0.491,1h-3.827h-0.008c0.203,0.351,0.429,0.686,0.681,1h2.48
	c-0.292,0.363-0.623,0.693-0.973,1h-0.535h-0.012c1.409,1.241,3.254,2,5.279,2c4.418,0,8-3.582,8-8S33.418,16,29,16z"/></g></svg>