<svg xmlns="http://www.w3.org/2000/svg" xmlns:xlink="http://www.w3.org/1999/xlink" x="0px" y="0px" width="48px" height="48px" viewBox="0 0 48 48"><g >
<path fill="#002E64" d="M44,7H4c-1.657,0-3,1.343-3,3v28c0,1.657,1.343,3,3,3h40c1.657,0,3-1.343,3-3V10C47,8.343,45.657,7,44,7z"/>
<path fill="#FE9B00" d="M28.334,27.484c-2.092,1.544-5.124,2.365-7.735,2.365
	c-3.66,0-6.955-1.353-9.449-3.605c-0.196-0.177-0.021-0.418,0.214-0.281c2.691,1.566,6.018,2.509,9.455,2.509
	c2.318,0,4.867-0.481,7.212-1.476C28.384,26.846,28.68,27.229,28.334,27.484z"/>
<path fill="#FE9B00" d="M29.204,26.491c-0.268-0.343-1.769-0.162-2.443-0.082
	c-0.204,0.024-0.236-0.154-0.052-0.283c1.197-0.841,3.159-0.598,3.387-0.317c0.23,0.284-0.06,2.251-1.182,3.19
	c-0.173,0.144-0.337,0.067-0.26-0.123C28.907,28.245,29.472,26.833,29.204,26.491z"/>
<path fill="#FFFFFF" d="M26.809,20.185v-0.817c0-0.124,0.094-0.207,0.207-0.207l3.662,0
	c0.117,0,0.211,0.085,0.211,0.206l0,0.701c-0.001,0.118-0.1,0.271-0.276,0.514l-1.897,2.709c0.704-0.017,1.449,0.089,2.089,0.449
	C30.95,23.82,30.989,23.94,31,24.058v0.872c0,0.12-0.131,0.259-0.27,0.187c-1.127-0.59-2.623-0.655-3.87,0.007
	c-0.127,0.068-0.261-0.069-0.261-0.189v-0.829c0-0.133,0.002-0.359,0.136-0.562l2.198-3.153l-1.914,0
	C26.904,20.391,26.81,20.307,26.809,20.185z"/>
<path fill="#FFFFFF" d="M13.45,25.289h-1.114c-0.106-0.007-0.191-0.087-0.199-0.188
	l0.001-5.719c0-0.114,0.096-0.206,0.215-0.206l1.038,0c0.109,0.006,0.196,0.088,0.203,0.192v0.747h0.021
	c0.27-0.722,0.78-1.059,1.466-1.059c0.697,0,1.134,0.337,1.446,1.059c0.27-0.722,0.884-1.059,1.539-1.059
	c0.468,0,0.978,0.193,1.29,0.626c0.354,0.481,0.281,1.179,0.281,1.793l-0.001,3.609c0,0.114-0.096,0.206-0.215,0.206h-1.113
	c-0.112-0.007-0.2-0.096-0.2-0.205l0-3.032c0-0.241,0.021-0.842-0.031-1.071c-0.083-0.385-0.333-0.493-0.655-0.493
	c-0.27,0-0.551,0.181-0.666,0.469c-0.114,0.289-0.104,0.77-0.104,1.095v3.031c0,0.114-0.096,0.206-0.215,0.206h-1.113
	c-0.112-0.007-0.2-0.096-0.2-0.205l-0.001-3.032c0-0.638,0.104-1.576-0.686-1.576c-0.801,0-0.77,0.915-0.77,1.576l0,3.031
	C13.665,25.197,13.568,25.289,13.45,25.289z"/>
<path fill="#FFFFFF" d="M34.043,19.055c-1.612,0-2.507,1.384-2.507,3.165
	c0,1.769,0.884,3.189,2.507,3.189c1.56,0,2.548-1.384,2.548-3.129C36.591,20.475,35.696,19.055,34.043,19.055z M34.043,24.23
	c-0.874,0-0.863-1.492-0.863-2.19s0.052-1.817,0.874-1.817c0.353,0,0.603,0.156,0.728,0.554c0.146,0.457,0.166,1.035,0.166,1.516
	C34.948,23.026,34.906,24.23,34.043,24.23z"/>
<path fill="#FFFFFF" d="M38.735,25.289h-1.11c-0.112-0.007-0.2-0.096-0.2-0.205
	l-0.002-5.721c0.009-0.105,0.102-0.187,0.214-0.187l1.034,0c0.097,0.005,0.177,0.071,0.198,0.16v0.875h0.021
	c0.312-0.782,0.749-1.155,1.518-1.155c0.499,0,0.988,0.181,1.3,0.674C42,20.186,42,20.957,42,21.51v3.598
	c-0.013,0.101-0.103,0.18-0.214,0.18h-1.117c-0.103-0.007-0.186-0.082-0.198-0.18v-3.105c0-0.626,0.073-1.54-0.697-1.54
	c-0.271,0-0.52,0.181-0.645,0.457c-0.156,0.349-0.177,0.698-0.177,1.083v3.079C38.95,25.197,38.854,25.289,38.735,25.289z"/>
<path fill="#FFFFFF" d="M25.874,24.241c-0.204-0.281-0.421-0.51-0.421-1.033v-1.736
	c0-0.736,0.052-1.411-0.49-1.918C24.536,19.145,23.827,19,23.285,19c-1.06,0-2.243,0.396-2.492,1.706
	c-0.026,0.139,0.075,0.212,0.166,0.233l1.08,0.117c0.101-0.005,0.174-0.104,0.194-0.205c0.093-0.451,0.471-0.669,0.896-0.669
	c0.229,0,0.49,0.084,0.625,0.289c0.156,0.229,0.135,0.543,0.135,0.808v0.145c-0.646,0.072-1.491,0.121-2.095,0.386
	c-0.698,0.302-1.188,0.917-1.188,1.821c0,1.158,0.73,1.737,1.668,1.737c0.792,0,1.225-0.187,1.837-0.81
	c0.202,0.293,0.269,0.435,0.639,0.742c0.083,0.045,0.189,0.04,0.263-0.026l0.003,0.003c0.223-0.198,0.627-0.549,0.854-0.74
	C25.961,24.463,25.945,24.342,25.874,24.241z M23.89,22.558c0,0.434,0.01,0.796-0.208,1.182c-0.177,0.314-0.459,0.507-0.771,0.507
	c-0.427,0-0.677-0.326-0.677-0.808c0-0.949,0.851-1.122,1.657-1.122V22.558z"/>
<path fill="#FFFFFF" d="M11.267,24.241c-0.204-0.281-0.421-0.51-0.421-1.033v-1.736
	c0-0.736,0.052-1.411-0.49-1.918C9.929,19.145,9.221,19,8.679,19c-1.06,0-2.244,0.396-2.492,1.706
	c-0.026,0.139,0.075,0.212,0.166,0.233l1.08,0.117c0.101-0.005,0.174-0.104,0.194-0.205c0.093-0.451,0.471-0.669,0.896-0.669
	c0.229,0,0.49,0.084,0.625,0.289c0.156,0.229,0.135,0.543,0.135,0.808v0.145c-0.646,0.072-1.49,0.121-2.095,0.386
	C6.49,22.112,6,22.727,6,23.631c0,1.158,0.73,1.737,1.668,1.737c0.792,0,1.225-0.187,1.837-0.81
	c0.202,0.293,0.269,0.435,0.639,0.742c0.083,0.045,0.189,0.04,0.263-0.026l0.003,0.003c0.222-0.198,0.627-0.549,0.854-0.74
	C11.354,24.463,11.338,24.342,11.267,24.241z M9.283,22.558c0,0.434,0.01,0.796-0.208,1.182c-0.177,0.314-0.459,0.507-0.771,0.507
	c-0.427,0-0.677-0.326-0.677-0.808c0-0.949,0.851-1.122,1.657-1.122V22.558z"/>
</g></svg>