<svg xmlns="http://www.w3.org/2000/svg" xmlns:xlink="http://www.w3.org/1999/xlink" x="0px" y="0px" width="48px" height="48px" viewBox="0 0 48 48"><g ><path fill="#E6E6E6" d="M44,7H4c-1.657,0-3,1.343-3,3v28c0,1.657,1.343,3,3,3h40c1.657,0,3-1.343,3-3V10C47,8.343,45.657,7,44,7z"/>
<circle fill="#F99400" cx="24" cy="24" r="12"/>
<path fill="#FFFFFF" d="M29.289,22.29c0.239-1.597-0.977-2.455-2.64-3.028l0.539-2.163l-1.317-0.328l-0.525,2.106
	c-0.346-0.086-0.702-0.168-1.055-0.248l0.529-2.12l-1.316-0.328l-0.54,2.162c-0.286-0.065-0.568-0.13-0.841-0.198l0.001-0.007
	l-1.816-0.453l-0.35,1.406c0,0,0.977,0.224,0.956,0.238c0.533,0.133,0.63,0.486,0.614,0.766l-1.478,5.926
	c-0.065,0.162-0.231,0.405-0.603,0.313c0.013,0.019-0.957-0.239-0.957-0.239l-0.654,1.507l1.714,0.427
	c0.319,0.08,0.631,0.164,0.939,0.242l-0.545,2.188l1.315,0.328l0.54-2.165c0.359,0.097,0.708,0.188,1.049,0.272l-0.538,2.155
	l1.317,0.328l0.545-2.184c2.245,0.425,3.934,0.254,4.645-1.777c0.573-1.635-0.029-2.578-1.21-3.193
	C28.469,24.025,29.117,23.459,29.289,22.29z M26.281,26.509c-0.407,1.635-3.16,0.751-4.053,0.53l0.723-2.899
	C23.844,24.363,26.706,24.804,26.281,26.509z M26.688,22.267c-0.371,1.487-2.663,0.732-3.406,0.546l0.656-2.629
	C24.681,20.369,27.075,20.715,26.688,22.267z"/></g></svg>