<svg xmlns="http://www.w3.org/2000/svg" xmlns:xlink="http://www.w3.org/1999/xlink" x="0px" y="0px" width="48px" height="48px" viewBox="0 0 48 48"><g ><path fill="#E6E6E6" d="M44,7H4c-1.657,0-3,1.343-3,3v28c0,1.657,1.343,3,3,3h40c1.657,0,3-1.343,3-3V10C47,8.343,45.657,7,44,7z"/>
<path fill-rule="evenodd" clip-rule="evenodd" fill="#76C450" d="M17,27L17,27c-0.552,0-1-0.448-1-1v-4c0-0.552,0.448-1,1-1h0
	c0.552,0,1,0.448,1,1v4C18,26.552,17.552,27,17,27z"/>
<path fill-rule="evenodd" clip-rule="evenodd" fill="#76C450" d="M31,27L31,27c-0.552,0-1-0.448-1-1v-4c0-0.552,0.448-1,1-1h0
	c0.552,0,1,0.448,1,1v4C32,26.552,31.552,27,31,27z"/>
<path fill-rule="evenodd" clip-rule="evenodd" fill="#76C450" d="M19,21v8c0,0.552,0.448,1,1,1h1v2c0,0.552,0.448,1,1,1s1-0.448,1-1
	v-2h2v2c0,0.552,0.448,1,1,1s1-0.448,1-1v-2h1c0.552,0,1-0.448,1-1v-8H19z"/>
<path fill="#76C450" d="M19,20h10c0-1.555-0.724-2.926-1.837-3.843l1.253-1.88c0.153-0.229,0.091-0.54-0.139-0.693
	c-0.231-0.153-0.542-0.092-0.693,0.139l-1.253,1.879C25.632,15.23,24.847,15,24,15s-1.632,0.23-2.331,0.602l-1.253-1.879
	c-0.153-0.23-0.464-0.292-0.693-0.139c-0.23,0.153-0.292,0.464-0.139,0.693l1.253,1.88C19.724,17.074,19,18.445,19,20z"/></g></svg>