<svg xmlns="http://www.w3.org/2000/svg" xmlns:xlink="http://www.w3.org/1999/xlink" x="0px" y="0px" width="48px" height="48px" viewBox="0 0 48 48"><g ><path fill="#E6E6E6" d="M44,7H4c-1.657,0-3,1.343-3,3v28c0,1.657,1.343,3,3,3h40c1.657,0,3-1.343,3-3V10C47,8.343,45.657,7,44,7z"/>
<path fill="#009EE3" d="M30.292,19.203h-2.8c-0.191,0-0.354,0.139-0.384,0.328l-1.132,7.18c-0.022,0.142,0.087,0.27,0.231,0.27
	h1.437c0.134,0,0.248-0.098,0.269-0.23l0.321-2.036c0.03-0.189,0.193-0.328,0.384-0.328h0.886c1.844,0,2.909-0.893,3.187-2.662
	c0.125-0.774,0.005-1.382-0.357-1.807C31.935,19.451,31.229,19.203,30.292,19.203z M30.615,21.826
	c-0.153,1.005-0.921,1.005-1.663,1.005H28.53l0.296-1.877c0.018-0.113,0.116-0.197,0.231-0.197c0.615,0,1.155-0.025,1.423,0.288
	C30.627,21.218,30.671,21.473,30.615,21.826z"/>
<path fill="#113984" d="M10.32,19.203h-2.8c-0.191,0-0.354,0.139-0.384,0.328l-1.132,7.18c-0.022,0.142,0.087,0.27,0.231,0.27h1.337
	c0.191,0,0.354-0.139,0.384-0.328l0.306-1.937c0.03-0.189,0.193-0.328,0.384-0.328h0.886c1.844,0,2.909-0.893,3.187-2.662
	c0.125-0.774,0.005-1.382-0.357-1.807C11.962,19.451,11.257,19.203,10.32,19.203z M10.643,21.826
	c-0.153,1.005-0.921,1.005-1.663,1.005H8.557l0.296-1.877c0.018-0.113,0.116-0.197,0.231-0.197h0.194c0.505,0,0.983,0,1.229,0.288
	C10.654,21.218,10.699,21.473,10.643,21.826z"/>
<path fill="#113984" d="M18.69,21.794h-1.341c-0.115,0-0.213,0.084-0.231,0.197l-0.059,0.375c-0.13-0.189-0.389-0.698-1.678-0.698
	c-1.481,0-2.747,1.123-2.993,2.697c-0.128,0.785,0.054,1.536,0.499,2.06c0.409,0.481,0.993,0.682,1.689,0.682
	c1.194,0,1.856-0.767,1.856-0.767l-0.06,0.373c-0.022,0.142,0.087,0.27,0.231,0.27h1.208c0.191,0,0.354-0.139,0.384-0.328
	l0.725-4.59C18.942,21.922,18.833,21.794,18.69,21.794z M16.821,24.404c-0.129,0.766-0.738,1.28-1.513,1.28
	c-0.389,0-0.7-0.125-0.9-0.362c-0.198-0.235-0.273-0.569-0.21-0.942c0.121-0.759,0.739-1.29,1.503-1.29
	c0.381,0,0.69,0.126,0.894,0.365C16.799,23.696,16.88,24.033,16.821,24.404z"/>
<path fill="#009EE3" d="M38.662,21.794h-1.341c-0.115,0-0.213,0.084-0.231,0.197l-0.059,0.375c-0.13-0.189-0.389-0.698-1.678-0.698
	c-1.481,0-2.747,1.123-2.993,2.697c-0.128,0.785,0.054,1.536,0.499,2.06c0.409,0.481,0.993,0.682,1.689,0.682
	c1.194,0,1.856-0.767,1.856-0.767l-0.06,0.373c-0.022,0.142,0.087,0.27,0.231,0.27h1.208c0.191,0,0.354-0.139,0.384-0.328
	l0.725-4.59C38.915,21.922,38.805,21.794,38.662,21.794z M36.793,24.404c-0.13,0.766-0.738,1.28-1.513,1.28
	c-0.389,0-0.7-0.125-0.9-0.362c-0.198-0.235-0.273-0.569-0.21-0.942c0.121-0.759,0.739-1.29,1.503-1.29
	c0.381,0,0.69,0.126,0.894,0.365C36.771,23.696,36.852,24.033,36.793,24.404z"/>
<path fill="#113984" d="M25.831,21.794h-1.348c-0.129,0-0.249,0.064-0.322,0.171l-1.859,2.738l-0.788-2.631
	c-0.049-0.165-0.201-0.278-0.373-0.278h-1.325c-0.16,0-0.273,0.157-0.221,0.309l1.484,4.356l-1.396,1.97
	c-0.11,0.155,0.001,0.368,0.19,0.368h1.346c0.128,0,0.247-0.063,0.32-0.167l4.482-6.469C26.13,22.005,26.019,21.794,25.831,21.794z"/>
<path fill="#009EE3" d="M40.242,19.401l-1.149,7.312c-0.022,0.142,0.087,0.27,0.231,0.27h1.156c0.191,0,0.354-0.139,0.384-0.328
	l1.133-7.18c0.022-0.142-0.087-0.27-0.231-0.27h-1.294C40.358,19.203,40.26,19.287,40.242,19.401z"/></g></svg>