<svg xmlns="http://www.w3.org/2000/svg" xmlns:xlink="http://www.w3.org/1999/xlink" x="0px" y="0px" width="48px" height="48px" viewBox="0 0 48 48"><g ><path fill="#009A60" d="M44,7H4c-1.657,0-3,1.343-3,3v28c0,1.657,1.343,3,3,3h40c1.657,0,3-1.343,3-3V10C47,8.343,45.657,7,44,7z"/>
<path fill="#FFFFFF" d="M28.127,21.6c2.393,3.675,1.354,8.595-2.321,10.988c-3.675,2.393-8.595,1.354-10.988-2.321l2.282-1.533
	c1.554,2.386,4.749,3.061,7.135,1.507c2.386-1.554,3.061-4.749,1.507-7.135L28.127,21.6z"/>
<path fill="#262626" d="M33.437,18.227c-2.398-3.672-7.319-4.705-10.991-2.307c-3.672,2.398-4.705,7.319-2.307,10.991l2.323-1.47
	c-1.557-2.384-0.887-5.58,1.498-7.137c2.384-1.557,5.58-0.887,7.137,1.498L33.437,18.227z"/></g></svg>