<svg xmlns="http://www.w3.org/2000/svg" xmlns:xlink="http://www.w3.org/1999/xlink" x="0px" y="0px" width="48px" height="48px" viewBox="0 0 48 48"><g ><path fill="#0082CF" d="M44,7H4c-1.657,0-3,1.343-3,3v28c0,1.657,1.343,3,3,3h40c1.657,0,3-1.343,3-3V10C47,8.343,45.657,7,44,7z"/>
<polygon fill-rule="evenodd" clip-rule="evenodd" fill="#FFFFFF" points="23.553,21.243 21.759,21.243 21.759,30.016 23.553,30.016 
	23.553,21.243 "/>
<path fill-rule="evenodd" clip-rule="evenodd" fill="#FFFFFF" d="M25.198,21.257v1.645h1.51v4.949c0,0.683,0.188,1.231,0.548,1.645
	c0.361,0.428,0.842,0.64,1.448,0.654c0.601,0.014,1.135-0.12,1.587-0.399l0.029-0.014v-0.029l0.428-1.669l-0.106,0.067
	c-0.481,0.293-0.923,0.438-1.328,0.438c-0.558,0-0.842-0.332-0.842-0.986v-4.656h1.832v-1.645h-1.832v-2.742l-1.765,0.948v1.794
	H25.198L25.198,21.257z"/>
<polygon fill-rule="evenodd" clip-rule="evenodd" fill="#FFFFFF" points="33.879,21.243 32.071,21.243 32.071,30.016 33.879,30.016 
	33.879,21.243 "/>
<path fill-rule="evenodd" clip-rule="evenodd" fill="#FFFFFF" d="M20.729,22.623l-0.038-0.029c-0.827-1.005-1.861-1.496-3.102-1.496
	c-1.299,0-2.366,0.399-3.223,1.188C13.457,23.118,13,24.239,13,25.644c0,1.404,0.457,2.516,1.366,3.357
	c0.842,0.789,1.924,1.178,3.223,1.178c1.241,0,2.285-0.495,3.102-1.486l0.038-0.029l-1.015-1.226l-0.038,0.038
	c-0.659,0.654-1.366,0.991-2.126,0.991c-0.794,0-1.448-0.269-1.967-0.803c-0.524-0.524-0.774-1.202-0.774-2.02
	c0-0.818,0.25-1.501,0.774-2.035c0.519-0.519,1.174-0.789,1.967-0.789c0.76,0,1.467,0.337,2.126,0.991l0.038,0.038L20.729,22.623
	L20.729,22.623z"/>
<path fill-rule="evenodd" clip-rule="evenodd" fill="#ED2B9F" d="M22.644,19.8c0.707-0.721,1.496-1.27,2.395-1.659
	c0.866-0.375,1.789-0.558,2.742-0.558c0.948,0,1.871,0.183,2.756,0.558c0.88,0.39,1.669,0.938,2.376,1.659l0.029,0.024H35
	l-0.077-0.12c-0.818-1.15-1.876-2.059-3.146-2.722C30.508,16.322,29.185,16,27.781,16c-1.39,0-2.732,0.322-4.002,0.981
	c-1.27,0.664-2.328,1.573-3.141,2.722l-0.082,0.12h2.073L22.644,19.8L22.644,19.8z"/>
<polygon fill-rule="evenodd" clip-rule="evenodd" fill="#FFFFFF" points="23.553,21.243 21.759,21.243 21.759,30.016 23.553,30.016 
	23.553,21.243 "/>
<path fill-rule="evenodd" clip-rule="evenodd" fill="#FFFFFF" d="M25.198,21.257v1.645h1.51v4.949c0,0.683,0.188,1.231,0.548,1.645
	c0.361,0.428,0.842,0.64,1.448,0.654c0.601,0.014,1.135-0.12,1.587-0.399l0.029-0.014v-0.029l0.428-1.669l-0.106,0.067
	c-0.481,0.293-0.923,0.438-1.328,0.438c-0.558,0-0.842-0.332-0.842-0.986v-4.656h1.832v-1.645h-1.832v-2.742l-1.765,0.948v1.794
	H25.198L25.198,21.257z"/>
<polygon fill-rule="evenodd" clip-rule="evenodd" fill="#FFFFFF" points="33.879,21.243 32.071,21.243 32.071,30.016 33.879,30.016 
	33.879,21.243 "/>
<path fill-rule="evenodd" clip-rule="evenodd" fill="#FFFFFF" d="M20.729,22.623l-0.038-0.029c-0.827-1.005-1.861-1.496-3.102-1.496
	c-1.299,0-2.366,0.399-3.223,1.188C13.457,23.118,13,24.239,13,25.644c0,1.404,0.457,2.516,1.366,3.357
	c0.842,0.789,1.924,1.178,3.223,1.178c1.241,0,2.285-0.495,3.102-1.486l0.038-0.029l-1.015-1.226l-0.038,0.038
	c-0.659,0.654-1.366,0.991-2.126,0.991c-0.794,0-1.448-0.269-1.967-0.803c-0.524-0.524-0.774-1.202-0.774-2.02
	c0-0.818,0.25-1.501,0.774-2.035c0.519-0.519,1.174-0.789,1.967-0.789c0.76,0,1.467,0.337,2.126,0.991l0.038,0.038L20.729,22.623
	L20.729,22.623z"/>
<path fill-rule="evenodd" clip-rule="evenodd" fill="#FF2400" d="M22.644,19.8c0.707-0.721,1.496-1.27,2.395-1.659
	c0.866-0.375,1.789-0.558,2.742-0.558c0.948,0,1.871,0.183,2.756,0.558c0.88,0.39,1.669,0.938,2.376,1.659l0.029,0.024H35
	l-0.077-0.12c-0.818-1.15-1.876-2.059-3.146-2.722C30.508,16.322,29.185,16,27.781,16c-1.39,0-2.732,0.322-4.002,0.981
	c-1.27,0.664-2.328,1.573-3.141,2.722l-0.082,0.12h2.073L22.644,19.8L22.644,19.8z"/></g></svg>