<svg xmlns="http://www.w3.org/2000/svg" xmlns:xlink="http://www.w3.org/1999/xlink" x="0px" y="0px" width="48px" height="48px" viewBox="0 0 48 48"><g >
<path fill="#E86C60" d="M44,4H4C3.448,4,3,4.448,3,5v39c0,1.657,1.343,3,3,3h36c1.657,0,3-1.343,3-3V5C45,4.448,44.552,4,44,4z"/>
<path fill="#E6E6E6" d="M24,29c-6.065,0-11-4.935-11-11c0-0.552,0.447-1,1-1s1,0.448,1,1c0,4.962,4.037,9,9,9s9-4.038,9-9
	c0-0.552,0.447-1,1-1s1,0.448,1,1C35,24.065,30.065,29,24,29z"/>
<path fill="#C94F49" d="M41,9H7C4.791,9,3,7.209,3,5v0c0-2.209,1.791-4,4-4h34c2.209,0,4,1.791,4,4v0C45,7.209,43.209,9,41,9z"/>
</g></svg>