<svg xmlns="http://www.w3.org/2000/svg" xmlns:xlink="http://www.w3.org/1999/xlink" x="0px" y="0px" width="48px" height="48px" viewBox="0 0 48 48"><g >
<path fill="#EFD358" d="M17,8.2C17,6.433,18.343,5,20,5s3,1.433,3,3.2S20,13,20,13S17,9.967,17,8.2z"/>
<path fill="#EFD358" d="M25,8.2C25,6.433,26.343,5,28,5s3,1.433,3,3.2S28,13,28,13S25,9.967,25,8.2z"/>
<path fill="#A67C52" d="M39.202,16H8.798L3.23,24.352C1.771,26.541,1,29.089,1,31.72C1,39.043,6.958,45,14.28,45h19.44
	C41.042,45,47,39.042,47,31.718c0-2.63-0.771-5.177-2.23-7.366L39.202,16z"/>
<path fill="#EFD358" d="M41,17H7c-0.552,0-1-0.447-1-1s0.448-1,1-1h34c0.552,0,1,0.447,1,1S41.552,17,41,17z"/>
</g></svg>