<svg xmlns="http://www.w3.org/2000/svg" xmlns:xlink="http://www.w3.org/1999/xlink" x="0px" y="0px" width="48px" height="48px" viewBox="0 0 48 48"><g >
<path fill="#5A7A84" d="M45.707,25.293l-24-24C21.52,1.105,21.265,1,21,1H3C2.448,1,2,1.448,2,2v18c0,0.265,0.105,0.52,0.293,0.707
	l24,24C26.488,44.902,26.744,45,27,45s0.512-0.098,0.707-0.293l18-18C46.098,26.316,46.098,25.684,45.707,25.293z M12,14
	c-1.657,0-3-1.343-3-3s1.343-3,3-3s3,1.343,3,3S13.657,14,12,14z"/>
<path fill="#223E49" d="M12,16c-2.757,0-5-2.243-5-5s2.243-5,5-5s5,2.243,5,5S14.757,16,12,16z M12,8c-1.654,0-3,1.346-3,3
	s1.346,3,3,3s3-1.346,3-3S13.654,8,12,8z"/>
<path fill="#E6E6E6" d="M37.293,26.707l-9.586,9.586c-0.391,0.391-1.024,0.391-1.414,0L14.707,24.707
	c-0.391-0.391-0.391-1.024,0-1.414l9.586-9.586c0.391-0.391,1.024-0.391,1.414,0l11.586,11.586
	C37.683,25.683,37.683,26.317,37.293,26.707z"/>
<path fill="#B3B3B3" d="M31,27c-0.256,0-0.512-0.098-0.707-0.293l-6-6c-0.391-0.391-0.391-1.023,0-1.414s1.023-0.391,1.414,0l6,6
	c0.391,0.391,0.391,1.023,0,1.414C31.512,26.902,31.256,27,31,27z"/>
<path fill="#B3B3B3" d="M27,31c-0.256,0-0.512-0.098-0.707-0.293l-6-6c-0.391-0.391-0.391-1.023,0-1.414s1.023-0.391,1.414,0l6,6
	c0.391,0.391,0.391,1.023,0,1.414C27.512,30.902,27.256,31,27,31z"/>
<path fill="#E86C60" d="M16.25,34.664C15.234,39.49,13.434,42,12,42c-2.36,0-5-6.415-5-15s2.64-15,5-15
	c0.614,0,1.27,0.465,1.895,1.307c0.557-0.459,0.945-1.107,1.06-1.853C13.878,10.308,12.818,10,12,10c-4.547,0-7,8.759-7,17
	s2.453,17,7,17c2.529,0,4.677-2.86,5.914-7.672L16.25,34.664z"/>
</g></svg>