<svg xmlns="http://www.w3.org/2000/svg" xmlns:xlink="http://www.w3.org/1999/xlink" x="0px" y="0px" width="48px" height="48px" viewBox="0 0 48 48"><g >
<path fill="#EFD358" d="M40,47H4c-0.298,0-0.58-0.133-0.771-0.362c-0.189-0.23-0.268-0.532-0.212-0.825L7,24.906V14
	c0-0.552,0.447-1,1-1h28c0.553,0,1,0.448,1,1v10.906l3.982,20.907c0.056,0.292-0.022,0.595-0.212,0.825
	C40.58,46.867,40.298,47,40,47z"/>
<path fill="#87613E" d="M29,21c-0.553,0-1-0.448-1-1V9c0-3.309-2.691-6-6-6s-6,2.691-6,6v11c0,0.552-0.447,1-1,1s-1-0.448-1-1V9
	c0-4.411,3.589-8,8-8s8,3.589,8,8v11C30,20.552,29.553,21,29,21z"/>
<circle fill="#E86C60" cx="37" cy="33" r="8"/>
<path fill="#FFFFFF" d="M40,34h-6c-0.552,0-1-0.448-1-1v0c0-0.552,0.448-1,1-1h6c0.552,0,1,0.448,1,1v0C41,33.552,40.552,34,40,34z"/>
</g></svg>