<svg xmlns="http://www.w3.org/2000/svg" xmlns:xlink="http://www.w3.org/1999/xlink" x="0px" y="0px" width="48px" height="48px" viewBox="0 0 48 48"><g >
<path fill="#43A6DD" d="M42.78,9.375C42.59,9.138,42.304,9,42,9H8v20h30c0.469,0,0.874-0.326,0.977-0.783l4-18
	C43.042,9.921,42.97,9.611,42.78,9.375z"/>
<path fill="#B3B3B3" d="M46,35H8c-0.553,0-1-0.448-1-1V5H2C1.447,5,1,4.552,1,4s0.447-1,1-1h6c0.553,0,1,0.448,1,1v29h37
	c0.553,0,1,0.448,1,1S46.553,35,46,35z"/>
<path fill="#223E49" d="M13,37c-2.209,0-4,1.791-4,4s1.791,4,4,4s4-1.791,4-4S15.209,37,13,37z"/>
<path fill="#223E49" d="M40,37c-2.209,0-4,1.791-4,4s1.791,4,4,4s4-1.791,4-4S42.209,37,40,37z"/>
<circle fill="#FFFFFF" cx="13" cy="41" r="2"/>
<circle fill="#FFFFFF" cx="40" cy="41" r="2"/>
</g></svg>