<svg xmlns="http://www.w3.org/2000/svg" xmlns:xlink="http://www.w3.org/1999/xlink" x="0px" y="0px" width="48px" height="48px" viewBox="0 0 48 48"><g >
<path fill="#E6E6E6" d="M42.472,3.118c-0.325-0.174-0.719-0.154-1.026,0.05L36,6.798l-5.446-3.63c-0.336-0.224-0.773-0.224-1.109,0
	L24,6.798l-5.446-3.63c-0.336-0.224-0.773-0.224-1.109,0L12,6.798l-5.446-3.63c-0.308-0.206-0.703-0.224-1.026-0.05
	C5.203,3.292,5,3.631,5,4v42c0,0.552,0.448,1,1,1h36c0.552,0,1-0.448,1-1V4C43,3.631,42.797,3.292,42.472,3.118z"/>
<path fill="#B3B3B3" d="M27,21H14c-0.552,0-1-0.448-1-1s0.448-1,1-1h13c0.552,0,1,0.448,1,1S27.552,21,27,21z"/>
<path fill="#B3B3B3" d="M34,21h-2c-0.552,0-1-0.448-1-1s0.448-1,1-1h2c0.552,0,1,0.448,1,1S34.552,21,34,21z"/>
<path fill="#B3B3B3" d="M27,29H14c-0.552,0-1-0.448-1-1s0.448-1,1-1h13c0.552,0,1,0.448,1,1S27.552,29,27,29z"/>
<path fill="#B3B3B3" d="M34,29h-2c-0.552,0-1-0.448-1-1s0.448-1,1-1h2c0.552,0,1,0.448,1,1S34.552,29,34,29z"/>
<path fill="#B3B3B3" d="M27,37H14c-0.552,0-1-0.448-1-1s0.448-1,1-1h13c0.552,0,1,0.448,1,1S27.552,37,27,37z"/>
<path fill="#B3B3B3" d="M34,37h-2c-0.552,0-1-0.448-1-1s0.448-1,1-1h2c0.552,0,1,0.448,1,1S34.552,37,34,37z"/>
</g></svg>