<svg xmlns="http://www.w3.org/2000/svg" xmlns:xlink="http://www.w3.org/1999/xlink" x="0px" y="0px" width="48px" height="48px" viewBox="0 0 48 48"><g >
<path fill="#BFDEE0" d="M44,35H4c-1.657,0-3-1.343-3-3V4c0-1.657,1.343-3,3-3h40c1.657,0,3,1.343,3,3v28C47,33.657,45.657,35,44,35z
	"/>
<rect x="1" y="7" fill="#223E49" width="46" height="8"/>
<rect x="7" y="21" fill="#FFFFFF" width="19" height="4"/>
<path fill="#A68D0C" d="M38,33c-0.552,0-1-0.448-1-1v-4c0-1.654-1.346-3-3-3s-3,1.346-3,3v4c0,0.552-0.448,1-1,1s-1-0.448-1-1v-4
	c0-2.757,2.243-5,5-5s5,2.243,5,5v4C39,32.552,38.552,33,38,33z"/>
<path fill="#EFD358" d="M41,47H27c-1.105,0-2-0.895-2-2V33c0-1.105,0.895-2,2-2h14c1.105,0,2,0.895,2,2v12
	C43,46.105,42.105,47,41,47z"/>
<path fill="#A68D0C" d="M36,38c0-1.105-0.895-2-2-2c-1.105,0-2,0.895-2,2c0,0.738,0.405,1.376,1,1.723V43h2v-3.277
	C35.595,39.376,36,38.738,36,38z"/>
</g></svg>