<svg xmlns="http://www.w3.org/2000/svg" xmlns:xlink="http://www.w3.org/1999/xlink" x="0px" y="0px" width="48px" height="48px" viewBox="0 0 48 48"><g >
<path fill="#223E49" d="M15,38c-2.209,0-4,1.791-4,4s1.791,4,4,4s4-1.791,4-4S17.209,38,15,38z M15,44c-1.105,0-2-0.895-2-2
	s0.895-2,2-2s2,0.895,2,2S16.105,44,15,44z"/>
<path fill="#223E49" d="M39,38c-2.209,0-4,1.791-4,4s1.791,4,4,4s4-1.791,4-4S41.209,38,39,38z M39,44c-1.105,0-2-0.895-2-2
	s0.895-2,2-2s2,0.895,2,2S40.105,44,39,44z"/>
<path fill="#B3B3B3" d="M45.771,13.362C45.581,13.133,45.298,13,45,13H10.022L8.9,6.821C8.814,6.346,8.4,6,7.917,6H3
	C2.448,6,2,6.448,2,7s0.448,1,1,1h4.082l4.935,27.179C12.103,35.654,12.517,36,13,36h28c0.48,0,0.893-0.341,0.982-0.813l4-21
	C46.038,13.895,45.96,13.592,45.771,13.362z M42.839,20h-6.406l0.476-5h6.882L42.839,20z M11.656,22h6.101l0.476,5h-5.669L11.656,22
	z M28,22h6.233l-0.476,5H28V22z M19.576,20L19.1,15H26v5H19.576z M26,22v5h-5.757l-0.476-5H26z M20.433,29H26v5h-5.091L20.433,29z
	 M28,29h5.567l-0.476,5H28V29z M28,20v-5h6.9l-0.476,5H28z M36.243,22h6.215l-0.952,5h-5.739L36.243,22z M17.091,15l0.476,5h-6.274
	l-0.908-5H17.091z M12.927,29h5.497l0.476,5h-5.065L12.927,29z M40.172,34H35.1l0.476-5h5.549L40.172,34z"/>
<path fill="#223E49" d="M26.247,29.658C26.438,29.876,26.712,30,27,30s0.562-0.124,0.753-0.342l7-8
	c0.258-0.295,0.32-0.714,0.157-1.071C34.748,20.229,34.393,20,34,20h-5V3c0-0.552-0.448-1-1-1h-2c-0.552,0-1,0.448-1,1v17h-5
	c-0.393,0-0.748,0.229-0.91,0.587c-0.163,0.357-0.101,0.776,0.157,1.071L26.247,29.658z"/>
</g></svg>