<svg xmlns="http://www.w3.org/2000/svg" xmlns:xlink="http://www.w3.org/1999/xlink" x="0px" y="0px" width="48px" height="48px" viewBox="0 0 48 48"><g >
<path fill="#F3C7A8" d="M46.074,23.565l-19.996-1.562c-0.168-0.012-0.332,0.016-0.484,0.083l-18,8
	c-0.47,0.209-0.705,0.741-0.542,1.23l0.879,2.639c0.807,2.419,2.959,4.188,5.484,4.507C17.965,39.037,26.43,40,32,40
	c4.05,0,7.814-1.548,10.598-4.359c2.877-2.905,4.439-6.843,4.398-11.088C46.991,24.035,46.591,23.606,46.074,23.565z"/>
<path fill="#444444" d="M24,19H2c-0.552,0-1-0.448-1-1s0.448-1,1-1h22c0.552,0,1,0.448,1,1S24.552,19,24,19z"/>
<path fill="#444444" d="M18.085,14H2c-0.552,0-1-0.448-1-1s0.448-1,1-1h16.085c0.552,0,1,0.448,1,1S18.638,14,18.085,14z"/>
<path fill="#43A6DD" d="M31,7H3C1.895,7,1,7.895,1,9v20c0,1.105,0.895,2,2,2h28c1.105,0,2-0.895,2-2V9C33,7.895,32.105,7,31,7z"/>
<rect x="1" y="12" fill="#223E49" width="31" height="5"/>
<path opacity="0.1" d="M33,12.05C32.668,12.028,32.337,12,32,12H18c-0.552,0-1,0.448-1,1c0,3.309,2.691,6,6,6h3
	c0.382,3.45,3.743,6.967,7,8.365V12.05z"/>
<path fill="#F3C7A8" d="M32,10H18c-0.552,0-1,0.448-1,1c0,3.309,2.691,6,6,6h4.056c0.491,4.436,4.154,9,8.944,9
	c0.015,0,0.029,0,0.044-0.001l9.996-0.438c0.538-0.023,0.961-0.47,0.956-1.009C46.918,16.528,40.191,10,32,10z"/>
<rect x="5" y="21" fill="#FFFFFF" width="14" height="3"/>
</g></svg>