<svg xmlns="http://www.w3.org/2000/svg" xmlns:xlink="http://www.w3.org/1999/xlink" x="0px" y="0px" width="48px" height="48px" viewBox="0 0 48 48"><g >
<path fill="#43A6DD" d="M46.447,25.105l-3.589-1.794l-1.888-7.554C40.859,15.312,40.459,15,40,15H30c-0.552,0-1,0.448-1,1v16H1v1
	c0,1.105,0.895,2,2,2h43c0.552,0,1-0.448,1-1v-8C47,25.621,46.786,25.275,46.447,25.105z"/>
<polygon fill="#E6E6E6" points="40.969,24 39.219,17 33,17 33,24 "/>
<path fill="#EFD358" d="M1,9v23h30V9c0-1.105-0.895-2-2-2H3C1.895,7,1,7.895,1,9z"/>
<path fill="#444444" d="M37,42c-3.309,0-6-2.691-6-6s2.691-6,6-6s6,2.691,6,6S40.309,42,37,42z"/>
<path fill="#E6E6E6" d="M37,39c-1.654,0-3-1.346-3-3s1.346-3,3-3s3,1.346,3,3S38.654,39,37,39z"/>
<path fill="#444444" d="M10,42c-3.309,0-6-2.691-6-6s2.691-6,6-6s6,2.691,6,6S13.309,42,10,42z"/>
<path fill="#E6E6E6" d="M10,39c-1.654,0-3-1.346-3-3s1.346-3,3-3s3,1.346,3,3S11.654,39,10,39z"/>
<path fill="#EFD358" d="M47,33h-1c-0.552,0-1-0.448-1-1v-2c0-0.552,0.448-1,1-1h1V33z"/>
</g></svg>