<svg xmlns="http://www.w3.org/2000/svg" xmlns:xlink="http://www.w3.org/1999/xlink" x="0px" y="0px" width="48px" height="48px" viewBox="0 0 48 48"><g >
<path fill="#43A6DD" d="M43.78,10.375C43.59,10.138,43.304,10,43,10H9v20h30c0.469,0,0.874-0.326,0.977-0.783l4-18
	C44.042,10.921,43.97,10.611,43.78,10.375z"/>
<path fill="#B3B3B3" d="M47,36H9c-0.553,0-1-0.448-1-1V6H3C2.447,6,2,5.552,2,5s0.447-1,1-1h6c0.553,0,1,0.448,1,1v29h37
	c0.553,0,1,0.448,1,1S47.553,36,47,36z"/>
<path fill="#223E49" d="M32.707,16.293c-0.391-0.391-1.023-0.391-1.414,0L27,20.586V3c0-0.552-0.447-1-1-1s-1,0.448-1,1v17.586
	l-4.293-4.293c-0.391-0.391-1.023-0.391-1.414,0s-0.391,1.023,0,1.414l5.999,5.999c0.389,0.39,1.025,0.392,1.416,0l5.999-5.999
	C33.098,17.316,33.098,16.684,32.707,16.293z"/>
<path fill="#223E49" d="M14,38c-2.209,0-4,1.791-4,4s1.791,4,4,4s4-1.791,4-4S16.209,38,14,38z"/>
<path fill="#223E49" d="M41,38c-2.209,0-4,1.791-4,4s1.791,4,4,4s4-1.791,4-4S43.209,38,41,38z"/>
<circle fill="#FFFFFF" cx="14" cy="42" r="2"/>
<circle fill="#FFFFFF" cx="41" cy="42" r="2"/>
</g></svg>