<svg xmlns="http://www.w3.org/2000/svg" xmlns:xlink="http://www.w3.org/1999/xlink" x="0px" y="0px" width="48px" height="48px" viewBox="0 0 48 48"><g >
<path fill="#444444" d="M38,1H5C3.343,1,2,2.343,2,4v40c0,1.657,1.343,3,3,3h33c1.657,0,3-1.343,3-3V4C41,2.343,39.657,1,38,1z"/>
<path fill="#191919" d="M30,6H8C7.448,6,7,6.448,7,7v13c0,0.552,0.448,1,1,1h22c0.552,0,1-0.448,1-1V7C31,6.448,30.552,6,30,6z"/>
<path fill="#686868" d="M12,24H8c-0.552,0-1,0.448-1,1v2c0,0.552,0.448,1,1,1h4c0.552,0,1-0.448,1-1v-2C13,24.448,12.552,24,12,24z"/>
<path fill="#686868" d="M30,24h-4c-0.552,0-1,0.448-1,1v2c0,0.552,0.448,1,1,1h4c0.552,0,1-0.448,1-1v-2C31,24.448,30.552,24,30,24z
	"/>
<path fill="#686868" d="M21,24h-4c-0.552,0-1,0.448-1,1v2c0,0.552,0.448,1,1,1h4c0.552,0,1-0.448,1-1v-2C22,24.448,21.552,24,21,24z
	"/>
<path fill="#686868" d="M12,31H8c-0.552,0-1,0.448-1,1v2c0,0.552,0.448,1,1,1h4c0.552,0,1-0.448,1-1v-2C13,31.448,12.552,31,12,31z"/>
<path fill="#686868" d="M30,31h-4c-0.552,0-1,0.448-1,1v2c0,0.552,0.448,1,1,1h4c0.552,0,1-0.448,1-1v-2C31,31.448,30.552,31,30,31z
	"/>
<path fill="#686868" d="M21,31h-4c-0.552,0-1,0.448-1,1v2c0,0.552,0.448,1,1,1h4c0.552,0,1-0.448,1-1v-2C22,31.448,21.552,31,21,31z
	"/>
<path fill="#E86C60" d="M12,38H8c-0.552,0-1,0.448-1,1v0c0,1.657,1.343,3,3,3h2c0.552,0,1-0.448,1-1v-2C13,38.448,12.552,38,12,38z"/>
<path fill="#72C472" d="M30,38h-4c-0.552,0-1,0.448-1,1v2c0,0.552,0.448,1,1,1h2c1.657,0,3-1.343,3-3v0C31,38.448,30.552,38,30,38z"/>
<path fill="#EFD358" d="M21,38h-4c-0.552,0-1,0.448-1,1v2c0,0.552,0.448,1,1,1h4c0.552,0,1-0.448,1-1v-2C22,38.448,21.552,38,21,38z
	"/>
<rect x="36" y="1" fill="#191919" width="2" height="46"/>
<rect x="9" y="8" fill="#72C472" width="20" height="11"/>
</g></svg>