<svg xmlns="http://www.w3.org/2000/svg" xmlns:xlink="http://www.w3.org/1999/xlink" x="0px" y="0px" width="48px" height="48px" viewBox="0 0 48 48"><g >
<path fill="#E6E6E6" d="M42,47H6c-0.552,0-1-0.448-1-1V4c0-0.369,0.203-0.708,0.528-0.882c0.324-0.174,0.719-0.156,1.026,0.05
	L12,6.798l5.444-3.63c0.336-0.224,0.773-0.224,1.109,0L24,6.798l5.445-3.63c0.336-0.224,0.773-0.224,1.109,0L36,6.798l5.445-3.63
	c0.307-0.204,0.702-0.224,1.026-0.05C42.797,3.292,43,3.631,43,4v42C43,46.552,42.552,47,42,47z"/>
<path fill="#72C472" d="M25,26.223V18c2.243,0,4,1.757,4,4c0,0.552,0.448,1,1,1s1-0.448,1-1c0-3.364-2.636-6-6-6v-1
	c0-0.552-0.448-1-1-1s-1,0.448-1,1v1c-3.364,0-6,2.636-6,6c0,3.928,3.154,5.039,6,5.777V36c-2.243,0-4-1.757-4-4
	c0-0.552-0.448-1-1-1s-1,0.448-1,1c0,3.364,2.636,6,6,6v1c0,0.552,0.448,1,1,1s1-0.448,1-1v-1c3.364,0,6-2.636,6-6
	C31,28.072,27.846,26.961,25,26.223z M19,22c0-2.243,1.757-4,4-4v7.704C20.495,25.011,19,24.238,19,22z M25,36v-7.704
	c2.505,0.694,4,1.466,4,3.704C29,34.243,27.243,36,25,36z"/>
</g></svg>