<svg xmlns="http://www.w3.org/2000/svg" xmlns:xlink="http://www.w3.org/1999/xlink" x="0px" y="0px" width="48px" height="48px" viewBox="0 0 48 48"><g >
<path fill="#335262" d="M42,20H6c-0.552,0-1,0.448-1,1v24c0,1.105,0.895,2,2,2h34c1.105,0,2-0.895,2-2V21C43,20.448,42.552,20,42,20
	z"/>
<path fill="#5A7A84" d="M45,15H3c-1.105,0-2,0.895-2,2v4c0,1.105,0.895,2,2,2h42c1.105,0,2-0.895,2-2v-4C47,15.895,46.105,15,45,15z
	"/>
<path fill="#223E49" d="M24,42c-0.553,0-1-0.448-1-1V29c0-0.552,0.447-1,1-1s1,0.448,1,1v12C25,41.552,24.553,42,24,42z"/>
<path fill="#223E49" d="M16,42c-0.553,0-1-0.448-1-1V29c0-0.552,0.447-1,1-1s1,0.448,1,1v12C17,41.552,16.553,42,16,42z"/>
<path fill="#223E49" d="M32,42c-0.553,0-1-0.448-1-1V29c0-0.552,0.447-1,1-1s1,0.448,1,1v12C33,41.552,32.553,42,32,42z"/>
<path fill="#444444" d="M9.999,20c-0.15,0-0.303-0.034-0.446-0.105c-0.494-0.247-0.694-0.848-0.447-1.342l8-16
	c0.247-0.494,0.848-0.695,1.342-0.447c0.494,0.247,0.694,0.848,0.447,1.342l-8,16C10.719,19.798,10.366,20,9.999,20z"/>
<path fill="#444444" d="M38.001,20c-0.367,0-0.72-0.202-0.896-0.553l-8-16c-0.247-0.494-0.047-1.095,0.447-1.342
	c0.494-0.248,1.094-0.046,1.342,0.447l8,16c0.247,0.494,0.047,1.095-0.447,1.342C38.304,19.966,38.151,20,38.001,20z"/>
</g></svg>