<svg xmlns="http://www.w3.org/2000/svg" xmlns:xlink="http://www.w3.org/1999/xlink" x="0px" y="0px" width="48px" height="48px" viewBox="0 0 48 48"><g >
<path fill="#43A6DD" d="M46.316,21.052l-5.525-1.843L36.948,7.684C36.812,7.275,36.431,7,36,7H18c-0.553,0-1,0.447-1,1v26
	c0,0.553,0.447,1,1,1h28c0.553,0,1-0.447,1-1V22C47,21.569,46.725,21.188,46.316,21.052z"/>
<path fill="#444444" d="M31,42c-3.86,0-7-3.14-7-7s3.14-7,7-7s7,3.14,7,7S34.86,42,31,42z"/>
<path fill="#E6E6E6" d="M31,39c-2.206,0-4-1.794-4-4s1.794-4,4-4s4,1.794,4,4S33.206,39,31,39z"/>
<path fill="#444444" d="M13,9H2C1.447,9,1,8.553,1,8s0.447-1,1-1h11c0.553,0,1,0.447,1,1S13.553,9,13,9z"/>
<path fill="#444444" d="M13,17H6c-0.553,0-1-0.447-1-1s0.447-1,1-1h7c0.553,0,1,0.447,1,1S13.553,17,13,17z"/>
<path fill="#444444" d="M13,25h-3c-0.553,0-1-0.447-1-1s0.447-1,1-1h3c0.553,0,1,0.447,1,1S13.553,25,13,25z"/>
<polygon fill="#E6E6E6" points="34,10 37,20 21,20 21,10 "/>
<path fill="#EFD358" d="M47,32h-2c-0.552,0-1-0.448-1-1v-4c0-0.552,0.448-1,1-1h2V32z"/>
</g></svg>