<svg xmlns="http://www.w3.org/2000/svg" xmlns:xlink="http://www.w3.org/1999/xlink" x="0px" y="0px" width="48px" height="48px" viewBox="0 0 48 48"><g >
<path fill="#EA9860" d="M44.707,25.293l-24-24C20.52,1.105,20.265,1,20,1H2C1.448,1,1,1.448,1,2v18c0,0.265,0.105,0.52,0.293,0.707
	l24,24C25.488,44.902,25.744,45,26,45s0.512-0.098,0.707-0.293l18-18C45.098,26.316,45.098,25.684,44.707,25.293z M11,14
	c-1.657,0-3-1.343-3-3s1.343-3,3-3s3,1.343,3,3S12.657,14,11,14z"/>
<path fill="#D37F46" d="M11,16c-2.757,0-5-2.243-5-5s2.243-5,5-5s5,2.243,5,5S13.757,16,11,16z M11,8c-1.654,0-3,1.346-3,3
	s1.346,3,3,3s3-1.346,3-3S12.654,8,11,8z"/>
<path fill="#E6E6E6" d="M36.293,26.707l-9.586,9.586c-0.391,0.391-1.024,0.391-1.414,0L13.707,24.707
	c-0.391-0.391-0.391-1.024,0-1.414l9.586-9.586c0.391-0.391,1.024-0.391,1.414,0l11.586,11.586
	C36.683,25.683,36.683,26.317,36.293,26.707z"/>
<path fill="#B3B3B3" d="M30,27c-0.256,0-0.512-0.098-0.707-0.293l-6-6c-0.391-0.391-0.391-1.023,0-1.414s1.023-0.391,1.414,0l6,6
	c0.391,0.391,0.391,1.023,0,1.414C30.512,26.902,30.256,27,30,27z"/>
<path fill="#B3B3B3" d="M26,31c-0.256,0-0.512-0.098-0.707-0.293l-6-6c-0.391-0.391-0.391-1.023,0-1.414s1.023-0.391,1.414,0l6,6
	c0.391,0.391,0.391,1.023,0,1.414C26.512,30.902,26.256,31,26,31z"/>
</g></svg>