<svg xmlns="http://www.w3.org/2000/svg" xmlns:xlink="http://www.w3.org/1999/xlink" x="0px" y="0px" width="48px" height="48px" viewBox="0 0 48 48"><g >
<path fill="#223E49" d="M14,37c-2.209,0-4,1.791-4,4s1.791,4,4,4s4-1.791,4-4S16.209,37,14,37z M14,43c-1.105,0-2-0.895-2-2
	s0.895-2,2-2s2,0.895,2,2S15.105,43,14,43z"/>
<path fill="#223E49" d="M38,37c-2.209,0-4,1.791-4,4s1.791,4,4,4s4-1.791,4-4S40.209,37,38,37z M38,43c-1.105,0-2-0.895-2-2
	s0.895-2,2-2s2,0.895,2,2S39.105,43,38,43z"/>
<path fill="#B3B3B3" d="M44.771,12.362C44.581,12.133,44.298,12,44,12H9.022L7.9,5.821C7.814,5.346,7.4,5,6.917,5H2
	C1.448,5,1,5.448,1,6s0.448,1,1,1h4.082l4.935,27.179C11.103,34.654,11.517,35,12,35h28c0.48,0,0.893-0.341,0.982-0.813l4-21
	C45.038,12.895,44.96,12.592,44.771,12.362z M41.839,19h-6.406l0.476-5h6.882L41.839,19z M10.656,21h6.101l0.476,5h-5.669L10.656,21
	z M27,21h6.233l-0.476,5H27V21z M18.576,19L18.1,14H25v5H18.576z M25,21v5h-5.757l-0.476-5H25z M19.433,28H25v5h-5.091L19.433,28z
	 M27,28h5.567l-0.476,5H27V28z M27,19v-5h6.9l-0.476,5H27z M35.243,21h6.215l-0.952,5h-5.739L35.243,21z M16.091,14l0.476,5h-6.274
	l-0.908-5H16.091z M11.927,28h5.497l0.476,5h-5.065L11.927,28z M39.172,33H34.1l0.476-5h5.549L39.172,33z"/>
<circle fill="#E86C60" cx="39" cy="14" r="8"/>
<path fill="#FFFFFF" d="M42,15h-6c-0.552,0-1-0.448-1-1v0c0-0.552,0.448-1,1-1h6c0.552,0,1,0.448,1,1v0C43,14.552,42.552,15,42,15z"/>
</g></svg>