<svg xmlns="http://www.w3.org/2000/svg" xmlns:xlink="http://www.w3.org/1999/xlink" x="0px" y="0px" width="48px" height="48px" viewBox="0 0 48 48"><g >
<path fill="#EFD358" d="M44.707,25.293l-24-24C20.52,1.105,20.265,1,20,1H2C1.448,1,1,1.448,1,2v18c0,0.265,0.105,0.52,0.293,0.707
	l24,24C25.488,44.902,25.744,45,26,45s0.512-0.098,0.707-0.293l18-18C45.098,26.316,45.098,25.684,44.707,25.293z M11,14
	c-1.657,0-3-1.343-3-3s1.343-3,3-3s3,1.343,3,3S12.657,14,11,14z"/>
<path fill="#D1B43D" d="M11,16c-2.757,0-5-2.243-5-5s2.243-5,5-5s5,2.243,5,5S13.757,16,11,16z M11,8c-1.654,0-3,1.346-3,3
	s1.346,3,3,3s3-1.346,3-3S12.654,8,11,8z"/>
</g></svg>