<svg xmlns="http://www.w3.org/2000/svg" xmlns:xlink="http://www.w3.org/1999/xlink" x="0px" y="0px" width="48px" height="48px" viewBox="0 0 48 48"><g >
<path fill="#D1B43D" d="M43.65,7.241L37,1H11L4.35,7.241C4.031,7.513,3.917,7.955,4.062,8.347C4.207,8.739,4.581,9,5,9h38
	c0.419,0,0.793-0.261,0.937-0.653C44.083,7.955,43.969,7.513,43.65,7.241z"/>
<rect x="11" y="1" fill="#BCA02A" width="26" height="13"/>
<path fill="#EFD358" d="M43,7H5C4.448,7,4,7.448,4,8v37c0,1.105,0.895,2,2,2h36c1.105,0,2-0.895,2-2V8C44,7.448,43.552,7,43,7z"/>
<path fill="#FFFFFF" d="M24,29c-4.963,0-9-4.038-9-9v-3c0-0.552,0.447-1,1-1s1,0.448,1,1v3c0,3.86,3.141,7,7,7s7-3.14,7-7v-3
	c0-0.552,0.447-1,1-1s1,0.448,1,1v3C33,24.962,28.963,29,24,29z"/>
</g></svg>