<svg xmlns="http://www.w3.org/2000/svg" xmlns:xlink="http://www.w3.org/1999/xlink" x="0px" y="0px" width="48px" height="48px" viewBox="0 0 48 48"><g >
<path fill="#EFD358" d="M44.707,25.293l-24-24C20.52,1.105,20.265,1,20,1H2C1.448,1,1,1.448,1,2v18c0,0.265,0.105,0.52,0.293,0.707
	l24,24C25.488,44.902,25.744,45,26,45s0.512-0.098,0.707-0.293l18-18C45.098,26.316,45.098,25.684,44.707,25.293z M11,14
	c-1.657,0-3-1.343-3-3s1.343-3,3-3s3,1.343,3,3S12.657,14,11,14z"/>
<path fill="#D1B43D" d="M11,16c-2.757,0-5-2.243-5-5s2.243-5,5-5s5,2.243,5,5S13.757,16,11,16z M11,8c-1.654,0-3,1.346-3,3
	s1.346,3,3,3s3-1.346,3-3S12.654,8,11,8z"/>
<circle fill="#FFFFFF" cx="36" cy="24" r="10"/>
<path fill="#43A6DD" d="M36,35c-6.065,0-11-4.935-11-11s4.935-11,11-11s11,4.935,11,11S42.065,35,36,35z M36,15
	c-4.962,0-9,4.038-9,9s4.038,9,9,9s9-4.038,9-9S40.962,15,36,15z"/>
<path fill="#444444" d="M40,25h-4c-0.552,0-1-0.448-1-1v-4c0-0.552,0.448-1,1-1s1,0.448,1,1v3h3c0.552,0,1,0.448,1,1
	S40.552,25,40,25z"/>
</g></svg>