<svg xmlns="http://www.w3.org/2000/svg" xmlns:xlink="http://www.w3.org/1999/xlink" x="0px" y="0px" width="48px" height="48px" viewBox="0 0 48 48"><g >
<path fill="#444444" d="M28,3H4C2.343,3,1,4.343,1,6v38c0,1.657,1.343,3,3,3h24c1.657,0,3-1.343,3-3V6C31,4.343,29.657,3,28,3z"/>
<circle fill="#686868" cx="16" cy="42" r="2"/>
<path fill="#686868" d="M27,37H5c-0.552,0-1-0.448-1-1V9c0-0.552,0.448-1,1-1h22c0.552,0,1,0.448,1,1v27C28,36.552,27.552,37,27,37z
	"/>
<path fill="#43A6DD" d="M45,1H21c-1.105,0-2,0.895-2,2v16c0,1.105,0.895,2,2,2h24c1.105,0,2-0.895,2-2V3C47,1.895,46.105,1,45,1z"/>
<rect x="19" y="5" fill="#223E49" width="28" height="5"/>
<rect x="22" y="13" fill="#FFFFFF" width="11" height="3"/>
</g></svg>