<svg xmlns="http://www.w3.org/2000/svg" xmlns:xlink="http://www.w3.org/1999/xlink" x="0px" y="0px" width="48px" height="48px" viewBox="0 0 48 48"><g >
<path fill="#EFD358" d="M34.087,36.575L20.885,11.533C20.711,11.205,20.371,11,20,11c-9.374,0-17,7.626-17,17s7.626,17,17,17
	c5.607,0,10.851-2.764,14.027-7.393C34.237,37.302,34.26,36.904,34.087,36.575z"/>
<path fill="#E86C60" d="M20,3c-0.552,0-1,0.447-1,1v24c0,0.329,0.162,0.638,0.434,0.824l19.771,13.593
	c0.173,0.119,0.37,0.176,0.565,0.176c0.318,0,0.63-0.151,0.825-0.433C43.477,37.977,45,33.08,45,28C45,14.215,33.785,3,20,3z"/>
</g></svg>