<svg xmlns="http://www.w3.org/2000/svg" xmlns:xlink="http://www.w3.org/1999/xlink" x="0px" y="0px" width="48px" height="48px" viewBox="0 0 48 48"><g >
<path fill="#B3B3B3" d="M27,39c-0.27,0-0.528-0.109-0.717-0.303L6.975,18.843l-3.315,2.909c-0.413,0.362-1.045,0.323-1.411-0.093
	c-0.364-0.415-0.322-1.047,0.093-1.411l4.029-3.535c0.4-0.352,1.005-0.328,1.376,0.055l19.243,19.787l16.284-17.241
	c0.378-0.4,1.011-0.42,1.413-0.04c0.401,0.379,0.42,1.012,0.04,1.413l-17,18c-0.187,0.198-0.446,0.312-0.72,0.313
	C27.005,39,27.002,39,27,39z"/>
<path fill="#C19F85" d="M27.22,31.218c-0.264,0-0.517-0.104-0.703-0.289L14.226,18.761c-0.189-0.188-0.296-0.442-0.297-0.709
	c-0.001-0.266,0.105-0.521,0.294-0.71l13.071-13.05c0.389-0.389,1.022-0.39,1.413,0.001l12,12c0.386,0.386,0.392,1.01,0.012,1.402
	l-12.78,13.218c-0.186,0.192-0.44,0.302-0.708,0.305C27.227,31.218,27.224,31.218,27.22,31.218z"/>
<path fill="#444444" d="M27,34c-2.209,0-4,1.791-4,4s1.791,4,4,4s4-1.791,4-4S29.209,34,27,34z"/>
<circle fill="#FFFFFF" cx="27" cy="38" r="2"/>
</g></svg>