<svg xmlns="http://www.w3.org/2000/svg" xmlns:xlink="http://www.w3.org/1999/xlink" x="0px" y="0px" width="48px" height="48px" viewBox="0 0 48 48"><g >
<path fill="#43A6DD" d="M46.447,29.105l-3.589-1.794l-1.888-7.554C40.859,19.312,40.459,19,40,19H30c-0.552,0-1,0.448-1,1v16H1v1
	c0,1.105,0.895,2,2,2h43c0.552,0,1-0.448,1-1v-8C47,29.621,46.786,29.275,46.447,29.105z"/>
<polygon fill="#E6E6E6" points="40.969,28 39.219,21 33,21 33,28 "/>
<path fill="#EFD358" d="M1,13v23h30V13c0-1.105-0.895-2-2-2H3C1.895,11,1,11.895,1,13z"/>
<path fill="#444444" d="M37,46c-3.309,0-6-2.691-6-6s2.691-6,6-6s6,2.691,6,6S40.309,46,37,46z"/>
<path fill="#E6E6E6" d="M37,43c-1.654,0-3-1.346-3-3s1.346-3,3-3s3,1.346,3,3S38.654,43,37,43z"/>
<path fill="#444444" d="M10,46c-3.309,0-6-2.691-6-6s2.691-6,6-6s6,2.691,6,6S13.309,46,10,46z"/>
<path fill="#E6E6E6" d="M10,43c-1.654,0-3-1.346-3-3s1.346-3,3-3s3,1.346,3,3S11.654,43,10,43z"/>
<circle fill="#BFDEE0" cx="18" cy="10" r="7"/>
<path fill="#223E49" d="M7,22c-0.256,0-0.512-0.098-0.707-0.293c-0.391-0.391-0.391-1.023,0-1.414l6-6
	c0.391-0.391,1.023-0.391,1.414,0s0.391,1.023,0,1.414l-6,6C7.512,21.902,7.256,22,7,22z"/>
<path fill="#5A7A84" d="M18,18c-4.411,0-8-3.589-8-8s3.589-8,8-8s8,3.589,8,8S22.411,18,18,18z M18,4c-3.309,0-6,2.691-6,6
	s2.691,6,6,6s6-2.691,6-6S21.309,4,18,4z"/>
<path fill="#EFD358" d="M47,37h-1c-0.552,0-1-0.448-1-1v-2c0-0.552,0.448-1,1-1h1V37z"/>
</g></svg>