<svg xmlns="http://www.w3.org/2000/svg" xmlns:xlink="http://www.w3.org/1999/xlink" x="0px" y="0px" width="48px" height="48px" viewBox="0 0 48 48"><g >
<path fill="#E6E6E6" d="M40,19H8c-0.552,0-1,0.448-1,1v25c0,1.105,0.895,2,2,2h30c1.105,0,2-0.895,2-2V20C41,19.448,40.552,19,40,19
	z"/>
<path fill="#E86C60" d="M44.895,17.553l-8-16C36.725,1.214,36.379,1,36,1H12c-0.379,0-0.725,0.214-0.895,0.553l-8,16
	C3.036,17.691,3,17.845,3,18c0,4.835,3.014,7,6,7c2.11,0,3.934-1.037,5-2.64c1.066,1.603,2.89,2.64,5,2.64s3.934-1.037,5-2.64
	c1.066,1.603,2.89,2.64,5,2.64s3.934-1.037,5-2.64c1.066,1.603,2.89,2.64,5,2.64c2.986,0,6-2.165,6-7
	C45,17.845,44.964,17.691,44.895,17.553z"/>
<path fill="#C94F49" d="M9,25c2.11,0,3.934-1.037,5-2.64c1.066,1.603,2.89,2.64,5,2.64s3.934-1.037,5-2.64
	c1.066,1.603,2.89,2.64,5,2.64s3.934-1.037,5-2.64c1.066,1.603,2.89,2.64,5,2.64c2.986,0,6-2.165,6-7H3C3,22.835,6.014,25,9,25z"/>
<path fill="#A67C52" d="M27,37h-6c-0.552,0-1,0.448-1,1v9h8v-9C28,37.448,27.552,37,27,37z"/>
<path fill="#43A6DD" d="M27,34h-6c-0.552,0-1-0.448-1-1v-4c0-0.552,0.448-1,1-1h6c0.552,0,1,0.448,1,1v4C28,33.552,27.552,34,27,34z
	"/>
</g></svg>