<svg xmlns="http://www.w3.org/2000/svg" xmlns:xlink="http://www.w3.org/1999/xlink" x="0px" y="0px" width="48px" height="48px" viewBox="0 0 48 48"><g >
<path fill="#43A6DD" d="M46.447,29.105l-3.589-1.794l-1.888-7.554C40.859,19.312,40.459,19,40,19H30c-0.552,0-1,0.448-1,1v16H1v1
	c0,1.105,0.895,2,2,2h43c0.552,0,1-0.448,1-1v-8C47,29.621,46.786,29.275,46.447,29.105z"/>
<polygon fill="#E6E6E6" points="40.969,28 39.219,21 33,21 33,28 "/>
<path fill="#EFD358" d="M1,13v23h30V13c0-1.105-0.895-2-2-2H3C1.895,11,1,11.895,1,13z"/>
<path fill="#444444" d="M37,46c-3.309,0-6-2.691-6-6s2.691-6,6-6s6,2.691,6,6S40.309,46,37,46z"/>
<path fill="#E6E6E6" d="M37,43c-1.654,0-3-1.346-3-3s1.346-3,3-3s3,1.346,3,3S38.654,43,37,43z"/>
<path fill="#444444" d="M10,46c-3.309,0-6-2.691-6-6s2.691-6,6-6s6,2.691,6,6S13.309,46,10,46z"/>
<path fill="#E6E6E6" d="M10,43c-1.654,0-3-1.346-3-3s1.346-3,3-3s3,1.346,3,3S11.654,43,10,43z"/>
<circle fill="#FFFFFF" cx="15" cy="13" r="10"/>
<path fill="#43A6DD" d="M15,24C8.935,24,4,19.065,4,13S8.935,2,15,2s11,4.935,11,11S21.065,24,15,24z M15,4c-4.963,0-9,4.037-9,9
	s4.037,9,9,9s9-4.037,9-9S19.963,4,15,4z"/>
<path fill="#444444" d="M19,14h-4c-0.553,0-1-0.447-1-1V9c0-0.553,0.447-1,1-1s1,0.447,1,1v3h3c0.553,0,1,0.447,1,1S19.553,14,19,14
	z"/>
<path fill="#EFD358" d="M47,37h-1c-0.552,0-1-0.448-1-1v-2c0-0.552,0.448-1,1-1h1V37z"/>
</g></svg>