<svg xmlns="http://www.w3.org/2000/svg" xmlns:xlink="http://www.w3.org/1999/xlink" x="0px" y="0px" width="48px" height="48px" viewBox="0 0 48 48"><g >
<path fill="#C19F85" d="M45.707,25.293l-23-23C22.52,2.105,22.266,2,22,2H8C7.734,2,7.48,2.105,7.293,2.293l-5,5
	C2.105,7.48,2,7.735,2,8v14c0,0.265,0.105,0.52,0.293,0.707l23,23C25.488,45.902,25.744,46,26,46s0.512-0.098,0.707-0.293l19-19
	C46.098,26.316,46.098,25.684,45.707,25.293z M13,16c-1.657,0-3-1.343-3-3s1.343-3,3-3s3,1.343,3,3S14.657,16,13,16z"/>
<path fill="#A67C52" d="M13,18c-2.757,0-5-2.243-5-5s2.243-5,5-5s5,2.243,5,5S15.757,18,13,18z M13,10c-1.654,0-3,1.346-3,3
	s1.346,3,3,3s3-1.346,3-3S14.654,10,13,10z"/>
</g></svg>