<svg xmlns="http://www.w3.org/2000/svg" xmlns:xlink="http://www.w3.org/1999/xlink" x="0px" y="0px" width="48px" height="48px" viewBox="0 0 48 48"><g >
<path fill="#B3B3B3" d="M43,36H8c-0.356,0-0.686-0.19-0.865-0.498c-0.179-0.308-0.18-0.688-0.003-0.998l4-7
	c0.272-0.48,0.884-0.646,1.364-0.372c0.479,0.274,0.646,0.885,0.372,1.364L9.724,34H43c0.553,0,1,0.448,1,1S43.553,36,43,36z"/>
<path fill="#B3B3B3" d="M10.001,11c-0.367,0-0.72-0.202-0.896-0.553L7.324,6.885L2.804,5.98C2.263,5.872,1.911,5.345,2.02,4.804
	C2.127,4.262,2.656,3.913,3.196,4.02l5,1C8.499,5.08,8.757,5.277,8.895,5.553l2,4c0.247,0.494,0.047,1.095-0.447,1.342
	C10.304,10.966,10.151,11,10.001,11z"/>
<path fill="#223E49" d="M12,38c-2.209,0-4,1.791-4,4s1.791,4,4,4s4-1.791,4-4S14.209,38,12,38z"/>
<path fill="#223E49" d="M39,38c-2.209,0-4,1.791-4,4s1.791,4,4,4s4-1.791,4-4S41.209,38,39,38z"/>
<circle fill="#FFFFFF" cx="12" cy="42" r="2"/>
<circle fill="#FFFFFF" cx="39" cy="42" r="2"/>
<path fill="#5A7A84" d="M41,29H12c-0.51,0-0.938-0.383-0.994-0.89l-2-18c-0.033-0.298,0.069-0.595,0.279-0.81
	c0.209-0.214,0.508-0.322,0.803-0.297l34,3c0.283,0.025,0.542,0.169,0.713,0.397c0.17,0.227,0.235,0.517,0.18,0.795l-3,15
	C41.887,28.664,41.477,29,41,29z"/>
</g></svg>