<svg xmlns="http://www.w3.org/2000/svg" xmlns:xlink="http://www.w3.org/1999/xlink" x="0px" y="0px" width="48px" height="48px" viewBox="0 0 48 48"><g >
<polygon fill="#EFD358" points="32,22 32,47 24,42 16,47 16,22 "/>
<path fill="#E86C60" d="M24,31c-0.256,0-0.512-0.098-0.707-0.293L19.586,27H14c-0.553,0-1-0.447-1-1v-5.586l-3.707-3.707
	c-0.391-0.391-0.391-1.023,0-1.414L13,11.586V6c0-0.553,0.447-1,1-1h5.586l3.707-3.707c0.391-0.391,1.023-0.391,1.414,0L28.414,5H34
	c0.553,0,1,0.447,1,1v5.586l3.707,3.707c0.391,0.391,0.391,1.023,0,1.414L35,20.414V26c0,0.553-0.447,1-1,1h-5.586l-3.707,3.707
	C24.512,30.902,24.256,31,24,31z M14,12h0.01H14z"/>
<circle fill="#AA3333" cx="24" cy="16" r="6"/>
</g></svg>