<?xml version="1.0" encoding="utf-8"?>
<!-- Generator: Adobe Illustrator 19.1.0, SVG Export Plug-In . SVG Version: 6.00 Build 0)  -->
<!DOCTYPE svg PUBLIC "-//W3C//DTD SVG 1.1//EN" "http://www.w3.org/Graphics/SVG/1.1/DTD/svg11.dtd">
<svg version="1.1" id="Layer_1" xmlns="http://www.w3.org/2000/svg" xmlns:xlink="http://www.w3.org/1999/xlink" x="0px" y="0px"
	 width="64px" height="64px" viewBox="0 0 64 64" enable-background="new 0 0 64 64" xml:space="preserve">
<path d="M32,15c-9.4,0-17,7.6-17,17s7.6,17,17,17s17-7.6,17-17S41.4,15,32,15z M32,47c-8.3,0-15-6.7-15-15s6.7-15,15-15
	s15,6.7,15,15S40.3,47,32,47z"/>
<path d="M32,27c-2.8,0-5,2.2-5,5s2.2,5,5,5s5-2.2,5-5S34.8,27,32,27z"/>
<path d="M59.1,21.7C60.4,25,61,28.4,61,32c0,16-13,29-29,29S3,48,3,32S16,3,32,3c4.5,0,8.8,1,12.8,3c0.4-0.6,0.8-1.1,1.3-1.6
	C41.7,2.2,36.9,1,32,1C14.9,1,1,14.9,1,32s13.9,31,31,31s31-13.9,31-31c0-4-0.7-7.8-2.2-11.4C60.3,21,59.7,21.4,59.1,21.7z"/>
<path d="M54,21c5,0,9-4,9-9s-4-9-9-9s-9,4-9,9S49,21,54,21z"/>
</svg>
