<?xml version="1.0" encoding="utf-8"?>
<!-- Generator: Adobe Illustrator 19.1.0, SVG Export Plug-In . SVG Version: 6.00 Build 0)  -->
<!DOCTYPE svg PUBLIC "-//W3C//DTD SVG 1.1//EN" "http://www.w3.org/Graphics/SVG/1.1/DTD/svg11.dtd">
<svg version="1.1" id="Layer_1" xmlns="http://www.w3.org/2000/svg" xmlns:xlink="http://www.w3.org/1999/xlink" x="0px" y="0px"
	 width="64px" height="64px" viewBox="0 0 64 64" enable-background="new 0 0 64 64" xml:space="preserve">
<path d="M32,1C20.7,1,9,9.6,9,24.1C9,38,30.4,59.8,31.3,60.7c0.2,0.2,0.4,0.3,0.7,0.3s0.5-0.1,0.7-0.3C33.6,59.8,55,38,55,24.1
	C55,9.6,43.3,1,32,1z M42,25H32c-0.6,0-1-0.4-1-1V14c0-0.6,0.4-1,1-1s1,0.4,1,1v9h9c0.6,0,1,0.4,1,1S42.6,25,42,25z"/>
</svg>
