<?xml version="1.0" encoding="utf-8"?>
<!-- Generator: Adobe Illustrator 19.1.0, SVG Export Plug-In . SVG Version: 6.00 Build 0)  -->
<!DOCTYPE svg PUBLIC "-//W3C//DTD SVG 1.1//EN" "http://www.w3.org/Graphics/SVG/1.1/DTD/svg11.dtd">
<svg version="1.1" id="Layer_1" xmlns="http://www.w3.org/2000/svg" xmlns:xlink="http://www.w3.org/1999/xlink" x="0px" y="0px"
	 width="64px" height="64px" viewBox="0 0 64 64" enable-background="new 0 0 64 64" xml:space="preserve">
<path d="M47,16c0-8.3-6.7-15-15-15S17,7.7,17,16c0,7.9,6.2,14.4,14,14.9V53c0,0.6,0.4,1,1,1s1-0.4,1-1V30.9C40.8,30.4,47,23.9,47,16
	z"/>
<path d="M60.8,61.5l-10-16C50.7,45.2,50.3,45,50,45H35v2h14.4l8.8,14H5.8l8.8-14H29v-2H14c-0.3,0-0.7,0.2-0.8,0.5l-10,16
	c-0.2,0.3-0.2,0.7,0,1C3.3,62.8,3.6,63,4,63h56c0.4,0,0.7-0.2,0.9-0.5C61.1,62.2,61,61.8,60.8,61.5z"/>
</svg>
