<?xml version="1.0" encoding="utf-8"?>
<!-- Generator: Adobe Illustrator 19.1.0, SVG Export Plug-In . SVG Version: 6.00 Build 0)  -->
<!DOCTYPE svg PUBLIC "-//W3C//DTD SVG 1.1//EN" "http://www.w3.org/Graphics/SVG/1.1/DTD/svg11.dtd">
<svg version="1.1" id="Layer_1" xmlns="http://www.w3.org/2000/svg" xmlns:xlink="http://www.w3.org/1999/xlink" x="0px" y="0px"
	 width="64px" height="64px" viewBox="0 0 64 64" enable-background="new 0 0 64 64" xml:space="preserve">
<path d="M32,2c-9.4,0-17,7.6-17,17s7.6,17,17,17s17-7.6,17-17S41.4,2,32,2z"/>
<path d="M44,59h-8V37.6c-1.3,0.3-2.6,0.4-4,0.4s-2.7-0.2-4-0.4V59h-8c-0.6,0-1,0.4-1,1v1c0,0.6,0.4,1,1,1h24c0.6,0,1-0.4,1-1v-1
	C45,59.4,44.6,59,44,59z"/>
</svg>
