<?xml version="1.0" encoding="utf-8"?>
<!-- Generator: Adobe Illustrator 19.1.0, SVG Export Plug-In . SVG Version: 6.00 Build 0)  -->
<!DOCTYPE svg PUBLIC "-//W3C//DTD SVG 1.1//EN" "http://www.w3.org/Graphics/SVG/1.1/DTD/svg11.dtd">
<svg version="1.1" id="Layer_1" xmlns="http://www.w3.org/2000/svg" xmlns:xlink="http://www.w3.org/1999/xlink" x="0px" y="0px"
	 width="64px" height="64px" viewBox="0 0 64 64" enable-background="new 0 0 64 64" xml:space="preserve">
<polygon points="37.2,37.2 42.4,21.6 26.8,26.8 "/>
<path d="M32,1C14.9,1,1,14.9,1,32s13.9,31,31,31s31-13.9,31-31S49.1,1,32,1z M31,5c0-0.6,0.4-1,1-1s1,0.4,1,1v6c0,0.6-0.4,1-1,1
	s-1-0.4-1-1V5z M11,33H5c-0.6,0-1-0.4-1-1s0.4-1,1-1h6c0.6,0,1,0.4,1,1S11.6,33,11,33z M33,59c0,0.6-0.4,1-1,1s-1-0.4-1-1v-6
	c0-0.6,0.4-1,1-1s1,0.4,1,1V59z M44.9,20.3l-6,18c-0.1,0.3-0.3,0.5-0.6,0.6l-18,6C20.2,45,20.1,45,20,45c-0.3,0-0.5-0.1-0.7-0.3
	c-0.3-0.3-0.4-0.7-0.2-1l6-18c0.1-0.3,0.3-0.5,0.6-0.6l18-6c0.4-0.1,0.8,0,1,0.2C45,19.6,45.1,20,44.9,20.3z M59,33h-6
	c-0.6,0-1-0.4-1-1s0.4-1,1-1h6c0.6,0,1,0.4,1,1S59.6,33,59,33z"/>
</svg>
