<?xml version="1.0" encoding="utf-8"?>
<!-- Generator: Adobe Illustrator 19.1.0, SVG Export Plug-In . SVG Version: 6.00 Build 0)  -->
<!DOCTYPE svg PUBLIC "-//W3C//DTD SVG 1.1//EN" "http://www.w3.org/Graphics/SVG/1.1/DTD/svg11.dtd">
<svg version="1.1" id="Layer_1" xmlns="http://www.w3.org/2000/svg" xmlns:xlink="http://www.w3.org/1999/xlink" x="0px" y="0px"
	 width="64px" height="64px" viewBox="0 0 64 64" enable-background="new 0 0 64 64" xml:space="preserve">
<path d="M55,5h-5c-0.6,0-1,0.4-1,1v13H15V6c0-0.6-0.4-1-1-1H9c-4.4,0-8,3.6-8,8v37c0,5,4,9,9,9h44c5,0,9-4,9-9V13
	C63,8.6,59.4,5,55,5z M9,19c-3.3,0-6-2.7-6-6s2.7-6,6-6h4v12H9z M14,39h-2c-0.6,0-1-0.4-1-1s0.4-1,1-1h2c0.6,0,1,0.4,1,1
	S14.6,39,14,39z M24,39h-2c-0.6,0-1-0.4-1-1s0.4-1,1-1h2c0.6,0,1,0.4,1,1S24.6,39,24,39z M34,39h-2c-0.6,0-1-0.4-1-1s0.4-1,1-1h2
	c0.6,0,1,0.4,1,1S34.6,39,34,39z M50.7,41.3c0.4,0.4,0.4,1,0,1.4C50.5,42.9,50.3,43,50,43s-0.5-0.1-0.7-0.3L46,39.4l-3.3,3.3
	C42.5,42.9,42.3,43,42,43s-0.5-0.1-0.7-0.3c-0.4-0.4-0.4-1,0-1.4l3.3-3.3l-3.3-3.3c-0.4-0.4-0.4-1,0-1.4s1-0.4,1.4,0l3.3,3.3
	l3.3-3.3c0.4-0.4,1-0.4,1.4,0s0.4,1,0,1.4L47.4,38L50.7,41.3z M55,19h-4V7h4c3.3,0,6,2.7,6,6S58.3,19,55,19z"/>
</svg>
