<?xml version="1.0" encoding="utf-8"?>
<!-- Generator: Adobe Illustrator 19.1.0, SVG Export Plug-In . SVG Version: 6.00 Build 0)  -->
<!DOCTYPE svg PUBLIC "-//W3C//DTD SVG 1.1//EN" "http://www.w3.org/Graphics/SVG/1.1/DTD/svg11.dtd">
<svg version="1.1" id="Layer_1" xmlns="http://www.w3.org/2000/svg" xmlns:xlink="http://www.w3.org/1999/xlink" x="0px" y="0px"
	 width="64px" height="64px" viewBox="0 0 64 64" enable-background="new 0 0 64 64" xml:space="preserve">
<polygon points="35.2,39.2 40.4,23.6 24.8,28.8 "/>
<path d="M54,17c3.9,0,7-3.1,7-7s-3.1-7-7-7s-7,3.1-7,7c0,0.2,0,0.4,0,0.5C42.2,7.1,36.4,5,30,5C14,5,1,18,1,34s13,29,29,29
	s29-13,29-29c0-6.4-2.1-12.2-5.5-17C53.6,17,53.8,17,54,17z M49,10c0-2.8,2.2-5,5-5s5,2.2,5,5s-2.2,5-5,5c-1.2,0-2.4-0.5-3.3-1.2
	c-0.2-0.2-0.3-0.3-0.5-0.5C49.5,12.4,49,11.2,49,10z M42.9,22.3l-6,18c-0.1,0.3-0.3,0.5-0.6,0.6l-18,6C18.2,47,18.1,47,18,47
	c-0.3,0-0.5-0.1-0.7-0.3c-0.3-0.3-0.4-0.7-0.2-1l6-18c0.1-0.3,0.3-0.5,0.6-0.6l18-6c0.4-0.1,0.8,0,1,0.2C43,21.6,43.1,22,42.9,22.3z
	"/>
</svg>
