<?xml version="1.0" encoding="utf-8"?>
<!-- Generator: Adobe Illustrator 19.1.0, SVG Export Plug-In . SVG Version: 6.00 Build 0)  -->
<!DOCTYPE svg PUBLIC "-//W3C//DTD SVG 1.1//EN" "http://www.w3.org/Graphics/SVG/1.1/DTD/svg11.dtd">
<svg version="1.1" id="Layer_1" xmlns="http://www.w3.org/2000/svg" xmlns:xlink="http://www.w3.org/1999/xlink" x="0px" y="0px"
	 width="64px" height="64px" viewBox="0 0 64 64" enable-background="new 0 0 64 64" xml:space="preserve">
<path d="M32,1.1c-10.3,0-21,7.5-21,20.1c0,12,19.4,32.7,20.3,33.5c0.2,0.2,0.5,0.3,0.7,0.3s0.5-0.1,0.7-0.3
	C33.6,53.8,53,33.2,53,21.2C53,8.6,42.3,1.1,32,1.1z M32,29.1c-3.9,0-7-3.1-7-7s3.1-7,7-7s7,3.1,7,7S35.9,29.1,32,29.1z"/>
<path d="M60.8,61.5l-10-16C50.7,45.2,50.3,45,50,45h-6.5c-0.5,0.7-1,1.4-1.6,2h7.5l8.8,14H5.8l8.8-14H22c-0.5-0.6-1-1.3-1.6-2H14
	c-0.3,0-0.7,0.2-0.8,0.5l-10,16c-0.2,0.3-0.2,0.7,0,1S3.6,63,4,63h56c0.4,0,0.7-0.2,0.9-0.5S61,61.8,60.8,61.5z"/>
</svg>
