<?xml version="1.0" encoding="utf-8"?>
<!-- Generator: Adobe Illustrator 19.1.0, SVG Export Plug-In . SVG Version: 6.00 Build 0)  -->
<!DOCTYPE svg PUBLIC "-//W3C//DTD SVG 1.1//EN" "http://www.w3.org/Graphics/SVG/1.1/DTD/svg11.dtd">
<svg version="1.1" id="Layer_1" xmlns="http://www.w3.org/2000/svg" xmlns:xlink="http://www.w3.org/1999/xlink" x="0px" y="0px"
	 width="64px" height="64px" viewBox="0 0 64 64" enable-background="new 0 0 64 64" xml:space="preserve">
<path d="M46,7c-2.3,0-4.6,0.5-6.8,1.4C36.9,7.5,34.5,7,32,7c-2.4,0-4.9,0.5-7.2,1.4C22.6,7.5,20.3,7,18,7C9.6,7,1,13.1,1,23.4
	C1,33.3,16.6,50,17.3,50.7c0.2,0.2,0.5,0.3,0.7,0.3s0.5-0.1,0.7-0.3c0,0,1.8-1.9,4.1-4.7c4.1,5.8,8.1,10.3,8.5,10.6
	c0.2,0.2,0.5,0.3,0.7,0.3s0.6-0.1,0.7-0.3c0.3-0.4,4.3-4.9,8.5-10.6c2.3,2.8,4,4.6,4.1,4.7c0.2,0.2,0.5,0.3,0.7,0.3s0.5-0.1,0.7-0.3
	C47.4,50,63,33.3,63,23.4C63,13.1,54.4,7,46,7z M18,48.5C14.9,45.1,3,31.3,3,23.4C3,14.4,10.6,9,18,9c1.4,0,2.8,0.2,4.2,0.6
	c-5.3,3-9.2,8.3-9.2,15.6c0,5.3,4.2,12.8,8.6,19.1C20.1,46.2,18.8,47.7,18,48.5z M32,33c-3.9,0-7-3.1-7-7s3.1-7,7-7s7,3.1,7,7
	S35.9,33,32,33z M46,48.5c-0.8-0.9-2.1-2.3-3.6-4.2C46.8,38,51,30.5,51,25.2c0-7.2-3.9-12.6-9.2-15.6C43.2,9.2,44.6,9,46,9
	c7.4,0,15,5.4,15,14.4C61,31.3,49.1,45.1,46,48.5z"/>
</svg>
