<?xml version="1.0" encoding="utf-8"?>
<!-- Generator: Adobe Illustrator 19.1.0, SVG Export Plug-In . SVG Version: 6.00 Build 0)  -->
<!DOCTYPE svg PUBLIC "-//W3C//DTD SVG 1.1//EN" "http://www.w3.org/Graphics/SVG/1.1/DTD/svg11.dtd">
<svg version="1.1" id="Layer_1" xmlns="http://www.w3.org/2000/svg" xmlns:xlink="http://www.w3.org/1999/xlink" x="0px" y="0px"
	 width="64px" height="64px" viewBox="0 0 64 64" enable-background="new 0 0 64 64" xml:space="preserve">
<path d="M42.8,45.9c-0.5,0.6-1,1.2-1.4,1.8C50.3,48.9,55,51.7,55,54c0,3.3-9.4,7-23,7S9,57.3,9,54c0-2.2,4.8-5.1,13.6-6.3
	c-0.5-0.6-0.9-1.2-1.4-1.8C14,47.1,7,49.7,7,54c0,5.8,12.9,9,25,9s25-3.2,25-9C57,49.7,50.1,47.1,42.8,45.9z"/>
<path d="M32,1C21.7,1,11,8.5,11,21.1c0,12,19.4,32.7,20.3,33.5c0.2,0.2,0.5,0.3,0.7,0.3s0.5-0.1,0.7-0.3C33.6,53.7,53,33.1,53,21.1
	C53,8.5,42.3,1,32,1z M32,29c-3.9,0-7-3.1-7-7s3.1-7,7-7s7,3.1,7,7S35.9,29,32,29z"/>
</svg>
