<?xml version="1.0" encoding="utf-8"?>
<!-- Generator: Adobe Illustrator 19.1.0, SVG Export Plug-In . SVG Version: 6.00 Build 0)  -->
<!DOCTYPE svg PUBLIC "-//W3C//DTD SVG 1.1//EN" "http://www.w3.org/Graphics/SVG/1.1/DTD/svg11.dtd">
<svg version="1.1" id="Layer_1" xmlns="http://www.w3.org/2000/svg" xmlns:xlink="http://www.w3.org/1999/xlink" x="0px" y="0px"
	 width="64px" height="64px" viewBox="0 0 64 64" enable-background="new 0 0 64 64" xml:space="preserve">
<path d="M46,34.2c-0.6,0.5-1.3,0.8-2,0.8s-1.5-0.3-2-0.8c-0.6-0.5-3.2-3-5.9-6.2c-2.3,1.6-3.5,4-3,6.4c0.8,4.4,0.7,7.1,0.6,9.1
	c-0.1,2.5-0.2,4.1,2.1,5.9c0.6,0.4,1.4,0.8,2.4,0.8c0.9,0,2-0.2,3.3-0.9c4.7-2.4,10.2-9.5,10.1-15.1c0-1.5-0.5-2.9-1.4-4.2
	C48.2,32.2,46.5,33.8,46,34.2z"/>
<path d="M54.4,24.8C56.1,28.3,57,32.1,57,36c0,13.8-11.2,25-25,25c-5.9,0-11.4-2.1-15.6-5.5c1-0.8,1.8-1.6,2.3-2.4
	c2.1-3.6,2.1-7.3,0-10.5c-0.6-0.9-1.3-1.7-2-2.5c-1.3-1.4-2.5-2.9-2.5-4c0-1,2.1-2,3.9-2.9c2-1,4.1-2,5.4-3.6
	c2.6-3.3,0.4-9.3-0.7-11.2c-1-1.7-2.4-2.7-3.7-3.7c3.1-1.9,6.6-3.1,10.3-3.5c0.1-0.7,0.3-1.4,0.5-2.1C15.9,10.3,5,21.9,5,36
	c0,14.9,12.1,27,27,27s27-12.1,27-27c0-4.6-1.2-9.1-3.4-13.1C55.2,23.6,54.8,24.2,54.4,24.8z"/>
<path d="M44,1c-6.4,0-13,4.7-13,12.7c0,7.6,11.8,18.6,12.3,19c0.2,0.2,0.4,0.3,0.7,0.3s0.5-0.1,0.7-0.3c0.5-0.5,12.3-11.5,12.3-19
	C57,5.7,50.4,1,44,1z M44,19c-2.8,0-5-2.2-5-5s2.2-5,5-5s5,2.2,5,5S46.8,19,44,19z"/>
</svg>
