<?xml version="1.0" encoding="utf-8"?>
<!-- Generator: Adobe Illustrator 19.1.0, SVG Export Plug-In . SVG Version: 6.00 Build 0)  -->
<!DOCTYPE svg PUBLIC "-//W3C//DTD SVG 1.1//EN" "http://www.w3.org/Graphics/SVG/1.1/DTD/svg11.dtd">
<svg version="1.1" id="Layer_1" xmlns="http://www.w3.org/2000/svg" xmlns:xlink="http://www.w3.org/1999/xlink" x="0px" y="0px"
	 width="64px" height="64px" viewBox="0 0 64 64" enable-background="new 0 0 64 64" xml:space="preserve">
<path d="M35,44.1v2c11.9,0.5,20,3.9,20,6.9c0,3.3-9.4,7-23,7S9,56.3,9,53c0-3.1,8.1-6.4,20-6.9v-2C17.8,44.5,7,47.6,7,53
	c0,5.8,12.9,9,25,9s25-3.2,25-9C57,47.6,46.2,44.5,35,44.1z"/>
<path d="M47,17c0-8.3-6.7-15-15-15S17,8.7,17,17c0,7.9,6.2,14.4,14,14.9V51c0,0.6,0.4,1,1,1s1-0.4,1-1V31.9C40.8,31.4,47,24.9,47,17
	z"/>
</svg>
