<?xml version="1.0" encoding="utf-8"?>
<!-- Generator: Adobe Illustrator 19.1.0, SVG Export Plug-In . SVG Version: 6.00 Build 0)  -->
<!DOCTYPE svg PUBLIC "-//W3C//DTD SVG 1.1//EN" "http://www.w3.org/Graphics/SVG/1.1/DTD/svg11.dtd">
<svg version="1.1" id="Layer_1" xmlns="http://www.w3.org/2000/svg" xmlns:xlink="http://www.w3.org/1999/xlink" x="0px" y="0px"
	 width="64px" height="64px" viewBox="0 0 64 64" enable-background="new 0 0 64 64" xml:space="preserve">
<path d="M62.6,11.2C62.3,11,62,11,61.7,11l-14.8,4.4c-0.1,0.8-0.2,1.5-0.4,2.2L61,13.3v38l-18,7.2V24.2c-0.6,0.7-1.3,1.3-2,1.8v32.6
	l-18-7.2V26c-0.7-0.5-1.4-1.1-2-1.8v27.2L3,58.5V20.7l14.1-5.6c0-0.4-0.1-0.7-0.1-1.1c0-0.4,0-0.7,0.1-1.1L1.6,19.1
	C1.2,19.2,1,19.6,1,20v40c0,0.3,0.2,0.6,0.4,0.8C1.6,60.9,1.8,61,2,61c0.1,0,0.3,0,0.4-0.1L22,53.1l19.6,7.9c0.1,0,0.2,0.1,0.3,0.1
	c0,0,0,0,0,0s0,0,0,0c0.1,0,0.2,0,0.3-0.1l20-8c0.4-0.2,0.6-0.5,0.6-0.9V12C63,11.7,62.9,11.4,62.6,11.2z"/>
<path d="M45,14c0-7.2-5.8-13-13-13S19,6.8,19,14c0,6.8,5.3,12.4,12,12.9V36c0,0.6,0.4,1,1,1s1-0.4,1-1v-9.1C39.7,26.4,45,20.8,45,14
	z"/>
</svg>
