<?xml version="1.0" encoding="utf-8"?>
<!-- Generator: Adobe Illustrator 19.1.0, SVG Export Plug-In . SVG Version: 6.00 Build 0)  -->
<!DOCTYPE svg PUBLIC "-//W3C//DTD SVG 1.1//EN" "http://www.w3.org/Graphics/SVG/1.1/DTD/svg11.dtd">
<svg version="1.1" id="Layer_1" xmlns="http://www.w3.org/2000/svg" xmlns:xlink="http://www.w3.org/1999/xlink" x="0px" y="0px"
	 width="64px" height="64px" viewBox="0 0 64 64" enable-background="new 0 0 64 64" xml:space="preserve">
<path d="M33.8,50.2c0.7,0.5,1.5,0.8,2.4,0.8c2.2,0,5-1.5,7.6-4.2c2.7-2.7,5.8-7.5,5.8-11.8c0-2.9-1.9-5.5-4.6-6.9V33
	c0,1.7-1.3,3-3,3s-3-1.3-3-3v-6c-2.6,0.3-5.1,1.6-6.6,3.4c-1.2,1.5-1.7,3.1-1.4,4.8c0.8,4.4,0.7,7.1,0.6,9.1
	C31.5,46.8,31.4,48.4,33.8,50.2z"/>
<path d="M52.6,19.5c-0.4,0.6-0.8,1.1-1.3,1.6C55,25.5,57,31.1,57,37c0,13.8-11.2,25-25,25c-5.9,0-11.4-2.1-15.6-5.5
	c1-0.8,1.8-1.6,2.3-2.4c2.1-3.6,2.1-7.3,0-10.5c-0.6-0.9-1.3-1.7-2-2.5c-1.3-1.4-2.5-2.9-2.5-4c0-1,2.1-2,3.9-2.9c2-1,4.1-2,5.4-3.6
	c2.6-3.3,0.4-9.3-0.7-11.2c-1-1.7-2.4-2.7-3.7-3.7c3-1.8,6.4-3.1,10.1-3.5c0-0.1,0-0.1,0-0.2c0-0.6,0.1-1.2,0.1-1.8
	C15.6,11.6,5,23.1,5,37c0,14.9,12.1,27,27,27s27-12.1,27-27C59,30.5,56.7,24.4,52.6,19.5z"/>
<path d="M53,12c0-6.1-4.9-11-11-11S31,5.9,31,12c0,5.7,4.4,10.4,10,10.9V33c0,0.6,0.4,1,1,1s1-0.4,1-1V22.9C48.6,22.4,53,17.7,53,12
	z"/>
</svg>
