<?xml version="1.0" encoding="utf-8"?>
<!-- Generator: Adobe Illustrator 19.1.0, SVG Export Plug-In . SVG Version: 6.00 Build 0)  -->
<!DOCTYPE svg PUBLIC "-//W3C//DTD SVG 1.1//EN" "http://www.w3.org/Graphics/SVG/1.1/DTD/svg11.dtd">
<svg version="1.1" id="Layer_1" xmlns="http://www.w3.org/2000/svg" xmlns:xlink="http://www.w3.org/1999/xlink" x="0px" y="0px"
	 width="64px" height="64px" viewBox="0 0 64 64" enable-background="new 0 0 64 64" xml:space="preserve">
<path d="M62.6,11.2C62.3,11,62,11,61.7,11L49,14.9c0,0.3,0,0.5,0,0.8c0,0.4,0,0.9-0.1,1.3L61,13.3v38l-18,7.2V29.6
	c-0.7,0.9-1.3,1.8-2,2.7v26.2l-18-7.2v-19c-0.7-0.9-1.3-1.8-2-2.7v21.7L3,58.5V20.7l12-4.8c0-0.1,0-0.2,0-0.2c0-0.7,0-1.3,0.1-2
	L1.6,19.1C1.2,19.2,1,19.6,1,20v40c0,0.3,0.2,0.6,0.4,0.8C1.6,60.9,1.8,61,2,61c0.1,0,0.3,0,0.4-0.1L22,53.1l19.6,7.9
	c0.1,0,0.2,0.1,0.3,0.1c0,0,0,0,0,0s0,0,0,0c0.1,0,0.2,0,0.3-0.1l0,0c0,0,0,0,0,0l20-8c0.4-0.2,0.6-0.5,0.6-0.9V12
	C63,11.7,62.9,11.4,62.6,11.2z"/>
<path d="M32,1c-7.4,0-15,5.5-15,14.6c0,8.7,13.7,22.5,14.3,23.1c0.2,0.2,0.5,0.3,0.7,0.3s0.5-0.1,0.7-0.3C33.3,38.1,47,24.4,47,15.6
	C47,6.5,39.4,1,32,1z M32,21c-2.8,0-5-2.2-5-5s2.2-5,5-5s5,2.2,5,5S34.8,21,32,21z"/>
</svg>
