<?xml version="1.0" encoding="utf-8"?>
<!-- Generator: Adobe Illustrator 19.1.0, SVG Export Plug-In . SVG Version: 6.00 Build 0)  -->
<!DOCTYPE svg PUBLIC "-//W3C//DTD SVG 1.1//EN" "http://www.w3.org/Graphics/SVG/1.1/DTD/svg11.dtd">
<svg version="1.1" id="Layer_1" xmlns="http://www.w3.org/2000/svg" xmlns:xlink="http://www.w3.org/1999/xlink" x="0px" y="0px"
	 width="64px" height="64px" viewBox="0 0 64 64" enable-background="new 0 0 64 64" xml:space="preserve">
<path d="M10,1C9.4,1,9,1.4,9,2v60c0,0.6,0.4,1,1,1s1-0.4,1-1V2C11,1.4,10.6,1,10,1z"/>
<path d="M47.2,20l7.7-13.5c0.2-0.3,0.2-0.7,0-1C54.7,5.2,54.4,5,54,5H18c-0.6,0-1,0.4-1,1v28c0,0.6,0.4,1,1,1h36c0,0,0,0,0,0
	c0.6,0,1-0.4,1-1c0-0.2-0.1-0.5-0.2-0.6L47.2,20z"/>
</svg>
