<?xml version="1.0" encoding="utf-8"?>
<!-- Generator: Adobe Illustrator 19.1.0, SVG Export Plug-In . SVG Version: 6.00 Build 0)  -->
<!DOCTYPE svg PUBLIC "-//W3C//DTD SVG 1.1//EN" "http://www.w3.org/Graphics/SVG/1.1/DTD/svg11.dtd">
<svg version="1.1" id="Layer_1" xmlns="http://www.w3.org/2000/svg" xmlns:xlink="http://www.w3.org/1999/xlink" x="0px" y="0px"
	 width="64px" height="64px" viewBox="0 0 64 64" enable-background="new 0 0 64 64" xml:space="preserve">
<path d="M32,23c5,0,9-4,9-9v-4c0-5-4-9-9-9s-9,4-9,9v4C23,19,27,23,32,23z"/>
<path d="M50.2,41c-0.1,0.7-0.2,1.3-0.3,2c6.9,1.7,11.1,4.4,11.1,7c0,4.3-11.9,9-29,9S3,54.3,3,50c0-2.6,4.3-5.3,11.1-7
	c-0.1-0.6-0.2-1.3-0.3-2C5.6,43,1,46.2,1,50c0,5.3,10.9,11,31,11s31-5.7,31-11C63,46.3,58.3,43,50.2,41z"/>
<path d="M47,29.1c-2.1-2.5-5.6-4.1-9-4.1H26c-3.5,0-6.9,1.6-9,4.1c-1.7,2-2.4,4.6-2,7.1c1.1,6.1,2,11.9,2,12c0.1,0.5,0.5,0.8,1,0.8
	h28c0.5,0,0.9-0.4,1-0.8c0-0.1,0.9-5.9,2-12C49.4,33.6,48.7,31.1,47,29.1z"/>
</svg>
