<?xml version="1.0" encoding="utf-8"?>
<!-- Generator: Adobe Illustrator 19.2.1, SVG Export Plug-In . SVG Version: 6.00 Build 0)  -->
<!DOCTYPE svg PUBLIC "-//W3C//DTD SVG 1.1//EN" "http://www.w3.org/Graphics/SVG/1.1/DTD/svg11.dtd">
<svg version="1.1" id="Layer_1" xmlns="http://www.w3.org/2000/svg" xmlns:xlink="http://www.w3.org/1999/xlink" x="0px" y="0px"
	 width="24px" height="24px" viewBox="0 0 24 24" enable-background="new 0 0 24 24" xml:space="preserve">
<path d="M9,6C8.447,6,8,6.447,8,7v8.5c0,1.93,1.57,3.5,3.5,3.5s3.5-1.57,3.5-3.5v-10C15,2.468,12.532,0,9.5,0S4,2.468,4,5.5v11
	c0,4.136,3.364,7.5,7.5,7.5s7.5-3.364,7.5-7.5V4c0-0.553-0.447-1-1-1s-1,0.447-1,1v12.5c0,3.032-2.468,5.5-5.5,5.5S6,19.532,6,16.5
	v-11C6,3.57,7.57,2,9.5,2S13,3.57,13,5.5v10c0,0.827-0.673,1.5-1.5,1.5S10,16.327,10,15.5V7C10,6.447,9.553,6,9,6z"/>
</svg>
