<?xml version="1.0" encoding="utf-8"?>
<!-- Generator: Adobe Illustrator 19.2.1, SVG Export Plug-In . SVG Version: 6.00 Build 0)  -->
<!DOCTYPE svg PUBLIC "-//W3C//DTD SVG 1.1//EN" "http://www.w3.org/Graphics/SVG/1.1/DTD/svg11.dtd">
<svg version="1.1" id="Layer_1" xmlns="http://www.w3.org/2000/svg" xmlns:xlink="http://www.w3.org/1999/xlink" x="0px" y="0px"
	 width="24px" height="24px" viewBox="0 0 24 24" enable-background="new 0 0 24 24" xml:space="preserve">
<path d="M23,3H11v2h12c0.552,0,1-0.448,1-1S23.552,3,23,3z"/>
<path d="M1,5h2v2c0,0.552,0.448,1,1,1h4c0.552,0,1-0.448,1-1V1c0-0.552-0.448-1-1-1H4C3.448,0,3,0.448,3,1v2H1C0.448,3,0,3.448,0,4
	S0.448,5,1,5z"/>
<path d="M23,11h-2v2h2c0.552,0,1-0.448,1-1S23.552,11,23,11z"/>
<path d="M1,13h12v2c0,0.552,0.448,1,1,1h4c0.552,0,1-0.448,1-1V9c0-0.552-0.448-1-1-1h-4c-0.552,0-1,0.448-1,1v2H1
	c-0.552,0-1,0.448-1,1S0.448,13,1,13z"/>
<path d="M23,19H11v2h12c0.552,0,1-0.448,1-1S23.552,19,23,19z"/>
<path d="M1,21h2v2c0,0.552,0.448,1,1,1h4c0.552,0,1-0.448,1-1v-6c0-0.552-0.448-1-1-1H4c-0.552,0-1,0.448-1,1v2H1
	c-0.552,0-1,0.448-1,1S0.448,21,1,21z"/>
</svg>
