<?xml version="1.0" encoding="utf-8"?>
<!-- Generator: Adobe Illustrator 19.2.1, SVG Export Plug-In . SVG Version: 6.00 Build 0)  -->
<!DOCTYPE svg PUBLIC "-//W3C//DTD SVG 1.1//EN" "http://www.w3.org/Graphics/SVG/1.1/DTD/svg11.dtd">
<svg version="1.1" id="Layer_1" xmlns="http://www.w3.org/2000/svg" xmlns:xlink="http://www.w3.org/1999/xlink" x="0px" y="0px"
	 width="24px" height="24px" viewBox="0 0 24 24" enable-background="new 0 0 24 24" xml:space="preserve">
<path d="M10.293,13.707C10.488,13.902,10.744,14,11,14s0.512-0.098,0.707-0.293l11-11c0.391-0.391,0.391-1.023,0-1.414
	s-1.023-0.391-1.414,0l-11,11C9.902,12.684,9.902,13.316,10.293,13.707z"/>
<path d="M14.295,2.502C13.23,2.169,12.122,2,11,2C4.935,2,0,6.935,0,13s4.935,11,11,11s11-4.935,11-11
	c0-1.124-0.169-2.232-0.503-3.297c-0.165-0.525-0.726-0.821-1.254-0.654c-0.526,0.165-0.819,0.727-0.654,1.254
	C19.861,11.172,20,12.08,20,13c0,4.963-4.037,9-9,9s-9-4.037-9-9s4.037-9,9-9c0.919,0,1.826,0.138,2.697,0.41
	c0.529,0.164,1.088-0.129,1.253-0.655C15.115,3.228,14.821,2.666,14.295,2.502z"/>
</svg>
