<?xml version="1.0" encoding="utf-8"?>
<!-- Generator: Adobe Illustrator 19.2.1, SVG Export Plug-In . SVG Version: 6.00 Build 0)  -->
<!DOCTYPE svg PUBLIC "-//W3C//DTD SVG 1.1//EN" "http://www.w3.org/Graphics/SVG/1.1/DTD/svg11.dtd">
<svg version="1.1" id="Layer_1" xmlns="http://www.w3.org/2000/svg" xmlns:xlink="http://www.w3.org/1999/xlink" x="0px" y="0px"
	 width="24px" height="24px" viewBox="0 0 24 24" enable-background="new 0 0 24 24" xml:space="preserve">
<path d="M22.866,12.499c0.178-0.308,0.179-0.687,0.002-0.995c-0.081-0.142-1.032-1.764-2.667-3.463l-4.228,4.228
	c-0.135,1.987-1.716,3.568-3.703,3.703l-3.439,3.439C9.813,19.773,10.869,20,12,20C18.473,20,22.69,12.805,22.866,12.499z"/>
<path d="M2.293,21.707C2.488,21.902,2.744,22,3,22s0.512-0.098,0.707-0.293l18-18c0.391-0.391,0.391-1.023,0-1.414
	s-1.023-0.391-1.414,0l-3.216,3.216C15.611,4.625,13.908,4,12,4C5.461,4,1.304,11.2,1.13,11.507
	c-0.174,0.307-0.173,0.683,0.002,0.989c0.103,0.18,1.6,2.742,4.135,4.823l-2.974,2.974C1.902,20.684,1.902,21.316,2.293,21.707z
	 M8,12c0-2.206,1.794-4,4-4c0.74,0,1.422,0.217,2.015,0.571l-5.444,5.444C8.217,13.422,8,12.74,8,12z"/>
</svg>
