<?xml version="1.0" encoding="utf-8"?>
<!-- Generator: Adobe Illustrator 19.2.1, SVG Export Plug-In . SVG Version: 6.00 Build 0)  -->
<!DOCTYPE svg PUBLIC "-//W3C//DTD SVG 1.1//EN" "http://www.w3.org/Graphics/SVG/1.1/DTD/svg11.dtd">
<svg version="1.1" id="Layer_1" xmlns="http://www.w3.org/2000/svg" xmlns:xlink="http://www.w3.org/1999/xlink" x="0px" y="0px"
	 width="24px" height="24px" viewBox="0 0 24 24" enable-background="new 0 0 24 24" xml:space="preserve">
<path d="M8.586,19c0.265,0,0.52-0.105,0.707-0.293l11-11c0.391-0.391,0.391-1.024,0-1.414l-3.586-3.586
	c-0.391-0.391-1.024-0.391-1.414,0l-11,11C4.105,13.895,4,14.149,4,14.414V18c0,0.552,0.448,1,1,1H8.586z"/>
<path d="M3,23c0,0.553,0.448,1,1,1h16c0.552,0,1-0.447,1-1s-0.448-1-1-1H4C3.448,22,3,22.447,3,23z"/>
</svg>
