<?xml version="1.0" encoding="utf-8"?>
<!-- Generator: Adobe Illustrator 19.2.1, SVG Export Plug-In . SVG Version: 6.00 Build 0)  -->
<!DOCTYPE svg PUBLIC "-//W3C//DTD SVG 1.1//EN" "http://www.w3.org/Graphics/SVG/1.1/DTD/svg11.dtd">
<svg version="1.1" id="Layer_1" xmlns="http://www.w3.org/2000/svg" xmlns:xlink="http://www.w3.org/1999/xlink" x="0px" y="0px"
	 width="24px" height="24px" viewBox="0 0 24 24" enable-background="new 0 0 24 24" xml:space="preserve">
<path d="M23,0H1C0.447,0,0,0.447,0,1v10h5.382l2.724-5.447c0.34-0.678,1.449-0.678,1.789,0L15,15.764l2.105-4.211
	C17.275,11.214,17.621,11,18,11h6V1C24,0.447,23.553,0,23,0z"/>
<path d="M15.895,18.447C15.725,18.786,15.379,19,15,19s-0.725-0.214-0.895-0.553L9,8.236l-2.105,4.211C6.725,12.786,6.379,13,6,13H0
	v10c0,0.553,0.447,1,1,1h22c0.553,0,1-0.447,1-1V13h-5.382L15.895,18.447z"/>
</svg>
