<?xml version="1.0" encoding="utf-8"?>
<!-- Generator: Adobe Illustrator 19.2.1, SVG Export Plug-In . SVG Version: 6.00 Build 0)  -->
<!DOCTYPE svg PUBLIC "-//W3C//DTD SVG 1.1//EN" "http://www.w3.org/Graphics/SVG/1.1/DTD/svg11.dtd">
<svg version="1.1" id="Layer_1" xmlns="http://www.w3.org/2000/svg" xmlns:xlink="http://www.w3.org/1999/xlink" x="0px" y="0px"
	 width="24px" height="24px" viewBox="0 0 24 24" enable-background="new 0 0 24 24" xml:space="preserve">
<path d="M12,0C5.383,0,0,5.383,0,12s5.383,12,12,12s12-5.383,12-12S18.617,0,12,0z M16.95,14.121c0.391,0.391,0.391,1.024,0,1.414
	l-1.414,1.414c-0.391,0.391-1.024,0.391-1.414,0L12,14.828L9.879,16.95c-0.391,0.391-1.024,0.391-1.414,0L7.05,15.536
	c-0.391-0.391-0.391-1.024,0-1.414L9.172,12L7.05,9.879c-0.391-0.391-0.391-1.024,0-1.414L8.464,7.05
	c0.391-0.391,1.024-0.391,1.414,0L12,9.172l2.121-2.121c0.391-0.391,1.024-0.391,1.414,0l1.414,1.414
	c0.391,0.391,0.391,1.024,0,1.414L14.828,12L16.95,14.121z"/>
</svg>
