<?xml version="1.0" encoding="utf-8"?>
<!-- Generator: Adobe Illustrator 19.2.1, SVG Export Plug-In . SVG Version: 6.00 Build 0)  -->
<!DOCTYPE svg PUBLIC "-//W3C//DTD SVG 1.1//EN" "http://www.w3.org/Graphics/SVG/1.1/DTD/svg11.dtd">
<svg version="1.1" id="Layer_1" xmlns="http://www.w3.org/2000/svg" xmlns:xlink="http://www.w3.org/1999/xlink" x="0px" y="0px"
	 width="24px" height="24px" viewBox="0 0 24 24" enable-background="new 0 0 24 24" xml:space="preserve">
<path d="M19,0c-2.999,0-5.812,1.519-7.475,4H8H7H3C1.29,4,0,6.149,0,9s1.29,5,3,5h2.298l4.266,7.275
	c0.559,0.953,1.784,1.272,2.737,0.714c0.953-0.559,1.272-1.784,0.714-2.737L9.935,14h1.59c1.663,2.481,4.476,4,7.475,4
	c2.851,0,5-3.869,5-9S21.851,0,19,0z M19,16c-0.928,0-1.926-1.291-2.505-3.306C17.96,12.1,19,10.678,19,9s-1.04-3.1-2.505-3.694
	C17.074,3.291,18.072,2,19,2c1.416,0,3,2.993,3,7S20.416,16,19,16z"/>
</svg>
