<?xml version="1.0" encoding="utf-8"?>
<!-- Generator: Adobe Illustrator 19.2.1, SVG Export Plug-In . SVG Version: 6.00 Build 0)  -->
<!DOCTYPE svg PUBLIC "-//W3C//DTD SVG 1.1//EN" "http://www.w3.org/Graphics/SVG/1.1/DTD/svg11.dtd">
<svg version="1.1" id="Layer_1" xmlns="http://www.w3.org/2000/svg" xmlns:xlink="http://www.w3.org/1999/xlink" x="0px" y="0px"
	 width="24px" height="24px" viewBox="0 0 24 24" enable-background="new 0 0 24 24" xml:space="preserve">
<path d="M1,21h4c0.552,0,1-0.447,1-1v-6c0-0.553-0.448-1-1-1H1c-0.552,0-1,0.447-1,1v6C0,20.553,0.448,21,1,21z"/>
<path d="M10,8C9.448,8,9,8.447,9,9v11c0,0.553,0.448,1,1,1h4c0.552,0,1-0.447,1-1V9c0-0.553-0.448-1-1-1H10z"/>
<path d="M23,3h-4c-0.552,0-1,0.447-1,1v16c0,0.553,0.448,1,1,1h4c0.552,0,1-0.447,1-1V4C24,3.447,23.552,3,23,3z"/>
</svg>
