<?xml version="1.0" encoding="utf-8"?>
<!-- Generator: Adobe Illustrator 19.2.1, SVG Export Plug-In . SVG Version: 6.00 Build 0)  -->
<!DOCTYPE svg PUBLIC "-//W3C//DTD SVG 1.1//EN" "http://www.w3.org/Graphics/SVG/1.1/DTD/svg11.dtd">
<svg version="1.1" id="Layer_1" xmlns="http://www.w3.org/2000/svg" xmlns:xlink="http://www.w3.org/1999/xlink" x="0px" y="0px"
	 width="24px" height="24px" viewBox="0 0 24 24" enable-background="new 0 0 24 24" xml:space="preserve">
<path fill="#222221" d="M12,0C7.543,0,0,0.842,0,4c0,0.485,0.195,0.91,0.513,1.291L9,16.333V23c0,0.552,0.448,1,1,1h4
	c0.552,0,1-0.448,1-1v-6.667l8.466-11.017C23.797,4.929,24,4.496,24,4C24,0.842,16.457,0,12,0z M12,6
	C5.957,6,2.273,4.67,1.994,4.042C2.273,3.33,5.957,2,12,2c5.925,0,9.582,1.278,9.986,2C21.582,4.722,17.925,6,12,6z"/>
</svg>
