<?xml version="1.0" encoding="utf-8"?>
<!-- Generator: Adobe Illustrator 19.2.1, SVG Export Plug-In . SVG Version: 6.00 Build 0)  -->
<!DOCTYPE svg PUBLIC "-//W3C//DTD SVG 1.1//EN" "http://www.w3.org/Graphics/SVG/1.1/DTD/svg11.dtd">
<svg version="1.1" id="Layer_1" xmlns="http://www.w3.org/2000/svg" xmlns:xlink="http://www.w3.org/1999/xlink" x="0px" y="0px"
	 width="24px" height="24px" viewBox="0 0 24 24" enable-background="new 0 0 24 24" xml:space="preserve">
<path d="M12,24c6.617,0,12-5.383,12-12S18.617,0,12,0S0,5.383,0,12S5.383,24,12,24z M21,11v2h-3v-2H21z M17.657,4.929l1.414,1.414
	L16.95,8.464L15.536,7.05L17.657,4.929z M11,3h2v3h-2V3z M6.323,4.909l4.391,4.392C11.106,9.114,11.538,9,12,9c1.654,0,3,1.346,3,3
	s-1.346,3-3,3s-3-1.346-3-3c0-0.462,0.113-0.894,0.3-1.285L4.909,6.323L6.323,4.909z M3,11h3v2H3V11z"/>
</svg>
