<?xml version="1.0" encoding="utf-8"?>
<!-- Generator: Adobe Illustrator 19.2.1, SVG Export Plug-In . SVG Version: 6.00 Build 0)  -->
<!DOCTYPE svg PUBLIC "-//W3C//DTD SVG 1.1//EN" "http://www.w3.org/Graphics/SVG/1.1/DTD/svg11.dtd">
<svg version="1.1" id="Layer_1" xmlns="http://www.w3.org/2000/svg" xmlns:xlink="http://www.w3.org/1999/xlink" x="0px" y="0px"
	 width="24px" height="24px" viewBox="0 0 24 24" enable-background="new 0 0 24 24" xml:space="preserve">
<path d="M20,24v-6c-2.761,0-5-2.239-5-5s2.239-5,5-5V1c0-0.552-0.448-1-1-1H3C2.448,0,2,0.448,2,1v23l9-5.821L20,24z"/>
<polygon points="21,16 21,14 23,14 23,12 21,12 21,10 19,10 19,12 17,12 17,14 19,14 19,16 "/>
</svg>
