<?xml version="1.0" encoding="utf-8"?>
<!-- Generator: Adobe Illustrator 19.2.1, SVG Export Plug-In . SVG Version: 6.00 Build 0)  -->
<!DOCTYPE svg PUBLIC "-//W3C//DTD SVG 1.1//EN" "http://www.w3.org/Graphics/SVG/1.1/DTD/svg11.dtd">
<svg version="1.1" id="Layer_1" xmlns="http://www.w3.org/2000/svg" xmlns:xlink="http://www.w3.org/1999/xlink" x="0px" y="0px"
	 width="24px" height="24px" viewBox="0 0 24 24" enable-background="new 0 0 24 24" xml:space="preserve">
<path d="M11.562,11l5.078-4.231c0.242-0.202,0.375-0.507,0.358-0.822c-0.018-0.314-0.182-0.604-0.444-0.778l-6-4
	c-0.307-0.204-0.702-0.224-1.026-0.05C9.203,1.292,9,1.631,9,2v6.865L4.641,5.231C4.215,4.878,3.585,4.936,3.231,5.359
	C2.878,5.784,2.936,6.415,3.359,6.769L8.438,11l-5.078,4.231c-0.424,0.354-0.481,0.984-0.128,1.409
	c0.354,0.423,0.983,0.481,1.409,0.128L9,13.135V21c0,0.388,0.225,0.741,0.576,0.905C9.711,21.969,9.855,22,10,22
	c0.229,0,0.457-0.079,0.641-0.231l6-5C16.868,16.578,17,16.297,17,16s-0.132-0.578-0.359-0.769L11.562,11z M11,3.868l3.331,2.221
	L11,8.865V3.868z M11,18.865v-5.73L14.438,16L11,18.865z"/>
</svg>
