<?xml version="1.0" encoding="utf-8"?>
<!-- Generator: Adobe Illustrator 19.2.1, SVG Export Plug-In . SVG Version: 6.00 Build 0)  -->
<!DOCTYPE svg PUBLIC "-//W3C//DTD SVG 1.1//EN" "http://www.w3.org/Graphics/SVG/1.1/DTD/svg11.dtd">
<svg version="1.1" id="Layer_1" xmlns="http://www.w3.org/2000/svg" xmlns:xlink="http://www.w3.org/1999/xlink" x="0px" y="0px"
	 width="24px" height="24px" viewBox="0 0 24 24" enable-background="new 0 0 24 24" xml:space="preserve">
<circle cx="12" cy="12" r="2"/>
<path d="M12,6c-3.309,0-6,2.691-6,6s2.691,6,6,6s6-2.691,6-6S15.309,6,12,6z M12,16c-2.206,0-4-1.794-4-4s1.794-4,4-4s4,1.794,4,4
	S14.206,16,12,16z"/>
<path d="M12,0C5.383,0,0,5.383,0,12s5.383,12,12,12s12-5.383,12-12S18.617,0,12,0z M12,20c-4.411,0-8-3.589-8-8s3.589-8,8-8
	s8,3.589,8,8S16.411,20,12,20z"/>
</svg>
