<?xml version="1.0" encoding="utf-8"?>
<!-- Generator: Adobe Illustrator 19.2.1, SVG Export Plug-In . SVG Version: 6.00 Build 0)  -->
<!DOCTYPE svg PUBLIC "-//W3C//DTD SVG 1.1//EN" "http://www.w3.org/Graphics/SVG/1.1/DTD/svg11.dtd">
<svg version="1.1" id="Layer_1" xmlns="http://www.w3.org/2000/svg" xmlns:xlink="http://www.w3.org/1999/xlink" x="0px" y="0px"
	 width="24px" height="24px" viewBox="0 0 24 24" enable-background="new 0 0 24 24" xml:space="preserve">
<path d="M17,0c-1.903,0-3.695,0.768-5,2.103C10.695,0.768,8.903,0,7,0C3.141,0,0,3.14,0,7c0,6.4,10.902,15.394,11.367,15.774
	C11.551,22.925,11.775,23,12,23s0.449-0.075,0.633-0.226c0.144-0.118,1.291-1.063,2.804-2.502C13.983,19.398,13,17.82,13,16
	c0-2.761,2.239-5,5-5c1.554,0,2.925,0.724,3.842,1.836C23.116,10.853,24,8.821,24,7C24,3.14,20.859,0,17,0z"/>
<rect x="15" y="15" width="6" height="2"/>
</svg>
