<?xml version="1.0" encoding="utf-8"?>
<!-- Generator: Adobe Illustrator 19.2.1, SVG Export Plug-In . SVG Version: 6.00 Build 0)  -->
<!DOCTYPE svg PUBLIC "-//W3C//DTD SVG 1.1//EN" "http://www.w3.org/Graphics/SVG/1.1/DTD/svg11.dtd">
<svg version="1.1" id="Layer_1" xmlns="http://www.w3.org/2000/svg" xmlns:xlink="http://www.w3.org/1999/xlink" x="0px" y="0px"
	 width="24px" height="24px" viewBox="0 0 24 24" enable-background="new 0 0 24 24" xml:space="preserve">
<path d="M23,2h-3V1c0-0.552-0.448-1-1-1h-4c-0.552,0-1,0.448-1,1v1h-4V1c0-0.552-0.448-1-1-1H5C4.448,0,4,0.448,4,1v1H1
	C0.448,2,0,2.448,0,3v4h24V3C24,2.448,23.552,2,23,2z M8,5H6V2h2V5z M18,5h-2V2h2V5z"/>
<path d="M0,23c0,0.552,0.448,1,1,1h22c0.552,0,1-0.448,1-1V9H0V23z M16,12h4v3h-4V12z M16,17h4v3h-4V17z M10,12h4v3h-4V12z M10,17h4
	v3h-4V17z M4,12h4v3H4V12z M4,17h4v3H4V17z"/>
</svg>
