<?xml version="1.0" encoding="utf-8"?>
<!-- Generator: Adobe Illustrator 19.2.1, SVG Export Plug-In . SVG Version: 6.00 Build 0)  -->
<!DOCTYPE svg PUBLIC "-//W3C//DTD SVG 1.1//EN" "http://www.w3.org/Graphics/SVG/1.1/DTD/svg11.dtd">
<svg version="1.1" id="Layer_1" xmlns="http://www.w3.org/2000/svg" xmlns:xlink="http://www.w3.org/1999/xlink" x="0px" y="0px"
	 width="24px" height="24px" viewBox="0 0 24 24" enable-background="new 0 0 24 24" xml:space="preserve">
<rect x="4" y="6" width="16" height="12"/>
<path d="M2,4h6V2H1C0.447,2,0,2.447,0,3v7h2V4z"/>
<path d="M23,2h-7v2h6v6h2V3C24,2.447,23.553,2,23,2z"/>
<path d="M1,22h7v-2H2v-6H0v7C0,21.553,0.447,22,1,22z"/>
<path d="M22,20h-6v2h7c0.553,0,1-0.447,1-1v-7h-2V20z"/>
</svg>
