<?xml version="1.0" encoding="utf-8"?>
<!-- Generator: Adobe Illustrator 19.2.1, SVG Export Plug-In . SVG Version: 6.00 Build 0)  -->
<!DOCTYPE svg PUBLIC "-//W3C//DTD SVG 1.1//EN" "http://www.w3.org/Graphics/SVG/1.1/DTD/svg11.dtd">
<svg version="1.1" id="Layer_1" xmlns="http://www.w3.org/2000/svg" xmlns:xlink="http://www.w3.org/1999/xlink" x="0px" y="0px"
	 width="24px" height="24px" viewBox="0 0 24 24" enable-background="new 0 0 24 24" xml:space="preserve">
<path d="M22.707,21.293l-3-3c-0.391-0.391-1.023-0.391-1.414,0s-0.391,1.023,0,1.414l3,3C21.488,22.902,21.744,23,22,23
	s0.512-0.098,0.707-0.293C23.098,22.316,23.098,21.684,22.707,21.293z"/>
<path d="M0,10c0,5.514,4.486,10,10,10s10-4.486,10-10S15.514,0,10,0S0,4.486,0,10z M6,9h8v2H6V9z"/>
</svg>
