<?xml version="1.0" encoding="utf-8"?>
<!-- Generator: Adobe Illustrator 19.2.1, SVG Export Plug-In . SVG Version: 6.00 Build 0)  -->
<!DOCTYPE svg PUBLIC "-//W3C//DTD SVG 1.1//EN" "http://www.w3.org/Graphics/SVG/1.1/DTD/svg11.dtd">
<svg version="1.1" id="Layer_1" xmlns="http://www.w3.org/2000/svg" xmlns:xlink="http://www.w3.org/1999/xlink" x="0px" y="0px"
	 width="24px" height="24px" viewBox="0 0 24 24" enable-background="new 0 0 24 24" xml:space="preserve">
<path fill="#222221" d="M23,22H1c-0.553,0-1,0.448-1,1s0.447,1,1,1h22c0.553,0,1-0.448,1-1S23.553,22,23,22z"/>
<path fill="#222221" d="M1,16h8v-2H1c-0.553,0-1,0.448-1,1S0.447,16,1,16z"/>
<path fill="#222221" d="M23,14h-8v2h8c0.553,0,1-0.448,1-1S23.553,14,23,14z"/>
<polygon fill="#222221" points="13,20 13,7 18,7 12,0 6,7 11,7 11,20 "/>
</svg>
