<?xml version="1.0" encoding="utf-8"?>
<!-- Generator: Adobe Illustrator 19.2.1, SVG Export Plug-In . SVG Version: 6.00 Build 0)  -->
<!DOCTYPE svg PUBLIC "-//W3C//DTD SVG 1.1//EN" "http://www.w3.org/Graphics/SVG/1.1/DTD/svg11.dtd">
<svg version="1.1" id="Layer_1" xmlns="http://www.w3.org/2000/svg" xmlns:xlink="http://www.w3.org/1999/xlink" x="0px" y="0px"
	 width="24px" height="24px" viewBox="0 0 24 24" enable-background="new 0 0 24 24" xml:space="preserve">
<path d="M12,16c4.816,0,10-1.252,10-4V7.641C19.706,9.326,15.774,10,12,10S4.294,9.326,2,7.641V12C2,14.748,7.184,16,12,16z"/>
<path d="M12,24c4.816,0,10-1.252,10-4v-4.359C19.706,17.326,15.774,18,12,18s-7.706-0.674-10-2.359V20C2,22.748,7.184,24,12,24z"/>
<path d="M12,8c4.816,0,10-1.252,10-4s-5.184-4-10-4S2,1.252,2,4S7.184,8,12,8z"/>
</svg>
