<?xml version="1.0" encoding="utf-8"?>
<!-- Generator: Adobe Illustrator 19.2.1, SVG Export Plug-In . SVG Version: 6.00 Build 0)  -->
<!DOCTYPE svg PUBLIC "-//W3C//DTD SVG 1.1//EN" "http://www.w3.org/Graphics/SVG/1.1/DTD/svg11.dtd">
<svg version="1.1" id="Layer_1" xmlns="http://www.w3.org/2000/svg" xmlns:xlink="http://www.w3.org/1999/xlink" x="0px" y="0px"
	 width="24px" height="24px" viewBox="0 0 24 24" enable-background="new 0 0 24 24" xml:space="preserve">
<path d="M1,24h22c0.553,0,1-0.448,1-1V1c0-0.552-0.447-1-1-1H1C0.447,0,0,0.448,0,1v22C0,23.552,0.447,24,1,24z M17,21h-2v-8h2V21z
	 M15,5.184V3h2v2.184C18.163,5.597,19,6.696,19,8c0,1.657-1.343,3-3,3s-3-1.343-3-3C13,6.696,13.837,5.597,15,5.184z M7,3h2v8H7V3z
	 M8,13c1.657,0,3,1.343,3,3c0,1.304-0.837,2.403-2,2.816V21H7v-2.184C5.837,18.403,5,17.304,5,16C5,14.343,6.343,13,8,13z"/>
</svg>
