<?xml version="1.0" encoding="utf-8"?>
<!-- Generator: Adobe Illustrator 19.2.1, SVG Export Plug-In . SVG Version: 6.00 Build 0)  -->
<!DOCTYPE svg PUBLIC "-//W3C//DTD SVG 1.1//EN" "http://www.w3.org/Graphics/SVG/1.1/DTD/svg11.dtd">
<svg version="1.1" id="Layer_1" xmlns="http://www.w3.org/2000/svg" xmlns:xlink="http://www.w3.org/1999/xlink" x="0px" y="0px"
	 width="24px" height="24px" viewBox="0 0 24 24" enable-background="new 0 0 24 24" xml:space="preserve">
<path d="M14.189,7.818c0.391-0.391,0.391-1.023,0-1.414s-1.023-0.391-1.414,0l-6.011,6.01c-1.365,1.364-1.365,3.586,0,4.95
	c1.367,1.365,3.587,1.363,4.95,0l7.07-7.071c2.145-2.145,2.145-5.634,0-7.778s-5.633-2.145-7.777,0l-7.778,7.778
	c-1.417,1.416-2.197,3.3-2.197,5.304c0,2.003,0.78,3.887,2.197,5.303c1.462,1.462,3.382,2.192,5.303,2.192s3.842-0.73,5.304-2.192
	l8.839-8.839c0.391-0.391,0.391-1.023,0-1.414s-1.023-0.391-1.414,0l-8.839,8.839c-2.144,2.144-5.633,2.144-7.778,0
	c-1.039-1.039-1.611-2.42-1.611-3.889c0-1.47,0.572-2.851,1.611-3.89l7.778-7.778c1.365-1.365,3.584-1.365,4.949,0
	c0.661,0.661,1.025,1.54,1.025,2.475c0,0.936-0.364,1.814-1.025,2.476l-7.07,7.071c-0.584,0.583-1.538,0.585-2.122,0
	c-0.585-0.585-0.585-1.537,0-2.122L14.189,7.818z"/>
</svg>
