<?xml version="1.0" encoding="utf-8"?>
<!-- Generator: Adobe Illustrator 19.2.1, SVG Export Plug-In . SVG Version: 6.00 Build 0)  -->
<!DOCTYPE svg PUBLIC "-//W3C//DTD SVG 1.1//EN" "http://www.w3.org/Graphics/SVG/1.1/DTD/svg11.dtd">
<svg version="1.1" id="Layer_1" xmlns="http://www.w3.org/2000/svg" xmlns:xlink="http://www.w3.org/1999/xlink" x="0px" y="0px"
	 width="24px" height="24px" viewBox="0 0 24 24" enable-background="new 0 0 24 24" xml:space="preserve">
<path d="M6.293,17.707C6.488,17.902,6.744,18,7,18s0.512-0.098,0.707-0.293l2.586-2.586c0.488,0.116,1.218,0.245,2.1,0.245
	c1.668,0,4.117-0.462,6.313-2.658c3.816-3.815,4.273-10.366,4.291-10.644c0.018-0.287-0.088-0.567-0.291-0.771
	c-0.203-0.203-0.485-0.304-0.771-0.291C21.66,1.02,15.109,1.478,11.293,5.293c-3.174,3.174-2.74,6.938-2.408,8.408l-2.592,2.592
	C5.902,16.684,5.902,17.316,6.293,17.707z"/>
<path d="M21,24c0.552,0,1-0.447,1-1v-8c0-0.553-0.448-1-1-1s-1,0.447-1,1v7H2V4h7c0.552,0,1-0.447,1-1S9.552,2,9,2H1
	C0.448,2,0,2.447,0,3v20c0,0.553,0.448,1,1,1H21z"/>
</svg>
