<?xml version="1.0" encoding="utf-8"?>
<!-- Generator: Adobe Illustrator 19.2.1, SVG Export Plug-In . SVG Version: 6.00 Build 0)  -->
<!DOCTYPE svg PUBLIC "-//W3C//DTD SVG 1.1//EN" "http://www.w3.org/Graphics/SVG/1.1/DTD/svg11.dtd">
<svg version="1.1" id="Layer_1" xmlns="http://www.w3.org/2000/svg" xmlns:xlink="http://www.w3.org/1999/xlink" x="0px" y="0px"
	 width="24px" height="24px" viewBox="0 0 24 24" enable-background="new 0 0 24 24" xml:space="preserve">
<path d="M12,0C5.383,0,0,5.383,0,12s5.383,12,12,12s12-5.383,12-12S18.617,0,12,0z M5,12c0,0.552-0.447,1-1,1s-1-0.448-1-1
	c0-1.387,0.325-2.696,0.887-3.871l1.526,1.526C5.15,10.389,5,11.177,5,12z M12,15c-1.654,0-3-1.346-3-3
	c0-0.462,0.113-0.894,0.3-1.285L5.086,6.5L6.5,5.086l4.214,4.215C11.106,9.114,11.538,9,12,9c1.654,0,3,1.346,3,3S13.654,15,12,15z
	 M20,13c-0.553,0-1-0.448-1-1c0-3.86-3.141-7-7-7c-0.823,0-1.61,0.15-2.345,0.413L8.13,3.887C9.304,3.324,10.613,3,12,3
	c4.963,0,9,4.038,9,9C21,12.552,20.553,13,20,13z"/>
</svg>
