<?xml version="1.0" encoding="utf-8"?>
<!-- Generator: Adobe Illustrator 19.2.1, SVG Export Plug-In . SVG Version: 6.00 Build 0)  -->
<!DOCTYPE svg PUBLIC "-//W3C//DTD SVG 1.1//EN" "http://www.w3.org/Graphics/SVG/1.1/DTD/svg11.dtd">
<svg version="1.1" id="Layer_1" xmlns="http://www.w3.org/2000/svg" xmlns:xlink="http://www.w3.org/1999/xlink" x="0px" y="0px"
	 width="24px" height="24px" viewBox="0 0 24 24" enable-background="new 0 0 24 24" xml:space="preserve">
<path d="M20,24c0.553,0,1-0.448,1-1V8H3v15c0,0.552,0.447,1,1,1H20z"/>
<path d="M23,4h-6V1c0-0.552-0.447-1-1-1H8C7.447,0,7,0.448,7,1v3H1C0.447,4,0,4.448,0,5s0.447,1,1,1h22c0.553,0,1-0.448,1-1
	S23.553,4,23,4z M15,4H9V2h6V4z"/>
</svg>
