<?xml version="1.0" encoding="utf-8"?>
<!-- Generator: Adobe Illustrator 19.2.1, SVG Export Plug-In . SVG Version: 6.00 Build 0)  -->
<!DOCTYPE svg PUBLIC "-//W3C//DTD SVG 1.1//EN" "http://www.w3.org/Graphics/SVG/1.1/DTD/svg11.dtd">
<svg version="1.1" id="Layer_1" xmlns="http://www.w3.org/2000/svg" xmlns:xlink="http://www.w3.org/1999/xlink" x="0px" y="0px"
	 width="24px" height="24px" viewBox="0 0 24 24" enable-background="new 0 0 24 24" xml:space="preserve">
<path d="M23,10H1c-0.553,0-1,0.448-1,1v2c0,0.552,0.447,1,1,1h22c0.553,0,1-0.448,1-1v-2C24,10.448,23.553,10,23,10z"/>
<path d="M23,2H1C0.447,2,0,2.448,0,3v2c0,0.552,0.447,1,1,1h22c0.553,0,1-0.448,1-1V3C24,2.448,23.553,2,23,2z"/>
<path d="M23,18H1c-0.553,0-1,0.448-1,1v2c0,0.552,0.447,1,1,1h22c0.553,0,1-0.448,1-1v-2C24,18.448,23.553,18,23,18z"/>
</svg>
