<?xml version="1.0" encoding="utf-8"?>
<!-- Generator: Adobe Illustrator 19.2.1, SVG Export Plug-In . SVG Version: 6.00 Build 0)  -->
<!DOCTYPE svg PUBLIC "-//W3C//DTD SVG 1.1//EN" "http://www.w3.org/Graphics/SVG/1.1/DTD/svg11.dtd">
<svg version="1.1" id="Layer_1" xmlns="http://www.w3.org/2000/svg" xmlns:xlink="http://www.w3.org/1999/xlink" x="0px" y="0px"
	 width="24px" height="24px" viewBox="0 0 24 24" enable-background="new 0 0 24 24" xml:space="preserve">
<path d="M12,23c6.075,0,11-4.925,11-11S18.075,1,12,1S1,5.925,1,12S5.925,23,12,23z M19,12c0,3.866-3.134,7-7,7
	c-1.206,0-2.34-0.305-3.33-0.842l9.488-9.488C18.695,9.66,19,10.794,19,12z M12,5c1.206,0,2.34,0.305,3.33,0.842L5.842,15.33
	C5.305,14.34,5,13.205,5,12C5,8.134,8.134,5,12,5z"/>
</svg>
