<?xml version="1.0" encoding="utf-8"?>
<!-- Generator: Adobe Illustrator 19.2.1, SVG Export Plug-In . SVG Version: 6.00 Build 0)  -->
<!DOCTYPE svg PUBLIC "-//W3C//DTD SVG 1.1//EN" "http://www.w3.org/Graphics/SVG/1.1/DTD/svg11.dtd">
<svg version="1.1" id="Layer_1" xmlns="http://www.w3.org/2000/svg" xmlns:xlink="http://www.w3.org/1999/xlink" x="0px" y="0px"
	 width="24px" height="24px" viewBox="0 0 24 24" enable-background="new 0 0 24 24" xml:space="preserve">
<path d="M23,2h-4V0h-2v2h-4V0h-2v2H7V0H5v2H1C0.448,2,0,2.448,0,3v3h24V3C24,2.448,23.552,2,23,2z"/>
<path d="M0,23c0,0.552,0.448,1,1,1h22c0.552,0,1-0.448,1-1V8H0V23z M7.707,15.293L10,17.586l6.293-6.293l1.414,1.414l-7,7
	C10.512,19.902,10.256,20,10,20s-0.512-0.098-0.707-0.293l-3-3L7.707,15.293z"/>
</svg>
