<?xml version="1.0" encoding="utf-8"?>
<!-- Generator: Adobe Illustrator 19.2.1, SVG Export Plug-In . SVG Version: 6.00 Build 0)  -->
<!DOCTYPE svg PUBLIC "-//W3C//DTD SVG 1.1//EN" "http://www.w3.org/Graphics/SVG/1.1/DTD/svg11.dtd">
<svg version="1.1" id="Layer_1" xmlns="http://www.w3.org/2000/svg" xmlns:xlink="http://www.w3.org/1999/xlink" x="0px" y="0px"
	 width="24px" height="24px" viewBox="0 0 24 24" enable-background="new 0 0 24 24" xml:space="preserve">
<path d="M5,17h5c2.757,0,5-2.243,5-5v-1h-2v1c0,1.654-1.346,3-3,3H5c-1.654,0-3-1.346-3-3s1.346-3,3-3h3V7H5c-2.757,0-5,2.243-5,5
	S2.243,17,5,17z"/>
<path d="M19,7h-5c-2.757,0-5,2.243-5,5v1h2v-1c0-1.654,1.346-3,3-3h5c1.654,0,3,1.346,3,3s-1.346,3-3,3h-3v2h3c2.757,0,5-2.243,5-5
	S21.757,7,19,7z"/>
</svg>
