<?xml version="1.0" encoding="utf-8"?>
<!-- Generator: Adobe Illustrator 19.2.1, SVG Export Plug-In . SVG Version: 6.00 Build 0)  -->
<!DOCTYPE svg PUBLIC "-//W3C//DTD SVG 1.1//EN" "http://www.w3.org/Graphics/SVG/1.1/DTD/svg11.dtd">
<svg version="1.1" id="Layer_1" xmlns="http://www.w3.org/2000/svg" xmlns:xlink="http://www.w3.org/1999/xlink" x="0px" y="0px"
	 width="24px" height="24px" viewBox="0 0 24 24" enable-background="new 0 0 24 24" xml:space="preserve">
<path d="M12,0C5.383,0,0,5.383,0,12s5.383,12,12,12s12-5.383,12-12S18.617,0,12,0z M12,19c-0.552,0-1-0.448-1-1c0-0.552,0.448-1,1-1
	s1,0.448,1,1C13,18.552,12.552,19,12,19z M13,12.868V15h-2v-3c0-0.552,0.447-1,1-1c1.065,0,2-0.935,2-2s-0.935-2-2-2
	c-0.812,0-1.592,0.672-1.876,1.322C9.903,8.827,9.319,9.06,8.808,8.838C8.302,8.617,8.07,8.027,8.292,7.521
	C8.93,6.061,10.489,5,12,5c2.168,0,4,1.832,4,4C16,10.824,14.703,12.411,13,12.868z"/>
</svg>
