<?xml version="1.0" encoding="utf-8"?>
<!-- Generator: Adobe Illustrator 19.2.1, SVG Export Plug-In . SVG Version: 6.00 Build 0)  -->
<!DOCTYPE svg PUBLIC "-//W3C//DTD SVG 1.1//EN" "http://www.w3.org/Graphics/SVG/1.1/DTD/svg11.dtd">
<svg version="1.1" id="Layer_1" xmlns="http://www.w3.org/2000/svg" xmlns:xlink="http://www.w3.org/1999/xlink" x="0px" y="0px"
	 width="24px" height="24px" viewBox="0 0 24 24" enable-background="new 0 0 24 24" xml:space="preserve">
<path d="M10.154,22.26l2-2c1.543-1.543,2.036-3.724,1.527-5.698l-1.817,1.817c-0.074,0.9-0.437,1.781-1.124,2.468l-2,2
	c-1.541,1.539-4.045,1.539-5.586,0c-1.54-1.54-1.54-4.046,0-5.586l2-2c0.688-0.687,1.568-1.05,2.468-1.124l1.816-1.816
	c-1.974-0.51-4.155-0.017-5.698,1.527l-2,2c-2.32,2.319-2.32,6.095,0,8.414C2.9,23.42,4.424,24,5.947,24S8.994,23.42,10.154,22.26z"
	/>
<path d="M13.846,1.74l-2,2c-1.543,1.543-2.036,3.724-1.527,5.698l1.816-1.816c0.074-0.9,0.437-1.78,1.124-2.468l2-2
	c1.54-1.54,4.046-1.54,5.586,0c1.539,1.541,1.539,4.045,0,5.586l-2,2c-0.687,0.687-1.568,1.05-2.468,1.124l-1.817,1.817
	c1.974,0.51,4.156,0.017,5.698-1.527l2-2C23.42,8.994,24,7.471,24,5.947S23.42,2.9,22.26,1.74C19.94-0.58,16.165-0.58,13.846,1.74z"
	/>
<rect x="6.757" y="11" transform="matrix(0.7071 -0.7071 0.7071 0.7071 -4.9706 12)" width="10.485" height="2"/>
<rect x="20" y="15.382" transform="matrix(0.4472 -0.8944 0.8944 0.4472 -4.044 28.4567)" width="2" height="4.236"/>
<rect x="16.5" y="18.882" transform="matrix(0.8944 -0.4472 0.4472 0.8944 -7.544 10.0433)" width="2" height="4.236"/>
<rect x="5.5" y="0.882" transform="matrix(0.8944 -0.4472 0.4472 0.8944 -0.6554 3.2236)" width="2" height="4.236"/>
<rect x="2" y="4.382" transform="matrix(0.4472 -0.8944 0.8944 0.4472 -4.1554 6.2764)" width="2" height="4.236"/>
</svg>
