<?xml version="1.0" encoding="utf-8"?>
<!-- Generator: Adobe Illustrator 19.2.1, SVG Export Plug-In . SVG Version: 6.00 Build 0)  -->
<!DOCTYPE svg PUBLIC "-//W3C//DTD SVG 1.1//EN" "http://www.w3.org/Graphics/SVG/1.1/DTD/svg11.dtd">
<svg version="1.1" id="Layer_1" xmlns="http://www.w3.org/2000/svg" xmlns:xlink="http://www.w3.org/1999/xlink" x="0px" y="0px"
	 width="24px" height="24px" viewBox="0 0 24 24" enable-background="new 0 0 24 24" xml:space="preserve">
<path d="M7.293,16.707C7.488,16.902,7.744,17,8,17s0.512-0.098,0.707-0.293L12,13.414l3.293,3.293C15.488,16.902,15.744,17,16,17
	s0.512-0.098,0.707-0.293c0.391-0.391,0.391-1.023,0-1.414L13.414,12l3.293-3.293c0.391-0.391,0.391-1.023,0-1.414
	s-1.023-0.391-1.414,0L12,10.586L8.707,7.293c-0.391-0.391-1.023-0.391-1.414,0s-0.391,1.023,0,1.414L10.586,12l-3.293,3.293
	C6.902,15.684,6.902,16.316,7.293,16.707z"/>
</svg>
