<?xml version="1.0" encoding="utf-8"?>
<!-- Generator: Adobe Illustrator 19.2.1, SVG Export Plug-In . SVG Version: 6.00 Build 0)  -->
<!DOCTYPE svg PUBLIC "-//W3C//DTD SVG 1.1//EN" "http://www.w3.org/Graphics/SVG/1.1/DTD/svg11.dtd">
<svg version="1.1" id="Layer_1" xmlns="http://www.w3.org/2000/svg" xmlns:xlink="http://www.w3.org/1999/xlink" x="0px" y="0px"
	 width="24px" height="24px" viewBox="0 0 24 24" enable-background="new 0 0 24 24" xml:space="preserve">
<path d="M10,0C4.486,0,0,4.486,0,10s4.486,10,10,10c2.035,0,3.928-0.614,5.509-1.663l4.369,4.37c0.391,0.391,1.024,0.391,1.414,0
	l1.414-1.414c0.391-0.391,0.391-1.024,0-1.414l-4.37-4.37C19.386,13.928,20,12.035,20,10C20,4.486,15.514,0,10,0z M10,18
	c-4.411,0-8-3.589-8-8s3.589-8,8-8s8,3.589,8,8S14.411,18,10,18z"/>
</svg>
