<?xml version="1.0" encoding="utf-8"?>
<!-- Generator: Adobe Illustrator 19.2.1, SVG Export Plug-In . SVG Version: 6.00 Build 0)  -->
<!DOCTYPE svg PUBLIC "-//W3C//DTD SVG 1.1//EN" "http://www.w3.org/Graphics/SVG/1.1/DTD/svg11.dtd">
<svg version="1.1" id="Layer_1" xmlns="http://www.w3.org/2000/svg" xmlns:xlink="http://www.w3.org/1999/xlink" x="0px" y="0px"
	 width="24px" height="24px" viewBox="0 0 24 24" enable-background="new 0 0 24 24" xml:space="preserve">
<path d="M10,0C4.486,0,0,4.486,0,10s4.486,10,10,10c1.883,0,3.639-0.533,5.145-1.441l4.148,4.148C19.488,22.902,19.744,23,20,23
	s0.512-0.098,0.707-0.293l2-2c0.391-0.391,0.391-1.023,0-1.414l-4.148-4.148C19.467,13.639,20,11.883,20,10C20,4.486,15.514,0,10,0z
	 M14,11h-3v3H9v-3H6V9h3V6h2v3h3V11z"/>
</svg>
