<?xml version="1.0" encoding="utf-8"?>
<!-- Generator: Adobe Illustrator 19.2.1, SVG Export Plug-In . SVG Version: 6.00 Build 0)  -->
<!DOCTYPE svg PUBLIC "-//W3C//DTD SVG 1.1//EN" "http://www.w3.org/Graphics/SVG/1.1/DTD/svg11.dtd">
<svg version="1.1" id="Layer_1" xmlns="http://www.w3.org/2000/svg" xmlns:xlink="http://www.w3.org/1999/xlink" x="0px" y="0px"
	 width="24px" height="24px" viewBox="0 0 24 24" enable-background="new 0 0 24 24" xml:space="preserve">
<polygon fill="#222221" points="20,16 18,16 18,18 16,18 16,20 18,20 18,22 20,22 20,20 22,20 22,18 20,18 "/>
<path fill="#222221" d="M17,1c-1.87,0-3.627,0.729-4.949,2.05C12.034,3.067,12.017,3.084,12,3.102
	c-0.017-0.018-0.033-0.034-0.05-0.051C10.627,1.729,8.87,1,7,1S3.373,1.729,2.05,3.051S0,6.13,0,8s0.728,3.627,2.05,4.949l9.95,9.95
	l2.289-2.289C14.115,20.103,14,19.567,14,19c0-2.761,2.239-5,5-5c0.567,0,1.102,0.115,1.61,0.289l1.339-1.339
	C23.272,11.627,24,9.87,24,8c0-1.869-0.728-3.627-2.05-4.949S18.87,1,17,1z"/>
</svg>
