<?xml version="1.0" encoding="utf-8"?>
<!-- Generator: Adobe Illustrator 19.2.1, SVG Export Plug-In . SVG Version: 6.00 Build 0)  -->
<!DOCTYPE svg PUBLIC "-//W3C//DTD SVG 1.1//EN" "http://www.w3.org/Graphics/SVG/1.1/DTD/svg11.dtd">
<svg version="1.1" id="Layer_1" xmlns="http://www.w3.org/2000/svg" xmlns:xlink="http://www.w3.org/1999/xlink" x="0px" y="0px"
	 width="24px" height="24px" viewBox="0 0 24 24" enable-background="new 0 0 24 24" xml:space="preserve">
<rect y="20" fill="#222221" width="24" height="2"/>
<path fill="#222221" d="M4,7C3.448,7,3,7.448,3,8v9c0,0.552,0.448,1,1,1h2c0.552,0,1-0.448,1-1V8c0-0.552-0.448-1-1-1H4z"/>
<path fill="#222221" d="M10,3v14c0,0.552,0.448,1,1,1h2c0.552,0,1-0.448,1-1V3c0-0.552-0.448-1-1-1h-2C10.448,2,10,2.448,10,3z"/>
<path fill="#222221" d="M18,11c-0.552,0-1,0.448-1,1v5c0,0.552,0.448,1,1,1h2c0.552,0,1-0.448,1-1v-5c0-0.552-0.448-1-1-1H18z"/>
</svg>
