<?xml version="1.0" encoding="utf-8"?>
<!-- Generator: Adobe Illustrator 19.2.1, SVG Export Plug-In . SVG Version: 6.00 Build 0)  -->
<!DOCTYPE svg PUBLIC "-//W3C//DTD SVG 1.1//EN" "http://www.w3.org/Graphics/SVG/1.1/DTD/svg11.dtd">
<svg version="1.1" id="Layer_1" xmlns="http://www.w3.org/2000/svg" xmlns:xlink="http://www.w3.org/1999/xlink" x="0px" y="0px"
	 width="24px" height="24px" viewBox="0 0 24 24" enable-background="new 0 0 24 24" xml:space="preserve">
<path d="M0,5v17c0,0.553,0.447,1,1,1s1-0.447,1-1c0-0.815,1.753-2,4.5-2c1.268,0,2.325,0.253,3.095,0.605
	C10.255,20.907,11,20.423,11,19.696V2.062C9.849,1.397,8.28,1,6.5,1C2.794,1,0,2.72,0,5z"/>
<path d="M17.5,1c-1.78,0-3.349,0.397-4.5,1.062v17.634c0,0.727,0.745,1.211,1.405,0.909C15.175,20.253,16.232,20,17.5,20
	c2.747,0,4.5,1.185,4.5,2c0,0.553,0.447,1,1,1s1-0.447,1-1V5C24,2.72,21.206,1,17.5,1z"/>
</svg>
