<?xml version="1.0" encoding="utf-8"?>
<!-- Generator: Adobe Illustrator 19.2.1, SVG Export Plug-In . SVG Version: 6.00 Build 0)  -->
<!DOCTYPE svg PUBLIC "-//W3C//DTD SVG 1.1//EN" "http://www.w3.org/Graphics/SVG/1.1/DTD/svg11.dtd">
<svg version="1.1" id="Layer_1" xmlns="http://www.w3.org/2000/svg" xmlns:xlink="http://www.w3.org/1999/xlink" x="0px" y="0px"
	 width="24px" height="24px" viewBox="0 0 24 24" enable-background="new 0 0 24 24" xml:space="preserve">
<path fill="#222221" d="M9.707,7.707c0.391-0.391,0.391-1.024,0-1.414l-5-5c-0.391-0.391-1.024-0.391-1.414,0L0,4.586
	c0,5.158,1.829,9.709,4.885,13.115l-3.592,3.592c-0.391,0.391-0.391,1.023,0,1.414C1.488,22.902,1.744,23,2,23
	s0.512-0.098,0.707-0.293l20-20c0.391-0.391,0.391-1.023,0-1.414s-1.023-0.391-1.414,0L9,13.586L6.414,11L9.707,7.707z"/>
<path fill="#222221" d="M17.707,14.293c-0.391-0.391-1.024-0.391-1.414,0L13,17.586l-1.172-1.172l-3.962,3.962
	C11.053,22.663,15.011,24,19.414,24l3.293-3.293c0.391-0.391,0.391-1.024,0-1.414L17.707,14.293z"/>
</svg>
