<?xml version="1.0" encoding="utf-8"?>
<!-- Generator: Adobe Illustrator 19.2.1, SVG Export Plug-In . SVG Version: 6.00 Build 0)  -->
<!DOCTYPE svg PUBLIC "-//W3C//DTD SVG 1.1//EN" "http://www.w3.org/Graphics/SVG/1.1/DTD/svg11.dtd">
<svg version="1.1" id="Layer_1" xmlns="http://www.w3.org/2000/svg" xmlns:xlink="http://www.w3.org/1999/xlink" x="0px" y="0px"
	 width="24px" height="24px" viewBox="0 0 24 24" enable-background="new 0 0 24 24" xml:space="preserve">
<path d="M6,6v2H4C3.448,8,3,8.448,3,9v14c0,0.552,0.448,1,1,1h16c0.552,0,1-0.448,1-1V9c0-0.552-0.448-1-1-1H8V6
	c0-2.206,1.794-4,4-4s4,1.794,4,4h2c0-3.309-2.691-6-6-6S6,2.691,6,6z M12,12c1.654,0,3,1.346,3,3c0,1.302-0.839,2.402-2,2.816V20
	h-2v-2.184C9.839,17.402,9,16.302,9,15C9,13.346,10.346,12,12,12z"/>
</svg>
