<?xml version="1.0" encoding="utf-8"?>
<!-- Generator: Adobe Illustrator 19.2.1, SVG Export Plug-In . SVG Version: 6.00 Build 0)  -->
<!DOCTYPE svg PUBLIC "-//W3C//DTD SVG 1.1//EN" "http://www.w3.org/Graphics/SVG/1.1/DTD/svg11.dtd">
<svg version="1.1" id="Layer_1" xmlns="http://www.w3.org/2000/svg" xmlns:xlink="http://www.w3.org/1999/xlink" x="0px" y="0px"
	 width="24px" height="24px" viewBox="0 0 24 24" enable-background="new 0 0 24 24" xml:space="preserve">
<path fill="#222221" d="M10,19c-0.465,0-0.931-0.026-1.394-0.072c2.013,1.586,4.939,2.376,7.946,1.967L22,23.618v-5.215
	c1.293-1.243,2-2.791,2-4.403c0-1.627-0.723-3.178-2.035-4.425C21.604,14.821,16.384,19,10,19z"/>
<path fill="#222221" d="M6.833,16.584C7.829,16.85,8.892,17,10,17c5.523,0,10-3.582,10-8s-4.477-8-10-8C4.477,1,0,4.582,0,9
	c0,1.797,0.75,3.45,2,4.785V19L6.833,16.584z"/>
</svg>
