<?xml version="1.0" encoding="utf-8"?>
<!-- Generator: Adobe Illustrator 19.2.1, SVG Export Plug-In . SVG Version: 6.00 Build 0)  -->
<!DOCTYPE svg PUBLIC "-//W3C//DTD SVG 1.1//EN" "http://www.w3.org/Graphics/SVG/1.1/DTD/svg11.dtd">
<svg version="1.1" id="Layer_1" xmlns="http://www.w3.org/2000/svg" xmlns:xlink="http://www.w3.org/1999/xlink" x="0px" y="0px"
	 width="24px" height="24px" viewBox="0 0 24 24" enable-background="new 0 0 24 24" xml:space="preserve">
<path d="M12,24c6.617,0,12-5.383,12-12S18.617,0,12,0S0,5.383,0,12S5.383,24,12,24z M5.293,11.293c0.391-0.391,1.023-0.391,1.414,0
	L10,14.586l7.293-7.293c0.391-0.391,1.023-0.391,1.414,0s0.391,1.023,0,1.414l-8,8C10.512,16.902,10.256,17,10,17
	s-0.512-0.098-0.707-0.293l-4-4C4.902,12.316,4.902,11.684,5.293,11.293z"/>
</svg>
