<?xml version="1.0" encoding="utf-8"?>
<!-- Generator: Adobe Illustrator 19.2.1, SVG Export Plug-In . SVG Version: 6.00 Build 0)  -->
<!DOCTYPE svg PUBLIC "-//W3C//DTD SVG 1.1//EN" "http://www.w3.org/Graphics/SVG/1.1/DTD/svg11.dtd">
<svg version="1.1" id="Layer_1" xmlns="http://www.w3.org/2000/svg" xmlns:xlink="http://www.w3.org/1999/xlink" x="0px" y="0px"
	 width="24px" height="24px" viewBox="0 0 24 24" enable-background="new 0 0 24 24" xml:space="preserve">
<path d="M1,10h8c0.552,0,1-0.447,1-1V1c0-0.553-0.448-1-1-1H1C0.448,0,0,0.447,0,1v8C0,9.553,0.448,10,1,10z"/>
<path d="M23,0h-8c-0.552,0-1,0.447-1,1v8c0,0.553,0.448,1,1,1h8c0.552,0,1-0.447,1-1V1C24,0.447,23.552,0,23,0z"/>
<path d="M1,24h8c0.552,0,1-0.447,1-1v-8c0-0.553-0.448-1-1-1H1c-0.552,0-1,0.447-1,1v8C0,23.553,0.448,24,1,24z"/>
<path d="M23,14h-8c-0.552,0-1,0.447-1,1v8c0,0.553,0.448,1,1,1h8c0.552,0,1-0.447,1-1v-8C24,14.447,23.552,14,23,14z"/>
</svg>
