<?xml version="1.0" encoding="utf-8"?>
<!-- Generator: Adobe Illustrator 19.2.1, SVG Export Plug-In . SVG Version: 6.00 Build 0)  -->
<!DOCTYPE svg PUBLIC "-//W3C//DTD SVG 1.1//EN" "http://www.w3.org/Graphics/SVG/1.1/DTD/svg11.dtd">
<svg version="1.1" id="Layer_1" xmlns="http://www.w3.org/2000/svg" xmlns:xlink="http://www.w3.org/1999/xlink" x="0px" y="0px"
	 width="24px" height="24px" viewBox="0 0 24 24" enable-background="new 0 0 24 24" xml:space="preserve">
<path d="M12,1C8.095,1,5,4.095,5,8c0,0,0,1.403,0,3c0,3.333-3,4.118-3,6c0,1.674,3.864,3,10,3s10-1.326,10-3c0-1.882-3-2.667-3-6
	c0-1.597,0-3,0-3C19,4.095,15.905,1,12,1z"/>
<path d="M8.472,21.846C9.142,23.12,10.464,24,12,24s2.858-0.88,3.528-2.154C14.443,21.945,13.271,22,12,22
	S9.557,21.945,8.472,21.846z"/>
</svg>
