<?xml version="1.0" encoding="utf-8"?>
<!-- Generator: Adobe Illustrator 19.2.1, SVG Export Plug-In . SVG Version: 6.00 Build 0)  -->
<!DOCTYPE svg PUBLIC "-//W3C//DTD SVG 1.1//EN" "http://www.w3.org/Graphics/SVG/1.1/DTD/svg11.dtd">
<svg version="1.1" id="Layer_1" xmlns="http://www.w3.org/2000/svg" xmlns:xlink="http://www.w3.org/1999/xlink" x="0px" y="0px"
	 width="24px" height="24px" viewBox="0 0 24 24" enable-background="new 0 0 24 24" xml:space="preserve">
<path d="M19.707,4.293c-0.391-0.391-1.023-0.391-1.414,0L12,10.586L5.707,4.293c-0.391-0.391-1.023-0.391-1.414,0
	s-0.391,1.023,0,1.414L10.586,12l-6.293,6.293c-0.391,0.391-0.391,1.023,0,1.414C4.488,19.902,4.744,20,5,20
	s0.512-0.098,0.707-0.293L12,13.414l6.293,6.293C18.488,19.902,18.744,20,19,20s0.512-0.098,0.707-0.293
	c0.391-0.391,0.391-1.023,0-1.414L13.414,12l6.293-6.293C20.098,5.316,20.098,4.684,19.707,4.293z"/>
</svg>
