<?xml version="1.0" encoding="utf-8"?>
<!-- Generator: Adobe Illustrator 19.2.1, SVG Export Plug-In . SVG Version: 6.00 Build 0)  -->
<!DOCTYPE svg PUBLIC "-//W3C//DTD SVG 1.1//EN" "http://www.w3.org/Graphics/SVG/1.1/DTD/svg11.dtd">
<svg version="1.1" id="Layer_1" xmlns="http://www.w3.org/2000/svg" xmlns:xlink="http://www.w3.org/1999/xlink" x="0px" y="0px"
	 width="24px" height="24px" viewBox="0 0 24 24" enable-background="new 0 0 24 24" xml:space="preserve">
<path d="M18.94,13.94C18.631,13.976,18.318,14,18,14c-0.305,0-0.608-0.018-0.912-0.053l-3.641,4.499l4.518,4.518
	c1.381,1.381,3.619,1.381,5,0v0c1.381-1.381,1.381-3.619,0-5L18.94,13.94z"/>
<path d="M20.271,6.771l-3.042-3.042l3.208-3.208C19.692,0.189,18.869,0,18,0c-3.314,0-6,2.686-6,6c0,0.594,0.089,1.166,0.25,1.708
	l-1.729,1.399L6.707,5.293L8,4L4,0L0,4l4,4l1.293-1.293l3.665,3.665l-7.497,6.066c-0.891,0.787-1.423,1.919-1.459,3.106
	c-0.037,1.188,0.424,2.351,1.264,3.19C2.082,23.551,3.167,24,4.321,24c1.239,0,2.421-0.532,3.241-1.461l8.73-10.789
	C16.834,11.911,17.406,12,18,12c3.314,0,6-2.686,6-6c0-0.869-0.189-1.692-0.521-2.438L20.271,6.771z"/>
</svg>
