<?xml version="1.0" encoding="utf-8"?>
<!-- Generator: Adobe Illustrator 19.2.1, SVG Export Plug-In . SVG Version: 6.00 Build 0)  -->
<!DOCTYPE svg PUBLIC "-//W3C//DTD SVG 1.1//EN" "http://www.w3.org/Graphics/SVG/1.1/DTD/svg11.dtd">
<svg version="1.1" id="Layer_1" xmlns="http://www.w3.org/2000/svg" xmlns:xlink="http://www.w3.org/1999/xlink" x="0px" y="0px"
	 width="24px" height="24px" viewBox="0 0 24 24" enable-background="new 0 0 24 24" xml:space="preserve">
<path d="M7.707,10.293c-0.391-0.391-1.023-0.391-1.414,0s-0.391,1.023,0,1.414l4,4C10.488,15.902,10.744,16,11,16
	s0.512-0.098,0.707-0.293l11-11c0.391-0.391,0.391-1.023,0-1.414s-1.023-0.391-1.414,0L11,13.586L7.707,10.293z"/>
<path d="M1,24h19c0.552,0,1-0.448,1-1V13c0-0.552-0.448-1-1-1s-1,0.448-1,1v9H2V5h13c0.552,0,1-0.448,1-1s-0.448-1-1-1H1
	C0.448,3,0,3.448,0,4v19C0,23.552,0.448,24,1,24z"/>
</svg>
