<?xml version="1.0" encoding="utf-8"?>
<!-- Generator: Adobe Illustrator 19.2.1, SVG Export Plug-In . SVG Version: 6.00 Build 0)  -->
<!DOCTYPE svg PUBLIC "-//W3C//DTD SVG 1.1//EN" "http://www.w3.org/Graphics/SVG/1.1/DTD/svg11.dtd">
<svg version="1.1" id="Layer_1" xmlns="http://www.w3.org/2000/svg" xmlns:xlink="http://www.w3.org/1999/xlink" x="0px" y="0px"
	 width="24px" height="24px" viewBox="0 0 24 24" enable-background="new 0 0 24 24" xml:space="preserve">
<path d="M1,23h21c0.553,0,1-0.447,1-1V1c0-0.553-0.447-1-1-1H1C0.447,0,0,0.447,0,1v21C0,22.553,0.447,23,1,23z M16,4h3v3h-3V4z
	 M16,10h3v3h-3V10z M16,16h3v3h-3V16z M10,4h3v3h-3V4z M10,10h3v3h-3V10z M10,16h3v3h-3V16z M4,4h3v3H4V4z M4,10h3v3H4V10z M4,16h3
	v3H4V16z"/>
</svg>
