<?xml version="1.0" encoding="utf-8"?>
<!-- Generator: Adobe Illustrator 19.2.1, SVG Export Plug-In . SVG Version: 6.00 Build 0)  -->
<!DOCTYPE svg PUBLIC "-//W3C//DTD SVG 1.1//EN" "http://www.w3.org/Graphics/SVG/1.1/DTD/svg11.dtd">
<svg version="1.1" id="Layer_1" xmlns="http://www.w3.org/2000/svg" xmlns:xlink="http://www.w3.org/1999/xlink" x="0px" y="0px"
	 width="24px" height="24px" viewBox="0 0 24 24" enable-background="new 0 0 24 24" xml:space="preserve">
<path d="M23,2H1C0.448,2,0,2.447,0,3v18c0,0.553,0.448,1,1,1h22c0.552,0,1-0.447,1-1V3C24,2.447,23.552,2,23,2z M5.707,17.707
	C5.512,17.902,5.256,18,5,18s-0.512-0.098-0.707-0.293c-0.391-0.391-0.391-1.023,0-1.414l2.5-2.5l1.414,1.414L5.707,17.707z
	 M19.707,17.707C19.512,17.902,19.256,18,19,18s-0.512-0.098-0.707-0.293l-2.5-2.5l1.414-1.414l2.5,2.5
	C20.098,16.684,20.098,17.316,19.707,17.707z M19.707,7.707l-7,7C12.512,14.902,12.256,15,12,15s-0.512-0.098-0.707-0.293l-7-7
	c-0.391-0.391-0.391-1.023,0-1.414s1.023-0.391,1.414,0L12,12.586l6.293-6.293c0.391-0.391,1.023-0.391,1.414,0
	S20.098,7.316,19.707,7.707z"/>
</svg>
