<?xml version="1.0" encoding="utf-8"?>
<!-- Generator: Adobe Illustrator 19.2.1, SVG Export Plug-In . SVG Version: 6.00 Build 0)  -->
<!DOCTYPE svg PUBLIC "-//W3C//DTD SVG 1.1//EN" "http://www.w3.org/Graphics/SVG/1.1/DTD/svg11.dtd">
<svg version="1.1" id="Layer_1" xmlns="http://www.w3.org/2000/svg" xmlns:xlink="http://www.w3.org/1999/xlink" x="0px" y="0px"
	 width="24px" height="24px" viewBox="0 0 24 24" enable-background="new 0 0 24 24" xml:space="preserve">
<path d="M3,11c-0.552,0-1,0.448-1,1v9c0,0.552,0.448,1,1,1h2c0.552,0,1-0.448,1-1v-9c0-0.552-0.448-1-1-1H3z"/>
<path d="M12.477,2.14C11.823,1.758,11,2.237,11,2.994v4l-3,3.6v10.4l0.257,0.129C9.403,21.696,10.719,22,12,22h7
	c1.105,0,2-0.901,2-2.006l1-8C22,10.89,21.105,10,20,10h-5V6.994C15,5.307,13.955,3.003,12.477,2.14z"/>
</svg>
