<?xml version="1.0" encoding="utf-8"?>
<!-- Generator: Adobe Illustrator 19.2.1, SVG Export Plug-In . SVG Version: 6.00 Build 0)  -->
<!DOCTYPE svg PUBLIC "-//W3C//DTD SVG 1.1//EN" "http://www.w3.org/Graphics/SVG/1.1/DTD/svg11.dtd">
<svg version="1.1" id="Layer_1" xmlns="http://www.w3.org/2000/svg" xmlns:xlink="http://www.w3.org/1999/xlink" x="0px" y="0px"
	 width="24px" height="24px" viewBox="0 0 24 24" enable-background="new 0 0 24 24" xml:space="preserve">
<path d="M12,0C5.383,0,0,5.383,0,12s5.383,12,12,12s12-5.383,12-12S18.617,0,12,0z M16.707,15.293c0.391,0.391,0.391,1.023,0,1.414
	C16.512,16.902,16.256,17,16,17s-0.512-0.098-0.707-0.293L12,13.414l-3.293,3.293C8.512,16.902,8.256,17,8,17
	s-0.512-0.098-0.707-0.293c-0.391-0.391-0.391-1.023,0-1.414L10.586,12L7.293,8.707c-0.391-0.391-0.391-1.023,0-1.414
	s1.023-0.391,1.414,0L12,10.586l3.293-3.293c0.391-0.391,1.023-0.391,1.414,0s0.391,1.023,0,1.414L13.414,12L16.707,15.293z"/>
</svg>
