<?xml version="1.0" encoding="utf-8"?>
<!-- Generator: Adobe Illustrator 19.2.1, SVG Export Plug-In . SVG Version: 6.00 Build 0)  -->
<!DOCTYPE svg PUBLIC "-//W3C//DTD SVG 1.1//EN" "http://www.w3.org/Graphics/SVG/1.1/DTD/svg11.dtd">
<svg version="1.1" id="Layer_1" xmlns="http://www.w3.org/2000/svg" xmlns:xlink="http://www.w3.org/1999/xlink" x="0px" y="0px"
	 width="24px" height="24px" viewBox="0 0 24 24" enable-background="new 0 0 24 24" xml:space="preserve">
<path d="M23,1H6v3h18V2C24,1.447,23.552,1,23,1z"/>
<path d="M4,1H1C0.448,1,0,1.447,0,2v2h4V1z"/>
<path d="M0,22c0,0.553,0.448,1,1,1h22c0.552,0,1-0.447,1-1V6H0V22z M8,13h3v-3h2v3h3v2h-3v3h-2v-3H8V13z"/>
</svg>
