<?xml version="1.0" encoding="utf-8"?>
<!-- Generator: Adobe Illustrator 19.2.1, SVG Export Plug-In . SVG Version: 6.00 Build 0)  -->
<!DOCTYPE svg PUBLIC "-//W3C//DTD SVG 1.1//EN" "http://www.w3.org/Graphics/SVG/1.1/DTD/svg11.dtd">
<svg version="1.1" id="Layer_1" xmlns="http://www.w3.org/2000/svg" xmlns:xlink="http://www.w3.org/1999/xlink" x="0px" y="0px"
	 width="24px" height="24px" viewBox="0 0 24 24" enable-background="new 0 0 24 24" xml:space="preserve">
<path d="M18.813,0.419C18.626,0.156,18.323,0,18,0h-3v7c0,0.553-0.447,1-1,1H6C5.447,8,5,7.553,5,7V0H1C0.447,0,0,0.447,0,1v22
	c0,0.553,0.447,1,1,1h22c0.553,0,1-0.447,1-1V8c0-0.208-0.065-0.412-0.187-0.581L18.813,0.419z M19,20c0,0.553-0.447,1-1,1H6
	c-0.553,0-1-0.447-1-1v-5c0-0.553,0.447-1,1-1h12c0.553,0,1,0.447,1,1V20z"/>
<rect x="10" width="3" height="6"/>
</svg>
