<?xml version="1.0" encoding="utf-8"?>
<!-- Generator: Adobe Illustrator 19.2.1, SVG Export Plug-In . SVG Version: 6.00 Build 0)  -->
<!DOCTYPE svg PUBLIC "-//W3C//DTD SVG 1.1//EN" "http://www.w3.org/Graphics/SVG/1.1/DTD/svg11.dtd">
<svg version="1.1" id="Layer_1" xmlns="http://www.w3.org/2000/svg" xmlns:xlink="http://www.w3.org/1999/xlink" x="0px" y="0px"
	 width="24px" height="24px" viewBox="0 0 24 24" enable-background="new 0 0 24 24" xml:space="preserve">
<path d="M11,23c6.065,0,11-4.935,11-11c0-0.98-0.129-1.953-0.384-2.89c-0.146-0.534-0.694-0.848-1.228-0.703
	c-0.532,0.145-0.847,0.694-0.702,1.227C19.895,10.401,20,11.196,20,12c0,4.962-4.037,9-9,9s-9-4.038-9-9s4.037-9,9-9
	c1.676,0,3.312,0.464,4.729,1.341c0.47,0.29,1.086,0.146,1.377-0.324c0.29-0.47,0.146-1.086-0.324-1.376C15.048,1.567,13.048,1,11,1
	C4.935,1,0,5.935,0,12S4.935,23,11,23z"/>
<path d="M7.707,9.293c-0.391-0.391-1.023-0.391-1.414,0s-0.391,1.023,0,1.414l4,4C10.488,14.902,10.744,15,11,15
	s0.512-0.098,0.707-0.293l11-11c0.391-0.391,0.391-1.023,0-1.414s-1.023-0.391-1.414,0L11,12.586L7.707,9.293z"/>
</svg>
