<?xml version="1.0" encoding="utf-8"?>
<!-- Generator: Adobe Illustrator 19.2.1, SVG Export Plug-In . SVG Version: 6.00 Build 0)  -->
<!DOCTYPE svg PUBLIC "-//W3C//DTD SVG 1.1//EN" "http://www.w3.org/Graphics/SVG/1.1/DTD/svg11.dtd">
<svg version="1.1" id="Layer_1" xmlns="http://www.w3.org/2000/svg" xmlns:xlink="http://www.w3.org/1999/xlink" x="0px" y="0px"
	 width="24px" height="24px" viewBox="0 0 24 24" enable-background="new 0 0 24 24" xml:space="preserve">
<path d="M19,10c2.757,0,5-2.243,5-5s-2.243-5-5-5s-5,2.243-5,5c0,0.448,0.078,0.874,0.189,1.288L8.913,8.925
	C7.996,7.762,6.592,7,5,7c-2.757,0-5,2.243-5,5s2.243,5,5,5c1.613,0,3.034-0.78,3.949-1.969l5.257,2.628
	C14.085,18.088,14,18.532,14,19c0,2.757,2.243,5,5,5s5-2.243,5-5s-2.243-5-5-5c-1.571,0-2.959,0.743-3.876,1.881l-5.296-2.647
	C9.929,12.837,10,12.428,10,12c0-0.448-0.078-0.874-0.189-1.288l5.277-2.638C16.004,9.238,17.408,10,19,10z"/>
</svg>
