<?xml version="1.0" encoding="utf-8"?>
<!-- Generator: Adobe Illustrator 19.2.1, SVG Export Plug-In . SVG Version: 6.00 Build 0)  -->
<!DOCTYPE svg PUBLIC "-//W3C//DTD SVG 1.1//EN" "http://www.w3.org/Graphics/SVG/1.1/DTD/svg11.dtd">
<svg version="1.1" id="Layer_1" xmlns="http://www.w3.org/2000/svg" xmlns:xlink="http://www.w3.org/1999/xlink" x="0px" y="0px"
	 width="24px" height="24px" viewBox="0 0 24 24" enable-background="new 0 0 24 24" xml:space="preserve">
<path d="M21,24c0.553,0,1-0.447,1-1V11c0-0.553-0.447-1-1-1s-1,0.447-1,1v11H2V4h11c0.553,0,1-0.447,1-1s-0.447-1-1-1H1
	C0.447,2,0,2.447,0,3v20c0,0.553,0.447,1,1,1H21z"/>
<path d="M21.293,1.293l-11,11c-0.391,0.391-0.391,1.023,0,1.414C10.488,13.902,10.744,14,11,14s0.512-0.098,0.707-0.293l11-11
	c0.391-0.391,0.391-1.023,0-1.414S21.684,0.902,21.293,1.293z"/>
</svg>
