<?xml version="1.0" encoding="utf-8"?>
<!-- Generator: Adobe Illustrator 19.2.1, SVG Export Plug-In . SVG Version: 6.00 Build 0)  -->
<!DOCTYPE svg PUBLIC "-//W3C//DTD SVG 1.1//EN" "http://www.w3.org/Graphics/SVG/1.1/DTD/svg11.dtd">
<svg version="1.1" id="Layer_1" xmlns="http://www.w3.org/2000/svg" xmlns:xlink="http://www.w3.org/1999/xlink" x="0px" y="0px"
	 width="24px" height="24px" viewBox="0 0 24 24" enable-background="new 0 0 24 24" xml:space="preserve">
<path d="M22.404,4.562l-3.208,3.208l-3.042-3.042l3.208-3.208C18.617,1.189,17.794,1,16.925,1c-3.314,0-6,2.686-6,6
	c0,0.647,0.105,1.268,0.294,1.851l-9.721,7.27c-0.51,0.382-0.569,1.125-0.125,1.582l4.84,4.977c0.455,0.468,1.221,0.415,1.608-0.111
	l7.255-9.863C15.66,12.895,16.28,13,16.925,13c3.314,0,6-2.686,6-6C22.925,6.131,22.736,5.308,22.404,4.562z"/>
</svg>
