<?xml version="1.0" encoding="utf-8"?>
<!-- Generator: Adobe Illustrator 19.2.1, SVG Export Plug-In . SVG Version: 6.00 Build 0)  -->
<!DOCTYPE svg PUBLIC "-//W3C//DTD SVG 1.1//EN" "http://www.w3.org/Graphics/SVG/1.1/DTD/svg11.dtd">
<svg version="1.1" id="Layer_1" xmlns="http://www.w3.org/2000/svg" xmlns:xlink="http://www.w3.org/1999/xlink" x="0px" y="0px"
	 width="24px" height="24px" viewBox="0 0 24 24" enable-background="new 0 0 24 24" xml:space="preserve">
<path d="M21.839,1.013c-0.452,0.074-11.126,1.861-15.546,6.28c-3.112,3.112-3.271,6.51-2.831,8.87l3.756-2.204
	c0.506-0.297,1.021,0.37,0.607,0.785l-3.69,3.69c0.002,0.004,0.003,0.009,0.005,0.012l-2.847,2.847
	c-0.391,0.391-0.391,1.023,0,1.414C1.488,22.902,1.744,23,2,23s0.512-0.098,0.707-0.293l2.846-2.846
	c0.833,0.356,2.335,0.863,4.168,0.863c2.187,0,4.193-0.709,5.965-2.107c0.316-0.25,0.452-0.665,0.344-1.053l-1.399-5.041
	l3.593,1.408c0.496,0.195,1.055-0.032,1.275-0.517C21.64,8.714,22.926,2.463,22.98,2.199c0.065-0.322-0.031-0.655-0.259-0.893
	C22.493,1.07,22.162,0.959,21.839,1.013z"/>
</svg>
