<svg xmlns="http://www.w3.org/2000/svg" xmlns:xlink="http://www.w3.org/1999/xlink" x="0px" y="0px" width="48px" height="48px" viewBox="0 0 48 48"><g >
<path fill="#76B5B5" d="M32,47H2c-0.553,0-1-0.447-1-1V18c0-0.553,0.447-1,1-1h30c0.553,0,1,0.447,1,1v28C33,46.553,32.553,47,32,47
	z"/>
<path fill="#9BCED3" d="M38,35H10c-0.553,0-1-0.447-1-1V2c0-0.553,0.447-1,1-1h28c5.047,0,9,7.468,9,17S43.047,35,38,35z"/>
<path fill="#BFDEE0" d="M10,35c-5.047,0-9-7.468-9-17S4.953,1,10,1s9,7.468,9,17S15.047,35,10,35z"/>
<path fill="#76B5B5" d="M10,21c-0.553,0-1-0.447-1-1v-4c0-0.553,0.447-1,1-1s1,0.447,1,1v4C11,20.553,10.553,21,10,21z"/>
</g></svg>