<svg xmlns="http://www.w3.org/2000/svg" xmlns:xlink="http://www.w3.org/1999/xlink" x="0px" y="0px" width="48px" height="48px" viewBox="0 0 48 48"><g >
<path fill="#B3B3B3" d="M6,47c-0.552,0-1-0.448-1-1v-4c0-0.552,0.448-1,1-1s1,0.448,1,1v4C7,46.552,6.552,47,6,47z"/>
<path fill="#B3B3B3" d="M42,47c-0.552,0-1-0.448-1-1v-4c0-0.552,0.448-1,1-1s1,0.448,1,1v4C43,46.552,42.552,47,42,47z"/>
<path fill="#A67C52" d="M23,15H1V4c0-0.552,0.448-1,1-1h21V15z"/>
<rect x="1" y="17" fill="#A67C52" width="22" height="12"/>
<path fill="#A67C52" d="M23,43H2c-0.552,0-1-0.448-1-1V31h22V43z"/>
<path fill="#A67C52" d="M47,15H25V3h21c0.552,0,1,0.448,1,1V15z"/>
<rect x="25" y="17" fill="#A67C52" width="22" height="12"/>
<path fill="#A67C52" d="M46,43H25V31h22v11C47,42.552,46.552,43,46,43z"/>
<rect x="23" y="3" fill="#5E4027" width="2" height="40"/>
<rect x="1" y="15" fill="#5E4027" width="46" height="2"/>
<rect x="1" y="29" fill="#5E4027" width="46" height="2"/>
<path fill="#E6E6E6" d="M14,10h-4c-0.552,0-1-0.448-1-1s0.448-1,1-1h4c0.552,0,1,0.448,1,1S14.552,10,14,10z"/>
<path fill="#E6E6E6" d="M38,10h-4c-0.552,0-1-0.448-1-1s0.448-1,1-1h4c0.552,0,1,0.448,1,1S38.552,10,38,10z"/>
<path fill="#E6E6E6" d="M14,24h-4c-0.552,0-1-0.448-1-1s0.448-1,1-1h4c0.552,0,1,0.448,1,1S14.552,24,14,24z"/>
<path fill="#E6E6E6" d="M38,24h-4c-0.552,0-1-0.448-1-1s0.448-1,1-1h4c0.552,0,1,0.448,1,1S38.552,24,38,24z"/>
<path fill="#E6E6E6" d="M14,38h-4c-0.552,0-1-0.448-1-1s0.448-1,1-1h4c0.552,0,1,0.448,1,1S14.552,38,14,38z"/>
<path fill="#E6E6E6" d="M38,38h-4c-0.552,0-1-0.448-1-1s0.448-1,1-1h4c0.552,0,1,0.448,1,1S38.552,38,38,38z"/>
</g></svg>