<svg xmlns="http://www.w3.org/2000/svg" xmlns:xlink="http://www.w3.org/1999/xlink" x="0px" y="0px" width="48px" height="48px" viewBox="0 0 48 48"><g >
<path fill="#B3B3B3" d="M44,35H4c-1.654,0-3-1.346-3-3v-1.764c0-1.144,0.636-2.171,1.658-2.683L23,17.382v-2.453
	c-1.732-0.248-3.311-1.134-4.435-2.516c-1.336-1.644-1.85-3.797-1.409-5.908c0.552-2.647,2.701-4.797,5.349-5.349
	c2.113-0.44,4.266,0.074,5.908,1.411C30.058,3.903,31,5.883,31,8c0,0.552-0.447,1-1,1s-1-0.448-1-1c0-1.512-0.674-2.927-1.849-3.882
	c-1.174-0.956-2.717-1.322-4.238-1.004c-1.881,0.392-3.407,1.919-3.8,3.799c-0.316,1.519,0.05,3.063,1.005,4.238S22.488,13,24,13
	c0.553,0,1,0.448,1,1v3.382l20.342,10.171C46.364,28.064,47,29.092,47,30.236V32C47,33.654,45.654,35,44,35z M24,19.118
	L3.553,29.342C3.212,29.512,3,29.855,3,30.236V32c0,0.551,0.448,1,1,1h40c0.552,0,1-0.449,1-1v-1.764
	c0-0.381-0.212-0.724-0.553-0.894L24,19.118z"/>
<path fill="#8680D8" d="M40,47H8c-0.552,0-1-0.448-1-1V33h34v13C41,46.552,40.552,47,40,47z"/>
</g></svg>