<svg xmlns="http://www.w3.org/2000/svg" xmlns:xlink="http://www.w3.org/1999/xlink" x="0px" y="0px" width="48px" height="48px" viewBox="0 0 48 48"><g >
<path fill="#EFD358" d="M30,38c-0.553,0-1-0.447-1-1v-4c0-0.553,0.447-1,1-1s1,0.447,1,1v4C31,37.553,30.553,38,30,38z"/>
<path fill="#EFD358" d="M41.314,33.314c-0.391,0.391-1.023,0.391-1.414,0l-2.828-2.828c-0.391-0.391-0.391-1.023,0-1.414
	s1.023-0.391,1.414,0l2.828,2.828C41.705,32.29,41.705,32.923,41.314,33.314z"/>
<path fill="#EFD358" d="M18.686,33.314c-0.391-0.391-0.391-1.023,0-1.414l2.828-2.828c0.391-0.391,1.023-0.391,1.414,0
	s0.391,1.023,0,1.414l-2.828,2.828C19.71,33.705,19.077,33.705,18.686,33.314z"/>
<path fill="#EFD358" d="M30,28c-3.309,0-6-2.691-6-6c0-0.553,0.447-1,1-1h10c0.553,0,1,0.447,1,1C36,25.309,33.309,28,30,28z"/>
<path fill="#B3B3B3" d="M14,47H6c-0.553,0-1-0.447-1-1V12C5,5.935,9.935,1,16,1h6c4.963,0,9,4.037,9,9c0,0.553-0.447,1-1,1
	s-1-0.447-1-1c0-3.859-3.141-7-7-7h-6c-4.963,0-9,4.037-9,9v33h7c0.553,0,1,0.447,1,1S14.553,47,14,47z"/>
<path fill="#E6E6E6" d="M44,23H16c-0.553,0-1-0.447-1-1c0-7.168,5.832-13,13-13h4c7.168,0,13,5.832,13,13C45,22.553,44.553,23,44,23
	z"/>
</g></svg>