<svg xmlns="http://www.w3.org/2000/svg" xmlns:xlink="http://www.w3.org/1999/xlink" x="0px" y="0px" width="48px" height="48px" viewBox="0 0 48 48"><g >
<path fill="#B3B3B3" d="M26,9h-4c-0.552,0-1-0.448-1-1V2c0-0.552,0.448-1,1-1h4c0.552,0,1,0.448,1,1v6C27,8.552,26.552,9,26,9z"/>
<path fill="#E6E6E6" d="M24,8C14.611,8,7,15.611,7,25v4h34v-4C41,15.611,33.389,8,24,8z"/>
<path fill="#43A6DD" d="M24,47c-0.553,0-1-0.447-1-1v-3c0-0.553,0.447-1,1-1s1,0.447,1,1v3C25,46.553,24.553,47,24,47z"/>
<path fill="#43A6DD" d="M16,41c-0.553,0-1-0.447-1-1v-3c0-0.553,0.447-1,1-1s1,0.447,1,1v3C17,40.553,16.553,41,16,41z"/>
<path fill="#43A6DD" d="M32,41c-0.553,0-1-0.447-1-1v-3c0-0.553,0.447-1,1-1s1,0.447,1,1v3C33,40.553,32.553,41,32,41z"/>
<path fill="#B3B3B3" d="M41,29H7c-1.105,0-2,0.895-2,2v0c0,1.105,0.895,2,2,2h34c1.105,0,2-0.895,2-2v0C43,29.895,42.105,29,41,29z"/>
</g></svg>