<svg xmlns="http://www.w3.org/2000/svg" xmlns:xlink="http://www.w3.org/1999/xlink" x="0px" y="0px" width="48px" height="48px" viewBox="0 0 48 48"><g >
<path fill="#B3B3B3" d="M30,47H18c-0.552,0-1-0.447-1-1s0.448-1,1-1h12c0.552,0,1,0.447,1,1S30.552,47,30,47z"/>
<path fill="#B3B3B3" d="M24,47c-0.552,0-1-0.447-1-1V2c0-0.553,0.448-1,1-1s1,0.447,1,1v44C25,46.553,24.552,47,24,47z"/>
<path fill="#B3B3B3" d="M24,35H14c-1.654,0-3-1.346-3-3v-2c0-0.553,0.448-1,1-1s1,0.447,1,1v2c0,0.552,0.449,1,1,1h10
	c0.552,0,1,0.447,1,1S24.552,35,24,35z"/>
<path fill="#B3B3B3" d="M24,11H14c-1.654,0-3-1.346-3-3V6c0-0.553,0.448-1,1-1s1,0.447,1,1v2c0,0.552,0.449,1,1,1h10
	c0.552,0,1,0.447,1,1S24.552,11,24,11z"/>
<path fill="#B3B3B3" d="M34,23H24c-0.552,0-1-0.447-1-1s0.448-1,1-1h10c0.551,0,1-0.448,1-1v-2c0-0.553,0.448-1,1-1s1,0.447,1,1v2
	C37,21.654,35.654,23,34,23z"/>
</g></svg>