<svg xmlns="http://www.w3.org/2000/svg" xmlns:xlink="http://www.w3.org/1999/xlink" x="0px" y="0px" width="48px" height="48px" viewBox="0 0 48 48"><g >
<path fill="#E6E6E6" d="M46,47H2c-0.552,0-1-0.447-1-1V2c0-0.553,0.448-1,1-1h44c0.552,0,1,0.447,1,1v44C47,46.553,46.552,47,46,47z
	"/>
<path fill="#B3B3B3" d="M14,8H5C4.448,8,4,7.552,4,7v0c0-0.552,0.448-1,1-1h9c0.552,0,1,0.448,1,1v0C15,7.552,14.552,8,14,8z"/>
<path fill="#999999" d="M24,42c-8.271,0-15-6.729-15-15s6.729-15,15-15s15,6.729,15,15S32.271,42,24,42z"/>
<circle fill="#444444" cx="24" cy="27" r="12"/>
<path fill="#76B5B5" d="M24,36c-4.763,0-8.705-3.728-8.976-8.485c-0.021-0.366,0.161-0.714,0.473-0.907
	c0.312-0.192,0.705-0.199,1.022-0.018c1.286,0.736,2.798,0.433,3.728-0.628c0.38-0.434,1.126-0.434,1.506,0
	c1.17,1.338,3.324,1.338,4.494,0c0.38-0.434,1.126-0.434,1.506,0c0.928,1.062,2.442,1.365,3.728,0.628
	c0.318-0.182,0.711-0.175,1.022,0.018c0.312,0.193,0.493,0.541,0.473,0.907C32.705,32.272,28.763,36,24,36z"/>
<circle fill="#72C472" cx="41" cy="7" r="2"/>
<circle fill="#444444" cx="33" cy="7" r="2"/>
</g></svg>