<svg xmlns="http://www.w3.org/2000/svg" xmlns:xlink="http://www.w3.org/1999/xlink" x="0px" y="0px" width="48px" height="48px" viewBox="0 0 48 48"><g >
<path fill="#87613E" d="M46,42c-0.553,0-1-0.448-1-1V27c0-0.552,0.447-1,1-1s1,0.448,1,1v14C47,41.552,46.553,42,46,42z"/>
<path fill="#87613E" d="M2,42c-0.553,0-1-0.448-1-1V27c0-0.552,0.447-1,1-1s1,0.448,1,1v14C3,41.552,2.553,42,2,42z"/>
<path fill="#87613E" d="M46,35H2c-0.553,0-1-0.448-1-1v-7c0-0.552,0.447-1,1-1h44c0.553,0,1,0.448,1,1v7C47,34.552,46.553,35,46,35z
	"/>
<path fill="#A67C52" d="M40,20H8c-0.553,0-1-0.448-1-1V7c0-0.552,0.447-1,1-1h32c0.553,0,1,0.448,1,1v12C41,19.552,40.553,20,40,20z
	"/>
<path fill="#E6E6E6" d="M46,28H2c-0.379,0-0.725-0.214-0.895-0.553C0.937,27.108,0.973,26.703,1.2,26.4l6-8
	C7.389,18.148,7.686,18,8,18h32c0.314,0,0.611,0.148,0.8,0.4l6,8c0.228,0.303,0.264,0.708,0.095,1.047
	C46.725,27.786,46.379,28,46,28z"/>
</g></svg>