<svg xmlns="http://www.w3.org/2000/svg" xmlns:xlink="http://www.w3.org/1999/xlink" x="0px" y="0px" width="48px" height="48px" viewBox="0 0 48 48"><g >
<path fill="#C6A279" d="M6,47c-0.553,0-1-0.448-1-1V26c0-0.552,0.447-1,1-1s1,0.448,1,1v20C7,46.552,6.553,47,6,47z"/>
<path fill="#C6A279" d="M42,47c-0.553,0-1-0.448-1-1V26c0-0.552,0.447-1,1-1s1,0.448,1,1v20C43,46.552,42.553,47,42,47z"/>
<path fill="#A67C52" d="M10,45c-0.553,0-1-0.448-1-1V26c0-0.552,0.447-1,1-1s1,0.448,1,1v18C11,44.552,10.553,45,10,45z"/>
<path fill="#A67C52" d="M38,45c-0.553,0-1-0.448-1-1V26c0-0.552,0.447-1,1-1s1,0.448,1,1v18C39,44.552,38.553,45,38,45z"/>
<path fill="#C6A279" d="M38,1H10C9.447,1,9,1.448,9,2v22c0,0.552,0.447,1,1,1h28c0.553,0,1-0.448,1-1V2C39,1.448,38.553,1,38,1z
	 M37,23H11V7h26V23z"/>
<path fill="#C64B4B" d="M42,27H6c-0.552,0-1-0.448-1-1v-2c0-0.552,0.448-1,1-1h36c0.552,0,1,0.448,1,1v2C43,26.552,42.552,27,42,27z
	"/>
<rect x="7" y="39" fill="#C6A279" width="34" height="2"/>
<rect x="11" y="9" fill="#E86C60" width="26" height="6"/>
<rect x="11" y="1" fill="#E86C60" width="26" height="6"/>
</g></svg>