<svg xmlns="http://www.w3.org/2000/svg" xmlns:xlink="http://www.w3.org/1999/xlink" x="0px" y="0px" width="48px" height="48px" viewBox="0 0 48 48"><g >
<path fill="#B3B3B3" d="M8,47c-0.552,0-1-0.448-1-1v-4c0-0.552,0.448-1,1-1s1,0.448,1,1v4C9,46.552,8.552,47,8,47z"/>
<path fill="#B3B3B3" d="M40,47c-0.552,0-1-0.448-1-1v-4c0-0.552,0.448-1,1-1s1,0.448,1,1v4C41,46.552,40.552,47,40,47z"/>
<path fill="#A67C52" d="M45,23H3v19c0,0.552,0.448,1,1,1h40c0.552,0,1-0.448,1-1V23z"/>
<path fill="#A67C52" d="M44,1H4C3.448,1,3,1.448,3,2v19h42V2C45,1.448,44.552,1,44,1z"/>
<path fill="#E6E6E6" d="M30,34H18c-0.552,0-1-0.448-1-1v-2c0-0.552,0.448-1,1-1s1,0.448,1,1v1h10v-1c0-0.552,0.448-1,1-1
	s1,0.448,1,1v2C31,33.552,30.552,34,30,34z"/>
<path fill="#E6E6E6" d="M30,14H18c-0.552,0-1-0.448-1-1v-2c0-0.552,0.448-1,1-1s1,0.448,1,1v1h10v-1c0-0.552,0.448-1,1-1
	s1,0.448,1,1v2C31,13.552,30.552,14,30,14z"/>
<rect x="3" y="21" fill="#5E4027" width="42" height="2"/>
</g></svg>