<svg xmlns="http://www.w3.org/2000/svg" xmlns:xlink="http://www.w3.org/1999/xlink" x="0px" y="0px" width="48px" height="48px" viewBox="0 0 48 48"><g >
<path fill="#B3B3B3" d="M46,26h-4c-0.553,0-1-0.448-1-1v-3c0-0.552,0.447-1,1-1h4c0.553,0,1,0.448,1,1v3C47,25.552,46.553,26,46,26z
	"/>
<rect x="10" y="21" fill="#B3B3B3" width="28" height="22"/>
<path fill="#E86C60" d="M24,9c-0.553,0-1-0.448-1-1V2c0-0.552,0.447-1,1-1s1,0.448,1,1v6C25,8.552,24.553,9,24,9z"/>
<path fill="#E86C60" d="M14,14c-0.553,0-1-0.448-1-1V7c0-0.552,0.447-1,1-1s1,0.448,1,1v6C15,13.552,14.553,14,14,14z"/>
<path fill="#E86C60" d="M34,14c-0.553,0-1-0.448-1-1V7c0-0.552,0.447-1,1-1s1,0.448,1,1v6C35,13.552,34.553,14,34,14z"/>
<path fill="#E6E6E6" d="M14,47H6c-0.552,0-1-0.448-1-1V18c0-0.552,0.448-1,1-1h8c0.552,0,1,0.448,1,1v28C15,46.552,14.552,47,14,47z
	"/>
<path fill="#E6E6E6" d="M28,47h-8c-0.552,0-1-0.448-1-1V18c0-0.552,0.448-1,1-1h8c0.552,0,1,0.448,1,1v28C29,46.552,28.552,47,28,47
	z"/>
<path fill="#E6E6E6" d="M42,47h-8c-0.552,0-1-0.448-1-1V18c0-0.552,0.448-1,1-1h8c0.552,0,1,0.448,1,1v28C43,46.552,42.552,47,42,47
	z"/>
</g></svg>