<svg xmlns="http://www.w3.org/2000/svg" xmlns:xlink="http://www.w3.org/1999/xlink" x="0px" y="0px" width="48px" height="48px" viewBox="0 0 48 48"><g >
<path fill="#B3B3B3" d="M6,47c-0.552,0-1-0.448-1-1v-4c0-0.552,0.448-1,1-1s1,0.448,1,1v4C7,46.552,6.552,47,6,47z"/>
<path fill="#B3B3B3" d="M42,47c-0.552,0-1-0.448-1-1v-4c0-0.552,0.448-1,1-1s1,0.448,1,1v4C43,46.552,42.552,47,42,47z"/>
<path fill="#A67C52" d="M46,43H2c-0.552,0-1-0.448-1-1V2c0-0.552,0.448-1,1-1h44c0.552,0,1,0.448,1,1v40C47,42.552,46.552,43,46,43z
	"/>
<rect x="3" y="3" fill="#5E4027" width="42" height="18"/>
<rect x="3" y="23" fill="#5E4027" width="42" height="18"/>
<path fill="#BFDEE0" d="M25,21h-1c-0.552,0-1-0.448-1-1V8c0-0.552,0.448-1,1-1h1c0.552,0,1,0.448,1,1v12C26,20.552,25.552,21,25,21z
	"/>
<path fill="#E86C60" d="M15,41h-1c-0.552,0-1-0.448-1-1V28c0-0.552,0.448-1,1-1h1c0.552,0,1,0.448,1,1v12C16,40.552,15.552,41,15,41
	z"/>
<path fill="#BFDEE0" d="M10,41H9c-0.552,0-1-0.448-1-1V28c0-0.552,0.448-1,1-1h1c0.552,0,1,0.448,1,1v12C11,40.552,10.552,41,10,41z
	"/>
<path fill="#72C472" d="M25,41h-1c-0.552,0-1-0.448-1-1V28c0-0.552,0.448-1,1-1h1c0.552,0,1,0.448,1,1v12C26,40.552,25.552,41,25,41
	z"/>
<path fill="#E6E6E6" d="M20,41h-1c-0.552,0-1-0.448-1-1V28c0-0.552,0.448-1,1-1h1c0.552,0,1,0.448,1,1v12C21,40.552,20.552,41,20,41
	z"/>
<path fill="#E6E6E6" d="M21,19v1c0,0.552-0.448,1-1,1H9c-0.552,0-1-0.448-1-1v-1c0-0.552,0.448-1,1-1h11C20.552,18,21,18.448,21,19z
	"/>
<path fill="#EAD8C5" d="M41,39v1c0,0.552-0.448,1-1,1H29c-0.552,0-1-0.448-1-1v-1c0-0.552,0.448-1,1-1h11C40.552,38,41,38.448,41,39
	z"/>
<path fill="#EAD8C5" d="M30,21h-1c-0.552,0-1-0.448-1-1V8c0-0.552,0.448-1,1-1h1c0.552,0,1,0.448,1,1v12C31,20.552,30.552,21,30,21z
	"/>
<path fill="#72C472" d="M35,21h-1c-0.552,0-1-0.448-1-1V8c0-0.552,0.448-1,1-1h1c0.552,0,1,0.448,1,1v12C36,20.552,35.552,21,35,21z
	"/>
<path fill="#E86C60" d="M40,21h-1c-0.552,0-1-0.448-1-1V8c0-0.552,0.448-1,1-1h1c0.552,0,1,0.448,1,1v12C41,20.552,40.552,21,40,21z
	"/>
</g></svg>