<svg xmlns="http://www.w3.org/2000/svg" xmlns:xlink="http://www.w3.org/1999/xlink" x="0px" y="0px" width="48px" height="48px" viewBox="0 0 48 48"><g >
<path fill="#E86C60" d="M42,29H6c-0.553,0-1-0.448-1-1V11c0-2.757,2.243-5,5-5h28c2.757,0,5,2.243,5,5v17C43,28.552,42.553,29,42,29
	z"/>
<rect x="23" y="6" fill="#C64B4B" width="2" height="23"/>
<path fill="#B3B3B3" d="M6,42c-0.553,0-1-0.448-1-1v-4c0-0.552,0.447-1,1-1s1,0.448,1,1v4C7,41.552,6.553,42,6,42z"/>
<path fill="#B3B3B3" d="M42,42c-0.553,0-1-0.448-1-1v-4c0-0.552,0.447-1,1-1s1,0.448,1,1v4C43,41.552,42.553,42,42,42z"/>
<path fill="#C64B4B" d="M43,38H5c-2.209,0-4-1.791-4-4l0-10.255c0-2.871,2.093-5.439,4.949-5.718C9.228,17.706,12,20.286,12,23.5V27
	h24v-3.255c0-2.871,2.093-5.439,4.949-5.718C44.228,17.706,47,20.286,47,23.5V34C47,36.209,45.209,38,43,38z"/>
</g></svg>