<svg xmlns="http://www.w3.org/2000/svg" xmlns:xlink="http://www.w3.org/1999/xlink" x="0px" y="0px" width="48px" height="48px" viewBox="0 0 48 48"><g >
<path fill="#4DA34D" d="M36,30H12c-0.552,0-1-0.448-1-1l0-10.623c0-6.992,5.362-13.017,12.346-13.361C30.81,4.648,37,10.615,37,18
	v11C37,29.552,36.552,30,36,30z"/>
<path fill="#DDBE99" d="M12,21H8c-0.552,0-1-0.448-1-1s0.448-1,1-1h4c0.552,0,1,0.448,1,1S12.552,21,12,21z"/>
<path fill="#DDBE99" d="M40,21h-4c-0.552,0-1-0.448-1-1s0.448-1,1-1h4c0.552,0,1,0.448,1,1S40.552,21,40,21z"/>
<path fill="#DDBE99" d="M24,7c-0.552,0-1-0.448-1-1V2c0-0.552,0.448-1,1-1s1,0.448,1,1v4C25,6.552,24.552,7,24,7z"/>
<path fill="#DDBE99" d="M15.5,10.5c-0.256,0-0.512-0.098-0.707-0.293l-3.5-3.5c-0.391-0.391-0.391-1.023,0-1.414
	s1.023-0.391,1.414,0l3.5,3.5c0.391,0.391,0.391,1.023,0,1.414C16.012,10.402,15.756,10.5,15.5,10.5z"/>
<path fill="#DDBE99" d="M32.5,10.5c-0.256,0-0.512-0.098-0.707-0.293c-0.391-0.391-0.391-1.023,0-1.414l3.5-3.5
	c0.391-0.391,1.023-0.391,1.414,0s0.391,1.023,0,1.414l-3.5,3.5C33.012,10.402,32.756,10.5,32.5,10.5z"/>
<path fill="#7C5839" d="M38.756,31.345C38.565,31.126,38.29,31,38,31H10c-0.29,0-0.565,0.126-0.756,0.345
	c-0.189,0.219-0.275,0.51-0.234,0.797l2,14C11.08,46.634,11.502,47,12,47h24c0.498,0,0.92-0.366,0.99-0.858l2-14
	C39.031,31.854,38.945,31.564,38.756,31.345z"/>
<path fill="#A67C52" d="M42,33H6c-0.553,0-1-0.448-1-1v-4c0-0.552,0.447-1,1-1h36c0.553,0,1,0.448,1,1v4C43,32.552,42.553,33,42,33z
	"/>
</g></svg>