<svg xmlns="http://www.w3.org/2000/svg" xmlns:xlink="http://www.w3.org/1999/xlink" x="0px" y="0px" width="48px" height="48px" viewBox="0 0 48 48"><g >
<path fill="#E6E6E6" d="M37,25H11c-0.553,0-1-0.447-1-1V6c0-2.757,2.243-5,5-5h18c2.757,0,5,2.243,5,5v18C38,24.553,37.553,25,37,25
	z"/>
<path fill="#B3B3B3" d="M30,47H18c-0.553,0-1-0.447-1-1v-6c0-0.553,0.447-1,1-1h12c0.553,0,1,0.447,1,1v6C31,46.553,30.553,47,30,47
	z"/>
<path fill="#E6E6E6" d="M30,41H18c-7.168,0-13-5.832-13-13v-4c0-0.553,0.447-1,1-1h36c0.553,0,1,0.447,1,1v4
	C43,35.168,37.168,41,30,41z"/>
<path fill="#B3B3B3" d="M43,27H5v-2c0-1.105,0.895-2,2-2h34c1.105,0,2,0.895,2,2V27z"/>
</g></svg>