<svg xmlns="http://www.w3.org/2000/svg" xmlns:xlink="http://www.w3.org/1999/xlink" x="0px" y="0px" width="48px" height="48px" viewBox="0 0 48 48"><g >
<path fill="#B3B3B3" d="M26,33h-3c-1.654,0-3-1.346-3-3v-3c0-0.553,0.448-1,1-1h5c0.552,0,1,0.447,1,1s-0.448,1-1,1h-4v2
	c0,0.552,0.449,1,1,1h3c0.552,0,1,0.447,1,1S26.552,33,26,33z"/>
<path fill="#B3B3B3" d="M35,21c-0.552,0-1-0.447-1-1v-6c0-0.553,0.448-1,1-1s1,0.447,1,1v6C36,20.553,35.552,21,35,21z"/>
<path fill="#5B5B5B" d="M17,47H4c-0.552,0-1-0.448-1-1V2c0-0.552,0.448-1,1-1l33.756,0c3.557,0,6.731,2.55,7.185,6.078
	C45.489,11.346,42.163,15,38,15H18c-0.552,0-1,0.448-1,1V47z"/>
<path fill="#E6E6E6" d="M35,43c-5.514,0-10-4.486-10-10v-6c0-0.553,0.448-1,1-1h18c0.552,0,1,0.447,1,1v6C45,38.514,40.514,43,35,43
	z"/>
<path fill="#444444" d="M37,18h-4c-0.552,0-1-0.448-1-1v-2h6v2C38,17.552,37.552,18,37,18z"/>
<path fill="#444444" d="M44,43H3v3c0,0.552,0.448,1,1,1h40c0.552,0,1-0.448,1-1v-2C45,43.448,44.552,43,44,43z"/>
<circle fill="#72C472" cx="9" cy="7" r="2"/>
<circle fill="#999999" cx="9" cy="14" r="2"/>
</g></svg>