<svg xmlns="http://www.w3.org/2000/svg" xmlns:xlink="http://www.w3.org/1999/xlink" x="0px" y="0px" width="48px" height="48px" viewBox="0 0 48 48"><g >
<path fill="#A67C52" d="M13,39c-0.552,0-1-0.448-1-1V10c0-0.552,0.448-1,1-1s1,0.448,1,1v28C14,38.552,13.552,39,13,39z"/>
<path fill="#A67C52" d="M24,39c-0.552,0-1-0.448-1-1V10c0-0.552,0.448-1,1-1s1,0.448,1,1v28C25,38.552,24.552,39,24,39z"/>
<path fill="#A67C52" d="M35,39c-0.552,0-1-0.448-1-1V10c0-0.552,0.448-1,1-1s1,0.448,1,1v28C36,38.552,35.552,39,35,39z"/>
<path fill="#A67C52" d="M2,41c-0.552,0-1-0.448-1-1V4c0-0.552,0.448-1,1-1s1,0.448,1,1v36C3,40.552,2.552,41,2,41z"/>
<path fill="#A67C52" d="M46,41c-0.552,0-1-0.448-1-1V4c0-0.552,0.448-1,1-1s1,0.448,1,1v36C47,40.552,46.552,41,46,41z"/>
<path fill="#B3B3B3" d="M6,45c-0.552,0-1-0.448-1-1v-4c0-0.552,0.448-1,1-1s1,0.448,1,1v4C7,44.552,6.552,45,6,45z"/>
<path fill="#B3B3B3" d="M42,45c-0.552,0-1-0.448-1-1v-4c0-0.552,0.448-1,1-1s1,0.448,1,1v4C43,44.552,42.552,45,42,45z"/>
<path fill="#A67C52" d="M46,11H2c-0.552,0-1-0.448-1-1s0.448-1,1-1h44c0.552,0,1,0.448,1,1S46.552,11,46,11z"/>
<path fill="#87613E" d="M47,37H1v3c0,0.552,0.448,1,1,1h44c0.552,0,1-0.448,1-1V37z"/>
</g></svg>