<svg xmlns="http://www.w3.org/2000/svg" xmlns:xlink="http://www.w3.org/1999/xlink" x="0px" y="0px" width="48px" height="48px" viewBox="0 0 48 48"><g >
<path fill="#B3B3B3" d="M32,45h-7V32c0-0.552-0.447-1-1-1s-1,0.448-1,1v13h-7c-0.553,0-1,0.448-1,1s0.447,1,1,1h8h8
	c0.553,0,1-0.448,1-1S32.553,45,32,45z"/>
<path fill="#737373" d="M28,33h-8c-0.553,0-1-0.448-1-1v-6c0-0.552,0.447-1,1-1h8c0.553,0,1,0.448,1,1v6C29,32.552,28.553,33,28,33z
	"/>
<path fill="#E6E6E6" d="M12,35c-0.553,0-1-0.448-1-1v-8c0-0.552,0.447-1,1-1s1,0.448,1,1v8C13,34.552,12.553,35,12,35z"/>
<path fill="#EA9860" d="M4,26c0,0.552,0.447,1,1,1h38c0.553,0,1-0.448,1-1v-4H4V26z"/>
<path fill="#EEBC99" d="M30.839,1.455C30.654,1.171,30.339,1,30,1H18c-0.339,0-0.654,0.171-0.839,0.455l-13,20
	C4.056,21.617,4,21.807,4,22h40c0-0.193-0.056-0.383-0.161-0.545L30.839,1.455z"/>
</g></svg>