<svg xmlns="http://www.w3.org/2000/svg" xmlns:xlink="http://www.w3.org/1999/xlink" x="0px" y="0px" width="48px" height="48px" viewBox="0 0 48 48"><g >
<path fill="#E6E6E6" d="M12,24H2c-0.553,0-1-0.447-1-1v-9c0-0.553,0.447-1,1-1h6c2.757,0,5,2.243,5,5v5C13,23.553,12.553,24,12,24z"/>
<rect x="1" y="22" fill="#A67C52" width="46" height="12"/>
<path fill="#87613E" d="M2,42c-0.553,0-1-0.447-1-1V7c0-0.553,0.447-1,1-1s1,0.447,1,1v34C3,41.553,2.553,42,2,42z"/>
<path fill="#87613E" d="M46,42c-0.553,0-1-0.447-1-1V17c0-0.553,0.447-1,1-1s1,0.447,1,1v24C47,41.553,46.553,42,46,42z"/>
</g></svg>