<svg xmlns="http://www.w3.org/2000/svg" xmlns:xlink="http://www.w3.org/1999/xlink" x="0px" y="0px" width="48px" height="48px" viewBox="0 0 48 48"><g >
<path fill="#B3B3B3" d="M46,27c-0.552,0-1-0.447-1-1V8c0-2.757-2.243-5-5-5s-5,2.243-5,5c0,0.553-0.448,1-1,1s-1-0.447-1-1
	c0-3.859,3.14-7,7-7s7,3.141,7,7v18C47,26.553,46.552,27,46,27z"/>
<path fill="#B3B3B3" d="M12,45c-0.552,0-1-0.447-1-1v-4c0-0.553,0.448-1,1-1s1,0.447,1,1v4C13,44.553,12.552,45,12,45z"/>
<path fill="#B3B3B3" d="M36,45c-0.552,0-1-0.447-1-1v-4c0-0.553,0.448-1,1-1s1,0.447,1,1v4C37,44.553,36.552,45,36,45z"/>
<path fill="#E6E6E6" d="M36,41H12C5.935,41,1,36.065,1,30v-4c0-0.553,0.448-1,1-1h44c0.552,0,1,0.447,1,1v4
	C47,36.065,42.065,41,36,41z"/>
<path fill="#E6E6E6" d="M40,15H28c-0.552,0-1-0.447-1-1c0-3.859,3.14-7,7-7s7,3.141,7,7C41,14.553,40.552,15,40,15z"/>
<path fill="#43A6DD" d="M29,22c-0.552,0-1-0.447-1-1v-2c0-0.553,0.448-1,1-1s1,0.447,1,1v2C30,21.553,29.552,22,29,22z"/>
<path fill="#43A6DD" d="M39,22c-0.552,0-1-0.447-1-1v-2c0-0.553,0.448-1,1-1s1,0.447,1,1v2C40,21.553,39.552,22,39,22z"/>
<path fill="#43A6DD" d="M34,22c-0.552,0-1-0.447-1-1v-2c0-0.553,0.448-1,1-1s1,0.447,1,1v2C35,21.553,34.552,22,34,22z"/>
</g></svg>