<svg xmlns="http://www.w3.org/2000/svg" xmlns:xlink="http://www.w3.org/1999/xlink" x="0px" y="0px" width="48px" height="48px" viewBox="0 0 48 48"><g >
<path fill="#B3B3B3" d="M41,1H7C5.895,1,5,1.895,5,3v40c0,1.105,0.895,2,2,2h34c1.105,0,2-0.895,2-2V3C43,1.895,42.105,1,41,1z"/>
<rect x="5" y="19" fill="#999999" width="38" height="2"/>
<path fill="#E6E6E6" d="M10,13c-0.552,0-1-0.448-1-1V8c0-0.552,0.448-1,1-1s1,0.448,1,1v4C11,12.552,10.552,13,10,13z"/>
<path fill="#E6E6E6" d="M10,35c-0.552,0-1-0.448-1-1v-6c0-0.552,0.448-1,1-1s1,0.448,1,1v6C11,34.552,10.552,35,10,35z"/>
<path fill="#5B5B5B" d="M14,47h-4c-0.552,0-1-0.448-1-1v-1h6v1C15,46.552,14.552,47,14,47z"/>
<path fill="#5B5B5B" d="M38,47h-4c-0.552,0-1-0.448-1-1v-1h6v1C39,46.552,38.552,47,38,47z"/>
</g></svg>