<svg xmlns="http://www.w3.org/2000/svg" xmlns:xlink="http://www.w3.org/1999/xlink" x="0px" y="0px" width="48px" height="48px" viewBox="0 0 48 48"><g >
<path fill="#E6E6E6" d="M46,25H2c-0.553,0-1-0.448-1-1V6c0-0.552,0.447-1,1-1h44c0.553,0,1,0.448,1,1v18C47,24.552,46.553,25,46,25z
	"/>
<path fill="#444444" d="M42,22H5c-0.553,0-1-0.448-1-1s0.447-1,1-1h37c0.553,0,1,0.448,1,1S42.553,22,42,22z"/>
<path fill="#BADEFC" d="M24,45c-0.553,0-1-0.448-1-1v-9c0-0.552,0.447-1,1-1s1,0.448,1,1v9C25,44.552,24.553,45,24,45z"/>
<path fill="#BADEFC" d="M14,40c-0.553,0-1-0.448-1-1v-8c0-0.552,0.447-1,1-1s1,0.448,1,1v8C15,39.552,14.553,40,14,40z"/>
<path fill="#BADEFC" d="M34,40c-0.553,0-1-0.448-1-1v-8c0-0.552,0.447-1,1-1s1,0.448,1,1v8C35,39.552,34.553,40,34,40z"/>
<circle fill="#72C472" cx="41" cy="11" r="2"/>
</g></svg>