<svg xmlns="http://www.w3.org/2000/svg" xmlns:xlink="http://www.w3.org/1999/xlink" x="0px" y="0px" width="48px" height="48px" viewBox="0 0 48 48"><g >
<rect x="8" y="2" fill="#FFFFFF" width="32" height="32"/>
<path fill="#A67C52" d="M40,35H8c-0.552,0-1-0.448-1-1V2c0-0.552,0.448-1,1-1h32c0.552,0,1,0.448,1,1v32C41,34.552,40.552,35,40,35z
	 M9,33h30V3H9V33z"/>
<path fill="#A67C52" d="M30,47c-0.165,0-0.329-0.041-0.479-0.122l-22-12C7.2,34.703,7,34.366,7,34V2c0-0.353,0.187-0.68,0.489-0.86
	c0.304-0.181,0.679-0.187,0.989-0.018l22,12C30.8,13.297,31,13.634,31,14v32c0,0.353-0.187,0.68-0.489,0.86
	C30.354,46.953,30.177,47,30,47z"/>
<path fill="#87613E" d="M30,47c-0.553,0-1-0.447-1-1V14.594L7.521,2.878C7.036,2.613,6.857,2.006,7.122,1.521
	c0.265-0.485,0.873-0.664,1.356-0.399l22,12C30.8,13.297,31,13.634,31,14v32C31,46.553,30.553,47,30,47z"/>
</g></svg>