<svg xmlns="http://www.w3.org/2000/svg" xmlns:xlink="http://www.w3.org/1999/xlink" x="0px" y="0px" width="48px" height="48px" viewBox="0 0 48 48"><g >
<path fill="#BFDEE0" d="M23,33H3V2c0-0.552,0.448-1,1-1h19V33z"/>
<path fill="#A67C52" d="M23,47H4c-0.552,0-1-0.448-1-1V35h20V47z"/>
<path fill="#A67C52" d="M44,47H25V1h19c0.552,0,1,0.448,1,1v44C45,46.552,44.552,47,44,47z"/>
<path fill="#E6E6E6" d="M15,42h-4c-0.553,0-1-0.447-1-1s0.447-1,1-1h4c0.553,0,1,0.447,1,1S15.553,42,15,42z"/>
<path fill="#E6E6E6" d="M28,28c-0.553,0-1-0.447-1-1v-6c0-0.553,0.447-1,1-1s1,0.447,1,1v6C29,27.553,28.553,28,28,28z"/>
<rect x="23" y="1" fill="#5E4027" width="2" height="46"/>
<rect x="3" y="33" fill="#5E4027" width="20" height="2"/>
</g></svg>