<svg xmlns="http://www.w3.org/2000/svg" xmlns:xlink="http://www.w3.org/1999/xlink" x="0px" y="0px" width="48px" height="48px" viewBox="0 0 48 48"><g >
<path fill="#87613E" d="M2,42c-0.552,0-1-0.447-1-1v-6c0-0.553,0.448-1,1-1s1,0.447,1,1v6C3,41.553,2.552,42,2,42z"/>
<path fill="#87613E" d="M46,42c-0.552,0-1-0.447-1-1v-6c0-0.553,0.448-1,1-1s1,0.447,1,1v6C47,41.553,46.552,42,46,42z"/>
<path fill="#A67C52" d="M43,25H5c-0.552,0-1-0.447-1-1V7c0-0.553,0.448-1,1-1h38c0.552,0,1,0.447,1,1v17C44,24.553,43.552,25,43,25z
	"/>
<path fill="#E6E6E6" d="M6,24v-5c0-2.206,1.794-4,4-4h9c2.206,0,4,1.794,4,4v5H6z"/>
<path fill="#E6E6E6" d="M25,24v-5c0-2.206,1.794-4,4-4h9c2.206,0,4,1.794,4,4v5H25z"/>
<path fill="#87613E" d="M46,36H2c-0.552,0-1-0.447-1-1V24c0-0.553,0.448-1,1-1h44c0.552,0,1,0.447,1,1v11C47,35.553,46.552,36,46,36
	z"/>
</g></svg>