<svg xmlns="http://www.w3.org/2000/svg" xmlns:xlink="http://www.w3.org/1999/xlink" x="0px" y="0px" width="48px" height="48px" viewBox="0 0 48 48"><g >
<path fill="#43A6DD" d="M38,42c-2.424,0-5-1.665-5-4.75c0-2.657,3.794-7.357,4.227-7.885c0.38-0.463,1.166-0.463,1.546,0
	C39.206,29.893,43,34.593,43,37.25C43,40.335,40.424,42,38,42z"/>
<path fill="#B3B3B3" d="M3,13c-1.104,0-2-0.896-2-2V9c0-4.411,3.589-8,8-8h16c1.104,0,2,0.896,2,2s-0.896,2-2,2H9
	C6.794,5,5,6.794,5,9v2C5,12.104,4.104,13,3,13z"/>
<path fill="#E6E6E6" d="M41,11H1v35c0,0.552,0.448,1,1,1h12c0.552,0,1-0.448,1-1V24c0-0.552,0.448-1,1-1h25c3.314,0,6-2.686,6-6
	S44.314,11,41,11z"/>
</g></svg>