<?xml version="1.0" encoding="utf-8"?>
<!-- Generator: Adobe Illustrator 19.1.0, SVG Export Plug-In . SVG Version: 6.00 Build 0)  -->
<!DOCTYPE svg PUBLIC "-//W3C//DTD SVG 1.1//EN" "http://www.w3.org/Graphics/SVG/1.1/DTD/svg11.dtd">
<svg version="1.1" id="Layer_1" xmlns="http://www.w3.org/2000/svg" xmlns:xlink="http://www.w3.org/1999/xlink" x="0px" y="0px"
	 width="24px" height="24px" viewBox="0 0 24 24" enable-background="new 0 0 24 24" xml:space="preserve">
<path d="M23,1.9c-0.1-0.5-0.4-0.8-0.9-0.9l-3.8-0.4c-0.3,0-0.6,0.1-0.8,0.3L8.8,9.5c-2.2-0.4-4.6,0.3-6.2,1.9
	c-1.3,1.3-2.1,3.1-2.1,4.9c0,1.9,0.7,3.6,2.1,4.9c1.3,1.3,3.1,2.1,4.9,2.1c1.9,0,3.6-0.7,5-2.1c1.6-1.6,2.3-3.9,1.9-6.2l1.6-1.6
	c0.2-0.2,0.3-0.4,0.3-0.7v-1.8h1.8c0.6,0,1-0.4,1-1V8.2l1.8,0c0.3,0,0.5-0.1,0.7-0.3l1.4-1.4c0.2-0.2,0.3-0.5,0.3-0.8L23,1.9z
	 M8.3,18.5c-0.8,0.8-2,0.8-2.8,0c-0.8-0.8-0.8-2,0-2.8c0.8-0.8,2-0.8,2.8,0C9.1,16.5,9.1,17.8,8.3,18.5z"/>
</svg>
