<?xml version="1.0" encoding="utf-8"?>
<!-- Generator: Adobe Illustrator 19.1.0, SVG Export Plug-In . SVG Version: 6.00 Build 0)  -->
<!DOCTYPE svg PUBLIC "-//W3C//DTD SVG 1.1//EN" "http://www.w3.org/Graphics/SVG/1.1/DTD/svg11.dtd">
<svg version="1.1" id="Layer_1" xmlns="http://www.w3.org/2000/svg" xmlns:xlink="http://www.w3.org/1999/xlink" x="0px" y="0px"
	 width="24px" height="24px" viewBox="0 0 24 24" enable-background="new 0 0 24 24" xml:space="preserve">
<path d="M12,0C5.9,0,1,4.9,1,11c0,3.7,1.9,7.2,5,9.2V23c0,0.6,0.4,1,1,1h2v-2h2v2h2v-2h2v2h2c0.6,0,1-0.4,1-1v-2.8
	c3.1-2,5-5.5,5-9.2C23,4.9,18.1,0,12,0z M8,15c-1.7,0-3-1.3-3-3s1.3-3,3-3s3,1.3,3,3S9.7,15,8,15z M13.9,18.4
	C13.8,18.8,13.4,19,13,19h-2c-0.4,0-0.8-0.2-0.9-0.6c-0.2-0.4-0.1-0.8,0.2-1.1l1-1c0.4-0.4,1-0.4,1.4,0l1,1
	C14,17.6,14.1,18,13.9,18.4z M16,15c-1.7,0-3-1.3-3-3s1.3-3,3-3s3,1.3,3,3S17.7,15,16,15z"/>
</svg>
