<?xml version="1.0" encoding="utf-8"?>
<!-- Generator: Adobe Illustrator 19.1.0, SVG Export Plug-In . SVG Version: 6.00 Build 0)  -->
<!DOCTYPE svg PUBLIC "-//W3C//DTD SVG 1.1//EN" "http://www.w3.org/Graphics/SVG/1.1/DTD/svg11.dtd">
<svg version="1.1" id="Layer_1" xmlns="http://www.w3.org/2000/svg" xmlns:xlink="http://www.w3.org/1999/xlink" x="0px" y="0px"
	 width="24px" height="24px" viewBox="0 0 24 24" enable-background="new 0 0 24 24" xml:space="preserve">
<path id="color_2_" d="M3,23c0,0.6,0.4,1,1,1h16c0.6,0,1-0.4,1-1v-2H3V23z"/>
<path d="M21,7H3v12h18V7z M14.7,13.7l-3,3C11.5,16.9,11.3,17,11,17s-0.5-0.1-0.7-0.3c-0.4-0.4-0.4-1,0-1.4l1.3-1.3H10
	c-0.4,0-0.8-0.2-0.9-0.6C8.9,13,9,12.6,9.3,12.3l3-3c0.4-0.4,1-0.4,1.4,0s0.4,1,0,1.4L12.4,12H14c0.4,0,0.8,0.2,0.9,0.6
	C15.1,13,15,13.4,14.7,13.7z"/>
<path id="color_1_" d="M21,3c0-0.6-0.4-1-1-1h-2V1c0-0.6-0.4-1-1-1s-1,0.4-1,1v1H8V1c0-0.6-0.4-1-1-1S6,0.4,6,1v1H4C3.4,2,3,2.4,3,3
	v2h18V3z"/>
</svg>
