<?xml version="1.0" encoding="utf-8"?>
<!-- Generator: Adobe Illustrator 19.1.0, SVG Export Plug-In . SVG Version: 6.00 Build 0)  -->
<!DOCTYPE svg PUBLIC "-//W3C//DTD SVG 1.1//EN" "http://www.w3.org/Graphics/SVG/1.1/DTD/svg11.dtd">
<svg version="1.1" id="Layer_1" xmlns="http://www.w3.org/2000/svg" xmlns:xlink="http://www.w3.org/1999/xlink" x="0px" y="0px"
	 width="24px" height="24px" viewBox="0 0 24 24" enable-background="new 0 0 24 24" xml:space="preserve">
<path id="color_19_" d="M12,7c-0.6,0-1-0.4-1-1V3c0-0.6,0.4-1,1-1s1,0.4,1,1v3C13,6.6,12.6,7,12,7z"/>
<path d="M18,9H6c-3.3,0-6,2.7-6,6s2.7,6,6,6c2.2,0,4.1-1.2,5.2-3h1.6c1.1,1.8,3,3,5.2,3c3.3,0,6-2.7,6-6S21.3,9,18,9z M8,16H7v1
	c0,0.6-0.4,1-1,1s-1-0.4-1-1v-1H4c-0.6,0-1-0.4-1-1s0.4-1,1-1h1v-1c0-0.6,0.4-1,1-1s1,0.4,1,1v1h1c0.6,0,1,0.4,1,1S8.6,16,8,16z
	 M20.7,14.7l-2,2C18.5,16.9,18.3,17,18,17s-0.5-0.1-0.7-0.3c-0.4-0.4-0.4-1,0-1.4l2-2c0.4-0.4,1-0.4,1.4,0S21.1,14.3,20.7,14.7z"/>
</svg>
