<?xml version="1.0" encoding="utf-8"?>
<!-- Generator: Adobe Illustrator 19.1.0, SVG Export Plug-In . SVG Version: 6.00 Build 0)  -->
<!DOCTYPE svg PUBLIC "-//W3C//DTD SVG 1.1//EN" "http://www.w3.org/Graphics/SVG/1.1/DTD/svg11.dtd">
<svg version="1.1" id="Layer_1" xmlns="http://www.w3.org/2000/svg" xmlns:xlink="http://www.w3.org/1999/xlink" x="0px" y="0px"
	 width="24px" height="24px" viewBox="0 0 24 24" enable-background="new 0 0 24 24" xml:space="preserve">
<path d="M23,21C13.1,21,5,12.9,5,3c0-0.6,0.4-1,1-1s1,0.4,1,1c0,8.8,7.2,16,16,16c0.6,0,1,0.4,1,1S23.6,21,23,21z"/>
<path d="M16,19.3c0,0-1.5,2.3-3.8,2.7c-1.4,0.2-2.9-1-3.6-1.7c-0.2-0.2-0.2-0.5,0-0.7c0.5-0.5,1.6-1.3,2.9-1.5
	C13.6,17.7,16,19.3,16,19.3z"/>
<path d="M4.4,14.4c-0.2-0.2-0.2-0.6,0.1-0.8c0.6-0.4,1.8-0.9,3-0.8c1.4,0.2,2.5,2.4,2.5,2.4S8.5,16.2,7.1,16
	C5.9,15.8,4.9,14.9,4.4,14.4z"/>
<path d="M11.1,14c0,0-1.4-1.5-1.3-3.4c0.1-1,1.2-1.9,1.8-2.3c0.3-0.2,0.6-0.1,0.7,0.2c0.3,0.5,0.6,1.4,0.5,2.4
	C12.9,12.5,11.1,14,11.1,14z"/>
<path d="M2.6,6.3C2.3,6.3,2,6.6,2.1,6.9c0.1,0.6,0.5,1.7,1.3,2.4c1,0.8,3.1,0.2,3.1,0.2S6.2,8,5.2,7.1C4.4,6.5,3.3,6.3,2.6,6.3z"/>
<path d="M7.1,7.1c0,0,1.8-0.3,2.7-1.8c0.5-0.7,0.2-1.9-0.1-2.6C9.7,2.5,9.4,2.4,9.1,2.5C8.6,2.8,7.9,3.2,7.5,3.9
	C6.7,5.2,7.1,7.1,7.1,7.1z"/>
<path d="M16.6,12.4c-0.3-0.1-0.6,0-0.7,0.3c-0.3,0.8-0.6,2.6,0.1,4.1c0.7,1.7,3.9,2.2,3.9,2.2s0.6-2.1-0.2-3.8
	C19,13.8,17.4,12.8,16.6,12.4z"/>
</svg>
