<?xml version="1.0" encoding="utf-8"?>
<!-- Generator: Adobe Illustrator 19.1.0, SVG Export Plug-In . SVG Version: 6.00 Build 0)  -->
<!DOCTYPE svg PUBLIC "-//W3C//DTD SVG 1.1//EN" "http://www.w3.org/Graphics/SVG/1.1/DTD/svg11.dtd">
<svg version="1.1" id="Layer_1" xmlns="http://www.w3.org/2000/svg" xmlns:xlink="http://www.w3.org/1999/xlink" x="0px" y="0px"
	 width="24px" height="24px" viewBox="0 0 24 24" enable-background="new 0 0 24 24" xml:space="preserve">
<path id="color_6_" d="M9.7,7.3l-2,2l2,2c0.4,0.4,0.4,1,0,1.4C9.5,12.9,9.3,13,9,13s-0.5-0.1-0.7-0.3l-2-2l-1.6,1.6l2,2
	c0.4,0.4,0.4,1,0,1.4C6.5,15.9,6.3,16,6,16s-0.5-0.1-0.7-0.3l-2-2L1.9,15c-0.8,0.8-1.2,1.8-1.2,2.8s0.4,2.1,1.2,2.8l1.4,1.4
	c0.8,0.8,1.8,1.2,2.8,1.2s2.1-0.4,2.8-1.2l7.8-7.8L9.7,7.3z"/>
<path d="M20.3,8l2.1-2.1c1.2-1.2,1.2-3.1,0-4.2c-1.2-1.2-3.1-1.2-4.2,0L16,3.7l-2.1-2.1c-0.4-0.4-1-0.4-1.4,0l-2.1,2.1
	c-0.4,0.4-0.4,1,0,1.4l8.5,8.5c0.2,0.2,0.5,0.3,0.7,0.3s0.5-0.1,0.7-0.3l2.1-2.1c0.4-0.4,0.4-1,0-1.4L20.3,8z"/>
</svg>
