<?xml version="1.0" encoding="utf-8"?>
<!-- Generator: Adobe Illustrator 19.1.0, SVG Export Plug-In . SVG Version: 6.00 Build 0)  -->
<!DOCTYPE svg PUBLIC "-//W3C//DTD SVG 1.1//EN" "http://www.w3.org/Graphics/SVG/1.1/DTD/svg11.dtd">
<svg version="1.1" id="Layer_1" xmlns="http://www.w3.org/2000/svg" xmlns:xlink="http://www.w3.org/1999/xlink" x="0px" y="0px"
	 width="24px" height="24px" viewBox="0 0 24 24" enable-background="new 0 0 24 24" xml:space="preserve">
<path d="M21,9c0-5-4-9-9-9S3,4,3,9c0,4.2,2.9,7.8,6.9,8.7l-0.6,0.6C9,18.6,8.9,19,9.1,19.4C9.2,19.8,9.6,20,10,20h1v3
	c0,0.6,0.4,1,1,1s1-0.4,1-1v-3h1c0,0,0,0,0,0c0.6,0,1-0.4,1-1c0-0.3-0.2-0.6-0.4-0.8l-0.5-0.5C18.1,16.8,21,13.2,21,9z M8.1,8.2
	C8,8.7,7.6,9,7.1,9C7,9,7,9,6.9,9C6.4,8.9,6,8.3,6.1,7.8c0.5-2.4,2.3-4.2,4.7-4.7C11.3,3,11.9,3.4,12,3.9c0.1,0.5-0.2,1.1-0.8,1.2
	C9.6,5.4,8.4,6.6,8.1,8.2z"/>
</svg>
