<?xml version="1.0" encoding="utf-8"?>
<!-- Generator: Adobe Illustrator 19.1.0, SVG Export Plug-In . SVG Version: 6.00 Build 0)  -->
<!DOCTYPE svg PUBLIC "-//W3C//DTD SVG 1.1//EN" "http://www.w3.org/Graphics/SVG/1.1/DTD/svg11.dtd">
<svg version="1.1" id="Layer_1" xmlns="http://www.w3.org/2000/svg" xmlns:xlink="http://www.w3.org/1999/xlink" x="0px" y="0px"
	 width="24px" height="24px" viewBox="0 0 24 24" enable-background="new 0 0 24 24" xml:space="preserve">
<path d="M22.8,7.4l-4-6C18.6,1.2,18.3,1,18,1H6C5.7,1,5.4,1.2,5.2,1.4l-4,6c-0.2,0.4-0.2,0.8,0,1.2l10,13c0.2,0.2,0.5,0.4,0.8,0.4
	s0.6-0.1,0.8-0.4l10-13C23.1,8.3,23.1,7.8,22.8,7.4z M5.7,4.3L6.6,7H3.9L5.7,4.3z M14.6,9L12,17.6L9.4,9H14.6z M9.9,7L12,3.8L14.1,7
	H9.9z M13.9,3h2.7l-0.9,2.7L13.9,3z M8.3,5.7L7.4,3h2.7L8.3,5.7z M7.3,9l2.2,7L4,9H7.3z M16.7,9H20l-5.4,7L16.7,9z M17.4,7l0.9-2.7
	L20.1,7H17.4z"/>
</svg>
