<?xml version="1.0" encoding="utf-8"?>
<!-- Generator: Adobe Illustrator 19.1.0, SVG Export Plug-In . SVG Version: 6.00 Build 0)  -->
<!DOCTYPE svg PUBLIC "-//W3C//DTD SVG 1.1//EN" "http://www.w3.org/Graphics/SVG/1.1/DTD/svg11.dtd">
<svg version="1.1" id="Layer_1" xmlns="http://www.w3.org/2000/svg" xmlns:xlink="http://www.w3.org/1999/xlink" x="0px" y="0px"
	 width="24px" height="24px" viewBox="0 0 24 24" enable-background="new 0 0 24 24" xml:space="preserve">
<path d="M23,22h-1.3l-1.9-6H4.2l-1.9,6H1c-0.6,0-1,0.4-1,1s0.4,1,1,1h20c0,0,0,0,0,0s0,0,0,0h2c0.6,0,1-0.4,1-1S23.6,22,23,22z"/>
<polygon id="color_11_" points="17.9,10 6.1,10 4.8,14 19.2,14 "/>
<path d="M15,0.7C14.8,0.3,14.4,0,14,0h-4C9.6,0,9.2,0.3,9,0.7L6.7,8h10.6L15,0.7z"/>
</svg>
