<?xml version="1.0" encoding="utf-8"?>
<!-- Generator: Adobe Illustrator 19.1.0, SVG Export Plug-In . SVG Version: 6.00 Build 0)  -->
<!DOCTYPE svg PUBLIC "-//W3C//DTD SVG 1.1//EN" "http://www.w3.org/Graphics/SVG/1.1/DTD/svg11.dtd">
<svg version="1.1" id="Layer_1" xmlns="http://www.w3.org/2000/svg" xmlns:xlink="http://www.w3.org/1999/xlink" x="0px" y="0px"
	 width="24px" height="24px" viewBox="0 0 24 24" enable-background="new 0 0 24 24" xml:space="preserve">
<path d="M19,11h-6V5.9c1.7-0.4,3-2,3-3.9V1c0-0.6-0.4-1-1-1H9C8.4,0,8,0.4,8,1v1c0,1.9,1.3,3.4,3,3.9V11H5c-0.6,0-1,0.4-1,1v4
	c0,4.4,3.6,8,8,8s8-3.6,8-8v-4C20,11.4,19.6,11,19,11z M10,2h4c0,1.1-0.9,2-2,2S10,3.1,10,2z"/>
</svg>
