<?xml version="1.0" encoding="utf-8"?>
<!-- Generator: Adobe Illustrator 19.1.0, SVG Export Plug-In . SVG Version: 6.00 Build 0)  -->
<!DOCTYPE svg PUBLIC "-//W3C//DTD SVG 1.1//EN" "http://www.w3.org/Graphics/SVG/1.1/DTD/svg11.dtd">
<svg version="1.1" id="Layer_1" xmlns="http://www.w3.org/2000/svg" xmlns:xlink="http://www.w3.org/1999/xlink" x="0px" y="0px"
	 width="24px" height="24px" viewBox="0 0 24 24" enable-background="new 0 0 24 24" xml:space="preserve">
<path d="M13,3V1c0-0.6-0.4-1-1-1s-1,0.4-1,1v2C6,3.5,1,7,1,16c0,5.9,5.9,8,11,8s11-2.1,11-8C23,7,18,3.5,13,3z M12,19
	c-3.7,0-8-1.3-8-5c0-5.3,4-8,8-8c3.9,0,8,2.8,8,8C20,17.7,15.7,19,12,19z"/>
<path id="color_15_" d="M9.8,8c-1.1,0.2-2.5,0.8-3.3,2.4c-0.2,0.5,0,1.1,0.4,1.3c0.1,0.1,0.3,0.1,0.4,0.1c0.4,0,0.7-0.2,0.9-0.6
	c0.3-0.7,1-1.1,1.9-1.4c0.5-0.1,0.9-0.7,0.8-1.2C10.9,8.2,10.3,7.9,9.8,8z"/>
</svg>
