<?xml version="1.0" encoding="utf-8"?>
<!-- Generator: Adobe Illustrator 19.1.0, SVG Export Plug-In . SVG Version: 6.00 Build 0)  -->
<!DOCTYPE svg PUBLIC "-//W3C//DTD SVG 1.1//EN" "http://www.w3.org/Graphics/SVG/1.1/DTD/svg11.dtd">
<svg version="1.1" id="Layer_1" xmlns="http://www.w3.org/2000/svg" xmlns:xlink="http://www.w3.org/1999/xlink" x="0px" y="0px"
	 width="24px" height="24px" viewBox="0 0 24 24" enable-background="new 0 0 24 24" xml:space="preserve">
<path d="M21,2H10C9.4,2,9,2.4,9,3v3c0,0.6,0.4,1,1,1h3.9c-1.1,1.1-2.5,1.8-4,1.9C9.3,9,8.9,9.5,9,10.1c0.1,0.5,0.5,0.9,1,0.9
	c0,0,0.1,0,0.1,0c2.2-0.3,4.3-1.4,5.7-3.1c-0.9,5.3-5.3,8.3-5.4,8.3C10.2,16.3,10,16.7,10,17v6c0,0.6,0.4,1,1,1h9c0.6,0,1-0.4,1-1V7
	c0.6,0,1-0.4,1-1V3C22,2.4,21.6,2,21,2z"/>
<path id="color_9_" d="M6,5c0-0.6-0.4-1-1-1H3C2.4,4,2,4.4,2,5s0.4,1,1,1h2C5.6,6,6,5.6,6,5z"/>
<path id="color_8_" d="M5.3,7.1l-1,0.6C3.8,8,3.6,8.6,3.9,9.1c0.2,0.3,0.5,0.5,0.9,0.5c0.2,0,0.3,0,0.5-0.1l1-0.6
	C6.8,8.6,6.9,8,6.7,7.5C6.4,7,5.8,6.9,5.3,7.1z"/>
<path id="color_7_" d="M6.3,1.1l-1-0.6C4.8,0.3,4.2,0.4,3.9,0.9S3.8,2,4.3,2.3l1,0.6C5.5,3,5.6,3,5.8,3c0.3,0,0.7-0.2,0.9-0.5
	C6.9,2,6.8,1.4,6.3,1.1z"/>
</svg>
