<?xml version="1.0" encoding="utf-8"?>
<!-- Generator: Adobe Illustrator 19.1.0, SVG Export Plug-In . SVG Version: 6.00 Build 0)  -->
<!DOCTYPE svg PUBLIC "-//W3C//DTD SVG 1.1//EN" "http://www.w3.org/Graphics/SVG/1.1/DTD/svg11.dtd">
<svg version="1.1" id="Layer_1" xmlns="http://www.w3.org/2000/svg" xmlns:xlink="http://www.w3.org/1999/xlink" x="0px" y="0px"
	 width="24px" height="24px" viewBox="0 0 24 24" enable-background="new 0 0 24 24" xml:space="preserve">
<path d="M19,10h-5V7.5c1.2-0.7,2-2,2-3.5c0-2.2-1.8-4-4-4S8,1.8,8,4c0,1.4,0.8,2.7,2,3.5V10H5c-0.6,0-1,0.4-1,1v2c0,0.6,0.4,1,1,1
	h2.5c-1,1.1-1.5,2.5-1.5,4c0,3.3,2.7,6,6,6s6-2.7,6-6c0-1.5-0.6-2.9-1.5-4H19c0.6,0,1-0.4,1-1v-2C20,10.4,19.6,10,19,10z M16,18
	c0,2.2-1.8,4-4,4s-4-1.8-4-4s1.8-4,4-4S16,15.8,16,18z"/>
</svg>
