<svg xmlns="http://www.w3.org/2000/svg" width="24" height="24" viewBox="0 0 24 24">
  <title>shopping-24px-outline_shop</title>
  <path d="M3,12.657V24h8V19h2v5h8V12.657A3.873,3.873,0,0,0,23,9V8.764L18.618,0H5.382L1,8.764V9A3.873,3.873,0,0,0,3,12.657ZM15,22V17H9v5H5V12.949a3.486,3.486,0,0,0,2-1,3.495,3.495,0,0,0,5,0,3.495,3.495,0,0,0,5,0,3.486,3.486,0,0,0,2,1V22ZM6.618,2H17.382l3.612,7.224C20.93,10.341,20.382,11,19.5,11A1.5,1.5,0,0,1,18,9.5H16a1.5,1.5,0,0,1-3,0H11a1.5,1.5,0,0,1-3,0H6A1.5,1.5,0,0,1,4.5,11c-.882,0-1.43-.659-1.494-1.776Z"/>
</svg>
