<svg xmlns="http://www.w3.org/2000/svg" width="24" height="24" viewBox="0 0 24 24">
  <title>shopping-24px-outline_cart-simple-in</title>
  <polygon points="8.586 9 13 13.414 17.414 9 14 9 14 2 12 2 12 9 8.586 9"/>
  <path d="M4,21a3,3,0,1,0,3-3A3,3,0,0,0,4,21Zm4,0a1,1,0,1,1-1-1A1,1,0,0,1,8,21Z"/>
  <path d="M16,21a3,3,0,1,0,3-3A3,3,0,0,0,16,21Zm4,0a1,1,0,1,1-1-1A1,1,0,0,1,20,21Z"/>
  <polygon points="5.125 17 20.82 17 23.22 5 17 5 17 7 20.78 7 19.18 15 6.875 15 5.809 7 9 7 9 5 5.542 5 4.875 0 1 0 1 2 3.125 2 5.125 17"/>
</svg>
