<svg xmlns="http://www.w3.org/2000/svg" width="24" height="24" viewBox="0 0 24 24">
  <title>shopping-24px-outline_hand-card</title>
  <rect x="3" y="11" width="5" height="2"/>
  <path d="M3.458,17.537a4.016,4.016,0,0,0,3.29,2.7A88.2,88.2,0,0,0,16,21a7.888,7.888,0,0,0,5.654-2.328A8.19,8.19,0,0,0,24,12.771a7.946,7.946,0,0,0-7-7.7V2H0V17H3.279ZM22,12.791a6.208,6.208,0,0,1-1.765,4.474A5.9,5.9,0,0,1,16,19a86.363,86.363,0,0,1-9-.744A1.97,1.97,0,0,1,5.4,17H17V13.89A4.974,4.974,0,0,0,18,14V12a3,3,0,0,1-3-3V8H12a2,2,0,0,1-1.731-1h5.675A5.974,5.974,0,0,1,22,12.791ZM15,4V5H8V6a3.954,3.954,0,0,0,.142,1H2V4ZM2,9H9.382A3.966,3.966,0,0,0,12,10h1.1A5,5,0,0,0,15,12.98V15H2Z"/>
</svg>
