<svg xmlns="http://www.w3.org/2000/svg" width="24" height="24" viewBox="0 0 24 24">
  <title>shopping-24px-outline_receipt</title>
  <path d="M22,.132,18,2.8l-3-2-3,2L9,.8l-3,2L2,.132V24H22ZM20,22H4V3.868L6,5.2l3-2,3,2,3-2,3,2,2-1.334Z"/>
  <path d="M13.97,11.192l.193.98,1.962-.386-.193-.981A3.439,3.439,0,0,0,13,8.042V7H11V8.049A3.447,3.447,0,0,0,8,11.5c0,2.131,1.6,2.863,3,3.266v3.149a1.458,1.458,0,0,1-.971-1.108l-.192-.981-1.963.385.192.981A3.437,3.437,0,0,0,11,19.958V21h2V19.951A3.447,3.447,0,0,0,16,16.5c0-2.131-1.6-2.863-3-3.266V10.085A1.458,1.458,0,0,1,13.97,11.192ZM10,11.5a1.477,1.477,0,0,1,1-1.411v2.576C10.258,12.389,10,12.088,10,11.5Zm4,5a1.477,1.477,0,0,1-1,1.411V15.335C13.742,15.611,14,15.912,14,16.5Z"/>
</svg>
