<svg xmlns="http://www.w3.org/2000/svg" width="24" height="24" viewBox="0 0 24 24">
  <title>shopping-24px-outline_cart-modern-add</title>
  <polygon points="5 5 10 5 10 3 5 3 5 0 0 0 0 2 3 2 3 3 3 5 3 17 24 17 24 15 5 15 5 5"/>
  <path d="M9,21a3,3,0,1,0-3,3A3,3,0,0,0,9,21ZM5,21a1,1,0,1,1,1,1A1,1,0,0,1,5,21Z"/>
  <path d="M21,18a3,3,0,1,0,3,3A3,3,0,0,0,21,18Zm0,4a1,1,0,1,1,1-1A1,1,0,0,1,21,22Z"/>
  <path d="M18,0a6,6,0,1,0,6,6A6.007,6.007,0,0,0,18,0Zm0,10a4,4,0,1,1,4-4A4,4,0,0,1,18,10Z"/>
  <polygon points="19 3 17 3 17 5 15 5 15 7 17 7 17 9 19 9 19 7 21 7 21 5 19 5 19 3"/>
</svg>
