<svg xmlns="http://www.w3.org/2000/svg" width="24" height="24" viewBox="0 0 24 24">
  <title>shopping-24px-outline_cart-simple-remove</title>
  <path d="M10,21a3,3,0,1,0-3,3A3,3,0,0,0,10,21ZM6,21a1,1,0,1,1,1,1A1,1,0,0,1,6,21Z"/>
  <path d="M22,21a3,3,0,1,0-3,3A3,3,0,0,0,22,21Zm-4,0a1,1,0,1,1,1,1A1,1,0,0,1,18,21Z"/>
  <path d="M18,0a6,6,0,0,0-5.91,5H5.542L4.875,0H1V2H3.125l2,15h15.7l1.336-6.682A5.993,5.993,0,0,0,18,0Zm0,2a4,4,0,1,1-4,4A4,4,0,0,1,18,2Zm1.18,13H6.875L5.809,7H12.09a5.987,5.987,0,0,0,7.748,4.709Z"/>
  <rect x="15" y="5" width="6" height="2"/>
</svg>
