<svg xmlns="http://www.w3.org/2000/svg" width="24" height="24" viewBox="0 0 24 24">
  <title>shopping-24px-outline-2_tag-loyalty</title>
  <polygon points="5 9.414 11 3.414 17 9.414 17 12 19 12 19 8.586 11 0.586 3 8.586 3 24 13 24 13 22 5 22 5 9.414" fill="#1d1d1b"/>
  <path d="M8,10a3,3,0,1,0,3-3A3,3,0,0,0,8,10Zm4,0a1,1,0,1,1-1-1A1,1,0,0,1,12,10Z" fill="#1d1d1b"/>
  <path d="M22.063,14.919A3.208,3.208,0,0,0,18,14.564a3.2,3.2,0,0,0-4.064.355,3.136,3.136,0,0,0,0,4.471L18,23.405l4.064-4.015a3.136,3.136,0,0,0,0-4.471Zm-1.405,3.049L18,20.595l-2.658-2.626a1.139,1.139,0,0,1,0-1.627A1.19,1.19,0,0,1,16.18,16q.062,0,.123.006a1.184,1.184,0,0,1,.867.516L18,17.757l.831-1.235a1.184,1.184,0,0,1,.868-.516,1.206,1.206,0,0,1,.96.337,1.137,1.137,0,0,1,0,1.625Z" fill="#1d1d1b"/>
</svg>
