<svg xmlns="http://www.w3.org/2000/svg" width="24" height="24" viewBox="0 0 24 24">
  <title>shopping-24px-outline-2_cart-refresh</title>
  <polygon points="5 5 10 5 10 3 5 3 5 0 0 0 0 2 3 2 3 3 3 5 3 17 24 17 24 15 5 15 5 5" fill="#1d1d1b"/>
  <path d="M9,21a3,3,0,1,0-3,3A3,3,0,0,0,9,21ZM5,21a1,1,0,1,1,1,1A1,1,0,0,1,5,21Z" fill="#1d1d1b"/>
  <path d="M21,18a3,3,0,1,0,3,3A3,3,0,0,0,21,18Zm0,4a1,1,0,1,1,1-1A1,1,0,0,1,21,22Z" fill="#1d1d1b"/>
  <path d="M22.792,5,23.22.649,21.754,1.714a4.989,4.989,0,0,0-8.6,2.036l1.938.5a3,3,0,0,1,5.036-1.356L18.522,4.061Z" fill="#1d1d1b"/>
  <path d="M14.246,9.286a4.989,4.989,0,0,0,8.6-2.036l-1.937-.5a3,3,0,0,1-5.036,1.356l1.608-1.168L13.208,6l-.428,4.351Z" fill="#1d1d1b"/>
</svg>
