<svg xmlns="http://www.w3.org/2000/svg" width="24" height="24" viewBox="0 0 24 24">
  <title>shopping-24px-outline-2_card-favorite</title>
  <path d="M21,0H3A3,3,0,0,0,0,3V16a3,3,0,0,0,3,3h7V17H3a1,1,0,0,1-1-1V11H24V3A3,3,0,0,0,21,0Zm1,9H2V6H22ZM2,4V3A1,1,0,0,1,3,2H21a1,1,0,0,1,1,1V4Z" fill="#1d1d1b"/>
  <path d="M22.914,18.433a3.811,3.811,0,0,0,0-5.323A3.7,3.7,0,0,0,18,12.781a3.7,3.7,0,0,0-4.914.329,3.811,3.811,0,0,0,0,5.323L18,23.426Zm-8.4-3.919A1.7,1.7,0,0,1,15.726,14a1.617,1.617,0,0,1,.169.009,1.717,1.717,0,0,1,1.269.778L18,16.068l.837-1.282a1.717,1.717,0,0,1,1.269-.778,1.681,1.681,0,0,1,1.383.5,1.8,1.8,0,0,1,0,2.516L18,20.574l-3.488-3.545A1.8,1.8,0,0,1,14.512,14.513Z" fill="#1d1d1b"/>
</svg>
