<svg xmlns="http://www.w3.org/2000/svg" width="24" height="24" viewBox="0 0 24 24">
  <title>shopping-24px-outline-2_new</title>
  <rect y="4" width="24" height="2" fill="#1d1d1b"/>
  <rect y="18" width="24" height="2" fill="#1d1d1b"/>
  <path d="M1,8.5v7H2.314c0-3.635-.048-5.3-.048-5.3l3.018,5.3H7.154v-7H5.83c.005,1.182.038,5.243.038,5.243L2.855,8.5Z" fill="#1d1d1b"/>
  <polygon points="12.963 9.716 12.963 8.5 8.968 8.5 8.968 15.5 12.963 15.5 12.963 14.274 10.438 14.274 10.438 12.469 12.787 12.469 12.787 11.253 10.438 11.253 10.438 9.716 12.963 9.716" fill="#1d1d1b"/>
  <path d="M17.98,11.832c.08-.317.278-1.285.318-1.647.027.3.254,1.377.322,1.638l.94,3.677h1.675L23,8.5H21.553l-.882,3.821c-.109.437-.276,1.314-.342,1.834-.059-.436-.216-1.328-.318-1.733L19,8.5H17.61c-.381,1.438-1.193,4.729-1.333,5.655q-.1-.776-.337-1.834L15.053,8.5H13.605l1.77,7h1.67Z" fill="#1d1d1b"/>
</svg>
