<svg xmlns="http://www.w3.org/2000/svg" width="24" height="24" viewBox="0 0 24 24">
  <title>shopping-24px-outline-2_cut</title>
  <rect x="14" y="7" width="4" height="2" fill="#1d1d1b"/>
  <rect x="14" y="21" width="4" height="2" fill="#1d1d1b"/>
  <rect x="8" y="21" width="4" height="2" fill="#1d1d1b"/>
  <rect x="22" y="13" width="2" height="4" fill="#1d1d1b"/>
  <polygon points="20 9 22 9 22 11 24 11 24 7 20 7 20 9" fill="#1d1d1b"/>
  <polygon points="22 21 20 21 20 23 24 23 24 19 22 19 22 21" fill="#1d1d1b"/>
  <polygon points="2 19 2 23 6 23 6 21 4 21 4 19 2 19" fill="#1d1d1b"/>
  <path d="M4.5,10.419A2.966,2.966,0,0,0,3,10a3,3,0,1,0,3,3,2.97,2.97,0,0,0-.2-1.058L8.909,9.31l7.208,6.1,1.292-1.526L10.457,8l6.952-5.883L16.117.591,8.909,6.69,5.8,4.058A2.97,2.97,0,0,0,6,3,3,3,0,1,0,3,6a2.966,2.966,0,0,0,1.5-.419L7.361,8ZM3,14a1,1,0,1,1,.69-1.718l.044.052A.989.989,0,0,1,4,13,1,1,0,0,1,3,14ZM2,3A1,1,0,0,1,4,3a.989.989,0,0,1-.265.666l-.044.052A1,1,0,0,1,2,3Z" fill="#1d1d1b"/>
</svg>
