<?xml version="1.0" encoding="utf-8"?>
<!-- Generator: Adobe Illustrator 20.1.0, SVG Export Plug-In . SVG Version: 6.00 Build 0)  -->
<!DOCTYPE svg PUBLIC "-//W3C//DTD SVG 1.1//EN" "http://www.w3.org/Graphics/SVG/1.1/DTD/svg11.dtd">
<svg version="1.1" id="Layer_1" xmlns="http://www.w3.org/2000/svg" xmlns:xlink="http://www.w3.org/1999/xlink" x="0px" y="0px"
	 width="64px" height="64px" viewBox="0 0 64 64" enable-background="new 0 0 64 64" xml:space="preserve">
<path d="M62,12H30.5l-5.7-7.6C24.611,4.148,24.314,4,24,4H2C1.447,4,1,4.447,1,5v50c0,2.757,2.243,5,5,5h52c2.757,0,5-2.243,5-5V13
	C63,12.447,62.553,12,62,12z M61,55c0,1.654-1.346,3-3,3H6c-1.654,0-3-1.346-3-3V6h20.5l5.7,7.6c0.188,0.252,0.485,0.4,0.8,0.4h31
	V55z"/>
<path d="M25,31c0,3.928,3.154,5.039,6,5.777V45c-2.206,0-4-1.794-4-4c0-0.553-0.447-1-1-1s-1,0.447-1,1c0,3.309,2.691,6,6,6v3
	c0,0.553,0.447,1,1,1s1-0.447,1-1v-3c3.309,0,6-2.691,6-6c0-3.928-3.154-5.039-6-5.777V27c2.206,0,4,1.794,4,4c0,0.553,0.447,1,1,1
	s1-0.447,1-1c0-3.309-2.691-6-6-6v-3c0-0.553-0.447-1-1-1s-1,0.447-1,1v3C27.691,25,25,27.691,25,31z M37,41c0,2.206-1.794,4-4,4
	v-7.705C35.505,37.99,37,38.762,37,41z M31,27v7.705c-2.505-0.694-4-1.466-4-3.705C27,28.794,28.794,27,31,27z"/>
</svg>
