<?xml version="1.0" encoding="utf-8"?>
<!-- Generator: Adobe Illustrator 20.1.0, SVG Export Plug-In . SVG Version: 6.00 Build 0)  -->
<!DOCTYPE svg PUBLIC "-//W3C//DTD SVG 1.1//EN" "http://www.w3.org/Graphics/SVG/1.1/DTD/svg11.dtd">
<svg version="1.1" id="Layer_1" xmlns="http://www.w3.org/2000/svg" xmlns:xlink="http://www.w3.org/1999/xlink" x="0px" y="0px"
	 width="64px" height="64px" viewBox="0 0 64 64" enable-background="new 0 0 64 64" xml:space="preserve">
<path d="M62,12H30.5l-5.7-7.6C24.611,4.148,24.315,4,24,4H2C1.448,4,1,4.447,1,5v50c0,2.757,2.243,5,5,5h52c2.757,0,5-2.243,5-5V13
	C63,12.447,62.552,12,62,12z M61,55c0,1.654-1.346,3-3,3H6c-1.654,0-3-1.346-3-3V6h20.5l5.7,7.6c0.188,0.252,0.485,0.4,0.8,0.4h31
	V55z"/>
<path d="M20.707,35.293c-0.391-0.391-1.023-0.391-1.414,0s-0.391,1.023,0,1.414l8,8C27.488,44.902,27.744,45,28,45
	s0.512-0.098,0.707-0.293l16-16c0.391-0.391,0.391-1.023,0-1.414s-1.023-0.391-1.414,0L28,42.586L20.707,35.293z"/>
</svg>
