<?xml version="1.0" encoding="utf-8"?>
<!-- Generator: Adobe Illustrator 20.1.0, SVG Export Plug-In . SVG Version: 6.00 Build 0)  -->
<!DOCTYPE svg PUBLIC "-//W3C//DTD SVG 1.1//EN" "http://www.w3.org/Graphics/SVG/1.1/DTD/svg11.dtd">
<svg version="1.1" id="Layer_1" xmlns="http://www.w3.org/2000/svg" xmlns:xlink="http://www.w3.org/1999/xlink" x="0px" y="0px"
	 width="64px" height="64px" viewBox="0 0 64 64" enable-background="new 0 0 64 64" xml:space="preserve">
<path d="M62,12c-0.553,0-1,0.447-1,1v42c0,1.654-1.346,3-3,3H6c-1.654,0-3-1.346-3-3V6h20.5l5.7,7.6c0.188,0.252,0.485,0.4,0.8,0.4
	h3c0.553,0,1-0.447,1-1s-0.447-1-1-1h-2.5l-5.7-7.6C24.611,4.148,24.314,4,24,4H2C1.447,4,1,4.447,1,5v50c0,2.757,2.243,5,5,5h52
	c2.757,0,5-2.243,5-5V13C63,12.447,62.553,12,62,12z"/>
<path d="M39.447,33.895L47,30.118l7.553,3.776C54.694,33.965,54.847,34,55,34c0.183,0,0.365-0.05,0.525-0.149
	C55.82,33.668,56,33.347,56,33V11c0-0.553-0.447-1-1-1H39c-0.553,0-1,0.447-1,1v22c0,0.347,0.18,0.668,0.475,0.851
	S39.137,34.048,39.447,33.895z M40,12h14v19.382l-6.553-3.276C47.307,28.035,47.153,28,47,28s-0.307,0.035-0.447,0.105L40,31.382V12
	z"/>
</svg>
