<?xml version="1.0" encoding="utf-8"?>
<!-- Generator: Adobe Illustrator 20.1.0, SVG Export Plug-In . SVG Version: 6.00 Build 0)  -->
<!DOCTYPE svg PUBLIC "-//W3C//DTD SVG 1.1//EN" "http://www.w3.org/Graphics/SVG/1.1/DTD/svg11.dtd">
<svg version="1.1" id="Layer_1" xmlns="http://www.w3.org/2000/svg" xmlns:xlink="http://www.w3.org/1999/xlink" x="0px" y="0px"
	 width="64px" height="64px" viewBox="0 0 64 64" enable-background="new 0 0 64 64" xml:space="preserve">
<path d="M8,63h48c0.552,0,1-0.448,1-1V14c0-0.134-0.027-0.264-0.078-0.385c-0.051-0.121-0.124-0.231-0.216-0.322L44.707,1.293
	c-0.091-0.092-0.201-0.165-0.322-0.216C44.264,1.027,44.134,1,44,1H8C7.448,1,7,1.448,7,2v60C7,62.552,7.448,63,8,63z M45,4.414
	L53.586,13H45V4.414z M9,3h34v11c0,0.552,0.448,1,1,1h11v46H9V3z"/>
<path d="M41.293,35.293L33,43.586V18c0-0.552-0.448-1-1-1s-1,0.448-1,1v25.586l-8.293-8.293c-0.391-0.391-1.023-0.391-1.414,0
	s-0.391,1.023,0,1.414l10,10c0.092,0.092,0.203,0.165,0.325,0.216C31.74,46.973,31.87,47,32,47s0.26-0.027,0.382-0.077
	c0.122-0.051,0.233-0.124,0.325-0.216l10-10c0.391-0.391,0.391-1.023,0-1.414S41.684,34.902,41.293,35.293z"/>
</svg>
