<?xml version="1.0" encoding="utf-8"?>
<!-- Generator: Adobe Illustrator 20.1.0, SVG Export Plug-In . SVG Version: 6.00 Build 0)  -->
<!DOCTYPE svg PUBLIC "-//W3C//DTD SVG 1.1//EN" "http://www.w3.org/Graphics/SVG/1.1/DTD/svg11.dtd">
<svg version="1.1" id="Layer_1" xmlns="http://www.w3.org/2000/svg" xmlns:xlink="http://www.w3.org/1999/xlink" x="0px" y="0px"
	 width="64px" height="64px" viewBox="0 0 64 64" enable-background="new 0 0 64 64" xml:space="preserve">
<path d="M6,63h44c0.552,0,1-0.448,1-1V10c0-0.552-0.448-1-1-1H6c-0.552,0-1,0.448-1,1v52C5,62.552,5.448,63,6,63z M7,11h42v50H7V11z
	"/>
<path d="M40,23H16c-0.552,0-1,0.448-1,1s0.448,1,1,1h24c0.552,0,1-0.448,1-1S40.552,23,40,23z"/>
<path d="M40,35H16c-0.552,0-1,0.448-1,1s0.448,1,1,1h24c0.552,0,1-0.448,1-1S40.552,35,40,35z"/>
<path d="M24,47h-8c-0.552,0-1,0.448-1,1s0.448,1,1,1h8c0.552,0,1-0.448,1-1S24.552,47,24,47z"/>
<path d="M12,3h45v53c0,0.552,0.448,1,1,1s1-0.448,1-1V2c0-0.552-0.448-1-1-1H12c-0.552,0-1,0.448-1,1S11.448,3,12,3z"/>
</svg>
