<?xml version="1.0" encoding="utf-8"?>
<!-- Generator: Adobe Illustrator 20.1.0, SVG Export Plug-In . SVG Version: 6.00 Build 0)  -->
<!DOCTYPE svg PUBLIC "-//W3C//DTD SVG 1.1//EN" "http://www.w3.org/Graphics/SVG/1.1/DTD/svg11.dtd">
<svg version="1.1" id="Layer_1" xmlns="http://www.w3.org/2000/svg" xmlns:xlink="http://www.w3.org/1999/xlink" x="0px" y="0px"
	 width="64px" height="64px" viewBox="0 0 64 64" enable-background="new 0 0 64 64" xml:space="preserve">
<path d="M62,12H30.5l-5.7-7.6C24.611,4.148,24.314,4,24,4H2C1.447,4,1,4.447,1,5v50c0,2.757,2.243,5,5,5h52c2.757,0,5-2.243,5-5V13
	C63,12.447,62.553,12,62,12z M61,55c0,1.654-1.346,3-3,3H6c-1.654,0-3-1.346-3-3V6h20.5l5.7,7.6c0.188,0.252,0.485,0.4,0.8,0.4h31
	V55z"/>
<path d="M17,36c0,8.271,6.729,15,15,15s15-6.729,15-15s-6.729-15-15-15S17,27.729,17,36z M32,23c7.168,0,13,5.832,13,13
	s-5.832,13-13,13s-13-5.832-13-13S24.832,23,32,23z"/>
<path d="M32,37h7c0.553,0,1-0.447,1-1s-0.447-1-1-1h-6v-6c0-0.553-0.447-1-1-1s-1,0.447-1,1v7C31,36.553,31.447,37,32,37z"/>
</svg>
