<?xml version="1.0" encoding="utf-8"?>
<!-- Generator: Adobe Illustrator 20.1.0, SVG Export Plug-In . SVG Version: 6.00 Build 0)  -->
<!DOCTYPE svg PUBLIC "-//W3C//DTD SVG 1.1//EN" "http://www.w3.org/Graphics/SVG/1.1/DTD/svg11.dtd">
<svg version="1.1" id="Layer_1" xmlns="http://www.w3.org/2000/svg" xmlns:xlink="http://www.w3.org/1999/xlink" x="0px" y="0px"
	 width="64px" height="64px" viewBox="0 0 64 64" enable-background="new 0 0 64 64" xml:space="preserve">
<path d="M2,41h20c0.553,0,1-0.448,1-1s-0.447-1-1-1H3V3h32v15c0,0.552,0.447,1,1,1s1-0.448,1-1V2c0-0.552-0.447-1-1-1H2
	C1.447,1,1,1.448,1,2v38C1,40.552,1.447,41,2,41z"/>
<path d="M62,23H28c-0.553,0-1,0.448-1,1v38c0,0.552,0.447,1,1,1h34c0.553,0,1-0.448,1-1V24C63,23.448,62.553,23,62,23z M61,61H29V25
	h32V61z"/>
<path d="M50.707,3.293c-0.391-0.391-1.023-0.391-1.414,0l-5.999,5.999c-0.093,0.092-0.166,0.203-0.217,0.326
	c-0.101,0.244-0.101,0.52,0,0.764c0.051,0.123,0.124,0.233,0.217,0.326l5.999,5.999C49.488,16.902,49.744,17,50,17
	s0.512-0.098,0.707-0.293c0.391-0.391,0.391-1.023,0-1.414L46.414,11H52c3.859,0,7,3.14,7,7c0,0.552,0.447,1,1,1s1-0.448,1-1
	c0-4.962-4.037-9-9-9h-5.586l4.293-4.293C51.098,4.316,51.098,3.684,50.707,3.293z"/>
<path d="M5,46c0-0.552-0.447-1-1-1s-1,0.448-1,1c0,4.962,4.037,9,9,9h5.586l-4.293,4.293c-0.391,0.391-0.391,1.023,0,1.414
	C13.488,60.902,13.744,61,14,61s0.512-0.098,0.707-0.293l5.999-5.999c0.093-0.092,0.166-0.203,0.217-0.326
	c0.101-0.244,0.101-0.52,0-0.764c-0.051-0.123-0.124-0.233-0.217-0.326l-5.999-5.999c-0.391-0.391-1.023-0.391-1.414,0
	s-0.391,1.023,0,1.414L17.586,53H12C8.141,53,5,49.86,5,46z"/>
</svg>
