<?xml version="1.0" encoding="utf-8"?>
<!-- Generator: Adobe Illustrator 20.1.0, SVG Export Plug-In . SVG Version: 6.00 Build 0)  -->
<!DOCTYPE svg PUBLIC "-//W3C//DTD SVG 1.1//EN" "http://www.w3.org/Graphics/SVG/1.1/DTD/svg11.dtd">
<svg version="1.1" id="Layer_1" xmlns="http://www.w3.org/2000/svg" xmlns:xlink="http://www.w3.org/1999/xlink" x="0px" y="0px"
	 width="64px" height="64px" viewBox="0 0 64 64" enable-background="new 0 0 64 64" xml:space="preserve">
<path d="M62,18c-0.553,0-1,0.448-1,1v22H42c-0.553,0-1,0.448-1,1v6H23v-6c0-0.552-0.447-1-1-1H3V19c0-0.552-0.447-1-1-1
	s-1,0.448-1,1v43c0,0.552,0.447,1,1,1h60c0.553,0,1-0.448,1-1V19C63,18.448,62.553,18,62,18z M3,61V43h18v6c0,0.552,0.447,1,1,1h20
	c0.553,0,1-0.448,1-1v-6h18v18H3z"/>
<path d="M54,37c0.553,0,1-0.448,1-1V2c0-0.552-0.447-1-1-1H10C9.447,1,9,1.448,9,2v34c0,0.552,0.447,1,1,1s1-0.448,1-1V3h42v33
	C53,36.552,53.447,37,54,37z"/>
<path d="M43,11H21c-0.553,0-1,0.448-1,1s0.447,1,1,1h22c0.553,0,1-0.448,1-1S43.553,11,43,11z"/>
<path d="M44,22c0-0.552-0.447-1-1-1H21c-0.553,0-1,0.448-1,1s0.447,1,1,1h22C43.553,23,44,22.552,44,22z"/>
<path d="M21,31c-0.553,0-1,0.448-1,1s0.447,1,1,1h11c0.553,0,1-0.448,1-1s-0.447-1-1-1H21z"/>
</svg>
