<?xml version="1.0" encoding="utf-8"?>
<!-- Generator: Adobe Illustrator 20.1.0, SVG Export Plug-In . SVG Version: 6.00 Build 0)  -->
<!DOCTYPE svg PUBLIC "-//W3C//DTD SVG 1.1//EN" "http://www.w3.org/Graphics/SVG/1.1/DTD/svg11.dtd">
<svg version="1.1" id="Layer_1" xmlns="http://www.w3.org/2000/svg" xmlns:xlink="http://www.w3.org/1999/xlink" x="0px" y="0px"
	 width="64px" height="64px" viewBox="0 0 64 64" enable-background="new 0 0 64 64" xml:space="preserve">
<path d="M37.293,43.293c-0.147,0.147-0.245,0.337-0.279,0.543l-1,6c-0.053,0.318,0.051,0.643,0.279,0.871
	C36.482,50.896,36.737,51,37,51c0.055,0,0.109-0.005,0.164-0.014l6-1c0.206-0.034,0.396-0.132,0.543-0.279l18-18
	c0.391-0.391,0.391-1.023,0-1.414l-5-5c-0.391-0.391-1.023-0.391-1.414,0L53,27.586V14c0-0.134-0.027-0.264-0.078-0.385
	c-0.051-0.122-0.125-0.232-0.217-0.323L40.708,1.294c-0.092-0.092-0.202-0.166-0.323-0.217C40.264,1.027,40.134,1,40,1H4
	C3.447,1,3,1.447,3,2v60c0,0.553,0.447,1,1,1h48c0.553,0,1-0.447,1-1V48c0-0.553-0.447-1-1-1s-1,0.447-1,1v13H5V3h34v11
	c0,0.553,0.447,1,1,1h11v14.586L37.293,43.293z M41,4.414L49.586,13H41V4.414z M56,27.414L59.586,31L42.52,48.066l-4.303,0.717
	l0.717-4.303l13.772-13.772c0.001-0.001,0.002-0.002,0.003-0.003L56,27.414z"/>
</svg>
