<?xml version="1.0" encoding="utf-8"?>
<!-- Generator: Adobe Illustrator 20.1.0, SVG Export Plug-In . SVG Version: 6.00 Build 0)  -->
<!DOCTYPE svg PUBLIC "-//W3C//DTD SVG 1.1//EN" "http://www.w3.org/Graphics/SVG/1.1/DTD/svg11.dtd">
<svg version="1.1" id="Layer_1" xmlns="http://www.w3.org/2000/svg" xmlns:xlink="http://www.w3.org/1999/xlink" x="0px" y="0px"
	 width="64px" height="64px" viewBox="0 0 64 64" enable-background="new 0 0 64 64" xml:space="preserve">
<path d="M62,62V26c0-0.552-0.447-1-1-1H50V2c0-0.552-0.447-1-1-1H3C2.447,1,2,1.448,2,2v52c0,0.552,0.447,1,1,1h20
	c0.553,0,1-0.448,1-1s-0.447-1-1-1H4V3h44v22H29c-0.553,0-1,0.448-1,1v36c0,0.552,0.447,1,1,1h32C61.553,63,62,62.552,62,62z M60,61
	H30V27h30V61z"/>
</svg>
