<?xml version="1.0" encoding="utf-8"?>
<!-- Generator: Adobe Illustrator 20.1.0, SVG Export Plug-In . SVG Version: 6.00 Build 0)  -->
<!DOCTYPE svg PUBLIC "-//W3C//DTD SVG 1.1//EN" "http://www.w3.org/Graphics/SVG/1.1/DTD/svg11.dtd">
<svg version="1.1" id="Layer_1" xmlns="http://www.w3.org/2000/svg" xmlns:xlink="http://www.w3.org/1999/xlink" x="0px" y="0px"
	 width="64px" height="64px" viewBox="0 0 64 64" enable-background="new 0 0 64 64" xml:space="preserve">
<path d="M7,62c0,0.553,0.448,1,1,1h48c0.552,0,1-0.447,1-1V14c0-0.134-0.027-0.264-0.078-0.385
	c-0.051-0.122-0.124-0.231-0.216-0.323L44.708,1.294c-0.092-0.092-0.201-0.165-0.323-0.216C44.264,1.027,44.133,1,44,1H8
	C7.448,1,7,1.447,7,2V62z M45,4.414L53.586,13H45V4.414z M9,3h34v11c0,0.553,0.448,1,1,1h11v46H9V3z"/>
<path d="M30,17h4c0.552,0,1-0.447,1-1s-0.448-1-1-1h-4c-0.552,0-1,0.447-1,1S29.448,17,30,17z"/>
<path d="M30,10h4c0.552,0,1-0.447,1-1s-0.448-1-1-1h-4c-0.552,0-1,0.447-1,1S29.448,10,30,10z"/>
<path d="M30,24h4c0.552,0,1-0.447,1-1s-0.448-1-1-1h-4c-0.552,0-1,0.447-1,1S29.448,24,30,24z"/>
<path d="M39,29H25c-0.552,0-1,0.447-1,1v12c0,0.553,0.448,1,1,1h14c0.552,0,1-0.447,1-1V30C40,29.447,39.552,29,39,29z M38,41H26V31
	h12V41z"/>
</svg>
