<?xml version="1.0" encoding="utf-8"?>
<!-- Generator: Adobe Illustrator 20.1.0, SVG Export Plug-In . SVG Version: 6.00 Build 0)  -->
<!DOCTYPE svg PUBLIC "-//W3C//DTD SVG 1.1//EN" "http://www.w3.org/Graphics/SVG/1.1/DTD/svg11.dtd">
<svg version="1.1" id="Layer_1" xmlns="http://www.w3.org/2000/svg" xmlns:xlink="http://www.w3.org/1999/xlink" x="0px" y="0px"
	 width="64px" height="64px" viewBox="0 0 64 64" enable-background="new 0 0 64 64" xml:space="preserve">
<path d="M8,63h48c0.553,0,1-0.447,1-1V14c0-0.134-0.027-0.264-0.078-0.385c-0.051-0.122-0.125-0.232-0.217-0.323L44.708,1.294
	c-0.092-0.092-0.202-0.166-0.323-0.217C44.264,1.027,44.134,1,44,1H8C7.447,1,7,1.447,7,2v60C7,62.553,7.447,63,8,63z M45,4.414
	L53.586,13H45V4.414z M9,3h34v11c0,0.553,0.447,1,1,1h11v46H9V3z"/>
<path d="M36.731,21.037c-1.825,0.181-3.491,1.024-4.731,2.364c-1.239-1.34-2.905-2.184-4.73-2.365
	c-2.254-0.227-4.472,0.597-6.071,2.253c-2.923,3.024-2.923,7.945,0,10.971l10.083,10.436C31.47,44.89,31.729,45,32,45
	s0.53-0.11,0.719-0.305l10.086-10.437c2.92-3.025,2.919-7.946-0.003-10.969C41.202,21.634,38.98,20.809,36.731,21.037z
	 M41.366,32.869L32,42.561l-9.364-9.69c-2.182-2.259-2.182-5.934,0-8.191C23.683,23.597,25.082,23,26.541,23
	c0.177,0,0.354,0.009,0.531,0.026c1.666,0.166,3.155,1.093,4.086,2.544c0.367,0.572,1.316,0.572,1.684,0
	c0.931-1.451,2.42-2.378,4.087-2.543c1.644-0.162,3.263,0.438,4.436,1.651c0,0.001,0,0.001,0,0.001
	C43.545,26.937,43.546,30.611,41.366,32.869z"/>
</svg>
