<?xml version="1.0" encoding="utf-8"?>
<!-- Generator: Adobe Illustrator 20.1.0, SVG Export Plug-In . SVG Version: 6.00 Build 0)  -->
<!DOCTYPE svg PUBLIC "-//W3C//DTD SVG 1.1//EN" "http://www.w3.org/Graphics/SVG/1.1/DTD/svg11.dtd">
<svg version="1.1" id="Layer_1" xmlns="http://www.w3.org/2000/svg" xmlns:xlink="http://www.w3.org/1999/xlink" x="0px" y="0px"
	 width="64px" height="64px" viewBox="0 0 64 64" enable-background="new 0 0 64 64" xml:space="preserve">
<path d="M62,1H14c-0.553,0-1,0.448-1,1v33H2c-0.553,0-1,0.448-1,1v20c0,3.86,3.141,7,7,7h48c3.859,0,7-3.14,7-7V2
	C63,1.448,62.553,1,62,1z M8,61c-2.757,0-5-2.243-5-5V37h10v19C13,58.757,10.757,61,8,61z M61,56c0,2.757-2.243,5-5,5H12.895
	C14.193,59.729,15,57.957,15,56V3h46V56z"/>
<path d="M44,13h8c0.553,0,1-0.448,1-1s-0.447-1-1-1h-8c-0.553,0-1,0.448-1,1S43.447,13,44,13z"/>
<path d="M44,23h8c0.553,0,1-0.448,1-1s-0.447-1-1-1h-8c-0.553,0-1,0.448-1,1S43.447,23,44,23z"/>
<path d="M24,33h28c0.553,0,1-0.448,1-1s-0.447-1-1-1H24c-0.553,0-1,0.448-1,1S23.447,33,24,33z"/>
<path d="M24,23h12c0.553,0,1-0.448,1-1V12c0-0.552-0.447-1-1-1H24c-0.553,0-1,0.448-1,1v10C23,22.552,23.447,23,24,23z M25,13h10v8
	H25V13z"/>
<path d="M24,53h8c0.553,0,1-0.448,1-1s-0.447-1-1-1h-8c-0.553,0-1,0.448-1,1S23.447,53,24,53z"/>
<path d="M24,43h8c0.553,0,1-0.448,1-1s-0.447-1-1-1h-8c-0.553,0-1,0.448-1,1S23.447,43,24,43z"/>
<path d="M52,41H40c-0.553,0-1,0.448-1,1v10c0,0.552,0.447,1,1,1h12c0.553,0,1-0.448,1-1V42C53,41.448,52.553,41,52,41z M51,51H41v-8
	h10V51z"/>
</svg>
