<?xml version="1.0" encoding="utf-8"?>
<!-- Generator: Adobe Illustrator 20.1.0, SVG Export Plug-In . SVG Version: 6.00 Build 0)  -->
<!DOCTYPE svg PUBLIC "-//W3C//DTD SVG 1.1//EN" "http://www.w3.org/Graphics/SVG/1.1/DTD/svg11.dtd">
<svg version="1.1" id="Layer_1" xmlns="http://www.w3.org/2000/svg" xmlns:xlink="http://www.w3.org/1999/xlink" x="0px" y="0px"
	 width="64px" height="64px" viewBox="0 0 64 64" enable-background="new 0 0 64 64" xml:space="preserve">
<path d="M7,62c0,0.553,0.448,1,1,1h48c0.552,0,1-0.447,1-1V14c0-0.134-0.027-0.264-0.078-0.385
	c-0.051-0.122-0.124-0.231-0.216-0.323L44.708,1.294c-0.092-0.092-0.201-0.165-0.323-0.216C44.264,1.027,44.133,1,44,1H8
	C7.448,1,7,1.447,7,2V62z M45,4.414L53.586,13H45V4.414z M9,3h34v11c0,0.553,0.448,1,1,1h11v46H9V3z"/>
<path d="M32,17c-8.271,0-15,6.729-15,15s6.729,15,15,15s15-6.729,15-15S40.271,17,32,17z M44.949,31H33V19.051
	C39.37,19.539,44.461,24.63,44.949,31z M32,45c-7.168,0-13-5.832-13-13c0-6.83,5.299-12.435,12-12.949V32c0,0.553,0.448,1,1,1
	h12.949C44.435,39.701,38.831,45,32,45z"/>
</svg>
