<?xml version="1.0" encoding="utf-8"?>
<!-- Generator: Adobe Illustrator 20.1.0, SVG Export Plug-In . SVG Version: 6.00 Build 0)  -->
<!DOCTYPE svg PUBLIC "-//W3C//DTD SVG 1.1//EN" "http://www.w3.org/Graphics/SVG/1.1/DTD/svg11.dtd">
<svg version="1.1" id="Layer_1" xmlns="http://www.w3.org/2000/svg" xmlns:xlink="http://www.w3.org/1999/xlink" x="0px" y="0px"
	 width="64px" height="64px" viewBox="0 0 64 64" enable-background="new 0 0 64 64" xml:space="preserve">
<path d="M62,12H30.5l-5.7-7.6C24.611,4.148,24.314,4,24,4H2C1.447,4,1,4.447,1,5v50c0,2.757,2.243,5,5,5h52c2.757,0,5-2.243,5-5V13
	C63,12.447,62.553,12,62,12z M61,55c0,1.654-1.346,3-3,3H6c-1.654,0-3-1.346-3-3V6h20.5l5.7,7.6c0.188,0.252,0.485,0.4,0.8,0.4h31
	V55z"/>
<path d="M21.045,35C17.729,35.011,15,37.677,15,41c0,3.309,2.691,6,6,6h22c3.309,0,6-2.691,6-6s-2.691-6-6-6
	c-0.015,0-0.03,0-0.045,0C42.448,29.401,37.729,25,32,25S21.552,29.401,21.045,35z M32,27c4.946,0,8.974,4.011,9,8.951
	c-0.005,0.043-0.01,0.095-0.011,0.124c-0.008,0.305,0.123,0.598,0.357,0.794s0.545,0.273,0.845,0.213C42.455,37.027,42.728,37,43,37
	c2.206,0,4,1.794,4,4s-1.794,4-4,4H21c-2.206,0-4-1.794-4-4s1.794-4,4-4c0.272,0,0.545,0.027,0.809,0.082
	c0.301,0.061,0.61-0.017,0.845-0.213s0.365-0.489,0.357-0.794c-0.002-0.043-0.005-0.085-0.011-0.128C23.028,31.009,27.055,27,32,27z
	"/>
</svg>
