<?xml version="1.0" encoding="utf-8"?>
<!-- Generator: Adobe Illustrator 20.1.0, SVG Export Plug-In . SVG Version: 6.00 Build 0)  -->
<!DOCTYPE svg PUBLIC "-//W3C//DTD SVG 1.1//EN" "http://www.w3.org/Graphics/SVG/1.1/DTD/svg11.dtd">
<svg version="1.1" id="Layer_1" xmlns="http://www.w3.org/2000/svg" xmlns:xlink="http://www.w3.org/1999/xlink" x="0px" y="0px"
	 width="64px" height="64px" viewBox="0 0 64 64" enable-background="new 0 0 64 64" xml:space="preserve">
<path d="M7,62c0,0.553,0.448,1,1,1h48c0.552,0,1-0.447,1-1V14c0-0.134-0.027-0.264-0.078-0.385
	c-0.051-0.122-0.124-0.231-0.216-0.323L44.708,1.294c-0.092-0.092-0.201-0.165-0.323-0.216C44.264,1.027,44.133,1,44,1H8
	C7.448,1,7,1.447,7,2V62z M45,4.414L53.586,13H45V4.414z M9,3h34v11c0,0.553,0.448,1,1,1h11v46H9V3z"/>
<path d="M32.79,15.386c-0.011-0.014-0.03-0.019-0.041-0.032C32.565,15.141,32.303,15,32,15s-0.565,0.141-0.748,0.354
	c-0.012,0.013-0.03,0.018-0.041,0.032l-14,18c-0.249,0.32-0.28,0.759-0.079,1.11L24.277,47H20c-0.552,0-1,0.447-1,1s0.448,1,1,1h6
	h12h6c0.552,0,1-0.447,1-1s-0.448-1-1-1h-4.277l7.145-12.504c0.201-0.352,0.17-0.79-0.079-1.11L32.79,15.386z M32,31
	c1.654,0,3,1.346,3,3s-1.346,3-3,3s-3-1.346-3-3S30.346,31,32,31z M37.42,47H26.58l-7.379-12.915L31,18.915v10.186
	c-2.279,0.465-4,2.484-4,4.899c0,2.757,2.243,5,5,5s5-2.243,5-5c0-2.414-1.721-4.434-4-4.899V18.915l11.799,15.17L37.42,47z"/>
</svg>
