<?xml version="1.0" encoding="utf-8"?>
<!-- Generator: Adobe Illustrator 20.1.0, SVG Export Plug-In . SVG Version: 6.00 Build 0)  -->
<!DOCTYPE svg PUBLIC "-//W3C//DTD SVG 1.1//EN" "http://www.w3.org/Graphics/SVG/1.1/DTD/svg11.dtd">
<svg version="1.1" id="Layer_1" xmlns="http://www.w3.org/2000/svg" xmlns:xlink="http://www.w3.org/1999/xlink" x="0px" y="0px"
	 width="64px" height="64px" viewBox="0 0 64 64" enable-background="new 0 0 64 64" xml:space="preserve">
<path d="M7,62c0,0.553,0.447,1,1,1h48c0.553,0,1-0.447,1-1V14c0-0.134-0.027-0.264-0.078-0.385
	c-0.051-0.122-0.125-0.232-0.217-0.323L44.708,1.294c-0.092-0.092-0.202-0.166-0.323-0.217C44.264,1.027,44.134,1,44,1H8
	C7.447,1,7,1.447,7,2V62z M45,4.414L53.586,13H45V4.414z M9,3h34v11c0,0.553,0.447,1,1,1h11v46H9V3z"/>
<path d="M29,19h-9c-0.553,0-1,0.447-1,1v9c0,0.553,0.447,1,1,1h9c0.553,0,1-0.447,1-1v-9C30,19.447,29.553,19,29,19z M28,28h-7v-7h7
	V28z"/>
<path d="M44,19h-9c-0.553,0-1,0.447-1,1v9c0,0.553,0.447,1,1,1h9c0.553,0,1-0.447,1-1v-9C45,19.447,44.553,19,44,19z M43,28h-7v-7h7
	V28z"/>
<path d="M29,34h-9c-0.553,0-1,0.447-1,1v9c0,0.553,0.447,1,1,1h9c0.553,0,1-0.447,1-1v-9C30,34.447,29.553,34,29,34z M28,43h-7v-7h7
	V43z"/>
<path d="M44,34h-9c-0.553,0-1,0.447-1,1v9c0,0.553,0.447,1,1,1h9c0.553,0,1-0.447,1-1v-9C45,34.447,44.553,34,44,34z M43,43h-7v-7h7
	V43z"/>
</svg>
