<?xml version="1.0" encoding="utf-8"?>
<!-- Generator: Adobe Illustrator 20.1.0, SVG Export Plug-In . SVG Version: 6.00 Build 0)  -->
<!DOCTYPE svg PUBLIC "-//W3C//DTD SVG 1.1//EN" "http://www.w3.org/Graphics/SVG/1.1/DTD/svg11.dtd">
<svg version="1.1" id="Layer_1" xmlns="http://www.w3.org/2000/svg" xmlns:xlink="http://www.w3.org/1999/xlink" x="0px" y="0px"
	 width="64px" height="64px" viewBox="0 0 64 64" enable-background="new 0 0 64 64" xml:space="preserve">
<path d="M7,62c0,0.552,0.447,1,1,1h48c0.553,0,1-0.448,1-1V14c0-0.133-0.027-0.264-0.078-0.385
	c-0.051-0.122-0.124-0.231-0.216-0.323L44.708,1.294c-0.092-0.092-0.201-0.165-0.323-0.216C44.264,1.027,44.134,1,44,1H8
	C7.447,1,7,1.448,7,2V62z M45,4.414L53.586,13H45V4.414z M9,3h34v11c0,0.552,0.447,1,1,1h11v46H9V3z"/>
<path d="M18,27h10c0.553,0,1-0.448,1-1s-0.447-1-1-1H18c-0.553,0-1,0.448-1,1S17.447,27,18,27z"/>
<path d="M46,25h-4v-5c0-0.552-0.447-1-1-1h-7c-0.553,0-1,0.448-1,1v12c0,0.552,0.447,1,1,1h7c0.553,0,1-0.448,1-1v-5h4
	c0.553,0,1-0.448,1-1S46.553,25,46,25z M40,31h-5V21h5V31z"/>
<path d="M46,43H36c-0.553,0-1,0.448-1,1s0.447,1,1,1h10c0.553,0,1-0.448,1-1S46.553,43,46,43z"/>
<path d="M30,37h-7c-0.553,0-1,0.448-1,1v5h-4c-0.553,0-1,0.448-1,1s0.447,1,1,1h4v5c0,0.552,0.447,1,1,1h7c0.553,0,1-0.448,1-1V38
	C31,37.448,30.553,37,30,37z M29,49h-5V39h5V49z"/>
</svg>
