<?xml version="1.0" encoding="utf-8"?>
<!-- Generator: Adobe Illustrator 20.1.0, SVG Export Plug-In . SVG Version: 6.00 Build 0)  -->
<!DOCTYPE svg PUBLIC "-//W3C//DTD SVG 1.1//EN" "http://www.w3.org/Graphics/SVG/1.1/DTD/svg11.dtd">
<svg version="1.1" id="Layer_1" xmlns="http://www.w3.org/2000/svg" xmlns:xlink="http://www.w3.org/1999/xlink" x="0px" y="0px"
	 width="64px" height="64px" viewBox="0 0 64 64" enable-background="new 0 0 64 64" xml:space="preserve">
<path d="M7,62c0,0.553,0.447,1,1,1h48c0.553,0,1-0.447,1-1V14c0-0.134-0.027-0.264-0.078-0.385
	c-0.051-0.122-0.125-0.232-0.217-0.323L44.708,1.294c-0.092-0.092-0.202-0.166-0.323-0.217C44.264,1.027,44.134,1,44,1H8
	C7.447,1,7,1.447,7,2V62z M45,4.414L53.586,13H45V4.414z M9,3h34v11c0,0.553,0.447,1,1,1h11v46H9V3z"/>
<path d="M43,31c-0.015,0-0.03,0-0.045,0C42.448,25.401,37.729,21,32,21s-10.448,4.401-10.955,10c-0.015,0-0.03,0-0.045,0
	c-3.309,0-6,2.691-6,6s2.691,6,6,6h22c3.309,0,6-2.691,6-6S46.309,31,43,31z M43,41H21c-2.206,0-4-1.794-4-4s1.794-4,4-4
	c0.272,0,0.545,0.027,0.809,0.082c0.3,0.061,0.61-0.017,0.845-0.213s0.365-0.489,0.357-0.794c-0.002-0.043-0.005-0.085-0.011-0.128
	C23.028,27.009,27.055,23,32,23c4.946,0,8.974,4.011,9,8.951c-0.005,0.043-0.01,0.095-0.011,0.124
	c-0.008,0.305,0.123,0.598,0.357,0.794s0.544,0.273,0.845,0.213C42.455,33.027,42.728,33,43,33c2.206,0,4,1.794,4,4S45.206,41,43,41
	z"/>
</svg>
