<?xml version="1.0" encoding="utf-8"?>
<!-- Generator: Adobe Illustrator 20.1.0, SVG Export Plug-In . SVG Version: 6.00 Build 0)  -->
<!DOCTYPE svg PUBLIC "-//W3C//DTD SVG 1.1//EN" "http://www.w3.org/Graphics/SVG/1.1/DTD/svg11.dtd">
<svg version="1.1" id="Layer_1" xmlns="http://www.w3.org/2000/svg" xmlns:xlink="http://www.w3.org/1999/xlink" x="0px" y="0px"
	 width="64px" height="64px" viewBox="0 0 64 64" enable-background="new 0 0 64 64" xml:space="preserve">
<path d="M8,63h48c0.552,0,1-0.448,1-1V14c0-0.134-0.027-0.264-0.078-0.385c-0.051-0.121-0.124-0.231-0.216-0.322L44.707,1.293
	c-0.091-0.092-0.201-0.165-0.322-0.216C44.264,1.027,44.134,1,44,1H8C7.448,1,7,1.448,7,2v60C7,62.552,7.448,63,8,63z M45,4.414
	L53.586,13H45V4.414z M9,3h34v11c0,0.552,0.448,1,1,1h11v46H9V3z"/>
<path d="M37,27c0,0.552,0.448,1,1,1s1-0.448,1-1c0-3.309-2.691-6-6-6v-3c0-0.552-0.448-1-1-1s-1,0.448-1,1v3c-3.309,0-6,2.691-6,6
	c0,3.928,3.154,5.039,6,5.777V41c-2.206,0-4-1.794-4-4c0-0.552-0.448-1-1-1s-1,0.448-1,1c0,3.309,2.691,6,6,6v3c0,0.552,0.448,1,1,1
	s1-0.448,1-1v-3c3.309,0,6-2.691,6-6c0-3.928-3.154-5.039-6-5.777V23C35.206,23,37,24.794,37,27z M37,37c0,2.206-1.794,4-4,4v-7.704
	C35.505,33.989,37,34.762,37,37z M31,30.704c-2.505-0.694-4-1.466-4-3.704c0-2.206,1.794-4,4-4V30.704z"/>
</svg>
