<?xml version="1.0" encoding="utf-8"?>
<!-- Generator: Adobe Illustrator 20.1.0, SVG Export Plug-In . SVG Version: 6.00 Build 0)  -->
<!DOCTYPE svg PUBLIC "-//W3C//DTD SVG 1.1//EN" "http://www.w3.org/Graphics/SVG/1.1/DTD/svg11.dtd">
<svg version="1.1" id="Layer_1" xmlns="http://www.w3.org/2000/svg" xmlns:xlink="http://www.w3.org/1999/xlink" x="0px" y="0px"
	 width="64px" height="64px" viewBox="0 0 64 64" enable-background="new 0 0 64 64" xml:space="preserve">
<path d="M56.706,13.292L44.708,1.294c-0.092-0.092-0.202-0.166-0.323-0.217C44.264,1.027,44.134,1,44,1H8C7.447,1,7,1.447,7,2v60
	c0,0.553,0.447,1,1,1h48c0.553,0,1-0.447,1-1V14c0-0.134-0.027-0.264-0.078-0.385C56.872,13.493,56.798,13.383,56.706,13.292z
	 M45,4.414L53.586,13H45V4.414z M9,61V3h34v11c0,0.553,0.447,1,1,1h11v46H9z"/>
<path d="M31.146,39.78C29.548,38.512,26.837,37,23,37s-6.548,1.512-8.146,2.78C13.676,40.715,13,42.134,13,43.672V46
	c0,0.553,0.447,1,1,1h18c0.553,0,1-0.447,1-1v-2.328C33,42.134,32.324,40.715,31.146,39.78z M31,45H15v-1.328
	c0-0.924,0.4-1.771,1.097-2.325C17.446,40.276,19.739,39,23,39s5.554,1.276,6.902,2.347C30.6,41.9,31,42.748,31,43.672V45z"/>
<path d="M23,34c3.309,0,6-2.691,6-6s-2.691-6-6-6s-6,2.691-6,6S19.691,34,23,34z M23,24c2.206,0,4,1.794,4,4s-1.794,4-4,4
	s-4-1.794-4-4S20.794,24,23,24z"/>
<path d="M49.146,39.78C47.548,38.512,44.837,37,41,37c-1.499,0-2.953,0.235-4.321,0.698c-0.522,0.178-0.803,0.745-0.626,1.269
	c0.179,0.522,0.746,0.805,1.269,0.626C38.481,39.199,39.72,39,41,39c3.261,0,5.554,1.276,6.902,2.347C48.6,41.9,49,42.748,49,43.672
	V45H38c-0.553,0-1,0.447-1,1s0.447,1,1,1h12c0.553,0,1-0.447,1-1v-2.328C51,42.134,50.324,40.715,49.146,39.78z"/>
<path d="M41,34c3.309,0,6-2.691,6-6s-2.691-6-6-6s-6,2.691-6,6S37.691,34,41,34z M41,24c2.206,0,4,1.794,4,4s-1.794,4-4,4
	s-4-1.794-4-4S38.794,24,41,24z"/>
</svg>
