<?xml version="1.0" encoding="utf-8"?>
<!-- Generator: Adobe Illustrator 20.1.0, SVG Export Plug-In . SVG Version: 6.00 Build 0)  -->
<!DOCTYPE svg PUBLIC "-//W3C//DTD SVG 1.1//EN" "http://www.w3.org/Graphics/SVG/1.1/DTD/svg11.dtd">
<svg version="1.1" id="Layer_1" xmlns="http://www.w3.org/2000/svg" xmlns:xlink="http://www.w3.org/1999/xlink" x="0px" y="0px"
	 width="64px" height="64px" viewBox="0 0 64 64" enable-background="new 0 0 64 64" xml:space="preserve">
<path d="M62,12c-0.552,0-1,0.447-1,1v42c0,1.654-1.346,3-3,3H6c-1.654,0-3-1.346-3-3V6h20.5l5.7,7.6c0.188,0.252,0.485,0.4,0.8,0.4
	h10.586l-6.293,6.293c-0.147,0.147-0.245,0.337-0.279,0.543l-1,6c-0.053,0.318,0.051,0.643,0.279,0.871
	C33.482,27.896,33.737,28,34,28c0.055,0,0.109-0.005,0.165-0.014l6-1c0.206-0.034,0.395-0.132,0.542-0.279l18-18
	c0.391-0.391,0.391-1.023,0-1.414l-5-5c-0.391-0.391-1.023-0.391-1.414,0L42.586,12H30.5l-5.7-7.6C24.611,4.148,24.315,4,24,4H2
	C1.448,4,1,4.447,1,5v50c0,2.757,2.243,5,5,5h52c2.757,0,5-2.243,5-5V13C63,12.447,62.552,12,62,12z M53,4.414L56.586,8
	L39.52,25.066l-4.303,0.717l0.717-4.303l7.773-7.773c0.001-0.001,0.001-0.001,0.002-0.002L53,4.414z"/>
</svg>
