<?xml version="1.0" encoding="utf-8"?>
<!-- Generator: Adobe Illustrator 20.1.0, SVG Export Plug-In . SVG Version: 6.00 Build 0)  -->
<!DOCTYPE svg PUBLIC "-//W3C//DTD SVG 1.1//EN" "http://www.w3.org/Graphics/SVG/1.1/DTD/svg11.dtd">
<svg version="1.1" id="Layer_1" xmlns="http://www.w3.org/2000/svg" xmlns:xlink="http://www.w3.org/1999/xlink" x="0px" y="0px"
	 width="64px" height="64px" viewBox="0 0 64 64" enable-background="new 0 0 64 64" xml:space="preserve">
<path d="M62,12H30.5l-5.7-7.6C24.611,4.148,24.315,4,24,4H2C1.448,4,1,4.447,1,5v50c0,2.757,2.243,5,5,5h52c2.757,0,5-2.243,5-5V13
	C63,12.447,62.552,12,62,12z M61,55c0,1.654-1.346,3-3,3H6c-1.654,0-3-1.346-3-3V6h20.5l5.7,7.6c0.188,0.252,0.485,0.4,0.8,0.4h31
	V55z"/>
<path d="M21.581,36.187c-0.223-0.159-0.5-0.223-0.772-0.168c-0.269,0.052-0.505,0.213-0.653,0.444l-7,11
	c-0.196,0.309-0.208,0.698-0.033,1.019C13.299,48.801,13.635,49,14,49h36c0.369,0,0.708-0.203,0.882-0.528
	c0.174-0.325,0.155-0.72-0.05-1.026l-12-18c-0.175-0.263-0.464-0.427-0.779-0.444c-0.319-0.02-0.62,0.116-0.821,0.358l-9.406,11.287
	L21.581,36.187z M28.768,42.641l9.143-10.972L48.131,47h-32.31l5.456-8.573l6.142,4.387C27.844,43.119,28.433,43.041,28.768,42.641z
	"/>
<path d="M26,21c-2.757,0-5,2.243-5,5s2.243,5,5,5s5-2.243,5-5S28.757,21,26,21z M26,29c-1.654,0-3-1.346-3-3s1.346-3,3-3
	s3,1.346,3,3S27.654,29,26,29z"/>
</svg>
