<?xml version="1.0" encoding="utf-8"?>
<!-- Generator: Adobe Illustrator 20.1.0, SVG Export Plug-In . SVG Version: 6.00 Build 0)  -->
<!DOCTYPE svg PUBLIC "-//W3C//DTD SVG 1.1//EN" "http://www.w3.org/Graphics/SVG/1.1/DTD/svg11.dtd">
<svg version="1.1" id="Layer_1" xmlns="http://www.w3.org/2000/svg" xmlns:xlink="http://www.w3.org/1999/xlink" x="0px" y="0px"
	 width="64px" height="64px" viewBox="0 0 64 64" enable-background="new 0 0 64 64" xml:space="preserve">
<path d="M62,12H30.5l-5.7-7.6C24.611,4.148,24.315,4,24,4H2C1.448,4,1,4.447,1,5v50c0,2.757,2.243,5,5,5h52c2.757,0,5-2.243,5-5V13
	C63,12.447,62.552,12,62,12z M61,55c0,1.654-1.346,3-3,3H6c-1.654,0-3-1.346-3-3V6h20.5l5.7,7.6c0.188,0.252,0.485,0.4,0.8,0.4h31
	V55z"/>
<path d="M20.449,42.594C18.938,43.488,18,45.138,18,46.898V51c0,0.553,0.448,1,1,1h26c0.552,0,1-0.447,1-1v-4.102
	c0-1.761-0.938-3.41-2.449-4.305C41.553,41.41,37.927,40,32,40S22.447,41.41,20.449,42.594z M44,46.898V50H20v-3.102
	c0-1.058,0.563-2.047,1.469-2.584C23.251,43.259,26.526,42,32,42s8.749,1.259,10.531,2.314C43.437,44.852,44,45.841,44,46.898z"/>
<path d="M24,28c0,4.248,3.421,9,8,9s8-4.752,8-9c0-4.411-3.589-8-8-8S24,23.589,24,28z M32,22c3.309,0,6,2.691,6,6
	c0,3.237-2.621,7-6,7s-6-3.763-6-7C26,24.691,28.691,22,32,22z"/>
</svg>
