<?xml version="1.0" encoding="utf-8"?>
<!-- Generator: Adobe Illustrator 20.1.0, SVG Export Plug-In . SVG Version: 6.00 Build 0)  -->
<!DOCTYPE svg PUBLIC "-//W3C//DTD SVG 1.1//EN" "http://www.w3.org/Graphics/SVG/1.1/DTD/svg11.dtd">
<svg version="1.1" id="Layer_1" xmlns="http://www.w3.org/2000/svg" xmlns:xlink="http://www.w3.org/1999/xlink" x="0px" y="0px"
	 width="64px" height="64px" viewBox="0 0 64 64" enable-background="new 0 0 64 64" xml:space="preserve">
<path d="M53,50V10c0-0.552-0.448-1-1-1H12c-0.552,0-1,0.448-1,1v40c0,0.552,0.448,1,1,1h40C52.552,51,53,50.552,53,50z M51,11v18H13
	V11H51z M13,49V31h38v18H13z"/>
<path d="M28,19h8c0.552,0,1-0.448,1-1s-0.448-1-1-1h-8c-0.552,0-1,0.448-1,1S27.448,19,28,19z"/>
<path d="M36,37h-8c-0.552,0-1,0.448-1,1s0.448,1,1,1h8c0.552,0,1-0.448,1-1S36.552,37,36,37z"/>
<path d="M4,59h11v3c0,0.552,0.448,1,1,1s1-0.448,1-1v-3h30v3c0,0.552,0.448,1,1,1s1-0.448,1-1v-3h11c0.552,0,1-0.448,1-1V2
	c0-0.552-0.448-1-1-1H4C3.448,1,3,1.448,3,2v56C3,58.552,3.448,59,4,59z M5,3h54v54H5V3z"/>
</svg>
