<?xml version="1.0" encoding="utf-8"?>
<!-- Generator: Adobe Illustrator 20.1.0, SVG Export Plug-In . SVG Version: 6.00 Build 0)  -->
<!DOCTYPE svg PUBLIC "-//W3C//DTD SVG 1.1//EN" "http://www.w3.org/Graphics/SVG/1.1/DTD/svg11.dtd">
<svg version="1.1" id="Layer_1" xmlns="http://www.w3.org/2000/svg" xmlns:xlink="http://www.w3.org/1999/xlink" x="0px" y="0px"
	 width="64px" height="64px" viewBox="0 0 64 64" enable-background="new 0 0 64 64" xml:space="preserve">
<path d="M56.706,13.292L44.708,1.294c-0.092-0.092-0.202-0.166-0.323-0.217C44.264,1.027,44.134,1,44,1H8C7.447,1,7,1.447,7,2v60
	c0,0.553,0.447,1,1,1h48c0.553,0,1-0.447,1-1V14c0-0.134-0.027-0.264-0.078-0.385C56.872,13.493,56.798,13.383,56.706,13.292z
	 M45,4.414L53.586,13H45V4.414z M9,61V3h34v11c0,0.553,0.447,1,1,1h11v46H9z"/>
<path d="M45.144,28.092l-8.462-1.229l-3.785-7.668c-0.336-0.684-1.457-0.684-1.793,0l-3.785,7.668l-8.462,1.229
	c-0.377,0.055-0.689,0.318-0.808,0.681c-0.117,0.361-0.02,0.759,0.253,1.024l6.124,5.97l-1.445,8.428
	c-0.064,0.375,0.09,0.754,0.397,0.978c0.31,0.225,0.719,0.254,1.053,0.076L32,41.27l7.569,3.979
	c0.146,0.077,0.306,0.115,0.465,0.115c0.207,0,0.413-0.064,0.588-0.191c0.308-0.224,0.462-0.603,0.397-0.978l-1.445-8.428
	l6.124-5.97c0.272-0.266,0.37-0.663,0.253-1.024C45.833,28.41,45.521,28.146,45.144,28.092z M37.802,34.701
	c-0.235,0.229-0.343,0.561-0.287,0.885l1.191,6.949l-6.241-3.28C32.319,39.178,32.16,39.14,32,39.14s-0.319,0.038-0.465,0.115
	l-6.241,3.28l1.191-6.949c0.056-0.324-0.052-0.655-0.287-0.885l-5.049-4.922l6.977-1.014c0.326-0.047,0.607-0.252,0.753-0.547
	L32,21.896l3.121,6.322c0.146,0.295,0.427,0.5,0.753,0.547l6.977,1.014L37.802,34.701z"/>
</svg>
