<?xml version="1.0" encoding="utf-8"?>
<!-- Generator: Adobe Illustrator 20.1.0, SVG Export Plug-In . SVG Version: 6.00 Build 0)  -->
<!DOCTYPE svg PUBLIC "-//W3C//DTD SVG 1.1//EN" "http://www.w3.org/Graphics/SVG/1.1/DTD/svg11.dtd">
<svg version="1.1" id="Layer_1" xmlns="http://www.w3.org/2000/svg" xmlns:xlink="http://www.w3.org/1999/xlink" x="0px" y="0px"
	 width="64px" height="64px" viewBox="0 0 64 64" enable-background="new 0 0 64 64" xml:space="preserve">
<path d="M7,62c0,0.553,0.448,1,1,1h48c0.552,0,1-0.447,1-1V2c0-0.553-0.448-1-1-1H39c-0.552,0-1,0.447-1,1s0.448,1,1,1h16v58H9V3h22
	v11c0,0.553,0.448,1,1,1s1-0.447,1-1V2c0-0.553-0.448-1-1-1H8C7.448,1,7,1.447,7,2V62z"/>
<path d="M40,33V21c0-0.553-0.448-1-1-1H25c-0.552,0-1,0.447-1,1v12c0,0.553,0.448,1,1,1h14C39.552,34,40,33.553,40,33z M38,32H26V22
	h12V32z"/>
<path d="M34,46h-4c-0.552,0-1,0.447-1,1s0.448,1,1,1h4c0.552,0,1-0.447,1-1S34.552,46,34,46z"/>
<path d="M34,39h-4c-0.552,0-1,0.447-1,1s0.448,1,1,1h4c0.552,0,1-0.447,1-1S34.552,39,34,39z"/>
</svg>
