<?xml version="1.0" encoding="utf-8"?>
<!-- Generator: Adobe Illustrator 20.1.0, SVG Export Plug-In . SVG Version: 6.00 Build 0)  -->
<!DOCTYPE svg PUBLIC "-//W3C//DTD SVG 1.1//EN" "http://www.w3.org/Graphics/SVG/1.1/DTD/svg11.dtd">
<svg version="1.1" id="Layer_1" xmlns="http://www.w3.org/2000/svg" xmlns:xlink="http://www.w3.org/1999/xlink" x="0px" y="0px"
	 width="64px" height="64px" viewBox="0 0 64 64" enable-background="new 0 0 64 64" xml:space="preserve">
<path d="M62,5H2C1.448,5,1,5.448,1,6v12c0,0.552,0.448,1,1,1h60c0.552,0,1-0.448,1-1V6C63,5.448,62.552,5,62,5z M61,17H3V7h58V17z"
	/>
<path d="M8,23c-0.552,0-1,0.448-1,1v34c0,0.552,0.448,1,1,1h48c0.552,0,1-0.448,1-1V24c0-0.552-0.448-1-1-1s-1,0.448-1,1v33H9V24
	C9,23.448,8.552,23,8,23z"/>
<path d="M40,39c0.552,0,1-0.448,1-1V28c0-0.552-0.448-1-1-1H24c-0.552,0-1,0.448-1,1v10c0,0.552,0.448,1,1,1H40z M25,29h14v8H25V29z
	"/>
</svg>
