<?xml version="1.0" encoding="utf-8"?>
<!-- Generator: Adobe Illustrator 20.1.0, SVG Export Plug-In . SVG Version: 6.00 Build 0)  -->
<!DOCTYPE svg PUBLIC "-//W3C//DTD SVG 1.1//EN" "http://www.w3.org/Graphics/SVG/1.1/DTD/svg11.dtd">
<svg version="1.1" id="Layer_1" xmlns="http://www.w3.org/2000/svg" xmlns:xlink="http://www.w3.org/1999/xlink" x="0px" y="0px"
	 width="64px" height="64px" viewBox="0 0 64 64" enable-background="new 0 0 64 64" xml:space="preserve">
<path d="M7,62c0,0.553,0.448,1,1,1h48c0.552,0,1-0.447,1-1V14c0-0.134-0.027-0.264-0.078-0.385
	c-0.051-0.122-0.124-0.231-0.216-0.323L44.708,1.294c-0.092-0.092-0.201-0.165-0.323-0.216C44.264,1.027,44.133,1,44,1H8
	C7.448,1,7,1.447,7,2V62z M45,4.414L53.586,13H45V4.414z M9,3h34v11c0,0.553,0.448,1,1,1h11v46H9V3z"/>
<path d="M32,21.272l-2.121,2.121c-0.391,0.391-0.391,1.023,0,1.414s1.023,0.391,1.414,0l2.121-2.121c2.729-2.729,7.169-2.729,9.9,0
	c2.729,2.729,2.729,7.17,0,9.899l-2.829,2.828c-2.729,2.729-7.17,2.729-9.899,0c-0.391-0.391-1.023-0.391-1.414,0
	s-0.391,1.023,0,1.414c1.755,1.755,4.059,2.632,6.364,2.632c2.304,0,4.609-0.877,6.364-2.632L44.728,34
	c3.509-3.509,3.509-9.219,0-12.728C41.22,17.764,35.509,17.764,32,21.272z"/>
<path d="M32.707,43.192l-2.121,2.121c-2.729,2.729-7.169,2.729-9.9,0c-2.729-2.729-2.729-7.17,0-9.899l2.829-2.828
	c2.729-2.729,7.17-2.729,9.899,0c0.391,0.391,1.023,0.391,1.414,0s0.391-1.023,0-1.414c-3.509-3.509-9.218-3.511-12.728,0L19.272,34
	c-3.509,3.509-3.509,9.219,0,12.728c1.754,1.755,4.059,2.632,6.364,2.632c2.305,0,4.61-0.877,6.364-2.632l2.121-2.121
	c0.391-0.391,0.391-1.023,0-1.414S33.098,42.802,32.707,43.192z"/>
</svg>
