<?xml version="1.0" encoding="utf-8"?>
<!-- Generator: Adobe Illustrator 20.1.0, SVG Export Plug-In . SVG Version: 6.00 Build 0)  -->
<!DOCTYPE svg PUBLIC "-//W3C//DTD SVG 1.1//EN" "http://www.w3.org/Graphics/SVG/1.1/DTD/svg11.dtd">
<svg version="1.1" id="Layer_1" xmlns="http://www.w3.org/2000/svg" xmlns:xlink="http://www.w3.org/1999/xlink" x="0px" y="0px"
	 width="64px" height="64px" viewBox="0 0 64 64" enable-background="new 0 0 64 64" xml:space="preserve">
<path d="M62,18c-0.553,0-1,0.448-1,1v22H42c-0.553,0-1,0.448-1,1v6H23v-6c0-0.552-0.447-1-1-1H3V19c0-0.552-0.447-1-1-1
	s-1,0.448-1,1v43c0,0.552,0.447,1,1,1h60c0.553,0,1-0.448,1-1V19C63,18.448,62.553,18,62,18z M3,61V43h18v6c0,0.552,0.447,1,1,1h20
	c0.553,0,1-0.448,1-1v-6h18v18H3z"/>
<path d="M54,37c0.553,0,1-0.448,1-1V2c0-0.552-0.447-1-1-1H10C9.447,1,9,1.448,9,2v34c0,0.552,0.447,1,1,1s1-0.448,1-1V3h42v33
	C53,36.552,53.447,37,54,37z"/>
<path d="M41.293,15.293L28,28.586l-5.293-5.293c-0.391-0.391-1.023-0.391-1.414,0s-0.391,1.023,0,1.414l6,6
	C27.488,30.902,27.744,31,28,31s0.512-0.098,0.707-0.293l14-14c0.391-0.391,0.391-1.023,0-1.414S41.684,14.902,41.293,15.293z"/>
</svg>
