<?xml version="1.0" encoding="utf-8"?>
<!-- Generator: Adobe Illustrator 20.1.0, SVG Export Plug-In . SVG Version: 6.00 Build 0)  -->
<!DOCTYPE svg PUBLIC "-//W3C//DTD SVG 1.1//EN" "http://www.w3.org/Graphics/SVG/1.1/DTD/svg11.dtd">
<svg version="1.1" id="Layer_1" xmlns="http://www.w3.org/2000/svg" xmlns:xlink="http://www.w3.org/1999/xlink" x="0px" y="0px"
	 width="64px" height="64px" viewBox="0 0 64 64" enable-background="new 0 0 64 64" xml:space="preserve">
<path d="M62,12H30.5l-5.7-7.6C24.611,4.148,24.314,4,24,4H2C1.447,4,1,4.447,1,5v50c0,2.757,2.243,5,5,5h52c2.757,0,5-2.243,5-5V13
	C63,12.447,62.553,12,62,12z M61,55c0,1.654-1.346,3-3,3H6c-1.654,0-3-1.346-3-3V6h20.5l5.7,7.6c0.188,0.252,0.485,0.4,0.8,0.4h31
	V55z"/>
<path d="M16,31c-0.553,0-1,0.447-1,1v8c0,0.553,0.447,1,1,1h5.723l9.763,5.857C31.644,46.952,31.822,47,32,47
	c0.17,0,0.34-0.043,0.493-0.13C32.807,46.692,33,46.36,33,46V26c0-0.36-0.193-0.692-0.507-0.87s-0.698-0.172-1.008,0.013L21.723,31
	H16z M22.515,32.857L31,27.767v16.467l-8.485-5.091C22.359,39.049,22.182,39,22,39h-5v-6h5C22.182,33,22.359,32.951,22.515,32.857z"
	/>
<path d="M37.5,38.6c-0.479,0.276-0.642,0.889-0.364,1.366c0.186,0.32,0.521,0.499,0.866,0.499c0.17,0,0.343-0.043,0.5-0.135
	C40.043,39.438,41,37.778,41,36s-0.957-3.438-2.497-4.329c-0.479-0.279-1.09-0.113-1.366,0.364c-0.277,0.478-0.113,1.09,0.364,1.366
	C38.426,33.937,39,34.933,39,36S38.425,38.063,37.5,38.6z"/>
<path d="M39.671,25.627C44.055,27.179,47,31.347,47,36c0,4.654-2.946,8.823-7.332,10.375c-0.521,0.184-0.794,0.755-0.609,1.275
	c0.145,0.411,0.53,0.667,0.942,0.667c0.11,0,0.224-0.019,0.333-0.058C45.518,46.427,49,41.5,49,36c0-5.499-3.48-10.425-8.661-12.258
	c-0.522-0.184-1.094,0.088-1.276,0.608C38.878,24.872,39.15,25.443,39.671,25.627z"/>
</svg>
