<?xml version="1.0" encoding="utf-8"?>
<!-- Generator: Adobe Illustrator 20.1.0, SVG Export Plug-In . SVG Version: 6.00 Build 0)  -->
<!DOCTYPE svg PUBLIC "-//W3C//DTD SVG 1.1//EN" "http://www.w3.org/Graphics/SVG/1.1/DTD/svg11.dtd">
<svg version="1.1" id="Layer_1" xmlns="http://www.w3.org/2000/svg" xmlns:xlink="http://www.w3.org/1999/xlink" x="0px" y="0px"
	 width="64px" height="64px" viewBox="0 0 64 64" enable-background="new 0 0 64 64" xml:space="preserve">
<path d="M8,63h48c0.552,0,1-0.448,1-1V2c0-0.552-0.448-1-1-1H8C7.448,1,7,1.448,7,2v60C7,62.552,7.448,63,8,63z M9,3h46v58H9V3z"/>
<path d="M44,15H20c-0.552,0-1,0.448-1,1s0.448,1,1,1h24c0.552,0,1-0.448,1-1S44.552,15,44,15z"/>
<path d="M44,25H20c-0.552,0-1,0.448-1,1s0.448,1,1,1h24c0.552,0,1-0.448,1-1S44.552,25,44,25z"/>
<path d="M44,35H20c-0.552,0-1,0.448-1,1s0.448,1,1,1h24c0.552,0,1-0.448,1-1S44.552,35,44,35z"/>
<path d="M28,45h-8c-0.552,0-1,0.448-1,1s0.448,1,1,1h8c0.552,0,1-0.448,1-1S28.552,45,28,45z"/>
</svg>
