<?xml version="1.0" encoding="utf-8"?>
<!-- Generator: Adobe Illustrator 20.1.0, SVG Export Plug-In . SVG Version: 6.00 Build 0)  -->
<!DOCTYPE svg PUBLIC "-//W3C//DTD SVG 1.1//EN" "http://www.w3.org/Graphics/SVG/1.1/DTD/svg11.dtd">
<svg version="1.1" id="Layer_1" xmlns="http://www.w3.org/2000/svg" xmlns:xlink="http://www.w3.org/1999/xlink" x="0px" y="0px"
	 width="64px" height="64px" viewBox="0 0 64 64" enable-background="new 0 0 64 64" xml:space="preserve">
<path d="M62,12H30.5l-5.7-7.6C24.611,4.148,24.315,4,24,4H2C1.448,4,1,4.447,1,5v50c0,2.757,2.243,5,5,5h52c2.757,0,5-2.243,5-5V13
	C63,12.447,62.552,12,62,12z M61,55c0,1.654-1.346,3-3,3H6c-1.654,0-3-1.346-3-3V6h20.5l5.7,7.6c0.188,0.252,0.485,0.4,0.8,0.4h31
	V55z"/>
<path d="M21.198,26.289c-2.923,3.024-2.923,7.945,0,10.971l10.083,10.436C31.469,47.89,31.729,48,32,48s0.531-0.11,0.719-0.305
	l10.085-10.437c2.921-3.025,2.919-7.946-0.002-10.97c-1.6-1.655-3.812-2.477-6.07-2.252c-1.825,0.181-3.491,1.024-4.731,2.364
	c-1.239-1.34-2.905-2.184-4.729-2.365C25.014,23.813,22.798,24.634,21.198,26.289z M31.158,28.57c0.184,0.286,0.501,0.46,0.842,0.46
	s0.658-0.174,0.842-0.46c0.931-1.451,2.42-2.378,4.087-2.543c1.65-0.16,3.263,0.438,4.435,1.651v0.001
	c2.182,2.257,2.183,5.932,0.002,8.189L32,45.561l-9.364-9.691c-2.182-2.258-2.182-5.933,0-8.19C23.682,26.597,25.082,26,26.541,26
	c0.177,0,0.354,0.009,0.532,0.026C28.739,26.192,30.228,27.119,31.158,28.57z"/>
</svg>
