<?xml version="1.0" encoding="utf-8"?>
<!-- Generator: Adobe Illustrator 20.1.0, SVG Export Plug-In . SVG Version: 6.00 Build 0)  -->
<!DOCTYPE svg PUBLIC "-//W3C//DTD SVG 1.1//EN" "http://www.w3.org/Graphics/SVG/1.1/DTD/svg11.dtd">
<svg version="1.1" id="Layer_1" xmlns="http://www.w3.org/2000/svg" xmlns:xlink="http://www.w3.org/1999/xlink" x="0px" y="0px"
	 width="64px" height="64px" viewBox="0 0 64 64" enable-background="new 0 0 64 64" xml:space="preserve">
<path d="M8,63h32c0.134,0,0.264-0.027,0.385-0.078c0.121-0.051,0.231-0.124,0.322-0.216l15.999-15.999
	c0.092-0.091,0.165-0.201,0.216-0.322C56.973,46.264,57,46.134,57,46V2c0-0.552-0.448-1-1-1H8C7.448,1,7,1.448,7,2v60
	C7,62.552,7.448,63,8,63z M41,59.586V47h12.586L41,59.586z M9,3h46v42H40c-0.552,0-1,0.448-1,1v15H9V3z"/>
<path d="M20,17h24c0.552,0,1-0.448,1-1s-0.448-1-1-1H20c-0.552,0-1,0.448-1,1S19.448,17,20,17z"/>
<path d="M20,27h24c0.552,0,1-0.448,1-1s-0.448-1-1-1H20c-0.552,0-1,0.448-1,1S19.448,27,20,27z"/>
<path d="M20,37h24c0.552,0,1-0.448,1-1s-0.448-1-1-1H20c-0.552,0-1,0.448-1,1S19.448,37,20,37z"/>
<path d="M28,45h-8c-0.552,0-1,0.448-1,1s0.448,1,1,1h8c0.552,0,1-0.448,1-1S28.552,45,28,45z"/>
</svg>
