<?xml version="1.0" encoding="utf-8"?>
<!-- Generator: Adobe Illustrator 19.1.0, SVG Export Plug-In . SVG Version: 6.00 Build 0)  -->
<!DOCTYPE svg PUBLIC "-//W3C//DTD SVG 1.1//EN" "http://www.w3.org/Graphics/SVG/1.1/DTD/svg11.dtd">
<svg version="1.1" id="Layer_1" xmlns="http://www.w3.org/2000/svg" xmlns:xlink="http://www.w3.org/1999/xlink" x="0px" y="0px"
	 width="64px" height="64px" viewBox="0 0 64 64" enable-background="new 0 0 64 64" xml:space="preserve">
<path data-color="color-2" fill="#444444" d="M32.7900391,31.105957c-1.5966797-0.4345703-3.2490234,0.5087891-3.6845703,2.1049805
	c-0.4355469,1.5957031,0.5087891,3.2480469,2.1044922,3.6831055c1.6581497,0.4522247,23.2939796,8.6648827,27.6240234,8.5581055
	C56.5478516,42.2006836,35.8369141,31.9365234,32.7900391,31.105957z"/>
<path fill="#444444" d="M43.1536255,43.206604C40.5324097,47.9667358,35.4657593,51,30,51
	c-5.7607422,0-11.0810547-3.3632812-13.5546875-8.5683594c-0.2373047-0.4990234-0.0244141-1.0952148,0.4736328-1.3325195
	c0.5-0.237793,1.0966797-0.0249023,1.3330078,0.4741211C20.3955078,46.0849609,25.0068359,49,30,49
	c4.6213989,0,8.9134521-2.5025024,11.2302246-6.4556274c-0.2313309-0.0802994-10.3093853-3.656311-10.5456543-3.7206421
	c-2.6601562-0.7255859-4.234375-3.4794922-3.5087891-6.1391602V32.684082
	c0.7255859-2.659668,3.4833984-4.2338867,6.1396484-3.5078125c1.1890869,0.3244019,12.8287964,5.5549927,20.6165161,10.2408447
	C54.6282349,36.9859009,55,34.4969482,55,32C55,17.1123047,42.8876953,5,28,5S1,17.1123047,1,32s12.1123047,27,27,27
	c9.5411987,0,18.3464355-5.0419312,23.1939697-13.1968994C48.9953003,45.1539917,46.336853,44.2940063,43.1536255,43.206604z M36,23
	h6c0.5527344,0,1,0.4477539,1,1s-0.4472656,1-1,1h-6c-0.5527344,0-1-0.4477539-1-1S35.4472656,23,36,23z M22,20
	c2.2091675,0,4,1.7908325,4,4c0,2.2091064-1.7908325,4-4,4s-4-1.7908936-4-4C18,21.7908325,19.7908325,20,22,20z"/>
</svg>
