<?xml version="1.0" encoding="utf-8"?>
<!-- Generator: Adobe Illustrator 19.1.0, SVG Export Plug-In . SVG Version: 6.00 Build 0)  -->
<!DOCTYPE svg PUBLIC "-//W3C//DTD SVG 1.1//EN" "http://www.w3.org/Graphics/SVG/1.1/DTD/svg11.dtd">
<svg version="1.1" id="Layer_1" xmlns="http://www.w3.org/2000/svg" xmlns:xlink="http://www.w3.org/1999/xlink" x="0px" y="0px"
	 width="64px" height="64px" viewBox="0 0 64 64" enable-background="new 0 0 64 64" xml:space="preserve">
<path data-color="color-2" fill="#444444" d="M9.1364746,50.8735962l-0.3933105,0.4916382
	c-2.4746094,3.0927734-2.0791016,7.7109375,0.8623047,10.0834961C10.8457031,62.4492188,12.4042969,63,13.9960938,63
	c2.140625,0,4.1337891-0.9575195,5.4707031-2.6274414l0.8968506-1.1210938L9.1364746,50.8735962z"/>
<path data-color="color-2" fill="#444444" d="M5.3551025,19.5880127l7.4111938-9.442627l-0.9674683-0.789917
	C10.4902344,8.2861328,8.7792969,7.8178711,7.109375,8.0668945C5.4150391,8.3208008,3.9541016,9.2514648,2.9960938,10.6875
	c-1.6865234,2.5292969-1.0634766,6.1005859,1.4189453,8.1313477L5.3551025,19.5880127z"/>
<path data-color="color-2" fill="#444444" d="M54.8531494,50.8605957l-11.2063599,8.4043579l0.8864136,1.1080933
	C45.8701172,62.0424805,47.8632812,63,50.0039062,63c1.5917969,0,3.1503906-0.5507812,4.390625-1.5512695
	c2.9414062-2.3725586,3.3369141-6.9907227,0.8623047-10.0834961L54.8531494,50.8605957z"/>
<path data-color="color-2" fill="#444444" d="M61.0039062,10.6875c-0.9580078-1.4360352-2.4189453-2.3666992-4.1132812-2.6206055
	c-1.6708984-0.2485352-3.3798828,0.2202148-4.6894531,1.2885742l-1.0494385,0.8569336l7.4597778,9.4029541l0.9734497-0.7965088
	C62.0673828,16.7880859,62.6904297,13.2167969,61.0039062,10.6875z"/>
<path fill="#444444" d="M53.6029663,49.2979736L45,38.5444336v-7.7919922l12.0632324-9.8703003l-7.4609375-9.40448
	l-4.6676025,3.8114624C44.9766846,14.8648682,45,14.4351196,45,14c0-7.168457-5.8320312-13-13-13S19,6.831543,19,14
	c0,0.4349976,0.0233765,0.864563,0.0653076,1.2886963l-4.7498169-3.8782959l-7.4124146,9.4441528L19,30.7524414v7.7919922
	L10.3867188,49.310791l11.2271729,8.3778687l4.9202881-6.1505737C27.8701172,49.8686523,29.8623047,48.9111328,32,48.9111328
	s4.1298828,0.9575195,5.4658203,2.6269531l4.9309082,6.1641846L53.6029663,49.2979736z M36,9c1.1045532,0,2,0.8953857,2,2
	c0,1.1045532-0.8954468,2-2,2s-2-0.8954468-2-2C34,9.8953857,34.8954468,9,36,9z M28,9c1.1045532,0,2,0.8953857,2,2
	c0,1.1045532-0.8954468,2-2,2s-2-0.8954468-2-2C26,9.8953857,26.8954468,9,28,9z M33,42c0,0.5522461-0.4472656,1-1,1
	s-1-0.4477539-1-1v-2c0-0.5522461,0.4472656-1,1-1s1,0.4477539,1,1V42z M33,34c0,0.5522461-0.4472656,1-1,1s-1-0.4477539-1-1v-2
	c0-0.5522461,0.4472656-1,1-1s1,0.4477539,1,1V34z M38.0624886,17.5009766C36.8144531,19.6591797,34.4912109,21,32,21
	c-2.4892578,0-4.8125095-1.3398438-6.0615234-3.4960938c-0.2773438-0.4780273-0.1142578-1.0898438,0.3642578-1.3666992
	c0.4765625-0.2753906,1.0888672-0.1132812,1.3662109,0.3637695C28.5615234,18.0424805,30.2216797,19,32,19
	c1.7802734,0,3.4394531-0.9580078,4.3320312-2.5c0.2753906-0.4785156,0.8857422-0.6435547,1.3662109-0.3652344
	C38.1757812,16.4116211,38.3398438,17.0229492,38.0624886,17.5009766z"/>
</svg>
