<?xml version="1.0" encoding="utf-8"?>
<!-- Generator: Adobe Illustrator 19.1.0, SVG Export Plug-In . SVG Version: 6.00 Build 0)  -->
<!DOCTYPE svg PUBLIC "-//W3C//DTD SVG 1.1//EN" "http://www.w3.org/Graphics/SVG/1.1/DTD/svg11.dtd">
<svg version="1.1" id="Layer_1" xmlns="http://www.w3.org/2000/svg" xmlns:xlink="http://www.w3.org/1999/xlink" x="0px" y="0px"
	 width="64px" height="64px" viewBox="0 0 64 64" enable-background="new 0 0 64 64" xml:space="preserve">
<path fill="#444444" d="M55,21v-3c0-0.6542969-0.046875-1.3339844-0.1479492-2.1386719l-0.1083984-0.8632812l-0.8696289-0.0126953
	c-3.9033203-0.0546875-7.2954102-2.6191406-8.4404297-6.3798828l-0.3461914-1.1376953l-1.0610352,0.5361328
	C42.7167969,8.6650391,41.3618164,9,40,9c-4.2626953,0-7.9711914-3.0273438-8.8183594-7.1992188L31.019043,1H26
	C16.6259766,1,9,8.6259766,9,18v3c-4.4111328,0-8,3.5888672-8,8s3.5888672,8,8,8v3c0,12.6826172,10.3178711,23,23,23
	s23-10.3173828,23-23v-3c4.4111328,0,8-3.5888672,8-8S59.4111328,21,55,21z M20,24c0-2.2091675,1.7908325-4,4-4s4,1.7908325,4,4
	c0,2.2091064-1.7908325,4-4,4S20,26.2091064,20,24z M38,46v5.5c0,1.3806763-1.1192627,2.5-2.5,2.5S33,52.8806763,33,51.5V46H22
	c0-5.5228271,4.4771729-10,10-10s10,4.4771729,10,10H38z M40,30c-2.2091675,0-4-1.7908936-4-4c0-2.2091675,1.7908325-4,4-4
	s4,1.7908325,4,4C44,28.2091064,42.2091675,30,40,30z"/>
</svg>
