<?xml version="1.0" encoding="utf-8"?>
<!-- Generator: Adobe Illustrator 19.1.0, SVG Export Plug-In . SVG Version: 6.00 Build 0)  -->
<!DOCTYPE svg PUBLIC "-//W3C//DTD SVG 1.1//EN" "http://www.w3.org/Graphics/SVG/1.1/DTD/svg11.dtd">
<svg version="1.1" id="Layer_1" xmlns="http://www.w3.org/2000/svg" xmlns:xlink="http://www.w3.org/1999/xlink" x="0px" y="0px"
	 width="64px" height="64px" viewBox="0 0 64 64" enable-background="new 0 0 64 64" xml:space="preserve">
<path fill="#444444" d="M32,25c0.5527344,0,1-0.4472656,1-1V4c0-0.5527344-0.4472656-1-1-1s-1,0.4472656-1,1v20
	C31,24.5527344,31.4472656,25,32,25z"/>
<path data-color="color-2" fill="#444444" d="M32,47c-3.859375,0-7,3.140625-7,7s3.140625,7,7,7s7-3.140625,7-7S35.859375,47,32,47z"/>
<path fill="#444444" d="M59.2597656,41.4990234C56.9423828,37.4902344,52.6269531,35,48,35
	c-1.2965088,0-2.5671387,0.1957397-3.7940674,0.5697021c-0.5029907-1.3809204-1.2221069-2.65802-2.1350098-3.7762451
	C43.6231079,28.8712769,46.6598511,27,50,27c1.2519531,0,2.4628906,0.2519531,3.5996094,0.7480469
	c0.5078125,0.2255859,1.0957031-0.0097656,1.3164062-0.515625c0.2216797-0.5058594-0.0097656-1.0957031-0.515625-1.3164062
	C53.0097656,25.3076172,51.5292969,25,50,25c-3.8643188,0-7.4137573,2.0372925-9.3918457,5.2849121
	C38.312439,28.2484131,35.3027344,27,32,27s-6.312439,1.2484131-8.6081543,3.2849121C21.4137573,27.0372925,17.8643188,25,14,25
	c-1.5292969,0-3.0097656,0.3076172-4.4003906,0.9160156c-0.5058594,0.2207031-0.7373047,0.8105469-0.515625,1.3164062
	c0.2207031,0.5058594,0.8095703,0.7412109,1.3164062,0.515625C11.5371094,27.2519531,12.7480469,27,14,27
	c3.3401489,0,6.3768921,1.8712769,7.9290771,4.793457c-0.9129028,1.1182251-1.632019,2.3953247-2.1350098,3.7762451
	C18.5671387,35.1957397,17.2965088,35,16,35c-4.6269531,0-8.9423828,2.4902344-11.2597656,6.4990234
	c-0.2773438,0.4785156-0.1132812,1.0898438,0.3642578,1.3662109C5.2626953,42.9570312,5.4345703,43,5.6044922,43
	c0.3457031,0,0.6816406-0.1787109,0.8662109-0.4990234C8.4335938,39.1074219,12.0839844,37,16,37
	c1.1102295,0,2.1983032,0.1705322,3.2476807,0.4937744C19.0883789,38.305481,19,39.142334,19,40
	c0,1.9822388,0.4665527,3.9017334,1.3045044,5.6343384C16.0072021,47.1807251,13,51.3482056,13,56c0,0.5527344,0.4472656,1,1,1
	s1-0.4472656,1-1c0-3.9351807,2.6260986-7.4501343,6.3305664-8.6069946
	c0.7102661,1.0265503,1.5782471,1.9404907,2.5578003,2.7337646C25.3396606,47.1000366,28.4249878,45,32,45
	c3.5772705,0,6.6643066,2.1027222,8.1143799,5.1325073c0.9815674-0.7930298,1.8511353-1.7081299,2.5621338-2.7375488
	C46.3773193,48.5540771,49,52.0673218,49,56c0,0.5527344,0.4472656,1,1,1s1-0.4472656,1-1
	c0-4.6499634-3.0048218-8.815979-7.2995605-10.3638306C44.5352783,43.9049072,45,41.9851685,45,40
	c0-0.857666-0.0883789-1.694519-0.2476807-2.5062256C45.8016968,37.1705322,46.8897705,37,48,37
	c3.9160156,0,7.5664062,2.1074219,9.5292969,5.5009766C57.7138672,42.8212891,58.0498047,43,58.3955078,43
	c0.1699219,0,0.3417969-0.0429688,0.5-0.1347656C59.3730469,42.5888672,59.5371094,41.9775391,59.2597656,41.4990234z"/>
</svg>
