<?xml version="1.0" encoding="utf-8"?>
<!-- Generator: Adobe Illustrator 19.1.0, SVG Export Plug-In . SVG Version: 6.00 Build 0)  -->
<!DOCTYPE svg PUBLIC "-//W3C//DTD SVG 1.1//EN" "http://www.w3.org/Graphics/SVG/1.1/DTD/svg11.dtd">
<svg version="1.1" id="Layer_1" xmlns="http://www.w3.org/2000/svg" xmlns:xlink="http://www.w3.org/1999/xlink" x="0px" y="0px"
	 width="64px" height="64px" viewBox="0 0 64 64" enable-background="new 0 0 64 64" xml:space="preserve">
<path fill="#444444" d="M17.0406227,60.3489838c1.8485889,1.8485909,4.8462143,1.8485909,6.6948032,0L57.8468018,26.237608
	c5.5375977-5.5375977,5.5375977-14.5468149,0-20.0844116s-14.546814-5.5375962-20.0844078,0
	c-1.8485909,1.8485889-1.8485909,4.8462133,0,6.6948032c1.848587,1.8485899,4.8462143,1.8485899,6.6948013,0
	c1.846138-1.846138,4.8486671-1.846138,6.6948051,0s1.846138,4.8486662,0,6.6948042L17.0406227,53.6541824
	C15.1920328,55.5027695,15.1920328,58.5003929,17.0406227,60.3489838z"/>
<path data-color="color-2" fill="#444444" d="M30.5724487,37.2942505L12.8480225,19.5427856
	c-1.8461304-1.8461304-1.8461304-4.8486328,0-6.6948242c1.8461304-1.8461304,4.8486328-1.8461304,6.6948242,0
	c1.8485718,1.8486328,4.8461914,1.8486328,6.6947632,0c1.8485718-1.8485718,1.8485718-4.8461914,0-6.6947632
	c-5.5375977-5.5375977-14.546814-5.5375977-20.0844116,0s-5.5375977,14.546814,0,20.0844116l17.7336426,17.7422485
	L30.5724487,37.2942505z"/>
<path data-color="color-2" fill="#444444" d="M40.1416626,46.7709351l-6.7444458,6.7444458l6.8673706,6.8336182
	c1.8485718,1.8485718,4.8461914,1.8485718,6.6948242,0c1.8485718-1.8486328,1.8485718-4.8462524,0-6.6948242L40.1416626,46.7709351z
	"/>
</svg>
