<?xml version="1.0" encoding="utf-8"?>
<!-- Generator: Adobe Illustrator 19.1.0, SVG Export Plug-In . SVG Version: 6.00 Build 0)  -->
<!DOCTYPE svg PUBLIC "-//W3C//DTD SVG 1.1//EN" "http://www.w3.org/Graphics/SVG/1.1/DTD/svg11.dtd">
<svg version="1.1" id="Layer_1" xmlns="http://www.w3.org/2000/svg" xmlns:xlink="http://www.w3.org/1999/xlink" x="0px" y="0px"
	 width="64px" height="64px" viewBox="0 0 64 64" enable-background="new 0 0 64 64" xml:space="preserve">
<path data-color="color-2" fill="#444444" d="M50.0953369,41.3552856l1.2166748,6.451355
	c0.2285156,1.2167969-0.2993164,2.4296875-1.3432617,3.0917969C49.4423828,51.2285156,44.5258789,54.0908203,32,54.0908203
	c-12.5253906,0-17.4423828-2.8623047-17.9619141-3.1884766c-1.0585938-0.6699219-1.5849609-1.890625-1.3461914-3.1132812
	c0.0099487-0.0515747,0.5065918-2.5910034,1.3522949-6.4537354C5.8262329,43.527771,1,47.0853882,1,51.0908203
	C1,57.7685547,14.6166992,63,32,63s31-5.2314453,31-11.9091797C63,47.0830688,58.2258301,43.5328369,50.0953369,41.3552856z"/>
<path fill="#444444" d="M59.581543,16.0136719C56.1083984,10.9746094,38.7607422,1,32,1
	c-2.2939453,0-6.0229492,2.4794922-11.8950195,23.9169922c-3.1479492,11.4941406-5.4277344,23.1386719-5.4501953,23.2548828
	c-0.0791016,0.4052734,0.0986328,0.8164062,0.4472656,1.0371094C15.2885742,49.3261719,19.8056641,52.0908203,32,52.0908203
	s16.7114258-2.7646484,16.8979492-2.8818359c0.3466797-0.2197266,0.5244141-0.6279297,0.4487305-1.03125l-4.5866699-24.3207397
	C41.432251,22.9902954,37.5057373,21.5006714,36.25,19.125c5.7897377,1.7745953,21.3347816,5.0348053,23.9575195-0.40625
	C60.5,17.9511719,60.2895508,17.0410156,59.581543,16.0136719z"/>
</svg>
