<?xml version="1.0" encoding="utf-8"?>
<!-- Generator: Adobe Illustrator 19.1.0, SVG Export Plug-In . SVG Version: 6.00 Build 0)  -->
<!DOCTYPE svg PUBLIC "-//W3C//DTD SVG 1.1//EN" "http://www.w3.org/Graphics/SVG/1.1/DTD/svg11.dtd">
<svg version="1.1" id="Layer_1" xmlns="http://www.w3.org/2000/svg" xmlns:xlink="http://www.w3.org/1999/xlink" x="0px" y="0px"
	 width="64px" height="64px" viewBox="0 0 64 64" enable-background="new 0 0 64 64" xml:space="preserve">
<path fill="#444444" d="M53.9374809,27.0869141c3.1191597-4.8398438,6.7041206-15.6884766,5.2207222-21.6748047
	c-0.4384766-1.7695312-1.2871094-3.0185547-2.5205078-3.7128906c-5.7714844-3.2441406-16.71875,6.8408203-20.7568359,13.4130859
	c-1.3916016,2.265625-2.7226562,5.0908203-3.7890625,8.0302734c-3.0966797-0.5576172-6.1513672-0.3876953-9.09375,0.5126953
	C14.625,26.2148438,9,34.390625,9,44v4c0,8.1308594,6.8691406,15,15,15h3.9570312
	c10.1367188,0,18.7080078-6.9804688,20.3818359-16.5986328c0.6650391-3.8232422,0.2236137-7.7011719-1.2763863-11.2617188
	C49.7138672,32.6943359,52.1943359,29.7910156,53.9374809,27.0869141z M24,45c-1.6568604,0-3-1.3431396-3-3s1.3431396-3,3-3
	s3,1.3431396,3,3S25.6568604,45,24,45z"/>
<path data-color="color-2" fill="#444444" d="M22.4130859,21.7421875c1.9960938-0.6103516,4.0634766-0.9199219,6.1435547-0.9199219
	c0.7392578,0,1.4853516,0.0390625,2.234375,0.1171875c0.5013428-1.2597656,1.0477295-2.4899902,1.6199951-3.6516113
	c-2.2849731-6.6582031-6.0828857-13.0598145-9.4041748-15.3239746c-1.1738281-0.8017578-2.2929688-1.1025391-3.3251953-0.9033203
	c-1,0.1943359-1.8486328,0.8642578-2.5214844,1.9912109c-2.4503174,4.0977173-2.3520508,14.338501-0.7420654,21.675293
	C18.2208862,23.4318848,20.2283936,22.4100952,22.4130859,21.7421875z"/>
</svg>
