<?xml version="1.0" encoding="utf-8"?>
<!-- Generator: Adobe Illustrator 19.1.0, SVG Export Plug-In . SVG Version: 6.00 Build 0)  -->
<!DOCTYPE svg PUBLIC "-//W3C//DTD SVG 1.1//EN" "http://www.w3.org/Graphics/SVG/1.1/DTD/svg11.dtd">
<svg version="1.1" id="Layer_1" xmlns="http://www.w3.org/2000/svg" xmlns:xlink="http://www.w3.org/1999/xlink" x="0px" y="0px"
	 width="64px" height="64px" viewBox="0 0 64 64" enable-background="new 0 0 64 64" xml:space="preserve">
<path fill="#444444" d="M9.8378906,25.6054688C9.9111328,25.6328125,17.3945312,28.2724609,32,28.2724609
	c14.6542969,0,22.0751953-2.6396484,22.1484375-2.6660156c0.0341797-0.0123901,0.0690308-0.0070801,0.1035767-0.015564
	C50.6881104,11.4655762,42.0535278,2,32,2C21.8621826,2,13.2716064,11.46521,9.7335815,25.5901489
	C9.7684326,25.5985718,9.8033447,25.5930786,9.8378906,25.6054688z"/>
<path data-color="color-2" fill="#444444" d="M8.2851562,39.2226562C8.375,39.25,17.5087891,41.9091797,32,41.9091797
	S55.625,39.25,55.7148438,39.2226562c0.0908203-0.026001,0.1803589-0.0217285,0.2700195-0.0227661
	c-0.0616455-4.1185303-0.5075073-8.0323486-1.2826538-11.6690674C53.6358643,27.8964844,46.1530151,30.2724609,32,30.2724609
	c-14.1455688,0-21.6390381-2.3736572-22.713501-2.741272c-0.769104,3.6367188-1.2104492,7.5505371-1.2714844,11.6690063
	C8.1047363,39.2011719,8.1942749,39.1968384,8.2851562,39.2226562z"/>
<path fill="#444444" d="M32,43.9091797c-13.5306396,0-22.2693481-2.211792-23.9706421-2.6810303
	C8.6376343,54.2342529,20.5230713,62,32,62s23.3623657-7.7657471,23.9706421-20.7718506
	C54.2693481,41.6973877,45.5306396,43.9091797,32,43.9091797z"/>
</svg>
