<?xml version="1.0" encoding="utf-8"?>
<!-- Generator: Adobe Illustrator 19.1.0, SVG Export Plug-In . SVG Version: 6.00 Build 0)  -->
<!DOCTYPE svg PUBLIC "-//W3C//DTD SVG 1.1//EN" "http://www.w3.org/Graphics/SVG/1.1/DTD/svg11.dtd">
<svg version="1.1" id="Layer_1" xmlns="http://www.w3.org/2000/svg" xmlns:xlink="http://www.w3.org/1999/xlink" x="0px" y="0px"
	 width="64px" height="64px" viewBox="0 0 64 64" enable-background="new 0 0 64 64" xml:space="preserve">
<path fill="#444444" d="M62,3H2C1.4477539,3,1,3.4477539,1,4v12c0,0.5522461,0.4477539,1,1,1h60c0.5522461,0,1-0.4477539,1-1V4
	C63,3.4477539,62.5522461,3,62,3z"/>
<path data-color="color-2" fill="#444444" d="M55,32V20c0-0.5522461-0.4477539-1-1-1H43v13H55z"/>
<rect data-color="color-2" x="23" y="34" fill="#444444" width="32" height="12"/>
<rect data-color="color-2" x="9" y="34" fill="#444444" width="12" height="12"/>
<path data-color="color-2" fill="#444444" d="M43,48v13h11c0.5522461,0,1-0.4477539,1-1V48H43z"/>
<path data-color="color-2" fill="#444444" d="M9,48v12c0,0.5522461,0.4477539,1,1,1h31V48H9z"/>
<path data-color="color-2" fill="#444444" d="M41,32V19H10c-0.5522461,0-1,0.4477539-1,1v12H41z"/>
</svg>
