<?xml version="1.0" encoding="utf-8"?>
<!-- Generator: Adobe Illustrator 19.1.0, SVG Export Plug-In . SVG Version: 6.00 Build 0)  -->
<!DOCTYPE svg PUBLIC "-//W3C//DTD SVG 1.1//EN" "http://www.w3.org/Graphics/SVG/1.1/DTD/svg11.dtd">
<svg version="1.1" id="Layer_1" xmlns="http://www.w3.org/2000/svg" xmlns:xlink="http://www.w3.org/1999/xlink" x="0px" y="0px"
	 width="64px" height="64px" viewBox="0 0 64 64" enable-background="new 0 0 64 64" xml:space="preserve">
<path data-color="color-2" fill="#444444" d="M34,20h-4l-6-4v10.0000076C24,30.4182816,27.5817184,34,31.9999924,34h0.0000153
	C36.4182816,34,40,30.4182816,40,26.0000076V16L34,20z"/>
<path fill="#444444" d="M52.4648438,11.1337891l-1.4189453-0.8183594l-0.0791016,1.6367188
	C50.7047119,17.4169922,47.0549316,22.0559692,42,23.6937256V26c0,5.5136719-4.4863281,10-10,10s-10-4.4863281-10-10v-2.3062744
	c-5.0549316-1.6377563-8.7047119-6.2767334-8.9667969-11.7415771l-0.0791016-1.6367188l-1.4189453,0.8183594
	C5.0371094,14.8798828,1,21.8496094,1,29.3232422c0,3.5419922,0.9052734,7.0498047,2.6171875,10.1464844l0.5234375,0.9472656
	l0.9033203-0.5976562C6.5234375,38.8408203,8.2373047,38.3232422,10,38.3232422c4.4462891,0,8.171875,3.2041016,8.8574219,7.6181641
	l0.1757812,1.1328125l1.0986328-0.328125C21.0712891,46.4658203,22.0361328,46.3232422,23,46.3232422
	c3.2470703,0,6.3056641,1.59375,8.1816406,4.2626953L32,51.75l0.8183594-1.1640625
	C34.6943359,47.9169922,37.7529297,46.3232422,41,46.3232422c0.9638672,0,1.9287109,0.1425781,2.8681641,0.4228516
	l1.0986328,0.328125l0.1757812-1.1328125C45.828125,41.5273438,49.5537109,38.3232422,54,38.3232422
	c1.7626953,0,3.4765625,0.5175781,4.9560547,1.4960938l0.9033203,0.5976562l0.5234375-0.9472656
	C62.0947266,36.3730469,63,32.8652344,63,29.3232422C63,21.8496094,58.9628906,14.8798828,52.4648438,11.1337891z"/>
</svg>
