<?xml version="1.0" encoding="utf-8"?>
<!-- Generator: Adobe Illustrator 19.1.0, SVG Export Plug-In . SVG Version: 6.00 Build 0)  -->
<!DOCTYPE svg PUBLIC "-//W3C//DTD SVG 1.1//EN" "http://www.w3.org/Graphics/SVG/1.1/DTD/svg11.dtd">
<svg version="1.1" id="Layer_1" xmlns="http://www.w3.org/2000/svg" xmlns:xlink="http://www.w3.org/1999/xlink" x="0px" y="0px"
	 width="64px" height="64px" viewBox="0 0 64 64" enable-background="new 0 0 64 64" xml:space="preserve">
<path data-color="color-2" fill="#444444" d="M62,63H2c-0.5522461,0-1-0.4472656-1-1s0.4477539-1,1-1h60c0.5522461,0,1,0.4472656,1,1
	S62.5522461,63,62,63z"/>
<path fill="#444444" d="M48,7c-2.2091675,0-4,1.7908325-4,4V7c0-2.2000122-1.7999878-4-4-4s-4,1.7999878-4,4V5
	c0-2.2000122-1.7999878-4-4-4s-4,1.7999878-4,4v2c0-2.2000122-1.7999878-4-4-4s-4,1.7999878-4,4v13.7649536
	C21.8262939,22.2324829,23,24.4803467,23,27v2.0556641C27.4936523,29.5546875,31,33.375,31,38v1h-2v-1c0-3.859375-3.1401367-7-7-7
	h-1v-4c0-3.3085938-2.6914062-6-6-6v11c0,6.2398682,3.1773071,11.770752,8,15v12h23V45.4154053
	C49.4493408,42.3290405,51.6742554,37.9249268,51.9458618,33H52v-1V11C52,8.7908325,50.2091675,7,48,7z"/>
</svg>
