<?xml version="1.0" encoding="utf-8"?>
<!-- Generator: Adobe Illustrator 19.1.0, SVG Export Plug-In . SVG Version: 6.00 Build 0)  -->
<!DOCTYPE svg PUBLIC "-//W3C//DTD SVG 1.1//EN" "http://www.w3.org/Graphics/SVG/1.1/DTD/svg11.dtd">
<svg version="1.1" id="Layer_1" xmlns="http://www.w3.org/2000/svg" xmlns:xlink="http://www.w3.org/1999/xlink" x="0px" y="0px"
	 width="64px" height="64px" viewBox="0 0 64 64" enable-background="new 0 0 64 64" xml:space="preserve">
<path fill="#444444" d="M44,13H8c-2.7568359,0-5-2.2431641-5-5s2.2431641-5,5-5h6c0.5527344,0,1-0.4477539,1-1s-0.4472656-1-1-1H8
	C4.140625,1,1,4.1401367,1,8s3.140625,7,7,7h9v4.079895C13.6137695,19.567749,11,22.4805298,11,26c0,3.765625,2.9560547,11,7,11
	s7-7.234375,7-11c0-3.5194702-2.6137695-6.432251-6-6.920105V15h25c9.3740234,0,17,7.6259766,17,17s-7.6259766,17-17,17h-3
	v-4.079895C44.3862305,44.432251,47,41.5194702,47,38c0-3.765625-2.9560547-11-7-11s-7,7.234375-7,11
	c0,3.5194702,2.6137695,6.432251,6,6.920105V49H8c-3.859375,0-7,3.1401367-7,7s3.140625,7,7,7h6c0.5527344,0,1-0.4477539,1-1
	s-0.4472656-1-1-1H8c-2.7568359,0-5-2.2431641-5-5s2.2431641-5,5-5h36c10.4765625,0,19-8.5234375,19-19S54.4765625,13,44,13z"/>
</svg>
