<?xml version="1.0" encoding="utf-8"?>
<!-- Generator: Adobe Illustrator 19.1.0, SVG Export Plug-In . SVG Version: 6.00 Build 0)  -->
<!DOCTYPE svg PUBLIC "-//W3C//DTD SVG 1.1//EN" "http://www.w3.org/Graphics/SVG/1.1/DTD/svg11.dtd">
<svg version="1.1" id="Layer_1" xmlns="http://www.w3.org/2000/svg" xmlns:xlink="http://www.w3.org/1999/xlink" x="0px" y="0px"
	 width="64px" height="64px" viewBox="0 0 64 64" enable-background="new 0 0 64 64" xml:space="preserve">
<path data-color="color-2" fill="#444444" d="M52,1H18c-0.5522461,0-1,0.4477539-1,1v12c0,0.5522461,0.4477539,1,1,1h34
	c0.5522461,0,1-0.4477539,1-1V2C53,1.4477539,52.5522461,1,52,1z"/>
<path fill="#444444" d="M32.7240601,57.3099976l9.0848999-9.4373779C40.6275635,45.7728882,40,43.4020996,40,41
	c0-5.848938,3.5901489-11.0057373,9-13.0701904V18c0-0.5522461-0.4477539-1-1-1H22c-0.5522461,0-1,0.4477539-1,1v9.5874023
	l-8.9716797,9.0268555L32.7240601,57.3099976z"/>
<path data-color="color-2" fill="#444444" d="M10.621521,38.0355835c-5.6495361,5.71698-5.6325684,14.9616699,0.0581665,20.6528931
	c2.8544922,2.8544922,6.6025391,4.2827148,10.3535156,4.2822266c3.7218018-0.0004883,7.4443359-1.4109497,10.2984619-4.2249756
	L10.621521,38.0355835z"/>
<path data-color="color-2" fill="#444444" d="M42,41c0,1.8543701,0.4577026,3.6785889,1.2838135,5.3405762l5.4364014-5.6472168
	C48.8999023,40.5073242,49,40.2587891,49,40v-9.9037476C44.7646484,32.03125,42,36.2485962,42,41z"/>
</svg>
