<?xml version="1.0" encoding="utf-8"?>
<!-- Generator: Adobe Illustrator 19.1.0, SVG Export Plug-In . SVG Version: 6.00 Build 0)  -->
<!DOCTYPE svg PUBLIC "-//W3C//DTD SVG 1.1//EN" "http://www.w3.org/Graphics/SVG/1.1/DTD/svg11.dtd">
<svg version="1.1" id="Layer_1" xmlns="http://www.w3.org/2000/svg" xmlns:xlink="http://www.w3.org/1999/xlink" x="0px" y="0px"
	 width="64px" height="64px" viewBox="0 0 64 64" enable-background="new 0 0 64 64" xml:space="preserve">
<path fill="#444444" d="M19,43c-0.5522461,0-1-0.4477539-1-1c0-1.6542969-1.3457031-3-3-3s-3,1.3457031-3,3
	c0,0.5522461-0.4477539,1-1,1s-1-0.4477539-1-1c0-2.7568359,2.2431641-5,5-5s5,2.2431641,5,5C20,42.5522461,19.5522461,43,19,43z"/>
<path fill="#444444" d="M33,43c-0.5522461,0-1-0.4477539-1-1c0-1.6542969-1.3457031-3-3-3s-3,1.3457031-3,3
	c0,0.5522461-0.4477539,1-1,1s-1-0.4477539-1-1c0-2.7568359,2.2431641-5,5-5s5,2.2431641,5,5C34,42.5522461,33.5522461,43,33,43z"/>
<path fill="#444444" d="M22,53c0-2.7614136-2.2385864-5-5-5c-0.0571899,0-0.1102905,0.0149536-0.1670532,0.0168457
	c-0.0302734-0.0006714-0.053894-0.0099487-0.0846558-0.0099487C10.625,48.006897,9.041687,56,5,56c-1.1045532,0-2,0.8953857-2,2
	c0,1.1045532,0.8954468,2,2,2c4.1699829,0,11.1459351-0.6219482,14.5999756-2.7478027C21.125,56.2708321,22,54.6282349,22,53z"/>
<path fill="#444444" d="M22,53c0-2.7614136,2.2385864-5,5-5c0.0571899,0,0.1102905,0.0149536,0.1670532,0.0168457
	c0.0302734-0.0006714,0.053894-0.0099487,0.0846558-0.0099487C33.375,48.006897,34.958313,56,39,56c1.1045532,0,2,0.8953857,2,2
	c0,1.1045532-0.8954468,2-2,2c-4.1699829,0-11.1459351-0.6219482-14.5999756-2.7478027C22.875,56.2708321,22,54.6282349,22,53z"/>
<path data-color="color-2" fill="#444444" d="M47,23H4c-0.5522461,0-1,0.4477539-1,1v7c0,0.5522461,0.4477539,1,1,1h43
	c0.5522461,0,1-0.4477539,1-1v-7C48,23.4477539,47.5522461,23,47,23z"/>
<path data-color="color-2" fill="#444444" d="M54,47c-4.4111328,0-8,3.5888672-8,8s3.5888672,8,8,8s8-3.5888672,8-8S58.4111328,47,54,47z"
	/>
<path fill="#444444" d="M50,23v22.8406982C51.2261963,45.3030396,52.5776367,45,54,45s2.7738037,0.3030396,4,0.8406982V25
	C58,11.2148438,46.7851562,0,33,0C21.277832,0,11.0024414,8.3237305,8.5678711,19.7924805
	c-0.0629883,0.2949219,0.0112305,0.6025391,0.2011719,0.8369141C8.9584961,20.8637695,9.2441406,21,9.5458984,21H48
	C49.1030273,21,50,21.8969727,50,23z"/>
</svg>
