<?xml version="1.0" encoding="utf-8"?>
<!-- Generator: Adobe Illustrator 19.0.1, SVG Export Plug-In . SVG Version: 6.00 Build 0)  -->
<!DOCTYPE svg PUBLIC "-//W3C//DTD SVG 1.1//EN" "http://www.w3.org/Graphics/SVG/1.1/DTD/svg11.dtd">
<svg version="1.1" id="Layer_49" xmlns="http://www.w3.org/2000/svg" xmlns:xlink="http://www.w3.org/1999/xlink" x="0px" y="0px"
	 width="32px" height="32px" viewBox="0 0 32 32" enable-background="new 0 0 32 32" xml:space="preserve">
<path d="M31.5,27c0-0.6-0.4-1-1-1c-0.6,0-1,0.4-1,1c0,1.7-1.3,3-3,3c-1.1,0-2.1-0.6-2.6-1.6c-0.3-0.6-1.4-0.6-1.8,0
	c-0.5,1-1.5,1.6-2.6,1.6s-2.1-0.6-2.6-1.6c-0.3-0.6-1.4-0.6-1.8,0c-0.5,1-1.5,1.6-2.6,1.6s-2.1-0.6-2.6-1.6c-0.3-0.6-1.4-0.6-1.8,0
	c-0.5,1-1.5,1.6-2.6,1.6c-1.7,0-3-1.3-3-3c0-0.6-0.4-1-1-1c-0.6,0-1,0.4-1,1c0,2.8,2.2,5,5,5c1.3,0,2.6-0.5,3.5-1.5
	c0.9,0.9,2.2,1.5,3.5,1.5s2.6-0.5,3.5-1.5c0.9,0.9,2.2,1.5,3.5,1.5s2.6-0.5,3.5-1.5c0.9,0.9,2.2,1.5,3.5,1.5
	C29.3,32,31.5,29.8,31.5,27z"/>
<path d="M31,0h-4c-0.6,0-1,0.4-1,1v1c0,5.5-4.5,10-10,10C10.5,12,6,7.5,6,2V1c0-0.6-0.4-1-1-1H1C0.4,0,0,0.4,0,1v22c0,0.6,0.4,1,1,1
	h4c0.6,0,1-0.4,1-1v-1h20v1c0,0.6,0.4,1,1,1h4c0.6,0,1-0.4,1-1V1C32,0.4,31.6,0,31,0z M10,20H6V8.6c1,1.5,2.4,2.8,4,3.8V20z M15,20
	h-3v-6.7c1,0.3,2,0.6,3,0.6V20z M20,20h-3v-6.1c1-0.1,2-0.3,3-0.6V20z M26,20h-4v-7.6c1.6-0.9,3-2.2,4-3.8V20z"/>
</svg>
