<?xml version="1.0" encoding="utf-8"?>
<!-- Generator: Adobe Illustrator 19.0.1, SVG Export Plug-In . SVG Version: 6.00 Build 0)  -->
<!DOCTYPE svg PUBLIC "-//W3C//DTD SVG 1.1//EN" "http://www.w3.org/Graphics/SVG/1.1/DTD/svg11.dtd">
<svg version="1.1" id="Layer_49" xmlns="http://www.w3.org/2000/svg" xmlns:xlink="http://www.w3.org/1999/xlink" x="0px" y="0px"
	 width="32px" height="32px" viewBox="0 0 32 32" enable-background="new 0 0 32 32" xml:space="preserve">
<path d="M16,9c-3.9,0-7,3.1-7,7c0,3.9,3.1,7,7,7c3.9,0,7-3.1,7-7C23,12.1,19.9,9,16,9z"/>
<path d="M15,1v4c0,0.6,0.4,1,1,1c0.6,0,1-0.4,1-1V1c0-0.6-0.4-1-1-1C15.4,0,15,0.4,15,1z"/>
<path d="M23.3,8.7C23.5,8.9,23.7,9,24,9s0.5-0.1,0.7-0.3l1-1c0.4-0.4,0.4-1,0-1.4c-0.4-0.4-1-0.4-1.4,0l-1,1
	C22.9,7.7,22.9,8.3,23.3,8.7z"/>
<path d="M24.7,23.3c-0.4-0.4-1-0.4-1.4,0c-0.4,0.4-0.4,1,0,1.4l1,1c0.2,0.2,0.5,0.3,0.7,0.3s0.5-0.1,0.7-0.3c0.4-0.4,0.4-1,0-1.4
	L24.7,23.3z"/>
<path d="M7.3,23.3l-1,1c-0.4,0.4-0.4,1,0,1.4C6.5,25.9,6.7,26,7,26s0.5-0.1,0.7-0.3l1-1c0.4-0.4,0.4-1,0-1.4
	C8.3,22.9,7.7,22.9,7.3,23.3z"/>
<path d="M6.3,6.3c-0.4,0.4-0.4,1,0,1.4l1,1C7.5,8.9,7.7,9,8,9s0.5-0.1,0.7-0.3c0.4-0.4,0.4-1,0-1.4l-1-1C7.3,5.9,6.7,5.9,6.3,6.3z"
	/>
<path d="M31,15h-4c-0.6,0-1,0.4-1,1c0,0.6,0.4,1,1,1h4c0.6,0,1-0.4,1-1C32,15.4,31.6,15,31,15z"/>
<path d="M16,26c-0.6,0-1,0.4-1,1v4c0,0.6,0.4,1,1,1c0.6,0,1-0.4,1-1v-4C17,26.4,16.6,26,16,26z"/>
<path d="M5,15H1c-0.6,0-1,0.4-1,1c0,0.6,0.4,1,1,1h4c0.6,0,1-0.4,1-1C6,15.4,5.6,15,5,15z"/>
</svg>
