<?xml version="1.0" encoding="utf-8"?>
<!-- Generator: Adobe Illustrator 19.0.1, SVG Export Plug-In . SVG Version: 6.00 Build 0)  -->
<!DOCTYPE svg PUBLIC "-//W3C//DTD SVG 1.1//EN" "http://www.w3.org/Graphics/SVG/1.1/DTD/svg11.dtd">
<svg version="1.1" id="Layer_49" xmlns="http://www.w3.org/2000/svg" xmlns:xlink="http://www.w3.org/1999/xlink" x="0px" y="0px"
	 width="32px" height="32px" viewBox="0 0 32 32" enable-background="new 0 0 32 32" xml:space="preserve">
<path d="M30,7h-5v4c0,1.7,1.3,3,3,3h2V7z"/>
<path d="M30,2c0-0.6-0.4-1-1-1H3C2.4,1,2,1.4,2,2v3h28V2z"/>
<path d="M7,11V7H2v7h2C5.7,14,7,12.7,7,11z"/>
<path d="M2,30c0,0.6,0.4,1,1,1h7c0.4,0,0.8-0.3,0.9-0.7L14.7,20h2.6l3.8,10.3c0.1,0.4,0.5,0.7,0.9,0.7h7c0.6,0,1-0.4,1-1V16h-2
	c-2.8,0-5-2.2-5-5V7h-6v6c0,0.6-0.4,1-1,1s-1-0.4-1-1V7H9v4c0,2.8-2.2,5-5,5H2V30z"/>
</svg>
