<?xml version="1.0" encoding="utf-8"?>
<!-- Generator: Adobe Illustrator 19.0.1, SVG Export Plug-In . SVG Version: 6.00 Build 0)  -->
<!DOCTYPE svg PUBLIC "-//W3C//DTD SVG 1.1//EN" "http://www.w3.org/Graphics/SVG/1.1/DTD/svg11.dtd">
<svg version="1.1" id="Layer_49" xmlns="http://www.w3.org/2000/svg" xmlns:xlink="http://www.w3.org/1999/xlink" x="0px" y="0px"
	 width="32px" height="32px" viewBox="0 0 32 32" enable-background="new 0 0 32 32" xml:space="preserve">
<polygon points="2,25 7,25 7,22 9,22 9,25 11,25 11,22 13,22 13,25 15,25 15,22 17,22 17,25 19,25 19,22 21,22 21,25 23,25 23,22 
	25,22 25,25 30,25 30,19 25,19 23,19 21,19 19,19 17,19 15,19 13,19 11,19 9,19 7,19 2,19 "/>
<polygon points="2,17 7,17 7,14 9,14 9,17 11,17 11,14 13,14 13,17 15,17 15,14 17,14 17,17 19,17 19,14 21,14 21,17 23,17 23,14 
	25,14 25,17 30,17 30,11 17,11 15,11 13,11 11,11 9,11 7,11 2,11 "/>
<path d="M31,27H1c-0.6,0-1,0.4-1,1v3c0,0.6,0.4,1,1,1h30c0.6,0,1-0.4,1-1v-3C32,27.4,31.6,27,31,27z"/>
<path d="M23.5,9l-5.7-7.6C17.6,1.1,17.3,1,17,1H6C3.8,1,2,2.8,2,5v4h5V6h2v3h2V6h2v3h2V6h2v3H23.5z"/>
</svg>
