<?xml version="1.0" encoding="utf-8"?>
<!-- Generator: Adobe Illustrator 19.0.1, SVG Export Plug-In . SVG Version: 6.00 Build 0)  -->
<!DOCTYPE svg PUBLIC "-//W3C//DTD SVG 1.1//EN" "http://www.w3.org/Graphics/SVG/1.1/DTD/svg11.dtd">
<svg version="1.1" id="Layer_49" xmlns="http://www.w3.org/2000/svg" xmlns:xlink="http://www.w3.org/1999/xlink" x="0px" y="0px"
	 width="32px" height="32px" viewBox="0 0 32 32" enable-background="new 0 0 32 32" xml:space="preserve">
<path d="M24,13v-3c2.8,0,5-2.2,5-5c0-2.8-2.2-5-5-5c-2.8,0-5,2.2-5,5h-8.1l-2-4.4C8.7,0.2,8.4,0,8,0H4C3.4,0,3,0.4,3,1s0.4,1,1,1
	h3.4l1.4,3H5C4.4,5,4,5.4,4,6v7c0,5.2,4,9.4,9,9.9V30H9c-0.6,0-1,0.4-1,1s0.4,1,1,1h10c0.6,0,1-0.4,1-1s-0.4-1-1-1h-4v-7.1
	C20,22.4,24,18.2,24,13z M24,2c1.7,0,3,1.3,3,3s-1.3,3-3,3V6c0-0.6-0.4-1-1-1h-2C21,3.3,22.3,2,24,2z"/>
</svg>
