<?xml version="1.0" encoding="utf-8"?>
<!-- Generator: Adobe Illustrator 19.0.1, SVG Export Plug-In . SVG Version: 6.00 Build 0)  -->
<!DOCTYPE svg PUBLIC "-//W3C//DTD SVG 1.1//EN" "http://www.w3.org/Graphics/SVG/1.1/DTD/svg11.dtd">
<svg version="1.1" id="Layer_49" xmlns="http://www.w3.org/2000/svg" xmlns:xlink="http://www.w3.org/1999/xlink" x="0px" y="0px"
	 width="32px" height="32px" viewBox="0 0 32 32" enable-background="new 0 0 32 32" xml:space="preserve">
<path d="M27,22c-2.8,0-5,2.2-5,5c0,2.8,2.2,5,5,5s5-2.2,5-5C32,24.2,29.8,22,27,22z"/>
<path d="M20,10.3c0-5.4-4.1-9.9-9.3-10.3C4.9-0.4,0,4.3,0,10v7h20V10.3z"/>
<path d="M7,29c0,1.7,1.3,3,3,3s3-1.3,3-3v-6h7v-4H0v4h7V29z"/>
</svg>
