<?xml version="1.0" encoding="utf-8"?>
<!-- Generator: Adobe Illustrator 19.0.1, SVG Export Plug-In . SVG Version: 6.00 Build 0)  -->
<!DOCTYPE svg PUBLIC "-//W3C//DTD SVG 1.1//EN" "http://www.w3.org/Graphics/SVG/1.1/DTD/svg11.dtd">
<svg version="1.1" id="Layer_49" xmlns="http://www.w3.org/2000/svg" xmlns:xlink="http://www.w3.org/1999/xlink" x="0px" y="0px"
	 width="32px" height="32px" viewBox="0 0 32 32" enable-background="new 0 0 32 32" xml:space="preserve">
<path d="M29,3.1V1c0-0.6-0.4-1-1-1s-1,0.4-1,1v2.1c-1.7,0.4-3,2-3,3.9v4.2c-1.6-2.2-4.1-3.7-7-4V4c0-0.6-0.4-1-1-1s-1,0.4-1,1v3.3
	c-2.9,0.3-5.4,1.8-7,4V7c0-1.9-1.3-3.4-3-3.9V1c0-0.6-0.4-1-1-1S3,0.4,3,1v2.1C1.3,3.6,0,5.1,0,7v24c0,0.6,0.4,1,1,1h12v-3
	c0-1.7,1.3-3,3-3c1.7,0,3,1.3,3,3v3h12c0.6,0,1-0.4,1-1V7C32,5.1,30.7,3.6,29,3.1z M6,8H2V7c0-1.1,0.9-2,2-2s2,0.9,2,2V8z M8,17
	c0.1-4.3,3.6-7.8,8-7.8c4.3,0,7.9,3.5,8,7.8H8z M30,8h-4V7c0-1.1,0.9-2,2-2c1.1,0,2,0.9,2,2V8z"/>
</svg>
