<?xml version="1.0" encoding="utf-8"?>
<!-- Generator: Adobe Illustrator 19.0.1, SVG Export Plug-In . SVG Version: 6.00 Build 0)  -->
<!DOCTYPE svg PUBLIC "-//W3C//DTD SVG 1.1//EN" "http://www.w3.org/Graphics/SVG/1.1/DTD/svg11.dtd">
<svg version="1.1" id="Layer_49" xmlns="http://www.w3.org/2000/svg" xmlns:xlink="http://www.w3.org/1999/xlink" x="0px" y="0px"
	 width="32px" height="32px" viewBox="0 0 32 32" enable-background="new 0 0 32 32" xml:space="preserve">
<rect x="11" y="8" width="10" height="6"/>
<path d="M17,2.1V6h8.8C23.5,3.7,20.4,2.3,17,2.1z"/>
<path d="M23,8v6h6.8c-0.3-2.2-1.1-4.2-2.4-6H23z"/>
<rect x="28" y="16" width="2" height="6"/>
<path d="M15,2.1C11.6,2.3,8.5,3.7,6.2,6H15V2.1z"/>
<rect x="2" y="16" width="2" height="6"/>
<path d="M9,8H4.5c-1.2,1.8-2,3.8-2.4,6H9V8z"/>
<path d="M9,31c0,0.6,0.4,1,1,1h12c0.6,0,1-0.4,1-1v-3h7v-4h-7c0-0.7-0.1-1.4-0.3-2H26v-6H6v6h3.3C9.1,22.6,9,23.3,9,24H2v4h7V31z
	 M11,24c0-2.8,2.2-5,5-5c2.8,0,5,2.2,5,5v6H11V24z"/>
</svg>
