<?xml version="1.0" encoding="utf-8"?>
<!-- Generator: Adobe Illustrator 19.0.1, SVG Export Plug-In . SVG Version: 6.00 Build 0)  -->
<!DOCTYPE svg PUBLIC "-//W3C//DTD SVG 1.1//EN" "http://www.w3.org/Graphics/SVG/1.1/DTD/svg11.dtd">
<svg version="1.1" id="Layer_49" xmlns="http://www.w3.org/2000/svg" xmlns:xlink="http://www.w3.org/1999/xlink" x="0px" y="0px"
	 width="32px" height="32px" viewBox="0 0 32 32" enable-background="new 0 0 32 32" xml:space="preserve">
<path d="M30.5,26c-0.6,0-1,0.4-1,1c0,1.7-1.3,3-3,3c-1.1,0-2.1-0.6-2.6-1.6c-0.4-0.6-1.4-0.6-1.8,0c-0.5,1-1.5,1.6-2.6,1.6
	s-2.1-0.6-2.6-1.6c-0.4-0.6-1.4-0.6-1.8,0c-0.5,1-1.5,1.6-2.6,1.6s-2.1-0.6-2.6-1.6c-0.4-0.6-1.4-0.6-1.8,0c-0.5,1-1.5,1.6-2.6,1.6
	c-1.7,0-3-1.3-3-3c0-0.6-0.4-1-1-1s-1,0.4-1,1c0,2.8,2.2,5,5,5c1.3,0,2.6-0.5,3.5-1.5c0.9,0.9,2.2,1.5,3.5,1.5s2.6-0.5,3.5-1.5
	c0.9,0.9,2.2,1.5,3.5,1.5s2.6-0.5,3.5-1.5c0.9,0.9,2.2,1.5,3.5,1.5c2.8,0,5-2.2,5-5C31.5,26.4,31.1,26,30.5,26z"/>
<path d="M0,7.8C-0.1,8.3,0.3,8.9,0.8,9l4,0.8c0.1,0,0.1,0,0.2,0c0.5,0,0.9-0.3,1-0.8c0.1-0.5-0.2-1.1-0.8-1.2L1.2,7
	C0.7,6.9,0.1,7.3,0,7.8z"/>
<path d="M1.2,15l4-0.8C5.7,14.1,6.1,13.5,6,13c-0.1-0.5-0.6-0.9-1.2-0.8l-4,0.8c-0.5,0.1-0.9,0.6-0.8,1.2C0.1,14.7,0.5,15,1,15
	C1.1,15,1.1,15,1.2,15z"/>
<path d="M30.8,7l-4,0.8C26.3,7.9,25.9,8.5,26,9c0.1,0.5,0.5,0.8,1,0.8c0.1,0,0.1,0,0.2,0l4-0.8c0.5-0.1,0.9-0.6,0.8-1.2
	C31.9,7.3,31.3,6.9,30.8,7z"/>
<path d="M31.2,13l-4-0.8c-0.5-0.1-1.1,0.2-1.2,0.8c-0.1,0.5,0.2,1.1,0.8,1.2l4,0.8c0.1,0,0.1,0,0.2,0c0.5,0,0.9-0.3,1-0.8
	C32.1,13.7,31.7,13.1,31.2,13z"/>
<path d="M8,6v13h16V6c0-0.3-0.2-0.6-0.4-0.8l-7-5c-0.3-0.2-0.8-0.2-1.2,0l-7,5C8.2,5.4,8,5.7,8,6z M16,8c1.7,0,3,1.3,3,3
	c0,1.7-1.3,3-3,3c-1.7,0-3-1.3-3-3C13,9.3,14.3,8,16,8z"/>
<path d="M5.1,24.5c-0.2,0.3-0.2,0.7,0,1C5.3,25.8,5.6,26,6,26h20c0.4,0,0.7-0.2,0.9-0.5c0.2-0.3,0.2-0.7,0-1L24.8,21H7.2L5.1,24.5z"
	/>
</svg>
