<?xml version="1.0" encoding="utf-8"?>
<!-- Generator: Adobe Illustrator 19.0.1, SVG Export Plug-In . SVG Version: 6.00 Build 0)  -->
<!DOCTYPE svg PUBLIC "-//W3C//DTD SVG 1.1//EN" "http://www.w3.org/Graphics/SVG/1.1/DTD/svg11.dtd">
<svg version="1.1" id="Layer_49" xmlns="http://www.w3.org/2000/svg" xmlns:xlink="http://www.w3.org/1999/xlink" x="0px" y="0px"
	 width="32px" height="32px" viewBox="0 0 32 32" enable-background="new 0 0 32 32" xml:space="preserve">
<path d="M23,27H9c-0.6,0-1,0.4-1,1v3c0,0.6,0.4,1,1,1h14c0.6,0,1-0.4,1-1v-3C24,27.4,23.6,27,23,27z"/>
<path d="M31,5H19V3c0-1.7-1.3-3-3-3s-3,1.3-3,3v2H1C0.4,5,0,5.4,0,6v4c0,0.6,0.4,1,1,1h2v2c0,0.6,0.4,1,1,1h7v11h10V14h7
	c0.6,0,1-0.4,1-1v-2h2c0.6,0,1-0.4,1-1V6C32,5.4,31.6,5,31,5z"/>
</svg>
