<?xml version="1.0" encoding="utf-8"?>
<!-- Generator: Adobe Illustrator 19.0.1, SVG Export Plug-In . SVG Version: 6.00 Build 0)  -->
<!DOCTYPE svg PUBLIC "-//W3C//DTD SVG 1.1//EN" "http://www.w3.org/Graphics/SVG/1.1/DTD/svg11.dtd">
<svg version="1.1" id="Layer_49" xmlns="http://www.w3.org/2000/svg" xmlns:xlink="http://www.w3.org/1999/xlink" x="0px" y="0px"
	 width="32px" height="32px" viewBox="0 0 32 32" enable-background="new 0 0 32 32" xml:space="preserve">
<path d="M8.8,28.6C6,26.6,4,23.2,4,18.9c0-3.2,2-7,4.3-10.2C5.4,7.6,3,6.9,2.8,6.9l-1-0.3l-0.3,1C1.5,8-1.6,19.5,1.1,24.1
	C2.9,27.3,5.9,28.6,8.8,28.6z"/>
<path d="M28,18.9c0,4.4-2,7.7-4.8,9.8c2.9-0.1,5.9-1.4,7.7-4.5c2.7-4.7-0.4-16.1-0.5-16.6l-0.3-1l-1,0.3c-0.1,0-2.6,0.7-5.4,1.8
	C26,11.8,28,15.6,28,18.9z"/>
<path d="M26,18.9c0-5.9-8.9-15.2-9.3-15.6L16,2.6l-0.7,0.7C14.9,3.7,6,12.9,6,18.9C6,25.2,11.1,29,16,29S26,25.2,26,18.9z"/>
</svg>
