<?xml version="1.0" encoding="utf-8"?>
<!-- Generator: Adobe Illustrator 19.0.1, SVG Export Plug-In . SVG Version: 6.00 Build 0)  -->
<!DOCTYPE svg PUBLIC "-//W3C//DTD SVG 1.1//EN" "http://www.w3.org/Graphics/SVG/1.1/DTD/svg11.dtd">
<svg version="1.1" id="Layer_49" xmlns="http://www.w3.org/2000/svg" xmlns:xlink="http://www.w3.org/1999/xlink" x="0px" y="0px"
	 width="32px" height="32px" viewBox="0 0 32 32" enable-background="new 0 0 32 32" xml:space="preserve">
<path d="M12.9,18.1c-0.5-1.2-0.7-2.6-0.8-4.1h-1.9C10.4,15.7,11.4,17.2,12.9,18.1z"/>
<path d="M16,7c-0.6,0-1.8,1.9-2,5H18C17.8,8.9,16.6,7,16,7z"/>
<path d="M12.9,7.9c-1.4,0.9-2.5,2.4-2.8,4.1H12C12.1,10.5,12.4,9.1,12.9,7.9z"/>
<path d="M16,19c0.6,0,1.8-1.9,2-5H14C14.2,17.1,15.4,19,16,19z"/>
<path d="M21.9,14H20c-0.1,1.5-0.4,2.9-0.8,4.1C20.6,17.2,21.6,15.7,21.9,14z"/>
<path d="M2,1v30c0,0.6,0.4,1,1,1h23c2.2,0,4-1.8,4-4V4c0-2.2-1.8-4-4-4H3C2.4,0,2,0.4,2,1z M19,26h-6c-0.6,0-1-0.4-1-1s0.4-1,1-1h6
	c0.6,0,1,0.4,1,1S19.6,26,19,26z M16,5c4.4,0,8,3.6,8,8c0,4.4-3.6,8-8,8c-4.4,0-8-3.6-8-8C8,8.6,11.6,5,16,5z"/>
<path d="M21.9,12c-0.3-1.7-1.3-3.2-2.8-4.1c0.5,1.2,0.7,2.6,0.8,4.1H21.9z"/>
</svg>
