<?xml version="1.0" encoding="utf-8"?>
<!-- Generator: Adobe Illustrator 19.0.1, SVG Export Plug-In . SVG Version: 6.00 Build 0)  -->
<!DOCTYPE svg PUBLIC "-//W3C//DTD SVG 1.1//EN" "http://www.w3.org/Graphics/SVG/1.1/DTD/svg11.dtd">
<svg version="1.1" id="Layer_49" xmlns="http://www.w3.org/2000/svg" xmlns:xlink="http://www.w3.org/1999/xlink" x="0px" y="0px"
	 width="32px" height="32px" viewBox="0 0 32 32" enable-background="new 0 0 32 32" xml:space="preserve">
<path d="M31,0c-5,0-9,4-9,9v11h5c2,0,3.7,0.8,5,2.1V1C32,0.4,31.6,0,31,0z M28,15c0,0.6-0.4,1-1,1c-0.6,0-1-0.4-1-1V9
	c0-0.6,0.4-1,1-1c0.6,0,1,0.4,1,1V15z"/>
<path d="M27,22H5c-2.8,0-5,2.2-5,5c0,2.8,2.2,5,5,5h22c2.8,0,5-2.2,5-5C32,24.2,29.8,22,27,22z"/>
<path d="M10,20v-3c0-0.6-0.4-1-1-1H7.5C6.7,16,6,15.3,6,14.5S6.7,13,7.5,13H9c0.6,0,1-0.4,1-1V9c0-0.6-0.4-1-1-1H1C0.4,8,0,8.4,0,9
	v13.1C1.3,20.8,3,20,5,20H10z"/>
</svg>
