<?xml version="1.0" encoding="utf-8"?>
<!-- Generator: Adobe Illustrator 19.0.1, SVG Export Plug-In . SVG Version: 6.00 Build 0)  -->
<!DOCTYPE svg PUBLIC "-//W3C//DTD SVG 1.1//EN" "http://www.w3.org/Graphics/SVG/1.1/DTD/svg11.dtd">
<svg version="1.1" id="Layer_49" xmlns="http://www.w3.org/2000/svg" xmlns:xlink="http://www.w3.org/1999/xlink" x="0px" y="0px"
	 width="32px" height="32px" viewBox="0 0 32 32" enable-background="new 0 0 32 32" xml:space="preserve">
<path d="M1,19h12c0.6,0,1-0.4,1-1V3c0-0.6-0.4-1-1-1c-0.6,0-1,0.4-1,1v1.6L7.7,0.3c-0.4-0.4-1-0.4-1.4,0L2,4.6V3c0-0.6-0.4-1-1-1
	C0.4,2,0,2.4,0,3v15C0,18.6,0.4,19,1,19z M7,8c2.2,0,4,1.8,4,4c0,2.2-1.8,4-4,4s-4-1.8-4-4C3,9.8,4.8,8,7,8z"/>
<path d="M2,21c-0.6,0-1,0.4-1,1v9c0,0.6,0.4,1,1,1h10c0.6,0,1-0.4,1-1v-9c0-0.6-0.4-1-1-1H2z"/>
<path d="M16,32h14c0.6,0,1-0.4,1-1V21c0-0.6-0.4-1-1-1c-0.6,0-1,0.4-1,1v1h-5v-1c0-0.6-0.4-1-1-1c-0.6,0-1,0.4-1,1v1h-5v-1
	c0-0.6-0.4-1-1-1c-0.6,0-1,0.4-1,1v10C15,31.6,15.4,32,16,32z"/>
</svg>
