<?xml version="1.0" encoding="utf-8"?>
<!-- Generator: Adobe Illustrator 19.0.1, SVG Export Plug-In . SVG Version: 6.00 Build 0)  -->
<!DOCTYPE svg PUBLIC "-//W3C//DTD SVG 1.1//EN" "http://www.w3.org/Graphics/SVG/1.1/DTD/svg11.dtd">
<svg version="1.1" id="Layer_49" xmlns="http://www.w3.org/2000/svg" xmlns:xlink="http://www.w3.org/1999/xlink" x="0px" y="0px"
	 width="32px" height="32px" viewBox="0 0 32 32" enable-background="new 0 0 32 32" xml:space="preserve">
<path d="M1,32h3V21H1c-0.6,0-1,0.4-1,1v9C0,31.6,0.4,32,1,32z"/>
<path d="M31,21h-3v11h3c0.6,0,1-0.4,1-1v-9C32,21.4,31.6,21,31,21z"/>
<path d="M14,0c-0.6,0-1,0.4-1,1v5H7C6.4,6,6,6.4,6,7v24c0,0.6,0.4,1,1,1h7v-4c0-0.6,0.4-1,1-1h2c0.6,0,1,0.4,1,1v4h7
	c0.6,0,1-0.4,1-1V7c0-0.6-0.4-1-1-1h-6V1c0-0.6-0.4-1-1-1c-0.6,0-1,0.4-1,1v1h-2V1C15,0.4,14.6,0,14,0z M14,24h-4v-2h4V24z M14,20
	h-4v-2h4V20z M14,16h-4v-2h4V16z M14,12h-4v-2h4V12z M18,10h4v2h-4V10z M18,14h4v2h-4V14z M18,18h4v2h-4V18z M18,22h4v2h-4V22z
	 M17,4v2h-2V4H17z"/>
</svg>
