<?xml version="1.0" encoding="utf-8"?>
<!-- Generator: Adobe Illustrator 19.0.1, SVG Export Plug-In . SVG Version: 6.00 Build 0)  -->
<!DOCTYPE svg PUBLIC "-//W3C//DTD SVG 1.1//EN" "http://www.w3.org/Graphics/SVG/1.1/DTD/svg11.dtd">
<svg version="1.1" id="Layer_49" xmlns="http://www.w3.org/2000/svg" xmlns:xlink="http://www.w3.org/1999/xlink" x="0px" y="0px"
	 width="32px" height="32px" viewBox="0 0 32 32" enable-background="new 0 0 32 32" xml:space="preserve">
<path d="M1,6v8c0,0.6,0.4,1,1,1h23c0.2,0,0.4-0.1,0.6-0.2l5-4c0.2-0.2,0.4-0.5,0.4-0.8s-0.1-0.6-0.4-0.8l-5-4C25.4,5.1,25.2,5,25,5
	H2C1.4,5,1,5.4,1,6z"/>
<path d="M17,0h-6c-0.6,0-1,0.4-1,1v2h8V1C18,0.4,17.6,0,17,0z"/>
<path d="M17,32c0.6,0,1-0.4,1-1V17h-8v14c0,0.6,0.4,1,1,1H17z"/>
</svg>
