<?xml version="1.0" encoding="utf-8"?>
<!-- Generator: Adobe Illustrator 19.0.1, SVG Export Plug-In . SVG Version: 6.00 Build 0)  -->
<!DOCTYPE svg PUBLIC "-//W3C//DTD SVG 1.1//EN" "http://www.w3.org/Graphics/SVG/1.1/DTD/svg11.dtd">
<svg version="1.1" id="Layer_49" xmlns="http://www.w3.org/2000/svg" xmlns:xlink="http://www.w3.org/1999/xlink" x="0px" y="0px"
	 width="32px" height="32px" viewBox="0 0 32 32" enable-background="new 0 0 32 32" xml:space="preserve">
<path d="M31,0h-3c-0.6,0-1,0.4-1,1v26H1c-0.6,0-1,0.4-1,1s0.4,1,1,1h2v2c0,0.6,0.4,1,1,1s1-0.4,1-1v-2h19v2c0,0.6,0.4,1,1,1
	s1-0.4,1-1v-2h2c0.6,0,1-0.4,1-1V2h2c0.6,0,1-0.4,1-1S31.6,0,31,0z"/>
<path d="M25,5c0-0.6-0.4-1-1-1h-6V1c0-0.6-0.4-1-1-1H8C7.4,0,7,0.4,7,1v3H1C0.4,4,0,4.4,0,5v7h25V5z M16,4H9V2h7V4z"/>
<path d="M1,25h23c0.6,0,1-0.4,1-1V14h-9v3c0,0.6-0.4,1-1,1h-5c-0.6,0-1-0.4-1-1v-3H0v10C0,24.6,0.4,25,1,25z"/>
</svg>
