<?xml version="1.0" encoding="utf-8"?>
<!-- Generator: Adobe Illustrator 19.1.0, SVG Export Plug-In . SVG Version: 6.00 Build 0)  -->
<!DOCTYPE svg PUBLIC "-//W3C//DTD SVG 1.1//EN" "http://www.w3.org/Graphics/SVG/1.1/DTD/svg11.dtd">
<svg version="1.1" id="Layer_49" xmlns="http://www.w3.org/2000/svg" xmlns:xlink="http://www.w3.org/1999/xlink" x="0px" y="0px"
	 width="16px" height="16px" viewBox="0 0 16 16" enable-background="new 0 0 16 16" xml:space="preserve">
<path fill="#444444" d="M8,16c-4.4,0-8-3.6-8-8s3.6-8,8-8s8,3.6,8,8S12.4,16,8,16z M8,2C4.7,2,2,4.7,2,8s2.7,6,6,6s6-2.7,6-6
	S11.3,2,8,2z"/>
<path data-color="color-2" fill="#444444" d="M4.2,8c0.3-0.8,1.6-1,2.2-0.7C7,7.6,7.5,7.3,8.1,8c0.5,0.7,1,0.5,1.1,1.5s-1.3,2.8-1.6,3.3
	c-0.4,0.5-1.4-0.1-1.4-1.5S5.5,9.8,5.1,9.7C4.6,9.5,3.6,9.4,4.2,8z"/>
<path data-color="color-2" fill="#444444" d="M6.7,3.5c0,0-0.2,0.5,0.2,0.6c1,0.2,1.1,0.5,1.5,1c0.4,0.5-0.1,1-0.2,1.6
	C8.1,7.2,8.5,7.5,9.4,7.3c1.2-0.3,1.3,1,2,0.9c0.6-0.1,1.1,0.9,1.4,1C12.9,8.8,13,8.4,13,8c0-1.9-1.1-3.5-2.6-4.4
	C10,3.5,9.6,3.5,9.2,3.5C8.4,3.5,7.7,3,6.7,3.5z"/>
</svg>
