<?xml version="1.0" encoding="utf-8"?>
<!-- Generator: Adobe Illustrator 19.1.0, SVG Export Plug-In . SVG Version: 6.00 Build 0)  -->
<!DOCTYPE svg PUBLIC "-//W3C//DTD SVG 1.1//EN" "http://www.w3.org/Graphics/SVG/1.1/DTD/svg11.dtd">
<svg version="1.1" id="Layer_49" xmlns="http://www.w3.org/2000/svg" xmlns:xlink="http://www.w3.org/1999/xlink" x="0px" y="0px"
	 width="16px" height="16px" viewBox="0 0 16 16" enable-background="new 0 0 16 16" xml:space="preserve">
<circle data-color="color-2" fill="#444444" cx="14" cy="2" r="2"/>
<path fill="#444444" d="M12.8,5.4C12.6,5.1,12.3,5,12,5H4C3.7,5,3.4,5.1,3.2,5.4l-3,4C0.1,9.6,0,9.8,0,10v5c0,0.6,0.4,1,1,1h14
	c0.6,0,1-0.4,1-1v-5c0-0.2-0.1-0.4-0.2-0.6L12.8,5.4z M2,10.3l2-2.7l2,2.7V14H2V10.3z M14,14H8v-4c0-0.2-0.1-0.4-0.2-0.6L6,7h5.5
	l2.5,3.3V14z"/>
</svg>
