<?xml version="1.0" encoding="utf-8"?>
<!-- Generator: Adobe Illustrator 19.1.0, SVG Export Plug-In . SVG Version: 6.00 Build 0)  -->
<!DOCTYPE svg PUBLIC "-//W3C//DTD SVG 1.1//EN" "http://www.w3.org/Graphics/SVG/1.1/DTD/svg11.dtd">
<svg version="1.1" id="Layer_49" xmlns="http://www.w3.org/2000/svg" xmlns:xlink="http://www.w3.org/1999/xlink" x="0px" y="0px"
	 width="16px" height="16px" viewBox="0 0 16 16" enable-background="new 0 0 16 16" xml:space="preserve">
<path fill="#444444" d="M8,0C3.6,0,0,3.6,0,8v5c0,0.6,0.4,1,1,1h3v1c0,0.6,0.4,1,1,1h6c0.6,0,1-0.4,1-1v-1h3c0.6,0,1-0.4,1-1V8
	C16,3.6,12.4,0,8,0z M10,14H6v-3c0-1.1,0.9-2,2-2s2,0.9,2,2V14z"/>
</svg>
