<?xml version="1.0" encoding="utf-8"?>
<!-- Generator: Adobe Illustrator 19.1.0, SVG Export Plug-In . SVG Version: 6.00 Build 0)  -->
<!DOCTYPE svg PUBLIC "-//W3C//DTD SVG 1.1//EN" "http://www.w3.org/Graphics/SVG/1.1/DTD/svg11.dtd">
<svg version="1.1" id="Layer_49" xmlns="http://www.w3.org/2000/svg" xmlns:xlink="http://www.w3.org/1999/xlink" x="0px" y="0px"
	 width="16px" height="16px" viewBox="0 0 16 16" enable-background="new 0 0 16 16" xml:space="preserve">
<path fill="#444444" d="M14,9V6c0-1.7-1.3-3-3-3V1c0-0.6-0.4-1-1-1H6C5.4,0,5,0.4,5,1v2C3.3,3,2,4.3,2,6v3H0v7h16V9H14z M7,2h2v1H7
	V2z M4,6c0-0.6,0.4-1,1-1h6c0.6,0,1,0.4,1,1v3H9V8H7v1H4V6z M4,14v-3h3v1h2v-1h3v3H4z"/>
</svg>
