<?xml version="1.0" encoding="utf-8"?>
<!-- Generator: Adobe Illustrator 19.1.0, SVG Export Plug-In . SVG Version: 6.00 Build 0)  -->
<!DOCTYPE svg PUBLIC "-//W3C//DTD SVG 1.1//EN" "http://www.w3.org/Graphics/SVG/1.1/DTD/svg11.dtd">
<svg version="1.1" id="Layer_49" xmlns="http://www.w3.org/2000/svg" xmlns:xlink="http://www.w3.org/1999/xlink" x="0px" y="0px"
	 width="16px" height="16px" viewBox="0 0 16 16" enable-background="new 0 0 16 16" xml:space="preserve">
<path data-color="color-2" fill="#444444" d="M15,10c-0.6,0-1,0.4-1,1v1c0,0.6-0.4,1-1,1h-3v-2H6v2H1c-0.6,0-1,0.4-1,1s0.4,1,1,1h12
	c1.7,0,3-1.3,3-3v-1C16,10.4,15.6,10,15,10z"/>
<path fill="#444444" d="M0,1v3.5C0,6.4,1.6,8,3.5,8S7,6.4,7,4.5V4h2v0.5C9,6.4,10.6,8,12.5,8S16,6.4,16,4.5V1H0z"/>
</svg>
