<?xml version="1.0" encoding="utf-8"?>
<!-- Generator: Adobe Illustrator 19.1.0, SVG Export Plug-In . SVG Version: 6.00 Build 0)  -->
<!DOCTYPE svg PUBLIC "-//W3C//DTD SVG 1.1//EN" "http://www.w3.org/Graphics/SVG/1.1/DTD/svg11.dtd">
<svg version="1.1" id="Layer_49" xmlns="http://www.w3.org/2000/svg" xmlns:xlink="http://www.w3.org/1999/xlink" x="0px" y="0px"
	 width="16px" height="16px" viewBox="0 0 16 16" enable-background="new 0 0 16 16" xml:space="preserve">
<path fill="#444444" d="M2,8v5c0,0.6,0.4,1,1,1h1v2h3v-2h2v2h3v-2h1c0.6,0,1-0.4,1-1V8H2z"/>
<path data-color="color-2" fill="#444444" d="M14,6V4c0-0.6-0.4-1-1-1h-2V1c0-0.6-0.4-1-1-1H6C5.4,0,5,0.4,5,1v2H3C2.4,3,2,3.4,2,4v2H14z
	 M7,2h2v1H7V2z"/>
</svg>
