<?xml version="1.0" encoding="utf-8"?>
<!-- Generator: Adobe Illustrator 19.1.0, SVG Export Plug-In . SVG Version: 6.00 Build 0)  -->
<!DOCTYPE svg PUBLIC "-//W3C//DTD SVG 1.1//EN" "http://www.w3.org/Graphics/SVG/1.1/DTD/svg11.dtd">
<svg version="1.1" id="Layer_49" xmlns="http://www.w3.org/2000/svg" xmlns:xlink="http://www.w3.org/1999/xlink" x="0px" y="0px"
	 width="16px" height="16px" viewBox="0 0 16 16" enable-background="new 0 0 16 16" xml:space="preserve">
<path fill="#444444" d="M13.5,11h-11C1.1,11,0,12.1,0,13.5v0C0,14.9,1.1,16,2.5,16h11c1.4,0,2.5-1.1,2.5-2.5v0
	C16,12.1,14.9,11,13.5,11z"/>
<path data-color="color-2" fill="#444444" d="M2.5,9H5V6C3.9,6,3,5.1,3,4c0-1.1,0.9-2,2-2V0H0v9.8C0.7,9.3,1.6,9,2.5,9z"/>
<path data-color="color-2" fill="#444444" d="M13.5,9c0.9,0,1.8,0.3,2.5,0.8V0c-2.8,0-5,2.2-5,5v4H13.5z"/>
</svg>
