<?xml version="1.0" encoding="utf-8"?>
<!-- Generator: Adobe Illustrator 19.1.0, SVG Export Plug-In . SVG Version: 6.00 Build 0)  -->
<!DOCTYPE svg PUBLIC "-//W3C//DTD SVG 1.1//EN" "http://www.w3.org/Graphics/SVG/1.1/DTD/svg11.dtd">
<svg version="1.1" id="Layer_49" xmlns="http://www.w3.org/2000/svg" xmlns:xlink="http://www.w3.org/1999/xlink" x="0px" y="0px"
	 width="16px" height="16px" viewBox="0 0 16 16" enable-background="new 0 0 16 16" xml:space="preserve">
<path fill="#444444" d="M15,3h-4V1c0-0.6-0.4-1-1-1H6C5.4,0,5,0.4,5,1v2H1C0.4,3,0,3.4,0,4s0.4,1,1,1h1v7c0,1.1,0.9,2,2,2h2v2h4v-2
	h2c1.1,0,2-0.9,2-2V5h1c0.6,0,1-0.4,1-1S15.6,3,15,3z M7,2h2v1H7V2z M8,11c-0.7,0-2-0.6-2-2c0-1.1,2-3,2-3s2,1.9,2,3
	C10,10.4,8.7,11,8,11z"/>
</svg>
