<?xml version="1.0" encoding="utf-8"?>
<!-- Generator: Adobe Illustrator 19.1.0, SVG Export Plug-In . SVG Version: 6.00 Build 0)  -->
<!DOCTYPE svg PUBLIC "-//W3C//DTD SVG 1.1//EN" "http://www.w3.org/Graphics/SVG/1.1/DTD/svg11.dtd">
<svg version="1.1" id="Layer_49" xmlns="http://www.w3.org/2000/svg" xmlns:xlink="http://www.w3.org/1999/xlink" x="0px" y="0px"
	 width="16px" height="16px" viewBox="0 0 16 16" enable-background="new 0 0 16 16" xml:space="preserve">
<path data-color="color-2" fill="#444444" d="M9,10v5c0,0.6-0.4,1-1,1H6c-0.6,0-1-0.4-1-1v-5H9z"/>
<path fill="#444444" d="M13,2l3,3l-3,3H1C0.4,8,0,7.6,0,7l0-4c0-0.6,0.4-1,1-1H13z"/>
<path data-color="color-2" fill="#444444" d="M6,0l2,0c0.6,0,1,0.4,1,1v1H5V1C5,0.4,5.4,0,6,0z"/>
</svg>
