<?xml version="1.0" encoding="utf-8"?>
<!-- Generator: Adobe Illustrator 19.1.0, SVG Export Plug-In . SVG Version: 6.00 Build 0)  -->
<!DOCTYPE svg PUBLIC "-//W3C//DTD SVG 1.1//EN" "http://www.w3.org/Graphics/SVG/1.1/DTD/svg11.dtd">
<svg version="1.1" id="Layer_49" xmlns="http://www.w3.org/2000/svg" xmlns:xlink="http://www.w3.org/1999/xlink" x="0px" y="0px"
	 width="16px" height="16px" viewBox="0 0 16 16" enable-background="new 0 0 16 16" xml:space="preserve">
<path fill="#444444" d="M2.9,9.6C2.9,6.5,8,1.5,8,1.5s5.1,5,5.1,8.1c0,3.2-2.6,5-5.1,5C5.5,14.5,2.9,12.7,2.9,9.6z"/>
<path data-color="color-2" fill="#444444" d="M1.9,9.6c0-1.5,0.9-3.3,2.1-4.9C2.3,4,0.8,3.6,0.8,3.6s-1.7,6.1-0.3,8.4
	c0.9,1.5,2.3,2.2,3.7,2.2C2.9,13.2,1.9,11.6,1.9,9.6z"/>
<path data-color="color-2" fill="#444444" d="M15.2,3.6c0,0-1.5,0.4-3.1,1.1c1.1,1.6,2.1,3.4,2.1,4.9c0,2.1-0.9,3.7-2.3,4.7
	c1.4,0,2.8-0.7,3.7-2.2C16.8,9.7,15.2,3.6,15.2,3.6z"/>
</svg>
