<?xml version="1.0" encoding="utf-8"?>
<!-- Generator: Adobe Illustrator 20.0.0, SVG Export Plug-In . SVG Version: 6.00 Build 0)  -->
<!DOCTYPE svg PUBLIC "-//W3C//DTD SVG 1.1//EN" "http://www.w3.org/Graphics/SVG/1.1/DTD/svg11.dtd">
<svg version="1.1" id="Layer_1" xmlns="http://www.w3.org/2000/svg" xmlns:xlink="http://www.w3.org/1999/xlink" x="0px" y="0px"
	 width="24px" height="24px" viewBox="0 0 24 24" enable-background="new 0 0 24 24" xml:space="preserve">
<path d="M22.414,11.554l-2.747-1.474C20.495,9.116,21,7.867,21,6.5v-1C21,2.467,18.532,0,15.5,0S10,2.467,10,5.5v1
	c0,1.37,0.507,2.622,1.339,3.586l-0.204,0.109C10.235,8.872,8.718,8,7,8c-2.757,0-5,2.243-5,5v1c0,1.085,0.357,2.083,0.946,2.904
	l-1.288,0.649C0.636,18.064,0,19.092,0,20.236V24h13h1h10v-9.8C24,13.09,23.392,12.076,22.414,11.554z M12,5.5
	C12,3.57,13.57,2,15.5,2S19,3.57,19,5.5v1c0,1.93-1.57,3.5-3.5,3.5S12,8.43,12,6.5V5.5z M4,13c0-1.654,1.346-3,3-3s3,1.346,3,3v1
	c0,1.654-1.346,3-3,3s-3-1.346-3-3V13z M12,22H2v-1.764c0-0.381,0.212-0.724,0.556-0.896l1.998-1.007C5.28,18.746,6.107,19,7,19
	s1.72-0.254,2.446-0.666l2.001,1.008C11.788,19.512,12,19.855,12,20.236V22z M22,22h-8v-1.764c0-1.144-0.636-2.171-1.655-2.682
	l-1.291-0.65C11.643,16.083,12,15.085,12,14v-1c0-0.325-0.036-0.641-0.096-0.949l1.169-0.623C13.806,11.791,14.628,12,15.5,12
	c0.877,0,1.703-0.211,2.439-0.578l3.532,1.895C21.797,13.492,22,13.83,22,14.2V22z"/>
</svg>
