<?xml version="1.0" encoding="utf-8"?>
<!-- Generator: Adobe Illustrator 20.0.0, SVG Export Plug-In . SVG Version: 6.00 Build 0)  -->
<!DOCTYPE svg PUBLIC "-//W3C//DTD SVG 1.1//EN" "http://www.w3.org/Graphics/SVG/1.1/DTD/svg11.dtd">
<svg version="1.1" id="Layer_1" xmlns="http://www.w3.org/2000/svg" xmlns:xlink="http://www.w3.org/1999/xlink" x="0px" y="0px"
	 width="24px" height="24px" viewBox="0 0 24 24" enable-background="new 0 0 24 24" xml:space="preserve">
<path d="M0,19h8.198L12,23.562L15.802,19H24V0H0V19z M2,2h20v15h-7.135L12,20.438L9.135,17H2V2z"/>
<path d="M17,13c0-0.939-0.448-1.836-1.198-2.399l-1.29-0.971C14.818,9.16,15,8.602,15,8V7c0-1.654-1.346-3-3-3S9,5.346,9,7v1
	c0,0.602,0.182,1.16,0.488,1.63L8.199,10.6C7.448,11.164,7,12.061,7,13v2h10V13z M11,7c0-0.551,0.449-1,1-1s1,0.449,1,1v1
	c0,0.551-0.449,1-1,1s-1-0.449-1-1V7z M9,13c0-0.313,0.149-0.612,0.401-0.801l1.767-1.331C11.434,10.945,11.709,11,12,11
	c0.291,0,0.566-0.055,0.832-0.132L14.6,12.2c0.251,0.188,0.4,0.487,0.4,0.8H9z"/>
</svg>
