<?xml version="1.0" encoding="utf-8"?>
<!-- Generator: Adobe Illustrator 20.0.0, SVG Export Plug-In . SVG Version: 6.00 Build 0)  -->
<!DOCTYPE svg PUBLIC "-//W3C//DTD SVG 1.1//EN" "http://www.w3.org/Graphics/SVG/1.1/DTD/svg11.dtd">
<svg version="1.1" id="Layer_1" xmlns="http://www.w3.org/2000/svg" xmlns:xlink="http://www.w3.org/1999/xlink" x="0px" y="0px"
	 width="24px" height="24px" viewBox="0 0 24 24" enable-background="new 0 0 24 24" xml:space="preserve">
<path d="M11,21.836c0-0.923-0.407-1.775-1.116-2.337C9.023,18.815,7.563,18,5.5,18s-3.523,0.815-4.383,1.498
	C0.407,20.061,0,20.913,0,21.836V24h11V21.836z M9,22H2v-0.164c0-0.309,0.131-0.589,0.36-0.771C2.972,20.579,4.013,20,5.5,20
	s2.528,0.579,3.141,1.066C8.869,21.247,9,21.527,9,21.836V22z"/>
<path d="M5.199,12.03l0.98-0.199l-0.397-1.96l-0.98,0.198C3.178,10.399,2,11.842,2,13.5C2,15.43,3.57,17,5.5,17
	c1.095,0,2.142-0.523,2.8-1.399l0.6-0.8L7.301,13.6l-0.601,0.8C6.414,14.781,5.977,15,5.5,15C4.673,15,4,14.327,4,13.5
	C4,12.789,4.504,12.171,5.199,12.03z"/>
<path d="M18.5,17c1.93,0,3.5-1.57,3.5-3.5c0-1.658-1.178-3.101-2.801-3.431l-0.98-0.198l-0.397,1.96l0.98,0.199
	C19.496,12.171,20,12.789,20,13.5c0,0.827-0.673,1.5-1.5,1.5c-0.477,0-0.914-0.219-1.2-0.601l-0.601-0.8L15.1,14.801l0.6,0.8
	C16.358,16.477,17.405,17,18.5,17z"/>
<path d="M22.884,19.499C22.023,18.815,20.563,18,18.5,18s-3.523,0.815-4.383,1.498C13.407,20.061,13,20.913,13,21.836V24h11v-2.164
	C24,20.913,23.593,20.061,22.884,19.499z M22,22h-7v-0.164c0-0.309,0.131-0.589,0.36-0.771C15.972,20.579,17.013,20,18.5,20
	s2.528,0.579,3.141,1.066C21.869,21.247,22,21.527,22,21.836V22z"/>
<path d="M17,5h-2V3c0-1.654-1.346-3-3-3S9,1.346,9,3v2H7v7h10V5z M11,3c0-0.552,0.449-1,1-1s1,0.448,1,1v2h-2V3z M15,10H9V7h2h2h2
	V10z"/>
</svg>
