<?xml version="1.0" encoding="utf-8"?>
<!-- Generator: Adobe Illustrator 20.0.0, SVG Export Plug-In . SVG Version: 6.00 Build 0)  -->
<!DOCTYPE svg PUBLIC "-//W3C//DTD SVG 1.1//EN" "http://www.w3.org/Graphics/SVG/1.1/DTD/svg11.dtd">
<svg version="1.1" id="Layer_1" xmlns="http://www.w3.org/2000/svg" xmlns:xlink="http://www.w3.org/1999/xlink" x="0px" y="0px"
	 width="24px" height="24px" viewBox="0 0 24 24" enable-background="new 0 0 24 24" xml:space="preserve">
<path d="M9,20H2v-2.968c0-0.859,0.541-1.619,1.345-1.891C4.888,14.621,7.294,14,10,14c3.379,0,6-3.763,6-7V6c0-3.309-2.691-6-6-6
	S4,2.691,4,6v1c0,1.884,0.891,3.941,2.299,5.335c-1.42,0.248-2.657,0.594-3.594,0.911C1.087,13.792,0,15.313,0,17.032V22h9V20z M6,7
	V6c0-2.206,1.794-4,4-4s4,1.794,4,4v1c0,2.25-1.846,5-4,5S6,9.25,6,7z"/>
<path d="M19,11c-2.458,0-5,1.802-5,4.817c0,2.716,3.869,6.486,4.31,6.907L19,23.382l0.69-0.659c0.441-0.421,4.31-4.191,4.31-6.907
	C24,12.802,21.458,11,19,11z M19,20.58c-1.417-1.502-3-3.618-3-4.763C16,13.987,17.546,13,19,13s3,0.987,3,2.817
	C22,16.959,20.417,19.076,19,20.58z"/>
<circle cx="19" cy="16" r="1"/>
</svg>
