<?xml version="1.0" encoding="utf-8"?>
<!-- Generator: Adobe Illustrator 20.0.0, SVG Export Plug-In . SVG Version: 6.00 Build 0)  -->
<!DOCTYPE svg PUBLIC "-//W3C//DTD SVG 1.1//EN" "http://www.w3.org/Graphics/SVG/1.1/DTD/svg11.dtd">
<svg version="1.1" id="Layer_1" xmlns="http://www.w3.org/2000/svg" xmlns:xlink="http://www.w3.org/1999/xlink" x="0px" y="0px"
	 width="24px" height="24px" viewBox="0 0 24 24" enable-background="new 0 0 24 24" xml:space="preserve">
<path d="M9,3c0,1.654,1.346,3,3,3s3-1.346,3-3s-1.346-3-3-3S9,1.346,9,3z M12,2c0.552,0,1,0.448,1,1s-0.448,1-1,1s-1-0.448-1-1
	S11.448,2,12,2z"/>
<path d="M16,7H8c-1.654,0-3,1.346-3,3v6h2v-6c0-0.552,0.448-1,1-1v7v2v6h2v-6h4v6h2v-6v-2V9c0.552,0,1,0.448,1,1v6h2v-6
	C19,8.346,17.654,7,16,7z M14,16h-4V9h4V16z"/>
</svg>
