<?xml version="1.0" encoding="utf-8"?>
<!-- Generator: Adobe Illustrator 20.0.0, SVG Export Plug-In . SVG Version: 6.00 Build 0)  -->
<!DOCTYPE svg PUBLIC "-//W3C//DTD SVG 1.1//EN" "http://www.w3.org/Graphics/SVG/1.1/DTD/svg11.dtd">
<svg version="1.1" id="Layer_1" xmlns="http://www.w3.org/2000/svg" xmlns:xlink="http://www.w3.org/1999/xlink" x="0px" y="0px"
	 width="24px" height="24px" viewBox="0 0 24 24" enable-background="new 0 0 24 24" xml:space="preserve">
<circle cx="8.5" cy="12.5" r="1.5"/>
<circle cx="15.5" cy="12.5" r="1.5"/>
<path d="M12,0C5.383,0,0,5.383,0,12v9.535l0.445,0.297C0.578,21.92,3.792,24,12,24s11.422-2.08,11.555-2.168L24,21.535V12
	C24,5.383,18.617,0,12,0z M22,20.396C20.925,20.891,17.86,22,12,22c-5.866,0-8.932-1.112-10-1.603V12C2,6.486,6.486,2,12,2
	s10,4.486,10,10V20.396z"/>
<path d="M14.574,3.378l-0.57-0.17l-0.421,0.42c-2.438,2.428-5.658,3.954-9.066,4.295l-0.593,0.06l-0.23,0.55
	C3.233,9.635,3,10.801,3,12c0,4.962,4.038,9,9,9s9-4.038,9-9C21,8.052,18.358,4.506,14.574,3.378z M12,19c-3.86,0-7-3.14-7-7
	c0-0.741,0.114-1.465,0.341-2.161c3.426-0.475,6.652-2.003,9.2-4.359C17.192,6.517,19,9.121,19,12C19,15.86,15.86,19,12,19z"/>
</svg>
