<?xml version="1.0" encoding="utf-8"?>
<!-- Generator: Adobe Illustrator 20.0.0, SVG Export Plug-In . SVG Version: 6.00 Build 0)  -->
<!DOCTYPE svg PUBLIC "-//W3C//DTD SVG 1.1//EN" "http://www.w3.org/Graphics/SVG/1.1/DTD/svg11.dtd">
<svg version="1.1" id="Layer_1" xmlns="http://www.w3.org/2000/svg" xmlns:xlink="http://www.w3.org/1999/xlink" x="0px" y="0px"
	 width="24px" height="24px" viewBox="0 0 24 24" enable-background="new 0 0 24 24" xml:space="preserve">
<path d="M18,3h2.586l-2.402,2.402C17.015,4.526,15.57,4,14,4c-1.276,0-2.469,0.349-3.5,0.947C9.469,4.349,8.276,4,7,4
	c-3.86,0-7,3.14-7,7c0,3.519,2.613,6.432,6,6.92V20H4v2h2v2h2v-2h2v-2H8v-2.08c0.9-0.13,1.744-0.428,2.5-0.867
	C11.531,17.651,12.724,18,14,18c3.86,0,7-3.14,7-7c0-1.57-0.526-3.015-1.402-4.184L22,4.414V7h2V1h-6V3z M12,11
	c0,1.394-0.576,2.654-1.5,3.562C9.576,13.654,9,12.394,9,11s0.576-2.654,1.5-3.562C11.424,8.346,12,9.606,12,11z M2,11
	c0-2.757,2.243-5,5-5c0.631,0,1.23,0.13,1.787,0.345C7.68,7.583,7,9.212,7,11s0.68,3.417,1.787,4.655C8.23,15.87,7.631,16,7,16
	C4.243,16,2,13.757,2,11z M14,16c-0.631,0-1.23-0.13-1.787-0.345C13.32,14.417,14,12.788,14,11s-0.68-3.417-1.787-4.655
	C12.77,6.13,13.369,6,14,6c2.757,0,5,2.243,5,5S16.757,16,14,16z"/>
</svg>
