<?xml version="1.0" encoding="utf-8"?>
<!-- Generator: Adobe Illustrator 20.0.0, SVG Export Plug-In . SVG Version: 6.00 Build 0)  -->
<!DOCTYPE svg PUBLIC "-//W3C//DTD SVG 1.1//EN" "http://www.w3.org/Graphics/SVG/1.1/DTD/svg11.dtd">
<svg version="1.1" id="Layer_1" xmlns="http://www.w3.org/2000/svg" xmlns:xlink="http://www.w3.org/1999/xlink" x="0px" y="0px"
	 width="24px" height="24px" viewBox="0 0 24 24" enable-background="new 0 0 24 24" xml:space="preserve">
<path d="M12,5c-2.757,0-5,2.243-5,5v2c0,2.757,2.243,5,5,5s5-2.243,5-5v-2C17,7.243,14.757,5,12,5z M15,12c0,1.654-1.346,3-3,3
	s-3-1.346-3-3v-2c0-1.654,1.346-3,3-3s3,1.346,3,3V12z"/>
<path d="M12,0C5.383,0,0,5.383,0,12s5.383,12,12,12s12-5.383,12-12S18.617,0,12,0z M7.572,20.953C8.417,20.341,9.435,20,10.5,20h3
	c1.034,0,2.061,0.35,2.914,0.959C15.081,21.619,13.586,22,12,22C10.409,22,8.909,21.617,7.572,20.953z M18.2,19.831
	C16.907,18.662,15.241,18,13.5,18h-3c-1.757,0-3.424,0.66-4.706,1.827C3.487,17.993,2,15.169,2,12C2,6.486,6.486,2,12,2
	s10,4.486,10,10C22,15.172,20.511,17.998,18.2,19.831z"/>
</svg>
