<?xml version="1.0" encoding="utf-8"?>
<!-- Generator: Adobe Illustrator 20.0.0, SVG Export Plug-In . SVG Version: 6.00 Build 0)  -->
<!DOCTYPE svg PUBLIC "-//W3C//DTD SVG 1.1//EN" "http://www.w3.org/Graphics/SVG/1.1/DTD/svg11.dtd">
<svg version="1.1" id="Layer_1" xmlns="http://www.w3.org/2000/svg" xmlns:xlink="http://www.w3.org/1999/xlink" x="0px" y="0px"
	 width="24px" height="24px" viewBox="0 0 24 24" enable-background="new 0 0 24 24" xml:space="preserve">
<path d="M15,3c0-1.654-1.346-3-3-3S9,1.346,9,3s1.346,3,3,3S15,4.654,15,3z M11,3c0-0.551,0.449-1,1-1s1,0.449,1,1s-0.449,1-1,1
	S11,3.551,11,3z"/>
<path d="M21,5c-1.654,0-3,1.346-3,3s1.346,3,3,3s3-1.346,3-3S22.654,5,21,5z M21,9c-0.551,0-1-0.449-1-1s0.449-1,1-1s1,0.449,1,1
	S21.551,9,21,9z"/>
<path d="M3,11c1.654,0,3-1.346,3-3S4.654,5,3,5S0,6.346,0,8S1.346,11,3,11z M3,7c0.551,0,1,0.449,1,1S3.551,9,3,9S2,8.551,2,8
	S2.449,7,3,7z"/>
<path d="M17,14c0-2.757-2.243-5-5-5s-5,2.243-5,5v1c0,0.998,0.301,1.925,0.808,2.706l-1.989,0.855C4.714,19.035,4,20.117,4,21.319
	V24h16v-2.681c0-1.202-0.714-2.284-1.82-2.758l-1.99-0.85C16.698,16.929,17,16,17,15V14z M9,14c0-1.654,1.346-3,3-3s3,1.346,3,3v1
	c0,1.654-1.346,3-3,3s-3-1.346-3-3V14z M18,21.319V22H6v-0.681c0-0.4,0.238-0.761,0.607-0.92l2.739-1.178
	C10.117,19.708,11.023,20,12,20c0.974,0,1.876-0.291,2.645-0.774l2.748,1.174C17.762,20.558,18,20.918,18,21.319z"/>
</svg>
