<?xml version="1.0" encoding="utf-8"?>
<!-- Generator: Adobe Illustrator 20.0.0, SVG Export Plug-In . SVG Version: 6.00 Build 0)  -->
<!DOCTYPE svg PUBLIC "-//W3C//DTD SVG 1.1//EN" "http://www.w3.org/Graphics/SVG/1.1/DTD/svg11.dtd">
<svg version="1.1" id="Layer_1" xmlns="http://www.w3.org/2000/svg" xmlns:xlink="http://www.w3.org/1999/xlink" x="0px" y="0px"
	 width="24px" height="24px" viewBox="0 0 24 24" enable-background="new 0 0 24 24" xml:space="preserve">
<path d="M7,18h6v-2H7c-3.859,0-7,3.14-7,7v1h24v-2H2.101C2.565,19.721,4.585,18,7,18z"/>
<path d="M12,0C8.691,0,6,2.691,6,6v2c0,3.309,2.691,6,6,6s6-2.691,6-6V6C18,2.691,15.309,0,12,0z M16,8c0,2.206-1.794,4-4,4
	s-4-1.794-4-4V6c0-2.206,1.794-4,4-4s4,1.794,4,4V8z"/>
<rect x="16" y="15" width="8" height="2"/>
</svg>
