<?xml version="1.0" encoding="utf-8"?>
<!-- Generator: Adobe Illustrator 20.0.0, SVG Export Plug-In . SVG Version: 6.00 Build 0)  -->
<!DOCTYPE svg PUBLIC "-//W3C//DTD SVG 1.1//EN" "http://www.w3.org/Graphics/SVG/1.1/DTD/svg11.dtd">
<svg version="1.1" id="Layer_1" xmlns="http://www.w3.org/2000/svg" xmlns:xlink="http://www.w3.org/1999/xlink" x="0px" y="0px"
	 width="24px" height="24px" viewBox="0 0 24 24" enable-background="new 0 0 24 24" xml:space="preserve">
<path d="M3,17.031c0-0.859,0.541-1.619,1.345-1.891C5.887,14.62,8.292,14,11,14c3.379,0,6-3.763,6-7V6c0-3.309-2.691-6-6-6
	S5,2.691,5,6v1c0,1.884,0.891,3.941,2.299,5.335c-1.42,0.248-2.657,0.595-3.594,0.911C2.087,13.792,1,15.313,1,17.031V22h11v-2H3
	V17.031z M7,7V6c0-2.206,1.794-4,4-4s4,1.794,4,4v1c0,2.251-1.846,5-4,5S7,9.251,7,7z"/>
<polygon points="22,14.586 19,17.586 16,14.586 14.586,16 17.586,19 14.586,22 16,23.414 19,20.414 22,23.414 23.414,22 20.414,19 
	23.414,16 "/>
</svg>
