<?xml version="1.0" encoding="utf-8"?>
<!-- Generator: Adobe Illustrator 20.0.0, SVG Export Plug-In . SVG Version: 6.00 Build 0)  -->
<!DOCTYPE svg PUBLIC "-//W3C//DTD SVG 1.1//EN" "http://www.w3.org/Graphics/SVG/1.1/DTD/svg11.dtd">
<svg version="1.1" id="Layer_1" xmlns="http://www.w3.org/2000/svg" xmlns:xlink="http://www.w3.org/1999/xlink" x="0px" y="0px"
	 width="24px" height="24px" viewBox="0 0 24 24" enable-background="new 0 0 24 24" xml:space="preserve">
<path d="M0,24h4h2h12h2h4V0H0V24z M6,22c0-1.654,1.346-3,3-3h6c1.654,0,3,1.346,3,3H6z M2,2h20v20h-2c0-2.757-2.243-5-5-5H9
	c-2.757,0-5,2.243-5,5H2V2z"/>
<path d="M12,16c2.757,0,5-2.243,5-5V9c0-2.757-2.243-5-5-5S7,6.243,7,9v2C7,13.757,9.243,16,12,16z M9,9c0-1.654,1.346-3,3-3
	s3,1.346,3,3v2c0,1.654-1.346,3-3,3s-3-1.346-3-3V9z"/>
</svg>
