<?xml version="1.0" encoding="utf-8"?>
<!-- Generator: Adobe Illustrator 20.0.0, SVG Export Plug-In . SVG Version: 6.00 Build 0)  -->
<!DOCTYPE svg PUBLIC "-//W3C//DTD SVG 1.1//EN" "http://www.w3.org/Graphics/SVG/1.1/DTD/svg11.dtd">
<svg version="1.1" id="Layer_1" xmlns="http://www.w3.org/2000/svg" xmlns:xlink="http://www.w3.org/1999/xlink" x="0px" y="0px"
	 width="24px" height="24px" viewBox="0 0 24 24" enable-background="new 0 0 24 24" xml:space="preserve">
<path d="M22.293,0.293L20.5,2.086l-1.5-1.5L17.586,2l1.5,1.5l-0.902,0.902C17.015,3.526,15.57,3,14,3
	c-1.276,0-2.469,0.349-3.5,0.947C9.469,3.349,8.276,3,7,3c-3.859,0-7,3.14-7,7c0,3.519,2.614,6.432,6,6.92V19H4v2h2v2h2v-2h2v-2H8
	v-2.08c0.9-0.13,1.744-0.429,2.5-0.867C11.531,16.651,12.724,17,14,17c3.859,0,7-3.141,7-7c0-1.57-0.526-3.016-1.402-4.185
	L20.5,4.914l1.5,1.5L23.414,5l-1.5-1.5l1.793-1.793L22.293,0.293z M12,10c0,1.394-0.576,2.654-1.5,3.562C9.576,12.654,9,11.394,9,10
	s0.576-2.654,1.5-3.562C11.424,7.346,12,8.606,12,10z M2,10c0-2.757,2.243-5,5-5c0.631,0,1.23,0.13,1.787,0.345
	C7.68,6.583,7,8.212,7,10c0,1.788,0.68,3.417,1.787,4.655C8.23,14.87,7.632,15,7,15C4.243,15,2,12.757,2,10z M14,15
	c-0.632,0-1.23-0.13-1.787-0.345C13.32,13.417,14,11.788,14,10c0-1.788-0.68-3.417-1.787-4.655C12.77,5.13,13.369,5,14,5
	c2.757,0,5,2.243,5,5S16.757,15,14,15z"/>
</svg>
