<?xml version="1.0" encoding="utf-8"?>
<!-- Generator: Adobe Illustrator 20.0.0, SVG Export Plug-In . SVG Version: 6.00 Build 0)  -->
<!DOCTYPE svg PUBLIC "-//W3C//DTD SVG 1.1//EN" "http://www.w3.org/Graphics/SVG/1.1/DTD/svg11.dtd">
<svg version="1.1" id="Layer_1" xmlns="http://www.w3.org/2000/svg" xmlns:xlink="http://www.w3.org/1999/xlink" x="0px" y="0px"
	 width="24px" height="24px" viewBox="0 0 24 24" enable-background="new 0 0 24 24" xml:space="preserve">
<polygon points="20,18 20,8.414 22,10.414 23.414,9 19,4.586 14.586,9 16,10.414 18,8.414 18,18 "/>
<path d="M3,4c0,2.206,1.794,4,4,4s4-1.794,4-4S9.206,0,7,0S3,1.794,3,4z M9,4c0,1.103-0.897,2-2,2S5,5.103,5,4s0.897-2,2-2
	S9,2.897,9,4z"/>
<path d="M3,24h8v-5h2v-7c0-1.654-1.346-3-3-3H4c-1.654,0-3,1.346-3,3v7h2V24z M3,12c0-0.551,0.448-1,1-1h6c0.552,0,1,0.449,1,1v5H9
	v5H5v-5H3V12z"/>
</svg>
