<?xml version="1.0" encoding="utf-8"?>
<!-- Generator: Adobe Illustrator 20.0.0, SVG Export Plug-In . SVG Version: 6.00 Build 0)  -->
<!DOCTYPE svg PUBLIC "-//W3C//DTD SVG 1.1//EN" "http://www.w3.org/Graphics/SVG/1.1/DTD/svg11.dtd">
<svg version="1.1" id="Layer_1" xmlns="http://www.w3.org/2000/svg" xmlns:xlink="http://www.w3.org/1999/xlink" x="0px" y="0px"
	 width="24px" height="24px" viewBox="0 0 24 24" enable-background="new 0 0 24 24" xml:space="preserve">
<path d="M10,20H3v-2.968c0-0.859,0.541-1.619,1.345-1.891C5.888,14.621,8.294,14,11,14c3.379,0,6-3.763,6-7V6c0-3.309-2.691-6-6-6
	S5,2.691,5,6v1c0,1.884,0.891,3.941,2.299,5.335c-1.42,0.248-2.657,0.594-3.594,0.911C2.087,13.792,1,15.313,1,17.032V22h9V20z M7,7
	V6c0-2.206,1.794-4,4-4s4,1.794,4,4v1c0,2.25-1.846,5-4,5S7,9.25,7,7z"/>
<path d="M22,15c0-1.654-1.346-3-3-3s-3,1.346-3,3v2h-2v7h10v-7h-2V15z M18,15c0-0.551,0.449-1,1-1s1,0.449,1,1v2h-2V15z M22,22h-6
	v-3h2h2h2V22z"/>
</svg>
