<?xml version="1.0" encoding="utf-8"?>
<!-- Generator: Adobe Illustrator 20.0.0, SVG Export Plug-In . SVG Version: 6.00 Build 0)  -->
<!DOCTYPE svg PUBLIC "-//W3C//DTD SVG 1.1//EN" "http://www.w3.org/Graphics/SVG/1.1/DTD/svg11.dtd">
<svg version="1.1" id="Layer_1" xmlns="http://www.w3.org/2000/svg" xmlns:xlink="http://www.w3.org/1999/xlink" x="0px" y="0px"
	 width="24px" height="24px" viewBox="0 0 24 24" enable-background="new 0 0 24 24" xml:space="preserve">
<path d="M17,13c0-0.938-0.448-1.835-1.198-2.399l-1.29-0.971C14.818,9.16,15,8.602,15,8V7c0-1.654-1.346-3-3-3S9,5.346,9,7v1
	c0,0.602,0.182,1.16,0.488,1.63l-1.289,0.971C7.448,11.165,7,12.062,7,13v2h10V13z M11,7c0-0.551,0.448-1,1-1s1,0.449,1,1v1
	c0,0.551-0.448,1-1,1s-1-0.449-1-1V7z M9,13c0-0.313,0.149-0.612,0.401-0.801l1.767-1.331C11.434,10.945,11.709,11,12,11
	s0.566-0.055,0.832-0.132l1.768,1.331C14.851,12.388,15,12.687,15,13H9z"/>
<circle cx="12" cy="19" r="1"/>
<path d="M6,24h12c1.654,0,3-1.346,3-3V3c0-1.654-1.346-3-3-3H6C4.346,0,3,1.346,3,3v18C3,22.654,4.346,24,6,24z M5,3
	c0-0.551,0.448-1,1-1h12c0.552,0,1,0.449,1,1v18c0,0.551-0.448,1-1,1H6c-0.552,0-1-0.449-1-1V3z"/>
</svg>
