<?xml version="1.0" encoding="utf-8"?>
<!-- Generator: Adobe Illustrator 20.0.0, SVG Export Plug-In . SVG Version: 6.00 Build 0)  -->
<!DOCTYPE svg PUBLIC "-//W3C//DTD SVG 1.1//EN" "http://www.w3.org/Graphics/SVG/1.1/DTD/svg11.dtd">
<svg version="1.1" id="Layer_1" xmlns="http://www.w3.org/2000/svg" xmlns:xlink="http://www.w3.org/1999/xlink" x="0px" y="0px"
	 width="24px" height="24px" viewBox="0 0 24 24" enable-background="new 0 0 24 24" xml:space="preserve">
<path d="M0,24h24V0H0V24z M15,12c0,1.654-1.346,3-3,3s-3-1.346-3-3v-2c0-1.654,1.346-3,3-3s3,1.346,3,3V12z M9.834,16.486
	C10.492,16.805,11.221,17,12,17s1.508-0.195,2.166-0.514l3.451,2.701C17.86,19.377,18,19.665,18,19.974V22H6v-2.026
	c0-0.31,0.14-0.597,0.383-0.787L9.834,16.486z M2,2h20v20h-2v-2.026c0-0.929-0.419-1.79-1.151-2.362l-3.056-2.392
	C16.535,14.347,17,13.232,17,12v-2c0-2.757-2.243-5-5-5s-5,2.243-5,5v2c0,1.232,0.465,2.347,1.207,3.22l-3.056,2.392
	C4.419,18.184,4,19.045,4,19.974V22H2V2z"/>
</svg>
