<?xml version="1.0" encoding="utf-8"?>
<!-- Generator: Adobe Illustrator 20.0.0, SVG Export Plug-In . SVG Version: 6.00 Build 0)  -->
<!DOCTYPE svg PUBLIC "-//W3C//DTD SVG 1.1//EN" "http://www.w3.org/Graphics/SVG/1.1/DTD/svg11.dtd">
<svg version="1.1" id="Layer_1" xmlns="http://www.w3.org/2000/svg" xmlns:xlink="http://www.w3.org/1999/xlink" x="0px" y="0px"
	 width="24px" height="24px" viewBox="0 0 24 24" enable-background="new 0 0 24 24" xml:space="preserve">
<path d="M10,5v2c0,2.757,2.243,5,5,5s5-2.243,5-5V5c0-2.757-2.243-5-5-5S10,2.243,10,5z M12,5c0-1.654,1.346-3,3-3s3,1.346,3,3v2
	c0,1.654-1.346,3-3,3s-3-1.346-3-3V5z"/>
<path d="M21.423,15.145C20.042,14.622,17.806,14,15,14s-5.042,0.622-6.424,1.146C7.035,15.729,6,17.233,6,18.886V24h18v-5.114
	C24,17.233,22.965,15.729,21.423,15.145z M22,22H8v-3.114c0-0.84,0.504-1.574,1.284-1.87C10.51,16.552,12.496,16,15,16
	s4.49,0.552,5.714,1.015C21.496,17.312,22,18.046,22,18.886V22z"/>
<rect y="3" width="8" height="2"/>
<rect y="8" width="8" height="2"/>
<rect y="13" width="5" height="2"/>
</svg>
