<?xml version="1.0" encoding="utf-8"?>
<!-- Generator: Adobe Illustrator 20.0.0, SVG Export Plug-In . SVG Version: 6.00 Build 0)  -->
<!DOCTYPE svg PUBLIC "-//W3C//DTD SVG 1.1//EN" "http://www.w3.org/Graphics/SVG/1.1/DTD/svg11.dtd">
<svg version="1.1" id="Layer_1" xmlns="http://www.w3.org/2000/svg" xmlns:xlink="http://www.w3.org/1999/xlink" x="0px" y="0px"
	 width="24px" height="24px" viewBox="0 0 24 24" enable-background="new 0 0 24 24" xml:space="preserve">
<path d="M21.739,17.646c-1.847-0.471-4.801-1.223-5.412-1.371c-0.441-0.107-0.684-0.271-0.82-0.429
	c2.293-0.251,3.723-0.84,5.152-2.095l0.864-0.758l-0.871-0.75C18.893,10.725,18,8.625,18,6c0-3.306-2.691-5.997-6-5.997
	C8.691,0.003,6,2.694,6,6c0,2.625-0.893,4.725-2.653,6.243l-0.871,0.75l0.864,0.758c1.429,1.254,2.858,1.843,5.152,2.095
	c-0.136,0.158-0.378,0.322-0.82,0.429c-0.611,0.148-3.565,0.9-5.412,1.371c-1.331,0.339-2.258,1.535-2.255,2.908L0.008,23l0,1
	h23.984l0-1l0.002-2.446C23.997,19.181,23.07,17.985,21.739,17.646z M21.993,22H2.007l-0.001-1.451
	c-0.001-0.456,0.307-0.853,0.749-0.965c1.839-0.469,4.781-1.218,5.389-1.366c1.398-0.339,2.285-1.204,2.5-2.433
	c0.076-0.436-0.037-0.888-0.309-1.241C10.05,14.175,9.617,13.94,9.148,13.9c-1.756-0.15-2.796-0.484-3.622-0.999
	C7.149,11.094,8,8.732,8,6c0-2.204,1.794-3.997,4-3.997c2.206,0,4,1.793,4,3.997c0,2.732,0.851,5.094,2.474,6.902
	c-0.826,0.514-1.866,0.849-3.622,0.999c-0.469,0.04-0.902,0.275-1.187,0.644c-0.272,0.354-0.385,0.806-0.309,1.241
	c0.214,1.23,1.102,2.094,2.5,2.434c0.608,0.148,3.55,0.897,5.389,1.366c0.442,0.112,0.75,0.509,0.749,0.964L21.993,22z"/>
</svg>
