<?xml version="1.0" encoding="utf-8"?>
<!-- Generator: Adobe Illustrator 20.0.0, SVG Export Plug-In . SVG Version: 6.00 Build 0)  -->
<!DOCTYPE svg PUBLIC "-//W3C//DTD SVG 1.1//EN" "http://www.w3.org/Graphics/SVG/1.1/DTD/svg11.dtd">
<svg version="1.1" id="Layer_1" xmlns="http://www.w3.org/2000/svg" xmlns:xlink="http://www.w3.org/1999/xlink" x="0px" y="0px"
	 width="24px" height="24px" viewBox="0 0 24 24" enable-background="new 0 0 24 24" xml:space="preserve">
<path d="M22.568,8.53l-1.974-1.185C20.85,6.781,21,6.159,21,5.5v-1C21,2.019,18.981,0,16.5,0c-1.435,0-2.736,0.67-3.572,1.768
	C12.061,1.281,11.063,1,10,1C6.691,1,4,3.691,4,7v2c0,1.386,0.477,2.66,1.269,3.677l-3.473,2.08C0.688,15.422,0,16.637,0,17.929V23
	h20v-5.071c0-0.69-0.201-1.354-0.553-1.929H24v-4.94C24,10.029,23.451,9.06,22.568,8.53z M16.5,2C17.879,2,19,3.122,19,4.5v1
	C19,6.878,17.879,8,16.5,8c-0.175,0-0.339-0.021-0.5-0.054V7c0-1.525-0.576-2.914-1.516-3.974C14.946,2.391,15.684,2,16.5,2z M6,7
	c0-2.206,1.794-4,4-4s4,1.794,4,4v2c0,2.206-1.794,4-4,4s-4-1.794-4-4V7z M18,21H2v-3.071c0-0.593,0.316-1.152,0.824-1.458
	l3.996-2.393C7.743,14.659,8.831,15,10,15c1.169,0,2.257-0.341,3.18-0.921l3.995,2.392C17.684,16.776,18,17.335,18,17.929V21z
	 M22,14h-5.058l-2.21-1.323c0.605-0.777,1.021-1.704,1.185-2.717C16.107,9.984,16.301,10,16.5,10c1.094,0,2.085-0.408,2.865-1.059
	l2.174,1.304C21.823,10.416,22,10.728,22,11.06V14z"/>
</svg>
