<?xml version="1.0" encoding="utf-8"?>
<!-- Generator: Adobe Illustrator 20.0.0, SVG Export Plug-In . SVG Version: 6.00 Build 0)  -->
<!DOCTYPE svg PUBLIC "-//W3C//DTD SVG 1.1//EN" "http://www.w3.org/Graphics/SVG/1.1/DTD/svg11.dtd">
<svg version="1.1" id="Layer_1" xmlns="http://www.w3.org/2000/svg" xmlns:xlink="http://www.w3.org/1999/xlink" x="0px" y="0px"
	 width="24px" height="24px" viewBox="0 0 24 24" enable-background="new 0 0 24 24" xml:space="preserve">
<path d="M14.802,11.601l-1.29-0.971C13.818,10.16,14,9.602,14,9V8c0-1.654-1.346-3-3-3S8,6.346,8,8v1c0,0.602,0.182,1.16,0.488,1.63
	l-1.289,0.971C6.448,12.165,6,13.062,6,14v2h10v-2C16,13.061,15.552,12.164,14.802,11.601z M10,8c0-0.551,0.448-1,1-1s1,0.449,1,1v1
	c0,0.551-0.448,1-1,1s-1-0.449-1-1V8z M8,14c0-0.313,0.149-0.612,0.401-0.801l1.767-1.331C10.434,11.945,10.709,12,11,12
	s0.566-0.055,0.832-0.132l1.769,1.332C13.851,13.388,14,13.687,14,14H8z"/>
<path d="M22,11c0-6.065-4.935-11-11-11S0,4.935,0,11s4.935,11,11,11c2.673,0,5.125-0.961,7.034-2.552l4.259,4.259l1.414-1.414
	l-4.259-4.259C21.039,16.125,22,13.673,22,11z M11,20c-4.963,0-9-4.038-9-9s4.037-9,9-9s9,4.038,9,9S15.963,20,11,20z"/>
</svg>
