<?xml version="1.0" encoding="utf-8"?>
<!-- Generator: Adobe Illustrator 20.0.0, SVG Export Plug-In . SVG Version: 6.00 Build 0)  -->
<!DOCTYPE svg PUBLIC "-//W3C//DTD SVG 1.1//EN" "http://www.w3.org/Graphics/SVG/1.1/DTD/svg11.dtd">
<svg version="1.1" id="Layer_1" xmlns="http://www.w3.org/2000/svg" xmlns:xlink="http://www.w3.org/1999/xlink" x="0px" y="0px"
	 width="24px" height="24px" viewBox="0 0 24 24" enable-background="new 0 0 24 24" xml:space="preserve">
<path d="M20,7V5c0-2.757-2.243-5-5-5s-5,2.243-5,5v2c0,2.757,2.243,5,5,5S20,9.757,20,7z M12,7V5c0-1.654,1.346-3,3-3s3,1.346,3,3v2
	c0,1.654-1.346,3-3,3S12,8.654,12,7z"/>
<polygon points="8,11 8,9 5,9 5,6 3,6 3,9 0,9 0,11 3,11 3,14 5,14 5,11 "/>
<path d="M21.424,15.146C20.044,14.623,17.811,14,15,14s-5.044,0.623-6.424,1.146C7.035,15.729,6,17.232,6,18.886V24h18v-5.114
	C24,17.232,22.965,15.729,21.424,15.146z M22,22H8v-3.114c0-0.84,0.504-1.575,1.285-1.87C10.508,16.552,12.492,16,15,16
	s4.492,0.552,5.715,1.016c0.781,0.295,1.285,1.03,1.285,1.87V22z"/>
</svg>
