<?xml version="1.0" encoding="utf-8"?>
<!-- Generator: Adobe Illustrator 20.0.0, SVG Export Plug-In . SVG Version: 6.00 Build 0)  -->
<!DOCTYPE svg PUBLIC "-//W3C//DTD SVG 1.1//EN" "http://www.w3.org/Graphics/SVG/1.1/DTD/svg11.dtd">
<svg version="1.1" id="Layer_1" xmlns="http://www.w3.org/2000/svg" xmlns:xlink="http://www.w3.org/1999/xlink" x="0px" y="0px"
	 width="24px" height="24px" viewBox="0 0 24 24" enable-background="new 0 0 24 24" xml:space="preserve">
<path d="M12,24c5.298,0,11-1.252,11-4c0-2.069-3.157-3.227-6.693-3.715L18,15.721V11c0-1.654-1.346-3-3-3h-3H9c-1.654,0-3,1.346-3,3
	v4.721l1.693,0.564C4.157,16.773,1,17.931,1,20C1,22.748,6.702,24,12,24z M8,11c0-0.551,0.448-1,1-1h6c0.552,0,1,0.449,1,1v3.279
	l-3,1V19h-2v-3.721l-3-1V11z M9,18.144V21h6v-2.856c3.994,0.389,5.886,1.448,6.002,1.841C20.849,20.54,17.85,22,12,22
	s-8.849-1.46-9.002-1.985C3.114,19.594,5.006,18.533,9,18.144z"/>
<path d="M16,4c0-2.206-1.794-4-4-4S8,1.794,8,4s1.794,4,4,4S16,6.206,16,4z M12,6c-1.103,0-2-0.897-2-2s0.897-2,2-2s2,0.897,2,2
	S13.103,6,12,6z"/>
</svg>
