<?xml version="1.0" encoding="utf-8"?>
<!-- Generator: Adobe Illustrator 20.0.0, SVG Export Plug-In . SVG Version: 6.00 Build 0)  -->
<!DOCTYPE svg PUBLIC "-//W3C//DTD SVG 1.1//EN" "http://www.w3.org/Graphics/SVG/1.1/DTD/svg11.dtd">
<svg version="1.1" id="Layer_1" xmlns="http://www.w3.org/2000/svg" xmlns:xlink="http://www.w3.org/1999/xlink" x="0px" y="0px"
	 width="24px" height="24px" viewBox="0 0 24 24" enable-background="new 0 0 24 24" xml:space="preserve">
<path d="M23,9V1h-8v2h4.586l-3.975,3.975C14.071,5.742,12.122,5,10,5c-4.963,0-9,4.038-9,9s4.037,9,9,9s9-4.038,9-9
	c0-2.122-0.742-4.07-1.975-5.611L21,4.414V9H23z M10,21c-3.859,0-7-3.14-7-7s3.141-7,7-7s7,3.14,7,7S13.859,21,10,21z"/>
</svg>
