<?xml version="1.0" encoding="utf-8"?>
<!-- Generator: Adobe Illustrator 20.0.0, SVG Export Plug-In . SVG Version: 6.00 Build 0)  -->
<!DOCTYPE svg PUBLIC "-//W3C//DTD SVG 1.1//EN" "http://www.w3.org/Graphics/SVG/1.1/DTD/svg11.dtd">
<svg version="1.1" id="Layer_1" xmlns="http://www.w3.org/2000/svg" xmlns:xlink="http://www.w3.org/1999/xlink" x="0px" y="0px"
	 width="24px" height="24px" viewBox="0 0 24 24" enable-background="new 0 0 24 24" xml:space="preserve">
<path d="M12-0.044l-11.335,3.4L3,9.193V12v2v1c0,4.963,4.037,9,9,9s9-4.037,9-9v-1v-2V9.193l2.335-5.836L12-0.044z M12,2.044
	l8.665,2.6L19.323,8H4.677L3.335,4.644L12,2.044z M19,15c0,3.859-3.141,7-7,7s-7-3.141-7-7v-1h14V15z M5,12v-2h14v2H5z"/>
</svg>
