<?xml version="1.0" encoding="utf-8"?>
<!-- Generator: Adobe Illustrator 19.1.0, SVG Export Plug-In . SVG Version: 6.00 Build 0)  -->
<!DOCTYPE svg PUBLIC "-//W3C//DTD SVG 1.1//EN" "http://www.w3.org/Graphics/SVG/1.1/DTD/svg11.dtd">
<svg version="1.1" id="Layer_2" xmlns="http://www.w3.org/2000/svg" xmlns:xlink="http://www.w3.org/1999/xlink" x="0px" y="0px"
	 width="24px" height="24px" viewBox="0 0 24 24" enable-background="new 0 0 24 24" xml:space="preserve">
<path id="color" d="M24,12c0-4.1-2.1-7.8-5.3-10c-0.2,0-0.4,0-0.7,0C12.5,2,8,6.5,8,12s4.5,10,10,10c0.2,0,0.5,0,0.7,0
	C21.9,19.8,24,16.1,24,12z"/>
<path d="M6,12C6,6.4,9.8,1.7,15,0.4C14,0.1,13,0,12,0C5.4,0,0,5.4,0,12s5.4,12,12,12c1,0,2-0.1,3-0.4C9.8,22.3,6,17.6,6,12z"/>
</svg>
