<?xml version="1.0" encoding="utf-8"?>
<!-- Generator: Adobe Illustrator 19.1.0, SVG Export Plug-In . SVG Version: 6.00 Build 0)  -->
<!DOCTYPE svg PUBLIC "-//W3C//DTD SVG 1.1//EN" "http://www.w3.org/Graphics/SVG/1.1/DTD/svg11.dtd">
<svg version="1.1" id="Layer_2" xmlns="http://www.w3.org/2000/svg" xmlns:xlink="http://www.w3.org/1999/xlink" x="0px" y="0px"
	 width="24px" height="24px" viewBox="0 0 24 24" enable-background="new 0 0 24 24" xml:space="preserve">
<path d="M21.4,13.7C20.6,13.9,19.8,14,19,14c-5,0-9-4-9-9c0-0.8,0.1-1.6,0.3-2.4c0.1-0.3,0-0.7-0.3-1c-0.3-0.3-0.6-0.4-1-0.3
	C4.3,2.7,1,7.1,1,12c0,6.1,4.9,11,11,11c4.9,0,9.3-3.3,10.6-8.1c0.1-0.3,0-0.7-0.3-1C22.1,13.7,21.7,13.6,21.4,13.7z"/>
</svg>
