<?xml version="1.0" encoding="utf-8"?>
<!-- Generator: Adobe Illustrator 19.1.0, SVG Export Plug-In . SVG Version: 6.00 Build 0)  -->
<!DOCTYPE svg PUBLIC "-//W3C//DTD SVG 1.1//EN" "http://www.w3.org/Graphics/SVG/1.1/DTD/svg11.dtd">
<svg version="1.1" id="Layer_2" xmlns="http://www.w3.org/2000/svg" xmlns:xlink="http://www.w3.org/1999/xlink" x="0px" y="0px"
	 width="24px" height="24px" viewBox="0 0 24 24" enable-background="new 0 0 24 24" xml:space="preserve">
<path d="M11.3,8.3C10.8,8.8,6,13.7,6,17c0,3.7,3.1,6,6,6s6-2.2,6-6c0-3.4-4.8-8.2-5.3-8.8C12.3,7.9,11.7,7.9,11.3,8.3z"/>
<path d="M20.7,1.3c-0.4-0.4-1.1-0.4-1.4,0C18.7,1.9,16,4.8,16,7c0,2.5,2,4,4,4s4-1.5,4-4C24,4.8,21.3,1.9,20.7,1.3z"/>
<path d="M8,7c0-2.2-2.7-5.1-3.3-5.6c-0.4-0.4-1.1-0.4-1.4,0C2.7,1.9,0,4.8,0,7c0,2.5,2,4,4,4S8,9.5,8,7z"/>
</svg>
