<?xml version="1.0" encoding="utf-8"?>
<!-- Generator: Adobe Illustrator 19.1.0, SVG Export Plug-In . SVG Version: 6.00 Build 0)  -->
<!DOCTYPE svg PUBLIC "-//W3C//DTD SVG 1.1//EN" "http://www.w3.org/Graphics/SVG/1.1/DTD/svg11.dtd">
<svg version="1.1" id="Layer_2" xmlns="http://www.w3.org/2000/svg" xmlns:xlink="http://www.w3.org/1999/xlink" x="0px" y="0px"
	 width="24px" height="24px" viewBox="0 0 24 24" enable-background="new 0 0 24 24" xml:space="preserve">
<path d="M12,24c-0.6,0-1-0.4-1-1v-3c0-0.6,0.4-1,1-1s1,0.4,1,1v3C13,23.6,12.6,24,12,24z"/>
<path d="M19.9,7.1C19.2,3,15.7,0,11.5,0C7.3,0,3.6,3.2,3.1,7.4C1.3,8.1,0,9.9,0,12c0,2.8,2.2,5,5,5h2v-3c0-0.6,0.4-1,1-1s1,0.4,1,1
	v3h6v-3c0-0.6,0.4-1,1-1s1,0.4,1,1v3h2c2.8,0,5-2.2,5-5C24,9.5,22.2,7.5,19.9,7.1z"/>
<path d="M7,17v3c0,0.6,0.4,1,1,1s1-0.4,1-1v-3H7z"/>
<path d="M15,17v3c0,0.6,0.4,1,1,1s1-0.4,1-1v-3H15z"/>
</svg>
