<?xml version="1.0" encoding="utf-8"?>
<!-- Generator: Adobe Illustrator 19.0.1, SVG Export Plug-In . SVG Version: 6.00 Build 0)  -->
<!DOCTYPE svg PUBLIC "-//W3C//DTD SVG 1.1//EN" "http://www.w3.org/Graphics/SVG/1.1/DTD/svg11.dtd">
<svg version="1.1" id="Layer_1" xmlns="http://www.w3.org/2000/svg" xmlns:xlink="http://www.w3.org/1999/xlink" x="0px" y="0px"
	 width="32px" height="32px" viewBox="0 0 32 32" enable-background="new 0 0 32 32" xml:space="preserve">
<path d="M25.1,10.6c0.5,0,0.9,0,1.2-0.1c0.8-0.1,3-0.5,4.2-1.8c1.7-1.7,1.3-4-1-6.3c-2.2-2.2-4.6-2.6-6.3-1
	c-1.6,1.6-2.3,5.3-1.5,7.4L19,11.5l-2.2-2.2C16.6,9.1,16.4,9,16.1,9s-0.5,0.1-0.7,0.3l-2.2,2.2L12,10.3l-1-1c-0.4-0.4-1-0.4-1.4,0
	l-3.9,3.9c-0.4,0.4-0.4,1,0,1.4l3,3c-1.1,0.1-2.2,0.6-3,1.4c-1.8,1.8-2,4.5-0.6,6.5l-4.2,4.2c-0.4,0.4-0.4,1,0,1.4
	c0.2,0.2,0.5,0.3,0.7,0.3s0.5-0.1,0.7-0.3L6.4,27c0.8,0.6,1.8,0.9,2.9,0.9c1.4,0,2.7-0.5,3.6-1.5c0.8-0.8,1.3-1.9,1.4-3l3,3
	c0.2,0.2,0.5,0.3,0.7,0.3s0.5-0.1,0.7-0.3l3.9-3.9c0.4-0.4,0.4-1,0-1.4l-2.2-2.2l2.2-2.2c0.4-0.4,0.4-1,0-1.4l-2.2-2.2l2.7-2.7
	C23.7,10.5,24.5,10.6,25.1,10.6z M24.6,2.9c0.3-0.3,0.6-0.4,1-0.4c1,0,2.1,1,2.5,1.4c1.5,1.5,1.8,2.6,1,3.5c-1.3,1.3-4.9,1.5-5.4,1
	C23.2,7.8,23.3,4.3,24.6,2.9z"/>
</svg>
