<?xml version="1.0" encoding="utf-8"?>
<!-- Generator: Adobe Illustrator 19.0.1, SVG Export Plug-In . SVG Version: 6.00 Build 0)  -->
<!DOCTYPE svg PUBLIC "-//W3C//DTD SVG 1.1//EN" "http://www.w3.org/Graphics/SVG/1.1/DTD/svg11.dtd">
<svg version="1.1" id="Layer_1" xmlns="http://www.w3.org/2000/svg" xmlns:xlink="http://www.w3.org/1999/xlink" x="0px" y="0px"
	 width="32px" height="32px" viewBox="0 0 32 32" enable-background="new 0 0 32 32" xml:space="preserve">
<path d="M24,0c-2.1,0-4.2,0.8-5.7,2.4L2.4,18.3C0.8,19.8,0,21.8,0,24c0,2.1,0.8,4.2,2.4,5.7C3.9,31.2,5.9,32,8,32
	c2.1,0,4.2-0.8,5.7-2.4l15.9-15.9C31.2,12.2,32,10.2,32,8c0-2.1-0.8-4.2-2.4-5.7C28.1,0.8,26.1,0,24,0z M11.3,25.9
	c-0.1,0-0.2,0.1-0.3,0.1c-0.4,0-0.8-0.3-0.9-0.7l-2-6c-0.2-0.5,0.1-1.1,0.6-1.3c0.5-0.2,1.1,0.1,1.3,0.6l2,6
	C12.1,25.2,11.9,25.7,11.3,25.9z M17.3,19.9C17.2,20,17.1,20,17,20c-0.4,0-0.8-0.3-0.9-0.7l-2-6c-0.2-0.5,0.1-1.1,0.6-1.3
	c0.5-0.2,1.1,0.1,1.3,0.6l2,6C18.1,19.2,17.8,19.8,17.3,19.9z M23.3,14C23.2,14,23.1,14,23,14c-0.4,0-0.8-0.3-0.9-0.7l-2-6
	c-0.2-0.5,0.1-1.1,0.6-1.3c0.5-0.2,1.1,0.1,1.3,0.6l2,6C24.1,13.2,23.8,13.8,23.3,14z"/>
</svg>
