<?xml version="1.0" encoding="utf-8"?>
<!-- Generator: Adobe Illustrator 19.0.1, SVG Export Plug-In . SVG Version: 6.00 Build 0)  -->
<!DOCTYPE svg PUBLIC "-//W3C//DTD SVG 1.1//EN" "http://www.w3.org/Graphics/SVG/1.1/DTD/svg11.dtd">
<svg version="1.1" id="Layer_1" xmlns="http://www.w3.org/2000/svg" xmlns:xlink="http://www.w3.org/1999/xlink" x="0px" y="0px"
	 width="32px" height="32px" viewBox="0 0 32 32" enable-background="new 0 0 32 32" xml:space="preserve">
<path d="M7.2,22.3l9.1-8.2L5,13.8c-0.1,0.5-0.1,1-0.1,1.5C4.9,18,5.8,20.4,7.2,22.3z"/>
<path d="M0.8,15.4c0,8.9,7.2,16.1,16.1,16.1c5.9,0,11.3-3.2,14.1-8.3c0.2-0.4,0.2-0.8-0.1-1.2L11.6,0.8c-0.3-0.3-0.7-0.4-1.1-0.2
	C4.6,3.2,0.8,9,0.8,15.4z M10.6,2.7l1.5,1.7c-3.2,1.4-5.6,4.2-6.7,7.5l13.3,0.4c0,0,0,0,0,0c0.1,0,0.1,0,0.2,0c0.1,0,0.1,0,0.2,0
	c0.1,0,0.1,0.1,0.2,0.1c0,0,0.1,0.1,0.1,0.1c0,0,0,0,0.1,0c0,0,0.1,0.1,0.1,0.2c0,0,0.1,0.1,0.1,0.1c0,0,0,0,0,0c0,0.1,0,0.1,0,0.2
	c0,0,0,0.1,0,0.1l0.7,13.7c3-0.9,5.5-2.9,7-5.7l1.5,1.7c-2.6,4.1-7.1,6.7-12,6.7c-7.8,0-14.1-6.3-14.1-14.1C2.8,10,5.8,5.1,10.6,2.7
	z"/>
<path d="M16.9,27.4c0.5,0,1,0,1.5-0.1l-0.6-11.9l-9.4,8.5C10.6,26,13.6,27.4,16.9,27.4z"/>
</svg>
