<?xml version="1.0" encoding="utf-8"?>
<!-- Generator: Adobe Illustrator 19.0.1, SVG Export Plug-In . SVG Version: 6.00 Build 0)  -->
<!DOCTYPE svg PUBLIC "-//W3C//DTD SVG 1.1//EN" "http://www.w3.org/Graphics/SVG/1.1/DTD/svg11.dtd">
<svg version="1.1" id="Layer_1" xmlns="http://www.w3.org/2000/svg" xmlns:xlink="http://www.w3.org/1999/xlink" x="0px" y="0px"
	 width="32px" height="32px" viewBox="0 0 32 32" enable-background="new 0 0 32 32" xml:space="preserve">
<path d="M30,12V8c0-0.6-0.4-1-1-1h-8.7l1.4-5H27c0.6,0,1-0.4,1-1s-0.4-1-1-1h-6c-0.4,0-0.8,0.3-1,0.7L18.2,7H3C2.4,7,2,7.4,2,8v4
	c0,0.6,0.4,1,1,1h26C29.6,13,30,12.6,30,12z"/>
<path d="M9,32h14c0.5,0,0.9-0.4,1-0.8L26.5,15H5.5L8,31.2C8.1,31.6,8.5,32,9,32z"/>
</svg>
