<?xml version="1.0" encoding="utf-8"?>
<!-- Generator: Adobe Illustrator 19.0.1, SVG Export Plug-In . SVG Version: 6.00 Build 0)  -->
<!DOCTYPE svg PUBLIC "-//W3C//DTD SVG 1.1//EN" "http://www.w3.org/Graphics/SVG/1.1/DTD/svg11.dtd">
<svg version="1.1" id="Layer_1" xmlns="http://www.w3.org/2000/svg" xmlns:xlink="http://www.w3.org/1999/xlink" x="0px" y="0px"
	 width="32px" height="32px" viewBox="0 0 32 32" enable-background="new 0 0 32 32" xml:space="preserve">
<path d="M23.2,9C23.2,9,23.2,9,23.2,9c-0.4-0.1-0.8-0.1-1.2-0.1c0.1-0.1,0.1-0.2,0.2-0.3c1.7-2.5,1-6.5,1-6.7c0-0.3-0.2-0.5-0.4-0.6
	S22.3,1.2,22,1.2c-0.2,0-4.1,0.8-5.9,3.3c-0.3,0.5-0.6,1-0.7,1.5c-1.3-2.1-3.1-3.3-4.3-3.9c-0.5-0.2-1.1,0-1.3,0.4
	c-0.2,0.5,0,1.1,0.4,1.3c1,0.5,2.5,1.5,3.5,3.2c0.6,1,0.9,1.9,1.1,2.7c-0.4-0.1-0.8-0.2-1.3-0.3C12.1,9.1,10.4,8.7,8.8,9
	C5.1,9.8,3,12.8,3,17.7C3,24.8,11.3,32,16,32s13-7.2,13-14.3C29,12.8,26.9,9.8,23.2,9z M11,17c0,0.6-0.4,1-1,1s-1-0.4-1-1v-1
	c0-0.6,0.4-1,1-1s1,0.4,1,1V17z M14,24c0,0.6-0.4,1-1,1s-1-0.4-1-1v-1c0-0.6,0.4-1,1-1s1,0.4,1,1V24z M17,19c0,0.6-0.4,1-1,1
	s-1-0.4-1-1v-1c0-0.6,0.4-1,1-1s1,0.4,1,1V19z M20,24c0,0.6-0.4,1-1,1s-1-0.4-1-1v-1c0-0.6,0.4-1,1-1s1,0.4,1,1V24z M23,17
	c0,0.6-0.4,1-1,1s-1-0.4-1-1v-1c0-0.6,0.4-1,1-1s1,0.4,1,1V17z"/>
</svg>
