<?xml version="1.0" encoding="utf-8"?>
<!-- Generator: Adobe Illustrator 19.0.1, SVG Export Plug-In . SVG Version: 6.00 Build 0)  -->
<!DOCTYPE svg PUBLIC "-//W3C//DTD SVG 1.1//EN" "http://www.w3.org/Graphics/SVG/1.1/DTD/svg11.dtd">
<svg version="1.1" id="Layer_1" xmlns="http://www.w3.org/2000/svg" xmlns:xlink="http://www.w3.org/1999/xlink" x="0px" y="0px"
	 width="32px" height="32px" viewBox="0 0 32 32" enable-background="new 0 0 32 32" xml:space="preserve">
<path d="M1.4,22.9c0.5,1.9,1.3,3.6,1.8,4.5c0.4,0.6,1,1.1,1.7,1.2c0.1,0,0.2,0,0.3,0c0.6,0,1.2-0.2,1.7-0.7l4.6-4.9H2
	C1.8,23,1.6,23,1.4,22.9z"/>
<path d="M20.4,23l4.6,4.9c0.5,0.5,1.1,0.7,1.7,0.7c0.1,0,0.2,0,0.3,0c0.7-0.1,1.4-0.5,1.7-1.2c0.6-1,1.3-2.6,1.8-4.5
	C30.4,23,30.2,23,30,23H20.4z"/>
<path d="M2.7,11.1C1.2,13.4,0.2,16,0,18.8c0,0.6,0.2,1.1,0.5,1.5C1,20.8,1.5,21,2,21h10.7l-9.6-9.4C3,11.4,2.9,11.3,2.7,11.1z"/>
<path d="M32,18.8c-0.2-2.8-1.1-5.4-2.7-7.7c-0.1,0.1-0.2,0.3-0.3,0.4L19.3,21H30c0.6,0,1.1-0.2,1.4-0.6C31.8,20,32,19.4,32,18.8z"/>
<path d="M4.5,10.1l10.8,10.6c0.2,0.2,0.4,0.3,0.7,0.3s0.5-0.1,0.7-0.3l10.8-10.6C28,9.6,28.2,9,28.2,8.3c0-0.7-0.4-1.3-1-1.7
	C24.2,4.2,20.3,3,16,3S7.8,4.2,4.8,6.5c-0.6,0.4-0.9,1.1-1,1.7C3.8,9,4,9.6,4.5,10.1z"/>
</svg>
