<?xml version="1.0" encoding="utf-8"?>
<!-- Generator: Adobe Illustrator 19.0.1, SVG Export Plug-In . SVG Version: 6.00 Build 0)  -->
<!DOCTYPE svg PUBLIC "-//W3C//DTD SVG 1.1//EN" "http://www.w3.org/Graphics/SVG/1.1/DTD/svg11.dtd">
<svg version="1.1" id="Layer_1" xmlns="http://www.w3.org/2000/svg" xmlns:xlink="http://www.w3.org/1999/xlink" x="0px" y="0px"
	 width="32px" height="32px" viewBox="0 0 32 32" enable-background="new 0 0 32 32" xml:space="preserve">
<path d="M25.4,0.8c-0.4-0.4-1-0.4-1.4,0l-2.7,2.7c-3.3,3.3-3.6,6.9-3.8,9.3c-0.1,1.9-0.2,2.5-1.1,3.4c-0.9,0.9-1.4,0.9-3.2,1
	c-2.4,0.2-6,0.4-9.5,3.8l-2.8,2.8c-0.4,0.4-0.4,1,0,1.4l5.9,5.9c0.2,0.2,0.5,0.3,0.7,0.3s0.5-0.1,0.7-0.3l2.8-2.8
	c0.7-0.7,1-0.7,2.9-0.8c2.3-0.2,6.2-0.4,9.8-4c3.6-3.6,3.9-7.6,4.1-9.9c0.1-1.9,0.2-2.2,0.8-2.8l2.7-2.7c0.4-0.4,0.4-1,0-1.4
	L25.4,0.8z M25.5,8c-1.6,1.6-1.7,3.3-1.9,5.2c-0.2,2.1-0.4,4.8-2.9,7.4c-2.6,2.6-5.2,2.7-7.3,2.9c-2,0.1-3.7,0.2-5.4,2L6.5,24
	c2.3-2.3,4.6-2.5,6.7-2.6c1.9-0.1,3.9-0.3,6-2.3c2.1-2.1,2.2-4.1,2.4-6.1c0.2-2.1,0.3-4.3,2.4-6.5c0.4-0.4,1-0.4,1.4,0
	C25.8,6.9,25.8,7.6,25.5,8z"/>
</svg>
