<?xml version="1.0" encoding="utf-8"?>
<!-- Generator: Adobe Illustrator 19.0.1, SVG Export Plug-In . SVG Version: 6.00 Build 0)  -->
<!DOCTYPE svg PUBLIC "-//W3C//DTD SVG 1.1//EN" "http://www.w3.org/Graphics/SVG/1.1/DTD/svg11.dtd">
<svg version="1.1" id="Layer_1" xmlns="http://www.w3.org/2000/svg" xmlns:xlink="http://www.w3.org/1999/xlink" x="0px" y="0px"
	 width="32px" height="32px" viewBox="0 0 32 32" enable-background="new 0 0 32 32" xml:space="preserve">
<path d="M14,0h-4C9.4,0,9,0.4,9,1v2H6C5.4,3,5,3.4,5,4v7H3c-0.3,0-0.6,0.1-0.8,0.4C2,11.6,2,11.9,2,12.2l4,19C6.1,31.7,6.5,32,7,32
	h18c0.5,0,0.9-0.3,1-0.8l4-19c0.1-0.3,0-0.6-0.2-0.8C29.6,11.1,29.3,11,29,11h-2V4c0-0.6-0.4-1-1-1h-3V2c0-0.6-0.4-1-1-1h-4
	c-0.6,0-1,0.4-1,1v3h-2V1C15,0.4,14.6,0,14,0z M9,11H7V5h2V11z M23,5h2v6h-2V5z M11,2h2v9h-2V2z M19,3h2v8h-2V3z M21,22
	c0,2.8-2.2,5-5,5s-5-2.2-5-5s2.2-5,5-5S21,19.2,21,22z M17,7v4h-2V7H17z"/>
</svg>
