<?xml version="1.0" encoding="utf-8"?>
<!-- Generator: Adobe Illustrator 19.0.1, SVG Export Plug-In . SVG Version: 6.00 Build 0)  -->
<!DOCTYPE svg PUBLIC "-//W3C//DTD SVG 1.1//EN" "http://www.w3.org/Graphics/SVG/1.1/DTD/svg11.dtd">
<svg version="1.1" id="Layer_1" xmlns="http://www.w3.org/2000/svg" xmlns:xlink="http://www.w3.org/1999/xlink" x="0px" y="0px"
	 width="32px" height="32px" viewBox="0 0 32 32" enable-background="new 0 0 32 32" xml:space="preserve">
<path d="M26,11c2.1,0,4-1.9,4-4c0-2.3-3-5.4-3.3-5.7L26,0.6l-0.7,0.7C24.7,1.9,22,4.7,22,7C22,9.1,23.9,11,26,11z"/>
<path d="M2,9v14c0,0.6,0.4,1,1,1h5v5c0,1.7,1.3,3,3,3s3-1.3,3-3v-5h5c0.6,0,1-0.4,1-1V9c0-5-4-9-9-9S2,4,2,9z M13,10
	c0-0.6,0.4-1,1-1s1,0.4,1,1v8c0,0.6-0.4,1-1,1s-1-0.4-1-1V10z M7,10c0-0.6,0.4-1,1-1s1,0.4,1,1v8c0,0.6-0.4,1-1,1s-1-0.4-1-1V10z"/>
</svg>
