<?xml version="1.0" encoding="utf-8"?>
<!-- Generator: Adobe Illustrator 19.0.1, SVG Export Plug-In . SVG Version: 6.00 Build 0)  -->
<!DOCTYPE svg PUBLIC "-//W3C//DTD SVG 1.1//EN" "http://www.w3.org/Graphics/SVG/1.1/DTD/svg11.dtd">
<svg version="1.1" id="Layer_1" xmlns="http://www.w3.org/2000/svg" xmlns:xlink="http://www.w3.org/1999/xlink" x="0px" y="0px"
	 width="32px" height="32px" viewBox="0 0 32 32" enable-background="new 0 0 32 32" xml:space="preserve">
<path d="M20,1c0-0.6-0.4-1-1-1h-6c-0.6,0-1,0.4-1,1v2h8V1z"/>
<path d="M12,10.6l-4.1,4.1C6,16.5,5,19.1,5,21.7V31c0,0.6,0.4,1,1,1h20c0.6,0,1-0.4,1-1v-9.3c0-2.7-1-5.2-2.9-7.1L20,10.6V5h-8V10.6
	z M17.3,21.7c-0.4-0.4-0.4-1,0-1.4s1-0.4,1.4,0l1.3,1.3l1.3-1.3c0.4-0.4,1-0.4,1.4,0s0.4,1,0,1.4L21.4,23l1.3,1.3
	c0.4,0.4,0.4,1,0,1.4C22.5,25.9,22.3,26,22,26s-0.5-0.1-0.7-0.3L20,24.4l-1.3,1.3C18.5,25.9,18.3,26,18,26s-0.5-0.1-0.7-0.3
	c-0.4-0.4-0.4-1,0-1.4l1.3-1.3L17.3,21.7z M14.7,20.3c0.4,0.4,0.4,1,0,1.4L13.4,23l1.3,1.3c0.4,0.4,0.4,1,0,1.4
	C14.5,25.9,14.3,26,14,26s-0.5-0.1-0.7-0.3L12,24.4l-1.3,1.3C10.5,25.9,10.3,26,10,26s-0.5-0.1-0.7-0.3c-0.4-0.4-0.4-1,0-1.4
	l1.3-1.3l-1.3-1.3c-0.4-0.4-0.4-1,0-1.4s1-0.4,1.4,0l1.3,1.3l1.3-1.3C13.7,19.9,14.3,19.9,14.7,20.3z"/>
</svg>
