<?xml version="1.0" encoding="utf-8"?>
<!-- Generator: Adobe Illustrator 19.0.1, SVG Export Plug-In . SVG Version: 6.00 Build 0)  -->
<!DOCTYPE svg PUBLIC "-//W3C//DTD SVG 1.1//EN" "http://www.w3.org/Graphics/SVG/1.1/DTD/svg11.dtd">
<svg version="1.1" id="Layer_1" xmlns="http://www.w3.org/2000/svg" xmlns:xlink="http://www.w3.org/1999/xlink" x="0px" y="0px"
	 width="32px" height="32px" viewBox="0 0 32 32" enable-background="new 0 0 32 32" xml:space="preserve">
<path d="M13,7c-0.6,0-1,0.4-1,1v2c0,0.6,0.4,1,1,1h16c0.6,0,1-0.4,1-1V8c0-0.6-0.4-1-1-1H13z"/>
<path d="M2,31c0,0.6,0.4,1,1,1h3c0.6,0,1-0.4,1-1V9.5c1.3-1.6,2-4,2-5.3C9,1.9,7,0,4.5,0S0,1.9,0,4.2C0,5.5,0.7,8,2,9.5V31z"/>
<path d="M31,13H11c-0.6,0-1,0.4-1,1v17c0,0.6,0.4,1,1,1h20c0.6,0,1-0.4,1-1V14C32,13.4,31.6,13,31,13z M21,28c-2.2,0-4-1.6-4-3.7
	c0-1.7,2.5-5,3.2-5.9l0.8-1l0.8,1c0.8,1,3.2,4.3,3.2,5.9C25,26.4,23.2,28,21,28z"/>
</svg>
