<?xml version="1.0" encoding="utf-8"?>
<!-- Generator: Adobe Illustrator 19.0.1, SVG Export Plug-In . SVG Version: 6.00 Build 0)  -->
<!DOCTYPE svg PUBLIC "-//W3C//DTD SVG 1.1//EN" "http://www.w3.org/Graphics/SVG/1.1/DTD/svg11.dtd">
<svg version="1.1" id="Layer_1" xmlns="http://www.w3.org/2000/svg" xmlns:xlink="http://www.w3.org/1999/xlink" x="0px" y="0px"
	 width="32px" height="32px" viewBox="0 0 32 32" enable-background="new 0 0 32 32" xml:space="preserve">
<path d="M4,5h11v3H4C3.4,8,3,8.4,3,9v22c0,0.6,0.4,1,1,1h24c0.6,0,1-0.4,1-1V9c0-0.6-0.4-1-1-1H17V5h11c2.2,0,4-1.8,4-4V0H0v1
	C0,3.2,1.8,5,4,5z M24,20c0,4.4-3.6,8-8,8s-8-3.6-8-8s3.6-8,8-8S24,15.6,24,20z"/>
<path d="M15.3,20.7c0.2,0.2,0.5,0.3,0.7,0.3s0.5-0.1,0.7-0.3c0.4-0.4,0.4-1,0-1.4l-3-3c-0.4-0.4-1-0.4-1.4,0s-0.4,1,0,1.4L15.3,20.7
	z"/>
</svg>
