<?xml version="1.0" encoding="utf-8"?>
<!-- Generator: Adobe Illustrator 19.0.1, SVG Export Plug-In . SVG Version: 6.00 Build 0)  -->
<!DOCTYPE svg PUBLIC "-//W3C//DTD SVG 1.1//EN" "http://www.w3.org/Graphics/SVG/1.1/DTD/svg11.dtd">
<svg version="1.1" id="Layer_1" xmlns="http://www.w3.org/2000/svg" xmlns:xlink="http://www.w3.org/1999/xlink" x="0px" y="0px"
	 width="32px" height="32px" viewBox="0 0 32 32" enable-background="new 0 0 32 32" xml:space="preserve">
<path d="M31.5,11.1c-0.3-0.2-0.7-0.2-1,0l-5,3.4C24.3,12.4,21.3,8,16,8c-5.4,0-8.3,4.4-9.4,6.5l-5-3.4c-0.3-0.2-0.7-0.2-1,0
	C0.2,11.3,0,11.6,0,12v8c0,0.4,0.2,0.7,0.5,0.9C0.7,21,0.8,21,1,21c0.2,0,0.4-0.1,0.6-0.2l5-3.3c1.1,2.1,4,6.5,9.4,6.5
	s8.3-4.4,9.4-6.5l5,3.3c0.2,0.1,0.4,0.2,0.6,0.2c0.2,0,0.3,0,0.5-0.1c0.3-0.2,0.5-0.5,0.5-0.9v-8C32,11.6,31.8,11.3,31.5,11.1z"/>
</svg>
