<?xml version="1.0" encoding="utf-8"?>
<!-- Generator: Adobe Illustrator 19.0.1, SVG Export Plug-In . SVG Version: 6.00 Build 0)  -->
<!DOCTYPE svg PUBLIC "-//W3C//DTD SVG 1.1//EN" "http://www.w3.org/Graphics/SVG/1.1/DTD/svg11.dtd">
<svg version="1.1" id="Layer_1" xmlns="http://www.w3.org/2000/svg" xmlns:xlink="http://www.w3.org/1999/xlink" x="0px" y="0px"
	 width="32px" height="32px" viewBox="0 0 32 32" enable-background="new 0 0 32 32" xml:space="preserve">
<path d="M26.3,6.9c-0.7-3.2-3.6-5.5-6.9-5.5c-1.6,0-3,0.5-4.3,1.4C13.7,1,11.5,0,9.2,0C4.9,0,1.4,3.5,1.4,7.8c0,0.6,0.1,1.2,0.2,1.8
	c-1,1-1.6,2.3-1.6,3.7c0,2.8,2.3,5.1,5.1,5.1c0.6,0,1.2-0.1,1.7-0.3c1.7,2.7,4.6,4.4,7.8,4.4c2.9,0,5.7-1.4,7.4-3.8
	c1,0.7,2.2,1,3.5,1c3.6,0,6.5-2.9,6.5-6.5C32,10,29.5,7.3,26.3,6.9z"/>
<path d="M14.6,24.5c-1.5,0-2.9-0.3-4.3-0.9c1.9,4.3,1.9,7.4,1.9,7.4c0,0.3,0.1,0.5,0.3,0.7c0.2,0.2,0.4,0.3,0.7,0.3h5.5
	c0.3,0,0.6-0.1,0.8-0.3c0.2-0.2,0.3-0.5,0.2-0.8c0,0-0.5-3.6,0.8-8.1C18.7,23.9,16.7,24.5,14.6,24.5z"/>
</svg>
