<?xml version="1.0" encoding="utf-8"?>
<!-- Generator: Adobe Illustrator 19.0.1, SVG Export Plug-In . SVG Version: 6.00 Build 0)  -->
<!DOCTYPE svg PUBLIC "-//W3C//DTD SVG 1.1//EN" "http://www.w3.org/Graphics/SVG/1.1/DTD/svg11.dtd">
<svg version="1.1" id="Layer_1" xmlns="http://www.w3.org/2000/svg" xmlns:xlink="http://www.w3.org/1999/xlink" x="0px" y="0px"
	 width="32px" height="32px" viewBox="0 0 32 32" enable-background="new 0 0 32 32" xml:space="preserve">
<path d="M30,27V14c0-0.6-0.4-1-1-1H3c-0.6,0-1,0.4-1,1v13c0,1.7,1.3,3,3,3h22C28.7,30,30,28.7,30,27z M23,24c0,0.6-0.4,1-1,1H10
	c-0.6,0-1-0.4-1-1v-6c0-0.6,0.4-1,1-1h12c0.6,0,1,0.4,1,1V24z"/>
<path d="M29.5,2h-27C1.1,2,0,3.1,0,4.5c0,1.1,0.7,2.1,1.8,2.4L1,9.8c-0.1,0.3,0,0.6,0.2,0.9S1.7,11,2,11h28c0.3,0,0.6-0.1,0.8-0.4
	S31,10.1,31,9.8l-0.7-2.9c1-0.3,1.8-1.3,1.8-2.4C32,3.1,30.9,2,29.5,2z"/>
</svg>
