<?xml version="1.0" encoding="utf-8"?>
<!-- Generator: Adobe Illustrator 19.0.1, SVG Export Plug-In . SVG Version: 6.00 Build 0)  -->
<!DOCTYPE svg PUBLIC "-//W3C//DTD SVG 1.1//EN" "http://www.w3.org/Graphics/SVG/1.1/DTD/svg11.dtd">
<svg version="1.1" id="Layer_1" xmlns="http://www.w3.org/2000/svg" xmlns:xlink="http://www.w3.org/1999/xlink" x="0px" y="0px"
	 width="32px" height="32px" viewBox="0 0 32 32" enable-background="new 0 0 32 32" xml:space="preserve">
<path d="M30,4c0-0.6-0.4-1-1-1h-5.4l-1.3-2.5C22.2,0.2,21.8,0,21.5,0H10.5c-0.4,0-0.7,0.2-0.9,0.5L8.4,3H3C2.4,3,2,3.4,2,4v3
	c0,0.6,0.4,1,1,1h26c0.6,0,1-0.4,1-1V4z"/>
<path d="M8,32h16c0.5,0,1-0.4,1-0.9L26.8,10H5.2L7,31.1C7,31.6,7.5,32,8,32z M16,15c2.8,0,5,2.2,5,5s-2.2,5-5,5s-5-2.2-5-5
	S13.2,15,16,15z"/>
</svg>
