<?xml version="1.0" encoding="utf-8"?>
<!-- Generator: Adobe Illustrator 19.0.1, SVG Export Plug-In . SVG Version: 6.00 Build 0)  -->
<!DOCTYPE svg PUBLIC "-//W3C//DTD SVG 1.1//EN" "http://www.w3.org/Graphics/SVG/1.1/DTD/svg11.dtd">
<svg version="1.1" id="Layer_1" xmlns="http://www.w3.org/2000/svg" xmlns:xlink="http://www.w3.org/1999/xlink" x="0px" y="0px"
	 width="32px" height="32px" viewBox="0 0 32 32" enable-background="new 0 0 32 32" xml:space="preserve">
<path d="M13,32c7.2,0,13-5.8,13-13S20.2,6,13,6S0,11.8,0,19S5.8,32,13,32z M16,14c0-0.6,0.4-1,1-1s1,0.4,1,1v1c0,0.6-0.4,1-1,1
	s-1-0.4-1-1V14z M16.3,20.3c0.4-0.4,1-0.4,1.4,0l1,1c0.4,0.4,0.4,1,0,1.4C18.5,22.9,18.3,23,18,23s-0.5-0.1-0.7-0.3l-1-1
	C15.9,21.3,15.9,20.7,16.3,20.3z M13,24v1c0,0.6-0.4,1-1,1s-1-0.4-1-1v-1c0-0.6,0.4-1,1-1S13,23.4,13,24z M9.3,12.3
	c0.4-0.4,1-0.4,1.4,0l1,1c0.4,0.4,0.4,1,0,1.4C11.5,14.9,11.3,15,11,15s-0.5-0.1-0.7-0.3l-1-1C8.9,13.3,8.9,12.7,9.3,12.3z
	 M6.3,19.3l1-1c0.4-0.4,1-0.4,1.4,0s0.4,1,0,1.4l-1,1C7.5,20.9,7.3,21,7,21s-0.5-0.1-0.7-0.3C5.9,20.3,5.9,19.7,6.3,19.3z"/>
<path d="M27.8,16.6C30.4,15,32,12.2,32,9c0-5-4-9-9-9c-3.2,0-6,1.6-7.6,4.2C21.7,5.2,26.8,10.3,27.8,16.6z M26.3,8.3l1-1
	c0.4-0.4,1-0.4,1.4,0s0.4,1,0,1.4l-1,1C27.5,9.9,27.3,10,27,10s-0.5-0.1-0.7-0.3C25.9,9.3,25.9,8.7,26.3,8.3z M22.3,4.7
	c-0.4-0.4-0.4-1,0-1.4s1-0.4,1.4,0l1,1c0.4,0.4,0.4,1,0,1.4C24.5,5.9,24.3,6,24,6s-0.5-0.1-0.7-0.3L22.3,4.7z"/>
</svg>
