<?xml version="1.0" encoding="utf-8"?>
<!-- Generator: Adobe Illustrator 19.0.1, SVG Export Plug-In . SVG Version: 6.00 Build 0)  -->
<!DOCTYPE svg PUBLIC "-//W3C//DTD SVG 1.1//EN" "http://www.w3.org/Graphics/SVG/1.1/DTD/svg11.dtd">
<svg version="1.1" id="Layer_1" xmlns="http://www.w3.org/2000/svg" xmlns:xlink="http://www.w3.org/1999/xlink" x="0px" y="0px"
	 width="32px" height="32px" viewBox="0 0 32 32" enable-background="new 0 0 32 32" xml:space="preserve">
<path d="M20.4,4.2L4.2,20.4c-0.9,0.9-0.9,2.5,0,3.4l4,4c0.5,0.5,1.1,0.7,1.7,0.7s1.2-0.2,1.7-0.7l16.2-16.2c0.9-0.9,0.9-2.5,0-3.4
	l-4-4C22.8,3.2,21.3,3.2,20.4,4.2z"/>
<path d="M6.6,30.9L7.5,30L2,24.5l-0.9,0.9c-1.5,1.5-1.5,4,0,5.5C1.9,31.6,2.9,32,3.9,32S5.8,31.6,6.6,30.9z"/>
<path d="M30.9,6.6c1.5-1.5,1.5-4,0-5.5c-1.5-1.5-4-1.5-5.5,0L24.5,2L30,7.5L30.9,6.6z"/>
</svg>
