<?xml version="1.0" encoding="utf-8"?>
<!-- Generator: Adobe Illustrator 19.0.1, SVG Export Plug-In . SVG Version: 6.00 Build 0)  -->
<!DOCTYPE svg PUBLIC "-//W3C//DTD SVG 1.1//EN" "http://www.w3.org/Graphics/SVG/1.1/DTD/svg11.dtd">
<svg version="1.1" id="Layer_1" xmlns="http://www.w3.org/2000/svg" xmlns:xlink="http://www.w3.org/1999/xlink" x="0px" y="0px"
	 width="32px" height="32px" viewBox="0 0 32 32" enable-background="new 0 0 32 32" xml:space="preserve">
<path d="M3,32h26c0.6,0,1-0.4,1-1V15c0-0.6-0.4-1-1-1h-1c-2.8,0-5-2.2-5-5V7c0-3.9-3.1-7-7-7S9,3.1,9,7v2c0,2.8-2.2,5-5,5H3
	c-0.6,0-1,0.4-1,1v16C2,31.6,2.4,32,3,32z M11,7c0-2.8,2.2-5,5-5s5,2.2,5,5v1H11V7z M11,20c0-0.6,0.4-1,1-1h8c0.6,0,1,0.4,1,1v3
	c0,2.8-2.2,5-5,5s-5-2.2-5-5V20z"/>
</svg>
