<?xml version="1.0" encoding="utf-8"?>
<!-- Generator: Adobe Illustrator 19.0.1, SVG Export Plug-In . SVG Version: 6.00 Build 0)  -->
<!DOCTYPE svg PUBLIC "-//W3C//DTD SVG 1.1//EN" "http://www.w3.org/Graphics/SVG/1.1/DTD/svg11.dtd">
<svg version="1.1" id="Layer_1" xmlns="http://www.w3.org/2000/svg" xmlns:xlink="http://www.w3.org/1999/xlink" x="0px" y="0px"
	 width="32px" height="32px" viewBox="0 0 32 32" enable-background="new 0 0 32 32" xml:space="preserve">
<path d="M15.8,0C9.8,0,5.3,2.3,3.1,6.5C0,12.5,3,15.9,5.3,18.7c1.3,1.5,2.5,2.8,2.7,4.4c0.9,7.5,2.8,8.9,7.8,8.9
	C24.7,32,32,24.8,32,16S24.7,0,15.8,0z M16.5,17c-3,0-5.5-2.5-5.5-5.5c0-3,2.5-5.5,5.5-5.5c3,0,5.5,2.5,5.5,5.5
	C22,14.5,19.5,17,16.5,17z"/>
</svg>
