<?xml version="1.0" encoding="utf-8"?>
<!-- Generator: Adobe Illustrator 19.0.1, SVG Export Plug-In . SVG Version: 6.00 Build 0)  -->
<!DOCTYPE svg PUBLIC "-//W3C//DTD SVG 1.1//EN" "http://www.w3.org/Graphics/SVG/1.1/DTD/svg11.dtd">
<svg version="1.1" id="Layer_1" xmlns="http://www.w3.org/2000/svg" xmlns:xlink="http://www.w3.org/1999/xlink" x="0px" y="0px"
	 width="32px" height="32px" viewBox="0 0 32 32" enable-background="new 0 0 32 32" xml:space="preserve">
<path d="M16.3,2.7L2.7,16.3c-1.7,1.7-2.1,4.3-1.1,6.4L22.7,1.5C20.6,0.6,18,0.9,16.3,2.7z"/>
<path d="M30.5,9.3L9.3,30.5c0.7,0.3,1.5,0.5,2.3,0.5c1.5,0,2.9-0.6,4-1.7l13.6-13.6C31.1,14,31.4,11.4,30.5,9.3z"/>
<path d="M7.4,29.6L29.6,7.4c1.4-1.4,1.4-3.6,0-5s-3.6-1.4-5,0L2.4,24.6c-1.4,1.4-1.4,3.6,0,5S6,31,7.4,29.6z"/>
</svg>
