<?xml version="1.0" encoding="utf-8"?>
<!-- Generator: Adobe Illustrator 19.0.1, SVG Export Plug-In . SVG Version: 6.00 Build 0)  -->
<!DOCTYPE svg PUBLIC "-//W3C//DTD SVG 1.1//EN" "http://www.w3.org/Graphics/SVG/1.1/DTD/svg11.dtd">
<svg version="1.1" id="Layer_1" xmlns="http://www.w3.org/2000/svg" xmlns:xlink="http://www.w3.org/1999/xlink" x="0px" y="0px"
	 width="32px" height="32px" viewBox="0 0 32 32" enable-background="new 0 0 32 32" xml:space="preserve">
<path d="M31.4,11.1c-0.3-0.2-0.8-0.1-1.1,0.1l-4.2,3.3c-1.3-1.8-4.6-5.7-9.7-7.1c-0.2-1.1,0-2.2,0.4-3c0.2-0.3,0.2-0.7,0-1
	C16.7,3.2,16.4,3,16,3c-2.4,0-4.6,1.8-5.9,3.7C12.4,9.1,14,13,14,16c0,2.6-0.7,6.3-2.7,8.9c0.5,0.1,1,0.1,1.6,0.1
	c7.1,0,11.6-5.3,13.2-7.5l4.1,3.3c0.2,0.1,0.4,0.2,0.6,0.2c0.1,0,0.3,0,0.4-0.1c0.3-0.2,0.6-0.5,0.6-0.9v-8
	C32,11.6,31.8,11.3,31.4,11.1z"/>
<path d="M8.6,8c-4.7,2.2-7.4,7.3-7.5,7.5c-0.1,0.3-0.1,0.6,0,0.9c0.1,0.3,3,5.9,8.2,7.8c2-2.2,2.8-5.8,2.8-8.3
	C12,13.4,10.5,10,8.6,8z"/>
</svg>
