<?xml version="1.0" encoding="utf-8"?>
<!-- Generator: Adobe Illustrator 19.0.1, SVG Export Plug-In . SVG Version: 6.00 Build 0)  -->
<!DOCTYPE svg PUBLIC "-//W3C//DTD SVG 1.1//EN" "http://www.w3.org/Graphics/SVG/1.1/DTD/svg11.dtd">
<svg version="1.1" id="Layer_1" xmlns="http://www.w3.org/2000/svg" xmlns:xlink="http://www.w3.org/1999/xlink" x="0px" y="0px"
	 width="32px" height="32px" viewBox="0 0 32 32" enable-background="new 0 0 32 32" xml:space="preserve">
<path d="M9,31h14c3.3,0,6-2.7,6-6c0-0.6-0.4-1-1-1H4c-0.6,0-1,0.4-1,1C3,28.3,5.7,31,9,31z"/>
<path d="M28.5,15h-3.2L21,18.2L16.7,15H3.5C1.6,15,0,16.6,0,18.5S1.6,22,3.5,22h25c1.9,0,3.5-1.6,3.5-3.5S30.4,15,28.5,15z"/>
<path d="M4,13h24c0.6,0,1-0.4,1-1c0-6.1-4.9-11-11-11h-4C7.9,1,3,5.9,3,12C3,12.6,3.4,13,4,13z M21,6c0-0.6,0.4-1,1-1s1,0.4,1,1v1
	c0,0.6-0.4,1-1,1s-1-0.4-1-1V6z M14.3,5.3l1-1c0.4-0.4,1-0.4,1.4,0s0.4,1,0,1.4l-1,1C15.5,6.9,15.3,7,15,7s-0.5-0.1-0.7-0.3
	C13.9,6.3,13.9,5.7,14.3,5.3z M9.3,6.3c0.4-0.4,1-0.4,1.4,0l1,1c0.4,0.4,0.4,1,0,1.4C11.5,8.9,11.3,9,11,9s-0.5-0.1-0.7-0.3l-1-1
	C8.9,7.3,8.9,6.7,9.3,6.3z"/>
</svg>
