<?xml version="1.0" encoding="utf-8"?>
<!-- Generator: Adobe Illustrator 19.0.1, SVG Export Plug-In . SVG Version: 6.00 Build 0)  -->
<!DOCTYPE svg PUBLIC "-//W3C//DTD SVG 1.1//EN" "http://www.w3.org/Graphics/SVG/1.1/DTD/svg11.dtd">
<svg version="1.1" id="Layer_1" xmlns="http://www.w3.org/2000/svg" xmlns:xlink="http://www.w3.org/1999/xlink" x="0px" y="0px"
	 width="32px" height="32px" viewBox="0 0 32 32" enable-background="new 0 0 32 32" xml:space="preserve">
<path d="M8.9,30.7c1,0.8,2.2,1.3,3.5,1.3c1.5,0,2.9-0.5,3.6-0.9c0.7,0.3,2.1,0.9,3.6,0.9c1.4,0,2.5-0.4,3.5-1.3
	c6.6-5.6,8-11,7.9-14.5c-0.1-4.4-2.2-7.6-4-8.9c-2.7-2.1-5.8-2.8-9.3-2c0.5-1.6,1.4-2.6,2.8-3.5c0.5-0.3,0.6-0.9,0.3-1.4
	s-0.9-0.6-1.4-0.3c-2.2,1.4-3.4,3.1-3.9,5.5C11.6,4.3,8.1,4.9,5,7.3c-1.8,1.4-3.9,4.5-4,8.9C0.9,19.7,2.2,25.1,8.9,30.7z M11.1,9.8
	c0.3-0.4,1-0.5,1.4-0.2c0.8,0.6,2,1.3,3.5,1.3s2.7-0.7,3.5-1.3c0.4-0.3,1.1-0.2,1.4,0.2c0.3,0.5,0.2,1.1-0.2,1.4
	c-1.4,1.1-3.1,1.7-4.7,1.7c-1.6,0-3.3-0.6-4.7-1.7C10.9,10.9,10.8,10.2,11.1,9.8z"/>
</svg>
