<?xml version="1.0" encoding="utf-8"?>
<!-- Generator: Adobe Illustrator 19.0.1, SVG Export Plug-In . SVG Version: 6.00 Build 0)  -->
<!DOCTYPE svg PUBLIC "-//W3C//DTD SVG 1.1//EN" "http://www.w3.org/Graphics/SVG/1.1/DTD/svg11.dtd">
<svg version="1.1" id="Layer_1" xmlns="http://www.w3.org/2000/svg" xmlns:xlink="http://www.w3.org/1999/xlink" x="0px" y="0px"
	 width="32px" height="32px" viewBox="0 0 32 32" enable-background="new 0 0 32 32" xml:space="preserve">
<path d="M7.6,21.3l-2.9,2.9c-1.1-1.1-2.9-1.1-4,0c-1.1,1.1-1.1,2.9,0,4C1.4,28.8,2.2,29,3,29c-0.1,0.8,0.2,1.6,0.8,2.2
	c1.1,1.1,2.9,1.1,4,0c1.1-1.1,1.1-2.9,0-4l2.9-2.9L7.6,21.3z"/>
<path d="M18.9,0.7L13,6.6c-1.7,1.7-2.2,3.9-2.8,5.9c-0.5,1.9-0.9,3.7-2.2,4.9c-0.2,0.2-0.3,0.4-0.3,0.7s0.1,0.5,0.3,0.7l5,5
	c0.2,0.2,0.4,0.3,0.7,0.3s0.5-0.1,0.7-0.3c1.3-1.3,3.1-1.7,4.9-2.2c2.1-0.5,4.3-1.1,5.9-2.8l5.9-5.9c1.7-1.7,0.6-4.8-3-8.3
	C25.1,1.5,20.8-1.2,18.9,0.7z"/>
</svg>
