<?xml version="1.0" encoding="utf-8"?>
<!-- Generator: Adobe Illustrator 19.0.1, SVG Export Plug-In . SVG Version: 6.00 Build 0)  -->
<!DOCTYPE svg PUBLIC "-//W3C//DTD SVG 1.1//EN" "http://www.w3.org/Graphics/SVG/1.1/DTD/svg11.dtd">
<svg version="1.1" id="Layer_1" xmlns="http://www.w3.org/2000/svg" xmlns:xlink="http://www.w3.org/1999/xlink" x="0px" y="0px"
	 width="32px" height="32px" viewBox="0 0 32 32" enable-background="new 0 0 32 32" xml:space="preserve">
<path d="M16,20c0,2.2-1.8,4-4,4s-4-1.8-4-4v-4H0v11c0,0.6,0.4,1,1,1h30c0.6,0,1-0.4,1-1V16H16V20z"/>
<path d="M1,14h9v6c0,1.1,0.9,2,2,2s2-0.9,2-2v-6h17c0.5,0,0.9-0.3,1-0.8c0.1-0.5-0.2-0.9-0.6-1.1l-19-8C12.3,4,12.1,4,12,4
	C3.8,4,0,8.7,0,13C0,13.6,0.4,14,1,14z"/>
</svg>
