<?xml version="1.0" encoding="utf-8"?>
<!-- Generator: Adobe Illustrator 19.0.1, SVG Export Plug-In . SVG Version: 6.00 Build 0)  -->
<!DOCTYPE svg PUBLIC "-//W3C//DTD SVG 1.1//EN" "http://www.w3.org/Graphics/SVG/1.1/DTD/svg11.dtd">
<svg version="1.1" id="Layer_1" xmlns="http://www.w3.org/2000/svg" xmlns:xlink="http://www.w3.org/1999/xlink" x="0px" y="0px"
	 width="32px" height="32px" viewBox="0 0 32 32" enable-background="new 0 0 32 32" xml:space="preserve">
<path d="M25,2H7C3.1,2,0,5.1,0,9c0,3.5,2.6,6.4,6,6.9V29c0,0.6,0.4,1,1,1h18c0.6,0,1-0.4,1-1V15.9c3.4-0.5,6-3.4,6-6.9
	C32,5.1,28.9,2,25,2z M9.7,8.7l-1,1C8.5,9.9,8.3,10,8,10S7.5,9.9,7.3,9.7c-0.4-0.4-0.4-1,0-1.4l1-1c0.4-0.4,1-0.4,1.4,0
	S10.1,8.3,9.7,8.7z M12,16v-1c0-0.6,0.4-1,1-1s1,0.4,1,1v1c0,0.6-0.4,1-1,1S12,16.6,12,16z M15.7,23.7C15.5,23.9,15.3,24,15,24
	s-0.5-0.1-0.7-0.3l-1-1c-0.4-0.4-0.4-1,0-1.4s1-0.4,1.4,0l1,1C16.1,22.7,16.1,23.3,15.7,23.7z M17,11c-0.3,0-0.5-0.1-0.7-0.3l-1-1
	c-0.4-0.4-0.4-1,0-1.4s1-0.4,1.4,0l1,1c0.4,0.4,0.4,1,0,1.4C17.5,10.9,17.3,11,17,11z M20.7,17.7l-1,1C19.5,18.9,19.3,19,19,19
	s-0.5-0.1-0.7-0.3c-0.4-0.4-0.4-1,0-1.4l1-1c0.4-0.4,1-0.4,1.4,0S21.1,17.3,20.7,17.7z M24,9c0,0.6-0.4,1-1,1s-1-0.4-1-1V8
	c0-0.6,0.4-1,1-1s1,0.4,1,1V9z"/>
</svg>
