<?xml version="1.0" encoding="utf-8"?>
<!-- Generator: Adobe Illustrator 19.0.1, SVG Export Plug-In . SVG Version: 6.00 Build 0)  -->
<!DOCTYPE svg PUBLIC "-//W3C//DTD SVG 1.1//EN" "http://www.w3.org/Graphics/SVG/1.1/DTD/svg11.dtd">
<svg version="1.1" id="Layer_1" xmlns="http://www.w3.org/2000/svg" xmlns:xlink="http://www.w3.org/1999/xlink" x="0px" y="0px"
	 width="32px" height="32px" viewBox="0 0 32 32" enable-background="new 0 0 32 32" xml:space="preserve">
<path d="M5.1,31c0.8,0,1.6-0.3,2.2-1c1.3-1.3,2.2-4.1,1.8-5.7l5.8-5.8c0.7,0.4,1.4,0.6,2.2,0.6c0.9,0,1.8-0.3,2.5-0.8l9.5-7
	c1-0.7,1.6-1.9,1.7-3.1c0.1-1.2-0.4-2.5-1.2-3.3l-2.5-2.5c-0.9-0.9-2.1-1.3-3.3-1.2c-1.2,0.1-2.4,0.7-3.1,1.7l-7,9.5
	c-1,1.4-1.1,3.3-0.2,4.7l-5.8,5.8c-1.7-0.4-4.5,0.5-5.7,1.8c-1.5,1.5-1.3,3.4,0.3,5C3.2,30.5,4.2,31,5.1,31z M27.8,5.7l0.6,0.6
	C28.8,6.7,29,7.3,29,8c0,0.7-0.4,1.3-0.9,1.7l-9.5,7c-0.6,0.5-1.4,0.5-2.1,0.3L27.8,5.7z M15.4,13.5l7-9.5c0.4-0.5,1-0.9,1.6-0.9
	c0.1,0,0.1,0,0.2,0c0.6,0,1.2,0.2,1.6,0.7l0.6,0.6L15.1,15.5C14.9,14.8,14.9,14.1,15.4,13.5z M3.4,26c0.9-0.9,2.7-1.3,3.5-1.3
	c0.1,0,0.2,0,0.3,0c0.1,0.7-0.3,2.9-1.3,3.8c-0.8,0.8-1.6,0.2-2.2-0.3C2.5,27,3.1,26.3,3.4,26z"/>
</svg>
