<?xml version="1.0" encoding="utf-8"?>
<!-- Generator: Adobe Illustrator 19.1.0, SVG Export Plug-In . SVG Version: 6.00 Build 0)  -->
<!DOCTYPE svg PUBLIC "-//W3C//DTD SVG 1.1//EN" "http://www.w3.org/Graphics/SVG/1.1/DTD/svg11.dtd">
<svg version="1.1" id="Layer_1" xmlns="http://www.w3.org/2000/svg" xmlns:xlink="http://www.w3.org/1999/xlink" x="0px" y="0px"
	 width="16px" height="16px" viewBox="0 0 16 16" enable-background="new 0 0 16 16" xml:space="preserve">
<path fill="#444444" d="M15.2,7.7L15.2,7.7c-0.8-1.1-2.9-3.9-3.7-5l0,0C11.1,2.3,10.6,2,10,2C8.9,2,8,2.9,8,4c0-1.1-0.9-2-2-2
	C5.4,2,4.9,2.3,4.5,2.7l0,0c-0.8,1-2.9,3.8-3.7,5l0,0C0.3,8.3,0,9.1,0,10c0,2.2,1.8,4,4,4s4-1.8,4-4c0,2.2,1.8,4,4,4s4-1.8,4-4
	C16,9.1,15.7,8.3,15.2,7.7z M4,12c-1.1,0-2-0.9-2-2s0.9-2,2-2s2,0.9,2,2S5.1,12,4,12z M12,12c-1.1,0-2-0.9-2-2s0.9-2,2-2s2,0.9,2,2
	S13.1,12,12,12z"/>
</svg>
