<?xml version="1.0" encoding="utf-8"?>
<!-- Generator: Adobe Illustrator 19.1.0, SVG Export Plug-In . SVG Version: 6.00 Build 0)  -->
<!DOCTYPE svg PUBLIC "-//W3C//DTD SVG 1.1//EN" "http://www.w3.org/Graphics/SVG/1.1/DTD/svg11.dtd">
<svg version="1.1" id="Layer_1" xmlns="http://www.w3.org/2000/svg" xmlns:xlink="http://www.w3.org/1999/xlink" x="0px" y="0px"
	 width="16px" height="16px" viewBox="0 0 16 16" enable-background="new 0 0 16 16" xml:space="preserve">
<path fill="#444444" d="M8,0C3.6,0,0,2.9,0,6.5C0,10.2,5,16,8,16c3,0,8-5.8,8-9.5C16,2.9,12.3,0,8,0z M6.5,10.2C6.5,10.2,5,10,4,9
	C2.9,7.9,2.9,5.8,2.9,5.8s2-0.1,3.2,1.2C7.1,7.9,6.5,10.2,6.5,10.2z M12,9c-1,1-2.5,1.1-2.5,1.1S8.9,7.9,9.9,7
	c1.2-1.2,3.2-1.2,3.2-1.2S13.1,7.9,12,9z"/>
</svg>
