<?xml version="1.0" encoding="utf-8"?>
<!-- Generator: Adobe Illustrator 19.1.0, SVG Export Plug-In . SVG Version: 6.00 Build 0)  -->
<!DOCTYPE svg PUBLIC "-//W3C//DTD SVG 1.1//EN" "http://www.w3.org/Graphics/SVG/1.1/DTD/svg11.dtd">
<svg version="1.1" id="Layer_1" xmlns="http://www.w3.org/2000/svg" xmlns:xlink="http://www.w3.org/1999/xlink" x="0px" y="0px"
	 width="16px" height="16px" viewBox="0 0 16 16" enable-background="new 0 0 16 16" xml:space="preserve">
<rect data-color="color-2" x="7" fill="#444444" width="2" height="5"/>
<path fill="#444444" d="M12.5,7h-9C1.6,7,0,8.6,0,10.5S1.6,14,3.5,14c1.4,0,2.6-0.8,3.2-2h2.7c0.6,1.2,1.8,2,3.2,2
	c1.9,0,3.5-1.6,3.5-3.5S14.4,7,12.5,7z M5,11H4v1H3v-1H2v-1h1V9h1v1h1V11z M13,12h-1v-1h1V12z M14,10h-1V9h1V10z"/>
</svg>
