<?xml version="1.0" encoding="utf-8"?>
<!-- Generator: Adobe Illustrator 19.1.0, SVG Export Plug-In . SVG Version: 6.00 Build 0)  -->
<!DOCTYPE svg PUBLIC "-//W3C//DTD SVG 1.1//EN" "http://www.w3.org/Graphics/SVG/1.1/DTD/svg11.dtd">
<svg version="1.1" id="Layer_1" xmlns="http://www.w3.org/2000/svg" xmlns:xlink="http://www.w3.org/1999/xlink" x="0px" y="0px"
	 width="16px" height="16px" viewBox="0 0 16 16" enable-background="new 0 0 16 16" xml:space="preserve">
<path fill="#444444" d="M12.7,0L6.5,6.3C6,6.1,5.5,6,5,6c-2.8,0-5,2.2-5,5s2.2,5,5,5s5-2.2,5-5c0-0.5-0.1-1.1-0.3-1.6L11,8V6h2V4h2
	l1-1V0H12.7z M4.5,12C3.7,12,3,11.3,3,10.5S3.7,9,4.5,9S6,9.7,6,10.5S5.3,12,4.5,12z"/>
</svg>
