<?xml version="1.0" encoding="utf-8"?>
<!-- Generator: Adobe Illustrator 19.1.0, SVG Export Plug-In . SVG Version: 6.00 Build 0)  -->
<!DOCTYPE svg PUBLIC "-//W3C//DTD SVG 1.1//EN" "http://www.w3.org/Graphics/SVG/1.1/DTD/svg11.dtd">
<svg version="1.1" id="Layer_1" xmlns="http://www.w3.org/2000/svg" xmlns:xlink="http://www.w3.org/1999/xlink" x="0px" y="0px"
	 width="16px" height="16px" viewBox="0 0 16 16" enable-background="new 0 0 16 16" xml:space="preserve">
<path fill="#444444" d="M14.3,5c-0.7-1.5-1.9-2.6-3.3-3.3V0H5v1.7C3.5,2.4,2.4,3.5,1.7,5H0v6h1.7c0.7,1.5,1.9,2.6,3.3,3.3V16h6v-1.7
	c1.5-0.7,2.6-1.9,3.3-3.3H16V5H14.3z M4,9H2V7h2V9z M7,2h2v2H7V2z M9,14H7v-2h2V14z M8,10c-1.1,0-2-0.9-2-2c0-1.1,0.9-2,2-2
	s2,0.9,2,2C10,9.1,9.1,10,8,10z M14,9h-2V7h2V9z"/>
</svg>
