<?xml version="1.0" encoding="utf-8"?>
<!-- Generator: Adobe Illustrator 19.1.0, SVG Export Plug-In . SVG Version: 6.00 Build 0)  -->
<!DOCTYPE svg PUBLIC "-//W3C//DTD SVG 1.1//EN" "http://www.w3.org/Graphics/SVG/1.1/DTD/svg11.dtd">
<svg version="1.1" id="Layer_1" xmlns="http://www.w3.org/2000/svg" xmlns:xlink="http://www.w3.org/1999/xlink" x="0px" y="0px"
	 width="16px" height="16px" viewBox="0 0 16 16" enable-background="new 0 0 16 16" xml:space="preserve">
<path fill="#444444" d="M10,0C6.7,0,4,2.7,4,6c0,0.7,0.1,1.4,0.4,2H2.5C1.1,8,0,9.1,0,10.5S1.1,13,2.5,13h2C4.8,13,5,13.2,5,13.5
	S4.8,14,4.5,14H1v2h3.5C5.9,16,7,14.9,7,13.5S5.9,11,4.5,11h-2C2.2,11,2,10.8,2,10.5S2.2,10,2.5,10h3c1.1,1.2,2.7,2,4.5,2
	c3.3,0,6-2.7,6-6S13.3,0,10,0z"/>
</svg>
