<?xml version="1.0" encoding="utf-8"?>
<!-- Generator: Adobe Illustrator 19.1.0, SVG Export Plug-In . SVG Version: 6.00 Build 0)  -->
<!DOCTYPE svg PUBLIC "-//W3C//DTD SVG 1.1//EN" "http://www.w3.org/Graphics/SVG/1.1/DTD/svg11.dtd">
<svg version="1.1" id="Layer_1" xmlns="http://www.w3.org/2000/svg" xmlns:xlink="http://www.w3.org/1999/xlink" x="0px" y="0px"
	 width="16px" height="16px" viewBox="0 0 16 16" enable-background="new 0 0 16 16" xml:space="preserve">
<path fill="#444444" d="M8,0C4.1,0,1,3.1,1,7c0,2.3,1.1,4.4,3,5.7V16h8v-3.3c1.9-1.3,3-3.5,3-5.7C15,3.1,11.9,0,8,0z M10.5,11.3
	L10,11.6V14H9v-2H7v2H6v-2.4l-0.5-0.3C4,10.4,3,8.8,3,7c0-2.8,2.2-5,5-5s5,2.2,5,5C13,8.8,12,10.4,10.5,11.3z"/>
<circle data-color="color-2" fill="#444444" cx="5.5" cy="7.5" r="1.5"/>
<circle data-color="color-2" fill="#444444" cx="10.5" cy="7.5" r="1.5"/>
</svg>
