<?xml version="1.0" encoding="utf-8"?>
<!-- Generator: Adobe Illustrator 19.1.0, SVG Export Plug-In . SVG Version: 6.00 Build 0)  -->
<!DOCTYPE svg PUBLIC "-//W3C//DTD SVG 1.1//EN" "http://www.w3.org/Graphics/SVG/1.1/DTD/svg11.dtd">
<svg version="1.1" id="Layer_1" xmlns="http://www.w3.org/2000/svg" xmlns:xlink="http://www.w3.org/1999/xlink" x="0px" y="0px"
	 width="64px" height="64px" viewBox="0 0 64 64" enable-background="new 0 0 64 64" xml:space="preserve">
<path id="color_71_" d="M44.6,13.2L34.8,5C34.9,4.7,35,4.4,35,4c0-1.7-1.3-3-3-3s-3,1.3-3,3c0,0.4,0.1,0.7,0.2,1l-9.8,8.2
	c-0.4,0.4-0.5,1-0.1,1.4c0.2,0.2,0.5,0.4,0.8,0.4c0.2,0,0.5-0.1,0.6-0.2l9.8-8.2C30.9,6.8,31.4,7,32,7c0.6,0,1.1-0.2,1.5-0.4
	l9.8,8.2c0.2,0.2,0.4,0.2,0.6,0.2c0.3,0,0.6-0.1,0.8-0.4C45.1,14.2,45.1,13.6,44.6,13.2z"/>
<polygon points="10,23.4 1,14.4 1,61.6 10,52.6 "/>
<polygon points="2.4,13 11.4,22 52.6,22 61.6,13 "/>
<path d="M52.6,54H49v-5c0-0.6-0.4-1-1-1H34c-0.6,0-1,0.4-1,1v5H11.4l-9,9h59.2L52.6,54z"/>
<polygon points="54,23.4 54,52.6 63,61.6 63,14.4 "/>
</svg>
