<?xml version="1.0" encoding="utf-8"?>
<!-- Generator: Adobe Illustrator 19.1.0, SVG Export Plug-In . SVG Version: 6.00 Build 0)  -->
<!DOCTYPE svg PUBLIC "-//W3C//DTD SVG 1.1//EN" "http://www.w3.org/Graphics/SVG/1.1/DTD/svg11.dtd">
<svg version="1.1" id="Layer_1" xmlns="http://www.w3.org/2000/svg" xmlns:xlink="http://www.w3.org/1999/xlink" x="0px" y="0px"
	 width="64px" height="64px" viewBox="0 0 64 64" enable-background="new 0 0 64 64" xml:space="preserve">
<path id="color_17_" d="M16,13h32c0.6,0,1-0.4,1-1V4c0-0.6-0.4-1-1-1H16c-0.6,0-1,0.4-1,1v8C15,12.6,15.4,13,16,13z"/>
<path id="color_16_" d="M48,51H16c-0.6,0-1,0.4-1,1v8c0,0.6,0.4,1,1,1h32c0.6,0,1-0.4,1-1v-8C49,51.4,48.6,51,48,51z"/>
<path d="M50,15H14c-0.6,0-1,0.4-1,1v32c0,0.6,0.4,1,1,1h36c0.6,0,1-0.4,1-1V16C51,15.4,50.6,15,50,15z M23,40c0,0.6-0.4,1-1,1
	s-1-0.4-1-1V30c0-0.6,0.4-1,1-1s1,0.4,1,1V40z"/>
</svg>
