<?xml version="1.0" encoding="utf-8"?>
<!-- Generator: Adobe Illustrator 19.1.0, SVG Export Plug-In . SVG Version: 6.00 Build 0)  -->
<!DOCTYPE svg PUBLIC "-//W3C//DTD SVG 1.1//EN" "http://www.w3.org/Graphics/SVG/1.1/DTD/svg11.dtd">
<svg version="1.1" id="Layer_1" xmlns="http://www.w3.org/2000/svg" xmlns:xlink="http://www.w3.org/1999/xlink" x="0px" y="0px"
	 width="64px" height="64px" viewBox="0 0 64 64" enable-background="new 0 0 64 64" xml:space="preserve">
<path d="M28.2,14.4l-16.6,6.6c-0.3,0.1-0.6,0.4-0.6,0.8L5.6,54.4c-0.2,1,1,1.6,1.7,0.9l14.6-14.6c-1.3-1.9-1.1-4.6,0.6-6.3
	c0.9-0.9,2.2-1.5,3.5-1.5c1.6,0,3.2,0.8,4.1,2.2c1.2,1.7,1.2,4,0,5.7c-1,1.4-2.5,2.2-4.1,2.2c-1,0-1.9-0.3-2.8-0.8L8.7,56.7
	c-0.7,0.7-0.1,1.9,0.9,1.7L42.2,53c0.3-0.1,0.6-0.3,0.8-0.6l6.6-16.6L28.2,14.4z"/>
<path id="color_24_" d="M60.7,29.3l-26-26c-0.4-0.4-1-0.4-1.4,0l-6,6c-0.4,0.4-0.4,1,0,1.4l26,26c0.2,0.2,0.5,0.3,0.7,0.3
	s0.5-0.1,0.7-0.3l6-6C61.1,30.3,61.1,29.7,60.7,29.3z"/>
</svg>
