<?xml version="1.0" encoding="utf-8"?>
<!-- Generator: Adobe Illustrator 19.1.0, SVG Export Plug-In . SVG Version: 6.00 Build 0)  -->
<!DOCTYPE svg PUBLIC "-//W3C//DTD SVG 1.1//EN" "http://www.w3.org/Graphics/SVG/1.1/DTD/svg11.dtd">
<svg version="1.1" id="Layer_1" xmlns="http://www.w3.org/2000/svg" xmlns:xlink="http://www.w3.org/1999/xlink" x="0px" y="0px"
	 width="64px" height="64px" viewBox="0 0 64 64" enable-background="new 0 0 64 64" xml:space="preserve">
<path d="M20,11h5v20.7L20.1,39h23.7L39,31.7V11h5c0.6,0,1-0.4,1-1V2c0-0.6-0.4-1-1-1H20c-0.6,0-1,0.4-1,1v8C19,10.6,19.4,11,20,11z"
	/>
<path id="color" d="M54.7,55.2L45.2,41H18.8L9.3,55.2c-1,1.6-1.1,3.5-0.2,5.1C10,62,11.6,63,13.5,63h37.1c1.9,0,3.5-1,4.4-2.6
	C55.8,58.7,55.7,56.8,54.7,55.2z"/>
</svg>
