<?xml version="1.0" encoding="utf-8"?>
<!-- Generator: Adobe Illustrator 19.1.0, SVG Export Plug-In . SVG Version: 6.00 Build 0)  -->
<!DOCTYPE svg PUBLIC "-//W3C//DTD SVG 1.1//EN" "http://www.w3.org/Graphics/SVG/1.1/DTD/svg11.dtd">
<svg version="1.1" id="Layer_1" xmlns="http://www.w3.org/2000/svg" xmlns:xlink="http://www.w3.org/1999/xlink" x="0px" y="0px"
	 width="64px" height="64px" viewBox="0 0 64 64" enable-background="new 0 0 64 64" xml:space="preserve">
<path d="M43,1H21c-0.6,0-1,0.4-1,1v9h9c0.6,0,1,0.4,1,1s-0.4,1-1,1h-9v6h5c0.6,0,1,0.4,1,1s-0.4,1-1,1h-5v6h9c0.6,0,1,0.4,1,1
	s-0.4,1-1,1h-9v6h5c0.6,0,1,0.4,1,1s-0.4,1-1,1h-5v6h9c0.6,0,1,0.4,1,1s-0.4,1-1,1h-9v6h5c0.6,0,1,0.4,1,1s-0.4,1-1,1h-5v9
	c0,0.6,0.4,1,1,1h22c0.6,0,1-0.4,1-1V2C44,1.4,43.6,1,43,1z M37.5,10C36.1,10,35,8.9,35,7.5S36.1,5,37.5,5S40,6.1,40,7.5
	S38.9,10,37.5,10z"/>
</svg>
