<?xml version="1.0" encoding="utf-8"?>
<!-- Generator: Adobe Illustrator 19.1.0, SVG Export Plug-In . SVG Version: 6.00 Build 0)  -->
<!DOCTYPE svg PUBLIC "-//W3C//DTD SVG 1.1//EN" "http://www.w3.org/Graphics/SVG/1.1/DTD/svg11.dtd">
<svg version="1.1" id="Layer_1" xmlns="http://www.w3.org/2000/svg" xmlns:xlink="http://www.w3.org/1999/xlink" x="0px" y="0px"
	 width="64px" height="64px" viewBox="0 0 64 64" enable-background="new 0 0 64 64" xml:space="preserve">
<path d="M56,1H12C9.2,1,7,3.2,7,6v50c0,3.9,3.1,7,7,7h42c0.6,0,1-0.4,1-1V50V2C57,1.4,56.6,1,56,1z M27,16c0-0.6,0.4-1,1-1h18
	c0.6,0,1,0.4,1,1v12c0,0.6-0.4,1-1,1H28c-0.6,0-1-0.4-1-1V16z M15,10c0-0.6,0.4-1,1-1s1,0.4,1,1v39h-2V10z M55,61H14
	c-2.8,0-5-2.2-5-5s2.2-5,5-5h41V61z"/>
<path id="color_49_" d="M16,55c-0.6,0-1,0.4-1,1s0.4,1,1,1h39v-2H16z"/>
</svg>
