<?xml version="1.0" encoding="utf-8"?>
<!-- Generator: Adobe Illustrator 19.1.0, SVG Export Plug-In . SVG Version: 6.00 Build 0)  -->
<!DOCTYPE svg PUBLIC "-//W3C//DTD SVG 1.1//EN" "http://www.w3.org/Graphics/SVG/1.1/DTD/svg11.dtd">
<svg version="1.1" id="Layer_1" xmlns="http://www.w3.org/2000/svg" xmlns:xlink="http://www.w3.org/1999/xlink" x="0px" y="0px"
	 width="64px" height="64px" viewBox="0 0 64 64" enable-background="new 0 0 64 64" xml:space="preserve">
<path d="M44.3,21.1L15.1,50.3c-0.4,0.4-0.4,1,0,1.4l4.6,4.6c0.4,0.4,1,0.4,1.4,0l29.2-29.2c0.4-0.4,0.4-1,0-1.4l-4.6-4.6
	C45.3,20.7,44.7,20.7,44.3,21.1z"/>
<path d="M7.7,44.3l4.6,4.6c0.4,0.4,1,0.4,1.4,0l29.2-29.2c0.4-0.4,0.4-1,0-1.4l-4.6-4.6c-0.4-0.4-1-0.4-1.4,0L7.7,42.9
	C7.3,43.3,7.3,43.9,7.7,44.3z"/>
<path id="color_33_" d="M59.7,16.3l-12-12c-0.4-0.4-1-0.4-1.4,0l-6.6,6.6c-0.4,0.4-0.4,1,0,1.4l12,12c0.4,0.4,1,0.4,1.4,0l6.6-6.6
	C60.1,17.3,60.1,16.7,59.7,16.3z"/>
<path id="color_32_" d="M7.4,46.8c-0.6-0.6-1.6-0.3-1.7,0.6L4,58.9c0,0.3,0.1,0.6,0.3,0.8C4.5,59.9,4.7,60,5,60c0,0,0.1,0,0.1,0
	l11.5-1.6c0.8-0.1,1.1-1.1,0.6-1.7L7.4,46.8z"/>
</svg>
