<?xml version="1.0" encoding="utf-8"?>
<!-- Generator: Adobe Illustrator 19.1.0, SVG Export Plug-In . SVG Version: 6.00 Build 0)  -->
<!DOCTYPE svg PUBLIC "-//W3C//DTD SVG 1.1//EN" "http://www.w3.org/Graphics/SVG/1.1/DTD/svg11.dtd">
<svg version="1.1" id="Layer_1" xmlns="http://www.w3.org/2000/svg" xmlns:xlink="http://www.w3.org/1999/xlink" x="0px" y="0px"
	 width="64px" height="64px" viewBox="0 0 64 64" enable-background="new 0 0 64 64" xml:space="preserve">
<path d="M60.7,17.3L57.4,14L42.7,28.7C42.5,28.9,42.3,29,42,29s-0.5-0.1-0.7-0.3l-6-6c-0.4-0.4-0.4-1,0-1.4L50,6.6l-3.3-3.3
	c-0.4-0.4-1-0.4-1.4,0l-34,34c-0.4,0.4-0.4,1,0,1.4l14,14c0.2,0.2,0.5,0.3,0.7,0.3s0.5-0.1,0.7-0.3l34-34
	C61.1,18.3,61.1,17.7,60.7,17.3z"/>
<path id="color_15_" d="M13.2,43.4l-7.9,7.9c-0.3,0.3-0.4,0.6-0.2,1c0.1,0.4,0.4,0.6,0.8,0.7l10,2c0.1,0,0.1,0,0.2,0
	c0.3,0,0.5-0.1,0.7-0.3l3.9-3.9L13.2,43.4z"/>
</svg>
