<?xml version="1.0" encoding="utf-8"?>
<!-- Generator: Adobe Illustrator 19.1.0, SVG Export Plug-In . SVG Version: 6.00 Build 0)  -->
<!DOCTYPE svg PUBLIC "-//W3C//DTD SVG 1.1//EN" "http://www.w3.org/Graphics/SVG/1.1/DTD/svg11.dtd">
<svg version="1.1" id="Layer_1" xmlns="http://www.w3.org/2000/svg" xmlns:xlink="http://www.w3.org/1999/xlink" x="0px" y="0px"
	 width="64px" height="64px" viewBox="0 0 64 64" enable-background="new 0 0 64 64" xml:space="preserve">
<path d="M62,9h-5V8c0-0.6-0.4-1-1-1H36c-1.6,0-3.1,0.8-4,2h0c-0.9-1.2-2.4-2-4-2H8C7.4,7,7,7.4,7,8v1H2c-0.6,0-1,0.4-1,1v46
	c0,0.6,0.4,1,1,1h60c0.6,0,1-0.4,1-1V10C63,9.4,62.6,9,62,9z M9,9h19c1.7,0,3,1.3,3,3c0,0.6,0.4,1,1,1s1-0.4,1-1c0-1.7,1.3-3,3-3h19
	v38H36c-1.6,0-3.1,0.8-4,2c-0.9-1.2-2.4-2-4-2H9V9z"/>
<path d="M32,39c0.6,0,1-0.4,1-1V20c0-0.6-0.4-1-1-1s-1,0.4-1,1v18C31,38.6,31.4,39,32,39z"/>
<path id="color_12_" d="M24,27h-8c-0.6,0-1,0.4-1,1s0.4,1,1,1h8c0.6,0,1-0.4,1-1S24.6,27,24,27z"/>
<path id="color_11_" d="M24,19h-8c-0.6,0-1,0.4-1,1s0.4,1,1,1h8c0.6,0,1-0.4,1-1S24.6,19,24,19z"/>
<path id="color_10_" d="M24,35h-8c-0.6,0-1,0.4-1,1s0.4,1,1,1h8c0.6,0,1-0.4,1-1S24.6,35,24,35z"/>
<path id="color_9_" d="M40,29h8c0.6,0,1-0.4,1-1s-0.4-1-1-1h-8c-0.6,0-1,0.4-1,1S39.4,29,40,29z"/>
<path id="color_8_" d="M40,21h8c0.6,0,1-0.4,1-1s-0.4-1-1-1h-8c-0.6,0-1,0.4-1,1S39.4,21,40,21z"/>
<path id="color_7_" d="M40,37h8c0.6,0,1-0.4,1-1s-0.4-1-1-1h-8c-0.6,0-1,0.4-1,1S39.4,37,40,37z"/>
</svg>
