<?xml version="1.0" encoding="utf-8"?>
<!-- Generator: Adobe Illustrator 19.1.0, SVG Export Plug-In . SVG Version: 6.00 Build 0)  -->
<!DOCTYPE svg PUBLIC "-//W3C//DTD SVG 1.1//EN" "http://www.w3.org/Graphics/SVG/1.1/DTD/svg11.dtd">
<svg version="1.1" id="Layer_1" xmlns="http://www.w3.org/2000/svg" xmlns:xlink="http://www.w3.org/1999/xlink" x="0px" y="0px"
	 width="64px" height="64px" viewBox="0 0 64 64" enable-background="new 0 0 64 64" xml:space="preserve">
<path d="M56,1H6C5.4,1,5,1.4,5,2v60c0,0.6,0.4,1,1,1h50c0.6,0,1-0.4,1-1V2C57,1.4,56.6,1,56,1z M14,47c-1.7,0-3-1.3-3-3s1.3-3,3-3
	s3,1.3,3,3S15.7,47,14,47z M14,35c-1.7,0-3-1.3-3-3s1.3-3,3-3s3,1.3,3,3S15.7,35,14,35z M14,23c-1.7,0-3-1.3-3-3s1.3-3,3-3
	s3,1.3,3,3S15.7,23,14,23z M49,42c0,0.6-0.4,1-1,1H26c-0.6,0-1-0.4-1-1V24c0-0.6,0.4-1,1-1h22c0.6,0,1,0.4,1,1V42z"/>
<path id="color_19_" d="M42,31H32c-0.6,0-1-0.4-1-1s0.4-1,1-1h10c0.6,0,1,0.4,1,1S42.6,31,42,31z"/>
<path id="color_18_" d="M36,37h-4c-0.6,0-1-0.4-1-1s0.4-1,1-1h4c0.6,0,1,0.4,1,1S36.6,37,36,37z"/>
</svg>
