<?xml version="1.0" encoding="utf-8"?>
<!-- Generator: Adobe Illustrator 19.1.0, SVG Export Plug-In . SVG Version: 6.00 Build 0)  -->
<!DOCTYPE svg PUBLIC "-//W3C//DTD SVG 1.1//EN" "http://www.w3.org/Graphics/SVG/1.1/DTD/svg11.dtd">
<svg version="1.1" id="Layer_1" xmlns="http://www.w3.org/2000/svg" xmlns:xlink="http://www.w3.org/1999/xlink" x="0px" y="0px"
	 width="64px" height="64px" viewBox="0 0 64 64" enable-background="new 0 0 64 64" xml:space="preserve">
<path d="M43,11c2.9,0,5.6,0.8,8,2.2V2c0-0.6-0.4-1-1-1H2C1.4,1,1,1.4,1,2v60c0,0.6,0.4,1,1,1h48c0.6,0,1-0.4,1-1V40.8
	c-2.4,1.4-5.2,2.2-8,2.2c-8.8,0-16-7.2-16-16S34.2,11,43,11z M12,17h12c0.6,0,1,0.4,1,1s-0.4,1-1,1H12c-0.6,0-1-0.4-1-1
	S11.4,17,12,17z M12,31h11c0.6,0,1,0.4,1,1s-0.4,1-1,1H12c-0.6,0-1-0.4-1-1S11.4,31,12,31z M33,45c0.6,0,1,0.4,1,1s-0.4,1-1,1H12
	c-0.6,0-1-0.4-1-1s0.4-1,1-1H33z"/>
<path id="color_62_" d="M62.7,45.3l-9.1-9.1c2.1-2.5,3.4-5.7,3.4-9.2c0-7.7-6.3-14-14-14s-14,6.3-14,14s6.3,14,14,14
	c3.5,0,6.7-1.3,9.2-3.4l9.1,9.1c0.2,0.2,0.5,0.3,0.7,0.3s0.5-0.1,0.7-0.3C63.1,46.3,63.1,45.7,62.7,45.3z M43,39
	c-6.3,0-11.4-4.9-11.9-11H44c0.6,0,1-0.4,1-1s-0.4-1-1-1H31.1c0.5-6.1,5.7-11,11.9-11c6.6,0,12,5.4,12,12S49.6,39,43,39z"/>
</svg>
