<?xml version="1.0" encoding="utf-8"?>
<!-- Generator: Adobe Illustrator 19.1.0, SVG Export Plug-In . SVG Version: 6.00 Build 0)  -->
<!DOCTYPE svg PUBLIC "-//W3C//DTD SVG 1.1//EN" "http://www.w3.org/Graphics/SVG/1.1/DTD/svg11.dtd">
<svg version="1.1" id="Layer_1" xmlns="http://www.w3.org/2000/svg" xmlns:xlink="http://www.w3.org/1999/xlink" x="0px" y="0px"
	 width="64px" height="64px" viewBox="0 0 64 64" enable-background="new 0 0 64 64" xml:space="preserve">
<path d="M57.7,26.3L54.4,23l2.3-2.3c0.4-0.4,0.4-1,0-1.4l-12-12c-0.4-0.4-1-0.4-1.4,0l-26,26c-0.4,0.4-0.4,1,0,1.4l12,12
	c0.2,0.2,0.5,0.3,0.7,0.3s0.5-0.1,0.7-0.3L53,24.4l2.6,2.6L40.3,42.3c-0.4,0.4-0.4,1,0,1.4c0.2,0.2,0.5,0.3,0.7,0.3s0.5-0.1,0.7-0.3
	l16-16C58.1,27.3,58.1,26.7,57.7,26.3z"/>
<path id="color_23_" d="M18.2,38.4L6.3,50.3c-0.4,0.4-0.4,1,0,1.4L8.6,54l-5.3,5.3c-0.4,0.4-0.4,1,0,1.4C3.5,60.9,3.7,61,4,61
	s0.5-0.1,0.7-0.3l5.3-5.3l2.3,2.3c0.2,0.2,0.5,0.3,0.7,0.3s0.5-0.1,0.7-0.3l11.9-11.9L18.2,38.4z"/>
<path id="color_22_" d="M60.7,11.3l-8-8c-0.4-0.4-1-0.4-1.4,0l-3.9,3.9l9.4,9.4l3.9-3.9C61.1,12.3,61.1,11.7,60.7,11.3z"/>
</svg>
