<?xml version="1.0" encoding="utf-8"?>
<!-- Generator: Adobe Illustrator 19.1.0, SVG Export Plug-In . SVG Version: 6.00 Build 0)  -->
<!DOCTYPE svg PUBLIC "-//W3C//DTD SVG 1.1//EN" "http://www.w3.org/Graphics/SVG/1.1/DTD/svg11.dtd">
<svg version="1.1" id="Layer_1" xmlns="http://www.w3.org/2000/svg" xmlns:xlink="http://www.w3.org/1999/xlink" x="0px" y="0px"
	 width="64px" height="64px" viewBox="0 0 64 64" enable-background="new 0 0 64 64" xml:space="preserve">
<path d="M62,13h-3V6c0-0.3-0.1-0.6-0.4-0.8C58.4,5,58.1,5,57.8,5L32,11L6.2,5C5.9,5,5.6,5,5.4,5.2C5.1,5.4,5,5.7,5,6v7H2
	c-0.6,0-1,0.4-1,1v44c0,0.6,0.4,1,1,1h60c0.6,0,1-0.4,1-1V14C63,13.4,62.6,13,62,13z M57,47.2l-24,5.5V12.8l24-5.5V47.2z M7,7.3
	l24,5.5v39.9L7,47.2V7.3z"/>
</svg>
