<?xml version="1.0" encoding="utf-8"?>
<!-- Generator: Adobe Illustrator 19.1.0, SVG Export Plug-In . SVG Version: 6.00 Build 0)  -->
<!DOCTYPE svg PUBLIC "-//W3C//DTD SVG 1.1//EN" "http://www.w3.org/Graphics/SVG/1.1/DTD/svg11.dtd">
<svg version="1.1" id="Layer_1" xmlns="http://www.w3.org/2000/svg" xmlns:xlink="http://www.w3.org/1999/xlink" x="0px" y="0px"
	 width="64px" height="64px" viewBox="0 0 64 64" enable-background="new 0 0 64 64" xml:space="preserve">
<path id="color_21_" d="M38,35H26c-0.6,0-1-0.4-1-1s0.4-1,1-1h12c0.6,0,1,0.4,1,1S38.6,35,38,35z"/>
<path id="color_20_" d="M32,41h-6c-0.6,0-1-0.4-1-1s0.4-1,1-1h6c0.6,0,1,0.4,1,1S32.6,41,32,41z"/>
<path d="M52,7h-9V2c0-0.6-0.4-1-1-1s-1,0.4-1,1v5h-8V2c0-0.6-0.4-1-1-1s-1,0.4-1,1v5h-8V2c0-0.6-0.4-1-1-1s-1,0.4-1,1v5h-9
	c-0.6,0-1,0.4-1,1v54c0,0.6,0.4,1,1,1h40c0.6,0,1-0.4,1-1V8C53,7.4,52.6,7,52,7z M42,12c1.1,0,2,0.9,2,2s-0.9,2-2,2s-2-0.9-2-2
	S40.9,12,42,12z M32,12c1.1,0,2,0.9,2,2s-0.9,2-2,2s-2-0.9-2-2S30.9,12,32,12z M22,12c1.1,0,2,0.9,2,2s-0.9,2-2,2s-2-0.9-2-2
	S20.9,12,22,12z M45,46c0,0.6-0.4,1-1,1H20c-0.6,0-1-0.4-1-1V28c0-0.6,0.4-1,1-1h24c0.6,0,1,0.4,1,1V46z"/>
</svg>
