<?xml version="1.0" encoding="utf-8"?>
<!-- Generator: Adobe Illustrator 19.1.0, SVG Export Plug-In . SVG Version: 6.00 Build 0)  -->
<!DOCTYPE svg PUBLIC "-//W3C//DTD SVG 1.1//EN" "http://www.w3.org/Graphics/SVG/1.1/DTD/svg11.dtd">
<svg version="1.1" id="Layer_1" xmlns="http://www.w3.org/2000/svg" xmlns:xlink="http://www.w3.org/1999/xlink" x="0px" y="0px"
	 width="64px" height="64px" viewBox="0 0 64 64" enable-background="new 0 0 64 64" xml:space="preserve">
<path d="M59.9,12.5l-8.3-8.3c-0.9-0.9-2.2-1.5-3.5-1.5s-2.6,0.5-3.5,1.5L5.3,43.3c-0.1,0.1-0.2,0.2-0.2,0.3c0,0,0,0.1,0,0.1
	c0,0.1,0,0.1,0,0.2l-2,16c0,0.3,0.1,0.6,0.3,0.8C3.5,60.9,3.7,61,4,61c0,0,0.1,0,0.1,0l16-2c0.1,0,0.1,0,0.2,0c0,0,0.1,0,0.1,0
	c0.1,0,0.2-0.1,0.3-0.2l30-30c0,0,0,0,0,0s0,0,0,0l6-6l0,0l0,0l3.2-3.2c0.9-0.9,1.5-2.2,1.5-3.5S60.8,13.4,59.9,12.5z M10.6,58.2
	l-4.8-4.8l0.9-7.3l11.1,11.1L10.6,58.2z M40.7,24.7l-24,24C16.5,48.9,16.3,49,16,49s-0.5-0.1-0.7-0.3c-0.4-0.4-0.4-1,0-1.4l24-24
	c0.4-0.4,1-0.4,1.4,0S41.1,24.3,40.7,24.7z M50,26.6L37.4,14L42,9.4L54.6,22L50,26.6z"/>
</svg>
