<?xml version="1.0" encoding="utf-8"?>
<!-- Generator: Adobe Illustrator 19.1.0, SVG Export Plug-In . SVG Version: 6.00 Build 0)  -->
<!DOCTYPE svg PUBLIC "-//W3C//DTD SVG 1.1//EN" "http://www.w3.org/Graphics/SVG/1.1/DTD/svg11.dtd">
<svg version="1.1" id="Layer_1" xmlns="http://www.w3.org/2000/svg" xmlns:xlink="http://www.w3.org/1999/xlink" x="0px" y="0px"
	 width="64px" height="64px" viewBox="0 0 64 64" enable-background="new 0 0 64 64" xml:space="preserve">
<path d="M56,1H45v17c0,0.4-0.2,0.7-0.5,0.9C44.3,19,44.2,19,44,19c-0.2,0-0.4-0.1-0.6-0.2L38,15.2l-5.4,3.6c-0.3,0.2-0.7,0.2-1,0
	C31.2,18.7,31,18.4,31,18V1H12C9.2,1,7,3.2,7,6v50c0,3.9,3.1,7,7,7h42c0.6,0,1-0.4,1-1V50V2C57,1.4,56.6,1,56,1z M15,10
	c0-0.6,0.4-1,1-1s1,0.4,1,1v39h-2V10z M55,61H14c-2.8,0-5-2.2-5-5s2.2-5,5-5h41V61z"/>
<path id="color_48_" d="M16,55c-0.6,0-1,0.4-1,1s0.4,1,1,1h39v-2H16z"/>
</svg>
