<?xml version="1.0" encoding="utf-8"?>
<!-- Generator: Adobe Illustrator 19.1.0, SVG Export Plug-In . SVG Version: 6.00 Build 0)  -->
<!DOCTYPE svg PUBLIC "-//W3C//DTD SVG 1.1//EN" "http://www.w3.org/Graphics/SVG/1.1/DTD/svg11.dtd">
<svg version="1.1" id="Layer_1" xmlns="http://www.w3.org/2000/svg" xmlns:xlink="http://www.w3.org/1999/xlink" x="0px" y="0px"
	 width="64px" height="64px" viewBox="0 0 64 64" enable-background="new 0 0 64 64" xml:space="preserve">
<path d="M58.6,61.3l-54-56C4.4,5,3.9,4.9,3.6,5.1C3.2,5.2,2.9,5.6,2.9,6v15h2c0.6,0,1,0.4,1,1s-0.4,1-1,1h-2v6h5c0.6,0,1,0.4,1,1
	s-0.4,1-1,1h-5v6h2c0.6,0,1,0.4,1,1s-0.4,1-1,1h-2v6h5c0.6,0,1,0.4,1,1s-0.4,1-1,1h-5v6h2c0.6,0,1,0.4,1,1s-0.4,1-1,1h-2v7
	c0,0.6,0.4,1,1,1h54c0.4,0,0.8-0.2,0.9-0.6S58.9,61.6,58.6,61.3z M32.9,50.4c-0.2,0.4-0.5,0.6-0.9,0.6h-14c-0.6,0-1-0.4-1-1V36
	c0-0.4,0.2-0.8,0.6-0.9c0.4-0.2,0.8-0.1,1.1,0.2l14,14C32.9,49.6,33,50,32.9,50.4z"/>
</svg>
