<?xml version="1.0" encoding="utf-8"?>
<!-- Generator: Adobe Illustrator 19.1.0, SVG Export Plug-In . SVG Version: 6.00 Build 0)  -->
<!DOCTYPE svg PUBLIC "-//W3C//DTD SVG 1.1//EN" "http://www.w3.org/Graphics/SVG/1.1/DTD/svg11.dtd">
<svg version="1.1" id="Layer_1" xmlns="http://www.w3.org/2000/svg" xmlns:xlink="http://www.w3.org/1999/xlink" x="0px" y="0px"
	 width="64px" height="64px" viewBox="0 0 64 64" enable-background="new 0 0 64 64" xml:space="preserve">
<path d="M62,13H46.4l-7.7-7.7C38.5,5.1,38.3,5,38,5H26c-0.3,0-0.5,0.1-0.7,0.3L17.6,13H2c-0.6,0-1,0.4-1,1v44c0,0.6,0.4,1,1,1h60
	c0.6,0,1-0.4,1-1V14C63,13.4,62.6,13,62,13z M61,57H3V15h15c0.3,0,0.5-0.1,0.7-0.3L26.4,7h11.2l7.7,7.7c0.2,0.2,0.4,0.3,0.7,0.3h15
	V57z"/>
<path d="M12,9c0.6,0,1-0.4,1-1s-0.4-1-1-1H6C5.4,7,5,7.4,5,8s0.4,1,1,1H12z"/>
<path d="M33,37V24c0-0.6-0.4-1-1-1s-1,0.4-1,1v14c0,0.6,0.4,1,1,1h14c0.6,0,1-0.4,1-1s-0.4-1-1-1H33z"/>
</svg>
