<?xml version="1.0" encoding="utf-8"?>
<!-- Generator: Adobe Illustrator 19.1.0, SVG Export Plug-In . SVG Version: 6.00 Build 0)  -->
<!DOCTYPE svg PUBLIC "-//W3C//DTD SVG 1.1//EN" "http://www.w3.org/Graphics/SVG/1.1/DTD/svg11.dtd">
<svg version="1.1" id="Layer_1" xmlns="http://www.w3.org/2000/svg" xmlns:xlink="http://www.w3.org/1999/xlink" x="0px" y="0px"
	 width="64px" height="64px" viewBox="0 0 64 64" enable-background="new 0 0 64 64" xml:space="preserve">
<path d="M62,1H2C1.4,1,1,1.4,1,2v60c0,0.6,0.4,1,1,1h60c0.6,0,1-0.4,1-1V2C63,1.4,62.6,1,62,1z M61,61H3V3h58V61z"/>
<path d="M23.5,34.9C23.7,35,23.8,35,24,35c0.2,0,0.4-0.1,0.5-0.2l16-10c0.3-0.2,0.5-0.5,0.5-0.8s-0.2-0.7-0.5-0.8l-16-10
	c-0.3-0.2-0.7-0.2-1,0C23.2,13.3,23,13.6,23,14v20C23,34.4,23.2,34.7,23.5,34.9z M25,15.8L38.1,24L25,32.2V15.8z"/>
<path d="M48,49h6c0.6,0,1-0.4,1-1s-0.4-1-1-1h-6c-0.6,0-1,0.4-1,1S47.4,49,48,49z"/>
<path d="M10,49h21.1c0.5,2.3,2.5,4,4.9,4c2.8,0,5-2.2,5-5s-2.2-5-5-5c-2.4,0-4.4,1.7-4.9,4H10c-0.6,0-1,0.4-1,1S9.4,49,10,49z
	 M36,45c1.7,0,3,1.3,3,3s-1.3,3-3,3s-3-1.3-3-3S34.3,45,36,45z"/>
</svg>
