<?xml version="1.0" encoding="utf-8"?>
<!-- Generator: Adobe Illustrator 19.1.0, SVG Export Plug-In . SVG Version: 6.00 Build 0)  -->
<!DOCTYPE svg PUBLIC "-//W3C//DTD SVG 1.1//EN" "http://www.w3.org/Graphics/SVG/1.1/DTD/svg11.dtd">
<svg version="1.1" id="Layer_1" xmlns="http://www.w3.org/2000/svg" xmlns:xlink="http://www.w3.org/1999/xlink" x="0px" y="0px"
	 width="64px" height="64px" viewBox="0 0 64 64" enable-background="new 0 0 64 64" xml:space="preserve">
<path d="M62,1H2C1.4,1,1,1.4,1,2v60c0,0.6,0.4,1,1,1h60c0.6,0,1-0.4,1-1V2C63,1.4,62.6,1,62,1z M61,61H3V3h58V61z"/>
<path d="M10,51c0.3,0,0.6-0.1,0.8-0.3l13.4-15.3l13.3,9.5c0.4,0.3,1,0.2,1.3-0.1l16-18c0.4-0.4,0.3-1-0.1-1.4
	c-0.4-0.4-1-0.3-1.4,0.1L37.8,42.7l-13.3-9.5c-0.4-0.3-1-0.2-1.3,0.2l-14,16c-0.4,0.4-0.3,1,0.1,1.4C9.5,50.9,9.8,51,10,51z"/>
<path d="M28,25c3.9,0,7-3.1,7-7s-3.1-7-7-7s-7,3.1-7,7S24.1,25,28,25z M28,13c2.8,0,5,2.2,5,5s-2.2,5-5,5s-5-2.2-5-5S25.2,13,28,13z
	"/>
</svg>
