<?xml version="1.0" encoding="utf-8"?>
<!-- Generator: Adobe Illustrator 19.1.0, SVG Export Plug-In . SVG Version: 6.00 Build 0)  -->
<!DOCTYPE svg PUBLIC "-//W3C//DTD SVG 1.1//EN" "http://www.w3.org/Graphics/SVG/1.1/DTD/svg11.dtd">
<svg version="1.1" id="Layer_1" xmlns="http://www.w3.org/2000/svg" xmlns:xlink="http://www.w3.org/1999/xlink" x="0px" y="0px"
	 width="64px" height="64px" viewBox="0 0 64 64" enable-background="new 0 0 64 64" xml:space="preserve">
<path d="M49,16V4c0-0.4-0.2-0.7-0.6-0.9c-0.3-0.2-0.7-0.1-1,0.1L40,8.8l-7.4-5.5c-0.4-0.3-0.8-0.3-1.2,0L24,8.8l-7.4-5.5
	c-0.3-0.2-0.7-0.3-1-0.1C15.2,3.3,15,3.6,15,4v12c0,9,7.1,16.4,16,16.9v19.2l-20.5-13c-0.3-0.2-0.7-0.2-1,0C9.2,39.3,9,39.6,9,40v10
	c0,7.2,5.8,13,13,13h20c7.2,0,13-5.8,13-13V40c0-0.4-0.2-0.7-0.5-0.9c-0.3-0.2-0.7-0.2-1,0L33,52.2V32.9C41.9,32.4,49,25,49,16z
	 M17,16V6l6.4,4.8c0.4,0.3,0.8,0.3,1.2,0L32,5.2l7.4,5.5c0.4,0.3,0.8,0.3,1.2,0L47,6v10c0,8.3-6.7,15-15,15S17,24.3,17,16z M53,50
	c0,6.1-4.9,11-11,11H22c-6.1,0-11-4.9-11-11v-8.2l20.5,13c0,0,0.1,0,0.1,0c0,0,0.1,0,0.1,0c0.1,0,0.2,0.1,0.3,0.1c0,0,0,0,0,0
	s0,0,0,0c0.1,0,0.2,0,0.3-0.1c0,0,0.1,0,0.1,0c0,0,0.1,0,0.1,0l20.5-13V50z"/>
</svg>
