<?xml version="1.0" encoding="utf-8"?>
<!-- Generator: Adobe Illustrator 19.1.0, SVG Export Plug-In . SVG Version: 6.00 Build 0)  -->
<!DOCTYPE svg PUBLIC "-//W3C//DTD SVG 1.1//EN" "http://www.w3.org/Graphics/SVG/1.1/DTD/svg11.dtd">
<svg version="1.1" id="Layer_1" xmlns="http://www.w3.org/2000/svg" xmlns:xlink="http://www.w3.org/1999/xlink" x="0px" y="0px"
	 width="64px" height="64px" viewBox="0 0 64 64" enable-background="new 0 0 64 64" xml:space="preserve">
<path d="M12,17c1.7,0,3-1.3,3-3s-1.3-3-3-3s-3,1.3-3,3S10.3,17,12,17z M12,13c0.6,0,1,0.4,1,1s-0.4,1-1,1s-1-0.4-1-1S11.4,13,12,13z
	"/>
<path d="M51.1,1H12.9C6.3,1,1,6.3,1,12.9v38.2C1,57.7,6.3,63,12.9,63h38.2C57.7,63,63,57.7,63,51.1V12.9C63,6.3,57.7,1,51.1,1z
	 M27,45v-9c1.5,0.6,3.2,1,5,1s3.5-0.4,5-1v9H27z M32,35c-6.1,0-11-4.9-11-11s4.9-11,11-11s11,4.9,11,11S38.1,35,32,35z M32,11
	c-1.8,0-3.5,0.4-5,1V3h10v9C35.5,11.4,33.8,11,32,11z M12.9,3H25v10.1c-3.6,2.3-6,6.3-6,10.9s2.4,8.6,6,10.9V45H3V12.9
	C3,7.4,7.4,3,12.9,3z M51.1,61H12.9C7.4,61,3,56.6,3,51.1V47h58v4.1C61,56.6,56.6,61,51.1,61z M61,45H39V34.9c3.6-2.3,6-6.3,6-10.9
	s-2.4-8.6-6-10.9V3h12.1c5.5,0,9.9,4.4,9.9,9.9V45z"/>
<path d="M46,53H18c-0.6,0-1,0.4-1,1s0.4,1,1,1h28c0.6,0,1-0.4,1-1S46.6,53,46,53z"/>
</svg>
