<?xml version="1.0" encoding="utf-8"?>
<!-- Generator: Adobe Illustrator 19.1.0, SVG Export Plug-In . SVG Version: 6.00 Build 0)  -->
<!DOCTYPE svg PUBLIC "-//W3C//DTD SVG 1.1//EN" "http://www.w3.org/Graphics/SVG/1.1/DTD/svg11.dtd">
<svg version="1.1" id="Layer_1" xmlns="http://www.w3.org/2000/svg" xmlns:xlink="http://www.w3.org/1999/xlink" x="0px" y="0px"
	 width="64px" height="64px" viewBox="0 0 64 64" enable-background="new 0 0 64 64" xml:space="preserve">
<path d="M54,9H10c-0.6,0-1,0.4-1,1v44c0,0.6,0.4,1,1,1h44c0.6,0,1-0.4,1-1V10C55,9.4,54.6,9,54,9z M53,53H11V11h42V53z"/>
<path d="M2,17c-0.6,0-1,0.4-1,1v28c0,0.6,0.4,1,1,1s1-0.4,1-1V18C3,17.4,2.6,17,2,17z"/>
<path d="M62,17c-0.6,0-1,0.4-1,1v28c0,0.6,0.4,1,1,1s1-0.4,1-1V18C63,17.4,62.6,17,62,17z"/>
<path d="M22,45c2.8,0,5-2.2,5-5V21h16v11c-0.8-0.6-1.9-1-3-1c-2.8,0-5,2.2-5,5s2.2,5,5,5s5-2.2,5-5V20c0-0.6-0.4-1-1-1H26
	c-0.6,0-1,0.4-1,1v16c-0.8-0.6-1.9-1-3-1c-2.8,0-5,2.2-5,5S19.2,45,22,45z M40,39c-1.7,0-3-1.3-3-3s1.3-3,3-3s3,1.3,3,3
	S41.7,39,40,39z M22,37c1.7,0,3,1.3,3,3s-1.3,3-3,3s-3-1.3-3-3S20.3,37,22,37z"/>
</svg>
