<?xml version="1.0" encoding="utf-8"?>
<!-- Generator: Adobe Illustrator 19.1.0, SVG Export Plug-In . SVG Version: 6.00 Build 0)  -->
<!DOCTYPE svg PUBLIC "-//W3C//DTD SVG 1.1//EN" "http://www.w3.org/Graphics/SVG/1.1/DTD/svg11.dtd">
<svg version="1.1" id="Layer_1" xmlns="http://www.w3.org/2000/svg" xmlns:xlink="http://www.w3.org/1999/xlink" x="0px" y="0px"
	 width="64px" height="64px" viewBox="0 0 64 64" enable-background="new 0 0 64 64" xml:space="preserve">
<path d="M19,28v34c0,0.6,0.4,1,1,1h40c0.6,0,1-0.4,1-1V28c0-0.6-0.4-1-1-1H20C19.4,27,19,27.4,19,28z M21,61v-4.5l9.1-7.3l9.4,5.6
	c0.4,0.2,0.9,0.2,1.2-0.2l9.3-9.3l9,9V61H21z M59,29v22.6l-8.3-8.3c-0.4-0.4-1-0.4-1.4,0l-9.4,9.4l-9.3-5.6
	c-0.4-0.2-0.8-0.2-1.1,0.1L21,53.9V29H59z"/>
<path d="M38,45c2.8,0,5-2.2,5-5s-2.2-5-5-5s-5,2.2-5,5S35.2,45,38,45z M38,37c1.7,0,3,1.3,3,3s-1.3,3-3,3s-3-1.3-3-3S36.3,37,38,37z
	"/>
<path d="M4,35c0.6,0,1-0.4,1-1V24c0-6.1,4.9-11,11-11h13.6l-6.3,6.3c-0.4,0.4-0.4,1,0,1.4c0.2,0.2,0.5,0.3,0.7,0.3s0.5-0.1,0.7-0.3
	l8-8c0.1-0.1,0.2-0.2,0.2-0.3c0.1-0.2,0.1-0.5,0-0.8c-0.1-0.1-0.1-0.2-0.2-0.3l-8-8c-0.4-0.4-1-0.4-1.4,0s-0.4,1,0,1.4l6.3,6.3H16
	C8.8,11,3,16.8,3,24v10C3,34.6,3.4,35,4,35z"/>
</svg>
