<?xml version="1.0" encoding="utf-8"?>
<!-- Generator: Adobe Illustrator 19.1.0, SVG Export Plug-In . SVG Version: 6.00 Build 0)  -->
<!DOCTYPE svg PUBLIC "-//W3C//DTD SVG 1.1//EN" "http://www.w3.org/Graphics/SVG/1.1/DTD/svg11.dtd">
<svg version="1.1" id="Layer_1" xmlns="http://www.w3.org/2000/svg" xmlns:xlink="http://www.w3.org/1999/xlink" x="0px" y="0px"
	 width="64px" height="64px" viewBox="0 0 64 64" enable-background="new 0 0 64 64" xml:space="preserve">
<path d="M62,7H2C1.4,7,1,7.4,1,8v48c0,0.6,0.4,1,1,1h60c0.6,0,1-0.4,1-1V8C63,7.4,62.6,7,62,7z M61,55H3V9h58V55z"/>
<path d="M24,47c8.3,0,15-6.7,15-15s-6.7-15-15-15S9,23.7,9,32S15.7,47,24,47z M24,19c7.2,0,13,5.8,13,13s-5.8,13-13,13
	s-13-5.8-13-13S16.8,19,24,19z"/>
<path d="M50,30c-0.6,0-1,0.4-1,1v15c0,0.6,0.4,1,1,1s1-0.4,1-1V31C51,30.4,50.6,30,50,30z"/>
<path d="M46,25h8c0.6,0,1-0.4,1-1s-0.4-1-1-1h-3v-5c0-0.6-0.4-1-1-1s-1,0.4-1,1v5h-3c-0.6,0-1,0.4-1,1S45.4,25,46,25z"/>
<path d="M24,37c2.8,0,5-2.2,5-5s-2.2-5-5-5s-5,2.2-5,5S21.2,37,24,37z M24,29c1.7,0,3,1.3,3,3s-1.3,3-3,3s-3-1.3-3-3S22.3,29,24,29z
	"/>
</svg>
