<?xml version="1.0" encoding="utf-8"?>
<!-- Generator: Adobe Illustrator 19.1.0, SVG Export Plug-In . SVG Version: 6.00 Build 0)  -->
<!DOCTYPE svg PUBLIC "-//W3C//DTD SVG 1.1//EN" "http://www.w3.org/Graphics/SVG/1.1/DTD/svg11.dtd">
<svg version="1.1" id="Layer_1" xmlns="http://www.w3.org/2000/svg" xmlns:xlink="http://www.w3.org/1999/xlink" x="0px" y="0px"
	 width="64px" height="64px" viewBox="0 0 64 64" enable-background="new 0 0 64 64" xml:space="preserve">
<path d="M62,1H2C1.4,1,1,1.4,1,2v60c0,0.6,0.4,1,1,1h60c0.6,0,1-0.4,1-1V2C63,1.4,62.6,1,62,1z M61,61H3V3h58V61z"/>
<path d="M10,53h44c0.4,0,0.7-0.2,0.9-0.5s0.2-0.7,0-1l-14-24C40.7,27.2,40.4,27,40,27c-0.3,0-0.7,0.1-0.9,0.4l-9.4,13.1l-9.2-7.3
	C20.4,33,20.1,33,19.8,33c-0.3,0.1-0.5,0.2-0.7,0.5l-10,18c-0.2,0.3-0.2,0.7,0,1C9.3,52.8,9.6,53,10,53z M20.3,35.5l9.1,7.3
	c0.2,0.2,0.5,0.2,0.8,0.2c0.3,0,0.5-0.2,0.7-0.4l9.1-12.7L52.3,51H11.7L20.3,35.5z"/>
<path d="M28,25c3.9,0,7-3.1,7-7s-3.1-7-7-7s-7,3.1-7,7S24.1,25,28,25z M28,13c2.8,0,5,2.2,5,5s-2.2,5-5,5s-5-2.2-5-5S25.2,13,28,13z
	"/>
</svg>
