<?xml version="1.0" encoding="utf-8"?>
<!-- Generator: Adobe Illustrator 19.1.0, SVG Export Plug-In . SVG Version: 6.00 Build 0)  -->
<!DOCTYPE svg PUBLIC "-//W3C//DTD SVG 1.1//EN" "http://www.w3.org/Graphics/SVG/1.1/DTD/svg11.dtd">
<svg version="1.1" id="Layer_1" xmlns="http://www.w3.org/2000/svg" xmlns:xlink="http://www.w3.org/1999/xlink" x="0px" y="0px"
	 width="64px" height="64px" viewBox="0 0 64 64" enable-background="new 0 0 64 64" xml:space="preserve">
<path d="M40.8,1.4C40.6,1.1,40.3,1,40,1H18c-0.5,0-0.8,0.3-1,0.7l-8,30C9,32,9,32.4,9.2,32.6C9.4,32.9,9.7,33,10,33h14.8L21,55.8
	c-0.1,0.4,0.2,0.9,0.6,1.1C21.7,57,21.9,57,22,57c0.3,0,0.6-0.1,0.7-0.3l32-36c0.3-0.3,0.3-0.7,0.2-1.1C54.8,19.2,54.4,19,54,19
	H37.2L41,2.2C41,1.9,41,1.6,40.8,1.4z M35,19.8c-0.1,0.3,0,0.6,0.2,0.8c0.2,0.2,0.5,0.4,0.8,0.4h15.8L23.6,52.7L27,32.2
	c0-0.3,0-0.6-0.2-0.8C26.6,31.1,26.3,31,26,31H11.3l7.5-28h20L35,19.8z"/>
</svg>
