<?xml version="1.0" encoding="utf-8"?>
<!-- Generator: Adobe Illustrator 19.1.0, SVG Export Plug-In . SVG Version: 6.00 Build 0)  -->
<!DOCTYPE svg PUBLIC "-//W3C//DTD SVG 1.1//EN" "http://www.w3.org/Graphics/SVG/1.1/DTD/svg11.dtd">
<svg version="1.1" id="Layer_1" xmlns="http://www.w3.org/2000/svg" xmlns:xlink="http://www.w3.org/1999/xlink" x="0px" y="0px"
	 width="64px" height="64px" viewBox="0 0 64 64" enable-background="new 0 0 64 64" xml:space="preserve">
<path d="M32,63c7.9,0,15.9-3,21.9-9.1C66,41.8,66,22.2,53.9,10.1C41.8-2,22.2-2,10.1,10.1C-2,22.2-2,41.8,10.1,53.9
	C16.1,60,24.1,63,32,63z M11.5,11.5C17,6,24.3,3,32,3s15,3,20.5,8.5S61,24.3,61,32s-3,15-8.5,20.5S39.7,61,32,61s-15-3-20.5-8.5
	S3,39.7,3,32S6,17,11.5,11.5z"/>
<path d="M32,23c3.9,0,7-3.1,7-7s-3.1-7-7-7s-7,3.1-7,7S28.1,23,32,23z M32,11c2.8,0,5,2.2,5,5s-2.2,5-5,5s-5-2.2-5-5S29.2,11,32,11z
	"/>
<path d="M32,55c3.9,0,7-3.1,7-7s-3.1-7-7-7s-7,3.1-7,7S28.1,55,32,55z M32,43c2.8,0,5,2.2,5,5s-2.2,5-5,5s-5-2.2-5-5S29.2,43,32,43z
	"/>
<path d="M23,32c0-3.9-3.1-7-7-7s-7,3.1-7,7s3.1,7,7,7S23,35.9,23,32z M11,32c0-2.8,2.2-5,5-5s5,2.2,5,5s-2.2,5-5,5S11,34.8,11,32z"
	/>
<path d="M48,39c3.9,0,7-3.1,7-7s-3.1-7-7-7s-7,3.1-7,7S44.1,39,48,39z M48,27c2.8,0,5,2.2,5,5s-2.2,5-5,5s-5-2.2-5-5S45.2,27,48,27z
	"/>
</svg>
