<?xml version="1.0" encoding="utf-8"?>
<!-- Generator: Adobe Illustrator 19.1.0, SVG Export Plug-In . SVG Version: 6.00 Build 0)  -->
<!DOCTYPE svg PUBLIC "-//W3C//DTD SVG 1.1//EN" "http://www.w3.org/Graphics/SVG/1.1/DTD/svg11.dtd">
<svg version="1.1" id="Layer_1" xmlns="http://www.w3.org/2000/svg" xmlns:xlink="http://www.w3.org/1999/xlink" x="0px" y="0px"
	 width="64px" height="64px" viewBox="0 0 64 64" enable-background="new 0 0 64 64" xml:space="preserve">
<path d="M33,6.1c-3.9,3.9-5.6,9.2-5,14.4L7.5,47.3c-0.3,0.4-0.3,1,0.1,1.3l7.8,7.8c0.2,0.2,0.5,0.3,0.7,0.3c0.2,0,0.4-0.1,0.6-0.2
	L43.5,36c0.6,0.1,1.3,0.1,1.9,0.1c4.5,0,9-1.7,12.4-5.1c6.8-6.9,6.8-18,0-24.8C51-0.7,39.9-0.7,33,6.1z M16.2,54.3l-6.6-6.6
	l18.8-24.6c0.8,2.9,2.3,5.6,4.5,7.8c2.3,2.3,5,3.7,7.8,4.5L16.2,54.3z M56.4,29.6c-6.1,6.1-15.9,6.1-22,0c-2.5-2.5-4-5.7-4.4-8.9
	c0,0,0,0,0,0c-0.6-4.6,0.8-9.5,4.4-13.1c3-3,7-4.6,11-4.6c4,0,8,1.5,11,4.6C62.5,13.6,62.5,23.5,56.4,29.6z"/>
<path d="M5.1,55c-0.4-0.4-1-0.4-1.4,0s-0.4,1,0,1.4l3.9,3.9c0.2,0.2,0.5,0.3,0.7,0.3s0.5-0.1,0.7-0.3c0.4-0.4,0.4-1,0-1.4L5.1,55z"
	/>
</svg>
