<?xml version="1.0" encoding="utf-8"?>
<!-- Generator: Adobe Illustrator 19.1.0, SVG Export Plug-In . SVG Version: 6.00 Build 0)  -->
<!DOCTYPE svg PUBLIC "-//W3C//DTD SVG 1.1//EN" "http://www.w3.org/Graphics/SVG/1.1/DTD/svg11.dtd">
<svg version="1.1" id="Layer_1" xmlns="http://www.w3.org/2000/svg" xmlns:xlink="http://www.w3.org/1999/xlink" x="0px" y="0px"
	 width="64px" height="64px" viewBox="0 0 64 64" enable-background="new 0 0 64 64" xml:space="preserve">
<path d="M2,7h30c0.6,0,1-0.4,1-1s-0.4-1-1-1H2C1.4,5,1,5.4,1,6S1.4,7,2,7z"/>
<path d="M2,59h30c0.6,0,1-0.4,1-1s-0.4-1-1-1H2c-0.6,0-1,0.4-1,1S1.4,59,2,59z"/>
<path d="M12,23c-0.6,0-1,0.4-1,1v16c0,0.6,0.4,1,1,1s1-0.4,1-1V24C13,23.4,12.6,23,12,23z"/>
<path d="M62,15H31v-3c0-0.6-0.4-1-1-1H4c-0.6,0-1,0.4-1,1v40c0,0.6,0.4,1,1,1h26c0.6,0,1-0.4,1-1v-3h23c0.6,0,1-0.4,1-1
	c0-3.9,3.1-7,7-7c0.6,0,1-0.4,1-1V16C63,15.4,62.6,15,62,15z M29,51H5V13h24V51z M61,39.1c-4.2,0.5-7.5,3.8-7.9,7.9H31v-6h5
	c0.6,0,1-0.4,1-1s-0.4-1-1-1h-5V25h5c0.6,0,1-0.4,1-1s-0.4-1-1-1h-5v-6h30V39.1z"/>
<path d="M44,25h2c0.6,0,1-0.4,1-1s-0.4-1-1-1h-2c-0.6,0-1,0.4-1,1S43.4,25,44,25z"/>
<path d="M44,41h2c0.6,0,1-0.4,1-1s-0.4-1-1-1h-2c-0.6,0-1,0.4-1,1S43.4,41,44,41z"/>
<path d="M54,25h2c0.6,0,1-0.4,1-1s-0.4-1-1-1h-2c-0.6,0-1,0.4-1,1S53.4,25,54,25z"/>
</svg>
