<?xml version="1.0" encoding="utf-8"?>
<!-- Generator: Adobe Illustrator 19.1.0, SVG Export Plug-In . SVG Version: 6.00 Build 0)  -->
<!DOCTYPE svg PUBLIC "-//W3C//DTD SVG 1.1//EN" "http://www.w3.org/Graphics/SVG/1.1/DTD/svg11.dtd">
<svg version="1.1" id="Layer_1" xmlns="http://www.w3.org/2000/svg" xmlns:xlink="http://www.w3.org/1999/xlink" x="0px" y="0px"
	 width="64px" height="64px" viewBox="0 0 64 64" enable-background="new 0 0 64 64" xml:space="preserve">
<path d="M62,7h-9V6c0-0.6-0.4-1-1-1h-8c-0.6,0-1,0.4-1,1v1h-6V6c0-0.6-0.4-1-1-1h-8c-0.6,0-1,0.4-1,1v1h-6V6c0-0.6-0.4-1-1-1h-8
	c-0.6,0-1,0.4-1,1v1H2C1.4,7,1,7.4,1,8v50c0,0.6,0.4,1,1,1h14h16h16h14c0.6,0,1-0.4,1-1V8C63,7.4,62.6,7,62,7z M45,7h6v30h-3
	c0,0,0,0,0,0s0,0,0,0h-3V7z M29,7h6v30h-6V7z M13,7h6v30h-6V7z M3,9h8v29c0,0.6,0.4,1,1,1h3v18H3V9z M17,39h3c0.6,0,1-0.4,1-1V9h6
	v29c0,0.6,0.4,1,1,1h3v18H17V39z M33,39h3c0.6,0,1-0.4,1-1V9h6v29c0,0.6,0.4,1,1,1h3v18H33V39z M61,57H49V39h3c0.6,0,1-0.4,1-1V9h8
	V57z"/>
</svg>
