<?xml version="1.0" encoding="utf-8"?>
<!-- Generator: Adobe Illustrator 19.1.0, SVG Export Plug-In . SVG Version: 6.00 Build 0)  -->
<!DOCTYPE svg PUBLIC "-//W3C//DTD SVG 1.1//EN" "http://www.w3.org/Graphics/SVG/1.1/DTD/svg11.dtd">
<svg version="1.1" id="Layer_1" xmlns="http://www.w3.org/2000/svg" xmlns:xlink="http://www.w3.org/1999/xlink" x="0px" y="0px"
	 width="64px" height="64px" viewBox="0 0 64 64" enable-background="new 0 0 64 64" xml:space="preserve">
<path d="M62,17H50.3L36.6,7.9C36.9,7.3,37,6.7,37,6c0-2.8-2.2-5-5-5s-5,2.2-5,5c0,0.7,0.1,1.3,0.4,1.9L13.7,17H2c-0.6,0-1,0.4-1,1
	v44c0,0.6,0.4,1,1,1h60c0.6,0,1-0.4,1-1V18C63,17.4,62.6,17,62,17z M32,3c1.7,0,3,1.3,3,3s-1.3,3-3,3c-1,0-2-0.5-2.5-1.3
	c0,0,0,0,0,0c0,0,0,0,0,0C29.2,7.2,29,6.6,29,6C29,4.3,30.3,3,32,3z M28.5,9.5c0.9,0.9,2.1,1.5,3.5,1.5s2.6-0.6,3.5-1.5L46.7,17
	H17.3L28.5,9.5z M61,19v32.4L46.7,37.3c-0.4-0.4-1-0.4-1.4,0L29.8,52.8l-13.3-7.6c-0.4-0.2-0.8-0.2-1.1,0.1L3,55.8V19H61z M3,61
	v-2.5l13.1-11.2l13.4,7.7c0.4,0.2,0.9,0.2,1.2-0.2L46,39.4l15,14.8V61H3z"/>
<path d="M26,41c3.9,0,7-3.1,7-7s-3.1-7-7-7s-7,3.1-7,7S22.1,41,26,41z M26,29c2.8,0,5,2.2,5,5s-2.2,5-5,5s-5-2.2-5-5S23.2,29,26,29z
	"/>
</svg>
