<?xml version="1.0" encoding="utf-8"?>
<!-- Generator: Adobe Illustrator 19.1.0, SVG Export Plug-In . SVG Version: 6.00 Build 0)  -->
<!DOCTYPE svg PUBLIC "-//W3C//DTD SVG 1.1//EN" "http://www.w3.org/Graphics/SVG/1.1/DTD/svg11.dtd">
<svg version="1.1" id="Layer_1" xmlns="http://www.w3.org/2000/svg" xmlns:xlink="http://www.w3.org/1999/xlink" x="0px" y="0px"
	 width="64px" height="64px" viewBox="0 0 64 64" enable-background="new 0 0 64 64" xml:space="preserve">
<path d="M62,15H50.4L60.7,4.7c0.4-0.4,0.4-1,0-1.4s-1-0.4-1.4,0L47.6,15h-3.1l-5.7-7.6C38.6,7.1,38.3,7,38,7H24
	c-0.3,0-0.6,0.1-0.8,0.4L17.5,15H2c-0.6,0-1,0.4-1,1v36c0,0.6,0.4,1,1,1h7.6l-6.3,6.3c-0.4,0.4-0.4,1,0,1.4C3.5,60.9,3.7,61,4,61
	s0.5-0.1,0.7-0.3l7.7-7.7H62c0.6,0,1-0.4,1-1V16C63,15.4,62.6,15,62,15z M3,51V17h15c0.3,0,0.6-0.1,0.8-0.4L24.5,9h13l5.7,7.6
	c0.2,0.3,0.5,0.4,0.8,0.4h1.6L39,23.6C37.1,22,34.7,21,32,21c-6.1,0-11,4.9-11,11c0,2.7,1,5.1,2.6,7l-12,12H3z M25,37.6
	c-1.2-1.5-2-3.5-2-5.6c0-5,4-9,9-9c2.1,0,4.1,0.7,5.6,2L25,37.6z M39,26.4c1.2,1.5,2,3.5,2,5.6c0,5-4,9-9,9c-2.1,0-4.1-0.7-5.6-2
	L39,26.4z M61,51H14.4L25,40.4c1.9,1.6,4.4,2.6,7,2.6c6.1,0,11-4.9,11-11c0-2.7-1-5.1-2.6-7l8-8H61V51z"/>
</svg>
