<?xml version="1.0" encoding="utf-8"?>
<!-- Generator: Adobe Illustrator 19.1.0, SVG Export Plug-In . SVG Version: 6.00 Build 0)  -->
<!DOCTYPE svg PUBLIC "-//W3C//DTD SVG 1.1//EN" "http://www.w3.org/Graphics/SVG/1.1/DTD/svg11.dtd">
<svg version="1.1" id="Layer_1" xmlns="http://www.w3.org/2000/svg" xmlns:xlink="http://www.w3.org/1999/xlink" x="0px" y="0px"
	 width="64px" height="64px" viewBox="0 0 64 64" enable-background="new 0 0 64 64" xml:space="preserve">
<path d="M21.6,56.9C21.7,57,21.9,57,22,57c0.3,0,0.6-0.1,0.7-0.3l32-36c0.3-0.3,0.3-0.7,0.2-1.1S54.4,19,54,19H37.2L41,2.2
	c0.1-0.3,0-0.6-0.2-0.8C40.6,1.1,40.3,1,40,1H18c-0.5,0-0.8,0.3-1,0.7l-8,30C9,32,9,32.4,9.2,32.6C9.4,32.9,9.7,33,10,33h14.8
	L21,55.8C20.9,56.3,21.2,56.7,21.6,56.9z M27,32.2c0-0.3,0-0.6-0.2-0.8C26.6,31.1,26.3,31,26,31H11.3l7.5-28h20L35,19.8
	c-0.1,0.3,0,0.6,0.2,0.8c0.2,0.2,0.5,0.4,0.8,0.4h15.8L23.6,52.7L27,32.2z"/>
<path d="M54,43c-5,0-9,4-9,9s4,9,9,9s9-4,9-9S59,43,54,43z M47,52c0-1.6,0.5-3,1.4-4.2l9.8,9.8C57,58.5,55.6,59,54,59
	C50.1,59,47,55.9,47,52z M59.6,56.2l-9.8-9.8C51,45.5,52.4,45,54,45c3.9,0,7,3.1,7,7C61,53.6,60.5,55,59.6,56.2z"/>
</svg>
