<?xml version="1.0" encoding="utf-8"?>
<!-- Generator: Adobe Illustrator 19.1.0, SVG Export Plug-In . SVG Version: 6.00 Build 0)  -->
<!DOCTYPE svg PUBLIC "-//W3C//DTD SVG 1.1//EN" "http://www.w3.org/Graphics/SVG/1.1/DTD/svg11.dtd">
<svg version="1.1" id="Layer_1" xmlns="http://www.w3.org/2000/svg" xmlns:xlink="http://www.w3.org/1999/xlink" x="0px" y="0px"
	 width="64px" height="64px" viewBox="0 0 64 64" enable-background="new 0 0 64 64" xml:space="preserve">
<path d="M57,20C57,9.5,48.5,1,38,1H26C15.5,1,7,9.5,7,20v10.4c-1.3,1.9-2,4.2-2,6.6c0,5.2,3.3,9.6,8,11.3V58c0,0.6,0.4,1,1,1h7v3
	c0,0.6,0.4,1,1,1h16c0.6,0,1-0.4,1-1v-6c0-0.6-0.4-1-1-1H22c-0.6,0-1,0.4-1,1v1h-6v-8.2c0.7,0.1,1.3,0.2,2,0.2
	c1.1,0,2.2-0.2,3.3-0.5c0.4-0.1,0.7-0.5,0.7-1V26.4c0-0.4-0.3-0.8-0.7-1C19.2,25.2,18.1,25,17,25c-3.1,0-5.9,1.2-8,3.1V20
	c0-9.4,7.6-17,17-17h12c9.4,0,17,7.6,17,17v8.1c-2.1-1.9-4.9-3.1-8-3.1c-1.1,0-2.2,0.2-3.3,0.5c-0.4,0.1-0.7,0.5-0.7,1v21.2
	c0,0.4,0.3,0.8,0.7,1c1.1,0.3,2.2,0.5,3.3,0.5c6.6,0,12-5.4,12-12c0-2.4-0.7-4.7-2-6.6V20z M23,57h14v4H23V57z M17,27
	c0.7,0,1.3,0.1,2,0.2v19.6c-0.7,0.1-1.3,0.2-2,0.2c-5.5,0-10-4.5-10-10S11.5,27,17,27z M47,47c-0.7,0-1.3-0.1-2-0.2V27.2
	c0.7-0.1,1.3-0.2,2-0.2c5.5,0,10,4.5,10,10S52.5,47,47,47z"/>
</svg>
