<?xml version="1.0" encoding="utf-8"?>
<!-- Generator: Adobe Illustrator 19.1.0, SVG Export Plug-In . SVG Version: 6.00 Build 0)  -->
<!DOCTYPE svg PUBLIC "-//W3C//DTD SVG 1.1//EN" "http://www.w3.org/Graphics/SVG/1.1/DTD/svg11.dtd">
<svg version="1.1" id="Layer_1" xmlns="http://www.w3.org/2000/svg" xmlns:xlink="http://www.w3.org/1999/xlink" x="0px" y="0px"
	 width="64px" height="64px" viewBox="0 0 64 64" enable-background="new 0 0 64 64" xml:space="preserve">
<path d="M1.1,37.5C1.1,51.5,12.5,63,26.6,63c6.9,0,13.3-2.7,18.2-7.6c0.7,0,1.3,0.1,2,0.1c0.8,0,1.5,0,2.2-0.1
	c7-0.4,11.8-2.9,13.4-7C64.5,43,60.6,35.9,52,29.5C51,18.7,43.2,10,33.1,7.3C33,3.8,30.1,1,26.6,1c-3.5,0-6.4,2.8-6.4,6.3
	C9.8,10,2,19.1,1.1,30.1c0,0,0,0.1,0,0.1c0,0.6-0.1,1.2-0.1,1.8V37.5z M26.6,61c-13,0-23.5-10.6-23.5-23.5v-2.9
	C7,40.8,15.5,47,26,51.1c5.5,2.2,11,3.6,16.1,4.1C37.8,59,32.4,61,26.6,61z M60.5,47.7C59.2,51,55,53,48.8,53.4
	c-6.5,0.4-14.3-1.1-22.1-4.2C15.7,44.9,6.8,38,3.8,31.7c7.3,2.7,15,4.1,22.8,4.1c8.4,0,16.5-1.6,24.3-4.6
	C58.6,36.9,62.3,43.2,60.5,47.7z M26.6,8.6c8.6,3.9,11.6,15,10.1,24.3c-3.3,0.5-6.7,0.8-10.1,0.8c-3.4,0-6.8-0.3-10.2-0.8
	C15,23.5,18,12.5,26.6,8.6z M50,29.3c-3.7,1.4-7.4,2.5-11.2,3.2c1.1-8.6-1.3-18.5-8-23.7C40.8,10.7,48.8,19,50,29.3z M26.6,3
	c2.2,0,4.1,1.7,4.4,3.8c-1.4-0.3-2.9-0.4-4.4-0.4c0,0,0,0,0,0c0,0,0,0,0,0c0,0-0.1,0-0.1,0c0,0,0,0,0,0c-1.5,0-2.9,0.1-4.3,0.4
	C22.5,4.7,24.4,3,26.6,3z M22.3,8.9c-6.7,5.2-9.1,15.1-8,23.7c-3.8-0.7-7.5-1.8-11.1-3.2C4.4,19,12.2,10.7,22.3,8.9z"/>
</svg>
