<?xml version="1.0" encoding="utf-8"?>
<!-- Generator: Adobe Illustrator 19.1.0, SVG Export Plug-In . SVG Version: 6.00 Build 0)  -->
<!DOCTYPE svg PUBLIC "-//W3C//DTD SVG 1.1//EN" "http://www.w3.org/Graphics/SVG/1.1/DTD/svg11.dtd">
<svg version="1.1" id="Layer_1" xmlns="http://www.w3.org/2000/svg" xmlns:xlink="http://www.w3.org/1999/xlink" x="0px" y="0px"
	 width="64px" height="64px" viewBox="0 0 64 64" enable-background="new 0 0 64 64" xml:space="preserve">
<path d="M14.7,43.3c-0.4-0.4-1-0.4-1.4,0s-0.4,1,0,1.4l6,6c0.2,0.2,0.5,0.3,0.7,0.3s0.5-0.1,0.7-0.3c0.4-0.4,0.4-1,0-1.4L14.7,43.3z
	"/>
<path d="M54.1,2.2c-0.4-0.4-1-0.4-1.4,0L45,9.9c-0.2,0.2-0.3,0.4-0.3,0.7s0.1,0.5,0.3,0.7l3.1,3.1l-6.3,6.3
	c-3.2-2.8-7.2-4.4-11.5-4.4c-4.6,0-8.9,1.8-12.2,5.1l-1.9,1.9c-0.4,0.4-0.4,1,0,1.4c1.7,1.7,1.7,4.5,0,6.2c-0.8,0.8-1.9,1.3-3.1,1.3
	s-2.3-0.5-3.1-1.3c-0.4-0.4-1-0.4-1.4,0l-1.9,1.9C0,39.6,0,50.5,6.8,57.2c3.3,3.3,7.6,5.1,12.2,5.1c4.6,0,8.9-1.8,12.2-5.1l1.9-1.9
	c0.4-0.4,0.4-1,0-1.4c-0.8-0.8-1.3-1.9-1.3-3.1c0-1.2,0.5-2.3,1.3-3.1c1.7-1.7,4.5-1.7,6.2,0c0.4,0.4,1,0.4,1.4,0l1.9-1.9
	c3.3-3.3,5.1-7.6,5.1-12.2c0-4.3-1.6-8.3-4.4-11.5l6.3-6.3l3.1,3.1c0.2,0.2,0.5,0.3,0.7,0.3s0.5-0.1,0.7-0.3l7.7-7.7
	c0.2-0.2,0.3-0.4,0.3-0.7s-0.1-0.5-0.3-0.7L54.1,2.2z M45.7,33.6c0,4.1-1.6,7.9-4.5,10.8l-1.3,1.3c-2.5-1.8-6.1-1.6-8.3,0.7
	c-2.3,2.3-2.5,5.8-0.7,8.3l-1.3,1.3c-2.9,2.9-6.7,4.5-10.8,4.5c-4.1,0-7.9-1.6-10.8-4.5c-5.9-5.9-5.9-15.6,0-21.6L9.4,33
	c2.5,1.8,6,1.6,8.3-0.7c2.3-2.3,2.5-5.8,0.7-8.3l1.3-1.3c2.9-2.9,6.7-4.5,10.8-4.5c3.7,0,7.3,1.3,10,3.8l-5.7,5.7
	C33.9,27.3,33,27,32,27c-1.3,0-2.6,0.5-3.5,1.5c-1.9,1.9-1.9,5.1,0,7.1c0.9,0.9,2.2,1.5,3.5,1.5s2.6-0.5,3.5-1.5
	c1.7-1.7,1.9-4.4,0.6-6.3l5.7-5.7C44.3,26.3,45.7,29.8,45.7,33.6z M34.1,29.9c1.2,1.2,1.2,3.1,0,4.2c-1.1,1.1-3.1,1.1-4.2,0
	c-1.2-1.2-1.2-3.1,0-4.2c0.6-0.6,1.3-0.9,2.1-0.9S33.6,29.3,34.1,29.9z M53.4,16.8l-3.1-3.1c0,0,0,0,0,0s0,0,0,0l-3.1-3.1l6.2-6.2
	l6.2,6.2L53.4,16.8z"/>
</svg>
