<?xml version="1.0" encoding="utf-8"?>
<!-- Generator: Adobe Illustrator 19.1.0, SVG Export Plug-In . SVG Version: 6.00 Build 0)  -->
<!DOCTYPE svg PUBLIC "-//W3C//DTD SVG 1.1//EN" "http://www.w3.org/Graphics/SVG/1.1/DTD/svg11.dtd">
<svg version="1.1" id="Layer_1" xmlns="http://www.w3.org/2000/svg" xmlns:xlink="http://www.w3.org/1999/xlink" x="0px" y="0px"
	 width="64px" height="64px" viewBox="0 0 64 64" enable-background="new 0 0 64 64" xml:space="preserve">
<path d="M32,1C14.9,1,1,14.9,1,32s13.9,31,31,31s31-13.9,31-31S49.1,1,32,1z M32,61C16,61,3,48,3,32S16,3,32,3s29,13,29,29
	S48,61,32,61z"/>
<path d="M42.6,31.2l-20-14c-0.3-0.2-0.7-0.2-1-0.1C21.2,17.3,21,17.6,21,18v28c0,0.4,0.2,0.7,0.5,0.9C21.7,47,21.8,47,22,47
	c0.2,0,0.4-0.1,0.6-0.2l20-14c0.3-0.2,0.4-0.5,0.4-0.8S42.8,31.4,42.6,31.2z M23,44.1V19.9L40.3,32L23,44.1z"/>
</svg>
