<?xml version="1.0" encoding="utf-8"?>
<!-- Generator: Adobe Illustrator 19.1.0, SVG Export Plug-In . SVG Version: 6.00 Build 0)  -->
<!DOCTYPE svg PUBLIC "-//W3C//DTD SVG 1.1//EN" "http://www.w3.org/Graphics/SVG/1.1/DTD/svg11.dtd">
<svg version="1.1" id="Layer_1" xmlns="http://www.w3.org/2000/svg" xmlns:xlink="http://www.w3.org/1999/xlink" x="0px" y="0px"
	 width="64px" height="64px" viewBox="0 0 64 64" enable-background="new 0 0 64 64" xml:space="preserve">
<path d="M6,63h52c0.6,0,1-0.4,1-1V2c0-0.6-0.4-1-1-1H6C5.4,1,5,1.4,5,2v60C5,62.6,5.4,63,6,63z M7,3h50v58H7V3z"/>
<path d="M50,9H14c-0.6,0-1,0.4-1,1v32c0,0.6,0.4,1,1,1h36c0.6,0,1-0.4,1-1V10C51,9.4,50.6,9,50,9z M23.1,41c0.5-3.4,3.4-6,6.9-6h4
	c3.5,0,6.4,2.6,6.9,6H23.1z M49,41h-6.1c-0.5-4.5-4.3-8-8.9-8h-4c-4.6,0-8.4,3.5-8.9,8H15V11h34V41z"/>
<path d="M32,31c3.9,0,7-3.1,7-7s-3.1-7-7-7s-7,3.1-7,7S28.1,31,32,31z M32,19c2.8,0,5,2.2,5,5s-2.2,5-5,5s-5-2.2-5-5S29.2,19,32,19z
	"/>
</svg>
