<?xml version="1.0" encoding="utf-8"?>
<!-- Generator: Adobe Illustrator 19.1.0, SVG Export Plug-In . SVG Version: 6.00 Build 0)  -->
<!DOCTYPE svg PUBLIC "-//W3C//DTD SVG 1.1//EN" "http://www.w3.org/Graphics/SVG/1.1/DTD/svg11.dtd">
<svg version="1.1" id="Layer_1" xmlns="http://www.w3.org/2000/svg" xmlns:xlink="http://www.w3.org/1999/xlink" x="0px" y="0px"
	 width="64px" height="64px" viewBox="0 0 64 64" enable-background="new 0 0 64 64" xml:space="preserve">
<path d="M17,24v16c0,0.6,0.4,1,1,1h5.2L27,62.2c0.1,0.5,0.5,0.8,1,0.8h8c0.5,0,0.9-0.3,1-0.8L40.8,41H46c0.6,0,1-0.4,1-1V24
	c0-0.6-0.4-1-1-1H18C17.4,23,17,23.4,17,24z M35.2,61h-6.3l-3.6-20h13.6L35.2,61z M19,25h26v14H19V25z"/>
<path d="M6,33c0.6,0,1-0.4,1-1s-0.4-1-1-1H2c-0.6,0-1,0.4-1,1s0.4,1,1,1H6z"/>
<path d="M13.6,14.6c0.3,0,0.5-0.1,0.7-0.3c0.4-0.4,0.4-1,0-1.4l-2.8-2.8c-0.4-0.4-1-0.4-1.4,0c-0.4,0.4-0.4,1,0,1.4l2.8,2.8
	C13.1,14.5,13.4,14.6,13.6,14.6z"/>
<path d="M33,6V2c0-0.6-0.4-1-1-1s-1,0.4-1,1v4c0,0.6,0.4,1,1,1S33,6.6,33,6z"/>
<path d="M51.1,14.3l2.8-2.8c0.4-0.4,0.4-1,0-1.4c-0.4-0.4-1-0.4-1.4,0l-2.8,2.8c-0.4,0.4-0.4,1,0,1.4c0.2,0.2,0.5,0.3,0.7,0.3
	S50.9,14.5,51.1,14.3z"/>
<path d="M62,31h-4c-0.6,0-1,0.4-1,1s0.4,1,1,1h4c0.6,0,1-0.4,1-1S62.6,31,62,31z"/>
</svg>
