<?xml version="1.0" encoding="utf-8"?>
<!-- Generator: Adobe Illustrator 19.1.0, SVG Export Plug-In . SVG Version: 6.00 Build 0)  -->
<!DOCTYPE svg PUBLIC "-//W3C//DTD SVG 1.1//EN" "http://www.w3.org/Graphics/SVG/1.1/DTD/svg11.dtd">
<svg version="1.1" id="Layer_1" xmlns="http://www.w3.org/2000/svg" xmlns:xlink="http://www.w3.org/1999/xlink" x="0px" y="0px"
	 width="64px" height="64px" viewBox="0 0 64 64" enable-background="new 0 0 64 64" xml:space="preserve">
<path d="M62,7H47V2c0-0.6-0.4-1-1-1s-1,0.4-1,1v5H33V2c0-0.6-0.4-1-1-1s-1,0.4-1,1v5H19V2c0-0.6-0.4-1-1-1s-1,0.4-1,1v5H2
	C1.4,7,1,7.4,1,8v54c0,0.6,0.4,1,1,1h60c0.6,0,1-0.4,1-1V8C63,7.4,62.6,7,62,7z M61,61H3V9h14v3c0,0.6,0.4,1,1,1s1-0.4,1-1V9h12v3
	c0,0.6,0.4,1,1,1s1-0.4,1-1V9h12v3c0,0.6,0.4,1,1,1s1-0.4,1-1V9h14V61z"/>
<path d="M42.9,31.5c-0.2-0.3-0.4-0.5-0.8-0.5c-0.3,0-0.7,0.1-0.9,0.3L29.9,44.6l-9.2-7.4C20.4,37,20.1,37,19.8,37
	c-0.3,0-0.5,0.2-0.7,0.5l-10,16c-0.2,0.3-0.2,0.7,0,1C9.3,54.8,9.6,55,10,55h44c0.4,0,0.7-0.2,0.9-0.5c0.2-0.3,0.2-0.7,0-1
	L42.9,31.5z M11.8,53l8.4-13.5l9.1,7.3c0.4,0.3,1,0.3,1.4-0.1l11.1-12.9L52.3,53H11.8z"/>
<path d="M26,33c3.9,0,7-3.1,7-7s-3.1-7-7-7s-7,3.1-7,7S22.1,33,26,33z M26,21c2.8,0,5,2.2,5,5s-2.2,5-5,5s-5-2.2-5-5S23.2,21,26,21z
	"/>
</svg>
