<?xml version="1.0" encoding="utf-8"?>
<!-- Generator: Adobe Illustrator 19.1.0, SVG Export Plug-In . SVG Version: 6.00 Build 0)  -->
<!DOCTYPE svg PUBLIC "-//W3C//DTD SVG 1.1//EN" "http://www.w3.org/Graphics/SVG/1.1/DTD/svg11.dtd">
<svg version="1.1" id="Layer_1" xmlns="http://www.w3.org/2000/svg" xmlns:xlink="http://www.w3.org/1999/xlink" x="0px" y="0px"
	 width="64px" height="64px" viewBox="0 0 64 64" enable-background="new 0 0 64 64" xml:space="preserve">
<path d="M2,63c0.6,0,1-0.4,1-1V2c0-0.6-0.4-1-1-1S1,1.4,1,2v60C1,62.6,1.4,63,2,63z"/>
<path d="M62,1c-0.6,0-1,0.4-1,1v60c0,0.6,0.4,1,1,1s1-0.4,1-1V2C63,1.4,62.6,1,62,1z"/>
<path d="M18,29h28c0.6,0,1-0.4,1-1V2c0-0.6-0.4-1-1-1H18c-0.6,0-1,0.4-1,1v26C17,28.6,17.4,29,18,29z M19,3h26v24H19V3z"/>
<path d="M17,62c0,0.6,0.4,1,1,1h28c0.6,0,1-0.4,1-1V36c0-0.6-0.4-1-1-1H18c-0.6,0-1,0.4-1,1V62z M19,37h26v24H19V37z"/>
<path d="M10,13c0.6,0,1-0.4,1-1V8c0-0.6-0.4-1-1-1S9,7.4,9,8v4C9,12.6,9.4,13,10,13z"/>
<path d="M9,26c0,0.6,0.4,1,1,1s1-0.4,1-1v-4c0-0.6-0.4-1-1-1s-1,0.4-1,1V26z"/>
<path d="M9,40c0,0.6,0.4,1,1,1s1-0.4,1-1v-4c0-0.6-0.4-1-1-1s-1,0.4-1,1V40z"/>
<path d="M9,54c0,0.6,0.4,1,1,1s1-0.4,1-1v-4c0-0.6-0.4-1-1-1s-1,0.4-1,1V54z"/>
<path d="M54,13c0.6,0,1-0.4,1-1V8c0-0.6-0.4-1-1-1s-1,0.4-1,1v4C53,12.6,53.4,13,54,13z"/>
<path d="M53,26c0,0.6,0.4,1,1,1s1-0.4,1-1v-4c0-0.6-0.4-1-1-1s-1,0.4-1,1V26z"/>
<path d="M53,40c0,0.6,0.4,1,1,1s1-0.4,1-1v-4c0-0.6-0.4-1-1-1s-1,0.4-1,1V40z"/>
<path d="M53,54c0,0.6,0.4,1,1,1s1-0.4,1-1v-4c0-0.6-0.4-1-1-1s-1,0.4-1,1V54z"/>
</svg>
