<?xml version="1.0" encoding="utf-8"?>
<!-- Generator: Adobe Illustrator 19.1.0, SVG Export Plug-In . SVG Version: 6.00 Build 0)  -->
<!DOCTYPE svg PUBLIC "-//W3C//DTD SVG 1.1//EN" "http://www.w3.org/Graphics/SVG/1.1/DTD/svg11.dtd">
<svg version="1.1" id="Layer_1" xmlns="http://www.w3.org/2000/svg" xmlns:xlink="http://www.w3.org/1999/xlink" x="0px" y="0px"
	 width="64px" height="64px" viewBox="0 0 64 64" enable-background="new 0 0 64 64" xml:space="preserve">
<path d="M6,63h44c0.6,0,1-0.4,1-1v-7h7c0.6,0,1-0.4,1-1V2c0-0.6-0.4-1-1-1H14c-0.6,0-1,0.4-1,1v7H6c-0.6,0-1,0.4-1,1v52
	C5,62.6,5.4,63,6,63z M15,3h42v50h-6V10c0-0.6-0.4-1-1-1H15V3z M7,11h42v50H7V11z"/>
<path d="M42,17H14c-0.6,0-1,0.4-1,1v26c0,0.6,0.4,1,1,1h28c0.6,0,1-0.4,1-1V18C43,17.4,42.6,17,42,17z M41,43H15V19h26V43z"/>
</svg>
