<?xml version="1.0" encoding="utf-8"?>
<!-- Generator: Adobe Illustrator 19.1.0, SVG Export Plug-In . SVG Version: 6.00 Build 0)  -->
<!DOCTYPE svg PUBLIC "-//W3C//DTD SVG 1.1//EN" "http://www.w3.org/Graphics/SVG/1.1/DTD/svg11.dtd">
<svg version="1.1" id="Layer_1" xmlns="http://www.w3.org/2000/svg" xmlns:xlink="http://www.w3.org/1999/xlink" x="0px" y="0px"
	 width="64px" height="64px" viewBox="0 0 64 64" enable-background="new 0 0 64 64" xml:space="preserve">
<path d="M32.7,5.3C32.6,5.1,32.3,5,32,5s-0.6,0.1-0.7,0.3c-0.1,0.1-0.1,0.1-0.1,0.2l-28,52c-0.2,0.3-0.2,0.7,0,1
	C3.3,58.8,3.6,59,4,59h56c0.4,0,0.7-0.2,0.9-0.5c0.2-0.3,0.2-0.7,0-1l-28-52C32.8,5.5,32.8,5.4,32.7,5.3z M31,10v47H5.7L31,10z
	 M33,57V10l25.3,47H33z"/>
</svg>
