<?xml version="1.0" encoding="utf-8"?>
<!-- Generator: Adobe Illustrator 19.1.0, SVG Export Plug-In . SVG Version: 6.00 Build 0)  -->
<!DOCTYPE svg PUBLIC "-//W3C//DTD SVG 1.1//EN" "http://www.w3.org/Graphics/SVG/1.1/DTD/svg11.dtd">
<svg version="1.1" id="Layer_1" xmlns="http://www.w3.org/2000/svg" xmlns:xlink="http://www.w3.org/1999/xlink" x="0px" y="0px"
	 width="64px" height="64px" viewBox="0 0 64 64" enable-background="new 0 0 64 64" xml:space="preserve">
<path d="M62,31h-8c-0.6,0-1,0.4-1,1s0.4,1,1,1h8c0.6,0,1-0.4,1-1S62.6,31,62,31z"/>
<path d="M50.5,20c0.2,0,0.3,0,0.5-0.1l6.9-4c0.5-0.3,0.6-0.9,0.4-1.4c-0.3-0.5-0.9-0.6-1.4-0.4l-6.9,4c-0.5,0.3-0.6,0.9-0.4,1.4
	C49.8,19.8,50.2,20,50.5,20z"/>
<path d="M57.9,48.1l-6.9-4c-0.5-0.3-1.1-0.1-1.4,0.4c-0.3,0.5-0.1,1.1,0.4,1.4l6.9,4c0.2,0.1,0.3,0.1,0.5,0.1c0.3,0,0.7-0.2,0.9-0.5
	C58.6,49,58.4,48.4,57.9,48.1z"/>
<path d="M42.5,5.1c-0.3-0.2-0.7-0.1-1,0.1L21.7,19H11C5.5,19,1,23.5,1,29c0,4.9,3.6,9.1,8.3,9.9l9.4,21c0.9,2,2.9,3.2,4.9,3.2
	c0.7,0,1.5-0.1,2.2-0.5c2.7-1.2,3.9-4.4,2.7-7.1L21.2,39h0.5l19.7,13.8c0.2,0.1,0.4,0.2,0.6,0.2c0.2,0,0.3,0,0.5-0.1
	c0.3-0.2,0.5-0.5,0.5-0.9V6C43,5.6,42.8,5.3,42.5,5.1z M3,29c0-4.4,3.6-8,8-8h2v16h-2c-0.2,0-0.5,0-0.7,0c-0.1,0-0.2-0.1-0.4,0
	C6,36.4,3,33.1,3,29z M26.7,56.2c0.8,1.7,0,3.7-1.7,4.5c-1.7,0.8-3.7,0-4.5-1.7l-8.9-20H19L26.7,56.2z M41,50.1L22.6,37.2
	C22.4,37.1,22.2,37,22,37h-2.1c-0.1,0-0.3,0-0.4,0H15V21h7c0.2,0,0.4-0.1,0.6-0.2L41,7.9V50.1z"/>
</svg>
