<?xml version="1.0" encoding="utf-8"?>
<!-- Generator: Adobe Illustrator 19.1.0, SVG Export Plug-In . SVG Version: 6.00 Build 0)  -->
<!DOCTYPE svg PUBLIC "-//W3C//DTD SVG 1.1//EN" "http://www.w3.org/Graphics/SVG/1.1/DTD/svg11.dtd">
<svg version="1.1" id="Layer_1" xmlns="http://www.w3.org/2000/svg" xmlns:xlink="http://www.w3.org/1999/xlink" x="0px" y="0px"
	 width="64px" height="64px" viewBox="0 0 64 64" enable-background="new 0 0 64 64" xml:space="preserve">
<path d="M62.5,13.2c-0.3-0.2-0.6-0.2-1-0.1L45,20.5V10c0-0.6-0.4-1-1-1h-5V2c0-0.6-0.4-1-1-1H14c-0.6,0-1,0.4-1,1s0.4,1,1,1h23v6H2
	c-0.6,0-1,0.4-1,1v34c0,0.6,0.4,1,1,1h8.4l12.1,15.7c1.2,1.5,3,2.3,4.8,2.3c1.3,0,2.6-0.4,3.7-1.2c1.3-1,2.1-2.4,2.3-4
	S33,54.6,32,53.3L25.6,45H44c0.6,0,1-0.4,1-1V33.5l16.6,7.4C61.7,41,61.9,41,62,41c0.2,0,0.4-0.1,0.5-0.2c0.3-0.2,0.5-0.5,0.5-0.8
	V14C63,13.7,62.8,13.3,62.5,13.2z M30.4,54.6c0.7,0.8,0.9,1.9,0.8,3c-0.1,1.1-0.7,2-1.5,2.7c-1.7,1.3-4.3,1-5.6-0.7L12.9,45H23
	L30.4,54.6z M43,43H3V11h40V43z M61,38.5l-16-7.1v-8.7l16-7.1V38.5z"/>
<path d="M12,15c-2.8,0-5,2.2-5,5s2.2,5,5,5s5-2.2,5-5S14.8,15,12,15z M12,23c-1.7,0-3-1.3-3-3s1.3-3,3-3s3,1.3,3,3S13.7,23,12,23z"
	/>
<path d="M36,17h-6c-0.6,0-1,0.4-1,1s0.4,1,1,1h6c0.6,0,1-0.4,1-1S36.6,17,36,17z"/>
</svg>
