<?xml version="1.0" encoding="utf-8"?>
<!-- Generator: Adobe Illustrator 19.1.0, SVG Export Plug-In . SVG Version: 6.00 Build 0)  -->
<!DOCTYPE svg PUBLIC "-//W3C//DTD SVG 1.1//EN" "http://www.w3.org/Graphics/SVG/1.1/DTD/svg11.dtd">
<svg version="1.1" id="Layer_1" xmlns="http://www.w3.org/2000/svg" xmlns:xlink="http://www.w3.org/1999/xlink" x="0px" y="0px"
	 width="24px" height="24px" viewBox="0 0 24 24" enable-background="new 0 0 24 24" xml:space="preserve">
<path d="M23.4,1.1C23.3,1,23.1,1,23,1h-4c-0.6,0-1,0.4-1,1s0.4,1,1,1h1.6l-2.4,2.4C17,4.5,15.6,4,14,4c-1.3,0-2.5,0.3-3.5,0.9
	C9.5,4.3,8.3,4,7,4c-3.9,0-7,3.1-7,7c0,3.5,2.6,6.4,6,6.9V20H5c-0.6,0-1,0.4-1,1s0.4,1,1,1h1v1c0,0.6,0.4,1,1,1s1-0.4,1-1v-1h1
	c0.6,0,1-0.4,1-1s-0.4-1-1-1H8v-2.1c0.9-0.1,1.7-0.4,2.5-0.9c1,0.6,2.2,0.9,3.5,0.9c3.9,0,7-3.1,7-7c0-1.6-0.5-3-1.4-4.2L22,4.4V6
	c0,0.6,0.4,1,1,1s1-0.4,1-1V2c0-0.1,0-0.3-0.1-0.4C23.8,1.4,23.6,1.2,23.4,1.1z M12,11c0,1.4-0.6,2.7-1.5,3.6C9.6,13.7,9,12.4,9,11
	s0.6-2.7,1.5-3.6C11.4,8.3,12,9.6,12,11z M2,11c0-2.8,2.2-5,5-5c0.6,0,1.2,0.1,1.8,0.3C7.7,7.6,7,9.2,7,11s0.7,3.4,1.8,4.7
	C8.2,15.9,7.6,16,7,16C4.2,16,2,13.8,2,11z M14,16c-0.6,0-1.2-0.1-1.8-0.3c1.1-1.2,1.8-2.9,1.8-4.7s-0.7-3.4-1.8-4.7
	C12.8,6.1,13.4,6,14,6c2.8,0,5,2.2,5,5S16.8,16,14,16z"/>
</svg>
