<?xml version="1.0" encoding="utf-8"?>
<!-- Generator: Adobe Illustrator 19.1.0, SVG Export Plug-In . SVG Version: 6.00 Build 0)  -->
<!DOCTYPE svg PUBLIC "-//W3C//DTD SVG 1.1//EN" "http://www.w3.org/Graphics/SVG/1.1/DTD/svg11.dtd">
<svg version="1.1" id="Layer_1" xmlns="http://www.w3.org/2000/svg" xmlns:xlink="http://www.w3.org/1999/xlink" x="0px" y="0px"
	 width="24px" height="24px" viewBox="0 0 24 24" enable-background="new 0 0 24 24" xml:space="preserve">
<path d="M15,0H9C8.4,0,8,0.4,8,1v5.9C4.9,8.5,3,11.5,3,15c0,5,4,9,9,9s9-4,9-9c0-3.5-1.9-6.5-5-8.1V1C16,0.4,15.6,0,15,0z M19,15
	c0,3.9-3.1,7-7,7s-7-3.1-7-7c0-2.9,1.7-5.4,4.4-6.5C9.8,8.4,10,8,10,7.6V2h4v5.6c0,0.4,0.2,0.8,0.6,0.9C17.3,9.6,19,12.1,19,15z"/>
<path d="M7,15c0,2.8,2.2,5,5,5s5-2.2,5-5c0-0.6-0.4-1-1-1H8C7.4,14,7,14.4,7,15z M14.8,16c-0.4,1.2-1.5,2-2.8,2s-2.4-0.8-2.8-2H14.8
	z"/>
</svg>
