<?xml version="1.0" encoding="utf-8"?>
<!-- Generator: Adobe Illustrator 19.1.0, SVG Export Plug-In . SVG Version: 6.00 Build 0)  -->
<!DOCTYPE svg PUBLIC "-//W3C//DTD SVG 1.1//EN" "http://www.w3.org/Graphics/SVG/1.1/DTD/svg11.dtd">
<svg version="1.1" id="Layer_1" xmlns="http://www.w3.org/2000/svg" xmlns:xlink="http://www.w3.org/1999/xlink" x="0px" y="0px"
	 width="24px" height="24px" viewBox="0 0 24 24" enable-background="new 0 0 24 24" xml:space="preserve">
<path d="M16,4c0-2.2-1.8-4-4-4S8,1.8,8,4s1.8,4,4,4S16,6.2,16,4z M10,4c0-1.1,0.9-2,2-2s2,0.9,2,2s-0.9,2-2,2S10,5.1,10,4z"/>
<path d="M10,24h4c0.6,0,1-0.4,1-1v-3.6l2.7-2.7c0.2-0.2,0.3-0.4,0.3-0.7v-6c0-0.6-0.4-1-1-1H7c-0.6,0-1,0.4-1,1v6
	c0,0.3,0.1,0.5,0.3,0.7L9,19.4V23C9,23.6,9.4,24,10,24z M8,15.6V11h8v4.6l-2.7,2.7C13.1,18.5,13,18.7,13,19v3h-2v-3
	c0-0.3-0.1-0.5-0.3-0.7L8,15.6z"/>
</svg>
