<?xml version="1.0" encoding="utf-8"?>
<!-- Generator: Adobe Illustrator 19.1.0, SVG Export Plug-In . SVG Version: 6.00 Build 0)  -->
<!DOCTYPE svg PUBLIC "-//W3C//DTD SVG 1.1//EN" "http://www.w3.org/Graphics/SVG/1.1/DTD/svg11.dtd">
<svg version="1.1" id="Layer_1" xmlns="http://www.w3.org/2000/svg" xmlns:xlink="http://www.w3.org/1999/xlink" x="0px" y="0px"
	 width="24px" height="24px" viewBox="0 0 24 24" enable-background="new 0 0 24 24" xml:space="preserve">
<path d="M2.4,13.2C2.1,13.4,2,13.7,2,14v9c0,0.6,0.4,1,1,1h18c0.6,0,1-0.4,1-1v-9c0-0.3-0.1-0.6-0.4-0.8L16,8.5V5h1c0.6,0,1-0.4,1-1
	V1c0-0.6-0.4-1-1-1H7C6.4,0,6,0.4,6,1v3c0,0.6,0.4,1,1,1h1v3.5L2.4,13.2z M8,2h8v1H8V2z M14,5v4c0,0.3,0.1,0.6,0.4,0.8l5.6,4.7V22H4
	v-7.5l5.6-4.7C9.9,9.6,10,9.3,10,9V5H14z"/>
<path d="M9,15c-0.6,0-1,0.4-1,1s0.4,1,1,1h2v2c0,0.6,0.4,1,1,1s1-0.4,1-1v-2h2c0.6,0,1-0.4,1-1s-0.4-1-1-1h-2v-2c0-0.6-0.4-1-1-1
	s-1,0.4-1,1v2H9z"/>
</svg>
