<?xml version="1.0" encoding="utf-8"?>
<!-- Generator: Adobe Illustrator 19.1.0, SVG Export Plug-In . SVG Version: 6.00 Build 0)  -->
<!DOCTYPE svg PUBLIC "-//W3C//DTD SVG 1.1//EN" "http://www.w3.org/Graphics/SVG/1.1/DTD/svg11.dtd">
<svg version="1.1" id="Layer_1" xmlns="http://www.w3.org/2000/svg" xmlns:xlink="http://www.w3.org/1999/xlink" x="0px" y="0px"
	 width="24px" height="24px" viewBox="0 0 24 24" enable-background="new 0 0 24 24" xml:space="preserve">
<path d="M17,0c-1.9,0-3.7,0.8-5,2.1C10.7,0.8,8.9,0,7,0C3.1,0,0,3.1,0,7c0,1.4,0.5,2.9,1.3,4.4c0,0,0,0.1,0.1,0.1
	c2.9,5.5,9.7,11,10,11.3c0.2,0.2,0.4,0.2,0.6,0.2s0.4-0.1,0.6-0.2c0.4-0.3,7.1-5.8,10-11.3c0,0,0-0.1,0.1-0.1C23.5,9.9,24,8.4,24,7
	C24,3.1,20.9,0,17,0z M12,20.7c-2.2-1.8-5.8-5.3-8-8.7h3c0.3,0,0.6-0.2,0.8-0.4L9,9.8l3.2,4.8c0.2,0.3,0.5,0.4,0.8,0.4
	s0.6-0.2,0.8-0.4l1.7-2.6H20C17.8,15.4,14.2,18.8,12,20.7z M21.2,10H15c-0.3,0-0.6,0.2-0.8,0.4L13,12.2L9.8,7.4
	c-0.4-0.6-1.3-0.6-1.7,0L6.5,10H2.8C2.3,8.9,2,7.9,2,7c0-2.8,2.2-5,5-5c1.7,0,3.2,0.8,4.2,2.2c0.4,0.6,1.3,0.6,1.7,0
	C13.8,2.8,15.3,2,17,2c2.8,0,5,2.2,5,5C22,7.9,21.7,8.9,21.2,10z"/>
</svg>
