<?xml version="1.0" encoding="utf-8"?>
<!-- Generator: Adobe Illustrator 19.1.0, SVG Export Plug-In . SVG Version: 6.00 Build 0)  -->
<!DOCTYPE svg PUBLIC "-//W3C//DTD SVG 1.1//EN" "http://www.w3.org/Graphics/SVG/1.1/DTD/svg11.dtd">
<svg version="1.1" id="Layer_1" xmlns="http://www.w3.org/2000/svg" xmlns:xlink="http://www.w3.org/1999/xlink" x="0px" y="0px"
	 width="24px" height="24px" viewBox="0 0 24 24" enable-background="new 0 0 24 24" xml:space="preserve">
<path d="M23,4h-6V1c0-0.6-0.4-1-1-1H8C7.4,0,7,0.4,7,1v3H1C0.4,4,0,4.4,0,5v18c0,0.6,0.4,1,1,1h22c0.6,0,1-0.4,1-1V5
	C24,4.4,23.6,4,23,4z M9,2h6v2H9V2z M22,22H2V6h20V22z"/>
<path d="M15,9c0-0.6-0.4-1-1-1h-4C9.4,8,9,8.4,9,9v2H7c-0.6,0-1,0.4-1,1v4c0,0.6,0.4,1,1,1h2v2c0,0.6,0.4,1,1,1h4c0.6,0,1-0.4,1-1
	v-2h2c0.6,0,1-0.4,1-1v-4c0-0.6-0.4-1-1-1h-2V9z M16,13v2h-2c-0.6,0-1,0.4-1,1v2h-2v-2c0-0.6-0.4-1-1-1H8v-2h2c0.6,0,1-0.4,1-1v-2h2
	v2c0,0.6,0.4,1,1,1H16z"/>
</svg>
