<?xml version="1.0" encoding="utf-8"?>
<!-- Generator: Adobe Illustrator 19.1.0, SVG Export Plug-In . SVG Version: 6.00 Build 0)  -->
<!DOCTYPE svg PUBLIC "-//W3C//DTD SVG 1.1//EN" "http://www.w3.org/Graphics/SVG/1.1/DTD/svg11.dtd">
<svg version="1.1" id="Layer_1" xmlns="http://www.w3.org/2000/svg" xmlns:xlink="http://www.w3.org/1999/xlink" x="0px" y="0px"
	 width="24px" height="24px" viewBox="0 0 24 24" enable-background="new 0 0 24 24" xml:space="preserve">
<path d="M15,11h-1c-0.3,0-0.5,0.1-0.7,0.3l-1,1l-1.4-2.8c-0.1-0.3-0.4-0.5-0.7-0.5C9.8,9,9.5,9.1,9.3,9.3L7.6,11H7c-0.6,0-1,0.4-1,1
	s0.4,1,1,1h1c0.3,0,0.5-0.1,0.7-0.3l1-1l1.4,2.8c0.1,0.3,0.4,0.5,0.7,0.5c0.1,0,0.1,0,0.2,0c0.3,0,0.5-0.1,0.7-0.3l1.7-1.7H15
	c0.6,0,1-0.4,1-1S15.6,11,15,11z"/>
<path d="M16.8,4.1L16,0.8C15.9,0.3,15.5,0,15,0H7C6.5,0,6.1,0.3,6,0.8L5.2,4.1C3.9,4.5,3,5.6,3,7v10c0,1.4,0.9,2.5,2.2,2.9L6,23.2
	C6.1,23.7,6.5,24,7,24h8c0.5,0,0.9-0.3,1-0.8l0.8-3.4c1.3-0.4,2.2-1.5,2.2-2.9v-2h1c0.6,0,1-0.4,1-1v-4c0-0.6-0.4-1-1-1h-1V7
	C19,5.6,18.1,4.5,16.8,4.1z M14.2,2l0.5,2H7.3l0.5-2H14.2z M7.8,22l-0.5-2h7.4l-0.5,2H7.8z M17,17c0,0.6-0.4,1-1,1H6
	c-0.6,0-1-0.4-1-1V7c0-0.6,0.4-1,1-1h10c0.6,0,1,0.4,1,1V17z"/>
</svg>
