<?xml version="1.0" encoding="utf-8"?>
<!-- Generator: Adobe Illustrator 19.1.0, SVG Export Plug-In . SVG Version: 6.00 Build 0)  -->
<!DOCTYPE svg PUBLIC "-//W3C//DTD SVG 1.1//EN" "http://www.w3.org/Graphics/SVG/1.1/DTD/svg11.dtd">
<svg version="1.1" id="Layer_1" xmlns="http://www.w3.org/2000/svg" xmlns:xlink="http://www.w3.org/1999/xlink" x="0px" y="0px"
	 width="24px" height="24px" viewBox="0 0 24 24" enable-background="new 0 0 24 24" xml:space="preserve">
<path d="M8,1C4.1,1,1,4.1,1,8s3.1,7,7,7s7-3.1,7-7S11.9,1,8,1z M8,13c-2.8,0-5-2.2-5-5s2.2-5,5-5s5,2.2,5,5S10.8,13,8,13z"/>
<path d="M18,13c-2.8,0-5,2.2-5,5s2.2,5,5,5s5-2.2,5-5S20.8,13,18,13z M18,21c-1.7,0-3-1.3-3-3s1.3-3,3-3s3,1.3,3,3S19.7,21,18,21z"
	/>
<path d="M20,4c-1.7,0-3,1.3-3,3s1.3,3,3,3s3-1.3,3-3S21.7,4,20,4z M20,8c-0.6,0-1-0.4-1-1s0.4-1,1-1s1,0.4,1,1S20.6,8,20,8z"/>
</svg>
