<?xml version="1.0" encoding="utf-8"?>
<!-- Generator: Adobe Illustrator 19.1.0, SVG Export Plug-In . SVG Version: 6.00 Build 0)  -->
<!DOCTYPE svg PUBLIC "-//W3C//DTD SVG 1.1//EN" "http://www.w3.org/Graphics/SVG/1.1/DTD/svg11.dtd">
<svg version="1.1" id="Layer_1" xmlns="http://www.w3.org/2000/svg" xmlns:xlink="http://www.w3.org/1999/xlink" x="0px" y="0px"
	 width="24px" height="24px" viewBox="0 0 24 24" enable-background="new 0 0 24 24" xml:space="preserve">
<path d="M21.5,6.7C21.7,6.9,22,7,22.3,7s0.5-0.1,0.7-0.3c0.4-0.4,0.4-1,0-1.4L18.7,1c-0.4-0.4-1-0.4-1.4,0s-0.4,1,0,1.4l0,0
	l-2.1,2.1l-2.8-2.8c-0.4-0.4-1-0.4-1.4,0s-0.4,1,0,1.4l2.1,2.1l-2.1,2.1c0,0,0,0,0,0s0,0,0,0L8.8,9.5c0,0,0,0,0,0s0,0,0,0l-2.1,2.1
	c0,0,0,0,0,0s0,0,0,0l-2.8,2.8c-0.2,0.2-0.3,0.4-0.3,0.7s0.1,0.5,0.3,0.7l1.4,1.4L1,21.5c-0.4,0.4-0.4,1,0,1.4
	c0.2,0.2,0.5,0.3,0.7,0.3s0.5-0.1,0.7-0.3l4.2-4.2l1.4,1.4c0.2,0.2,0.4,0.3,0.7,0.3s0.5-0.1,0.7-0.3l9.2-9.2l2.1,2.1
	c0.2,0.2,0.5,0.3,0.7,0.3s0.5-0.1,0.7-0.3c0.4-0.4,0.4-1,0-1.4l-2.8-2.8L21.5,6.7L21.5,6.7z M8.8,18l-1.4-1.4c0,0,0,0,0,0s0,0,0,0
	L6,15.2l1.4-1.4l0.7,0.7c0.2,0.2,0.5,0.3,0.7,0.3s0.5-0.1,0.7-0.3c0.4-0.4,0.4-1,0-1.4l-0.7-0.7l0.7-0.7l0.7,0.7
	c0.2,0.2,0.5,0.3,0.7,0.3s0.5-0.1,0.7-0.3c0.4-0.4,0.4-1,0-1.4l-0.7-0.7l0.7-0.7l0.7,0.7c0.2,0.2,0.5,0.3,0.7,0.3s0.5-0.1,0.7-0.3
	c0.4-0.4,0.4-1,0-1.4l-0.7-0.7l1.4-1.4l2.8,2.8L8.8,18z M18,7.4L16.6,6l2.1-2.1l1.4,1.4L18,7.4z"/>
</svg>
