<?xml version="1.0" encoding="utf-8"?>
<!-- Generator: Adobe Illustrator 19.1.0, SVG Export Plug-In . SVG Version: 6.00 Build 0)  -->
<!DOCTYPE svg PUBLIC "-//W3C//DTD SVG 1.1//EN" "http://www.w3.org/Graphics/SVG/1.1/DTD/svg11.dtd">
<svg version="1.1" id="Layer_1" xmlns="http://www.w3.org/2000/svg" xmlns:xlink="http://www.w3.org/1999/xlink" x="0px" y="0px"
	 width="24px" height="24px" viewBox="0 0 24 24" enable-background="new 0 0 24 24" xml:space="preserve">
<path d="M19,6C19,6,19,6,19,6c-0.6-3.4-3.5-6-7-6C9.7,0,7.6,1.1,6.3,3C6.2,3,6.1,3,6,3C2.7,3,0,5.7,0,9c0,2.7,1.8,5,4.4,5.8
	c1,3.1,3.9,5.2,7.1,5.2c2.8,0,5.4-1.6,6.7-4.1c0.3,0,0.6,0.1,0.8,0.1c2.8,0,5-2.2,5-5S21.8,6,19,6z M18,13.8c-0.2-0.1-0.5-0.1-0.8,0
	c-0.2,0.1-0.4,0.3-0.5,0.6c-0.8,2.2-2.9,3.6-5.2,3.6c-2.6,0-4.8-1.8-5.4-4.3C6,13.3,5.7,13,5.3,12.9C3.4,12.6,2,10.9,2,9
	c0-2.2,1.8-4,4-4c0.2,0,0.4,0,0.6,0.1c0.4,0.1,0.8-0.1,1-0.5C8.5,3,10.2,2,12,2c2.8,0,5,2.2,5,5c0,0,0,0.1,0,0.1
	c0,0.3,0.1,0.6,0.4,0.8c0.2,0.2,0.6,0.3,0.9,0.2C18.5,8,18.8,8,19,8c1.7,0,3,1.3,3,3C22,13,20,14.6,18,13.8z"/>
<path d="M3,18c-1.7,0-3,1.3-3,3s1.3,3,3,3s3-1.3,3-3S4.7,18,3,18z M3,22c-0.6,0-1-0.4-1-1s0.4-1,1-1s1,0.4,1,1S3.6,22,3,22z"/>
<path d="M14,11h-2.2l2.1-3.5c0.2-0.3,0.2-0.7,0-1C13.7,6.2,13.4,6,13,6h-3C9.4,6,9,6.4,9,7s0.4,1,1,1h1.2l-2.1,3.5
	c-0.2,0.3-0.2,0.7,0,1C9.3,12.8,9.6,13,10,13h4c0.6,0,1-0.4,1-1S14.6,11,14,11z"/>
</svg>
