<?xml version="1.0" encoding="utf-8"?>
<!-- Generator: Adobe Illustrator 19.1.0, SVG Export Plug-In . SVG Version: 6.00 Build 0)  -->
<!DOCTYPE svg PUBLIC "-//W3C//DTD SVG 1.1//EN" "http://www.w3.org/Graphics/SVG/1.1/DTD/svg11.dtd">
<svg version="1.1" id="Layer_1" xmlns="http://www.w3.org/2000/svg" xmlns:xlink="http://www.w3.org/1999/xlink" x="0px" y="0px"
	 width="24px" height="24px" viewBox="0 0 24 24" enable-background="new 0 0 24 24" xml:space="preserve">
<path d="M12.9,1.5c-0.4-0.6-1.4-0.6-1.7,0C11.1,1.6,9,5.1,9,9.5s2.1,7.9,2.1,8c0.2,0.3,0.5,0.5,0.9,0.5s0.7-0.2,0.9-0.5
	c0.1-0.1,2.1-3.6,2.1-8S12.9,1.6,12.9,1.5z M12,14.6c-0.5-1.3-1-3.1-1-5.1s0.5-3.8,1-5.1c0.5,1.3,1,3.1,1,5.1S12.5,13.3,12,14.6z"/>
<path d="M21.8,10.1c-0.1,0-2.9,0.6-5.1,2.7c-2.1,2.1-2.7,4.9-2.7,5.1c-0.1,0.3,0,0.7,0.3,0.9c0.2,0.2,0.4,0.3,0.7,0.3
	c0.1,0,0.1,0,0.2,0c0.1,0,2.9-0.6,5.1-2.7c2.1-2.1,2.7-4.9,2.7-5.1c0.1-0.3,0-0.7-0.3-0.9C22.4,10.1,22.1,10,21.8,10.1z M18.8,14.9
	c-0.7,0.7-1.5,1.2-2.2,1.5c0.3-0.7,0.8-1.5,1.5-2.2c0.7-0.7,1.5-1.2,2.2-1.5C20,13.4,19.5,14.2,18.8,14.9z"/>
<path d="M18.5,19c-2.4,0-4.4,1.7-4.5,1.8c-0.2,0.2-0.3,0.5-0.3,0.8s0.1,0.6,0.3,0.8c0.1,0.1,2,1.8,4.5,1.8s4.4-1.7,4.5-1.8
	c0.2-0.2,0.3-0.5,0.3-0.8s-0.1-0.6-0.3-0.8C22.9,20.7,20.9,19,18.5,19z M18.5,22c-0.7,0-1.4-0.2-2-0.5c0.5-0.3,1.2-0.5,2-0.5
	s1.4,0.2,2,0.5C19.9,21.8,19.2,22,18.5,22z"/>
<path d="M1.3,10.3c-0.2,0.2-0.3,0.6-0.3,0.9c0,0.1,0.6,2.9,2.7,5.1C5.9,18.4,8.7,19,8.8,19c0.1,0,0.1,0,0.2,0c0.3,0,0.5-0.1,0.7-0.3
	c0.2-0.2,0.3-0.6,0.3-0.9c0-0.1-0.6-2.9-2.7-5.1c-2.1-2.1-4.9-2.7-5.1-2.7C1.9,10,1.6,10.1,1.3,10.3z M5.9,14.2
	c0.7,0.7,1.2,1.5,1.5,2.2c-0.7-0.3-1.5-0.8-2.2-1.5c-0.7-0.7-1.2-1.5-1.5-2.2C4.4,13,5.2,13.5,5.9,14.2z"/>
<path d="M5.5,19c-2.4,0-4.4,1.7-4.5,1.8c-0.2,0.2-0.3,0.5-0.3,0.8s0.1,0.6,0.3,0.8c0.1,0.1,2,1.8,4.5,1.8s4.4-1.7,4.5-1.8
	c0.2-0.2,0.3-0.5,0.3-0.8s-0.1-0.6-0.3-0.8C9.9,20.7,8,19,5.5,19z M5.5,22c-0.7,0-1.4-0.2-2-0.5c0.5-0.3,1.2-0.5,2-0.5
	s1.4,0.2,2,0.5C6.9,21.8,6.3,22,5.5,22z"/>
</svg>
