<?xml version="1.0" encoding="utf-8"?>
<!-- Generator: Adobe Illustrator 19.1.0, SVG Export Plug-In . SVG Version: 6.00 Build 0)  -->
<!DOCTYPE svg PUBLIC "-//W3C//DTD SVG 1.1//EN" "http://www.w3.org/Graphics/SVG/1.1/DTD/svg11.dtd">
<svg version="1.1" id="Layer_1" xmlns="http://www.w3.org/2000/svg" xmlns:xlink="http://www.w3.org/1999/xlink" x="0px" y="0px"
	 width="24px" height="24px" viewBox="0 0 24 24" enable-background="new 0 0 24 24" xml:space="preserve">
<path d="M20,10c-2.2,0-4,1.8-4,4c0,1.9,1.3,3.4,3,3.9V22H9v-5h2.3c1.5,0,2.8-1.1,3-2.6l1.6-11.1c0.1-0.6-0.1-1.2-0.5-1.6
	C15,1.3,14.4,1,13.8,1H12c0-0.6-0.4-1-1-1s-1,0.4-1,1v2c0,0.6,0.4,1,1,1s1-0.4,1-1h1.8l-1.6,11.1c-0.1,0.5-0.5,0.9-1,0.9H4.7
	c-0.5,0-0.9-0.4-1-0.9L2.2,3H4c0,0.6,0.4,1,1,1s1-0.4,1-1V1c0-0.6-0.4-1-1-1S4,0.4,4,1H2.2C1.6,1,1,1.3,0.6,1.7
	c-0.4,0.4-0.6,1-0.5,1.6l1.6,11.1C2,15.9,3.3,17,4.7,17H7v6c0,0.6,0.4,1,1,1h12c0.6,0,1-0.4,1-1v-5.1c1.7-0.4,3-2,3-3.9
	C24,11.8,22.2,10,20,10z M20,16c-1.1,0-2-0.9-2-2s0.9-2,2-2s2,0.9,2,2S21.1,16,20,16z"/>
</svg>
