<?xml version="1.0" encoding="utf-8"?>
<!-- Generator: Adobe Illustrator 19.1.0, SVG Export Plug-In . SVG Version: 6.00 Build 0)  -->
<!DOCTYPE svg PUBLIC "-//W3C//DTD SVG 1.1//EN" "http://www.w3.org/Graphics/SVG/1.1/DTD/svg11.dtd">
<svg version="1.1" id="Layer_1" xmlns="http://www.w3.org/2000/svg" xmlns:xlink="http://www.w3.org/1999/xlink" x="0px" y="0px"
	 width="24px" height="24px" viewBox="0 0 24 24" enable-background="new 0 0 24 24" xml:space="preserve">
<path d="M3.9,23c0.8,0,1.7-0.4,2.4-1.3l3.9-4.6c0.4-0.5,1.1-1.1,1.8-1.1c0.4,0,1,0.1,1.8,1.1l3.8,4.5c0.7,0.9,1.5,1.3,2.4,1.3
	c1.6,0,2.9-1.3,2.9-3l-1-9.9c0.2-0.8,1-3.5,1-5.1c0-2.2-1.8-4-4-4c-0.3,0-1.2,0-4.4,1.1c-1.7,0.5-3.5,0.5-5.1,0C6.2,1,5.3,1,5,1
	C2.8,1,1,2.8,1,5c0,1.5,0.8,4.3,1,5.1l-1,10C1,21.7,2.3,23,3.9,23z M4,9.7C3.7,8.8,3,6.2,3,5c0-1.1,0.9-2,2-2c0.3,0,1.2,0.1,3.8,1
	c2,0.7,4.3,0.7,6.3,0c2.6-0.9,3.6-1,3.8-1c1.1,0,2,0.9,2,2c0,1.2-0.7,3.8-1,4.7c0,0.1,0,0.3,0,0.4l1,10c0,0.5-0.4,0.9-0.9,0.9
	c-0.3,0-0.6-0.3-0.9-0.6l-3.9-4.6C14.3,14.6,13.2,14,12,14c-1.2,0-2.4,0.6-3.4,1.8l-3.8,4.6C4.5,20.8,4.1,21,3.9,21
	C3.4,21,3,20.6,3,20.2l1-10.1C4,10,4,9.8,4,9.7z"/>
<path d="M8.8,8.1c1.1,0.2,2.1,0.4,3.2,0.4c1.1,0,2.2-0.1,3.2-0.4C15.8,8,16.1,7.4,16,6.9c-0.1-0.5-0.7-0.9-1.2-0.7
	C13,6.6,11,6.6,9.2,6.1C8.7,6,8.2,6.3,8,6.9C7.9,7.4,8.2,8,8.8,8.1z"/>
</svg>
