<?xml version="1.0" encoding="utf-8"?>
<!-- Generator: Adobe Illustrator 19.1.0, SVG Export Plug-In . SVG Version: 6.00 Build 0)  -->
<!DOCTYPE svg PUBLIC "-//W3C//DTD SVG 1.1//EN" "http://www.w3.org/Graphics/SVG/1.1/DTD/svg11.dtd">
<svg version="1.1" id="Layer_1" xmlns="http://www.w3.org/2000/svg" xmlns:xlink="http://www.w3.org/1999/xlink" x="0px" y="0px"
	 width="24px" height="24px" viewBox="0 0 24 24" enable-background="new 0 0 24 24" xml:space="preserve">
<path d="M23,0H1C0.4,0,0,0.4,0,1v22c0,0.6,0.4,1,1,1h22c0.6,0,1-0.4,1-1V1C24,0.4,23.6,0,23,0z M22,22H2V2h20V22z"/>
<path d="M6,15h3v3c0,0.6,0.4,1,1,1h4c0.6,0,1-0.4,1-1v-3h3c0.6,0,1-0.4,1-1v-4c0-0.6-0.4-1-1-1h-3V6c0-0.6-0.4-1-1-1h-4
	C9.4,5,9,5.4,9,6v3H6c-0.6,0-1,0.4-1,1v4C5,14.6,5.4,15,6,15z M7,11h3c0.6,0,1-0.4,1-1V7h2v3c0,0.6,0.4,1,1,1h3v2h-3
	c-0.6,0-1,0.4-1,1v3h-2v-3c0-0.6-0.4-1-1-1H7V11z"/>
</svg>
