<?xml version="1.0" encoding="utf-8"?>
<!-- Generator: Adobe Illustrator 19.1.0, SVG Export Plug-In . SVG Version: 6.00 Build 0)  -->
<!DOCTYPE svg PUBLIC "-//W3C//DTD SVG 1.1//EN" "http://www.w3.org/Graphics/SVG/1.1/DTD/svg11.dtd">
<svg version="1.1" id="Layer_1" xmlns="http://www.w3.org/2000/svg" xmlns:xlink="http://www.w3.org/1999/xlink" x="0px" y="0px"
	 width="24px" height="24px" viewBox="0 0 24 24" enable-background="new 0 0 24 24" xml:space="preserve">
<path d="M12,0C5.4,0,0,5.4,0,12s5.4,12,12,12s12-5.4,12-12S18.6,0,12,0z M12,2c5.2,0,9.4,4,9.9,9H18c-0.4,0-0.7,0.2-0.9,0.6L15,15.8
	L9.9,5.6c-0.3-0.7-1.4-0.7-1.8,0L5.4,11H2.1C2.6,6,6.8,2,12,2z M12,22c-5.2,0-9.4-4-9.9-9H6c0.4,0,0.7-0.2,0.9-0.6L9,8.2l5.1,10.2
	c0.2,0.3,0.5,0.6,0.9,0.6s0.7-0.2,0.9-0.6l2.7-5.4h3.3C21.4,18,17.2,22,12,22z"/>
</svg>
