<?xml version="1.0" encoding="utf-8"?>
<!-- Generator: Adobe Illustrator 19.1.0, SVG Export Plug-In . SVG Version: 6.00 Build 0)  -->
<!DOCTYPE svg PUBLIC "-//W3C//DTD SVG 1.1//EN" "http://www.w3.org/Graphics/SVG/1.1/DTD/svg11.dtd">
<svg version="1.1" id="Layer_1" xmlns="http://www.w3.org/2000/svg" xmlns:xlink="http://www.w3.org/1999/xlink" x="0px" y="0px"
	 width="24px" height="24px" viewBox="0 0 24 24" enable-background="new 0 0 24 24" xml:space="preserve">
<path d="M23,0H1C0.4,0,0,0.4,0,1v22c0,0.6,0.4,1,1,1h22c0.6,0,1-0.4,1-1V1C24,0.4,23.6,0,23,0z M22,22H2V2h20V22z"/>
<path d="M5,13h14c0.6,0,1-0.4,1-1c0-4.4-3.6-8-8-8s-8,3.6-8,8C4,12.6,4.4,13,5,13z M12,6c3,0,5.4,2.2,5.9,5h-4.6L14,8.2
	c0.1-0.5-0.2-1.1-0.7-1.2c-0.5-0.1-1.1,0.2-1.2,0.7L11.2,11H6.1C6.6,8.2,9,6,12,6z"/>
</svg>
