<?xml version="1.0" encoding="utf-8"?>
<!-- Generator: Adobe Illustrator 18.1.1, SVG Export Plug-In . SVG Version: 6.00 Build 0)  -->
<!DOCTYPE svg PUBLIC "-//W3C//DTD SVG 1.1//EN" "http://www.w3.org/Graphics/SVG/1.1/DTD/svg11.dtd">
<svg version="1.1" id="Layer_1" xmlns="http://www.w3.org/2000/svg" xmlns:xlink="http://www.w3.org/1999/xlink" x="0px" y="0px"
	 width="32px" height="32px" viewBox="0 0 32 32" enable-background="new 0 0 32 32" xml:space="preserve">
<path d="M29,6.8C29,2.6,25.4,0,22,0c-2.6,0-5.3,1.5-6.4,4c-2.8,0.1-5.4,1-7.5,2.4c0,0-0.1,0.1-0.1,0.1C4.4,9.1,2,13.3,2,18
	c0,4.1,1.8,7.8,4.6,10.3c0.1,0.1,0.2,0.2,0.3,0.2C9.3,30.7,12.5,32,16,32c7.7,0,14-6.3,14-14c0-2.7-0.8-5.3-2.2-7.5
	C28.5,9.3,29,8,29,6.8z M22,2c2.5,0,5,1.8,5,4.8c0,1.9-2.3,4.8-4.1,6.8c0,0-0.1,0-0.1,0.1c0,0,0,0,0,0c-0.3,0.3-0.6,0.6-0.8,0.9
	c-1.8-1.8-5-5.5-5-7.8C17,3.8,19.5,2,22,2z M24.3,17.1c0,2.2-2.3,5.2-4.2,6.2c-0.6,0.3-1,0.4-1.3,0.2c-0.5-0.4-0.5-0.5-0.5-1.7
	c0.1-1,0.1-2.5-0.3-4.9c-0.2-0.8,0.6-1.6,1.5-2c0.9,1,1.6,1.7,1.8,1.8c0.2,0.2,0.4,0.3,0.7,0.3s0.5-0.1,0.7-0.3
	c0.1-0.1,0.5-0.5,1.1-1.1C24.1,16.1,24.3,16.6,24.3,17.1z M4,18c0-3.8,1.8-7.2,4.6-9.4C9.2,9,9.7,9.4,10,10c0.5,0.9,1.1,3,0.4,3.9
	c-0.4,0.5-1.3,1-2.2,1.4C7,15.9,5.5,16.6,5.5,18c0,1.1,0.8,2.1,1.6,3c0.3,0.4,0.7,0.8,0.9,1.1c0.8,1.1,0.7,2.3,0,3.7
	c-0.1,0.2-0.3,0.4-0.6,0.6C5.3,24.2,4,21.3,4,18z M28,18c0,6.6-5.4,12-12,12c-2.6,0-5-0.9-7-2.3c0.3-0.3,0.6-0.6,0.8-0.9
	c1.2-2,1.2-4,0-5.8c-0.3-0.4-0.7-0.9-1-1.3c-0.5-0.5-1.2-1.3-1.2-1.6c0.1-0.3,1.1-0.7,1.7-1c1-0.5,2.2-1.1,2.9-2
	c1.4-1.8,0.4-5-0.3-6.1c-0.4-0.7-0.9-1.1-1.4-1.5c1.4-0.8,3-1.2,4.7-1.4c0,0.3,0,0.5,0,0.8c0,2.1,1.6,4.5,3.2,6.5
	c-1.5,0.9-2.4,2.4-2.1,3.9c0.4,2.2,0.3,3.5,0.3,4.4c-0.1,1.2-0.1,2.3,1.3,3.4c0.3,0.2,0.8,0.5,1.5,0.5c0.5,0,1.1-0.1,1.9-0.5
	c2.5-1.3,5.4-5,5.3-8c0-1.1-0.4-2.1-1.2-2.9c0.5-0.6,1-1.2,1.5-1.8C27.5,14.1,28,16,28,18z"/>
<path d="M22,10c1.7,0,3-1.3,3-3s-1.3-3-3-3s-3,1.3-3,3S20.3,10,22,10z M22,6c0.6,0,1,0.4,1,1s-0.4,1-1,1s-1-0.4-1-1S21.4,6,22,6z"/>
</svg>
