<?xml version="1.0" encoding="utf-8"?>
<!-- Generator: Adobe Illustrator 18.1.1, SVG Export Plug-In . SVG Version: 6.00 Build 0)  -->
<!DOCTYPE svg PUBLIC "-//W3C//DTD SVG 1.1//EN" "http://www.w3.org/Graphics/SVG/1.1/DTD/svg11.dtd">
<svg version="1.1" id="Layer_1" xmlns="http://www.w3.org/2000/svg" xmlns:xlink="http://www.w3.org/1999/xlink" x="0px" y="0px"
	 width="32px" height="32px" viewBox="0 0 32 32" enable-background="new 0 0 32 32" xml:space="preserve">
<path d="M16,0C7.2,0,0,7.2,0,16s7.2,16,16,16s16-7.2,16-16S24.8,0,16,0z M17,29.9V27c0-0.6-0.4-1-1-1s-1,0.4-1,1v2.9
	C8.1,29.5,2.5,23.9,2.1,17H5c0.6,0,1-0.4,1-1s-0.4-1-1-1H2.1C2.5,8.1,8.1,2.5,15,2.1V5c0,0.6,0.4,1,1,1s1-0.4,1-1V2.1
	c6.9,0.5,12.5,6,12.9,12.9H27c-0.6,0-1,0.4-1,1s0.4,1,1,1h2.9C29.5,23.9,23.9,29.5,17,29.9z"/>
<path d="M21.7,9.1l-9,3c0,0,0,0,0,0c-0.1,0-0.3,0.1-0.4,0.2c0,0,0,0,0,0c-0.1,0.1-0.2,0.2-0.2,0.4c0,0,0,0,0,0l-3,9
	c-0.1,0.4,0,0.8,0.2,1C9.5,22.9,9.7,23,10,23c0.1,0,0.2,0,0.3-0.1l9-3c0,0,0,0,0,0c0.1,0,0.3-0.1,0.4-0.2c0,0,0,0,0,0
	c0.1-0.1,0.2-0.2,0.2-0.4c0,0,0,0,0,0l3-9c0.1-0.4,0-0.8-0.2-1C22.4,9,22,8.9,21.7,9.1z M13.4,14.9l3.7,3.7l-5.6,1.9L13.4,14.9z
	 M18.6,17.1l-3.7-3.7l5.6-1.9L18.6,17.1z"/>
</svg>
