<?xml version="1.0" encoding="utf-8"?>
<!-- Generator: Adobe Illustrator 18.1.1, SVG Export Plug-In . SVG Version: 6.00 Build 0)  -->
<!DOCTYPE svg PUBLIC "-//W3C//DTD SVG 1.1//EN" "http://www.w3.org/Graphics/SVG/1.1/DTD/svg11.dtd">
<svg version="1.1" id="Layer_1" xmlns="http://www.w3.org/2000/svg" xmlns:xlink="http://www.w3.org/1999/xlink" x="0px" y="0px"
	 width="32px" height="32px" viewBox="0 0 32 32" enable-background="new 0 0 32 32" xml:space="preserve">
<path d="M25.8,22.5C25.7,22.2,25.3,22,25,22h-8v-4.1c4.5-0.5,8-4.3,8-8.9c0-5-4-9-9-9S7,4,7,9c0,4.6,3.5,8.4,8,8.9V22H7
	c-0.3,0-0.7,0.2-0.8,0.5l-5,8c-0.2,0.3-0.2,0.7,0,1S1.6,32,2,32h28c0.4,0,0.7-0.2,0.9-0.5s0.2-0.7,0-1L25.8,22.5z M9,9
	c0-3.9,3.1-7,7-7s7,3.1,7,7s-3.1,7-7,7S9,12.9,9,9z M3.8,30l3.8-6H15v2c0,0.6,0.4,1,1,1s1-0.4,1-1v-2h7.4l3.8,6H3.8z"/>
</svg>
