<?xml version="1.0" encoding="utf-8"?>
<!-- Generator: Adobe Illustrator 18.1.1, SVG Export Plug-In . SVG Version: 6.00 Build 0)  -->
<!DOCTYPE svg PUBLIC "-//W3C//DTD SVG 1.1//EN" "http://www.w3.org/Graphics/SVG/1.1/DTD/svg11.dtd">
<svg version="1.1" id="Layer_1" xmlns="http://www.w3.org/2000/svg" xmlns:xlink="http://www.w3.org/1999/xlink" x="0px" y="0px"
	 width="32px" height="32px" viewBox="0 0 32 32" enable-background="new 0 0 32 32" xml:space="preserve">
<path d="M25.8,22.5C25.7,22.2,25.3,22,25,22h-3.5c2.7-3.6,5.5-8.1,5.5-11.4C27,4,21.4,0,16,0S5,4,5,10.6c0,3.3,2.8,7.9,5.5,11.4H7
	c-0.3,0-0.7,0.2-0.8,0.5l-5,8c-0.2,0.3-0.2,0.7,0,1S1.6,32,2,32h28c0.4,0,0.7-0.2,0.9-0.5s0.2-0.7,0-1L25.8,22.5z M16,2
	c4.4,0,9,3.2,9,8.5c0,3.1-3.3,8-6.2,11.7c0,0,0,0.1-0.1,0.1c-1,1.2-1.9,2.3-2.7,3.2c-3.1-3.4-9-10.8-9-14.9C7,5.2,11.6,2,16,2z
	 M3.8,30l3.8-6h4.5c1.7,2.1,3.1,3.5,3.2,3.7c0.2,0.2,0.5,0.3,0.7,0.3s0.5-0.1,0.7-0.3c0.2-0.2,1.5-1.6,3.2-3.7h4.5l3.8,6H3.8z"/>
<path d="M20,11c0-2.2-1.8-4-4-4s-4,1.8-4,4s1.8,4,4,4S20,13.2,20,11z M14,11c0-1.1,0.9-2,2-2s2,0.9,2,2s-0.9,2-2,2S14,12.1,14,11z"
	/>
</svg>
