<?xml version="1.0" encoding="utf-8"?>
<!-- Generator: Adobe Illustrator 18.1.1, SVG Export Plug-In . SVG Version: 6.00 Build 0)  -->
<!DOCTYPE svg PUBLIC "-//W3C//DTD SVG 1.1//EN" "http://www.w3.org/Graphics/SVG/1.1/DTD/svg11.dtd">
<svg version="1.1" id="Layer_1" xmlns="http://www.w3.org/2000/svg" xmlns:xlink="http://www.w3.org/1999/xlink" x="0px" y="0px"
	 width="32px" height="32px" viewBox="0 0 32 32" enable-background="new 0 0 32 32" xml:space="preserve">
<path d="M8.9,29C8.9,29,9,29,8.9,29c0.5,0,0.8-0.2,1-0.6l5.8-12.7l12.7-5.8c0.4-0.2,0.6-0.6,0.6-1S28.7,8.1,28.3,8l-26-7
	c-0.3-0.1-0.7,0-1,0.3C1,1.5,0.9,1.9,1,2.3l7,26C8.1,28.7,8.5,29,8.9,29z M25.1,9.2l-10.5,4.8c-0.2,0.1-0.4,0.3-0.5,0.5L9.2,25.1
	L3.4,3.4L25.1,9.2z"/>
</svg>
