<?xml version="1.0" encoding="utf-8"?>
<!-- Generator: Adobe Illustrator 18.1.1, SVG Export Plug-In . SVG Version: 6.00 Build 0)  -->
<!DOCTYPE svg PUBLIC "-//W3C//DTD SVG 1.1//EN" "http://www.w3.org/Graphics/SVG/1.1/DTD/svg11.dtd">
<svg version="1.1" id="Layer_1" xmlns="http://www.w3.org/2000/svg" xmlns:xlink="http://www.w3.org/1999/xlink" x="0px" y="0px"
	 width="32px" height="32px" viewBox="0 0 32 32" enable-background="new 0 0 32 32" xml:space="preserve">
<path d="M16,32c6.5,0,13-1.7,13-5c0-2.5-3.8-4-7.8-4.6C24,18.8,27,14,27,10.5C27,3.9,21.4,0,16,0S5,3.9,5,10.5c0,3.5,3,8.2,5.8,11.8
	C6.8,23,3,24.5,3,27C3,30.3,9.5,32,16,32z M16,2c4.4,0,9,3.2,9,8.5c0,3.1-3.4,8.1-6.3,11.8c-0.1,0.1-0.3,0.2-0.3,0.4
	c-0.9,1.1-1.7,2-2.3,2.7c-3.1-3.4-9-10.8-9-14.9C7,5.2,11.6,2,16,2z M12.3,24.2c1.6,1.9,2.9,3.3,3,3.4c0.2,0.2,0.5,0.3,0.7,0.3
	s0.5-0.1,0.7-0.3c0.1-0.2,1.4-1.5,3-3.4c5.1,0.6,7.3,2.1,7.3,2.8c0,1-3.9,3-11,3S5,28,5,27C5,26.3,7.1,24.8,12.3,24.2z"/>
<path d="M20,11c0-2.2-1.8-4-4-4s-4,1.8-4,4s1.8,4,4,4S20,13.2,20,11z M14,11c0-1.1,0.9-2,2-2s2,0.9,2,2s-0.9,2-2,2S14,12.1,14,11z"
	/>
</svg>
