<?xml version="1.0" encoding="utf-8"?>
<!-- Generator: Adobe Illustrator 18.1.1, SVG Export Plug-In . SVG Version: 6.00 Build 0)  -->
<!DOCTYPE svg PUBLIC "-//W3C//DTD SVG 1.1//EN" "http://www.w3.org/Graphics/SVG/1.1/DTD/svg11.dtd">
<svg version="1.1" id="Layer_1" xmlns="http://www.w3.org/2000/svg" xmlns:xlink="http://www.w3.org/1999/xlink" x="0px" y="0px"
	 width="32px" height="32px" viewBox="0 0 32 32" enable-background="new 0 0 32 32" xml:space="preserve">
<path d="M16,31c0.3,0,0.5-0.1,0.7-0.3C17.2,30.2,28,19.2,28,12c0-7.5-6.1-12-12-12S4,4.5,4,12c0,7.1,10.8,18.2,11.3,18.7
	C15.5,30.9,15.7,31,16,31z M16,2c4.9,0,10,3.8,10,10c0,5.4-7.6,13.9-10,16.5C13.6,26,6,17.4,6,12C6,5.8,11.1,2,16,2z"/>
<path d="M21,13c0.6,0,1-0.4,1-1s-0.4-1-1-1h-4V7c0-0.6-0.4-1-1-1s-1,0.4-1,1v5c0,0.6,0.4,1,1,1H21z"/>
</svg>
