<?xml version="1.0" encoding="utf-8"?>
<!-- Generator: Adobe Illustrator 18.1.1, SVG Export Plug-In . SVG Version: 6.00 Build 0)  -->
<!DOCTYPE svg PUBLIC "-//W3C//DTD SVG 1.1//EN" "http://www.w3.org/Graphics/SVG/1.1/DTD/svg11.dtd">
<svg version="1.1" id="Layer_1" xmlns="http://www.w3.org/2000/svg" xmlns:xlink="http://www.w3.org/1999/xlink" x="0px" y="0px"
	 width="32px" height="32px" viewBox="0 0 32 32" enable-background="new 0 0 32 32" xml:space="preserve">
<path d="M24.5,0H16c-0.6,0-1,0.4-1,1s0.4,1,1,1h8.5c3,0,5.5,2.5,5.5,5.5S27.5,13,24.5,13h-3.6c-0.5-2.3-2.5-4-4.9-4s-4.4,1.7-4.9,4
	H7.5C3.4,13,0,16.4,0,20.5S3.4,28,7.5,28h7.1l-1.3,1.3c-0.4,0.4-0.4,1,0,1.4c0.2,0.2,0.5,0.3,0.7,0.3s0.5-0.1,0.7-0.3l3-3
	c0.1-0.1,0.2-0.2,0.2-0.3c0.1-0.2,0.1-0.5,0-0.8c-0.1-0.1-0.1-0.2-0.2-0.3l-3-3c-0.4-0.4-1-0.4-1.4,0s-0.4,1,0,1.4l1.3,1.3H7.5
	c-3,0-5.5-2.5-5.5-5.5S4.5,15,7.5,15h3.6c0.5,2.3,2.5,4,4.9,4s4.4-1.7,4.9-4h3.6c4.1,0,7.5-3.4,7.5-7.5S28.6,0,24.5,0z M16,17
	c-1.7,0-3-1.3-3-3s1.3-3,3-3s3,1.3,3,3S17.7,17,16,17z"/>
<path d="M10,0C9.4,0,9,0.4,9,1s0.4,1,1,1h2c0.6,0,1-0.4,1-1s-0.4-1-1-1H10z"/>
</svg>
