<?xml version="1.0" encoding="utf-8"?>
<!-- Generator: Adobe Illustrator 18.1.1, SVG Export Plug-In . SVG Version: 6.00 Build 0)  -->
<!DOCTYPE svg PUBLIC "-//W3C//DTD SVG 1.1//EN" "http://www.w3.org/Graphics/SVG/1.1/DTD/svg11.dtd">
<svg version="1.1" id="Layer_1" xmlns="http://www.w3.org/2000/svg" xmlns:xlink="http://www.w3.org/1999/xlink" x="0px" y="0px"
	 width="32px" height="32px" viewBox="0 0 32 32" enable-background="new 0 0 32 32" xml:space="preserve">
<path d="M31.6,1.2c-0.3-0.2-0.6-0.2-0.9-0.1L21,4.9l-9.6-3.9C11.3,1,11.1,1,11,1c0,0,0,0,0,0s0,0,0,0c-0.1,0-0.2,0-0.3,0.1l-10,4
	C0.2,5.2,0,5.6,0,6v20c0,0.3,0.2,0.6,0.4,0.8C0.6,26.9,0.8,27,1,27c0.1,0,0.3,0,0.4-0.1l9.1-3.6l1.6,6c0.1,0.4,0.4,0.7,0.8,0.7
	c0,0,0.1,0,0.1,0c0.4,0,0.7-0.2,0.9-0.5l2.5-4.3l4.3,1.7c0,0,0,0,0,0l0,0c0.1,0,0.2,0.1,0.4,0.1c0,0,0,0,0,0c0,0,0,0,0,0
	c0.1,0,0.2,0,0.4-0.1l10-4c0.4-0.2,0.6-0.5,0.6-0.9V2C32,1.7,31.8,1.4,31.6,1.2z M12,13.8V3.5l8,3.2v9.2L12,13.8z M2,24.5V6.7l8-3.2
	v9.8L9.3,13c-0.3-0.1-0.7,0-1,0.3s-0.4,0.6-0.3,1l1.9,7.1L2,24.5z M13.3,26.4l-2.9-11l11,2.9l-4.9,2.8c-0.2,0.1-0.3,0.2-0.4,0.4
	l-1.1,2c0,0,0,0.1-0.1,0.1c0,0,0,0,0,0L13.3,26.4z M17.7,22.7l2.3-1.3v3.1l-2.7-1.1L17.7,22.7z M30,21.3l-8,3.2v-4.2l2.5-1.4
	c0.4-0.2,0.5-0.6,0.5-1s-0.3-0.7-0.7-0.8L22,16.4V6.7l8-3.2V21.3z"/>
</svg>
