<?xml version="1.0" encoding="utf-8"?>
<!-- Generator: Adobe Illustrator 18.1.1, SVG Export Plug-In . SVG Version: 6.00 Build 0)  -->
<!DOCTYPE svg PUBLIC "-//W3C//DTD SVG 1.1//EN" "http://www.w3.org/Graphics/SVG/1.1/DTD/svg11.dtd">
<svg version="1.1" id="Layer_1" xmlns="http://www.w3.org/2000/svg" xmlns:xlink="http://www.w3.org/1999/xlink" x="0px" y="0px"
	 width="32px" height="32px" viewBox="0 0 32 32" enable-background="new 0 0 32 32" xml:space="preserve">
<path d="M28.7,6.3c-0.1-0.1-0.1-0.2-0.2-0.3C25.5,2.4,21,0,16,0c-0.3,0-0.6,0-0.9,0c-0.2,0-0.4,0-0.6,0C11.7,0.3,9.1,1.3,7,2.8
	c0,0-0.1,0.1-0.1,0.1C2.7,5.8,0,10.6,0,16c0,4.7,2,8.9,5.2,11.8c0.1,0.1,0.2,0.2,0.3,0.3C8.3,30.5,12,32,16,32c8.8,0,16-7.2,16-16
	C32,12.4,30.8,9,28.7,6.3C28.7,6.3,28.7,6.3,28.7,6.3z M26.2,6.4c-0.3,0.2-0.7,0.4-1,0.5c-1.7,0.9-3.3,1.8-4.2,1.5
	C20.3,8.3,20.1,8,19.7,7c-0.2-0.5-0.5-1.1-0.9-1.8c-0.4-0.7-1.2-1.2-1.9-1.7c-0.4-0.3-1.3-0.9-1.3-1.1c0-0.1,0-0.2,0-0.3
	c0.1,0,0.2,0,0.3,0C20,2,23.6,3.7,26.2,6.4z M2,16c0-4.5,2.1-8.5,5.5-11.1c0.7,0.5,1.4,1,1.8,1.7c0.5,0.9,1.3,3.6,0.5,4.7
	c-0.5,0.6-1.6,1.2-2.5,1.6c-1.5,0.7-3.1,1.5-3.1,3.1c0,1.2,0.9,2.3,1.9,3.4c0.4,0.4,0.8,0.9,1,1.3C7.9,22,7.9,23.5,7,25
	c-0.2,0.3-0.5,0.6-0.8,0.9C3.6,23.4,2,19.9,2,16z M16,30c-3.1,0-6-1-8.3-2.8c0.4-0.4,0.8-0.8,1-1.2c1.3-2.2,1.3-4.5,0-6.5
	c-0.3-0.5-0.8-1-1.2-1.5c-0.6-0.7-1.4-1.6-1.4-2c0-0.3,1.4-1,2-1.3c1.2-0.6,2.5-1.2,3.2-2.2c1.6-2.1,0.3-5.8-0.4-6.9
	c-0.5-0.8-1.1-1.4-1.7-1.9c1.3-0.7,2.8-1.3,4.4-1.5c0,0.1,0,0.1,0,0.1c0,1.3,1.2,2.1,2.2,2.8c0.6,0.4,1.1,0.8,1.4,1.1
	c0.3,0.5,0.5,1,0.7,1.4c0.4,1.1,0.9,2.3,2.7,2.7c0.2,0.1,0.5,0.1,0.8,0.1c1.4,0,3-0.9,4.8-1.8C26.6,8.5,27,8.3,27.5,8
	c1.6,2.3,2.5,5,2.5,8C30,23.7,23.7,30,16,30z"/>
<path d="M20.8,12.1c-1.9,0-3.8,0.8-4.9,2.1c-0.8,0.9-1.1,2-0.9,3.1c0.5,2.5,0.4,4,0.3,5.2c-0.1,1.4-0.2,2.6,1.4,3.8
	c0.5,0.4,1,0.5,1.7,0.5c1.4,0,3.1-0.9,4.7-2.5c1.7-1.7,3.5-4.5,3.5-7.1C26.5,14.4,23.9,12.1,20.8,12.1z M21.7,22.9
	c-1.2,1.2-2.4,1.9-3.3,1.9c-0.3,0-0.4-0.1-0.5-0.1c-0.7-0.5-0.7-0.7-0.6-2c0.1-1.2,0.2-2.9-0.4-5.7c-0.1-0.5,0.1-1,0.4-1.5
	c0.7-0.8,2-1.4,3.3-1.4c2.1,0,3.7,1.4,3.8,3.1C24.6,18.9,23.4,21.2,21.7,22.9z"/>
</svg>
