<?xml version="1.0" encoding="utf-8"?>
<!-- Generator: Adobe Illustrator 18.1.1, SVG Export Plug-In . SVG Version: 6.00 Build 0)  -->
<!DOCTYPE svg PUBLIC "-//W3C//DTD SVG 1.1//EN" "http://www.w3.org/Graphics/SVG/1.1/DTD/svg11.dtd">
<svg version="1.1" id="Layer_1" xmlns="http://www.w3.org/2000/svg" xmlns:xlink="http://www.w3.org/1999/xlink" x="0px" y="0px"
	 width="32px" height="32px" viewBox="0 0 32 32" enable-background="new 0 0 32 32" xml:space="preserve">
<path d="M31.6,5.2C31.3,5,31,5,30.7,5L23,7.4c0-0.1,0-0.2,0-0.4c0-3.9-3.1-7-7-7c-3.4,0-6.2,2.4-6.9,5.7L0.6,9.1C0.2,9.2,0,9.6,0,10
	v20c0,0.3,0.2,0.6,0.4,0.8C0.6,30.9,0.8,31,1,31c0.1,0,0.3,0,0.4-0.1l9.6-3.9l9.6,3.9c0.2,0.1,0.5,0.1,0.7,0l10-4
	c0.4-0.2,0.6-0.5,0.6-0.9V6C32,5.7,31.9,5.4,31.6,5.2z M12,12.7c0.9,0.6,1.9,1,3,1.2V18c0,0.6,0.4,1,1,1s1-0.4,1-1v-4.1
	c1.1-0.2,2.1-0.6,3-1.2v15.8l-8-3.2V12.7z M16,2c2.8,0,5,2.2,5,5s-2.2,5-5,5s-5-2.2-5-5S13.2,2,16,2z M2,10.7l7.1-2.8
	c0.1,1,0.5,1.9,0.9,2.7v14.7l-8,3.2V10.7z M30,25.3l-8,3.2V10.6c0.2-0.3,0.4-0.6,0.5-1L30,7.3V25.3z"/>
</svg>
