<?xml version="1.0" encoding="utf-8"?>
<!-- Generator: Adobe Illustrator 18.1.1, SVG Export Plug-In . SVG Version: 6.00 Build 0)  -->
<!DOCTYPE svg PUBLIC "-//W3C//DTD SVG 1.1//EN" "http://www.w3.org/Graphics/SVG/1.1/DTD/svg11.dtd">
<svg version="1.1" id="Layer_1" xmlns="http://www.w3.org/2000/svg" xmlns:xlink="http://www.w3.org/1999/xlink" x="0px" y="0px"
	 width="32px" height="32px" viewBox="0 0 32 32" enable-background="new 0 0 32 32" xml:space="preserve">
<path d="M27.5,2H25c-0.6,0-1,0.4-1,1v6H8V3c0-0.6-0.4-1-1-1H4.5C2,2,0,4,0,6.5V25c0,2.8,2.2,5,5,5h22c2.8,0,5-2.2,5-5V6.5
	C32,4,30,2,27.5,2z M4.5,4H6v5H4.5C3.1,9,2,7.9,2,6.5S3.1,4,4.5,4z M30,25c0,1.7-1.3,3-3,3H5c-1.7,0-3-1.3-3-3V10.2
	C2.7,10.7,3.6,11,4.5,11h23c0.9,0,1.8-0.3,2.5-0.8V25z M27.5,9H26V4h1.5C28.9,4,30,5.1,30,6.5S28.9,9,27.5,9z"/>
<path d="M25.7,16.3c-0.4-0.4-1-0.4-1.4,0L23,17.6l-1.3-1.3c-0.4-0.4-1-0.4-1.4,0s-0.4,1,0,1.4l1.3,1.3l-1.3,1.3
	c-0.4,0.4-0.4,1,0,1.4c0.2,0.2,0.5,0.3,0.7,0.3s0.5-0.1,0.7-0.3l1.3-1.3l1.3,1.3c0.2,0.2,0.5,0.3,0.7,0.3s0.5-0.1,0.7-0.3
	c0.4-0.4,0.4-1,0-1.4L24.4,19l1.3-1.3C26.1,17.3,26.1,16.7,25.7,16.3z"/>
<path d="M12,18h-1c-0.6,0-1,0.4-1,1s0.4,1,1,1h1c0.6,0,1-0.4,1-1S12.6,18,12,18z"/>
<path d="M7,18H6c-0.6,0-1,0.4-1,1s0.4,1,1,1h1c0.6,0,1-0.4,1-1S7.6,18,7,18z"/>
<path d="M17,18h-1c-0.6,0-1,0.4-1,1s0.4,1,1,1h1c0.6,0,1-0.4,1-1S17.6,18,17,18z"/>
</svg>
