<?xml version="1.0" encoding="utf-8"?>
<!-- Generator: Adobe Illustrator 18.1.1, SVG Export Plug-In . SVG Version: 6.00 Build 0)  -->
<!DOCTYPE svg PUBLIC "-//W3C//DTD SVG 1.1//EN" "http://www.w3.org/Graphics/SVG/1.1/DTD/svg11.dtd">
<svg version="1.1" id="Layer_1" xmlns="http://www.w3.org/2000/svg" xmlns:xlink="http://www.w3.org/1999/xlink" x="0px" y="0px"
	 width="32px" height="32px" viewBox="0 0 32 32" enable-background="new 0 0 32 32" xml:space="preserve">
<path d="M1.4,6.3C0.9,6.6,0.8,7.2,1.1,7.7l13.2,22.9c0.2,0.3,0.5,0.5,0.9,0.5c0.2,0,0.3,0,0.5-0.1c0.5-0.3,0.6-0.9,0.4-1.4L2.8,6.7
	C2.5,6.2,1.9,6.1,1.4,6.3z"/>
<path d="M13.2,19.4C13.2,19.4,13.2,19.4,13.2,19.4c0.4,0,0.7-0.2,0.9-0.5c1.6-2.9,3.8-3.7,6.3-4.6c3-1.1,6.4-2.4,8.6-7.8
	c0.1-0.4,0.1-0.8-0.2-1.1c-0.3-0.3-0.7-0.4-1-0.3c-0.5,0.1-1,0.2-1.6,0.2c-1.6,0-3.5-0.5-5.5-0.9c-2.2-0.5-4.5-1.1-6.8-1.1
	c-3.2,0-5.8,1.2-7.7,3.6C5.9,7.2,5.9,7.7,6.1,8l6.3,10.9C12.5,19.2,12.9,19.4,13.2,19.4z M13.8,5.3c2,0,4.2,0.5,6.3,1.1
	c2.2,0.5,4.3,1,6.1,1c-1.8,3.2-4.2,4.1-6.7,5c-2.2,0.8-4.5,1.7-6.4,4.1L8.2,7.6C9.6,6.1,11.5,5.3,13.8,5.3z"/>
</svg>
