<?xml version="1.0" encoding="utf-8"?>
<!-- Generator: Adobe Illustrator 18.1.1, SVG Export Plug-In . SVG Version: 6.00 Build 0)  -->
<!DOCTYPE svg PUBLIC "-//W3C//DTD SVG 1.1//EN" "http://www.w3.org/Graphics/SVG/1.1/DTD/svg11.dtd">
<svg version="1.1" id="Layer_1" xmlns="http://www.w3.org/2000/svg" xmlns:xlink="http://www.w3.org/1999/xlink" x="0px" y="0px"
	 width="32px" height="32px" viewBox="0 0 32 32" enable-background="new 0 0 32 32" xml:space="preserve">
<path d="M30.7,5l-6.8,2C23.6,2.6,19.7,0,16,0c-3.4,0-7,2.2-7.8,6l-7.6,3C0.2,9.2,0,9.6,0,10v20c0,0.3,0.2,0.6,0.4,0.8
	C0.6,30.9,0.8,31,1,31c0.1,0,0.3,0,0.4-0.1l9.6-3.9l9.6,3.9c0.2,0.1,0.5,0.1,0.7,0l10-4c0.4-0.2,0.6-0.5,0.6-0.9V6
	c0-0.3-0.1-0.6-0.4-0.8C31.3,5,31,5,30.7,5z M20,28.5l-8-3.2V16c1.5,1.9,3,3.4,3.3,3.7c0.2,0.2,0.5,0.3,0.7,0.3s0.5-0.1,0.7-0.3
	c0.3-0.3,1.8-1.8,3.3-3.7V28.5z M16,2c2.9,0,6,2.2,6,5.8c0,0.1,0,0.2,0,0.3c0,0.1,0,0.2,0,0.3c-0.5,2.8-3.9,7-5.9,9.1
	c-2.2-2.3-6-7-6-9.7C10,4.2,13.1,2,16,2z M2,10.7l6-2.4c0.1,1.5,0.9,3.3,2,4.9v12.1l-8,3.2V10.7z M30,25.3l-8,3.2V13.2
	c0.8-1.3,1.5-2.7,1.8-4L30,7.3V25.3z"/>
<path d="M16,11c1.7,0,3-1.3,3-3s-1.3-3-3-3s-3,1.3-3,3S14.3,11,16,11z M16,7c0.6,0,1,0.4,1,1s-0.4,1-1,1s-1-0.4-1-1S15.4,7,16,7z"/>
</svg>
