<?xml version="1.0" encoding="utf-8"?>
<!-- Generator: Adobe Illustrator 18.1.1, SVG Export Plug-In . SVG Version: 6.00 Build 0)  -->
<!DOCTYPE svg PUBLIC "-//W3C//DTD SVG 1.1//EN" "http://www.w3.org/Graphics/SVG/1.1/DTD/svg11.dtd">
<svg version="1.1" id="Layer_1" xmlns="http://www.w3.org/2000/svg" xmlns:xlink="http://www.w3.org/1999/xlink" x="0px" y="0px"
	 width="32px" height="32px" viewBox="0 0 32 32" enable-background="new 0 0 32 32" xml:space="preserve">
<path d="M16,0C10.1,0,4,4.5,4,12c0,7.1,10.8,18.2,11.3,18.7c0.2,0.2,0.4,0.3,0.7,0.3s0.5-0.1,0.7-0.3C17.2,30.2,28,19.2,28,12
	C28,4.5,21.9,0,16,0z M16,28.5C13.6,26,6,17.4,6,12C6,5.8,11.1,2,16,2s10,3.8,10,10C26,17.4,18.4,26,16,28.5z"/>
<path d="M20,11h-8c-0.6,0-1,0.4-1,1s0.4,1,1,1h8c0.6,0,1-0.4,1-1S20.6,11,20,11z"/>
</svg>
