<?xml version="1.0" encoding="utf-8"?>
<!-- Generator: Adobe Illustrator 18.1.1, SVG Export Plug-In . SVG Version: 6.00 Build 0)  -->
<!DOCTYPE svg PUBLIC "-//W3C//DTD SVG 1.1//EN" "http://www.w3.org/Graphics/SVG/1.1/DTD/svg11.dtd">
<svg version="1.1" id="Layer_1" xmlns="http://www.w3.org/2000/svg" xmlns:xlink="http://www.w3.org/1999/xlink" x="0px" y="0px"
	 width="32px" height="32px" viewBox="0 0 32 32" enable-background="new 0 0 32 32" xml:space="preserve">
<path d="M24.7,19.9c0.1-0.6,0.2-1.1,0.3-1.7c0.3-1.4-0.1-2.8-1.1-4c-1.1-1.4-3-2.2-4.9-2.2h-3h-3c-1.9,0-3.8,0.8-4.9,2.2
	c-1,1.1-1.3,2.5-1.1,4c0.1,0.6,0.2,1.2,0.3,1.7C2.7,21,0,22.8,0,25c0,3.9,8,6,16,6s16-2.1,16-6C32,22.8,29.4,21,24.7,19.9z
	 M9.6,15.5c0.8-0.9,2.1-1.5,3.4-1.5h6c1.3,0,2.6,0.6,3.4,1.5c0.4,0.5,0.8,1.3,0.6,2.3c-0.2,0.9-0.3,1.8-0.4,2.6c0,0,0,0,0,0
	c0,0,0,0,0,0.1c-0.2,1-0.3,1.9-0.4,2.5H9.9c-0.2-1.1-0.5-3.1-0.9-5.2C8.8,16.8,9.2,16,9.6,15.5z M16,29c-8.5,0-14-2.4-14-4
	c0-0.9,1.9-2.3,5.6-3.1C7.9,23.2,8,24.2,8,24.2C8.1,24.6,8.5,25,9,25h14c0.5,0,0.9-0.4,1-0.8c0,0,0.1-0.9,0.4-2.3
	c3.7,0.9,5.6,2.2,5.6,3.1C30,26.6,24.5,29,16,29z"/>
<path d="M21,7V5c0-2.8-2.2-5-5-5s-5,2.2-5,5v2c0,2.8,2.2,5,5,5S21,9.8,21,7z M19,7c0,1.7-1.3,3-3,3s-3-1.3-3-3V5c0-1.7,1.3-3,3-3
	s3,1.3,3,3V7z"/>
</svg>
