<?xml version="1.0" encoding="utf-8"?>
<!-- Generator: Adobe Illustrator 18.1.1, SVG Export Plug-In . SVG Version: 6.00 Build 0)  -->
<!DOCTYPE svg PUBLIC "-//W3C//DTD SVG 1.1//EN" "http://www.w3.org/Graphics/SVG/1.1/DTD/svg11.dtd">
<svg version="1.1" id="Layer_1" xmlns="http://www.w3.org/2000/svg" xmlns:xlink="http://www.w3.org/1999/xlink" x="0px" y="0px"
	 width="32px" height="32px" viewBox="0 0 32 32" enable-background="new 0 0 32 32" xml:space="preserve">
<path d="M21,0c-2.6,0-4.8,1.7-5.7,4c-2.7,0.1-5.2,1-7.2,2.4c0,0-0.1,0.1-0.1,0.1C4.4,9.1,2,13.3,2,18c0,4.1,1.8,7.8,4.6,10.3
	c0.1,0.1,0.2,0.2,0.3,0.2C9.3,30.7,12.5,32,16,32c7.7,0,14-6.3,14-14c0-3.5-1.3-6.8-3.6-9.4C26.8,7.8,27,6.9,27,6
	C27,2.7,24.3,0,21,0z M21,2c2.2,0,4,1.8,4,4s-1.8,4-4,4s-4-1.8-4-4S18.8,2,21,2z M17,16.8c-0.1-0.4,0-0.8,0.4-1.2
	c0.6-0.7,1.6-1.1,2.6-1.2V17c0,0.6,0.4,1,1,1s1-0.4,1-1v-2c0.8,0.5,1.3,1.2,1.3,2c0,1.4-1,3.3-2.5,4.8c-1.2,1.2-2.2,1.6-2.7,1.6
	c-0.2,0-0.3-0.1-0.3-0.1c-0.5-0.4-0.5-0.5-0.5-1.7C17.4,20.7,17.5,19.2,17,16.8z M4,18c0-3.8,1.8-7.2,4.6-9.4C9.2,9,9.7,9.4,10,10
	c0.5,0.9,1.1,3,0.4,3.9c-0.4,0.5-1.3,1-2.2,1.4C7,15.9,5.5,16.6,5.5,18c0,1.1,0.8,2.1,1.6,3c0.3,0.4,0.7,0.8,0.9,1.1
	c0.8,1.1,0.7,2.3,0,3.7c-0.1,0.2-0.3,0.4-0.6,0.6C5.3,24.2,4,21.3,4,18z M16,30c-2.6,0-5-0.9-7-2.3c0.3-0.3,0.6-0.6,0.8-0.9
	c1.2-2,1.2-4,0-5.8c-0.3-0.4-0.7-0.9-1-1.3c-0.5-0.5-1.2-1.3-1.2-1.6c0.1-0.3,1.1-0.7,1.7-1c1-0.5,2.2-1.1,2.9-2
	c1.4-1.8,0.4-5-0.3-6.1c-0.4-0.7-0.9-1.1-1.4-1.5c1.4-0.7,3-1.2,4.6-1.4c0,2.9,2.2,5.4,5,5.9v0.6c-1.6,0-3.2,0.8-4.2,1.9
	c-0.7,0.8-1,1.8-0.8,2.8c0.4,2.2,0.3,3.5,0.3,4.4c-0.1,1.2-0.1,2.3,1.3,3.4c0.4,0.3,1,0.5,1.5,0.5c1.7,0,3.3-1.4,4.1-2.2
	c1.5-1.5,3.1-3.9,3-6.3c0-1.9-1.4-3.6-3.3-4.2v-0.9c1.2-0.2,2.3-0.8,3.2-1.6C27,12.4,28,15.1,28,18C28,24.6,22.6,30,16,30z"/>
</svg>
