<?xml version="1.0" encoding="utf-8"?>
<!-- Generator: Adobe Illustrator 18.1.1, SVG Export Plug-In . SVG Version: 6.00 Build 0)  -->
<!DOCTYPE svg PUBLIC "-//W3C//DTD SVG 1.1//EN" "http://www.w3.org/Graphics/SVG/1.1/DTD/svg11.dtd">
<svg version="1.1" id="Layer_1" xmlns="http://www.w3.org/2000/svg" xmlns:xlink="http://www.w3.org/1999/xlink" x="0px" y="0px"
	 width="32px" height="32px" viewBox="0 0 32 32" enable-background="new 0 0 32 32" xml:space="preserve">
<path d="M23,3c-1.1,0-2.3,0.2-3.4,0.7C18.5,3.2,17.2,3,16,3s-2.5,0.2-3.6,0.7C11.3,3.2,10.1,3,9,3c-4.4,0-9,3.3-9,8.7
	c0,5,7.4,13.1,8.3,14C8.5,25.9,8.7,26,9,26s0.5-0.1,0.7-0.3c0,0,0.7-0.8,1.6-1.9c1.9,2.7,3.7,4.7,3.9,4.8c0.2,0.2,0.5,0.3,0.7,0.3
	s0.6-0.1,0.7-0.3c0.2-0.2,1.9-2.2,3.9-4.8c0.9,1.1,1.6,1.8,1.6,1.9c0.2,0.2,0.5,0.3,0.7,0.3s0.5-0.1,0.7-0.3c0.8-0.9,8.3-8.9,8.3-14
	C32,6.3,27.4,3,23,3z M9,23.5c-2.5-2.8-7-8.6-7-11.8C2,7.5,5.6,5,9,5c0.3,0,0.5,0,0.8,0C7.6,6.7,6,9.3,6,12.6c0,2.7,2,6.4,4.2,9.5
	C9.7,22.7,9.3,23.1,9,23.5z M16,26.5c-2.8-3.3-8-10.2-8-13.9C8,7.8,12.1,5,16,5c1.1,0,2.2,0.2,3.2,0.6c0,0,0.1,0,0.1,0
	c2.6,1.1,4.7,3.5,4.7,6.9c0,2.2-2,5.7-4.1,8.8c-0.1,0.1-0.2,0.2-0.2,0.4C18.3,23.6,17,25.3,16,26.5z M23,23.5
	c-0.3-0.4-0.7-0.8-1.2-1.4C24,19,26,15.3,26,12.6c0-3.3-1.6-5.9-3.8-7.5c0.3,0,0.5,0,0.8,0c3.4,0,7,2.5,7,6.7
	C30,14.9,25.5,20.7,23,23.5z"/>
<path d="M20,13c0-2.2-1.8-4-4-4s-4,1.8-4,4s1.8,4,4,4S20,15.2,20,13z M16,15c-1.1,0-2-0.9-2-2s0.9-2,2-2s2,0.9,2,2S17.1,15,16,15z"
	/>
</svg>
