<?xml version="1.0" encoding="utf-8"?>
<!-- Generator: Adobe Illustrator 18.1.1, SVG Export Plug-In . SVG Version: 6.00 Build 0)  -->
<!DOCTYPE svg PUBLIC "-//W3C//DTD SVG 1.1//EN" "http://www.w3.org/Graphics/SVG/1.1/DTD/svg11.dtd">
<svg version="1.1" id="Layer_1" xmlns="http://www.w3.org/2000/svg" xmlns:xlink="http://www.w3.org/1999/xlink" x="0px" y="0px"
	 width="32px" height="32px" viewBox="0 0 32 32" enable-background="new 0 0 32 32" xml:space="preserve">
<path d="M13,17.5V30h-3c-0.6,0-1,0.4-1,1s0.4,1,1,1h12c0.6,0,1-0.4,1-1s-0.4-1-1-1h-3V17.5c3.5-1.2,6-4.6,6-8.5c0-5-4-9-9-9S7,4,7,9
	C7,12.9,9.5,16.2,13,17.5z M17,30h-2V17.9c0.3,0,0.7,0.1,1,0.1s0.7,0,1-0.1V30z M16,2c3.9,0,7,3.1,7,7s-3.1,7-7,7s-7-3.1-7-7
	S12.1,2,16,2z"/>
</svg>
