<?xml version="1.0" encoding="utf-8"?>
<!-- Generator: Adobe Illustrator 18.1.1, SVG Export Plug-In . SVG Version: 6.00 Build 0)  -->
<!DOCTYPE svg PUBLIC "-//W3C//DTD SVG 1.1//EN" "http://www.w3.org/Graphics/SVG/1.1/DTD/svg11.dtd">
<svg version="1.1" id="Layer_1" xmlns="http://www.w3.org/2000/svg" xmlns:xlink="http://www.w3.org/1999/xlink" x="0px" y="0px"
	 width="32px" height="32px" viewBox="0 0 32 32" enable-background="new 0 0 32 32" xml:space="preserve">
<path d="M16,32c6.5,0,13-1.7,13-5c0-3.1-5.9-4.8-12-5v-4.1c4.5-0.5,8-4.3,8-8.9c0-5-4-9-9-9S7,4,7,9c0,4.6,3.5,8.4,8,8.9V22
	c-6.1,0.2-12,1.9-12,5C3,30.3,9.5,32,16,32z M9,9c0-3.9,3.1-7,7-7s7,3.1,7,7s-3.1,7-7,7S9,12.9,9,9z M15,24v2c0,0.6,0.4,1,1,1
	s1-0.4,1-1v-2c6.5,0.2,10,2,10,3c0,1-3.9,3-11,3S5,28,5,27C5,26,8.5,24.2,15,24z"/>
</svg>
