<?xml version="1.0" encoding="utf-8"?>
<!-- Generator: Adobe Illustrator 19.2.1, SVG Export Plug-In . SVG Version: 6.00 Build 0)  -->
<!DOCTYPE svg PUBLIC "-//W3C//DTD SVG 1.1//EN" "http://www.w3.org/Graphics/SVG/1.1/DTD/svg11.dtd">
<svg version="1.1" id="Layer_1" xmlns="http://www.w3.org/2000/svg" xmlns:xlink="http://www.w3.org/1999/xlink" x="0px" y="0px"
	 width="24px" height="24px" viewBox="0 0 24 24" enable-background="new 0 0 24 24" xml:space="preserve">
<path d="M2.105,16.447C2.275,16.786,2.621,17,3,17h18c0.007-0.001,0.013,0,0.02,0c0.552,0,1-0.447,1-1
	c0-0.289-0.123-0.551-0.32-0.733L12.8,3.4c-0.377-0.504-1.223-0.504-1.6,0l-9,12C1.973,15.703,1.936,16.108,2.105,16.447z"/>
<path d="M3,21h18c0.552,0,1-0.447,1-1s-0.448-1-1-1H3c-0.552,0-1,0.447-1,1S2.448,21,3,21z"/>
</svg>
