<?xml version="1.0" encoding="utf-8"?>
<!-- Generator: Adobe Illustrator 19.2.1, SVG Export Plug-In . SVG Version: 6.00 Build 0)  -->
<!DOCTYPE svg PUBLIC "-//W3C//DTD SVG 1.1//EN" "http://www.w3.org/Graphics/SVG/1.1/DTD/svg11.dtd">
<svg version="1.1" id="Layer_1" xmlns="http://www.w3.org/2000/svg" xmlns:xlink="http://www.w3.org/1999/xlink" x="0px" y="0px"
	 width="24px" height="24px" viewBox="0 0 24 24" enable-background="new 0 0 24 24" xml:space="preserve">
<path d="M1,22c0.552,0,1-0.448,1-1V3c0-0.552-0.448-1-1-1S0,2.448,0,3v18C0,21.552,0.448,22,1,22z"/>
<path d="M23,2c-0.552,0-1,0.448-1,1v18c0,0.552,0.448,1,1,1s1-0.448,1-1V3C24,2.448,23.552,2,23,2z"/>
<polygon points="4,12 9,17 9,13 15,13 15,17 20,12 15,7 15,11 9,11 9,7 "/>
</svg>
