<?xml version="1.0" encoding="utf-8"?>
<!-- Generator: Adobe Illustrator 19.2.1, SVG Export Plug-In . SVG Version: 6.00 Build 0)  -->
<!DOCTYPE svg PUBLIC "-//W3C//DTD SVG 1.1//EN" "http://www.w3.org/Graphics/SVG/1.1/DTD/svg11.dtd">
<svg version="1.1" id="Layer_1" xmlns="http://www.w3.org/2000/svg" xmlns:xlink="http://www.w3.org/1999/xlink" x="0px" y="0px"
	 width="24px" height="24px" viewBox="0 0 24 24" enable-background="new 0 0 24 24" xml:space="preserve">
<path fill-rule="evenodd" clip-rule="evenodd" fill="#222221" d="M23,12c0-6.065-4.935-11-11-11C9.455,1,7.043,1.862,5.093,3.442
	l-2.76-2.588L1.688,8.438l7.604-1.062L6.57,4.833C8.127,3.65,10.011,3,12,3c4.963,0,9,4.037,9,9s-4.037,9-9,9
	c-0.906,0-1.776-0.148-2.602-0.398c-0.309,0.638-0.724,1.215-1.228,1.703C9.363,22.752,10.652,23,12,23C18.065,23,23,18.065,23,12z"
	/>
<circle fill-rule="evenodd" clip-rule="evenodd" fill="#222221" cx="4" cy="18" r="4"/>
</svg>
