<?xml version="1.0" encoding="utf-8"?>
<!-- Generator: Adobe Illustrator 19.2.1, SVG Export Plug-In . SVG Version: 6.00 Build 0)  -->
<!DOCTYPE svg PUBLIC "-//W3C//DTD SVG 1.1//EN" "http://www.w3.org/Graphics/SVG/1.1/DTD/svg11.dtd">
<svg version="1.1" id="Layer_1" xmlns="http://www.w3.org/2000/svg" xmlns:xlink="http://www.w3.org/1999/xlink" x="0px" y="0px"
	 width="24px" height="24px" viewBox="0 0 24 24" enable-background="new 0 0 24 24" xml:space="preserve">
<path d="M17,12c0-0.314-0.148-0.611-0.4-0.8l-12-9C4.297,1.972,3.891,1.937,3.553,2.105C3.214,2.275,3,2.621,3,3v18
	c0,0.379,0.214,0.725,0.553,0.895C3.694,21.965,3.848,22,4,22c0.212,0,0.424-0.067,0.6-0.2l12-9C16.852,12.611,17,12.314,17,12z"/>
<path d="M20,22c0.553,0,1-0.447,1-1V3c0-0.553-0.447-1-1-1s-1,0.447-1,1v18C19,21.553,19.447,22,20,22z"/>
</svg>
