<?xml version="1.0" encoding="utf-8"?>
<!-- Generator: Adobe Illustrator 19.2.1, SVG Export Plug-In . SVG Version: 6.00 Build 0)  -->
<!DOCTYPE svg PUBLIC "-//W3C//DTD SVG 1.1//EN" "http://www.w3.org/Graphics/SVG/1.1/DTD/svg11.dtd">
<svg version="1.1" id="Layer_1" xmlns="http://www.w3.org/2000/svg" xmlns:xlink="http://www.w3.org/1999/xlink" x="0px" y="0px"
	 width="24px" height="24px" viewBox="0 0 24 24" enable-background="new 0 0 24 24" xml:space="preserve">
<path d="M1,7c0,0.553,0.448,1,1,1h17.586l-4,4L17,13.414l5.707-5.707c0.391-0.391,0.391-1.023,0-1.414L17,0.586L15.586,2l4,4H2
	C1.448,6,1,6.447,1,7z"/>
<path d="M1.293,17.707L7,23.414L8.414,22l-4-4H22c0.552,0,1-0.447,1-1s-0.448-1-1-1H4.414l4-4L7,10.586l-5.707,5.707
	C0.902,16.684,0.902,17.316,1.293,17.707z"/>
</svg>
