<?xml version="1.0" encoding="utf-8"?>
<!-- Generator: Adobe Illustrator 19.2.1, SVG Export Plug-In . SVG Version: 6.00 Build 0)  -->
<!DOCTYPE svg PUBLIC "-//W3C//DTD SVG 1.1//EN" "http://www.w3.org/Graphics/SVG/1.1/DTD/svg11.dtd">
<svg version="1.1" id="Layer_1" xmlns="http://www.w3.org/2000/svg" xmlns:xlink="http://www.w3.org/1999/xlink" x="0px" y="0px"
	 width="24px" height="24px" viewBox="0 0 24 24" enable-background="new 0 0 24 24" xml:space="preserve">
<path d="M12,21c0.315,0,0.611-0.148,0.8-0.4l9-12c0.228-0.303,0.264-0.708,0.095-1.047S21.379,7,21,7H3
	C2.621,7,2.275,7.214,2.105,7.553S1.973,8.297,2.2,8.6l9,12C11.389,20.852,11.685,21,12,21z"/>
<path d="M21,3H3C2.448,3,2,3.447,2,4s0.448,1,1,1h18c0.552,0,1-0.447,1-1S21.552,3,21,3z"/>
</svg>
