<?xml version="1.0" encoding="utf-8"?>
<!-- Generator: Adobe Illustrator 19.2.1, SVG Export Plug-In . SVG Version: 6.00 Build 0)  -->
<!DOCTYPE svg PUBLIC "-//W3C//DTD SVG 1.1//EN" "http://www.w3.org/Graphics/SVG/1.1/DTD/svg11.dtd">
<svg version="1.1" id="Layer_1" xmlns="http://www.w3.org/2000/svg" xmlns:xlink="http://www.w3.org/1999/xlink" x="0px" y="0px"
	 width="24px" height="24px" viewBox="0 0 24 24" enable-background="new 0 0 24 24" xml:space="preserve">
<path d="M17.5,0c-3.067,0-5.638,2.138-6.318,5H8l4,5l4-5h-2.724c0.621-1.742,2.271-3,4.224-3C19.981,2,22,4.019,22,6.5
	S19.981,11,17.5,11h-11C2.916,11,0,13.916,0,17.5S2.916,24,6.5,24c3.067,0,5.638-2.138,6.318-5H16l-4-5l-4,5h2.724
	c-0.621,1.742-2.271,3-4.224,3C4.019,22,2,19.981,2,17.5S4.019,13,6.5,13h11c3.584,0,6.5-2.916,6.5-6.5S21.084,0,17.5,0z"/>
</svg>
