<?xml version="1.0" encoding="utf-8"?>
<!-- Generator: Adobe Illustrator 19.2.1, SVG Export Plug-In . SVG Version: 6.00 Build 0)  -->
<!DOCTYPE svg PUBLIC "-//W3C//DTD SVG 1.1//EN" "http://www.w3.org/Graphics/SVG/1.1/DTD/svg11.dtd">
<svg version="1.1" id="Layer_1" xmlns="http://www.w3.org/2000/svg" xmlns:xlink="http://www.w3.org/1999/xlink" x="0px" y="0px"
	 width="24px" height="24px" viewBox="0 0 24 24" enable-background="new 0 0 24 24" xml:space="preserve">
<path d="M8.582,5.202L2.316,0.718C2.185,0.624,1.388,0,1,0C0.448,0,0,0.447,0,1v15c0,0.323,0.156,0.626,0.419,0.813l7,5
	C7.592,21.938,7.795,22,8,22c0.156,0,0.313-0.037,0.458-0.11C8.791,21.718,9,21.375,9,21V6.016C9,5.693,8.844,5.391,8.582,5.202z"/>
<path d="M18,8h-4V7V1c0-0.553-0.448-1-1-1H4.751l4.995,3.576C10.532,4.141,11,5.053,11,6.016V17h2c0.552,0,1-0.447,1-1v-6h4v4l6-5
	l-6-5V8z"/>
</svg>
