<?xml version="1.0" encoding="utf-8"?>
<!-- Generator: Adobe Illustrator 19.2.1, SVG Export Plug-In . SVG Version: 6.00 Build 0)  -->
<!DOCTYPE svg PUBLIC "-//W3C//DTD SVG 1.1//EN" "http://www.w3.org/Graphics/SVG/1.1/DTD/svg11.dtd">
<svg version="1.1" id="Layer_1" xmlns="http://www.w3.org/2000/svg" xmlns:xlink="http://www.w3.org/1999/xlink" x="0px" y="0px"
	 width="24px" height="24px" viewBox="0 0 24 24" enable-background="new 0 0 24 24" xml:space="preserve">
<path d="M22,1c0-0.552-0.448-1-1-1H3C2.448,0,2,0.448,2,1s0.448,1,1,1h18C21.552,2,22,1.552,22,1z"/>
<path d="M3,24h18c0.552,0,1-0.448,1-1s-0.448-1-1-1H3c-0.552,0-1,0.448-1,1S2.448,24,3,24z"/>
<polygon points="17,9 12,4 7,9 11,9 11,15 7,15 12,20 17,15 13,15 13,9 "/>
</svg>
