<?xml version="1.0" encoding="utf-8"?>
<!-- Generator: Adobe Illustrator 19.2.1, SVG Export Plug-In . SVG Version: 6.00 Build 0)  -->
<!DOCTYPE svg PUBLIC "-//W3C//DTD SVG 1.1//EN" "http://www.w3.org/Graphics/SVG/1.1/DTD/svg11.dtd">
<svg version="1.1" id="Layer_1" xmlns="http://www.w3.org/2000/svg" xmlns:xlink="http://www.w3.org/1999/xlink" x="0px" y="0px"
	 width="24px" height="24px" viewBox="0 0 24 24" enable-background="new 0 0 24 24" xml:space="preserve">
<path d="M20.948,5.684C20.812,5.275,20.43,5,20,5h-3v2h2.279l2.333,7H16v4H8v-4H2.387l2.333-7H7V5H4C3.57,5,3.188,5.275,3.052,5.683
	l-3.001,9.003C0.017,14.787,0,14.893,0,15v8c0,0.552,0.448,1,1,1h22c0.552,0,1-0.448,1-1v-8c0-0.107-0.017-0.213-0.051-0.314
	L20.948,5.684z"/>
<polygon points="13,11 13,5 16,5 12,0 8,5 11,5 11,11 "/>
</svg>
