<?xml version="1.0" encoding="utf-8"?>
<!-- Generator: Adobe Illustrator 19.2.1, SVG Export Plug-In . SVG Version: 6.00 Build 0)  -->
<!DOCTYPE svg PUBLIC "-//W3C//DTD SVG 1.1//EN" "http://www.w3.org/Graphics/SVG/1.1/DTD/svg11.dtd">
<svg version="1.1" id="Layer_1" xmlns="http://www.w3.org/2000/svg" xmlns:xlink="http://www.w3.org/1999/xlink" x="0px" y="0px"
	 width="24px" height="24px" viewBox="0 0 24 24" enable-background="new 0 0 24 24" xml:space="preserve">
<polygon points="5.914,19.5 9.707,15.707 8.293,14.293 4.5,18.086 0,13.586 0,24 10.414,24 "/>
<polygon points="15.707,14.293 14.293,15.707 18.086,19.5 13.586,24 24,24 24,13.586 19.5,18.086 "/>
<polygon points="18.086,4.5 14.293,8.293 15.707,9.707 19.5,5.914 24,10.414 24,0 13.586,0 "/>
<polygon points="8.293,9.707 9.707,8.293 5.914,4.5 10.414,0 0,0 0,10.414 4.5,5.914 "/>
</svg>
