<?xml version="1.0" encoding="utf-8"?>
<!-- Generator: Adobe Illustrator 19.2.1, SVG Export Plug-In . SVG Version: 6.00 Build 0)  -->
<!DOCTYPE svg PUBLIC "-//W3C//DTD SVG 1.1//EN" "http://www.w3.org/Graphics/SVG/1.1/DTD/svg11.dtd">
<svg version="1.1" id="Layer_1" xmlns="http://www.w3.org/2000/svg" xmlns:xlink="http://www.w3.org/1999/xlink" x="0px" y="0px"
	 width="24px" height="24px" viewBox="0 0 24 24" enable-background="new 0 0 24 24" xml:space="preserve">
<polygon points="11,19 7,19 12,24 17,19 13,19 13,15 11,15 "/>
<path d="M18.982,7.147C18.797,3.17,15.523,0,11.5,0C8.214,0,5.428,2.117,4.414,5.059C1.932,5.352,0,7.439,0,10c0,2.761,2.239,5,5,5
	h6v-4h2v4h7c2.209,0,4-1.791,4-4C24,8.464,21.621,6.45,18.982,7.147z"/>
</svg>
