<?xml version="1.0" encoding="utf-8"?>
<!-- Generator: Adobe Illustrator 19.2.1, SVG Export Plug-In . SVG Version: 6.00 Build 0)  -->
<!DOCTYPE svg PUBLIC "-//W3C//DTD SVG 1.1//EN" "http://www.w3.org/Graphics/SVG/1.1/DTD/svg11.dtd">
<svg version="1.1" id="Layer_1" xmlns="http://www.w3.org/2000/svg" xmlns:xlink="http://www.w3.org/1999/xlink" x="0px" y="0px"
	 width="24px" height="24px" viewBox="0 0 24 24" enable-background="new 0 0 24 24" xml:space="preserve">
<path d="M19,6.586L17.586,8l3,3H13V3.414l3,3L17.414,5l-4.707-4.707c-0.391-0.391-1.023-0.391-1.414,0L6.586,5L8,6.414l3-3V11H3.414
	l3-3L5,6.586l-4.707,4.707c-0.391,0.391-0.391,1.023,0,1.414L5,17.414L6.414,16l-3-3H11v7.586l-3-3L6.586,19l4.707,4.707
	C11.488,23.902,11.744,24,12,24s0.512-0.098,0.707-0.293L17.414,19L16,17.586l-3,3V13h7.586l-3,3L19,17.414l4.707-4.707
	c0.391-0.391,0.391-1.023,0-1.414L19,6.586z"/>
</svg>
