<?xml version="1.0" encoding="utf-8"?>
<!-- Generator: Adobe Illustrator 19.2.1, SVG Export Plug-In . SVG Version: 6.00 Build 0)  -->
<!DOCTYPE svg PUBLIC "-//W3C//DTD SVG 1.1//EN" "http://www.w3.org/Graphics/SVG/1.1/DTD/svg11.dtd">
<svg version="1.1" id="Layer_1" xmlns="http://www.w3.org/2000/svg" xmlns:xlink="http://www.w3.org/1999/xlink" x="0px" y="0px"
	 width="24px" height="24px" viewBox="0 0 24 24" enable-background="new 0 0 24 24" xml:space="preserve">
<polygon fill-rule="evenodd" clip-rule="evenodd" fill="#222221" points="12,8 6,15 11,15 11,24 13,24 13,15 18,15 "/>
<path fill-rule="evenodd" clip-rule="evenodd" fill="#222221" d="M23,0H1C0.448,0,0,0.448,0,1v17c0,0.552,0.448,1,1,1h5v-2H2V6h20
	v11h-4v2h5c0.552,0,1-0.448,1-1V1C24,0.448,23.552,0,23,0z M22,4H2V2h20V4z"/>
</svg>
