<?xml version="1.0" encoding="utf-8"?>
<!-- Generator: Adobe Illustrator 19.2.1, SVG Export Plug-In . SVG Version: 6.00 Build 0)  -->
<!DOCTYPE svg PUBLIC "-//W3C//DTD SVG 1.1//EN" "http://www.w3.org/Graphics/SVG/1.1/DTD/svg11.dtd">
<svg version="1.1" id="Layer_1" xmlns="http://www.w3.org/2000/svg" xmlns:xlink="http://www.w3.org/1999/xlink" x="0px" y="0px"
	 width="24px" height="24px" viewBox="0 0 24 24" enable-background="new 0 0 24 24" xml:space="preserve">
<path d="M23,0h-9v2h6.586l-6.293,6.293l1.414,1.414L22,3.414V10h2V1C24,0.447,23.552,0,23,0z"/>
<path d="M22,20.586l-6.293-6.293l-1.414,1.414L20.586,22H14v2h9c0.553,0,1-0.448,1-1v-9h-2V20.586z"/>
<path d="M1,24h9v-2H3.414l6.293-6.293l-1.414-1.414L2,20.586V14H0v9C0,23.553,0.448,24,1,24z"/>
<path d="M2,3.414l6.293,6.293l1.414-1.414L3.414,2H10V0H1C0.447,0,0,0.448,0,1v9h2V3.414z"/>
</svg>
