<?xml version="1.0" encoding="utf-8"?>
<!-- Generator: Adobe Illustrator 19.2.1, SVG Export Plug-In . SVG Version: 6.00 Build 0)  -->
<!DOCTYPE svg PUBLIC "-//W3C//DTD SVG 1.1//EN" "http://www.w3.org/Graphics/SVG/1.1/DTD/svg11.dtd">
<svg version="1.1" id="Layer_1" xmlns="http://www.w3.org/2000/svg" xmlns:xlink="http://www.w3.org/1999/xlink" x="0px" y="0px"
	 width="24px" height="24px" viewBox="0 0 24 24" enable-background="new 0 0 24 24" xml:space="preserve">
<path d="M19,11H1c-0.553,0-1,0.447-1,1s0.447,1,1,1h18v3l5-4l-5-4V11z"/>
<path d="M12,18H1c-0.553,0-1,0.447-1,1s0.447,1,1,1h11v3l5-4l-5-4V18z"/>
<path d="M11,5L6,1v3H1C0.447,4,0,4.447,0,5s0.447,1,1,1h5v3L11,5z"/>
</svg>
