<?xml version="1.0" encoding="utf-8"?>
<!-- Generator: Adobe Illustrator 19.2.1, SVG Export Plug-In . SVG Version: 6.00 Build 0)  -->
<!DOCTYPE svg PUBLIC "-//W3C//DTD SVG 1.1//EN" "http://www.w3.org/Graphics/SVG/1.1/DTD/svg11.dtd">
<svg version="1.1" id="Layer_1" xmlns="http://www.w3.org/2000/svg" xmlns:xlink="http://www.w3.org/1999/xlink" x="0px" y="0px"
	 width="24px" height="24px" viewBox="0 0 24 24" enable-background="new 0 0 24 24" xml:space="preserve">
<path d="M6.448,8.993l1.361,1.512l1.345-1.495l-1.22-1.356C6.989,6.604,5.635,6,4.219,6H0v2h4.219C5.068,8,5.881,8.362,6.448,8.993z
	"/>
<path d="M19,6h-2.219c-1.416,0-2.771,0.604-3.716,1.655l-6.617,7.352C5.881,15.638,5.068,16,4.219,16H0v2h4.219
	c1.416,0,2.771-0.604,3.716-1.655l6.617-7.352C15.119,8.362,15.932,8,16.781,8H19v3l5-4l-5-4V6z"/>
<path d="M19,16h-2.219c-0.85,0-1.662-0.362-2.229-0.993l-1.361-1.512l-1.345,1.495l1.22,1.355c0.945,1.052,2.3,1.655,3.716,1.655H19
	v3l5-4l-5-4V16z"/>
</svg>
