<?xml version="1.0" encoding="utf-8"?>
<!-- Generator: Adobe Illustrator 19.2.1, SVG Export Plug-In . SVG Version: 6.00 Build 0)  -->
<!DOCTYPE svg PUBLIC "-//W3C//DTD SVG 1.1//EN" "http://www.w3.org/Graphics/SVG/1.1/DTD/svg11.dtd">
<svg version="1.1" id="Layer_1" xmlns="http://www.w3.org/2000/svg" xmlns:xlink="http://www.w3.org/1999/xlink" x="0px" y="0px"
	 width="24px" height="24px" viewBox="0 0 24 24" enable-background="new 0 0 24 24" xml:space="preserve">
<path d="M8.6,2.2C8.296,1.972,7.891,1.937,7.553,2.105C7.214,2.275,7,2.621,7,3v18c0,0.379,0.214,0.725,0.553,0.895
	C7.694,21.965,7.848,22,8,22c0.212,0,0.423-0.067,0.6-0.2l12-9c0.252-0.188,0.4-0.485,0.4-0.8s-0.148-0.611-0.4-0.8L8.6,2.2z"/>
<path d="M5,21V3c0-0.553-0.448-1-1-1S3,2.447,3,3v18c0,0.553,0.448,1,1,1S5,21.553,5,21z"/>
</svg>
