<?xml version="1.0" encoding="utf-8"?>
<!-- Generator: Adobe Illustrator 19.2.1, SVG Export Plug-In . SVG Version: 6.00 Build 0)  -->
<!DOCTYPE svg PUBLIC "-//W3C//DTD SVG 1.1//EN" "http://www.w3.org/Graphics/SVG/1.1/DTD/svg11.dtd">
<svg version="1.1" id="Layer_1" xmlns="http://www.w3.org/2000/svg" xmlns:xlink="http://www.w3.org/1999/xlink" x="0px" y="0px"
	 width="24px" height="24px" viewBox="0 0 24 24" enable-background="new 0 0 24 24" xml:space="preserve">
<path d="M18,6.168V3l-5,4l5,4V8.213c2.305,0.655,4,2.775,4,5.287c0,3.033-2.468,5.5-5.5,5.5h-9C4.468,19,2,16.533,2,13.5
	c0-2.512,1.695-4.632,4-5.287V11l5-4L6,3v3.151C2.581,6.848,0,9.878,0,13.5C0,17.636,3.364,21,7.5,21h9c4.136,0,7.5-3.364,7.5-7.5
	C24,9.88,21.417,6.865,18,6.168z"/>
</svg>
