<?xml version="1.0" encoding="utf-8"?>
<!-- Generator: Adobe Illustrator 19.2.1, SVG Export Plug-In . SVG Version: 6.00 Build 0)  -->
<!DOCTYPE svg PUBLIC "-//W3C//DTD SVG 1.1//EN" "http://www.w3.org/Graphics/SVG/1.1/DTD/svg11.dtd">
<svg version="1.1" id="Layer_1" xmlns="http://www.w3.org/2000/svg" xmlns:xlink="http://www.w3.org/1999/xlink" x="0px" y="0px"
	 width="24px" height="24px" viewBox="0 0 24 24" enable-background="new 0 0 24 24" xml:space="preserve">
<polygon points="13,11 13,5 16,5 12,0 8,5 11,5 11,11 "/>
<path d="M23,5h-5v2h4v7H2V7h4V5H1C0.447,5,0,5.447,0,6v9v8c0,0.553,0.447,1,1,1h22c0.553,0,1-0.447,1-1v-8V6C24,5.447,23.553,5,23,5
	z M15,20H9v-2h6V20z"/>
</svg>
