<?xml version="1.0" encoding="utf-8"?>
<!-- Generator: Adobe Illustrator 19.2.1, SVG Export Plug-In . SVG Version: 6.00 Build 0)  -->
<!DOCTYPE svg PUBLIC "-//W3C//DTD SVG 1.1//EN" "http://www.w3.org/Graphics/SVG/1.1/DTD/svg11.dtd">
<svg version="1.1" id="Layer_1" xmlns="http://www.w3.org/2000/svg" xmlns:xlink="http://www.w3.org/1999/xlink" x="0px" y="0px"
	 width="24px" height="24px" viewBox="0 0 24 24" enable-background="new 0 0 24 24" xml:space="preserve">
<polygon points="12,19 18,12 13,12 13,5 11,5 11,12 6,12 "/>
<rect x="9" y="22" width="6" height="2"/>
<rect x="9" width="6" height="2"/>
<rect y="9" width="2" height="6"/>
<rect x="22" y="9" width="2" height="6"/>
<path d="M1,24h5v-2H2v-4H0v5C0,23.552,0.447,24,1,24z"/>
<path d="M22,22h-4v2h5c0.553,0,1-0.448,1-1v-5h-2V22z"/>
<path d="M23,0h-5v2h4v4h2V1C24,0.448,23.553,0,23,0z"/>
<path d="M2,2h4V0H1C0.447,0,0,0.448,0,1v5h2V2z"/>
</svg>
