<?xml version="1.0" encoding="utf-8"?>
<!-- Generator: Adobe Illustrator 19.2.1, SVG Export Plug-In . SVG Version: 6.00 Build 0)  -->
<!DOCTYPE svg PUBLIC "-//W3C//DTD SVG 1.1//EN" "http://www.w3.org/Graphics/SVG/1.1/DTD/svg11.dtd">
<svg version="1.1" id="Layer_1" xmlns="http://www.w3.org/2000/svg" xmlns:xlink="http://www.w3.org/1999/xlink" x="0px" y="0px"
	 width="24px" height="24px" viewBox="0 0 24 24" enable-background="new 0 0 24 24" xml:space="preserve">
<path d="M7,8v8c0,0.553,0.447,1,1,1h8c0.553,0,1-0.447,1-1V8c0-0.553-0.447-1-1-1H8C7.447,7,7,7.447,7,8z"/>
<path d="M2,2h6V0H1C0.447,0,0,0.447,0,1v7h2V2z"/>
<path d="M23,0h-7v2h6v6h2V1C24,0.447,23.553,0,23,0z"/>
<path d="M22,22h-6v2h7c0.553,0,1-0.447,1-1v-7h-2V22z"/>
<path d="M1,24h7v-2H2v-6H0v7C0,23.553,0.447,24,1,24z"/>
</svg>
