<?xml version="1.0" encoding="utf-8"?>
<!-- Generator: Adobe Illustrator 19.2.1, SVG Export Plug-In . SVG Version: 6.00 Build 0)  -->
<!DOCTYPE svg PUBLIC "-//W3C//DTD SVG 1.1//EN" "http://www.w3.org/Graphics/SVG/1.1/DTD/svg11.dtd">
<svg version="1.1" id="Layer_1" xmlns="http://www.w3.org/2000/svg" xmlns:xlink="http://www.w3.org/1999/xlink" x="0px" y="0px"
	 width="24px" height="24px" viewBox="0 0 24 24" enable-background="new 0 0 24 24" xml:space="preserve">
<path fill-rule="evenodd" clip-rule="evenodd" fill="#222221" d="M18,11h-3.09C14.431,8.167,11.967,6,9,6s-5.431,2.167-5.91,5H8
	c0.552,0,1,0.448,1,1c0,0.552-0.448,1-1,1H3.09c0.478,2.833,2.942,5,5.91,5s5.431-2.167,5.91-5H18v4l6-5l-6-5V11z"/>
<path fill-rule="evenodd" clip-rule="evenodd" fill="#222221" d="M3.09,11H0v2h3.09C3.035,12.674,3,12.341,3,12
	S3.035,11.326,3.09,11z"/>
</svg>
