<?xml version="1.0" encoding="utf-8"?>
<!-- Generator: Adobe Illustrator 19.2.1, SVG Export Plug-In . SVG Version: 6.00 Build 0)  -->
<!DOCTYPE svg PUBLIC "-//W3C//DTD SVG 1.1//EN" "http://www.w3.org/Graphics/SVG/1.1/DTD/svg11.dtd">
<svg version="1.1" id="Layer_1" xmlns="http://www.w3.org/2000/svg" xmlns:xlink="http://www.w3.org/1999/xlink" x="0px" y="0px"
	 width="24px" height="24px" viewBox="0 0 24 24" enable-background="new 0 0 24 24" xml:space="preserve">
<path d="M5,13v1.91c0,2.288,1.271,4.344,3.316,5.367L11,21.618V24h2v-3v-1.382l2.684-1.342C17.729,17.253,19,15.197,19,12.91V10h3
	l-4-5l-4,5h3v2.91c0,1.525-0.847,2.896-2.211,3.578L13,17.382V5h3l-4-5L8,5h3v14v0.382l-1.789-0.895C7.847,17.806,7,16.435,7,14.91
	V13h3L6,8l-4,5H5z"/>
</svg>
