<?xml version="1.0" encoding="utf-8"?>
<!-- Generator: Adobe Illustrator 19.2.1, SVG Export Plug-In . SVG Version: 6.00 Build 0)  -->
<!DOCTYPE svg PUBLIC "-//W3C//DTD SVG 1.1//EN" "http://www.w3.org/Graphics/SVG/1.1/DTD/svg11.dtd">
<svg version="1.1" id="Layer_1" xmlns="http://www.w3.org/2000/svg" xmlns:xlink="http://www.w3.org/1999/xlink" x="0px" y="0px"
	 width="24px" height="24px" viewBox="0 0 24 24" enable-background="new 0 0 24 24" xml:space="preserve">
<path fill-rule="evenodd" clip-rule="evenodd" fill="#222221" d="M7.115,10.638c0.25-0.246,0.503-0.498,0.764-0.759
	c0.218-0.218,0.44-0.439,0.664-0.66C6.522,7.434,4.22,6,1,6H0v2h1C3.513,8,5.385,9.132,7.115,10.638z"/>
<path fill-rule="evenodd" clip-rule="evenodd" fill="#222221" d="M20,6h-1c-4.414,0-7.105,2.69-9.707,5.293
	C6.872,13.714,4.586,16,1,16H0v2h1c4.414,0,7.105-2.69,9.707-5.293C13.128,10.286,15.414,8,19,8h1v3l4-4l-4-4V6z"/>
<path fill-rule="evenodd" clip-rule="evenodd" fill="#222221" d="M20,16h-1c-2.513,0-4.385-1.132-6.115-2.638
	c-0.25,0.246-0.503,0.498-0.764,0.759c-0.218,0.218-0.44,0.439-0.664,0.66C13.478,16.566,15.78,18,19,18h1v3l4-4l-4-4V16z"/>
</svg>
