<?xml version="1.0" encoding="utf-8"?>
<!-- Generator: Adobe Illustrator 19.2.1, SVG Export Plug-In . SVG Version: 6.00 Build 0)  -->
<!DOCTYPE svg PUBLIC "-//W3C//DTD SVG 1.1//EN" "http://www.w3.org/Graphics/SVG/1.1/DTD/svg11.dtd">
<svg version="1.1" id="Layer_1" xmlns="http://www.w3.org/2000/svg" xmlns:xlink="http://www.w3.org/1999/xlink" x="0px" y="0px"
	 width="24px" height="24px" viewBox="0 0 24 24" enable-background="new 0 0 24 24" xml:space="preserve">
<circle cx="12" cy="12" r="3"/>
<path d="M12,3c1.989,0,3.873,0.65,5.43,1.833l-3.604,3.393l9.167,0.983L22.562,0l-3.655,3.442C16.957,1.862,14.545,1,12,1
	C5.935,1,1,5.935,1,12h2C3,7.037,7.037,3,12,3z"/>
<path d="M1.438,24l3.655-3.442C7.043,22.138,9.455,23,12,23c6.065,0,11-4.935,11-11h-2c0,4.963-4.037,9-9,9
	c-1.989,0-3.873-0.65-5.43-1.833l3.604-3.393l-9.167-0.983L1.438,24z"/>
</svg>
