<?xml version="1.0" encoding="utf-8"?>
<!-- Generator: Adobe Illustrator 19.2.1, SVG Export Plug-In . SVG Version: 6.00 Build 0)  -->
<!DOCTYPE svg PUBLIC "-//W3C//DTD SVG 1.1//EN" "http://www.w3.org/Graphics/SVG/1.1/DTD/svg11.dtd">
<svg version="1.1" id="Layer_1" xmlns="http://www.w3.org/2000/svg" xmlns:xlink="http://www.w3.org/1999/xlink" x="0px" y="0px"
	 width="24px" height="24px" viewBox="0 0 24 24" enable-background="new 0 0 24 24" xml:space="preserve">
<path d="M11,11H6v2h6c0.552,0,1-0.447,1-1V6h-2V11z"/>
<path d="M22.993,9.209L22.562,0l-3.655,3.442C16.957,1.862,14.545,1,12,1C5.935,1,1,5.935,1,12s4.935,11,11,11s11-4.935,11-11h-2
	c0,4.963-4.037,9-9,9s-9-4.037-9-9s4.037-9,9-9c1.989,0,3.873,0.65,5.43,1.833l-3.604,3.393L22.993,9.209z"/>
</svg>
