<?xml version="1.0" encoding="utf-8"?>
<!-- Generator: Adobe Illustrator 19.1.0, SVG Export Plug-In . SVG Version: 6.00 Build 0)  -->
<!DOCTYPE svg PUBLIC "-//W3C//DTD SVG 1.1//EN" "http://www.w3.org/Graphics/SVG/1.1/DTD/svg11.dtd">
<svg version="1.1" id="Layer_1" xmlns="http://www.w3.org/2000/svg" xmlns:xlink="http://www.w3.org/1999/xlink" x="0px" y="0px"
	 width="48px" height="48px" viewBox="0 0 48 48" enable-background="new 0 0 48 48" xml:space="preserve">
<path d="M4,43h12c0.6,0,1-0.4,1-1c0-2.8,2.2-5,5-5s5,2.2,5,5c0,0.6,0.4,1,1,1h10c0.6,0,1-0.4,1-1v-9.1c0.3,0.1,0.7,0.1,1,0.1
	c3.9,0,7-3.1,7-7s-3.1-7-7-7c-0.3,0-0.7,0-1,0.1V10c0-0.6-0.4-1-1-1h-9.1C29,8.7,29,8.3,29,8c0-3.9-3.1-7-7-7s-7,3.1-7,7
	c0,0.3,0,0.7,0.1,1H4c-0.6,0-1,0.4-1,1v10c0,0.6,0.4,1,1,1c2.8,0,5,2.2,5,5s-2.2,5-5,5c-0.6,0-1,0.4-1,1v10C3,42.6,3.4,43,4,43z
	 M5,32.9c3.4-0.5,6-3.4,6-6.9s-2.6-6.4-6-6.9V11h11.4c0.3,0,0.6-0.2,0.8-0.4s0.2-0.6,0.1-0.9C17.1,9.1,17,8.5,17,8c0-2.8,2.2-5,5-5
	s5,2.2,5,5c0,0.5-0.1,1.1-0.3,1.7c-0.1,0.3-0.1,0.6,0.1,0.9s0.5,0.4,0.8,0.4H37v9.4c0,0.3,0.2,0.6,0.4,0.8c0.3,0.2,0.6,0.2,0.9,0.1
	c0.6-0.2,1.1-0.3,1.7-0.3c2.8,0,5,2.2,5,5s-2.2,5-5,5c-0.5,0-1.1-0.1-1.7-0.3c-0.3-0.1-0.6-0.1-0.9,0.1C37.2,31,37,31.3,37,31.6V41
	h-8.1c-0.5-3.4-3.4-6-6.9-6s-6.4,2.6-6.9,6H5V32.9z"/>
</svg>
