<?xml version="1.0" encoding="utf-8"?>
<!-- Generator: Adobe Illustrator 19.1.0, SVG Export Plug-In . SVG Version: 6.00 Build 0)  -->
<!DOCTYPE svg PUBLIC "-//W3C//DTD SVG 1.1//EN" "http://www.w3.org/Graphics/SVG/1.1/DTD/svg11.dtd">
<svg version="1.1" id="Layer_1" xmlns="http://www.w3.org/2000/svg" xmlns:xlink="http://www.w3.org/1999/xlink" x="0px" y="0px"
	 width="48px" height="48px" viewBox="0 0 48 48" enable-background="new 0 0 48 48" xml:space="preserve">
<path d="M46,39c-1.9,0-3.7-0.2-5.6-0.5c0.1-0.1,0.1-0.2,0.1-0.3c0-0.2,1.2-4.5-0.4-8.2c-1.9-4.3-7.4-6.6-7.6-6.7
	c-0.5-0.2-1.1,0-1.3,0.5c-0.1,0.2-2.3,5.4-0.3,10.2c0.4,0.9,1,1.6,1.7,2.2c-3.9-1.7-7.3-4.1-10.3-7.1c0.2,0,0.4-0.1,0.5-0.2
	c0.2-0.1,3.7-3.3,4-7.1c0.3-3.2-1.7-6.2-1.8-6.3c-0.3-0.4-0.8-0.6-1.3-0.3c-0.5,0.3-4.9,2.6-5.2,6c-0.1,1.8,0.4,3.5,1,4.8
	c-2.4-3.2-4.2-6.8-5.4-10.7c0,0,0,0,0,0c0.2,0,4.1-0.8,6.1-4c1.6-2.6-0.2-6.7-0.4-7.1c-0.2-0.5-0.8-0.7-1.2-0.5
	c-0.1,0-3.2,1.1-4.7,3.6c-0.5,0.7-0.8,1.6-0.9,2.4C13.1,8.4,13,7.2,13,6c0-0.6-0.4-1-1-1s-1,0.4-1,1c0,3,0.4,5.9,1.1,8.7
	c-0.3-0.4-0.7-0.8-1.1-1.2c-2.6-2.2-6.9-1.9-7-1.9c-0.5,0-1,0.5-0.9,1c0,0.2,0.2,4.2,3.1,6.6c1,0.8,2.3,1.1,3.6,1.1
	c1.7,0,3.2-0.5,3.5-0.5c0.2-0.1,0.4-0.2,0.5-0.4c0.9,2.1,1.9,4.1,3.2,5.9c-0.5-0.3-1.1-0.5-1.7-0.6C11,24.2,7.5,27,7.4,27.2
	c-0.4,0.3-0.5,1-0.1,1.4c0.1,0.2,3.1,3.9,6.8,4.4c0.3,0,0.6,0.1,1,0.1c2.8,0,5.3-1.5,5.4-1.5c0.4-0.2,0.5-0.7,0.4-1.1
	c1.8,1.8,3.8,3.5,5.9,4.9c-1.3-0.3-2.7-0.4-4.1-0.2c-4,0.7-7,4-7.1,4.1c-0.3,0.4-0.3,1,0,1.3c0.2,0.2,4.1,4.4,7.9,4.4
	c0.3,0,0.6,0,0.9-0.1c5.1-0.9,8.2-5.6,8.3-5.8c0.1-0.2,0.2-0.4,0.1-0.7c4,1.6,8.4,2.5,13,2.5c0.6,0,1-0.4,1-1S46.6,39,46,39z
	 M32.7,25.6c1.5,0.8,4.5,2.6,5.6,5.2c0.9,2.1,0.7,4.6,0.5,6c-1.9-0.5-5.1-1.6-6-3.6C31.6,30.4,32.3,27.2,32.7,25.6z M20.7,21.3
	c0.1-1.5,2-3.1,3.3-3.9c0.5,1,1.1,2.6,1,4.2c-0.2,2-1.7,3.9-2.6,4.9C21.6,25.5,20.5,23.5,20.7,21.3z M15.8,8.3
	c0.7-1.2,2-1.9,2.8-2.4c0.4,1.3,0.9,3.2,0.2,4.3c-1,1.6-2.7,2.4-3.8,2.8C14.9,11.6,15,9.6,15.8,8.3z M7.4,17.7c-1.4-1.2-2-3-2.2-4.2
	C6.5,13.6,8.5,14,9.7,15c1,0.9,1.6,2.2,2,3.1C10.3,18.4,8.3,18.6,7.4,17.7z M14.3,31c-2-0.3-3.8-1.9-4.8-2.8
	c1.1-0.7,3.2-1.7,5.4-1.4c1.5,0.2,3,2.1,3.7,3.4C17.6,30.6,16,31.2,14.3,31z M24.1,43c-2.1,0.4-4.9-1.7-6.3-3.1c1-0.9,3-2.4,5.3-2.9
	c2.8-0.5,5.9,1,7.4,1.8C29.5,40.1,27.2,42.4,24.1,43z"/>
</svg>
