<?xml version="1.0" encoding="utf-8"?>
<!-- Generator: Adobe Illustrator 19.1.0, SVG Export Plug-In . SVG Version: 6.00 Build 0)  -->
<!DOCTYPE svg PUBLIC "-//W3C//DTD SVG 1.1//EN" "http://www.w3.org/Graphics/SVG/1.1/DTD/svg11.dtd">
<svg version="1.1" id="Layer_1" xmlns="http://www.w3.org/2000/svg" xmlns:xlink="http://www.w3.org/1999/xlink" x="0px" y="0px"
	 width="48px" height="48px" viewBox="0 0 48 48" enable-background="new 0 0 48 48" xml:space="preserve">
<path d="M13,39.9V46c0,0.6,0.4,1,1,1h20c0.6,0,1-0.4,1-1v-6.1c6.2-3.8,10-10.6,10-17.9c0-11.6-9.4-21-21-21S3,10.4,3,22
	C3,29.3,6.8,36.1,13,39.9z M24,3c10.5,0,19,8.5,19,19c0,6.7-3.6,13-9.5,16.4c-0.3,0.2-0.5,0.5-0.5,0.9V45h-4v-3c0-0.6-0.4-1-1-1
	s-1,0.4-1,1v3h-6v-3c0-0.6-0.4-1-1-1s-1,0.4-1,1v3h-4v-5.7c0-0.4-0.2-0.7-0.5-0.9C8.6,35,5,28.7,5,22C5,11.5,13.5,3,24,3z"/>
<path d="M16,31c3.9,0,7-3.1,7-7s-3.1-7-7-7s-7,3.1-7,7S12.1,31,16,31z M16,19c2.8,0,5,2.2,5,5s-2.2,5-5,5s-5-2.2-5-5S13.2,19,16,19z
	"/>
<path d="M32,31c3.9,0,7-3.1,7-7s-3.1-7-7-7s-7,3.1-7,7S28.1,31,32,31z M32,19c2.8,0,5,2.2,5,5s-2.2,5-5,5s-5-2.2-5-5S29.2,19,32,19z
	"/>
<path d="M21.1,36.4c0.2,0.4,0.5,0.6,0.9,0.6h4c0.4,0,0.8-0.2,0.9-0.6c0.2-0.4,0.1-0.8-0.2-1.1l-2-2c-0.4-0.4-1-0.4-1.4,0l-2,2
	C21,35.6,20.9,36,21.1,36.4z"/>
</svg>
