<?xml version="1.0" encoding="utf-8"?>
<!-- Generator: Adobe Illustrator 19.1.0, SVG Export Plug-In . SVG Version: 6.00 Build 0)  -->
<!DOCTYPE svg PUBLIC "-//W3C//DTD SVG 1.1//EN" "http://www.w3.org/Graphics/SVG/1.1/DTD/svg11.dtd">
<svg version="1.1" id="Layer_1" xmlns="http://www.w3.org/2000/svg" xmlns:xlink="http://www.w3.org/1999/xlink" x="0px" y="0px"
	 width="48px" height="48px" viewBox="0 0 48 48" enable-background="new 0 0 48 48" xml:space="preserve">
<path d="M25,7V2c0-0.6-0.4-1-1-1s-1,0.4-1,1v5C17.2,7.3,3,10.2,3,32c0,11.1,11.3,15,21,15s21-3.9,21-15C45,10.2,30.8,7.3,25,7z
	 M24,45c-8.8,0-19-3.4-19-13C5,26.6,6.4,9,24,9s19,17.6,19,23C43,41.6,32.8,45,24,45z"/>
<path d="M24,13c-7.5,0-15,5.2-15,15c0,8.7,13.5,9,15,9s15-0.3,15-9C39,17.1,29.8,13,24,13z M24,35c-1.3,0-13-0.2-13-7
	c0-10.3,8.5-13,13-13c5.2,0,13,3.5,13,13C37,34.8,25.3,35,24,35z"/>
<path d="M21.8,19.3c-1.9,0.4-4.4,1.5-5.8,4.3c-0.2,0.5,0,1.1,0.4,1.3c0.1,0.1,0.3,0.1,0.4,0.1c0.4,0,0.7-0.2,0.9-0.6
	c1-2.1,3-2.9,4.5-3.2c0.5-0.1,0.9-0.7,0.8-1.2C22.9,19.5,22.3,19.1,21.8,19.3z"/>
</svg>
