<?xml version="1.0" encoding="utf-8"?>
<!-- Generator: Adobe Illustrator 19.1.0, SVG Export Plug-In . SVG Version: 6.00 Build 0)  -->
<!DOCTYPE svg PUBLIC "-//W3C//DTD SVG 1.1//EN" "http://www.w3.org/Graphics/SVG/1.1/DTD/svg11.dtd">
<svg version="1.1" id="Layer_1" xmlns="http://www.w3.org/2000/svg" xmlns:xlink="http://www.w3.org/1999/xlink" x="0px" y="0px"
	 width="48px" height="48px" viewBox="0 0 48 48" enable-background="new 0 0 48 48" xml:space="preserve">
<path d="M46.4,1.1C46.3,1,46.1,1,46,1H14c-0.3,0-0.5,0.1-0.7,0.3l-12,12c-0.1,0.1-0.2,0.2-0.2,0.3C1,13.7,1,13.9,1,14v32
	c0,0.6,0.4,1,1,1h32c0.1,0,0.3,0,0.4-0.1c0.1-0.1,0.2-0.1,0.3-0.2l12-12c0.2-0.2,0.3-0.4,0.3-0.7V2c0-0.1,0-0.3-0.1-0.4
	C46.8,1.4,46.6,1.2,46.4,1.1z M14.4,3h29.2l-10,10H4.4L14.4,3z M3,15h30v30H3V15z M35,43.6V14.4l10-10v29.2L35,43.6z"/>
<path d="M24,27c1.7,0,3-1.3,3-3s-1.3-3-3-3s-3,1.3-3,3S22.3,27,24,27z M24,23c0.6,0,1,0.4,1,1s-0.4,1-1,1s-1-0.4-1-1S23.4,23,24,23z
	"/>
<path d="M12,21c-1.7,0-3,1.3-3,3s1.3,3,3,3s3-1.3,3-3S13.7,21,12,21z M12,25c-0.6,0-1-0.4-1-1s0.4-1,1-1s1,0.4,1,1S12.6,25,12,25z"
	/>
<path d="M24,33c-1.7,0-3,1.3-3,3s1.3,3,3,3s3-1.3,3-3S25.7,33,24,33z M24,37c-0.6,0-1-0.4-1-1s0.4-1,1-1s1,0.4,1,1S24.6,37,24,37z"
	/>
<path d="M12,33c-1.7,0-3,1.3-3,3s1.3,3,3,3s3-1.3,3-3S13.7,33,12,33z M12,37c-0.6,0-1-0.4-1-1s0.4-1,1-1s1,0.4,1,1S12.6,37,12,37z"
	/>
</svg>
