<?xml version="1.0" encoding="utf-8"?>
<!-- Generator: Adobe Illustrator 19.1.0, SVG Export Plug-In . SVG Version: 6.00 Build 0)  -->
<!DOCTYPE svg PUBLIC "-//W3C//DTD SVG 1.1//EN" "http://www.w3.org/Graphics/SVG/1.1/DTD/svg11.dtd">
<svg version="1.1" id="Layer_1" xmlns="http://www.w3.org/2000/svg" xmlns:xlink="http://www.w3.org/1999/xlink" x="0px" y="0px"
	 width="48px" height="48px" viewBox="0 0 48 48" enable-background="new 0 0 48 48" xml:space="preserve">
<path d="M4.1,25H23v15c0,3.9,3.1,7,7,7s7-3.1,7-7c0-0.6-0.4-1-1-1s-1,0.4-1,1c0,2.8-2.2,5-5,5s-5-2.2-5-5V25h18.9
	c0.3,0,0.6-0.1,0.7-0.3c0.2-0.2,0.3-0.5,0.3-0.8C43.9,13.5,35.4,5.5,25,5V2c0-0.6-0.4-1-1-1s-1,0.4-1,1v3
	C12.6,5.5,4.1,13.5,3.1,23.9c0,0.3,0.1,0.6,0.3,0.8C3.5,24.9,3.8,25,4.1,25z M15,23c0-0.3,0-0.7,0-1c0-5.9,3-11.3,8-14.4V23H15z
	 M25,7.6c5,3.1,8,8.5,8,14.4c0,0.3,0,0.7,0,1h-8V7.6z M42.8,23H35c0-0.3,0-0.7,0-1c0-5.7-2.5-11-6.8-14.5
	C35.7,9.2,41.5,15.2,42.8,23z M19.8,7.5C15.5,11,13,16.3,13,22c0,0.3,0,0.7,0,1H5.2C6.5,15.2,12.3,9.2,19.8,7.5z"/>
</svg>
