<?xml version="1.0" encoding="utf-8"?>
<!-- Generator: Adobe Illustrator 19.1.0, SVG Export Plug-In . SVG Version: 6.00 Build 0)  -->
<!DOCTYPE svg PUBLIC "-//W3C//DTD SVG 1.1//EN" "http://www.w3.org/Graphics/SVG/1.1/DTD/svg11.dtd">
<svg version="1.1" id="Layer_1" xmlns="http://www.w3.org/2000/svg" xmlns:xlink="http://www.w3.org/1999/xlink" x="0px" y="0px"
	 width="48px" height="48px" viewBox="0 0 48 48" enable-background="new 0 0 48 48" xml:space="preserve">
<path d="M21.8,34.8l-2.5,2.5c-0.3,0.3-0.4,0.7-0.2,1.1c0.2,0.4,0.5,0.6,0.9,0.6h3v7c0,0.6,0.4,1,1,1s1-0.4,1-1v-7h3
	c0.4,0,0.8-0.2,0.9-0.6c0.2-0.4,0.1-0.8-0.2-1.1l-2.5-2.5C34.6,33.7,41,26.6,41,18c0-9.4-7.6-17-17-17S7,8.6,7,18
	C7,26.6,13.4,33.7,21.8,34.8z M22.4,37l1.6-1.6l1.6,1.6H22.4z M24,3c8.3,0,15,6.7,15,15s-6.7,15-15,15S9,26.3,9,18S15.7,3,24,3z"/>
<path d="M14,17c0.1,0,0.1,0,0.2,0c0.5,0,0.9-0.3,1-0.8c0.7-3.5,3.5-6.3,7-7C22.7,9.1,23.1,8.5,23,8c-0.1-0.5-0.6-0.9-1.2-0.8
	c-4.3,0.9-7.7,4.2-8.6,8.6C13.1,16.3,13.5,16.9,14,17z"/>
</svg>
