<?xml version="1.0" encoding="utf-8"?>
<!-- Generator: Adobe Illustrator 19.1.0, SVG Export Plug-In . SVG Version: 6.00 Build 0)  -->
<!DOCTYPE svg PUBLIC "-//W3C//DTD SVG 1.1//EN" "http://www.w3.org/Graphics/SVG/1.1/DTD/svg11.dtd">
<svg version="1.1" id="Layer_1" xmlns="http://www.w3.org/2000/svg" xmlns:xlink="http://www.w3.org/1999/xlink" x="0px" y="0px"
	 width="48px" height="48px" viewBox="0 0 48 48" enable-background="new 0 0 48 48" xml:space="preserve">
<path d="M10.7,22.4c-1.8,2.9-2.6,4.9-2.7,5c-0.1,0.4-0.1,0.8,0.2,1.1l11.3,11.3c0.2,0.2,0.4,0.3,0.7,0.3c0.1,0,0.3,0,0.4-0.1
	c0.1,0,2.1-0.9,4.9-2.7l6.3,6.3c0.2,0.2,0.4,0.3,0.7,0.3c0.2,0,0.3,0,0.5-0.1c1.3-0.8,2.4-1.6,3.4-2.6c4.9-4.9,6.3-12,3.7-18.4
	c0.8-1.3,1.6-2.6,2.3-4.1c0.1-0.1,0.1-0.2,0.2-0.3c2.1-4.5,3.7-9.8,4-16c0-0.3-0.1-0.6-0.3-0.8c-0.2-0.2-0.5-0.3-0.8-0.3
	c-6.2,0.3-11.5,1.8-16.1,4c-0.1,0-0.2,0.1-0.3,0.2c-1.5,0.7-2.8,1.5-4.1,2.3c-6.3-2.5-13.5-1.1-18.3,3.8c-1,1-1.9,2.1-2.6,3.4
	c-0.2,0.4-0.2,0.9,0.2,1.2L10.7,22.4z M20.5,37.8L10.2,27.5c1.3-2.7,7.1-13.9,19.5-20.1l10.8,10.8C34.3,30.7,23.2,36.6,20.5,37.8z
	 M35.1,39.7c-0.7,0.7-1.5,1.3-2.3,1.9l-5.5-5.5c3.5-2.4,7.9-6.1,11.6-11.3C40.5,30.1,39.1,35.8,35.1,39.7z M41.4,16.3l-9.8-9.8
	c3.8-1.6,8.1-2.8,13-3.2C44.3,8.2,43.1,12.6,41.4,16.3z M8.3,12.9c3.9-3.9,9.6-5.3,14.8-3.8c-5.2,3.7-8.8,8.1-11.3,11.6l-5.5-5.5
	C6.9,14.3,7.6,13.6,8.3,12.9z"/>
<path d="M30.9,17.1c-1.9-1.9-5.1-2-7.1,0c-1.9,1.9-1.9,5.1,0,7.1c1,1,2.3,1.5,3.5,1.5c1.3,0,2.6-0.5,3.5-1.5
	c0.9-0.9,1.5-2.2,1.5-3.5C32.4,19.3,31.8,18.1,30.9,17.1z M29.5,22.8c-1.2,1.2-3.1,1.2-4.2,0c-1.2-1.2-1.2-3.1,0-4.2
	c1.2-1.2,3.1-1.2,4.2,0c0.6,0.6,0.9,1.3,0.9,2.1C30.4,21.4,30,22.2,29.5,22.8z"/>
<path d="M3.9,45c0.3,0,0.9,0.1,1.6,0.1c1.9,0,4.7-0.2,6-1.5c1.9-1.9,1.9-5.1,0-7.1C10.6,35.5,9.3,35,8,35s-2.6,0.5-3.5,1.5
	c-1.8,1.8-1.5,6.7-1.5,7.6C3,44.6,3.4,45,3.9,45z M5.9,37.9c1.1-1.1,3.1-1.1,4.2,0c1.2,1.2,1.2,3.1,0,4.2c-0.7,0.7-3.2,1-5.2,0.9
	C4.9,41.1,5.1,38.6,5.9,37.9z"/>
</svg>
