<?xml version="1.0" encoding="utf-8"?>
<!-- Generator: Adobe Illustrator 19.1.0, SVG Export Plug-In . SVG Version: 6.00 Build 0)  -->
<!DOCTYPE svg PUBLIC "-//W3C//DTD SVG 1.1//EN" "http://www.w3.org/Graphics/SVG/1.1/DTD/svg11.dtd">
<svg version="1.1" id="Layer_1" xmlns="http://www.w3.org/2000/svg" xmlns:xlink="http://www.w3.org/1999/xlink" x="0px" y="0px"
	 width="48px" height="48px" viewBox="0 0 48 48" enable-background="new 0 0 48 48" xml:space="preserve">
<path d="M34.6,1.5c-2.9,0-5.7,1.1-7.8,3.2L8.4,23.2c-0.2,0.2-0.3,0.4-0.3,0.7v13.7l-5.4,5.4c-0.4,0.4-0.4,1,0,1.4
	c0.2,0.2,0.5,0.3,0.7,0.3s0.5-0.1,0.7-0.3L9.5,39h13.7c0.3,0,0.5-0.1,0.7-0.3l8-8c0,0,0,0,0,0l10.4-10.4c4.3-4.3,4.3-11.3,0-15.6
	C40.3,2.7,37.5,1.5,34.6,1.5z M22.8,37H11.5l6-6h11.3L22.8,37z M40.9,18.9L30.8,29H19.5L31,17.5c0.4-0.4,0.4-1,0-1.4s-1-0.4-1.4,0
	L10.1,35.6V24.3L28.2,6.2c1.7-1.7,4-2.6,6.4-2.6s4.7,0.9,6.4,2.6C44.4,9.7,44.4,15.4,40.9,18.9z"/>
</svg>
