<?xml version="1.0" encoding="utf-8"?>
<!-- Generator: Adobe Illustrator 19.1.0, SVG Export Plug-In . SVG Version: 6.00 Build 0)  -->
<!DOCTYPE svg PUBLIC "-//W3C//DTD SVG 1.1//EN" "http://www.w3.org/Graphics/SVG/1.1/DTD/svg11.dtd">
<svg version="1.1" id="Layer_1" xmlns="http://www.w3.org/2000/svg" xmlns:xlink="http://www.w3.org/1999/xlink" x="0px" y="0px"
	 width="48px" height="48px" viewBox="0 0 48 48" enable-background="new 0 0 48 48" xml:space="preserve">
<path d="M39,23.1V22c0-7.9-6.2-14.4-14-14.9V2c0-0.6-0.4-1-1-1s-1,0.4-1,1v5.1C15.2,7.6,9,14.1,9,22v1.1c-4.5,0.5-8,4.3-8,8.9
	c0,0.6,0.4,1,1,1h44c0.6,0,1-0.4,1-1C47,27.4,43.5,23.6,39,23.1z M24,9c7.2,0,13,5.8,13,13v1H11v-1C11,14.8,16.8,9,24,9z M3.1,31
	c0.5-3.4,3.4-6,6.9-6h28c3.5,0,6.4,2.6,6.9,6H3.1z"/>
<path d="M24,39c-0.6,0-1,0.4-1,1v4c0,0.6,0.4,1,1,1s1-0.4,1-1v-4C25,39.4,24.6,39,24,39z"/>
<path d="M34.2,37.5C34,37,33.4,36.8,32.9,37c-0.5,0.2-0.7,0.8-0.5,1.3l1.7,3.6c0.2,0.4,0.5,0.6,0.9,0.6c0.1,0,0.3,0,0.4-0.1
	c0.5-0.2,0.7-0.8,0.5-1.3L34.2,37.5z"/>
<path d="M15.1,37c-0.5-0.2-1.1,0-1.3,0.5l-1.7,3.6c-0.2,0.5,0,1.1,0.5,1.3c0.1,0.1,0.3,0.1,0.4,0.1c0.4,0,0.7-0.2,0.9-0.6l1.7-3.6
	C15.8,37.9,15.6,37.3,15.1,37z"/>
<path d="M24,19c1.7,0,3-1.3,3-3s-1.3-3-3-3s-3,1.3-3,3S22.3,19,24,19z M24,15c0.6,0,1,0.4,1,1s-0.4,1-1,1s-1-0.4-1-1S23.4,15,24,15z
	"/>
</svg>
