<?xml version="1.0" encoding="utf-8"?>
<!-- Generator: Adobe Illustrator 19.1.0, SVG Export Plug-In . SVG Version: 6.00 Build 0)  -->
<!DOCTYPE svg PUBLIC "-//W3C//DTD SVG 1.1//EN" "http://www.w3.org/Graphics/SVG/1.1/DTD/svg11.dtd">
<svg version="1.1" id="Layer_1" xmlns="http://www.w3.org/2000/svg" xmlns:xlink="http://www.w3.org/1999/xlink" x="0px" y="0px"
	 width="48px" height="48px" viewBox="0 0 48 48" enable-background="new 0 0 48 48" xml:space="preserve">
<path d="M41,26c0-10.5-8.5-19-19-19c-1.1,0-2.1,0.1-3.1,0.3c-7.4-5-13.1-6.5-15.5-4.1c-2,2-1.5,5.9,1.4,11.3c0.3,0.5,0.6,1.1,1,1.7
	C4,19.1,3,22.4,3,26c0,10.5,8.5,19,19,19c3.6,0,6.9-1,9.8-2.8c0.6,0.3,1.1,0.7,1.7,1c3.2,1.7,5.9,2.6,8,2.6c1.4,0,2.5-0.4,3.3-1.2
	c2.5-2.5,1-8.1-4.1-15.5C40.9,28.1,41,27.1,41,26z M39,26c0,1-0.1,2.1-0.3,3.1c0,0.1,0,0.1,0,0.2c-0.8,4.4-3.4,8.2-6.9,10.6
	c-4.2-2.6-8.7-6.3-13-10.6c-4.6-4.6-8.2-9.1-10.7-13C11.2,11.9,16.3,9,22,9C31.4,9,39,16.6,39,26z M4.8,4.6C6,3.4,10,4,16.2,7.9
	c-3.7,1.2-6.9,3.5-9.2,6.5C4.3,9.6,3.5,6,4.8,4.6z M22,43c-9.4,0-17-7.6-17-17c0-2.9,0.7-5.5,2-7.9c2.7,4.1,6.2,8.4,10.4,12.5
	s8.5,7.7,12.5,10.4C27.5,42.3,24.9,43,22,43z M43.4,43.2c-1.2,1.2-4.6,0.6-8.9-1.8c-0.3-0.1-0.5-0.3-0.8-0.5c3-2.3,5.3-5.5,6.4-9.2
	C44,38,44.6,42,43.4,43.2z"/>
<circle cx="12" cy="32" r="1.9"/>
<circle cx="30" cy="28" r="2"/>
<path d="M22,21c1.7,0,3-1.3,3-3s-1.3-3-3-3s-3,1.3-3,3S20.3,21,22,21z M22,17c0.6,0,1,0.4,1,1s-0.4,1-1,1s-1-0.4-1-1S21.4,17,22,17z
	"/>
</svg>
