<?xml version="1.0" encoding="utf-8"?>
<!-- Generator: Adobe Illustrator 19.1.0, SVG Export Plug-In . SVG Version: 6.00 Build 0)  -->
<!DOCTYPE svg PUBLIC "-//W3C//DTD SVG 1.1//EN" "http://www.w3.org/Graphics/SVG/1.1/DTD/svg11.dtd">
<svg version="1.1" id="Layer_1" xmlns="http://www.w3.org/2000/svg" xmlns:xlink="http://www.w3.org/1999/xlink" x="0px" y="0px"
	 width="48px" height="48px" viewBox="0 0 48 48" enable-background="new 0 0 48 48" xml:space="preserve">
<path d="M46.8,18.2C45.4,8.5,37.1,1,27,1c-2.6,0-5,0.5-7.2,1.4c0,0,0,0,0,0C12.3,5.3,7,12.5,7,21c0,3.6,1,7.1,2.7,10H5
	c-2.2,0-4,1.8-4,4s1.8,4,4,4h3c1.7,0,3,1.3,3,3s-1.3,3-3,3H2c-0.6,0-1,0.4-1,1s0.4,1,1,1h6c2.8,0,5-2.2,5-5s-2.2-5-5-5H5
	c-1.1,0-2-0.9-2-2s0.9-2,2-2h6c1.1,1.4,2.4,2.7,3.8,3.8c0,0,0,0,0.1,0c2.2,1.7,4.8,2.9,7.6,3.6c0,0,0,0,0,0c0,0,0,0,0,0
	C24,40.8,25.5,41,27,41c9,0,16.7-6,19.2-14.3c0,0,0,0,0,0c0,0,0,0,0,0C46.7,24.9,47,23,47,21C47,20.1,46.9,19.1,46.8,18.2
	C46.8,18.2,46.8,18.2,46.8,18.2z M16.7,35.8C20.6,25.7,30.2,19,41,19c1.3,0,2.6,0.1,3.9,0.3C45,19.9,45,20.4,45,21
	c0,1.5-0.2,2.9-0.6,4.3c-9.8-1.7-19.1,4-22.3,13C20.2,37.8,18.4,36.9,16.7,35.8z M44.6,17.3C43.4,17.1,42.2,17,41,17
	c-2.3,0-4.5,0.3-6.6,0.8C30.9,14.4,29,9.9,29,5c0-0.6,0.1-1.2,0.1-1.9C36.8,4,43,9.8,44.6,17.3z M27.1,3C27.1,3.7,27,4.4,27,5
	c0,5,1.9,9.8,5.2,13.4c-2,0.7-3.9,1.5-5.6,2.6C23,16.5,21,10.8,21,5c0-0.3,0-0.6,0-1c1.9-0.7,3.9-1,6-1C27,3,27.1,3,27.1,3z M19,4.9
	c0,0,0,0.1,0,0.1c0,2.8,0.4,5.5,1.2,8.1c-2.9,3.2-6.8,5.2-11.1,5.7C9.9,12.7,13.7,7.5,19,4.9z M9,21c0-0.1,0-0.1,0-0.1
	c4.6-0.5,8.7-2.4,12-5.6c1,2.5,2.3,4.8,3.9,6.9c-4.3,3-7.7,7.3-9.8,12.3C11.4,31.2,9,26.4,9,21z M27,39c-1,0-1.9-0.1-2.9-0.3
	C26.7,31.8,33.5,27,41,27c0.9,0,1.9,0.1,2.9,0.2C41.3,34.1,34.7,39,27,39z"/>
</svg>
