<?xml version="1.0" encoding="utf-8"?>
<!-- Generator: Adobe Illustrator 19.2.1, SVG Export Plug-In . SVG Version: 6.00 Build 0)  -->
<!DOCTYPE svg PUBLIC "-//W3C//DTD SVG 1.1//EN" "http://www.w3.org/Graphics/SVG/1.1/DTD/svg11.dtd">
<svg version="1.1" id="Layer_1" xmlns="http://www.w3.org/2000/svg" xmlns:xlink="http://www.w3.org/1999/xlink" x="0px" y="0px"
	 width="48px" height="48px" viewBox="0 0 48 48" enable-background="new 0 0 48 48" xml:space="preserve">
<path d="M46,11c0-0.552-0.448-1-1-1s-1,0.448-1,1v2h-4v-2c0-0.552-0.448-1-1-1s-1,0.448-1,1v2h-1v5c0,2.414,1.721,4.434,4,4.899
	V33.5c0,1.93-1.57,3.5-3.5,3.5S34,35.43,34,33.5V8c0-2.757-2.243-5-5-5H9C6.243,3,4,5.243,4,8v35H2c-0.552,0-1,0.448-1,1
	s0.448,1,1,1h34c0.552,0,1-0.448,1-1s-0.448-1-1-1h-2v-5.261C34.952,38.526,36.172,39,37.5,39c3.033,0,5.5-2.467,5.5-5.5V22.899
	c2.279-0.465,4-2.484,4-4.899v-5h-1V11z M28,21c0,0.552-0.448,1-1,1H11c-0.552,0-1-0.448-1-1V10c0-0.552,0.448-1,1-1h16
	c0.552,0,1,0.448,1,1V21z"/>
</svg>
