<?xml version="1.0" encoding="utf-8"?>
<!-- Generator: Adobe Illustrator 19.2.1, SVG Export Plug-In . SVG Version: 6.00 Build 0)  -->
<!DOCTYPE svg PUBLIC "-//W3C//DTD SVG 1.1//EN" "http://www.w3.org/Graphics/SVG/1.1/DTD/svg11.dtd">
<svg version="1.1" id="Layer_1" xmlns="http://www.w3.org/2000/svg" xmlns:xlink="http://www.w3.org/1999/xlink" x="0px" y="0px"
	 width="48px" height="48px" viewBox="0 0 48 48" enable-background="new 0 0 48 48" xml:space="preserve">
<path d="M16.387,28.128C16.163,26.896,15.09,26,13.837,26c-1.524,0-2.719,1.308-2.581,2.826L12,37l-2.187-2.187
	c-1.179-1.179-1.96-2.697-2.234-4.342L5.302,16.81C5.128,15.765,4.224,15,3.166,15C1.97,15,1,15.97,1,17.166v17.342
	c0,1.631,0.443,3.232,1.283,4.63L7,47h11v-8.197c0-1.2-0.108-2.397-0.323-3.578L16.387,28.128z"/>
<path d="M44.834,15c-1.059,0-1.962,0.765-2.136,1.81l-2.277,13.662c-0.274,1.645-1.055,3.163-2.234,4.342L36,37l0.743-8.174
	C36.881,27.308,35.686,26,34.163,26c-1.252,0-2.325,0.896-2.549,2.128l-1.291,7.098C30.108,36.406,30,37.604,30,38.803V47h11
	l4.717-7.862C46.557,37.739,47,36.138,47,34.507V17.166C47,15.97,46.03,15,44.834,15z"/>
<path d="M36,13c0-6.6-5.4-12-12-12S12,6.4,12,13c0,6.6,5.4,12,12,12S36,19.6,36,13z M24,23c-2.5,0-4.8-0.9-6.5-2.5
	c1.7-2.8,0.6-4.5-0.2-5.2c-0.2-0.2-0.4-0.4-0.7-0.6c-0.6-0.5-1-0.8-1-1.7c0-0.4,0.2-0.6,1.4-1c0.8-0.3,1.8-0.6,2.4-1.4
	C20.8,8.8,19.3,6,19,5.5c-0.2-0.3-0.4-0.6-0.6-0.8c1.5-1,3.3-1.6,5.2-1.7C24,3.5,24.5,4,25,4.4c0.4,0.4,1.1,0.5,1.5,1
	c0.2,0.3,0.1,0.7,0.1,1.1C26.6,7.1,27,8,28.3,8c0.1,0,0.1,0,0.2,0c0.5,0,2.1-0.4,3.6-0.9c1.2,1.7,2,3.7,2,5.9C34,18.5,29.5,23,24,23
	z"/>
<path d="M27.5,9.9c-1.6,0-3.2,0.7-4,1.9c-0.5,0.7-0.7,1.6-0.5,2.4c0.5,1.6,0.6,2.6,0.2,3.7c-0.3,1-0.3,2.4,1.3,3
	c0.3,0.1,0.6,0.2,1,0.2c1.2,0,2.7-0.8,3.9-2.1c1.6-1.6,2.5-3.5,2.4-5.2C32,11.7,30,9.9,27.5,9.9z"/>
</svg>
