<?xml version="1.0" encoding="utf-8"?>
<!-- Generator: Adobe Illustrator 19.2.1, SVG Export Plug-In . SVG Version: 6.00 Build 0)  -->
<!DOCTYPE svg PUBLIC "-//W3C//DTD SVG 1.1//EN" "http://www.w3.org/Graphics/SVG/1.1/DTD/svg11.dtd">
<svg version="1.1" id="Layer_1" xmlns="http://www.w3.org/2000/svg" xmlns:xlink="http://www.w3.org/1999/xlink" x="0px" y="0px"
	 width="48px" height="48px" viewBox="0 0 48 48" enable-background="new 0 0 48 48" xml:space="preserve">
<path d="M28.197,43.718c0.726-1.121,0.972-2.458,0.693-3.764c-0.475-2.218-7.916-17.334-8.762-19.05
	c-0.208-0.42-0.677-0.641-1.135-0.529c-0.455,0.111-0.772,0.524-0.762,0.993c0.041,1.886,0.412,18.488,0.88,20.677
	c0.279,1.306,1.051,2.425,2.171,3.151c0.82,0.531,1.754,0.805,2.708,0.805c0.351,0,0.704-0.038,1.055-0.112
	C26.352,45.61,27.471,44.839,28.197,43.718z"/>
<path d="M8.884,19.172c0.172,0.127,0.38,0.194,0.591,0.194c0.05,0,0.101-0.004,0.152-0.012c0.262-0.04,0.498-0.183,0.654-0.397
	C13.279,14.871,17.977,12.33,23,12.03v-10C14.804,2.338,7.093,6.398,2.219,13.042c-0.327,0.445-0.23,1.071,0.215,1.397L8.884,19.172
	z"/>
<path d="M37.717,18.955c0.157,0.214,0.392,0.356,0.654,0.396c0.265,0.041,0.53-0.025,0.744-0.182l6.449-4.733
	c0.445-0.327,0.541-0.953,0.214-1.398C40.904,6.396,33.194,2.338,25,2.03v10C30.022,12.33,34.719,14.87,37.717,18.955z"/>
</svg>
