<?xml version="1.0" encoding="utf-8"?>
<!-- Generator: Adobe Illustrator 19.2.1, SVG Export Plug-In . SVG Version: 6.00 Build 0)  -->
<!DOCTYPE svg PUBLIC "-//W3C//DTD SVG 1.1//EN" "http://www.w3.org/Graphics/SVG/1.1/DTD/svg11.dtd">
<svg version="1.1" id="Layer_1" xmlns="http://www.w3.org/2000/svg" xmlns:xlink="http://www.w3.org/1999/xlink" x="0px" y="0px"
	 width="48px" height="48px" viewBox="0 0 48 48" enable-background="new 0 0 48 48" xml:space="preserve">
<path d="M24,1C16.904,1,5,1.649,5,6s11.904,5,19,5s19-0.649,19-5S31.096,1,24,1z"/>
<path d="M5,9.73V42c0,4.351,11.904,5,19,5s19-0.649,19-5V9.73C39.214,12.591,30.769,13,24,13S8.786,12.591,5,9.73z M29.707,23.293
	c0.391,0.391,0.391,1.023,0,1.414L25.414,29l4.293,4.293c0.391,0.391,0.391,1.023,0,1.414C29.512,34.902,29.256,35,29,35
	s-0.512-0.098-0.707-0.293L24,30.414l-4.293,4.293C19.512,34.902,19.256,35,19,35s-0.512-0.098-0.707-0.293
	c-0.391-0.391-0.391-1.023,0-1.414L22.586,29l-4.293-4.293c-0.391-0.391-0.391-1.023,0-1.414s1.023-0.391,1.414,0L24,27.586
	l4.293-4.293C28.684,22.902,29.316,22.902,29.707,23.293z"/>
</svg>
