<?xml version="1.0" encoding="utf-8"?>
<!-- Generator: Adobe Illustrator 19.2.1, SVG Export Plug-In . SVG Version: 6.00 Build 0)  -->
<!DOCTYPE svg PUBLIC "-//W3C//DTD SVG 1.1//EN" "http://www.w3.org/Graphics/SVG/1.1/DTD/svg11.dtd">
<svg version="1.1" id="Layer_1" xmlns="http://www.w3.org/2000/svg" xmlns:xlink="http://www.w3.org/1999/xlink" x="0px" y="0px"
	 width="48px" height="48px" viewBox="0 0 48 48" enable-background="new 0 0 48 48" xml:space="preserve">
<circle cx="24" cy="24" r="7"/>
<path d="M15,24c0-4.112,2.775-7.58,6.547-8.652l-6.65-11.463c-0.267-0.459-0.845-0.629-1.318-0.39
	C9.599,5.52,6.314,8.633,4.081,12.5c-2.231,3.864-3.285,8.264-3.048,12.721c0.028,0.53,0.465,0.946,0.996,0.947l13.255,0.033
	C15.105,25.495,15,24.76,15,24z"/>
<path d="M30.266,30.448C28.644,32.024,26.435,33,24,33c-2.435,0-4.643-0.976-6.265-2.552l-6.598,11.495
	c-0.264,0.46-0.123,1.047,0.322,1.336C15.2,45.714,19.537,47,24,47c4.465,0,8.804-1.287,12.546-3.724
	c0.445-0.289,0.586-0.876,0.322-1.336L30.266,30.448z"/>
<path d="M34.421,3.496c-0.473-0.239-1.052-0.069-1.318,0.39l-6.65,11.463C30.225,16.42,33,19.888,33,24
	c0,0.76-0.105,1.495-0.284,2.201l13.255-0.033c0.531-0.001,0.968-0.417,0.996-0.947c0.237-4.457-0.817-8.856-3.048-12.721
	C41.686,8.633,38.401,5.52,34.421,3.496z"/>
</svg>
