<?xml version="1.0" encoding="utf-8"?>
<!-- Generator: Adobe Illustrator 19.2.1, SVG Export Plug-In . SVG Version: 6.00 Build 0)  -->
<!DOCTYPE svg PUBLIC "-//W3C//DTD SVG 1.1//EN" "http://www.w3.org/Graphics/SVG/1.1/DTD/svg11.dtd">
<svg version="1.1" id="Layer_1" xmlns="http://www.w3.org/2000/svg" xmlns:xlink="http://www.w3.org/1999/xlink" x="0px" y="0px"
	 width="48px" height="48px" viewBox="0 0 48 48" enable-background="new 0 0 48 48" xml:space="preserve">
<path d="M38.119,8.673l-0.005-0.025l-12.666,2.111L24.169,4.79C24.071,4.329,23.663,4,23.192,4H6.899
	c-0.511,0-0.94,0.385-0.994,0.893l-2.786,26C3.055,31.484,3.518,32,4.113,32h24.65c0.637,0,1.111-0.587,0.978-1.21l-2.257-10.532
	l11.805-5.902l-0.003-0.016C40.711,16.54,43.183,18,46,18V2C42.035,2,38.753,4.888,38.119,8.673z"/>
<path d="M36,41.036C36,44.227,38.5,46,41,46s5-1.773,5-4.964C46,37.964,41,33,41,33S36,37.964,36,41.036z"/>
</svg>
