<?xml version="1.0" encoding="utf-8"?>
<!-- Generator: Adobe Illustrator 19.2.1, SVG Export Plug-In . SVG Version: 6.00 Build 0)  -->
<!DOCTYPE svg PUBLIC "-//W3C//DTD SVG 1.1//EN" "http://www.w3.org/Graphics/SVG/1.1/DTD/svg11.dtd">
<svg version="1.1" id="Layer_1" xmlns="http://www.w3.org/2000/svg" xmlns:xlink="http://www.w3.org/1999/xlink" x="0px" y="0px"
	 width="48px" height="48px" viewBox="0 0 48 48" enable-background="new 0 0 48 48" xml:space="preserve">
<path d="M24,47c3.519,0,6.432-2.613,6.92-6H17.08C17.568,44.387,20.481,47,24,47z"/>
<path d="M17,35.567V39h6V29c-4.418,0-8-3.582-8-8v-2h1c3.014,0,5.636,1.668,7,4.13V9c0-0.552,0.447-1,1-1s1,0.448,1,1v7.13
	c1.364-2.462,3.986-4.13,7-4.13h1v2c0,4.418-3.582,8-8,8v17h6v-3.433C37.607,32.77,42,26.199,42,19
	c0-5.114-2.188-10.005-6.001-13.417c-3.865-3.459-8.858-5.046-14.061-4.467C13.927,2.007,7.301,8.437,6.183,16.402
	C5.031,24.608,9.458,32.388,17,35.567z"/>
</svg>
