<?xml version="1.0" encoding="utf-8"?>
<!-- Generator: Adobe Illustrator 19.1.0, SVG Export Plug-In . SVG Version: 6.00 Build 0)  -->
<!DOCTYPE svg PUBLIC "-//W3C//DTD SVG 1.1//EN" "http://www.w3.org/Graphics/SVG/1.1/DTD/svg11.dtd">
<svg version="1.1" id="Layer_1" xmlns="http://www.w3.org/2000/svg" xmlns:xlink="http://www.w3.org/1999/xlink" x="0px" y="0px"
	 width="32px" height="32px" viewBox="0 0 32 32" enable-background="new 0 0 32 32" xml:space="preserve">
<path d="M9,32h14c0.49805,0,0.91992-0.36621,0.99023-0.8584l3-21c0.02148-0.1543,0.00781-0.31055-0.04199-0.45801l-3-9
	C23.8125,0.27539,23.43066,0,23,0H9C8.56934,0,8.1875,0.27539,8.05176,0.68359l-3,9C5.00195,9.83105,4.98828,9.9873,5.00977,10.1416
	l3,21C8.08008,31.63379,8.50195,32,9,32z M9.7207,2H22.2793l2.69727,8.0918L22.13281,30H9.86719L7.02344,10.0918L9.7207,2z"/>
<path d="M13,12h2v5c0,0.55273,0.44727,1,1,1s1-0.44727,1-1v-5h2c0.55273,0,1-0.44727,1-1s-0.44727-1-1-1h-2V8
	c0-0.55273-0.44727-1-1-1s-1,0.44727-1,1v2h-2c-0.55273,0-1,0.44727-1,1S12.44727,12,13,12z"/>
</svg>
