<?xml version="1.0" encoding="utf-8"?>
<!-- Generator: Adobe Illustrator 19.1.0, SVG Export Plug-In . SVG Version: 6.00 Build 0)  -->
<!DOCTYPE svg PUBLIC "-//W3C//DTD SVG 1.1//EN" "http://www.w3.org/Graphics/SVG/1.1/DTD/svg11.dtd">
<svg version="1.1" id="Layer_1" xmlns="http://www.w3.org/2000/svg" xmlns:xlink="http://www.w3.org/1999/xlink" x="0px" y="0px"
	 width="32px" height="32px" viewBox="0 0 32 32" enable-background="new 0 0 32 32" xml:space="preserve">
<path d="M15,12c0-1.6543-1.3457-3-3-3s-3,1.3457-3,3s1.3457,3,3,3S15,13.6543,15,12z M11,12c0-0.55176,0.44873-1,1-1s1,0.44824,1,1
	s-0.44873,1-1,1S11,12.55176,11,12z"/>
<path d="M20,10c-1.6543,0-3,1.3457-3,3s1.3457,3,3,3s3-1.3457,3-3S21.6543,10,20,10z M20,14c-0.55127,0-1-0.44824-1-1s0.44873-1,1-1
	s1,0.44824,1,1S20.55127,14,20,14z"/>
<path d="M16,17c-3.30859,0-6,2.69141-6,6c0,0.55273,0.44775,1,1,1h4v1.5c0,1.37891,1.12158,2.5,2.5,2.5s2.5-1.12109,2.5-2.5V24h1
	c0.55225,0,1-0.44727,1-1C22,19.69141,19.30859,17,16,17z M19,22c-0.55225,0-1,0.44727-1,1v2.5c0,0.27539-0.22412,0.5-0.5,0.5
	S17,25.77539,17,25.5V23c0-0.55273-0.44775-1-1-1h-3.87354c0.44531-1.72363,2.01318-3,3.87354-3s3.42822,1.27637,3.87354,3H19z"/>
<path d="M28,10.05054V9c0-0.34863-0.02539-0.71875-0.07812-1.13281C27.85889,7.37305,27.44189,7,26.94385,6.99316
	c-1.7334-0.02441-3.23975-1.16406-3.74902-2.83594c-0.08594-0.2832-0.29248-0.5127-0.56396-0.62891
	s-0.58057-0.10449-0.84375,0.02734C21.2041,3.85059,20.60303,4,20,4c-1.89453,0-3.54297-1.3457-3.91943-3.19922
	C15.98584,0.33496,15.57617,0,15.10059,0H13C8.0376,0,4,4.03711,4,9v1.05054C1.75616,10.30298,0,12.18976,0,14.5
	s1.75616,4.19702,4,4.44946V20c0,6.61719,5.3833,12,12,12s12-5.38281,12-12v-1.05054c2.24384-0.25244,4-2.13922,4-4.44946
	S30.24384,10.30298,28,10.05054z M2,14.5c0-1.20764,0.86029-2.21716,2-2.44946v4.89893C2.86029,16.71716,2,15.70764,2,14.5z M26,20
	c0,5.51367-4.48584,10-10,10S6,25.51367,6,20V9c0-3.85938,3.14014-7,7-7h1.34229C15.17773,4.36035,17.43896,6,20,6
	c0.57031,0,1.13525-0.08496,1.68848-0.25488c0.86035,1.67773,2.4541,2.85156,4.31055,3.16504C25.99951,8.93945,26,8.96973,26,9V20z
	 M28,16.94946v-4.89893c1.13971,0.2323,2,1.24182,2,2.44946S29.13971,16.71716,28,16.94946z"/>
</svg>
