<?xml version="1.0" encoding="utf-8"?>
<!-- Generator: Adobe Illustrator 19.1.0, SVG Export Plug-In . SVG Version: 6.00 Build 0)  -->
<!DOCTYPE svg PUBLIC "-//W3C//DTD SVG 1.1//EN" "http://www.w3.org/Graphics/SVG/1.1/DTD/svg11.dtd">
<svg version="1.1" id="Layer_1" xmlns="http://www.w3.org/2000/svg" xmlns:xlink="http://www.w3.org/1999/xlink" x="0px" y="0px"
	 width="32px" height="32px" viewBox="0 0 32 32" enable-background="new 0 0 32 32" xml:space="preserve">
<path d="M3.4375,19.85547c-0.07715,0.27441-0.0332,0.56787,0.12012,0.80811c0.15332,0.23975,0.40137,0.40283,0.68262,0.44873
	c2.05695,0.33325,4.67517,1.56152,6.78705,3.15784c0.00464,0.08508,0.01666,0.16791,0.02551,0.25183
	C9.81567,25.2265,9,26.54907,9,28c0,2.20557,1.79395,4,4,4c1.2005,0,2.2663-0.54236,3-1.3822C16.7337,31.45764,17.7995,32,19,32
	c2.20605,0,4-1.79443,4-4c0-1.2804-0.63403-2.4635-1.6322-3.20935c1.90839-1.35138,5.30841-3.0415,7.92419-3.69543
	c0.26367-0.06592,0.48828-0.23535,0.62402-0.47021c0.13574-0.23438,0.16992-0.51416,0.0957-0.7749
	c-0.83984-2.93848-0.21289-7.96387,1.13672-9.11377c0.34668-0.29541,0.4502-0.78809,0.25098-1.19824
	c-1.41309-2.9082-1.35059-6.75293-1.34961-6.7915c0.00684-0.34766-0.16699-0.67383-0.45996-0.86182
	c-0.29297-0.18848-0.66504-0.21045-0.97461-0.06006c-0.03906,0.01807-3.80371,1.80029-8.16406,1.35547
	c-0.53418-0.05811-1.03711,0.34131-1.0957,0.88916c-0.13385,1.25616-1.25641,2.89862-2.63141,4.20337
	c-2.047-1.68164-3.62793-3.88617-4.10394-5.78979c-0.06641-0.26953-0.24316-0.49854-0.48535-0.63281
	c-0.24316-0.13428-0.53027-0.16162-0.79492-0.07568c-4.05566,1.32373-8.0293,0.0166-8.06934,0.00342
	C2.93555,1.66553,2.56348,1.7373,2.29688,1.96924C2.0293,2.20117,1.90332,2.55664,1.9668,2.90479
	c0.00684,0.03809,0.66992,3.82178-1.27441,6.47998C0.37207,9.82324,0.45996,10.4375,0.8916,10.76855
	C2.4668,11.97803,4.28516,16.82764,3.4375,19.85547z M16,21c1.6543,0,3,1.3457,3,3s-1.3457,3-3,3s-3-1.3457-3-3S14.3457,21,16,21z
	 M13,30c-1.10254,0-2-0.89697-2-2c0-0.58209,0.27783-1.11078,0.703-1.48639c0.67401,1.14728,1.78094,2.00018,3.10541,2.32703
	C14.48962,29.52313,13.80145,30,13,30z M19,30c-0.80145,0-1.48962-0.47687-1.80841-1.15936
	c1.32446-0.32684,2.4314-1.17975,3.10541-2.32703C20.72217,26.88922,21,27.41791,21,28C21,29.10303,20.10254,30,19,30z
	 M21.14062,5.23584c2.91211,0.12988,5.46582-0.53906,6.95801-1.05615c0.09766,1.40674,0.38672,3.59814,1.2207,5.60693
	c-1.54688,2.05029-2.04883,6.44824-1.45801,9.63623c-2.28827,0.716-5.05676,2.03638-7.03925,3.32599
	c-0.20264-0.77856-0.58563-1.4787-1.10596-2.06177l4.39032-7.29645c0.28516-0.47314,0.13281-1.08789-0.34082-1.37256
	c-0.47266-0.28516-1.08789-0.13281-1.37207,0.34131l-4.28589,7.12299C17.4649,19.18103,16.75549,19,16,19
	c-0.1817,0-0.35388,0.03467-0.53058,0.05365c-0.16071-2.39868-0.56024-4.88593-1.11005-6.90326
	c0.96216-0.33441,1.9646-0.94733,2.90497-1.70544c0.02039-0.01172,0.03644-0.02954,0.05609-0.04279
	C19.07111,8.97534,20.58673,7.01947,21.14062,5.23584z M4.07422,4.04004c1.53809,0.30762,4.13184,0.59424,6.91797-0.08789
	c0.7403,1.93896,2.23322,3.95148,4.13501,5.59308c-0.74774,0.4856-1.49133,0.81683-2.13306,0.88495
	c-0.30078,0.03223-0.57031,0.19824-0.73438,0.45166s-0.2041,0.56787-0.11035,0.85449
	c0.70258,2.14099,1.20532,5.13794,1.35254,7.95819c-0.93555,0.54517-1.68933,1.36786-2.11255,2.37445
	c-1.85944-1.26233-3.93756-2.23938-5.81421-2.7179c0.44141-3.31152-0.97559-7.50488-2.78613-9.52832
	C3.95703,7.78857,4.12109,5.5,4.07422,4.04004z"/>
</svg>
