<?xml version="1.0" encoding="utf-8"?>
<!-- Generator: Adobe Illustrator 19.1.0, SVG Export Plug-In . SVG Version: 6.00 Build 0)  -->
<!DOCTYPE svg PUBLIC "-//W3C//DTD SVG 1.1//EN" "http://www.w3.org/Graphics/SVG/1.1/DTD/svg11.dtd">
<svg version="1.1" id="Layer_1" xmlns="http://www.w3.org/2000/svg" xmlns:xlink="http://www.w3.org/1999/xlink" x="0px" y="0px"
	 width="32px" height="32px" viewBox="0 0 32 32" enable-background="new 0 0 32 32" xml:space="preserve">
<path d="M5,20c-2.20557,0-4,1.79395-4,4c0,1.89648,1.32715,3.48926,3.10156,3.89844C4.51074,29.67285,6.10303,31,8,31
	c2.20557,0,4-1.79395,4-4c0-0.72656-0.19238-1.42285-0.55322-2.03223l4.55341-4.55341l4.55304,4.55341
	C20.19238,25.57715,20,26.27344,20,27c0,2.20605,1.79443,4,4,4c1.89697,0,3.48926-1.32715,3.89844-3.10156
	C29.67285,27.48926,31,25.89648,31,24c0-2.20605-1.79443-4-4-4c-0.72656,0-1.42383,0.19238-2.0332,0.55371l-4.55255-4.55341
	l4.55304-4.55304C25.57617,11.80762,26.27344,12,27,12c2.20557,0,4-1.79395,4-4c0-1.89648-1.32715-3.48926-3.10156-3.89844
	C27.48926,2.32715,25.89697,1,24,1c-2.20557,0-4,1.79395-4,4c0,0.72656,0.19238,1.42285,0.55322,2.03223l-4.55341,4.55341
	l-4.55304-4.55341C11.80762,6.42285,12,5.72656,12,5c0-2.20605-1.79443-4-4-4C6.10303,1,4.51074,2.32715,4.10156,4.10156
	C2.32715,4.51074,1,6.10352,1,8c0,2.20605,1.79443,4,4,4c0.72656,0,1.42383-0.19238,2.0332-0.55371l4.55255,4.55341
	l-4.55304,4.55304C6.42383,20.19238,5.72656,20,5,20z M24.17139,22.58594c0.375,0.375,1.03906,0.375,1.41406,0
	C25.96338,22.20801,26.46582,22,27,22c1.10303,0,2,0.89746,2,2s-0.89697,2-2,2c-0.55225,0-1,0.44727-1,1c0,1.10254-0.89697,2-2,2
	s-2-0.89746-2-2c0-0.53418,0.20801-1.03613,0.58594-1.41406c0.39014-0.39062,0.39014-1.02344-0.00049-1.41406l-5.17114-5.17163
	l1.58594-1.58594L24.17139,22.58594z M7.82861,9.41406c-0.375-0.375-1.03906-0.375-1.41406,0C6.03662,9.79199,5.53418,10,5,10
	c-1.10303,0-2-0.89746-2-2s0.89697-2,2-2c0.55225,0,1-0.44727,1-1c0-1.10254,0.89697-2,2-2s2,0.89746,2,2
	c0,0.53418-0.20801,1.03613-0.58594,1.41406C9.02393,6.80469,9.02393,7.4375,9.41455,7.82812l5.17114,5.17163l-1.58594,1.58594
	L7.82861,9.41406z M7.82812,22.58594l5.87408-5.87408c0.00171-0.00171,0.00409-0.00214,0.0058-0.00385
	s0.00214-0.00409,0.00385-0.0058l2.99036-2.99036c0.00171-0.00171,0.00409-0.00214,0.0058-0.00385s0.00214-0.00409,0.00385-0.0058
	l5.87408-5.87408c0.1875-0.1875,0.29297-0.44141,0.29297-0.70703s-0.10547-0.51953-0.29297-0.70703
	C22.20801,6.03613,22,5.53418,22,5c0-1.10254,0.89697-2,2-2s2,0.89746,2,2c0,0.55273,0.44775,1,1,1c1.10303,0,2,0.89746,2,2
	s-0.89697,2-2,2c-0.53418,0-1.03613-0.20801-1.41357-0.58594c-0.1875-0.1875-0.44189-0.29297-0.70752-0.29297
	c-0.26514,0-0.51953,0.10547-0.70703,0.29297L9.41406,24.17188c-0.1875,0.1875-0.29297,0.44141-0.29297,0.70703
	s0.10547,0.51953,0.29297,0.70703C9.79199,25.96387,10,26.46582,10,27c0,1.10254-0.89697,2-2,2s-2-0.89746-2-2
	c0-0.55273-0.44775-1-1-1c-1.10303,0-2-0.89746-2-2s0.89697-2,2-2c0.53418,0,1.03613,0.20801,1.41357,0.58594
	c0.1875,0.1875,0.44189,0.29297,0.70752,0.29297C7.38623,22.87891,7.64062,22.77344,7.82812,22.58594z"/>
</svg>
