<?xml version="1.0" encoding="utf-8"?>
<!-- Generator: Adobe Illustrator 19.1.0, SVG Export Plug-In . SVG Version: 6.00 Build 0)  -->
<!DOCTYPE svg PUBLIC "-//W3C//DTD SVG 1.1//EN" "http://www.w3.org/Graphics/SVG/1.1/DTD/svg11.dtd">
<svg version="1.1" id="Layer_1" xmlns="http://www.w3.org/2000/svg" xmlns:xlink="http://www.w3.org/1999/xlink" x="0px" y="0px"
	 width="32px" height="32px" viewBox="0 0 32 32" enable-background="new 0 0 32 32" xml:space="preserve">
<path d="M31,6h-5.53943C25.79523,5.41278,26,4.73755,26,4c0-2.24316-1.75684-4-4-4c-3.11804,0-4.99213,2.40527-6,4.34491
	C14.99213,2.40527,13.11804,0,10,0C7.75684,0,6,1.75684,6,4c0,0.73755,0.20477,1.41278,0.53943,2H1C0.44727,6,0,6.44775,0,7v5
	c0,0.55225,0.44727,1,1,1h2v18c0,0.55225,0.44727,1,1,1h24c0.55273,0,1-0.44775,1-1V13h2c0.55273,0,1-0.44775,1-1V7
	C32,6.44775,31.55273,6,31,6z M22,2c1.14062,0,2,0.85986,2,2s-0.85938,2-2,2h-4.57324C18.10254,4.44385,19.55273,2,22,2z M8,4
	c0-1.14014,0.85938-2,2-2c2.44727,0,3.89746,2.44385,4.57324,4H10C8.85938,6,8,5.14014,8,4z M10.58594,13L5,18.58594V13H10.58594z
	 M18.58594,13L5,26.58594v-5.17188L13.41406,13H18.58594z M5,29.41406L21.41406,13h5.17188l-17,17H5V29.41406z M27,21.58594
	L18.58594,30h-6.17188L27,15.41406V21.58594z M21.41406,30L27,24.41406V30H21.41406z M30,11H2V8h8h6h6h8V11z"/>
</svg>
