<?xml version="1.0" encoding="utf-8"?>
<!-- Generator: Adobe Illustrator 19.1.0, SVG Export Plug-In . SVG Version: 6.00 Build 0)  -->
<!DOCTYPE svg PUBLIC "-//W3C//DTD SVG 1.1//EN" "http://www.w3.org/Graphics/SVG/1.1/DTD/svg11.dtd">
<svg version="1.1" id="Layer_1" xmlns="http://www.w3.org/2000/svg" xmlns:xlink="http://www.w3.org/1999/xlink" x="0px" y="0px"
	 width="32px" height="32px" viewBox="0 0 32 32" enable-background="new 0 0 32 32" xml:space="preserve">
<path d="M20,5H9V3.5C9,1.57031,7.42969,0,5.5,0S2,1.57031,2,3.5V6v9v13.5C2,30.42969,3.57031,32,5.5,32S9,30.42969,9,28.5V16h7
	c3.79541,0,8.51855,0,12.57471,1.90527C28.71045,17.96875,28.85547,18,29,18c0.21045,0,0.41943-0.06641,0.59473-0.19629
	c0.29541-0.21777,0.44727-0.58105,0.39502-0.94531C29.09717,10.60938,27.66162,5,20,5z M5.5,2C6.32715,2,7,2.67285,7,3.5V5H4V3.5
	C4,2.67285,4.67285,2,5.5,2z M7,28.5C7,29.32715,6.32715,30,5.5,30S4,29.32715,4,28.5V16h3V28.5z M16,14H4V7h16
	c5.08691,0,6.74072,2.71875,7.73682,8.40527C23.74121,14,19.49658,14,16,14z"/>
</svg>
