<?xml version="1.0" encoding="utf-8"?>
<!-- Generator: Adobe Illustrator 19.1.0, SVG Export Plug-In . SVG Version: 6.00 Build 0)  -->
<!DOCTYPE svg PUBLIC "-//W3C//DTD SVG 1.1//EN" "http://www.w3.org/Graphics/SVG/1.1/DTD/svg11.dtd">
<svg version="1.1" id="Layer_1" xmlns="http://www.w3.org/2000/svg" xmlns:xlink="http://www.w3.org/1999/xlink" x="0px" y="0px"
	 width="32px" height="32px" viewBox="0 0 32 32" enable-background="new 0 0 32 32" xml:space="preserve">
<path d="M28.22089,13.17535c-0.008-0.08118-0.00732-0.16248-0.03632-0.24274c-0.00739-0.02039-0.02393-0.03363-0.03247-0.05322
	C26.31244,5.2829,21.6347,0,16,0C8.58887,0,3,8.63672,3,20.09082C3,27.54492,9.60938,32,16,32
	c6.35803,0,12.927-4.41241,12.99384-11.79803c0.00012-0.00079,0.00006-0.00153,0.00012-0.00232
	C28.99426,20.1626,29,20.12805,29,20.09082C29,17.64514,28.71686,15.32568,28.22089,13.17535z M5.51245,14.53577
	C7.15826,14.95679,10.64105,15.63672,16,15.63672c5.36426,0,8.84564-0.68127,10.4873-1.10217
	c0.28711,1.51147,0.44891,3.11841,0.48981,4.78613C25.43158,19.68481,21.51776,20.4541,16,20.4541
	c-5.49988,0-9.42676-0.77039-10.97705-1.13464C5.06384,17.65259,5.22552,16.04651,5.51245,14.53577z M16,2
	c4.52832,0,8.328,4.2915,10.03271,10.58307C24.55688,12.96185,21.2038,13.63672,16,13.63672
	c-5.19733,0-8.55255-0.67316-10.03314-1.05231C7.67139,6.29211,11.47131,2,16,2z M16,30
	c-5.01746,0-10.18695-3.19501-10.90723-8.61115C7.0033,21.80536,10.81036,22.4541,16,22.4541s8.9967-0.64874,10.90723-1.06525
	C26.18695,26.80499,21.01746,30,16,30z"/>
</svg>
