<?xml version="1.0" encoding="utf-8"?>
<!-- Generator: Adobe Illustrator 19.1.0, SVG Export Plug-In . SVG Version: 6.00 Build 0)  -->
<!DOCTYPE svg PUBLIC "-//W3C//DTD SVG 1.1//EN" "http://www.w3.org/Graphics/SVG/1.1/DTD/svg11.dtd">
<svg version="1.1" id="Layer_1" xmlns="http://www.w3.org/2000/svg" xmlns:xlink="http://www.w3.org/1999/xlink" x="0px" y="0px"
	 width="32px" height="32px" viewBox="0 0 32 32" enable-background="new 0 0 32 32" xml:space="preserve">
<path d="M15.3623,15.46289c0.18555,0.15283,0.41113,0.22949,0.6377,0.22949s0.45215-0.07666,0.6377-0.22949
	C17.36621,14.86084,21,11.729,21,9.23096C21,7.41943,19.61426,6,17.8457,6C17.16699,6,16.52637,6.20508,16,6.57471
	C15.47363,6.20508,14.83301,6,14.1543,6C12.38574,6,11,7.41943,11,9.23096C11,11.729,14.63379,14.86084,15.3623,15.46289z
	 M14.1543,8c0.41699,0,0.79004,0.19824,0.99805,0.53027c0.36523,0.58398,1.33008,0.58398,1.69531,0
	C17.05566,8.19824,17.42871,8,17.8457,8C18.50391,8,19,8.5293,19,9.23096c0,1.00146-1.59277,2.84521-3,4.13428
	c-1.40723-1.28906-3-3.13281-3-4.13428C13,8.5293,13.49609,8,14.1543,8z"/>
<path d="M31.98114,13.75726c-0.01556-0.10687-0.04504-0.20911-0.09277-0.30408c-0.00452-0.00897-0.00366-0.01898-0.00848-0.02789
	c-0.00159-0.00293-0.00452-0.00446-0.0061-0.00732c-0.05634-0.10223-0.13336-0.19055-0.22272-0.26819
	c-0.02197-0.01898-0.04401-0.03503-0.06732-0.05194c-0.02795-0.02039-0.05145-0.04559-0.08179-0.06317L27,10.42365V1
	c0-0.55225-0.44727-1-1-1H6C5.44727,0,5,0.44775,5,1v9.42365l-4.50195,2.61102c-0.02356,0.01367-0.04138,0.03363-0.06348,0.04901
	c-0.02612,0.01807-0.04987,0.0368-0.07434,0.05743c-0.08997,0.07599-0.17017,0.16119-0.22784,0.2619
	c-0.00043,0.00067-0.0011,0.0011-0.00153,0.00177c-0.00171,0.00299-0.0014,0.00647-0.00311,0.00946
	c-0.05493,0.09888-0.08698,0.20819-0.10602,0.32141c-0.00507,0.03046-0.0097,0.05927-0.0119,0.08978
	C0.00793,13.85059,0,13.87439,0,13.8999V31c0,0.55225,0.44727,1,1,1h30c0.00061,0,0.00116-0.00037,0.00177-0.00037
	c0.1181-0.00031,0.23236-0.0285,0.34247-0.06909c0.02765-0.01019,0.05371-0.0202,0.08014-0.03271
	c0.10248-0.04822,0.19977-0.10797,0.2821-0.19019c0.00146-0.00146,0.0022-0.00336,0.00366-0.00482
	c0.0603-0.06091,0.1145-0.1297,0.159-0.2077c0.01001-0.01758,0.00934-0.03735,0.01819-0.05524
	c0.02936-0.0589,0.04425-0.12201,0.06165-0.18677c0.01758-0.06641,0.03619-0.13,0.03979-0.19727
	C31.98993,31.03632,32,31.01978,32,31V13.8999c0-0.02008-0.00659-0.03876-0.00775-0.05865
	C31.99054,13.81274,31.98529,13.78577,31.98114,13.75726z M17.64252,22.23529l8.74548-4.7135
	c0.00177-0.00079,0.0033-0.00195,0.00507-0.00275L30,15.57501v13.7041L17.64252,22.23529z M28.95129,13.86792L27,14.91962v-2.18335
	L28.95129,13.86792z M25,2v13.99756l-9.40656,5.06976L7,16.16907V2H25z M5,15.02905l-1.99384-1.13647L5,12.73627V15.02905z
	 M2,15.62079L27.22656,30H2V15.62079z"/>
</svg>
