<?xml version="1.0" encoding="utf-8"?>
<!-- Generator: Adobe Illustrator 19.1.0, SVG Export Plug-In . SVG Version: 6.00 Build 0)  -->
<!DOCTYPE svg PUBLIC "-//W3C//DTD SVG 1.1//EN" "http://www.w3.org/Graphics/SVG/1.1/DTD/svg11.dtd">
<svg version="1.1" id="Layer_1" xmlns="http://www.w3.org/2000/svg" xmlns:xlink="http://www.w3.org/1999/xlink" x="0px" y="0px"
	 width="32px" height="32px" viewBox="0 0 32 32" enable-background="new 0 0 32 32" xml:space="preserve">
<path d="M22,6H4C2.89746,6,2,5.10303,2,4s0.89746-2,2-2h3c0.55273,0,1-0.44775,1-1S7.55273,0,7,0H4C1.79395,0,0,1.79443,0,4
	s1.79395,4,4,4h4v1.14197C6.27948,9.58917,5,11.14166,5,13c0,2.06006,1.55762,6,4,6s4-3.93994,4-6
	c0-1.85834-1.27948-3.41083-3-3.85803V8h12c4.41113,0,8,3.58887,8,8s-3.58887,8-8,8h-1v-1.14197c1.72052-0.4472,3-1.99969,3-3.85803
	c0-2.06006-1.55762-6-4-6s-4,3.93994-4,6c0,1.85834,1.27948,3.41083,3,3.85803V24H4c-2.20605,0-4,1.79443-4,4s1.79395,4,4,4h3
	c0.55273,0,1-0.44775,1-1s-0.44727-1-1-1H4c-1.10254,0-2-0.89697-2-2s0.89746-2,2-2h18c5.51367,0,10-4.48584,10-10S27.51367,6,22,6z
	 M11,13c0,1.49512-1.25195,4-2,4s-2-2.50488-2-4c0-1.10303,0.89746-2,2-2S11,11.89697,11,13z M18,19c0-1.49512,1.25195-4,2-4
	s2,2.50488,2,4c0,1.10303-0.89746,2-2,2S18,20.10303,18,19z"/>
</svg>
