<?xml version="1.0" encoding="utf-8"?>
<!-- Generator: Adobe Illustrator 19.1.0, SVG Export Plug-In . SVG Version: 6.00 Build 0)  -->
<!DOCTYPE svg PUBLIC "-//W3C//DTD SVG 1.1//EN" "http://www.w3.org/Graphics/SVG/1.1/DTD/svg11.dtd">
<svg version="1.1" id="Layer_1" xmlns="http://www.w3.org/2000/svg" xmlns:xlink="http://www.w3.org/1999/xlink" x="0px" y="0px"
	 width="32px" height="32px" viewBox="0 0 32 32" enable-background="new 0 0 32 32" xml:space="preserve">
<path d="M2,31h28c0.55225,0,1-0.44775,1-1v-4V16c0-8.271-6.729-15-15-15S1,7.729,1,16v10v4C1,30.55225,1.44775,31,2,31z M29,29H3v-2
	h26V29z M16,3c7.16846,0,13,5.83154,13,13v9H17v-2h4c0.36377,0,0.69824-0.19727,0.87451-0.51514s0.16602-0.70654-0.02637-1.01465
	l-5-8c-0.36621-0.58496-1.33008-0.58496-1.69629,0l-5,8c-0.19238,0.30811-0.20264,0.69678-0.02637,1.01465S10.63623,23,11,23h4v2H3
	v-9C3,8.83154,8.83154,3,16,3z M12.8042,21L16,15.88672L19.1958,21H12.8042z"/>
<path d="M13,10c0.55225,0,1-0.44775,1-1V8c0-0.55225-0.44775-1-1-1s-1,0.44775-1,1v1C12,9.55225,12.44775,10,13,10z"/>
<path d="M8,16c0.55225,0,1-0.44775,1-1v-1c0-0.55225-0.44775-1-1-1s-1,0.44775-1,1v1C7,15.55225,7.44775,16,8,16z"/>
<path d="M21,12c0.55225,0,1-0.44775,1-1v-1c0-0.55225-0.44775-1-1-1s-1,0.44775-1,1v1C20,11.55225,20.44775,12,21,12z"/>
<path d="M25,19c0.55225,0,1-0.44775,1-1v-1c0-0.55225-0.44775-1-1-1s-1,0.44775-1,1v1C24,18.55225,24.44775,19,25,19z"/>
</svg>
