<?xml version="1.0" encoding="utf-8"?>
<!-- Generator: Adobe Illustrator 19.1.0, SVG Export Plug-In . SVG Version: 6.00 Build 0)  -->
<!DOCTYPE svg PUBLIC "-//W3C//DTD SVG 1.1//EN" "http://www.w3.org/Graphics/SVG/1.1/DTD/svg11.dtd">
<svg version="1.1" id="Layer_1" xmlns="http://www.w3.org/2000/svg" xmlns:xlink="http://www.w3.org/1999/xlink" x="0px" y="0px"
	 width="32px" height="32px" viewBox="0 0 32 32" enable-background="new 0 0 32 32" xml:space="preserve">
<path d="M23.90234,0c-2.16602,0-4.2002,0.84131-5.72803,2.36963c-0.63623,0.63574-0.98633,1.48145-0.98633,2.38086
	c0,0.89893,0.3501,1.74463,0.98633,2.38037c1.27148,1.27246,3.48975,1.271,4.76123,0.00049
	c0.5332-0.5332,1.40088-0.53271,1.93311-0.00049c0.5332,0.5332,0.5332,1.40039,0.00049,1.93359l-8.87567,8.87567L7.13135,9.06445
	c-0.5332-0.5332-0.5332-1.40039-0.00049-1.93311c0.5332-0.5332,1.40039-0.53271,1.93359-0.00049
	c1.31201,1.3125,3.44824,1.31152,4.76123,0c1.31299-1.3125,1.31299-3.44873,0-4.76123C12.29785,0.84131,10.26367,0,8.09766,0
	s-4.2002,0.84131-5.72803,2.36963C0.84131,3.89746,0,5.93164,0,8.09766s0.84131,4.2002,2.36914,5.72803l8.86713,8.87164
	l-3.42279,3.42279c-1.31299,1.3125-1.31299,3.44873,0,4.76123c0.65625,0.65625,1.51855,0.98438,2.38037,0.98438
	c0.8623,0,1.72461-0.32812,2.38086-0.98438l3.41656-3.41656l3.43402,3.41656c0.65625,0.65625,1.51855,0.98438,2.38086,0.98438
	c0.86182,0,1.72412-0.32812,2.38037-0.98438c1.31299-1.3125,1.31299-3.44873,0.00342-4.75781l-3.41229-3.44513l8.85272-8.85272
	C31.15869,12.29785,32,10.26367,32,8.09766s-0.84131-4.2002-2.36963-5.72803C28.10254,0.84131,26.06836,0,23.90234,0z
	 M3.78369,12.41162C2.6333,11.26123,2,9.72949,2,8.09766s0.6333-3.16357,1.78369-4.31396S6.46582,2,8.09766,2
	s3.16357,0.6333,4.31396,1.78369c0.53271,0.5332,0.53271,1.3999,0,1.93311c-0.5332,0.5332-1.3999,0.53271-1.93311-0.00049
	C9.16602,4.40479,7.02979,4.4043,5.71631,5.7168c-1.31201,1.31299-1.31201,3.44873,0,4.76123l8.8631,8.87616l-1.92859,1.92859
	L3.78369,12.41162z M22.77246,27.53418c0.53271,0.5332,0.53271,1.3999,0,1.93311c-0.53271,0.53223-1.40088,0.5332-1.93457-0.00195
	l-3.43213-3.41504l1.95776-1.95776L22.77246,27.53418z M28.21631,12.41162L11.16064,29.46729
	c-0.53271,0.5332-1.39941,0.5332-1.93311,0c-0.53271-0.5332-0.53271-1.3999,0-1.93311l4.12878-4.12866
	c0.00031-0.00031,0.00079-0.00043,0.0011-0.00073s0.00043-0.00079,0.00073-0.0011l12.92554-12.92517
	c1.31201-1.31299,1.31201-3.44873-0.00049-4.76221c-0.65625-0.65576-1.51855-0.98389-2.38086-0.98389
	s-1.72461,0.32812-2.38086,0.98438c-0.5332,0.5332-1.3999,0.5332-1.93311,0c-0.2583-0.2583-0.40039-0.60156-0.40039-0.96631
	c0-0.36523,0.14209-0.7085,0.40039-0.9668C20.73877,2.6333,22.27051,2,23.90234,2s3.16357,0.6333,4.31396,1.78369
	S30,6.46582,30,8.09766S29.3667,11.26123,28.21631,12.41162z"/>
</svg>
