<?xml version="1.0" encoding="utf-8"?>
<!-- Generator: Adobe Illustrator 19.1.0, SVG Export Plug-In . SVG Version: 6.00 Build 0)  -->
<!DOCTYPE svg PUBLIC "-//W3C//DTD SVG 1.1//EN" "http://www.w3.org/Graphics/SVG/1.1/DTD/svg11.dtd">
<svg version="1.1" id="Layer_1" xmlns="http://www.w3.org/2000/svg" xmlns:xlink="http://www.w3.org/1999/xlink" x="0px" y="0px"
	 width="32px" height="32px" viewBox="0 0 32 32" enable-background="new 0 0 32 32" xml:space="preserve">
<path d="M10.51416,31.98438c2.00732,0,4.01709-0.76611,5.55078-2.30029l0.30359-0.31531
	c0.00006-0.00006,0.00006-0.00006,0.00012-0.00012s0.00006-0.00012,0.00012-0.00018l8.35144-8.67511
	C24.8999,20.50732,25,20.25879,25,20V9h2c0.55225,0,1-0.44775,1-1V1c0-0.55225-0.44775-1-1-1H8C7.44775,0,7,0.44775,7,1v7
	c0,0.55225,0.44775,1,1,1h2v4.5874l-4.69061,4.71985c-0.00037,0.00037-0.00092,0.00049-0.00128,0.00085
	s-0.00049,0.00098-0.00085,0.00134l-0.32092,0.32288c-3.05078,3.05078-3.05078,8.01465,0,11.06543
	C6.50977,31.22168,8.51074,31.98438,10.51416,31.98438z M9,2h17v5H9V2z M11.70947,14.70508C11.89551,14.51758,12,14.26416,12,14V9
	h11v10.59668l-7.35187,7.63739l-8.22064-8.22064L11.70947,14.70508z M6.0556,20.46967l8.15918,8.15918
	c-2.28625,1.8913-5.67444,1.79388-7.81439-0.34515C4.26154,26.14484,4.16357,22.75714,6.0556,20.46967z"/>
</svg>
