<?xml version="1.0" encoding="utf-8"?>
<!-- Generator: Adobe Illustrator 19.1.0, SVG Export Plug-In . SVG Version: 6.00 Build 0)  -->
<!DOCTYPE svg PUBLIC "-//W3C//DTD SVG 1.1//EN" "http://www.w3.org/Graphics/SVG/1.1/DTD/svg11.dtd">
<svg version="1.1" id="Layer_1" xmlns="http://www.w3.org/2000/svg" xmlns:xlink="http://www.w3.org/1999/xlink" x="0px" y="0px"
	 width="32px" height="32px" viewBox="0 0 32 32" enable-background="new 0 0 32 32" xml:space="preserve">
<path d="M26.97656,2.78711c-0.07422-0.3418-0.32129-0.61914-0.65234-0.7334c-0.32715-0.1123-0.69531-0.04492-0.96484,0.17773
	l-3.61328,3.01172c-3.63672-1.65039-7.85547-1.65039-11.49219,0L6.64062,2.23145C6.37207,2.00879,6.00488,1.94141,5.67578,2.05371
	c-0.33105,0.11426-0.57812,0.3916-0.65234,0.7334L2.55176,14.10645C2.5293,14.20898,2,16.62793,2,18c0,7.71973,6.28027,14,14,14
	s14-6.28027,14-14c0-1.37109-0.52832-3.78906-0.55078-3.8916L26.97656,2.78711z M16,30C9.38281,30,4,24.61719,4,18
	c0-0.95801,0.36426-2.8252,0.50488-3.46582l2.12109-9.71094L9.4668,7.19141c0.30762,0.25488,0.73926,0.30371,1.09473,0.12207
	c3.41797-1.74219,7.45898-1.74219,10.87695,0c0.35547,0.18164,0.78711,0.13281,1.09473-0.12207l2.84082-2.36816l2.12207,9.71289
	c0,0.00098,0,0.00098,0,0.00195C27.63574,15.17578,28,17.04199,28,18C28,24.61719,22.61719,30,16,30z"/>
<path d="M15,16c0-1.6543-1.3457-3-3-3s-3,1.3457-3,3s1.3457,3,3,3S15,17.6543,15,16z M11,16c0-0.55176,0.44824-1,1-1s1,0.44824,1,1
	s-0.44824,1-1,1S11,16.55176,11,16z"/>
<path d="M20,13c-1.6543,0-3,1.3457-3,3s1.3457,3,3,3s3-1.3457,3-3S21.6543,13,20,13z M20,17c-0.55176,0-1-0.44824-1-1s0.44824-1,1-1
	s1,0.44824,1,1S20.55176,17,20,17z"/>
<path d="M20.33203,25.49121C19.96582,25.81934,19.49316,26,19,26c-0.729,0-1.38672-0.40778-1.73572-1.01898l1.93591-2.58063
	c0.34277-0.45703,0.39746-1.05957,0.1416-1.57031C19.08594,20.31836,18.57227,20,18,20h-4
	c-0.57227,0-1.08594,0.31836-1.3418,0.83008c-0.25586,0.51074-0.20117,1.11328,0.1416,1.56934l1.93567,2.58215
	C14.38635,25.59241,13.72882,26,13,26c-0.49316,0-0.96582-0.18066-1.33203-0.50879
	c-0.41113-0.36816-1.04199-0.33398-1.41211,0.07617c-0.36914,0.41113-0.33496,1.04395,0.07617,1.41211
	C11.06543,27.6377,12.01367,28,13,28c1.18768,0,2.26282-0.51105,3-1.34766C16.73718,27.48895,17.81232,28,19,28
	c0.98633,0,1.93457-0.3623,2.66797-1.02051c0.41113-0.36816,0.44531-1.00098,0.07617-1.41211
	C21.37402,25.15625,20.74316,25.12207,20.33203,25.49121z M17,22l-1,1.33398L15,22H17z"/>
</svg>
