<?xml version="1.0" encoding="utf-8"?>
<!-- Generator: Adobe Illustrator 19.1.0, SVG Export Plug-In . SVG Version: 6.00 Build 0)  -->
<!DOCTYPE svg PUBLIC "-//W3C//DTD SVG 1.1//EN" "http://www.w3.org/Graphics/SVG/1.1/DTD/svg11.dtd">
<svg version="1.1" id="Layer_1" xmlns="http://www.w3.org/2000/svg" xmlns:xlink="http://www.w3.org/1999/xlink" x="0px" y="0px"
	 width="32px" height="32px" viewBox="0 0 32 32" enable-background="new 0 0 32 32" xml:space="preserve">
<path d="M26.48145,5.13379c-0.30078-0.17383-0.67188-0.17773-0.97852-0.01172C25.19727,5.29004,25,5.60449,24.9834,5.95215
	C24.86584,8.41791,23.25018,10.5119,21,11.31067V8c0-0.36914-0.20312-0.70801-0.52832-0.88184
	c-0.32422-0.17383-0.7207-0.1543-1.02637,0.0498L16.69727,9h-1.39453l-2.74805-1.83203
	c-0.30664-0.2041-0.70117-0.22363-1.02637-0.0498S11,7.63086,11,8v3.31067C8.74982,10.5119,7.13416,8.41791,7.0166,5.95215
	C7,5.60449,6.80273,5.29004,6.49707,5.12207C6.19141,4.95605,5.82031,4.95996,5.51855,5.13379
	C2.11426,7.09668,0,10.74707,0,14.66211c0,1.85449,0.47363,3.69238,1.37109,5.31445
	c0.13477,0.24512,0.36621,0.42188,0.63672,0.48828c0.27441,0.06445,0.55762,0.0166,0.79102-0.1377
	C3.45508,19.8916,4.21582,19.66211,5,19.66211c1.97461,0,3.62988,1.42383,3.93457,3.38477
	c0.04492,0.28613,0.20996,0.53809,0.4541,0.69238c0.24512,0.1543,0.54492,0.19629,0.82031,0.1123
	c1.83203-0.54883,3.87695,0.16895,4.97266,1.72949c0.1875,0.2666,0.49316,0.4248,0.81836,0.4248s0.63086-0.1582,0.81836-0.4248
	c1.0957-1.56055,3.14062-2.27832,4.97266-1.72949c0.27637,0.08301,0.5752,0.04102,0.82031-0.1123
	c0.24414-0.1543,0.40918-0.40625,0.4541-0.69238c0.30469-1.96094,1.95996-3.38477,3.93457-3.38477
	c0.78418,0,1.54492,0.22949,2.20117,0.66504c0.23438,0.1543,0.51758,0.20215,0.79102,0.1377
	c0.27051-0.06641,0.50195-0.24316,0.63672-0.48828C31.52637,18.35449,32,16.5166,32,14.66211
	C32,10.74707,29.88574,7.09668,26.48145,5.13379z M13,9.86816l1.44531,0.96387C14.60938,10.94141,14.80273,11,15,11h2
	c0.19727,0,0.39062-0.05859,0.55469-0.16797L19,9.86816V13c0,1.6543-1.3457,3-3,3s-3-1.3457-3-3V9.86816z M29.30566,18.125
	C28.5791,17.82031,27.79785,17.66211,27,17.66211c-2.61133,0-4.84961,1.65332-5.66113,4.05469
	C19.38379,21.46289,17.39941,22.13281,16,23.47754c-1.39941-1.34473-3.38477-2.01562-5.33887-1.76074
	C9.84961,19.31543,7.61133,17.66211,5,17.66211c-0.79785,0-1.5791,0.1582-2.30566,0.46289C2.23828,17.03125,2,15.85059,2,14.66211
	c0-2.69629,1.22754-5.24023,3.2793-6.93652c0.73981,2.77557,2.94226,4.96136,5.76123,5.67542C11.24878,15.96783,13.38049,18,16,18
	s4.75122-2.03217,4.95947-4.599c2.81897-0.71405,5.02142-2.89984,5.76123-5.67542C28.77246,9.42188,30,11.96582,30,14.66211
	C30,15.85059,29.76172,17.03125,29.30566,18.125z"/>
</svg>
