<?xml version="1.0" encoding="utf-8"?>
<!-- Generator: Adobe Illustrator 19.1.0, SVG Export Plug-In . SVG Version: 6.00 Build 0)  -->
<!DOCTYPE svg PUBLIC "-//W3C//DTD SVG 1.1//EN" "http://www.w3.org/Graphics/SVG/1.1/DTD/svg11.dtd">
<svg version="1.1" id="Layer_1" xmlns="http://www.w3.org/2000/svg" xmlns:xlink="http://www.w3.org/1999/xlink" x="0px" y="0px"
	 width="32px" height="32px" viewBox="0 0 32 32" enable-background="new 0 0 32 32" xml:space="preserve">
<path d="M30.625,0.58398c-0.86133-0.55518-1.93262-0.63281-2.86523-0.20947l-9.23004,4.19244C17.75977,4.20697,16.9046,4,16,4
	s-1.75977,0.20697-2.52966,0.56696L4.24121,0.37451C3.30664-0.04883,2.23633,0.02881,1.375,0.58398
	C0.51465,1.13867,0,2.08154,0,3.10596v12.87891c0,1.02441,0.51465,1.96729,1.375,2.52197
	c0.49414,0.31836,1.05664,0.47949,1.62305,0.47949c0.4209,0,0.84473-0.08936,1.24316-0.27051l1.35657-0.61639l-4.44641,7.14569
	c-0.18359,0.29443-0.20117,0.6626-0.04688,0.97266c0.15332,0.31055,0.45801,0.51904,0.80273,0.55127L5.8623,27.1377l2.07715,3.38525
	C8.12109,30.81885,8.44238,30.99902,8.79004,31c0,0,0.00098,0,0.00195,0c0.3457,0,0.66797-0.17871,0.84961-0.47314l6.34265-10.23065
	l6.37512,10.2326C22.54199,30.82178,22.8623,31,23.20801,31c0.00098,0,0.00195,0,0.00293,0
	c0.34668-0.00098,0.66797-0.18164,0.84961-0.47705l2.07715-3.38525l3.95508-0.36865
	c0.34473-0.03223,0.64941-0.24072,0.80273-0.55127c0.1543-0.31006,0.13672-0.67822-0.04688-0.97266l-4.44604-7.14514l1.3562,0.61633
	c0.39844,0.18066,0.82227,0.27002,1.24316,0.27002c0.56641,0,1.12891-0.16113,1.62305-0.47949
	C31.48535,17.95215,32,17.00928,32,15.98486V3.10596C32,2.08154,31.48535,1.13867,30.625,0.58398z M20,10c0,2.20557-1.79395,4-4,4
	s-4-1.79443-4-4s1.79395-4,4-4S20,7.79443,20,10z M3.41309,16.89502c-0.31445,0.14404-0.66211,0.11865-0.95508-0.06934
	C2.16699,16.6377,2,16.33154,2,15.98486V3.10596c0-0.34668,0.16699-0.65283,0.45801-0.84082
	C2.75,2.07861,3.0957,2.05176,3.41406,2.1958l8.1991,3.72418C10.6156,6.99176,10,8.42365,10,10
	c0,1.26855,0.39819,2.4444,1.07257,3.41461L3.41309,16.89502z M8.7959,28.09521l-1.49023-2.42969
	c-0.16504-0.26855-0.44629-0.44336-0.75977-0.47266l-2.8418-0.26514l5.1767-8.32007l3.70203-1.68219
	C13.55347,15.60101,14.73029,16,16,16c0.10284,0,0.20312-0.01031,0.30469-0.01544L8.7959,28.09521z M28.2959,24.92773
	l-2.8418,0.26514c-0.31348,0.0293-0.59473,0.2041-0.75977,0.47266l-1.49316,2.43311l-6.04175-9.69806l2.08289-3.35968
	c0.05878-0.0379,0.11749-0.0755,0.17487-0.11542l3.70227,1.6825L28.2959,24.92773z M30,15.98486
	c0,0.34668-0.16699,0.65283-0.45801,0.84082c-0.29199,0.18799-0.63965,0.21338-0.95508,0.06934l-7.65948-3.48041
	C21.60181,12.4444,22,11.26855,22,10c0-1.57629-0.61566-3.00812-1.61316-4.07996l8.20007-3.72424
	c0.31543-0.14307,0.66309-0.11768,0.95508,0.06934C29.83301,2.45312,30,2.75928,30,3.10596V15.98486z"/>
</svg>
