<?xml version="1.0" encoding="utf-8"?>
<!-- Generator: Adobe Illustrator 19.1.0, SVG Export Plug-In . SVG Version: 6.00 Build 0)  -->
<!DOCTYPE svg PUBLIC "-//W3C//DTD SVG 1.1//EN" "http://www.w3.org/Graphics/SVG/1.1/DTD/svg11.dtd">
<svg version="1.1" id="Layer_1" xmlns="http://www.w3.org/2000/svg" xmlns:xlink="http://www.w3.org/1999/xlink" x="0px" y="0px"
	 width="32px" height="32px" viewBox="0 0 32 32" enable-background="new 0 0 32 32" xml:space="preserve">
<path d="M4,26h11v4h-5c-0.55225,0-1,0.44775-1,1s0.44775,1,1,1h12c0.55225,0,1-0.44775,1-1s-0.44775-1-1-1h-5v-4h11
	c0.38184,0,0.73047-0.21777,0.89844-0.56055c0.16748-0.34326,0.12549-0.75195-0.10889-1.05322L23.04443,17H26
	c0.37451,0,0.71777-0.20947,0.88916-0.54248s0.14209-0.73389-0.0752-1.03857l-10-14c-0.37598-0.52637-1.25195-0.52637-1.62793,0
	l-10,14c-0.21729,0.30469-0.24658,0.70557-0.0752,1.03857S5.62549,17,6,17h2.95557l-5.74512,7.38623
	c-0.23438,0.30127-0.27637,0.70996-0.10889,1.05322C3.26953,25.78223,3.61816,26,4,26z M11.78955,16.61377
	c0.23438-0.30127,0.27637-0.70996,0.10889-1.05322C11.73047,15.21777,11.38184,15,11,15H7.94336L16,3.7207L24.05664,15H21
	c-0.38184,0-0.73047,0.21777-0.89844,0.56055c-0.16748,0.34326-0.12549,0.75195,0.10889,1.05322L25.95557,24H6.04443
	L11.78955,16.61377z"/>
</svg>
