<?xml version="1.0" encoding="utf-8"?>
<!-- Generator: Adobe Illustrator 19.1.0, SVG Export Plug-In . SVG Version: 6.00 Build 0)  -->
<!DOCTYPE svg PUBLIC "-//W3C//DTD SVG 1.1//EN" "http://www.w3.org/Graphics/SVG/1.1/DTD/svg11.dtd">
<svg version="1.1" id="Layer_1" xmlns="http://www.w3.org/2000/svg" xmlns:xlink="http://www.w3.org/1999/xlink" x="0px" y="0px"
	 width="32px" height="32px" viewBox="0 0 32 32" enable-background="new 0 0 32 32" xml:space="preserve">
<path d="M16,0c-0.55225,0-1,0.44775-1,1v11h-2c-0.55225,0-1,0.44775-1,1v4.08246C9.61292,18.46832,8,21.04669,8,24
	c0,4.41113,3.58887,8,8,8s8-3.58887,8-8c0-2.95331-1.61292-5.53168-4-6.91754V13c0-0.55225-0.44775-1-1-1h-2V1
	C17,0.44775,16.55225,0,16,0z M22,24c0,3.30859-2.69141,6-6,6s-6-2.69141-6-6s2.69141-6,6-6S22,20.69141,22,24z M18,16.26331
	C17.35944,16.09747,16.69165,16,16,16s-1.35944,0.09747-2,0.26331V14h4V16.26331z"/>
<path d="M4.29297,16.70703C4.48828,16.90234,4.74414,17,5,17s0.51172-0.09766,0.70703-0.29297l3-3
	c0.39062-0.39062,0.39062-1.02344,0-1.41406L6,9.58594V1c0-0.55225-0.44775-1-1-1S4,0.44775,4,1v8.58594l-2.70703,2.70703
	c-0.39062,0.39062-0.39062,1.02344,0,1.41406L4.29297,16.70703z M5,11.41406L6.58594,13L5,14.58594L3.41406,13L5,11.41406z"/>
<path d="M28,1c0-0.55225-0.44775-1-1-1s-1,0.44775-1,1v8.58594l-2.70703,2.70703c-0.39062,0.39062-0.39062,1.02344,0,1.41406l3,3
	C26.48828,16.90234,26.74414,17,27,17s0.51172-0.09766,0.70703-0.29297l3-3c0.39062-0.39062,0.39062-1.02344,0-1.41406L28,9.58594V1
	z M27,14.58594L25.41406,13L27,11.41406L28.58594,13L27,14.58594z"/>
</svg>
