<?xml version="1.0" encoding="utf-8"?>
<!-- Generator: Adobe Illustrator 19.1.0, SVG Export Plug-In . SVG Version: 6.00 Build 0)  -->
<!DOCTYPE svg PUBLIC "-//W3C//DTD SVG 1.1//EN" "http://www.w3.org/Graphics/SVG/1.1/DTD/svg11.dtd">
<svg version="1.1" id="Layer_1" xmlns="http://www.w3.org/2000/svg" xmlns:xlink="http://www.w3.org/1999/xlink" x="0px" y="0px"
	 width="32px" height="32px" viewBox="0 0 32 32" enable-background="new 0 0 32 32" xml:space="preserve">
<path d="M31,30h-4.10059C26.57233,28.39453,25.46503,27.08105,24,26.43597v-3.29535c1.91211-1.875,3-4.45215,3-7.14062v-4v-2V9
	c0-1.6543-1.3457-3-3-3c-0.35236,0-0.68567,0.0722-1,0.18427V4c0-1.6543-1.3457-3-3-3c-0.53699,0-1.0343,0.1532-1.47083,0.40137
	C17.99683,0.56207,17.06543,0,16,0s-1.99683,0.56207-2.52917,1.40137C13.0343,1.1532,12.53699,1,12,1c-1.6543,0-3,1.3457-3,3
	v5.42383C8.38641,9.15448,7.71179,9,7,9c-0.55225,0-1,0.44727-1,1v6c0,3.16211,1.48535,6.11328,3.99902,8l0.00085,6H1
	c-0.55225,0-1,0.44727-1,1s0.44775,1,1,1h14c0.55225,0,1-0.44727,1-1c0-0.55176,0.44873-1,1-1
	c0.2959,0,0.51465,0.13477,0.64648,0.24902c0.24463,0.20996,0.57471,0.29004,0.88672,0.21484
	c0.3125-0.0752,0.57031-0.29688,0.69189-0.59473C19.68896,28.7334,20.77783,28,22,28c1.6543,0,3,1.3457,3,3c0,0.55273,0.44775,1,1,1
	h5c0.55225,0,1-0.44727,1-1S31.55225,30,31,30z M24,8c0.55127,0,1,0.44824,1,1v1v2c0,0.55176-0.44873,1-1,1s-1-0.44824-1-1V9
	C23,8.44824,23.44873,8,24,8z M17.8999,28.1416C17.60986,28.04883,17.30664,28,17,28c-1.30371,0-2.41602,0.83594-2.82861,2h-2.17151
	l-0.00085-6.5166c0-0.33398-0.1665-0.64551-0.44385-0.83105C9.3291,21.16211,8,18.67578,8,16v-4.8291
	c1.16406,0.41309,2,1.52539,2,2.8291v1c0,0.55273,0.44775,1,1,1c1.6543,0,3,1.3457,3,3c0,0.55273,0.44775,1,1,1s1-0.44727,1-1
	c0-2.41504-1.7207-4.43457-4-4.89941V14c0-1.11554-0.38-2.13635-1-2.96906V4c0-0.55176,0.44873-1,1-1s1,0.44824,1,1v7
	c0,0.55273,0.44775,1,1,1s1-0.44727,1-1V4V3c0-0.55176,0.44873-1,1-1s1,0.44824,1,1v8c0,0.55273,0.44775,1,1,1s1-0.44727,1-1V4
	c0-0.55176,0.44873-1,1-1s1,0.44824,1,1v5v3c0,1.6543,1.3457,3,3,3c0.35236,0,0.68567-0.0722,1-0.18427V16
	c0,2.27344-0.97217,4.44629-2.66699,5.96289C22.12109,22.15234,22,22.42383,22,22.70801V26
	C20.33643,26,18.8208,26.81445,17.8999,28.1416z"/>
</svg>
