<?xml version="1.0" encoding="utf-8"?>
<!-- Generator: Adobe Illustrator 19.1.0, SVG Export Plug-In . SVG Version: 6.00 Build 0)  -->
<!DOCTYPE svg PUBLIC "-//W3C//DTD SVG 1.1//EN" "http://www.w3.org/Graphics/SVG/1.1/DTD/svg11.dtd">
<svg version="1.1" id="Layer_1" xmlns="http://www.w3.org/2000/svg" xmlns:xlink="http://www.w3.org/1999/xlink" x="0px" y="0px"
	 width="16px" height="16px" viewBox="0 0 16 16" enable-background="new 0 0 16 16" xml:space="preserve">
<path fill="#444444" d="M8,0C3.6,0,0,3.6,0,8s3.6,8,8,8s8-3.6,8-8S12.4,0,8,0z M9,13.9V12H7v1.9C4.5,13.5,2.5,11.5,2.1,9H4V7H2.1
	C2.5,4.5,4.5,2.5,7,2.1V4h2V2.1c2.5,0.4,4.5,2.4,4.9,4.9H12v2h1.9C13.5,11.5,11.5,13.5,9,13.9z"/>
<circle data-color="color-2" fill="#444444" cx="8" cy="8" r="2"/>
</svg>
