<?xml version="1.0" encoding="utf-8"?>
<!-- Generator: Adobe Illustrator 19.1.0, SVG Export Plug-In . SVG Version: 6.00 Build 0)  -->
<!DOCTYPE svg PUBLIC "-//W3C//DTD SVG 1.1//EN" "http://www.w3.org/Graphics/SVG/1.1/DTD/svg11.dtd">
<svg version="1.1" id="Layer_1" xmlns="http://www.w3.org/2000/svg" xmlns:xlink="http://www.w3.org/1999/xlink" x="0px" y="0px"
	 width="16px" height="16px" viewBox="0 0 16 16" enable-background="new 0 0 16 16" xml:space="preserve">
<path fill="#444444" d="M8,0C4.1,0,1,3.1,1,7c0,1.9,0.7,3.7,2.1,5c0.1,0.1,4.1,3.7,4.2,3.8c0.4,0.3,1,0.3,1.3,0
	c0.1-0.1,4.2-3.7,4.2-3.8c1.4-1.3,2.1-3.1,2.1-5C15,3.1,11.9,0,8,0z M11,8H9v2H7V8H5V6h2V4h2v2h2V8z"/>
</svg>
