<?xml version="1.0" encoding="utf-8"?>
<!-- Generator: Adobe Illustrator 19.1.0, SVG Export Plug-In . SVG Version: 6.00 Build 0)  -->
<!DOCTYPE svg PUBLIC "-//W3C//DTD SVG 1.1//EN" "http://www.w3.org/Graphics/SVG/1.1/DTD/svg11.dtd">
<svg version="1.1" id="Layer_1" xmlns="http://www.w3.org/2000/svg" xmlns:xlink="http://www.w3.org/1999/xlink" x="0px" y="0px"
	 width="16px" height="16px" viewBox="0 0 16 16" enable-background="new 0 0 16 16" xml:space="preserve">
<path data-color="color-2" fill="#444444" d="M6.9,1.1C6.2,0.4,5.2,0,4.1,0C1.8,0,0,1.8,0,4.1c0,1.1,0.4,2.2,1,3.1C1.4,4.1,3.8,1.6,6.9,1.1
	z"/>
<path data-color="color-2" fill="#444444" d="M9.1,1.1C9.8,0.4,10.8,0,11.9,0C14.2,0,16,1.8,16,4.1c0,1.1-0.4,2.2-1,3.1
	C14.6,4.1,12.2,1.6,9.1,1.1z"/>
<path fill="#444444" d="M8,3C5.2,3,3,5.2,3,8c0,4,5,8,5,8s5-4,5-8C13,5.2,10.8,3,8,3z M8,10c-1.1,0-2-0.9-2-2c0-1.1,0.9-2,2-2
	s2,0.9,2,2C10,9.1,9.1,10,8,10z"/>
</svg>
