<?xml version="1.0" encoding="utf-8"?>
<!-- Generator: Adobe Illustrator 18.1.1, SVG Export Plug-In . SVG Version: 6.00 Build 0)  -->
<!DOCTYPE svg PUBLIC "-//W3C//DTD SVG 1.1//EN" "http://www.w3.org/Graphics/SVG/1.1/DTD/svg11.dtd">
<svg version="1.1" id="Layer_1" xmlns="http://www.w3.org/2000/svg" xmlns:xlink="http://www.w3.org/1999/xlink" x="0px" y="0px"
	 width="32px" height="32px" viewBox="0 0 32 32" enable-background="new 0 0 32 32" xml:space="preserve">
<path d="M26.8,0.4C26.8,0.3,26.7,0.3,26.8,0.4c-0.1-0.1-0.2-0.2-0.2-0.2c0,0-0.1,0-0.1,0c-0.1,0-0.1,0-0.2-0.1c-0.1,0-0.2,0-0.2-0.1
	c0,0-0.1,0-0.1,0H6c0,0-0.1,0-0.1,0C5.8,0,5.8,0,5.7,0.1c-0.1,0-0.1,0-0.2,0.1c0,0-0.1,0-0.1,0c0,0-0.1,0.1-0.1,0.1
	c0,0-0.1,0-0.1,0.1l-4,5c-0.3,0.4-0.3,0.8,0,1.2L8,16c-1.3,1.7-2,3.8-2,6c0,5.5,4.5,10,10,10s10-4.5,10-10c0-2.3-0.8-4.3-2-6
	l6.8-9.4c0.3-0.4,0.3-0.9,0-1.2L26.8,0.4z M20.6,7l-3.5,5.1C16.8,12,16.4,12,16,12c-0.4,0-0.8,0-1.1,0.1L11.4,7H20.6z M3.3,6
	l2.7-3.4l6.8,9.9c-1.3,0.4-2.4,1.1-3.4,2L3.3,6z M21.7,21.4l-2.1,2.1l0.5,2.9c0.1,0.4-0.1,0.8-0.4,1c-0.2,0.1-0.4,0.2-0.6,0.2
	c-0.2,0-0.3,0-0.5-0.1L16,26l-2.6,1.4c-0.3,0.2-0.7,0.1-1.1-0.1c-0.3-0.2-0.5-0.6-0.4-1l0.5-2.9l-2.1-2.1c-0.3-0.3-0.4-0.7-0.2-1
	c0.1-0.4,0.4-0.6,0.8-0.7l2.9-0.4l1.3-2.6c0.2-0.3,0.5-0.6,0.9-0.6c0.4,0,0.7,0.2,0.9,0.6l1.3,2.7l2.9,0.4c0.4,0.1,0.7,0.3,0.8,0.7
	C22.1,20.7,22,21.1,21.7,21.4z M22.6,14.5c-1-0.9-2.1-1.5-3.4-1.9l6.8-9.9L28.7,6L22.6,14.5z"/>
</svg>
