<?xml version="1.0" encoding="utf-8"?>
<!-- Generator: Adobe Illustrator 18.1.1, SVG Export Plug-In . SVG Version: 6.00 Build 0)  -->
<!DOCTYPE svg PUBLIC "-//W3C//DTD SVG 1.1//EN" "http://www.w3.org/Graphics/SVG/1.1/DTD/svg11.dtd">
<svg version="1.1" id="Layer_1" xmlns="http://www.w3.org/2000/svg" xmlns:xlink="http://www.w3.org/1999/xlink" x="0px" y="0px"
	 width="32px" height="32px" viewBox="0 0 32 32" enable-background="new 0 0 32 32" xml:space="preserve">
<path d="M22,22c-4.4,0-8-3.6-8-8s3.6-8,8-8c1.5,0,2.8,0.4,4,1.1V1c0-0.6-0.4-1-1-1H1C0.4,0,0,0.4,0,1v30c0,0.6,0.4,1,1,1h24
	c0.6,0,1-0.4,1-1v-8.8l-0.9-0.9C24.1,21.8,23.1,22,22,22z M6,8h6c0.6,0,1,0.4,1,1s-0.4,1-1,1H6c-0.6,0-1-0.4-1-1S5.4,8,6,8z M6,15h6
	c0.6,0,1,0.4,1,1s-0.4,1-1,1H6c-0.6,0-1-0.4-1-1S5.4,15,6,15z M16,24H6c-0.6,0-1-0.4-1-1s0.4-1,1-1h10c0.6,0,1,0.4,1,1
	S16.6,24,16,24z"/>
<path d="M26.9,17.5c0.7-1,1.1-2.2,1.1-3.5c0-3.3-2.7-6-6-6s-6,2.7-6,6s2.7,6,6,6c1.3,0,2.5-0.4,3.5-1.1l4.8,4.8
	c0.2,0.2,0.5,0.3,0.7,0.3s0.5-0.1,0.7-0.3c0.4-0.4,0.4-1,0-1.4L26.9,17.5z"/>
</svg>
