<?xml version="1.0" encoding="utf-8"?>
<!-- Generator: Adobe Illustrator 18.1.1, SVG Export Plug-In . SVG Version: 6.00 Build 0)  -->
<!DOCTYPE svg PUBLIC "-//W3C//DTD SVG 1.1//EN" "http://www.w3.org/Graphics/SVG/1.1/DTD/svg11.dtd">
<svg version="1.1" id="Layer_1" xmlns="http://www.w3.org/2000/svg" xmlns:xlink="http://www.w3.org/1999/xlink" x="0px" y="0px"
	 width="32px" height="32px" viewBox="0 0 32 32" enable-background="new 0 0 32 32" xml:space="preserve">
<path d="M20,12h-8c-0.6,0-1,0.4-1,1s0.4,1,1,1h8c0.6,0,1-0.4,1-1S20.6,12,20,12z"/>
<path d="M21,17c0-0.6-0.4-1-1-1h-8c-0.6,0-1,0.4-1,1s0.4,1,1,1h8C20.6,18,21,17.6,21,17z"/>
<path d="M12,20c-0.6,0-1,0.4-1,1s0.4,1,1,1h5c0.6,0,1-0.4,1-1s-0.4-1-1-1H12z"/>
<path d="M4,32h24c0.6,0,1-0.4,1-1V1c0-0.6-0.4-1-1-1h-4v4c0.6,0,1,0.4,1,1v22c0,0.6-0.4,1-1,1H8c-0.6,0-1-0.4-1-1V5c0-0.6,0.4-1,1-1
	V0H4C3.4,0,3,0.4,3,1v30C3,31.6,3.4,32,4,32z"/>
<path d="M11,7h2.1c0.4,0,0.8-0.2,1-0.6C14.4,5.6,15.1,5,16,5c0.9,0,1.6,0.6,1.9,1.4C18,6.8,18.4,7,18.9,7H21c0.6,0,1-0.4,1-1V1
	c0-0.6-0.4-1-1-1H11c-0.6,0-1,0.4-1,1v5C10,6.6,10.4,7,11,7z"/>
</svg>
