<?xml version="1.0" encoding="utf-8"?>
<!-- Generator: Adobe Illustrator 18.1.1, SVG Export Plug-In . SVG Version: 6.00 Build 0)  -->
<!DOCTYPE svg PUBLIC "-//W3C//DTD SVG 1.1//EN" "http://www.w3.org/Graphics/SVG/1.1/DTD/svg11.dtd">
<svg version="1.1" id="Layer_1" xmlns="http://www.w3.org/2000/svg" xmlns:xlink="http://www.w3.org/1999/xlink" x="0px" y="0px"
	 width="32px" height="32px" viewBox="0 0 32 32" enable-background="new 0 0 32 32" xml:space="preserve">
<path d="M9,6h2v2h10V6h2c0.6,0,1-0.4,1-1V1c0-0.6-0.4-1-1-1H9C8.4,0,8,0.4,8,1v4C8,5.6,8.4,6,9,6z"/>
<path d="M13,26h-2v1c0,2.8,2.2,5,5,5s5-2.2,5-5V10H11v4h2c0.6,0,1,0.4,1,1s-0.4,1-1,1h-2v3h2c0.6,0,1,0.4,1,1s-0.4,1-1,1h-2v3h2
	c0.6,0,1,0.4,1,1S13.6,26,13,26z"/>
</svg>
