<?xml version="1.0" encoding="utf-8"?>
<!-- Generator: Adobe Illustrator 18.1.1, SVG Export Plug-In . SVG Version: 6.00 Build 0)  -->
<!DOCTYPE svg PUBLIC "-//W3C//DTD SVG 1.1//EN" "http://www.w3.org/Graphics/SVG/1.1/DTD/svg11.dtd">
<svg version="1.1" id="Layer_1" xmlns="http://www.w3.org/2000/svg" xmlns:xlink="http://www.w3.org/1999/xlink" x="0px" y="0px"
	 width="32px" height="32px" viewBox="0 0 32 32" enable-background="new 0 0 32 32" xml:space="preserve">
<path d="M30,19h-6v-5c0-0.3-0.2-0.6-0.4-0.8L17,8.5V6h4c0.6,0,1-0.4,1-1V1c0-0.6-0.4-1-1-1h-5c-0.6,0-1,0.4-1,1v7.5l-6.6,4.7
	C8.2,13.4,8,13.7,8,14v5H2c-0.6,0-1,0.4-1,1v11c0,0.6,0.4,1,1,1h11v-7c0-0.6,0.4-1,1-1h4c0.6,0,1,0.4,1,1v7h11c0.6,0,1-0.4,1-1V20
	C31,19.4,30.6,19,30,19z M17,2h3v2h-3V2z M9,26c0,0.6-0.4,1-1,1H6c-0.6,0-1-0.4-1-1v-1c0-0.6,0.4-1,1-1h2c0.6,0,1,0.4,1,1V26z
	 M18,18c0,0.6-0.4,1-1,1h-2c-0.6,0-1-0.4-1-1v-1c0-0.6,0.4-1,1-1h2c0.6,0,1,0.4,1,1V18z M27,26c0,0.6-0.4,1-1,1h-2c-0.6,0-1-0.4-1-1
	v-1c0-0.6,0.4-1,1-1h2c0.6,0,1,0.4,1,1V26z"/>
</svg>
