<?xml version="1.0" encoding="utf-8"?>
<!-- Generator: Adobe Illustrator 18.1.1, SVG Export Plug-In . SVG Version: 6.00 Build 0)  -->
<!DOCTYPE svg PUBLIC "-//W3C//DTD SVG 1.1//EN" "http://www.w3.org/Graphics/SVG/1.1/DTD/svg11.dtd">
<svg version="1.1" id="Layer_1" xmlns="http://www.w3.org/2000/svg" xmlns:xlink="http://www.w3.org/1999/xlink" x="0px" y="0px"
	 width="32px" height="32px" viewBox="0 0 32 32" enable-background="new 0 0 32 32" xml:space="preserve">
<path d="M29,5h-7V1c0-0.6-0.4-1-1-1H11c-0.6,0-1,0.4-1,1v4H3C2.4,5,2,5.4,2,6v14c0,1.7,1.3,3,3,3h4v-4H8c-0.6,0-1-0.4-1-1s0.4-1,1-1
	h4c0.6,0,1,0.4,1,1s-0.4,1-1,1h-1v4h10v-4h-1c-0.6,0-1-0.4-1-1s0.4-1,1-1h4c0.6,0,1,0.4,1,1s-0.4,1-1,1h-1v4h4c1.7,0,3-1.3,3-3V6
	C30,5.4,29.6,5,29,5z M12,2h8v3h-8V2z M21,13c0,0.6-0.4,1-1,1h-8c-0.6,0-1-0.4-1-1v-3c0-0.6,0.4-1,1-1h8c0.6,0,1,0.4,1,1V13z"/>
<path d="M23,27c0,0.6-0.4,1-1,1s-1-0.4-1-1v-2H11v2c0,0.6-0.4,1-1,1s-1-0.4-1-1v-2H4v6c0,0.6,0.4,1,1,1h22c0.6,0,1-0.4,1-1v-6h-5V27
	z"/>
</svg>
