<?xml version="1.0" encoding="utf-8"?>
<!-- Generator: Adobe Illustrator 18.1.1, SVG Export Plug-In . SVG Version: 6.00 Build 0)  -->
<!DOCTYPE svg PUBLIC "-//W3C//DTD SVG 1.1//EN" "http://www.w3.org/Graphics/SVG/1.1/DTD/svg11.dtd">
<svg version="1.1" id="Layer_1" xmlns="http://www.w3.org/2000/svg" xmlns:xlink="http://www.w3.org/1999/xlink" x="0px" y="0px"
	 width="32px" height="32px" viewBox="0 0 32 32" enable-background="new 0 0 32 32" xml:space="preserve">
<path d="M7,32h21c0.6,0,1-0.4,1-1V1c0-0.6-0.4-1-1-1h-5v9c0,0.4-0.2,0.7-0.5,0.9C22.3,10,22.2,10,22,10c-0.2,0-0.4-0.1-0.6-0.2
	L19,8.2l-2.4,1.6c-0.3,0.2-0.7,0.2-1,0C15.2,9.7,15,9.4,15,9V0H6C4.3,0,3,1.3,3,3v25C3,30.2,4.8,32,7,32z M7,5c0-0.6,0.4-1,1-1
	s1,0.4,1,1v19H7V5z M7,26h20v4H7c-1.1,0-2-0.9-2-2S5.9,26,7,26z"/>
</svg>
