<?xml version="1.0" encoding="utf-8"?>
<!-- Generator: Adobe Illustrator 19.1.0, SVG Export Plug-In . SVG Version: 6.00 Build 0)  -->
<!DOCTYPE svg PUBLIC "-//W3C//DTD SVG 1.1//EN" "http://www.w3.org/Graphics/SVG/1.1/DTD/svg11.dtd">
<svg version="1.1" id="Layer_1" xmlns="http://www.w3.org/2000/svg" xmlns:xlink="http://www.w3.org/1999/xlink" x="0px" y="0px"
	 width="64px" height="64px" viewBox="0 0 64 64" enable-background="new 0 0 64 64" xml:space="preserve">
<path id="color_23_" d="M26,11V8c0-0.6-0.4-1-1-1h-9c-0.6,0-1,0.4-1,1v3H26z"/>
<path d="M15,13v7c0,0.6,0.4,1,1,1h9c0.6,0,1-0.4,1-1v-7H15z"/>
<path id="color_8_" d="M51.7,33.3l-6.9-9.9C44.6,23.2,44.3,23,44,23H10c-0.6,0-1,0.4-1,1v10c0,0.6,0.4,1,1,1h41c0,0,0,0,0,0
	c0.6,0,1-0.4,1-1C52,33.7,51.9,33.5,51.7,33.3z M19,30h-2c-0.6,0-1-0.4-1-1s0.4-1,1-1h2c0.6,0,1,0.4,1,1S19.6,30,19,30z M29,30h-2
	c-0.6,0-1-0.4-1-1s0.4-1,1-1h2c0.6,0,1,0.4,1,1S29.6,30,29,30z M39,30h-2c-0.6,0-1-0.4-1-1s0.4-1,1-1h2c0.6,0,1,0.4,1,1
	S39.6,30,39,30z"/>
<path d="M8,49.6c0.6,0.3,1.3,0.4,2,0.4c1.8,0,3.5-1,4.4-2.6c0.5-0.9,1.5-1.5,2.6-1.5s2.1,0.6,2.6,1.5C20.5,49,22.2,50,24,50
	s3.5-1,4.4-2.6c0.5-0.9,1.5-1.5,2.6-1.5s2.1,0.6,2.6,1.5C34.5,49,36.2,50,38,50s3.5-1,4.4-2.6c0.5-0.9,1.5-1.5,2.6-1.5
	s2.1,0.6,2.6,1.5C48.5,49,50.2,50,52,50c0.2,0,0.3,0,0.5,0l7.1-11.4c0.2-0.3,0.2-0.7,0-1S59.1,37,58.8,37h-54
	c-0.3,0-0.6,0.2-0.8,0.4c-0.2,0.3-0.2,0.6-0.1,0.9L8,49.6z"/>
<path id="color_3_" d="M52,54c-2.7,0-5.3-1.3-7-3.4c-1.7,2.1-4.3,3.4-7,3.4s-5.3-1.3-7-3.4c-1.7,2.1-4.3,3.4-7,3.4s-5.3-1.3-7-3.4
	c-1.7,2.1-4.3,3.4-7,3.4c-5,0-9-4-9-9c0-0.6,0.4-1,1-1s1,0.4,1,1c0,3.9,3.1,7,7,7c2.5,0,4.9-1.4,6.1-3.7c0.3-0.6,1.4-0.6,1.8,0
	c1.2,2.3,3.6,3.7,6.1,3.7s4.9-1.4,6.1-3.7c0.3-0.6,1.4-0.6,1.8,0c1.2,2.3,3.6,3.7,6.1,3.7s4.9-1.4,6.1-3.7c0.3-0.6,1.4-0.6,1.8,0
	c1.2,2.3,3.6,3.7,6.1,3.7c3.9,0,7-3.1,7-7c0-0.6,0.4-1,1-1s1,0.4,1,1C61,50,57,54,52,54z"/>
</svg>
