<?xml version="1.0" encoding="utf-8"?>
<!-- Generator: Adobe Illustrator 19.1.0, SVG Export Plug-In . SVG Version: 6.00 Build 0)  -->
<!DOCTYPE svg PUBLIC "-//W3C//DTD SVG 1.1//EN" "http://www.w3.org/Graphics/SVG/1.1/DTD/svg11.dtd">
<svg version="1.1" id="Layer_1" xmlns="http://www.w3.org/2000/svg" xmlns:xlink="http://www.w3.org/1999/xlink" x="0px" y="0px"
	 width="64px" height="64px" viewBox="0 0 64 64" enable-background="new 0 0 64 64" xml:space="preserve">
<path d="M58,27h-9.4L42,15.5C41.1,14,39.5,13,37.7,13H14.1c-1.6,0-3.1,0.8-4.1,2.1L1.9,26.4c-0.3,0.4-0.5,0.8-0.6,1.2c0,0,0,0,0,0
	C1.1,28.2,1,28.7,1,29.3V42c0,0.6,0.4,1,1,1h5.1c0.5,2.8,2.9,5,5.9,5s5.4-2.2,5.9-5h25.2c0.5,2.8,2.9,5,5.9,5s5.4-2.2,5.9-5H62
	c0.6,0,1-0.4,1-1V32C63,29.2,60.8,27,58,27z M40.3,16.5l6,10.5H27V15h10.7C38.8,15,39.8,15.6,40.3,16.5z M11.6,16.3
	c0.6-0.8,1.5-1.3,2.4-1.3H25v12H3.9L11.6,16.3z M13,46c-2.2,0-4-1.8-4-4s1.8-4,4-4s4,1.8,4,4S15.2,46,13,46z M50,46
	c-2.2,0-4-1.8-4-4s1.8-4,4-4s4,1.8,4,4S52.2,46,50,46z"/>
</svg>
