<?xml version="1.0" encoding="utf-8"?>
<!-- Generator: Adobe Illustrator 19.1.0, SVG Export Plug-In . SVG Version: 6.00 Build 0)  -->
<!DOCTYPE svg PUBLIC "-//W3C//DTD SVG 1.1//EN" "http://www.w3.org/Graphics/SVG/1.1/DTD/svg11.dtd">
<svg version="1.1" id="Layer_1" xmlns="http://www.w3.org/2000/svg" xmlns:xlink="http://www.w3.org/1999/xlink" x="0px" y="0px"
	 width="64px" height="64px" viewBox="0 0 64 64" enable-background="new 0 0 64 64" xml:space="preserve">
<path id="color_43_" d="M14,31C6.8,31,1,36.8,1,44s5.8,13,13,13s13-5.8,13-13S21.2,31,14,31z"/>
<path d="M43,48c0-6.1,4.9-11,11-11c0.3,0,0.7,0,1,0.1V36c0-2.8-2.2-5-5-5h-3v-7c0-1.7,1.3-3,3-3h2c0.6,0,1-0.4,1-1s-0.4-1-1-1h-2
	c-2.8,0-5,2.2-5,5v7h-4.3L32.9,7.7C32.8,7.3,32.4,7,32,7H14H8C7.4,7,7,7.4,7,8s0.4,1,1,1h5v14.1c-2.6,0.1-5.1,0.7-7.4,1.7
	c-0.5,0.2-0.7,0.8-0.5,1.3c0.2,0.5,0.8,0.7,1.3,0.5c2.4-1,5-1.6,7.6-1.6c10.5,0,19,8.5,19,19c0,1.9-0.3,3.9-0.9,5.7
	c-0.1,0.3,0,0.6,0.1,0.9c0.2,0.3,0.5,0.4,0.8,0.4h10.3C43.2,50,43,49,43,48z M30.5,31c-3.7-4.6-9.2-7.7-15.5-8V9h16.3l7.3,22H30.5z"
	/>
<path id="color_12_" d="M54,39c-5,0-9,4-9,9s4,9,9,9s9-4,9-9S59,39,54,39z"/>
</svg>
