<?xml version="1.0" encoding="utf-8"?>
<!-- Generator: Adobe Illustrator 19.1.0, SVG Export Plug-In . SVG Version: 6.00 Build 0)  -->
<!DOCTYPE svg PUBLIC "-//W3C//DTD SVG 1.1//EN" "http://www.w3.org/Graphics/SVG/1.1/DTD/svg11.dtd">
<svg version="1.1" id="Layer_1" xmlns="http://www.w3.org/2000/svg" xmlns:xlink="http://www.w3.org/1999/xlink" x="0px" y="0px"
	 width="64px" height="64px" viewBox="0 0 64 64" enable-background="new 0 0 64 64" xml:space="preserve">
<path id="color_20_" d="M7,28c-0.6,0-1-0.4-1-1v-8c0-0.6,0.4-1,1-1s1,0.4,1,1v8C8,27.6,7.6,28,7,28z"/>
<path id="color_19_" d="M57,28c-0.6,0-1-0.4-1-1v-8c0-0.6,0.4-1,1-1s1,0.4,1,1v8C58,27.6,57.6,28,57,28z"/>
<path d="M54.7,61.6L47.6,47H52c0.6,0,1-0.4,1-1V8c0-3.9-3.1-7-7-7H18c-3.9,0-7,3.1-7,7v38c0,0.6,0.4,1,1,1h4.4L9.3,61.6
	c-0.2,0.5,0,1.1,0.5,1.3C9.9,63,10,63,10.2,63c0.4,0,0.7-0.2,0.9-0.6l3.6-7.4h34.6l3.6,7.4c0.2,0.4,0.5,0.6,0.9,0.6
	c0.1,0,0.3,0,0.4-0.1C54.8,62.7,55,62.1,54.7,61.6z M47,38c0,1.7-1.3,3-3,3s-3-1.3-3-3s1.3-3,3-3S47,36.3,47,38z M19.3,9.3
	C19.4,9.1,19.7,9,20,9h24c0.3,0,0.6,0.1,0.7,0.3c0.2,0.2,0.3,0.5,0.2,0.8l-2,18c-0.1,0.5-0.5,0.9-1,0.9H22c-0.5,0-0.9-0.4-1-0.9
	l-2-18C19,9.8,19.1,9.5,19.3,9.3z M36,38c0,0.6-0.4,1-1,1h-6c-0.6,0-1-0.4-1-1s0.4-1,1-1h6C35.6,37,36,37.4,36,38z M20,35
	c1.7,0,3,1.3,3,3s-1.3,3-3,3s-3-1.3-3-3S18.3,35,20,35z M15.7,53l2.9-6h26.8l2.9,6H15.7z"/>
</svg>
