<?xml version="1.0" encoding="utf-8"?>
<!-- Generator: Adobe Illustrator 19.1.0, SVG Export Plug-In . SVG Version: 6.00 Build 0)  -->
<!DOCTYPE svg PUBLIC "-//W3C//DTD SVG 1.1//EN" "http://www.w3.org/Graphics/SVG/1.1/DTD/svg11.dtd">
<svg version="1.1" id="Layer_1" xmlns="http://www.w3.org/2000/svg" xmlns:xlink="http://www.w3.org/1999/xlink" x="0px" y="0px"
	 width="64px" height="64px" viewBox="0 0 64 64" enable-background="new 0 0 64 64" xml:space="preserve">
<path id="color_9_" d="M32,33c-5.5,0-10,4.5-10,10c0,0.6,0.4,1,1,1h18c0.6,0,1-0.4,1-1C42,37.5,37.5,33,32,33z"/>
<path d="M49,8h-9.3c-0.9-3.4-4-6-7.7-6s-6.8,2.6-7.7,6H15c-0.6,0-1,0.4-1,1v2c0,0.6,0.4,1,1,1h9.3c0.3,1.2,0.9,2.3,1.7,3.2
	c-6.2,1.1-11,6.6-11,13.2V54c0,0.6,0.4,1,1,1h10v-9h-3c-1.7,0-3-1.3-3-3c0-6.6,5.4-12,12-12s12,5.4,12,12c0,1.7-1.3,3-3,3h-3v9h10
	c0.6,0,1-0.4,1-1V28.4c0-6.6-4.7-12-11-13.2c0.8-0.9,1.4-2,1.7-3.2H49c0.6,0,1-0.4,1-1V9C50,8.4,49.6,8,49,8z M32,16
	c-3.3,0-6-2.7-6-6s2.7-6,6-6s6,2.7,6,6S35.3,16,32,16z"/>
<path id="color" d="M35,46h-6c-0.6,0-1,0.4-1,1v12c0,2.2,1.8,4,4,4s4-1.8,4-4V47C36,46.4,35.6,46,35,46z"/>
</svg>
