<?xml version="1.0" encoding="utf-8"?>
<!-- Generator: Adobe Illustrator 19.1.0, SVG Export Plug-In . SVG Version: 6.00 Build 0)  -->
<!DOCTYPE svg PUBLIC "-//W3C//DTD SVG 1.1//EN" "http://www.w3.org/Graphics/SVG/1.1/DTD/svg11.dtd">
<svg version="1.1" id="Layer_1" xmlns="http://www.w3.org/2000/svg" xmlns:xlink="http://www.w3.org/1999/xlink" x="0px" y="0px"
	 width="64px" height="64px" viewBox="0 0 64 64" enable-background="new 0 0 64 64" xml:space="preserve">
<path id="color_13_" d="M38,53H26c-0.6,0-1,0.4-1,1v8c0,0.6,0.4,1,1,1h12c0.6,0,1-0.4,1-1v-8C39,53.4,38.6,53,38,53z"/>
<path d="M31,1.7c-15.9,9.3-5.1,40.6-3.3,45.3H31V1.7z"/>
<path d="M33,1.7V47h3.3C38.1,42.2,48.9,10.9,33,1.7z"/>
<path d="M36.2,1.5c6,4.9,8.4,13.8,6.9,26.2c-1,8.5-3.6,16.3-4.7,19.4H40c0.3,0,0.6-0.1,0.8-0.3C41.3,46.1,53,32.3,53,22
	C53,12.2,45.5,3.5,36.2,1.5z"/>
<path d="M20.9,27.6c-1.5-12.3,0.9-21.2,6.9-26.2C18.5,3.5,11,12.2,11,22c0,10.3,11.7,24.1,12.2,24.7c0.2,0.2,0.5,0.3,0.8,0.3h1.6
	C24.5,43.9,21.9,36.1,20.9,27.6z"/>
</svg>
