<?xml version="1.0" encoding="utf-8"?>
<!-- Generator: Adobe Illustrator 19.1.0, SVG Export Plug-In . SVG Version: 6.00 Build 0)  -->
<!DOCTYPE svg PUBLIC "-//W3C//DTD SVG 1.1//EN" "http://www.w3.org/Graphics/SVG/1.1/DTD/svg11.dtd">
<svg version="1.1" id="Layer_1" xmlns="http://www.w3.org/2000/svg" xmlns:xlink="http://www.w3.org/1999/xlink" x="0px" y="0px"
	 width="64px" height="64px" viewBox="0 0 64 64" enable-background="new 0 0 64 64" xml:space="preserve">
<path id="color_35_" d="M62,47H4c-0.6,0-1,0.4-1,1s0.4,1,1,1h58c0.6,0,1-0.4,1-1S62.6,47,62,47z"/>
<path id="color_34_" d="M12,43c0.6,0,1-0.4,1-1s-0.4-1-1-1H8c-0.6,0-1,0.4-1,1s0.4,1,1,1H12z"/>
<path id="color_33_" d="M24,43c0.6,0,1-0.4,1-1s-0.4-1-1-1h-4c-0.6,0-1,0.4-1,1s0.4,1,1,1H24z"/>
<path id="color_32_" d="M36,43c0.6,0,1-0.4,1-1s-0.4-1-1-1h-4c-0.6,0-1,0.4-1,1s0.4,1,1,1H36z"/>
<path id="color_31_" d="M48,43c0.6,0,1-0.4,1-1s-0.4-1-1-1h-4c-0.6,0-1,0.4-1,1s0.4,1,1,1H48z"/>
<path id="color_30_" d="M60,43c0.6,0,1-0.4,1-1s-0.4-1-1-1h-4c-0.6,0-1,0.4-1,1s0.4,1,1,1H60z"/>
<path id="color_6_" d="M27,21c0,2.2,1.8,4,4,4h32v-8H31C28.8,17,27,18.8,27,21z"/>
<path id="color_5_" d="M4,25c8.3,0,15-6.7,15-15V9h-3c-3.9,0-7.5,2.3-9.1,5.8L2.2,25H4z"/>
<path d="M31,27c-3.3,0-6-2.7-6-6s2.7-6,6-6h32v-5c0-0.6-0.4-1-1-1H21v1c0,9.4-7.6,17-17,17H1.3l0,0.1c-1,2.2-0.8,4.7,0.5,6.7
	C3,35.8,5.2,37,7.6,37H62c0.6,0,1-0.4,1-1v-9H31z"/>
</svg>
