<?xml version="1.0" encoding="utf-8"?>
<!-- Generator: Adobe Illustrator 19.1.0, SVG Export Plug-In . SVG Version: 6.00 Build 0)  -->
<!DOCTYPE svg PUBLIC "-//W3C//DTD SVG 1.1//EN" "http://www.w3.org/Graphics/SVG/1.1/DTD/svg11.dtd">
<svg version="1.1" id="Layer_1" xmlns="http://www.w3.org/2000/svg" xmlns:xlink="http://www.w3.org/1999/xlink" x="0px" y="0px"
	 width="64px" height="64px" viewBox="0 0 64 64" enable-background="new 0 0 64 64" xml:space="preserve">
<path d="M54.7,23H18.6L14,15.4c-0.9-1.5-2.5-2.4-4.3-2.4H4c-0.3,0-0.6,0.1-0.8,0.4S3,13.9,3,14.2l6,24c0.1,0.4,0.5,0.8,1,0.8h19.6
	l-8.5,16.5c-0.2,0.3-0.1,0.7,0,1S21.7,57,22,57h12c0.4,0,0.7-0.2,0.9-0.5l9-17.5H55c2.2,0,4.2-0.9,5.7-2.4c1.5-1.6,2.3-3.6,2.3-5.8
	C62.9,26.5,59.1,23,54.7,23z M25,32h-3c-0.6,0-1-0.4-1-1s0.4-1,1-1h3c0.6,0,1,0.4,1,1S25.6,32,25,32z M33,32h-3c-0.6,0-1-0.4-1-1
	s0.4-1,1-1h3c0.6,0,1,0.4,1,1S33.6,32,33,32z M41,32h-3c-0.6,0-1-0.4-1-1s0.4-1,1-1h3c0.6,0,1,0.4,1,1S41.6,32,41,32z M49,32h-3
	c-0.6,0-1-0.4-1-1s0.4-1,1-1h3c0.6,0,1,0.4,1,1S49.6,32,49,32z"/>
<path id="color_1_" d="M27.4,21h14.2L34.9,7.6C34.7,7.2,34.4,7,34,7H22c-0.3,0-0.7,0.2-0.9,0.5c-0.2,0.3-0.2,0.7,0,1L27.4,21z"/>
</svg>
