<?xml version="1.0" encoding="utf-8"?>
<!-- Generator: Adobe Illustrator 19.1.0, SVG Export Plug-In . SVG Version: 6.00 Build 0)  -->
<!DOCTYPE svg PUBLIC "-//W3C//DTD SVG 1.1//EN" "http://www.w3.org/Graphics/SVG/1.1/DTD/svg11.dtd">
<svg version="1.1" id="Layer_1" xmlns="http://www.w3.org/2000/svg" xmlns:xlink="http://www.w3.org/1999/xlink" x="0px" y="0px"
	 width="64px" height="64px" viewBox="0 0 64 64" enable-background="new 0 0 64 64" xml:space="preserve">
<path d="M17.2,25l0.3,2.4c0.2,0.4,0.5,0.6,0.9,0.6h5c-0.3-0.6-0.5-1.3-0.5-2v-1H17.2z"/>
<path d="M39.5,33c-3.8,0-10.9-0.4-14.4-3h-6.7c-1.3,0-2.4-0.8-2.8-2.1c0-0.1,0-0.1,0-0.2l-0.5-4.1l-2.4-2.4
	c-0.1-0.1-0.3-0.2-0.5-0.3l-10-2c-0.3-0.1-0.6,0-0.8,0.2C1.1,19.4,1,19.7,1,20v4c0,0.3,0.1,0.5,0.3,0.7l8.3,8.4C4.8,33.8,1,38,1,43
	c0,5.5,4.5,10,10,10c4.8,0,8.9-3.4,9.8-8h6.7L39.5,33z M11,51c-4.4,0-8-3.6-8-8s3.6-8,8-8c0.3,0,0.6,0,0.8,0c0,0,0.1,0,0.1,0
	c2.1,0.2,4,1.3,5.3,2.9h-3.8c-1.9,0-3.5,1.6-3.5,3.5s1.6,3.5,3.5,3.5h5.2C17.9,48.5,14.7,51,11,51z"/>
<path d="M59.8,36.7l1.6-0.6c0.3-0.1,0.6-0.4,0.6-0.7c0.1-0.3-0.1-0.7-0.3-0.9c-1.6-1.5-3.6-2.5-5.7-3l0.6-0.7C58.1,29,61,24.8,61,22
	c0-9.5-14-12.9-14.6-13.1c-0.3-0.1-0.7,0-0.9,0.3L43,11.7c-0.2,0.2-0.3,0.5-0.3,0.8s0.2,0.6,0.5,0.7c2,1.1,4.4,3.7,4.4,5.3
	c0,0.7-0.4,1.3-0.8,1.9l-4,6.1C42.6,26.8,42.3,27,42,27c-0.2,0-0.4-0.1-0.5-0.2c-0.5-0.3-0.6-0.9-0.3-1.4l3.2-4.9l-2.6-0.9
	c-7.4-1.9-12.6,0.5-15.6,2.8C25.4,23,25,23.9,25,24.9V26c0,0.8,0.3,1.4,0.9,2c3.1,2.9,12.6,3.1,16,3c0.4,0,0.8,0.2,1,0.6
	c0.2,0.4,0.1,0.8-0.2,1.1L30.3,45h12.7c0.5,5.2,5,9.2,10.4,9c5.2-0.2,9.4-4.5,9.6-9.7C63.1,41.4,61.9,38.7,59.8,36.7z M53,52
	c-4.3,0-7.8-3.4-8-7.7l2.5-2.9l10.2-3.9C59.8,39,61,41.4,61,44C61,48.4,57.4,52,53,52z"/>
</svg>
