<?xml version="1.0" encoding="utf-8"?>
<!-- Generator: Adobe Illustrator 19.1.0, SVG Export Plug-In . SVG Version: 6.00 Build 0)  -->
<!DOCTYPE svg PUBLIC "-//W3C//DTD SVG 1.1//EN" "http://www.w3.org/Graphics/SVG/1.1/DTD/svg11.dtd">
<svg version="1.1" id="Layer_1" xmlns="http://www.w3.org/2000/svg" xmlns:xlink="http://www.w3.org/1999/xlink" x="0px" y="0px"
	 width="64px" height="64px" viewBox="0 0 64 64" enable-background="new 0 0 64 64" xml:space="preserve">
<path d="M60.8,38l-3.9-2.6l-3.4-21.2c-0.4-2.4-2.5-4.2-4.9-4.2H41V4c0-0.6-0.4-1-1-1H24c-0.6,0-1,0.4-1,1v6h-7.6
	c-2.5,0-4.5,1.8-4.9,4.2L7.1,35.4L3.2,38C1.8,38.9,1,40.5,1,42.1V54c0,0.6,0.4,1,1,1h3v6c0,0.6,0.4,1,1,1h8c0.6,0,1-0.4,1-1v-6h34v6
	c0,0.6,0.4,1,1,1h8c0.6,0,1-0.4,1-1v-6h3c0.6,0,1-0.4,1-1V42.1C63,40.5,62.2,38.9,60.8,38z M12.4,14.5c0.2-1.5,1.5-2.5,3-2.5h33.2
	c1.5,0,2.7,1.1,3,2.5L54.8,35H34.4l7.3-7.3c0.4-0.4,0.4-1,0-1.4s-1-0.4-1.4,0L31.6,35H9.2L12.4,14.5z M12,49c-2.2,0-4-1.8-4-4
	c0-2.2,1.8-4,4-4s4,1.8,4,4C16,47.2,14.2,49,12,49z M38,47H26c-1.1,0-2-0.9-2-2c0-1.1,0.9-2,2-2h12c1.1,0,2,0.9,2,2
	C40,46.1,39.1,47,38,47z M52,49c-2.2,0-4-1.8-4-4c0-2.2,1.8-4,4-4s4,1.8,4,4C56,47.2,54.2,49,52,49z"/>
</svg>
