<?xml version="1.0" encoding="utf-8"?>
<!-- Generator: Adobe Illustrator 19.1.0, SVG Export Plug-In . SVG Version: 6.00 Build 0)  -->
<!DOCTYPE svg PUBLIC "-//W3C//DTD SVG 1.1//EN" "http://www.w3.org/Graphics/SVG/1.1/DTD/svg11.dtd">
<svg version="1.1" id="Layer_49" xmlns="http://www.w3.org/2000/svg" xmlns:xlink="http://www.w3.org/1999/xlink" x="0px" y="0px"
	 width="48px" height="48px" viewBox="0 0 48 48" enable-background="new 0 0 48 48" xml:space="preserve">
<path fill="#231F20" d="M47,15h-8v13H9V15H1v31c0,0.6,0.4,1,1,1h16c0.6,0,1-0.4,1-1v-4.8c0-2.6,1.9-4.9,4.5-5.2c3-0.3,5.5,2.1,5.5,5
	v5c0,0.6,0.4,1,1,1h16c0.6,0,1-0.4,1-1V15z"/>
<path id="color_54_" fill="#231F20" d="M47,13v-3c0-2.5-2.9-6.2-3.2-6.6c-0.4-0.5-1.2-0.5-1.6,0C41.9,3.8,39,7.5,39,10v3H47z"/>
<path id="color_53_" fill="#231F20" d="M9,13v-3c0-2.5-2.9-6.2-3.2-6.6c-0.4-0.5-1.2-0.5-1.6,0C3.9,3.8,1,7.5,1,10v3H9z"/>
<path id="color_52_" fill="#231F20" d="M25,12V9c0-0.6-0.4-1-1-1c-0.6,0-1,0.4-1,1v3c-5.1,0.3-9.6,3.3-12,7.5V26h26v-6.5
	C34.6,15.3,30.1,12.4,25,12z"/>
</svg>
