<?xml version="1.0" encoding="utf-8"?>
<!-- Generator: Adobe Illustrator 19.1.0, SVG Export Plug-In . SVG Version: 6.00 Build 0)  -->
<!DOCTYPE svg PUBLIC "-//W3C//DTD SVG 1.1//EN" "http://www.w3.org/Graphics/SVG/1.1/DTD/svg11.dtd">
<svg version="1.1" id="Layer_49" xmlns="http://www.w3.org/2000/svg" xmlns:xlink="http://www.w3.org/1999/xlink" x="0px" y="0px"
	 width="48px" height="48px" viewBox="0 0 48 48" enable-background="new 0 0 48 48" xml:space="preserve">
<path fill="#231F20" d="M38,4H5C4.4,4,4,4.4,4,5v31H2c-0.6,0-1,0.4-1,1s0.4,1,1,1h9V24c0-0.6,0.4-1,1-1h8c0.6,0,1,0.4,1,1v14h6.1
	c0.5,3.4,3.4,6,6.9,6c3.5,0,6.4-2.6,6.9-6H46c0.6,0,1-0.4,1-1V13C47,8,43,4,38,4z M22,15L22,15c0-0.6,0.4-1,1-1h5c0.6,0,1,0.4,1,1
	l0,0c0,0.6-0.4,1-1,1h-5C22.4,16,22,15.6,22,15z M34,42c-2.8,0-5-2.2-5-5s2.2-5,5-5c2.8,0,5,2.2,5,5S36.8,42,34,42z M39,16h-5
	c-0.6,0-1-0.4-1-1l0,0c0-0.6,0.4-1,1-1h5c0.6,0,1,0.4,1,1l0,0C40,15.6,39.6,16,39,16z"/>
</svg>
