<?xml version="1.0" encoding="utf-8"?>
<!-- Generator: Adobe Illustrator 19.1.0, SVG Export Plug-In . SVG Version: 6.00 Build 0)  -->
<!DOCTYPE svg PUBLIC "-//W3C//DTD SVG 1.1//EN" "http://www.w3.org/Graphics/SVG/1.1/DTD/svg11.dtd">
<svg version="1.1" id="Layer_49" xmlns="http://www.w3.org/2000/svg" xmlns:xlink="http://www.w3.org/1999/xlink" x="0px" y="0px"
	 width="48px" height="48px" viewBox="0 0 48 48" enable-background="new 0 0 48 48" xml:space="preserve">
<path fill="#231F20" d="M46,1H2C1.4,1,1,1.4,1,2v44c0,0.6,0.4,1,1,1h44c0.6,0,1-0.4,1-1V2C47,1.4,46.6,1,46,1z M35,34
	c0,0.6-0.4,1-1,1c-0.6,0-1-0.4-1-1v-9H15v9c0,0.6-0.4,1-1,1c-0.6,0-1-0.4-1-1V14c0-0.6,0.4-1,1-1c0.6,0,1,0.4,1,1v9h18v-9
	c0-0.6,0.4-1,1-1c0.6,0,1,0.4,1,1V34z"/>
</svg>
