<?xml version="1.0" encoding="utf-8"?>
<!-- Generator: Adobe Illustrator 19.1.0, SVG Export Plug-In . SVG Version: 6.00 Build 0)  -->
<!DOCTYPE svg PUBLIC "-//W3C//DTD SVG 1.1//EN" "http://www.w3.org/Graphics/SVG/1.1/DTD/svg11.dtd">
<svg version="1.1" id="Layer_49" xmlns="http://www.w3.org/2000/svg" xmlns:xlink="http://www.w3.org/1999/xlink" x="0px" y="0px"
	 width="48px" height="48px" viewBox="0 0 48 48" enable-background="new 0 0 48 48" xml:space="preserve">
<path fill="#231F20" d="M40.7,20C39.4,12.4,32.9,6.5,25,6.1V3c0-0.6-0.4-1-1-1c-0.6,0-1,0.4-1,1v3.1C15.1,6.5,8.6,12.4,7.3,20H40.7z
	"/>
<path id="color_12_" fill="#231F20" d="M2,24h44c0.6,0,1-0.4,1-1s-0.4-1-1-1H2c-0.6,0-1,0.4-1,1S1.4,24,2,24z"/>
<path id="color_11_" fill="#231F20" d="M46,44H2c-0.6,0-1,0.4-1,1s0.4,1,1,1h44c0.6,0,1-0.4,1-1S46.6,44,46,44z"/>
<rect x="35" y="26" fill="#231F20" width="8" height="16"/>
<rect x="25" y="26" fill="#231F20" width="8" height="16"/>
<rect x="15" y="26" fill="#231F20" width="8" height="16"/>
<rect x="5" y="26" fill="#231F20" width="8" height="16"/>
</svg>
