<?xml version="1.0" encoding="utf-8"?>
<!-- Generator: Adobe Illustrator 19.1.0, SVG Export Plug-In . SVG Version: 6.00 Build 0)  -->
<!DOCTYPE svg PUBLIC "-//W3C//DTD SVG 1.1//EN" "http://www.w3.org/Graphics/SVG/1.1/DTD/svg11.dtd">
<svg version="1.1" id="Layer_49" xmlns="http://www.w3.org/2000/svg" xmlns:xlink="http://www.w3.org/1999/xlink" x="0px" y="0px"
	 width="48px" height="48px" viewBox="0 0 48 48" enable-background="new 0 0 48 48" xml:space="preserve">
<path id="color_6_" fill="#231F20" d="M32,8c-2.1-3.3-6.9-5.6-7.6-5.9c-0.3-0.1-0.6-0.1-0.8,0C22.9,2.4,18,4.7,16,8H32z"/>
<path fill="#231F20" d="M44.9,18c-0.6,0-6.4-0.2-9-7.3C35.8,10.3,35.4,10,35,10H13c-0.4,0-0.8,0.3-0.9,0.7C9.5,17.8,3.7,18,3,18
	c0,0,0,0,0,0c-0.3,0-0.5,0.1-0.7,0.3C2.1,18.5,2,18.7,2,19v1c0,0.6,0.4,1,1,1h42c0.6,0,1-0.4,1-1v-1C46,18.4,45.5,18,44.9,18z"/>
<path fill="#231F20" d="M5,33v12c0,0.6,0.4,1,1,1h14v-6c0-0.3,0.1-0.5,0.3-0.7l3-3c0.4-0.4,1-0.4,1.4,0l3,3c0.2,0.2,0.3,0.4,0.3,0.7
	v6h14c0.6,0,1-0.4,1-1V33H5z"/>
<path id="color_5_" fill="#231F20" d="M47,28c-0.2,0-5,0.1-7.9-5H9c-3,5.1-7.7,5-7.9,5c-0.3,0-0.5,0.1-0.7,0.3C0.1,28.5,0,28.7,0,29
	v1c0,0.6,0.4,1,1,1h46c0.6,0,1-0.4,1-1v-1c0-0.3-0.1-0.5-0.3-0.7C47.5,28.1,47.2,28,47,28z"/>
</svg>
