<?xml version="1.0" encoding="utf-8"?>
<!-- Generator: Adobe Illustrator 19.1.0, SVG Export Plug-In . SVG Version: 6.00 Build 0)  -->
<!DOCTYPE svg PUBLIC "-//W3C//DTD SVG 1.1//EN" "http://www.w3.org/Graphics/SVG/1.1/DTD/svg11.dtd">
<svg version="1.1" id="Layer_49" xmlns="http://www.w3.org/2000/svg" xmlns:xlink="http://www.w3.org/1999/xlink" x="0px" y="0px"
	 width="48px" height="48px" viewBox="0 0 48 48" enable-background="new 0 0 48 48" xml:space="preserve">
<path fill="#231F20" d="M44,24c0.6,0,1-0.4,1-1v-1c0-11.6-9.4-21-21-21C12.4,1,3,10.4,3,22v1c0,0.6,0.4,1,1,1h7v8c0,1.7-1.3,3-3,3
	c-1.7,0-3-1.3-3-3c0-0.6-0.4-1-1-1c-0.6,0-1,0.4-1,1c0,2.8,2.2,5,5,5c2.8,0,5-2.2,5-5v-8h6v18c0,1.7-1.3,3-3,3c-1.7,0-3-1.3-3-3
	c0-0.6-0.4-1-1-1c-0.6,0-1,0.4-1,1c0,2.8,2.2,5,5,5c2.8,0,5-2.2,5-5V24h6v18c0,2.8,2.2,5,5,5c2.8,0,5-2.2,5-5c0-0.6-0.4-1-1-1
	c-0.6,0-1,0.4-1,1c0,1.7-1.3,3-3,3c-1.7,0-3-1.3-3-3V24h6v8c0,2.8,2.2,5,5,5c2.8,0,5-2.2,5-5c0-0.6-0.4-1-1-1c-0.6,0-1,0.4-1,1
	c0,1.7-1.3,3-3,3c-1.7,0-3-1.3-3-3v-8H44z"/>
</svg>
