<?xml version="1.0" encoding="utf-8"?>
<!-- Generator: Adobe Illustrator 19.1.0, SVG Export Plug-In . SVG Version: 6.00 Build 0)  -->
<!DOCTYPE svg PUBLIC "-//W3C//DTD SVG 1.1//EN" "http://www.w3.org/Graphics/SVG/1.1/DTD/svg11.dtd">
<svg version="1.1" id="Layer_49" xmlns="http://www.w3.org/2000/svg" xmlns:xlink="http://www.w3.org/1999/xlink" x="0px" y="0px"
	 width="48px" height="48px" viewBox="0 0 48 48" enable-background="new 0 0 48 48" xml:space="preserve">
<path fill="#231F20" d="M20,47v-6c0-2.2,1.8-4,4-4l0,0c2.2,0,4,1.8,4,4v6h10.8H39h7c0.6,0,1-0.4,1-1V26c0-0.6-0.4-1-1-1
	c-0.6,0-1,0.4-1,1v5h-7.9l-2.9-15H40c0.6,0,1-0.4,1-1V4c0-0.6-0.4-1-1-1c-0.6,0-1,0.4-1,1v2h-6V4c0-0.6-0.4-1-1-1c-0.6,0-1,0.4-1,1
	v2h-6V4c0-0.6-0.4-1-1-1c-0.6,0-1,0.4-1,1v2h-6V4c0-0.6-0.4-1-1-1c-0.6,0-1,0.4-1,1v2H9V4c0-0.6-0.4-1-1-1C7.4,3,7,3.4,7,4v11
	c0,0.6,0.4,1,1,1h5.8l-2.9,15H3v-5c0-0.6-0.4-1-1-1c-0.6,0-1,0.4-1,1v20c0,0.6,0.4,1,1,1H20z"/>
</svg>
