<?xml version="1.0" encoding="utf-8"?>
<!-- Generator: Adobe Illustrator 19.1.0, SVG Export Plug-In . SVG Version: 6.00 Build 0)  -->
<!DOCTYPE svg PUBLIC "-//W3C//DTD SVG 1.1//EN" "http://www.w3.org/Graphics/SVG/1.1/DTD/svg11.dtd">
<svg version="1.1" id="Layer_49" xmlns="http://www.w3.org/2000/svg" xmlns:xlink="http://www.w3.org/1999/xlink" x="0px" y="0px"
	 width="48px" height="48px" viewBox="0 0 48 48" enable-background="new 0 0 48 48" xml:space="preserve">
<path id="color_72_" fill="#231F20" d="M32,36c0-4.6-3.9-8.3-8.5-8c-4.3,0.3-7.5,4-7.5,8.3V45c0,0.6,0.4,1,1,1h14c0.6,0,1-0.4,1-1
	V36z"/>
<path fill="#231F20" d="M25,15h20.2C41.8,7.1,34.1,1.4,25,1V15z"/>
<path fill="#231F20" d="M2.1,17C1.4,19.2,1,21.6,1,24v5h9V17H2.1z"/>
<path fill="#231F20" d="M38,29h9v-5c0-2.4-0.4-4.8-1.1-7H38V29z"/>
<path fill="#231F20" d="M12,17v12h4.9c1.8-1.8,4.3-3,7.1-3c2.8,0,5.3,1.2,7.1,3H36V17H12z"/>
<path fill="#231F20" d="M32.6,31c0.9,1.5,1.4,3.2,1.4,5v7h12c0.6,0,1-0.4,1-1V31H32.6z"/>
<path fill="#231F20" d="M23,15V1c-9.1,0.4-16.8,6-20.2,14H23z"/>
<path fill="#231F20" d="M1,31v11c0,0.6,0.4,1,1,1h12v-7c0-1.8,0.5-3.5,1.4-5H1z"/>
</svg>
