<?xml version="1.0" encoding="utf-8"?>
<!-- Generator: Adobe Illustrator 19.1.0, SVG Export Plug-In . SVG Version: 6.00 Build 0)  -->
<!DOCTYPE svg PUBLIC "-//W3C//DTD SVG 1.1//EN" "http://www.w3.org/Graphics/SVG/1.1/DTD/svg11.dtd">
<svg version="1.1" id="Layer_49" xmlns="http://www.w3.org/2000/svg" xmlns:xlink="http://www.w3.org/1999/xlink" x="0px" y="0px"
	 width="48px" height="48px" viewBox="0 0 48 48" enable-background="new 0 0 48 48" xml:space="preserve">
<path id="color_1_" fill="#231F20" d="M44.3,36.7l-3-1.1L26.8,41l14.2,5.2c0.1,0,0.2,0.1,0.3,0.1c0.4,0,0.8-0.3,0.9-0.7l2.7-7.5
	c0.1-0.2,0.1-0.5,0-0.8C44.8,37,44.6,36.8,44.3,36.7z"/>
<path id="color" fill="#231F20" d="M44.9,31.2l-2.7-7.5c-0.1-0.2-0.3-0.5-0.5-0.6c-0.2-0.1-0.5-0.1-0.8,0l-4.8,1.7
	C34.2,30,29,33,24,33c-5,0-10.1-2.9-12.1-8.1l-5.2-1.9c-0.5-0.2-1.1,0.1-1.3,0.6l-2.7,7.5c-0.1,0.2-0.1,0.5,0,0.8
	c0.1,0.2,0.3,0.4,0.6,0.5l5.9,2.1l-5.9,2.1c-0.2,0.1-0.5,0.3-0.6,0.5c-0.1,0.2-0.1,0.5,0,0.8l2.7,7.5c0.1,0.4,0.5,0.7,0.9,0.7
	c0.1,0,0.2,0,0.3-0.1l37.6-13.7c0.2-0.1,0.5-0.3,0.6-0.5C45,31.7,45,31.4,44.9,31.2z"/>
<path fill="#231F20" d="M24.7,2.3L24,1.5l-0.7,0.8C22.8,2.8,13,13.7,13,20.1C13,26.9,18.6,31,24,31c5.4,0,11-4.1,11-10.9
	C35,13.7,25.2,2.8,24.7,2.3z M24,25c-2.1,0-4.3-1.6-4.3-4.3c0-2.3,3-5.7,3.6-6.4l0.7-0.8l0.7,0.8c0.6,0.7,3.6,4.1,3.6,6.4
	C28.3,23.4,26.1,25,24,25z"/>
</svg>
