<?xml version="1.0" encoding="utf-8"?>
<!-- Generator: Adobe Illustrator 19.1.0, SVG Export Plug-In . SVG Version: 6.00 Build 0)  -->
<!DOCTYPE svg PUBLIC "-//W3C//DTD SVG 1.1//EN" "http://www.w3.org/Graphics/SVG/1.1/DTD/svg11.dtd">
<svg version="1.1" id="Layer_49" xmlns="http://www.w3.org/2000/svg" xmlns:xlink="http://www.w3.org/1999/xlink" x="0px" y="0px"
	 width="48px" height="48px" viewBox="0 0 48 48" enable-background="new 0 0 48 48" xml:space="preserve">
<path id="color_30_" fill="#231F20" d="M41,22c0-0.3-0.2-0.7-0.5-0.8L25,11.4V9h5c0.6,0,1-0.4,1-1V4c0-0.6-0.4-1-1-1h-5V2
	c0-0.6-0.4-1-1-1c-0.6,0-1,0.4-1,1v9.4L7.5,21.2C7.2,21.3,7,21.7,7,22v3h34V22z"/>
<path fill="#231F20" d="M15,47h5v-8c0-0.6,0.4-1,1-1h6c0.6,0,1,0.4,1,1v8h5V27H15V47z"/>
<path fill="#231F20" d="M46,32h-5v-5h-6v20h11c0.6,0,1-0.4,1-1V33C47,32.4,46.6,32,46,32z"/>
<path fill="#231F20" d="M7,32H2c-0.6,0-1,0.4-1,1v13c0,0.6,0.4,1,1,1h11V27H7V32z"/>
</svg>
