<?xml version="1.0" encoding="utf-8"?>
<!-- Generator: Adobe Illustrator 19.1.0, SVG Export Plug-In . SVG Version: 6.00 Build 0)  -->
<!DOCTYPE svg PUBLIC "-//W3C//DTD SVG 1.1//EN" "http://www.w3.org/Graphics/SVG/1.1/DTD/svg11.dtd">
<svg version="1.1" id="Layer_49" xmlns="http://www.w3.org/2000/svg" xmlns:xlink="http://www.w3.org/1999/xlink" x="0px" y="0px"
	 width="48px" height="48px" viewBox="0 0 48 48" enable-background="new 0 0 48 48" xml:space="preserve">
<path id="color_71_" fill="#231F20" d="M47,2c0-0.6-0.4-1-1-1h-4c-0.6,0-1,0.4-1,1v39H2c-0.6,0-1,0.4-1,1s0.4,1,1,1h3v3
	c0,0.6,0.4,1,1,1c0.6,0,1-0.4,1-1v-3h30v3c0,0.6,0.4,1,1,1c0.6,0,1-0.4,1-1v-3h3c0.6,0,1-0.4,1-1V3h3C46.6,3,47,2.6,47,2z"/>
<path fill="#231F20" d="M36,11h-9V6c0-0.6-0.4-1-1-1H14c-0.6,0-1,0.4-1,1v5H4c-0.6,0-1,0.4-1,1v6h34v-6C37,11.4,36.6,11,36,11z
	 M15,7h10v4H15V7z"/>
<path fill="#231F20" d="M24,24c0,0.6-0.4,1-1,1h-6c-0.6,0-1-0.4-1-1v-4H3v16c0,0.6,0.4,1,1,1h32c0.6,0,1-0.4,1-1V20H24V24z"/>
</svg>
