<?xml version="1.0" encoding="utf-8"?>
<!-- Generator: Adobe Illustrator 19.1.0, SVG Export Plug-In . SVG Version: 6.00 Build 0)  -->
<!DOCTYPE svg PUBLIC "-//W3C//DTD SVG 1.1//EN" "http://www.w3.org/Graphics/SVG/1.1/DTD/svg11.dtd">
<svg version="1.1" id="Layer_1" xmlns="http://www.w3.org/2000/svg" xmlns:xlink="http://www.w3.org/1999/xlink" x="0px" y="0px"
	 width="16px" height="16px" viewBox="0 0 16 16" enable-background="new 0 0 16 16" xml:space="preserve">
<path fill="#444444" d="M16,5.81818c0-1.20455-1.22727-2.02273-2.57209-1.71418l-2.23904,0.70712L11.896,2.57209
	C12.20455,1.22727,11.38636,0,10.18182,0C8.88636,0,8,0.72727,8,0.72727S7.11364,0,5.81818,0
	C4.61364,0,3.79545,1.22727,4.104,2.57209l0.70712,2.23904L2.57209,4.104C1.22727,3.79545,0,4.61364,0,5.81818
	C0,7.11364,0.72727,8,0.72727,8S0,8.88636,0,10.18182c0,1.20455,1.22727,2.02273,2.57209,1.71418l2.23904-0.70712L4.104,13.42791
	C3.79545,14.77273,4.61364,16,5.81818,16C7.11364,16,8,15.27273,8,15.27273S8.88636,16,10.18182,16
	c1.20455,0,2.02273-1.22727,1.71418-2.57209l-0.70712-2.23904l2.23904,0.70712C14.77273,12.20455,16,11.38636,16,10.18182
	C16,8.88636,15.27273,8,15.27273,8S16,7.11364,16,5.81818z"/>
</svg>
