<?xml version="1.0" encoding="utf-8"?>
<!-- Generator: Adobe Illustrator 19.1.0, SVG Export Plug-In . SVG Version: 6.00 Build 0)  -->
<!DOCTYPE svg PUBLIC "-//W3C//DTD SVG 1.1//EN" "http://www.w3.org/Graphics/SVG/1.1/DTD/svg11.dtd">
<svg version="1.1" id="Layer_1" xmlns="http://www.w3.org/2000/svg" xmlns:xlink="http://www.w3.org/1999/xlink" x="0px" y="0px"
	 width="16px" height="16px" viewBox="0 0 16 16" enable-background="new 0 0 16 16" xml:space="preserve">
<path fill="#444444" d="M16,4h-6V2c0-1.10461-0.89545-2-2-2S6,0.89539,6,2v2H0c0,1.93231,1.3703,3.54456,3.19214,3.91821
	c-0.24722,0.96852-0.27802,1.85632,0.03558,3.09064C2.47644,11.67725,2,12.64624,2,13.73132C2,14.17932,2.09186,14.60327,2.2392,15
	c0.71838-0.50549,1.67438-0.80786,2.42914-0.98474C5.55316,15.18066,6.71838,16,8,16s2.44684-0.81934,3.33167-1.98474
	C12.08643,14.19214,13.04242,14.49451,13.7608,15C13.90814,14.60327,14,14.17932,14,13.73132
	c0-1.08508-0.47644-2.05408-1.22772-2.72247c0.3136-1.23431,0.2828-2.12212,0.03558-3.09064C14.6297,7.54456,16,5.93231,16,4z M8,14
	c-1.34576,0-3-2.59485-3-4.70587C5,7.47772,6.34576,6,8,6s3,1.47772,3,3.29413C11,11.40515,9.34576,14,8,14z"/>
</svg>
