<?xml version="1.0" encoding="utf-8"?>
<!-- Generator: Adobe Illustrator 19.1.0, SVG Export Plug-In . SVG Version: 6.00 Build 0)  -->
<!DOCTYPE svg PUBLIC "-//W3C//DTD SVG 1.1//EN" "http://www.w3.org/Graphics/SVG/1.1/DTD/svg11.dtd">
<svg version="1.1" id="Layer_1" xmlns="http://www.w3.org/2000/svg" xmlns:xlink="http://www.w3.org/1999/xlink" x="0px" y="0px"
	 width="16px" height="16px" viewBox="0 0 16 16" enable-background="new 0 0 16 16" xml:space="preserve">
<circle data-color="color-2" fill="#444444" cx="6" cy="12" r="1"/>
<circle data-color="color-2" fill="#444444" cx="10" cy="12" r="1"/>
<path fill="#444444" d="M16,0c-2.57874,0-4.9516,1.00165-6.28998,2.21918C9.1618,2.08124,8.59106,2,8,2
	S6.8382,2.08124,6.28998,2.21918C4.9516,1.00165,2.57874,0,0,0c0,2.92627,0.63074,5.22815,1.49365,6.42944
	C1.17865,7.22601,1,8.09143,1,9c0,3.86597,3.13403,7,7,7s7-3.13403,7-7c0-0.90857-0.17865-1.77399-0.49365-2.57056
	C15.36926,5.22815,16,2.92627,16,0z M5,6c0.55231,0,1,0.44769,1,1c0,0.55225-0.44769,1-1,1S4,7.55225,4,7C4,6.44769,4.44769,6,5,6z
	 M10,14H6c-1.10455,0-2-0.89545-2-2c0-1.10461,0.89545-2,2-2h4c1.10455,0,2,0.89539,2,2C12,13.10455,11.10455,14,10,14z M11,8
	c-0.55231,0-1-0.44775-1-1c0-0.55231,0.44769-1,1-1s1,0.44769,1,1C12,7.55225,11.55231,8,11,8z"/>
</svg>
