<?xml version="1.0" encoding="utf-8"?>
<!-- Generator: Adobe Illustrator 19.1.0, SVG Export Plug-In . SVG Version: 6.00 Build 0)  -->
<!DOCTYPE svg PUBLIC "-//W3C//DTD SVG 1.1//EN" "http://www.w3.org/Graphics/SVG/1.1/DTD/svg11.dtd">
<svg version="1.1" id="Layer_1" xmlns="http://www.w3.org/2000/svg" xmlns:xlink="http://www.w3.org/1999/xlink" x="0px" y="0px"
	 width="16px" height="16px" viewBox="0 0 16 16" enable-background="new 0 0 16 16" xml:space="preserve">
<path fill="#444444" d="M11.27941,8.15043C10.54279,6.9608,9.31655,6.25054,8,6.25054S5.45721,6.9608,4.72059,8.15043
	C4.71473,8.15995,4.70936,8.16971,4.704,8.17972l-1.31948,2.49299c-0.64046,1.20964-0.45935,2.68777,0.45105,3.6792
	c0.79666,0.86745,1.94675,1.12617,3.00409,0.67804c0.81594-0.34721,1.4761-0.3594,2.32068,0
	c1.04881,0.44671,2.20221,0.19435,3.00409-0.67804c0.9104-0.99144,1.09151-2.46956,0.45105-3.6792L11.27941,8.15043z"/>
<path data-color="color-2" fill="#444444" d="M5.54703,5.74945c1.13969,0,2.02435-1.18936,1.95066-2.60283c0,0,0,0,0-0.00024
	C7.42496,1.77077,6.48868,0.70074,5.36983,0.75541C4.26905,0.81326,3.43187,1.9797,3.50363,3.35628
	C3.57441,4.697,4.48237,5.74945,5.54703,5.74945z"/>
<path data-color="color-2" fill="#444444" d="M3.47532,6.52293c-0.33506-1.08797-1.3199-1.94855-2.33386-1.63531
	C0.20372,5.17612-0.24001,6.34671,0.1305,7.55195c0.36164,1.17491,1.36936,1.92919,2.33386,1.6358
	C3.40209,8.89877,3.84582,7.72842,3.47532,6.52293z"/>
<path data-color="color-2" fill="#444444" d="M14.85854,4.88762c-1.0108-0.31332-1.99765,0.5436-2.33386,1.63531
	c-0.37051,1.20549,0.07322,2.37584,1.01096,2.66482c0.9363,0.28809,1.9623-0.42866,2.33386-1.6358
	C16.24001,6.34671,15.79628,5.17612,14.85854,4.88762z"/>
<path data-color="color-2" fill="#444444" d="M10.36363,5.74701c1.19965,0.05998,2.06364-1.11057,2.13176-2.38731
	c0.08151-1.48535-0.83279-2.54822-1.86035-2.60405c-1.19156-0.06179-2.0632,1.10227-2.13176,2.38731
	C8.42177,4.62831,9.33607,5.69118,10.36363,5.74701z"/>
</svg>
