<?xml version="1.0" encoding="utf-8"?>
<!-- Generator: Adobe Illustrator 19.1.0, SVG Export Plug-In . SVG Version: 6.00 Build 0)  -->
<!DOCTYPE svg PUBLIC "-//W3C//DTD SVG 1.1//EN" "http://www.w3.org/Graphics/SVG/1.1/DTD/svg11.dtd">
<svg version="1.1" id="Layer_1" xmlns="http://www.w3.org/2000/svg" xmlns:xlink="http://www.w3.org/1999/xlink" x="0px" y="0px"
	 width="16px" height="16px" viewBox="0 0 16 16" enable-background="new 0 0 16 16" xml:space="preserve">
<circle data-color="color-2" fill="#444444" cx="6.5" cy="5.5" r="1.5"/>
<path fill="#444444" d="M16,6.53809C16,4.0752,12.26074,0,8,0S0,4.0752,0,6.53809c0,1.64972,2.1239,2.7254,4.80737,3.19287
	l-0.47357,1.797C3.87109,13.84149,5.64062,16,8,16s4.12891-2.15851,3.6662-4.47205l-0.47357-1.797
	C13.8761,9.26349,16,8.18781,16,6.53809z M8,8C4.34766,8,2.2373,6.93164,2.00098,6.49805C2.05469,5.19336,4.69434,2,8,2
	c0.22943,0,0.45477,0.01837,0.67719,0.04742c-0.00702,0.08575-0.0257,0.16803-0.0257,0.25562
	c0,1.79907,1.4585,3.25757,3.25763,3.25757c0.56293,0,1.08307-0.1571,1.54425-0.40924
	c0.35052,0.52484,0.55164,1.00751,0.55347,1.34082C13.84277,6.9082,11.74902,8,8,8z"/>
</svg>
