<?xml version="1.0" encoding="utf-8"?>
<!-- Generator: Adobe Illustrator 19.1.0, SVG Export Plug-In . SVG Version: 6.00 Build 0)  -->
<!DOCTYPE svg PUBLIC "-//W3C//DTD SVG 1.1//EN" "http://www.w3.org/Graphics/SVG/1.1/DTD/svg11.dtd">
<svg version="1.1" id="Layer_1" xmlns="http://www.w3.org/2000/svg" xmlns:xlink="http://www.w3.org/1999/xlink" x="0px" y="0px"
	 width="16px" height="16px" viewBox="0 0 16 16" enable-background="new 0 0 16 16" xml:space="preserve">
<path fill="#444444" d="M12.58826,6.88232h-0.42432c0.26282-0.45148,0.42432-0.96942,0.42432-1.52942
	c0-1.68933-1.36951-3.05878-3.05884-3.05878c-0.01306,0-0.02515,0.00366-0.03815,0.00378C9.30597,1.00067,8.20142,0,6.85297,0
	C5.37476,0,4.17645,1.1983,4.17645,2.67645c0,0.25958,0.04858,0.50549,0.11755,0.7428
	C3.31927,3.93066,2.64703,4.94049,2.64703,6.11761c0,0.29071,0.05353,0.56628,0.12927,0.8327
	C1.39227,7.2431,0.35297,8.46997,0.35297,9.94116C0.35297,11.63049,1.72241,13,3.41174,13H7v3h2v-3h3.58826
	c1.68933,0,3.05878-1.36951,3.05878-3.05884C15.64703,8.25177,14.27759,6.88232,12.58826,6.88232z"/>
</svg>
