<?xml version="1.0" encoding="utf-8"?>
<!-- Generator: Adobe Illustrator 19.2.1, SVG Export Plug-In . SVG Version: 6.00 Build 0)  -->
<!DOCTYPE svg PUBLIC "-//W3C//DTD SVG 1.1//EN" "http://www.w3.org/Graphics/SVG/1.1/DTD/svg11.dtd">
<svg version="1.1" id="Layer_1" xmlns="http://www.w3.org/2000/svg" xmlns:xlink="http://www.w3.org/1999/xlink" x="0px" y="0px"
	 width="24px" height="24px" viewBox="0 0 24 24" enable-background="new 0 0 24 24" xml:space="preserve">
<path d="M22.996,16.909C22.903,15.902,21.949,14,19,14h-5.002c-0.913-1.214-2.365-2-3.998-2H7.472C5.94,10.372,3.06,10,2,10H0v8.618
	l7.369,3.685c0.561,0.28,1.175,0.421,1.79,0.421c0.486,0,0.974-0.088,1.436-0.266l12.471-4.796L22.996,16.909z M9.876,20.591
	c-0.522,0.201-1.11,0.173-1.612-0.078L2,17.382V12c1.523,0,3.42,0.487,4.479,2H10c1.304,0,2.416,0.836,2.829,2H7
	c-0.553,0-1,0.448-1,1s0.447,1,1,1h8v-1c0-0.342-0.034-0.677-0.101-1H19c0.848,0,1.338,0.216,1.622,0.458L9.876,20.591z"/>
<path d="M14,11c1.966,0,4-1.496,4-4c0-2.193-2.733-5.129-3.281-5.695L14,0.562l-0.719,0.743C12.733,1.871,10,4.807,10,7
	C10,9.504,12.034,11,14,11z"/>
</svg>
