<?xml version="1.0" encoding="utf-8"?>
<!-- Generator: Adobe Illustrator 19.2.1, SVG Export Plug-In . SVG Version: 6.00 Build 0)  -->
<!DOCTYPE svg PUBLIC "-//W3C//DTD SVG 1.1//EN" "http://www.w3.org/Graphics/SVG/1.1/DTD/svg11.dtd">
<svg version="1.1" id="Layer_1" xmlns="http://www.w3.org/2000/svg" xmlns:xlink="http://www.w3.org/1999/xlink" x="0px" y="0px"
	 width="24px" height="24px" viewBox="0 0 24 24" enable-background="new 0 0 24 24" xml:space="preserve">
<path d="M20.208,14.244l-1.696,1.061L20.196,18H15v-2c0-0.404-0.244-0.77-0.617-0.924c-0.375-0.156-0.804-0.07-1.09,0.217l-3,3
	c-0.391,0.391-0.391,1.023,0,1.414l3,3C13.484,22.898,13.74,23,14,23c0.129,0,0.259-0.024,0.383-0.076C14.756,22.77,15,22.404,15,22
	v-2h7c0.363,0,0.698-0.197,0.875-0.516c0.176-0.317,0.166-0.706-0.026-1.015L20.208,14.244z"/>
<path d="M12.369,10.906c0.069,0.398,0.372,0.717,0.767,0.805l4.023,0.902c0.074,0.017,0.147,0.024,0.22,0.024
	c0.458,0,0.871-0.315,0.975-0.781l0.903-4.023c0.089-0.395-0.069-0.804-0.4-1.036c-0.332-0.234-0.771-0.244-1.111-0.027
	l-1.592,1.009l-3.304-5.307C12.667,2.179,12.346,2,12.001,2c0,0,0,0,0,0c-0.345,0-0.666,0.178-0.849,0.47L8.659,6.459l1.696,1.061
	l1.644-2.63l2.465,3.959l-1.644,1.042C12.478,10.107,12.3,10.508,12.369,10.906z"/>
<path d="M8.625,9.758C8.49,9.221,7.946,8.896,7.412,9.03l-4,1c-0.392,0.098-0.687,0.423-0.747,0.822
	c-0.06,0.4,0.128,0.797,0.475,1.005l1.574,0.944l-3.56,5.666c-0.194,0.309-0.205,0.697-0.028,1.016C1.301,19.803,1.636,20,2,20h5v-2
	H3.809l2.619-4.169l1.711,1.027C8.299,14.953,8.477,15,8.654,15c0.21,0,0.419-0.066,0.595-0.196
	c0.325-0.241,0.473-0.654,0.375-1.046L8.625,9.758z"/>
</svg>
