<?xml version="1.0" encoding="utf-8"?>
<!-- Generator: Adobe Illustrator 19.2.1, SVG Export Plug-In . SVG Version: 6.00 Build 0)  -->
<!DOCTYPE svg PUBLIC "-//W3C//DTD SVG 1.1//EN" "http://www.w3.org/Graphics/SVG/1.1/DTD/svg11.dtd">
<svg version="1.1" id="Layer_1" xmlns="http://www.w3.org/2000/svg" xmlns:xlink="http://www.w3.org/1999/xlink" x="0px" y="0px"
	 width="24px" height="24px" viewBox="0 0 24 24" enable-background="new 0 0 24 24" xml:space="preserve">
<path d="M3,24h18c0.553,0,1-0.448,1-1V10c0-0.286-0.122-0.558-0.336-0.748l-9-8c-0.379-0.337-0.949-0.337-1.328,0l-9,8
	C2.122,9.442,2,9.714,2,10v13C2,23.552,2.447,24,3,24z M8.969,12.553C11.113,10.408,16.627,10,16.627,10s-0.204,5.31-2.553,7.659
	c-2.293,2.293-5.736,1.457-6.295,1.301l3.636-4.045l-4.014,1.182C7.496,14.944,7.887,13.635,8.969,12.553z"/>
</svg>
