<?xml version="1.0" encoding="utf-8"?>
<!-- Generator: Adobe Illustrator 19.2.1, SVG Export Plug-In . SVG Version: 6.00 Build 0)  -->
<!DOCTYPE svg PUBLIC "-//W3C//DTD SVG 1.1//EN" "http://www.w3.org/Graphics/SVG/1.1/DTD/svg11.dtd">
<svg version="1.1" id="Layer_1" xmlns="http://www.w3.org/2000/svg" xmlns:xlink="http://www.w3.org/1999/xlink" x="0px" y="0px"
	 width="24px" height="24px" viewBox="0 0 24 24" enable-background="new 0 0 24 24" xml:space="preserve">
<path d="M23.555,12.168l-2.612-1.741L19.994,1.89C19.938,1.383,19.51,1,19,1H5C4.49,1,4.062,1.383,4.006,1.89l-0.949,8.537
	l-2.612,1.741C0.167,12.354,0,12.666,0,13v6c0,0.552,0.447,1,1,1h1v2c0,0.552,0.447,1,1,1h3c0.553,0,1-0.448,1-1v-2h10v2
	c0,0.552,0.447,1,1,1h3c0.553,0,1-0.448,1-1v-2h1c0.553,0,1-0.448,1-1v-6C24,12.666,23.833,12.354,23.555,12.168z M5.896,3h12.209
	l0.778,7H5.118L5.896,3z M8,16H3v-2h5V16z M21,16h-2v2h-2v-2h-2v-2h2v-2h2v2h2V16z"/>
</svg>
