<?xml version="1.0" encoding="utf-8"?>
<!-- Generator: Adobe Illustrator 19.2.1, SVG Export Plug-In . SVG Version: 6.00 Build 0)  -->
<!DOCTYPE svg PUBLIC "-//W3C//DTD SVG 1.1//EN" "http://www.w3.org/Graphics/SVG/1.1/DTD/svg11.dtd">
<svg version="1.1" id="Layer_1" xmlns="http://www.w3.org/2000/svg" xmlns:xlink="http://www.w3.org/1999/xlink" x="0px" y="0px"
	 width="24px" height="24px" viewBox="0 0 24 24" enable-background="new 0 0 24 24" xml:space="preserve">
<path d="M12,0C6.486,0,2,4.486,2,10c0,3.604,1.9,6.864,5,8.651V23c0,0.552,0.447,1,1,1h8c0.553,0,1-0.448,1-1v-4.349
	c3.1-1.787,5-5.047,5-8.651C22,4.486,17.514,0,12,0z M17,10c0,2.209-1.791,4-4,4v4h-2V6h2v3.38C13.733,8.541,14.798,8,16,8h1V10z"/>
</svg>
