<?xml version="1.0" encoding="utf-8"?>
<!-- Generator: Adobe Illustrator 19.2.1, SVG Export Plug-In . SVG Version: 6.00 Build 0)  -->
<!DOCTYPE svg PUBLIC "-//W3C//DTD SVG 1.1//EN" "http://www.w3.org/Graphics/SVG/1.1/DTD/svg11.dtd">
<svg version="1.1" id="Layer_1" xmlns="http://www.w3.org/2000/svg" xmlns:xlink="http://www.w3.org/1999/xlink" x="0px" y="0px"
	 width="24px" height="24px" viewBox="0 0 24 24" enable-background="new 0 0 24 24" xml:space="preserve">
<path d="M12,0C2,0,2,2.258,2,3s0,3,10,3s10-2.258,10-3S22,0,12,0z"/>
<path d="M2,6.372V21c0,0.742,0,3,10,3s10-2.258,10-3V6.372C19.73,7.744,15.842,8,12,8S4.27,7.744,2,6.372z M15.707,13l-2.293,2.293
	l2.293,2.293L14.293,19L12,16.707L9.707,19l-1.414-1.414l2.293-2.293L8.293,13l1.414-1.414L12,13.879l2.293-2.293L15.707,13z"/>
</svg>
