<?xml version="1.0" encoding="utf-8"?>
<!-- Generator: Adobe Illustrator 19.2.1, SVG Export Plug-In . SVG Version: 6.00 Build 0)  -->
<!DOCTYPE svg PUBLIC "-//W3C//DTD SVG 1.1//EN" "http://www.w3.org/Graphics/SVG/1.1/DTD/svg11.dtd">
<svg version="1.1" id="Layer_1" xmlns="http://www.w3.org/2000/svg" xmlns:xlink="http://www.w3.org/1999/xlink" x="0px" y="0px"
	 width="24px" height="24px" viewBox="0 0 24 24" enable-background="new 0 0 24 24" xml:space="preserve">
<circle cx="12" cy="12" r="3"/>
<path d="M16.984,2.194l-3.022,5.209C15.746,8.167,17,9.939,17,12c0,0.205-0.036,0.4-0.061,0.599l6.045-0.015
	c0.112-2.115-0.388-4.231-1.458-6.084C20.456,4.646,18.873,3.154,16.984,2.194z"/>
<path d="M7,12c0-2.061,1.254-3.833,3.038-4.597L7.016,2.194C5.127,3.154,3.544,4.646,2.474,6.5c-1.07,1.854-1.57,3.97-1.458,6.084
	l6.045,0.015C7.036,12.4,7,12.205,7,12z"/>
<path d="M12,17c-1.126,0-2.154-0.388-2.991-1.018l-3.007,5.239C7.777,22.375,9.86,23,12,23c2.141,0,4.225-0.625,6-1.781
	l-3.009-5.238C14.155,16.612,13.126,17,12,17z"/>
</svg>
