<?xml version="1.0" encoding="utf-8"?>
<!-- Generator: Adobe Illustrator 19.2.1, SVG Export Plug-In . SVG Version: 6.00 Build 0)  -->
<!DOCTYPE svg PUBLIC "-//W3C//DTD SVG 1.1//EN" "http://www.w3.org/Graphics/SVG/1.1/DTD/svg11.dtd">
<svg version="1.1" id="Layer_1" xmlns="http://www.w3.org/2000/svg" xmlns:xlink="http://www.w3.org/1999/xlink" x="0px" y="0px"
	 width="24px" height="24px" viewBox="0 0 24 24" enable-background="new 0 0 24 24" xml:space="preserve">
<path d="M23,4h-7V1c0-0.553-0.448-1-1-1H9C8.448,0,8,0.447,8,1v3H1C0.448,4,0,4.447,0,5s0.448,1,1,1h2v17c0,0.553,0.448,1,1,1h16
	c0.552,0,1-0.447,1-1V6h2c0.552,0,1-0.447,1-1S23.552,4,23,4z M10,2h4v2h-4V2z M16.243,19.242C15.109,20.376,13.603,21,12,21
	s-3.109-0.624-4.243-1.758C6.624,18.109,6,16.603,6,15s0.624-3.109,1.757-4.242C8.891,9.624,10.397,9,12,9
	c1.264,0,2.464,0.393,3.473,1.113l1.633-1.633l0.27,4.895l-4.874-0.29l1.511-1.511c-1.523-0.859-3.573-0.669-4.841,0.599
	C8.416,12.928,8,13.932,8,15s0.416,2.072,1.171,2.828c1.512,1.512,4.146,1.512,5.657,0c0.357-0.357,0.639-0.771,0.839-1.228
	l1.833,0.799C17.201,18.088,16.777,18.708,16.243,19.242z"/>
</svg>
