<?xml version="1.0" encoding="utf-8"?>
<!-- Generator: Adobe Illustrator 19.2.1, SVG Export Plug-In . SVG Version: 6.00 Build 0)  -->
<!DOCTYPE svg PUBLIC "-//W3C//DTD SVG 1.1//EN" "http://www.w3.org/Graphics/SVG/1.1/DTD/svg11.dtd">
<svg version="1.1" id="Layer_1" xmlns="http://www.w3.org/2000/svg" xmlns:xlink="http://www.w3.org/1999/xlink" x="0px" y="0px"
	 width="24px" height="24px" viewBox="0 0 24 24" enable-background="new 0 0 24 24" xml:space="preserve">
<path d="M20.5,14.524l-0.735,0.798C19.303,15.823,17,18.421,17,20.375C17,22.645,18.779,24,20.5,24s3.5-1.355,3.5-3.625
	c0-1.954-2.303-4.552-2.765-5.053L20.5,14.524z"/>
<path d="M19.644,7.178L19.64,7.157C20.352,8.263,21.587,9,23,9V1c-1.99,0-3.628,1.457-3.936,3.361l-0.008-0.037l-6.333,1.055L12,2H1
	v14h14l-1.258-5.871L19.644,7.178z"/>
</svg>
