<?xml version="1.0" encoding="utf-8"?>
<!-- Generator: Adobe Illustrator 19.2.1, SVG Export Plug-In . SVG Version: 6.00 Build 0)  -->
<!DOCTYPE svg PUBLIC "-//W3C//DTD SVG 1.1//EN" "http://www.w3.org/Graphics/SVG/1.1/DTD/svg11.dtd">
<svg version="1.1" id="Layer_1" xmlns="http://www.w3.org/2000/svg" xmlns:xlink="http://www.w3.org/1999/xlink" x="0px" y="0px"
	 width="24px" height="24px" viewBox="0 0 24 24" enable-background="new 0 0 24 24" xml:space="preserve">
<path d="M22,6h-2V4h-2v5c0,1.302,0.839,2.402,2,2.816V16.5c0,0.827-0.673,1.5-1.5,1.5S17,17.327,17,16.5V15V4c0-1.654-1.346-3-3-3H3
	C1.346,1,0,2.346,0,4v18c0,0.552,0.448,1,1,1h15c0.552,0,1-0.448,1-1v-2.351C17.456,19.867,17.961,20,18.5,20
	c1.93,0,3.5-1.57,3.5-3.5v-4.684c1.161-0.414,2-1.514,2-2.816V4h-2V6z M13,11H4V5h9V11z"/>
</svg>
