<?xml version="1.0" encoding="utf-8"?>
<!-- Generator: Adobe Illustrator 19.2.1, SVG Export Plug-In . SVG Version: 6.00 Build 0)  -->
<!DOCTYPE svg PUBLIC "-//W3C//DTD SVG 1.1//EN" "http://www.w3.org/Graphics/SVG/1.1/DTD/svg11.dtd">
<svg version="1.1" id="Layer_1" xmlns="http://www.w3.org/2000/svg" xmlns:xlink="http://www.w3.org/1999/xlink" x="0px" y="0px"
	 width="24px" height="24px" viewBox="0 0 24 24" enable-background="new 0 0 24 24" xml:space="preserve">
<path d="M3.002,11.976C3.077,11.992,3.151,12,3.224,12c0.457,0,0.869-0.314,0.974-0.779c0.394-1.737,1.379-3.315,2.774-4.443
	c0.429-0.347,0.496-0.977,0.149-1.406c-0.348-0.43-0.977-0.496-1.407-0.148c-1.742,1.409-2.974,3.382-3.466,5.557
	C2.126,11.317,2.463,11.854,3.002,11.976z"/>
<path d="M15.667,20.112c-2.24,1.158-4.967,1.179-7.225,0.056c-0.496-0.247-1.096-0.044-1.341,0.45
	c-0.246,0.494-0.044,1.095,0.45,1.341C8.941,22.649,10.438,23,12,23c1.594,0,3.18-0.385,4.586-1.112
	c0.491-0.253,0.683-0.856,0.429-1.348C16.761,20.051,16.158,19.858,15.667,20.112z"/>
<path d="M19.802,11.222C19.907,11.686,20.319,12,20.776,12c0.073,0,0.148-0.008,0.222-0.024c0.539-0.123,0.876-0.658,0.754-1.197
	c-0.494-2.174-1.725-4.147-3.466-5.556c-0.429-0.349-1.059-0.28-1.407,0.148c-0.347,0.43-0.28,1.06,0.149,1.406
	C18.422,7.905,19.407,9.483,19.802,11.222z"/>
<path d="M14,8.424V3c0-1.105-0.895-2-2-2s-2,0.895-2,2v5.424C10.614,8.154,11.288,8,12,8S13.386,8.154,14,8.424z"/>
<path d="M21.66,16.268l-4.715-2.722c-0.157,1.421-0.897,2.66-1.993,3.468l4.708,2.718c0.957,0.552,2.18,0.224,2.732-0.732
	C22.945,18.043,22.617,16.82,21.66,16.268z"/>
<path d="M7.055,13.545L2.34,16.268C1.383,16.82,1.055,18.043,1.608,19c0.552,0.957,1.776,1.284,2.732,0.732l4.708-2.718
	C7.952,16.206,7.212,14.967,7.055,13.545z"/>
<circle cx="12" cy="13" r="3"/>
</svg>
