<?xml version="1.0" encoding="utf-8"?>
<!-- Generator: Adobe Illustrator 19.2.1, SVG Export Plug-In . SVG Version: 6.00 Build 0)  -->
<!DOCTYPE svg PUBLIC "-//W3C//DTD SVG 1.1//EN" "http://www.w3.org/Graphics/SVG/1.1/DTD/svg11.dtd">
<svg version="1.1" id="Layer_1" xmlns="http://www.w3.org/2000/svg" xmlns:xlink="http://www.w3.org/1999/xlink" x="0px" y="0px"
	 width="24px" height="24px" viewBox="0 0 24 24" enable-background="new 0 0 24 24" xml:space="preserve">
<path d="M16,7c0-2.194-2.733-5.129-3.281-5.695L12,0.562l-0.719,0.742C10.733,1.871,8,4.806,8,7c0,2.504,2.034,4,4,4S16,9.504,16,7z
	"/>
<path d="M8.767,12.585C8.44,11.82,7.795,11.246,6.999,11.01c-0.532-0.158-1.088-0.153-1.607,0.003L4.58,8.578
	C4.065,7.036,2.628,6,1,6H0v10.062c0,1.449,0.394,2.872,1.14,4.115L3.434,24H11v-4.358c0-1.226-0.245-2.419-0.728-3.546
	L8.767,12.585z M9,22H4.566l-1.712-2.853C2.296,18.216,2,17.148,2,16.062V8.307C2.312,8.52,2.557,8.833,2.684,9.211l1.056,3.168
	c-0.372,0.707-0.438,1.563-0.128,2.341l1.46,3.651c0.205,0.514,0.792,0.764,1.3,0.558c0.513-0.205,0.763-0.787,0.558-1.3
	l-1.46-3.651c-0.147-0.367,0.006-0.758,0.295-0.951c0.415-0.276,0.971-0.108,1.165,0.347l1.506,3.511C8.81,17.76,9,18.688,9,19.642
	V22z"/>
<path d="M19.42,8.578l-0.812,2.435c-0.52-0.156-1.075-0.161-1.607-0.003c-0.796,0.236-1.441,0.811-1.768,1.575l-1.506,3.511
	C13.245,17.223,13,18.416,13,19.642V24h7.566l2.294-3.823c0.746-1.243,1.14-2.666,1.14-4.115V6h-1
	C21.372,6,19.935,7.036,19.42,8.578z M22,16.062c0,1.087-0.296,2.154-0.854,3.086L19.434,22H15v-2.358
	c0-0.954,0.19-1.882,0.565-2.758l1.506-3.511c0.194-0.455,0.75-0.622,1.165-0.347c0.289,0.193,0.442,0.584,0.295,0.951l-1.46,3.651
	c-0.205,0.513,0.045,1.095,0.558,1.3c0.508,0.206,1.095-0.044,1.3-0.558l1.46-3.651c0.311-0.777,0.244-1.634-0.128-2.341
	l1.056-3.168C21.443,8.833,21.688,8.52,22,8.307V16.062z"/>
</svg>
