<?xml version="1.0" encoding="utf-8"?>
<!-- Generator: Adobe Illustrator 19.1.0, SVG Export Plug-In . SVG Version: 6.00 Build 0)  -->
<!DOCTYPE svg PUBLIC "-//W3C//DTD SVG 1.1//EN" "http://www.w3.org/Graphics/SVG/1.1/DTD/svg11.dtd">
<svg version="1.1" id="Layer_1" xmlns="http://www.w3.org/2000/svg" xmlns:xlink="http://www.w3.org/1999/xlink" x="0px" y="0px"
	 width="64px" height="64px" viewBox="0 0 64 64" enable-background="new 0 0 64 64" xml:space="preserve">
<path d="M28,1c-2.8,0-5,2.2-5,5v0c-0.8-0.6-1.9-1-3-1c-2.8,0-5,2.2-5,5v52c0,0.6,0.4,1,1,1h21c0.4,0,0.7-0.2,0.9-0.6l2.1-4.2
	l2.1,4.2c0.2,0.3,0.5,0.6,0.9,0.6h5c0.6,0,1-0.4,1-1V14c0-2.8-2.2-5-5-5c-1.1,0-2.2,0.4-3,1v0c0-2.8-2.2-5-5-5c-1.1,0-2.2,0.4-3,1v0
	C33,3.2,30.8,1,28,1z M17,40.4l8.7-8.7c1.2-1.2,3.4-1.2,4.6,0c1.3,1.3,1.3,3.3,0,4.6l-5,5C25.1,41.5,25,41.7,25,42v19h-8V40.4z
	 M36,7c1.7,0,3,1.3,3,3v10c0,0.6,0.4,1,1,1s1-0.4,1-1v-6c0-1.7,1.3-3,3-3s3,1.3,3,3v47h-3.4l-2.7-5.4c-0.3-0.7-1.5-0.7-1.8,0
	L36.4,61H27V42.4l4.7-4.7c2-2,2-5.4,0-7.4c-1-1-2.3-1.5-3.7-1.5s-2.7,0.5-3.7,1.5L17,37.6V10c0-1.7,1.3-3,3-3s3,1.3,3,3v10
	c0,0.6,0.4,1,1,1s1-0.4,1-1V6c0-1.7,1.3-3,3-3s3,1.3,3,3v4v6v4c0,0.6,0.4,1,1,1s1-0.4,1-1v-4v-6C33,8.3,34.3,7,36,7z"/>
</svg>
