<?xml version="1.0" encoding="utf-8"?>
<!-- Generator: Adobe Illustrator 19.1.0, SVG Export Plug-In . SVG Version: 6.00 Build 0)  -->
<!DOCTYPE svg PUBLIC "-//W3C//DTD SVG 1.1//EN" "http://www.w3.org/Graphics/SVG/1.1/DTD/svg11.dtd">
<svg version="1.1" id="Layer_1" xmlns="http://www.w3.org/2000/svg" xmlns:xlink="http://www.w3.org/1999/xlink" x="0px" y="0px"
	 width="64px" height="64px" viewBox="0 0 64 64" enable-background="new 0 0 64 64" xml:space="preserve">
<path d="M48,39h-7V10c0-7.4-3.8-9-7-9c-5,0-11,6-11,11v27h-7c-0.6,0-1,0.4-1,1v22c0,0.6,0.4,1,1,1h32c0.6,0,1-0.4,1-1V40
	C49,39.4,48.6,39,48,39z M34,3c0.5,0,1.5,0,2.4,0.5c-0.2,7.2-3.9,10.8-11.4,11.1V12C25,8,30,3,34,3z M25,16.6
	c7.8-0.3,12.4-4,13.3-10.9c0.4,1,0.7,2.4,0.7,4.3v29H25V16.6z M47,61H17V41h30V61z"/>
</svg>
