<?xml version="1.0" encoding="utf-8"?>
<!-- Generator: Adobe Illustrator 19.1.0, SVG Export Plug-In . SVG Version: 6.00 Build 0)  -->
<!DOCTYPE svg PUBLIC "-//W3C//DTD SVG 1.1//EN" "http://www.w3.org/Graphics/SVG/1.1/DTD/svg11.dtd">
<svg version="1.1" id="Layer_1" xmlns="http://www.w3.org/2000/svg" xmlns:xlink="http://www.w3.org/1999/xlink" x="0px" y="0px"
	 width="64px" height="64px" viewBox="0 0 64 64" enable-background="new 0 0 64 64" xml:space="preserve">
<path d="M32,48c-0.6,0-1,0.4-1,1v4c0,0.6,0.4,1,1,1s1-0.4,1-1v-4C33,48.4,32.6,48,32,48z"/>
<path d="M62,9H50.2l-3.3-7.4c0-0.1-0.1-0.1-0.1-0.2c0,0,0,0,0-0.1c-0.1-0.1-0.2-0.2-0.3-0.2c0,0,0,0,0,0c0,0,0,0-0.1,0
	c-0.1,0-0.2-0.1-0.3-0.1c0,0-0.1,0-0.1,0c0,0,0,0-0.1,0H18c0,0,0,0,0,0c0,0-0.1,0-0.1,0c-0.1,0-0.2,0-0.3,0.1c0,0,0,0-0.1,0
	c0,0,0,0,0,0c-0.1,0.1-0.2,0.1-0.3,0.2c0,0,0,0,0,0c-0.1,0.1-0.1,0.1-0.1,0.2L13.8,9H2c-0.6,0-1,0.4-1,1v52c0,0.6,0.4,1,1,1h60
	c0.6,0,1-0.4,1-1V10C63,9.4,62.6,9,62,9z M15.4,10.4C15.4,10.4,15.4,10.4,15.4,10.4l2.7-6.1l12.3,24l-3.3,5.9L11.2,19.7L15.4,10.4z
	 M31.5,26.2L19.6,3h24.7L31.5,26.2z M45.9,4.2l2.7,6.1c0,0,0,0,0,0l4.1,9.3L27.1,38.5L45.9,4.2z M3,11h9.9l-3.8,8.6
	C8.9,20,9,20.4,9.3,20.7L26.1,36l-3,5.5c0,0,0,0,0,0l0,0c-0.1,0.1-0.1,0.2-0.1,0.3c0,0,0,0.1,0,0.1c0,0,0,0.1,0,0.1v19H3V11z M61,61
	H25V42.5l29.6-21.7c0.4-0.3,0.5-0.8,0.3-1.2L51.1,11H61V61z"/>
</svg>
