<?xml version="1.0" encoding="utf-8"?>
<!-- Generator: Adobe Illustrator 19.1.0, SVG Export Plug-In . SVG Version: 6.00 Build 0)  -->
<!DOCTYPE svg PUBLIC "-//W3C//DTD SVG 1.1//EN" "http://www.w3.org/Graphics/SVG/1.1/DTD/svg11.dtd">
<svg version="1.1" id="Layer_1" xmlns="http://www.w3.org/2000/svg" xmlns:xlink="http://www.w3.org/1999/xlink" x="0px" y="0px"
	 width="64px" height="64px" viewBox="0 0 64 64" enable-background="new 0 0 64 64" xml:space="preserve">
<path d="M42,23h-6c-0.6,0-1,0.4-1,1s0.4,1,1,1h6c0.6,0,1-0.4,1-1S42.6,23,42,23z"/>
<path d="M54,1H44c-0.6,0-1,0.4-1,1c0,6.1-4.9,11-11,11S21,8.1,21,2c0-0.6-0.4-1-1-1H10c-5,0-9,4-9,9v38c0,1.1,0.9,2,2,2v4
	c0,0.6,0.4,1,1,1h9v7c0,0.6,0.4,1,1,1h36c0.6,0,1-0.4,1-1v-7h9c0.6,0,1-0.4,1-1v-4c1.1,0,2-0.9,2-2V10C63,5,59,1,54,1z M5,53v-3h8v3
	H5z M51,53v-3h8v3H51z M61,48h-1h-9V28c0-0.6-0.4-1-1-1s-1,0.4-1,1v26v7H15v-7V28c0-0.6-0.4-1-1-1s-1,0.4-1,1v20H4H3V10
	c0-3.9,3.1-7,7-7h9c0.5,6.7,6.1,12,13,12S44.4,9.7,45,3h9c3.9,0,7,3.1,7,7V48z"/>
</svg>
