<?xml version="1.0" encoding="utf-8"?>
<!-- Generator: Adobe Illustrator 19.1.0, SVG Export Plug-In . SVG Version: 6.00 Build 0)  -->
<!DOCTYPE svg PUBLIC "-//W3C//DTD SVG 1.1//EN" "http://www.w3.org/Graphics/SVG/1.1/DTD/svg11.dtd">
<svg version="1.1" id="Layer_1" xmlns="http://www.w3.org/2000/svg" xmlns:xlink="http://www.w3.org/1999/xlink" x="0px" y="0px"
	 width="64px" height="64px" viewBox="0 0 64 64" enable-background="new 0 0 64 64" xml:space="preserve">
<path d="M62.5,9.3l-10-6.2C52.4,3.1,52.2,3,52,3H42c-0.6,0-1,0.4-1,1c0,5-4,9-9,9s-9-4-9-9c0-0.6-0.4-1-1-1H12
	c-0.2,0-0.4,0.1-0.5,0.1l-10,6.2C1.2,9.5,1,9.8,1,10.2V26c0,0.6,0.4,1,1,1h9v33c0,0.6,0.4,1,1,1h40c0.6,0,1-0.4,1-1V27h9
	c0.6,0,1-0.4,1-1V10.2C63,9.8,62.8,9.5,62.5,9.3z M61,25h-9c-0.6,0-1,0.4-1,1v33H13V26c0-0.6-0.4-1-1-1H3V10.7L12.3,5H21
	c0.5,5.6,5.2,10,11,10s10.4-4.4,11-10h8.8l9.3,5.7V25z"/>
</svg>
