<?xml version="1.0" encoding="utf-8"?>
<!-- Generator: Adobe Illustrator 19.1.0, SVG Export Plug-In . SVG Version: 6.00 Build 0)  -->
<!DOCTYPE svg PUBLIC "-//W3C//DTD SVG 1.1//EN" "http://www.w3.org/Graphics/SVG/1.1/DTD/svg11.dtd">
<svg version="1.1" id="Layer_1" xmlns="http://www.w3.org/2000/svg" xmlns:xlink="http://www.w3.org/1999/xlink" x="0px" y="0px"
	 width="64px" height="64px" viewBox="0 0 64 64" enable-background="new 0 0 64 64" xml:space="preserve">
<path d="M12,63h40c2.8,0,5-2.2,5-5v-8c0-5.6-4.2-9-11-9H35V2c0-0.6-0.4-1-1-1H8C7.4,1,7,1.4,7,2v56C7,60.8,9.2,63,12,63z M52,61H12
	c-1.7,0-3-1.3-3-3v-1h46v1C55,59.7,53.7,61,52,61z M33,3v10h-7c-0.6,0-1,0.4-1,1s0.4,1,1,1h7v6h-7c-0.6,0-1,0.4-1,1s0.4,1,1,1h7v6
	h-7c-0.6,0-1,0.4-1,1s0.4,1,1,1h7v11c0,0.6,0.4,1,1,1h12c2.1,0,9,0.5,9,7v5H9V3H33z"/>
</svg>
