<?xml version="1.0" encoding="utf-8"?>
<!-- Generator: Adobe Illustrator 19.1.0, SVG Export Plug-In . SVG Version: 6.00 Build 0)  -->
<!DOCTYPE svg PUBLIC "-//W3C//DTD SVG 1.1//EN" "http://www.w3.org/Graphics/SVG/1.1/DTD/svg11.dtd">
<svg version="1.1" id="Layer_1" xmlns="http://www.w3.org/2000/svg" xmlns:xlink="http://www.w3.org/1999/xlink" x="0px" y="0px"
	 width="64px" height="64px" viewBox="0 0 64 64" enable-background="new 0 0 64 64" xml:space="preserve">
<path d="M8,63h48c0.6,0,1-0.4,1-1c0-18.5-8.6-35.6-10-38.2c0.3-2,2-11.9,2-21.8c0-0.6-0.4-1-1-1c-8.9,0-14.2,3.9-16,5.6
	C30.2,4.9,24.9,1,16,1c-0.6,0-1,0.4-1,1c0,9.9,1.6,19.9,2,21.8C15.6,26.4,7,43.5,7,62C7,62.6,7.4,63,8,63z M31.2,8.7
	c0.4,0.4,1.1,0.4,1.5,0c0-0.1,4.7-5.3,14.2-5.6c-0.1,8.8-1.4,17.3-1.8,20H18.8c-0.4-2.6-1.7-11.2-1.8-20C26.5,3.4,31.2,8.6,31.2,8.7
	z M18.6,25H31v7c0,0.6,0.4,1,1,1s1-0.4,1-1v-7h12.4c1.6,3,9.3,18.8,9.6,36H9C9.3,43.8,17,28,18.6,25z"/>
</svg>
