<?xml version="1.0" encoding="utf-8"?>
<!-- Generator: Adobe Illustrator 19.1.0, SVG Export Plug-In . SVG Version: 6.00 Build 0)  -->
<!DOCTYPE svg PUBLIC "-//W3C//DTD SVG 1.1//EN" "http://www.w3.org/Graphics/SVG/1.1/DTD/svg11.dtd">
<svg version="1.1" id="Layer_1" xmlns="http://www.w3.org/2000/svg" xmlns:xlink="http://www.w3.org/1999/xlink" x="0px" y="0px"
	 width="64px" height="64px" viewBox="0 0 64 64" enable-background="new 0 0 64 64" xml:space="preserve">
<path d="M25.5,40.9l10,6C35.6,47,35.8,47,36,47s0.4,0,0.5-0.1l10-6c0.3-0.2,0.5-0.5,0.5-0.9V24c0-0.6-0.4-1-1-1H26c-0.6,0-1,0.4-1,1
	v16C25,40.4,25.2,40.7,25.5,40.9z M36,44.8l-9-5.4V31h18v8.4L36,44.8z M45,25v4H27v-4H45z"/>
<path d="M14,63h42c0.6,0,1-0.4,1-1V2c0-0.6-0.4-1-1-1H16c-0.6,0-1,0.4-1,1v23.6l-7.8,9.7C7,35.6,7,35.9,7,36.2l6,26
	C13.1,62.7,13.5,63,14,63z M55,10H43V3h12V10z M31,10V3h10v7H31z M29,3v7H17V3H29z M16.8,26.6c0.1-0.2,0.2-0.4,0.2-0.6V12h38v49
	H14.8L9.1,36.2L16.8,26.6z"/>
</svg>
