<?xml version="1.0" encoding="utf-8"?>
<!-- Generator: Adobe Illustrator 19.1.0, SVG Export Plug-In . SVG Version: 6.00 Build 0)  -->
<!DOCTYPE svg PUBLIC "-//W3C//DTD SVG 1.1//EN" "http://www.w3.org/Graphics/SVG/1.1/DTD/svg11.dtd">
<svg version="1.1" id="Layer_1" xmlns="http://www.w3.org/2000/svg" xmlns:xlink="http://www.w3.org/1999/xlink" x="0px" y="0px"
	 width="64px" height="64px" viewBox="0 0 64 64" enable-background="new 0 0 64 64" xml:space="preserve">
<path d="M62,13h-9.1c1.3-1.3,2.1-3,2.1-5c0-3.9-3.1-7-7-7H16c-3.9,0-7,3.1-7,7c0,2,0.8,3.7,2.1,5H2c-0.6,0-1,0.4-1,1v48
	c0,0.6,0.4,1,1,1h60c0.6,0,1-0.4,1-1V14C63,13.4,62.6,13,62,13z M11,8c0-2.8,2.2-5,5-5h32c2.8,0,5,2.2,5,5s-2.2,5-5,5h-2
	c-0.6,0-1,0.4-1,1c0,7.2-5.8,13-13,13s-13-5.8-13-13c0-0.6-0.4-1-1-1h-2C13.2,13,11,10.8,11,8z M61,61H3V15h14c0.3,4.5,2.6,8.4,6,11
	v20c0,0.6,0.4,1,1,1s1-0.4,1-1V27.3c2.1,1.1,4.5,1.7,7,1.7s4.9-0.6,7-1.7V46c0,0.6,0.4,1,1,1s1-0.4,1-1V26c3.4-2.6,5.7-6.5,6-11h14
	V61z"/>
</svg>
