<?xml version="1.0" encoding="utf-8"?>
<!-- Generator: Adobe Illustrator 19.1.0, SVG Export Plug-In . SVG Version: 6.00 Build 0)  -->
<!DOCTYPE svg PUBLIC "-//W3C//DTD SVG 1.1//EN" "http://www.w3.org/Graphics/SVG/1.1/DTD/svg11.dtd">
<svg version="1.1" id="Layer_1" xmlns="http://www.w3.org/2000/svg" xmlns:xlink="http://www.w3.org/1999/xlink" x="0px" y="0px"
	 width="64px" height="64px" viewBox="0 0 64 64" enable-background="new 0 0 64 64" xml:space="preserve">
<path d="M52,49h-9c-0.6,0-1,0.4-1,1s0.4,1,1,1h9c0.6,0,1-0.4,1-1S52.6,49,52,49z"/>
<path d="M62,9H52l-3-7.4c0-0.1-0.1-0.2-0.1-0.2c0,0,0,0,0,0c-0.1-0.1-0.2-0.2-0.3-0.2c0,0,0,0,0,0c0,0,0,0-0.1,0
	c-0.1,0-0.2-0.1-0.3-0.1c0,0-0.1,0-0.1,0c0,0,0,0-0.1,0H16c0,0,0,0-0.1,0c0,0-0.1,0-0.1,0c-0.1,0-0.2,0-0.3,0.1c0,0,0,0-0.1,0
	c0,0,0,0,0,0c-0.1,0.1-0.2,0.1-0.3,0.2c0,0,0,0,0,0c-0.1,0.1-0.1,0.1-0.1,0.2L12,9H2c-0.6,0-1,0.4-1,1v52c0,0.6,0.4,1,1,1h60
	c0.6,0,1-0.4,1-1V10C63,9.4,62.6,9,62,9z M43.1,28.4l1.7,3.4L33,45.3V32.3L47.9,4.3l2.5,6c0,0,0,0,0,0l3.4,8.3l-10.4,8.5
	C43,27.5,42.9,28,43.1,28.4z M20.6,27.2l-10.4-8.5l3.4-8.3c0,0,0,0,0,0l2.5-6L31,32.3v13.1L19.2,31.8l1.7-3.4
	C21.1,28,21,27.5,20.6,27.2z M32,29.9L17.7,3h28.7L32,29.9z M3,11h8.2l-3.1,7.6c-0.2,0.4,0,0.9,0.3,1.2l10.4,8.5l-1.6,3.3
	c-0.2,0.4-0.1,0.8,0.1,1.1L31,48.4V61H3V11z M61,61H33V48.4l13.8-15.7c0.3-0.3,0.3-0.7,0.1-1.1l-1.6-3.3l10.4-8.5
	c0.3-0.3,0.5-0.7,0.3-1.2L52.8,11H61V61z"/>
</svg>
