<?xml version="1.0" encoding="utf-8"?>
<!-- Generator: Adobe Illustrator 19.1.0, SVG Export Plug-In . SVG Version: 6.00 Build 0)  -->
<!DOCTYPE svg PUBLIC "-//W3C//DTD SVG 1.1//EN" "http://www.w3.org/Graphics/SVG/1.1/DTD/svg11.dtd">
<svg version="1.1" id="Layer_1" xmlns="http://www.w3.org/2000/svg" xmlns:xlink="http://www.w3.org/1999/xlink" x="0px" y="0px"
	 width="64px" height="64px" viewBox="0 0 64 64" enable-background="new 0 0 64 64" xml:space="preserve">
<path d="M6,63h22c0.6,0,1-0.4,1-1V38c0-1.7,1.3-3,3-3s3,1.3,3,3v24c0,0.6,0.4,1,1,1h22c0.6,0,1-0.4,1-1V2c0-0.6-0.4-1-1-1H6
	C5.4,1,5,1.4,5,2v60C5,62.6,5.4,63,6,63z M37,61V38c0-2.8-2.2-5-5-5s-5,2.2-5,5v23H7V30.9c5.6-0.5,10-5.2,10-10.9c0-0.6-0.4-1-1-1
	s-1,0.4-1,1c0,4.6-3.5,8.4-8,8.9V11h24v12.8c0,0.6,0.4,1,1,1s1-0.4,1-1V11h24v17.9c-4.5-0.5-8-4.3-8-8.9c0-0.6-0.4-1-1-1s-1,0.4-1,1
	c0,5.7,4.4,10.4,10,10.9V61H37z M33,9V3h11v6H33z M31,9H20V3h11V9z M57,9H46V3h11V9z M18,3v6H7V3H18z"/>
</svg>
