<?xml version="1.0" encoding="utf-8"?>
<!-- Generator: Adobe Illustrator 19.1.0, SVG Export Plug-In . SVG Version: 6.00 Build 0)  -->
<!DOCTYPE svg PUBLIC "-//W3C//DTD SVG 1.1//EN" "http://www.w3.org/Graphics/SVG/1.1/DTD/svg11.dtd">
<svg version="1.1" id="Layer_1" xmlns="http://www.w3.org/2000/svg" xmlns:xlink="http://www.w3.org/1999/xlink" x="0px" y="0px"
	 width="64px" height="64px" viewBox="0 0 64 64" enable-background="new 0 0 64 64" xml:space="preserve">
<path d="M62,23H43v-3c0-0.6-0.4-1-1-1H22c-0.6,0-1,0.4-1,1v3H2c-0.6,0-1,0.4-1,1v16c0,0.6,0.4,1,1,1h19v3c0,0.6,0.4,1,1,1h20
	c0.6,0,1-0.4,1-1v-3h19c0.6,0,1-0.4,1-1V24C63,23.4,62.6,23,62,23z M3,39V25h18v14H3z M41,43H23V33h5c0.6,0,1-0.4,1-1s-0.4-1-1-1h-5
	V21h18V43z M61,39H43V25h18V39z"/>
<path d="M48,33h1c0.6,0,1-0.4,1-1s-0.4-1-1-1h-1c-0.6,0-1,0.4-1,1S47.4,33,48,33z"/>
<path d="M55,33h1c0.6,0,1-0.4,1-1s-0.4-1-1-1h-1c-0.6,0-1,0.4-1,1S54.4,33,55,33z"/>
</svg>
