<?xml version="1.0" encoding="utf-8"?>
<!-- Generator: Adobe Illustrator 19.1.0, SVG Export Plug-In . SVG Version: 6.00 Build 0)  -->
<!DOCTYPE svg PUBLIC "-//W3C//DTD SVG 1.1//EN" "http://www.w3.org/Graphics/SVG/1.1/DTD/svg11.dtd">
<svg version="1.1" id="Layer_1" xmlns="http://www.w3.org/2000/svg" xmlns:xlink="http://www.w3.org/1999/xlink" x="0px" y="0px"
	 width="64px" height="64px" viewBox="0 0 64 64" enable-background="new 0 0 64 64" xml:space="preserve">
<path d="M62,9H2c-0.6,0-1,0.4-1,1v28c0,0.6,0.4,1,1,1h8c6.1,0,11,4.9,11,11v4c0,0.6,0.4,1,1,1h20c0.6,0,1-0.4,1-1v-4
	c0-6.1,4.9-11,11-11h8c0.6,0,1-0.4,1-1V10C63,9.4,62.6,9,62,9z M61,11v6H3v-6H61z M3,37V19h16c-0.1,7.3-1.5,13-7.3,18.1
	C11.1,37,10.6,37,10,37H3z M41,50v3H23v-3c0-5.8-3.8-10.6-9-12.3C20.1,31.7,20.9,25,21,19h22c0.1,6,0.9,12.7,6.9,18.7
	C44.8,39.4,41,44.2,41,50z M54,37c-0.6,0-1.1,0-1.7,0.1C46.5,32,45.1,26.3,45,19h16v18H54z"/>
</svg>
