<?xml version="1.0" encoding="utf-8"?>
<!-- Generator: Adobe Illustrator 19.1.0, SVG Export Plug-In . SVG Version: 6.00 Build 0)  -->
<!DOCTYPE svg PUBLIC "-//W3C//DTD SVG 1.1//EN" "http://www.w3.org/Graphics/SVG/1.1/DTD/svg11.dtd">
<svg version="1.1" id="Layer_1" xmlns="http://www.w3.org/2000/svg" xmlns:xlink="http://www.w3.org/1999/xlink" x="0px" y="0px"
	 width="64px" height="64px" viewBox="0 0 64 64" enable-background="new 0 0 64 64" xml:space="preserve">
<path d="M17.2,51.1L19,62.2c0.1,0.5,0.5,0.8,1,0.8h20c0.5,0,0.9-0.4,1-0.8l1.8-11.1c4.8-3.2,8.3-8.3,9.6-14.1H56c0.6,0,1-0.4,1-1v-8
	c0-0.6-0.4-1-1-1h-3.6c-1.3-5.8-4.8-10.8-9.6-14.1L41,1.8C40.9,1.4,40.5,1,40,1H20c-0.5,0-0.9,0.4-1,0.8l-1.8,11.1
	C11,17,7,24.1,7,32S11,47,17.2,51.1z M39.2,61H20.8l-1.4-8.6C22.6,54.1,26.2,55,30,55s7.4-0.9,10.6-2.6L39.2,61z M55,29v6h-2.2
	c0.1-1,0.2-2,0.2-3s-0.1-2-0.2-3H55z M20.8,3h18.3l1.4,8.6C37.4,9.9,33.8,9,30,9s-7.4,0.9-10.6,2.6L20.8,3z M30,11
	c10.2,0,18.7,7.3,20.6,17c0,0,0,0,0,0c0,0.1,0,0.1,0,0.1c0.2,1.3,0.4,2.5,0.4,3.9s-0.1,2.6-0.4,3.9c0,0.1,0,0.1,0,0.1c0,0,0,0,0,0
	C48.7,45.7,40.2,53,30,53C18.4,53,9,43.6,9,32S18.4,11,30,11z"/>
<path d="M30,33h10c0.6,0,1-0.4,1-1s-0.4-1-1-1h-9v-9c0-0.6-0.4-1-1-1s-1,0.4-1,1v10C29,32.6,29.4,33,30,33z"/>
</svg>
