<?xml version="1.0" encoding="utf-8"?>
<!-- Generator: Adobe Illustrator 19.1.0, SVG Export Plug-In . SVG Version: 6.00 Build 0)  -->
<!DOCTYPE svg PUBLIC "-//W3C//DTD SVG 1.1//EN" "http://www.w3.org/Graphics/SVG/1.1/DTD/svg11.dtd">
<svg version="1.1" id="Layer_1" xmlns="http://www.w3.org/2000/svg" xmlns:xlink="http://www.w3.org/1999/xlink" x="0px" y="0px"
	 width="64px" height="64px" viewBox="0 0 64 64" enable-background="new 0 0 64 64" xml:space="preserve">
<path d="M2,53h56c0.3,0,0.7-0.2,0.9-0.5s0.2-0.7,0-1L55,43.8C54.9,31.2,44.6,21,32,21H3v-3c0-2.8,2.2-5,5-5h18c0.6,0,1-0.4,1-1
	s-0.4-1-1-1H8c-3.9,0-7,3.1-7,7v4v22v8C1,52.6,1.4,53,2,53z M3,51v-6h50.4l3,6H3z M53,43H3V23h29C43.2,23,52.5,31.9,53,43z"/>
</svg>
