<?xml version="1.0" encoding="utf-8"?>
<!-- Generator: Adobe Illustrator 19.1.0, SVG Export Plug-In . SVG Version: 6.00 Build 0)  -->
<!DOCTYPE svg PUBLIC "-//W3C//DTD SVG 1.1//EN" "http://www.w3.org/Graphics/SVG/1.1/DTD/svg11.dtd">
<svg version="1.1" id="Layer_1" xmlns="http://www.w3.org/2000/svg" xmlns:xlink="http://www.w3.org/1999/xlink" x="0px" y="0px"
	 width="64px" height="64px" viewBox="0 0 64 64" enable-background="new 0 0 64 64" xml:space="preserve">
<path d="M4.7,57.8C5.4,58.5,6.5,59,7.6,59c0.8,0,1.7-0.3,2.5-0.9l16.5-13.2l16.8,16.8c0.2,0.2,0.5,0.3,0.7,0.3s0.5-0.1,0.7-0.3
	c0.4-0.4,0.4-1,0-1.4L28.2,43.6l12-9.6l3.3,3.3c1.8,1.8,4.2,2.8,6.8,2.8s5-1,6.8-2.8c1.8-1.8,2.8-4.2,2.8-6.8c0-2.6-1-5-2.8-6.8
	l-1.8-1.8l1.2-1c2.4-1.9,3.8-4.7,4-7.7s-1-6-3.1-8.1C55.2,3,52.3,1.8,49.3,2c-3,0.2-5.8,1.6-7.7,4l-1,1.2l-5.3-5.3
	c-0.4-0.4-1-0.4-1.4,0s-0.4,1,0,1.4l5.5,5.5l-9.6,12l-6.2-6.2c-3.8-3.8-9.9-3.8-13.6,0c-3.8,3.8-3.8,9.9,0,13.6l7.7,7.7L4.4,52.4
	C2.9,54.3,3.5,56.6,4.7,57.8z M55.7,25.1c1.4,1.4,2.2,3.4,2.2,5.4c0,2-0.8,4-2.2,5.4s-3.4,2.2-5.4,2.2c-2,0-4-0.8-5.4-2.2l-3.1-3.1
	l12-9.6L55.7,25.1z M41.4,9.4C41.4,9.4,41.4,9.4,41.4,9.4c0.1-0.1,0.1-0.1,0.1-0.1l1.6-2c1.5-1.9,3.8-3.1,6.3-3.2c0.2,0,0.3,0,0.5,0
	c2.3,0,4.5,0.9,6.1,2.6c1.7,1.7,2.7,4.1,2.5,6.6c-0.1,2.5-1.3,4.7-3.2,6.3l-1.4,1.1L48.4,15l1.3-1.3c0.4-0.4,0.4-1,0-1.4
	s-1-0.4-1.4,0l-4,4c-0.4,0.4-0.4,1,0,1.4c0.2,0.2,0.5,0.3,0.7,0.3s0.5-0.1,0.7-0.3l1.3-1.3l5.3,5.3l-12,9.6l-9.2-9.2L41.4,9.4z
	 M11.4,26.7c-3-3-3-7.8,0-10.8c3-3,7.8-3,10.8,0l6.3,6.3l-9.6,12L11.4,26.7z M6,53.6l23.9-29.9l8.9,8.9L8.9,56.5
	c-1.1,0.8-2.1,0.4-2.7-0.2C5.5,55.8,5.1,54.7,6,53.6z"/>
</svg>
