<?xml version="1.0" encoding="utf-8"?>
<!-- Generator: Adobe Illustrator 19.1.0, SVG Export Plug-In . SVG Version: 6.00 Build 0)  -->
<!DOCTYPE svg PUBLIC "-//W3C//DTD SVG 1.1//EN" "http://www.w3.org/Graphics/SVG/1.1/DTD/svg11.dtd">
<svg version="1.1" id="Layer_1" xmlns="http://www.w3.org/2000/svg" xmlns:xlink="http://www.w3.org/1999/xlink" x="0px" y="0px"
	 width="64px" height="64px" viewBox="0 0 64 64" enable-background="new 0 0 64 64" xml:space="preserve">
<path d="M30,1c-0.6,0-1,0.4-1,1v4v17H12c-3.9,0-7,3.1-7,7v28v4c0,0.6,0.4,1,1,1s1-0.4,1-1v-3h8v3c0,0.6,0.4,1,1,1s1-0.4,1-1v-3h6v3
	c0,0.6,0.4,1,1,1s1-0.4,1-1v-3h8v3c0,0.6,0.4,1,1,1s1-0.4,1-1v-4V39h17c3.9,0,7-3.1,7-7V6V2c0-0.6-0.4-1-1-1s-1,0.4-1,1v3h-8V2
	c0-0.6-0.4-1-1-1s-1,0.4-1,1v3h-6V2c0-0.6-0.4-1-1-1s-1,0.4-1,1v3h-8V2C31,1.4,30.6,1,30,1z M7,30c0-2.8,2.2-5,5-5h23.1
	c-1.3,1.3-2.1,3-2.1,5v27H7V30z M35,37v-7c0-2.8,2.2-5,5-5s5,2.2,5,5v2c0,2,0.8,3.7,2.1,5H35z M57,32c0,2.8-2.2,5-5,5s-5-2.2-5-5v-2
	c0-3.9-3.1-7-7-7h-9V7h26V32z"/>
</svg>
