<?xml version="1.0" encoding="utf-8"?>
<!-- Generator: Adobe Illustrator 19.1.0, SVG Export Plug-In . SVG Version: 6.00 Build 0)  -->
<!DOCTYPE svg PUBLIC "-//W3C//DTD SVG 1.1//EN" "http://www.w3.org/Graphics/SVG/1.1/DTD/svg11.dtd">
<svg version="1.1" id="Layer_1" xmlns="http://www.w3.org/2000/svg" xmlns:xlink="http://www.w3.org/1999/xlink" x="0px" y="0px"
	 width="64px" height="64px" viewBox="0 0 64 64" enable-background="new 0 0 64 64" xml:space="preserve">
<path d="M6,63h8c0.6,0,1-0.4,1-1V49.1c2.2,0.4,4.4,2.3,7,4.6c4.8,4.1,10.7,9.3,20.9,9.3H60c0.6,0,1-0.4,1-1v-6.9
	c0-3.4-2.5-6.3-5.8-6.9l-6.7-1.1L33,31.6V2c0-0.6-0.4-1-1-1H6C5.4,1,5,1.4,5,2v60C5,62.6,5.4,63,6,63z M7,3h24v29
	c0,0.3,0.1,0.5,0.3,0.7l16,16c0.1,0.1,0.3,0.2,0.5,0.3l7,1.2c2.4,0.4,4.2,2.5,4.2,4.9V61H42.9c-9.4,0-15.1-4.9-19.6-8.8
	c-3.2-2.8-6-5.2-9.3-5.2c-0.6,0-1,0.4-1,1v13H7V3z"/>
</svg>
