<?xml version="1.0" encoding="utf-8"?>
<!-- Generator: Adobe Illustrator 19.1.0, SVG Export Plug-In . SVG Version: 6.00 Build 0)  -->
<!DOCTYPE svg PUBLIC "-//W3C//DTD SVG 1.1//EN" "http://www.w3.org/Graphics/SVG/1.1/DTD/svg11.dtd">
<svg version="1.1" id="Layer_1" xmlns="http://www.w3.org/2000/svg" xmlns:xlink="http://www.w3.org/1999/xlink" x="0px" y="0px"
	 width="64px" height="64px" viewBox="0 0 64 64" enable-background="new 0 0 64 64" xml:space="preserve">
<path d="M62,11c-0.6,0-1,0.4-1,1v8.7c-2.1,1.5-4.6,2.3-7.2,2.3c-1.8,0-3.4-0.3-4.8-0.9V4c0-0.6-0.4-1-1-1H24c-0.6,0-1,0.4-1,1v9.6
	l-8.7,8.7C13,22.8,11.6,23,10.2,23c-2.6,0-5-0.8-7.2-2.3V12c0-0.6-0.4-1-1-1s-1,0.4-1,1v48c0,0.6,0.4,1,1,1h60c0.6,0,1-0.4,1-1V12
	C63,11.4,62.6,11,62,11z M24.7,14.7c0.2-0.2,0.3-0.4,0.3-0.7V5h22v33v4v6c0,1.7-1.3,3-3,3s-3-1.3-3-3V38c0-0.6-0.4-1-1-1s-1,0.4-1,1
	v10c0,1.7-1.3,3-3,3s-3-1.3-3-3V38c0-0.6-0.4-1-1-1s-1,0.4-1,1v10c0,1.7-1.3,3-3,3s-3-1.3-3-3V26c0-0.4-0.2-0.8-0.6-0.9
	c-0.4-0.2-0.8-0.1-1.1,0.2l-5,5c-1.2,1.2-3.4,1.2-4.6,0c-1.3-1.3-1.3-3.3,0-4.6l1.8-1.8c0,0,0,0,0,0L24.7,14.7z M3,59V23.1
	c2.2,1.3,4.6,1.9,7.2,1.9c0.5,0,1.1,0,1.6-0.1c-1.5,2.1-1.4,5,0.5,6.8c1,1,2.3,1.5,3.7,1.5s2.7-0.5,3.7-1.5l3.3-3.3V48
	c0,2.8,2.2,5,5,5c1.6,0,3.1-0.8,4-2c0.9,1.2,2.4,2,4,2s3.1-0.8,4-2c0.9,1.2,2.4,2,4,2c2.8,0,5-2.2,5-5v-6v-4V24.2
	c1.5,0.5,3.1,0.8,4.8,0.8c2.5,0,5-0.7,7.2-1.9V59H3z"/>
</svg>
