<?xml version="1.0" encoding="utf-8"?>
<!-- Generator: Adobe Illustrator 19.1.0, SVG Export Plug-In . SVG Version: 6.00 Build 0)  -->
<!DOCTYPE svg PUBLIC "-//W3C//DTD SVG 1.1//EN" "http://www.w3.org/Graphics/SVG/1.1/DTD/svg11.dtd">
<svg version="1.1" id="Layer_1" xmlns="http://www.w3.org/2000/svg" xmlns:xlink="http://www.w3.org/1999/xlink" x="0px" y="0px"
	 width="64px" height="64px" viewBox="0 0 64 64" enable-background="new 0 0 64 64" xml:space="preserve">
<path d="M62,7c-0.6,0-1,0.4-1,1v8.7c-2.1,1.5-4.6,2.3-7.2,2.3c-4,0-7.7-1.9-10.1-5.1c-0.2-0.3-0.5-0.4-0.8-0.4
	c-0.3,0-0.6,0.1-0.8,0.4C39.7,17.1,36,19,32,19c-4,0-7.7-1.9-10.1-5.1c-0.2-0.3-0.5-0.4-0.8-0.4c-0.3,0-0.6,0.1-0.8,0.4
	c-2.4,3.3-6.1,5.1-10.1,5.1c-2.6,0-5-0.8-7.2-2.3V8c0-0.6-0.4-1-1-1S1,7.4,1,8v48c0,0.6,0.4,1,1,1h60c0.6,0,1-0.4,1-1V8
	C63,7.4,62.6,7,62,7z M3,55V19.1c2.2,1.3,4.6,1.9,7.2,1.9c4.2,0,8.1-1.8,10.9-4.9C23.9,19.2,27.8,21,32,21c4.2,0,8.1-1.8,10.9-4.9
	c2.8,3.2,6.7,4.9,10.9,4.9c2.5,0,5-0.7,7.2-1.9V55H3z"/>
<path d="M22,31h2c1.7,0,3,1.3,3,3c0,0.6,0.4,1,1,1s1-0.4,1-1c0-2.8-2.2-5-5-5h-2c-2.8,0-5,2.2-5,5v8c0,2.8,2.2,5,5,5h2
	c2.8,0,5-2.2,5-5s-2.2-5-5-5h-2c-1.1,0-2.2,0.4-3,1v-4C19,32.3,20.3,31,22,31z M22,39h2c1.7,0,3,1.3,3,3s-1.3,3-3,3h-2
	c-1.7,0-3-1.3-3-3S20.3,39,22,39z"/>
<path d="M41,29c-3.3,0-6,2.7-6,6v6c0,3.3,2.7,6,6,6s6-2.7,6-6v-6C47,31.7,44.3,29,41,29z M45,41c0,2.2-1.8,4-4,4s-4-1.8-4-4v-6
	c0-2.2,1.8-4,4-4s4,1.8,4,4V41z"/>
</svg>
