<?xml version="1.0" encoding="utf-8"?>
<!-- Generator: Adobe Illustrator 19.2.0, SVG Export Plug-In . SVG Version: 6.00 Build 0)  -->
<!DOCTYPE svg PUBLIC "-//W3C//DTD SVG 1.1//EN" "http://www.w3.org/Graphics/SVG/1.1/DTD/svg11.dtd">
<svg version="1.1" id="Layer_1" xmlns="http://www.w3.org/2000/svg" xmlns:xlink="http://www.w3.org/1999/xlink" x="0px" y="0px"
	 width="48px" height="48px" viewBox="0 0 48 48" enable-background="new 0 0 48 48" xml:space="preserve">
<path d="M46,47c0.553,0,1-0.448,1-1V2c0-0.552-0.447-1-1-1H2C1.447,1,1,1.448,1,2v44c0,0.552,0.447,1,1,1H46z M6,7h36
	c0.553,0,1,0.448,1,1s-0.447,1-1,1H6C5.447,9,5,8.552,5,8S5.447,7,6,7z M6,15h36c0.553,0,1,0.448,1,1s-0.447,1-1,1H6
	c-0.553,0-1-0.448-1-1S5.447,15,6,15z M6,23h36c0.553,0,1,0.448,1,1s-0.447,1-1,1H6c-0.553,0-1-0.448-1-1S5.447,23,6,23z M6,31h36
	c0.553,0,1,0.448,1,1s-0.447,1-1,1H6c-0.553,0-1-0.448-1-1S5.447,31,6,31z M6,39h36c0.553,0,1,0.448,1,1s-0.447,1-1,1H6
	c-0.553,0-1-0.448-1-1S5.447,39,6,39z"/>
</svg>
