<?xml version="1.0" encoding="utf-8"?>
<!-- Generator: Adobe Illustrator 19.2.0, SVG Export Plug-In . SVG Version: 6.00 Build 0)  -->
<!DOCTYPE svg PUBLIC "-//W3C//DTD SVG 1.1//EN" "http://www.w3.org/Graphics/SVG/1.1/DTD/svg11.dtd">
<svg version="1.1" id="Layer_1" xmlns="http://www.w3.org/2000/svg" xmlns:xlink="http://www.w3.org/1999/xlink" x="0px" y="0px"
	 width="48px" height="48px" viewBox="0 0 48 48" enable-background="new 0 0 48 48" xml:space="preserve">
<path d="M47,6H15c-0.552,0-1,0.448-1,1v2c0,0.552,0.448,1,1,1h32c0.552,0,1-0.448,1-1V7C48,6.448,47.552,6,47,6z"/>
<path d="M15,26h20c0.552,0,1-0.448,1-1v-2c0-0.552-0.448-1-1-1H15c-0.552,0-1,0.448-1,1v2C14,25.552,14.448,26,15,26z"/>
<path d="M47,38H15c-0.552,0-1,0.448-1,1v2c0,0.552,0.448,1,1,1h32c0.552,0,1-0.448,1-1v-2C48,38.448,47.552,38,47,38z"/>
<path d="M9.518,11.763l-1.477-0.126c-0.271-0.018-0.288-0.071-0.288-0.359V2.814H3.432L3.233,4.291L4.8,4.615
	c0.181,0.054,0.234,0.162,0.234,0.378v6.284c0,0.27-0.036,0.342-0.288,0.359l-1.549,0.126v1.423h6.32V11.763z"/>
<path d="M5.989,20.624c0.954,0,1.278,0.485,1.278,1.152c0,1.026-0.774,1.746-2.593,3.511l-2.413,2.358v1.675h8.318v-3.385H8.672
	L8.42,27.358c-0.036,0.181-0.108,0.217-0.288,0.217H5.484l2.035-1.945c1.315-1.26,2.484-2.376,2.484-4.069
	c0-1.692-0.99-2.881-3.781-2.881c-1.891,0-4.069,0.469-4.087,3.331l2.448,0.217C4.584,20.949,4.998,20.624,5.989,20.624z"/>
<path d="M10.715,42.575c0-1.62-0.846-2.538-2.377-2.772V39.73c1.135-0.342,2.071-1.296,2.071-2.809c0-1.927-1.062-2.989-3.835-2.989
	c-1.891,0-4.033,0.486-4.033,3.331l2.467,0.217c0-1.278,0.468-1.603,1.439-1.603c1.009,0,1.315,0.558,1.315,1.242
	c0,1.152-0.702,1.782-1.998,1.944l-0.883,0.108v1.8c0.541-0.09,0.883-0.126,1.333-0.126c1.116,0,1.801,0.45,1.801,1.549
	c0,1.261-0.864,1.62-1.873,1.62c-1.261,0-2.017-0.521-2.701-1.188L2,44.412c0.919,1.009,2.539,1.656,4.357,1.656
	C8.933,46.068,10.715,44.952,10.715,42.575z"/>
</svg>
