<?xml version="1.0" encoding="utf-8"?>
<!-- Generator: Adobe Illustrator 19.2.0, SVG Export Plug-In . SVG Version: 6.00 Build 0)  -->
<!DOCTYPE svg PUBLIC "-//W3C//DTD SVG 1.1//EN" "http://www.w3.org/Graphics/SVG/1.1/DTD/svg11.dtd">
<svg version="1.1" id="Layer_1" xmlns="http://www.w3.org/2000/svg" xmlns:xlink="http://www.w3.org/1999/xlink" x="0px" y="0px"
	 width="48px" height="48px" viewBox="0 0 48 48" enable-background="new 0 0 48 48" xml:space="preserve">
<path d="M46,44H2c-0.552,0-1,0.448-1,1s0.448,1,1,1h44c0.552,0,1-0.448,1-1S46.552,44,46,44z"/>
<path d="M10,7.562v17.532c0,7.53,5.774,14.018,13.295,14.389C31.334,39.879,38,33.453,38,25.5V7.562c0-0.918,0.625-1.718,1.515-1.94
	L42,5V2H29v3l2.485,0.621C32.375,5.844,33,6.644,33,7.562v17.62c0,4.789-3.605,8.977-8.383,9.297C19.377,34.831,15,30.667,15,25.5
	V7.562c0-0.918,0.625-1.718,1.515-1.94L19,5V2H6v3l2.485,0.621C9.375,5.844,10,6.644,10,7.562z"/>
</svg>
