<?xml version="1.0" encoding="utf-8"?>
<!-- Generator: Adobe Illustrator 19.2.0, SVG Export Plug-In . SVG Version: 6.00 Build 0)  -->
<!DOCTYPE svg PUBLIC "-//W3C//DTD SVG 1.1//EN" "http://www.w3.org/Graphics/SVG/1.1/DTD/svg11.dtd">
<svg version="1.1" id="Layer_1" xmlns="http://www.w3.org/2000/svg" xmlns:xlink="http://www.w3.org/1999/xlink" x="0px" y="0px"
	 width="48px" height="48px" viewBox="0 0 48 48" enable-background="new 0 0 48 48" xml:space="preserve">
<path d="M41.582,26.004c-2.33-0.834-4.946-0.72-8.099-0.72c0.74-7.698,5.964-12.29,12.952-15.676L44.169,5.96
	c-8.482,3.727-17.83,12.672-17.83,21.946c0,8.081,3.566,14.134,11.748,14.134c4.952,0,8.913-3.927,8.913-8.223
	C47,30.108,45.211,27.303,41.582,26.004z"/>
<path d="M21.096,9.609L18.83,5.96C10.349,9.687,1,18.631,1,27.906C1,35.987,4.566,42.04,12.748,42.04
	c4.952,0,8.913-3.927,8.913-8.223c0-2.197-0.636-4.219-2.167-5.808c-2.147-2.225-5.363-2.724-8.459-2.724H8.144
	C8.884,17.587,14.108,12.995,21.096,9.609z"/>
</svg>
