<?xml version="1.0" encoding="utf-8"?>
<!-- Generator: Adobe Illustrator 19.2.0, SVG Export Plug-In . SVG Version: 6.00 Build 0)  -->
<!DOCTYPE svg PUBLIC "-//W3C//DTD SVG 1.1//EN" "http://www.w3.org/Graphics/SVG/1.1/DTD/svg11.dtd">
<svg version="1.1" id="Layer_1" xmlns="http://www.w3.org/2000/svg" xmlns:xlink="http://www.w3.org/1999/xlink" x="0px" y="0px"
	 width="48px" height="48px" viewBox="0 0 48 48" enable-background="new 0 0 48 48" xml:space="preserve">
<path d="M42,34c0-6.077-2.956-10.061-9.884-10.852v-0.181c3.706-1.215,7.413-4.436,7.413-10.211C39.529,6.741,36.611,2,26.219,2H6
	v4.862l2.547,0.725C9.407,7.831,10,8.617,10,9.51v29.023c0,0.873-0.566,1.646-1.399,1.908L6,41.259V46h19.673
	C35.213,46,42,42.994,42,34z M20,8h5c3.314,0,6,2.686,6,6s-2.686,6-6,6h-5V8z M20,27h7c3.314,0,6,2.686,6,6s-2.686,6-6,6h-7V27z"/>
</svg>
