<?xml version="1.0" encoding="utf-8"?>
<!-- Generator: Adobe Illustrator 19.2.0, SVG Export Plug-In . SVG Version: 6.00 Build 0)  -->
<!DOCTYPE svg PUBLIC "-//W3C//DTD SVG 1.1//EN" "http://www.w3.org/Graphics/SVG/1.1/DTD/svg11.dtd">
<svg version="1.1" id="Layer_1" xmlns="http://www.w3.org/2000/svg" xmlns:xlink="http://www.w3.org/1999/xlink" x="0px" y="0px"
	 width="48px" height="48px" viewBox="0 0 48 48" enable-background="new 0 0 48 48" xml:space="preserve">
<path d="M40.284,42.037c-0.036,0.181-0.108,0.217-0.288,0.217h-2.647l2.035-1.945c1.314-1.26,2.484-2.376,2.484-4.069
	c0-1.692-0.99-2.881-3.781-2.881c-1.891,0-4.069,0.469-4.087,3.331l2.448,0.217c0-1.278,0.414-1.603,1.405-1.603
	c0.954,0,1.278,0.485,1.278,1.152c0,1.026-0.774,1.746-2.593,3.511l-2.413,2.358V44h8.318v-3.385h-1.908L40.284,42.037z"/>
<path d="M38,14V5H5v9h3l1.215-4.302C9.341,9.067,9.53,9,10.231,9H19v26.25c0,0.952-0.048,1.205-0.938,1.273L13,37v3h17v-3
	l-5.062-0.545C23.986,36.393,24,36.14,24,35.25V9h8.771c0.698,0,0.89,0.067,1.017,0.698L35,14H38z"/>
</svg>
