<?xml version="1.0" encoding="utf-8"?>
<!-- Generator: Adobe Illustrator 19.2.0, SVG Export Plug-In . SVG Version: 6.00 Build 0)  -->
<!DOCTYPE svg PUBLIC "-//W3C//DTD SVG 1.1//EN" "http://www.w3.org/Graphics/SVG/1.1/DTD/svg11.dtd">
<svg version="1.1" id="Layer_1" xmlns="http://www.w3.org/2000/svg" xmlns:xlink="http://www.w3.org/1999/xlink" x="0px" y="0px"
	 width="48px" height="48px" viewBox="0 0 48 48" enable-background="new 0 0 48 48" xml:space="preserve">
<path d="M46,1H2C1.448,1,1,1.448,1,2v44c0,0.552,0.448,1,1,1h44c0.552,0,1-0.448,1-1V2C47,1.448,46.552,1,46,1z M42,41H6
	c-0.552,0-1-0.448-1-1s0.448-1,1-1h36c0.552,0,1,0.448,1,1S42.552,41,42,41z M15,32c0-0.552,0.448-1,1-1h16c0.552,0,1,0.448,1,1
	s-0.448,1-1,1H16C15.448,33,15,32.552,15,32z M42,25H6c-0.552,0-1-0.448-1-1s0.448-1,1-1h36c0.552,0,1,0.448,1,1S42.552,25,42,25z
	 M15,16c0-0.552,0.448-1,1-1h16c0.552,0,1,0.448,1,1s-0.448,1-1,1H16C15.448,17,15,16.552,15,16z M42,9H6C5.448,9,5,8.552,5,8
	s0.448-1,1-1h36c0.552,0,1,0.448,1,1S42.552,9,42,9z"/>
</svg>
