<?xml version="1.0" encoding="utf-8"?>
<!-- Generator: Adobe Illustrator 19.2.0, SVG Export Plug-In . SVG Version: 6.00 Build 0)  -->
<!DOCTYPE svg PUBLIC "-//W3C//DTD SVG 1.1//EN" "http://www.w3.org/Graphics/SVG/1.1/DTD/svg11.dtd">
<svg version="1.1" id="Layer_1" xmlns="http://www.w3.org/2000/svg" xmlns:xlink="http://www.w3.org/1999/xlink" x="0px" y="0px"
	 width="48px" height="48px" viewBox="0 0 48 48" enable-background="new 0 0 48 48" xml:space="preserve">
<path d="M36.771,6c0.698,0,0.89,0.067,1.017,0.698L39,12h4V1H5v11h4l1.215-5.302C10.341,6.067,10.53,6,11.231,6H21v35.25
	c0,0.952-0.048,1.205-0.938,1.273L13,43v4h22v-4l-7.062-0.545C26.986,42.393,27,42.14,27,41.25V6H36.771z"/>
<path d="M43,23h-4v-4c0-0.552-0.448-1-1-1s-1,0.448-1,1v4h-4c-0.552,0-1,0.448-1,1s0.448,1,1,1h4v4c0,0.553,0.448,1,1,1s1-0.447,1-1
	v-4h4c0.552,0,1-0.448,1-1S43.552,23,43,23z"/>
<path d="M15,25c0.552,0,1-0.448,1-1s-0.448-1-1-1H5c-0.552,0-1,0.448-1,1s0.448,1,1,1H15z"/>
</svg>
