<?xml version="1.0" encoding="utf-8"?>
<!-- Generator: Adobe Illustrator 19.2.0, SVG Export Plug-In . SVG Version: 6.00 Build 0)  -->
<!DOCTYPE svg PUBLIC "-//W3C//DTD SVG 1.1//EN" "http://www.w3.org/Graphics/SVG/1.1/DTD/svg11.dtd">
<svg version="1.1" id="Layer_1" xmlns="http://www.w3.org/2000/svg" xmlns:xlink="http://www.w3.org/1999/xlink" x="0px" y="0px"
	 width="48px" height="48px" viewBox="0 0 48 48" enable-background="new 0 0 48 48" xml:space="preserve">
<polygon points="13.528,8.939 10.594,17.691 16.413,17.691 "/>
<path d="M46,1H2C1.448,1,1,1.448,1,2v44c0,0.553,0.448,1,1,1h44c0.552,0,1-0.447,1-1V2C47,1.448,46.552,1,46,1z M5,23.682
	l1.07-0.273c0.398-0.099,0.521-0.174,0.622-0.473L12.16,7h2.885l5.569,15.961c0.099,0.299,0.298,0.348,0.596,0.422l1.119,0.274V25
	h-6.067v-1.342l2.039-0.224l-1.342-3.928h-6.937l-1.318,3.928l2.014,0.224V25H5V23.682z M42,41H6c-0.552,0-1-0.447-1-1s0.448-1,1-1
	h36c0.552,0,1,0.447,1,1S42.552,41,42,41z M42,33H6c-0.552,0-1-0.447-1-1s0.448-1,1-1h36c0.552,0,1,0.447,1,1S42.552,33,42,33z
	 M42,25H28c-0.552,0-1-0.448-1-1s0.448-1,1-1h14c0.552,0,1,0.448,1,1S42.552,25,42,25z M42,17H28c-0.552,0-1-0.448-1-1s0.448-1,1-1
	h14c0.552,0,1,0.448,1,1S42.552,17,42,17z M42,9H28c-0.552,0-1-0.448-1-1s0.448-1,1-1h14c0.552,0,1,0.448,1,1S42.552,9,42,9z"/>
</svg>
