<?xml version="1.0" encoding="utf-8"?>
<!-- Generator: Adobe Illustrator 20.0.0, SVG Export Plug-In . SVG Version: 6.00 Build 0)  -->
<!DOCTYPE svg PUBLIC "-//W3C//DTD SVG 1.1//EN" "http://www.w3.org/Graphics/SVG/1.1/DTD/svg11.dtd">
<svg version="1.1" id="Layer_1" xmlns="http://www.w3.org/2000/svg" xmlns:xlink="http://www.w3.org/1999/xlink" x="0px" y="0px"
	 width="48px" height="48px" viewBox="0 0 48 48" enable-background="new 0 0 48 48" xml:space="preserve">
<path d="M22,27c6.195,0,11-6.988,11-13v-2c0-6.065-4.935-11-11-11S11,5.935,11,12v2C11,20.012,15.805,27,22,27z"/>
<path d="M2,45h27.474C27.341,42.992,26,40.153,26,37c0-2.493,0.843-4.787,2.246-6.633C26.319,30.145,24.235,30,22,30
	c-6.554,0-11.926,1.188-15.278,2.185C3.3,33.203,1,36.286,1,39.856V44C1,44.552,1.448,45,2,45z"/>
<path d="M28,37c0,4.963,4.037,9,9,9c4.963,0,9-4.037,9-9c0-4.963-4.037-9-9-9C32.037,28,28,32.037,28,37z M31.293,37.293
	c0.391-0.391,1.023-0.391,1.414,0L35,39.586l6.293-6.293c0.391-0.391,1.023-0.391,1.414,0s0.391,1.023,0,1.414l-7,7
	C35.512,41.902,35.256,42,35,42s-0.512-0.098-0.707-0.293l-3-3C30.902,38.316,30.902,37.684,31.293,37.293z"/>
</svg>
