<?xml version="1.0" encoding="utf-8"?>
<!-- Generator: Adobe Illustrator 20.0.0, SVG Export Plug-In . SVG Version: 6.00 Build 0)  -->
<!DOCTYPE svg PUBLIC "-//W3C//DTD SVG 1.1//EN" "http://www.w3.org/Graphics/SVG/1.1/DTD/svg11.dtd">
<svg version="1.1" id="Layer_1" xmlns="http://www.w3.org/2000/svg" xmlns:xlink="http://www.w3.org/1999/xlink" x="0px" y="0px"
	 width="48px" height="48px" viewBox="0 0 48 48" enable-background="new 0 0 48 48" xml:space="preserve">
<circle cx="9" cy="10" r="5"/>
<circle cx="24" cy="8" r="7"/>
<path d="M1.684,31.949l2.38,0.793l0.94,10.349C5.051,43.605,5.483,44,6,44h6c0.517,0,0.949-0.395,0.996-0.91l0.644-7.088
	l-0.368-0.092C11.934,35.576,11,34.379,11,33V22c0-1.906,0.768-3.634,2.008-4.898C12.682,17.035,12.345,17,12,17H6
	c-2.757,0-5,2.243-5,5v9C1,31.431,1.275,31.812,1.684,31.949z"/>
<circle cx="39" cy="10" r="5"/>
<path d="M42,17h-6c-0.345,0-0.682,0.035-1.008,0.102C36.232,18.366,37,20.094,37,22v11c0,1.379-0.934,2.576-2.272,2.911
	l-0.368,0.092l0.644,7.088C35.051,43.605,35.483,44,36,44h6c0.517,0,0.949-0.395,0.996-0.91l0.94-10.349l2.38-0.793
	C46.725,31.812,47,31.431,47,31v-9C47,19.243,44.757,17,42,17z"/>
<path d="M35,33V22c0-2.757-2.243-5-5-5H18c-2.757,0-5,2.243-5,5v11c0,0.459,0.312,0.859,0.757,0.97l3.306,0.826l0.94,11.287
	C18.047,46.602,18.48,47,19,47h10c0.52,0,0.953-0.398,0.997-0.917l0.94-11.287l3.306-0.826C34.688,33.859,35,33.459,35,33z"/>
</svg>
