<?xml version="1.0" encoding="utf-8"?>
<!-- Generator: Adobe Illustrator 20.0.0, SVG Export Plug-In . SVG Version: 6.00 Build 0)  -->
<!DOCTYPE svg PUBLIC "-//W3C//DTD SVG 1.1//EN" "http://www.w3.org/Graphics/SVG/1.1/DTD/svg11.dtd">
<svg version="1.1" id="Layer_1" xmlns="http://www.w3.org/2000/svg" xmlns:xlink="http://www.w3.org/1999/xlink" x="0px" y="0px"
	 width="48px" height="48px" viewBox="0 0 48 48" enable-background="new 0 0 48 48" xml:space="preserve">
<path d="M24,47c12.682,0,23-10.318,23-23S36.682,1,24,1S1,11.318,1,24S11.318,47,24,47z M3.089,22.236
	c2.658-3.33,6.237-3.336,10.744-3.334c5.119,0.012,11.45,0.007,17.959-5.399c4.957,7.216,10.906,8.954,13.15,9.364
	C44.963,23.245,45,23.618,45,24c0,11.58-9.42,21-21,21S3,35.58,3,24C3,23.405,3.041,22.819,3.089,22.236z"/>
<circle cx="15" cy="29" r="3"/>
<circle cx="33" cy="29" r="3"/>
</svg>
