<?xml version="1.0" encoding="utf-8"?>
<!-- Generator: Adobe Illustrator 20.0.0, SVG Export Plug-In . SVG Version: 6.00 Build 0)  -->
<!DOCTYPE svg PUBLIC "-//W3C//DTD SVG 1.1//EN" "http://www.w3.org/Graphics/SVG/1.1/DTD/svg11.dtd">
<svg version="1.1" id="Layer_1" xmlns="http://www.w3.org/2000/svg" xmlns:xlink="http://www.w3.org/1999/xlink" x="0px" y="0px"
	 width="48px" height="48px" viewBox="0 0 48 48" enable-background="new 0 0 48 48" xml:space="preserve">
<path d="M45,1H3C1.895,1,1,1.895,1,3v42c0,1.105,0.895,2,2,2h42c1.105,0,2-0.895,2-2V3C47,1.895,46.105,1,45,1z M15,16
	c0-4.963,4.038-9,9-9s9,4.037,9,9v4c0,4.963-4.038,9-9,9s-9-4.037-9-9V16z M38,44H10c-0.552,0-1-0.447-1-1c0-6.065,4.935-11,11-11h8
	c6.065,0,11,4.935,11,11C39,43.553,38.552,44,38,44z"/>
</svg>
