<?xml version="1.0" encoding="utf-8"?>
<!-- Generator: Adobe Illustrator 20.0.0, SVG Export Plug-In . SVG Version: 6.00 Build 0)  -->
<!DOCTYPE svg PUBLIC "-//W3C//DTD SVG 1.1//EN" "http://www.w3.org/Graphics/SVG/1.1/DTD/svg11.dtd">
<svg version="1.1" id="Layer_1" xmlns="http://www.w3.org/2000/svg" xmlns:xlink="http://www.w3.org/1999/xlink" x="0px" y="0px"
	 width="48px" height="48px" viewBox="0 0 48 48" enable-background="new 0 0 48 48" xml:space="preserve">
<circle cx="24" cy="5" r="5"/>
<path d="M44.984,13.747C44.861,12.731,43.933,12,42.91,12H24H5.09c-1.023,0-1.951,0.731-2.074,1.747C2.865,14.983,3.824,15.886,5,16
	l12,1v28.363c0,1.298,0.929,2.482,2.22,2.622c1.48,0.161,2.728-0.972,2.772-2.408l0.939-13.579C22.97,31.436,23.437,31,24,31
	s1.03,0.436,1.069,0.998l0.939,13.579c0.044,1.436,1.292,2.569,2.772,2.408c1.291-0.14,2.22-1.324,2.22-2.622V17l12-1
	C44.176,15.886,45.135,14.983,44.984,13.747z"/>
</svg>
