<?xml version="1.0" encoding="utf-8"?>
<!-- Generator: Adobe Illustrator 20.0.0, SVG Export Plug-In . SVG Version: 6.00 Build 0)  -->
<!DOCTYPE svg PUBLIC "-//W3C//DTD SVG 1.1//EN" "http://www.w3.org/Graphics/SVG/1.1/DTD/svg11.dtd">
<svg version="1.1" id="Layer_1" xmlns="http://www.w3.org/2000/svg" xmlns:xlink="http://www.w3.org/1999/xlink" x="0px" y="0px"
	 width="48px" height="48px" viewBox="0 0 48 48" enable-background="new 0 0 48 48" xml:space="preserve">
<path d="M39,30c0,8.271-6.729,15-15,15S9,38.271,9,30v-4H7v4c0,9.374,7.626,17,17,17s17-7.626,17-17v-4h-2V30z"/>
<path d="M44.287,7.042l-20-6c-0.188-0.057-0.387-0.057-0.574,0l-20,6C3.443,7.123,3.222,7.312,3.1,7.565S2.967,8.11,3.071,8.371
	L7,18.192V24h34v-5.808l3.929-9.821c0.104-0.261,0.094-0.553-0.028-0.806S44.557,7.123,44.287,7.042z M24,20c-2.209,0-4-1.791-4-4
	c0-2.209,1.791-4,4-4s4,1.791,4,4C28,18.209,26.209,20,24,20z"/>
</svg>
