<?xml version="1.0" encoding="utf-8"?>
<!-- Generator: Adobe Illustrator 20.0.0, SVG Export Plug-In . SVG Version: 6.00 Build 0)  -->
<!DOCTYPE svg PUBLIC "-//W3C//DTD SVG 1.1//EN" "http://www.w3.org/Graphics/SVG/1.1/DTD/svg11.dtd">
<svg version="1.1" id="Layer_1" xmlns="http://www.w3.org/2000/svg" xmlns:xlink="http://www.w3.org/1999/xlink" x="0px" y="0px"
	 width="48px" height="48px" viewBox="0 0 48 48" enable-background="new 0 0 48 48" xml:space="preserve">
<path d="M46,1H22c-0.553,0-1,0.448-1,1v21c0,0.382,0.218,0.73,0.561,0.898C21.7,23.966,21.851,24,22,24
	c0.218,0,0.435-0.071,0.614-0.21L31.343,17H46c0.553,0,1-0.448,1-1V2C47,1.448,46.553,1,46,1z"/>
<path d="M21,46v-2.328c0-1.538-0.676-2.957-1.854-3.892C17.548,38.512,14.837,37,11,37s-6.548,1.512-8.146,2.78
	C1.676,40.715,1,42.134,1,43.672V46c0,0.553,0.447,1,1,1h18C20.553,47,21,46.553,21,46z"/>
<circle cx="11" cy="28" r="6"/>
<path d="M45.146,39.78C43.548,38.512,40.837,37,37,37s-6.548,1.512-8.146,2.78C27.676,40.715,27,42.134,27,43.672V46
	c0,0.553,0.447,1,1,1h18c0.553,0,1-0.447,1-1v-2.328C47,42.134,46.324,40.715,45.146,39.78z"/>
<circle cx="37" cy="28" r="6"/>
</svg>
