<?xml version="1.0" encoding="utf-8"?>
<!-- Generator: Adobe Illustrator 20.0.0, SVG Export Plug-In . SVG Version: 6.00 Build 0)  -->
<!DOCTYPE svg PUBLIC "-//W3C//DTD SVG 1.1//EN" "http://www.w3.org/Graphics/SVG/1.1/DTD/svg11.dtd">
<svg version="1.1" id="Layer_1" xmlns="http://www.w3.org/2000/svg" xmlns:xlink="http://www.w3.org/1999/xlink" x="0px" y="0px"
	 width="48px" height="48px" viewBox="0 0 48 48" enable-background="new 0 0 48 48" xml:space="preserve">
<path d="M24,47c12.683,0,23-10.318,23-23S36.683,1,24,1S1,11.318,1,24S11.317,47,24,47z M24,3c11.579,0,21,9.42,21,21
	c0,6.198-2.715,11.761-7,15.608v-0.126c0-2.153-1.154-4.141-3.023-5.209l-4.162-2.388C28.901,33.851,26.383,35,24,35
	s-4.901-1.148-6.815-3.115l-4.162,2.387C11.154,35.341,10,37.329,10,39.482v0.126C5.715,35.761,3,30.198,3,24C3,12.42,12.421,3,24,3
	z"/>
<path d="M24,33c4.418,0,8-4.582,8-9v-4c0-4.418-3.582-8-8-8s-8,3.582-8,8v4C16,28.418,19.582,33,24,33z"/>
</svg>
