<?xml version="1.0" encoding="utf-8"?>
<!-- Generator: Adobe Illustrator 20.0.0, SVG Export Plug-In . SVG Version: 6.00 Build 0)  -->
<!DOCTYPE svg PUBLIC "-//W3C//DTD SVG 1.1//EN" "http://www.w3.org/Graphics/SVG/1.1/DTD/svg11.dtd">
<svg version="1.1" id="Layer_1" xmlns="http://www.w3.org/2000/svg" xmlns:xlink="http://www.w3.org/1999/xlink" x="0px" y="0px"
	 width="48px" height="48px" viewBox="0 0 48 48" enable-background="new 0 0 48 48" xml:space="preserve">
<path d="M45,1H3C1.895,1,1,1.895,1,3v42c0,1.105,0.895,2,2,2h42c1.105,0,2-0.895,2-2V3C47,1.895,46.105,1,45,1z M38,40
	c0,0.552-0.448,1-1,1H11c-0.552,0-1-0.448-1-1v-2h0.038l-0.018-0.014c0.271-4.777,2.999-6.289,6.982-7.617
	c2.149-0.716,3.183-2.503,3.693-4.09C17.928,25.021,16,22.238,16,19v-2c0-4.418,3.582-8,8-8s8,3.582,8,8v2
	c0,3.237-1.926,6.018-4.691,7.277c0.515,1.59,1.552,3.378,3.693,4.092c3.983,1.328,6.707,2.844,6.978,7.62L37.967,38H38V40z"/>
</svg>
