<?xml version="1.0" encoding="utf-8"?>
<!-- Generator: Adobe Illustrator 20.0.0, SVG Export Plug-In . SVG Version: 6.00 Build 0)  -->
<!DOCTYPE svg PUBLIC "-//W3C//DTD SVG 1.1//EN" "http://www.w3.org/Graphics/SVG/1.1/DTD/svg11.dtd">
<svg version="1.1" id="Layer_1" xmlns="http://www.w3.org/2000/svg" xmlns:xlink="http://www.w3.org/1999/xlink" x="0px" y="0px"
	 width="48px" height="48px" viewBox="0 0 48 48" enable-background="new 0 0 48 48" xml:space="preserve">
<path d="M22,27c6.195,0,11-6.988,11-13v-2c0-6.065-4.935-11-11-11S11,5.935,11,12v2C11,20.012,15.805,27,22,27z"/>
<path d="M29,36c0,3.86,3.141,7,7,7c1.57,0,3.015-0.526,4.184-1.401l5.109,5.109C45.488,46.902,45.744,47,46,47
	s0.512-0.098,0.707-0.293c0.391-0.391,0.391-1.023,0-1.414l-5.109-5.108C42.474,39.016,43,37.57,43,36c0-3.86-3.141-7-7-7
	S29,32.14,29,36z M36,31c2.757,0,5,2.243,5,5s-2.243,5-5,5s-5-2.243-5-5S33.243,31,36,31z"/>
<path d="M2,45h34c-4.963,0-9-4.038-9-9c0-2.097,0.727-4.024,1.934-5.556C26.824,30.174,24.5,30,22,30
	c-6.553,0-11.925,1.188-15.278,2.185C3.3,33.203,1,36.286,1,39.856V44C1,44.552,1.447,45,2,45z"/>
</svg>
