<?xml version="1.0" encoding="utf-8"?>
<!-- Generator: Adobe Illustrator 20.0.0, SVG Export Plug-In . SVG Version: 6.00 Build 0)  -->
<!DOCTYPE svg PUBLIC "-//W3C//DTD SVG 1.1//EN" "http://www.w3.org/Graphics/SVG/1.1/DTD/svg11.dtd">
<svg version="1.1" id="Layer_1" xmlns="http://www.w3.org/2000/svg" xmlns:xlink="http://www.w3.org/1999/xlink" x="0px" y="0px"
	 width="48px" height="48px" viewBox="0 0 48 48" enable-background="new 0 0 48 48" xml:space="preserve">
<path d="M2,45h18c0.552,0,1-0.447,1-1v-2.328c0-1.538-0.676-2.957-1.854-3.892C17.548,36.512,14.837,35,11,35
	s-6.548,1.512-8.146,2.78C1.676,38.715,1,40.134,1,41.672V44C1,44.553,1.448,45,2,45z"/>
<circle cx="11" cy="26" r="6"/>
<path d="M45.146,37.78C43.548,36.512,40.837,35,37,35s-6.548,1.512-8.146,2.78C27.676,38.715,27,40.134,27,41.672V44
	c0,0.553,0.448,1,1,1h18c0.552,0,1-0.447,1-1v-2.328C47,40.134,46.324,38.715,45.146,37.78z"/>
<circle cx="37" cy="26" r="6"/>
<path d="M23,4v5h-5c-0.552,0-1,0.447-1,1s0.448,1,1,1h5v5c0,0.553,0.448,1,1,1s1-0.447,1-1v-5h5c0.552,0,1-0.447,1-1s-0.448-1-1-1
	h-5V4c0-0.553-0.448-1-1-1S23,3.447,23,4z"/>
</svg>
