<?xml version="1.0" encoding="utf-8"?>
<!-- Generator: Adobe Illustrator 20.0.0, SVG Export Plug-In . SVG Version: 6.00 Build 0)  -->
<!DOCTYPE svg PUBLIC "-//W3C//DTD SVG 1.1//EN" "http://www.w3.org/Graphics/SVG/1.1/DTD/svg11.dtd">
<svg version="1.1" id="Layer_1" xmlns="http://www.w3.org/2000/svg" xmlns:xlink="http://www.w3.org/1999/xlink" x="0px" y="0px"
	 width="48px" height="48px" viewBox="0 0 48 48" enable-background="new 0 0 48 48" xml:space="preserve">
<path d="M22,27c6.195,0,11-6.988,11-13v-2c0-6.065-4.935-11-11-11S11,5.935,11,12v2C11,20.012,15.805,27,22,27z"/>
<path d="M2,45h25v-9c0-1.654,1.346-3,3-3h1v-2.252C28.381,30.312,25.348,30,22,30c-6.554,0-11.926,1.188-15.278,2.185
	C3.3,33.203,1,36.286,1,39.856V44C1,44.552,1.448,45,2,45z"/>
<path d="M46,35h-3v-5c0-2.757-2.243-5-5-5s-5,2.243-5,5v5h-3c-0.552,0-1,0.448-1,1v10c0,0.552,0.448,1,1,1h16c0.552,0,1-0.448,1-1
	V36C47,35.448,46.552,35,46,35z M41,35h-6v-5c0-1.654,1.346-3,3-3s3,1.346,3,3V35z"/>
</svg>
