<?xml version="1.0" encoding="utf-8"?>
<!-- Generator: Adobe Illustrator 20.0.0, SVG Export Plug-In . SVG Version: 6.00 Build 0)  -->
<!DOCTYPE svg PUBLIC "-//W3C//DTD SVG 1.1//EN" "http://www.w3.org/Graphics/SVG/1.1/DTD/svg11.dtd">
<svg version="1.1" id="Layer_1" xmlns="http://www.w3.org/2000/svg" xmlns:xlink="http://www.w3.org/1999/xlink" x="0px" y="0px"
	 width="48px" height="48px" viewBox="0 0 48 48" enable-background="new 0 0 48 48" xml:space="preserve">
<path d="M6.913,35.73C3.974,36.647,2,39.332,2,42.411V46c0,0.553,0.448,1,1,1h42c0.552,0,1-0.447,1-1v-3.589
	c0-3.079-1.974-5.764-4.913-6.681h0L30,32.265v-3.141c0-0.317,0.115-0.604,0.315-0.785c1.839-1.671,3.301-4.015,4.073-6.506
	c1.286-0.389,2.251-1.487,2.442-2.861l0.275-1.981c0.221-1.595-0.684-3.1-2.104-3.702v-2.446c0-3.346-2.558-6.104-5.821-6.424
	l-1.151-2.303c-0.451-0.899-1.544-1.34-2.492-1.001l-6.732,2.404C15.604,4.661,13,8.355,13,11.754v1.534
	c-1.421,0.603-2.326,2.107-2.104,3.702l0.275,1.981c0.191,1.374,1.156,2.473,2.442,2.861c0.771,2.491,2.234,4.835,4.072,6.506
	C17.885,28.521,18,28.807,18,29.124v3.141L6.913,35.73z"/>
</svg>
