<?xml version="1.0" encoding="utf-8"?>
<!-- Generator: Adobe Illustrator 20.0.0, SVG Export Plug-In . SVG Version: 6.00 Build 0)  -->
<!DOCTYPE svg PUBLIC "-//W3C//DTD SVG 1.1//EN" "http://www.w3.org/Graphics/SVG/1.1/DTD/svg11.dtd">
<svg version="1.1" id="Layer_1" xmlns="http://www.w3.org/2000/svg" xmlns:xlink="http://www.w3.org/1999/xlink" x="0px" y="0px"
	 width="48px" height="48px" viewBox="0 0 48 48" enable-background="new 0 0 48 48" xml:space="preserve">
<path d="M22,27c6.195,0,11-6.988,11-13v-2c0-6.065-4.935-11-11-11S11,5.935,11,12v2C11,20.012,15.805,27,22,27z"/>
<path d="M30.065,38h2.001c0.273-3.293,3.123-5.985,6.473-5.985c1.501,0,2.907,0.511,4.033,1.429l-2.497,2.686l6.686,0.351
	l-0.606-6.893l-2.216,2.384c-1.494-1.26-3.383-1.957-5.4-1.957C34.026,30.015,30.333,33.553,30.065,38z"/>
<path d="M44.934,39c-0.273,3.293-3.123,5.985-6.473,5.985c-1.501,0-2.907-0.511-4.033-1.429l2.497-2.686l-6.687-0.351l0.606,6.893
	l2.216-2.384c1.494,1.26,3.383,1.957,5.4,1.957c4.513,0,8.206-3.538,8.474-7.985H44.934z"/>
<path d="M2,45h26v-6c0-3.231,1.402-6.127,3.62-8.14C28.862,30.367,25.62,30,22,30c-6.553,0-11.925,1.188-15.278,2.185
	C3.3,33.203,1,36.286,1,39.856V44C1,44.552,1.447,45,2,45z"/>
</svg>
