<?xml version="1.0" encoding="utf-8"?>
<!-- Generator: Adobe Illustrator 20.0.0, SVG Export Plug-In . SVG Version: 6.00 Build 0)  -->
<!DOCTYPE svg PUBLIC "-//W3C//DTD SVG 1.1//EN" "http://www.w3.org/Graphics/SVG/1.1/DTD/svg11.dtd">
<svg version="1.1" id="Layer_1" xmlns="http://www.w3.org/2000/svg" xmlns:xlink="http://www.w3.org/1999/xlink" x="0px" y="0px"
	 width="48px" height="48px" viewBox="0 0 48 48" enable-background="new 0 0 48 48" xml:space="preserve">
<path d="M23.586,2.09L0.676,12.503l0.828,1.821L24,4.099l22.497,10.226l0.828-1.821L24.414,2.09
	C24.151,1.97,23.849,1.97,23.586,2.09z"/>
<path d="M9,43.375V46c0,0.553,0.448,1,1,1h28c0.552,0,1-0.447,1-1v-2.625c0-2.845-1.691-5.384-4.309-6.468
	C31.637,35.642,28.04,35,24,35s-7.637,0.642-10.691,1.907C10.691,37.991,9,40.53,9,43.375z"/>
<path d="M33,21c0-4.962-4.038-9-9-9s-9,4.038-9,9c0,4.982,4.015,11,9,11S33,25.982,33,21z"/>
</svg>
