<?xml version="1.0" encoding="utf-8"?>
<!-- Generator: Adobe Illustrator 20.0.0, SVG Export Plug-In . SVG Version: 6.00 Build 0)  -->
<!DOCTYPE svg PUBLIC "-//W3C//DTD SVG 1.1//EN" "http://www.w3.org/Graphics/SVG/1.1/DTD/svg11.dtd">
<svg version="1.1" id="Layer_1" xmlns="http://www.w3.org/2000/svg" xmlns:xlink="http://www.w3.org/1999/xlink" x="0px" y="0px"
	 width="48px" height="48px" viewBox="0 0 48 48" enable-background="new 0 0 48 48" xml:space="preserve">
<path d="M25,24h-2c-3.314,0-6,2.686-6,6h14C31,26.686,28.314,24,25,24z"/>
<circle cx="24" cy="18" r="4"/>
<path d="M12,47h24c2.757,0,5-2.243,5-5V6c0-2.757-2.243-5-5-5H12C9.243,1,7,3.243,7,6v36C7,44.757,9.243,47,12,47z M9,10
	c0-0.552,0.448-1,1-1h28c0.552,0,1,0.448,1,1v25c0,0.552-0.448,1-1,1H10c-0.552,0-1-0.448-1-1V10z"/>
</svg>
