<?xml version="1.0" encoding="utf-8"?>
<!-- Generator: Adobe Illustrator 20.0.0, SVG Export Plug-In . SVG Version: 6.00 Build 0)  -->
<!DOCTYPE svg PUBLIC "-//W3C//DTD SVG 1.1//EN" "http://www.w3.org/Graphics/SVG/1.1/DTD/svg11.dtd">
<svg version="1.1" id="Layer_1" xmlns="http://www.w3.org/2000/svg" xmlns:xlink="http://www.w3.org/1999/xlink" x="0px" y="0px"
	 width="48px" height="48px" viewBox="0 0 48 48" enable-background="new 0 0 48 48" xml:space="preserve">
<path d="M38,37c0.553,0,1-0.448,1-1V19h5c0.391,0,0.745-0.228,0.908-0.582c0.163-0.355,0.105-0.772-0.149-1.069l-6-7
	c-0.379-0.443-1.139-0.443-1.518,0l-6,7c-0.255,0.296-0.312,0.714-0.149,1.069C31.255,18.772,31.609,19,32,19h5v17
	C37,36.552,37.447,37,38,37z"/>
<circle cx="14" cy="8" r="7"/>
<path d="M25,23c0-2.757-2.243-5-5-5H8c-2.757,0-5,2.243-5,5v10c0,0.459,0.312,0.859,0.758,0.97l3.305,0.826l0.941,11.287
	C8.047,46.602,8.479,47,9,47h10c0.521,0,0.953-0.398,0.996-0.917l0.941-11.287l3.305-0.826C24.688,33.859,25,33.459,25,33V23z"/>
</svg>
