<?xml version="1.0" encoding="utf-8"?>
<!-- Generator: Adobe Illustrator 20.0.0, SVG Export Plug-In . SVG Version: 6.00 Build 0)  -->
<!DOCTYPE svg PUBLIC "-//W3C//DTD SVG 1.1//EN" "http://www.w3.org/Graphics/SVG/1.1/DTD/svg11.dtd">
<svg version="1.1" id="Layer_1" xmlns="http://www.w3.org/2000/svg" xmlns:xlink="http://www.w3.org/1999/xlink" x="0px" y="0px"
	 width="48px" height="48px" viewBox="0 0 48 48" enable-background="new 0 0 48 48" xml:space="preserve">
<path d="M9,35.375V38c0,0.553,0.447,1,1,1h28c0.553,0,1-0.447,1-1v-2.625c0-2.845-1.691-5.383-4.309-6.468
	C31.636,27.642,28.039,27,24,27s-7.636,0.642-10.691,1.907C10.691,29.992,9,32.53,9,35.375z"/>
<path d="M33,14c0-4.963-4.037-9-9-9s-9,4.037-9,9c0,4.721,3.849,10,9,10S33,18.721,33,14z"/>
<path d="M10,1H2C1.447,1,1,1.447,1,2v8c0,0.553,0.447,1,1,1s1-0.447,1-1V3h7c0.553,0,1-0.447,1-1S10.553,1,10,1z"/>
<path d="M46,1h-8c-0.553,0-1,0.447-1,1s0.447,1,1,1h7v7c0,0.553,0.447,1,1,1s1-0.447,1-1V2C47,1.447,46.553,1,46,1z"/>
<path d="M11,46c0-0.553-0.447-1-1-1H3v-7c0-0.553-0.447-1-1-1s-1,0.447-1,1v8c0,0.553,0.447,1,1,1h8C10.553,47,11,46.553,11,46z"/>
<path d="M46,37c-0.553,0-1,0.447-1,1v7h-7c-0.553,0-1,0.447-1,1s0.447,1,1,1h8c0.553,0,1-0.447,1-1v-8C47,37.447,46.553,37,46,37z"
	/>
</svg>
