<?xml version="1.0" encoding="utf-8"?>
<!-- Generator: Adobe Illustrator 20.0.0, SVG Export Plug-In . SVG Version: 6.00 Build 0)  -->
<!DOCTYPE svg PUBLIC "-//W3C//DTD SVG 1.1//EN" "http://www.w3.org/Graphics/SVG/1.1/DTD/svg11.dtd">
<svg version="1.1" id="Layer_1" xmlns="http://www.w3.org/2000/svg" xmlns:xlink="http://www.w3.org/1999/xlink" x="0px" y="0px"
	 width="48px" height="48px" viewBox="0 0 48 48" enable-background="new 0 0 48 48" xml:space="preserve">
<path d="M24,31c6.627,0,12-5.373,12-12v-6c0-6.627-5.373-12-12-12S12,6.373,12,13v6C12,25.627,17.373,31,24,31z"/>
<path d="M4,47h40c0.552,0,1-0.448,1-1v-5.735c0-1.746-0.93-3.389-2.428-4.288l-9.953-5.967C30.24,31.876,27.251,33,24,33
	s-6.24-1.124-8.619-2.99l-9.954,5.968C3.93,36.875,3,38.519,3,40.265V46C3,46.552,3.448,47,4,47z"/>
</svg>
