<?xml version="1.0" encoding="utf-8"?>
<!-- Generator: Adobe Illustrator 20.0.0, SVG Export Plug-In . SVG Version: 6.00 Build 0)  -->
<!DOCTYPE svg PUBLIC "-//W3C//DTD SVG 1.1//EN" "http://www.w3.org/Graphics/SVG/1.1/DTD/svg11.dtd">
<svg version="1.1" id="Layer_1" xmlns="http://www.w3.org/2000/svg" xmlns:xlink="http://www.w3.org/1999/xlink" x="0px" y="0px"
	 width="48px" height="48px" viewBox="0 0 48 48" enable-background="new 0 0 48 48" xml:space="preserve">
<path d="M46,1H2C1.448,1,1,1.448,1,2v35c0,0.552,0.448,1,1,1h13.586l7.707,7.707C23.488,45.902,23.744,46,24,46
	s0.512-0.098,0.707-0.293L32.414,38H46c0.552,0,1-0.448,1-1V2C47,1.448,46.552,1,46,1z M24,7c3.309,0,6,2.691,6,6
	c0,3.237-2.621,7-6,7s-6-3.763-6-7C18,9.691,20.691,7,24,7z M34,30c0,0.552-0.448,1-1,1H15c-0.552,0-1-0.448-1-1v-1.242
	c0-2.235,1.439-4.163,3.583-4.797c4.266-1.264,8.418-1.291,12.826,0.012c2.148,0.635,3.592,2.564,3.592,4.8V30z"/>
</svg>
