<?xml version="1.0" encoding="utf-8"?>
<!-- Generator: Adobe Illustrator 20.0.0, SVG Export Plug-In . SVG Version: 6.00 Build 0)  -->
<!DOCTYPE svg PUBLIC "-//W3C//DTD SVG 1.1//EN" "http://www.w3.org/Graphics/SVG/1.1/DTD/svg11.dtd">
<svg version="1.1" id="Layer_1" xmlns="http://www.w3.org/2000/svg" xmlns:xlink="http://www.w3.org/1999/xlink" x="0px" y="0px"
	 width="48px" height="48px" viewBox="0 0 48 48" enable-background="new 0 0 48 48" xml:space="preserve">
<circle cx="24" cy="5" r="5"/>
<path d="M38.809,27.147L32.796,13.77C32.311,12.693,31.24,12,30.059,12H17.941c-1.181,0-2.252,0.693-2.736,1.77L9.191,27.147
	l0.005,0.002C9.074,27.409,9,27.695,9,28c0,1.105,0.895,2,2,2c0.799,0,1.483-0.472,1.804-1.149L17,20.829v24.533
	c0,1.298,0.929,2.482,2.22,2.622c1.48,0.161,2.728-0.972,2.772-2.408l0.939-13.579C22.97,31.436,23.437,31,24,31
	s1.03,0.436,1.069,0.998l0.939,13.579c0.044,1.436,1.292,2.569,2.772,2.408c1.291-0.14,2.22-1.323,2.22-2.622V20.829l4.196,8.021
	C35.517,29.528,36.201,30,37,30c1.105,0,2-0.895,2-2c0-0.305-0.074-0.591-0.196-0.85L38.809,27.147z"/>
</svg>
