<?xml version="1.0" encoding="utf-8"?>
<!-- Generator: Adobe Illustrator 20.0.0, SVG Export Plug-In . SVG Version: 6.00 Build 0)  -->
<!DOCTYPE svg PUBLIC "-//W3C//DTD SVG 1.1//EN" "http://www.w3.org/Graphics/SVG/1.1/DTD/svg11.dtd">
<svg version="1.1" id="Layer_1" xmlns="http://www.w3.org/2000/svg" xmlns:xlink="http://www.w3.org/1999/xlink" x="0px" y="0px"
	 width="48px" height="48px" viewBox="0 0 48 48" enable-background="new 0 0 48 48" xml:space="preserve">
<path d="M22,27c6.195,0,11-6.988,11-13v-2c0-6.065-4.935-11-11-11S11,5.935,11,12v2C11,20.012,15.805,27,22,27z"/>
<path d="M2,45h30.764l-5.452-5.473c-2.526-2.534-2.975-6.371-1.355-9.373C24.691,30.062,23.379,30,22,30
	c-6.554,0-11.926,1.188-15.278,2.185C3.3,33.203,1,36.286,1,39.856V44C1,44.552,1.448,45,2,45z"/>
<path d="M28.729,29.737c-2.302,2.31-2.302,6.069,0,8.379l7.561,7.59C36.478,45.894,36.733,46,36.999,46
	c0.266,0,0.521-0.106,0.708-0.294l7.563-7.59c2.302-2.31,2.302-6.069,0-8.379c-1.258-1.262-2.992-1.886-4.767-1.707
	c-1.333,0.133-2.559,0.708-3.504,1.619c-0.944-0.911-2.17-1.485-3.503-1.619C31.723,27.847,29.987,28.475,28.729,29.737z"/>
</svg>
