<?xml version="1.0" encoding="utf-8"?>
<!-- Generator: Adobe Illustrator 20.0.0, SVG Export Plug-In . SVG Version: 6.00 Build 0)  -->
<!DOCTYPE svg PUBLIC "-//W3C//DTD SVG 1.1//EN" "http://www.w3.org/Graphics/SVG/1.1/DTD/svg11.dtd">
<svg version="1.1" id="Layer_1" xmlns="http://www.w3.org/2000/svg" xmlns:xlink="http://www.w3.org/1999/xlink" x="0px" y="0px"
	 width="48px" height="48px" viewBox="0 0 48 48" enable-background="new 0 0 48 48" xml:space="preserve">
<path d="M46,0H36v4h5.172l-4.803,4.803C34.031,7.051,31.14,6,28,6c-2.555,0-4.945,0.699-7.01,1.9C18.931,6.701,16.55,6,14,6
	C6.28,6,0,12.28,0,20c0,7.039,5.227,12.865,12,13.84v5.332l-4-4L5.172,38l7.414,7.414C12.977,45.805,13.488,46,14,46
	s1.023-0.195,1.414-0.586L22.828,38L20,35.172l-4,4V33.84c6.773-0.976,12-6.801,12-13.84c0-2.825-0.848-5.453-2.293-7.655
	c-1.311,0.395-2.484,1.111-3.418,2.067C23.369,16.008,24,17.932,24,20c0,2.784-1.146,5.304-2.988,7.119C19.16,25.305,18,22.79,18,20
	c0-5.514,4.486-10,10-10s10,4.486,10,10c0,5.514-4.486,10-10,10c-0.495,0-0.978-0.048-1.454-0.118
	c-0.976,1.234-2.121,2.326-3.414,3.228C24.651,33.675,26.286,34,28,34c7.72,0,14-6.28,14-14c0-3.14-1.051-6.031-2.803-8.369
	L44,6.828V12h4V2C48,0.896,47.104,0,46,0z M14,30C8.486,30,4,25.514,4,20c0-5.514,4.486-10,10-10c1.265,0,2.471,0.246,3.584,0.678
	C15.364,13.157,14,16.418,14,20c0,3.584,1.37,6.843,3.593,9.321C16.476,29.753,15.268,30,14,30z"/>
</svg>
