<?xml version="1.0" encoding="utf-8"?>
<!-- Generator: Adobe Illustrator 20.0.0, SVG Export Plug-In . SVG Version: 6.00 Build 0)  -->
<!DOCTYPE svg PUBLIC "-//W3C//DTD SVG 1.1//EN" "http://www.w3.org/Graphics/SVG/1.1/DTD/svg11.dtd">
<svg version="1.1" id="Layer_1" xmlns="http://www.w3.org/2000/svg" xmlns:xlink="http://www.w3.org/1999/xlink" x="0px" y="0px"
	 width="48px" height="48px" viewBox="0 0 48 48" enable-background="new 0 0 48 48" xml:space="preserve">
<path d="M33,23c5.539,0,10-6.565,10-12c0-5.514-4.486-10-10-10S23,5.486,23,11C23,16.435,27.461,23,33,23z"/>
<path d="M23,23c0-4.962-4.037-9-9-9s-9,4.038-9,9c0,4.721,3.849,10,9,10S23,27.721,23,23z"/>
<path d="M43.806,28.707C41.844,27.472,38.376,26,33,26c-4.011,0-6.958,0.82-9.012,1.749C22.833,31.625,19.458,33.625,19,34
	c2.32,0.402,4.208,1.25,5.627,2.005C27.153,37.349,29,39.616,29,42.495V46c0,0.352-0.072,0.686-0.184,1H46c0.553,0,1-0.448,1-1
	V34.584C47,32.162,45.806,29.965,43.806,28.707z"/>
<path d="M2,47h24c0.553,0,1-0.448,1-1v-3.505c0-2.057-1.224-3.875-3.116-4.633C21.764,37.012,18.327,36,14,36
	s-7.764,1.012-9.884,1.861C2.224,38.619,1,40.438,1,42.495V46C1,46.552,1.447,47,2,47z"/>
</svg>
