<?xml version="1.0" encoding="utf-8"?>
<!-- Generator: Adobe Illustrator 20.0.0, SVG Export Plug-In . SVG Version: 6.00 Build 0)  -->
<!DOCTYPE svg PUBLIC "-//W3C//DTD SVG 1.1//EN" "http://www.w3.org/Graphics/SVG/1.1/DTD/svg11.dtd">
<svg version="1.1" id="Layer_1" xmlns="http://www.w3.org/2000/svg" xmlns:xlink="http://www.w3.org/1999/xlink" x="0px" y="0px"
	 width="48px" height="48px" viewBox="0 0 48 48" enable-background="new 0 0 48 48" xml:space="preserve">
<path d="M46,18V4c0-1.104-0.896-2-2-2H30v4h9.172l-7.95,7.95C28.141,11.485,24.243,10,20,10c-9.925,0-18,8.075-18,18s8.075,18,18,18
	s18-8.075,18-18c0-4.243-1.485-8.141-3.95-11.222L42,8.828V18H46z M20,42c-7.72,0-14-6.28-14-14s6.28-14,14-14s14,6.28,14,14
	S27.72,42,20,42z"/>
</svg>
