<?xml version="1.0" encoding="utf-8"?>
<!-- Generator: Adobe Illustrator 19.1.0, SVG Export Plug-In . SVG Version: 6.00 Build 0)  -->
<!DOCTYPE svg PUBLIC "-//W3C//DTD SVG 1.1//EN" "http://www.w3.org/Graphics/SVG/1.1/DTD/svg11.dtd">
<svg version="1.1" id="Layer_1" xmlns="http://www.w3.org/2000/svg" xmlns:xlink="http://www.w3.org/1999/xlink" x="0px" y="0px"
	 width="64px" height="64px" viewBox="0 0 64 64" enable-background="new 0 0 64 64" xml:space="preserve">
<path d="M62,3H2C1.44775,3,1,3.44775,1,4v14c0,0.55225,0.44775,1,1,1h7v41c0,0.55225,0.44775,1,1,1h44c0.55225,0,1-0.44775,1-1V19h7
	c0.55225,0,1-0.44775,1-1V4C63,3.44775,62.55225,3,62,3z M41,19v12H11V19H41z M53,45H23V33h30V45z M11,45V33h10v12H11z M11,47h30v12
	H11V47z M43,59V47h10v12H43z M53,31H43V19h10V31z M61,17H3V5h58V17z"/>
</svg>
