<?xml version="1.0" encoding="utf-8"?>
<!-- Generator: Adobe Illustrator 19.1.0, SVG Export Plug-In . SVG Version: 6.00 Build 0)  -->
<!DOCTYPE svg PUBLIC "-//W3C//DTD SVG 1.1//EN" "http://www.w3.org/Graphics/SVG/1.1/DTD/svg11.dtd">
<svg version="1.1" id="Layer_1" xmlns="http://www.w3.org/2000/svg" xmlns:xlink="http://www.w3.org/1999/xlink" x="0px" y="0px"
	 width="64px" height="64px" viewBox="0 0 64 64" enable-background="new 0 0 64 64" xml:space="preserve">
<path d="M47.80469,1c-4.06494,0-7.88232,1.5791-10.74951,4.44629c-1.08301,1.08301-1.6792,2.52295-1.6792,4.0542
	c0,1.53174,0.59619,2.97168,1.6792,4.05469s2.52295,1.6792,4.0542,1.6792c1.53174,0,2.97168-0.59619,4.05469-1.6792
	c1.45605-1.45703,3.82471-1.45605,5.28076,0c1.45557,1.45605,1.45557,3.82471,0,5.28076L31.9859,37.29486L13.55518,18.83594
	c-1.45557-1.45605-1.45557-3.82471,0-5.28076c1.45605-1.45703,3.82471-1.45605,5.28076,0c2.23438,2.23486,5.87256,2.23486,8.10889,0
	c2.23584-2.23535,2.23584-5.87354,0-8.10889c-5.92676-5.92725-15.57178-5.92822-21.49854,0
	c-5.92725,5.92725-5.92725,15.57129-0.00049,21.49854l18.44061,18.44952l-7.55292,7.55292
	c-2.23584,2.23535-2.23584,5.87354,0,8.10889c1.11768,1.11768,2.58594,1.67676,4.0542,1.67676
	c1.46875,0,2.93701-0.55908,4.05469-1.67676l7.53882-7.53882l7.57642,7.53882c1.11768,1.11768,2.58594,1.67676,4.0542,1.67676
	c1.46875,0,2.93701-0.55908,4.05469-1.67676c2.23584-2.23584,2.23584-5.87354,0.00342-8.10547l-7.52484-7.59723l18.40863-18.40863
	C61.4209,24.07764,63,20.26025,63,16.1958c0-4.06494-1.5791-7.88232-4.44629-10.74951S51.86914,1,47.80469,1z M6.86035,25.53076
	c-5.14746-5.14746-5.14746-13.52295,0-18.67041c5.14795-5.14746,13.52344-5.14746,18.67041,0
	c1.45557,1.45605,1.45557,3.82471,0,5.28076c-1.41113,1.41016-3.87158,1.40918-5.28076,0
	c-2.23535-2.23535-5.87354-2.23633-8.10889,0c-1.08203,1.08154-1.67773,2.52148-1.67773,4.0542
	c0,1.5332,0.5957,2.97314,1.67725,4.0542l18.43121,18.45941l-5.27087,5.27087L6.86035,25.53076z M46.25244,54.36133
	c1.45557,1.45605,1.45557,3.82471,0,5.28076c-1.45703,1.45508-3.8252,1.45508-5.28223-0.00195l-7.57446-7.53735l5.33521-5.33521
	L46.25244,54.36133z M57.13965,25.53076L23.02832,59.64209c-1.41016,1.40918-3.87061,1.41016-5.28076,0
	c-1.45557-1.45605-1.45557-3.82471,0-5.28076L51.85889,20.25c1.08203-1.08154,1.67773-2.52148,1.67773-4.0542
	c0-1.5332-0.5957-2.97314-1.67773-4.05469c-1.11768-1.11768-2.58594-1.67676-4.0542-1.67676
	c-1.46875,0-2.93701,0.55908-4.05469,1.67676c-1.41016,1.40918-3.87061,1.41016-5.28076,0
	c-1.45557-1.45605-1.45557-3.82471,0-5.28076c5.14697-5.14746,13.52246-5.14746,18.67041,0
	C62.28711,12.00781,62.28711,20.3833,57.13965,25.53076z"/>
</svg>
