<?xml version="1.0" encoding="utf-8"?>
<!-- Generator: Adobe Illustrator 19.1.0, SVG Export Plug-In . SVG Version: 6.00 Build 0)  -->
<!DOCTYPE svg PUBLIC "-//W3C//DTD SVG 1.1//EN" "http://www.w3.org/Graphics/SVG/1.1/DTD/svg11.dtd">
<svg version="1.1" id="Layer_1" xmlns="http://www.w3.org/2000/svg" xmlns:xlink="http://www.w3.org/1999/xlink" x="0px" y="0px"
	 width="64px" height="64px" viewBox="0 0 64 64" enable-background="new 0 0 64 64" xml:space="preserve">
<path d="M32,33c2.20557,0,4-1.79443,4-4s-1.79443-4-4-4s-4,1.79443-4,4S29.79443,33,32,33z M32,27c1.10303,0,2,0.89697,2,2
	s-0.89697,2-2,2s-2-0.89697-2-2S30.89697,27,32,27z"/>
<path d="M36,45c0-2.20557-1.79443-4-4-4s-4,1.79443-4,4s1.79443,4,4,4S36,47.20557,36,45z M30,45c0-1.10303,0.89697-2,2-2
	s2,0.89697,2,2s-0.89697,2-2,2S30,46.10303,30,45z"/>
<path d="M8,57h23v4H20c-0.55225,0-1,0.44775-1,1s0.44775,1,1,1h24c0.55225,0,1-0.44775,1-1s-0.44775-1-1-1H33v-4h23
	c0.38184,0,0.73047-0.21777,0.89844-0.56055c0.16748-0.34326,0.12549-0.75195-0.10889-1.05322L44.04443,39H52
	c0.37451,0,0.71777-0.20947,0.88916-0.54248s0.14209-0.73389-0.0752-1.03857l-14.5412-20.35797
	c0.16351-0.35596,0.23199-0.76489,0.18329-1.19672l-0.61621-3.78418l2.72461-2.63623
	c0.03076-0.02979,0.05908-0.06104,0.08545-0.09424c0.40332-0.50391,0.50439-1.20117,0.27051-1.86523
	c-0.25635-0.72852-0.86719-1.26514-1.63379-1.43555c-0.02637-0.00586-0.05273-0.01074-0.0791-0.01416l-3.77295-0.52686
	l-1.64648-3.37695C33.49414,1.44385,32.77979,1,31.96924,1s-1.5249,0.44385-1.79883,1.08691L28.50293,5.5083l-3.85107,0.54053
	c-0.82275,0.18311-1.45166,0.77979-1.64014,1.55762c-0.1709,0.70459,0.06592,1.42725,0.56201,1.8374l2.72461,2.63623
	l-0.62158,3.82129c-0.04498,0.36121,0.00684,0.71613,0.14069,1.03699L11.18652,37.41895
	c-0.21777,0.30469-0.24707,0.70557-0.07568,1.03857S11.62549,39,12,39h7.95557L7.21045,55.38623
	c-0.23438,0.30127-0.27637,0.70996-0.10889,1.05322C7.26953,56.78223,7.61816,57,8,57z M24.9873,8.03271
	c0.00781-0.0083,0.01514-0.01514,0.02002-0.01758l4.2998-0.6001c0.32959-0.0459,0.61475-0.25293,0.76074-0.55225l1.88037-3.86182
	c0.01367,0,0.02832-0.00049,0.04053,0l1.88135,3.86182c0.14551,0.29932,0.43115,0.50635,0.76074,0.55225l4.24756,0.59277
	c0.09717,0.02979,0.13721,0.0918,0.15332,0.13623l-2.95801,2.8623c-0.23535,0.22803-0.34424,0.55615-0.2915,0.87939l0.69336,4.24951
	c0.01074,0.10059-0.04443,0.11523-0.0498,0.1001l-3.8999-2c-0.14355-0.07373-0.2998-0.11035-0.45654-0.11035
	s-0.31299,0.03662-0.45605,0.11035l-3.83008,1.96387c-0.05914,0.01208-0.09302-0.00519-0.12158-0.01306
	c-0.00201-0.00159-0.00305-0.00378-0.00507-0.00543l0.6994-4.29498c0.05273-0.32324-0.05615-0.65137-0.2915-0.87939L24.9873,8.03271
	z M22.78955,38.61377c0.23438-0.30127,0.27637-0.70996,0.10889-1.05322C22.73047,37.21777,22.38184,37,22,37h-8.05664
	l13.45062-18.82892c0.36816,0.06085,0.75415,0.02875,1.12604-0.10956c0.03564-0.01367,0.0708-0.0293,0.10498-0.04688
	l3.44434-1.76611l3.40381,1.74463c0.30078,0.17188,0.63379,0.25732,0.96729,0.25732c0.06818,0,0.1347-0.02258,0.2027-0.02972
	L50.05664,37H42c-0.38184,0-0.73047,0.21777-0.89844,0.56055c-0.16748,0.34326-0.12549,0.75195,0.10889,1.05322L53.95557,55
	H10.04443L22.78955,38.61377z"/>
</svg>
