<?xml version="1.0" encoding="utf-8"?>
<!-- Generator: Adobe Illustrator 19.1.0, SVG Export Plug-In . SVG Version: 6.00 Build 0)  -->
<!DOCTYPE svg PUBLIC "-//W3C//DTD SVG 1.1//EN" "http://www.w3.org/Graphics/SVG/1.1/DTD/svg11.dtd">
<svg version="1.1" id="Layer_1" xmlns="http://www.w3.org/2000/svg" xmlns:xlink="http://www.w3.org/1999/xlink" x="0px" y="0px"
	 width="64px" height="64px" viewBox="0 0 64 64" enable-background="new 0 0 64 64" xml:space="preserve">
<path d="M62,17c-2.82611,0-5.34882,1.31165-7,3.35535V18c0-9.37402-7.62598-17-17-17H26C16.62598,1,9,8.62598,9,18v2.35535
	C7.34882,18.31165,4.82611,17,2,17c-0.55273,0-1,0.44727-1,1v10c0,4.62457,3.50653,8.44159,8,8.94104V40
	c0,12.68262,10.31738,23,23,23s23-10.31738,23-23v-3.05896c4.49347-0.49945,8-4.31647,8-8.94104V18C63,17.44727,62.55273,17,62,17z
	 M26,3h12c7.73236,0,14.11322,5.88086,14.91266,13.4046C50.30096,11.98181,45.49805,9,40,9c-2.84961,0-5.60059,0.7998-8,2.31836
	C29.60059,9.7998,26.84961,9,24,9c-5.49805,0-10.30096,2.98181-12.91266,7.4046C11.88678,8.88086,18.26764,3,26,3z M3,28v-8.92871
	C6.3877,19.55762,9,22.47949,9,26v8.9201C5.61377,34.43213,3,31.51898,3,28z M53,40c0,11.5791-9.4209,21-21,21s-21-9.4209-21-21V24
	c0-7.16797,5.83203-13,13-13c2.66699,0,5.23535,0.80859,7.42773,2.33984c0.34375,0.24023,0.80078,0.24023,1.14453,0
	C34.76465,11.80859,37.33301,11,40,11c7.16797,0,13,5.83203,13,13V40z M61,28c0,3.51898-2.61377,6.43213-6,6.9201V26
	c0-3.52051,2.6123-6.44238,6-6.92871V28z"/>
<path d="M41,43h-5.9834c-0.01172,0-0.02344,0-0.03516,0h-5.96289c-0.01172,0-0.02344,0-0.03516,0H23
	c-0.36035,0-0.69238,0.19336-0.87012,0.50684c-0.17773,0.31445-0.17285,0.69922,0.0127,1.00781l3,5
	c0.36133,0.60156,1.35352,0.60156,1.71484,0L29.56641,45h4.86719l2.70898,4.51465C37.32324,49.81543,37.64844,50,38,50
	s0.67676-0.18457,0.85742-0.48535l3-5c0.18555-0.30859,0.19043-0.69336,0.0127-1.00781C41.69238,43.19336,41.36035,43,41,43z
	 M26,47.05664L24.7666,45h2.4668L26,47.05664z M38,47.05664L36.7666,45h2.4668L38,47.05664z"/>
<path d="M29,30c0-2.75684-2.24316-5-5-5s-5,2.24316-5,5s2.24316,5,5,5S29,32.75684,29,30z M21,30c0-1.6543,1.3457-3,3-3
	s3,1.3457,3,3s-1.3457,3-3,3S21,31.6543,21,30z"/>
<path d="M40,25c-2.75684,0-5,2.24316-5,5s2.24316,5,5,5s5-2.24316,5-5S42.75684,25,40,25z M40,33c-1.6543,0-3-1.3457-3-3
	s1.3457-3,3-3s3,1.3457,3,3S41.6543,33,40,33z"/>
</svg>
