<?xml version="1.0" encoding="utf-8"?>
<!-- Generator: Adobe Illustrator 19.1.0, SVG Export Plug-In . SVG Version: 6.00 Build 0)  -->
<!DOCTYPE svg PUBLIC "-//W3C//DTD SVG 1.1//EN" "http://www.w3.org/Graphics/SVG/1.1/DTD/svg11.dtd">
<svg version="1.1" id="Layer_1" xmlns="http://www.w3.org/2000/svg" xmlns:xlink="http://www.w3.org/1999/xlink" x="0px" y="0px"
	 width="64px" height="64px" viewBox="0 0 64 64" enable-background="new 0 0 64 64" xml:space="preserve">
<path d="M52.46484,11.13379c-0.30176-0.17285-0.67285-0.17676-0.97852-0.01172c-0.30566,0.16699-0.50293,0.48145-0.51953,0.83008
	C50.68774,17.77161,46.56854,22.6579,41,23.97699V16c0-0.36914-0.20312-0.70801-0.52832-0.88184
	c-0.32422-0.17383-0.71973-0.15332-1.02637,0.0498L33.69727,19h-3.39453l-5.74805-3.83203
	c-0.30664-0.20312-0.70215-0.22363-1.02637-0.0498C23.20312,15.29199,23,15.63086,23,16v7.97699
	c-5.56854-1.31909-9.68774-6.20538-9.9668-12.02484c-0.0166-0.34863-0.21387-0.66309-0.51953-0.83008
	c-0.30566-0.16602-0.67676-0.16211-0.97852,0.01172C5.03711,14.87988,1,21.84961,1,29.32324
	c0,3.54199,0.90527,7.0498,2.61719,10.14648c0.13477,0.24414,0.36621,0.41992,0.63672,0.4873
	c0.27246,0.06445,0.55762,0.01758,0.79004-0.1377C6.52344,38.84082,8.2373,38.32324,10,38.32324
	c4.44629,0,8.17188,3.2041,8.85742,7.61816c0.04492,0.28613,0.20996,0.53809,0.4541,0.69238
	c0.24512,0.15332,0.54297,0.19629,0.82031,0.1123c0.93945-0.28027,1.9043-0.42285,2.86816-0.42285
	c3.24707,0,6.30566,1.59375,8.18164,4.2627c0.1875,0.2666,0.49316,0.4248,0.81836,0.4248s0.63086-0.1582,0.81836-0.4248
	c1.87598-2.66895,4.93457-4.2627,8.18164-4.2627c0.96387,0,1.92871,0.14258,2.86816,0.42285
	c0.27734,0.08398,0.5752,0.04102,0.82031-0.1123c0.24414-0.1543,0.40918-0.40625,0.4541-0.69238
	c0.68555-4.41406,4.41113-7.61816,8.85742-7.61816c1.7627,0,3.47656,0.51758,4.95605,1.49609
	c0.2334,0.1543,0.51758,0.2002,0.79004,0.1377c0.27051-0.06738,0.50195-0.24316,0.63672-0.4873
	C62.09473,36.37305,63,32.86523,63,29.32324C63,21.84961,58.96289,14.87988,52.46484,11.13379z M25,17.86816l4.44531,2.96387
	C29.60938,20.94141,29.80273,21,30,21h4c0.19727,0,0.39062-0.05859,0.55469-0.16797L39,17.86816V26c0,3.85938-3.14062,7-7,7
	s-7-3.14062-7-7V17.86816z M59.10645,37.58691c-1.57422-0.8291-3.31934-1.26367-5.10645-1.26367
	c-5.07227,0-9.37793,3.40625-10.61426,8.24219C42.59766,44.4043,41.79883,44.32324,41,44.32324c-3.45605,0-6.7334,1.50195-9,4.07422
	c-2.2666-2.57227-5.54395-4.07422-9-4.07422c-0.79883,0-1.59766,0.08105-2.38574,0.24219
	C19.37793,39.72949,15.07227,36.32324,10,36.32324c-1.78711,0-3.53223,0.43457-5.10645,1.26367
	C3.65234,35.01855,3,32.18359,3,29.32324c0-6.23633,3.1084-12.08594,8.20703-15.61719
	c0.98083,6.12396,5.67908,11.06268,11.79376,12.30951C23.00934,30.97125,27.04236,35,32,35s8.99066-4.02875,8.99921-8.98444
	c6.11469-1.24683,10.81293-6.18555,11.79376-12.30951C57.8916,17.2373,61,23.08691,61,29.32324
	C61,32.18359,60.34766,35.01855,59.10645,37.58691z"/>
</svg>
