<?xml version="1.0" encoding="utf-8"?>
<!-- Generator: Adobe Illustrator 19.1.0, SVG Export Plug-In . SVG Version: 6.00 Build 0)  -->
<!DOCTYPE svg PUBLIC "-//W3C//DTD SVG 1.1//EN" "http://www.w3.org/Graphics/SVG/1.1/DTD/svg11.dtd">
<svg version="1.1" id="Layer_1" xmlns="http://www.w3.org/2000/svg" xmlns:xlink="http://www.w3.org/1999/xlink" x="0px" y="0px"
	 width="64px" height="64px" viewBox="0 0 64 64" enable-background="new 0 0 64 64" xml:space="preserve">
<path d="M29,24c0-2.75684-2.24316-5-5-5s-5,2.24316-5,5s2.24316,5,5,5S29,26.75684,29,24z M21,24c0-1.6543,1.3457-3,3-3
	s3,1.3457,3,3s-1.3457,3-3,3S21,25.6543,21,24z"/>
<path d="M40,21c-2.75684,0-5,2.24316-5,5s2.24316,5,5,5s5-2.24316,5-5S42.75684,21,40,21z M40,29c-1.6543,0-3-1.3457-3-3
	s1.3457-3,3-3s3,1.3457,3,3S41.6543,29,40,29z"/>
<path d="M55,21v-3c0-0.6543-0.04688-1.33398-0.14795-2.13867c-0.06201-0.49512-0.47949-0.86914-0.97803-0.87598
	c-3.90332-0.05469-7.29541-2.61914-8.44043-6.37988c-0.08594-0.28223-0.29199-0.5127-0.56348-0.62891
	c-0.27148-0.11523-0.57959-0.10449-0.84375,0.02734C42.7168,8.66504,41.36182,9,40,9c-4.2627,0-7.97119-3.02734-8.81836-7.19922
	C31.08691,1.33496,30.67725,1,30.20166,1H26C16.62598,1,9,8.62598,9,18v3c-4.41113,0-8,3.58887-8,8s3.58887,8,8,8v3
	c0,12.68262,10.31787,23,23,23s23-10.31738,23-23v-3c4.41113,0,8-3.58887,8-8S59.41113,21,55,21z M3,29c0-3.30859,2.69141-6,6-6v12
	C5.69141,35,3,32.30859,3,29z M53,40c0,11.5791-9.42041,21-21,21s-21-9.4209-21-21V18c0-8.27148,6.729-15,15-15h3.41602
	C30.74072,7.68164,35.06689,11,40,11c1.3208,0,2.62891-0.25195,3.90234-0.75195c1.5625,3.73828,5.02734,6.30664,9.05225,6.68848
	C52.98535,17.31445,53,17.66309,53,18V40z M55,35V23c3.30859,0,6,2.69141,6,6S58.30859,35,55,35z"/>
<path d="M32,35c-6.06543,0-11,4.93457-11,11c0,0.55273,0.44775,1,1,1h10v4.5c0,1.92969,1.57031,3.5,3.5,3.5s3.5-1.57031,3.5-3.5V47
	h3c0.55225,0,1-0.44727,1-1C43,39.93457,38.06543,35,32,35z M38,45c-0.55225,0-1,0.44727-1,1v5.5c0,0.82715-0.67285,1.5-1.5,1.5
	S34,52.32715,34,51.5V46c0-0.55273-0.44775-1-1-1h-9.94482C23.5542,40.50586,27.37549,37,32,37s8.4458,3.50586,8.94482,8H38z"/>
</svg>
