<?xml version="1.0" encoding="utf-8"?>
<!-- Generator: Adobe Illustrator 19.1.0, SVG Export Plug-In . SVG Version: 6.00 Build 0)  -->
<!DOCTYPE svg PUBLIC "-//W3C//DTD SVG 1.1//EN" "http://www.w3.org/Graphics/SVG/1.1/DTD/svg11.dtd">
<svg version="1.1" id="Layer_1" xmlns="http://www.w3.org/2000/svg" xmlns:xlink="http://www.w3.org/1999/xlink" x="0px" y="0px"
	 width="64px" height="64px" viewBox="0 0 64 64" enable-background="new 0 0 64 64" xml:space="preserve">
<path d="M9,40c0,2.56055,0.42688,5.02179,1.20264,7.3241c0.01074,0.03107,0.01758,0.06226,0.03119,0.0918
	C13.32709,56.46918,21.91248,63,32,63s18.67291-6.53082,21.76617-15.58411c0.01361-0.02954,0.02045-0.06073,0.03119-0.0918
	C54.57312,45.02179,55,42.56055,55,40s-0.42688-5.02179-1.20264-7.3241c-0.01074-0.03107-0.01758-0.06226-0.03119-0.0918
	C51.65179,26.39581,46.97406,21.3858,41,18.83563V10c0-0.55225-0.44775-1-1-1h-7V2c0-0.55225-0.44775-1-1-1s-1,0.44775-1,1v7h-7
	c-0.55225,0-1,0.44775-1,1v8.83563c-5.97406,2.55017-10.65179,7.56018-12.76617,13.74847
	c-0.01361,0.02954-0.02045,0.06073-0.03119,0.0918C9.42688,34.97821,9,37.43945,9,40z M53,40c0,2.08557-0.31561,4.09692-0.88434,6
	H11.88434C11.31561,44.09692,11,42.08557,11,40s0.31561-4.09692,0.88434-6h40.23132C52.68439,35.90308,53,37.91443,53,40z M32,61
	c-8.74713,0-16.255-5.37897-19.40814-13h38.81628C48.255,55.62103,40.74713,61,32,61z M25,11h14v7.09277
	C36.79144,17.38538,34.44025,17,32,17s-4.79144,0.38538-7,1.09277V11z M32,19c8.74713,0,16.255,5.37897,19.40814,13H12.59186
	C15.745,24.37897,23.25287,19,32,19z"/>
<path d="M32,43c1.6543,0,3-1.3457,3-3s-1.3457-3-3-3s-3,1.3457-3,3S30.3457,43,32,43z M32,39c0.55127,0,1,0.44873,1,1
	s-0.44873,1-1,1s-1-0.44873-1-1S31.44873,39,32,39z"/>
<path d="M20,43c1.6543,0,3-1.3457,3-3s-1.3457-3-3-3s-3,1.3457-3,3S18.3457,43,20,43z M20,39c0.55127,0,1,0.44873,1,1
	s-0.44873,1-1,1s-1-0.44873-1-1S19.44873,39,20,39z"/>
<path d="M44,43c1.6543,0,3-1.3457,3-3s-1.3457-3-3-3s-3,1.3457-3,3S42.3457,43,44,43z M44,39c0.55127,0,1,0.44873,1,1
	s-0.44873,1-1,1s-1-0.44873-1-1S43.44873,39,44,39z"/>
</svg>
