<?xml version="1.0" encoding="utf-8"?>
<!-- Generator: Adobe Illustrator 19.1.0, SVG Export Plug-In . SVG Version: 6.00 Build 0)  -->
<!DOCTYPE svg PUBLIC "-//W3C//DTD SVG 1.1//EN" "http://www.w3.org/Graphics/SVG/1.1/DTD/svg11.dtd">
<svg version="1.1" id="Layer_1" xmlns="http://www.w3.org/2000/svg" xmlns:xlink="http://www.w3.org/1999/xlink" x="0px" y="0px"
	 width="64px" height="64px" viewBox="0 0 64 64" enable-background="new 0 0 64 64" xml:space="preserve">
<path d="M40,11H17V7c0-3.30859-2.69141-6-6-6S5,3.69141,5,7v5v18c0,0.00018,0.00012,0.00031,0.00012,0.00049S5,30.00079,5,30.00098
	V57c0,3.30859,2.69141,6,6,6s6-2.69141,6-6V31h15c7.68994,0,17.26074,0,25.57471,3.90527C57.71045,34.96875,57.85547,35,58,35
	c0.21045,0,0.41943-0.06641,0.59473-0.19629c0.29541-0.21777,0.44727-0.58105,0.39502-0.94531C57.26904,21.8125,54.52148,11,40,11z
	 M11,3c2.20557,0,4,1.79395,4,4v4H7V7C7,4.79395,8.79443,3,11,3z M15,57c0,2.20605-1.79443,4-4,4s-4-1.79395-4-4V31h8V57z M32,29H7
	V13h33c11.31396,0,14.71533,6.5166,16.74268,19.35938C48.46143,29,39.38525,29,32,29z"/>
</svg>
