<?xml version="1.0" encoding="utf-8"?>
<!-- Generator: Adobe Illustrator 19.1.0, SVG Export Plug-In . SVG Version: 6.00 Build 0)  -->
<!DOCTYPE svg PUBLIC "-//W3C//DTD SVG 1.1//EN" "http://www.w3.org/Graphics/SVG/1.1/DTD/svg11.dtd">
<svg version="1.1" id="Layer_1" xmlns="http://www.w3.org/2000/svg" xmlns:xlink="http://www.w3.org/1999/xlink" x="0px" y="0px"
	 width="64px" height="64px" viewBox="0 0 64 64" enable-background="new 0 0 64 64" xml:space="preserve">
<path d="M62,61h-9.05518C52.55939,57.52893,50.18848,54.65527,47,53.52325v-7.66876C50.81836,42.27051,53,37.24707,53,32v-8v-4v-2
	c0-2.75684-2.24316-5-5-5c-1.12994,0-2.16174,0.39099-3,1.02557V8c0-2.75684-2.24316-5-5-5
	c-1.27917,0-2.43542,0.49713-3.32062,1.29022C35.97736,2.37671,34.15375,1,32,1s-3.97736,1.37671-4.67938,3.29022
	C26.43542,3.49713,25.27917,3,24,3c-2.75684,0-5,2.24316-5,5v12.08246C17.82166,19.39832,16.45782,19,15,19
	c-0.55225,0-1,0.44727-1,1v12c0,6.17285,2.97998,11.9248,7.99805,15.49219L21.99988,61H2c-0.55225,0-1,0.44727-1,1s0.44775,1,1,1h28
	c0.55225,0,1-0.44727,1-1c0-1.6543,1.3457-3,3-3c0.8999,0,1.55469,0.40234,1.9458,0.73926
	c0.24414,0.20996,0.57373,0.29199,0.88672,0.21582c0.31299-0.0752,0.5708-0.29688,0.69238-0.59473
	C38.60596,56.71191,41.14746,55,44,55c3.85986,0,7,3.14062,7,7c0,0.55273,0.44775,1,1,1h10c0.55225,0,1-0.44727,1-1
	S62.55225,61,62,61z M48,15c1.6543,0,3,1.3457,3,3v2v4c0,1.6543-1.3457,3-3,3s-3-1.3457-3-3v-6C45,16.3457,46.3457,15,48,15z
	 M36.19971,57.52344C35.51562,57.18164,34.76318,57,34,57c-2.41455,0-4.43506,1.7207-4.89941,4h-5.10071l-0.00183-14.03223
	c0-0.33398-0.1665-0.64551-0.44336-0.83105C18.82422,42.96973,16,37.68457,16,32V21.08301c2.83398,0.47754,5,2.94922,5,5.91699v3
	c0,0.55273,0.44775,1,1,1c3.85986,0,7,3.14062,7,7c0,0.55273,0.44775,1,1,1s1-0.44727,1-1c0-4.625-3.50635-8.44531-8-8.94434V27
	c0-2.02106-0.75934-3.86401-2-5.27374V8c0-1.6543,1.3457-3,3-3s3,1.3457,3,3v14c0,0.55273,0.44775,1,1,1s1-0.44727,1-1V8V6
	c0-1.6543,1.3457-3,3-3s3,1.3457,3,3v16c0,0.55273,0.44775,1,1,1s1-0.44727,1-1V8c0-1.6543,1.3457-3,3-3s3,1.3457,3,3v10v6
	c0,2.75684,2.24316,5,5,5c1.12994,0,2.16174-0.39099,3-1.02557V32c0,4.83008-2.06543,9.44727-5.66699,12.66992
	C45.12109,44.85938,45,45.13086,45,45.41504v7.64581C44.67108,53.02429,44.33856,53,44,53
	C40.73584,53,37.78857,54.74121,36.19971,57.52344z"/>
</svg>
