<?xml version="1.0" encoding="utf-8"?>
<!-- Generator: Adobe Illustrator 19.1.0, SVG Export Plug-In . SVG Version: 6.00 Build 0)  -->
<!DOCTYPE svg PUBLIC "-//W3C//DTD SVG 1.1//EN" "http://www.w3.org/Graphics/SVG/1.1/DTD/svg11.dtd">
<svg version="1.1" id="Layer_1" xmlns="http://www.w3.org/2000/svg" xmlns:xlink="http://www.w3.org/1999/xlink" x="0px" y="0px"
	 width="64px" height="64px" viewBox="0 0 64 64" enable-background="new 0 0 64 64" xml:space="preserve">
<path d="M31.3623,30.15527c0.18555,0.15283,0.41113,0.22949,0.6377,0.22949s0.45215-0.07666,0.6377-0.22949
	C33.49316,29.44775,41,23.10547,41,18.46143C41,15.39893,38.66895,13,35.69238,13C34.28223,13,32.97363,13.52148,32,14.43652
	C31.02637,13.52148,29.71777,13,28.30762,13C25.33105,13,23,15.39893,23,18.46143C23,23.10547,30.50684,29.44775,31.3623,30.15527z
	 M28.30762,15c1.18262,0,2.24512,0.57178,2.84473,1.53027c0.36523,0.58398,1.33008,0.58398,1.69531,0
	C33.44727,15.57178,34.50977,15,35.69238,15C37.54688,15,39,16.52051,39,18.46143c0,2.86523-4.58105,7.48193-7,9.60791
	c-2.41992-2.12451-7-6.73877-7-9.60791C25,16.52051,26.45312,15,28.30762,15z"/>
<path d="M62.98114,27.65717c-0.01556-0.10687-0.04504-0.20911-0.09277-0.30408c-0.00452-0.00897-0.00366-0.01898-0.00848-0.02789
	c-0.00159-0.00293-0.00452-0.00446-0.0061-0.00732c-0.05621-0.10211-0.13318-0.19037-0.22235-0.26788
	c-0.02228-0.01935-0.04474-0.03571-0.06848-0.05286c-0.02771-0.0202-0.05096-0.0451-0.08099-0.06256L53,21.42365V2
	c0-0.55225-0.44727-1-1-1H12c-0.55273,0-1,0.44775-1,1v19.42365l-9.50195,5.51093c-0.02362,0.01367-0.04144,0.03375-0.0636,0.04913
	c-0.02625,0.01813-0.05005,0.0368-0.07458,0.05756c-0.08984,0.07593-0.16992,0.16107-0.22748,0.26166
	c-0.00043,0.00067-0.0011,0.00104-0.00153,0.00177c-0.00171,0.00299-0.0014,0.00647-0.00311,0.00946
	c-0.05493,0.09888-0.08698,0.20819-0.10602,0.32141c-0.00507,0.03046-0.0097,0.05927-0.0119,0.08978
	C1.00793,27.75049,1,27.77429,1,27.7998V62c0,0.55225,0.44727,1,1,1h60c0.00061,0,0.00116-0.00037,0.00177-0.00037
	c0.1181-0.00031,0.23236-0.0285,0.34247-0.06909c0.02765-0.01019,0.05371-0.0202,0.08014-0.03271
	c0.10248-0.04822,0.19977-0.10797,0.2821-0.19019c0.00146-0.00146,0.0022-0.00336,0.00366-0.00482
	c0.0603-0.06091,0.1145-0.1297,0.159-0.2077c0.01001-0.01758,0.00934-0.03735,0.01819-0.05524
	c0.02936-0.0589,0.04425-0.12201,0.06165-0.18677c0.01758-0.06641,0.03619-0.13,0.03979-0.19727
	C62.98993,62.03632,63,62.01978,63,62V27.7998c0-0.02008-0.00659-0.03876-0.00775-0.05865
	C62.99054,27.71265,62.98529,27.68567,62.98114,27.65717z M33.22272,44.44598l19.14941-10.32092
	c0.02173-0.00879,0.03949-0.0224,0.06049-0.03259L61,29.47491v30.8042L33.22272,44.44598z M59.95135,27.76782L53,31.51434v-7.77802
	L59.95135,27.76782z M51,3v29.59229L31.17371,43.27802L13,32.91895V3H51z M11,31.77899l-6.99384-3.98657L11,23.73633V31.77899z
	 M3,29.52069L58.22656,61H3V29.52069z"/>
</svg>
