<?xml version="1.0" encoding="utf-8"?>
<!-- Generator: Adobe Illustrator 19.1.0, SVG Export Plug-In . SVG Version: 6.00 Build 0)  -->
<!DOCTYPE svg PUBLIC "-//W3C//DTD SVG 1.1//EN" "http://www.w3.org/Graphics/SVG/1.1/DTD/svg11.dtd">
<svg version="1.1" id="Layer_1" xmlns="http://www.w3.org/2000/svg" xmlns:xlink="http://www.w3.org/1999/xlink" x="0px" y="0px"
	 width="64px" height="64px" viewBox="0 0 64 64" enable-background="new 0 0 64 64" xml:space="preserve">
<path d="M60.70703,2.0083c-1.43555-0.92432-3.22168-1.05469-4.77539-0.34863l-18.88416,8.57758C35.53394,9.45148,33.81995,9,32,9
	s-3.53394,0.45148-5.04749,1.23724L8.06934,1.66016C6.51367,0.95264,4.72949,1.08154,3.29297,2.0083
	C1.85742,2.93262,1,4.50439,1,6.21191v25.75781c0,1.70752,0.85742,3.2793,2.29297,4.20361
	c0.82324,0.53027,1.76074,0.79932,2.7041,0.79932c0.70312,0,1.4082-0.14941,2.07227-0.45117l5.72083-2.60022L3.15137,51.01904
	c-0.18359,0.29443-0.20117,0.6626-0.04688,0.97266c0.15332,0.31055,0.45801,0.51904,0.80273,0.55127l8.40723,0.78369
	l4.41797,7.19678c0.18164,0.29541,0.50391,0.47559,0.85059,0.47656c0.00098,0,0.00098,0,0.00195,0
	c0.3457,0,0.66797-0.17871,0.84961-0.47314l13.53137-21.82837l13.60046,21.83032C45.74902,60.82178,46.06934,61,46.41504,61
	c0.00098,0,0.00195,0,0.00293,0c0.34668-0.00098,0.66797-0.18164,0.84961-0.47656l4.41797-7.19678l8.40723-0.78369
	c0.34473-0.03223,0.64941-0.24072,0.80273-0.55127c0.1543-0.31006,0.13672-0.67822-0.04688-0.97266L50.20984,33.92126
	l5.72083,2.60022c0.66406,0.30176,1.36914,0.45117,2.07227,0.45117c0.94336,0,1.88086-0.26904,2.7041-0.79932
	C62.14258,35.24902,63,33.67725,63,31.96973V6.21191C63,4.50439,62.14258,2.93262,60.70703,2.0083z M41,20c0,4.9624-4.03711,9-9,9
	s-9-4.0376-9-9s4.03711-9,9-9S41,15.0376,41,20z M7.24121,34.70117c-0.94824,0.4292-1.99219,0.35254-2.86523-0.20898
	C3.50098,33.9292,3,33.00977,3,31.96973V6.21191c0-1.04004,0.50098-1.95947,1.37598-2.52246
	c0.87305-0.5625,1.91602-0.64062,2.86621-0.2085l17.73907,8.05743C22.55096,13.55774,21,16.60065,21,20
	c0,2.7605,1.02966,5.27985,2.71533,7.21332L7.24121,34.70117z M17.58887,58.09521L13.75781,51.854
	c-0.16504-0.26807-0.44629-0.44287-0.75977-0.47217L5.7041,50.70166l11.36938-18.27277l8.21448-3.7337
	C27.14764,30.13409,29.47211,31,32,31c0.89117,0,1.7533-0.1181,2.58356-0.31909L17.58887,58.09521z M58.2959,50.70166
	l-7.29395,0.68018c-0.31348,0.0293-0.59473,0.2041-0.75977,0.47217l-3.83301,6.24463L33.14111,36.8028l4.61707-7.44818
	c0.3299-0.2038,0.64825-0.42297,0.95386-0.65942l8.21448,3.7337L58.2959,50.70166z M61,31.96973
	c0,1.04004-0.50098,1.95947-1.37598,2.52246c-0.875,0.56152-1.91895,0.63818-2.86523,0.20898l-16.47412-7.48785
	C41.97034,25.27985,43,22.7605,43,20c0-3.39935-1.55103-6.44226-3.98132-8.46161l17.74011-8.05792
	c0.94629-0.43066,1.99023-0.35352,2.86523,0.20898C60.49902,4.25244,61,5.17188,61,6.21191V31.96973z"/>
</svg>
