<?xml version="1.0" encoding="utf-8"?>
<!-- Generator: Adobe Illustrator 19.1.0, SVG Export Plug-In . SVG Version: 6.00 Build 0)  -->
<!DOCTYPE svg PUBLIC "-//W3C//DTD SVG 1.1//EN" "http://www.w3.org/Graphics/SVG/1.1/DTD/svg11.dtd">
<svg version="1.1" id="Layer_1" xmlns="http://www.w3.org/2000/svg" xmlns:xlink="http://www.w3.org/1999/xlink" x="0px" y="0px"
	 width="64px" height="64px" viewBox="0 0 64 64" enable-background="new 0 0 64 64" xml:space="preserve">
<path d="M10,42c0,0.55225,0.44775,1,1,1s1-0.44775,1-1c0-1.6543,1.3457-3,3-3s3,1.3457,3,3c0,0.55225,0.44775,1,1,1s1-0.44775,1-1
	c0-2.75684-2.24316-5-5-5S10,39.24316,10,42z"/>
<path d="M24,42c0,0.55225,0.44775,1,1,1s1-0.44775,1-1c0-1.6543,1.3457-3,3-3s3,1.3457,3,3c0,0.55225,0.44775,1,1,1s1-0.44775,1-1
	c0-2.75684-2.24316-5-5-5S24,39.24316,24,42z"/>
<path d="M5,61c4.80615,0,11.65088-0.75879,15.14111-2.90723c0.75781-0.48755,1.38251-1.13165,1.85974-1.86066
	c0.47974,0.73145,1.10901,1.37903,1.87512,1.87189C27.34961,60.2417,34.19385,61,39,61c1.6543,0,3-1.3457,3-3s-1.3457-3-3-3
	c-1.33838,0-2.48389-1.396-3.81055-3.0127c-1.82031-2.21875-4.08594-4.98047-7.9375-4.98047
	c-0.03223,0-0.06348,0.00146-0.09375,0.00391C27.10059,47.00488,27.03174,47,27,47c-2.08582,0-3.9245,1.07086-5,2.69043
	C20.9245,48.07086,19.08582,47,17,47c-0.06689,0-0.13135,0.00537-0.14746,0.0127c-0.03857-0.00342-0.07666-0.00586-0.10449-0.00586
	c-3.85156,0-6.11719,2.76172-7.9375,4.98047C7.48389,53.604,6.33838,55,5,55c-1.6543,0-3,1.3457-3,3S3.3457,61,5,61z
	 M26.94385,48.99805c0.0625,0.00928,0.12451,0.01611,0.25537,0.01855c0.02686-0.00098,0.06836-0.00488,0.10791-0.00928
	c2.87256,0.02686,4.6333,2.17285,6.33643,4.24854C35.15381,55.09668,36.71533,57,39,57c0.55127,0,1,0.44873,1,1s-0.44873,1-1,1
	c-4.90381,0-11.1582-0.80371-14.05908-2.58838C23.74365,55.64111,23,54.3335,23,53C23,50.79443,24.79443,49,26.94385,48.99805z
	 M5,57c2.28467,0,3.84619-1.90332,5.35645-3.74414c1.70312-2.07568,3.46436-4.22217,6.3374-4.24854
	c0.05664,0.00586,0.11475,0.01416,0.16504,0.00879C16.92529,49.01465,16.99023,49.00732,17,49c2.20557,0,4,1.79443,4,4
	c0,1.33398-0.74365,2.64062-1.92383,3.40039C16.1582,58.19629,9.90381,59,5,59c-0.55127,0-1-0.44873-1-1S4.44873,57,5,57z"/>
<path d="M4,32h44v16.76495C46.17371,50.23248,45,52.48035,45,55c0,4.41113,3.58887,8,8,8s8-3.58887,8-8
	c0-2.51965-1.17371-4.76752-3-6.23505V26C58,12.21484,46.78516,1,33,1C21.02716,1,10.88074,9.36566,8.52423,21H4
	c-0.55225,0-1,0.44775-1,1v9C3,31.55225,3.44775,32,4,32z M59,55c0,3.30859-2.69141,6-6,6s-6-2.69141-6-6s2.69141-6,6-6
	S59,51.69141,59,55z M33,3c12.68213,0,23,10.31787,23,23v21.58899C55.07257,47.21216,54.06116,47,53,47s-2.07257,0.21216-3,0.58899
	V31v-9c0-0.55225-0.44775-1-1-1H10.56775C12.88403,10.50555,22.12177,3,33,3z M5,23h43v7H5V23z"/>
</svg>
