<?xml version="1.0" encoding="utf-8"?>
<!-- Generator: Adobe Illustrator 19.1.0, SVG Export Plug-In . SVG Version: 6.00 Build 0)  -->
<!DOCTYPE svg PUBLIC "-//W3C//DTD SVG 1.1//EN" "http://www.w3.org/Graphics/SVG/1.1/DTD/svg11.dtd">
<svg version="1.1" id="Layer_1" xmlns="http://www.w3.org/2000/svg" xmlns:xlink="http://www.w3.org/1999/xlink" x="0px" y="0px"
	 width="32px" height="32px" viewBox="0 0 32 32" enable-background="new 0 0 32 32" xml:space="preserve">
<path fill="#444444" d="M28,19H17v-4c2.76141,0,5-2.23859,5-5V8h-1c-1.64331,0-3.08856,0.80353-4,2.02747V1c0-0.55225-0.44727-1-1-1
	s-1,0.44775-1,1v4.02747C14.08856,3.80353,12.64331,3,11,3h-1v2c0,2.76141,2.23859,5,5,5v9H4c-0.55273,0-1,0.44775-1,1v3
	c0,0.55225,0.44727,1,1,1h3v7c0,0.55225,0.44727,1,1,1h16c0.55273,0,1-0.44775,1-1v-7h3c0.55273,0,1-0.44775,1-1v-3
	C29,19.44775,28.55273,19,28,19z"/>
</svg>
