<?xml version="1.0" encoding="utf-8"?>
<!-- Generator: Adobe Illustrator 19.1.0, SVG Export Plug-In . SVG Version: 6.00 Build 0)  -->
<!DOCTYPE svg PUBLIC "-//W3C//DTD SVG 1.1//EN" "http://www.w3.org/Graphics/SVG/1.1/DTD/svg11.dtd">
<svg version="1.1" id="Layer_1" xmlns="http://www.w3.org/2000/svg" xmlns:xlink="http://www.w3.org/1999/xlink" x="0px" y="0px"
	 width="32px" height="32px" viewBox="0 0 32 32" enable-background="new 0 0 32 32" xml:space="preserve">
<path fill="#444444" d="M26,17c0-7.27881-8.95068-15.40186-9.33203-15.74414c-0.37793-0.33887-0.95166-0.34131-1.33252-0.00342
	C14.95459,1.59131,6,9.63574,6,17c0,5.17664,3.95367,9.44592,9,9.94934V30h-5c-0.55225,0-1,0.44775-1,1s0.44775,1,1,1h12
	c0.55225,0,1-0.44775,1-1s-0.44775-1-1-1h-5v-3.05066C22.04633,26.44592,26,22.17664,26,17z"/>
</svg>
