<?xml version="1.0" encoding="utf-8"?>
<!-- Generator: Adobe Illustrator 19.1.0, SVG Export Plug-In . SVG Version: 6.00 Build 0)  -->
<!DOCTYPE svg PUBLIC "-//W3C//DTD SVG 1.1//EN" "http://www.w3.org/Graphics/SVG/1.1/DTD/svg11.dtd">
<svg version="1.1" id="Layer_1" xmlns="http://www.w3.org/2000/svg" xmlns:xlink="http://www.w3.org/1999/xlink" x="0px" y="0px"
	 width="32px" height="32px" viewBox="0 0 32 32" enable-background="new 0 0 32 32" xml:space="preserve">
<path fill="#444444" d="M20,16V6c0-2.20557-1.79395-4-4-4s-4,1.79443-4,4H1C0.44727,6,0,6.44775,0,7v8c0,0.55225,0.44727,1,1,1h11v1
	c0,2.20605,1.79395,4,4,4s4-1.79395,4-4V16z M18,17c0,1.10254-0.89746,2-2,2s-2-0.89746-2-2v-1h4V17z M14,6c0-1.10303,0.89746-2,2-2
	s2,0.89697,2,2H14z"/>
<path fill="#444444" d="M31,6h-9v10h9c0.55273,0,1-0.44775,1-1V7C32,6.44775,31.55273,6,31,6z"/>
<path data-color="color-2" fill="#444444" d="M16,19c-2.75684,0-5,2.24316-5,5s2.24316,5,5,5s5-2.24316,5-5S18.75684,19,16,19z"/>
</svg>
