<?xml version="1.0" encoding="utf-8"?>
<!-- Generator: Adobe Illustrator 19.1.0, SVG Export Plug-In . SVG Version: 6.00 Build 0)  -->
<!DOCTYPE svg PUBLIC "-//W3C//DTD SVG 1.1//EN" "http://www.w3.org/Graphics/SVG/1.1/DTD/svg11.dtd">
<svg version="1.1" id="Layer_1" xmlns="http://www.w3.org/2000/svg" xmlns:xlink="http://www.w3.org/1999/xlink" x="0px" y="0px"
	 width="32px" height="32px" viewBox="0 0 32 32" enable-background="new 0 0 32 32" xml:space="preserve">
<path fill="#444444" d="M6,18.14706C6,12.54299,10.47715,8,16,8s10,4.54299,10,10.14706S21.52285,31,16,31S6,23.75113,6,18.14706z"
	/>
<path data-color="color-2" fill="#444444" d="M9.4209,8H0v1c0,2.86584,1.77765,5.38214,4.30798,6.45178
	C5.0058,12.35046,6.87329,9.6983,9.4209,8z"/>
<path data-color="color-2" fill="#444444" d="M4.63525,22.3288c-1.20123,1.19305-1.90771,2.82623-1.90771,4.58038
	c0,0.73828,0.14062,1.49121,0.41895,2.23926c0.1084,0.29102,0.34473,0.51465,0.6416,0.60645
	c0.09668,0.03027,0.19629,0.04492,0.2959,0.04492c0.20312,0,0.40527-0.0625,0.5752-0.18262
	c0.88464-0.62225,2.07251-1.01819,3.05829-1.26495C6.32874,26.58862,5.26166,24.48798,4.63525,22.3288z"/>
<path data-color="color-2" fill="#444444" d="M16,6c1.78577,0,3.47559,0.40771,5,1.1189V5c0-2.75684-2.24316-5-5-5s-5,2.24316-5,5v2.1189
	C12.52441,6.40771,14.21423,6,16,6z"/>
<path data-color="color-2" fill="#444444" d="M24.28253,28.35223c0.98578,0.24677,2.17365,0.6427,3.05829,1.26495
	c0.16992,0.12012,0.37109,0.18262,0.5752,0.18262c0.09961,0,0.19922-0.01465,0.2959-0.04492
	c0.29688-0.0918,0.5332-0.31543,0.6416-0.60645c0.27832-0.74805,0.41895-1.50098,0.41895-2.23926
	c0-1.75415-0.70648-3.38733-1.90771-4.58038C26.73834,24.48798,25.67126,26.58862,24.28253,28.35223z"/>
<path data-color="color-2" fill="#444444" d="M22.5791,8c2.54761,1.6983,4.4151,4.35052,5.11292,7.45178
	C30.22235,14.38214,32,11.86584,32,9V8H22.5791z"/>
</svg>
