<?xml version="1.0" encoding="utf-8"?>
<!-- Generator: Adobe Illustrator 19.1.0, SVG Export Plug-In . SVG Version: 6.00 Build 0)  -->
<!DOCTYPE svg PUBLIC "-//W3C//DTD SVG 1.1//EN" "http://www.w3.org/Graphics/SVG/1.1/DTD/svg11.dtd">
<svg version="1.1" id="Layer_1" xmlns="http://www.w3.org/2000/svg" xmlns:xlink="http://www.w3.org/1999/xlink" x="0px" y="0px"
	 width="32px" height="32px" viewBox="0 0 32 32" enable-background="new 0 0 32 32" xml:space="preserve">
<path fill="#444444" d="M31,0c-3.45673,0-6.64526,1.80597-8.46735,4.72418C21.44733,4.25909,20.25354,4,19,4h-6
	c-1.25354,0-2.44733,0.25909-3.53265,0.72418C7.64526,1.80597,4.45673,0,1,0C0.44775,0,0,0.44727,0,1v10
	c0,2.41443,1.7207,4.43427,4,4.89893v5.44189c0,2.54065,1.09381,4.88794,3,6.53577V29c0,0.55273,0.44775,1,1,1h3.53693
	c1.13721,1.27362,2.73303,2,4.46307,2c1.7298,0,3.32574-0.72693,4.46289-2H24c0.55225,0,1-0.44727,1-1v-1.12415
	c1.90576-1.64703,3-3.99475,3-6.53503v-5.44189c2.2793-0.46466,4-2.4845,4-4.89893V1C32,0.44727,31.55225,0,31,0z M8,14
	c0-1.10461,0.89545-2,2-2c1.10461,0,2,0.89539,2,2c0,1.10455-0.89539,2-2,2C8.89545,16,8,15.10455,8,14z M12,28H9v-4
	c0-1.40778,0.97815-2.58368,2.28802-2.90533c0.10901,0.27527,0.25732,0.53851,0.45001,0.77942l1.91937,2.39923
	c0.34998,0.43744,0.81183,0.74371,1.32214,0.92896C14.87335,26.7608,13.58502,28,12,28z M16,23.39923
	c-0.29034,0-0.58069-0.12512-0.78088-0.37531l-1.91937-2.39923C12.77594,19.96991,13.24213,19,14.08063,19h3.83875
	c0.8385,0,1.30469,0.96991,0.78088,1.62469l-1.91937,2.39923C16.58069,23.27411,16.29034,23.39923,16,23.39923z M23,28h-3
	c-1.58502,0-2.87335-1.23914-2.97955-2.79767c0.51031-0.1853,0.97223-0.49158,1.3222-0.92902l1.91931-2.39923
	c0.19269-0.24091,0.341-0.50415,0.45001-0.77942C22.02191,21.41632,23,22.59222,23,24V28z M22,16c-1.10455,0-2-0.89545-2-2
	c0-1.10461,0.89545-2,2-2c1.10461,0,2,0.89539,2,2C24,15.10455,23.10461,16,22,16z"/>
</svg>
