<?xml version="1.0" encoding="utf-8"?>
<!-- Generator: Adobe Illustrator 19.1.0, SVG Export Plug-In . SVG Version: 6.00 Build 0)  -->
<!DOCTYPE svg PUBLIC "-//W3C//DTD SVG 1.1//EN" "http://www.w3.org/Graphics/SVG/1.1/DTD/svg11.dtd">
<svg version="1.1" id="Layer_1" xmlns="http://www.w3.org/2000/svg" xmlns:xlink="http://www.w3.org/1999/xlink" x="0px" y="0px"
	 width="32px" height="32px" viewBox="0 0 32 32" enable-background="new 0 0 32 32" xml:space="preserve">
<path fill="#444444" d="M31,16c0-2.11115-1.57245-3.91284-3.79266-4.64612c1.04865-2.08722,0.89087-4.46887-0.60071-5.96051
	c-1.49164-1.49158-3.87329-1.64935-5.96051-0.60077C19.91284,2.57239,18.11115,1,16,1s-3.91284,1.57239-4.64612,3.7926
	C9.26666,3.74402,6.88501,3.90179,5.39337,5.39337c-1.49158,1.49164-1.64935,3.87329-0.60071,5.96051
	C2.57245,12.08716,1,13.88885,1,16s1.57245,3.91284,3.79266,4.64612c-1.04865,2.08722-0.89087,4.46887,0.60071,5.96045
	c1.49164,1.49164,3.87329,1.64941,5.96051,0.60077C12.08716,29.42755,13.88885,31,16,31s3.91284-1.57245,4.64612-3.79266
	c2.08722,1.04865,4.46887,0.89087,5.96051-0.60077c1.49158-1.49158,1.64935-3.87323,0.60071-5.96045
	C29.42755,19.91284,31,18.11115,31,16z M16,20c-2.20917,0-4-1.79089-4-4c0-2.20917,1.79083-4,4-4s4,1.79083,4,4
	C20,18.20911,18.20917,20,16,20z"/>
</svg>
