<?xml version="1.0" encoding="utf-8"?>
<!-- Generator: Adobe Illustrator 19.1.0, SVG Export Plug-In . SVG Version: 6.00 Build 0)  -->
<!DOCTYPE svg PUBLIC "-//W3C//DTD SVG 1.1//EN" "http://www.w3.org/Graphics/SVG/1.1/DTD/svg11.dtd">
<svg version="1.1" id="Layer_1" xmlns="http://www.w3.org/2000/svg" xmlns:xlink="http://www.w3.org/1999/xlink" x="0px" y="0px"
	 width="32px" height="32px" viewBox="0 0 32 32" enable-background="new 0 0 32 32" xml:space="preserve">
<path fill="#444444" d="M27.97754,12.79053C27.87891,12.32959,27.47168,12,27,12H5c-0.47168,0-0.87891,0.32959-0.97754,0.79053
	l-3,13.99951c-0.06348,0.2959,0.00977,0.60352,0.2002,0.83887C1.41211,27.86328,1.69824,28,2,28h28
	c0.30176,0,0.58789-0.13672,0.77734-0.37109c0.19043-0.23535,0.26367-0.54297,0.2002-0.83887L27.97754,12.79053z"/>
<path data-color="color-2" fill="#444444" d="M25.92017,10C25.43231,6.6134,22.51904,4,19,4c-1.63672,0-3.18359,0.55762-4.43164,1.58398
	C13.76562,5.2002,12.89062,5,12,5c-2.96722,0-5.43134,2.16687-5.90967,5H25.92017z"/>
</svg>
