<?xml version="1.0" encoding="utf-8"?>
<!-- Generator: Adobe Illustrator 19.1.0, SVG Export Plug-In . SVG Version: 6.00 Build 0)  -->
<!DOCTYPE svg PUBLIC "-//W3C//DTD SVG 1.1//EN" "http://www.w3.org/Graphics/SVG/1.1/DTD/svg11.dtd">
<svg version="1.1" id="Layer_1" xmlns="http://www.w3.org/2000/svg" xmlns:xlink="http://www.w3.org/1999/xlink" x="0px" y="0px"
	 width="32px" height="32px" viewBox="0 0 32 32" enable-background="new 0 0 32 32" xml:space="preserve">
<path data-color="color-2" fill="#444444" d="M4,13.09961C4,7.77283,8.92755,3.40747,15.14624,3.03638C13.53558,1.13171,11.10052,0,8.5,0
	C3.81348,0,0,3.58887,0,8c0,2.85577,1.64752,5.47021,4.18237,6.88861C4.06494,14.19177,4,13.58185,4,13.09961z"/>
<path data-color="color-2" fill="#444444" d="M23.5,0c-2.60052,0-5.03558,1.13171-6.64624,3.03638
	C23.07245,3.40747,28,7.77283,28,13.09961c0,0.48224-0.06494,1.09216-0.18237,1.789C30.35248,13.47021,32,10.85577,32,8
	C32,3.58887,28.18652,0,23.5,0z"/>
<path fill="#444444" d="M28.12402,21.26074l-4.51263,0.67657C25.03931,18.4386,26,14.93341,26,13.09998C26,8.62646,21.52283,5,16,5
	S6,8.62646,6,13.09998c0,1.83295,0.95007,5.33667,2.36969,8.83447l-4.49371-0.67371
	c-0.55469-0.07422-1.05566,0.29492-1.1377,0.84082s0.29492,1.05566,0.84082,1.1377l5.73242,0.85944
	c0.39679,0.85175,0.81604,1.68115,1.25128,2.46313l-5.63995,0.96063c-0.54395,0.09277-0.91016,0.6084-0.81738,1.15332
	c0.08301,0.4873,0.50586,0.83203,0.98438,0.83203c0.05566,0,0.1123-0.00488,0.16895-0.01465l6.4198-1.09344
	C13.10217,30.53607,14.61719,32,16,32c1.36475,0,2.8739-1.46588,4.29767-3.60437l6.44354,1.09753
	c0.05664,0.00977,0.11328,0.01465,0.16895,0.01465c0.47852,0,0.90137-0.34473,0.98438-0.83203
	c0.09277-0.54492-0.27344-1.06055-0.81738-1.15332l-5.66327-0.9646c0.43469-0.77972,0.85376-1.60657,1.25085-2.45563
	l5.75616-0.86298c0.5459-0.08203,0.92285-0.5918,0.84082-1.1377S28.68555,21.18652,28.12402,21.26074z M12,18
	c-1.10455,0-2-0.89545-2-2c0-1.10461,0.89545-2,2-2s2,0.89539,2,2C14,17.10455,13.10455,18,12,18z M20,18c-1.10455,0-2-0.89545-2-2
	c0-1.10461,0.89545-2,2-2s2,0.89539,2,2C22,17.10455,21.10455,18,20,18z"/>
</svg>
