<?xml version="1.0" encoding="utf-8"?>
<!-- Generator: Adobe Illustrator 19.1.0, SVG Export Plug-In . SVG Version: 6.00 Build 0)  -->
<!DOCTYPE svg PUBLIC "-//W3C//DTD SVG 1.1//EN" "http://www.w3.org/Graphics/SVG/1.1/DTD/svg11.dtd">
<svg version="1.1" id="Layer_1" xmlns="http://www.w3.org/2000/svg" xmlns:xlink="http://www.w3.org/1999/xlink" x="0px" y="0px"
	 width="32px" height="32px" viewBox="0 0 32 32" enable-background="new 0 0 32 32" xml:space="preserve">
<path fill="#444444" d="M30.68359,5.27051c-0.20117-0.18896-0.47168-0.2832-0.74805-0.26855
	C22.58496,5.47852,17.82227,10.19189,16,12.36475c-1.82227-2.17285-6.58496-6.88623-13.93555-7.36279
	C1.79004,4.98633,1.51758,5.08154,1.31641,5.27051C1.11426,5.45947,1,5.72363,1,6v10c0,8.271,6.72852,15,15,15s15-6.729,15-15V6
	C31,5.72363,30.88574,5.45947,30.68359,5.27051z"/>
<path data-color="color-2" fill="#444444" d="M16,9.4292c1.32062-1.29364,3.19836-2.83447,5.59259-4.08868
	c-2.28485-2.401-4.91315-4.09302-5.05548-4.18378c-0.32812-0.20898-0.74609-0.20898-1.07422,0
	C15.3205,1.2475,12.69153,2.94,10.40649,5.34155C12.80176,6.5957,14.67932,8.13605,16,9.4292z"/>
</svg>
