<?xml version="1.0" encoding="utf-8"?>
<!-- Generator: Adobe Illustrator 18.1.1, SVG Export Plug-In . SVG Version: 6.00 Build 0)  -->
<!DOCTYPE svg PUBLIC "-//W3C//DTD SVG 1.1//EN" "http://www.w3.org/Graphics/SVG/1.1/DTD/svg11.dtd">
<svg version="1.1" id="Layer_1" xmlns="http://www.w3.org/2000/svg" xmlns:xlink="http://www.w3.org/1999/xlink" x="0px" y="0px"
	 width="32px" height="32px" viewBox="0 0 32 32" enable-background="new 0 0 32 32" xml:space="preserve">
<path d="M16,0C10.6,0,5,4,5,10.6c0,6.2,9.9,16.7,10.3,17.1c0.2,0.2,0.5,0.3,0.7,0.3s0.5-0.1,0.7-0.3C17.1,27.2,27,16.8,27,10.6
	C27,4,21.4,0,16,0z M16,15c-2.2,0-4-1.8-4-4s1.8-4,4-4s4,1.8,4,4S18.2,15,16,15z"/>
<path d="M25.8,22.5C25.7,22.2,25.3,22,25,22l-0.6,2l3.8,6H3.8l3.8-6L7,22c-0.3,0-0.7,0.2-0.8,0.5l-5,8c-0.2,0.3-0.2,0.7,0,1
	S1.6,32,2,32h28c0.4,0,0.7-0.2,0.9-0.5s0.2-0.7,0-1L25.8,22.5z"/>
</svg>
