<?xml version="1.0" encoding="utf-8"?>
<!-- Generator: Adobe Illustrator 18.1.1, SVG Export Plug-In . SVG Version: 6.00 Build 0)  -->
<!DOCTYPE svg PUBLIC "-//W3C//DTD SVG 1.1//EN" "http://www.w3.org/Graphics/SVG/1.1/DTD/svg11.dtd">
<svg version="1.1" id="Layer_1" xmlns="http://www.w3.org/2000/svg" xmlns:xlink="http://www.w3.org/1999/xlink" x="0px" y="0px"
	 width="32px" height="32px" viewBox="0 0 32 32" enable-background="new 0 0 32 32" xml:space="preserve">
<path d="M21,0c-1,0-2.1,0.1-3.1,0.4C22.4,2.6,26,7.1,26,13c0,4.3-3.5,9.6-6.8,13.5c0.6,0.7,1,1.1,1.1,1.2c0.2,0.2,0.5,0.3,0.7,0.3
	s0.5-0.1,0.7-0.3C22.1,27.2,32,16.8,32,10.5C32,3.9,26.4,0,21,0z"/>
<path d="M0,13c0,6.7,10.8,17.3,11.3,17.7c0.2,0.2,0.4,0.3,0.7,0.3s0.5-0.1,0.7-0.3C13.2,30.3,24,19.7,24,13c0-7.2-6.2-12-12-12
	S0,5.8,0,13z M12,9c2.2,0,4,1.8,4,4s-1.8,4-4,4s-4-1.8-4-4S9.8,9,12,9z"/>
</svg>
