<?xml version="1.0" encoding="utf-8"?>
<!-- Generator: Adobe Illustrator 18.1.1, SVG Export Plug-In . SVG Version: 6.00 Build 0)  -->
<!DOCTYPE svg PUBLIC "-//W3C//DTD SVG 1.1//EN" "http://www.w3.org/Graphics/SVG/1.1/DTD/svg11.dtd">
<svg version="1.1" id="Layer_1" xmlns="http://www.w3.org/2000/svg" xmlns:xlink="http://www.w3.org/1999/xlink" x="0px" y="0px"
	 width="32px" height="32px" viewBox="0 0 32 32" enable-background="new 0 0 32 32" xml:space="preserve">
<path d="M16,31c0.3,0,0.5-0.1,0.7-0.3C17.2,30.2,28,19.2,28,12c0-7.5-6.1-12-12-12S4,4.5,4,12c0,7.1,10.8,18.2,11.3,18.7
	C15.5,30.9,15.7,31,16,31z M12,12c0-2.2,1.8-4,4-4s4,1.8,4,4s-1.8,4-4,4S12,14.2,12,12z"/>
</svg>
