<?xml version="1.0" encoding="utf-8"?>
<!-- Generator: Adobe Illustrator 18.1.1, SVG Export Plug-In . SVG Version: 6.00 Build 0)  -->
<!DOCTYPE svg PUBLIC "-//W3C//DTD SVG 1.1//EN" "http://www.w3.org/Graphics/SVG/1.1/DTD/svg11.dtd">
<svg version="1.1" id="Layer_1" xmlns="http://www.w3.org/2000/svg" xmlns:xlink="http://www.w3.org/1999/xlink" x="0px" y="0px"
	 width="32px" height="32px" viewBox="0 0 32 32" enable-background="new 0 0 32 32" xml:space="preserve">
<path d="M23.5,0H16c-0.6,0-1,0.4-1,1s0.4,1,1,1h7.5C27.1,2,30,4.9,30,8.5c0,2.7-1.7,5.1-4.1,6C26,15,26,15.5,26,16
	c0,0.2,0,0.4,0,0.6c3.5-1.1,6-4.3,6-8.1C32,3.8,28.2,0,23.5,0z"/>
<path d="M16,30H8.5C4.9,30,2,27.1,2,23.5c0-2.7,1.7-5.1,4.1-6C6,17,6,16.5,6,16c0-0.2,0-0.4,0-0.6c-3.5,1.1-6,4.3-6,8.1
	C0,28.2,3.8,32,8.5,32H16c0.6,0,1-0.4,1-1S16.6,30,16,30z"/>
<path d="M12,0c-0.6,0-1,0.4-1,1s0.4,1,1,1h1c0.6,0,1-0.4,1-1s-0.4-1-1-1H12z"/>
<path d="M20,30h-1c-0.6,0-1,0.4-1,1s0.4,1,1,1h1c0.6,0,1-0.4,1-1S20.6,30,20,30z"/>
<path d="M16,8c-4.4,0-8,3.6-8,8s3.6,8,8,8s8-3.6,8-8S20.4,8,16,8z M18.7,17.3c0.4,0.4,0.4,1,0,1.4C18.5,18.9,18.3,19,18,19
	s-0.5-0.1-0.7-0.3L16,17.4l-1.3,1.3C14.5,18.9,14.3,19,14,19s-0.5-0.1-0.7-0.3c-0.4-0.4-0.4-1,0-1.4l1.3-1.3l-1.3-1.3
	c-0.4-0.4-0.4-1,0-1.4s1-0.4,1.4,0l1.3,1.3l1.3-1.3c0.4-0.4,1-0.4,1.4,0s0.4,1,0,1.4L17.4,16L18.7,17.3z"/>
</svg>
