<?xml version="1.0" encoding="utf-8"?>
<!-- Generator: Adobe Illustrator 18.1.1, SVG Export Plug-In . SVG Version: 6.00 Build 0)  -->
<!DOCTYPE svg PUBLIC "-//W3C//DTD SVG 1.1//EN" "http://www.w3.org/Graphics/SVG/1.1/DTD/svg11.dtd">
<svg version="1.1" id="Layer_1" xmlns="http://www.w3.org/2000/svg" xmlns:xlink="http://www.w3.org/1999/xlink" x="0px" y="0px"
	 width="32px" height="32px" viewBox="0 0 32 32" enable-background="new 0 0 32 32" xml:space="preserve">
<path d="M31,15h-1.1C29.5,8.1,23.9,2.5,17,2.1V1c0-0.6-0.4-1-1-1s-1,0.4-1,1v1.1C8.1,2.5,2.5,8.1,2.1,15H1c-0.6,0-1,0.4-1,1
	s0.4,1,1,1h1.1c0.5,6.9,6,12.5,12.9,12.9V31c0,0.6,0.4,1,1,1s1-0.4,1-1v-1.1c6.9-0.5,12.5-6,12.9-12.9H31c0.6,0,1-0.4,1-1
	S31.6,15,31,15z M26,17h1.9c-0.5,5.8-5.1,10.5-10.9,10.9V26c0-0.6-0.4-1-1-1s-1,0.4-1,1v1.9C9.2,27.5,4.5,22.8,4.1,17H6
	c0.6,0,1-0.4,1-1s-0.4-1-1-1H4.1C4.5,9.2,9.2,4.5,15,4.1V6c0,0.6,0.4,1,1,1s1-0.4,1-1V4.1C22.8,4.5,27.5,9.2,27.9,15H26
	c-0.6,0-1,0.4-1,1S25.4,17,26,17z"/>
<circle cx="16" cy="16" r="3"/>
</svg>
