<?xml version="1.0" encoding="utf-8"?>
<!-- Generator: Adobe Illustrator 18.1.1, SVG Export Plug-In . SVG Version: 6.00 Build 0)  -->
<!DOCTYPE svg PUBLIC "-//W3C//DTD SVG 1.1//EN" "http://www.w3.org/Graphics/SVG/1.1/DTD/svg11.dtd">
<svg version="1.1" id="Layer_1" xmlns="http://www.w3.org/2000/svg" xmlns:xlink="http://www.w3.org/1999/xlink" x="0px" y="0px"
	 width="32px" height="32px" viewBox="0 0 32 32" enable-background="new 0 0 32 32" xml:space="preserve">
<path d="M1.3,30l8.7-2.6V1.3L0.7,4C0.3,4.2,0,4.6,0,5v24c0,0.3,0.1,0.6,0.4,0.8S1,30,1.3,30z"/>
<polygon points="20,4.5 12,1.3 12,27.5 20,30.7 "/>
<path d="M30.7,2L22,4.7v26.1l9.3-2.8c0.4-0.1,0.7-0.5,0.7-1V3c0-0.3-0.1-0.6-0.4-0.8C31.3,2,31,2,30.7,2z"/>
</svg>
