<?xml version="1.0" encoding="utf-8"?>
<!-- Generator: Adobe Illustrator 18.1.1, SVG Export Plug-In . SVG Version: 6.00 Build 0)  -->
<!DOCTYPE svg PUBLIC "-//W3C//DTD SVG 1.1//EN" "http://www.w3.org/Graphics/SVG/1.1/DTD/svg11.dtd">
<svg version="1.1" id="Layer_1" xmlns="http://www.w3.org/2000/svg" xmlns:xlink="http://www.w3.org/1999/xlink" x="0px" y="0px"
	 width="32px" height="32px" viewBox="0 0 32 32" enable-background="new 0 0 32 32" xml:space="preserve">
<path d="M15,18.2c0.4,2.2,0.3,3.5,0.3,4.4c-0.1,1.2-0.1,2.3,1.3,3.4c0.4,0.3,1,0.5,1.5,0.5c1.7,0,3.3-1.4,4.1-2.2
	c1.5-1.5,3.1-3.9,3-6.3c0-1.1-0.5-2.2-1.3-2.9v1.4c0,1.7-1.3,3-3,3s-3-1.3-3-3v-2.6c-0.9,0.3-1.6,0.8-2.2,1.5
	C15.1,16.2,14.8,17.2,15,18.2z"/>
<path d="M2,18c0,7.7,6.3,14,14,14s14-6.3,14-14c0-3.2-1.1-6.3-3.1-8.8c-0.4,0.6-0.8,1.1-1.3,1.5c1.6,2.1,2.4,4.6,2.4,7.2
	c0,6.6-5.4,12-12,12c-3.4,0-6.5-1.5-8.7-3.8C8.1,24.4,8,22.6,7,21c-0.3-0.5-0.7-0.9-1-1.3c-0.5-0.5-1.2-1.3-1.2-1.6
	c0.1-0.3,1.1-0.7,1.7-1c1-0.5,2.2-1.1,2.9-2c1.4-1.8,0.4-5-0.3-6.1C8.9,8.8,8.8,8.6,8.7,8.5c1.5-1.2,3.4-2,5.4-2.3
	c0-0.2,0-0.4,0-0.7c0-0.5,0-0.9,0.1-1.4C7.3,5.1,2,10.9,2,18z"/>
<path d="M26,5.5c0-2.8-2.2-5-5-5s-5,2.2-5,5c0,2.4,1.7,4.4,4,4.9c0,0,0,0.1,0,0.1v6c0,0.6,0.4,1,1,1s1-0.4,1-1v-6c0,0,0-0.1,0-0.1
	C24.3,9.9,26,7.9,26,5.5z"/>
</svg>
