<?xml version="1.0" encoding="utf-8"?>
<!-- Generator: Adobe Illustrator 18.1.1, SVG Export Plug-In . SVG Version: 6.00 Build 0)  -->
<!DOCTYPE svg PUBLIC "-//W3C//DTD SVG 1.1//EN" "http://www.w3.org/Graphics/SVG/1.1/DTD/svg11.dtd">
<svg version="1.1" id="Layer_1" xmlns="http://www.w3.org/2000/svg" xmlns:xlink="http://www.w3.org/1999/xlink" x="0px" y="0px"
	 width="32px" height="32px" viewBox="0 0 32 32" enable-background="new 0 0 32 32" xml:space="preserve">
<path d="M16,0C7.2,0,0,7.2,0,16s7.2,16,16,16s16-7.2,16-16S24.8,0,16,0z M15,3c0-0.6,0.4-1,1-1s1,0.4,1,1v2c0,0.6-0.4,1-1,1
	s-1-0.4-1-1V3z M5,17H3c-0.6,0-1-0.4-1-1s0.4-1,1-1h2c0.6,0,1,0.4,1,1S5.6,17,5,17z M17,29c0,0.6-0.4,1-1,1s-1-0.4-1-1v-2
	c0-0.6,0.4-1,1-1s1,0.4,1,1V29z M22.9,10.3l-3,9c-0.1,0.3-0.3,0.5-0.6,0.6l-9,3C10.2,23,10.1,23,10,23c-0.3,0-0.5-0.1-0.7-0.3
	c-0.3-0.3-0.4-0.7-0.2-1l3-9c0.1-0.3,0.3-0.5,0.6-0.6l9-3c0.4-0.1,0.8,0,1,0.2C23,9.6,23.1,10,22.9,10.3z M30,16c0,0.6-0.4,1-1,1h-2
	c-0.6,0-1-0.4-1-1s0.4-1,1-1h2C29.6,15,30,15.4,30,16z"/>
<polygon points="18.2,18.2 20.4,11.6 13.8,13.8 "/>
</svg>
