<?xml version="1.0" encoding="utf-8"?>
<!-- Generator: Adobe Illustrator 18.1.1, SVG Export Plug-In . SVG Version: 6.00 Build 0)  -->
<!DOCTYPE svg PUBLIC "-//W3C//DTD SVG 1.1//EN" "http://www.w3.org/Graphics/SVG/1.1/DTD/svg11.dtd">
<svg version="1.1" id="Layer_1" xmlns="http://www.w3.org/2000/svg" xmlns:xlink="http://www.w3.org/1999/xlink" x="0px" y="0px"
	 width="32px" height="32px" viewBox="0 0 32 32" enable-background="new 0 0 32 32" xml:space="preserve">
<path d="M31.6,5.2C31.3,5,31,5,30.7,5l-6.7,2c0,0.8-0.1,1.5-0.3,2.2L30,7.3v18l-8,3.2V12.3c-0.6,0.7-1.2,1.2-2,1.6v14.6l-8-3.2V13.9
	c-0.8-0.4-1.4-1-2-1.6v13l-8,3.2V10.7l6.1-2.4C8,7.8,8,7.4,8,7c0-0.3,0-0.6,0.1-0.9l-7.4,3C0.2,9.2,0,9.6,0,10v20
	c0,0.3,0.2,0.6,0.4,0.8C0.6,30.9,0.8,31,1,31c0.1,0,0.3,0,0.4-0.1l9.6-3.9l9.6,3.9c0.1,0,0.2,0.1,0.3,0.1c0,0,0,0,0,0s0,0,0,0
	c0.1,0,0.2,0,0.3-0.1l10-4c0.4-0.2,0.6-0.5,0.6-0.9V6C32,5.7,31.9,5.4,31.6,5.2z"/>
<path d="M15,12.9C15,12.9,15,13,15,12.9l0,5.1c0,0.6,0.4,1,1,1s1-0.4,1-1v-5c0,0,0-0.1,0-0.1c2.8-0.5,5-2.9,5-5.9c0-3.3-2.7-6-6-6
	s-6,2.7-6,6C10,10,12.2,12.4,15,12.9z"/>
</svg>
