<?xml version="1.0" encoding="utf-8"?>
<!-- Generator: Adobe Illustrator 18.1.1, SVG Export Plug-In . SVG Version: 6.00 Build 0)  -->
<!DOCTYPE svg PUBLIC "-//W3C//DTD SVG 1.1//EN" "http://www.w3.org/Graphics/SVG/1.1/DTD/svg11.dtd">
<svg version="1.1" id="Layer_1" xmlns="http://www.w3.org/2000/svg" xmlns:xlink="http://www.w3.org/1999/xlink" x="0px" y="0px"
	 width="32px" height="32px" viewBox="0 0 32 32" enable-background="new 0 0 32 32" xml:space="preserve">
<path d="M16,32c6.5,0,13-1.7,13-5c0-2.8-4.7-4.4-10-4.9v2c5.2,0.5,8,2,8,2.9c0,1-3.9,3-11,3S5,28,5,27c0-0.9,2.8-2.4,8-2.9v-2
	C7.7,22.6,3,24.2,3,27C3,30.3,9.5,32,16,32z"/>
<path d="M16,27c0.6,0,1-0.4,1-1v-8.1c4.5-0.5,8-4.3,8-8.9c0-5-4-9-9-9S7,4,7,9c0,4.6,3.5,8.4,8,8.9V26C15,26.6,15.4,27,16,27z"/>
</svg>
