<?xml version="1.0" encoding="utf-8"?>
<!-- Generator: Adobe Illustrator 18.1.1, SVG Export Plug-In . SVG Version: 6.00 Build 0)  -->
<!DOCTYPE svg PUBLIC "-//W3C//DTD SVG 1.1//EN" "http://www.w3.org/Graphics/SVG/1.1/DTD/svg11.dtd">
<svg version="1.1" id="Layer_1" xmlns="http://www.w3.org/2000/svg" xmlns:xlink="http://www.w3.org/1999/xlink" x="0px" y="0px"
	 width="32px" height="32px" viewBox="0 0 32 32" enable-background="new 0 0 32 32" xml:space="preserve">
<path d="M16,20c-0.7,0-1.4-0.1-2-0.2V30h-4c-0.6,0-1,0.4-1,1s0.4,1,1,1h5h2h5c0.6,0,1-0.4,1-1s-0.4-1-1-1h-4V19.8
	C17.4,19.9,16.7,20,16,20z"/>
<path d="M16,18c5,0,9-4,9-9s-4-9-9-9S7,4,7,9S11,18,16,18z"/>
</svg>
