<?xml version="1.0" encoding="utf-8"?>
<!-- Generator: Adobe Illustrator 18.1.1, SVG Export Plug-In . SVG Version: 6.00 Build 0)  -->
<!DOCTYPE svg PUBLIC "-//W3C//DTD SVG 1.1//EN" "http://www.w3.org/Graphics/SVG/1.1/DTD/svg11.dtd">
<svg version="1.1" id="Layer_1" xmlns="http://www.w3.org/2000/svg" xmlns:xlink="http://www.w3.org/1999/xlink" x="0px" y="0px"
	 width="32px" height="32px" viewBox="0 0 32 32" enable-background="new 0 0 32 32" xml:space="preserve">
<path d="M30.7,5l-4.8,1.4C26,6.9,26,7.4,26,7.8c0,0.2,0,0.5-0.1,0.7L30,7.3v18l-8,3.2V16.7c-0.7,0.9-1.4,1.7-2,2.4v9.4l-8-3.2v-6.2
	c-0.6-0.7-1.3-1.5-2-2.4v8.6l-8,3.2V10.7L6.1,9C6,8.6,6,8.2,6,7.8c0-0.3,0-0.6,0-0.9L0.6,9.1C0.2,9.2,0,9.6,0,10v20
	c0,0.3,0.2,0.6,0.4,0.8C0.6,30.9,0.8,31,1,31c0.1,0,0.3,0,0.4-0.1l9.6-3.9l9.6,3.9c0.1,0,0.2,0.1,0.3,0.1c0,0,0,0,0,0s0,0,0,0
	c0.1,0,0.2,0,0.3-0.1l0,0c0,0,0,0,0,0l10-4c0.4-0.2,0.6-0.5,0.6-0.9V6c0-0.3-0.1-0.6-0.4-0.8C31.3,5,31,5,30.7,5z"/>
<path d="M16,20c0.3,0,0.5-0.1,0.7-0.3C17.5,19,24,12.3,24,7.8C24,2.9,19.9,0,16,0S8,2.9,8,7.8c0,4.5,6.5,11.1,7.3,11.9
	C15.5,19.9,15.7,20,16,20z M14,8c0-1.1,0.9-2,2-2s2,0.9,2,2c0,1.1-0.9,2-2,2S14,9.1,14,8z"/>
</svg>
