<?xml version="1.0" encoding="utf-8"?>
<!-- Generator: Adobe Illustrator 18.1.1, SVG Export Plug-In . SVG Version: 6.00 Build 0)  -->
<!DOCTYPE svg PUBLIC "-//W3C//DTD SVG 1.1//EN" "http://www.w3.org/Graphics/SVG/1.1/DTD/svg11.dtd">
<svg version="1.1" id="Layer_1" xmlns="http://www.w3.org/2000/svg" xmlns:xlink="http://www.w3.org/1999/xlink" x="0px" y="0px"
	 width="32px" height="32px" viewBox="0 0 32 32" enable-background="new 0 0 32 32" xml:space="preserve">
<path d="M16,28c0.3,0,0.5-0.1,0.7-0.3C17.1,27.2,27,16.8,27,10.5C27,3.9,21.4,0,16,0S5,3.9,5,10.5c0,6.2,9.9,16.7,10.3,17.1
	C15.5,27.9,15.7,28,16,28z M12,11c0-2.2,1.8-4,4-4s4,1.8,4,4s-1.8,4-4,4S12,13.2,12,11z"/>
<path d="M16,32c6.5,0,13-1.7,13-5c0-2.1-2.5-3.4-5.6-4.2c-0.5,0.6-0.9,1.2-1.3,1.7c3.4,0.7,5,1.9,5,2.4c0,1-3.9,3-11,3S5,28,5,27
	c0-0.6,1.5-1.7,5-2.4c-0.4-0.5-0.9-1.1-1.3-1.7C5.5,23.6,3,24.9,3,27C3,30.3,9.5,32,16,32z"/>
</svg>
