<?xml version="1.0" encoding="utf-8"?>
<!-- Generator: Adobe Illustrator 19.2.0, SVG Export Plug-In . SVG Version: 6.00 Build 0)  -->
<!DOCTYPE svg PUBLIC "-//W3C//DTD SVG 1.1//EN" "http://www.w3.org/Graphics/SVG/1.1/DTD/svg11.dtd">
<svg version="1.1" id="Layer_1" xmlns="http://www.w3.org/2000/svg" xmlns:xlink="http://www.w3.org/1999/xlink" x="0px" y="0px"
	 width="48px" height="48px" viewBox="0 0 48 48" enable-background="new 0 0 48 48" xml:space="preserve">
<path d="M6,13c2.757,0,5-2.243,5-5S8.757,3,6,3S1,5.243,1,8S3.243,13,6,13z M6,5c1.654,0,3,1.346,3,3s-1.346,3-3,3S3,9.654,3,8
	S4.346,5,6,5z"/>
<path d="M6,29c2.757,0,5-2.243,5-5s-2.243-5-5-5s-5,2.243-5,5S3.243,29,6,29z M6,21c1.654,0,3,1.346,3,3s-1.346,3-3,3s-3-1.346-3-3
	S4.346,21,6,21z"/>
<path d="M6,45c2.757,0,5-2.243,5-5s-2.243-5-5-5s-5,2.243-5,5S3.243,45,6,45z M6,37c1.654,0,3,1.346,3,3s-1.346,3-3,3s-3-1.346-3-3
	S4.346,37,6,37z"/>
<path d="M46,7H18c-0.552,0-1,0.448-1,1s0.448,1,1,1h28c0.552,0,1-0.448,1-1S46.552,7,46,7z"/>
<path d="M18,25h16c0.552,0,1-0.448,1-1s-0.448-1-1-1H18c-0.552,0-1,0.448-1,1S17.448,25,18,25z"/>
<path d="M46,39H18c-0.552,0-1,0.447-1,1s0.448,1,1,1h28c0.552,0,1-0.447,1-1S46.552,39,46,39z"/>
</svg>
