<?xml version="1.0" encoding="utf-8"?>
<!-- Generator: Adobe Illustrator 19.2.0, SVG Export Plug-In . SVG Version: 6.00 Build 0)  -->
<!DOCTYPE svg PUBLIC "-//W3C//DTD SVG 1.1//EN" "http://www.w3.org/Graphics/SVG/1.1/DTD/svg11.dtd">
<svg version="1.1" id="Layer_1" xmlns="http://www.w3.org/2000/svg" xmlns:xlink="http://www.w3.org/1999/xlink" x="0px" y="0px"
	 width="48px" height="48px" viewBox="0 0 48 48" enable-background="new 0 0 48 48" xml:space="preserve">
<path d="M34,9H2c-0.553,0-1,0.448-1,1v4c0,0.552,0.447,1,1,1s1-0.448,1-1v-3h14v32h-7c-0.553,0-1,0.447-1,1s0.447,1,1,1h16
	c0.553,0,1-0.447,1-1s-0.447-1-1-1h-7V11h14v3c0,0.552,0.447,1,1,1s1-0.448,1-1v-4C35,9.448,34.553,9,34,9z"/>
<path d="M46,11h-2V4c0-0.552-0.447-1-1-1h-3c-0.553,0-1,0.448-1,1s0.447,1,1,1h2v6h-2c-0.553,0-1,0.448-1,1s0.447,1,1,1h6
	c0.553,0,1-0.448,1-1S46.553,11,46,11z"/>
</svg>
