<?xml version="1.0" encoding="utf-8"?>
<!-- Generator: Adobe Illustrator 19.2.0, SVG Export Plug-In . SVG Version: 6.00 Build 0)  -->
<!DOCTYPE svg PUBLIC "-//W3C//DTD SVG 1.1//EN" "http://www.w3.org/Graphics/SVG/1.1/DTD/svg11.dtd">
<svg version="1.1" id="Layer_1" xmlns="http://www.w3.org/2000/svg" xmlns:xlink="http://www.w3.org/1999/xlink" x="0px" y="0px"
	 width="48px" height="48px" viewBox="0 0 48 48" enable-background="new 0 0 48 48" xml:space="preserve">
<path d="M34,45h-9V32c0-0.553-0.448-1-1-1s-1,0.447-1,1v13h-9c-0.552,0-1,0.447-1,1s0.448,1,1,1h20c0.552,0,1-0.447,1-1
	S34.552,45,34,45z"/>
<path d="M46,23H25V3h18v5c0,0.553,0.448,1,1,1s1-0.447,1-1V2c0-0.553-0.448-1-1-1H4C3.448,1,3,1.447,3,2v6c0,0.553,0.448,1,1,1
	s1-0.447,1-1V3h18v20H2c-0.552,0-1,0.447-1,1s0.448,1,1,1h44c0.552,0,1-0.447,1-1S46.552,23,46,23z"/>
</svg>
