<?xml version="1.0" encoding="utf-8"?>
<!-- Generator: Adobe Illustrator 19.2.0, SVG Export Plug-In . SVG Version: 6.00 Build 0)  -->
<!DOCTYPE svg PUBLIC "-//W3C//DTD SVG 1.1//EN" "http://www.w3.org/Graphics/SVG/1.1/DTD/svg11.dtd">
<svg version="1.1" id="Layer_1" xmlns="http://www.w3.org/2000/svg" xmlns:xlink="http://www.w3.org/1999/xlink" x="0px" y="0px"
	 width="48px" height="48px" viewBox="0 0 48 48" enable-background="new 0 0 48 48" xml:space="preserve">
<path d="M26,39h-7V7h14v3c0,0.553,0.448,1,1,1s1-0.447,1-1V6c0-0.553-0.448-1-1-1H2C1.448,5,1,5.447,1,6v4c0,0.553,0.448,1,1,1
	s1-0.447,1-1V7h14v32h-7c-0.552,0-1,0.447-1,1s0.448,1,1,1h16c0.552,0,1-0.447,1-1S26.552,39,26,39z"/>
<path d="M46,19H26c-0.552,0-1,0.447-1,1v2c0,0.553,0.448,1,1,1s1-0.447,1-1v-1h8v18h-3c-0.552,0-1,0.447-1,1s0.448,1,1,1h8
	c0.552,0,1-0.447,1-1s-0.448-1-1-1h-3V21h8v1c0,0.553,0.448,1,1,1s1-0.447,1-1v-2C47,19.447,46.552,19,46,19z"/>
</svg>
