<?xml version="1.0" encoding="utf-8"?>
<!-- Generator: Adobe Illustrator 19.2.0, SVG Export Plug-In . SVG Version: 6.00 Build 0)  -->
<!DOCTYPE svg PUBLIC "-//W3C//DTD SVG 1.1//EN" "http://www.w3.org/Graphics/SVG/1.1/DTD/svg11.dtd">
<svg version="1.1" id="Layer_1" xmlns="http://www.w3.org/2000/svg" xmlns:xlink="http://www.w3.org/1999/xlink" x="0px" y="0px"
	 width="48px" height="48px" viewBox="0 0 48 48" enable-background="new 0 0 48 48" xml:space="preserve">
<path d="M46,45H2c-0.552,0-1,0.448-1,1s0.448,1,1,1h44c0.552,0,1-0.448,1-1S46.552,45,46,45z"/>
<path d="M6,3h3v21c0,8.271,6.729,15,15,15s15-6.729,15-15V3h3c0.552,0,1-0.448,1-1s-0.448-1-1-1h-8c-0.552,0-1,0.448-1,1
	s0.448,1,1,1h3v21c0,7.168-5.832,13-13,13s-13-5.832-13-13V3h3c0.552,0,1-0.448,1-1s-0.448-1-1-1H6C5.448,1,5,1.448,5,2S5.448,3,6,3
	z"/>
</svg>
