<?xml version="1.0" encoding="utf-8"?>
<!-- Generator: Adobe Illustrator 19.2.0, SVG Export Plug-In . SVG Version: 6.00 Build 0)  -->
<!DOCTYPE svg PUBLIC "-//W3C//DTD SVG 1.1//EN" "http://www.w3.org/Graphics/SVG/1.1/DTD/svg11.dtd">
<svg version="1.1" id="Layer_1" xmlns="http://www.w3.org/2000/svg" xmlns:xlink="http://www.w3.org/1999/xlink" x="0px" y="0px"
	 width="48px" height="48px" viewBox="0 0 48 48" enable-background="new 0 0 48 48" xml:space="preserve">
<path d="M46,3H26c-0.552,0-1,0.448-1,1s0.448,1,1,1h20c0.552,0,1-0.448,1-1S46.552,3,46,3z"/>
<path d="M46,13H26c-0.552,0-1,0.448-1,1s0.448,1,1,1h20c0.552,0,1-0.448,1-1S46.552,13,46,13z"/>
<path d="M46,23H2c-0.552,0-1,0.448-1,1s0.448,1,1,1h44c0.552,0,1-0.448,1-1S46.552,23,46,23z"/>
<path d="M46,33H2c-0.552,0-1,0.447-1,1s0.448,1,1,1h44c0.552,0,1-0.447,1-1S46.552,33,46,33z"/>
<path d="M46,43H2c-0.552,0-1,0.447-1,1s0.448,1,1,1h44c0.552,0,1-0.447,1-1S46.552,43,46,43z"/>
<path d="M15,17c0,0.552,0.448,1,1,1h1.997c0.001,0,0.002,0,0.003,0c0.001,0,0.002,0,0.002,0H20c0.552,0,1-0.448,1-1s-0.448-1-1-1
	h-1.341l-2.309-5.387c-0.001-0.001-0.001-0.003-0.002-0.004l-3.43-8.003C12.762,2.238,12.4,2,12,2h-2C9.6,2,9.238,2.238,9.081,2.606
	l-3.43,8.003c-0.001,0.002-0.001,0.003-0.002,0.004L3.341,16H2c-0.552,0-1,0.448-1,1s0.448,1,1,1h1.991c0.004,0,0.007,0,0.01,0H6
	c0.552,0,1-0.448,1-1s-0.448-1-1-1H5.516l1.714-4h7.539l1.714,4H16C15.448,16,15,16.448,15,17z M8.088,10l2.571-6h0.682l2.571,6
	H8.088z"/>
</svg>
