<?xml version="1.0" encoding="utf-8"?>
<!-- Generator: Adobe Illustrator 19.2.0, SVG Export Plug-In . SVG Version: 6.00 Build 0)  -->
<!DOCTYPE svg PUBLIC "-//W3C//DTD SVG 1.1//EN" "http://www.w3.org/Graphics/SVG/1.1/DTD/svg11.dtd">
<svg version="1.1" id="Layer_1" xmlns="http://www.w3.org/2000/svg" xmlns:xlink="http://www.w3.org/1999/xlink" x="0px" y="0px"
	 width="48px" height="48px" viewBox="0 0 48 48" enable-background="new 0 0 48 48" xml:space="preserve">
<path d="M2,45h16c0.552,0,1-0.447,1-1V24c0-0.552-0.448-1-1-1H3.014c0.234-8.195,3.383-13.601,9.368-16.076
	c0.51-0.211,0.753-0.796,0.542-1.307c-0.212-0.51-0.798-0.751-1.307-0.542C4.572,7.989,1,14.356,1,24v20C1,44.553,1.448,45,2,45z
	 M3,25h14v18H3V25z"/>
<path d="M46,23H31.014c0.234-8.195,3.383-13.601,9.368-16.076c0.51-0.211,0.753-0.796,0.542-1.307
	c-0.212-0.51-0.796-0.751-1.307-0.542C32.572,7.989,29,14.356,29,24v20c0,0.553,0.448,1,1,1h16c0.552,0,1-0.447,1-1V24
	C47,23.448,46.552,23,46,23z M45,43H31V25h14V43z"/>
</svg>
