<?xml version="1.0" encoding="utf-8"?>
<!-- Generator: Adobe Illustrator 19.2.0, SVG Export Plug-In . SVG Version: 6.00 Build 0)  -->
<!DOCTYPE svg PUBLIC "-//W3C//DTD SVG 1.1//EN" "http://www.w3.org/Graphics/SVG/1.1/DTD/svg11.dtd">
<svg version="1.1" id="Layer_1" xmlns="http://www.w3.org/2000/svg" xmlns:xlink="http://www.w3.org/1999/xlink" x="0px" y="0px"
	 width="48px" height="48px" viewBox="0 0 48 48" enable-background="new 0 0 48 48" xml:space="preserve">
<path d="M20,31h-5V3h10v3c0,0.553,0.447,1,1,1s1-0.447,1-1V2c0-0.553-0.447-1-1-1H2C1.447,1,1,1.447,1,2v4c0,0.553,0.447,1,1,1
	s1-0.447,1-1V3h10v28H8c-0.553,0-1,0.447-1,1s0.447,1,1,1h12c0.553,0,1-0.447,1-1S20.553,31,20,31z"/>
<path d="M46,15H22c-0.553,0-1,0.447-1,1v4c0,0.553,0.447,1,1,1s1-0.447,1-1v-3h10v28h-5c-0.553,0-1,0.447-1,1s0.447,1,1,1h12
	c0.553,0,1-0.447,1-1s-0.447-1-1-1h-5V17h10v3c0,0.553,0.447,1,1,1s1-0.447,1-1v-4C47,15.447,46.553,15,46,15z"/>
</svg>
