<?xml version="1.0" encoding="utf-8"?>
<!-- Generator: Adobe Illustrator 19.2.0, SVG Export Plug-In . SVG Version: 6.00 Build 0)  -->
<!DOCTYPE svg PUBLIC "-//W3C//DTD SVG 1.1//EN" "http://www.w3.org/Graphics/SVG/1.1/DTD/svg11.dtd">
<svg version="1.1" id="Layer_1" xmlns="http://www.w3.org/2000/svg" xmlns:xlink="http://www.w3.org/1999/xlink" x="0px" y="0px"
	 width="48px" height="48px" viewBox="0 0 48 48" enable-background="new 0 0 48 48" xml:space="preserve">
<path d="M8,31h8c0.553,0,1-0.448,1-1s-0.447-1-1-1h-2.581l3.572-10H31.01l3.572,10H32c-0.553,0-1,0.448-1,1s0.447,1,1,1h3.997
	c0.001,0,0.002,0,0.003,0c0.001,0,0.002,0,0.003,0H40c0.553,0,1-0.448,1-1s-0.447-1-1-1h-3.296L26.941,1.664
	C26.8,1.266,26.423,1,26,1h-4c-0.423,0-0.8,0.266-0.941,0.664L11.296,29H8c-0.553,0-1,0.448-1,1S7.447,31,8,31z M22.705,3h2.59l5,14
	H17.705L22.705,3z"/>
<path d="M46,37H2c-0.553,0-1,0.448-1,1v8c0,0.552,0.447,1,1,1h44c0.553,0,1-0.448,1-1v-8C47,37.448,46.553,37,46,37z M45,45H3v-6h42
	V45z"/>
</svg>
