<?xml version="1.0" encoding="utf-8"?>
<!-- Generator: Adobe Illustrator 20.1.0, SVG Export Plug-In . SVG Version: 6.00 Build 0)  -->
<!DOCTYPE svg PUBLIC "-//W3C//DTD SVG 1.1//EN" "http://www.w3.org/Graphics/SVG/1.1/DTD/svg11.dtd">
<svg version="1.1" id="Layer_1" xmlns="http://www.w3.org/2000/svg" xmlns:xlink="http://www.w3.org/1999/xlink" x="0px" y="0px"
	 width="48px" height="48px" viewBox="0 0 48 48" enable-background="new 0 0 48 48" xml:space="preserve">
<path d="M46,3H2C1.448,3,1,3.448,1,4v10c0,0.552,0.448,1,1,1h44c0.552,0,1-0.448,1-1V4C47,3.448,46.552,3,46,3z M45,13H3V5h42V13z"
	/>
<path d="M6,18c-0.552,0-1,0.448-1,1v25c0,0.552,0.448,1,1,1h36c0.552,0,1-0.448,1-1V19c0-0.552-0.448-1-1-1s-1,0.448-1,1v24H7V19
	C7,18.448,6.552,18,6,18z"/>
<path d="M30,29c0.552,0,1-0.448,1-1v-6c0-0.552-0.448-1-1-1H18c-0.552,0-1,0.448-1,1v6c0,0.552,0.448,1,1,1H30z M19,23h10v4H19V23z"
	/>
</svg>
