<?xml version="1.0" encoding="utf-8"?>
<!-- Generator: Adobe Illustrator 20.1.0, SVG Export Plug-In . SVG Version: 6.00 Build 0)  -->
<!DOCTYPE svg PUBLIC "-//W3C//DTD SVG 1.1//EN" "http://www.w3.org/Graphics/SVG/1.1/DTD/svg11.dtd">
<svg version="1.1" id="Layer_1" xmlns="http://www.w3.org/2000/svg" xmlns:xlink="http://www.w3.org/1999/xlink" x="0px" y="0px"
	 width="48px" height="48px" viewBox="0 0 48 48" enable-background="new 0 0 48 48" xml:space="preserve">
<path d="M43,2c0-0.552-0.447-1-1-1H6C5.447,1,5,1.448,5,2v44c0,0.552,0.447,1,1,1h36c0.553,0,1-0.448,1-1V2z M41,45H7V3h34V45z"/>
<path d="M15,36h18c0.553,0,1-0.448,1-1v-2.328c0-1.538-0.676-2.957-1.854-3.892C30.547,27.512,27.835,26,24,26
	s-6.547,1.512-8.146,2.78C14.676,29.715,14,31.134,14,32.672V35C14,35.552,14.447,36,15,36z M16,32.672
	c0-0.924,0.4-1.771,1.097-2.325C18.447,29.276,20.74,28,24,28s5.553,1.276,6.902,2.347C31.6,30.9,32,31.748,32,32.672V34H16V32.672z
	"/>
<path d="M24,23c3.309,0,6-2.691,6-6s-2.691-6-6-6s-6,2.691-6,6S20.691,23,24,23z M24,13c2.206,0,4,1.794,4,4s-1.794,4-4,4
	s-4-1.794-4-4S21.794,13,24,13z"/>
</svg>
