<?xml version="1.0" encoding="utf-8"?>
<!-- Generator: Adobe Illustrator 20.1.0, SVG Export Plug-In . SVG Version: 6.00 Build 0)  -->
<!DOCTYPE svg PUBLIC "-//W3C//DTD SVG 1.1//EN" "http://www.w3.org/Graphics/SVG/1.1/DTD/svg11.dtd">
<svg version="1.1" id="Layer_1" xmlns="http://www.w3.org/2000/svg" xmlns:xlink="http://www.w3.org/1999/xlink" x="0px" y="0px"
	 width="48px" height="48px" viewBox="0 0 48 48" enable-background="new 0 0 48 48" xml:space="preserve">
<path d="M46,10H24.5l-5.7-7.6C18.611,2.148,18.315,2,18,2H2C1.448,2,1,2.447,1,3v38c0,2.757,2.243,5,5,5h36c2.757,0,5-2.243,5-5V11
	C47,10.447,46.552,10,46,10z M45,41c0,1.654-1.346,3-3,3H6c-1.654,0-3-1.346-3-3V4h14.5l5.7,7.6c0.188,0.252,0.485,0.4,0.8,0.4h21
	V41z"/>
<path d="M20.707,17.707c0.391-0.391,0.391-1.023,0-1.414s-1.023-0.391-1.414,0l-3.999,3.999c-0.093,0.092-0.166,0.203-0.217,0.326
	c-0.101,0.244-0.101,0.52,0,0.764c0.051,0.123,0.124,0.233,0.217,0.326l3.999,3.999C19.488,25.902,19.744,26,20,26
	s0.512-0.098,0.707-0.293c0.391-0.391,0.391-1.023,0-1.414L18.414,22H25c3.309,0,6,2.691,6,6c0,0.553,0.448,1,1,1s1-0.447,1-1
	c0-4.411-3.589-8-8-8h-6.586L20.707,17.707z"/>
<path d="M32.923,34.618c-0.051-0.123-0.124-0.233-0.217-0.326l-3.999-3.999c-0.391-0.391-1.023-0.391-1.414,0s-0.391,1.023,0,1.414
	L29.586,34H23c-3.309,0-6-2.691-6-6c0-0.553-0.448-1-1-1s-1,0.447-1,1c0,4.411,3.589,8,8,8h6.586l-2.293,2.293
	c-0.391,0.391-0.391,1.023,0,1.414C27.488,39.902,27.744,40,28,40s0.512-0.098,0.707-0.293l3.999-3.999
	c0.093-0.092,0.166-0.203,0.217-0.326C33.024,35.138,33.024,34.862,32.923,34.618z"/>
</svg>
