<?xml version="1.0" encoding="utf-8"?>
<!-- Generator: Adobe Illustrator 20.1.0, SVG Export Plug-In . SVG Version: 6.00 Build 0)  -->
<!DOCTYPE svg PUBLIC "-//W3C//DTD SVG 1.1//EN" "http://www.w3.org/Graphics/SVG/1.1/DTD/svg11.dtd">
<svg version="1.1" id="Layer_1" xmlns="http://www.w3.org/2000/svg" xmlns:xlink="http://www.w3.org/1999/xlink" x="0px" y="0px"
	 width="48px" height="48px" viewBox="0 0 48 48" enable-background="new 0 0 48 48" xml:space="preserve">
<path d="M5,46c0,0.553,0.448,1,1,1h36c0.552,0,1-0.447,1-1V2c0-0.553-0.448-1-1-1H6C5.448,1,5,1.447,5,2V46z M7,3h34v42H7V3z"/>
<path d="M28.312,25.898C29.366,24.542,30,22.846,30,21c0-4.411-3.589-8-8-8s-8,3.589-8,8s3.589,8,8,8
	c1.846,0,3.542-0.634,4.898-1.688l5.395,5.395C32.488,32.902,32.744,33,33,33s0.512-0.098,0.707-0.293
	c0.391-0.391,0.391-1.023,0-1.414L28.312,25.898z M16,21c0-3.309,2.691-6,6-6s6,2.691,6,6s-2.691,6-6,6S16,24.309,16,21z"/>
</svg>
