<?xml version="1.0" encoding="utf-8"?>
<!-- Generator: Adobe Illustrator 20.1.0, SVG Export Plug-In . SVG Version: 6.00 Build 0)  -->
<!DOCTYPE svg PUBLIC "-//W3C//DTD SVG 1.1//EN" "http://www.w3.org/Graphics/SVG/1.1/DTD/svg11.dtd">
<svg version="1.1" id="Layer_1" xmlns="http://www.w3.org/2000/svg" xmlns:xlink="http://www.w3.org/1999/xlink" x="0px" y="0px"
	 width="48px" height="48px" viewBox="0 0 48 48" enable-background="new 0 0 48 48" xml:space="preserve">
<path d="M6,47h36c0.553,0,1-0.447,1-1V2c0-0.553-0.447-1-1-1H6C5.447,1,5,1.447,5,2v44C5,46.553,5.447,47,6,47z M7,3h34v42H7V3z"/>
<path d="M27.513,15.029c-1.338,0.133-2.566,0.714-3.513,1.637c-0.946-0.923-2.175-1.504-3.511-1.637
	c-1.77-0.175-3.508,0.453-4.765,1.73c-2.295,2.332-2.295,6.126,0,8.457l7.562,7.685C23.476,33.093,23.732,33.2,24,33.2
	s0.524-0.107,0.713-0.299l7.563-7.685c2.294-2.331,2.293-6.125-0.002-8.457C31.018,15.483,29.277,14.851,27.513,15.029z
	 M30.851,23.814L24,30.774l-6.85-6.96c-1.534-1.559-1.534-4.094,0-5.652C17.888,17.412,18.875,17,19.905,17
	c0.128,0,0.257,0.007,0.385,0.02c1.172,0.116,2.219,0.758,2.873,1.759c0.369,0.564,1.305,0.564,1.674,0
	c0.654-1.001,1.701-1.642,2.874-1.759c1.168-0.116,2.31,0.301,3.138,1.143C32.383,19.721,32.384,22.256,30.851,23.814z"/>
</svg>
