<?xml version="1.0" encoding="utf-8"?>
<!-- Generator: Adobe Illustrator 20.1.0, SVG Export Plug-In . SVG Version: 6.00 Build 0)  -->
<!DOCTYPE svg PUBLIC "-//W3C//DTD SVG 1.1//EN" "http://www.w3.org/Graphics/SVG/1.1/DTD/svg11.dtd">
<svg version="1.1" id="Layer_1" xmlns="http://www.w3.org/2000/svg" xmlns:xlink="http://www.w3.org/1999/xlink" x="0px" y="0px"
	 width="48px" height="48px" viewBox="0 0 48 48" enable-background="new 0 0 48 48" xml:space="preserve">
<path d="M46,15h-5V9c0-0.552-0.447-1-1-1H18.534l-3.702-5.555C14.646,2.167,14.334,2,14,2H2C1.447,2,1,2.448,1,3v38
	c0,2.757,2.243,5,5,5h36c2.757,0,5-2.243,5-5V16C47,15.448,46.553,15,46,15z M9,16v25c0,1.654-1.346,3-3,3s-3-1.346-3-3V4h10.465
	l3.702,5.555C17.353,9.833,17.665,10,17.999,10H39v5H10C9.447,15,9,15.448,9,16z M45,41c0,1.654-1.346,3-3,3H9.998
	C10.627,43.164,11,42.125,11,41V17h34V41z"/>
</svg>
