<?xml version="1.0" encoding="utf-8"?>
<!-- Generator: Adobe Illustrator 20.1.0, SVG Export Plug-In . SVG Version: 6.00 Build 0)  -->
<!DOCTYPE svg PUBLIC "-//W3C//DTD SVG 1.1//EN" "http://www.w3.org/Graphics/SVG/1.1/DTD/svg11.dtd">
<svg version="1.1" id="Layer_1" xmlns="http://www.w3.org/2000/svg" xmlns:xlink="http://www.w3.org/1999/xlink" x="0px" y="0px"
	 width="48px" height="48px" viewBox="0 0 48 48" enable-background="new 0 0 48 48" xml:space="preserve">
<path d="M46,20c-0.552,0-1,0.447-1,1v20c0,1.654-1.346,3-3,3H6c-1.654,0-3-1.346-3-3V4h14.5l5.7,7.6c0.188,0.252,0.485,0.4,0.8,0.4
	h6c0.552,0,1-0.447,1-1s-0.448-1-1-1h-5.5l-5.7-7.6C18.611,2.148,18.315,2,18,2H2C1.448,2,1,2.447,1,3v38c0,2.757,2.243,5,5,5h36
	c2.757,0,5-2.243,5-5V21C47,20.447,46.552,20,46,20z"/>
<path d="M26.02,22.804l-1,5c-0.066,0.328,0.037,0.667,0.273,0.903C25.482,28.896,25.737,29,26,29c0.065,0,0.131-0.007,0.196-0.02
	l5-1c0.193-0.039,0.371-0.134,0.511-0.273l14-14c0.391-0.391,0.391-1.023,0-1.414l-4-4c-0.391-0.391-1.023-0.391-1.414,0l-14,14
	C26.153,22.433,26.058,22.61,26.02,22.804z M27.921,23.493L41,10.414L43.586,13L30.507,26.079l-3.232,0.646L27.921,23.493z"/>
</svg>
