<?xml version="1.0" encoding="utf-8"?>
<!-- Generator: Adobe Illustrator 20.1.0, SVG Export Plug-In . SVG Version: 6.00 Build 0)  -->
<!DOCTYPE svg PUBLIC "-//W3C//DTD SVG 1.1//EN" "http://www.w3.org/Graphics/SVG/1.1/DTD/svg11.dtd">
<svg version="1.1" id="Layer_1" xmlns="http://www.w3.org/2000/svg" xmlns:xlink="http://www.w3.org/1999/xlink" x="0px" y="0px"
	 width="48px" height="48px" viewBox="0 0 48 48" enable-background="new 0 0 48 48" xml:space="preserve">
<path d="M5,46c0,0.552,0.447,1,1,1h36c0.553,0,1-0.448,1-1V2c0-0.552-0.447-1-1-1H6C5.447,1,5,1.448,5,2V46z M7,3h34v42H7V3z"/>
<path d="M31.293,17.293L20,28.586l-3.293-3.293c-0.391-0.391-1.023-0.391-1.414,0s-0.391,1.023,0,1.414l4,4
	C19.488,30.902,19.744,31,20,31s0.512-0.098,0.707-0.293l12-12c0.391-0.391,0.391-1.023,0-1.414S31.684,16.902,31.293,17.293z"/>
</svg>
