<?xml version="1.0" encoding="utf-8"?>
<!-- Generator: Adobe Illustrator 20.1.0, SVG Export Plug-In . SVG Version: 6.00 Build 0)  -->
<!DOCTYPE svg PUBLIC "-//W3C//DTD SVG 1.1//EN" "http://www.w3.org/Graphics/SVG/1.1/DTD/svg11.dtd">
<svg version="1.1" id="Layer_1" xmlns="http://www.w3.org/2000/svg" xmlns:xlink="http://www.w3.org/1999/xlink" x="0px" y="0px"
	 width="48px" height="48px" viewBox="0 0 48 48" enable-background="new 0 0 48 48" xml:space="preserve">
<path d="M46,10H24.5l-5.7-7.6C18.611,2.148,18.314,2,18,2H2C1.447,2,1,2.447,1,3v38c0,2.757,2.243,5,5,5h36c2.757,0,5-2.243,5-5V11
	C47,10.447,46.553,10,46,10z M45,41c0,1.654-1.346,3-3,3H6c-1.654,0-3-1.346-3-3V4h14.5l5.7,7.6c0.188,0.252,0.485,0.4,0.8,0.4h21
	V41z"/>
<path d="M23,19v15.586l-5.293-5.293c-0.391-0.391-1.023-0.391-1.414,0s-0.391,1.023,0,1.414l6.999,6.999
	c0.092,0.093,0.203,0.166,0.326,0.217C23.74,37.974,23.87,38,24,38s0.26-0.026,0.382-0.077c0.123-0.051,0.234-0.124,0.326-0.217
	l6.999-6.999c0.391-0.391,0.391-1.023,0-1.414s-1.023-0.391-1.414,0L25,34.586V19c0-0.553-0.447-1-1-1S23,18.447,23,19z"/>
</svg>
