<?xml version="1.0" encoding="utf-8"?>
<!-- Generator: Adobe Illustrator 20.1.0, SVG Export Plug-In . SVG Version: 6.00 Build 0)  -->
<!DOCTYPE svg PUBLIC "-//W3C//DTD SVG 1.1//EN" "http://www.w3.org/Graphics/SVG/1.1/DTD/svg11.dtd">
<svg version="1.1" id="Layer_1" xmlns="http://www.w3.org/2000/svg" xmlns:xlink="http://www.w3.org/1999/xlink" x="0px" y="0px"
	 width="48px" height="48px" viewBox="0 0 48 48" enable-background="new 0 0 48 48" xml:space="preserve">
<path d="M46,13c-0.553,0-1,0.448-1,1v16H32c-0.553,0-1,0.448-1,1v4H17v-4c0-0.552-0.447-1-1-1H3V14c0-0.552-0.447-1-1-1
	s-1,0.448-1,1v32c0,0.552,0.447,1,1,1h44c0.553,0,1-0.448,1-1V14C47,13.448,46.553,13,46,13z M3,45V32h12v4c0,0.552,0.447,1,1,1h16
	c0.553,0,1-0.448,1-1v-4h12v13H3z"/>
<path d="M40,26c0.553,0,1-0.448,1-1V2c0-0.552-0.447-1-1-1H8C7.447,1,7,1.448,7,2v23c0,0.552,0.447,1,1,1s1-0.448,1-1V3h30v22
	C39,25.552,39.447,26,40,26z"/>
<path d="M31,10H17c-0.553,0-1,0.448-1,1s0.447,1,1,1h14c0.553,0,1-0.448,1-1S31.553,10,31,10z"/>
<path d="M31,19H17c-0.553,0-1,0.448-1,1s0.447,1,1,1h14c0.553,0,1-0.448,1-1S31.553,19,31,19z"/>
</svg>
