<?xml version="1.0" encoding="utf-8"?>
<!-- Generator: Adobe Illustrator 20.1.0, SVG Export Plug-In . SVG Version: 6.00 Build 0)  -->
<!DOCTYPE svg PUBLIC "-//W3C//DTD SVG 1.1//EN" "http://www.w3.org/Graphics/SVG/1.1/DTD/svg11.dtd">
<svg version="1.1" id="Layer_1" xmlns="http://www.w3.org/2000/svg" xmlns:xlink="http://www.w3.org/1999/xlink" x="0px" y="0px"
	 width="48px" height="48px" viewBox="0 0 48 48" enable-background="new 0 0 48 48" xml:space="preserve">
<path d="M46,9c-0.553,0-1,0.448-1,1v33H3V10c0-0.552-0.447-1-1-1s-1,0.448-1,1v34c0,0.552,0.447,1,1,1h44c0.553,0,1-0.448,1-1V10
	C47,9.448,46.553,9,46,9z"/>
<path d="M6.667,32.943l17,6C23.774,38.981,23.888,39,24,39s0.226-0.019,0.333-0.057l17-6C41.732,32.802,42,32.424,42,32V4
	c0-0.325-0.157-0.629-0.423-0.816c-0.265-0.188-0.605-0.236-0.91-0.126L24,8.939L7.333,3.057c-0.306-0.109-0.645-0.062-0.91,0.126
	C6.157,3.371,6,3.675,6,4v28C6,32.424,6.268,32.802,6.667,32.943z M40,31.292l-15,5.294V10.707l15-5.294V31.292z M8,5.414l15,5.294
	v25.879L8,31.292V5.414z"/>
</svg>
