<?xml version="1.0" encoding="utf-8"?>
<!-- Generator: Adobe Illustrator 20.1.0, SVG Export Plug-In . SVG Version: 6.00 Build 0)  -->
<!DOCTYPE svg PUBLIC "-//W3C//DTD SVG 1.1//EN" "http://www.w3.org/Graphics/SVG/1.1/DTD/svg11.dtd">
<svg version="1.1" id="Layer_1" xmlns="http://www.w3.org/2000/svg" xmlns:xlink="http://www.w3.org/1999/xlink" x="0px" y="0px"
	 width="48px" height="48px" viewBox="0 0 48 48" enable-background="new 0 0 48 48" xml:space="preserve">
<path d="M46,10H24.5l-5.7-7.6C18.611,2.148,18.315,2,18,2H2C1.448,2,1,2.447,1,3v38c0,2.757,2.243,5,5,5h36c2.757,0,5-2.243,5-5V11
	C47,10.447,46.552,10,46,10z M45,41c0,1.654-1.346,3-3,3H6c-1.654,0-3-1.346-3-3V4h14.5l5.7,7.6c0.188,0.252,0.485,0.4,0.8,0.4h21
	V41z"/>
<path d="M16.64,31.231c-0.396-0.331-0.981-0.304-1.347,0.062l-4,4c-0.391,0.391-0.391,1.023,0,1.414s1.023,0.391,1.414,0
	l3.354-3.354l5.298,4.416C21.541,37.919,21.767,38,22,38c0.033,0,0.067-0.002,0.101-0.005c0.267-0.027,0.512-0.16,0.68-0.37
	l7.246-9.058l5.214,6.083c0.359,0.421,0.991,0.469,1.41,0.108c0.419-0.359,0.468-0.99,0.108-1.409l-6-7
	c-0.194-0.227-0.466-0.349-0.776-0.35c-0.298,0.005-0.578,0.143-0.764,0.375l-7.363,9.204L16.64,31.231z"/>
<path d="M20,25c2.206,0,4-1.794,4-4s-1.794-4-4-4s-4,1.794-4,4S17.794,25,20,25z M20,19c1.103,0,2,0.897,2,2s-0.897,2-2,2
	s-2-0.897-2-2S18.897,19,20,19z"/>
</svg>
