<?xml version="1.0" encoding="utf-8"?>
<!-- Generator: Adobe Illustrator 20.1.0, SVG Export Plug-In . SVG Version: 6.00 Build 0)  -->
<!DOCTYPE svg PUBLIC "-//W3C//DTD SVG 1.1//EN" "http://www.w3.org/Graphics/SVG/1.1/DTD/svg11.dtd">
<svg version="1.1" id="Layer_1" xmlns="http://www.w3.org/2000/svg" xmlns:xlink="http://www.w3.org/1999/xlink" x="0px" y="0px"
	 width="48px" height="48px" viewBox="0 0 48 48" enable-background="new 0 0 48 48" xml:space="preserve">
<path d="M5,46c0,0.553,0.448,1,1,1h36c0.552,0,1-0.447,1-1V2c0-0.553-0.448-1-1-1H6C5.448,1,5,1.447,5,2V46z M7,3h34v42H7V3z"/>
<path d="M21,25c0,1.654,1.346,3,3,3s3-1.346,3-3s-1.346-3-3-3S21,23.346,21,25z M25,25c0,0.552-0.449,1-1,1s-1-0.448-1-1
	s0.449-1,1-1S25,24.448,25,25z"/>
<path d="M24.768,11.359c-0.38-0.455-1.156-0.455-1.536,0l-10,12c-0.239,0.286-0.298,0.682-0.155,1.025L17.5,35H16
	c-0.552,0-1,0.447-1,1s0.448,1,1,1h2.992c0.002,0,0.004,0,0.005,0H32c0.552,0,1-0.447,1-1s-0.448-1-1-1h-1.5l4.423-10.615
	c0.144-0.344,0.084-0.739-0.155-1.025L24.768,11.359z M28.333,35h-8.667l-4.51-10.825L24,13.562l8.844,10.612L28.333,35z"/>
</svg>
