<?xml version="1.0" encoding="utf-8"?>
<!-- Generator: Adobe Illustrator 20.1.0, SVG Export Plug-In . SVG Version: 6.00 Build 0)  -->
<!DOCTYPE svg PUBLIC "-//W3C//DTD SVG 1.1//EN" "http://www.w3.org/Graphics/SVG/1.1/DTD/svg11.dtd">
<svg version="1.1" id="Layer_1" xmlns="http://www.w3.org/2000/svg" xmlns:xlink="http://www.w3.org/1999/xlink" x="0px" y="0px"
	 width="48px" height="48px" viewBox="0 0 48 48" enable-background="new 0 0 48 48" xml:space="preserve">
<path d="M46,10H24.5l-5.7-7.6C18.611,2.148,18.314,2,18,2H2C1.447,2,1,2.447,1,3v38c0,2.757,2.243,5,5,5h36c2.757,0,5-2.243,5-5V11
	C47,10.447,46.553,10,46,10z M45,41c0,1.654-1.346,3-3,3H6c-1.654,0-3-1.346-3-3V4h14.5l5.7,7.6c0.188,0.252,0.485,0.4,0.8,0.4h21
	V41z"/>
<path d="M18.528,19.118C18.203,19.292,18,19.631,18,20v16c0,0.369,0.203,0.708,0.528,0.882C18.676,36.961,18.838,37,19,37
	c0.194,0,0.388-0.057,0.555-0.168l12-8C31.833,28.646,32,28.334,32,28s-0.167-0.646-0.445-0.832l-12-8
	C19.248,18.964,18.853,18.944,18.528,19.118z M20,21.868L29.197,28L20,34.132V21.868z"/>
</svg>
