<?xml version="1.0" encoding="utf-8"?>
<!-- Generator: Adobe Illustrator 20.1.0, SVG Export Plug-In . SVG Version: 6.00 Build 0)  -->
<!DOCTYPE svg PUBLIC "-//W3C//DTD SVG 1.1//EN" "http://www.w3.org/Graphics/SVG/1.1/DTD/svg11.dtd">
<svg version="1.1" id="Layer_1" xmlns="http://www.w3.org/2000/svg" xmlns:xlink="http://www.w3.org/1999/xlink" x="0px" y="0px"
	 width="48px" height="48px" viewBox="0 0 48 48" enable-background="new 0 0 48 48" xml:space="preserve">
<path d="M6,47h36c0.553,0,1-0.448,1-1V2c0-0.552-0.447-1-1-1H6C5.447,1,5,1.448,5,2v44C5,46.552,5.447,47,6,47z M7,3h34v42H7V3z"/>
<path d="M24,27c0.553,0,1-0.448,1-1V12c0-0.552-0.447-1-1-1s-1,0.448-1,1v14C23,26.552,23.447,27,24,27z"/>
<circle cx="24" cy="33" r="2"/>
</svg>
