<?xml version="1.0" encoding="utf-8"?>
<!-- Generator: Adobe Illustrator 20.1.0, SVG Export Plug-In . SVG Version: 6.00 Build 0)  -->
<!DOCTYPE svg PUBLIC "-//W3C//DTD SVG 1.1//EN" "http://www.w3.org/Graphics/SVG/1.1/DTD/svg11.dtd">
<svg version="1.1" id="Layer_1" xmlns="http://www.w3.org/2000/svg" xmlns:xlink="http://www.w3.org/1999/xlink" x="0px" y="0px"
	 width="48px" height="48px" viewBox="0 0 48 48" enable-background="new 0 0 48 48" xml:space="preserve">
<path d="M46,10H24.5l-5.7-7.6C18.611,2.148,18.315,2,18,2H2C1.448,2,1,2.447,1,3v38c0,2.757,2.243,5,5,5h36c2.757,0,5-2.243,5-5V11
	C47,10.447,46.552,10,46,10z M45,41c0,1.654-1.346,3-3,3H6c-1.654,0-3-1.346-3-3V4h14.5l5.7,7.6c0.188,0.252,0.485,0.4,0.8,0.4h21
	V41z"/>
<path d="M23.104,18.558l-2.692,5.453l-6.019,0.875c-0.376,0.055-0.689,0.318-0.807,0.681c-0.118,0.361-0.02,0.759,0.253,1.024
	l4.355,4.246l-1.028,5.994c-0.064,0.375,0.09,0.754,0.398,0.978c0.309,0.226,0.717,0.254,1.053,0.076L24,35.055l5.383,2.83
	C29.53,37.962,29.689,38,29.849,38c0.207,0,0.414-0.064,0.588-0.191c0.308-0.224,0.462-0.603,0.398-0.978l-1.028-5.994l4.355-4.246
	c0.272-0.266,0.371-0.663,0.253-1.024c-0.118-0.362-0.431-0.626-0.807-0.681l-6.019-0.875l-2.692-5.453
	C24.56,17.874,23.44,17.874,23.104,18.558z M26.028,25.367c0.146,0.295,0.427,0.5,0.753,0.547l4.534,0.659l-3.281,3.198
	c-0.236,0.229-0.343,0.561-0.288,0.885l0.775,4.516l-4.055-2.132C24.32,32.963,24.16,32.925,24,32.925s-0.32,0.038-0.465,0.115
	l-4.055,2.132l0.775-4.516c0.055-0.324-0.052-0.655-0.288-0.885l-3.281-3.198l4.534-0.659c0.326-0.047,0.607-0.252,0.753-0.547
	L24,21.26L26.028,25.367z"/>
</svg>
