<?xml version="1.0" encoding="utf-8"?>
<!-- Generator: Adobe Illustrator 20.1.0, SVG Export Plug-In . SVG Version: 6.00 Build 0)  -->
<!DOCTYPE svg PUBLIC "-//W3C//DTD SVG 1.1//EN" "http://www.w3.org/Graphics/SVG/1.1/DTD/svg11.dtd">
<svg version="1.1" id="Layer_1" xmlns="http://www.w3.org/2000/svg" xmlns:xlink="http://www.w3.org/1999/xlink" x="0px" y="0px"
	 width="48px" height="48px" viewBox="0 0 48 48" enable-background="new 0 0 48 48" xml:space="preserve">
<path d="M46,1H10C9.447,1,9,1.448,9,2v23H2c-0.553,0-1,0.448-1,1v16c0,2.757,2.243,5,5,5h36c2.757,0,5-2.243,5-5V2
	C47,1.448,46.553,1,46,1z M6,45c-1.654,0-3-1.346-3-3V27h6v15C9,43.654,7.654,45,6,45z M45,42c0,1.654-1.346,3-3,3H9.998
	C10.627,44.164,11,43.125,11,42V3h34V42z"/>
<path d="M33,13h5c0.553,0,1-0.448,1-1s-0.447-1-1-1h-5c-0.553,0-1,0.448-1,1S32.447,13,33,13z"/>
<path d="M33,21h5c0.553,0,1-0.448,1-1s-0.447-1-1-1h-5c-0.553,0-1,0.448-1,1S32.447,21,33,21z"/>
<path d="M18,29h20c0.553,0,1-0.448,1-1s-0.447-1-1-1H18c-0.553,0-1,0.448-1,1S17.447,29,18,29z"/>
<path d="M18,37h20c0.553,0,1-0.448,1-1s-0.447-1-1-1H18c-0.553,0-1,0.448-1,1S17.447,37,18,37z"/>
<path d="M18,21h8c0.553,0,1-0.448,1-1v-8c0-0.552-0.447-1-1-1h-8c-0.553,0-1,0.448-1,1v8C17,20.552,17.447,21,18,21z M19,13h6v6h-6
	V13z"/>
</svg>
