<?xml version="1.0" encoding="utf-8"?>
<!-- Generator: Adobe Illustrator 20.1.0, SVG Export Plug-In . SVG Version: 6.00 Build 0)  -->
<!DOCTYPE svg PUBLIC "-//W3C//DTD SVG 1.1//EN" "http://www.w3.org/Graphics/SVG/1.1/DTD/svg11.dtd">
<svg version="1.1" id="Layer_1" xmlns="http://www.w3.org/2000/svg" xmlns:xlink="http://www.w3.org/1999/xlink" x="0px" y="0px"
	 width="48px" height="48px" viewBox="0 0 48 48" enable-background="new 0 0 48 48" xml:space="preserve">
<path d="M6,47h36c0.552,0,1-0.448,1-1V2c0-0.552-0.448-1-1-1H6C5.448,1,5,1.448,5,2v44C5,46.552,5.448,47,6,47z M7,3h34v42H7V3z"/>
<path d="M24,9c-2.642,0-5.375,1.868-6.5,4.442c-0.221,0.506,0.01,1.096,0.516,1.317c0.506,0.22,1.095-0.01,1.317-0.516
	C20.141,12.395,22.147,11,24,11c2.664,0,5,2.336,5,5s-2.336,5-5,5c-0.552,0-1,0.448-1,1v6c0,0.552,0.448,1,1,1s1-0.448,1-1v-5.075
	c3.341-0.502,6-3.47,6-6.925C31,12.206,27.794,9,24,9z"/>
<circle cx="24" cy="35" r="2"/>
</svg>
