<?xml version="1.0" encoding="utf-8"?>
<!-- Generator: Adobe Illustrator 20.1.0, SVG Export Plug-In . SVG Version: 6.00 Build 0)  -->
<!DOCTYPE svg PUBLIC "-//W3C//DTD SVG 1.1//EN" "http://www.w3.org/Graphics/SVG/1.1/DTD/svg11.dtd">
<svg version="1.1" id="Layer_1" xmlns="http://www.w3.org/2000/svg" xmlns:xlink="http://www.w3.org/1999/xlink" x="0px" y="0px"
	 width="48px" height="48px" viewBox="0 0 48 48" enable-background="new 0 0 48 48" xml:space="preserve">
<path d="M5,46c0,0.553,0.448,1,1,1h36c0.552,0,1-0.447,1-1V2c0-0.553-0.448-1-1-1H30c-0.552,0-1,0.447-1,1s0.448,1,1,1h11v42H7V3h16
	v5c0,0.553,0.448,1,1,1s1-0.447,1-1V2c0-0.553-0.448-1-1-1H6C5.448,1,5,1.447,5,2V46z"/>
<path d="M31,28V14c0-0.553-0.448-1-1-1H18c-0.552,0-1,0.447-1,1v14c0,0.553,0.448,1,1,1h12C30.552,29,31,28.553,31,28z M29,27H19V15
	h10V27z"/>
<path d="M24,23c0.552,0,1-0.447,1-1v-2c0-0.553-0.448-1-1-1s-1,0.447-1,1v2C23,22.553,23.448,23,24,23z"/>
<path d="M26,39h-4c-0.552,0-1,0.447-1,1s0.448,1,1,1h4c0.552,0,1-0.447,1-1S26.552,39,26,39z"/>
<path d="M26,33h-4c-0.552,0-1,0.447-1,1s0.448,1,1,1h4c0.552,0,1-0.447,1-1S26.552,33,26,33z"/>
</svg>
