<?xml version="1.0" encoding="utf-8"?>
<!-- Generator: Adobe Illustrator 20.1.0, SVG Export Plug-In . SVG Version: 6.00 Build 0)  -->
<!DOCTYPE svg PUBLIC "-//W3C//DTD SVG 1.1//EN" "http://www.w3.org/Graphics/SVG/1.1/DTD/svg11.dtd">
<svg version="1.1" id="Layer_1" xmlns="http://www.w3.org/2000/svg" xmlns:xlink="http://www.w3.org/1999/xlink" x="0px" y="0px"
	 width="48px" height="48px" viewBox="0 0 48 48" enable-background="new 0 0 48 48" xml:space="preserve">
<path d="M46,8H24.535l-3.703-5.555C20.646,2.167,20.334,2,20,2H2C1.448,2,1,2.448,1,3v38c0,2.757,2.243,5,5,5h36
	c2.757,0,5-2.243,5-5V9C47,8.448,46.552,8,46,8z M19.465,4l3.703,5.555C23.354,9.833,23.666,10,24,10h21v6H3V4H19.465z M42,44H6
	c-1.654,0-3-1.346-3-3V18h42v23C45,42.654,43.654,44,42,44z"/>
</svg>
