<?xml version="1.0" encoding="utf-8"?>
<!-- Generator: Adobe Illustrator 20.1.0, SVG Export Plug-In . SVG Version: 6.00 Build 0)  -->
<!DOCTYPE svg PUBLIC "-//W3C//DTD SVG 1.1//EN" "http://www.w3.org/Graphics/SVG/1.1/DTD/svg11.dtd">
<svg version="1.1" id="Layer_1" xmlns="http://www.w3.org/2000/svg" xmlns:xlink="http://www.w3.org/1999/xlink" x="0px" y="0px"
	 width="48px" height="48px" viewBox="0 0 48 48" enable-background="new 0 0 48 48" xml:space="preserve">
<path d="M5,46c0,0.553,0.448,1,1,1h36c0.552,0,1-0.447,1-1V14c0-0.134-0.027-0.264-0.078-0.385
	c-0.051-0.122-0.124-0.231-0.216-0.323L30.708,1.294c-0.092-0.092-0.201-0.165-0.323-0.216C30.264,1.027,30.133,1,30,1H6
	C5.448,1,5,1.447,5,2V46z M31,4.414L39.586,13H31V4.414z M7,3h22v11c0,0.553,0.448,1,1,1h11v30H7V3z"/>
<path d="M34,35H14c-0.552,0-1,0.447-1,1s0.448,1,1,1h20c0.552,0,1-0.447,1-1S34.552,35,34,35z"/>
<path d="M34,25H14c-0.552,0-1,0.447-1,1s0.448,1,1,1h20c0.552,0,1-0.447,1-1S34.552,25,34,25z"/>
<path d="M14,17h8c0.552,0,1-0.447,1-1s-0.448-1-1-1h-8c-0.552,0-1,0.447-1,1S13.448,17,14,17z"/>
</svg>
