<?xml version="1.0" encoding="utf-8"?>
<!-- Generator: Adobe Illustrator 20.1.0, SVG Export Plug-In . SVG Version: 6.00 Build 0)  -->
<!DOCTYPE svg PUBLIC "-//W3C//DTD SVG 1.1//EN" "http://www.w3.org/Graphics/SVG/1.1/DTD/svg11.dtd">
<svg version="1.1" id="Layer_1" xmlns="http://www.w3.org/2000/svg" xmlns:xlink="http://www.w3.org/1999/xlink" x="0px" y="0px"
	 width="48px" height="48px" viewBox="0 0 48 48" enable-background="new 0 0 48 48" xml:space="preserve">
<path d="M46,16H24.5l-5.7-7.6C18.611,8.148,18.314,8,18,8H2C1.447,8,1,8.448,1,9v32c0,2.757,2.243,5,5,5h36c2.757,0,5-2.243,5-5V17
	C47,16.448,46.553,16,46,16z M45,41c0,1.654-1.346,3-3,3H6c-1.654,0-3-1.346-3-3V10h14.5l5.7,7.6c0.188,0.252,0.485,0.4,0.8,0.4h21
	V41z"/>
<path d="M42,12c0.553,0,1-0.448,1-1V3c0-0.552-0.447-1-1-1H6C5.447,2,5,2.448,5,3s0.447,1,1,1h35v7C41,11.552,41.447,12,42,12z"/>
</svg>
