<?xml version="1.0" encoding="utf-8"?>
<!-- Generator: Adobe Illustrator 20.1.0, SVG Export Plug-In . SVG Version: 6.00 Build 0)  -->
<!DOCTYPE svg PUBLIC "-//W3C//DTD SVG 1.1//EN" "http://www.w3.org/Graphics/SVG/1.1/DTD/svg11.dtd">
<svg version="1.1" id="Layer_1" xmlns="http://www.w3.org/2000/svg" xmlns:xlink="http://www.w3.org/1999/xlink" x="0px" y="0px"
	 width="48px" height="48px" viewBox="0 0 48 48" enable-background="new 0 0 48 48" xml:space="preserve">
<path d="M6,47h32c0.552,0,1-0.448,1-1V8c0-0.552-0.448-1-1-1H6C5.448,7,5,7.448,5,8v38C5,46.552,5.448,47,6,47z M7,9h30v36H7V9z"/>
<path d="M10,3h33v39c0,0.552,0.448,1,1,1s1-0.448,1-1V2c0-0.552-0.448-1-1-1H10C9.448,1,9,1.448,9,2S9.448,3,10,3z"/>
<path d="M30,17H14c-0.552,0-1,0.448-1,1s0.448,1,1,1h16c0.552,0,1-0.448,1-1S30.552,17,30,17z"/>
<path d="M30,25H14c-0.552,0-1,0.448-1,1s0.448,1,1,1h16c0.552,0,1-0.448,1-1S30.552,25,30,25z"/>
<path d="M22,33h-8c-0.552,0-1,0.448-1,1s0.448,1,1,1h8c0.552,0,1-0.448,1-1S22.552,33,22,33z"/>
</svg>
