<?xml version="1.0" encoding="utf-8"?>
<!-- Generator: Adobe Illustrator 20.1.0, SVG Export Plug-In . SVG Version: 6.00 Build 0)  -->
<!DOCTYPE svg PUBLIC "-//W3C//DTD SVG 1.1//EN" "http://www.w3.org/Graphics/SVG/1.1/DTD/svg11.dtd">
<svg version="1.1" id="Layer_1" xmlns="http://www.w3.org/2000/svg" xmlns:xlink="http://www.w3.org/1999/xlink" x="0px" y="0px"
	 width="48px" height="48px" viewBox="0 0 48 48" enable-background="new 0 0 48 48" xml:space="preserve">
<path d="M5,46c0,0.553,0.447,1,1,1h36c0.553,0,1-0.447,1-1V2c0-0.553-0.447-1-1-1H6C5.447,1,5,1.447,5,2V46z M7,3h34v42H7V3z"/>
<path d="M27,15c-2.927,0-5.583,1.583-6.985,4.099C19.668,19.032,19.332,19,19,19c-3.309,0-6,2.691-6,6s2.691,6,6,6h8
	c4.411,0,8-3.589,8-8S31.411,15,27,15z M27,29h-8c-2.206,0-4-1.794-4-4s1.794-4,4-4c0.382,0,0.788,0.072,1.241,0.221
	c0.495,0.165,1.03-0.082,1.232-0.56C22.416,18.437,24.585,17,27,17c3.309,0,6,2.691,6,6S30.309,29,27,29z"/>
</svg>
