<?xml version="1.0" encoding="utf-8"?>
<!-- Generator: Adobe Illustrator 20.1.0, SVG Export Plug-In . SVG Version: 6.00 Build 0)  -->
<!DOCTYPE svg PUBLIC "-//W3C//DTD SVG 1.1//EN" "http://www.w3.org/Graphics/SVG/1.1/DTD/svg11.dtd">
<svg version="1.1" id="Layer_1" xmlns="http://www.w3.org/2000/svg" xmlns:xlink="http://www.w3.org/1999/xlink" x="0px" y="0px"
	 width="48px" height="48px" viewBox="0 0 48 48" enable-background="new 0 0 48 48" xml:space="preserve">
<path d="M46,1H2C1.448,1,1,1.448,1,2v40c0,0.552,0.448,1,1,1h7v3c0,0.552,0.448,1,1,1s1-0.448,1-1v-3h26v3c0,0.552,0.448,1,1,1
	s1-0.448,1-1v-3h7c0.552,0,1-0.448,1-1V2C47,1.448,46.552,1,46,1z M45,3v18H3V3H45z M3,41V23h42v18H3z"/>
<path d="M20,11h8c0.552,0,1-0.448,1-1s-0.448-1-1-1h-8c-0.552,0-1,0.448-1,1S19.448,11,20,11z"/>
<path d="M28,29h-8c-0.552,0-1,0.448-1,1s0.448,1,1,1h8c0.552,0,1-0.448,1-1S28.552,29,28,29z"/>
</svg>
