<?xml version="1.0" encoding="utf-8"?>
<!-- Generator: Adobe Illustrator 20.1.0, SVG Export Plug-In . SVG Version: 6.00 Build 0)  -->
<!DOCTYPE svg PUBLIC "-//W3C//DTD SVG 1.1//EN" "http://www.w3.org/Graphics/SVG/1.1/DTD/svg11.dtd">
<svg version="1.1" id="Layer_1" xmlns="http://www.w3.org/2000/svg" xmlns:xlink="http://www.w3.org/1999/xlink" x="0px" y="0px"
	 width="48px" height="48px" viewBox="0 0 48 48" enable-background="new 0 0 48 48" xml:space="preserve">
<path d="M1.193,44.592c0.087,0.118,0.199,0.217,0.333,0.289c0.099,0.053,0.208,0.091,0.323,0.108C1.9,44.997,1.95,45,2,45
	c0.008,0,0.016,0,0.023,0H37c0.439,0,0.827-0.286,0.956-0.706l8-26c0.093-0.303,0.037-0.633-0.151-0.888S45.317,17,45,17h-6v-7
	c0-0.552-0.447-1-1-1H20.535l-3.703-5.555C16.646,3.167,16.334,3,16,3H2C1.447,3,1,3.448,1,4v39.978
	c-0.002,0.074,0.005,0.148,0.02,0.22C1.049,44.342,1.109,44.477,1.193,44.592z M43.646,19l-7.385,24H3.354l7.385-24H43.646z M3,5
	h12.465l3.703,5.555C19.354,10.833,19.666,11,20,11h17v6H10c-0.439,0-0.827,0.286-0.956,0.706L3,37.35V5z"/>
</svg>
