<?xml version="1.0" encoding="utf-8"?>
<!-- Generator: Adobe Illustrator 20.1.0, SVG Export Plug-In . SVG Version: 6.00 Build 0)  -->
<!DOCTYPE svg PUBLIC "-//W3C//DTD SVG 1.1//EN" "http://www.w3.org/Graphics/SVG/1.1/DTD/svg11.dtd">
<svg version="1.1" id="Layer_1" xmlns="http://www.w3.org/2000/svg" xmlns:xlink="http://www.w3.org/1999/xlink" x="0px" y="0px"
	 width="48px" height="48px" viewBox="0 0 48 48" enable-background="new 0 0 48 48" xml:space="preserve">
<path d="M5,46c0,0.552,0.448,1,1,1h36c0.552,0,1-0.448,1-1V2c0-0.552-0.448-1-1-1H6C5.448,1,5,1.448,5,2V46z M7,3h34v42H7V3z"/>
<path d="M30,23h-5v-5c0-0.552-0.448-1-1-1s-1,0.448-1,1v6c0,0.552,0.448,1,1,1h6c0.552,0,1-0.448,1-1S30.552,23,30,23z"/>
<path d="M24,11c-7.168,0-13,5.832-13,13s5.832,13,13,13s13-5.832,13-13S31.168,11,24,11z M24,35c-6.065,0-11-4.935-11-11
	s4.935-11,11-11s11,4.935,11,11S30.065,35,24,35z"/>
</svg>
