<?xml version="1.0" encoding="utf-8"?>
<!-- Generator: Adobe Illustrator 20.1.0, SVG Export Plug-In . SVG Version: 6.00 Build 0)  -->
<!DOCTYPE svg PUBLIC "-//W3C//DTD SVG 1.1//EN" "http://www.w3.org/Graphics/SVG/1.1/DTD/svg11.dtd">
<svg version="1.1" id="Layer_1" xmlns="http://www.w3.org/2000/svg" xmlns:xlink="http://www.w3.org/1999/xlink" x="0px" y="0px"
	 width="48px" height="48px" viewBox="0 0 48 48" enable-background="new 0 0 48 48" xml:space="preserve">
<path d="M6,47h36c0.553,0,1-0.448,1-1V8c0-0.552-0.447-1-1-1H6C5.447,7,5,7.448,5,8v38C5,46.552,5.447,47,6,47z M7,9h34v36H7V9z"/>
<path d="M14,3h20c0.553,0,1-0.448,1-1s-0.447-1-1-1H14c-0.553,0-1,0.448-1,1S13.447,3,14,3z"/>
</svg>
