<?xml version="1.0" encoding="utf-8"?>
<!-- Generator: Adobe Illustrator 20.1.0, SVG Export Plug-In . SVG Version: 6.00 Build 0)  -->
<!DOCTYPE svg PUBLIC "-//W3C//DTD SVG 1.1//EN" "http://www.w3.org/Graphics/SVG/1.1/DTD/svg11.dtd">
<svg version="1.1" id="Layer_1" xmlns="http://www.w3.org/2000/svg" xmlns:xlink="http://www.w3.org/1999/xlink" x="0px" y="0px"
	 width="48px" height="48px" viewBox="0 0 48 48" enable-background="new 0 0 48 48" xml:space="preserve">
<path d="M46,10H24.5l-5.7-7.6C18.611,2.148,18.314,2,18,2H2C1.447,2,1,2.447,1,3v38c0,2.757,2.243,5,5,5h36c2.757,0,5-2.243,5-5V11
	C47,10.447,46.553,10,46,10z M45,41c0,1.654-1.346,3-3,3H6c-1.654,0-3-1.346-3-3V4h14.5l5.7,7.6c0.188,0.252,0.485,0.4,0.8,0.4h21
	V41z"/>
<path d="M27.146,33.78C25.548,32.512,22.837,31,19,31s-6.548,1.512-8.146,2.78C9.676,34.715,9,36.134,9,37.672V39
	c0,0.553,0.447,1,1,1h18c0.553,0,1-0.447,1-1v-1.328C29,36.134,28.324,34.715,27.146,33.78z M27,38H11v-0.328
	c0-0.924,0.4-1.771,1.097-2.325C13.446,34.276,15.739,33,19,33s5.554,1.276,6.902,2.347C26.6,35.9,27,36.748,27,37.672V38z"/>
<path d="M19,16c-3.309,0-6,2.691-6,6s2.691,6,6,6s6-2.691,6-6S22.309,16,19,16z M19,26c-2.206,0-4-1.794-4-4s1.794-4,4-4
	s4,1.794,4,4S21.206,26,19,26z"/>
<path d="M30.012,31.999c-0.085,0.545,0.287,1.058,0.833,1.144c2.349,0.369,4.047,1.402,5.058,2.204C36.6,35.9,37,36.748,37,37.672
	V38h-4c-0.553,0-1,0.447-1,1s0.447,1,1,1h5c0.553,0,1-0.447,1-1v-1.328c0-1.538-0.676-2.957-1.854-3.892
	c-1.199-0.951-3.212-2.177-5.99-2.614C30.606,31.083,30.099,31.453,30.012,31.999z"/>
<path d="M29,26c-0.271,0-0.54-0.026-0.802-0.08c-0.541-0.113-1.068,0.241-1.179,0.782c-0.109,0.541,0.241,1.068,0.782,1.179
	C28.193,27.96,28.597,28,29,28c3.309,0,6-2.691,6-6s-2.691-6-6-6c-0.403,0-0.807,0.04-1.198,0.119
	c-0.541,0.11-0.892,0.638-0.782,1.179c0.11,0.542,0.641,0.896,1.179,0.782C28.46,18.026,28.729,18,29,18c2.206,0,4,1.794,4,4
	S31.206,26,29,26z"/>
</svg>
