<?xml version="1.0" encoding="utf-8"?>
<!-- Generator: Adobe Illustrator 20.1.0, SVG Export Plug-In . SVG Version: 6.00 Build 0)  -->
<!DOCTYPE svg PUBLIC "-//W3C//DTD SVG 1.1//EN" "http://www.w3.org/Graphics/SVG/1.1/DTD/svg11.dtd">
<svg version="1.1" id="Layer_1" xmlns="http://www.w3.org/2000/svg" xmlns:xlink="http://www.w3.org/1999/xlink" x="0px" y="0px"
	 width="48px" height="48px" viewBox="0 0 48 48" enable-background="new 0 0 48 48" xml:space="preserve">
<path d="M46,25H34.414l-3.707-3.707C30.52,21.105,30.266,21,30,21h-8c-0.553,0-1,0.448-1,1v24c0,0.552,0.447,1,1,1h24
	c0.553,0,1-0.448,1-1V26C47,25.448,46.553,25,46,25z M45,45H23V23h6.586l3.707,3.707C33.48,26.895,33.734,27,34,27h11V45z"/>
<path d="M2,27h13c0.553,0,1-0.448,1-1s-0.447-1-1-1H3V3h6.586l3.707,3.707C13.48,6.895,13.734,7,14,7h11v9c0,0.552,0.447,1,1,1
	s1-0.448,1-1V6c0-0.552-0.447-1-1-1H14.414l-3.707-3.707C10.52,1.105,10.266,1,10,1H2C1.447,1,1,1.448,1,2v24
	C1,26.552,1.447,27,2,27z"/>
<path d="M37.707,2.293c-0.391-0.391-1.023-0.391-1.414,0l-4.999,4.999c-0.093,0.092-0.166,0.203-0.217,0.326
	c-0.101,0.244-0.101,0.52,0,0.764c0.051,0.123,0.124,0.233,0.217,0.326l4.999,4.999C36.488,13.902,36.744,14,37,14
	s0.512-0.098,0.707-0.293c0.391-0.391,0.391-1.023,0-1.414L34.414,9H39c2.757,0,5,2.243,5,5v2c0,0.552,0.447,1,1,1s1-0.448,1-1v-2
	c0-3.86-3.141-7-7-7h-4.586l3.293-3.293C38.098,3.316,38.098,2.684,37.707,2.293z"/>
<path d="M16.923,39.618c-0.051-0.123-0.124-0.233-0.217-0.326l-4.999-4.999c-0.391-0.391-1.023-0.391-1.414,0s-0.391,1.023,0,1.414
	L13.586,39H9c-2.757,0-5-2.243-5-5v-2c0-0.552-0.447-1-1-1s-1,0.448-1,1v2c0,3.86,3.141,7,7,7h4.586l-3.293,3.293
	c-0.391,0.391-0.391,1.023,0,1.414C10.488,45.902,10.744,46,11,46s0.512-0.098,0.707-0.293l4.999-4.999
	c0.093-0.092,0.166-0.203,0.217-0.326C17.024,40.138,17.024,39.862,16.923,39.618z"/>
</svg>
