<?xml version="1.0" encoding="utf-8"?>
<!-- Generator: Adobe Illustrator 20.1.0, SVG Export Plug-In . SVG Version: 6.00 Build 0)  -->
<!DOCTYPE svg PUBLIC "-//W3C//DTD SVG 1.1//EN" "http://www.w3.org/Graphics/SVG/1.1/DTD/svg11.dtd">
<svg version="1.1" id="Layer_1" xmlns="http://www.w3.org/2000/svg" xmlns:xlink="http://www.w3.org/1999/xlink" x="0px" y="0px"
	 width="48px" height="48px" viewBox="0 0 48 48" enable-background="new 0 0 48 48" xml:space="preserve">
<path d="M46,10H24.5l-5.7-7.6C18.611,2.148,18.315,2,18,2H2C1.448,2,1,2.447,1,3v38c0,2.757,2.243,5,5,5h36c2.757,0,5-2.243,5-5V11
	C47,10.447,46.552,10,46,10z M45,41c0,1.654-1.346,3-3,3H6c-1.654,0-3-1.346-3-3V4h14.5l5.7,7.6c0.188,0.252,0.485,0.4,0.8,0.4h21
	V41z"/>
<path d="M20.488,19.029c-1.768-0.177-3.506,0.453-4.763,1.73c-2.295,2.332-2.295,6.126,0,8.457l7.562,7.685
	C23.475,37.093,23.732,37.2,24,37.2s0.525-0.107,0.713-0.299l7.564-7.685c2.293-2.332,2.292-6.126-0.002-8.457
	c-1.256-1.277-2.993-1.91-4.763-1.73c-1.337,0.134-2.566,0.714-3.512,1.637C23.053,19.743,21.825,19.162,20.488,19.029z
	 M24.837,22.778c0.653-1.001,1.701-1.642,2.873-1.759c1.159-0.116,2.31,0.3,3.139,1.143c1.534,1.559,1.534,4.094,0.002,5.652
	L24,34.774l-6.85-6.96c-1.534-1.559-1.534-4.094,0-5.652C17.889,21.412,18.875,21,19.905,21c0.127,0,0.256,0.007,0.384,0.02
	c1.172,0.116,2.219,0.758,2.873,1.759C23.533,23.346,24.469,23.343,24.837,22.778z"/>
</svg>
