<?xml version="1.0" encoding="utf-8"?>
<!-- Generator: Adobe Illustrator 19.1.0, SVG Export Plug-In . SVG Version: 6.00 Build 0)  -->
<!DOCTYPE svg PUBLIC "-//W3C//DTD SVG 1.1//EN" "http://www.w3.org/Graphics/SVG/1.1/DTD/svg11.dtd">
<svg version="1.1" id="Layer_1" xmlns="http://www.w3.org/2000/svg" xmlns:xlink="http://www.w3.org/1999/xlink" x="0px" y="0px"
	 width="32px" height="32px" viewBox="0 0 32 32" enable-background="new 0 0 32 32" xml:space="preserve">
<path d="M31,3c-4.60553,0-8.68616,2.24512-11.23907,5.68781c-0.24756-0.70685-0.68451-1.31671-1.25476-1.77991
	c0.25873-1.98944,1.51825-4.20654,2.94012-5.04755c0.47559-0.28027,0.6333-0.89355,0.35205-1.36914
	C21.51758,0.0166,20.9043-0.1416,20.42871,0.13965c-1.80396,1.06573-3.32062,3.50439-3.80859,5.92303
	C16.41663,6.03064,16.21234,6,16,6c-0.23328,0-0.45874,0.0304-0.68115,0.06891c-0.48669-2.42065-2.00458-4.86261-3.81006-5.92926
	c-0.47412-0.28125-1.08838-0.12305-1.36963,0.35156c-0.28125,0.47559-0.12354,1.08887,0.35205,1.36914
	c1.43323,0.84772,2.70081,3.09344,2.94519,5.09491c-0.54248,0.45746-0.95813,1.04962-1.19733,1.73254C9.68616,5.24512,5.60553,3,1,3
	C0.44775,3,0,3.44727,0,4v9.58594c0,3.22778,2.07733,5.97314,4.9624,6.98865C3.76001,21.67255,3,23.24713,3,25
	c0,3.30859,2.69141,6,6,6c1.6662,0,3.1748-0.68359,4.26306-1.78381C13.73108,30.26489,14.77936,31,16,31
	c1.22058,0,2.26898-0.73517,2.737-1.78381C19.8252,30.31641,21.3338,31,23,31c3.30859,0,6-2.69141,6-6
	c0-1.75287-0.76001-3.32745-1.9624-4.42542C29.92267,19.55902,32,16.81372,32,13.58594V4C32,3.44727,31.55225,3,31,3z
	 M16.90808,8.22827c0.06122,0.04059,0.12134,0.07739,0.19116,0.10388C17.64105,8.69043,18,9.30347,18,10c0,1.10254-0.89697,2-2,2
	s-2-0.89746-2-2s0.89697-2,2-2C16.32861,8,16.63434,8.08728,16.90808,8.22827z M7.41406,19C4.42871,19,2,16.57129,2,13.58594
	V5.04102C8.15039,5.55078,13,10.71973,13,17v2H7.41406z M9,29c-2.20557,0-4-1.79395-4-4s1.79443-4,4-4h4v4
	C13,27.20605,11.20557,29,9,29z M17,28c0,0.55176-0.44873,1-1,1s-1-0.44824-1-1V13.85797C15.32153,13.94153,15.65271,14,16,14
	s0.67847-0.05847,1-0.14203V28z M23,29c-2.20557,0-4-1.79395-4-4v-4h4c2.20557,0,4,1.79395,4,4S25.20557,29,23,29z M30,13.58594
	C30,16.57129,27.57129,19,24.58594,19H19v-2c0-6.28027,4.84961-11.44922,11-11.95898V13.58594z"/>
</svg>
