<?xml version="1.0" encoding="utf-8"?>
<!-- Generator: Adobe Illustrator 19.1.0, SVG Export Plug-In . SVG Version: 6.00 Build 0)  -->
<!DOCTYPE svg PUBLIC "-//W3C//DTD SVG 1.1//EN" "http://www.w3.org/Graphics/SVG/1.1/DTD/svg11.dtd">
<svg version="1.1" id="Layer_1" xmlns="http://www.w3.org/2000/svg" xmlns:xlink="http://www.w3.org/1999/xlink" x="0px" y="0px"
	 width="32px" height="32px" viewBox="0 0 32 32" enable-background="new 0 0 32 32" xml:space="preserve">
<path d="M29.85742,7.68164c-0.00903-0.00879-0.0213-0.01129-0.03058-0.01971C27.09747,3.82373,22.03387,0,16,0
	C6.91699,0,0,8.66406,0,13c0,2.02924,3.37494,3.97998,8.02051,5.08087L6.7793,24.2793
	c-0.38086,1.90332,0.10645,3.85645,1.33691,5.35742C9.34668,31.13867,11.16699,32,13.1084,32h5.7832
	c1.94141,0,3.76172-0.86133,4.99219-2.36328c1.23047-1.50098,1.71777-3.4541,1.33691-5.35742l-1.23529-6.17126
	C28.66095,17.02228,32,15.07538,32,13c0-1.36731-0.69049-3.16492-1.91718-4.9856C30.03235,7.89301,29.95776,7.7793,29.85742,7.68164
	z M27.78333,8.27698c-1.0459,0.80109-2.33795,1.26892-3.60168,1.26892c-3.20801,0-5.81836-2.61035-5.81836-5.81836
	c0-0.47858,0.07013-0.96649,0.1933-1.44379C22.4812,3.11163,25.75659,5.70026,27.78333,8.27698z M23.25977,24.67188
	c0.2627,1.31348-0.07324,2.66113-0.92285,3.69727S20.23145,30,18.8916,30h-5.7832c-1.33984,0-2.5957-0.59473-3.44531-1.63086
	s-1.18555-2.38379-0.92285-3.69727l1.23865-6.18561C11.87921,18.81342,13.9248,19,16,19c2.09082,0,4.13495-0.17834,6.02545-0.49475
	L23.25977,24.67188z M16,17c-2.48737,0-4.6955-0.2641-6.59204-0.65637c-0.00671-0.00146-0.01154-0.00635-0.01831-0.00769
	c-0.00696-0.0014-0.01343,0.00128-0.02039,0C4.80951,15.38635,2.10748,13.6781,2,12.99414C2.00781,9.80078,8.06445,2,16,2
	c0.18988,0,0.37311,0.02509,0.56073,0.03387c-0.12579,0.56128-0.19745,1.13147-0.19745,1.69366
	c0,4.31152,3.50684,7.81836,7.81836,7.81836c1.664,0,3.35876-0.59833,4.73779-1.62537C29.61713,11.10706,30,12.19928,30,13
	C30,14.02832,24.5,17,16,17z"/>
<path d="M11,6c-2.20605,0-4,1.79395-4,4s1.79395,4,4,4s4-1.79395,4-4S13.20605,6,11,6z M11,12c-1.10254,0-2-0.89746-2-2
	s0.89746-2,2-2s2,0.89746,2,2S12.10254,12,11,12z"/>
</svg>
