<?xml version="1.0" encoding="utf-8"?>
<!-- Generator: Adobe Illustrator 19.1.0, SVG Export Plug-In . SVG Version: 6.00 Build 0)  -->
<!DOCTYPE svg PUBLIC "-//W3C//DTD SVG 1.1//EN" "http://www.w3.org/Graphics/SVG/1.1/DTD/svg11.dtd">
<svg version="1.1" id="Layer_1" xmlns="http://www.w3.org/2000/svg" xmlns:xlink="http://www.w3.org/1999/xlink" x="0px" y="0px"
	 width="32px" height="32px" viewBox="0 0 32 32" enable-background="new 0 0 32 32" xml:space="preserve">
<path d="M23.5,0c-2.60022,0-5.03516,1.13147-6.64575,3.03577C16.57141,3.01764,16.28833,3,16,3s-0.57141,0.01764-0.85425,0.03577
	C13.53516,1.13147,11.10022,0,8.5,0C3.81348,0,0,3.58887,0,8c0,3.34216,2.25781,6.35095,5.55261,7.50146
	c0.46594,1.85864,1.20526,4.10315,2.13025,6.33002l-3.80688-0.57074c-0.55469-0.0752-1.05566,0.29492-1.1377,0.84082
	s0.29492,1.05566,0.84082,1.1377l5.07141,0.76031c0.44012,0.92072,0.9079,1.81384,1.3985,2.64978l-5.12616,0.87311
	c-0.54395,0.09277-0.91016,0.6084-0.81738,1.15332c0.08301,0.4873,0.50586,0.83203,0.98438,0.83203
	c0.05566,0,0.1123-0.00488,0.16895-0.01465l5.97052-1.01691C12.73181,30.57556,14.37366,32,16,32s3.26819-1.42444,4.77069-3.52374
	l5.97052,1.01691c0.05664,0.00977,0.11328,0.01465,0.16895,0.01465c0.47852,0,0.90137-0.34473,0.98438-0.83203
	c0.09277-0.54492-0.27344-1.06055-0.81738-1.15332l-5.12616-0.87311c0.4906-0.83594,0.95837-1.72906,1.3985-2.64978l5.07141-0.76031
	c0.5459-0.08203,0.92285-0.5918,0.84082-1.1377c-0.08105-0.5459-0.5752-0.91602-1.1377-0.84082l-3.80688,0.57074
	c0.92499-2.22687,1.66431-4.47137,2.13025-6.33002C29.74219,14.35095,32,11.34216,32,8C32,3.58887,28.18652,0,23.5,0z M2,8
	c0-3.30859,2.91602-6,6.5-6c1.55316,0,3.02643,0.51886,4.18689,1.42365C8.23602,4.58942,5,8.03699,5,12.09961
	c0,0.27686,0.0257,0.60608,0.07251,0.97473C3.2124,11.99371,2,10.08704,2,8z M19.58887,24.55176
	c0.04883,0,0.09863-0.00391,0.14941-0.01074l1.16705-0.17499c-0.35681,0.67822-0.7218,1.32349-1.08936,1.91968l-0.92047-0.1568
	c-0.54102-0.09473-1.06055,0.27344-1.15332,0.81738c-0.09277,0.54492,0.27344,1.06152,0.81738,1.15332l0.00305,0.00055
	C17.6394,29.26947,16.74963,30,16,30c-0.58362,0-1.48016-0.55664-2.57263-1.89813l0.01306-0.00226
	c0.54395-0.0918,0.91016-0.6084,0.81738-1.15332c-0.09277-0.54395-0.60742-0.91113-1.15332-0.81738l-0.95526,0.16272
	c-0.35437-0.56708-0.72186-1.21118-1.09967-1.93231l1.21216,0.1817c0.05078,0.00684,0.10059,0.01074,0.14941,0.01074
	c0.4873,0,0.91406-0.35547,0.98828-0.85156c0.08203-0.5459-0.29492-1.05566-0.84082-1.1377l-2.56976-0.38525
	C8.26642,18.35455,7,14.11505,7,12.09961C7,8.18457,11.03711,5,16,5s9,3.18457,9,7.09961c0,0.64612-0.11884,1.47101-0.32623,2.4043
	c-0.008,0.03687-0.02032,0.07092-0.02411,0.10883c-0.49884,2.19073-1.48785,4.97217-2.67462,7.56989l-2.53363,0.37988
	c-0.5459,0.08203-0.92285,0.5918-0.84082,1.1377C18.6748,24.19629,19.10156,24.55176,19.58887,24.55176z M26.92749,13.07434
	C26.9743,12.70569,27,12.37646,27,12.09961c0-4.06262-3.2359-7.51019-7.68683-8.67596C20.47363,2.51886,21.94684,2,23.5,2
	C27.08398,2,30,4.69141,30,8C30,10.08704,28.7876,11.99371,26.92749,13.07434z"/>
<path d="M12,13c-1.6543,0-3,1.3457-3,3s1.3457,3,3,3s3-1.3457,3-3S13.6543,13,12,13z M12,17c-0.55176,0-1-0.44824-1-1s0.44824-1,1-1
	s1,0.44824,1,1S12.55176,17,12,17z"/>
<path d="M23,16c0-1.6543-1.3457-3-3-3s-3,1.3457-3,3s1.3457,3,3,3S23,17.6543,23,16z M19,16c0-0.55176,0.44824-1,1-1s1,0.44824,1,1
	s-0.44824,1-1,1S19,16.55176,19,16z"/>
</svg>
