<?xml version="1.0" encoding="utf-8"?>
<!-- Generator: Adobe Illustrator 19.1.0, SVG Export Plug-In . SVG Version: 6.00 Build 0)  -->
<!DOCTYPE svg PUBLIC "-//W3C//DTD SVG 1.1//EN" "http://www.w3.org/Graphics/SVG/1.1/DTD/svg11.dtd">
<svg version="1.1" id="Layer_1" xmlns="http://www.w3.org/2000/svg" xmlns:xlink="http://www.w3.org/1999/xlink" x="0px" y="0px"
	 width="32px" height="32px" viewBox="0 0 32 32" enable-background="new 0 0 32 32" xml:space="preserve">
<path d="M31,29h-9.10059C21.43457,26.7207,19.41504,25,17,25v-3c3.85938,0,7-3.14014,7-7v-4c0-0.55225-0.44727-1-1-1h-1
	c-1.95782,0-3.72827,0.8103-5,2.11053V2.12939c0-0.55225-0.44727-1-1-1s-1,0.44775-1,1v5.98114C13.72827,6.8103,11.95782,6,10,6H9
	C8.44727,6,8,6.44775,8,7v4c0,3.85986,3.14062,7,7,7v3v4.42432c-0.83911,0.36652-1.57001,0.95294-2.09961,1.71729
	C12.61035,27.04834,12.30664,27,12,27c-1.30371,0-2.41602,0.83594-2.8291,2H1c-0.55273,0-1,0.44775-1,1s0.44727,1,1,1h9
	c0.55273,0,1-0.44775,1-1c0-0.55127,0.44824-1,1-1c0.2959,0,0.51562,0.13525,0.64648,0.24854
	c0.24414,0.21045,0.57617,0.28955,0.88672,0.21484c0.31348-0.0752,0.57129-0.29639,0.69238-0.59473
	C14.68848,27.7334,15.77734,27,17,27c1.6543,0,3,1.3457,3,3c0,0.55225,0.44727,1,1,1h10c0.55273,0,1-0.44775,1-1S31.55273,29,31,29z
	 M22,12v3c0,2.75684-2.24316,5-5,5v-3C17,14.24316,19.24316,12,22,12z M10,11V8c2.75684,0,5,2.24316,5,5v3
	C12.24316,16,10,13.75684,10,11z"/>
</svg>
