<?xml version="1.0" encoding="utf-8"?>
<!-- Generator: Adobe Illustrator 19.1.0, SVG Export Plug-In . SVG Version: 6.00 Build 0)  -->
<!DOCTYPE svg PUBLIC "-//W3C//DTD SVG 1.1//EN" "http://www.w3.org/Graphics/SVG/1.1/DTD/svg11.dtd">
<svg version="1.1" id="Layer_1" xmlns="http://www.w3.org/2000/svg" xmlns:xlink="http://www.w3.org/1999/xlink" x="0px" y="0px"
	 width="32px" height="32px" viewBox="0 0 32 32" enable-background="new 0 0 32 32" xml:space="preserve">
<path d="M8,26h7v4h-5c-0.55225,0-1,0.44775-1,1s0.44775,1,1,1h12c0.55225,0,1-0.44775,1-1s-0.44775-1-1-1h-5v-4h7
	c3.85986,0,7-3.14014,7-7c0-2.85889-1.69922-5.3584-4.25391-6.4375C26.91357,12.05957,27,11.53271,27,11c0-2.75684-2.24316-5-5-5
	c0-3.30859-2.69141-6-6-6s-6,2.69141-6,6c-2.75684,0-5,2.24316-5,5c0,0.53271,0.08643,1.05957,0.25391,1.5625
	C2.69922,13.6416,1,16.14111,1,19C1,22.85986,4.14014,26,8,26z M6.86719,14.13428c0.31738-0.07324,0.57861-0.29639,0.70117-0.59814
	c0.12207-0.30176,0.09033-0.64355-0.08594-0.91748C7.16699,12.12891,7,11.56885,7,11c0-1.6543,1.3457-3,3-3h1.10059
	c0.2998,0,0.58398-0.13477,0.77393-0.3667c0.18994-0.23242,0.26562-0.5376,0.20605-0.83154C12.02734,6.53711,12,6.26709,12,6
	c0-2.20557,1.79443-4,4-4s4,1.79443,4,4c0,0.26709-0.02734,0.53711-0.08057,0.80176
	c-0.05957,0.29395,0.01611,0.59912,0.20605,0.83154C20.31543,7.86523,20.59961,8,20.89941,8H22c1.6543,0,3,1.3457,3,3
	c0,0.56885-0.16699,1.12891-0.48242,1.61865c-0.17627,0.27393-0.20801,0.61572-0.08594,0.91748
	c0.12256,0.30176,0.38379,0.5249,0.70117,0.59814C27.40967,14.66211,29,16.66309,29,19c0,2.75684-2.24316,5-5,5h-7v-2.58594
	l4.70703-4.70703c0.39062-0.39062,0.39062-1.02344,0-1.41406s-1.02344-0.39062-1.41406,0L17,18.58594V11c0-0.55225-0.44775-1-1-1
	s-1,0.44775-1,1v7.58594l-3.29297-3.29297c-0.39062-0.39062-1.02344-0.39062-1.41406,0s-0.39062,1.02344,0,1.41406L15,21.41406V24H8
	c-2.75684,0-5-2.24316-5-5C3,16.66309,4.59033,14.66211,6.86719,14.13428z"/>
</svg>
