<?xml version="1.0" encoding="utf-8"?>
<!-- Generator: Adobe Illustrator 19.1.0, SVG Export Plug-In . SVG Version: 6.00 Build 0)  -->
<!DOCTYPE svg PUBLIC "-//W3C//DTD SVG 1.1//EN" "http://www.w3.org/Graphics/SVG/1.1/DTD/svg11.dtd">
<svg version="1.1" id="Layer_1" xmlns="http://www.w3.org/2000/svg" xmlns:xlink="http://www.w3.org/1999/xlink" x="0px" y="0px"
	 width="32px" height="32px" viewBox="0 0 32 32" enable-background="new 0 0 32 32" xml:space="preserve">
<path d="M4,24h3v7c0,0.55225,0.44727,1,1,1h16c0.55273,0,1-0.44775,1-1v-7h3c0.55273,0,1-0.44775,1-1v-4c0-0.55225-0.44727-1-1-1H17
	v-2c3.30859,0,6-2.69141,6-6V8c0-0.55225-0.44727-1-1-1h-1c-1.53754,0-2.93719,0.58618-4,1.54047V8V1c0-0.55225-0.44727-1-1-1
	s-1,0.44775-1,1v2.54047C13.93719,2.58618,12.53754,2,11,2h-1C9.44727,2,9,2.44775,9,3v2c0,3.30859,2.69141,6,6,6v2v2v3H4
	c-0.55273,0-1,0.44775-1,1v4C3,23.55225,3.44727,24,4,24z M21,9v1c0,2.20557-1.79395,4-4,4v-1C17,10.79443,18.79395,9,21,9z M11,5V4
	c2.20605,0,4,1.79443,4,4v1C12.79395,9,11,7.20557,11,5z M23,30H9v-6h14V30z M5,20h22v2H5V20z"/>
</svg>
