<?xml version="1.0" encoding="utf-8"?>
<!-- Generator: Adobe Illustrator 19.1.0, SVG Export Plug-In . SVG Version: 6.00 Build 0)  -->
<!DOCTYPE svg PUBLIC "-//W3C//DTD SVG 1.1//EN" "http://www.w3.org/Graphics/SVG/1.1/DTD/svg11.dtd">
<svg version="1.1" id="Layer_1" xmlns="http://www.w3.org/2000/svg" xmlns:xlink="http://www.w3.org/1999/xlink" x="0px" y="0px"
	 width="32px" height="32px" viewBox="0 0 32 32" enable-background="new 0 0 32 32" xml:space="preserve">
<circle cx="13" cy="22" r="2"/>
<circle cx="19" cy="22" r="2"/>
<path d="M13,12c0-1.6543-1.3457-3-3-3s-3,1.3457-3,3s1.3457,3,3,3S13,13.6543,13,12z M9,12c0-0.55127,0.44873-1,1-1s1,0.44873,1,1
	s-0.44873,1-1,1S9,12.55127,9,12z"/>
<path d="M22,9c-1.6543,0-3,1.3457-3,3s1.3457,3,3,3s3-1.3457,3-3S23.6543,9,22,9z M22,13c-0.55127,0-1-0.44873-1-1s0.44873-1,1-1
	s1,0.44873,1,1S22.55127,13,22,13z"/>
<path d="M31,0c-4.46466,0-7.87549,0.95233-10.18134,2.80865C19.30396,2.29279,17.68707,2,16,2s-3.30396,0.29279-4.81866,0.80865
	C8.87549,0.95233,5.46466,0,1,0C0.44775,0,0,0.44775,0,1c0,5.30731,0.32916,8.36115,2.08209,10.43567
	C1.39075,13.15839,1,15.03308,1,17c0,8.271,6.729,15,15,15s15-6.729,15-15c0-1.96692-0.39075-3.84161-1.08209-5.56433
	C31.67084,9.36115,32,6.30731,32,1C32,0.44775,31.55225,0,31,0z M2.00488,2.01758C4.9516,2.12146,7.29584,2.70093,9.02466,3.73175
	C6.55988,5.03278,4.50861,7.00262,3.09332,9.39526C2.3382,8.01892,2.04541,5.90839,2.00488,2.01758z M16,30
	C8.83154,30,3,24.16846,3,17S8.83154,4,16,4s13,5.83154,13,13S23.16846,30,16,30z M28.90674,9.39526
	c-1.41528-2.39258-3.46655-4.36243-5.93134-5.66351c1.72882-1.03082,4.073-1.61029,7.01971-1.71417
	C29.95459,5.90839,29.66193,8.01892,28.90674,9.39526z"/>
<path d="M18,16h-4c-3.30859,0-6,2.69141-6,6s2.69141,6,6,6h4c3.30859,0,6-2.69141,6-6S21.30859,16,18,16z M18,26h-4
	c-2.20557,0-4-1.79443-4-4s1.79443-4,4-4h4c2.20557,0,4,1.79443,4,4S20.20557,26,18,26z"/>
</svg>
