<?xml version="1.0" encoding="utf-8"?>
<!-- Generator: Adobe Illustrator 19.1.0, SVG Export Plug-In . SVG Version: 6.00 Build 0)  -->
<!DOCTYPE svg PUBLIC "-//W3C//DTD SVG 1.1//EN" "http://www.w3.org/Graphics/SVG/1.1/DTD/svg11.dtd">
<svg version="1.1" id="Layer_1" xmlns="http://www.w3.org/2000/svg" xmlns:xlink="http://www.w3.org/1999/xlink" x="0px" y="0px"
	 width="32px" height="32px" viewBox="0 0 32 32" enable-background="new 0 0 32 32" xml:space="preserve">
<path d="M15,26.94934V30h-5c-0.55225,0-1,0.44775-1,1s0.44775,1,1,1h12c0.55225,0,1-0.44775,1-1s-0.44775-1-1-1h-5v-3.05066
	c5.04633-0.50342,9-4.77271,9-9.94934c0-7.27881-8.95068-15.40186-9.33203-15.74414
	c-0.37793-0.33887-0.95166-0.34131-1.33252-0.00342C14.95459,1.59131,6,9.63574,6,17C6,22.17664,9.95367,26.44592,15,26.94934z
	 M15.99707,3.37646C18.02686,5.36572,24,11.67139,24,17c0,4.07178-3.06006,7.43591-7,7.93054v-3.51648l4.70703-4.70703
	c0.39062-0.39062,0.39062-1.02344,0-1.41406s-1.02344-0.39062-1.41406,0L17,18.58594V11c0-0.55225-0.44775-1-1-1s-1,0.44775-1,1
	v7.58594l-3.29297-3.29297c-0.39062-0.39062-1.02344-0.39062-1.41406,0s-0.39062,1.02344,0,1.41406L15,21.41406v3.51648
	C11.06006,24.43591,8,21.07178,8,17C8,11.60791,13.96533,5.35107,15.99707,3.37646z"/>
</svg>
