<?xml version="1.0" encoding="utf-8"?>
<!-- Generator: Adobe Illustrator 19.1.0, SVG Export Plug-In . SVG Version: 6.00 Build 0)  -->
<!DOCTYPE svg PUBLIC "-//W3C//DTD SVG 1.1//EN" "http://www.w3.org/Graphics/SVG/1.1/DTD/svg11.dtd">
<svg version="1.1" id="Layer_1" xmlns="http://www.w3.org/2000/svg" xmlns:xlink="http://www.w3.org/1999/xlink" x="0px" y="0px"
	 width="32px" height="32px" viewBox="0 0 32 32" enable-background="new 0 0 32 32" xml:space="preserve">
<path d="M27.6626,5.54004C27.21729,2.41309,24.52148,0,21.27295,0c-3.55908,0-6.45459,2.89551-6.45459,6.4541
	c0,0.33472,0.04016,0.7276,0.10693,1.12195c-4.58386,1.50409-7.90747,5.81116-7.92346,10.88757l-5.55652,3.70435
	C1.16699,22.35352,1,22.66602,1,23s0.16699,0.64648,0.44531,0.83203L7,27.53516V31c0,0.55273,0.44775,1,1,1h21
	c0.55225,0,1-0.44727,1-1V18.5c0-1.29413-0.22473-2.53448-0.62073-3.69635c1.46698-0.98181,2.43909-2.62085,2.43909-4.25775
	C31.81836,8.05762,30.02441,5.98047,27.6626,5.54004z M3.80273,23L7,20.86847v4.26306L3.80273,23z M28,30H9V18.5
	C9,13.26172,13.26172,9,18.5,9s9.5,4.26172,9.5,9.5V30z M28.55768,12.93707C26.59387,9.40094,22.82367,7,18.5,7
	c-0.55164,0-1.08997,0.05249-1.62109,0.12793c-0.03687-0.24445-0.06055-0.48267-0.06055-0.67383
	C16.81836,3.99805,18.81689,2,21.27295,2s4.4541,1.99805,4.4541,4.4541c0,0.55273,0.44775,1,1,1
	c1.70459,0,3.09131,1.38672,3.09131,3.0918C29.81836,11.41077,29.31952,12.3158,28.55768,12.93707z"/>
<path d="M15,15c-1.6543,0-3,1.3457-3,3s1.3457,3,3,3s3-1.3457,3-3S16.6543,15,15,15z M15,19c-0.55127,0-1-0.44824-1-1s0.44873-1,1-1
	s1,0.44824,1,1S15.55127,19,15,19z"/>
</svg>
