<?xml version="1.0" encoding="utf-8"?>
<!-- Generator: Adobe Illustrator 19.1.0, SVG Export Plug-In . SVG Version: 6.00 Build 0)  -->
<!DOCTYPE svg PUBLIC "-//W3C//DTD SVG 1.1//EN" "http://www.w3.org/Graphics/SVG/1.1/DTD/svg11.dtd">
<svg version="1.1" id="Layer_1" xmlns="http://www.w3.org/2000/svg" xmlns:xlink="http://www.w3.org/1999/xlink" x="0px" y="0px"
	 width="32px" height="32px" viewBox="0 0 32 32" enable-background="new 0 0 32 32" xml:space="preserve">
<path d="M31,8H21V5c0-2.75684-2.24316-5-5-5s-5,2.24316-5,5v3H1C0.44727,8,0,8.44727,0,9c0,3.21252,2.23206,5.98755,5.25677,6.77448
	C5.09216,16.54004,5,17.33264,5,18.14746c0,1.13513,0.16528,2.31281,0.46442,3.48065
	c-1.70483,1.19867-2.73688,3.15356-2.73688,5.28107c0,0.73828,0.14062,1.49121,0.41895,2.23926
	c0.1084,0.29102,0.34473,0.51465,0.6416,0.60645c0.09668,0.03027,0.19629,0.04492,0.2959,0.04492
	c0.20312,0,0.40527-0.0625,0.5752-0.18262c1.24561-0.87616,3.09027-1.30908,4.11761-1.49518C10.70746,30.42303,13.22742,32,16,32
	s5.29254-1.57697,7.22321-3.87799c1.02734,0.1861,2.87201,0.61902,4.11761,1.49518c0.16992,0.12012,0.37109,0.18262,0.5752,0.18262
	c0.09961,0,0.19922-0.01465,0.2959-0.04492c0.29688-0.0918,0.5332-0.31543,0.6416-0.60645
	c0.27832-0.74805,0.41895-1.50098,0.41895-2.23926c0-2.1275-1.03204-4.0824-2.73688-5.28107
	C26.83472,20.46027,27,19.28259,27,18.14746c0-0.81482-0.09216-1.60742-0.25677-2.37299C29.76794,14.98755,32,12.21252,32,9
	C32,8.44727,31.55273,8,31,8z M16,2c1.6543,0,3,1.3457,3,3v2.43213C18.04486,7.15698,17.04102,7,16,7s-2.04486,0.15698-3,0.43213V5
	C13,3.3457,14.3457,2,16,2z M2.10254,10h6.41467c-1.13928,1.07532-2.05957,2.3844-2.66907,3.86133
	C3.96429,13.40997,2.49261,11.88538,2.10254,10z M4.74414,27.27344c-0.01074-0.12207-0.0166-0.24316-0.0166-0.36426
	c0-1.25616,0.52032-2.4256,1.40582-3.2558c0.37256,0.93469,0.82025,1.84448,1.35016,2.69519
	C6.64905,26.54504,5.66821,26.83722,4.74414,27.27344z M16,30c-4.7627,0-9-6.62793-9-11.85254C7,13.10352,11.03711,9,16,9
	s9,4.10352,9,9.14746C25,23.37207,20.7627,30,16,30z M27.27246,26.90918c0,0.12109-0.00586,0.24219-0.0166,0.36426
	c-0.92407-0.43622-1.90491-0.72839-2.73938-0.92487c0.52991-0.85071,0.9776-1.7605,1.35016-2.69519
	C26.75214,24.48358,27.27246,25.65302,27.27246,26.90918z M26.15186,13.86133C25.54236,12.3844,24.62207,11.07532,23.48279,10
	h6.41467C29.50739,11.88538,28.03571,13.40997,26.15186,13.86133z"/>
</svg>
