<?xml version="1.0" encoding="utf-8"?>
<!-- Generator: Adobe Illustrator 19.1.0, SVG Export Plug-In . SVG Version: 6.00 Build 0)  -->
<!DOCTYPE svg PUBLIC "-//W3C//DTD SVG 1.1//EN" "http://www.w3.org/Graphics/SVG/1.1/DTD/svg11.dtd">
<svg version="1.1" id="Layer_49" xmlns="http://www.w3.org/2000/svg" xmlns:xlink="http://www.w3.org/1999/xlink" x="0px" y="0px"
	 width="64px" height="64px" viewBox="0 0 64 64" enable-background="new 0 0 64 64" xml:space="preserve">
<path fill="#231F20" d="M36,57c0.6,0,1-0.4,1-1V30c0-0.6-0.4-1-1-1h-8c-0.6,0-1,0.4-1,1v26c0,0.6,0.4,1,1,1H36z"/>
<path fill="#231F20" d="M18,57c0.6,0,1-0.4,1-1V30c0-0.6-0.4-1-1-1h-8c-0.6,0-1,0.4-1,1v26c0,0.6,0.4,1,1,1H18z"/>
<path fill="#231F20" d="M54,57c0.6,0,1-0.4,1-1V30c0-0.6-0.4-1-1-1h-8c-0.6,0-1,0.4-1,1v26c0,0.6,0.4,1,1,1H54z"/>
<path fill="#231F20" d="M60,59H4c-0.6,0-1,0.4-1,1v2c0,0.6,0.4,1,1,1h56c0.6,0,1-0.4,1-1v-2C61,59.4,60.6,59,60,59z"/>
<path fill="#231F20" d="M60.5,19.1l-28-16c-0.3-0.2-0.7-0.2-1,0l-28,16C3.2,19.3,3,19.6,3,20v6c0,0.6,0.4,1,1,1h56c0.6,0,1-0.4,1-1
	v-6C61,19.6,60.8,19.3,60.5,19.1z M32,20c-2.2,0-4-1.8-4-4s1.8-4,4-4s4,1.8,4,4S34.2,20,32,20z"/>
</svg>
