<?xml version="1.0" encoding="utf-8"?>
<!-- Generator: Adobe Illustrator 19.1.0, SVG Export Plug-In . SVG Version: 6.00 Build 0)  -->
<!DOCTYPE svg PUBLIC "-//W3C//DTD SVG 1.1//EN" "http://www.w3.org/Graphics/SVG/1.1/DTD/svg11.dtd">
<svg version="1.1" id="Layer_49" xmlns="http://www.w3.org/2000/svg" xmlns:xlink="http://www.w3.org/1999/xlink" x="0px" y="0px"
	 width="64px" height="64px" viewBox="0 0 64 64" enable-background="new 0 0 64 64" xml:space="preserve">
<path fill="#231F20" d="M19.4,58.8L28.8,10L3.2,45.4c-0.3,0.4-0.2,1.1,0.2,1.4L19.4,58.8C19.4,58.8,19.4,58.8,19.4,58.8z"/>
<path fill="#231F20" d="M56.8,47.4L30.9,9.6l-9.4,49.1L56.3,49c0.3-0.1,0.6-0.3,0.7-0.6C57,48,57,47.7,56.8,47.4z"/>
<path id="color_42_" fill="#231F20" d="M51.2,35.7l7.1-2.8c0.3-0.1,0.5-0.3,0.6-0.6c0.1-0.3,0.1-0.6-0.1-0.8l-16-26
	C42.7,5.2,42.4,5,42,5c-0.3,0-0.7,0.1-0.8,0.4l-5.5,7.6L51.2,35.7z"/>
</svg>
