<?xml version="1.0" encoding="utf-8"?>
<!-- Generator: Adobe Illustrator 19.1.0, SVG Export Plug-In . SVG Version: 6.00 Build 0)  -->
<!DOCTYPE svg PUBLIC "-//W3C//DTD SVG 1.1//EN" "http://www.w3.org/Graphics/SVG/1.1/DTD/svg11.dtd">
<svg version="1.1" id="Layer_49" xmlns="http://www.w3.org/2000/svg" xmlns:xlink="http://www.w3.org/1999/xlink" x="0px" y="0px"
	 width="64px" height="64px" viewBox="0 0 64 64" enable-background="new 0 0 64 64" xml:space="preserve">
<path id="color_57_" fill="#231F20" d="M46,21H18c-0.6,0-1,0.4-1,1v37h30V22C47,21.4,46.6,21,46,21z M41,31H23c-0.6,0-1-0.4-1-1
	c0-0.6,0.4-1,1-1h18c0.6,0,1,0.4,1,1C42,30.6,41.6,31,41,31z"/>
<path fill="#231F20" d="M51,9H41V2c0-0.6-0.4-1-1-1H24c-0.6,0-1,0.4-1,1v7H13c-2.8,0-5,2.2-5,5v44c0,0.6,0.4,1,1,1h4v3
	c0,0.6,0.4,1,1,1c0.6,0,1-0.4,1-1V22c0-1.7,1.3-3,3-3h28c1.7,0,3,1.3,3,3v40c0,0.6,0.4,1,1,1c0.6,0,1-0.4,1-1v-3h4c0.6,0,1-0.4,1-1
	V14C56,11.2,53.8,9,51,9z M25,3h14v6H25V3z"/>
</svg>
