<?xml version="1.0" encoding="utf-8"?>
<!-- Generator: Adobe Illustrator 19.1.0, SVG Export Plug-In . SVG Version: 6.00 Build 0)  -->
<!DOCTYPE svg PUBLIC "-//W3C//DTD SVG 1.1//EN" "http://www.w3.org/Graphics/SVG/1.1/DTD/svg11.dtd">
<svg version="1.1" id="Layer_49" xmlns="http://www.w3.org/2000/svg" xmlns:xlink="http://www.w3.org/1999/xlink" x="0px" y="0px"
	 width="64px" height="64px" viewBox="0 0 64 64" enable-background="new 0 0 64 64" xml:space="preserve">
<path fill="#231F20" d="M32,1C17.1,1,5,13.1,5,28v8c0,0.6,0.4,1,1,1h9v21c0,1.7-1.3,3-3,3c-1.7,0-3-1.3-3-3c0-0.6-0.4-1-1-1
	c-0.6,0-1,0.4-1,1c0,2.8,2.2,5,5,5c2.8,0,5-2.2,5-5V37h6v19c0,0.6,0.4,1,1,1c0.6,0,1-0.4,1-1V37h6v25c0,0.6,0.4,1,1,1
	c0.6,0,1-0.4,1-1V37h6v19c0,0.6,0.4,1,1,1c0.6,0,1-0.4,1-1V37h6v21c0,2.8,2.2,5,5,5c2.8,0,5-2.2,5-5c0-0.6-0.4-1-1-1
	c-0.6,0-1,0.4-1,1c0,1.7-1.3,3-3,3c-1.7,0-3-1.3-3-3V37h9c0.6,0,1-0.4,1-1v-8C59,13.1,46.9,1,32,1z M26,21h-7c-0.6,0-1-0.4-1-1l0,0
	c0-0.6,0.4-1,1-1h7c0.6,0,1,0.4,1,1l0,0C27,20.6,26.6,21,26,21z M45,21h-7c-0.6,0-1-0.4-1-1l0,0c0-0.6,0.4-1,1-1h7c0.6,0,1,0.4,1,1
	l0,0C46,20.6,45.6,21,45,21z"/>
</svg>
