<?xml version="1.0" encoding="utf-8"?>
<!-- Generator: Adobe Illustrator 19.1.0, SVG Export Plug-In . SVG Version: 6.00 Build 0)  -->
<!DOCTYPE svg PUBLIC "-//W3C//DTD SVG 1.1//EN" "http://www.w3.org/Graphics/SVG/1.1/DTD/svg11.dtd">
<svg version="1.1" id="Layer_49" xmlns="http://www.w3.org/2000/svg" xmlns:xlink="http://www.w3.org/1999/xlink" x="0px" y="0px"
	 width="64px" height="64px" viewBox="0 0 64 64" enable-background="new 0 0 64 64" xml:space="preserve">
<path fill="#231F20" d="M46,55H18c-0.6,0-1,0.4-1,1v6c0,0.6,0.4,1,1,1h28c0.6,0,1-0.4,1-1v-6C47,55.4,46.6,55,46,55z"/>
<path id="color_43_" fill="#231F20" d="M21.3,48.9C21.2,49,21.1,49,21,49v4h22V41.1L21.3,48.9z"/>
<path fill="#231F20" d="M62,11H38V7c0-3.3-2.7-6-6-6l0,0c-3.3,0-6,2.7-6,6v4H2c-0.6,0-1,0.4-1,1v8c0,0.6,0.4,1,1,1h7v4
	c0,0.6,0.4,1,1,1h11v20.9l21.7-7.9c0.1,0,0.2-0.1,0.3-0.1V26h11c0.6,0,1-0.4,1-1v-4h7c0.6,0,1-0.4,1-1v-8C63,11.4,62.6,11,62,11z"/>
</svg>
