<?xml version="1.0" encoding="utf-8"?>
<!-- Generator: Adobe Illustrator 19.1.0, SVG Export Plug-In . SVG Version: 6.00 Build 0)  -->
<!DOCTYPE svg PUBLIC "-//W3C//DTD SVG 1.1//EN" "http://www.w3.org/Graphics/SVG/1.1/DTD/svg11.dtd">
<svg version="1.1" id="Layer_49" xmlns="http://www.w3.org/2000/svg" xmlns:xlink="http://www.w3.org/1999/xlink" x="0px" y="0px"
	 width="64px" height="64px" viewBox="0 0 64 64" enable-background="new 0 0 64 64" xml:space="preserve">
<path fill="#231F20" d="M59.2,22c-0.3-0.1-7-1.5-9.2-9.3c-0.1-0.4-0.5-0.7-1-0.7H15c-0.4,0-0.8,0.3-1,0.7c-2.2,7.8-9,9.2-9.2,9.3
	C4.3,22.1,4,22.5,4,23v1c0,0.6,0.4,1,1,1h54c0.6,0,1-0.4,1-1v-1C60,22.5,59.7,22.1,59.2,22z"/>
<path fill="#231F20" d="M7,39v22c0,0.6,0.4,1,1,1h18v-9c0-0.3,0.1-0.6,0.4-0.8l5-4c0.4-0.3,0.9-0.3,1.2,0l5,4
	c0.2,0.2,0.4,0.5,0.4,0.8v9h18c0.6,0,1-0.4,1-1V39H7z"/>
<path id="color_2_" fill="#231F20" d="M40.1,10c-2-3.8-6.9-7.3-7.6-7.8c-0.3-0.2-0.8-0.2-1.1,0c-0.7,0.5-5.6,4-7.6,7.8H40.1z"/>
<path id="color_1_" fill="#231F20" d="M62.2,34c-0.3-0.1-5.6-1.2-8.4-7H10.2c-2.7,5.8-8.1,7-8.4,7C1.3,34.1,1,34.5,1,35v1
	c0,0.6,0.4,1,1,1h60c0.6,0,1-0.4,1-1v-1C63,34.5,62.7,34.1,62.2,34z"/>
</svg>
