<?xml version="1.0" encoding="utf-8"?>
<!-- Generator: Adobe Illustrator 19.1.0, SVG Export Plug-In . SVG Version: 6.00 Build 0)  -->
<!DOCTYPE svg PUBLIC "-//W3C//DTD SVG 1.1//EN" "http://www.w3.org/Graphics/SVG/1.1/DTD/svg11.dtd">
<svg version="1.1" id="Layer_49" xmlns="http://www.w3.org/2000/svg" xmlns:xlink="http://www.w3.org/1999/xlink" x="0px" y="0px"
	 width="64px" height="64px" viewBox="0 0 64 64" enable-background="new 0 0 64 64" xml:space="preserve">
<path fill="#231F20" d="M62,41c-0.6,0-1,0.4-1,1v5H50.3L45,17h7c0.6,0,1-0.4,1-1V2c0-0.6-0.4-1-1-1h-6c-0.6,0-1,0.4-1,1v4h-9V2
	c0-0.6-0.4-1-1-1h-6c-0.6,0-1,0.4-1,1v4h-9V2c0-0.6-0.4-1-1-1h-6c-0.6,0-1,0.4-1,1v14c0,0.6,0.4,1,1,1h7l-5.3,30H3v-5
	c0-0.6-0.4-1-1-1c-0.6,0-1,0.4-1,1v20c0,0.6,0.4,1,1,1h10h15V52c0-2.8,2.2-5,5-5c2.8,0,5,2.2,5,5v11h15h10c0.6,0,1-0.4,1-1V42
	C63,41.4,62.6,41,62,41z"/>
</svg>
