<?xml version="1.0" encoding="utf-8"?>
<!-- Generator: Adobe Illustrator 19.1.0, SVG Export Plug-In . SVG Version: 6.00 Build 0)  -->
<!DOCTYPE svg PUBLIC "-//W3C//DTD SVG 1.1//EN" "http://www.w3.org/Graphics/SVG/1.1/DTD/svg11.dtd">
<svg version="1.1" id="Layer_49" xmlns="http://www.w3.org/2000/svg" xmlns:xlink="http://www.w3.org/1999/xlink" x="0px" y="0px"
	 width="64px" height="64px" viewBox="0 0 64 64" enable-background="new 0 0 64 64" xml:space="preserve">
<path id="color_36_" fill="#231F20" d="M42,54H22c-2.8,0-5,2.2-5,5v3c0,0.6,0.4,1,1,1h28c0.6,0,1-0.4,1-1v-3C47,56.2,44.8,54,42,54z
	"/>
<path fill="#231F20" d="M53,9H39V2c0-0.6-0.4-1-1-1H26c-0.6,0-1,0.4-1,1v7H11c-0.6,0-1,0.4-1,1s0.4,1,1,1h3v25c0,5,4,9,9,9h1v7h16
	v-3h9c0.6,0,1-0.4,1-1s-0.4-1-1-1h-9v-2h1c5,0,9-4,9-9V11h3c0.6,0,1-0.4,1-1S53.6,9,53,9z M27,3h10v6H27V3z M31.4,23.6
	c0.3-0.4,1-0.4,1.3,0c0.5,0.6,5.4,6.1,5.4,9.1c0,3.3-2.7,6-6,6c-3.3,0-6-2.7-6-6C26,29.6,30.8,24.2,31.4,23.6z"/>
</svg>
