<?xml version="1.0" encoding="utf-8"?>
<!-- Generator: Adobe Illustrator 19.1.0, SVG Export Plug-In . SVG Version: 6.00 Build 0)  -->
<!DOCTYPE svg PUBLIC "-//W3C//DTD SVG 1.1//EN" "http://www.w3.org/Graphics/SVG/1.1/DTD/svg11.dtd">
<svg version="1.1" id="Layer_49" xmlns="http://www.w3.org/2000/svg" xmlns:xlink="http://www.w3.org/1999/xlink" x="0px" y="0px"
	 width="64px" height="64px" viewBox="0 0 64 64" enable-background="new 0 0 64 64" xml:space="preserve">
<path id="color_28_" fill="#231F20" d="M32,13c0.6,0,1-0.4,1-1V2c0-0.6-0.4-1-1-1c-0.6,0-1,0.4-1,1v10C31,12.6,31.4,13,32,13z"/>
<path id="color_27_" fill="#231F20" d="M22,17c0.6,0,1-0.4,1-1V8c0-0.6-0.4-1-1-1c-0.6,0-1,0.4-1,1v8C21,16.6,21.4,17,22,17z"/>
<path id="color_26_" fill="#231F20" d="M42,17c0.6,0,1-0.4,1-1V8c0-0.6-0.4-1-1-1c-0.6,0-1,0.4-1,1v8C41,16.6,41.4,17,42,17z"/>
<path id="color_25_" fill="#231F20" d="M4,24h56c0.6,0,1-0.4,1-1s-0.4-1-1-1H4c-0.6,0-1,0.4-1,1S3.4,24,4,24z"/>
<path fill="#231F20" d="M60,28H4c-0.6,0-1,0.4-1,1s0.4,1,1,1h3c0.4,10.4,7.2,19.2,16.6,22.6l-4.5,9c-0.2,0.5,0,1.1,0.4,1.3
	C19.7,63,19.8,63,20,63c0.4,0,0.7-0.2,0.9-0.6l1.7-3.4h18.8l1.7,3.4c0.2,0.4,0.5,0.6,0.9,0.6c0.2,0,0.3,0,0.4-0.1
	c0.5-0.2,0.7-0.8,0.4-1.3l-4.5-9C49.8,49.2,56.5,40.4,57,30h3c0.6,0,1-0.4,1-1S60.6,28,60,28z M26,34h12c0.6,0,1,0.4,1,1l0,0
	c0,0.6-0.4,1-1,1H26c-0.6,0-1-0.4-1-1l0,0C25,34.4,25.4,34,26,34z M23.6,57l1.9-3.8c2.1,0.5,4.2,0.8,6.4,0.8c2.2,0,4.4-0.3,6.4-0.8
	l1.9,3.8H23.6z"/>
</svg>
