<?xml version="1.0" encoding="utf-8"?>
<!-- Generator: Adobe Illustrator 19.1.0, SVG Export Plug-In . SVG Version: 6.00 Build 0)  -->
<!DOCTYPE svg PUBLIC "-//W3C//DTD SVG 1.1//EN" "http://www.w3.org/Graphics/SVG/1.1/DTD/svg11.dtd">
<svg version="1.1" id="Layer_49" xmlns="http://www.w3.org/2000/svg" xmlns:xlink="http://www.w3.org/1999/xlink" x="0px" y="0px"
	 width="64px" height="64px" viewBox="0 0 64 64" enable-background="new 0 0 64 64" xml:space="preserve">
<path fill="#231F20" d="M41,6c0-0.6-0.4-1-1-1H24c-0.6,0-1,0.4-1,1v9h-6v44h30V15h-6V6z M25,7h14v8H25V7z M39,38c0,0.6-0.4,1-1,1H26
	c-0.6,0-1-0.4-1-1v-7c0-0.6,0.4-1,1-1h12c0.6,0,1,0.4,1,1V38z"/>
<path id="color_51_" fill="#231F20" d="M62,15h-9v44h9c0.6,0,1-0.4,1-1V16C63,15.4,62.6,15,62,15z"/>
<path id="color_50_" fill="#231F20" d="M1,16v42c0,0.6,0.4,1,1,1h9V15H2C1.4,15,1,15.4,1,16z"/>
</svg>
