<?xml version="1.0" encoding="utf-8"?>
<!-- Generator: Adobe Illustrator 19.1.0, SVG Export Plug-In . SVG Version: 6.00 Build 0)  -->
<!DOCTYPE svg PUBLIC "-//W3C//DTD SVG 1.1//EN" "http://www.w3.org/Graphics/SVG/1.1/DTD/svg11.dtd">
<svg version="1.1" id="Layer_49" xmlns="http://www.w3.org/2000/svg" xmlns:xlink="http://www.w3.org/1999/xlink" x="0px" y="0px"
	 width="64px" height="64px" viewBox="0 0 64 64" enable-background="new 0 0 64 64" xml:space="preserve">
<path fill="#231F20" d="M49,13H37V2c0-0.6-0.4-1-1-1c-0.6,0-1,0.4-1,1v4h-6V2c0-0.6-0.4-1-1-1c-0.6,0-1,0.4-1,1v11H15
	c-0.6,0-1,0.4-1,1v48c0,0.6,0.4,1,1,1h12V53c0-0.6,0.4-1,1-1h8c0.6,0,1,0.4,1,1v10h12c0.6,0,1-0.4,1-1V14C50,13.4,49.6,13,49,13z
	 M28,46h-6v-2h6V46z M28,38h-6v-2h6V38z M28,30h-6v-2h6V30z M28,22h-6v-2h6V22z M35,13h-6V8h6V13z M42,46h-6v-2h6V46z M42,38h-6v-2
	h6V38z M42,30h-6v-2h6V30z M42,22h-6v-2h6V22z"/>
<path id="color_33_" fill="#231F20" d="M12,41.3L1.8,43C1.4,43.1,1,43.5,1,44v18c0,0.6,0.4,1,1,1h10.2c-0.1-0.3-0.2-0.6-0.2-1V41.3z
	"/>
<path id="color_32_" fill="#231F20" d="M62.2,43L52,41.3V62c0,0.4-0.1,0.7-0.2,1H62c0.6,0,1-0.4,1-1V44C63,43.5,62.6,43.1,62.2,43z"
	/>
</svg>
