<?xml version="1.0" encoding="utf-8"?>
<!-- Generator: Adobe Illustrator 19.1.0, SVG Export Plug-In . SVG Version: 6.00 Build 0)  -->
<!DOCTYPE svg PUBLIC "-//W3C//DTD SVG 1.1//EN" "http://www.w3.org/Graphics/SVG/1.1/DTD/svg11.dtd">
<svg version="1.1" id="Layer_49" xmlns="http://www.w3.org/2000/svg" xmlns:xlink="http://www.w3.org/1999/xlink" x="0px" y="0px"
	 width="64px" height="64px" viewBox="0 0 64 64" enable-background="new 0 0 64 64" xml:space="preserve">
<path fill="#231F20" d="M48,1c-5,0-9,4-9,9c0,0.3,0,0.7,0.1,1H21.2l-4.3-9.4C16.7,1.2,16.4,1,16,1H8C7.4,1,7,1.4,7,2s0.4,1,1,1h7.4
	l3.6,8h-9c-0.6,0-1,0.4-1,1v14c0,10.1,8,18.4,18,18.9V61h-9c-0.6,0-1,0.4-1,1s0.4,1,1,1h20c0.6,0,1-0.4,1-1s-0.4-1-1-1h-9V44.9
	c10-0.5,18-8.8,18-18.9v-7.1c0.3,0,0.7,0.1,1,0.1c5,0,9-4,9-9S53,1,48,1z M11,23V13h8.9l4.5,10H11z M45,23H26.6l-4.5-10h18
	c0,0,0,0,0,0H45V23z"/>
</svg>
