<?xml version="1.0" encoding="utf-8"?>
<!-- Generator: Adobe Illustrator 19.1.0, SVG Export Plug-In . SVG Version: 6.00 Build 0)  -->
<!DOCTYPE svg PUBLIC "-//W3C//DTD SVG 1.1//EN" "http://www.w3.org/Graphics/SVG/1.1/DTD/svg11.dtd">
<svg version="1.1" id="Layer_49" xmlns="http://www.w3.org/2000/svg" xmlns:xlink="http://www.w3.org/1999/xlink" x="0px" y="0px"
	 width="64px" height="64px" viewBox="0 0 64 64" enable-background="new 0 0 64 64" xml:space="preserve">
<path fill="#231F20" d="M32.8,3.4c-0.4-0.5-1.2-0.5-1.6,0C30.5,4.3,13,26.3,13,37.7c0,7.2,3.3,11.7,6,14.3c3.5,3.2,8.2,5,13,5
	c4.7,0,9.5-1.8,13-5c2.8-2.5,6-7,6-14.3C51,26.3,33.5,4.3,32.8,3.4z"/>
<path id="color_49_" fill="#231F20" d="M59.8,15.4c-0.1-0.5-0.7-0.8-1.2-0.7c-0.1,0-6.2,1.7-12.6,4.2c3.8,6.5,7.1,13.5,7.1,18.8
	c0,7.9-3.6,12.9-6.7,15.7c-1.1,1-2.3,1.9-3.6,2.6c1,0.2,2.1,0.3,3.1,0.3c5.7,0,11.5-2.4,15-8.5C66.1,38.8,60.1,16.3,59.8,15.4z"/>
<path id="color_48_" fill="#231F20" d="M17.7,53.4c-3-2.8-6.7-7.8-6.7-15.7c0-5.2,3.3-12.3,7.1-18.8c-6.4-2.6-12.6-4.2-12.6-4.3
	c-0.5-0.1-1.1,0.2-1.2,0.7c-0.3,1-6.3,23.4-1.1,32.4c3.5,6.1,9.4,8.5,15,8.5c1.1,0,2.1-0.1,3.1-0.3C20,55.3,18.8,54.4,17.7,53.4z"/>
</svg>
