<?xml version="1.0" encoding="utf-8"?>
<!-- Generator: Adobe Illustrator 19.1.0, SVG Export Plug-In . SVG Version: 6.00 Build 0)  -->
<!DOCTYPE svg PUBLIC "-//W3C//DTD SVG 1.1//EN" "http://www.w3.org/Graphics/SVG/1.1/DTD/svg11.dtd">
<svg version="1.1" id="Layer_49" xmlns="http://www.w3.org/2000/svg" xmlns:xlink="http://www.w3.org/1999/xlink" x="0px" y="0px"
	 width="64px" height="64px" viewBox="0 0 64 64" enable-background="new 0 0 64 64" xml:space="preserve">
<path id="color_65_" fill="#231F20" d="M62,54c-0.6,0-1,0.4-1,1v2c0,1.7-1.3,3-3,3H39V49c0-0.6-0.4-1-1-1H26c-0.6,0-1,0.4-1,1v11H2
	c-0.6,0-1,0.4-1,1s0.4,1,1,1h56c2.8,0,5-2.2,5-5v-2C63,54.4,62.6,54,62,54z"/>
<path fill="#231F20" d="M58,2H36c-0.6,0-1,0.4-1,1s0.4,1,1,1h22c1.7,0,3,1.3,3,3v9H2c-0.6,0-1,0.4-1,1v13.6c0,7,5.4,13,12.3,13.4
	C20.8,44.4,27,38.4,27,31l0,0c0-2.8,2.2-5,5-5h0.4c2.6,0,4.6,2.1,4.6,4.6v0c0,7,5.4,13,12.3,13.4C56.8,44.4,63,38.4,63,31V17V7
	C63,4.2,60.8,2,58,2z"/>
</svg>
