<?xml version="1.0" encoding="utf-8"?>
<!-- Generator: Adobe Illustrator 20.1.0, SVG Export Plug-In . SVG Version: 6.00 Build 0)  -->
<!DOCTYPE svg PUBLIC "-//W3C//DTD SVG 1.1//EN" "http://www.w3.org/Graphics/SVG/1.1/DTD/svg11.dtd">
<svg version="1.1" id="Layer_1" xmlns="http://www.w3.org/2000/svg" xmlns:xlink="http://www.w3.org/1999/xlink" x="0px" y="0px"
	 width="24px" height="24px" viewBox="0 0 24 24" enable-background="new 0 0 24 24" xml:space="preserve">
<path d="M4,20h3c0.552,0,1-0.448,1-1v-7c0-0.552-0.448-1-1-1H3c0-4.962,4.038-9,9-9s9,4.038,9,9h-4c-0.552,0-1,0.448-1,1v7
	c0,0.552,0.448,1,1,1h3c0.352,0,0.686-0.072,1-0.184C21,21.261,20.004,22,19,22h-5c-0.552,0-1,0.448-1,1s0.448,1,1,1h5
	c2.206,0,4-1.794,4-4v-9c0-6.065-4.935-11-11-11S1,4.935,1,11v6C1,18.654,2.346,20,4,20z"/>
</svg>
