<?xml version="1.0" encoding="utf-8"?>
<!-- Generator: Adobe Illustrator 20.1.0, SVG Export Plug-In . SVG Version: 6.00 Build 0)  -->
<!DOCTYPE svg PUBLIC "-//W3C//DTD SVG 1.1//EN" "http://www.w3.org/Graphics/SVG/1.1/DTD/svg11.dtd">
<svg version="1.1" id="Layer_1" xmlns="http://www.w3.org/2000/svg" xmlns:xlink="http://www.w3.org/1999/xlink" x="0px" y="0px"
	 width="24px" height="24px" viewBox="0 0 24 24" enable-background="new 0 0 24 24" xml:space="preserve">
<path d="M20,7V6c0-3.309-2.691-6-6-6h-1v2h1c2.206,0,4,1.794,4,4v1H20z"/>
<path d="M4,17v1c0,3.309,2.691,6,6,6h1v-2h-1c-2.206,0-4-1.794-4-4v-1H4z"/>
<path d="M2,15h7c1.105,0,2-0.895,2-2V2c0-1.105-0.895-2-2-2H2C0.895,0,0,0.895,0,2v11C0,14.105,0.895,15,2,15z M2,3h7v9H2V3z"/>
<path d="M22,9h-7c-1.105,0-2,0.895-2,2v11c0,1.105,0.895,2,2,2h7c1.105,0,2-0.895,2-2V11C24,9.895,23.105,9,22,9z M22,21h-7v-9h7V21
	z"/>
</svg>
