<?xml version="1.0" encoding="utf-8"?>
<!-- Generator: Adobe Illustrator 20.1.0, SVG Export Plug-In . SVG Version: 6.00 Build 0)  -->
<!DOCTYPE svg PUBLIC "-//W3C//DTD SVG 1.1//EN" "http://www.w3.org/Graphics/SVG/1.1/DTD/svg11.dtd">
<svg version="1.1" id="Layer_1" xmlns="http://www.w3.org/2000/svg" xmlns:xlink="http://www.w3.org/1999/xlink" x="0px" y="0px"
	 width="24px" height="24px" viewBox="0 0 24 24" enable-background="new 0 0 24 24" xml:space="preserve">
<path d="M20.498,14.016c-0.546,0.055-1.06,0.246-1.498,0.549c-0.438-0.303-0.951-0.494-1.498-0.549
	c-0.953-0.092-1.888,0.234-2.566,0.904C14.333,15.516,14,16.31,14,17.155s0.333,1.639,0.936,2.235L19,23.405l4.064-4.015
	C23.667,18.794,24,18,24,17.155s-0.333-1.639-0.937-2.235C22.385,14.25,21.452,13.922,20.498,14.016z"/>
<path d="M20,12V3c0-1.654-1.346-3-3-3H5C3.346,0,2,1.346,2,3v18c0,1.654,1.346,3,3,3h11.756l-3.037-3H5c-0.552,0-1-0.448-1-1V4
	c0-0.552,0.448-1,1-1h12c0.552,0,1,0.448,1,1v8H20z"/>
</svg>
