<?xml version="1.0" encoding="utf-8"?>
<!-- Generator: Adobe Illustrator 20.1.0, SVG Export Plug-In . SVG Version: 6.00 Build 0)  -->
<!DOCTYPE svg PUBLIC "-//W3C//DTD SVG 1.1//EN" "http://www.w3.org/Graphics/SVG/1.1/DTD/svg11.dtd">
<svg version="1.1" id="Layer_1" xmlns="http://www.w3.org/2000/svg" xmlns:xlink="http://www.w3.org/1999/xlink" x="0px" y="0px"
	 width="24px" height="24px" viewBox="0 0 24 24" enable-background="new 0 0 24 24" xml:space="preserve">
<polygon points="20,24 20,21 23,21 23,19 20,19 20,16 18,16 18,19 15,19 15,21 18,21 18,24 "/>
<path d="M17,0H5C3.346,0,2,1.346,2,3v18c0,1.654,1.346,3,3,3h8v-3H5c-0.552,0-1-0.448-1-1V4c0-0.552,0.448-1,1-1h12
	c0.552,0,1,0.448,1,1v10h2V3C20,1.346,18.654,0,17,0z"/>
</svg>
