<?xml version="1.0" encoding="utf-8"?>
<!-- Generator: Adobe Illustrator 20.1.0, SVG Export Plug-In . SVG Version: 6.00 Build 0)  -->
<!DOCTYPE svg PUBLIC "-//W3C//DTD SVG 1.1//EN" "http://www.w3.org/Graphics/SVG/1.1/DTD/svg11.dtd">
<svg version="1.1" id="Layer_1" xmlns="http://www.w3.org/2000/svg" xmlns:xlink="http://www.w3.org/1999/xlink" x="0px" y="0px"
	 width="24px" height="24px" viewBox="0 0 24 24" enable-background="new 0 0 24 24" xml:space="preserve">
<path d="M21.754,14.714C20.814,13.644,19.451,13,18,13c-2.282,0-4.273,1.542-4.843,3.75l1.938,0.499C15.436,15.925,16.63,15,18,15
	c0.808,0,1.573,0.331,2.131,0.893l-1.608,1.168L22.792,18l0.428-4.351L21.754,14.714z"/>
<path d="M20.905,19.751C20.564,21.075,19.37,22,18,22c-0.808,0-1.573-0.331-2.131-0.893l1.608-1.168L13.208,19l-0.428,4.351
	l1.466-1.065C15.186,23.356,16.549,24,18,24c2.282,0,4.273-1.542,4.843-3.75L20.905,19.751z"/>
<path d="M3,24h8v-3H3c-0.552,0-1-0.448-1-1V4c0-0.552,0.448-1,1-1h12c0.552,0,1,0.448,1,1v7.294C16.634,11.105,17.305,11,18,11V3
	c0-1.654-1.346-3-3-3H3C1.346,0,0,1.346,0,3v18C0,22.654,1.346,24,3,24z"/>
</svg>
