<?xml version="1.0" encoding="utf-8"?>
<!-- Generator: Adobe Illustrator 20.1.0, SVG Export Plug-In . SVG Version: 6.00 Build 0)  -->
<!DOCTYPE svg PUBLIC "-//W3C//DTD SVG 1.1//EN" "http://www.w3.org/Graphics/SVG/1.1/DTD/svg11.dtd">
<svg version="1.1" id="Layer_1" xmlns="http://www.w3.org/2000/svg" xmlns:xlink="http://www.w3.org/1999/xlink" x="0px" y="0px"
	 width="24px" height="24px" viewBox="0 0 24 24" enable-background="new 0 0 24 24" xml:space="preserve">
<path d="M9.198,19.044C9.624,20.183,10.714,21,12,21c1.654,0,3-1.346,3-3c0-1.286-0.817-2.376-1.956-2.802L9.198,19.044z"/>
<path d="M15.99,12.252c0.339,0.236,0.662,0.5,0.96,0.798l0.707,0.707l1.414-1.414l-0.707-0.707
	c-0.297-0.297-0.617-0.562-0.946-0.812L15.99,12.252z"/>
<path d="M2.808,8.808C5.263,6.352,8.527,5,12,5c1.633,0,3.211,0.322,4.688,0.898L13.46,9.126C12.981,9.048,12.495,9,12,9
	c-2.403,0-4.664,0.936-6.364,2.636l-0.707,0.707l1.414,1.414L7.05,13.05c1.219-1.219,2.81-1.925,4.515-2.029L2.586,20L4,21.414
	L23.414,2L22,0.586l-3.77,3.77C16.299,3.472,14.187,3,12,3C7.993,3,4.227,4.561,1.394,7.394L0.687,8.101l1.414,1.414L2.808,8.808z"
	/>
<path d="M20.271,7.971c0.318,0.263,0.626,0.541,0.922,0.836l0.707,0.707l1.414-1.414l-0.707-0.707
	C22.311,7.098,22,6.825,21.685,6.557L20.271,7.971z"/>
</svg>
