<?xml version="1.0" encoding="utf-8"?>
<!-- Generator: Adobe Illustrator 20.1.0, SVG Export Plug-In . SVG Version: 6.00 Build 0)  -->
<!DOCTYPE svg PUBLIC "-//W3C//DTD SVG 1.1//EN" "http://www.w3.org/Graphics/SVG/1.1/DTD/svg11.dtd">
<svg version="1.1" id="Layer_1" xmlns="http://www.w3.org/2000/svg" xmlns:xlink="http://www.w3.org/1999/xlink" x="0px" y="0px"
	 width="24px" height="24px" viewBox="0 0 24 24" enable-background="new 0 0 24 24" xml:space="preserve">
<circle cx="12" cy="5" r="1"/>
<path d="M21,0H3C1.346,0,0,1.346,0,3v14c0,1.654,1.346,3,3,3h7v2H6c-0.552,0-1,0.448-1,1s0.448,1,1,1h12c0.552,0,1-0.448,1-1
	s-0.448-1-1-1h-4v-2h7c1.654,0,3-1.346,3-3V3C24,1.346,22.654,0,21,0z M22,15H2V3c0-0.552,0.448-1,1-1h18c0.552,0,1,0.448,1,1V15z"
	/>
</svg>
