<?xml version="1.0" encoding="utf-8"?>
<!-- Generator: Adobe Illustrator 20.1.0, SVG Export Plug-In . SVG Version: 6.00 Build 0)  -->
<!DOCTYPE svg PUBLIC "-//W3C//DTD SVG 1.1//EN" "http://www.w3.org/Graphics/SVG/1.1/DTD/svg11.dtd">
<svg version="1.1" id="Layer_1" xmlns="http://www.w3.org/2000/svg" xmlns:xlink="http://www.w3.org/1999/xlink" x="0px" y="0px"
	 width="24px" height="24px" viewBox="0 0 24 24" enable-background="new 0 0 24 24" xml:space="preserve">
<path d="M23,5H1C0.448,5,0,5.448,0,6v12c0,0.552,0.448,1,1,1h22c0.552,0,1-0.448,1-1V6C24,5.448,23.552,5,23,5z M8,9h3v2H8V9z M6,15
	H3v-2h3V15z M6,11H3V9h3V11z M16,15H8v-2h8V15z M16,11h-3V9h3V11z M21,15h-3v-2h3V15z M21,11h-3V9h3V11z"/>
</svg>
