<?xml version="1.0" encoding="utf-8"?>
<!-- Generator: Adobe Illustrator 20.1.0, SVG Export Plug-In . SVG Version: 6.00 Build 0)  -->
<!DOCTYPE svg PUBLIC "-//W3C//DTD SVG 1.1//EN" "http://www.w3.org/Graphics/SVG/1.1/DTD/svg11.dtd">
<svg version="1.1" id="Layer_1" xmlns="http://www.w3.org/2000/svg" xmlns:xlink="http://www.w3.org/1999/xlink" x="0px" y="0px"
	 width="24px" height="24px" viewBox="0 0 24 24" enable-background="new 0 0 24 24" xml:space="preserve">
<path d="M14,11c-1.654,0-3,1.346-3,3v2h-1c-0.552,0-1,0.448-1,1v5c0,0.552,0.448,1,1,1h8c0.552,0,1-0.448,1-1v-5
	c0-0.552-0.448-1-1-1h-1v-2C17,12.346,15.654,11,14,11z M15,16h-2v-2c0-0.551,0.449-1,1-1s1,0.449,1,1V16z"/>
<path d="M21,2H3C1.346,2,0,3.346,0,5v12c0,1.654,1.346,3,3,3h4v-2H4c-0.552,0-1-0.448-1-1V5c0-0.552,0.448-1,1-1h16
	c0.552,0,1,0.448,1,1v15c1.654,0,3-1.346,3-3V5C24,3.346,22.654,2,21,2z"/>
</svg>
