<?xml version="1.0" encoding="utf-8"?>
<!-- Generator: Adobe Illustrator 20.1.0, SVG Export Plug-In . SVG Version: 6.00 Build 0)  -->
<!DOCTYPE svg PUBLIC "-//W3C//DTD SVG 1.1//EN" "http://www.w3.org/Graphics/SVG/1.1/DTD/svg11.dtd">
<svg version="1.1" id="Layer_1" xmlns="http://www.w3.org/2000/svg" xmlns:xlink="http://www.w3.org/1999/xlink" x="0px" y="0px"
	 width="24px" height="24px" viewBox="0 0 24 24" enable-background="new 0 0 24 24" xml:space="preserve">
<path d="M17,0H5C3.346,0,2,1.346,2,3v18c0,1.654,1.346,3,3,3h12c0.122,0,0.237-0.022,0.355-0.036
	c-1.943-0.209-3.606-1.35-4.544-2.964H5c-0.552,0-1-0.448-1-1V4c0-0.552,0.448-1,1-1h12c0.552,0,1,0.448,1,1v8
	c0.702,0,1.373,0.128,2,0.35V3C20,1.346,18.654,0,17,0z"/>
<path d="M18,14c-2.206,0-4,1.794-4,4s1.794,4,4,4c0.74,0,1.424-0.215,2.019-0.567l2.274,2.274l1.414-1.414l-2.274-2.274
	C21.785,19.424,22,18.74,22,18C22,15.794,20.206,14,18,14z M18,20c-1.103,0-2-0.897-2-2s0.897-2,2-2s2,0.897,2,2S19.103,20,18,20z"
	/>
</svg>
