<?xml version="1.0" encoding="utf-8"?>
<!-- Generator: Adobe Illustrator 20.1.0, SVG Export Plug-In . SVG Version: 6.00 Build 0)  -->
<!DOCTYPE svg PUBLIC "-//W3C//DTD SVG 1.1//EN" "http://www.w3.org/Graphics/SVG/1.1/DTD/svg11.dtd">
<svg version="1.1" id="Layer_1" xmlns="http://www.w3.org/2000/svg" xmlns:xlink="http://www.w3.org/1999/xlink" x="0px" y="0px"
	 width="24px" height="24px" viewBox="0 0 24 24" enable-background="new 0 0 24 24" xml:space="preserve">
<path d="M22,11V4c0-1.103-0.897-2-2-2H4C2.897,2,2,2.897,2,4v11h2V4h16v7H22z"/>
<path d="M0,18c0,2.206,1.794,4,4,4h7v-5H0V18z"/>
<path d="M18,13c-2.282,0-4.273,1.542-4.843,3.751l1.938,0.498C15.436,15.925,16.63,15,18,15c0.808,0,1.574,0.331,2.131,0.893
	l-1.609,1.168L22.792,18l0.428-4.351l-1.466,1.065C20.814,13.644,19.45,13,18,13z"/>
<path d="M18,22c-0.808,0-1.574-0.331-2.131-0.893l1.609-1.168L13.208,19l-0.428,4.351l1.466-1.065C15.186,23.356,16.55,24,18,24
	c2.282,0,4.273-1.542,4.843-3.751l-1.938-0.498C20.564,21.075,19.37,22,18,22z"/>
</svg>
