<?xml version="1.0" encoding="utf-8"?>
<!-- Generator: Adobe Illustrator 20.1.0, SVG Export Plug-In . SVG Version: 6.00 Build 0)  -->
<!DOCTYPE svg PUBLIC "-//W3C//DTD SVG 1.1//EN" "http://www.w3.org/Graphics/SVG/1.1/DTD/svg11.dtd">
<svg version="1.1" id="Layer_1" xmlns="http://www.w3.org/2000/svg" xmlns:xlink="http://www.w3.org/1999/xlink" x="0px" y="0px"
	 width="24px" height="24px" viewBox="0 0 24 24" enable-background="new 0 0 24 24" xml:space="preserve">
<path d="M17,0h-1v2h1c2.757,0,5,2.243,5,5v1h2V7C24,3.14,20.859,0,17,0z"/>
<path d="M7,24h1v-2H7c-2.757,0-5-2.243-5-5v-1H0v1C0,20.86,3.141,24,7,24z"/>
<path d="M12,22.728c1.17,1.17,3.073,1.17,4.243,0l6.485-6.485c1.17-1.17,1.17-3.073,0-4.243L12,1.272c-1.17-1.17-3.073-1.17-4.243,0
	L1.272,7.757c-1.17,1.17-1.17,3.073,0,4.243L12,22.728z M3.393,9.879l6.485-6.485c0.391-0.391,1.024-0.391,1.414,0l9.314,9.314
	c0.391,0.391,0.391,1.024,0,1.414l-6.485,6.485c-0.391,0.391-1.024,0.391-1.414,0l-9.314-9.314
	C3.003,10.902,3.003,10.269,3.393,9.879z"/>
</svg>
