<?xml version="1.0" encoding="utf-8"?>
<!-- Generator: Adobe Illustrator 20.1.0, SVG Export Plug-In . SVG Version: 6.00 Build 0)  -->
<!DOCTYPE svg PUBLIC "-//W3C//DTD SVG 1.1//EN" "http://www.w3.org/Graphics/SVG/1.1/DTD/svg11.dtd">
<svg version="1.1" id="Layer_1" xmlns="http://www.w3.org/2000/svg" xmlns:xlink="http://www.w3.org/1999/xlink" x="0px" y="0px"
	 width="24px" height="24px" viewBox="0 0 24 24" enable-background="new 0 0 24 24" xml:space="preserve">
<path d="M23,14H1c-0.553,0-1,0.448-1,1v8c0,0.552,0.447,1,1,1h22c0.553,0,1-0.448,1-1v-8C24,14.448,23.553,14,23,14z M19,20H5v-2h14
	V20z"/>
<path d="M2,10c0,0.679,0.092,1.345,0.226,2h7.552C9.3,11.468,9,10.772,9,10c0-1.657,1.343-3,3-3s3,1.343,3,3
	c0,0.772-0.3,1.468-0.779,2h7.552C21.908,11.345,22,10.679,22,10c0-5.514-4.486-10-10-10S2,4.486,2,10z"/>
</svg>
