<?xml version="1.0" encoding="utf-8"?>
<!-- Generator: Adobe Illustrator 20.1.0, SVG Export Plug-In . SVG Version: 6.00 Build 0)  -->
<!DOCTYPE svg PUBLIC "-//W3C//DTD SVG 1.1//EN" "http://www.w3.org/Graphics/SVG/1.1/DTD/svg11.dtd">
<svg version="1.1" id="Layer_1" xmlns="http://www.w3.org/2000/svg" xmlns:xlink="http://www.w3.org/1999/xlink" x="0px" y="0px"
	 width="24px" height="24px" viewBox="0 0 24 24" enable-background="new 0 0 24 24" xml:space="preserve">
<path d="M23,5h-2v2h-2V5h-2v2h-1v4c0,1.858,1.279,3.411,3,3.858V22H7c-0.553,0-1,0.448-1,1s0.447,1,1,1h13c0.553,0,1-0.448,1-1
	v-8.142c1.721-0.447,3-2,3-3.858V7h-1V5z"/>
<path d="M3,20h8c1.654,0,3-1.346,3-3V3c0-1.654-1.346-3-3-3H3C1.346,0,0,1.346,0,3v14C0,18.654,1.346,20,3,20z M2,4
	c0-0.552,0.448-1,1-1h8c0.552,0,1,0.448,1,1v12c0,0.552-0.448,1-1,1H3c-0.552,0-1-0.448-1-1V4z"/>
</svg>
