<?xml version="1.0" encoding="utf-8"?>
<!-- Generator: Adobe Illustrator 20.1.0, SVG Export Plug-In . SVG Version: 6.00 Build 0)  -->
<!DOCTYPE svg PUBLIC "-//W3C//DTD SVG 1.1//EN" "http://www.w3.org/Graphics/SVG/1.1/DTD/svg11.dtd">
<svg version="1.1" id="Layer_1" xmlns="http://www.w3.org/2000/svg" xmlns:xlink="http://www.w3.org/1999/xlink" x="0px" y="0px"
	 width="24px" height="24px" viewBox="0 0 24 24" enable-background="new 0 0 24 24" xml:space="preserve">
<path d="M22,18c0-2.206-1.794-4-4-4s-4,1.794-4,4s1.794,4,4,4c0.74,0,1.424-0.215,2.019-0.567l2.274,2.274l1.414-1.414l-2.274-2.274
	C21.785,19.424,22,18.74,22,18z M18,20c-1.103,0-2-0.897-2-2s0.897-2,2-2s2,0.897,2,2S19.103,20,18,20z"/>
<path d="M22,13V4c0-1.103-0.897-2-2-2H4C2.897,2,2,2.897,2,4v11h2V4h16v9H22z"/>
<path d="M12.09,17H0v1c0,2.206,1.794,4,4,4h9.54C12.586,20.937,12,19.538,12,18C12,17.659,12.035,17.326,12.09,17z"/>
</svg>
