<?xml version="1.0" encoding="utf-8"?>
<!-- Generator: Adobe Illustrator 20.1.0, SVG Export Plug-In . SVG Version: 6.00 Build 0)  -->
<!DOCTYPE svg PUBLIC "-//W3C//DTD SVG 1.1//EN" "http://www.w3.org/Graphics/SVG/1.1/DTD/svg11.dtd">
<svg version="1.1" id="Layer_1" xmlns="http://www.w3.org/2000/svg" xmlns:xlink="http://www.w3.org/1999/xlink" x="0px" y="0px"
	 width="24px" height="24px" viewBox="0 0 24 24" enable-background="new 0 0 24 24" xml:space="preserve">
<path d="M20,3h-2.769C16.14,1.083,14.047,0,12,0S7.86,1.083,6.769,3H4C1.794,3,0,4.794,0,7v13c0,2.206,1.794,4,4,4h16
	c2.206,0,4-1.794,4-4V7C24,4.794,22.206,3,20,3z M12,2c1.966,0,4,1.496,4,4c0,1.706-2.225,4.718-4,6.671C10.224,10.719,8,7.709,8,6
	C8,3.496,10.034,2,12,2z M3,18.149V8c0-0.552,0.448-1,1-1h2.131c0.326,1.446,1.26,3.037,2.259,4.411L3,18.149z M13,20v-3h-2v3H4.081
	l5.578-6.972c0.791,0.94,1.45,1.619,1.631,1.802L12,15.545l0.71-0.715c0.182-0.183,0.841-0.862,1.631-1.802L19.919,20H13z
	 M21,18.149l-5.39-6.738c0.999-1.375,1.934-2.965,2.259-4.411H20c0.552,0,1,0.448,1,1V18.149z"/>
<circle cx="12" cy="6" r="1"/>
</svg>
