<?xml version="1.0" encoding="utf-8"?>
<!-- Generator: Adobe Illustrator 20.1.0, SVG Export Plug-In . SVG Version: 6.00 Build 0)  -->
<!DOCTYPE svg PUBLIC "-//W3C//DTD SVG 1.1//EN" "http://www.w3.org/Graphics/SVG/1.1/DTD/svg11.dtd">
<svg version="1.1" id="Layer_1" xmlns="http://www.w3.org/2000/svg" xmlns:xlink="http://www.w3.org/1999/xlink" x="0px" y="0px"
	 width="24px" height="24px" viewBox="0 0 24 24" enable-background="new 0 0 24 24" xml:space="preserve">
<path d="M12,2c-0.552,0-1,0.448-1,1v4h2V3C13,2.448,12.552,2,12,2z"/>
<path d="M21.501,10.409C21.107,8.434,19.358,7,17.343,7c-1.133,0-2.198,0.441-2.999,1.242L13.586,9h-3.172L9.656,8.242
	C8.855,7.44,7.79,7,6.657,7c-2.015,0-3.764,1.434-4.159,3.409l-1.966,9.828c-0.164,0.82,0.188,1.639,0.895,2.084
	c0.714,0.449,1.603,0.405,2.266-0.093l2.35-1.762C6.625,20.796,7.286,21,8,21c1.627,0,3.024-0.98,3.649-2.377l0.703,0
	C12.976,20.02,14.373,21,16,21c0.715,0,1.378-0.204,1.96-0.534l2.346,1.763c0.669,0.502,1.558,0.538,2.266,0.093
	c0.708-0.446,1.059-1.264,0.895-2.085L21.501,10.409z M8,19c-1.105,0-2-0.895-2-2c0-1.105,0.895-2,2-2s2,0.895,2,2
	C10,18.105,9.105,19,8,19z M16,19c-1.105,0-2-0.895-2-2c0-1.105,0.895-2,2-2s2,0.895,2,2C18,18.105,17.105,19,16,19z"/>
</svg>
