<?xml version="1.0" encoding="utf-8"?>
<!-- Generator: Adobe Illustrator 20.1.0, SVG Export Plug-In . SVG Version: 6.00 Build 0)  -->
<!DOCTYPE svg PUBLIC "-//W3C//DTD SVG 1.1//EN" "http://www.w3.org/Graphics/SVG/1.1/DTD/svg11.dtd">
<svg version="1.1" id="Layer_1" xmlns="http://www.w3.org/2000/svg" xmlns:xlink="http://www.w3.org/1999/xlink" x="0px" y="0px"
	 width="24px" height="24px" viewBox="0 0 24 24" enable-background="new 0 0 24 24" xml:space="preserve">
<path d="M6.015,23.172C6.099,23.651,6.514,24,7,24h10c0.486,0,0.901-0.349,0.985-0.828l0.954-5.448C20.226,16.168,21,14.173,21,12
	s-0.774-4.168-2.061-5.725l-0.954-5.448C17.901,0.349,17.486,0,17,0H7C6.514,0,6.099,0.349,6.015,0.828L5.061,6.275
	C3.774,7.832,3,9.827,3,12s0.774,4.168,2.061,5.725L6.015,23.172z M12,5c3.86,0,7,3.14,7,7s-3.14,7-7,7s-7-3.14-7-7S8.14,5,12,5z"/>
<polygon points="16,11 13,11 13,8 11,8 11,13 16,13 "/>
</svg>
