<?xml version="1.0" encoding="utf-8"?>
<!-- Generator: Adobe Illustrator 20.1.0, SVG Export Plug-In . SVG Version: 6.00 Build 0)  -->
<!DOCTYPE svg PUBLIC "-//W3C//DTD SVG 1.1//EN" "http://www.w3.org/Graphics/SVG/1.1/DTD/svg11.dtd">
<svg version="1.1" id="Layer_1" xmlns="http://www.w3.org/2000/svg" xmlns:xlink="http://www.w3.org/1999/xlink" x="0px" y="0px"
	 width="24px" height="24px" viewBox="0 0 24 24" enable-background="new 0 0 24 24" xml:space="preserve">
<path d="M4,24h16c0.553,0,1-0.448,1-1V1c0-0.552-0.447-1-1-1H4C3.447,0,3,0.448,3,1v22C3,23.552,3.447,24,4,24z M9,5h6v2H9V5z M9,9
	h6v2H9V9z M12,13c1.654,0,3,1.346,3,3s-1.346,3-3,3s-3-1.346-3-3S10.346,13,12,13z"/>
</svg>
