<?xml version="1.0" encoding="utf-8"?>
<!-- Generator: Adobe Illustrator 20.1.0, SVG Export Plug-In . SVG Version: 6.00 Build 0)  -->
<!DOCTYPE svg PUBLIC "-//W3C//DTD SVG 1.1//EN" "http://www.w3.org/Graphics/SVG/1.1/DTD/svg11.dtd">
<svg version="1.1" id="Layer_1" xmlns="http://www.w3.org/2000/svg" xmlns:xlink="http://www.w3.org/1999/xlink" x="0px" y="0px"
	 width="24px" height="24px" viewBox="0 0 24 24" enable-background="new 0 0 24 24" xml:space="preserve">
<path d="M22,18c1.103,0,2-0.897,2-2s-0.897-2-2-2s-2,0.897-2,2c0,0.011,0.003,0.021,0.003,0.032l-2.042,1.225
	C17.674,17.098,17.35,17,17,17c-1.103,0-2,0.897-2,2s0.897,2,2,2c0.35,0,0.674-0.098,0.961-0.257l2.042,1.225
	C20.003,21.979,20,21.989,20,22c0,1.103,0.897,2,2,2s2-0.897,2-2s-0.897-2-2-2c-0.35,0-0.674,0.098-0.961,0.257l-2.042-1.225
	C18.997,19.021,19,19.011,19,19s-0.003-0.021-0.003-0.032l2.042-1.225C21.326,17.902,21.65,18,22,18z"/>
<path d="M20,12V3c0-1.654-1.346-3-3-3H5C3.346,0,2,1.346,2,3v18c0,1.654,1.346,3,3,3h10.106c-0.837-0.82-1.469-1.847-1.812-3H5
	c-0.552,0-1-0.448-1-1V4c0-0.552,0.448-1,1-1h12c0.552,0,1,0.448,1,1v8.294C18.634,12.105,19.305,12,20,12z"/>
</svg>
