<?xml version="1.0" encoding="utf-8"?>
<!-- Generator: Adobe Illustrator 20.1.0, SVG Export Plug-In . SVG Version: 6.00 Build 0)  -->
<!DOCTYPE svg PUBLIC "-//W3C//DTD SVG 1.1//EN" "http://www.w3.org/Graphics/SVG/1.1/DTD/svg11.dtd">
<svg version="1.1" id="Layer_1" xmlns="http://www.w3.org/2000/svg" xmlns:xlink="http://www.w3.org/1999/xlink" x="0px" y="0px"
	 width="24px" height="24px" viewBox="0 0 24 24" enable-background="new 0 0 24 24" xml:space="preserve">
<path d="M1.253,5.916c-0.542,0.101-0.9,0.623-0.8,1.166l1.465,7.865c0.09,0.481,0.51,0.817,0.982,0.817
	c0.061,0,0.122-0.005,0.185-0.017c0.542-0.101,0.9-0.623,0.8-1.166L2.42,6.715C2.318,6.172,1.801,5.81,1.253,5.916z"/>
<path d="M6.451,15.838c0.167,0.115,0.365,0.175,0.565,0.175c0.061,0,0.122-0.005,0.183-0.017l15.729-2.929
	c0.543-0.101,0.901-0.623,0.801-1.166l-1.83-9.831C21.851,1.81,21.7,1.58,21.481,1.429c-0.217-0.149-0.486-0.207-0.748-0.158
	L5.004,4.2C4.461,4.301,4.103,4.823,4.203,5.366l1.83,9.831C6.082,15.458,6.232,15.688,6.451,15.838z M9.817,7.017
	c0.543-0.101,1.065,0.257,1.166,0.8c0.101,0.543-0.257,1.065-0.8,1.166c-0.543,0.101-1.065-0.257-1.166-0.8
	C8.916,7.64,9.274,7.118,9.817,7.017z"/>
<path d="M23,21h-4v-5h-2v5h-4c-0.553,0-1,0.448-1,1s0.447,1,1,1h10c0.553,0,1-0.448,1-1S23.553,21,23,21z"/>
</svg>
