<?xml version="1.0" encoding="utf-8"?>
<!-- Generator: Adobe Illustrator 20.1.0, SVG Export Plug-In . SVG Version: 6.00 Build 0)  -->
<!DOCTYPE svg PUBLIC "-//W3C//DTD SVG 1.1//EN" "http://www.w3.org/Graphics/SVG/1.1/DTD/svg11.dtd">
<svg version="1.1" id="Layer_1" xmlns="http://www.w3.org/2000/svg" xmlns:xlink="http://www.w3.org/1999/xlink" x="0px" y="0px"
	 width="24px" height="24px" viewBox="0 0 24 24" enable-background="new 0 0 24 24" xml:space="preserve">
<path d="M17.657,10.757l1.414-1.414l-0.707-0.707C16.664,6.936,14.403,6,12,6S7.336,6.936,5.636,8.636L4.929,9.343l1.414,1.414
	L7.05,10.05C8.372,8.728,10.131,8,12,8s3.628,0.728,4.95,2.05L17.657,10.757z"/>
<path d="M2.808,5.808C5.263,3.352,8.527,2,12,2s6.737,1.352,9.192,3.808l0.707,0.707l1.414-1.414l-0.707-0.707
	C19.773,1.561,16.007,0,12,0S4.227,1.561,1.394,4.394L0.687,5.101l1.414,1.414L2.808,5.808z"/>
<path d="M23,17h-1v-2c0-1.654-1.346-3-3-3s-3,1.346-3,3v2h-1c-0.553,0-1,0.448-1,1v5c0,0.552,0.447,1,1,1h8c0.553,0,1-0.448,1-1v-5
	C24,17.448,23.553,17,23,17z M20,17h-2v-2c0-0.551,0.448-1,1-1s1,0.449,1,1V17z"/>
<path d="M14,15c0-0.648,0.133-1.263,0.359-1.832C13.809,12.463,12.961,12,12,12c-1.654,0-3,1.346-3,3s1.346,3,3,3
	c0-1.304,0.836-2.416,2-2.829V15z"/>
</svg>
