<?xml version="1.0" encoding="utf-8"?>
<!-- Generator: Adobe Illustrator 20.1.0, SVG Export Plug-In . SVG Version: 6.00 Build 0)  -->
<!DOCTYPE svg PUBLIC "-//W3C//DTD SVG 1.1//EN" "http://www.w3.org/Graphics/SVG/1.1/DTD/svg11.dtd">
<svg version="1.1" id="Layer_1" xmlns="http://www.w3.org/2000/svg" xmlns:xlink="http://www.w3.org/1999/xlink" x="0px" y="0px"
	 width="24px" height="24px" viewBox="0 0 24 24" enable-background="new 0 0 24 24" xml:space="preserve">
<path d="M2,21c0,1.654,1.346,3,3,3h11.758l-3-3H5c-0.552,0-1-0.448-1-1V4c0-0.552,0.448-1,1-1h12c0.552,0,1,0.448,1,1v7h2V3
	c0-1.654-1.346-3-3-3H5C3.346,0,2,1.346,2,3V21z"/>
<polygon points="22,17.586 20,19.586 20,13 18,13 18,19.586 16,17.586 14.586,19 19,23.414 23.414,19 "/>
</svg>
