<?xml version="1.0" encoding="utf-8"?>
<!-- Generator: Adobe Illustrator 20.1.0, SVG Export Plug-In . SVG Version: 6.00 Build 0)  -->
<!DOCTYPE svg PUBLIC "-//W3C//DTD SVG 1.1//EN" "http://www.w3.org/Graphics/SVG/1.1/DTD/svg11.dtd">
<svg version="1.1" id="Layer_1" xmlns="http://www.w3.org/2000/svg" xmlns:xlink="http://www.w3.org/1999/xlink" x="0px" y="0px"
	 width="24px" height="24px" viewBox="0 0 24 24" enable-background="new 0 0 24 24" xml:space="preserve">
<path d="M1,3v18c0,1.654,1.346,3,3,3h8.726c-0.927-0.816-1.665-1.838-2.137-3H4c-0.552,0-1-0.448-1-1V4c0-0.552,0.448-1,1-1h12
	c0.552,0,1,0.448,1,1v6.069C17.328,10.028,17.661,10,18,10s0.672,0.028,1,0.069V3c0-1.654-1.346-3-3-3H4C2.346,0,1,1.346,1,3z"/>
<path d="M18,12c-3.314,0-6,2.686-6,6c0,3.314,2.686,6,6,6s6-2.686,6-6C24,14.686,21.314,12,18,12z M22,19h-5v-5h2v3h3V19z"/>
</svg>
