<?xml version="1.0" encoding="utf-8"?>
<!-- Generator: Adobe Illustrator 20.1.0, SVG Export Plug-In . SVG Version: 6.00 Build 0)  -->
<!DOCTYPE svg PUBLIC "-//W3C//DTD SVG 1.1//EN" "http://www.w3.org/Graphics/SVG/1.1/DTD/svg11.dtd">
<svg version="1.1" id="Layer_1" xmlns="http://www.w3.org/2000/svg" xmlns:xlink="http://www.w3.org/1999/xlink" x="0px" y="0px"
	 width="24px" height="24px" viewBox="0 0 24 24" enable-background="new 0 0 24 24" xml:space="preserve">
<path d="M2,3v18c0,1.654,1.346,3,3,3h14c1.654,0,3-1.346,3-3V3c0-1.654-1.346-3-3-3H5C3.346,0,2,1.346,2,3z M12,20
	c-0.552,0-1-0.448-1-1c0-0.552,0.448-1,1-1c0.552,0,1,0.448,1,1C13,19.552,12.552,20,12,20z M6,5h12v2H6V5z M6,9h12v2H6V9z M6,13h8
	v2H6V13z"/>
</svg>
