<?xml version="1.0" encoding="utf-8"?>
<!-- Generator: Adobe Illustrator 20.1.0, SVG Export Plug-In . SVG Version: 6.00 Build 0)  -->
<!DOCTYPE svg PUBLIC "-//W3C//DTD SVG 1.1//EN" "http://www.w3.org/Graphics/SVG/1.1/DTD/svg11.dtd">
<svg version="1.1" id="Layer_1" xmlns="http://www.w3.org/2000/svg" xmlns:xlink="http://www.w3.org/1999/xlink" x="0px" y="0px"
	 width="24px" height="24px" viewBox="0 0 24 24" enable-background="new 0 0 24 24" xml:space="preserve">
<path d="M1,24h12c0.552,0,1-0.447,1-1v-9c0-0.553-0.448-1-1-1h-2v-3c0-2.206-1.794-4-4-4s-4,1.794-4,4v3H1c-0.552,0-1,0.447-1,1v9
	C0,23.553,0.448,24,1,24z M7,19c-0.552,0-1-0.448-1-1c0-0.552,0.448-1,1-1s1,0.448,1,1C8,18.552,7.552,19,7,19z M5,10
	c0-1.103,0.897-2,2-2s2,0.897,2,2v3H5V10z"/>
<path d="M14,4h-1v2h1c2.206,0,4,1.794,4,4v1h2v-1C20,6.691,17.309,4,14,4z"/>
<path d="M14,0h-1v2h1c4.411,0,8,3.589,8,8v1h2v-1C24,4.486,19.514,0,14,0z"/>
</svg>
