<?xml version="1.0" encoding="utf-8"?>
<!-- Generator: Adobe Illustrator 20.1.0, SVG Export Plug-In . SVG Version: 6.00 Build 0)  -->
<!DOCTYPE svg PUBLIC "-//W3C//DTD SVG 1.1//EN" "http://www.w3.org/Graphics/SVG/1.1/DTD/svg11.dtd">
<svg version="1.1" id="Layer_1" xmlns="http://www.w3.org/2000/svg" xmlns:xlink="http://www.w3.org/1999/xlink" x="0px" y="0px"
	 width="24px" height="24px" viewBox="0 0 24 24" enable-background="new 0 0 24 24" xml:space="preserve">
<path d="M23,5h-3V1c0-0.552-0.448-1-1-1H5C4.448,0,4,0.448,4,1v4H1C0.448,5,0,5.448,0,6v12c0,0.552,0.448,1,1,1h3v4
	c0,0.552,0.448,1,1,1h14c0.552,0,1-0.448,1-1v-4h3c0.552,0,1-0.448,1-1V6C24,5.448,23.552,5,23,5z M18,17.998c0,0,0,0.002,0,0.002
	s0,0.002,0,0.002V22H6v-9h12V17.998z M18,5H6V2h12V5z"/>
</svg>
