<?xml version="1.0" encoding="utf-8"?>
<!-- Generator: Adobe Illustrator 20.1.0, SVG Export Plug-In . SVG Version: 6.00 Build 0)  -->
<!DOCTYPE svg PUBLIC "-//W3C//DTD SVG 1.1//EN" "http://www.w3.org/Graphics/SVG/1.1/DTD/svg11.dtd">
<svg version="1.1" id="Layer_1" xmlns="http://www.w3.org/2000/svg" xmlns:xlink="http://www.w3.org/1999/xlink" x="0px" y="0px"
	 width="24px" height="24px" viewBox="0 0 24 24" enable-background="new 0 0 24 24" xml:space="preserve">
<path d="M1,3v18c0,1.654,1.346,3,3,3h6.003v-2c0-0.347,0.069-0.682,0.182-1H4c-0.552,0-1-0.448-1-1V4c0-0.552,0.448-1,1-1h12
	c0.552,0,1,0.448,1,1v9.761l0.672-0.672c0.382-0.382,0.836-0.661,1.328-0.844V3c0-1.654-1.346-3-3-3H4C2.346,0,1,1.346,1,3z"/>
<path d="M21.5,14.503c-0.667-0.667-1.747-0.667-2.414,0l-6.79,6.79c-0.188,0.188-0.293,0.442-0.293,0.707v2h2
	c0.265,0,0.519-0.105,0.707-0.293l6.79-6.79C22.167,16.25,22.167,15.17,21.5,14.503z"/>
</svg>
