<?xml version="1.0" encoding="utf-8"?>
<!-- Generator: Adobe Illustrator 20.1.0, SVG Export Plug-In . SVG Version: 6.00 Build 0)  -->
<!DOCTYPE svg PUBLIC "-//W3C//DTD SVG 1.1//EN" "http://www.w3.org/Graphics/SVG/1.1/DTD/svg11.dtd">
<svg version="1.1" id="Layer_1" xmlns="http://www.w3.org/2000/svg" xmlns:xlink="http://www.w3.org/1999/xlink" x="0px" y="0px"
	 width="24px" height="24px" viewBox="0 0 24 24" enable-background="new 0 0 24 24" xml:space="preserve">
<path d="M1,18h5v-2H2V4h4V2H1C0.447,2,0,2.448,0,3v14C0,17.552,0.447,18,1,18z"/>
<path d="M23,0H9C8.447,0,8,0.448,8,1v22c0,0.552,0.447,1,1,1h14c0.553,0,1-0.448,1-1V1C24,0.448,23.553,0,23,0z M16,19
	c-1.654,0-3-1.346-3-3s1.346-3,3-3s3,1.346,3,3S17.654,19,16,19z M19,11h-6V9h6V11z M19,7h-6V5h6V7z"/>
<path d="M6,22v-2H3c-0.553,0-1,0.448-1,1s0.447,1,1,1H6z"/>
</svg>
