<?xml version="1.0" encoding="utf-8"?>
<!-- Generator: Adobe Illustrator 20.1.0, SVG Export Plug-In . SVG Version: 6.00 Build 0)  -->
<!DOCTYPE svg PUBLIC "-//W3C//DTD SVG 1.1//EN" "http://www.w3.org/Graphics/SVG/1.1/DTD/svg11.dtd">
<svg version="1.1" id="Layer_1" xmlns="http://www.w3.org/2000/svg" xmlns:xlink="http://www.w3.org/1999/xlink" x="0px" y="0px"
	 width="24px" height="24px" viewBox="0 0 24 24" enable-background="new 0 0 24 24" xml:space="preserve">
<path d="M1.349,22.758c0.452,0.654,1.22,0.974,2.003,0.831L12,22.017l8.648,1.572c0.124,0.022,0.247,0.034,0.368,0.033
	c0.649,0,1.254-0.312,1.635-0.864c0.453-0.654,0.479-1.484,0.07-2.167l-2.749-4.581C21.239,14.336,22,12.258,22,10
	c0-5.514-4.486-10-10-10S2,4.486,2,10c0,2.257,0.761,4.335,2.027,6.011l-2.749,4.581C0.869,21.274,0.896,22.104,1.349,22.758z M4,10
	c0-4.411,3.589-8,8-8s8,3.589,8,8s-3.589,8-8,8S4,14.411,4,10z"/>
<path d="M12,16c2.757,0,5-2.243,5-5s-2.243-5-5-5s-5,2.243-5,5S9.243,16,12,16z M12,10c0.552,0,1,0.448,1,1c0,0.552-0.448,1-1,1
	s-1-0.448-1-1C11,10.448,11.448,10,12,10z"/>
</svg>
