<?xml version="1.0" encoding="utf-8"?>
<!-- Generator: Adobe Illustrator 20.1.0, SVG Export Plug-In . SVG Version: 6.00 Build 0)  -->
<!DOCTYPE svg PUBLIC "-//W3C//DTD SVG 1.1//EN" "http://www.w3.org/Graphics/SVG/1.1/DTD/svg11.dtd">
<svg version="1.1" id="Layer_1" xmlns="http://www.w3.org/2000/svg" xmlns:xlink="http://www.w3.org/1999/xlink" x="0px" y="0px"
	 width="24px" height="24px" viewBox="0 0 24 24" enable-background="new 0 0 24 24" xml:space="preserve">
<path d="M23,1H1C0.447,1,0,1.448,0,2v12c0,0.552,0.447,1,1,1h11v3c0,2.757,2.243,5,5,5s5-2.243,5-5v-3h1c0.553,0,1-0.448,1-1V2
	C24,1.448,23.553,1,23,1z M8,5h3v2H8V5z M6,11H3V9h3V11z M6,7H3V5h3V7z M12,11H8V9h4V11z M13,7V5h3v2H13z M20,18
	c0,1.654-1.346,3-3,3s-3-1.346-3-3v-3c0-1.654,1.346-3,3-3s3,1.346,3,3V18z M21,7h-3V5h3V7z"/>
<rect x="16" y="14" width="2" height="3"/>
</svg>
