<?xml version="1.0" encoding="utf-8"?>
<!-- Generator: Adobe Illustrator 20.1.0, SVG Export Plug-In . SVG Version: 6.00 Build 0)  -->
<!DOCTYPE svg PUBLIC "-//W3C//DTD SVG 1.1//EN" "http://www.w3.org/Graphics/SVG/1.1/DTD/svg11.dtd">
<svg version="1.1" id="Layer_1" xmlns="http://www.w3.org/2000/svg" xmlns:xlink="http://www.w3.org/1999/xlink" x="0px" y="0px"
	 width="24px" height="24px" viewBox="0 0 24 24" enable-background="new 0 0 24 24" xml:space="preserve">
<polygon points="22,15.586 17,20.586 15,18.586 13.586,20 17,23.414 23.414,17 "/>
<path d="M19,14c0.34,0,0.673,0.033,1,0.08V3c0-1.654-1.346-3-3-3H5C3.346,0,2,1.346,2,3v18c0,1.654,1.346,3,3,3h7.683
	C12.25,23.09,12,22.075,12,21H5c-0.552,0-1-0.448-1-1V4c0-0.552,0.448-1,1-1h12c0.552,0,1,0.448,1,1v10.08
	C18.327,14.033,18.66,14,19,14z"/>
</svg>
