<?xml version="1.0" encoding="utf-8"?>
<!-- Generator: Adobe Illustrator 20.1.0, SVG Export Plug-In . SVG Version: 6.00 Build 0)  -->
<!DOCTYPE svg PUBLIC "-//W3C//DTD SVG 1.1//EN" "http://www.w3.org/Graphics/SVG/1.1/DTD/svg11.dtd">
<svg version="1.1" id="Layer_1" xmlns="http://www.w3.org/2000/svg" xmlns:xlink="http://www.w3.org/1999/xlink" x="0px" y="0px"
	 width="24px" height="24px" viewBox="0 0 24 24" enable-background="new 0 0 24 24" xml:space="preserve">
<path d="M21,3H3C1.346,3,0,4.346,0,6v12c0,1.654,1.346,3,3,3h18c1.654,0,3-1.346,3-3V6C24,4.346,22.654,3,21,3z M21,18
	c0,0.552-0.448,1-1,1H4c-0.552,0-1-0.448-1-1V6c0-0.552,0.448-1,1-1h16c0.552,0,1,0.448,1,1V18z"/>
</svg>
