<?xml version="1.0" encoding="utf-8"?>
<!-- Generator: Adobe Illustrator 20.1.0, SVG Export Plug-In . SVG Version: 6.00 Build 0)  -->
<!DOCTYPE svg PUBLIC "-//W3C//DTD SVG 1.1//EN" "http://www.w3.org/Graphics/SVG/1.1/DTD/svg11.dtd">
<svg version="1.1" id="Layer_1" xmlns="http://www.w3.org/2000/svg" xmlns:xlink="http://www.w3.org/1999/xlink" x="0px" y="0px"
	 width="24px" height="24px" viewBox="0 0 24 24" enable-background="new 0 0 24 24" xml:space="preserve">
<path d="M23,0H1C0.447,0,0,0.448,0,1v22c0,0.552,0.447,1,1,1h22c0.553,0,1-0.448,1-1V1C24,0.448,23.553,0,23,0z M6,5h2v5H6V5z
	 M16,18c0,0.552-0.447,1-1,1H9c-0.553,0-1-0.448-1-1v-2c0-2.206,1.794-4,4-4s4,1.794,4,4V18z M18,10h-2V5h2V10z"/>
</svg>
