<?xml version="1.0" encoding="utf-8"?>
<!-- Generator: Adobe Illustrator 20.1.0, SVG Export Plug-In . SVG Version: 6.00 Build 0)  -->
<!DOCTYPE svg PUBLIC "-//W3C//DTD SVG 1.1//EN" "http://www.w3.org/Graphics/SVG/1.1/DTD/svg11.dtd">
<svg version="1.1" id="Layer_1" xmlns="http://www.w3.org/2000/svg" xmlns:xlink="http://www.w3.org/1999/xlink" x="0px" y="0px"
	 width="24px" height="24px" viewBox="0 0 24 24" enable-background="new 0 0 24 24" xml:space="preserve">
<path d="M23,1H10v2h5v5h-2v2h9v5h-9v2h2v5H9v-3H7v3H2v-3H0v4c0,0.552,0.448,1,1,1h22c0.552,0,1-0.448,1-1V2C24,1.448,23.552,1,23,1z
	 M22,22h-5v-5h5V22z M22,8h-5V3h5V8z"/>
<path d="M6,17c3.309,0,6-2.691,6-6c0-4.364-5.077-9.491-5.293-9.707L6,0.586L5.293,1.293C5.077,1.509,0,6.636,0,11
	C0,14.309,2.691,17,6,17z"/>
</svg>
