<?xml version="1.0" encoding="utf-8"?>
<!-- Generator: Adobe Illustrator 20.1.0, SVG Export Plug-In . SVG Version: 6.00 Build 0)  -->
<!DOCTYPE svg PUBLIC "-//W3C//DTD SVG 1.1//EN" "http://www.w3.org/Graphics/SVG/1.1/DTD/svg11.dtd">
<svg version="1.1" id="Layer_1" xmlns="http://www.w3.org/2000/svg" xmlns:xlink="http://www.w3.org/1999/xlink" x="0px" y="0px"
	 width="24px" height="24px" viewBox="0 0 24 24" enable-background="new 0 0 24 24" xml:space="preserve">
<path d="M21,9.142V1c0-0.552-0.447-1-1-1H7C6.447,0,6,0.448,6,1s0.447,1,1,1h12v7.142c-1.721,0.447-3,2-3,3.858v4h1v2h2v-2h2v2h2v-2
	h1v-4C24,11.142,22.721,9.589,21,9.142z"/>
<path d="M3,24h8c1.654,0,3-1.346,3-3V7c0-1.654-1.346-3-3-3H3C1.346,4,0,5.346,0,7v14C0,22.654,1.346,24,3,24z M2,8
	c0-0.552,0.448-1,1-1h8c0.552,0,1,0.448,1,1v12c0,0.552-0.448,1-1,1H3c-0.552,0-1-0.448-1-1V8z"/>
</svg>
