<?xml version="1.0" encoding="utf-8"?>
<!-- Generator: Adobe Illustrator 20.1.0, SVG Export Plug-In . SVG Version: 6.00 Build 0)  -->
<!DOCTYPE svg PUBLIC "-//W3C//DTD SVG 1.1//EN" "http://www.w3.org/Graphics/SVG/1.1/DTD/svg11.dtd">
<svg version="1.1" id="Layer_1" xmlns="http://www.w3.org/2000/svg" xmlns:xlink="http://www.w3.org/1999/xlink" x="0px" y="0px"
	 width="24px" height="24px" viewBox="0 0 24 24" enable-background="new 0 0 24 24" xml:space="preserve">
<path d="M7,20h10c1.654,0,3-1.346,3-3V3c0-1.654-1.346-3-3-3H7C5.346,0,4,1.346,4,3v14C4,18.654,5.346,20,7,20z M6,4
	c0-0.551,0.449-1,1-1h10c0.551,0,1,0.449,1,1v11c0,0.551-0.449,1-1,1H7c-0.551,0-1-0.449-1-1V4z"/>
<path d="M23,22H1c-0.552,0-1,0.448-1,1s0.448,1,1,1h22c0.552,0,1-0.448,1-1S23.552,22,23,22z"/>
</svg>
