<?xml version="1.0" encoding="utf-8"?>
<!-- Generator: Adobe Illustrator 20.1.0, SVG Export Plug-In . SVG Version: 6.00 Build 0)  -->
<!DOCTYPE svg PUBLIC "-//W3C//DTD SVG 1.1//EN" "http://www.w3.org/Graphics/SVG/1.1/DTD/svg11.dtd">
<svg version="1.1" id="Layer_1" xmlns="http://www.w3.org/2000/svg" xmlns:xlink="http://www.w3.org/1999/xlink" x="0px" y="0px"
	 width="24px" height="24px" viewBox="0 0 24 24" enable-background="new 0 0 24 24" xml:space="preserve">
<path d="M21.434,15.98l1.515-1.515l-1.414-1.414l-1.515,1.515c-0.316-0.186-0.656-0.33-1.02-0.424V12h-2v2.141
	c-0.364,0.094-0.704,0.238-1.02,0.424l-1.515-1.515l-1.414,1.414l1.515,1.515c-0.186,0.316-0.33,0.656-0.424,1.02H12v2h2.141
	c0.094,0.364,0.238,0.704,0.424,1.02l-1.515,1.515l1.414,1.414l1.515-1.515c0.316,0.186,0.656,0.33,1.02,0.424V24h2v-2.141
	c0.364-0.094,0.704-0.238,1.02-0.424l1.515,1.515l1.414-1.414l-1.515-1.515c0.186-0.316,0.33-0.656,0.424-1.02H24v-2h-2.141
	C21.764,16.636,21.62,16.296,21.434,15.98z M18,19c-0.552,0-1-0.448-1-1c0-0.552,0.448-1,1-1s1,0.448,1,1C19,18.552,18.552,19,18,19
	z"/>
<path d="M22,11V4c0-1.103-0.897-2-2-2H4C2.897,2,2,2.897,2,4v11h2V4h16v7H22z"/>
<path d="M0,18c0,2.206,1.794,4,4,4h6v-5H0V18z"/>
</svg>
