<?xml version="1.0" encoding="utf-8"?>
<!-- Generator: Adobe Illustrator 20.1.0, SVG Export Plug-In . SVG Version: 6.00 Build 0)  -->
<!DOCTYPE svg PUBLIC "-//W3C//DTD SVG 1.1//EN" "http://www.w3.org/Graphics/SVG/1.1/DTD/svg11.dtd">
<svg version="1.1" id="Layer_1" xmlns="http://www.w3.org/2000/svg" xmlns:xlink="http://www.w3.org/1999/xlink" x="0px" y="0px"
	 width="24px" height="24px" viewBox="0 0 24 24" enable-background="new 0 0 24 24" xml:space="preserve">
<path d="M23,11H1c-0.553,0-1,0.448-1,1v8c0,0.552,0.447,1,1,1h22c0.553,0,1-0.448,1-1v-8C24,11.448,23.553,11,23,11z M20,17H4v-2h16
	V17z"/>
<path d="M22.304,9l-3.456-5.53C18.665,3.178,18.345,3,18,3H6C5.655,3,5.335,3.178,5.152,3.47L1.696,9H22.304z"/>
</svg>
