<?xml version="1.0" encoding="utf-8"?>
<!-- Generator: Adobe Illustrator 20.1.0, SVG Export Plug-In . SVG Version: 6.00 Build 0)  -->
<!DOCTYPE svg PUBLIC "-//W3C//DTD SVG 1.1//EN" "http://www.w3.org/Graphics/SVG/1.1/DTD/svg11.dtd">
<svg version="1.1" id="Layer_1" xmlns="http://www.w3.org/2000/svg" xmlns:xlink="http://www.w3.org/1999/xlink" x="0px" y="0px"
	 width="24px" height="24px" viewBox="0 0 24 24" enable-background="new 0 0 24 24" xml:space="preserve">
<path d="M11,21.92V24h2v-2.08c3.386-0.488,6-3.401,6-6.92h3v-2h-3h-2H7H5H2v2h3C5,18.519,7.614,21.432,11,21.92z M17,15
	c0,2.757-2.243,5-5,5s-5-2.243-5-5H17z"/>
<path d="M7,7c0-2.757,2.243-5,5-5s5,2.243,5,5v4h2V7c0-3.86-3.141-7-7-7S5,3.14,5,7v4h2V7z"/>
</svg>
