<?xml version="1.0" encoding="utf-8"?>
<!-- Generator: Adobe Illustrator 20.1.0, SVG Export Plug-In . SVG Version: 6.00 Build 0)  -->
<!DOCTYPE svg PUBLIC "-//W3C//DTD SVG 1.1//EN" "http://www.w3.org/Graphics/SVG/1.1/DTD/svg11.dtd">
<svg version="1.1" id="Layer_1" xmlns="http://www.w3.org/2000/svg" xmlns:xlink="http://www.w3.org/1999/xlink" x="0px" y="0px"
	 width="24px" height="24px" viewBox="0 0 24 24" enable-background="new 0 0 24 24" xml:space="preserve">
<path d="M12,4C9.794,4,8,5.794,8,8s1.794,4,4,4s4-1.794,4-4S14.206,4,12,4z M12,10c-1.103,0-2-0.897-2-2s0.897-2,2-2s2,0.897,2,2
	S13.103,10,12,10z"/>
<path d="M4,24h12h2h2v-2h-1.957c0.107-2.819,0.613-5.456,1.088-7.802C19.578,11.987,20,9.898,20,8c0-4.486-3.514-8-8-8S4,3.514,4,8
	c0,1.898,0.422,3.987,0.869,6.198C5.343,16.544,5.85,19.181,5.957,22H4V24z M6.829,13.802C6.384,11.6,6,9.698,6,8
	c0-3.364,2.636-6,6-6s6,2.636,6,6c0,1.698-0.384,3.6-0.829,5.802c-0.494,2.447-1.044,5.191-1.149,8.198H7.978
	C7.873,18.993,7.324,16.249,6.829,13.802z"/>
</svg>
