<?xml version="1.0" encoding="utf-8"?>
<!-- Generator: Adobe Illustrator 20.1.0, SVG Export Plug-In . SVG Version: 6.00 Build 0)  -->
<!DOCTYPE svg PUBLIC "-//W3C//DTD SVG 1.1//EN" "http://www.w3.org/Graphics/SVG/1.1/DTD/svg11.dtd">
<svg version="1.1" id="Layer_1" xmlns="http://www.w3.org/2000/svg" xmlns:xlink="http://www.w3.org/1999/xlink" x="0px" y="0px"
	 width="24px" height="24px" viewBox="0 0 24 24" enable-background="new 0 0 24 24" xml:space="preserve">
<path d="M23,5h-2v2h-2V5h-2v2h-1v4c0,1.858,1.279,3.411,3,3.858V22H8v-2h3c1.654,0,3-1.346,3-3v-2v-2V6V4V3c0-1.654-1.346-3-3-3H3
	C1.346,0,0,1.346,0,3v1v2v7v2v2c0,1.654,1.346,3,3,3h3v4h15v-9.142c1.721-0.447,3-2,3-3.858V7h-1V5z M2,3c0-0.551,0.448-1,1-1h8
	c0.552,0,1,0.449,1,1v1H2V3z M2,6h10v7H2V6z M3,18c-0.552,0-1-0.449-1-1v-2h10v2c0,0.551-0.448,1-1,1H8H6H3z M22,11
	c0,1.103-0.897,2-2,2s-2-0.897-2-2V9h1h2h1V11z"/>
</svg>
