<?xml version="1.0" encoding="utf-8"?>
<!-- Generator: Adobe Illustrator 20.1.0, SVG Export Plug-In . SVG Version: 6.00 Build 0)  -->
<!DOCTYPE svg PUBLIC "-//W3C//DTD SVG 1.1//EN" "http://www.w3.org/Graphics/SVG/1.1/DTD/svg11.dtd">
<svg version="1.1" id="Layer_1" xmlns="http://www.w3.org/2000/svg" xmlns:xlink="http://www.w3.org/1999/xlink" x="0px" y="0px"
	 width="24px" height="24px" viewBox="0 0 24 24" enable-background="new 0 0 24 24" xml:space="preserve">
<path d="M18,2h-2v3h-4V4c0-2.206-1.794-4-4-4S4,1.794,4,4v1H0v14h10v1c0,2.206,1.794,4,4,4s4-1.794,4-4v-1h6V5h-6V2z M6,4
	c0-1.103,0.897-2,2-2s2,0.897,2,2v1H6V4z M16,20c0,1.103-0.897,2-2,2s-2-0.897-2-2v-1h4V20z M22,7v10h-4h-2H2V7h2h2h4h2h4h2H22z"/>
<rect x="3" y="9" width="3" height="2"/>
<rect x="8" y="9" width="3" height="2"/>
<rect x="13" y="9" width="3" height="2"/>
<rect x="18" y="9" width="3" height="2"/>
<rect x="3" y="13" width="3" height="2"/>
<rect x="8" y="13" width="8" height="2"/>
<rect x="18" y="13" width="3" height="2"/>
</svg>
