<?xml version="1.0" encoding="utf-8"?>
<!-- Generator: Adobe Illustrator 20.1.0, SVG Export Plug-In . SVG Version: 6.00 Build 0)  -->
<!DOCTYPE svg PUBLIC "-//W3C//DTD SVG 1.1//EN" "http://www.w3.org/Graphics/SVG/1.1/DTD/svg11.dtd">
<svg version="1.1" id="Layer_1" xmlns="http://www.w3.org/2000/svg" xmlns:xlink="http://www.w3.org/1999/xlink" x="0px" y="0px"
	 width="24px" height="24px" viewBox="0 0 24 24" enable-background="new 0 0 24 24" xml:space="preserve">
<path d="M22.158,15.985c1.168-1.169,1.168-3.072-0.001-4.242l-9.899-9.899c-1.132-1.133-3.109-1.135-4.243,0L1.842,8.015
	c-1.168,1.169-1.168,3.072,0.001,4.242l9.899,9.899c0.566,0.567,1.32,0.879,2.122,0.879c0.801,0,1.555-0.312,2.121-0.879
	L22.158,15.985L22.158,15.985z M20.742,14.572l-6.171,6.171c-0.38,0.379-1.036,0.378-1.414,0l-9.899-9.899
	c-0.391-0.39-0.391-1.025-0.001-1.415l6.172-6.171c0.189-0.189,0.44-0.293,0.707-0.293c0.268,0,0.518,0.104,0.707,0.293l9.899,9.899
	C21.133,13.546,21.133,14.182,20.742,14.572z"/>
<ellipse transform="matrix(0.7071 -0.7071 0.7071 0.7071 -6.435 15.5355)" cx="15.536" cy="15.536" rx="1" ry="1"/>
<path d="M17,0h-1v2h1c2.757,0,5,2.243,5,5v1h2V7C24,3.14,20.859,0,17,0z"/>
<path d="M7,24h1v-2H7c-2.757,0-5-2.243-5-5v-1H0v1C0,20.86,3.141,24,7,24z"/>
</svg>
