<?xml version="1.0" encoding="utf-8"?>
<!-- Generator: Adobe Illustrator 20.1.0, SVG Export Plug-In . SVG Version: 6.00 Build 0)  -->
<!DOCTYPE svg PUBLIC "-//W3C//DTD SVG 1.1//EN" "http://www.w3.org/Graphics/SVG/1.1/DTD/svg11.dtd">
<svg version="1.1" id="Layer_1" xmlns="http://www.w3.org/2000/svg" xmlns:xlink="http://www.w3.org/1999/xlink" x="0px" y="0px"
	 width="24px" height="24px" viewBox="0 0 24 24" enable-background="new 0 0 24 24" xml:space="preserve">
<path d="M19,5.09V0H5v5.09C2.167,5.569,0,8.033,0,11v8h5v5h14v-5h5v-8C24,8.033,21.833,5.569,19,5.09z M17,2v3H7V2H17z M17,22H7v-7
	h10V22z M22,17h-3v-4H5v4H2v-6c0-2.206,1.794-4,4-4h1h10h1c2.206,0,4,1.794,4,4V17z"/>
<rect x="16" y="9" width="3" height="2"/>
</svg>
