<?xml version="1.0" encoding="utf-8"?>
<!-- Generator: Adobe Illustrator 20.1.0, SVG Export Plug-In . SVG Version: 6.00 Build 0)  -->
<!DOCTYPE svg PUBLIC "-//W3C//DTD SVG 1.1//EN" "http://www.w3.org/Graphics/SVG/1.1/DTD/svg11.dtd">
<svg version="1.1" id="Layer_1" xmlns="http://www.w3.org/2000/svg" xmlns:xlink="http://www.w3.org/1999/xlink" x="0px" y="0px"
	 width="24px" height="24px" viewBox="0 0 24 24" enable-background="new 0 0 24 24" xml:space="preserve">
<path d="M12,0C5.383,0,0,5.383,0,12s5.383,12,12,12s12-5.383,12-12S18.617,0,12,0z M12,22C6.486,22,2,17.514,2,12S6.486,2,12,2
	s10,4.486,10,10S17.514,22,12,22z"/>
<path d="M12,8c-2.206,0-4,1.794-4,4s1.794,4,4,4s4-1.794,4-4S14.206,8,12,8z M12,14c-1.103,0-2-0.897-2-2s0.897-2,2-2s2,0.897,2,2
	S13.103,14,12,14z"/>
</svg>
