<?xml version="1.0" encoding="utf-8"?>
<!-- Generator: Adobe Illustrator 20.1.0, SVG Export Plug-In . SVG Version: 6.00 Build 0)  -->
<!DOCTYPE svg PUBLIC "-//W3C//DTD SVG 1.1//EN" "http://www.w3.org/Graphics/SVG/1.1/DTD/svg11.dtd">
<svg version="1.1" id="Layer_1" xmlns="http://www.w3.org/2000/svg" xmlns:xlink="http://www.w3.org/1999/xlink" x="0px" y="0px"
	 width="24px" height="24px" viewBox="0 0 24 24" enable-background="new 0 0 24 24" xml:space="preserve">
<path d="M15.414,1.91l-0.827-1.82L3.784,5H0v19h24V5H8.616L15.414,1.91z M22,22H2V7h20V22z"/>
<path d="M10.586,17.585l-0.707,0.707L12,20.415l2.121-2.122l-0.707-0.707C12.659,16.831,11.341,16.831,10.586,17.585z"/>
<path d="M12,13c-1.603,0-3.109,0.624-4.243,1.757L7.05,15.464l1.414,1.414l0.707-0.707c1.511-1.511,4.146-1.511,5.657,0l0.707,0.707
	l1.414-1.414l-0.707-0.707C15.109,13.624,13.603,13,12,13z"/>
<path d="M6.343,13.343C7.854,11.832,9.863,11,12,11s4.146,0.832,5.657,2.343l0.707,0.707l1.414-1.414l-0.707-0.707
	C17.182,10.04,14.671,9,12,9s-5.182,1.04-7.071,2.929l-0.707,0.707l1.414,1.414L6.343,13.343z"/>
</svg>
