<?xml version="1.0" encoding="utf-8"?>
<!-- Generator: Adobe Illustrator 20.1.0, SVG Export Plug-In . SVG Version: 6.00 Build 0)  -->
<!DOCTYPE svg PUBLIC "-//W3C//DTD SVG 1.1//EN" "http://www.w3.org/Graphics/SVG/1.1/DTD/svg11.dtd">
<svg version="1.1" id="Layer_1" xmlns="http://www.w3.org/2000/svg" xmlns:xlink="http://www.w3.org/1999/xlink" x="0px" y="0px"
	 width="24px" height="24px" viewBox="0 0 24 24" enable-background="new 0 0 24 24" xml:space="preserve">
<path d="M20,12V3c0-1.654-1.346-3-3-3H5C3.346,0,2,1.346,2,3v18c0,1.654,1.346,3,3,3h8v-2H5c-0.551,0-1-0.448-1-1V3
	c0-0.551,0.449-1,1-1h12c0.551,0,1,0.449,1,1v9H20z"/>
<circle cx="11" cy="18" r="1"/>
<path d="M23.063,14.919c-0.678-0.668-1.609-1.003-2.565-0.902c-0.547,0.055-1.06,0.245-1.498,0.548
	c-0.438-0.303-0.951-0.493-1.498-0.548c-0.955-0.104-1.888,0.233-2.565,0.903C14.333,15.516,14,16.31,14,17.155
	s0.333,1.64,0.937,2.235L19,23.405l4.064-4.015C23.667,18.795,24,18.001,24,17.155S23.667,15.516,23.063,14.919L23.063,14.919z
	 M21.658,17.968L19,20.595l-2.658-2.626C16.122,17.751,16,17.462,16,17.155s0.122-0.596,0.342-0.813
	C16.565,16.121,16.866,16,17.18,16c0.041,0,0.082,0.002,0.123,0.006c0.355,0.036,0.671,0.224,0.868,0.516L19,17.757l0.83-1.235
	c0.196-0.292,0.512-0.479,0.868-0.516c0.357-0.033,0.708,0.086,0.96,0.337C21.878,16.561,22,16.849,22,17.155
	S21.878,17.751,21.658,17.968z"/>
</svg>
