<?xml version="1.0" encoding="utf-8"?>
<!-- Generator: Adobe Illustrator 20.1.0, SVG Export Plug-In . SVG Version: 6.00 Build 0)  -->
<!DOCTYPE svg PUBLIC "-//W3C//DTD SVG 1.1//EN" "http://www.w3.org/Graphics/SVG/1.1/DTD/svg11.dtd">
<svg version="1.1" id="Layer_1" xmlns="http://www.w3.org/2000/svg" xmlns:xlink="http://www.w3.org/1999/xlink" x="0px" y="0px"
	 width="24px" height="24px" viewBox="0 0 24 24" enable-background="new 0 0 24 24" xml:space="preserve">
<rect x="17" width="6" height="2"/>
<path d="M16,14h3v8H7v-7.09c2.833-0.478,5-2.942,5-5.91V3h-2V0H8v3H4V0H2v3H0v6c0,2.967,2.167,5.431,5,5.91V24h16V14h3V3h-8V14z
	 M2,9V5h2h4h2v4c0,2.206-1.794,4-4,4S2,11.206,2,9z M18,5h4v7h-1h-2h-1V5z"/>
</svg>
