<?xml version="1.0" encoding="utf-8"?>
<!-- Generator: Adobe Illustrator 20.1.0, SVG Export Plug-In . SVG Version: 6.00 Build 0)  -->
<!DOCTYPE svg PUBLIC "-//W3C//DTD SVG 1.1//EN" "http://www.w3.org/Graphics/SVG/1.1/DTD/svg11.dtd">
<svg version="1.1" id="Layer_1" xmlns="http://www.w3.org/2000/svg" xmlns:xlink="http://www.w3.org/1999/xlink" x="0px" y="0px"
	 width="24px" height="24px" viewBox="0 0 24 24" enable-background="new 0 0 24 24" xml:space="preserve">
<path d="M22,13c0-1.654-1.346-3-3-3s-3,1.346-3,3v2h-2v7h10v-7h-2V13z M18,13c0-0.552,0.449-1,1-1s1,0.448,1,1v2h-2V13z M22,20h-6
	v-3h2h2h2V20z"/>
<path d="M2,15h2V4h16v4h2V4c0-1.103-0.897-2-2-2H4C2.897,2,2,2.897,2,4V15z"/>
<path d="M4,22h8v-2H4c-0.739,0-1.385-0.402-1.731-1H12v-2H0v1C0,20.206,1.794,22,4,22z"/>
</svg>
