<?xml version="1.0" encoding="utf-8"?>
<!-- Generator: Adobe Illustrator 20.1.0, SVG Export Plug-In . SVG Version: 6.00 Build 0)  -->
<!DOCTYPE svg PUBLIC "-//W3C//DTD SVG 1.1//EN" "http://www.w3.org/Graphics/SVG/1.1/DTD/svg11.dtd">
<svg version="1.1" id="Layer_1" xmlns="http://www.w3.org/2000/svg" xmlns:xlink="http://www.w3.org/1999/xlink" x="0px" y="0px"
	 width="24px" height="24px" viewBox="0 0 24 24" enable-background="new 0 0 24 24" xml:space="preserve">
<path d="M22,10c0-5.514-4.486-10-10-10S2,4.486,2,10c0,1.392,0.302,2.745,0.852,4H0v10h24V14h-2.852C21.698,12.745,22,11.392,22,10z
	 M4,10c0-4.411,3.589-8,8-8s8,3.589,8,8c0,1.418-0.39,2.785-1.097,4H5.097C4.39,12.785,4,11.418,4,10z M22,22H2v-6h20V22z"/>
<path d="M12,7c-1.654,0-3,1.346-3,3s1.346,3,3,3s3-1.346,3-3S13.654,7,12,7z M12,11c-0.552,0-1-0.449-1-1s0.448-1,1-1s1,0.449,1,1
	S12.552,11,12,11z"/>
<rect x="5" y="18" width="14" height="2"/>
</svg>
