<?xml version="1.0" encoding="utf-8"?>
<!-- Generator: Adobe Illustrator 20.1.0, SVG Export Plug-In . SVG Version: 6.00 Build 0)  -->
<!DOCTYPE svg PUBLIC "-//W3C//DTD SVG 1.1//EN" "http://www.w3.org/Graphics/SVG/1.1/DTD/svg11.dtd">
<svg version="1.1" id="Layer_1" xmlns="http://www.w3.org/2000/svg" xmlns:xlink="http://www.w3.org/1999/xlink" x="0px" y="0px"
	 width="24px" height="24px" viewBox="0 0 24 24" enable-background="new 0 0 24 24" xml:space="preserve">
<path d="M19,11c-2.458,0-5,1.802-5,4.816c0,2.717,3.869,6.486,4.31,6.907L19,23.382l0.69-0.658c0.441-0.421,4.31-4.19,4.31-6.907
	C24,12.802,21.458,11,19,11z M19,20.579c-1.417-1.504-3-3.62-3-4.763C16,13.987,17.546,13,19,13s3,0.987,3,2.816
	C22,16.959,20.417,19.075,19,20.579z"/>
<circle cx="19" cy="16" r="1"/>
<path d="M22,9V4c0-1.103-0.897-2-2-2H4C2.897,2,2,2.897,2,4v11h2V4h16v5H22z"/>
<path d="M2.269,19H12v-2H0v1c0,2.206,1.794,4,4,4h10v-2H4C3.261,20,2.615,19.598,2.269,19z"/>
</svg>
