<?xml version="1.0" encoding="utf-8"?>
<!-- Generator: Adobe Illustrator 20.1.0, SVG Export Plug-In . SVG Version: 6.00 Build 0)  -->
<!DOCTYPE svg PUBLIC "-//W3C//DTD SVG 1.1//EN" "http://www.w3.org/Graphics/SVG/1.1/DTD/svg11.dtd">
<svg version="1.1" id="Layer_1" xmlns="http://www.w3.org/2000/svg" xmlns:xlink="http://www.w3.org/1999/xlink" x="0px" y="0px"
	 width="24px" height="24px" viewBox="0 0 24 24" enable-background="new 0 0 24 24" xml:space="preserve">
<path d="M4,20h4v-9H3c0-4.962,4.038-9,9-9s9,4.038,9,9h-5v9h4c0.352,0,0.686-0.072,1-0.184V20c0,1.103-0.897,2-2,2h-6v2h6
	c2.206,0,4-1.794,4-4v-3v-1v-3v-2c0-6.065-4.935-11-11-11S1,4.935,1,11v2v4C1,18.654,2.346,20,4,20z M21,16v1c0,0.551-0.449,1-1,1
	h-2v-5h3V16z M6,13v5H4c-0.551,0-1-0.449-1-1v-4H6z"/>
</svg>
