<?xml version="1.0" encoding="utf-8"?>
<!-- Generator: Adobe Illustrator 20.1.0, SVG Export Plug-In . SVG Version: 6.00 Build 0)  -->
<!DOCTYPE svg PUBLIC "-//W3C//DTD SVG 1.1//EN" "http://www.w3.org/Graphics/SVG/1.1/DTD/svg11.dtd">
<svg version="1.1" id="Layer_1" xmlns="http://www.w3.org/2000/svg" xmlns:xlink="http://www.w3.org/1999/xlink" x="0px" y="0px"
	 width="24px" height="24px" viewBox="0 0 24 24" enable-background="new 0 0 24 24" xml:space="preserve">
<path d="M4,24h16c1.654,0,3-1.346,3-3V3c0-1.654-1.346-3-3-3H4C2.346,0,1,1.346,1,3v18C1,22.654,2.346,24,4,24z M3,3
	c0-0.551,0.448-1,1-1h16c0.552,0,1,0.449,1,1v18c0,0.551-0.448,1-1,1H4c-0.552,0-1-0.449-1-1V3z"/>
<circle cx="12" cy="19" r="1"/>
</svg>
