<?xml version="1.0" encoding="utf-8"?>
<!-- Generator: Adobe Illustrator 20.1.0, SVG Export Plug-In . SVG Version: 6.00 Build 0)  -->
<!DOCTYPE svg PUBLIC "-//W3C//DTD SVG 1.1//EN" "http://www.w3.org/Graphics/SVG/1.1/DTD/svg11.dtd">
<svg version="1.1" id="Layer_1" xmlns="http://www.w3.org/2000/svg" xmlns:xlink="http://www.w3.org/1999/xlink" x="0px" y="0px"
	 width="24px" height="24px" viewBox="0 0 24 24" enable-background="new 0 0 24 24" xml:space="preserve">
<path d="M22,0H2v13h20V0z M20,11H4V2h16V11z"/>
<path d="M20,14H4c-2.206,0-4,1.794-4,4v6h24v-6C24,15.794,22.206,14,20,14z M22,22H2v-4c0-1.103,0.897-2,2-2h16c1.103,0,2,0.897,2,2
	V22z"/>
<rect x="4" y="18" width="3" height="2"/>
<rect x="13" y="18" width="7" height="2"/>
</svg>
