<?xml version="1.0" encoding="utf-8"?>
<!-- Generator: Adobe Illustrator 19.1.0, SVG Export Plug-In . SVG Version: 6.00 Build 0)  -->
<!DOCTYPE svg PUBLIC "-//W3C//DTD SVG 1.1//EN" "http://www.w3.org/Graphics/SVG/1.1/DTD/svg11.dtd">
<svg version="1.1" id="Layer_1" xmlns="http://www.w3.org/2000/svg" xmlns:xlink="http://www.w3.org/1999/xlink" x="0px" y="0px"
	 width="48px" height="48px" viewBox="0 0 48 48" enable-background="new 0 0 48 48" xml:space="preserve">
<path id="color_16_" d="M23,31H3v15c0,0.6,0.4,1,1,1h19V31z M10,38L10,38c0-0.6,0.4-1,1-1h4c0.6,0,1,0.4,1,1l0,0c0,0.6-0.4,1-1,1h-4
	C10.4,39,10,38.6,10,38z"/>
<path d="M23,1H4C3.4,1,3,1.4,3,2v27h20V1z"/>
<path d="M44,1H25v46h19c0.6,0,1-0.4,1-1V2C45,1.4,44.6,1,44,1z M35,17L35,17c-0.6,0-1-0.4-1-1v-6c0-0.6,0.4-1,1-1l0,0
	c0.6,0,1,0.4,1,1v6C36,16.6,35.6,17,35,17z"/>
</svg>
