<?xml version="1.0" encoding="utf-8"?>
<!-- Generator: Adobe Illustrator 19.1.0, SVG Export Plug-In . SVG Version: 6.00 Build 0)  -->
<!DOCTYPE svg PUBLIC "-//W3C//DTD SVG 1.1//EN" "http://www.w3.org/Graphics/SVG/1.1/DTD/svg11.dtd">
<svg version="1.1" id="Layer_1" xmlns="http://www.w3.org/2000/svg" xmlns:xlink="http://www.w3.org/1999/xlink" x="0px" y="0px"
	 width="48px" height="48px" viewBox="0 0 48 48" enable-background="new 0 0 48 48" xml:space="preserve">
<path id="color_25_" d="M42.5,20h-1C39,20,37,22,37,24.5V29H11v-4.5C11,22,9,20,6.5,20h-1C3,20,1,22,1,24.5V37c0,0.6,0.4,1,1,1h3v3
	c0,0.6,0.4,1,1,1c0.6,0,1-0.4,1-1v-3h34v3c0,0.6,0.4,1,1,1c0.6,0,1-0.4,1-1v-3h3c0.6,0,1-0.4,1-1V24.5C47,22,45,20,42.5,20z"/>
<path d="M6.5,18c3.6,0,6.5,2.9,6.5,6.5V27h10V6H10c-2.8,0-5,2.2-5,5v7c0.2,0,0.3,0,0.5,0H6.5z"/>
<path d="M35,24.5c0-3.6,2.9-6.5,6.5-6.5h1c0.2,0,0.3,0,0.5,0v-7c0-2.8-2.2-5-5-5H25v21h10V24.5z"/>
</svg>
