<?xml version="1.0" encoding="utf-8"?>
<!-- Generator: Adobe Illustrator 19.1.0, SVG Export Plug-In . SVG Version: 6.00 Build 0)  -->
<!DOCTYPE svg PUBLIC "-//W3C//DTD SVG 1.1//EN" "http://www.w3.org/Graphics/SVG/1.1/DTD/svg11.dtd">
<svg version="1.1" id="Layer_1" xmlns="http://www.w3.org/2000/svg" xmlns:xlink="http://www.w3.org/1999/xlink" x="0px" y="0px"
	 width="48px" height="48px" viewBox="0 0 48 48" enable-background="new 0 0 48 48" xml:space="preserve">
<path d="M46,1H18C8.6,1,1,8.6,1,18v2c0,0.6,0.4,1,1,1h44c0.6,0,1-0.4,1-1V2C47,1.4,46.6,1,46,1z M38.5,12h-13
	c-1.4,0-2.5-1.1-2.5-2.5S24.1,7,25.5,7h13C39.9,7,41,8.1,41,9.5S39.9,12,38.5,12z"/>
<path id="color_5_" d="M39,29.1V23h-2v6.1c-4.5,0.7-8,6.3-8,10.9c0,4.4,3.3,7,9,7c5.7,0,9-2.6,9-7C47,35.4,43.5,29.8,39,29.1z
	 M37,45c-4-0.2-6-1.9-6-5c0-3.6,2.7-8.1,6-8.9V45z M39,45V31.1c3.3,0.8,6,5.3,6,8.9C45,43.1,43,44.7,39,45z"/>
</svg>
