<?xml version="1.0" encoding="utf-8"?>
<!-- Generator: Adobe Illustrator 19.1.0, SVG Export Plug-In . SVG Version: 6.00 Build 0)  -->
<!DOCTYPE svg PUBLIC "-//W3C//DTD SVG 1.1//EN" "http://www.w3.org/Graphics/SVG/1.1/DTD/svg11.dtd">
<svg version="1.1" id="Layer_1" xmlns="http://www.w3.org/2000/svg" xmlns:xlink="http://www.w3.org/1999/xlink" x="0px" y="0px"
	 width="48px" height="48px" viewBox="0 0 48 48" enable-background="new 0 0 48 48" xml:space="preserve">
<path d="M42,1c-0.6,0-1,0.4-1,1v3H7V2c0-0.6-0.4-1-1-1C5.4,1,5,1.4,5,2v44c0,0.6,0.4,1,1,1c0.6,0,1-0.4,1-1v-3h34v3c0,0.6,0.4,1,1,1
	c0.6,0,1-0.4,1-1V2C43,1.4,42.6,1,42,1z M7,19h34v10H7V19z M41,7v10H7V7H41z M7,41V31h34v10H7z"/>
</svg>
