<?xml version="1.0" encoding="utf-8"?>
<!-- Generator: Adobe Illustrator 19.1.0, SVG Export Plug-In . SVG Version: 6.00 Build 0)  -->
<!DOCTYPE svg PUBLIC "-//W3C//DTD SVG 1.1//EN" "http://www.w3.org/Graphics/SVG/1.1/DTD/svg11.dtd">
<svg version="1.1" id="Layer_1" xmlns="http://www.w3.org/2000/svg" xmlns:xlink="http://www.w3.org/1999/xlink" x="0px" y="0px"
	 width="48px" height="48px" viewBox="0 0 48 48" enable-background="new 0 0 48 48" xml:space="preserve">
<path d="M2,11c-0.6,0-1-0.4-1-1V8c0-3.9,3.1-7,7-7h16c0.6,0,1,0.4,1,1s-0.4,1-1,1H8C5.2,3,3,5.2,3,8v2C3,10.6,2.6,11,2,11z"/>
<path d="M2,10h38c3.3,0,6,2.7,6,6s-2.7,6-6,6H14v24H2V10z"/>
<path d="M14,47H2c-0.6,0-1-0.4-1-1V10c0-0.6,0.4-1,1-1h38c3.9,0,7,3.1,7,7s-3.1,7-7,7H15v23C15,46.6,14.6,47,14,47z M3,45h10V22
	c0-0.6,0.4-1,1-1h26c2.8,0,5-2.2,5-5s-2.2-5-5-5H3V45z"/>
<path id="color_9_" d="M38.8,29.4L38,28.4l-0.8,0.9c-0.4,0.5-4.2,5.2-4.2,7.9c0,3.1,2.6,4.8,5,4.8c2.4,0,5-1.7,5-4.8
	C43,34.6,39.2,29.9,38.8,29.4z"/>
</svg>
