<?xml version="1.0" encoding="utf-8"?>
<!-- Generator: Adobe Illustrator 19.1.0, SVG Export Plug-In . SVG Version: 6.00 Build 0)  -->
<!DOCTYPE svg PUBLIC "-//W3C//DTD SVG 1.1//EN" "http://www.w3.org/Graphics/SVG/1.1/DTD/svg11.dtd">
<svg version="1.1" id="Layer_1" xmlns="http://www.w3.org/2000/svg" xmlns:xlink="http://www.w3.org/1999/xlink" x="0px" y="0px"
	 width="48px" height="48px" viewBox="0 0 48 48" enable-background="new 0 0 48 48" xml:space="preserve">
<path id="color_11_" d="M47,6V2c0-0.6-0.4-1-1-1H2C1.4,1,1,1.4,1,2v4H47z"/>
<path d="M27,8c0.3,7.5,3.5,14.4,8.5,19H25V8h-2v19H12.5c5.1-4.6,8.3-11.5,8.5-19H1v38c0,0.6,0.4,1,1,1h12h20h12c0.6,0,1-0.4,1-1V8
	H27z M23,45h-8c-0.3-6-2.8-11.3-7-14.8c0.7-0.4,1.3-0.8,2-1.2H23V45z M33,45h-8V29h13.1c0.6,0.4,1.3,0.8,2,1.2
	C35.8,33.7,33.3,39,33,45z"/>
</svg>
