<?xml version="1.0" encoding="utf-8"?>
<!-- Generator: Adobe Illustrator 19.1.0, SVG Export Plug-In . SVG Version: 6.00 Build 0)  -->
<!DOCTYPE svg PUBLIC "-//W3C//DTD SVG 1.1//EN" "http://www.w3.org/Graphics/SVG/1.1/DTD/svg11.dtd">
<svg version="1.1" id="Layer_1" xmlns="http://www.w3.org/2000/svg" xmlns:xlink="http://www.w3.org/1999/xlink" x="0px" y="0px"
	 width="48px" height="48px" viewBox="0 0 48 48" enable-background="new 0 0 48 48" xml:space="preserve">
<path id="color_46_" d="M2,5C1.4,5,1,5.4,1,6v32c0,0.6,0.4,1,1,1h3v5c0,0.6,0.4,1,1,1s1-0.4,1-1v-5h12V5H2z M14,22c0,0.6-0.4,1-1,1
	H7c-0.6,0-1-0.4-1-1v-2c0-0.6,0.4-1,1-1s1,0.4,1,1v1h4v-1c0-0.6,0.4-1,1-1s1,0.4,1,1V22z"/>
<path d="M46,5H21v34h20v5c0,0.6,0.4,1,1,1s1-0.4,1-1v-5h3c0.6,0,1-0.4,1-1V6C47,5.4,46.6,5,46,5z M40,22c0,0.6-0.4,1-1,1H29
	c-0.6,0-1-0.4-1-1v-2c0-0.6,0.4-1,1-1s1,0.4,1,1v1h8v-1c0-0.6,0.4-1,1-1s1,0.4,1,1V22z"/>
</svg>
