<?xml version="1.0" encoding="utf-8"?>
<!-- Generator: Adobe Illustrator 19.1.0, SVG Export Plug-In . SVG Version: 6.00 Build 0)  -->
<!DOCTYPE svg PUBLIC "-//W3C//DTD SVG 1.1//EN" "http://www.w3.org/Graphics/SVG/1.1/DTD/svg11.dtd">
<svg version="1.1" id="Layer_1" xmlns="http://www.w3.org/2000/svg" xmlns:xlink="http://www.w3.org/1999/xlink" x="0px" y="0px"
	 width="48px" height="48px" viewBox="0 0 48 48" enable-background="new 0 0 48 48" xml:space="preserve">
<polygon id="color_35_" points="41.8,18 6.2,18 1.4,26 46.6,26 "/>
<path d="M1,28v13c0,0.6,0.4,1,1,1c0.6,0,1-0.4,1-1v-5v0h42v0v5c0,0.6,0.4,1,1,1c0.6,0,1-0.4,1-1V28H1z"/>
<path d="M41,7c0-0.6-0.4-1-1-1H8C7.4,6,7,6.4,7,7v9h34V7z"/>
</svg>
