<?xml version="1.0" encoding="utf-8"?>
<!-- Generator: Adobe Illustrator 19.1.0, SVG Export Plug-In . SVG Version: 6.00 Build 0)  -->
<!DOCTYPE svg PUBLIC "-//W3C//DTD SVG 1.1//EN" "http://www.w3.org/Graphics/SVG/1.1/DTD/svg11.dtd">
<svg version="1.1" id="Layer_1" xmlns="http://www.w3.org/2000/svg" xmlns:xlink="http://www.w3.org/1999/xlink" x="0px" y="0px"
	 width="48px" height="48px" viewBox="0 0 48 48" enable-background="new 0 0 48 48" xml:space="preserve">
<path id="color_28_" d="M24,15c0.6,0,1-0.4,1-1v-1V4c0-0.6-0.4-1-1-1c-0.6,0-1,0.4-1,1v9v1C23,14.6,23.4,15,24,15z"/>
<path id="color_27_" d="M14,19c0.6,0,1-0.4,1-1v-6v-2c0-0.6-0.4-1-1-1c-0.6,0-1,0.4-1,1v2v6C13,18.6,13.4,19,14,19z"/>
<path id="color_26_" d="M34,19c0.6,0,1-0.4,1-1v-6v-2c0-0.6-0.4-1-1-1c-0.6,0-1,0.4-1,1v2v6C33,18.6,33.4,19,34,19z"/>
<path d="M46,23H2c-0.6,0-1,0.4-1,1v18c0,0.6,0.4,1,1,1h44c0.6,0,1-0.4,1-1V24C47,23.4,46.6,23,46,23z M39,37H9c-0.6,0-1-0.4-1-1l0,0
	c0-0.6,0.4-1,1-1h30c0.6,0,1,0.4,1,1l0,0C40,36.6,39.6,37,39,37z M39,31h-3c-0.6,0-1-0.4-1-1v0c0-0.6,0.4-1,1-1h3c0.6,0,1,0.4,1,1v0
	C40,30.6,39.6,31,39,31z"/>
</svg>
