<?xml version="1.0" encoding="utf-8"?>
<!-- Generator: Adobe Illustrator 19.1.0, SVG Export Plug-In . SVG Version: 6.00 Build 0)  -->
<!DOCTYPE svg PUBLIC "-//W3C//DTD SVG 1.1//EN" "http://www.w3.org/Graphics/SVG/1.1/DTD/svg11.dtd">
<svg version="1.1" id="Layer_1" xmlns="http://www.w3.org/2000/svg" xmlns:xlink="http://www.w3.org/1999/xlink" x="0px" y="0px"
	 width="48px" height="48px" viewBox="0 0 48 48" enable-background="new 0 0 48 48" xml:space="preserve">
<path d="M28.4,15h-8.8L1.3,31.3C1.1,31.4,1,31.7,1,32v5c0,0.6,0.4,1,1,1h44c0.6,0,1-0.4,1-1v-5c0-0.3-0.1-0.6-0.3-0.7L28.4,15z"/>
<path id="color_40_" d="M15.2,40c0.9,4,4.5,7,8.8,7c4.3,0,7.9-3,8.8-7H15.2z"/>
<path id="color_39_" d="M29,13V8c0-0.6-0.4-1-1-1h-3V2c0-0.6-0.4-1-1-1s-1,0.4-1,1v5h-3c-0.6,0-1,0.4-1,1v5H29z"/>
</svg>
