<?xml version="1.0" encoding="utf-8"?>
<!-- Generator: Adobe Illustrator 19.1.0, SVG Export Plug-In . SVG Version: 6.00 Build 0)  -->
<!DOCTYPE svg PUBLIC "-//W3C//DTD SVG 1.1//EN" "http://www.w3.org/Graphics/SVG/1.1/DTD/svg11.dtd">
<svg version="1.1" id="Layer_1" xmlns="http://www.w3.org/2000/svg" xmlns:xlink="http://www.w3.org/1999/xlink" x="0px" y="0px"
	 width="48px" height="48px" viewBox="0 0 48 48" enable-background="new 0 0 48 48" xml:space="preserve">
<path d="M40,1c-3.5,0-6.5,2.6-6.9,6.1C29.6,7.5,27,10.5,27,14c0,0.6,0.4,1,1,1h12c0,0,0,0,0,0c0.6,0,1-0.4,1-1c0-0.1,0-0.1,0-0.2
	c-0.1-3.4-2.6-6.2-5.9-6.7C35.5,4.8,37.6,3,40,3c2.8,0,5,2.2,5,5v17H2c-0.6,0-1,0.4-1,1v4c0,5.7,4.4,10.4,10,10.9V44
	c0,0.6,0.4,1,1,1c0.6,0,1-0.4,1-1v-3h22v3c0,0.6,0.4,1,1,1c0.6,0,1-0.4,1-1v-3.1c5.6-0.5,10-5.2,10-10.9v-4V8C47,4.1,43.9,1,40,1z"
	/>
<path id="color_45_" d="M30,21v-2c0-0.6-0.4-1-1-1c-0.6,0-1,0.4-1,1v2c0,0.6,0.4,1,1,1C29.6,22,30,21.6,30,21z"/>
<path id="color_44_" d="M40,21v-2c0-0.6-0.4-1-1-1c-0.6,0-1,0.4-1,1v2c0,0.6,0.4,1,1,1C39.6,22,40,21.6,40,21z"/>
<path id="color_43_" d="M35,21v-2c0-0.6-0.4-1-1-1c-0.6,0-1,0.4-1,1v2c0,0.6,0.4,1,1,1C34.6,22,35,21.6,35,21z"/>
</svg>
