<?xml version="1.0" encoding="utf-8"?>
<!-- Generator: Adobe Illustrator 19.1.0, SVG Export Plug-In . SVG Version: 6.00 Build 0)  -->
<!DOCTYPE svg PUBLIC "-//W3C//DTD SVG 1.1//EN" "http://www.w3.org/Graphics/SVG/1.1/DTD/svg11.dtd">
<svg version="1.1" id="Layer_1" xmlns="http://www.w3.org/2000/svg" xmlns:xlink="http://www.w3.org/1999/xlink" x="0px" y="0px"
	 width="48px" height="48px" viewBox="0 0 48 48" enable-background="new 0 0 48 48" xml:space="preserve">
<path id="color_34_" d="M43,19V2c0-0.6-0.4-1-1-1H6C5.4,1,5,1.4,5,2v17H43z M12,7L12,7c0.6,0,1,0.4,1,1v5c0,0.6-0.4,1-1,1h0
	c-0.6,0-1-0.4-1-1V8C11,7.4,11.4,7,12,7z"/>
<path d="M5,21v25c0,0.6,0.4,1,1,1h36c0.6,0,1-0.4,1-1V21H5z M12,35L12,35c-0.6,0-1-0.4-1-1v-7c0-0.6,0.4-1,1-1h0c0.6,0,1,0.4,1,1v7
	C13,34.6,12.6,35,12,35z"/>
</svg>
