<?xml version="1.0" encoding="utf-8"?>
<!-- Generator: Adobe Illustrator 19.1.0, SVG Export Plug-In . SVG Version: 6.00 Build 0)  -->
<!DOCTYPE svg PUBLIC "-//W3C//DTD SVG 1.1//EN" "http://www.w3.org/Graphics/SVG/1.1/DTD/svg11.dtd">
<svg version="1.1" id="Layer_1" xmlns="http://www.w3.org/2000/svg" xmlns:xlink="http://www.w3.org/1999/xlink" x="0px" y="0px"
	 width="48px" height="48px" viewBox="0 0 48 48" enable-background="new 0 0 48 48" xml:space="preserve">
<path d="M46,41H2c-0.6,0-1-0.4-1-1v-4c0-0.4,0.2-0.7,0.5-0.9L21,23.4l0-3.1c-2.4-1.1-4-3.6-4-6.3c0-3.9,3.1-7,7-7c3.9,0,7,3.1,7,7
	c0,0.6-0.4,1-1,1c-0.6,0-1-0.4-1-1c0-2.8-2.2-5-5-5c-2.8,0-5,2.2-5,5c0,2.1,1.3,4,3.3,4.7c0.4,0.1,0.7,0.5,0.7,0.9l0,4.3
	c0,0.4-0.2,0.7-0.5,0.9L3,36.6V39h42v-2.4l-14.6-8.1c-0.5-0.3-0.7-0.9-0.4-1.4c0.3-0.5,0.9-0.7,1.4-0.4l15.2,8.4
	c0.3,0.2,0.5,0.5,0.5,0.9v4C47,40.6,46.6,41,46,41z"/>
</svg>
