<?xml version="1.0" encoding="utf-8"?>
<!-- Generator: Adobe Illustrator 19.1.0, SVG Export Plug-In . SVG Version: 6.00 Build 0)  -->
<!DOCTYPE svg PUBLIC "-//W3C//DTD SVG 1.1//EN" "http://www.w3.org/Graphics/SVG/1.1/DTD/svg11.dtd">
<svg version="1.1" id="Layer_1" xmlns="http://www.w3.org/2000/svg" xmlns:xlink="http://www.w3.org/1999/xlink" x="0px" y="0px"
	 width="48px" height="48px" viewBox="0 0 48 48" enable-background="new 0 0 48 48" xml:space="preserve">
<path d="M43.8,20.4l-13-19C30.6,1.2,30.3,1,30,1H18c-0.3,0-0.6,0.2-0.8,0.4l-13,19C4.1,20.6,4,20.8,4,21v4c0,0.6,0.4,1,1,1h38
	c0.6,0,1-0.4,1-1v-4C44,20.8,43.9,20.6,43.8,20.4z"/>
<path id="color_37_" d="M11,36c0,0.6,0.4,1,1,1c0.6,0,1-0.4,1-1v-8h-2V36z"/>
<path id="color_36_" d="M32,45h-7V33h3c0.6,0,1-0.4,1-1v-4H19v4c0,0.6,0.4,1,1,1h3v12h-7c-0.6,0-1,0.4-1,1s0.4,1,1,1h8h8
	c0.6,0,1-0.4,1-1S32.6,45,32,45z"/>
</svg>
