<?xml version="1.0" encoding="utf-8"?>
<!-- Generator: Adobe Illustrator 19.1.0, SVG Export Plug-In . SVG Version: 6.00 Build 0)  -->
<!DOCTYPE svg PUBLIC "-//W3C//DTD SVG 1.1//EN" "http://www.w3.org/Graphics/SVG/1.1/DTD/svg11.dtd">
<svg version="1.1" id="Layer_1" xmlns="http://www.w3.org/2000/svg" xmlns:xlink="http://www.w3.org/1999/xlink" x="0px" y="0px"
	 width="48px" height="48px" viewBox="0 0 48 48" enable-background="new 0 0 48 48" xml:space="preserve">
<path id="color_31_" d="M23,23V13H1v10h2H23z M9,17h6c0.6,0,1,0.4,1,1v0c0,0.6-0.4,1-1,1H9c-0.6,0-1-0.4-1-1v0C8,17.4,8.4,17,9,17z"
	/>
<path id="color_30_" d="M25,23h20h2V13H25V23z M33,17h6c0.6,0,1,0.4,1,1v0c0,0.6-0.4,1-1,1h-6c-0.6,0-1-0.4-1-1v0
	C32,17.4,32.4,17,33,17z"/>
<path d="M45,25v17c0,0.6,0.4,1,1,1c0.6,0,1-0.4,1-1V25H45z"/>
<path d="M47,11V6c0-0.6-0.4-1-1-1H2C1.4,5,1,5.4,1,6v5H47z"/>
<path d="M1,25v17c0,0.6,0.4,1,1,1c0.6,0,1-0.4,1-1V25H1z"/>
</svg>
