<?xml version="1.0" encoding="utf-8"?>
<!-- Generator: Adobe Illustrator 19.1.0, SVG Export Plug-In . SVG Version: 6.00 Build 0)  -->
<!DOCTYPE svg PUBLIC "-//W3C//DTD SVG 1.1//EN" "http://www.w3.org/Graphics/SVG/1.1/DTD/svg11.dtd">
<svg version="1.1" id="Layer_1" xmlns="http://www.w3.org/2000/svg" xmlns:xlink="http://www.w3.org/1999/xlink" x="0px" y="0px"
	 width="48px" height="48px" viewBox="0 0 48 48" enable-background="new 0 0 48 48" xml:space="preserve">
<path d="M46,15H25V6c0-2.8-2.2-5-5-5s-5,2.2-5,5c0,0.6,0.4,1,1,1s1-0.4,1-1c0-1.7,1.3-3,3-3s3,1.3,3,3v9H2c-0.6,0-1,0.4-1,1
	c0,9,7.1,16.5,16,17v13c0,0.6,0.4,1,1,1h12c0.6,0,1-0.4,1-1V33c8.9-0.5,16-7.9,16-17C47,15.4,46.6,15,46,15z"/>
</svg>
