<?xml version="1.0" encoding="utf-8"?>
<!-- Generator: Adobe Illustrator 19.1.0, SVG Export Plug-In . SVG Version: 6.00 Build 0)  -->
<!DOCTYPE svg PUBLIC "-//W3C//DTD SVG 1.1//EN" "http://www.w3.org/Graphics/SVG/1.1/DTD/svg11.dtd">
<svg version="1.1" id="Layer_1" xmlns="http://www.w3.org/2000/svg" xmlns:xlink="http://www.w3.org/1999/xlink" x="0px" y="0px"
	 width="48px" height="48px" viewBox="0 0 48 48" enable-background="new 0 0 48 48" xml:space="preserve">
<path id="color_51_" d="M24,11c0.6,0,1-0.4,1-1V2c0-0.6-0.4-1-1-1c-0.6,0-1,0.4-1,1v8C23,10.6,23.4,11,24,11z"/>
<path id="color_50_" d="M14,14c0.6,0,1-0.4,1-1V7c0-0.6-0.4-1-1-1c-0.6,0-1,0.4-1,1v6C13,13.6,13.4,14,14,14z"/>
<path id="color_49_" d="M34,14c0.6,0,1-0.4,1-1V7c0-0.6-0.4-1-1-1c-0.6,0-1,0.4-1,1v6C33,13.6,33.4,14,34,14z"/>
<path d="M46,23h-3v-1c0-2.8-2.2-5-5-5c-2.8,0-5,2.2-5,5v1h-4v-1c0-2.8-2.2-5-5-5c-2.8,0-5,2.2-5,5v1h-4v-1c0-2.8-2.2-5-5-5
	c-2.8,0-5,2.2-5,5v20c0,2.8,2.2,5,5,5c2.8,0,5-2.2,5-5v-1h4v1c0,2.8,2.2,5,5,5c2.8,0,5-2.2,5-5v-1h4v1c0,2.8,2.2,5,5,5
	c2.8,0,5-2.2,5-5V28h3c0.6,0,1-0.4,1-1v-3C47,23.4,46.6,23,46,23z M15,39V25h4v14H15z M29,39V25h4v14H29z"/>
</svg>
