<?xml version="1.0" encoding="utf-8"?>
<!-- Generator: Adobe Illustrator 19.1.0, SVG Export Plug-In . SVG Version: 6.00 Build 0)  -->
<!DOCTYPE svg PUBLIC "-//W3C//DTD SVG 1.1//EN" "http://www.w3.org/Graphics/SVG/1.1/DTD/svg11.dtd">
<svg version="1.1" id="Layer_1" xmlns="http://www.w3.org/2000/svg" xmlns:xlink="http://www.w3.org/1999/xlink" x="0px" y="0px"
	 width="48px" height="48px" viewBox="0 0 48 48" enable-background="new 0 0 48 48" xml:space="preserve">
<path d="M46,16c-0.6,0-1,0.4-1,1v7H26H12h-1H3V13V8V7c0-0.6-0.4-1-1-1C1.4,6,1,6.4,1,7v34c0,0.6,0.4,1,1,1c0.6,0,1-0.4,1-1v-7h42v7
	c0,0.6,0.4,1,1,1c0.6,0,1-0.4,1-1V17C47,16.4,46.6,16,46,16z"/>
<path id="color_14_" d="M13,18c0-2.8-2.2-5-5-5H5v9h8V18z"/>
</svg>
