<?xml version="1.0" encoding="utf-8"?>
<!-- Generator: Adobe Illustrator 19.1.0, SVG Export Plug-In . SVG Version: 6.00 Build 0)  -->
<!DOCTYPE svg PUBLIC "-//W3C//DTD SVG 1.1//EN" "http://www.w3.org/Graphics/SVG/1.1/DTD/svg11.dtd">
<svg version="1.1" id="Layer_1" xmlns="http://www.w3.org/2000/svg" xmlns:xlink="http://www.w3.org/1999/xlink" x="0px" y="0px"
	 width="48px" height="48px" viewBox="0 0 48 48" enable-background="new 0 0 48 48" xml:space="preserve">
<path id="color_52_" d="M44,30H4c-0.6,0-1,0.4-1,1v4c0,0.6,0.4,1,1,1h40c0.6,0,1-0.4,1-1v-4C45,30.4,44.6,30,44,30z"/>
<path id="color_38_" d="M9,38v8c0,0.6,0.4,1,1,1h28c0.6,0,1-0.4,1-1v-8H9z"/>
<path d="M37,19v-1c0-3.2-1.2-6.2-3.1-8.4L37.4,6L36,4.6l-3.6,3.6c-2-1.7-4.6-2.9-7.4-3.1V1h-2v4.1c-2.8,0.2-5.4,1.3-7.4,3.1L12,4.6
	L10.6,6l3.6,3.6c-2,2.3-3.1,5.2-3.1,8.4v1H7v2h4v7h26v-7h4v-2H37z"/>
</svg>
