<?xml version="1.0" encoding="utf-8"?>
<!-- Generator: Adobe Illustrator 19.1.0, SVG Export Plug-In . SVG Version: 6.00 Build 0)  -->
<!DOCTYPE svg PUBLIC "-//W3C//DTD SVG 1.1//EN" "http://www.w3.org/Graphics/SVG/1.1/DTD/svg11.dtd">
<svg version="1.1" id="Layer_1" xmlns="http://www.w3.org/2000/svg" xmlns:xlink="http://www.w3.org/1999/xlink" x="0px" y="0px"
	 width="24px" height="24px" viewBox="0 0 24 24" enable-background="new 0 0 24 24" xml:space="preserve">
<path d="M12,23c0.3,0,0.5-0.1,0.7-0.3C13,22.4,21,14.3,21,9c0-5.6-4.6-9-9-9S3,3.4,3,9c0,5.3,8,13.4,8.3,13.7
	C11.5,22.9,11.7,23,12,23z M12,2c3.4,0,7,2.6,7,7c0,3.3-4.5,8.9-7,11.6C9.5,17.9,5,12.4,5,9C5,4.6,8.6,2,12,2z"/>
<path d="M16,9c0-2.2-1.8-4-4-4S8,6.8,8,9s1.8,4,4,4S16,11.2,16,9z M10,9c0-1.1,0.9-2,2-2s2,0.9,2,2s-0.9,2-2,2S10,10.1,10,9z"/>
</svg>
