<?xml version="1.0" encoding="utf-8"?>
<!-- Generator: Adobe Illustrator 19.1.0, SVG Export Plug-In . SVG Version: 6.00 Build 0)  -->
<!DOCTYPE svg PUBLIC "-//W3C//DTD SVG 1.1//EN" "http://www.w3.org/Graphics/SVG/1.1/DTD/svg11.dtd">
<svg version="1.1" id="Layer_1" xmlns="http://www.w3.org/2000/svg" xmlns:xlink="http://www.w3.org/1999/xlink" x="0px" y="0px"
	 width="24px" height="24px" viewBox="0 0 24 24" enable-background="new 0 0 24 24" xml:space="preserve">
<path d="M20.5,3.5C20.5,3.5,20.5,3.5,20.5,3.5C18.3,1.3,15.3,0,12,0C5.4,0,0,5.4,0,12s5.4,12,12,12c3.3,0,6.3-1.3,8.5-3.5
	c0,0,0,0,0,0s0,0,0,0c2.2-2.2,3.5-5.2,3.5-8.5S22.7,5.7,20.5,3.5C20.5,3.5,20.5,3.5,20.5,3.5z M2,12C2,6.5,6.5,2,12,2
	c2.4,0,4.6,0.8,6.3,2.3l-2.1,2.1C15,5.5,13.5,5,12,5c-3.9,0-7,3.1-7,7s3.1,7,7,7c1.5,0,3-0.5,4.2-1.4l2.1,2.1
	C16.6,21.2,14.4,22,12,22C6.5,22,2,17.5,2,12z M12.5,10.1C12.3,10,12.2,10,12,10c-1.1,0-2,0.9-2,2s0.9,2,2,2c0.2,0,0.3,0,0.5-0.1
	l2.2,2.2C13.9,16.7,13,17,12,17c-2.8,0-5-2.2-5-5s2.2-5,5-5c1,0,1.9,0.3,2.8,0.8L12.5,10.1z M19.7,18.3l-5.8-5.8
	c0-0.2,0.1-0.3,0.1-0.5s0-0.3-0.1-0.5l5.8-5.8C21.2,7.4,22,9.6,22,12S21.2,16.6,19.7,18.3z"/>
</svg>
