<?xml version="1.0" encoding="utf-8"?>
<!-- Generator: Adobe Illustrator 19.1.0, SVG Export Plug-In . SVG Version: 6.00 Build 0)  -->
<!DOCTYPE svg PUBLIC "-//W3C//DTD SVG 1.1//EN" "http://www.w3.org/Graphics/SVG/1.1/DTD/svg11.dtd">
<svg version="1.1" id="Layer_1" xmlns="http://www.w3.org/2000/svg" xmlns:xlink="http://www.w3.org/1999/xlink" x="0px" y="0px"
	 width="24px" height="24px" viewBox="0 0 24 24" enable-background="new 0 0 24 24" xml:space="preserve">
<path d="M19.9,16.6C19.7,16.2,19.4,16,19,16h-2.8c1.9-2.4,3.8-5.5,3.8-8c0-5-4.1-8-8-8S4,3,4,8c0,2.5,1.9,5.6,3.8,8H5
	c-0.4,0-0.7,0.2-0.9,0.6l-3,6c-0.2,0.3-0.1,0.7,0,1C1.3,23.8,1.7,24,2,24h20c0.3,0,0.7-0.2,0.9-0.5c0.2-0.3,0.2-0.7,0-1L19.9,16.6z
	 M12,2c2.9,0,6,2.2,6,6c0,2.3-2.5,5.8-4.6,8.3c0,0,0,0,0,0c-0.5,0.6-1,1.2-1.4,1.6c-0.4-0.5-0.9-1-1.4-1.6c0,0,0,0,0,0
	C8.5,13.8,6,10.3,6,8C6,4.2,9.1,2,12,2z M3.6,22l2-4h3.8c0.9,1.1,1.7,1.9,1.9,2.1c0.2,0.2,0.4,0.3,0.7,0.3s0.5-0.1,0.7-0.3
	c0.2-0.2,1-1,1.9-2.1h3.8l2,4H3.6z"/>
<path d="M12,11c1.7,0,3-1.3,3-3s-1.3-3-3-3S9,6.3,9,8S10.3,11,12,11z M12,7c0.6,0,1,0.4,1,1s-0.4,1-1,1s-1-0.4-1-1S11.4,7,12,7z"/>
</svg>
