<?xml version="1.0" encoding="utf-8"?>
<!-- Generator: Adobe Illustrator 19.1.0, SVG Export Plug-In . SVG Version: 6.00 Build 0)  -->
<!DOCTYPE svg PUBLIC "-//W3C//DTD SVG 1.1//EN" "http://www.w3.org/Graphics/SVG/1.1/DTD/svg11.dtd">
<svg version="1.1" id="Layer_1" xmlns="http://www.w3.org/2000/svg" xmlns:xlink="http://www.w3.org/1999/xlink" x="0px" y="0px"
	 width="24px" height="24px" viewBox="0 0 24 24" enable-background="new 0 0 24 24" xml:space="preserve">
<path d="M22.8,4L18,5.2C17.6,1.9,14.7,0,12,0C9.4,0,6.7,1.7,6.1,4.7L0.8,6C0.3,6.1,0,6.5,0,7v15c0,0.3,0.1,0.6,0.4,0.8
	C0.6,22.9,0.8,23,1,23c0.1,0,0.2,0,0.2,0L9,21l5.7,1.9c0.2,0.1,0.4,0.1,0.6,0l8-2c0.4-0.1,0.8-0.5,0.8-1V5c0-0.3-0.1-0.6-0.4-0.8
	S23.1,4,22.8,4z M12,2c2,0,4,1.5,4,4c0,1.7-2.2,4.7-4,6.7c-1.8-2-4-5-4-6.7C8,3.5,10,2,12,2z M22,19.2L15,21l-5.7-1.9
	C9.1,19,8.9,19,8.8,19L2,20.7V7.8l4.1-1c0.6,3.3,4.7,7.6,5.2,8.1c0.2,0.2,0.4,0.3,0.7,0.3s0.5-0.1,0.7-0.3c0.5-0.5,4.2-4.3,5.1-7.5
	L22,6.3V19.2z"/>
<circle cx="12" cy="6" r="2"/>
</svg>
