<?xml version="1.0" encoding="utf-8"?>
<!-- Generator: Adobe Illustrator 19.1.0, SVG Export Plug-In . SVG Version: 6.00 Build 0)  -->
<!DOCTYPE svg PUBLIC "-//W3C//DTD SVG 1.1//EN" "http://www.w3.org/Graphics/SVG/1.1/DTD/svg11.dtd">
<svg version="1.1" id="Layer_1" xmlns="http://www.w3.org/2000/svg" xmlns:xlink="http://www.w3.org/1999/xlink" x="0px" y="0px"
	 width="24px" height="24px" viewBox="0 0 24 24" enable-background="new 0 0 24 24" xml:space="preserve">
<path d="M23,10h-3.1c-0.5-3.9-3.9-7-7.9-7s-7.4,3.1-7.9,7H1c-0.6,0-1,0.4-1,1s0.4,1,1,1h3.1c0.5,3.9,3.9,7,7.9,7s7.4-3.1,7.9-7H23
	c0.6,0,1-0.4,1-1S23.6,10,23,10z M12,17c-3.3,0-6-2.7-6-6s2.7-6,6-6c3.3,0,6,2.7,6,6c0,0,0,0,0,0s0,0,0,0C18,14.3,15.3,17,12,17z"/>
<path d="M14.7,8.3c-0.4-0.4-1-0.4-1.4,0L12,9.6l-1.3-1.3c-0.4-0.4-1-0.4-1.4,0s-0.4,1,0,1.4l1.3,1.3l-1.3,1.3c-0.4,0.4-0.4,1,0,1.4
	C9.5,13.9,9.7,14,10,14s0.5-0.1,0.7-0.3l1.3-1.3l1.3,1.3c0.2,0.2,0.5,0.3,0.7,0.3s0.5-0.1,0.7-0.3c0.4-0.4,0.4-1,0-1.4L13.4,11
	l1.3-1.3C15.1,9.3,15.1,8.7,14.7,8.3z"/>
</svg>
