<?xml version="1.0" encoding="utf-8"?>
<!-- Generator: Adobe Illustrator 19.1.0, SVG Export Plug-In . SVG Version: 6.00 Build 0)  -->
<!DOCTYPE svg PUBLIC "-//W3C//DTD SVG 1.1//EN" "http://www.w3.org/Graphics/SVG/1.1/DTD/svg11.dtd">
<svg version="1.1" id="Layer_1" xmlns="http://www.w3.org/2000/svg" xmlns:xlink="http://www.w3.org/1999/xlink" x="0px" y="0px"
	 width="24px" height="24px" viewBox="0 0 24 24" enable-background="new 0 0 24 24" xml:space="preserve">
<path d="M12,0c-0.3,0-0.6,0-0.9,0c0,0-0.1,0-0.1,0C8.9,0.2,6.9,1,5.2,2.1c0,0-0.1,0-0.1,0.1C2,4.3,0,7.9,0,12c0,3.5,1.5,6.7,3.9,8.9
	C4,20.9,4.1,21,4.2,21.1C6.3,22.9,9,24,12,24c6.6,0,12-5.4,12-12S18.6,0,12,0z M19,4.9C17.2,5.6,15.3,6,14.9,6c-0.1,0-0.1,0-0.1,0
	c-0.1-0.1-0.3-0.4-0.5-0.7C14.2,5,14,4.8,13.8,4.5c-0.2-0.4-0.5-0.7-0.9-1.1C12.6,3,12,2.3,12,2C14.7,2,17.2,3.1,19,4.9z M2,12
	c0-3.1,1.4-5.9,3.7-7.7C6,4.6,6.3,5,6.6,5.5c0.6,1,1,2.4,0.6,2.9C6.9,8.8,6.1,9.2,5.4,9.5C4.3,10.1,3,10.7,3,12c0,1,0.7,1.8,1.4,2.6
	C4.7,15,5,15.3,5.2,15.6c0.6,0.9,0.6,1.9,0,2.9c-0.1,0.1-0.2,0.3-0.4,0.4C3.1,17.1,2,14.7,2,12z M12,22c-2.1,0-4.1-0.7-5.7-1.8
	c0.2-0.2,0.4-0.5,0.5-0.7c1-1.7,1-3.5,0-5.1c-0.3-0.4-0.6-0.8-0.9-1.1c-0.3-0.3-0.8-1-0.9-1.3c0.2-0.2,0.9-0.5,1.3-0.8
	c0.9-0.4,1.9-0.9,2.5-1.7C10.2,7.8,8.7,5,8.3,4.5C8,4,7.7,3.5,7.4,3.1c0.8-0.4,1.7-0.8,2.7-1c0.1,0.9,0.8,1.8,1.5,2.5
	C11.7,5,12,5.3,12.2,5.5c0.2,0.3,0.3,0.5,0.4,0.7c0.4,0.8,1,1.7,2.3,1.7c0.1,0,0.1,0,0.2,0c0.6,0,3.1-0.6,5.3-1.5
	C21.4,8.1,22,10,22,12C22,17.5,17.5,22,12,22z"/>
<path d="M15.5,8.9c-1.4,0-2.8,0.6-3.6,1.5c-0.7,0.7-1,1.7-0.9,2.6c0.2,1.4,0.1,2.5,0,3.4c-0.1,1.4-0.2,2.8,1.6,3.5
	c0.3,0.1,0.6,0.2,1,0.2c0.8,0,1.7-0.3,2.6-1c1.9-1.3,3.8-3.9,3.8-6.3C20,10.7,18,8.9,15.5,8.9z M15.1,17.5c-0.9,0.6-1.5,0.7-1.7,0.6
	C13,17.9,13,17.9,13,16.5c0.1-0.9,0.1-2.1,0-3.7c0-0.4,0.1-0.7,0.4-1c0.5-0.5,1.3-0.9,2.1-0.9c1.4,0,2.5,0.9,2.5,2
	C18,14.5,16.6,16.5,15.1,17.5z"/>
</svg>
