<?xml version="1.0" encoding="utf-8"?>
<!-- Generator: Adobe Illustrator 19.1.0, SVG Export Plug-In . SVG Version: 6.00 Build 0)  -->
<!DOCTYPE svg PUBLIC "-//W3C//DTD SVG 1.1//EN" "http://www.w3.org/Graphics/SVG/1.1/DTD/svg11.dtd">
<svg version="1.1" id="Layer_1" xmlns="http://www.w3.org/2000/svg" xmlns:xlink="http://www.w3.org/1999/xlink" x="0px" y="0px"
	 width="24px" height="24px" viewBox="0 0 24 24" enable-background="new 0 0 24 24" xml:space="preserve">
<path d="M17,0c-1.6,0-3.1,0.8-4,2c-0.3,0-0.7,0-1,0C9.7,2,7.5,2.7,5.8,4c0,0-0.1,0-0.1,0.1C2.9,6,1,9.3,1,13c0,3.2,1.4,6.1,3.6,8.1
	c0.1,0.1,0.1,0.1,0.2,0.2C6.7,23,9.2,24,12,24c0,0,0,0,0,0c0,0,0,0,0,0c0,0,0,0,0,0c3.5,0,6.6-1.6,8.6-4.2c0,0,0,0,0-0.1
	c1.5-1.9,2.3-4.2,2.3-6.7c0-2-0.6-4-1.6-5.7C21.8,6.6,22,5.8,22,5C22,2.2,19.8,0,17,0z M17,2c1.7,0,3,1.3,3,3s-1.3,3-3,3s-3-1.3-3-3
	S15.3,2,17,2z M12.1,4C12,4.3,12,4.7,12,5c0,2.4,1.7,4.4,4,4.9V12c0,0.6,0.4,1,1,1s1-0.4,1-1V9.9c0.8-0.2,1.4-0.5,2-0.9
	c0.6,1.2,1,2.6,1,4c0,1.3-0.3,2.6-0.8,3.7c-0.6-0.6-1.4-0.8-2.1-0.6c-1.2,0.3-1.8-0.1-2.6-1c-0.7-0.7-1.5-1.5-2.9-1
	c-1.6,0.6-2.6,2.1-3,4.1c-0.2,1.3,0,2.5,0.4,3.6c-1.1-0.3-2.2-0.7-3.1-1.3c0.2-0.2,0.3-0.4,0.4-0.6c1-1.6,0.9-3.3,0-4.7
	c-0.2-0.4-0.5-0.7-0.8-1c-0.3-0.3-0.7-0.8-0.8-1.1c0.2-0.2,0.7-0.4,1.1-0.6c0.8-0.4,1.7-0.8,2.3-1.6C10.5,9.2,9,6.6,8.7,6.1
	C8.5,5.7,8.2,5.3,7.9,5c1.2-0.6,2.6-1,4.1-1C12,4,12.1,4,12.1,4z M3,13c0-2.8,1.2-5.2,3.2-6.9c0.3,0.3,0.6,0.6,0.8,1
	C7.5,8,7.9,9.2,7.6,9.7c-0.3,0.4-1,0.7-1.6,1c-1.1,0.5-2.3,1.1-2.3,2.3c0,0.9,0.7,1.7,1.3,2.5c0.3,0.3,0.5,0.6,0.7,0.8
	c0.5,0.8,0.5,1.6,0,2.6c-0.1,0.1-0.2,0.2-0.2,0.3C3.9,17.5,3,15.4,3,13z M12.4,22c-0.6-0.7-0.9-2.2-0.7-3.5c0.1-0.7,0.5-2.1,1.7-2.5
	c0.1,0,0.5,0.4,0.7,0.6c0.8,0.8,2.1,2.1,4.5,1.5c0.1,0,0.3,0.1,0.4,0.3c0,0.1,0.1,0.2,0,0.3C17.4,20.6,15.1,21.9,12.4,22z"/>
</svg>
