<?xml version="1.0" encoding="utf-8"?>
<!-- Generator: Adobe Illustrator 19.1.0, SVG Export Plug-In . SVG Version: 6.00 Build 0)  -->
<!DOCTYPE svg PUBLIC "-//W3C//DTD SVG 1.1//EN" "http://www.w3.org/Graphics/SVG/1.1/DTD/svg11.dtd">
<svg version="1.1" id="Layer_1" xmlns="http://www.w3.org/2000/svg" xmlns:xlink="http://www.w3.org/1999/xlink" x="0px" y="0px"
	 width="24px" height="24px" viewBox="0 0 24 24" enable-background="new 0 0 24 24" xml:space="preserve">
<path d="M22.8,1L15,3L9.3,1.1C9.2,1,9.1,1,9,1c0,0,0,0,0,0c0,0,0,0,0,0C8.9,1,8.8,1,8.8,1l-8,2C0.3,3.1,0,3.5,0,4v18
	c0,0.3,0.1,0.6,0.4,0.8C0.6,22.9,0.8,23,1,23c0.1,0,0.2,0,0.2,0L9,21l5.7,1.9c0.1,0,0.2,0,0.3,0c0,0,0,0,0,0c0,0,0,0,0,0
	c0.1,0,0.1,0,0.2,0l8-2c0.4-0.1,0.8-0.5,0.8-1V2c0-0.3-0.1-0.6-0.4-0.8C23.4,1,23.1,1,22.8,1z M10,3.4l4,1.3v15.9l-4-1.3V3.4z
	 M2,4.8l6-1.5v15.9l-6,1.5V4.8z M22,19.2l-6,1.5V4.8l6-1.5V19.2z"/>
</svg>
