<?xml version="1.0" encoding="utf-8"?>
<!-- Generator: Adobe Illustrator 19.1.0, SVG Export Plug-In . SVG Version: 6.00 Build 0)  -->
<!DOCTYPE svg PUBLIC "-//W3C//DTD SVG 1.1//EN" "http://www.w3.org/Graphics/SVG/1.1/DTD/svg11.dtd">
<svg version="1.1" id="Layer_1" xmlns="http://www.w3.org/2000/svg" xmlns:xlink="http://www.w3.org/1999/xlink" x="0px" y="0px"
	 width="24px" height="24px" viewBox="0 0 24 24" enable-background="new 0 0 24 24" xml:space="preserve">
<path d="M23.6,4.2C23.4,4,23.1,4,22.8,4L17,5.5c0-0.2,0-0.3,0-0.5c0-2.8-2.2-5-5-5C9.4,0,7.3,2,7.1,4.5L0.8,6C0.3,6.1,0,6.5,0,7v15
	c0,0.3,0.1,0.6,0.4,0.8C0.6,22.9,0.8,23,1,23c0.1,0,0.2,0,0.2,0L9,21l5.7,1.9c0.2,0.1,0.4,0.1,0.6,0l8-2c0.4-0.1,0.8-0.5,0.8-1V5
	C24,4.7,23.9,4.4,23.6,4.2z M12,2c1.7,0,3,1.3,3,3c0,0.5-0.1,0.9-0.3,1.3c0,0,0,0,0,0.1C14.1,7.3,13.1,8,12,8c-1.7,0-3-1.3-3-3
	S10.3,2,12,2z M22,19.2L15,21l-5.7-1.9C9.1,19,8.9,19,8.8,19L2,20.7V7.8l5.2-1.3c0.5,1.7,2,3.1,3.8,3.4V14c0,0.6,0.4,1,1,1
	s1-0.4,1-1V9.9c1.3-0.3,2.5-1.1,3.2-2.2L22,6.3V19.2z"/>
</svg>
