<?xml version="1.0" encoding="utf-8"?>
<!-- Generator: Adobe Illustrator 19.1.0, SVG Export Plug-In . SVG Version: 6.00 Build 0)  -->
<!DOCTYPE svg PUBLIC "-//W3C//DTD SVG 1.1//EN" "http://www.w3.org/Graphics/SVG/1.1/DTD/svg11.dtd">
<svg version="1.1" id="Layer_1" xmlns="http://www.w3.org/2000/svg" xmlns:xlink="http://www.w3.org/1999/xlink" x="0px" y="0px"
	 width="24px" height="24px" viewBox="0 0 24 24" enable-background="new 0 0 24 24" xml:space="preserve">
<path d="M6,22c-0.6,0-1,0.4-1,1s0.4,1,1,1h12c0.6,0,1-0.4,1-1s-0.4-1-1-1h-3v-8.7c2.4-1.1,4-3.5,4-6.3c0-3.9-3.1-7-7-7S5,3.1,5,7
	c0,2.8,1.6,5.2,4,6.3V22H6z M7,7c0-2.8,2.2-5,5-5s5,2.2,5,5s-2.2,5-5,5S7,9.8,7,7z M11,13.9c0.3,0,0.7,0.1,1,0.1s0.7,0,1-0.1V22h-2
	V13.9z"/>
</svg>
