<?xml version="1.0" encoding="utf-8"?>
<!-- Generator: Adobe Illustrator 19.1.0, SVG Export Plug-In . SVG Version: 6.00 Build 0)  -->
<!DOCTYPE svg PUBLIC "-//W3C//DTD SVG 1.1//EN" "http://www.w3.org/Graphics/SVG/1.1/DTD/svg11.dtd">
<svg version="1.1" id="Layer_1" xmlns="http://www.w3.org/2000/svg" xmlns:xlink="http://www.w3.org/1999/xlink" x="0px" y="0px"
	 width="24px" height="24px" viewBox="0 0 24 24" enable-background="new 0 0 24 24" xml:space="preserve">
<path d="M12,24c4.8,0,10-1.3,10-4c0-2-2.8-3.2-6-3.7c1.9-2.5,4-5.7,4-8.3c0-5-4.1-8-8-8S4,3,4,8c0,2.6,2.1,5.8,4,8.3
	C4.8,16.8,2,18,2,20C2,22.7,7.2,24,12,24z M12,2c2.9,0,6,2.2,6,6c0,2.9-3.8,7.6-6,9.9C9.8,15.6,6,10.9,6,8C6,4.2,9.1,2,12,2z
	 M9.5,18.1c0.9,1,1.6,1.7,1.8,1.9c0.2,0.2,0.4,0.3,0.7,0.3s0.5-0.1,0.7-0.3c0.2-0.2,0.9-0.9,1.8-1.9c3.8,0.4,5.5,1.5,5.5,1.9
	c0,0.5-2.8,2-8,2s-8-1.5-8-2C4,19.6,5.7,18.5,9.5,18.1z"/>
<path d="M15,8c0-1.7-1.3-3-3-3S9,6.3,9,8s1.3,3,3,3S15,9.7,15,8z M11,8c0-0.6,0.4-1,1-1s1,0.4,1,1s-0.4,1-1,1S11,8.6,11,8z"/>
</svg>
