<?xml version="1.0" encoding="utf-8"?>
<!-- Generator: Adobe Illustrator 19.1.0, SVG Export Plug-In . SVG Version: 6.00 Build 0)  -->
<!DOCTYPE svg PUBLIC "-//W3C//DTD SVG 1.1//EN" "http://www.w3.org/Graphics/SVG/1.1/DTD/svg11.dtd">
<svg version="1.1" id="Layer_1" xmlns="http://www.w3.org/2000/svg" xmlns:xlink="http://www.w3.org/1999/xlink" x="0px" y="0px"
	 width="24px" height="24px" viewBox="0 0 24 24" enable-background="new 0 0 24 24" xml:space="preserve">
<path d="M6.9,21C7,21,7,21,6.9,21c0.5,0,0.8-0.2,1-0.6l3.8-8.6l8.6-3.8c0.4-0.2,0.6-0.6,0.6-1c0-0.4-0.3-0.8-0.7-0.9l-18-5
	c-0.3-0.1-0.7,0-1,0.3S0.9,1.9,1,2.3l5,18C6.1,20.7,6.5,21,6.9,21z M17,7.2l-6.5,2.9c-0.2,0.1-0.4,0.3-0.5,0.5L7.2,17L3.4,3.4
	L17,7.2z"/>
</svg>
