<?xml version="1.0" encoding="utf-8"?>
<!-- Generator: Adobe Illustrator 19.1.0, SVG Export Plug-In . SVG Version: 6.00 Build 0)  -->
<!DOCTYPE svg PUBLIC "-//W3C//DTD SVG 1.1//EN" "http://www.w3.org/Graphics/SVG/1.1/DTD/svg11.dtd">
<svg version="1.1" id="Layer_1" xmlns="http://www.w3.org/2000/svg" xmlns:xlink="http://www.w3.org/1999/xlink" x="0px" y="0px"
	 width="24px" height="24px" viewBox="0 0 24 24" enable-background="new 0 0 24 24" xml:space="preserve">
<path d="M22.8,5.4C22.6,5.2,22.3,5,22,5h-6V2c0-0.6-0.4-1-1-1H4c0-0.6-0.4-1-1-1S2,0.4,2,1v22c0,0.6,0.4,1,1,1s1-0.4,1-1v-8h4v3
	c0,0,0,0.1,0,0.1c0,0.1,0,0.1,0,0.2c0,0.1,0,0.1,0.1,0.2c0,0,0,0.1,0,0.1c0,0,0.1,0.1,0.1,0.1c0,0,0,0,0,0c0.1,0.1,0.2,0.1,0.3,0.2
	c0,0,0,0,0.1,0C8.8,19,8.9,19,9,19c0,0,0,0,0,0h13c0.3,0,0.6-0.2,0.8-0.4c0.2-0.3,0.2-0.6,0.1-0.9L21.1,12l1.9-5.7
	C23.1,6,23,5.7,22.8,5.4z M4,3h10v10H4V3z M11.7,15L10,16.1V15H11.7z M19.1,12.3l1.6,4.7h-8.3l3.3-2.2c0,0,0.1-0.1,0.1-0.1
	c0,0,0,0,0,0c0.1-0.1,0.1-0.2,0.2-0.3c0,0,0,0,0-0.1c0-0.1,0.1-0.2,0.1-0.3V7h4.6l-1.6,4.7C19,11.9,19,12.1,19.1,12.3z"/>
</svg>
