<?xml version="1.0" encoding="utf-8"?>
<!-- Generator: Adobe Illustrator 19.1.0, SVG Export Plug-In . SVG Version: 6.00 Build 0)  -->
<!DOCTYPE svg PUBLIC "-//W3C//DTD SVG 1.1//EN" "http://www.w3.org/Graphics/SVG/1.1/DTD/svg11.dtd">
<svg version="1.1" id="Layer_1" xmlns="http://www.w3.org/2000/svg" xmlns:xlink="http://www.w3.org/1999/xlink" x="0px" y="0px"
	 width="24px" height="24px" viewBox="0 0 24 24" enable-background="new 0 0 24 24" xml:space="preserve">
<path d="M4,24c0.6,0,1-0.4,1-1V1c0-0.6-0.4-1-1-1S3,0.4,3,1v22C3,23.6,3.4,24,4,24z"/>
<path d="M20,2H7C6.4,2,6,2.4,6,3v10c0,0.6,0.4,1,1,1h13c0.6,0,1-0.4,1-1V3C21,2.4,20.6,2,20,2z M19,12H8V4h11V12z"/>
</svg>
