<?xml version="1.0" encoding="utf-8"?>
<!-- Generator: Adobe Illustrator 19.1.0, SVG Export Plug-In . SVG Version: 6.00 Build 0)  -->
<!DOCTYPE svg PUBLIC "-//W3C//DTD SVG 1.1//EN" "http://www.w3.org/Graphics/SVG/1.1/DTD/svg11.dtd">
<svg version="1.1" id="Layer_1" xmlns="http://www.w3.org/2000/svg" xmlns:xlink="http://www.w3.org/1999/xlink" x="0px" y="0px"
	 width="24px" height="24px" viewBox="0 0 24 24" enable-background="new 0 0 24 24" xml:space="preserve">
<path d="M22.8,1L15,3L9.3,1.1C9.1,1,8.9,1,8.8,1l-8,2C0.3,3.1,0,3.5,0,4v15c0,0.3,0.1,0.6,0.4,0.8C0.6,19.9,0.8,20,1,20
	c0.1,0,0.2,0,0.2,0l7-1.7l0.8,3c0.1,0.4,0.4,0.7,0.8,0.7c0,0,0.1,0,0.1,0c0.3,0,0.7-0.2,0.9-0.5l1.4-2.4l2.4,0.8
	c0.2,0.1,0.4,0.1,0.6,0l8-2c0.4-0.1,0.8-0.5,0.8-1V2c0-0.3-0.1-0.6-0.4-0.8C23.4,1,23.1,1,22.8,1z M10.3,18.5l-1.9-7.1l7.1,1.9
	l-3,1.8c-0.1,0.1-0.3,0.2-0.3,0.3L10.3,18.5z M22,16.2L15,18l-1.7-0.6l0.4-0.7l4.8-2.9c0.3-0.2,0.5-0.6,0.5-1s-0.3-0.7-0.7-0.8
	l-11-3c-0.3-0.1-0.7,0-1,0.3s-0.4,0.6-0.3,1l1.6,6L2,17.7V4.8L9,3l5.7,1.9C14.9,5,15.1,5,15.2,5L22,3.3V16.2z"/>
</svg>
