<?xml version="1.0" encoding="utf-8"?>
<!-- Generator: Adobe Illustrator 19.1.0, SVG Export Plug-In . SVG Version: 6.00 Build 0)  -->
<!DOCTYPE svg PUBLIC "-//W3C//DTD SVG 1.1//EN" "http://www.w3.org/Graphics/SVG/1.1/DTD/svg11.dtd">
<svg version="1.1" id="Layer_1" xmlns="http://www.w3.org/2000/svg" xmlns:xlink="http://www.w3.org/1999/xlink" x="0px" y="0px"
	 width="24px" height="24px" viewBox="0 0 24 24" enable-background="new 0 0 24 24" xml:space="preserve">
<path d="M12,24c4.8,0,10-1.3,10-4c0-2.6-4.5-3.8-9-4v-2.1c3.4-0.5,6-3.4,6-6.9c0-3.9-3.1-7-7-7S5,3.1,5,7c0,3.5,2.6,6.4,6,6.9V16
	c-4.5,0.2-9,1.4-9,4C2,22.7,7.2,24,12,24z M7,7c0-2.8,2.2-5,5-5s5,2.2,5,5s-2.2,5-5,5S7,9.8,7,7z M11,18v1c0,0.6,0.4,1,1,1
	s1-0.4,1-1v-1c4.6,0.2,7,1.5,7,2c0,0.5-2.8,2-8,2s-8-1.5-8-2C4,19.5,6.4,18.2,11,18z"/>
</svg>
