<?xml version="1.0" encoding="utf-8"?>
<!-- Generator: Adobe Illustrator 19.1.0, SVG Export Plug-In . SVG Version: 6.00 Build 0)  -->
<!DOCTYPE svg PUBLIC "-//W3C//DTD SVG 1.1//EN" "http://www.w3.org/Graphics/SVG/1.1/DTD/svg11.dtd">
<svg version="1.1" id="Layer_1" xmlns="http://www.w3.org/2000/svg" xmlns:xlink="http://www.w3.org/1999/xlink" x="0px" y="0px"
	 width="24px" height="24px" viewBox="0 0 24 24" enable-background="new 0 0 24 24" xml:space="preserve">
<path d="M20,0H4C3.4,0,3,0.4,3,1v21c0,0.4,0.2,0.7,0.5,0.9c0.3,0.2,0.7,0.2,1,0l7.5-4.7l7.5,4.7c0.2,0.1,0.3,0.2,0.5,0.2
	c0.2,0,0.3,0,0.5-0.1c0.3-0.2,0.5-0.5,0.5-0.9V1C21,0.4,20.6,0,20,0z M19,20.2l-6.5-4C12.4,16.1,12.2,16,12,16s-0.4,0.1-0.5,0.2
	l-6.5,4V2h14V20.2z"/>
</svg>
