<?xml version="1.0" encoding="utf-8"?>
<!-- Generator: Adobe Illustrator 19.1.0, SVG Export Plug-In . SVG Version: 6.00 Build 0)  -->
<!DOCTYPE svg PUBLIC "-//W3C//DTD SVG 1.1//EN" "http://www.w3.org/Graphics/SVG/1.1/DTD/svg11.dtd">
<svg version="1.1" id="Layer_1" xmlns="http://www.w3.org/2000/svg" xmlns:xlink="http://www.w3.org/1999/xlink" x="0px" y="0px"
	 width="24px" height="24px" viewBox="0 0 24 24" enable-background="new 0 0 24 24" xml:space="preserve">
<path d="M12,5c-3.9,0-7,3.1-7,7s3.1,7,7,7s7-3.1,7-7S15.9,5,12,5z M12,17c-2.8,0-5-2.2-5-5s2.2-5,5-5s5,2.2,5,5S14.8,17,12,17z"/>
<circle cx="12" cy="12" r="2"/>
<path d="M23,4c0-1.7-1.3-3-3-3c-0.7,0-1.4,0.3-1.9,0.7C16.3,0.6,14.2,0,12,0C5.4,0,0,5.4,0,12s5.4,12,12,12s12-5.4,12-12
	c0-2.2-0.6-4.3-1.7-6.1C22.7,5.4,23,4.7,23,4z M20,3c0.6,0,1,0.4,1,1c0,0.3-0.2,0.6-0.5,0.8c0,0-0.1,0-0.1,0.1c0,0,0,0-0.1,0.1
	C20.3,5,20.1,5,20,5c-0.6,0-1-0.4-1-1S19.4,3,20,3z M12,22C6.5,22,2,17.5,2,12S6.5,2,12,2c1.8,0,3.5,0.5,5.1,1.4C17,3.6,17,3.8,17,4
	c0,1.7,1.3,3,3,3c0.2,0,0.4,0,0.6-0.1C21.5,8.5,22,10.2,22,12C22,17.5,17.5,22,12,22z"/>
</svg>
