<?xml version="1.0" encoding="utf-8"?>
<!-- Generator: Adobe Illustrator 19.1.0, SVG Export Plug-In . SVG Version: 6.00 Build 0)  -->
<!DOCTYPE svg PUBLIC "-//W3C//DTD SVG 1.1//EN" "http://www.w3.org/Graphics/SVG/1.1/DTD/svg11.dtd">
<svg version="1.1" id="Layer_1" xmlns="http://www.w3.org/2000/svg" xmlns:xlink="http://www.w3.org/1999/xlink" x="0px" y="0px"
	 width="24px" height="24px" viewBox="0 0 24 24" enable-background="new 0 0 24 24" xml:space="preserve">
<path d="M22.8,4l-3.4,0.8C18.1,2,15.3,0,12,0C8.6,0,5.7,2.1,4.6,5.1L0.8,6C0.3,6.1,0,6.5,0,7v15c0,0.3,0.1,0.6,0.4,0.8
	C0.6,22.9,0.8,23,1,23c0.1,0,0.2,0,0.2,0L9,21l5.7,1.9c0.2,0.1,0.4,0.1,0.6,0l8-2c0.4-0.1,0.8-0.5,0.8-1V5c0-0.3-0.1-0.6-0.4-0.8
	C23.4,4,23.1,4,22.8,4z M12,2c2.7,0,4.9,1.7,5.7,4.1c0,0.1,0,0.1,0,0.2c0,0.1,0.1,0.2,0.1,0.2C17.9,7,18,7.5,18,8c0,3.3-2.7,6-6,6
	s-6-2.7-6-6S8.7,2,12,2z M22,19.2L15,21l-5.7-1.9C9.1,19,8.9,19,8.8,19L2,20.7V7.8l2-0.5C4,7.5,4,7.8,4,8c0,4.4,3.6,8,8,8s8-3.6,8-8
	c0-0.4,0-0.8-0.1-1.2L22,6.3V19.2z"/>
<path d="M10,11c0.1,0,0.2,0,0.3-0.1l3-1c0.3-0.1,0.5-0.3,0.6-0.6l1-3c0.1-0.4,0-0.8-0.2-1s-0.7-0.4-1-0.2l-3,1
	c-0.3,0.1-0.5,0.3-0.6,0.6l-1,3c-0.1,0.4,0,0.8,0.2,1C9.5,10.9,9.7,11,10,11z M11.8,7.8l0.6-0.2l-0.2,0.6l-0.6,0.2L11.8,7.8z"/>
</svg>
