<?xml version="1.0" encoding="utf-8"?>
<!-- Generator: Adobe Illustrator 18.1.1, SVG Export Plug-In . SVG Version: 6.00 Build 0)  -->
<!DOCTYPE svg PUBLIC "-//W3C//DTD SVG 1.1//EN" "http://www.w3.org/Graphics/SVG/1.1/DTD/svg11.dtd">
<svg version="1.1" id="Layer_1" xmlns="http://www.w3.org/2000/svg" xmlns:xlink="http://www.w3.org/1999/xlink" x="0px" y="0px"
	 width="32px" height="32px" viewBox="0 0 32 32" enable-background="new 0 0 32 32" xml:space="preserve">
<path d="M9,6h1v20c0,3.3,2.7,6,6,6s6-2.7,6-6V6h1c0.6,0,1-0.4,1-1V1c0-0.6-0.4-1-1-1H9C8.4,0,8,0.4,8,1v4C8,5.6,8.4,6,9,6z M16,30
	c-2.2,0-4-1.8-4-4v-2h3c0.6,0,1-0.4,1-1s-0.4-1-1-1h-3v-2h3c0.6,0,1-0.4,1-1s-0.4-1-1-1h-3v-2h3c0.6,0,1-0.4,1-1s-0.4-1-1-1h-3v-4h8
	v16C20,28.2,18.2,30,16,30z M10,2h12v2h-1c-0.6,0-1,0.4-1,1v3h-8V5c0-0.6-0.4-1-1-1h-1V2z"/>
</svg>
