<?xml version="1.0" encoding="utf-8"?>
<!-- Generator: Adobe Illustrator 18.1.1, SVG Export Plug-In . SVG Version: 6.00 Build 0)  -->
<!DOCTYPE svg PUBLIC "-//W3C//DTD SVG 1.1//EN" "http://www.w3.org/Graphics/SVG/1.1/DTD/svg11.dtd">
<svg version="1.1" id="Layer_1" xmlns="http://www.w3.org/2000/svg" xmlns:xlink="http://www.w3.org/1999/xlink" x="0px" y="0px"
	 width="32px" height="32px" viewBox="0 0 32 32" enable-background="new 0 0 32 32" xml:space="preserve">
<path d="M31.4,6.1C31.3,6,31.1,6,31,6h-8.6L18,2.3c0-0.1,0-0.2,0-0.3c0-1.1-0.9-2-2-2s-2,0.9-2,2c0,0.1,0,0.2,0,0.3L9.6,6H1
	C0.9,6,0.7,6,0.6,6.1C0.4,6.2,0.2,6.4,0.1,6.6C0,6.7,0,6.9,0,7v24c0,0.1,0,0.3,0.1,0.4c0.1,0.2,0.3,0.4,0.5,0.5C0.7,32,0.9,32,1,32
	h30c0.1,0,0.3,0,0.4-0.1c0.2-0.1,0.4-0.3,0.5-0.5C32,31.3,32,31.1,32,31V7c0-0.1,0-0.3-0.1-0.4C31.8,6.4,31.6,6.2,31.4,6.1z M28.6,8
	l-2,2H5.4l-2-2H28.6z M18,26v-1h5v1H18z M24,23h-7c-0.6,0-1,0.4-1,1v2H6V12h20v14h-1v-2C25,23.4,24.6,23,24,23z M4,11.4v15.2l-2,2
	V9.4L4,11.4z M5.4,28h21.2l2,2H3.4L5.4,28z M28,26.6V11.4l2-2v19.2L28,26.6z M15.3,3.9C15.5,4,15.8,4,16,4c0.2,0,0.5,0,0.7-0.1
	L19.2,6h-6.5L15.3,3.9z"/>
</svg>
