<?xml version="1.0" encoding="utf-8"?>
<!-- Generator: Adobe Illustrator 18.1.1, SVG Export Plug-In . SVG Version: 6.00 Build 0)  -->
<!DOCTYPE svg PUBLIC "-//W3C//DTD SVG 1.1//EN" "http://www.w3.org/Graphics/SVG/1.1/DTD/svg11.dtd">
<svg version="1.1" id="Layer_1" xmlns="http://www.w3.org/2000/svg" xmlns:xlink="http://www.w3.org/1999/xlink" x="0px" y="0px"
	 width="32px" height="32px" viewBox="0 0 32 32" enable-background="new 0 0 32 32" xml:space="preserve">
<path d="M31.7,1.7c0.4-0.4,0.4-1,0-1.4s-1-0.4-1.4,0L27.6,3H19V1c0-0.6-0.4-1-1-1h-4c-0.6,0-1,0.4-1,1v2H4C3.4,3,3,3.4,3,4v16H1
	c-0.6,0-1,0.4-1,1v3c0,0.6,0.4,1,1,1h9.8l-4.6,5.3c-0.4,0.4-0.3,1,0.1,1.4C6.5,31.9,6.8,32,7,32c0.3,0,0.6-0.1,0.8-0.3l5.7-6.7H15v5
	c0,0.6,0.4,1,1,1s1-0.4,1-1v-5h1.5l5.7,6.7c0.2,0.2,0.5,0.3,0.8,0.3c0.2,0,0.5-0.1,0.7-0.2c0.4-0.4,0.5-1,0.1-1.4L21.2,25H31
	c0.6,0,1-0.4,1-1v-3c0-0.6-0.4-1-1-1h-2V4.4L31.7,1.7z M15,2h2v1h-2V2z M30,23H2v-1h28V23z M27,20H5V5h20.6l-4.3,4.3
	c-0.4,0.4-0.4,1,0,1.4c0.2,0.2,0.5,0.3,0.7,0.3s0.5-0.1,0.7-0.3L27,6.4V20z"/>
<path d="M10,11h8c0.6,0,1-0.4,1-1s-0.4-1-1-1h-8c-0.6,0-1,0.4-1,1S9.4,11,10,11z"/>
<path d="M10,14c-0.6,0-1,0.4-1,1s0.4,1,1,1h12c0.6,0,1-0.4,1-1s-0.4-1-1-1H10z"/>
</svg>
