<?xml version="1.0" encoding="utf-8"?>
<!-- Generator: Adobe Illustrator 18.1.1, SVG Export Plug-In . SVG Version: 6.00 Build 0)  -->
<!DOCTYPE svg PUBLIC "-//W3C//DTD SVG 1.1//EN" "http://www.w3.org/Graphics/SVG/1.1/DTD/svg11.dtd">
<svg version="1.1" id="Layer_1" xmlns="http://www.w3.org/2000/svg" xmlns:xlink="http://www.w3.org/1999/xlink" x="0px" y="0px"
	 width="32px" height="32px" viewBox="0 0 32 32" enable-background="new 0 0 32 32" xml:space="preserve">
<path d="M21,15V7V6c0-2.2-1.8-4-4-4h-3c-0.6,0-1,0.4-1,1s0.4,1,1,1h3c1.1,0,2,0.9,2,2h-4c-2.8,0-5,2.2-5,5s2.2,5,5,5h5
	C20.6,16,21,15.6,21,15z M12,11c0-1.7,1.3-3,3-3h4v6h-4C13.3,14,12,12.7,12,11z"/>
<path d="M7.5,19H4v-6c0-0.6-0.4-1-1-1s-1,0.4-1,1v7v9c0,0.6,0.4,1,1,1h4.5c3,0,5.5-2.5,5.5-5.5S10.5,19,7.5,19z M7.5,28H4v-7h3.5
	c1.9,0,3.5,1.6,3.5,3.5S9.4,28,7.5,28z"/>
<path d="M26,21h3c0.6,0,1-0.4,1-1s-0.4-1-1-1h-3c-3.3,0-6,2.7-6,6s2.7,6,6,6h3c0.6,0,1-0.4,1-1s-0.4-1-1-1h-3c-2.2,0-4-1.8-4-4
	S23.8,21,26,21z"/>
</svg>
