<?xml version="1.0" encoding="utf-8"?>
<!-- Generator: Adobe Illustrator 18.1.1, SVG Export Plug-In . SVG Version: 6.00 Build 0)  -->
<!DOCTYPE svg PUBLIC "-//W3C//DTD SVG 1.1//EN" "http://www.w3.org/Graphics/SVG/1.1/DTD/svg11.dtd">
<svg version="1.1" id="Layer_1" xmlns="http://www.w3.org/2000/svg" xmlns:xlink="http://www.w3.org/1999/xlink" x="0px" y="0px"
	 width="32px" height="32px" viewBox="0 0 32 32" enable-background="new 0 0 32 32" xml:space="preserve">
<path d="M4,32h19h3c1.7,0,3-1.3,3-3V3c0-1.7-1.3-3-3-3h-3H4C3.4,0,3,0.4,3,1v30C3,31.6,3.4,32,4,32z M27,3v26c0,0.6-0.4,1-1,1h-2V2
	h2C26.6,2,27,2.4,27,3z M10,2h6v8l-2.4-1.8c-0.4-0.3-0.8-0.3-1.2,0L10,10V2z M5,2h3v10c0,0.4,0.2,0.7,0.6,0.9c0.3,0.2,0.7,0.1,1-0.1
	l3.4-2.5l3.4,2.5c0.2,0.1,0.4,0.2,0.6,0.2c0.2,0,0.3,0,0.4-0.1c0.3-0.2,0.6-0.5,0.6-0.9V2h4v28H5V2z"/>
</svg>
