<?xml version="1.0" encoding="utf-8"?>
<!-- Generator: Adobe Illustrator 18.1.1, SVG Export Plug-In . SVG Version: 6.00 Build 0)  -->
<!DOCTYPE svg PUBLIC "-//W3C//DTD SVG 1.1//EN" "http://www.w3.org/Graphics/SVG/1.1/DTD/svg11.dtd">
<svg version="1.1" id="Layer_1" xmlns="http://www.w3.org/2000/svg" xmlns:xlink="http://www.w3.org/1999/xlink" x="0px" y="0px"
	 width="32px" height="32px" viewBox="0 0 32 32" enable-background="new 0 0 32 32" xml:space="preserve">
<path d="M14,23c0,0.6,0.4,1,1,1h10c0.6,0,1-0.4,1-1s-0.4-1-1-1H15C14.4,22,14,22.4,14,23z"/>
<path d="M28,26H11c0-3.5-2.6-6.4-6-6.9V17c0-3.9,2.2-6.3,4.4-7.7l3.7,8.9c0.2,0.4,0.5,0.6,0.9,0.6c0.1,0,0.3,0,0.4-0.1l5.1-2.1
	c0.2-0.1,0.4-0.3,0.5-0.5c0.1-0.2,0.1-0.5,0-0.8l-4.1-9.9c0,0,0,0,0,0c0,0,0,0,0,0l-1.7-4c-0.2-0.5-0.8-0.8-1.3-0.5L7.9,3
	C7.7,3.1,7.5,3.3,7.4,3.5C7.3,3.7,7.3,4,7.4,4.3l1.3,3.2C5,9.7,3,13,3,17v3v7v4c0,0.6,0.4,1,1,1h24c0.6,0,1-0.4,1-1v-4
	C29,26.4,28.6,26,28,26z M14.6,16.5l-3.3-8.1l3.2-1.3l3.3,8.1L14.6,16.5z M12.8,3.1l0.9,2.2l-3.2,1.3L9.6,4.4L12.8,3.1z M9,26H5
	v-4.9C7.3,21.6,9,23.6,9,26z M27,30H5v-2h5h17V30z"/>
</svg>
