<?xml version="1.0" encoding="utf-8"?>
<!-- Generator: Adobe Illustrator 18.1.1, SVG Export Plug-In . SVG Version: 6.00 Build 0)  -->
<!DOCTYPE svg PUBLIC "-//W3C//DTD SVG 1.1//EN" "http://www.w3.org/Graphics/SVG/1.1/DTD/svg11.dtd">
<svg version="1.1" id="Layer_1" xmlns="http://www.w3.org/2000/svg" xmlns:xlink="http://www.w3.org/1999/xlink" x="0px" y="0px"
	 width="32px" height="32px" viewBox="0 0 32 32" enable-background="new 0 0 32 32" xml:space="preserve">
<path d="M26.8,0.4C26.8,0.3,26.7,0.3,26.8,0.4c-0.1-0.1-0.2-0.2-0.2-0.2c0,0-0.1,0-0.1,0c-0.1,0-0.1,0-0.2-0.1c-0.1,0-0.2,0-0.2-0.1
	c0,0-0.1,0-0.1,0H6c0,0-0.1,0-0.1,0C5.8,0,5.8,0,5.7,0.1c-0.1,0-0.1,0-0.2,0.1c0,0-0.1,0-0.1,0c0,0-0.1,0.1-0.1,0.1
	c0,0-0.1,0-0.1,0.1l-4,5c-0.3,0.4-0.3,0.8,0,1.2L8,16c-1.3,1.7-2,3.8-2,6c0,5.5,4.5,10,10,10s10-4.5,10-10c0-2.3-0.8-4.3-2-6
	l6.8-9.4c0.3-0.4,0.3-0.9,0-1.2L26.8,0.4z M16,12c-0.4,0-0.8,0-1.1,0.1L11.4,7h9.3l-3.5,5.1C16.8,12,16.4,12,16,12z M22,5H10L7.9,2
	h16.2L22,5z M5.9,2.7l6.8,9.9c-1.3,0.4-2.4,1.1-3.4,2L3.3,6L5.9,2.7z M16,30c-4.4,0-8-3.6-8-8s3.6-8,8-8s8,3.6,8,8S20.4,30,16,30z
	 M22.6,14.5c-1-0.9-2.1-1.5-3.4-1.9l6.8-9.9L28.7,6L22.6,14.5z"/>
<path d="M21.2,19.7l-2.9-0.4l-1.3-2.7C16.8,16.2,16.4,16,16,16c-0.4,0-0.7,0.2-0.9,0.6l-1.3,2.6l-2.9,0.4c-0.4,0.1-0.7,0.3-0.8,0.7
	c-0.1,0.4,0,0.8,0.2,1l2.1,2.1l-0.5,2.9c-0.1,0.4,0.1,0.8,0.4,1c0.3,0.2,0.7,0.3,1.1,0.1L16,26l2.6,1.4c0.1,0.1,0.3,0.1,0.5,0.1
	c0.2,0,0.4-0.1,0.6-0.2c0.3-0.2,0.5-0.6,0.4-1l-0.5-2.9l2.1-2.1c0.3-0.3,0.4-0.7,0.3-1C21.8,20,21.5,19.7,21.2,19.7z M17.8,22.3
	c-0.2,0.2-0.3,0.6-0.3,0.9l0.2,1.4L16.4,24c-0.1-0.1-0.3-0.1-0.5-0.1c-0.2,0-0.3,0-0.5,0.1l-1.3,0.7l0.3-1.4c0.1-0.3,0-0.7-0.3-0.9
	l-1-1l1.5-0.2c0.3,0,0.6-0.2,0.8-0.5l0.7-1.3l0.6,1.3c0.1,0.3,0.4,0.5,0.7,0.6l1.4,0.2L17.8,22.3z"/>
</svg>
