<?xml version="1.0" encoding="utf-8"?>
<!-- Generator: Adobe Illustrator 18.1.1, SVG Export Plug-In . SVG Version: 6.00 Build 0)  -->
<!DOCTYPE svg PUBLIC "-//W3C//DTD SVG 1.1//EN" "http://www.w3.org/Graphics/SVG/1.1/DTD/svg11.dtd">
<svg version="1.1" id="Layer_1" xmlns="http://www.w3.org/2000/svg" xmlns:xlink="http://www.w3.org/1999/xlink" x="0px" y="0px"
	 width="32px" height="32px" viewBox="0 0 32 32" enable-background="new 0 0 32 32" xml:space="preserve">
<path d="M1,17h2c0.6,0,1-0.4,1-1s-0.4-1-1-1H1c-0.6,0-1,0.4-1,1S0.4,17,1,17z"/>
<path d="M4.7,4.7c-0.4,0.4-0.4,1,0,1.4l1.4,1.4c0.2,0.2,0.5,0.3,0.7,0.3s0.5-0.1,0.7-0.3c0.4-0.4,0.4-1,0-1.4L6.1,4.7
	C5.7,4.3,5.1,4.3,4.7,4.7z"/>
<path d="M17,3V1c0-0.6-0.4-1-1-1s-1,0.4-1,1v2c0,0.6,0.4,1,1,1S17,3.6,17,3z"/>
<path d="M25.9,7.5l1.4-1.4c0.4-0.4,0.4-1,0-1.4s-1-0.4-1.4,0l-1.4,1.4c-0.4,0.4-0.4,1,0,1.4c0.2,0.2,0.5,0.3,0.7,0.3
	S25.7,7.7,25.9,7.5z"/>
<path d="M31,15h-2c-0.6,0-1,0.4-1,1s0.4,1,1,1h2c0.6,0,1-0.4,1-1S31.6,15,31,15z"/>
<path d="M8,12v6c0,0.6,0.4,1,1,1h14c0.6,0,1-0.4,1-1v-6c0-0.6-0.4-1-1-1H9C8.4,11,8,11.4,8,12z"/>
<path d="M14,32h4c0.5,0,0.9-0.3,1-0.8L20.8,21h-9.7L13,31.2C13.1,31.7,13.5,32,14,32z"/>
</svg>
