<?xml version="1.0" encoding="utf-8"?>
<!-- Generator: Adobe Illustrator 18.1.1, SVG Export Plug-In . SVG Version: 6.00 Build 0)  -->
<!DOCTYPE svg PUBLIC "-//W3C//DTD SVG 1.1//EN" "http://www.w3.org/Graphics/SVG/1.1/DTD/svg11.dtd">
<svg version="1.1" id="Layer_1" xmlns="http://www.w3.org/2000/svg" xmlns:xlink="http://www.w3.org/1999/xlink" x="0px" y="0px"
	 width="32px" height="32px" viewBox="0 0 32 32" enable-background="new 0 0 32 32" xml:space="preserve">
<path d="M1,4h15c0.6,0,1-0.4,1-1s-0.4-1-1-1H1C0.4,2,0,2.4,0,3S0.4,4,1,4z"/>
<path d="M1,30h15c0.6,0,1-0.4,1-1s-0.4-1-1-1H1c-0.6,0-1,0.4-1,1S0.4,30,1,30z"/>
<path d="M2,5C1.4,5,1,5.4,1,6v20c0,0.6,0.4,1,1,1h13c0.6,0,1-0.4,1-1V6c0-0.6-0.4-1-1-1H2z M7,20c0,0.6-0.4,1-1,1s-1-0.4-1-1v-8
	c0-0.6,0.4-1,1-1s1,0.4,1,1V20z"/>
<path d="M31,7H19c-0.6,0-1,0.4-1,1v16c0,0.6,0.4,1,1,1h8c0.6,0,1-0.4,1-1c0-1.7,1.3-3,3-3c0.6,0,1-0.4,1-1V8C32,7.4,31.6,7,31,7z
	 M23,21h-1c-0.6,0-1-0.4-1-1s0.4-1,1-1h1c0.6,0,1,0.4,1,1S23.6,21,23,21z M23,13h-1c-0.6,0-1-0.4-1-1s0.4-1,1-1h1c0.6,0,1,0.4,1,1
	S23.6,13,23,13z M28,13h-1c-0.6,0-1-0.4-1-1s0.4-1,1-1h1c0.6,0,1,0.4,1,1S28.6,13,28,13z"/>
</svg>
