<?xml version="1.0" encoding="utf-8"?>
<!-- Generator: Adobe Illustrator 18.1.1, SVG Export Plug-In . SVG Version: 6.00 Build 0)  -->
<!DOCTYPE svg PUBLIC "-//W3C//DTD SVG 1.1//EN" "http://www.w3.org/Graphics/SVG/1.1/DTD/svg11.dtd">
<svg version="1.1" id="Layer_1" xmlns="http://www.w3.org/2000/svg" xmlns:xlink="http://www.w3.org/1999/xlink" x="0px" y="0px"
	 width="32px" height="32px" viewBox="0 0 32 32" enable-background="new 0 0 32 32" xml:space="preserve">
<path d="M31.9,13.5c0,0,0-0.1-0.1-0.1l-7-10C24.6,3.2,24.3,3,24,3h-5c-0.6,0-1,0.4-1,1v2c0,0.6,0.4,1,1,1h2.3l1.7,4.5l1.4,0.5
	c0.5,0.2,0.4,1-0.2,1h-0.7H19h-6H8.4H7.8c-0.6,0-0.7-0.8-0.2-1L9,11.5L10.7,7H13c0.6,0,1-0.4,1-1V4c0-0.6-0.4-1-1-1H8
	C7.7,3,7.4,3.2,7.2,3.4l-7,10c0,0,0,0.1-0.1,0.1c0,0,0,0.1-0.1,0.1C0,13.8,0,13.9,0,14v14c0,0.6,0.4,1,1,1h12c0.6,0,1-0.4,1-1
	c0-1.1,0.9-2,2-2s2,0.9,2,2c0,0.6,0.4,1,1,1h12c0.6,0,1-0.4,1-1V14c0-0.1,0-0.2-0.1-0.3C31.9,13.6,31.9,13.6,31.9,13.5z M14,22
	c0,0.3-0.1,0.5-0.3,0.7l-2,2C11.5,24.9,11.3,25,11,25H5c-0.6,0-1-0.4-1-1v-6c0-0.6,0.4-1,1-1h8c0.6,0,1,0.4,1,1V22z M28,24
	c0,0.6-0.4,1-1,1h-6c-0.3,0-0.5-0.1-0.7-0.3l-2-2C18.1,22.5,18,22.3,18,22v-4c0-0.6,0.4-1,1-1h8c0.6,0,1,0.4,1,1V24z"/>
</svg>
