<?xml version="1.0" encoding="utf-8"?>
<!-- Generator: Adobe Illustrator 18.1.1, SVG Export Plug-In . SVG Version: 6.00 Build 0)  -->
<!DOCTYPE svg PUBLIC "-//W3C//DTD SVG 1.1//EN" "http://www.w3.org/Graphics/SVG/1.1/DTD/svg11.dtd">
<svg version="1.1" id="Layer_1" xmlns="http://www.w3.org/2000/svg" xmlns:xlink="http://www.w3.org/1999/xlink" x="0px" y="0px"
	 width="32px" height="32px" viewBox="0 0 32 32" enable-background="new 0 0 32 32" xml:space="preserve">
<path d="M3,3C2.4,3,2,3.4,2,4s0.4,1,1,1h3c0.6,0,1-0.4,1-1S6.6,3,6,3H3z"/>
<path d="M12.5,22.9c1,0.7,2.2,1.1,3.5,1.1c3.3,0,6-2.7,6-6c0-1.3-0.4-2.5-1.1-3.5L12.5,22.9z"/>
<path d="M16,12c-3.3,0-6,2.7-6,6c0,1.3,0.4,2.5,1.1,3.5l8.4-8.4C18.5,12.4,17.3,12,16,12z"/>
<path d="M31,6h-7.6l-3.7-3.7C19.5,2.1,19.3,2,19,2h-6c-0.3,0-0.5,0.1-0.7,0.3L8.6,6H1C0.4,6,0,6.4,0,7v22c0,0.6,0.4,1,1,1h30
	c0.6,0,1-0.4,1-1V7C32,6.4,31.6,6,31,6z M16,26c-2.2,0-4.2-0.9-5.6-2.3c0,0,0,0,0,0c0,0,0,0,0,0C8.9,22.2,8,20.2,8,18
	c0-4.4,3.6-8,8-8c2.2,0,4.2,0.9,5.6,2.3c0,0,0,0,0,0c0,0,0,0,0,0c1.4,1.4,2.3,3.4,2.3,5.6C24,22.4,20.4,26,16,26z"/>
</svg>
