<?xml version="1.0" encoding="utf-8"?>
<!-- Generator: Adobe Illustrator 18.1.1, SVG Export Plug-In . SVG Version: 6.00 Build 0)  -->
<!DOCTYPE svg PUBLIC "-//W3C//DTD SVG 1.1//EN" "http://www.w3.org/Graphics/SVG/1.1/DTD/svg11.dtd">
<svg version="1.1" id="Layer_1" xmlns="http://www.w3.org/2000/svg" xmlns:xlink="http://www.w3.org/1999/xlink" x="0px" y="0px"
	 width="32px" height="32px" viewBox="0 0 32 32" enable-background="new 0 0 32 32" xml:space="preserve">
<path d="M1,8C0.4,8,0,8.4,0,9v14c0,0.6,0.4,1,1,1s1-0.4,1-1V9C2,8.4,1.6,8,1,8z"/>
<path d="M31,8c-0.6,0-1,0.4-1,1v14c0,0.6,0.4,1,1,1s1-0.4,1-1V9C32,8.4,31.6,8,31,8z"/>
<path d="M27,4H5C4.4,4,4,4.4,4,5v22c0,0.6,0.4,1,1,1h22c0.6,0,1-0.4,1-1V5C28,4.4,27.6,4,27,4z M23,18c0,1.7-1.3,3-3,3s-3-1.3-3-3
	s1.3-3,3-3c0.4,0,0.7,0.1,1,0.2V11h-7v9c0,1.7-1.3,3-3,3s-3-1.3-3-3s1.3-3,3-3c0.4,0,0.7,0.1,1,0.2V10c0-0.6,0.4-1,1-1h9
	c0.6,0,1,0.4,1,1V18z"/>
</svg>
