<?xml version="1.0" encoding="utf-8"?>
<!-- Generator: Adobe Illustrator 18.1.1, SVG Export Plug-In . SVG Version: 6.00 Build 0)  -->
<!DOCTYPE svg PUBLIC "-//W3C//DTD SVG 1.1//EN" "http://www.w3.org/Graphics/SVG/1.1/DTD/svg11.dtd">
<svg version="1.1" id="Layer_1" xmlns="http://www.w3.org/2000/svg" xmlns:xlink="http://www.w3.org/1999/xlink" x="0px" y="0px"
	 width="32px" height="32px" viewBox="0 0 32 32" enable-background="new 0 0 32 32" xml:space="preserve">
<path d="M31,1H16.5C18.7,3,20,5.8,20,9c0,3.3-1.5,6.4-4,8.5V19h15c0.6,0,1-0.4,1-1V2C32,1.4,31.6,1,31,1z M27,7h-2c-0.6,0-1-0.4-1-1
	s0.4-1,1-1h2c0.6,0,1,0.4,1,1S27.6,7,27,7z"/>
<path d="M4,16.5V27c0,2.8,2.2,5,5,5s5-2.2,5-5V16.5c2.5-1.7,4-4.5,4-7.5c0-5.3-4.6-9.5-10-8.9C4,0.5,0.7,3.7,0.1,7.6
	C-0.4,11.1,1.1,14.5,4,16.5z M9,5c2.2,0,4,1.8,4,4c0,2.2-1.8,4-4,4s-4-1.8-4-4C5,6.8,6.8,5,9,5z"/>
</svg>
