<?xml version="1.0" encoding="utf-8"?>
<!-- Generator: Adobe Illustrator 18.1.1, SVG Export Plug-In . SVG Version: 6.00 Build 0)  -->
<!DOCTYPE svg PUBLIC "-//W3C//DTD SVG 1.1//EN" "http://www.w3.org/Graphics/SVG/1.1/DTD/svg11.dtd">
<svg version="1.1" id="Layer_1" xmlns="http://www.w3.org/2000/svg" xmlns:xlink="http://www.w3.org/1999/xlink" x="0px" y="0px"
	 width="32px" height="32px" viewBox="0 0 32 32" enable-background="new 0 0 32 32" xml:space="preserve">
<circle cx="16" cy="11" r="7"/>
<path d="M5,31h22c0-4.4-3.6-8-8-8h-6C8.6,23,5,26.6,5,31z"/>
<path d="M3,6c0.6,0,1-0.4,1-1V2h3c0.6,0,1-0.4,1-1S7.6,0,7,0H3C2.4,0,2,0.4,2,1v4C2,5.6,2.4,6,3,6z"/>
<path d="M29,6c0.6,0,1-0.4,1-1V1c0-0.6-0.4-1-1-1h-4c-0.6,0-1,0.4-1,1s0.4,1,1,1h3v3C28,5.6,28.4,6,29,6z"/>
<path d="M25,21h4c0.6,0,1-0.4,1-1v-4c0-0.6-0.4-1-1-1s-1,0.4-1,1v3h-3c-0.6,0-1,0.4-1,1S24.4,21,25,21z"/>
<path d="M2,20c0,0.6,0.4,1,1,1h4c0.6,0,1-0.4,1-1s-0.4-1-1-1H4v-3c0-0.6-0.4-1-1-1s-1,0.4-1,1V20z"/>
</svg>
