<?xml version="1.0" encoding="utf-8"?>
<!-- Generator: Adobe Illustrator 18.1.1, SVG Export Plug-In . SVG Version: 6.00 Build 0)  -->
<!DOCTYPE svg PUBLIC "-//W3C//DTD SVG 1.1//EN" "http://www.w3.org/Graphics/SVG/1.1/DTD/svg11.dtd">
<svg version="1.1" id="Layer_1" xmlns="http://www.w3.org/2000/svg" xmlns:xlink="http://www.w3.org/1999/xlink" x="0px" y="0px"
	 width="32px" height="32px" viewBox="0 0 32 32" enable-background="new 0 0 32 32" xml:space="preserve">
<path d="M3,32h26c0.6,0,1-0.4,1-1V1c0-0.6-0.4-1-1-1H3C2.4,0,2,0.4,2,1v30C2,31.6,2.4,32,3,32z M7,6c0-0.6,0.4-1,1-1h16
	c0.6,0,1,0.4,1,1v14c0,0.6-0.4,1-1,1H8c-0.6,0-1-0.4-1-1V6z"/>
<path d="M13,14h6c0.6,0,1-0.4,1-1s-0.4-1-1-1h-6c-0.6,0-1,0.4-1,1S12.4,14,13,14z"/>
</svg>
