<?xml version="1.0" encoding="utf-8"?>
<!-- Generator: Adobe Illustrator 18.1.1, SVG Export Plug-In . SVG Version: 6.00 Build 0)  -->
<!DOCTYPE svg PUBLIC "-//W3C//DTD SVG 1.1//EN" "http://www.w3.org/Graphics/SVG/1.1/DTD/svg11.dtd">
<svg version="1.1" id="Layer_1" xmlns="http://www.w3.org/2000/svg" xmlns:xlink="http://www.w3.org/1999/xlink" x="0px" y="0px"
	 width="32px" height="32px" viewBox="0 0 32 32" enable-background="new 0 0 32 32" xml:space="preserve">
<path d="M31,0c-0.6,0-1,0.4-1,1v2h-4V1c0-0.6-0.4-1-1-1H7C6.4,0,6,0.4,6,1v2H2V1c0-0.6-0.4-1-1-1S0,0.4,0,1v30c0,0.6,0.4,1,1,1
	s1-0.4,1-1v-2h4v2c0,0.6,0.4,1,1,1h18c0.6,0,1-0.4,1-1v-2h4v2c0,0.6,0.4,1,1,1s1-0.4,1-1V1C32,0.4,31.6,0,31,0z M6,27H2v-4h4V27z
	 M6,21H2v-4h4V21z M6,15H2v-4h4V15z M6,9H2V5h4V9z M30,27h-4v-4h4V27z M30,21h-4v-4h4V21z M30,15h-4v-4h4V15z M30,9h-4V5h4V9z"/>
</svg>
