<?xml version="1.0" encoding="utf-8"?>
<!-- Generator: Adobe Illustrator 18.1.1, SVG Export Plug-In . SVG Version: 6.00 Build 0)  -->
<!DOCTYPE svg PUBLIC "-//W3C//DTD SVG 1.1//EN" "http://www.w3.org/Graphics/SVG/1.1/DTD/svg11.dtd">
<svg version="1.1" id="Layer_1" xmlns="http://www.w3.org/2000/svg" xmlns:xlink="http://www.w3.org/1999/xlink" x="0px" y="0px"
	 width="32px" height="32px" viewBox="0 0 32 32" enable-background="new 0 0 32 32" xml:space="preserve">
<path d="M31,5H1C0.4,5,0,5.4,0,6v6c0,0.6,0.4,1,1,1c1.7,0,3,1.3,3,3s-1.3,3-3,3c-0.6,0-1,0.4-1,1v6c0,0.6,0.4,1,1,1h30
	c0.6,0,1-0.4,1-1v-6c0-0.6-0.4-1-1-1c-1.7,0-3-1.3-3-3s1.3-3,3-3c0.6,0,1-0.4,1-1V6C32,5.4,31.6,5,31,5z M23,20c0,0.6-0.4,1-1,1H10
	c-0.6,0-1-0.4-1-1v-8c0-0.6,0.4-1,1-1h12c0.6,0,1,0.4,1,1V20z"/>
</svg>
