<?xml version="1.0" encoding="utf-8"?>
<!-- Generator: Adobe Illustrator 18.1.1, SVG Export Plug-In . SVG Version: 6.00 Build 0)  -->
<!DOCTYPE svg PUBLIC "-//W3C//DTD SVG 1.1//EN" "http://www.w3.org/Graphics/SVG/1.1/DTD/svg11.dtd">
<svg version="1.1" id="Layer_1" xmlns="http://www.w3.org/2000/svg" xmlns:xlink="http://www.w3.org/1999/xlink" x="0px" y="0px"
	 width="32px" height="32px" viewBox="0 0 32 32" enable-background="new 0 0 32 32" xml:space="preserve">
<path d="M16,0C11.7,0,7.7,1.7,4.7,4.7c-3,3-4.7,7-4.7,11.3s1.7,8.3,4.7,11.3c3,3,7,4.7,11.3,4.7s8.3-1.7,11.3-4.7
	c3-3,4.7-7,4.7-11.3s-1.7-8.3-4.7-11.3C24.3,1.7,20.3,0,16,0z M8,19c-1.7,0-3-1.3-3-3s1.3-3,3-3s3,1.3,3,3S9.7,19,8,19z M16,27
	c-1.7,0-3-1.3-3-3s1.3-3,3-3s3,1.3,3,3S17.7,27,16,27z M16,11c-1.7,0-3-1.3-3-3s1.3-3,3-3s3,1.3,3,3S17.7,11,16,11z M24,19
	c-1.7,0-3-1.3-3-3s1.3-3,3-3s3,1.3,3,3S25.7,19,24,19z"/>
</svg>
