<?xml version="1.0" encoding="utf-8"?>
<!-- Generator: Adobe Illustrator 18.1.1, SVG Export Plug-In . SVG Version: 6.00 Build 0)  -->
<!DOCTYPE svg PUBLIC "-//W3C//DTD SVG 1.1//EN" "http://www.w3.org/Graphics/SVG/1.1/DTD/svg11.dtd">
<svg version="1.1" id="Layer_1" xmlns="http://www.w3.org/2000/svg" xmlns:xlink="http://www.w3.org/1999/xlink" x="0px" y="0px"
	 width="32px" height="32px" viewBox="0 0 32 32" enable-background="new 0 0 32 32" xml:space="preserve">
<path d="M20.5,2.1c-0.3-0.2-0.7-0.1-1,0.1L8.7,10H1c-0.6,0-1,0.4-1,1v10c0,0.6,0.4,1,1,1h7.7l10.7,7.8c0.2,0.1,0.4,0.2,0.6,0.2
	c0.2,0,0.3,0,0.5-0.1c0.3-0.2,0.5-0.5,0.5-0.9V3C21,2.6,20.8,2.3,20.5,2.1z"/>
<path d="M27,11c-2.8,0-5,2.2-5,5s2.2,5,5,5s5-2.2,5-5S29.8,11,27,11z M27,19c-1.7,0-3-1.3-3-3c0-0.5,0.1-0.9,0.3-1.3l4,4
	C27.9,18.9,27.5,19,27,19z M29.7,17.3l-4-4c0.4-0.2,0.8-0.3,1.3-0.3c1.7,0,3,1.3,3,3C30,16.5,29.9,16.9,29.7,17.3z"/>
</svg>
