<?xml version="1.0" encoding="utf-8"?>
<!-- Generator: Adobe Illustrator 18.1.1, SVG Export Plug-In . SVG Version: 6.00 Build 0)  -->
<!DOCTYPE svg PUBLIC "-//W3C//DTD SVG 1.1//EN" "http://www.w3.org/Graphics/SVG/1.1/DTD/svg11.dtd">
<svg version="1.1" id="Layer_1" xmlns="http://www.w3.org/2000/svg" xmlns:xlink="http://www.w3.org/1999/xlink" x="0px" y="0px"
	 width="32px" height="32px" viewBox="0 0 32 32" enable-background="new 0 0 32 32" xml:space="preserve">
<path d="M31,6H20.4l-3.7-3.7C16.5,2.1,16.3,2,16,2h-6C9.7,2,9.5,2.1,9.3,2.3L5.6,6H1C0.4,6,0,6.4,0,7v22c0,0.6,0.4,1,1,1h30
	c0.6,0,1-0.4,1-1V7C32,6.4,31.6,6,31,6z M21,24H5V12h16V24z M26,24c-1.1,0-2-0.9-2-2s0.9-2,2-2s2,0.9,2,2S27.1,24,26,24z M27,18h-2
	c-0.6,0-1-0.4-1-1s0.4-1,1-1h2c0.6,0,1,0.4,1,1S27.6,18,27,18z M27,14h-2c-0.6,0-1-0.4-1-1s0.4-1,1-1h2c0.6,0,1,0.4,1,1
	S27.6,14,27,14z"/>
</svg>
