<?xml version="1.0" encoding="utf-8"?>
<!-- Generator: Adobe Illustrator 18.1.1, SVG Export Plug-In . SVG Version: 6.00 Build 0)  -->
<!DOCTYPE svg PUBLIC "-//W3C//DTD SVG 1.1//EN" "http://www.w3.org/Graphics/SVG/1.1/DTD/svg11.dtd">
<svg version="1.1" id="Layer_1" xmlns="http://www.w3.org/2000/svg" xmlns:xlink="http://www.w3.org/1999/xlink" x="0px" y="0px"
	 width="32px" height="32px" viewBox="0 0 32 32" enable-background="new 0 0 32 32" xml:space="preserve">
<path d="M31,0H1C0.4,0,0,0.4,0,1v30c0,0.6,0.4,1,1,1h30c0.6,0,1-0.4,1-1V1C32,0.4,31.6,0,31,0z M18,27c-1.3,0-2.4-0.8-2.8-2H5
	c-0.6,0-1-0.4-1-1s0.4-1,1-1h10.2c0.4-1.2,1.5-2,2.8-2c1.7,0,3,1.3,3,3S19.7,27,18,27z M20.5,12.8l-8,5C12.4,17.9,12.2,18,12,18
	c-0.2,0-0.3,0-0.5-0.1C11.2,17.7,11,17.4,11,17V7c0-0.4,0.2-0.7,0.5-0.9c0.3-0.2,0.7-0.2,1,0l8,5c0.3,0.2,0.5,0.5,0.5,0.8
	S20.8,12.7,20.5,12.8z M27,25h-3c-0.6,0-1-0.4-1-1s0.4-1,1-1h3c0.6,0,1,0.4,1,1S27.6,25,27,25z"/>
</svg>
