<?xml version="1.0" encoding="utf-8"?>
<!-- Generator: Adobe Illustrator 18.1.1, SVG Export Plug-In . SVG Version: 6.00 Build 0)  -->
<!DOCTYPE svg PUBLIC "-//W3C//DTD SVG 1.1//EN" "http://www.w3.org/Graphics/SVG/1.1/DTD/svg11.dtd">
<svg version="1.1" id="Layer_1" xmlns="http://www.w3.org/2000/svg" xmlns:xlink="http://www.w3.org/1999/xlink" x="0px" y="0px"
	 width="32px" height="32px" viewBox="0 0 32 32" enable-background="new 0 0 32 32" xml:space="preserve">
<path d="M31,0H1C0.4,0,0,0.4,0,1v30c0,0.6,0.4,1,1,1h30c0.6,0,1-0.4,1-1V1C32,0.4,31.6,0,31,0z M14,7c1.7,0,3,1.3,3,3s-1.3,3-3,3
	s-3-1.3-3-3S12.3,7,14,7z M27,26C27,26,27,26,27,26H5c-0.4,0-0.7-0.2-0.9-0.5s-0.1-0.7,0.1-1l5-7C9.3,17.2,9.6,17,9.9,17
	c0.3,0,0.5,0,0.8,0.2l4.2,3.3l4.4-6.1c0.2-0.3,0.5-0.4,0.8-0.4c0,0,0,0,0,0c0.3,0,0.6,0.2,0.8,0.4l6.9,9.9c0.2,0.2,0.3,0.4,0.3,0.7
	C28,25.6,27.6,26,27,26z"/>
</svg>
