<?xml version="1.0" encoding="utf-8"?>
<!-- Generator: Adobe Illustrator 18.1.1, SVG Export Plug-In . SVG Version: 6.00 Build 0)  -->
<!DOCTYPE svg PUBLIC "-//W3C//DTD SVG 1.1//EN" "http://www.w3.org/Graphics/SVG/1.1/DTD/svg11.dtd">
<svg version="1.1" id="Layer_1" xmlns="http://www.w3.org/2000/svg" xmlns:xlink="http://www.w3.org/1999/xlink" x="0px" y="0px"
	 width="32px" height="32px" viewBox="0 0 32 32" enable-background="new 0 0 32 32" xml:space="preserve">
<path d="M12,5C9.8,5,8,6.8,8,9s1.8,4,4,4s4-1.8,4-4S14.2,5,12,5z"/>
<path d="M30,1c0-0.6-0.4-1-1-1H1C0.4,0,0,0.4,0,1v28c0,0.6,0.4,1,1,1h19.1c1.3,1.2,3,2,4.9,2c3.9,0,7-3.1,7-7c0-1.9-0.8-3.6-2-4.9V1
	z M6.5,16.1c-0.4-0.2-0.9-0.2-1.2,0.2L2,19.6V2h26v13.1l-5.4-3.9c-0.4-0.3-0.9-0.2-1.3,0.1l-8.5,8.5L6.5,16.1z M25,30
	c-2.8,0-5-2.2-5-5s2.2-5,5-5s5,2.2,5,5S27.8,30,25,30z"/>
<path d="M27,24h-1v-1c0-0.6-0.4-1-1-1s-1,0.4-1,1v1h-1c-0.6,0-1,0.4-1,1s0.4,1,1,1h1v1c0,0.6,0.4,1,1,1s1-0.4,1-1v-1h1
	c0.6,0,1-0.4,1-1S27.6,24,27,24z"/>
</svg>
