<?xml version="1.0" encoding="utf-8"?>
<!-- Generator: Adobe Illustrator 18.1.1, SVG Export Plug-In . SVG Version: 6.00 Build 0)  -->
<!DOCTYPE svg PUBLIC "-//W3C//DTD SVG 1.1//EN" "http://www.w3.org/Graphics/SVG/1.1/DTD/svg11.dtd">
<svg version="1.1" id="Layer_1" xmlns="http://www.w3.org/2000/svg" xmlns:xlink="http://www.w3.org/1999/xlink" x="0px" y="0px"
	 width="32px" height="32px" viewBox="0 0 32 32" enable-background="new 0 0 32 32" xml:space="preserve">
<path d="M31,3H1C0.4,3,0,3.4,0,4v24c0,0.6,0.4,1,1,1h30c0.6,0,1-0.4,1-1V4C32,3.4,31.6,3,31,3z M12,24c-4.4,0-8-3.6-8-8s3.6-8,8-8
	s8,3.6,8,8S16.4,24,12,24z M26,23c0,0.6-0.4,1-1,1s-1-0.4-1-1v-7c0-0.6,0.4-1,1-1s1,0.4,1,1V23z M27,13h-4c-0.6,0-1-0.4-1-1
	s0.4-1,1-1h1V9c0-0.6,0.4-1,1-1s1,0.4,1,1v2h1c0.6,0,1,0.4,1,1S27.6,13,27,13z"/>
<circle cx="12" cy="16" r="3"/>
</svg>
