<?xml version="1.0" encoding="utf-8"?>
<!-- Generator: Adobe Illustrator 18.1.1, SVG Export Plug-In . SVG Version: 6.00 Build 0)  -->
<!DOCTYPE svg PUBLIC "-//W3C//DTD SVG 1.1//EN" "http://www.w3.org/Graphics/SVG/1.1/DTD/svg11.dtd">
<svg version="1.1" id="Layer_1" xmlns="http://www.w3.org/2000/svg" xmlns:xlink="http://www.w3.org/1999/xlink" x="0px" y="0px"
	 width="32px" height="32px" viewBox="0 0 32 32" enable-background="new 0 0 32 32" xml:space="preserve">
<path d="M5,32h22c0.6,0,1-0.4,1-1V1c0-0.6-0.4-1-1-1H5C4.4,0,4,0.4,4,1v30C4,31.6,4.4,32,5,32z M16,4c2.2,0,4,1.8,4,4s-1.8,4-4,4
	s-4-1.8-4-4S13.8,4,16,4z M16,14c3.9,0,7,3.1,7,7s-3.1,7-7,7s-7-3.1-7-7S12.1,14,16,14z"/>
<circle cx="16" cy="21" r="2"/>
</svg>
