<?xml version="1.0" encoding="utf-8"?>
<!-- Generator: Adobe Illustrator 18.1.1, SVG Export Plug-In . SVG Version: 6.00 Build 0)  -->
<!DOCTYPE svg PUBLIC "-//W3C//DTD SVG 1.1//EN" "http://www.w3.org/Graphics/SVG/1.1/DTD/svg11.dtd">
<svg version="1.1" id="Layer_1" xmlns="http://www.w3.org/2000/svg" xmlns:xlink="http://www.w3.org/1999/xlink" x="0px" y="0px"
	 width="32px" height="32px" viewBox="0 0 32 32" enable-background="new 0 0 32 32" xml:space="preserve">
<path d="M30,11c0-6.1-4.9-11-11-11h-6C6.9,0,2,4.9,2,11v7c-1.2,1.5-2,3.4-2,5.5C0,28.2,3.8,32,8.5,32c0.6,0,1.1-0.1,1.7-0.2
	c0.5-0.1,0.8-0.5,0.8-1V16.2c0-0.5-0.3-0.9-0.8-1C9.6,15.1,9.1,15,8.5,15c-1.7,0-3.2,0.5-4.5,1.3V11c0-5,4-9,9-9h6c5,0,9,4,9,9v5.3
	c-1.3-0.8-2.8-1.3-4.5-1.3c-0.6,0-1.1,0.1-1.7,0.2c-0.5,0.1-0.8,0.5-0.8,1v14.7c0,0.5,0.3,0.9,0.8,1c0.6,0.1,1.1,0.2,1.7,0.2
	c4.7,0,8.5-3.8,8.5-8.5c0-2.1-0.8-4-2-5.5V11z"/>
</svg>
