<?xml version="1.0" encoding="utf-8"?>
<!-- Generator: Adobe Illustrator 18.1.1, SVG Export Plug-In . SVG Version: 6.00 Build 0)  -->
<!DOCTYPE svg PUBLIC "-//W3C//DTD SVG 1.1//EN" "http://www.w3.org/Graphics/SVG/1.1/DTD/svg11.dtd">
<svg version="1.1" id="Layer_1" xmlns="http://www.w3.org/2000/svg" xmlns:xlink="http://www.w3.org/1999/xlink" x="0px" y="0px"
	 width="32px" height="32px" viewBox="0 0 32 32" enable-background="new 0 0 32 32" xml:space="preserve">
<path d="M26.8,14.1C26,8.9,21.4,5,16,5c-4.7,0-8.8,2.9-10.3,7.2C2.3,13.1,0,16,0,19.5c0,3.9,3,7.2,7,7.5h19c0,0,0.1,0,0.1,0
	c3.3-0.3,5.9-3.2,5.9-6.5C32,17.4,29.8,14.8,26.8,14.1z M21,20c0,1.7-1.3,3-3,3s-3-1.3-3-3s1.3-3,3-3c0.4,0,0.7,0.1,1,0.2V13h-5v7
	c0,1.7-1.3,3-3,3s-3-1.3-3-3s1.3-3,3-3c0.4,0,0.7,0.1,1,0.2V12c0-0.6,0.4-1,1-1h7c0.6,0,1,0.4,1,1V20z"/>
</svg>
