<?xml version="1.0" encoding="utf-8"?>
<!-- Generator: Adobe Illustrator 18.1.1, SVG Export Plug-In . SVG Version: 6.00 Build 0)  -->
<!DOCTYPE svg PUBLIC "-//W3C//DTD SVG 1.1//EN" "http://www.w3.org/Graphics/SVG/1.1/DTD/svg11.dtd">
<svg version="1.1" id="Layer_1" xmlns="http://www.w3.org/2000/svg" xmlns:xlink="http://www.w3.org/1999/xlink" x="0px" y="0px"
	 width="32px" height="32px" viewBox="0 0 32 32" enable-background="new 0 0 32 32" xml:space="preserve">
<path d="M20.8,0.4C20.6,0.1,20.3,0,20,0H9C8.5,0,8.2,0.3,8,0.7l-4,15C4,16,4,16.4,4.2,16.6C4.4,16.9,4.7,17,5,17h6.8L10,27.8
	c-0.1,0.4,0.2,0.9,0.6,1.1C10.7,29,10.9,29,11,29c0.3,0,0.6-0.1,0.7-0.3l16-18c0.3-0.3,0.3-0.7,0.2-1.1C27.8,9.2,27.4,9,27,9h-7.8
	L21,1.2C21,0.9,21,0.6,20.8,0.4z"/>
<path d="M25.2,21.5l-5,8c-0.3,0.5-0.2,1.1,0.3,1.4c0.5,0.3,1.1,0.2,1.4-0.3l1.6-2.5h5.1l1.6,2.5c0.2,0.3,0.5,0.5,0.8,0.5
	c0.2,0,0.4,0,0.5-0.2c0.5-0.3,0.6-0.9,0.3-1.4l-5-8C26.5,20.9,25.5,20.9,25.2,21.5z M24.7,26l1.3-2.1l1.3,2.1H24.7z"/>
</svg>
