<?xml version="1.0" encoding="utf-8"?>
<!-- Generator: Adobe Illustrator 18.1.1, SVG Export Plug-In . SVG Version: 6.00 Build 0)  -->
<!DOCTYPE svg PUBLIC "-//W3C//DTD SVG 1.1//EN" "http://www.w3.org/Graphics/SVG/1.1/DTD/svg11.dtd">
<svg version="1.1" id="Layer_1" xmlns="http://www.w3.org/2000/svg" xmlns:xlink="http://www.w3.org/1999/xlink" x="0px" y="0px"
	 width="32px" height="32px" viewBox="0 0 32 32" enable-background="new 0 0 32 32" xml:space="preserve">
<path d="M1,32h22c0.6,0,1-0.4,1-1V9c0-0.6-0.4-1-1-1H1C0.4,8,0,8.4,0,9v22C0,31.6,0.4,32,1,32z"/>
<path d="M28,5c0-0.6-0.4-1-1-1H5C4.4,4,4,4.4,4,5s0.4,1,1,1h21v21c0,0.6,0.4,1,1,1s1-0.4,1-1V5z"/>
<path d="M31,0H9C8.4,0,8,0.4,8,1s0.4,1,1,1h21v21c0,0.6,0.4,1,1,1s1-0.4,1-1V1C32,0.4,31.6,0,31,0z"/>
</svg>
