<?xml version="1.0" encoding="utf-8"?>
<!-- Generator: Adobe Illustrator 19.2.1, SVG Export Plug-In . SVG Version: 6.00 Build 0)  -->
<!DOCTYPE svg PUBLIC "-//W3C//DTD SVG 1.1//EN" "http://www.w3.org/Graphics/SVG/1.1/DTD/svg11.dtd">
<svg version="1.1" id="Layer_1" xmlns="http://www.w3.org/2000/svg" xmlns:xlink="http://www.w3.org/1999/xlink" x="0px" y="0px"
	 width="32px" height="32px" viewBox="0 0 32 32" enable-background="new 0 0 32 32" xml:space="preserve">
<path d="M31,0H1C0.448,0,0,0.448,0,1v30c0,0.552,0.448,1,1,1h30c0.552,0,1-0.448,1-1V1C32,0.448,31.552,0,31,0z M30,30H2V2h28V30z"
	/>
<path d="M9,14c2.757,0,5-2.243,5-5s-2.243-5-5-5S4,6.243,4,9S6.243,14,9,14z M9,6c1.654,0,3,1.346,3,3s-1.346,3-3,3s-3-1.346-3-3
	S7.346,6,9,6z"/>
<path d="M19,14h8c0.552,0,1-0.448,1-1V5c0-0.552-0.448-1-1-1h-8c-0.552,0-1,0.448-1,1v8C18,13.552,18.448,14,19,14z M20,6h6v6h-6V6z
	"/>
<path d="M23.832,19.445c-0.371-0.557-1.293-0.557-1.664,0l-4,6c-0.205,0.307-0.224,0.701-0.05,1.026C18.292,26.797,18.631,27,19,27
	h8c0.369,0,0.708-0.203,0.882-0.528c0.174-0.325,0.155-0.72-0.05-1.026L23.832,19.445z M20.869,25L23,21.803L25.131,25H20.869z"/>
<path d="M5,24h3v3c0,0.552,0.448,1,1,1s1-0.448,1-1v-3h3c0.552,0,1-0.448,1-1s-0.448-1-1-1h-3v-3c0-0.552-0.448-1-1-1s-1,0.448-1,1
	v3H5c-0.552,0-1,0.448-1,1S4.448,24,5,24z"/>
</svg>
