<?xml version="1.0" encoding="utf-8"?>
<!-- Generator: Adobe Illustrator 19.2.1, SVG Export Plug-In . SVG Version: 6.00 Build 0)  -->
<!DOCTYPE svg PUBLIC "-//W3C//DTD SVG 1.1//EN" "http://www.w3.org/Graphics/SVG/1.1/DTD/svg11.dtd">
<svg version="1.1" id="Layer_1" xmlns="http://www.w3.org/2000/svg" xmlns:xlink="http://www.w3.org/1999/xlink" x="0px" y="0px"
	 width="32px" height="32px" viewBox="0 0 32 32" enable-background="new 0 0 32 32" xml:space="preserve">
<path d="M7,20c-2.757,0-5,2.243-5,5s2.243,5,5,5s5-2.243,5-5v-3h8v3c0,2.757,2.243,5,5,5s5-2.243,5-5s-2.243-5-5-5h-3v-8h3
	c2.757,0,5-2.243,5-5s-2.243-5-5-5s-5,2.243-5,5v3h-8V7c0-2.757-2.243-5-5-5S2,4.243,2,7s2.243,5,5,5h3v8H7z M10,25
	c0,1.654-1.346,3-3,3s-3-1.346-3-3s1.346-3,3-3h3V25z M28,25c0,1.654-1.346,3-3,3s-3-1.346-3-3v-3h3C26.654,22,28,23.346,28,25z
	 M22,7c0-1.654,1.346-3,3-3s3,1.346,3,3s-1.346,3-3,3h-3V7z M20,20h-8v-8h8V20z M4,7c0-1.654,1.346-3,3-3s3,1.346,3,3v3H7
	C5.346,10,4,8.654,4,7z"/>
</svg>
