<?xml version="1.0" encoding="utf-8"?>
<!-- Generator: Adobe Illustrator 19.2.1, SVG Export Plug-In . SVG Version: 6.00 Build 0)  -->
<!DOCTYPE svg PUBLIC "-//W3C//DTD SVG 1.1//EN" "http://www.w3.org/Graphics/SVG/1.1/DTD/svg11.dtd">
<svg version="1.1" id="Layer_1" xmlns="http://www.w3.org/2000/svg" xmlns:xlink="http://www.w3.org/1999/xlink" x="0px" y="0px"
	 width="32px" height="32px" viewBox="0 0 32 32" enable-background="new 0 0 32 32" xml:space="preserve">
<path d="M16,0C9.043,0,2,1.717,2,5v22c0,3.283,7.043,5,14,5s14-1.717,14-5V5C30,1.717,22.957,0,16,0z M19,17c1.654,0,3-1.346,3-3
	V9.56c1.683-0.263,4.052-0.773,5.775-1.699C26.703,14.767,21.834,20,16,20C10.154,20,5.279,14.746,4.22,7.819
	C6.844,9.256,11.434,10,16,10v4C16,15.654,17.346,17,19,17z M16,2c7.444,0,12,1.942,12,3c0,0.623-2.091,2.054-7.127,2.701
	C20.374,7.765,20,8.189,20,8.692V14c0,0.551-0.448,1-1,1s-1-0.449-1-1V8.984c0-0.27-0.108-0.527-0.302-0.715
	C17.512,8.086,17.261,7.984,17,7.984c-0.008,0-0.016,0-0.023,0C16.653,7.992,16.33,8,16,8C8.556,8,4,6.058,4,5S8.556,2,16,2z M28,27
	c0,1.058-4.556,3-12,3S4,28.058,4,27V13.711C6.449,18.666,10.904,22,16,22s9.551-3.334,12-8.289V27z"/>
</svg>
