<?xml version="1.0" encoding="utf-8"?>
<!-- Generator: Adobe Illustrator 19.2.1, SVG Export Plug-In . SVG Version: 6.00 Build 0)  -->
<!DOCTYPE svg PUBLIC "-//W3C//DTD SVG 1.1//EN" "http://www.w3.org/Graphics/SVG/1.1/DTD/svg11.dtd">
<svg version="1.1" id="Layer_1" xmlns="http://www.w3.org/2000/svg" xmlns:xlink="http://www.w3.org/1999/xlink" x="0px" y="0px"
	 width="32px" height="32px" viewBox="0 0 32 32" enable-background="new 0 0 32 32" xml:space="preserve">
<path d="M31,1c0-0.552-0.447-1-1-1H2C1.447,0,1,0.448,1,1v7c0,0.552,0.447,1,1,1h28c0.553,0,1-0.448,1-1V1z M29,7H3V2h26V7z"/>
<path d="M13,19c-0.553,0-1,0.448-1,1v11c0,0.552,0.447,1,1,1h6c0.553,0,1-0.448,1-1V20c0-0.552-0.447-1-1-1h-2v-4
	c0-0.552-0.447-1-1-1H5v-2c0-0.552-0.447-1-1-1s-1,0.448-1,1v3c0,0.552,0.447,1,1,1h11v3H13z M18,30h-4v-9h4V30z"/>
<path d="M27.177,13.432C26.522,14.379,25,16.722,25,18c0,1.654,1.346,3,3,3s3-1.346,3-3c0-1.278-1.522-3.621-2.177-4.568
	C28.448,12.891,27.552,12.891,27.177,13.432z M28,19c-0.551,0-1-0.448-1-0.999c0.009-0.306,0.425-1.177,1-2.147
	c0.576,0.97,0.992,1.841,1,2.146C29,18.551,28.552,19,28,19z"/>
</svg>
