<?xml version="1.0" encoding="utf-8"?>
<!-- Generator: Adobe Illustrator 19.2.1, SVG Export Plug-In . SVG Version: 6.00 Build 0)  -->
<!DOCTYPE svg PUBLIC "-//W3C//DTD SVG 1.1//EN" "http://www.w3.org/Graphics/SVG/1.1/DTD/svg11.dtd">
<svg version="1.1" id="Layer_1" xmlns="http://www.w3.org/2000/svg" xmlns:xlink="http://www.w3.org/1999/xlink" x="0px" y="0px"
	 width="32px" height="32px" viewBox="0 0 32 32" enable-background="new 0 0 32 32" xml:space="preserve">
<path fill="#222221" d="M31.964,4.768C31.589,1.517,23.525,0.028,16,0.028c-7.525,0-15.59,1.489-15.964,4.74
	C0.026,4.807,0.022,4.845,0.018,4.885C0.015,4.924,0,4.96,0,5c0,0.048,0.018,0.092,0.021,0.139c0.003,0.025-0.004,0.048,0.001,0.073
	l0.035,0.159c0.019,0.103,0.032,0.208,0.067,0.307l4.88,22.447C5.176,30.787,10.784,32,16,32s10.824-1.213,10.996-3.874l4.88-22.447
	c0.035-0.099,0.048-0.204,0.067-0.307l0.035-0.159c0.005-0.025-0.002-0.048,0.001-0.073C31.982,5.092,32,5.048,32,5
	c0-0.04-0.015-0.076-0.018-0.115C31.978,4.845,31.974,4.807,31.964,4.768z M16,2.028c9.093,0,13.84,2.016,13.986,2.927l-0.051,0.237
	C29.348,6.156,24.627,7.972,16,7.972S2.652,6.156,2.065,5.192L2.014,4.955C2.16,4.044,6.907,2.028,16,2.028z M25.022,27.788
	c-0.015,0.07-0.021,0.126-0.021,0.197C24.849,28.54,21.85,30,16,30s-8.849-1.46-9-2c0-0.071-0.008-0.143-0.022-0.212L2.654,7.898
	C5.716,9.306,10.976,9.972,16,9.972s10.284-0.667,13.346-2.074L25.022,27.788z"/>
</svg>
