<?xml version="1.0" encoding="utf-8"?>
<!-- Generator: Adobe Illustrator 19.2.1, SVG Export Plug-In . SVG Version: 6.00 Build 0)  -->
<!DOCTYPE svg PUBLIC "-//W3C//DTD SVG 1.1//EN" "http://www.w3.org/Graphics/SVG/1.1/DTD/svg11.dtd">
<svg version="1.1" id="Layer_1" xmlns="http://www.w3.org/2000/svg" xmlns:xlink="http://www.w3.org/1999/xlink" x="0px" y="0px"
	 width="32px" height="32px" viewBox="0 0 32 32" enable-background="new 0 0 32 32" xml:space="preserve">
<path d="M8.293,29.707C8.488,29.902,8.744,30,9,30s0.512-0.098,0.707-0.293l6.793-6.793l5.793,5.793
	c0.087,0.087,0.191,0.151,0.302,0.2c0.038,0.017,0.077,0.024,0.116,0.036c0.049,0.015,0.096,0.039,0.147,0.046l7,1
	C29.906,29.997,29.953,30,30,30c0.263,0,0.518-0.104,0.707-0.293c0.223-0.223,0.328-0.537,0.283-0.849l-1-7
	c-0.007-0.052-0.031-0.098-0.046-0.147c-0.012-0.039-0.019-0.078-0.036-0.116c-0.049-0.111-0.113-0.215-0.2-0.302L23.914,15.5
	l5.793-5.793c0.391-0.391,0.391-1.023,0-1.414l-7-7c-0.391-0.391-1.023-0.391-1.414,0L15.5,7.086L9.707,1.293
	c-0.391-0.391-1.023-0.391-1.414,0l-6,6c-0.391,0.391-0.391,1.023,0,1.414L8.086,14.5l-6.793,6.793
	c-0.391,0.391-0.391,1.023,0,1.414L8.293,29.707z M25.121,27.293l3.172-3.172l0.529,3.7L25.121,27.293z M27.586,22L23,26.586
	L17.914,21.5l4.586-4.586L27.586,22z M9.5,13.086L7.414,11L12,6.414L14.086,8.5L9.5,13.086z M9,3.414L10.586,5L6,9.586L4.414,8
	L9,3.414z M6,19.414l2.293,2.293C8.488,21.902,8.744,22,9,22s0.512-0.098,0.707-0.293c0.391-0.391,0.391-1.023,0-1.414L7.414,18
	L9,16.414l1.293,1.293C10.488,17.902,10.744,18,11,18s0.512-0.098,0.707-0.293c0.391-0.391,0.391-1.023,0-1.414L10.414,15L12,13.414
	l2.293,2.293C14.488,15.902,14.744,16,15,16s0.512-0.098,0.707-0.293c0.391-0.391,0.391-1.023,0-1.414L13.414,12L15,10.414
	l1.293,1.293C16.488,11.902,16.744,12,17,12s0.512-0.098,0.707-0.293c0.391-0.391,0.391-1.023,0-1.414L16.414,9L18,7.414
	l2.293,2.293C20.488,9.902,20.744,10,21,10s0.512-0.098,0.707-0.293c0.391-0.391,0.391-1.023,0-1.414L19.414,6L22,3.414L27.586,9
	L9,27.586L3.414,22L6,19.414z"/>
</svg>
