<?xml version="1.0" encoding="utf-8"?>
<!-- Generator: Adobe Illustrator 19.2.1, SVG Export Plug-In . SVG Version: 6.00 Build 0)  -->
<!DOCTYPE svg PUBLIC "-//W3C//DTD SVG 1.1//EN" "http://www.w3.org/Graphics/SVG/1.1/DTD/svg11.dtd">
<svg version="1.1" id="Layer_1" xmlns="http://www.w3.org/2000/svg" xmlns:xlink="http://www.w3.org/1999/xlink" x="0px" y="0px"
	 width="32px" height="32px" viewBox="0 0 32 32" enable-background="new 0 0 32 32" xml:space="preserve">
<path d="M2,31c0.256,0,0.512-0.098,0.707-0.293L5,28.414l1.293,1.293C6.488,29.902,6.744,30,7,30s0.512-0.098,0.707-0.293L14,23.414
	l0.293,0.293C14.488,23.902,14.744,24,15,24s0.512-0.098,0.707-0.293L27,12.414L28.586,14l-7.293,7.293
	c-0.391,0.391-0.391,1.023,0,1.414C21.488,22.902,21.744,23,22,23s0.512-0.098,0.707-0.293l8-8c0.391-0.391,0.391-1.023,0-1.414
	l-3-3l-6-6c-0.391-0.391-1.023-0.391-1.414,0l-12,12c-0.391,0.391-0.391,1.023,0,1.414L8.586,18l-6.293,6.293
	c-0.391,0.391-0.391,1.023,0,1.414L3.586,27l-2.293,2.293c-0.391,0.391-0.391,1.023,0,1.414C1.488,30.902,1.744,31,2,31z M21,6.414
	L25.586,11L15,21.586L10.414,17L21,6.414z M10,19.414L12.586,22L7,27.586L4.414,25L10,19.414z"/>
<path d="M26.172,1.828l-2,2l4,4l2-2c1.105-1.105,1.105-2.895,0-4C29.067,0.724,27.276,0.724,26.172,1.828z"/>
</svg>
