<?xml version="1.0" encoding="utf-8"?>
<!-- Generator: Adobe Illustrator 19.2.1, SVG Export Plug-In . SVG Version: 6.00 Build 0)  -->
<!DOCTYPE svg PUBLIC "-//W3C//DTD SVG 1.1//EN" "http://www.w3.org/Graphics/SVG/1.1/DTD/svg11.dtd">
<svg version="1.1" id="Layer_1" xmlns="http://www.w3.org/2000/svg" xmlns:xlink="http://www.w3.org/1999/xlink" x="0px" y="0px"
	 width="32px" height="32px" viewBox="0 0 32 32" enable-background="new 0 0 32 32" xml:space="preserve">
<path d="M1,5c0,2.206,1.794,4,4,4s4-1.794,4-4S7.206,1,5,1S1,2.794,1,5z M5,3c1.103,0,2,0.897,2,2S6.103,7,5,7S3,6.103,3,5
	S3.897,3,5,3z"/>
<path d="M5,20c2.206,0,4-1.794,4-4s-1.794-4-4-4s-4,1.794-4,4S2.794,20,5,20z M5,14c1.103,0,2,0.897,2,2s-0.897,2-2,2s-2-0.897-2-2
	S3.897,14,5,14z"/>
<path d="M5,31c2.206,0,4-1.794,4-4s-1.794-4-4-4s-4,1.794-4,4S2.794,31,5,31z M5,25c1.103,0,2,0.897,2,2s-0.897,2-2,2s-2-0.897-2-2
	S3.897,25,5,25z"/>
<path d="M30,4H13c-0.553,0-1,0.447-1,1s0.447,1,1,1h17c0.553,0,1-0.447,1-1S30.553,4,30,4z"/>
<path d="M30,15H13c-0.553,0-1,0.447-1,1s0.447,1,1,1h17c0.553,0,1-0.447,1-1S30.553,15,30,15z"/>
<path d="M30,26H13c-0.553,0-1,0.447-1,1s0.447,1,1,1h17c0.553,0,1-0.447,1-1S30.553,26,30,26z"/>
</svg>
