<?xml version="1.0" encoding="utf-8"?>
<!-- Generator: Adobe Illustrator 19.2.1, SVG Export Plug-In . SVG Version: 6.00 Build 0)  -->
<!DOCTYPE svg PUBLIC "-//W3C//DTD SVG 1.1//EN" "http://www.w3.org/Graphics/SVG/1.1/DTD/svg11.dtd">
<svg version="1.1" id="Layer_1" xmlns="http://www.w3.org/2000/svg" xmlns:xlink="http://www.w3.org/1999/xlink" x="0px" y="0px"
	 width="32px" height="32px" viewBox="0 0 32 32" enable-background="new 0 0 32 32" xml:space="preserve">
<path fill="#222221" d="M22.515,8.126l-9,5c-0.163,0.091-0.298,0.226-0.389,0.389l-5,9c-0.217,0.39-0.148,0.877,0.167,1.192
	C8.485,23.899,8.741,24,9,24c0.166,0,0.333-0.041,0.485-0.126l9-5c0.163-0.091,0.298-0.226,0.389-0.389l5-9
	c0.217-0.39,0.148-0.877-0.167-1.192C23.391,7.978,22.904,7.908,22.515,8.126z M17.265,17.265l-5.69,3.161l3.161-5.69l5.69-3.161
	L17.265,17.265z"/>
<path fill="#222221" d="M16,0C7.178,0,0,7.178,0,16s7.178,16,16,16s16-7.178,16-16S24.822,0,16,0z M16,30C8.28,30,2,23.72,2,16
	S8.28,2,16,2s14,6.28,14,14S23.72,30,16,30z"/>
</svg>
