<?xml version="1.0" encoding="utf-8"?>
<!-- Generator: Adobe Illustrator 19.2.1, SVG Export Plug-In . SVG Version: 6.00 Build 0)  -->
<!DOCTYPE svg PUBLIC "-//W3C//DTD SVG 1.1//EN" "http://www.w3.org/Graphics/SVG/1.1/DTD/svg11.dtd">
<svg version="1.1" id="Layer_1" xmlns="http://www.w3.org/2000/svg" xmlns:xlink="http://www.w3.org/1999/xlink" x="0px" y="0px"
	 width="32px" height="32px" viewBox="0 0 32 32" enable-background="new 0 0 32 32" xml:space="preserve">
<path d="M10.707,17.293l-4-4c-0.391-0.391-1.023-0.391-1.414,0s-0.391,1.023,0,1.414L8.586,18l-3.293,3.293
	c-0.391,0.391-0.391,1.023,0,1.414C5.488,22.902,5.744,23,6,23s0.512-0.098,0.707-0.293l4-4
	C11.098,18.316,11.098,17.684,10.707,17.293z"/>
<path d="M18,21h-6c-0.552,0-1,0.448-1,1s0.448,1,1,1h6c0.552,0,1-0.448,1-1S18.552,21,18,21z"/>
<path d="M31,2H1C0.448,2,0,2.448,0,3v26c0,0.552,0.448,1,1,1h30c0.552,0,1-0.448,1-1V3C32,2.448,31.552,2,31,2z M30,7H8V4h22V7z
	 M6,4v3H2V4H6z M2,28V9h28v19H2z"/>
</svg>
