<?xml version="1.0" encoding="utf-8"?>
<!-- Generator: Adobe Illustrator 19.2.1, SVG Export Plug-In . SVG Version: 6.00 Build 0)  -->
<!DOCTYPE svg PUBLIC "-//W3C//DTD SVG 1.1//EN" "http://www.w3.org/Graphics/SVG/1.1/DTD/svg11.dtd">
<svg version="1.1" id="Layer_1" xmlns="http://www.w3.org/2000/svg" xmlns:xlink="http://www.w3.org/1999/xlink" x="0px" y="0px"
	 width="32px" height="32px" viewBox="0 0 32 32" enable-background="new 0 0 32 32" xml:space="preserve">
<path d="M7,26h18c0.553,0,1-0.448,1-1V7c0-0.552-0.447-1-1-1H7C6.447,6,6,6.448,6,7v18C6,25.552,6.447,26,7,26z M8,8h16v16H8V8z"/>
<path d="M1,8h2c0.553,0,1-0.448,1-1S3.553,6,3,6H1C0.447,6,0,6.448,0,7S0.447,8,1,8z"/>
<path d="M1,26h2c0.553,0,1-0.448,1-1s-0.447-1-1-1H1c-0.553,0-1,0.448-1,1S0.447,26,1,26z"/>
<path d="M29,8h2c0.553,0,1-0.448,1-1s-0.447-1-1-1h-2c-0.553,0-1,0.448-1,1S28.447,8,29,8z"/>
<path d="M31,24h-2c-0.553,0-1,0.448-1,1s0.447,1,1,1h2c0.553,0,1-0.448,1-1S31.553,24,31,24z"/>
<path d="M7,4c0.553,0,1-0.448,1-1V1c0-0.552-0.447-1-1-1S6,0.448,6,1v2C6,3.552,6.447,4,7,4z"/>
<path d="M24,1v2c0,0.552,0.447,1,1,1s1-0.448,1-1V1c0-0.552-0.447-1-1-1S24,0.448,24,1z"/>
<path d="M7,32c0.553,0,1-0.448,1-1v-2c0-0.552-0.447-1-1-1s-1,0.448-1,1v2C6,31.552,6.447,32,7,32z"/>
<path d="M25,28c-0.553,0-1,0.448-1,1v2c0,0.552,0.447,1,1,1s1-0.448,1-1v-2C26,28.448,25.553,28,25,28z"/>
</svg>
