<?xml version="1.0" encoding="utf-8"?>
<!-- Generator: Adobe Illustrator 19.2.1, SVG Export Plug-In . SVG Version: 6.00 Build 0)  -->
<!DOCTYPE svg PUBLIC "-//W3C//DTD SVG 1.1//EN" "http://www.w3.org/Graphics/SVG/1.1/DTD/svg11.dtd">
<svg version="1.1" id="Layer_1" xmlns="http://www.w3.org/2000/svg" xmlns:xlink="http://www.w3.org/1999/xlink" x="0px" y="0px"
	 width="32px" height="32px" viewBox="0 0 32 32" enable-background="new 0 0 32 32" xml:space="preserve">
<path d="M29.293,13.121c1.17-1.169,1.17-3.073,0-4.242l-6.172-6.172c-1.17-1.17-3.072-1.17-4.242,0L2.707,18.879
	c-1.17,1.169-1.17,3.073,0,4.242L7.586,28H3c-0.552,0-1,0.448-1,1s0.448,1,1,1h8.967c0.009,0,0.018,0.005,0.028,0.005
	S12.013,30,12.022,30H29c0.552,0,1-0.448,1-1s-0.448-1-1-1H14.414L29.293,13.121z M20.293,4.121c0.39-0.39,1.024-0.39,1.414,0
	l6.172,6.172c0.39,0.39,0.39,1.024,0,1.414L20.5,19.086L12.914,11.5L20.293,4.121z M10.414,28l-6.293-6.293
	c-0.39-0.39-0.39-1.024,0-1.414l7.379-7.379l7.586,7.586l-7.5,7.5H10.414z"/>
</svg>
