<?xml version="1.0" encoding="utf-8"?>
<!-- Generator: Adobe Illustrator 19.2.1, SVG Export Plug-In . SVG Version: 6.00 Build 0)  -->
<!DOCTYPE svg PUBLIC "-//W3C//DTD SVG 1.1//EN" "http://www.w3.org/Graphics/SVG/1.1/DTD/svg11.dtd">
<svg version="1.1" id="Layer_1" xmlns="http://www.w3.org/2000/svg" xmlns:xlink="http://www.w3.org/1999/xlink" x="0px" y="0px"
	 width="32px" height="32px" viewBox="0 0 32 32" enable-background="new 0 0 32 32" xml:space="preserve">
<path d="M16.084,31.121c7.166,0,13.53-4.811,15.487-11.729c0.228-0.917,2.049-9.047-4.085-12.113
	c-3.904-1.869-7.42-0.755-10.245,0.14c-2.601,0.823-3.737,1.067-4.47,0.162c-0.181-0.241,0.028-0.937,0.212-1.551
	c0.333-1.109,0.789-2.628-0.217-3.94c-1.28-1.681-4.095-1.47-5.932-0.211C2.555,4.891,0,9.811,0,15.037
	C0,23.906,7.215,31.121,16.084,31.121z M7.974,3.521C8.586,3.102,9.36,2.882,10.01,2.882c0.514,0,0.95,0.137,1.167,0.422
	c0.359,0.469,0.198,1.125-0.11,2.151c-0.304,1.014-0.683,2.277,0.126,3.355c1.69,2.086,4.212,1.288,6.651,0.515
	c2.619-0.83,5.588-1.77,8.763-0.25c4.807,2.403,3.098,9.532,3.031,9.804c-1.706,6.03-7.279,10.242-13.554,10.242
	C8.318,29.121,2,22.803,2,15.037C2,10.46,4.237,6.152,7.974,3.521z"/>
<path d="M23,18c2.206,0,4-1.794,4-4s-1.794-4-4-4s-4,1.794-4,4S20.794,18,23,18z M23,12c1.103,0,2,0.897,2,2s-0.897,2-2,2
	s-2-0.897-2-2S21.897,12,23,12z"/>
<path d="M10,14c0-1.654-1.346-3-3-3s-3,1.346-3,3s1.346,3,3,3S10,15.654,10,14z M6,14c0-0.551,0.449-1,1-1s1,0.449,1,1s-0.449,1-1,1
	S6,14.551,6,14z"/>
<path d="M9,24c1.654,0,3-1.346,3-3s-1.346-3-3-3s-3,1.346-3,3S7.346,24,9,24z M9,20c0.551,0,1,0.449,1,1s-0.449,1-1,1s-1-0.449-1-1
	S8.449,20,9,20z"/>
<path d="M16,27c1.654,0,3-1.346,3-3s-1.346-3-3-3s-3,1.346-3,3S14.346,27,16,27z M16,23c0.551,0,1,0.449,1,1s-0.449,1-1,1
	s-1-0.449-1-1S15.449,23,16,23z"/>
</svg>
