<?xml version="1.0" encoding="utf-8"?>
<!-- Generator: Adobe Illustrator 19.2.1, SVG Export Plug-In . SVG Version: 6.00 Build 0)  -->
<!DOCTYPE svg PUBLIC "-//W3C//DTD SVG 1.1//EN" "http://www.w3.org/Graphics/SVG/1.1/DTD/svg11.dtd">
<svg version="1.1" id="Layer_1" xmlns="http://www.w3.org/2000/svg" xmlns:xlink="http://www.w3.org/1999/xlink" x="0px" y="0px"
	 width="32px" height="32px" viewBox="0 0 32 32" enable-background="new 0 0 32 32" xml:space="preserve">
<path d="M31,2c0-0.256-0.098-0.512-0.293-0.707c-0.391-0.391-1.023-0.391-1.414,0c-1.051,1.051-3.535,1.051-4.586,0
	c-0.391-0.391-1.023-0.391-1.414,0C23.098,1.488,23,1.744,23,2s0.098,0.512,0.293,0.707c1.05,1.05,1.05,3.536,0,4.586
	C23.098,7.488,23,7.744,23,8s0.098,0.512,0.293,0.707c0.391,0.391,1.023,0.391,1.414,0c1.051-1.051,3.535-1.051,4.586,0
	C29.488,8.902,29.744,9,30,9s0.512-0.098,0.707-0.293S31,8.256,31,8s-0.098-0.512-0.293-0.707c-1.05-1.05-1.05-3.536,0-4.586
	C30.902,2.512,31,2.256,31,2z M27.994,5.994C27.667,5.942,27.334,5.916,27,5.916s-0.667,0.026-0.994,0.078
	c0.104-0.653,0.104-1.335,0-1.988c0.654,0.104,1.334,0.104,1.988,0C27.89,4.659,27.89,5.341,27.994,5.994z"/>
<path d="M32,17c0-0.256-0.098-0.512-0.293-0.707c-0.391-0.391-1.023-0.391-1.414,0c-1.051,1.051-3.535,1.051-4.586,0
	c-0.391-0.391-1.023-0.391-1.414,0C24.098,16.488,24,16.744,24,17s0.098,0.512,0.293,0.707c1.05,1.05,1.05,3.536,0,4.586
	C24.098,22.488,24,22.744,24,23s0.098,0.512,0.293,0.707c0.391,0.391,1.023,0.391,1.414,0c1.051-1.051,3.535-1.051,4.586,0
	C30.488,23.902,30.744,24,31,24s0.512-0.098,0.707-0.293S32,23.256,32,23s-0.098-0.512-0.293-0.707c-1.05-1.05-1.05-3.536,0-4.586
	C31.902,17.512,32,17.256,32,17z M28.994,20.994c-0.327-0.052-0.66-0.078-0.994-0.078s-0.667,0.026-0.994,0.078
	c0.104-0.653,0.104-1.335,0-1.988c0.654,0.104,1.334,0.104,1.988,0C28.89,19.659,28.89,20.341,28.994,20.994z"/>
<path d="M16,1c0-0.256-0.098-0.512-0.293-0.707c-0.391-0.391-1.023-0.391-1.414,0c-1.051,1.051-3.535,1.051-4.586,0
	c-0.391-0.391-1.023-0.391-1.414,0C8.098,0.488,8,0.744,8,1s0.098,0.512,0.293,0.707c1.05,1.05,1.05,3.536,0,4.586
	C8.098,6.488,8,6.744,8,7s0.098,0.512,0.293,0.707c0.391,0.391,1.023,0.391,1.414,0c1.051-1.051,3.535-1.051,4.586,0
	C14.488,7.902,14.744,8,15,8s0.512-0.098,0.707-0.293S16,7.256,16,7s-0.098-0.512-0.293-0.707c-1.05-1.05-1.05-3.536,0-4.586
	C15.902,1.512,16,1.256,16,1z M12.994,4.994C12.667,4.942,12.334,4.916,12,4.916s-0.667,0.026-0.994,0.078
	c0.104-0.653,0.104-1.335,0-1.988c0.654,0.104,1.334,0.104,1.988,0C12.89,3.659,12.89,4.341,12.994,4.994z"/>
<path d="M24.707,12.293l-5-5c-0.391-0.391-1.023-0.391-1.414,0l-17,17c-0.391,0.391-0.391,1.023,0,1.414l5,5
	C6.488,30.902,6.744,31,7,31s0.512-0.098,0.707-0.293l17-17C25.098,13.316,25.098,12.684,24.707,12.293z M7,28.586L3.414,25
	L15,13.414L18.586,17L7,28.586z M20,15.586L16.414,12L19,9.414L22.586,13L20,15.586z"/>
</svg>
