<?xml version="1.0" encoding="utf-8"?>
<!-- Generator: Adobe Illustrator 19.2.1, SVG Export Plug-In . SVG Version: 6.00 Build 0)  -->
<!DOCTYPE svg PUBLIC "-//W3C//DTD SVG 1.1//EN" "http://www.w3.org/Graphics/SVG/1.1/DTD/svg11.dtd">
<svg version="1.1" id="Layer_1" xmlns="http://www.w3.org/2000/svg" xmlns:xlink="http://www.w3.org/1999/xlink" x="0px" y="0px"
	 width="32px" height="32px" viewBox="0 0 32 32" enable-background="new 0 0 32 32" xml:space="preserve">
<path d="M1,30h30c0.553,0,1-0.448,1-1V3c0-0.552-0.447-1-1-1h-9.913c-0.002,0-0.003,0-0.005,0H1C0.447,2,0,2.448,0,3v26
	C0,29.552,0.447,30,1,30z M20.409,4c0.42,1.125,1.295,3.726,1.815,7h-7.8c-0.824-3.103-2.247-5.513-3.32-7H20.409z M22.479,13
	c0.096,0.968,0.157,1.97,0.157,3c0,1.031-0.061,2.033-0.156,3h-7.618c0.145-0.948,0.228-1.948,0.228-3c0-1.049-0.088-2.049-0.237-3
	H22.479z M30,19h-5.507c0.088-0.966,0.144-1.967,0.144-3c0-1.031-0.056-2.032-0.146-3H30V19z M11.129,28
	c1.08-1.478,2.497-3.87,3.312-7h7.786c-0.519,3.282-1.396,5.878-1.816,7H11.129z M13.091,16c0,1.058-0.103,2.055-0.267,3H2v-6
	h10.816C12.984,13.947,13.091,14.945,13.091,16z M2,21h10.364c-1.089,3.706-3.089,6.196-3.801,7H2V21z M22.539,28
	c0.51-1.457,1.264-3.947,1.716-7H30v7H22.539z M30,11h-5.747c-0.454-3.045-1.208-5.54-1.717-7H30V11z M8.557,4
	c0.714,0.822,2.7,3.336,3.793,7H2V4H8.557z"/>
</svg>
