<?xml version="1.0" encoding="utf-8"?>
<!-- Generator: Adobe Illustrator 19.2.1, SVG Export Plug-In . SVG Version: 6.00 Build 0)  -->
<!DOCTYPE svg PUBLIC "-//W3C//DTD SVG 1.1//EN" "http://www.w3.org/Graphics/SVG/1.1/DTD/svg11.dtd">
<svg version="1.1" id="Layer_1" xmlns="http://www.w3.org/2000/svg" xmlns:xlink="http://www.w3.org/1999/xlink" x="0px" y="0px"
	 width="32px" height="32px" viewBox="0 0 32 32" enable-background="new 0 0 32 32" xml:space="preserve">
<path d="M13,5H9C8.448,5,8,5.448,8,6v3.09C5.167,9.569,3,12.033,3,15v16c0,0.552,0.448,1,1,1h14c0.552,0,1-0.448,1-1V15
	c0-2.967-2.167-5.431-5-5.91V6C14,5.448,13.552,5,13,5z M12,7v2h-2V7H12z M5,30V16h12v14H5z M16.858,14H5.142
	c0.447-1.72,2-3,3.858-3h4C14.858,11,16.411,12.28,16.858,14z"/>
<path d="M23,8c0,0.552,0.448,1,1,1h4c0.552,0,1-0.448,1-1s-0.448-1-1-1h-4C23.448,7,23,7.448,23,8z"/>
<path d="M23.293,1.293l-2,2c-0.391,0.391-0.391,1.023,0,1.414C21.488,4.902,21.744,5,22,5s0.512-0.098,0.707-0.293l2-2
	c0.391-0.391,0.391-1.023,0-1.414S23.684,0.902,23.293,1.293z"/>
<path d="M21.293,12.707l2,2C23.488,14.902,23.744,15,24,15s0.512-0.098,0.707-0.293c0.391-0.391,0.391-1.023,0-1.414l-2-2
	c-0.391-0.391-1.023-0.391-1.414,0S20.902,12.316,21.293,12.707z"/>
</svg>
