<?xml version="1.0" encoding="utf-8"?>
<!-- Generator: Adobe Illustrator 19.2.1, SVG Export Plug-In . SVG Version: 6.00 Build 0)  -->
<!DOCTYPE svg PUBLIC "-//W3C//DTD SVG 1.1//EN" "http://www.w3.org/Graphics/SVG/1.1/DTD/svg11.dtd">
<svg version="1.1" id="Layer_1" xmlns="http://www.w3.org/2000/svg" xmlns:xlink="http://www.w3.org/1999/xlink" x="0px" y="0px"
	 width="32px" height="32px" viewBox="0 0 32 32" enable-background="new 0 0 32 32" xml:space="preserve">
<path d="M31,3h-2V2c0-1.103-0.897-2-2-2h-9c-1.103,0-2,0.897-2,2v1H1C0.447,3,0,3.447,0,4v20c0,0.553,0.447,1,1,1h2v1
	c0,1.103,0.897,2,2,2h5c1.103,0,2-0.897,2-2v-1h19c0.553,0,1-0.447,1-1V4C32,3.447,31.553,3,31,3z M18,2h9l0,1.999C27,4,27,4,27,4
	s0,0,0,0.001L27.001,15H18V2z M5,26V16h5l0.001,7.996C10.001,23.997,10,23.999,10,24s0.001,0.002,0.001,0.004l0,1.996H5z M30,23H12
	v-7c0-1.103-0.897-2-2-2H5c-1.103,0-2,0.897-2,2v7H2V5h14v10c0,1.103,0.897,2,2,2h9c1.103,0,2-0.897,2-2V5h1V23z"/>
<path d="M21,29h-2v-1c0-0.553-0.447-1-1-1h-4c-0.553,0-1,0.447-1,1v1h-2c-0.553,0-1,0.447-1,1s0.447,1,1,1h10c0.553,0,1-0.447,1-1
	S21.553,29,21,29z"/>
<path d="M22,14h1c0.553,0,1-0.447,1-1s-0.447-1-1-1h-1c-0.553,0-1,0.447-1,1S21.447,14,22,14z"/>
<path d="M8,23H7c-0.553,0-1,0.447-1,1s0.447,1,1,1h1c0.553,0,1-0.447,1-1S8.553,23,8,23z"/>
</svg>
