<?xml version="1.0" encoding="utf-8"?>
<!-- Generator: Adobe Illustrator 19.2.1, SVG Export Plug-In . SVG Version: 6.00 Build 0)  -->
<!DOCTYPE svg PUBLIC "-//W3C//DTD SVG 1.1//EN" "http://www.w3.org/Graphics/SVG/1.1/DTD/svg11.dtd">
<svg version="1.1" id="Layer_1" xmlns="http://www.w3.org/2000/svg" xmlns:xlink="http://www.w3.org/1999/xlink" x="0px" y="0px"
	 width="32px" height="32px" viewBox="0 0 32 32" enable-background="new 0 0 32 32" xml:space="preserve">
<path d="M2,9v22c0,0.553,0.447,1,1,1h26c0.553,0,1-0.447,1-1V9c0-0.553-0.447-1-1-1H3C2.447,8,2,8.447,2,9z M4,10h24v20H4V10z"/>
<path d="M6,5c0,0.553,0.447,1,1,1h18c0.553,0,1-0.447,1-1s-0.447-1-1-1H7C6.447,4,6,4.447,6,5z"/>
<path d="M21,2c0.553,0,1-0.447,1-1s-0.447-1-1-1H11c-0.553,0-1,0.447-1,1s0.447,1,1,1H21z"/>
</svg>
