<?xml version="1.0" encoding="utf-8"?>
<!-- Generator: Adobe Illustrator 19.2.1, SVG Export Plug-In . SVG Version: 6.00 Build 0)  -->
<!DOCTYPE svg PUBLIC "-//W3C//DTD SVG 1.1//EN" "http://www.w3.org/Graphics/SVG/1.1/DTD/svg11.dtd">
<svg version="1.1" id="Layer_1" xmlns="http://www.w3.org/2000/svg" xmlns:xlink="http://www.w3.org/1999/xlink" x="0px" y="0px"
	 width="32px" height="32px" viewBox="0 0 32 32" enable-background="new 0 0 32 32" xml:space="preserve">
<path fill="#222221" d="M19.833,32h8.334C29.178,32,30,31.103,30,30V14c0-1.103-0.822-2-1.833-2H26V2c0-1.103-0.897-2-2-2H4
	C2.897,0,2,0.897,2,2v24c0,1.103,0.897,2,2,2h14v2C18,31.103,18.822,32,19.833,32z M20,12h-0.167C18.822,12,18,12.897,18,14v6H8V6
	h12V12z M20,30l0.002-2h7.985l-0.002,2H20z M27.989,26h-7.985l0.011-12H28L27.989,26z M4,2h20v10h-2V5c0-0.552-0.447-1-1-1H7
	C6.447,4,6,4.448,6,5v16c0,0.553,0.447,1,1,1h11v4H4V2z"/>
</svg>
