<?xml version="1.0" encoding="utf-8"?>
<!-- Generator: Adobe Illustrator 19.2.1, SVG Export Plug-In . SVG Version: 6.00 Build 0)  -->
<!DOCTYPE svg PUBLIC "-//W3C//DTD SVG 1.1//EN" "http://www.w3.org/Graphics/SVG/1.1/DTD/svg11.dtd">
<svg version="1.1" id="Layer_1" xmlns="http://www.w3.org/2000/svg" xmlns:xlink="http://www.w3.org/1999/xlink" x="0px" y="0px"
	 width="32px" height="32px" viewBox="0 0 32 32" enable-background="new 0 0 32 32" xml:space="preserve">
<path d="M15,14h2c0.553,0,1-0.447,1-1s-0.447-1-1-1h-2c-0.553,0-1,0.447-1,1S14.447,14,15,14z"/>
<path d="M26,16h-7c-0.553,0-1,0.447-1,1s0.447,1,1,1h7c0.553,0,1-0.447,1-1S26.553,16,26,16z"/>
<path d="M22,20h-5c-0.553,0-1,0.447-1,1s0.447,1,1,1h5c0.553,0,1-0.447,1-1S22.553,20,22,20z"/>
<path d="M17,24h-2c-0.553,0-1,0.447-1,1s0.447,1,1,1h2c0.553,0,1-0.447,1-1S17.553,24,17,24z"/>
<path d="M31,2H1C0.447,2,0,2.447,0,3v26c0,0.553,0.447,1,1,1h30c0.553,0,1-0.447,1-1V3C32,2.447,31.553,2,31,2z M30,4v3H2V4H30z
	 M2,9h7v19H2V9z M11,28V9h19v19H11z"/>
</svg>
