<?xml version="1.0" encoding="utf-8"?>
<!-- Generator: Adobe Illustrator 19.2.1, SVG Export Plug-In . SVG Version: 6.00 Build 0)  -->
<!DOCTYPE svg PUBLIC "-//W3C//DTD SVG 1.1//EN" "http://www.w3.org/Graphics/SVG/1.1/DTD/svg11.dtd">
<svg version="1.1" id="Layer_1" xmlns="http://www.w3.org/2000/svg" xmlns:xlink="http://www.w3.org/1999/xlink" x="0px" y="0px"
	 width="32px" height="32px" viewBox="0 0 32 32" enable-background="new 0 0 32 32" xml:space="preserve">
<path fill="#222221" d="M2,1v30c0,0.552,0.447,1,1,1h11c0.553,0,1-0.448,1-1V1c0-0.552-0.447-1-1-1H3C2.447,0,2,0.448,2,1z M13,2v28
	H4v-3h4c0.553,0,1-0.448,1-1s-0.447-1-1-1H4v-3h2c0.553,0,1-0.448,1-1s-0.447-1-1-1H4v-3h4c0.553,0,1-0.448,1-1s-0.447-1-1-1H4v-3h2
	c0.553,0,1-0.448,1-1s-0.447-1-1-1H4V7h4c0.553,0,1-0.448,1-1S8.553,5,8,5H4V2H13z"/>
<path fill="#222221" d="M18.231,24.64l5,6C23.422,30.868,23.703,31,24,31s0.578-0.132,0.769-0.36l5-6
	c0.04-0.048,0.062-0.106,0.092-0.16c0.022-0.039,0.05-0.073,0.066-0.116C29.972,24.249,30,24.126,30,24V1c0-0.552-0.447-1-1-1H19
	c-0.553,0-1,0.448-1,1v23c0,0.126,0.028,0.249,0.074,0.365c0.017,0.042,0.044,0.076,0.066,0.115
	C18.17,24.534,18.191,24.592,18.231,24.64z M28,7v16h-3V7H28z M23,23h-3V7h3V23z M24,28.438L21.135,25h5.73L24,28.438z M28,2v3h-8V2
	H28z"/>
</svg>
