<?xml version="1.0" encoding="utf-8"?>
<!-- Generator: Adobe Illustrator 19.2.1, SVG Export Plug-In . SVG Version: 6.00 Build 0)  -->
<!DOCTYPE svg PUBLIC "-//W3C//DTD SVG 1.1//EN" "http://www.w3.org/Graphics/SVG/1.1/DTD/svg11.dtd">
<svg version="1.1" id="Layer_1" xmlns="http://www.w3.org/2000/svg" xmlns:xlink="http://www.w3.org/1999/xlink" x="0px" y="0px"
	 width="32px" height="32px" viewBox="0 0 32 32" enable-background="new 0 0 32 32" xml:space="preserve">
<path d="M23.586,8l2.707,2.707C26.48,10.895,26.735,11,27,11h2c0.552,0,1-0.448,1-1V3c0-0.552-0.448-1-1-1H3C2.448,2,2,2.448,2,3v7
	c0,0.552,0.448,1,1,1h2c0.265,0,0.52-0.105,0.707-0.293L8.414,8H13v15.586l-2.707,2.707C10.105,26.48,10,26.735,10,27v2
	c0,0.552,0.448,1,1,1h10c0.552,0,1-0.448,1-1v-2c0-0.265-0.105-0.52-0.293-0.707L19,23.586V8H23.586z M17.293,24.707L20,27.414V28
	h-8v-0.586l2.707-2.707C14.895,24.52,15,24.265,15,24V7c0-0.552-0.448-1-1-1H8C7.735,6,7.48,6.105,7.293,6.293L4.586,9H4V4h24v5
	h-0.586l-2.707-2.707C24.52,6.105,24.265,6,24,6h-6c-0.552,0-1,0.448-1,1v17C17,24.265,17.105,24.52,17.293,24.707z"/>
</svg>
