<?xml version="1.0" encoding="utf-8"?>
<!-- Generator: Adobe Illustrator 19.2.1, SVG Export Plug-In . SVG Version: 6.00 Build 0)  -->
<!DOCTYPE svg PUBLIC "-//W3C//DTD SVG 1.1//EN" "http://www.w3.org/Graphics/SVG/1.1/DTD/svg11.dtd">
<svg version="1.1" id="Layer_1" xmlns="http://www.w3.org/2000/svg" xmlns:xlink="http://www.w3.org/1999/xlink" x="0px" y="0px"
	 width="32px" height="32px" viewBox="0 0 32 32" enable-background="new 0 0 32 32" xml:space="preserve">
<path d="M24,1H8C7.448,1,7,1.448,7,2v4C6.448,6,6,6.448,6,7v18c0,0.552,0.448,1,1,1v4c0,0.552,0.448,1,1,1h16c0.552,0,1-0.448,1-1
	v-4c0.552,0,1-0.448,1-1V7c0-0.552-0.448-1-1-1V2C25,1.448,24.552,1,24,1z M24,8v16H8V8H24z M23,29H9v-3h14V29z M9,6V3h14v3H9z"/>
<path d="M11,22c0.552,0,1-0.448,1-1v-5c0-0.552-0.448-1-1-1s-1,0.448-1,1v5C10,21.552,10.448,22,11,22z"/>
</svg>
