<?xml version="1.0" encoding="utf-8"?>
<!-- Generator: Adobe Illustrator 19.2.1, SVG Export Plug-In . SVG Version: 6.00 Build 0)  -->
<!DOCTYPE svg PUBLIC "-//W3C//DTD SVG 1.1//EN" "http://www.w3.org/Graphics/SVG/1.1/DTD/svg11.dtd">
<svg version="1.1" id="Layer_1" xmlns="http://www.w3.org/2000/svg" xmlns:xlink="http://www.w3.org/1999/xlink" x="0px" y="0px"
	 width="32px" height="32px" viewBox="0 0 32 32" enable-background="new 0 0 32 32" xml:space="preserve">
<path fill="#222221" d="M23.707,2.293C23.52,2.105,23.265,2,23,2h-6c-0.552,0-1,0.448-1,1v5H6V1c0-0.552-0.448-1-1-1S4,0.448,4,1v24
	c0,0.553,0.448,1,1,1h11v5c0,0.553,0.448,1,1,1h10c0.552,0,1-0.447,1-1v-8c0-0.266-0.105-0.52-0.293-0.707l-4-4
	C23.52,18.105,23.265,18,23,18h-6c-0.552,0-1,0.447-1,1v5H6V10h10v5c0,0.552,0.448,1,1,1h10c0.552,0,1-0.448,1-1V7
	c0-0.265-0.105-0.52-0.293-0.707L23.707,2.293z M18,20h4.586L26,23.414V30h-8V20z M26,14h-8V4h4.586L26,7.414V14z"/>
</svg>
