<?xml version="1.0" encoding="utf-8"?>
<!-- Generator: Adobe Illustrator 19.2.1, SVG Export Plug-In . SVG Version: 6.00 Build 0)  -->
<!DOCTYPE svg PUBLIC "-//W3C//DTD SVG 1.1//EN" "http://www.w3.org/Graphics/SVG/1.1/DTD/svg11.dtd">
<svg version="1.1" id="Layer_1" xmlns="http://www.w3.org/2000/svg" xmlns:xlink="http://www.w3.org/1999/xlink" x="0px" y="0px"
	 width="32px" height="32px" viewBox="0 0 32 32" enable-background="new 0 0 32 32" xml:space="preserve">
<path fill="#222221" d="M4,23.382l-3.447,1.724c-0.494,0.247-0.694,0.848-0.447,1.342C0.281,26.798,0.634,27,1.001,27
	c0.15,0,0.303-0.034,0.446-0.105l3.573-1.787l10.565,4.802c0.004,0.002,0.008,0.001,0.012,0.003C15.721,29.967,15.856,30,16,30
	s0.279-0.033,0.403-0.087c0.004-0.002,0.008-0.001,0.012-0.003l10.565-4.802l3.573,1.787C30.696,26.966,30.849,27,30.999,27
	c0.367,0,0.72-0.202,0.896-0.553c0.247-0.494,0.047-1.095-0.447-1.342L28,23.382V10c0-0.005-0.002-0.01-0.002-0.015
	c0-0.018-0.007-0.036-0.008-0.054c-0.007-0.104-0.031-0.203-0.069-0.297c-0.006-0.016-0.004-0.032-0.011-0.047
	c-0.007-0.016-0.022-0.026-0.03-0.042c-0.045-0.087-0.102-0.167-0.17-0.237c-0.016-0.016-0.028-0.036-0.045-0.052
	c-0.074-0.066-0.158-0.124-0.251-0.166L17,4.356V1c0-0.552-0.447-1-1-1s-1,0.448-1,1v3.356L4.586,9.09
	c-0.094,0.043-0.177,0.1-0.252,0.167C4.318,9.271,4.307,9.29,4.292,9.305c-0.07,0.071-0.127,0.152-0.173,0.24
	C4.112,9.561,4.097,9.57,4.09,9.586C4.083,9.602,4.085,9.618,4.079,9.634C4.041,9.728,4.018,9.827,4.01,9.93
	C4.009,9.949,4.002,9.966,4.002,9.985C4.002,9.99,4,9.995,4,10V23.382z M6,11.553l9,4.091v11.803l-9-4.09V11.553z M16,6.099
	L24.583,10L16,13.901L7.417,10L16,6.099z M17,27.447V15.644l9-4.091v11.804L17,27.447z"/>
</svg>
