<?xml version="1.0" encoding="utf-8"?>
<!-- Generator: Adobe Illustrator 19.2.1, SVG Export Plug-In . SVG Version: 6.00 Build 0)  -->
<!DOCTYPE svg PUBLIC "-//W3C//DTD SVG 1.1//EN" "http://www.w3.org/Graphics/SVG/1.1/DTD/svg11.dtd">
<svg version="1.1" id="Layer_1" xmlns="http://www.w3.org/2000/svg" xmlns:xlink="http://www.w3.org/1999/xlink" x="0px" y="0px"
	 width="32px" height="32px" viewBox="0 0 32 32" enable-background="new 0 0 32 32" xml:space="preserve">
<path fill="#222221" d="M28.348,22.76c-1.91-0.709-3.183-2.406-3.322-4.429c-0.136-1.964,0.849-3.71,2.633-4.67
	c0.263-0.142,0.449-0.394,0.507-0.687s-0.018-0.596-0.207-0.827C26.349,10.177,24.054,9,21.82,9c-1.556,0-2.647,0.405-3.523,0.73
	c-0.67,0.249-1.199,0.445-1.814,0.445c-0.689,0-1.337-0.227-2.087-0.489c-0.917-0.32-1.957-0.685-3.269-0.685
	c-2.538,0-5.105,1.498-6.699,3.908c-2.405,3.637-1.728,9.896,1.61,14.885c1.302,1.946,3.118,4.183,5.632,4.205
	c0.016,0,0.032,0,0.047,0c1.041,0,1.76-0.314,2.396-0.593c0.659-0.288,1.28-0.561,2.399-0.566c0.013,0,0.025,0,0.037,0
	c1.092,0,1.693,0.27,2.328,0.556c0.634,0.286,1.334,0.566,2.419,0.599c2.453-0.022,4.268-2.245,5.719-4.416
	c0.873-1.301,1.212-1.982,1.893-3.464c0.116-0.253,0.122-0.543,0.015-0.8C28.818,23.058,28.609,22.856,28.348,22.76z M25.354,26.467
	c-1.093,1.636-2.545,3.515-4.075,3.528c-0.009,0-0.019,0-0.029,0c-0.61,0-1.007-0.178-1.552-0.423
	c-0.726-0.326-1.627-0.731-3.148-0.731c-0.016,0-0.032,0-0.047,0c-1.532,0.009-2.451,0.41-3.19,0.733
	c-0.573,0.251-0.967,0.43-1.625,0.426c-1.577-0.015-2.959-1.78-3.988-3.316c-3.261-4.874-3.26-10.166-1.604-12.67
	c1.229-1.857,3.156-3.012,5.031-3.012c0.972,0,1.767,0.278,2.608,0.572c0.845,0.296,1.719,0.602,2.748,0.602
	c0.975,0,1.756-0.29,2.511-0.57C19.795,11.308,20.624,11,21.82,11c1.319,0,2.688,0.584,3.816,1.6
	c-1.809,1.41-2.768,3.527-2.606,5.869c0.17,2.453,1.535,4.562,3.638,5.717C26.268,25.021,25.96,25.562,25.354,26.467z"/>
<path fill="#222221" d="M16.042,8.997C16.095,8.999,16.148,9,16.201,9c1.872,0,3.877-1.032,5.147-2.663
	c1.298-1.665,1.887-3.665,1.616-5.484c-0.077-0.517-0.539-0.873-1.057-0.851c-1.828,0.125-3.897,1.231-5.151,2.754
	c-1.363,1.654-1.986,3.682-1.666,5.423C15.175,8.642,15.572,8.982,16.042,8.997z M18.3,4.027c0.664-0.806,1.698-1.482,2.707-1.815
	c-0.142,1.344-0.872,2.43-1.235,2.896c-0.688,0.882-1.731,1.544-2.748,1.788C17.129,5.813,17.703,4.752,18.3,4.027z"/>
</svg>
