<?xml version="1.0" encoding="utf-8"?>
<!-- Generator: Adobe Illustrator 19.2.1, SVG Export Plug-In . SVG Version: 6.00 Build 0)  -->
<!DOCTYPE svg PUBLIC "-//W3C//DTD SVG 1.1//EN" "http://www.w3.org/Graphics/SVG/1.1/DTD/svg11.dtd">
<svg version="1.1" id="Layer_1" xmlns="http://www.w3.org/2000/svg" xmlns:xlink="http://www.w3.org/1999/xlink" x="0px" y="0px"
	 width="32px" height="32px" viewBox="0 0 32 32" enable-background="new 0 0 32 32" xml:space="preserve">
<path d="M1,25c0,0.423,0.266,0.8,0.664,0.941l14,5C15.772,30.98,15.886,31,16,31s0.228-0.02,0.336-0.059l14-5
	C30.734,25.8,31,25.423,31,25V6c0-0.067-0.019-0.128-0.032-0.192c-0.005-0.028,0.001-0.055-0.007-0.083
	c-0.002-0.008-0.008-0.013-0.01-0.02c-0.036-0.118-0.092-0.226-0.167-0.321c-0.014-0.018-0.033-0.03-0.049-0.047
	c-0.066-0.073-0.14-0.137-0.226-0.188c-0.029-0.017-0.059-0.028-0.09-0.042c-0.049-0.023-0.093-0.054-0.146-0.069l-14-4
	c-0.18-0.051-0.369-0.051-0.549,0l-14,4C1.674,5.053,1.631,5.083,1.583,5.105C1.551,5.12,1.519,5.132,1.488,5.15
	C1.404,5.201,1.332,5.264,1.267,5.335C1.25,5.353,1.231,5.365,1.216,5.385C1.141,5.48,1.085,5.588,1.049,5.705
	c-0.002,0.008-0.008,0.013-0.01,0.02C1.03,5.753,1.037,5.781,1.032,5.809C1.019,5.872,1,5.934,1,6V25z M3,7.326l12,3.429v17.827
	L3,24.295V7.326z M17,28.581V10.755l12-3.429v16.969L17,28.581z M16,3.04L26.36,6L16,8.96L5.64,6L16,3.04z"/>
</svg>
