<?xml version="1.0" encoding="utf-8"?>
<!-- Generator: Adobe Illustrator 19.2.1, SVG Export Plug-In . SVG Version: 6.00 Build 0)  -->
<!DOCTYPE svg PUBLIC "-//W3C//DTD SVG 1.1//EN" "http://www.w3.org/Graphics/SVG/1.1/DTD/svg11.dtd">
<svg version="1.1" id="Layer_1" xmlns="http://www.w3.org/2000/svg" xmlns:xlink="http://www.w3.org/1999/xlink" x="0px" y="0px"
	 width="32px" height="32px" viewBox="0 0 32 32" enable-background="new 0 0 32 32" xml:space="preserve">
<path fill="#222221" d="M28,25H16c-0.552,0-1,0.448-1,1v5c0,0.552,0.448,1,1,1h12c0.552,0,1-0.448,1-1v-5C29,25.448,28.552,25,28,25
	z M27,30H17v-3h10V30z"/>
<path fill="#222221" d="M3,22c0,0.552,0.448,1,1,1h24c0.552,0,1-0.448,1-1V10c0-0.552-0.448-1-1-1H4c-0.552,0-1,0.448-1,1V22z M5,11
	h22v10H5V11z"/>
<path fill="#222221" d="M4,7h24c0.552,0,1-0.448,1-1V1c0-0.552-0.448-1-1-1H4C3.448,0,3,0.448,3,1v5C3,6.552,3.448,7,4,7z M5,2h22v3
	H5V2z"/>
</svg>
