<?xml version="1.0" encoding="utf-8"?>
<!-- Generator: Adobe Illustrator 19.2.1, SVG Export Plug-In . SVG Version: 6.00 Build 0)  -->
<!DOCTYPE svg PUBLIC "-//W3C//DTD SVG 1.1//EN" "http://www.w3.org/Graphics/SVG/1.1/DTD/svg11.dtd">
<svg version="1.1" id="Layer_1" xmlns="http://www.w3.org/2000/svg" xmlns:xlink="http://www.w3.org/1999/xlink" x="0px" y="0px"
	 width="32px" height="32px" viewBox="0 0 32 32" enable-background="new 0 0 32 32" xml:space="preserve">
<circle cx="5" cy="16" r="2"/>
<path d="M5,12c0.552,0,1-0.448,1-1V9c0-0.552-0.448-1-1-1S4,8.448,4,9v2C4,11.552,4.448,12,5,12z"/>
<path d="M5,20c-0.552,0-1,0.448-1,1v2c0,0.552,0.448,1,1,1s1-0.448,1-1v-2C6,20.448,5.552,20,5,20z"/>
<path d="M31.086,0.914c-1.218-1.216-3.197-1.216-4.414,0L24.586,3H1C0.448,3,0,3.448,0,4v25c0,0.552,0.448,1,1,1h30
	c0.552,0,1-0.448,1-1V4c0-0.102-0.03-0.195-0.058-0.287C32.13,2.73,31.845,1.673,31.086,0.914z M28.086,2.328
	c0.438-0.437,1.149-0.437,1.585,0c0.438,0.438,0.438,1.149,0,1.586l-4.379,4.379c0,0,0,0-0.001,0.001l-5.804,5.804l-2.114,0.528
	l0.528-2.114l2.804-2.804c0,0,0,0,0.001-0.001l4.999-4.999c0,0,0,0,0.001-0.001L28.086,2.328z M15.293,16.707
	C15.483,16.897,15.738,17,16,17c0.081,0,0.162-0.01,0.243-0.03l4-1c0.176-0.044,0.336-0.135,0.464-0.263L26,10.414V22H11V10h6.586
	l-1.293,1.293c-0.128,0.128-0.219,0.289-0.263,0.464l-1,4C14.945,16.098,15.044,16.458,15.293,16.707z M2,28V5h20.586l-3,3H10
	C9.448,8,9,8.448,9,9v14c0,0.552,0.448,1,1,1h17c0.552,0,1-0.448,1-1V9c0-0.169-0.052-0.32-0.126-0.46L30,6.414V28H2z"/>
</svg>
