<?xml version="1.0" encoding="utf-8"?>
<!-- Generator: Adobe Illustrator 19.2.1, SVG Export Plug-In . SVG Version: 6.00 Build 0)  -->
<!DOCTYPE svg PUBLIC "-//W3C//DTD SVG 1.1//EN" "http://www.w3.org/Graphics/SVG/1.1/DTD/svg11.dtd">
<svg version="1.1" id="Layer_1" xmlns="http://www.w3.org/2000/svg" xmlns:xlink="http://www.w3.org/1999/xlink" x="0px" y="0px"
	 width="32px" height="32px" viewBox="0 0 32 32" enable-background="new 0 0 32 32" xml:space="preserve">
<path d="M11,30.17c0.768,0,1.536-0.292,2.121-0.877l16.172-16.172c1.17-1.169,1.17-3.073,0-4.242l-6.172-6.172
	c-1.17-1.17-3.072-1.17-4.242,0L2.707,18.879c-1.17,1.169-1.17,3.073,0,4.242l6.172,6.172C9.464,29.878,10.232,30.17,11,30.17z
	 M16,8.414L23.586,16L16,23.586L8.414,16L16,8.414z M20.293,4.121C20.488,3.926,20.744,3.829,21,3.829s0.512,0.098,0.707,0.292
	l6.172,6.172c0.39,0.39,0.39,1.024,0,1.414L25,14.586L17.414,7L20.293,4.121z M4.121,20.293L7,17.414L14.586,25l-2.879,2.879
	c-0.39,0.39-1.024,0.39-1.414,0l-6.172-6.172C3.731,21.317,3.731,20.683,4.121,20.293z"/>
<circle cx="16" cy="13" r="1"/>
<circle cx="19" cy="16" r="1"/>
<circle cx="13" cy="16" r="1"/>
<circle cx="16" cy="19" r="1"/>
</svg>
