<?xml version="1.0" encoding="utf-8"?>
<!-- Generator: Adobe Illustrator 19.2.1, SVG Export Plug-In . SVG Version: 6.00 Build 0)  -->
<!DOCTYPE svg PUBLIC "-//W3C//DTD SVG 1.1//EN" "http://www.w3.org/Graphics/SVG/1.1/DTD/svg11.dtd">
<svg version="1.1" id="Layer_1" xmlns="http://www.w3.org/2000/svg" xmlns:xlink="http://www.w3.org/1999/xlink" x="0px" y="0px"
	 width="32px" height="32px" viewBox="0 0 32 32" enable-background="new 0 0 32 32" xml:space="preserve">
<path d="M2.804,26.98l5,1C7.869,27.994,7.935,28,8,28c0.263,0,0.518-0.104,0.707-0.293L11,25.414l1.293,1.293
	C12.488,26.902,12.744,27,13,27s0.512-0.098,0.707-0.293l17-17c0.391-0.391,0.391-1.023,0-1.414l-7-7
	c-0.391-0.391-1.023-0.391-1.414,0l-17,17c-0.391,0.391-0.391,1.023,0,1.414L6.586,21l-4.293,4.293
	c-0.261,0.261-0.357,0.644-0.25,0.997C2.15,26.643,2.442,26.908,2.804,26.98z M26.086,6.5L20,12.586L19.414,12L25.5,5.914
	L26.086,6.5z M23,3.414L24.086,4.5l-6.793,6.793c-0.391,0.391-0.391,1.023,0,1.414l2,2C19.488,14.902,19.744,15,20,15
	s0.512-0.098,0.707-0.293L27.5,7.914L28.586,9L13,24.586L7.414,19L23,3.414z M8,22.414L9.586,24l-1.915,1.915l-2.643-0.529L8,22.414
	z"/>
</svg>
