<?xml version="1.0" encoding="utf-8"?>
<!-- Generator: Adobe Illustrator 19.2.1, SVG Export Plug-In . SVG Version: 6.00 Build 0)  -->
<!DOCTYPE svg PUBLIC "-//W3C//DTD SVG 1.1//EN" "http://www.w3.org/Graphics/SVG/1.1/DTD/svg11.dtd">
<svg version="1.1" id="Layer_1" xmlns="http://www.w3.org/2000/svg" xmlns:xlink="http://www.w3.org/1999/xlink" x="0px" y="0px"
	 width="32px" height="32px" viewBox="0 0 32 32" enable-background="new 0 0 32 32" xml:space="preserve">
<path fill="#222221" d="M25.998,4.818C23.261,2.37,19.73,1.014,16,1C7.729,1,1,7.729,1,16c0,8.026,6.275,14.607,14.284,14.982
	C15.522,30.994,15.76,31,16,31c3.694,0,7.244-1.355,9.997-3.817C29.177,24.338,31,20.262,31,16S29.177,7.662,25.998,4.818z
	 M12.154,23.243C10.702,21.528,9.834,19,9.773,16.33v-0.638c0.06-2.681,0.922-5.198,2.392-6.948C12.97,7.799,14.31,6.68,16.148,6.68
	c3.518,0,6.379,4.181,6.379,9.32s-2.861,9.32-6.379,9.32C14.302,25.32,12.957,24.19,12.154,23.243z M15.38,28.984
	C8.438,28.659,3,22.956,3,16C3,8.832,8.831,3.001,16.048,3.001h0.001c0.476,0.002,0.949,0.029,1.417,0.082
	c-0.069,0.015-0.136,0.037-0.205,0.053c-0.114,0.026-0.227,0.058-0.34,0.088c-0.284,0.075-0.564,0.161-0.841,0.258
	c-0.106,0.037-0.211,0.073-0.316,0.113c-0.338,0.13-0.67,0.275-0.995,0.437c-0.03,0.015-0.061,0.027-0.09,0.042
	c-0.373,0.19-0.735,0.404-1.088,0.635c-0.041,0.027-0.08,0.057-0.121,0.085c-0.301,0.203-0.594,0.422-0.878,0.655
	c-0.069,0.057-0.138,0.115-0.206,0.174c-0.263,0.225-0.516,0.462-0.762,0.712c-0.058,0.059-0.117,0.115-0.174,0.175
	c-0.286,0.303-0.562,0.617-0.821,0.953c-0.005,0.006-0.009,0.012-0.014,0.018C10.61,7.488,10.604,7.494,10.6,7.5
	c-0.002,0.002-0.002,0.005-0.003,0.007c-1.724,2.057-2.752,5.019-2.823,8.163v0.683c0.071,3.134,1.105,6.108,2.84,8.166
	c0.257,0.332,0.531,0.644,0.813,0.944c0.084,0.089,0.172,0.172,0.259,0.259c0.21,0.21,0.424,0.412,0.646,0.604
	c0.104,0.09,0.207,0.178,0.313,0.264c0.234,0.189,0.474,0.367,0.719,0.536c0.089,0.061,0.175,0.128,0.265,0.186
	c0.334,0.218,0.676,0.419,1.027,0.6c0.071,0.037,0.145,0.066,0.217,0.101c0.286,0.14,0.576,0.268,0.871,0.383
	c0.121,0.047,0.244,0.089,0.366,0.132c0.261,0.091,0.524,0.172,0.791,0.243c0.124,0.033,0.247,0.068,0.372,0.096
	c0.066,0.015,0.13,0.037,0.197,0.051C16.779,28.994,16.08,29.018,15.38,28.984z M24.73,25.631c-0.32,0.209-0.651,0.391-0.988,0.558
	c-0.112,0.055-0.225,0.107-0.338,0.157c-0.268,0.12-0.541,0.224-0.817,0.317c-0.181,0.06-0.363,0.114-0.546,0.163
	c-0.241,0.065-0.483,0.121-0.728,0.165c-0.165,0.03-0.33,0.057-0.496,0.078c-0.336,0.042-0.674,0.073-1.014,0.076
	c-0.14,0.002-0.28-0.009-0.42-0.014c-0.196-0.008-0.391-0.015-0.585-0.036c-0.122-0.012-0.242-0.03-0.363-0.048
	c-0.097-0.014-0.193-0.036-0.29-0.053c3.659-1.214,6.383-5.682,6.383-10.995c0-5.313-2.723-9.781-6.383-10.995
	c0.098-0.018,0.194-0.039,0.293-0.054c0.119-0.017,0.237-0.035,0.357-0.047c0.2-0.021,0.403-0.029,0.605-0.037
	c0.133-0.004,0.266-0.015,0.4-0.014c0.345,0.003,0.687,0.034,1.027,0.077c0.159,0.02,0.318,0.046,0.477,0.075
	c0.259,0.047,0.516,0.106,0.771,0.175c0.163,0.044,0.324,0.091,0.485,0.144c0.29,0.097,0.575,0.206,0.856,0.332
	c0.108,0.048,0.215,0.098,0.322,0.15c0.339,0.168,0.673,0.352,0.995,0.562C27.445,8.832,29,12.336,29,16
	C29,19.664,27.445,23.168,24.73,25.631z"/>
</svg>
