<?xml version="1.0" encoding="utf-8"?>
<!-- Generator: Adobe Illustrator 19.2.1, SVG Export Plug-In . SVG Version: 6.00 Build 0)  -->
<!DOCTYPE svg PUBLIC "-//W3C//DTD SVG 1.1//EN" "http://www.w3.org/Graphics/SVG/1.1/DTD/svg11.dtd">
<svg version="1.1" id="Layer_1" xmlns="http://www.w3.org/2000/svg" xmlns:xlink="http://www.w3.org/1999/xlink" x="0px" y="0px"
	 width="32px" height="32px" viewBox="0 0 32 32" enable-background="new 0 0 32 32" xml:space="preserve">
<path d="M20.293,15.293L15,20.586l-2.293-2.293c-0.391-0.391-1.023-0.391-1.414,0s-0.391,1.023,0,1.414l3,3
	C14.488,22.902,14.744,23,15,23s0.512-0.098,0.707-0.293l6-6c0.391-0.391,0.391-1.023,0-1.414S20.684,14.902,20.293,15.293z"/>
<path d="M23,8V4c0-0.552-0.447-1-1-1h-2.127C19.429,1.277,17.86,0,16,0s-3.429,1.277-3.873,3H10C9.447,3,9,3.448,9,4v4
	c0,0.552,0.447,1,1,1h12C22.553,9,23,8.552,23,8z M21,7H11V5h2c0.553,0,1-0.448,1-1c0-1.103,0.897-2,2-2s2,0.897,2,2
	c0,0.552,0.447,1,1,1h2V7z"/>
<path d="M3,5v26c0,0.552,0.447,1,1,1h24c0.553,0,1-0.448,1-1V5c0-0.552-0.447-1-1-1h-3c-0.553,0-1,0.448-1,1s0.447,1,1,1h2v24H5V6h2
	c0.553,0,1-0.448,1-1S7.553,4,7,4H4C3.447,4,3,4.448,3,5z"/>
</svg>
