<?xml version="1.0" encoding="utf-8"?>
<!-- Generator: Adobe Illustrator 19.2.1, SVG Export Plug-In . SVG Version: 6.00 Build 0)  -->
<!DOCTYPE svg PUBLIC "-//W3C//DTD SVG 1.1//EN" "http://www.w3.org/Graphics/SVG/1.1/DTD/svg11.dtd">
<svg version="1.1" id="Layer_1" xmlns="http://www.w3.org/2000/svg" xmlns:xlink="http://www.w3.org/1999/xlink" x="0px" y="0px"
	 width="32px" height="32px" viewBox="0 0 32 32" enable-background="new 0 0 32 32" xml:space="preserve">
<path fill="#222221" d="M16,1c-0.011,0-0.02,0.006-0.03,0.006C15.96,1.006,15.953,1,15.943,1c-0.001,0-0.001,0-0.002,0
	c-0.312,0-0.605,0.146-0.794,0.394l-12.943,17c-0.322,0.423-0.257,1.025,0.15,1.369l13,11c0.047,0.04,0.103,0.06,0.155,0.09
	c0.043,0.025,0.08,0.055,0.127,0.073C15.754,30.973,15.876,31,16,31s0.246-0.027,0.364-0.073c0.047-0.018,0.084-0.049,0.127-0.074
	c0.052-0.03,0.108-0.05,0.155-0.089l13-11c0.408-0.345,0.473-0.949,0.147-1.373L16.927,1.64C16.782,1.267,16.425,1,16,1z M15,4.89
	v22.954L4.371,18.851L15,4.89z M17,27.844V5.017l10.626,13.836L17,27.844z"/>
</svg>
