<?xml version="1.0" encoding="utf-8"?>
<!-- Generator: Adobe Illustrator 19.2.1, SVG Export Plug-In . SVG Version: 6.00 Build 0)  -->
<!DOCTYPE svg PUBLIC "-//W3C//DTD SVG 1.1//EN" "http://www.w3.org/Graphics/SVG/1.1/DTD/svg11.dtd">
<svg version="1.1" id="Layer_1" xmlns="http://www.w3.org/2000/svg" xmlns:xlink="http://www.w3.org/1999/xlink" x="0px" y="0px"
	 width="32px" height="32px" viewBox="0 0 32 32" enable-background="new 0 0 32 32" xml:space="preserve">
<path d="M5.014,10.835l-3,18c-0.007,0.041-0.004,0.082-0.006,0.123c-0.001,0.023-0.004,0.044-0.003,0.067
	c0.003,0.112,0.024,0.221,0.063,0.324c0.008,0.021,0.018,0.039,0.027,0.06c0.049,0.108,0.111,0.211,0.198,0.298
	c0.095,0.095,0.207,0.168,0.328,0.218C2.742,29.974,2.871,30,3,30c0.055,0,0.109-0.004,0.165-0.014l18-3
	c0.345-0.058,0.634-0.291,0.764-0.615l3.437-8.592l0.927,0.927C26.488,18.902,26.744,19,27,19s0.512-0.098,0.707-0.293l3-3
	c0.391-0.391,0.391-1.023,0-1.414l-13-13c-0.391-0.391-1.023-0.391-1.414,0l-3,3c-0.391,0.391-0.391,1.023,0,1.414l0.927,0.927
	l-8.592,3.437C5.304,10.201,5.071,10.491,5.014,10.835z M17,3.414L28.586,15L27,16.586l-1.295-1.295
	c-0.001-0.001-0.002-0.002-0.004-0.004l-8.989-8.989c-0.001-0.001-0.002-0.002-0.003-0.003L15.414,5L17,3.414z M15.759,8.174
	l8.067,8.067l-3.546,8.865L5.913,27.501l5.801-5.801C12.112,21.89,12.546,22,13,22c0.801,0,1.555-0.312,2.121-0.878c0,0,0,0,0,0
	s0,0,0,0C15.688,20.555,16,19.801,16,19s-0.312-1.555-0.878-2.121c-1.134-1.134-3.11-1.133-4.243,0C10.312,17.445,10,18.199,10,19
	c0,0.454,0.11,0.888,0.3,1.286l-5.801,5.801L6.894,11.72L15.759,8.174z M12.293,19.707C12.104,19.518,12,19.267,12,19
	s0.104-0.518,0.293-0.707C12.482,18.104,12.733,18,13,18s0.518,0.104,0.707,0.293C13.896,18.482,14,18.733,14,19
	s-0.104,0.518-0.293,0.707c0,0,0,0,0,0C13.33,20.085,12.671,20.085,12.293,19.707z"/>
</svg>
