<?xml version="1.0" encoding="utf-8"?>
<!-- Generator: Adobe Illustrator 18.1.1, SVG Export Plug-In . SVG Version: 6.00 Build 0)  -->
<!DOCTYPE svg PUBLIC "-//W3C//DTD SVG 1.1//EN" "http://www.w3.org/Graphics/SVG/1.1/DTD/svg11.dtd">
<svg version="1.1" id="Layer_1" xmlns="http://www.w3.org/2000/svg" xmlns:xlink="http://www.w3.org/1999/xlink" x="0px" y="0px"
	 width="32px" height="32px" viewBox="0 0 32 32" enable-background="new 0 0 32 32" xml:space="preserve">
<path d="M24,6c0.6,0,1-0.4,1-1s-0.4-1-1-1h-3.1c-0.5-2.3-2.5-4-4.9-4s-4.4,1.7-4.9,4H8C7.4,4,7,4.4,7,5s0.4,1,1,1h3.1
	c0.1,0.5,0.3,1,0.5,1.4C8.9,8.4,7,11,7,14v13c0,0.6,0.4,1,1,1h4c0,2.2,1.8,4,4,4s4-1.8,4-4h4c0.6,0,1-0.4,1-1V14
	c0-3-1.9-5.6-4.6-6.6C20.6,7,20.8,6.5,20.9,6H24z M16,2c1.7,0,3,1.3,3,3s-1.3,3-3,3s-3-1.3-3-3S14.3,2,16,2z M18,28c0,1.1-0.9,2-2,2
	s-2-0.9-2-2v-6c0-1.1,0.9-2,2-2s2,0.9,2,2V28z M23,14v12h-3v-4c0-2.2-1.8-4-4-4s-4,1.8-4,4v4H9V14c0-2.5,1.8-4.5,4.1-4.9
	C14,9.7,14.9,10,16,10s2-0.3,2.9-0.9C21.2,9.5,23,11.5,23,14z"/>
</svg>
