<?xml version="1.0" encoding="utf-8"?>
<!-- Generator: Adobe Illustrator 18.1.1, SVG Export Plug-In . SVG Version: 6.00 Build 0)  -->
<!DOCTYPE svg PUBLIC "-//W3C//DTD SVG 1.1//EN" "http://www.w3.org/Graphics/SVG/1.1/DTD/svg11.dtd">
<svg version="1.1" id="Layer_1" xmlns="http://www.w3.org/2000/svg" xmlns:xlink="http://www.w3.org/1999/xlink" x="0px" y="0px"
	 width="32px" height="32px" viewBox="0 0 32 32" enable-background="new 0 0 32 32" xml:space="preserve">
<polyline display="none" fill="none" stroke="#5A96ED" stroke-width="2" stroke-miterlimit="10" points="4,12 3,8 0,8 "/>
<path d="M7,15c-3.9,0-7,3.1-7,7s3.1,7,7,7s7-3.1,7-7S10.9,15,7,15z M7,27c-2.8,0-5-2.2-5-5s2.2-5,5-5s5,2.2,5,5S9.8,27,7,27z"/>
<path d="M28,19.1V18c0-1.7-1.3-3-3-3h-1v-3c0-0.6,0.4-1,1-1h1c0.6,0,1-0.4,1-1s-0.4-1-1-1h-1c-1.7,0-3,1.3-3,3v3h-1.3L16.9,3.7
	C16.8,3.3,16.4,3,16,3H7H4C3.4,3,3,3.4,3,4s0.4,1,1,1h2v6.1c-1.2,0.1-2.3,0.4-3.4,0.9c-0.5,0.2-0.7,0.8-0.5,1.3
	c0.2,0.5,0.8,0.7,1.3,0.5C4.5,13.3,5.7,13,7,13c5,0,9,4,9,9c0,0.9-0.1,1.8-0.4,2.7c-0.1,0.3,0,0.6,0.1,0.9c0.2,0.3,0.5,0.4,0.8,0.4
	h5.9c0.8,1.8,2.5,3,4.6,3c2.8,0,5-2.2,5-5C32,21.6,30.3,19.6,28,19.1z M8,11.1V5h7.3l3.3,10h-3.1C13.7,12.8,11,11.3,8,11.1z
	 M17.8,24c0.1-0.7,0.2-1.3,0.2-2c0-1.8-0.4-3.5-1.2-5H20c0,0,0,0,0,0c0,0,0,0,0,0h5c0.6,0,1,0.4,1,1v1.1c-2.3,0.5-4,2.5-4,4.9H17.8z
	 M27,27c-1.7,0-3-1.3-3-3s1.3-3,3-3s3,1.3,3,3S28.7,27,27,27z"/>
</svg>
