<?xml version="1.0" encoding="utf-8"?>
<!-- Generator: Adobe Illustrator 18.1.1, SVG Export Plug-In . SVG Version: 6.00 Build 0)  -->
<!DOCTYPE svg PUBLIC "-//W3C//DTD SVG 1.1//EN" "http://www.w3.org/Graphics/SVG/1.1/DTD/svg11.dtd">
<svg version="1.1" id="Layer_1" xmlns="http://www.w3.org/2000/svg" xmlns:xlink="http://www.w3.org/1999/xlink" x="0px" y="0px"
	 width="32px" height="32px" viewBox="0 0 32 32" enable-background="new 0 0 32 32" xml:space="preserve">
<path d="M24.8,14.1l2.1-2.1c0.9-0.9,1.4-2.1,1.4-3.4c0-1.3-0.5-2.5-1.4-3.4c-0.9-0.9-2.1-1.4-3.4-1.4S21,4.2,20.1,5.1l-2.1,2.1
	L9.5,1.6C8.1,0.7,6.2,0.8,5,2l-3,3C1.7,5.3,1.6,5.6,1.7,5.9c0,0.3,0.2,0.6,0.4,0.7l9.9,6.6l-1.9,1.9C10,15.1,10,15.2,10,15.2L7.6,19
	l-4.1-0.3c-1-0.1-1.8,0.4-2.2,1.3S1,21.9,1.7,22.5l2.2,2.2l-0.4,0.6c-0.4,0.7-0.4,1.6,0,2.3c0.4,0.7,1.2,1.2,2,1.2
	c0.4,0,0.8-0.1,1.2-0.3l0.6-0.4l2.2,2.2c0.4,0.4,1,0.7,1.6,0.7c0.3,0,0.6-0.1,1-0.2c0.9-0.4,1.4-1.3,1.3-2.2L13,24.4l3.8-2.4
	c0.1,0,0.1-0.1,0.2-0.1l1.9-1.9l6.6,9.9c0.2,0.2,0.4,0.4,0.7,0.4c0,0,0.1,0,0.1,0c0.3,0,0.5-0.1,0.7-0.3l3-3
	c1.2-1.2,1.4-3.1,0.4-4.5L24.8,14.1z M4.2,5.6l2.2-2.2c0.5-0.5,1.4-0.6,2-0.2l8.1,5.4l-3.1,3.1L4.2,5.6z M3.1,21.1
	C3,21,3,20.9,3,20.8s0.1-0.2,0.3-0.2l3.1,0.2L5,23L3.1,21.1z M11.4,28.7c0,0.2-0.1,0.2-0.2,0.3c-0.1,0-0.2,0.1-0.3-0.1L9,27l2.1-1.4
	L11.4,28.7z M15.6,20.4l-10,6.4c-0.2,0.1-0.3,0-0.4-0.1c0-0.1,0-0.2,0-0.2l6.4-10l9.9-9.9c1.1-1.1,2.9-1.1,4,0
	c0.5,0.5,0.8,1.3,0.8,2c0,0.8-0.3,1.5-0.8,2L15.6,20.4z M28.5,25.6l-2.2,2.2l-6.1-9.2l3.1-3.1l5.4,8.1
	C29.1,24.2,29.1,25.1,28.5,25.6z"/>
</svg>
