<?xml version="1.0" encoding="utf-8"?>
<!-- Generator: Adobe Illustrator 18.1.1, SVG Export Plug-In . SVG Version: 6.00 Build 0)  -->
<!DOCTYPE svg PUBLIC "-//W3C//DTD SVG 1.1//EN" "http://www.w3.org/Graphics/SVG/1.1/DTD/svg11.dtd">
<svg version="1.1" id="Layer_1" xmlns="http://www.w3.org/2000/svg" xmlns:xlink="http://www.w3.org/1999/xlink" x="0px" y="0px"
	 width="32px" height="32px" viewBox="0 0 32 32" enable-background="new 0 0 32 32" xml:space="preserve">
<path d="M26,10c0.4,0,0.7-0.2,0.9-0.6l3-6c0.2-0.3,0.1-0.7,0-1C29.7,2.2,29.3,2,29,2h-4V1c0-0.6-0.4-1-1-1H8C7.4,0,7,0.4,7,1v1H3
	C2.7,2,2.3,2.2,2.1,2.5C2,2.8,2,3.1,2.1,3.4l3,6C5.3,9.8,5.6,10,6,10h1v1H3c-0.3,0-0.7,0.2-0.9,0.5c-0.2,0.3-0.2,0.7,0,1l3,6
	C5.3,18.8,5.6,19,6,19h1v1H3c-0.3,0-0.7,0.2-0.9,0.5c-0.2,0.3-0.2,0.7,0,1l3,6C5.3,27.8,5.6,28,6,28h1v3c0,0.6,0.4,1,1,1h16
	c0.6,0,1-0.4,1-1v-3h1c0.4,0,0.7-0.2,0.9-0.6l3-6c0.2-0.3,0.1-0.7,0-1C29.7,20.2,29.3,20,29,20h-4v-1h1c0.4,0,0.7-0.2,0.9-0.6l3-6
	c0.2-0.3,0.1-0.7,0-1C29.7,11.2,29.3,11,29,11h-4v-1H26z M27.4,4l-2,4H25V4H27.4z M6.6,8l-2-4H7v4H6.6z M6.6,17l-2-4H7v4H6.6z
	 M6.6,26l-2-4H7v4H6.6z M23,30H9V2h14V30z M27.4,22l-2,4H25v-4H27.4z M27.4,13l-2,4H25v-4H27.4z"/>
<path d="M16,12c-2.2,0-4,1.8-4,4s1.8,4,4,4s4-1.8,4-4S18.2,12,16,12z M16,18c-1.1,0-2-0.9-2-2s0.9-2,2-2s2,0.9,2,2S17.1,18,16,18z"
	/>
<path d="M16,3c-2.2,0-4,1.8-4,4s1.8,4,4,4s4-1.8,4-4S18.2,3,16,3z M16,9c-1.1,0-2-0.9-2-2s0.9-2,2-2s2,0.9,2,2S17.1,9,16,9z"/>
<path d="M16,21c-2.2,0-4,1.8-4,4s1.8,4,4,4s4-1.8,4-4S18.2,21,16,21z M16,27c-1.1,0-2-0.9-2-2s0.9-2,2-2s2,0.9,2,2S17.1,27,16,27z"
	/>
</svg>
