<?xml version="1.0" encoding="utf-8"?>
<!-- Generator: Adobe Illustrator 18.1.1, SVG Export Plug-In . SVG Version: 6.00 Build 0)  -->
<!DOCTYPE svg PUBLIC "-//W3C//DTD SVG 1.1//EN" "http://www.w3.org/Graphics/SVG/1.1/DTD/svg11.dtd">
<svg version="1.1" id="Layer_1" xmlns="http://www.w3.org/2000/svg" xmlns:xlink="http://www.w3.org/1999/xlink" x="0px" y="0px"
	 width="32px" height="32px" viewBox="0 0 32 32" enable-background="new 0 0 32 32" xml:space="preserve">
<path d="M2,29.2C2.1,29.7,2.5,30,3,30h23c0.3,0,0.6-0.1,0.8-0.4l3-4c0.2-0.3,0.3-0.7,0.1-1S29.4,24,29,24H2c-0.3,0-0.6,0.1-0.8,0.4
	S1,24.9,1,25.2L2,29.2z M27,26l-1.5,2H3.8l-0.5-2H27z"/>
<path d="M21,22h5c0.3,0,0.7-0.2,0.9-0.5c0.2-0.3,0.2-0.7,0-1l-5-10c-0.2-0.4-0.7-0.6-1.1-0.5c-0.5,0.1-0.8,0.5-0.8,1v10
	C20,21.6,20.4,22,21,22z M22,15.2l2.4,4.8H22V15.2z"/>
<path d="M4,22h13c0.6,0,1-0.4,1-1V3c0-0.4-0.3-0.8-0.7-1c-0.4-0.1-0.9,0-1.1,0.4l-13,18c-0.2,0.3-0.3,0.7-0.1,1
	C3.3,21.8,3.6,22,4,22z M16,6.1V20H6L16,6.1z"/>
</svg>
