<?xml version="1.0" encoding="utf-8"?>
<!-- Generator: Adobe Illustrator 18.1.1, SVG Export Plug-In . SVG Version: 6.00 Build 0)  -->
<!DOCTYPE svg PUBLIC "-//W3C//DTD SVG 1.1//EN" "http://www.w3.org/Graphics/SVG/1.1/DTD/svg11.dtd">
<svg version="1.1" id="Layer_1" xmlns="http://www.w3.org/2000/svg" xmlns:xlink="http://www.w3.org/1999/xlink" x="0px" y="0px"
	 width="32px" height="32px" viewBox="0 0 32 32" enable-background="new 0 0 32 32" xml:space="preserve">
<path d="M27,14h-3v-4c0-0.6-0.4-1-1-1s-1,0.4-1,1v5c0,0.6,0.4,1,1,1h4c0.6,0,1-0.4,1-1S27.6,14,27,14z"/>
<path d="M29,5H3C1.3,5,0,6.3,0,8v14c0,0.6,0.4,1,1,1h2.1c0.4,1.7,2,3,3.9,3s3.4-1.3,3.9-3h10.3c0.4,1.7,2,3,3.9,3s3.4-1.3,3.9-3H31
	c0.6,0,1-0.4,1-1V8C32,6.3,30.7,5,29,5z M7,24c-1.1,0-2-0.9-2-2s0.9-2,2-2s2,0.9,2,2S8.1,24,7,24z M25,24c-1.1,0-2-0.9-2-2
	s0.9-2,2-2s2,0.9,2,2S26.1,24,25,24z M30,21h-1.1c-0.4-1.7-2-3-3.9-3s-3.4,1.3-3.9,3H10.9c-0.4-1.7-2-3-3.9-3s-3.4,1.3-3.9,3H2V8
	c0-0.6,0.4-1,1-1h26c0.6,0,1,0.4,1,1V21z"/>
<path d="M19,9H5c-0.6,0-1,0.4-1,1v5c0,0.6,0.4,1,1,1h14c0.6,0,1-0.4,1-1v-5C20,9.4,19.6,9,19,9z M18,14H6v-3h12V14z"/>
</svg>
