<?xml version="1.0" encoding="utf-8"?>
<!-- Generator: Adobe Illustrator 18.1.1, SVG Export Plug-In . SVG Version: 6.00 Build 0)  -->
<!DOCTYPE svg PUBLIC "-//W3C//DTD SVG 1.1//EN" "http://www.w3.org/Graphics/SVG/1.1/DTD/svg11.dtd">
<svg version="1.1" id="Layer_1" xmlns="http://www.w3.org/2000/svg" xmlns:xlink="http://www.w3.org/1999/xlink" x="0px" y="0px"
	 width="32px" height="32px" viewBox="0 0 32 32" enable-background="new 0 0 32 32" xml:space="preserve">
<path d="M3,23h1.1c0.4,1.7,2,3,3.9,3s3.4-1.3,3.9-3h7.3c0.4,1.7,2,3,3.9,3s3.4-1.3,3.9-3H29c0.5,0,0.9-0.4,1-0.9l1-8
	c0-0.3-0.1-0.6-0.2-0.8C30.6,13.1,30.3,13,30,13h-9.5l-3.7-5.6C16.6,7.2,16.3,7,16,7H7C6.6,7,6.2,7.3,6.1,7.7L4.3,13H1
	c-0.6,0-1,0.4-1,1v6C0,21.7,1.3,23,3,23z M8,24c-1.1,0-2-0.9-2-2s0.9-2,2-2s2,0.9,2,2S9.1,24,8,24z M23,24c-1.1,0-2-0.9-2-2
	s0.9-2,2-2s2,0.9,2,2S24.1,24,23,24z M2,15h3c0.4,0,0.8-0.3,0.9-0.7L7.7,9h7.7l2.7,4H13v-2c0-0.6-0.4-1-1-1s-1,0.4-1,1v3
	c0,0.6,0.4,1,1,1h8h8.9l-0.8,6h-1.3c-0.4-1.7-2-3-3.9-3s-3.4,1.3-3.9,3h-7.3c-0.4-1.7-2-3-3.9-3s-3.4,1.3-3.9,3H3c-0.6,0-1-0.4-1-1
	V15z"/>
</svg>
