<?xml version="1.0" encoding="utf-8"?>
<!-- Generator: Adobe Illustrator 18.1.1, SVG Export Plug-In . SVG Version: 6.00 Build 0)  -->
<!DOCTYPE svg PUBLIC "-//W3C//DTD SVG 1.1//EN" "http://www.w3.org/Graphics/SVG/1.1/DTD/svg11.dtd">
<svg version="1.1" id="Layer_1" xmlns="http://www.w3.org/2000/svg" xmlns:xlink="http://www.w3.org/1999/xlink" x="0px" y="0px"
	 width="32px" height="32px" viewBox="0 0 32 32" enable-background="new 0 0 32 32" xml:space="preserve">
<path d="M27.5,11h-5.9l-3.7-7.4C17.7,3.2,17.4,3,17,3h-6c-0.3,0-0.7,0.2-0.9,0.5c-0.2,0.3-0.2,0.7,0,1l3.3,6.6H9.6L6.9,6.5
	C6.7,6.2,6.4,6,6,6H2C1.7,6,1.4,6.1,1.2,6.4S1,6.9,1,7.2l3,12C4.1,19.7,4.5,20,5,20h9l-3.9,7.5c-0.2,0.3-0.1,0.7,0,1S10.7,29,11,29
	h6c0.4,0,0.7-0.2,0.9-0.5l4.3-8.5h5.3c2.5,0,4.5-2,4.5-4.5S30,11,27.5,11z M12.6,5h3.8l3,6h-3.8L12.6,5z M27.5,18h-5.9
	c-0.4,0-0.7,0.2-0.9,0.5L16.4,27h-3.8l3.9-7.5c0.2-0.3,0.1-0.7,0-1S16,18,15.6,18H5.8L3.3,8h2.2l2.7,4.5C8.3,12.8,8.6,13,9,13h18.5
	c1.4,0,2.5,1.1,2.5,2.5S28.9,18,27.5,18z"/>
</svg>
