<?xml version="1.0" encoding="utf-8"?>
<!-- Generator: Adobe Illustrator 18.1.1, SVG Export Plug-In . SVG Version: 6.00 Build 0)  -->
<!DOCTYPE svg PUBLIC "-//W3C//DTD SVG 1.1//EN" "http://www.w3.org/Graphics/SVG/1.1/DTD/svg11.dtd">
<svg version="1.1" id="Layer_1" xmlns="http://www.w3.org/2000/svg" xmlns:xlink="http://www.w3.org/1999/xlink" x="0px" y="0px"
	 width="32px" height="32px" viewBox="0 0 32 32" enable-background="new 0 0 32 32" xml:space="preserve">
<path d="M3,15c-0.6,0-1,0.4-1,1v3c0,0.6,0.4,1,1,1s1-0.4,1-1v-3C4,15.4,3.6,15,3,15z"/>
<path d="M29,15c-0.6,0-1,0.4-1,1v3c0,0.6,0.4,1,1,1s1-0.4,1-1v-3C30,15.4,29.6,15,29,15z"/>
<path d="M24,7h-4.6l1.3-4H23c0.6,0,1-0.4,1-1s-0.4-1-1-1H9C8.4,1,8,1.4,8,2s0.4,1,1,1h2.3l1.3,4H8c-1.7,0-3,1.3-3,3v20
	c0,0.6,0.4,1,1,1h20c0.6,0,1-0.4,1-1V10C27,8.3,25.7,7,24,7z M13.4,3h5.2l-1.3,4h-2.6L13.4,3z M25,29H7V10c0-0.6,0.4-1,1-1h6
	c0,0,0,0,0,0c0,0,0,0,0,0h4c0,0,0,0,0,0c0,0,0,0,0,0h6c0.6,0,1,0.4,1,1V29z"/>
<path d="M11,21h10c0.5,0,0.9-0.4,1-0.9l1-8c0-0.3-0.1-0.6-0.2-0.8C22.6,11.1,22.3,11,22,11H10c-0.3,0-0.6,0.1-0.8,0.3
	C9.1,11.6,9,11.8,9,12.1l1,8C10.1,20.6,10.5,21,11,21z M20.9,13l-0.8,6h-8.2l-0.8-6H20.9z"/>
<path d="M11,22c-1.7,0-3,1.3-3,3s1.3,3,3,3s3-1.3,3-3S12.7,22,11,22z M11,26c-0.6,0-1-0.4-1-1s0.4-1,1-1s1,0.4,1,1S11.6,26,11,26z"
	/>
<path d="M21,22c-1.7,0-3,1.3-3,3s1.3,3,3,3s3-1.3,3-3S22.7,22,21,22z M21,26c-0.6,0-1-0.4-1-1s0.4-1,1-1s1,0.4,1,1S21.6,26,21,26z"
	/>
</svg>
