<?xml version="1.0" encoding="utf-8"?>
<!-- Generator: Adobe Illustrator 18.1.1, SVG Export Plug-In . SVG Version: 6.00 Build 0)  -->
<!DOCTYPE svg PUBLIC "-//W3C//DTD SVG 1.1//EN" "http://www.w3.org/Graphics/SVG/1.1/DTD/svg11.dtd">
<svg version="1.1" id="Layer_1" xmlns="http://www.w3.org/2000/svg" xmlns:xlink="http://www.w3.org/1999/xlink" x="0px" y="0px"
	 width="32px" height="32px" viewBox="0 0 32 32" enable-background="new 0 0 32 32" xml:space="preserve">
<path d="M4.1,24.4C4.2,24.8,4.6,25,5,25c0.1,0,0.2,0,0.4-0.1c0.5-0.2,0.8-0.8,0.6-1.3L3.4,17h24.8l-4,6.5c-0.3,0.5-0.2,1.1,0.3,1.4
	c0.5,0.3,1.1,0.2,1.4-0.3l5-8c0.2-0.3,0.2-0.7,0-1S30.4,15,30,15h-3.5l-3.7-5.6C22.6,9.2,22.3,9,22,9h-8V2c0-0.6-0.4-1-1-1H8
	C7.4,1,7,1.4,7,2v7H5c-0.6,0-1,0.4-1,1v5H2c-0.3,0-0.6,0.2-0.8,0.4C1,15.7,0.9,16,1.1,16.4L4.1,24.4z M12,3v1H9V3H12z M9,6h3v3H9V6z
	 M6,11h15.5l2.7,4H6V11z"/>
<path d="M10,12H9c-0.6,0-1,0.4-1,1s0.4,1,1,1h1c0.6,0,1-0.4,1-1S10.6,12,10,12z"/>
<path d="M15,12h-1c-0.6,0-1,0.4-1,1s0.4,1,1,1h1c0.6,0,1-0.4,1-1S15.6,12,15,12z"/>
<path d="M20,12h-1c-0.6,0-1,0.4-1,1s0.4,1,1,1h1c0.6,0,1-0.4,1-1S20.6,12,20,12z"/>
<path d="M30,24c-0.6,0-1,0.4-1,1c0,1.7-1.3,3-3,3c-1.1,0-2.1-0.6-2.6-1.6c-0.4-0.6-1.4-0.6-1.8,0c-0.5,1-1.5,1.6-2.6,1.6
	s-2.1-0.6-2.6-1.6c-0.4-0.6-1.4-0.6-1.8,0c-0.5,1-1.5,1.6-2.6,1.6s-2.1-0.6-2.6-1.6c-0.4-0.6-1.4-0.6-1.8,0C7.1,27.4,6.1,28,5,28
	c-1.7,0-3-1.3-3-3c0-0.6-0.4-1-1-1s-1,0.4-1,1c0,2.8,2.2,5,5,5c1.3,0,2.6-0.5,3.5-1.5C9.4,29.5,10.7,30,12,30s2.6-0.5,3.5-1.5
	c0.9,0.9,2.2,1.5,3.5,1.5s2.6-0.5,3.5-1.5c0.9,0.9,2.2,1.5,3.5,1.5c2.8,0,5-2.2,5-5C31,24.4,30.6,24,30,24z"/>
</svg>
