<?xml version="1.0" encoding="utf-8"?>
<!-- Generator: Adobe Illustrator 18.1.1, SVG Export Plug-In . SVG Version: 6.00 Build 0)  -->
<!DOCTYPE svg PUBLIC "-//W3C//DTD SVG 1.1//EN" "http://www.w3.org/Graphics/SVG/1.1/DTD/svg11.dtd">
<svg version="1.1" id="Layer_1" xmlns="http://www.w3.org/2000/svg" xmlns:xlink="http://www.w3.org/1999/xlink" x="0px" y="0px"
	 width="32px" height="32px" viewBox="0 0 32 32" enable-background="new 0 0 32 32" xml:space="preserve">
<path d="M25,13l-0.9-6H27c0.6,0,1,0.4,1,1s-0.4,1-1,1c-0.6,0-1,0.4-1,1s0.4,1,1,1c1.7,0,3-1.3,3-3s-1.3-3-3-3h-7c-0.6,0-1,0.4-1,1
	s0.4,1,1,1h2.1l0.4,3H9c-0.5,0-0.9,0.3-1,0.8L7.5,13c-0.2,0-0.3,0-0.5,0c-3.9,0-7,3.1-7,7s3.1,7,7,7s7-3.1,7-7c0-3-1.9-5.5-4.5-6.5
	L9.8,12h13l0.2,1.3c-2.9,0.9-5,3.5-5,6.7c0,3.9,3.1,7,7,7s7-3.1,7-7C32,16.1,28.9,13,25,13z M12,20c0,2.8-2.2,5-5,5s-5-2.2-5-5
	s2.2-5,5-5c0,0,0.1,0,0.1,0L6,19.8c-0.1,0.5,0.2,1.1,0.8,1.2c0.1,0,0.1,0,0.2,0c0.5,0,0.9-0.3,1-0.8L9,15.4C10.8,16.2,12,18,12,20z
	 M25,25c-2.8,0-5-2.2-5-5c0-2.2,1.4-4,3.3-4.7l0.7,4.8c0.1,0.5,0.5,0.9,1,0.9c0,0,0.1,0,0.1,0c0.5-0.1,0.9-0.6,0.8-1.1L25.3,15
	c2.6,0.2,4.7,2.3,4.7,5C30,22.8,27.8,25,25,25z"/>
<path d="M7,6C6.4,6,6,6.4,6,7s0.4,1,1,1h5c0.6,0,1-0.4,1-1s-0.4-1-1-1H7z"/>
</svg>
