<svg xmlns="http://www.w3.org/2000/svg" xmlns:xlink="http://www.w3.org/1999/xlink" x="0px" y="0px" width="48px" height="48px" viewBox="0 0 48 48"><g >
<path fill="#335262" d="M28.96338,40.39355c-0.27539-2.25098-6.34033-17.96973-7.03076-19.75439
	c-0.16943-0.4375-0.61523-0.6958-1.08301-0.62793c-0.46338,0.07031-0.81543,0.45361-0.84717,0.92139
	c-0.12744,1.88184-1.23682,18.45068-0.96582,20.67334c0.30957,2.53223,2.47119,4.39453,4.96045,4.39453
	c0.20117,0,0.4043-0.01221,0.60889-0.03711C27.34277,45.62891,29.29736,43.13037,28.96338,40.39355z"/>
<path fill="#EFD358" d="M45.77832,13.03809C40.70605,6.12646,32.56445,2,24,2v10c5.39307,0,10.521,2.6001,13.7168,6.95508
	c0.15674,0.21387,0.39209,0.35645,0.6543,0.39648c0.26465,0.04053,0.53027-0.02539,0.74365-0.18213l6.44922-4.7334
	C46.00928,14.10938,46.10498,13.4834,45.77832,13.03809z"/>
<path fill="#E86C60" d="M2.21875,13.04248c-0.32666,0.44531-0.23047,1.0708,0.21484,1.39746l6.4502,4.73242
	c0.17236,0.12695,0.37988,0.19385,0.59131,0.19385c0.05029,0,0.10107-0.00391,0.15186-0.01172
	c0.26221-0.04004,0.49756-0.18311,0.6543-0.39697C13.47754,14.60107,18.60596,12,24,12V2
	C15.43359,2,7.29102,6.12793,2.21875,13.04248z"/>
</g></svg>