<svg xmlns="http://www.w3.org/2000/svg" xmlns:xlink="http://www.w3.org/1999/xlink" x="0px" y="0px" width="48px" height="48px" viewBox="0 0 48 48"><g >
<path fill="#43A6DD" d="M36,39.75c0-3.325,5-8.75,5-8.75s5,5.425,5,8.75S43.5,45,41,45S36,43.075,36,39.75z"/>
<path fill="#E6E6E6" d="M40.26855,16.1543l-1.1748-5.70801c-0.1084-0.52734-0.61621-0.87891-1.14355-0.78516l-11.72461,1.9541
	l-1.24805-5.8252C24.87891,5.3291,24.47168,5,24,5H6C5.48926,5,5.06055,5.38574,5.00586,5.89355l-3,28
	c-0.03027,0.28223,0.06055,0.56348,0.25,0.77441C2.44629,34.87988,2.71582,35,3,35h27c0.30176,0,0.58789-0.13672,0.77734-0.37109
	c0.19043-0.23535,0.26367-0.54297,0.2002-0.83887l-2.35352-10.98438L39.73633,17.25
	C40.1416,17.04688,40.35938,16.59766,40.26855,16.1543z"/>
<path fill="#B3B3B3" d="M46,3c-4.96289,0-9,4.03711-9,9s4.03711,9,9,9c0.55273,0,1-0.44727,1-1V4C47,3.44727,46.55273,3,46,3z"/>
</g></svg>