<svg xmlns="http://www.w3.org/2000/svg" xmlns:xlink="http://www.w3.org/1999/xlink" x="0px" y="0px" width="48px" height="48px" viewBox="0 0 48 48"><g >
<path fill="#B3B3B3" d="M37,1H21c-0.55225,0-1,0.44775-1,1s0.44775,1,1,1h7v6c0,0.55225,0.44775,1,1,1s1-0.44775,1-1V3h7
	c0.55225,0,1-0.44775,1-1S37.55225,1,37,1z"/>
<path fill="#43A6DD" d="M4,41.8C4,39.2,8,35,8,35s4,4.2,4,6.8c0,2.7-2,4.2-4,4.2S4,44.5,4,41.8z"/>
<path fill="#E6E6E6" d="M44,11h-8.76495C33.76752,9.17371,31.51965,8,29,8s-4.76752,1.17371-6.23505,3H18C9.729,11,3,17.729,3,26v2
	c0,0.55225,0.44775,1,1,1h8c0.55225,0,1-0.44775,1-1v-2c0-2.75684,2.24316-5,5-5h4.76495c1.46753,1.82629,3.71539,3,6.23505,3
	s4.76752-1.17371,6.23505-3H44c0.55225,0,1-0.44775,1-1v-8C45,11.44775,44.55225,11,44,11z"/>
</g></svg>