<svg xmlns="http://www.w3.org/2000/svg" xmlns:xlink="http://www.w3.org/1999/xlink" x="0px" y="0px" width="48px" height="48px" viewBox="0 0 48 48"><g >
<path fill="#335262" d="M30,39H18c-0.55225,0-1,0.44775-1,1c0,3.85986,3.14014,7,7,7s7-3.14014,7-7C31,39.44775,30.55225,39,30,39z"/>
<path fill="#BADEFC" d="M15,28V5c0-2.20914,1.79086-4,4-4H19c2.20914,0,4,1.79086,4,4v23H15z"/>
<path fill="#BADEFC" d="M25,28V5c0-2.20914,1.79086-4,4-4H29c2.20914,0,4,1.79086,4,4v23H25z"/>
<path fill="#5A7A84" d="M35,27H13c-0.55225,0-1,0.44775-1,1v7c0,3.30859,2.69141,6,6,6h12c3.30859,0,6-2.69141,6-6v-7
	C36,27.44775,35.55225,27,35,27z"/>
</g></svg>