<svg xmlns="http://www.w3.org/2000/svg" xmlns:xlink="http://www.w3.org/1999/xlink" x="0px" y="0px" width="48px" height="48px" viewBox="0 0 48 48"><g >
<path fill="#B3B3B3" d="M27.25977,27.67676c-0.04883-0.51367-0.47998-0.90527-0.99561-0.90527h-4.52832
	c-0.51562,0-0.94678,0.3916-0.99561,0.90527l-1.73584,18.22852c-0.02637,0.28027,0.06641,0.55859,0.25586,0.76758
	C19.44971,46.88086,19.71826,47,20,47h8c0.28174,0,0.55029-0.11914,0.73975-0.32715c0.18945-0.20898,0.28223-0.4873,0.25586-0.76758
	L27.25977,27.67676z"/>
<path fill="#43A6DD" d="M8.03174,23c-0.02051,0-0.0415-0.00098-0.0625-0.00195c-0.55127-0.03418-0.9707-0.50879-0.93652-1.05957
	c0.3252-5.27344,3.02344-10.00977,7.40381-12.99512c0.45605-0.31055,1.0791-0.19336,1.38916,0.2627
	c0.31104,0.45703,0.19336,1.0791-0.26318,1.38965c-3.86523,2.63477-6.24658,6.81445-6.53369,11.46582
	C8.99609,22.5918,8.55566,23,8.03174,23z"/>
<path fill="#43A6DD" d="M39.96826,23c-0.52393,0-0.96436-0.4082-0.99707-0.93848c-0.28711-4.65137-2.66846-8.83105-6.53369-11.46582
	c-0.45654-0.31055-0.57422-0.93262-0.26318-1.38965c0.31055-0.45605,0.93262-0.57324,1.38916-0.2627
	c4.38037,2.98535,7.07861,7.72168,7.40381,12.99512c0.03418,0.55078-0.38525,1.02539-0.93652,1.05957
	C40.00977,22.99902,39.98877,23,39.96826,23z"/>
<path fill="#9E9E9E" d="M24,31c1.25562,0,2.43994-0.29883,3.49847-0.81653l-0.23871-2.50671
	c-0.04883-0.51367-0.47998-0.90527-0.99561-0.90527h-4.52832c-0.51562,0-0.94678,0.3916-0.99561,0.90527l-0.23871,2.50671
	C21.56006,30.70117,22.74438,31,24,31z"/>
<path fill="#B3B3B3" d="M21,18.9998V5c0-1.65685,1.34314-3,3-3H24c1.65685,0,3,1.34314,3,3V18.9998H21z"/>
<path fill="#B3B3B3" d="M22.03573,27.59818l-12.12419,6.9999C8.47666,35.4265,6.64189,34.93488,5.81347,33.5l0-0.00001
	c-0.82843-1.43488-0.3368-3.26964,1.09807-4.09807l12.12419-6.9999L22.03573,27.59818z"/>
<path fill="#B3B3B3" d="M25.96427,27.59818l12.12419,6.9999c1.43488,0.82843,3.26965,0.3368,4.09807-1.09807l0-0.00001
	c0.82843-1.43488,0.3368-3.26964-1.09808-4.09807l-12.12419-6.9999L25.96427,27.59818z"/>
<circle fill="#E6E6E6" cx="24" cy="23" r="6"/>
</g></svg>