<svg xmlns="http://www.w3.org/2000/svg" xmlns:xlink="http://www.w3.org/1999/xlink" x="0px" y="0px" width="48px" height="48px" viewBox="0 0 48 48"><g >
<path fill="#444444" d="M42.99902,16c-0.51465,0-0.95166-0.39404-0.99561-0.91602c-0.24854-2.9541-1.396-4.98877-3.50732-6.22021
	c-0.47705-0.27832-0.63818-0.89062-0.35986-1.36768c0.27881-0.47656,0.88965-0.63721,1.36768-0.35986
	c2.67773,1.56201,4.18945,4.17969,4.49268,7.77979c0.04639,0.55029-0.3623,1.03418-0.9126,1.08057
	C43.05518,15.99902,43.02686,16,42.99902,16z"/>
<path fill="#444444" d="M38.5,39c-3.03271,0-5.5-2.46729-5.5-5.5V30c0-0.55225,0.44775-1,1-1s1,0.44775,1,1v3.5
	c0,1.92969,1.57031,3.5,3.5,3.5s3.5-1.57031,3.5-3.5V23c0-0.55225,0.44775-1,1-1s1,0.44775,1,1v10.5
	C44,36.53271,41.53271,39,38.5,39z"/>
<path fill="#72C472" d="M46,14h-6c-0.55225,0-1,0.44775-1,1v8c0,0.55225,0.44775,1,1,1h6c0.55225,0,1-0.44775,1-1v-8
	C47,14.44775,46.55225,14,46,14z"/>
<path fill="#E6E6E6" d="M30,3H10C7.24316,3,5,5.24316,5,8v36c0,0.55225,0.44775,1,1,1h28c0.55225,0,1-0.44775,1-1V8
	C35,5.24316,32.75684,3,30,3z"/>
<path fill="#4DA34D" d="M38,45H2c-0.55225,0-1-0.44775-1-1s0.44775-1,1-1h36c0.55225,0,1,0.44775,1,1S38.55225,45,38,45z"/>
<path fill="#444444" d="M30,7H10C9.44775,7,9,7.44775,9,8v14c0,0.55225,0.44775,1,1,1h20c0.55225,0,1-0.44775,1-1V8
	C31,7.44775,30.55225,7,30,7z"/>
<rect x="11" y="9" fill="#BADEFC" width="18" height="12"/>
<rect x="5" y="27" fill="#72C472" width="30" height="16"/>
</g></svg>