<svg xmlns="http://www.w3.org/2000/svg" xmlns:xlink="http://www.w3.org/1999/xlink" x="0px" y="0px" width="48px" height="48px" viewBox="0 0 48 48"><g >
<path fill="#72C472" d="M40.72559,7.31152C40.53662,7.1123,40.27441,7,40,7H8C7.72559,7,7.46338,7.1123,7.27441,7.31152
	c-0.18848,0.19922-0.2876,0.4668-0.27295,0.74121l2,38C9.0293,46.58398,9.46826,47,10,47h28
	c0.53174,0,0.9707-0.41602,0.99854-0.94727l2-38C41.01318,7.77832,40.91406,7.51074,40.72559,7.31152z"/>
<path fill="#335262" d="M46,7H31V2c0-0.55273-0.44775-1-1-1H18c-0.55225,0-1,0.44727-1,1v5H2C1.44775,7,1,7.44727,1,8s0.44775,1,1,1
	h44c0.55225,0,1-0.44727,1-1S46.55225,7,46,7z M19,3h10v4H19V3z"/>
<path fill="#FFFFFF" d="M16.5,26.78711c0-4.06543,3.43457-7.5,7.5-7.5c2.26538,0,4.32135,0.99963,5.70593,2.67523l-3.16833-0.14105
	c-0.54004-0.02441-1.01855,0.40332-1.04346,0.95508c-0.02441,0.55176,0.40283,1.01855,0.95459,1.04297l5.1001,0.22656
	c0.52862,0.03411,1.00947-0.43433,1.04199-0.93262l0.33984-5.10059c0.03711-0.55078-0.37988-1.02734-0.93115-1.06445
	c-0.54346-0.02832-1.02734,0.38086-1.06396,0.93164l-0.15247,2.28802c-1.7395-1.81335-4.15021-2.8808-6.78308-2.8808
	c-5.23828,0-9.5,4.26172-9.5,9.5c0,0.55273,0.44775,1,1,1S16.5,27.33984,16.5,26.78711z"/>
<path fill="#FFFFFF" d="M32.5,26.01367c-0.55225,0-1,0.44727-1,1c0,4.06543-3.43457,7.5-7.5,7.5
	c-2.30219,0-4.38721-1.0343-5.77167-2.76074h3.2785c0.55225,0,1-0.44727,1-1s-0.44775-1-1-1h-5.1001
	c-0.55114,0-0.98907,0.48454-1,0.97754l-0.11328,5.10059c-0.01221,0.55273,0.42578,1.00977,0.97803,1.02246
	c0.00732,0,0.01465,0,0.02246,0c0.54199,0,0.9873-0.43359,0.99902-0.97754l0.0473-2.12415
	c1.7301,1.73816,4.08734,2.76184,6.65973,2.76184c5.23828,0,9.5-4.26172,9.5-9.5C33.5,26.46094,33.05225,26.01367,32.5,26.01367z"/>
</g></svg>