<svg xmlns="http://www.w3.org/2000/svg" xmlns:xlink="http://www.w3.org/1999/xlink" x="0px" y="0px" width="48px" height="48px" viewBox="0 0 48 48"><g >
<path fill="#E6E6E6" d="M41,18C41,7.96838,32.31104-0.03381,22.04852,1.10889C14.45099,1.9549,8.23517,7.97095,7.17291,15.5412
	C6.00665,23.85303,10.8634,31.19299,18,33.88995V39h12v-5.11005C36.42352,31.46246,41,25.2735,41,18z"/>
<path fill="#B3B3B3" d="M18,41c0,3.31372,2.68628,6,6,6s6-2.68628,6-6v-2H18V41z"/>
<path fill="#72C472" d="M33,12h-1c-4.41828,0-8,3.58172-8,8v2h1c4.41828,0,8-3.58172,8-8V12z"/>
<path fill="#72C472" d="M15,19c0,4.41828,3.58172,8,8,8h1v-2c0-4.41828-3.58172-8-8-8h-1V19z"/>
<path fill="#4DA34D" d="M24,34c-0.55273,0-1-0.44775-1-1V9c0-0.55225,0.44727-1,1-1s1,0.44775,1,1v24C25,33.55225,24.55273,34,24,34
	z"/>
<rect x="18" y="38" fill="#9E9E9E" width="12" height="2"/>
</g></svg>