<svg xmlns="http://www.w3.org/2000/svg" xmlns:xlink="http://www.w3.org/1999/xlink" x="0px" y="0px" width="48px" height="48px" viewBox="0 0 48 48"><g >
<polygon fill="#BADEFC" points="11,4 37,4 45,28 3,28 "/>
<path fill="#335262" d="M34,43h-8V28h-4v15h-8c-0.55273,0-1,0.44775-1,1s0.44727,1,1,1h20c0.55273,0,1-0.44775,1-1
	S34.55273,43,34,43z"/>
<path fill="#43A6DD" d="M45.94824,27.68359l-8-24C37.81248,3.27539,37.43066,3,37,3H11c-0.43066,0-0.81251,0.27539-0.94824,0.68359
	l-8,24c-0.10254,0.30518-0.05078,0.64014,0.13672,0.90088C2.37695,28.8457,2.67871,29,3,29h42
	c0.32129,0,0.62305-0.1543,0.81152-0.41553C45.99902,28.32373,46.05078,27.98877,45.94824,27.68359z M9.38745,12H23v6H7.38757
	L9.38745,12z M25,12h13.61255l1.99988,6H25V12z M37.94586,10H25V5h11.2793L37.94586,10z M11.7207,5H23v5H10.05414L11.7207,5z
	 M6.72095,20H23v7H4.3877L6.72095,20z M25,27v-7h16.27905l2.33325,7H25z"/>
</g></svg>