<svg xmlns="http://www.w3.org/2000/svg" xmlns:xlink="http://www.w3.org/1999/xlink" x="0px" y="0px" width="48px" height="48px" viewBox="0 0 48 48"><g >
<path fill="#223E49" d="M37.5,39c-3.03271,0-5.5-2.46729-5.5-5.5V30c0-0.55225,0.44775-1,1-1s1,0.44775,1,1v3.5
	c0,1.92969,1.57031,3.5,3.5,3.5s3.5-1.57031,3.5-3.5V22c0-0.55225,0.44775-1,1-1s1,0.44775,1,1v11.5
	C43,36.53271,40.53271,39,37.5,39z"/>
<path fill="#223E49" d="M45,15c-0.55225,0-1-0.44775-1-1v-3c0-0.55225,0.44775-1,1-1s1,0.44775,1,1v3C46,14.55225,45.55225,15,45,15
	z"/>
<path fill="#223E49" d="M39,15c-0.55225,0-1-0.44775-1-1v-3c0-0.55225,0.44775-1,1-1s1,0.44775,1,1v3C40,14.55225,39.55225,15,39,15
	z"/>
<path fill="#335262" d="M29,3H9C6.24316,3,4,5.24316,4,8v36c0,0.55225,0.44775,1,1,1h28c0.55225,0,1-0.44775,1-1V8
	C34,5.24316,31.75684,3,29,3z"/>
<path fill="#5A7A84" d="M36,45H2c-0.55225,0-1-0.44775-1-1s0.44775-1,1-1h34c0.55225,0,1,0.44775,1,1S36.55225,45,36,45z"/>
<path fill="#EFD358" d="M16.99951,34.00005c-0.17822,0-0.35742-0.04736-0.51855-0.14551
	c-0.41064-0.24902-0.58594-0.75586-0.41748-1.20557l2.49365-6.64893H12c-0.39502,0-0.75293-0.23242-0.91357-0.59326
	s-0.09375-0.78223,0.17041-1.07568l9-10c0.32178-0.35791,0.85156-0.43506,1.26221-0.18555
	c0.41064,0.24902,0.58594,0.75586,0.41748,1.20557l-2.49365,6.64893H26c0.39502,0,0.75293,0.23242,0.91357,0.59326
	s0.09375,0.78223-0.17041,1.07568l-9,10C17.54785,33.88628,17.27539,34.00005,16.99951,34.00005z"/>
<path fill="#5A7A84" d="M46,13h-8c-0.55225,0-1,0.44775-1,1v4c0,2.75684,2.24316,5,5,5s5-2.24316,5-5v-4
	C47,13.44775,46.55225,13,46,13z"/>
</g></svg>