<svg xmlns="http://www.w3.org/2000/svg" xmlns:xlink="http://www.w3.org/1999/xlink" x="0px" y="0px" width="48px" height="48px" viewBox="0 0 48 48"><g >
<path fill="#E6E6E6" d="M36.2422,4H11.7578C9.64555,4,7.89735,5.64235,7.76559,7.75049L7,20h34L40.23441,7.75049
	C40.10265,5.64235,38.35445,4,36.2422,4z"/>
<path fill="#43A6DD" d="M9.875,22.20833L10.75977,7.9375C10.79297,7.41211,11.23145,7,11.75781,7h24.48438
	c0.52637,0,0.96484,0.41211,0.99805,0.93799L38.125,22.20833H9.875z"/>
<path fill="#444444" d="M44.82843,23.82843L41,20H7l-3.82843,3.82843C2.42143,24.57857,2,25.59599,2,26.65685V37h44V26.65685
	C46,25.59599,45.57857,24.57857,44.82843,23.82843z"/>
<path fill="#444444" d="M12,36H5c-0.55273,0-1,0.44775-1,1v6c0,0.55225,0.44727,1,1,1h7c0.55273,0,1-0.44775,1-1v-6
	C13,36.44775,12.55273,36,12,36z"/>
<path fill="#444444" d="M43,36h-7c-0.55273,0-1,0.44775-1,1v6c0,0.55225,0.44727,1,1,1h7c0.55273,0,1-0.44775,1-1v-6
	C44,36.44775,43.55273,36,43,36z"/>
<path fill="#EFD358" d="M13,29H8c-0.55273,0-1-0.44775-1-1s0.44727-1,1-1h5c0.55273,0,1,0.44775,1,1S13.55273,29,13,29z"/>
<path fill="#EFD358" d="M40,27h-2v-2c0-0.55225-0.44727-1-1-1s-1,0.44775-1,1v2h-2c-0.55273,0-1,0.44775-1,1s0.44727,1,1,1h2v2
	c0,0.55225,0.44727,1,1,1s1-0.44775,1-1v-2h2c0.55273,0,1-0.44775,1-1S40.55273,27,40,27z"/>
<path fill="#B3B3B3" d="M46,38H2c-0.55228,0-1-0.44772-1-1v-2c0-0.55228,0.44772-1,1-1h44c0.55228,0,1,0.44772,1,1v2
	C47,37.55228,46.55228,38,46,38z"/>
</g></svg>