<svg xmlns="http://www.w3.org/2000/svg" xmlns:xlink="http://www.w3.org/1999/xlink" x="0px" y="0px" width="48px" height="48px" viewBox="0 0 48 48"><g >
<path fill="#4DA34D" d="M20,35H9l-3,8h14c0.55231,0,1-0.44775,1-1v-6C21,35.44769,20.55231,35,20,35z"/>
<path fill="#4DA34D" d="M47,36l-7.23163-15.40625c-0.23488-0.50697-0.8396-0.72312-1.34262-0.47992l-5.55053,2.68358
	c-0.49265,0.23819-0.70237,0.82812-0.4706,1.32383l5.87664,12.56625L47,36z"/>
<path fill="#72C472" d="M30.12371,45.99853l-5.81568-6.64649c-0.17334-0.1981-0.1634-0.49667,0.02274-0.68281l5.81568-5.81568
	C30.46143,32.53857,31,32.76165,31,33.20711V36h16l-3.71208,6.49614C43.10988,42.80771,42.77853,43,42.41968,43H31v2.66928
	C31,46.13096,30.42773,46.34598,30.12371,45.99853z"/>
<path fill="#72C472" d="M3.58378,24.06916l8.17743-2.80084c0.25835-0.08849,0.53991,0.04668,0.63244,0.30361l2.96533,8.234
	c0.15055,0.41804-0.27821,0.8101-0.68114,0.62284l-2.5904-1.20382L6,43l-4.66086-6.5252
	c-0.20956-0.29338-0.24497-0.67686-0.09267-1.00366l4.42037-9.48487l-2.13176-0.99065
	C3.12664,24.80581,3.15769,24.2151,3.58378,24.06916z"/>
<path fill="#4DA34D" d="M17.64853,1.01617l-7.60955,14.68772c-0.26031,0.50321-0.05099,1.12195,0.46134,1.36378l5.55786,2.6234
	c0.48956,0.23108,1.07413,0.03062,1.31885-0.45227L23.375,7.375L17.64853,1.01617z"/>
<path fill="#72C472" d="M36.02328,10.09075l-1.91426,8.42922c-0.06048,0.26632-0.32346,0.43484-0.59069,0.37852l-8.56359-1.80464
	c-0.43475-0.09162-0.54298-0.66239-0.17195-0.9068l2.3855-1.57143L17.64853,1.01617l9.59552,0.00135
	c0.36312,0.00005,0.69769,0.19694,0.87403,0.51438l5.1797,9.32394l1.9628-1.29333
	C35.6367,9.31468,36.12302,9.65151,36.02328,10.09075z"/>
</g></svg>