<svg xmlns="http://www.w3.org/2000/svg" xmlns:xlink="http://www.w3.org/1999/xlink" x="0px" y="0px" width="48px" height="48px" viewBox="0 0 48 48"><g >
<path fill="#43A6DD" d="M33,21.03636C33,17.96363,38,13,38,13s5,4.96364,5,8.03636C43,24.22727,40.5,26,38,26
	S33,24.22727,33,21.03636z"/>
<path fill="#43A6DD" d="M16,11.03636C16,7.96363,21,3,21,3s5,4.96364,5,8.03636C26,14.22727,23.5,16,21,16S16,14.22727,16,11.03636z
	"/>
<path fill="#EEBC99" d="M44.01177,34.25985L26.4911,35.78338c-1.62204,0.14105-3.24851-0.21619-4.66215-1.02398L17,32h11.26765
	C29.77669,32,31,30.77669,31,29.26765v-0.00001c0-1.31485-0.93648-2.44324-2.22881-2.68555l-10.11726-1.89699
	C16.22322,24.22935,13.75547,24,11.28239,24H3v14.479l16.44922,6.85742c1.8208,0.68256,3.83527,0.67297,5.68848,0.20508L47,37
	v-0.00049C47,35.38671,45.6185,34.12013,44.01177,34.25985z"/>
<path fill="#5A7A84" d="M7,43H2c-0.55228,0-1-0.44772-1-1V23c0-0.55228,0.44772-1,1-1h5c0.55228,0,1,0.44772,1,1v19
	C8,42.55228,7.55228,43,7,43z"/>
</g></svg>