<?xml version="1.0" encoding="utf-8"?>
<!-- Generator: Adobe Illustrator 18.1.1, SVG Export Plug-In . SVG Version: 6.00 Build 0)  -->
<!DOCTYPE svg PUBLIC "-//W3C//DTD SVG 1.1//EN" "http://www.w3.org/Graphics/SVG/1.1/DTD/svg11.dtd">
<svg version="1.1" id="Layer_1" xmlns="http://www.w3.org/2000/svg" xmlns:xlink="http://www.w3.org/1999/xlink" x="0px" y="0px"
	 width="32px" height="32px" viewBox="0 0 32 32" enable-background="new 0 0 32 32" xml:space="preserve">
<path d="M8,27.7V31c0,0.6,0.4,1,1,1h3v-3h2v3h4v-3h2v3h3c0.6,0,1-0.4,1-1v-3.3c4.3-2.7,7-7.5,7-12.7c0-8.3-6.7-15-15-15S1,6.7,1,15
	C1,20.1,3.7,24.9,8,27.7z M22,11c2.8,0,5,2.2,5,5s-2.2,5-5,5s-5-2.2-5-5S19.2,11,22,11z M16.7,22.3l2,2c0.3,0.3,0.4,0.7,0.2,1.1
	C18.8,25.8,18.4,26,18,26h-4c-0.4,0-0.8-0.2-0.9-0.6c-0.2-0.4-0.1-0.8,0.2-1.1l2-2C15.7,21.9,16.3,21.9,16.7,22.3z M10,11
	c2.8,0,5,2.2,5,5s-2.2,5-5,5s-5-2.2-5-5S7.2,11,10,11z"/>
</svg>
