<?xml version="1.0" encoding="utf-8"?>
<!-- Generator: Adobe Illustrator 18.1.1, SVG Export Plug-In . SVG Version: 6.00 Build 0)  -->
<!DOCTYPE svg PUBLIC "-//W3C//DTD SVG 1.1//EN" "http://www.w3.org/Graphics/SVG/1.1/DTD/svg11.dtd">
<svg version="1.1" id="Layer_1" xmlns="http://www.w3.org/2000/svg" xmlns:xlink="http://www.w3.org/1999/xlink" x="0px" y="0px"
	 width="32px" height="32px" viewBox="0 0 32 32" enable-background="new 0 0 32 32" xml:space="preserve">
<path d="M1,30h13c0.6,0,1-0.4,1-1v-3V8c0-0.6-0.4-1-1-1H7C6.6,7,6.2,7.3,6.1,7.7l-4,12C2,19.8,2,19.9,2,20v5H1c-0.6,0-1,0.4-1,1v3
	C0,29.6,0.4,30,1,30z"/>
<path d="M14,2h-4C9.4,2,9,2.4,9,3v1c0,0.6,0.4,1,1,1h4c0.6,0,1-0.4,1-1V3C15,2.4,14.6,2,14,2z"/>
<path d="M31,25h-1v-5c0-0.1,0-0.2-0.1-0.3l-4-12C25.8,7.3,25.4,7,25,7h-7c-0.6,0-1,0.4-1,1v18v3c0,0.6,0.4,1,1,1h13c0.6,0,1-0.4,1-1
	v-3C32,25.4,31.6,25,31,25z"/>
<path d="M18,2c-0.6,0-1,0.4-1,1v1c0,0.6,0.4,1,1,1h4c0.6,0,1-0.4,1-1V3c0-0.6-0.4-1-1-1H18z"/>
</svg>
