<?xml version="1.0" encoding="utf-8"?>
<!-- Generator: Adobe Illustrator 18.1.1, SVG Export Plug-In . SVG Version: 6.00 Build 0)  -->
<!DOCTYPE svg PUBLIC "-//W3C//DTD SVG 1.1//EN" "http://www.w3.org/Graphics/SVG/1.1/DTD/svg11.dtd">
<svg version="1.1" id="Layer_1" xmlns="http://www.w3.org/2000/svg" xmlns:xlink="http://www.w3.org/1999/xlink" x="0px" y="0px"
	 width="32px" height="32px" viewBox="0 0 32 32" enable-background="new 0 0 32 32" xml:space="preserve">
<path d="M31,0h-6c-0.3,0-0.5,0.1-0.7,0.3L11.6,12.9c-0.6-0.1-1.3-0.2-1.9-0.2c-2.6,0-5,1-6.8,2.8c-1.8,1.8-2.8,4.2-2.8,6.8
	s1,5,2.8,6.8c1.8,1.8,4.2,2.8,6.8,2.8c2.6,0,5-1,6.8-2.8c2.3-2.3,3.2-5.5,2.6-8.7l2.7-2.7c0.2-0.2,0.3-0.4,0.3-0.7v-3h3
	c0.6,0,1-0.4,1-1v-3h3c0.3,0,0.5-0.1,0.7-0.3l2-2C31.9,7.5,32,7.3,32,7V1C32,0.4,31.6,0,31,0z M10,25.5c-0.7,0.7-1.5,1-2.5,1
	s-1.8-0.4-2.5-1c-0.7-0.7-1-1.5-1-2.5s0.4-1.8,1-2.5c1.3-1.3,3.6-1.3,4.9,0c0.7,0.7,1,1.5,1,2.5S10.6,24.8,10,25.5z"/>
</svg>
