<?xml version="1.0" encoding="utf-8"?>
<!-- Generator: Adobe Illustrator 18.1.1, SVG Export Plug-In . SVG Version: 6.00 Build 0)  -->
<!DOCTYPE svg PUBLIC "-//W3C//DTD SVG 1.1//EN" "http://www.w3.org/Graphics/SVG/1.1/DTD/svg11.dtd">
<svg version="1.1" id="Layer_1" xmlns="http://www.w3.org/2000/svg" xmlns:xlink="http://www.w3.org/1999/xlink" x="0px" y="0px"
	 width="32px" height="32px" viewBox="0 0 32 32" enable-background="new 0 0 32 32" xml:space="preserve">
<path d="M15,5v4c0,0.6,0.4,1,1,1s1-0.4,1-1V5c0-0.6-0.4-1-1-1S15,4.4,15,5z"/>
<path d="M24.2,12H7.8C3.5,12,0,15.6,0,20s3.5,8,7.8,8c2.9,0,5.5-1.5,6.8-4h2.7c1.3,2.5,3.9,4,6.8,4c4.3,0,7.8-3.6,7.8-8
	S28.5,12,24.2,12z M11,21H9v2c0,0.6-0.4,1-1,1s-1-0.4-1-1v-2H5c-0.6,0-1-0.4-1-1s0.4-1,1-1h2v-2c0-0.6,0.4-1,1-1s1,0.4,1,1v2h2
	c0.6,0,1,0.4,1,1S11.6,21,11,21z M22.3,18.3l2-2c0.4-0.4,1-0.4,1.4,0s0.4,1,0,1.4l-2,2C23.5,19.9,23.3,20,23,20s-0.5-0.1-0.7-0.3
	C21.9,19.3,21.9,18.7,22.3,18.3z M26.7,21.7l-2,2C24.5,23.9,24.3,24,24,24s-0.5-0.1-0.7-0.3c-0.4-0.4-0.4-1,0-1.4l2-2
	c0.4-0.4,1-0.4,1.4,0S27.1,21.3,26.7,21.7z"/>
</svg>
