<?xml version="1.0" encoding="utf-8"?>
<!-- Generator: Adobe Illustrator 18.1.1, SVG Export Plug-In . SVG Version: 6.00 Build 0)  -->
<!DOCTYPE svg PUBLIC "-//W3C//DTD SVG 1.1//EN" "http://www.w3.org/Graphics/SVG/1.1/DTD/svg11.dtd">
<svg version="1.1" id="Layer_1" xmlns="http://www.w3.org/2000/svg" xmlns:xlink="http://www.w3.org/1999/xlink" x="0px" y="0px"
	 width="32px" height="32px" viewBox="0 0 32 32" enable-background="new 0 0 32 32" xml:space="preserve">
<path d="M4,31c0.6,0,1-0.4,1-1v-2.8c2.8,3,6.8,4.8,11,4.8c4.3,0,8.2-1.8,11-4.8V30c0,0.6,0.4,1,1,1s1-0.4,1-1v-6c0-0.6-0.4-1-1-1h-6
	c-0.6,0-1,0.4-1,1s0.4,1,1,1h4.2c-2.2,2.9-5.6,4.7-9.2,4.9V12h3c0.6,0,1-0.4,1-1s-0.4-1-1-1h-3V7.9c1.7-0.4,3-2,3-3.9
	c0-2.2-1.8-4-4-4s-4,1.8-4,4c0,1.9,1.3,3.4,3,3.9V10h-3c-0.6,0-1,0.4-1,1s0.4,1,1,1h3v17.9c-3.7-0.3-7-2-9.2-4.9H10c0.6,0,1-0.4,1-1
	s-0.4-1-1-1H4c-0.6,0-1,0.4-1,1v0.3c0,0,0,0,0,0V30C3,30.6,3.4,31,4,31z"/>
</svg>
