<?xml version="1.0" encoding="utf-8"?>
<!-- Generator: Adobe Illustrator 18.1.1, SVG Export Plug-In . SVG Version: 6.00 Build 0)  -->
<!DOCTYPE svg PUBLIC "-//W3C//DTD SVG 1.1//EN" "http://www.w3.org/Graphics/SVG/1.1/DTD/svg11.dtd">
<svg version="1.1" id="Layer_1" xmlns="http://www.w3.org/2000/svg" xmlns:xlink="http://www.w3.org/1999/xlink" x="0px" y="0px"
	 width="32px" height="32px" viewBox="0 0 32 32" enable-background="new 0 0 32 32" xml:space="preserve">
<path d="M12.9,15c-0.5,0.1-0.9,0.6-0.9,1.1c0.1,0.5,0.5,0.9,1,0.9c0,0,0.1,0,0.1,0c2.4-0.3,4.5-1.4,6.1-3c-1.7,5.1-5.5,7-5.7,7.1
	C13.2,21.3,13,21.6,13,22v9c0,0.6,0.4,1,1,1h12c0.6,0,1-0.4,1-1V10h1c0.6,0,1-0.4,1-1V3c0-0.6-0.4-1-1-1H15c-0.6,0-1,0.4-1,1v6
	c0,0.6,0.4,1,1,1h4.6C18.4,12.7,15.9,14.6,12.9,15z"/>
<path d="M3,5C2.4,5,2,5.4,2,6s0.4,1,1,1h2c0.6,0,1-0.4,1-1S5.6,5,5,5H3z"/>
<path d="M6.5,8.5l-1,0.6C5,9.4,4.8,10,5.1,10.5C5.3,10.8,5.6,11,6,11c0.2,0,0.3,0,0.5-0.1l1-0.6C8,10,8.1,9.4,7.9,8.9S7,8.3,6.5,8.5
	z"/>
<path d="M7.5,1.7l-1-0.6C6,0.9,5.4,1,5.1,1.5S5,2.6,5.5,2.9l1,0.6C6.7,3.6,6.9,3.6,7,3.6c0.3,0,0.7-0.2,0.9-0.5C8.2,2.6,8,2,7.5,1.7
	z"/>
<path d="M12,4c-0.6,0-1,0.4-1,1v2c0,0.6,0.4,1,1,1s1-0.4,1-1V5C13,4.4,12.6,4,12,4z"/>
</svg>
