<?xml version="1.0" encoding="utf-8"?>
<!-- Generator: Adobe Illustrator 18.1.1, SVG Export Plug-In . SVG Version: 6.00 Build 0)  -->
<!DOCTYPE svg PUBLIC "-//W3C//DTD SVG 1.1//EN" "http://www.w3.org/Graphics/SVG/1.1/DTD/svg11.dtd">
<svg version="1.1" id="Layer_1" xmlns="http://www.w3.org/2000/svg" xmlns:xlink="http://www.w3.org/1999/xlink" x="0px" y="0px"
	 width="32px" height="32px" viewBox="0 0 32 32" enable-background="new 0 0 32 32" xml:space="preserve">
<path d="M31,11h-0.9c-1.5-4.3-4.8-7.6-9.1-9.1V1c0-0.6-0.4-1-1-1h-8c-0.6,0-1,0.4-1,1v0.9C6.7,3.4,3.4,6.7,1.9,11H1
	c-0.6,0-1,0.4-1,1v8c0,0.6,0.4,1,1,1h0.9c1.5,4.3,4.8,7.6,9.1,9.1V31c0,0.6,0.4,1,1,1h8c0.6,0,1-0.4,1-1v-0.9
	c4.3-1.5,7.6-4.8,9.1-9.1H31c0.6,0,1-0.4,1-1v-8C32,11.4,31.6,11,31,11z M13,2h6v6.6C18.1,8.2,17.1,8,16,8s-2.1,0.2-3,0.6V2z
	 M8.6,19H2v-6h6.6C8.2,13.9,8,14.9,8,16S8.2,18.1,8.6,19z M19,30h-6v-6.6c0.9,0.4,1.9,0.6,3,0.6s2.1-0.2,3-0.6V30z M16,22
	c-3.3,0-6-2.7-6-6s2.7-6,6-6s6,2.7,6,6S19.3,22,16,22z M30,19h-6.6c0.4-0.9,0.6-1.9,0.6-3s-0.2-2.1-0.6-3H30V19z"/>
</svg>
