<?xml version="1.0" encoding="utf-8"?>
<!-- Generator: Adobe Illustrator 18.1.1, SVG Export Plug-In . SVG Version: 6.00 Build 0)  -->
<!DOCTYPE svg PUBLIC "-//W3C//DTD SVG 1.1//EN" "http://www.w3.org/Graphics/SVG/1.1/DTD/svg11.dtd">
<svg version="1.1" id="Layer_1" xmlns="http://www.w3.org/2000/svg" xmlns:xlink="http://www.w3.org/1999/xlink" x="0px" y="0px"
	 width="32px" height="32px" viewBox="0 0 32 32" enable-background="new 0 0 32 32" xml:space="preserve">
<path d="M29,17c0-7.7-6.3-14-14-14c-1.2,0-2.4,0.2-3.6,0.5c-4.8-3-8.3-3.7-10-2C0,2.9,0.3,5.8,2.4,9.6c0.1,0.2,0.2,0.4,0.3,0.6
	C1.6,12.2,1,14.5,1,17c0,7.7,6.3,14,14,14c2.5,0,4.8-0.6,6.8-1.8c0.2,0.1,0.4,0.2,0.6,0.3c2.3,1.2,4.2,1.8,5.7,1.8
	c1,0,1.9-0.3,2.5-0.9c1.7-1.7,1-5.2-2-10C28.8,19.4,29,18.2,29,17z M7,23c-1.1,0-2-0.9-2-2s0.9-2,2-2s2,0.9,2,2S8.1,23,7,23z M4,8.4
	c-1.7-3.2-1.7-5-1.1-5.5C3.5,2.2,5.7,2.5,9,4.4C7.1,5.3,5.3,6.7,4,8.4z M15,15c-1.7,0-3-1.3-3-3s1.3-3,3-3s3,1.3,3,3S16.7,15,15,15z
	 M20,21c-1.1,0-2-0.9-2-2s0.9-2,2-2s2,0.9,2,2S21.1,21,20,21z M29.1,29.1c-0.5,0.5-2.3,0.5-5.5-1.1c1.7-1.3,3.1-3,4-5
	C29.5,26.3,29.8,28.5,29.1,29.1z"/>
</svg>
