<?xml version="1.0" encoding="utf-8"?>
<!-- Generator: Adobe Illustrator 18.1.1, SVG Export Plug-In . SVG Version: 6.00 Build 0)  -->
<!DOCTYPE svg PUBLIC "-//W3C//DTD SVG 1.1//EN" "http://www.w3.org/Graphics/SVG/1.1/DTD/svg11.dtd">
<svg version="1.1" id="Layer_1" xmlns="http://www.w3.org/2000/svg" xmlns:xlink="http://www.w3.org/1999/xlink" x="0px" y="0px"
	 width="32px" height="32px" viewBox="0 0 32 32" enable-background="new 0 0 32 32" xml:space="preserve">
<path d="M17,3V1c0-0.6-0.4-1-1-1s-1,0.4-1,1v2C4.2,3.6,3,14.2,3,18.8C3,25.8,9.5,29,16,29s13-3.2,13-10.2C29,14.2,27.8,3.6,17,3z
	 M16.2,22.7C16.2,22.7,16.1,22.7,16.2,22.7h-0.2c0,0,0,0,0,0c-1.9,0-3.6-0.2-5-0.7c-3.5-1.1-4.3-3.4-4.3-5.1
	c0-6.6,4.7-10.1,9.3-10.1c4.5,0,9.3,3.5,9.3,10.1C25.3,20.5,21.9,22.7,16.2,22.7z"/>
<path d="M13.9,10.4c-1.5,0.3-2.9,1.8-3.4,3.5c-0.1,0.5,0.2,1.1,0.7,1.2c0.1,0,0.2,0,0.3,0c0.4,0,0.8-0.3,1-0.7
	c0.3-1.1,1.2-1.9,1.9-2.1c0.5-0.1,0.9-0.7,0.8-1.2C15,10.6,14.5,10.3,13.9,10.4z"/>
<path d="M6,27v1.9c0,0.4,0.2,0.7,0.5,0.9C9.1,31.2,12.4,32,16,32s6.9-0.8,9.5-2.3c0.3-0.2,0.5-0.5,0.5-0.9V27c-2.7,2-6.3,3-10,3
	S8.7,29,6,27z"/>
</svg>
