<?xml version="1.0" encoding="utf-8"?>
<!-- Generator: Adobe Illustrator 19.1.0, SVG Export Plug-In . SVG Version: 6.00 Build 0)  -->
<!DOCTYPE svg PUBLIC "-//W3C//DTD SVG 1.1//EN" "http://www.w3.org/Graphics/SVG/1.1/DTD/svg11.dtd">
<svg version="1.1" id="Layer_2" xmlns="http://www.w3.org/2000/svg" xmlns:xlink="http://www.w3.org/1999/xlink" x="0px" y="0px"
	 width="64px" height="64px" viewBox="0 0 64 64" enable-background="new 0 0 64 64" xml:space="preserve">
<path d="M2,51h20c0.6,0,1-0.4,1-1s-0.4-1-1-1H2c-0.6,0-1,0.4-1,1S1.4,51,2,51z"/>
<path d="M12,43h20c0.6,0,1-0.4,1-1s-0.4-1-1-1H12c-0.6,0-1,0.4-1,1S11.4,43,12,43z"/>
<path d="M33,58c0-0.6-0.4-1-1-1H12c-0.6,0-1,0.4-1,1s0.4,1,1,1h20C32.6,59,33,58.6,33,58z"/>
<path d="M2,35h4c0.6,0,1-0.4,1-1s-0.4-1-1-1H2c-0.6,0-1,0.4-1,1S1.4,35,2,35z"/>
<path d="M10.1,12.1c-0.4,0.4-0.4,1,0,1.4l2.8,2.8c0.2,0.2,0.5,0.3,0.7,0.3s0.5-0.1,0.7-0.3c0.4-0.4,0.4-1,0-1.4l-2.8-2.8
	C11.1,11.7,10.5,11.7,10.1,12.1z"/>
<path d="M32,3c-0.6,0-1,0.4-1,1v4c0,0.6,0.4,1,1,1s1-0.4,1-1V4C33,3.4,32.6,3,32,3z"/>
<path d="M50.4,16.6c0.3,0,0.5-0.1,0.7-0.3l2.8-2.8c0.4-0.4,0.4-1,0-1.4s-1-0.4-1.4,0l-2.8,2.8c-0.4,0.4-0.4,1,0,1.4
	C49.9,16.5,50.1,16.6,50.4,16.6z"/>
<path d="M62,33h-4c-0.6,0-1,0.4-1,1s0.4,1,1,1h4c0.6,0,1-0.4,1-1S62.6,33,62,33z"/>
<path d="M49.7,53.1l2.8,2.8c0.2,0.2,0.5,0.3,0.7,0.3s0.5-0.1,0.7-0.3c0.4-0.4,0.4-1,0-1.4l-2.8-2.8c-0.4-0.4-1-0.4-1.4,0
	S49.3,52.7,49.7,53.1z"/>
<path d="M49,34c0-9.4-7.6-17-17-17s-17,7.6-17,17c0,0.6,0.4,1,1,1s1-0.4,1-1c0-8.3,6.7-15,15-15s15,6.7,15,15s-6.7,15-15,15
	c-0.6,0-1,0.4-1,1s0.4,1,1,1C41.4,51,49,43.4,49,34z"/>
</svg>
