<?xml version="1.0" encoding="utf-8"?>
<!-- Generator: Adobe Illustrator 19.1.0, SVG Export Plug-In . SVG Version: 6.00 Build 0)  -->
<!DOCTYPE svg PUBLIC "-//W3C//DTD SVG 1.1//EN" "http://www.w3.org/Graphics/SVG/1.1/DTD/svg11.dtd">
<svg version="1.1" id="Layer_2" xmlns="http://www.w3.org/2000/svg" xmlns:xlink="http://www.w3.org/1999/xlink" x="0px" y="0px"
	 width="64px" height="64px" viewBox="0 0 64 64" enable-background="new 0 0 64 64" xml:space="preserve">
<path d="M12,17.3C5.7,18.7,1,24.5,1,31c0,0.4,0,0.7,0,1.1c0,0.5,0.5,0.9,1,0.9c0,0,0.1,0,0.1,0c0.6,0,1-0.5,0.9-1.1
	c0-0.3,0-0.6,0-0.9c0-5.8,4.3-10.9,10-11.8c0.4-0.1,0.7-0.3,0.8-0.7C16.3,10.4,23.6,5,32,5c9.9,0,18,7.4,19,17.1
	c0,0.5,0.4,0.8,0.9,0.9c4.8,0.5,8.6,4.3,9.1,9.1c0,0.5,0.5,1,1.1,0.9c0.5,0,1-0.5,0.9-1.1c-0.5-5.4-4.7-9.9-10-10.8
	C51.5,10.7,42.6,3,32,3C23,3,15,8.7,12,17.3z"/>
<path d="M62,40H2c-0.6,0-1,0.4-1,1s0.4,1,1,1h60c0.6,0,1-0.4,1-1S62.6,40,62,40z"/>
<path d="M55,49c0-0.6-0.4-1-1-1H10c-0.6,0-1,0.4-1,1s0.4,1,1,1h44C54.6,50,55,49.6,55,49z"/>
<path d="M47,57c0-0.6-0.4-1-1-1H18c-0.6,0-1,0.4-1,1s0.4,1,1,1h28C46.6,58,47,57.6,47,57z"/>
</svg>
