<?xml version="1.0" encoding="utf-8"?>
<!-- Generator: Adobe Illustrator 19.1.0, SVG Export Plug-In . SVG Version: 6.00 Build 0)  -->
<!DOCTYPE svg PUBLIC "-//W3C//DTD SVG 1.1//EN" "http://www.w3.org/Graphics/SVG/1.1/DTD/svg11.dtd">
<svg version="1.1" id="Layer_2" xmlns="http://www.w3.org/2000/svg" xmlns:xlink="http://www.w3.org/1999/xlink" x="0px" y="0px"
	 width="64px" height="64px" viewBox="0 0 64 64" enable-background="new 0 0 64 64" xml:space="preserve">
<path d="M6,33c0.6,0,1-0.4,1-1s-0.4-1-1-1H2c-0.6,0-1,0.4-1,1s0.4,1,1,1H6z"/>
<path d="M12.9,14.3c0.2,0.2,0.5,0.3,0.7,0.3s0.5-0.1,0.7-0.3c0.4-0.4,0.4-1,0-1.4l-2.8-2.8c-0.4-0.4-1-0.4-1.4,0s-0.4,1,0,1.4
	L12.9,14.3z"/>
<path d="M32,7c0.6,0,1-0.4,1-1V2c0-0.6-0.4-1-1-1s-1,0.4-1,1v4C31,6.6,31.4,7,32,7z"/>
<path d="M50.4,14.6c0.3,0,0.5-0.1,0.7-0.3l2.8-2.8c0.4-0.4,0.4-1,0-1.4s-1-0.4-1.4,0l-2.8,2.8c-0.4,0.4-0.4,1,0,1.4
	C49.9,14.5,50.1,14.6,50.4,14.6z"/>
<path d="M62,31h-4c-0.6,0-1,0.4-1,1s0.4,1,1,1h4c0.6,0,1-0.4,1-1S62.6,31,62,31z"/>
<path d="M49.7,51.1l2.8,2.8c0.2,0.2,0.5,0.3,0.7,0.3s0.5-0.1,0.7-0.3c0.4-0.4,0.4-1,0-1.4l-2.8-2.8c-0.4-0.4-1-0.4-1.4,0
	S49.3,50.7,49.7,51.1z"/>
<path d="M31,58v4c0,0.6,0.4,1,1,1s1-0.4,1-1v-4c0-0.6-0.4-1-1-1S31,57.4,31,58z"/>
<path d="M10.1,53.9c0.2,0.2,0.5,0.3,0.7,0.3s0.5-0.1,0.7-0.3l2.8-2.8c0.4-0.4,0.4-1,0-1.4s-1-0.4-1.4,0l-2.8,2.8
	C9.7,52.9,9.7,53.5,10.1,53.9z"/>
<path d="M15,32c0,9.4,7.6,17,17,17s17-7.6,17-17s-7.6-17-17-17S15,22.6,15,32z M32,17c8.3,0,15,6.7,15,15s-6.7,15-15,15
	s-15-6.7-15-15S23.7,17,32,17z"/>
</svg>
