<?xml version="1.0" encoding="utf-8"?>
<!-- Generator: Adobe Illustrator 19.1.0, SVG Export Plug-In . SVG Version: 6.00 Build 0)  -->
<!DOCTYPE svg PUBLIC "-//W3C//DTD SVG 1.1//EN" "http://www.w3.org/Graphics/SVG/1.1/DTD/svg11.dtd">
<svg version="1.1" id="Layer_2" xmlns="http://www.w3.org/2000/svg" xmlns:xlink="http://www.w3.org/1999/xlink" x="0px" y="0px"
	 width="64px" height="64px" viewBox="0 0 64 64" enable-background="new 0 0 64 64" xml:space="preserve">
<path d="M5,2v60c0,0.6,0.4,1,1,1s1-0.4,1-1V2c0-0.6-0.4-1-1-1S5,1.4,5,2z"/>
<path d="M62.2,15l-48-10c-0.3-0.1-0.6,0-0.8,0.2C13.1,5.4,13,5.7,13,6v36c0,0.3,0.1,0.6,0.4,0.8c0.2,0.1,0.4,0.2,0.6,0.2
	c0.1,0,0.1,0,0.2,0l48-10c0.5-0.1,0.8-0.5,0.8-1V16C63,15.5,62.7,15.1,62.2,15z M45,13.5v21l-14,2.9V10.6L45,13.5z M15,7.2l14,2.9
	v27.7l-14,2.9V7.2z M61,31.2l-14,2.9V13.9l14,2.9V31.2z"/>
</svg>
