<?xml version="1.0" encoding="utf-8"?>
<!-- Generator: Adobe Illustrator 19.1.0, SVG Export Plug-In . SVG Version: 6.00 Build 0)  -->
<!DOCTYPE svg PUBLIC "-//W3C//DTD SVG 1.1//EN" "http://www.w3.org/Graphics/SVG/1.1/DTD/svg11.dtd">
<svg version="1.1" id="Layer_2" xmlns="http://www.w3.org/2000/svg" xmlns:xlink="http://www.w3.org/1999/xlink" x="0px" y="0px"
	 width="64px" height="64px" viewBox="0 0 64 64" enable-background="new 0 0 64 64" xml:space="preserve">
<path d="M13,63c0.6,0,1-0.4,1-1V2c0-0.6-0.4-1-1-1s-1,0.4-1,1v60C12,62.6,12.4,63,13,63z"/>
<path d="M20.5,40.9C20.6,41,20.8,41,21,41c0.2,0,0.3,0,0.5-0.1l30-16c0.3-0.2,0.5-0.5,0.5-0.9s-0.2-0.7-0.5-0.9l-30-16
	c-0.3-0.2-0.7-0.2-1,0C20.2,7.3,20,7.6,20,8v32C20,40.4,20.2,40.7,20.5,40.9z M22,9.7L48.9,24L22,38.3V9.7z"/>
</svg>
