<?xml version="1.0" encoding="utf-8"?>
<!-- Generator: Adobe Illustrator 19.1.0, SVG Export Plug-In . SVG Version: 6.00 Build 0)  -->
<!DOCTYPE svg PUBLIC "-//W3C//DTD SVG 1.1//EN" "http://www.w3.org/Graphics/SVG/1.1/DTD/svg11.dtd">
<svg version="1.1" id="Layer_2" xmlns="http://www.w3.org/2000/svg" xmlns:xlink="http://www.w3.org/1999/xlink" x="0px" y="0px"
	 width="64px" height="64px" viewBox="0 0 64 64" enable-background="new 0 0 64 64" xml:space="preserve">
<path d="M62,47H2c-0.6,0-1,0.4-1,1s0.4,1,1,1h60c0.6,0,1-0.4,1-1S62.6,47,62,47z"/>
<path d="M54,55H10c-0.6,0-1,0.4-1,1s0.4,1,1,1h44c0.6,0,1-0.4,1-1S54.6,55,54,55z"/>
<path d="M58.9,30.1c1.4-2.5,2.1-5.3,2.1-8.2c0-0.8-0.1-1.7-0.2-2.7c0-0.3-0.2-0.5-0.4-0.7c-0.2-0.2-0.5-0.2-0.8-0.1
	c-1.2,0.3-2.4,0.5-3.5,0.5c-7.1,0-12.9-5.8-13-12.9c0-0.3-0.1-0.6-0.3-0.7S42.2,5,41.9,5C34.3,6,28.3,11.8,27.2,19.4
	c-4.6,1-8.6,4.1-10.8,8.3c-1.1-0.4-2.3-0.5-3.5-0.5C6.3,27.2,1,32.5,1,39.1c0,0.3,0,0.7,0,1c0,0.5,0.5,0.9,1,0.9c0,0,0.1,0,0.1,0
	c0.6,0,1-0.5,0.9-1.1c0-0.3,0-0.5,0-0.8c0-5.5,4.4-9.9,9.9-9.9c1.2,0,2.4,0.2,3.6,0.7c0.5,0.2,1.1,0,1.3-0.5
	c2.2-5.1,7.3-8.4,12.8-8.4c6,0,11.3,3.8,13.2,9.5c0.1,0.3,0.3,0.5,0.6,0.6c0.3,0.1,0.6,0,0.9-0.1c1.7-1.2,3.7-1.8,5.7-1.8
	c5.5,0,9.9,4.4,9.9,9.9c0,0.3,0,0.6,0,0.8c0,0.5,0.4,1,0.9,1.1c0.6,0,1-0.4,1.1-0.9c0-0.3,0-0.7,0-1C63,35.5,61.4,32.3,58.9,30.1z
	 M45.3,28.7c-2.5-5.8-8.3-9.7-14.7-9.7c-0.5,0-0.9,0-1.4,0.1c1.1-6,5.8-10.7,11.8-11.9c0.7,7.7,7.1,13.7,14.9,13.7
	c1,0,2-0.1,2.9-0.3c0,0.5,0.1,0.9,0.1,1.3c0,2.5-0.6,4.9-1.8,7c-1.8-1.1-3.9-1.7-6.1-1.7C49.1,27.2,47.1,27.7,45.3,28.7z"/>
</svg>
