<?xml version="1.0" encoding="utf-8"?>
<!-- Generator: Adobe Illustrator 19.1.0, SVG Export Plug-In . SVG Version: 6.00 Build 0)  -->
<!DOCTYPE svg PUBLIC "-//W3C//DTD SVG 1.1//EN" "http://www.w3.org/Graphics/SVG/1.1/DTD/svg11.dtd">
<svg version="1.1" id="Layer_2" xmlns="http://www.w3.org/2000/svg" xmlns:xlink="http://www.w3.org/1999/xlink" x="0px" y="0px"
	 width="64px" height="64px" viewBox="0 0 64 64" enable-background="new 0 0 64 64" xml:space="preserve">
<path d="M40,9c-10.1,0-19,6.6-21.9,16.2C17.4,25,16.7,25,16,25C7.7,25,1,31.7,1,40s6.7,15,15,15h26c0.2,0,0.4-0.1,0.5-0.1
	C54.2,53.6,63,43.8,63,32C63,19.3,52.7,9,40,9z M41.9,52.9c-0.1,0-0.2,0-0.3,0.1H16C8.8,53,3,47.2,3,40s5.8-13,13-13
	c0.9,0,1.7,0.1,2.6,0.3c0.5,0.1,1-0.2,1.2-0.7C22.2,17.4,30.5,11,40,11c11.6,0,21,9.4,21,21C61,42.9,52.8,51.9,41.9,52.9z"/>
</svg>
