<?xml version="1.0" encoding="utf-8"?>
<!-- Generator: Adobe Illustrator 19.1.0, SVG Export Plug-In . SVG Version: 6.00 Build 0)  -->
<!DOCTYPE svg PUBLIC "-//W3C//DTD SVG 1.1//EN" "http://www.w3.org/Graphics/SVG/1.1/DTD/svg11.dtd">
<svg version="1.1" id="Layer_2" xmlns="http://www.w3.org/2000/svg" xmlns:xlink="http://www.w3.org/1999/xlink" x="0px" y="0px"
	 width="64px" height="64px" viewBox="0 0 64 64" enable-background="new 0 0 64 64" xml:space="preserve">
<path d="M41,52.4c0-4.9-7.4-14-8.2-15c-0.4-0.5-1.2-0.5-1.5,0c-0.8,1-8.2,10.1-8.2,15c0,5.4,4.6,8.6,9,8.6S41,57.8,41,52.4z
	 M25,52.4c0-3.2,4.5-9.6,7-12.8c2.5,3.2,7,9.6,7,12.8c0,4.3-3.6,6.6-7,6.6S25,56.7,25,52.4z"/>
<path d="M52.9,21.1C51.5,10.7,42.6,3,32,3c-9,0-17,5.7-20,14.3C5.7,18.7,1,24.5,1,31c0,7.3,5.6,13.3,12.9,14c0.6,0,1-0.4,1.1-0.9
	c0-0.6-0.4-1-0.9-1.1C7.8,42.4,3,37.3,3,31c0-5.8,4.3-10.9,10-11.8c0.4-0.1,0.7-0.3,0.8-0.7C16.3,10.4,23.6,5,32,5
	c9.9,0,18,7.4,19,17.1c0,0.5,0.4,0.8,0.9,0.9c5.2,0.6,9.1,4.9,9.1,10s-3.9,9.4-9.1,10c-0.5,0.1-0.9,0.6-0.9,1.1
	c0.1,0.5,0.5,0.9,1,0.9c0,0,0.1,0,0.1,0C58.3,44.3,63,39.2,63,33C63,27.1,58.7,22.1,52.9,21.1z"/>
</svg>
