<?xml version="1.0" encoding="utf-8"?>
<!-- Generator: Adobe Illustrator 19.1.0, SVG Export Plug-In . SVG Version: 6.00 Build 0)  -->
<!DOCTYPE svg PUBLIC "-//W3C//DTD SVG 1.1//EN" "http://www.w3.org/Graphics/SVG/1.1/DTD/svg11.dtd">
<svg version="1.1" id="Layer_2" xmlns="http://www.w3.org/2000/svg" xmlns:xlink="http://www.w3.org/1999/xlink" x="0px" y="0px"
	 width="64px" height="64px" viewBox="0 0 64 64" enable-background="new 0 0 64 64" xml:space="preserve">
<path d="M62,41H2c-0.6,0-1,0.4-1,1s0.4,1,1,1h60c0.6,0,1-0.4,1-1S62.6,41,62,41z"/>
<path d="M55,50c0-0.6-0.4-1-1-1H10c-0.6,0-1,0.4-1,1s0.4,1,1,1h44C54.6,51,55,50.6,55,50z"/>
<path d="M18,57c-0.6,0-1,0.4-1,1s0.4,1,1,1h28c0.6,0,1-0.4,1-1s-0.4-1-1-1H18z"/>
<path d="M3,34c0,0.6,0.4,1,1,1s1-0.4,1-1C5,19.1,17.1,7,32,7s27,12.1,27,27c0,0.6,0.4,1,1,1s1-0.4,1-1C61,18,48,5,32,5S3,18,3,34z"
	/>
</svg>
