<?xml version="1.0" encoding="utf-8"?>
<!-- Generator: Adobe Illustrator 19.1.0, SVG Export Plug-In . SVG Version: 6.00 Build 0)  -->
<!DOCTYPE svg PUBLIC "-//W3C//DTD SVG 1.1//EN" "http://www.w3.org/Graphics/SVG/1.1/DTD/svg11.dtd">
<svg version="1.1" id="Layer_2" xmlns="http://www.w3.org/2000/svg" xmlns:xlink="http://www.w3.org/1999/xlink" x="0px" y="0px"
	 width="64px" height="64px" viewBox="0 0 64 64" enable-background="new 0 0 64 64" xml:space="preserve">
<path d="M6,39h22.8L25,55.8c-0.1,0.4,0.1,0.9,0.5,1.1C25.7,57,25.8,57,26,57c0.2,0,0.5-0.1,0.7-0.3l32-30c0.3-0.3,0.4-0.7,0.2-1.1
	C58.8,25.3,58.4,25,58,25H35.2L39,8.2c0.1-0.4-0.1-0.9-0.5-1.1c-0.4-0.2-0.9-0.2-1.2,0.1l-32,30C5,37.6,4.9,38,5.1,38.4
	C5.2,38.7,5.6,39,6,39z M36.3,10.9L33,25.8c-0.1,0.3,0,0.6,0.2,0.8c0.2,0.2,0.5,0.4,0.8,0.4h21.5L27.7,53.1L31,38.2
	c0.1-0.3,0-0.6-0.2-0.8C30.6,37.1,30.3,37,30,37H8.5L36.3,10.9z"/>
</svg>
