<?xml version="1.0" encoding="utf-8"?>
<!-- Generator: Adobe Illustrator 19.1.0, SVG Export Plug-In . SVG Version: 6.00 Build 0)  -->
<!DOCTYPE svg PUBLIC "-//W3C//DTD SVG 1.1//EN" "http://www.w3.org/Graphics/SVG/1.1/DTD/svg11.dtd">
<svg version="1.1" id="Layer_2" xmlns="http://www.w3.org/2000/svg" xmlns:xlink="http://www.w3.org/1999/xlink" x="0px" y="0px"
	 width="64px" height="64px" viewBox="0 0 64 64" enable-background="new 0 0 64 64" xml:space="preserve">
<path d="M39.8,45.5c-0.3-0.5-0.9-0.6-1.4-0.4L33,48.3V42c0-0.6-0.4-1-1-1s-1,0.4-1,1v6.3l-5.4-3.1c-0.5-0.3-1.1-0.1-1.4,0.4
	c-0.3,0.5-0.1,1.1,0.4,1.4L30,50l-5.4,3.1c-0.5,0.3-0.6,0.9-0.4,1.4c0.2,0.3,0.5,0.5,0.9,0.5c0.2,0,0.3,0,0.5-0.1l5.4-3.1V58
	c0,0.6,0.4,1,1,1s1-0.4,1-1v-6.3l5.4,3.1c0.2,0.1,0.3,0.1,0.5,0.1c0.3,0,0.7-0.2,0.9-0.5c0.3-0.5,0.1-1.1-0.4-1.4L34,50l5.4-3.1
	C39.9,46.6,40.1,46,39.8,45.5z"/>
<path d="M58.9,28.1c1.4-2.5,2.1-5.3,2.1-8.1c0-0.8-0.1-1.7-0.2-2.7c0-0.3-0.2-0.5-0.4-0.7c-0.2-0.2-0.5-0.2-0.8-0.1
	C58.3,16.8,57.2,17,56,17c-7.1,0-12.9-5.8-13-12.9c0-0.3-0.1-0.6-0.3-0.7c-0.2-0.2-0.5-0.3-0.8-0.2c-7.6,0.9-13.5,6.7-14.7,14.2
	c-4.6,1-8.6,4.1-10.8,8.3c-1.1-0.4-2.3-0.5-3.5-0.5C6.3,25.2,1,30.5,1,37.1S6.3,49,12.9,49H16c0.6,0,1-0.4,1-1s-0.4-1-1-1h-3.1
	C7.4,47,3,42.6,3,37.1s4.4-9.9,9.9-9.9c1.2,0,2.4,0.2,3.6,0.7c0.5,0.2,1.1,0,1.3-0.5c2.2-5.1,7.3-8.4,12.8-8.4
	c6,0,11.3,3.8,13.2,9.5c0.1,0.3,0.3,0.5,0.6,0.6c0.3,0.1,0.6,0,0.9-0.1c1.7-1.2,3.7-1.8,5.7-1.8c5.5,0,9.9,4.4,9.9,9.9
	S56.6,47,51.1,47H48c-0.6,0-1,0.4-1,1s0.4,1,1,1h3.1C57.7,49,63,43.7,63,37.1C63,33.5,61.4,30.3,58.9,28.1z M45.3,26.7
	c-2.5-5.8-8.3-9.7-14.7-9.7c-0.5,0-0.9,0-1.3,0.1c1.2-5.9,5.8-10.6,11.8-11.8C41.7,13,48.2,19,56,19c1,0,2-0.1,2.9-0.3
	c0,0.5,0.1,0.9,0.1,1.3c0,2.4-0.6,4.8-1.7,6.9c-1.8-1.1-3.9-1.8-6.2-1.8C49.1,25.2,47.1,25.7,45.3,26.7z"/>
</svg>
