<?xml version="1.0" encoding="utf-8"?>
<!-- Generator: Adobe Illustrator 19.1.0, SVG Export Plug-In . SVG Version: 6.00 Build 0)  -->
<!DOCTYPE svg PUBLIC "-//W3C//DTD SVG 1.1//EN" "http://www.w3.org/Graphics/SVG/1.1/DTD/svg11.dtd">
<svg version="1.1" id="Layer_2" xmlns="http://www.w3.org/2000/svg" xmlns:xlink="http://www.w3.org/1999/xlink" x="0px" y="0px"
	 width="64px" height="64px" viewBox="0 0 64 64" enable-background="new 0 0 64 64" xml:space="preserve">
<path d="M52.8,29.1C51.4,18.7,42.6,11,32,11c-9.1,0-17,5.7-19.9,14.3C5.6,26.7,1,32.3,1,39c0,7.3,5.7,13.5,13,14h38c0,0,0.1,0,0.1,0
	C58.2,52.4,63,47.2,63,41C63,35,58.7,30,52.8,29.1z M52,51l-37.9,0C7.9,50.5,3,45.3,3,39c0-5.9,4.2-10.9,10.1-11.8
	c0.4-0.1,0.7-0.3,0.8-0.7C16.3,18.4,23.6,13,32,13c9.8,0,17.9,7.4,18.9,17.1c0,0.5,0.4,0.9,0.9,0.9c5.2,0.5,9.2,4.8,9.2,10
	C61,46.1,57,50.5,52,51z"/>
</svg>
