<?xml version="1.0" encoding="utf-8"?>
<!-- Generator: Adobe Illustrator 19.1.0, SVG Export Plug-In . SVG Version: 6.00 Build 0)  -->
<!DOCTYPE svg PUBLIC "-//W3C//DTD SVG 1.1//EN" "http://www.w3.org/Graphics/SVG/1.1/DTD/svg11.dtd">
<svg version="1.1" id="Layer_2" xmlns="http://www.w3.org/2000/svg" xmlns:xlink="http://www.w3.org/1999/xlink" x="0px" y="0px"
	 width="64px" height="64px" viewBox="0 0 64 64" enable-background="new 0 0 64 64" xml:space="preserve">
<path d="M1.1,18.9c0.3,0.5,0.9,0.6,1.4,0.3l7.7-4.6c3.3-2,7.4-1.9,10.6,0.3l4.6,3c2,1.3,4.3,2,6.6,2s4.6-0.7,6.6-2l4.6-3
	c3.2-2.1,7.3-2.2,10.6-0.3l7.7,4.6c0.5,0.3,1.1,0.1,1.4-0.3c0.3-0.5,0.1-1.1-0.3-1.4l-7.7-4.6c-3.9-2.4-8.9-2.2-12.7,0.3l-4.6,3
	c-3.3,2.2-7.7,2.2-11,0l-4.6-3c-3.8-2.5-8.8-2.7-12.7-0.3l-7.7,4.6C1,17.8,0.9,18.4,1.1,18.9z"/>
<path d="M1.1,51.8c0.3,0.5,0.9,0.6,1.4,0.3l7.7-4.6c3.3-2,7.4-1.9,10.6,0.3l4.6,3c2,1.3,4.3,2,6.6,2s4.6-0.7,6.6-2l4.6-3
	c3.2-2.1,7.3-2.2,10.6-0.3l7.7,4.6c0.5,0.3,1.1,0.1,1.4-0.3c0.3-0.5,0.1-1.1-0.3-1.4l-7.7-4.6c-3.9-2.4-8.9-2.2-12.7,0.3l-4.6,3
	c-3.3,2.2-7.7,2.2-11,0l-4.6-3c-3.8-2.5-8.8-2.7-12.7-0.3l-7.7,4.6C1,50.7,0.9,51.3,1.1,51.8z"/>
<path d="M1.1,35.3C1.4,35.8,2,36,2.5,35.7l7.7-4.6c3.3-2,7.4-1.9,10.6,0.3l4.6,3c2,1.3,4.3,2,6.6,2s4.6-0.7,6.6-2l4.6-3
	c3.2-2.1,7.3-2.2,10.6-0.3l7.7,4.6c0.5,0.3,1.1,0.1,1.4-0.3c0.3-0.5,0.1-1.1-0.3-1.4l-7.7-4.6c-3.9-2.4-8.9-2.2-12.7,0.3l-4.6,3
	c-3.3,2.2-7.7,2.2-11,0l-4.6-3c-3.8-2.5-8.8-2.7-12.7-0.3L1.5,34C1,34.3,0.9,34.9,1.1,35.3z"/>
</svg>
