<?xml version="1.0" encoding="utf-8"?>
<!-- Generator: Adobe Illustrator 19.1.0, SVG Export Plug-In . SVG Version: 6.00 Build 0)  -->
<!DOCTYPE svg PUBLIC "-//W3C//DTD SVG 1.1//EN" "http://www.w3.org/Graphics/SVG/1.1/DTD/svg11.dtd">
<svg version="1.1" id="Layer_2" xmlns="http://www.w3.org/2000/svg" xmlns:xlink="http://www.w3.org/1999/xlink" x="0px" y="0px"
	 width="64px" height="64px" viewBox="0 0 64 64" enable-background="new 0 0 64 64" xml:space="preserve">
<path d="M15,31h4c0.6,0,1-0.4,1-1s-0.4-1-1-1h-4c-0.6,0-1,0.4-1,1S14.4,31,15,31z"/>
<path d="M15,21h4c0.6,0,1-0.4,1-1s-0.4-1-1-1h-4c-0.6,0-1,0.4-1,1S14.4,21,15,21z"/>
<path d="M15,11h4c0.6,0,1-0.4,1-1s-0.4-1-1-1h-4c-0.6,0-1,0.4-1,1S14.4,11,15,11z"/>
<path d="M35,63c8.3,0,15-6.7,15-15c0-4.7-2.2-9.1-6-12V10c0-5-4-9-9-9s-9,4-9,9v26c-3.8,2.8-6,7.3-6,12C20,56.3,26.7,63,35,63z
	 M27.6,37.3c0.3-0.2,0.4-0.5,0.4-0.8V10c0-3.9,3.1-7,7-7s7,3.1,7,7v26.5c0,0.3,0.2,0.6,0.4,0.8C46,39.9,48,43.8,48,48
	c0,7.2-5.8,13-13,13s-13-5.8-13-13C22,43.7,24.1,39.7,27.6,37.3z"/>
<path d="M35,55c3.9,0,7-3.1,7-7c0-3.5-2.6-6.4-6-6.9V16c0-0.6-0.4-1-1-1s-1,0.4-1,1v25.1c-3.4,0.5-6,3.4-6,6.9
	C28,51.9,31.1,55,35,55z M35,43c2.8,0,5,2.2,5,5s-2.2,5-5,5s-5-2.2-5-5S32.2,43,35,43z"/>
</svg>
