<?xml version="1.0" encoding="utf-8"?>
<!-- Generator: Adobe Illustrator 19.1.0, SVG Export Plug-In . SVG Version: 6.00 Build 0)  -->
<!DOCTYPE svg PUBLIC "-//W3C//DTD SVG 1.1//EN" "http://www.w3.org/Graphics/SVG/1.1/DTD/svg11.dtd">
<svg version="1.1" id="Layer_2" xmlns="http://www.w3.org/2000/svg" xmlns:xlink="http://www.w3.org/1999/xlink" x="0px" y="0px"
	 width="64px" height="64px" viewBox="0 0 64 64" enable-background="new 0 0 64 64" xml:space="preserve">
<path d="M32,1C14.9,1,1,14.9,1,32s13.9,31,31,31s31-13.9,31-31S49.1,1,32,1z M32,61C16,61,3,48,3,32S16,3,32,3s29,13,29,29
	S48,61,32,61z"/>
<path d="M46.3,27l-26-8c-0.4-0.1-0.7,0-1,0.2c-0.3,0.3-0.4,0.6-0.2,1l8,26c0.1,0.4,0.5,0.7,0.9,0.7c0,0,0.1,0,0.1,0
	c0.4,0,0.7-0.2,0.9-0.6l5.9-11.7l11.7-5.9c0.4-0.2,0.6-0.6,0.5-1C47,27.5,46.7,27.2,46.3,27z M33.6,33.1c-0.2,0.1-0.4,0.3-0.4,0.4
	l-4.9,9.8l-6.7-21.8l21.8,6.7L33.6,33.1z"/>
</svg>
