<?xml version="1.0" encoding="utf-8"?>
<!-- Generator: Adobe Illustrator 19.1.0, SVG Export Plug-In . SVG Version: 6.00 Build 0)  -->
<!DOCTYPE svg PUBLIC "-//W3C//DTD SVG 1.1//EN" "http://www.w3.org/Graphics/SVG/1.1/DTD/svg11.dtd">
<svg version="1.1" id="Layer_2" xmlns="http://www.w3.org/2000/svg" xmlns:xlink="http://www.w3.org/1999/xlink" x="0px" y="0px"
	 width="64px" height="64px" viewBox="0 0 64 64" enable-background="new 0 0 64 64" xml:space="preserve">
<path d="M10,34h14.8L21,56.8c-0.1,0.4,0.2,0.9,0.6,1.1C21.7,58,21.9,58,22,58c0.3,0,0.6-0.1,0.7-0.3l32-36c0.3-0.3,0.3-0.7,0.2-1.1
	S54.4,20,54,20H37.2L41,3.2c0.1-0.3,0-0.6-0.2-0.8C40.6,2.1,40.3,2,40,2H18c-0.5,0-0.8,0.3-1,0.7l-8,30C9,33,9,33.4,9.2,33.6
	C9.4,33.9,9.7,34,10,34z M18.8,4h20L35,20.8c-0.1,0.3,0,0.6,0.2,0.8c0.2,0.2,0.5,0.4,0.8,0.4h15.8L23.6,53.7L27,33.2
	c0-0.3,0-0.6-0.2-0.8C26.6,32.1,26.3,32,26,32H11.3L18.8,4z"/>
</svg>
