<?xml version="1.0" encoding="utf-8"?>
<!-- Generator: Adobe Illustrator 19.1.0, SVG Export Plug-In . SVG Version: 6.00 Build 0)  -->
<!DOCTYPE svg PUBLIC "-//W3C//DTD SVG 1.1//EN" "http://www.w3.org/Graphics/SVG/1.1/DTD/svg11.dtd">
<svg version="1.1" id="Layer_2" xmlns="http://www.w3.org/2000/svg" xmlns:xlink="http://www.w3.org/1999/xlink" x="0px" y="0px"
	 width="64px" height="64px" viewBox="0 0 64 64" enable-background="new 0 0 64 64" xml:space="preserve">
<path d="M44,3c-7.9,0-14.9,4.9-17.7,12.1c-0.8-0.1-1.6-0.1-2.5-0.1C11.2,15,1,25.3,1,38s10.2,23,22.8,23h24.5
	C56.6,61,63,54.5,63,46.2c0-4.6-2-8.6-5.1-11.3c3.3-3.5,5.1-8.1,5.1-13C63,11.5,54.5,3,44,3z M61,46.2C61,53.4,55.4,59,48.4,59H23.8
	C12.3,59,3,49.6,3,38s9.3-21,20.8-21c9.8,0,18.2,6.7,20.3,16.3c0.1,0.3,0.2,0.5,0.5,0.6c0.2,0.1,0.5,0.2,0.8,0.1
	c1.1-0.3,2.1-0.5,3-0.5C55.4,33.5,61,39.1,61,46.2z M48.4,31.5c-0.9,0-1.7,0.2-2.5,0.3c-2.3-8.5-9.1-14.7-17.5-16.4
	C30.9,9.2,37.1,5,44,5c9.4,0,17,7.6,17,17c0,4.4-1.7,8.6-4.8,11.8C54,32.3,51.3,31.5,48.4,31.5z"/>
</svg>
