<?xml version="1.0" encoding="utf-8"?>
<!-- Generator: Adobe Illustrator 19.1.0, SVG Export Plug-In . SVG Version: 6.00 Build 0)  -->
<!DOCTYPE svg PUBLIC "-//W3C//DTD SVG 1.1//EN" "http://www.w3.org/Graphics/SVG/1.1/DTD/svg11.dtd">
<svg version="1.1" id="Layer_2" xmlns="http://www.w3.org/2000/svg" xmlns:xlink="http://www.w3.org/1999/xlink" x="0px" y="0px"
	 width="64px" height="64px" viewBox="0 0 64 64" enable-background="new 0 0 64 64" xml:space="preserve">
<path d="M51,44.5c0-11-17.6-28.5-18.3-29.2c-0.4-0.4-1-0.4-1.4,0C30.6,16,13,33.5,13,44.5C13,56.1,22.7,63,32,63S51,56.1,51,44.5z
	 M32,61c-11,0-17-8.5-17-16.5c0-9,13.7-23.7,17-27.1c3.3,3.4,17,18,17,27.1C49,52.5,43,61,32,61z"/>
<path d="M54.7,3.3c-0.4-0.4-1-0.4-1.4,0C52.5,4.1,45,11.4,45,16.4c0,5.4,4.6,8.6,9,8.6s9-3.2,9-8.6C63,11.4,55.5,4.1,54.7,3.3z
	 M54,23c-3.4,0-7-2.3-7-6.6c0-3.1,4.5-8.5,7-11c2.5,2.5,7,7.8,7,11C61,20.7,57.4,23,54,23z"/>
<path d="M1,16.4c0,5.4,4.6,8.6,9,8.6s9-3.2,9-8.6c0-4.9-7.5-12.3-8.3-13.1c-0.4-0.4-1-0.4-1.4,0C8.5,4.1,1,11.4,1,16.4z M10,5.4
	c2.5,2.5,7,7.8,7,11c0,4.3-3.6,6.6-7,6.6s-7-2.3-7-6.6C3,13.2,7.5,7.9,10,5.4z"/>
</svg>
