<?xml version="1.0" encoding="utf-8"?>
<!-- Generator: Adobe Illustrator 19.1.0, SVG Export Plug-In . SVG Version: 6.00 Build 0)  -->
<!DOCTYPE svg PUBLIC "-//W3C//DTD SVG 1.1//EN" "http://www.w3.org/Graphics/SVG/1.1/DTD/svg11.dtd">
<svg version="1.1" id="Layer_2" xmlns="http://www.w3.org/2000/svg" xmlns:xlink="http://www.w3.org/1999/xlink" x="0px" y="0px"
	 width="64px" height="64px" viewBox="0 0 64 64" enable-background="new 0 0 64 64" xml:space="preserve">
<path d="M32,1C14.9,1,1,14.9,1,32c0,17.1,13.9,31,31,31s31-13.9,31-31C63,14.9,49.1,1,32,1z M3,32C3,16,16,3,32,3
	c1.6,0,3.1,0.1,4.6,0.4C25.1,8.1,17.4,19.4,17.4,32c0,12.6,7.8,23.9,19.2,28.6c-1.5,0.2-3,0.4-4.6,0.4C16,61,3,48,3,32z M40.2,59.8
	c-12.3-3.6-20.9-15-20.9-27.8c0-12.8,8.6-24.2,20.9-27.8C52.2,7.8,61,18.9,61,32C61,45.1,52.2,56.2,40.2,59.8z"/>
</svg>
