<?xml version="1.0" encoding="utf-8"?>
<!-- Generator: Adobe Illustrator 19.1.0, SVG Export Plug-In . SVG Version: 6.00 Build 0)  -->
<!DOCTYPE svg PUBLIC "-//W3C//DTD SVG 1.1//EN" "http://www.w3.org/Graphics/SVG/1.1/DTD/svg11.dtd">
<svg version="1.1" id="Layer_2" xmlns="http://www.w3.org/2000/svg" xmlns:xlink="http://www.w3.org/1999/xlink" x="0px" y="0px"
	 width="64px" height="64px" viewBox="0 0 64 64" enable-background="new 0 0 64 64" xml:space="preserve">
<path d="M1,46c0,0.6,0.4,1,1,1h20c0.6,0,1-0.4,1-1s-0.4-1-1-1H2C1.4,45,1,45.4,1,46z"/>
<path d="M32,39c0.6,0,1-0.4,1-1s-0.4-1-1-1H12c-0.6,0-1,0.4-1,1s0.4,1,1,1H32z"/>
<path d="M11,54c0,0.6,0.4,1,1,1h20c0.6,0,1-0.4,1-1s-0.4-1-1-1H12C11.4,53,11,53.4,11,54z"/>
<path d="M52.9,23.1C51.5,12.7,42.6,5,32,5c-9,0-17,5.7-20,14.3C5.7,20.7,1,26.5,1,33c0,0.4,0,0.7,0,1.1c0,0.6,0.5,1,1.1,0.9
	c0.6,0,1-0.5,0.9-1.1c0-0.3,0-0.6,0-0.9c0-5.8,4.3-10.9,10-11.8c0.4-0.1,0.7-0.3,0.8-0.7C16.3,12.4,23.6,7,32,7
	c9.9,0,18,7.4,19,17.1c0,0.5,0.4,0.8,0.9,0.9c5.2,0.6,9.1,4.9,9.1,10c0,5.1-3.9,9.4-9.1,10H32c-0.6,0-1,0.4-1,1s0.4,1,1,1h20
	c0,0,0.1,0,0.1,0C58.3,46.3,63,41.2,63,35C63,29.1,58.7,24.1,52.9,23.1z"/>
</svg>
