<?xml version="1.0" encoding="utf-8"?>
<!-- Generator: Adobe Illustrator 19.1.0, SVG Export Plug-In . SVG Version: 6.00 Build 0)  -->
<!DOCTYPE svg PUBLIC "-//W3C//DTD SVG 1.1//EN" "http://www.w3.org/Graphics/SVG/1.1/DTD/svg11.dtd">
<svg version="1.1" id="Layer_2" xmlns="http://www.w3.org/2000/svg" xmlns:xlink="http://www.w3.org/1999/xlink" x="0px" y="0px"
	 width="64px" height="64px" viewBox="0 0 64 64" enable-background="new 0 0 64 64" xml:space="preserve">
<path d="M34.5,39.1c-0.5-0.3-1.1-0.1-1.4,0.3l-6,10c-0.2,0.3-0.2,0.7,0,1c0.2,0.3,0.5,0.5,0.9,0.5h6.2l-5.1,8.5
	c-0.3,0.5-0.1,1.1,0.3,1.4C29.6,61,29.8,61,30,61c0.3,0,0.7-0.2,0.9-0.5l6-10c0.2-0.3,0.2-0.7,0-1C36.7,49.2,36.4,49,36,49h-6.2
	l5.1-8.5C35.1,40,35,39.4,34.5,39.1z"/>
<path d="M53.8,27.5c0.8-1.7,1.2-3.6,1.2-5.5c0-7.2-5.8-13-13-13c-6.2,0-11.4,4.2-12.7,10.1c-5.5,0.5-10.4,3.7-12.9,8.7
	c-1.1-0.4-2.3-0.5-3.5-0.5C6.3,27.2,1,32.5,1,39.1S6.3,51,12.9,51H18c0.6,0,1-0.4,1-1s-0.4-1-1-1h-5.1C7.4,49,3,44.6,3,39.1
	s4.4-9.9,9.9-9.9c1.2,0,2.4,0.2,3.6,0.7c0.5,0.2,1.1,0,1.3-0.5c2.2-5.1,7.3-8.4,12.8-8.4c6,0,11.3,3.8,13.2,9.5
	c0.1,0.3,0.3,0.5,0.6,0.6c0.3,0.1,0.6,0,0.9-0.1c1.7-1.2,3.7-1.8,5.7-1.8c5.5,0,9.9,4.4,9.9,9.9S56.6,49,51.1,49H46
	c-0.6,0-1,0.4-1,1s0.4,1,1,1h5.1C57.7,51,63,45.7,63,39.1C63,33.4,59.1,28.7,53.8,27.5z M45.3,28.7c-2.4-5.6-7.8-9.4-14-9.7
	c1.3-4.7,5.6-8,10.7-8c6.1,0,11,4.9,11,11c0,1.8-0.5,3.6-1.3,5.2c-0.2,0-0.4,0-0.6,0C49.1,27.2,47.1,27.7,45.3,28.7z"/>
<path d="M43,4V2c0-0.6-0.4-1-1-1s-1,0.4-1,1v2c0,0.6,0.4,1,1,1S43,4.6,43,4z"/>
<path d="M55.4,10l1.4-1.4c0.4-0.4,0.4-1,0-1.4c-0.4-0.4-1-0.4-1.4,0L54,8.6c-0.4,0.4-0.4,1,0,1.4c0.2,0.2,0.5,0.3,0.7,0.3
	S55.2,10.2,55.4,10z"/>
<path d="M62,21h-2c-0.6,0-1,0.4-1,1s0.4,1,1,1h2c0.6,0,1-0.4,1-1S62.6,21,62,21z"/>
<path d="M27.1,7.2c-0.4,0.4-0.4,1,0,1.4l1.4,1.4c0.2,0.2,0.5,0.3,0.7,0.3s0.5-0.1,0.7-0.3c0.4-0.4,0.4-1,0-1.4l-1.4-1.4
	C28.2,6.8,27.5,6.8,27.1,7.2z"/>
</svg>
