<?xml version="1.0" encoding="utf-8"?>
<!-- Generator: Adobe Illustrator 19.1.0, SVG Export Plug-In . SVG Version: 6.00 Build 0)  -->
<!DOCTYPE svg PUBLIC "-//W3C//DTD SVG 1.1//EN" "http://www.w3.org/Graphics/SVG/1.1/DTD/svg11.dtd">
<svg version="1.1" id="Layer_2" xmlns="http://www.w3.org/2000/svg" xmlns:xlink="http://www.w3.org/1999/xlink" x="0px" y="0px"
	 width="64px" height="64px" viewBox="0 0 64 64" enable-background="new 0 0 64 64" xml:space="preserve">
<path d="M32,15C14.9,15,1,28.9,1,46c0,0.6,0.4,1,1,1s1-0.4,1-1c0-16,13-29,29-29s29,13,29,29c0,0.6,0.4,1,1,1s1-0.4,1-1
	C63,28.9,49.1,15,32,15z"/>
<path d="M32,25.9c-11.1,0-20.1,9-20.1,20.1c0,0.6,0.4,1,1,1s1-0.4,1-1c0-10,8.1-18.1,18.1-18.1S50.1,36,50.1,46c0,0.6,0.4,1,1,1
	s1-0.4,1-1C52.1,34.9,43.1,25.9,32,25.9z"/>
<path d="M24.8,46c0-4,3.2-7.2,7.2-7.2s7.2,3.2,7.2,7.2c0,0.6,0.4,1,1,1s1-0.4,1-1c0-5.1-4.1-9.2-9.2-9.2s-9.2,4.1-9.2,9.2
	c0,0.6,0.4,1,1,1S24.8,46.6,24.8,46z"/>
</svg>
