<?xml version="1.0" encoding="utf-8"?>
<!-- Generator: Adobe Illustrator 19.1.0, SVG Export Plug-In . SVG Version: 6.00 Build 0)  -->
<!DOCTYPE svg PUBLIC "-//W3C//DTD SVG 1.1//EN" "http://www.w3.org/Graphics/SVG/1.1/DTD/svg11.dtd">
<svg version="1.1" id="Layer_2" xmlns="http://www.w3.org/2000/svg" xmlns:xlink="http://www.w3.org/1999/xlink" x="0px" y="0px"
	 width="64px" height="64px" viewBox="0 0 64 64" enable-background="new 0 0 64 64" xml:space="preserve">
<path d="M5,10c0,3.9,3.1,7,7,7s7-3.1,7-7s-3.1-7-7-7S5,6.1,5,10z M17,10c0,2.8-2.2,5-5,5s-5-2.2-5-5s2.2-5,5-5S17,7.2,17,10z"/>
<path d="M58,13c0.6,0,1-0.4,1-1s-0.4-1-1-1H28c-0.6,0-1,0.4-1,1v50c0,0.6,0.4,1,1,1s1-0.4,1-1V35h25c0.6,0,1-0.4,1-1s-0.4-1-1-1H29
	V13H58z"/>
</svg>
