<?xml version="1.0" encoding="utf-8"?>
<!-- Generator: Adobe Illustrator 19.1.0, SVG Export Plug-In . SVG Version: 6.00 Build 0)  -->
<!DOCTYPE svg PUBLIC "-//W3C//DTD SVG 1.1//EN" "http://www.w3.org/Graphics/SVG/1.1/DTD/svg11.dtd">
<svg version="1.1" id="Layer_2" xmlns="http://www.w3.org/2000/svg" xmlns:xlink="http://www.w3.org/1999/xlink" x="0px" y="0px"
	 width="64px" height="64px" viewBox="0 0 64 64" enable-background="new 0 0 64 64" xml:space="preserve">
<path d="M32,51c0.6,0,1-0.4,1-1v-2c0-0.6-0.4-1-1-1s-1,0.4-1,1v2C31,50.6,31.4,51,32,51z"/>
<path d="M22,45c0.6,0,1-0.4,1-1v-2c0-0.6-0.4-1-1-1s-1,0.4-1,1v2C21,44.6,21.4,45,22,45z"/>
<path d="M42,45c0.6,0,1-0.4,1-1v-2c0-0.6-0.4-1-1-1s-1,0.4-1,1v2C41,44.6,41.4,45,42,45z"/>
<path d="M31,60c0,0.6,0.4,1,1,1s1-0.4,1-1v-2c0-0.6-0.4-1-1-1s-1,0.4-1,1V60z"/>
<path d="M21,54c0,0.6,0.4,1,1,1s1-0.4,1-1v-2c0-0.6-0.4-1-1-1s-1,0.4-1,1V54z"/>
<path d="M41,54c0,0.6,0.4,1,1,1s1-0.4,1-1v-2c0-0.6-0.4-1-1-1s-1,0.4-1,1V54z"/>
<path d="M52.9,21.1C51.5,10.7,42.6,3,32,3c-9,0-17,5.7-20,14.3C5.7,18.7,1,24.5,1,31c0,7.3,5.6,13.3,12.9,14c0.6,0.1,1-0.4,1.1-0.9
	c0-0.5-0.4-1-0.9-1.1C7.8,42.4,3,37.3,3,31c0-5.8,4.3-10.9,10-11.8c0.4-0.1,0.7-0.3,0.8-0.7C16.3,10.4,23.6,5,32,5
	c9.9,0,18,7.4,19,17.1c0,0.5,0.4,0.8,0.9,0.9c5.2,0.6,9.1,4.9,9.1,10c0,5.1-3.9,9.5-9.1,10c-0.5,0.1-0.9,0.6-0.9,1.1
	c0.1,0.5,0.5,0.9,1,0.9c0,0,0.1,0,0.1,0C58.3,44.3,63,39.2,63,33C63,27.1,58.7,22.1,52.9,21.1z"/>
</svg>
