<?xml version="1.0" encoding="utf-8"?>
<!-- Generator: Adobe Illustrator 19.1.0, SVG Export Plug-In . SVG Version: 6.00 Build 0)  -->
<!DOCTYPE svg PUBLIC "-//W3C//DTD SVG 1.1//EN" "http://www.w3.org/Graphics/SVG/1.1/DTD/svg11.dtd">
<svg version="1.1" id="Layer_2" xmlns="http://www.w3.org/2000/svg" xmlns:xlink="http://www.w3.org/1999/xlink" x="0px" y="0px"
	 width="64px" height="64px" viewBox="0 0 64 64" enable-background="new 0 0 64 64" xml:space="preserve">
<path d="M21,39c9.9,0,18-8.1,18-18S30.9,3,21,3S3,11.1,3,21S11.1,39,21,39z M21,5c8.8,0,16,7.2,16,16s-7.2,16-16,16S5,29.8,5,21
	S12.2,5,21,5z"/>
<path d="M48,35c-7.2,0-13,5.8-13,13s5.8,13,13,13s13-5.8,13-13S55.2,35,48,35z M48,59c-6.1,0-11-4.9-11-11s4.9-11,11-11
	s11,4.9,11,11S54.1,59,48,59z"/>
<path d="M54,27c3.9,0,7-3.1,7-7s-3.1-7-7-7s-7,3.1-7,7S50.1,27,54,27z M54,15c2.8,0,5,2.2,5,5s-2.2,5-5,5s-5-2.2-5-5S51.2,15,54,15z
	"/>
</svg>
