<?xml version="1.0" encoding="utf-8"?>
<!-- Generator: Adobe Illustrator 19.1.0, SVG Export Plug-In . SVG Version: 6.00 Build 0)  -->
<!DOCTYPE svg PUBLIC "-//W3C//DTD SVG 1.1//EN" "http://www.w3.org/Graphics/SVG/1.1/DTD/svg11.dtd">
<svg version="1.1" id="Layer_1" xmlns="http://www.w3.org/2000/svg" xmlns:xlink="http://www.w3.org/1999/xlink" x="0px" y="0px"
	 width="48px" height="48px" viewBox="0 0 48 48" enable-background="new 0 0 48 48" xml:space="preserve">
<path id="color_64_" d="M32.7,11.3l-6-6C26.9,4.9,27,4.5,27,4c0-1.7-1.3-3-3-3s-3,1.3-3,3c0,0.5,0.1,0.9,0.3,1.3l-6,6
	c-0.4,0.4-0.4,1,0,1.4c0.2,0.2,0.5,0.3,0.7,0.3s0.5-0.1,0.7-0.3l6-6C23.1,6.9,23.5,7,24,7s0.9-0.1,1.3-0.3l6,6
	c0.2,0.2,0.5,0.3,0.7,0.3s0.5-0.1,0.7-0.3C33.1,12.3,33.1,11.7,32.7,11.3z"/>
<polygon points="8,19.4 1,12.4 1,45.6 8,38.6 "/>
<polygon points="40,38.6 47,45.6 47,12.4 40,19.4 "/>
<path d="M38.6,40H35v-3c0-0.6-0.4-1-1-1H24c-0.6,0-1,0.4-1,1v3H9.4l-7,7h43.2L38.6,40z"/>
<polygon points="2.4,11 9.4,18 38.6,18 45.6,11 "/>
</svg>
