<?xml version="1.0" encoding="utf-8"?>
<!-- Generator: Adobe Illustrator 19.1.0, SVG Export Plug-In . SVG Version: 6.00 Build 0)  -->
<!DOCTYPE svg PUBLIC "-//W3C//DTD SVG 1.1//EN" "http://www.w3.org/Graphics/SVG/1.1/DTD/svg11.dtd">
<svg version="1.1" id="Layer_1" xmlns="http://www.w3.org/2000/svg" xmlns:xlink="http://www.w3.org/1999/xlink" x="0px" y="0px"
	 width="48px" height="48px" viewBox="0 0 48 48" enable-background="new 0 0 48 48" xml:space="preserve">
<path id="color_42_" d="M16,39c-0.6,0-1,0.4-1,1s0.4,1,1,1h23v-2H16z"/>
<path d="M36,1h-3v15c0,0.4-0.2,0.7-0.5,0.9C32.3,17,32.2,17,32,17c-0.2,0-0.4-0.1-0.6-0.2L26,13.2l-5.4,3.6c-0.3,0.2-0.7,0.2-1,0
	C19.2,16.7,19,16.4,19,16V1H8C5.2,1,3,3.2,3,6v34c0,3.9,3.1,7,7,7h30c0.6,0,1-0.4,1-1V6C41,3.2,38.8,1,36,1z M9,10c0-0.6,0.4-1,1-1
	s1,0.4,1,1v23h-1c-0.3,0-0.7,0-1,0.1V10z M39,45H10c-2.8,0-5-2.2-5-5s2.2-5,5-5h29V45z"/>
</svg>
