<?xml version="1.0" encoding="utf-8"?>
<!-- Generator: Adobe Illustrator 19.1.0, SVG Export Plug-In . SVG Version: 6.00 Build 0)  -->
<!DOCTYPE svg PUBLIC "-//W3C//DTD SVG 1.1//EN" "http://www.w3.org/Graphics/SVG/1.1/DTD/svg11.dtd">
<svg version="1.1" id="Layer_1" xmlns="http://www.w3.org/2000/svg" xmlns:xlink="http://www.w3.org/1999/xlink" x="0px" y="0px"
	 width="48px" height="48px" viewBox="0 0 48 48" enable-background="new 0 0 48 48" xml:space="preserve">
<path id="color_18_" d="M12,9h24c0.6,0,1-0.4,1-1V2c0-0.6-0.4-1-1-1H12c-0.6,0-1,0.4-1,1v6C11,8.6,11.4,9,12,9z"/>
<path id="color_17_" d="M36,39H12c-0.6,0-1,0.4-1,1v6c0,0.6,0.4,1,1,1h24c0.6,0,1-0.4,1-1v-6C37,39.4,36.6,39,36,39z"/>
<path d="M38,11H10c-0.6,0-1,0.4-1,1v24c0,0.6,0.4,1,1,1h28c0.6,0,1-0.4,1-1V12C39,11.4,38.6,11,38,11z M15,31c0,0.6-0.4,1-1,1
	s-1-0.4-1-1v-6c0-0.6,0.4-1,1-1s1,0.4,1,1V31z"/>
</svg>
