<?xml version="1.0" encoding="utf-8"?>
<!-- Generator: Adobe Illustrator 19.1.0, SVG Export Plug-In . SVG Version: 6.00 Build 0)  -->
<!DOCTYPE svg PUBLIC "-//W3C//DTD SVG 1.1//EN" "http://www.w3.org/Graphics/SVG/1.1/DTD/svg11.dtd">
<svg version="1.1" id="Layer_1" xmlns="http://www.w3.org/2000/svg" xmlns:xlink="http://www.w3.org/1999/xlink" x="0px" y="0px"
	 width="48px" height="48px" viewBox="0 0 48 48" enable-background="new 0 0 48 48" xml:space="preserve">
<path id="color_37_" d="M15,33H3v9c0,0.6,0.4,1,1,1h10c0.6,0,1-0.4,1-1V33z"/>
<path id="color_36_" d="M29,33H17v9c0,0.6,0.4,1,1,1h10c0.6,0,1-0.4,1-1V33z"/>
<path d="M14,5H4C3.4,5,3,5.4,3,6v25h12V6C15,5.4,14.6,5,14,5z M10,22H8c-0.6,0-1-0.4-1-1s0.4-1,1-1h2c0.6,0,1,0.4,1,1S10.6,22,10,22
	z M10,17H8c-0.6,0-1-0.4-1-1s0.4-1,1-1h2c0.6,0,1,0.4,1,1S10.6,17,10,17z M10,12H8c-0.6,0-1-0.4-1-1s0.4-1,1-1h2c0.6,0,1,0.4,1,1
	S10.6,12,10,12z"/>
<path id="color_35_" d="M43.5,31.2l-11.8,2.1l1.6,8.9c0.1,0.5,0.5,0.8,1,0.8c0.1,0,0.1,0,0.2,0l9.8-1.7c0.3,0,0.5-0.2,0.6-0.4
	c0.2-0.2,0.2-0.5,0.2-0.7L43.5,31.2z"/>
<path d="M38.8,4.6c-0.1-0.5-0.6-0.9-1.2-0.8l-8.9,1.6C28.6,5.2,28.3,5,28,5H18c-0.6,0-1,0.4-1,1v25h12V18l2.4,13.4l11.8-2.1
	L38.8,4.6z M24,22h-2c-0.6,0-1-0.4-1-1s0.4-1,1-1h2c0.6,0,1,0.4,1,1S24.6,22,24,22z M24,17h-2c-0.6,0-1-0.4-1-1s0.4-1,1-1h2
	c0.6,0,1,0.4,1,1S24.6,17,24,17z M24,12h-2c-0.6,0-1-0.4-1-1s0.4-1,1-1h2c0.6,0,1,0.4,1,1S24.6,12,24,12z M31.8,11
	c-0.1-0.5,0.3-1.1,0.8-1.2l2-0.4c0.5-0.1,1.1,0.3,1.2,0.8s-0.3,1.1-0.8,1.2l-2,0.4c-0.1,0-0.1,0-0.2,0C32.3,11.8,31.9,11.4,31.8,11z
	 M32.7,15.9c-0.1-0.5,0.3-1.1,0.8-1.2l2-0.4c0.5-0.1,1.1,0.3,1.2,0.8s-0.3,1.1-0.8,1.2l-2,0.4c-0.1,0-0.1,0-0.2,0
	C33.2,16.7,32.8,16.4,32.7,15.9z M36.7,21.3l-2,0.4c-0.1,0-0.1,0-0.2,0c-0.5,0-0.9-0.3-1-0.8c-0.1-0.5,0.3-1.1,0.8-1.2l2-0.4
	c0.5-0.1,1.1,0.3,1.2,0.8C37.6,20.6,37.2,21.2,36.7,21.3z"/>
</svg>
