<?xml version="1.0" encoding="utf-8"?>
<!-- Generator: Adobe Illustrator 19.1.0, SVG Export Plug-In . SVG Version: 6.00 Build 0)  -->
<!DOCTYPE svg PUBLIC "-//W3C//DTD SVG 1.1//EN" "http://www.w3.org/Graphics/SVG/1.1/DTD/svg11.dtd">
<svg version="1.1" id="Layer_1" xmlns="http://www.w3.org/2000/svg" xmlns:xlink="http://www.w3.org/1999/xlink" x="0px" y="0px"
	 width="48px" height="48px" viewBox="0 0 48 48" enable-background="new 0 0 48 48" xml:space="preserve">
<path id="color_32_" d="M38,35c-1.8,0-3.5-0.4-5-1.2V42c0,0.3,0.2,0.7,0.5,0.9c0.3,0.2,0.7,0.2,1,0l3.6-1.8l3.6,1.8
	C41.7,43,41.8,43,42,43c0.2,0,0.4-0.1,0.5-0.1c0.3-0.2,0.5-0.5,0.5-0.9v-8.2C41.5,34.6,39.8,35,38,35z"/>
<path id="color_31_" d="M38,15c-5,0-9,4-9,9s4,9,9,9s9-4,9-9S43,15,38,15z"/>
<path d="M37,13.1V2c0-0.6-0.4-1-1-1H2C1.4,1,1,1.4,1,2v38c0,0.6,0.4,1,1,1h29v-8.5c-2.5-2.1-4-5.2-4-8.5C27,18.3,31.4,13.6,37,13.1z
	 M20,29H8c-0.6,0-1-0.4-1-1s0.4-1,1-1h12c0.6,0,1,0.4,1,1S20.6,29,20,29z M20,21H8c-0.6,0-1-0.4-1-1s0.4-1,1-1h12c0.6,0,1,0.4,1,1
	S20.6,21,20,21z M26,13H8c-0.6,0-1-0.4-1-1s0.4-1,1-1h18c0.6,0,1,0.4,1,1S26.6,13,26,13z"/>
</svg>
