<?xml version="1.0" encoding="utf-8"?>
<!-- Generator: Adobe Illustrator 19.1.0, SVG Export Plug-In . SVG Version: 6.00 Build 0)  -->
<!DOCTYPE svg PUBLIC "-//W3C//DTD SVG 1.1//EN" "http://www.w3.org/Graphics/SVG/1.1/DTD/svg11.dtd">
<svg version="1.1" id="Layer_1" xmlns="http://www.w3.org/2000/svg" xmlns:xlink="http://www.w3.org/1999/xlink" x="0px" y="0px"
	 width="48px" height="48px" viewBox="0 0 48 48" enable-background="new 0 0 48 48" xml:space="preserve">
<path id="color_41_" d="M40,1h-2v46h2c1.7,0,3-1.3,3-3V4C43,2.3,41.7,1,40,1z"/>
<path d="M23,1v11c0,0.4-0.2,0.8-0.6,0.9C22.3,13,22.1,13,22,13c-0.3,0-0.5-0.1-0.7-0.3L18,9.4l-3.3,3.3c-0.3,0.3-0.7,0.4-1.1,0.2
	C13.2,12.8,13,12.4,13,12V1H6C5.4,1,5,1.4,5,2v44c0,0.6,0.4,1,1,1h30V1H23z M30,33c0,0.6-0.4,1-1,1H12c-0.6,0-1-0.4-1-1V23
	c0-0.6,0.4-1,1-1h17c0.6,0,1,0.4,1,1V33z"/>
<path d="M26,27H15c-0.6,0-1-0.4-1-1s0.4-1,1-1h11c0.6,0,1,0.4,1,1S26.6,27,26,27z"/>
<path d="M22,31h-7c-0.6,0-1-0.4-1-1s0.4-1,1-1h7c0.6,0,1,0.4,1,1S22.6,31,22,31z"/>
</svg>
