<?xml version="1.0" encoding="utf-8"?>
<!-- Generator: Adobe Illustrator 19.1.0, SVG Export Plug-In . SVG Version: 6.00 Build 0)  -->
<!DOCTYPE svg PUBLIC "-//W3C//DTD SVG 1.1//EN" "http://www.w3.org/Graphics/SVG/1.1/DTD/svg11.dtd">
<svg version="1.1" id="Layer_1" xmlns="http://www.w3.org/2000/svg" xmlns:xlink="http://www.w3.org/1999/xlink" x="0px" y="0px"
	 width="48px" height="48px" viewBox="0 0 48 48" enable-background="new 0 0 48 48" xml:space="preserve">
<path id="color_40_" d="M36.6,13.2L24.9,4.8C24.9,4.6,25,4.3,25,4c0-1.7-1.3-3-3-3s-3,1.3-3,3c0,0.3,0.1,0.6,0.1,0.8L7.4,13.2
	c-0.4,0.3-0.6,0.9-0.2,1.4c0.3,0.4,0.9,0.6,1.4,0.2l11.7-8.4C20.8,6.8,21.4,7,22,7s1.2-0.2,1.7-0.5l11.7,8.4
	c0.2,0.1,0.4,0.2,0.6,0.2c0.3,0,0.6-0.1,0.8-0.4C37.1,14.1,37,13.5,36.6,13.2z"/>
<path d="M24,24H10c-0.6,0-1-0.4-1-1s0.4-1,1-1h14c0.6,0,1,0.4,1,1S24.6,24,24,24z"/>
<path d="M24,29H10c-0.6,0-1-0.4-1-1s0.4-1,1-1h14c0.6,0,1,0.4,1,1S24.6,29,24,29z"/>
<path d="M18,34h-8c-0.6,0-1-0.4-1-1s0.4-1,1-1h8c0.6,0,1,0.4,1,1S18.6,34,18,34z"/>
<path id="color_39_" d="M38,39c-1.8,0-3.5-0.4-5-1.2V46c0,0.3,0.2,0.7,0.5,0.9c0.3,0.2,0.7,0.2,1,0l3.6-1.8l3.6,1.8
	C41.7,47,41.8,47,42,47c0.2,0,0.4,0,0.5-0.1c0.3-0.2,0.5-0.5,0.5-0.9v-8.2C41.5,38.6,39.8,39,38,39z"/>
<path id="color_38_" d="M38,19c-5,0-9,4-9,9s4,9,9,9s9-4,9-9S43,19,38,19z"/>
<path d="M31,39H6c-0.6,0-1-0.4-1-1V18c0-0.6,0.4-1,1-1h32c1.8,0,3.5,0.4,5,1.2V14c0-0.6-0.4-1-1-1H2c-0.6,0-1,0.4-1,1v28
	c0,0.6,0.4,1,1,1h29V39z"/>
</svg>
