<?xml version="1.0" encoding="utf-8"?>
<!-- Generator: Adobe Illustrator 19.1.0, SVG Export Plug-In . SVG Version: 6.00 Build 0)  -->
<!DOCTYPE svg PUBLIC "-//W3C//DTD SVG 1.1//EN" "http://www.w3.org/Graphics/SVG/1.1/DTD/svg11.dtd">
<svg version="1.1" id="Layer_1" xmlns="http://www.w3.org/2000/svg" xmlns:xlink="http://www.w3.org/1999/xlink" x="0px" y="0px"
	 width="48px" height="48px" viewBox="0 0 48 48" enable-background="new 0 0 48 48" xml:space="preserve">
<path d="M42.7,43.3l-40-40C2.4,3,2,2.9,1.6,3.1C1.2,3.2,1,3.6,1,4v10h3c0.6,0,1,0.4,1,1s-0.4,1-1,1H1v6h3c0.6,0,1,0.4,1,1
	s-0.4,1-1,1H1v6h3c0.6,0,1,0.4,1,1s-0.4,1-1,1H1v6h3c0.6,0,1,0.4,1,1s-0.4,1-1,1H1v4c0,0.6,0.4,1,1,1h40c0.4,0,0.8-0.2,0.9-0.6
	C43.1,44,43,43.6,42.7,43.3z M22.9,36.4C22.8,36.8,22.4,37,22,37H12c-0.6,0-1-0.4-1-1V26c0-0.4,0.2-0.8,0.6-0.9
	c0.4-0.2,0.8-0.1,1.1,0.2l10,10C23,35.6,23.1,36,22.9,36.4z"/>
</svg>
