<?xml version="1.0" encoding="utf-8"?>
<!-- Generator: Adobe Illustrator 19.1.0, SVG Export Plug-In . SVG Version: 6.00 Build 0)  -->
<!DOCTYPE svg PUBLIC "-//W3C//DTD SVG 1.1//EN" "http://www.w3.org/Graphics/SVG/1.1/DTD/svg11.dtd">
<svg version="1.1" id="Layer_1" xmlns="http://www.w3.org/2000/svg" xmlns:xlink="http://www.w3.org/1999/xlink" x="0px" y="0px"
	 width="48px" height="48px" viewBox="0 0 48 48" enable-background="new 0 0 48 48" xml:space="preserve">
<path d="M42,7H6c-2.8,0-5,2.2-5,5v22c0,0.6,0.4,1,1,1h3c0,3.3,2.7,6,6,6s6-2.7,6-6h14c0,3.3,2.7,6,6,6s6-2.7,6-6h3c0.6,0,1-0.4,1-1
	V12C47,9.2,44.8,7,42,7z M11,39c-2.2,0-4-1.8-4-4s1.8-4,4-4s4,1.8,4,4S13.2,39,11,39z M29,22c0,0.6-0.4,1-1,1H8c-0.6,0-1-0.4-1-1v-8
	c0-0.6,0.4-1,1-1h20c0.6,0,1,0.4,1,1V22z M37,39c-2.2,0-4-1.8-4-4s1.8-4,4-4s4,1.8,4,4S39.2,39,37,39z M41,22c0,0.6-0.4,1-1,1h-6
	c-0.6,0-1-0.4-1-1v-8c0-0.6,0.4-1,1-1h6c0.6,0,1,0.4,1,1V22z"/>
</svg>
