<?xml version="1.0" encoding="utf-8"?>
<!-- Generator: Adobe Illustrator 19.1.0, SVG Export Plug-In . SVG Version: 6.00 Build 0)  -->
<!DOCTYPE svg PUBLIC "-//W3C//DTD SVG 1.1//EN" "http://www.w3.org/Graphics/SVG/1.1/DTD/svg11.dtd">
<svg version="1.1" id="Layer_1" xmlns="http://www.w3.org/2000/svg" xmlns:xlink="http://www.w3.org/1999/xlink" x="0px" y="0px"
	 width="48px" height="48px" viewBox="0 0 48 48" enable-background="new 0 0 48 48" xml:space="preserve">
<path d="M44,1H4C3.4,1,3,1.4,3,2v44c0,0.6,0.4,1,1,1h40c0.6,0,1-0.4,1-1V2C45,1.4,44.6,1,44,1z M10,36c-1.1,0-2-0.9-2-2
	c0-1.1,0.9-2,2-2s2,0.9,2,2C12,35.1,11.1,36,10,36z M10,26c-1.1,0-2-0.9-2-2c0-1.1,0.9-2,2-2s2,0.9,2,2C12,25.1,11.1,26,10,26z
	 M10,16c-1.1,0-2-0.9-2-2c0-1.1,0.9-2,2-2s2,0.9,2,2C12,15.1,11.1,16,10,16z M40,31c0,0.6-0.4,1-1,1H18c-0.6,0-1-0.4-1-1V17
	c0-0.6,0.4-1,1-1h21c0.6,0,1,0.4,1,1V31z"/>
<path id="color_11_" d="M35,23H22c-0.6,0-1-0.4-1-1s0.4-1,1-1h13c0.6,0,1,0.4,1,1S35.6,23,35,23z"/>
<path id="color_10_" d="M30,27h-8c-0.6,0-1-0.4-1-1s0.4-1,1-1h8c0.6,0,1,0.4,1,1S30.6,27,30,27z"/>
</svg>
