<?xml version="1.0" encoding="utf-8"?>
<!-- Generator: Adobe Illustrator 19.1.0, SVG Export Plug-In . SVG Version: 6.00 Build 0)  -->
<!DOCTYPE svg PUBLIC "-//W3C//DTD SVG 1.1//EN" "http://www.w3.org/Graphics/SVG/1.1/DTD/svg11.dtd">
<svg version="1.1" id="Layer_1" xmlns="http://www.w3.org/2000/svg" xmlns:xlink="http://www.w3.org/1999/xlink" x="0px" y="0px"
	 width="48px" height="48px" viewBox="0 0 48 48" enable-background="new 0 0 48 48" xml:space="preserve">
<path d="M44.7,15.3L41.4,12L28.7,24.7C28.5,24.9,28.3,25,28,25s-0.5-0.1-0.7-0.3l-4-4c-0.4-0.4-0.4-1,0-1.4L36,6.6l-3.3-3.3
	c-0.4-0.4-1-0.4-1.4,0l-24,24c-0.4,0.4-0.4,1,0,1.4l12,12c0.2,0.2,0.5,0.3,0.7,0.3s0.5-0.1,0.7-0.3l24-24
	C45.1,16.3,45.1,15.7,44.7,15.3z"/>
<path id="color_14_" d="M9.2,33.4l-5.9,5.9C3,39.5,2.9,39.9,3,40.2c0.1,0.3,0.3,0.6,0.7,0.7l6,2C9.8,43,9.9,43,10,43
	c0.3,0,0.5-0.1,0.7-0.3l3.9-3.9L9.2,33.4z"/>
</svg>
