<?xml version="1.0" encoding="utf-8"?>
<!-- Generator: Adobe Illustrator 19.1.0, SVG Export Plug-In . SVG Version: 6.00 Build 0)  -->
<!DOCTYPE svg PUBLIC "-//W3C//DTD SVG 1.1//EN" "http://www.w3.org/Graphics/SVG/1.1/DTD/svg11.dtd">
<svg version="1.1" id="Layer_1" xmlns="http://www.w3.org/2000/svg" xmlns:xlink="http://www.w3.org/1999/xlink" x="0px" y="0px"
	 width="48px" height="48px" viewBox="0 0 48 48" enable-background="new 0 0 48 48" xml:space="preserve">
<path d="M6,32c0.6,0,1-0.4,1-1V9h30.6l-8.3,8.3c-0.4,0.4-0.4,1,0,1.4c0.2,0.2,0.5,0.3,0.7,0.3s0.5-0.1,0.7-0.3L40.4,9H41v22
	c0,0.6,0.4,1,1,1s1-0.4,1-1V8c0-0.4-0.3-0.8-0.7-0.9l4.4-4.4c0.4-0.4,0.4-1,0-1.4s-1-0.4-1.4,0L39.6,7H27V4c0-0.6-0.4-1-1-1h-4
	c-0.6,0-1,0.4-1,1v3H6C5.4,7,5,7.4,5,8v23C5,31.6,5.4,32,6,32z"/>
<path d="M46,34H2c-0.6,0-1,0.4-1,1v1c0,0.6,0.4,1,1,1h15.9l-6.7,8.4c-0.3,0.4-0.3,1.1,0.2,1.4c0.2,0.1,0.4,0.2,0.6,0.2
	c0.3,0,0.6-0.1,0.8-0.4l7.7-9.6H23v7c0,0.6,0.4,1,1,1s1-0.4,1-1v-7h2.5l7.7,9.6c0.2,0.2,0.5,0.4,0.8,0.4c0.2,0,0.4-0.1,0.6-0.2
	c0.4-0.3,0.5-1,0.2-1.4L30.1,37H46c0.6,0,1-0.4,1-1v-1C47,34.4,46.6,34,46,34z"/>
<path id="color_58_" d="M14,19h8c0.6,0,1-0.4,1-1s-0.4-1-1-1h-8c-0.6,0-1,0.4-1,1S13.4,19,14,19z"/>
<path id="color_57_" d="M14,27h20c0.6,0,1-0.4,1-1s-0.4-1-1-1H14c-0.6,0-1,0.4-1,1S13.4,27,14,27z"/>
</svg>
