<?xml version="1.0" encoding="utf-8"?>
<!-- Generator: Adobe Illustrator 19.1.0, SVG Export Plug-In . SVG Version: 6.00 Build 0)  -->
<!DOCTYPE svg PUBLIC "-//W3C//DTD SVG 1.1//EN" "http://www.w3.org/Graphics/SVG/1.1/DTD/svg11.dtd">
<svg version="1.1" id="Layer_1" xmlns="http://www.w3.org/2000/svg" xmlns:xlink="http://www.w3.org/1999/xlink" x="0px" y="0px"
	 width="48px" height="48px" viewBox="0 0 48 48" enable-background="new 0 0 48 48" xml:space="preserve">
<path d="M40,5h-7V2c0-0.6-0.4-1-1-1s-1,0.4-1,1v3h-6V2c0-0.6-0.4-1-1-1s-1,0.4-1,1v3h-6V2c0-0.6-0.4-1-1-1s-1,0.4-1,1v3H8
	C7.4,5,7,5.4,7,6v40c0,0.6,0.4,1,1,1h32c0.6,0,1-0.4,1-1V6C41,5.4,40.6,5,40,5z M34,33c0,0.6-0.4,1-1,1H15c-0.6,0-1-0.4-1-1V19
	c0-0.6,0.4-1,1-1h18c0.6,0,1,0.4,1,1V33z"/>
<path id="color_13_" d="M29,25H19c-0.6,0-1-0.4-1-1s0.4-1,1-1h10c0.6,0,1,0.4,1,1S29.6,25,29,25z"/>
<path id="color_12_" d="M24,29h-5c-0.6,0-1-0.4-1-1s0.4-1,1-1h5c0.6,0,1,0.4,1,1S24.6,29,24,29z"/>
</svg>
