<?xml version="1.0" encoding="utf-8"?>
<!-- Generator: Adobe Illustrator 19.1.0, SVG Export Plug-In . SVG Version: 6.00 Build 0)  -->
<!DOCTYPE svg PUBLIC "-//W3C//DTD SVG 1.1//EN" "http://www.w3.org/Graphics/SVG/1.1/DTD/svg11.dtd">
<svg version="1.1" id="Layer_1" xmlns="http://www.w3.org/2000/svg" xmlns:xlink="http://www.w3.org/1999/xlink" x="0px" y="0px"
	 width="48px" height="48px" viewBox="0 0 48 48" enable-background="new 0 0 48 48" xml:space="preserve">
<path d="M45.7,12.3l-10-10c-0.4-0.4-1-0.4-1.4,0L29,7.6l2.7,2.7c0.4,0.4,0.4,1,0,1.4C31.5,11.9,31.3,12,31,12s-0.5-0.1-0.7-0.3
	L27.6,9L24,12.6l1.7,1.7c0.4,0.4,0.4,1,0,1.4C25.5,15.9,25.3,16,25,16s-0.5-0.1-0.7-0.3L22.6,14L19,17.6l3.7,3.7
	c0.4,0.4,0.4,1,0,1.4C22.5,22.9,22.3,23,22,23s-0.5-0.1-0.7-0.3L17.6,19L14,22.6l1.7,1.7c0.4,0.4,0.4,1,0,1.4
	C15.5,25.9,15.3,26,15,26s-0.5-0.1-0.7-0.3L12.6,24L9,27.6l3.7,3.7c0.4,0.4,0.4,1,0,1.4C12.5,32.9,12.3,33,12,33s-0.5-0.1-0.7-0.3
	L7.6,29l-5.3,5.3c-0.4,0.4-0.4,1,0,1.4l10,10c0.2,0.2,0.5,0.3,0.7,0.3s0.5-0.1,0.7-0.3l32-32C46.1,13.3,46.1,12.7,45.7,12.3z M39,15
	c-1.1,0-2-0.9-2-2c0-1.1,0.9-2,2-2s2,0.9,2,2C41,14.1,40.1,15,39,15z"/>
</svg>
