<?xml version="1.0" encoding="utf-8"?>
<!-- Generator: Adobe Illustrator 19.1.0, SVG Export Plug-In . SVG Version: 6.00 Build 0)  -->
<!DOCTYPE svg PUBLIC "-//W3C//DTD SVG 1.1//EN" "http://www.w3.org/Graphics/SVG/1.1/DTD/svg11.dtd">
<svg version="1.1" id="Layer_1" xmlns="http://www.w3.org/2000/svg" xmlns:xlink="http://www.w3.org/1999/xlink" x="0px" y="0px"
	 width="48px" height="48px" viewBox="0 0 48 48" enable-background="new 0 0 48 48" xml:space="preserve">
<path d="M44.8,13.4l-6-8c0,0-0.1,0-0.1-0.1c0,0-0.1-0.1-0.1-0.1c0,0-0.1,0-0.1,0c0,0-0.1,0-0.2-0.1c-0.1,0-0.2-0.1-0.3-0.1
	c0,0-0.1,0-0.1,0H10c0,0-0.1,0-0.1,0C9.8,5,9.7,5,9.6,5.1c-0.1,0-0.1,0-0.2,0.1c0,0-0.1,0-0.1,0c-0.1,0-0.1,0.1-0.1,0.1
	c0,0-0.1,0-0.1,0.1l-6,8c-0.3,0.4-0.3,0.9,0,1.2l11,14.3C13.5,30.5,13,32.2,13,34c0,6.1,4.9,11,11,11s11-4.9,11-11
	c0-1.8-0.5-3.5-1.2-5.1l11-14.3C45.1,14.3,45.1,13.8,44.8,13.4z M30.2,15l-5.8,8c-0.1,0-0.3,0-0.4,0s-0.3,0-0.4,0l-5.8-8H30.2z
	 M15.4,27.2L5.3,14L10,7.7l11.4,15.6C19,23.9,16.9,25.3,15.4,27.2z M24,38c-2.2,0-4-1.8-4-4c0-2.2,1.8-4,4-4s4,1.8,4,4
	C28,36.2,26.2,38,24,38z M32.6,27.2c-1.5-1.9-3.6-3.2-6-3.8L38,7.7l4.7,6.3L32.6,27.2z"/>
</svg>
