<?xml version="1.0" encoding="utf-8"?>
<!-- Generator: Adobe Illustrator 19.1.0, SVG Export Plug-In . SVG Version: 6.00 Build 0)  -->
<!DOCTYPE svg PUBLIC "-//W3C//DTD SVG 1.1//EN" "http://www.w3.org/Graphics/SVG/1.1/DTD/svg11.dtd">
<svg version="1.1" id="Layer_1" xmlns="http://www.w3.org/2000/svg" xmlns:xlink="http://www.w3.org/1999/xlink" x="0px" y="0px"
	 width="48px" height="48px" viewBox="0 0 48 48" enable-background="new 0 0 48 48" xml:space="preserve">
<path d="M20.1,12.4L7.6,17.1c-0.3,0.1-0.6,0.4-0.6,0.8L3.5,40.5c-0.1,1,1,1.5,1.7,0.9l8.6-8.6c-1.3-1.9-1.1-4.6,0.6-6.3
	c0.9-0.9,2.2-1.5,3.5-1.5c1.6,0,3.2,0.8,4.1,2.2c1.2,1.7,1.2,4,0,5.7c-1,1.4-2.5,2.2-4.1,2.2c-1,0-1.9-0.3-2.8-0.8l-8.6,8.6
	c-0.7,0.7-0.1,1.8,0.9,1.7L30.2,41c0.4-0.1,0.7-0.3,0.8-0.6l4.7-12.5L20.1,12.4z"/>
<path id="color_21_" d="M44.7,23.3l-20-20c-0.4-0.4-1-0.4-1.4,0l-4,4c-0.4,0.4-0.4,1,0,1.4l20,20c0.2,0.2,0.5,0.3,0.7,0.3
	s0.5-0.1,0.7-0.3l4-4C45.1,24.3,45.1,23.7,44.7,23.3z"/>
</svg>
