<?xml version="1.0" encoding="utf-8"?>
<!-- Generator: Adobe Illustrator 19.1.0, SVG Export Plug-In . SVG Version: 6.00 Build 0)  -->
<!DOCTYPE svg PUBLIC "-//W3C//DTD SVG 1.1//EN" "http://www.w3.org/Graphics/SVG/1.1/DTD/svg11.dtd">
<svg version="1.1" id="Layer_1" xmlns="http://www.w3.org/2000/svg" xmlns:xlink="http://www.w3.org/1999/xlink" x="0px" y="0px"
	 width="48px" height="48px" viewBox="0 0 48 48" enable-background="new 0 0 48 48" xml:space="preserve">
<path id="color_44_" d="M46.7,33.3l-7.5-7.5c1.2-1.6,1.8-3.6,1.8-5.8c0-5.5-4.5-10-10-10s-10,4.5-10,10s4.5,10,10,10
	c2.7,0,5.1-1,6.9-2.7l7.4,7.4c0.2,0.2,0.5,0.3,0.7,0.3s0.5-0.1,0.7-0.3C47.1,34.3,47.1,33.7,46.7,33.3z M31,28c-4.1,0-7.4-3.1-7.9-7
	H32c0.6,0,1-0.4,1-1s-0.4-1-1-1h-8.9c0.5-3.9,3.9-7,7.9-7c4.4,0,8,3.6,8,8S35.4,28,31,28z"/>
<path d="M31,8c3.1,0,5.9,1.2,8,3.1V2c0-0.6-0.4-1-1-1H2C1.4,1,1,1.4,1,2v44c0,0.6,0.4,1,1,1h36c0.6,0,1-0.4,1-1V31.2l-1.3-1.3
	c-2,1.3-4.3,2.1-6.7,2.1c-6.6,0-12-5.4-12-12S24.4,8,31,8z M10,13h7c0.6,0,1,0.4,1,1s-0.4,1-1,1h-7c-0.6,0-1-0.4-1-1S9.4,13,10,13z
	 M10,23h6c0.6,0,1,0.4,1,1s-0.4,1-1,1h-6c-0.6,0-1-0.4-1-1S9.4,23,10,23z M25,33c0.6,0,1,0.4,1,1s-0.4,1-1,1H10c-0.6,0-1-0.4-1-1
	s0.4-1,1-1H25z"/>
</svg>
