<?xml version="1.0" encoding="utf-8"?>
<!-- Generator: Adobe Illustrator 19.1.0, SVG Export Plug-In . SVG Version: 6.00 Build 0)  -->
<!DOCTYPE svg PUBLIC "-//W3C//DTD SVG 1.1//EN" "http://www.w3.org/Graphics/SVG/1.1/DTD/svg11.dtd">
<svg version="1.1" id="Layer_1" xmlns="http://www.w3.org/2000/svg" xmlns:xlink="http://www.w3.org/1999/xlink" x="0px" y="0px"
	 width="48px" height="48px" viewBox="0 0 48 48" enable-background="new 0 0 48 48" xml:space="preserve">
<path d="M43.7,8.6l-4.3-4.3c-0.9-0.9-2.2-1.5-3.5-1.5c-1.3,0-2.6,0.5-3.5,1.5L5.1,31.5C5,31.6,5,31.7,4.9,31.8c0,0,0,0.1,0,0.1
	c0,0,0,0.1,0,0.1l-2,12c-0.1,0.3,0.1,0.6,0.3,0.9c0.2,0.2,0.4,0.3,0.7,0.3c0.1,0,0.1,0,0.2,0l12-2c0,0,0.1,0,0.1,0c0,0,0.1,0,0.1,0
	c0.1,0,0.2-0.1,0.3-0.2l27.2-27.2C45.7,13.8,45.7,10.6,43.7,8.6z M9.3,42.2l-3.6-3.6l0.7-4.4l7.3,7.3L9.3,42.2z M30.7,18.7L14.4,35
	c-0.2,0.2-0.5,0.3-0.7,0.3c-0.3,0-0.5-0.1-0.7-0.3c-0.4-0.4-0.4-1,0-1.4l16.3-16.3c0.4-0.4,1-0.4,1.4,0S31.1,18.3,30.7,18.7z
	 M37.8,18.8l-8.6-8.6l2.6-2.6l8.6,8.6L37.8,18.8z"/>
</svg>
