<?xml version="1.0" encoding="utf-8"?>
<!-- Generator: Adobe Illustrator 19.1.0, SVG Export Plug-In . SVG Version: 6.00 Build 0)  -->
<!DOCTYPE svg PUBLIC "-//W3C//DTD SVG 1.1//EN" "http://www.w3.org/Graphics/SVG/1.1/DTD/svg11.dtd">
<svg version="1.1" id="Layer_1" xmlns="http://www.w3.org/2000/svg" xmlns:xlink="http://www.w3.org/1999/xlink" x="0px" y="0px"
	 width="48px" height="48px" viewBox="0 0 48 48" enable-background="new 0 0 48 48" xml:space="preserve">
<path d="M38,1h-7v17c0,0.6-0.4,1-1,1s-1-0.4-1-1V1H19v17c0,0.6-0.4,1-1,1s-1-0.4-1-1V1h-7C9.4,1,9,1.4,9,2v26c0,0,0,0.1,0,0.1
	c0,0.1,0,0.1,0,0.2c0,0.1,0.1,0.1,0.1,0.2c0,0,0,0.1,0,0.1c0,0,0,0,0,0c0,0,0,0,0,0l14,16c0.2,0.2,0.5,0.3,0.8,0.3s0.6-0.1,0.8-0.3
	l14-16c0,0,0,0,0,0c0,0,0,0,0,0c0,0,0-0.1,0-0.1c0-0.1,0.1-0.1,0.1-0.2c0-0.1,0-0.1,0-0.2c0,0,0-0.1,0-0.1V2C39,1.4,38.6,1,38,1z
	 M27,39H21l-9.5-10.8l6.4-4.8l5.4,5.4c0.4,0.4,1,0.4,1.4,0l5.4-5.4l6.4,4.8L27,39z"/>
</svg>
