<?xml version="1.0" encoding="utf-8"?>
<!-- Generator: Adobe Illustrator 19.1.0, SVG Export Plug-In . SVG Version: 6.00 Build 0)  -->
<!DOCTYPE svg PUBLIC "-//W3C//DTD SVG 1.1//EN" "http://www.w3.org/Graphics/SVG/1.1/DTD/svg11.dtd">
<svg version="1.1" id="Layer_1" xmlns="http://www.w3.org/2000/svg" xmlns:xlink="http://www.w3.org/1999/xlink" x="0px" y="0px"
	 width="48px" height="48px" viewBox="0 0 48 48" enable-background="new 0 0 48 48" xml:space="preserve">
<path d="M46.6,3.2C46.4,3,46,3,45.7,3L24,9L2.3,3C2,3,1.6,3,1.4,3.2C1.1,3.4,1,3.7,1,4v34c0,0.5,0.3,0.8,0.7,1l22,6
	c0.1,0,0.2,0,0.3,0s0.2,0,0.3,0l22-6c0.4-0.1,0.7-0.5,0.7-1V4C47,3.7,46.9,3.4,46.6,3.2z M19,34.3c-0.1,0.4-0.5,0.7-1,0.7
	c-0.1,0-0.2,0-0.3,0l-8-2.2c-0.5-0.1-0.8-0.7-0.7-1.2c0.1-0.5,0.7-0.8,1.2-0.7l8,2.2C18.8,33.3,19.1,33.8,19,34.3z M19,25.4
	c-0.1,0.4-0.5,0.7-1,0.7c-0.1,0-0.2,0-0.3,0l-8-2.2c-0.5-0.1-0.8-0.7-0.7-1.2c0.1-0.5,0.7-0.8,1.2-0.7l8,2.2
	C18.8,24.3,19.1,24.8,19,25.4z M19,16.9c-0.1,0.4-0.5,0.7-1,0.7c-0.1,0-0.2,0-0.3,0l-8-2.2c-0.5-0.1-0.8-0.7-0.7-1.2
	c0.1-0.5,0.7-0.8,1.2-0.7l8,2.2C18.8,15.8,19.1,16.4,19,16.9z M38.3,32.9l-8,2.2c-0.1,0-0.2,0-0.3,0c-0.4,0-0.8-0.3-1-0.7
	c-0.1-0.5,0.2-1.1,0.7-1.2l8-2.2c0.5-0.1,1.1,0.2,1.2,0.7C39.1,32.2,38.8,32.7,38.3,32.9z M38.3,23.9l-8,2.2c-0.1,0-0.2,0-0.3,0
	c-0.4,0-0.8-0.3-1-0.7c-0.1-0.5,0.2-1.1,0.7-1.2l8-2.2c0.5-0.1,1.1,0.2,1.2,0.7C39.1,23.2,38.8,23.7,38.3,23.9z M38.3,15.4l-8,2.2
	c-0.1,0-0.2,0-0.3,0c-0.4,0-0.8-0.3-1-0.7c-0.1-0.5,0.2-1.1,0.7-1.2l8-2.2c0.5-0.1,1.1,0.2,1.2,0.7C39.1,14.7,38.8,15.3,38.3,15.4z"
	/>
</svg>
