<?xml version="1.0" encoding="utf-8"?>
<!-- Generator: Adobe Illustrator 19.1.0, SVG Export Plug-In . SVG Version: 6.00 Build 0)  -->
<!DOCTYPE svg PUBLIC "-//W3C//DTD SVG 1.1//EN" "http://www.w3.org/Graphics/SVG/1.1/DTD/svg11.dtd">
<svg version="1.1" id="Layer_1" xmlns="http://www.w3.org/2000/svg" xmlns:xlink="http://www.w3.org/1999/xlink" x="0px" y="0px"
	 width="48px" height="48px" viewBox="0 0 48 48" enable-background="new 0 0 48 48" xml:space="preserve">
<path id="color_24_" d="M11.6,29.1c-1.9,0-3.6,0.7-4.9,2.1c-2.5,2.5-3.1,11-3.1,12c0,0.3,0.1,0.6,0.3,0.8c0.2,0.2,0.4,0.3,0.7,0.3
	c0,0,0,0,0.1,0c1-0.1,9.4-0.6,12-3.1c1.3-1.3,2.1-3.1,2.1-4.9s-0.7-3.6-2.1-4.9C15.2,29.8,13.4,29.1,11.6,29.1z"/>
<path id="color_23_" d="M43.7,4.3c-1-1-2.3-1.5-3.7-1.5s-2.7,0.5-3.7,1.5L34,6.6l7.4,7.4l2.3-2.3C45.8,9.7,45.8,6.3,43.7,4.3z"/>
<path d="M32.6,8L17.3,23.3c-0.4,0.4-0.4,1,0,1.4l6,6c0.2,0.2,0.5,0.3,0.7,0.3s0.5-0.1,0.7-0.3L40,15.4L32.6,8z"/>
</svg>
