<?xml version="1.0" encoding="utf-8"?>
<!-- Generator: Adobe Illustrator 19.1.0, SVG Export Plug-In . SVG Version: 6.00 Build 0)  -->
<!DOCTYPE svg PUBLIC "-//W3C//DTD SVG 1.1//EN" "http://www.w3.org/Graphics/SVG/1.1/DTD/svg11.dtd">
<svg version="1.1" id="Layer_1" xmlns="http://www.w3.org/2000/svg" xmlns:xlink="http://www.w3.org/1999/xlink" x="0px" y="0px"
	 width="48px" height="48px" viewBox="0 0 48 48" enable-background="new 0 0 48 48" xml:space="preserve">
<path fill="#444444" d="M24,0C10.74512,0,0,10.74512,0,24c0,13.25476,10.74512,24,24,24s24-10.74524,24-24
	C48,10.74512,37.25488,0,24,0z M35.4126,30.87122l-10.90442,5.01746c-0.32251,0.14844-0.69385,0.14844-1.01636,0L12.5874,30.87122
	c-0.32556-0.14978-0.3269-0.61194-0.00232-0.76367l2.23486-1.04407c0.32397-0.15137,0.69812-0.15247,1.02295-0.00293
	l7.64893,3.51941c0.32251,0.14844,0.69385,0.14844,1.01636,0l7.64893-3.51941c0.32483-0.14954,0.69897-0.14844,1.02295,0.00293
	l2.23486,1.04407C35.7395,30.25928,35.73816,30.72144,35.4126,30.87122z M35.4126,24.4397l-10.90442,5.01746
	c-0.32251,0.14844-0.69385,0.14844-1.01636,0L12.5874,24.4397c-0.32556-0.14978-0.3269-0.61194-0.00232-0.76367l2.23486-1.04407
	c0.32397-0.15137,0.69812-0.15247,1.02295-0.00305l7.64893,3.51953c0.32251,0.14844,0.69385,0.14844,1.01636,0l7.64893-3.51953
	c0.32483-0.14941,0.69897-0.14832,1.02295,0.00305l2.23486,1.04407C35.7395,23.82776,35.73816,24.28992,35.4126,24.4397z
	 M35.4126,17.95105l-10.90442,5.01746c-0.32251,0.14844-0.69385,0.14844-1.01636,0L12.5874,17.95105
	c-0.32556-0.14978-0.3269-0.61194-0.00232-0.76354l10.82104-5.05567c0.37646-0.17578,0.81128-0.17578,1.18774,0l10.82104,5.05567
	C35.7395,17.33911,35.73816,17.80127,35.4126,17.95105z"/>
</svg>
