<?xml version="1.0" encoding="utf-8"?>
<!-- Generator: Adobe Illustrator 19.1.0, SVG Export Plug-In . SVG Version: 6.00 Build 0)  -->
<!DOCTYPE svg PUBLIC "-//W3C//DTD SVG 1.1//EN" "http://www.w3.org/Graphics/SVG/1.1/DTD/svg11.dtd">
<svg version="1.1" id="Layer_1" xmlns="http://www.w3.org/2000/svg" xmlns:xlink="http://www.w3.org/1999/xlink" x="0px" y="0px"
	 width="48px" height="48px" viewBox="0 0 48 48" enable-background="new 0 0 48 48" xml:space="preserve">
<path fill="#444444" d="M23.56763,12.96423c-0.12903-0.08862-0.26343-0.13391-0.39722-0.13391
	c-2.22314,0-3.47192,2.91882-3.99805,4.70959c0.59314-0.18372,1.23462-0.38232,1.89087-0.58557
	C21.51233,14.60669,22.57556,13.43103,23.56763,12.96423z"/>
<path fill="#444444" d="M22.01147,16.66064c0.82031-0.25403,1.63867-0.50732,2.39209-0.7406
	c0.00037-0.04382,0.00073-0.08704,0.00073-0.13428c0-0.92358-0.12378-1.60815-0.31409-2.08521
	C23.33533,14.02454,22.47205,14.88318,22.01147,16.66064z"/>
<path fill="#444444" d="M17.89258,24.62793c0,2.66296,2.6571,2.73523,2.6571,4.35596c0,0.3916-0.27722,0.92786-0.95801,0.92786
	c-1.04236,0-2.27747-1.06042-2.27747-1.06042l-0.62915,2.07861c0,0,1.20154,1.4624,3.55127,1.4624
	c1.95813,0,3.41016-1.47437,3.41016-3.76392c0-2.91003-3.23853-3.38599-3.23853-4.62842c0-0.22766,0.07239-1.13147,1.51233-1.13147
	c0.98206,0,1.78345,0.42786,1.78345,0.42786l0.91443-2.72034c0,0-0.61816-0.3584-1.86938-0.3584
	C19.50134,20.21765,17.89258,22.3866,17.89258,24.62793z"/>
<path fill="#444444" d="M24.93933,13.54895c0.17053,0.48853,0.27673,1.10474,0.27673,1.87012
	c0,0.08777-0.00037,0.16809-0.00061,0.24963c0.42358-0.1311,0.81433-0.25195,1.15796-0.35828
	C26.08008,14.41394,25.62402,13.63501,24.93933,13.54895z"/>
<path fill="#444444" d="M42,0H6C2.68628,0,0,2.68628,0,6v36c0,3.31372,2.68628,6,6,6h36c3.31372,0,6-2.68628,6-6V6
	C48,2.68628,45.31372,0,42,0z M27.13574,36l-13.68787-2.56458c0,0,1.75659-13.58472,1.82324-14.0636
	c0.08801-0.63257,0.10913-0.65369,0.78052-0.86438c0.10913-0.0343,0.96362-0.29919,2.16626-0.67188
	C18.68152,15.86938,20.16028,12,23.25549,12c0.4043,0,0.87244,0.21716,1.25024,0.71692
	c0.03796-0.00208,0.07568-0.00378,0.11243-0.00378c1.32861,0,2.08386,1.13171,2.51184,2.36316
	c0.43713-0.13513,0.70117-0.21667,0.71704-0.22131c0.10669-0.03137,0.38135-0.0741,0.52197,0.06665
	c0.14062,0.14062,1.42175,1.4126,1.42175,1.4126s1.84473,0.1366,1.93201,0.14392c0.08716,0.00732,0.19287,0.0741,0.20947,0.19482
	c0.01648,0.12073,2.61987,17.72253,2.61987,17.72253L27.13574,36z"/>
</svg>
