<?xml version="1.0" encoding="utf-8"?>
<!-- Generator: Adobe Illustrator 19.1.0, SVG Export Plug-In . SVG Version: 6.00 Build 0)  -->
<!DOCTYPE svg PUBLIC "-//W3C//DTD SVG 1.1//EN" "http://www.w3.org/Graphics/SVG/1.1/DTD/svg11.dtd">
<svg version="1.1" id="Layer_1" xmlns="http://www.w3.org/2000/svg" xmlns:xlink="http://www.w3.org/1999/xlink" x="0px" y="0px"
	 width="48px" height="48px" viewBox="0 0 48 48" enable-background="new 0 0 48 48" xml:space="preserve">
<path fill="#444444" d="M21.302,30.05493c0.50195,0.41821,0.87842,0.62744,1.12939,0.62744
	c0.3219,0,0.65881-0.38293,0.65881-0.72168c0-0.25098-0.18823-0.85742-0.5647-1.81958
	c-0.51819-1.25842-1.62036-3.56189-2.66663-4.42346c-0.33472-0.31372-0.65881-0.47058-0.97253-0.47058
	c-0.44763,0-1.255,0.82007-1.255,1.31763c0,0.27185,0.16736,0.74243,0.50208,1.41174
	C18.75024,27.16602,20.20044,29.08545,21.302,30.05493z"/>
<path fill="#444444" d="M31.81177,14.74512c0.28918-0.93713,1.1272-3.073,0.5647-3.79614
	c-0.19006-0.33264-0.77588-0.43213-1.44312,0.62744c-0.39734,0.60657-0.84705,1.66272-1.349,3.1687l-2.03918,5.86658
	l2.10193,0.37646C30.58826,18.39478,31.30981,16.31372,31.81177,14.74512z"/>
<path fill="#444444" d="M28.98828,22.71375c-1.65234-0.37646-3.40918-0.5647-5.27063-0.5647
	c-0.71936,0-1.09802,0.10852-1.09802,0.81567c0,0.85742,0.48108,1.46399,1.44312,1.81958
	c1.04578,0.43921,2.77124,0.65881,5.17651,0.65881h0.87842c0.4917,0,0.92834,0.25684,1.06665,1.31763
	c-0.90186,0.90186-2.38745,1.02295-3.38818,1.78821c-0.83667,0.60657-1.50586,1.32812-2.00793,2.16479
	c-0.48096,0.81567-0.72156,1.58948-0.72156,2.32153c0,0.43921,0.10461,0.97253,0.31372,1.59998
	c0.2301,0.69019,0.34509,1.13989,0.34509,1.349c-0.00549,0.19421-0.06274,0.32947-0.29797,0.42358
	c-0.97253,0.2196-1.41699-0.25623-1.83533-1.05103c-0.35559-0.66931-0.5542-1.52673-0.59607-2.57251
	c-0.12659,0.04224-0.58521,0.03137-0.72156,0.03137c0.02087,0.10461,0.03137,0.2301,0.03137,0.37646
	c0,0.62744-0.24048,1.16077-0.72156,1.59998s-1.04578,0.65881-1.69409,0.65881c-0.98303,0-1.97656-0.47058-2.98047-1.41174
	c-1.00391-0.96204-1.50586-1.90332-1.50586-2.82349c0-0.54614,0.23364-0.82971,0.59607-1.19214
	c0.52295,0.64832,0.87842,1.09802,1.06665,1.349c0.87842,1.23389,1.67322,1.85095,2.3844,1.85095
	c0.39929,0,0.72156-0.29578,0.72156-0.50195c0-0.16736-0.12549-0.47058-0.37646-0.90979
	c-0.36707-0.68811-1.81482-2.6073-2.57263-3.23145c-0.31372-0.29272-0.5437-0.43921-0.69019-0.43921
	c-0.70593,0-1.72546,0.90613-1.72546,2.41577c0,1.31042,0.87488,2.89221,1.66272,3.95288
	c1.84558,2.38562,4.25879,3.41956,7.09021,3.41956c2.69812,0,4.96729-1.01428,6.80786-3.04309
	c1.81958-2.00781,2.72937-4.54895,2.72937-7.62354c0-1.05151-0.00281-2.62427-0.7843-3.29407
	C31.74902,23.48755,30.6405,23.06921,28.98828,22.71375z"/>
<path fill="#444444" d="M24.09412,20.23523l-2.16467-6.27454c-0.58557-1.6731-1.04578-2.76074-1.38037-3.2627
	c-0.27197-0.43921-0.54382-0.65881-0.81567-0.65881c-0.45508,0-0.69019,0.51379-0.69019,0.97253
	c0,0.71118,0.25098,1.83008,0.75293,3.35693c0.46008,1.48486,1.15027,3.4718,2.07056,5.96069
	C22.34045,20.04517,23.48755,20.18018,24.09412,20.23523z"/>
<path fill="#444444" d="M42,0H6C2.68628,0,0,2.68628,0,6v36c0,3.31372,2.68628,6,6,6h36c3.31372,0,6-2.68628,6-6V6
	C48,2.68628,45.31372,0,42,0z M31.90588,36.45483C29.64709,38.81824,26.78174,40,23.30981,40
	c-4.28772,0-8.05347-2.51855-9.72546-5.92944c-0.54382-1.12939-0.81567-2.24841-0.81567-3.35681
	c0-2.5564,1.08594-3.90601,3.19995-4.48633c-0.33459-0.83655-0.50195-1.45361-0.50195-1.85095
	c0-1.47107,1.85889-3.29419,3.26282-3.29419c0.35547,0,0.7738,0.09412,1.25488,0.28235
	c-1.00391-2.86536-1.72546-5.04053-2.16479-6.52539c-0.57336-1.93542-1.34094-4.45215,0-5.96082
	C18.34253,8.29272,19.04321,8,19.92163,8c1.50586,0,3.31494,3.08496,5.42737,9.25488l0.53333,1.53723
	c0.80029-2.00049,3.25586-10.19604,6.02356-10.19604c0.83667,0,1.49548,0.28235,1.97644,0.84705
	c1.35242,1.52136,0.55542,3.77417,0,5.74121c-0.43921,1.52673-1.12939,3.61829-2.07056,6.27441
	c1.19214,0.29285,2.04968,0.85754,2.57263,1.69421c0.5647,0.89929,0.84705,2.29016,0.84705,4.17249
	C35.23145,31.04834,34.12292,34.09143,31.90588,36.45483z"/>
<path fill="#444444" d="M26.10205,27.38818c-0.63818-0.12756-1.15186-0.14343-1.85107-0.37646
	c0.18823,0.48108,0.38696,1.00391,0.59607,1.5686C25.26538,28.09937,25.68372,27.7019,26.10205,27.38818z"/>
</svg>
