<?xml version="1.0" encoding="utf-8"?>
<!-- Generator: Adobe Illustrator 19.1.0, SVG Export Plug-In . SVG Version: 6.00 Build 0)  -->
<!DOCTYPE svg PUBLIC "-//W3C//DTD SVG 1.1//EN" "http://www.w3.org/Graphics/SVG/1.1/DTD/svg11.dtd">
<svg version="1.1" id="Layer_1" xmlns="http://www.w3.org/2000/svg" xmlns:xlink="http://www.w3.org/1999/xlink" x="0px" y="0px"
	 width="48px" height="48px" viewBox="0 0 48 48" enable-background="new 0 0 48 48" xml:space="preserve">
<path fill="#444444" d="M40.3295,12.13554c-0.00292,0.01977-0.00365,0.02431-0.00891,0.05964
	C40.32059,12.19518,40.32488,12.16641,40.3295,12.13554z"/>
<path fill="#444444" d="M40.3295,12.13554C40.3432,12.04388,40.33761,12.08108,40.3295,12.13554L40.3295,12.13554z"/>
<path fill="#444444" d="M38.29715,3.61932C36.07452,1.08607,32.05681,0,26.91713,0H12.00012
	c-1.05155,0-1.94516,0.76476-2.10975,1.80172L3.67921,41.1941c-0.12342,0.77667,0.47804,1.4804,1.26533,1.4804h9.20917
	l2.31291-14.67008l-0.07172,0.4594c0.16467-1.03696,1.05155-1.80172,2.1018-1.80172h4.37622
	c8.59701,0,15.3286-3.49193,17.29499-13.59333c0.05835-0.29871,0.15268-0.87359,0.15268-0.87359
	C40.87829,8.4573,40.31662,5.92032,38.29715,3.61932z"/>
<path data-color="color-2" fill="#444444" d="M42.65157,14.10809c-2.13827,9.945-8.9586,15.20899-19.77856,15.20899h-3.92484L16.0214,48
	h6.36579c0.91881,0,1.70083-0.66913,1.84418-1.57603l0.07569-0.39563l1.46314-9.27287l0.09433-0.51249
	c0.14336-0.90689,0.92537-1.57603,1.84418-1.57603h1.16176c7.52025,0,13.40872-3.05514,15.12949-11.89113
	C44.68951,19.23099,44.35904,16.25689,42.65157,14.10809z"/>
</svg>
