<?xml version="1.0" encoding="utf-8"?>
<!-- Generator: Adobe Illustrator 19.1.0, SVG Export Plug-In . SVG Version: 6.00 Build 0)  -->
<!DOCTYPE svg PUBLIC "-//W3C//DTD SVG 1.1//EN" "http://www.w3.org/Graphics/SVG/1.1/DTD/svg11.dtd">
<svg version="1.1" id="Layer_1" xmlns="http://www.w3.org/2000/svg" xmlns:xlink="http://www.w3.org/1999/xlink" x="0px" y="0px"
	 width="48px" height="48px" viewBox="0 0 48 48" enable-background="new 0 0 48 48" xml:space="preserve">
<path fill="#444444" d="M42,0H6C2.68628,0,0,2.68628,0,6v36c0,3.31372,2.68628,6,6,6h36c3.31372,0,6-2.68628,6-6V6
	C48,2.68628,45.31372,0,42,0z M19.33337,34.96069C13.06763,34.96069,8,29.89307,8,23.62744
	c0-6.26575,5.06763-11.33337,11.33337-11.33337c3.05994,0,5.61804,1.11707,7.59326,2.96289l-3.07617,2.96277
	c-0.84192-0.80945-2.31519-1.74854-4.51709-1.74854c-3.86963,0-7.02673,3.20581-7.02673,7.15625s3.1571,7.15613,7.02673,7.15613
	c4.39661,0,6.09192-3.08826,6.40137-4.78113H20v-4l10.03528,0.00586C31.14648,28.48914,27.13037,34.96069,19.33337,34.96069z M40,24
	h-2v2h-2v-2h-2v-2h2v-2h2v2h2V24z"/>
</svg>
