<?xml version="1.0" encoding="utf-8"?>
<!-- Generator: Adobe Illustrator 19.1.0, SVG Export Plug-In . SVG Version: 6.00 Build 0)  -->
<!DOCTYPE svg PUBLIC "-//W3C//DTD SVG 1.1//EN" "http://www.w3.org/Graphics/SVG/1.1/DTD/svg11.dtd">
<svg version="1.1" id="Layer_1" xmlns="http://www.w3.org/2000/svg" xmlns:xlink="http://www.w3.org/1999/xlink" x="0px" y="0px"
	 width="48px" height="48px" viewBox="0 0 48 48" enable-background="new 0 0 48 48" xml:space="preserve">
<path data-color="color-2" fill="#444444" d="M20.17161,18.77228h2.21782c0,0-1.68977-8.39604-9.87459-8.39604
	S-0.00001,16.9769-0.00001,23.78878s3.85479,13.83499,11.9868,13.83499s10.82508-7.49835,10.82508-10.29703h-2.37624
	c0,0-0.95049,8.29043-8.07921,8.29043S2.27062,29.49175,2.27062,23.84158S6.0198,12.48845,12.46204,12.48845
	S20.17161,18.77228,20.17161,18.77228z"/>
<path fill="#444444" d="M42.98349,23.07591c3.27393-1.0033,3.90759-3.25632,3.90759-5.49175
	c0-2.34104-1.16172-6.44224-5.86139-6.44224s-14.36304,0-14.36304,0v25.71617c0,0,11.24752,0,14.52145,0
	c3.27393,0,6.81188-3.32673,6.81188-7.0231C47.99999,26.64906,46.50383,23.86799,42.98349,23.07591z M31.15511,14.78548h7.76237
	c1.91507,0,3.46754,1.55247,3.46754,3.46754c0,1.91509-1.55247,3.46756-3.46754,3.46756h-7.76237V14.78548z M39.46315,33.26733
	h-8.30804v-8.0264h8.30804c2.21643,0,4.0132,1.79677,4.0132,4.0132S41.67958,33.26733,39.46315,33.26733z"/>
</svg>
