<?xml version="1.0" encoding="utf-8"?>
<!-- Generator: Adobe Illustrator 19.1.0, SVG Export Plug-In . SVG Version: 6.00 Build 0)  -->
<!DOCTYPE svg PUBLIC "-//W3C//DTD SVG 1.1//EN" "http://www.w3.org/Graphics/SVG/1.1/DTD/svg11.dtd">
<svg version="1.1" id="Layer_1" xmlns="http://www.w3.org/2000/svg" xmlns:xlink="http://www.w3.org/1999/xlink" x="0px" y="0px"
	 width="48px" height="48px" viewBox="0 0 48 48" enable-background="new 0 0 48 48" xml:space="preserve">
<path fill="#444444" d="M46,0H2C0.89543,0,0,0.89543,0,2v44c0,1.10457,0.89543,2,2,2h23.63829V29.4119h-6.25529v-7.24417h6.25529
	v-5.34235c0-6.19977,3.78661-9.57566,9.31723-9.57566c2.64922,0,4.92609,0.19724,5.58963,0.2854v6.47912l-3.83577,0.00174
	c-3.00786,0-3.59026,1.42929-3.59026,3.52668v4.62507h7.17347l-0.93401,7.24417h-6.23946V48H46c1.10457,0,2-0.89543,2-2V2
	C48,0.89543,47.10457,0,46,0z"/>
</svg>
