<?xml version="1.0" encoding="utf-8"?>
<!-- Generator: Adobe Illustrator 19.1.0, SVG Export Plug-In . SVG Version: 6.00 Build 0)  -->
<!DOCTYPE svg PUBLIC "-//W3C//DTD SVG 1.1//EN" "http://www.w3.org/Graphics/SVG/1.1/DTD/svg11.dtd">
<svg version="1.1" id="Layer_1" xmlns="http://www.w3.org/2000/svg" xmlns:xlink="http://www.w3.org/1999/xlink" x="0px" y="0px"
	 width="48px" height="48px" viewBox="0 0 48 48" enable-background="new 0 0 48 48" xml:space="preserve">
<g>
	<path fill="#444444" d="M27.2,16.8v0.00004h-6.8v7.2h6.8v-0.00011c1.98823-0.00002,3.5999-1.61178,3.5999-3.59996
		C30.7999,18.41177,29.18823,16.80003,27.2,16.8z"/>
</g>
<g>
	<g>
		<path fill="#444444" d="M24,0C10.74516,0,0,10.74517,0,24s10.74517,24,24,24s24-10.74517,24-24S37.25483,0,24,0z M27.2,28.8
			v0.00004h-6.8V36h-4.8V12l11.6,0.00004V12c4.63921,0,8.4,3.7608,8.4,8.4C35.6,25.03918,31.83921,28.8,27.2,28.8z"/>
	</g>
</g>
</svg>
