<?xml version="1.0" encoding="utf-8"?>
<!-- Generator: Adobe Illustrator 19.1.0, SVG Export Plug-In . SVG Version: 6.00 Build 0)  -->
<!DOCTYPE svg PUBLIC "-//W3C//DTD SVG 1.1//EN" "http://www.w3.org/Graphics/SVG/1.1/DTD/svg11.dtd">
<svg version="1.1" id="Layer_1" xmlns="http://www.w3.org/2000/svg" xmlns:xlink="http://www.w3.org/1999/xlink" x="0px" y="0px"
	 width="48px" height="48px" viewBox="0 0 48 48" enable-background="new 0 0 48 48" xml:space="preserve">
<path fill="#444444" d="M42,0H6C2.68628,0,0,2.68628,0,6v36c0,3.31372,2.68628,6,6,6h36c3.31372,0,6-2.68628,6-6V6
	C48,2.68628,45.31372,0,42,0z M29.08838,15.60486c-0.98547,0-1.68225,0.93738-1.68225,2.73975
	c0,3.67712,2.3313,5.79199,5.35938,5.79199c0.53833,0,1.13635-0.06287,1.75464-0.20532v2.85706
	c-1.00916,0.22803-2.02246,0.32483-2.86597,0.32715c-2.00928,4.24573-5.63452,7.87024-6.84192,8.55676
	c-0.76917,0.43286-1.49329,0.45691-2.33447-0.04785c-1.48694-0.88721-7.11084-5.50793-8.99793-20.01953h4.0846
	c1.02698,8.71326,3.52979,13.17822,6.29846,16.52502c1.52588-1.52661,2.98914-3.55286,4.13904-5.85303
	c-2.73462-1.38745-4.39294-4.43262-4.39294-7.9801C23.60901,14.71582,25.6759,12,29.20862,12
	c3.43677,0,5.31152,2.13892,5.31152,5.81604c0,1.36658-0.29443,2.92432-0.8363,4.1272
	c-2.55164,0.49951-3.48474-1.1283-3.48474-1.1283c0.19189-0.62903,0.45166-1.69226,0.45166-2.66248
	C30.65076,16.44604,30.02588,15.60486,29.08838,15.60486z"/>
</svg>
