<?xml version="1.0" encoding="utf-8"?>
<!-- Generator: Adobe Illustrator 19.1.0, SVG Export Plug-In . SVG Version: 6.00 Build 0)  -->
<!DOCTYPE svg PUBLIC "-//W3C//DTD SVG 1.1//EN" "http://www.w3.org/Graphics/SVG/1.1/DTD/svg11.dtd">
<svg version="1.1" id="Layer_1" xmlns="http://www.w3.org/2000/svg" xmlns:xlink="http://www.w3.org/1999/xlink" x="0px" y="0px"
	 width="48px" height="48px" viewBox="0 0 48 48" enable-background="new 0 0 48 48" xml:space="preserve">
<path fill="#444444" d="M24.00011,0.00017C10.74529,0.00017,0,10.74522,0,23.99998C0,34.1674,6.32583,42.85167,15.25376,46.3486
	c-0.20993-1.89886-0.39925-4.81141,0.08327-6.88477c0.43583-1.8727,2.8143-11.92963,2.8143-11.92963
	s-0.71807-1.43734-0.71807-3.56279c0-3.3371,1.9344-5.82849,4.3427-5.82849c2.04759,0,3.03669,1.5374,3.03669,3.38068
	c0,2.05915-1.31096,5.13783-1.98775,7.99058c-0.56532,2.38927,1.19801,4.33753,3.55399,4.33753
	c4.26587,0,7.54466-4.49821,7.54466-10.99059c0-5.74624-4.12886-9.76396-10.02496-9.76396
	c-6.82863,0-10.83687,5.12209-10.83687,10.41517c0,2.06277,0.7946,4.27462,1.78604,5.477
	c0.19598,0.2378,0.22465,0.44592,0.16631,0.6881c-0.18205,0.75851-0.58694,2.38876-0.66638,2.72223
	c-0.10472,0.43923-0.34795,0.53232-0.80266,0.32085c-2.99767-1.39555-4.8716-5.77798-4.8716-9.29768
	c0-7.57069,5.5007-14.52343,15.85755-14.52343c8.32532,0,14.79552,5.93245,14.79552,13.86112
	c0,8.27145-5.21518,14.92809-12.45365,14.92809c-2.43211,0-4.71822-1.26348-5.50076-2.75602c0,0-1.20342,4.58257-1.49504,5.70524
	c-0.54214,2.0845-2.00483,4.69756-2.98326,6.29169c2.24569,0.69521,4.63213,1.07031,7.10632,1.07031
	C37.25492,47.99984,48,37.25478,48,23.99998C48,10.74522,37.25492,0.00017,24.00011,0.00017z"/>
</svg>
