<?xml version="1.0" encoding="utf-8"?>
<!-- Generator: Adobe Illustrator 19.1.0, SVG Export Plug-In . SVG Version: 6.00 Build 0)  -->
<!DOCTYPE svg PUBLIC "-//W3C//DTD SVG 1.1//EN" "http://www.w3.org/Graphics/SVG/1.1/DTD/svg11.dtd">
<svg version="1.1" id="Layer_1" xmlns="http://www.w3.org/2000/svg" xmlns:xlink="http://www.w3.org/1999/xlink" x="0px" y="0px"
	 width="48px" height="48px" viewBox="0 0 48 48" enable-background="new 0 0 48 48" xml:space="preserve">
<g>
	<path fill="#444444" d="M31.69714,14.98669c-0.7998,0-1.4458,0.646-1.4458,1.44434c0,0.79822,0.646,1.44568,1.4458,1.44568
		c0.79529,0,1.44128-0.64746,1.44128-1.44568C33.13843,15.63269,32.49243,14.98669,31.69714,14.98669z"/>
	<path fill="#444444" d="M26.47278,23.59741l3.078-1.5293l-1.22583-1.95044l-2.74634,1.8656
		c-0.1189,0.08032-0.27673,0.08911-0.40454,0.01477c-0.12659-0.07288-0.19946-0.21118-0.18909-0.35706l0.17847-3.34131h-2.2627
		l0.23218,3.34131c0.01038,0.14587-0.0625,0.28418-0.18896,0.35706c-0.12805,0.07434-0.28418,0.06555-0.40454-0.01477
		l-2.82373-1.84619l-1.12317,2.00977l3.05566,1.45056c0.13232,0.06238,0.21716,0.19629,0.21716,0.34363
		c0,0.14722-0.08484,0.28125-0.21716,0.34351l-3.08093,1.52954l1.22583,1.9502l2.74634-1.8656
		c0.12036-0.08179,0.27649-0.08777,0.40454-0.01477c0.12646,0.07288,0.19934,0.2113,0.18896,0.35693
		c0,0-0.17712,3.31458-0.18591,3.3429c0.00427,0,0.01038,0,0.01038,0h2.26111l-0.23352-3.34143
		c-0.01038-0.14563,0.0625-0.28406,0.18909-0.35693c0.05945-0.03418,0.12488-0.05054,0.19031-0.05054
		c0.07446,0,0.1488,0.02234,0.21423,0.06555l2.82495,1.84473l1.12341-2.01001l-3.0542-1.45056
		c-0.13245-0.06226-0.21729-0.19629-0.21729-0.34351C26.25549,23.7937,26.34033,23.65979,26.47278,23.59741z"/>
	<path fill="#444444" d="M24,0C10.74512,0,0,10.74512,0,24c0,13.25476,10.74512,24,24,24s24-10.74524,24-24
		C48,10.74512,37.25488,0,24,0z M34.38354,25.19482c-0.80273,0.80273-9.71741,9.71753-10.09241,10.09253
		c-0.37488,0.375-1.85449,1.64636-4.01941-0.51855l-7.03979-7.04138c-2.16357-2.16333-0.89502-3.64282-0.52002-4.01782
		c0.37646-0.375,9.28979-9.28979,10.09399-10.09241C24.45959,11.96191,25.33997,12,26.65967,12
		c0.91992,0,6.38074,0.39551,6.38074,0.39551c0.8656,0,1.4458,0.32227,1.83972,0.72363
		c0.40283,0.39539,0.72363,0.97559,0.72363,1.84119c0,0,0.39539,5.46069,0.39539,6.37927
		C35.99915,22.66077,36.03882,23.53967,34.38354,25.19482z"/>
</g>
</svg>
