<?xml version="1.0" encoding="utf-8"?>
<!-- Generator: Adobe Illustrator 19.1.0, SVG Export Plug-In . SVG Version: 6.00 Build 0)  -->
<!DOCTYPE svg PUBLIC "-//W3C//DTD SVG 1.1//EN" "http://www.w3.org/Graphics/SVG/1.1/DTD/svg11.dtd">
<svg version="1.1" id="Layer_1" xmlns="http://www.w3.org/2000/svg" xmlns:xlink="http://www.w3.org/1999/xlink" x="0px" y="0px"
	 width="48px" height="48px" viewBox="0 0 48 48" enable-background="new 0 0 48 48" xml:space="preserve">
<path fill="#444444" d="M27.02441,29.41772c-0.57703,0.57642-1.56226,0.85669-3.01196,0.85669
	c-0.00439,0-0.00854,0.00061-0.01282,0.00061s-0.00842-0.00061-0.01282-0.00061c-1.44971,0-2.43457-0.28015-3.01086-0.85645
	c-0.25598-0.25598-0.67102-0.25598-0.927-0.00012c-0.25598,0.25598-0.25598,0.67102,0,0.927
	c0.83472,0.83472,2.1228,1.24048,3.93787,1.24048c0.00439,0,0.00854-0.00061,0.01282-0.00061s0.00842,0.00061,0.01282,0.00061
	c1.81482,0,3.10315-0.40576,3.93848-1.24023c0.2561-0.25586,0.25623-0.6709,0.00037-0.927
	C27.69543,29.16211,27.28052,29.16187,27.02441,29.41772z"/>
<path fill="#444444" d="M27.57019,23.91895c-0.89709,0-1.65088,0.75171-1.65088,1.6488s0.75378,1.62427,1.65088,1.62427
	s1.62427-0.72717,1.62427-1.62427S28.46729,23.91895,27.57019,23.91895z"/>
<path fill="#444444" d="M22.07874,25.56775c0-0.89661-0.72766-1.6488-1.62427-1.6488s-1.64893,0.7522-1.64893,1.6488
	c0,0.89673,0.75232,1.62427,1.64893,1.62427S22.07874,26.46448,22.07874,25.56775z"/>
<path fill="#444444" d="M42,0H6C2.68628,0,0,2.68628,0,6v36c0,3.31372,2.68628,6,6,6h36c3.31372,0,6-2.68628,6-6V6
	C48,2.68628,45.31372,0,42,0z M34.66162,26.21643c0.02612,0.20886,0.04004,0.41956,0.04004,0.63184
	c0,1.98877-1.15564,3.83813-3.25391,5.20752c-2.01196,1.31311-4.67419,2.03625-7.49646,2.03625
	c-2.82214,0-5.48438-0.72314-7.49634-2.03625c-2.09827-1.36938-3.25391-3.21875-3.25391-5.20752
	c0-0.23267,0.01648-0.46338,0.04773-0.69177C12.49512,25.63586,12,24.76648,12,23.78308c0-1.59045,1.29395-2.88428,2.88428-2.88428
	c0.6687,0,1.28455,0.22925,1.77417,0.61279c1.88794-1.17029,4.31116-1.83826,6.88904-1.90161l1.54919-4.89697
	c0.10339-0.3269,0.44128-0.51892,0.77502-0.44031l3.98535,0.93799c0.40234-0.77319,1.21082-1.30273,2.14099-1.30273
	c1.3302,0,2.41248,1.08215,2.41248,2.41248c0,1.3302-1.08228,2.41235-2.41248,2.41235c-1.27136,0-2.31543-0.98877-2.4054-2.23755
	l-3.42944-0.80725l-1.24817,3.94531c2.39246,0.14136,4.62439,0.80701,6.38354,1.91248
	c0.49634-0.40417,1.12878-0.64697,1.81726-0.64697C34.70618,20.8988,36,22.19263,36,23.78308
	C36,24.80505,35.46545,25.7041,34.66162,26.21643z"/>
</svg>
