<?xml version="1.0" encoding="utf-8"?>
<!-- Generator: Adobe Illustrator 19.1.0, SVG Export Plug-In . SVG Version: 6.00 Build 0)  -->
<!DOCTYPE svg PUBLIC "-//W3C//DTD SVG 1.1//EN" "http://www.w3.org/Graphics/SVG/1.1/DTD/svg11.dtd">
<svg version="1.1" id="Layer_1" xmlns="http://www.w3.org/2000/svg" xmlns:xlink="http://www.w3.org/1999/xlink" x="0px" y="0px"
	 width="48px" height="48px" viewBox="0 0 48 48" enable-background="new 0 0 48 48" xml:space="preserve">
<path data-color="color-2" fill="#444444" d="M7.93153,9.29681c0,0,0,0,0.00295,0h4.5048c0.25811,0,0.46572-0.21023,0.46624-0.4664
	c0-0.00161-0.0547-3.86254-0.0547-4.93621V3.88147c0-0.88178,0.18507-1.65062,0.50745-2.29486l0.15404-0.28934
	c-0.01721,0.00291-0.03446,0.01135-0.05159,0.02852l-8.7529,8.67977c-0.01713,0.0141-0.02784,0.03236-0.03276,0.05111
	c0.18106-0.0896,0.42859-0.21205,0.46353-0.2274C5.90084,9.48531,6.82517,9.29681,7.93153,9.29681z"/>
<path fill="#444444" d="M42.9845,8.35168c-0.35785-1.91553-1.49664-2.85956-2.52631-3.23071
	c-1.11096-0.40149-3.36353-0.81738-6.19379-1.151c-2.27704-0.26813-4.95331-0.24683-6.56989-0.19684
	c-0.19403-1.32892-1.12616-2.54297-2.16907-2.96326c-2.77887-1.11847-7.07239-0.84833-8.17474-0.53931
	c-0.87598,0.24481-1.84546,0.74652-2.38513,1.51971c-0.36188,0.51642-0.59601,1.17804-0.59784,2.10236
	c0,0.52319,0.01459,1.75549,0.02789,2.85046c0.01324,1.09833,0.02765,2.08069,0.02765,2.08728
	c-0.00055,0.97791-0.79303,1.77368-1.77521,1.77496H8.14258c-0.96106,0-1.69537,0.1615-2.25629,0.41638
	c-0.56177,0.25507-0.95966,0.59894-1.26196,1.00574c-0.60181,0.80786-0.70624,1.80475-0.70374,2.82214
	c0,0,0.00885,0.8313,0.20911,2.44037c0.16656,1.24506,1.51672,9.9425,2.79919,12.58765
	c0.49719,1.02924,0.82837,1.45782,1.8053,1.91144c2.17657,0.93182,7.14813,1.96857,9.47821,2.26538
	c2.32593,0.29761,3.78571,0.92322,4.65576-0.90088c0.00287-0.00452,0.17426-0.45386,0.40997-1.11292
	c0.75531-2.2887,0.86041-4.31952,0.86041-5.78906c0-0.14935,0.21924-0.15625,0.21924,0c0,1.03754-0.19812,4.70898,2.57526,5.69397
	c1.09485,0.38831,3.36609,0.73444,5.67389,1.00494c2.08667,0.23987,3.60101,1.06097,3.60101,6.41455
	c0,3.25714-0.68408,3.70367-4.2605,3.70367c-2.89911,0-4.00397,0.07507-4.00397-2.22815c0-1.86151,1.84106-1.66638,3.20557-1.66638
	c0.60944,0,0.16705-0.45331,0.16705-1.60181c0-1.1424,0.71454-1.80286,0.0387-1.81952
	c-4.71826-0.12988-7.49451-0.00543-7.49451,5.89545c0,5.35699,2.05005,6.35168,8.74664,6.35168
	c5.25049,0,7.10126-0.17194,9.26929-6.89868c0.42914-1.32788,1.46655-5.38049,2.09448-12.18469
	C44.36749,24.61432,43.59625,11.62903,42.9845,8.35168z M33.83191,22.70453c-0.64868-0.02271-1.27258,0.01825-1.85431,0.11176
	c0.1637-1.32239,0.70953-2.94501,2.64307-2.87714c2.14044,0.07361,2.44031,2.09668,2.448,3.46692
	C36.16608,23.00372,35.04883,22.74725,33.83191,22.70453z"/>
</svg>
