<?xml version="1.0" encoding="utf-8"?>
<!-- Generator: Adobe Illustrator 19.1.0, SVG Export Plug-In . SVG Version: 6.00 Build 0)  -->
<!DOCTYPE svg PUBLIC "-//W3C//DTD SVG 1.1//EN" "http://www.w3.org/Graphics/SVG/1.1/DTD/svg11.dtd">
<svg version="1.1" id="Layer_1" xmlns="http://www.w3.org/2000/svg" xmlns:xlink="http://www.w3.org/1999/xlink" x="0px" y="0px"
	 width="48px" height="48px" viewBox="0 0 48 48" enable-background="new 0 0 48 48" xml:space="preserve">
<path fill="#444444" d="M42,0H6C2.68628,0,0,2.68628,0,6v36c0,3.31372,2.68628,6,6,6h36c3.31372,0,6-2.68628,6-6V6
	C48,2.68628,45.31372,0,42,0z M20.75305,23.53162l-0.05603-0.05396c-0.17822-0.1709-0.47668-0.45679-0.4801-0.78284
	c-0.00183-0.16504,0.07214-0.32336,0.21985-0.47083l1.79456-1.79773l-1.8053-1.79968
	c-0.28882-0.30603-0.1698-0.6897,0.38525-1.24463c0.3208-0.3208,0.60535-0.4834,0.84583-0.4834
	c0.13257,0,0.25317,0.04846,0.34888,0.14014l1.80469,1.80518l1.78467-1.78772c0.31128-0.28687,0.797-0.15698,1.30029,0.34644
	c0.3468,0.34668,0.69421,0.79932,0.30066,1.22522l-1.7948,1.8075l1.72095,1.72156c0.17737,0.19519,0.54419,0.59863-0.18884,1.34705
	c-0.31165,0.31812-0.60718,0.47949-0.87842,0.47949c-0.19922-0.00549-0.37024-0.09436-0.52747-0.27148L23.8291,22.0188
	c-0.14526,0.14722-1.66833,1.69055-1.80298,1.81555c-0.04858,0.04517-0.18555,0.15039-0.40784,0.15039
	C21.34985,23.98474,21.05872,23.83228,20.75305,23.53162z M33.73303,20.52954c-0.24329,3.2981-2.31445,6.34546-5.40564,7.95386
	c-1.81067,0.94092-3.63733,1.29114-5.42908,1.0426c-1.00439-0.13989-1.01099-0.65979-0.93066-1.82263
	c0.11987-1.72791,0.7428-1.76221,1.47192-1.76221c0.01794,0,0.03857,0.00037,0.05396,0c2.84265,0,4.4458-1.3623,5.29199-2.50574
	c1.11902-1.51343,1.36414-3.1438,1.36414-3.64441c-0.00073-1.74927-0.73938-3.41797-2.02698-4.57861
	c-1.31177-1.18323-2.99829-1.73218-4.75281-1.55334c-3.05627,0.31653-5.45056,3.14233-5.45056,6.43335v16.74194
	c0,0.96753-0.73547,1.16565-1.83972,1.16565s-1.83972-0.19812-1.83972-1.16565V20.13171c0-5.28223,3.95288-9.72058,8.99915-10.10449
	c2.84839-0.21204,5.63879,0.81995,7.65942,2.83533C32.91125,14.87085,33.94434,17.66516,33.73303,20.52954z"/>
</svg>
