<?xml version="1.0" encoding="utf-8"?>
<!-- Generator: Adobe Illustrator 19.1.0, SVG Export Plug-In . SVG Version: 6.00 Build 0)  -->
<!DOCTYPE svg PUBLIC "-//W3C//DTD SVG 1.1//EN" "http://www.w3.org/Graphics/SVG/1.1/DTD/svg11.dtd">
<svg version="1.1" id="Layer_1" xmlns="http://www.w3.org/2000/svg" xmlns:xlink="http://www.w3.org/1999/xlink" x="0px" y="0px"
	 width="48px" height="48px" viewBox="0 0 48 48" enable-background="new 0 0 48 48" xml:space="preserve">
<path fill="#444444" d="M0.00097,23.9991c0,9.49926,5.51987,17.70935,13.52622,21.59881L2.07906,14.232
	C0.74742,17.21654,0.00097,20.51956,0.00097,23.9991z"/>
<path fill="#444444" d="M40.20132,22.78869c0-2.96702-1.06587-5.02046-1.97863-6.61873
	c-1.21623-1.97782-2.3574-3.65111-2.3574-5.62895c0-2.20569,1.67272-4.25938,4.03012-4.25938
	c0.10649,0,0.20744,0.01297,0.31089,0.01943C35.93672,2.38887,30.24788,0,24.00006,0C15.61537,0,8.23946,4.30229,3.94808,10.81701
	c0.56355,0.01805,1.09428,0.02909,1.54462,0.02909c2.50965,0,6.39623-0.30509,6.39623-0.30509
	c1.29317-0.07573,1.44587,1.82489,0.15352,1.97785c0,0-1.30063,0.15211-2.7465,0.22812l8.73902,25.99609l5.25271-15.75137
	l-3.73884-10.24472c-1.29306-0.07601-2.51725-0.22812-2.51725-0.22812c-1.29359-0.07644-1.14188-2.05358,0.15225-1.97785
	c0,0,3.96256,0.30509,6.32066,0.30509c2.5094,0,6.39665-0.30509,6.39665-0.30509c1.29373-0.07573,1.44627,1.82489,0.1531,1.97785
	c0,0-1.30201,0.15211-2.74662,0.22812L35.98084,38.545l2.39437-7.99794C39.41132,27.22611,40.20132,24.84252,40.20132,22.78869z"/>
<path fill="#444444" d="M24.42142,26.09846l-7.20143,20.92366C19.37062,47.65462,21.64444,48,24.00006,48
	c2.79475,0,5.47518-0.48246,7.96966-1.36049c-0.0637-0.10289-0.1233-0.21213-0.17185-0.33074L24.42142,26.09846z"/>
<path fill="#444444" d="M45.05959,12.48561c0.10316,0.76436,0.16137,1.58434,0.16137,2.46787
	c0,2.43437-0.45599,5.17203-1.82503,8.59584l-7.33012,21.19373c7.13483-4.16006,11.93321-11.88991,11.93321-20.74396
	C47.99902,19.82649,46.93287,15.90379,45.05959,12.48561z"/>
</svg>
