<?xml version="1.0" encoding="utf-8"?>
<!-- Generator: Adobe Illustrator 19.1.0, SVG Export Plug-In . SVG Version: 6.00 Build 0)  -->
<!DOCTYPE svg PUBLIC "-//W3C//DTD SVG 1.1//EN" "http://www.w3.org/Graphics/SVG/1.1/DTD/svg11.dtd">
<svg version="1.1" id="Layer_1" xmlns="http://www.w3.org/2000/svg" xmlns:xlink="http://www.w3.org/1999/xlink" x="0px" y="0px"
	 width="48px" height="48px" viewBox="0 0 48 48" enable-background="new 0 0 48 48" xml:space="preserve">
<path fill="#444444" d="M24,0C10.74512,0,0,10.74512,0,24c0,13.25476,10.74512,24,24,24s24-10.74524,24-24
	C48,10.74512,37.25488,0,24,0z M15.33923,28.45679c-0.11011-0.21472-0.18652-0.57336-0.23315-1.00452
	c-0.13171-1.30615,0.02905-3.27319,0.41003-3.89807c0.17932-0.2887,0.44043-0.43909,0.73157-0.42773
	c0.19153,0.00256,0.36108,0.06555,4.14551,1.66223c0.00281,0,1.10596,0.46045,1.10596,0.46045
	c0.39941,0.15259,0.6427,0.57812,0.61792,1.05835c-0.02637,0.4696-0.28906,0.83691-0.6792,0.9375
	c-0.00647,0.00354-1.57202,0.51343-1.57202,0.51343c-3.52173,1.15881-3.63818,1.19214-3.82532,1.18164
	C15.74792,28.92993,15.49146,28.7533,15.33923,28.45679z M24.06104,31.36084c-0.01001,3.78503-0.01721,3.91003-0.07837,4.09106
	c-0.10193,0.2821-0.33875,0.47009-0.66663,0.53174c-0.94141,0.16406-3.89026-0.94543-4.50439-1.69409
	c-0.12439-0.15479-0.19836-0.32239-0.21423-0.49023c-0.01428-0.11853,0.00244-0.23523,0.04175-0.34766
	c0.0647-0.18884,0.17395-0.33582,2.82678-3.52112c0.00305,0,0.77441-0.93762,0.77441-0.93762
	c0.26379-0.33716,0.73425-0.44385,1.17139-0.27197c0.42627,0.16882,0.68396,0.54138,0.65942,0.9502
	C24.07007,29.6886,24.06104,31.36084,24.06104,31.36084z M23.4248,23.44739c-0.19043,0.06079-0.77344,0.24451-1.48877-0.94104
	c0,0-4.83679-7.78174-4.94983-8.02197c-0.06946-0.26929,0.01685-0.57544,0.24854-0.823
	c0.72424-0.76343,4.62659-1.88257,5.64648-1.62317c0.33386,0.08618,0.56433,0.30261,0.64636,0.60522
	c0.05627,0.33496,0.53247,7.55566,0.60083,9.17676C24.19446,23.20337,23.61499,23.38708,23.4248,23.44739z M25.88904,23.83618
	c0.01184-0.01257,0.9801-1.36169,0.9801-1.36169c2.14136-2.99597,2.25549-3.15076,2.41016-3.25452
	c0.2478-0.17053,0.54895-0.18054,0.84888-0.03271c0.84753,0.42371,2.5697,3.03748,2.67224,4.04163
	c0.00183,0.01257,0,0.02271,0,0.03406c0.02075,0.34058-0.10059,0.62012-0.34277,0.78625
	c-0.15808,0.10583-0.31213,0.15918-4.31226,1.14966c-0.64233,0.15613-0.99536,0.24402-1.19226,0.32104
	c0.00452-0.00574,0.02112-0.03467,0.02112-0.03467c-0.3999,0.11377-0.83679-0.0835-1.0946-0.48669
	C25.6311,24.60901,25.63367,24.15283,25.88904,23.83618z M29.96277,34.13477c-0.30811,0.12769-0.60388,0.09668-0.83618-0.09058
	c-0.151-0.12024-0.30994-0.3656-2.39978-3.83728l-0.62183-1.03381c-0.23767-0.3717-0.19153-0.85974,0.10522-1.23096
	c0.28674-0.36353,0.71423-0.49988,1.08704-0.35205c0.02014,0.01001,1.56396,0.53174,1.56396,0.53174
	c3.51904,1.18152,3.63403,1.22668,3.78296,1.34119c0.22742,0.18542,0.33069,0.47668,0.28418,0.8147
	C32.79211,31.24854,30.85144,33.77222,29.96277,34.13477z"/>
</svg>
