<?xml version="1.0" encoding="utf-8"?>
<!-- Generator: Adobe Illustrator 19.1.0, SVG Export Plug-In . SVG Version: 6.00 Build 0)  -->
<!DOCTYPE svg PUBLIC "-//W3C//DTD SVG 1.1//EN" "http://www.w3.org/Graphics/SVG/1.1/DTD/svg11.dtd">
<svg version="1.1" id="Layer_1" xmlns="http://www.w3.org/2000/svg" xmlns:xlink="http://www.w3.org/1999/xlink" x="0px" y="0px"
	 width="48px" height="48px" viewBox="0 0 48 48" enable-background="new 0 0 48 48" xml:space="preserve">
<path fill="#444444" d="M24,0C10.74512,0,0,10.74512,0,24c0,13.25476,10.74512,24,24,24s24-10.74524,24-24
	C48,10.74512,37.25488,0,24,0z M31.09363,28.01782c-3.26294,4.23975-6.02393,6.36047-8.28162,6.36047
	c-1.39941,0-2.58325-1.29065-3.55042-3.87354c-0.64563-2.36755-1.29077-4.73499-1.93689-7.10266
	c-0.71838-2.58154-1.48828-3.87378-2.31238-3.87378c-0.17969,0-0.80786,0.37781-1.88367,1.13013L12,19.20435
	c1.18445-1.04053,2.35266-2.08093,3.50208-3.12292c1.57971-1.3645,2.76648-2.08252,3.55689-2.15503
	c1.86707-0.17957,3.01685,1.09705,3.44824,3.82947c0.46631,2.94849,0.78931,4.78198,0.97034,5.49963
	c0.53906,2.44629,1.13159,3.66821,1.7782,3.66821c0.50183,0,1.25684-0.79333,2.26318-2.38086
	c1.00452-1.5863,1.54285-2.79346,1.61548-3.62317c0.14368-1.36926-0.39502-2.05542-1.61548-2.05542
	c-0.57471,0-1.16724,0.1322-1.77661,0.39343c1.17993-3.86279,3.43335-5.73877,6.75928-5.63171
	c2.46619,0.07227,3.62915,1.67139,3.48682,4.79736C35.88135,20.75928,34.25,23.95764,31.09363,28.01782z"/>
</svg>
