<?xml version="1.0" encoding="utf-8"?>
<!-- Generator: Adobe Illustrator 19.1.0, SVG Export Plug-In . SVG Version: 6.00 Build 0)  -->
<!DOCTYPE svg PUBLIC "-//W3C//DTD SVG 1.1//EN" "http://www.w3.org/Graphics/SVG/1.1/DTD/svg11.dtd">
<svg version="1.1" id="Layer_1" xmlns="http://www.w3.org/2000/svg" xmlns:xlink="http://www.w3.org/1999/xlink" x="0px" y="0px"
	 width="48px" height="48px" viewBox="0 0 48 48" enable-background="new 0 0 48 48" xml:space="preserve">
<path fill="#444444" d="M21.16867,34.41911l-1.75967-4.78318c0,0-2.85935,3.18898-7.14741,3.18898
	c-3.79417,0-6.48815-3.29904-6.48815-8.57745c0-6.76274,3.4086-9.18201,6.76297-9.18201c4.8381,0,6.37757,3.13397,7.69734,7.14783
	l1.75967,5.4983c1.75906,5.33303,5.05811,9.62149,14.56987,9.62149C43.38158,37.33307,48,35.24397,48,29.74597
	c0-4.45353-2.52962-6.76306-7.2581-7.86274l-3.51871-0.76974c-2.41896-0.54985-3.13367-1.53947-3.13367-3.189
	c0-1.86942,1.48413-2.9691,3.9037-2.9691c2.63916,0,4.06859,0.98985,4.28868,3.35408l5.49798-0.65989
	c-0.43977-4.94836-3.84847-6.98265-9.45691-6.98265c-4.94817,0-9.78669,1.86942-9.78669,7.86242
	c0,3.73884,1.8144,6.10317,6.37748,7.20285l3.73934,0.87948c2.80404,0.65999,3.73833,1.8145,3.73833,3.4091
	c0,2.03399-1.97916,2.85885-5.7181,2.85885c-5.55323,0-7.86213-2.91397-9.18201-6.92784l-1.8144-5.4979
	c-2.30889-7.14781-5.993-9.78696-13.30591-9.78696C4.28879,10.66694,0,15.78017,0,24.46737
	c0,8.35755,4.28879,12.8657,11.98656,12.8657C18.19925,37.33307,21.16867,34.41911,21.16867,34.41911L21.16867,34.41911z"/>
</svg>
