<?xml version="1.0" encoding="utf-8"?>
<!-- Generator: Adobe Illustrator 19.1.0, SVG Export Plug-In . SVG Version: 6.00 Build 0)  -->
<!DOCTYPE svg PUBLIC "-//W3C//DTD SVG 1.1//EN" "http://www.w3.org/Graphics/SVG/1.1/DTD/svg11.dtd">
<svg version="1.1" id="Layer_1" xmlns="http://www.w3.org/2000/svg" xmlns:xlink="http://www.w3.org/1999/xlink" x="0px" y="0px"
	 width="48px" height="48px" viewBox="0 0 48 48" enable-background="new 0 0 48 48" xml:space="preserve">
<g>
	<polygon fill="#444444" points="14.06262,22.27405 14.06262,25.72571 16.64282,23.99976 	"/>
	<polygon fill="#444444" points="14.88831,27.65479 22.96863,33.04126 22.96863,28.23108 18.4978,25.24084 	"/>
	<polygon fill="#444444" points="33.11169,20.34485 25.03125,14.95837 25.03125,19.76855 29.50244,22.7594 	"/>
	<polygon fill="#444444" points="24.00012,21.56006 20.35242,23.99976 24.00012,26.43958 27.64758,23.99976 	"/>
	<polygon fill="#444444" points="22.96863,19.76855 22.96863,14.95837 14.88831,20.34485 18.4978,22.7594 	"/>
	<polygon fill="#444444" points="25.03125,28.23108 25.03125,33.04126 33.11169,27.65479 29.50244,25.24084 	"/>
	<path fill="#444444" d="M24,0C10.74512,0,0,10.74512,0,24c0,13.25476,10.74512,24,24,24s24-10.74524,24-24
		C48,10.74512,37.25488,0,24,0z M36,27.65601c0,0.04541-0.00354,0.09033-0.00916,0.13513
		c-0.0022,0.01453-0.00598,0.02966-0.00854,0.04407c-0.00513,0.02917-0.01038,0.05811-0.01807,0.08655
		c-0.00439,0.01709-0.01074,0.03345-0.01599,0.04993c-0.0083,0.02515-0.01648,0.05054-0.02649,0.07568
		c-0.00708,0.01709-0.01526,0.03357-0.02307,0.04993c-0.01086,0.02332-0.02209,0.04602-0.03503,0.06873
		c-0.00952,0.01587-0.01965,0.03162-0.02942,0.04736c-0.01392,0.02148-0.02808,0.04236-0.04358,0.06262
		c-0.01135,0.01575-0.02332,0.03027-0.03528,0.04468c-0.01648,0.01892-0.03345,0.03796-0.05151,0.05566
		c-0.01355,0.01379-0.02686,0.02771-0.04102,0.04028c-0.01892,0.01721-0.03845,0.03357-0.05835,0.04932
		c-0.0155,0.01208-0.03064,0.02405-0.04675,0.03528c-0.00598,0.00378-0.01135,0.00891-0.01697,0.0127l-10.96875,7.3125
		C24.39868,35.94189,24.19922,36,24.00012,36c-0.19946,0-0.39893-0.05811-0.57227-0.17358l-10.96863-7.3125
		c-0.00562-0.00378-0.01099-0.00891-0.01697-0.0127c-0.01624-0.01123-0.03137-0.02319-0.04651-0.03528
		c-0.02014-0.01575-0.03979-0.0321-0.05835-0.04932c-0.01453-0.01257-0.02771-0.02649-0.04138-0.04028
		c-0.01794-0.0177-0.03503-0.03674-0.05115-0.05566c-0.01221-0.0144-0.02429-0.02893-0.03564-0.04468
		c-0.01514-0.02026-0.02966-0.04114-0.04321-0.06262c-0.01038-0.01575-0.02026-0.03149-0.02966-0.04736
		c-0.0127-0.02271-0.02405-0.04541-0.03503-0.06873c-0.00793-0.01636-0.01611-0.03284-0.02307-0.04993
		c-0.01013-0.02515-0.01831-0.05054-0.02649-0.07568c-0.00537-0.01648-0.01135-0.03284-0.01611-0.04993
		c-0.00757-0.02844-0.01257-0.05737-0.01794-0.08655c-0.00256-0.0144-0.00635-0.02954-0.0083-0.04407
		C12.00342,27.74634,12,27.70142,12,27.65601v-7.31238c0-0.04553,0.00342-0.09033,0.0094-0.13452
		c0.00195-0.01514,0.00574-0.02966,0.0083-0.0448c0.00537-0.02905,0.01038-0.05811,0.01794-0.08643
		c0.00476-0.01709,0.01074-0.03345,0.01611-0.04993c0.00818-0.02527,0.01636-0.05054,0.02649-0.07507
		c0.00696-0.01709,0.01514-0.03406,0.02307-0.05054c0.01099-0.02332,0.02234-0.04602,0.03503-0.06812
		c0.0094-0.01648,0.01929-0.03223,0.02966-0.04797c0.01355-0.02148,0.02808-0.04236,0.04321-0.06262
		c0.01135-0.01514,0.02344-0.03027,0.03564-0.0448c0.01611-0.01892,0.0332-0.03784,0.05115-0.05554
		c0.01367-0.01379,0.02686-0.02771,0.04138-0.04041c0.01855-0.01697,0.03821-0.03345,0.05835-0.04919
		c0.01514-0.01196,0.03027-0.02405,0.04651-0.0354c0.00598-0.00378,0.01135-0.00879,0.01697-0.01257l10.96863-7.3125
		c0.34656-0.23096,0.79761-0.23096,1.14417,0l10.96875,7.3125c0.00562,0.00378,0.01099,0.00879,0.01697,0.01257
		c0.01611,0.01135,0.03125,0.02344,0.04675,0.0354c0.0199,0.01575,0.03943,0.03223,0.05835,0.04919
		c0.01416,0.0127,0.02747,0.02661,0.04102,0.04041c0.01807,0.0177,0.03503,0.03662,0.05151,0.05554
		c0.01196,0.01453,0.02393,0.02966,0.03528,0.0448c0.0155,0.02026,0.02966,0.04114,0.04358,0.06262
		c0.00977,0.01575,0.0199,0.03149,0.02942,0.04797c0.01294,0.02209,0.02417,0.0448,0.03503,0.06812
		c0.00781,0.01648,0.01599,0.03345,0.02307,0.05054c0.01001,0.02454,0.01819,0.0498,0.02649,0.07507
		c0.00525,0.01648,0.0116,0.03284,0.01599,0.04993c0.00769,0.02832,0.01294,0.05737,0.01807,0.08643
		c0.00256,0.01514,0.00635,0.02966,0.00854,0.0448C35.99646,20.2533,36,20.2981,36,20.34363V27.65601z"/>
	<polygon fill="#444444" points="33.93726,25.72571 33.93726,22.27405 31.3573,23.99976 	"/>
</g>
</svg>
