<?xml version="1.0" encoding="utf-8"?>
<!-- Generator: Adobe Illustrator 19.1.0, SVG Export Plug-In . SVG Version: 6.00 Build 0)  -->
<!DOCTYPE svg PUBLIC "-//W3C//DTD SVG 1.1//EN" "http://www.w3.org/Graphics/SVG/1.1/DTD/svg11.dtd">
<svg version="1.1" id="Layer_1" xmlns="http://www.w3.org/2000/svg" xmlns:xlink="http://www.w3.org/1999/xlink" x="0px" y="0px"
	 width="48px" height="48px" viewBox="0 0 48 48" enable-background="new 0 0 48 48" xml:space="preserve">
<rect x="20.74485" y="20.61834" transform="matrix(-0.3176 -0.94822 0.94822 -0.3176 8.86494 54.37976)" fill="#444444" width="6.51014" height="6.76335"/>
<rect x="20.74483" y="20.61834" transform="matrix(-0.3176 -0.94822 0.94822 -0.3176 8.86497 54.37977)" fill="#444444" width="6.51015" height="6.76334"/>
<path fill="#444444" d="M45.99099,17.40238C41.04277,0.90915,33.89563-2.9392,17.4024,2.00901
	C0.90914,6.95722-2.93918,14.10437,2.00901,30.5976c4.94821,16.49325,12.09536,20.3416,28.58861,15.39339
	C47.09085,41.04278,50.93919,33.89563,45.99099,17.40238z M37.64891,28.10943l-3.10983,1.04151l1.07779,3.21791
	c0.43648,1.30302-0.26615,2.7131-1.56913,3.14944c-0.28339,0.09489-0.57192,0.13593-0.85426,0.1286
	c-1.01619-0.02631-1.95352-0.67811-2.29498-1.69774l-1.07779-3.21803l-6.4132,2.14782l1.07783,3.21799
	c0.43644,1.30299-0.26613,2.71299-1.56914,3.14944c-0.28337,0.0949-0.57188,0.13591-0.85427,0.1286
	c-1.01594-0.02633-1.95354-0.67824-2.29494-1.69776l-1.07787-3.21809l-3.11042,1.04169
	c-0.28337,0.09489-0.5719,0.13591-0.85427,0.1286c-1.01594-0.02633-1.95352-0.67824-2.29492-1.69776
	c-0.43646-1.30301,0.26613-2.71299,1.56914-3.14944l3.11005-1.04158l-2.06757-6.17304l-3.11,1.04154
	c-0.28339,0.09492-0.57192,0.13593-0.85427,0.12862c-1.01594-0.02633-1.95353-0.67824-2.29494-1.69776
	c-0.43647-1.30301,0.26613-2.71297,1.56914-3.14944l3.10965-1.04145l-1.07781-3.21797
	c-0.43649-1.30301,0.26611-2.71297,1.56914-3.14944c1.30321-0.43609,2.71299,0.26638,3.1492,1.56915l1.07785,3.21805
	l6.41337-2.14785l-1.07781-3.21797c-0.43646-1.30301,0.26615-2.7131,1.56914-3.14944
	c1.30277-0.43634,2.71299,0.26615,3.1492,1.56915l1.07783,3.21803l3.11023-1.04164c1.30348-0.43622,2.71299,0.26636,3.14923,1.56914
	c0.43644,1.30301-0.26617,2.71299-1.56918,3.14944l-3.10994,1.04154l2.06758,6.17314l3.11013-1.0416
	c1.30323-0.43587,2.71297,0.26624,3.14922,1.56913C39.65456,26.26299,38.95192,27.67297,37.64891,28.10943z"/>
</svg>
