<?xml version="1.0" encoding="utf-8"?>
<!-- Generator: Adobe Illustrator 19.1.0, SVG Export Plug-In . SVG Version: 6.00 Build 0)  -->
<!DOCTYPE svg PUBLIC "-//W3C//DTD SVG 1.1//EN" "http://www.w3.org/Graphics/SVG/1.1/DTD/svg11.dtd">
<svg version="1.1" id="Layer_1" xmlns="http://www.w3.org/2000/svg" xmlns:xlink="http://www.w3.org/1999/xlink" x="0px" y="0px"
	 width="48px" height="48px" viewBox="0 0 48 48" enable-background="new 0 0 48 48" xml:space="preserve">
<path fill="#444444" d="M42,0H6C2.68628,0,0,2.68628,0,6v36c0,3.31372,2.68628,6,6,6h36c3.31372,0,6-2.68628,6-6V6
	C48,2.68628,45.31372,0,42,0z M14.47229,33.33728c-0.39368,0-0.69434-0.35193-0.63269-0.74023l3.10559-19.69617
	C17.02747,12.38232,17.47424,12,18.00012,12h7.4585c2.56982,0,4.57861,0.54297,5.68994,1.80957
	c1.00977,1.15051,1.29065,2.41907,1.01172,4.28796c0,0-0.04712,0.28748-0.07629,0.43677
	c-0.98328,5.05078-4.349,6.79675-8.64746,6.79675h-2.18811c-0.52515,0-0.96863,0.38232-1.0509,0.90088l0.03577-0.22974
	l-1.15637,7.33508H14.47229z M34,23.38794c-0.86035,4.41797-3.80469,5.94556-7.56482,5.94556h-0.58081
	c-0.45947,0-0.85046,0.33447-0.92212,0.78796l-0.04712,0.25623l-0.73157,4.63647l-0.03784,0.19775
	C24.04407,35.66541,23.65295,36,23.1936,36h-3.18286l1.46338-9.34155h1.9624c5.40991,0,8.82007-2.63196,9.88928-7.60449
	C34.17957,20.12842,34.34473,21.61548,34,23.38794z"/>
</svg>
