<?xml version="1.0" encoding="utf-8"?>
<!-- Generator: Adobe Illustrator 19.1.0, SVG Export Plug-In . SVG Version: 6.00 Build 0)  -->
<!DOCTYPE svg PUBLIC "-//W3C//DTD SVG 1.1//EN" "http://www.w3.org/Graphics/SVG/1.1/DTD/svg11.dtd">
<svg version="1.1" id="Layer_1" xmlns="http://www.w3.org/2000/svg" xmlns:xlink="http://www.w3.org/1999/xlink" x="0px" y="0px"
	 width="48px" height="48px" viewBox="0 0 48 48" enable-background="new 0 0 48 48" xml:space="preserve">
<ellipse fill="#444444" cx="39.60652" cy="16.95187" rx="7.63594" ry="7.60898"/>
<ellipse data-color="color-2" fill="#444444" cx="22.40131" cy="19.12159" rx="6.87398" ry="6.84878"/>
<ellipse fill="#444444" cx="6.79895" cy="21.07594" rx="6.18706" ry="6.16241"/>
<path fill="#444444" d="M6.79919,28.64556c-3.92299,0-6.7992,3.44342-6.7992,7.00075v2.39439l0,0
	c0,0.33845,0.27701,0.61641,0.61781,0.61641h0.21936h11.9231h0.21845c0.34195,0,0.61901-0.27797,0.61901-0.61641l0,0v-2.39439
	C13.59772,32.08899,10.72214,28.64556,6.79919,28.64556z"/>
<path data-color="color-2" fill="#444444" d="M22.40107,27.53182c-4.35893,0-7.5553,3.82637-7.5553,7.77936v2.66064l0,0
	c0,0.37637,0.30797,0.6853,0.68669,0.6853h0.24374h13.24877h0.24283c0.38059,0,0.68813-0.30893,0.68813-0.6853l0,0v-2.66064
	C29.95593,31.35818,26.75999,27.53182,22.40107,27.53182z"/>
<path fill="#444444" d="M39.60561,26.29615c-4.84315,0-8.39438,4.25112-8.39438,8.64374v2.95594l0,0
	c0,0.41813,0.34219,0.76128,0.76311,0.76128h0.27096h14.72064h0.26904C47.6578,38.65711,48,38.31396,48,37.89583l0,0V34.9399
	C48,30.54727,44.4492,26.29615,39.60561,26.29615z"/>
</svg>
