<?xml version="1.0" encoding="utf-8"?>
<!-- Generator: Adobe Illustrator 19.1.0, SVG Export Plug-In . SVG Version: 6.00 Build 0)  -->
<!DOCTYPE svg PUBLIC "-//W3C//DTD SVG 1.1//EN" "http://www.w3.org/Graphics/SVG/1.1/DTD/svg11.dtd">
<svg version="1.1" id="Layer_1" xmlns="http://www.w3.org/2000/svg" xmlns:xlink="http://www.w3.org/1999/xlink" x="0px" y="0px"
	 width="48px" height="48px" viewBox="0 0 48 48" enable-background="new 0 0 48 48" xml:space="preserve">
<path fill="#444444" d="M42,0H6C2.68628,0,0,2.68628,0,6v36c0,3.31372,2.68628,6,6,6h36c3.31372,0,6-2.68628,6-6V6
	C48,2.68628,45.31372,0,42,0z M17.37305,35.97815h-4.97827V19.97632h4.97827V35.97815z M14.88525,17.79004
	C13.28796,17.79004,12,16.49792,12,14.90576c0-1.5918,1.28796-2.88391,2.88525-2.88391c1.59094,0,2.88257,1.29211,2.88257,2.88391
	C17.76782,16.49792,16.4762,17.79004,14.88525,17.79004z M36,35.97815h-4.9729v-7.78174c0-1.85559-0.03186-4.2428-2.58411-4.2428
	c-2.58789,0-2.98267,2.02246-2.98267,4.10999v7.91455h-4.96741V19.97632h4.76733v2.18762h0.06824
	c0.66309-1.25806,2.28577-2.58472,4.70532-2.58472c5.03564,0,5.96619,3.31335,5.96619,7.62305V35.97815z"/>
</svg>
