<?xml version="1.0" encoding="utf-8"?>
<!-- Generator: Adobe Illustrator 19.1.0, SVG Export Plug-In . SVG Version: 6.00 Build 0)  -->
<!DOCTYPE svg PUBLIC "-//W3C//DTD SVG 1.1//EN" "http://www.w3.org/Graphics/SVG/1.1/DTD/svg11.dtd">
<svg version="1.1" id="Layer_1" xmlns="http://www.w3.org/2000/svg" xmlns:xlink="http://www.w3.org/1999/xlink" x="0px" y="0px"
	 width="48px" height="48px" viewBox="0 0 48 48" enable-background="new 0 0 48 48" xml:space="preserve">
<path fill="#444444" d="M34.30872,24.84485h-5.5387v5.35095h5.5387c1.47766,0,2.67554-1.19788,2.67554-2.67554
	C36.98425,26.04272,35.78638,24.84485,34.30872,24.84485z"/>
<path fill="#444444" d="M42,0H6C2.68628,0,0,2.68628,0,6v36c0,3.31372,2.68628,6,6,6h36c3.31372,0,6-2.68628,6-6V6
	C48,2.68628,45.31372,0,42,0z M15.99121,33.08252C10.56982,33.08252,8,28.40039,8,23.85913s2.88672-8.94165,8.34326-8.94165
	s6.58301,5.59729,6.58301,5.59729h-1.47852c0,0-0.84485-4.18921-5.13977-4.18921c-4.2948,0-6.79419,3.802-6.79419,7.56885
	c0,3.76672,1.97131,7.85034,6.72388,7.85034c4.75244,0,5.38611-5.52698,5.38611-5.52698h1.58411
	C23.20789,28.08362,21.4126,33.08252,15.99121,33.08252z M35.45874,32.5896c-2.18262,0-9.68091,0-9.68091,0V15.44556
	c0,0,6.44214,0,9.57532,0c3.13306,0,3.90759,2.73413,3.90759,4.2948c0,1.49023-0.42249,2.99231-2.6051,3.66113
	C39.00256,23.92957,40,25.78357,40,27.90759C40,30.37183,37.64136,32.5896,35.45874,32.5896z"/>
<path fill="#444444" d="M36.25671,20.18628c0-1.27673-1.03503-2.31177-2.31177-2.31177h-5.17493v4.62341h5.17493
	C35.22168,22.49792,36.25671,21.46301,36.25671,20.18628z"/>
</svg>
