<?xml version="1.0" encoding="utf-8"?>
<!-- Generator: Adobe Illustrator 19.1.0, SVG Export Plug-In . SVG Version: 6.00 Build 0)  -->
<!DOCTYPE svg PUBLIC "-//W3C//DTD SVG 1.1//EN" "http://www.w3.org/Graphics/SVG/1.1/DTD/svg11.dtd">
<svg version="1.1" id="Layer_1" xmlns="http://www.w3.org/2000/svg" xmlns:xlink="http://www.w3.org/1999/xlink" x="0px" y="0px"
	 width="48px" height="48px" viewBox="0 0 48 48" enable-background="new 0 0 48 48" xml:space="preserve">
<path fill="#444444" d="M24,0C10.74512,0,0,10.74512,0,24c0,13.25476,10.74512,24,24,24s24-10.74524,24-24
	C48,10.74512,37.25488,0,24,0z M31.44446,16.41663l-4.41992,8.43359l0.33655,0.37195h4.08337v5.94446H24l-0.47095,0.35327
	l-2.05688,3.92456L20.94446,36h-4.38892v-4.44446l4.39429-8.38354l-0.2832-0.36646h-4.11108v-5.97229h7.43115l0.43921-0.29297
	L26.5,12.58325L27.08337,12h4.36108V16.41663z"/>
</svg>
