<?xml version="1.0" encoding="utf-8"?>
<!-- Generator: Adobe Illustrator 19.1.0, SVG Export Plug-In . SVG Version: 6.00 Build 0)  -->
<!DOCTYPE svg PUBLIC "-//W3C//DTD SVG 1.1//EN" "http://www.w3.org/Graphics/SVG/1.1/DTD/svg11.dtd">
<svg version="1.1" id="Layer_1" xmlns="http://www.w3.org/2000/svg" xmlns:xlink="http://www.w3.org/1999/xlink" x="0px" y="0px"
	 width="48px" height="48px" viewBox="0 0 48 48" enable-background="new 0 0 48 48" xml:space="preserve">
<path fill="#444444" d="M0,6v36c0,3.31371,2.68629,6,6,6h36c3.31371,0,6-2.68629,6-6V6c0-3.31371-2.68629-6-6-6H6
	C2.68629,0,0,2.68629,0,6z M20,36h-6c-1.10457,0-2-0.89543-2-2V14c0-1.10457,0.89543-2,2-2h6c1.10457,0,2,0.89543,2,2v20
	C22,35.10457,21.10457,36,20,36z M34,28h-6c-1.10457,0-2-0.89543-2-2V14c0-1.10457,0.89543-2,2-2h6c1.10457,0,2,0.89543,2,2v12
	C36,27.10457,35.10457,28,34,28z"/>
</svg>
