<?xml version="1.0" encoding="utf-8"?>
<!-- Generator: Adobe Illustrator 19.1.0, SVG Export Plug-In . SVG Version: 6.00 Build 0)  -->
<!DOCTYPE svg PUBLIC "-//W3C//DTD SVG 1.1//EN" "http://www.w3.org/Graphics/SVG/1.1/DTD/svg11.dtd">
<svg version="1.1" id="Layer_1" xmlns="http://www.w3.org/2000/svg" xmlns:xlink="http://www.w3.org/1999/xlink" x="0px" y="0px"
	 width="48px" height="48px" viewBox="0 0 48 48" enable-background="new 0 0 48 48" xml:space="preserve">
<path fill="#444444" d="M29.21997,28.31995c-3.12-1.91992-7.07996-2.33997-11.64001-1.31995
	c-0.35999,0.12-0.65991,0.47998-0.53992,0.90002c0.12,0.35999,0.47998,0.65991,0.8999,0.53992
	c4.20007-0.95996,7.74011-0.59998,10.56006,1.14001c0.35999,0.23999,0.78003,0.12,1.02002-0.23999
	C29.69995,28.97998,29.64001,28.5,29.21997,28.31995z"/>
<path fill="#444444" d="M30.71997,24.83997c-3.71997-2.28003-9.12-2.93994-13.5-1.62C16.73999,23.33997,16.5,23.88,16.62,24.35999
	s0.66003,0.71997,1.14001,0.59998c3.78003-1.19995,8.69995-0.59998,11.93994,1.38c0.42004,0.30005,0.96008,0.12,1.26001-0.30005
	C31.26001,25.62,31.07996,25.02002,30.71997,24.83997z"/>
<path fill="#444444" d="M24,0C10.74512,0,0,10.74512,0,24c0,13.25476,10.74512,24,24,24s24-10.74524,24-24
	C48,10.74512,37.25488,0,24,0z M24,36c-6.59998,0-12-5.40002-12-12s5.40002-12,12-12c6.66003,0,12,5.40002,12,12S30.59998,36,24,36z
	"/>
<path fill="#444444" d="M16.5,19.19995c-0.54004,0.18005-0.90002,0.78003-0.71997,1.38
	c0.17993,0.54004,0.78003,0.90002,1.38,0.71997c3.65991-1.14001,10.07996-0.8999,13.91992,1.38
	c0.54004,0.30005,1.26001,0.12,1.56006-0.29993c0.29993-0.54004,0.12-1.26001-0.42004-1.56006
	C27.78003,18.17993,20.76001,17.93994,16.5,19.19995z"/>
</svg>
