<?xml version="1.0" encoding="utf-8"?>
<!-- Generator: Adobe Illustrator 19.1.0, SVG Export Plug-In . SVG Version: 6.00 Build 0)  -->
<!DOCTYPE svg PUBLIC "-//W3C//DTD SVG 1.1//EN" "http://www.w3.org/Graphics/SVG/1.1/DTD/svg11.dtd">
<svg version="1.1" id="Layer_1" xmlns="http://www.w3.org/2000/svg" xmlns:xlink="http://www.w3.org/1999/xlink" x="0px" y="0px"
	 width="48px" height="48px" viewBox="0 0 48 48" enable-background="new 0 0 48 48" xml:space="preserve">
<path fill="#444444" d="M19.74512,24.66138H15.4126v3.97778h4.13281c0.62109-0.01733,1.7688-0.21228,1.7688-1.93372
	C21.31421,24.64087,19.74512,24.66138,19.74512,24.66138z"/>
<path fill="#444444" d="M30.83728,22.36707c-2.29919,0-2.61938,2.29431-2.61938,2.29431h4.8894
	C33.1073,24.66138,33.13647,22.36707,30.83728,22.36707z"/>
<path fill="#444444" d="M20.79797,20.59399c0-1.54846-1.05286-1.54846-1.05286-1.54846h-0.5575H15.4126v3.32153h4.06409
	C20.17859,22.36707,20.79797,22.14258,20.79797,20.59399z"/>
<path fill="#444444" d="M24,0C10.74512,0,0,10.74512,0,24c0,13.25476,10.74512,24,24,24s24-10.74524,24-24
	C48,10.74512,37.25488,0,24,0z M27.57715,17.27686h6.14075v1.83337h-6.14075V17.27686z M24.47314,26.89124
	c0,4.54236-4.72803,4.39331-4.72803,4.39331H15.4126h-0.1272H12v-14.8844h3.2854h0.1272h4.33252
	c2.35364,0,4.21191,1.2998,4.21191,3.96326s-2.27112,2.83215-2.27112,2.83215
	C24.67957,23.19556,24.47314,26.89124,24.47314,26.89124z M35.95959,26.64807h-7.71252c0,2.76501,2.61938,2.58984,2.61938,2.58984
	c2.47375,0,2.38647-1.60046,2.38647-1.60046h2.61938c0,4.24902-5.09314,3.95813-5.09314,3.95813
	c-6.11157,0-5.71875-5.68982-5.71875-5.68982s-0.00513-5.71875,5.71863-5.71875
	C36.80334,20.18701,35.95959,26.64807,35.95959,26.64807z"/>
</svg>
