<?xml version="1.0" encoding="utf-8"?>
<!-- Generator: Adobe Illustrator 19.1.0, SVG Export Plug-In . SVG Version: 6.00 Build 0)  -->
<!DOCTYPE svg PUBLIC "-//W3C//DTD SVG 1.1//EN" "http://www.w3.org/Graphics/SVG/1.1/DTD/svg11.dtd">
<svg version="1.1" id="Layer_1" xmlns="http://www.w3.org/2000/svg" xmlns:xlink="http://www.w3.org/1999/xlink" x="0px" y="0px"
	 width="48px" height="48px" viewBox="0 0 48 48" enable-background="new 0 0 48 48" xml:space="preserve">
<path fill="#444444" d="M23.4425,20.66748c-1.69836-3.01904-3.53003-5.55725-3.80017-5.92786
	c-2.86755,1.35254-5.01099,3.99609-5.67566,7.17664C14.42505,21.92236,18.64795,21.94067,23.4425,20.66748z"/>
<path fill="#444444" d="M24.71655,24.1051c0.13367-0.04321,0.26831-0.08374,0.40393-0.12195
	c-0.25732-0.58228-0.53748-1.16516-0.83093-1.73938c-5.11865,1.53186-10.08569,1.4679-10.53418,1.45862
	c-0.00317,0.10413-0.00525,0.20837-0.00525,0.31323c0,2.63257,0.99792,5.03625,2.63501,6.85339
	C16.61731,30.47156,19.43042,25.81384,24.71655,24.1051z"/>
<path fill="#444444" d="M30.79456,16.34851C28.9845,14.74268,26.60437,13.76575,24,13.76575
	c-0.82703,0-1.63123,0.09912-2.40198,0.28491c0.28333,0.37939,2.1449,2.91443,3.82458,6.00037
	C29.06726,18.68494,30.61023,16.61108,30.79456,16.34851z"/>
<path fill="#444444" d="M25.74963,25.70093c-5.78125,2.01453-7.85657,6.02368-8.04102,6.40076
	C19.44641,33.45691,21.63049,34.2655,24,34.2655c1.41992,0,2.77319-0.29041,4.00378-0.8147
	c-0.15247-0.89917-0.74756-4.03333-2.18652-7.77283C25.79468,25.68567,25.77209,25.69299,25.74963,25.70093z"/>
<path fill="#444444" d="M24,0C10.74512,0,0,10.74512,0,24c0,13.25476,10.74512,24,24,24s24-10.74524,24-24
	C48,10.74512,37.25488,0,24,0z M24,36c-6.61682,0-12-5.38318-12-12s5.38318-12,12-12s12,5.38318,12,12S30.61682,36,24,36z"/>
<path fill="#444444" d="M26.21057,21.5752c0.23853,0.48828,0.46716,0.98486,0.68005,1.48462
	c0.07544,0.17725,0.14893,0.35352,0.22083,0.52905c3.41052-0.42883,6.79919,0.25842,7.13721,0.32996
	c-0.02258-2.41931-0.88708-4.64087-2.31458-6.38501C31.7179,17.82617,30.00037,20.02795,26.21057,21.5752z"/>
<path fill="#444444" d="M27.73572,25.20447c1.34058,3.68396,1.88623,6.68445,1.99121,7.30798
	c2.29944-1.55481,3.9364-4.01782,4.39331-6.86987C33.76953,25.53186,30.94763,24.69031,27.73572,25.20447z"/>
</svg>
