<?xml version="1.0" encoding="utf-8"?>
<!-- Generator: Adobe Illustrator 19.1.0, SVG Export Plug-In . SVG Version: 6.00 Build 0)  -->
<!DOCTYPE svg PUBLIC "-//W3C//DTD SVG 1.1//EN" "http://www.w3.org/Graphics/SVG/1.1/DTD/svg11.dtd">
<svg version="1.1" id="Layer_1" xmlns="http://www.w3.org/2000/svg" xmlns:xlink="http://www.w3.org/1999/xlink" x="0px" y="0px"
	 width="48px" height="48px" viewBox="0 0 48 48" enable-background="new 0 0 48 48" xml:space="preserve">
<g>
	<path fill="#444444" d="M25.64185,19.59241c-0.34167-0.4259-0.7644-0.77832-1.13708-1.1759
		c-0.17505-0.15112-0.37854-0.43616-0.64185-0.30444c-0.30591,0.22729-0.55249,0.52246-0.82495,0.78735
		c-2.02698,2.02576-4.05078,4.0564-6.08203,6.07861c-0.14771,0.15466-0.38647,0.38403-0.20007,0.60352
		c0.32251,0.39661,0.6886,0.76794,1.08826,1.08826c0.45361,0.07056,1.04321,0.17517,1.37842-0.22363
		c2.07788-2.0874,4.16321-4.16748,6.24805-6.24805C25.62488,20.047,25.81836,19.80286,25.64185,19.59241z"/>
	<path fill="#444444" d="M24.48303,24.00562c-0.16907-0.14551-0.35559-0.40466-0.61011-0.29541
		c-0.25452,0.15564-0.44409,0.39099-0.65454,0.59534c-1.15186,1.16003-2.30847,2.31323-3.46643,3.46667
		c-0.17603,0.16321-0.38989,0.44678-0.16125,0.66345c0.34302,0.36914,0.67468,0.77478,1.10095,1.04956
		c0.44312,0.0365,1.01111,0.16187,1.33398-0.23389c1.14966-1.16223,2.30969-2.31567,3.46631-3.47107
		c0.14087-0.13977,0.32043-0.36035,0.16602-0.55688C25.30676,24.78149,24.86829,24.41797,24.48303,24.00562z"/>
	<path fill="#444444" d="M24.34888,29.47888c-0.14307-0.1626-0.40759-0.23621-0.58484-0.08704
		c-0.47632,0.43469-0.93652,0.89148-1.36707,1.36963c-0.25549,0.27844,0.05444,0.56824,0.25232,0.76099
		c0.27844,0.25391,0.50806,0.58398,0.84753,0.75598c0.35352,0.05103,0.72485,0.07056,1.07385-0.01392
		c0.38049-0.3042,0.71912-0.66199,1.04285-1.02625c0.17517-0.15869,0.09106-0.41882-0.0636-0.55615
		C25.15686,30.27258,24.75586,29.87195,24.34888,29.47888z"/>
	<path fill="#444444" d="M24,0C10.74512,0,0,10.74512,0,24c0,13.25476,10.74512,24,24,24s24-10.74524,24-24
		C48,10.74512,37.25488,0,24,0z M35.55896,26.8689c-0.26147,0.37793-0.60925,0.68286-0.93054,1.00854
		c-1.97156,1.96802-3.93823,3.94177-5.91064,5.90845c-0.56702,0.57397-1.3772,0.85999-2.17822,0.80896
		c-1.7793-0.00696-3.55957,0.00439-5.34021-0.00562c-0.69507,0.00818-1.38025-0.2804-1.86658-0.77625
		c-2.1759-2.17908-4.354-4.35364-6.53088-6.53149c-0.65015-0.63879-0.96826-1.63281-0.71472-2.52051
		c0.1134-0.49292,0.39099-0.93616,0.74646-1.29077c3.08813-3.08679,6.17627-6.17529,9.26343-9.26343
		c0.35693-0.35657,0.80322-0.62708,1.29749-0.74084c0.5647-0.12024,1.17395-0.08496,1.69995,0.16479
		c0.52954,0.2262,0.90649,0.67627,1.30774,1.07031c2.7439,2.74731,5.49023,5.49231,8.23633,8.23877
		c0.45447,0.45789,0.98047,0.89197,1.19971,1.52136C36.1189,25.24512,36.03955,26.17688,35.55896,26.8689z"/>
</g>
</svg>
