<?xml version="1.0" encoding="utf-8"?>
<!-- Generator: Adobe Illustrator 19.1.0, SVG Export Plug-In . SVG Version: 6.00 Build 0)  -->
<!DOCTYPE svg PUBLIC "-//W3C//DTD SVG 1.1//EN" "http://www.w3.org/Graphics/SVG/1.1/DTD/svg11.dtd">
<svg version="1.1" id="Layer_1" xmlns="http://www.w3.org/2000/svg" xmlns:xlink="http://www.w3.org/1999/xlink" x="0px" y="0px"
	 width="48px" height="48px" viewBox="0 0 48 48" enable-background="new 0 0 48 48" xml:space="preserve">
<path fill="#444444" d="M46,0H2C0.89539,0,0,0.89539,0,2v44c0,1.10449,0.89539,2,2,2h44c1.10461,0,2-0.89551,2-2V2
	C48,0.89539,47.10461,0,46,0z M14,32c-4.41833,0-8-3.58179-8-8c0-4.41833,3.58166-8,8-8s8,3.58167,8,8
	C22,28.41821,18.41833,32,14,32z M34,32c-4.41833,0-8-3.58179-8-8c0-4.41833,3.58167-8,8-8s8,3.58167,8,8
	C42,28.41821,38.41833,32,34,32z"/>
</svg>
