<?xml version="1.0" encoding="utf-8"?>
<!-- Generator: Adobe Illustrator 19.1.0, SVG Export Plug-In . SVG Version: 6.00 Build 0)  -->
<!DOCTYPE svg PUBLIC "-//W3C//DTD SVG 1.1//EN" "http://www.w3.org/Graphics/SVG/1.1/DTD/svg11.dtd">
<svg version="1.1" id="Layer_1" xmlns="http://www.w3.org/2000/svg" xmlns:xlink="http://www.w3.org/1999/xlink" x="0px" y="0px"
	 width="48px" height="48px" viewBox="0 0 48 48" enable-background="new 0 0 48 48" xml:space="preserve">
<path fill="#444444" d="M24,0C10.74512,0,0,10.74512,0,24c0,13.25476,10.74512,24,24,24s24-10.74524,24-24
	C48,10.74512,37.25488,0,24,0z M15.49792,36C13.56604,36,12,34.43384,12,32.50195s1.56604-3.49792,3.49792-3.49792
	s3.49805,1.56604,3.49805,3.49792S17.42981,36,15.49792,36z M24.146,36c0-6.69775-5.44824-12.14612-12.146-12.14612v-3.69226
	c8.73315,0,15.83838,7.10522,15.83838,15.83838H24.146z M32.30774,36c0-11.19775-9.10999-20.30774-20.30774-20.30774V12
	c13.23315,0,24,10.76685,24,24H32.30774z"/>
</svg>
