<?xml version="1.0" encoding="utf-8"?>
<!-- Generator: Adobe Illustrator 19.1.0, SVG Export Plug-In . SVG Version: 6.00 Build 0)  -->
<!DOCTYPE svg PUBLIC "-//W3C//DTD SVG 1.1//EN" "http://www.w3.org/Graphics/SVG/1.1/DTD/svg11.dtd">
<svg version="1.1" id="Layer_1" xmlns="http://www.w3.org/2000/svg" xmlns:xlink="http://www.w3.org/1999/xlink" x="0px" y="0px"
	 width="48px" height="48px" viewBox="0 0 48 48" enable-background="new 0 0 48 48" xml:space="preserve">
<path fill="#444444" d="M46,0H2C0.89543,0,0,0.89543,0,2v44c0,1.10457,0.89543,2,2,2h44c1.10457,0,2-0.89543,2-2V2
	C48,0.89543,47.10457,0,46,0z M14.23893,40.90107H7.11264V17.9948h7.12629V40.90107z M10.67775,14.8652
	c-2.28645,0-4.1302-1.84957-4.1302-4.12887c0-2.27865,1.84375-4.12827,4.1302-4.12827c2.27735,0,4.12625,1.84961,4.12625,4.12827
	C14.804,13.01563,12.95509,14.8652,10.67775,14.8652z M40.90306,40.90107h-7.11853V29.76173c0-2.65627-0.0456-6.0736-3.6992-6.0736
	c-3.7044,0-4.2696,2.8952-4.2696,5.88347v11.32947h-7.11067V17.9948h6.82427v3.13147h0.0976
	c0.9492-1.8008,3.27213-3.69987,6.73573-3.69987c7.20827,0,8.5404,4.74293,8.5404,10.91213V40.90107z"/>
</svg>
