<?xml version="1.0" encoding="utf-8"?>
<!-- Generator: Adobe Illustrator 19.1.0, SVG Export Plug-In . SVG Version: 6.00 Build 0)  -->
<!DOCTYPE svg PUBLIC "-//W3C//DTD SVG 1.1//EN" "http://www.w3.org/Graphics/SVG/1.1/DTD/svg11.dtd">
<svg version="1.1" id="Layer_1" xmlns="http://www.w3.org/2000/svg" xmlns:xlink="http://www.w3.org/1999/xlink" x="0px" y="0px"
	 width="48px" height="48px" viewBox="0 0 48 48" enable-background="new 0 0 48 48" xml:space="preserve">
<path fill="#444444" d="M29.3103,21.9696c-0.96667-0.03406-1.23962,0.77734-1.32153,1.43848
	c0.29089-0.04675,0.60291-0.06726,0.92725-0.05591c0.6084,0.02136,1.16699,0.14966,1.61829,0.35083
	C30.53052,23.01782,30.38049,22.00635,29.3103,21.9696z"/>
<path fill="#444444" d="M24,0C10.74512,0,0,10.74512,0,24c0,13.25476,10.74512,24,24,24s24-10.74524,24-24
	C48,10.74512,37.25488,0,24,0z M14.35388,17.00281l4.37646-4.33997c0.00854-0.00854,0.01721-0.01282,0.02576-0.01428
	l-0.07703,0.14478c-0.16113,0.32202-0.25366,0.70642-0.25366,1.14734v0.00635c0,0.53687,0.02734,2.46729,0.02734,2.46814
	c-0.00024,0.12805-0.10413,0.23315-0.23315,0.23315h-2.25232c-0.00146,0-0.00146,0-0.00146,0
	c-0.55322,0-1.01538,0.09436-1.39648,0.26624c-0.01746,0.00769-0.14124,0.06897-0.23181,0.11377
	C14.33997,17.01892,14.34534,17.00977,14.35388,17.00281z M33.98535,26.45825c-0.31396,3.4021-0.83264,5.42847-1.04724,6.09241
	C31.85413,35.91406,30.92871,36,28.30347,36c-3.34827,0-4.37329-0.49744-4.37329-3.1759c0-2.95044,1.38806-3.01257,3.74719-2.94775
	c0.33789,0.00842-0.01929,0.33862-0.01929,0.90979c0,0.57422,0.22119,0.8009-0.08362,0.8009
	c-0.68225,0-1.60278-0.09753-1.60278,0.83325c0,1.15161,0.55249,1.11401,2.00208,1.11401c1.78821,0,2.13025-0.22327,2.13025-1.85181
	c0-2.67676-0.7572-3.0874-1.80054-3.20728c-1.15393-0.13525-2.28955-0.30835-2.83691-0.50244
	c-1.38672-0.49255-1.28772-2.32825-1.28772-2.84705c0-0.07812-0.10962-0.07471-0.10962,0c0,0.73486-0.05249,1.75024-0.43018,2.89453
	c-0.1178,0.32959-0.20349,0.5542-0.20496,0.55652c-0.43506,0.91199-1.16492,0.59924-2.32788,0.45044
	c-1.16504-0.14844-3.65088-0.66675-4.73914-1.13269c-0.4884-0.22681-0.65405-0.44116-0.90259-0.95569
	c-0.64124-1.32263-1.31641-5.67139-1.39966-6.29395c-0.1001-0.80444-0.10449-1.22009-0.10449-1.22009
	c-0.00134-0.50867,0.0509-1.0072,0.35181-1.41113c0.15112-0.20337,0.3501-0.37524,0.63098-0.50281
	c0.28052-0.12744,0.64771-0.20825,1.12817-0.20825h2.25281c0.49097-0.00061,0.88733-0.39856,0.88757-0.88745
	c0-0.0033-0.0072-0.49451-0.01379-1.0437c-0.00671-0.54736-0.01404-1.16357-0.01404-1.42517
	c0.00098-0.46216,0.11804-0.79297,0.29895-1.05115c0.26978-0.3866,0.75464-0.63745,1.19263-0.75989
	c0.55115-0.15454,2.69788-0.28955,4.08728,0.26965c0.52148,0.21021,0.98755,0.81714,1.08459,1.48169
	c0.80823-0.02502,2.14636-0.03577,3.28491,0.09839c1.41516,0.16675,2.54138,0.37476,3.09692,0.57544
	c0.51477,0.18567,1.08423,0.65759,1.26318,1.61536C33.7981,17.81445,34.18372,24.30713,33.98535,26.45825z"/>
</svg>
