<?xml version="1.0" encoding="utf-8"?>
<!-- Generator: Adobe Illustrator 19.1.0, SVG Export Plug-In . SVG Version: 6.00 Build 0)  -->
<!DOCTYPE svg PUBLIC "-//W3C//DTD SVG 1.1//EN" "http://www.w3.org/Graphics/SVG/1.1/DTD/svg11.dtd">
<svg version="1.1" id="Layer_1" xmlns="http://www.w3.org/2000/svg" xmlns:xlink="http://www.w3.org/1999/xlink" x="0px" y="0px"
	 width="48px" height="48px" viewBox="0 0 48 48" enable-background="new 0 0 48 48" xml:space="preserve">
<g>
	<path fill="#444444" d="M24.05396,14.00854c-5.4541,0-9.88977,4.43396-9.89197,9.88403
		c-0.00073,1.86755,0.52209,3.68665,1.51184,5.26038l0.23511,0.37402l-0.9989,3.64758l3.74231-0.98145l0.36108,0.21423
		c1.51807,0.90063,3.2583,1.3772,5.03247,1.37781h0.00415c5.44983,0,9.8855-4.4342,9.8877-9.88464
		c0.00098-2.64124-1.02649-5.12476-2.89331-6.99304C29.17761,15.03906,26.69495,14.00952,24.05396,14.00854z M29.87,28.14221
		c-0.2478,0.69409-1.4353,1.32776-2.00635,1.41309c-0.51221,0.07642-1.16016,0.1084-1.87231-0.11779
		c-0.43164-0.13697-0.98535-0.31983-1.69458-0.62598c-2.98181-1.28711-4.9292-4.28857-5.07776-4.48694
		c-0.14868-0.19836-1.21375-1.61133-1.21375-3.07397c0-1.46252,0.76782-2.18152,1.04028-2.479
		c0.27246-0.29736,0.59448-0.37183,0.7926-0.37183c0.19824,0,0.39661,0.00183,0.5697,0.0105
		c0.1825,0.00903,0.42761-0.06934,0.66882,0.51013c0.24768,0.59497,0.84216,2.05762,0.9165,2.2063s0.1239,0.32227,0.02478,0.52063
		c-0.09912,0.19824-0.14868,0.32227-0.29724,0.49573c-0.14868,0.17358-0.31213,0.38745-0.44592,0.52063
		c-0.1488,0.14807-0.30371,0.30896-0.13025,0.60645c0.17334,0.29749,0.7699,1.27063,1.65356,2.05859
		c1.13538,1.01233,2.09314,1.32617,2.39038,1.47485c0.29724,0.1488,0.4707,0.1239,0.64404-0.07434
		c0.17334-0.19836,0.74304-0.86768,0.94116-1.16516c0.19824-0.29749,0.39636-0.24792,0.66882-0.14868
		c0.27246,0.09912,1.73389,0.81799,2.03113,0.9668c0.29724,0.14868,0.49536,0.22302,0.5697,0.34705
		C30.11768,26.85315,30.11768,27.44812,29.87,28.14221z"/>
	<path fill="#444444" d="M24,0C10.74512,0,0,10.74512,0,24c0,13.25476,10.74512,24,24,24s24-10.74524,24-24
		C48,10.74512,37.25488,0,24,0z M24.05005,35.7937h-0.00488c-1.99109-0.00073-3.94739-0.5-5.68506-1.44751L12.05371,36
		l1.68774-6.16272c-1.04102-1.80347-1.58887-3.84949-1.58801-5.94556C12.15613,17.33459,17.4928,12,24.04993,12
		c3.18237,0.00122,6.16931,1.23987,8.41528,3.48767c2.24609,2.24792,3.4823,5.23584,3.48108,8.41357
		C35.9436,30.45837,30.60645,35.7937,24.05005,35.7937z"/>
</g>
</svg>
