<?xml version="1.0" encoding="utf-8"?>
<!-- Generator: Adobe Illustrator 19.1.0, SVG Export Plug-In . SVG Version: 6.00 Build 0)  -->
<!DOCTYPE svg PUBLIC "-//W3C//DTD SVG 1.1//EN" "http://www.w3.org/Graphics/SVG/1.1/DTD/svg11.dtd">
<svg version="1.1" id="Layer_1" xmlns="http://www.w3.org/2000/svg" xmlns:xlink="http://www.w3.org/1999/xlink" x="0px" y="0px"
	 width="48px" height="48px" viewBox="0 0 48 48" enable-background="new 0 0 48 48" xml:space="preserve">
<path fill="#444444" d="M24,0C10.74512,0,0,10.74512,0,24c0,13.25476,10.74512,24,24,24s24-10.74524,24-24
	C48,10.74512,37.25488,0,24,0z M25.85168,29.34497c-1.48865,0-2.88843-0.80457-3.36743-1.71826c0,0-0.80078,3.17603-0.96973,3.78931
	c-0.59692,2.16589-2.35291,4.33362-2.48877,4.51111c-0.09521,0.12378-0.30542,0.08484-0.32764-0.07874
	c-0.03784-0.27612-0.48535-3.0094,0.04138-5.23877c0.26453-1.11938,1.77307-7.51172,1.77307-7.51172S20.073,22.21765,20.073,20.9165
	c0-2.04297,1.1842-3.56824,2.65845-3.56824c1.25354,0,1.85925,0.94128,1.85925,2.06958c0,1.26062-0.80261,3.14526-1.21692,4.89172
	c-0.34607,1.46277,0.7334,2.6554,2.17566,2.6554c2.61133,0,4.37048-3.35461,4.37048-7.32947
	c0-3.021-2.03394-5.28296-5.73596-5.28296c-4.18054,0-6.78711,3.11865-6.78711,6.60254c0,1.20068,0.35474,2.04846,0.90991,2.70337
	c0.25476,0.30139,0.29053,0.42261,0.19824,0.76843c-0.06726,0.25391-0.2179,0.86414-0.28162,1.1062
	c-0.09155,0.34949-0.37439,0.47412-0.69006,0.34509c-1.92529-0.78625-2.823-2.89551-2.823-5.26648
	C14.71033,16.6958,18.0127,12,24.56238,12c5.26379,0,8.72729,3.80811,8.72729,7.89734
	C33.28967,25.30493,30.2832,29.34497,25.85168,29.34497z"/>
</svg>
