<?xml version="1.0" encoding="utf-8"?>
<!-- Generator: Adobe Illustrator 19.1.0, SVG Export Plug-In . SVG Version: 6.00 Build 0)  -->
<!DOCTYPE svg PUBLIC "-//W3C//DTD SVG 1.1//EN" "http://www.w3.org/Graphics/SVG/1.1/DTD/svg11.dtd">
<svg version="1.1" id="Layer_1" xmlns="http://www.w3.org/2000/svg" xmlns:xlink="http://www.w3.org/1999/xlink" x="0px" y="0px"
	 width="48px" height="48px" viewBox="0 0 48 48" enable-background="new 0 0 48 48" xml:space="preserve">
<path fill="#444444" d="M24,0C10.74524,0,0,10.74512,0,24c0,13.25476,10.74524,24,24,24c13.25488,0,24-10.74524,24-24
	C48,10.74512,37.25488,0,24,0z M35.85303,34.4624c0,0-2.86414,0.9624-3.92236,1.02112
	c-0.08289,0.005-0.27783-0.50024-0.43311-1.12207c-0.15515-0.62195-0.54187-1.72021-0.85925-2.44043
	c-0.62-1.40686-1.41943-4.06421-2.25684-7.49988c-0.28711-1.17859-0.60718-2.29919-0.71069-2.49048
	c-0.26758-0.49353-0.42688,1.06787-0.56958,5.58569c-0.06616,2.09509-0.26257,4.2915-0.43616,4.88086l-0.31592,1.07141
	c-2.86279,0.26489-1.73621,0.16064-4.70325,0.43494c-0.94153-1.18079-4.1073-6.20959-4.1073-6.20959
	c-0.00171,0.00171,0.54272,4.56848,0.44214,4.95251c-0.16284,0.62207-2.40759,1.50427-3.73206,1.4668
	c-1.09998-0.03137-1.33398-0.4873-1.68408-3.28467c-0.59753-4.77087-0.65063-5.87744-0.47974-9.98145l0.17004-4.07996
	l1.04736-0.28027c1.68665-0.45117,3.56299-0.36426,4.078,0.1886c0.23999,0.25793,1.39111,2.32019,2.55786,4.58325l2.12134,4.1145
	l0.30042-2.26184c0.44263-3.33362,1.76147-7.79639,2.89783-9.80554l0.44641-0.78955l2.10242,0.05139
	c1.72974,0.04248,2.18542,0.13452,2.57092,0.52002c0.59729,0.59741,1.72534,4.86853,3.38489,12.81458
	c0.19739,0.94617,0.51599,2.16492,0.70813,2.70874c0.19189,0.54358,0.34875,1.18591,0.34875,1.42737
	c0,0.24133,0.26782,1.2594,0.59521,2.26233C36.01611,34.14429,36.13867,34.7478,35.85303,34.4624z"/>
</svg>
