<?xml version="1.0" encoding="utf-8"?>
<!-- Generator: Adobe Illustrator 19.1.0, SVG Export Plug-In . SVG Version: 6.00 Build 0)  -->
<!DOCTYPE svg PUBLIC "-//W3C//DTD SVG 1.1//EN" "http://www.w3.org/Graphics/SVG/1.1/DTD/svg11.dtd">
<svg version="1.1" id="Layer_1" xmlns="http://www.w3.org/2000/svg" xmlns:xlink="http://www.w3.org/1999/xlink" x="0px" y="0px"
	 width="48px" height="48px" viewBox="0 0 48 48" enable-background="new 0 0 48 48" xml:space="preserve">
<path fill="#444444" d="M48,23.56604c0-3.18079-2.58777-5.76855-5.76843-5.76855c-1.37695,0-2.64185,0.48572-3.6344,1.29407
	c-3.51831-2.21094-7.9823-3.54236-12.76721-3.82495l2.49634-7.89075l6.85901,1.6145
	c0.17993,2.49768,2.26807,4.47522,4.81079,4.47522c2.6604,0,4.82483-2.16443,4.82483-4.82483
	c0-2.66052-2.16443-4.82495-4.82483-4.82495c-1.86047,0-3.47729,1.0592-4.28198,2.60559l-7.9707-1.8761
	c-0.6676-0.15723-1.34326,0.22681-1.55017,0.88062l-3.09839,9.79407c-5.15576,0.12671-10.0022,1.46265-13.77808,3.8031
	c-0.97913-0.76697-2.21081-1.22559-3.54822-1.22559C2.58777,17.79749,0,20.38525,0,23.56604
	c0,1.9668,0.99011,3.70557,2.49756,4.74695c-0.06262,0.45667-0.09546,0.91809-0.09546,1.38354
	c0,3.97742,2.31116,7.67615,6.50781,10.41504c4.02393,2.62622,9.34839,4.07251,14.99268,4.07251
	c5.64453,0,10.96899-1.44629,14.9928-4.07251c4.19666-2.73889,6.50793-6.43762,6.50793-10.41504
	c0-0.42468-0.02795-0.84607-0.0802-1.26367C46.93091,27.40808,48,25.60999,48,23.56604z M39.99609,6.43762
	c1.21472,0,2.203,0.98828,2.203,2.20313c0,1.21472-0.98828,2.20312-2.203,2.20312s-2.203-0.9884-2.203-2.20312
	C37.79309,7.4259,38.78137,6.43762,39.99609,6.43762z M13.61108,27.1355c0-1.79333,1.50452-3.29773,3.29773-3.29773
	c1.79333,0,3.24866,1.50439,3.24866,3.29773s-1.45532,3.24854-3.24866,3.24854C15.1156,30.38403,13.61108,28.92883,13.61108,27.1355
	z M31.90173,36.69006c-1.67065,1.66907-4.24731,2.48047-7.87695,2.48047c-0.00867,0-0.01697-0.0011-0.02563-0.00122
	c-0.00854,0.00012-0.01685,0.00122-0.02551,0.00122c-3.63025,0-6.20642-0.81152-7.87573-2.48096
	c-0.51196-0.51184-0.51196-1.34192,0-1.85388c0.51196-0.51172,1.34192-0.51184,1.85388,0.00012
	c1.15259,1.15259,3.12244,1.71289,6.02185,1.71289c0.00867,0,0.01697,0.00122,0.02551,0.00134
	c0.00867-0.00012,0.01697-0.00134,0.02563-0.00134c2.89941,0,4.86987-0.56042,6.02393-1.71338
	c0.51221-0.51172,1.34216-0.51123,1.85388,0.00085C32.41431,35.34839,32.41394,36.17834,31.90173,36.69006z M31.14026,30.38403
	c-1.79419,0-3.30176-1.45435-3.30176-3.24854s1.50757-3.29773,3.30176-3.29773c1.79431,0,3.24866,1.50354,3.24866,3.29773
	S32.93457,30.38403,31.14026,30.38403z"/>
</svg>
