<?xml version="1.0" encoding="utf-8"?>
<!-- Generator: Adobe Illustrator 19.1.0, SVG Export Plug-In . SVG Version: 6.00 Build 0)  -->
<!DOCTYPE svg PUBLIC "-//W3C//DTD SVG 1.1//EN" "http://www.w3.org/Graphics/SVG/1.1/DTD/svg11.dtd">
<svg version="1.1" id="Layer_1" xmlns="http://www.w3.org/2000/svg" xmlns:xlink="http://www.w3.org/1999/xlink" x="0px" y="0px"
	 width="48px" height="48px" viewBox="0 0 48 48" enable-background="new 0 0 48 48" xml:space="preserve">
<path fill="#444444" d="M28.25793,26.87463h-8.53992c-0.80188,0-1.45142,0.64954-1.45142,1.44336
	c0,0.78589,0.64954,1.44336,1.45142,1.44336h8.53992c0.79382,0,1.44336-0.65747,1.44336-1.44336
	C29.70129,27.52417,29.05176,26.87463,28.25793,26.87463z"/>
<path fill="#444444" d="M19.71802,21.09314h4.20178c0.80188,0,1.45142-0.65747,1.45142-1.45129
	c0-0.79395-0.64954-1.44336-1.45142-1.44336h-4.20178c-0.80188,0-1.45142,0.64941-1.45142,1.44336
	C18.2666,20.43567,18.91614,21.09314,19.71802,21.09314z"/>
<path fill="#444444" d="M42,0H6C2.68628,0,0,2.68628,0,6v36c0,3.31372,2.68628,6,6,6h36c3.31372,0,6-2.68628,6-6V6
	C48,2.68628,45.31372,0,42,0z M35.90784,28.4303C35.88379,32.59204,32.49988,36,28.33008,36h-8.70825
	c-4.1698,0-7.57776-3.40796-7.57776-7.5697v-8.8446c0-4.1698,3.40796-7.58569,7.57776-7.58569h5.30029
	c2.28625,0,4.80322,1.90845,5.85364,4.13757c0.2887,0.62549,0.40417,0.98523,0.68164,2.5741
	c0.16565,0.94836,0.1925,1.65979,0.61743,2.05273c0.60144,0.54529,2.7666,0.30469,3.27161,0.52124
	c0.6095,0.26123,0.6095,1.01831,0.6095,1.01831L35.90784,28.4303z"/>
</svg>
