<?xml version="1.0" encoding="utf-8"?>
<!-- Generator: Adobe Illustrator 19.1.0, SVG Export Plug-In . SVG Version: 6.00 Build 0)  -->
<!DOCTYPE svg PUBLIC "-//W3C//DTD SVG 1.1//EN" "http://www.w3.org/Graphics/SVG/1.1/DTD/svg11.dtd">
<svg version="1.1" id="Layer_1" xmlns="http://www.w3.org/2000/svg" xmlns:xlink="http://www.w3.org/1999/xlink" x="0px" y="0px"
	 width="48px" height="48px" viewBox="0 0 48 48" enable-background="new 0 0 48 48" xml:space="preserve">
<path fill="#444444" d="M26.14124,22.62695l-2.65088-0.58826c-1.00769-0.22998-2.1687-0.53333-2.1687-1.48401
	c0-0.95239,0.81433-1.61804,2.28418-1.61804c2.96191,0,2.69092,2.03528,4.16162,2.03528c0.7738,0,1.45117-0.45483,1.45117-1.23706
	c0-1.82568-2.92188-3.19531-5.40015-3.19531c-2.69067,0-5.55566,1.14233-5.55566,4.18555c0,1.46558,0.52332,3.02466,3.40735,3.7478
	l3.58105,0.89404c1.08386,0.26709,1.3551,0.87683,1.3551,1.42664c0,0.91455-0.90894,1.80823-2.55432,1.80823
	c-3.21472,0-2.76855-2.47412-4.49158-2.47412c-0.77429,0-1.33594,0.5332-1.33594,1.29419c0,1.48364,1.80103,3.46301,5.82751,3.46301
	c3.83081,0,5.72864-1.84644,5.72864-4.31921C29.78064,24.96875,29.04456,23.27356,26.14124,22.62695z"/>
<path fill="#444444" d="M24,0C10.74512,0,0,10.74512,0,24c0,13.25476,10.74512,24,24,24s24-10.74524,24-24
	C48,10.74512,37.25488,0,24,0z M34.03503,34.00635c-1.26721,1.26794-2.95117,1.96484-4.74329,1.96484
	c-1.16016,0-2.29675-0.30176-3.30042-0.86963c-0.65137,0.1156-1.31873,0.17615-1.98462,0.17615
	c-1.53003,0-3.01465-0.29956-4.41138-0.89197c-1.35034-0.56934-2.56189-1.38745-3.60303-2.42786
	c-1.04041-1.04053-1.85767-2.25208-2.42786-3.60217c-0.59155-1.39734-0.89111-2.88147-0.89111-4.41138
	c0-0.6554,0.05896-1.3114,0.17065-1.95337C12.29321,21.00012,12,19.87891,12,18.73828c0-1.79211,0.69812-3.47717,1.96497-4.74414
	c1.26721-1.26758,2.95191-1.96545,4.74402-1.96545c1.0979,0,2.18213,0.2738,3.14636,0.7865
	c0.00195-0.00049,0.00366-0.00061,0.00366-0.00061c0.70459-0.13501,1.42651-0.20276,2.14771-0.20276
	c1.52954,0,3.01392,0.29932,4.41064,0.8905c1.34912,0.5708,2.56177,1.38757,3.60181,2.42834
	c1.0415,1.04065,1.85815,2.25269,2.42896,3.60242c0.59167,1.39697,0.89124,2.88123,0.89124,4.41125
	c0,0.68982-0.06506,1.38-0.1886,2.05408C35.70532,26.99316,36,28.11816,36,29.26257
	C36,31.05481,35.30261,32.73999,34.03503,34.00635z"/>
</svg>
