<?xml version="1.0" encoding="utf-8"?>
<!-- Generator: Adobe Illustrator 19.1.0, SVG Export Plug-In . SVG Version: 6.00 Build 0)  -->
<!DOCTYPE svg PUBLIC "-//W3C//DTD SVG 1.1//EN" "http://www.w3.org/Graphics/SVG/1.1/DTD/svg11.dtd">
<svg version="1.1" id="Layer_1" xmlns="http://www.w3.org/2000/svg" xmlns:xlink="http://www.w3.org/1999/xlink" x="0px" y="0px"
	 width="48px" height="48px" viewBox="0 0 48 48" enable-background="new 0 0 48 48" xml:space="preserve">
<path fill="#444444" d="M38.99513,44.7229c-0.31047-1.24379-1.08379-3.44041-1.71854-4.88086
	c-1.23997-2.81376-2.83899-8.12842-4.51372-14.99971c-0.57428-2.3571-1.21427-4.59848-1.4214-4.98086
	c-0.53523-0.98712-0.85379,2.13567-1.13902,11.17122c-0.13238,4.1904-0.52523,8.58316-0.87236,9.76172l-0.6319,2.14281
	c-5.72571,0.52985-3.47239,0.32146-9.40648,0.86998c-1.88297-2.36158-8.2146-12.41928-8.2146-12.41928
	c-0.00348,0.00345,1.08536,9.13701,0.88427,9.90504c-0.32571,1.24427-4.81515,3.00851-7.46414,2.93375
	c-2.19996-0.06286-2.66804-0.97474-3.36803-6.5694c-1.19521-9.54172-1.3014-11.75502-0.95951-19.96295l0.33999-8.15984
	L2.6044,8.97405c3.37327-0.90237,7.12605-0.72856,8.15603,0.37714c0.47999,0.5157,2.78233,4.64038,5.11562,9.16649l4.24278,8.22889
	l0.60094-4.52372c0.88522-6.66702,3.52279-15.59256,5.7956-19.61105l0.89284-1.57901l4.20468,0.10286
	c3.45946,0.08476,4.37087,0.26904,5.14181,1.03998c1.19474,1.19474,3.45088,9.73695,6.76987,25.62903
	c0.39475,1.89234,1.03189,4.32992,1.41616,5.41751c0.3838,1.08713,0.6976,2.37186,0.6976,2.85471s0.53571,2.519,1.19046,4.52467
	c1.2033,3.68707,1.44854,4.89419,0.87712,4.32325c0,0-5.72824,1.92484-7.84461,2.04234
	C39.6956,46.97714,39.30561,45.96668,38.99513,44.7229L38.99513,44.7229z"/>
</svg>
