<?xml version="1.0" encoding="utf-8"?>
<!-- Generator: Adobe Illustrator 19.1.0, SVG Export Plug-In . SVG Version: 6.00 Build 0)  -->
<!DOCTYPE svg PUBLIC "-//W3C//DTD SVG 1.1//EN" "http://www.w3.org/Graphics/SVG/1.1/DTD/svg11.dtd">
<svg version="1.1" id="Layer_1" xmlns="http://www.w3.org/2000/svg" xmlns:xlink="http://www.w3.org/1999/xlink" x="0px" y="0px"
	 width="48px" height="48px" viewBox="0 0 48 48" enable-background="new 0 0 48 48" xml:space="preserve">
<path fill="#444444" d="M42,0H6C2.68628,0,0,2.68628,0,6v36c0,3.31372,2.68628,6,6,6h36c3.31372,0,6-2.68628,6-6V6
	C48,2.68628,45.31372,0,42,0z M33.17249,30.31506c-3.04639,6.60059-10.69446,6.60083-14.57092,4.27502
	c-3.31165-1.98694-8.36926-8.2489-2.76965-15.89563c0.23706-0.28979,0.8053-0.26343,0.67737,0.6134
	c-0.09082,0.62231-0.9032,5.09155,0.64722,7.03333c0.70752,0.97095,0.87305,0.30103,0.87305,0.30103
	s-0.12036-6.50269,4.90723-11.43994c3.19116-3.01062,7.61658-3.49231,8.48962-3.0708
	C32.51929,12.65906,36.96582,22.09631,33.17249,30.31506z"/>
</svg>
