<?xml version="1.0" encoding="utf-8"?>
<!-- Generator: Adobe Illustrator 19.1.0, SVG Export Plug-In . SVG Version: 6.00 Build 0)  -->
<!DOCTYPE svg PUBLIC "-//W3C//DTD SVG 1.1//EN" "http://www.w3.org/Graphics/SVG/1.1/DTD/svg11.dtd">
<svg version="1.1" id="Layer_1" xmlns="http://www.w3.org/2000/svg" xmlns:xlink="http://www.w3.org/1999/xlink" x="0px" y="0px"
	 width="48px" height="48px" viewBox="0 0 48 48" enable-background="new 0 0 48 48" xml:space="preserve">
<path fill="#444444" d="M24,0C10.74512,0,0,10.74512,0,24c0,13.25476,10.74512,24,24,24s24-10.74524,24-24
	C48,10.74512,37.25488,0,24,0z M12.53748,28.71936c-0.01709,0.05908-0.10217,0.10022-0.20642,0.10022
	c-0.10596,0-0.19312-0.04224-0.20703-0.10083l-0.48889-2.1825l0.48889-2.23206c0.0144-0.05798,0.10156-0.10022,0.20703-0.10022
	c0.10474,0,0.18982,0.04089,0.20691,0.10022l0.55579,2.23206L12.53748,28.71936z M16.7085,29.19214v-0.00085
	c-0.01331,0.104-0.19922,0.18604-0.42358,0.18604c-0.22559,0-0.41162-0.08179-0.42297-0.18542l-0.43799-2.65381l0.43799-4.10632
	c0.01086-0.10425,0.19739-0.18628,0.42297-0.18628c0.22437,0,0.41028,0.08203,0.42358,0.18628l0.49512,4.10632L16.7085,29.19214z
	 M21.09558,29.1095v-0.00183c-0.01074,0.15234-0.33057,0.27185-0.72729,0.27185c-0.39966,0-0.71948-0.11951-0.72803-0.27026
	l-0.38464-2.56897l0.38391-5.50696c0.00854-0.15234,0.32837-0.27148,0.72803-0.27148c0.39673,0,0.71655,0.11914,0.72729,0.27148
	l0.43237,5.50671L21.09558,29.1095z M32.94324,29.39661c-0.05457,0-8.46558-0.00427-8.47339-0.00513
	c-0.1825-0.01843-0.32764-0.17419-0.33008-0.36133v-9.70203c0.0022-0.17822,0.0636-0.27014,0.29431-0.35938
	c0.59363-0.22961,1.26575-0.36536,1.95532-0.36536c2.81812,0,5.12842,2.16113,5.3717,4.91614
	c0.36401-0.15259,0.76355-0.2373,1.18237-0.2373c1.68811,0,3.05652,1.3689,3.05652,3.05737
	C36,28.02795,34.63135,29.39661,32.94324,29.39661z"/>
</svg>
