<?xml version="1.0" encoding="utf-8"?>
<!-- Generator: Adobe Illustrator 19.1.0, SVG Export Plug-In . SVG Version: 6.00 Build 0)  -->
<!DOCTYPE svg PUBLIC "-//W3C//DTD SVG 1.1//EN" "http://www.w3.org/Graphics/SVG/1.1/DTD/svg11.dtd">
<svg version="1.1" id="Layer_1" xmlns="http://www.w3.org/2000/svg" xmlns:xlink="http://www.w3.org/1999/xlink" x="0px" y="0px"
	 width="48px" height="48px" viewBox="0 0 48 48" enable-background="new 0 0 48 48" xml:space="preserve">
<path fill="#444444" d="M24,0C10.74512,0,0,10.74512,0,24c0,13.25476,10.74512,24,24,24s24-10.74524,24-24
	C48,10.74512,37.25488,0,24,0z M19.33337,34.96082C13.06763,34.96082,8,29.89319,8,23.62744s5.06763-11.33337,11.33337-11.33337
	c3.05994,0,5.61804,1.11719,7.59326,2.96289l-3.07617,2.96289c-0.84192-0.80957-2.31519-1.74854-4.51709-1.74854
	c-3.86963,0-7.02673,3.20569-7.02673,7.15613s3.1571,7.15613,7.02673,7.15613c4.39661,0,6.09192-3.08813,6.40137-4.78113H20v-4
	l10.03528,0.00598C31.14648,28.48914,27.13037,34.96082,19.33337,34.96082z M40,24h-2v2h-2v-2h-2v-2h2v-2h2v2h2V24z"/>
</svg>
