<?xml version="1.0" encoding="utf-8"?>
<!-- Generator: Adobe Illustrator 19.1.0, SVG Export Plug-In . SVG Version: 6.00 Build 0)  -->
<!DOCTYPE svg PUBLIC "-//W3C//DTD SVG 1.1//EN" "http://www.w3.org/Graphics/SVG/1.1/DTD/svg11.dtd">
<svg version="1.1" id="Layer_1" xmlns="http://www.w3.org/2000/svg" xmlns:xlink="http://www.w3.org/1999/xlink" x="0px" y="0px"
	 width="48px" height="48px" viewBox="0 0 48 48" enable-background="new 0 0 48 48" xml:space="preserve">
<path fill="#444444" d="M24,0C10.74512,0,0,10.74512,0,24c0,13.25476,10.74512,24,24,24s24-10.74524,24-24
	C48,10.74512,37.25488,0,24,0z M33.54309,19.10559c0.0094,0.21118,0.01428,0.42346,0.01428,0.63696
	c0,6.50671-4.95264,14.00952-14.00952,14.00952c-2.78064,0-5.36877-0.81506-7.54785-2.21216
	c0.38513,0.04553,0.7771,0.06885,1.17456,0.06885c2.30688,0,4.43005-0.78723,6.11523-2.10779
	c-2.15466-0.03979-3.97314-1.46338-4.59973-3.41956c0.30066,0.05737,0.60913,0.08826,0.92639,0.08826
	c0.4491,0,0.88403-0.06018,1.29724-0.17261c-2.25244-0.45227-3.94971-2.44238-3.94971-4.82812c0-0.02075,0-0.04138,0.00037-0.06189
	c0.66394,0.36877,1.4231,0.59033,2.23022,0.61584c-1.32117-0.88306-2.19043-2.39014-2.19043-4.09839
	c0-0.90234,0.2428-1.74817,0.66663-2.47546c2.42859,2.979,6.05664,4.93933,10.14892,5.14465
	c-0.08398-0.36035-0.12756-0.73621-0.12756-1.12207c0-2.71924,2.20471-4.92383,4.92407-4.92383
	c1.41614,0,2.6958,0.59802,3.59399,1.55493c1.1217-0.22083,2.17542-0.63062,3.12671-1.19482
	c-0.36755,1.14978-1.14832,2.11475-2.16492,2.72412c0.99609-0.11902,1.94495-0.38379,2.828-0.77539
	C35.33984,17.54407,34.505,18.41138,33.54309,19.10559z"/>
</svg>
