<?xml version="1.0" encoding="utf-8"?>
<!-- Generator: Adobe Illustrator 19.1.0, SVG Export Plug-In . SVG Version: 6.00 Build 0)  -->
<!DOCTYPE svg PUBLIC "-//W3C//DTD SVG 1.1//EN" "http://www.w3.org/Graphics/SVG/1.1/DTD/svg11.dtd">
<svg version="1.1" id="Layer_1" xmlns="http://www.w3.org/2000/svg" xmlns:xlink="http://www.w3.org/1999/xlink" x="0px" y="0px"
	 width="48px" height="48px" viewBox="0 0 48 48" enable-background="new 0 0 48 48" xml:space="preserve">
<path fill="#444444" d="M24.18933,24.94336l-3.23743,9.40625c0.9668,0.2843,1.98901,0.43958,3.04797,0.43958
	c1.25635,0,2.46143-0.21692,3.58276-0.61169c-0.02856-0.04614-0.05542-0.09534-0.07727-0.14868L24.18933,24.94336z"/>
<path fill="#444444" d="M31.2832,23.45544c0-1.33386-0.47925-2.25696-0.88953-2.97546
	c-0.54675-0.88916-1.05981-1.64136-1.05981-2.53052c0-0.99158,0.75208-1.91479,1.81177-1.91479
	c0.04785,0,0.09326,0.00586,0.13977,0.00879c-1.91943-1.75879-4.47681-2.83264-7.28552-2.83264
	c-3.76929,0-7.08521,1.93408-9.01428,4.86279c0.2533,0.00806,0.49182,0.01306,0.69434,0.01306
	c1.12817,0,2.87537-0.13721,2.87537-0.13721c0.58142-0.03406,0.65002,0.82043,0.06909,0.88916c0,0-0.58472,0.06836-1.23474,0.10254
	l3.92871,11.68652l2.36133-7.08105l-1.68079-4.60547c-0.5813-0.03418-1.13171-0.10254-1.13171-0.10254
	c-0.58154-0.03442-0.51331-0.92322,0.06848-0.88916c0,0,1.78137,0.13721,2.84143,0.13721c1.12817,0,2.87561-0.13721,2.87561-0.13721
	c0.58167-0.03406,0.65015,0.82043,0.06885,0.88916c0,0-0.58533,0.06836-1.23474,0.10254l3.89905,11.59753l1.07642-3.59546
	C30.92798,25.45032,31.2832,24.37866,31.2832,23.45544z"/>
<path fill="#444444" d="M13.21118,23.99951c0,4.27039,2.48145,7.9613,6.08069,9.70984l-5.14648-14.10059
	C13.54663,20.95044,13.21118,22.4353,13.21118,23.99951z"/>
<path fill="#444444" d="M29.42407,33.32495c3.2074-1.87012,5.3645-5.34509,5.3645-9.32544
	c0-1.87573-0.47925-3.63916-1.32141-5.17578c0.04639,0.34351,0.07263,0.71216,0.07263,1.10938
	c0,1.09436-0.20508,2.32507-0.82043,3.86426L29.42407,33.32495z"/>
<path fill="#444444" d="M42,0H6C2.68628,0,0,2.68628,0,6v36c0,3.31372,2.68628,6,6,6h36c3.31372,0,6-2.68628,6-6V6
	C48,2.68628,45.31372,0,42,0z M23.99988,36c-6.6167,0-11.99976-5.38354-11.99976-12.00049
	C12.00012,17.38293,17.38318,12,23.99988,12c6.61658,0,12,5.38293,12,11.99951C35.99988,30.61646,30.61646,36,23.99988,36z"/>
</svg>
