<?xml version="1.0" encoding="utf-8"?>
<!-- Generator: Adobe Illustrator 19.1.0, SVG Export Plug-In . SVG Version: 6.00 Build 0)  -->
<!DOCTYPE svg PUBLIC "-//W3C//DTD SVG 1.1//EN" "http://www.w3.org/Graphics/SVG/1.1/DTD/svg11.dtd">
<svg version="1.1" id="Layer_1" xmlns="http://www.w3.org/2000/svg" xmlns:xlink="http://www.w3.org/1999/xlink" x="0px" y="0px"
	 width="48px" height="48px" viewBox="0 0 48 48" enable-background="new 0 0 48 48" xml:space="preserve">
<path fill="#444444" d="M24,0C10.74512,0,0,10.74512,0,24c0,13.25476,10.74512,24,24,24s24-10.74524,24-24
	C48,10.74512,37.25488,0,24,0z M26.74072,35.99841c-5.22791,0.08923-7.20898-3.72485-7.20898-6.4093v-7.84192h-2.42834v-3.1001
	c3.64026-1.31226,4.51636-4.59619,4.72192-6.46741C21.83936,12.05103,21.94031,12,21.9978,12c0.05762,0,3.51587,0,3.51587,0v6.11389
	h4.80164v3.6333h-4.81921v7.47083c0.01648,1.01697,0.38855,2.41785,2.30981,2.36621
	c0.63647-0.01648,1.49011-0.20203,1.93628-0.41443l1.15442,3.42297C30.46326,35.22925,28.50452,35.9679,26.74072,35.99841z"/>
</svg>
