<?xml version="1.0" encoding="utf-8"?>
<!-- Generator: Adobe Illustrator 19.1.0, SVG Export Plug-In . SVG Version: 6.00 Build 0)  -->
<!DOCTYPE svg PUBLIC "-//W3C//DTD SVG 1.1//EN" "http://www.w3.org/Graphics/SVG/1.1/DTD/svg11.dtd">
<svg version="1.1" id="Layer_1" xmlns="http://www.w3.org/2000/svg" xmlns:xlink="http://www.w3.org/1999/xlink" x="0px" y="0px"
	 width="48px" height="48px" viewBox="0 0 48 48" enable-background="new 0 0 48 48" xml:space="preserve">
<path fill="#444444" d="M42,0H6C2.68628,0,0,2.68628,0,6v36c0,3.31372,2.68628,6,6,6h36c3.31372,0,6-2.68628,6-6V6
	C48,2.68628,45.31372,0,42,0z M31.80322,16.67139c2.10828,0,3.81799,1.70374,3.81799,3.80457
	c0,2.10132-1.70972,3.80444-3.81799,3.80444c-2.10974,0-3.81982-1.70312-3.81982-3.80444
	C27.9834,18.37512,29.69348,16.67139,31.80322,16.67139z M23.20068,18.13635c1.89758,0,3.43701,1.5332,3.43701,3.42468
	c0,1.89087-1.53943,3.42407-3.43701,3.42407c-1.89856,0-3.43738-1.5332-3.43738-3.42407
	C19.76331,19.66956,21.30212,18.13635,23.20068,18.13635z M15.39954,19.45679c1.70825,0,3.09351,1.37927,3.09351,3.08179
	c0,1.70178-1.38525,3.08057-3.09351,3.08057c-1.70874,0-3.09351-1.37878-3.09351-3.08057
	C12.30603,20.83606,13.6908,19.45679,15.39954,19.45679z M18.79883,31.02026c0,0.16931-0.13855,0.30823-0.30945,0.30823h-0.10925
	h-5.96155h-0.10962C12.13855,31.32849,12,31.18958,12,31.02026v-1.19714c0-1.77869,1.43811-3.50037,3.39966-3.50037
	c1.96143,0,3.39917,1.72168,3.39917,3.50037V31.02026z M26.97803,30.98584c0,0.18823-0.15381,0.34265-0.34412,0.34265h-0.12146
	h-6.62439h-0.12183c-0.18933,0-0.34338-0.15442-0.34338-0.34265v-1.33032c0-1.97644,1.59827-3.88965,3.77771-3.88965
	s3.77747,1.91321,3.77747,3.88965V30.98584z M36,30.94788c0,0.20911-0.17114,0.38062-0.38257,0.38062h-0.13452h-7.36023h-0.1355
	c-0.21045,0-0.38159-0.17151-0.38159-0.38062v-1.47791c0-2.19641,1.77563-4.3219,4.19727-4.3219
	c2.42175,0,4.19714,2.12549,4.19714,4.3219V30.94788z"/>
</svg>
