<?xml version="1.0" encoding="utf-8"?>
<!-- Generator: Adobe Illustrator 19.1.0, SVG Export Plug-In . SVG Version: 6.00 Build 0)  -->
<!DOCTYPE svg PUBLIC "-//W3C//DTD SVG 1.1//EN" "http://www.w3.org/Graphics/SVG/1.1/DTD/svg11.dtd">
<svg version="1.1" id="Layer_1" xmlns="http://www.w3.org/2000/svg" xmlns:xlink="http://www.w3.org/1999/xlink" x="0px" y="0px"
	 width="64px" height="64px" viewBox="0 0 64 64" enable-background="new 0 0 64 64" xml:space="preserve">
<path d="M62,13H40.4l-7.7-7.7C32.5,5.1,32.3,5,32,5H20c-0.3,0-0.5,0.1-0.7,0.3L11.6,13H2c-0.6,0-1,0.4-1,1v44c0,0.6,0.4,1,1,1h60
	c0.6,0,1-0.4,1-1V14C63,13.4,62.6,13,62,13z M43,48c0,0.6-0.4,1-1,1H10c-0.6,0-1-0.4-1-1V24c0-0.6,0.4-1,1-1h32c0.6,0,1,0.4,1,1V48z
	 M52,49c-1.7,0-3-1.3-3-3s1.3-3,3-3s3,1.3,3,3S53.7,49,52,49z M54,31h-4c-0.6,0-1-0.4-1-1s0.4-1,1-1h4c0.6,0,1,0.4,1,1
	S54.6,31,54,31z M54,25h-4c-0.6,0-1-0.4-1-1s0.4-1,1-1h4c0.6,0,1,0.4,1,1S54.6,25,54,25z"/>
</svg>
