<?xml version="1.0" encoding="utf-8"?>
<!-- Generator: Adobe Illustrator 19.1.0, SVG Export Plug-In . SVG Version: 6.00 Build 0)  -->
<!DOCTYPE svg PUBLIC "-//W3C//DTD SVG 1.1//EN" "http://www.w3.org/Graphics/SVG/1.1/DTD/svg11.dtd">
<svg version="1.1" id="Layer_1" xmlns="http://www.w3.org/2000/svg" xmlns:xlink="http://www.w3.org/1999/xlink" x="0px" y="0px"
	 width="64px" height="64px" viewBox="0 0 64 64" enable-background="new 0 0 64 64" xml:space="preserve">
<path d="M20,13c0.6,0,1-0.4,1-1s-0.4-1-1-1c-6.1,0-11,4.9-11,11c0,0.6,0.4,1,1,1s1-0.4,1-1C11,17,15,13,20,13z"/>
<path d="M21,4c0-0.6-0.4-1-1-1C9.5,3,1,11.5,1,22c0,0.6,0.4,1,1,1s1-0.4,1-1c0-9.4,7.6-17,17-17C20.6,5,21,4.6,21,4z"/>
<path d="M56.4,16C54,15.8,52,17.7,52,20l0-3.8c0-2.1-1.5-4-3.6-4.2C46,11.8,44,13.7,44,16l0-3.8c0-2.1-1.5-4-3.6-4.2
	C38,7.8,36,9.7,36,12v4c0-2.3-2-4.2-4.4-4c-2.1,0.2-3.6,2.1-3.6,4.2L28,42l-6.5-6.5c-2-2-5.2-2.3-7.6-0.7l-1.1,0.7
	c-0.5,0.3-0.6,0.9-0.3,1.4l12.9,20.2c0.4,0.6,1,0.9,1.7,0.9H58c1.1,0,2-0.9,2-2l0-35.8C60,18.1,58.5,16.2,56.4,16z"/>
</svg>
