<?xml version="1.0" encoding="utf-8"?>
<!-- Generator: Adobe Illustrator 19.1.0, SVG Export Plug-In . SVG Version: 6.00 Build 0)  -->
<!DOCTYPE svg PUBLIC "-//W3C//DTD SVG 1.1//EN" "http://www.w3.org/Graphics/SVG/1.1/DTD/svg11.dtd">
<svg version="1.1" id="Layer_1" xmlns="http://www.w3.org/2000/svg" xmlns:xlink="http://www.w3.org/1999/xlink" x="0px" y="0px"
	 width="64px" height="64px" viewBox="0 0 64 64" enable-background="new 0 0 64 64" xml:space="preserve">
<path d="M46,17H2c-0.6,0-1,0.4-1,1v44c0,0.6,0.4,1,1,1h44c0.6,0,1-0.4,1-1V18C47,17.4,46.6,17,46,17z"/>
<path d="M54,9H10c-0.6,0-1,0.4-1,1v4c0,0.6,0.4,1,1,1h39v39c0,0.6,0.4,1,1,1h4c0.6,0,1-0.4,1-1V10C55,9.4,54.6,9,54,9z"/>
<path d="M62,1H18c-0.6,0-1,0.4-1,1v4c0,0.6,0.4,1,1,1h39v39c0,0.6,0.4,1,1,1h4c0.6,0,1-0.4,1-1V2C63,1.4,62.6,1,62,1z"/>
</svg>
