<?xml version="1.0" encoding="utf-8"?>
<!-- Generator: Adobe Illustrator 19.1.0, SVG Export Plug-In . SVG Version: 6.00 Build 0)  -->
<!DOCTYPE svg PUBLIC "-//W3C//DTD SVG 1.1//EN" "http://www.w3.org/Graphics/SVG/1.1/DTD/svg11.dtd">
<svg version="1.1" id="Layer_1" xmlns="http://www.w3.org/2000/svg" xmlns:xlink="http://www.w3.org/1999/xlink" x="0px" y="0px"
	 width="64px" height="64px" viewBox="0 0 64 64" enable-background="new 0 0 64 64" xml:space="preserve">
<path d="M22,63c6.1,0,11-4.9,11-11V21.9c2.5-0.6,11.1-1.9,20.4,2.8c0.1,0.1,0.3,0.1,0.5,0.1c0.2,0,0.5-0.1,0.6-0.2
	c0.3-0.3,0.4-0.7,0.3-1.1C50.3,9.3,36.8,6.9,33,6.5V2c0-0.6-0.4-1-1-1s-1,0.4-1,1v43.7c-2-2.8-5.3-4.7-9-4.7c-6.1,0-11,4.9-11,11
	S15.9,63,22,63z"/>
</svg>
