<?xml version="1.0" encoding="utf-8"?>
<!-- Generator: Adobe Illustrator 19.1.0, SVG Export Plug-In . SVG Version: 6.00 Build 0)  -->
<!DOCTYPE svg PUBLIC "-//W3C//DTD SVG 1.1//EN" "http://www.w3.org/Graphics/SVG/1.1/DTD/svg11.dtd">
<svg version="1.1" id="Layer_1" xmlns="http://www.w3.org/2000/svg" xmlns:xlink="http://www.w3.org/1999/xlink" x="0px" y="0px"
	 width="64px" height="64px" viewBox="0 0 64 64" enable-background="new 0 0 64 64" xml:space="preserve">
<path d="M58,1H6C5.4,1,5,1.4,5,2v60c0,0.6,0.4,1,1,1h52c0.6,0,1-0.4,1-1V2C59,1.4,58.6,1,58,1z M51,42c0,0.6-0.4,1-1,1h-6v-1
	c0-5-4.4-9-9.8-9h-4.4c-5.4,0-9.8,4-9.8,9v1h-6c-0.6,0-1-0.4-1-1V10c0-0.6,0.4-1,1-1h36c0.6,0,1,0.4,1,1V42z"/>
<path d="M32,17c-3.9,0-7,3.1-7,7s3.1,7,7,7s7-3.1,7-7S35.9,17,32,17z"/>
</svg>
