<?xml version="1.0" encoding="utf-8"?>
<!-- Generator: Adobe Illustrator 19.1.0, SVG Export Plug-In . SVG Version: 6.00 Build 0)  -->
<!DOCTYPE svg PUBLIC "-//W3C//DTD SVG 1.1//EN" "http://www.w3.org/Graphics/SVG/1.1/DTD/svg11.dtd">
<svg version="1.1" id="Layer_1" xmlns="http://www.w3.org/2000/svg" xmlns:xlink="http://www.w3.org/1999/xlink" x="0px" y="0px"
	 width="64px" height="64px" viewBox="0 0 64 64" enable-background="new 0 0 64 64" xml:space="preserve">
<path d="M58.9,25.6C58.8,25.3,58.4,25,58,25H35.2L39,8.2c0.1-0.4-0.1-0.9-0.5-1.1c-0.4-0.2-0.9-0.2-1.2,0.1l-32,30
	C5,37.6,4.9,38,5.1,38.4C5.2,38.7,5.6,39,6,39h22.8L25,55.8c-0.1,0.4,0.1,0.9,0.5,1.1C25.7,57,25.8,57,26,57c0.2,0,0.5-0.1,0.7-0.3
	l32-30C59,26.4,59.1,26,58.9,25.6z"/>
<path d="M52.9,43.5c-0.4-0.6-1.4-0.6-1.7,0l-9,16c-0.3,0.5-0.1,1.1,0.4,1.4c0.5,0.3,1.1,0.1,1.4-0.4L47,55H57l3.1,5.5
	c0.2,0.3,0.5,0.5,0.9,0.5c0.2,0,0.3,0,0.5-0.1c0.5-0.3,0.7-0.9,0.4-1.4L52.9,43.5z M48.1,53l3.9-7l3.9,7H48.1z"/>
</svg>
