<?xml version="1.0" encoding="utf-8"?>
<!-- Generator: Adobe Illustrator 19.1.0, SVG Export Plug-In . SVG Version: 6.00 Build 0)  -->
<!DOCTYPE svg PUBLIC "-//W3C//DTD SVG 1.1//EN" "http://www.w3.org/Graphics/SVG/1.1/DTD/svg11.dtd">
<svg version="1.1" id="Layer_1" xmlns="http://www.w3.org/2000/svg" xmlns:xlink="http://www.w3.org/1999/xlink" x="0px" y="0px"
	 width="64px" height="64px" viewBox="0 0 64 64" enable-background="new 0 0 64 64" xml:space="preserve">
<path d="M26,53c-0.4,0-0.8-0.3-0.9-0.7l-9.3-26l-4.9,8.2C10.7,34.8,10.4,35,10,35H2c-0.6,0-1-0.4-1-1s0.4-1,1-1h7.4l5.7-9.5
	c0.2-0.3,0.6-0.5,1-0.5c0.4,0,0.7,0.3,0.8,0.7l8.9,24.9L35,11.8c0.1-0.4,0.5-0.7,0.9-0.8c0.4,0,0.9,0.3,1,0.7l9.4,31.9l6.8-10.2
	c0.2-0.3,0.5-0.4,0.8-0.4h8c0.6,0,1,0.4,1,1s-0.4,1-1,1h-7.5l-7.7,11.6c-0.2,0.3-0.6,0.5-1,0.4c-0.4-0.1-0.7-0.3-0.8-0.7l-9-30.5
	L27,52.2C26.9,52.7,26.5,53,26,53C26,53,26,53,26,53z"/>
</svg>
