<?xml version="1.0" encoding="utf-8"?>
<!-- Generator: Adobe Illustrator 19.1.0, SVG Export Plug-In . SVG Version: 6.00 Build 0)  -->
<!DOCTYPE svg PUBLIC "-//W3C//DTD SVG 1.1//EN" "http://www.w3.org/Graphics/SVG/1.1/DTD/svg11.dtd">
<svg version="1.1" id="Layer_1" xmlns="http://www.w3.org/2000/svg" xmlns:xlink="http://www.w3.org/1999/xlink" x="0px" y="0px"
	 width="64px" height="64px" viewBox="0 0 64 64" enable-background="new 0 0 64 64" xml:space="preserve">
<path d="M62,1H2C1.4,1,1,1.4,1,2v60c0,0.6,0.4,1,1,1h60c0.6,0,1-0.4,1-1V2C63,1.4,62.6,1,62,1z M28,11c3.9,0,7,3.1,7,7s-3.1,7-7,7
	s-7-3.1-7-7S24.1,11,28,11z M54,53C54,53,54,53,54,53H10c-0.4,0-0.7-0.2-0.9-0.5c-0.2-0.3-0.2-0.7,0-1l10-18
	c0.1-0.3,0.4-0.4,0.7-0.5c0.3-0.1,0.6,0,0.8,0.2l9.2,7.3l9.4-13.1c0.2-0.3,0.5-0.4,0.9-0.4c0.3,0,0.6,0.2,0.8,0.5l13.9,23.8
	c0.2,0.2,0.2,0.4,0.2,0.7C55,52.6,54.6,53,54,53z"/>
</svg>
