<?xml version="1.0" encoding="utf-8"?>
<!-- Generator: Adobe Illustrator 19.1.0, SVG Export Plug-In . SVG Version: 6.00 Build 0)  -->
<!DOCTYPE svg PUBLIC "-//W3C//DTD SVG 1.1//EN" "http://www.w3.org/Graphics/SVG/1.1/DTD/svg11.dtd">
<svg version="1.1" id="Layer_1" xmlns="http://www.w3.org/2000/svg" xmlns:xlink="http://www.w3.org/1999/xlink" x="0px" y="0px"
	 width="64px" height="64px" viewBox="0 0 64 64" enable-background="new 0 0 64 64" xml:space="preserve">
<path d="M62,9H2c-0.6,0-1,0.4-1,1v44c0,0.6,0.4,1,1,1h9c0-0.2,0-0.3,0.1-0.4l6-12c0.2-0.3,0.5-0.6,0.9-0.6h28c0.4,0,0.7,0.2,0.9,0.6
	l5.9,11.8c0.1,0.2,0.2,0.4,0.2,0.6h9c0.6,0,1-0.4,1-1V10C63,9.4,62.6,9,62,9z M20,32c-3.3,0-6-2.7-6-6s2.7-6,6-6s6,2.7,6,6
	S23.3,32,20,32z M44,32c-3.3,0-6-2.7-6-6s2.7-6,6-6s6,2.7,6,6S47.3,32,44,32z"/>
</svg>
