<?xml version="1.0" encoding="utf-8"?>
<!-- Generator: Adobe Illustrator 19.1.0, SVG Export Plug-In . SVG Version: 6.00 Build 0)  -->
<!DOCTYPE svg PUBLIC "-//W3C//DTD SVG 1.1//EN" "http://www.w3.org/Graphics/SVG/1.1/DTD/svg11.dtd">
<svg version="1.1" id="Layer_1" xmlns="http://www.w3.org/2000/svg" xmlns:xlink="http://www.w3.org/1999/xlink" x="0px" y="0px"
	 width="64px" height="64px" viewBox="0 0 64 64" enable-background="new 0 0 64 64" xml:space="preserve">
<path d="M62,7H2C1.4,7,1,7.4,1,8v48c0,0.6,0.4,1,1,1h60c0.6,0,1-0.4,1-1V8C63,7.4,62.6,7,62,7z M24,47c-8.3,0-15-6.7-15-15
	s6.7-15,15-15s15,6.7,15,15S32.3,47,24,47z M51,46c0,0.6-0.4,1-1,1s-1-0.4-1-1V30c0-0.6,0.4-1,1-1s1,0.4,1,1V46z M54,25h-8
	c-0.6,0-1-0.4-1-1s0.4-1,1-1h3v-5c0-0.6,0.4-1,1-1s1,0.4,1,1v5h3c0.6,0,1,0.4,1,1S54.6,25,54,25z"/>
<path d="M24,27c-2.8,0-5,2.2-5,5s2.2,5,5,5s5-2.2,5-5S26.8,27,24,27z"/>
</svg>
