<?xml version="1.0" encoding="utf-8"?>
<!-- Generator: Adobe Illustrator 19.1.0, SVG Export Plug-In . SVG Version: 6.00 Build 0)  -->
<!DOCTYPE svg PUBLIC "-//W3C//DTD SVG 1.1//EN" "http://www.w3.org/Graphics/SVG/1.1/DTD/svg11.dtd">
<svg version="1.1" id="Layer_1" xmlns="http://www.w3.org/2000/svg" xmlns:xlink="http://www.w3.org/1999/xlink" x="0px" y="0px"
	 width="64px" height="64px" viewBox="0 0 64 64" enable-background="new 0 0 64 64" xml:space="preserve">
<path d="M32,23c-0.6,0-1,0.4-1,1c0,3.9-3.1,7-7,7c-0.6,0-1,0.4-1,1c0,5,4,9,9,9s9-4,9-9S37,23,32,23z"/>
<path d="M51.1,1H12.9C6.3,1,1,6.3,1,12.9v38.2C1,57.7,6.3,63,12.9,63h38.2C57.7,63,63,57.7,63,51.1V12.9C63,6.3,57.7,1,51.1,1z
	 M11,14c0-1.7,1.3-3,3-3s3,1.3,3,3s-1.3,3-3,3S11,15.7,11,14z M32,49c-9.4,0-17-7.6-17-17s7.6-17,17-17s17,7.6,17,17S41.4,49,32,49z
	"/>
</svg>
