<?xml version="1.0" encoding="utf-8"?>
<!-- Generator: Adobe Illustrator 19.1.0, SVG Export Plug-In . SVG Version: 6.00 Build 0)  -->
<!DOCTYPE svg PUBLIC "-//W3C//DTD SVG 1.1//EN" "http://www.w3.org/Graphics/SVG/1.1/DTD/svg11.dtd">
<svg version="1.1" id="Layer_1" xmlns="http://www.w3.org/2000/svg" xmlns:xlink="http://www.w3.org/1999/xlink" x="0px" y="0px"
	 width="64px" height="64px" viewBox="0 0 64 64" enable-background="new 0 0 64 64" xml:space="preserve">
<path d="M46,55H18c-0.6,0-1-0.4-1-1s0.4-1,1-1h28c0.6,0,1,0.4,1,1S46.6,55,46,55z"/>
<path d="M51.1,1H12.9C6.3,1,1,6.3,1,12.9v38.2C1,57.7,6.3,63,12.9,63h38.2C57.7,63,63,57.7,63,51.1V12.9C63,6.3,57.7,1,51.1,1z
	 M32,11c7.2,0,13,5.8,13,13s-5.8,13-13,13s-13-5.8-13-13S24.8,11,32,11z M12,11c1.7,0,3,1.3,3,3s-1.3,3-3,3s-3-1.3-3-3
	S10.3,11,12,11z M61,51.1c0,5.5-4.4,9.9-9.9,9.9H12.9C7.4,61,3,56.6,3,51.1V47h58V51.1z"/>
</svg>
