<?xml version="1.0" encoding="utf-8"?>
<!-- Generator: Adobe Illustrator 19.1.0, SVG Export Plug-In . SVG Version: 6.00 Build 0)  -->
<!DOCTYPE svg PUBLIC "-//W3C//DTD SVG 1.1//EN" "http://www.w3.org/Graphics/SVG/1.1/DTD/svg11.dtd">
<svg version="1.1" id="Layer_1" xmlns="http://www.w3.org/2000/svg" xmlns:xlink="http://www.w3.org/1999/xlink" x="0px" y="0px"
	 width="64px" height="64px" viewBox="0 0 64 64" enable-background="new 0 0 64 64" xml:space="preserve">
<path d="M32,1c-0.6,0-1,0.4-1,1v8c0,0.6,0.4,1,1,1s1-0.4,1-1V3c15.5,0.5,28,13.3,28,29c0,16-13,29-29,29S3,48,3,32c0-0.6-0.4-1-1-1
	s-1,0.4-1,1c0,17.1,13.9,31,31,31s31-13.9,31-31S49.1,1,32,1z"/>
<path d="M27.4,36.6c1.2,1.2,2.8,1.9,4.6,1.9s3.3-0.7,4.6-1.9c1.2-1.2,1.9-2.8,1.9-4.6s-0.7-3.3-1.9-4.6C34.4,25.3,17.1,15,15.2,13.8
	c-0.4-0.2-0.9-0.2-1.2,0.2c-0.3,0.3-0.4,0.8-0.2,1.2C15,17.1,25.3,34.4,27.4,36.6z"/>
</svg>
