<?xml version="1.0" encoding="utf-8"?>
<!-- Generator: Adobe Illustrator 19.1.0, SVG Export Plug-In . SVG Version: 6.00 Build 0)  -->
<!DOCTYPE svg PUBLIC "-//W3C//DTD SVG 1.1//EN" "http://www.w3.org/Graphics/SVG/1.1/DTD/svg11.dtd">
<svg version="1.1" id="Layer_1" xmlns="http://www.w3.org/2000/svg" xmlns:xlink="http://www.w3.org/1999/xlink" x="0px" y="0px"
	 width="64px" height="64px" viewBox="0 0 64 64" enable-background="new 0 0 64 64" xml:space="preserve">
<path d="M58,1H14c-0.6,0-1,0.4-1,1v4c0,0.6,0.4,1,1,1h39v47c0,0.6,0.4,1,1,1h4c0.6,0,1-0.4,1-1V2C59,1.4,58.6,1,58,1z"/>
<path d="M50,9H6c-0.6,0-1,0.4-1,1v52c0,0.6,0.4,1,1,1h44c0.6,0,1-0.4,1-1V10C51,9.4,50.6,9,50,9z M43,44c0,0.6-0.4,1-1,1H14
	c-0.6,0-1-0.4-1-1V18c0-0.6,0.4-1,1-1h28c0.6,0,1,0.4,1,1V44z"/>
</svg>
