<?xml version="1.0" encoding="utf-8"?>
<!-- Generator: Adobe Illustrator 19.1.0, SVG Export Plug-In . SVG Version: 6.00 Build 0)  -->
<!DOCTYPE svg PUBLIC "-//W3C//DTD SVG 1.1//EN" "http://www.w3.org/Graphics/SVG/1.1/DTD/svg11.dtd">
<svg version="1.1" id="Layer_1" xmlns="http://www.w3.org/2000/svg" xmlns:xlink="http://www.w3.org/1999/xlink" x="0px" y="0px"
	 width="64px" height="64px" viewBox="0 0 64 64" enable-background="new 0 0 64 64" xml:space="preserve">
<path d="M62.5,29.1c-0.3-0.2-0.7-0.2-1,0L45,38.3V28c0-0.6-0.4-1-1-1H2c-0.6,0-1,0.4-1,1v32c0,0.6,0.4,1,1,1h42c0.6,0,1-0.4,1-1
	V49.7l16.5,9.2C61.7,59,61.8,59,62,59c0.2,0,0.4,0,0.5-0.1c0.3-0.2,0.5-0.5,0.5-0.9V30C63,29.6,62.8,29.3,62.5,29.1z"/>
<path d="M13,21c5.5,0,10-4.5,10-10S18.5,1,13,1S3,5.5,3,11S7.5,21,13,21z"/>
<path d="M36,21c3.9,0,7-3.1,7-7s-3.1-7-7-7s-7,3.1-7,7S32.1,21,36,21z"/>
</svg>
