<?xml version="1.0" encoding="utf-8"?>
<!-- Generator: Adobe Illustrator 19.1.0, SVG Export Plug-In . SVG Version: 6.00 Build 0)  -->
<!DOCTYPE svg PUBLIC "-//W3C//DTD SVG 1.1//EN" "http://www.w3.org/Graphics/SVG/1.1/DTD/svg11.dtd">
<svg version="1.1" id="Layer_1" xmlns="http://www.w3.org/2000/svg" xmlns:xlink="http://www.w3.org/1999/xlink" x="0px" y="0px"
	 width="64px" height="64px" viewBox="0 0 64 64" enable-background="new 0 0 64 64" xml:space="preserve">
<path d="M27.4,38.6c1.2,1.2,2.8,1.9,4.6,1.9s3.3-0.7,4.6-1.9c1.2-1.2,1.9-2.8,1.9-4.6s-0.7-3.3-1.9-4.6C34.4,27.3,17.1,17,15.2,15.8
	c-0.4-0.2-0.9-0.2-1.2,0.2s-0.4,0.8-0.2,1.2C15,19.1,25.3,36.4,27.4,38.6z"/>
<path d="M39,7.9C39,8,39,8,39,7.9c0,0.7-0.1,1.4-0.3,2C49.5,12.9,57,22.7,57,34c0,13.8-11.2,25-25,25S7,47.8,7,34
	c0-1.9,0.2-3.9,0.7-5.8c0.1-0.5-0.2-1.1-0.7-1.2c-0.5-0.1-1.1,0.2-1.2,0.7C5.2,29.8,5,31.9,5,34c0,14.9,12.1,27,27,27s27-12.1,27-27
	C59,21.7,50.8,11.1,39,7.9z"/>
<circle cx="32" cy="8" r="5"/>
</svg>
