<?xml version="1.0" encoding="utf-8"?>
<!-- Generator: Adobe Illustrator 19.1.0, SVG Export Plug-In . SVG Version: 6.00 Build 0)  -->
<!DOCTYPE svg PUBLIC "-//W3C//DTD SVG 1.1//EN" "http://www.w3.org/Graphics/SVG/1.1/DTD/svg11.dtd">
<svg version="1.1" id="Layer_1" xmlns="http://www.w3.org/2000/svg" xmlns:xlink="http://www.w3.org/1999/xlink" x="0px" y="0px"
	 width="64px" height="64px" viewBox="0 0 64 64" enable-background="new 0 0 64 64" xml:space="preserve">
<path d="M62,3H29.6c4.5,3.5,7.4,8.9,7.4,15c0,6.1-3,11.9-8,15.5V37h33c0.6,0,1-0.4,1-1V4C63,3.4,62.6,3,62,3z M54,13h-6
	c-0.6,0-1-0.4-1-1s0.4-1,1-1h6c0.6,0,1,0.4,1,1S54.6,13,54,13z"/>
<path d="M18,1c-0.6,0-1.3,0-1.9,0.1C8.6,1.9,2.4,7.9,1.2,15.3c-1.1,6.8,2,13.5,7.8,17.1V54c0,5,4,9,9,9s9-4,9-9V32.4
	c4.9-3.1,8-8.6,8-14.4C35,8.6,27.4,1,18,1z M18,27c-5,0-9-4-9-9s4-9,9-9s9,4,9,9S23,27,18,27z"/>
</svg>
