<?xml version="1.0" encoding="utf-8"?>
<!-- Generator: Adobe Illustrator 19.1.0, SVG Export Plug-In . SVG Version: 6.00 Build 0)  -->
<!DOCTYPE svg PUBLIC "-//W3C//DTD SVG 1.1//EN" "http://www.w3.org/Graphics/SVG/1.1/DTD/svg11.dtd">
<svg version="1.1" id="Layer_1" xmlns="http://www.w3.org/2000/svg" xmlns:xlink="http://www.w3.org/1999/xlink" x="0px" y="0px"
	 width="64px" height="64px" viewBox="0 0 64 64" enable-background="new 0 0 64 64" xml:space="preserve">
<path d="M52.8,29.1C51.4,18.7,42.6,11,32,11c-9.1,0-17,5.7-19.9,14.3C5.6,26.7,1,32.3,1,39c0,7.3,5.7,13.4,13,14h38c0,0,0.1,0,0.1,0
	C58.2,52.4,63,47.2,63,41C63,35.1,58.6,30,52.8,29.1z M41,40c0,2.8-2.2,5-5,5s-5-2.2-5-5s2.2-5,5-5c1.1,0,2.2,0.4,3,1V25H27v15
	c0,2.8-2.2,5-5,5s-5-2.2-5-5s2.2-5,5-5c1.1,0,2.2,0.4,3,1V24c0-0.6,0.4-1,1-1h14c0.6,0,1,0.4,1,1V40z"/>
</svg>
