<?xml version="1.0" encoding="utf-8"?>
<!-- Generator: Adobe Illustrator 19.1.0, SVG Export Plug-In . SVG Version: 6.00 Build 0)  -->
<!DOCTYPE svg PUBLIC "-//W3C//DTD SVG 1.1//EN" "http://www.w3.org/Graphics/SVG/1.1/DTD/svg11.dtd">
<svg version="1.1" id="Layer_1" xmlns="http://www.w3.org/2000/svg" xmlns:xlink="http://www.w3.org/1999/xlink" x="0px" y="0px"
	 width="64px" height="64px" viewBox="0 0 64 64" enable-background="new 0 0 64 64" xml:space="preserve">
<path d="M62,13h-9.6l-7.7-7.7C44.5,5.1,44.3,5,44,5H32c-0.3,0-0.5,0.1-0.7,0.3L23.6,13H2c-0.6,0-1,0.4-1,1v44c0,0.6,0.4,1,1,1h60
	c0.6,0,1-0.4,1-1V14C63,13.4,62.6,13,62,13z M16,25h-4c-0.6,0-1-0.4-1-1s0.4-1,1-1h4c0.6,0,1,0.4,1,1S16.6,25,16,25z M38,51
	c-8.3,0-15-6.7-15-15s6.7-15,15-15s15,6.7,15,15S46.3,51,38,51z"/>
</svg>
