<?xml version="1.0" encoding="utf-8"?>
<!-- Generator: Adobe Illustrator 19.1.0, SVG Export Plug-In . SVG Version: 6.00 Build 0)  -->
<!DOCTYPE svg PUBLIC "-//W3C//DTD SVG 1.1//EN" "http://www.w3.org/Graphics/SVG/1.1/DTD/svg11.dtd">
<svg version="1.1" id="Layer_1" xmlns="http://www.w3.org/2000/svg" xmlns:xlink="http://www.w3.org/1999/xlink" x="0px" y="0px"
	 width="64px" height="64px" viewBox="0 0 64 64" enable-background="new 0 0 64 64" xml:space="preserve">
<path d="M18,3H2C1.4,3,1,3.4,1,4v16c0,0.6,0.4,1,1,1s1-0.4,1-1V5h15c0.6,0,1-0.4,1-1S18.6,3,18,3z"/>
<path d="M62,3H46c-0.6,0-1,0.4-1,1s0.4,1,1,1h15v15c0,0.6,0.4,1,1,1s1-0.4,1-1V4C63,3.4,62.6,3,62,3z"/>
<path d="M62,43c-0.6,0-1,0.4-1,1v15H46c-0.6,0-1,0.4-1,1s0.4,1,1,1h16c0.6,0,1-0.4,1-1V44C63,43.4,62.6,43,62,43z"/>
<path d="M18,59H3V44c0-0.6-0.4-1-1-1s-1,0.4-1,1v16c0,0.6,0.4,1,1,1h16c0.6,0,1-0.4,1-1S18.6,59,18,59z"/>
<path d="M32,23c-5,0-9,4-9,9s4,9,9,9s9-4,9-9S37,23,32,23z"/>
</svg>
