<?xml version="1.0" encoding="utf-8"?>
<!-- Generator: Adobe Illustrator 19.1.0, SVG Export Plug-In . SVG Version: 6.00 Build 0)  -->
<!DOCTYPE svg PUBLIC "-//W3C//DTD SVG 1.1//EN" "http://www.w3.org/Graphics/SVG/1.1/DTD/svg11.dtd">
<svg version="1.1" id="Layer_1" xmlns="http://www.w3.org/2000/svg" xmlns:xlink="http://www.w3.org/1999/xlink" x="0px" y="0px"
	 width="64px" height="64px" viewBox="0 0 64 64" enable-background="new 0 0 64 64" xml:space="preserve">
<path d="M32,1c-8.3,0-16.1,3.2-21.9,9.1C-2,22.2-2,41.8,10.1,53.9C15.9,59.8,23.7,63,32,63s16.1-3.2,21.9-9.1
	C66,41.8,66,22.2,53.9,10.1C48.1,4.2,40.3,1,32,1z M11.5,11.5C17,6,24.3,3,32,3c7.4,0,14.4,2.8,19.8,7.8l-41,41
	C0.2,40.4,0.4,22.6,11.5,11.5z"/>
</svg>
