<?xml version="1.0" encoding="utf-8"?>
<!-- Generator: Adobe Illustrator 19.1.0, SVG Export Plug-In . SVG Version: 6.00 Build 0)  -->
<!DOCTYPE svg PUBLIC "-//W3C//DTD SVG 1.1//EN" "http://www.w3.org/Graphics/SVG/1.1/DTD/svg11.dtd">
<svg version="1.1" id="Layer_1" xmlns="http://www.w3.org/2000/svg" xmlns:xlink="http://www.w3.org/1999/xlink" x="0px" y="0px"
	 width="64px" height="64px" viewBox="0 0 64 64" enable-background="new 0 0 64 64" xml:space="preserve">
<path d="M61.8,9.9l-7.7-7.7c-0.4-0.4-1-0.4-1.4,0L45,9.9c-0.2,0.2-0.3,0.4-0.3,0.7s0.1,0.5,0.3,0.7l3.1,3.1l-6.3,6.3
	c-3.2-2.8-7.2-4.4-11.5-4.4c-4.6,0-8.9,1.8-12.2,5.1l-1.9,1.9C16.1,23.5,16,23.7,16,24s0.1,0.5,0.3,0.7c1.7,1.7,1.7,4.5,0,6.2
	c-0.8,0.8-1.9,1.3-3.1,1.3s-2.3-0.5-3.1-1.3c-0.4-0.4-1-0.4-1.4,0l-1.9,1.9C0,39.6,0,50.5,6.8,57.2c3.3,3.3,7.6,5.1,12.2,5.1
	c4.6,0,8.9-1.8,12.2-5.1l1.9-1.9c0.4-0.4,0.4-1,0-1.4c-0.8-0.8-1.3-1.9-1.3-3.1c0-1.2,0.5-2.3,1.3-3.1c0.8-0.8,1.9-1.3,3.1-1.3
	c1.2,0,2.3,0.5,3.1,1.3c0.4,0.4,1,0.4,1.4,0l1.9-1.9c3.3-3.3,5.1-7.6,5.1-12.2c0-4.3-1.6-8.3-4.4-11.5l6.3-6.3l3.1,3.1
	c0.2,0.2,0.5,0.3,0.7,0.3s0.5-0.1,0.7-0.3l7.7-7.7c0.2-0.2,0.3-0.4,0.3-0.7S62,10.1,61.8,9.9z M20.7,50.7C20.5,50.9,20.3,51,20,51
	s-0.5-0.1-0.7-0.3l-6-6c-0.4-0.4-0.4-1,0-1.4s1-0.4,1.4,0l6,6C21.1,49.7,21.1,50.3,20.7,50.7z M35.5,35.5C34.6,36.5,33.3,37,32,37
	s-2.6-0.5-3.5-1.5c-1.9-1.9-1.9-5.1,0-7.1c0.9-0.9,2.2-1.5,3.5-1.5s2.6,0.5,3.5,1.5C37.5,30.4,37.5,33.6,35.5,35.5z"/>
</svg>
