<?xml version="1.0" encoding="utf-8"?>
<!-- Generator: Adobe Illustrator 19.1.0, SVG Export Plug-In . SVG Version: 6.00 Build 0)  -->
<!DOCTYPE svg PUBLIC "-//W3C//DTD SVG 1.1//EN" "http://www.w3.org/Graphics/SVG/1.1/DTD/svg11.dtd">
<svg version="1.1" id="Layer_1" xmlns="http://www.w3.org/2000/svg" xmlns:xlink="http://www.w3.org/1999/xlink" x="0px" y="0px"
	 width="64px" height="64px" viewBox="0 0 64 64" enable-background="new 0 0 64 64" xml:space="preserve">
<path d="M32,1C14.9,1,1,14.9,1,32s13.9,31,31,31s31-13.9,31-31S49.1,1,32,1z M42.6,32.8l-20,14C22.4,46.9,22.2,47,22,47
	c-0.2,0-0.3,0-0.5-0.1C21.2,46.7,21,46.4,21,46V18c0-0.4,0.2-0.7,0.5-0.9c0.3-0.2,0.7-0.1,1,0.1l20,14c0.3,0.2,0.4,0.5,0.4,0.8
	S42.8,32.6,42.6,32.8z"/>
</svg>
