<?xml version="1.0" encoding="utf-8"?>
<!-- Generator: Adobe Illustrator 19.1.0, SVG Export Plug-In . SVG Version: 6.00 Build 0)  -->
<!DOCTYPE svg PUBLIC "-//W3C//DTD SVG 1.1//EN" "http://www.w3.org/Graphics/SVG/1.1/DTD/svg11.dtd">
<svg version="1.1" id="Layer_1" xmlns="http://www.w3.org/2000/svg" xmlns:xlink="http://www.w3.org/1999/xlink" x="0px" y="0px"
	 width="64px" height="64px" viewBox="0 0 64 64" enable-background="new 0 0 64 64" xml:space="preserve">
<path d="M62,1H2C1.4,1,1,1.4,1,2v60c0,0.6,0.4,1,1,1h60c0.6,0,1-0.4,1-1V2C63,1.4,62.6,1,62,1z M36,53c-2.4,0-4.4-1.7-4.9-4H10
	c-0.6,0-1-0.4-1-1s0.4-1,1-1h21.1c0.5-2.3,2.5-4,4.9-4c2.8,0,5,2.2,5,5S38.8,53,36,53z M40.5,24.8l-16,10C24.4,34.9,24.2,35,24,35
	c-0.2,0-0.3,0-0.5-0.1C23.2,34.7,23,34.4,23,34V14c0-0.4,0.2-0.7,0.5-0.9c0.3-0.2,0.7-0.2,1,0l16,10c0.3,0.2,0.5,0.5,0.5,0.8
	S40.8,24.7,40.5,24.8z M54,49h-8c-0.6,0-1-0.4-1-1s0.4-1,1-1h8c0.6,0,1,0.4,1,1S54.6,49,54,49z"/>
</svg>
