<?xml version="1.0" encoding="utf-8"?>
<!-- Generator: Adobe Illustrator 19.1.0, SVG Export Plug-In . SVG Version: 6.00 Build 0)  -->
<!DOCTYPE svg PUBLIC "-//W3C//DTD SVG 1.1//EN" "http://www.w3.org/Graphics/SVG/1.1/DTD/svg11.dtd">
<svg version="1.1" id="Layer_1" xmlns="http://www.w3.org/2000/svg" xmlns:xlink="http://www.w3.org/1999/xlink" x="0px" y="0px"
	 width="64px" height="64px" viewBox="0 0 64 64" enable-background="new 0 0 64 64" xml:space="preserve">
<path d="M1.7,40.9L7,42.7V54c0,0.6,0.4,1,1,1h16c0.6,0,1-0.4,1-1v-5.3l18.7,6.2c0.1,0,0.2,0.1,0.3,0.1c0.2,0,0.4-0.1,0.6-0.2
	c0.3-0.2,0.4-0.5,0.4-0.8V10c0-0.3-0.2-0.6-0.4-0.8C44.3,9,44,9,43.7,9.1l-42,14C1.3,23.2,1,23.6,1,24v16C1,40.4,1.3,40.8,1.7,40.9z
	 M23,53H9v-9.6l14,4.7V53z"/>
<path d="M62,31h-6c-0.6,0-1,0.4-1,1s0.4,1,1,1h6c0.6,0,1-0.4,1-1S62.6,31,62,31z"/>
<path d="M53.3,20.7c0.2,0,0.3,0,0.5-0.1l4.7-2.7c0.5-0.3,0.6-0.9,0.4-1.4c-0.3-0.5-0.9-0.6-1.4-0.4l-4.7,2.7
	c-0.5,0.3-0.6,0.9-0.4,1.4C52.6,20.5,52.9,20.7,53.3,20.7z"/>
<path d="M52.8,45.1l4.7,2.7C57.6,48,57.8,48,58,48c0.3,0,0.7-0.2,0.9-0.5c0.3-0.5,0.1-1.1-0.4-1.4l-4.7-2.7
	c-0.5-0.3-1.1-0.1-1.4,0.4S52.3,44.9,52.8,45.1z"/>
</svg>
