<?xml version="1.0" encoding="utf-8"?>
<!-- Generator: Adobe Illustrator 19.1.0, SVG Export Plug-In . SVG Version: 6.00 Build 0)  -->
<!DOCTYPE svg PUBLIC "-//W3C//DTD SVG 1.1//EN" "http://www.w3.org/Graphics/SVG/1.1/DTD/svg11.dtd">
<svg version="1.1" id="Layer_1" xmlns="http://www.w3.org/2000/svg" xmlns:xlink="http://www.w3.org/1999/xlink" x="0px" y="0px"
	 width="64px" height="64px" viewBox="0 0 64 64" enable-background="new 0 0 64 64" xml:space="preserve">
<path d="M18,41h0.8L41,18.8V16c0-0.4-0.2-0.7-0.6-0.9c-0.3-0.2-0.8-0.1-1.1,0.1L29.6,23H18c-0.6,0-1,0.4-1,1v16
	C17,40.6,17.4,41,18,41z"/>
<path d="M29.6,41l9.7,7.8c0.2,0.1,0.4,0.2,0.6,0.2c0.1,0,0.3,0,0.4-0.1c0.3-0.2,0.6-0.5,0.6-0.9V27.2L27.2,41H29.6z"/>
<path d="M54,10.1C53.9,10.1,53.9,10.1,54,10.1c-0.1-0.1-0.1-0.1-0.1-0.1C48.2,4.5,40.5,1,32,1C14.9,1,1,14.9,1,32
	c0,8.5,3.5,16.2,9,21.9c0,0,0,0,0,0.1s0,0,0.1,0c5.6,5.6,13.3,9,21.9,9c17.1,0,31-13.9,31-31C63,23.5,59.5,15.8,54,10.1z M32,3
	c7.6,0,14.6,3,19.8,7.8l-41,41C6,46.6,3,39.6,3,32C3,16,16,3,32,3z M32,61c-7.6,0-14.6-3-19.8-7.8l41-41C58,17.4,61,24.4,61,32
	C61,48,48,61,32,61z"/>
</svg>
