<?xml version="1.0" encoding="utf-8"?>
<!-- Generator: Adobe Illustrator 19.1.0, SVG Export Plug-In . SVG Version: 6.00 Build 0)  -->
<!DOCTYPE svg PUBLIC "-//W3C//DTD SVG 1.1//EN" "http://www.w3.org/Graphics/SVG/1.1/DTD/svg11.dtd">
<svg version="1.1" id="Layer_1" xmlns="http://www.w3.org/2000/svg" xmlns:xlink="http://www.w3.org/1999/xlink" x="0px" y="0px"
	 width="64px" height="64px" viewBox="0 0 64 64" enable-background="new 0 0 64 64" xml:space="preserve">
<path d="M62,1H2C1.4,1,1,1.4,1,2v60c0,0.6,0.4,1,1,1h60c0.6,0,1-0.4,1-1V2C63,1.4,62.6,1,62,1z M23,3h8v8h-8V3z M38.6,31.2
	c0.3,0.2,0.4,0.5,0.4,0.8s-0.2,0.6-0.4,0.8l-12,8C26.4,40.9,26.2,41,26,41c-0.2,0-0.3,0-0.5-0.1C25.2,40.7,25,40.4,25,40V24
	c0-0.4,0.2-0.7,0.5-0.9c0.3-0.2,0.7-0.2,1,0L38.6,31.2z M11,61H3v-8h8V61z M11,11H3V3h8V11z M21,61h-8v-8h8V61z M21,11h-8V3h8V11z
	 M31,61h-8v-8h8V61z M41,61h-8v-8h8V61z M41,11h-8V3h8V11z M51,61h-8v-8h8V61z M51,11h-8V3h8V11z M61,61h-8v-8h8V61z M61,11h-8V3h8
	V11z"/>
</svg>
