<?xml version="1.0" encoding="utf-8"?>
<!-- Generator: Adobe Illustrator 19.1.0, SVG Export Plug-In . SVG Version: 6.00 Build 0)  -->
<!DOCTYPE svg PUBLIC "-//W3C//DTD SVG 1.1//EN" "http://www.w3.org/Graphics/SVG/1.1/DTD/svg11.dtd">
<svg version="1.1" id="Layer_1" xmlns="http://www.w3.org/2000/svg" xmlns:xlink="http://www.w3.org/1999/xlink" x="0px" y="0px"
	 width="64px" height="64px" viewBox="0 0 64 64" enable-background="new 0 0 64 64" xml:space="preserve">
<path d="M32,37c8.3,0,15-6.7,15-15S40.3,7,32,7s-15,6.7-15,15S23.7,37,32,37z"/>
<path d="M38,45H26c-9.4,0-17,7.6-17,17c0,0.6,0.4,1,1,1h44c0.6,0,1-0.4,1-1C55,52.6,47.4,45,38,45z"/>
<path d="M6,11c0.6,0,1-0.4,1-1V3h7c0.6,0,1-0.4,1-1s-0.4-1-1-1H6C5.4,1,5,1.4,5,2v8C5,10.6,5.4,11,6,11z"/>
<path d="M58,1h-8c-0.6,0-1,0.4-1,1s0.4,1,1,1h7v7c0,0.6,0.4,1,1,1s1-0.4,1-1V2C59,1.4,58.6,1,58,1z"/>
<path d="M58,31c-0.6,0-1,0.4-1,1v7h-7c-0.6,0-1,0.4-1,1s0.4,1,1,1h8c0.6,0,1-0.4,1-1v-8C59,31.4,58.6,31,58,31z"/>
<path d="M15,40c0-0.6-0.4-1-1-1H7v-7c0-0.6-0.4-1-1-1s-1,0.4-1,1v8c0,0.6,0.4,1,1,1h8C14.6,41,15,40.6,15,40z"/>
</svg>
