<?xml version="1.0" encoding="utf-8"?>
<!-- Generator: Adobe Illustrator 19.1.0, SVG Export Plug-In . SVG Version: 6.00 Build 0)  -->
<!DOCTYPE svg PUBLIC "-//W3C//DTD SVG 1.1//EN" "http://www.w3.org/Graphics/SVG/1.1/DTD/svg11.dtd">
<svg version="1.1" id="Layer_1" xmlns="http://www.w3.org/2000/svg" xmlns:xlink="http://www.w3.org/1999/xlink" x="0px" y="0px"
	 width="64px" height="64px" viewBox="0 0 64 64" enable-background="new 0 0 64 64" xml:space="preserve">
<path d="M4,61c-0.3,0-0.5-0.1-0.7-0.3c-0.4-0.4-0.4-1,0-1.4l56-56c0.4-0.4,1-0.4,1.4,0s0.4,1,0,1.4l-56,56C4.5,60.9,4.3,61,4,61z"/>
<path d="M2,53h4.8l15.6-15.6C21.5,35.8,21,33.9,21,32c0-6.1,4.9-11,11-11c1.9,0,3.8,0.5,5.4,1.4l7.4-7.4h-0.3l-5.7-7.6
	C38.6,7.1,38.3,7,38,7H24c-0.3,0-0.6,0.1-0.8,0.4L17.5,15H2c-0.6,0-1,0.4-1,1v36C1,52.6,1.4,53,2,53z"/>
<path d="M62,15h-8.8L41.6,26.6c0.9,1.6,1.4,3.4,1.4,5.4c0,6.1-4.9,11-11,11c-1.9,0-3.8-0.5-5.4-1.4L15.2,53H62c0.6,0,1-0.4,1-1V16
	C63,15.4,62.6,15,62,15z"/>
</svg>
