<?xml version="1.0" encoding="utf-8"?>
<!-- Generator: Adobe Illustrator 19.1.0, SVG Export Plug-In . SVG Version: 6.00 Build 0)  -->
<!DOCTYPE svg PUBLIC "-//W3C//DTD SVG 1.1//EN" "http://www.w3.org/Graphics/SVG/1.1/DTD/svg11.dtd">
<svg version="1.1" id="Layer_1" xmlns="http://www.w3.org/2000/svg" xmlns:xlink="http://www.w3.org/1999/xlink" x="0px" y="0px"
	 width="64px" height="64px" viewBox="0 0 64 64" enable-background="new 0 0 64 64" xml:space="preserve">
<path d="M24,7H10C9.4,7,9,7.4,9,8v48c0,0.6,0.4,1,1,1h14c0.6,0,1-0.4,1-1V8C25,7.4,24.6,7,24,7z"/>
<path d="M54,7H40c-0.6,0-1,0.4-1,1v48c0,0.6,0.4,1,1,1h14c0.6,0,1-0.4,1-1V8C55,7.4,54.6,7,54,7z"/>
</svg>
