<?xml version="1.0" encoding="utf-8"?>
<!-- Generator: Adobe Illustrator 19.1.0, SVG Export Plug-In . SVG Version: 6.00 Build 0)  -->
<!DOCTYPE svg PUBLIC "-//W3C//DTD SVG 1.1//EN" "http://www.w3.org/Graphics/SVG/1.1/DTD/svg11.dtd">
<svg version="1.1" id="Layer_1" xmlns="http://www.w3.org/2000/svg" xmlns:xlink="http://www.w3.org/1999/xlink" x="0px" y="0px"
	 width="64px" height="64px" viewBox="0 0 64 64" enable-background="new 0 0 64 64" xml:space="preserve">
<path d="M62,1c-0.6,0-1,0.4-1,1v5h-6V2c0-0.6-0.4-1-1-1H10C9.4,1,9,1.4,9,2v5H3V2c0-0.6-0.4-1-1-1S1,1.4,1,2v60c0,0.6,0.4,1,1,1
	s1-0.4,1-1v-5h6v5c0,0.6,0.4,1,1,1h44c0.6,0,1-0.4,1-1v-5h6v5c0,0.6,0.4,1,1,1s1-0.4,1-1V2C63,1.4,62.6,1,62,1z M55,21h6v10h-6V21z
	 M9,31H3V21h6V31z M3,33h6v10H3V33z M55,33h6v10h-6V33z M61,9v10h-6V9H61z M9,9v10H3V9H9z M3,55V45h6v10H3z M55,55V45h6v10H55z"/>
</svg>
