<?xml version="1.0" encoding="utf-8"?>
<!-- Generator: Adobe Illustrator 19.1.0, SVG Export Plug-In . SVG Version: 6.00 Build 0)  -->
<!DOCTYPE svg PUBLIC "-//W3C//DTD SVG 1.1//EN" "http://www.w3.org/Graphics/SVG/1.1/DTD/svg11.dtd">
<svg version="1.1" id="Layer_2" xmlns="http://www.w3.org/2000/svg" xmlns:xlink="http://www.w3.org/1999/xlink" x="0px" y="0px"
	 width="64px" height="64px" viewBox="0 0 64 64" enable-background="new 0 0 64 64" xml:space="preserve">
<path id="color_110_" d="M32,7c-0.6,0-1-0.4-1-1V2c0-0.6,0.4-1,1-1s1,0.4,1,1v4C33,6.6,32.6,7,32,7z"/>
<path id="color_109_" d="M50.4,14.6c-0.3,0-0.5-0.1-0.7-0.3c-0.4-0.4-0.4-1,0-1.4l2.8-2.8c0.4-0.4,1-0.4,1.4,0s0.4,1,0,1.4l-2.8,2.8
	C50.9,14.5,50.6,14.6,50.4,14.6z"/>
<path id="color_108_" d="M62,33h-4c-0.6,0-1-0.4-1-1s0.4-1,1-1h4c0.6,0,1,0.4,1,1S62.6,33,62,33z"/>
<path id="color_107_" d="M6,33H2c-0.6,0-1-0.4-1-1s0.4-1,1-1h4c0.6,0,1,0.4,1,1S6.6,33,6,33z"/>
<path id="color_106_" d="M13.6,14.6c-0.3,0-0.5-0.1-0.7-0.3l-2.8-2.8c-0.4-0.4-0.4-1,0-1.4s1-0.4,1.4,0l2.8,2.8c0.4,0.4,0.4,1,0,1.4
	C14.1,14.5,13.9,14.6,13.6,14.6z"/>
<path d="M51.1,39.2c-2,0-4,0.5-5.8,1.5c-2.5-5.8-8.3-9.7-14.7-9.7c-6,0-11.5,3.4-14.2,8.7c-1.1-0.4-2.3-0.5-3.5-0.5
	C6.3,39.2,1,44.5,1,51.1S6.3,63,12.9,63h38.2C57.7,63,63,57.7,63,51.1S57.7,39.2,51.1,39.2z"/>
<path id="color_2_" d="M15.4,37.4c3.3-5.2,9-8.4,15.2-8.4c6.5,0,12.4,3.5,15.6,9.1c1.3-0.5,2.6-0.8,4-0.8c0.5-1.7,0.7-3.4,0.7-5.2
	c0-10.5-8.5-19-19-19s-19,8.5-19,19c0,1.8,0.3,3.5,0.7,5.2C14.3,37.3,14.9,37.3,15.4,37.4z"/>
</svg>
