<?xml version="1.0" encoding="utf-8"?>
<!-- Generator: Adobe Illustrator 19.1.0, SVG Export Plug-In . SVG Version: 6.00 Build 0)  -->
<!DOCTYPE svg PUBLIC "-//W3C//DTD SVG 1.1//EN" "http://www.w3.org/Graphics/SVG/1.1/DTD/svg11.dtd">
<svg version="1.1" id="Layer_2" xmlns="http://www.w3.org/2000/svg" xmlns:xlink="http://www.w3.org/1999/xlink" x="0px" y="0px"
	 width="64px" height="64px" viewBox="0 0 64 64" enable-background="new 0 0 64 64" xml:space="preserve">
<path d="M32.7,15.3c-0.4-0.4-1-0.4-1.4,0C30.6,16,13,33.5,13,44.5C13,56.1,22.7,63,32,63s19-6.9,19-18.5C51,33.5,33.4,16,32.7,15.3z
	"/>
<path id="color_115_" d="M54.7,3.3c-0.4-0.4-1-0.4-1.4,0C52.5,4.1,45,11.4,45,16.4c0,5.4,4.6,8.6,9,8.6s9-3.2,9-8.6
	C63,11.4,55.5,4.1,54.7,3.3z"/>
<path id="color_114_" d="M19,16.4c0-4.9-7.5-12.3-8.3-13.1c-0.4-0.4-1-0.4-1.4,0C8.5,4.1,1,11.4,1,16.4c0,5.4,4.6,8.6,9,8.6
	S19,21.8,19,16.4z"/>
</svg>
