<?xml version="1.0" encoding="utf-8"?>
<!-- Generator: Adobe Illustrator 19.1.0, SVG Export Plug-In . SVG Version: 6.00 Build 0)  -->
<!DOCTYPE svg PUBLIC "-//W3C//DTD SVG 1.1//EN" "http://www.w3.org/Graphics/SVG/1.1/DTD/svg11.dtd">
<svg version="1.1" id="Layer_2" xmlns="http://www.w3.org/2000/svg" xmlns:xlink="http://www.w3.org/1999/xlink" x="0px" y="0px"
	 width="64px" height="64px" viewBox="0 0 64 64" enable-background="new 0 0 64 64" xml:space="preserve">
<path id="color_74_" d="M41.6,54.5C39,56.1,35.6,57,32,57c-3.9,0-7.6-1.1-10.3-3c-0.5-0.3-1.1-0.2-1.4,0.2c-0.3,0.5-0.2,1.1,0.2,1.4
	C23.6,57.8,27.7,59,32,59c3.9,0,7.7-1,10.7-2.8c0.5-0.3,0.6-0.9,0.3-1.4C42.7,54.3,42.1,54.2,41.6,54.5z"/>
<path id="color_73_" d="M47.9,41.1c-3.2,3.2-9.4,5.1-15.9,5.1c-6.4,0-12.4-1.9-15.7-4.9c-0.4-0.4-1-0.3-1.4,0.1
	c-0.4,0.4-0.3,1,0.1,1.4c3.7,3.4,10.1,5.4,17,5.4c7.2,0,13.7-2.1,17.3-5.7c0.4-0.4,0.4-1,0-1.4C49,40.7,48.3,40.7,47.9,41.1z"/>
<path id="color_72_" d="M52.2,30.2c-4.1,3.2-11.8,5.2-20.2,5.2c-8.3,0-16.1-2-20.2-5.2c-0.4-0.3-1.1-0.3-1.4,0.2
	c-0.3,0.4-0.3,1.1,0.2,1.4c4.5,3.5,12.5,5.6,21.4,5.6c8.9,0,16.9-2.1,21.4-5.6c0.4-0.3,0.5-1,0.2-1.4C53.2,29.9,52.6,29.9,52.2,30.2
	z"/>
<ellipse cx="32" cy="14.8" rx="30" ry="10.8"/>
</svg>
