<?xml version="1.0" encoding="utf-8"?>
<!-- Generator: Adobe Illustrator 19.1.0, SVG Export Plug-In . SVG Version: 6.00 Build 0)  -->
<!DOCTYPE svg PUBLIC "-//W3C//DTD SVG 1.1//EN" "http://www.w3.org/Graphics/SVG/1.1/DTD/svg11.dtd">
<svg version="1.1" id="Layer_2" xmlns="http://www.w3.org/2000/svg" xmlns:xlink="http://www.w3.org/1999/xlink" x="0px" y="0px"
	 width="64px" height="64px" viewBox="0 0 64 64" enable-background="new 0 0 64 64" xml:space="preserve">
<path id="color_38_" d="M31.3,33.3l-2,2c-0.4,0.4-0.4,1,0,1.4c0.2,0.2,0.5,0.3,0.7,0.3s0.5-0.1,0.7-0.3l2-2c0.4-0.4,0.4-1,0-1.4
	S31.7,32.9,31.3,33.3z"/>
<path d="M59.3,5.3l-20,20c-0.4,0.4-0.4,1,0,1.4c0.2,0.2,0.5,0.3,0.7,0.3s0.5-0.1,0.7-0.3l20-20c0.4-0.4,0.4-1,0-1.4
	S59.7,4.9,59.3,5.3z"/>
<path id="color_37_" d="M5.3,39.3l-2,2c-0.4,0.4-0.4,1,0,1.4C3.5,42.9,3.7,43,4,43s0.5-0.1,0.7-0.3l2-2c0.4-0.4,0.4-1,0-1.4
	S5.7,38.9,5.3,39.3z"/>
<path d="M33.3,11.3l-20,20c-0.4,0.4-0.4,1,0,1.4c0.2,0.2,0.5,0.3,0.7,0.3s0.5-0.1,0.7-0.3l20-20c0.4-0.4,0.4-1,0-1.4
	S33.7,10.9,33.3,11.3z"/>
<path id="color_36_" d="M31.3,53.3l-2,2c-0.4,0.4-0.4,1,0,1.4c0.2,0.2,0.5,0.3,0.7,0.3s0.5-0.1,0.7-0.3l2-2c0.4-0.4,0.4-1,0-1.4
	S31.7,52.9,31.3,53.3z"/>
<path d="M59.3,25.3l-20,20c-0.4,0.4-0.4,1,0,1.4c0.2,0.2,0.5,0.3,0.7,0.3s0.5-0.1,0.7-0.3l20-20c0.4-0.4,0.4-1,0-1.4
	S59.7,24.9,59.3,25.3z"/>
</svg>
