<?xml version="1.0" encoding="utf-8"?>
<!-- Generator: Adobe Illustrator 19.1.0, SVG Export Plug-In . SVG Version: 6.00 Build 0)  -->
<!DOCTYPE svg PUBLIC "-//W3C//DTD SVG 1.1//EN" "http://www.w3.org/Graphics/SVG/1.1/DTD/svg11.dtd">
<svg version="1.1" id="Layer_2" xmlns="http://www.w3.org/2000/svg" xmlns:xlink="http://www.w3.org/1999/xlink" x="0px" y="0px"
	 width="64px" height="64px" viewBox="0 0 64 64" enable-background="new 0 0 64 64" xml:space="preserve">
<path d="M2,23h35c5.1,0,9.2-4.1,9.2-9.2S42.1,4.6,37,4.6c-3.9,0-7.4,2.5-8.7,6.1c-0.2,0.5,0.1,1.1,0.6,1.3c0.5,0.2,1.1-0.1,1.3-0.6
	c1-2.9,3.7-4.8,6.8-4.8c4,0,7.2,3.2,7.2,7.2c0,4-3.2,7.2-7.2,7.2H2c-0.6,0-1,0.4-1,1S1.4,23,2,23z"/>
<path d="M20.6,41H2c-0.6,0-1,0.4-1,1s0.4,1,1,1h18.6c4,0,7.2,3.2,7.2,7.2c0,4-3.2,7.2-7.2,7.2c-3,0-5.8-1.9-6.8-4.8
	c-0.2-0.5-0.8-0.8-1.3-0.6c-0.5,0.2-0.8,0.8-0.6,1.3c1.3,3.7,4.8,6.1,8.7,6.1c5.1,0,9.2-4.1,9.2-9.2S25.7,41,20.6,41z"/>
<path id="color_81_" d="M53.8,31H2c-0.6,0-1,0.4-1,1s0.4,1,1,1h51.8c4,0,7.2,3.2,7.2,7.2c0,4-3.2,7.2-7.2,7.2c-3,0-5.8-1.9-6.8-4.8
	c-0.2-0.5-0.8-0.8-1.3-0.6c-0.5,0.2-0.8,0.8-0.6,1.3c1.3,3.7,4.8,6.1,8.7,6.1c5.1,0,9.2-4.1,9.2-9.2S58.9,31,53.8,31z"/>
</svg>
