<?xml version="1.0" encoding="utf-8"?>
<!-- Generator: Adobe Illustrator 19.1.0, SVG Export Plug-In . SVG Version: 6.00 Build 0)  -->
<!DOCTYPE svg PUBLIC "-//W3C//DTD SVG 1.1//EN" "http://www.w3.org/Graphics/SVG/1.1/DTD/svg11.dtd">
<svg version="1.1" id="Layer_2" xmlns="http://www.w3.org/2000/svg" xmlns:xlink="http://www.w3.org/1999/xlink" x="0px" y="0px"
	 width="64px" height="64px" viewBox="0 0 64 64" enable-background="new 0 0 64 64" xml:space="preserve">
<path d="M32,17c-9.4,0-17,7.6-17,17c0,5.2,2.4,9.9,6.1,13H29c1.7,0,3,1.3,3,3c0,0.3-0.1,0.7-0.2,1c0.1,0,0.1,0,0.2,0
	c9.4,0,17-7.6,17-17S41.4,17,32,17z"/>
<path id="color_85_" d="M29,51H9c-0.6,0-1-0.4-1-1s0.4-1,1-1h20c0.6,0,1,0.4,1,1S29.6,51,29,51z"/>
<path id="color_84_" d="M39,57H19c-0.6,0-1-0.4-1-1s0.4-1,1-1h20c0.6,0,1,0.4,1,1S39.6,57,39,57z"/>
<path d="M6,35H2c-0.6,0-1-0.4-1-1s0.4-1,1-1h4c0.6,0,1,0.4,1,1S6.6,35,6,35z"/>
<path d="M13.6,16.6c-0.3,0-0.5-0.1-0.7-0.3l-2.8-2.8c-0.4-0.4-0.4-1,0-1.4s1-0.4,1.4,0l2.8,2.8c0.4,0.4,0.4,1,0,1.4
	C14.1,16.5,13.9,16.6,13.6,16.6z"/>
<path d="M32,9c-0.6,0-1-0.4-1-1V4c0-0.6,0.4-1,1-1s1,0.4,1,1v4C33,8.6,32.6,9,32,9z"/>
<path d="M50.4,16.6c-0.3,0-0.5-0.1-0.7-0.3c-0.4-0.4-0.4-1,0-1.4l2.8-2.8c0.4-0.4,1-0.4,1.4,0s0.4,1,0,1.4l-2.8,2.8
	C50.9,16.5,50.7,16.6,50.4,16.6z"/>
<path d="M62,35h-4c-0.6,0-1-0.4-1-1s0.4-1,1-1h4c0.6,0,1,0.4,1,1S62.6,35,62,35z"/>
<path d="M53.2,56.2c-0.3,0-0.5-0.1-0.7-0.3l-2.8-2.8c-0.4-0.4-0.4-1,0-1.4s1-0.4,1.4,0l2.8,2.8c0.4,0.4,0.4,1,0,1.4
	C53.7,56.1,53.5,56.2,53.2,56.2z"/>
</svg>
