<?xml version="1.0" encoding="utf-8"?>
<!-- Generator: Adobe Illustrator 19.1.0, SVG Export Plug-In . SVG Version: 6.00 Build 0)  -->
<!DOCTYPE svg PUBLIC "-//W3C//DTD SVG 1.1//EN" "http://www.w3.org/Graphics/SVG/1.1/DTD/svg11.dtd">
<svg version="1.1" id="Layer_2" xmlns="http://www.w3.org/2000/svg" xmlns:xlink="http://www.w3.org/1999/xlink" x="0px" y="0px"
	 width="64px" height="64px" viewBox="0 0 64 64" enable-background="new 0 0 64 64" xml:space="preserve">
<path d="M51.1,25.2c-2,0-4,0.5-5.8,1.5c-2.5-5.8-8.3-9.7-14.7-9.7c-6,0-11.5,3.4-14.2,8.7c-1.1-0.4-2.3-0.5-3.5-0.5
	C6.3,25.2,1,30.5,1,37.1S6.3,49,12.9,49h12.3c-0.3-0.8-0.2-1.8,0.2-2.5l6-10C32,35.6,33,35,34,35c0.5,0,1.1,0.1,1.5,0.4
	c1.4,0.9,1.9,2.7,1,4.1L33.3,45H36c1.1,0,2.1,0.6,2.6,1.5c0.4,0.8,0.5,1.7,0.2,2.5h12.3C57.7,49,63,43.7,63,37.1
	S57.7,25.2,51.1,25.2z"/>
<path id="color_90_" d="M30,59c-0.2,0-0.4,0-0.5-0.1c-0.5-0.3-0.6-0.9-0.3-1.4l5.1-8.5H28c-0.4,0-0.7-0.2-0.9-0.5
	c-0.2-0.3-0.2-0.7,0-1l6-10c0.3-0.5,0.9-0.6,1.4-0.3c0.5,0.3,0.6,0.9,0.3,1.4L29.8,47H36c0.4,0,0.7,0.2,0.9,0.5c0.2,0.3,0.2,0.7,0,1
	l-6,10C30.7,58.8,30.3,59,30,59z"/>
<path id="color_9_" d="M30.6,15c6.5,0,12.4,3.5,15.6,9.1c1.5-0.6,3.2-0.9,4.8-0.9c3.3,0,6.3,1.2,8.7,3.1c0.8-2,1.2-4.1,1.2-6.3
	c0-0.8-0.1-1.7-0.2-2.7c0-0.3-0.2-0.5-0.4-0.7c-0.2-0.2-0.5-0.2-0.8-0.1C58.3,16.8,57.2,17,56,17c-7.1,0-12.9-5.8-13-12.9
	c0-0.3-0.1-0.6-0.3-0.7s-0.5-0.3-0.8-0.2C35,4,29.5,8.8,27.7,15.3C28.6,15.1,29.6,15,30.6,15z"/>
</svg>
