<?xml version="1.0" encoding="utf-8"?>
<!-- Generator: Adobe Illustrator 19.1.0, SVG Export Plug-In . SVG Version: 6.00 Build 0)  -->
<!DOCTYPE svg PUBLIC "-//W3C//DTD SVG 1.1//EN" "http://www.w3.org/Graphics/SVG/1.1/DTD/svg11.dtd">
<svg version="1.1" id="Layer_2" xmlns="http://www.w3.org/2000/svg" xmlns:xlink="http://www.w3.org/1999/xlink" x="0px" y="0px"
	 width="64px" height="64px" viewBox="0 0 64 64" enable-background="new 0 0 64 64" xml:space="preserve">
<path d="M52.9,21.1C51.5,10.7,42.6,3,32,3c-9,0-17,5.7-20,14.3C5.7,18.7,1,24.5,1,31c0,7.3,5.6,13.3,13,14h7V35c0-0.6,0.4-1,1-1
	s1,0.4,1,1v10h8v-4c0-0.6,0.4-1,1-1s1,0.4,1,1v4h8V35c0-0.6,0.4-1,1-1s1,0.4,1,1v10h9c0,0,0.1,0,0.1,0C58.3,44.3,63,39.2,63,33
	C63,27.1,58.7,22.1,52.9,21.1z"/>
<path id="color_32_" d="M21,45v8c0,0.6,0.4,1,1,1s1-0.4,1-1v-8H21z"/>
<path id="color_31_" d="M41,45v8c0,0.6,0.4,1,1,1s1-0.4,1-1v-8H41z"/>
<path id="color_30_" d="M31,45v14c0,0.6,0.4,1,1,1s1-0.4,1-1V45H31z"/>
</svg>
