<?xml version="1.0" encoding="utf-8"?>
<!-- Generator: Adobe Illustrator 19.1.0, SVG Export Plug-In . SVG Version: 6.00 Build 0)  -->
<!DOCTYPE svg PUBLIC "-//W3C//DTD SVG 1.1//EN" "http://www.w3.org/Graphics/SVG/1.1/DTD/svg11.dtd">
<svg version="1.1" id="Layer_2" xmlns="http://www.w3.org/2000/svg" xmlns:xlink="http://www.w3.org/1999/xlink" x="0px" y="0px"
	 width="64px" height="64px" viewBox="0 0 64 64" enable-background="new 0 0 64 64" xml:space="preserve">
<path id="color_120_" d="M42,7c-0.6,0-1-0.4-1-1V4c0-0.6,0.4-1,1-1s1,0.4,1,1v2C43,6.6,42.6,7,42,7z"/>
<path id="color_119_" d="M54.7,12.3c-0.3,0-0.5-0.1-0.7-0.3c-0.4-0.4-0.4-1,0-1.4l1.4-1.4c0.4-0.4,1-0.4,1.4,0s0.4,1,0,1.4L55.4,12
	C55.2,12.2,55,12.3,54.7,12.3z"/>
<path id="color_118_" d="M62,25h-2c-0.6,0-1-0.4-1-1s0.4-1,1-1h2c0.6,0,1,0.4,1,1S62.6,25,62,25z"/>
<path id="color_117_" d="M29.3,12.3c-0.3,0-0.5-0.1-0.7-0.3l-1.4-1.4c-0.4-0.4-0.4-1,0-1.4s1-0.4,1.4,0l1.4,1.4c0.4,0.4,0.4,1,0,1.4
	C29.8,12.2,29.5,12.3,29.3,12.3z"/>
<path id="color_116_" d="M30.6,19c6.5,0,12.4,3.5,15.6,9.1c1.5-0.6,3.2-0.9,4.8-0.9c1.2,0,2.3,0.2,3.4,0.4c0.3-1.2,0.5-2.4,0.5-3.6
	c0-7.2-5.8-13-13-13c-5.4,0-10.1,3.2-12.1,8C30.2,19,30.4,19,30.6,19z"/>
<path d="M51.1,29.2c-2,0-4,0.5-5.8,1.5c-2.5-5.8-8.3-9.7-14.7-9.7c-6,0-11.5,3.4-14.2,8.7c-1.1-0.4-2.3-0.5-3.5-0.5
	C6.3,29.2,1,34.5,1,41.1S6.3,53,12.9,53H26l-2.4-1.4c-1.4-0.8-1.9-2.7-1.1-4.1C23,46.6,24,46,25.1,46c0.5,0,1,0.1,1.5,0.4l2.4,1.4
	V45c0-1.7,1.3-3,3-3s3,1.3,3,3v2.8l2.4-1.4c0.5-0.3,1-0.4,1.5-0.4c1.1,0,2.1,0.6,2.6,1.5c0.8,1.4,0.3,3.3-1.1,4.1L38,53h13.1
	C57.7,53,63,47.7,63,41.1S57.7,29.2,51.1,29.2z"/>
<path id="color_76_" d="M39.4,56.1L34,53l5.4-3.1c0.5-0.3,0.6-0.9,0.4-1.4c-0.3-0.5-0.9-0.6-1.4-0.4L33,51.3V45c0-0.6-0.4-1-1-1
	s-1,0.4-1,1v6.3l-5.4-3.1c-0.5-0.3-1.1-0.1-1.4,0.4c-0.3,0.5-0.1,1.1,0.4,1.4L30,53l-5.4,3.1c-0.5,0.3-0.6,0.9-0.4,1.4
	c0.2,0.3,0.5,0.5,0.9,0.5c0.2,0,0.3,0,0.5-0.1l5.4-3.1V61c0,0.6,0.4,1,1,1s1-0.4,1-1v-6.3l5.4,3.1c0.2,0.1,0.3,0.1,0.5,0.1
	c0.3,0,0.7-0.2,0.9-0.5C40.1,57,39.9,56.4,39.4,56.1z"/>
</svg>
