<?xml version="1.0" encoding="utf-8"?>
<!-- Generator: Adobe Illustrator 19.1.0, SVG Export Plug-In . SVG Version: 6.00 Build 0)  -->
<!DOCTYPE svg PUBLIC "-//W3C//DTD SVG 1.1//EN" "http://www.w3.org/Graphics/SVG/1.1/DTD/svg11.dtd">
<svg version="1.1" id="Layer_2" xmlns="http://www.w3.org/2000/svg" xmlns:xlink="http://www.w3.org/1999/xlink" x="0px" y="0px"
	 width="64px" height="64px" viewBox="0 0 64 64" enable-background="new 0 0 64 64" xml:space="preserve">
<path d="M52.9,21.1C51.5,10.7,42.6,3,32,3c-9,0-17,5.7-20,14.3C5.7,18.7,1,24.5,1,31c0,7.3,5.6,13.3,13,14h10.3l-0.7-0.4
	c-1.4-0.8-1.9-2.7-1.1-4.1C23,39.6,24,39,25.1,39c0.5,0,1,0.1,1.5,0.4l2.4,1.4V38c0-1.7,1.3-3,3-3s3,1.3,3,3v2.8l2.4-1.4
	c0.5-0.3,1-0.4,1.5-0.4c1.1,0,2.1,0.6,2.6,1.5c0.8,1.4,0.3,3.3-1.1,4.1L39.7,45H52c0,0,0.1,0,0.1,0C58.3,44.3,63,39.2,63,33
	C63,27.1,58.7,22.1,52.9,21.1z"/>
<path id="color_77_" d="M39.4,49.1L34,46l5.4-3.1c0.5-0.3,0.6-0.9,0.4-1.4c-0.3-0.5-0.9-0.6-1.4-0.4L33,44.3V38c0-0.6-0.4-1-1-1
	s-1,0.4-1,1v6.3l-5.4-3.1c-0.5-0.3-1.1-0.1-1.4,0.4c-0.3,0.5-0.1,1.1,0.4,1.4L30,46l-5.4,3.1c-0.5,0.3-0.6,0.9-0.4,1.4
	c0.2,0.3,0.5,0.5,0.9,0.5c0.2,0,0.3,0,0.5-0.1l5.4-3.1V54c0,0.6,0.4,1,1,1s1-0.4,1-1v-6.3l5.4,3.1c0.2,0.1,0.3,0.1,0.5,0.1
	c0.3,0,0.7-0.2,0.9-0.5C40.1,50,39.9,49.4,39.4,49.1z"/>
</svg>
