<?xml version="1.0" encoding="utf-8"?>
<!-- Generator: Adobe Illustrator 19.1.0, SVG Export Plug-In . SVG Version: 6.00 Build 0)  -->
<!DOCTYPE svg PUBLIC "-//W3C//DTD SVG 1.1//EN" "http://www.w3.org/Graphics/SVG/1.1/DTD/svg11.dtd">
<svg version="1.1" id="Layer_2" xmlns="http://www.w3.org/2000/svg" xmlns:xlink="http://www.w3.org/1999/xlink" x="0px" y="0px"
	 width="64px" height="64px" viewBox="0 0 64 64" enable-background="new 0 0 64 64" xml:space="preserve">
<path d="M52.8,29.1C51.4,18.7,42.6,11,32,11c-9.1,0-17,5.7-19.9,14.3C5.6,26.7,1,32.3,1,39c0,7.3,5.7,13.4,13,14h38h0.1
	C58.2,52.4,63,47.2,63,41C63,35.1,58.6,30,52.8,29.1z M42.7,34.7C42.5,34.9,42.3,35,42,35s-0.5-0.1-0.7-0.3L33,26.4V46
	c0,0.6-0.4,1-1,1s-1-0.4-1-1V26.4l-8.3,8.3c-0.4,0.4-1,0.4-1.4,0s-0.4-1,0-1.4l10-10c0.1-0.1,0.2-0.2,0.3-0.2c0.2-0.1,0.5-0.1,0.8,0
	c0.1,0.1,0.2,0.1,0.3,0.2l10,10C43.1,33.7,43.1,34.3,42.7,34.7z"/>
</svg>
