<?xml version="1.0" encoding="utf-8"?>
<!-- Generator: Adobe Illustrator 19.1.0, SVG Export Plug-In . SVG Version: 6.00 Build 0)  -->
<!DOCTYPE svg PUBLIC "-//W3C//DTD SVG 1.1//EN" "http://www.w3.org/Graphics/SVG/1.1/DTD/svg11.dtd">
<svg version="1.1" id="Layer_2" xmlns="http://www.w3.org/2000/svg" xmlns:xlink="http://www.w3.org/1999/xlink" x="0px" y="0px"
	 width="64px" height="64px" viewBox="0 0 64 64" enable-background="new 0 0 64 64" xml:space="preserve">
<path d="M59.3,5.3l-30,30c-0.4,0.4-0.4,1,0,1.4c0.2,0.2,0.5,0.3,0.7,0.3s0.5-0.1,0.7-0.3l30-30c0.4-0.4,0.4-1,0-1.4
	S59.7,4.9,59.3,5.3z"/>
<path d="M34.7,11.3c-0.4-0.4-1-0.4-1.4,0l-30,30c-0.4,0.4-0.4,1,0,1.4C3.5,42.9,3.7,43,4,43s0.5-0.1,0.7-0.3l30-30
	C35.1,12.3,35.1,11.7,34.7,11.3z"/>
<path d="M59.3,25.3l-30,30c-0.4,0.4-0.4,1,0,1.4c0.2,0.2,0.5,0.3,0.7,0.3s0.5-0.1,0.7-0.3l30-30c0.4-0.4,0.4-1,0-1.4
	S59.7,24.9,59.3,25.3z"/>
</svg>
