<?xml version="1.0" encoding="utf-8"?>
<!-- Generator: Adobe Illustrator 19.1.0, SVG Export Plug-In . SVG Version: 6.00 Build 0)  -->
<!DOCTYPE svg PUBLIC "-//W3C//DTD SVG 1.1//EN" "http://www.w3.org/Graphics/SVG/1.1/DTD/svg11.dtd">
<svg version="1.1" id="Layer_2" xmlns="http://www.w3.org/2000/svg" xmlns:xlink="http://www.w3.org/1999/xlink" x="0px" y="0px"
	 width="64px" height="64px" viewBox="0 0 64 64" enable-background="new 0 0 64 64" xml:space="preserve">
<path d="M32.7,2.3c-0.4-0.4-1-0.4-1.4,0C30.4,3.2,9,24.9,9,39c0,14.9,11.9,23,23,23s23-8.1,23-23C55,24.9,33.6,3.2,32.7,2.3z M32,48
	c-0.1,0-9-0.1-9-9c0-0.6,0.4-1,1-1s1,0.4,1,1c0,6.8,6.7,7,7,7c0.6,0,1,0.5,1,1C33,47.6,32.6,48,32,48z"/>
</svg>
