<?xml version="1.0" encoding="utf-8"?>
<!-- Generator: Adobe Illustrator 19.1.0, SVG Export Plug-In . SVG Version: 6.00 Build 0)  -->
<!DOCTYPE svg PUBLIC "-//W3C//DTD SVG 1.1//EN" "http://www.w3.org/Graphics/SVG/1.1/DTD/svg11.dtd">
<svg version="1.1" id="Layer_2" xmlns="http://www.w3.org/2000/svg" xmlns:xlink="http://www.w3.org/1999/xlink" x="0px" y="0px"
	 width="64px" height="64px" viewBox="0 0 64 64" enable-background="new 0 0 64 64" xml:space="preserve">
<path id="color_89_" d="M62,51H2c-0.6,0-1-0.4-1-1s0.4-1,1-1h60c0.6,0,1,0.4,1,1S62.6,51,62,51z"/>
<path id="color_88_" d="M54,59H10c-0.6,0-1-0.4-1-1s0.4-1,1-1h44c0.6,0,1,0.4,1,1S54.6,59,54,59z"/>
<path d="M51.1,29.2c-2,0-4,0.5-5.8,1.5c-2.5-5.8-8.3-9.7-14.7-9.7c-6,0-11.5,3.4-14.2,8.7c-1.1-0.4-2.3-0.5-3.5-0.5
	C6.3,29.2,1,34.5,1,41.1c0,0.3,0,0.7,0,1c0,0.5,0.5,0.9,1,0.9L62,43c0.5,0,1-0.4,1-0.9c0-0.3,0-0.7,0-1C63,34.5,57.7,29.2,51.1,29.2
	z"/>
<path id="color_48_" d="M42,7c-0.6,0-1-0.4-1-1V4c0-0.6,0.4-1,1-1s1,0.4,1,1v2C43,6.6,42.6,7,42,7z"/>
<path id="color_47_" d="M54.7,12.3c-0.3,0-0.5-0.1-0.7-0.3c-0.4-0.4-0.4-1,0-1.4l1.4-1.4c0.4-0.4,1-0.4,1.4,0c0.4,0.4,0.4,1,0,1.4
	L55.4,12C55.2,12.2,55,12.3,54.7,12.3z"/>
<path id="color_46_" d="M62,25h-2c-0.6,0-1-0.4-1-1s0.4-1,1-1h2c0.6,0,1,0.4,1,1S62.6,25,62,25z"/>
<path id="color_45_" d="M29.3,12.3c-0.3,0-0.5-0.1-0.7-0.3l-1.4-1.4c-0.4-0.4-0.4-1,0-1.4c0.4-0.4,1-0.4,1.4,0l1.4,1.4
	c0.4,0.4,0.4,1,0,1.4C29.8,12.2,29.5,12.3,29.3,12.3z"/>
<path id="color_19_" d="M30.6,19c6.5,0,12.4,3.5,15.6,9.1c1.5-0.6,3.2-0.9,4.8-0.9c1.2,0,2.3,0.2,3.4,0.4c0.3-1.2,0.5-2.4,0.5-3.6
	c0-7.2-5.8-13-13-13c-5.4,0-10.1,3.2-12.1,8C30.2,19,30.4,19,30.6,19z"/>
</svg>
