<?xml version="1.0" encoding="utf-8"?>
<!-- Generator: Adobe Illustrator 19.1.0, SVG Export Plug-In . SVG Version: 6.00 Build 0)  -->
<!DOCTYPE svg PUBLIC "-//W3C//DTD SVG 1.1//EN" "http://www.w3.org/Graphics/SVG/1.1/DTD/svg11.dtd">
<svg version="1.1" id="Layer_2" xmlns="http://www.w3.org/2000/svg" xmlns:xlink="http://www.w3.org/1999/xlink" x="0px" y="0px"
	 width="64px" height="64px" viewBox="0 0 64 64" enable-background="new 0 0 64 64" xml:space="preserve">
<path id="color_15_" d="M30.6,15c6.5,0,12.4,3.5,15.6,9.1c1.5-0.6,3.2-0.9,4.8-0.9c3.3,0,6.3,1.2,8.7,3.1c0.8-2,1.2-4.1,1.2-6.3
	c0-0.8-0.1-1.7-0.2-2.7c0-0.3-0.2-0.5-0.4-0.7c-0.2-0.2-0.5-0.2-0.8-0.1C58.3,16.8,57.2,17,56,17c-7.1,0-12.9-5.8-13-12.9
	c0-0.3-0.1-0.6-0.3-0.7s-0.5-0.3-0.8-0.2C35,4,29.5,8.8,27.7,15.3C28.6,15.1,29.6,15,30.6,15z"/>
<path d="M51.1,25.2c-2,0-4,0.5-5.8,1.5c-2.5-5.8-8.3-9.7-14.7-9.7c-6,0-11.5,3.4-14.2,8.7c-1.1-0.4-2.3-0.5-3.5-0.5
	C6.3,25.2,1,30.5,1,37.1S6.3,49,12.9,49H23V38c0-0.6,0.4-1,1-1s1,0.4,1,1v11h6v-5c0-0.6,0.4-1,1-1s1,0.4,1,1v5h6V38c0-0.6,0.4-1,1-1
	s1,0.4,1,1v11h10.1C57.7,49,63,43.7,63,37.1S57.7,25.2,51.1,25.2z"/>
<path id="color_14_" d="M23,49v5c0,0.6,0.4,1,1,1s1-0.4,1-1v-5H23z"/>
<path id="color_13_" d="M39,49v5c0,0.6,0.4,1,1,1s1-0.4,1-1v-5H39z"/>
<path id="color_12_" d="M31,49v11c0,0.6,0.4,1,1,1s1-0.4,1-1V49H31z"/>
</svg>
