<?xml version="1.0" encoding="utf-8"?>
<!-- Generator: Adobe Illustrator 19.1.0, SVG Export Plug-In . SVG Version: 6.00 Build 0)  -->
<!DOCTYPE svg PUBLIC "-//W3C//DTD SVG 1.1//EN" "http://www.w3.org/Graphics/SVG/1.1/DTD/svg11.dtd">
<svg version="1.1" id="Layer_2" xmlns="http://www.w3.org/2000/svg" xmlns:xlink="http://www.w3.org/1999/xlink" x="0px" y="0px"
	 width="64px" height="64px" viewBox="0 0 64 64" enable-background="new 0 0 64 64" xml:space="preserve">
<path id="color_61_" d="M62,41H2c-0.6,0-1,0.4-1,1s0.4,1,1,1h60c0.6,0,1-0.4,1-1S62.6,41,62,41z"/>
<path id="color_60_" d="M54,49H10c-0.6,0-1,0.4-1,1s0.4,1,1,1h44c0.6,0,1-0.4,1-1S54.6,49,54,49z"/>
<path id="color_59_" d="M46,57H18c-0.6,0-1,0.4-1,1s0.4,1,1,1h28c0.6,0,1-0.4,1-1S46.6,57,46,57z"/>
<path d="M4,35h56c0,0,0,0,0,0c0.6,0,1-0.4,1-1c0-0.1,0-0.1,0-0.2C60.9,17.9,47.9,5,32,5C16,5,3,18,3,34C3,34.6,3.4,35,4,35z"/>
</svg>
