<?xml version="1.0" encoding="utf-8"?>
<!-- Generator: Adobe Illustrator 19.1.0, SVG Export Plug-In . SVG Version: 6.00 Build 0)  -->
<!DOCTYPE svg PUBLIC "-//W3C//DTD SVG 1.1//EN" "http://www.w3.org/Graphics/SVG/1.1/DTD/svg11.dtd">
<svg version="1.1" id="Layer_2" xmlns="http://www.w3.org/2000/svg" xmlns:xlink="http://www.w3.org/1999/xlink" x="0px" y="0px"
	 width="64px" height="64px" viewBox="0 0 64 64" enable-background="new 0 0 64 64" xml:space="preserve">
<path id="color_83_" d="M22,55H2c-0.6,0-1-0.4-1-1s0.4-1,1-1h20c0.6,0,1,0.4,1,1S22.6,55,22,55z"/>
<path d="M60.7,38.3c-0.3-0.3-0.6-0.4-1-0.3c-2.4,0.7-4.9,1-7.3,1C37.3,39,25,26.7,25,11.5c0-2.4,0.3-4.8,1-7.3c0.1-0.3,0-0.7-0.3-1
	c-0.3-0.3-0.6-0.4-1-0.3C11.9,6.5,3,18.2,3,31.5C3,39,5.8,45.8,10.4,51H22c1.7,0,3,1.3,3,3s0,3,0,3h7c1.7,0,3,1.3,3,3
	c0,0.3-0.1,0.6-0.2,0.9c12.3-1,22.8-9.6,26.1-21.6C61.1,38.9,61,38.5,60.7,38.3z"/>
<path id="color_82_" d="M32,61H12c-0.6,0-1-0.4-1-1s0.4-1,1-1h20c0.6,0,1,0.4,1,1S32.6,61,32,61z"/>
</svg>
