<?xml version="1.0" encoding="utf-8"?>
<!-- Generator: Adobe Illustrator 19.1.0, SVG Export Plug-In . SVG Version: 6.00 Build 0)  -->
<!DOCTYPE svg PUBLIC "-//W3C//DTD SVG 1.1//EN" "http://www.w3.org/Graphics/SVG/1.1/DTD/svg11.dtd">
<svg version="1.1" id="Layer_2" xmlns="http://www.w3.org/2000/svg" xmlns:xlink="http://www.w3.org/1999/xlink" x="0px" y="0px"
	 width="64px" height="64px" viewBox="0 0 64 64" enable-background="new 0 0 64 64" xml:space="preserve">
<path d="M52.9,21.1C51.5,10.7,42.6,3,32,3c-9,0-17,5.7-20,14.3C5.7,18.7,1,24.5,1,31c0,7.3,5.6,13.3,13,14h10.7
	c1.1-1.8,2.4-3.9,4.1-6.2c0.8-1,1.9-1.6,3.2-1.6s2.4,0.6,3.2,1.6c1.7,2.3,3.1,4.3,4.1,6.2H52c0,0,0.1,0,0.1,0
	C58.3,44.3,63,39.2,63,33C63,27.1,58.7,22.1,52.9,21.1z"/>
<path id="color_113_" d="M24,52.4c0-3.3,4.1-9.2,6.4-12.3c0.8-1.1,2.4-1.1,3.2,0c2.3,3.1,6.4,9,6.4,12.3c0,4.9-4.1,7.6-8,7.6
	S24,57.2,24,52.4z"/>
</svg>
