<?xml version="1.0" encoding="utf-8"?>
<!-- Generator: Adobe Illustrator 19.1.0, SVG Export Plug-In . SVG Version: 6.00 Build 0)  -->
<!DOCTYPE svg PUBLIC "-//W3C//DTD SVG 1.1//EN" "http://www.w3.org/Graphics/SVG/1.1/DTD/svg11.dtd">
<svg version="1.1" id="Layer_2" xmlns="http://www.w3.org/2000/svg" xmlns:xlink="http://www.w3.org/1999/xlink" x="0px" y="0px"
	 width="64px" height="64px" viewBox="0 0 64 64" enable-background="new 0 0 64 64" xml:space="preserve">
<path d="M6,31H2c-0.6,0-1,0.4-1,1c0,0.6,0.4,1,1,1h4c0.6,0,1-0.4,1-1S6.6,31,6,31z"/>
<path d="M11.5,10.1c-0.4-0.4-1-0.4-1.4,0s-0.4,1,0,1.4l2.8,2.8c0.2,0.2,0.5,0.3,0.7,0.3s0.5-0.1,0.7-0.3c0.4-0.4,0.4-1,0-1.4
	L11.5,10.1z"/>
<path d="M32,7c0.6,0,1-0.4,1-1V2c0-0.6-0.4-1-1-1s-1,0.4-1,1v4C31,6.6,31.4,7,32,7z"/>
<path d="M52.5,10.1l-2.8,2.8c-0.4,0.4-0.4,1,0,1.4c0.2,0.2,0.5,0.3,0.7,0.3s0.5-0.1,0.7-0.3l2.8-2.8c0.4-0.4,0.4-1,0-1.4
	C53.5,9.7,52.9,9.7,52.5,10.1z"/>
<path d="M62,31h-4c-0.6,0-1,0.4-1,1c0,0.6,0.4,1,1,1h4c0.6,0,1-0.4,1-1S62.6,31,62,31z"/>
<path d="M51.1,49.7c-0.4-0.4-1-0.4-1.4,0s-0.4,1,0,1.4l2.8,2.8c0.2,0.2,0.5,0.3,0.7,0.3s0.5-0.1,0.7-0.3c0.4-0.4,0.4-1,0-1.4
	L51.1,49.7z"/>
<path d="M32,57c-0.6,0-1,0.4-1,1v4c0,0.6,0.4,1,1,1c0.6,0,1-0.4,1-1v-4C33,57.4,32.6,57,32,57z"/>
<path d="M12.9,49.7l-2.8,2.8c-0.4,0.4-0.4,1,0,1.4c0.2,0.2,0.5,0.3,0.7,0.3s0.5-0.1,0.7-0.3l2.8-2.8c0.4-0.4,0.4-1,0-1.4
	S13.3,49.3,12.9,49.7z"/>
<path d="M32,15c-9.4,0-17,7.6-17,17s7.6,17,17,17s17-7.6,17-17S41.4,15,32,15z"/>
</svg>
