<?xml version="1.0" encoding="utf-8"?>
<!-- Generator: Adobe Illustrator 19.1.0, SVG Export Plug-In . SVG Version: 6.00 Build 0)  -->
<!DOCTYPE svg PUBLIC "-//W3C//DTD SVG 1.1//EN" "http://www.w3.org/Graphics/SVG/1.1/DTD/svg11.dtd">
<svg version="1.1" id="Layer_2" xmlns="http://www.w3.org/2000/svg" xmlns:xlink="http://www.w3.org/1999/xlink" x="0px" y="0px"
	 width="64px" height="64px" viewBox="0 0 64 64" enable-background="new 0 0 64 64" xml:space="preserve">
<path id="color_26_" d="M32,39c-3.9,0-7-3.1-7-7s3.1-7,7-7s7,3.1,7,7S35.9,39,32,39z"/>
<path d="M31,15.4v7.6c0.3,0,0.7-0.1,1-0.1s0.7,0,1,0.1v-7.6l7.7-7.7c0.4-0.4,0.4-1,0-1.4s-1-0.4-1.4,0L33,12.6V2c0-0.6-0.4-1-1-1
	s-1,0.4-1,1v10.6l-6.3-6.3c-0.4-0.4-1-0.4-1.4,0s-0.4,1,0,1.4L31,15.4z"/>
<path d="M40.2,28.4l6.6-3.8l10.5,2.8c0.1,0,0.2,0,0.3,0c0.4,0,0.8-0.3,1-0.7c0.1-0.5-0.2-1.1-0.7-1.2l-8.6-2.3l9.2-5.3
	c0.5-0.3,0.6-0.9,0.4-1.4c-0.3-0.5-0.9-0.6-1.4-0.4l-9.2,5.3l2.3-8.6c0.1-0.5-0.2-1.1-0.7-1.2c-0.5-0.1-1.1,0.2-1.2,0.7l-2.8,10.5
	l-6.6,3.8C39.6,27.2,40,27.8,40.2,28.4z"/>
<path d="M5.5,17.9l9.2,5.3l-8.6,2.3c-0.5,0.1-0.8,0.7-0.7,1.2c0.1,0.4,0.5,0.7,1,0.7c0.1,0,0.2,0,0.3,0l10.5-2.8l6.6,3.8
	c0.3-0.6,0.6-1.2,1-1.7l-6.6-3.8l-2.8-10.5c-0.1-0.5-0.7-0.9-1.2-0.7c-0.5,0.1-0.8,0.7-0.7,1.2l2.3,8.6l-9.2-5.3
	C6,15.9,5.4,16,5.2,16.5S5,17.6,5.5,17.9z"/>
<path d="M33,48.6v-7.6c-0.3,0-0.7,0.1-1,0.1s-0.7,0-1-0.1v7.6l-7.7,7.7c-0.4,0.4-0.4,1,0,1.4s1,0.4,1.4,0l6.3-6.3V62
	c0,0.6,0.4,1,1,1s1-0.4,1-1V51.4l6.3,6.3c0.2,0.2,0.5,0.3,0.7,0.3s0.5-0.1,0.7-0.3c0.4-0.4,0.4-1,0-1.4L33,48.6z"/>
<path d="M23.8,35.6l-6.6,3.8L6.6,36.6c-0.5-0.1-1.1,0.2-1.2,0.7c-0.1,0.5,0.2,1.1,0.7,1.2l8.6,2.3l-9.2,5.3C5,46.4,4.9,47,5.2,47.5
	C5.3,47.8,5.7,48,6,48c0.2,0,0.3,0,0.5-0.1l9.2-5.3l-2.3,8.6c-0.1,0.5,0.2,1.1,0.7,1.2c0.1,0,0.2,0,0.3,0c0.4,0,0.8-0.3,1-0.7
	l2.8-10.5l6.6-3.8C24.4,36.8,24,36.2,23.8,35.6z"/>
<path d="M58.5,46.1l-9.2-5.3l8.6-2.3c0.5-0.1,0.8-0.7,0.7-1.2c-0.1-0.5-0.7-0.9-1.2-0.7l-10.5,2.8l-6.6-3.8c-0.3,0.6-0.6,1.2-1,1.7
	l6.6,3.8l2.8,10.5c0.1,0.4,0.5,0.7,1,0.7c0.1,0,0.2,0,0.3,0c0.5-0.1,0.8-0.7,0.7-1.2l-2.3-8.6l9.2,5.3C57.6,48,57.8,48,58,48
	c0.3,0,0.7-0.2,0.9-0.5C59.1,47,59,46.4,58.5,46.1z"/>
</svg>
