<?xml version="1.0" encoding="utf-8"?>
<!-- Generator: Adobe Illustrator 19.1.0, SVG Export Plug-In . SVG Version: 6.00 Build 0)  -->
<!DOCTYPE svg PUBLIC "-//W3C//DTD SVG 1.1//EN" "http://www.w3.org/Graphics/SVG/1.1/DTD/svg11.dtd">
<svg version="1.1" id="Layer_2" xmlns="http://www.w3.org/2000/svg" xmlns:xlink="http://www.w3.org/1999/xlink" x="0px" y="0px"
	 width="64px" height="64px" viewBox="0 0 64 64" enable-background="new 0 0 64 64" xml:space="preserve">
<path d="M52.9,22.1C51.5,11.7,42.6,4,32,4c-9,0-17,5.7-20,14.3C5.7,19.7,1,25.5,1,32c0,7.3,5.6,13.3,13,14h17v-1c0-0.6,0.4-1,1-1
	s1,0.4,1,1v1h19c0,0,0.1,0,0.1,0C58.3,45.3,63,40.2,63,34C63,28.1,58.7,23.1,52.9,22.1z M23,41c0,0.6-0.4,1-1,1s-1-0.4-1-1v-2
	c0-0.6,0.4-1,1-1s1,0.4,1,1V41z M43,41c0,0.6-0.4,1-1,1s-1-0.4-1-1v-2c0-0.6,0.4-1,1-1s1,0.4,1,1V41z"/>
<path id="color_69_" d="M32,58c-0.6,0-1-0.4-1-1v-2c0-0.6,0.4-1,1-1s1,0.4,1,1v2C33,57.6,32.6,58,32,58z"/>
<path id="color_68_" d="M22,52c-0.6,0-1-0.4-1-1v-2c0-0.6,0.4-1,1-1s1,0.4,1,1v2C23,51.6,22.6,52,22,52z"/>
<path id="color_67_" d="M42,52c-0.6,0-1-0.4-1-1v-2c0-0.6,0.4-1,1-1s1,0.4,1,1v2C43,51.6,42.6,52,42,52z"/>
</svg>
