<?xml version="1.0" encoding="utf-8"?>
<!-- Generator: Adobe Illustrator 19.1.0, SVG Export Plug-In . SVG Version: 6.00 Build 0)  -->
<!DOCTYPE svg PUBLIC "-//W3C//DTD SVG 1.1//EN" "http://www.w3.org/Graphics/SVG/1.1/DTD/svg11.dtd">
<svg version="1.1" id="Layer_2" xmlns="http://www.w3.org/2000/svg" xmlns:xlink="http://www.w3.org/1999/xlink" x="0px" y="0px"
	 width="64px" height="64px" viewBox="0 0 64 64" enable-background="new 0 0 64 64" xml:space="preserve">
<path id="color_44_" d="M62,49H2c-0.6,0-1-0.4-1-1s0.4-1,1-1h60c0.6,0,1,0.4,1,1S62.6,49,62,49z"/>
<path id="color_43_" d="M54,57H10c-0.6,0-1-0.4-1-1s0.4-1,1-1h44c0.6,0,1,0.4,1,1S54.6,57,54,57z"/>
<path d="M51.1,27.2c-2,0-4,0.5-5.8,1.5c-2.5-5.8-8.3-9.7-14.7-9.7c-6,0-11.5,3.4-14.2,8.7c-1.1-0.4-2.3-0.5-3.5-0.5
	C6.3,27.2,1,32.5,1,39.1c0,0.3,0,0.7,0,1c0,0.5,0.5,0.9,1,0.9L62,41c0.5,0,1-0.4,1-0.9c0-0.3,0-0.7,0-1C63,32.5,57.7,27.2,51.1,27.2
	z"/>
<path id="color_3_" d="M30.6,17c6.5,0,12.4,3.5,15.6,9.1c1.5-0.6,3.2-0.9,4.8-0.9c3.3,0,6.3,1.1,8.7,3c0.8-2,1.2-4.2,1.2-6.4
	c0-0.8-0.1-1.7-0.2-2.7c0-0.3-0.2-0.5-0.4-0.7c-0.2-0.2-0.5-0.2-0.8-0.1c-1.2,0.3-2.4,0.5-3.5,0.5c-7.1,0-12.9-5.8-13-12.9
	c0-0.3-0.1-0.6-0.3-0.7S42.2,5,41.9,5C35,5.9,29.5,10.7,27.6,17.3C28.6,17.1,29.6,17,30.6,17z"/>
</svg>
