<?xml version="1.0" encoding="utf-8"?>
<!-- Generator: Adobe Illustrator 19.1.0, SVG Export Plug-In . SVG Version: 6.00 Build 0)  -->
<!DOCTYPE svg PUBLIC "-//W3C//DTD SVG 1.1//EN" "http://www.w3.org/Graphics/SVG/1.1/DTD/svg11.dtd">
<svg version="1.1" id="Layer_2" xmlns="http://www.w3.org/2000/svg" xmlns:xlink="http://www.w3.org/1999/xlink" x="0px" y="0px"
	 width="64px" height="64px" viewBox="0 0 64 64" enable-background="new 0 0 64 64" xml:space="preserve">
<path d="M59.7,38c-2.4,0.7-4.9,1-7.3,1C37.3,39,25,26.7,25,11.5c0-2.4,0.3-4.8,1-7.3c0.1-0.3,0-0.7-0.3-1c-0.3-0.3-0.6-0.4-1-0.3
	C11.9,6.5,3,18.2,3,31.5C3,47.8,16.2,61,32.5,61c13.3,0,25-8.9,28.4-21.7c0.1-0.3,0-0.7-0.3-1C60.5,38,60.1,37.9,59.7,38z"/>
</svg>
