<?xml version="1.0" encoding="utf-8"?>
<!-- Generator: Adobe Illustrator 19.1.0, SVG Export Plug-In . SVG Version: 6.00 Build 0)  -->
<!DOCTYPE svg PUBLIC "-//W3C//DTD SVG 1.1//EN" "http://www.w3.org/Graphics/SVG/1.1/DTD/svg11.dtd">
<svg version="1.1" id="Layer_2" xmlns="http://www.w3.org/2000/svg" xmlns:xlink="http://www.w3.org/1999/xlink" x="0px" y="0px"
	 width="64px" height="64px" viewBox="0 0 64 64" enable-background="new 0 0 64 64" xml:space="preserve">
<path id="color_135_" d="M42,5c-0.6,0-1-0.4-1-1V2c0-0.6,0.4-1,1-1s1,0.4,1,1v2C43,4.6,42.6,5,42,5z"/>
<path id="color_134_" d="M54.7,10.3c-0.3,0-0.5-0.1-0.7-0.3c-0.4-0.4-0.4-1,0-1.4l1.4-1.4c0.4-0.4,1-0.4,1.4,0s0.4,1,0,1.4L55.4,10
	C55.2,10.2,55,10.3,54.7,10.3z"/>
<path id="color_133_" d="M62,23h-2c-0.6,0-1-0.4-1-1s0.4-1,1-1h2c0.6,0,1,0.4,1,1S62.6,23,62,23z"/>
<path id="color_132_" d="M29.3,10.3c-0.3,0-0.5-0.1-0.7-0.3l-1.4-1.4c-0.4-0.4-0.4-1,0-1.4s1-0.4,1.4,0L30,8.6c0.4,0.4,0.4,1,0,1.4
	C29.8,10.2,29.5,10.3,29.3,10.3z"/>
<path id="color_131_" d="M30.6,17c6.5,0,12.4,3.5,15.6,9.1c1.5-0.6,3.2-0.9,4.8-0.9c1.2,0,2.3,0.2,3.4,0.4c0.3-1.2,0.5-2.4,0.5-3.6
	c0-7.2-5.8-13-13-13c-5.4,0-10.1,3.2-12.1,8C30.2,17,30.4,17,30.6,17z"/>
<path d="M51.1,27.2c-2,0-4,0.5-5.8,1.5c-2.5-5.8-8.3-9.7-14.7-9.7c-6,0-11.5,3.4-14.2,8.7c-1.1-0.4-2.3-0.5-3.5-0.5
	C6.3,27.2,1,32.5,1,39.1S6.3,51,12.9,51h9.5c1.1-3.6,4-7.6,6.5-10.6c0.8-0.9,1.9-1.4,3.1-1.4s2.3,0.5,3.1,1.4c2.5,3,5.4,7,6.5,10.6
	h9.5C57.7,51,63,45.7,63,39.1S57.7,27.2,51.1,27.2z"/>
<path id="color_112_" d="M24,53.6c0-3.7,4.2-9.1,6.5-11.9c0.8-0.9,2.2-0.9,3,0c2.3,2.8,6.5,8.2,6.5,11.9c0,5.3-4.1,8.4-8,8.4
	S24,59,24,53.6z"/>
</svg>
