<?xml version="1.0" encoding="utf-8"?>
<!-- Generator: Adobe Illustrator 19.1.0, SVG Export Plug-In . SVG Version: 6.00 Build 0)  -->
<!DOCTYPE svg PUBLIC "-//W3C//DTD SVG 1.1//EN" "http://www.w3.org/Graphics/SVG/1.1/DTD/svg11.dtd">
<svg version="1.1" id="Layer_2" xmlns="http://www.w3.org/2000/svg" xmlns:xlink="http://www.w3.org/1999/xlink" x="0px" y="0px"
	 width="64px" height="64px" viewBox="0 0 64 64" enable-background="new 0 0 64 64" xml:space="preserve">
<path id="color_105_" d="M36,5c-0.6,0-1-0.4-1-1V2c0-0.6,0.4-1,1-1s1,0.4,1,1v2C37,4.6,36.6,5,36,5z"/>
<path id="color_104_" d="M53,12c-0.3,0-0.5-0.1-0.7-0.3c-0.4-0.4-0.4-1,0-1.4l1.4-1.4c0.4-0.4,1-0.4,1.4,0s0.4,1,0,1.4l-1.4,1.4
	C53.5,11.9,53.2,12,53,12z"/>
<path id="color_103_" d="M62,29h-2c-0.6,0-1-0.4-1-1s0.4-1,1-1h2c0.6,0,1,0.4,1,1S62.6,29,62,29z"/>
<path id="color_102_" d="M19,12c-0.3,0-0.5-0.1-0.7-0.3l-1.4-1.4c-0.4-0.4-0.4-1,0-1.4s1-0.4,1.4,0l1.4,1.4c0.4,0.4,0.4,1,0,1.4
	C19.5,11.9,19.3,12,19,12z"/>
<path d="M48.4,33.9c-3,0-5.8,0.9-8.3,2.6c-2.8-8-10.4-13.5-19-13.5C10,23,1,32,1,43s9,20,20.1,20h27.3C56.4,63,63,56.5,63,48.4
	S56.4,33.9,48.4,33.9z"/>
<path id="color_33_" d="M21.1,21c8.6,0,16.3,5,20,12.6c2.3-1.1,4.8-1.7,7.3-1.7c1.4,0,2.7,0.2,4,0.5C52.8,31,53,29.5,53,28
	c0-9.4-7.6-17-17-17c-6.8,0-12.8,4-15.5,10C20.7,21,20.9,21,21.1,21z"/>
</svg>
