<?xml version="1.0" encoding="utf-8"?>
<!-- Generator: Adobe Illustrator 19.1.0, SVG Export Plug-In . SVG Version: 6.00 Build 0)  -->
<!DOCTYPE svg PUBLIC "-//W3C//DTD SVG 1.1//EN" "http://www.w3.org/Graphics/SVG/1.1/DTD/svg11.dtd">
<svg version="1.1" id="Layer_1" xmlns="http://www.w3.org/2000/svg" xmlns:xlink="http://www.w3.org/1999/xlink" x="0px" y="0px"
	 width="48px" height="48px" viewBox="0 0 48 48" enable-background="new 0 0 48 48" xml:space="preserve">
<circle data-color="color-2" fill="#444444" cx="40" cy="30" r="6"/>
<path fill="#444444" d="M32,30c0-4.4111328,3.5888672-8,8-8c1.1732178,0,2.284729,0.2601929,3.2896118,0.7158813
	c2.4228516-5.5424194,1.3345337-11.3344116-2.6682739-15.3372192C35.1540527,1.911377,26.3613892,1.8395996,19.4081421,8.7928467
	c-5.6873169,5.6873779-6.6699829,12.4091797-3.9951782,17.6680908L4.1480103,35.6776123
	c-0.9158325,0.7493896-0.984436,2.1255493-0.1477661,2.9622192l5.3599243,5.3599243
	c0.8366699,0.8366699,2.2128296,0.7680664,2.9622192-0.1477661l9.2166138-11.2649536
	c3.3135986,1.6853027,7.2064819,1.9108887,11.0564575,0.430481C32.2141724,32.0853882,32,31.067688,32,30z"/>
</svg>
