<?xml version="1.0" encoding="utf-8"?>
<!-- Generator: Adobe Illustrator 19.1.0, SVG Export Plug-In . SVG Version: 6.00 Build 0)  -->
<!DOCTYPE svg PUBLIC "-//W3C//DTD SVG 1.1//EN" "http://www.w3.org/Graphics/SVG/1.1/DTD/svg11.dtd">
<svg version="1.1" id="Layer_1" xmlns="http://www.w3.org/2000/svg" xmlns:xlink="http://www.w3.org/1999/xlink" x="0px" y="0px"
	 width="48px" height="48px" viewBox="0 0 48 48" enable-background="new 0 0 48 48" xml:space="preserve">
<path fill="#444444" d="M26,16c2.7568359,0,5-2.2431641,5-5s-2.2431641-5-5-5s-5,2.2431641-5,5S23.2431641,16,26,16z"/>
<path fill="#444444" d="M35,18H15v-6c0-1.1044922-0.8955078-2-2-2s-2,0.8955078-2,2v8c0,1.1044922,0.8955078,2,2,2h11v9.1455078
	c0,0.5029297-0.3320312,0.7626953-0.4746094,0.8505859c-0.1416016,0.0878906-0.5214844,0.2714844-0.9726562,0.0439453
	l-7.6582031-3.8291016c-0.8623047-0.4296875-1.9140625-0.1835938-2.4941406,0.5888672l-6,8
	c-0.6630859,0.8837891-0.484375,2.1376953,0.3994141,2.7998047C7.1601562,39.8701172,7.5810547,40,7.9980469,40
	c0.6083984,0,1.2089844-0.2763672,1.6015625-0.7998047l4.9990234-6.6650391l6.1650391,3.0830078
	c1.5625,0.7802734,3.3818359,0.6992188,4.8652344-0.2197266C27.1132812,34.4814453,28,32.890625,28,31.1455078V22h5v6
	c0,1.1044922,0.8955078,2,2,2s2-0.8955078,2-2v-8C37,18.8955078,36.1044922,18,35,18z"/>
<path data-color="color-2" fill="#444444" d="M18,39c-0.5527344,0-1,0.4472656-1,1v6c0,0.5527344,0.4472656,1,1,1s1-0.4472656,1-1v-6
	C19,39.4472656,18.5527344,39,18,39z"/>
<path data-color="color-2" fill="#444444" d="M18,11c0.5527344,0,1-0.4472656,1-1V2c0-0.5527344-0.4472656-1-1-1s-1,0.4472656-1,1v8
	C17,10.5527344,17.4472656,11,18,11z"/>
</svg>
