<?xml version="1.0" encoding="utf-8"?>
<!-- Generator: Adobe Illustrator 19.1.0, SVG Export Plug-In . SVG Version: 6.00 Build 0)  -->
<!DOCTYPE svg PUBLIC "-//W3C//DTD SVG 1.1//EN" "http://www.w3.org/Graphics/SVG/1.1/DTD/svg11.dtd">
<svg version="1.1" id="Layer_1" xmlns="http://www.w3.org/2000/svg" xmlns:xlink="http://www.w3.org/1999/xlink" x="0px" y="0px"
	 width="48px" height="48px" viewBox="0 0 48 48" enable-background="new 0 0 48 48" xml:space="preserve">
<path fill="#444444" d="M26,37L8.711977,6.0635381C7.7609739,4.3617425,5.6232672,3.7335062,3.9027388,4.6501827
	L3.9027321,4.6501861C2.1265404,5.5965195,1.4789667,7.8204064,2.4694428,9.5723658l18.8895454,33.4119301
	C21.7138252,43.6119308,22.379015,44,23.1000118,44H44c1.1045685,0,2-0.8954315,2-2v-5.6238785
	c0-2.6794472-2.582943-4.6012383-5.1493912-3.8313026L26,37z"/>
<path data-color="color-2" fill="#444444" d="M28,17c0-1.6568546,3.1340065-3,7-3s7,1.3431454,7,3v3.625c0,1.6568604-3.1340332,3-7,3
	s-7-1.3431396-7-3V17z"/>
</svg>
