<?xml version="1.0" encoding="utf-8"?>
<!-- Generator: Adobe Illustrator 19.1.0, SVG Export Plug-In . SVG Version: 6.00 Build 0)  -->
<!DOCTYPE svg PUBLIC "-//W3C//DTD SVG 1.1//EN" "http://www.w3.org/Graphics/SVG/1.1/DTD/svg11.dtd">
<svg version="1.1" id="Layer_1" xmlns="http://www.w3.org/2000/svg" xmlns:xlink="http://www.w3.org/1999/xlink" x="0px" y="0px"
	 width="48px" height="48px" viewBox="0 0 48 48" enable-background="new 0 0 48 48" xml:space="preserve">
<path fill="#444444" d="M46,4H2C1.4477539,4,1,4.4477539,1,5v4c0,0.5522461,0.4477539,1,1,1h3.0894165l2.914978,31.0932617
	c0.0356445,0.3833008,0.2885742,0.7114258,0.6494141,0.8447266C8.7666016,41.9799805,8.8837891,42,9,42
	c0.2553711,0,0.5063477-0.0981445,0.6962891-0.2822266l6.1333008-5.9474487l7.4418945,7.9147339
	C23.4604492,43.8862305,23.7241211,44,24,44s0.5395508-0.1137695,0.7285156-0.3149414l7.4418945-7.9147339l6.1333008,5.9474487
	C38.4936523,41.9018555,38.7446289,42,39,42c0.1162109,0,0.2333984-0.0200195,0.3461914-0.0620117
	c0.3608398-0.1333008,0.6137695-0.4614258,0.6494141-0.8447266L42.9105835,10H46c0.5522461,0,1-0.4477539,1-1V5
	C47,4.4477539,46.5522461,4,46,4z M21.5909424,10l-6.4510498,6.4699707L8.4677124,10H21.5909424z M39.5322876,10
	l-6.6721802,6.4699707L26.4090576,10H39.5322876z M13.7276001,17.8864136l-5.3839722,5.3998413L7.2484131,11.6035767
	L13.7276001,17.8864136z M15.1633911,19.2786865l7.4001465,7.1758423l-6.6680908,6.4660645l-6.9568481-7.3988037
	L15.1633911,19.2786865z M16.5756836,17.8622437L24,10.4161377l7.4243164,7.446106L24,25.0615845L16.5756836,17.8622437z
	 M32.8366089,19.2786865l6.2247925,6.243103l-6.9568481,7.3988037l-6.6680908-6.4660645L32.8366089,19.2786865z
	 M39.6563721,23.2862549l-5.3839722-5.3998413l6.479187-6.2828369L39.6563721,23.2862549z M9.8007812,38.8305664
	L8.8145142,28.3095093l5.6448975,6.0036011L9.8007812,38.8305664z M24,41.5400391l-6.734375-7.1622314L24,27.8475342
	l6.734375,6.5302734L24,41.5400391z M38.1992188,38.8305664l-4.6586304-4.5174561l5.6448975-6.0036011L38.1992188,38.8305664z"/>
</svg>
