<?xml version="1.0" encoding="utf-8"?>
<!-- Generator: Adobe Illustrator 19.1.0, SVG Export Plug-In . SVG Version: 6.00 Build 0)  -->
<!DOCTYPE svg PUBLIC "-//W3C//DTD SVG 1.1//EN" "http://www.w3.org/Graphics/SVG/1.1/DTD/svg11.dtd">
<svg version="1.1" id="Layer_1" xmlns="http://www.w3.org/2000/svg" xmlns:xlink="http://www.w3.org/1999/xlink" x="0px" y="0px"
	 width="48px" height="48px" viewBox="0 0 48 48" enable-background="new 0 0 48 48" xml:space="preserve">
<path fill="#444444" d="M37,10h-2c-0.5523071,0-1,0.4476929-1,1v11H14V11c0-0.5523071-0.4476929-1-1-1h-2
	c-0.5523071,0-1,0.4476929-1,1v26c0,0.5522461,0.4476929,1,1,1h2c0.5523071,0,1-0.4477539,1-1V26h20v11c0,0.5522461,0.4476929,1,1,1
	h2c0.5523071,0,1-0.4477539,1-1V11C38,10.4476929,37.5523071,10,37,10z"/>
<path data-color="color-2" fill="#444444" d="M7,14H5c-0.5523071,0-1,0.4476929-1,1v7H1c-0.5523071,0-1,0.4476929-1,1v2
	c0,0.5522461,0.4476929,1,1,1h3v7c0,0.5522461,0.4476929,1,1,1h2c0.5523071,0,1-0.4477539,1-1V15C8,14.4476929,7.5523071,14,7,14z"
	/>
<path data-color="color-2" fill="#444444" d="M47,22h-3v-7c0-0.5523071-0.4476929-1-1-1h-2c-0.5523071,0-1,0.4476929-1,1v18
	c0,0.5522461,0.4476929,1,1,1h2c0.5523071,0,1-0.4477539,1-1v-7h3c0.5523071,0,1-0.4477539,1-1v-2
	C48,22.4476929,47.5523071,22,47,22z"/>
</svg>
