<?xml version="1.0" encoding="utf-8"?>
<!-- Generator: Adobe Illustrator 19.1.0, SVG Export Plug-In . SVG Version: 6.00 Build 0)  -->
<!DOCTYPE svg PUBLIC "-//W3C//DTD SVG 1.1//EN" "http://www.w3.org/Graphics/SVG/1.1/DTD/svg11.dtd">
<svg version="1.1" id="Layer_1" xmlns="http://www.w3.org/2000/svg" xmlns:xlink="http://www.w3.org/1999/xlink" x="0px" y="0px"
	 width="48px" height="48px" viewBox="0 0 48 48" enable-background="new 0 0 48 48" xml:space="preserve">
<path data-color="color-2" fill="#444444" d="M24,9c-0.5522461,0-1-0.4477539-1-1V2c0-0.5522461,0.4477539-1,1-1s1,0.4477539,1,1v6
	C25,8.5522461,24.5522461,9,24,9z"/>
<path data-color="color-2" fill="#444444" d="M33.8994141,13.1005859c-0.2558594,0-0.5117188-0.0976562-0.7070312-0.2929688
	c-0.390625-0.390625-0.390625-1.0234375,0-1.4140625l4.2426758-4.2426758c0.390625-0.390625,1.0234375-0.390625,1.4140625,0
	s0.390625,1.0234375,0,1.4140625l-4.2426758,4.2426758C34.4111328,13.0029297,34.1552734,13.1005859,33.8994141,13.1005859z"/>
<path data-color="color-2" fill="#444444" d="M14.1005859,13.1005859c-0.2558594,0-0.5117188-0.0976562-0.7070312-0.2929688
	L9.1508789,8.5649414c-0.390625-0.390625-0.390625-1.0234375,0-1.4140625s1.0234375-0.390625,1.4140625,0l4.2426758,4.2426758
	c0.390625,0.390625,0.390625,1.0234375,0,1.4140625C14.6123047,13.0029297,14.3564453,13.1005859,14.1005859,13.1005859z"/>
<path fill="#444444" d="M44.8217773,21.4301758C44.6352539,21.1606445,44.328125,21,44,21H14C6.831543,21,1,26.8320312,1,34
	s5.831543,13,13,13s13-5.8320312,13-13c0-1.0058594-0.1201172-2.0097656-0.3588867-3H41
	c0.4169922,0,0.7900391-0.2587891,0.9365234-0.6484375l3-8.0004883
	C45.0512695,22.0439453,45.0087891,21.7001953,44.8217773,21.4301758z M14,39c-2.7614136,0-5-2.2385864-5-5s2.2385864-5,5-5
	s5,2.2385864,5,5S16.7614136,39,14,39z"/>
</svg>
