<?xml version="1.0" encoding="utf-8"?>
<!-- Generator: Adobe Illustrator 19.1.0, SVG Export Plug-In . SVG Version: 6.00 Build 0)  -->
<!DOCTYPE svg PUBLIC "-//W3C//DTD SVG 1.1//EN" "http://www.w3.org/Graphics/SVG/1.1/DTD/svg11.dtd">
<svg version="1.1" id="Layer_1" xmlns="http://www.w3.org/2000/svg" xmlns:xlink="http://www.w3.org/1999/xlink" x="0px" y="0px"
	 width="48px" height="48px" viewBox="0 0 48 48" enable-background="new 0 0 48 48" xml:space="preserve">
<path fill="#444444" d="M24,14c2.7568359,0,5-2.2431641,5-5s-2.2431641-5-5-5s-5,2.2431641-5,5S21.2431641,14,24,14z"/>
<path fill="#444444" d="M10.5859375,25.4140625c0.6074219,0.6074219,1.5371094,0.7597656,2.3085938,0.375L22,21.2363281V34H10
	c-1.1044922,0-2,0.8955078-2,2s0.8955078,2,2,2h28c1.1044922,0,2-0.8955078,2-2s-0.8955078-2-2-2H26V21.2363281l9.1054688,4.5527344
	c0.7744598,0.3858986,1.7017365,0.2318573,2.3085938-0.375l6-6c0.78125-0.78125,0.78125-2.046875,0-2.828125
	s-2.046875-0.78125-2.828125,0l-4.9804688,4.9804688l-9.8173828-4.9082031c-0.9383411-0.4684258-2.4203758-0.5763035-3.5771484,0
	l-9.8164062,4.9082031l-4.9804688-4.9804688c-0.78125-0.78125-2.046875-0.78125-2.828125,0s-0.78125,2.046875,0,2.828125
	L10.5859375,25.4140625z"/>
<path data-color="color-2" fill="#444444" d="M46,42H2c-0.5527344,0-1,0.4472656-1,1s0.4472656,1,1,1h44c0.5527344,0,1-0.4472656,1-1
	S46.5527344,42,46,42z"/>
</svg>
