<?xml version="1.0" encoding="utf-8"?>
<!-- Generator: Adobe Illustrator 19.1.0, SVG Export Plug-In . SVG Version: 6.00 Build 0)  -->
<!DOCTYPE svg PUBLIC "-//W3C//DTD SVG 1.1//EN" "http://www.w3.org/Graphics/SVG/1.1/DTD/svg11.dtd">
<svg version="1.1" id="Layer_1" xmlns="http://www.w3.org/2000/svg" xmlns:xlink="http://www.w3.org/1999/xlink" x="0px" y="0px"
	 width="48px" height="48px" viewBox="0 0 48 48" enable-background="new 0 0 48 48" xml:space="preserve">
<path data-color="color-2" fill="#444444" d="M16,15H6c-0.5522461,0-1-0.4477539-1-1s0.4477539-1,1-1h10c0.5522461,0,1,0.4477539,1,1
	S16.5522461,15,16,15z"/>
<path data-color="color-2" fill="#444444" d="M16,35H6c-0.5522461,0-1-0.4477539-1-1s0.4477539-1,1-1h10c0.5522461,0,1,0.4477539,1,1
	S16.5522461,35,16,35z"/>
<path data-color="color-2" fill="#444444" d="M12,25H2c-0.5522461,0-1-0.4477539-1-1s0.4477539-1,1-1h10c0.5522461,0,1,0.4477539,1,1
	S12.5522461,25,12,25z"/>
<path fill="#444444" d="M21.0854492,22.6567383c3.1225586,0.1660156,6.1801758-0.9941406,8.3789062-3.1923828
	c2.1982422-2.1982422,3.3618164-5.2519531,3.1923828-8.3789062c-0.0001221-0.0020752,0.0009766-0.0039062,0.0008545-0.0059814
	c-2.8684082,0.2952881-5.6570435,1.5352173-7.8499756,3.7281494c-2.1929321,2.1931763-3.4328613,4.9817505-3.7281494,7.8500366
	C21.081543,22.6577148,21.083374,22.6566772,21.0854492,22.6567383z"/>
<path fill="#444444" d="M46.9145508,25.3432617c-3.1225586-0.1674805-6.1806641,0.9936523-8.3789062,3.1923828
	c-2.1982422,2.1982422-3.3618164,5.2519531-3.1923828,8.3789062c0.0001221,0.0020752-0.0009766,0.0039062-0.0008545,0.0059814
	c2.8684082-0.2952881,5.6570435-1.5352173,7.8499756-3.7281494c2.1929321-2.1931763,3.4328613-4.9817505,3.7281494-7.8499756
	C46.918457,25.3422852,46.916626,25.3433838,46.9145508,25.3432617z"/>
<path fill="#444444" d="M37.121582,27.121582c2.5848389-2.5858154,6.175415-3.9550171,9.8409424-3.7754517
	c-0.1552734-3.1075439-1.4020996-6.1702271-3.7701416-8.5385132c-2.368042-2.368042-5.4308472-3.6148682-8.5385132-3.7701416
	c0.1820068,3.6722412-1.1900635,7.2560425-3.7754517,9.8409424c-2.4326172,2.4331055-5.75,3.7944336-9.1933594,3.7944336
	c-0.2156982,0-0.4315186-0.0067749-0.647522-0.017395c0.1555786,3.1070557,1.4024048,6.1690674,3.7700806,8.5369263
	c2.368042,2.368042,5.4307861,3.6148682,8.5385132,3.7701416C33.1641235,33.2902832,34.5361938,29.7064819,37.121582,27.121582z"/>
</svg>
