<?xml version="1.0" encoding="utf-8"?>
<!-- Generator: Adobe Illustrator 19.1.0, SVG Export Plug-In . SVG Version: 6.00 Build 0)  -->
<!DOCTYPE svg PUBLIC "-//W3C//DTD SVG 1.1//EN" "http://www.w3.org/Graphics/SVG/1.1/DTD/svg11.dtd">
<svg version="1.1" id="Layer_1" xmlns="http://www.w3.org/2000/svg" xmlns:xlink="http://www.w3.org/1999/xlink" x="0px" y="0px"
	 width="48px" height="48px" viewBox="0 0 48 48" enable-background="new 0 0 48 48" xml:space="preserve">
<path data-color="color-2" fill="#444444" d="M31,7H17c-0.5527344,0-1,0.4477539-1,1v32c0,0.5522461,0.4472656,1,1,1h14
	c0.5527344,0,1-0.4477539,1-1V8C32,7.4477539,31.5527344,7,31,7z"/>
<path fill="#444444" d="M13,21H1c-0.5527344,0-1,0.4477539-1,1v18c0,0.5522461,0.4472656,1,1,1h12c0.5527344,0,1-0.4477539,1-1V22
	C14,21.4477539,13.5527344,21,13,21z"/>
<path fill="#444444" d="M47,27H35c-0.5527344,0-1,0.4477539-1,1v12c0,0.5522461,0.4472656,1,1,1h12c0.5527344,0,1-0.4477539,1-1V28
	C48,27.4477539,47.5527344,27,47,27z"/>
</svg>
