<?xml version="1.0" encoding="utf-8"?>
<!-- Generator: Adobe Illustrator 19.1.0, SVG Export Plug-In . SVG Version: 6.00 Build 0)  -->
<!DOCTYPE svg PUBLIC "-//W3C//DTD SVG 1.1//EN" "http://www.w3.org/Graphics/SVG/1.1/DTD/svg11.dtd">
<svg version="1.1" id="Layer_1" xmlns="http://www.w3.org/2000/svg" xmlns:xlink="http://www.w3.org/1999/xlink" x="0px" y="0px"
	 width="48px" height="48px" viewBox="0 0 48 48" enable-background="new 0 0 48 48" xml:space="preserve">
<path data-color="color-2" fill="#444444" d="M23.1171875,35c1.2929688,0,2.4365234-0.8242188,2.8466797-2.0517578l3.3330078-9.9995117
	c0.3085938-0.9257812,0.1582031-1.9111328-0.4130859-2.703125C28.3134766,19.4541016,27.4257812,19,26.4501953,19H1.5372314
	C1.1890259,20.6079102,1,22.2791138,1,24v11H23.1171875z"/>
<path fill="#444444" d="M40.1132812,7.5874023C35.671875,3.2275391,29.7685547,0.8955078,23.5693359,1.0039062
	C13.3597412,1.19104,4.9379883,7.8031006,2.0627441,17h24.3874512c1.6269531,0,3.1054688,0.7568359,4.0566406,2.0761719
	c0.9511719,1.3198242,1.2011719,2.9619141,0.6865234,4.5053711l-3.3330078,9.9995117
	C27.1787109,35.6259766,25.2724609,37,23.1171875,37H1.0506592C1.5581665,42.5979004,6.2720947,47,12,47h18
	c9.3740234,0,17-7.6259766,17-17v-6C47,17.7768555,44.5537109,11.9477539,40.1132812,7.5874023z"/>
</svg>
