<?xml version="1.0" encoding="utf-8"?>
<!-- Generator: Adobe Illustrator 19.1.0, SVG Export Plug-In . SVG Version: 6.00 Build 0)  -->
<!DOCTYPE svg PUBLIC "-//W3C//DTD SVG 1.1//EN" "http://www.w3.org/Graphics/SVG/1.1/DTD/svg11.dtd">
<svg version="1.1" id="Layer_1" xmlns="http://www.w3.org/2000/svg" xmlns:xlink="http://www.w3.org/1999/xlink" x="0px" y="0px"
	 width="48px" height="48px" viewBox="0 0 48 48" enable-background="new 0 0 48 48" xml:space="preserve">
<path data-color="color-2" fill="#444444" d="M44,7H27V3h2c0.5527344,0,1-0.4477539,1-1s-0.4472656-1-1-1H19c-0.5527344,0-1,0.4477539-1,1
	s0.4472656,1,1,1h2v4H4C3.4472656,7,3,7.4477539,3,8v3c0,0.5522461,0.4472656,1,1,1h40c0.5527344,0,1-0.4477539,1-1V8
	C45,7.4477539,44.5527344,7,44,7z"/>
<path fill="#444444" d="M7.4380493,14l3.5678101,32.1103516C11.0624857,46.6166992,11.4902344,47,12,47h24
	c0.5097656,0,0.9374847-0.3833008,0.9941406-0.8896484L40.5619507,14H7.4380493z M33,39h-8v-2h8V39z M33,31h-8v-2h8V31z M33,23h-8
	v-2h8V23z"/>
</svg>
