<?xml version="1.0" encoding="utf-8"?>
<!-- Generator: Adobe Illustrator 19.1.0, SVG Export Plug-In . SVG Version: 6.00 Build 0)  -->
<!DOCTYPE svg PUBLIC "-//W3C//DTD SVG 1.1//EN" "http://www.w3.org/Graphics/SVG/1.1/DTD/svg11.dtd">
<svg version="1.1" id="Layer_1" xmlns="http://www.w3.org/2000/svg" xmlns:xlink="http://www.w3.org/1999/xlink" x="0px" y="0px"
	 width="48px" height="48px" viewBox="0 0 48 48" enable-background="new 0 0 48 48" xml:space="preserve">
<path fill="#444444" d="M46.7070312,1.2929688c-0.390625-0.390625-1.0234375-0.390625-1.4140625,0L34.2363281,12.3496094
	c-0.8105469-0.5383301-1.7610474-0.8291016-2.7568359-0.8291016c-1.3359375,0-2.5917969,0.5205078-3.5351562,1.4648438
	c-1.5028076,1.5018921-7.0718384,11.5031738-8.4217529,13.9448853L5.4414062,29.3574219
	c-2.0810547,0.359375-3.6796875,1.8574219-4.1728516,3.9091797c-0.4931641,2.0527344,0.25,4.1132812,1.9394531,5.3789062
	l3.5146484,2.6318359l2.6318359,3.5146484c1.0068359,1.3447266,2.5175781,2.0898438,4.1259766,2.0898438
	c0.4130859,0,0.8330078-0.0498047,1.2529297-0.1503906c2.0517578-0.4931641,3.5498047-2.0917969,3.9091797-4.1728516
	l2.4271851-14.0811768c2.4417114-1.3499146,12.4429932-6.9189453,13.9448853-8.4217529
	c0.9443359-0.9433594,1.4648438-2.1992188,1.4648438-3.5351562c0-0.9957886-0.2907715-1.9462891-0.8291016-2.7568359
	L46.7070312,2.7070312C47.0976562,2.3164062,47.0976562,1.6835938,46.7070312,1.2929688z"/>
</svg>
