<?xml version="1.0" encoding="utf-8"?>
<!-- Generator: Adobe Illustrator 19.1.0, SVG Export Plug-In . SVG Version: 6.00 Build 0)  -->
<!DOCTYPE svg PUBLIC "-//W3C//DTD SVG 1.1//EN" "http://www.w3.org/Graphics/SVG/1.1/DTD/svg11.dtd">
<svg version="1.1" id="Layer_1" xmlns="http://www.w3.org/2000/svg" xmlns:xlink="http://www.w3.org/1999/xlink" x="0px" y="0px"
	 width="48px" height="48px" viewBox="0 0 48 48" enable-background="new 0 0 48 48" xml:space="preserve">
<circle data-color="color-2" fill="#444444" cx="36" cy="26" r="6"/>
<path data-color="color-2" fill="#444444" d="M9.6386108,27.1947021C7.6138306,30.2097168,10.520874,33.479126,8,36l-4.5858154,4.5857544
	c-0.7810059,0.7810669-0.7810059,2.0474243,0,2.8284302l1.1716309,1.1715698c0.7810059,0.7810669,2.0473633,0.7810669,2.8283691,0
	L12,40c2.5238037-2.5238037,5.7626343,0.4284058,8.8074341-1.6369019L9.6386108,27.1947021z"/>
<path fill="#444444" d="M44.2131958,9.4436646l-5.6568604-5.6568604c-1.5620728-1.5621338-4.0947266-1.5621338-5.6568604,0
	L10.979126,25.7071533l11.3136597,11.3132324c1.3555908-1.3569336,3.9282227-3.9334106,6.8745728-6.8807983
	C28.4317017,28.9299927,28,27.5161743,28,26c0-4.4111328,3.5888672-8,8-8c1.5177002,0,2.9328003,0.4325562,4.1431274,1.1695557
	c2.4100342-2.409729,4.0700684-4.0690918,4.0700684-4.0690918C45.7753296,13.5383911,45.7753296,11.0057373,44.2131958,9.4436646z"
	/>
</svg>
