<?xml version="1.0" encoding="utf-8"?>
<!-- Generator: Adobe Illustrator 19.1.0, SVG Export Plug-In . SVG Version: 6.00 Build 0)  -->
<!DOCTYPE svg PUBLIC "-//W3C//DTD SVG 1.1//EN" "http://www.w3.org/Graphics/SVG/1.1/DTD/svg11.dtd">
<svg version="1.1" id="Layer_1" xmlns="http://www.w3.org/2000/svg" xmlns:xlink="http://www.w3.org/1999/xlink" x="0px" y="0px"
	 width="48px" height="48px" viewBox="0 0 48 48" enable-background="new 0 0 48 48" xml:space="preserve">
<path data-color="color-2" fill="#444444" d="M8,29H2c-0.5527344,0-1-0.4472656-1-1s0.4472656-1,1-1h6c0.5527344,0,1,0.4472656,1,1
	S8.5527344,29,8,29z"/>
<path data-color="color-2" fill="#444444" d="M13,36H7c-0.5527344,0-1-0.4472656-1-1s0.4472656-1,1-1h6c0.5527344,0,1,0.4472656,1,1
	S13.5527344,36,13,36z"/>
<path data-color="color-2" fill="#444444" d="M18,43h-6c-0.5527344,0-1-0.4472656-1-1s0.4472656-1,1-1h6c0.5527344,0,1,0.4472656,1,1
	S18.5527344,43,18,43z"/>
<path fill="#444444" d="M42,33h-7.2158203l-0.8961182-3.6411133l-3.8187256,1.565918
	C29.9443359,30.9765625,29.8164062,31,29.6894531,31c-0.3935547,0-0.7666016-0.2333984-0.9248047-0.6201172
	c-0.2099609-0.5117188,0.0341797-1.0957031,0.5449219-1.3046875l4.0953369-1.6793213l-0.7386475-3.0014648l-3.9963379,1.5391846
	C28.5517578,25.9785156,28.4306641,26,28.3105469,26c-0.4013672,0-0.7802734-0.2431641-0.9335938-0.640625
	c-0.1982422-0.515625,0.0585938-1.0942383,0.5742188-1.2924805l4.2332764-1.6300049l-0.7625732-3.0985107
	c-0.0664062-0.2700195-0.2412109-0.4995117-0.4843826-0.6347656c-0.2431564-0.1362305-0.5302658-0.1650391-0.7939377-0.0776367
	c-1.6484375,0.5332031-3.6904297,0.7958984-6.3339844-1.3085938c-1.8457031-1.46875-2.8925781-3.5688477-2.8027344-5.6176758
	c0.0683594-1.5649414,0.6679688-3.0400391,1.7324219-4.265625c0.3037109-0.3491211,0.328125-0.8608398,0.0585938-1.2368164
	l-1.984375-2.7783203c-0.1552734-0.2177734-0.3916016-0.3642578-0.6552734-0.40625
	c-0.2646484-0.0419922-0.5341797,0.0224609-0.75,0.1806641L6.7587891,12.4702148
	c-1.7568359,1.2880859-2.1640625,3.7021484-0.8984375,5.5361328l20.3457031,26.6010742C26.3945312,44.8544922,26.6884766,45,27,45
	h19c0.5527344,0,1-0.4472656,1-1v-6C47,35.2431641,44.7568359,33,42,33z"/>
</svg>
