<?xml version="1.0" encoding="utf-8"?>
<!-- Generator: Adobe Illustrator 19.1.0, SVG Export Plug-In . SVG Version: 6.00 Build 0)  -->
<!DOCTYPE svg PUBLIC "-//W3C//DTD SVG 1.1//EN" "http://www.w3.org/Graphics/SVG/1.1/DTD/svg11.dtd">
<svg version="1.1" id="Layer_1" xmlns="http://www.w3.org/2000/svg" xmlns:xlink="http://www.w3.org/1999/xlink" x="0px" y="0px"
	 width="48px" height="48px" viewBox="0 0 48 48" enable-background="new 0 0 48 48" xml:space="preserve">
<path fill="#444444" d="M35.2558594,30.3144531L41,31.5322266V36.5c0,4.1357422-3.3642578,7.5-7.5,7.5S26,40.6357422,26,36.5v-2
	V13.7051392C28.8875122,12.842041,31,10.1646118,31,7c0-3.8598633-3.140625-7-7-7s-7,3.1401367-7,7
	c0,3.1646118,2.1125488,5.842041,5,6.7051392V34.5v2c0,4.1357422-3.3642578,7.5-7.5,7.5S7,40.6357422,7,36.5v-4.9677734
	l5.7441406-1.2177734L3,24.4677734V36.5C3,42.8408203,8.1591797,48,14.5,48c3.9431763,0,7.4273071-1.9966431,9.5-5.0304565
	C26.0726929,46.0033569,29.5568237,48,33.5,48C39.8408203,48,45,42.8408203,45,36.5V24.4677734L35.2558594,30.3144531z M21,7
	c0-1.6542969,1.3457031-3,3-3s3,1.3457031,3,3s-1.3457031,3-3,3S21,8.6542969,21,7z"/>
</svg>
