<?xml version="1.0" encoding="utf-8"?>
<!-- Generator: Adobe Illustrator 19.1.0, SVG Export Plug-In . SVG Version: 6.00 Build 0)  -->
<!DOCTYPE svg PUBLIC "-//W3C//DTD SVG 1.1//EN" "http://www.w3.org/Graphics/SVG/1.1/DTD/svg11.dtd">
<svg version="1.1" id="Layer_1" xmlns="http://www.w3.org/2000/svg" xmlns:xlink="http://www.w3.org/1999/xlink" x="0px" y="0px"
	 width="48px" height="48px" viewBox="0 0 48 48" enable-background="new 0 0 48 48" xml:space="preserve">
<path fill="#444444" d="M46,1H2C1.4477539,1,1,1.4477539,1,2v30c0,0.5522461,0.4477539,1,1,1h10.8900757l-0.9000244-9H10
	c-0.5522461,0-1-0.4477539-1-1s0.4477539-1,1-1h28c0.5522461,0,1,0.4477539,1,1s-0.4477539,1-1,1h-1.9900513l-0.9000244,9H46
	c0.5522461,0,1-0.4477539,1-1V2C47,1.4477539,46.5522461,1,46,1z"/>
<polygon data-color="color-2" fill="#444444" points="16,44 20,42 24,44 28,42 32,44 34,24 14,24 "/>
</svg>
