<?xml version="1.0" encoding="utf-8"?>
<!-- Generator: Adobe Illustrator 19.1.0, SVG Export Plug-In . SVG Version: 6.00 Build 0)  -->
<!DOCTYPE svg PUBLIC "-//W3C//DTD SVG 1.1//EN" "http://www.w3.org/Graphics/SVG/1.1/DTD/svg11.dtd">
<svg version="1.1" id="Layer_1" xmlns="http://www.w3.org/2000/svg" xmlns:xlink="http://www.w3.org/1999/xlink" x="0px" y="0px"
	 width="48px" height="48px" viewBox="0 0 48 48" enable-background="new 0 0 48 48" xml:space="preserve">
<path data-color="color-2" fill="#444444" d="M29,24c0-2.7568359-2.2431641-5-5-5s-5,2.2431641-5,5s2.2431641,5,5,5S29,26.7568359,29,24z"
	/>
<rect data-color="color-2" x="40" y="17" fill="#444444" width="7" height="14"/>
<path fill="#444444" d="M38,32V16c0-0.5522461,0.4477539-1,1-1h8V8c0-0.5522461-0.4477539-1-1-1H25v10.079834
	C28.3865967,17.567627,31,20.4805298,31,24s-2.6134033,6.432373-6,6.920166V41h21c0.5522461,0,1-0.4477539,1-1v-7h-8
	C38.4477539,33,38,32.5522461,38,32z"/>
<rect data-color="color-2" x="1" y="17" fill="#444444" width="7" height="14"/>
<path fill="#444444" d="M23,30.920166C19.6134033,30.432373,17,27.5194702,17,24s2.6134033-6.432373,6-6.920166V7H2
	C1.4477539,7,1,7.4477539,1,8v7h8c0.5522461,0,1,0.4477539,1,1v16c0,0.5522461-0.4477539,1-1,1H1v7c0,0.5522461,0.4477539,1,1,1h21
	V30.920166z"/>
</svg>
