<?xml version="1.0" encoding="utf-8"?>
<!-- Generator: Adobe Illustrator 19.1.0, SVG Export Plug-In . SVG Version: 6.00 Build 0)  -->
<!DOCTYPE svg PUBLIC "-//W3C//DTD SVG 1.1//EN" "http://www.w3.org/Graphics/SVG/1.1/DTD/svg11.dtd">
<svg version="1.1" id="Layer_1" xmlns="http://www.w3.org/2000/svg" xmlns:xlink="http://www.w3.org/1999/xlink" x="0px" y="0px"
	 width="48px" height="48px" viewBox="0 0 48 48" enable-background="new 0 0 48 48" xml:space="preserve">
<path data-color="color-2" fill="#444444" d="M39.8640747,10.2816162l-0.1638794,0.1607666C36.0244141,14.0488281,34,18.8637695,34,24
	c0,5.1357422,2.0244141,9.9501953,5.7001953,13.5576172l0.1638184,0.1606445C43.0543213,34.0341187,45,29.2444458,45,24
	C45,18.7554321,43.0543213,13.9657593,39.8640747,10.2816162z"/>
<path data-color="color-2" fill="#444444" d="M8.2998047,37.5576172C11.9755859,33.9501953,14,29.1357422,14,24
	c0-5.1362305-2.0244141-9.9511719-5.7001953-13.5576172l-0.1638794-0.1607666C4.9456787,13.9657593,3,18.7554321,3,24
	c0,5.2444458,1.9456787,10.0341187,5.1359863,13.7182617L8.2998047,37.5576172z"/>
<path fill="#444444" d="M38.2998047,38.9853516C34.2373047,34.9990234,32,29.6767578,32,24
	c0-5.6777344,2.2373047-10.9995117,6.2998047-14.9853516l0.1853027-0.1817627C34.7130737,5.2290039,29.6165161,3,24,3
	S13.2869263,5.2290039,9.5148926,8.8328857l0.1853027,0.1817627C13.7626953,13.0004883,16,18.3222656,16,24
	c0,5.6767578-2.2373047,10.9990234-6.2998047,14.9853516l-0.1851196,0.1817017C13.2870483,42.7709351,18.3835449,45,24,45
	s10.7129517-2.2290649,14.4849243-5.8329468L38.2998047,38.9853516z"/>
</svg>
