<?xml version="1.0" encoding="utf-8"?>
<!-- Generator: Adobe Illustrator 18.1.1, SVG Export Plug-In . SVG Version: 6.00 Build 0)  -->
<!DOCTYPE svg PUBLIC "-//W3C//DTD SVG 1.1//EN" "http://www.w3.org/Graphics/SVG/1.1/DTD/svg11.dtd">
<svg version="1.1" id="Layer_1" xmlns="http://www.w3.org/2000/svg" xmlns:xlink="http://www.w3.org/1999/xlink" x="0px" y="0px"
	 width="32px" height="32px" viewBox="0 0 32 32" enable-background="new 0 0 32 32" xml:space="preserve">
<path d="M24,12c-0.6,0-1,0.4-1,1v2h-6V1c0-0.6-0.4-1-1-1s-1,0.4-1,1v6H9V5c0-0.6-0.4-1-1-1S7,4.4,7,5v3c0,0.6,0.4,1,1,1h7v13H9v-2
	c0-0.6-0.4-1-1-1s-1,0.4-1,1v3c0,0.6,0.4,1,1,1h7v6h-2c-0.6,0-1,0.4-1,1s0.4,1,1,1h6c0.6,0,1-0.4,1-1s-0.4-1-1-1h-2V17h7
	c0.6,0,1-0.4,1-1v-3C25,12.4,24.6,12,24,12z"/>
</svg>
