<?xml version="1.0" encoding="utf-8"?>
<!-- Generator: Adobe Illustrator 18.1.1, SVG Export Plug-In . SVG Version: 6.00 Build 0)  -->
<!DOCTYPE svg PUBLIC "-//W3C//DTD SVG 1.1//EN" "http://www.w3.org/Graphics/SVG/1.1/DTD/svg11.dtd">
<svg version="1.1" id="Layer_1" xmlns="http://www.w3.org/2000/svg" xmlns:xlink="http://www.w3.org/1999/xlink" x="0px" y="0px"
	 width="32px" height="32px" viewBox="0 0 32 32" enable-background="new 0 0 32 32" xml:space="preserve">
<path d="M31,16H1c-0.6,0-1,0.4-1,1v11c0,0.6,0.4,1,1,1s1-0.4,1-1v-4h28v4c0,0.6,0.4,1,1,1s1-0.4,1-1V17C32,16.4,31.6,16,31,16z"/>
<path d="M4,3C3.4,3,3,3.4,3,4v3v7h12V6H5V4C5,3.4,4.6,3,4,3z"/>
<path d="M27,4v2H17v8h12V7V4c0-0.6-0.4-1-1-1S27,3.4,27,4z"/>
</svg>
