<?xml version="1.0" encoding="utf-8"?>
<!-- Generator: Adobe Illustrator 18.1.1, SVG Export Plug-In . SVG Version: 6.00 Build 0)  -->
<!DOCTYPE svg PUBLIC "-//W3C//DTD SVG 1.1//EN" "http://www.w3.org/Graphics/SVG/1.1/DTD/svg11.dtd">
<svg version="1.1" id="Layer_1" xmlns="http://www.w3.org/2000/svg" xmlns:xlink="http://www.w3.org/1999/xlink" x="0px" y="0px"
	 width="32px" height="32px" viewBox="0 0 32 32" enable-background="new 0 0 32 32" xml:space="preserve">
<path d="M29,0c-0.6,0-1,0.4-1,1v2H4V1c0-0.6-0.4-1-1-1C2.4,0,2,0.4,2,1v30c0,0.6,0.4,1,1,1c0.6,0,1-0.4,1-1v-2h24v2c0,0.6,0.4,1,1,1
	c0.6,0,1-0.4,1-1V1C30,0.4,29.6,0,29,0z M28,27H4v-6h24V27z M28,19H4v-6h24V19z M28,11H4V5h24V11z"/>
</svg>
