<?xml version="1.0" encoding="utf-8"?>
<!-- Generator: Adobe Illustrator 18.1.1, SVG Export Plug-In . SVG Version: 6.00 Build 0)  -->
<!DOCTYPE svg PUBLIC "-//W3C//DTD SVG 1.1//EN" "http://www.w3.org/Graphics/SVG/1.1/DTD/svg11.dtd">
<svg version="1.1" id="Layer_1" xmlns="http://www.w3.org/2000/svg" xmlns:xlink="http://www.w3.org/1999/xlink" x="0px" y="0px"
	 width="32px" height="32px" viewBox="0 0 32 32" enable-background="new 0 0 32 32" xml:space="preserve">
<path d="M7,10H4v6h7v-2C11,11.8,9.2,10,7,10z"/>
<path d="M31,9c-0.6,0-1,0.4-1,1v6v2H2v-2v-6V6V4c0-0.6-0.4-1-1-1C0.4,3,0,3.4,0,4v24c0,0.6,0.4,1,1,1c0.6,0,1-0.4,1-1v-5h28v5
	c0,0.6,0.4,1,1,1c0.6,0,1-0.4,1-1V10C32,9.4,31.6,9,31,9z"/>
</svg>
