<?xml version="1.0" encoding="utf-8"?>
<!-- Generator: Adobe Illustrator 18.1.1, SVG Export Plug-In . SVG Version: 6.00 Build 0)  -->
<!DOCTYPE svg PUBLIC "-//W3C//DTD SVG 1.1//EN" "http://www.w3.org/Graphics/SVG/1.1/DTD/svg11.dtd">
<svg version="1.1" id="Layer_1" xmlns="http://www.w3.org/2000/svg" xmlns:xlink="http://www.w3.org/1999/xlink" x="0px" y="0px"
	 width="32px" height="32px" viewBox="0 0 32 32" enable-background="new 0 0 32 32" xml:space="preserve">
<path d="M31,0H13C5.8,0,0,5.8,0,13c0,0.6,0.4,1,1,1h24v5.2c-2.5,1-5,5.1-5,7.8c0,3.1,2.3,5,5.9,5c0,0,0,0,0.1,0c0,0,0,0,0,0
	c0,0,0,0,0,0c3.6,0,6-2,6-5c0-2.7-2.5-6.8-5-7.8V14h4c0.6,0,1-0.4,1-1V1C32,0.4,31.6,0,31,0z M25,29.9c-1.4-0.2-3-0.8-3-2.9
	c0-1.9,1.7-4.5,3-5.5V29.9z M30,27c0,2.1-1.7,2.7-3,2.9v-8.4C28.3,22.5,30,25.1,30,27z M25.5,8h-9C15.7,8,15,7.3,15,6.5
	C15,5.7,15.7,5,16.5,5h9C26.3,5,27,5.7,27,6.5C27,7.3,26.3,8,25.5,8z"/>
</svg>
