<?xml version="1.0" encoding="utf-8"?>
<!-- Generator: Adobe Illustrator 18.1.1, SVG Export Plug-In . SVG Version: 6.00 Build 0)  -->
<!DOCTYPE svg PUBLIC "-//W3C//DTD SVG 1.1//EN" "http://www.w3.org/Graphics/SVG/1.1/DTD/svg11.dtd">
<svg version="1.1" id="Layer_1" xmlns="http://www.w3.org/2000/svg" xmlns:xlink="http://www.w3.org/1999/xlink" x="0px" y="0px"
	 width="32px" height="32px" viewBox="0 0 32 32" enable-background="new 0 0 32 32" xml:space="preserve">
<path d="M27,5H2c0-1.7,1.3-3,3-3h11c0.6,0,1-0.4,1-1s-0.4-1-1-1H5C2.2,0,0,2.2,0,5v26c0,0.6,0.4,1,1,1h9c0.6,0,1-0.4,1-1V15h16
	c2.8,0,5-2.2,5-5C32,7.2,29.8,5,27,5z"/>
<path d="M26.9,21c0,0-3.9,3.8-3.9,6s1.8,3.9,3.9,3.9s3.9-1.8,3.9-3.9S26.9,21,26.9,21z"/>
</svg>
