<?xml version="1.0" encoding="utf-8"?>
<!-- Generator: Adobe Illustrator 18.1.1, SVG Export Plug-In . SVG Version: 6.00 Build 0)  -->
<!DOCTYPE svg PUBLIC "-//W3C//DTD SVG 1.1//EN" "http://www.w3.org/Graphics/SVG/1.1/DTD/svg11.dtd">
<svg version="1.1" id="Layer_1" xmlns="http://www.w3.org/2000/svg" xmlns:xlink="http://www.w3.org/1999/xlink" x="0px" y="0px"
	 width="32px" height="32px" viewBox="0 0 32 32" enable-background="new 0 0 32 32" xml:space="preserve">
<path d="M16,26c-0.6,0-1,0.4-1,1v3c0,0.6,0.4,1,1,1c0.6,0,1-0.4,1-1v-3C17,26.4,16.6,26,16,26z"/>
<path d="M11,24c-0.6,0-1,0.4-1,1v2c0,0.6,0.4,1,1,1c0.6,0,1-0.4,1-1v-2C12,24.4,11.6,24,11,24z"/>
<path d="M21,24c-0.6,0-1,0.4-1,1v2c0,0.6,0.4,1,1,1c0.6,0,1-0.4,1-1v-2C22,24.4,21.6,24,21,24z"/>
<path d="M28.5,17h-25C2.1,17,1,18.1,1,19.5C1,20.9,2.1,22,3.5,22h25c1.4,0,2.5-1.1,2.5-2.5C31,18.1,29.9,17,28.5,17z"/>
<path d="M16,1c-0.6,0-1,0.4-1,1v2.1C9.2,4.5,4.5,9.2,4,15H28C27.5,9.2,22.8,4.5,17,4.1V2C17,1.4,16.6,1,16,1z"/>
</svg>
