<?xml version="1.0" encoding="utf-8"?>
<!-- Generator: Adobe Illustrator 18.1.1, SVG Export Plug-In . SVG Version: 6.00 Build 0)  -->
<!DOCTYPE svg PUBLIC "-//W3C//DTD SVG 1.1//EN" "http://www.w3.org/Graphics/SVG/1.1/DTD/svg11.dtd">
<svg version="1.1" id="Layer_1" xmlns="http://www.w3.org/2000/svg" xmlns:xlink="http://www.w3.org/1999/xlink" x="0px" y="0px"
	 width="32px" height="32px" viewBox="0 0 32 32" enable-background="new 0 0 32 32" xml:space="preserve">
<path d="M23,9v4c0,0.6,0.4,1,1,1s1-0.4,1-1V9h2c2.2,0,4-1.8,4-4c0-2.2-1.8-4-4-4H1v10v3v17h8V14l0-5H23z"/>
<path d="M31,16H17h-4c-0.6,0-1,0.4-1,1v2c0,1.7,1.3,3,3,3h1.1c0.5,3.9,3.9,7,7.9,7c4.4,0,8-3.6,8-8v-4C32,16.4,31.6,16,31,16z
	 M16,20h-1c-0.6,0-1-0.4-1-1v-1h2V20z"/>
<path d="M31,30H17c-0.6,0-1,0.4-1,1s0.4,1,1,1h14c0.6,0,1-0.4,1-1S31.6,30,31,30z"/>
</svg>
