<?xml version="1.0" encoding="utf-8"?>
<!-- Generator: Adobe Illustrator 19.1.0, SVG Export Plug-In . SVG Version: 6.00 Build 0)  -->
<!DOCTYPE svg PUBLIC "-//W3C//DTD SVG 1.1//EN" "http://www.w3.org/Graphics/SVG/1.1/DTD/svg11.dtd">
<svg version="1.1" id="Layer_1" xmlns="http://www.w3.org/2000/svg" xmlns:xlink="http://www.w3.org/1999/xlink" x="0px" y="0px"
	 width="16px" height="16px" viewBox="0 0 16 16" enable-background="new 0 0 16 16" xml:space="preserve">
<path fill="#444444" d="M14.9951172,0.9003906c-0.0380859-0.3842773-0.2949219-0.7124023-0.6591797-0.8422852
	c-0.3603516-0.128418-0.7705078-0.0395508-1.0429688,0.2348633L10.5859375,3h-5.171875L2.7070312,0.2929688
	C2.4335938,0.0185547,2.0244141-0.0703125,1.6640625,0.0581055C1.2998047,0.1879883,1.0429688,0.5161133,1.0048828,0.9003906l-1,10
	c-0.0263672,0.2626953,0.0527344,0.5253906,0.21875,0.7299805C0.3572998,11.7945557,3.2854614,15.3371582,7,15.9129639v-2.4989014
	L4.5859375,11h6.828125L9,13.4140625v2.4989014c3.7145386-0.5758057,6.6427002-4.1184082,6.7763672-4.2825928
	c0.1660156-0.2045898,0.2451172-0.4672852,0.21875-0.7299805L14.9951172,0.9003906z M5,9C4.4476929,9,4,8.5522461,4,8
	c0-0.5523071,0.4476929-1,1-1s1,0.4476929,1,1C6,8.5522461,5.5523071,9,5,9z M11,9c-0.5523071,0-1-0.4477539-1-1
	c0-0.5523071,0.4476929-1,1-1s1,0.4476929,1,1C12,8.5522461,11.5523071,9,11,9z"/>
</svg>
