<?xml version="1.0" encoding="utf-8"?>
<!-- Generator: Adobe Illustrator 19.1.0, SVG Export Plug-In . SVG Version: 6.00 Build 0)  -->
<!DOCTYPE svg PUBLIC "-//W3C//DTD SVG 1.1//EN" "http://www.w3.org/Graphics/SVG/1.1/DTD/svg11.dtd">
<svg version="1.1" id="Layer_1" xmlns="http://www.w3.org/2000/svg" xmlns:xlink="http://www.w3.org/1999/xlink" x="0px" y="0px"
	 width="16px" height="16px" viewBox="0 0 16 16" enable-background="new 0 0 16 16" xml:space="preserve">
<path fill="#444444" d="M13.818182,2.1818182C13.818182,0.9768288,12.8413534,0,11.636364,0S9.454545,0.9768288,9.454545,2.1818182
	c0,0.6024947,0.2441854,1.1479936,0.6390276,1.5427911l-6.3689632,6.3689632
	C3.3297675,9.6987305,2.784313,9.454545,2.1818182,9.454545C0.9768288,9.454545,0,10.4313745,0,11.636364
	s0.9768288,2.181818,2.1818182,2.181818C2.1818182,15.0231714,3.1586471,16,4.3636365,16s2.181818-0.9768286,2.181818-2.181818
	c0-0.6024952-0.244185-1.1479492-0.6390271-1.5427914l6.3689632-6.3689632
	c0.3947973,0.3948421,0.9402962,0.6390271,1.5427914,0.6390271C15.0231714,6.5454545,16,5.5686259,16,4.3636365
	S15.0231714,2.1818182,13.818182,2.1818182z"/>
<path data-color="color-2" fill="#444444" d="M2.1818237,6.5454102c0.602478,0,1.1480103-0.2441406,1.5427856-0.6389771
	l1.0935974,1.0935364l2.1818237-2.1818237L5.9064331,3.7246094c0.3948364-0.3948364,0.6390381-0.9403076,0.6390381-1.5427856
	C6.5454712,0.9768066,5.5686035,0,4.3636475,0C3.1586304,0,2.1818237,0.9768066,2.1818237,2.1818237
	C0.9768066,2.1818237,0,3.1586304,0,4.3636475C0,5.5686035,0.9768066,6.5454102,2.1818237,6.5454102z"/>
<path data-color="color-2" fill="#444444" d="M13.8181763,9.4545288c-0.602478,0-1.1479492,0.2442017-1.5427856,0.6390381
	l-1.0935364-1.0935974l-2.1818237,2.1818237l1.0935364,1.0935974c-0.3948364,0.3948364-0.6390381,0.9403076-0.6390381,1.5427856
	C9.4545288,15.0231323,10.4313965,16,11.6363525,16c1.2050171,0,2.1818237-0.9768677,2.1818237-2.1818237
	C15.0231934,13.8181763,16,12.8413086,16,11.6363525C16,10.4313354,15.0231934,9.4545288,13.8181763,9.4545288z"/>
</svg>
