<?xml version="1.0" encoding="utf-8"?>
<!-- Generator: Adobe Illustrator 19.1.0, SVG Export Plug-In . SVG Version: 6.00 Build 0)  -->
<!DOCTYPE svg PUBLIC "-//W3C//DTD SVG 1.1//EN" "http://www.w3.org/Graphics/SVG/1.1/DTD/svg11.dtd">
<svg version="1.1" id="Layer_1" xmlns="http://www.w3.org/2000/svg" xmlns:xlink="http://www.w3.org/1999/xlink" x="0px" y="0px"
	 width="16px" height="16px" viewBox="0 0 16 16" enable-background="new 0 0 16 16" xml:space="preserve">
<path fill="#444444" d="M15,10.7802734V7c0-3.8660278-3.1340332-7-7-7C5.2088623,0,2.8051147,1.6364136,1.6816406,4H1
	C0.4477539,4,0,4.4477539,0,5v4c0,0.5522461,0.4477539,1,1,1h10v0.7802734C10.390686,11.3297729,10,12.1168213,10,13
	c0,1.6542969,1.3457031,3,3,3s3-1.3457031,3-3C16,12.1168213,15.609314,11.3297729,15,10.7802734z M2,6h9v2H2V6z M13,14
	c-0.5512695,0-1-0.4487305-1-1s0.4487305-1,1-1s1,0.4487305,1,1S13.5512695,14,13,14z"/>
</svg>
