<?xml version="1.0" encoding="utf-8"?>
<!-- Generator: Adobe Illustrator 19.1.0, SVG Export Plug-In . SVG Version: 6.00 Build 0)  -->
<!DOCTYPE svg PUBLIC "-//W3C//DTD SVG 1.1//EN" "http://www.w3.org/Graphics/SVG/1.1/DTD/svg11.dtd">
<svg version="1.1" id="Layer_1" xmlns="http://www.w3.org/2000/svg" xmlns:xlink="http://www.w3.org/1999/xlink" x="0px" y="0px"
	 width="16px" height="16px" viewBox="0 0 16 16" enable-background="new 0 0 16 16" xml:space="preserve">
<path fill="#444444" d="M14.3828125,0.0761719c-0.3730469-0.1552734-0.8027344-0.0688477-1.0898438,0.2167969L10.5859375,3
	h-5.171875L2.7070312,0.2929688c-0.2861328-0.2856445-0.7148438-0.371582-1.0898438-0.2167969C1.2431641,0.230957,1,0.5957031,1,1v8
	c0,3.8598633,3.140625,7,7,7s7-3.1401367,7-7V1C15,0.5957031,14.7568359,0.230957,14.3828125,0.0761719z M5,9
	C4.4476929,9,4,8.5522461,4,8c0-0.5523071,0.4476929-1,1-1s1,0.4476929,1,1C6,8.5522461,5.5523071,9,5,9z M11,9
	c-0.5523071,0-1-0.4477539-1-1c0-0.5523071,0.4476929-1,1-1s1,0.4476929,1,1C12,8.5522461,11.5523071,9,11,9z"/>
</svg>
