<?xml version="1.0" encoding="utf-8"?>
<!-- Generator: Adobe Illustrator 19.1.0, SVG Export Plug-In . SVG Version: 6.00 Build 0)  -->
<!DOCTYPE svg PUBLIC "-//W3C//DTD SVG 1.1//EN" "http://www.w3.org/Graphics/SVG/1.1/DTD/svg11.dtd">
<svg version="1.1" id="Layer_1" xmlns="http://www.w3.org/2000/svg" xmlns:xlink="http://www.w3.org/1999/xlink" x="0px" y="0px"
	 width="32px" height="32px" viewBox="0 0 32 32" enable-background="new 0 0 32 32" xml:space="preserve">
<path fill="#444444" d="M21.0288086,6c-0.0787964,0-1.244751-0.0264282-2.6691284,0.2227173C18.742981,4.8511963,20,4,20,4l-2-2
	c-1.3804932,0.3589478-3.5400391,1.9146118-4.0252075,4.326416C12.4855347,6.0426636,11.105835,6.0026855,11,6
	C4.6259766,6,0,11.046875,0,18c0,6.6171875,5.3833008,12,12,12h8c6.6166992,0,12-5.3828125,12-12
	C32,11.046875,27.3740234,6,21.0288086,6z M9,13l4,4H7L9,13z M16,25c-2.9594116,0-5.5371704-1.611084-6.9210205-4H14v2h4v-2
	h4.9210205C21.5371704,23.388916,18.9594116,25,16,25z M19,17l4-4l2,4H19z"/>
</svg>
