<?xml version="1.0" encoding="utf-8"?>
<!-- Generator: Adobe Illustrator 19.1.0, SVG Export Plug-In . SVG Version: 6.00 Build 0)  -->
<!DOCTYPE svg PUBLIC "-//W3C//DTD SVG 1.1//EN" "http://www.w3.org/Graphics/SVG/1.1/DTD/svg11.dtd">
<svg version="1.1" id="Layer_1" xmlns="http://www.w3.org/2000/svg" xmlns:xlink="http://www.w3.org/1999/xlink" x="0px" y="0px"
	 width="32px" height="32px" viewBox="0 0 32 32" enable-background="new 0 0 32 32" xml:space="preserve">
<path fill="#444444" d="M26.9482422,9.6835938l-3-9C23.8124924,0.2753906,23.4306641,0,23,0H9
	C8.5693359,0,8.1874933,0.2753906,8.0517578,0.6835938l-3,9c-0.0498047,0.1474609-0.0634766,0.3037109-0.0419922,0.4580078l3,21
	C8.0800781,31.6337891,8.5019531,32,9,32h14c0.4980469,0,0.9199219-0.3662109,0.9902344-0.8583984l3-21
	C27.0117188,9.9873047,26.9980469,9.8310547,26.9482422,9.6835938z M20,12h-3v6h-2v-6h-3v-2h3V7h2v3h3V12z"/>
</svg>
