<?xml version="1.0" encoding="utf-8"?>
<!-- Generator: Adobe Illustrator 19.1.0, SVG Export Plug-In . SVG Version: 6.00 Build 0)  -->
<!DOCTYPE svg PUBLIC "-//W3C//DTD SVG 1.1//EN" "http://www.w3.org/Graphics/SVG/1.1/DTD/svg11.dtd">
<svg version="1.1" id="Layer_1" xmlns="http://www.w3.org/2000/svg" xmlns:xlink="http://www.w3.org/1999/xlink" x="0px" y="0px"
	 width="32px" height="32px" viewBox="0 0 32 32" enable-background="new 0 0 32 32" xml:space="preserve">
<path data-color="color-2" fill="#444444" d="M9,6V4h2v2h4V4h2v2h4V4h2v2h5V5c0-2.7568359-2.2431641-5-5-5H9C6.2431641,0,4,2.2431641,4,5v1
	H9z"/>
<path fill="#444444" d="M31,12c-0.5527344,0-1,0.4472656-1,1v2h-2V8h-5v2h-2V8h-4v2h-2V8h-4v2H9V8H4v7H2v-2
	c0-0.5527344-0.4472656-1-1-1s-1,0.4472656-1,1v6c0,0.5527344,0.4472656,1,1,1s1-0.4472656,1-1v-2h2v3
	c0,6.6171875,5.3828125,12,12,12s12-5.3828125,12-12v-3h2v2c0,0.5527344,0.4472656,1,1,1s1-0.4472656,1-1v-6
	C32,12.4472656,31.5527344,12,31,12z M10,17c0-1.1046143,0.8954468-2,2-2s2,0.8953857,2,2c0,1.1045532-0.8954468,2-2,2
	S10,18.1045532,10,17z M18,26h-4c-1.1045532,0-2-0.8954468-2-2c0-1.1046143,0.8954468-2,2-2h4c1.1045532,0,2,0.8953857,2,2
	C20,25.1045532,19.1045532,26,18,26z M20,19c-1.1045532,0-2-0.8954468-2-2c0-1.1046143,0.8954468-2,2-2s2,0.8953857,2,2
	C22,18.1045532,21.1045532,19,20,19z"/>
</svg>
