<?xml version="1.0" encoding="utf-8"?>
<!-- Generator: Adobe Illustrator 19.1.0, SVG Export Plug-In . SVG Version: 6.00 Build 0)  -->
<!DOCTYPE svg PUBLIC "-//W3C//DTD SVG 1.1//EN" "http://www.w3.org/Graphics/SVG/1.1/DTD/svg11.dtd">
<svg version="1.1" id="Layer_1" xmlns="http://www.w3.org/2000/svg" xmlns:xlink="http://www.w3.org/1999/xlink" x="0px" y="0px"
	 width="32px" height="32px" viewBox="0 0 32 32" enable-background="new 0 0 32 32" xml:space="preserve">
<path fill="#444444" d="M31,12h-3c0-6.6171875-5.3833008-12-12-12S4,5.3828125,4,12H1c-0.5522461,0-1,0.4472656-1,1
	c0,2.4144287,1.7207031,4.4342651,4,4.8989258V30c0,0.3466797,0.1796875,0.6679688,0.4741211,0.8505859
	s0.6630859,0.1982422,0.9731445,0.0439453l3.480957-1.7402344l2.5170898,1.6777344
	c0.2973633,0.1982422,0.6806641,0.2216797,1.0019531,0.0625L16,29.1181641l3.5527344,1.7763672
	C19.6938477,30.9648438,19.847168,31,20,31c0.1943359,0,0.3876953-0.0566406,0.5546875-0.1679688l2.5170898-1.6777344
	l3.480957,1.7402344c0.309082,0.1542969,0.6787109,0.1386719,0.9731445-0.0439453S28,30.3466797,28,30V17.8989258
	C30.2792969,17.4342651,32,15.4144287,32,13C32,12.4472656,31.5522461,12,31,12z M11.5,17C10.1192627,17,9,15.8806763,9,14.5
	c0-1.3807373,1.1192627-2.5,2.5-2.5s2.5,1.1192627,2.5,2.5C14,15.8806763,12.8807373,17,11.5,17z M20.5,17
	c-1.3807373,0-2.5-1.1193237-2.5-2.5c0-1.3807373,1.1192627-2.5,2.5-2.5s2.5,1.1192627,2.5,2.5C23,15.8806763,21.8807373,17,20.5,17
	z"/>
</svg>
