<?xml version="1.0" encoding="utf-8"?>
<!-- Generator: Adobe Illustrator 19.1.0, SVG Export Plug-In . SVG Version: 6.00 Build 0)  -->
<!DOCTYPE svg PUBLIC "-//W3C//DTD SVG 1.1//EN" "http://www.w3.org/Graphics/SVG/1.1/DTD/svg11.dtd">
<svg version="1.1" id="Layer_1" xmlns="http://www.w3.org/2000/svg" xmlns:xlink="http://www.w3.org/1999/xlink" x="0px" y="0px"
	 width="32px" height="32px" viewBox="0 0 32 32" enable-background="new 0 0 32 32" xml:space="preserve">
<path data-color="color-2" fill="#444444" d="M31,27H1v3c0,0.5522842,0.4477153,1,1,1h28c0.5522842,0,1-0.4477158,1-1V27z"/>
<path fill="#444444" d="M15.2442017,1.0186768C7.1867676,1.4161987,1,8.3678589,1,16.4351196V25h14v-3h-4l5-8l5,8h-4v3h14v-9
	C31,7.4784546,23.8571167,0.593689,15.2442017,1.0186768z M9,15c0,0.5522461-0.4477539,1-1,1s-1-0.4477539-1-1v-1
	c0-0.5522461,0.4477539-1,1-1s1,0.4477539,1,1V15z M14,9c0,0.5522461-0.4477539,1-1,1s-1-0.4477539-1-1V8
	c0-0.5522461,0.4477539-1,1-1s1,0.4477539,1,1V9z M22,11c0,0.5522461-0.4477539,1-1,1s-1-0.4477539-1-1v-1
	c0-0.5522461,0.4477539-1,1-1s1,0.4477539,1,1V11z M26,18c0,0.5522461-0.4477539,1-1,1s-1-0.4477539-1-1v-1
	c0-0.5522461,0.4477539-1,1-1s1,0.4477539,1,1V18z"/>
</svg>
