<?xml version="1.0" encoding="utf-8"?>
<!-- Generator: Adobe Illustrator 19.1.0, SVG Export Plug-In . SVG Version: 6.00 Build 0)  -->
<!DOCTYPE svg PUBLIC "-//W3C//DTD SVG 1.1//EN" "http://www.w3.org/Graphics/SVG/1.1/DTD/svg11.dtd">
<svg version="1.1" id="Layer_1" xmlns="http://www.w3.org/2000/svg" xmlns:xlink="http://www.w3.org/1999/xlink" x="0px" y="0px"
	 width="32px" height="32px" viewBox="0 0 32 32" enable-background="new 0 0 32 32" xml:space="preserve">
<path fill="#444444" d="M31.7592773,11.3491211c-0.3603516-0.4189453-0.9916992-0.4682617-1.4101562-0.1083984l-6.0516968,5.1868896
	c-0.3781738-0.5603027-0.8113403-1.0844116-1.2987061-1.5610962C21.6331177,17.3283691,19.0090942,19,16,19
	c-3.0081177,0-5.6313477-1.6706543-6.9973755-4.1312256c-0.4871216,0.4768066-0.920166,1.0007324-1.2982788,1.5606079L6,14.9685669
	V10c0-0.5522461-0.4477539-1-1-1s-1,0.4477539-1,1v3.2542725l-2.3491211-2.0135498
	c-0.418457-0.3588867-1.0498047-0.3095703-1.4101562,0.1083984c-0.359375,0.4194336-0.3110352,1.0507812,0.1083984,1.4101562
	l6.3922729,5.4790649C6.2634277,19.4095459,6,20.6796265,6,22c0,5.5141602,4.4858398,10,10,10s10-4.4858398,10-10
	c0-1.3214111-0.2630615-2.5917969-0.7402344-3.7628784l6.3911133-5.4778442
	C32.0703125,12.3999023,32.1186523,11.7685547,31.7592773,11.3491211z"/>
<path fill="#444444" d="M27,16.4287109c-0.5522461,0-1-0.4477539-1-1V10c0-0.5522461,0.4477539-1,1-1s1,0.4477539,1,1v5.4287109
	C28,15.980957,27.5522461,16.4287109,27,16.4287109z"/>
<path data-color="color-2" fill="#444444" d="M23,7h-2V1c0-0.5522461-0.4477539-1-1-1h-8c-0.5522461,0-1,0.4477539-1,1v6H9
	C8.4477539,7,8,7.4477539,8,8s0.4477539,1,1,1h1.3483887C10.12323,9.6361694,10,10.3076782,10,11c0,3.3085938,2.6914062,6,6,6
	s6-2.6914062,6-6c0-0.6924438-0.1231689-1.3638916-0.3483276-2H23c0.5522461,0,1-0.4477539,1-1S23.5522461,7,23,7z"/>
</svg>
