<?xml version="1.0" encoding="utf-8"?>
<!-- Generator: Adobe Illustrator 19.1.0, SVG Export Plug-In . SVG Version: 6.00 Build 0)  -->
<!DOCTYPE svg PUBLIC "-//W3C//DTD SVG 1.1//EN" "http://www.w3.org/Graphics/SVG/1.1/DTD/svg11.dtd">
<svg version="1.1" id="Layer_1" xmlns="http://www.w3.org/2000/svg" xmlns:xlink="http://www.w3.org/1999/xlink" x="0px" y="0px"
	 width="32px" height="32px" viewBox="0 0 32 32" enable-background="new 0 0 32 32" xml:space="preserve">
<path fill="#444444" d="M27.8984375,4.1015625C27.4892578,2.3271484,25.8969727,1,24,1c-2.2055664,0-4,1.7939453-4,4
	c0,0.7265625,0.1923828,1.4228516,0.5532227,2.0322266L7.0327148,20.5527344C6.4238281,20.1923828,5.7265625,20,5,20
	c-2.2055664,0-4,1.7939453-4,4c0,1.8964844,1.3271484,3.4892578,3.1015625,3.8984375C4.5107422,29.6728516,6.1030273,31,8,31
	c2.2055664,0,4-1.7939453,4-4c0-0.7265625-0.1923828-1.4228516-0.5532227-2.0322266l13.5205078-13.5205078
	C25.5761719,11.8076172,26.2734375,12,27,12c2.2055664,0,4-1.7939453,4-4C31,6.1035156,29.6728516,4.5107422,27.8984375,4.1015625z"
	/>
<path data-color="color-2" fill="#444444" d="M5,12c0.7265625,0,1.4238281-0.1923828,2.0332031-0.5537109l3.1385498,3.138916
	l4.4139404-4.4136963l-3.138916-3.1392822C11.8076172,6.4228516,12,5.7265625,12,5c0-2.2060547-1.7944336-4-4-4
	C6.1030273,1,4.5107422,2.3271484,4.1015625,4.1015625C2.3271484,4.5107422,1,6.1035156,1,8C1,10.2060547,2.7944336,12,5,12z"/>
<path data-color="color-2" fill="#444444" d="M27,20c-0.7265625,0-1.4238281,0.1923828-2.0332031,0.5537109l-3.1385498-3.138916
	l-4.4139404,4.4136963l3.138916,3.1392822C20.1923828,25.5771484,20,26.2734375,20,27c0,2.2060547,1.7944336,4,4,4
	c1.8969727,0,3.4892578-1.3271484,3.8984375-3.1015625C29.6728516,27.4892578,31,25.8964844,31,24
	C31,21.7939453,29.2055664,20,27,20z"/>
</svg>
