<?xml version="1.0" encoding="utf-8"?>
<!-- Generator: Adobe Illustrator 19.1.0, SVG Export Plug-In . SVG Version: 6.00 Build 0)  -->
<!DOCTYPE svg PUBLIC "-//W3C//DTD SVG 1.1//EN" "http://www.w3.org/Graphics/SVG/1.1/DTD/svg11.dtd">
<svg version="1.1" id="Layer_1" xmlns="http://www.w3.org/2000/svg" xmlns:xlink="http://www.w3.org/1999/xlink" x="0px" y="0px"
	 width="32px" height="32px" viewBox="0 0 32 32" enable-background="new 0 0 32 32" xml:space="preserve">
<path fill="#444444" d="M28,10.0505371c0-1.6916771,0.0235806-1.385973-0.1879883-3.0446777
	c-3.374855-0.0493512-4.1216335-1.2186847-4.9633789-3.9873047C21.7340736,3.5824993,21.0780315,4,20,4
	c-1.9168282,0-3.4933491-1.1007848-4.0820312-4H13C8.0375977,0,4,4.0371094,4,9v1.0505371C1.7561646,10.3029785,0,12.1897583,0,14.5
	s1.7561646,4.1970215,4,4.4494629V20c0,6.6171875,5.3833008,12,12,12s12-5.3828125,12-12v-1.0505371
	c2.2438354-0.2524414,4-2.1392212,4-4.4494629S30.2438354,10.3029785,28,10.0505371z M10,12c0-1.1046143,0.8954468-2,2-2
	s2,0.8953857,2,2c0,1.1045532-0.8954468,2-2,2S10,13.1045532,10,12z M19,23v2.5c0,0.8284302-0.6715698,1.5-1.5,1.5
	S16,26.3284302,16,25.5V23h-5c0-2.7614136,2.2385864-5,5-5s5,2.2385864,5,5H19z M20,15c-1.1045532,0-2-0.8954468-2-2
	c0-1.1046143,0.8954468-2,2-2s2,0.8953857,2,2C22,14.1045532,21.1045532,15,20,15z"/>
</svg>
