<?xml version="1.0" encoding="utf-8"?>
<!-- Generator: Adobe Illustrator 19.1.0, SVG Export Plug-In . SVG Version: 6.00 Build 0)  -->
<!DOCTYPE svg PUBLIC "-//W3C//DTD SVG 1.1//EN" "http://www.w3.org/Graphics/SVG/1.1/DTD/svg11.dtd">
<svg version="1.1" id="Layer_1" xmlns="http://www.w3.org/2000/svg" xmlns:xlink="http://www.w3.org/1999/xlink" x="0px" y="0px"
	 width="32px" height="32px" viewBox="0 0 32 32" enable-background="new 0 0 32 32" xml:space="preserve">
<path fill="#444444" d="M31,6h-5.5394287C25.7952271,5.4127808,26,4.7375488,26,4c0-2.2431641-1.7568359-4-4-4
	c-3.118042,0-4.9921265,2.4052734-6,4.3449097C14.9921265,2.4052734,13.118042,0,10,0C7.7568359,0,6,1.7568359,6,4
	c0,0.7375488,0.2047729,1.4127808,0.5394287,2H1C0.4472656,6,0,6.4477539,0,7v4c0,0.5522461,0.4472656,1,1,1h30
	c0.5527344,0,1-0.4477539,1-1V7C32,6.4477539,31.5527344,6,31,6z M22,2c1.140625,0,2,0.8598633,2,2s-0.859375,2-2,2h-4.5732422
	C18.1025391,4.4438477,19.5527344,2,22,2z M8,4c0-1.1401367,0.859375-2,2-2c2.4472656,0,3.8974609,2.4438477,4.5732422,4H10
	C8.859375,6,8,5.1401367,8,4z"/>
<polygon data-color="color-2" fill="#444444" points="10.5859375,14 3,14 3,21.5859375 "/>
<polygon fill="#444444" points="29,14.4140625 11.4140625,32 16.5859375,32 29,19.5859375 "/>
<polygon fill="#444444" points="13.4140625,14 3,24.4140625 3,29.5859375 18.5859375,14 "/>
<path data-color="color-2" fill="#444444" d="M19.4140625,32H28c0.5527344,0,1-0.4477539,1-1v-8.5859375L19.4140625,32z"/>
<path data-color="color-2" fill="#444444" d="M26.5859375,14h-5.171875L3.5401611,31.8739014C3.6795654,31.9476318,3.8311768,32,4,32
	h4.5859375L26.5859375,14z"/>
</svg>
