<?xml version="1.0" encoding="utf-8"?>
<!-- Generator: Adobe Illustrator 19.1.0, SVG Export Plug-In . SVG Version: 6.00 Build 0)  -->
<!DOCTYPE svg PUBLIC "-//W3C//DTD SVG 1.1//EN" "http://www.w3.org/Graphics/SVG/1.1/DTD/svg11.dtd">
<svg version="1.1" id="Layer_1" xmlns="http://www.w3.org/2000/svg" xmlns:xlink="http://www.w3.org/1999/xlink" x="0px" y="0px"
	 width="32px" height="32px" viewBox="0 0 32 32" enable-background="new 0 0 32 32" xml:space="preserve">
<circle data-color="color-2" fill="#444444" cx="20.5" cy="2.5" r="2.5"/>
<path fill="#444444" d="M29,15.6816406V10c0-3.1572266-8.1713867-4-13-4c-0.7243652,0-1.442688,0.0377808-2.1623535,0.0704346
	C13.4437866,4.8728027,12.3278198,4,11,4C9.4328613,4,8.1572266,5.2119141,8.0256958,6.7455444
	C4.7035522,7.4512329,3,8.5410767,3,10v5.6816406c-1.6596714,2.3235397-3,3.9105835-3,6.8642578C0,31.0195312,9.1313477,32,16,32
	s16-0.9804688,16-9.4541016C32,19.5941925,30.6623859,18.0089798,29,15.6816406z M8.5162964,8.6802368
	C9.0563354,9.4759521,9.9679565,10,11,10c1.2808228,0,2.3683472-0.8104248,2.7978516-1.9424438
	C14.5189209,8.0231934,15.2526245,8,16,8c6.4589844,0,10.3969727,1.2431641,10.9663086,1.9970703
	c-0.3408203,0.4150391-2.1118164,1.2773438-6.0805664,1.734375C20.3808594,11.7890625,20,12.2167969,20,12.7246094V20.5
	c0,0.8271484-0.6728516,1.5-1.5,1.5S17,21.3271484,17,20.5v-7.5097656c0-0.5478516-0.4404297-0.9931641-0.9882812-1
	C9.53125,11.9140625,5.2299805,10.7763672,4.9873047,10.0732422C5.0852661,9.8692017,5.97229,9.211792,8.5162964,8.6802368z"/>
</svg>
