<?xml version="1.0" encoding="utf-8"?>
<!-- Generator: Adobe Illustrator 19.1.0, SVG Export Plug-In . SVG Version: 6.00 Build 0)  -->
<!DOCTYPE svg PUBLIC "-//W3C//DTD SVG 1.1//EN" "http://www.w3.org/Graphics/SVG/1.1/DTD/svg11.dtd">
<svg version="1.1" id="Layer_1" xmlns="http://www.w3.org/2000/svg" xmlns:xlink="http://www.w3.org/1999/xlink" x="0px" y="0px"
	 width="32px" height="32px" viewBox="0 0 32 32" enable-background="new 0 0 32 32" xml:space="preserve">
<path fill="#444444" d="M22,6H4C2.8974609,6,2,5.1030273,2,4s0.8974609-2,2-2h3c0.5527344,0,1-0.4477539,1-1S7.5527344,0,7,0H4
	C1.7939453,0,0,1.7944336,0,4s1.7939453,4,4,4h4v1.1419678C6.27948,9.5891724,5,11.1416626,5,13c0,2.0600586,1.5576172,6,4,6
	s4-3.9399414,4-6c0-1.8583374-1.27948-3.4108276-3-3.8580322V8h12c4.4111328,0,8,3.5888672,8,8s-3.5888672,8-8,8h-1v-1.1419678
	C22.72052,22.4108276,24,20.8583374,24,19c0-2.0600586-1.5576172-6-4-6s-4,3.9399414-4,6c0,1.8583374,1.27948,3.4108276,3,3.8580322
	V24H4c-2.2060547,0-4,1.7944336-4,4s1.7939453,4,4,4h3c0.5527344,0,1-0.4477539,1-1s-0.4472656-1-1-1H4
	c-1.1025391,0-2-0.8969727-2-2s0.8974609-2,2-2h18c5.5136719,0,10-4.4858398,10-10S27.5136719,6,22,6z"/>
</svg>
