<?xml version="1.0" encoding="utf-8"?>
<!-- Generator: Adobe Illustrator 19.1.0, SVG Export Plug-In . SVG Version: 6.00 Build 0)  -->
<!DOCTYPE svg PUBLIC "-//W3C//DTD SVG 1.1//EN" "http://www.w3.org/Graphics/SVG/1.1/DTD/svg11.dtd">
<svg version="1.1" id="Layer_1" xmlns="http://www.w3.org/2000/svg" xmlns:xlink="http://www.w3.org/1999/xlink" x="0px" y="0px"
	 width="32px" height="32px" viewBox="0 0 32 32" enable-background="new 0 0 32 32" xml:space="preserve">
<circle data-color="color-2" fill="#444444" cx="10" cy="13" r="2"/>
<circle data-color="color-2" fill="#444444" cx="22" cy="13" r="2"/>
<path fill="#444444" d="M26.9369507,6C24.6231689,2.3977051,20.590332,0,16,0S7.3768311,2.3977051,5.0630493,6H0v1
	c0,2.3780518,1.1946411,4.4801025,3.0128784,5.7458496C3.0112305,12.8312378,3,12.9141846,3,13
	c0,2.1895142,0.7751465,4.8345947,1.9877319,7.4464722C4.3574219,21.515686,4,22.7389526,4,24
	c0,1.53125,0.4916992,2.9902344,1.4213867,4.2177734c0.1914062,0.2529297,0.487793,0.3964844,0.7973633,0.3964844
	c0.0600586,0,0.1210938-0.0058594,0.1821289-0.0166016c0.371582-0.0693359,0.6728516-0.3417969,0.7783203-0.7050781
	c0.2022705-0.697937,0.612793-1.3226929,1.1500244-1.8156128C10.8401489,29.4835205,13.7660522,32,16,32
	c2.1766357,0,5.0957031-2.5507202,7.6169434-5.9772339c0.5653687,0.5003052,0.9945068,1.1474609,1.2038574,1.869812
	c0.1054688,0.3632812,0.4067383,0.6357422,0.7783203,0.7050781c0.0610352,0.0107422,0.121582,0.0166016,0.1821289,0.0166016
	c0.3095703,0,0.605957-0.1435547,0.7973633-0.3964844C27.5083008,26.9902344,28,25.53125,28,24
	c0-1.2836914-0.3692627-2.5288696-1.0212402-3.6113892C28.2093506,17.7728271,29,15.1403809,29,13
	c0-0.0858154-0.0112305-0.1687622-0.0128784-0.2541504C30.8053589,11.4801025,32,9.3780518,32,7V6H26.9369507z M10,18
	c-2.7614136,0-5-2.2385864-5-5s2.2385864-5,5-5s5,2.2385864,5,5S12.7614136,18,10,18z M16,24c-1.1045532,0-2-2.8954468-2-4
	c0-1.1046143,0.8954468-2,2-2s2,0.8953857,2,2C18,21.1045532,17.1045532,24,16,24z M22,18c-2.7614136,0-5-2.2385864-5-5
	s2.2385864-5,5-5s5,2.2385864,5,5S24.7614136,18,22,18z"/>
</svg>
