<?xml version="1.0" encoding="utf-8"?>
<!-- Generator: Adobe Illustrator 19.1.0, SVG Export Plug-In . SVG Version: 6.00 Build 0)  -->
<!DOCTYPE svg PUBLIC "-//W3C//DTD SVG 1.1//EN" "http://www.w3.org/Graphics/SVG/1.1/DTD/svg11.dtd">
<svg version="1.1" id="Layer_1" xmlns="http://www.w3.org/2000/svg" xmlns:xlink="http://www.w3.org/1999/xlink" x="0px" y="0px"
	 width="16px" height="16px" viewBox="0 0 16 16" enable-background="new 0 0 16 16" xml:space="preserve">
<path fill="#444444" d="M13.9,9.3L12,0.8C11.9,0.3,11.5,0,11,0H7v2h3.2l0.7,3H4C3.4,5,3,5.4,3,6v2.1c-1.7,0.4-3,2-3,3.9
	c0,2.2,1.8,4,4,4s4-1.8,4-4c0-1.9-1.3-3.4-3-3.9V7h6.3l0.5,2.1C10.2,9.4,9,10.8,9,12.5c0,1.9,1.6,3.5,3.5,3.5s3.5-1.6,3.5-3.5
	C16,11.1,15.1,9.8,13.9,9.3z M6,12c0,1.1-0.9,2-2,2s-2-0.9-2-2s0.9-2,2-2S6,10.9,6,12z M12.5,14c-0.8,0-1.5-0.7-1.5-1.5
	s0.7-1.5,1.5-1.5s1.5,0.7,1.5,1.5S13.3,14,12.5,14z"/>
<rect data-color="color-2" x="1" y="2" fill="#444444" width="4" height="2"/>
</svg>
