<?xml version="1.0" encoding="utf-8"?>
<!-- Generator: Adobe Illustrator 19.1.0, SVG Export Plug-In . SVG Version: 6.00 Build 0)  -->
<!DOCTYPE svg PUBLIC "-//W3C//DTD SVG 1.1//EN" "http://www.w3.org/Graphics/SVG/1.1/DTD/svg11.dtd">
<svg version="1.1" id="Layer_1" xmlns="http://www.w3.org/2000/svg" xmlns:xlink="http://www.w3.org/1999/xlink" x="0px" y="0px"
	 width="16px" height="16px" viewBox="0 0 16 16" enable-background="new 0 0 16 16" xml:space="preserve">
<path fill="#444444" d="M15.7,8.3l-0.8-0.8l-1-6.7C13.9,0.4,13.5,0,13,0H3C2.5,0,2.1,0.4,2,0.9l-1,6.7L0.3,8.3C0.1,8.5,0,8.7,0,9v4
	c0,0.6,0.4,1,1,1v1c0,0.6,0.4,1,1,1h2c0.6,0,1-0.4,1-1v-1h6v1c0,0.6,0.4,1,1,1h2c0.6,0,1-0.4,1-1v-1c0.6,0,1-0.4,1-1V9
	C16,8.7,15.9,8.5,15.7,8.3z M3,12c-0.6,0-1-0.4-1-1s0.4-1,1-1s1,0.4,1,1S3.6,12,3,12z M3.2,7l0.7-5h8.3l0.7,5H3.2z M13,12
	c-0.6,0-1-0.4-1-1s0.4-1,1-1s1,0.4,1,1S13.6,12,13,12z"/>
</svg>
