<?xml version="1.0" encoding="utf-8"?>
<!-- Generator: Adobe Illustrator 19.1.0, SVG Export Plug-In . SVG Version: 6.00 Build 0)  -->
<!DOCTYPE svg PUBLIC "-//W3C//DTD SVG 1.1//EN" "http://www.w3.org/Graphics/SVG/1.1/DTD/svg11.dtd">
<svg version="1.1" id="Layer_1" xmlns="http://www.w3.org/2000/svg" xmlns:xlink="http://www.w3.org/1999/xlink" x="0px" y="0px"
	 width="16px" height="16px" viewBox="0 0 16 16" enable-background="new 0 0 16 16" xml:space="preserve">
<path fill="#444444" d="M15,10.8V9c0-0.9-0.4-1.7-1-2.2V4h1V2h-2c-0.6,0-1,0.4-1,1v3h-1.3L8.9,0.7C8.8,0.3,8.4,0,8,0H1v2h2v5.3
	c-1.7,0.6-3,2.3-3,4.2C0,14,2,16,4.5,16c2,0,3.6-1.3,4.2-3H10c0,1.7,1.3,3,3,3s3-1.3,3-3C16,12.1,15.6,11.3,15,10.8z M5,2h2.3l1.3,4
	H5V2z M4.5,14C3.1,14,2,12.9,2,11.5S3.1,9,4.5,9S7,10.1,7,11.5S5.9,14,4.5,14z M13,14c-0.6,0-1-0.4-1-1s0.4-1,1-1s1,0.4,1,1
	S13.6,14,13,14z"/>
</svg>
