<?xml version="1.0" encoding="utf-8"?>
<!-- Generator: Adobe Illustrator 19.1.0, SVG Export Plug-In . SVG Version: 6.00 Build 0)  -->
<!DOCTYPE svg PUBLIC "-//W3C//DTD SVG 1.1//EN" "http://www.w3.org/Graphics/SVG/1.1/DTD/svg11.dtd">
<svg version="1.1" id="Layer_1" xmlns="http://www.w3.org/2000/svg" xmlns:xlink="http://www.w3.org/1999/xlink" x="0px" y="0px"
	 width="16px" height="16px" viewBox="0 0 16 16" enable-background="new 0 0 16 16" xml:space="preserve">
<path fill="#444444" d="M15.9,8.6L15,6.7l-1-5.9C13.9,0.4,13.5,0,13,0H3C2.5,0,2.1,0.4,2,0.8L1,6.7L0.1,8.6C0,8.7,0,8.8,0,9v4
	c0,0.6,0.4,1,1,1v1c0,0.6,0.4,1,1,1h2c0.6,0,1-0.4,1-1v-1h6v1c0,0.6,0.4,1,1,1h2c0.6,0,1-0.4,1-1v-1c0.6,0,1-0.4,1-1V9
	C16,8.8,16,8.7,15.9,8.6z M3.8,2h8.3l0.7,4H3.2L3.8,2z M2,12V9.2L2.6,8h10.8L14,9.2V12H2z"/>
<circle data-color="color-2" fill="#444444" cx="4" cy="10" r="1"/>
<circle data-color="color-2" fill="#444444" cx="12" cy="10" r="1"/>
</svg>
