<?xml version="1.0" encoding="utf-8"?>
<!-- Generator: Adobe Illustrator 19.2.1, SVG Export Plug-In . SVG Version: 6.00 Build 0)  -->
<!DOCTYPE svg PUBLIC "-//W3C//DTD SVG 1.1//EN" "http://www.w3.org/Graphics/SVG/1.1/DTD/svg11.dtd">
<svg version="1.1" id="Layer_1" xmlns="http://www.w3.org/2000/svg" xmlns:xlink="http://www.w3.org/1999/xlink" x="0px" y="0px"
	 width="48px" height="48px" viewBox="0 0 48 48" enable-background="new 0 0 48 48" xml:space="preserve">
<path fill="#222221" d="M4,45c0.256,0,0.512-0.098,0.707-0.293L34,15.414l9.293,9.293c0.286,0.287,0.715,0.372,1.09,0.217
	C44.757,24.769,45,24.404,45,24V4c0-0.552-0.447-1-1-1H24c-0.404,0-0.77,0.244-0.924,0.617c-0.155,0.374-0.069,0.804,0.217,1.09
	L32.586,14L3.293,43.293c-0.391,0.391-0.391,1.023,0,1.414C3.488,44.902,3.744,45,4,45z"/>
</svg>
