<?xml version="1.0" encoding="utf-8"?>
<!-- Generator: Adobe Illustrator 19.2.1, SVG Export Plug-In . SVG Version: 6.00 Build 0)  -->
<!DOCTYPE svg PUBLIC "-//W3C//DTD SVG 1.1//EN" "http://www.w3.org/Graphics/SVG/1.1/DTD/svg11.dtd">
<svg version="1.1" id="Layer_1" xmlns="http://www.w3.org/2000/svg" xmlns:xlink="http://www.w3.org/1999/xlink" x="0px" y="0px"
	 width="48px" height="48px" viewBox="0 0 48 48" enable-background="new 0 0 48 48" xml:space="preserve">
<path d="M40,17H21V8c0-0.394-0.231-0.751-0.591-0.912c-0.357-0.162-0.779-0.098-1.073,0.165l-18,16C1.122,23.442,1,23.714,1,24
	s0.122,0.558,0.336,0.748l18,16C19.522,40.914,19.76,41,20,41c0.139,0,0.278-0.029,0.409-0.088C20.769,40.751,21,40.394,21,40v-9h19
	c3.859,0,7-3.14,7-7S43.859,17,40,17z"/>
</svg>
