<?xml version="1.0" encoding="utf-8"?>
<!-- Generator: Adobe Illustrator 19.2.1, SVG Export Plug-In . SVG Version: 6.00 Build 0)  -->
<!DOCTYPE svg PUBLIC "-//W3C//DTD SVG 1.1//EN" "http://www.w3.org/Graphics/SVG/1.1/DTD/svg11.dtd">
<svg version="1.1" id="Layer_1" xmlns="http://www.w3.org/2000/svg" xmlns:xlink="http://www.w3.org/1999/xlink" x="0px" y="0px"
	 width="48px" height="48px" viewBox="0 0 48 48" enable-background="new 0 0 48 48" xml:space="preserve">
<path fill="#222221" d="M2,47h32c0.552,0,1-0.448,1-1V32c0-0.552-0.448-1-1-1s-1,0.448-1,1v13H3V19h9c0.552,0,1-0.448,1-1
	c0-0.552-0.448-1-1-1H2c-0.552,0-1,0.448-1,1v28C1,46.552,1.448,47,2,47z"/>
<path fill="#222221" d="M47.614,11.211l-9-7c-0.303-0.235-0.71-0.277-1.054-0.109C37.218,4.27,37,4.618,37,5v6.051
	C25.887,11.578,17,20.758,17,32c0,0.552,0.447,1,1,1s1-0.448,1-1c0-10.139,7.989-18.424,18-18.949V19
	c0,0.382,0.218,0.73,0.561,0.898C37.7,19.967,37.851,20,38,20c0.218,0,0.435-0.071,0.614-0.211l9-7C47.857,12.6,48,12.309,48,12
	C48,11.691,47.857,11.4,47.614,11.211z"/>
</svg>
