<?xml version="1.0" encoding="utf-8"?>
<!-- Generator: Adobe Illustrator 19.2.1, SVG Export Plug-In . SVG Version: 6.00 Build 0)  -->
<!DOCTYPE svg PUBLIC "-//W3C//DTD SVG 1.1//EN" "http://www.w3.org/Graphics/SVG/1.1/DTD/svg11.dtd">
<svg version="1.1" id="Layer_1" xmlns="http://www.w3.org/2000/svg" xmlns:xlink="http://www.w3.org/1999/xlink" x="0px" y="0px"
	 width="48px" height="48px" viewBox="0 0 48 48" enable-background="new 0 0 48 48" xml:space="preserve">
<path d="M38.863,21.041C37.89,13.098,31.089,7,23,7C14.7,7,7.843,13.318,7.088,21.511C3.469,22.746,1,26.139,1,30
	c0,4.963,4.038,9,9,9h28c4.962,0,9-4.037,9-9C47,25.328,43.422,21.477,38.863,21.041z M30.707,28.707l-5.999,5.999
	c-0.092,0.093-0.203,0.166-0.326,0.217C24.26,34.973,24.13,35,24,35s-0.26-0.027-0.382-0.077c-0.123-0.051-0.233-0.124-0.326-0.217
	l-5.999-5.999c-0.391-0.391-0.391-1.023,0-1.414s1.023-0.391,1.414,0L23,31.586V18c0-0.553,0.448-1,1-1s1,0.447,1,1v13.586
	l4.293-4.293c0.391-0.391,1.023-0.391,1.414,0S31.098,28.316,30.707,28.707z"/>
</svg>
