<?xml version="1.0" encoding="utf-8"?>
<!-- Generator: Adobe Illustrator 19.2.1, SVG Export Plug-In . SVG Version: 6.00 Build 0)  -->
<!DOCTYPE svg PUBLIC "-//W3C//DTD SVG 1.1//EN" "http://www.w3.org/Graphics/SVG/1.1/DTD/svg11.dtd">
<svg version="1.1" id="Layer_1" xmlns="http://www.w3.org/2000/svg" xmlns:xlink="http://www.w3.org/1999/xlink" x="0px" y="0px"
	 width="48px" height="48px" viewBox="0 0 48 48" enable-background="new 0 0 48 48" xml:space="preserve">
<path d="M46,13h-9V7c0-0.382-0.218-0.73-0.561-0.898c-0.344-0.167-0.751-0.126-1.054,0.109l-9,7C26.143,13.4,26,13.691,26,14
	s0.143,0.6,0.386,0.789l9,7C35.565,21.929,35.782,22,36,22c0.149,0,0.3-0.033,0.439-0.102C36.782,21.73,37,21.382,37,21v-6h8v25H3
	V15h8v6c0,0.382,0.218,0.73,0.561,0.898C11.7,21.967,11.851,22,12,22c0.218,0,0.435-0.071,0.614-0.211l9-7
	C21.857,14.6,22,14.309,22,14s-0.143-0.6-0.386-0.789l-9-7c-0.303-0.235-0.71-0.276-1.054-0.109C11.218,6.27,11,6.618,11,7v6H2
	c-0.553,0-1,0.448-1,1v27c0,0.552,0.447,1,1,1h44c0.553,0,1-0.448,1-1V14C47,13.448,46.553,13,46,13z"/>
</svg>
