<?xml version="1.0" encoding="utf-8"?>
<!-- Generator: Adobe Illustrator 19.2.1, SVG Export Plug-In . SVG Version: 6.00 Build 0)  -->
<!DOCTYPE svg PUBLIC "-//W3C//DTD SVG 1.1//EN" "http://www.w3.org/Graphics/SVG/1.1/DTD/svg11.dtd">
<svg version="1.1" id="Layer_1" xmlns="http://www.w3.org/2000/svg" xmlns:xlink="http://www.w3.org/1999/xlink" x="0px" y="0px"
	 width="48px" height="48px" viewBox="0 0 48 48" enable-background="new 0 0 48 48" xml:space="preserve">
<path d="M1.431,37.822l13,9C14.601,46.94,14.8,47,15,47c0.159,0,0.318-0.038,0.464-0.114C15.793,46.713,16,46.372,16,46v-8h21
	c0.552,0,1-0.448,1-1V16h8c0.372,0,0.713-0.207,0.886-0.536c0.173-0.329,0.148-0.727-0.063-1.033l-9-13
	c-0.374-0.539-1.271-0.539-1.645,0l-9,13c-0.211,0.306-0.236,0.704-0.063,1.033C27.287,15.793,27.628,16,28,16h8v20H16v-8
	c0-0.372-0.207-0.713-0.536-0.886c-0.329-0.173-0.727-0.148-1.033,0.063l-13,9C1.161,36.365,1,36.672,1,37
	S1.161,37.635,1.431,37.822z"/>
</svg>
