<?xml version="1.0" encoding="utf-8"?>
<!-- Generator: Adobe Illustrator 19.2.1, SVG Export Plug-In . SVG Version: 6.00 Build 0)  -->
<!DOCTYPE svg PUBLIC "-//W3C//DTD SVG 1.1//EN" "http://www.w3.org/Graphics/SVG/1.1/DTD/svg11.dtd">
<svg version="1.1" id="Layer_1" xmlns="http://www.w3.org/2000/svg" xmlns:xlink="http://www.w3.org/1999/xlink" x="0px" y="0px"
	 width="48px" height="48px" viewBox="0 0 48 48" enable-background="new 0 0 48 48" xml:space="preserve">
<path d="M38.863,15.041C37.89,7.098,31.089,1,23,1C14.7,1,7.843,7.318,7.088,15.511C3.469,16.746,1,20.139,1,24c0,4.963,4.038,9,9,9
	h13V18c0-0.553,0.448-1,1-1s1,0.447,1,1v15h13c4.962,0,9-4.037,9-9C47,19.328,43.422,15.477,38.863,15.041z"/>
<path d="M23,43.586l-4.293-4.293c-0.391-0.391-1.023-0.391-1.414,0s-0.391,1.023,0,1.414l5.999,5.999C23.478,46.893,23.739,47,24,47
	s0.522-0.107,0.708-0.294l5.999-5.999c0.391-0.391,0.391-1.023,0-1.414s-1.023-0.391-1.414,0L25,43.586V33h-2V43.586z"/>
</svg>
