<?xml version="1.0" encoding="utf-8"?>
<!-- Generator: Adobe Illustrator 19.2.1, SVG Export Plug-In . SVG Version: 6.00 Build 0)  -->
<!DOCTYPE svg PUBLIC "-//W3C//DTD SVG 1.1//EN" "http://www.w3.org/Graphics/SVG/1.1/DTD/svg11.dtd">
<svg version="1.1" id="Layer_1" xmlns="http://www.w3.org/2000/svg" xmlns:xlink="http://www.w3.org/1999/xlink" x="0px" y="0px"
	 width="48px" height="48px" viewBox="0 0 48 48" enable-background="new 0 0 48 48" xml:space="preserve">
<path d="M3,3h42c0.552,0,1-0.448,1-1s-0.448-1-1-1H3C2.448,1,2,1.448,2,2S2.448,3,3,3z"/>
<path d="M25,9h-2c-0.552,0-1,0.448-1,1v21h-9c-0.383,0-0.732,0.219-0.899,0.563s-0.124,0.754,0.113,1.055l11,14
	C23.403,46.859,23.693,47,24,47s0.597-0.141,0.786-0.382l11-14c0.237-0.301,0.281-0.71,0.113-1.055S35.383,31,35,31h-9V10
	C26,9.448,25.552,9,25,9z"/>
</svg>
