<?xml version="1.0" encoding="utf-8"?>
<!-- Generator: Adobe Illustrator 19.2.1, SVG Export Plug-In . SVG Version: 6.00 Build 0)  -->
<!DOCTYPE svg PUBLIC "-//W3C//DTD SVG 1.1//EN" "http://www.w3.org/Graphics/SVG/1.1/DTD/svg11.dtd">
<svg version="1.1" id="Layer_1" xmlns="http://www.w3.org/2000/svg" xmlns:xlink="http://www.w3.org/1999/xlink" x="0px" y="0px"
	 width="48px" height="48px" viewBox="0 0 48 48" enable-background="new 0 0 48 48" xml:space="preserve">
<path d="M34.641,23.231c-0.299-0.247-0.714-0.302-1.064-0.137C33.225,23.259,33,23.612,33,24v9H3V5h31c0.553,0,1-0.447,1-1
	s-0.447-1-1-1H2C1.447,3,1,3.447,1,4v30c0,0.553,0.447,1,1,1h31v9c0,0.388,0.225,0.741,0.576,0.905C33.711,44.969,33.855,45,34,45
	c0.229,0,0.457-0.079,0.641-0.231l12-10C46.868,34.578,47,34.297,47,34s-0.132-0.578-0.359-0.769L34.641,23.231z"/>
</svg>
