<?xml version="1.0" encoding="utf-8"?>
<!-- Generator: Adobe Illustrator 19.2.1, SVG Export Plug-In . SVG Version: 6.00 Build 0)  -->
<!DOCTYPE svg PUBLIC "-//W3C//DTD SVG 1.1//EN" "http://www.w3.org/Graphics/SVG/1.1/DTD/svg11.dtd">
<svg version="1.1" id="Layer_1" xmlns="http://www.w3.org/2000/svg" xmlns:xlink="http://www.w3.org/1999/xlink" x="0px" y="0px"
	 width="48px" height="48px" viewBox="0 0 48 48" enable-background="new 0 0 48 48" xml:space="preserve">
<path d="M25,46V2c0-0.553-0.447-1-1-1s-1,0.447-1,1v44c0,0.553,0.447,1,1,1S25,46.553,25,46z"/>
<path d="M11.375,32.781C11.556,32.926,11.777,33,12,33c0.147,0,0.296-0.032,0.434-0.099C12.779,32.734,13,32.385,13,32v-6h6v-4h-6
	v-6c0-0.385-0.221-0.734-0.566-0.901c-0.348-0.167-0.759-0.12-1.059,0.12l-10,8C1.138,23.409,1,23.696,1,24s0.138,0.591,0.375,0.781
	L11.375,32.781z"/>
<path d="M36.625,15.219c-0.301-0.24-0.714-0.287-1.059-0.12C35.221,15.266,35,15.615,35,16v6h-6v4h6v6
	c0,0.385,0.221,0.734,0.566,0.901C35.705,32.968,35.853,33,36,33c0.223,0,0.444-0.074,0.625-0.219l10-8
	C46.862,24.591,47,24.304,47,24s-0.138-0.591-0.375-0.781L36.625,15.219z"/>
</svg>
