<?xml version="1.0" encoding="utf-8"?>
<!-- Generator: Adobe Illustrator 19.2.1, SVG Export Plug-In . SVG Version: 6.00 Build 0)  -->
<!DOCTYPE svg PUBLIC "-//W3C//DTD SVG 1.1//EN" "http://www.w3.org/Graphics/SVG/1.1/DTD/svg11.dtd">
<svg version="1.1" id="Layer_1" xmlns="http://www.w3.org/2000/svg" xmlns:xlink="http://www.w3.org/1999/xlink" x="0px" y="0px"
	 width="48px" height="48px" viewBox="0 0 48 48" enable-background="new 0 0 48 48" xml:space="preserve">
<path d="M45,1H3C1.895,1,1,1.895,1,3v42c0,1.105,0.895,2,2,2h42c1.105,0,2-0.895,2-2V3C47,1.895,46.105,1,45,1z M22.707,21.293
	c0.391,0.391,0.391,1.023,0,1.414C22.512,22.902,22.256,23,22,23s-0.512-0.098-0.707-0.293L11,12.414V22c0,0.552-0.447,1-1,1
	s-1-0.448-1-1V10c0-0.13,0.027-0.26,0.077-0.382c0.101-0.245,0.296-0.44,0.541-0.541C9.74,9.027,9.87,9,10,9h12c0.553,0,1,0.448,1,1
	s-0.447,1-1,1h-9.586L22.707,21.293z M39,38c0,0.552-0.447,1-1,1H28c-0.553,0-1-0.448-1-1V28c0-0.552,0.447-1,1-1h10
	c0.553,0,1,0.448,1,1V38z"/>
</svg>
