<?xml version="1.0" encoding="utf-8"?>
<!-- Generator: Adobe Illustrator 19.2.1, SVG Export Plug-In . SVG Version: 6.00 Build 0)  -->
<!DOCTYPE svg PUBLIC "-//W3C//DTD SVG 1.1//EN" "http://www.w3.org/Graphics/SVG/1.1/DTD/svg11.dtd">
<svg version="1.1" id="Layer_1" xmlns="http://www.w3.org/2000/svg" xmlns:xlink="http://www.w3.org/1999/xlink" x="0px" y="0px"
	 width="48px" height="48px" viewBox="0 0 48 48" enable-background="new 0 0 48 48" xml:space="preserve">
<path d="M24,1C11.318,1,1,11.318,1,24s10.318,23,23,23s23-10.318,23-23S36.682,1,24,1z M32.707,26.707l-8,8
	c-0.092,0.092-0.203,0.165-0.325,0.216C24.26,34.973,24.13,35,24,35s-0.26-0.027-0.382-0.077c-0.122-0.051-0.233-0.124-0.325-0.216
	l-8-8c-0.391-0.391-0.391-1.023,0-1.414s1.023-0.391,1.414,0L23,31.586V12c0-0.552,0.448-1,1-1s1,0.448,1,1v19.586l6.293-6.293
	c0.391-0.391,1.023-0.391,1.414,0S33.098,26.316,32.707,26.707z"/>
</svg>
