<?xml version="1.0" encoding="utf-8"?>
<!-- Generator: Adobe Illustrator 19.2.1, SVG Export Plug-In . SVG Version: 6.00 Build 0)  -->
<!DOCTYPE svg PUBLIC "-//W3C//DTD SVG 1.1//EN" "http://www.w3.org/Graphics/SVG/1.1/DTD/svg11.dtd">
<svg version="1.1" id="Layer_1" xmlns="http://www.w3.org/2000/svg" xmlns:xlink="http://www.w3.org/1999/xlink" x="0px" y="0px"
	 width="48px" height="48px" viewBox="0 0 48 48" enable-background="new 0 0 48 48" xml:space="preserve">
<path fill="#222221" d="M21,24c0,0.552-0.448,1-1,1H9.051C9.558,30.598,14.272,35,20,35s10.442-4.402,10.949-10h11.637l-4.293,4.293
	c-0.391,0.391-0.391,1.023,0,1.414C38.488,30.902,38.744,31,39,31s0.512-0.098,0.707-0.293l6-6c0.391-0.391,0.391-1.023,0-1.414
	l-6-6c-0.391-0.391-1.023-0.391-1.414,0s-0.391,1.023,0,1.414L42.586,23H30.949C30.442,17.402,25.728,13,20,13
	S9.558,17.402,9.051,23H20C20.552,23,21,23.448,21,24z"/>
<path fill="#222221" d="M9.051,25C9.021,24.67,9,24.338,9,24s0.021-0.67,0.051-1H1c-0.552,0-1,0.448-1,1s0.448,1,1,1H9.051z"/>
</svg>
