<?xml version="1.0" encoding="utf-8"?>
<!-- Generator: Adobe Illustrator 19.2.1, SVG Export Plug-In . SVG Version: 6.00 Build 0)  -->
<!DOCTYPE svg PUBLIC "-//W3C//DTD SVG 1.1//EN" "http://www.w3.org/Graphics/SVG/1.1/DTD/svg11.dtd">
<svg version="1.1" id="Layer_1" xmlns="http://www.w3.org/2000/svg" xmlns:xlink="http://www.w3.org/1999/xlink" x="0px" y="0px"
	 width="48px" height="48px" viewBox="0 0 48 48" enable-background="new 0 0 48 48" xml:space="preserve">
<path d="M24,19c0.553,0,1-0.447,1-1v-6h6c0.382,0,0.73-0.218,0.898-0.561s0.125-0.752-0.109-1.054l-7-9
	c-0.379-0.486-1.199-0.486-1.578,0l-7,9c-0.234,0.302-0.277,0.711-0.109,1.054S16.618,12,17,12h6v6C23,18.553,23.447,19,24,19z"/>
<path d="M37.614,16.211c-0.303-0.235-0.71-0.277-1.054-0.109C36.218,16.27,36,16.618,36,17v6h-6c-0.553,0-1,0.447-1,1s0.447,1,1,1h6
	v6c0,0.382,0.218,0.73,0.561,0.898C36.7,31.967,36.851,32,37,32c0.218,0,0.435-0.071,0.614-0.211l9-7C46.857,24.6,47,24.309,47,24
	s-0.143-0.6-0.386-0.789L37.614,16.211z"/>
<path d="M31,36h-6v-6c0-0.553-0.447-1-1-1s-1,0.447-1,1v6h-6c-0.382,0-0.73,0.218-0.898,0.561s-0.125,0.752,0.109,1.054l7,9
	C23.4,46.857,23.691,47,24,47s0.6-0.143,0.789-0.386l7-9c0.234-0.302,0.277-0.711,0.109-1.054S31.382,36,31,36z"/>
<path d="M19,24c0-0.553-0.447-1-1-1h-6v-6c0-0.382-0.218-0.73-0.561-0.898s-0.751-0.126-1.054,0.109l-9,7C1.143,23.4,1,23.691,1,24
	s0.143,0.6,0.386,0.789l9,7C10.565,31.929,10.782,32,11,32c0.149,0,0.3-0.033,0.439-0.102C11.782,31.73,12,31.382,12,31v-6h6
	C18.553,25,19,24.553,19,24z"/>
</svg>
