<?xml version="1.0" encoding="utf-8"?>
<!-- Generator: Adobe Illustrator 19.2.1, SVG Export Plug-In . SVG Version: 6.00 Build 0)  -->
<!DOCTYPE svg PUBLIC "-//W3C//DTD SVG 1.1//EN" "http://www.w3.org/Graphics/SVG/1.1/DTD/svg11.dtd">
<svg version="1.1" id="Layer_1" xmlns="http://www.w3.org/2000/svg" xmlns:xlink="http://www.w3.org/1999/xlink" x="0px" y="0px"
	 width="48px" height="48px" viewBox="0 0 48 48" enable-background="new 0 0 48 48" xml:space="preserve">
<path d="M46,11h-8.001c-0.553,0-1,0.447-1,1s0.447,1,1,1H45v16H3V13h7c0.553,0,1-0.447,1-1s-0.447-1-1-1H2c-0.552,0-1,0.448-1,1v33
	c0,1.105,0.895,2,2,2h42c1.105,0,2-0.895,2-2V12C47,11.448,46.552,11,46,11z M28,39h-8c-0.553,0-1-0.447-1-1s0.447-1,1-1h8
	c0.553,0,1,0.447,1,1S28.553,39,28,39z"/>
<path d="M24,25c0.552,0,1-0.448,1-1V12h6c0.382,0,0.73-0.218,0.898-0.561C31.967,11.3,32,11.149,32,11
	c0-0.218-0.071-0.435-0.211-0.614l-7-9C24.6,1.143,24.309,1,24,1s-0.6,0.143-0.789,0.386l-7,9c-0.235,0.303-0.276,0.71-0.109,1.054
	C16.269,11.782,16.618,12,17,12h6v12C23,24.552,23.448,25,24,25z"/>
</svg>
