<?xml version="1.0" encoding="utf-8"?>
<!-- Generator: Adobe Illustrator 19.2.1, SVG Export Plug-In . SVG Version: 6.00 Build 0)  -->
<!DOCTYPE svg PUBLIC "-//W3C//DTD SVG 1.1//EN" "http://www.w3.org/Graphics/SVG/1.1/DTD/svg11.dtd">
<svg version="1.1" id="Layer_1" xmlns="http://www.w3.org/2000/svg" xmlns:xlink="http://www.w3.org/1999/xlink" x="0px" y="0px"
	 width="48px" height="48px" viewBox="0 0 48 48" enable-background="new 0 0 48 48" xml:space="preserve">
<path fill="#222221" d="M10,25v6c0,0.382,0.218,0.73,0.561,0.898C10.7,31.967,10.851,32,11,32c0.218,0,0.435-0.071,0.614-0.211l9-7
	C20.857,24.6,21,24.309,21,24c0-0.309-0.143-0.6-0.386-0.789l-9-7c-0.303-0.235-0.71-0.277-1.054-0.109
	C10.218,16.27,10,16.618,10,17v6H1c-0.553,0-1,0.448-1,1s0.447,1,1,1H10z"/>
<path fill="#222221" d="M47,23h-9v-6c0-0.382-0.218-0.73-0.56-0.898c-0.344-0.168-0.751-0.126-1.054,0.109l-9,7
	C27.143,23.4,27,23.691,27,24c0,0.309,0.143,0.6,0.386,0.789l9,7C36.565,31.929,36.782,32,37,32c0.149,0,0.3-0.033,0.439-0.102
	C37.782,31.73,38,31.382,38,31v-6h9c0.553,0,1-0.448,1-1S47.553,23,47,23z"/>
</svg>
