<?xml version="1.0" encoding="utf-8"?>
<!-- Generator: Adobe Illustrator 19.2.1, SVG Export Plug-In . SVG Version: 6.00 Build 0)  -->
<!DOCTYPE svg PUBLIC "-//W3C//DTD SVG 1.1//EN" "http://www.w3.org/Graphics/SVG/1.1/DTD/svg11.dtd">
<svg version="1.1" id="Layer_1" xmlns="http://www.w3.org/2000/svg" xmlns:xlink="http://www.w3.org/1999/xlink" x="0px" y="0px"
	 width="48px" height="48px" viewBox="0 0 48 48" enable-background="new 0 0 48 48" xml:space="preserve">
<path d="M15.464,1.114c-0.328-0.173-0.727-0.147-1.033,0.063l-13,9C1.161,10.365,1,10.672,1,11s0.161,0.635,0.431,0.822l13,9
	C14.601,20.94,14.8,21,15,21c0.159,0,0.318-0.038,0.464-0.114C15.793,20.713,16,20.372,16,20v-8h20v20h-8
	c-0.372,0-0.713,0.207-0.886,0.536c-0.173,0.329-0.148,0.727,0.063,1.033l9,13C36.365,46.839,36.672,47,37,47
	s0.635-0.161,0.822-0.431l9-13c0.211-0.306,0.236-0.704,0.063-1.033C46.713,32.207,46.372,32,46,32h-8V11c0-0.552-0.448-1-1-1H16V2
	C16,1.628,15.793,1.287,15.464,1.114z"/>
</svg>
