<?xml version="1.0" encoding="utf-8"?>
<!-- Generator: Adobe Illustrator 19.2.1, SVG Export Plug-In . SVG Version: 6.00 Build 0)  -->
<!DOCTYPE svg PUBLIC "-//W3C//DTD SVG 1.1//EN" "http://www.w3.org/Graphics/SVG/1.1/DTD/svg11.dtd">
<svg version="1.1" id="Layer_1" xmlns="http://www.w3.org/2000/svg" xmlns:xlink="http://www.w3.org/1999/xlink" x="0px" y="0px"
	 width="48px" height="48px" viewBox="0 0 48 48" enable-background="new 0 0 48 48" xml:space="preserve">
<path d="M45,1H3C1.895,1,1,1.895,1,3v42c0,1.105,0.895,2,2,2h42c1.105,0,2-0.895,2-2V3C47,1.895,46.105,1,45,1z M32.02,23
	c-0.005,0-0.013,0-0.02,0h-7v14c0,0.552-0.447,1-1,1s-1-0.448-1-1V23h-7c-0.376,0-0.721-0.211-0.891-0.546
	c-0.171-0.335-0.14-0.738,0.082-1.042l8-11c0.377-0.517,1.24-0.517,1.617,0l7.901,10.865c0.191,0.182,0.31,0.439,0.31,0.724
	C33.02,22.552,32.572,23,32.02,23z"/>
</svg>
