<?xml version="1.0" encoding="utf-8"?>
<!-- Generator: Adobe Illustrator 19.2.1, SVG Export Plug-In . SVG Version: 6.00 Build 0)  -->
<!DOCTYPE svg PUBLIC "-//W3C//DTD SVG 1.1//EN" "http://www.w3.org/Graphics/SVG/1.1/DTD/svg11.dtd">
<svg version="1.1" id="Layer_1" xmlns="http://www.w3.org/2000/svg" xmlns:xlink="http://www.w3.org/1999/xlink" x="0px" y="0px"
	 width="48px" height="48px" viewBox="0 0 48 48" enable-background="new 0 0 48 48" xml:space="preserve">
<path fill="#222221" d="M2,32c0.553,0,1-0.448,1-1V18C3,9.729,9.729,3,18,3s15,6.729,15,15v13h-9c-0.375,0-0.718,0.209-0.89,0.542
	C23.036,31.687,23,31.844,23,32c0,0.205,0.062,0.408,0.187,0.581l10,14C33.374,46.844,33.677,47,34,47s0.626-0.156,0.813-0.419
	l10-14c0.22-0.305,0.246-0.705,0.076-1.039C44.718,31.209,44.375,31,44,31h-9V21l0-0.001V18c0-9.374-7.626-17-17-17S1,8.626,1,18v13
	C1,31.552,1.447,32,2,32z"/>
</svg>
