<?xml version="1.0" encoding="utf-8"?>
<!-- Generator: Adobe Illustrator 19.2.1, SVG Export Plug-In . SVG Version: 6.00 Build 0)  -->
<!DOCTYPE svg PUBLIC "-//W3C//DTD SVG 1.1//EN" "http://www.w3.org/Graphics/SVG/1.1/DTD/svg11.dtd">
<svg version="1.1" id="Layer_1" xmlns="http://www.w3.org/2000/svg" xmlns:xlink="http://www.w3.org/1999/xlink" x="0px" y="0px"
	 width="48px" height="48px" viewBox="0 0 48 48" enable-background="new 0 0 48 48" xml:space="preserve">
<path d="M1.431,11.822l13,9C14.601,20.94,14.8,21,15,21c0.159,0,0.318-0.038,0.464-0.114C15.793,20.713,16,20.372,16,20v-8h13
	c3.86,0,7,3.141,7,7v13h-8c-0.372,0-0.713,0.206-0.886,0.536c-0.173,0.329-0.148,0.728,0.063,1.033l9,13
	C36.365,46.839,36.672,47,37,47s0.635-0.161,0.822-0.431l9-13c0.211-0.306,0.236-0.704,0.063-1.033C46.713,32.206,46.372,32,46,32
	h-8V19c0-4.963-4.038-9-9-9H16V2c0-0.372-0.207-0.713-0.536-0.886c-0.328-0.172-0.727-0.148-1.033,0.063l-13,9
	C1.161,10.364,1,10.672,1,11S1.161,11.636,1.431,11.822z"/>
</svg>
