<?xml version="1.0" encoding="utf-8"?>
<!-- Generator: Adobe Illustrator 19.2.1, SVG Export Plug-In . SVG Version: 6.00 Build 0)  -->
<!DOCTYPE svg PUBLIC "-//W3C//DTD SVG 1.1//EN" "http://www.w3.org/Graphics/SVG/1.1/DTD/svg11.dtd">
<svg version="1.1" id="Layer_1" xmlns="http://www.w3.org/2000/svg" xmlns:xlink="http://www.w3.org/1999/xlink" x="0px" y="0px"
	 width="48px" height="48px" viewBox="0 0 48 48" enable-background="new 0 0 48 48" xml:space="preserve">
<path d="M46.588,23.191l-22-16c-0.35-0.255-0.826-0.255-1.176,0l-22,16C1.153,23.379,1,23.68,1,24v16
	c0,0.376,0.211,0.72,0.546,0.891c0.336,0.17,0.738,0.14,1.042-0.083L24,25.236l21.412,15.572C45.586,40.936,45.793,41,46,41
	c0.155,0,0.311-0.036,0.454-0.109C46.789,40.72,47,40.376,47,40V24C47,23.68,46.847,23.379,46.588,23.191z"/>
</svg>
