<?xml version="1.0" encoding="utf-8"?>
<!-- Generator: Adobe Illustrator 19.2.1, SVG Export Plug-In . SVG Version: 6.00 Build 0)  -->
<!DOCTYPE svg PUBLIC "-//W3C//DTD SVG 1.1//EN" "http://www.w3.org/Graphics/SVG/1.1/DTD/svg11.dtd">
<svg version="1.1" id="Layer_1" xmlns="http://www.w3.org/2000/svg" xmlns:xlink="http://www.w3.org/1999/xlink" x="0px" y="0px"
	 width="48px" height="48px" viewBox="0 0 48 48" enable-background="new 0 0 48 48" xml:space="preserve">
<path d="M46.581,11.186l-14-10c-0.305-0.216-0.706-0.246-1.039-0.075C31.209,1.282,31,1.625,31,2v9H2c-0.552,0-1,0.448-1,1v34
	c0,0.552,0.448,1,1,1s1-0.448,1-1V13h28v9c0,0.375,0.209,0.718,0.542,0.889C31.687,22.963,31.844,23,32,23
	c0.205,0,0.408-0.063,0.581-0.186l14-10C46.844,12.626,47,12.323,47,12S46.844,11.374,46.581,11.186z"/>
</svg>
