<?xml version="1.0" encoding="utf-8"?>
<!-- Generator: Adobe Illustrator 19.2.1, SVG Export Plug-In . SVG Version: 6.00 Build 0)  -->
<!DOCTYPE svg PUBLIC "-//W3C//DTD SVG 1.1//EN" "http://www.w3.org/Graphics/SVG/1.1/DTD/svg11.dtd">
<svg version="1.1" id="Layer_1" xmlns="http://www.w3.org/2000/svg" xmlns:xlink="http://www.w3.org/1999/xlink" x="0px" y="0px"
	 width="48px" height="48px" viewBox="0 0 48 48" enable-background="new 0 0 48 48" xml:space="preserve">
<path d="M38.863,15.041C37.89,7.098,31.089,1,23,1C14.7,1,7.843,7.318,7.088,15.511C3.469,16.746,1,20.139,1,24c0,4.963,4.038,9,9,9
	h13V20.414l-4.293,4.293c-0.391,0.391-1.023,0.391-1.414,0s-0.391-1.023,0-1.414l5.999-5.999c0.092-0.093,0.203-0.166,0.326-0.217
	c0.244-0.101,0.52-0.101,0.764,0c0.123,0.051,0.233,0.124,0.326,0.217l5.999,5.999c0.391,0.391,0.391,1.023,0,1.414
	C30.512,24.902,30.256,25,30,25s-0.512-0.098-0.707-0.293L25,20.414V33h13c4.962,0,9-4.037,9-9
	C47,19.328,43.422,15.477,38.863,15.041z"/>
<path d="M23,46c0,0.553,0.448,1,1,1s1-0.447,1-1V33h-2V46z"/>
</svg>
