<?xml version="1.0" encoding="utf-8"?>
<!-- Generator: Adobe Illustrator 19.2.1, SVG Export Plug-In . SVG Version: 6.00 Build 0)  -->
<!DOCTYPE svg PUBLIC "-//W3C//DTD SVG 1.1//EN" "http://www.w3.org/Graphics/SVG/1.1/DTD/svg11.dtd">
<svg version="1.1" id="Layer_1" xmlns="http://www.w3.org/2000/svg" xmlns:xlink="http://www.w3.org/1999/xlink" x="0px" y="0px"
	 width="48px" height="48px" viewBox="0 0 48 48" enable-background="new 0 0 48 48" xml:space="preserve">
<path d="M24,1C11.318,1,1,11.318,1,24s10.318,23,23,23s23-10.318,23-23S36.682,1,24,1z M36,25H16.414l6.293,6.293
	c0.391,0.391,0.391,1.023,0,1.414C22.512,32.902,22.256,33,22,33s-0.512-0.098-0.707-0.293l-8-8
	c-0.092-0.092-0.165-0.203-0.216-0.325c-0.101-0.245-0.101-0.52,0-0.764c0.051-0.122,0.124-0.233,0.216-0.325l8-8
	c0.391-0.391,1.023-0.391,1.414,0s0.391,1.023,0,1.414L16.414,23H36c0.552,0,1,0.448,1,1S36.552,25,36,25z"/>
</svg>
