<?xml version="1.0" encoding="utf-8"?>
<!-- Generator: Adobe Illustrator 19.2.1, SVG Export Plug-In . SVG Version: 6.00 Build 0)  -->
<!DOCTYPE svg PUBLIC "-//W3C//DTD SVG 1.1//EN" "http://www.w3.org/Graphics/SVG/1.1/DTD/svg11.dtd">
<svg version="1.1" id="Layer_1" xmlns="http://www.w3.org/2000/svg" xmlns:xlink="http://www.w3.org/1999/xlink" x="0px" y="0px"
	 width="48px" height="48px" viewBox="0 0 48 48" enable-background="new 0 0 48 48" xml:space="preserve">
<path d="M24,1C11.317,1,1,11.318,1,24s10.317,23,23,23s23-10.318,23-23S36.683,1,24,1z M37,25H23v7c0,0.376-0.211,0.72-0.546,0.891
	C22.311,32.964,22.155,33,22,33c-0.207,0-0.414-0.064-0.588-0.191l-11-8C10.153,24.621,10,24.32,10,24s0.153-0.621,0.412-0.809l11-8
	c0.305-0.222,0.707-0.252,1.042-0.083C22.789,15.28,23,15.624,23,16v7h14c0.553,0,1,0.448,1,1S37.553,25,37,25z"/>
</svg>
