<?xml version="1.0" encoding="utf-8"?>
<!-- Generator: Adobe Illustrator 19.2.1, SVG Export Plug-In . SVG Version: 6.00 Build 0)  -->
<!DOCTYPE svg PUBLIC "-//W3C//DTD SVG 1.1//EN" "http://www.w3.org/Graphics/SVG/1.1/DTD/svg11.dtd">
<svg version="1.1" id="Layer_1" xmlns="http://www.w3.org/2000/svg" xmlns:xlink="http://www.w3.org/1999/xlink" x="0px" y="0px"
	 width="48px" height="48px" viewBox="0 0 48 48" enable-background="new 0 0 48 48" xml:space="preserve">
<path fill="#222221" d="M26,18c-4.381,0-8.656,0.935-12.495,2.667l-4.666-7.211c-0.205-0.316-0.57-0.492-0.947-0.451
	c-0.375,0.041-0.696,0.29-0.829,0.643l-6,16c-0.111,0.297-0.075,0.63,0.098,0.896c0.173,0.266,0.462,0.434,0.78,0.453l17,1
	C18.961,32,18.98,32,19,32c0.354,0,0.684-0.188,0.864-0.497c0.19-0.326,0.181-0.73-0.024-1.047l-5.233-8.088
	C18.117,20.832,22.008,20,26,20c7.362,0,14.395,2.809,19.293,7.707c0.391,0.391,1.023,0.391,1.414,0s0.391-1.023,0-1.414
	C41.437,21.022,33.889,18,26,18z"/>
</svg>
