<?xml version="1.0" encoding="utf-8"?>
<!-- Generator: Adobe Illustrator 19.2.1, SVG Export Plug-In . SVG Version: 6.00 Build 0)  -->
<!DOCTYPE svg PUBLIC "-//W3C//DTD SVG 1.1//EN" "http://www.w3.org/Graphics/SVG/1.1/DTD/svg11.dtd">
<svg version="1.1" id="Layer_1" xmlns="http://www.w3.org/2000/svg" xmlns:xlink="http://www.w3.org/1999/xlink" x="0px" y="0px"
	 width="48px" height="48px" viewBox="0 0 48 48" enable-background="new 0 0 48 48" xml:space="preserve">
<path d="M2.617,29.076C2.243,29.23,2,29.596,2,30v15c0,0.553,0.447,1,1,1h15c0.404,0,0.77-0.243,0.924-0.617
	c0.155-0.374,0.069-0.804-0.217-1.09L11.914,37.5L37.5,11.914l6.793,6.793C44.484,18.898,44.74,19,45,19
	c0.129,0,0.259-0.024,0.383-0.076C45.757,18.77,46,18.404,46,18V3c0-0.553-0.447-1-1-1H30c-0.404,0-0.77,0.243-0.924,0.617
	c-0.155,0.374-0.069,0.804,0.217,1.09l6.793,6.793L10.5,36.086l-6.793-6.793C3.421,29.008,2.992,28.921,2.617,29.076z"/>
</svg>
