<?xml version="1.0" encoding="utf-8"?>
<!-- Generator: Adobe Illustrator 19.2.1, SVG Export Plug-In . SVG Version: 6.00 Build 0)  -->
<!DOCTYPE svg PUBLIC "-//W3C//DTD SVG 1.1//EN" "http://www.w3.org/Graphics/SVG/1.1/DTD/svg11.dtd">
<svg version="1.1" id="Layer_1" xmlns="http://www.w3.org/2000/svg" xmlns:xlink="http://www.w3.org/1999/xlink" x="0px" y="0px"
	 width="48px" height="48px" viewBox="0 0 48 48" enable-background="new 0 0 48 48" xml:space="preserve">
<path fill="#222221" d="M30,17.022V8c0-0.404-0.244-0.77-0.617-0.924c-0.375-0.156-0.804-0.069-1.09,0.217l-16,16
	c-0.391,0.391-0.391,1.023,0,1.414l16,16C28.484,40.898,28.74,41,29,41c0.129,0,0.259-0.024,0.383-0.076
	C29.756,40.77,30,40.404,30,40v-8.964c8.834,0.635,15.132,9.446,15.197,9.538c0.246,0.351,0.687,0.503,1.098,0.386
	c0.411-0.12,0.7-0.487,0.719-0.915c0.021-0.47,0.448-11.586-5.922-18.252C38.258,18.828,34.53,17.226,30,17.022z"/>
<path fill="#222221" d="M18.011,41c0.129,0,0.259-0.024,0.383-0.076c0.374-0.155,0.617-0.52,0.617-0.924L19,34L9,24l10.011-10V8
	c0-0.404-0.244-0.769-0.617-0.924c-0.373-0.156-0.804-0.069-1.09,0.217l-16.011,16C1.105,23.48,1,23.734,1,24
	s0.105,0.52,0.293,0.707l16.011,16C17.496,40.898,17.751,41,18.011,41z"/>
</svg>
