<?xml version="1.0" encoding="utf-8"?>
<!-- Generator: Adobe Illustrator 19.2.1, SVG Export Plug-In . SVG Version: 6.00 Build 0)  -->
<!DOCTYPE svg PUBLIC "-//W3C//DTD SVG 1.1//EN" "http://www.w3.org/Graphics/SVG/1.1/DTD/svg11.dtd">
<svg version="1.1" id="Layer_1" xmlns="http://www.w3.org/2000/svg" xmlns:xlink="http://www.w3.org/1999/xlink" x="0px" y="0px"
	 width="48px" height="48px" viewBox="0 0 48 48" enable-background="new 0 0 48 48" xml:space="preserve">
<path d="M2,15h5.438c1.98,0,3.877,0.845,5.203,2.317l3.323,3.693l1.345-1.495l-3.182-3.536C12.422,14.086,9.984,13,7.438,13H2
	c-0.553,0-1,0.447-1,1S1.447,15,2,15z"/>
<path d="M37.614,26.211c-0.303-0.235-0.71-0.277-1.054-0.109C36.218,26.27,36,26.618,36,27v6h-3.438
	c-1.98,0-3.877-0.845-5.203-2.317l-3.323-3.693l-1.345,1.495l3.182,3.536C27.578,33.914,30.016,35,32.562,35H36v6
	c0,0.382,0.218,0.73,0.561,0.898C36.7,41.967,36.851,42,37,42c0.218,0,0.435-0.071,0.614-0.211l9-7C46.857,34.6,47,34.309,47,34
	s-0.143-0.6-0.386-0.789L37.614,26.211z"/>
<path d="M37.614,6.211c-0.303-0.235-0.71-0.276-1.054-0.109C36.218,6.27,36,6.618,36,7v6h-3.438c-2.547,0-4.984,1.086-6.689,2.979
	L12.641,30.683C11.314,32.155,9.418,33,7.438,33H2c-0.553,0-1,0.447-1,1s0.447,1,1,1h5.438c2.547,0,4.984-1.086,6.689-2.979
	l13.232-14.703C28.686,15.845,30.582,15,32.562,15H36v6c0,0.382,0.218,0.73,0.561,0.898C36.7,21.967,36.851,22,37,22
	c0.218,0,0.435-0.071,0.614-0.211l9-7C46.857,14.6,47,14.309,47,14s-0.143-0.6-0.386-0.789L37.614,6.211z"/>
</svg>
