<?xml version="1.0" encoding="utf-8"?>
<!-- Generator: Adobe Illustrator 19.2.1, SVG Export Plug-In . SVG Version: 6.00 Build 0)  -->
<!DOCTYPE svg PUBLIC "-//W3C//DTD SVG 1.1//EN" "http://www.w3.org/Graphics/SVG/1.1/DTD/svg11.dtd">
<svg version="1.1" id="Layer_1" xmlns="http://www.w3.org/2000/svg" xmlns:xlink="http://www.w3.org/1999/xlink" x="0px" y="0px"
	 width="48px" height="48px" viewBox="0 0 48 48" enable-background="new 0 0 48 48" xml:space="preserve">
<path d="M46,5H2C1.447,5,1,5.448,1,6s0.447,1,1,1h44c0.553,0,1-0.448,1-1S46.553,5,46,5z"/>
<path d="M46.892,42.452c0.17-0.337,0.136-0.74-0.085-1.044l-22-30C24.618,11.151,24.319,11,24,11s-0.618,0.151-0.807,0.408l-22,30
	C1.066,41.583,1,41.791,1,42c0,0.154,0.036,0.31,0.108,0.452C1.279,42.788,1.623,43,2,43h44C46.377,43,46.722,42.788,46.892,42.452z
	"/>
</svg>
