<?xml version="1.0" encoding="utf-8"?>
<!-- Generator: Adobe Illustrator 19.2.1, SVG Export Plug-In . SVG Version: 6.00 Build 0)  -->
<!DOCTYPE svg PUBLIC "-//W3C//DTD SVG 1.1//EN" "http://www.w3.org/Graphics/SVG/1.1/DTD/svg11.dtd">
<svg version="1.1" id="Layer_1" xmlns="http://www.w3.org/2000/svg" xmlns:xlink="http://www.w3.org/1999/xlink" x="0px" y="0px"
	 width="48px" height="48px" viewBox="0 0 48 48" enable-background="new 0 0 48 48" xml:space="preserve">
<path d="M45,1H3C1.895,1,1,1.895,1,3v42c0,1.105,0.895,2,2,2h42c1.105,0,2-0.895,2-2V3C47,1.895,46.105,1,45,1z M32.707,26.707
	l-7.999,7.999c-0.092,0.093-0.203,0.166-0.326,0.217C24.26,34.973,24.13,35,24,35s-0.26-0.027-0.382-0.077
	c-0.123-0.051-0.233-0.124-0.326-0.217l-7.999-7.999c-0.391-0.391-0.391-1.023,0-1.414s1.023-0.391,1.414,0L23,31.586V12
	c0-0.552,0.447-1,1-1s1,0.448,1,1v19.586l6.293-6.293c0.391-0.391,1.023-0.391,1.414,0S33.098,26.316,32.707,26.707z"/>
</svg>
