<?xml version="1.0" encoding="utf-8"?>
<!-- Generator: Adobe Illustrator 19.2.1, SVG Export Plug-In . SVG Version: 6.00 Build 0)  -->
<!DOCTYPE svg PUBLIC "-//W3C//DTD SVG 1.1//EN" "http://www.w3.org/Graphics/SVG/1.1/DTD/svg11.dtd">
<svg version="1.1" id="Layer_1" xmlns="http://www.w3.org/2000/svg" xmlns:xlink="http://www.w3.org/1999/xlink" x="0px" y="0px"
	 width="48px" height="48px" viewBox="0 0 48 48" enable-background="new 0 0 48 48" xml:space="preserve">
<path d="M7,46V2c0-0.553-0.448-1-1-1S5,1.447,5,2v44c0,0.553,0.448,1,1,1S7,46.553,7,46z"/>
<path d="M12.592,1.193c-0.304-0.222-0.707-0.255-1.044-0.085C11.212,1.278,11,1.623,11,2v44c0,0.377,0.212,0.722,0.548,0.892
	C11.69,46.964,11.846,47,12,47c0.209,0,0.417-0.065,0.592-0.193l30-22C42.849,24.618,43,24.318,43,24s-0.151-0.618-0.408-0.807
	L12.592,1.193z"/>
</svg>
