<?xml version="1.0" encoding="utf-8"?>
<!-- Generator: Adobe Illustrator 19.2.1, SVG Export Plug-In . SVG Version: 6.00 Build 0)  -->
<!DOCTYPE svg PUBLIC "-//W3C//DTD SVG 1.1//EN" "http://www.w3.org/Graphics/SVG/1.1/DTD/svg11.dtd">
<svg version="1.1" id="Layer_1" xmlns="http://www.w3.org/2000/svg" xmlns:xlink="http://www.w3.org/1999/xlink" x="0px" y="0px"
	 width="48px" height="48px" viewBox="0 0 48 48" enable-background="new 0 0 48 48" xml:space="preserve">
<path d="M43,46V2c0-0.553-0.448-1-1-1s-1,0.447-1,1v44c0,0.553,0.448,1,1,1S43,46.553,43,46z"/>
<path d="M36,47c0.154,0,0.31-0.036,0.452-0.108C36.788,46.721,37,46.377,37,46V2c0-0.377-0.212-0.722-0.548-0.892
	c-0.337-0.17-0.74-0.136-1.044,0.085l-30,22C5.151,23.382,5,23.681,5,24s0.151,0.618,0.408,0.807l30,22
	C35.583,46.934,35.791,47,36,47z"/>
</svg>
