<?xml version="1.0" encoding="utf-8"?>
<!-- Generator: Adobe Illustrator 19.2.1, SVG Export Plug-In . SVG Version: 6.00 Build 0)  -->
<!DOCTYPE svg PUBLIC "-//W3C//DTD SVG 1.1//EN" "http://www.w3.org/Graphics/SVG/1.1/DTD/svg11.dtd">
<svg version="1.1" id="Layer_1" xmlns="http://www.w3.org/2000/svg" xmlns:xlink="http://www.w3.org/1999/xlink" x="0px" y="0px"
	 width="48px" height="48px" viewBox="0 0 48 48" enable-background="new 0 0 48 48" xml:space="preserve">
<path d="M19,45c-0.553,0-1,0.447-1,1s0.447,1,1,1h24c0.553,0,1-0.447,1-1V2c0-0.553-0.447-1-1-1H19c-0.553,0-1,0.447-1,1
	s0.447,1,1,1h23v42H19z"/>
<path d="M4,23v2c0,0.552,0.448,1,1,1h17v7c0,0.395,0.232,0.753,0.593,0.914C22.724,33.972,22.862,34,23,34
	c0.242,0,0.481-0.088,0.669-0.257l10-9C33.88,24.554,34,24.284,34,24s-0.12-0.554-0.331-0.743l-10-9
	c-0.294-0.264-0.716-0.331-1.076-0.17C22.232,14.247,22,14.605,22,15v7H5C4.448,22,4,22.448,4,23z"/>
</svg>
