<?xml version="1.0" encoding="utf-8"?>
<!-- Generator: Adobe Illustrator 19.2.1, SVG Export Plug-In . SVG Version: 6.00 Build 0)  -->
<!DOCTYPE svg PUBLIC "-//W3C//DTD SVG 1.1//EN" "http://www.w3.org/Graphics/SVG/1.1/DTD/svg11.dtd">
<svg version="1.1" id="Layer_1" xmlns="http://www.w3.org/2000/svg" xmlns:xlink="http://www.w3.org/1999/xlink" x="0px" y="0px"
	 width="48px" height="48px" viewBox="0 0 48 48" enable-background="new 0 0 48 48" xml:space="preserve">
<path d="M46,1H2C1.447,1,1,1.447,1,2v36c0,0.553,0.447,1,1,1h8c0.553,0,1-0.447,1-1s-0.447-1-1-1H3V3h42v34h-7c-0.553,0-1,0.447-1,1
	s0.447,1,1,1h8c0.553,0,1-0.447,1-1V2C47,1.447,46.553,1,46,1z"/>
<path d="M14,47h20c0.363,0,0.698-0.197,0.875-0.516c0.176-0.317,0.166-0.706-0.027-1.015l-10-16c-0.365-0.584-1.33-0.584-1.695,0
	l-10,16c-0.193,0.309-0.203,0.697-0.027,1.015C13.302,46.803,13.637,47,14,47z"/>
</svg>
