<?xml version="1.0" encoding="utf-8"?>
<!-- Generator: Adobe Illustrator 19.2.1, SVG Export Plug-In . SVG Version: 6.00 Build 0)  -->
<!DOCTYPE svg PUBLIC "-//W3C//DTD SVG 1.1//EN" "http://www.w3.org/Graphics/SVG/1.1/DTD/svg11.dtd">
<svg version="1.1" id="Layer_1" xmlns="http://www.w3.org/2000/svg" xmlns:xlink="http://www.w3.org/1999/xlink" x="0px" y="0px"
	 width="48px" height="48px" viewBox="0 0 48 48" enable-background="new 0 0 48 48" xml:space="preserve">
<path d="M45,1H3C1.895,1,1,1.895,1,3v42c0,1.105,0.895,2,2,2h42c1.105,0,2-0.895,2-2V3C47,1.895,46.105,1,45,1z M37.588,24.809
	l-11,8C26.414,32.936,26.208,33,26,33c-0.155,0-0.311-0.036-0.454-0.109C25.211,32.72,25,32.376,25,32v-7H11c-0.552,0-1-0.448-1-1
	s0.448-1,1-1h14v-7c0-0.376,0.211-0.72,0.546-0.891c0.335-0.169,0.738-0.138,1.042,0.083l11,8C37.847,23.379,38,23.68,38,24
	S37.847,24.621,37.588,24.809z"/>
</svg>
