<?xml version="1.0" encoding="utf-8"?>
<!-- Generator: Adobe Illustrator 19.2.1, SVG Export Plug-In . SVG Version: 6.00 Build 0)  -->
<!DOCTYPE svg PUBLIC "-//W3C//DTD SVG 1.1//EN" "http://www.w3.org/Graphics/SVG/1.1/DTD/svg11.dtd">
<svg version="1.1" id="Layer_1" xmlns="http://www.w3.org/2000/svg" xmlns:xlink="http://www.w3.org/1999/xlink" x="0px" y="0px"
	 width="48px" height="48px" viewBox="0 0 48 48" enable-background="new 0 0 48 48" xml:space="preserve">
<path d="M45,1H3C1.895,1,1,1.895,1,3v42c0,1.105,0.895,2,2,2h42c1.105,0,2-0.895,2-2V3C47,1.895,46.105,1,45,1z M31.555,24.832
	l-12,8C19.387,32.943,19.194,33,19,33c-0.162,0-0.324-0.039-0.472-0.118C18.203,32.708,18,32.369,18,32V16
	c0-0.369,0.203-0.708,0.528-0.882c0.323-0.175,0.719-0.156,1.026,0.05l12,8C31.833,23.354,32,23.666,32,24
	S31.833,24.646,31.555,24.832z"/>
</svg>
