<?xml version="1.0" encoding="utf-8"?>
<!-- Generator: Adobe Illustrator 19.2.1, SVG Export Plug-In . SVG Version: 6.00 Build 0)  -->
<!DOCTYPE svg PUBLIC "-//W3C//DTD SVG 1.1//EN" "http://www.w3.org/Graphics/SVG/1.1/DTD/svg11.dtd">
<svg version="1.1" id="Layer_1" xmlns="http://www.w3.org/2000/svg" xmlns:xlink="http://www.w3.org/1999/xlink" x="0px" y="0px"
	 width="48px" height="48px" viewBox="0 0 48 48" enable-background="new 0 0 48 48" xml:space="preserve">
<path fill="#222221" d="M1.431,14.822l13,9c0.311,0.215,0.71,0.234,1.033,0.063C15.793,23.713,16,23.372,16,23v-8h15
	c0.552,0,1-0.448,1-1s-0.448-1-1-1H16V5c0-0.372-0.207-0.713-0.536-0.886c-0.328-0.173-0.727-0.148-1.033,0.063l-13,9
	C1.161,13.365,1,13.672,1,14S1.161,14.635,1.431,14.822z"/>
<path fill="#222221" d="M46.569,33.178l-13-9c-0.306-0.211-0.705-0.236-1.033-0.063C32.207,24.287,32,24.628,32,25v8H17
	c-0.552,0-1,0.448-1,1s0.448,1,1,1h15v8c0,0.372,0.207,0.713,0.536,0.886c0.323,0.17,0.722,0.151,1.033-0.063l13-9
	C46.839,34.635,47,34.328,47,34S46.839,33.365,46.569,33.178z"/>
</svg>
