<?xml version="1.0" encoding="utf-8"?>
<!-- Generator: Adobe Illustrator 19.2.1, SVG Export Plug-In . SVG Version: 6.00 Build 0)  -->
<!DOCTYPE svg PUBLIC "-//W3C//DTD SVG 1.1//EN" "http://www.w3.org/Graphics/SVG/1.1/DTD/svg11.dtd">
<svg version="1.1" id="Layer_1" xmlns="http://www.w3.org/2000/svg" xmlns:xlink="http://www.w3.org/1999/xlink" x="0px" y="0px"
	 width="48px" height="48px" viewBox="0 0 48 48" enable-background="new 0 0 48 48" xml:space="preserve">
<path d="M32.618,1.214c-0.301-0.236-0.709-0.279-1.056-0.113C31.219,1.268,31,1.617,31,2v7H2c-0.553,0-1,0.447-1,1v6
	c0,0.553,0.447,1,1,1h29v7c0,0.383,0.219,0.732,0.562,0.899C31.702,24.967,31.852,25,32,25c0.22,0,0.438-0.072,0.618-0.214l14-11
	C46.859,13.597,47,13.307,47,13s-0.141-0.597-0.382-0.786L32.618,1.214z"/>
<path d="M46,31H17v-7c0-0.383-0.219-0.732-0.562-0.899c-0.346-0.167-0.754-0.123-1.056,0.113l-14,11C1.141,34.403,1,34.693,1,35
	s0.141,0.597,0.382,0.786l14,11C15.562,46.928,15.78,47,16,47c0.148,0,0.298-0.033,0.438-0.101C16.781,46.732,17,46.383,17,46v-7h29
	c0.553,0,1-0.447,1-1v-6C47,31.447,46.553,31,46,31z"/>
</svg>
