<?xml version="1.0" encoding="utf-8"?>
<!-- Generator: Adobe Illustrator 19.2.1, SVG Export Plug-In . SVG Version: 6.00 Build 0)  -->
<!DOCTYPE svg PUBLIC "-//W3C//DTD SVG 1.1//EN" "http://www.w3.org/Graphics/SVG/1.1/DTD/svg11.dtd">
<svg version="1.1" id="Layer_1" xmlns="http://www.w3.org/2000/svg" xmlns:xlink="http://www.w3.org/1999/xlink" x="0px" y="0px"
	 width="48px" height="48px" viewBox="0 0 48 48" enable-background="new 0 0 48 48" xml:space="preserve">
<path d="M37.614,22.211c-0.303-0.235-0.71-0.276-1.054-0.109C36.218,22.27,36,22.618,36,23v6H10.174l7.593-8.857
	C19.478,18.146,21.968,17,24.6,17H25v6c0,0.382,0.218,0.73,0.561,0.898C25.7,23.967,25.851,24,26,24
	c0.218,0,0.435-0.071,0.614-0.211l9-7C35.857,16.599,36,16.308,36,16s-0.143-0.6-0.386-0.789l-9-7
	c-0.303-0.235-0.71-0.276-1.054-0.109C25.218,8.269,25,8.618,25,9v6h-0.4c-3.216,0-6.261,1.4-8.352,3.841L7.54,29H2
	c-0.553,0-1,0.448-1,1s0.447,1,1,1h6h28v6c0,0.382,0.218,0.73,0.561,0.898C36.7,37.967,36.851,38,37,38
	c0.218,0,0.435-0.071,0.614-0.211l9-7C46.857,30.6,47,30.309,47,30s-0.143-0.6-0.386-0.789L37.614,22.211z"/>
</svg>
