<?xml version="1.0" encoding="utf-8"?>
<!-- Generator: Adobe Illustrator 19.2.1, SVG Export Plug-In . SVG Version: 6.00 Build 0)  -->
<!DOCTYPE svg PUBLIC "-//W3C//DTD SVG 1.1//EN" "http://www.w3.org/Graphics/SVG/1.1/DTD/svg11.dtd">
<svg version="1.1" id="Layer_1" xmlns="http://www.w3.org/2000/svg" xmlns:xlink="http://www.w3.org/1999/xlink" x="0px" y="0px"
	 width="48px" height="48px" viewBox="0 0 48 48" enable-background="new 0 0 48 48" xml:space="preserve">
<path fill="#222221" d="M5.293,45.293c-0.391,0.391-0.391,1.023,0,1.414C5.488,46.902,5.744,47,6,47s0.512-0.098,0.707-0.293l18-18
	C24.895,28.52,25,28.265,25,28V17h9c0.375,0,0.718-0.209,0.89-0.542c0.172-0.334,0.143-0.735-0.076-1.039l-10-14
	C24.626,1.156,24.323,1,24,1s-0.626,0.156-0.813,0.419l-10,14C13.062,15.592,13,15.795,13,16c0,0.156,0.037,0.313,0.11,0.458
	C13.282,16.791,13.625,17,14,17h9v10.586L5.293,45.293z"/>
<path fill="#222221" d="M42,47c0.256,0,0.512-0.098,0.707-0.293c0.391-0.391,0.391-1.023,0-1.414L28.243,30.829l-1.414,1.414
	l14.464,14.464C41.488,46.902,41.744,47,42,47z"/>
</svg>
