<?xml version="1.0" encoding="utf-8"?>
<!-- Generator: Adobe Illustrator 19.2.1, SVG Export Plug-In . SVG Version: 6.00 Build 0)  -->
<!DOCTYPE svg PUBLIC "-//W3C//DTD SVG 1.1//EN" "http://www.w3.org/Graphics/SVG/1.1/DTD/svg11.dtd">
<svg version="1.1" id="Layer_1" xmlns="http://www.w3.org/2000/svg" xmlns:xlink="http://www.w3.org/1999/xlink" x="0px" y="0px"
	 width="48px" height="48px" viewBox="0 0 48 48" enable-background="new 0 0 48 48" xml:space="preserve">
<path d="M2,3v15c0,0.404,0.244,0.77,0.617,0.924C2.741,18.976,2.871,19,3,19c0.26,0,0.516-0.102,0.707-0.293l6.793-6.793
	L36.086,37.5l-6.793,6.793c-0.286,0.286-0.372,0.716-0.217,1.09S29.596,46,30,46h15c0.552,0,1-0.447,1-1V30
	c0-0.404-0.244-0.77-0.617-0.924c-0.375-0.157-0.804-0.07-1.09,0.217L37.5,36.086L11.914,10.5l6.793-6.793
	c0.286-0.286,0.372-0.716,0.217-1.09S18.404,2,18,2H3C2.448,2,2,2.447,2,3z"/>
</svg>
