<?xml version="1.0" encoding="utf-8"?>
<!-- Generator: Adobe Illustrator 19.2.1, SVG Export Plug-In . SVG Version: 6.00 Build 0)  -->
<!DOCTYPE svg PUBLIC "-//W3C//DTD SVG 1.1//EN" "http://www.w3.org/Graphics/SVG/1.1/DTD/svg11.dtd">
<svg version="1.1" id="Layer_1" xmlns="http://www.w3.org/2000/svg" xmlns:xlink="http://www.w3.org/1999/xlink" x="0px" y="0px"
	 width="48px" height="48px" viewBox="0 0 48 48" enable-background="new 0 0 48 48" xml:space="preserve">
<path d="M2,46c0.552,0,1-0.448,1-1V3c0-0.552-0.448-1-1-1S1,2.448,1,3v42C1,45.552,1.448,46,2,46z"/>
<path d="M46,22H25v-9c0-0.383-0.219-0.732-0.563-0.899c-0.343-0.167-0.753-0.124-1.055,0.113l-14,11C9.141,23.403,9,23.693,9,24
	s0.141,0.597,0.382,0.786l14,11C23.562,35.927,23.78,36,24,36c0.149,0,0.298-0.033,0.437-0.101C24.781,35.732,25,35.383,25,35v-9h21
	c0.552,0,1-0.448,1-1v-2C47,22.448,46.552,22,46,22z"/>
</svg>
