<?xml version="1.0" encoding="utf-8"?>
<!-- Generator: Adobe Illustrator 19.2.1, SVG Export Plug-In . SVG Version: 6.00 Build 0)  -->
<!DOCTYPE svg PUBLIC "-//W3C//DTD SVG 1.1//EN" "http://www.w3.org/Graphics/SVG/1.1/DTD/svg11.dtd">
<svg version="1.1" id="Layer_1" xmlns="http://www.w3.org/2000/svg" xmlns:xlink="http://www.w3.org/1999/xlink" x="0px" y="0px"
	 width="48px" height="48px" viewBox="0 0 48 48" enable-background="new 0 0 48 48" xml:space="preserve">
<path fill="#222221" d="M14,32c0.552,0,1-0.448,1-1V16h8c0.372,0,0.713-0.207,0.886-0.536c0.173-0.329,0.148-0.727-0.063-1.033
	l-9-13c-0.373-0.539-1.271-0.539-1.645,0l-9,13c-0.212,0.306-0.236,0.704-0.063,1.033C4.287,15.793,4.628,16,5,16h8v15
	C13,31.552,13.448,32,14,32z"/>
<path fill="#222221" d="M34,16c-0.552,0-1,0.448-1,1v15h-8c-0.372,0-0.713,0.207-0.886,0.536c-0.173,0.329-0.148,0.727,0.063,1.033
	l9,13C33.364,46.839,33.672,47,34,47s0.636-0.161,0.822-0.431l9-13c0.212-0.306,0.236-0.704,0.063-1.033
	C43.713,32.207,43.372,32,43,32h-8V17C35,16.448,34.552,16,34,16z"/>
</svg>
