<?xml version="1.0" encoding="utf-8"?>
<!-- Generator: Adobe Illustrator 19.2.1, SVG Export Plug-In . SVG Version: 6.00 Build 0)  -->
<!DOCTYPE svg PUBLIC "-//W3C//DTD SVG 1.1//EN" "http://www.w3.org/Graphics/SVG/1.1/DTD/svg11.dtd">
<svg version="1.1" id="Layer_1" xmlns="http://www.w3.org/2000/svg" xmlns:xlink="http://www.w3.org/1999/xlink" x="0px" y="0px"
	 width="48px" height="48px" viewBox="0 0 48 48" enable-background="new 0 0 48 48" xml:space="preserve">
<path d="M46.436,4.1c-0.345-0.165-0.755-0.121-1.056,0.116L27,18.766V5c0-0.384-0.219-0.733-0.564-0.9
	c-0.345-0.165-0.755-0.121-1.056,0.116l-24,19C1.14,23.405,1,23.694,1,24s0.14,0.595,0.379,0.784l24,19
	C25.56,43.927,25.779,44,26,44c0.148,0,0.297-0.033,0.436-0.1C26.781,43.733,27,43.384,27,43V29.234l18.379,14.55
	C45.56,43.927,45.779,44,46,44c0.148,0,0.297-0.033,0.436-0.1C46.781,43.733,47,43.384,47,43V5C47,4.616,46.781,4.267,46.436,4.1z"
	/>
</svg>
