<?xml version="1.0" encoding="utf-8"?>
<!-- Generator: Adobe Illustrator 19.2.1, SVG Export Plug-In . SVG Version: 6.00 Build 0)  -->
<!DOCTYPE svg PUBLIC "-//W3C//DTD SVG 1.1//EN" "http://www.w3.org/Graphics/SVG/1.1/DTD/svg11.dtd">
<svg version="1.1" id="Layer_1" xmlns="http://www.w3.org/2000/svg" xmlns:xlink="http://www.w3.org/1999/xlink" x="0px" y="0px"
	 width="48px" height="48px" viewBox="0 0 48 48" enable-background="new 0 0 48 48" xml:space="preserve">
<path d="M46,41H2c-0.553,0-1,0.448-1,1s0.447,1,1,1h44c0.553,0,1-0.448,1-1S46.553,41,46,41z"/>
<path d="M1.108,5.548c-0.17,0.337-0.136,0.74,0.085,1.044l22,30C23.382,36.849,23.681,37,24,37s0.618-0.151,0.807-0.408l22-30
	C46.934,6.417,47,6.209,47,6c0-0.154-0.036-0.31-0.108-0.452C46.721,5.212,46.377,5,46,5H2C1.623,5,1.278,5.212,1.108,5.548z"/>
</svg>
