<?xml version="1.0" encoding="utf-8"?>
<!-- Generator: Adobe Illustrator 19.2.1, SVG Export Plug-In . SVG Version: 6.00 Build 0)  -->
<!DOCTYPE svg PUBLIC "-//W3C//DTD SVG 1.1//EN" "http://www.w3.org/Graphics/SVG/1.1/DTD/svg11.dtd">
<svg version="1.1" id="Layer_1" xmlns="http://www.w3.org/2000/svg" xmlns:xlink="http://www.w3.org/1999/xlink" x="0px" y="0px"
	 width="48px" height="48px" viewBox="0 0 48 48" enable-background="new 0 0 48 48" xml:space="preserve">
<path d="M20,1c-0.552,0-1,0.448-1,1v21h-7v-6c0-0.382-0.218-0.73-0.561-0.898c-0.344-0.167-0.751-0.126-1.054,0.109l-9,7
	C1.143,23.4,1,23.691,1,24s0.143,0.6,0.386,0.789l9,7C10.565,31.929,10.782,32,11,32c0.149,0,0.3-0.033,0.439-0.102
	C11.782,31.73,12,31.382,12,31v-6h7v21c0,0.552,0.448,1,1,1s1-0.448,1-1V2C21,1.448,20.552,1,20,1z"/>
<path d="M37.614,16.211c-0.303-0.235-0.71-0.276-1.054-0.109C36.218,16.27,36,16.618,36,17v6h-7V2c0-0.552-0.448-1-1-1s-1,0.448-1,1
	v44c0,0.552,0.448,1,1,1s1-0.448,1-1V25h7v6c0,0.382,0.218,0.73,0.561,0.898C36.7,31.967,36.851,32,37,32
	c0.218,0,0.435-0.071,0.614-0.211l9-7C46.857,24.6,47,24.309,47,24s-0.143-0.6-0.386-0.789L37.614,16.211z"/>
</svg>
