<?xml version="1.0" encoding="utf-8"?>
<!-- Generator: Adobe Illustrator 19.2.1, SVG Export Plug-In . SVG Version: 6.00 Build 0)  -->
<!DOCTYPE svg PUBLIC "-//W3C//DTD SVG 1.1//EN" "http://www.w3.org/Graphics/SVG/1.1/DTD/svg11.dtd">
<svg version="1.1" id="Layer_1" xmlns="http://www.w3.org/2000/svg" xmlns:xlink="http://www.w3.org/1999/xlink" x="0px" y="0px"
	 width="48px" height="48px" viewBox="0 0 48 48" enable-background="new 0 0 48 48" xml:space="preserve">
<path d="M45,1H3C1.895,1,1,1.895,1,3v42c0,1.105,0.895,2,2,2h42c1.105,0,2-0.895,2-2V3C47,1.895,46.105,1,45,1z M32.832,19.555
	l-8,12C24.646,31.833,24.334,32,24,32s-0.646-0.167-0.832-0.445l-8-12c-0.205-0.307-0.224-0.701-0.05-1.026
	C15.292,18.203,15.631,18,16,18h16c0.369,0,0.708,0.203,0.882,0.528C33.056,18.854,33.037,19.248,32.832,19.555z"/>
</svg>
