<?xml version="1.0" encoding="utf-8"?>
<!-- Generator: Adobe Illustrator 19.2.1, SVG Export Plug-In . SVG Version: 6.00 Build 0)  -->
<!DOCTYPE svg PUBLIC "-//W3C//DTD SVG 1.1//EN" "http://www.w3.org/Graphics/SVG/1.1/DTD/svg11.dtd">
<svg version="1.1" id="Layer_1" xmlns="http://www.w3.org/2000/svg" xmlns:xlink="http://www.w3.org/1999/xlink" x="0px" y="0px"
	 width="48px" height="48px" viewBox="0 0 48 48" enable-background="new 0 0 48 48" xml:space="preserve">
<path d="M23.191,46.588C23.379,46.847,23.68,47,24,47s0.621-0.153,0.809-0.412l16-22c0.221-0.304,0.253-0.707,0.083-1.042
	C40.72,23.211,40.376,23,40,23h-9V2c0-0.552-0.448-1-1-1H18c-0.552,0-1,0.448-1,1v21H8c-0.376,0-0.72,0.211-0.891,0.546
	c-0.171,0.335-0.139,0.738,0.083,1.042L23.191,46.588z"/>
</svg>
