<?xml version="1.0" encoding="utf-8"?>
<!-- Generator: Adobe Illustrator 19.2.1, SVG Export Plug-In . SVG Version: 6.00 Build 0)  -->
<!DOCTYPE svg PUBLIC "-//W3C//DTD SVG 1.1//EN" "http://www.w3.org/Graphics/SVG/1.1/DTD/svg11.dtd">
<svg version="1.1" id="Layer_1" xmlns="http://www.w3.org/2000/svg" xmlns:xlink="http://www.w3.org/1999/xlink" x="0px" y="0px"
	 width="48px" height="48px" viewBox="0 0 48 48" enable-background="new 0 0 48 48" xml:space="preserve">
<path d="M43,46V2c0-0.553-0.448-1-1-1s-1,0.447-1,1v44c0,0.553,0.448,1,1,1S43,46.553,43,46z"/>
<path d="M5.548,1.108C5.212,1.278,5,1.623,5,2v44c0,0.377,0.212,0.722,0.548,0.892C5.69,46.964,5.846,47,6,47
	c0.209,0,0.417-0.065,0.592-0.193l30-22C36.849,24.618,37,24.318,37,24s-0.151-0.618-0.408-0.807l-30-22
	C6.288,0.971,5.885,0.938,5.548,1.108z"/>
</svg>
