<?xml version="1.0" encoding="utf-8"?>
<!-- Generator: Adobe Illustrator 19.2.1, SVG Export Plug-In . SVG Version: 6.00 Build 0)  -->
<!DOCTYPE svg PUBLIC "-//W3C//DTD SVG 1.1//EN" "http://www.w3.org/Graphics/SVG/1.1/DTD/svg11.dtd">
<svg version="1.1" id="Layer_1" xmlns="http://www.w3.org/2000/svg" xmlns:xlink="http://www.w3.org/1999/xlink" x="0px" y="0px"
	 width="48px" height="48px" viewBox="0 0 48 48" enable-background="new 0 0 48 48" xml:space="preserve">
<path d="M1.412,24.809l22,16C23.586,40.936,23.792,41,24,41c0.155,0,0.311-0.036,0.454-0.109C24.789,40.72,25,40.376,25,40v-9h20
	c0.552,0,1-0.448,1-1V18c0-0.552-0.448-1-1-1H25V8c0-0.376-0.211-0.72-0.546-0.891c-0.334-0.17-0.737-0.139-1.042,0.083l-22,16
	C1.153,23.379,1,23.68,1,24S1.153,24.621,1.412,24.809z"/>
</svg>
