<?xml version="1.0" encoding="utf-8"?>
<!-- Generator: Adobe Illustrator 19.2.1, SVG Export Plug-In . SVG Version: 6.00 Build 0)  -->
<!DOCTYPE svg PUBLIC "-//W3C//DTD SVG 1.1//EN" "http://www.w3.org/Graphics/SVG/1.1/DTD/svg11.dtd">
<svg version="1.1" id="Layer_1" xmlns="http://www.w3.org/2000/svg" xmlns:xlink="http://www.w3.org/1999/xlink" x="0px" y="0px"
	 width="64px" height="64px" viewBox="0 0 64 64" enable-background="new 0 0 64 64" xml:space="preserve">
<path fill="#222221" d="M62,53H40c-0.553,0-1,0.447-1,1s0.447,1,1,1h22c0.553,0,1-0.447,1-1S62.553,53,62,53z"/>
<path fill="#222221" d="M62,33.001H40c-0.553,0-1,0.447-1,1s0.447,1,1,1h22c0.553,0,1-0.447,1-1S62.553,33.001,62,33.001z"/>
<path fill="#222221" d="M62,13H40c-0.553,0-1,0.447-1,1s0.447,1,1,1h22c0.553,0,1-0.447,1-1S62.553,13,62,13z"/>
<path fill="#222221" d="M30,53h-8C11.523,53,3,44.476,3,34c0-9.453,6.947-17.294,16-18.739V25c0,0.383,0.219,0.732,0.562,0.899
	c0.347,0.167,0.755,0.123,1.056-0.113l14-11C34.859,14.597,35,14.307,35,14s-0.141-0.597-0.382-0.786l-14-11
	C20.438,2.073,20.22,2,20,2c-0.148,0-0.298,0.033-0.438,0.101C19.219,2.268,19,2.617,19,3v10.239C8.841,14.703,1,23.442,1,34
	c0,11.579,9.421,21,21,21h8c0.553,0,1-0.447,1-1S30.553,53,30,53z"/>
</svg>
