<?xml version="1.0" encoding="utf-8"?>
<!-- Generator: Adobe Illustrator 19.2.1, SVG Export Plug-In . SVG Version: 6.00 Build 0)  -->
<!DOCTYPE svg PUBLIC "-//W3C//DTD SVG 1.1//EN" "http://www.w3.org/Graphics/SVG/1.1/DTD/svg11.dtd">
<svg version="1.1" id="Layer_1" xmlns="http://www.w3.org/2000/svg" xmlns:xlink="http://www.w3.org/1999/xlink" x="0px" y="0px"
	 width="64px" height="64px" viewBox="0 0 64 64" enable-background="new 0 0 64 64" xml:space="preserve">
<path d="M1.434,51.824l16,11C17.604,62.94,17.801,63,18,63c0.16,0,0.319-0.038,0.465-0.115C18.794,62.712,19,62.371,19,62V52h20
	c7.168,0,13-5.832,13-13V19h10c0.372,0,0.712-0.206,0.885-0.534c0.173-0.329,0.149-0.727-0.061-1.032l-11-16
	c-0.373-0.543-1.275-0.543-1.648,0l-11,16c-0.21,0.306-0.234,0.703-0.061,1.032C39.288,18.794,39.628,19,40,19h10v20
	c0,6.065-4.935,11-11,11H19V40c0-0.371-0.206-0.712-0.535-0.885c-0.328-0.173-0.726-0.149-1.032,0.061l-16,11
	C1.162,50.362,1,50.671,1,51S1.162,51.638,1.434,51.824z"/>
</svg>
