<?xml version="1.0" encoding="utf-8"?>
<!-- Generator: Adobe Illustrator 19.2.1, SVG Export Plug-In . SVG Version: 6.00 Build 0)  -->
<!DOCTYPE svg PUBLIC "-//W3C//DTD SVG 1.1//EN" "http://www.w3.org/Graphics/SVG/1.1/DTD/svg11.dtd">
<svg version="1.1" id="Layer_1" xmlns="http://www.w3.org/2000/svg" xmlns:xlink="http://www.w3.org/1999/xlink" x="0px" y="0px"
	 width="64px" height="64px" viewBox="0 0 64 64" enable-background="new 0 0 64 64" xml:space="preserve">
<path d="M2,53h10c0.553,0,1-0.447,1-1s-0.447-1-1-1H3V13h28v9c0,0.388,0.225,0.741,0.576,0.905C31.711,22.969,31.855,23,32,23
	c0.229,0,0.457-0.079,0.641-0.231l12-10C44.868,12.578,45,12.297,45,12s-0.132-0.578-0.359-0.769l-12-10
	c-0.298-0.247-0.715-0.302-1.064-0.137C31.225,1.259,31,1.612,31,2v9H2c-0.553,0-1,0.447-1,1v40C1,52.553,1.447,53,2,53z"/>
<path d="M62,11H52c-0.553,0-1,0.447-1,1s0.447,1,1,1h9v38H33v-9c0-0.388-0.225-0.741-0.576-0.905
	c-0.348-0.164-0.765-0.111-1.064,0.137l-12,10C19.132,51.422,19,51.703,19,52s0.132,0.578,0.359,0.769l12,10
	C31.543,62.921,31.771,63,32,63c0.144,0,0.289-0.031,0.424-0.095C32.775,62.741,33,62.388,33,62v-9h29c0.553,0,1-0.447,1-1V12
	C63,11.447,62.553,11,62,11z"/>
</svg>
