<?xml version="1.0" encoding="utf-8"?>
<!-- Generator: Adobe Illustrator 19.2.1, SVG Export Plug-In . SVG Version: 6.00 Build 0)  -->
<!DOCTYPE svg PUBLIC "-//W3C//DTD SVG 1.1//EN" "http://www.w3.org/Graphics/SVG/1.1/DTD/svg11.dtd">
<svg version="1.1" id="Layer_1" xmlns="http://www.w3.org/2000/svg" xmlns:xlink="http://www.w3.org/1999/xlink" x="0px" y="0px"
	 width="64px" height="64px" viewBox="0 0 64 64" enable-background="new 0 0 64 64" xml:space="preserve">
<path d="M32,1C14.907,1,1,14.906,1,32s13.907,31,31,31s31-13.906,31-31S49.093,1,32,1z M46.819,24.573l-14,20
	C32.632,44.841,32.326,45,32,45s-0.632-0.159-0.819-0.427l-14-20c-0.213-0.306-0.239-0.705-0.068-1.035
	C17.285,23.207,17.627,23,18,23h28c0.373,0,0.715,0.207,0.887,0.538C46.962,23.684,47,23.842,47,24
	C47,24.201,46.939,24.402,46.819,24.573z"/>
</svg>
