<?xml version="1.0" encoding="utf-8"?>
<!-- Generator: Adobe Illustrator 19.2.1, SVG Export Plug-In . SVG Version: 6.00 Build 0)  -->
<!DOCTYPE svg PUBLIC "-//W3C//DTD SVG 1.1//EN" "http://www.w3.org/Graphics/SVG/1.1/DTD/svg11.dtd">
<svg version="1.1" id="Layer_1" xmlns="http://www.w3.org/2000/svg" xmlns:xlink="http://www.w3.org/1999/xlink" x="0px" y="0px"
	 width="64px" height="64px" viewBox="0 0 64 64" enable-background="new 0 0 64 64" xml:space="preserve">
<path d="M32,2c-0.553,0-1,0.447-1,1v19h-8c-0.387,0-0.738,0.223-0.903,0.571c-0.166,0.35-0.115,0.763,0.129,1.062l9,11
	C31.416,34.865,31.7,35,32,35s0.584-0.135,0.774-0.367l9-11c0.244-0.299,0.295-0.712,0.129-1.062C41.738,22.223,41.387,22,41,22h-8
	V3C33,2.447,32.553,2,32,2z"/>
<path d="M62.909,39.584L52.82,15.173C52.496,14.458,51.784,14,51,14h-9v4h7.712l8.637,21H5.652l8.637-21H22v-4h-9
	c-0.784,0-1.496,0.458-1.82,1.173L1.091,39.584l0.003,0.003C1.036,39.714,1,39.852,1,40v19c0,1.657,1.343,3,3,3h56
	c1.657,0,3-1.343,3-3V40c0-0.148-0.036-0.286-0.094-0.413L62.909,39.584z M54,52H42c-0.552,0-1-0.447-1-1s0.448-1,1-1h12
	c0.552,0,1,0.447,1,1S54.552,52,54,52z"/>
</svg>
