<?xml version="1.0" encoding="utf-8"?>
<!-- Generator: Adobe Illustrator 19.2.1, SVG Export Plug-In . SVG Version: 6.00 Build 0)  -->
<!DOCTYPE svg PUBLIC "-//W3C//DTD SVG 1.1//EN" "http://www.w3.org/Graphics/SVG/1.1/DTD/svg11.dtd">
<svg version="1.1" id="Layer_1" xmlns="http://www.w3.org/2000/svg" xmlns:xlink="http://www.w3.org/1999/xlink" x="0px" y="0px"
	 width="64px" height="64px" viewBox="0 0 64 64" enable-background="new 0 0 64 64" xml:space="preserve">
<path d="M62,61H2c-0.552,0-1,0.448-1,1s0.448,1,1,1h60c0.552,0,1-0.448,1-1S62.552,61,62,61z"/>
<path d="M33,1h-2c-0.552,0-1,0.448-1,1v29H18c-0.373,0-0.715,0.208-0.887,0.538c-0.171,0.332-0.146,0.731,0.068,1.035l14,20
	C31.368,52.841,31.674,53,32,53s0.632-0.159,0.819-0.427l14-20C46.939,32.402,47,32.202,47,32c0-0.158-0.038-0.316-0.113-0.462
	C46.715,31.208,46.373,31,46,31H34V2C34,1.448,33.552,1,33,1z"/>
</svg>
