<?xml version="1.0" encoding="utf-8"?>
<!-- Generator: Adobe Illustrator 19.2.1, SVG Export Plug-In . SVG Version: 6.00 Build 0)  -->
<!DOCTYPE svg PUBLIC "-//W3C//DTD SVG 1.1//EN" "http://www.w3.org/Graphics/SVG/1.1/DTD/svg11.dtd">
<svg version="1.1" id="Layer_1" xmlns="http://www.w3.org/2000/svg" xmlns:xlink="http://www.w3.org/1999/xlink" x="0px" y="0px"
	 width="64px" height="64px" viewBox="0 0 64 64" enable-background="new 0 0 64 64" xml:space="preserve">
<path d="M30.6,7.2c-0.304-0.229-0.709-0.264-1.047-0.095C29.214,7.275,29,7.621,29,8v19L2.6,7.2
	C2.295,6.972,1.891,6.937,1.553,7.105C1.214,7.275,1,7.621,1,8v48c0,0.379,0.214,0.725,0.553,0.895C1.694,56.965,1.848,57,2,57
	c0.212,0,0.423-0.067,0.6-0.2L29,37v19c0,0.379,0.214,0.725,0.553,0.895C29.694,56.965,29.848,57,30,57c0.212,0,0.423-0.067,0.6-0.2
	l32-24c0.252-0.188,0.4-0.485,0.4-0.8s-0.148-0.611-0.4-0.8L30.6,7.2z"/>
</svg>
