<?xml version="1.0" encoding="utf-8"?>
<!-- Generator: Adobe Illustrator 19.2.1, SVG Export Plug-In . SVG Version: 6.00 Build 0)  -->
<!DOCTYPE svg PUBLIC "-//W3C//DTD SVG 1.1//EN" "http://www.w3.org/Graphics/SVG/1.1/DTD/svg11.dtd">
<svg version="1.1" id="Layer_1" xmlns="http://www.w3.org/2000/svg" xmlns:xlink="http://www.w3.org/1999/xlink" x="0px" y="0px"
	 width="64px" height="64px" viewBox="0 0 64 64" enable-background="new 0 0 64 64" xml:space="preserve">
<path d="M28,20.005V7c0-0.393-0.23-0.749-0.588-0.911c-0.358-0.161-0.778-0.101-1.073,0.16l-25,22
	C1.129,28.435,1.006,28.698,1,28.979c-0.006,0.279,0.105,0.549,0.308,0.743l25,24c0.289,0.276,0.716,0.354,1.084,0.198
	C27.761,53.763,28,53.4,28,53V40.003c17.071,0.086,26.938,2.465,33.111,14.455C61.285,54.796,61.632,55,62,55
	c0.078,0,0.157-0.009,0.235-0.028C62.684,54.863,63,54.462,63,54C63,24.178,43.325,20.163,28,20.005z"/>
</svg>
