<?xml version="1.0" encoding="utf-8"?>
<!-- Generator: Adobe Illustrator 19.2.1, SVG Export Plug-In . SVG Version: 6.00 Build 0)  -->
<!DOCTYPE svg PUBLIC "-//W3C//DTD SVG 1.1//EN" "http://www.w3.org/Graphics/SVG/1.1/DTD/svg11.dtd">
<svg version="1.1" id="Layer_1" xmlns="http://www.w3.org/2000/svg" xmlns:xlink="http://www.w3.org/1999/xlink" x="0px" y="0px"
	 width="64px" height="64px" viewBox="0 0 64 64" enable-background="new 0 0 64 64" xml:space="preserve">
<path d="M50.6,20.2c-0.303-0.229-0.709-0.263-1.047-0.095C49.214,20.275,49,20.621,49,21v8h-3c-5.558,0-10.409,3.045-13,7.548V15h8
	c0.379,0,0.725-0.214,0.895-0.553c0.169-0.339,0.133-0.744-0.095-1.047l-9-12c-0.377-0.504-1.223-0.504-1.6,0l-9,12
	c-0.228,0.303-0.264,0.708-0.095,1.047C22.275,14.786,22.621,15,23,15h8v21.548C28.409,32.045,23.558,29,18,29h-3v-8
	c0-0.379-0.214-0.725-0.553-0.895c-0.338-0.167-0.744-0.133-1.047,0.095l-12,9C1.148,29.389,1,29.686,1,30s0.148,0.611,0.4,0.8l12,9
	c0.176,0.133,0.388,0.2,0.6,0.2c0.152,0,0.306-0.035,0.447-0.105C14.786,39.725,15,39.379,15,39v-8h3c7.168,0,13,5.832,13,13v14v4
	c0,0.553,0.447,1,1,1s1-0.447,1-1v-4V44c0-7.168,5.832-13,13-13h3v8c0,0.379,0.214,0.725,0.553,0.895C49.694,39.965,49.848,40,50,40
	c0.212,0,0.424-0.067,0.6-0.2l12-9c0.252-0.188,0.4-0.485,0.4-0.8s-0.148-0.611-0.4-0.8L50.6,20.2z"/>
</svg>
