<?xml version="1.0" encoding="utf-8"?>
<!-- Generator: Adobe Illustrator 19.2.1, SVG Export Plug-In . SVG Version: 6.00 Build 0)  -->
<!DOCTYPE svg PUBLIC "-//W3C//DTD SVG 1.1//EN" "http://www.w3.org/Graphics/SVG/1.1/DTD/svg11.dtd">
<svg version="1.1" id="Layer_1" xmlns="http://www.w3.org/2000/svg" xmlns:xlink="http://www.w3.org/1999/xlink" x="0px" y="0px"
	 width="64px" height="64px" viewBox="0 0 64 64" enable-background="new 0 0 64 64" xml:space="preserve">
<path d="M3,33c0.553,0,1-0.447,1-1C4,16.561,16.561,4,32,4c6.218,0,12.162,2.037,17.031,5.779l-7.235,7.066
	c-0.273,0.268-0.371,0.666-0.252,1.028c0.12,0.363,0.436,0.626,0.813,0.678l17.52,2.416c0.046,0.007,0.092,0.01,0.137,0.01
	c0.257,0,0.506-0.099,0.693-0.279c0.221-0.213,0.332-0.515,0.302-0.819l-1.77-17.797c-0.038-0.383-0.292-0.71-0.653-0.841
	c-0.359-0.132-0.766-0.045-1.04,0.224l-7.067,6.901C45.219,4.243,38.76,2,32,2C15.458,2,2,15.458,2,32C2,32.553,2.447,33,3,33z"/>
<path d="M22.456,46.127c-0.12-0.363-0.436-0.626-0.813-0.678l-17.52-2.416c-0.309-0.045-0.609,0.058-0.83,0.27
	c-0.221,0.213-0.332,0.515-0.302,0.819l1.77,17.797c0.038,0.383,0.292,0.71,0.653,0.841c0.111,0.041,0.227,0.061,0.342,0.061
	c0.257,0,0.509-0.099,0.698-0.284l7.067-6.901C18.781,59.757,25.24,62,32,62c16.542,0,30-13.458,30-30c0-0.553-0.447-1-1-1
	s-1,0.447-1,1c0,15.439-12.561,28-28,28c-6.218,0-12.162-2.037-17.031-5.779l7.235-7.066C22.478,46.888,22.575,46.489,22.456,46.127
	z"/>
</svg>
