<?xml version="1.0" encoding="utf-8"?>
<!-- Generator: Adobe Illustrator 19.2.1, SVG Export Plug-In . SVG Version: 6.00 Build 0)  -->
<!DOCTYPE svg PUBLIC "-//W3C//DTD SVG 1.1//EN" "http://www.w3.org/Graphics/SVG/1.1/DTD/svg11.dtd">
<svg version="1.1" id="Layer_1" xmlns="http://www.w3.org/2000/svg" xmlns:xlink="http://www.w3.org/1999/xlink" x="0px" y="0px"
	 width="64px" height="64px" viewBox="0 0 64 64" enable-background="new 0 0 64 64" xml:space="preserve">
<path d="M60,62V2c0-0.553-0.447-1-1-1H29c-0.553,0-1,0.447-1,1s0.447,1,1,1h29v58H29c-0.553,0-1,0.447-1,1s0.447,1,1,1h30
	C59.553,63,60,62.553,60,62z"/>
<path d="M21.447,19.105c-0.338-0.167-0.744-0.133-1.047,0.095l-16,12C4.148,31.389,4,31.686,4,32s0.148,0.611,0.4,0.8l16,12
	c0.176,0.133,0.388,0.2,0.6,0.2c0.152,0,0.306-0.035,0.447-0.105C21.786,44.725,22,44.379,22,44V34h25c0.552,0,1-0.448,1-1v-2
	c0-0.552-0.448-1-1-1H22V20C22,19.621,21.786,19.275,21.447,19.105z"/>
</svg>
