<?xml version="1.0" encoding="utf-8"?>
<!-- Generator: Adobe Illustrator 19.2.1, SVG Export Plug-In . SVG Version: 6.00 Build 0)  -->
<!DOCTYPE svg PUBLIC "-//W3C//DTD SVG 1.1//EN" "http://www.w3.org/Graphics/SVG/1.1/DTD/svg11.dtd">
<svg version="1.1" id="Layer_1" xmlns="http://www.w3.org/2000/svg" xmlns:xlink="http://www.w3.org/1999/xlink" x="0px" y="0px"
	 width="64px" height="64px" viewBox="0 0 64 64" enable-background="new 0 0 64 64" xml:space="preserve">
<path fill="#222221" d="M6,59h24c0.404,0,0.769-0.244,0.924-0.617c0.155-0.374,0.069-0.804-0.217-1.09L19.414,46L58.707,6.707
	c0.391-0.391,0.391-1.023,0-1.414C58.512,5.098,58.256,5,58,5s-0.512,0.098-0.707,0.293L18,44.586L6.707,33.293
	C6.516,33.102,6.26,33,6,33c-0.129,0-0.259,0.025-0.383,0.076C5.244,33.231,5,33.596,5,34v24C5,58.552,5.448,59,6,59z"/>
</svg>
