<?xml version="1.0" encoding="utf-8"?>
<!-- Generator: Adobe Illustrator 19.2.1, SVG Export Plug-In . SVG Version: 6.00 Build 0)  -->
<!DOCTYPE svg PUBLIC "-//W3C//DTD SVG 1.1//EN" "http://www.w3.org/Graphics/SVG/1.1/DTD/svg11.dtd">
<svg version="1.1" id="Layer_1" xmlns="http://www.w3.org/2000/svg" xmlns:xlink="http://www.w3.org/1999/xlink" x="0px" y="0px"
	 width="64px" height="64px" viewBox="0 0 64 64" enable-background="new 0 0 64 64" xml:space="preserve">
<path fill="#222221" d="M32,63c0.553,0,1-0.447,1-1V32c0-0.266-0.105-0.52-0.293-0.707L13.314,11.9l7.778-7.778
	c0.276-0.277,0.366-0.688,0.231-1.054c-0.135-0.366-0.471-0.62-0.861-0.65L2.077,1.003C1.788,0.981,1.5,1.086,1.293,1.293
	c-0.206,0.206-0.312,0.492-0.29,0.785l1.414,18.385c0.03,0.388,0.284,0.725,0.65,0.86c0.113,0.041,0.23,0.062,0.347,0.062
	c0.261,0,0.516-0.102,0.707-0.293l7.779-7.778l19.1,19.1V62C31,62.553,31.447,63,32,63z"/>
<path fill="#222221" d="M36.243,29.171L52.1,13.314l7.779,7.778c0.191,0.191,0.446,0.293,0.707,0.293
	c0.117,0,0.234-0.021,0.347-0.062c0.366-0.135,0.62-0.472,0.65-0.86l1.414-18.385c0.022-0.293-0.084-0.579-0.29-0.785
	c-0.207-0.207-0.495-0.312-0.784-0.29L43.538,2.418c-0.39,0.03-0.726,0.284-0.861,0.65c-0.135,0.366-0.045,0.777,0.231,1.054
	l7.778,7.778L34.829,27.757L36.243,29.171z"/>
</svg>
