<?xml version="1.0" encoding="utf-8"?>
<!-- Generator: Adobe Illustrator 19.2.1, SVG Export Plug-In . SVG Version: 6.00 Build 0)  -->
<!DOCTYPE svg PUBLIC "-//W3C//DTD SVG 1.1//EN" "http://www.w3.org/Graphics/SVG/1.1/DTD/svg11.dtd">
<svg version="1.1" id="Layer_1" xmlns="http://www.w3.org/2000/svg" xmlns:xlink="http://www.w3.org/1999/xlink" x="0px" y="0px"
	 width="64px" height="64px" viewBox="0 0 64 64" enable-background="new 0 0 64 64" xml:space="preserve">
<path d="M2,63c0.552,0,1-0.448,1-1V2c0-0.552-0.448-1-1-1S1,1.448,1,2v60C1,62.552,1.448,63,2,63z"/>
<path d="M62,30H33V18c0-0.373-0.208-0.715-0.538-0.887c-0.332-0.171-0.731-0.146-1.035,0.068l-20,14C11.159,31.368,11,31.674,11,32
	s0.159,0.632,0.427,0.819l20,14C31.598,46.939,31.798,47,32,47c0.158,0,0.316-0.038,0.462-0.113C32.792,46.715,33,46.373,33,46V34
	h29c0.552,0,1-0.448,1-1v-2C63,30.448,62.552,30,62,30z"/>
</svg>
