<?xml version="1.0" encoding="utf-8"?>
<!-- Generator: Adobe Illustrator 19.2.1, SVG Export Plug-In . SVG Version: 6.00 Build 0)  -->
<!DOCTYPE svg PUBLIC "-//W3C//DTD SVG 1.1//EN" "http://www.w3.org/Graphics/SVG/1.1/DTD/svg11.dtd">
<svg version="1.1" id="Layer_1" xmlns="http://www.w3.org/2000/svg" xmlns:xlink="http://www.w3.org/1999/xlink" x="0px" y="0px"
	 width="64px" height="64px" viewBox="0 0 64 64" enable-background="new 0 0 64 64" xml:space="preserve">
<path d="M17.253,50.665C17.442,50.878,17.715,51,18,51h42c0.553,0,1-0.448,1-1V14c0-0.552-0.447-1-1-1H18
	c-0.285,0-0.558,0.122-0.747,0.335l-16,18c-0.337,0.379-0.337,0.95,0,1.329L17.253,50.665z M29.293,26.707
	c-0.391-0.391-0.391-1.023,0-1.414s1.023-0.391,1.414,0L36,30.586l5.293-5.293c0.391-0.391,1.023-0.391,1.414,0s0.391,1.023,0,1.414
	L37.414,32l5.293,5.293c0.391,0.391,0.391,1.023,0,1.414C42.512,38.902,42.256,39,42,39s-0.512-0.098-0.707-0.293L36,33.414
	l-5.293,5.293C30.512,38.902,30.256,39,30,39s-0.512-0.098-0.707-0.293c-0.391-0.391-0.391-1.023,0-1.414L34.586,32L29.293,26.707z"
	/>
</svg>
