<?xml version="1.0" encoding="utf-8"?>
<!-- Generator: Adobe Illustrator 19.2.1, SVG Export Plug-In . SVG Version: 6.00 Build 0)  -->
<!DOCTYPE svg PUBLIC "-//W3C//DTD SVG 1.1//EN" "http://www.w3.org/Graphics/SVG/1.1/DTD/svg11.dtd">
<svg version="1.1" id="Layer_1" xmlns="http://www.w3.org/2000/svg" xmlns:xlink="http://www.w3.org/1999/xlink" x="0px" y="0px"
	 width="64px" height="64px" viewBox="0 0 64 64" enable-background="new 0 0 64 64" xml:space="preserve">
<path d="M47.707,34.293c-0.391-0.391-1.023-0.391-1.414,0L37,43.586V2c0-0.552-0.448-1-1-1h-8c-0.552,0-1,0.448-1,1v41.586
	l-9.293-9.293c-0.391-0.391-1.023-0.391-1.414,0l-6,6c-0.391,0.391-0.391,1.023,0,1.414l21,21C31.488,62.902,31.744,63,32,63
	s0.512-0.098,0.707-0.293l21-21c0.391-0.391,0.391-1.023,0-1.414L47.707,34.293z"/>
</svg>
