<?xml version="1.0" encoding="utf-8"?>
<!-- Generator: Adobe Illustrator 19.2.1, SVG Export Plug-In . SVG Version: 6.00 Build 0)  -->
<!DOCTYPE svg PUBLIC "-//W3C//DTD SVG 1.1//EN" "http://www.w3.org/Graphics/SVG/1.1/DTD/svg11.dtd">
<svg version="1.1" id="Layer_1" xmlns="http://www.w3.org/2000/svg" xmlns:xlink="http://www.w3.org/1999/xlink" x="0px" y="0px"
	 width="64px" height="64px" viewBox="0 0 64 64" enable-background="new 0 0 64 64" xml:space="preserve">
<path d="M62,31H2c-0.553,0-1,0.447-1,1s0.447,1,1,1h60c0.553,0,1-0.447,1-1S62.553,31,62,31z"/>
<path d="M34,27v-9h9c0.377,0,0.722-0.212,0.892-0.548c0.171-0.336,0.138-0.739-0.085-1.044l-11-15c-0.377-0.514-1.236-0.514-1.613,0
	l-11,15c-0.223,0.305-0.256,0.708-0.085,1.044C20.278,17.788,20.623,18,21,18h9v9H34z"/>
<path d="M30,37v9h-9c-0.377,0-0.722,0.212-0.892,0.548c-0.171,0.336-0.138,0.739,0.085,1.044l11,15C31.382,62.849,31.682,63,32,63
	s0.618-0.151,0.807-0.408l11-15c0.223-0.305,0.256-0.708,0.085-1.044C43.722,46.212,43.377,46,43,46h-9v-9H30z"/>
</svg>
