<?xml version="1.0" encoding="utf-8"?>
<!-- Generator: Adobe Illustrator 19.2.1, SVG Export Plug-In . SVG Version: 6.00 Build 0)  -->
<!DOCTYPE svg PUBLIC "-//W3C//DTD SVG 1.1//EN" "http://www.w3.org/Graphics/SVG/1.1/DTD/svg11.dtd">
<svg version="1.1" id="Layer_1" xmlns="http://www.w3.org/2000/svg" xmlns:xlink="http://www.w3.org/1999/xlink" x="0px" y="0px"
	 width="64px" height="64px" viewBox="0 0 64 64" enable-background="new 0 0 64 64" xml:space="preserve">
<path d="M54,61V25c0-1.105-0.895-2-2-2H33v19c0,0.553-0.447,1-1,1s-1-0.447-1-1V23H12c-1.105,0-2,0.895-2,2v36c0,1.105,0.895,2,2,2
	h40C53.105,63,54,62.105,54,61z"/>
<path d="M33,4.414l8.293,8.293C41.488,12.902,41.744,13,42,13s0.512-0.098,0.707-0.293c0.391-0.391,0.391-1.023,0-1.414
	l-9.999-9.999c-0.092-0.093-0.203-0.166-0.327-0.217c-0.244-0.101-0.519-0.101-0.764,0c-0.123,0.051-0.234,0.125-0.326,0.217
	l-9.999,9.999c-0.391,0.391-0.391,1.023,0,1.414s1.023,0.391,1.414,0L31,4.414V23h2V4.414z"/>
</svg>
