<?xml version="1.0" encoding="utf-8"?>
<!-- Generator: Adobe Illustrator 19.2.1, SVG Export Plug-In . SVG Version: 6.00 Build 0)  -->
<!DOCTYPE svg PUBLIC "-//W3C//DTD SVG 1.1//EN" "http://www.w3.org/Graphics/SVG/1.1/DTD/svg11.dtd">
<svg version="1.1" id="Layer_1" xmlns="http://www.w3.org/2000/svg" xmlns:xlink="http://www.w3.org/1999/xlink" x="0px" y="0px"
	 width="64px" height="64px" viewBox="0 0 64 64" enable-background="new 0 0 64 64" xml:space="preserve">
<path d="M62,45c-0.552,0-1,0.447-1,1v15H2c-0.552,0-1,0.447-1,1s0.448,1,1,1h60c0.552,0,1-0.447,1-1V46C63,45.447,62.552,45,62,45z"
	/>
<path d="M39.545,28.89C39.688,28.964,39.844,29,40,29c0.207,0,0.412-0.064,0.585-0.189l18-13C58.846,15.623,59,15.322,59,15
	s-0.154-0.623-0.415-0.811l-18-13c-0.306-0.22-0.707-0.251-1.041-0.08C39.21,1.281,39,1.625,39,2v12H22c-9.374,0-17,7.626-17,17v15
	c0,0.552,0.448,1,1,1s1-0.448,1-1V31c0-8.271,6.729-15,15-15h17v12C39,28.376,39.21,28.72,39.545,28.89z"/>
</svg>
