<?xml version="1.0" encoding="utf-8"?>
<!-- Generator: Adobe Illustrator 19.2.1, SVG Export Plug-In . SVG Version: 6.00 Build 0)  -->
<!DOCTYPE svg PUBLIC "-//W3C//DTD SVG 1.1//EN" "http://www.w3.org/Graphics/SVG/1.1/DTD/svg11.dtd">
<svg version="1.1" id="Layer_1" xmlns="http://www.w3.org/2000/svg" xmlns:xlink="http://www.w3.org/1999/xlink" x="0px" y="0px"
	 width="64px" height="64px" viewBox="0 0 64 64" enable-background="new 0 0 64 64" xml:space="preserve">
<path d="M5,61c-0.552,0-1,0.448-1,1s0.448,1,1,1h41c0.552,0,1-0.448,1-1V21h12c0.375,0,0.719-0.21,0.89-0.545
	c0.171-0.334,0.141-0.736-0.08-1.041l-13-18c-0.376-0.521-1.245-0.521-1.621,0l-13,18c-0.22,0.304-0.251,0.707-0.08,1.041
	C32.281,20.79,32.625,21,33,21h12v40H5z"/>
</svg>
