<?xml version="1.0" encoding="utf-8"?>
<!-- Generator: Adobe Illustrator 19.2.1, SVG Export Plug-In . SVG Version: 6.00 Build 0)  -->
<!DOCTYPE svg PUBLIC "-//W3C//DTD SVG 1.1//EN" "http://www.w3.org/Graphics/SVG/1.1/DTD/svg11.dtd">
<svg version="1.1" id="Layer_1" xmlns="http://www.w3.org/2000/svg" xmlns:xlink="http://www.w3.org/1999/xlink" x="0px" y="0px"
	 width="64px" height="64px" viewBox="0 0 64 64" enable-background="new 0 0 64 64" xml:space="preserve">
<path d="M61,1H3C1.895,1,1,1.895,1,3v58c0,1.105,0.895,2,2,2h58c1.105,0,2-0.895,2-2V3C63,1.895,62.105,1,61,1z M46.819,24.573
	l-14,20C32.632,44.841,32.326,45,32,45s-0.632-0.159-0.819-0.427l-14-20c-0.214-0.305-0.24-0.704-0.068-1.035
	C17.285,23.208,17.627,23,18,23h28c0.373,0,0.715,0.208,0.887,0.538C47.059,23.869,47.033,24.268,46.819,24.573z"/>
</svg>
