<?xml version="1.0" encoding="utf-8"?>
<!-- Generator: Adobe Illustrator 19.2.1, SVG Export Plug-In . SVG Version: 6.00 Build 0)  -->
<!DOCTYPE svg PUBLIC "-//W3C//DTD SVG 1.1//EN" "http://www.w3.org/Graphics/SVG/1.1/DTD/svg11.dtd">
<svg version="1.1" id="Layer_1" xmlns="http://www.w3.org/2000/svg" xmlns:xlink="http://www.w3.org/1999/xlink" x="0px" y="0px"
	 width="64px" height="64px" viewBox="0 0 64 64" enable-background="new 0 0 64 64" xml:space="preserve">
<path d="M61,1H3C1.895,1,1,1.895,1,3v58c0,1.105,0.895,2,2,2h58c1.105,0,2-0.895,2-2V3C63,1.895,62.105,1,61,1z M26.707,38.707
	L14.414,51H24c0.553,0,1,0.448,1,1s-0.447,1-1,1H12c-0.13,0-0.26-0.027-0.382-0.077c-0.245-0.101-0.44-0.296-0.541-0.541
	C11.027,52.26,11,52.13,11,52V40c0-0.552,0.447-1,1-1s1,0.448,1,1v9.586l12.293-12.293c0.391-0.391,1.023-0.391,1.414,0
	S27.098,38.316,26.707,38.707z M26.707,26.707C26.512,26.902,26.256,27,26,27s-0.512-0.098-0.707-0.293L13,14.414V24
	c0,0.552-0.447,1-1,1s-1-0.448-1-1V12c0-0.13,0.027-0.26,0.077-0.382c0.101-0.245,0.296-0.44,0.541-0.541
	C11.74,11.027,11.87,11,12,11h12c0.553,0,1,0.448,1,1s-0.447,1-1,1h-9.586l12.293,12.293C27.098,25.684,27.098,26.316,26.707,26.707
	z M53,52c0,0.13-0.026,0.26-0.077,0.382c-0.101,0.245-0.296,0.44-0.541,0.541C52.26,52.973,52.13,53,52,53H40c-0.553,0-1-0.448-1-1
	s0.447-1,1-1h9.586L37.293,38.707c-0.391-0.391-0.391-1.023,0-1.414s1.023-0.391,1.414,0L51,49.586V40c0-0.552,0.447-1,1-1
	s1,0.448,1,1V52z M53,24c0,0.552-0.447,1-1,1s-1-0.448-1-1v-9.586L38.707,26.707C38.512,26.902,38.256,27,38,27
	s-0.512-0.098-0.707-0.293c-0.391-0.391-0.391-1.023,0-1.414L49.586,13H40c-0.553,0-1-0.448-1-1s0.447-1,1-1h12
	c0.13,0,0.26,0.027,0.382,0.077c0.245,0.101,0.44,0.296,0.541,0.541C52.974,11.74,53,11.87,53,12V24z"/>
</svg>
