<?xml version="1.0" encoding="utf-8"?>
<!-- Generator: Adobe Illustrator 19.2.1, SVG Export Plug-In . SVG Version: 6.00 Build 0)  -->
<!DOCTYPE svg PUBLIC "-//W3C//DTD SVG 1.1//EN" "http://www.w3.org/Graphics/SVG/1.1/DTD/svg11.dtd">
<svg version="1.1" id="Layer_1" xmlns="http://www.w3.org/2000/svg" xmlns:xlink="http://www.w3.org/1999/xlink" x="0px" y="0px"
	 width="64px" height="64px" viewBox="0 0 64 64" enable-background="new 0 0 64 64" xml:space="preserve">
<path d="M62.569,41.178l-13-9c-0.307-0.211-0.704-0.236-1.033-0.063C48.206,32.287,48,32.628,48,33v8H13.766l10.8-18H35v8
	c0,0.372,0.206,0.713,0.536,0.886C35.682,31.962,35.841,32,36,32c0.2,0,0.398-0.06,0.569-0.178l13-9C49.839,22.635,50,22.328,50,22
	s-0.161-0.635-0.431-0.822l-13-9c-0.306-0.21-0.704-0.236-1.033-0.063C35.206,12.287,35,12.628,35,13v8H24
	c-0.352,0-0.677,0.184-0.857,0.485L11.434,41H2c-0.553,0-1,0.448-1,1s0.447,1,1,1h10h36v8c0,0.372,0.206,0.713,0.536,0.886
	C48.682,51.962,48.841,52,49,52c0.2,0,0.398-0.06,0.569-0.178l13-9C62.839,42.635,63,42.328,63,42S62.839,41.365,62.569,41.178z"/>
</svg>
