<?xml version="1.0" encoding="utf-8"?>
<!-- Generator: Adobe Illustrator 19.2.1, SVG Export Plug-In . SVG Version: 6.00 Build 0)  -->
<!DOCTYPE svg PUBLIC "-//W3C//DTD SVG 1.1//EN" "http://www.w3.org/Graphics/SVG/1.1/DTD/svg11.dtd">
<svg version="1.1" id="Layer_1" xmlns="http://www.w3.org/2000/svg" xmlns:xlink="http://www.w3.org/1999/xlink" x="0px" y="0px"
	 width="64px" height="64px" viewBox="0 0 64 64" enable-background="new 0 0 64 64" xml:space="preserve">
<path d="M61.896,8.557C61.728,8.216,61.38,8,61,8H3C2.62,8,2.272,8.216,2.104,8.557c-0.168,0.34-0.13,0.748,0.102,1.05l29,38
	C31.395,47.854,31.688,48,32,48s0.605-0.146,0.795-0.394l29-38C61.931,9.429,62,9.215,62,9C62,8.849,61.966,8.697,61.896,8.557z"/>
<path d="M62,55c0-0.552-0.447-1-1-1H3c-0.553,0-1,0.448-1,1s0.447,1,1,1h58C61.553,56,62,55.552,62,55z"/>
</svg>
