<?xml version="1.0" encoding="utf-8"?>
<!-- Generator: Adobe Illustrator 19.2.1, SVG Export Plug-In . SVG Version: 6.00 Build 0)  -->
<!DOCTYPE svg PUBLIC "-//W3C//DTD SVG 1.1//EN" "http://www.w3.org/Graphics/SVG/1.1/DTD/svg11.dtd">
<svg version="1.1" id="Layer_1" xmlns="http://www.w3.org/2000/svg" xmlns:xlink="http://www.w3.org/1999/xlink" x="0px" y="0px"
	 width="64px" height="64px" viewBox="0 0 64 64" enable-background="new 0 0 64 64" xml:space="preserve">
<path d="M32,2c-0.553,0-1,0.448-1,1v37H18c-0.373,0-0.715,0.208-0.887,0.538c-0.173,0.331-0.146,0.73,0.067,1.035l14,20
	C31.368,61.841,31.674,62,32,62s0.632-0.159,0.819-0.427l14-20c0.214-0.305,0.24-0.704,0.067-1.035C46.715,40.208,46.373,40,46,40
	H33V3C33,2.448,32.553,2,32,2z"/>
</svg>
