<?xml version="1.0" encoding="utf-8"?>
<!-- Generator: Adobe Illustrator 19.2.1, SVG Export Plug-In . SVG Version: 6.00 Build 0)  -->
<!DOCTYPE svg PUBLIC "-//W3C//DTD SVG 1.1//EN" "http://www.w3.org/Graphics/SVG/1.1/DTD/svg11.dtd">
<svg version="1.1" id="Layer_1" xmlns="http://www.w3.org/2000/svg" xmlns:xlink="http://www.w3.org/1999/xlink" x="0px" y="0px"
	 width="64px" height="64px" viewBox="0 0 64 64" enable-background="new 0 0 64 64" xml:space="preserve">
<path d="M23.576,2.095C23.225,2.259,23,2.612,23,3v9H2c-0.553,0-1,0.447-1,1s0.447,1,1,1h21v9c0,0.388,0.225,0.741,0.576,0.905
	C23.711,23.969,23.855,24,24,24c0.229,0,0.457-0.079,0.641-0.231l12-10C36.868,13.578,37,13.297,37,13s-0.132-0.578-0.359-0.769
	l-12-10C24.342,1.984,23.926,1.93,23.576,2.095z"/>
<path d="M50.641,21.231c-0.299-0.247-0.715-0.302-1.064-0.137C49.225,21.259,49,21.612,49,22v9H2c-0.553,0-1,0.447-1,1s0.447,1,1,1
	h47v9c0,0.388,0.225,0.741,0.576,0.905C49.711,42.969,49.855,43,50,43c0.229,0,0.457-0.079,0.641-0.231l12-10
	C62.868,32.578,63,32.297,63,32s-0.132-0.578-0.359-0.769L50.641,21.231z"/>
<path d="M34.641,40.231c-0.298-0.247-0.714-0.302-1.064-0.137C33.225,40.259,33,40.612,33,41v9H2c-0.553,0-1,0.447-1,1s0.447,1,1,1
	h31v9c0,0.388,0.225,0.741,0.576,0.905C33.711,61.969,33.855,62,34,62c0.229,0,0.457-0.079,0.641-0.231l12-10
	C46.868,51.578,47,51.297,47,51s-0.132-0.578-0.359-0.769L34.641,40.231z"/>
</svg>
