<?xml version="1.0" encoding="utf-8"?>
<!-- Generator: Adobe Illustrator 19.2.1, SVG Export Plug-In . SVG Version: 6.00 Build 0)  -->
<!DOCTYPE svg PUBLIC "-//W3C//DTD SVG 1.1//EN" "http://www.w3.org/Graphics/SVG/1.1/DTD/svg11.dtd">
<svg version="1.1" id="Layer_1" xmlns="http://www.w3.org/2000/svg" xmlns:xlink="http://www.w3.org/1999/xlink" x="0px" y="0px"
	 width="64px" height="64px" viewBox="0 0 64 64" enable-background="new 0 0 64 64" xml:space="preserve">
<path d="M2,15c0.553,0,1-0.448,1-1V3h11c0.553,0,1-0.448,1-1s-0.447-1-1-1H2C1.447,1,1,1.448,1,2v12C1,14.552,1.447,15,2,15z"/>
<path d="M40,3c0.553,0,1-0.448,1-1s-0.447-1-1-1H24c-0.553,0-1,0.448-1,1s0.447,1,1,1H40z"/>
<path d="M62,1H50c-0.553,0-1,0.448-1,1s0.447,1,1,1h11v11c0,0.552,0.447,1,1,1s1-0.448,1-1V2C63,1.448,62.553,1,62,1z"/>
<path d="M62,49c-0.553,0-1,0.448-1,1v11H50c-0.553,0-1,0.448-1,1s0.447,1,1,1h12c0.553,0,1-0.448,1-1V50C63,49.448,62.553,49,62,49z
	"/>
<path d="M24,61c-0.553,0-1,0.448-1,1s0.447,1,1,1h16c0.553,0,1-0.448,1-1s-0.447-1-1-1H24z"/>
<path d="M2,63h12c0.553,0,1-0.448,1-1s-0.447-1-1-1H3V50c0-0.552-0.447-1-1-1s-1,0.448-1,1v12C1,62.552,1.447,63,2,63z"/>
<path d="M2,41c0.553,0,1-0.448,1-1V24c0-0.552-0.447-1-1-1s-1,0.448-1,1v16C1,40.552,1.447,41,2,41z"/>
<path d="M62,23c-0.553,0-1,0.448-1,1v16c0,0.552,0.447,1,1,1s1-0.448,1-1V24C63,23.448,62.553,23,62,23z"/>
<path d="M19.105,34.553c-0.168,0.339-0.134,0.744,0.095,1.047l12,16c0.188,0.252,0.485,0.4,0.8,0.4s0.611-0.148,0.8-0.4l12-16
	c0.133-0.176,0.2-0.388,0.2-0.6c0-0.152-0.035-0.306-0.105-0.447C44.724,34.214,44.379,34,44,34H34V13c0-0.552-0.448-1-1-1h-2
	c-0.552,0-1,0.448-1,1v21H20C19.621,34,19.275,34.214,19.105,34.553z"/>
</svg>
