<?xml version="1.0" encoding="utf-8"?>
<!-- Generator: Adobe Illustrator 19.2.1, SVG Export Plug-In . SVG Version: 6.00 Build 0)  -->
<!DOCTYPE svg PUBLIC "-//W3C//DTD SVG 1.1//EN" "http://www.w3.org/Graphics/SVG/1.1/DTD/svg11.dtd">
<svg version="1.1" id="Layer_1" xmlns="http://www.w3.org/2000/svg" xmlns:xlink="http://www.w3.org/1999/xlink" x="0px" y="0px"
	 width="64px" height="64px" viewBox="0 0 64 64" enable-background="new 0 0 64 64" xml:space="preserve">
<path fill="#222221" d="M5.617,30.924C5.741,30.975,5.871,31,6,31c0.26,0,0.516-0.102,0.707-0.293L18,19.414l39.293,39.293
	C57.488,58.902,57.744,59,58,59s0.512-0.098,0.707-0.293c0.391-0.391,0.391-1.023,0-1.414L19.414,18L30.707,6.707
	c0.286-0.286,0.372-0.716,0.217-1.09C30.769,5.244,30.404,5,30,5H6C5.448,5,5,5.448,5,6v24C5,30.404,5.244,30.769,5.617,30.924z"/>
</svg>
