<?xml version="1.0" encoding="utf-8"?>
<!-- Generator: Adobe Illustrator 19.2.1, SVG Export Plug-In . SVG Version: 6.00 Build 0)  -->
<!DOCTYPE svg PUBLIC "-//W3C//DTD SVG 1.1//EN" "http://www.w3.org/Graphics/SVG/1.1/DTD/svg11.dtd">
<svg version="1.1" id="Layer_1" xmlns="http://www.w3.org/2000/svg" xmlns:xlink="http://www.w3.org/1999/xlink" x="0px" y="0px"
	 width="64px" height="64px" viewBox="0 0 64 64" enable-background="new 0 0 64 64" xml:space="preserve">
<path d="M5.118,31.472C5.292,31.797,5.631,32,6,32h7v2.939c0,4.718,2.562,9.073,6.687,11.364L31,52.588V62c0,0.552,0.447,1,1,1
	s1-0.448,1-1V48.489l12.981-10.097C49.171,35.912,51,32.171,51,28.131V26h7c0.369,0,0.708-0.203,0.882-0.528s0.154-0.72-0.05-1.026
	l-8-12c-0.371-0.557-1.293-0.557-1.664,0l-8,12c-0.204,0.307-0.224,0.701-0.05,1.026S41.631,26,42,26h7v2.131
	c0,3.419-1.548,6.583-4.247,8.683L33,45.955V15h7c0.369,0,0.708-0.203,0.882-0.528s0.154-0.72-0.05-1.026l-8-12
	c-0.371-0.557-1.293-0.557-1.664,0l-8,12c-0.204,0.307-0.224,0.701-0.05,1.026S23.631,15,24,15h7v35.301l-10.343-5.746
	C17.168,42.616,15,38.932,15,34.939V32h7c0.369,0,0.708-0.203,0.882-0.528s0.154-0.72-0.05-1.026l-8-12
	c-0.371-0.557-1.293-0.557-1.664,0l-8,12C4.964,30.752,4.944,31.146,5.118,31.472z"/>
</svg>
