<?xml version="1.0" encoding="utf-8"?>
<!-- Generator: Adobe Illustrator 19.2.1, SVG Export Plug-In . SVG Version: 6.00 Build 0)  -->
<!DOCTYPE svg PUBLIC "-//W3C//DTD SVG 1.1//EN" "http://www.w3.org/Graphics/SVG/1.1/DTD/svg11.dtd">
<svg version="1.1" id="Layer_1" xmlns="http://www.w3.org/2000/svg" xmlns:xlink="http://www.w3.org/1999/xlink" x="0px" y="0px"
	 width="64px" height="64px" viewBox="0 0 64 64" enable-background="new 0 0 64 64" xml:space="preserve">
<path d="M45.607,30.206c-0.302-0.232-0.709-0.271-1.05-0.103C44.216,30.272,44,30.619,44,31v12H20.5C10.851,43,3,35.149,3,25.5
	S10.851,8,20.5,8H44c0.552,0,1-0.447,1-1s-0.448-1-1-1H20.5C9.748,6,1,14.748,1,25.5S9.748,45,20.5,45H44v12
	c0,0.381,0.216,0.728,0.557,0.896C44.697,57.966,44.849,58,45,58c0.215,0,0.43-0.069,0.607-0.206l17-13
	C62.855,44.605,63,44.312,63,44s-0.145-0.605-0.393-0.794L45.607,30.206z"/>
</svg>
