<?xml version="1.0" encoding="utf-8"?>
<!-- Generator: Adobe Illustrator 19.2.1, SVG Export Plug-In . SVG Version: 6.00 Build 0)  -->
<!DOCTYPE svg PUBLIC "-//W3C//DTD SVG 1.1//EN" "http://www.w3.org/Graphics/SVG/1.1/DTD/svg11.dtd">
<svg version="1.1" id="Layer_1" xmlns="http://www.w3.org/2000/svg" xmlns:xlink="http://www.w3.org/1999/xlink" x="0px" y="0px"
	 width="64px" height="64px" viewBox="0 0 64 64" enable-background="new 0 0 64 64" xml:space="preserve">
<path d="M62.909,37.584L52.82,16.173C52.496,15.458,51.784,15,51,15h-9v4h7.712l8.637,18H42v7c0,1.105-0.895,2-2,2H24
	c-1.105,0-2-0.895-2-2v-7H5.652l8.637-18H22v-4h-9c-0.784,0-1.496,0.458-1.82,1.173L1.091,37.584l0.003,0.003
	C1.036,37.714,1,37.852,1,38v19c0,1.657,1.343,3,3,3h56c1.657,0,3-1.343,3-3V38c0-0.148-0.036-0.286-0.094-0.413L62.909,37.584z"/>
<path d="M32,3c-0.553,0-1,0.447-1,1v19h-8c-0.387,0-0.738,0.223-0.903,0.571c-0.166,0.35-0.115,0.763,0.129,1.062l9,11
	C31.416,35.865,31.7,36,32,36s0.584-0.135,0.774-0.367l9-11c0.244-0.299,0.295-0.712,0.129-1.062C41.738,23.223,41.387,23,41,23h-8
	V4C33,3.447,32.553,3,32,3z"/>
</svg>
