<?xml version="1.0" encoding="utf-8"?>
<!-- Generator: Adobe Illustrator 19.2.1, SVG Export Plug-In . SVG Version: 6.00 Build 0)  -->
<!DOCTYPE svg PUBLIC "-//W3C//DTD SVG 1.1//EN" "http://www.w3.org/Graphics/SVG/1.1/DTD/svg11.dtd">
<svg version="1.1" id="Layer_1" xmlns="http://www.w3.org/2000/svg" xmlns:xlink="http://www.w3.org/1999/xlink" x="0px" y="0px"
	 width="64px" height="64px" viewBox="0 0 64 64" enable-background="new 0 0 64 64" xml:space="preserve">
<path fill="#222221" d="M13,33v10c0,0.383,0.219,0.732,0.562,0.899C13.702,43.967,13.852,44,14,44c0.22,0,0.438-0.073,0.618-0.214
	l14-11C28.859,32.597,29,32.307,29,32s-0.141-0.597-0.382-0.786l-14-11c-0.301-0.236-0.709-0.28-1.056-0.113
	C13.219,20.268,13,20.617,13,21v10H1c-0.553,0-1,0.448-1,1s0.447,1,1,1H13z"/>
<path fill="#222221" d="M63,31H51V21c0-0.383-0.219-0.732-0.562-0.899c-0.347-0.167-0.755-0.123-1.056,0.113l-14,11
	C35.141,31.403,35,31.693,35,32s0.141,0.597,0.382,0.786l14,11C49.562,43.927,49.78,44,50,44c0.148,0,0.298-0.033,0.438-0.101
	C50.781,43.732,51,43.383,51,43V33h12c0.553,0,1-0.448,1-1S63.553,31,63,31z"/>
</svg>
