<?xml version="1.0" encoding="utf-8"?>
<!-- Generator: Adobe Illustrator 19.2.1, SVG Export Plug-In . SVG Version: 6.00 Build 0)  -->
<!DOCTYPE svg PUBLIC "-//W3C//DTD SVG 1.1//EN" "http://www.w3.org/Graphics/SVG/1.1/DTD/svg11.dtd">
<svg version="1.1" id="Layer_1" xmlns="http://www.w3.org/2000/svg" xmlns:xlink="http://www.w3.org/1999/xlink" x="0px" y="0px"
	 width="64px" height="64px" viewBox="0 0 64 64" enable-background="new 0 0 64 64" xml:space="preserve">
<path d="M61,1H3C1.895,1,1,1.895,1,3v58c0,1.105,0.895,2,2,2h58c1.105,0,2-0.895,2-2V3C63,1.895,62.105,1,61,1z M26.924,52.383
	C26.77,52.756,26.404,53,26,53H12c-0.553,0-1-0.448-1-1V38c0-0.404,0.243-0.769,0.617-0.924c0.375-0.154,0.805-0.069,1.09,0.217
	l14,14C26.993,51.579,27.079,52.009,26.924,52.383z M26.707,12.707l-14,14C12.516,26.898,12.26,27,12,27
	c-0.129,0-0.259-0.025-0.383-0.076C11.243,26.769,11,26.404,11,26V12c0-0.552,0.447-1,1-1h14c0.404,0,0.77,0.244,0.924,0.617
	C27.079,11.991,26.993,12.421,26.707,12.707z M53,52c0,0.552-0.447,1-1,1H38c-0.404,0-0.77-0.244-0.924-0.617
	c-0.155-0.374-0.069-0.804,0.217-1.09l14-14c0.286-0.287,0.715-0.372,1.09-0.217C52.757,37.231,53,37.596,53,38V52z M53,26
	c0,0.404-0.243,0.769-0.617,0.924C52.259,26.975,52.129,27,52,27c-0.26,0-0.516-0.102-0.707-0.293l-14-14
	c-0.286-0.286-0.372-0.716-0.217-1.09C37.23,11.244,37.596,11,38,11h14c0.553,0,1,0.448,1,1V26z"/>
</svg>
