<?xml version="1.0" encoding="utf-8"?>
<!-- Generator: Adobe Illustrator 19.2.1, SVG Export Plug-In . SVG Version: 6.00 Build 0)  -->
<!DOCTYPE svg PUBLIC "-//W3C//DTD SVG 1.1//EN" "http://www.w3.org/Graphics/SVG/1.1/DTD/svg11.dtd">
<svg version="1.1" id="Layer_1" xmlns="http://www.w3.org/2000/svg" xmlns:xlink="http://www.w3.org/1999/xlink" x="0px" y="0px"
	 width="64px" height="64px" viewBox="0 0 64 64" enable-background="new 0 0 64 64" xml:space="preserve">
<path d="M12,41h19v13c0,0.383,0.219,0.732,0.563,0.899C31.702,54.967,31.851,55,32,55c0.22,0,0.438-0.073,0.618-0.214l28-22
	C60.859,32.597,61,32.307,61,32s-0.141-0.597-0.382-0.786l-28-22c-0.301-0.237-0.711-0.28-1.055-0.113C31.219,9.268,31,9.617,31,10
	v13H12c-4.962,0-9,4.038-9,9S7.038,41,12,41z"/>
</svg>
