<?xml version="1.0" encoding="utf-8"?>
<!-- Generator: Adobe Illustrator 19.2.1, SVG Export Plug-In . SVG Version: 6.00 Build 0)  -->
<!DOCTYPE svg PUBLIC "-//W3C//DTD SVG 1.1//EN" "http://www.w3.org/Graphics/SVG/1.1/DTD/svg11.dtd">
<svg version="1.1" id="Layer_1" xmlns="http://www.w3.org/2000/svg" xmlns:xlink="http://www.w3.org/1999/xlink" x="0px" y="0px"
	 width="64px" height="64px" viewBox="0 0 64 64" enable-background="new 0 0 64 64" xml:space="preserve">
<path d="M8.557,2.104C8.216,2.272,8,2.62,8,3v58c0,0.38,0.216,0.728,0.557,0.896C8.697,61.966,8.849,62,9,62
	c0.215,0,0.429-0.069,0.606-0.205l38-29C47.854,32.605,48,32.312,48,32s-0.146-0.605-0.394-0.795l-38-29
	C9.305,1.974,8.897,1.936,8.557,2.104z"/>
<path d="M56,61V3c0-0.553-0.448-1-1-1s-1,0.447-1,1v58c0,0.553,0.448,1,1,1S56,61.553,56,61z"/>
</svg>
