<?xml version="1.0" encoding="utf-8"?>
<!-- Generator: Adobe Illustrator 19.2.1, SVG Export Plug-In . SVG Version: 6.00 Build 0)  -->
<!DOCTYPE svg PUBLIC "-//W3C//DTD SVG 1.1//EN" "http://www.w3.org/Graphics/SVG/1.1/DTD/svg11.dtd">
<svg version="1.1" id="Layer_1" xmlns="http://www.w3.org/2000/svg" xmlns:xlink="http://www.w3.org/1999/xlink" x="0px" y="0px"
	 width="64px" height="64px" viewBox="0 0 64 64" enable-background="new 0 0 64 64" xml:space="preserve">
<path fill="#222221" d="M2,44c0.553,0,1-0.448,1-1V24C3,12.42,12.421,3,24,3s21,9.42,21,21v18H33c-0.375,0-0.719,0.21-0.89,0.545
	C32.036,42.688,32,42.844,32,43c0,0.207,0.064,0.412,0.189,0.585l13,18C45.377,61.846,45.679,62,46,62s0.623-0.154,0.811-0.415
	l13-18c0.221-0.305,0.251-0.706,0.08-1.041C59.719,42.21,59.375,42,59,42H47V24C47,11.318,36.683,1,24,1S1,11.318,1,24v19
	C1,43.552,1.447,44,2,44z"/>
</svg>
