<?xml version="1.0" encoding="utf-8"?>
<!-- Generator: Adobe Illustrator 19.2.1, SVG Export Plug-In . SVG Version: 6.00 Build 0)  -->
<!DOCTYPE svg PUBLIC "-//W3C//DTD SVG 1.1//EN" "http://www.w3.org/Graphics/SVG/1.1/DTD/svg11.dtd">
<svg version="1.1" id="Layer_1" xmlns="http://www.w3.org/2000/svg" xmlns:xlink="http://www.w3.org/1999/xlink" x="0px" y="0px"
	 width="64px" height="64px" viewBox="0 0 64 64" enable-background="new 0 0 64 64" xml:space="preserve">
<path d="M61,1H3C1.895,1,1,1.895,1,3v14c0,1.105,0.895,2,2,2h58c1.105,0,2-0.895,2-2V3C63,1.895,62.105,1,61,1z"/>
<path d="M32,25c-0.553,0-1,0.447-1,1v19H20c-0.379,0-0.725,0.214-0.895,0.553c-0.168,0.339-0.134,0.744,0.095,1.047l12,16
	c0.188,0.252,0.485,0.4,0.8,0.4s0.611-0.148,0.8-0.4l12-16c0.133-0.176,0.2-0.388,0.2-0.6c0-0.152-0.035-0.306-0.105-0.447
	C44.725,45.214,44.379,45,44,45H33V26C33,25.447,32.553,25,32,25z"/>
</svg>
