<?xml version="1.0" encoding="utf-8"?>
<!-- Generator: Adobe Illustrator 19.2.1, SVG Export Plug-In . SVG Version: 6.00 Build 0)  -->
<!DOCTYPE svg PUBLIC "-//W3C//DTD SVG 1.1//EN" "http://www.w3.org/Graphics/SVG/1.1/DTD/svg11.dtd">
<svg version="1.1" id="Layer_1" xmlns="http://www.w3.org/2000/svg" xmlns:xlink="http://www.w3.org/1999/xlink" x="0px" y="0px"
	 width="64px" height="64px" viewBox="0 0 64 64" enable-background="new 0 0 64 64" xml:space="preserve">
<path d="M4,40V24c0-0.553-0.447-1-1-1s-1,0.447-1,1v16c0,0.553,0.447,1,1,1S4,40.553,4,40z"/>
<path d="M10,24v16c0,0.553,0.447,1,1,1h24v12c0,0.389,0.226,0.742,0.577,0.906C35.713,53.97,35.856,54,36,54
	c0.23,0,0.459-0.08,0.644-0.234l25-21C61.869,32.576,62,32.295,62,32s-0.131-0.576-0.356-0.766l-25-21
	c-0.3-0.25-0.713-0.306-1.066-0.141C35.226,10.258,35,10.611,35,11v12H11C10.447,23,10,23.447,10,24z"/>
</svg>
