<?xml version="1.0" encoding="utf-8"?>
<!-- Generator: Adobe Illustrator 19.2.1, SVG Export Plug-In . SVG Version: 6.00 Build 0)  -->
<!DOCTYPE svg PUBLIC "-//W3C//DTD SVG 1.1//EN" "http://www.w3.org/Graphics/SVG/1.1/DTD/svg11.dtd">
<svg version="1.1" id="Layer_1" xmlns="http://www.w3.org/2000/svg" xmlns:xlink="http://www.w3.org/1999/xlink" x="0px" y="0px"
	 width="64px" height="64px" viewBox="0 0 64 64" enable-background="new 0 0 64 64" xml:space="preserve">
<path d="M29,61c-0.553,0-1,0.447-1,1s0.447,1,1,1h30c0.553,0,1-0.447,1-1V2c0-0.553-0.447-1-1-1H29c-0.553,0-1,0.447-1,1
	s0.447,1,1,1h29v58H29z"/>
<path d="M4,31v2c0,0.552,0.448,1,1,1h25v10c0,0.379,0.214,0.725,0.553,0.895C30.694,44.965,30.848,45,31,45
	c0.212,0,0.424-0.067,0.6-0.2l16-12c0.252-0.188,0.4-0.485,0.4-0.8s-0.148-0.611-0.4-0.8l-16-12
	c-0.303-0.229-0.708-0.263-1.047-0.095C30.214,19.275,30,19.621,30,20v10H5C4.448,30,4,30.448,4,31z"/>
</svg>
