<?xml version="1.0" encoding="utf-8"?>
<!-- Generator: Adobe Illustrator 19.2.1, SVG Export Plug-In . SVG Version: 6.00 Build 0)  -->
<!DOCTYPE svg PUBLIC "-//W3C//DTD SVG 1.1//EN" "http://www.w3.org/Graphics/SVG/1.1/DTD/svg11.dtd">
<svg version="1.1" id="Layer_1" xmlns="http://www.w3.org/2000/svg" xmlns:xlink="http://www.w3.org/1999/xlink" x="0px" y="0px"
	 width="64px" height="64px" viewBox="0 0 64 64" enable-background="new 0 0 64 64" xml:space="preserve">
<path d="M61,1H3C1.895,1,1,1.895,1,3v58c0,1.105,0.895,2,2,2h58c1.105,0,2-0.895,2-2V3C63,1.895,62.105,1,61,1z M29,28
	c0,0.552-0.447,1-1,1H12c-0.553,0-1-0.448-1-1V12c0-0.552,0.447-1,1-1h16c0.553,0,1,0.448,1,1V28z M53,52
	c0,0.13-0.026,0.26-0.077,0.382c-0.101,0.245-0.296,0.44-0.541,0.541C52.26,52.973,52.13,53,52,53H36c-0.553,0-1-0.448-1-1
	s0.447-1,1-1h13.586L35.293,36.707c-0.391-0.391-0.391-1.023,0-1.414s1.023-0.391,1.414,0L51,49.586V36c0-0.552,0.447-1,1-1
	s1,0.448,1,1V52z"/>
</svg>
