<?xml version="1.0" encoding="utf-8"?>
<!-- Generator: Adobe Illustrator 19.2.1, SVG Export Plug-In . SVG Version: 6.00 Build 0)  -->
<!DOCTYPE svg PUBLIC "-//W3C//DTD SVG 1.1//EN" "http://www.w3.org/Graphics/SVG/1.1/DTD/svg11.dtd">
<svg version="1.1" id="Layer_1" xmlns="http://www.w3.org/2000/svg" xmlns:xlink="http://www.w3.org/1999/xlink" x="0px" y="0px"
	 width="64px" height="64px" viewBox="0 0 64 64" enable-background="new 0 0 64 64" xml:space="preserve">
<path fill="#222221" d="M61,1H35c-1.105,0-2,0.895-2,2v26c0,1.105,0.895,2,2,2h26c1.105,0,2-0.895,2-2V3C63,1.895,62.105,1,61,1z"/>
<path fill="#222221" d="M26,37c-0.256,0-0.512,0.098-0.707,0.293L12,50.586l-9.293-9.293C2.516,41.102,2.26,41,2,41
	c-0.129,0-0.259,0.025-0.383,0.076C1.244,41.231,1,41.596,1,42v20c0,0.552,0.448,1,1,1h20c0.404,0,0.769-0.244,0.924-0.617
	c0.155-0.374,0.069-0.804-0.217-1.09L13.414,52l13.293-13.293c0.391-0.391,0.391-1.023,0-1.414C26.512,37.098,26.256,37,26,37z"/>
</svg>
