<?xml version="1.0" encoding="utf-8"?>
<!-- Generator: Adobe Illustrator 19.2.1, SVG Export Plug-In . SVG Version: 6.00 Build 0)  -->
<!DOCTYPE svg PUBLIC "-//W3C//DTD SVG 1.1//EN" "http://www.w3.org/Graphics/SVG/1.1/DTD/svg11.dtd">
<svg version="1.1" id="Layer_1" xmlns="http://www.w3.org/2000/svg" xmlns:xlink="http://www.w3.org/1999/xlink" x="0px" y="0px"
	 width="64px" height="64px" viewBox="0 0 64 64" enable-background="new 0 0 64 64" xml:space="preserve">
<path d="M61,1H3C1.895,1,1,1.895,1,3v58c0,1.105,0.895,2,2,2h58c1.105,0,2-0.895,2-2V3C63,1.895,62.105,1,61,1z M38.707,43.293
	c0.391,0.391,0.391,1.023,0,1.414C38.512,44.902,38.256,45,38,45s-0.512-0.098-0.707-0.293l-12-12c-0.391-0.391-0.391-1.023,0-1.414
	l12-12c0.391-0.391,1.023-0.391,1.414,0s0.391,1.023,0,1.414L27.414,32L38.707,43.293z"/>
</svg>
