<?xml version="1.0" encoding="utf-8"?>
<!-- Generator: Adobe Illustrator 19.2.1, SVG Export Plug-In . SVG Version: 6.00 Build 0)  -->
<!DOCTYPE svg PUBLIC "-//W3C//DTD SVG 1.1//EN" "http://www.w3.org/Graphics/SVG/1.1/DTD/svg11.dtd">
<svg version="1.1" id="Layer_1" xmlns="http://www.w3.org/2000/svg" xmlns:xlink="http://www.w3.org/1999/xlink" x="0px" y="0px"
	 width="64px" height="64px" viewBox="0 0 64 64" enable-background="new 0 0 64 64" xml:space="preserve">
<path d="M32,1C14.906,1,1,14.907,1,32s13.906,31,31,31s31-13.907,31-31S49.094,1,32,1z M50,33H16.414l12.293,12.293
	c0.391,0.391,0.391,1.023,0,1.414C28.512,46.902,28.256,47,28,47s-0.512-0.098-0.707-0.293L13.294,32.708
	c-0.093-0.092-0.166-0.203-0.217-0.326c-0.101-0.244-0.101-0.52,0-0.764c0.051-0.123,0.124-0.233,0.217-0.326l13.999-13.999
	c0.391-0.391,1.023-0.391,1.414,0s0.391,1.023,0,1.414L16.414,31H50c0.553,0,1,0.448,1,1S50.553,33,50,33z"/>
</svg>
