<?xml version="1.0" encoding="utf-8"?>
<!-- Generator: Adobe Illustrator 19.2.1, SVG Export Plug-In . SVG Version: 6.00 Build 0)  -->
<!DOCTYPE svg PUBLIC "-//W3C//DTD SVG 1.1//EN" "http://www.w3.org/Graphics/SVG/1.1/DTD/svg11.dtd">
<svg version="1.1" id="Layer_1" xmlns="http://www.w3.org/2000/svg" xmlns:xlink="http://www.w3.org/1999/xlink" x="0px" y="0px"
	 width="64px" height="64px" viewBox="0 0 64 64" enable-background="new 0 0 64 64" xml:space="preserve">
<path d="M47.592,20.193c-0.303-0.223-0.708-0.255-1.044-0.085C46.212,20.278,46,20.623,46,21v10H32.414l-8.192-8.192
	C21.767,20.352,18.502,19,15.029,19H2c-0.553,0-1,0.448-1,1s0.447,1,1,1h13.029c2.938,0,5.701,1.144,7.778,3.222L30.586,32
	l-7.778,7.778C20.73,41.856,17.968,43,15.029,43H2c-0.553,0-1,0.448-1,1s0.447,1,1,1h13.029c3.473,0,6.737-1.352,9.192-3.808
	L32.414,33H46v10c0,0.377,0.212,0.722,0.548,0.892C46.69,43.964,46.846,44,47,44c0.209,0,0.417-0.065,0.592-0.193l15-11
	C62.849,32.618,63,32.318,63,32s-0.151-0.618-0.408-0.807L47.592,20.193z"/>
</svg>
