<?xml version="1.0" encoding="utf-8"?>
<!-- Generator: Adobe Illustrator 19.2.1, SVG Export Plug-In . SVG Version: 6.00 Build 0)  -->
<!DOCTYPE svg PUBLIC "-//W3C//DTD SVG 1.1//EN" "http://www.w3.org/Graphics/SVG/1.1/DTD/svg11.dtd">
<svg version="1.1" id="Layer_1" xmlns="http://www.w3.org/2000/svg" xmlns:xlink="http://www.w3.org/1999/xlink" x="0px" y="0px"
	 width="64px" height="64px" viewBox="0 0 64 64" enable-background="new 0 0 64 64" xml:space="preserve">
<path fill="#222221" d="M26,61c-0.552,0-1,0.448-1,1s0.448,1,1,1h28c0.552,0,1-0.448,1-1V2c0-0.552-0.448-1-1-1H10
	C9.448,1,9,1.448,9,2v32c0,0.552,0.448,1,1,1s1-0.448,1-1V3h42v58H26z"/>
<path fill="#222221" d="M1.363,62.777c0.195,0.195,0.451,0.293,0.707,0.293s0.512-0.098,0.707-0.293L32.07,33.484l9.223,9.223
	C41.484,42.898,41.74,43,42,43c0.129,0,0.259-0.025,0.383-0.076C42.756,42.769,43,42.404,43,42V22c0-0.552-0.448-1-1-1H22
	c-0.404,0-0.769,0.244-0.924,0.617c-0.155,0.374-0.069,0.804,0.217,1.09l9.363,9.363L1.363,61.363
	C0.973,61.754,0.973,62.387,1.363,62.777z"/>
</svg>
