<?xml version="1.0" encoding="utf-8"?>
<!-- Generator: Adobe Illustrator 19.2.1, SVG Export Plug-In . SVG Version: 6.00 Build 0)  -->
<!DOCTYPE svg PUBLIC "-//W3C//DTD SVG 1.1//EN" "http://www.w3.org/Graphics/SVG/1.1/DTD/svg11.dtd">
<svg version="1.1" id="Layer_1" xmlns="http://www.w3.org/2000/svg" xmlns:xlink="http://www.w3.org/1999/xlink" x="0px" y="0px"
	 width="64px" height="64px" viewBox="0 0 64 64" enable-background="new 0 0 64 64" xml:space="preserve">
<path d="M22.515,13.143l-20-12C2.206,0.957,1.821,0.952,1.507,1.13S1,1.64,1,2v48c0,0.352,0.184,0.677,0.485,0.857l20,12
	C21.644,62.952,21.822,63,22,63c0.17,0,0.34-0.043,0.493-0.13C22.806,62.692,23,62.36,23,62V14
	C23,13.648,22.816,13.323,22.515,13.143z"/>
<path d="M50.64,15.231c-0.299-0.248-0.715-0.302-1.064-0.137C49.225,15.259,49,15.612,49,16v9h-8v2h8v9
	c0,0.388,0.225,0.741,0.576,0.905C49.711,36.969,49.856,37,50,37c0.229,0,0.457-0.079,0.64-0.231l12-10
	C62.868,26.578,63,26.297,63,26s-0.132-0.578-0.36-0.769L50.64,15.231z"/>
<path d="M33,26c0-0.552,0.448-1,1-1h7V3c0-1.105-0.895-2-2-2H6.164l17.379,10.428C24.442,11.966,25,12.952,25,14v37h14
	c1.105,0,2-0.895,2-2V27h-7C33.448,27,33,26.552,33,26z"/>
</svg>
