<?xml version="1.0" encoding="utf-8"?>
<!-- Generator: Adobe Illustrator 19.2.1, SVG Export Plug-In . SVG Version: 6.00 Build 0)  -->
<!DOCTYPE svg PUBLIC "-//W3C//DTD SVG 1.1//EN" "http://www.w3.org/Graphics/SVG/1.1/DTD/svg11.dtd">
<svg version="1.1" id="Layer_1" xmlns="http://www.w3.org/2000/svg" xmlns:xlink="http://www.w3.org/1999/xlink" x="0px" y="0px"
	 width="64px" height="64px" viewBox="0 0 64 64" enable-background="new 0 0 64 64" xml:space="preserve">
<path d="M41,32c0-4.962-4.037-9-9-9c-4.963,0-9,4.038-9,9c0,4.962,4.037,9,9,9C36.963,41,41,36.962,41,32z"/>
<path d="M32.768,1.359c-0.38-0.455-1.156-0.455-1.536,0l-10,12c-0.249,0.299-0.302,0.714-0.138,1.064C21.259,14.775,21.612,15,22,15
	h20c0.388,0,0.741-0.225,0.906-0.576c0.165-0.351,0.111-0.766-0.138-1.064L32.768,1.359z"/>
<path d="M50.64,21.231c-0.298-0.248-0.715-0.302-1.064-0.137C49.225,21.259,49,21.612,49,22v20c0,0.388,0.225,0.741,0.576,0.905
	C49.711,42.969,49.856,43,50,43c0.229,0,0.457-0.079,0.64-0.231l12-10C62.868,32.578,63,32.297,63,32s-0.132-0.578-0.36-0.769
	L50.64,21.231z"/>
<path d="M42,49H22c-0.388,0-0.741,0.225-0.906,0.576c-0.165,0.351-0.111,0.766,0.138,1.064l10,12C31.422,62.868,31.703,63,32,63
	s0.578-0.132,0.768-0.359l10-12c0.249-0.299,0.302-0.714,0.138-1.064C42.741,49.225,42.388,49,42,49z"/>
<path d="M14.424,21.095c-0.352-0.165-0.767-0.111-1.064,0.137l-12,10C1.132,31.422,1,31.703,1,32s0.132,0.578,0.36,0.769l12,10
	C13.543,42.921,13.771,43,14,43c0.144,0,0.289-0.031,0.424-0.095C14.775,42.741,15,42.388,15,42V22
	C15,21.612,14.775,21.259,14.424,21.095z"/>
</svg>
