<?xml version="1.0" encoding="utf-8"?>
<!-- Generator: Adobe Illustrator 19.2.1, SVG Export Plug-In . SVG Version: 6.00 Build 0)  -->
<!DOCTYPE svg PUBLIC "-//W3C//DTD SVG 1.1//EN" "http://www.w3.org/Graphics/SVG/1.1/DTD/svg11.dtd">
<svg version="1.1" id="Layer_1" xmlns="http://www.w3.org/2000/svg" xmlns:xlink="http://www.w3.org/1999/xlink" x="0px" y="0px"
	 width="64px" height="64px" viewBox="0 0 64 64" enable-background="new 0 0 64 64" xml:space="preserve">
<path d="M50.6,22.2c-0.303-0.229-0.709-0.263-1.047-0.095C49.214,22.275,49,22.621,49,23v8H33V15h8c0.379,0,0.725-0.214,0.895-0.553
	c0.169-0.339,0.133-0.744-0.095-1.047l-9-12c-0.377-0.504-1.223-0.504-1.6,0l-9,12c-0.228,0.303-0.264,0.708-0.095,1.047
	C22.275,14.786,22.621,15,23,15h8v16H15v-8c0-0.379-0.214-0.725-0.553-0.895c-0.338-0.167-0.745-0.134-1.047,0.095l-12,9
	C1.148,31.389,1,31.686,1,32s0.148,0.611,0.4,0.8l12,9c0.176,0.133,0.388,0.2,0.6,0.2c0.152,0,0.306-0.035,0.447-0.105
	C14.786,41.725,15,41.379,15,41v-8h16v16h-8c-0.379,0-0.725,0.214-0.895,0.553c-0.169,0.339-0.133,0.744,0.095,1.047l9,12
	c0.188,0.252,0.485,0.4,0.8,0.4s0.611-0.148,0.8-0.4l9-12c0.228-0.303,0.264-0.708,0.095-1.047C41.725,49.214,41.379,49,41,49h-8V33
	h16v8c0,0.379,0.214,0.725,0.553,0.895C49.694,41.965,49.848,42,50,42c0.212,0,0.424-0.067,0.6-0.2l12-9
	c0.252-0.188,0.4-0.485,0.4-0.8s-0.148-0.611-0.4-0.8L50.6,22.2z"/>
</svg>
