<?xml version="1.0" encoding="utf-8"?>
<!-- Generator: Adobe Illustrator 19.2.1, SVG Export Plug-In . SVG Version: 6.00 Build 0)  -->
<!DOCTYPE svg PUBLIC "-//W3C//DTD SVG 1.1//EN" "http://www.w3.org/Graphics/SVG/1.1/DTD/svg11.dtd">
<svg version="1.1" id="Layer_1" xmlns="http://www.w3.org/2000/svg" xmlns:xlink="http://www.w3.org/1999/xlink" x="0px" y="0px"
	 width="64px" height="64px" viewBox="0 0 64 64" enable-background="new 0 0 64 64" xml:space="preserve">
<path d="M39.98,61c0,0.553,0.448,1,1,1c0.007,0,0.014-0.001,0.02,0h20c0.552,0,1-0.447,1-1V41c0-0.404-0.244-0.77-0.617-0.924
	c-0.374-0.157-0.803-0.07-1.09,0.217L51,49.586L38.707,37.293c-0.391-0.391-1.023-0.391-1.414,0s-0.391,1.023,0,1.414L49.586,51
	l-9.184,9.184C40.146,60.365,39.98,60.663,39.98,61z"/>
<path d="M2,23c0,0.404,0.244,0.77,0.617,0.924c0.366,0.153,0.799,0.074,1.09-0.217L13,14.414l12.293,12.293
	c0.391,0.391,1.023,0.391,1.414,0s0.391-1.023,0-1.414L14.414,13l9.293-9.293c0.286-0.286,0.372-0.716,0.217-1.09S23.404,2,23,2H3
	C2.448,2,2,2.447,2,3V23z"/>
</svg>
