<?xml version="1.0" encoding="utf-8"?>
<!-- Generator: Adobe Illustrator 19.2.1, SVG Export Plug-In . SVG Version: 6.00 Build 0)  -->
<!DOCTYPE svg PUBLIC "-//W3C//DTD SVG 1.1//EN" "http://www.w3.org/Graphics/SVG/1.1/DTD/svg11.dtd">
<svg version="1.1" id="Layer_1" xmlns="http://www.w3.org/2000/svg" xmlns:xlink="http://www.w3.org/1999/xlink" x="0px" y="0px"
	 width="64px" height="64px" viewBox="0 0 64 64" enable-background="new 0 0 64 64" xml:space="preserve">
<path d="M62.591,33.193l-15-11c-0.303-0.222-0.706-0.255-1.043-0.085C46.212,22.278,46,22.623,46,23v10H34.489L24.393,20.019
	C21.912,16.829,18.172,15,14.131,15H8c-0.552,0-1,0.448-1,1s0.448,1,1,1h6.131c3.419,0,6.584,1.548,8.683,4.247L31.956,33H2
	c-0.552,0-1,0.448-1,1s0.448,1,1,1h44v10c0,0.377,0.212,0.722,0.548,0.892C46.691,45.964,46.846,46,47,46
	c0.209,0,0.417-0.065,0.591-0.193l15-11C62.848,34.618,63,34.318,63,34S62.848,33.382,62.591,33.193z"/>
</svg>
