<?xml version="1.0" encoding="utf-8"?>
<!-- Generator: Adobe Illustrator 19.2.1, SVG Export Plug-In . SVG Version: 6.00 Build 0)  -->
<!DOCTYPE svg PUBLIC "-//W3C//DTD SVG 1.1//EN" "http://www.w3.org/Graphics/SVG/1.1/DTD/svg11.dtd">
<svg version="1.1" id="Layer_1" xmlns="http://www.w3.org/2000/svg" xmlns:xlink="http://www.w3.org/1999/xlink" x="0px" y="0px"
	 width="64px" height="64px" viewBox="0 0 64 64" enable-background="new 0 0 64 64" xml:space="preserve">
<path fill="#222221" d="M40,21.019V8c0-0.404-0.244-0.77-0.617-0.924c-0.375-0.157-0.804-0.07-1.09,0.217l-22,22
	c-0.379,0.379-0.392,0.99-0.029,1.385l22,23.895c0.193,0.209,0.462,0.322,0.736,0.322c0.122,0,0.246-0.022,0.364-0.068
	C39.748,54.677,40,54.307,40,53.895v-12.88c16.234,0.484,20.867,12.69,21.06,13.221c0.167,0.456,0.64,0.726,1.114,0.644
	C62.651,54.794,63,54.38,63,53.895V50C63,36.318,55.793,21.614,40,21.019z"/>
<path fill="#222221" d="M25,54.895c0.122,0,0.246-0.022,0.364-0.068C25.748,54.677,26,54.307,26,53.895V45L12,30l14-14V8
	c0-0.404-0.244-0.77-0.617-0.924c-0.375-0.157-0.804-0.07-1.09,0.217l-22,22c-0.379,0.379-0.392,0.99-0.029,1.385l22,23.895
	C24.458,54.781,24.726,54.895,25,54.895z"/>
</svg>
