<?xml version="1.0" encoding="utf-8"?>
<!-- Generator: Adobe Illustrator 19.2.1, SVG Export Plug-In . SVG Version: 6.00 Build 0)  -->
<!DOCTYPE svg PUBLIC "-//W3C//DTD SVG 1.1//EN" "http://www.w3.org/Graphics/SVG/1.1/DTD/svg11.dtd">
<svg version="1.1" id="Layer_1" xmlns="http://www.w3.org/2000/svg" xmlns:xlink="http://www.w3.org/1999/xlink" x="0px" y="0px"
	 width="64px" height="64px" viewBox="0 0 64 64" enable-background="new 0 0 64 64" xml:space="preserve">
<path d="M62.591,33.193l-15-11c-0.303-0.222-0.706-0.255-1.043-0.085C46.212,22.278,46,22.623,46,23v10H34.489l-13.7-17.614
	C20.6,15.143,20.309,15,20,15H8c-0.552,0-1,0.448-1,1s0.448,1,1,1h11.511l12.445,16H2c-0.552,0-1,0.448-1,1s0.448,1,1,1h32h12v10
	c0,0.377,0.212,0.722,0.548,0.892C46.691,45.964,46.846,46,47,46c0.209,0,0.417-0.065,0.591-0.193l15-11
	C62.848,34.618,63,34.318,63,34S62.848,33.382,62.591,33.193z"/>
</svg>
