<?xml version="1.0" encoding="utf-8"?>
<!-- Generator: Adobe Illustrator 19.2.1, SVG Export Plug-In . SVG Version: 6.00 Build 0)  -->
<!DOCTYPE svg PUBLIC "-//W3C//DTD SVG 1.1//EN" "http://www.w3.org/Graphics/SVG/1.1/DTD/svg11.dtd">
<svg version="1.1" id="Layer_1" xmlns="http://www.w3.org/2000/svg" xmlns:xlink="http://www.w3.org/1999/xlink" x="0px" y="0px"
	 width="64px" height="64px" viewBox="0 0 64 64" enable-background="new 0 0 64 64" xml:space="preserve">
<path d="M32,1C14.906,1,1,14.907,1,32s13.906,31,31,31s31-13.907,31-31S49.094,1,32,1z M46.707,36.707L32.708,50.706
	c-0.092,0.093-0.203,0.166-0.326,0.217C32.26,50.973,32.13,51,32,51s-0.26-0.027-0.382-0.077c-0.123-0.051-0.233-0.124-0.326-0.217
	L17.293,36.707c-0.391-0.391-0.391-1.023,0-1.414s1.023-0.391,1.414,0L31,47.586V14c0-0.552,0.447-1,1-1s1,0.448,1,1v33.586
	l12.293-12.293c0.391-0.391,1.023-0.391,1.414,0S47.098,36.316,46.707,36.707z"/>
</svg>
