<?xml version="1.0" encoding="utf-8"?>
<!-- Generator: Adobe Illustrator 19.2.1, SVG Export Plug-In . SVG Version: 6.00 Build 0)  -->
<!DOCTYPE svg PUBLIC "-//W3C//DTD SVG 1.1//EN" "http://www.w3.org/Graphics/SVG/1.1/DTD/svg11.dtd">
<svg version="1.1" id="Layer_1" xmlns="http://www.w3.org/2000/svg" xmlns:xlink="http://www.w3.org/1999/xlink" x="0px" y="0px"
	 width="64px" height="64px" viewBox="0 0 64 64" enable-background="new 0 0 64 64" xml:space="preserve">
<path fill="#222221" d="M44.586,46L33.293,57.293c-0.286,0.286-0.372,0.716-0.217,1.09C33.231,58.756,33.596,59,34,59h24
	c0.552,0,1-0.448,1-1V34c0-0.404-0.244-0.769-0.617-0.924C58.259,33.025,58.129,33,58,33c-0.26,0-0.516,0.102-0.707,0.293L46,44.586
	L6.707,5.293C6.512,5.098,6.256,5,6,5S5.488,5.098,5.293,5.293c-0.391,0.391-0.391,1.023,0,1.414L44.586,46z"/>
</svg>
