<?xml version="1.0" encoding="utf-8"?>
<!-- Generator: Adobe Illustrator 19.2.1, SVG Export Plug-In . SVG Version: 6.00 Build 0)  -->
<!DOCTYPE svg PUBLIC "-//W3C//DTD SVG 1.1//EN" "http://www.w3.org/Graphics/SVG/1.1/DTD/svg11.dtd">
<svg version="1.1" id="Layer_1" xmlns="http://www.w3.org/2000/svg" xmlns:xlink="http://www.w3.org/1999/xlink" x="0px" y="0px"
	 width="64px" height="64px" viewBox="0 0 64 64" enable-background="new 0 0 64 64" xml:space="preserve">
<path d="M46,3c-7.244,0-13.304,5.161-14.698,12H24c-0.385,0-0.734,0.221-0.901,0.566c-0.166,0.347-0.12,0.758,0.12,1.059l8,10
	C31.409,26.862,31.696,27,32,27s0.591-0.138,0.781-0.375l8-10c0.24-0.301,0.286-0.712,0.12-1.059C40.734,15.221,40.385,15,40,15
	h-6.637C34.723,9.276,39.866,5,46,5c7.168,0,13,5.832,13,13s-5.832,13-13,13H18C9.729,31,3,37.729,3,46s6.729,15,15,15
	c7.244,0,13.304-5.161,14.698-12H40c0.385,0,0.734-0.221,0.901-0.566c0.166-0.347,0.12-0.758-0.12-1.059l-8-10
	c-0.381-0.475-1.182-0.475-1.562,0l-8,10c-0.24,0.301-0.286,0.712-0.12,1.059C23.266,48.779,23.615,49,24,49h6.637
	C29.277,54.724,24.134,59,18,59c-7.168,0-13-5.832-13-13s5.832-13,13-13h28c8.271,0,15-6.729,15-15S54.271,3,46,3z"/>
</svg>
