<?xml version="1.0" encoding="utf-8"?>
<!-- Generator: Adobe Illustrator 19.2.1, SVG Export Plug-In . SVG Version: 6.00 Build 0)  -->
<!DOCTYPE svg PUBLIC "-//W3C//DTD SVG 1.1//EN" "http://www.w3.org/Graphics/SVG/1.1/DTD/svg11.dtd">
<svg version="1.1" id="Layer_1" xmlns="http://www.w3.org/2000/svg" xmlns:xlink="http://www.w3.org/1999/xlink" x="0px" y="0px"
	 width="64px" height="64px" viewBox="0 0 64 64" enable-background="new 0 0 64 64" xml:space="preserve">
<path d="M52.803,21.145C51.398,10.744,42.593,3,32,3c-9.112,0-17.036,5.728-19.908,14.318C5.628,18.678,1,24.336,1,31
	c0,7.295,5.677,13.443,13,14h17V27.414l-9.293,9.293c-0.391,0.391-1.023,0.391-1.414,0s-0.391-1.023,0-1.414l10.999-10.999
	c0.388-0.389,1.027-0.389,1.415,0l10.999,10.999c0.391,0.391,0.391,1.023,0,1.414s-1.023,0.391-1.414,0L33,27.414V45h19
	c0.03,0,0.06-0.001,0.09-0.004C58.208,44.444,63,39.175,63,33C63,27.078,58.584,22.022,52.803,21.145z"/>
<path d="M31,60c0,0.553,0.448,1,1,1s1-0.447,1-1V45h-2V60z"/>
</svg>
