<?xml version="1.0" encoding="utf-8"?>
<!-- Generator: Adobe Illustrator 19.2.1, SVG Export Plug-In . SVG Version: 6.00 Build 0)  -->
<!DOCTYPE svg PUBLIC "-//W3C//DTD SVG 1.1//EN" "http://www.w3.org/Graphics/SVG/1.1/DTD/svg11.dtd">
<svg version="1.1" id="Layer_1" xmlns="http://www.w3.org/2000/svg" xmlns:xlink="http://www.w3.org/1999/xlink" x="0px" y="0px"
	 width="64px" height="64px" viewBox="0 0 64 64" enable-background="new 0 0 64 64" xml:space="preserve">
<path d="M3,33h37v13c0,0.373,0.208,0.715,0.538,0.887C40.684,46.962,40.842,47,41,47c0.202,0,0.402-0.061,0.573-0.181l20-14
	C61.841,32.632,62,32.326,62,32s-0.159-0.632-0.427-0.819l-20-14c-0.304-0.213-0.704-0.239-1.035-0.068
	C40.208,17.285,40,17.627,40,18v13H3c-0.552,0-1,0.448-1,1S2.448,33,3,33z"/>
</svg>
