<?xml version="1.0" encoding="utf-8"?>
<!-- Generator: Adobe Illustrator 19.2.1, SVG Export Plug-In . SVG Version: 6.00 Build 0)  -->
<!DOCTYPE svg PUBLIC "-//W3C//DTD SVG 1.1//EN" "http://www.w3.org/Graphics/SVG/1.1/DTD/svg11.dtd">
<svg version="1.1" id="Layer_1" xmlns="http://www.w3.org/2000/svg" xmlns:xlink="http://www.w3.org/1999/xlink" x="0px" y="0px"
	 width="64px" height="64px" viewBox="0 0 64 64" enable-background="new 0 0 64 64" xml:space="preserve">
<path fill="#222221" d="M62,1H42c-0.404,0-0.769,0.244-0.924,0.617c-0.155,0.374-0.069,0.804,0.217,1.09L50.586,12L31.293,31.293
	c-0.391,0.391-0.391,1.023,0,1.414C31.488,32.902,31.744,33,32,33s0.512-0.098,0.707-0.293L52,13.414l9.293,9.293
	C61.484,22.898,61.74,23,62,23c0.129,0,0.259-0.025,0.383-0.076C62.756,22.769,63,22.404,63,22V2C63,1.448,62.552,1,62,1z"/>
<path fill="#222221" d="M62,39c-0.552,0-1,0.448-1,1v21H3V3h21c0.552,0,1-0.448,1-1s-0.448-1-1-1H2C1.448,1,1,1.448,1,2v60
	c0,0.552,0.448,1,1,1h60c0.552,0,1-0.448,1-1V40C63,39.448,62.552,39,62,39z"/>
</svg>
