<?xml version="1.0" encoding="utf-8"?>
<!-- Generator: Adobe Illustrator 19.2.1, SVG Export Plug-In . SVG Version: 6.00 Build 0)  -->
<!DOCTYPE svg PUBLIC "-//W3C//DTD SVG 1.1//EN" "http://www.w3.org/Graphics/SVG/1.1/DTD/svg11.dtd">
<svg version="1.1" id="Layer_1" xmlns="http://www.w3.org/2000/svg" xmlns:xlink="http://www.w3.org/1999/xlink" x="0px" y="0px"
	 width="64px" height="64px" viewBox="0 0 64 64" enable-background="new 0 0 64 64" xml:space="preserve">
<path d="M2.617,40.076C2.243,40.23,2,40.596,2,41v20c0,0.553,0.447,1,1,1h20c0.007,0.001,0.015,0,0.02,0c0.553,0,1-0.447,1-1
	c0-0.337-0.166-0.635-0.421-0.816L14.414,51L51,14.414l9.293,9.293C60.484,23.898,60.74,24,61,24c0.129,0,0.259-0.024,0.383-0.076
	C61.757,23.77,62,23.404,62,23V3c0-0.553-0.447-1-1-1H41c-0.404,0-0.77,0.243-0.924,0.617c-0.155,0.374-0.069,0.804,0.217,1.09
	L49.586,13L13,49.586l-9.293-9.293C3.421,40.007,2.991,39.922,2.617,40.076z"/>
</svg>
