<?xml version="1.0" encoding="utf-8"?>
<!-- Generator: Adobe Illustrator 19.2.1, SVG Export Plug-In . SVG Version: 6.00 Build 0)  -->
<!DOCTYPE svg PUBLIC "-//W3C//DTD SVG 1.1//EN" "http://www.w3.org/Graphics/SVG/1.1/DTD/svg11.dtd">
<svg version="1.1" id="Layer_1" xmlns="http://www.w3.org/2000/svg" xmlns:xlink="http://www.w3.org/1999/xlink" x="0px" y="0px"
	 width="64px" height="64px" viewBox="0 0 64 64" enable-background="new 0 0 64 64" xml:space="preserve">
<path fill="#222221" d="M31,62h2c0.552,0,1-0.448,1-1V40h10c0.379,0,0.725-0.214,0.895-0.553c0.168-0.339,0.134-0.744-0.095-1.047
	l-12-16C32.611,22.148,32.315,22,32,22s-0.612,0.148-0.8,0.4l-12,16C19.067,38.576,19,38.788,19,39c0,0.152,0.035,0.306,0.105,0.447
	C19.275,39.786,19.621,40,20,40h10v21C30,61.552,30.448,62,31,62z"/>
<path fill="#222221" d="M61,1H3C1.895,1,1,1.895,1,3v46c0,1.105,0.895,2,2,2h21v-2H4c-0.552,0-1-0.448-1-1V14c0-0.552,0.448-1,1-1
	h56c0.552,0,1,0.448,1,1v34c0,0.552-0.448,1-1,1H40v2h21c1.105,0,2-0.895,2-2V3C63,1.895,62.105,1,61,1z M7,9C5.895,9,5,8.105,5,7
	s0.895-2,2-2c1.105,0,2,0.895,2,2S8.105,9,7,9z M14,9c-1.105,0-2-0.895-2-2s0.895-2,2-2c1.105,0,2,0.895,2,2S15.105,9,14,9z M21,9
	c-1.105,0-2-0.895-2-2s0.895-2,2-2c1.105,0,2,0.895,2,2S22.105,9,21,9z"/>
</svg>
