<?xml version="1.0" encoding="utf-8"?>
<!-- Generator: Adobe Illustrator 19.2.1, SVG Export Plug-In . SVG Version: 6.00 Build 0)  -->
<!DOCTYPE svg PUBLIC "-//W3C//DTD SVG 1.1//EN" "http://www.w3.org/Graphics/SVG/1.1/DTD/svg11.dtd">
<svg version="1.1" id="Layer_1" xmlns="http://www.w3.org/2000/svg" xmlns:xlink="http://www.w3.org/1999/xlink" x="0px" y="0px"
	 width="64px" height="64px" viewBox="0 0 64 64" enable-background="new 0 0 64 64" xml:space="preserve">
<path fill="#222221" d="M61,33c0.553,0,1-0.448,1-1C62,15.458,48.542,2,32,2c-6.754,0-13.232,2.277-18.464,6.367L6.468,1.465
	c-0.274-0.269-0.68-0.356-1.04-0.224C5.067,1.372,4.813,1.699,4.775,2.082l-1.77,17.797c-0.03,0.304,0.081,0.606,0.302,0.819
	c0.187,0.18,0.436,0.279,0.693,0.279c0.045,0,0.091-0.003,0.137-0.01l17.52-2.416c0.377-0.052,0.693-0.315,0.813-0.678
	c0.119-0.362,0.021-0.76-0.252-1.028l-7.24-7.07C19.824,6.062,25.787,4,32,4c15.439,0,28,12.561,28,28C60,32.552,60.447,33,61,33z"
	/>
<path fill="#222221" d="M21.284,57.872c-3.413-1.415-6.469-3.458-9.083-6.073c-0.391-0.391-1.023-0.391-1.414,0
	c-0.391,0.39-0.391,1.023,0,1.414c2.801,2.801,6.074,4.99,9.731,6.506c0.125,0.052,0.255,0.077,0.383,0.077
	c0.392,0,0.765-0.232,0.924-0.618C22.037,58.668,21.795,58.083,21.284,57.872z"/>
<path fill="#222221" d="M3,31c-0.553,0-1,0.448-1,1c0,3.97,0.768,7.833,2.28,11.482C4.44,43.867,4.812,44.1,5.204,44.1
	c0.128,0,0.258-0.025,0.383-0.077c0.511-0.211,0.753-0.797,0.541-1.307C4.716,39.311,4,35.706,4,32C4,31.448,3.553,31,3,31z"/>
<path fill="#222221" d="M42.716,57.872C39.311,59.284,35.705,60,32,60c-0.553,0-1,0.448-1,1s0.447,1,1,1
	c3.97,0,7.832-0.768,11.481-2.281c0.511-0.212,0.753-0.797,0.541-1.307C43.811,57.901,43.224,57.662,42.716,57.872z"/>
<path fill="#222221" d="M57.872,42.716c-1.414,3.411-3.458,6.467-6.073,9.083c-0.391,0.391-0.391,1.023,0,1.414
	c0.195,0.195,0.451,0.293,0.707,0.293s0.512-0.098,0.707-0.293c2.802-2.802,4.991-6.076,6.507-9.731
	c0.212-0.51-0.03-1.095-0.541-1.307C58.672,41.964,58.085,42.206,57.872,42.716z"/>
</svg>
