<?xml version="1.0" encoding="utf-8"?>
<!-- Generator: Adobe Illustrator 19.2.1, SVG Export Plug-In . SVG Version: 6.00 Build 0)  -->
<!DOCTYPE svg PUBLIC "-//W3C//DTD SVG 1.1//EN" "http://www.w3.org/Graphics/SVG/1.1/DTD/svg11.dtd">
<svg version="1.1" id="Layer_1" xmlns="http://www.w3.org/2000/svg" xmlns:xlink="http://www.w3.org/1999/xlink" x="0px" y="0px"
	 width="64px" height="64px" viewBox="0 0 64 64" enable-background="new 0 0 64 64" xml:space="preserve">
<path d="M2.104,55.443C2.272,55.784,2.62,56,3,56h58c0.38,0,0.728-0.216,0.896-0.557c0.168-0.34,0.13-0.748-0.102-1.05l-29-38
	C32.605,16.146,32.312,16,32,16s-0.605,0.146-0.795,0.394l-29,38C2.069,54.571,2,54.785,2,55C2,55.151,2.034,55.303,2.104,55.443z"
	/>
<path d="M2,9c0,0.552,0.447,1,1,1h58c0.553,0,1-0.448,1-1s-0.447-1-1-1H3C2.447,8,2,8.448,2,9z"/>
</svg>
