<?xml version="1.0" encoding="utf-8"?>
<!-- Generator: Adobe Illustrator 19.2.1, SVG Export Plug-In . SVG Version: 6.00 Build 0)  -->
<!DOCTYPE svg PUBLIC "-//W3C//DTD SVG 1.1//EN" "http://www.w3.org/Graphics/SVG/1.1/DTD/svg11.dtd">
<svg version="1.1" id="Layer_1" xmlns="http://www.w3.org/2000/svg" xmlns:xlink="http://www.w3.org/1999/xlink" x="0px" y="0px"
	 width="64px" height="64px" viewBox="0 0 64 64" enable-background="new 0 0 64 64" xml:space="preserve">
<path d="M27,33c-1.105,0-2,0.895-2,2v26c0,1.105,0.895,2,2,2h26c1.105,0,2-0.895,2-2V35c0-1.105-0.895-2-2-2H27z"/>
<path d="M56,13c0-0.329-0.162-0.638-0.434-0.824l-16-11c-0.307-0.209-0.704-0.233-1.032-0.061C38.206,1.288,38,1.629,38,2v10H21
	c-7.18,0-13,5.82-13,13v14c0,0.552,0.448,1,1,1c0.552,0,1-0.448,1-1V25c0-6.075,4.925-11,11-11h17v10
	c0,0.371,0.206,0.712,0.535,0.885c0.325,0.172,0.722,0.151,1.032-0.061l16-11C55.838,13.638,56,13.329,56,13z"/>
</svg>
