<?xml version="1.0" encoding="utf-8"?>
<!-- Generator: Adobe Illustrator 19.2.1, SVG Export Plug-In . SVG Version: 6.00 Build 0)  -->
<!DOCTYPE svg PUBLIC "-//W3C//DTD SVG 1.1//EN" "http://www.w3.org/Graphics/SVG/1.1/DTD/svg11.dtd">
<svg version="1.1" id="Layer_1" xmlns="http://www.w3.org/2000/svg" xmlns:xlink="http://www.w3.org/1999/xlink" x="0px" y="0px"
	 width="64px" height="64px" viewBox="0 0 64 64" enable-background="new 0 0 64 64" xml:space="preserve">
<path d="M61,1H3C1.895,1,1,1.895,1,3v58c0,1.105,0.895,2,2,2h58c1.105,0,2-0.895,2-2V3C63,1.895,62.105,1,61,1z M50,33H16.414
	l12.293,12.293c0.391,0.391,0.391,1.023,0,1.414C28.512,46.902,28.256,47,28,47s-0.512-0.098-0.707-0.293l-14-14
	c-0.092-0.092-0.165-0.203-0.216-0.325c-0.101-0.245-0.101-0.52,0-0.764c0.051-0.122,0.124-0.233,0.216-0.325l14-14
	c0.391-0.391,1.023-0.391,1.414,0s0.391,1.023,0,1.414L16.414,31H50c0.552,0,1,0.448,1,1S50.552,33,50,33z"/>
</svg>
