<?xml version="1.0" encoding="utf-8"?>
<!-- Generator: Adobe Illustrator 19.2.1, SVG Export Plug-In . SVG Version: 6.00 Build 0)  -->
<!DOCTYPE svg PUBLIC "-//W3C//DTD SVG 1.1//EN" "http://www.w3.org/Graphics/SVG/1.1/DTD/svg11.dtd">
<svg version="1.1" id="Layer_1" xmlns="http://www.w3.org/2000/svg" xmlns:xlink="http://www.w3.org/1999/xlink" x="0px" y="0px"
	 width="64px" height="64px" viewBox="0 0 64 64" enable-background="new 0 0 64 64" xml:space="preserve">
<path d="M61,1H3C1.895,1,1,1.895,1,3v58c0,1.105,0.895,2,2,2h58c1.105,0,2-0.895,2-2V3C63,1.895,62.105,1,61,1z M44.573,32.819
	l-20,14C24.402,46.939,24.202,47,24,47c-0.158,0-0.316-0.038-0.462-0.113C23.208,46.715,23,46.373,23,46V18
	c0-0.373,0.208-0.715,0.538-0.887c0.331-0.171,0.729-0.146,1.035,0.068l20,14C44.841,31.368,45,31.674,45,32
	S44.841,32.632,44.573,32.819z"/>
</svg>
