<?xml version="1.0" encoding="utf-8"?>
<!-- Generator: Adobe Illustrator 19.2.1, SVG Export Plug-In . SVG Version: 6.00 Build 0)  -->
<!DOCTYPE svg PUBLIC "-//W3C//DTD SVG 1.1//EN" "http://www.w3.org/Graphics/SVG/1.1/DTD/svg11.dtd">
<svg version="1.1" id="Layer_1" xmlns="http://www.w3.org/2000/svg" xmlns:xlink="http://www.w3.org/1999/xlink" x="0px" y="0px"
	 width="64px" height="64px" viewBox="0 0 64 64" enable-background="new 0 0 64 64" xml:space="preserve">
<path fill="#222221" d="M3,62c0.256,0,0.512-0.098,0.707-0.293l25.465-25.465l-1.414-1.414L2.293,60.293
	c-0.391,0.391-0.391,1.023,0,1.414C2.488,61.902,2.744,62,3,62z"/>
<path fill="#222221" d="M36.242,29.172L51,14.414l9.293,9.293C60.484,23.898,60.74,24,61,24c0.129,0,0.259-0.025,0.383-0.076
	C61.756,23.769,62,23.404,62,23V3c0-0.552-0.448-1-1-1H41c-0.404,0-0.769,0.244-0.924,0.617c-0.155,0.374-0.069,0.804,0.217,1.09
	L49.586,13L34.828,27.758L36.242,29.172z"/>
<path fill="#222221" d="M49.586,51l-9.293,9.293c-0.286,0.286-0.372,0.716-0.217,1.09C40.231,61.756,40.596,62,41,62h20
	c0.552,0,1-0.448,1-1V41c0-0.404-0.244-0.769-0.617-0.924c-0.375-0.155-0.804-0.07-1.09,0.217L51,49.586L3.707,2.293
	c-0.391-0.391-1.023-0.391-1.414,0s-0.391,1.023,0,1.414L49.586,51z"/>
</svg>
