<?xml version="1.0" encoding="utf-8"?>
<!-- Generator: Adobe Illustrator 19.2.1, SVG Export Plug-In . SVG Version: 6.00 Build 0)  -->
<!DOCTYPE svg PUBLIC "-//W3C//DTD SVG 1.1//EN" "http://www.w3.org/Graphics/SVG/1.1/DTD/svg11.dtd">
<svg version="1.1" id="Layer_1" xmlns="http://www.w3.org/2000/svg" xmlns:xlink="http://www.w3.org/1999/xlink" x="0px" y="0px"
	 width="64px" height="64px" viewBox="0 0 64 64" enable-background="new 0 0 64 64" xml:space="preserve">
<path d="M2.427,32.819l20,14C22.598,46.939,22.799,47,23,47c0.158,0,0.316-0.038,0.462-0.113C23.793,46.715,24,46.373,24,46V33h37
	c0.553,0,1-0.448,1-1s-0.447-1-1-1H24V18c0-0.373-0.207-0.715-0.538-0.887c-0.33-0.171-0.729-0.146-1.035,0.068l-20,14
	C2.159,31.368,2,31.674,2,32S2.159,32.632,2.427,32.819z"/>
</svg>
