<?xml version="1.0" encoding="utf-8"?>
<!-- Generator: Adobe Illustrator 19.2.1, SVG Export Plug-In . SVG Version: 6.00 Build 0)  -->
<!DOCTYPE svg PUBLIC "-//W3C//DTD SVG 1.1//EN" "http://www.w3.org/Graphics/SVG/1.1/DTD/svg11.dtd">
<svg version="1.1" id="Layer_1" xmlns="http://www.w3.org/2000/svg" xmlns:xlink="http://www.w3.org/1999/xlink" x="0px" y="0px"
	 width="64px" height="64px" viewBox="0 0 64 64" enable-background="new 0 0 64 64" xml:space="preserve">
<path d="M61,1H3C1.895,1,1,1.895,1,3v58c0,1.105,0.895,2,2,2h58c1.105,0,2-0.895,2-2V3C63,1.895,62.105,1,61,1z M42.814,36.581
	l-10,14C32.626,50.844,32.323,51,32,51s-0.626-0.156-0.814-0.419l-10-14c-0.217-0.305-0.247-0.706-0.075-1.039S21.625,35,22,35h9V14
	c0-0.552,0.448-1,1-1s1,0.448,1,1v21h9c0.375,0,0.718,0.209,0.889,0.542S43.031,36.276,42.814,36.581z"/>
</svg>
