<?xml version="1.0" encoding="utf-8"?>
<!-- Generator: Adobe Illustrator 19.2.1, SVG Export Plug-In . SVG Version: 6.00 Build 0)  -->
<!DOCTYPE svg PUBLIC "-//W3C//DTD SVG 1.1//EN" "http://www.w3.org/Graphics/SVG/1.1/DTD/svg11.dtd">
<svg version="1.1" id="Layer_1" xmlns="http://www.w3.org/2000/svg" xmlns:xlink="http://www.w3.org/1999/xlink" x="0px" y="0px"
	 width="64px" height="64px" viewBox="0 0 64 64" enable-background="new 0 0 64 64" xml:space="preserve">
<path d="M62,27H20.414l9.293-9.293c0.391-0.391,0.391-1.023,0-1.414l-6-6c-0.391-0.391-1.023-0.391-1.414,0l-21,21
	c-0.391,0.391-0.391,1.023,0,1.414l21,21C22.488,53.902,22.744,54,23,54s0.512-0.098,0.707-0.293l6-6
	c0.391-0.391,0.391-1.023,0-1.414L20.414,37H62c0.552,0,1-0.448,1-1v-8C63,27.448,62.552,27,62,27z"/>
</svg>
