<?xml version="1.0" encoding="utf-8"?>
<!-- Generator: Adobe Illustrator 19.2.1, SVG Export Plug-In . SVG Version: 6.00 Build 0)  -->
<!DOCTYPE svg PUBLIC "-//W3C//DTD SVG 1.1//EN" "http://www.w3.org/Graphics/SVG/1.1/DTD/svg11.dtd">
<svg version="1.1" id="Layer_1" xmlns="http://www.w3.org/2000/svg" xmlns:xlink="http://www.w3.org/1999/xlink" x="0px" y="0px"
	 width="64px" height="64px" viewBox="0 0 64 64" enable-background="new 0 0 64 64" xml:space="preserve">
<path fill="#222221" d="M10,63h40c0.552,0,1-0.448,1-1V52c0-0.552-0.448-1-1-1s-1,0.448-1,1v9H11V3h38v9c0,0.552,0.448,1,1,1
	s1-0.448,1-1V2c0-0.552-0.448-1-1-1H10C9.448,1,9,1.448,9,2v60C9,62.552,9.448,63,10,63z"/>
<path fill="#222221" d="M44.553,19.105C44.214,19.275,44,19.621,44,20v10H26c-0.552,0-1,0.448-1,1v2c0,0.552,0.448,1,1,1h18v10
	c0,0.379,0.214,0.725,0.553,0.895C44.694,44.965,44.848,45,45,45c0.212,0,0.424-0.067,0.6-0.2l16-12c0.252-0.188,0.4-0.485,0.4-0.8
	s-0.148-0.611-0.4-0.8l-16-12C45.297,18.971,44.892,18.937,44.553,19.105z"/>
</svg>
