<?xml version="1.0" encoding="utf-8"?>
<!-- Generator: Adobe Illustrator 19.2.1, SVG Export Plug-In . SVG Version: 6.00 Build 0)  -->
<!DOCTYPE svg PUBLIC "-//W3C//DTD SVG 1.1//EN" "http://www.w3.org/Graphics/SVG/1.1/DTD/svg11.dtd">
<svg version="1.1" id="Layer_1" xmlns="http://www.w3.org/2000/svg" xmlns:xlink="http://www.w3.org/1999/xlink" x="0px" y="0px"
	 width="64px" height="64px" viewBox="0 0 64 64" enable-background="new 0 0 64 64" xml:space="preserve">
<path d="M22,32c0.369,0,0.708-0.203,0.882-0.528s0.154-0.72-0.05-1.026l-8-12c-0.371-0.557-1.293-0.557-1.664,0l-8,12
	c-0.204,0.307-0.224,0.701-0.05,1.026S5.631,32,6,32h7v12c0,0.363,0.197,0.698,0.515,0.874L31,54.588V62c0,0.552,0.447,1,1,1
	s1-0.448,1-1V50.489l17.614-13.7C50.857,36.6,51,36.309,51,36V26h7c0.369,0,0.708-0.203,0.882-0.528s0.154-0.72-0.05-1.026l-8-12
	c-0.371-0.557-1.293-0.557-1.664,0l-8,12c-0.204,0.307-0.224,0.701-0.05,1.026S41.631,26,42,26h7v9.511L33,47.955V15h7
	c0.369,0,0.708-0.203,0.882-0.528s0.154-0.72-0.05-1.026l-8-12c-0.371-0.557-1.293-0.557-1.664,0l-8,12
	c-0.204,0.307-0.224,0.701-0.05,1.026S23.631,15,24,15h7v37.301l-16-8.889V32H22z"/>
</svg>
