<?xml version="1.0" encoding="utf-8"?>
<!-- Generator: Adobe Illustrator 19.2.1, SVG Export Plug-In . SVG Version: 6.00 Build 0)  -->
<!DOCTYPE svg PUBLIC "-//W3C//DTD SVG 1.1//EN" "http://www.w3.org/Graphics/SVG/1.1/DTD/svg11.dtd">
<svg version="1.1" id="Layer_1" xmlns="http://www.w3.org/2000/svg" xmlns:xlink="http://www.w3.org/1999/xlink" x="0px" y="0px"
	 width="64px" height="64px" viewBox="0 0 64 64" enable-background="new 0 0 64 64" xml:space="preserve">
<path d="M62.585,17.189l-18-13c-0.306-0.22-0.707-0.251-1.041-0.08C43.21,4.281,43,4.625,43,5v12H18C8.626,17,1,24.626,1,34v25
	c0,0.552,0.448,1,1,1s1-0.448,1-1V34c0-8.271,6.729-15,15-15h25v12c0,0.375,0.21,0.719,0.545,0.89C43.688,31.964,43.844,32,44,32
	c0.207,0,0.412-0.064,0.585-0.189l18-13C62.846,18.623,63,18.321,63,18S62.846,17.377,62.585,17.189z"/>
</svg>
