<?xml version="1.0" encoding="utf-8"?>
<!-- Generator: Adobe Illustrator 19.2.1, SVG Export Plug-In . SVG Version: 6.00 Build 0)  -->
<!DOCTYPE svg PUBLIC "-//W3C//DTD SVG 1.1//EN" "http://www.w3.org/Graphics/SVG/1.1/DTD/svg11.dtd">
<svg version="1.1" id="Layer_1" xmlns="http://www.w3.org/2000/svg" xmlns:xlink="http://www.w3.org/1999/xlink" x="0px" y="0px"
	 width="64px" height="64px" viewBox="0 0 64 64" enable-background="new 0 0 64 64" xml:space="preserve">
<path d="M2,3v20c0,0.404,0.243,0.77,0.617,0.924C2.741,23.975,2.871,24,3,24c0.26,0,0.516-0.102,0.707-0.293L13,14.414L49.586,51
	l-9.184,9.184C40.146,60.365,39.98,60.663,39.98,61c0,0.553,0.447,1,1,1c0.005,0,0.013,0.001,0.02,0h20c0.553,0,1-0.447,1-1V41
	c0-0.404-0.243-0.77-0.617-0.924s-0.804-0.069-1.09,0.217L51,49.585L14.414,13l9.293-9.293c0.286-0.286,0.372-0.716,0.217-1.09
	C23.77,2.243,23.404,2,23,2H3C2.447,2,2,2.447,2,3z"/>
</svg>
