<?xml version="1.0" encoding="utf-8"?>
<!-- Generator: Adobe Illustrator 19.2.1, SVG Export Plug-In . SVG Version: 6.00 Build 0)  -->
<!DOCTYPE svg PUBLIC "-//W3C//DTD SVG 1.1//EN" "http://www.w3.org/Graphics/SVG/1.1/DTD/svg11.dtd">
<svg version="1.1" id="Layer_1" xmlns="http://www.w3.org/2000/svg" xmlns:xlink="http://www.w3.org/1999/xlink" x="0px" y="0px"
	 width="64px" height="64px" viewBox="0 0 64 64" enable-background="new 0 0 64 64" xml:space="preserve">
<path d="M52.803,29.145C51.398,18.744,42.593,11,32,11c-9.112,0-17.036,5.728-19.908,14.318C5.628,26.678,1,32.336,1,39
	c0,7.295,5.677,13.443,13,14h38c0.03,0,0.06-0.001,0.09-0.004C58.208,52.444,63,47.175,63,41C63,35.078,58.584,30.022,52.803,29.145
	z M42.707,37.707l-9.999,9.999c-0.092,0.093-0.203,0.166-0.326,0.217C32.26,47.973,32.13,48,32,48s-0.26-0.027-0.382-0.077
	c-0.123-0.051-0.233-0.124-0.326-0.217l-9.999-9.999c-0.391-0.391-0.391-1.023,0-1.414s1.023-0.391,1.414,0L31,44.586V25
	c0-0.553,0.448-1,1-1s1,0.447,1,1v19.586l8.293-8.293c0.391-0.391,1.023-0.391,1.414,0S43.098,37.316,42.707,37.707z"/>
</svg>
