<?xml version="1.0" encoding="utf-8"?>
<!-- Generator: Adobe Illustrator 19.2.1, SVG Export Plug-In . SVG Version: 6.00 Build 0)  -->
<!DOCTYPE svg PUBLIC "-//W3C//DTD SVG 1.1//EN" "http://www.w3.org/Graphics/SVG/1.1/DTD/svg11.dtd">
<svg version="1.1" id="Layer_1" xmlns="http://www.w3.org/2000/svg" xmlns:xlink="http://www.w3.org/1999/xlink" x="0px" y="0px"
	 width="64px" height="64px" viewBox="0 0 64 64" enable-background="new 0 0 64 64" xml:space="preserve">
<path d="M45.636,2.229c-0.298-0.246-0.713-0.298-1.062-0.133S44,2.613,44,3v9H7c-0.553,0-1,0.447-1,1v8c0,0.553,0.447,1,1,1h37v9
	c0,0.387,0.224,0.739,0.573,0.904C44.709,31.969,44.854,32,45,32c0.228,0,0.453-0.078,0.636-0.229l17-14
	C62.866,17.582,63,17.299,63,17s-0.134-0.582-0.364-0.771L45.636,2.229z"/>
<path d="M19.427,32.096c-0.348-0.164-0.763-0.113-1.062,0.133l-17,14C1.134,46.418,1,46.701,1,47s0.134,0.582,0.364,0.771l17,14
	C18.547,61.922,18.772,62,19,62c0.145,0,0.291-0.031,0.427-0.096C19.776,61.739,20,61.387,20,61v-9h37c0.553,0,1-0.447,1-1v-8
	c0-0.553-0.447-1-1-1H20v-9C20,32.613,19.776,32.261,19.427,32.096z"/>
</svg>
