<?xml version="1.0" encoding="utf-8"?>
<!-- Generator: Adobe Illustrator 19.2.1, SVG Export Plug-In . SVG Version: 6.00 Build 0)  -->
<!DOCTYPE svg PUBLIC "-//W3C//DTD SVG 1.1//EN" "http://www.w3.org/Graphics/SVG/1.1/DTD/svg11.dtd">
<svg version="1.1" id="Layer_1" xmlns="http://www.w3.org/2000/svg" xmlns:xlink="http://www.w3.org/1999/xlink" x="0px" y="0px"
	 width="64px" height="64px" viewBox="0 0 64 64" enable-background="new 0 0 64 64" xml:space="preserve">
<path fill="#222221" d="M33,6h-2c-0.552,0-1,0.448-1,1v19H20c-0.379,0-0.725,0.214-0.895,0.553
	c-0.168,0.339-0.134,0.744,0.095,1.047l12,16c0.189,0.252,0.485,0.4,0.8,0.4s0.612-0.148,0.8-0.4l12-16
	c0.133-0.176,0.2-0.388,0.2-0.6c0-0.152-0.035-0.306-0.105-0.447C44.725,26.214,44.379,26,44,26H34V7C34,6.448,33.553,6,33,6z"/>
<path fill="#222221" d="M62,6H46c-0.552,0-1,0.448-1,1c0,0.552,0.448,1,1,1h15v48H3V8h15c0.552,0,1-0.448,1-1c0-0.552-0.448-1-1-1H2
	C1.448,6,1,6.448,1,7v50c0,0.552,0.448,1,1,1h60c0.552,0,1-0.448,1-1V7C63,6.448,62.552,6,62,6z"/>
</svg>
