<?xml version="1.0" encoding="utf-8"?>
<!-- Generator: Adobe Illustrator 19.2.1, SVG Export Plug-In . SVG Version: 6.00 Build 0)  -->
<!DOCTYPE svg PUBLIC "-//W3C//DTD SVG 1.1//EN" "http://www.w3.org/Graphics/SVG/1.1/DTD/svg11.dtd">
<svg version="1.1" id="Layer_1" xmlns="http://www.w3.org/2000/svg" xmlns:xlink="http://www.w3.org/1999/xlink" x="0px" y="0px"
	 width="64px" height="64px" viewBox="0 0 64 64" enable-background="new 0 0 64 64" xml:space="preserve">
<path d="M62,6H20c-0.553,0-1,0.447-1,1s0.447,1,1,1h41v35H20V31c0-0.381-0.216-0.728-0.557-0.896
	c-0.341-0.167-0.748-0.13-1.051,0.103l-17,13C1.146,43.395,1,43.688,1,44s0.146,0.605,0.393,0.794l17,13
	C18.57,57.931,18.784,58,19,58c0.151,0,0.303-0.034,0.443-0.104C19.784,57.728,20,57.381,20,57V45h42c0.553,0,1-0.447,1-1V7
	C63,6.447,62.553,6,62,6z"/>
</svg>
