<?xml version="1.0" encoding="utf-8"?>
<!-- Generator: Adobe Illustrator 19.1.0, SVG Export Plug-In . SVG Version: 6.00 Build 0)  -->
<!DOCTYPE svg PUBLIC "-//W3C//DTD SVG 1.1//EN" "http://www.w3.org/Graphics/SVG/1.1/DTD/svg11.dtd">
<svg version="1.1" id="Layer_1" xmlns="http://www.w3.org/2000/svg" xmlns:xlink="http://www.w3.org/1999/xlink" x="0px" y="0px"
	 width="48px" height="48px" viewBox="0 0 48 48" enable-background="new 0 0 48 48" xml:space="preserve">
<path fill="#335262" d="M46,25h-8.00098c-0.55228,0-1-0.44771-1-1v0c0-0.55228,0.44772-1,1-1H46c0.55228,0,1,0.44771,1,1v0
	C47,24.55229,46.55228,25,46,25z"/>
<path fill="#335262" d="M10,25H2c-0.55228,0-1-0.44771-1-1v0c0-0.55228,0.44771-1,1-1h8c0.55228,0,1,0.44771,1,1v0
	C11,24.55229,10.55229,25,10,25z"/>
<path fill="#72C472" d="M24,39c-8.271,0-15-6.729-15-15S15.729,9,24,9s15,6.729,15,15S32.271,39,24,39z"/>
<path fill="#FFFFFF" d="M21.29297,28.70703l-4-4c-0.39048-0.39048-0.39048-1.02358,0-1.41406l0,0
	c0.39048-0.39048,1.02358-0.39048,1.41406,0L22,26.58594l7.29297-7.29297c0.39048-0.39048,1.02358-0.39048,1.41406,0l0,0
	c0.39048,0.39048,0.39048,1.02358,0,1.41406l-8,8C22.31655,29.09751,21.68345,29.09751,21.29297,28.70703z"/>
</svg>
