<?xml version="1.0" encoding="utf-8"?>
<!-- Generator: Adobe Illustrator 19.1.0, SVG Export Plug-In . SVG Version: 6.00 Build 0)  -->
<!DOCTYPE svg PUBLIC "-//W3C//DTD SVG 1.1//EN" "http://www.w3.org/Graphics/SVG/1.1/DTD/svg11.dtd">
<svg version="1.1" id="Layer_1" xmlns="http://www.w3.org/2000/svg" xmlns:xlink="http://www.w3.org/1999/xlink" x="0px" y="0px"
	 width="48px" height="48px" viewBox="0 0 48 48" enable-background="new 0 0 48 48" xml:space="preserve">
<path fill="#72C472" d="M45.7583,19.6333L35.86621,2.5c-0.16553-0.28613-0.46143-0.47217-0.79053-0.49707
	c-0.33496-0.03125-0.65088,0.11426-0.85645,0.37256C30.60986,6.88721,25.7002,6.88232,20.50195,7
	C14.99658,7.12488,9.3136,7.37988,5.4425,13.05219l11.06281,18.80688c0.13416-0.07892,0.25201-0.18646,0.33844-0.32196
	c3.2998-5.18555,8.35352-5.41602,13.70361-5.53711c5.37646-0.12207,10.93555-0.13232,15.11816-5.23242
	C45.9292,20.44531,45.96631,19.99365,45.7583,19.6333z"/>
<path fill="#444444" d="M24.23633,46c-0.34277,0-0.67676-0.17627-0.86279-0.49316L2.44922,9.93555
	C2.16895,9.45947,2.32812,8.84668,2.8042,8.56689c0.47607-0.2793,1.08936-0.12061,1.36865,0.35498l20.92432,35.57129
	c0.28027,0.47607,0.12109,1.08887-0.35498,1.36865C24.58301,45.95557,24.40869,46,24.23633,46z"/>
</svg>
