<?xml version="1.0" encoding="utf-8"?>
<!-- Generator: Adobe Illustrator 19.1.0, SVG Export Plug-In . SVG Version: 6.00 Build 0)  -->
<!DOCTYPE svg PUBLIC "-//W3C//DTD SVG 1.1//EN" "http://www.w3.org/Graphics/SVG/1.1/DTD/svg11.dtd">
<svg version="1.1" id="Layer_1" xmlns="http://www.w3.org/2000/svg" xmlns:xlink="http://www.w3.org/1999/xlink" x="0px" y="0px"
	 width="48px" height="48px" viewBox="0 0 48 48" enable-background="new 0 0 48 48" xml:space="preserve">
<path fill="#9BCED3" d="M45.00002,47h-42c-0.36865,0-0.70752-0.20312-0.88184-0.52832
	c-0.17383-0.3252-0.15479-0.71973,0.0498-1.02637l8-12C10.35353,33.16699,10.66554,33,11.00002,33h26
	c0.33447,0,0.64648,0.16699,0.83203,0.44531l8,12c0.20459,0.30664,0.22363,0.70117,0.0498,1.02637
	C45.70753,46.79688,45.36867,47,45.00002,47z"/>
<path fill="#335262" d="M24,39L24,39c-0.55229,0-1-0.44772-1-1V24c0-0.55228,0.44771-1,1-1h0c0.55228,0,1,0.44771,1,1v14
	C25,38.55228,24.55229,39,24,39z"/>
<path fill="#E86C60" d="M24,25c-6.6167,0-12-5.3833-12-12S17.3833,1,24,1s12,5.3833,12,12S30.6167,25,24,25z"/>
</svg>
