<?xml version="1.0" encoding="utf-8"?>
<!-- Generator: Adobe Illustrator 19.1.0, SVG Export Plug-In . SVG Version: 6.00 Build 0)  -->
<!DOCTYPE svg PUBLIC "-//W3C//DTD SVG 1.1//EN" "http://www.w3.org/Graphics/SVG/1.1/DTD/svg11.dtd">
<svg version="1.1" id="Layer_1" xmlns="http://www.w3.org/2000/svg" xmlns:xlink="http://www.w3.org/1999/xlink" x="0px" y="0px"
	 width="48px" height="48px" viewBox="0 0 48 48" enable-background="new 0 0 48 48" xml:space="preserve">
<path fill-rule="evenodd" clip-rule="evenodd" fill="#448BC4" d="M32,1c-8.28424,0-15,6.7157-15,15
	c0,8.94913,11.35817,20.49665,14.30723,23.34404c0.38856,0.37516,0.99698,0.37516,1.38554,0C35.64183,36.49665,47,24.94913,47,16
	C47,7.7157,40.28424,1,32,1z"/>
<path fill-rule="evenodd" clip-rule="evenodd" fill="#42A6DD" d="M18,1.11227c-9.38881,0-17,7.61112-17,17
	C1,28.25461,13.8726,41.3418,17.21486,44.56885c0.44036,0.42518,1.12991,0.42518,1.57028,0
	C22.12741,41.3418,35,28.25461,35,18.11227C35,8.72339,27.38881,1.11227,18,1.11227z"/>
<circle fill="#FFFFFF" cx="18" cy="18" r="6"/>
</svg>
