<?xml version="1.0" encoding="utf-8"?>
<!-- Generator: Adobe Illustrator 19.1.0, SVG Export Plug-In . SVG Version: 6.00 Build 0)  -->
<!DOCTYPE svg PUBLIC "-//W3C//DTD SVG 1.1//EN" "http://www.w3.org/Graphics/SVG/1.1/DTD/svg11.dtd">
<svg version="1.1" id="Layer_1" xmlns="http://www.w3.org/2000/svg" xmlns:xlink="http://www.w3.org/1999/xlink" x="0px" y="0px"
	 width="48px" height="48px" viewBox="0 0 48 48" enable-background="new 0 0 48 48" xml:space="preserve">
<path fill="#42A6DD" d="M3.03662,4.26758l10,36c0.11279,0.40674,0.46875,0.69873,0.88965,0.72949
	C13.95117,40.99902,13.97559,41,14.00049,41c0.39258,0,0.75195-0.23096,0.91309-0.59375l7.84424-17.64844L3.29297,3.29297
	C3.03809,3.54785,2.93994,3.92041,3.03662,4.26758z"/>
<path fill="#448BC4" d="M40.26758,13.03662l-36-10C3.91943,2.93848,3.54785,3.03809,3.29297,3.29297l19.46484,19.46484
	l17.64844-7.84424c0.38574-0.17139,0.62207-0.56641,0.59082-0.9873C40.96631,13.50537,40.67432,13.14941,40.26758,13.03662z"/>
</svg>
