<?xml version="1.0" encoding="utf-8"?>
<!-- Generator: Adobe Illustrator 19.1.0, SVG Export Plug-In . SVG Version: 6.00 Build 0)  -->
<!DOCTYPE svg PUBLIC "-//W3C//DTD SVG 1.1//EN" "http://www.w3.org/Graphics/SVG/1.1/DTD/svg11.dtd">
<svg version="1.1" id="Layer_1" xmlns="http://www.w3.org/2000/svg" xmlns:xlink="http://www.w3.org/1999/xlink" x="0px" y="0px"
	 width="48px" height="48px" viewBox="0 0 48 48" enable-background="new 0 0 48 48" xml:space="preserve">
<path fill="#BFDEE0" d="M17.75781,9.02979l-16,4C1.31249,13.14111,1,13.54102,1,14v30c0,0.30811,0.1416,0.59863,0.38477,0.78809
	C1.56249,44.92676,1.7793,45,2,45c0.08105,0,0.16211-0.00977,0.24219-0.02979l15.71777-3.92969L18,41.05389V9.00458
	C17.9187,9.00458,17.8371,9.00977,17.75781,9.02979z"/>
<path fill="#76B5B4" d="M18.31641,9.05127C18.21375,9.01715,18.10699,9.00464,18,9.00458v32.04932l11.68359,3.89484
	C29.78577,44.98291,29.8927,44.99536,30,44.99536V12.94611L18.31641,9.05127z"/>
<path fill="#9BCED3" d="M46.61523,9.21191c-0.24316-0.18994-0.55957-0.25781-0.85742-0.18213l-15.71777,3.92969L30,12.94611
	v32.04926c0.08136,0,0.16302-0.00513,0.24219-0.02515l16-4C46.68749,40.85889,47,40.45898,47,40V10
	C47,9.69189,46.8584,9.40137,46.61523,9.21191z"/>
<path fill="#E6E6E6" d="M24,31c-8.27148,0-15-6.729-15-15S15.72852,1,24,1s15,6.729,15,15S32.27148,31,24,31z"/>
<circle fill="#FFFFFF" cx="24" cy="16" r="13"/>
<path fill="#42A6DD" d="M27.94824,19.31641l3-9c0.12012-0.35938,0.02637-0.75586-0.24121-1.02344
	c-0.2666-0.26807-0.66406-0.36133-1.02344-0.2417l-9,3c-0.14935,0.0498-0.28253,0.13324-0.39081,0.24152l7.41443,7.41443
	C27.81555,19.59888,27.89893,19.46564,27.94824,19.31641z"/>
<path fill="#E86C60" d="M20.29279,12.29279c-0.10834,0.10834-0.19171,0.24158-0.24103,0.39081l-3,9
	c-0.12012,0.35938-0.02637,0.75586,0.24121,1.02344C17.4834,22.89795,17.73926,23,18,23c0.10547,0,0.21289-0.0166,0.31641-0.05127
	l9-3c0.14935-0.0498,0.28253-0.13324,0.39081-0.24152L20.29279,12.29279z"/>
</svg>
