<?xml version="1.0" encoding="utf-8"?>
<!-- Generator: Adobe Illustrator 19.1.0, SVG Export Plug-In . SVG Version: 6.00 Build 0)  -->
<!DOCTYPE svg PUBLIC "-//W3C//DTD SVG 1.1//EN" "http://www.w3.org/Graphics/SVG/1.1/DTD/svg11.dtd">
<svg version="1.1" id="Layer_1" xmlns="http://www.w3.org/2000/svg" xmlns:xlink="http://www.w3.org/1999/xlink" x="0px" y="0px"
	 width="48px" height="48px" viewBox="0 0 48 48" enable-background="new 0 0 48 48" xml:space="preserve">
<path fill="#BFDEE0" d="M17.75781,9.02979l-16,4C1.31249,13.14111,1,13.54102,1,14v30c0,0.30811,0.1416,0.59863,0.38477,0.78809
	C1.56249,44.92676,1.7793,45,2,45c0.08105,0,0.16211-0.00977,0.24219-0.02979l15.71777-3.92969L18,41.05389V9.00458
	C17.9187,9.00458,17.8371,9.00977,17.75781,9.02979z"/>
<path fill="#76B5B4" d="M18.31641,9.05127C18.21375,9.01715,18.10699,9.00464,18,9.00458v32.04932l11.68359,3.89484
	C29.78577,44.98291,29.8927,44.99536,30,44.99536V12.94611L18.31641,9.05127z"/>
<path fill="#9BCED3" d="M46.61523,9.21191c-0.24316-0.18994-0.55957-0.25781-0.85742-0.18213l-15.71777,3.92969L30,12.94611
	v32.04926c0.08136,0,0.16302-0.00513,0.24219-0.02515l16-4C46.68748,40.85889,47,40.45898,47,40V10
	C47,9.69189,46.8584,9.40137,46.61523,9.21191z"/>
<path fill-rule="evenodd" clip-rule="evenodd" fill="#E86C60" d="M24,1c-6.07511,0-11,4.92485-11,11
	c0,6.5627,8.32933,15.03087,10.49197,17.11896c0.28494,0.27512,0.73112,0.27512,1.01606,0C26.67067,27.03087,35,18.5627,35,12
	C35,5.92485,30.07511,1,24,1z"/>
<circle fill-rule="evenodd" clip-rule="evenodd" fill="#FFFFFF" cx="24" cy="12" r="4"/>
</svg>
