<?xml version="1.0" encoding="utf-8"?>
<!-- Generator: Adobe Illustrator 19.1.0, SVG Export Plug-In . SVG Version: 6.00 Build 0)  -->
<!DOCTYPE svg PUBLIC "-//W3C//DTD SVG 1.1//EN" "http://www.w3.org/Graphics/SVG/1.1/DTD/svg11.dtd">
<svg version="1.1" id="Layer_1" xmlns="http://www.w3.org/2000/svg" xmlns:xlink="http://www.w3.org/1999/xlink" x="0px" y="0px"
	 width="48px" height="48px" viewBox="0 0 48 48" enable-background="new 0 0 48 48" xml:space="preserve">
<path fill="#BADEFC" d="M24,37c-7.16846,0-13-5.83154-13-13s5.83154-13,13-13s13,5.83154,13,13S31.16846,37,24,37z"/>
<path fill="#448BC4" d="M24,27c-1.6543,0-3-1.3457-3-3s1.3457-3,3-3s3,1.3457,3,3S25.6543,27,24,27z"/>
<path fill="#444444" d="M40,13c-2.75684,0-5-2.24316-5-5s2.24316-5,5-5s5,2.24316,5,5S42.75684,13,40,13z M40,5
	c-1.6543,0-3,1.3457-3,3s1.3457,3,3,3s3-1.3457,3-3S41.6543,5,40,5z"/>
<path fill="#BADEFC" d="M24,1C11.29749,1,1,11.29742,1,24s10.29749,23,23,23c12.70258,0,23-10.29742,23-23S36.70258,1,24,1z
	 M24,45.27271C12.2514,45.27271,2.72729,35.7486,2.72729,24S12.2514,2.72729,24,2.72729S45.27277,12.2514,45.27277,24
	S35.7486,45.27271,24,45.27271z"/>
<path fill="#E86C60" d="M40,13c-2.75684,0-5-2.24316-5-5s2.24316-5,5-5s5,2.24316,5,5S42.75684,13,40,13z"/>
</svg>
