<?xml version="1.0" encoding="utf-8"?>
<!-- Generator: Adobe Illustrator 19.1.0, SVG Export Plug-In . SVG Version: 6.00 Build 0)  -->
<!DOCTYPE svg PUBLIC "-//W3C//DTD SVG 1.1//EN" "http://www.w3.org/Graphics/SVG/1.1/DTD/svg11.dtd">
<svg version="1.1" id="Layer_1" xmlns="http://www.w3.org/2000/svg" xmlns:xlink="http://www.w3.org/1999/xlink" x="0px" y="0px"
	 width="48px" height="48px" viewBox="0 0 48 48" enable-background="new 0 0 48 48" xml:space="preserve">
<path fill="#BA66DD" d="M30,29H6c-0.55273,0-1-0.44775-1-1s0.44727-1,1-1h24c0.55273,0,1,0.44775,1,1S30.55273,29,30,29z"/>
<path fill="#D85B55" d="M44,37H18c-0.55273,0-1-0.44775-1-1V12c0-0.55225,0.44727-1,1-1h26
	c0.32129,0,0.62305,0.1543,0.81152,0.41553c0.1875,0.26074,0.23926,0.5957,0.13672,0.90088L41.05371,24l3.89453,11.68359
	c0.10254,0.30518,0.05078,0.64014-0.13672,0.90088C44.62305,36.8457,44.32129,37,44,37z"/>
<path fill="#C64B4B" d="M18,37c-0.16211,0-0.32422-0.03906-0.47168-0.11816C17.20312,36.70752,17,36.36865,17,36V12
	c0-0.55225,0.44727-1,1-1h12c0.55273,0,1,0.44775,1,1v16c0,0.33447-0.16699,0.64648-0.44531,0.83203l-12,8
	C18.3877,36.94336,18.19434,37,18,37z"/>
<path fill="#E86C60" d="M30,29H6c-0.55273,0-1-0.44775-1-1V4c0-0.55225,0.44727-1,1-1h24c0.55273,0,1,0.44775,1,1v24
	C31,28.55225,30.55273,29,30,29z"/>
<path fill="#444444" d="M6,47c-0.55273,0-1-0.44775-1-1V2c0-0.55225,0.44727-1,1-1s1,0.44775,1,1v44C7,46.55225,6.55273,47,6,47z"/>
</svg>
