<?xml version="1.0" encoding="utf-8"?>
<!-- Generator: Adobe Illustrator 19.1.0, SVG Export Plug-In . SVG Version: 6.00 Build 0)  -->
<!DOCTYPE svg PUBLIC "-//W3C//DTD SVG 1.1//EN" "http://www.w3.org/Graphics/SVG/1.1/DTD/svg11.dtd">
<svg version="1.1" id="Layer_1" xmlns="http://www.w3.org/2000/svg" xmlns:xlink="http://www.w3.org/1999/xlink" x="0px" y="0px"
	 width="48px" height="48px" viewBox="0 0 48 48" enable-background="new 0 0 48 48" xml:space="preserve">
<path fill-rule="evenodd" clip-rule="evenodd" fill="#42A6DD" d="M22,5C16.93835,5,9.25116,6.33032,5.02527,12.3429
	L17.44654,33.4591c0.03325-0.00412,0.03736-0.00463,0.07061-0.00876c5.34341-15.45167,18.17887-9.36975,25.78375-24.01159
	c0.33559-0.64611-0.10925-1.44054-0.83683-1.46731C34.145,7.66526,27.18408,5,22,5z"/>
<path fill="#444444" d="M24.23633,46c-0.34277,0-0.67676-0.17627-0.86279-0.49316L2.44922,9.93555
	C2.16895,9.45947,2.32812,8.84668,2.8042,8.56689c0.47656-0.2793,1.08984-0.12061,1.36865,0.35498l20.92432,35.57129
	c0.28027,0.47607,0.12109,1.08887-0.35498,1.36865C24.58301,45.95557,24.40869,46,24.23633,46z"/>
</svg>
