<?xml version="1.0" encoding="utf-8"?>
<!-- Generator: Adobe Illustrator 19.1.0, SVG Export Plug-In . SVG Version: 6.00 Build 0)  -->
<!DOCTYPE svg PUBLIC "-//W3C//DTD SVG 1.1//EN" "http://www.w3.org/Graphics/SVG/1.1/DTD/svg11.dtd">
<svg version="1.1" id="Layer_1" xmlns="http://www.w3.org/2000/svg" xmlns:xlink="http://www.w3.org/1999/xlink" x="0px" y="0px"
	 width="48px" height="48px" viewBox="0 0 48 48" enable-background="new 0 0 48 48" xml:space="preserve">
<path fill="#BFDEE0" d="M24,1C11.29749,1,1,11.29742,1,24s10.29749,23,23,23c12.70258,0,23-10.29742,23-23S36.70258,1,24,1z
	 M24,45.27271C12.2514,45.27271,2.72729,35.7486,2.72729,24S12.2514,2.72729,24,2.72729S45.27277,12.2514,45.27277,24
	S35.7486,45.27271,24,45.27271z"/>
<path fill="#E86C60" d="M40,13c-2.75684,0-5-2.24316-5-5s2.24316-5,5-5s5,2.24316,5,5S42.75684,13,40,13z"/>
<path fill-rule="evenodd" clip-rule="evenodd" fill="#5A7A84" d="M26,26h-4c-2.76143,0-5,2.23858-5,5c0,0.55228,0.44995,1,1.00685,1
	h11.98631C30.54922,32,31,31.54681,31,31C31,28.23858,28.76142,26,26,26z"/>
<circle fill-rule="evenodd" clip-rule="evenodd" fill="#5A7A84" cx="24" cy="20" r="4"/>
</svg>
