<?xml version="1.0" encoding="utf-8"?>
<!-- Generator: Adobe Illustrator 19.1.0, SVG Export Plug-In . SVG Version: 6.00 Build 0)  -->
<!DOCTYPE svg PUBLIC "-//W3C//DTD SVG 1.1//EN" "http://www.w3.org/Graphics/SVG/1.1/DTD/svg11.dtd">
<svg version="1.1" id="Layer_1" xmlns="http://www.w3.org/2000/svg" xmlns:xlink="http://www.w3.org/1999/xlink" x="0px" y="0px"
	 width="48px" height="48px" viewBox="0 0 48 48" enable-background="new 0 0 48 48" xml:space="preserve">
<path fill-rule="evenodd" clip-rule="evenodd" fill="#72C472" d="M24,1C14.61121,1,7,8.61115,7,18
	c0,10.1424,12.87262,23.22955,16.2149,26.4566c0.44031,0.42517,1.12988,0.42517,1.57025,0C28.12744,41.22955,41,28.1424,41,18
	C41,8.61115,33.38879,1,24,1z"/>
<path fill="#FFFFFF" d="M30,17h-5v-5c0-0.55225-0.44727-1-1-1s-1,0.44775-1,1v5h-5c-0.55273,0-1,0.44775-1,1s0.44727,1,1,1h5v5
	c0,0.55225,0.44727,1,1,1s1-0.44775,1-1v-5h5c0.55273,0,1-0.44775,1-1S30.55273,17,30,17z"/>
</svg>
