<?xml version="1.0" encoding="utf-8"?>
<!-- Generator: Adobe Illustrator 19.1.0, SVG Export Plug-In . SVG Version: 6.00 Build 0)  -->
<!DOCTYPE svg PUBLIC "-//W3C//DTD SVG 1.1//EN" "http://www.w3.org/Graphics/SVG/1.1/DTD/svg11.dtd">
<svg version="1.1" id="Layer_1" xmlns="http://www.w3.org/2000/svg" xmlns:xlink="http://www.w3.org/1999/xlink" x="0px" y="0px"
	 width="48px" height="48px" viewBox="0 0 48 48" enable-background="new 0 0 48 48" xml:space="preserve">
<path fill="#BFDEE0" d="M17.75781,7.02979l-16,4C1.31248,11.14111,1,11.54102,1,12v30c0,0.30811,0.1416,0.59863,0.38477,0.78809
	C1.56248,42.92676,1.7793,43,2,43c0.08105,0,0.16211-0.00977,0.24219-0.02979l15.71777-3.92969L18,39.05389V7.00458
	C17.9187,7.00458,17.8371,7.00977,17.75781,7.02979z"/>
<path fill="#76B5B4" d="M18.31641,7.05127C18.21375,7.01715,18.10699,7.00464,18,7.00458v32.04932l11.68359,3.89484
	C29.78577,42.98291,29.8927,42.99536,30,42.99536V10.94611L18.31641,7.05127z"/>
<path fill="#9BCED3" d="M46.61523,7.21191c-0.24316-0.18994-0.55957-0.25781-0.85742-0.18213l-15.71777,3.92969L30,10.94611
	v32.04926c0.08136,0,0.16302-0.00513,0.24219-0.02515l16-4C46.68748,38.85889,47,38.45898,47,38V8
	C47,7.69189,46.8584,7.40137,46.61523,7.21191z"/>
<path fill="#335262" d="M24,29L24,29c-0.55229,0-1-0.44771-1-1V17h2v11C25,28.55229,24.55229,29,24,29z"/>
<path fill="#E86C60" d="M24,19c-4.96289,0-9-4.0376-9-9s4.03711-9,9-9s9,4.0376,9,9S28.96289,19,24,19z"/>
</svg>
