<?xml version="1.0" encoding="utf-8"?>
<!-- Generator: Adobe Illustrator 19.1.0, SVG Export Plug-In . SVG Version: 6.00 Build 0)  -->
<!DOCTYPE svg PUBLIC "-//W3C//DTD SVG 1.1//EN" "http://www.w3.org/Graphics/SVG/1.1/DTD/svg11.dtd">
<svg version="1.1" id="Layer_1" xmlns="http://www.w3.org/2000/svg" xmlns:xlink="http://www.w3.org/1999/xlink" x="0px" y="0px"
	 width="48px" height="48px" viewBox="0 0 48 48" enable-background="new 0 0 48 48" xml:space="preserve">
<path fill="#B3B3B3" d="M24,1C11.31787,1,1,11.31787,1,24s10.31787,23,23,23s23-10.31787,23-23S36.68213,1,24,1z M25,44.94934V40
	c0-0.55225-0.44775-1-1-1s-1,0.44775-1,1v4.94934C12.21979,44.43793,3.56207,35.78021,3.05066,25H8c0.55225,0,1-0.44775,1-1
	s-0.44775-1-1-1H3.05066C3.56207,12.21979,12.21979,3.56207,23,3.05066V8c0,0.55225,0.44775,1,1,1s1-0.44775,1-1V3.05066
	C35.78021,3.56207,44.43793,12.21979,44.94934,23H40c-0.55225,0-1,0.44775-1,1s0.44775,1,1,1h4.94934
	C44.43793,35.78021,35.78021,44.43793,25,44.94934z"/>
<path fill="#E86C60" d="M18.80859,19.44092l-4.24268,12.72803c-0.11963,0.35938-0.02637,0.75586,0.2417,1.02344
	c0.19043,0.19092,0.44629,0.29297,0.70703,0.29297c0.10596,0,0.2124-0.0166,0.31641-0.05127l12.72803-4.24268
	c0.14917-0.0498,0.28235-0.1333,0.39069-0.24164l-9.89954-9.89954C18.94189,19.15857,18.8584,19.29175,18.80859,19.44092z"/>
<path fill="#42A6DD" d="M33.43408,15.83105c0.11963-0.35938,0.02637-0.75586-0.2417-1.02344
	c-0.26807-0.26904-0.66504-0.36328-1.02344-0.2417l-12.72803,4.24268c-0.14917,0.0498-0.28235,0.1333-0.39069,0.24164
	l9.89954,9.89954c0.10834-0.10834,0.19183-0.24152,0.24164-0.39069L33.43408,15.83105z"/>
</svg>
