<?xml version="1.0" encoding="utf-8"?>
<!-- Generator: Adobe Illustrator 19.1.0, SVG Export Plug-In . SVG Version: 6.00 Build 0)  -->
<!DOCTYPE svg PUBLIC "-//W3C//DTD SVG 1.1//EN" "http://www.w3.org/Graphics/SVG/1.1/DTD/svg11.dtd">
<svg version="1.1" id="Layer_1" xmlns="http://www.w3.org/2000/svg" xmlns:xlink="http://www.w3.org/1999/xlink" x="0px" y="0px"
	 width="48px" height="48px" viewBox="0 0 48 48" enable-background="new 0 0 48 48" xml:space="preserve">
<path fill="#335262" d="M46,23h-8.00098c-0.55225,0-1-0.44775-1-1s0.44775-1,1-1H46c0.55225,0,1,0.44775,1,1S46.55225,23,46,23z"/>
<path fill="#335262" d="M10,23H2c-0.55225,0-1-0.44775-1-1s0.44775-1,1-1h8c0.55225,0,1,0.44775,1,1S10.55225,23,10,23z"/>
<path fill="#EFD358" d="M24,37c-8.271,0-15-6.729-15-15S15.729,7,24,7s15,6.729,15,15S32.271,37,24,37z"/>
<path fill="#FFFFFF" d="M24,23c-0.55225,0-1-0.44775-1-1v-8c0-0.55225,0.44775-1,1-1s1,0.44775,1,1v8C25,22.55225,24.55225,23,24,23
	z"/>
<path fill="#FFFFFF" d="M24,30c-0.55225,0-1-0.44775-1-1v-1c0-0.55225,0.44775-1,1-1s1,0.44775,1,1v1C25,29.55225,24.55225,30,24,30
	z"/>
</svg>
