<?xml version="1.0" encoding="utf-8"?>
<!-- Generator: Adobe Illustrator 19.1.0, SVG Export Plug-In . SVG Version: 6.00 Build 0)  -->
<!DOCTYPE svg PUBLIC "-//W3C//DTD SVG 1.1//EN" "http://www.w3.org/Graphics/SVG/1.1/DTD/svg11.dtd">
<svg version="1.1" id="Layer_1" xmlns="http://www.w3.org/2000/svg" xmlns:xlink="http://www.w3.org/1999/xlink" x="0px" y="0px"
	 width="48px" height="48px" viewBox="0 0 48 48" enable-background="new 0 0 48 48" xml:space="preserve">
<path fill="#72C472" d="M24,45c-0.2666,0-0.52246-0.10645-0.70996-0.29541C22.625,44.03418,7,28.16992,7,18
	C7,7.35889,15.64355,1,24,1s17,6.35889,17,17c0,10.16992-15.625,26.03418-16.29004,26.70459C24.52246,44.89355,24.2666,45,24,45z"/>
<path fill="#4DA34D" d="M24,30.99951c-7.16846,0-13-5.83154-13-12.99951S16.83154,5.00049,24,5.00049S37,10.83203,37,18
	S31.16846,30.99951,24,30.99951z"/>
<path fill="#FFFFFF" d="M31,19h-7c-0.55273,0-1-0.44775-1-1v-7c0-0.55225,0.44727-1,1-1s1,0.44775,1,1v6h6c0.55273,0,1,0.44775,1,1
	S31.55273,19,31,19z"/>
</svg>
