<?xml version="1.0" encoding="utf-8"?>
<!-- Generator: Adobe Illustrator 19.1.0, SVG Export Plug-In . SVG Version: 6.00 Build 0)  -->
<!DOCTYPE svg PUBLIC "-//W3C//DTD SVG 1.1//EN" "http://www.w3.org/Graphics/SVG/1.1/DTD/svg11.dtd">
<svg version="1.1" id="Layer_1" xmlns="http://www.w3.org/2000/svg" xmlns:xlink="http://www.w3.org/1999/xlink" x="0px" y="0px"
	 width="48px" height="48px" viewBox="0 0 48 48" enable-background="new 0 0 48 48" xml:space="preserve">
<path fill="#9BCED3" d="M45,47H3c-0.36865,0-0.70752-0.20312-0.88184-0.52832c-0.17383-0.3252-0.15479-0.71973,0.0498-1.02637l8-12
	C10.35352,33.16699,10.66553,33,11,33h26c0.33447,0,0.64648,0.16699,0.83203,0.44531l8,12
	c0.20459,0.30664,0.22363,0.70117,0.0498,1.02637C45.70752,46.79688,45.36865,47,45,47z"/>
<path fill-rule="evenodd" clip-rule="evenodd" fill="#E86C60" d="M24,1C15.71576,1,9,7.7157,9,16
	c0,8.94913,11.35817,20.49665,14.30723,23.34404c0.38856,0.37516,0.99698,0.37516,1.38554,0C27.64183,36.49665,39,24.94913,39,16
	C39,7.7157,32.28424,1,24,1z"/>
<circle fill="#FFFFFF" cx="24" cy="16" r="5"/>
</svg>
