<?xml version="1.0" encoding="utf-8"?>
<!-- Generator: Adobe Illustrator 19.1.0, SVG Export Plug-In . SVG Version: 6.00 Build 0)  -->
<!DOCTYPE svg PUBLIC "-//W3C//DTD SVG 1.1//EN" "http://www.w3.org/Graphics/SVG/1.1/DTD/svg11.dtd">
<svg version="1.1" id="Layer_1" xmlns="http://www.w3.org/2000/svg" xmlns:xlink="http://www.w3.org/1999/xlink" x="0px" y="0px"
	 width="48px" height="48px" viewBox="0 0 48 48" enable-background="new 0 0 48 48" xml:space="preserve">
<path fill="#72C472" d="M40,45c-0.18457,0-0.36816-0.05078-0.53027-0.15186L24,35.1792L8.53027,44.84814
	c-0.30859,0.19336-0.69824,0.20264-1.01465,0.02637C7.19727,44.69824,7,44.36377,7,44V2c0-0.55225,0.44727-1,1-1h32
	c0.55273,0,1,0.44775,1,1v42c0,0.36377-0.19727,0.69824-0.51562,0.87451C40.33398,44.9585,40.16699,45,40,45z"/>
<path fill="#FFFFFF" d="M30,17h-5v-5c0-0.55225-0.44727-1-1-1s-1,0.44775-1,1v5h-5c-0.55273,0-1,0.44775-1,1s0.44727,1,1,1h5v5
	c0,0.55225,0.44727,1,1,1s1-0.44775,1-1v-5h5c0.55273,0,1-0.44775,1-1S30.55273,17,30,17z"/>
</svg>
