<?xml version="1.0" encoding="utf-8"?>
<!-- Generator: Adobe Illustrator 19.1.0, SVG Export Plug-In . SVG Version: 6.00 Build 0)  -->
<!DOCTYPE svg PUBLIC "-//W3C//DTD SVG 1.1//EN" "http://www.w3.org/Graphics/SVG/1.1/DTD/svg11.dtd">
<svg version="1.1" id="Layer_1" xmlns="http://www.w3.org/2000/svg" xmlns:xlink="http://www.w3.org/1999/xlink" x="0px" y="0px"
	 width="48px" height="48px" viewBox="0 0 48 48" enable-background="new 0 0 48 48" xml:space="preserve">
<rect x="22" y="26" fill="#B3B3B3" width="4" height="20"/>
<path fill="#E86C60" d="M24,27c-7.16846,0-13-5.83154-13-13S16.83154,1,24,1s13,5.83154,13,13S31.16846,27,24,27z"/>
<path fill="#444444" d="M36,47H12c-0.55228,0-1-0.44772-1-1l0,0c0-0.55228,0.44771-1,1-1h24c0.55228,0,1,0.44772,1,1l0,0
	C37,46.55228,36.55228,47,36,47z"/>
</svg>
