<?xml version="1.0" encoding="utf-8"?>
<!-- Generator: Adobe Illustrator 19.1.0, SVG Export Plug-In . SVG Version: 6.00 Build 0)  -->
<!DOCTYPE svg PUBLIC "-//W3C//DTD SVG 1.1//EN" "http://www.w3.org/Graphics/SVG/1.1/DTD/svg11.dtd">
<svg version="1.1" id="Layer_1" xmlns="http://www.w3.org/2000/svg" xmlns:xlink="http://www.w3.org/1999/xlink" x="0px" y="0px"
	 width="48px" height="48px" viewBox="0 0 48 48" enable-background="new 0 0 48 48" xml:space="preserve">
<path fill="#B3B3B3" d="M24,5c-0.55273,0-1-0.44775-1-1V2c0-0.55225,0.44727-1,1-1s1,0.44775,1,1v2C25,4.55225,24.55273,5,24,5z"/>
<path fill="#B3B3B3" d="M46,25h-2c-0.55273,0-1-0.44775-1-1s0.44727-1,1-1h2c0.55273,0,1,0.44775,1,1S46.55273,25,46,25z"/>
<path fill="#B3B3B3" d="M24,47c-0.55273,0-1-0.44775-1-1v-2c0-0.55225,0.44727-1,1-1s1,0.44775,1,1v2C25,46.55225,24.55273,47,24,47
	z"/>
<path fill="#B3B3B3" d="M4,25H2c-0.55273,0-1-0.44775-1-1s0.44727-1,1-1h2c0.55273,0,1,0.44775,1,1S4.55273,25,4,25z"/>
<path fill="#C64B4B" d="M24,29c-1.37842,0-2.62842-0.56079-3.53381-1.46619L7.29297,40.70703C7.4834,40.89795,7.73926,41,8,41
	c0.10547,0,0.21289-0.0166,0.31641-0.05127l24-8c0.14935-0.0498,0.28253-0.13324,0.39081-0.24152l-5.1734-5.1734
	C26.62842,28.43921,25.37842,29,24,29z"/>
<path fill="#E86C60" d="M19,24c0-1.37842,0.56079-2.62842,1.46619-3.53381l-5.1734-5.1734
	c-0.10834,0.10834-0.19171,0.24158-0.24103,0.39081l-8,24c-0.12012,0.35938-0.02637,0.75586,0.24121,1.02344l13.17322-13.17322
	C19.56079,26.62842,19,25.37842,19,24z"/>
<path fill="#448BC4" d="M27.53381,20.46619C28.43921,21.37158,29,22.62158,29,24s-0.56079,2.62842-1.46619,3.53381l5.1734,5.1734
	c0.10834-0.10834,0.19171-0.24158,0.24103-0.39081l8-24c0.12012-0.35938,0.02637-0.75586-0.24121-1.02344L27.53381,20.46619z"/>
<path fill="#42A6DD" d="M24,19c1.37842,0,2.62842,0.56079,3.53381,1.46619L40.70703,7.29297
	c-0.26758-0.26758-0.66406-0.36182-1.02344-0.2417l-24,8c-0.14935,0.0498-0.28253,0.13324-0.39081,0.24152l5.1734,5.1734
	C21.37158,19.56079,22.62158,19,24,19z"/>
<path fill="#FFFFFF" d="M27.53381,20.46619C26.62842,19.56079,25.37842,19,24,19s-2.62842,0.56079-3.53381,1.46619
	S19,22.62158,19,24s0.56079,2.62842,1.46619,3.53381S22.62158,29,24,29s2.62842-0.56079,3.53381-1.46619S29,25.37842,29,24
	S28.43921,21.37158,27.53381,20.46619z"/>
</svg>
