<?xml version="1.0" encoding="utf-8"?>
<!-- Generator: Adobe Illustrator 19.1.0, SVG Export Plug-In . SVG Version: 6.00 Build 0)  -->
<!DOCTYPE svg PUBLIC "-//W3C//DTD SVG 1.1//EN" "http://www.w3.org/Graphics/SVG/1.1/DTD/svg11.dtd">
<svg version="1.1" id="Layer_1" xmlns="http://www.w3.org/2000/svg" xmlns:xlink="http://www.w3.org/1999/xlink" x="0px" y="0px"
	 width="48px" height="48px" viewBox="0 0 48 48" enable-background="new 0 0 48 48" xml:space="preserve">
<path fill="#42A6DD" d="M26.70636,37.2923l-5.99933-5.99933c-0.39062-0.39062-1.02344-0.39062-1.41406,0s-0.39062,1.02344,0,1.41406
	L23.58594,37H11c-4.41113,0-8-3.58887-8-8s3.58887-8,8-8h12.99902c0.55273,0,1-0.44775,1-1s-0.44727-1-1-1H11
	C5.48633,19,1,23.48584,1,29s4.48633,10,10,10h12.58594l-4.29297,4.29297c-0.39062,0.39062-0.39062,1.02344,0,1.41406
	C19.48828,44.90234,19.74414,45,20,45s0.51172-0.09766,0.70703-0.29297l5.99933-5.99933
	C27.09525,38.31958,27.09525,37.68042,26.70636,37.2923z"/>
<path fill="#42A6DD" d="M37,21h-0.99902c-0.55273,0-1-0.44775-1-1s0.44727-1,1-1H37c4.41113,0,8-3.58887,8-8s-3.58887-8-8-8H20
	c-0.55273,0-1-0.44775-1-1s0.44727-1,1-1h17c5.51367,0,10,4.48584,10,10S42.51367,21,37,21z"/>
<path fill="#E86C60" d="M30,27c-3.85938,0-7-3.14014-7-7s3.14062-7,7-7s7,3.14014,7,7S33.85938,27,30,27z"/>
</svg>
