<?xml version="1.0" encoding="utf-8"?>
<!-- Generator: Adobe Illustrator 19.1.0, SVG Export Plug-In . SVG Version: 6.00 Build 0)  -->
<!DOCTYPE svg PUBLIC "-//W3C//DTD SVG 1.1//EN" "http://www.w3.org/Graphics/SVG/1.1/DTD/svg11.dtd">
<svg version="1.1" id="Layer_1" xmlns="http://www.w3.org/2000/svg" xmlns:xlink="http://www.w3.org/1999/xlink" x="0px" y="0px"
	 width="48px" height="48px" viewBox="0 0 48 48" enable-background="new 0 0 48 48" xml:space="preserve">
<path fill="#76B5B4" d="M18.29395,3.04427C18.19824,3.01424,18.09924,3.00277,18,3.00289v38.04309l12.70605,3.90942
	c0.09564,0.02972,0.1947,0.04211,0.29395,0.04211V6.95382L18.29395,3.04427z"/>
<path fill="#BFDEE0" d="M17.75732,3.02963l-16,4C1.3125,7.14095,1,7.54086,1,7.99984v36c0,0.30811,0.14209,0.59863,0.38477,0.78809
	C1.56201,44.9266,1.7793,44.99984,2,44.99984c0.08105,0,0.1626-0.00977,0.24268-0.02979l15.72949-3.93262L18,41.04598V3.00289
	C17.91852,3.00295,17.83679,3.00979,17.75732,3.02963z"/>
<path fill="#9BCED3" d="M46.60938,3.20687c-0.24561-0.18945-0.56689-0.25244-0.86719-0.17334L31.01953,6.9598L31,6.95382v38.0437
	c0.08673,0,0.17358-0.00885,0.25781-0.03137l15-4C46.69531,40.84945,47,40.45296,47,39.99984v-36
	C47,3.68929,46.85547,3.39632,46.60938,3.20687z"/>
<path fill="#335262" d="M35.41406,24l3.29297-3.29297c0.39062-0.39062,0.39062-1.02344,0-1.41406s-1.02344-0.39062-1.41406,0
	L34,22.58594l-3.29297-3.29297c-0.39062-0.39062-1.02344-0.39062-1.41406,0s-0.39062,1.02344,0,1.41406L32.58594,24
	l-3.29297,3.29297c-0.39062,0.39062-0.39062,1.02344,0,1.41406C29.48828,28.90234,29.74414,29,30,29
	s0.51172-0.09766,0.70703-0.29297L34,25.41406l3.29297,3.29297C37.48828,28.90234,37.74414,29,38,29
	s0.51172-0.09766,0.70703-0.29297c0.39062-0.39062,0.39062-1.02344,0-1.41406L35.41406,24z"/>
<path fill="#335262" d="M13,25H9c-0.55225,0-1-0.44775-1-1s0.44775-1,1-1h4c0.55225,0,1,0.44775,1,1S13.55225,25,13,25z"/>
<path fill="#335262" d="M23,25h-4c-0.55225,0-1-0.44775-1-1s0.44775-1,1-1h4c0.55225,0,1,0.44775,1,1S23.55225,25,23,25z"/>
</svg>
