<?xml version="1.0" encoding="utf-8"?>
<!-- Generator: Adobe Illustrator 19.1.0, SVG Export Plug-In . SVG Version: 6.00 Build 0)  -->
<!DOCTYPE svg PUBLIC "-//W3C//DTD SVG 1.1//EN" "http://www.w3.org/Graphics/SVG/1.1/DTD/svg11.dtd">
<svg version="1.1" id="Layer_1" xmlns="http://www.w3.org/2000/svg" xmlns:xlink="http://www.w3.org/1999/xlink" x="0px" y="0px"
	 width="48px" height="48px" viewBox="0 0 48 48" enable-background="new 0 0 48 48" xml:space="preserve">
<path fill="#42A6DD" d="M40.00001,31h-32c-0.55228,0-1-0.44772-1-1V6c0-0.55228,0.44772-1,1-1h32c0.55228,0,1,0.44772,1,1v24
	C41.00001,30.55228,40.55229,31,40.00001,31z"/>
<path fill="#444444" d="M7.99999,47c-0.55225,0-1-0.44775-1-1V2c0-0.55225,0.44775-1,1-1s1,0.44775,1,1v44
	C8.99999,46.55225,8.55224,47,7.99999,47z"/>
</svg>
