<?xml version="1.0" encoding="utf-8"?>
<!-- Generator: Adobe Illustrator 19.1.0, SVG Export Plug-In . SVG Version: 6.00 Build 0)  -->
<!DOCTYPE svg PUBLIC "-//W3C//DTD SVG 1.1//EN" "http://www.w3.org/Graphics/SVG/1.1/DTD/svg11.dtd">
<svg version="1.1" id="Layer_1" xmlns="http://www.w3.org/2000/svg" xmlns:xlink="http://www.w3.org/1999/xlink" x="0px" y="0px"
	 width="48px" height="48px" viewBox="0 0 48 48" enable-background="new 0 0 48 48" xml:space="preserve">
<path fill="#B3B3B3" d="M24,43C13.52344,43,5,34.47656,5,24S13.52344,5,24,5s19,8.52344,19,19S34.47656,43,24,43z M24,7
	C14.62598,7,7,14.62598,7,24s7.62598,17,17,17s17-7.62598,17-17S33.37402,7,24,7z"/>
<path fill="#E86C60" d="M24,11c-0.55273,0-1-0.44775-1-1V2c0-0.55225,0.44727-1,1-1s1,0.44775,1,1v8C25,10.55225,24.55273,11,24,11z
	"/>
<path fill="#E86C60" d="M46,25h-8c-0.55273,0-1-0.44775-1-1s0.44727-1,1-1h8c0.55273,0,1,0.44775,1,1S46.55273,25,46,25z"/>
<path fill="#E86C60" d="M24,47c-0.55273,0-1-0.44775-1-1v-8c0-0.55225,0.44727-1,1-1s1,0.44775,1,1v8C25,46.55225,24.55273,47,24,47
	z"/>
<path fill="#E86C60" d="M10,25H2c-0.55273,0-1-0.44775-1-1s0.44727-1,1-1h8c0.55273,0,1,0.44775,1,1S10.55273,25,10,25z"/>
<path fill="#E86C60" d="M24,27c-1.6543,0-3-1.3457-3-3s1.3457-3,3-3s3,1.3457,3,3S25.6543,27,24,27z"/>
</svg>
