<?xml version="1.0" encoding="utf-8"?>
<!-- Generator: Adobe Illustrator 19.1.0, SVG Export Plug-In . SVG Version: 6.00 Build 0)  -->
<!DOCTYPE svg PUBLIC "-//W3C//DTD SVG 1.1//EN" "http://www.w3.org/Graphics/SVG/1.1/DTD/svg11.dtd">
<svg version="1.1" id="Layer_1" xmlns="http://www.w3.org/2000/svg" xmlns:xlink="http://www.w3.org/1999/xlink" x="0px" y="0px"
	 width="48px" height="48px" viewBox="0 0 48 48" enable-background="new 0 0 48 48" xml:space="preserve">
<ellipse fill-rule="evenodd" clip-rule="evenodd" fill="#9BCED3" cx="24" cy="40" rx="22" ry="6"/>
<circle fill="#5A7A84" cx="24" cy="7" r="5"/>
<path fill-rule="evenodd" clip-rule="evenodd" fill="#335262" d="M20.9967,14C18.2371,14,16,16.24792,16,19.00163v7.80591
	c0,0.54812,0.41714,1.15932,0.93277,1.36557L19,29l0.9095,10.00443C19.9595,39.55426,20.453,40,20.997,40h6.006
	c0.5506,0,1.0374-0.44484,1.0875-0.99557L29,29l2.0508-0.68359C31.575,28.14166,32,27.55005,32,26.99315v-7.99812
	C32,16.23635,29.7584,14,27.0033,14H20.9967z"/>
</svg>
