<?xml version="1.0" encoding="utf-8"?>
<!-- Generator: Adobe Illustrator 19.1.0, SVG Export Plug-In . SVG Version: 6.00 Build 0)  -->
<!DOCTYPE svg PUBLIC "-//W3C//DTD SVG 1.1//EN" "http://www.w3.org/Graphics/SVG/1.1/DTD/svg11.dtd">
<svg version="1.1" id="Layer_1" xmlns="http://www.w3.org/2000/svg" xmlns:xlink="http://www.w3.org/1999/xlink" x="0px" y="0px"
	 width="48px" height="48px" viewBox="0 0 48 48" enable-background="new 0 0 48 48" xml:space="preserve">
<path fill="#BFDEE0" d="M40,9H6C5.82904,9,5.66394,8.97711,5.50073,8.94952C5.3349,8.97046,5.17151,9,5,9
	C3.01929,9,1.38611,7.55695,1.0672,5.66699C1.0296,5.77222,1,5.8819,1,6v26c0,3.85986,3.14062,7,7,7h34
	c0.17096,0,0.33606,0.02289,0.49927,0.05048C42.6651,39.02954,42.82849,39,43,39c1.98077,0,3.61389,1.44312,3.9328,3.33319
	C46.9704,42.22791,47,42.11816,47,42V16C47,12.14014,43.85938,9,40,9z"/>
<path fill="#335262" d="M35.41406,24l3.29297-3.29297c0.39062-0.39062,0.39062-1.02344,0-1.41406s-1.02344-0.39062-1.41406,0
	L34,22.58594l-3.29297-3.29297c-0.39062-0.39062-1.02344-0.39062-1.41406,0s-0.39062,1.02344,0,1.41406L32.58594,24
	l-3.29297,3.29297c-0.39062,0.39062-0.39062,1.02344,0,1.41406C29.48828,28.90234,29.74414,29,30,29
	s0.51172-0.09766,0.70703-0.29297L34,25.41406l3.29297,3.29297C37.48828,28.90234,37.74414,29,38,29
	s0.51172-0.09766,0.70703-0.29297c0.39062-0.39062,0.39062-1.02344,0-1.41406L35.41406,24z"/>
<path fill="#335262" d="M12,25H8c-0.55273,0-1-0.44775-1-1s0.44727-1,1-1h4c0.55273,0,1,0.44775,1,1S12.55273,25,12,25z"/>
<path fill="#335262" d="M22,25h-4c-0.55273,0-1-0.44775-1-1s0.44727-1,1-1h4c0.55273,0,1,0.44775,1,1S22.55273,25,22,25z"/>
<path fill="#76B5B4" d="M5,1C2.79083,1,1,2.79083,1,5c0,2.20911,1.79083,4,4,4h4V1H5z"/>
<path fill="#76B5B4" d="M43,39c2.20917,0,4,1.79083,4,4c0,2.20911-1.79083,4-4,4h-4v-8H43z"/>
</svg>
