<?xml version="1.0" encoding="utf-8"?>
<!-- Generator: Adobe Illustrator 19.1.0, SVG Export Plug-In . SVG Version: 6.00 Build 0)  -->
<!DOCTYPE svg PUBLIC "-//W3C//DTD SVG 1.1//EN" "http://www.w3.org/Graphics/SVG/1.1/DTD/svg11.dtd">
<svg version="1.1" id="Layer_1" xmlns="http://www.w3.org/2000/svg" xmlns:xlink="http://www.w3.org/1999/xlink" x="0px" y="0px"
	 width="48px" height="48px" viewBox="0 0 48 48" enable-background="new 0 0 48 48" xml:space="preserve">
<path fill="#BFDEE0" d="M17.75781,3.03006l-16,4C1.3125,7.14139,1,7.54129,1,8.00027v30c0,0.30811,0.1416,0.59863,0.38477,0.78809
	C1.5625,38.92703,1.7793,39.00027,2,39.00027c0.08105,0,0.16211-0.00977,0.24219-0.02979l15.71777-3.92969L18,35.05417V3.00485
	C17.9187,3.00485,17.8371,3.01004,17.75781,3.03006z"/>
<path fill="#76B5B4" d="M18.31641,3.05154C18.21375,3.01742,18.10699,3.00491,18,3.00485v32.04932l11.68359,3.89484
	C29.78577,38.98318,29.8927,38.99564,30,38.99564V6.94638L18.31641,3.05154z"/>
<path fill="#9BCED3" d="M46.61523,3.21219c-0.24316-0.18994-0.55957-0.25781-0.85742-0.18213L30.04004,6.95975L30,6.94638v32.04926
	c0.08136,0,0.16302-0.00513,0.24219-0.02515l16-4C46.6875,34.85916,47,34.45926,47,34.00027v-30
	C47,3.69217,46.8584,3.40164,46.61523,3.21219z"/>
<path fill="#E86C60" d="M12.04346,19.29102l7,23c0.12109,0.39795,0.47607,0.67969,0.89111,0.70703
	C19.95654,42.99951,19.97852,43,20.00049,43c0.38965,0,0.74707-0.22754,0.90967-0.58643l4.84521-10.6582l-13.4624-13.4624
	C12.03174,18.5542,11.93604,18.93799,12.04346,19.29102z"/>
<path fill="#C64B4B" d="M36.29102,25.04346l-23-7c-0.35352-0.10742-0.73682-0.01172-0.99805,0.24951l13.4624,13.4624
	l10.6582-4.84521c0.37891-0.17188,0.61133-0.56055,0.58447-0.97559C36.9707,25.51953,36.68896,25.16455,36.29102,25.04346z"/>
</svg>
