<?xml version="1.0" encoding="utf-8"?>
<!-- Generator: Adobe Illustrator 19.1.0, SVG Export Plug-In . SVG Version: 6.00 Build 0)  -->
<!DOCTYPE svg PUBLIC "-//W3C//DTD SVG 1.1//EN" "http://www.w3.org/Graphics/SVG/1.1/DTD/svg11.dtd">
<svg version="1.1" id="Layer_1" xmlns="http://www.w3.org/2000/svg" xmlns:xlink="http://www.w3.org/1999/xlink" x="0px" y="0px"
	 width="48px" height="48px" viewBox="0 0 48 48" enable-background="new 0 0 48 48" xml:space="preserve">
<path d="M16,47h28c0.55273,0,1-0.44775,1-1v-8V16c0-8.271-6.72852-15-15-15S15,7.729,15,16v5.4165l-0.68652-0.68652
	c-1.13379-1.1333-2.64062-1.75732-4.24316-1.75732s-3.10938,0.62402-4.24219,1.75732
	c-1.13379,1.1333-1.75781,2.63965-1.75781,4.24219c0,1.60303,0.62402,3.10938,1.75684,4.2417L15,38.41321V46
	C15,46.55225,15.44727,47,16,47z M17,39h8v6h-8V39z M33,39v6h-6v-6H33z M35,45v-6h8v6H35z M6.07031,24.97217
	c0-1.06787,0.41602-2.07227,1.17188-2.82812c1.51172-1.51074,4.14551-1.51074,5.65723,0l2.39355,2.39404
	c0.28711,0.28711,0.7168,0.37207,1.08984,0.2168C16.75586,24.6001,17,24.23535,17,23.83105V16c0-7.16846,5.83203-13,13-13
	s13,5.83154,13,13v21H16.41504l-9.17285-9.19922C6.48633,27.04492,6.07031,26.04053,6.07031,24.97217z"/>
</svg>
