<?xml version="1.0" encoding="utf-8"?>
<!-- Generator: Adobe Illustrator 19.1.0, SVG Export Plug-In . SVG Version: 6.00 Build 0)  -->
<!DOCTYPE svg PUBLIC "-//W3C//DTD SVG 1.1//EN" "http://www.w3.org/Graphics/SVG/1.1/DTD/svg11.dtd">
<svg version="1.1" id="Layer_1" xmlns="http://www.w3.org/2000/svg" xmlns:xlink="http://www.w3.org/1999/xlink" x="0px" y="0px"
	 width="48px" height="48px" viewBox="0 0 48 48" enable-background="new 0 0 48 48" xml:space="preserve">
<path d="M21,9c-0.55225,0-1,0.44775-1,1v2c0,0.55225,0.44775,1,1,1s1-0.44775,1-1v-2C22,9.44775,21.55225,9,21,9z"/>
<path d="M12,21c-0.55225,0-1,0.44775-1,1v2c0,0.55225,0.44775,1,1,1s1-0.44775,1-1v-2C13,21.44775,12.55225,21,12,21z"/>
<path d="M34,16c-0.55225,0-1,0.44775-1,1v2c0,0.55225,0.44775,1,1,1s1-0.44775,1-1v-2C35,16.44775,34.55225,16,34,16z"/>
<path d="M24,1C11.31787,1,1,11.31787,1,24v15v7c0,0.55225,0.44775,1,1,1h44c0.55225,0,1-0.44775,1-1v-7V24
	C47,11.31787,36.68213,1,24,1z M45,45H3v-5h42V45z M45,38H25v-4h6c0.35791,0,0.68896-0.19141,0.86719-0.50195
	s0.17725-0.69238-0.00342-1.00195l-7-12c-0.3584-0.61426-1.36914-0.61426-1.72754,0l-7,12
	c-0.18066,0.30957-0.18164,0.69141-0.00342,1.00195S16.64209,34,17,34h6v4H3V24C3,12.42041,12.42041,3,24,3s21,9.42041,21,21V38z
	 M18.74121,32L24,22.98486L29.25879,32H18.74121z"/>
</svg>
