<?xml version="1.0" encoding="utf-8"?>
<!-- Generator: Adobe Illustrator 19.1.0, SVG Export Plug-In . SVG Version: 6.00 Build 0)  -->
<!DOCTYPE svg PUBLIC "-//W3C//DTD SVG 1.1//EN" "http://www.w3.org/Graphics/SVG/1.1/DTD/svg11.dtd">
<svg version="1.1" id="Layer_1" xmlns="http://www.w3.org/2000/svg" xmlns:xlink="http://www.w3.org/1999/xlink" x="0px" y="0px"
	 width="48px" height="48px" viewBox="0 0 48 48" enable-background="new 0 0 48 48" xml:space="preserve">
<path d="M31.39258,38.20605C30.69824,38.72559,29.87109,39,29,39c-1.77661,0-3.28052-1.14508-3.79193-2.79401l2.47455-2.47455
	c0.45898-0.45898,0.5957-1.14355,0.34668-1.74414C27.78125,31.3877,27.20117,31,26.55176,31h-5.10352
	c-0.64941,0-1.22949,0.3877-1.47754,0.9873c-0.24902,0.60059-0.1123,1.28516,0.34668,1.74414l2.47455,2.47455
	C22.28052,37.85492,20.77661,39,19,39c-0.87109,0-1.69824-0.27441-2.39258-0.79395
	c-0.44336-0.33203-1.06934-0.24023-1.39941,0.20215c-0.33105,0.44141-0.24023,1.06836,0.20215,1.39941
	C16.45215,40.58789,17.69336,41,19,41c2.09674,0,3.93011-1.07141,5-2.72498C25.06989,39.92859,26.90326,41,29,41
	c1.30664,0,2.54785-0.41211,3.58984-1.19238c0.44238-0.33105,0.5332-0.95801,0.20215-1.39941
	C32.46191,37.96582,31.83496,37.87402,31.39258,38.20605z M25.58594,33L24,34.58594L22.41406,33H25.58594z"/>
<path d="M19,24c0-1.6543-1.3457-3-3-3s-3,1.3457-3,3s1.3457,3,3,3S19,25.6543,19,24z M15,24c0-0.55176,0.44824-1,1-1s1,0.44824,1,1
	s-0.44824,1-1,1S15,24.55176,15,24z"/>
<path d="M32,27c1.6543,0,3-1.3457,3-3s-1.3457-3-3-3s-3,1.3457-3,3S30.3457,27,32,27z M32,23c0.55176,0,1,0.44824,1,1
	s-0.44824,1-1,1s-1-0.44824-1-1S31.44824,23,32,23z"/>
<path d="M44.83594,28.01367l-1.85229,0.30872C42.98547,28.21399,43,28.10883,43,28V4c0-0.38477-0.2207-0.73438-0.56641-0.90137
	C42.08496,2.93262,41.6748,2.97852,41.375,3.21875l-9.50098,7.60156C30.61523,10.23047,27.55957,9,24,9
	s-6.61523,1.23047-7.87402,1.82031L6.625,3.21875C6.32422,2.97852,5.91113,2.93164,5.56641,3.09863C5.2207,3.26562,5,3.61523,5,4v24
	c0,0.10883,0.01453,0.21399,0.01636,0.32239l-1.85229-0.30872c-0.54297-0.09766-1.06055,0.27734-1.15039,0.82227
	c-0.09082,0.54395,0.27734,1.05957,0.82227,1.15039l2.32886,0.38812c0.27448,2.18689,0.92242,4.25488,1.87726,6.14703
	L4.7832,37.02344c-0.53906,0.12012-0.87891,0.6543-0.75977,1.19336C4.12695,38.68262,4.54102,39,4.99902,39
	c0.07227,0,0.14453-0.00781,0.21777-0.02344l2.86487-0.63666C11.47443,43.54504,17.33691,47,24,47s12.52557-3.45496,15.91833-8.6601
	l2.86487,0.63666C42.85645,38.99219,42.92871,39,43.00098,39c0.45801,0,0.87207-0.31738,0.97559-0.7832
	c0.11914-0.53906-0.2207-1.07324-0.75977-1.19336l-2.25885-0.50195c0.95483-1.89215,1.60278-3.96014,1.87726-6.14703
	l2.32886-0.38812c0.54492-0.09082,0.91309-0.60645,0.82227-1.15039C45.89551,28.29102,45.38086,27.91699,44.83594,28.01367z
	 M38.95496,36.07635l-4.73816-1.05292c-0.53516-0.1123-1.07324,0.2207-1.19336,0.75977
	c-0.11914,0.53906,0.2207,1.07324,0.75977,1.19336l4.02991,0.89551C34.72601,42.17896,29.69147,45,24,45
	s-10.72601-2.82104-13.81311-7.12793l4.02991-0.89551c0.53906-0.12012,0.87891-0.6543,0.75977-1.19336
	c-0.12012-0.53906-0.6543-0.87305-1.19336-0.75977l-4.73816,1.05292c-0.8894-1.64038-1.49762-3.44861-1.80646-5.35626
	l7.59735,1.26624C14.8916,31.99609,14.94629,32,15.00098,32c0.48047,0,0.9043-0.34668,0.98535-0.83594
	c0.09082-0.54395-0.27734-1.05957-0.82227-1.15039l-8.13068-1.3551C7.0249,28.43829,7,28.22229,7,28V6.08105l8.375,6.7002
	c0.31543,0.25098,0.75195,0.28906,1.10645,0.09473C16.5166,12.85742,19.95117,11,24,11s7.4834,1.85742,7.51855,1.87598
	c0.35352,0.19531,0.79004,0.15625,1.10645-0.09473L41,6.08105V28c0,0.22229-0.0249,0.43829-0.03339,0.65857l-8.13068,1.3551
	c-0.54492,0.09082-0.91309,0.60645-0.82227,1.15039C32.09473,31.65332,32.51855,32,32.99902,32
	c0.05469,0,0.10938-0.00391,0.16504-0.01367l7.59735-1.26624C40.45258,32.62775,39.84436,34.43597,38.95496,36.07635z"/>
</svg>
