<?xml version="1.0" encoding="utf-8"?>
<!-- Generator: Adobe Illustrator 19.1.0, SVG Export Plug-In . SVG Version: 6.00 Build 0)  -->
<!DOCTYPE svg PUBLIC "-//W3C//DTD SVG 1.1//EN" "http://www.w3.org/Graphics/SVG/1.1/DTD/svg11.dtd">
<svg version="1.1" id="Layer_1" xmlns="http://www.w3.org/2000/svg" xmlns:xlink="http://www.w3.org/1999/xlink" x="0px" y="0px"
	 width="48px" height="48px" viewBox="0 0 48 48" enable-background="new 0 0 48 48" xml:space="preserve">
<path d="M42.72693,27.23523C42.89343,26.15814,43,25.07471,43,24c0-11.57959-9.4209-21-21-21S1,12.42041,1,24s9.4209,21,21,21
	c8.02435,0,15.3396-4.59076,18.8399-11.73962c0.32373,0.00885,0.64227,0.01501,0.94818,0.01501
	c1.97168-0.00049,3.54492-0.19189,4.33496-0.68359c0.56152-0.34912,0.76367-0.79395,0.83496-1.10547
	C47.2699,30.10974,45.43848,28.63177,42.72693,27.23523z M22,43C11.52344,43,3,34.47656,3,24S11.52344,5,22,5s19,8.52344,19,19
	c0,0.77435-0.06616,1.55444-0.16229,2.33344c-6.4126-2.85205-15.55359-5.16058-15.69904-5.19525
	c-1.2959-0.31104-2.63965-0.09668-3.7793,0.60156c-1.1377,0.69873-1.93555,1.79932-2.24609,3.09766
	c-0.31055,1.29883-0.09766,2.64111,0.60156,3.7793c0.69824,1.13867,1.79883,1.93652,3.09766,2.24707
	c0.0882,0.02081,3.86542,0.77704,8.38953,1.43713C29.21265,34.02472,26.65826,35,24,35c-3.69336,0-7.12109-1.83887-9.16797-4.91943
	c-0.30566-0.46045-0.92578-0.58496-1.38672-0.2793c-0.45996,0.30566-0.58496,0.92627-0.2793,1.38672
	C15.58496,34.82715,19.63477,37,24,37c3.69238,0,7.22363-1.5791,9.68848-4.33203c0.00665-0.00745,0.00812-0.01721,0.01453-0.02478
	c1.6687,0.21259,3.36267,0.39319,4.95435,0.50641C35.35669,39.17743,28.97113,43,22,43z M23.27734,28.91846
	c-0.7793-0.18604-1.43945-0.66504-1.8584-1.34766C21,26.8877,20.87207,26.08252,21.05859,25.30273
	c0.18652-0.7793,0.66504-1.43945,1.34766-1.8584C22.88477,23.15088,23.42285,23,23.96973,23c0.23438,0,0.4707,0.02734,0.7041,0.0835
	c4.67676,1.11816,18.91797,5.75098,20.25195,7.90039C42.62305,32.12598,27.6377,29.96191,23.27734,28.91846z"/>
<path d="M16,21c1.6543,0,3-1.3457,3-3s-1.3457-3-3-3s-3,1.3457-3,3S14.3457,21,16,21z M16,17c0.55176,0,1,0.44873,1,1
	s-0.44824,1-1,1s-1-0.44873-1-1S15.44824,17,16,17z"/>
<path d="M30,21c1.6543,0,3-1.3457,3-3s-1.3457-3-3-3s-3,1.3457-3,3S28.3457,21,30,21z M30,17c0.55176,0,1,0.44873,1,1
	s-0.44824,1-1,1s-1-0.44873-1-1S29.44824,17,30,17z"/>
</svg>
