<?xml version="1.0" encoding="utf-8"?>
<!-- Generator: Adobe Illustrator 19.1.0, SVG Export Plug-In . SVG Version: 6.00 Build 0)  -->
<!DOCTYPE svg PUBLIC "-//W3C//DTD SVG 1.1//EN" "http://www.w3.org/Graphics/SVG/1.1/DTD/svg11.dtd">
<svg version="1.1" id="Layer_1" xmlns="http://www.w3.org/2000/svg" xmlns:xlink="http://www.w3.org/1999/xlink" x="0px" y="0px"
	 width="48px" height="48px" viewBox="0 0 48 48" enable-background="new 0 0 48 48" xml:space="preserve">
<path d="M41.80957,19.66602c-0.00458-0.01294-0.0152-0.02124-0.0202-0.03387C39.1098,8.63794,32.24854,1,24,1
	C15.75812,1,8.90155,8.62585,6.21735,19.60577c-0.00983,0.02234-0.02838,0.03784-0.03668,0.06122
	c-0.02197,0.06226-0.0174,0.12518-0.02667,0.18817C5.40698,22.99982,5,26.41382,5,30c0,10.6416,9.66016,17,19,17s19-6.3584,19-17
	c0-3.61859-0.41547-7.06104-1.17542-10.22913C41.81628,19.73584,41.8219,19.70074,41.80957,19.66602z M7.8808,21.26947
	C10.03375,21.85089,15.37512,23,24,23c8.63452,0,13.97314-1.15167,16.11877-1.73242c0.5213,2.49908,0.82214,5.17023,0.86932,7.96075
	C38.95209,29.7193,32.79773,31,24,31S9.04791,29.7193,7.0119,29.22833C7.05908,26.43854,7.35974,23.76807,7.8808,21.26947z M24,3
	c7.12952,0,13.10309,6.63531,15.66205,16.31476C37.71503,19.84143,32.47394,21,24,21c-8.46344,0-13.70734-1.15576-15.6626-1.68335
	C10.89612,9.63617,16.87,3,24,3z M24,45c-7.96045,0-16.16357-5.09943-16.92487-13.69904C9.61102,31.88275,15.57721,33,24,33
	s14.38898-1.11725,16.92487-1.69904C40.16357,39.90057,31.96045,45,24,45z"/>
</svg>
