<?xml version="1.0" encoding="utf-8"?>
<!-- Generator: Adobe Illustrator 19.1.0, SVG Export Plug-In . SVG Version: 6.00 Build 0)  -->
<!DOCTYPE svg PUBLIC "-//W3C//DTD SVG 1.1//EN" "http://www.w3.org/Graphics/SVG/1.1/DTD/svg11.dtd">
<svg version="1.1" id="Layer_1" xmlns="http://www.w3.org/2000/svg" xmlns:xlink="http://www.w3.org/1999/xlink" x="0px" y="0px"
	 width="48px" height="48px" viewBox="0 0 48 48" enable-background="new 0 0 48 48" xml:space="preserve">
<path d="M16,27c2.75684,0,5-2.24316,5-5s-2.24316-5-5-5s-5,2.24316-5,5S13.24316,27,16,27z M16,19c1.6543,0,3,1.3457,3,3
	s-1.3457,3-3,3s-3-1.3457-3-3S14.3457,19,16,19z"/>
<path d="M32,27c2.75684,0,5-2.24316,5-5s-2.24316-5-5-5s-5,2.24316-5,5S29.24316,27,32,27z M32,19c1.6543,0,3,1.3457,3,3
	s-1.3457,3-3,3s-3-1.3457-3-3S30.3457,19,32,19z"/>
<path d="M24,35c1.6543,0,3-1.3457,3-3s-1.3457-3-3-3s-3,1.3457-3,3S22.3457,35,24,35z M24,31c0.55127,0,1,0.44824,1,1
	s-0.44873,1-1,1s-1-0.44824-1-1S23.44873,31,24,31z"/>
<path d="M5,20v24c0,0.36914,0.20312,0.70801,0.52832,0.88184c0.32324,0.17383,0.71826,0.1543,1.02637-0.0498l5.37891-3.58594
	l5.42627,4.52246c0.37109,0.30859,0.90918,0.30859,1.28027,0L24,41.30176l5.35986,4.4668C29.54541,45.92285,29.77246,46,30,46
	s0.45459-0.07715,0.64014-0.23145l5.42627-4.52246l5.37891,3.58594c0.30713,0.2041,0.70166,0.22363,1.02637,0.0498
	C42.79688,44.70801,43,44.36914,43,44V20C43,9.52344,34.47656,1,24,1S5,9.52344,5,20z M24,3c9.37402,0,17,7.62598,17,17v22.13184
	l-4.44531-2.96387c-0.36768-0.24512-0.85498-0.21973-1.19482,0.06348L30,43.69824l-5.35986-4.4668
	C24.45459,39.07715,24.22754,39,24,39s-0.45459,0.07715-0.64014,0.23145L18,43.69824l-5.35986-4.4668
	c-0.34131-0.2832-0.82812-0.30859-1.19482-0.06348L7,42.13184V20C7,10.62598,14.62598,3,24,3z"/>
</svg>
