<?xml version="1.0" encoding="utf-8"?>
<!-- Generator: Adobe Illustrator 19.1.0, SVG Export Plug-In . SVG Version: 6.00 Build 0)  -->
<!DOCTYPE svg PUBLIC "-//W3C//DTD SVG 1.1//EN" "http://www.w3.org/Graphics/SVG/1.1/DTD/svg11.dtd">
<svg version="1.1" id="Layer_1" xmlns="http://www.w3.org/2000/svg" xmlns:xlink="http://www.w3.org/1999/xlink" x="0px" y="0px"
	 width="48px" height="48px" viewBox="0 0 48 48" enable-background="new 0 0 48 48" xml:space="preserve">
<path d="M24,9h-9V6c0-2.75684-2.24316-5-5-5S5,3.24316,5,6v3H4c-0.55225,0-1,0.44727-1,1v12c0,0.55273,0.44775,1,1,1h1v19
	c0,2.75684,2.24316,5,5,5s5-2.24316,5-5V23h5c7.84814,0,15.26074,0,23.57471,3.90527C43.71045,26.96875,43.85547,27,44,27
	c0.21045,0,0.41943-0.06641,0.59473-0.19629c0.29541-0.21777,0.44727-0.58105,0.39502-0.94531C43.14404,12.93848,38.23975,9,24,9z
	 M7,6c0-1.6543,1.3457-3,3-3s3,1.3457,3,3v3H7V6z M13,42c0,1.6543-1.3457,3-3,3s-3-1.3457-3-3V23h6V42z M20,21H5V11h19
	c12.53125,0,16.85742,2.92188,18.72168,13.33984C34.70361,21,27.54688,21,20,21z"/>
</svg>
