<?xml version="1.0" encoding="utf-8"?>
<!-- Generator: Adobe Illustrator 19.1.0, SVG Export Plug-In . SVG Version: 6.00 Build 0)  -->
<!DOCTYPE svg PUBLIC "-//W3C//DTD SVG 1.1//EN" "http://www.w3.org/Graphics/SVG/1.1/DTD/svg11.dtd">
<svg version="1.1" id="Layer_1" xmlns="http://www.w3.org/2000/svg" xmlns:xlink="http://www.w3.org/1999/xlink" x="0px" y="0px"
	 width="48px" height="48px" viewBox="0 0 48 48" enable-background="new 0 0 48 48" xml:space="preserve">
<path d="M23.3623,20.15527c0.18555,0.15283,0.41113,0.22949,0.6377,0.22949s0.45215-0.07666,0.6377-0.22949
	C25.49316,19.44775,33,13.10547,33,8.46143C33,5.39893,30.66895,3,27.69238,3C26.28223,3,24.97363,3.52148,24,4.43652
	C23.02637,3.52148,21.71777,3,20.30762,3C17.33105,3,15,5.39893,15,8.46143C15,13.10547,22.50684,19.44775,23.3623,20.15527z
	 M20.30762,5c1.18262,0,2.24512,0.57178,2.84473,1.53027c0.36523,0.58398,1.33008,0.58398,1.69531,0
	C25.44727,5.57178,26.50977,5,27.69238,5C29.54688,5,31,6.52051,31,8.46143c0,2.86523-4.58105,7.48193-7,9.60791
	c-2.41992-2.12451-7-6.73877-7-9.60791C17,6.52051,18.45312,5,20.30762,5z"/>
<path d="M46.98358,19.86206c-0.01636-0.11646-0.0481-0.22882-0.10266-0.3313c-0.00165-0.00311-0.00128-0.00665-0.00299-0.00977
	c-0.00439-0.008-0.01233-0.01227-0.01691-0.02014c-0.05615-0.09686-0.12921-0.18268-0.21594-0.25671
	c-0.01324-0.01129-0.02411-0.02441-0.0379-0.03497c-0.00739-0.00568-0.0127-0.01324-0.02026-0.01874l-8-5.7998
	c-0.44922-0.32422-1.07324-0.2251-1.39648,0.22266c-0.32422,0.44727-0.22461,1.07227,0.22266,1.39648l6.71814,4.87061L24,30.86108
	L3.86877,19.88037l6.71814-4.87061c0.44727-0.32422,0.54688-0.94922,0.22266-1.39648
	c-0.32324-0.44678-0.94824-0.54639-1.39648-0.22266l-8,5.7998c-0.00757,0.00549-0.01288,0.01306-0.02026,0.01874
	c-0.01379,0.01056-0.02466,0.02368-0.0379,0.03497c-0.08673,0.07404-0.15979,0.15985-0.21594,0.25671
	C1.1344,19.50873,1.12646,19.513,1.12207,19.521c-0.00171,0.00311-0.00134,0.00665-0.00299,0.00977
	c-0.05457,0.10248-0.0863,0.21484-0.10266,0.3313c-0.00342,0.0246-0.00708,0.04779-0.00861,0.07245C1.00635,19.9566,1,19.97772,1,20
	v24c0,0.55225,0.44727,1,1,1h44c0.00067,0,0.00122-0.00037,0.00189-0.00037c0.11804-0.00031,0.23206-0.0285,0.34186-0.06903
	c0.02899-0.01074,0.05603-0.02161,0.08368-0.03485c0.09692-0.04602,0.18799-0.10352,0.26678-0.17987
	c0.00458-0.00446,0.01044-0.00708,0.01495-0.0116c0.06494-0.06543,0.12238-0.14032,0.16876-0.22528
	c0.00812-0.01483,0.00714-0.03143,0.0144-0.04651c0.02893-0.05945,0.04175-0.1239,0.05859-0.18921
	c0.01685-0.06604,0.03656-0.12939,0.03955-0.19611C46.99127,44.03064,47,44.01672,47,44V20
	c0-0.02228-0.00635-0.0434-0.00781-0.06549C46.99066,19.90985,46.987,19.88666,46.98358,19.86206z M45,21.68439v20.63123
	L26.08807,32L45,21.68439z M3,21.68439L42.07861,43H3V21.68439z"/>
</svg>
