<?xml version="1.0" encoding="utf-8"?>
<!-- Generator: Adobe Illustrator 19.1.0, SVG Export Plug-In . SVG Version: 6.00 Build 0)  -->
<!DOCTYPE svg PUBLIC "-//W3C//DTD SVG 1.1//EN" "http://www.w3.org/Graphics/SVG/1.1/DTD/svg11.dtd">
<svg version="1.1" id="Layer_1" xmlns="http://www.w3.org/2000/svg" xmlns:xlink="http://www.w3.org/1999/xlink" x="0px" y="0px"
	 width="48px" height="48px" viewBox="0 0 48 48" enable-background="new 0 0 48 48" xml:space="preserve">
<path d="M20,19h3v7c0,0.55273,0.44727,1,1,1s1-0.44727,1-1v-7h3c0.55273,0,1-0.44727,1-1s-0.44727-1-1-1h-3v-3
	c0-0.55273-0.44727-1-1-1s-1,0.44727-1,1v3h-3c-0.55273,0-1,0.44727-1,1S19.44727,19,20,19z"/>
<path d="M14,47h20c0.47168,0,0.87891-0.3291,0.97754-0.79004l6-28c0.04004-0.1875,0.02637-0.38184-0.04102-0.56152l-6-16
	C34.79004,1.25879,34.41699,1,34,1H14c-0.41699,0-0.79004,0.25879-0.93652,0.64844l-6,16
	c-0.06738,0.17969-0.08105,0.37402-0.04102,0.56152l6,28C13.12109,46.6709,13.52832,47,14,47z M14.69336,3h18.61328l5.6543,15.07715
	L33.19141,45H14.80859L9.03906,18.07715L14.69336,3z"/>
</svg>
