<?xml version="1.0" encoding="utf-8"?>
<!-- Generator: Adobe Illustrator 19.1.0, SVG Export Plug-In . SVG Version: 6.00 Build 0)  -->
<!DOCTYPE svg PUBLIC "-//W3C//DTD SVG 1.1//EN" "http://www.w3.org/Graphics/SVG/1.1/DTD/svg11.dtd">
<svg version="1.1" id="Layer_1" xmlns="http://www.w3.org/2000/svg" xmlns:xlink="http://www.w3.org/1999/xlink" x="0px" y="0px"
	 width="48px" height="48px" viewBox="0 0 48 48" enable-background="new 0 0 48 48" xml:space="preserve">
<path d="M25,46v-4c0-0.55225-0.44727-1-1-1s-1,0.44775-1,1v4c0,0.55225,0.44727,1,1,1S25,46.55225,25,46z"/>
<path d="M38.84961,40.26318c0.19531,0.19531,0.45117,0.29297,0.70703,0.29297s0.51172-0.09766,0.70703-0.29297
	c0.39062-0.39062,0.39062-1.02393,0-1.41406l-2.8291-2.82812c-0.39062-0.39062-1.02344-0.39062-1.41406,0
	s-0.39062,1.02393,0,1.41406L38.84961,40.26318z"/>
<path d="M46,23h-4c-0.55273,0-1,0.44775-1,1s0.44727,1,1,1h4c0.55273,0,1-0.44775,1-1S46.55273,23,46,23z"/>
<path d="M8.44336,40.55615c0.25586,0,0.51172-0.09766,0.70703-0.29297l2.8291-2.82812c0.39062-0.39014,0.39062-1.02344,0-1.41406
	s-1.02344-0.39062-1.41406,0l-2.8291,2.82812c-0.39062,0.39014-0.39062,1.02344,0,1.41406
	C7.93164,40.4585,8.1875,40.55615,8.44336,40.55615z"/>
<path d="M2,25h4c0.55273,0,1-0.44775,1-1s-0.44727-1-1-1H2c-0.55273,0-1,0.44775-1,1S1.44727,25,2,25z"/>
<path d="M24,35c6.35449,0,11-13.33301,11-19c0-5.72791-4.4021-10.44183-10-10.94934V2c0-0.55225-0.44727-1-1-1s-1,0.44775-1,1
	v3.05066C17.4021,5.55817,13,10.27209,13,16C13,21.66699,17.64551,35,24,35z M24,7c4.96289,0,9,4.0376,9,9
	c0,5.31055-4.35156,17-9,17s-9-11.68945-9-17C15,11.0376,19.03711,7,24,7z"/>
</svg>
