<?xml version="1.0" encoding="utf-8"?>
<!-- Generator: Adobe Illustrator 19.1.0, SVG Export Plug-In . SVG Version: 6.00 Build 0)  -->
<!DOCTYPE svg PUBLIC "-//W3C//DTD SVG 1.1//EN" "http://www.w3.org/Graphics/SVG/1.1/DTD/svg11.dtd">
<svg version="1.1" id="Layer_1" xmlns="http://www.w3.org/2000/svg" xmlns:xlink="http://www.w3.org/1999/xlink" x="0px" y="0px"
	 width="48px" height="48px" viewBox="0 0 48 48" enable-background="new 0 0 48 48" xml:space="preserve">
<path d="M23.5,1C12.91632,1,4.29407,9.47992,4.02533,20H3c-0.55225,0-1,0.44775-1,1v8c0,0.55225,0.44775,1,1,1h32v6.54047
	C33.77576,37.63965,33,39.22894,33,41c0,3.30859,2.69141,6,6,6s6-2.69141,6-6c0-1.77106-0.77576-3.36035-2-4.45953V20.5
	C43,9.74756,34.25244,1,23.5,1z M4,22h31v6H4V22z M37,29v-8c0-0.55225-0.44775-1-1-1H6.02533C6.2934,10.58301,14.01935,3,23.5,3
	C33.14941,3,41,10.85059,41,20.5v14.85004C40.37335,35.1275,39.70209,35,39,35s-1.37335,0.1275-2,0.35004V29z M39,45
	c-2.20557,0-4-1.79443-4-4s1.79443-4,4-4s4,1.79443,4,4S41.20557,45,39,45z"/>
</svg>
