<?xml version="1.0" encoding="utf-8"?>
<!-- Generator: Adobe Illustrator 19.1.0, SVG Export Plug-In . SVG Version: 6.00 Build 0)  -->
<!DOCTYPE svg PUBLIC "-//W3C//DTD SVG 1.1//EN" "http://www.w3.org/Graphics/SVG/1.1/DTD/svg11.dtd">
<svg version="1.1" id="Layer_1" xmlns="http://www.w3.org/2000/svg" xmlns:xlink="http://www.w3.org/1999/xlink" x="0px" y="0px"
	 width="48px" height="48px" viewBox="0 0 48 48" enable-background="new 0 0 48 48" xml:space="preserve">
<path d="M46,1c-0.55225,0-1,0.44775-1,1v8c0,1.6543-1.3457,3-3,3h-3V6c0-0.55225-0.44775-1-1-1s-1,0.44775-1,1v7h-3.49091
	C31.12671,11.66882,27.97095,11,24,11s-7.12671,0.66882-9.50909,2H11V6c0-0.55225-0.44775-1-1-1S9,5.44775,9,6v7H6
	c-1.6543,0-3-1.3457-3-3V2c0-0.55225-0.44775-1-1-1S1,1.44775,1,2v8c0,2.75684,2.24316,5,5,5h5.92194
	c-1.00751,1.10004-1.74249,2.43805-2.22705,4H2c-0.55225,0-1,0.44775-1,1c0,3.85986,3.14014,7,7,7h1.17419
	C10.18835,36.16693,15.64233,47,24,47s13.81165-10.83307,14.82581-20H40c3.85986,0,7-3.14014,7-7c0-0.55225-0.44775-1-1-1h-7.69489
	c-0.48456-1.56195-1.21954-2.89996-2.22705-4H42c2.75684,0,5-2.24316,5-5V2C47,1.44775,46.55225,1,46,1z M8,25
	c-2.41455,0-4.43506-1.7207-4.89941-4h6.12177C9.07568,21.93414,9,22.93243,9,24c0,0.32886,0.00812,0.66296,0.02142,1H8z M24,37
	c-1.6543,0-3-1.3457-3-3s1.3457-3,3-3s3,1.3457,3,3S25.6543,37,24,37z M44.89941,21C44.43506,23.2793,42.41455,25,40,25h-1.02142
	C38.99188,24.66296,39,24.32886,39,24c0-1.06757-0.07568-2.06586-0.22235-3H44.89941z M37,24
	c0,8.19635-4.64264,19.93549-12,20.92505v-6.02612c2.2793-0.46466,4-2.4845,4-4.89893c0-2.75684-2.24316-5-5-5s-5,2.24316-5,5
	c0,2.41443,1.7207,4.43427,4,4.89893v6.02612C15.64264,43.93549,11,32.19635,11,24c0-7.60742,4.00928-11,13-11S37,16.39258,37,24z"
	/>
<path d="M18,21c-2.20557,0-4,1.79443-4,4c0,0.55225,0.44775,1,1,1s1-0.44775,1-1c0-1.10303,0.89697-2,2-2s2,0.89697,2,2
	c0,0.55225,0.44775,1,1,1s1-0.44775,1-1C22,22.79443,20.20557,21,18,21z"/>
<path d="M30,21c-2.20557,0-4,1.79443-4,4c0,0.55225,0.44775,1,1,1s1-0.44775,1-1c0-1.10303,0.89697-2,2-2s2,0.89697,2,2
	c0,0.55225,0.44775,1,1,1s1-0.44775,1-1C34,22.79443,32.20557,21,30,21z"/>
</svg>
