<?xml version="1.0" encoding="utf-8"?>
<!-- Generator: Adobe Illustrator 19.1.0, SVG Export Plug-In . SVG Version: 6.00 Build 0)  -->
<!DOCTYPE svg PUBLIC "-//W3C//DTD SVG 1.1//EN" "http://www.w3.org/Graphics/SVG/1.1/DTD/svg11.dtd">
<svg version="1.1" id="Layer_1" xmlns="http://www.w3.org/2000/svg" xmlns:xlink="http://www.w3.org/1999/xlink" x="0px" y="0px"
	 width="48px" height="48px" viewBox="0 0 48 48" enable-background="new 0 0 48 48" xml:space="preserve">
<path d="M21,26c0-1.6543-1.3457-3-3-3s-3,1.3457-3,3s1.3457,3,3,3S21,27.6543,21,26z M18,27c-0.55176,0-1-0.44824-1-1s0.44824-1,1-1
	s1,0.44824,1,1S18.55176,27,18,27z"/>
<path d="M30,23c-1.6543,0-3,1.3457-3,3s1.3457,3,3,3s3-1.3457,3-3S31.6543,23,30,23z M30,27c-0.55176,0-1-0.44824-1-1s0.44824-1,1-1
	s1,0.44824,1,1S30.55176,27,30,27z"/>
<path d="M27,35h-6c-0.55273,0-1,0.44727-1,1s0.44727,1,1,1h6c0.55273,0,1-0.44727,1-1S27.55273,35,27,35z"/>
<path d="M46,17c-0.55273,0-1,0.44727-1,1v3h-4V6c0-2.75684-2.24316-5-5-5H12C9.24316,1,7,3.24316,7,6v15H3v-3
	c0-0.55273-0.44727-1-1-1s-1,0.44727-1,1v8c0,0.55273,0.44727,1,1,1s1-0.44727,1-1v-3h4v7c0,9.37402,7.62598,17,17,17
	s17-7.62598,17-17v-7h4v3c0,0.55273,0.44727,1,1,1s1-0.44727,1-1v-8C47,17.44727,46.55273,17,46,17z M12,3h24c1.6543,0,3,1.3457,3,3
	v5h-6v-1c0-0.55273-0.44727-1-1-1s-1,0.44727-1,1v1h-6v-1c0-0.55273-0.44727-1-1-1s-1,0.44727-1,1v1h-6v-1c0-0.55273-0.44727-1-1-1
	s-1,0.44727-1,1v1H9V6C9,4.3457,10.3457,3,12,3z M39,30c0,8.27148-6.72852,15-15,15S9,38.27148,9,30V13h6v1c0,0.55273,0.44727,1,1,1
	s1-0.44727,1-1v-1h6v1c0,0.55273,0.44727,1,1,1s1-0.44727,1-1v-1h6v1c0,0.55273,0.44727,1,1,1s1-0.44727,1-1v-1h6V30z"/>
</svg>
