<?xml version="1.0" encoding="utf-8"?>
<!-- Generator: Adobe Illustrator 19.1.0, SVG Export Plug-In . SVG Version: 6.00 Build 0)  -->
<!DOCTYPE svg PUBLIC "-//W3C//DTD SVG 1.1//EN" "http://www.w3.org/Graphics/SVG/1.1/DTD/svg11.dtd">
<svg version="1.1" id="Layer_1" xmlns="http://www.w3.org/2000/svg" xmlns:xlink="http://www.w3.org/1999/xlink" x="0px" y="0px"
	 width="48px" height="48px" viewBox="0 0 48 48" enable-background="new 0 0 48 48" xml:space="preserve">
<path d="M44.70703,2.0083c-1.43652-0.9248-3.2207-1.0542-4.77637-0.34814L26.84253,7.60913C25.97278,7.22064,25.01239,7,24,7
	s-1.97278,0.22064-2.84253,0.60913L8.06934,1.66016C6.51465,0.95264,4.73047,1.08252,3.29297,2.0083
	C1.85742,2.93262,1,4.50439,1,6.21191v15.57617c0,1.70752,0.85742,3.2793,2.29297,4.20361
	c0.82324,0.53027,1.76074,0.79932,2.7041,0.79932c0.70312,0,1.4082-0.14941,2.07227-0.45117l0.84448-0.38385L3.43457,38.85938
	c-0.14355,0.33936-0.08887,0.73047,0.1416,1.01758c0.23145,0.28711,0.60352,0.4248,0.96484,0.35547l6.43066-1.21289l3.59277,5.46973
	c0.18555,0.2832,0.50098,0.45117,0.83594,0.45117c0.0293,0,0.05957-0.00146,0.08984-0.00391
	c0.36719-0.0332,0.68652-0.26562,0.83008-0.60498L24,26.25598l7.67969,18.07556c0.14355,0.33936,0.46289,0.57178,0.83008,0.60498
	c0.03027,0.00244,0.06055,0.00391,0.08984,0.00391c0.33496,0,0.65039-0.16797,0.83594-0.45117l3.59277-5.46973l6.43066,1.21289
	c0.36035,0.06934,0.73242-0.06836,0.96484-0.35547c0.23047-0.28711,0.28516-0.67822,0.1416-1.01758l-5.47925-12.90338
	l0.84448,0.38385c0.66406,0.30176,1.36914,0.45117,2.07227,0.45117c0.94336,0,1.88086-0.26904,2.7041-0.79932
	C46.14258,25.06738,47,23.49561,47,21.78809V6.21191C47,4.50439,46.14258,2.93262,44.70703,2.0083z M29,14c0,2.75684-2.24316,5-5,5
	s-5-2.24316-5-5s2.24316-5,5-5S29,11.24316,29,14z M7.24121,24.51953c-0.94727,0.42969-1.99219,0.35303-2.86523-0.20898
	C3.50098,23.74756,3,22.82812,3,21.78809V6.21191c0-1.04004,0.50098-1.95947,1.37598-2.52246
	c0.87305-0.56299,1.91797-0.64014,2.86523-0.20898L19.2019,8.91699C17.84973,10.19403,17,11.99774,17,14
	s0.84973,3.80597,2.2019,5.08301L7.24121,24.51953z M15.21094,41.83008l-2.93359-4.46582
	c-0.22168-0.3374-0.62012-0.5083-1.02148-0.43359l-5.25,0.99023l5.60187-13.18933l9.54974-4.3407
	C22.02722,20.77936,22.98761,21,24,21c0.021,0,0.04126-0.00299,0.06219-0.00317l-0.98877,2.32733
	c-0.00031,0.00079-0.00073,0.00159-0.00104,0.00238L15.21094,41.83008z M41.99414,37.9209l-5.25-0.99023
	c-0.40137-0.07568-0.7998,0.09521-1.02148,0.43359l-2.93359,4.46582l-7.703-18.13043l1.33405-3.13995
	c0.1427-0.0528,0.2843-0.10712,0.42242-0.16882l9.54974,4.3407L41.99414,37.9209z M45,21.78809
	c0,1.04004-0.50098,1.95947-1.37598,2.52246c-0.87402,0.56201-1.91895,0.63867-2.86523,0.20898L28.7981,19.08301
	C30.15027,17.80597,31,16.00226,31,14s-0.84973-3.80597-2.2019-5.08301l11.96069-5.43652
	c0.94629-0.43115,1.99121-0.354,2.86523,0.20898C44.49902,4.25244,45,5.17188,45,6.21191V21.78809z"/>
</svg>
