<?xml version="1.0" encoding="utf-8"?>
<!-- Generator: Adobe Illustrator 19.1.0, SVG Export Plug-In . SVG Version: 6.00 Build 0)  -->
<!DOCTYPE svg PUBLIC "-//W3C//DTD SVG 1.1//EN" "http://www.w3.org/Graphics/SVG/1.1/DTD/svg11.dtd">
<svg version="1.1" id="Layer_1" xmlns="http://www.w3.org/2000/svg" xmlns:xlink="http://www.w3.org/1999/xlink" x="0px" y="0px"
	 width="48px" height="48px" viewBox="0 0 48 48" enable-background="new 0 0 48 48" xml:space="preserve">
<path d="M46,45h-7V33c0-0.55273-0.44775-1-1-1h-1V16.5V16v-3.5c0-1.92969-1.57031-3.5-3.5-3.5
	c-0.53882,0-1.04358,0.13257-1.5,0.35107V5.5C32,3.53711,30.4624,2,28.5,2c-0.76495,0-1.461,0.23877-2.03094,0.64008
	C25.85706,1.65125,24.77191,1,23.5,1c-1.5907,0-2.88666,1.01733-3.32648,2.44537C19.67407,3.17041,19.10925,3,18.5,3
	C16.57031,3,15,4.57031,15,6.5v9.98633l-0.06299-0.0625c-0.70215-0.76562-1.66602-1.2002-2.71436-1.22266
	c-1.07178-0.03125-2.14893,0.41016-2.89844,1.16113c-0.76611,0.70312-1.20068,1.66699-1.22363,2.71582
	c-0.02344,1.08008,0.41113,2.14746,1.19238,2.92871L15,27.71387V32h-1c-0.55225,0-1,0.44727-1,1v12H2c-0.55225,0-1,0.44727-1,1
	s0.44775,1,1,1h13c0.55225,0,1-0.44727,1-1c0-1.10254,0.89697-2,2-2c0.36621,0,0.71826,0.10254,1.04639,0.30566
	c0.24268,0.14941,0.5376,0.1875,0.81055,0.1084c0.27344-0.08203,0.49902-0.27539,0.62061-0.53418
	C21.29932,42.13086,23.07471,41,25,41c2.75684,0,5,2.24316,5,5c0,0.55273,0.44775,1,1,1h15c0.55225,0,1-0.44727,1-1
	S46.55225,45,46,45z M33.5,11c0.82715,0,1.5,0.67285,1.5,1.5V16v0.5c0,0.82715-0.67285,1.5-1.5,1.5S32,17.32715,32,16.5V15v-2.5
	C32,11.67285,32.67285,11,33.5,11z M16.70703,26.59277l-6-6c-0.40283-0.40332-0.61865-0.92578-0.60693-1.47168
	c0.01074-0.49805,0.21533-0.9541,0.60693-1.31445c0.40332-0.40234,0.91455-0.60352,1.47217-0.60645
	c0.49805,0.01172,0.9541,0.21582,1.31348,0.60645l1.7998,1.80078c0.28613,0.28613,0.71533,0.37305,1.08984,0.2168
	C16.75635,19.66992,17,19.30469,17,18.90039V6.5C17,5.67285,17.67285,5,18.5,5S20,5.67285,20,6.5V7v8c0,0.55273,0.44775,1,1,1
	s1-0.44727,1-1V7V6.5v-2C22,3.65918,22.65869,3,23.5,3S25,3.65918,25,4.5v1V6v9c0,0.55273,0.44775,1,1,1s1-0.44727,1-1V6V5.5
	C27,4.65918,27.65869,4,28.5,4S30,4.65918,30,5.5v7V15v1.5c0,1.92969,1.57031,3.5,3.5,3.5c0.53882,0,1.04358-0.13257,1.5-0.35107V32
	h-1c-0.26514,0-0.51953,0.10547-0.70703,0.29297L31,34.58594l-2.29297-2.29297C28.51953,32.10547,28.26514,32,28,32H17v-4.7002
	C17,27.03418,16.89453,26.78027,16.70703,26.59277z M25,39c-2.36719,0-4.57178,1.21875-5.85352,3.17285
	C18.77441,42.05859,18.38818,42,18,42c-1.19604,0-2.2663,0.53174-3,1.36658V34h12.58594l2.70703,2.70703
	c0.39062,0.39062,1.02344,0.39062,1.41406,0L34.41406,34H37v11h-5.07129C31.44189,41.6123,28.52051,39,25,39z"/>
</svg>
