<?xml version="1.0" encoding="utf-8"?>
<!-- Generator: Adobe Illustrator 19.1.0, SVG Export Plug-In . SVG Version: 6.00 Build 0)  -->
<!DOCTYPE svg PUBLIC "-//W3C//DTD SVG 1.1//EN" "http://www.w3.org/Graphics/SVG/1.1/DTD/svg11.dtd">
<svg version="1.1" id="Layer_1" xmlns="http://www.w3.org/2000/svg" xmlns:xlink="http://www.w3.org/1999/xlink" x="0px" y="0px"
	 width="48px" height="48px" viewBox="0 0 48 48" enable-background="new 0 0 48 48" xml:space="preserve">
<path d="M18,27c-1.6543,0-3,1.3457-3,3s1.3457,3,3,3s3-1.3457,3-3S19.6543,27,18,27z M18,31c-0.55176,0-1-0.44824-1-1s0.44824-1,1-1
	s1,0.44824,1,1S18.55176,31,18,31z"/>
<path d="M42.72656,1.54688c-4.37109-2.45312-12.57031,5.0332-15.57812,9.92969c-0.56335,0.9165-1.10846,1.96362-1.61993,3.07288
	c-1.51294-5.05182-4.49231-10.78345-7.44354-12.79651c-0.92285-0.62891-1.80859-0.86914-2.64062-0.7041
	c-0.81055,0.1582-1.49316,0.69141-2.02734,1.58496c-1.98322,3.31854-1.73792,11.9928-0.2406,17.43719
	C9.39362,23.00806,7,27.73596,7,32.87598V36c0,6.06543,4.93457,11,11,11h3.56445c7.5625,0,13.95898-5.21191,15.20898-12.39355
	c0.48535-2.79395,0.17969-5.625-0.88184-8.23438c1.90723-1.78027,3.6875-3.87402,4.94922-5.83008
	c2.36816-3.67578,4.98438-11.58008,3.8623-16.10449C44.36328,3.06641,43.69824,2.09375,42.72656,1.54688z M15.13379,3.66016
	c0.1582-0.26465,0.40723-0.59277,0.69336-0.64844c0.27539-0.05469,0.67871,0.08496,1.13086,0.39355
	c2.63177,1.79559,6.00323,8.31763,7.19,13.76813c-2.14227-0.31396-4.2558-0.17212-6.2984,0.4516
	c-1.02759,0.31415-1.9986,0.75073-2.91589,1.2735C13.61761,13.55939,13.66248,6.12201,15.13379,3.66016z M39.15918,19.45801
	c-1.28516,1.99316-3.15625,4.14746-5.13477,5.91016c-0.3291,0.29395-0.42773,0.76855-0.24219,1.16895
	c1.12598,2.4209,1.47852,5.09277,1.02051,7.72656C33.7373,40.38477,28.04688,45,21.56445,45H18c-4.96289,0-9-4.03711-9-9v-3.12402
	c0-6.15527,3.87988-11.63965,9.43359-13.33887c1.17969-0.36035,2.35938-0.54004,3.56055-0.54004
	c0.9375,0,1.88867,0.10938,2.8623,0.32812c0.49219,0.1123,0.99902-0.16797,1.16504-0.65039
	c0.7627-2.22266,1.79395-4.46484,2.83008-6.15137c3.14746-5.12207,10.2334-10.73145,12.89453-9.23242
	c0.47168,0.26465,0.81348,0.8125,1.01562,1.62793C43.64941,8.49902,41.5166,15.7998,39.15918,19.45801z"/>
</svg>
