<?xml version="1.0" encoding="utf-8"?>
<!-- Generator: Adobe Illustrator 19.1.0, SVG Export Plug-In . SVG Version: 6.00 Build 0)  -->
<!DOCTYPE svg PUBLIC "-//W3C//DTD SVG 1.1//EN" "http://www.w3.org/Graphics/SVG/1.1/DTD/svg11.dtd">
<svg version="1.1" id="Layer_1" xmlns="http://www.w3.org/2000/svg" xmlns:xlink="http://www.w3.org/1999/xlink" x="0px" y="0px"
	 width="48px" height="48px" viewBox="0 0 48 48" enable-background="new 0 0 48 48" xml:space="preserve">
<path d="M6,39h17v6h-9c-0.55225,0-1,0.44775-1,1s0.44775,1,1,1h20c0.55225,0,1-0.44775,1-1s-0.44775-1-1-1h-9v-6h17
	c0.37891,0,0.7251-0.21387,0.89453-0.55273s0.13281-0.74414-0.09473-1.04736L33.49988,25H38
	c0.37305,0,0.71484-0.20752,0.88721-0.53809c0.17188-0.33105,0.146-0.72998-0.06787-1.03516l-14-20
	c-0.37402-0.53516-1.26465-0.53516-1.63867,0l-14,20c-0.21387,0.30518-0.23975,0.7041-0.06787,1.03516
	C9.28516,24.79248,9.62695,25,10,25h4.50012L5.2002,37.3999c-0.22754,0.30322-0.26416,0.7085-0.09473,1.04736S5.62109,39,6,39z
	 M24,5.74365L36.07959,23H11.92041L24,5.74365z M16.99988,25h14.00024L40,37H8L16.99988,25z"/>
</svg>
