<?xml version="1.0" encoding="utf-8"?>
<!-- Generator: Adobe Illustrator 19.1.0, SVG Export Plug-In . SVG Version: 6.00 Build 0)  -->
<!DOCTYPE svg PUBLIC "-//W3C//DTD SVG 1.1//EN" "http://www.w3.org/Graphics/SVG/1.1/DTD/svg11.dtd">
<svg version="1.1" id="Layer_1" xmlns="http://www.w3.org/2000/svg" xmlns:xlink="http://www.w3.org/1999/xlink" x="0px" y="0px"
	 width="48px" height="48px" viewBox="0 0 48 48" enable-background="new 0 0 48 48" xml:space="preserve">
<path d="M46,3H2C1.44775,3,1,3.44775,1,4v12c0,0.55225,0.44775,1,1,1h5v27c0,0.55225,0.44775,1,1,1h32c0.55225,0,1-0.44775,1-1V17h5
	c0.55225,0,1-0.44775,1-1V4C47,3.44775,46.55225,3,46,3z M29,17v12H9V17H29z M9,31h8v12H9V31z M19,43V31h20v12H19z M39,29h-8V17h8
	V29z M45,15H3V5h42V15z"/>
</svg>
