<?xml version="1.0" encoding="utf-8"?>
<!-- Generator: Adobe Illustrator 19.1.0, SVG Export Plug-In . SVG Version: 6.00 Build 0)  -->
<!DOCTYPE svg PUBLIC "-//W3C//DTD SVG 1.1//EN" "http://www.w3.org/Graphics/SVG/1.1/DTD/svg11.dtd">
<svg version="1.1" id="Layer_1" xmlns="http://www.w3.org/2000/svg" xmlns:xlink="http://www.w3.org/1999/xlink" x="0px" y="0px"
	 width="48px" height="48px" viewBox="0 0 48 48" enable-background="new 0 0 48 48" xml:space="preserve">
<path d="M35.93481,30.25641l-2.6355-13.97614c4.95264,0.5918,10.41748,0.60254,11.63525-1.92383
	c0.24756-0.65039,0.08301-1.40137-0.48877-2.23145C41.87256,8.3916,29.01318,1,24,1c-4.77234,0-9.46423,18.3324-11.83337,29.24353
	C5.16455,31.83551,1,34.71021,1,38c0,4.36328,8.06104,9,23,9s23-4.63672,23-9C47,34.65479,42.97223,31.85156,35.93481,30.25641z
	 M13.96069,31.3999c0.02942-0.08228,0.04791-0.16461,0.05475-0.25366c0.13043-0.60718,0.26154-1.20575,0.39294-1.7962
	c2.4046,1.06311,6.33124,1.66754,10.25861,1.66754c3.36646,0,6.71686-0.44965,9.1073-1.42499l0.3172,1.68243
	c0.00031,0.00146,0.00055,0.00287,0.00085,0.00433l0.78314,4.15326C33.62793,35.94824,30.30713,37,24,37
	c-6.30371,0-9.61963-1.04883-10.87012-1.56543C13.40338,34.05133,13.68091,32.7085,13.96069,31.3999z M24,3
	c5.19922,0,18.55518,8.51465,19.03467,10.67383c-0.82764,1.16016-5.43066,1.15527-10.68408,0.44629
	c-0.10303-0.03223-0.20801-0.0459-0.32373-0.04492c-1.90918-0.2666-3.89502-0.62402-5.80908-1.05078
	c-0.53467-0.12012-1.07324,0.21875-1.19385,0.75781c-0.12012,0.53906,0.21924,1.07324,0.7583,1.19336
	c1.18164,0.26367,3.1665,0.67676,5.42822,1.02051l2.18365,11.58057c-4.59741,2.16168-14.82214,1.75397-18.5318-0.22498
	C18.39502,12.10864,22.14667,3,24,3z M24,45c-12.37549,0-21-3.68945-21-7c0-2.07428,3.4408-4.24695,8.70514-5.5896
	c-0.27539,1.32019-0.50781,2.48059-0.68658,3.39819c-0.0791,0.40527,0.09863,0.81641,0.44727,1.03711
	C11.60547,36.93359,14.98096,39,24,39s12.39453-2.06641,12.53418-2.1543c0.34668-0.21973,0.52441-0.62793,0.44873-1.03125
	l-0.64233-3.40619C41.64667,33.74646,45,35.88025,45,38C45,41.31055,36.37549,45,24,45z"/>
</svg>
