<?xml version="1.0" encoding="utf-8"?>
<!-- Generator: Adobe Illustrator 19.1.0, SVG Export Plug-In . SVG Version: 6.00 Build 0)  -->
<!DOCTYPE svg PUBLIC "-//W3C//DTD SVG 1.1//EN" "http://www.w3.org/Graphics/SVG/1.1/DTD/svg11.dtd">
<svg version="1.1" id="Layer_1" xmlns="http://www.w3.org/2000/svg" xmlns:xlink="http://www.w3.org/1999/xlink" x="0px" y="0px"
	 width="48px" height="48px" viewBox="0 0 48 48" enable-background="new 0 0 48 48" xml:space="preserve">
<path d="M8.15234,38.62109c-1.94971,1.94922-1.94971,5.12158,0,7.0708c0.94434,0.94434,2.19971,1.46436,3.53564,1.46436
	c1.33545,0,2.59082-0.52002,3.53516-1.46436l22.28662-22.28662c2.45215-2.45166,3.80225-5.71631,3.80225-9.19238
	c0-2.52594-0.72131-4.93573-2.05194-7.00757c-0.0069-0.01123-0.00708-0.02435-0.01447-0.0354
	c-0.00452-0.00684-0.01202-0.00995-0.01672-0.0166c-0.49329-0.76019-1.06354-1.47736-1.71912-2.13281
	c-2.60315-2.60291-6.04425-3.85901-9.46289-3.78839C28.03046,1.23132,28.0166,1.22266,28,1.22266
	c-0.02686,0-0.04938,0.01324-0.07574,0.01532c-3.19666,0.09595-6.36469,1.34821-8.79877,3.78253
	c-1.94971,1.94971-1.94971,5.12158,0,7.07129c1.9502,1.9502,5.12256,1.94922,7.0708,0c1.13086-1.13086,3.11084-1.13086,4.24268,0
	c0.56543,0.56543,0.87695,1.31885,0.87695,2.12109s-0.31152,1.55566-0.87695,2.12158L8.15234,38.62109z M31.85303,17.74854
	c0.02112-0.02112,0.0354-0.04681,0.05609-0.06824l3.39978,5.09772l-5.20129,5.20129l-2.82831-5.65704L31.85303,17.74854z
	 M24.10767,33.97925l-2.82721-5.65814l4.50793-4.50793l2.82831,5.65704L24.10767,33.97925z M18.1076,39.97931l-2.82831-5.65704
	l4.5105-4.5105l2.82721,5.65814L18.1076,39.97931z M13.80908,44.27783c-1.16992,1.16895-3.07275,1.16992-4.24268,0
	c-1.16943-1.16992-1.16943-3.07275,0-4.24268l4.22198-4.22198l2.82831,5.65704L13.80908,44.27783z M36.72516,21.29712
	l-3.68091-5.51929c0.16486-0.50043,0.27167-1.02222,0.27167-1.56494c0-0.58502-0.11639-1.14856-0.3075-1.68317l5.07184-3.3811
	c0.80188,1.54517,1.23175,3.27014,1.23175,5.06427C39.31201,16.83929,38.3963,19.31879,36.72516,21.29712z M24.78223,10.67773
	c-1.17041,1.16895-3.07324,1.16992-4.24268,0c-1.16992-1.16992-1.16992-3.07324,0-4.24316
	C22.34875,4.62555,24.63751,3.58887,27,3.30591v6.10577C26.1712,9.63745,25.40491,10.05475,24.78223,10.67773z M29,9.28137V3.25024
	c2.58502,0.15924,5.12457,1.21295,7.0957,3.18433c0.32629,0.32629,0.62079,0.67499,0.90015,1.03333l-5.02673,3.35107
	c-0.04187-0.04498-0.07239-0.09753-0.11609-0.14124C31.0733,9.89801,30.07593,9.42798,29,9.28137z"/>
</svg>
