<?xml version="1.0" encoding="utf-8"?>
<!-- Generator: Adobe Illustrator 19.1.0, SVG Export Plug-In . SVG Version: 6.00 Build 0)  -->
<!DOCTYPE svg PUBLIC "-//W3C//DTD SVG 1.1//EN" "http://www.w3.org/Graphics/SVG/1.1/DTD/svg11.dtd">
<svg version="1.1" id="Layer_1" xmlns="http://www.w3.org/2000/svg" xmlns:xlink="http://www.w3.org/1999/xlink" x="0px" y="0px"
	 width="48px" height="48px" viewBox="0 0 48 48" enable-background="new 0 0 48 48" xml:space="preserve">
<path d="M46,9H35.97443C36.60901,8.16174,37,7.12994,37,6c0-2.75684-2.24316-5-5-5c-4.36224,0-6.79938,3.5498-8,6.13287
	C22.79938,4.5498,20.36224,1,16,1c-2.75684,0-5,2.24316-5,5c0,1.12994,0.39099,2.16174,1.02557,3H2c-0.55273,0-1,0.44775-1,1v8
	c0,0.55225,0.44727,1,1,1h3v27c0,0.55225,0.44727,1,1,1h36c0.55273,0,1-0.44775,1-1V19h3c0.55273,0,1-0.44775,1-1v-8
	C47,9.44775,46.55273,9,46,9z M32,3c1.6543,0,3,1.3457,3,3s-1.3457,3-3,3h-6.61523C26.18164,6.9292,28.19531,3,32,3z M13,6
	c0-1.6543,1.3457-3,3-3c3.80469,0,5.81836,3.9292,6.61523,6H16C14.3457,9,13,7.6543,13,6z M21.58594,19L7,33.58594V19H21.58594z
	 M7,36.41406L24.41406,19h11.17188l-26,26H7V36.41406z M26.41406,45L41,30.41406V45H26.41406z M41,27.58594L23.58594,45H12.41406
	l26-26H41V27.58594z M45,17H3v-6h13h8h8h13V17z"/>
</svg>
