<svg xmlns="http://www.w3.org/2000/svg" xmlns:xlink="http://www.w3.org/1999/xlink" x="0px" y="0px" width="48px" height="48px" viewBox="0 0 48 48"><g >
<path fill="#9BCED3" d="M47,42V10.544c-0.646,0.29-1.257,0.684-1.787,1.214c-2.343,2.343-6.142,2.343-8.485,0
	c-2.343-2.343-6.142-2.343-8.485,0c-2.343,2.343-6.142,2.343-8.485,0s-6.142-2.343-8.485,0s-6.142,2.343-8.485,0
	c-0.53-0.53-1.141-0.924-1.787-1.214V42H47z"/>
<path fill="#5A7A84" d="M46,43H2c-0.553,0-1-0.447-1-1V6c0-0.553,0.447-1,1-1s1,0.447,1,1v35h42V6c0-0.553,0.447-1,1-1s1,0.447,1,1
	v36C47,42.553,46.553,43,46,43z"/>
<path fill="#FFFFFF" d="M21,25v-1c0-2.206-1.794-4-4-4h-2c-2.206,0-4,1.794-4,4c0,0.553,0.447,1,1,1s1-0.447,1-1
	c0-1.103,0.897-2,2-2h2c1.103,0,2,0.897,2,2v1c0,1.103-0.897,2-2,2h-1c-0.553,0-1,0.447-1,1s0.447,1,1,1h1c1.103,0,2,0.897,2,2v1
	c0,1.103-0.897,2-2,2h-2c-1.103,0-2-0.897-2-2c0-0.553-0.447-1-1-1s-1,0.447-1,1c0,2.206,1.794,4,4,4h2c2.206,0,4-1.794,4-4v-1
	c0-1.201-0.542-2.266-1.382-3C20.458,27.266,21,26.201,21,25z"/>
<path fill="#FFFFFF" d="M29,36h-2c-2.206,0-4-1.794-4-4v-8c0-2.206,1.794-4,4-4h2c2.206,0,4,1.794,4,4v8C33,34.206,31.206,36,29,36z
	 M27,22c-1.103,0-2,0.897-2,2v8c0,1.103,0.897,2,2,2h2c1.103,0,2-0.897,2-2v-8c0-1.103-0.897-2-2-2H27z"/>
<path fill="#FFFFFF" d="M38,26c-1.654,0-3-1.346-3-3s1.346-3,3-3s3,1.346,3,3S39.654,26,38,26z M38,22c-0.552,0-1,0.448-1,1
	s0.448,1,1,1s1-0.448,1-1S38.552,22,38,22z"/>
</g></svg>