<svg xmlns="http://www.w3.org/2000/svg" xmlns:xlink="http://www.w3.org/1999/xlink" x="0px" y="0px" width="48px" height="48px" viewBox="0 0 48 48"><g >
<path fill="#EEBC99" d="M47,42V10.544c-0.646,0.29-1.257,0.684-1.787,1.214c-2.343,2.343-6.142,2.343-8.485,0
	c-2.343-2.343-6.142-2.343-8.485,0c-2.343,2.343-6.142,2.343-8.485,0s-6.142-2.343-8.485,0s-6.142,2.343-8.485,0
	c-0.53-0.53-1.141-0.924-1.787-1.214V42H47z"/>
<path fill="#EA9860" d="M46,43H2c-0.553,0-1-0.447-1-1V6c0-0.553,0.447-1,1-1s1,0.447,1,1v35h42V6c0-0.553,0.447-1,1-1s1,0.447,1,1
	v36C47,42.553,46.553,43,46,43z"/>
<path fill="#FFFFFF" d="M15,22h2c1.103,0,2,0.897,2,2c0,0.553,0.447,1,1,1s1-0.447,1-1c0-2.206-1.794-4-4-4h-2c-2.206,0-4,1.794-4,4
	v6c0,0.118,0.03,0.228,0.067,0.334C11.031,30.552,11,30.772,11,31v1c0,2.206,1.794,4,4,4h2c2.206,0,4-1.794,4-4v-1
	c0-2.206-1.794-4-4-4h-2c-0.732,0-1.409,0.212-2,0.556V24C13,22.897,13.897,22,15,22z M15,29h2c1.103,0,2,0.897,2,2v1
	c0,1.103-0.897,2-2,2h-2c-1.103,0-2-0.897-2-2v-1C13,29.897,13.897,29,15,29z"/>
<path fill="#FFFFFF" d="M29,20h-2c-2.206,0-4,1.794-4,4v8c0,2.206,1.794,4,4,4h2c2.206,0,4-1.794,4-4v-8C33,21.794,31.206,20,29,20z
	 M31,32c0,1.103-0.897,2-2,2h-2c-1.103,0-2-0.897-2-2v-8c0-1.103,0.897-2,2-2h2c1.103,0,2,0.897,2,2V32z"/>
<path fill="#FFFFFF" d="M38,20c-1.654,0-3,1.346-3,3s1.346,3,3,3s3-1.346,3-3S39.654,20,38,20z M38,24c-0.552,0-1-0.448-1-1
	s0.448-1,1-1s1,0.448,1,1S38.552,24,38,24z"/>
</g></svg>