<svg xmlns="http://www.w3.org/2000/svg" xmlns:xlink="http://www.w3.org/1999/xlink" x="0px" y="0px" width="48px" height="48px" viewBox="0 0 48 48"><g >
<polygon fill="#C64B4B" points="16,11 32,6 32,33 16,33 "/>
<path fill="#E86C60" d="M26.873,14.059c4.122-2.689,6.178-7.386,4.591-10.49
	c-1.587-3.105-6.215-3.442-10.337-0.753s-6.178,7.386-4.591,10.49S22.751,16.748,26.873,14.059z"/>
<path fill="#EFD358" d="M35,47H13c-1.105,0-2-0.895-2-2V31c0-1.105,0.895-2,2-2h22c1.105,0,2,0.895,2,2v14
	C37,46.105,36.105,47,35,47z"/>
</g></svg>