<svg xmlns="http://www.w3.org/2000/svg" xmlns:xlink="http://www.w3.org/1999/xlink" x="0px" y="0px" width="48px" height="48px" viewBox="0 0 48 48"><g >
<path fill="#E2BC3A" d="M24,11c-9.925,0-18,8.075-18,18s8.075,18,18,18s18-8.075,18-18S33.925,11,24,11z M24,44
	c-8.271,0-15-6.729-15-15s6.729-15,15-15s15,6.729,15,15S32.271,44,24,44z"/>
<path fill="#9BCED3" d="M30.832,4.445l-2-3C28.646,1.167,28.334,1,28,1h-8c-0.334,0-0.646,0.167-0.832,0.445l-2,3
	c-0.112,0.169-0.16,0.362-0.16,0.555h13.984C30.992,4.807,30.944,4.614,30.832,4.445z"/>
<path fill="#76B5B5" d="M17.008,5c0,0.233,0.073,0.465,0.233,0.651l6,7C23.431,12.873,23.708,13,24,13s0.569-0.127,0.759-0.349l6-7
	c0.16-0.186,0.233-0.418,0.233-0.651H17.008z"/>
</g></svg>