<svg xmlns="http://www.w3.org/2000/svg" xmlns:xlink="http://www.w3.org/1999/xlink" x="0px" y="0px" width="48px" height="48px" viewBox="0 0 48 48"><g >
<path fill="#BBBBEA" d="M45,7H3C1.895,7,1,7.895,1,9v36c0,1.105,0.895,2,2,2h42c1.105,0,2-0.895,2-2V9C47,7.895,46.105,7,45,7z"/>
<rect x="12" y="1" fill="#5757B2" width="24" height="11"/>
<path fill="#8680D8" d="M36.424,1.094c-0.35-0.164-0.766-0.112-1.064,0.138L24,10.698L12.64,1.232
	c-0.299-0.25-0.714-0.302-1.064-0.138C11.225,1.259,11,1.612,11,2v18c0,0.369,0.203,0.708,0.528,0.882
	C11.676,20.961,11.838,21,12,21c0.194,0,0.387-0.057,0.555-0.168L24,13.202l11.445,7.63C35.613,20.943,35.806,21,36,21
	c0.162,0,0.324-0.039,0.472-0.118C36.797,20.708,37,20.369,37,20V2C37,1.612,36.775,1.259,36.424,1.094z"/>
<path fill="#8680D8" d="M36,42c-0.193,0-0.387-0.056-0.555-0.168l-6-4C29.167,37.646,29,37.334,29,37V27c0-0.552,0.447-1,1-1h12
	c0.553,0,1,0.448,1,1v10c0,0.334-0.167,0.646-0.445,0.832l-6,4C36.387,41.944,36.193,42,36,42z"/>
<path fill="#E6E6E6" d="M24,28L24,28c-0.552,0-1-0.448-1-1v-1c0-0.552,0.448-1,1-1h0c0.552,0,1,0.448,1,1v1
	C25,27.552,24.552,28,24,28z"/>
<path fill="#E6E6E6" d="M24,21L24,21c-0.552,0-1-0.448-1-1v-1c0-0.552,0.448-1,1-1h0c0.552,0,1,0.448,1,1v1
	C25,20.552,24.552,21,24,21z"/>
<path fill="#E6E6E6" d="M24,35L24,35c-0.552,0-1-0.448-1-1v-1c0-0.552,0.448-1,1-1h0c0.552,0,1,0.448,1,1v1
	C25,34.552,24.552,35,24,35z"/>
<path fill="#E6E6E6" d="M24,42L24,42c-0.552,0-1-0.448-1-1v-1c0-0.552,0.448-1,1-1h0c0.552,0,1,0.448,1,1v1
	C25,41.552,24.552,42,24,42z"/>
</g></svg>