<svg xmlns="http://www.w3.org/2000/svg" xmlns:xlink="http://www.w3.org/1999/xlink" x="0px" y="0px" width="48px" height="48px" viewBox="0 0 48 48"><g >
<path fill="#5B5B5B" d="M46,40H28c-7.131,0-12.332-2.287-12.55-2.384c-0.146-0.053-0.28-0.04-0.332-0.004
	C15.063,37.65,15,37.774,15,38.001V39c0,0.552-0.447,1-1,1H2c-0.553,0-1-0.448-1-1V18c0-0.369,0.203-0.708,0.528-0.882
	c0.324-0.174,0.721-0.155,1.026,0.05C2.579,17.184,5.429,19,11,19s8.421-1.816,8.449-1.835c0.354-0.229,0.816-0.217,1.15,0.035
	l10.406,7.805c0.796,0.596,2.27,1.38,3.22,1.71l9.589,3.334C45.767,30.831,47,32.652,47,34.708V39C47,39.552,46.553,40,46,40z"/>
<path fill-rule="evenodd" clip-rule="evenodd" fill="#444444" d="M15,39v-0.999c0-0.227,0.063-0.351,0.118-0.389
	c0.052-0.036,0.186-0.049,0.332,0.004C15.668,37.713,20.869,40,28,40h18c0.553,0,1-0.448,1-1v-2H28c-7,0-13-3-13-3H1v5
	c0,0.552,0.447,1,1,1h12C14.553,40,15,39.552,15,39z"/>
</g></svg>