<svg xmlns="http://www.w3.org/2000/svg" xmlns:xlink="http://www.w3.org/1999/xlink" x="0px" y="0px" width="48px" height="48px" viewBox="0 0 48 48"><g >
<path fill="#43A6DD" d="M37,47H11c-0.552,0-1-0.447-1-1V29H2c-0.552,0-1-0.447-1-1V8c0-3.859,3.14-7,7-7h8c0.552,0,1,0.447,1,1
	c0,3.859,3.14,7,7,7s7-3.141,7-7c0-0.553,0.448-1,1-1h8c3.86,0,7,3.141,7,7v20c0,0.553-0.448,1-1,1h-8v17C38,46.553,37.552,47,37,47
	z"/>
<path fill="#458BC4" d="M10,29H2c-0.552,0-1-0.447-1-1s0.448-1,1-1h6v-9c0-0.553,0.448-1,1-1s1,0.447,1,1V29z"/>
<path fill="#458BC4" d="M46,29h-8V18c0-0.553,0.448-1,1-1s1,0.447,1,1v9h6c0.552,0,1,0.447,1,1S46.552,29,46,29z"/>
</g></svg>