<svg xmlns="http://www.w3.org/2000/svg" xmlns:xlink="http://www.w3.org/1999/xlink" x="0px" y="0px" width="48px" height="48px" viewBox="0 0 48 48"><g >
<path fill="#C64692" d="M32,17c-0.552,0-1-0.448-1-1v-6c0-3.86-3.14-7-7-7s-7,3.14-7,7v6c0,0.552-0.448,1-1,1s-1-0.448-1-1v-6
	c0-4.962,4.038-9,9-9s9,4.038,9,9v6C33,16.552,32.552,17,32,17z"/>
<path fill="#ED69AB" d="M38.681,47H9.319c-2.105,0-4.079-0.934-5.414-2.562c-1.334-1.628-1.863-3.746-1.45-5.811L7.02,15.804
	C7.113,15.336,7.523,15,8,15h32c0.477,0,0.887,0.336,0.98,0.804l4.564,22.823c0.413,2.065-0.116,4.183-1.45,5.811
	C42.76,46.066,40.787,47,38.681,47z"/>
</g></svg>