<svg xmlns="http://www.w3.org/2000/svg" xmlns:xlink="http://www.w3.org/1999/xlink" x="0px" y="0px" width="48px" height="48px" viewBox="0 0 48 48"><g >
<path fill="#E86C60" d="M42,47H6c-0.553,0-1-0.448-1-1c0-12.896,6.677-25.819,7.937-28.142C12.532,16.15,11,9.197,11,2
	c0-0.552,0.447-1,1-1c6.449,0,10.467,2.512,12,3.693C25.533,3.512,29.551,1,36,1c0.553,0,1,0.448,1,1
	c0,7.197-1.532,14.15-1.937,15.858C36.323,20.181,43,33.104,43,46C43,46.552,42.553,47,42,47z"/>
<path fill="#EFD358" d="M35,19H13c-0.553,0-1-0.448-1-1s0.447-1,1-1h22c0.553,0,1,0.448,1,1S35.553,19,35,19z"/>
</g></svg>