<svg xmlns="http://www.w3.org/2000/svg" xmlns:xlink="http://www.w3.org/1999/xlink" x="0px" y="0px" width="48px" height="48px" viewBox="0 0 48 48"><g >
<path fill="#B3B3B3" d="M2,38c0,2.209,1.791,4,4,4h9c3.314,0,6-2.686,6-6v-6c0-1.105-0.895-2-2-2H2V38z"/>
<path fill="#5B5B5B" d="M15,43H6c-2.757,0-5-2.243-5-5V28c0-0.552,0.448-1,1-1h17c1.654,0,3,1.346,3,3v6C22,39.86,18.86,43,15,43z
	 M3,29v9c0,1.654,1.346,3,3,3h9c2.757,0,5-2.243,5-5v-6c0-0.551-0.449-1-1-1H3z"/>
<path fill="#B3B3B3" d="M46,38c0,2.209-1.791,4-4,4h-9c-3.314,0-6-2.686-6-6v-6c0-1.105,0.895-2,2-2h17V38z"/>
<path fill="#5B5B5B" d="M42,43h-9c-3.86,0-7-3.14-7-7v-6c0-1.654,1.346-3,3-3h17c0.552,0,1,0.448,1,1v10C47,40.757,44.757,43,42,43z
	 M29,29c-0.551,0-1,0.449-1,1v6c0,2.757,2.243,5,5,5h9c1.654,0,3-1.346,3-3v-9H29z"/>
<path fill="#5B5B5B" d="M2,29c-0.104,0-0.211-0.017-0.316-0.052c-0.524-0.175-0.807-0.741-0.632-1.265l5.783-17.349
	c0.21-0.629,0.629-1.179,1.181-1.547l5.43-3.62c0.459-0.308,1.08-0.183,1.387,0.277c0.306,0.459,0.182,1.081-0.277,1.387
	l-5.429,3.619c-0.184,0.123-0.324,0.306-0.394,0.516L2.949,28.316C2.809,28.735,2.419,29,2,29z"/>
<path fill="#5B5B5B" d="M46,29c-0.419,0-0.809-0.265-0.949-0.684l-5.783-17.349c-0.07-0.21-0.21-0.394-0.394-0.517l-5.429-3.619
	c-0.459-0.306-0.583-0.927-0.277-1.387c0.307-0.46,0.927-0.585,1.387-0.277l5.429,3.619c0.552,0.369,0.972,0.918,1.182,1.547
	l5.783,17.349c0.175,0.524-0.108,1.09-0.632,1.265C46.211,28.984,46.104,29,46,29z"/>
<path fill="#5B5B5B" d="M27,33h-6c-0.552,0-1-0.448-1-1s0.448-1,1-1h6c0.552,0,1,0.448,1,1S27.552,33,27,33z"/>
</g></svg>