<svg xmlns="http://www.w3.org/2000/svg" xmlns:xlink="http://www.w3.org/1999/xlink" x="0px" y="0px" width="48px" height="48px" viewBox="0 0 48 48"><g >
<path fill="#458BC4" d="M30,15c-0.552,0-1-0.448-1-1V8c0-2.757-2.243-5-5-5s-5,2.243-5,5v6c0,0.552-0.448,1-1,1s-1-0.448-1-1V8
	c0-3.86,3.14-7,7-7s7,3.14,7,7v6C31,14.552,30.552,15,30,15z"/>
<path fill="#72C472" d="M31,9H17C10.373,9,5,14.373,5,21v22c0,2.209,1.791,4,4,4h30c2.209,0,4-1.791,4-4V21C43,14.373,37.627,9,31,9
	z"/>
<path fill="#458BC4" d="M9,47V28c0-6.065,6.729-11,15-11s15,4.935,15,11v19H9z"/>
<path fill="#BADEFC" d="M30,38H18c-0.552,0-1-0.448-1-1v-6c0-0.552,0.448-1,1-1h12c0.552,0,1,0.448,1,1v6C31,37.552,30.552,38,30,38
	z"/>
</g></svg>