<svg xmlns="http://www.w3.org/2000/svg" xmlns:xlink="http://www.w3.org/1999/xlink" x="0px" y="0px" width="48px" height="48px" viewBox="0 0 48 48"><g >
<path fill="#5B5B5B" d="M38,11H10c-0.553,0-1-0.447-1-1V4c0-0.553,0.447-1,1-1h28c0.553,0,1,0.447,1,1v6C39,10.553,38.553,11,38,11z
	"/>
<path fill="#B3B3B3" d="M44,45H4c-0.298,0-0.579-0.133-0.77-0.361s-0.269-0.53-0.213-0.823l6-32C9.105,11.343,9.519,11,10,11h28
	c0.481,0,0.895,0.343,0.982,0.815l6,32c0.056,0.293-0.022,0.595-0.213,0.823S44.298,45,44,45z"/>
<rect x="17" y="3" fill="#999999" width="2" height="8"/>
<rect x="29" y="3" fill="#999999" width="2" height="8"/>
<path fill="#999999" d="M15.001,43c-0.055,0-0.109-0.004-0.165-0.014c-0.545-0.091-0.913-0.606-0.822-1.15l3-18
	c0.09-0.545,0.604-0.92,1.15-0.822c0.545,0.091,0.913,0.606,0.822,1.15l-3,18C15.905,42.653,15.481,43,15.001,43z"/>
<path fill="#999999" d="M32.999,43c-0.48,0-0.904-0.347-0.985-0.836l-3-18c-0.091-0.544,0.277-1.06,0.822-1.15
	c0.545-0.098,1.06,0.277,1.15,0.822l3,18c0.091,0.544-0.277,1.06-0.822,1.15C33.108,42.996,33.054,43,32.999,43z"/>
</g></svg>