<svg xmlns="http://www.w3.org/2000/svg" xmlns:xlink="http://www.w3.org/1999/xlink" x="0px" y="0px" width="48px" height="48px" viewBox="0 0 48 48"><g >
<path fill="#E86C60" d="M42.8,33.4c-0.4-0.4-1-0.5-1.4-0.1c0,0-0.3,0.2-0.7,0.6L11,30.1c0-0.2,0-0.3,0-0.5c-0.2-0.5-0.8-0.8-1.3-0.6
	C8.2,29.6,1,32.3,1,36c0,4.5,13.5,9,21,9c8.3,0,20.1-9.8,20.6-10.2C43.1,34.4,43.1,33.8,42.8,33.4z"/>
<path fill="#E6E6E6" d="M28,5C17.5,5,9,13.5,9,24v8c0,0.3,0.1,0.6,0.4,0.8C9.6,33,15.1,37,28,37s18.4-4,18.6-4.2
	c0.3-0.2,0.4-0.5,0.4-0.8v-8C47,13.5,38.5,5,28,5z"/>
<path fill="#C9C9C9" d="M46.6,32.8c0.3-0.2,0.4-0.5,0.4-0.8v-8c0-10.5-8.5-19-19-19c-1,0-2,0.1-3,0.3c7.5,2.2,13,9.1,13,17.3v13.5
	C43.8,34.8,46.4,32.9,46.6,32.8z"/>
<path fill="#E86C60" d="M28,2c1.657,0,3,1.343,3,3s-1.343,2-3,2s-3-0.343-3-2S26.343,2,28,2z"/>
</g></svg>