<svg xmlns="http://www.w3.org/2000/svg" xmlns:xlink="http://www.w3.org/1999/xlink" x="0px" y="0px" width="48px" height="48px" viewBox="0 0 48 48"><g >
<path fill="#43A6DD" d="M38,47H10c-0.552,0-1-0.448-1-1V5h30v41C39,46.552,38.552,47,38,47z"/>
<path fill="#458BC4" d="M12,19H9c0,0,0-0.447,0-1s0-1,0-1h3c1.654,0,3-1.346,3-3v-2c0-0.553,0.448-1,1-1s1,0.447,1,1v2
	C17,16.757,14.757,19,12,19z"/>
<path fill="#458BC4" d="M39,19h-3c-2.757,0-5-2.243-5-5v-2c0-0.553,0.448-1,1-1s1,0.447,1,1v2c0,1.654,1.346,3,3,3h3v1V19z"/>
<path fill="#458BC4" d="M24,47c-0.552,0-1,0-1,0V24c0-0.553,0.448-1,1-1s1,0.447,1,1v23C25,47,24.552,47,24,47z"/>
<path fill="#444444" d="M39,5H9V2c0-0.552,0.448-1,1-1h28c0.552,0,1,0.448,1,1V5z"/>
<path fill="#458BC4" d="M39,5h-7V1h-2v4H18V1h-2v4H9v1v1h14v7c0,0.553,0.448,1,1,1s1-0.447,1-1V7h14c0,0,0-0.447,0-1S39,5,39,5z"/>
</g></svg>