<svg xmlns="http://www.w3.org/2000/svg" xmlns:xlink="http://www.w3.org/1999/xlink" x="0px" y="0px" width="48px" height="48px" viewBox="0 0 48 48"><g >
<path fill="none" d="M38.707,10.707c0.391-0.391,0.391-1.023,0-1.414s-1.023-0.391-1.414,0l-1.55,1.55l1.414,1.414L38.707,10.707z"/>
<path fill="none" d="M33.293,13.293c-0.391,0.391-0.391,1.023,0,1.414C33.488,14.902,33.744,15,34,15s0.512-0.098,0.707-0.293
	l1.035-1.035l-1.414-1.414L33.293,13.293z"/>
<path fill="#999999" d="M27.394,2.494c-0.391-0.391-1.023-0.391-1.414,0s-0.391,1.023,0,1.414l4.473,4.473l1.239-1.589L27.394,2.494
	z"/>
<path fill="#999999" d="M33.051,44.92c0.195,0.195,0.451,0.293,0.707,0.293s0.512-0.098,0.707-0.293
	c0.391-0.391,0.391-1.023,0-1.414L22.137,31.179l-1.589,1.239L33.051,44.92z"/>
<path fill="#E0E0E0" d="M42.95,5.05c-2.734-2.734-7.166-2.734-9.9,0L2.969,43.627c-0.725,0.929,0.474,2.128,1.404,1.404L42.95,14.95
	C45.683,12.216,45.683,7.784,42.95,5.05z M38.707,10.707l-4,4C34.512,14.902,34.256,15,34,15s-0.512-0.098-0.707-0.293
	c-0.391-0.391-0.391-1.023,0-1.414l4-4c0.391-0.391,1.023-0.391,1.414,0S39.098,10.316,38.707,10.707z"/>
<path fill="#999999" d="M42.949,18.05l-7.207-7.207l-1.414,1.414l7.207,7.207C42.479,20.409,43,21.665,43,23
	s-0.521,2.591-1.465,3.536S39.335,28,38,28s-2.591-0.52-3.535-1.464L18.201,10.272c-2.73-2.729-7.171-2.729-9.899,0
	c-1.322,1.322-2.051,3.08-2.051,4.95s0.729,3.627,2.051,4.95l7.28,7.28l1.239-1.589l-7.106-7.106
	c-0.944-0.944-1.465-2.2-1.465-3.536s0.521-2.591,1.465-3.536c1.949-1.949,5.122-1.949,7.071,0L33.051,27.95
	C34.373,29.272,36.13,30,38,30s3.627-0.728,4.949-2.05S45,24.87,45,23S44.271,19.373,42.949,18.05z"/>
</g></svg>