<svg xmlns="http://www.w3.org/2000/svg" xmlns:xlink="http://www.w3.org/1999/xlink" x="0px" y="0px" width="48px" height="48px" viewBox="0 0 48 48"><g >
<path fill="#5757B2" d="M24,47c-6.222,0-11.338-4.673-11.901-10.868l-2.009-22.1c-0.303-3.336,0.818-6.667,3.077-9.141
	C15.426,2.419,18.642,1,21.991,1h4.018c3.35,0,6.565,1.419,8.824,3.892c2.259,2.474,3.38,5.805,3.077,9.141l-2.009,22.1
	C35.338,42.327,30.222,47,24,47z"/>
<path fill="#ED69AB" d="M36.777,25.952C35.524,20.183,29.186,15.74,25,15.091V10c0-0.553-0.447-1-1-1s-1,0.447-1,1v5.091
	c-4.182,0.649-10.519,5.088-11.775,10.852c-0.118,0.539,0.224,1.072,0.764,1.189c0.536,0.127,1.072-0.225,1.189-0.764
	C14.307,21.197,20.534,17,24,17c3.47,0,9.698,4.2,10.822,9.376c0.102,0.469,0.517,0.788,0.977,0.788c0.07,0,0.142-0.007,0.213-0.022
	C36.552,27.024,36.895,26.491,36.777,25.952z"/>
</g></svg>