<svg xmlns="http://www.w3.org/2000/svg" xmlns:xlink="http://www.w3.org/1999/xlink" x="0px" y="0px" width="48px" height="48px" viewBox="0 0 48 48"><g >
<path fill="#72C472" d="M46.447,7.105l-8-4C38.309,3.036,38.156,3,38.001,3H32c0,4.418-3.582,8-8,8s-8-3.582-8-8H9.999
	C9.844,3,9.691,3.036,9.552,3.105l-8,4C1.214,7.275,1,7.621,1,8v12c0,0.552,0.448,1,1,1h7v23c0,0.552,0.448,1,1,1h28
	c0.552,0,1-0.448,1-1V21h7c0.552,0,1-0.448,1-1V8C47,7.621,46.786,7.275,46.447,7.105z"/>
<path fill="#4DA34D" d="M24,12c-4.962,0-9-4.037-9-9h2c0,3.859,3.14,7,7,7s7-3.141,7-7h2C33,7.963,28.962,12,24,12z"/>
</g></svg>