<svg xmlns="http://www.w3.org/2000/svg" xmlns:xlink="http://www.w3.org/1999/xlink" x="0px" y="0px" width="48px" height="48px" viewBox="0 0 48 48"><g >
<path fill="#9ACCEF" d="M45,7H3C1.895,7,1,7.896,1,9v36c0,1.105,0.895,2,2,2h42c1.105,0,2-0.895,2-2V9C47,7.896,46.105,7,45,7z"/>
<rect x="12" y="1" fill="#75B4DB" width="24" height="11"/>
<rect x="23" y="11" fill="#75B4DB" width="2" height="36"/>
<path fill="#BADEFC" d="M36.424,1.094c-0.35-0.164-0.766-0.112-1.064,0.138L24,10.699L12.64,1.232
	c-0.299-0.25-0.714-0.302-1.064-0.138C11.225,1.259,11,1.612,11,2v18c0,0.369,0.203,0.708,0.528,0.882
	C11.676,20.961,11.838,21,12,21c0.194,0,0.387-0.057,0.555-0.168L24,13.202l11.445,7.63C35.613,20.943,35.806,21,36,21
	c0.162,0,0.324-0.039,0.472-0.118C36.797,20.708,37,20.369,37,20V2C37,1.612,36.775,1.259,36.424,1.094z"/>
<circle fill="#335262" cx="18.5" cy="27.5" r="1.5"/>
<circle fill="#335262" cx="18.5" cy="34.5" r="1.5"/>
<circle fill="#335262" cx="18.5" cy="41.5" r="1.5"/>
</g></svg>