<svg xmlns="http://www.w3.org/2000/svg" xmlns:xlink="http://www.w3.org/1999/xlink" x="0px" y="0px" width="48px" height="48px" viewBox="0 0 48 48"><g >
<path fill="#B3B3B3" d="M10,9C9.447,9,9,8.552,9,8V2c0-0.552,0.447-1,1-1s1,0.448,1,1v6C11,8.552,10.553,9,10,9z"/>
<path fill="#B3B3B3" d="M38,9c-0.553,0-1-0.448-1-1V2c0-0.552,0.447-1,1-1s1,0.448,1,1v6C39,8.552,38.553,9,38,9z"/>
<path fill="#444444" d="M24,45c-0.149,0-0.3-0.034-0.438-0.101c-1.734-0.844-16.853-8.433-13.885-14.934
	c0.951-2.084,2.326-3.535,3.114-4.254C11.848,23.402,9,15.792,9,8c0-0.552,0.447-1,1-1c7.956,0,12.31,3.607,14,5.428
	C25.69,10.607,30.044,7,38,7c0.553,0,1,0.448,1,1c0,7.793-2.849,15.403-3.792,17.712c0.788,0.719,2.164,2.171,3.117,4.259
	c2.968,6.5-12.153,14.085-13.888,14.929C24.3,44.966,24.149,45,24,45z"/>
</g></svg>