<svg xmlns="http://www.w3.org/2000/svg" xmlns:xlink="http://www.w3.org/1999/xlink" x="0px" y="0px" width="48px" height="48px" viewBox="0 0 48 48"><g >
<path fill="#8980DB" d="M43,47H5c-1.105,0-2-0.895-2-2V3c0-1.105,0.895-2,2-2h7c0.234,0,0.46,0.082,0.64,0.232L24,10.698
	l11.36-9.467C35.54,1.082,35.766,1,36,1h7c1.105,0,2,0.895,2,2v42C45,46.105,44.105,47,43,47z"/>
<path fill="#4D4FB0" d="M24,33c-0.552,0-1-0.448-1-1V12c0-0.552,0.448-1,1-1s1,0.448,1,1v20C25,32.552,24.552,33,24,33z"/>
<circle fill="#E6E6E6" cx="29.5" cy="26.5" r="1.5"/>
<circle fill="#E6E6E6" cx="29.5" cy="18.5" r="1.5"/>
</g></svg>