<svg xmlns="http://www.w3.org/2000/svg" xmlns:xlink="http://www.w3.org/1999/xlink" x="0px" y="0px" width="48px" height="48px" viewBox="0 0 48 48"><g >
<path fill="#E86C60" d="M44.5,10.5c-1.5-0.9-3.4-0.9-5-0.1L27,17.3c-0.5,0.3-0.7,0.9-0.4,1.4c0.2,0.3,0.5,0.5,0.9,0.5v9.6
	c-0.4,0-0.7,0.2-0.9,0.5c-0.3,0.5-0.1,1.1,0.4,1.4l12.5,6.9c0.8,0.4,1.6,0.6,2.4,0.6c0.9,0,1.7-0.2,2.5-0.7c1.5-0.9,2.5-2.5,2.5-4.3
	V14.8C47,13,46.1,11.4,44.5,10.5z"/>
<path fill="#E86C60" d="M20.4,28.8v-9.6c0.4,0,0.7-0.2,0.9-0.5c0.3-0.5,0.1-1.1-0.4-1.4L8.4,10.4c-1.6-0.9-3.4-0.8-5,0.1
	C1.9,11.4,1,13,1,14.8v18.4c0,1.8,0.9,3.4,2.5,4.3C4.3,38,5.1,38.2,6,38.2c0.8,0,1.7-0.2,2.4-0.6l12.5-6.9c0.5-0.3,0.7-0.9,0.4-1.4
	C21.1,29,20.8,28.8,20.4,28.8z"/>
<path fill="#C64B4B" d="M34,23h-6c-0.6,0-1,0.4-1,1s0.4,1,1,1h6c0.6,0,1-0.4,1-1S34.6,23,34,23z"/>
<path fill="#C64B4B" d="M20,23h-6c-0.6,0-1,0.4-1,1s0.4,1,1,1h6c0.6,0,1-0.4,1-1S20.6,23,20,23z"/>
<path fill="#EFD358" d="M24,15c-2.8,0-5,2.2-5,5v8c0,2.8,2.2,5,5,5s5-2.2,5-5v-8C29,17.2,26.8,15,24,15z"/>
</g></svg>