<svg xmlns="http://www.w3.org/2000/svg" xmlns:xlink="http://www.w3.org/1999/xlink" x="0px" y="0px" width="48px" height="48px" viewBox="0 0 48 48"><g >
<path fill="#9BCED3" d="M47,8c0-0.553-0.448-1-1-1H2C1.448,7,1,7.447,1,8v5h46V8z"/>
<path fill="#5A7A84" d="M1,13v15c0,0.553,0.448,1,1,1h2c6.065,0,11,4.935,11,11c0,0.553,0.448,1,1,1h16c0.552,0,1-0.447,1-1
	c0-6.065,4.935-11,11-11h2c0.552,0,1-0.447,1-1V13H1z"/>
<path fill="#76B5B5" d="M19,14v-1h-2v1c0,6.852-4.082,12.754-9.935,15.443c0.842,0.245,1.641,0.588,2.387,1.016
	C15.148,27.174,19,21.034,19,14z"/>
<path fill="#76B5B5" d="M31,14v-1h-2v1c0,7.034,3.852,13.174,9.549,16.459c0.746-0.428,1.545-0.771,2.387-1.016
	C35.082,26.754,31,20.852,31,14z"/>
</g></svg>