<svg xmlns="http://www.w3.org/2000/svg" xmlns:xlink="http://www.w3.org/1999/xlink" x="0px" y="0px" width="48px" height="48px" viewBox="0 0 48 48"><g >
<path fill="#BADEFC" d="M45.213,11.757c-1.682,1.682-4.108,2.135-6.213,1.403V34c0,1.105-0.895,2-2,2s-2-0.895-2-2V23h-2v13
	c0,1.105-0.895,2-2,2s-2-0.895-2-2V23h-2v13c0,1.105-0.895,2-2,2s-2-0.895-2-2V23h-2v11c0,1.105-0.895,2-2,2s-2-0.895-2-2V18.536
	l-3.732,3.732c-0.977,0.977-2.559,0.977-3.536,0s-0.977-2.559,0-3.536L17,11.464V10.21c-1.985-0.507-4.174-0.007-5.728,1.547
	c-2.343,2.343-6.142,2.343-8.485,0c-0.53-0.53-1.141-0.924-1.787-1.214V42h46V10.544C46.354,10.834,45.743,11.227,45.213,11.757z"/>
<path fill="#EFD358" d="M28.243,11.757c2.343-2.343,6.142-2.343,8.485,0c0.661,0.661,1.444,1.115,2.272,1.403V4c0-0.552-0.448-1-1-1
	H18c-0.552,0-1,0.448-1,1v6.21c1.008,0.258,1.968,0.758,2.757,1.547C22.101,14.1,25.899,14.1,28.243,11.757z"/>
<path fill="#E2BC3A" d="M9.732,18.732c-1.037,1.037-0.973,2.756,0.191,3.708c1.012,0.828,2.52,0.651,3.445-0.273L17,18.536l0,15.359
	c0,0.996,0.681,1.919,1.665,2.078C19.918,36.176,21,35.215,21,34V24c0-0.552,0.448-1,1-1h0c0.552,0,1,0.448,1,1l0,11.894
	c0,0.996,0.681,1.919,1.665,2.078C25.918,38.176,27,37.215,27,36V24c0-0.552,0.448-1,1-1h0c0.552,0,1,0.448,1,1l0,11.894
	c0,0.996,0.681,1.919,1.665,2.078C31.918,38.176,33,37.215,33,36V24c0-0.552,0.448-1,1-1l0,0c0.552,0,1,0.448,1,1v9.894
	c0,0.996,0.681,1.919,1.665,2.078C37.918,36.176,39,35.215,39,34V13.16c-0.828-0.288-1.611-0.742-2.272-1.403
	c-2.343-2.343-6.142-2.343-8.485,0c-2.343,2.343-6.142,2.343-8.485,0c-0.789-0.789-1.749-1.289-2.757-1.547v1.254L9.732,18.732z"/>
<path fill="#43A6DD" d="M46,43H2c-0.553,0-1-0.447-1-1V6c0-0.553,0.447-1,1-1s1,0.447,1,1v35h42V6c0-0.553,0.447-1,1-1s1,0.447,1,1
	v36C47,42.553,46.553,43,46,43z"/>
</g></svg>