<svg xmlns="http://www.w3.org/2000/svg" xmlns:xlink="http://www.w3.org/1999/xlink" x="0px" y="0px" width="48px" height="48px" viewBox="0 0 48 48"><g >
<path fill="#E0E0E0" d="M45,7H3C1.895,7,1,7.895,1,9v36c0,1.105,0.895,2,2,2h42c1.105,0,2-0.895,2-2V9C47,7.895,46.105,7,45,7z"/>
<rect x="12" y="1" fill="#999999" width="24" height="11"/>
<rect x="23" y="11" fill="#999999" width="2" height="36"/>
<path fill="#B3B3B3" d="M36.424,1.094c-0.35-0.164-0.766-0.112-1.064,0.138L24,10.698L12.64,1.232
	c-0.299-0.25-0.714-0.302-1.064-0.138C11.225,1.259,11,1.612,11,2v18c0,0.369,0.203,0.708,0.528,0.882
	C11.676,20.961,11.838,21,12,21c0.194,0,0.387-0.057,0.555-0.168L24,13.202l11.445,7.63C35.613,20.943,35.806,21,36,21
	c0.162,0,0.324-0.039,0.472-0.118C36.797,20.708,37,20.369,37,20V2C37,1.612,36.775,1.259,36.424,1.094z"/>
<path fill="#B3B3B3" d="M38,43h-4c-2.757,0-5-2.243-5-5V28c0-0.553,0.448-1,1-1h12c0.552,0,1,0.447,1,1v10
	C43,40.757,40.757,43,38,43z"/>
</g></svg>