<svg xmlns="http://www.w3.org/2000/svg" xmlns:xlink="http://www.w3.org/1999/xlink" x="0px" y="0px" width="48px" height="48px" viewBox="0 0 48 48"><g >
<path fill="#8680D8" d="M36,1H12C9.2,1,7,3.2,7,6s2.2,5,5,5h24c2.8,0,5-2.2,5-5S38.8,1,36,1z"/>
<path fill="#9494E0" d="M42,9H6c-2.8,0-5,2.2-5,5v30c0,1.7,1.3,3,3,3h40c1.7,0,3-1.3,3-3V14C47,11.2,44.8,9,42,9z"/>
<path fill="#C3C3EA" d="M18,17c-0.6,0-1,0.4-1,1v16c0,0.6,0.4,1,1,1s1-0.4,1-1V18C19,17.4,18.6,17,18,17z"/>
<path fill="#C3C3EA" d="M30,17c-0.6,0-1,0.4-1,1v16c0,0.6,0.4,1,1,1s1-0.4,1-1V18C31,17.4,30.6,17,30,17z"/>
<path fill="#5757B2" d="M34,9c-0.6,0-19.4,0-20,0s-1,0.4-1,1c0,6.1,4.9,11,11,11s11-4.9,11-11C35,9.4,34.6,9,34,9z"/>
<path fill="#C3C3EA" d="M1,37v7c0,1.7,1.3,3,3,3h5V37H1z"/>
<path fill="#C3C3EA" d="M39,37v10h5c1.7,0,3-1.3,3-3v-7H39z"/>
<path fill="#5757B2" d="M7,35H1v2h6c1.1,0,2,0.9,2,2v8h2v-8C11,36.8,9.2,35,7,35z"/>
<path fill="#5757B2" d="M41,35c-2.2,0-4,1.8-4,4v8h2v-8c0-1.1,0.9-2,2-2h6v-2H41z"/>
</g></svg>