<svg xmlns="http://www.w3.org/2000/svg" xmlns:xlink="http://www.w3.org/1999/xlink" x="0px" y="0px" width="48px" height="48px" viewBox="0 0 48 48"><g >
<path fill="#999999" d="M3,18c-1.104,0-2-0.896-2-2v-4c0-3.309,2.691-6,6-6h19c1.104,0,2,0.896,2,2s-0.896,2-2,2H7
	c-1.103,0-2,0.897-2,2v4C5,17.104,4.105,18,3,18z"/>
<path fill="#E0E0E0" d="M46,40H2c-0.553,0-1-0.447-1-1v-6c0-0.553,0.447-1,1-1h40c0.334,0,0.646,0.167,0.832,0.445l4,6
	c0.204,0.307,0.224,0.701,0.05,1.026S46.369,40,46,40z"/>
<path fill="#335262" d="M42,34L1,34V16h25c9.384,0,17.016,7.642,17,17.029C42.999,33.569,42.541,34,42,34z"/>
<circle fill="#E86C60" cx="7" cy="26" r="2"/>
<circle fill="#999999" cx="15" cy="26" r="2"/>
<path fill="#999999" d="M42,34H1v-2h41c0.552,0,1,0.447,1,1S42.552,34,42,34z"/>
</g></svg>