<svg xmlns="http://www.w3.org/2000/svg" xmlns:xlink="http://www.w3.org/1999/xlink" x="0px" y="0px" width="48px" height="48px" viewBox="0 0 48 48"><g >
<path fill="#BADEFC" d="M47,42V10.544c-0.646,0.29-1.257,0.684-1.787,1.214c-2.343,2.343-6.142,2.343-8.485,0
	c-2.343-2.343-6.142-2.343-8.485,0c-2.343,2.343-6.142,2.343-8.485,0s-6.142-2.343-8.485,0s-6.142,2.343-8.485,0
	c-0.53-0.53-1.141-0.924-1.787-1.214V42H47z"/>
<path fill="#43A6DD" d="M46,43H2c-0.553,0-1-0.447-1-1V6c0-0.553,0.447-1,1-1s1,0.447,1,1v35h42V6c0-0.553,0.447-1,1-1s1,0.447,1,1
	v36C47,42.553,46.553,43,46,43z"/>
</g></svg>