<svg xmlns="http://www.w3.org/2000/svg" xmlns:xlink="http://www.w3.org/1999/xlink" x="0px" y="0px" width="48px" height="48px" viewBox="0 0 48 48"><g >
<path fill="#E6E6E6" d="M1,32v3c0,1.105,0.895,2,2,2h42c1.105,0,2-0.895,2-2v-3H1z"/>
<path fill="#43A6DD" d="M44.401,24.028L36.3,21l-14-10H18l-0.3,0.4c0,0-2.7,3.6-7.2,3.6s-7.2-3.6-7.2-3.6L3,11H2
	c-0.552,0-1,0.448-1,1v20h46v-4.225C47,26.106,45.964,24.613,44.401,24.028z"/>
<path fill="#458BC4" d="M22.3,11H18l-0.3,0.4c0,0-1,1.4-2.9,2.4l-1.4,0.8l9.956,6.247C23.516,20.947,23.7,21,23.888,21H36.2L22.3,11
	z"/>
<path fill="#E6E6E6" d="M24.5,12.6l-2.3,2.3c-0.4,0.4-0.4,1,0,1.4c0.2,0.2,0.5,0.3,0.7,0.3s0.5-0.1,0.7-0.3l2.6-2.6L24.5,12.6z"/>
<path fill="#E6E6E6" d="M26.9,19.4c0.3,0,0.5-0.1,0.7-0.3l2.5-2.5l-1.6-1.2l-2.3,2.3c-0.4,0.4-0.4,1,0,1.4
	C26.4,19.3,26.7,19.4,26.9,19.4z"/>
</g></svg>