<svg xmlns="http://www.w3.org/2000/svg" xmlns:xlink="http://www.w3.org/1999/xlink" x="0px" y="0px" width="48px" height="48px" viewBox="0 0 48 48"><g >
<path fill="#EAD8C5" d="M30,45H18c-0.552,0-1-0.447-1-1c0-3.859-3.14-7-7-7c-0.552,0-1-0.447-1-1V21H2c-0.552,0-1-0.447-1-1V8
	c0-0.379,0.214-0.725,0.553-0.895l8-4C9.691,3.036,9.844,3,10,3h6c0.552,0,1,0.447,1,1c0,3.859,3.14,7,7,7s7-3.141,7-7
	c0-0.553,0.448-1,1-1h6c0.155,0,0.309,0.036,0.447,0.105l8,4C46.786,7.275,47,7.621,47,8v12c0,0.553-0.448,1-1,1h-7v15
	c0,0.553-0.448,1-1,1c-3.86,0-7,3.141-7,7C31,44.553,30.552,45,30,45z"/>
<path fill="#ED69AB" d="M24,33c-0.22,0-0.44-0.072-0.623-0.218C22.622,32.182,16,26.793,16,22.714c0-2.6,2.162-4.714,4.818-4.714
	c1.172,0,2.3,0.433,3.182,1.194C24.882,18.433,26.009,18,27.182,18C29.838,18,32,20.114,32,22.714c0,4.079-6.622,9.468-7.377,10.068
	C24.44,32.928,24.22,33,24,33z"/>
</g></svg>