<svg xmlns="http://www.w3.org/2000/svg" xmlns:xlink="http://www.w3.org/1999/xlink" x="0px" y="0px" width="48px" height="48px" viewBox="0 0 48 48"><g >
<path fill="#43A6DD" d="M37,47H11c-0.552,0-1-0.448-1-1v-6H2c-0.552,0-1-0.448-1-1V8c0-3.866,3.134-7,7-7l8,0
	c0.555,0,0.999,0.456,1,1.011c0.009,5.607,6.646,9.691,12.48,4.816c1.358-1.135,1.735-2.948,1.527-4.705C30.935,1.515,31.408,1,32,1
	h8c3.866,0,7,3.134,7,7v31c0,0.552-0.448,1-1,1h-8v6C38,46.552,37.552,47,37,47z"/>
<path fill="#458BC4" d="M10,40H2c-0.552,0-1-0.447-1-1s0.448-1,1-1h6V21c0-0.553,0.448-1,1-1s1,0.447,1,1V40z"/>
<path fill="#458BC4" d="M46,40h-8V21c0-0.553,0.448-1,1-1s1,0.447,1,1v17h6c0.552,0,1,0.447,1,1S46.552,40,46,40z"/>
<path fill="#458BC4" d="M34,19h-6c-0.553,0-1-0.448-1-1s0.447-1,1-1h6c0.553,0,1,0.448,1,1S34.553,19,34,19z"/>
</g></svg>