<svg xmlns="http://www.w3.org/2000/svg" xmlns:xlink="http://www.w3.org/1999/xlink" x="0px" y="0px" width="48px" height="48px" viewBox="0 0 48 48"><g >
<path fill-rule="evenodd" clip-rule="evenodd" fill="#5B5B5B" d="M45,45.993c0,0.556-0.455,1.007-1,1.007H29
	c-0.552,0-1.401-0.182-1.916-0.416l-12.26-5.574c-1.008-0.458-1.955,0.062-2.114,1.143l-0.565,3.856
	C12.065,46.556,11.554,47,11.002,47H3.998C3.447,47,3,46.545,3,45.996V2.004C3,1.449,3.447,1,4.001,1h21.999
	c0.553,0,0.963,0.45,0.916,0.998l-1.831,21.589c-0.047,0.551,0.235,1.318,0.618,1.701l9.398,9.397
	c0.78,0.78,2.288,1.631,3.359,1.898l2.669,0.667C43.267,37.786,45,40.017,45,42.224L45,45.993z"/>
<path fill-rule="evenodd" clip-rule="evenodd" fill="#444444" d="M3,32.333v13.664C3,46.545,3.447,47,3.998,47h7.005
	c0.551,0,1.063-0.444,1.143-0.992l0.565-3.856c0.159-1.081,1.106-1.601,2.114-1.143l12.26,5.574C27.599,46.818,28.448,47,29,47
	h15.001c0.545,0,1-0.451,1-1.007L45,44H28.995c-0.549,0-1.396-0.187-1.893-0.419L3,32.333z"/>
</g></svg>