<svg xmlns="http://www.w3.org/2000/svg" xmlns:xlink="http://www.w3.org/1999/xlink" x="0px" y="0px" width="48px" height="48px" viewBox="0 0 48 48"><g >
<path fill="#E86C60" d="M40,21c-3.854,0-6.992-3.132-7-6.985c0-0.003-0.002-0.005-0.002-0.008C32.999,14.005,33,14.003,33,14v-4
	c0-4.962-4.037-9-9-9s-9,4.038-9,9v4c0,0.003,0.001,0.005,0.001,0.007c0,0.003-0.002,0.005-0.002,0.008
	C14.992,17.868,11.854,21,8,21H3v24c0,1.105,0.895,2,2,2h38c1.105,0,2-0.895,2-2V21H40z M24,3c3.859,0,7,3.14,7,7v3H17v-3
	C17,6.14,20.141,3,24,3z"/>
<path fill="#EFACA8" d="M24,39c-3.859,0-7-3.14-7-7v-4c0-0.552,0.447-1,1-1h12c0.553,0,1,0.448,1,1v4C31,35.86,27.859,39,24,39z"/>
</g></svg>