<svg xmlns="http://www.w3.org/2000/svg" xmlns:xlink="http://www.w3.org/1999/xlink" x="0px" y="0px" width="48px" height="48px" viewBox="0 0 48 48"><g >
<path fill="#5B5B5B" d="M46,47H2c-0.553,0-1-0.448-1-1V8c0-0.552,0.447-1,1-1h44c0.553,0,1,0.448,1,1v38C47,46.552,46.553,47,46,47z
	"/>
<path fill="#444444" d="M42,39H32c-0.553,0-1-0.448-1-1s0.447-1,1-1h10c0.553,0,1,0.448,1,1S42.553,39,42,39z"/>
<path fill="#444444" d="M24,37c-0.256,0-0.512-0.098-0.707-0.293l-10-10c-0.305-0.304-0.38-0.769-0.188-1.154l1.553-3.105
	l-7.105-3.553c-0.419-0.209-0.637-0.682-0.522-1.137l4-16C11.142,1.312,11.541,1,12,1h24c0.459,0,0.858,0.312,0.97,0.757l4,16
	c0.114,0.455-0.104,0.928-0.522,1.137l-7.105,3.553l1.553,3.105c0.192,0.385,0.117,0.85-0.188,1.154l-10,10
	C24.512,36.902,24.256,37,24,37z"/>
<path fill="#999999" d="M24,37c-0.424,0-0.802-0.268-0.943-0.667l-12-34c-0.107-0.306-0.061-0.646,0.127-0.911
	C11.371,1.158,11.676,1,12,1h24c0.324,0,0.629,0.158,0.816,0.422c0.188,0.265,0.234,0.604,0.127,0.911l-12,34
	C24.802,36.732,24.424,37,24,37z"/>
<path fill="#444444" d="M24,47c-0.553,0-1-0.448-1-1V36c0-0.552,0.447-1,1-1s1,0.448,1,1v10C25,46.552,24.553,47,24,47z"/>
<path fill="#444444" d="M24,37c-0.185,0-0.369-0.05-0.533-0.154c-0.396-0.249-0.565-0.739-0.41-1.179l12-34
	c0.147-0.416,0.56-0.669,0.99-0.666c0.441,0.021,0.816,0.328,0.923,0.756l4,16c0.114,0.455-0.104,0.928-0.522,1.137l-7.105,3.553
	l1.553,3.105c0.192,0.385,0.117,0.85-0.188,1.154l-10,10C24.514,36.9,24.258,37,24,37z"/>
<path fill="#444444" d="M24,37c-0.258,0-0.514-0.1-0.707-0.293l-10-10c-0.305-0.304-0.38-0.769-0.188-1.154l1.553-3.105
	l-7.105-3.553c-0.419-0.209-0.637-0.682-0.522-1.137l4-16c0.106-0.428,0.481-0.735,0.923-0.756c0.436-0.006,0.844,0.25,0.99,0.666
	l12,34c0.155,0.44-0.015,0.93-0.41,1.179C24.369,36.95,24.184,37,24,37z"/>
</g></svg>