<svg xmlns="http://www.w3.org/2000/svg" xmlns:xlink="http://www.w3.org/1999/xlink" x="0px" y="0px" width="48px" height="48px" viewBox="0 0 48 48"><g >
<path fill="#335262" d="M42,47H10c-0.469,0-0.874-0.325-0.976-0.783l-4-18c-0.063-0.285,0.001-0.583,0.176-0.816l5.8-7.734V8h32v38
	C43,46.552,42.552,47,42,47z"/>
<path fill="#223E49" d="M28,35c-0.171,0-0.342-0.044-0.496-0.132l-7-4C20.192,30.69,20,30.358,20,30V18c0-0.553,0.448-1,1-1h14
	c0.552,0,1,0.447,1,1v12c0,0.358-0.192,0.69-0.504,0.868l-7,4C28.342,34.956,28.171,35,28,35z"/>
<rect x="20" y="21" fill="#A67C52" width="16" height="2"/>
<path fill="#A67C52" d="M43,8H11V2c0-0.552,0.448-1,1-1h30c0.552,0,1,0.448,1,1V8z"/>
<path fill="#223E49" d="M43,10H11c0,0,0-0.447,0-1s0-1,0-1h32c0,0,0,0.447,0,1S43,10,43,10z"/>
<path fill="#223E49" d="M22,10c-0.552,0-1-0.447-1-1V1h2v8C23,9.553,22.552,10,22,10z"/>
<path fill="#223E49" d="M32,10c-0.552,0-1-0.447-1-1V1h2v8C33,9.553,32.552,10,32,10z"/>
</g></svg>