<svg xmlns="http://www.w3.org/2000/svg" xmlns:xlink="http://www.w3.org/1999/xlink" x="0px" y="0px" width="48px" height="48px" viewBox="0 0 48 48"><g >
<path fill="#DDBE99" d="M3.886,44.013C3.949,44.558,4.444,45,5,45h3
	c0.552,0,1-0.451,1-0.995V27.997C9,26.894,9.888,26,11,26h2v-8H1L3.886,44.013z"/>
<path fill="#C64692" d="M31.351,45.092c-4.17,0-6.153-1.137-6.365-1.267c-0.996-0.45-2.162-1.634-2.625-2.656
	c-0.014-0.031-0.026-0.062-0.037-0.095c-0.041-0.123-4.285-12.35-20.808-21.784c-0.324-0.185-0.518-0.535-0.503-0.908
	c0.229-5.818,3.675-9.432,5.146-10.716C6.367,7.484,6.641,7.398,6.92,7.426C7.196,7.455,7.448,7.598,7.615,7.82L21.4,26.201
	C23.385,28.847,27.691,31,30.999,31H32c2.788,0,4.111-0.963,4.652-1.537c0.256-0.272,0.644-0.379,1.002-0.276l6.003,1.715
	c2.119,0.606,3.577,2.872,3.25,5.05l-0.314,2.096c-0.333,2.218-2.3,4.553-4.387,5.205c-0.03,0.014-2.807,1.256-8.706,1.748
	C32.765,45.061,32.042,45.092,31.351,45.092z"/>
</g></svg>