<svg xmlns="http://www.w3.org/2000/svg" xmlns:xlink="http://www.w3.org/1999/xlink" x="0px" y="0px" width="48px" height="48px" viewBox="0 0 48 48"><g >
<path fill="#C6A279" d="M45,47H3c-1.105,0-2-0.895-2-2V9c0-1.105,0.895-2,2-2h42c1.105,0,2,0.895,2,2v36C47,46.105,46.105,47,45,47z
	"/>
<path fill="#5E4027" d="M34,20H14c-0.553,0-1-0.447-1-1V2c0-0.553,0.447-1,1-1h20c0.553,0,1,0.447,1,1v17C35,19.553,34.553,20,34,20
	z"/>
<path fill="#87613E" d="M14.883,1.529c-0.182-0.339-0.507-0.547-0.926-0.528c-0.384,0.017-0.725,0.252-0.876,0.605l-6,14
	c-0.184,0.429-0.047,0.928,0.331,1.202l12.65,9.2L24,18.624L14.883,1.529z"/>
<path fill="#A67C52" d="M40.919,15.606l-6-14c-0.151-0.354-0.492-0.589-0.876-0.605c-0.409-0.016-0.744,0.19-0.926,0.528l-16,30
	c-0.219,0.411-0.125,0.919,0.227,1.226C17.531,32.918,17.766,33,18,33c0.206,0,0.412-0.063,0.588-0.191l22-16
	C40.966,16.534,41.103,16.035,40.919,15.606z"/>
<path fill="#A67C52" d="M17,47V32c0-0.553,0.447-1,1-1s1,0.447,1,1v15H17z"/>
<circle fill="#5E4027" cx="24" cy="39" r="2"/>
</g></svg>