<?xml version="1.0" encoding="utf-8"?>
<!-- Generator: Adobe Illustrator 19.2.1, SVG Export Plug-In . SVG Version: 6.00 Build 0)  -->
<!DOCTYPE svg PUBLIC "-//W3C//DTD SVG 1.1//EN" "http://www.w3.org/Graphics/SVG/1.1/DTD/svg11.dtd">
<svg version="1.1" id="Layer_1" xmlns="http://www.w3.org/2000/svg" xmlns:xlink="http://www.w3.org/1999/xlink" x="0px" y="0px"
	 width="16px" height="16px" viewBox="0 0 16 16" enable-background="new 0 0 16 16" xml:space="preserve">
<rect x="6" y="1" width="10" height="2"/>
<rect x="6" y="7" width="10" height="2"/>
<rect x="6" y="13" width="10" height="2"/>
<path d="M1,4h2c0.552,0,1-0.448,1-1V1c0-0.552-0.448-1-1-1H1C0.448,0,0,0.448,0,1v2C0,3.552,0.448,4,1,4z"/>
<path d="M0,9c0,0.552,0.448,1,1,1h2c0.552,0,1-0.448,1-1V7c0-0.552-0.448-1-1-1H1C0.448,6,0,6.448,0,7V9z"/>
<path d="M0,15c0,0.552,0.448,1,1,1h2c0.552,0,1-0.448,1-1v-2c0-0.552-0.448-1-1-1H1c-0.552,0-1,0.448-1,1V15z"/>
</svg>
