<?xml version="1.0" encoding="utf-8"?>
<!-- Generator: Adobe Illustrator 19.2.1, SVG Export Plug-In . SVG Version: 6.00 Build 0)  -->
<!DOCTYPE svg PUBLIC "-//W3C//DTD SVG 1.1//EN" "http://www.w3.org/Graphics/SVG/1.1/DTD/svg11.dtd">
<svg version="1.1" id="Layer_1" xmlns="http://www.w3.org/2000/svg" xmlns:xlink="http://www.w3.org/1999/xlink" x="0px" y="0px"
	 width="16px" height="16px" viewBox="0 0 16 16" enable-background="new 0 0 16 16" xml:space="preserve">
<path fill="#222221" d="M1.262,0.326C1.072,0.533,0.979,0.811,1.004,1.09l1,11c0.029,0.317,0.208,0.603,0.481,0.767l5,3
	C7.644,15.952,7.822,16,8,16s0.356-0.048,0.515-0.143l5-3c0.273-0.164,0.452-0.449,0.481-0.767l1-11
	c0.025-0.28-0.068-0.557-0.258-0.765S14.281,0,14,0H2C1.719,0,1.451,0.118,1.262,0.326z M4,9h2v1.279l2,0.667l2-0.667V8H4V2h8v2H6v2
	h6v5.721l-4,1.333l-4-1.333V9z"/>
</svg>
