<?xml version="1.0" encoding="utf-8"?>
<!-- Generator: Adobe Illustrator 19.2.1, SVG Export Plug-In . SVG Version: 6.00 Build 0)  -->
<!DOCTYPE svg PUBLIC "-//W3C//DTD SVG 1.1//EN" "http://www.w3.org/Graphics/SVG/1.1/DTD/svg11.dtd">
<svg version="1.1" id="Layer_1" xmlns="http://www.w3.org/2000/svg" xmlns:xlink="http://www.w3.org/1999/xlink" x="0px" y="0px"
	 width="16px" height="16px" viewBox="0 0 16 16" enable-background="new 0 0 16 16" xml:space="preserve">
<path fill="#222221" d="M11.895,5.553c-0.153-0.305-0.45-0.512-0.789-0.547c-0.338-0.039-0.673,0.104-0.886,0.369L6.792,9.659
	L4.555,8.168C4.327,8.017,4.046,7.964,3.781,8.024c-0.267,0.06-0.498,0.227-0.638,0.461l-3,5c-0.186,0.309-0.19,0.693-0.013,1.008
	C0.307,14.807,0.64,15,1,15h14c0.347,0,0.668-0.18,0.851-0.475s0.199-0.663,0.044-0.973L11.895,5.553z"/>
<circle fill="#222221" cx="6" cy="3" r="2"/>
</svg>
