<?xml version="1.0" encoding="utf-8"?>
<!-- Generator: Adobe Illustrator 19.2.1, SVG Export Plug-In . SVG Version: 6.00 Build 0)  -->
<!DOCTYPE svg PUBLIC "-//W3C//DTD SVG 1.1//EN" "http://www.w3.org/Graphics/SVG/1.1/DTD/svg11.dtd">
<svg version="1.1" id="Layer_1" xmlns="http://www.w3.org/2000/svg" xmlns:xlink="http://www.w3.org/1999/xlink" x="0px" y="0px"
	 width="16px" height="16px" viewBox="0 0 16 16" enable-background="new 0 0 16 16" xml:space="preserve">
<path d="M15.207,8.793l-5.5-5.5c-0.391-0.391-1.023-0.391-1.414,0l-7,7c-0.128,0.128-0.219,0.289-0.263,0.464l-1,4
	c-0.085,0.341,0.015,0.701,0.263,0.95C0.483,15.897,0.738,16,1,16c0.081,0,0.162-0.01,0.243-0.03l4-1
	c0.176-0.044,0.336-0.135,0.464-0.263L12,8.414L13.086,9.5l-3.293,3.293c-0.391,0.391-0.391,1.023,0,1.414s1.023,0.391,1.414,0l4-4
	C15.598,9.816,15.598,9.184,15.207,8.793z"/>
<path d="M15.379,0.621c-0.828-0.828-2.172-0.828-3,0l-1.258,1.258l3,3l1.258-1.258C16.207,2.793,16.207,1.45,15.379,0.621
	L15.379,0.621z"/>
</svg>
