<?xml version="1.0" encoding="utf-8"?>
<!-- Generator: Adobe Illustrator 19.2.1, SVG Export Plug-In . SVG Version: 6.00 Build 0)  -->
<!DOCTYPE svg PUBLIC "-//W3C//DTD SVG 1.1//EN" "http://www.w3.org/Graphics/SVG/1.1/DTD/svg11.dtd">
<svg version="1.1" id="Layer_1" xmlns="http://www.w3.org/2000/svg" xmlns:xlink="http://www.w3.org/1999/xlink" x="0px" y="0px"
	 width="16px" height="16px" viewBox="0 0 16 16" enable-background="new 0 0 16 16" xml:space="preserve">
<path d="M7.662,0.37C6.668,0.796,5.583,1.568,4.609,2.544C2.667,4.485,1.214,7.212,2.614,8.611c0.029,0.029,6.717,4.94,6.717,4.94
	c0.3,0.266,0.663,0.383,1.065,0.383c1.099,0,2.481-0.876,3.604-1.999c0.731-0.731,1.322-1.537,1.663-2.268
	c0.608-1.304,0.266-2.044-0.045-2.399c0,0-4.91-6.688-4.942-6.72C10.292,0.165,9.388-0.37,7.662,0.37z M7.268,5.203
	c-1.48,1.481-2.759,1.963-3.2,1.963c-0.003,0-0.006,0-0.009,0C4.053,6.732,4.533,5.448,6.023,3.958
	c1.48-1.481,2.758-1.963,3.199-1.963c0.003,0,0.006,0,0.009,0C9.238,2.428,8.758,3.712,7.268,5.203z"/>
<path d="M2,16c1.105,0,2-0.895,2-2c0-1.105-2-4-2-4s-2,2.895-2,4C0,15.105,0.895,16,2,16z"/>
</svg>
