<?xml version="1.0" encoding="utf-8"?>
<!-- Generator: Adobe Illustrator 19.2.1, SVG Export Plug-In . SVG Version: 6.00 Build 0)  -->
<!DOCTYPE svg PUBLIC "-//W3C//DTD SVG 1.1//EN" "http://www.w3.org/Graphics/SVG/1.1/DTD/svg11.dtd">
<svg version="1.1" id="Layer_1" xmlns="http://www.w3.org/2000/svg" xmlns:xlink="http://www.w3.org/1999/xlink" x="0px" y="0px"
	 width="16px" height="16px" viewBox="0 0 16 16" enable-background="new 0 0 16 16" xml:space="preserve">
<path fill="#222221" d="M4,15c0,0.6,0.4,1,1,1h6c0.6,0,1-0.4,1-1c0-1.1,0.9-2,2-2c0.6,0,1-0.4,1-1V4c0-0.6-0.4-1-1-1
	c-1.1,0-2-0.9-2-2c0-0.6-0.4-1-1-1H5C4.4,0,4,0.4,4,1c0,1.1-0.9,2-2,2C1.4,3,1,3.4,1,4v8c0,0.6,0.4,1,1,1C3.1,13,4,13.9,4,15z M8,3
	c2.2,0,4,2.2,4,5s-1.8,5-4,5s-4-2.2-4-5S5.8,3,8,3z"/>
</svg>
