<?xml version="1.0" encoding="utf-8"?>
<!-- Generator: Adobe Illustrator 19.2.1, SVG Export Plug-In . SVG Version: 6.00 Build 0)  -->
<!DOCTYPE svg PUBLIC "-//W3C//DTD SVG 1.1//EN" "http://www.w3.org/Graphics/SVG/1.1/DTD/svg11.dtd">
<svg version="1.1" id="Layer_1" xmlns="http://www.w3.org/2000/svg" xmlns:xlink="http://www.w3.org/1999/xlink" x="0px" y="0px"
	 width="16px" height="16px" viewBox="0 0 16 16" enable-background="new 0 0 16 16" xml:space="preserve">
<path d="M15,1h-2v2h1v9.382l-2.895,1.447L7.6,11.2c-0.262-0.197-0.605-0.255-0.916-0.148L2,12.612V3h1V1H1C0.447,1,0,1.447,0,2v12
	c0,1.071,1.011,1.051,1.316,0.948l5.503-1.834L10.4,15.8c0.317,0.247,0.706,0.243,1.047,0.095l4-2C15.786,13.725,16,13.379,16,13V2
	C16,1.447,15.553,1,15,1z"/>
<rect x="5" width="6" height="4"/>
</svg>
