<?xml version="1.0" encoding="utf-8"?>
<!-- Generator: Adobe Illustrator 19.2.1, SVG Export Plug-In . SVG Version: 6.00 Build 0)  -->
<!DOCTYPE svg PUBLIC "-//W3C//DTD SVG 1.1//EN" "http://www.w3.org/Graphics/SVG/1.1/DTD/svg11.dtd">
<svg version="1.1" id="Layer_1" xmlns="http://www.w3.org/2000/svg" xmlns:xlink="http://www.w3.org/1999/xlink" x="0px" y="0px"
	 width="16px" height="16px" viewBox="0 0 16 16" enable-background="new 0 0 16 16" xml:space="preserve">
<path d="M6,13l4.547-4.547l-3-3L3,10c0,0-0.634,2-1,2c-1.105,0-2,0.895-2,2c0,1.105,0.895,2,2,2s2-0.895,2-2C4,13.634,6,13,6,13z"/>
<path d="M15.379,0.621c-0.828-0.828-2.172-0.828-3,0l-1.5,1.5l-2-2L7,2l7,7l1.879-1.879l-2-2l1.5-1.5
	C16.207,2.793,16.207,1.45,15.379,0.621L15.379,0.621z"/>
</svg>
