<?xml version="1.0" encoding="utf-8"?>
<!-- Generator: Adobe Illustrator 19.2.1, SVG Export Plug-In . SVG Version: 6.00 Build 0)  -->
<!DOCTYPE svg PUBLIC "-//W3C//DTD SVG 1.1//EN" "http://www.w3.org/Graphics/SVG/1.1/DTD/svg11.dtd">
<svg version="1.1" id="Layer_1" xmlns="http://www.w3.org/2000/svg" xmlns:xlink="http://www.w3.org/1999/xlink" x="0px" y="0px"
	 width="16px" height="16px" viewBox="0 0 16 16" enable-background="new 0 0 16 16" xml:space="preserve">
<path fill="#222221" d="M15,1H1C0.448,1,0,1.448,0,2v2h1c0.552,0,1,0.448,1,1v6c0,0.552-0.448,1-1,1H0v2c0,0.552,0.448,1,1,1h14
	c0.552,0,1-0.448,1-1v-2h-1c-0.552,0-1-0.448-1-1V5c0-0.552,0.448-1,1-1h1V2C16,1.448,15.552,1,15,1z M11,11c0,0.552-0.448,1-1,1H6
	c-0.552,0-1-0.448-1-1V5c0-0.552,0.448-1,1-1h4c0.552,0,1,0.448,1,1V11z"/>
</svg>
