<?xml version="1.0" encoding="utf-8"?>
<!-- Generator: Adobe Illustrator 19.2.1, SVG Export Plug-In . SVG Version: 6.00 Build 0)  -->
<!DOCTYPE svg PUBLIC "-//W3C//DTD SVG 1.1//EN" "http://www.w3.org/Graphics/SVG/1.1/DTD/svg11.dtd">
<svg version="1.1" id="Layer_1" xmlns="http://www.w3.org/2000/svg" xmlns:xlink="http://www.w3.org/1999/xlink" x="0px" y="0px"
	 width="16px" height="16px" viewBox="0 0 16 16" enable-background="new 0 0 16 16" xml:space="preserve">
<path fill="#222221" d="M15,0H1C0.448,0,0,0.448,0,1v14c0,0.552,0.448,1,1,1h14c0.552,0,1-0.448,1-1V1C16,0.448,15.552,0,15,0z
	 M14,14H6v-3c0-0.552-0.448-1-1-1H2V2h12V14z"/>
<polygon fill="#222221" points="7.707,9.707 10.207,7.207 12,9 12,4 7,4 8.793,5.793 6.293,8.293 "/>
</svg>
