<?xml version="1.0" encoding="utf-8"?>
<!-- Generator: Adobe Illustrator 19.2.1, SVG Export Plug-In . SVG Version: 6.00 Build 0)  -->
<!DOCTYPE svg PUBLIC "-//W3C//DTD SVG 1.1//EN" "http://www.w3.org/Graphics/SVG/1.1/DTD/svg11.dtd">
<svg version="1.1" id="Layer_1" xmlns="http://www.w3.org/2000/svg" xmlns:xlink="http://www.w3.org/1999/xlink" x="0px" y="0px"
	 width="16px" height="16px" viewBox="0 0 16 16" enable-background="new 0 0 16 16" xml:space="preserve">
<path d="M11.707,0.297c-0.391-0.391-1.023-0.391-1.414,0L9,1.59l1.707,1.707L9.293,4.711L7.586,3.004L6,4.59l1.707,1.707
	L6.293,7.711L4.586,6.004L3,7.59l1.707,1.707l-1.414,1.414L1.586,9.004l-1.293,1.293c-0.391,0.391-0.391,1.023,0,1.414l4,4
	c0.388,0.388,1.043,0.371,1.414,0l10-10c0.391-0.391,0.391-1.023,0-1.414L11.707,0.297z"/>
</svg>
