<?xml version="1.0" encoding="utf-8"?>
<!-- Generator: Adobe Illustrator 19.2.1, SVG Export Plug-In . SVG Version: 6.00 Build 0)  -->
<!DOCTYPE svg PUBLIC "-//W3C//DTD SVG 1.1//EN" "http://www.w3.org/Graphics/SVG/1.1/DTD/svg11.dtd">
<svg version="1.1" id="Layer_1" xmlns="http://www.w3.org/2000/svg" xmlns:xlink="http://www.w3.org/1999/xlink" x="0px" y="0px"
	 width="16px" height="16px" viewBox="0 0 16 16" enable-background="new 0 0 16 16" xml:space="preserve">
<path d="M4.293,8.293c-0.391,0.391-0.391,1.023,0,1.414l2,2c0.477,0.477,1.023,0.391,1.414,0l4-4c0.391-0.391,0.391-1.023,0-1.414
	s-1.023-0.391-1.414,0L7,9.586L5.707,8.293C5.316,7.902,4.684,7.902,4.293,8.293z"/>
<path d="M15,1h-3v2h2v11H2V3h2V1H1C0.447,1,0,1.447,0,2v13c0,0.553,0.447,1,1,1h14c0.553,0,1-0.447,1-1V2C16,1.447,15.553,1,15,1z"
	/>
<rect x="5" width="6" height="4"/>
</svg>
