<?xml version="1.0" encoding="utf-8"?>
<!-- Generator: Adobe Illustrator 19.2.1, SVG Export Plug-In . SVG Version: 6.00 Build 0)  -->
<!DOCTYPE svg PUBLIC "-//W3C//DTD SVG 1.1//EN" "http://www.w3.org/Graphics/SVG/1.1/DTD/svg11.dtd">
<svg version="1.1" id="Layer_1" xmlns="http://www.w3.org/2000/svg" xmlns:xlink="http://www.w3.org/1999/xlink" x="0px" y="0px"
	 width="16px" height="16px" viewBox="0 0 16 16" enable-background="new 0 0 16 16" xml:space="preserve">
<path d="M15,0h-4c-0.552,0-1,0.448-1,1v1H3.723C3.376,1.405,2.738,1,2,1C0.895,1,0,1.895,0,3s0.895,2,2,2
	c0.738,0,1.376-0.405,1.723-1h2.951C4.635,5.43,3.11,7.53,2.414,10H1c-0.552,0-1,0.448-1,1v4c0,0.552,0.448,1,1,1h4
	c0.552,0,1-0.448,1-1v-4c0-0.552-0.448-1-1-1H4.517C5.42,7.433,7.433,5.42,10,4.517V5c0,0.552,0.448,1,1,1h4c0.552,0,1-0.448,1-1V1
	C16,0.448,15.552,0,15,0z M4,14H2v-2h2V14z M14,4h-2V2h2V4z"/>
</svg>
