<?xml version="1.0" encoding="utf-8"?>
<!-- Generator: Adobe Illustrator 19.2.1, SVG Export Plug-In . SVG Version: 6.00 Build 0)  -->
<!DOCTYPE svg PUBLIC "-//W3C//DTD SVG 1.1//EN" "http://www.w3.org/Graphics/SVG/1.1/DTD/svg11.dtd">
<svg version="1.1" id="Layer_1" xmlns="http://www.w3.org/2000/svg" xmlns:xlink="http://www.w3.org/1999/xlink" x="0px" y="0px"
	 width="16px" height="16px" viewBox="0 0 16 16" enable-background="new 0 0 16 16" xml:space="preserve">
<path d="M15,1H1C0.448,1,0,1.447,0,2v12c0,0.553,0.448,1,1,1h14c0.552,0,1-0.447,1-1V2C16,1.447,15.552,1,15,1z M6,4
	c0.552,0,1,0.448,1,1c0,0.552-0.448,1-1,1C5.448,6,5,5.552,5,5C5,4.448,5.448,4,6,4z M2,12l2-4l3,2l3-4l4,6H2z"/>
</svg>
