<?xml version="1.0" encoding="utf-8"?>
<!-- Generator: Adobe Illustrator 19.2.1, SVG Export Plug-In . SVG Version: 6.00 Build 0)  -->
<!DOCTYPE svg PUBLIC "-//W3C//DTD SVG 1.1//EN" "http://www.w3.org/Graphics/SVG/1.1/DTD/svg11.dtd">
<svg version="1.1" id="Layer_1" xmlns="http://www.w3.org/2000/svg" xmlns:xlink="http://www.w3.org/1999/xlink" x="0px" y="0px"
	 width="16px" height="16px" viewBox="0 0 16 16" enable-background="new 0 0 16 16" xml:space="preserve">
<path fill="#222221" d="M13.896,6.22c-0.759-0.945-1.823-1.492-2.828-1.492c-1.33,0-1.891,0.631-2.814,0.631
	c-0.951,0-1.674-0.63-2.823-0.63c-1.129,0-2.33,0.685-3.092,1.858c-1.071,1.649-0.89,4.752,0.847,7.395
	C3.808,14.927,4.637,15.99,5.722,16c0.964,0.009,1.237-0.615,2.545-0.622c1.308-0.007,1.556,0.629,2.52,0.62
	c1.085-0.01,1.961-1.187,2.581-2.133c0.446-0.677,0.611-1.019,0.957-1.785C11.815,11.131,11.411,7.582,13.896,6.22z"/>
<path fill="#222221" d="M8.04,4c0.973,0.03,1.98-0.551,2.564-1.301c0.546-0.7,0.96-1.689,0.809-2.699
	C10.522,0.061,9.48,0.628,8.871,1.367C8.319,2.038,7.863,3.033,8.04,4z"/>
</svg>
