<?xml version="1.0" encoding="utf-8"?>
<!-- Generator: Adobe Illustrator 19.2.1, SVG Export Plug-In . SVG Version: 6.00 Build 0)  -->
<!DOCTYPE svg PUBLIC "-//W3C//DTD SVG 1.1//EN" "http://www.w3.org/Graphics/SVG/1.1/DTD/svg11.dtd">
<svg version="1.1" id="Layer_1" xmlns="http://www.w3.org/2000/svg" xmlns:xlink="http://www.w3.org/1999/xlink" x="0px" y="0px"
	 width="16px" height="16px" viewBox="0 0 16 16" enable-background="new 0 0 16 16" xml:space="preserve">
<path d="M15,0H3C2.448,0,2,0.448,2,1v1H1C0.448,2,0,2.448,0,3v6c0,0.552,0.448,1,1,1h6v6h4V9c0-0.552-0.448-1-1-1H2V5
	c0,0.552,0.447,1,1,1h12c0.552,0,1-0.448,1-1V1C16,0.448,15.552,0,15,0z"/>
<path d="M12,12.062C12,13.133,12.895,14,14,14s2-0.867,2-1.938c0-1.07-2-3.875-2-3.875S12,10.992,12,12.062z"/>
</svg>
