<?xml version="1.0" encoding="utf-8"?>
<!-- Generator: Adobe Illustrator 19.2.1, SVG Export Plug-In . SVG Version: 6.00 Build 0)  -->
<!DOCTYPE svg PUBLIC "-//W3C//DTD SVG 1.1//EN" "http://www.w3.org/Graphics/SVG/1.1/DTD/svg11.dtd">
<svg version="1.1" id="Layer_1" xmlns="http://www.w3.org/2000/svg" xmlns:xlink="http://www.w3.org/1999/xlink" x="0px" y="0px"
	 width="16px" height="16px" viewBox="0 0 16 16" enable-background="new 0 0 16 16" xml:space="preserve">
<path d="M15,0H1C0.447,0,0,0.448,0,1v2c0,0.552,0.447,1,1,1h14c0.553,0,1-0.448,1-1V1C16,0.448,15.553,0,15,0z"/>
<path d="M1,16h2c0.553,0,1-0.448,1-1V7c0-0.552-0.447-1-1-1H1C0.447,6,0,6.448,0,7v8C0,15.552,0.447,16,1,16z"/>
<path d="M15,6H7C6.447,6,6,6.448,6,7v8c0,0.552,0.447,1,1,1h8c0.553,0,1-0.448,1-1V7C16,6.448,15.553,6,15,6z"/>
</svg>
