<?xml version="1.0" encoding="utf-8"?>
<!-- Generator: Adobe Illustrator 19.2.1, SVG Export Plug-In . SVG Version: 6.00 Build 0)  -->
<!DOCTYPE svg PUBLIC "-//W3C//DTD SVG 1.1//EN" "http://www.w3.org/Graphics/SVG/1.1/DTD/svg11.dtd">
<svg version="1.1" id="Layer_1" xmlns="http://www.w3.org/2000/svg" xmlns:xlink="http://www.w3.org/1999/xlink" x="0px" y="0px"
	 width="16px" height="16px" viewBox="0 0 16 16" enable-background="new 0 0 16 16" xml:space="preserve">
<path fill="#222221" d="M7.553,15.895C7.693,15.965,7.847,16,8,16s0.307-0.035,0.447-0.105l6-3C14.786,12.725,15,12.379,15,12V5
	c0-0.379-0.214-0.725-0.553-0.895l-6-3c-0.281-0.141-0.613-0.141-0.895,0l-6,3C1.214,4.275,1,4.621,1,5v7
	c0,0.379,0.214,0.725,0.553,0.895L7.553,15.895z M13,11.382l-4,2V8.618l4-2V11.382z M8,3.118L11.764,5L8,6.882L4.236,5L8,3.118z
	 M3,6.618l4,2v4.764l-4-2V6.618z"/>
</svg>
