<?xml version="1.0" encoding="utf-8"?>
<!-- Generator: Adobe Illustrator 19.2.1, SVG Export Plug-In . SVG Version: 6.00 Build 0)  -->
<!DOCTYPE svg PUBLIC "-//W3C//DTD SVG 1.1//EN" "http://www.w3.org/Graphics/SVG/1.1/DTD/svg11.dtd">
<svg version="1.1" id="Layer_1" xmlns="http://www.w3.org/2000/svg" xmlns:xlink="http://www.w3.org/1999/xlink" x="0px" y="0px"
	 width="16px" height="16px" viewBox="0 0 16 16" enable-background="new 0 0 16 16" xml:space="preserve">
<path fill="#222221" d="M6,13h6c0.553,0,1-0.447,1-1V6h-2v5H6V13z"/>
<path fill="#222221" d="M4,10h5c0.553,0,1-0.447,1-1V4c0-0.552-0.447-1-1-1H4C3.447,3,3,3.448,3,4v5C3,9.553,3.447,10,4,10z"/>
<path fill="#222221" d="M15,0H1C0.447,0,0,0.448,0,1v14c0,0.553,0.447,1,1,1h14c0.553,0,1-0.447,1-1V1C16,0.448,15.553,0,15,0z
	 M14,14H2V2h12V14z"/>
</svg>
