<?xml version="1.0" encoding="utf-8"?>
<!-- Generator: Adobe Illustrator 19.2.1, SVG Export Plug-In . SVG Version: 6.00 Build 0)  -->
<!DOCTYPE svg PUBLIC "-//W3C//DTD SVG 1.1//EN" "http://www.w3.org/Graphics/SVG/1.1/DTD/svg11.dtd">
<svg version="1.1" id="Layer_1" xmlns="http://www.w3.org/2000/svg" xmlns:xlink="http://www.w3.org/1999/xlink" x="0px" y="0px"
	 width="16px" height="16px" viewBox="0 0 16 16" enable-background="new 0 0 16 16" xml:space="preserve">
<path d="M15.447,8.105L10,6V3.721l2.317-0.773C12.725,2.812,13,2.43,13,2V0H3v2c0,0.43,0.275,0.812,0.683,0.948L6,3.721V6
	L0.553,8.105C0.214,8.275,0,8.621,0,9v3h16V9C16,8.621,15.786,8.275,15.447,8.105z"/>
<path d="M14,15v-1H2v1c0,0.552,0.448,1,1,1h10C13.552,16,14,15.552,14,15z"/>
</svg>
