<?xml version="1.0" encoding="utf-8"?>
<!-- Generator: Adobe Illustrator 19.2.1, SVG Export Plug-In . SVG Version: 6.00 Build 0)  -->
<!DOCTYPE svg PUBLIC "-//W3C//DTD SVG 1.1//EN" "http://www.w3.org/Graphics/SVG/1.1/DTD/svg11.dtd">
<svg version="1.1" id="Layer_1" xmlns="http://www.w3.org/2000/svg" xmlns:xlink="http://www.w3.org/1999/xlink" x="0px" y="0px"
	 width="16px" height="16px" viewBox="0 0 16 16" enable-background="new 0 0 16 16" xml:space="preserve">
<path fill="#222221" d="M15,0H1C0.447,0,0,0.448,0,1v14c0,0.553,0.447,1,1,1h14c0.553,0,1-0.447,1-1V1C16,0.448,15.553,0,15,0z
	 M14,14H2V2h12V14z"/>
<path fill="#222221" d="M8,12.22C8.532,12.699,9.229,13,10,13h1v-2h-1c-0.551,0-1-0.449-1-1h2V8H9V6c0-0.551,0.449-1,1-1h1V3h-1
	C9.229,3,8.532,3.301,8,3.78C7.468,3.301,6.771,3,6,3H5v2h1c0.551,0,1,0.449,1,1v2H5v2h2c0,0.551-0.449,1-1,1H5v2h1
	C6.771,13,7.468,12.699,8,12.22z"/>
</svg>
