<?xml version="1.0" encoding="utf-8"?>
<!-- Generator: Adobe Illustrator 19.2.1, SVG Export Plug-In . SVG Version: 6.00 Build 0)  -->
<!DOCTYPE svg PUBLIC "-//W3C//DTD SVG 1.1//EN" "http://www.w3.org/Graphics/SVG/1.1/DTD/svg11.dtd">
<svg version="1.1" id="Layer_1" xmlns="http://www.w3.org/2000/svg" xmlns:xlink="http://www.w3.org/1999/xlink" x="0px" y="0px"
	 width="16px" height="16px" viewBox="0 0 16 16" enable-background="new 0 0 16 16" xml:space="preserve">
<path d="M10.707,0.293c-0.256-0.257-0.631-0.354-0.982-0.254l-7,2C2.354,2.145,2.077,2.455,2.014,2.835L0.066,14.52l6.009-6.009
	C5.899,7.845,6.064,7.108,6.586,6.586c0.781-0.781,2.047-0.781,2.828,0c0.781,0.781,0.781,2.047,0,2.828
	c-0.522,0.522-1.259,0.687-1.925,0.511L1.48,15.934l11.684-1.947c0.381-0.063,0.691-0.34,0.797-0.711l2-7
	c0.1-0.35,0.002-0.725-0.254-0.982L10.707,0.293z"/>
</svg>
