<?xml version="1.0" encoding="utf-8"?>
<!-- Generator: Adobe Illustrator 19.2.1, SVG Export Plug-In . SVG Version: 6.00 Build 0)  -->
<!DOCTYPE svg PUBLIC "-//W3C//DTD SVG 1.1//EN" "http://www.w3.org/Graphics/SVG/1.1/DTD/svg11.dtd">
<svg version="1.1" id="Layer_1" xmlns="http://www.w3.org/2000/svg" xmlns:xlink="http://www.w3.org/1999/xlink" x="0px" y="0px"
	 width="16px" height="16px" viewBox="0 0 16 16" enable-background="new 0 0 16 16" xml:space="preserve">
<path fill="#222221" d="M0.504,11.868l7,4C7.657,15.956,7.829,16,8,16s0.343-0.044,0.496-0.132l7-4
	c0.245-0.14,0.419-0.376,0.48-0.651c0.061-0.275,0.003-0.563-0.159-0.793l-7.057-10C8.573,0.158,8.269,0,7.943,0
	C7.942,0,7.94,0,7.939,0C7.613,0.001,7.308,0.162,7.122,0.43l-6.943,10c-0.16,0.23-0.216,0.518-0.154,0.791
	C0.087,11.494,0.261,11.729,0.504,11.868z M9,4.231l4.549,6.446L9,13.277V4.231z M7,4.112v9.165l-4.556-2.603L7,4.112z"/>
</svg>
