<?xml version="1.0" encoding="utf-8"?>
<!-- Generator: Adobe Illustrator 19.2.1, SVG Export Plug-In . SVG Version: 6.00 Build 0)  -->
<!DOCTYPE svg PUBLIC "-//W3C//DTD SVG 1.1//EN" "http://www.w3.org/Graphics/SVG/1.1/DTD/svg11.dtd">
<svg version="1.1" id="Layer_1" xmlns="http://www.w3.org/2000/svg" xmlns:xlink="http://www.w3.org/1999/xlink" x="0px" y="0px"
	 width="16px" height="16px" viewBox="0 0 16 16" enable-background="new 0 0 16 16" xml:space="preserve">
<path fill="#222221" d="M1,9h5c0.552,0,1-0.448,1-1V1c0-0.552-0.448-1-1-1H1C0.448,0,0,0.448,0,1v7C0,8.552,0.448,9,1,9z"/>
<path fill="#222221" d="M1,16h5c0.552,0,1-0.448,1-1v-3c0-0.552-0.448-1-1-1H1c-0.552,0-1,0.448-1,1v3C0,15.552,0.448,16,1,16z"/>
<path fill="#222221" d="M15,0h-5C9.448,0,9,0.448,9,1v4c0,0.552,0.448,1,1,1h5c0.552,0,1-0.448,1-1V1C16,0.448,15.552,0,15,0z"/>
<path fill="#222221" d="M15,8h-5C9.448,8,9,8.448,9,9v6c0,0.552,0.448,1,1,1h5c0.552,0,1-0.448,1-1V9C16,8.448,15.552,8,15,8z"/>
</svg>
