<?xml version="1.0" encoding="utf-8"?>
<!-- Generator: Adobe Illustrator 19.2.0, SVG Export Plug-In . SVG Version: 6.00 Build 0)  -->
<!DOCTYPE svg PUBLIC "-//W3C//DTD SVG 1.1//EN" "http://www.w3.org/Graphics/SVG/1.1/DTD/svg11.dtd">
<svg version="1.1" id="Layer_1" xmlns="http://www.w3.org/2000/svg" xmlns:xlink="http://www.w3.org/1999/xlink" x="0px" y="0px"
	 width="64px" height="64px" viewBox="0 0 64 64" enable-background="new 0 0 64 64" xml:space="preserve">
<path d="M57.121,59.387c-0.048,0.238-0.144,0.285-0.384,0.285h-3.525l2.71-2.589c1.751-1.68,3.311-3.167,3.311-5.421
	c0-2.255-1.319-3.838-5.037-3.838c-2.519,0-5.421,0.623-5.445,4.438l3.263,0.287c0-1.703,0.552-2.135,1.87-2.135
	c1.271,0,1.703,0.648,1.703,1.535c0,1.367-1.031,2.327-3.454,4.678l-3.214,3.143V62H60v-4.51h-2.543L57.121,59.387z"/>
<path d="M53,2H5v14.008h4.693l1.326-7.213C11.185,7.972,11.431,8,12.345,8H25v43.205c0,1.242,0.024,1.572-1.137,1.66L15,53.445V58
	h28v-4.555l-8.863-0.668C32.895,52.696,33,52.366,33,51.205V8h12.658c0.911,0,1.161-0.028,1.326,0.795l1.326,7.213H53V2z"/>
</svg>
