<?xml version="1.0" encoding="utf-8"?>
<!-- Generator: Adobe Illustrator 19.2.0, SVG Export Plug-In . SVG Version: 6.00 Build 0)  -->
<!DOCTYPE svg PUBLIC "-//W3C//DTD SVG 1.1//EN" "http://www.w3.org/Graphics/SVG/1.1/DTD/svg11.dtd">
<svg version="1.1" id="Layer_1" xmlns="http://www.w3.org/2000/svg" xmlns:xlink="http://www.w3.org/1999/xlink" x="0px" y="0px"
	 width="64px" height="64px" viewBox="0 0 64 64" enable-background="new 0 0 64 64" xml:space="preserve">
<path d="M61,1H3C1.895,1,1,1.895,1,3v58c0,1.105,0.895,2,2,2h58c1.105,0,2-0.895,2-2V3C63,1.895,62.105,1,61,1z M10,37h19
	c0.552,0,1,0.447,1,1s-0.448,1-1,1H10c-0.552,0-1-0.447-1-1S9.448,37,10,37z M9,26c0-0.553,0.448-1,1-1h19c0.552,0,1,0.447,1,1
	s-0.448,1-1,1H10C9.448,27,9,26.553,9,26z M54,51H10c-0.552,0-1-0.447-1-1s0.448-1,1-1h44c0.552,0,1,0.447,1,1S54.552,51,54,51z
	 M53,34h-7v6c0,0.394-0.231,0.751-0.59,0.912C45.278,40.972,45.139,41,45,41c-0.24,0-0.478-0.087-0.665-0.253l-9-8
	C35.122,32.558,35,32.285,35,32s0.122-0.558,0.335-0.747l9-8c0.295-0.262,0.715-0.328,1.074-0.165C45.769,23.249,46,23.606,46,24v6
	h7c1.104,0,2,0.896,2,2S54.104,34,53,34z M54,15H10c-0.552,0-1-0.447-1-1s0.448-1,1-1h44c0.552,0,1,0.447,1,1S54.552,15,54,15z"/>
</svg>
