<?xml version="1.0" encoding="utf-8"?>
<!-- Generator: Adobe Illustrator 19.2.0, SVG Export Plug-In . SVG Version: 6.00 Build 0)  -->
<!DOCTYPE svg PUBLIC "-//W3C//DTD SVG 1.1//EN" "http://www.w3.org/Graphics/SVG/1.1/DTD/svg11.dtd">
<svg version="1.1" id="Layer_1" xmlns="http://www.w3.org/2000/svg" xmlns:xlink="http://www.w3.org/1999/xlink" x="0px" y="0px"
	 width="64px" height="64px" viewBox="0 0 64 64" enable-background="new 0 0 64 64" xml:space="preserve">
<path d="M22,41.205V6h8.658c0.911,0,1.161-0.028,1.326,0.795l1.326,5.213H38V0H0v12.008h4.693l1.326-5.213
	C6.185,5.972,6.431,6,7.345,6H16v35.205c0,1.242,0.024,1.572-1.137,1.66L8,43.445V48h22v-4.555l-6.863-0.668
	C21.895,42.696,22,42.366,22,41.205z"/>
<path d="M26,28.008h4.693l1.326-5.213C32.185,21.972,32.431,22,33.345,22H42v35.205c0,1.242,0.024,1.572-1.137,1.66L34,59.445V64h22
	v-4.555l-6.863-0.668C47.895,58.696,48,58.366,48,57.205V22h8.658c0.911,0,1.161-0.028,1.326,0.795l1.326,5.213H64V16H26V28.008z"/>
</svg>
