<?xml version="1.0" encoding="utf-8"?>
<!-- Generator: Adobe Illustrator 19.2.0, SVG Export Plug-In . SVG Version: 6.00 Build 0)  -->
<!DOCTYPE svg PUBLIC "-//W3C//DTD SVG 1.1//EN" "http://www.w3.org/Graphics/SVG/1.1/DTD/svg11.dtd">
<svg version="1.1" id="Layer_1" xmlns="http://www.w3.org/2000/svg" xmlns:xlink="http://www.w3.org/1999/xlink" x="0px" y="0px"
	 width="64px" height="64px" viewBox="0 0 64 64" enable-background="new 0 0 64 64" xml:space="preserve">
<path d="M3,63h58c1.105,0,2-0.895,2-2V3c0-1.105-0.895-2-2-2H3C1.895,1,1,1.895,1,3v58C1,62.105,1.895,63,3,63z M54,51H32
	c-0.553,0-1-0.448-1-1s0.447-1,1-1h22c0.553,0,1,0.448,1,1S54.553,51,54,51z M10,13h44c0.553,0,1,0.448,1,1s-0.447,1-1,1H10
	c-0.553,0-1-0.448-1-1S9.447,13,10,13z M55,26c0,0.552-0.447,1-1,1H32c-0.553,0-1-0.448-1-1s0.447-1,1-1h22
	C54.553,25,55,25.448,55,26z M10,37h44c0.553,0,1,0.448,1,1s-0.447,1-1,1H10c-0.553,0-1-0.448-1-1S9.447,37,10,37z"/>
</svg>
