<?xml version="1.0" encoding="utf-8"?>
<!-- Generator: Adobe Illustrator 19.2.0, SVG Export Plug-In . SVG Version: 6.00 Build 0)  -->
<!DOCTYPE svg PUBLIC "-//W3C//DTD SVG 1.1//EN" "http://www.w3.org/Graphics/SVG/1.1/DTD/svg11.dtd">
<svg version="1.1" id="Layer_1" xmlns="http://www.w3.org/2000/svg" xmlns:xlink="http://www.w3.org/1999/xlink" x="0px" y="0px"
	 width="64px" height="64px" viewBox="0 0 64 64" enable-background="new 0 0 64 64" xml:space="preserve">
<path d="M28.226,13.234l-2.952-4.755c-6.402,2.813-11.877,6.943-16.42,12.39C-0.306,31.85,0.744,44.127,6.002,50.605
	c4.442,5.485,13.93,6.854,19.5,1.674c3.523-3.275,4.185-7.401,2.818-11.519c-0.862-2.631-2.961-4.925-6.418-6.162
	c-3.036-1.086-6.445-0.938-10.554-0.938C12.313,23.629,19.119,17.646,28.226,13.234z"/>
<path d="M61.243,13.234l-2.952-4.755c-6.402,2.813-11.877,6.943-16.42,12.39c-9.159,10.982-8.109,23.259-2.852,29.736
	c4.442,5.485,13.93,6.854,19.5,1.674c3.523-3.275,4.185-7.401,2.818-11.519c-0.862-2.631-2.961-4.925-6.418-6.162
	c-3.036-1.086-6.445-0.938-10.554-0.938C45.331,23.629,52.137,17.646,61.243,13.234z"/>
</svg>
