<?xml version="1.0" encoding="utf-8"?>
<!-- Generator: Adobe Illustrator 19.1.0, SVG Export Plug-In . SVG Version: 6.00 Build 0)  -->
<!DOCTYPE svg PUBLIC "-//W3C//DTD SVG 1.1//EN" "http://www.w3.org/Graphics/SVG/1.1/DTD/svg11.dtd">
<svg version="1.1" id="Layer_1" xmlns="http://www.w3.org/2000/svg" xmlns:xlink="http://www.w3.org/1999/xlink" x="0px" y="0px"
	 width="24px" height="24px" viewBox="0 0 24 24" enable-background="new 0 0 24 24" xml:space="preserve">
<path d="M1,20.2c0.1,0.3,0.3,0.6,0.7,0.7l3,1C4.8,22,4.9,22,5,22c0.3,0,0.5-0.1,0.7-0.3L8,19.4l1.3,1.3C9.5,20.9,9.7,21,10,21
	s0.5-0.1,0.7-0.3l12-12c0.4-0.4,0.4-1,0-1.4l-6-6c-0.4-0.4-1-0.4-1.4,0l-12,12c-0.4,0.4-0.4,1,0,1.4L4.6,16l-3.3,3.3
	C1,19.5,0.9,19.9,1,20.2z M18.6,6L14,10.6L13.4,10L18,5.4L18.6,6z M16,3.4L16.6,4l-5.3,5.3c-0.4,0.4-0.4,1,0,1.4l2,2
	c0.2,0.2,0.5,0.3,0.7,0.3s0.5-0.1,0.7-0.3L20,7.4L20.6,8L10,18.6L5.4,14L16,3.4z M6,17.4L6.6,18l-1.9,1.9l-0.9-0.3L6,17.4z"/>
</svg>
