<?xml version="1.0" encoding="utf-8"?>
<!-- Generator: Adobe Illustrator 19.1.0, SVG Export Plug-In . SVG Version: 6.00 Build 0)  -->
<!DOCTYPE svg PUBLIC "-//W3C//DTD SVG 1.1//EN" "http://www.w3.org/Graphics/SVG/1.1/DTD/svg11.dtd">
<svg version="1.1" id="Layer_1" xmlns="http://www.w3.org/2000/svg" xmlns:xlink="http://www.w3.org/1999/xlink" x="0px" y="0px"
	 width="24px" height="24px" viewBox="0 0 24 24" enable-background="new 0 0 24 24" xml:space="preserve">
<path d="M6.3,20.7C6.5,20.9,6.7,21,7,21h2c0.3,0,0.5-0.1,0.7-0.3l0.3-0.3l0.3,0.3c0.2,0.2,0.5,0.3,0.7,0.3s0.5-0.1,0.7-0.3l9-9
	c0.4-0.4,0.4-1,0-1.4L20.4,10l1.3-1.3c0.4-0.4,0.4-1,0-1.4l-6-6c-0.4-0.4-1-0.4-1.4,0L13,2.6l-0.3-0.3c-0.4-0.4-1-0.4-1.4,0l-9,9
	c-0.4,0.4-0.4,1,0,1.4L2.6,13l-1.3,1.3c-0.4,0.4-0.4,1,0,1.4L6.3,20.7z M15,3.4L19.6,8L19,8.6L14.4,4L15,3.4z M12,4.4l6.6,6.6
	L11,18.6L4.4,12L12,4.4z M8.6,19H7.4l-4-4L4,14.4L8.6,19z"/>
<path d="M7,13c0.3,0,0.5-0.1,0.7-0.3l2-2c0.4-0.4,0.4-1,0-1.4s-1-0.4-1.4,0l-2,2c-0.4,0.4-0.4,1,0,1.4C6.5,12.9,6.7,13,7,13z"/>
<path d="M5,22c-0.6,0-1,0.4-1,1s0.4,1,1,1h14c0.6,0,1-0.4,1-1s-0.4-1-1-1H5z"/>
</svg>
