<?xml version="1.0" encoding="utf-8"?>
<!-- Generator: Adobe Illustrator 19.1.0, SVG Export Plug-In . SVG Version: 6.00 Build 0)  -->
<!DOCTYPE svg PUBLIC "-//W3C//DTD SVG 1.1//EN" "http://www.w3.org/Graphics/SVG/1.1/DTD/svg11.dtd">
<svg version="1.1" id="Layer_1" xmlns="http://www.w3.org/2000/svg" xmlns:xlink="http://www.w3.org/1999/xlink" x="0px" y="0px"
	 width="24px" height="24px" viewBox="0 0 24 24" enable-background="new 0 0 24 24" xml:space="preserve">
<path d="M5,0C4.4,0,4,0.4,4,1v13c0,0,0,0.1,0,0.1c0,0.1,0,0.1,0,0.2c0,0.1,0.1,0.1,0.1,0.2c0,0,0,0.1,0,0.1c0,0,0,0,0,0c0,0,0,0,0,0
	l7,8c0.2,0.2,0.5,0.3,0.8,0.3s0.6-0.1,0.8-0.3l7-8c0,0,0,0,0,0c0,0,0,0,0,0c0,0,0-0.1,0-0.1c0-0.1,0.1-0.1,0.1-0.2
	c0-0.1,0-0.1,0-0.2c0,0,0-0.1,0-0.1V1c0-0.6-0.4-1-1-1s-1,0.4-1,1v11l-2-1.5V2c0-0.6-0.4-1-1-1s-1,0.4-1,1v8.6l-2,2l-2-2V2
	c0-0.6-0.4-1-1-1S8,1.4,8,2v8.5L6,12V1C6,0.4,5.6,0,5,0z M12.7,14.7l2.4-2.4l2.4,1.8L13.3,19h-2.6l-4.2-4.8l2.4-1.8l2.4,2.4
	C11.7,15.1,12.3,15.1,12.7,14.7z"/>
</svg>
