<?xml version="1.0" encoding="utf-8"?>
<!-- Generator: Adobe Illustrator 19.1.0, SVG Export Plug-In . SVG Version: 6.00 Build 0)  -->
<!DOCTYPE svg PUBLIC "-//W3C//DTD SVG 1.1//EN" "http://www.w3.org/Graphics/SVG/1.1/DTD/svg11.dtd">
<svg version="1.1" id="Layer_1" xmlns="http://www.w3.org/2000/svg" xmlns:xlink="http://www.w3.org/1999/xlink" x="0px" y="0px"
	 width="24px" height="24px" viewBox="0 0 24 24" enable-background="new 0 0 24 24" xml:space="preserve">
<path d="M3,24h19c0.6,0,1-0.4,1-1V1c0-0.6-0.4-1-1-1H3C2.4,0,2,0.4,2,1v22C2,23.6,2.4,24,3,24z M4,2h17v20H4V2z"/>
<path d="M19,3H6C5.4,3,5,3.4,5,4v4c0,0.6,0.4,1,1,1h13c0.6,0,1-0.4,1-1V4C20,3.4,19.6,3,19,3z M18,7H7V5h11V7z"/>
<path d="M11,10H6c-0.6,0-1,0.4-1,1v3c0,0.6,0.4,1,1,1h5c0.6,0,1-0.4,1-1v-3C12,10.4,11.6,10,11,10z M10,13H7v-1h3V13z"/>
<path d="M19,10h-5c-0.6,0-1,0.4-1,1v9c0,0.6,0.4,1,1,1h5c0.6,0,1-0.4,1-1v-9C20,10.4,19.6,10,19,10z M18,19h-3v-7h3V19z"/>
<path d="M11,16H6c-0.6,0-1,0.4-1,1v3c0,0.6,0.4,1,1,1h5c0.6,0,1-0.4,1-1v-3C12,16.4,11.6,16,11,16z M10,19H7v-1h3V19z"/>
</svg>
