<?xml version="1.0" encoding="utf-8"?>
<!-- Generator: Adobe Illustrator 19.1.0, SVG Export Plug-In . SVG Version: 6.00 Build 0)  -->
<!DOCTYPE svg PUBLIC "-//W3C//DTD SVG 1.1//EN" "http://www.w3.org/Graphics/SVG/1.1/DTD/svg11.dtd">
<svg version="1.1" id="Layer_1" xmlns="http://www.w3.org/2000/svg" xmlns:xlink="http://www.w3.org/1999/xlink" x="0px" y="0px"
	 width="24px" height="24px" viewBox="0 0 24 24" enable-background="new 0 0 24 24" xml:space="preserve">
<path d="M3.1,19.4L6.1,19l1.5,2.5C7.8,21.8,8.1,22,8.4,22c0,0,0,0,0.1,0c0.4,0,0.7-0.2,0.9-0.6l2.6-5.4c0,0,0.1,0,0.1,0
	c0,0,0.1,0,0.1,0l2.6,5.4c0.2,0.3,0.5,0.6,0.9,0.6c0,0,0,0,0.1,0c0.3,0,0.7-0.2,0.9-0.5l1.5-2.5l2.9,0.4c0.4,0.1,0.7-0.1,0.9-0.4
	c0.2-0.3,0.3-0.7,0.1-1L19,11.9c0.6-1.1,1-2.5,1-3.9c0-4.4-3.6-8-8-8S4,3.6,4,8c0,1.4,0.4,2.7,1,3.9L2.1,18c-0.2,0.3-0.1,0.7,0.1,1
	C2.4,19.3,2.8,19.5,3.1,19.4z M17.6,16.9c-0.4-0.1-0.8,0.1-1,0.5l-0.9,1.5l-1.5-3.2c1.3-0.4,2.5-1.1,3.5-2l1.7,3.5L17.6,16.9z M12,2
	c3.3,0,6,2.7,6,6c0,1.1-0.3,2.2-0.9,3.1c0,0-0.1,0.1-0.1,0.2c-0.9,1.4-2.4,2.4-4.2,2.7c-0.2,0-0.3,0-0.5,0c-0.1,0-0.2,0-0.3,0
	c-0.1,0-0.2,0-0.2,0c0,0,0,0,0,0c-0.2-0.1-0.4-0.1-0.7-0.1C8.2,13.5,6,11,6,8C6,4.7,8.7,2,12,2z M6.4,13.7c1,0.9,2.1,1.7,3.5,2
	l-1.5,3.2l-0.9-1.5c-0.2-0.3-0.6-0.5-1-0.5l-1.7,0.3L6.4,13.7z"/>
<path d="M12,11c1.7,0,3-1.3,3-3s-1.3-3-3-3S9,6.3,9,8S10.3,11,12,11z M12,7c0.6,0,1,0.4,1,1s-0.4,1-1,1s-1-0.4-1-1S11.4,7,12,7z"/>
</svg>
