<?xml version="1.0" encoding="utf-8"?>
<!-- Generator: Adobe Illustrator 19.1.0, SVG Export Plug-In . SVG Version: 6.00 Build 0)  -->
<!DOCTYPE svg PUBLIC "-//W3C//DTD SVG 1.1//EN" "http://www.w3.org/Graphics/SVG/1.1/DTD/svg11.dtd">
<svg version="1.1" id="Layer_1" xmlns="http://www.w3.org/2000/svg" xmlns:xlink="http://www.w3.org/1999/xlink" x="0px" y="0px"
	 width="24px" height="24px" viewBox="0 0 24 24" enable-background="new 0 0 24 24" xml:space="preserve">
<path d="M23,0H1C0.4,0,0,0.4,0,1v6c0,0.6,0.4,1,1,1h1c0.3,0,0.6-0.2,0.8-0.4L4.5,5H9v14.5l-2.6,1.7C6.2,21.4,6,21.7,6,22v1
	c0,0.6,0.4,1,1,1h10c0.6,0,1-0.4,1-1v-1c0-0.3-0.2-0.6-0.4-0.8L15,19.5V5h4.5l1.7,2.6C21.4,7.8,21.7,8,22,8h1c0.6,0,1-0.4,1-1V1
	C24,0.4,23.6,0,23,0z M22,5.2l-1.2-1.8C20.6,3.2,20.3,3,20,3h-6c-0.6,0-1,0.4-1,1v16c0,0.3,0.2,0.6,0.4,0.8l1.8,1.2H8.8l1.8-1.2
	c0.3-0.2,0.4-0.5,0.4-0.8V4c0-0.6-0.4-1-1-1H4C3.7,3,3.4,3.2,3.2,3.4L2,5.2V2h20V5.2z"/>
</svg>
