<?xml version="1.0" encoding="utf-8"?>
<!-- Generator: Adobe Illustrator 19.1.0, SVG Export Plug-In . SVG Version: 6.00 Build 0)  -->
<!DOCTYPE svg PUBLIC "-//W3C//DTD SVG 1.1//EN" "http://www.w3.org/Graphics/SVG/1.1/DTD/svg11.dtd">
<svg version="1.1" id="Layer_1" xmlns="http://www.w3.org/2000/svg" xmlns:xlink="http://www.w3.org/1999/xlink" x="0px" y="0px"
	 width="24px" height="24px" viewBox="0 0 24 24" enable-background="new 0 0 24 24" xml:space="preserve">
<path d="M1,24h20c0.4,0,0.8-0.2,0.9-0.6c0.2-0.4,0.1-0.8-0.2-1.1l-20-20C1.4,2,1,1.9,0.6,2.1C0.2,2.2,0,2.6,0,3v20
	C0,23.6,0.4,24,1,24z M18.6,22H2v-2h1c0.6,0,1-0.4,1-1s-0.4-1-1-1H2v-2h1c0.6,0,1-0.4,1-1s-0.4-1-1-1H2v-2h1c0.6,0,1-0.4,1-1
	s-0.4-1-1-1H2V5.4L18.6,22z"/>
<path d="M6,20h5c0.4,0,0.8-0.2,0.9-0.6c0.2-0.4,0.1-0.8-0.2-1.1l-5-5C6.4,13,6,12.9,5.6,13.1C5.2,13.2,5,13.6,5,14v5
	C5,19.6,5.4,20,6,20z M7,16.4L8.6,18H7V16.4z"/>
</svg>
