<?xml version="1.0" encoding="utf-8"?>
<!-- Generator: Adobe Illustrator 19.1.0, SVG Export Plug-In . SVG Version: 6.00 Build 0)  -->
<!DOCTYPE svg PUBLIC "-//W3C//DTD SVG 1.1//EN" "http://www.w3.org/Graphics/SVG/1.1/DTD/svg11.dtd">
<svg version="1.1" id="Layer_1" xmlns="http://www.w3.org/2000/svg" xmlns:xlink="http://www.w3.org/1999/xlink" x="0px" y="0px"
	 width="24px" height="24px" viewBox="0 0 24 24" enable-background="new 0 0 24 24" xml:space="preserve">
<path d="M8,11C8.2,10.3,8,9.6,7.5,9L5,6.6V2c0-0.6-0.4-1-1-1S3,1.4,3,2v5c0,0.3,0.1,0.5,0.3,0.7L6,10.5L3.8,11C3.3,11.1,3,11.5,3,12
	v1.4l-1.6,0.8c-0.7,0.3-1.1,1-1.1,1.8c0,0.8,0.4,1.5,1.1,1.8L3,18.6V19c0,0.6-0.4,1-1,1H1c-0.6,0-1,0.4-1,1s0.4,1,1,1h1
	c1.7,0,3-1.3,3-3v-1c0-0.4-0.2-0.7-0.5-0.9L2.2,16l2.2-1.1C4.8,14.7,5,14.4,5,14v-1.2l1.5-0.4C7.2,12.2,7.8,11.7,8,11z"/>
<path d="M21,3h-8c-1.7,0-3,1.3-3,3v5.7l-2.8,3.7c-0.2,0.3-0.3,0.7-0.1,1C7.3,16.8,7.6,17,8,17h13c1.7,0,3-1.3,3-3V6
	C24,4.3,22.7,3,21,3z M22,14c0,0.6-0.4,1-1,1H10l1.8-2.4c0.1-0.2,0.2-0.4,0.2-0.6V6c0-0.6,0.4-1,1-1h8c0.6,0,1,0.4,1,1V14z"/>
<path d="M19,7h-4c-0.6,0-1,0.4-1,1s0.4,1,1,1h4c0.6,0,1-0.4,1-1S19.6,7,19,7z"/>
<path d="M17,11h-2c-0.6,0-1,0.4-1,1s0.4,1,1,1h2c0.6,0,1-0.4,1-1S17.6,11,17,11z"/>
</svg>
