<?xml version="1.0" encoding="utf-8"?>
<!-- Generator: Adobe Illustrator 19.1.0, SVG Export Plug-In . SVG Version: 6.00 Build 0)  -->
<!DOCTYPE svg PUBLIC "-//W3C//DTD SVG 1.1//EN" "http://www.w3.org/Graphics/SVG/1.1/DTD/svg11.dtd">
<svg version="1.1" id="Layer_1" xmlns="http://www.w3.org/2000/svg" xmlns:xlink="http://www.w3.org/1999/xlink" x="0px" y="0px"
	 width="24px" height="24px" viewBox="0 0 24 24" enable-background="new 0 0 24 24" xml:space="preserve">
<path d="M2,22h5h5c0.6,0,1-0.4,1-1v-4v-6.9l2,7.3l1,3.9c0.1,0.3,0.2,0.5,0.5,0.6C16.6,22,16.8,22,17,22c0.1,0,0.2,0,0.3,0l4.8-1.3
	c0.5-0.1,0.9-0.7,0.7-1.2l-1-3.9L18.1,2.1c-0.1-0.5-0.7-0.9-1.2-0.7l-4.1,1.1C12.6,2.2,12.3,2,12,2H7H2C1.4,2,1,2.4,1,3v14v4
	C1,21.6,1.4,22,2,22z M3,18h3v2H3V18z M11,20H8v-2h3V20z M17.7,19.8l-0.5-1.9l1.4-0.4l1.4-0.4l0.5,1.9L17.7,19.8z M16.4,3.5
	l3.1,11.6l-1.4,0.4l-1.4,0.4L13.5,4.3L16.4,3.5z M11,16H8V4h3V16z M3,4h3v12H3V4z"/>
</svg>
