<?xml version="1.0" encoding="utf-8"?>
<!-- Generator: Adobe Illustrator 19.1.0, SVG Export Plug-In . SVG Version: 6.00 Build 0)  -->
<!DOCTYPE svg PUBLIC "-//W3C//DTD SVG 1.1//EN" "http://www.w3.org/Graphics/SVG/1.1/DTD/svg11.dtd">
<svg version="1.1" id="Layer_1" xmlns="http://www.w3.org/2000/svg" xmlns:xlink="http://www.w3.org/1999/xlink" x="0px" y="0px"
	 width="24px" height="24px" viewBox="0 0 24 24" enable-background="new 0 0 24 24" xml:space="preserve">
<path d="M23,3h-2c0-0.6-0.4-1-1-1h-6c-0.8,0-1.5,0.3-2,0.8C11.5,2.3,10.8,2,10,2H4C3.4,2,3,2.4,3,3H1C0.4,3,0,3.4,0,4v17
	c0,0.6,0.4,1,1,1h22c0.6,0,1-0.4,1-1V4C24,3.4,23.6,3,23,3z M10,4c0.6,0,1,0.4,1,1c0,0.6,0.4,1,1,1s1-0.4,1-1c0-0.6,0.4-1,1-1h5v12
	h-5c-0.8,0-1.5,0.3-2,0.8c-0.5-0.5-1.2-0.8-2-0.8H5V4H10z M22,20H12H2V5h1v12c0,0.6,0.4,1,1,1h6c0.6,0,1,0.4,1,1c0,0.6,0.4,1,1,1
	s1-0.4,1-1c0-0.6,0.4-1,1-1h6c0.6,0,1-0.4,1-1V5h1V20z"/>
<path d="M12,14c0.6,0,1-0.4,1-1V8c0-0.6-0.4-1-1-1s-1,0.4-1,1v5C11,13.6,11.4,14,12,14z"/>
</svg>
