<?xml version="1.0" encoding="utf-8"?>
<!-- Generator: Adobe Illustrator 19.1.0, SVG Export Plug-In . SVG Version: 6.00 Build 0)  -->
<!DOCTYPE svg PUBLIC "-//W3C//DTD SVG 1.1//EN" "http://www.w3.org/Graphics/SVG/1.1/DTD/svg11.dtd">
<svg version="1.1" id="Layer_1" xmlns="http://www.w3.org/2000/svg" xmlns:xlink="http://www.w3.org/1999/xlink" x="0px" y="0px"
	 width="24px" height="24px" viewBox="0 0 24 24" enable-background="new 0 0 24 24" xml:space="preserve">
<path d="M20,10h-2V7c0-0.6-0.4-1-1-1s-1,0.4-1,1v4c0,0.6,0.4,1,1,1h3c0.6,0,1-0.4,1-1S20.6,10,20,10z"/>
<path d="M21,3H3C1.3,3,0,4.3,0,6v11c0,0.6,0.4,1,1,1h1.1c0.2,1.7,1.7,3,3.4,3s3.2-1.3,3.4-3h6.1c0.2,1.7,1.7,3,3.4,3s3.2-1.3,3.4-3
	H23c0.6,0,1-0.4,1-1V6C24,4.3,22.7,3,21,3z M5.5,19C4.7,19,4,18.3,4,17.5S4.7,16,5.5,16S7,16.7,7,17.5S6.3,19,5.5,19z M18.5,19
	c-0.8,0-1.5-0.7-1.5-1.5s0.7-1.5,1.5-1.5s1.5,0.7,1.5,1.5S19.3,19,18.5,19z M22,16h-0.4c-0.6-1.2-1.8-2-3.1-2s-2.6,0.8-3.1,2H8.6
	c-0.6-1.2-1.8-2-3.1-2s-2.6,0.8-3.1,2H2V6c0-0.6,0.4-1,1-1h18c0.6,0,1,0.4,1,1V16z"/>
<path d="M14,6H4C3.4,6,3,6.4,3,7v4c0,0.6,0.4,1,1,1h10c0.6,0,1-0.4,1-1V7C15,6.4,14.6,6,14,6z M13,10H5V8h8V10z"/>
</svg>
