<?xml version="1.0" encoding="utf-8"?>
<!-- Generator: Adobe Illustrator 19.1.0, SVG Export Plug-In . SVG Version: 6.00 Build 0)  -->
<!DOCTYPE svg PUBLIC "-//W3C//DTD SVG 1.1//EN" "http://www.w3.org/Graphics/SVG/1.1/DTD/svg11.dtd">
<svg version="1.1" id="Layer_1" xmlns="http://www.w3.org/2000/svg" xmlns:xlink="http://www.w3.org/1999/xlink" x="0px" y="0px"
	 width="24px" height="24px" viewBox="0 0 24 24" enable-background="new 0 0 24 24" xml:space="preserve">
<path d="M21.7,17.9c0.1,0,0.2,0.1,0.3,0.1c0.2,0,0.4-0.1,0.6-0.2c0.3-0.2,0.4-0.5,0.4-0.8v-6c0.6-0.8,1-1.9,1-3c0-2-1.2-3.8-3-4.6
	c0-1.9-1.6-3.4-3.5-3.4h-14C1.6,0,0,1.6,0,3.5V4c0,0.6,0.4,1,1,1h4v15.5C5,22.4,6.6,24,8.5,24H20h0.5c1.9,0,3.5-1.6,3.5-3.5V20
	c0-0.6-0.4-1-1-1h-2v-1.3L21.7,17.9z M19.3,15.1c-0.2-0.1-0.4-0.1-0.6,0L17,15.6v-3c0.6,0.3,1.3,0.4,2,0.4s1.4-0.2,2-0.4v3
	L19.3,15.1z M22,8c0,1.7-1.3,3-3,3s-3-1.3-3-3s1.3-3,3-3S22,6.3,22,8z M3.5,2c0.1,0,0.3,0,0.4,0.1c0,0,0.1,0,0.1,0
	c0.1,0,0.2,0.1,0.4,0.2c0,0,0,0,0,0c0.1,0.1,0.2,0.2,0.3,0.3c0,0,0,0,0.1,0.1C4.8,2.7,4.9,2.8,4.9,3c0,0,0,0,0,0H2.1
	C2.3,2.4,2.8,2,3.5,2z M20.5,22H20h-8.3c0.1-0.3,0.2-0.6,0.3-1h9.9C21.7,21.6,21.2,22,20.5,22z M19,19h-8c-0.6,0-1,0.4-1,1v0.5
	c0,1.2-1.2,1.4-1.5,1.5C7.7,22,7,21.3,7,20.5V4V3.5C7,3.2,7,3,6.9,2.8c0-0.1,0-0.2-0.1-0.2c0-0.2-0.1-0.3-0.2-0.5c0,0,0,0,0-0.1
	h10.8c0.7,0,1.2,0.4,1.4,1c-2.7,0-4.9,2.3-4.9,5c0,1.1,0.4,2.1,1,3v6c0,0.3,0.2,0.6,0.4,0.8s0.6,0.2,0.9,0.1l2.7-0.9V19z"/>
</svg>
