<?xml version="1.0" encoding="utf-8"?>
<!-- Generator: Adobe Illustrator 19.1.0, SVG Export Plug-In . SVG Version: 6.00 Build 0)  -->
<!DOCTYPE svg PUBLIC "-//W3C//DTD SVG 1.1//EN" "http://www.w3.org/Graphics/SVG/1.1/DTD/svg11.dtd">
<svg version="1.1" id="Layer_1" xmlns="http://www.w3.org/2000/svg" xmlns:xlink="http://www.w3.org/1999/xlink" x="0px" y="0px"
	 width="24px" height="24px" viewBox="0 0 24 24" enable-background="new 0 0 24 24" xml:space="preserve">
<path d="M17.5,1c-2.4,0-4.4,0.7-5.5,1.8C10.9,1.7,8.9,1,6.5,1C2.8,1,0,2.7,0,5v17c0,0.6,0.4,1,1,1s1-0.4,1-1c0-0.8,1.8-2,4.5-2
	s4.5,1.2,4.5,2c0,0.6,0.4,1,1,1s1-0.4,1-1c0-0.8,1.8-2,4.5-2s4.5,1.2,4.5,2c0,0.6,0.4,1,1,1s1-0.4,1-1V5C24,2.7,21.2,1,17.5,1z
	 M6.5,18c-1.8,0-3.3,0.4-4.5,1.1V5c0-0.8,1.8-2,4.5-2S11,4.2,11,5v14.1C9.8,18.4,8.3,18,6.5,18z M22,19.1c-1.2-0.7-2.7-1.1-4.5-1.1
	c-1.8,0-3.3,0.4-4.5,1.1V5c0-0.8,1.8-2,4.5-2S22,4.2,22,5V19.1z"/>
</svg>
