<?xml version="1.0" encoding="utf-8"?>
<!-- Generator: Adobe Illustrator 19.1.0, SVG Export Plug-In . SVG Version: 6.00 Build 0)  -->
<!DOCTYPE svg PUBLIC "-//W3C//DTD SVG 1.1//EN" "http://www.w3.org/Graphics/SVG/1.1/DTD/svg11.dtd">
<svg version="1.1" id="Layer_1" xmlns="http://www.w3.org/2000/svg" xmlns:xlink="http://www.w3.org/1999/xlink" x="0px" y="0px"
	 width="24px" height="24px" viewBox="0 0 24 24" enable-background="new 0 0 24 24" xml:space="preserve">
<path d="M3.5,19.2c-0.7,0.9-0.8,2.1-0.2,3.1c0.5,1,1.5,1.6,2.7,1.6h12.1c1.1,0,2.2-0.6,2.7-1.6c0.5-1,0.4-2.2-0.2-3.1L15,11.7V5h1.1
	c0.6,0,1-0.4,1-1V1c0-0.6-0.4-1-1-1H8C7.4,0,7,0.4,7,1v3c0,0.6,0.4,1,1,1h1v6.7L3.5,19.2z M19,21.5c-0.2,0.3-0.5,0.5-0.9,0.5H5.9
	c-0.4,0-0.7-0.2-0.9-0.5c-0.2-0.3-0.1-0.7,0.1-1L7.6,17h8.8l2.5,3.4C19.1,20.7,19.1,21.1,19,21.5z M9,2h6.1v1H14c-0.6,0-1,0.4-1,1v8
	c0,0.2,0.1,0.4,0.2,0.6l1.8,2.4H9.1l1.8-2.4c0.1-0.2,0.2-0.4,0.2-0.6V4c0-0.6-0.4-1-1-1H9V2z"/>
</svg>
