<?xml version="1.0" encoding="utf-8"?>
<!-- Generator: Adobe Illustrator 19.1.0, SVG Export Plug-In . SVG Version: 6.00 Build 0)  -->
<!DOCTYPE svg PUBLIC "-//W3C//DTD SVG 1.1//EN" "http://www.w3.org/Graphics/SVG/1.1/DTD/svg11.dtd">
<svg version="1.1" id="Layer_1" xmlns="http://www.w3.org/2000/svg" xmlns:xlink="http://www.w3.org/1999/xlink" x="0px" y="0px"
	 width="24px" height="24px" viewBox="0 0 24 24" enable-background="new 0 0 24 24" xml:space="preserve">
<path d="M2.3,8.1C1.5,9.5,1,11.2,1,13c0,5.5,4.5,10,10,10c1.8,0,3.5-0.5,4.9-1.3c1.8,1.1,3.5,1.7,4.9,1.7c0.8,0,1.5-0.2,2-0.7
	c1.8-1.8,0-5.4-1.9-8.2c0.1-0.5,0.1-1,0.1-1.5c0-5.5-4.5-10-10-10c-0.5,0-1,0-1.4,0.1C7.2,1.5,3.2-0.6,1.3,1.3C0.5,2.1,0,3.8,2,7.5
	C2.1,7.7,2.2,7.9,2.3,8.1z M11,21c-4.4,0-8-3.6-8-8c0-1,0.2-2,0.6-2.9c1.3,1.8,2.9,3.8,4.8,5.6c1.8,1.8,3.7,3.4,5.6,4.8
	C13,20.8,12,21,11,21z M21.3,21.3c-0.4,0.4-1.7,0.2-3.6-0.9c1-0.9,1.9-2.1,2.4-3.3C21.5,19.5,21.7,20.9,21.3,21.3z M19,13
	c0,2.6-1.2,4.9-3.1,6.3c-1.8-1.2-3.9-2.8-6.1-5.1c-2-2-3.8-4.2-5.1-6.1C6.1,6.2,8.4,5,11,5C15.4,5,19,8.6,19,13z M2.7,2.7
	C3,2.4,4.4,2.4,7,3.9C5.7,4.4,4.5,5.3,3.6,6.3C2.5,4.1,2.5,2.9,2.7,2.7z"/>
</svg>
