<?xml version="1.0" encoding="utf-8"?>
<!-- Generator: Adobe Illustrator 19.1.0, SVG Export Plug-In . SVG Version: 6.00 Build 0)  -->
<!DOCTYPE svg PUBLIC "-//W3C//DTD SVG 1.1//EN" "http://www.w3.org/Graphics/SVG/1.1/DTD/svg11.dtd">
<svg version="1.1" id="Layer_1" xmlns="http://www.w3.org/2000/svg" xmlns:xlink="http://www.w3.org/1999/xlink" x="0px" y="0px"
	 width="24px" height="24px" viewBox="0 0 24 24" enable-background="new 0 0 24 24" xml:space="preserve">
<path d="M7,10h4c0.6,0,1-0.4,1-1s-0.4-1-1-1H7C6.4,8,6,8.4,6,9S6.4,10,7,10z"/>
<path d="M6,13c0,0.6,0.4,1,1,1h10c0.6,0,1-0.4,1-1s-0.4-1-1-1H7C6.4,12,6,12.4,6,13z"/>
<path d="M23.7,0.3c-0.4-0.4-1-0.4-1.4,0L19.6,3H14V2c0-0.6-0.4-1-1-1h-2c-0.6,0-1,0.4-1,1v1H3C2.4,3,2,3.4,2,4v13H1
	c-0.6,0-1,0.4-1,1s0.4,1,1,1h6.9l-2.7,3.4c-0.3,0.4-0.3,1.1,0.2,1.4C5.6,23.9,5.8,24,6,24c0.3,0,0.6-0.1,0.8-0.4l3.7-4.6H11v3
	c0,0.6,0.4,1,1,1s1-0.4,1-1v-3h0.5l3.7,4.6c0.2,0.2,0.5,0.4,0.8,0.4c0.2,0,0.4-0.1,0.6-0.2c0.4-0.3,0.5-1,0.2-1.4L16.1,19H23
	c0.6,0,1-0.4,1-1s-0.4-1-1-1h-1V4c0-0.2-0.1-0.3-0.1-0.5l1.8-1.8C24.1,1.3,24.1,0.7,23.7,0.3z M20,17H4V5h13.6l-3.3,3.3
	c-0.4,0.4-0.4,1,0,1.4C14.5,9.9,14.7,10,15,10s0.5-0.1,0.7-0.3L20,5.4V17z"/>
</svg>
