<?xml version="1.0" encoding="utf-8"?>
<!-- Generator: Adobe Illustrator 19.1.0, SVG Export Plug-In . SVG Version: 6.00 Build 0)  -->
<!DOCTYPE svg PUBLIC "-//W3C//DTD SVG 1.1//EN" "http://www.w3.org/Graphics/SVG/1.1/DTD/svg11.dtd">
<svg version="1.1" id="Layer_1" xmlns="http://www.w3.org/2000/svg" xmlns:xlink="http://www.w3.org/1999/xlink" x="0px" y="0px"
	 width="24px" height="24px" viewBox="0 0 24 24" enable-background="new 0 0 24 24" xml:space="preserve">
<path d="M1.3,16.3c-0.4,0.4-0.4,1,0,1.4l5,5C6.5,22.9,6.7,23,7,23s0.5-0.1,0.7-0.3l4.8-4.8l3.8,3.8c0.1,0.1,0.2,0.1,0.3,0.2
	c0,0,0.1,0,0.1,0c0,0,0.1,0,0.1,0l5,1c0.1,0,0.1,0,0.2,0c0.3,0,0.5-0.1,0.7-0.3c0.2-0.2,0.3-0.6,0.3-0.9l-1-5c0,0,0-0.1,0-0.1
	c0,0,0-0.1,0-0.1c0-0.1-0.1-0.2-0.2-0.3l-3.8-3.8l4.8-4.8c0.4-0.4,0.4-1,0-1.4l-5-5c-0.4-0.4-1-0.4-1.4,0l-4.8,4.8L6.7,1.3
	c-0.4-0.4-1-0.4-1.4,0l-4,4c-0.4,0.4-0.4,1,0,1.4l4.8,4.8L1.3,16.3z M19,20.4l1.4-1.4l0.3,1.7L19,20.4z M19.6,17L17,19.6l-3.1-3.1
	l2.6-2.6L19.6,17z M17,3.4L20.6,7L7,20.6L3.4,17L5,15.4l0.3,0.3C5.5,15.9,5.7,16,6,16s0.5-0.1,0.7-0.3c0.4-0.4,0.4-1,0-1.4L6.4,14
	L8,12.4l1.3,1.3C9.5,13.9,9.7,14,10,14s0.5-0.1,0.7-0.3c0.4-0.4,0.4-1,0-1.4L9.4,11L11,9.4l0.3,0.3C11.5,9.9,11.7,10,12,10
	s0.5-0.1,0.7-0.3c0.4-0.4,0.4-1,0-1.4L12.4,8L14,6.4l1.3,1.3C15.5,7.9,15.7,8,16,8s0.5-0.1,0.7-0.3c0.4-0.4,0.4-1,0-1.4L15.4,5
	L17,3.4z M10.1,7.5l-2.6,2.6L5.4,8L8,5.4L10.1,7.5z M6,3.4L6.6,4L4,6.6L3.4,6L6,3.4z"/>
</svg>
