<?xml version="1.0" encoding="utf-8"?>
<!-- Generator: Adobe Illustrator 19.1.0, SVG Export Plug-In . SVG Version: 6.00 Build 0)  -->
<!DOCTYPE svg PUBLIC "-//W3C//DTD SVG 1.1//EN" "http://www.w3.org/Graphics/SVG/1.1/DTD/svg11.dtd">
<svg version="1.1" id="Layer_1" xmlns="http://www.w3.org/2000/svg" xmlns:xlink="http://www.w3.org/1999/xlink" x="0px" y="0px"
	 width="24px" height="24px" viewBox="0 0 24 24" enable-background="new 0 0 24 24" xml:space="preserve">
<path d="M7,23c0.3,0,0.5-0.1,0.7-0.3l15-15c0.4-0.4,0.4-1,0-1.4l-5-5c-0.4-0.4-1-0.4-1.4,0l-15,15c-0.4,0.4-0.4,1,0,1.4l5,5
	C6.5,22.9,6.7,23,7,23z M5,15.4l0.3,0.3C5.5,15.9,5.7,16,6,16s0.5-0.1,0.7-0.3c0.4-0.4,0.4-1,0-1.4L6.4,14L8,12.4l1.3,1.3
	C9.5,13.9,9.7,14,10,14s0.5-0.1,0.7-0.3c0.4-0.4,0.4-1,0-1.4L9.4,11L11,9.4l0.3,0.3C11.5,9.9,11.7,10,12,10s0.5-0.1,0.7-0.3
	c0.4-0.4,0.4-1,0-1.4L12.4,8L14,6.4l1.3,1.3C15.5,7.9,15.7,8,16,8s0.5-0.1,0.7-0.3c0.4-0.4,0.4-1,0-1.4L15.4,5L17,3.4L20.6,7L7,20.6
	L3.4,17L5,15.4z"/>
</svg>
