<?xml version="1.0" encoding="utf-8"?>
<!-- Generator: Adobe Illustrator 19.1.0, SVG Export Plug-In . SVG Version: 6.00 Build 0)  -->
<!DOCTYPE svg PUBLIC "-//W3C//DTD SVG 1.1//EN" "http://www.w3.org/Graphics/SVG/1.1/DTD/svg11.dtd">
<svg version="1.1" id="Layer_1" xmlns="http://www.w3.org/2000/svg" xmlns:xlink="http://www.w3.org/1999/xlink" x="0px" y="0px"
	 width="24px" height="24px" viewBox="0 0 24 24" enable-background="new 0 0 24 24" xml:space="preserve">
<path d="M4,17c0,0.6,0.4,1,1,1h10c0.6,0,1-0.4,1-1s-0.4-1-1-1H5C4.4,16,4,16.4,4,17z"/>
<path d="M20.3,12.9C20.7,12,21,11,21,10c0-1.2-0.4-2.4-1-3.3V1c0-0.6-0.4-1-1-1H1C0.4,0,0,0.4,0,1v22c0,0.6,0.4,1,1,1h18
	c0.6,0,1-0.4,1-1v-7.6l2.3,2.3c0.2,0.2,0.5,0.3,0.7,0.3s0.5-0.1,0.7-0.3c0.4-0.4,0.4-1,0-1.4L20.3,12.9z M11.1,11H15
	c0.6,0,1-0.4,1-1s-0.4-1-1-1h-3.9c0.4-1.7,2-3,3.9-3c2.2,0,4,1.8,4,4s-1.8,4-4,4C13.1,14,11.6,12.7,11.1,11z M2,22V2h16v2.8
	C17.1,4.3,16.1,4,15,4c-1.8,0-3.4,0.8-4.5,2H5C4.4,6,4,6.4,4,7s0.4,1,1,1h4.4C9.1,8.6,9,9.3,9,10c0,0.3,0,0.7,0.1,1H5
	c-0.6,0-1,0.4-1,1s0.4,1,1,1h4.8c1,1.8,3,3,5.2,3c1.1,0,2.1-0.3,3-0.8V22H2z"/>
</svg>
