<?xml version="1.0" encoding="utf-8"?>
<!-- Generator: Adobe Illustrator 18.1.1, SVG Export Plug-In . SVG Version: 6.00 Build 0)  -->
<!DOCTYPE svg PUBLIC "-//W3C//DTD SVG 1.1//EN" "http://www.w3.org/Graphics/SVG/1.1/DTD/svg11.dtd">
<svg version="1.1" id="Layer_2" xmlns="http://www.w3.org/2000/svg" xmlns:xlink="http://www.w3.org/1999/xlink" x="0px" y="0px"
	 width="32px" height="32px" viewBox="0 0 32 32" enable-background="new 0 0 32 32" xml:space="preserve">
<path d="M15.3,19.3c-0.4,0.5-4.3,4.6-4.3,7.5c0,3.2,2.5,5.2,5,5.2s5-1.9,5-5.2c0-2.9-3.8-7-4.3-7.5C16.4,18.9,15.6,18.9,15.3,19.3z
	 M16,30c-1.5,0-3-1.1-3-3.2c0-1.3,1.6-3.7,3-5.3c1.4,1.6,3,4,3,5.3C19,28.9,17.5,30,16,30z"/>
<path d="M30.1,13.9c0.6-1.2,0.9-2.6,0.9-3.9c0-0.4,0-0.9-0.1-1.4c0-0.3-0.2-0.5-0.4-0.7c-0.2-0.2-0.5-0.2-0.8-0.1
	C29.1,7.9,28.5,8,28,8c-3.3,0-6-2.7-6-5.9c0-0.3-0.1-0.6-0.3-0.7S21.2,1,20.9,1.1c-3.9,0.5-7,3.4-7.7,7.2c-2.2,0.6-4.1,2-5.2,4
	c-0.5-0.1-1-0.2-1.5-0.2C2.9,12.1,0,15,0,18.5C0,22.1,2.9,25,6.5,25H8c0.6,0,1-0.4,1-1s-0.4-1-1-1H6.5C4,23,2,21,2,18.5
	s2-4.5,4.5-4.5c0.5,0,1.1,0.1,1.6,0.3c0.5,0.2,1.1,0,1.3-0.5c1-2.4,3.4-3.9,5.9-3.9c2.8,0,5.3,1.8,6.1,4.4c0.1,0.3,0.3,0.5,0.6,0.6
	c0.3,0.1,0.6,0,0.9-0.1c0.8-0.5,1.6-0.8,2.6-0.8c2.5,0,4.5,2,4.5,4.5S28,23,25.5,23H24c-0.6,0-1,0.4-1,1s0.4,1,1,1h1.5
	c3.6,0,6.5-2.9,6.5-6.5C32,16.7,31.3,15.1,30.1,13.9z M22.9,12.7C21.5,9.8,18.6,8,15.3,8c0,0,0,0,0,0c0.7-2.3,2.5-4.1,4.8-4.7
	C20.7,7.1,24,10,28,10c0.3,0,0.7,0,1-0.1c0,0,0,0,0,0.1c0,1-0.2,1.9-0.6,2.8c-0.9-0.4-1.8-0.7-2.9-0.7
	C24.6,12.1,23.7,12.3,22.9,12.7z"/>
</svg>
