<?xml version="1.0" encoding="utf-8"?>
<!-- Generator: Adobe Illustrator 18.1.1, SVG Export Plug-In . SVG Version: 6.00 Build 0)  -->
<!DOCTYPE svg PUBLIC "-//W3C//DTD SVG 1.1//EN" "http://www.w3.org/Graphics/SVG/1.1/DTD/svg11.dtd">
<svg version="1.1" id="Layer_2" xmlns="http://www.w3.org/2000/svg" xmlns:xlink="http://www.w3.org/1999/xlink" x="0px" y="0px"
	 width="32px" height="32px" viewBox="0 0 32 32" enable-background="new 0 0 32 32" xml:space="preserve">
<path d="M17.5,19.1c-0.5-0.3-1.1-0.1-1.4,0.3l-3,5c-0.2,0.3-0.2,0.7,0,1c0.2,0.3,0.5,0.5,0.9,0.5h2.2l-2.1,3.5
	c-0.3,0.5-0.1,1.1,0.3,1.4C14.6,31,14.8,31,15,31c0.3,0,0.7-0.2,0.9-0.5l3-5c0.2-0.3,0.2-0.7,0-1C18.7,24.2,18.4,24,18,24h-2.2
	l2.1-3.5C18.1,20,18,19.4,17.5,19.1z"/>
<path d="M27.6,13.4c0.3-0.8,0.4-1.6,0.4-2.4c0-3.9-3.1-7-7-7c-3.2,0-5.9,2.1-6.8,5.1c-2.6,0.3-5,1.9-6.3,4.2c-0.5-0.1-1-0.2-1.5-0.2
	C2.9,13.1,0,16,0,19.5C0,23.1,2.9,26,6.5,26H9c0.6,0,1-0.4,1-1s-0.4-1-1-1H6.5C4,24,2,22,2,19.5s2-4.5,4.5-4.5
	c0.5,0,1.1,0.1,1.6,0.3c0.5,0.2,1.1,0,1.3-0.5c1-2.4,3.4-3.9,5.9-3.9c2.8,0,5.3,1.8,6.1,4.4c0.1,0.3,0.3,0.5,0.6,0.6
	c0.3,0.1,0.6,0,0.9-0.1c0.8-0.5,1.6-0.8,2.6-0.8c2.5,0,4.5,2,4.5,4.5S28,24,25.5,24H23c-0.6,0-1,0.4-1,1s0.4,1,1,1h2.5
	c3.6,0,6.5-2.9,6.5-6.5C32,16.7,30.1,14.3,27.6,13.4z M22.9,13.7c-1.3-2.5-3.7-4.2-6.5-4.6C17.1,7.3,19,6,21,6c2.8,0,5,2.2,5,5
	c0,0.7-0.2,1.4-0.5,2.1C24.6,13.1,23.7,13.3,22.9,13.7z"/>
<path d="M20,1v1c0,0.6,0.4,1,1,1s1-0.4,1-1V1c0-0.6-0.4-1-1-1S20,0.4,20,1z"/>
<path d="M28.1,5.3l0.7-0.7c0.4-0.4,0.4-1,0-1.4c-0.4-0.4-1-0.4-1.4,0l-0.7,0.7c-0.4,0.4-0.4,1,0,1.4c0.2,0.2,0.5,0.3,0.7,0.3
	S27.9,5.5,28.1,5.3z"/>
<path d="M31,10h-1c-0.6,0-1,0.4-1,1s0.4,1,1,1h1c0.6,0,1-0.4,1-1S31.6,10,31,10z"/>
<path d="M13.2,3.2c-0.4,0.4-0.4,1,0,1.4l0.7,0.7c0.2,0.2,0.5,0.3,0.7,0.3s0.5-0.1,0.7-0.3c0.4-0.4,0.4-1,0-1.4l-0.7-0.7
	C14.2,2.8,13.6,2.8,13.2,3.2z"/>
</svg>
