<?xml version="1.0" encoding="utf-8"?>
<!-- Generator: Adobe Illustrator 18.1.1, SVG Export Plug-In . SVG Version: 6.00 Build 0)  -->
<!DOCTYPE svg PUBLIC "-//W3C//DTD SVG 1.1//EN" "http://www.w3.org/Graphics/SVG/1.1/DTD/svg11.dtd">
<svg version="1.1" id="Layer_2" xmlns="http://www.w3.org/2000/svg" xmlns:xlink="http://www.w3.org/1999/xlink" x="0px" y="0px"
	 width="32px" height="32px" viewBox="0 0 32 32" enable-background="new 0 0 32 32" xml:space="preserve">
<path d="M13.2,1.3C13,1,12.6,0.9,12.2,1C5.6,2.8,1,8.9,1,15.7C1,24.2,7.8,31,16.3,31c6.9,0,12.9-4.6,14.7-11.2c0.1-0.3,0-0.7-0.3-1
	c-0.3-0.3-0.6-0.4-1-0.3c-1.2,0.3-2.3,0.5-3.5,0.5C18.9,19,13,13.1,13,5.8c0-1.1,0.2-2.3,0.5-3.5C13.6,1.9,13.5,1.5,13.2,1.3z
	 M26.2,21c0.7,0,1.5-0.1,2.2-0.2c-2,4.9-6.8,8.2-12.2,8.2C8.9,29,3,23.1,3,15.7c0-5.4,3.3-10.2,8.2-12.2C11,4.3,11,5,11,5.8
	C11,14.2,17.8,21,26.2,21z"/>
<path d="M21,1c-0.6,0-1,0.4-1,1v1h-1c-0.6,0-1,0.4-1,1s0.4,1,1,1h1v1c0,0.6,0.4,1,1,1s1-0.4,1-1V5h1c0.6,0,1-0.4,1-1s-0.4-1-1-1h-1
	V2C22,1.4,21.6,1,21,1z"/>
<path d="M28,9c-0.6,0-1,0.4-1,1v1h-1c-0.6,0-1,0.4-1,1s0.4,1,1,1h1v1c0,0.6,0.4,1,1,1s1-0.4,1-1v-1h1c0.6,0,1-0.4,1-1s-0.4-1-1-1h-1
	v-1C29,9.4,28.6,9,28,9z"/>
</svg>
