<?xml version="1.0" encoding="utf-8"?>
<!-- Generator: Adobe Illustrator 18.1.1, SVG Export Plug-In . SVG Version: 6.00 Build 0)  -->
<!DOCTYPE svg PUBLIC "-//W3C//DTD SVG 1.1//EN" "http://www.w3.org/Graphics/SVG/1.1/DTD/svg11.dtd">
<svg version="1.1" id="Layer_2" xmlns="http://www.w3.org/2000/svg" xmlns:xlink="http://www.w3.org/1999/xlink" x="0px" y="0px"
	 width="32px" height="32px" viewBox="0 0 32 32" enable-background="new 0 0 32 32" xml:space="preserve">
<path d="M2,5c0,2.2,1.8,4,4,4s4-1.8,4-4S8.2,1,6,1S2,2.8,2,5z M8,5c0,1.1-0.9,2-2,2S4,6.1,4,5s0.9-2,2-2S8,3.9,8,5z"/>
<path d="M29,7c0.6,0,1-0.4,1-1s-0.4-1-1-1H14c-0.6,0-1,0.4-1,1v25c0,0.6,0.4,1,1,1s1-0.4,1-1V18h12c0.6,0,1-0.4,1-1s-0.4-1-1-1H15V7
	H29z"/>
</svg>
