<?xml version="1.0" encoding="utf-8"?>
<!-- Generator: Adobe Illustrator 18.1.1, SVG Export Plug-In . SVG Version: 6.00 Build 0)  -->
<!DOCTYPE svg PUBLIC "-//W3C//DTD SVG 1.1//EN" "http://www.w3.org/Graphics/SVG/1.1/DTD/svg11.dtd">
<svg version="1.1" id="Layer_2" xmlns="http://www.w3.org/2000/svg" xmlns:xlink="http://www.w3.org/1999/xlink" x="0px" y="0px"
	 width="32px" height="32px" viewBox="0 0 32 32" enable-background="new 0 0 32 32" xml:space="preserve">
<path d="M20,4c-5.1,0-9.6,3.3-11.3,8c-0.2,0-0.5,0-0.7,0c-4.5,0-8,3.5-8,8s3.5,8,8,8h13c0.2,0,0.4-0.1,0.5-0.2
	C27.4,27.1,32,22,32,16C32,9.4,26.6,4,20,4z M20.9,25.9c-0.1,0-0.2,0-0.3,0.1H8c-3.4,0-6-2.6-6-6s2.6-6,6-6c0.5,0,0.8,0,1.2,0.1
	c0.5,0.1,1-0.2,1.2-0.7C11.6,9,15.6,6,20,6c5.5,0,10,4.5,10,10C30,21.1,26,25.4,20.9,25.9z"/>
</svg>
