<?xml version="1.0" encoding="utf-8"?>
<!-- Generator: Adobe Illustrator 18.1.1, SVG Export Plug-In . SVG Version: 6.00 Build 0)  -->
<!DOCTYPE svg PUBLIC "-//W3C//DTD SVG 1.1//EN" "http://www.w3.org/Graphics/SVG/1.1/DTD/svg11.dtd">
<svg version="1.1" id="Layer_2" xmlns="http://www.w3.org/2000/svg" xmlns:xlink="http://www.w3.org/1999/xlink" x="0px" y="0px"
	 width="32px" height="32px" viewBox="0 0 32 32" enable-background="new 0 0 32 32" xml:space="preserve">
<path d="M16.7,16.3c-0.4-0.4-1-0.4-1.4,0l-1,1c-0.4,0.4-0.4,1,0,1.4c0.2,0.2,0.5,0.3,0.7,0.3s0.5-0.1,0.7-0.3l1-1
	C17.1,17.3,17.1,16.7,16.7,16.3z"/>
<path d="M19.3,13.7c0.2,0.2,0.5,0.3,0.7,0.3s0.5-0.1,0.7-0.3l10-10c0.4-0.4,0.4-1,0-1.4s-1-0.4-1.4,0l-10,10
	C18.9,12.7,18.9,13.3,19.3,13.7z"/>
<path d="M2,22c0.3,0,0.5-0.1,0.7-0.3l1-1c0.4-0.4,0.4-1,0-1.4s-1-0.4-1.4,0l-1,1c-0.4,0.4-0.4,1,0,1.4C1.5,21.9,1.7,22,2,22z"/>
<path d="M17.7,5.3c-0.4-0.4-1-0.4-1.4,0l-10,10c-0.4,0.4-0.4,1,0,1.4C6.5,16.9,6.7,17,7,17s0.5-0.1,0.7-0.3l10-10
	C18.1,6.3,18.1,5.7,17.7,5.3z"/>
<path d="M15.3,26.3l-1,1c-0.4,0.4-0.4,1,0,1.4c0.2,0.2,0.5,0.3,0.7,0.3s0.5-0.1,0.7-0.3l1-1c0.4-0.4,0.4-1,0-1.4
	S15.7,25.9,15.3,26.3z"/>
<path d="M29.3,12.3l-10,10c-0.4,0.4-0.4,1,0,1.4c0.2,0.2,0.5,0.3,0.7,0.3s0.5-0.1,0.7-0.3l10-10c0.4-0.4,0.4-1,0-1.4
	S29.7,11.9,29.3,12.3z"/>
</svg>
