<?xml version="1.0" encoding="utf-8"?>
<!-- Generator: Adobe Illustrator 18.1.1, SVG Export Plug-In . SVG Version: 6.00 Build 0)  -->
<!DOCTYPE svg PUBLIC "-//W3C//DTD SVG 1.1//EN" "http://www.w3.org/Graphics/SVG/1.1/DTD/svg11.dtd">
<svg version="1.1" id="Layer_2" xmlns="http://www.w3.org/2000/svg" xmlns:xlink="http://www.w3.org/1999/xlink" x="0px" y="0px"
	 width="32px" height="32px" viewBox="0 0 32 32" enable-background="new 0 0 32 32" xml:space="preserve">
<path d="M21,26.2c0-2.6-3.5-7-4.2-7.8c-0.4-0.5-1.2-0.5-1.5,0c-0.7,0.9-4.2,5.3-4.2,7.8c0,3,2.5,4.8,5,4.8S21,29.2,21,26.2z
	 M13,26.2c0-1.1,1.6-3.7,3-5.6c1.4,1.9,3,4.4,3,5.6c0,1.8-1.5,2.8-3,2.8S13,28,13,26.2z"/>
<path d="M26.9,10.1C26,4.9,21.5,1,16,1C11.4,1,7.3,3.9,5.6,8.2C2.4,9.1,0,12.1,0,15.5c0,3.9,3,7.1,6.9,7.5c0.6,0,1-0.4,1.1-0.9
	s-0.4-1-0.9-1.1C4.2,20.7,2,18.4,2,15.5c0-2.7,2-5,4.6-5.4C6.9,10,7.2,9.8,7.4,9.4C8.6,5.6,12,3,16,3c4.7,0,8.6,3.5,9,8.1
	c0,0.5,0.4,0.8,0.9,0.9c2.3,0.3,4.1,2.2,4.1,4.5s-1.8,4.3-4.1,4.5c-0.5,0.1-0.9,0.6-0.9,1.1c0.1,0.5,0.5,0.9,1,0.9c0,0,0.1,0,0.1,0
	c3.4-0.4,5.9-3.2,5.9-6.5C32,13.4,29.9,10.8,26.9,10.1z"/>
</svg>
