<?xml version="1.0" encoding="utf-8"?>
<!-- Generator: Adobe Illustrator 18.1.1, SVG Export Plug-In . SVG Version: 6.00 Build 0)  -->
<!DOCTYPE svg PUBLIC "-//W3C//DTD SVG 1.1//EN" "http://www.w3.org/Graphics/SVG/1.1/DTD/svg11.dtd">
<svg version="1.1" id="Layer_2" xmlns="http://www.w3.org/2000/svg" xmlns:xlink="http://www.w3.org/1999/xlink" x="0px" y="0px"
	 width="32px" height="32px" viewBox="0 0 32 32" enable-background="new 0 0 32 32" xml:space="preserve">
<path d="M20.3,23.5c-0.3-0.5-0.9-0.6-1.4-0.4l-2,1.1V22c0-0.6-0.4-1-1-1s-1,0.4-1,1v2.3l-2-1.1c-0.5-0.3-1.1-0.1-1.4,0.4
	c-0.3,0.5-0.1,1.1,0.4,1.4l2,1.1l-2,1.1c-0.5,0.3-0.6,0.9-0.4,1.4c0.2,0.3,0.5,0.5,0.9,0.5c0.2,0,0.3,0,0.5-0.1l2-1.1V30
	c0,0.6,0.4,1,1,1s1-0.4,1-1v-2.3l2,1.1c0.2,0.1,0.3,0.1,0.5,0.1c0.3,0,0.7-0.2,0.9-0.5c0.3-0.5,0.1-1.1-0.4-1.4L18,26l2-1.1
	C20.4,24.6,20.6,24,20.3,23.5z"/>
<path d="M27.6,14.4c0.3-0.8,0.4-1.6,0.4-2.4c0-3.9-3.1-7-7-7c-3.2,0-5.9,2.1-6.8,5.1c-2.6,0.3-5,1.9-6.3,4.2c-0.5-0.1-1-0.2-1.5-0.2
	C2.9,14.1,0,17,0,20.5C0,24.1,2.9,27,6.5,27H7c0.6,0,1-0.4,1-1s-0.4-1-1-1H6.5C4,25,2,23,2,20.5s2-4.5,4.5-4.5
	c0.5,0,1.1,0.1,1.6,0.3c0.5,0.2,1.1,0,1.3-0.5c1-2.4,3.4-3.9,5.9-3.9c2.8,0,5.3,1.8,6.1,4.4c0.1,0.3,0.3,0.5,0.6,0.6
	c0.3,0.1,0.6,0,0.9-0.1c0.8-0.5,1.6-0.8,2.6-0.8c2.5,0,4.5,2,4.5,4.5S28,25,25.5,25H25c-0.6,0-1,0.4-1,1s0.4,1,1,1h0.5
	c3.6,0,6.5-2.9,6.5-6.5C32,17.7,30.1,15.3,27.6,14.4z M22.9,14.7c-1.3-2.5-3.7-4.2-6.5-4.6C17.1,8.3,19,7,21,7c2.8,0,5,2.2,5,5
	c0,0.7-0.2,1.4-0.5,2.1C24.6,14.1,23.7,14.3,22.9,14.7z"/>
<path d="M20,2v1c0,0.6,0.4,1,1,1s1-0.4,1-1V2c0-0.6-0.4-1-1-1S20,1.4,20,2z"/>
<path d="M27.4,6.6c0.3,0,0.5-0.1,0.7-0.3l0.7-0.7c0.4-0.4,0.4-1,0-1.4c-0.4-0.4-1-0.4-1.4,0l-0.7,0.7c-0.4,0.4-0.4,1,0,1.4
	C26.9,6.5,27.1,6.6,27.4,6.6z"/>
<path d="M31,11h-1c-0.6,0-1,0.4-1,1s0.4,1,1,1h1c0.6,0,1-0.4,1-1S31.6,11,31,11z"/>
<path d="M13.2,4.2c-0.4,0.4-0.4,1,0,1.4l0.7,0.7c0.2,0.2,0.5,0.3,0.7,0.3s0.5-0.1,0.7-0.3c0.4-0.4,0.4-1,0-1.4l-0.7-0.7
	C14.2,3.8,13.6,3.8,13.2,4.2z"/>
</svg>
