<?xml version="1.0" encoding="utf-8"?>
<!-- Generator: Adobe Illustrator 18.1.1, SVG Export Plug-In . SVG Version: 6.00 Build 0)  -->
<!DOCTYPE svg PUBLIC "-//W3C//DTD SVG 1.1//EN" "http://www.w3.org/Graphics/SVG/1.1/DTD/svg11.dtd">
<svg version="1.1" id="Layer_2" xmlns="http://www.w3.org/2000/svg" xmlns:xlink="http://www.w3.org/1999/xlink" x="0px" y="0px"
	 width="32px" height="32px" viewBox="0 0 32 32" enable-background="new 0 0 32 32" xml:space="preserve">
<path d="M31,20H1c-0.6,0-1,0.4-1,1s0.4,1,1,1h30c0.6,0,1-0.4,1-1S31.6,20,31,20z"/>
<path d="M28,25c0-0.6-0.4-1-1-1H5c-0.6,0-1,0.4-1,1s0.4,1,1,1h22C27.6,26,28,25.6,28,25z"/>
<path d="M9,28c-0.6,0-1,0.4-1,1s0.4,1,1,1h14c0.6,0,1-0.4,1-1s-0.4-1-1-1H9z"/>
<path d="M1,17c0,0.6,0.4,1,1,1s1-0.4,1-1C3,9.8,8.8,4,16,4s13,5.8,13,13c0,0.6,0.4,1,1,1s1-0.4,1-1c0-8.3-6.7-15-15-15S1,8.7,1,17z"
	/>
</svg>
