<?xml version="1.0" encoding="utf-8"?>
<!-- Generator: Adobe Illustrator 18.1.1, SVG Export Plug-In . SVG Version: 6.00 Build 0)  -->
<!DOCTYPE svg PUBLIC "-//W3C//DTD SVG 1.1//EN" "http://www.w3.org/Graphics/SVG/1.1/DTD/svg11.dtd">
<svg version="1.1" id="Layer_2" xmlns="http://www.w3.org/2000/svg" xmlns:xlink="http://www.w3.org/1999/xlink" x="0px" y="0px"
	 width="32px" height="32px" viewBox="0 0 32 32" enable-background="new 0 0 32 32" xml:space="preserve">
<path d="M7.6,19.7l-5.2-1.4c-0.5-0.1-1.1,0.2-1.2,0.7c-0.1,0.5,0.2,1.1,0.7,1.2l3.3,0.9l-2.6,1.5C2,22.9,1.9,23.5,2.1,24
	c0.2,0.3,0.5,0.5,0.9,0.5c0.2,0,0.3,0,0.5-0.1l2.6-1.5l-0.9,3.3c-0.1,0.5,0.2,1.1,0.7,1.2c0.1,0,0.2,0,0.3,0c0.4,0,0.8-0.3,1-0.7
	l1.4-5.2l6.4-3.7v7.4l-3.8,3.8c-0.4,0.4-0.4,1,0,1.4s1,0.4,1.4,0L15,28v3c0,0.6,0.4,1,1,1s1-0.4,1-1v-3l2.4,2.4
	c0.2,0.2,0.5,0.3,0.7,0.3s0.5-0.1,0.7-0.3c0.4-0.4,0.4-1,0-1.4L17,25.1v-7.4l6.4,3.7l1.4,5.2c0.1,0.4,0.5,0.7,1,0.7
	c0.1,0,0.2,0,0.3,0c0.5-0.1,0.8-0.7,0.7-1.2l-0.9-3.3l2.6,1.5c0.2,0.1,0.3,0.1,0.5,0.1c0.3,0,0.7-0.2,0.9-0.5
	c0.3-0.5,0.1-1.1-0.4-1.4l-2.6-1.5l3.3-0.9c0.5-0.1,0.8-0.7,0.7-1.2c-0.1-0.5-0.7-0.8-1.2-0.7l-5.2,1.4L18,16l6.4-3.7l5.2,1.4
	c0.1,0,0.2,0,0.3,0c0.4,0,0.8-0.3,1-0.7c0.1-0.5-0.2-1.1-0.7-1.2l-3.3-0.9l2.6-1.5C30,9.1,30.1,8.5,29.9,8c-0.3-0.5-0.9-0.6-1.4-0.4
	l-2.6,1.5l0.9-3.3c0.1-0.5-0.2-1.1-0.7-1.2c-0.5-0.1-1.1,0.2-1.2,0.7l-1.4,5.2L17,14.3V6.9l3.8-3.8c0.4-0.4,0.4-1,0-1.4
	s-1-0.4-1.4,0L17,4V1c0-0.6-0.4-1-1-1s-1,0.4-1,1v3l-2.4-2.4c-0.4-0.4-1-0.4-1.4,0s-0.4,1,0,1.4L15,6.9v7.4l-6.4-3.7L7.2,5.4
	C7.1,4.8,6.5,4.5,6,4.7C5.4,4.8,5.1,5.4,5.3,5.9l0.9,3.3L3.5,7.6C3,7.4,2.4,7.5,2.1,8C1.9,8.5,2,9.1,2.5,9.4l2.6,1.5l-3.3,0.9
	C1.4,11.9,1,12.5,1.2,13c0.1,0.4,0.5,0.7,1,0.7c0.1,0,0.2,0,0.3,0l5.2-1.4L14,16L7.6,19.7z"/>
</svg>
