<?xml version="1.0" encoding="utf-8"?>
<!-- Generator: Adobe Illustrator 18.1.1, SVG Export Plug-In . SVG Version: 6.00 Build 0)  -->
<!DOCTYPE svg PUBLIC "-//W3C//DTD SVG 1.1//EN" "http://www.w3.org/Graphics/SVG/1.1/DTD/svg11.dtd">
<svg version="1.1" id="Layer_2" xmlns="http://www.w3.org/2000/svg" xmlns:xlink="http://www.w3.org/1999/xlink" x="0px" y="0px"
	 width="32px" height="32px" viewBox="0 0 32 32" enable-background="new 0 0 32 32" xml:space="preserve">
<path d="M31,3c0-0.6-0.4-1-1-1H2C1.4,2,1,2.4,1,3s0.4,1,1,1h28C30.6,4,31,3.6,31,3z"/>
<path d="M26,9c0.6,0,1-0.4,1-1s-0.4-1-1-1H6C5.4,7,5,7.4,5,8s0.4,1,1,1H26z"/>
<path d="M28,13c0-0.6-0.4-1-1-1H10c-0.6,0-1,0.4-1,1s0.4,1,1,1h17C27.6,14,28,13.6,28,13z"/>
<path d="M25,18c0-0.6-0.4-1-1-1H14c-0.6,0-1,0.4-1,1s0.4,1,1,1h10C24.6,19,25,18.6,25,18z"/>
<path d="M17,23c0-0.6-0.4-1-1-1H9c-0.6,0-1,0.4-1,1s0.4,1,1,1h7C16.6,24,17,23.6,17,23z"/>
<path d="M4,28c0,0.6,0.4,1,1,1h5c0.6,0,1-0.4,1-1s-0.4-1-1-1H5C4.4,27,4,27.4,4,28z"/>
</svg>
