<?xml version="1.0" encoding="utf-8"?>
<!-- Generator: Adobe Illustrator 18.1.1, SVG Export Plug-In . SVG Version: 6.00 Build 0)  -->
<!DOCTYPE svg PUBLIC "-//W3C//DTD SVG 1.1//EN" "http://www.w3.org/Graphics/SVG/1.1/DTD/svg11.dtd">
<svg version="1.1" id="Layer_2" xmlns="http://www.w3.org/2000/svg" xmlns:xlink="http://www.w3.org/1999/xlink" x="0px" y="0px"
	 width="32px" height="32px" viewBox="0 0 32 32" enable-background="new 0 0 32 32" xml:space="preserve">
<path d="M22,1c-4,0-7.6,2.4-9.2,6c-0.3,0-0.6,0-0.9,0C5.3,7,0,12.4,0,19s5.3,12,11.9,12h12.3c4.4,0,7.8-3.5,7.8-7.9
	c0-2.3-0.9-4.3-2.4-5.7c1.5-1.8,2.4-4,2.4-6.4C32,5.5,27.5,1,22,1z M30,23.1c0,3.3-2.6,5.9-5.8,5.9H11.9C6.4,29,2,24.5,2,19
	S6.4,9,11.9,9c4.7,0,8.7,3.2,9.7,7.7c0.1,0.3,0.2,0.5,0.5,0.6s0.5,0.2,0.8,0.1c0.5-0.1,1-0.2,1.4-0.2C27.4,17.2,30,19.8,30,23.1z
	 M24.2,15.2c-0.3,0-0.6,0-0.9,0.1c-1.2-4-4.4-7-8.4-8C16.2,4.7,19,3,22,3c4.4,0,8,3.6,8,8c0,2-0.7,3.8-2,5.2
	C26.9,15.6,25.6,15.2,24.2,15.2z"/>
</svg>
