<?xml version="1.0" encoding="utf-8"?>
<!-- Generator: Adobe Illustrator 18.1.1, SVG Export Plug-In . SVG Version: 6.00 Build 0)  -->
<!DOCTYPE svg PUBLIC "-//W3C//DTD SVG 1.1//EN" "http://www.w3.org/Graphics/SVG/1.1/DTD/svg11.dtd">
<svg version="1.1" id="Layer_2" xmlns="http://www.w3.org/2000/svg" xmlns:xlink="http://www.w3.org/1999/xlink" x="0px" y="0px"
	 width="32px" height="32px" viewBox="0 0 32 32" enable-background="new 0 0 32 32" xml:space="preserve">
<path d="M16,32c5.9,0,12-4.5,12-12c0-7.2-10.8-18.2-11.3-18.7c-0.4-0.4-1-0.4-1.4,0C14.8,1.8,4,12.8,4,20C4,27.5,10.1,32,16,32z
	 M16,3.4C18.4,6,26,14.6,26,20c0,6.5-5.2,10-10,10S6,26.5,6,20C6,14.6,13.6,6,16,3.4z"/>
<path d="M16,25c0.6,0,1-0.4,1-1c0-0.6-0.4-1-1-1c-0.5,0-3-0.2-3-3c0-0.6-0.4-1-1-1s-1,0.4-1,1C11,24,14.3,25,16,25z"/>
</svg>
