<?xml version="1.0" encoding="utf-8"?>
<!-- Generator: Adobe Illustrator 18.1.1, SVG Export Plug-In . SVG Version: 6.00 Build 0)  -->
<!DOCTYPE svg PUBLIC "-//W3C//DTD SVG 1.1//EN" "http://www.w3.org/Graphics/SVG/1.1/DTD/svg11.dtd">
<svg version="1.1" id="Layer_2" xmlns="http://www.w3.org/2000/svg" xmlns:xlink="http://www.w3.org/1999/xlink" x="0px" y="0px"
	 width="32px" height="32px" viewBox="0 0 32 32" enable-background="new 0 0 32 32" xml:space="preserve">
<path d="M15,1v2c0,0.6,0.4,1,1,1s1-0.4,1-1V1c0-0.6-0.4-1-1-1S15,0.4,15,1z"/>
<path d="M25.9,4.7l-1.4,1.4c-0.4,0.4-0.4,1,0,1.4c0.2,0.2,0.5,0.3,0.7,0.3s0.5-0.1,0.7-0.3l1.4-1.4c0.4-0.4,0.4-1,0-1.4
	S26.3,4.3,25.9,4.7z"/>
<path d="M31,15h-2c-0.6,0-1,0.4-1,1s0.4,1,1,1h2c0.6,0,1-0.4,1-1S31.6,15,31,15z"/>
<path d="M3,17c0.6,0,1-0.4,1-1s-0.4-1-1-1H1c-0.6,0-1,0.4-1,1s0.4,1,1,1H3z"/>
<path d="M4.7,4.7c-0.4,0.4-0.4,1,0,1.4l1.4,1.4c0.2,0.2,0.5,0.3,0.7,0.3s0.5-0.1,0.7-0.3c0.4-0.4,0.4-1,0-1.4L6.1,4.7
	C5.7,4.3,5.1,4.3,4.7,4.7z"/>
<path d="M25.5,19.1C25.5,19.1,25.5,19.1,25.5,19.1c0.3-1,0.5-2,0.5-3.1c0-5.5-4.5-10-10-10S6,10.5,6,16c0,1.1,0.2,2.1,0.5,3.1
	c0,0,0,0-0.1,0C2.9,19.1,0,22,0,25.5C0,29.1,2.9,32,6.5,32h19.1c3.6,0,6.5-2.9,6.5-6.5C32,22,29.1,19.1,25.5,19.1z M16,8
	c4.4,0,8,3.6,8,8c0,1.2-0.3,2.5-0.9,3.6c-0.1,0-0.2,0.1-0.2,0.1c-1.4-2.8-4.3-4.7-7.6-4.7c-2.8,0-5.3,1.4-6.9,3.5
	C8.2,17.7,8,16.9,8,16C8,11.6,11.6,8,16,8z M25.5,30H6.5C4,30,2,28,2,25.5s2-4.5,4.5-4.5c0.5,0,1.1,0.1,1.6,0.3
	c0.5,0.2,1.1,0,1.3-0.5c1-2.4,3.4-3.9,5.9-3.9c2.8,0,5.3,1.8,6.1,4.4c0.1,0.3,0.3,0.5,0.6,0.6c0.3,0.1,0.6,0,0.9-0.1
	c0.8-0.5,1.6-0.8,2.6-0.8c2.5,0,4.5,2,4.5,4.5S28,30,25.5,30z"/>
</svg>
