<?xml version="1.0" encoding="utf-8"?>
<!-- Generator: Adobe Illustrator 18.1.1, SVG Export Plug-In . SVG Version: 6.00 Build 0)  -->
<!DOCTYPE svg PUBLIC "-//W3C//DTD SVG 1.1//EN" "http://www.w3.org/Graphics/SVG/1.1/DTD/svg11.dtd">
<svg version="1.1" id="Layer_2" xmlns="http://www.w3.org/2000/svg" xmlns:xlink="http://www.w3.org/1999/xlink" x="0px" y="0px"
	 width="32px" height="32px" viewBox="0 0 32 32" enable-background="new 0 0 32 32" xml:space="preserve">
<path d="M30.7,2.3c-0.4-0.4-1-0.4-1.4,0l-15,15c-0.4,0.4-0.4,1,0,1.4c0.2,0.2,0.5,0.3,0.7,0.3s0.5-0.1,0.7-0.3l15-15
	C31.1,3.3,31.1,2.7,30.7,2.3z"/>
<path d="M16.3,5.3l-15,15c-0.4,0.4-0.4,1,0,1.4C1.5,21.9,1.7,22,2,22s0.5-0.1,0.7-0.3l15-15c0.4-0.4,0.4-1,0-1.4S16.7,4.9,16.3,5.3z
	"/>
<path d="M29.3,12.3l-15,15c-0.4,0.4-0.4,1,0,1.4c0.2,0.2,0.5,0.3,0.7,0.3s0.5-0.1,0.7-0.3l15-15c0.4-0.4,0.4-1,0-1.4
	S29.7,11.9,29.3,12.3z"/>
</svg>
