<?xml version="1.0" encoding="utf-8"?>
<!-- Generator: Adobe Illustrator 18.1.1, SVG Export Plug-In . SVG Version: 6.00 Build 0)  -->
<!DOCTYPE svg PUBLIC "-//W3C//DTD SVG 1.1//EN" "http://www.w3.org/Graphics/SVG/1.1/DTD/svg11.dtd">
<svg version="1.1" id="Layer_2" xmlns="http://www.w3.org/2000/svg" xmlns:xlink="http://www.w3.org/1999/xlink" x="0px" y="0px"
	 width="32px" height="32px" viewBox="0 0 32 32" enable-background="new 0 0 32 32" xml:space="preserve">
<path d="M26.9,14.1C26,8.9,21.5,5,16,5c-4.6,0-8.7,2.9-10.4,7.2C2.4,13.1,0,16.1,0,19.5c0,3.9,3,7.1,7,7.5h19c0,0,0.1,0,0.1,0
	c3.4-0.4,5.9-3.2,5.9-6.5C32,17.4,29.9,14.8,26.9,14.1z M25.9,25L7.1,25C4.2,24.7,2,22.4,2,19.5c0-2.7,2-5,4.6-5.4
	c0.4-0.1,0.7-0.3,0.8-0.7C8.6,9.6,12,7,16,7c4.7,0,8.6,3.5,9,8.1c0,0.5,0.4,0.8,0.9,0.9c2.3,0.3,4.1,2.2,4.1,4.5
	C30,22.8,28.3,24.7,25.9,25z"/>
</svg>
