<?xml version="1.0" encoding="utf-8"?>
<!-- Generator: Adobe Illustrator 19.1.0, SVG Export Plug-In . SVG Version: 6.00 Build 0)  -->
<!DOCTYPE svg PUBLIC "-//W3C//DTD SVG 1.1//EN" "http://www.w3.org/Graphics/SVG/1.1/DTD/svg11.dtd">
<svg version="1.1" id="Layer_1" xmlns="http://www.w3.org/2000/svg" xmlns:xlink="http://www.w3.org/1999/xlink" x="0px" y="0px"
	 width="64px" height="64px" viewBox="0 0 64 64" enable-background="new 0 0 64 64" xml:space="preserve">
<path d="M10,62c2.7,0,5.3-1.3,7-3.4c1.7,2.1,4.3,3.4,7,3.4s5.3-1.3,7-3.4c1.7,2.1,4.3,3.4,7,3.4s5.3-1.3,7-3.4
	c1.7,2.1,4.3,3.4,7,3.4c5,0,9-4,9-9c0-0.6-0.4-1-1-1s-1,0.4-1,1c0,3.9-3.1,7-7,7c-2.5,0-4.9-1.4-6.1-3.7c-0.3-0.6-1.4-0.6-1.8,0
	C42.9,58.6,40.5,60,38,60s-4.9-1.4-6.1-3.7c-0.3-0.6-1.4-0.6-1.8,0C28.9,58.6,26.5,60,24,60s-4.9-1.4-6.1-3.7
	c-0.3-0.6-1.4-0.6-1.8,0C14.9,58.6,12.5,60,10,60c-3.9,0-7-3.1-7-7c0-0.6-0.4-1-1-1s-1,0.4-1,1C1,58,5,62,10,62z"/>
<path d="M11.1,53.3c0.2,0.5,0.7,0.8,1.3,0.6c0.5-0.2,0.8-0.7,0.6-1.3L9.2,41.5L31,28.7V51c0,0.6,0.4,1,1,1s1-0.4,1-1V28.7l21.8,12.7
	l-3.7,11.2c-0.2,0.5,0.1,1.1,0.6,1.3c0.1,0,0.2,0.1,0.3,0.1c0.4,0,0.8-0.3,0.9-0.7l4-12c0.1-0.4,0-0.9-0.4-1.2L51,36.9V21
	c0-2.8-2.2-5-5-5h-8V3c0-0.6-0.4-1-1-1H27c-0.6,0-1,0.4-1,1v13h-8c-2.8,0-5,2.2-5,5v15.9l-5.5,3.2c-0.4,0.2-0.6,0.7-0.4,1.2
	L11.1,53.3z M36,4v3h-8V4H36z M28,9h8v7h-8V9z M15,21c0-1.7,1.3-3,3-3h28c1.7,0,3,1.3,3,3v14.8l-16.5-9.6c0,0-0.1,0-0.1,0
	c0,0-0.1,0-0.1,0c-0.2-0.1-0.5-0.1-0.7,0c0,0-0.1,0-0.1,0c0,0-0.1,0-0.1,0L15,35.8V21z"/>
<path d="M26,36v2c0,0.6,0.4,1,1,1s1-0.4,1-1v-2c0-0.6-0.4-1-1-1S26,35.4,26,36z"/>
<path d="M36,36v2c0,0.6,0.4,1,1,1s1-0.4,1-1v-2c0-0.6-0.4-1-1-1S36,35.4,36,36z"/>
</svg>
