<?xml version="1.0" encoding="utf-8"?>
<!-- Generator: Adobe Illustrator 19.1.0, SVG Export Plug-In . SVG Version: 6.00 Build 0)  -->
<!DOCTYPE svg PUBLIC "-//W3C//DTD SVG 1.1//EN" "http://www.w3.org/Graphics/SVG/1.1/DTD/svg11.dtd">
<svg version="1.1" id="Layer_1" xmlns="http://www.w3.org/2000/svg" xmlns:xlink="http://www.w3.org/1999/xlink" x="0px" y="0px"
	 width="64px" height="64px" viewBox="0 0 64 64" enable-background="new 0 0 64 64" xml:space="preserve">
<path d="M58,11H6c-2.8,0-5,2.2-5,5v28c0,0.6,0.4,1,1,1h5.1c0.5,3.4,3.4,6,6.9,6s6.4-2.6,6.9-6h22.2c0.5,3.4,3.4,6,6.9,6
	s6.4-2.6,6.9-6H62c0.6,0,1-0.4,1-1V16C63,13.2,60.8,11,58,11z M14,49c-2.8,0-5-2.2-5-5s2.2-5,5-5s5,2.2,5,5S16.8,49,14,49z M50,49
	c-2.8,0-5-2.2-5-5s2.2-5,5-5s5,2.2,5,5S52.8,49,50,49z M56.9,43c-0.5-3.4-3.4-6-6.9-6s-6.4,2.6-6.9,6H20.9c-0.5-3.4-3.4-6-6.9-6
	s-6.4,2.6-6.9,6H3V16c0-1.7,1.3-3,3-3h52c1.7,0,3,1.3,3,3v13h-6v-9c0-0.6-0.4-1-1-1s-1,0.4-1,1v10c0,0.6,0.4,1,1,1h7v12H56.9z"/>
<path d="M46,19H10c-0.6,0-1,0.4-1,1v10c0,0.6,0.4,1,1,1h36c0.6,0,1-0.4,1-1V20C47,19.4,46.6,19,46,19z M33,21v8H23v-8H33z M11,21h10
	v8H11V21z M45,29H35v-8h10V29z"/>
</svg>
