<?xml version="1.0" encoding="utf-8"?>
<!-- Generator: Adobe Illustrator 19.1.0, SVG Export Plug-In . SVG Version: 6.00 Build 0)  -->
<!DOCTYPE svg PUBLIC "-//W3C//DTD SVG 1.1//EN" "http://www.w3.org/Graphics/SVG/1.1/DTD/svg11.dtd">
<svg version="1.1" id="Layer_1" xmlns="http://www.w3.org/2000/svg" xmlns:xlink="http://www.w3.org/1999/xlink" x="0px" y="0px"
	 width="64px" height="64px" viewBox="0 0 64 64" enable-background="new 0 0 64 64" xml:space="preserve">
<path d="M39,27H29v-7c0-0.6-0.4-1-1-1s-1,0.4-1,1v7H17c-0.6,0-1,0.4-1,1s0.4,1,1,1h22c0.6,0,1-0.4,1-1S39.6,27,39,27z"/>
<path d="M58,27H47.6L41,15.5C40.1,14,38.5,13,36.7,13h-19c-2,0-3.8,1.2-4.6,3L8.3,27H6c-2.8,0-5,2.2-5,5v12c0,0.6,0.4,1,1,1h5.1
	c0.5,3.4,3.4,6,6.9,6s6.4-2.6,6.9-6h22.2c0.5,3.4,3.4,6,6.9,6s6.4-2.6,6.9-6H62c0.6,0,1-0.4,1-1V32C63,29.2,60.8,27,58,27z M14,49
	c-2.8,0-5-2.2-5-5s2.2-5,5-5s5,2.2,5,5S16.8,49,14,49z M50,49c-2.8,0-5-2.2-5-5s2.2-5,5-5s5,2.2,5,5S52.8,49,50,49z M61,43h-4.1
	c-0.5-3.4-3.4-6-6.9-6s-6.4,2.6-6.9,6H20.9c-0.5-3.4-3.4-6-6.9-6s-6.4,2.6-6.9,6H3V32c0-1.7,1.3-3,3-3h3c0.4,0,0.8-0.2,0.9-0.6
	l5-11.6c0.5-1.1,1.6-1.8,2.8-1.8h19c1.1,0,2.1,0.6,2.6,1.5l6.8,12c0.2,0.3,0.5,0.5,0.9,0.5h11c1.7,0,3,1.3,3,3V43z"/>
</svg>
