<?xml version="1.0" encoding="utf-8"?>
<!-- Generator: Adobe Illustrator 19.1.0, SVG Export Plug-In . SVG Version: 6.00 Build 0)  -->
<!DOCTYPE svg PUBLIC "-//W3C//DTD SVG 1.1//EN" "http://www.w3.org/Graphics/SVG/1.1/DTD/svg11.dtd">
<svg version="1.1" id="Layer_1" xmlns="http://www.w3.org/2000/svg" xmlns:xlink="http://www.w3.org/1999/xlink" x="0px" y="0px"
	 width="64px" height="64px" viewBox="0 0 64 64" enable-background="new 0 0 64 64" xml:space="preserve">
<path d="M4,38c0.6,0,1-0.4,1-1v-8c0-0.6-0.4-1-1-1s-1,0.4-1,1v8C3,37.6,3.4,38,4,38z"/>
<path d="M60,38c0.6,0,1-0.4,1-1v-8c0-0.6-0.4-1-1-1s-1,0.4-1,1v8C59,37.6,59.4,38,60,38z"/>
<path d="M43,62h9c0.6,0,1-0.4,1-1v-5h3c0.6,0,1-0.4,1-1V7c0-2.8-2.2-5-5-5H12C9.2,2,7,4.2,7,7v48c0,0.6,0.4,1,1,1h3v5
	c0,0.6,0.4,1,1,1h9c0.6,0,1-0.4,1-1v-5h20v5C42,61.6,42.4,62,43,62z M51,60h-7v-4h7V60z M42.7,27.3c-0.4-0.4-1-0.4-1.4,0L31.6,37H9
	V16h46v21H34.4l8.3-8.3C43.1,28.3,43.1,27.7,42.7,27.3z M12,4h40c1.7,0,3,1.3,3,3v7H9V7C9,5.3,10.3,4,12,4z M9,39h46v15H9V39z
	 M20,60h-7v-4h7V60z"/>
<path d="M28,10h8c0.6,0,1-0.4,1-1s-0.4-1-1-1h-8c-0.6,0-1,0.4-1,1S27.4,10,28,10z"/>
<path d="M17,51c2.2,0,4-1.8,4-4s-1.8-4-4-4s-4,1.8-4,4S14.8,51,17,51z M17,45c1.1,0,2,0.9,2,2s-0.9,2-2,2s-2-0.9-2-2S15.9,45,17,45z
	"/>
<path d="M47,51c2.2,0,4-1.8,4-4s-1.8-4-4-4s-4,1.8-4,4S44.8,51,47,51z M47,45c1.1,0,2,0.9,2,2s-0.9,2-2,2s-2-0.9-2-2S45.9,45,47,45z
	"/>
<path d="M26,50h12c0.6,0,1-0.4,1-1v-4c0-0.6-0.4-1-1-1H26c-0.6,0-1,0.4-1,1v4C25,49.6,25.4,50,26,50z M27,46h10v2H27V46z"/>
</svg>
