<?xml version="1.0" encoding="utf-8"?>
<!-- Generator: Adobe Illustrator 19.1.0, SVG Export Plug-In . SVG Version: 6.00 Build 0)  -->
<!DOCTYPE svg PUBLIC "-//W3C//DTD SVG 1.1//EN" "http://www.w3.org/Graphics/SVG/1.1/DTD/svg11.dtd">
<svg version="1.1" id="Layer_1" xmlns="http://www.w3.org/2000/svg" xmlns:xlink="http://www.w3.org/1999/xlink" x="0px" y="0px"
	 width="64px" height="64px" viewBox="0 0 64 64" enable-background="new 0 0 64 64" xml:space="preserve">
<path d="M62,10c0.6,0,1-0.4,1-1s-0.4-1-1-1H22c-0.6,0-1,0.4-1,1s0.4,1,1,1h19v5H13.8L12,7.8C11.9,7.3,11.5,7,11,7H4
	C3.7,7,3.4,7.1,3.3,7.3C3.1,7.6,3,7.8,3,8.1l1.6,12.5C4.9,23.1,7,25,9.5,25H21v7c0,8.9,6.9,16.2,15.6,16.9L34.3,55H22
	c-0.6,0-1,0.4-1,1s0.4,1,1,1h34c3.9,0,7-3.1,7-7c0-0.6-0.4-1-1-1s-1,0.4-1,1c0,2.8-2.2,5-5,5h-4.3l-2.4-6.3
	c6-1.2,10.8-5.5,12.8-11.2c0,0,0-0.1,0-0.1c0.6-1.7,0.9-3.5,0.9-5.3c0-9.4-7.6-17-17-17h-3v-5H62z M49.6,55H36.4l2.2-6H46
	c0.4,0,0.9,0,1.3-0.1L49.6,55z M46,47h-8c-8.3,0-15-6.7-15-15v-8c0-0.6-0.4-1-1-1H9.5c-1.5,0-2.8-1.1-3-2.6L5.1,9h5.1l1.8,7.2
	c0.1,0.4,0.5,0.8,1,0.8h23v12c0,5,4,9,9,9h14.7C57.4,43.3,52.1,47,46,47z M61,32c0,1.4-0.2,2.7-0.6,4H45c-3.9,0-7-3.1-7-7V17h8
	C54.3,17,61,23.7,61,32z"/>
</svg>
