<?xml version="1.0" encoding="utf-8"?>
<!-- Generator: Adobe Illustrator 19.1.0, SVG Export Plug-In . SVG Version: 6.00 Build 0)  -->
<!DOCTYPE svg PUBLIC "-//W3C//DTD SVG 1.1//EN" "http://www.w3.org/Graphics/SVG/1.1/DTD/svg11.dtd">
<svg version="1.1" id="Layer_1" xmlns="http://www.w3.org/2000/svg" xmlns:xlink="http://www.w3.org/1999/xlink" x="0px" y="0px"
	 width="64px" height="64px" viewBox="0 0 64 64" enable-background="new 0 0 64 64" xml:space="preserve">
<path d="M6,19v8c0,0.6,0.4,1,1,1s1-0.4,1-1v-8c0-0.6-0.4-1-1-1S6,18.4,6,19z"/>
<path d="M56,19v8c0,0.6,0.4,1,1,1s1-0.4,1-1v-8c0-0.6-0.4-1-1-1S56,18.4,56,19z"/>
<path d="M9.7,62.9C9.9,63,10,63,10.2,63c0.4,0,0.7-0.2,0.9-0.6l3.6-7.4h34.6l3.6,7.4c0.2,0.4,0.5,0.6,0.9,0.6c0.1,0,0.3,0,0.4-0.1
	c0.5-0.2,0.7-0.8,0.5-1.3L47.6,47H52c0.6,0,1-0.4,1-1V8c0-3.9-3.1-7-7-7H18c-3.9,0-7,3.1-7,7v38c0,0.6,0.4,1,1,1h4.4L9.3,61.6
	C9,62.1,9.2,62.7,9.7,62.9z M13,8c0-2.8,2.2-5,5-5h28c2.8,0,5,2.2,5,5v37H13V8z M45.4,47l2.9,6H15.7l2.9-6H45.4z"/>
<path d="M22,29h20c0.5,0,0.9-0.4,1-0.9l2-18c0-0.3-0.1-0.6-0.2-0.8C44.6,9.1,44.3,9,44,9H20c-0.3,0-0.6,0.1-0.7,0.3
	C19.1,9.5,19,9.8,19,10.1l2,18C21.1,28.6,21.5,29,22,29z M42.9,11l-1.8,16H22.9l-1.8-16H42.9z"/>
<path d="M20,34c-2.2,0-4,1.8-4,4s1.8,4,4,4s4-1.8,4-4S22.2,34,20,34z M20,40c-1.1,0-2-0.9-2-2s0.9-2,2-2s2,0.9,2,2S21.1,40,20,40z"
	/>
<path d="M44,34c-2.2,0-4,1.8-4,4s1.8,4,4,4s4-1.8,4-4S46.2,34,44,34z M44,40c-1.1,0-2-0.9-2-2s0.9-2,2-2s2,0.9,2,2S45.1,40,44,40z"
	/>
<path d="M35,37h-6c-0.6,0-1,0.4-1,1s0.4,1,1,1h6c0.6,0,1-0.4,1-1S35.6,37,35,37z"/>
</svg>
