<?xml version="1.0" encoding="utf-8"?>
<!-- Generator: Adobe Illustrator 19.1.0, SVG Export Plug-In . SVG Version: 6.00 Build 0)  -->
<!DOCTYPE svg PUBLIC "-//W3C//DTD SVG 1.1//EN" "http://www.w3.org/Graphics/SVG/1.1/DTD/svg11.dtd">
<svg version="1.1" id="Layer_1" xmlns="http://www.w3.org/2000/svg" xmlns:xlink="http://www.w3.org/1999/xlink" x="0px" y="0px"
	 width="64px" height="64px" viewBox="0 0 64 64" enable-background="new 0 0 64 64" xml:space="preserve">
<path d="M21.1,56.5c0.2,0.3,0.5,0.5,0.9,0.5h12c0.4,0,0.7-0.2,0.9-0.5l9-17.5H55c2.2,0,4.2-0.9,5.7-2.4c1.5-1.6,2.3-3.6,2.3-5.8
	c-0.1-4.3-3.8-7.8-8.3-7.8H42.6L34.9,7.6C34.7,7.2,34.4,7,34,7H22c-0.3,0-0.7,0.2-0.9,0.5c-0.2,0.3-0.2,0.7,0,1L28.4,23h-9.8
	L14,15.4c-0.9-1.5-2.5-2.4-4.3-2.4H4c-0.3,0-0.6,0.1-0.8,0.4S3,13.9,3,14.2l6,24c0.1,0.4,0.5,0.8,1,0.8h19.6l-8.5,16.5
	C21,55.9,21,56.2,21.1,56.5z M23.6,9h9.8l7,14h-9.8L23.6,9z M32.1,38.5c0.2-0.3,0.1-0.7,0-1c-0.2-0.3-0.5-0.5-0.9-0.5H10.8L5.3,15
	h4.5c1,0,2,0.6,2.6,1.5l4.8,8.1c0.2,0.3,0.5,0.5,0.9,0.5h36.7c3.4,0,6.2,2.6,6.3,5.8c0,1.6-0.6,3.2-1.7,4.4C58.2,36.4,56.6,37,55,37
	H43.2c-0.4,0-0.7,0.2-0.9,0.5l-9,17.5h-9.8L32.1,38.5z"/>
<path d="M25,30h-3c-0.6,0-1,0.4-1,1s0.4,1,1,1h3c0.6,0,1-0.4,1-1S25.6,30,25,30z"/>
<path d="M34,31c0-0.6-0.4-1-1-1h-3c-0.6,0-1,0.4-1,1s0.4,1,1,1h3C33.6,32,34,31.6,34,31z"/>
<path d="M38,32h3c0.6,0,1-0.4,1-1s-0.4-1-1-1h-3c-0.6,0-1,0.4-1,1S37.4,32,38,32z"/>
<path d="M46,32h3c0.6,0,1-0.4,1-1s-0.4-1-1-1h-3c-0.6,0-1,0.4-1,1S45.4,32,46,32z"/>
</svg>
