<?xml version="1.0" encoding="utf-8"?>
<!-- Generator: Adobe Illustrator 19.1.0, SVG Export Plug-In . SVG Version: 6.00 Build 0)  -->
<!DOCTYPE svg PUBLIC "-//W3C//DTD SVG 1.1//EN" "http://www.w3.org/Graphics/SVG/1.1/DTD/svg11.dtd">
<svg version="1.1" id="Layer_1" xmlns="http://www.w3.org/2000/svg" xmlns:xlink="http://www.w3.org/1999/xlink" x="0px" y="0px"
	 width="64px" height="64px" viewBox="0 0 64 64" enable-background="new 0 0 64 64" xml:space="preserve">
<path d="M20.3,3c-0.5-0.2-1.1,0.1-1.3,0.6l-18,56c-0.2,0.5,0.1,1.1,0.6,1.3c0.1,0,0.2,0,0.3,0c0.4,0,0.8-0.3,1-0.7l18-56
	C21.1,3.8,20.8,3.2,20.3,3z"/>
<path d="M45,3.7c-0.2-0.5-0.7-0.8-1.3-0.6c-0.5,0.2-0.8,0.7-0.6,1.3l18,56c0.1,0.4,0.5,0.7,1,0.7c0.1,0,0.2,0,0.3,0
	c0.5-0.2,0.8-0.7,0.6-1.3L45,3.7z"/>
<path d="M32,9c-0.6,0-1,0.4-1,1v6c0,0.6,0.4,1,1,1s1-0.4,1-1v-6C33,9.4,32.6,9,32,9z"/>
<path d="M32,25c-0.6,0-1,0.4-1,1v8c0,0.6,0.4,1,1,1s1-0.4,1-1v-8C33,25.4,32.6,25,32,25z"/>
<path d="M32,43c-0.6,0-1,0.4-1,1v10c0,0.6,0.4,1,1,1s1-0.4,1-1V44C33,43.4,32.6,43,32,43z"/>
</svg>
