<?xml version="1.0" encoding="utf-8"?>
<!-- Generator: Adobe Illustrator 19.1.0, SVG Export Plug-In . SVG Version: 6.00 Build 0)  -->
<!DOCTYPE svg PUBLIC "-//W3C//DTD SVG 1.1//EN" "http://www.w3.org/Graphics/SVG/1.1/DTD/svg11.dtd">
<svg version="1.1" id="Layer_1" xmlns="http://www.w3.org/2000/svg" xmlns:xlink="http://www.w3.org/1999/xlink" x="0px" y="0px"
	 width="64px" height="64px" viewBox="0 0 64 64" enable-background="new 0 0 64 64" xml:space="preserve">
<path d="M1,43c0,5.5,4.5,10,10,10c4.8,0,8.9-3.4,9.8-8h22.2c0.5,5,4.8,9,9.9,9c5.5,0,10-4.5,10-10c0-2.8-1.2-5.4-3.2-7.3l1.6-0.6
	c0.3-0.1,0.6-0.4,0.6-0.7c0.1-0.3-0.1-0.7-0.3-0.9c-1.6-1.5-3.6-2.5-5.7-3l0.6-0.7C58.1,29,61,24.8,61,22c0-9.5-14-12.9-14.6-13.1
	c-0.3-0.1-0.7,0-0.9,0.3L43,11.7c-0.2,0.2-0.3,0.5-0.3,0.8s0.2,0.6,0.5,0.7c2,1.1,4.4,3.7,4.4,5.3c0,1.1-0.7,2.1-1.8,2.5l-4.1-1.4
	C31.1,16.9,25,23.2,23.5,25h-7.1l-3.7-3.7c-0.1-0.1-0.3-0.2-0.5-0.3l-10-2c-0.3-0.1-0.6,0-0.8,0.2S1,19.7,1,20v4
	c0,0.3,0.1,0.5,0.3,0.7l8.3,8.4C4.8,33.8,1,38,1,43z M61,44c0,4.4-3.6,8-8,8c-4.3,0-7.8-3.4-8-7.7l2.5-2.9l10.2-3.9
	C59.8,39,61,41.4,61,44z M59.1,34.9l-1.5,0.6c-0.1,0-0.2,0.1-0.3,0.1l-7.1,2.7l4.4-5.1C56.2,33.4,57.8,34,59.1,34.9z M41.2,21.6
	l2.9,0.9l-2.8,2.8c-0.4,0.4-0.4,1,0,1.4c0.2,0.2,0.5,0.3,0.7,0.3s0.5-0.1,0.7-0.3l3.8-3.8c1.8-0.7,3.1-2.4,3.1-4.4
	c0-2.2-2.3-4.8-4.3-6.3l1.2-1.2C48.9,11.7,59,15,59,22c0,1.8-2.2,5.5-3.8,7.3L43.5,43H32.4l10.3-10.3c0.3-0.3,0.4-0.7,0.2-1.1
	s-0.5-0.6-1-0.6c-3.4,0.2-12.9,0-16-3c-0.5-0.5-0.8-1.1-0.9-1.7C26.1,24.9,31.5,19,41.2,21.6z M23.5,28h-5c-0.4,0-0.8-0.3-0.9-0.7
	L17.4,27h5.7C23.2,27.3,23.3,27.7,23.5,28z M3,23.6v-2.4l8.5,1.7l3.6,3.6l0.5,1.4c0.4,1.2,1.6,2.1,2.8,2.1h6.7
	c3.5,2.6,10.6,3,14.4,3l-10,10H20c0,0,0,0,0,0h-6.4c-0.8,0-1.5-0.7-1.5-1.5s0.7-1.5,1.5-1.5h5.6c0.3,0,0.7-0.2,0.8-0.5
	c0.2-0.3,0.2-0.7,0-1c-1.5-3-4.3-5-7.5-5.5L3,23.6z M11,35c0.3,0,0.6,0,0.8,0c0,0,0.1,0,0.1,0c2.1,0.2,4,1.3,5.3,2.9h-3.8
	c-1.9,0-3.5,1.6-3.5,3.5s1.6,3.5,3.5,3.5h5.2c-0.9,3.5-4,6-7.7,6c-4.4,0-8-3.6-8-8S6.6,35,11,35z"/>
</svg>
