<?xml version="1.0" encoding="utf-8"?>
<!-- Generator: Adobe Illustrator 19.2.1, SVG Export Plug-In . SVG Version: 6.00 Build 0)  -->
<!DOCTYPE svg PUBLIC "-//W3C//DTD SVG 1.1//EN" "http://www.w3.org/Graphics/SVG/1.1/DTD/svg11.dtd">
<svg version="1.1" id="Layer_1" xmlns="http://www.w3.org/2000/svg" xmlns:xlink="http://www.w3.org/1999/xlink" x="0px" y="0px"
	 width="48px" height="48px" viewBox="0 0 48 48" enable-background="new 0 0 48 48" xml:space="preserve">
<path d="M8,47c2.424,0,5-1.823,5-5.2c0-2.916-3.838-7.03-4.276-7.489c-0.377-0.396-1.071-0.396-1.448,0C6.838,34.77,3,38.884,3,41.8
	C3,45.177,5.576,47,8,47z M8,36.496c1.373,1.608,3,3.952,3,5.304c0,4.202-6,4.202-6,0C5,40.451,6.627,38.105,8,36.496z"/>
<path d="M4,29h8c0.552,0,1-0.448,1-1v-2c0-2.757,2.243-5,5-5h4.765c1.468,1.826,3.715,3,6.235,3s4.768-1.174,6.235-3H44
	c0.552,0,1-0.448,1-1v-8c0-0.552-0.448-1-1-1h-8.765C33.965,9.42,32.11,8.334,30,8.069V3h7c0.552,0,1-0.448,1-1s-0.448-1-1-1H21
	c-0.552,0-1,0.448-1,1s0.448,1,1,1h7v5.069C25.89,8.334,24.035,9.42,22.765,11H18C9.729,11,3,17.729,3,26v2C3,28.552,3.448,29,4,29z
	 M43,13v6h-6.589C36.788,18.073,37,17.061,37,16s-0.212-2.073-0.589-3H43z M29,10c3.309,0,6,2.691,6,6s-2.691,6-6,6s-6-2.691-6-6
	S25.691,10,29,10z M5,26c0-7.168,5.832-13,13-13h3.589C21.212,13.927,21,14.939,21,16s0.212,2.073,0.589,3H18c-3.86,0-7,3.14-7,7v1
	H5V26z"/>
</svg>
