<?xml version="1.0" encoding="utf-8"?>
<!-- Generator: Adobe Illustrator 19.2.1, SVG Export Plug-In . SVG Version: 6.00 Build 0)  -->
<!DOCTYPE svg PUBLIC "-//W3C//DTD SVG 1.1//EN" "http://www.w3.org/Graphics/SVG/1.1/DTD/svg11.dtd">
<svg version="1.1" id="Layer_1" xmlns="http://www.w3.org/2000/svg" xmlns:xlink="http://www.w3.org/1999/xlink" x="0px" y="0px"
	 width="48px" height="48px" viewBox="0 0 48 48" enable-background="new 0 0 48 48" xml:space="preserve">
<path d="M8.884,19.172c0.172,0.127,0.38,0.194,0.591,0.194c0.05,0,0.101-0.004,0.152-0.012c0.262-0.04,0.498-0.183,0.654-0.397
	C13.478,14.601,18.606,12,24,12c5.393,0,10.521,2.6,13.717,6.955c0.157,0.214,0.392,0.356,0.654,0.396
	c0.265,0.041,0.53-0.025,0.744-0.182l6.449-4.733c0.445-0.327,0.541-0.953,0.214-1.398C40.939,6.444,33.304,2.394,25.175,2.035
	C25.116,2.024,25.062,2,25,2c-0.046,0-0.085,0.02-0.129,0.026C24.58,2.017,24.291,2,24,2C15.434,2,7.291,6.128,2.219,13.042
	c-0.327,0.445-0.23,1.071,0.215,1.397L8.884,19.172z M43.558,13.427l-4.842,3.554C35.546,13.11,30.948,10.639,26,10.11V4.091
	C32.853,4.647,39.251,8.029,43.558,13.427z M24,4v6c-5.695,0-11.124,2.593-14.718,6.984l-4.843-3.553C9.163,7.507,16.401,4,24,4z"/>
<path d="M20.85,20.011c-0.463,0.07-0.815,0.454-0.847,0.921c-0.127,1.882-1.237,18.451-0.966,20.673
	c0.31,2.532,2.471,4.395,4.96,4.395c0.201,0,0.404-0.012,0.609-0.037c2.737-0.334,4.691-2.833,4.357-5.57
	c-0.275-2.251-6.34-17.97-7.031-19.754C21.763,20.202,21.317,19.943,20.85,20.011z M24.364,43.978
	c-1.64,0.205-3.141-0.972-3.342-2.615c-0.152-1.246,0.256-8.962,0.679-15.737c2.438,6.425,5.126,13.779,5.277,15.01
	C27.178,42.278,26.005,43.777,24.364,43.978z"/>
</svg>
