<?xml version="1.0" encoding="utf-8"?>
<!-- Generator: Adobe Illustrator 19.2.1, SVG Export Plug-In . SVG Version: 6.00 Build 0)  -->
<!DOCTYPE svg PUBLIC "-//W3C//DTD SVG 1.1//EN" "http://www.w3.org/Graphics/SVG/1.1/DTD/svg11.dtd">
<svg version="1.1" id="Layer_1" xmlns="http://www.w3.org/2000/svg" xmlns:xlink="http://www.w3.org/1999/xlink" x="0px" y="0px"
	 width="48px" height="48px" viewBox="0 0 48 48" enable-background="new 0 0 48 48" xml:space="preserve">
<path d="M34.421,3.496c-0.473-0.239-1.052-0.069-1.318,0.39l-7.691,13.257C24.956,17.049,24.483,17,24,17s-0.956,0.049-1.412,0.143
	L14.897,3.886c-0.267-0.459-0.845-0.629-1.318-0.39C9.599,5.52,6.314,8.633,4.081,12.5c-2.231,3.864-3.285,8.264-3.048,12.721
	c0.028,0.53,0.465,0.946,0.996,0.947l15.333,0.038c0.303,0.909,0.788,1.733,1.411,2.434l-7.637,13.303
	c-0.264,0.46-0.123,1.047,0.322,1.336C15.2,45.714,19.537,47,24,47c4.465,0,8.804-1.287,12.546-3.724
	c0.445-0.289,0.586-0.876,0.322-1.336L29.227,28.64c0.623-0.701,1.108-1.525,1.411-2.434l15.333-0.038
	c0.531-0.001,0.968-0.417,0.996-0.947c0.237-4.457-0.817-8.856-3.048-12.721C41.686,8.633,38.401,5.52,34.421,3.496z M29,24
	c0,2.757-2.243,5-5,5s-5-2.243-5-5s2.243-5,5-5S29,21.243,29,24z M3.001,24.17c-0.032-3.744,0.933-7.415,2.812-10.67
	c1.88-3.257,4.579-5.929,7.839-7.774l7.028,12.114C18.491,19.024,17,21.341,17,24c0,0.069,0.008,0.136,0.01,0.205L3.001,24.17z
	 M24,45c-3.759,0-7.421-1-10.647-2.899l6.976-12.152C21.397,30.611,22.653,31,24,31c1.347,0,2.603-0.389,3.672-1.052l6.98,12.149
	C31.424,43.999,27.761,45,24,45z M30.99,24.205C30.992,24.136,31,24.069,31,24c0-2.659-1.491-4.976-3.68-6.161l7.028-12.114
	c3.26,1.846,5.958,4.518,7.839,7.774c1.879,3.255,2.844,6.926,2.812,10.67L30.99,24.205z"/>
</svg>
