<?xml version="1.0" encoding="utf-8"?>
<!-- Generator: Adobe Illustrator 19.2.1, SVG Export Plug-In . SVG Version: 6.00 Build 0)  -->
<!DOCTYPE svg PUBLIC "-//W3C//DTD SVG 1.1//EN" "http://www.w3.org/Graphics/SVG/1.1/DTD/svg11.dtd">
<svg version="1.1" id="Layer_1" xmlns="http://www.w3.org/2000/svg" xmlns:xlink="http://www.w3.org/1999/xlink" x="0px" y="0px"
	 width="48px" height="48px" viewBox="0 0 48 48" enable-background="new 0 0 48 48" xml:space="preserve">
<path d="M41.588,28.536l-11.716-6.764c-0.266-1.272-0.939-2.393-1.873-3.231V5c0-2.206-1.794-4-4-4s-4,1.794-4,4v13.54
	c-0.933,0.838-1.607,1.959-1.873,3.231L6.412,28.536c-0.925,0.534-1.587,1.396-1.864,2.429c-0.277,1.032-0.135,2.11,0.4,3.035
	c0.534,0.926,1.396,1.587,2.429,1.863c0.344,0.093,0.694,0.139,1.042,0.139c0.693,0,1.377-0.183,1.994-0.538l10.145-5.856
	l-1.552,16.298c-0.052,0.55,0.351,1.038,0.901,1.09C19.938,46.999,19.969,47,20.001,47c0.51,0,0.945-0.388,0.995-0.905l1.643-17.256
	C23.077,28.94,23.531,29,24,29s0.923-0.06,1.361-0.162l1.643,17.256C27.054,46.612,27.489,47,27.999,47
	c0.032,0,0.063-0.001,0.096-0.005c0.55-0.052,0.953-0.54,0.901-1.09l-1.552-16.298l10.144,5.856
	c0.617,0.355,1.301,0.538,1.994,0.538c0.348,0,0.697-0.046,1.042-0.139c1.032-0.276,1.895-0.938,2.429-1.863
	c0.535-0.925,0.677-2.003,0.4-3.035C43.176,29.933,42.514,29.07,41.588,28.536z M22,5c0-1.103,0.897-2,2-2s2,0.897,2,2v12.35
	C25.373,17.128,24.702,17,24,17s-1.373,0.128-2,0.35V5z M9.411,33.731c-0.462,0.268-1.001,0.337-1.517,0.2
	C7.378,33.794,6.947,33.463,6.679,33c-0.267-0.463-0.338-1.001-0.2-1.518c0.138-0.516,0.469-0.947,0.932-1.214l10.693-6.174
	c0.255,1.376,0.979,2.587,2.002,3.462L9.411,33.731z M20,23c0-2.206,1.794-4,4-4s4,1.794,4,4s-1.794,4-4,4S20,25.206,20,23z
	 M41.321,33c-0.268,0.463-0.699,0.794-1.215,0.932c-0.516,0.138-1.055,0.068-1.518-0.2l-10.696-6.174
	c1.023-0.875,1.747-2.086,2.002-3.462l10.693,6.174c0.463,0.267,0.794,0.698,0.932,1.214C41.659,31.999,41.588,32.537,41.321,33z"/>
<path d="M8.032,23c0.524,0,0.964-0.408,0.997-0.938c0.287-4.651,2.668-8.831,6.534-11.466c0.457-0.311,0.574-0.933,0.263-1.39
	c-0.31-0.456-0.933-0.573-1.389-0.263c-4.38,2.985-7.079,7.722-7.404,12.995c-0.034,0.551,0.385,1.025,0.937,1.06
	C7.99,22.999,8.011,23,8.032,23z"/>
<path d="M38.971,22.062C39.004,22.592,39.444,23,39.968,23c0.021,0,0.042-0.001,0.062-0.002c0.551-0.034,0.971-0.509,0.937-1.06
	c-0.325-5.273-3.023-10.01-7.404-12.995c-0.457-0.311-1.079-0.193-1.389,0.263c-0.311,0.457-0.193,1.079,0.263,1.39
	C36.303,13.23,38.684,17.41,38.971,22.062z"/>
</svg>
