<?xml version="1.0" encoding="utf-8"?>
<!-- Generator: Adobe Illustrator 19.2.1, SVG Export Plug-In . SVG Version: 6.00 Build 0)  -->
<!DOCTYPE svg PUBLIC "-//W3C//DTD SVG 1.1//EN" "http://www.w3.org/Graphics/SVG/1.1/DTD/svg11.dtd">
<svg version="1.1" id="Layer_1" xmlns="http://www.w3.org/2000/svg" xmlns:xlink="http://www.w3.org/1999/xlink" x="0px" y="0px"
	 width="48px" height="48px" viewBox="0 0 48 48" enable-background="new 0 0 48 48" xml:space="preserve">
<path d="M39.567,29.02c-0.293-0.469-0.91-0.611-1.378-0.317c-0.469,0.292-0.611,0.909-0.318,1.378L42.196,37H24.414l4.293-4.293
	c0.391-0.391,0.391-1.023,0-1.414s-1.023-0.391-1.414,0l-5.999,5.999c-0.093,0.092-0.166,0.203-0.217,0.326
	c-0.101,0.244-0.101,0.52,0,0.764c0.051,0.123,0.124,0.233,0.217,0.326l5.999,5.999C27.488,44.902,27.744,45,28,45
	s0.512-0.098,0.707-0.293c0.391-0.391,0.391-1.023,0-1.414L24.414,39H44c0.363,0,0.698-0.197,0.875-0.516
	c0.176-0.317,0.166-0.706-0.026-1.015L39.567,29.02z"/>
<path d="M32.645,21.777l-5.717-1.283c-0.535-0.12-1.074,0.218-1.194,0.757c-0.121,0.539,0.218,1.073,0.757,1.194l8.046,1.806
	c0.072,0.017,0.146,0.024,0.219,0.024c0,0,0,0,0,0s0,0,0,0c0.091,0,0.183-0.013,0.273-0.039c0.052-0.015,0.099-0.043,0.149-0.066
	c0.035-0.017,0.072-0.026,0.106-0.047c0.001,0,0.001-0.001,0.002-0.002c0.002-0.001,0.004-0.001,0.005-0.002
	c0.1-0.063,0.18-0.147,0.251-0.239c0.089-0.116,0.156-0.244,0.188-0.384c0-0.001,0.001-0.002,0.001-0.003l1.805-8.047
	c0.121-0.539-0.218-1.073-0.757-1.194c-0.536-0.117-1.074,0.218-1.194,0.757l-1.271,5.665L24.849,5.472
	C24.667,5.179,24.346,5,24.001,5C24,5,24,5,24,5c-0.345,0-0.665,0.178-0.848,0.47l-4.986,7.978c-0.292,0.469-0.15,1.086,0.318,1.378
	c0.467,0.295,1.085,0.151,1.378-0.317l4.136-6.618L32.645,21.777z"/>
<path d="M16.279,19.758c-0.012-0.046-0.042-0.081-0.059-0.124c-0.03-0.075-0.056-0.152-0.104-0.219
	c-0.052-0.072-0.12-0.124-0.188-0.179c-0.032-0.026-0.052-0.061-0.087-0.083c-0.003-0.002-0.006-0.002-0.008-0.003
	c-0.102-0.063-0.217-0.104-0.336-0.127c-0.01-0.002-0.018-0.008-0.028-0.01c-0.048-0.008-0.099,0.005-0.148,0.005
	c-0.082-0.001-0.163-0.007-0.242,0.011c-0.004,0.001-0.008,0-0.012,0.001l-8,2c-0.536,0.134-0.861,0.677-0.728,1.212
	c0.135,0.537,0.68,0.864,1.213,0.728l5.588-1.396L3.153,37.468c-0.194,0.309-0.205,0.697-0.028,1.016C3.301,38.803,3.636,39,4,39h10
	c0.552,0,1-0.447,1-1s-0.448-1-1-1H5.809l9.098-14.482l1.431,5.724C16.452,28.697,16.86,29,17.308,29c0.081,0,0.162-0.01,0.244-0.03
	c0.536-0.134,0.861-0.677,0.728-1.212L16.279,19.758z"/>
</svg>
