<?xml version="1.0" encoding="utf-8"?>
<!-- Generator: Adobe Illustrator 19.1.0, SVG Export Plug-In . SVG Version: 6.00 Build 0)  -->
<!DOCTYPE svg PUBLIC "-//W3C//DTD SVG 1.1//EN" "http://www.w3.org/Graphics/SVG/1.1/DTD/svg11.dtd">
<svg version="1.1" id="Layer_1" xmlns="http://www.w3.org/2000/svg" xmlns:xlink="http://www.w3.org/1999/xlink" x="0px" y="0px"
	 width="48px" height="48px" viewBox="0 0 48 48" enable-background="new 0 0 48 48" xml:space="preserve">
<path d="M7,24.7V46c0,0.6,0.4,1,1,1h12c0.6,0,1-0.4,1-1v-9h6v9c0,0.6,0.4,1,1,1h12c0.6,0,1-0.4,1-1V24.7c2.2-0.8,4-2.9,4-6.7
	c0-0.2,0-0.3-0.1-0.4l-8-16C36.7,1.2,36.4,1,36,1H12c-0.4,0-0.7,0.2-0.9,0.6l-8,16C3,17.7,3,17.8,3,18C3,21.7,4.8,23.9,7,24.7z
	 M39,45H29v-9c0-0.6-0.4-1-1-1h-8c-0.6,0-1,0.4-1,1v9H9V25c2.1,0,3.9-1,5-2.6c1.1,1.6,2.9,2.6,5,2.6s3.9-1,5-2.6
	c1.1,1.6,2.9,2.6,5,2.6s3.9-1,5-2.6c1.1,1.6,2.9,2.6,5,2.6V45z M12.6,3h22.8L43,18.2c-0.1,2.9-1.6,4.8-4,4.8c-2.2,0-4-1.8-4-4
	c0-0.6-0.4-1-1-1s-1,0.4-1,1c0,2.2-1.8,4-4,4s-4-1.8-4-4c0-0.6-0.4-1-1-1s-1,0.4-1,1c0,2.2-1.8,4-4,4s-4-1.8-4-4c0-0.6-0.4-1-1-1
	s-1,0.4-1,1c0,2.2-1.8,4-4,4c-2.4,0-3.9-1.8-4-4.8L12.6,3z"/>
</svg>
