<?xml version="1.0" encoding="utf-8"?>
<!-- Generator: Adobe Illustrator 19.1.0, SVG Export Plug-In . SVG Version: 6.00 Build 0)  -->
<!DOCTYPE svg PUBLIC "-//W3C//DTD SVG 1.1//EN" "http://www.w3.org/Graphics/SVG/1.1/DTD/svg11.dtd">
<svg version="1.1" id="Layer_1" xmlns="http://www.w3.org/2000/svg" xmlns:xlink="http://www.w3.org/1999/xlink" x="0px" y="0px"
	 width="48px" height="48px" viewBox="0 0 48 48" enable-background="new 0 0 48 48" xml:space="preserve">
<path d="M2,41c0,1.3,0.5,2.6,1.5,3.5C4.4,45.5,5.7,46,7,46c1.3,0,2.6-0.5,3.5-1.5l3.7-3.7c0.4,0.2,0.8,0.3,1.3,0.3
	c0.8,0,1.6-0.3,2.1-0.9l22.6-22.6c0.6-0.6,0.9-1.3,0.9-2.1c0-0.5-0.1-0.9-0.3-1.3l3.7-3.7C45.5,9.6,46,8.4,46,7
	c0-1.3-0.5-2.6-1.5-3.5C43.6,2.5,42.3,2,41,2c-1.3,0-2.6,0.5-3.5,1.5l-3.7,3.7c-1.1-0.5-2.5-0.3-3.4,0.6L7.7,30.4
	c-0.6,0.6-0.9,1.3-0.9,2.1c0,0.5,0.1,0.9,0.3,1.3l-3.7,3.7C2.5,38.4,2,39.6,2,41z M38.8,4.9c1.1-1.1,3.1-1.1,4.2,0
	C43.7,5.5,44,6.2,44,7c0,0.8-0.3,1.6-0.9,2.1l-3.5,3.5l-4.2-4.2L38.8,4.9z M9.2,31.8L31.8,9.2C32,9,32.2,8.9,32.5,8.9S33,9,33.2,9.2
	l5.7,5.7c0.2,0.2,0.3,0.4,0.3,0.7S39,16,38.8,16.2L16.2,38.8c-0.4,0.4-1,0.4-1.4,0c0,0,0,0,0,0l-5.7-5.7C9,33,8.9,32.8,8.9,32.5
	S9,32,9.2,31.8z M4.9,38.8l3.5-3.5l4.2,4.2l-3.5,3.5c-1.1,1.1-3.1,1.1-4.2,0C4.3,42.5,4,41.8,4,41C4,40.2,4.3,39.4,4.9,38.8z"/>
</svg>
