<?xml version="1.0" encoding="utf-8"?>
<!-- Generator: Adobe Illustrator 19.1.0, SVG Export Plug-In . SVG Version: 6.00 Build 0)  -->
<!DOCTYPE svg PUBLIC "-//W3C//DTD SVG 1.1//EN" "http://www.w3.org/Graphics/SVG/1.1/DTD/svg11.dtd">
<svg version="1.1" id="Layer_1" xmlns="http://www.w3.org/2000/svg" xmlns:xlink="http://www.w3.org/1999/xlink" x="0px" y="0px"
	 width="48px" height="48px" viewBox="0 0 48 48" enable-background="new 0 0 48 48" xml:space="preserve">
<path d="M24,35c3.9,0,7-3.1,7-7s-3.1-7-7-7s-7,3.1-7,7S20.1,35,24,35z M24,23c2.8,0,5,2.2,5,5s-2.2,5-5,5s-5-2.2-5-5S21.2,23,24,23z
	"/>
<path d="M3,12c0,0.6,0.4,1,1,1h3.1L11,46.1c0.1,0.5,0.5,0.9,1,0.9h24c0.5,0,0.9-0.4,1-0.9L40.9,13H44c0.6,0,1-0.4,1-1V6
	c0-0.6-0.4-1-1-1h-9.4l-1.7-3.4C32.7,1.2,32.4,1,32,1H16c-0.4,0-0.7,0.2-0.9,0.6L13.4,5H4C3.4,5,3,5.4,3,6V12z M35.1,45H12.9L9.1,13
	h29.8L35.1,45z M5,7h9c0.4,0,0.7-0.2,0.9-0.6L16.6,3h14.8l1.7,3.4C33.3,6.8,33.6,7,34,7h9v4H5V7z"/>
</svg>
