<?xml version="1.0" encoding="utf-8"?>
<!-- Generator: Adobe Illustrator 19.1.0, SVG Export Plug-In . SVG Version: 6.00 Build 0)  -->
<!DOCTYPE svg PUBLIC "-//W3C//DTD SVG 1.1//EN" "http://www.w3.org/Graphics/SVG/1.1/DTD/svg11.dtd">
<svg version="1.1" id="Layer_1" xmlns="http://www.w3.org/2000/svg" xmlns:xlink="http://www.w3.org/1999/xlink" x="0px" y="0px"
	 width="48px" height="48px" viewBox="0 0 48 48" enable-background="new 0 0 48 48" xml:space="preserve">
<path d="M26,1h-6c-0.6,0-1,0.4-1,1v5H6C5.6,7,5.3,7.2,5.1,7.6S5,8.3,5.2,8.6l5.9,7.8L13,26L7,45.7C7,46,7,46.3,7.2,46.6
	C7.4,46.9,7.7,47,8,47h30c0.3,0,0.6-0.1,0.8-0.4C39,46.3,39,46,39,45.7L33,26l1.1-5H38c2.8,0,5-2.2,5-5V8c0-0.6-0.4-1-1-1h-6h-9V2
	C27,1.4,26.6,1,26,1z M21,3h4v4h-4V3z M36.7,45H9.3l5.4-18h16.5L36.7,45z M41,16c0,1.7-1.3,3-3,3h-3.4l2.2-10H41V16z M31.2,25H14.8
	L13,15.8c0-0.1-0.1-0.3-0.2-0.4L8,9h26.8L31.2,25z"/>
</svg>
