<?xml version="1.0" encoding="utf-8"?>
<!-- Generator: Adobe Illustrator 19.1.0, SVG Export Plug-In . SVG Version: 6.00 Build 0)  -->
<!DOCTYPE svg PUBLIC "-//W3C//DTD SVG 1.1//EN" "http://www.w3.org/Graphics/SVG/1.1/DTD/svg11.dtd">
<svg version="1.1" id="Layer_1" xmlns="http://www.w3.org/2000/svg" xmlns:xlink="http://www.w3.org/1999/xlink" x="0px" y="0px"
	 width="48px" height="48px" viewBox="0 0 48 48" enable-background="new 0 0 48 48" xml:space="preserve">
<path d="M24,1C15.5,1,8.2,4.8,5.1,10.9c-4.4,8.5-0.8,12.9,2.3,16.7c1.7,2.1,3.3,4,3.6,6.5C12.2,44.9,16.7,47,24,47
	c12.7,0,23-10.3,23-23S36.7,1,24,1z M24,45c-5.5,0-9.8-0.8-11-11.1c-0.4-3.1-2.2-5.3-4-7.5c-3-3.7-5.9-7.2-2.1-14.6
	C9.6,6.5,16.4,3,24,3c11.6,0,21,9.4,21,21S35.6,45,24,45z"/>
<path d="M27,11c-4.4,0-8,3.6-8,8s3.6,8,8,8s8-3.6,8-8S31.4,11,27,11z M27,25c-3.3,0-6-2.7-6-6s2.7-6,6-6s6,2.7,6,6S30.3,25,27,25z"
	/>
</svg>
