<?xml version="1.0" encoding="utf-8"?>
<!-- Generator: Adobe Illustrator 19.1.0, SVG Export Plug-In . SVG Version: 6.00 Build 0)  -->
<!DOCTYPE svg PUBLIC "-//W3C//DTD SVG 1.1//EN" "http://www.w3.org/Graphics/SVG/1.1/DTD/svg11.dtd">
<svg version="1.1" id="Layer_1" xmlns="http://www.w3.org/2000/svg" xmlns:xlink="http://www.w3.org/1999/xlink" x="0px" y="0px"
	 width="48px" height="48px" viewBox="0 0 48 48" enable-background="new 0 0 48 48" xml:space="preserve">
<path d="M14,25c-2.8,0-5,2.2-5,5s2.2,5,5,5s5-2.2,5-5S16.8,25,14,25z M14,33c-1.7,0-3-1.3-3-3s1.3-3,3-3s3,1.3,3,3S15.7,33,14,33z"
	/>
<path d="M28,27c-1.7,0-3,1.3-3,3s1.3,3,3,3s3-1.3,3-3S29.7,27,28,27z M28,31c-0.6,0-1-0.4-1-1s0.4-1,1-1s1,0.4,1,1S28.6,31,28,31z"
	/>
<path d="M46.9,17.6c0-0.1-0.1-0.1-0.1-0.2c0,0,0-0.1-0.1-0.1c-0.1-0.1-0.2-0.1-0.3-0.2l0,0c0,0,0,0,0,0l-28-12C18.3,5,18.1,5,18,5
	C12.4,5,7.8,6.5,4.7,9.5C2.4,11.8,1,14.9,1,18v24c0,0.6,0.4,1,1,1h44c0.6,0,1-0.4,1-1v-6c0-0.6-0.4-1-1-1c-2.8,0-5-2.2-5-5
	s2.2-5,5-5c0.6,0,1-0.4,1-1v-6C47,17.9,47,17.8,46.9,17.6C46.9,17.6,46.9,17.6,46.9,17.6z M17.8,7l23.3,10H3.1
	C3.5,12.9,7,7.1,17.8,7z M39,30c0,3.5,2.6,6.4,6,6.9V41H3V19h42v4.1C41.6,23.6,39,26.5,39,30z"/>
</svg>
