<?xml version="1.0" encoding="utf-8"?>
<!-- Generator: Adobe Illustrator 19.1.0, SVG Export Plug-In . SVG Version: 6.00 Build 0)  -->
<!DOCTYPE svg PUBLIC "-//W3C//DTD SVG 1.1//EN" "http://www.w3.org/Graphics/SVG/1.1/DTD/svg11.dtd">
<svg version="1.1" id="Layer_1" xmlns="http://www.w3.org/2000/svg" xmlns:xlink="http://www.w3.org/1999/xlink" x="0px" y="0px"
	 width="48px" height="48px" viewBox="0 0 48 48" enable-background="new 0 0 48 48" xml:space="preserve">
<path d="M24,47c9.7,0,18-6,21.4-14.5c0,0,0-0.1,0-0.1c1-2.6,1.6-5.4,1.6-8.4C47,11.3,36.7,1,24,1S1,11.3,1,24S11.3,47,24,47z M24,45
	C13.1,45,4.2,36.7,3.1,26.1c1.7,1.1,3.7,1.7,5.9,1.7c2.1,0,4.2-0.6,6.2-1.9c0.9,4.1,4.5,7.1,8.8,7.1c4,0,7.4-2.7,8.6-6.3
	c2,2.6,5.1,5.2,10.4,6.1C39.7,40,32.4,45,24,45z M17,24c0-3.9,3.1-7,7-7s7,3.1,7,7s-3.1,7-7,7S17,27.9,17,24z M11.6,7.1l1.6,1.6
	C13.5,8.9,13.7,9,14,9s0.5-0.1,0.7-0.3c0.4-0.4,0.4-1,0-1.4l-1.4-1.4C16.5,4.1,20.1,3,24,3c9.1,0,16.9,5.9,19.8,14
	c-0.2,0-0.4,0.1-0.5,0.3l-2,2c-0.4,0.4-0.4,1,0,1.4c0.2,0.2,0.5,0.3,0.7,0.3s0.5-0.1,0.7-0.3l1.7-1.7c0.4,1.6,0.6,3.3,0.6,5
	c0,2.4-0.4,4.7-1.2,6.9c-6.2-0.9-9-4.1-10.8-7.2c-0.2-4.8-4.1-8.7-9-8.7c-4.8,0-8.7,3.8-9,8.5c-4,3.4-9.1,2.7-12,0.1
	C3.2,16.8,6.5,10.8,11.6,7.1z"/>
<path d="M35.3,14.7c0.2,0.2,0.5,0.3,0.7,0.3s0.5-0.1,0.7-0.3c0.4-0.4,0.4-1,0-1.4l-2-2c-0.4-0.4-1-0.4-1.4,0s-0.4,1,0,1.4L35.3,14.7
	z"/>
<path d="M22,11c0.3,0,0.5-0.1,0.7-0.3l2-2c0.4-0.4,0.4-1,0-1.4s-1-0.4-1.4,0l-2,2c-0.4,0.4-0.4,1,0,1.4C21.5,10.9,21.7,11,22,11z"/>
<path d="M10,19c0.3,0,0.5-0.1,0.7-0.3l2-2c0.4-0.4,0.4-1,0-1.4s-1-0.4-1.4,0l-2,2c-0.4,0.4-0.4,1,0,1.4C9.5,18.9,9.7,19,10,19z"/>
</svg>
