<?xml version="1.0" encoding="utf-8"?>
<!-- Generator: Adobe Illustrator 19.1.0, SVG Export Plug-In . SVG Version: 6.00 Build 0)  -->
<!DOCTYPE svg PUBLIC "-//W3C//DTD SVG 1.1//EN" "http://www.w3.org/Graphics/SVG/1.1/DTD/svg11.dtd">
<svg version="1.1" id="Layer_1" xmlns="http://www.w3.org/2000/svg" xmlns:xlink="http://www.w3.org/1999/xlink" x="0px" y="0px"
	 width="48px" height="48px" viewBox="0 0 48 48" enable-background="new 0 0 48 48" xml:space="preserve">
<path d="M37.2,2.3c-0.4-0.4-1-0.4-1.4,0l-4,4c-4.7,4.7-5,9.6-5.3,13.2c-0.2,2.9-0.4,3.8-1.8,5.2c-1.4,1.4-2.3,1.5-5,1.6
	c-3.6,0.2-8.6,0.6-13.4,5.4l-4.1,4.1c-0.4,0.4-0.4,1,0,1.4l8.5,8.5c0.2,0.2,0.4,0.3,0.7,0.3s0.5-0.1,0.7-0.3l4.1-4.1
	c1.1-1.1,1.6-1.2,4.4-1.4c3.5-0.2,8.8-0.6,13.9-5.7c5.1-5.1,5.5-10.5,5.8-14.1c0.2-2.7,0.3-3.4,1.3-4.3l4-4c0.2-0.2,0.3-0.4,0.3-0.7
	s-0.1-0.5-0.3-0.7L37.2,2.3z M40.3,14.7c-1.5,1.5-1.6,2.8-1.8,5.6c-0.2,3.3-0.6,8.2-5.2,12.8c-4.6,4.6-9.4,4.9-12.7,5.1
	c-2.9,0.2-4.1,0.3-5.7,1.9l-3.4,3.4l-7.1-7.1l3.4-3.4c4.3-4.3,8.8-4.6,12.2-4.8c2.8-0.2,4.3-0.3,6.2-2.2c1.9-1.9,2.1-3.5,2.3-6.5
	c0.2-3.3,0.6-7.7,4.7-11.9l3.3-3.3l7.1,7.1L40.3,14.7z"/>
</svg>
