<?xml version="1.0" encoding="utf-8"?>
<!-- Generator: Adobe Illustrator 19.1.0, SVG Export Plug-In . SVG Version: 6.00 Build 0)  -->
<!DOCTYPE svg PUBLIC "-//W3C//DTD SVG 1.1//EN" "http://www.w3.org/Graphics/SVG/1.1/DTD/svg11.dtd">
<svg version="1.1" id="Layer_1" xmlns="http://www.w3.org/2000/svg" xmlns:xlink="http://www.w3.org/1999/xlink" x="0px" y="0px"
	 width="48px" height="48px" viewBox="0 0 48 48" enable-background="new 0 0 48 48" xml:space="preserve">
<path d="M8.5,45c1,0,2.1-0.4,2.9-1.3c1.8-1.8,3.1-5.9,2.4-8l8.8-8.8c1,0.7,2.1,1,3.2,1c1.2,0,2.3-0.4,3.4-1.1l13.6-10
	c1.3-1,2.2-2.5,2.3-4.1c0.1-1.6-0.5-3.3-1.6-4.4l-1.8-1.8c0,0,0,0,0,0s0,0,0,0l-1.8-1.8c-1.2-1.2-2.8-1.8-4.4-1.6
	c-1.6,0.1-3.2,1-4.1,2.3l-10,13.6c-1.5,2-1.5,4.6-0.1,6.6l-8.7,8.7c-2.2-0.7-6.3,0.6-8,2.4c-1.9,1.9-1.7,4.4,0.5,6.6
	C5.9,44.4,7.2,45,8.5,45z M43,12.6c-0.1,1.1-0.6,2-1.5,2.7l-13.6,10c-1.2,0.9-2.7,0.9-3.9,0.2L40.8,8.6l1.1,1.1
	C42.7,10.5,43.1,11.5,43,12.6z M22.8,20.1l10-13.6c0.6-0.9,1.6-1.4,2.7-1.5c0.1,0,0.2,0,0.3,0c1,0,1.9,0.4,2.6,1.1l1.1,1.1L22.6,24
	C21.9,22.8,21.9,21.3,22.8,20.1z M5.7,38.1c1.4-1.4,4.1-2,5.4-2c0.3,0,0.6,0,0.7,0.1c0.4,0.7-0.2,4.4-1.9,6.2
	c-1.4,1.4-3,0.3-3.8-0.5C4.1,39.7,5.3,38.5,5.7,38.1z"/>
</svg>
