<?xml version="1.0" encoding="utf-8"?>
<!-- Generator: Adobe Illustrator 19.1.0, SVG Export Plug-In . SVG Version: 6.00 Build 0)  -->
<!DOCTYPE svg PUBLIC "-//W3C//DTD SVG 1.1//EN" "http://www.w3.org/Graphics/SVG/1.1/DTD/svg11.dtd">
<svg version="1.1" id="Layer_1" xmlns="http://www.w3.org/2000/svg" xmlns:xlink="http://www.w3.org/1999/xlink" x="0px" y="0px"
	 width="48px" height="48px" viewBox="0 0 48 48" enable-background="new 0 0 48 48" xml:space="preserve">
<path d="M30,17H18c-0.6,0-1,0.4-1,1v6c0,3.5,2.6,6.4,6,6.9V37h-3c-0.6,0-1,0.4-1,1s0.4,1,1,1h8c0.6,0,1-0.4,1-1s-0.4-1-1-1h-3v-6.1
	c3.4-0.5,6-3.4,6-6.9v-6C31,17.4,30.6,17,30,17z M29,24c0,2.8-2.2,5-5,5s-5-2.2-5-5v-5h10V24z"/>
<path d="M46,1H2C1.4,1,1,1.4,1,2v44c0,0.6,0.4,1,1,1h44c0.6,0,1-0.4,1-1V2C47,1.4,46.6,1,46,1z M45,9h-6V3h6V9z M37,3v6H3V3H37z
	 M3,45V11h42v34H3z"/>
</svg>
