<?xml version="1.0" encoding="utf-8"?>
<!-- Generator: Adobe Illustrator 19.1.0, SVG Export Plug-In . SVG Version: 6.00 Build 0)  -->
<!DOCTYPE svg PUBLIC "-//W3C//DTD SVG 1.1//EN" "http://www.w3.org/Graphics/SVG/1.1/DTD/svg11.dtd">
<svg version="1.1" id="Layer_1" xmlns="http://www.w3.org/2000/svg" xmlns:xlink="http://www.w3.org/1999/xlink" x="0px" y="0px"
	 width="48px" height="48px" viewBox="0 0 48 48" enable-background="new 0 0 48 48" xml:space="preserve">
<path d="M13.2,12.2c-2.8,0-4.2,2.2-4.2,4.3c0,2.3,2.2,4.7,4.6,5.2c0.4,0.1,0.8,0.1,1.2,0.1c1.8,0,3.8-0.8,5-1.7
	c1-0.8,1.2-1.6,1.2-2.2C21,15,15.7,12.2,13.2,12.2z M18.5,18.6c-1.1,0.9-3.2,1.4-4.5,1.2c-1.7-0.4-3-2.1-3-3.3
	c0-1.1,0.6-2.3,2.2-2.3c2,0,5.8,2.5,5.8,3.8C19,18.1,18.9,18.3,18.5,18.6z"/>
<path d="M34,15c-4.1,0-6.1-1.9-8.3-4.1C22.8,8.1,19.6,5,12,5C5.7,5,1,9.7,1,16v10c0,6.6,6.2,17,23,17c15.6,0,23-0.9,23-9V24
	C47,18.6,40.3,15,34,15z M45,34c0,5.6-4.1,7-21,7C8.7,41,3,31.8,3,26v-3.1C6,28.1,12.5,33,24,33c11,0,17.9-0.4,21-3.5V34z M24,31
	C8.7,31,3,21.8,3,16c0-5.1,3.9-9,9-9c6.8,0,9.6,2.7,12.3,5.3c2.4,2.3,4.8,4.7,9.7,4.7c5.9,0,11,3.3,11,7C45,29.6,40.9,31,24,31z"/>
</svg>
