<?xml version="1.0" encoding="utf-8"?>
<!-- Generator: Adobe Illustrator 19.1.0, SVG Export Plug-In . SVG Version: 6.00 Build 0)  -->
<!DOCTYPE svg PUBLIC "-//W3C//DTD SVG 1.1//EN" "http://www.w3.org/Graphics/SVG/1.1/DTD/svg11.dtd">
<svg version="1.1" id="Layer_1" xmlns="http://www.w3.org/2000/svg" xmlns:xlink="http://www.w3.org/1999/xlink" x="0px" y="0px"
	 width="48px" height="48px" viewBox="0 0 48 48" enable-background="new 0 0 48 48" xml:space="preserve">
<path d="M23.2,3.4C22.5,4.4,19,9.6,19,12c0,2.8,2.2,5,5,5s5-2.2,5-5c0-2.4-3.5-7.6-4.2-8.6C24.4,2.9,23.6,2.9,23.2,3.4z M27,12
	c0,1.7-1.3,3-3,3s-3-1.3-3-3c0-1.1,1.6-3.9,3-6.2C25.4,8.1,27,10.9,27,12z"/>
<path d="M38,47c0.6,0,1-0.4,1-1s-0.4-1-1-1h-7V22c0-0.6-0.4-1-1-1H18c-0.6,0-1,0.4-1,1v23h-7c-0.6,0-1,0.4-1,1s0.4,1,1,1H38z M19,23
	h10v22H19V23z"/>
</svg>
