<?xml version="1.0" encoding="utf-8"?>
<!-- Generator: Adobe Illustrator 19.1.0, SVG Export Plug-In . SVG Version: 6.00 Build 0)  -->
<!DOCTYPE svg PUBLIC "-//W3C//DTD SVG 1.1//EN" "http://www.w3.org/Graphics/SVG/1.1/DTD/svg11.dtd">
<svg version="1.1" id="Layer_1" xmlns="http://www.w3.org/2000/svg" xmlns:xlink="http://www.w3.org/1999/xlink" x="0px" y="0px"
	 width="48px" height="48px" viewBox="0 0 48 48" enable-background="new 0 0 48 48" xml:space="preserve">
<path d="M21,8V2c0-0.6-0.4-1-1-1s-1,0.4-1,1v6c0,0.6,0.4,1,1,1S21,8.6,21,8z"/>
<path d="M13,8V2c0-0.6-0.4-1-1-1s-1,0.4-1,1v6c0,0.6,0.4,1,1,1S13,8.6,13,8z"/>
<path d="M29,8V2c0-0.6-0.4-1-1-1s-1,0.4-1,1v6c0,0.6,0.4,1,1,1S29,8.6,29,8z"/>
<path d="M46,15h-8H2c-0.6,0-1,0.4-1,1v24c0,3.9,3.1,7,7,7h24c3.9,0,7-3.1,7-7V23h7c0.6,0,1-0.4,1-1v-6C47,15.4,46.6,15,46,15z
	 M37,17v8H3v-8H37z M32,45H8c-2.8,0-5-2.2-5-5V27h34v13C37,42.8,34.8,45,32,45z M45,21h-6v-4h6V21z"/>
</svg>
