<?xml version="1.0" encoding="utf-8"?>
<!-- Generator: Adobe Illustrator 19.1.0, SVG Export Plug-In . SVG Version: 6.00 Build 0)  -->
<!DOCTYPE svg PUBLIC "-//W3C//DTD SVG 1.1//EN" "http://www.w3.org/Graphics/SVG/1.1/DTD/svg11.dtd">
<svg version="1.1" id="Layer_1" xmlns="http://www.w3.org/2000/svg" xmlns:xlink="http://www.w3.org/1999/xlink" x="0px" y="0px"
	 width="48px" height="48px" viewBox="0 0 48 48" enable-background="new 0 0 48 48" xml:space="preserve">
<path d="M4.9,45.4c1,1,2.3,1.5,3.5,1.5c1.3,0,2.6-0.5,3.5-1.5l7.1-7.1l25.5-25.5c0.2-0.2,0.3-0.4,0.3-0.7s-0.1-0.5-0.3-0.7l-7.1-7.1
	c-4.3-4.3-11.3-4.3-15.6,0L3.5,22.8c-0.4,0.4-0.4,1,0,1.4l7.8,7.8l-6.4,6.4C3,40.3,3,43.4,4.9,45.4z M23.3,5.8
	c3.5-3.5,9.2-3.5,12.7,0l6.4,6.4l-24,24L5.6,23.5L23.3,5.8z M6.3,39.7l6.4-6.4l4.2,4.2L10.6,44c-1.2,1.2-3.1,1.2-4.2,0
	C5.2,42.8,5.2,40.9,6.3,39.7z"/>
<path d="M18.3,27.3c0.3,0,0.5-0.1,0.7-0.3l9.9-9.9c0.4-0.4,0.4-1,0-1.4s-1-0.4-1.4,0l-9.9,9.9c-0.4,0.4-0.4,1,0,1.4
	C17.8,27.2,18.1,27.3,18.3,27.3z"/>
</svg>
