<?xml version="1.0" encoding="utf-8"?>
<!-- Generator: Adobe Illustrator 19.1.0, SVG Export Plug-In . SVG Version: 6.00 Build 0)  -->
<!DOCTYPE svg PUBLIC "-//W3C//DTD SVG 1.1//EN" "http://www.w3.org/Graphics/SVG/1.1/DTD/svg11.dtd">
<svg version="1.1" id="Layer_1" xmlns="http://www.w3.org/2000/svg" xmlns:xlink="http://www.w3.org/1999/xlink" x="0px" y="0px"
	 width="48px" height="48px" viewBox="0 0 48 48" enable-background="new 0 0 48 48" xml:space="preserve">
<path d="M17,8v8c0,0.6,0.4,1,1,1s1-0.4,1-1V8c0-0.6-0.4-1-1-1S17,7.4,17,8z"/>
<path d="M7,14v8c0,0.6,0.4,1,1,1s1-0.4,1-1v-8c0-0.6-0.4-1-1-1S7,13.4,7,14z"/>
<path d="M27,14v8c0,0.6,0.4,1,1,1s1-0.4,1-1v-8c0-0.6-0.4-1-1-1S27,13.4,27,14z"/>
<path d="M6,41h26c2.4,0,4.4-1.7,4.9-4H46c0.6,0,1-0.4,1-1v-6c0-0.6-0.4-1-1-1H36H2c-0.6,0-1,0.4-1,1v6C1,38.8,3.2,41,6,41z M45,35
	h-8v-4h8V35z M3,31h32v5c0,1.7-1.3,3-3,3H6c-1.7,0-3-1.3-3-3V31z"/>
</svg>
