<?xml version="1.0" encoding="utf-8"?>
<!-- Generator: Adobe Illustrator 19.1.0, SVG Export Plug-In . SVG Version: 6.00 Build 0)  -->
<!DOCTYPE svg PUBLIC "-//W3C//DTD SVG 1.1//EN" "http://www.w3.org/Graphics/SVG/1.1/DTD/svg11.dtd">
<svg version="1.1" id="Layer_1" xmlns="http://www.w3.org/2000/svg" xmlns:xlink="http://www.w3.org/1999/xlink" x="0px" y="0px"
	 width="48px" height="48px" viewBox="0 0 48 48" enable-background="new 0 0 48 48" xml:space="preserve">
<path d="M27,34c2.2,0,4-1.8,4-4s-1.8-4-4-4s-4,1.8-4,4S24.8,34,27,34z M27,28c1.1,0,2,0.9,2,2s-0.9,2-2,2s-2-0.9-2-2S25.9,28,27,28z
	"/>
<path d="M23.1,5.5l-18.3,36c-0.1,0.2-0.1,0.5-0.1,0.8c0.1,0.3,0.3,0.5,0.5,0.6C11.2,45.6,17.5,47,24,47s12.8-1.4,18.7-4.1
	c0.2-0.1,0.4-0.3,0.5-0.6c0.1-0.3,0.1-0.5-0.1-0.8l-18.3-36C24.6,4.9,23.4,4.9,23.1,5.5z M24,8.2l13.8,27.1C33.4,37,28.5,38,24,38
	c-4.4,0-9.3-1-13.8-2.7l4.9-9.6c0.6,0.2,1.2,0.3,1.9,0.3c3.3,0,6-2.7,6-6c0-2-1-3.8-2.5-4.9L24,8.2z M19.6,16.9
	c0.9,0.7,1.4,1.8,1.4,3.1c0,2.2-1.8,4-4,4c-0.3,0-0.7,0-1-0.1L19.6,16.9z M24,45c-5.9,0-11.6-1.2-17-3.5l2.3-4.5
	C14.1,39,19.3,40,24,40c4.8,0,10-1,14.7-2.9l2.2,4.4C35.6,43.8,29.9,45,24,45z"/>
</svg>
