<?xml version="1.0" encoding="utf-8"?>
<!-- Generator: Adobe Illustrator 19.1.0, SVG Export Plug-In . SVG Version: 6.00 Build 0)  -->
<!DOCTYPE svg PUBLIC "-//W3C//DTD SVG 1.1//EN" "http://www.w3.org/Graphics/SVG/1.1/DTD/svg11.dtd">
<svg version="1.1" id="Layer_1" xmlns="http://www.w3.org/2000/svg" xmlns:xlink="http://www.w3.org/1999/xlink" x="0px" y="0px"
	 width="48px" height="48px" viewBox="0 0 48 48" enable-background="new 0 0 48 48" xml:space="preserve">
<path d="M38,3c-4.6,0-8.4,3.5-8.9,8H6c-0.4,0-0.8,0.2-0.9,0.6c-0.2,0.4-0.1,0.8,0.2,1.1L21,30.4V43h-9c-0.6,0-1,0.4-1,1s0.4,1,1,1
	h20c0.6,0,1-0.4,1-1s-0.4-1-1-1h-9V30.4l9.8-11c1.5,1.1,3.3,1.7,5.2,1.7c5,0,9-4,9-9S43,3,38,3z M35.8,13l-7.1,8H15.3l-7.1-8H35.8z
	 M22,28.5L17.1,23h9.8L22,28.5z M38,19c-1.4,0-2.7-0.4-3.9-1.2l4.6-5.2c0.3-0.3,0.3-0.7,0.2-1.1C38.8,11.2,38.4,11,38,11h-6.9
	c0.5-3.4,3.4-6,6.9-6c3.9,0,7,3.1,7,7S41.9,19,38,19z"/>
</svg>
