<?xml version="1.0" encoding="utf-8"?>
<!-- Generator: Adobe Illustrator 19.1.0, SVG Export Plug-In . SVG Version: 6.00 Build 0)  -->
<!DOCTYPE svg PUBLIC "-//W3C//DTD SVG 1.1//EN" "http://www.w3.org/Graphics/SVG/1.1/DTD/svg11.dtd">
<svg version="1.1" id="Layer_1" xmlns="http://www.w3.org/2000/svg" xmlns:xlink="http://www.w3.org/1999/xlink" x="0px" y="0px"
	 width="48px" height="48px" viewBox="0 0 48 48" enable-background="new 0 0 48 48" xml:space="preserve">
<path d="M18,12.4c-1.2-2-3.5-3.4-6-3.4c-3.9,0-7,3.1-7,7s3.1,7,7,7c0.4,0,0.8,0,1.2-0.1C11.9,24.2,11,26,11,28c0,3.9,3.1,7,7,7
	c0.4,0,0.8,0,1.2-0.1C17.9,36.2,17,38,17,40c0,3.9,3.1,7,7,7s7-3.1,7-7c0-2-0.9-3.8-2.2-5.1C29.2,35,29.6,35,30,35c3.9,0,7-3.1,7-7
	c0-2-0.9-3.8-2.2-5.1C35.2,23,35.6,23,36,23c3.9,0,7-3.1,7-7s-3.1-7-7-7c-2.5,0-4.8,1.4-6,3.4c-1.1-1.8-2.9-3-5.1-3.3
	c-0.1-2.3,0.6-5,3.4-6.1c0.5-0.2,0.8-0.8,0.6-1.3s-0.8-0.8-1.3-0.6c-3.1,1.2-4.7,4.1-4.7,8C20.9,9.4,19.1,10.7,18,12.4z M7,16
	c0-2.8,2.2-5,5-5s5,2.2,5,5s-2.2,5-5,5S7,18.8,7,16z M18,19.6c0.3,0.6,0.8,1.1,1.2,1.5C18.8,21,18.4,21,18,21s-0.8,0-1.2,0.1
	C17.2,20.7,17.7,20.2,18,19.6z M13,28c0-2.8,2.2-5,5-5s5,2.2,5,5s-2.2,5-5,5S13,30.8,13,28z M22.8,22.9C23.2,23,23.6,23,24,23
	c0.4,0,0.8,0,1.2-0.1c-0.5,0.4-0.9,1-1.2,1.5C23.7,23.8,23.2,23.3,22.8,22.9z M29,40c0,2.8-2.2,5-5,5s-5-2.2-5-5s2.2-5,5-5
	S29,37.2,29,40z M24,33c-0.4,0-0.8,0-1.2,0.1c0.5-0.4,0.9-1,1.2-1.5c0.3,0.6,0.8,1.1,1.2,1.5C24.8,33,24.4,33,24,33z M35,28
	c0,2.8-2.2,5-5,5s-5-2.2-5-5s2.2-5,5-5S35,25.2,35,28z M30,21c-0.4,0-0.8,0-1.2,0.1c0.5-0.4,0.9-1,1.2-1.5c0.3,0.6,0.8,1.1,1.2,1.5
	C30.8,21,30.4,21,30,21z M36,11c2.8,0,5,2.2,5,5s-2.2,5-5,5s-5-2.2-5-5S33.2,11,36,11z M24,11c2.8,0,5,2.2,5,5s-2.2,5-5,5
	s-5-2.2-5-5S21.2,11,24,11z"/>
</svg>
