<?xml version="1.0" encoding="utf-8"?>
<!-- Generator: Adobe Illustrator 19.1.0, SVG Export Plug-In . SVG Version: 6.00 Build 0)  -->
<!DOCTYPE svg PUBLIC "-//W3C//DTD SVG 1.1//EN" "http://www.w3.org/Graphics/SVG/1.1/DTD/svg11.dtd">
<svg version="1.1" id="Layer_1" xmlns="http://www.w3.org/2000/svg" xmlns:xlink="http://www.w3.org/1999/xlink" x="0px" y="0px"
	 width="48px" height="48px" viewBox="0 0 48 48" enable-background="new 0 0 48 48" xml:space="preserve">
<path d="M44,1c-0.6,0-1,0.4-1,1v9h-6V2c0-0.6-0.4-1-1-1s-1,0.4-1,1v9h-6V2c0-0.6-0.4-1-1-1s-1,0.4-1,1v16c0,2.8,2.2,5,5,5v20
	c0,2.2,1.8,4,4,4s4-1.8,4-4V23c2.8,0,5-2.2,5-5V2C45,1.4,44.6,1,44,1z M38,43c0,1.1-0.9,2-2,2s-2-0.9-2-2V23h4V43z M40,21h-8
	c-1.7,0-3-1.3-3-3v-5h14v5C43,19.7,41.7,21,40,21z"/>
<path d="M12,47c2.2,0,4-1.8,4-4V22.1c3-1.5,5-4.5,5-8.1v-4c0-5-4-9-9-9s-9,4-9,9v4c0,3.5,2,6.6,5,8.1V43C8,45.2,9.8,47,12,47z
	 M14,43c0,1.1-0.9,2-2,2s-2-0.9-2-2V22.8c0.6,0.1,1.3,0.2,2,0.2s1.4-0.1,2-0.2V43z M5,14v-4c0-3.9,3.1-7,7-7s7,3.1,7,7v4
	c0,3.9-3.1,7-7,7S5,17.9,5,14z"/>
</svg>
