<?xml version="1.0" encoding="utf-8"?>
<!-- Generator: Adobe Illustrator 19.1.0, SVG Export Plug-In . SVG Version: 6.00 Build 0)  -->
<!DOCTYPE svg PUBLIC "-//W3C//DTD SVG 1.1//EN" "http://www.w3.org/Graphics/SVG/1.1/DTD/svg11.dtd">
<svg version="1.1" id="Layer_1" xmlns="http://www.w3.org/2000/svg" xmlns:xlink="http://www.w3.org/1999/xlink" x="0px" y="0px"
	 width="48px" height="48px" viewBox="0 0 48 48" enable-background="new 0 0 48 48" xml:space="preserve">
<path d="M48,37h-5.1c-0.5-3.4-3.4-6-6.9-6c-10.5,0-19-8.5-19-19c0-3.5-2.6-6.4-6-6.9V2c0-0.6-0.4-1-1-1S9,1.4,9,2v3.1
	C5.6,5.6,3,8.5,3,12c0,18.2,14.8,33,33,33c3.5,0,6.4-2.6,6.9-6H48c0.6,0,1-0.4,1-1S48.6,37,48,37z M36,43C18.9,43,5,29.1,5,12
	c0-2.8,2.2-5,5-5s5,2.2,5,5c0,11.6,9.4,21,21,21c2.8,0,5,2.2,5,5S38.8,43,36,43z"/>
</svg>
