<?xml version="1.0" encoding="utf-8"?>
<!-- Generator: Adobe Illustrator 19.1.0, SVG Export Plug-In . SVG Version: 6.00 Build 0)  -->
<!DOCTYPE svg PUBLIC "-//W3C//DTD SVG 1.1//EN" "http://www.w3.org/Graphics/SVG/1.1/DTD/svg11.dtd">
<svg version="1.1" id="Layer_1" xmlns="http://www.w3.org/2000/svg" xmlns:xlink="http://www.w3.org/1999/xlink" x="0px" y="0px"
	 width="48px" height="48px" viewBox="0 0 48 48" enable-background="new 0 0 48 48" xml:space="preserve">
<path d="M1.7,28.7c2.3,9.9,14,15.4,24.3,15.6c0.5,0,1,0,1.5,0c8.9,0,16-2.1,18.2-5.6c1.6-2.5,1.4-5.4,0.2-7
	c-0.7-1.1-1.8-1.5-2.9-1.3l-0.2,0.1c-0.9,0.2-2.7,0.6-5.1,0.7c4.2-2,7-4.4,7.8-6.8c1-2.8,0-5.6-1.4-6.8c-1-0.9-2.2-1.1-3.2-0.5
	l-0.2,0.1c-2.1,1.1-8.3,4.3-20.6,2.1c-4.2-0.8-7.3-1.9-9.6-3.5C9.6,12.7,9.3,9,9,4.5c0-0.3-0.2-0.5-0.4-0.7S8.1,3.6,7.8,3.6l-5,0.6
	C2.3,4.3,2,4.8,2,5.3l0.2,7.1C1.9,13.6,0,21.3,1.7,28.7z M19.8,21.2c13,2.3,19.7-1.2,21.9-2.3l0.2-0.1c0.3-0.2,0.7,0.1,0.9,0.3
	c0.9,0.8,1.5,2.7,0.9,4.7c-0.9,2.5-4.9,5.2-10.5,7.2c-3-0.4-6.6-1.4-10.8-3.3c-5.8-2.6-8.9-5.3-10.7-8.9
	C13.9,19.8,16.5,20.6,19.8,21.2z M4,6.1l3-0.4c0.9,11.8,2.2,18.3,14.5,23.8c12,5.3,19.4,3.6,21.8,3l0.2-0.1c0.4-0.1,0.7,0.2,0.8,0.5
	c0.7,1,0.8,3-0.3,4.8c-2,3-9.4,4.9-18,4.7C13.5,42,5.3,35,3.7,28.3C2,20.9,4.2,12.8,4.2,12.8c0-0.1,0-0.2,0-0.3L4,6.1z"/>
</svg>
