<?xml version="1.0" encoding="utf-8"?>
<!-- Generator: Adobe Illustrator 19.1.0, SVG Export Plug-In . SVG Version: 6.00 Build 0)  -->
<!DOCTYPE svg PUBLIC "-//W3C//DTD SVG 1.1//EN" "http://www.w3.org/Graphics/SVG/1.1/DTD/svg11.dtd">
<svg version="1.1" id="Layer_1" xmlns="http://www.w3.org/2000/svg" xmlns:xlink="http://www.w3.org/1999/xlink" x="0px" y="0px"
	 width="48px" height="48px" viewBox="0 0 48 48" enable-background="new 0 0 48 48" xml:space="preserve">
<path d="M32,21c2.8,0,5-2.2,5-5s-2.2-5-5-5s-5,2.2-5,5S29.2,21,32,21z M32,13c1.7,0,3,1.3,3,3s-1.3,3-3,3s-3-1.3-3-3S30.3,13,32,13z
	"/>
<path d="M4,39c0.1,0,0.2,0,0.4-0.1l7.8-3.1l-3.1,7.8c-0.2,0.5,0,1.1,0.6,1.3C9.8,45,9.9,45,10,45c0.4,0,0.8-0.2,0.9-0.6l3.8-9.6
	l29.6-11.8c0.5-0.2,0.8-0.8,0.6-1.3c-0.2-0.5-0.8-0.8-1.3-0.6l-2.5,1c1.2-1.7,1.8-3.8,1.8-6.1c0-6.1-4.9-11-11-11
	c-2.2,0-4.3,0.7-6.1,1.8l1-2.5c0.2-0.5,0-1.1-0.6-1.3c-0.5-0.2-1.1,0-1.3,0.6L13.2,33.2l-9.6,3.8c-0.5,0.2-0.8,0.8-0.6,1.3
	C3.2,38.8,3.6,39,4,39z M41,16c0,5-4,9-9,9s-9-4-9-9s4-9,9-9S41,11,41,16z M21.3,18.5c0.9,4.1,4.2,7.3,8.2,8.2l-13.7,5.5L21.3,18.5z
	"/>
</svg>
