<?xml version="1.0" encoding="utf-8"?>
<!-- Generator: Adobe Illustrator 19.1.0, SVG Export Plug-In . SVG Version: 6.00 Build 0)  -->
<!DOCTYPE svg PUBLIC "-//W3C//DTD SVG 1.1//EN" "http://www.w3.org/Graphics/SVG/1.1/DTD/svg11.dtd">
<svg version="1.1" id="Layer_1" xmlns="http://www.w3.org/2000/svg" xmlns:xlink="http://www.w3.org/1999/xlink" x="0px" y="0px"
	 width="48px" height="48px" viewBox="0 0 48 48" enable-background="new 0 0 48 48" xml:space="preserve">
<path d="M38,7c-0.9,0-1.9,0.2-2.8,0.5C32.9,3.4,28.7,1,24,1c-4.7,0-8.9,2.4-11.2,6.5C11.9,7.2,10.9,7,10,7c-5,0-9,4-9,9
	c0,3.3,1.8,6.1,4.4,7.7L11,46.2c0.1,0.4,0.5,0.8,1,0.8h24c0.5,0,0.9-0.3,1-0.8l5.6-22.5c2.6-1.6,4.4-4.4,4.4-7.7C47,11,43,7,38,7z
	 M35.2,45h-6L31,34.2c0.1-0.5-0.3-1.1-0.8-1.2c-0.5-0.1-1.1,0.3-1.2,0.8L27.2,45h-6.3L19,33.8c-0.1-0.5-0.6-0.9-1.2-0.8
	c-0.5,0.1-0.9,0.6-0.8,1.2L18.8,45h-6L7.7,24.7C8.4,24.9,9.2,25,10,25c1.8,0,3.5-0.5,5.1-1.6c2.4,2.3,5.6,3.6,8.9,3.6
	s6.5-1.3,8.9-3.6c1.5,1,3.2,1.6,5.1,1.6c0.8,0,1.6-0.1,2.3-0.3L35.2,45z M38,23c-1.6,0-3.2-0.6-4.5-1.7c-0.4-0.3-1-0.3-1.4,0.1
	C30,23.7,27.1,25,24,25s-6-1.3-8.1-3.6c-0.2-0.2-0.5-0.3-0.7-0.3c-0.2,0-0.5,0.1-0.6,0.2C13.2,22.4,11.6,23,10,23c-3.9,0-7-3.1-7-7
	s3.1-7,7-7c1,0,1.9,0.2,2.8,0.6c0.5,0.2,1.1,0,1.3-0.5C16,5.4,19.8,3,24,3c4.2,0,8,2.4,9.9,6.1c0.2,0.5,0.8,0.7,1.3,0.5
	C36.1,9.2,37,9,38,9c3.9,0,7,3.1,7,7S41.9,23,38,23z"/>
<path d="M17.7,13.3c-0.4-0.4-1-0.4-1.4,0s-0.4,1,0,1.4l2,2c0.2,0.2,0.5,0.3,0.7,0.3s0.5-0.1,0.7-0.3c0.4-0.4,0.4-1,0-1.4L17.7,13.3z
	"/>
<path d="M30.7,13.3c-0.4-0.4-1-0.4-1.4,0s-0.4,1,0,1.4l2,2c0.2,0.2,0.5,0.3,0.7,0.3s0.5-0.1,0.7-0.3c0.4-0.4,0.4-1,0-1.4L30.7,13.3z
	"/>
<path d="M24.3,7.3l-2,2c-0.4,0.4-0.4,1,0,1.4c0.2,0.2,0.5,0.3,0.7,0.3s0.5-0.1,0.7-0.3l2-2c0.4-0.4,0.4-1,0-1.4S24.7,6.9,24.3,7.3z"
	/>
<path d="M40.3,16.3l-2,2c-0.4,0.4-0.4,1,0,1.4c0.2,0.2,0.5,0.3,0.7,0.3s0.5-0.1,0.7-0.3l2-2c0.4-0.4,0.4-1,0-1.4
	S40.7,15.9,40.3,16.3z"/>
<path d="M9.3,12.3l-2,2c-0.4,0.4-0.4,1,0,1.4C7.5,15.9,7.7,16,8,16s0.5-0.1,0.7-0.3l2-2c0.4-0.4,0.4-1,0-1.4S9.7,11.9,9.3,12.3z"/>
</svg>
