<?xml version="1.0" encoding="utf-8"?>
<!-- Generator: Adobe Illustrator 19.1.0, SVG Export Plug-In . SVG Version: 6.00 Build 0)  -->
<!DOCTYPE svg PUBLIC "-//W3C//DTD SVG 1.1//EN" "http://www.w3.org/Graphics/SVG/1.1/DTD/svg11.dtd">
<svg version="1.1" id="Layer_1" xmlns="http://www.w3.org/2000/svg" xmlns:xlink="http://www.w3.org/1999/xlink" x="0px" y="0px"
	 width="48px" height="48px" viewBox="0 0 48 48" enable-background="new 0 0 48 48" xml:space="preserve">
<path d="M46,29h-5v-7c0-0.6-0.4-1-1-1H25v-4.1c2.3-0.5,4-2.5,4-4.9c0-2.4-3.5-7.6-4.2-8.6c-0.4-0.5-1.3-0.5-1.6,0
	C22.5,4.4,19,9.6,19,12c0,2.4,1.7,4.4,4,4.9V21H8c-0.6,0-1,0.4-1,1v7H2c-0.6,0-1,0.4-1,1v16c0,0.6,0.4,1,1,1h44c0.6,0,1-0.4,1-1V30
	C47,29.4,46.6,29,46,29z M21,12c0-1.1,1.6-3.9,3-6.2c1.4,2.2,3,5.1,3,6.2c0,1.7-1.3,3-3,3S21,13.7,21,12z M44.9,31
	c-0.5,3.4-3.4,6-6.9,6c-2.5,0-4.9-1.4-6.1-3.7c-0.3-0.6-1.4-0.6-1.8,0C28.9,35.6,26.5,37,24,37s-4.9-1.4-6.1-3.7
	c-0.3-0.6-1.4-0.6-1.8,0C14.9,35.6,12.5,37,10,37c-3.5,0-6.4-2.6-6.9-6H44.9z M9,23h30v6H9V23z M45,45H3v-9.4c1.7,2,4.2,3.4,7,3.4
	c2.7,0,5.3-1.3,7-3.4c1.7,2.1,4.3,3.4,7,3.4s5.3-1.3,7-3.4c1.7,2.1,4.3,3.4,7,3.4c2.8,0,5.3-1.3,7-3.4V45z"/>
</svg>
