<?xml version="1.0" encoding="utf-8"?>
<!-- Generator: Adobe Illustrator 19.1.0, SVG Export Plug-In . SVG Version: 6.00 Build 0)  -->
<!DOCTYPE svg PUBLIC "-//W3C//DTD SVG 1.1//EN" "http://www.w3.org/Graphics/SVG/1.1/DTD/svg11.dtd">
<svg version="1.1" id="Layer_1" xmlns="http://www.w3.org/2000/svg" xmlns:xlink="http://www.w3.org/1999/xlink" x="0px" y="0px"
	 width="48px" height="48px" viewBox="0 0 48 48" enable-background="new 0 0 48 48" xml:space="preserve">
<path d="M28.5,2.4L20,10.9c-2.3,2.3-3.1,5.4-3.8,8.3c-0.7,2.8-1.4,5.4-3.2,7.3c0,0,0,0,0,0c0,0,0,0,0,0c0,0,0,0,0,0c0,0,0,0,0,0
	c-0.4,0.4-0.4,1,0,1.4l0.7,0.7l-4.3,4.3c-1.9-1.3-4.6-1.1-6.3,0.6c-1.9,1.9-1.9,5.1,0,7.1c0.8,0.8,1.8,1.3,2.8,1.4
	c0.1,1.1,0.6,2.1,1.4,2.8c0.9,0.9,2.2,1.5,3.5,1.5s2.6-0.5,3.5-1.5c0.9-0.9,1.5-2.2,1.5-3.5c0-1-0.3-1.9-0.8-2.8l4.3-4.3L20,35
	c0.2,0.2,0.5,0.3,0.7,0.3s0.5-0.1,0.7-0.3c1.9-1.9,4.5-2.5,7.3-3.2c2.9-0.7,6-1.5,8.3-3.8l8.5-8.5c2.2-2.2,0.6-6.4-4.2-11.3
	C36.7,3.5,30.8,0.1,28.5,2.4z M12.9,37.8c-0.2,0.2-0.3,0.4-0.3,0.7c0,0.3,0.1,0.5,0.3,0.7c0.6,0.6,0.9,1.3,0.9,2.1s-0.3,1.6-0.9,2.1
	c-1.1,1.1-3.1,1.1-4.2,0c-0.6-0.6-0.9-1.4-0.9-2.3c0-0.3-0.1-0.6-0.3-0.8c-0.2-0.2-0.5-0.3-0.8-0.3c-0.9,0.1-1.7-0.2-2.3-0.9
	c-1.2-1.2-1.2-3.1,0-4.2c1.2-1.2,3.1-1.2,4.2,0c0.4,0.4,1,0.4,1.4,0l4.9-4.9l2.8,2.8L12.9,37.8z M35.6,26.5
	c-1.9,1.9-4.6,2.6-7.4,3.3c-2.6,0.7-5.3,1.3-7.4,3.1L20,32.1c0,0,0,0,0,0s0,0,0,0l-4.9-4.9c0,0,0,0,0,0L15,27.1
	c1.8-2.2,2.4-4.8,3.1-7.4c0.7-2.8,1.4-5.4,3.3-7.4l6.5-6.5c0.7,2.8,3.2,6.3,6.2,9.4c2.9,2.9,5.5,4.6,7.7,5.1L35.6,26.5z M44.1,18
	c-1.1,1.1-4.3-0.1-8.5-4.2c-5-5-6.4-9.2-5.7-9.9c0.7-0.7,4.9,0.6,9.9,5.7C44,13.7,45.1,16.9,44.1,18z"/>
</svg>
