<?xml version="1.0" encoding="utf-8"?>
<!-- Generator: Adobe Illustrator 19.1.0, SVG Export Plug-In . SVG Version: 6.00 Build 0)  -->
<!DOCTYPE svg PUBLIC "-//W3C//DTD SVG 1.1//EN" "http://www.w3.org/Graphics/SVG/1.1/DTD/svg11.dtd">
<svg version="1.1" id="Layer_1" xmlns="http://www.w3.org/2000/svg" xmlns:xlink="http://www.w3.org/1999/xlink" x="0px" y="0px"
	 width="48px" height="48px" viewBox="0 0 48 48" enable-background="new 0 0 48 48" xml:space="preserve">
<path d="M38.8,11c-0.9-4.6-5-8-9.8-8c-2.3,0-4.5,0.8-6.3,2.3C20.6,2.6,17.4,1,14,1C7.9,1,3,5.9,3,12c0,0.9,0.1,1.8,0.4,2.7
	C1.9,16.1,1,18,1,20c0,3.9,3.1,7,7,7c0.9,0,1.9-0.2,2.7-0.6c0.7,1.2,1.5,2.2,2.5,3.1c5.9,9,5.8,16.4,5.8,16.4c0,0.3,0.1,0.5,0.3,0.7
	c0.2,0.2,0.4,0.3,0.7,0.3h8c0.3,0,0.6-0.1,0.8-0.3c0.2-0.2,0.3-0.5,0.2-0.8c0-0.1-1.4-10.8,7-17.1c0.7,0.2,1.3,0.3,2,0.3
	c5,0,9-4,9-9C47,15.2,43.4,11.5,38.8,11z M26.9,45H21c-0.1-2.1-0.8-7-4-13c1.6,0.7,3.3,1,5.1,1c4.3,0,8.3-2.2,10.8-5.7
	c0.3,0.2,0.7,0.4,1,0.6C27.1,33.8,26.8,42,26.9,45z M38,27c-1.8,0-3.5-0.7-4.8-1.9c-0.2-0.2-0.5-0.3-0.8-0.3c-0.3,0-0.6,0.2-0.7,0.5
	C29.7,28.8,26,31,22,31c-4.2,0-8.1-2.5-10-6.3c-0.1-0.3-0.3-0.5-0.6-0.5c-0.1,0-0.2,0-0.3,0c-0.2,0-0.4,0.1-0.5,0.1
	C9.8,24.7,8.9,25,8,25c-2.8,0-5-2.2-5-5c0-1.6,0.8-3.1,2.1-4.1c0.4-0.3,0.5-0.7,0.4-1.1C5.2,13.8,5,12.9,5,12c0-5,4-9,9-9
	c3.1,0,6,1.6,7.7,4.3c0.2,0.3,0.4,0.4,0.7,0.5c0.3,0,0.6-0.1,0.8-0.3C24.8,5.9,26.8,5,29,5c4.1,0,7.5,3.1,7.9,7.1
	c0.1,0.5,0.5,0.9,1,0.9c4,0,7.1,3.1,7.1,7C45,23.9,41.9,27,38,27z"/>
</svg>
