<?xml version="1.0" encoding="utf-8"?>
<!-- Generator: Adobe Illustrator 19.1.0, SVG Export Plug-In . SVG Version: 6.00 Build 0)  -->
<!DOCTYPE svg PUBLIC "-//W3C//DTD SVG 1.1//EN" "http://www.w3.org/Graphics/SVG/1.1/DTD/svg11.dtd">
<svg version="1.1" id="Layer_1" xmlns="http://www.w3.org/2000/svg" xmlns:xlink="http://www.w3.org/1999/xlink" x="0px" y="0px"
	 width="48px" height="48px" viewBox="0 0 48 48" enable-background="new 0 0 48 48" xml:space="preserve">
<path d="M33,12c0-2.4-3.5-7.6-4.2-8.6c-0.4-0.5-1.3-0.5-1.6,0C26.5,4.4,23,9.6,23,12c0,2.8,2.2,5,5,5S33,14.8,33,12z M25,12
	c0-1.1,1.6-3.9,3-6.2c1.4,2.2,3,5.1,3,6.2c0,1.7-1.3,3-3,3S25,13.7,25,12z"/>
<path d="M43,42V28c0-0.6-0.4-1-1-1h-5v-5c0-0.6-0.4-1-1-1H20c-0.6,0-1,0.4-1,1v5h-4V4c0-0.6-0.4-1-1-1h-4C7.2,3,5,5.2,5,8v16
	c0,2.8,2.2,5,5,5h3v13c0,2.8,2.2,5,5,5h20C40.8,47,43,44.8,43,42z M21,23h14v4H21V23z M7,24V8c0-1.7,1.3-3,3-3h3v22h-3
	C8.3,27,7,25.7,7,24z M15,42V29h26v13c0,1.7-1.3,3-3,3H18C16.3,45,15,43.7,15,42z"/>
</svg>
