<?xml version="1.0" encoding="utf-8"?>
<!-- Generator: Adobe Illustrator 19.1.0, SVG Export Plug-In . SVG Version: 6.00 Build 0)  -->
<!DOCTYPE svg PUBLIC "-//W3C//DTD SVG 1.1//EN" "http://www.w3.org/Graphics/SVG/1.1/DTD/svg11.dtd">
<svg version="1.1" id="Layer_1" xmlns="http://www.w3.org/2000/svg" xmlns:xlink="http://www.w3.org/1999/xlink" x="0px" y="0px"
	 width="48px" height="48px" viewBox="0 0 48 48" enable-background="new 0 0 48 48" xml:space="preserve">
<path d="M46.9,25.6c0-0.1-0.1-0.2-0.2-0.3c0,0,0,0,0,0c0,0-0.1-0.1-0.1-0.1L35,17.5V6c0-0.6-0.4-1-1-1H14c-0.6,0-1,0.4-1,1v11.5
	L1.4,25.2c0,0-0.1,0.1-0.1,0.1c0,0,0,0,0,0c-0.1,0.1-0.1,0.2-0.2,0.3c0,0,0,0,0,0.1C1,25.8,1,25.9,1,26v16c0,0.6,0.4,1,1,1h44
	c0.6,0,1-0.4,1-1V26C47,25.9,47,25.8,46.9,25.6C46.9,25.6,46.9,25.6,46.9,25.6z M14.6,18.8c0.3-0.2,0.4-0.5,0.4-0.8V7h18v11
	c0,0.3,0.2,0.6,0.4,0.8l9.3,6.2H5.3L14.6,18.8z M3,41V27h42v14H3z"/>
<path d="M38,33h-4c-0.6,0-1,0.4-1,1s0.4,1,1,1h4c0.6,0,1-0.4,1-1S38.6,33,38,33z"/>
</svg>
