<?xml version="1.0" encoding="utf-8"?>
<!-- Generator: Adobe Illustrator 19.1.0, SVG Export Plug-In . SVG Version: 6.00 Build 0)  -->
<!DOCTYPE svg PUBLIC "-//W3C//DTD SVG 1.1//EN" "http://www.w3.org/Graphics/SVG/1.1/DTD/svg11.dtd">
<svg version="1.1" id="Layer_1" xmlns="http://www.w3.org/2000/svg" xmlns:xlink="http://www.w3.org/1999/xlink" x="0px" y="0px"
	 width="48px" height="48px" viewBox="0 0 48 48" enable-background="new 0 0 48 48" xml:space="preserve">
<path d="M16.4,19.2l1.6,1.6c0.2,0.2,0.5,0.3,0.7,0.3s0.5-0.1,0.7-0.3c0.4-0.4,0.4-1,0-1.4l-1.6-1.6c-0.4-0.4-1-0.4-1.4,0
	C16,18.1,16,18.8,16.4,19.2z"/>
<path d="M28.8,31.6c0.2,0.2,0.5,0.3,0.7,0.3s0.5-0.1,0.7-0.3c0.4-0.4,0.4-1,0-1.4l-1.6-1.6c-0.4-0.4-1-0.4-1.4,0s-0.4,1,0,1.4
	L28.8,31.6z"/>
<path d="M19.5,28.5c0.2,0.2,0.5,0.3,0.7,0.3s0.5-0.1,0.7-0.3l1.6-1.6c0.4-0.4,0.4-1,0-1.4s-1-0.4-1.4,0l-1.6,1.6
	C19.1,27.5,19.1,28.1,19.5,28.5z"/>
<path d="M41.2,31.7C41.2,31.7,41.2,31.7,41.2,31.7C41.2,31.7,41.2,31.7,41.2,31.7L11.6,2.2c-0.4-0.4-1-0.4-1.4,0
	C5.4,6.9,2.8,13.3,2.8,20s2.6,13.1,7.4,17.8s11.1,7.4,17.8,7.4s13.1-2.6,17.8-7.4c0.2-0.2,0.3-0.4,0.3-0.7s-0.1-0.5-0.3-0.7
	L41.2,31.7z M39,32.4c-3,2.7-6.9,4.2-11,4.2c-4.4,0-8.6-1.7-11.7-4.9c-3.1-3.1-4.9-7.3-4.9-11.7c0-4.1,1.5-8,4.2-11L39,32.4z
	 M11.6,36.4c-8.8-8.8-9-23-0.7-32.1l3.3,3.3C11.1,11,9.4,15.4,9.4,20c0,5,1.9,9.6,5.4,13.2c3.5,3.5,8.2,5.4,13.2,5.4
	c4.6,0,9-1.7,12.4-4.8l3.3,3.3C34.6,45.4,20.4,45.2,11.6,36.4z"/>
</svg>
