<?xml version="1.0" encoding="utf-8"?>
<!-- Generator: Adobe Illustrator 19.1.0, SVG Export Plug-In . SVG Version: 6.00 Build 0)  -->
<!DOCTYPE svg PUBLIC "-//W3C//DTD SVG 1.1//EN" "http://www.w3.org/Graphics/SVG/1.1/DTD/svg11.dtd">
<svg version="1.1" id="Layer_1" xmlns="http://www.w3.org/2000/svg" xmlns:xlink="http://www.w3.org/1999/xlink" x="0px" y="0px"
	 width="48px" height="48px" viewBox="0 0 48 48" enable-background="new 0 0 48 48" xml:space="preserve">
<path d="M46.9,19.6c0-0.1-0.1-0.1-0.1-0.2c0,0,0-0.1-0.1-0.1c-0.1-0.1-0.2-0.1-0.3-0.2l0,0c0,0,0,0,0,0l-28-12C18.3,7,18.1,7,18,7
	C12.4,7,7.8,8.5,4.7,11.5C2.4,13.8,1,16.9,1,20v20c0,0.6,0.4,1,1,1h44c0.6,0,1-0.4,1-1V20C47,19.9,47,19.8,46.9,19.6
	C46.9,19.6,46.9,19.6,46.9,19.6z M45,29H18v-8h27V29z M17.8,9l23.3,10H17c-0.6,0-1,0.4-1,1v10c0,0,0,0,0,0s0,0,0,0v1
	c0,1.1-0.9,2-2,2s-2-0.9-2-2v-1c0,0,0,0,0,0s0,0,0,0V20c0-0.6-0.4-1-1-1H3.1C3.5,14.9,7,9.1,17.8,9z M3,21h7v8H3V21z M3,39v-8h7
	c0,2.2,1.8,4,4,4s4-1.8,4-4h27v8H3z"/>
</svg>
