<?xml version="1.0" encoding="utf-8"?>
<!-- Generator: Adobe Illustrator 19.1.0, SVG Export Plug-In . SVG Version: 6.00 Build 0)  -->
<!DOCTYPE svg PUBLIC "-//W3C//DTD SVG 1.1//EN" "http://www.w3.org/Graphics/SVG/1.1/DTD/svg11.dtd">
<svg version="1.1" id="Layer_1" xmlns="http://www.w3.org/2000/svg" xmlns:xlink="http://www.w3.org/1999/xlink" x="0px" y="0px"
	 width="48px" height="48px" viewBox="0 0 48 48" enable-background="new 0 0 48 48" xml:space="preserve">
<path d="M16,23c-3.9,0-7,3.1-7,7s3.1,7,7,7s7-3.1,7-7S19.9,23,16,23z M16,35c-2.8,0-5-2.2-5-5s2.2-5,5-5s5,2.2,5,5S18.8,35,16,35z"
	/>
<path d="M46,1H34c-0.6,0-1,0.4-1,1c0,5-4,9-9,9s-9-4-9-9c0-0.6-0.4-1-1-1H2C1.4,1,1,1.4,1,2v44c0,0.6,0.4,1,1,1h44c0.6,0,1-0.4,1-1
	V34c0-0.6-0.4-1-1-1c-5,0-9-4-9-9s4-9,9-9c0.6,0,1-0.4,1-1V2C47,1.4,46.6,1,46,1z M45,13c-5.6,0.5-10,5.2-10,11s4.4,10.4,10,11v10H3
	V3h10c0.5,5.6,5.2,10,11,10S34.4,8.6,35,3h10V13z"/>
</svg>
