<?xml version="1.0" encoding="utf-8"?>
<!-- Generator: Adobe Illustrator 19.1.0, SVG Export Plug-In . SVG Version: 6.00 Build 0)  -->
<!DOCTYPE svg PUBLIC "-//W3C//DTD SVG 1.1//EN" "http://www.w3.org/Graphics/SVG/1.1/DTD/svg11.dtd">
<svg version="1.1" id="Layer_1" xmlns="http://www.w3.org/2000/svg" xmlns:xlink="http://www.w3.org/1999/xlink" x="0px" y="0px"
	 width="48px" height="48px" viewBox="0 0 48 48" enable-background="new 0 0 48 48" xml:space="preserve">
<path d="M2,37c0.1,0,0.1,0,0.2,0L7,36v10c0,0.6,0.4,1,1,1h30c0.6,0,1-0.4,1-1v-9.9l4.8,0.9c0.3,0.1,0.6,0,0.8-0.2
	c0.2-0.2,0.4-0.5,0.4-0.8V26c0-0.6-0.4-1-1-1h-5V13.9c0-0.5-0.4-0.9-0.9-1c-3-0.3-5.6-2.4-6.6-5.3c-0.1-0.4-0.6-0.7-1-0.7
	c-3.9,0.3-6.3-1.4-7.3-5.2C23,1.3,22.6,1,22.2,1H8C7.4,1,7,1.4,7,2v23H2c-0.6,0-1,0.4-1,1v10c0,0.3,0.1,0.6,0.4,0.8
	C1.5,36.9,1.8,37,2,37z M37,45H9v-9.4L22,33l15,2.7V45z M29,25v-6h8v6H29z M19,25v-6h8v6H19z M29.9,9c1.3,3,4,5.2,7.1,5.8V17h-8V8.9
	C29.3,8.9,29.6,9,29.9,9z M27,8.6V17h-8V3h2.4C22.4,6,24.3,7.9,27,8.6z M17,3v14H9V3H17z M9,19h8v6H9V19z M3,27h40v7.8L22.2,31
	c-0.1,0-0.1,0-0.2,0c-0.1,0-0.1,0-0.2,0L3,34.8V27z"/>
</svg>
