<?xml version="1.0" encoding="utf-8"?>
<!-- Generator: Adobe Illustrator 19.1.0, SVG Export Plug-In . SVG Version: 6.00 Build 0)  -->
<!DOCTYPE svg PUBLIC "-//W3C//DTD SVG 1.1//EN" "http://www.w3.org/Graphics/SVG/1.1/DTD/svg11.dtd">
<svg version="1.1" id="Layer_1" xmlns="http://www.w3.org/2000/svg" xmlns:xlink="http://www.w3.org/1999/xlink" x="0px" y="0px"
	 width="48px" height="48px" viewBox="0 0 48 48" enable-background="new 0 0 48 48" xml:space="preserve">
<path d="M12,47h16c5,0,9-4,9-9V27h3c2.8,0,5-2.2,5-5v-8c0-0.6-0.4-1-1-1h-8H4c-0.6,0-1,0.4-1,1v24C3,43,7,47,12,47z M43,22
	c0,1.7-1.3,3-3,3h-3V15h6V22z M5,15h30v23c0,3.9-3.1,7-7,7H12c-3.9,0-7-3.1-7-7V15z"/>
<path d="M20,7c0.6,0,1-0.4,1-1V2c0-0.6-0.4-1-1-1s-1,0.4-1,1v4C19,6.6,19.4,7,20,7z"/>
<path d="M10,9c0.6,0,1-0.4,1-1V4c0-0.6-0.4-1-1-1S9,3.4,9,4v4C9,8.6,9.4,9,10,9z"/>
<path d="M30,9c0.6,0,1-0.4,1-1V4c0-0.6-0.4-1-1-1s-1,0.4-1,1v4C29,8.6,29.4,9,30,9z"/>
</svg>
