<?xml version="1.0" encoding="utf-8"?>
<!-- Generator: Adobe Illustrator 19.1.0, SVG Export Plug-In . SVG Version: 6.00 Build 0)  -->
<!DOCTYPE svg PUBLIC "-//W3C//DTD SVG 1.1//EN" "http://www.w3.org/Graphics/SVG/1.1/DTD/svg11.dtd">
<svg version="1.1" id="Layer_1" xmlns="http://www.w3.org/2000/svg" xmlns:xlink="http://www.w3.org/1999/xlink" x="0px" y="0px"
	 width="48px" height="48px" viewBox="0 0 48 48" enable-background="new 0 0 48 48" xml:space="preserve">
<path d="M40,31c2.8,0,5-2.2,5-5c0-2.4-3.5-7.6-4.2-8.6c-0.4-0.5-1.3-0.5-1.6,0c-0.7,1-4.2,6.2-4.2,8.6C35,28.8,37.2,31,40,31z
	 M40,19.8c1.4,2.2,3,5.1,3,6.2c0,1.7-1.3,3-3,3s-3-1.3-3-3C37,24.9,38.6,22.1,40,19.8z"/>
<path d="M13,24V14c0-0.6-0.4-1-1-1s-1,0.4-1,1v10c0,0.6,0.4,1,1,1S13,24.6,13,24z"/>
<path d="M20,25c0.6,0,1-0.4,1-1V14c0-0.6-0.4-1-1-1s-1,0.4-1,1v10C19,24.6,19.4,25,20,25z"/>
<path d="M16,47c2.8,0,5-2.2,5-5v-7h7c0.6,0,1-0.4,1-1V14c0-7.2-5.8-13-13-13S3,6.8,3,14v20c0,0.6,0.4,1,1,1h7v7
	C11,44.8,13.2,47,16,47z M19,42c0,1.7-1.3,3-3,3s-3-1.3-3-3v-7h6V42z M5,14C5,7.9,9.9,3,16,3s11,4.9,11,11v19H5V14z"/>
</svg>
