<?xml version="1.0" encoding="utf-8"?>
<!-- Generator: Adobe Illustrator 19.1.0, SVG Export Plug-In . SVG Version: 6.00 Build 0)  -->
<!DOCTYPE svg PUBLIC "-//W3C//DTD SVG 1.1//EN" "http://www.w3.org/Graphics/SVG/1.1/DTD/svg11.dtd">
<svg version="1.1" id="Layer_1" xmlns="http://www.w3.org/2000/svg" xmlns:xlink="http://www.w3.org/1999/xlink" x="0px" y="0px"
	 width="48px" height="48px" viewBox="0 0 48 48" enable-background="new 0 0 48 48" xml:space="preserve">
<path d="M46,1H2C1.4,1,1,1.4,1,2v44c0,0.6,0.4,1,1,1h44c0.6,0,1-0.4,1-1V2C47,1.4,46.6,1,46,1z M45,45H3V3h42V45z"/>
<path d="M9,40h30c0.6,0,1-0.4,1-1V18c0-0.6-0.4-1-1-1H9c-0.6,0-1,0.4-1,1v21C8,39.6,8.4,40,9,40z M10,19h28v19H10V19z"/>
<path d="M30,25c-0.6,0-1,0.4-1,1v1H19v-1c0-0.6-0.4-1-1-1s-1,0.4-1,1v2c0,0.6,0.4,1,1,1h12c0.6,0,1-0.4,1-1v-2
	C31,25.4,30.6,25,30,25z"/>
<path d="M24,13c1.7,0,3-1.3,3-3s-1.3-3-3-3s-3,1.3-3,3S22.3,13,24,13z M24,9c0.6,0,1,0.4,1,1s-0.4,1-1,1s-1-0.4-1-1S23.4,9,24,9z"/>
<path d="M11,13c1.7,0,3-1.3,3-3s-1.3-3-3-3s-3,1.3-3,3S9.3,13,11,13z M11,9c0.6,0,1,0.4,1,1s-0.4,1-1,1s-1-0.4-1-1S10.4,9,11,9z"/>
<path d="M37,13c1.7,0,3-1.3,3-3s-1.3-3-3-3s-3,1.3-3,3S35.3,13,37,13z M37,9c0.6,0,1,0.4,1,1s-0.4,1-1,1s-1-0.4-1-1S36.4,9,37,9z"/>
</svg>
