<?xml version="1.0" encoding="utf-8"?>
<!-- Generator: Adobe Illustrator 19.1.0, SVG Export Plug-In . SVG Version: 6.00 Build 0)  -->
<!DOCTYPE svg PUBLIC "-//W3C//DTD SVG 1.1//EN" "http://www.w3.org/Graphics/SVG/1.1/DTD/svg11.dtd">
<svg version="1.1" id="Layer_1" xmlns="http://www.w3.org/2000/svg" xmlns:xlink="http://www.w3.org/1999/xlink" x="0px" y="0px"
	 width="48px" height="48px" viewBox="0 0 48 48" enable-background="new 0 0 48 48" xml:space="preserve">
<path d="M18.4,29.1c-3.1,1.2-5.7,3.5-7.4,6.4c-0.3,0.5-0.1,1.1,0.4,1.4c0.2,0.1,0.3,0.1,0.5,0.1c0.3,0,0.7-0.2,0.9-0.5
	c1.5-2.5,3.7-4.5,6.4-5.6c0.5-0.2,0.8-0.8,0.6-1.3C19.5,29.1,18.9,28.9,18.4,29.1z"/>
<path d="M25,8V2c0-0.6-0.4-1-1-1s-1,0.4-1,1v6c0,0.6,0.4,1,1,1S25,8.6,25,8z"/>
<path d="M15,12V6c0-0.6-0.4-1-1-1s-1,0.4-1,1v6c0,0.6,0.4,1,1,1S15,12.6,15,12z"/>
<path d="M35,12V6c0-0.6-0.4-1-1-1s-1,0.4-1,1v6c0,0.6,0.4,1,1,1S35,12.6,35,12z"/>
<path d="M47,41h-2.1c-0.9-9.6-8.2-17.3-17.6-18.7c0.5-0.6,0.7-1.4,0.7-2.3c0-2.2-1.8-4-4-4s-4,1.8-4,4c0,0.8,0.3,1.6,0.7,2.3
	C11.4,23.7,4,31.4,3.1,41H1c-0.6,0-1,0.4-1,1c0,3.3,2.7,6,6,6h36c3.3,0,6-2.7,6-6C48,41.4,47.6,41,47,41z M22,20c0-1.1,0.9-2,2-2
	s2,0.9,2,2s-0.9,2-2,2S22,21.1,22,20z M24,24c9.8,0,17.9,7.4,18.9,17H5.1C6.1,31.4,14.2,24,24,24z M42,46H6c-1.9,0-3.4-1.3-3.9-3
	h43.7C45.4,44.7,43.9,46,42,46z"/>
</svg>
