<?xml version="1.0" encoding="utf-8"?>
<!-- Generator: Adobe Illustrator 19.1.0, SVG Export Plug-In . SVG Version: 6.00 Build 0)  -->
<!DOCTYPE svg PUBLIC "-//W3C//DTD SVG 1.1//EN" "http://www.w3.org/Graphics/SVG/1.1/DTD/svg11.dtd">
<svg version="1.1" id="Layer_1" xmlns="http://www.w3.org/2000/svg" xmlns:xlink="http://www.w3.org/1999/xlink" x="0px" y="0px"
	 width="24px" height="24px" viewBox="0 0 24 24" enable-background="new 0 0 24 24" xml:space="preserve">
<path d="M22.9,22.6l-3-6C19.7,16.2,19.4,16,19,16h-4v2h3.4l2,4H3.6l2-4H9v-2H5c-0.4,0-0.7,0.2-0.9,0.6l-3,6c-0.2,0.3-0.1,0.7,0,1
	C1.3,23.8,1.7,24,2,24h20c0.3,0,0.7-0.2,0.9-0.5C23,23.2,23,22.9,22.9,22.6z"/>
<path d="M19,7c0-3.9-3.1-7-7-7S5,3.1,5,7c0,3.5,2.6,6.4,6,6.9V19c0,0.6,0.4,1,1,1s1-0.4,1-1v-5.1C16.4,13.4,19,10.5,19,7z"/>
</svg>
