<?xml version="1.0" encoding="utf-8"?>
<!-- Generator: Adobe Illustrator 19.1.0, SVG Export Plug-In . SVG Version: 6.00 Build 0)  -->
<!DOCTYPE svg PUBLIC "-//W3C//DTD SVG 1.1//EN" "http://www.w3.org/Graphics/SVG/1.1/DTD/svg11.dtd">
<svg version="1.1" id="Layer_1" xmlns="http://www.w3.org/2000/svg" xmlns:xlink="http://www.w3.org/1999/xlink" x="0px" y="0px"
	 width="24px" height="24px" viewBox="0 0 24 24" enable-background="new 0 0 24 24" xml:space="preserve">
<polygon points="14.2,14.2 15.6,8.4 9.8,9.9 "/>
<path d="M12,0C5.4,0,0,5.4,0,12s5.4,12,12,12s12-5.4,12-12S18.6,0,12,0z M18,7.2l-2,8c-0.1,0.4-0.4,0.6-0.7,0.7l-8,2
	c-0.1,0-0.2,0-0.2,0c-0.3,0-0.5-0.1-0.7-0.3c-0.2-0.2-0.3-0.6-0.3-1l2-7.9c0.1-0.4,0.4-0.6,0.7-0.7l8-2.1c0.3-0.1,0.7,0,1,0.3
	C18,6.5,18.1,6.9,18,7.2z"/>
</svg>
