<?xml version="1.0" encoding="utf-8"?>
<!-- Generator: Adobe Illustrator 19.1.0, SVG Export Plug-In . SVG Version: 6.00 Build 0)  -->
<!DOCTYPE svg PUBLIC "-//W3C//DTD SVG 1.1//EN" "http://www.w3.org/Graphics/SVG/1.1/DTD/svg11.dtd">
<svg version="1.1" id="Layer_1" xmlns="http://www.w3.org/2000/svg" xmlns:xlink="http://www.w3.org/1999/xlink" x="0px" y="0px"
	 width="24px" height="24px" viewBox="0 0 24 24" enable-background="new 0 0 24 24" xml:space="preserve">
<path d="M12,0C8.1,0,4,3,4,8c0,4.6,6.5,11.3,7.3,12.1c0.2,0.2,0.4,0.3,0.7,0.3s0.5-0.1,0.7-0.3C13.5,19.3,20,12.6,20,8
	C20,3,15.9,0,12,0z M12,11c-1.7,0-3-1.3-3-3s1.3-3,3-3s3,1.3,3,3S13.7,11,12,11z"/>
<path d="M18.2,16.8c-0.5,0.6-0.9,1.2-1.3,1.7C19,19,20,19.7,20,20c0,0.5-2.8,2-8,2s-8-1.5-8-2c0-0.3,1-1,3.2-1.5
	c-0.4-0.5-0.9-1.1-1.3-1.7C3.6,17.4,2,18.5,2,20c0,2.7,5.2,4,10,4s10-1.3,10-4C22,18.5,20.4,17.4,18.2,16.8z"/>
</svg>
