<?xml version="1.0" encoding="utf-8"?>
<!-- Generator: Adobe Illustrator 19.1.0, SVG Export Plug-In . SVG Version: 6.00 Build 0)  -->
<!DOCTYPE svg PUBLIC "-//W3C//DTD SVG 1.1//EN" "http://www.w3.org/Graphics/SVG/1.1/DTD/svg11.dtd">
<svg version="1.1" id="Layer_1" xmlns="http://www.w3.org/2000/svg" xmlns:xlink="http://www.w3.org/1999/xlink" x="0px" y="0px"
	 width="24px" height="24px" viewBox="0 0 24 24" enable-background="new 0 0 24 24" xml:space="preserve">
<path d="M18,3c-1.4,0-2.7,0.5-3.8,1.4C13.5,4.1,12.7,4,12,4c-0.7,0-1.5,0.1-2.2,0.4C8.7,3.5,7.4,3,6,3C3.1,3,0,5.2,0,9
	c0,3.4,4.8,8.2,5.3,8.7C5.5,17.9,5.7,18,6,18s0.5-0.1,0.7-0.3c0,0,0.4-0.4,0.9-0.9c1.6,2.1,3.4,3.7,3.7,4c0.2,0.2,0.4,0.3,0.7,0.3
	s0.5-0.1,0.7-0.3c0.3-0.3,2.1-1.9,3.7-4c0.5,0.6,0.9,0.9,0.9,0.9c0.2,0.2,0.4,0.3,0.7,0.3s0.5-0.1,0.7-0.3C19.2,17.2,24,12.4,24,9
	C24,5.2,20.9,3,18,3z M6,15.6C4.2,13.7,2,10.7,2,9c0-2.5,2-4,4-4c0.6,0,1.2,0.2,1.7,0.4C6.1,6.6,5,8.5,5,11c0,1.3,0.6,2.7,1.4,4.1
	C6.3,15.3,6.1,15.4,6,15.6z M12,13c-1.1,0-2-0.9-2-2s0.9-2,2-2s2,0.9,2,2S13.1,13,12,13z M18,15.6c-0.1-0.1-0.3-0.3-0.4-0.5
	c0.8-1.3,1.4-2.8,1.4-4.1c0-2.5-1.1-4.4-2.7-5.6C16.8,5.2,17.4,5,18,5c2,0,4,1.5,4,4C22,10.7,19.8,13.7,18,15.6z"/>
</svg>
