<?xml version="1.0" encoding="utf-8"?>
<!-- Generator: Adobe Illustrator 19.1.0, SVG Export Plug-In . SVG Version: 6.00 Build 0)  -->
<!DOCTYPE svg PUBLIC "-//W3C//DTD SVG 1.1//EN" "http://www.w3.org/Graphics/SVG/1.1/DTD/svg11.dtd">
<svg version="1.1" id="Layer_1" xmlns="http://www.w3.org/2000/svg" xmlns:xlink="http://www.w3.org/1999/xlink" x="0px" y="0px"
	 width="24px" height="24px" viewBox="0 0 24 24" enable-background="new 0 0 24 24" xml:space="preserve">
<path d="M3.1,5.3C2.8,4.8,2.2,4.6,1.8,4.9C1.3,5.2,1.1,5.8,1.4,6.3l9.5,16.5c0.2,0.3,0.5,0.5,0.9,0.5c0.2,0,0.3,0,0.5-0.1
	c0.5-0.3,0.6-0.9,0.4-1.4L3.1,5.3z"/>
<path d="M21.7,4.3c-0.3-0.3-0.7-0.4-1-0.3c-1.2,0.3-3-0.1-5-0.5c-1.6-0.4-3.3-0.8-5-0.8c-2.3,0-4.1,0.8-5.5,2.4l5.5,9.6
	c0.2-0.1,0.3-0.2,0.4-0.4c1.1-2,2.6-2.6,4.4-3.2c2.2-0.8,4.7-1.8,6.3-5.7C22.1,5,22,4.6,21.7,4.3z"/>
</svg>
