<?xml version="1.0" encoding="utf-8"?>
<!-- Generator: Adobe Illustrator 19.1.0, SVG Export Plug-In . SVG Version: 6.00 Build 0)  -->
<!DOCTYPE svg PUBLIC "-//W3C//DTD SVG 1.1//EN" "http://www.w3.org/Graphics/SVG/1.1/DTD/svg11.dtd">
<svg version="1.1" id="Layer_1" xmlns="http://www.w3.org/2000/svg" xmlns:xlink="http://www.w3.org/1999/xlink" x="0px" y="0px"
	 width="24px" height="24px" viewBox="0 0 24 24" enable-background="new 0 0 24 24" xml:space="preserve">
<path d="M23.6,1.2C23.4,1,23.1,1,22.8,1L15,3L9.3,1.1C9.1,1,8.9,1,8.8,1l-8,2C0.3,3.1,0,3.5,0,4v18c0,0.3,0.1,0.6,0.4,0.8
	C0.6,22.9,0.8,23,1,23c0.1,0,0.2,0,0.2,0L9,21l5.7,1.9c0.2,0.1,0.4,0.1,0.6,0l8-2c0.4-0.1,0.8-0.5,0.8-1V2C24,1.7,23.9,1.4,23.6,1.2
	z M6,13H5c-0.6,0-1-0.4-1-1s0.4-1,1-1h1c0.6,0,1,0.4,1,1S6.6,13,6,13z M11,13h-1c-0.6,0-1-0.4-1-1s0.4-1,1-1h1c0.6,0,1,0.4,1,1
	S11.6,13,11,13z M19.7,13.3c0.4,0.4,0.4,1,0,1.4C19.5,14.9,19.3,15,19,15s-0.5-0.1-0.7-0.3L17,13.4l-1.3,1.3
	C15.5,14.9,15.3,15,15,15s-0.5-0.1-0.7-0.3c-0.4-0.4-0.4-1,0-1.4l1.3-1.3l-1.3-1.3c-0.4-0.4-0.4-1,0-1.4s1-0.4,1.4,0l1.3,1.3
	l1.3-1.3c0.4-0.4,1-0.4,1.4,0s0.4,1,0,1.4L18.4,12L19.7,13.3z"/>
</svg>
