<?xml version="1.0" encoding="utf-8"?>
<!-- Generator: Adobe Illustrator 19.1.0, SVG Export Plug-In . SVG Version: 6.00 Build 0)  -->
<!DOCTYPE svg PUBLIC "-//W3C//DTD SVG 1.1//EN" "http://www.w3.org/Graphics/SVG/1.1/DTD/svg11.dtd">
<svg version="1.1" id="Layer_1" xmlns="http://www.w3.org/2000/svg" xmlns:xlink="http://www.w3.org/1999/xlink" x="0px" y="0px"
	 width="24px" height="24px" viewBox="0 0 24 24" enable-background="new 0 0 24 24" xml:space="preserve">
<path d="M11,9.9V14c0,0.6,0.4,1,1,1s1-0.4,1-1V9.9c2.3-0.5,4-2.5,4-4.9c0-2.8-2.2-5-5-5S7,2.2,7,5C7,7.4,8.7,9.4,11,9.9z"/>
<path d="M23.6,4.2C23.4,4,23.1,4,22.8,4L19,5c0,0,0,0,0,0c0,0.7-0.1,1.4-0.3,2.1L22,6.3v12.9L15,21l-5.7-1.9C9.1,19,8.9,19,8.8,19
	L2,20.7V7.8L5.3,7C5.1,6.3,5,5.7,5,5c0,0,0,0,0,0L0.8,6C0.3,6.1,0,6.5,0,7v15c0,0.3,0.1,0.6,0.4,0.8C0.6,22.9,0.8,23,1,23
	c0.1,0,0.2,0,0.2,0L9,21l5.7,1.9c0.2,0.1,0.4,0.1,0.6,0l8-2c0.4-0.1,0.8-0.5,0.8-1V5C24,4.7,23.9,4.4,23.6,4.2z"/>
</svg>
