<?xml version="1.0" encoding="utf-8"?>
<!-- Generator: Adobe Illustrator 19.1.0, SVG Export Plug-In . SVG Version: 6.00 Build 0)  -->
<!DOCTYPE svg PUBLIC "-//W3C//DTD SVG 1.1//EN" "http://www.w3.org/Graphics/SVG/1.1/DTD/svg11.dtd">
<svg version="1.1" id="Layer_1" xmlns="http://www.w3.org/2000/svg" xmlns:xlink="http://www.w3.org/1999/xlink" x="0px" y="0px"
	 width="24px" height="24px" viewBox="0 0 24 24" enable-background="new 0 0 24 24" xml:space="preserve">
<path d="M12,0C5.4,0,0,5.4,0,12s5.4,12,12,12s12-5.4,12-12S18.6,0,12,0z M11,3c0-0.6,0.4-1,1-1s1,0.4,1,1v1c0,0.6-0.4,1-1,1
	s-1-0.4-1-1V3z M4,13H3c-0.6,0-1-0.4-1-1s0.4-1,1-1h1c0.6,0,1,0.4,1,1S4.6,13,4,13z M13,21c0,0.6-0.4,1-1,1s-1-0.4-1-1v-1
	c0-0.6,0.4-1,1-1s1,0.4,1,1V21z M17.2,8.1l-2.1,6.4c-0.1,0.3-0.3,0.5-0.6,0.6l-6.4,2.1c-0.1,0-0.2,0.1-0.3,0.1
	c-0.3,0-0.5-0.1-0.7-0.3c-0.3-0.3-0.4-0.7-0.2-1l2.1-6.4C9,9.3,9.3,9,9.6,8.9l6.4-2.1c0.4-0.1,0.8,0,1,0.2
	C17.2,7.3,17.3,7.7,17.2,8.1z M21,13h-1c-0.6,0-1-0.4-1-1s0.4-1,1-1h1c0.6,0,1,0.4,1,1S21.6,13,21,13z"/>
<polygon points="13.3,13.3 14.7,9.3 10.7,10.7 "/>
</svg>
