<?xml version="1.0" encoding="utf-8"?>
<!-- Generator: Adobe Illustrator 19.1.0, SVG Export Plug-In . SVG Version: 6.00 Build 0)  -->
<!DOCTYPE svg PUBLIC "-//W3C//DTD SVG 1.1//EN" "http://www.w3.org/Graphics/SVG/1.1/DTD/svg11.dtd">
<svg version="1.1" id="Layer_1" xmlns="http://www.w3.org/2000/svg" xmlns:xlink="http://www.w3.org/1999/xlink" x="0px" y="0px"
	 width="24px" height="24px" viewBox="0 0 24 24" enable-background="new 0 0 24 24" xml:space="preserve">
<path d="M6,19h12c0.6,0,1-0.4,1-1v-4c0-2.2-1.8-4-4-4H9c-2.2,0-4,1.8-4,4v4C5,18.6,5.4,19,6,19z"/>
<path d="M12,9c2.2,0,4-1.8,4-4V4c0-2.2-1.8-4-4-4S8,1.8,8,4v1C8,7.2,9.8,9,12,9z"/>
<path d="M21,15.6v2.2c0.7,0.4,1,0.9,1,1.2c0,1.2-4,3-10,3S2,20.2,2,19c0-0.3,0.3-0.7,1-1.1v-2.3c-1.9,0.9-3,2-3,3.4c0,3.3,6,5,12,5
	s12-1.7,12-5C24,17.7,22.9,16.5,21,15.6z"/>
</svg>
