<?xml version="1.0" encoding="utf-8"?>
<!-- Generator: Adobe Illustrator 19.1.0, SVG Export Plug-In . SVG Version: 6.00 Build 0)  -->
<!DOCTYPE svg PUBLIC "-//W3C//DTD SVG 1.1//EN" "http://www.w3.org/Graphics/SVG/1.1/DTD/svg11.dtd">
<svg version="1.1" id="Layer_1" xmlns="http://www.w3.org/2000/svg" xmlns:xlink="http://www.w3.org/1999/xlink" x="0px" y="0px"
	 width="24px" height="24px" viewBox="0 0 24 24" enable-background="new 0 0 24 24" xml:space="preserve">
<circle cx="20" cy="4" r="3"/>
<path d="M14,9V8c0-1.1-0.9-2-2-2s-2,0.9-2,2v1c0,1.1,0.9,2,2,2S14,10.1,14,9z"/>
<path d="M8.2,16h7.7c0.7,0,1.2-0.7,1-1.3c-0.5-1.6-2-2.7-3.8-2.7h-2c-1.8,0-3.3,1.1-3.8,2.7C7,15.3,7.5,16,8.2,16z"/>
<path d="M23.2,7.8c-0.5,0.4-1.1,0.8-1.8,1c0.4,1,0.5,2.1,0.5,3.2c0,5.5-4.5,10-10,10S2,17.5,2,12S6.5,2,12,2c1.1,0,2.2,0.2,3.2,0.5
	c0.2-0.7,0.5-1.3,1-1.8C14.9,0.3,13.5,0,12,0C5.4,0,0,5.4,0,12s5.4,12,12,12s12-5.4,12-12C24,10.5,23.7,9.1,23.2,7.8z"/>
</svg>
