<?xml version="1.0" encoding="utf-8"?>
<!-- Generator: Adobe Illustrator 19.1.0, SVG Export Plug-In . SVG Version: 6.00 Build 0)  -->
<!DOCTYPE svg PUBLIC "-//W3C//DTD SVG 1.1//EN" "http://www.w3.org/Graphics/SVG/1.1/DTD/svg11.dtd">
<svg version="1.1" id="Layer_1" xmlns="http://www.w3.org/2000/svg" xmlns:xlink="http://www.w3.org/1999/xlink" x="0px" y="0px"
	 width="24px" height="24px" viewBox="0 0 24 24" enable-background="new 0 0 24 24" xml:space="preserve">
<path d="M19,7c0-3.9-3.1-7-7-7S5,3.1,5,7c0,3.5,2.6,6.4,6,6.9V19c0,0.6,0.4,1,1,1s1-0.4,1-1v-5.1C16.4,13.4,19,10.5,19,7z"/>
<path d="M15,16.2v2c3.3,0.4,5,1.4,5,1.8c0,0.5-2.8,2-8,2s-8-1.5-8-2c0-0.4,1.7-1.4,5-1.8v-2c-3.7,0.4-7,1.7-7,3.8c0,2.7,5.2,4,10,4
	s10-1.3,10-4C22,17.8,18.7,16.6,15,16.2z"/>
</svg>
