<?xml version="1.0" encoding="utf-8"?>
<!-- Generator: Adobe Illustrator 19.1.0, SVG Export Plug-In . SVG Version: 6.00 Build 0)  -->
<!DOCTYPE svg PUBLIC "-//W3C//DTD SVG 1.1//EN" "http://www.w3.org/Graphics/SVG/1.1/DTD/svg11.dtd">
<svg version="1.1" id="Layer_1" xmlns="http://www.w3.org/2000/svg" xmlns:xlink="http://www.w3.org/1999/xlink" x="0px" y="0px"
	 width="24px" height="24px" viewBox="0 0 24 24" enable-background="new 0 0 24 24" xml:space="preserve">
<path d="M20,4H7V1c0-0.6-0.4-1-1-1H3C1.3,0,0,1.3,0,3v13c0,2.2,1.8,4,4,4h13v3c0,0.6,0.4,1,1,1h3c1.7,0,3-1.3,3-3V8
	C24,5.8,22.2,4,20,4z M3,4C2.4,4,2,3.6,2,3s0.4-1,1-1h2v2H3z M6,13H5c-0.6,0-1-0.4-1-1s0.4-1,1-1h1c0.6,0,1,0.4,1,1S6.6,13,6,13z
	 M11,13h-1c-0.6,0-1-0.4-1-1s0.4-1,1-1h1c0.6,0,1,0.4,1,1S11.6,13,11,13z M15,15c-0.3,0-0.5-0.1-0.7-0.3c-0.4-0.4-0.4-1,0-1.4
	l1.3-1.3l-1.3-1.3c-0.4-0.4-0.4-1,0-1.4s1-0.4,1.4,0l1.3,1.3l1.3-1.3c0.4-0.4,1-0.4,1.4,0s0.4,1,0,1.4L18.4,12l1.3,1.3
	c0.4,0.4,0.4,1,0,1.4C19.5,14.9,19.3,15,19,15s-0.5-0.1-0.7-0.3L17,13.4l-1.3,1.3C15.5,14.9,15.3,15,15,15z M21,22h-2v-2h2
	c0.6,0,1,0.4,1,1S21.6,22,21,22z"/>
</svg>
