<?xml version="1.0" encoding="utf-8"?>
<!-- Generator: Adobe Illustrator 19.1.0, SVG Export Plug-In . SVG Version: 6.00 Build 0)  -->
<!DOCTYPE svg PUBLIC "-//W3C//DTD SVG 1.1//EN" "http://www.w3.org/Graphics/SVG/1.1/DTD/svg11.dtd">
<svg version="1.1" id="Layer_1" xmlns="http://www.w3.org/2000/svg" xmlns:xlink="http://www.w3.org/1999/xlink" x="0px" y="0px"
	 width="64px" height="64px" viewBox="0 0 64 64" enable-background="new 0 0 64 64" xml:space="preserve">
<path d="M42,25H22c-0.6,0-1,0.4-1,1s0.4,1,1,1h20c0.6,0,1-0.4,1-1S42.6,25,42,25z"/>
<path d="M42,33H22c-0.6,0-1,0.4-1,1s0.4,1,1,1h20c0.6,0,1-0.4,1-1S42.6,33,42,33z"/>
<path d="M30,41h-8c-0.6,0-1,0.4-1,1s0.4,1,1,1h8c0.6,0,1-0.4,1-1S30.6,41,30,41z"/>
<path d="M42,5h-5.1c-0.5-2.3-2.5-4-4.9-4s-4.4,1.7-4.9,4H22c-0.6,0-1,0.4-1,1v1H8C7.4,7,7,7.4,7,8v54c0,0.6,0.4,1,1,1h48
	c0.6,0,1-0.4,1-1V8c0-0.6-0.4-1-1-1H43V6C43,5.4,42.6,5,42,5z M49,43h-9c-0.6,0-1,0.4-1,1v9H15V15h6v1c0,0.6,0.4,1,1,1h20
	c0.6,0,1-0.4,1-1v-1h6V43z M47.6,45L41,51.6V45H47.6z M23,7h5c0.6,0,1-0.4,1-1c0-1.7,1.3-3,3-3s3,1.3,3,3c0,0.6,0.4,1,1,1h5v8H23V7z
	 M55,9v52H9V9h12v4h-7c-0.6,0-1,0.4-1,1v40c0,0.6,0.4,1,1,1h26c0.1,0,0.3,0,0.4-0.1c0.1-0.1,0.2-0.1,0.3-0.2l10-10
	c0.1-0.1,0.2-0.2,0.2-0.3C51,44.3,51,44.1,51,44V14c0-0.6-0.4-1-1-1h-7V9H55z"/>
</svg>
