<?xml version="1.0" encoding="utf-8"?>
<!-- Generator: Adobe Illustrator 19.1.0, SVG Export Plug-In . SVG Version: 6.00 Build 0)  -->
<!DOCTYPE svg PUBLIC "-//W3C//DTD SVG 1.1//EN" "http://www.w3.org/Graphics/SVG/1.1/DTD/svg11.dtd">
<svg version="1.1" id="Layer_1" xmlns="http://www.w3.org/2000/svg" xmlns:xlink="http://www.w3.org/1999/xlink" x="0px" y="0px"
	 width="64px" height="64px" viewBox="0 0 64 64" enable-background="new 0 0 64 64" xml:space="preserve">
<path d="M62,5H2C1.4,5,1,5.4,1,6v52c0,0.6,0.4,1,1,1h60c0.6,0,1-0.4,1-1V6C63,5.4,62.6,5,62,5z M61,19.7l-9.1,12.8l-3.5-3.5
	C48.8,28,49,27,49,26c0-3.5-2.6-6.4-6-6.9V7h18V19.7z M42,31c-1.9,0-3.6-1.1-4.4-2.7c0-0.1-0.1-0.3-0.2-0.4c0,0,0,0,0,0
	C37.1,27.3,37,26.7,37,26c0-2.8,2.2-5,5-5s5,2.2,5,5c0,0.8-0.2,1.5-0.5,2.2c-0.1,0-0.1,0.1-0.2,0.1C46.1,28.5,46,28.7,46,29
	C45.1,30.2,43.6,31,42,31z M41,7v12.1c-3.4,0.5-6,3.4-6,6.9c0,0.8,0.1,1.5,0.4,2.2l-5.3,4.4l-7.4-7.4c-0.2-0.2-0.6-0.3-0.9-0.3
	c-0.3,0.1-0.6,0.3-0.7,0.5l-5.4,10.8l-5-5C10.5,31.1,10.3,31,10,31c0,0,0,0,0,0c-0.3,0-0.5,0.1-0.7,0.3L3,37.7V7H41z M3,40.6l7-7.2
	l5.3,5.3c0.2,0.2,0.5,0.3,0.9,0.3c0.3-0.1,0.6-0.3,0.7-0.5l5.4-10.8l7,7c0.4,0.4,1,0.4,1.3,0.1l5.7-4.7c1.1,1.5,2.8,2.6,4.7,2.9V57
	H3V40.6z M43,57V32.9c1.7-0.2,3.2-1.1,4.2-2.3l4.1,4.1c0.2,0.2,0.4,0.3,0.7,0.3c0,0,0.1,0,0.1,0c0.3,0,0.6-0.2,0.7-0.4L61,23.1V57
	H43z"/>
</svg>
