<?xml version="1.0" encoding="utf-8"?>
<!-- Generator: Adobe Illustrator 19.1.0, SVG Export Plug-In . SVG Version: 6.00 Build 0)  -->
<!DOCTYPE svg PUBLIC "-//W3C//DTD SVG 1.1//EN" "http://www.w3.org/Graphics/SVG/1.1/DTD/svg11.dtd">
<svg version="1.1" id="Layer_1" xmlns="http://www.w3.org/2000/svg" xmlns:xlink="http://www.w3.org/1999/xlink" x="0px" y="0px"
	 width="64px" height="64px" viewBox="0 0 64 64" enable-background="new 0 0 64 64" xml:space="preserve">
<path d="M27,14c0-0.6-0.4-1-1-1s-1,0.4-1,1v11H14c-0.6,0-1,0.4-1,1s0.4,1,1,1h12c0.6,0,1-0.4,1-1V14z"/>
<path d="M63,29c0-3.4-4.8-6-11-6c-0.4,0-0.8,0-1.2,0C49.3,10.6,38.6,1,26,1C12.2,1,1,12.2,1,26s11.2,25,25,25c0.3,0,0.7,0,1,0
	c0,0,0,0,0,0c0,1.1,0.5,2.1,1.4,3c-0.9,0.9-1.4,1.9-1.4,3c0,3.4,4.8,6,11,6s11-2.6,11-6c0-1.1-0.5-2.1-1.4-3c0.4-0.4,0.7-0.8,1-1.3
	c1.1,0.2,2.3,0.3,3.4,0.3c6.2,0,11-2.6,11-6c0-1.1-0.5-2.1-1.4-3c0.9-0.9,1.4-1.9,1.4-3c0-1.1-0.5-2.1-1.4-3c0.9-0.9,1.4-1.9,1.4-3
	c0-1.1-0.5-2.1-1.4-3C62.5,31.1,63,30.1,63,29z M61,29c0,0.7-0.6,1.5-1.5,2.2c0,0,0,0,0,0c-1.6,1-4.2,1.8-7.4,1.8c-5.3,0-9-2.1-9-4
	c0-1.6,2.7-3.4,6.8-3.9c0.1,0,0.2,0,0.2,0c0.1,0,0.2,0,0.3-0.1c0.5,0,1.1-0.1,1.7-0.1C57.3,25,61,27.1,61,29z M26,49
	C13.3,49,3,38.7,3,26S13.3,3,26,3c11.6,0,21.4,8.8,22.8,20.2C44.2,24,41,26.2,41,29c0,1.1,0.5,2.1,1.4,3c-0.4,0.4-0.8,0.8-1,1.3
	C40.4,33.1,39.2,33,38,33c-6.2,0-11,2.6-11,6c0,1.1,0.5,2.1,1.4,3c-0.9,0.9-1.4,1.9-1.4,3c0,1.1,0.5,2.1,1.4,3
	c-0.3,0.3-0.6,0.6-0.8,0.9C27.1,49,26.5,49,26,49z M47,51c0,0.1,0,0.1,0,0.2c0,0,0,0.1-0.1,0.1c0,0,0,0.1,0,0.1
	C46.4,53.2,42.9,55,38,55c-5.3,0-9-2.1-9-4c0-0.7,0.6-1.4,1.1-1.8c2,1.1,4.8,1.8,7.9,1.8c3.1,0,5.9-0.7,7.9-1.8
	C46.4,49.6,47,50.3,47,51z M47,45c0,0.1,0,0.2,0,0.2c0,0,0,0.1,0,0.1c0,0,0,0.1,0,0.1c-0.2,0.6-0.7,1.2-1.5,1.7c0,0,0,0,0,0
	c-1.6,1-4.2,1.8-7.4,1.8c-5.3,0-9-2.1-9-4c0-0.7,0.6-1.4,1.1-1.8c2,1.1,4.8,1.8,7.9,1.8c3.1,0,5.9-0.7,7.9-1.8
	C46.4,43.6,47,44.3,47,45z M47,39.1c0,0.1-0.1,0.1-0.1,0.2c0,0.1,0,0.2,0,0.2C46.2,41.3,42.8,43,38,43c-5.3,0-9-2.1-9-4s3.7-4,9-4
	c1.4,0,2.7,0.1,3.8,0.4c0,0,0,0,0,0c0,0,0,0,0.1,0C45,36.1,47,37.6,47,39C47,39,47,39.1,47,39.1z M47,57c0,1.9-3.7,4-9,4s-9-2.1-9-4
	c0-0.7,0.6-1.4,1.1-1.8c2,1.1,4.8,1.8,7.9,1.8s5.9-0.7,7.9-1.8C46.4,55.6,47,56.3,47,57z M61,47c0,1.9-3.7,4-9,4c-1,0-2-0.1-3-0.3
	c-0.1-1-0.5-1.9-1.4-2.7c0.4-0.4,0.7-0.8,1-1.3c1.1,0.2,2.3,0.3,3.4,0.3c3.1,0,5.9-0.7,7.9-1.8C60.4,45.6,61,46.3,61,47z M61,41
	c0,1.9-3.7,4-9,4c-1,0-2-0.1-3-0.3c-0.1-1-0.5-1.9-1.4-2.7c0.4-0.4,0.7-0.8,1-1.3c1.1,0.2,2.3,0.3,3.4,0.3c3.1,0,5.9-0.7,7.9-1.8
	C60.4,39.6,61,40.3,61,41z M61,35c0,1.9-3.7,4-9,4c-1,0-2.1-0.1-3-0.3c-0.2-2.1-2.3-4-5.5-4.9c0.2-0.2,0.4-0.4,0.6-0.6
	c2,1.1,4.8,1.8,7.9,1.8c3.1,0,5.9-0.7,7.9-1.8C60.4,33.6,61,34.3,61,35z"/>
</svg>
