<?xml version="1.0" encoding="utf-8"?>
<!-- Generator: Adobe Illustrator 19.1.0, SVG Export Plug-In . SVG Version: 6.00 Build 0)  -->
<!DOCTYPE svg PUBLIC "-//W3C//DTD SVG 1.1//EN" "http://www.w3.org/Graphics/SVG/1.1/DTD/svg11.dtd">
<svg version="1.1" id="Layer_1" xmlns="http://www.w3.org/2000/svg" xmlns:xlink="http://www.w3.org/1999/xlink" x="0px" y="0px"
	 width="64px" height="64px" viewBox="0 0 64 64" enable-background="new 0 0 64 64" xml:space="preserve">
<path d="M62.9,27.6c0,0,0-0.1-0.1-0.1l-12-18c-0.1-0.1-0.2-0.2-0.3-0.3c0,0,0,0,0,0h0c0,0,0,0,0,0h0l0,0C50.4,9,50.2,9,50,9H36.9
	c-0.5-2.3-2.5-4-4.9-4s-4.4,1.7-4.9,4H14c-0.2,0-0.4,0-0.6,0.2c0,0,0,0,0,0h0c0,0,0,0,0,0h0c0,0,0,0,0,0c-0.1,0.1-0.2,0.2-0.3,0.3
	l-12,18c0,0,0,0.1-0.1,0.1c0,0,0,0.1,0,0.1C1,27.8,1,27.9,1,28c0,4.8,6.1,9,13,9s13-4.2,13-9c0-0.1,0-0.2-0.1-0.3c0,0,0-0.1,0-0.1
	c0,0,0-0.1-0.1-0.1L15.9,11h11.2c0.4,2,1.9,3.5,3.9,3.9V55H18c-0.6,0-1,0.4-1,1s0.4,1,1,1h28c0.6,0,1-0.4,1-1s-0.4-1-1-1H33V14.9
	c2-0.4,3.5-1.9,3.9-3.9h11.2l-11,16.4c0,0,0,0.1-0.1,0.1c0,0,0,0.1,0,0.1c0,0.1-0.1,0.2-0.1,0.3c0,4.8,6.1,9,13,9s13-4.2,13-9
	C63,27.9,63,27.8,62.9,27.6C62.9,27.6,62.9,27.6,62.9,27.6z M14,35c-5.2,0-10-2.8-10.9-6h21.7C24,32.2,19.2,35,14,35z M24.1,27H3.9
	L14,11.8L24.1,27z M32,13c-1.7,0-3-1.3-3-3s1.3-3,3-3s3,1.3,3,3S33.7,13,32,13z M50,11.8L60.1,27H39.9L50,11.8z M50,35
	c-5.2,0-10-2.8-10.9-6h21.7C60,32.2,55.2,35,50,35z"/>
</svg>
