<?xml version="1.0" encoding="utf-8"?>
<!-- Generator: Adobe Illustrator 19.1.0, SVG Export Plug-In . SVG Version: 6.00 Build 0)  -->
<!DOCTYPE svg PUBLIC "-//W3C//DTD SVG 1.1//EN" "http://www.w3.org/Graphics/SVG/1.1/DTD/svg11.dtd">
<svg version="1.1" id="Layer_1" xmlns="http://www.w3.org/2000/svg" xmlns:xlink="http://www.w3.org/1999/xlink" x="0px" y="0px"
	 width="64px" height="64px" viewBox="0 0 64 64" enable-background="new 0 0 64 64" xml:space="preserve">
<path d="M26,35c-0.6,0-1,0.4-1,1v24c0,0.6,0.4,1,1,1h12c0.6,0,1-0.4,1-1V36c0-0.6-0.4-1-1-1H26z M37,59H27V37h10V59z"/>
<path d="M5,48v12c0,0.6,0.4,1,1,1h12c0.6,0,1-0.4,1-1V48c0-0.6-0.4-1-1-1H6C5.4,47,5,47.4,5,48z M7,49h10v10H7V49z"/>
<path d="M45,24v36c0,0.6,0.4,1,1,1h12c0.6,0,1-0.4,1-1V24c0-0.6-0.4-1-1-1H46C45.4,23,45,23.4,45,24z M47,25h10v34H47V25z"/>
<path d="M11.3,22.7c0.4,0.4,1,0.4,1.4,0l9.3-9.3l9.3,9.3c0.2,0.2,0.5,0.3,0.7,0.3s0.5-0.1,0.7-0.3L51,4.4V14c0,0.6,0.4,1,1,1
	s1-0.4,1-1V2c0-0.1,0-0.3-0.1-0.4c-0.1-0.2-0.3-0.4-0.5-0.5C52.3,1,52.1,1,52,1H40c-0.6,0-1,0.4-1,1s0.4,1,1,1h9.6L32,20.6l-9.3-9.3
	c-0.4-0.4-1-0.4-1.4,0l-10,10C10.9,21.7,10.9,22.3,11.3,22.7z"/>
</svg>
