<?xml version="1.0" encoding="utf-8"?>
<!-- Generator: Adobe Illustrator 19.1.0, SVG Export Plug-In . SVG Version: 6.00 Build 0)  -->
<!DOCTYPE svg PUBLIC "-//W3C//DTD SVG 1.1//EN" "http://www.w3.org/Graphics/SVG/1.1/DTD/svg11.dtd">
<svg version="1.1" id="Layer_1" xmlns="http://www.w3.org/2000/svg" xmlns:xlink="http://www.w3.org/1999/xlink" x="0px" y="0px"
	 width="64px" height="64px" viewBox="0 0 64 64" enable-background="new 0 0 64 64" xml:space="preserve">
<path d="M60,33h-3V18c0-0.6-0.4-1-1-1h-3v-7c0-0.6-0.4-1-1-1h-5V4c0-0.6-0.4-1-1-1H12c-0.6,0-1,0.4-1,1v5H8c-2.8,0-5,2.2-5,5v40
	c0,5,4,9,9,9h44c0.6,0,1-0.4,1-1V47h3c0.6,0,1-0.4,1-1V34C61,33.4,60.6,33,60,33z M51,11v6h-4v-6H51z M13,5h32v12H13V5z M8,11h3v6H8
	c-1.7,0-3-1.3-3-3S6.3,11,8,11z M55,61H12c-3.9,0-7-3.1-7-7V18c0,0,0.1,0.1,0.1,0.1c0.1,0.1,0.2,0.1,0.2,0.2
	c0.2,0.1,0.3,0.2,0.5,0.3c0.1,0,0.2,0.1,0.3,0.1c0.2,0.1,0.4,0.1,0.6,0.2c0.1,0,0.2,0.1,0.3,0.1C7.4,19,7.7,19,8,19h4h34h6h3v14h-9
	c-3.9,0-7,3.1-7,7s3.1,7,7,7h9V61z M59,45H46c-2.8,0-5-2.2-5-5s2.2-5,5-5h13V45z"/>
<path d="M50,39h-2c-0.6,0-1,0.4-1,1s0.4,1,1,1h2c0.6,0,1-0.4,1-1S50.6,39,50,39z"/>
</svg>
