<?xml version="1.0" encoding="utf-8"?>
<!-- Generator: Adobe Illustrator 19.1.0, SVG Export Plug-In . SVG Version: 6.00 Build 0)  -->
<!DOCTYPE svg PUBLIC "-//W3C//DTD SVG 1.1//EN" "http://www.w3.org/Graphics/SVG/1.1/DTD/svg11.dtd">
<svg version="1.1" id="Layer_1" xmlns="http://www.w3.org/2000/svg" xmlns:xlink="http://www.w3.org/1999/xlink" x="0px" y="0px"
	 width="64px" height="64px" viewBox="0 0 64 64" enable-background="new 0 0 64 64" xml:space="preserve">
<path d="M55.4,45c2.9-1.5,5.6-5,5.6-11c0-0.6-0.4-1-1-1c-5.3,0-11-3.4-11-9v-6c0-9.4-7.6-17-17-17S15,8.6,15,18v6c0,5.6-5.7,9-11,9
	c-0.6,0-1,0.4-1,1c0,6,2.6,9.4,5.6,11C3.9,49.2,1,55.3,1,62c0,0.6,0.4,1,1,1h60c0.6,0,1-0.4,1-1C63,55.3,60.1,49.2,55.4,45z M59,35
	c-0.3,6-3.7,8-5.3,8.6c-2.5-1.9-5.5-3.3-8.7-4v-2.6c1.8-2.1,3.1-4.7,3.7-7.5C50.9,32.7,54.9,34.7,59,35z M17,22.1
	c2,1.6,3.9,2.9,7,2.9c6,0,11.2-2.6,14-6.9c2,2.9,5.2,4.6,9,4.9V26c0,8.3-6.7,15-15,15s-15-6.7-15-15V22.1z M21,38.9
	c2.4,2.1,5.5,3.5,8.8,3.9L21,46.5V38.9z M43,38.9v7.6l-8.8-3.7C37.5,42.4,40.6,41,43,38.9z M32,3c8.3,0,15,6.7,15,15v2.9
	c-3.7-0.3-6.7-2.2-8.1-5.4C38.7,15.2,38.4,15,38,15s-0.7,0.2-0.9,0.6C35,20.2,30,23,24,23c-2.9,0-4.4-1.3-6.5-3.1
	c-0.1-0.1-0.3-0.3-0.5-0.4V18C17,9.7,23.7,3,32,3z M5,35c4-0.3,8.1-2.3,10.3-5.6c0.6,2.8,1.9,5.4,3.7,7.5v2.6
	c-3.2,0.7-6.2,2.1-8.7,4C8.7,43,5.3,41,5,35z M19,41.6V48c0,0.3,0.2,0.6,0.4,0.8s0.6,0.2,0.9,0.1L31,44.5V61H3
	C3.5,51.7,10,43.8,19,41.6z M33,61V44.5l10.6,4.4C43.7,49,43.9,49,44,49c0.2,0,0.4-0.1,0.6-0.2c0.3-0.2,0.4-0.5,0.4-0.8v-6.4
	c9,2.2,15.5,10.1,16,19.4H33z"/>
<path d="M50,55h-8c-0.6,0-1,0.4-1,1s0.4,1,1,1h8c0.6,0,1-0.4,1-1S50.6,55,50,55z"/>
</svg>
