<?xml version="1.0" encoding="utf-8"?>
<!-- Generator: Adobe Illustrator 19.1.0, SVG Export Plug-In . SVG Version: 6.00 Build 0)  -->
<!DOCTYPE svg PUBLIC "-//W3C//DTD SVG 1.1//EN" "http://www.w3.org/Graphics/SVG/1.1/DTD/svg11.dtd">
<svg version="1.1" id="Layer_1" xmlns="http://www.w3.org/2000/svg" xmlns:xlink="http://www.w3.org/1999/xlink" x="0px" y="0px"
	 width="64px" height="64px" viewBox="0 0 64 64" enable-background="new 0 0 64 64" xml:space="preserve">
<path d="M4,43h11c0,11,9,20,20,20s20-9,20-20h5c0.6,0,1-0.4,1-1V16c0-0.6-0.4-1-1-1H49V8c0-2.8-2.2-5-5-5c-1.3,0-2.4,0.5-3.3,1.3
	C40,2.4,38.2,1,36,1s-4,1.4-4.7,3.3C30.4,3.5,29.3,3,28,3c-2.2,0-4,1.4-4.7,3.3C22.4,5.5,21.3,5,20,5c-2.8,0-5,2.2-5,5v5H4
	c-0.6,0-1,0.4-1,1v26C3,42.6,3.4,43,4,43z M53,43c0,9.9-8.1,18-18,18s-18-8.1-18-18h17.5c-0.9,1.5-1.5,3.2-1.5,5c0,0.6,0.4,1,1,1
	s1-0.4,1-1c0-2,0.8-3.8,2.2-5.3c0,0,0,0,0.1-0.1c2-2.2,5.2-3.7,8.8-3.7c0.6,0,1-0.4,1-1v-6c0-3.6,2.5-6.5,6-6.9V43z M44,5
	c1.7,0,3,1.3,3,3v7h-6V8C41,6.3,42.3,5,44,5z M33,6c0-1.7,1.3-3,3-3s3,1.3,3,3v2v7h-6V8V6z M25,8c0-1.7,1.3-3,3-3s3,1.3,3,3v7h-6v-5
	V8z M17,10c0-1.7,1.3-3,3-3s3,1.3,3,3v5h-6V10z M5,17h54v24h-4V24c0-0.6-0.4-1-1-1c-5,0-9,4-9,9v5c-3.5,0.2-6.7,1.7-8.9,4H5V17z"/>
<path d="M32,35c3.3,0,6-2.7,6-6s-2.7-6-6-6s-6,2.7-6,6S28.7,35,32,35z M32,25c2.2,0,4,1.8,4,4s-1.8,4-4,4s-4-1.8-4-4S29.8,25,32,25z
	"/>
<path d="M21,24c0-0.6-0.4-1-1-1h-8c-0.6,0-1,0.4-1,1s0.4,1,1,1h8C20.6,25,21,24.6,21,24z"/>
</svg>
