<?xml version="1.0" encoding="utf-8"?>
<!-- Generator: Adobe Illustrator 19.1.0, SVG Export Plug-In . SVG Version: 6.00 Build 0)  -->
<!DOCTYPE svg PUBLIC "-//W3C//DTD SVG 1.1//EN" "http://www.w3.org/Graphics/SVG/1.1/DTD/svg11.dtd">
<svg version="1.1" id="Layer_1" xmlns="http://www.w3.org/2000/svg" xmlns:xlink="http://www.w3.org/1999/xlink" x="0px" y="0px"
	 width="64px" height="64px" viewBox="0 0 64 64" enable-background="new 0 0 64 64" xml:space="preserve">
<path d="M39,24c0,5,4,9,9,9s9-4,9-9s-4-9-9-9S39,19,39,24z M55,24c0,3.9-3.1,7-7,7s-7-3.1-7-7s3.1-7,7-7S55,20.1,55,24z"/>
<path d="M2,55h8c0.6,0,1-0.4,1-1v-2.3l12.9,6.5c1.3,0.7,2.8,1,4.3,1c1.2,0,2.4-0.2,3.6-0.7l28.6-11.6c0.4-0.2,0.7-0.6,0.6-1.1
	c0-0.2-1-4.8-9-4.8H39.2c-1.7-2.3-4.5-4-7.2-4h-7.5c-2.6-3.5-7.8-6-12.5-6h-1v-3c0-0.6-0.4-1-1-1H2c-0.6,0-1,0.4-1,1v26
	C1,54.6,1.4,55,2,55z M12,33c4.2,0,9,2.4,11.2,5.6c0.2,0.3,0.5,0.4,0.8,0.4h8c3.1,0,6.3,2.9,6.9,6H22c-0.6,0-1,0.4-1,1s0.4,1,1,1h18
	c0.6,0,1-0.4,1-1c0-1-0.2-2-0.6-3H52c4.4,0,6.1,1.5,6.7,2.5L31,56.7c-2,0.8-4.3,0.7-6.2-0.3l-13.8-7V33H12z M3,29h6v20.5
	c0,0,0,0,0,0c-0.1,0.3-0.1,0.6,0,0.9V53H3V29z"/>
<path d="M15,12c0,5,4,9,9,9s9-4,9-9s-4-9-9-9S15,7,15,12z M31,12c0,3.9-3.1,7-7,7s-7-3.1-7-7s3.1-7,7-7S31,8.1,31,12z"/>
<path d="M21,12c0,0.6,0.4,1,1,1h4c0.6,0,1-0.4,1-1s-0.4-1-1-1h-4C21.4,11,21,11.4,21,12z"/>
<path d="M45,24c0,0.6,0.4,1,1,1h4c0.6,0,1-0.4,1-1s-0.4-1-1-1h-4C45.4,23,45,23.4,45,24z"/>
</svg>
