<?xml version="1.0" encoding="utf-8"?>
<!-- Generator: Adobe Illustrator 19.1.0, SVG Export Plug-In . SVG Version: 6.00 Build 0)  -->
<!DOCTYPE svg PUBLIC "-//W3C//DTD SVG 1.1//EN" "http://www.w3.org/Graphics/SVG/1.1/DTD/svg11.dtd">
<svg version="1.1" id="Layer_1" xmlns="http://www.w3.org/2000/svg" xmlns:xlink="http://www.w3.org/1999/xlink" x="0px" y="0px"
	 width="64px" height="64px" viewBox="0 0 64 64" enable-background="new 0 0 64 64" xml:space="preserve">
<path d="M46,63h6c2.8,0,5-2.2,5-5V6c0-2.8-2.2-5-5-5h-6H8C7.4,1,7,1.4,7,2v60c0,0.6,0.4,1,1,1H46z M55,49h-8V29h8V49z M45,49H9V29
	h36V49z M9,51h36v10H9V51z M52,61h-5V51h8v7C55,59.7,53.7,61,52,61z M55,6v21h-8V3h5C53.7,3,55,4.3,55,6z M19,3h10v13.1l-4.4-3
	c-0.3-0.2-0.8-0.2-1.1,0l-4.4,3V3z M17,3v15c0,0.4,0.2,0.7,0.5,0.9c0.3,0.2,0.7,0.2,1,0l5.4-3.6l5.4,3.6c0.2,0.1,0.4,0.2,0.6,0.2
	c0.2,0,0.3,0,0.5-0.1c0.3-0.2,0.5-0.5,0.5-0.9V3h14v24H9V3H17z"/>
<path d="M18,37h16c0.6,0,1-0.4,1-1s-0.4-1-1-1H18c-0.6,0-1,0.4-1,1S17.4,37,18,37z"/>
<path d="M26,41h-8c-0.6,0-1,0.4-1,1s0.4,1,1,1h8c0.6,0,1-0.4,1-1S26.6,41,26,41z"/>
</svg>
