<?xml version="1.0" encoding="utf-8"?>
<!-- Generator: Adobe Illustrator 19.1.0, SVG Export Plug-In . SVG Version: 6.00 Build 0)  -->
<!DOCTYPE svg PUBLIC "-//W3C//DTD SVG 1.1//EN" "http://www.w3.org/Graphics/SVG/1.1/DTD/svg11.dtd">
<svg version="1.1" id="Layer_1" xmlns="http://www.w3.org/2000/svg" xmlns:xlink="http://www.w3.org/1999/xlink" x="0px" y="0px"
	 width="64px" height="64px" viewBox="0 0 64 64" enable-background="new 0 0 64 64" xml:space="preserve">
<path d="M62,29H44c-0.6,0-1,0.4-1,1s0.4,1,1,1h17v28H3V31h12v5c0,0.6,0.4,1,1,1h6c0.3,0,0.5-0.1,0.7-0.3L44,15.4l2.6,2.6L33.3,31.3
	c-0.4,0.4-0.4,1,0,1.4c0.2,0.2,0.5,0.3,0.7,0.3s0.5-0.1,0.7-0.3l14-14c0.4-0.4,0.4-1,0-1.4L45.4,14l3.3-3.3c0.4-0.4,0.4-1,0-1.4
	l-6-6c-0.4-0.4-1-0.4-1.4,0L15.6,29H2c-0.6,0-1,0.4-1,1v30c0,0.6,0.4,1,1,1h60c0.6,0,1-0.4,1-1V30C63,29.4,62.6,29,62,29z M42,5.4
	l4.6,4.6l-25,25H17v-4.6L42,5.4z"/>
<path d="M48,43H16c-0.6,0-1,0.4-1,1s0.4,1,1,1h32c0.6,0,1-0.4,1-1S48.6,43,48,43z"/>
<path d="M16,51c-0.6,0-1,0.4-1,1s0.4,1,1,1h14c0.6,0,1-0.4,1-1s-0.4-1-1-1H16z"/>
<path d="M48,51h-6c-0.6,0-1,0.4-1,1s0.4,1,1,1h6c0.6,0,1-0.4,1-1S48.6,51,48,51z"/>
</svg>
