<?xml version="1.0" encoding="utf-8"?>
<!-- Generator: Adobe Illustrator 19.1.0, SVG Export Plug-In . SVG Version: 6.00 Build 0)  -->
<!DOCTYPE svg PUBLIC "-//W3C//DTD SVG 1.1//EN" "http://www.w3.org/Graphics/SVG/1.1/DTD/svg11.dtd">
<svg version="1.1" id="Layer_1" xmlns="http://www.w3.org/2000/svg" xmlns:xlink="http://www.w3.org/1999/xlink" x="0px" y="0px"
	 width="64px" height="64px" viewBox="0 0 64 64" enable-background="new 0 0 64 64" xml:space="preserve">
<path d="M28,9C13.1,9,1,21.1,1,36s12.1,27,27,27s27-12.1,27-27c0-0.6-0.4-1-1-1H29V10C29,9.4,28.6,9,28,9z M53,37
	c-0.5,13.3-11.5,24-25,24C14.2,61,3,49.8,3,36c0-13.5,10.7-24.5,24-25v25c0,0.6,0.4,1,1,1H53z"/>
<path d="M36,1c-0.6,0-1,0.4-1,1v26c0,0.6,0.4,1,1,1h26c0.6,0,1-0.4,1-1C63,13.1,50.9,1,36,1z M37,27V3c13,0.5,23.5,11,24,24H37z"/>
</svg>
