<?xml version="1.0" encoding="utf-8"?>
<!-- Generator: Adobe Illustrator 19.1.0, SVG Export Plug-In . SVG Version: 6.00 Build 0)  -->
<!DOCTYPE svg PUBLIC "-//W3C//DTD SVG 1.1//EN" "http://www.w3.org/Graphics/SVG/1.1/DTD/svg11.dtd">
<svg version="1.1" id="Layer_1" xmlns="http://www.w3.org/2000/svg" xmlns:xlink="http://www.w3.org/1999/xlink" x="0px" y="0px"
	 width="64px" height="64px" viewBox="0 0 64 64" enable-background="new 0 0 64 64" xml:space="preserve">
<path d="M2,55h41v3c0,0.4,0.2,0.7,0.5,0.9c0.3,0.2,0.7,0.2,1,0l5.4-3.6l5.4,3.6c0.2,0.1,0.4,0.2,0.6,0.2c0.2,0,0.3,0,0.5-0.1
	c0.3-0.2,0.5-0.5,0.5-0.9V46.5c2.4-2,4-5.1,4-8.5s-1.6-6.5-4-8.5V14c0-0.6-0.4-1-1-1h-9.7L32,3.9C31.9,2.3,30.6,1,29,1
	c-1.6,0-3,1.3-3,3l-14.3,9H2c-0.6,0-1,0.4-1,1v40C1,54.6,1.4,55,2,55z M49,27.1c-5.6,0.5-10,5.2-10,10.9c0,3.4,1.6,6.5,4,8.5V47H9
	V21h40V27.1z M55,56.1l-4.4-3c-0.3-0.2-0.8-0.2-1.1,0l-4.4,3v-8.3c1.5,0.8,3.2,1.2,5,1.2s3.5-0.4,5-1.2V56.1z M59,38
	c0,2.8-1.3,5.3-3.3,7c-0.2,0.1-0.3,0.2-0.4,0.3C53.7,46.4,51.9,47,50,47s-3.7-0.6-5.2-1.7c-0.1-0.2-0.3-0.3-0.4-0.3
	c-2-1.7-3.3-4.2-3.3-7c0-5,4-9,9-9S59,33,59,38z M29,3c0.6,0,1,0.4,1,1s-0.4,1-1,1s-1-0.4-1-1S28.4,3,29,3z M26.7,5.9
	C27.2,6.6,28.1,7,29,7c1,0,1.8-0.5,2.3-1.1L42.6,13H15.4L26.7,5.9z M3,15h52v13.2c-1.2-0.6-2.6-1-4-1.2V20c0-0.6-0.4-1-1-1H8
	c-0.6,0-1,0.4-1,1v28c0,0.6,0.4,1,1,1h35v4H3V15z"/>
<path d="M16,31h20c0.6,0,1-0.4,1-1s-0.4-1-1-1H16c-0.6,0-1,0.4-1,1S15.4,31,16,31z"/>
<path d="M16,39h12c0.6,0,1-0.4,1-1s-0.4-1-1-1H16c-0.6,0-1,0.4-1,1S15.4,39,16,39z"/>
</svg>
