<?xml version="1.0" encoding="utf-8"?>
<!-- Generator: Adobe Illustrator 19.1.0, SVG Export Plug-In . SVG Version: 6.00 Build 0)  -->
<!DOCTYPE svg PUBLIC "-//W3C//DTD SVG 1.1//EN" "http://www.w3.org/Graphics/SVG/1.1/DTD/svg11.dtd">
<svg version="1.1" id="Layer_1" xmlns="http://www.w3.org/2000/svg" xmlns:xlink="http://www.w3.org/1999/xlink" x="0px" y="0px"
	 width="64px" height="64px" viewBox="0 0 64 64" enable-background="new 0 0 64 64" xml:space="preserve">
<path d="M7,38c0,0.6,0.4,1,1,1h6c3,10.4,12.6,18,24,18c5.5,0,10.6-1.7,15-5c0.4-0.3,0.5-1,0.2-1.4s-1-0.5-1.4-0.2
	c-4,3-8.8,4.6-13.8,4.6c-10.2,0-18.9-6.7-21.9-16H36c0.6,0,1-0.4,1-1s-0.4-1-1-1H15.6c-0.4-1.6-0.6-3.3-0.6-5s0.2-3.4,0.6-5H36
	c0.6,0,1-0.4,1-1s-0.4-1-1-1H16.1c3-9.3,11.7-16,21.9-16c5,0,9.8,1.6,13.8,4.6c0.4,0.3,1.1,0.2,1.4-0.2c0.3-0.4,0.2-1.1-0.2-1.4
	c-4.4-3.3-9.5-5-15-5c-11.4,0-21,7.6-24,18H8c-0.6,0-1,0.4-1,1s0.4,1,1,1h5.5c-0.3,1.6-0.5,3.3-0.5,5s0.2,3.4,0.5,5H8
	C7.4,37,7,37.4,7,38z"/>
</svg>
