<?xml version="1.0" encoding="utf-8"?>
<!-- Generator: Adobe Illustrator 19.1.0, SVG Export Plug-In . SVG Version: 6.00 Build 0)  -->
<!DOCTYPE svg PUBLIC "-//W3C//DTD SVG 1.1//EN" "http://www.w3.org/Graphics/SVG/1.1/DTD/svg11.dtd">
<svg version="1.1" id="Layer_1" xmlns="http://www.w3.org/2000/svg" xmlns:xlink="http://www.w3.org/1999/xlink" x="0px" y="0px"
	 width="64px" height="64px" viewBox="0 0 64 64" enable-background="new 0 0 64 64" xml:space="preserve">
<path d="M62,33h-4c-0.6,0-1,0.4-1,1s0.4,1,1,1h1v16h-4.1c-0.4-3.5-2.8-6.3-5.9-7.5V2c0-0.6-0.4-1-1-1H16c-0.6,0-1,0.4-1,1v41.5
	c-3.2,1.1-5.6,4-5.9,7.5H5V35h1c0.6,0,1-0.4,1-1s-0.4-1-1-1H2c-0.6,0-1,0.4-1,1s0.4,1,1,1h1v17c0,0.6,0.4,1,1,1h6h21v8H18
	c-0.6,0-1,0.4-1,1s0.4,1,1,1h28c0.6,0,1-0.4,1-1s-0.4-1-1-1H33v-8h21h6c0.6,0,1-0.4,1-1V35h1c0.6,0,1-0.4,1-1S62.6,33,62,33z M17,3
	h30v40.1c-0.3,0-0.7-0.1-1-0.1H18c-0.3,0-0.7,0-1,0.1V3z M11.1,51c0.5-3.4,3.4-6,6.9-6h28c3.5,0,6.4,2.6,6.9,6H11.1z"/>
</svg>
