<?xml version="1.0" encoding="utf-8"?>
<!-- Generator: Adobe Illustrator 19.1.0, SVG Export Plug-In . SVG Version: 6.00 Build 0)  -->
<!DOCTYPE svg PUBLIC "-//W3C//DTD SVG 1.1//EN" "http://www.w3.org/Graphics/SVG/1.1/DTD/svg11.dtd">
<svg version="1.1" id="Layer_1" xmlns="http://www.w3.org/2000/svg" xmlns:xlink="http://www.w3.org/1999/xlink" x="0px" y="0px"
	 width="64px" height="64px" viewBox="0 0 64 64" enable-background="new 0 0 64 64" xml:space="preserve">
<path d="M42.8,39.2c3.3-2.7,5.6-6.6,6.1-11.1c2.5-2.2,4.1-5.4,4.1-9c0-0.4,0-0.7-0.1-1.1c0-0.5-0.5-0.9-1-0.9h-3C48.4,8.1,41,1,32,1
	S15.6,8.1,15.1,17h-3c-0.5,0-0.9,0.4-1,0.9c0,0.4-0.1,0.7-0.1,1.1c0,3.6,1.6,6.8,4.1,9c0.5,4.5,2.8,8.4,6.1,11.1
	C9.9,40.5,1,50.3,1,62c0,0.6,0.4,1,1,1h60c0.6,0,1-0.4,1-1C63,50.3,54.1,40.5,42.8,39.2z M28.8,49h6.5l3.4,12H25.3L28.8,49z
	 M35.4,47h-6.8l-2.5-5.1c1.8,0.7,3.8,1.1,5.9,1.1c2.1,0,4.1-0.4,5.9-1.1L35.4,47z M32,3c7.9,0,14.4,6.2,14.9,14H17.1
	C17.6,9.2,24.1,3,32,3z M13,19h38c0,3.1-1.4,5.9-3.7,7.7c0,0,0,0,0,0C45.6,28.2,43.4,29,41,29c-3.2,0-6.3-1.6-8.2-4.3
	c-0.2-0.3-0.5-0.4-0.8-0.4s-0.6,0.2-0.8,0.4C29.3,27.4,26.2,29,23,29c-2.4,0-4.5-0.8-6.2-2.2c-0.1-0.1-0.1-0.1-0.2-0.1
	C14.4,24.8,13,22.1,13,19z M17.5,29.6C19.1,30.5,21,31,23,31c3.5,0,6.7-1.5,9-4.1c2.3,2.6,5.5,4.1,9,4.1c2,0,3.9-0.5,5.5-1.4
	c-1,4.1-3.6,7.5-7.2,9.4c-0.1,0-0.1,0.1-0.2,0.1C37.1,40.3,34.6,41,32,41c-2.6,0-5-0.7-7.2-1.8c-0.1,0-0.1-0.1-0.2-0.1
	C21.1,37.1,18.5,33.7,17.5,29.6z M23.4,41l3.5,7.1L23.2,61H3C3.5,50.1,12.4,41.3,23.4,41z M40.8,61l-3.7-12.9l3.5-7.1
	c11,0.3,19.9,9.1,20.4,20H40.8z"/>
</svg>
