<?xml version="1.0" encoding="utf-8"?>
<!-- Generator: Adobe Illustrator 19.1.0, SVG Export Plug-In . SVG Version: 6.00 Build 0)  -->
<!DOCTYPE svg PUBLIC "-//W3C//DTD SVG 1.1//EN" "http://www.w3.org/Graphics/SVG/1.1/DTD/svg11.dtd">
<svg version="1.1" id="Layer_1" xmlns="http://www.w3.org/2000/svg" xmlns:xlink="http://www.w3.org/1999/xlink" x="0px" y="0px"
	 width="64px" height="64px" viewBox="0 0 64 64" enable-background="new 0 0 64 64" xml:space="preserve">
<path d="M4,31c-0.6,0-1,0.4-1,1s0.4,1,1,1h4c0.6,0,1-0.4,1-1s-0.4-1-1-1H4z"/>
<path d="M15.7,14.3l-2.8-2.8c-0.4-0.4-1-0.4-1.4,0s-0.4,1,0,1.4l2.8,2.8c0.2,0.2,0.5,0.3,0.7,0.3s0.5-0.1,0.7-0.3
	C16.1,15.3,16.1,14.7,15.7,14.3z"/>
<path d="M31,4v4c0,0.6,0.4,1,1,1s1-0.4,1-1V4c0-0.6-0.4-1-1-1S31,3.4,31,4z"/>
<path d="M49.7,15.7l2.8-2.8c0.4-0.4,0.4-1,0-1.4s-1-0.4-1.4,0l-2.8,2.8c-0.4,0.4-0.4,1,0,1.4c0.2,0.2,0.5,0.3,0.7,0.3
	S49.5,15.9,49.7,15.7z"/>
<path d="M60,33c0.6,0,1-0.4,1-1s-0.4-1-1-1h-4c-0.6,0-1,0.4-1,1s0.4,1,1,1H60z"/>
<path d="M32,15c-9.4,0-17,7.6-17,17c0,6.7,3.9,12.7,10,15.5V50c0,0.6,0.4,1,1,1h12c0.6,0,1-0.4,1-1v-2.5c6.1-2.8,10-8.8,10-15.5
	C49,22.6,41.4,15,32,15z M37.6,45.9c-0.4,0.2-0.6,0.5-0.6,0.9V49H27v-2.2c0-0.4-0.2-0.8-0.6-0.9C20.7,43.6,17,38.1,17,32
	c0-8.3,6.7-15,15-15s15,6.7,15,15C47,38.1,43.3,43.6,37.6,45.9z"/>
<path d="M39,56c0-0.6-0.4-1-1-1H26c-0.6,0-1,0.4-1,1s0.4,1,1,1h12C38.6,57,39,56.6,39,56z"/>
<path d="M30,59c-0.6,0-1,0.4-1,1s0.4,1,1,1h4c0.6,0,1-0.4,1-1s-0.4-1-1-1H30z"/>
</svg>
