<?xml version="1.0" encoding="utf-8"?>
<!-- Generator: Adobe Illustrator 19.1.0, SVG Export Plug-In . SVG Version: 6.00 Build 0)  -->
<!DOCTYPE svg PUBLIC "-//W3C//DTD SVG 1.1//EN" "http://www.w3.org/Graphics/SVG/1.1/DTD/svg11.dtd">
<svg version="1.1" id="Layer_1" xmlns="http://www.w3.org/2000/svg" xmlns:xlink="http://www.w3.org/1999/xlink" x="0px" y="0px"
	 width="64px" height="64px" viewBox="0 0 64 64" enable-background="new 0 0 64 64" xml:space="preserve">
<path d="M53,38c0,0.6,0.4,1,1,1s1-0.4,1-1v-6c0-0.6-0.4-1-1-1H33v-5c0-0.6-0.4-1-1-1s-1,0.4-1,1v5H10c-0.6,0-1,0.4-1,1v6
	c0,0.6,0.4,1,1,1s1-0.4,1-1v-5h20v5c0,0.6,0.4,1,1,1s1-0.4,1-1v-5h20V38z"/>
<path d="M25,12c0,3.9,3.1,7,7,7s7-3.1,7-7s-3.1-7-7-7S25,8.1,25,12z M37,12c0,2.8-2.2,5-5,5s-5-2.2-5-5s2.2-5,5-5S37,9.2,37,12z"/>
<path d="M10,59c3.9,0,7-3.1,7-7s-3.1-7-7-7s-7,3.1-7,7S6.1,59,10,59z M10,47c2.8,0,5,2.2,5,5s-2.2,5-5,5s-5-2.2-5-5S7.2,47,10,47z"
	/>
<path d="M25,52c0,3.9,3.1,7,7,7s7-3.1,7-7s-3.1-7-7-7S25,48.1,25,52z M37,52c0,2.8-2.2,5-5,5s-5-2.2-5-5s2.2-5,5-5S37,49.2,37,52z"
	/>
<path d="M54,59c3.9,0,7-3.1,7-7s-3.1-7-7-7s-7,3.1-7,7S50.1,59,54,59z M54,47c2.8,0,5,2.2,5,5s-2.2,5-5,5s-5-2.2-5-5S51.2,47,54,47z
	"/>
</svg>
