<?xml version="1.0" encoding="utf-8"?>
<!-- Generator: Adobe Illustrator 19.1.0, SVG Export Plug-In . SVG Version: 6.00 Build 0)  -->
<!DOCTYPE svg PUBLIC "-//W3C//DTD SVG 1.1//EN" "http://www.w3.org/Graphics/SVG/1.1/DTD/svg11.dtd">
<svg version="1.1" id="Layer_1" xmlns="http://www.w3.org/2000/svg" xmlns:xlink="http://www.w3.org/1999/xlink" x="0px" y="0px"
	 width="64px" height="64px" viewBox="0 0 64 64" enable-background="new 0 0 64 64" xml:space="preserve">
<path d="M43,44.2c7.4-4,12-11.7,12-20.2C55,11.3,44.7,1,32,1S9,11.3,9,24c0,8.5,4.6,16.1,12,20.2V52c0,0.6,0.4,1,1,1h20
	c0.6,0,1-0.4,1-1V44.2z M27,33h-3c-1.7,0-3-1.3-3-3s1.3-3,3-3s3,1.3,3,3V33z M29,35h6v16h-6V35z M41.5,42.7
	c-0.3,0.2-0.5,0.5-0.5,0.9V51h-4V35h3c2.8,0,5-2.2,5-5s-2.2-5-5-5s-5,2.2-5,5v3h-6v-3c0-2.8-2.2-5-5-5s-5,2.2-5,5s2.2,5,5,5h3v16h-4
	v-7.4c0-0.4-0.2-0.7-0.5-0.9C15.4,39.1,11,31.9,11,24c0-11.6,9.4-21,21-21s21,9.4,21,21C53,31.9,48.6,39.1,41.5,42.7z M37,33v-3
	c0-1.7,1.3-3,3-3s3,1.3,3,3s-1.3,3-3,3H37z"/>
<path d="M43,58c0-0.6-0.4-1-1-1H22c-0.6,0-1,0.4-1,1s0.4,1,1,1h20C42.6,59,43,58.6,43,58z"/>
<path d="M28,61c-0.6,0-1,0.4-1,1s0.4,1,1,1h8c0.6,0,1-0.4,1-1s-0.4-1-1-1H28z"/>
</svg>
