<?xml version="1.0" encoding="utf-8"?>
<!-- Generator: Adobe Illustrator 19.1.0, SVG Export Plug-In . SVG Version: 6.00 Build 0)  -->
<!DOCTYPE svg PUBLIC "-//W3C//DTD SVG 1.1//EN" "http://www.w3.org/Graphics/SVG/1.1/DTD/svg11.dtd">
<svg version="1.1" id="Layer_1" xmlns="http://www.w3.org/2000/svg" xmlns:xlink="http://www.w3.org/1999/xlink" x="0px" y="0px"
	 width="64px" height="64px" viewBox="0 0 64 64" enable-background="new 0 0 64 64" xml:space="preserve">
<path d="M26,51c1.3,0,2.7-0.1,4-0.3l1,7.5c0.1,0.4,0.3,0.7,0.7,0.8c0.4,0.1,0.8,0,1-0.2l7.3-7.3l9.3,9.3c0.2,0.2,0.5,0.3,0.7,0.3
	s0.5-0.1,0.7-0.3l10-10c0.4-0.4,0.4-1,0-1.4L51.4,40l7.3-7.3c0.3-0.3,0.4-0.7,0.2-1s-0.4-0.6-0.8-0.7l-7.5-1c0.2-1.3,0.3-2.7,0.3-4
	C51,12.2,39.8,1,26,1S1,12.2,1,26S12.2,51,26,51z M38.7,28.4l-7.9-1.1c0.1-0.4,0.2-0.9,0.2-1.4c0-2.8-2.2-5-5-5s-5,2.2-5,5
	s2.2,5,5,5c0.5,0,0.9-0.1,1.4-0.2l1.1,7.9C27.6,38.9,26.8,39,26,39c-7.2,0-13-5.8-13-13s5.8-13,13-13s13,5.8,13,13
	C39,26.8,38.9,27.6,38.7,28.4z M28.1,27c-0.3,0-0.6,0.1-0.8,0.3c-0.2,0.2-0.3,0.5-0.3,0.8l0.1,0.7C26.7,28.9,26.4,29,26,29
	c-1.7,0-3-1.3-3-3s1.3-3,3-3s3,1.3,3,3c0,0.4-0.1,0.7-0.2,1.1L28.1,27z M49.3,39.3c-0.4,0.4-0.4,1,0,1.4l9.3,9.3L50,58.6l-9.3-9.3
	C40.5,49.1,40.3,49,40,49s-0.5,0.1-0.7,0.3l-6.6,6.6l-3.6-26.7c0.1,0,0.2,0,0.3,0l19.6,2.6c0.1,0,0.1,0.1,0.2,0.1c0.1,0,0.3,0,0.4,0
	l6.2,0.8L49.3,39.3z M26,3c12.7,0,23,10.3,23,23c0,1.3-0.1,2.5-0.3,3.8l-7.9-1.1c0.2-0.9,0.2-1.8,0.2-2.7c0-8.3-6.7-15-15-15
	s-15,6.7-15,15s6.7,15,15,15c0.9,0,1.8-0.1,2.7-0.2l1.1,7.9C28.5,48.9,27.3,49,26,49C13.3,49,3,38.7,3,26S13.3,3,26,3z"/>
</svg>
