<?xml version="1.0" encoding="utf-8"?>
<!-- Generator: Adobe Illustrator 19.1.0, SVG Export Plug-In . SVG Version: 6.00 Build 0)  -->
<!DOCTYPE svg PUBLIC "-//W3C//DTD SVG 1.1//EN" "http://www.w3.org/Graphics/SVG/1.1/DTD/svg11.dtd">
<svg version="1.1" id="Layer_1" xmlns="http://www.w3.org/2000/svg" xmlns:xlink="http://www.w3.org/1999/xlink" x="0px" y="0px"
	 width="64px" height="64px" viewBox="0 0 64 64" enable-background="new 0 0 64 64" xml:space="preserve">
<path d="M62,11H52h-6h-3V4c0-0.6-0.4-1-1-1H22c-0.6,0-1,0.4-1,1v7h-3h-6H2c-0.6,0-1,0.4-1,1v32c0,0.6,0.4,1,1,1h1v15
	c0,0.6,0.4,1,1,1h8h6h28h6h8c0.6,0,1-0.4,1-1V45h1c0.6,0,1-0.4,1-1V12C63,11.4,62.6,11,62,11z M51,13v26h-4V13H51z M52,47h-6h-1v-6
	h1h6h1v6H52z M11,47v-3c0,0,0,0,0,0s0,0,0,0v-3h1h6h1v3c0,0,0,0,0,0s0,0,0,0v3h-1h-6H11z M45,13v26h-1c-0.6,0-1,0.4-1,1v3H21v-3
	c0-0.6-0.4-1-1-1h-1V13H45z M20,49c0.6,0,1-0.4,1-1v-3h22v3c0,0.6,0.4,1,1,1h1v10H19V49H20z M23,5h18v6H23V5z M17,13v26h-4V13H17z
	 M3,13h8v26h-1c-0.6,0-1,0.4-1,1v3H3V13z M5,45h4v3c0,0.6,0.4,1,1,1h1v10H5V45z M13,59V49h4v10H13z M47,59V49h4v10H47z M59,59h-6V49
	h1c0.6,0,1-0.4,1-1v-3h4V59z M61,43h-6v-3c0-0.6-0.4-1-1-1h-1V13h8V43z"/>
</svg>
