<?xml version="1.0" encoding="utf-8"?>
<!-- Generator: Adobe Illustrator 19.1.0, SVG Export Plug-In . SVG Version: 6.00 Build 0)  -->
<!DOCTYPE svg PUBLIC "-//W3C//DTD SVG 1.1//EN" "http://www.w3.org/Graphics/SVG/1.1/DTD/svg11.dtd">
<svg version="1.1" id="Layer_1" xmlns="http://www.w3.org/2000/svg" xmlns:xlink="http://www.w3.org/1999/xlink" x="0px" y="0px"
	 width="64px" height="64px" viewBox="0 0 64 64" enable-background="new 0 0 64 64" xml:space="preserve">
<path d="M38,55c0.6,0,1-0.4,1-1V10c0-0.6-0.4-1-1-1H26c-0.6,0-1,0.4-1,1v44c0,0.6,0.4,1,1,1H38z M27,11h10v42H27V11z"/>
<path d="M18,55c0.6,0,1-0.4,1-1V38c0-0.6-0.4-1-1-1H6c-0.6,0-1,0.4-1,1v16c0,0.6,0.4,1,1,1H18z M7,39h10v14H7V39z"/>
<path d="M58,55c0.6,0,1-0.4,1-1V26c0-0.6-0.4-1-1-1H46c-0.6,0-1,0.4-1,1v28c0,0.6,0.4,1,1,1H58z M47,27h10v26H47V27z"/>
</svg>
