<?xml version="1.0" encoding="utf-8"?>
<!-- Generator: Adobe Illustrator 19.1.0, SVG Export Plug-In . SVG Version: 6.00 Build 0)  -->
<!DOCTYPE svg PUBLIC "-//W3C//DTD SVG 1.1//EN" "http://www.w3.org/Graphics/SVG/1.1/DTD/svg11.dtd">
<svg version="1.1" id="Layer_1" xmlns="http://www.w3.org/2000/svg" xmlns:xlink="http://www.w3.org/1999/xlink" x="0px" y="0px"
	 width="64px" height="64px" viewBox="0 0 64 64" enable-background="new 0 0 64 64" xml:space="preserve">
<path d="M31.3,60.7c0.2,0.2,0.5,0.3,0.7,0.3s0.5-0.1,0.7-0.3l14-14c0.2-0.2,0.3-0.6,0.3-0.9l-7.9-31.6l5.8-11.7c0.2-0.3,0.1-0.7,0-1
	C44.7,1.2,44.3,1,44,1H20c-0.3,0-0.7,0.2-0.9,0.5c-0.2,0.3-0.2,0.7,0,1l5.8,11.7L17,45.8c-0.1,0.3,0,0.7,0.3,0.9L31.3,60.7z M42.4,3
	l-5,10H26.6l-5-10H42.4z M26.8,15h10.4l7.7,30.7L32,58.6L19.1,45.7L26.8,15z"/>
</svg>
