<?xml version="1.0" encoding="utf-8"?>
<!-- Generator: Adobe Illustrator 19.1.0, SVG Export Plug-In . SVG Version: 6.00 Build 0)  -->
<!DOCTYPE svg PUBLIC "-//W3C//DTD SVG 1.1//EN" "http://www.w3.org/Graphics/SVG/1.1/DTD/svg11.dtd">
<svg version="1.1" id="Layer_1" xmlns="http://www.w3.org/2000/svg" xmlns:xlink="http://www.w3.org/1999/xlink" x="0px" y="0px"
	 width="64px" height="64px" viewBox="0 0 64 64" enable-background="new 0 0 64 64" xml:space="preserve">
<path d="M11,21.8l-6,32c0,0,0,0.1,0,0.1c0,0,0,0,0,0.1c0,0.1,0,0.2,0.1,0.3c0,0,0,0,0,0.1c0,0.1,0.1,0.2,0.2,0.3
	c0.1,0.1,0.2,0.2,0.3,0.2C5.7,55,5.9,55,6,55c0.1,0,0.1,0,0.2,0l32-6c0.3-0.1,0.6-0.3,0.7-0.6l7.4-16.7l3,3c0.2,0.2,0.5,0.3,0.7,0.3
	s0.5-0.1,0.7-0.3l6-6c0.4-0.4,0.4-1,0-1.4l-24-24c-0.4-0.4-1-0.4-1.4,0l-6,6c-0.4,0.4-0.4,1,0,1.4l3,3l-16.7,7.4
	C11.3,21.2,11.1,21.5,11,21.8z M32,5.4L54.6,28L50,32.6L30.7,13.3c0,0,0,0,0,0L27.4,10L32,5.4z M29.8,15.2l15,15l-7.5,16.9L9,52.4
	l14.3-14.2C24.1,38.7,25,39,26,39c1.3,0,2.6-0.5,3.5-1.5c1.9-1.9,1.9-5.1,0-7.1C28.6,29.5,27.3,29,26,29s-2.6,0.5-3.5,1.5
	c-1.7,1.7-1.9,4.4-0.6,6.3L7.6,51l5.3-28.3L29.8,15.2z M23.9,36.1c-1.2-1.2-1.2-3.1,0-4.2c0.6-0.6,1.3-0.9,2.1-0.9s1.6,0.3,2.1,0.9
	c1.2,1.2,1.2,3.1,0,4.2C27,37.3,25,37.3,23.9,36.1z"/>
<path d="M6,63h48c0.6,0,1-0.4,1-1s-0.4-1-1-1H6c-0.6,0-1,0.4-1,1S5.4,63,6,63z"/>
</svg>
