<?xml version="1.0" encoding="utf-8"?>
<!-- Generator: Adobe Illustrator 19.1.0, SVG Export Plug-In . SVG Version: 6.00 Build 0)  -->
<!DOCTYPE svg PUBLIC "-//W3C//DTD SVG 1.1//EN" "http://www.w3.org/Graphics/SVG/1.1/DTD/svg11.dtd">
<svg version="1.1" id="Layer_1" xmlns="http://www.w3.org/2000/svg" xmlns:xlink="http://www.w3.org/1999/xlink" x="0px" y="0px"
	 width="64px" height="64px" viewBox="0 0 64 64" enable-background="new 0 0 64 64" xml:space="preserve">
<path d="M32,1C14.9,1,1,14.9,1,32s13.9,31,31,31s31-13.9,31-31S49.1,1,32,1z M32,61C16,61,3,48,3,32S16,3,32,3s29,13,29,29
	S48,61,32,61z"/>
<path d="M36,15c3.7,0,7.2,1.2,10.2,3.4c0.4,0.3,1.1,0.2,1.4-0.2c0.3-0.4,0.2-1.1-0.2-1.4C44.1,14.3,40.1,13,36,13
	c-8.7,0-16.1,5.9-18.3,14H14c-0.6,0-1,0.4-1,1s0.4,1,1,1h3.3c-0.2,1-0.3,2-0.3,3s0.1,2,0.3,3H14c-0.6,0-1,0.4-1,1s0.4,1,1,1h3.7
	c2.2,8.1,9.6,14,18.3,14c4.1,0,8.1-1.3,11.4-3.8c0.4-0.3,0.5-1,0.2-1.4c-0.3-0.4-1-0.5-1.4-0.2c-3,2.2-6.5,3.4-10.2,3.4
	c-7.6,0-14.1-5.1-16.2-12H34c0.6,0,1-0.4,1-1s-0.4-1-1-1H19.3c-0.2-1-0.3-2-0.3-3s0.1-2,0.3-3H34c0.6,0,1-0.4,1-1s-0.4-1-1-1H19.8
	C21.9,20.1,28.4,15,36,15z"/>
</svg>
