<?xml version="1.0" encoding="utf-8"?>
<!-- Generator: Adobe Illustrator 19.1.0, SVG Export Plug-In . SVG Version: 6.00 Build 0)  -->
<!DOCTYPE svg PUBLIC "-//W3C//DTD SVG 1.1//EN" "http://www.w3.org/Graphics/SVG/1.1/DTD/svg11.dtd">
<svg version="1.1" id="Layer_1" xmlns="http://www.w3.org/2000/svg" xmlns:xlink="http://www.w3.org/1999/xlink" x="0px" y="0px"
	 width="64px" height="64px" viewBox="0 0 64 64" enable-background="new 0 0 64 64" xml:space="preserve">
<path d="M32,3C16,3,3,16,3,32s13,29,29,29s29-13,29-29S48,3,32,3z M32,59C17.1,59,5,46.9,5,32S17.1,5,32,5s27,12.1,27,27
	S46.9,59,32,59z"/>
<path d="M29,23c0-3.3-2.7-6-6-6s-6,2.7-6,6s2.7,6,6,6S29,26.3,29,23z M19,23c0-2.2,1.8-4,4-4s4,1.8,4,4s-1.8,4-4,4S19,25.2,19,23z"
	/>
<path d="M41,35c-3.3,0-6,2.7-6,6s2.7,6,6,6s6-2.7,6-6S44.3,35,41,35z M41,45c-2.2,0-4-1.8-4-4s1.8-4,4-4s4,1.8,4,4S43.2,45,41,45z"
	/>
<path d="M42.7,21.3c-0.4-0.4-1-0.4-1.4,0l-20,20c-0.4,0.4-0.4,1,0,1.4c0.2,0.2,0.5,0.3,0.7,0.3s0.5-0.1,0.7-0.3l20-20
	C43.1,22.3,43.1,21.7,42.7,21.3z"/>
</svg>
