<?xml version="1.0" encoding="utf-8"?>
<!-- Generator: Adobe Illustrator 19.1.0, SVG Export Plug-In . SVG Version: 6.00 Build 0)  -->
<!DOCTYPE svg PUBLIC "-//W3C//DTD SVG 1.1//EN" "http://www.w3.org/Graphics/SVG/1.1/DTD/svg11.dtd">
<svg version="1.1" id="Layer_1" xmlns="http://www.w3.org/2000/svg" xmlns:xlink="http://www.w3.org/1999/xlink" x="0px" y="0px"
	 width="64px" height="64px" viewBox="0 0 64 64" enable-background="new 0 0 64 64" xml:space="preserve">
<path d="M31,54v8c0,0.6,0.4,1,1,1s1-0.4,1-1v-8c0-0.6-0.4-1-1-1S31,53.4,31,54z"/>
<path d="M37,48v-7.8c7.1-2.2,12-8.7,12-16.2v-5h3c0.6,0,1-0.4,1-1v-6c0-0.6-0.4-1-1-1h-9V2c0-0.6-0.4-1-1-1s-1,0.4-1,1v9H23V2
	c0-0.6-0.4-1-1-1s-1,0.4-1,1v9h-9c-0.6,0-1,0.4-1,1v6c0,0.6,0.4,1,1,1h3v5c0,7.5,4.9,14.1,12,16.2V48c0,0.6,0.4,1,1,1h8
	C36.6,49,37,48.6,37,48z M13,13h38v4H13V13z M35,39.5V47h-6v-7.5c0-0.5-0.3-0.9-0.8-1C21.6,36.8,17,30.8,17,24v-5h30v5
	c0,6.8-4.6,12.8-11.2,14.5C35.3,38.6,35,39,35,39.5z"/>
</svg>
