<?xml version="1.0" encoding="utf-8"?>
<!-- Generator: Adobe Illustrator 19.1.0, SVG Export Plug-In . SVG Version: 6.00 Build 0)  -->
<!DOCTYPE svg PUBLIC "-//W3C//DTD SVG 1.1//EN" "http://www.w3.org/Graphics/SVG/1.1/DTD/svg11.dtd">
<svg version="1.1" id="Layer_1" xmlns="http://www.w3.org/2000/svg" xmlns:xlink="http://www.w3.org/1999/xlink" x="0px" y="0px"
	 width="64px" height="64px" viewBox="0 0 64 64" enable-background="new 0 0 64 64" xml:space="preserve">
<path d="M62,9H2c-0.6,0-1,0.4-1,1v44c0,0.6,0.4,1,1,1h60c0.6,0,1-0.4,1-1V10C63,9.4,62.6,9,62,9z M61,53H3V11h58V53z"/>
<path d="M32,39c3.9,0,7-3.1,7-7s-3.1-7-7-7s-7,3.1-7,7S28.1,39,32,39z M32,27c2.8,0,5,2.2,5,5s-2.2,5-5,5s-5-2.2-5-5S29.2,27,32,27z
	"/>
<path d="M10.2,38.5c3.8,0,6.8,3.4,6.8,7.5c0,0.6,0.4,1,1,1h28c0.6,0,1-0.4,1-1c0-4,3-7,7-7c0.6,0,1-0.4,1-1V26c0-0.6-0.4-1-1-1
	c-4,0-7-3-7-7c0-0.6-0.4-1-1-1H18c-0.6,0-1,0.4-1,1c0,4-3,7-7,7c-0.3,0-0.5,0.1-0.7,0.3S9,25.7,9,26l0.2,11.5
	C9.2,38,9.6,38.5,10.2,38.5z M18.9,19h26.1c0.4,4.2,3.7,7.5,7.9,7.9v10.1c-4.2,0.4-7.5,3.7-7.9,7.9H19c-0.4-4.4-3.7-8-7.8-8.5
	L11,26.9C15.2,26.5,18.5,23.2,18.9,19z"/>
</svg>
