<?xml version="1.0" encoding="utf-8"?>
<!-- Generator: Adobe Illustrator 19.1.0, SVG Export Plug-In . SVG Version: 6.00 Build 0)  -->
<!DOCTYPE svg PUBLIC "-//W3C//DTD SVG 1.1//EN" "http://www.w3.org/Graphics/SVG/1.1/DTD/svg11.dtd">
<svg version="1.1" id="Layer_1" xmlns="http://www.w3.org/2000/svg" xmlns:xlink="http://www.w3.org/1999/xlink" x="0px" y="0px"
	 width="64px" height="64px" viewBox="0 0 64 64" enable-background="new 0 0 64 64" xml:space="preserve">
<path d="M3,60c0,0.6,0.4,1,1,1h56c0.6,0,1-0.4,1-1V4c0-0.6-0.4-1-1-1H4C3.4,3,3,3.4,3,4V60z M5,33h26v26H5V33z M33,59V33h26v26H33z
	 M59,31H33V5h26V31z M31,5v26H5V5H31z"/>
<path d="M12,19h5v5c0,0.6,0.4,1,1,1s1-0.4,1-1v-5h5c0.6,0,1-0.4,1-1s-0.4-1-1-1h-5v-5c0-0.6-0.4-1-1-1s-1,0.4-1,1v5h-5
	c-0.6,0-1,0.4-1,1S11.4,19,12,19z"/>
<path d="M19.4,46l3.3-3.3c0.4-0.4,0.4-1,0-1.4s-1-0.4-1.4,0L18,44.6l-3.3-3.3c-0.4-0.4-1-0.4-1.4,0s-0.4,1,0,1.4l3.3,3.3l-3.3,3.3
	c-0.4,0.4-0.4,1,0,1.4c0.2,0.2,0.5,0.3,0.7,0.3s0.5-0.1,0.7-0.3l3.3-3.3l3.3,3.3c0.2,0.2,0.5,0.3,0.7,0.3s0.5-0.1,0.7-0.3
	c0.4-0.4,0.4-1,0-1.4L19.4,46z"/>
<path d="M40,19h12c0.6,0,1-0.4,1-1s-0.4-1-1-1H40c-0.6,0-1,0.4-1,1S39.4,19,40,19z"/>
<path d="M52,41H40c-0.6,0-1,0.4-1,1s0.4,1,1,1h12c0.6,0,1-0.4,1-1S52.6,41,52,41z"/>
<path d="M52,49H40c-0.6,0-1,0.4-1,1s0.4,1,1,1h12c0.6,0,1-0.4,1-1S52.6,49,52,49z"/>
</svg>
