<?xml version="1.0" encoding="utf-8"?>
<!-- Generator: Adobe Illustrator 19.1.0, SVG Export Plug-In . SVG Version: 6.00 Build 0)  -->
<!DOCTYPE svg PUBLIC "-//W3C//DTD SVG 1.1//EN" "http://www.w3.org/Graphics/SVG/1.1/DTD/svg11.dtd">
<svg version="1.1" id="Layer_1" xmlns="http://www.w3.org/2000/svg" xmlns:xlink="http://www.w3.org/1999/xlink" x="0px" y="0px"
	 width="64px" height="64px" viewBox="0 0 64 64" enable-background="new 0 0 64 64" xml:space="preserve">
<path d="M52.3,11.3C52.3,11.3,52.3,11.3,52.3,11.3C52.3,11.3,52.3,11.3,52.3,11.3C47,6.2,39.9,3,32,3C16,3,3,16,3,32
	c0,8.1,3.3,15.4,8.7,20.7c0,0,0,0,0,0c0,0,0,0,0.1,0C17,57.8,24.1,61,32,61c16,0,29-13,29-29C61,23.9,57.7,16.6,52.3,11.3z M49,31
	c-0.1-5.1-1-9.8-2.4-13.9c1.8-1,3.4-2.3,5-3.7C55.9,18,58.7,24.2,59,31H49z M12.4,50.6C8.1,46,5.3,39.8,5,33h10
	c0.1,5.1,1,9.8,2.4,13.9C15.7,48,14,49.2,12.4,50.6z M12.4,13.4c1.5,1.4,3.2,2.6,5,3.7C16,21.2,15.1,25.9,15,31H5
	C5.3,24.2,8.1,18,12.4,13.4z M44.1,16.1c-3.4,1.7-7.2,2.7-11.1,2.8V5.1C37.6,5.6,41.6,9.8,44.1,16.1z M31,5.1V19
	c-3.9-0.1-7.7-1.1-11.1-2.8C22.4,9.8,26.4,5.6,31,5.1z M31,21v10H17c0.1-4.7,0.9-9.2,2.2-13C22.8,19.8,26.8,20.8,31,21z M17,33h14
	v10c-4.2,0.1-8.2,1.2-11.8,3C17.9,42.2,17.1,37.7,17,33z M31,45v13.9c-4.6-0.5-8.6-4.8-11.1-11.1C23.3,46.1,27.1,45.2,31,45z
	 M33,58.9V45c3.9,0.1,7.7,1.1,11.1,2.8C41.6,54.2,37.6,58.4,33,58.9z M33,43V33h14c-0.1,4.7-0.9,9.2-2.2,13
	C41.2,44.2,37.2,43.2,33,43z M33,31V21c4.2-0.1,8.2-1.2,11.8-3c1.3,3.8,2.1,8.2,2.2,13H33z M50.1,12c-1.3,1.2-2.8,2.3-4.3,3.2
	c-1.6-3.8-3.7-6.9-6.2-9.1C43.6,7.3,47.2,9.3,50.1,12z M18.2,15.2c-1.5-0.9-3-2-4.3-3.2c3-2.7,6.5-4.7,10.5-5.9
	C21.9,8.2,19.8,11.4,18.2,15.2z M13.9,52c1.3-1.2,2.8-2.3,4.3-3.2c1.6,3.8,3.7,6.9,6.2,9.1C20.4,56.7,16.8,54.7,13.9,52z M45.8,48.8
	c1.5,0.9,3,2,4.3,3.2c-3,2.7-6.5,4.7-10.5,5.9C42.1,55.8,44.2,52.6,45.8,48.8z M51.6,50.6c-1.5-1.4-3.2-2.6-5-3.7
	C48,42.8,48.9,38.1,49,33h10C58.7,39.8,55.9,46,51.6,50.6z"/>
</svg>
