<?xml version="1.0" encoding="utf-8"?>
<!-- Generator: Adobe Illustrator 19.1.0, SVG Export Plug-In . SVG Version: 6.00 Build 0)  -->
<!DOCTYPE svg PUBLIC "-//W3C//DTD SVG 1.1//EN" "http://www.w3.org/Graphics/SVG/1.1/DTD/svg11.dtd">
<svg version="1.1" id="Layer_1" xmlns="http://www.w3.org/2000/svg" xmlns:xlink="http://www.w3.org/1999/xlink" x="0px" y="0px"
	 width="64px" height="64px" viewBox="0 0 64 64" enable-background="new 0 0 64 64" xml:space="preserve">
<path d="M3,10v40c0,5,4,9,9,9h44c0.6,0,1-0.4,1-1V43h3c0.6,0,1-0.4,1-1V30c0-0.6-0.4-1-1-1h-3V14c0-0.6-0.4-1-1-1h-9V6
	c0-0.6-0.4-1-1-1H8C5.2,5,3,7.2,3,10z M59,41H46c-2.8,0-5-2.2-5-5s2.2-5,5-5h13V41z M55,29h-9c-3.9,0-7,3.1-7,7s3.1,7,7,7h9v14H12
	c-3.9,0-7-3.1-7-7V14c0,0,0.1,0,0.1,0.1c0.1,0.1,0.2,0.1,0.3,0.2c0.2,0.1,0.3,0.2,0.5,0.3c0.1,0,0.2,0.1,0.3,0.1
	c0.2,0.1,0.4,0.1,0.6,0.2c0.1,0,0.2,0.1,0.3,0.1C7.4,15,7.7,15,8,15h38h9V29z M8,7h37v6H8c-1.7,0-3-1.3-3-3S6.3,7,8,7z"/>
<path d="M48,37h2c0.6,0,1-0.4,1-1s-0.4-1-1-1h-2c-0.6,0-1,0.4-1,1S47.4,37,48,37z"/>
</svg>
