<?xml version="1.0" encoding="utf-8"?>
<!-- Generator: Adobe Illustrator 19.1.0, SVG Export Plug-In . SVG Version: 6.00 Build 0)  -->
<!DOCTYPE svg PUBLIC "-//W3C//DTD SVG 1.1//EN" "http://www.w3.org/Graphics/SVG/1.1/DTD/svg11.dtd">
<svg version="1.1" id="Layer_1" xmlns="http://www.w3.org/2000/svg" xmlns:xlink="http://www.w3.org/1999/xlink" x="0px" y="0px"
	 width="64px" height="64px" viewBox="0 0 64 64" enable-background="new 0 0 64 64" xml:space="preserve">
<path d="M59,2c0-0.6-0.4-1-1-1H6C5.4,1,5,1.4,5,2v60c0,0.6,0.4,1,1,1h52c0.6,0,1-0.4,1-1V2z M57,61H7V3h50V61z"/>
<path d="M14,17h36c0.6,0,1-0.4,1-1v-6c0-0.6-0.4-1-1-1H14c-0.6,0-1,0.4-1,1v6C13,16.6,13.4,17,14,17z M15,11h34v4H15V11z"/>
<path d="M14,31h8c0.6,0,1-0.4,1-1v-6c0-0.6-0.4-1-1-1h-8c-0.6,0-1,0.4-1,1v6C13,30.6,13.4,31,14,31z M15,25h6v4h-6V25z"/>
<path d="M36,23h-8c-0.6,0-1,0.4-1,1v6c0,0.6,0.4,1,1,1h8c0.6,0,1-0.4,1-1v-6C37,23.4,36.6,23,36,23z M35,29h-6v-4h6V29z"/>
<path d="M50,23h-8c-0.6,0-1,0.4-1,1v6c0,0.6,0.4,1,1,1h8c0.6,0,1-0.4,1-1v-6C51,23.4,50.6,23,50,23z M49,29h-6v-4h6V29z"/>
<path d="M14,43h8c0.6,0,1-0.4,1-1v-6c0-0.6-0.4-1-1-1h-8c-0.6,0-1,0.4-1,1v6C13,42.6,13.4,43,14,43z M15,37h6v4h-6V37z"/>
<path d="M36,35h-8c-0.6,0-1,0.4-1,1v6c0,0.6,0.4,1,1,1h8c0.6,0,1-0.4,1-1v-6C37,35.4,36.6,35,36,35z M35,41h-6v-4h6V41z"/>
<path d="M14,55h8c0.6,0,1-0.4,1-1v-6c0-0.6-0.4-1-1-1h-8c-0.6,0-1,0.4-1,1v6C13,54.6,13.4,55,14,55z M15,49h6v4h-6V49z"/>
<path d="M36,47h-8c-0.6,0-1,0.4-1,1v6c0,0.6,0.4,1,1,1h8c0.6,0,1-0.4,1-1v-6C37,47.4,36.6,47,36,47z M35,53h-6v-4h6V53z"/>
<path d="M50,35h-8c-0.6,0-1,0.4-1,1v18c0,0.6,0.4,1,1,1h8c0.6,0,1-0.4,1-1V36C51,35.4,50.6,35,50,35z M49,53h-6V37h6V53z"/>
</svg>
