<?xml version="1.0" encoding="utf-8"?>
<!-- Generator: Adobe Illustrator 19.1.0, SVG Export Plug-In . SVG Version: 6.00 Build 0)  -->
<!DOCTYPE svg PUBLIC "-//W3C//DTD SVG 1.1//EN" "http://www.w3.org/Graphics/SVG/1.1/DTD/svg11.dtd">
<svg version="1.1" id="Layer_1" xmlns="http://www.w3.org/2000/svg" xmlns:xlink="http://www.w3.org/1999/xlink" x="0px" y="0px"
	 width="64px" height="64px" viewBox="0 0 64 64" enable-background="new 0 0 64 64" xml:space="preserve">
<path d="M61,32C61,16,48,3,32,3S3,16,3,32s13,29,29,29S61,48,61,32z M5,32C5,17.1,17.1,5,32,5s27,12.1,27,27S46.9,59,32,59
	S5,46.9,5,32z"/>
<path d="M29,23c0-3.3-2.7-6-6-6s-6,2.7-6,6s2.7,6,6,6S29,26.3,29,23z M19,23c0-2.2,1.8-4,4-4s4,1.8,4,4s-1.8,4-4,4S19,25.2,19,23z"
	/>
<path d="M35,41c0,3.3,2.7,6,6,6s6-2.7,6-6s-2.7-6-6-6S35,37.7,35,41z M45,41c0,2.2-1.8,4-4,4s-4-1.8-4-4s1.8-4,4-4S45,38.8,45,41z"
	/>
<path d="M43,28c0,0.6,0.4,1,1,1s1-0.4,1-1v-8c0-0.1,0-0.3-0.1-0.4c-0.1-0.2-0.3-0.4-0.5-0.5C44.3,19,44.1,19,44,19h-8
	c-0.6,0-1,0.4-1,1s0.4,1,1,1h5.6L21.3,41.3c-0.4,0.4-0.4,1,0,1.4c0.2,0.2,0.5,0.3,0.7,0.3s0.5-0.1,0.7-0.3L43,22.4V28z"/>
</svg>
