<?xml version="1.0" encoding="utf-8"?>
<!-- Generator: Adobe Illustrator 19.1.0, SVG Export Plug-In . SVG Version: 6.00 Build 0)  -->
<!DOCTYPE svg PUBLIC "-//W3C//DTD SVG 1.1//EN" "http://www.w3.org/Graphics/SVG/1.1/DTD/svg11.dtd">
<svg version="1.1" id="Layer_1" xmlns="http://www.w3.org/2000/svg" xmlns:xlink="http://www.w3.org/1999/xlink" x="0px" y="0px"
	 width="64px" height="64px" viewBox="0 0 64 64" enable-background="new 0 0 64 64" xml:space="preserve">
<path d="M26,63c13.8,0,25-11.2,25-25c0-6.5-2.5-12.5-6.6-16.9l3.9-3.9l5.4,1.8c0.1,0,0.2,0.1,0.3,0.1c0.3,0,0.5-0.1,0.7-0.3l6-6
	c0.2-0.2,0.3-0.6,0.3-0.9c-0.1-0.3-0.3-0.6-0.7-0.7l-4.5-1.5l2.9-2.9c0.4-0.4,0.4-1,0-1.4s-1-0.4-1.4,0l-2.9,2.9l-1.5-4.5
	c-0.1-0.3-0.4-0.6-0.7-0.7c-0.3-0.1-0.7,0-0.9,0.3l-6,6c-0.3,0.3-0.4,0.7-0.2,1l1.8,5.4l-3.9,3.9C38.5,15.5,32.5,13,26,13
	C12.2,13,1,24.2,1,38S12.2,63,26,63z M54.3,11.1l3.9,1.3l-4.4,4.4l-3.9-1.3l2.7-2.7L54.3,11.1z M51.6,5.9l1.3,3.9l-4.4,4.4l-1.3-3.9
	L51.6,5.9z M26,15c6,0,11.4,2.3,15.5,6.1l-5.7,5.7C33.2,24.4,29.8,23,26,23c-8.3,0-15,6.7-15,15s6.7,15,15,15s15-6.7,15-15
	c0-3.8-1.4-7.2-3.7-9.9l5.7-5.7C46.7,26.6,49,32,49,38c0,12.7-10.3,23-23,23S3,50.7,3,38S13.3,15,26,15z M29,38c0,1.7-1.3,3-3,3
	s-3-1.3-3-3s1.3-3,3-3S29,36.3,29,38z M28.8,33.8C28,33.3,27,33,26,33c-2.8,0-5,2.2-5,5s2.2,5,5,5s5-2.2,5-5c0-1-0.3-2-0.8-2.8
	l5.7-5.7c2,2.3,3.1,5.2,3.1,8.4c0,7.2-5.8,13-13,13s-13-5.8-13-13s5.8-13,13-13c3.2,0,6.2,1.2,8.4,3.1L28.8,33.8z"/>
</svg>
