<?xml version="1.0" encoding="utf-8"?>
<!-- Generator: Adobe Illustrator 19.1.0, SVG Export Plug-In . SVG Version: 6.00 Build 0)  -->
<!DOCTYPE svg PUBLIC "-//W3C//DTD SVG 1.1//EN" "http://www.w3.org/Graphics/SVG/1.1/DTD/svg11.dtd">
<svg version="1.1" id="Layer_1" xmlns="http://www.w3.org/2000/svg" xmlns:xlink="http://www.w3.org/1999/xlink" x="0px" y="0px"
	 width="64px" height="64px" viewBox="0 0 64 64" enable-background="new 0 0 64 64" xml:space="preserve">
<path d="M12,53c-0.6,0-1,0.4-1,1v6c0,0.6,0.4,1,1,1h40c0.6,0,1-0.4,1-1v-6c0-0.6-0.4-1-1-1h-5.2l-5.7-28.5l9.4-5.6
	c0.1,0,0.1-0.1,0.2-0.1c0,0,0,0,0,0c0.1-0.1,0.1-0.2,0.2-0.3c0,0,0-0.1,0-0.1c0-0.1,0.1-0.2,0.1-0.3V4c0-0.6-0.4-1-1-1h-8
	c-0.6,0-1,0.4-1,1v5h-4V4c0-0.6-0.4-1-1-1h-8c-0.6,0-1,0.4-1,1v5h-4V4c0-0.6-0.4-1-1-1h-8c-0.6,0-1,0.4-1,1v14c0,0.1,0,0.2,0.1,0.3
	c0,0,0,0.1,0,0.1c0,0.1,0.1,0.2,0.2,0.3c0,0,0,0,0,0c0.1,0,0.1,0.1,0.2,0.1l9.4,5.6L17.2,53H12z M51,59H13v-4h38V59z M24.3,23
	l-6.7-4h28.8l-6.7,4H24.3z M21,5v5c0,0.6,0.4,1,1,1h6c0.6,0,1-0.4,1-1V5h6v5c0,0.6,0.4,1,1,1h6c0.6,0,1-0.4,1-1V5h6v12H15V5H21z
	 M24.8,25h14.4l5.6,28H19.2L24.8,25z"/>
</svg>
