<?xml version="1.0" encoding="utf-8"?>
<!-- Generator: Adobe Illustrator 19.1.0, SVG Export Plug-In . SVG Version: 6.00 Build 0)  -->
<!DOCTYPE svg PUBLIC "-//W3C//DTD SVG 1.1//EN" "http://www.w3.org/Graphics/SVG/1.1/DTD/svg11.dtd">
<svg version="1.1" id="Layer_1" xmlns="http://www.w3.org/2000/svg" xmlns:xlink="http://www.w3.org/1999/xlink" x="0px" y="0px"
	 width="64px" height="64px" viewBox="0 0 64 64" enable-background="new 0 0 64 64" xml:space="preserve">
<path d="M62,31c-0.6,0-1,0.4-1,1c0,16-13,29-29,29S3,48,3,32S16,3,32,3c10.8,0,20.7,6.1,25.7,15.5l-7-0.9c-0.6-0.1-1.1,0.3-1.1,0.9
	c-0.1,0.5,0.3,1.1,0.9,1.1l8.9,1.2c0,0,0.1,0,0.1,0c0.2,0,0.4-0.1,0.6-0.2c0.2-0.2,0.3-0.4,0.4-0.7l1.3-9.5c0.1-0.5-0.3-1.1-0.9-1.1
	c-0.6-0.1-1.1,0.3-1.1,0.9l-0.9,6.4C53.3,7,43.1,1,32,1C14.9,1,1,14.9,1,32s13.9,31,31,31s31-13.9,31-31C63,31.4,62.6,31,62,31z"/>
<path d="M44,43c0.6,0,1-0.4,1-1v-5h5c0.6,0,1-0.4,1-1s-0.4-1-1-1h-5V22c0-0.4-0.3-0.8-0.7-1c-0.4-0.1-0.9,0-1.1,0.4l-10,14
	c-0.2,0.3-0.2,0.7-0.1,1c0.2,0.3,0.5,0.5,0.9,0.5h9v5C43,42.6,43.4,43,44,43z M35.9,35l7.1-9.9V35H35.9z"/>
<path d="M29,28c0-3.7-3.3-7-7-7c-3.5,0-7,3.5-7,7c0,0.6,0.4,1,1,1s1-0.4,1-1c0-2.5,2.5-5,5-5c2.4,0,5,2.1,5,5
	c0,3.1-7.1,9.7-11.6,13.2c-0.3,0.3-0.5,0.7-0.3,1.1c0.1,0.4,0.5,0.7,0.9,0.7h12c0.6,0,1-0.4,1-1s-0.4-1-1-1h-9.2
	C22.4,38,29,31.9,29,28z"/>
</svg>
