<?xml version="1.0" encoding="utf-8"?>
<!-- Generator: Adobe Illustrator 19.1.0, SVG Export Plug-In . SVG Version: 6.00 Build 0)  -->
<!DOCTYPE svg PUBLIC "-//W3C//DTD SVG 1.1//EN" "http://www.w3.org/Graphics/SVG/1.1/DTD/svg11.dtd">
<svg version="1.1" id="Layer_1" xmlns="http://www.w3.org/2000/svg" xmlns:xlink="http://www.w3.org/1999/xlink" x="0px" y="0px"
	 width="64px" height="64px" viewBox="0 0 64 64" enable-background="new 0 0 64 64" xml:space="preserve">
<path d="M42.7,39.2C46.6,36,49,31.3,49,26v-8c0-9.4-7.6-17-17-17S15,8.6,15,18v8c0,5.3,2.4,10,6.3,13.2C9.9,40.5,1,50.2,1,62
	c0,0.6,0.4,1,1,1h60c0.6,0,1-0.4,1-1C63,50.2,54.1,40.5,42.7,39.2z M28.8,49h6.5l3.4,12H25.3L28.8,49z M35.4,47h-6.8l-2.5-5.1
	c1.8,0.7,3.8,1.1,5.9,1.1s4.1-0.4,5.9-1.1L35.4,47z M32,3c8.3,0,15,6.7,15,15v2.9c-3.7-0.3-6.7-2.2-8.1-5.4C38.7,15.2,38.4,15,38,15
	s-0.7,0.2-0.9,0.6C35,20.2,30,23,24,23c-2.9,0-4.4-1.3-6.5-3.1c-0.1-0.1-0.3-0.3-0.5-0.4V18C17,9.7,23.7,3,32,3z M17,26v-3.9
	c2,1.6,3.9,2.9,7,2.9c6,0,11.2-2.6,14-6.9c2,2.9,5.2,4.6,9,4.9V26c0,8.3-6.7,15-15,15S17,34.3,17,26z M23.4,41l3.5,7.1L23.2,61H3
	C3.5,50.1,12.4,41.3,23.4,41z M40.8,61l-3.7-12.9l3.5-7.1c11,0.3,19.9,9.1,20.4,20H40.8z"/>
</svg>
