<?xml version="1.0" encoding="utf-8"?>
<!-- Generator: Adobe Illustrator 19.1.0, SVG Export Plug-In . SVG Version: 6.00 Build 0)  -->
<!DOCTYPE svg PUBLIC "-//W3C//DTD SVG 1.1//EN" "http://www.w3.org/Graphics/SVG/1.1/DTD/svg11.dtd">
<svg version="1.1" id="Layer_1" xmlns="http://www.w3.org/2000/svg" xmlns:xlink="http://www.w3.org/1999/xlink" x="0px" y="0px"
	 width="64px" height="64px" viewBox="0 0 64 64" enable-background="new 0 0 64 64" xml:space="preserve">
<path d="M36,15h-8c-0.6,0-1,0.4-1,1v18c0,0.6,0.4,1,1,1h8c0.6,0,1-0.4,1-1V16C37,15.4,36.6,15,36,15z M35,33h-6V17h6V33z"/>
<path d="M22,25h-8c-0.6,0-1,0.4-1,1v8c0,0.6,0.4,1,1,1h8c0.6,0,1-0.4,1-1v-8C23,25.4,22.6,25,22,25z M21,33h-6v-6h6V33z"/>
<path d="M50,21h-8c-0.6,0-1,0.4-1,1v12c0,0.6,0.4,1,1,1h8c0.6,0,1-0.4,1-1V22C51,21.4,50.6,21,50,21z M49,33h-6V23h6V33z"/>
<path d="M62,41h-5V8c0-0.6-0.4-1-1-1H37V2c0-0.6-0.4-1-1-1h-8c-0.6,0-1,0.4-1,1v5H8C7.4,7,7,7.4,7,8v33H2c-0.6,0-1,0.4-1,1v6
	c0,0.6,0.4,1,1,1h21.8L13.2,61.3c-0.4,0.4-0.3,1.1,0.1,1.4c0.2,0.2,0.4,0.2,0.7,0.2c0.3,0,0.6-0.1,0.8-0.3L26.5,49H31v11
	c0,0.6,0.4,1,1,1s1-0.4,1-1V49h4.5l11.7,13.7c0.2,0.2,0.5,0.3,0.8,0.3c0.2,0,0.5-0.1,0.7-0.2c0.4-0.4,0.5-1,0.1-1.4L40.2,49H62
	c0.6,0,1-0.4,1-1v-6C63,41.4,62.6,41,62,41z M29,3h6v4h-6V3z M9,9h19h8h19v32H9V9z M61,47H3v-4h58V47z"/>
</svg>
