<?xml version="1.0" encoding="utf-8"?>
<!-- Generator: Adobe Illustrator 19.1.0, SVG Export Plug-In . SVG Version: 6.00 Build 0)  -->
<!DOCTYPE svg PUBLIC "-//W3C//DTD SVG 1.1//EN" "http://www.w3.org/Graphics/SVG/1.1/DTD/svg11.dtd">
<svg version="1.1" id="Layer_1" xmlns="http://www.w3.org/2000/svg" xmlns:xlink="http://www.w3.org/1999/xlink" x="0px" y="0px"
	 width="64px" height="64px" viewBox="0 0 64 64" enable-background="new 0 0 64 64" xml:space="preserve">
<path d="M52.6,27.4c0.9,0.9,2.2,1.5,3.5,1.5s2.6-0.5,3.5-1.5l1.5-1.5c0.2-0.2,0.3-0.4,0.3-0.7c0-0.3-0.1-0.5-0.3-0.7L39.6,2.8
	c-0.4-0.4-1-0.4-1.4,0l-1.5,1.5c-0.9,0.9-1.5,2.2-1.5,3.5s0.5,2.6,1.5,3.5l0.6,0.6L15.2,26l-3.1-3.1C10.1,21,7,21,5,22.9l-1.5,1.5
	c-0.4,0.4-0.4,1,0,1.4l16.6,16.6L2.8,59.8c-0.4,0.4-0.4,1,0,1.4c0.2,0.2,0.5,0.3,0.7,0.3s0.5-0.1,0.7-0.3l17.3-17.3l16.6,16.6
	c0.2,0.2,0.5,0.3,0.7,0.3s0.5-0.1,0.7-0.3l1.5-1.5c1.9-1.9,1.9-5.1,0-7.1L38,48.8L52,26.7L52.6,27.4z M38.1,5.7l0.8-0.8l20.2,20.2
	l-0.8,0.8c-1.1,1.1-3.1,1.1-4.2,0l-16-16c-0.6-0.6-0.9-1.3-0.9-2.1S37.5,6.3,38.1,5.7z M39.6,57.6l-0.8,0.8L22.2,41.8c0,0,0,0,0,0
	s0,0,0,0L5.6,25.1l0.8-0.8c1.2-1.2,3.1-1.2,4.2,0l29,29C40.8,54.5,40.8,56.4,39.6,57.6z M36.5,47.4L16.6,27.5l22.1-14.1l11.9,11.9
	L36.5,47.4z"/>
</svg>
