<?xml version="1.0" encoding="utf-8"?>
<!-- Generator: Adobe Illustrator 19.1.0, SVG Export Plug-In . SVG Version: 6.00 Build 0)  -->
<!DOCTYPE svg PUBLIC "-//W3C//DTD SVG 1.1//EN" "http://www.w3.org/Graphics/SVG/1.1/DTD/svg11.dtd">
<svg version="1.1" id="Layer_1" xmlns="http://www.w3.org/2000/svg" xmlns:xlink="http://www.w3.org/1999/xlink" x="0px" y="0px"
	 width="64px" height="64px" viewBox="0 0 64 64" enable-background="new 0 0 64 64" xml:space="preserve">
<path d="M21.4,34.9c0.2,0.1,0.3,0.1,0.5,0.1c0.3,0,0.7-0.2,0.9-0.5l4.8-8.5c1.4,0.6,2.9,1,4.5,1c6.1,0,11-4.9,11-11S38.1,5,32,5
	S21,9.9,21,16c0,3.7,1.9,7.1,4.8,9L21,33.5C20.7,34,20.9,34.6,21.4,34.9z M23,16c0-5,4-9,9-9s9,4,9,9s-4,9-9,9S23,21,23,16z"/>
<path d="M14,59c5.7,0,10.4-4.4,10.9-10H34c0.6,0,1-0.4,1-1s-0.4-1-1-1h-9.1c-0.5-5.6-5.2-10-10.9-10C7.9,37,3,41.9,3,48
	S7.9,59,14,59z M14,39c5,0,9,4,9,9s-4,9-9,9s-9-4-9-9S9,39,14,39z"/>
<path d="M61,48c0-6.1-4.9-11-11-11c-1.5,0-3,0.3-4.3,0.9l-4.8-9.1c-0.3-0.5-0.9-0.7-1.4-0.4c-0.5,0.3-0.7,0.9-0.4,1.4l4.9,9.1
	c-3,2-5,5.3-5,9.2c0,6.1,4.9,11,11,11S61,54.1,61,48z M50,57c-5,0-9-4-9-9s4-9,9-9s9,4,9,9S55,57,50,57z"/>
</svg>
