<?xml version="1.0" encoding="utf-8"?>
<!-- Generator: Adobe Illustrator 19.1.0, SVG Export Plug-In . SVG Version: 6.00 Build 0)  -->
<!DOCTYPE svg PUBLIC "-//W3C//DTD SVG 1.1//EN" "http://www.w3.org/Graphics/SVG/1.1/DTD/svg11.dtd">
<svg version="1.1" id="Layer_1" xmlns="http://www.w3.org/2000/svg" xmlns:xlink="http://www.w3.org/1999/xlink" x="0px" y="0px"
	 width="64px" height="64px" viewBox="0 0 64 64" enable-background="new 0 0 64 64" xml:space="preserve">
<path d="M9,32v6c0,0.6,0.4,1,1,1s1-0.4,1-1v-5h20v5c0,0.6,0.4,1,1,1s1-0.4,1-1v-5h20v5c0,0.6,0.4,1,1,1s1-0.4,1-1v-6
	c0-0.6-0.4-1-1-1H33v-5c0-0.6-0.4-1-1-1s-1,0.4-1,1v5H10C9.4,31,9,31.4,9,32z"/>
<path d="M3,52c0,3.9,3.1,7,7,7s7-3.1,7-7s-3.1-7-7-7S3,48.1,3,52z M10,47c2.8,0,5,2.2,5,5s-2.2,5-5,5s-5-2.2-5-5S7.2,47,10,47z"/>
<path d="M32,59c3.9,0,7-3.1,7-7s-3.1-7-7-7s-7,3.1-7,7S28.1,59,32,59z M32,47c2.8,0,5,2.2,5,5s-2.2,5-5,5s-5-2.2-5-5S29.2,47,32,47z
	"/>
<path d="M54,45c-3.9,0-7,3.1-7,7s3.1,7,7,7s7-3.1,7-7S57.9,45,54,45z M54,57c-2.8,0-5-2.2-5-5s2.2-5,5-5s5,2.2,5,5S56.8,57,54,57z"
	/>
<path d="M40,19c0.6,0,1-0.4,1-1V8c0-0.6-0.4-1-1-1H24c-0.6,0-1,0.4-1,1v10c0,0.6,0.4,1,1,1H40z M25,9h14v8H25V9z"/>
</svg>
