<?xml version="1.0" encoding="utf-8"?>
<!-- Generator: Adobe Illustrator 19.1.0, SVG Export Plug-In . SVG Version: 6.00 Build 0)  -->
<!DOCTYPE svg PUBLIC "-//W3C//DTD SVG 1.1//EN" "http://www.w3.org/Graphics/SVG/1.1/DTD/svg11.dtd">
<svg version="1.1" id="Layer_1" xmlns="http://www.w3.org/2000/svg" xmlns:xlink="http://www.w3.org/1999/xlink" x="0px" y="0px"
	 width="64px" height="64px" viewBox="0 0 64 64" enable-background="new 0 0 64 64" xml:space="preserve">
<path d="M62,1H2C1.4,1,1,1.4,1,2v54c0,0.6,0.4,1,1,1h60c0.6,0,1-0.4,1-1V2C63,1.4,62.6,1,62,1z M61,55H3V3h58V55z"/>
<path d="M8,45h1v5c0,0.6,0.4,1,1,1h46c0.6,0,1-0.4,1-1V8c0-0.6-0.4-1-1-1H10C9.4,7,9,7.4,9,8v5H8c-0.6,0-1,0.4-1,1v8
	c0,0.6,0.4,1,1,1h1v12H8c-0.6,0-1,0.4-1,1v8C7,44.6,7.4,45,8,45z M9,15h4v6H9V15z M11,23h3c0.6,0,1-0.4,1-1v-8c0-0.6-0.4-1-1-1h-3V9
	h44v40H11v-4h3c0.6,0,1-0.4,1-1v-8c0-0.6-0.4-1-1-1h-3V23z M9,37h4v6H9V37z"/>
<path d="M23.4,40.6C23.4,40.6,23.4,40.6,23.4,40.6C23.4,40.6,23.4,40.6,23.4,40.6C26.1,43.3,29.9,45,34,45c4.1,0,7.9-1.7,10.6-4.4
	c0,0,0,0,0,0s0,0,0,0C47.3,37.9,49,34.1,49,30c0-4.1-1.7-7.9-4.4-10.6c0,0,0,0,0,0c0,0,0,0,0,0C41.9,16.7,38.1,15,34,15
	c-4.1,0-7.9,1.7-10.6,4.4c0,0,0,0,0,0s0,0,0,0C20.7,22.1,19,25.9,19,30C19,34.1,20.7,37.9,23.4,40.6z M24.1,21.6l5.7,5.7
	C29.3,28,29,29,29,30c0,1,0.3,2,0.8,2.8l-5.7,5.7c-2-2.3-3.1-5.2-3.1-8.4C21,26.8,22.2,23.8,24.1,21.6z M36.1,27.8
	C36.1,27.9,36.1,27.9,36.1,27.8c0.1,0.1,0.1,0.1,0.1,0.1c0.5,0.5,0.8,1.3,0.8,2.1c0,0.8-0.3,1.5-0.8,2.1c0,0,0,0-0.1,0s0,0,0,0.1
	C35.5,32.7,34.8,33,34,33c-1.7,0-3-1.3-3-3s1.3-3,3-3C34.8,27,35.5,27.3,36.1,27.8z M25.6,39.9l5.7-5.7C32,34.7,33,35,34,35
	c1,0,2-0.3,2.8-0.8l5.7,5.7c-2.3,2-5.2,3.1-8.4,3.1C30.8,43,27.8,41.8,25.6,39.9z M43.9,38.4l-5.7-5.7C38.7,32,39,31,39,30
	c0-1-0.3-2-0.8-2.8l5.7-5.7c2,2.3,3.1,5.2,3.1,8.4C47,33.2,45.8,36.2,43.9,38.4z M42.4,20.1l-5.7,5.7C36,25.3,35,25,34,25
	c-1,0-2,0.3-2.8,0.8l-5.7-5.7c2.3-2,5.2-3.1,8.4-3.1C37.2,17,40.2,18.2,42.4,20.1z"/>
<path d="M18,63c0.6,0,1-0.4,1-1s-0.4-1-1-1H8c-0.6,0-1,0.4-1,1s0.4,1,1,1H18z"/>
<path d="M56,63c0.6,0,1-0.4,1-1s-0.4-1-1-1H46c-0.6,0-1,0.4-1,1s0.4,1,1,1H56z"/>
</svg>
