<?xml version="1.0" encoding="utf-8"?>
<!-- Generator: Adobe Illustrator 20.0.0, SVG Export Plug-In . SVG Version: 6.00 Build 0)  -->
<!DOCTYPE svg PUBLIC "-//W3C//DTD SVG 1.1//EN" "http://www.w3.org/Graphics/SVG/1.1/DTD/svg11.dtd">
<svg version="1.1" id="Layer_1" xmlns="http://www.w3.org/2000/svg" xmlns:xlink="http://www.w3.org/1999/xlink" x="0px" y="0px"
	 width="24px" height="24px" viewBox="0 0 24 24" enable-background="new 0 0 24 24" xml:space="preserve">
<path d="M4,5v1c0,2.761,2.239,6,5,6s5-3.239,5-6V5c0-2.761-2.239-5-5-5S4,2.239,4,5z"/>
<path d="M13.002,14.404C11.799,14.167,10.442,14,9,14c-2.824,0-5.329,0.638-6.974,1.193C0.81,15.604,0,16.749,0,18.032V22h13.26
	C12.468,20.866,12,19.488,12,18C12,16.683,12.37,15.456,13.002,14.404z"/>
<polygon points="20.545,16.131 19,13 17.455,16.131 14,16.633 16.5,19.07 15.91,22.511 19,20.886 22.09,22.511 21.5,19.07 
	24,16.633 "/>
</svg>
