<?xml version="1.0" encoding="utf-8"?>
<!-- Generator: Adobe Illustrator 20.0.0, SVG Export Plug-In . SVG Version: 6.00 Build 0)  -->
<!DOCTYPE svg PUBLIC "-//W3C//DTD SVG 1.1//EN" "http://www.w3.org/Graphics/SVG/1.1/DTD/svg11.dtd">
<svg version="1.1" id="Layer_1" xmlns="http://www.w3.org/2000/svg" xmlns:xlink="http://www.w3.org/1999/xlink" x="0px" y="0px"
	 width="24px" height="24px" viewBox="0 0 24 24" enable-background="new 0 0 24 24" xml:space="preserve">
<path d="M4,17.688V20h16v-2.312c0-1.626-0.967-3.076-2.463-3.695C15.95,13.334,14.087,13,12,13s-3.95,0.334-5.536,0.992
	C4.967,14.611,4,16.062,4,17.688z"/>
<circle cx="12" cy="7" r="5"/>
<path d="M2,2h4V0H1C0.447,0,0,0.447,0,1v5h2V2z"/>
<path d="M23,0h-5v2h4v4h2V1C24,0.447,23.553,0,23,0z"/>
<path d="M6,22H2v-4H0v5c0,0.553,0.447,1,1,1h5V22z"/>
<path d="M22,22h-4v2h5c0.553,0,1-0.447,1-1v-5h-2V22z"/>
</svg>
