<?xml version="1.0" encoding="utf-8"?>
<!-- Generator: Adobe Illustrator 20.0.0, SVG Export Plug-In . SVG Version: 6.00 Build 0)  -->
<!DOCTYPE svg PUBLIC "-//W3C//DTD SVG 1.1//EN" "http://www.w3.org/Graphics/SVG/1.1/DTD/svg11.dtd">
<svg version="1.1" id="Layer_1" xmlns="http://www.w3.org/2000/svg" xmlns:xlink="http://www.w3.org/1999/xlink" x="0px" y="0px"
	 width="24px" height="24px" viewBox="0 0 24 24" enable-background="new 0 0 24 24" xml:space="preserve">
<path d="M10,12c2.761,0,5-3.239,5-6V5c0-2.761-2.239-5-5-5S5,2.239,5,5v1C5,8.761,7.239,12,10,12z"/>
<path d="M13,21.997c0-0.8,0.312-1.552,0.877-2.12l4.098-4.097c-0.288-0.253-0.621-0.459-1.001-0.587C15.329,14.638,12.824,14,10,14
	s-5.329,0.638-6.974,1.193C1.81,15.604,1,16.749,1,18.032V22h12V21.997z"/>
<path d="M15,21.997v2h2c0.265,0,0.519-0.105,0.707-0.293l5.79-5.79c0.667-0.667,0.667-1.747,0-2.414s-1.747-0.667-2.414,0
	l-5.79,5.79C15.105,21.478,15,21.732,15,21.997z"/>
</svg>
