<?xml version="1.0" encoding="utf-8"?>
<!-- Generator: Adobe Illustrator 20.0.0, SVG Export Plug-In . SVG Version: 6.00 Build 0)  -->
<!DOCTYPE svg PUBLIC "-//W3C//DTD SVG 1.1//EN" "http://www.w3.org/Graphics/SVG/1.1/DTD/svg11.dtd">
<svg version="1.1" id="Layer_1" xmlns="http://www.w3.org/2000/svg" xmlns:xlink="http://www.w3.org/1999/xlink" x="0px" y="0px"
	 width="24px" height="24px" viewBox="0 0 24 24" enable-background="new 0 0 24 24" xml:space="preserve">
<path d="M11,20.836c0-0.923-0.407-1.775-1.116-2.337C9.023,17.815,7.563,17,5.5,17s-3.523,0.815-4.383,1.498
	C0.407,19.061,0,19.913,0,20.836V23h11V20.836z"/>
<path d="M2,12.5C2,14.43,3.57,16,5.5,16c1.389,0,2.573-0.823,3.134-2H8c-1.654,0-3-1.346-3-3V9.051C3.308,9.296,2,10.742,2,12.5z"/>
<path d="M22.883,18.498C22.023,17.815,20.563,17,18.5,17s-3.523,0.815-4.384,1.499C13.407,19.061,13,19.913,13,20.836V23h11v-2.164
	C24,19.913,23.593,19.061,22.883,18.498z"/>
<path d="M15.366,14c0.561,1.177,1.745,2,3.134,2c1.93,0,3.5-1.57,3.5-3.5c0-1.758-1.308-3.204-3-3.449V11c0,1.654-1.346,3-3,3
	H15.366z"/>
<path d="M16,5h-1V3c0-1.654-1.346-3-3-3S9,1.346,9,3v2H8C7.448,5,7,5.447,7,6v5c0,0.553,0.448,1,1,1h8c0.552,0,1-0.447,1-1V6
	C17,5.447,16.552,5,16,5z M13,5h-2V3c0-0.552,0.449-1,1-1s1,0.448,1,1V5z"/>
</svg>
