<?xml version="1.0" encoding="utf-8"?>
<!-- Generator: Adobe Illustrator 20.0.0, SVG Export Plug-In . SVG Version: 6.00 Build 0)  -->
<!DOCTYPE svg PUBLIC "-//W3C//DTD SVG 1.1//EN" "http://www.w3.org/Graphics/SVG/1.1/DTD/svg11.dtd">
<svg version="1.1" id="Layer_1" xmlns="http://www.w3.org/2000/svg" xmlns:xlink="http://www.w3.org/1999/xlink" x="0px" y="0px"
	 width="24px" height="24px" viewBox="0 0 24 24" enable-background="new 0 0 24 24" xml:space="preserve">
<path d="M9,12c2.761,0,5-3.239,5-6V5c0-2.761-2.239-5-5-5S4,2.239,4,5v1C4,8.761,6.239,12,9,12z"/>
<path d="M12,18c0-1.333,0.442-2.561,1.18-3.558C11.932,14.186,10.515,14,9,14c-2.824,0-5.329,0.638-6.974,1.193
	C0.81,15.604,0,16.749,0,18.032V22h13.54C12.586,20.937,12,19.538,12,18z"/>
<path d="M18,22c0.74,0,1.424-0.215,2.019-0.567l2.274,2.274l1.414-1.414l-2.274-2.274C21.785,19.424,22,18.74,22,18
	c0-2.206-1.794-4-4-4s-4,1.794-4,4S15.794,22,18,22z M18,16c1.103,0,2,0.897,2,2s-0.897,2-2,2s-2-0.897-2-2S16.897,16,18,16z"/>
</svg>
