<?xml version="1.0" encoding="utf-8"?>
<!-- Generator: Adobe Illustrator 20.0.0, SVG Export Plug-In . SVG Version: 6.00 Build 0)  -->
<!DOCTYPE svg PUBLIC "-//W3C//DTD SVG 1.1//EN" "http://www.w3.org/Graphics/SVG/1.1/DTD/svg11.dtd">
<svg version="1.1" id="Layer_1" xmlns="http://www.w3.org/2000/svg" xmlns:xlink="http://www.w3.org/1999/xlink" x="0px" y="0px"
	 width="24px" height="24px" viewBox="0 0 24 24" enable-background="new 0 0 24 24" xml:space="preserve">
<path d="M19.448,18.034C21.039,16.125,22,13.673,22,11c0-6.065-4.935-11-11-11S0,4.935,0,11s4.935,11,11,11
	c2.673,0,5.125-0.961,7.034-2.552l4.259,4.259C22.488,23.902,22.744,24,23,24s0.512-0.098,0.707-0.293
	c0.391-0.391,0.391-1.023,0-1.414L19.448,18.034z M11,20c-4.963,0-9-4.038-9-9s4.037-9,9-9s9,4.038,9,9S15.963,20,11,20z"/>
<circle cx="11" cy="8" r="3"/>
<path d="M15.149,13.277C14.33,12.705,12.929,12,11,12s-3.33,0.705-4.149,1.277C6.315,13.652,6,14.263,6,14.916V16h10v-1.084
	C16,14.263,15.685,13.652,15.149,13.277z"/>
</svg>
