<?xml version="1.0" encoding="utf-8"?>
<!-- Generator: Adobe Illustrator 20.0.0, SVG Export Plug-In . SVG Version: 6.00 Build 0)  -->
<!DOCTYPE svg PUBLIC "-//W3C//DTD SVG 1.1//EN" "http://www.w3.org/Graphics/SVG/1.1/DTD/svg11.dtd">
<svg version="1.1" id="Layer_1" xmlns="http://www.w3.org/2000/svg" xmlns:xlink="http://www.w3.org/1999/xlink" x="0px" y="0px"
	 width="24px" height="24px" viewBox="0 0 24 24" enable-background="new 0 0 24 24" xml:space="preserve">
<polygon points="23.414,6.09 12,0.901 0.586,6.09 1.414,7.91 12,3.099 22.586,7.91 "/>
<path d="M11,20.836c0-0.924-0.407-1.775-1.116-2.337C9.023,17.815,7.563,17,5.5,17s-3.523,0.815-4.383,1.498
	C0.407,19.061,0,19.912,0,20.836V23h11V20.836z"/>
<circle cx="5.5" cy="12.5" r="3.5"/>
<path d="M22.884,18.499C22.023,17.815,20.563,17,18.5,17s-3.523,0.815-4.383,1.498C13.407,19.061,13,19.912,13,20.836V23h11v-2.164
	C24,19.912,23.593,19.061,22.884,18.499z"/>
<circle cx="18.5" cy="12.5" r="3.5"/>
</svg>
