<?xml version="1.0" encoding="utf-8"?>
<!-- Generator: Adobe Illustrator 20.0.0, SVG Export Plug-In . SVG Version: 6.00 Build 0)  -->
<!DOCTYPE svg PUBLIC "-//W3C//DTD SVG 1.1//EN" "http://www.w3.org/Graphics/SVG/1.1/DTD/svg11.dtd">
<svg version="1.1" id="Layer_1" xmlns="http://www.w3.org/2000/svg" xmlns:xlink="http://www.w3.org/1999/xlink" x="0px" y="0px"
	 width="24px" height="24px" viewBox="0 0 24 24" enable-background="new 0 0 24 24" xml:space="preserve">
<path fill-rule="evenodd" clip-rule="evenodd" d="M12,0C8.691,0,6,2.691,6,6v2c0,3.309,2.691,6,6,6s6-2.691,6-6V6
	C18,2.691,15.309,0,12,0z"/>
<path fill-rule="evenodd" clip-rule="evenodd" d="M21,20c-2.419,0-4.436-1.718-4.899-4H7c-3.859,0-7,3.14-7,7v1h24v-1
	c0-1.26-0.339-2.44-0.925-3.463C22.442,19.828,21.743,20,21,20z"/>
<polygon fill-rule="evenodd" clip-rule="evenodd" points="22,12 20,12 20,14 18,14 18,16 20,16 20,18 22,18 22,16 24,16 24,14 
	22,14 "/>
</svg>
