<?xml version="1.0" encoding="utf-8"?>
<!-- Generator: Adobe Illustrator 20.0.0, SVG Export Plug-In . SVG Version: 6.00 Build 0)  -->
<!DOCTYPE svg PUBLIC "-//W3C//DTD SVG 1.1//EN" "http://www.w3.org/Graphics/SVG/1.1/DTD/svg11.dtd">
<svg version="1.1" id="Layer_1" xmlns="http://www.w3.org/2000/svg" xmlns:xlink="http://www.w3.org/1999/xlink" x="0px" y="0px"
	 width="24px" height="24px" viewBox="0 0 24 24" enable-background="new 0 0 24 24" xml:space="preserve">
<path d="M9,12c2.761,0,5-3.239,5-6V5c0-2.761-2.239-5-5-5S4,2.239,4,5v1C4,8.761,6.239,12,9,12z"/>
<path d="M14,20c0-1.897,0.883-3.586,2.257-4.685c-0.093-0.043-0.184-0.088-0.283-0.121C14.329,14.638,11.824,14,9,14
	s-5.329,0.638-6.974,1.193C0.81,15.604,0,16.749,0,18.032V22h14.349C14.127,21.374,14,20.702,14,20z"/>
<polygon points="21,16 19,16 19,19 16,19 16,21 19,21 19,24 21,24 21,21 24,21 24,19 21,19 "/>
</svg>
