<?xml version="1.0" encoding="utf-8"?>
<!-- Generator: Adobe Illustrator 20.0.0, SVG Export Plug-In . SVG Version: 6.00 Build 0)  -->
<!DOCTYPE svg PUBLIC "-//W3C//DTD SVG 1.1//EN" "http://www.w3.org/Graphics/SVG/1.1/DTD/svg11.dtd">
<svg version="1.1" id="Layer_1" xmlns="http://www.w3.org/2000/svg" xmlns:xlink="http://www.w3.org/1999/xlink" x="0px" y="0px"
	 width="24px" height="24px" viewBox="0 0 24 24" enable-background="new 0 0 24 24" xml:space="preserve">
<path d="M23,0H11c-0.552,0-1,0.448-1,1v11l5-4h8c0.552,0,1-0.448,1-1V1C24,0.448,23.552,0,23,0z"/>
<path d="M11,21.836c0-0.924-0.407-1.775-1.116-2.337C9.023,18.815,7.563,18,5.5,18s-3.523,0.815-4.383,1.498
	C0.407,20.061,0,20.912,0,21.836V24h11V21.836z"/>
<circle cx="5.5" cy="13.5" r="3.5"/>
<path d="M22.884,19.499C22.023,18.815,20.563,18,18.5,18s-3.523,0.815-4.383,1.498C13.407,20.061,13,20.912,13,21.836V24h11v-2.164
	C24,20.912,23.593,20.061,22.884,19.499z"/>
<circle cx="18.5" cy="13.5" r="3.5"/>
</svg>
