<?xml version="1.0" encoding="utf-8"?>
<!-- Generator: Adobe Illustrator 20.0.0, SVG Export Plug-In . SVG Version: 6.00 Build 0)  -->
<!DOCTYPE svg PUBLIC "-//W3C//DTD SVG 1.1//EN" "http://www.w3.org/Graphics/SVG/1.1/DTD/svg11.dtd">
<svg version="1.1" id="Layer_1" xmlns="http://www.w3.org/2000/svg" xmlns:xlink="http://www.w3.org/1999/xlink" x="0px" y="0px"
	 width="24px" height="24px" viewBox="0 0 24 24" enable-background="new 0 0 24 24" xml:space="preserve">
<path fill-rule="evenodd" clip-rule="evenodd" d="M13,10h-2c-1.657,0-3,1.343-3,3h8C16,11.343,14.657,10,13,10z"/>
<circle fill-rule="evenodd" clip-rule="evenodd" cx="12" cy="7" r="2"/>
<path fill-rule="evenodd" clip-rule="evenodd" d="M6,24h12c1.7,0,3-1.3,3-3V3c0-1.7-1.3-3-3-3H6C4.3,0,3,1.3,3,3v18
	C3,22.7,4.3,24,6,24z M12,22c-1.1,0-2-0.9-2-2c0-1.1,0.9-2,2-2s2,0.9,2,2C14,21.1,13.1,22,12,22z M6,4c0-0.6,0.4-1,1-1h10
	c0.6,0,1,0.4,1,1v11c0,0.6-0.4,1-1,1H7c-0.6,0-1-0.4-1-1V4z"/>
</svg>
