<?xml version="1.0" encoding="utf-8"?>
<!-- Generator: Adobe Illustrator 20.0.0, SVG Export Plug-In . SVG Version: 6.00 Build 0)  -->
<!DOCTYPE svg PUBLIC "-//W3C//DTD SVG 1.1//EN" "http://www.w3.org/Graphics/SVG/1.1/DTD/svg11.dtd">
<svg version="1.1" id="Layer_1" xmlns="http://www.w3.org/2000/svg" xmlns:xlink="http://www.w3.org/1999/xlink" x="0px" y="0px"
	 width="24px" height="24px" viewBox="0 0 24 24" enable-background="new 0 0 24 24" xml:space="preserve">
<path fill-rule="evenodd" clip-rule="evenodd" d="M23,0H1C0.448,0,0,0.448,0,1v22c0,0.552,0.448,1,1,1h22c0.552,0,1-0.448,1-1V1
	C24,0.448,23.552,0,23,0z M19,20c0,0.552-0.448,1-1,1H6c-0.552,0-1-0.448-1-1v-1c0-2,1.508-2.382,3.5-3.046
	c1.183-0.394,1.694-1.437,1.919-2.281C8.997,13.059,8,11.647,8,10V9.172c0-2.089,1.527-3.955,3.607-4.153
	C13.993,4.791,16,6.661,16,9v1c0,1.647-0.997,3.059-2.419,3.673c0.227,0.846,0.741,1.889,1.919,2.281C17.491,16.618,19,17,19,19V20z
	"/>
</svg>
