<?xml version="1.0" encoding="utf-8"?>
<!-- Generator: Adobe Illustrator 20.0.0, SVG Export Plug-In . SVG Version: 6.00 Build 0)  -->
<!DOCTYPE svg PUBLIC "-//W3C//DTD SVG 1.1//EN" "http://www.w3.org/Graphics/SVG/1.1/DTD/svg11.dtd">
<svg version="1.1" id="Layer_1" xmlns="http://www.w3.org/2000/svg" xmlns:xlink="http://www.w3.org/1999/xlink" x="0px" y="0px"
	 width="24px" height="24px" viewBox="0 0 24 24" enable-background="new 0 0 24 24" xml:space="preserve">
<path d="M11,5l5,4V6h4v4h2V5c0-0.552-0.448-1-1-1h-5V1L11,5z"/>
<path d="M8,18H4v-4H2v5c0,0.552,0.448,1,1,1h5v3l5-4l-5-4V18z"/>
<circle cx="5" cy="3" r="3"/>
<path d="M10,9.916c0-0.654-0.315-1.265-0.851-1.639C8.33,7.705,6.929,7,5,7S1.67,7.705,0.851,8.277C0.315,8.652,0,9.263,0,9.916V11
	h10V9.916z"/>
<circle cx="19" cy="16" r="3"/>
<path d="M23.149,21.277C22.33,20.705,20.929,20,19,20s-3.33,0.705-4.149,1.277C14.315,21.652,14,22.263,14,22.916V24h10v-1.084
	C24,22.263,23.685,21.652,23.149,21.277z"/>
</svg>
