<?xml version="1.0" encoding="utf-8"?>
<!-- Generator: Adobe Illustrator 20.0.0, SVG Export Plug-In . SVG Version: 6.00 Build 0)  -->
<!DOCTYPE svg PUBLIC "-//W3C//DTD SVG 1.1//EN" "http://www.w3.org/Graphics/SVG/1.1/DTD/svg11.dtd">
<svg version="1.1" id="Layer_1" xmlns="http://www.w3.org/2000/svg" xmlns:xlink="http://www.w3.org/1999/xlink" x="0px" y="0px"
	 width="24px" height="24px" viewBox="0 0 24 24" enable-background="new 0 0 24 24" xml:space="preserve">
<path d="M9,12c2.761,0,5-3.239,5-6V5c0-2.761-2.239-5-5-5S4,2.239,4,5v1C4,8.761,6.239,12,9,12z"/>
<path d="M18,12c-3.314,0-6,2.686-6,6s2.686,6,6,6s6-2.686,6-6S21.314,12,18,12z M22,19h-5v-5h2v3h3V19z"/>
<path d="M10,18c0-1.415,0.371-2.741,1.015-3.894C10.368,14.039,9.694,14,9,14c-2.824,0-5.329,0.638-6.974,1.193
	C0.81,15.604,0,16.749,0,18.032V22h11.079C10.397,20.822,10,19.459,10,18z"/>
</svg>
