<?xml version="1.0" encoding="utf-8"?>
<!-- Generator: Adobe Illustrator 20.0.0, SVG Export Plug-In . SVG Version: 6.00 Build 0)  -->
<!DOCTYPE svg PUBLIC "-//W3C//DTD SVG 1.1//EN" "http://www.w3.org/Graphics/SVG/1.1/DTD/svg11.dtd">
<svg version="1.1" id="Layer_1" xmlns="http://www.w3.org/2000/svg" xmlns:xlink="http://www.w3.org/1999/xlink" x="0px" y="0px"
	 width="24px" height="24px" viewBox="0 0 24 24" enable-background="new 0 0 24 24" xml:space="preserve">
<path d="M9,12c2.761,0,5-3.239,5-6V5c0-2.761-2.239-5-5-5S4,2.239,4,5v1C4,8.761,6.239,12,9,12z"/>
<path d="M13.53,20.813C12.543,19.838,12,18.54,12,17.155c0-1.005,0.294-1.961,0.829-2.784C11.669,14.152,10.373,14,9,14
	c-2.824,0-5.329,0.638-6.974,1.193C0.81,15.604,0,16.749,0,18.032V22h14.731L13.53,20.813z"/>
<path d="M20.498,14.016c-0.546,0.055-1.06,0.246-1.498,0.549c-0.438-0.303-0.951-0.494-1.498-0.549
	c-0.953-0.092-1.888,0.234-2.566,0.904C14.333,15.516,14,16.31,14,17.155s0.333,1.639,0.936,2.235L19,23.406l4.064-4.015
	C23.667,18.794,24,18,24,17.155s-0.333-1.639-0.937-2.235C22.385,14.25,21.452,13.922,20.498,14.016z"/>
</svg>
