<?xml version="1.0" encoding="utf-8"?>
<!-- Generator: Adobe Illustrator 20.0.0, SVG Export Plug-In . SVG Version: 6.00 Build 0)  -->
<!DOCTYPE svg PUBLIC "-//W3C//DTD SVG 1.1//EN" "http://www.w3.org/Graphics/SVG/1.1/DTD/svg11.dtd">
<svg version="1.1" id="Layer_1" xmlns="http://www.w3.org/2000/svg" xmlns:xlink="http://www.w3.org/1999/xlink" x="0px" y="0px"
	 width="24px" height="24px" viewBox="0 0 24 24" enable-background="new 0 0 24 24" xml:space="preserve">
<path d="M16,19.688c0-1.626-0.967-3.076-2.463-3.695C11.95,15.334,10.087,15,8,15s-3.95,0.334-5.536,0.992
	C0.967,16.611,0,18.062,0,19.688V23h16V19.688z"/>
<circle cx="8" cy="9" r="5"/>
<path d="M15.589,11.734l1.499,1.323l0.662-0.75C18.556,11.394,19,10.219,19,9c0-1.219-0.443-2.394-1.249-3.307l-0.662-0.75
	L15.59,6.267l0.661,0.75C16.734,7.564,17,8.269,17,9s-0.267,1.436-0.75,1.984L15.589,11.734z"/>
<path d="M20.668,1.548l-0.745-0.667l-1.334,1.49l0.745,0.667C21.028,4.555,22,6.728,22,9c0,2.272-0.972,4.445-2.666,5.963
	l-0.745,0.667l1.334,1.49l0.745-0.667C22.785,14.557,24,11.84,24,9S22.785,3.443,20.668,1.548z"/>
</svg>
