<?xml version="1.0" encoding="utf-8"?>
<!-- Generator: Adobe Illustrator 20.0.0, SVG Export Plug-In . SVG Version: 6.00 Build 0)  -->
<!DOCTYPE svg PUBLIC "-//W3C//DTD SVG 1.1//EN" "http://www.w3.org/Graphics/SVG/1.1/DTD/svg11.dtd">
<svg version="1.1" id="Layer_1" xmlns="http://www.w3.org/2000/svg" xmlns:xlink="http://www.w3.org/1999/xlink" x="0px" y="0px"
	 width="24px" height="24px" viewBox="0 0 24 24" enable-background="new 0 0 24 24" xml:space="preserve">
<path d="M9,0C6.239,0,4,2.239,4,5v1c0,2.761,2.239,6,5,6s5-3.239,5-6V5C14,2.239,11.761,0,9,0z"/>
<path d="M19,11c-2.458,0-5,1.802-5,4.817c0,2.716,3.869,6.486,4.31,6.907L19,23.382l0.69-0.659c0.441-0.421,4.31-4.191,4.31-6.907
	C24,12.802,21.458,11,19,11z M19,17c-0.552,0-1-0.448-1-1c0-0.552,0.448-1,1-1s1,0.448,1,1C20,16.552,19.552,17,19,17z"/>
<path d="M12,15.817c0-0.549,0.061-1.068,0.171-1.559C11.185,14.102,10.12,14,9,14c-2.824,0-5.329,0.638-6.974,1.193
	C0.81,15.604,0,16.749,0,18.032V22h14.916C13.512,20.295,12,17.961,12,15.817z"/>
</svg>
