<?xml version="1.0" encoding="utf-8"?>
<!-- Generator: Adobe Illustrator 20.0.0, SVG Export Plug-In . SVG Version: 6.00 Build 0)  -->
<!DOCTYPE svg PUBLIC "-//W3C//DTD SVG 1.1//EN" "http://www.w3.org/Graphics/SVG/1.1/DTD/svg11.dtd">
<svg version="1.1" id="Layer_1" xmlns="http://www.w3.org/2000/svg" xmlns:xlink="http://www.w3.org/1999/xlink" x="0px" y="0px"
	 width="24px" height="24px" viewBox="0 0 24 24" enable-background="new 0 0 24 24" xml:space="preserve">
<path d="M9,12c2.761,0,5-3.239,5-6V5c0-2.761-2.239-5-5-5S4,2.239,4,5v1C4,8.761,6.239,12,9,12z"/>
<path d="M12,18c0-2.359,2-3,2-3s-2.016-1-5-1c-2.824,0-5.329,0.638-6.974,1.193C0.81,15.604,0,16.749,0,18.032V22h12V18z"/>
<path d="M23,17h-1v-2c0-1.654-1.346-3-3-3s-3,1.346-3,3v2h-1c-0.552,0-1,0.448-1,1v5c0,0.552,0.448,1,1,1h8c0.552,0,1-0.448,1-1v-5
	C24,17.448,23.552,17,23,17z M20,17h-2v-2c0-0.551,0.449-1,1-1s1,0.449,1,1V17z"/>
</svg>
