<?xml version="1.0" encoding="utf-8"?>
<!-- Generator: Adobe Illustrator 20.0.0, SVG Export Plug-In . SVG Version: 6.00 Build 0)  -->
<!DOCTYPE svg PUBLIC "-//W3C//DTD SVG 1.1//EN" "http://www.w3.org/Graphics/SVG/1.1/DTD/svg11.dtd">
<svg version="1.1" id="Layer_1" xmlns="http://www.w3.org/2000/svg" xmlns:xlink="http://www.w3.org/1999/xlink" x="0px" y="0px"
	 width="24px" height="24px" viewBox="0 0 24 24" enable-background="new 0 0 24 24" xml:space="preserve">
<path fill-rule="evenodd" clip-rule="evenodd" d="M23,0H1C0.448,0,0,0.448,0,1v22c0,0.552,0.448,1,1,1h22c0.552,0,1-0.448,1-1V1
	C24,0.448,23.552,0,23,0z M22,22h-2c0-3.314-2.686-6-6-6h-4c-3.314,0-6,2.686-6,6H2V2h20V22z"/>
<path fill-rule="evenodd" clip-rule="evenodd" d="M12,14c2.209,0,4-1.791,4-4V9c0-2.209-1.791-4-4-4S8,6.791,8,9v1
	C8,12.209,9.791,14,12,14z"/>
</svg>
