<?xml version="1.0" encoding="utf-8"?>
<!-- Generator: Adobe Illustrator 20.0.0, SVG Export Plug-In . SVG Version: 6.00 Build 0)  -->
<!DOCTYPE svg PUBLIC "-//W3C//DTD SVG 1.1//EN" "http://www.w3.org/Graphics/SVG/1.1/DTD/svg11.dtd">
<svg version="1.1" id="Layer_1" xmlns="http://www.w3.org/2000/svg" xmlns:xlink="http://www.w3.org/1999/xlink" x="0px" y="0px"
	 width="24px" height="24px" viewBox="0 0 24 24" enable-background="new 0 0 24 24" xml:space="preserve">
<path fill-rule="evenodd" clip-rule="evenodd" d="M3.272,18.432C1.937,18.766,1,19.966,1,21.342V24h22v-2.658
	c0-1.377-0.937-2.577-2.272-2.91L15,17v-2.065c1.792-1.334,3-3.715,3-5.935V5.492c0-1.65-1.344-3-3.001-3h-0.374l-0.787-1.575
	c-0.19-0.381-0.647-0.551-1.03-0.398L8.089,2.406C6.935,2.868,6,4.25,6,5.493V9c0,2.22,1.208,4.601,3,5.935V17L3.272,18.432z"/>
</svg>
