<?xml version="1.0" encoding="utf-8"?>
<!-- Generator: Adobe Illustrator 20.0.0, SVG Export Plug-In . SVG Version: 6.00 Build 0)  -->
<!DOCTYPE svg PUBLIC "-//W3C//DTD SVG 1.1//EN" "http://www.w3.org/Graphics/SVG/1.1/DTD/svg11.dtd">
<svg version="1.1" id="Layer_1" xmlns="http://www.w3.org/2000/svg" xmlns:xlink="http://www.w3.org/1999/xlink" x="0px" y="0px"
	 width="24px" height="24px" viewBox="0 0 24 24" enable-background="new 0 0 24 24" xml:space="preserve">
<path d="M9,12c2.761,0,5-3.239,5-6V5c0-2.761-2.239-5-5-5S4,2.239,4,5v1C4,8.761,6.239,12,9,12z"/>
<path d="M12,20c0-2.106,0.934-3.99,2.406-5.273C12.904,14.333,11.038,14,9,14c-2.824,0-5.329,0.638-6.974,1.193
	C0.81,15.604,0,16.749,0,18.032V22h12.294C12.105,21.366,12,20.695,12,20z"/>
<polygon points="17,23.414 23.414,17 22,15.586 17,20.586 15,18.586 13.586,20 "/>
</svg>
