<?xml version="1.0" encoding="utf-8"?>
<!-- Generator: Adobe Illustrator 20.0.0, SVG Export Plug-In . SVG Version: 6.00 Build 0)  -->
<!DOCTYPE svg PUBLIC "-//W3C//DTD SVG 1.1//EN" "http://www.w3.org/Graphics/SVG/1.1/DTD/svg11.dtd">
<svg version="1.1" id="Layer_1" xmlns="http://www.w3.org/2000/svg" xmlns:xlink="http://www.w3.org/1999/xlink" x="0px" y="0px"
	 width="24px" height="24px" viewBox="0 0 24 24" enable-background="new 0 0 24 24" xml:space="preserve">
<circle cx="5" cy="4" r="3"/>
<path d="M2,22c0,0.552,0.448,1,1,1h4c0.552,0,1-0.448,1-1v-4h2v-7c0-1.657-1.343-3-3-3H3c-1.657,0-3,1.343-3,3v7h2V22z"/>
<circle cx="17" cy="4" r="3"/>
<path d="M14,19v3c0,0.552,0.448,1,1,1h4c0.552,0,1-0.448,1-1v-3h3.387L19.949,8.684C19.812,8.275,19.43,8,19,8h-4
	c-0.43,0-0.813,0.275-0.949,0.684L10.613,19H14z"/>
</svg>
