<?xml version="1.0" encoding="utf-8"?>
<!-- Generator: Adobe Illustrator 20.0.0, SVG Export Plug-In . SVG Version: 6.00 Build 0)  -->
<!DOCTYPE svg PUBLIC "-//W3C//DTD SVG 1.1//EN" "http://www.w3.org/Graphics/SVG/1.1/DTD/svg11.dtd">
<svg version="1.1" id="Layer_1" xmlns="http://www.w3.org/2000/svg" xmlns:xlink="http://www.w3.org/1999/xlink" x="0px" y="0px"
	 width="24px" height="24px" viewBox="0 0 24 24" enable-background="new 0 0 24 24" xml:space="preserve">
<path d="M13.537,14.992C11.949,14.334,10.086,14,8,14s-3.949,0.334-5.537,0.992C0.967,15.611,0,17.062,0,18.688V24h16v-5.312
	C16,17.062,15.033,15.611,13.537,14.992z"/>
<circle cx="8" cy="8" r="5"/>
<path d="M19.5,6c-1.785,0-3.039,0.708-3.762,1.282C15.265,7.657,15,8.232,15,8.836V10h9V8.836c0-0.604-0.265-1.179-0.738-1.554
	C22.539,6.708,21.285,6,19.5,6z"/>
<circle cx="19.5" cy="2.5" r="2.5"/>
</svg>
