<?xml version="1.0" encoding="utf-8"?>
<!-- Generator: Adobe Illustrator 20.0.0, SVG Export Plug-In . SVG Version: 6.00 Build 0)  -->
<!DOCTYPE svg PUBLIC "-//W3C//DTD SVG 1.1//EN" "http://www.w3.org/Graphics/SVG/1.1/DTD/svg11.dtd">
<svg version="1.1" id="Layer_1" xmlns="http://www.w3.org/2000/svg" xmlns:xlink="http://www.w3.org/1999/xlink" x="0px" y="0px"
	 width="24px" height="24px" viewBox="0 0 24 24" enable-background="new 0 0 24 24" xml:space="preserve">
<path fill-rule="evenodd" clip-rule="evenodd" d="M15.46,10.691C15.935,10.889,16.454,11,17,11c2.209,0,4-1.791,4-4V6
	c0-2.209-1.791-4-4-4c-0.905,0-1.73,0.312-2.4,0.818C15.475,3.986,16,5.431,16,7v1C16,8.953,15.807,9.862,15.46,10.691z"/>
<path fill-rule="evenodd" clip-rule="evenodd" d="M14,8V7c0-2.761-2.239-5-5-5S4,4.239,4,7v1c0,2.761,2.239,5,5,5S14,10.761,14,8z"
	/>
<path fill-rule="evenodd" clip-rule="evenodd" d="M22.839,14.405C21.555,13.815,19.354,13,17,13c-1.195,0-2.35,0.211-3.367,0.495
	c0.376,0.078,0.753,0.157,1.13,0.253c2.911,0.742,4.97,3.275,5.192,6.252H23c0.552,0,1-0.448,1-1v-2.779
	C24,15.439,23.55,14.731,22.839,14.405z"/>
<path fill-rule="evenodd" clip-rule="evenodd" d="M1,22h16c0.552,0,1-0.448,1-1v-0.475c0-2.275-1.527-4.277-3.731-4.839
	C12.795,15.31,10.979,15,9,15s-3.795,0.31-5.269,0.686C1.527,16.248,0,18.25,0,20.525V21C0,21.552,0.448,22,1,22z"/>
</svg>
