<?xml version="1.0" encoding="utf-8"?>
<!-- Generator: Adobe Illustrator 20.0.0, SVG Export Plug-In . SVG Version: 6.00 Build 0)  -->
<!DOCTYPE svg PUBLIC "-//W3C//DTD SVG 1.1//EN" "http://www.w3.org/Graphics/SVG/1.1/DTD/svg11.dtd">
<svg version="1.1" id="Layer_1" xmlns="http://www.w3.org/2000/svg" xmlns:xlink="http://www.w3.org/1999/xlink" x="0px" y="0px"
	 width="24px" height="24px" viewBox="0 0 24 24" enable-background="new 0 0 24 24" xml:space="preserve">
<path d="M5.5,2C3.015,2,1,4.015,1,6.5c0,2.022,1.343,3.712,3.178,4.28c-1.849,2.321-2.591,5.339-1.953,8.322
	C5.042,20.928,8.393,22,12,22s6.958-1.072,9.775-2.898c0.637-2.977-0.1-5.995-1.953-8.322C21.657,10.212,23,8.522,23,6.5
	C23,4.015,20.985,2,18.5,2c-2.681,0-4.887,2.37-4.428,5.218C13.403,7.077,12.711,7,12,7s-1.403,0.077-2.072,0.218
	C10.388,4.369,8.18,2,5.5,2z"/>
</svg>
