<?xml version="1.0" encoding="utf-8"?>
<!-- Generator: Adobe Illustrator 20.0.0, SVG Export Plug-In . SVG Version: 6.00 Build 0)  -->
<!DOCTYPE svg PUBLIC "-//W3C//DTD SVG 1.1//EN" "http://www.w3.org/Graphics/SVG/1.1/DTD/svg11.dtd">
<svg version="1.1" id="Layer_1" xmlns="http://www.w3.org/2000/svg" xmlns:xlink="http://www.w3.org/1999/xlink" x="0px" y="0px"
	 width="24px" height="24px" viewBox="0 0 24 24" enable-background="new 0 0 24 24" xml:space="preserve">
<path d="M8.974,0c-2.761,0-5,2.239-5,5v1c0,2.761,2.239,6,5,6c2.761,0,5-3.239,5-6V5C13.974,2.239,11.736,0,8.974,0z"/>
<path d="M8.974,14C6.151,14,3.646,14.638,2,15.193c-1.216,0.41-2.026,1.555-2.026,2.838V22h12.683c-0.433-0.91-0.683-1.925-0.683-3
	c0-1.698,0.605-3.254,1.611-4.466C12.239,14.231,10.666,14,8.974,14z"/>
<polygon points="22,14.586 19,17.586 16,14.586 14.586,16 17.586,19 14.586,22 16,23.414 19,20.414 22,23.414 23.414,22 20.414,19 
	23.414,16 "/>
</svg>
