<?xml version="1.0" encoding="utf-8"?>
<!-- Generator: Adobe Illustrator 20.0.0, SVG Export Plug-In . SVG Version: 6.00 Build 0)  -->
<!DOCTYPE svg PUBLIC "-//W3C//DTD SVG 1.1//EN" "http://www.w3.org/Graphics/SVG/1.1/DTD/svg11.dtd">
<svg version="1.1" id="Layer_1" xmlns="http://www.w3.org/2000/svg" xmlns:xlink="http://www.w3.org/1999/xlink" x="0px" y="0px"
	 width="24px" height="24px" viewBox="0 0 24 24" enable-background="new 0 0 24 24" xml:space="preserve">
<rect x="10" y="17" fill-rule="evenodd" clip-rule="evenodd" width="4" height="2"/>
<path fill-rule="evenodd" clip-rule="evenodd" d="M22,6h-0.834C19.588,2.384,15.992,0,12,0C8.018,0,4.423,2.384,2.838,6H2
	C0.897,6,0,6.897,0,8v4c0,1.441,1.022,2.647,2.379,2.934c0.002,0.008,0,0.015,0.002,0.022C3.594,19.312,7.122,24,12,24
	c4.906,0,8.427-4.69,9.621-9.048c0.002-0.006,0-0.012,0.001-0.018C22.979,14.646,24,13.441,24,12V8C24,6.897,23.103,6,22,6z M12,2
	c2.886,0,5.504,1.565,6.915,4H15c-1.103,0-2,0.897-2,2h-2c0-1.103-0.897-2-2-2H5.09C6.507,3.565,9.122,2,12,2z M12,22
	c-3.476,0-6.332-3.431-7.513-7H7c2.206,0,4-1.794,4-4v-1h2v1c0,2.206,1.794,4,4,4h2.515C18.351,18.568,15.498,22,12,22z"/>
</svg>
