<?xml version="1.0" encoding="utf-8"?>
<!-- Generator: Adobe Illustrator 20.0.0, SVG Export Plug-In . SVG Version: 6.00 Build 0)  -->
<!DOCTYPE svg PUBLIC "-//W3C//DTD SVG 1.1//EN" "http://www.w3.org/Graphics/SVG/1.1/DTD/svg11.dtd">
<svg version="1.1" id="Layer_1" xmlns="http://www.w3.org/2000/svg" xmlns:xlink="http://www.w3.org/1999/xlink" x="0px" y="0px"
	 width="24px" height="24px" viewBox="0 0 24 24" enable-background="new 0 0 24 24" xml:space="preserve">
<path fill-rule="evenodd" clip-rule="evenodd" d="M16.5,10c2.485,0,4.5-2.015,4.5-4.5v-1C21,2.015,18.985,0,16.5,0S12,2.015,12,4.5
	v1C12,7.985,14.015,10,16.5,10z"/>
<path fill-rule="evenodd" clip-rule="evenodd" d="M11,12v-1c0-2.209-1.791-4-4-4s-4,1.791-4,4v1c0,2.209,1.791,4,4,4
	S11,14.209,11,12z"/>
<path fill-rule="evenodd" clip-rule="evenodd" d="M19,11h-5c-0.343,0-0.677,0.035-1,0.101V12c0,1.347-0.453,2.585-1.206,3.586
	C14.266,16.667,16,19.134,16,22v2h7c0.552,0,1-0.448,1-1v-7C24,13.239,21.761,11,19,11z"/>
<path fill-rule="evenodd" clip-rule="evenodd" d="M1,24h12c0.552,0,1-0.448,1-1v-1c0-2.761-2.239-5-5-5H5c-2.761,0-5,2.239-5,5v1
	C0,23.552,0.448,24,1,24z"/>
</svg>
