<?xml version="1.0" encoding="utf-8"?>
<!-- Generator: Adobe Illustrator 20.0.0, SVG Export Plug-In . SVG Version: 6.00 Build 0)  -->
<!DOCTYPE svg PUBLIC "-//W3C//DTD SVG 1.1//EN" "http://www.w3.org/Graphics/SVG/1.1/DTD/svg11.dtd">
<svg version="1.1" id="Layer_1" xmlns="http://www.w3.org/2000/svg" xmlns:xlink="http://www.w3.org/1999/xlink" x="0px" y="0px"
	 width="24px" height="24px" viewBox="0 0 24 24" enable-background="new 0 0 24 24" xml:space="preserve">
<path fill-rule="evenodd" clip-rule="evenodd" d="M20.728,18.432L15,17v-1.235c2.073-0.323,4.541-1.072,6-2.765
	c-1.25-0.875-3-3.167-3-7c0-3.314-2.686-6-6-6S6,2.686,6,6c0,3.833-1.75,6.125-3,7c1.459,1.693,3.927,2.442,6,2.765V17l-5.728,1.432
	C1.937,18.766,1,19.966,1,21.342V24h22v-2.658C23,19.966,22.063,18.766,20.728,18.432z"/>
</svg>
