<?xml version="1.0" encoding="utf-8"?>
<!-- Generator: Adobe Illustrator 20.0.0, SVG Export Plug-In . SVG Version: 6.00 Build 0)  -->
<!DOCTYPE svg PUBLIC "-//W3C//DTD SVG 1.1//EN" "http://www.w3.org/Graphics/SVG/1.1/DTD/svg11.dtd">
<svg version="1.1" id="Layer_1" xmlns="http://www.w3.org/2000/svg" xmlns:xlink="http://www.w3.org/1999/xlink" x="0px" y="0px"
	 width="24px" height="24px" viewBox="0 0 24 24" enable-background="new 0 0 24 24" xml:space="preserve">
<circle cx="19" cy="16" r="3"/>
<path d="M23.149,21.277C22.33,20.705,20.929,20,19,20s-3.33,0.705-4.149,1.277C14.315,21.652,14,22.263,14,22.916V24h10v-1.084
	C24,22.263,23.685,21.652,23.149,21.277z"/>
<circle cx="5" cy="16" r="3"/>
<path d="M10,22.916c0-0.654-0.315-1.265-0.851-1.639C8.33,20.705,6.929,20,5,20s-3.33,0.705-4.149,1.277
	C0.315,21.652,0,22.263,0,22.916V24h10V22.916z"/>
<circle cx="12" cy="3" r="3"/>
<path d="M17,9.916c0-0.654-0.315-1.265-0.851-1.639C15.33,7.705,13.929,7,12,7S8.67,7.705,7.851,8.277C7.315,8.652,7,9.263,7,9.916
	V11h10V9.916z"/>
</svg>
