<?xml version="1.0" encoding="utf-8"?>
<!-- Generator: Adobe Illustrator 19.1.0, SVG Export Plug-In . SVG Version: 6.00 Build 0)  -->
<!DOCTYPE svg PUBLIC "-//W3C//DTD SVG 1.1//EN" "http://www.w3.org/Graphics/SVG/1.1/DTD/svg11.dtd">
<svg version="1.1" id="Layer_1" xmlns="http://www.w3.org/2000/svg" xmlns:xlink="http://www.w3.org/1999/xlink" x="0px" y="0px"
	 width="48px" height="48px" viewBox="0 0 48 48" enable-background="new 0 0 48 48" xml:space="preserve">
<path id="color_61_" d="M20,9c0.6,0,1-0.4,1-1V2c0-0.6-0.4-1-1-1s-1,0.4-1,1v6C19,8.6,19.4,9,20,9z"/>
<path id="color_60_" d="M12,9c0.6,0,1-0.4,1-1V2c0-0.6-0.4-1-1-1s-1,0.4-1,1v6C11,8.6,11.4,9,12,9z"/>
<path id="color_59_" d="M28,9c0.6,0,1-0.4,1-1V2c0-0.6-0.4-1-1-1s-1,0.4-1,1v6C27,8.6,27.4,9,28,9z"/>
<path id="color_24_" d="M1,29v11c0,3.9,3.1,7,7,7h24c3.9,0,7-3.1,7-7V29H1z"/>
<path d="M46,15H2c-0.6,0-1,0.4-1,1v11h38v-6h7c0.6,0,1-0.4,1-1v-4C47,15.4,46.6,15,46,15z"/>
</svg>
