<?xml version="1.0" encoding="utf-8"?>
<!-- Generator: Adobe Illustrator 19.1.0, SVG Export Plug-In . SVG Version: 6.00 Build 0)  -->
<!DOCTYPE svg PUBLIC "-//W3C//DTD SVG 1.1//EN" "http://www.w3.org/Graphics/SVG/1.1/DTD/svg11.dtd">
<svg version="1.1" id="Layer_1" xmlns="http://www.w3.org/2000/svg" xmlns:xlink="http://www.w3.org/1999/xlink" x="0px" y="0px"
	 width="48px" height="48px" viewBox="0 0 48 48" enable-background="new 0 0 48 48" xml:space="preserve">
<path id="color_40_" d="M44,45c-0.3,0-0.5-0.1-0.7-0.3l-2-2c-0.4-0.4-0.4-1,0-1.4s1-0.4,1.4,0l2,2c0.4,0.4,0.4,1,0,1.4
	C44.5,44.9,44.3,45,44,45z"/>
<path id="color_39_" d="M42,35c-0.3,0-0.5-0.1-0.7-0.3l-2-2c-0.4-0.4-0.4-1,0-1.4s1-0.4,1.4,0l2,2c0.4,0.4,0.4,1,0,1.4
	C42.5,34.9,42.3,35,42,35z"/>
<path id="color_38_" d="M34,43c-0.3,0-0.5-0.1-0.7-0.3l-2-2c-0.4-0.4-0.4-1,0-1.4s1-0.4,1.4,0l2,2c0.4,0.4,0.4,1,0,1.4
	C34.5,42.9,34.3,43,34,43z"/>
<path d="M30,16.2l-5.7-9.6c-1.4-2.4-3.8-4-6.6-4.3c-2.8-0.3-5.5,0.6-7.5,2.6l-5.3,5.3c-2,2-2.9,4.7-2.6,7.5c0.3,2.8,1.9,5.2,4.3,6.6
	l9.6,5.7L30,16.2z"/>
<path id="color_37_" d="M37.2,21.7L33,17.4c-0.4-0.4-1-0.4-1.4,0L17.4,31.6c-0.4,0.4-0.4,1,0,1.4l4.2,4.2c0.2,0.2,0.4,0.3,0.7,0.3
	s0.5-0.1,0.7-0.3l14.1-14.1c0.2-0.2,0.3-0.4,0.3-0.7S37.4,21.8,37.2,21.7z"/>
</svg>
