<?xml version="1.0" encoding="utf-8"?>
<!-- Generator: Adobe Illustrator 19.1.0, SVG Export Plug-In . SVG Version: 6.00 Build 0)  -->
<!DOCTYPE svg PUBLIC "-//W3C//DTD SVG 1.1//EN" "http://www.w3.org/Graphics/SVG/1.1/DTD/svg11.dtd">
<svg version="1.1" id="Layer_1" xmlns="http://www.w3.org/2000/svg" xmlns:xlink="http://www.w3.org/1999/xlink" x="0px" y="0px"
	 width="48px" height="48px" viewBox="0 0 48 48" enable-background="new 0 0 48 48" xml:space="preserve">
<path d="M46.2,35.7L40.3,19c2.6-0.2,4.7-2.3,4.7-5V4c0-0.6-0.4-1-1-1H4C3.7,3,3.3,3.2,3.2,3.5s-0.2,0.6-0.1,1l5.5,12.1L1.8,35.7
	c-0.8,2.2-0.4,4.5,0.9,6.4C4.1,43.9,6.2,45,8.5,45h31.1c2.3,0,4.4-1.1,5.7-2.9C46.6,40.2,46.9,37.9,46.2,35.7z M43,14
	c0,1.7-1.3,3-3,3h-0.4L35.4,5H43V14z"/>
</svg>
