<?xml version="1.0" encoding="utf-8"?>
<!-- Generator: Adobe Illustrator 19.1.0, SVG Export Plug-In . SVG Version: 6.00 Build 0)  -->
<!DOCTYPE svg PUBLIC "-//W3C//DTD SVG 1.1//EN" "http://www.w3.org/Graphics/SVG/1.1/DTD/svg11.dtd">
<svg version="1.1" id="Layer_1" xmlns="http://www.w3.org/2000/svg" xmlns:xlink="http://www.w3.org/1999/xlink" x="0px" y="0px"
	 width="48px" height="48px" viewBox="0 0 48 48" enable-background="new 0 0 48 48" xml:space="preserve">
<path d="M46,3H4C3.6,3,3.3,3.2,3.1,3.5s-0.2,0.7,0,1L9,14.3V40c0,2.8,2.2,5,5,5h20c2.8,0,5-2.2,5-5V17h3c2.8,0,5-2.2,5-5V4
	C47,3.4,46.6,3,46,3z M30,33h-4c-0.6,0-1-0.4-1-1s0.4-1,1-1h4c0.6,0,1,0.4,1,1S30.6,33,30,33z M30,25h-4c-0.6,0-1-0.4-1-1s0.4-1,1-1
	h4c0.6,0,1,0.4,1,1S30.6,25,30,25z M30,17h-4c-0.6,0-1-0.4-1-1s0.4-1,1-1h4c0.6,0,1,0.4,1,1S30.6,17,30,17z M45,12c0,1.7-1.3,3-3,3
	h-3V5h6V12z"/>
</svg>
