<?xml version="1.0" encoding="utf-8"?>
<!-- Generator: Adobe Illustrator 19.1.0, SVG Export Plug-In . SVG Version: 6.00 Build 0)  -->
<!DOCTYPE svg PUBLIC "-//W3C//DTD SVG 1.1//EN" "http://www.w3.org/Graphics/SVG/1.1/DTD/svg11.dtd">
<svg version="1.1" id="Layer_1" xmlns="http://www.w3.org/2000/svg" xmlns:xlink="http://www.w3.org/1999/xlink" x="0px" y="0px"
	 width="48px" height="48px" viewBox="0 0 48 48" enable-background="new 0 0 48 48" xml:space="preserve">
<path d="M45.1,32.6c-0.5-0.8-1.3-1.2-2.2-1c-1.9,0.3-3.6,0.7-5.1,1c-8.9,1.8-12.6,2.5-17-3.2c-1.6-2.1-1.6-4.9-1.6-7.6
	c0-1.4,0-2.8-0.2-4c-0.7-3.6-3.5-6.1-7.3-6.7c0.7-1.4,1.8-2,2.5-2.1c0.5-0.1,0.9-0.6,0.8-1.2c-0.1-0.5-0.6-0.9-1.2-0.8
	c-1.3,0.2-3.3,1.4-4.3,4C3.9,11.2,1,14.2,1,20c0,8.1,3.1,15.2,6.2,18.7c4,4.5,9.8,7,16.1,7c0.1,0,0.2,0,0.3,0
	c7.8-0.1,15.5-4,21.2-10.6C45.5,34.4,45.5,33.4,45.1,32.6z"/>
<path id="color_70_" d="M32,17c0.3,0,0.5-0.1,0.7-0.3l6-6c0.4-0.4,0.4-1,0-1.4s-1-0.4-1.4,0l-6,6c-0.4,0.4-0.4,1,0,1.4
	C31.5,16.9,31.7,17,32,17z"/>
<path id="color_69_" d="M34.2,22.2c0.1,0.5,0.5,0.8,1,0.8c0.1,0,0.1,0,0.2,0l8.4-1.5c0.5-0.1,0.9-0.6,0.8-1.2
	c-0.1-0.5-0.6-0.9-1.2-0.8L35,21.1C34.4,21.1,34.1,21.7,34.2,22.2z"/>
<path id="color_68_" d="M25.8,13.8c0.1,0,0.1,0,0.2,0c0.5,0,0.9-0.3,1-0.8l1.5-8.4c0.1-0.5-0.3-1.1-0.8-1.2
	c-0.5-0.1-1.1,0.3-1.2,0.8L25,12.7C24.9,13.2,25.2,13.7,25.8,13.8z"/>
</svg>
