<?xml version="1.0" encoding="utf-8"?>
<!-- Generator: Adobe Illustrator 19.1.0, SVG Export Plug-In . SVG Version: 6.00 Build 0)  -->
<!DOCTYPE svg PUBLIC "-//W3C//DTD SVG 1.1//EN" "http://www.w3.org/Graphics/SVG/1.1/DTD/svg11.dtd">
<svg version="1.1" id="Layer_1" xmlns="http://www.w3.org/2000/svg" xmlns:xlink="http://www.w3.org/1999/xlink" x="0px" y="0px"
	 width="48px" height="48px" viewBox="0 0 48 48" enable-background="new 0 0 48 48" xml:space="preserve">
<path d="M44.8,17.4C44.6,17.1,44.3,17,44,17h-4V6c0-0.6-0.4-1-1-1h-5V4c0-0.6-0.4-1-1-1h-6c-0.6,0-1,0.4-1,1v5h-4V2c0-0.6-0.4-1-1-1
	h-6c-0.6,0-1,0.4-1,1v3H9C8.4,5,8,5.4,8,6v11H4c-0.3,0-0.6,0.1-0.8,0.4C3,17.6,3,17.9,3,18.2l6,28c0.1,0.5,0.5,0.8,1,0.8h28
	c0.5,0,0.9-0.3,1-0.8l6-28C45,17.9,45,17.6,44.8,17.4z M14,17h-4V7h4V17z M22,11h4v6h-4V11z M16,3h4v14h-4V3z M24,39
	c-3.9,0-7-3.1-7-7s3.1-7,7-7s7,3.1,7,7S27.9,39,24,39z M32,17h-4V5h4V17z M38,17h-4V7h4V17z"/>
</svg>
