<?xml version="1.0" encoding="utf-8"?>
<!-- Generator: Adobe Illustrator 19.1.0, SVG Export Plug-In . SVG Version: 6.00 Build 0)  -->
<!DOCTYPE svg PUBLIC "-//W3C//DTD SVG 1.1//EN" "http://www.w3.org/Graphics/SVG/1.1/DTD/svg11.dtd">
<svg version="1.1" id="Layer_1" xmlns="http://www.w3.org/2000/svg" xmlns:xlink="http://www.w3.org/1999/xlink" x="0px" y="0px"
	 width="48px" height="48px" viewBox="0 0 48 48" enable-background="new 0 0 48 48" xml:space="preserve">
<path d="M39.1,2.1c-1.7-0.4-3.2,0-4.3,1.2C33,5.1,32.5,8,32.4,9.2c-0.1,0.8-0.3,3,0.4,4.6l-4.4,4.4l-3.5-3.5c-0.4-0.4-1-0.4-1.4,0
	l-3.5,3.5l-3.5-3.5c-0.4-0.4-1-0.4-1.4,0l-5.7,5.7c-0.4,0.4-0.4,1,0,1.4l5,5c0,0-0.1,0-0.1,0c-1.9,0-3.6,0.7-4.9,2.1
	s-2.1,3.1-2.1,4.9c0,1.5,0.5,3,1.4,4.2l-6.4,6.4c-0.4,0.4-0.4,1,0,1.4C2.4,45.9,2.7,46,3,46s0.5-0.1,0.7-0.3l6.4-6.4
	c1.2,0.9,2.7,1.4,4.2,1.4c1.9,0,3.6-0.7,5-2.1c1.4-1.4,2.1-3.2,2-5l5,5c0.2,0.2,0.4,0.3,0.7,0.3s0.5-0.1,0.7-0.3l5.7-5.7
	c0.4-0.4,0.4-1,0-1.4L29.8,28l3.5-3.5c0.4-0.4,0.4-1,0-1.4l-3.5-3.5l4.4-4.4c0.8,0.4,1.8,0.5,3,0.5c2.7,0,5.9-0.9,7.5-2.5
	c2.2-2.2,1.7-5.3-1.4-8.5C41.9,3.4,40.5,2.5,39.1,2.1z M43.3,11.8c-2.1,2.1-7.6,2.3-8.5,1.4c-0.3-0.3-0.7-1.6-0.4-3.8
	c0.2-2,1-3.8,1.8-4.7c0.5-0.5,1-0.7,1.7-0.7c0.2,0,0.5,0,0.7,0.1c1,0.2,2.1,1,3.2,2.1C43.5,7.7,45,10,43.3,11.8z"/>
</svg>
