<?xml version="1.0" encoding="utf-8"?>
<!-- Generator: Adobe Illustrator 19.1.0, SVG Export Plug-In . SVG Version: 6.00 Build 0)  -->
<!DOCTYPE svg PUBLIC "-//W3C//DTD SVG 1.1//EN" "http://www.w3.org/Graphics/SVG/1.1/DTD/svg11.dtd">
<svg version="1.1" id="Layer_1" xmlns="http://www.w3.org/2000/svg" xmlns:xlink="http://www.w3.org/1999/xlink" x="0px" y="0px"
	 width="48px" height="48px" viewBox="0 0 48 48" enable-background="new 0 0 48 48" xml:space="preserve">
<rect id="color_16_" x="11" y="29" width="26" height="8"/>
<path id="color_15_" d="M29,5V2c0-0.6-0.4-1-1-1h-8c-0.6,0-1,0.4-1,1v3H29z"/>
<path d="M11,39v7c0,0.6,0.4,1,1,1h24c0.6,0,1-0.4,1-1v-7H11z"/>
<path d="M37,27v-3c0-4.6-3.5-8.4-8-8.9V7H19v8.1c-4.5,0.5-8,4.3-8,8.9v3H37z"/>
</svg>
