<?xml version="1.0" encoding="utf-8"?>
<!-- Generator: Adobe Illustrator 19.1.0, SVG Export Plug-In . SVG Version: 6.00 Build 0)  -->
<!DOCTYPE svg PUBLIC "-//W3C//DTD SVG 1.1//EN" "http://www.w3.org/Graphics/SVG/1.1/DTD/svg11.dtd">
<svg version="1.1" id="Layer_1" xmlns="http://www.w3.org/2000/svg" xmlns:xlink="http://www.w3.org/1999/xlink" x="0px" y="0px"
	 width="48px" height="48px" viewBox="0 0 48 48" enable-background="new 0 0 48 48" xml:space="preserve">
<path d="M25,19v-2.1c2.3-0.5,4-2.5,4-4.9c0-2.4-3.5-7.6-4.2-8.6c-0.4-0.5-1.3-0.5-1.6,0C22.5,4.4,19,9.6,19,12c0,2.4,1.7,4.4,4,4.9
	V19c-10.1,0.1-20,2.5-20,7c0,4.6,10.6,7,21,7s21-2.4,21-7C45,21.6,35.1,19.2,25,19z"/>
<path id="color_28_" d="M24,35c-8,0-17.1-1.4-21-4.9V40c0,4.6,10.6,7,21,7s21-2.4,21-7v-9.9C41.1,33.6,32,35,24,35z"/>
</svg>
