<?xml version="1.0" encoding="utf-8"?>
<!-- Generator: Adobe Illustrator 19.1.0, SVG Export Plug-In . SVG Version: 6.00 Build 0)  -->
<!DOCTYPE svg PUBLIC "-//W3C//DTD SVG 1.1//EN" "http://www.w3.org/Graphics/SVG/1.1/DTD/svg11.dtd">
<svg version="1.1" id="Layer_1" xmlns="http://www.w3.org/2000/svg" xmlns:xlink="http://www.w3.org/1999/xlink" x="0px" y="0px"
	 width="48px" height="48px" viewBox="0 0 48 48" enable-background="new 0 0 48 48" xml:space="preserve">
<path d="M44.9,21.6c-0.2-0.5-0.8-0.8-1.3-0.6l-2.5,1c1.2-1.7,1.8-3.8,1.8-6.1c0-6.1-4.9-11-11-11c-2.2,0-4.3,0.7-6.1,1.8l1-2.5
	c0.2-0.5,0-1.1-0.6-1.3c-0.5-0.2-1.1,0-1.3,0.6L13.2,33.2l-9.6,3.8c-0.5,0.2-0.8,0.8-0.6,1.3C3.2,38.8,3.6,39,4,39
	c0.1,0,0.2,0,0.4-0.1l7.8-3.1l-3.1,7.8c-0.2,0.5,0,1.1,0.6,1.3C9.8,45,9.9,45,10,45c0.4,0,0.8-0.2,0.9-0.6l3.8-9.6l29.6-11.8
	C44.9,22.7,45.1,22.1,44.9,21.6z M15.8,32.2l5.5-13.7c0.9,4.1,4.2,7.3,8.2,8.2L15.8,32.2z M32,20c-2.2,0-4-1.8-4-4s1.8-4,4-4
	c2.2,0,4,1.8,4,4S34.2,20,32,20z"/>
</svg>
