<?xml version="1.0" encoding="utf-8"?>
<!-- Generator: Adobe Illustrator 19.1.0, SVG Export Plug-In . SVG Version: 6.00 Build 0)  -->
<!DOCTYPE svg PUBLIC "-//W3C//DTD SVG 1.1//EN" "http://www.w3.org/Graphics/SVG/1.1/DTD/svg11.dtd">
<svg version="1.1" id="Layer_1" xmlns="http://www.w3.org/2000/svg" xmlns:xlink="http://www.w3.org/1999/xlink" x="0px" y="0px"
	 width="48px" height="48px" viewBox="0 0 48 48" enable-background="new 0 0 48 48" xml:space="preserve">
<path d="M35.6,26.2c1.9-1.6,3.1-4.3,3.4-7.3c4.5-0.5,8-4.3,8-8.9c0-2.5-1-4.7-2.8-6.5c-0.2-0.2-0.6-0.3-0.9-0.3
	c-0.3,0.1-0.6,0.3-0.7,0.6C41.9,5.8,40,7,38,7s-3.9-1.2-4.6-3.1c-0.1-0.3-0.4-0.5-0.7-0.6c-0.3-0.1-0.7,0-0.9,0.3
	C30,5.3,29,7.5,29,10c0,4.6,3.5,8.4,7.9,8.9c-0.3,3-1.8,5.4-3.4,6.3C30.7,23.9,27.5,23,24,23s-6.7,0.9-9.5,2.2
	c-1.6-0.9-3.1-3.3-3.4-6.3c4.5-0.5,7.9-4.3,7.9-8.9c0-2.5-1-4.7-2.8-6.5c-0.2-0.2-0.6-0.3-0.9-0.3c-0.3,0.1-0.6,0.3-0.7,0.6
	C13.9,5.8,12,7,10,7S6.1,5.8,5.4,3.9C5.2,3.6,5,3.3,4.7,3.3C4.3,3.2,4,3.3,3.8,3.5C2,5.3,1,7.5,1,10c0,4.6,3.5,8.5,8,8.9
	c0.2,3,1.5,5.7,3.4,7.3c-5.4,2.9-8.9,6.9-9.2,7.1c-0.3,0.4-0.3,1,0,1.3c0.2,0.2,2.5,2.8,6.3,5.4C7,42,7,45.8,7,46c0,0.6,0.4,1,1,1h0
	c0.6,0,1-0.4,1-1c0,0,0-3.7,2.4-4.8c3.5,2,7.8,3.8,12.6,3.8c4.7,0,9.1-1.7,12.6-3.8C39,42.3,39,46,39,46c0,0.6,0.4,1,1,1h0
	c0.6,0,1-0.4,1-1c0-0.2,0-4-2.6-6c3.7-2.5,6.1-5.1,6.3-5.4c0.3-0.4,0.3-1,0-1.3C44.5,33.1,41,29.2,35.6,26.2z"/>
</svg>
