<?xml version="1.0" encoding="utf-8"?>
<!-- Generator: Adobe Illustrator 19.1.0, SVG Export Plug-In . SVG Version: 6.00 Build 0)  -->
<!DOCTYPE svg PUBLIC "-//W3C//DTD SVG 1.1//EN" "http://www.w3.org/Graphics/SVG/1.1/DTD/svg11.dtd">
<svg version="1.1" id="Layer_1" xmlns="http://www.w3.org/2000/svg" xmlns:xlink="http://www.w3.org/1999/xlink" x="0px" y="0px"
	 width="48px" height="48px" viewBox="0 0 48 48" enable-background="new 0 0 48 48" xml:space="preserve">
<path d="M40.3,13.4l-5.7-5.7c-1.1-1.1-3.1-1.1-4.2,0L7.7,30.4c-0.6,0.6-0.9,1.3-0.9,2.1s0.3,1.6,0.9,2.1l5.7,5.7h0
	c0.6,0.6,1.3,0.9,2.1,0.9s1.6-0.3,2.1-0.9l22.6-22.6c0.6-0.6,0.9-1.3,0.9-2.1S40.8,14,40.3,13.4z"/>
<path id="color_19_" d="M5.6,35.3l-2.1,2.1C2.5,38.4,2,39.6,2,41c0,1.3,0.5,2.6,1.5,3.5C4.4,45.5,5.7,46,7,46c1.3,0,2.6-0.5,3.5-1.5
	l2.1-2.1L5.6,35.3z"/>
<path id="color_18_" d="M44.5,3.5C43.6,2.5,42.3,2,41,2c-1.3,0-2.6,0.5-3.5,1.5l-2.1,2.1l7.1,7.1l2.1-2.1C45.5,9.6,46,8.4,46,7
	C46,5.7,45.5,4.4,44.5,3.5z"/>
</svg>
