<?xml version="1.0" encoding="utf-8"?>
<!-- Generator: Adobe Illustrator 19.1.0, SVG Export Plug-In . SVG Version: 6.00 Build 0)  -->
<!DOCTYPE svg PUBLIC "-//W3C//DTD SVG 1.1//EN" "http://www.w3.org/Graphics/SVG/1.1/DTD/svg11.dtd">
<svg version="1.1" id="Layer_1" xmlns="http://www.w3.org/2000/svg" xmlns:xlink="http://www.w3.org/1999/xlink" x="0px" y="0px"
	 width="48px" height="48px" viewBox="0 0 48 48" enable-background="new 0 0 48 48" xml:space="preserve">
<path d="M38,7c-0.9,0-1.9,0.2-2.8,0.5C32.9,3.4,28.7,1,24,1c-4.7,0-8.9,2.4-11.2,6.5C11.9,7.2,10.9,7,10,7c-5,0-9,4-9,9s4,9,9,9
	c1.8,0,3.5-0.5,5.1-1.6c2.4,2.3,5.6,3.6,8.9,3.6s6.5-1.3,8.9-3.6c1.5,1,3.2,1.6,5.1,1.6c5,0,9-4,9-9S43,7,38,7z M10.7,13.7l-2,2
	C8.5,15.9,8.3,16,8,16s-0.5-0.1-0.7-0.3c-0.4-0.4-0.4-1,0-1.4l2-2c0.4-0.4,1-0.4,1.4,0S11.1,13.3,10.7,13.7z M19.7,16.7
	C19.5,16.9,19.3,17,19,17s-0.5-0.1-0.7-0.3l-2-2c-0.4-0.4-0.4-1,0-1.4s1-0.4,1.4,0l2,2C20.1,15.7,20.1,16.3,19.7,16.7z M25.7,8.7
	l-2,2C23.5,10.9,23.3,11,23,11s-0.5-0.1-0.7-0.3c-0.4-0.4-0.4-1,0-1.4l2-2c0.4-0.4,1-0.4,1.4,0S26.1,8.3,25.7,8.7z M32.7,16.7
	C32.5,16.9,32.3,17,32,17s-0.5-0.1-0.7-0.3l-2-2c-0.4-0.4-0.4-1,0-1.4s1-0.4,1.4,0l2,2C33.1,15.7,33.1,16.3,32.7,16.7z M41.7,17.7
	l-2,2C39.5,19.9,39.3,20,39,20s-0.5-0.1-0.7-0.3c-0.4-0.4-0.4-1,0-1.4l2-2c0.4-0.4,1-0.4,1.4,0S42.1,17.3,41.7,17.7z"/>
<path id="color_11_" d="M38,27c-1.7,0-3.3-0.4-4.8-1.1c-2.6,2-5.8,3.1-9.2,3.1s-6.5-1.1-9.2-3.1C13.3,26.6,11.7,27,10,27
	c-1.4,0-2.7-0.3-4-0.8l5,20c0.1,0.4,0.5,0.8,1,0.8h24c0.5,0,0.9-0.3,1-0.8l5-20C40.7,26.7,39.4,27,38,27z"/>
</svg>
