<?xml version="1.0" encoding="utf-8"?>
<!-- Generator: Adobe Illustrator 19.1.0, SVG Export Plug-In . SVG Version: 6.00 Build 0)  -->
<!DOCTYPE svg PUBLIC "-//W3C//DTD SVG 1.1//EN" "http://www.w3.org/Graphics/SVG/1.1/DTD/svg11.dtd">
<svg version="1.1" id="Layer_1" xmlns="http://www.w3.org/2000/svg" xmlns:xlink="http://www.w3.org/1999/xlink" x="0px" y="0px"
	 width="48px" height="48px" viewBox="0 0 48 48" enable-background="new 0 0 48 48" xml:space="preserve">
<path d="M43.2,41.5l-18.3-36c-0.3-0.7-1.4-0.7-1.8,0l-4.4,8.6l0.9,0.4c2.1,1,3.4,3.1,3.4,5.4c0,3.3-2.7,6-6,6c-1,0-1.9-0.2-2.8-0.7
	l-0.8-0.5L4.8,41.5c-0.1,0.2-0.1,0.5-0.1,0.8c0.1,0.3,0.3,0.5,0.5,0.6C11.2,45.6,17.5,47,24,47s12.8-1.4,18.7-4.1
	c0.2-0.1,0.4-0.3,0.5-0.6C43.4,42.1,43.3,41.8,43.2,41.5z M27,26c2.2,0,4,1.8,4,4s-1.8,4-4,4s-4-1.8-4-4S24.8,26,27,26z M24,45
	c-5.9,0-11.6-1.2-17-3.5l2.3-4.5C14.1,39,19.3,40,24,40c4.8,0,10-1,14.7-2.9l2.2,4.4C35.6,43.8,29.9,45,24,45z"/>
</svg>
