<?xml version="1.0" encoding="utf-8"?>
<!-- Generator: Adobe Illustrator 19.1.0, SVG Export Plug-In . SVG Version: 6.00 Build 0)  -->
<!DOCTYPE svg PUBLIC "-//W3C//DTD SVG 1.1//EN" "http://www.w3.org/Graphics/SVG/1.1/DTD/svg11.dtd">
<svg version="1.1" id="Layer_1" xmlns="http://www.w3.org/2000/svg" xmlns:xlink="http://www.w3.org/1999/xlink" x="0px" y="0px"
	 width="48px" height="48px" viewBox="0 0 48 48" enable-background="new 0 0 48 48" xml:space="preserve">
<polygon id="color_25_" points="33.4,1 14.6,1 20.6,13 27.4,13 "/>
<path d="M46,7h-7.5l-3.4-5.1l-6.3,12.5C28.7,14.8,28.4,15,28,15H15v32h31c0.6,0,1-0.4,1-1V8C47,7.4,46.6,7,46,7z M24,39h-2
	c-0.6,0-1-0.4-1-1s0.4-1,1-1h2c0.6,0,1,0.4,1,1S24.6,39,24,39z M24,31h-2c-0.6,0-1-0.4-1-1s0.4-1,1-1h2c0.6,0,1,0.4,1,1
	S24.6,31,24,31z M24,23h-2c-0.6,0-1-0.4-1-1s0.4-1,1-1h2c0.6,0,1,0.4,1,1S24.6,23,24,23z"/>
<path d="M13,14c0-0.6,0.4-1,1-1h4.4L12.8,1.9L9.5,7H2C1.4,7,1,7.4,1,8v38c0,0.6,0.4,1,1,1h11V14z"/>
</svg>
