<?xml version="1.0" encoding="utf-8"?>
<!-- Generator: Adobe Illustrator 19.1.0, SVG Export Plug-In . SVG Version: 6.00 Build 0)  -->
<!DOCTYPE svg PUBLIC "-//W3C//DTD SVG 1.1//EN" "http://www.w3.org/Graphics/SVG/1.1/DTD/svg11.dtd">
<svg version="1.1" id="Layer_1" xmlns="http://www.w3.org/2000/svg" xmlns:xlink="http://www.w3.org/1999/xlink" x="0px" y="0px"
	 width="48px" height="48px" viewBox="0 0 48 48" enable-background="new 0 0 48 48" xml:space="preserve">
<path d="M36,3H12C5.9,3,1,7.9,1,14c0,4.9,3.3,9.3,8,10.6V44c0,0.6,0.4,1,1,1h28c0.6,0,1-0.4,1-1V24.6c4.7-1.3,8-5.7,8-10.6
	C47,7.9,42.1,3,36,3z M14.7,14.7C14.5,14.9,14.3,15,14,15s-0.5-0.1-0.7-0.3c-0.4-0.4-0.4-1,0-1.4l2-2c0.4-0.4,1-0.4,1.4,0
	s0.4,1,0,1.4L14.7,14.7z M19,32c0,0.6-0.4,1-1,1s-1-0.4-1-1v-2c0-0.6,0.4-1,1-1s1,0.4,1,1V32z M26,23c-0.3,0-0.5-0.1-0.7-0.3l-2-2
	c-0.4-0.4-0.4-1,0-1.4s1-0.4,1.4,0l2,2c0.4,0.4,0.4,1,0,1.4C26.5,22.9,26.3,23,26,23z M30.7,32.7l-2,2C28.5,34.9,28.3,35,28,35
	s-0.5-0.1-0.7-0.3c-0.4-0.4-0.4-1,0-1.4l2-2c0.4-0.4,1-0.4,1.4,0S31.1,32.3,30.7,32.7z M33,14c0,0.6-0.4,1-1,1s-1-0.4-1-1v-2
	c0-0.6,0.4-1,1-1s1,0.4,1,1V14z"/>
</svg>
