<?xml version="1.0" encoding="utf-8"?>
<!-- Generator: Adobe Illustrator 19.1.0, SVG Export Plug-In . SVG Version: 6.00 Build 0)  -->
<!DOCTYPE svg PUBLIC "-//W3C//DTD SVG 1.1//EN" "http://www.w3.org/Graphics/SVG/1.1/DTD/svg11.dtd">
<svg version="1.1" id="Layer_1" xmlns="http://www.w3.org/2000/svg" xmlns:xlink="http://www.w3.org/1999/xlink" x="0px" y="0px"
	 width="48px" height="48px" viewBox="0 0 48 48" enable-background="new 0 0 48 48" xml:space="preserve">
<path d="M44.9,15.5l-8-14C36.7,1.2,36.4,1,36,1H12c-0.4,0-0.7,0.2-0.9,0.5l-8,14C3,15.7,3,15.8,3,16c0,4.8,3,7,6,7
	c2.1,0,3.9-1.1,5-2.7c1.1,1.6,2.9,2.7,5,2.7s3.9-1.1,5-2.7c1.1,1.6,2.9,2.7,5,2.7s3.9-1.1,5-2.7c1.1,1.6,2.9,2.7,5,2.7
	c3,0,6-2.2,6-7C45,15.8,45,15.7,44.9,15.5z"/>
<path d="M39,25c-1.8,0-3.6-0.6-5-1.8c-1.4,1.1-3.2,1.8-5,1.8s-3.6-0.6-5-1.8c-1.4,1.1-3.2,1.8-5,1.8s-3.6-0.6-5-1.8
	c-1.4,1.1-3.2,1.8-5,1.8c-0.7,0-1.3-0.1-2-0.3V46c0,0.6,0.4,1,1,1h11c0.6,0,1-0.4,1-1V36h8v10c0,0.6,0.4,1,1,1h11c0.6,0,1-0.4,1-1
	V24.7C40.3,24.9,39.7,25,39,25z"/>
</svg>
