<?xml version="1.0" encoding="utf-8"?>
<!-- Generator: Adobe Illustrator 19.1.0, SVG Export Plug-In . SVG Version: 6.00 Build 0)  -->
<!DOCTYPE svg PUBLIC "-//W3C//DTD SVG 1.1//EN" "http://www.w3.org/Graphics/SVG/1.1/DTD/svg11.dtd">
<svg version="1.1" id="Layer_1" xmlns="http://www.w3.org/2000/svg" xmlns:xlink="http://www.w3.org/1999/xlink" x="0px" y="0px"
	 width="48px" height="48px" viewBox="0 0 48 48" enable-background="new 0 0 48 48" xml:space="preserve">
<path d="M40,1H8C7.4,1,7,1.4,7,2v12c0,9,7.1,16.4,16,16.9V45h-9c-0.6,0-1,0.4-1,1s0.4,1,1,1h20c0.6,0,1-0.4,1-1s-0.4-1-1-1h-9V30.9
	C33.9,30.4,41,23,41,14V2C41,1.4,40.6,1,40,1z M39,3v10H9V3H39z"/>
</svg>
