<?xml version="1.0" encoding="utf-8"?>
<!-- Generator: Adobe Illustrator 19.1.0, SVG Export Plug-In . SVG Version: 6.00 Build 0)  -->
<!DOCTYPE svg PUBLIC "-//W3C//DTD SVG 1.1//EN" "http://www.w3.org/Graphics/SVG/1.1/DTD/svg11.dtd">
<svg version="1.1" id="Layer_1" xmlns="http://www.w3.org/2000/svg" xmlns:xlink="http://www.w3.org/1999/xlink" x="0px" y="0px"
	 width="48px" height="48px" viewBox="0 0 48 48" enable-background="new 0 0 48 48" xml:space="preserve">
<path d="M18,1c-0.6,0-1,0.4-1,1v10c0,2.8-2.2,5-5,5s-5-2.2-5-5V2c0-0.6-0.4-1-1-1S5,1.4,5,2v10c0,3.5,2.6,6.4,6,6.9V29H8
	c-0.6,0-1,0.4-1,1v12c0,2.8,2.2,5,5,5s5-2.2,5-5V30c0-0.6-0.4-1-1-1h-3V18.9c3.4-0.5,6-3.4,6-6.9V2C19,1.4,18.6,1,18,1z"/>
<path id="color_71_" d="M44,1H28c-0.6,0-1,0.4-1,1v16c0,0.6,0.4,1,1,1h7v10h-3c-0.6,0-1,0.4-1,1v12c0,2.8,2.2,5,5,5s5-2.2,5-5V30
	c0-0.6-0.4-1-1-1h-3V19h7c0.6,0,1-0.4,1-1V2C45,1.4,44.6,1,44,1z M29,17V3h6v14H29z M43,17h-6V3h6V17z"/>
</svg>
