<?xml version="1.0" encoding="utf-8"?>
<!-- Generator: Adobe Illustrator 19.1.0, SVG Export Plug-In . SVG Version: 6.00 Build 0)  -->
<!DOCTYPE svg PUBLIC "-//W3C//DTD SVG 1.1//EN" "http://www.w3.org/Graphics/SVG/1.1/DTD/svg11.dtd">
<svg version="1.1" id="Layer_1" xmlns="http://www.w3.org/2000/svg" xmlns:xlink="http://www.w3.org/1999/xlink" x="0px" y="0px"
	 width="48px" height="48px" viewBox="0 0 48 48" enable-background="new 0 0 48 48" xml:space="preserve">
<path d="M8,27h30c0.6,0,1-0.4,1-1V13.9c0-0.5-0.4-0.9-0.9-1c-3-0.3-5.6-2.4-6.6-5.3c-0.1-0.4-0.6-0.7-1-0.7
	c-3.9,0.3-6.3-1.4-7.3-5.2C23,1.3,22.6,1,22.2,1H8C7.4,1,7,1.4,7,2v24C7,26.6,7.4,27,8,27z"/>
<path id="color_64_" d="M44,29H2c-0.6,0-1,0.4-1,1v10c0,0.3,0.1,0.6,0.4,0.8C1.5,40.9,1.8,41,2,41c0.1,0,0.1,0,0.2,0L7,40v6
	c0,0.6,0.4,1,1,1h30c0.6,0,1-0.4,1-1v-5.9l4.8,0.9c0.3,0.1,0.6,0,0.8-0.2c0.2-0.2,0.4-0.5,0.4-0.8V30C45,29.4,44.6,29,44,29z"/>
</svg>
