<?xml version="1.0" encoding="utf-8"?>
<!-- Generator: Adobe Illustrator 19.1.0, SVG Export Plug-In . SVG Version: 6.00 Build 0)  -->
<!DOCTYPE svg PUBLIC "-//W3C//DTD SVG 1.1//EN" "http://www.w3.org/Graphics/SVG/1.1/DTD/svg11.dtd">
<svg version="1.1" id="Layer_1" xmlns="http://www.w3.org/2000/svg" xmlns:xlink="http://www.w3.org/1999/xlink" x="0px" y="0px"
	 width="48px" height="48px" viewBox="0 0 48 48" enable-background="new 0 0 48 48" xml:space="preserve">
<path d="M45,14c0-5-4-9-9-9c-4.6,0-8.4,3.5-8.9,8h-9.6L15,1.8C14.9,1.3,14.5,1,14,1H6C5.4,1,5,1.4,5,2s0.4,1,1,1h7.2l2.2,10H8
	c-0.6,0-1,0.4-1,1v26c0,3.9,3.1,7,7,7h16c3.9,0,7-3.1,7-7V22.9C41.5,22.4,45,18.6,45,14z M35,15v14H21l-3.1-14H35z M15.9,15L19,29H9
	V15H15.9z"/>
</svg>
