<?xml version="1.0" encoding="utf-8"?>
<!-- Generator: Adobe Illustrator 19.1.0, SVG Export Plug-In . SVG Version: 6.00 Build 0)  -->
<!DOCTYPE svg PUBLIC "-//W3C//DTD SVG 1.1//EN" "http://www.w3.org/Graphics/SVG/1.1/DTD/svg11.dtd">
<svg version="1.1" id="Layer_1" xmlns="http://www.w3.org/2000/svg" xmlns:xlink="http://www.w3.org/1999/xlink" x="0px" y="0px"
	 width="48px" height="48px" viewBox="0 0 48 48" enable-background="new 0 0 48 48" xml:space="preserve">
<path d="M42,23h-7v-1.6c1.1-1,1.8-2.3,2-3.8c0.2-1.7-0.4-3.4-1.5-4.6c-0.9-1-2.2-1.7-3.6-1.9C30.9,5.3,26,1,20,1S9.1,5.3,8.2,11.1
	c-1.4,0.2-2.7,0.9-3.6,1.9c-1.1,1.3-1.7,2.9-1.5,4.6c0.1,1.5,0.9,2.8,2,3.8V43c0,2.2,1.8,4,4,4h22c2.2,0,4-1.8,4-4v-6h3
	c2.8,0,5-2.2,5-5v-8C43,23.4,42.6,23,42,23z M16,41c0,0.6-0.4,1-1,1s-1-0.4-1-1v-3c0-0.6,0.4-1,1-1s1,0.4,1,1V41z M26,41
	c0,0.6-0.4,1-1,1s-1-0.4-1-1V28c0-0.6,0.4-1,1-1s1,0.4,1,1V41z M30.7,21H18c-0.6,0-1,0.4-1,1v9c0,1.1-0.9,2-2,2s-2-0.9-2-2v-9
	c0-0.6-0.4-1-1-1H9.3c-2.2,0-4.1-1.6-4.3-3.6c-0.1-1.2,0.2-2.3,1-3.1C6.8,13.5,7.8,13,9,13c0,0,0.1,0,0.1,0c0.5,0,0.9-0.4,1-0.9
	C10.5,6.9,14.8,3,20,3s9.5,3.9,10,9.1c0,0.5,0.5,0.9,1,0.9c0,0,0.1,0,0.1,0c1.1,0,2.2,0.5,2.9,1.3c0.8,0.8,1.1,1.9,1,3.1
	C34.8,19.4,32.9,21,30.7,21z M41,32c0,1.7-1.3,3-3,3h-3V25h6V32z"/>
</svg>
