<?xml version="1.0" encoding="utf-8"?>
<!-- Generator: Adobe Illustrator 19.1.0, SVG Export Plug-In . SVG Version: 6.00 Build 0)  -->
<!DOCTYPE svg PUBLIC "-//W3C//DTD SVG 1.1//EN" "http://www.w3.org/Graphics/SVG/1.1/DTD/svg11.dtd">
<svg version="1.1" id="Layer_1" xmlns="http://www.w3.org/2000/svg" xmlns:xlink="http://www.w3.org/1999/xlink" x="0px" y="0px"
	 width="48px" height="48px" viewBox="0 0 48 48" enable-background="new 0 0 48 48" xml:space="preserve">
<path d="M4.1,33c-0.3,0-0.6,0-0.9-0.1c0.4,2.6,1.2,5.2,2.5,7.4c0.5,0.8,1.3,1.3,2.2,1.5c0.1,0,0.3,0,0.4,0c0.8,0,1.6-0.3,2.1-0.9
	l8-8H4.1z"/>
<path d="M43.9,33H29.6l8,8c0.6,0.6,1.3,0.9,2.1,0.9c0.1,0,0.3,0,0.4,0c0.9-0.1,1.7-0.7,2.2-1.5c1.3-2.3,2.2-4.8,2.5-7.4
	C44.5,33,44.2,33,43.9,33z"/>
<path id="color_63_" d="M6.1,16.4C6,16.2,5.9,16.1,5.8,16c-2.6,3.4-4.2,7.4-4.7,11.7C1,28.5,1.3,29.4,1.9,30c0.6,0.6,1.4,1,2.2,1
	h16.6L6.1,16.4z"/>
<path id="color_62_" d="M42.2,16c-0.1,0.1-0.2,0.2-0.3,0.4L27.2,31h16.6c0.8,0,1.7-0.4,2.2-1c0.6-0.6,0.8-1.5,0.8-2.3
	C46.5,23.4,44.8,19.4,42.2,16z"/>
<path d="M40.1,10.4C35.4,6.9,29.9,5,24,5S12.6,6.9,7.9,10.4c-0.7,0.5-1.1,1.3-1.2,2.2c-0.1,0.9,0.3,1.7,0.9,2.3l15.8,15.8
	c0.2,0.2,0.5,0.3,0.7,0.3s0.5-0.1,0.7-0.3l15.8-15.8c0.6-0.6,0.9-1.5,0.9-2.3C41.3,11.7,40.8,10.9,40.1,10.4z"/>
</svg>
