<?xml version="1.0" encoding="utf-8"?>
<!-- Generator: Adobe Illustrator 19.1.0, SVG Export Plug-In . SVG Version: 6.00 Build 0)  -->
<!DOCTYPE svg PUBLIC "-//W3C//DTD SVG 1.1//EN" "http://www.w3.org/Graphics/SVG/1.1/DTD/svg11.dtd">
<svg version="1.1" id="Layer_1" xmlns="http://www.w3.org/2000/svg" xmlns:xlink="http://www.w3.org/1999/xlink" x="0px" y="0px"
	 width="48px" height="48px" viewBox="0 0 48 48" enable-background="new 0 0 48 48" xml:space="preserve">
<path d="M46,3H2C1.4,3,1,3.4,1,4v42c0,0.6,0.4,1,1,1h44c0.6,0,1-0.4,1-1V4C47,3.4,46.6,3,46,3z M16,41c-3.9,0-7-3.1-7-7s3.1-7,7-7
	s7,3.1,7,7S19.9,41,16,41z M16,23c-3.9,0-7-3.1-7-7s3.1-7,7-7s7,3.1,7,7S19.9,23,16,23z M38,39h-4c-0.6,0-1-0.4-1-1s0.4-1,1-1h4
	c0.6,0,1,0.4,1,1S38.6,39,38,39z M38,33h-4c-0.6,0-1-0.4-1-1s0.4-1,1-1h4c0.6,0,1,0.4,1,1S38.6,33,38,33z M38,19h-4
	c-0.6,0-1-0.4-1-1s0.4-1,1-1h4c0.6,0,1,0.4,1,1S38.6,19,38,19z M38,13h-4c-0.6,0-1-0.4-1-1s0.4-1,1-1h4c0.6,0,1,0.4,1,1
	S38.6,13,38,13z"/>
</svg>
