<?xml version="1.0" encoding="utf-8"?>
<!-- Generator: Adobe Illustrator 19.1.0, SVG Export Plug-In . SVG Version: 6.00 Build 0)  -->
<!DOCTYPE svg PUBLIC "-//W3C//DTD SVG 1.1//EN" "http://www.w3.org/Graphics/SVG/1.1/DTD/svg11.dtd">
<svg version="1.1" id="Layer_1" xmlns="http://www.w3.org/2000/svg" xmlns:xlink="http://www.w3.org/1999/xlink" x="0px" y="0px"
	 width="48px" height="48px" viewBox="0 0 48 48" enable-background="new 0 0 48 48" xml:space="preserve">
<path d="M46,1H2C1.4,1,1,1.4,1,2v44c0,0.6,0.4,1,1,1h44c0.6,0,1-0.4,1-1V2C47,1.4,46.6,1,46,1z M24,7c1.7,0,3,1.3,3,3s-1.3,3-3,3
	s-3-1.3-3-3S22.3,7,24,7z M11,7c1.7,0,3,1.3,3,3s-1.3,3-3,3s-3-1.3-3-3S9.3,7,11,7z M40,40H8V17h32V40z M37,13c-1.7,0-3-1.3-3-3
	s1.3-3,3-3s3,1.3,3,3S38.7,13,37,13z"/>
<path d="M30,29H18c-0.6,0-1-0.4-1-1v-2c0-0.6,0.4-1,1-1s1,0.4,1,1v1h10v-1c0-0.6,0.4-1,1-1s1,0.4,1,1v2C31,28.6,30.6,29,30,29z"/>
</svg>
