<?xml version="1.0" encoding="utf-8"?>
<!-- Generator: Adobe Illustrator 19.1.0, SVG Export Plug-In . SVG Version: 6.00 Build 0)  -->
<!DOCTYPE svg PUBLIC "-//W3C//DTD SVG 1.1//EN" "http://www.w3.org/Graphics/SVG/1.1/DTD/svg11.dtd">
<svg version="1.1" id="Layer_1" xmlns="http://www.w3.org/2000/svg" xmlns:xlink="http://www.w3.org/1999/xlink" x="0px" y="0px"
	 width="48px" height="48px" viewBox="0 0 48 48" enable-background="new 0 0 48 48" xml:space="preserve">
<path d="M39.4,12.3c-4.1-3.2-8.6-4.1-13.7-2.7c0.8-3.2,2.2-5.1,4.9-6.8c0.5-0.3,0.6-0.9,0.3-1.4c-0.3-0.5-0.9-0.6-1.4-0.3
	c-2.9,1.9-4.5,4-5.4,6.8c-0.5-1.1-1.2-2.3-2.2-3.3c-3.1-3.1-7.6-3.4-7.8-3.4c-0.3,0-0.6,0.1-0.8,0.3C13.1,1.7,13,2,13,2.3
	c0,0.2,0.3,3.9,2.6,6.9c-2.5,0.4-4.8,1.4-7,3.1C6.1,14.2,3.1,18.7,3,24.7c-0.1,5,1.7,12.5,11.1,20.6c3.7,3.1,8.3,1.2,9.9,0.4
	c0.9,0.5,2.9,1.3,5.1,1.3c1.6,0,3.3-0.4,4.8-1.7c9.4-8,11.2-15.6,11.1-20.6C44.9,18.7,41.9,14.2,39.4,12.3z M15.2,3.4
	c1.4,0.3,3.6,1,5.2,2.6c1.7,1.7,2.4,3.9,2.6,5.2c-1.4-0.3-3.6-1-5.3-2.6C16.2,7,15.5,4.8,15.2,3.4z M30.6,16.8
	C28.7,18.2,26.4,19,24,19s-4.7-0.8-6.6-2.2c-0.4-0.3-0.5-1-0.2-1.4s1-0.5,1.4-0.2C20.2,16.4,22,17,24,17s3.8-0.6,5.4-1.8
	c0.4-0.3,1.1-0.2,1.4,0.2C31.1,15.8,31,16.5,30.6,16.8z"/>
</svg>
