<?xml version="1.0" encoding="utf-8"?>
<!-- Generator: Adobe Illustrator 19.2.1, SVG Export Plug-In . SVG Version: 6.00 Build 0)  -->
<!DOCTYPE svg PUBLIC "-//W3C//DTD SVG 1.1//EN" "http://www.w3.org/Graphics/SVG/1.1/DTD/svg11.dtd">
<svg version="1.1" id="Layer_1" xmlns="http://www.w3.org/2000/svg" xmlns:xlink="http://www.w3.org/1999/xlink" x="0px" y="0px"
	 width="64px" height="64px" viewBox="0 0 64 64" enable-background="new 0 0 64 64" xml:space="preserve">
<path d="M62,1H2C1.448,1,1,1.448,1,2v60c0,0.552,0.448,1,1,1h60c0.552,0,1-0.448,1-1V2C63,1.448,62.552,1,62,1z M61,61H3V3h58V61z"
	/>
<path d="M31.186,50.581C31.374,50.844,31.677,51,32,51s0.626-0.156,0.814-0.419l10-14c0.217-0.305,0.247-0.706,0.075-1.039
	S42.375,35,42,35h-9V14c0-0.552-0.448-1-1-1s-1,0.448-1,1v21h-9c-0.375,0-0.718,0.209-0.889,0.542s-0.142,0.734,0.075,1.039
	L31.186,50.581z M40.057,37L32,48.279L23.943,37H40.057z"/>
</svg>
