<?xml version="1.0" encoding="utf-8"?>
<!-- Generator: Adobe Illustrator 19.2.1, SVG Export Plug-In . SVG Version: 6.00 Build 0)  -->
<!DOCTYPE svg PUBLIC "-//W3C//DTD SVG 1.1//EN" "http://www.w3.org/Graphics/SVG/1.1/DTD/svg11.dtd">
<svg version="1.1" id="Layer_1" xmlns="http://www.w3.org/2000/svg" xmlns:xlink="http://www.w3.org/1999/xlink" x="0px" y="0px"
	 width="64px" height="64px" viewBox="0 0 64 64" enable-background="new 0 0 64 64" xml:space="preserve">
<path d="M32,1C14.906,1,1,14.907,1,32s13.906,31,31,31s31-13.907,31-31S49.094,1,32,1z M32,61C16.01,61,3,47.991,3,32S16.01,3,32,3
	s29,13.009,29,29S47.99,61,32,61z"/>
<path d="M36.707,19.293c-0.391-0.391-1.023-0.391-1.414,0l-12,12c-0.391,0.391-0.391,1.023,0,1.414l12,12
	C35.488,44.902,35.744,45,36,45s0.512-0.098,0.707-0.293c0.391-0.391,0.391-1.023,0-1.414L25.414,32l11.293-11.293
	C37.098,20.316,37.098,19.684,36.707,19.293z"/>
</svg>
