<?xml version="1.0" encoding="utf-8"?>
<!-- Generator: Adobe Illustrator 19.2.1, SVG Export Plug-In . SVG Version: 6.00 Build 0)  -->
<!DOCTYPE svg PUBLIC "-//W3C//DTD SVG 1.1//EN" "http://www.w3.org/Graphics/SVG/1.1/DTD/svg11.dtd">
<svg version="1.1" id="Layer_1" xmlns="http://www.w3.org/2000/svg" xmlns:xlink="http://www.w3.org/1999/xlink" x="0px" y="0px"
	 width="64px" height="64px" viewBox="0 0 64 64" enable-background="new 0 0 64 64" xml:space="preserve">
<path d="M10,33h13v27c0,0.552,0.448,1,1,1h16c0.552,0,1-0.448,1-1V33h13c0.383,0,0.732-0.219,0.899-0.563s0.124-0.754-0.113-1.055
	l-22-28c-0.379-0.482-1.193-0.482-1.572,0l-22,28c-0.237,0.301-0.281,0.71-0.113,1.055S9.617,33,10,33z M32,5.619L51.942,31H40
	c-0.552,0-1,0.448-1,1v27H25V32c0-0.552-0.448-1-1-1H12.058L32,5.619z"/>
</svg>
