<?xml version="1.0" encoding="utf-8"?>
<!-- Generator: Adobe Illustrator 19.2.1, SVG Export Plug-In . SVG Version: 6.00 Build 0)  -->
<!DOCTYPE svg PUBLIC "-//W3C//DTD SVG 1.1//EN" "http://www.w3.org/Graphics/SVG/1.1/DTD/svg11.dtd">
<svg version="1.1" id="Layer_1" xmlns="http://www.w3.org/2000/svg" xmlns:xlink="http://www.w3.org/1999/xlink" x="0px" y="0px"
	 width="64px" height="64px" viewBox="0 0 64 64" enable-background="new 0 0 64 64" xml:space="preserve">
<path d="M62.382,1.077C62.26,1.026,62.13,1,62,1H42c-0.553,0-1,0.447-1,1s0.447,1,1,1h17.586L42.293,20.293
	c-0.391,0.391-0.391,1.023,0,1.414C42.488,21.902,42.744,22,43,22s0.512-0.098,0.707-0.293L61,4.414V22c0,0.553,0.447,1,1,1
	s1-0.447,1-1V2c0-0.13-0.026-0.26-0.077-0.382C62.822,1.373,62.627,1.178,62.382,1.077z"/>
<path d="M1.618,62.923C1.74,62.974,1.87,63,2,63h20c0.553,0,1-0.447,1-1s-0.447-1-1-1H4.414l17.293-17.293
	c0.391-0.391,0.391-1.023,0-1.414s-1.023-0.391-1.414,0L3,59.586V42c0-0.553-0.447-1-1-1s-1,0.447-1,1v20
	c0,0.13,0.026,0.26,0.077,0.382C1.178,62.627,1.373,62.822,1.618,62.923z"/>
<path d="M2,23c0.553,0,1-0.447,1-1V4.414l17.293,17.293C20.488,21.902,20.744,22,21,22s0.512-0.098,0.707-0.293
	c0.391-0.391,0.391-1.023,0-1.414L4.414,3H22c0.553,0,1-0.447,1-1s-0.447-1-1-1H2C1.87,1,1.74,1.026,1.618,1.077
	c-0.245,0.101-0.44,0.296-0.541,0.541C1.026,1.74,1,1.87,1,2v20C1,22.553,1.447,23,2,23z"/>
<path d="M62,41c-0.553,0-1,0.447-1,1v17.586L43.707,42.293c-0.391-0.391-1.023-0.391-1.414,0s-0.391,1.023,0,1.414L59.586,61H42
	c-0.553,0-1,0.447-1,1s0.447,1,1,1h20c0.13,0,0.26-0.026,0.382-0.077c0.245-0.101,0.44-0.296,0.541-0.541
	C62.974,62.26,63,62.13,63,62V42C63,41.447,62.553,41,62,41z"/>
</svg>
