<?xml version="1.0" encoding="utf-8"?>
<!-- Generator: Adobe Illustrator 19.2.1, SVG Export Plug-In . SVG Version: 6.00 Build 0)  -->
<!DOCTYPE svg PUBLIC "-//W3C//DTD SVG 1.1//EN" "http://www.w3.org/Graphics/SVG/1.1/DTD/svg11.dtd">
<svg version="1.1" id="Layer_1" xmlns="http://www.w3.org/2000/svg" xmlns:xlink="http://www.w3.org/1999/xlink" x="0px" y="0px"
	 width="64px" height="64px" viewBox="0 0 64 64" enable-background="new 0 0 64 64" xml:space="preserve">
<path fill="#222221" d="M6,31c0.553,0,1-0.448,1-1V8.414l50.293,50.293C57.488,58.902,57.744,59,58,59s0.512-0.098,0.707-0.293
	c0.391-0.391,0.391-1.023,0-1.414L8.414,7H30c0.553,0,1-0.448,1-1s-0.447-1-1-1H6C5.87,5,5.74,5.027,5.618,5.077
	c-0.245,0.101-0.44,0.296-0.541,0.541C5.027,5.74,5,5.87,5,6v24C5,30.552,5.447,31,6,31z"/>
</svg>
