<?xml version="1.0" encoding="utf-8"?>
<!-- Generator: Adobe Illustrator 19.2.1, SVG Export Plug-In . SVG Version: 6.00 Build 0)  -->
<!DOCTYPE svg PUBLIC "-//W3C//DTD SVG 1.1//EN" "http://www.w3.org/Graphics/SVG/1.1/DTD/svg11.dtd">
<svg version="1.1" id="Layer_1" xmlns="http://www.w3.org/2000/svg" xmlns:xlink="http://www.w3.org/1999/xlink" x="0px" y="0px"
	 width="64px" height="64px" viewBox="0 0 64 64" enable-background="new 0 0 64 64" xml:space="preserve">
<path d="M46.707,34.293c-0.391-0.391-1.023-0.391-1.414,0L37,42.586V3c0-0.552-0.448-1-1-1h-8c-0.552,0-1,0.448-1,1v39.586
	l-8.293-8.293c-0.391-0.391-1.023-0.391-1.414,0l-6,6c-0.391,0.391-0.391,1.023,0,1.414l20,20C31.488,61.902,31.744,62,32,62
	s0.512-0.098,0.707-0.293l20-20c0.391-0.391,0.391-1.023,0-1.414L46.707,34.293z M32,59.586L13.414,41L18,36.414l9.293,9.293
	c0.286,0.286,0.714,0.371,1.09,0.217C28.756,45.769,29,45.404,29,45V4h6v41c0,0.404,0.244,0.769,0.617,0.924
	c0.374,0.154,0.803,0.069,1.09-0.217L46,36.414L50.586,41L32,59.586z"/>
</svg>
