<?xml version="1.0" encoding="utf-8"?>
<!-- Generator: Adobe Illustrator 19.2.1, SVG Export Plug-In . SVG Version: 6.00 Build 0)  -->
<!DOCTYPE svg PUBLIC "-//W3C//DTD SVG 1.1//EN" "http://www.w3.org/Graphics/SVG/1.1/DTD/svg11.dtd">
<svg version="1.1" id="Layer_1" xmlns="http://www.w3.org/2000/svg" xmlns:xlink="http://www.w3.org/1999/xlink" x="0px" y="0px"
	 width="64px" height="64px" viewBox="0 0 64 64" enable-background="new 0 0 64 64" xml:space="preserve">
<path fill="#222221" d="M56.707,31.293l-12-12c-0.391-0.391-1.023-0.391-1.414,0s-0.391,1.023,0,1.414L53.586,31H20
	c-0.552,0-1,0.448-1,1s0.448,1,1,1h33.586L43.293,43.293c-0.391,0.391-0.391,1.023,0,1.414C43.488,44.902,43.744,45,44,45
	s0.512-0.098,0.707-0.293l12-12c0.092-0.092,0.165-0.203,0.216-0.325c0.101-0.245,0.101-0.52,0-0.764
	C56.872,31.495,56.799,31.385,56.707,31.293z"/>
<path fill="#222221" d="M10,63h40c0.552,0,1-0.448,1-1V52c0-0.552-0.448-1-1-1s-1,0.448-1,1v9H11V3h38v9c0,0.552,0.448,1,1,1
	s1-0.448,1-1V2c0-0.552-0.448-1-1-1H10C9.448,1,9,1.448,9,2v60C9,62.552,9.448,63,10,63z"/>
</svg>
