<?xml version="1.0" encoding="utf-8"?>
<!-- Generator: Adobe Illustrator 19.2.1, SVG Export Plug-In . SVG Version: 6.00 Build 0)  -->
<!DOCTYPE svg PUBLIC "-//W3C//DTD SVG 1.1//EN" "http://www.w3.org/Graphics/SVG/1.1/DTD/svg11.dtd">
<svg version="1.1" id="Layer_1" xmlns="http://www.w3.org/2000/svg" xmlns:xlink="http://www.w3.org/1999/xlink" x="0px" y="0px"
	 width="64px" height="64px" viewBox="0 0 64 64" enable-background="new 0 0 64 64" xml:space="preserve">
<path fill="#222221" d="M5.618,58.923C5.74,58.973,5.87,59,6,59h24c0.553,0,1-0.448,1-1s-0.447-1-1-1H8.414L58.707,6.707
	c0.391-0.391,0.391-1.023,0-1.414s-1.023-0.391-1.414,0L7,55.586V34c0-0.552-0.447-1-1-1s-1,0.448-1,1v24
	c0,0.13,0.027,0.26,0.077,0.382C5.178,58.627,5.373,58.822,5.618,58.923z"/>
</svg>
