<?xml version="1.0" encoding="utf-8"?>
<!-- Generator: Adobe Illustrator 19.2.1, SVG Export Plug-In . SVG Version: 6.00 Build 0)  -->
<!DOCTYPE svg PUBLIC "-//W3C//DTD SVG 1.1//EN" "http://www.w3.org/Graphics/SVG/1.1/DTD/svg11.dtd">
<svg version="1.1" id="Layer_1" xmlns="http://www.w3.org/2000/svg" xmlns:xlink="http://www.w3.org/1999/xlink" x="0px" y="0px"
	 width="64px" height="64px" viewBox="0 0 64 64" enable-background="new 0 0 64 64" xml:space="preserve">
<path d="M61.923,32.382c0.101-0.244,0.101-0.52,0-0.764c-0.051-0.123-0.124-0.233-0.217-0.326L47.707,17.293
	c-0.391-0.391-1.023-0.391-1.414,0s-0.391,1.023,0,1.414L58.586,31H28c-0.552,0-1,0.447-1,1s0.448,1,1,1h30.586L46.293,45.293
	c-0.391,0.391-0.391,1.023,0,1.414C46.488,46.902,46.744,47,47,47s0.512-0.098,0.707-0.293l13.999-13.999
	C61.799,32.616,61.872,32.505,61.923,32.382z"/>
<path d="M2,61h16c0.552,0,1-0.447,1-1V4c0-0.553-0.448-1-1-1H2C1.448,3,1,3.447,1,4v56C1,60.553,1.448,61,2,61z M3,5h14v54H3V5z"/>
</svg>
