<?xml version="1.0" encoding="utf-8"?>
<!-- Generator: Adobe Illustrator 19.2.1, SVG Export Plug-In . SVG Version: 6.00 Build 0)  -->
<!DOCTYPE svg PUBLIC "-//W3C//DTD SVG 1.1//EN" "http://www.w3.org/Graphics/SVG/1.1/DTD/svg11.dtd">
<svg version="1.1" id="Layer_1" xmlns="http://www.w3.org/2000/svg" xmlns:xlink="http://www.w3.org/1999/xlink" x="0px" y="0px"
	 width="64px" height="64px" viewBox="0 0 64 64" enable-background="new 0 0 64 64" xml:space="preserve">
<path fill="#222221" d="M62,39c-0.552,0-1,0.447-1,1v19.586L38.707,37.293c-0.391-0.391-1.023-0.391-1.414,0s-0.391,1.023,0,1.414
	L59.586,61H40c-0.552,0-1,0.447-1,1s0.448,1,1,1h22c0.13,0,0.26-0.027,0.382-0.077c0.245-0.101,0.44-0.296,0.541-0.541
	C62.973,62.26,63,62.13,63,62V40C63,39.447,62.552,39,62,39z"/>
<path fill="#222221" d="M30,1H2C1.448,1,1,1.447,1,2v28c0,0.553,0.448,1,1,1h28c0.552,0,1-0.447,1-1V2C31,1.447,30.552,1,30,1z
	 M29,29H3V3h26V29z"/>
</svg>
