<?xml version="1.0" encoding="utf-8"?>
<!-- Generator: Adobe Illustrator 19.2.1, SVG Export Plug-In . SVG Version: 6.00 Build 0)  -->
<!DOCTYPE svg PUBLIC "-//W3C//DTD SVG 1.1//EN" "http://www.w3.org/Graphics/SVG/1.1/DTD/svg11.dtd">
<svg version="1.1" id="Layer_1" xmlns="http://www.w3.org/2000/svg" xmlns:xlink="http://www.w3.org/1999/xlink" x="0px" y="0px"
	 width="64px" height="64px" viewBox="0 0 64 64" enable-background="new 0 0 64 64" xml:space="preserve">
<path d="M5,24c0,0.553,0.448,1,1,1h52c0.404,0,0.769-0.243,0.924-0.617s0.069-0.804-0.217-1.09l-20-20
	c-0.391-0.391-1.023-0.391-1.414,0s-0.391,1.023,0,1.414L55.586,23H6C5.448,23,5,23.447,5,24z"/>
<path d="M58,39H6c-0.404,0-0.769,0.243-0.924,0.617s-0.069,0.804,0.217,1.09l20,20C25.488,60.902,25.744,61,26,61
	s0.512-0.098,0.707-0.293c0.391-0.391,0.391-1.023,0-1.414L8.414,41H58c0.552,0,1-0.447,1-1S58.552,39,58,39z"/>
</svg>
