<?xml version="1.0" encoding="utf-8"?>
<!-- Generator: Adobe Illustrator 19.2.1, SVG Export Plug-In . SVG Version: 6.00 Build 0)  -->
<!DOCTYPE svg PUBLIC "-//W3C//DTD SVG 1.1//EN" "http://www.w3.org/Graphics/SVG/1.1/DTD/svg11.dtd">
<svg version="1.1" id="Layer_1" xmlns="http://www.w3.org/2000/svg" xmlns:xlink="http://www.w3.org/1999/xlink" x="0px" y="0px"
	 width="64px" height="64px" viewBox="0 0 64 64" enable-background="new 0 0 64 64" xml:space="preserve">
<path d="M17.293,17.707c0.391,0.391,1.023,0.391,1.414,0L31,5.414V36c0,0.553,0.448,1,1,1s1-0.447,1-1V5.414l12.293,12.293
	C45.488,17.902,45.744,18,46,18s0.512-0.098,0.707-0.293c0.391-0.391,0.391-1.023,0-1.414L32.708,2.294
	c-0.092-0.093-0.203-0.166-0.326-0.217c-0.244-0.101-0.52-0.101-0.764,0c-0.123,0.051-0.233,0.124-0.326,0.217L17.293,16.293
	C16.902,16.684,16.902,17.316,17.293,17.707z"/>
<path d="M60,45H4c-0.552,0-1,0.447-1,1v16c0,0.553,0.448,1,1,1h56c0.552,0,1-0.447,1-1V46C61,45.447,60.552,45,60,45z M59,61H5V47
	h54V61z"/>
</svg>
