<?xml version="1.0" encoding="utf-8"?>
<!-- Generator: Adobe Illustrator 19.2.1, SVG Export Plug-In . SVG Version: 6.00 Build 0)  -->
<!DOCTYPE svg PUBLIC "-//W3C//DTD SVG 1.1//EN" "http://www.w3.org/Graphics/SVG/1.1/DTD/svg11.dtd">
<svg version="1.1" id="Layer_1" xmlns="http://www.w3.org/2000/svg" xmlns:xlink="http://www.w3.org/1999/xlink" x="0px" y="0px"
	 width="64px" height="64px" viewBox="0 0 64 64" enable-background="new 0 0 64 64" xml:space="preserve">
<path d="M52,42c-0.552,0-1,0.447-1,1v18H3V17h13c0.552,0,1-0.447,1-1s-0.448-1-1-1H2c-0.552,0-1,0.447-1,1v46c0,0.553,0.448,1,1,1
	h50c0.552,0,1-0.447,1-1V43C53,42.447,52.552,42,52,42z"/>
<path d="M41.669,4.257c-0.294-0.266-0.716-0.332-1.076-0.17C40.232,4.247,40,4.605,40,5v9.048C27.972,14.719,16,18.724,16,41
	c0,0.429,0.273,0.811,0.68,0.947C16.785,41.983,16.893,42,17,42c0.306,0,0.602-0.141,0.795-0.394
	c4.581-6.006,9.733-9.527,22.205-9.607V41c0,0.395,0.232,0.753,0.593,0.913c0.36,0.162,0.782,0.096,1.076-0.17l20-18
	C61.88,23.554,62,23.283,62,23s-0.12-0.554-0.331-0.743L41.669,4.257z M42,38.755V31c0-0.549-0.443-0.996-0.992-1
	c-0.196-0.002-0.389-0.002-0.582-0.002c-11.965,0-17.741,2.956-22.369,8.14c0.542-12.846,5.155-21.391,22.985-22.139
	C41.578,15.977,42,15.536,42,15V7.245L59.505,23L42,38.755z"/>
</svg>
