<?xml version="1.0" encoding="utf-8"?>
<!-- Generator: Adobe Illustrator 19.2.1, SVG Export Plug-In . SVG Version: 6.00 Build 0)  -->
<!DOCTYPE svg PUBLIC "-//W3C//DTD SVG 1.1//EN" "http://www.w3.org/Graphics/SVG/1.1/DTD/svg11.dtd">
<svg version="1.1" id="Layer_1" xmlns="http://www.w3.org/2000/svg" xmlns:xlink="http://www.w3.org/1999/xlink" x="0px" y="0px"
	 width="64px" height="64px" viewBox="0 0 64 64" enable-background="new 0 0 64 64" xml:space="preserve">
<path d="M51.286,22c-5.104,0-13.13,5.931-20.892,11.665C23.52,38.746,16.409,44,12.714,44C7.267,44,3,39.681,3,34.166
	C3,28.561,7.357,24,12.714,24c3.184,0,7.325,2.623,10.558,4.886l-7.613,2.485c-0.524,0.171-0.812,0.735-0.64,1.261
	c0.138,0.422,0.529,0.689,0.95,0.689c0.103,0,0.207-0.016,0.311-0.05l9.502-3.102c0.036-0.012,0.06-0.038,0.094-0.053
	c0.064-0.029,0.124-0.06,0.181-0.102c0.055-0.04,0.1-0.085,0.145-0.135c0.026-0.029,0.06-0.046,0.083-0.078
	c0.015-0.021,0.017-0.047,0.031-0.069c0.035-0.058,0.059-0.119,0.082-0.183c0.022-0.061,0.042-0.119,0.052-0.181
	c0.009-0.06,0.007-0.119,0.005-0.18c-0.002-0.071-0.007-0.139-0.024-0.208c-0.006-0.024-0.001-0.048-0.008-0.071l-3.109-9.528
	c-0.171-0.524-0.73-0.812-1.261-0.64c-0.524,0.171-0.812,0.735-0.64,1.261l2.179,6.679C19.752,24.063,16.056,22,12.714,22
	C6.255,22,1,27.458,1,34.166C1,40.802,6.146,46,12.714,46c4.354,0,11.405-5.21,18.87-10.726C39.084,29.731,46.84,24,51.286,24
	C56.643,24,61,28.561,61,34.166C61,39.681,56.733,44,51.286,44c-4.2,0-9.864-4.05-13.248-6.469
	c-0.451-0.321-1.074-0.217-1.396,0.231c-0.321,0.45-0.218,1.074,0.231,1.396C41.717,42.62,46.818,46,51.286,46
	C57.854,46,63,40.802,63,34.166C63,27.458,57.745,22,51.286,22z"/>
</svg>
