<?xml version="1.0" encoding="utf-8"?>
<!-- Generator: Adobe Illustrator 19.2.1, SVG Export Plug-In . SVG Version: 6.00 Build 0)  -->
<!DOCTYPE svg PUBLIC "-//W3C//DTD SVG 1.1//EN" "http://www.w3.org/Graphics/SVG/1.1/DTD/svg11.dtd">
<svg version="1.1" id="Layer_1" xmlns="http://www.w3.org/2000/svg" xmlns:xlink="http://www.w3.org/1999/xlink" x="0px" y="0px"
	 width="64px" height="64px" viewBox="0 0 64 64" enable-background="new 0 0 64 64" xml:space="preserve">
<path d="M2.077,32.382c0.051,0.122,0.124,0.233,0.216,0.325l16,16C18.488,48.902,18.744,49,19,49s0.512-0.098,0.707-0.293
	c0.391-0.391,0.391-1.023,0-1.414L5.414,33H49c0.552,0,1-0.448,1-1s-0.448-1-1-1H5.414l14.293-14.293
	c0.391-0.391,0.391-1.023,0-1.414s-1.023-0.391-1.414,0l-16,16c-0.092,0.092-0.165,0.203-0.216,0.325
	C1.976,31.862,1.976,32.138,2.077,32.382z"/>
<path d="M62,1c-0.552,0-1,0.448-1,1v60c0,0.552,0.448,1,1,1s1-0.448,1-1V2C63,1.448,62.552,1,62,1z"/>
</svg>
