<?xml version="1.0" encoding="utf-8"?>
<!-- Generator: Adobe Illustrator 19.2.1, SVG Export Plug-In . SVG Version: 6.00 Build 0)  -->
<!DOCTYPE svg PUBLIC "-//W3C//DTD SVG 1.1//EN" "http://www.w3.org/Graphics/SVG/1.1/DTD/svg11.dtd">
<svg version="1.1" id="Layer_1" xmlns="http://www.w3.org/2000/svg" xmlns:xlink="http://www.w3.org/1999/xlink" x="0px" y="0px"
	 width="64px" height="64px" viewBox="0 0 64 64" enable-background="new 0 0 64 64" xml:space="preserve">
<path d="M32.708,48.706l9.999-9.999c0.391-0.391,0.391-1.023,0-1.414s-1.023-0.391-1.414,0L33,45.586V26c0-0.553-0.448-1-1-1
	s-1,0.447-1,1v19.586l-8.293-8.293c-0.391-0.391-1.023-0.391-1.414,0s-0.391,1.023,0,1.414l9.999,9.999
	c0.092,0.093,0.203,0.166,0.326,0.217C31.74,48.973,31.87,49,32,49s0.26-0.027,0.382-0.077
	C32.505,48.872,32.615,48.799,32.708,48.706z"/>
<path d="M52.803,29.145C51.398,18.744,42.593,11,32,11c-9.112,0-17.036,5.728-19.908,14.318C5.628,26.678,1,32.336,1,39
	c0,7.295,5.677,13.443,13,14h10c0.552,0,1-0.447,1-1s-0.448-1-1-1l-9.923,0.003C7.865,50.528,3,45.256,3,39
	c0-5.889,4.217-10.86,10.027-11.823c0.375-0.062,0.683-0.332,0.793-0.696C16.266,18.417,23.571,13,32,13
	c9.83,0,17.958,7.37,18.906,17.143c0.046,0.481,0.432,0.861,0.914,0.9C56.968,31.461,61,35.834,61,41c0,5.149-3.993,9.544-9,10
	H40.001c-0.552,0-1,0.447-1,1s0.448,1,1,1l12.089-0.004C58.208,52.444,63,47.175,63,41C63,35.078,58.584,30.022,52.803,29.145z"/>
</svg>
