<?xml version="1.0" encoding="utf-8"?>
<!-- Generator: Adobe Illustrator 19.2.1, SVG Export Plug-In . SVG Version: 6.00 Build 0)  -->
<!DOCTYPE svg PUBLIC "-//W3C//DTD SVG 1.1//EN" "http://www.w3.org/Graphics/SVG/1.1/DTD/svg11.dtd">
<svg version="1.1" id="Layer_1" xmlns="http://www.w3.org/2000/svg" xmlns:xlink="http://www.w3.org/1999/xlink" x="0px" y="0px"
	 width="64px" height="64px" viewBox="0 0 64 64" enable-background="new 0 0 64 64" xml:space="preserve">
<path d="M9,27v14c0,0.553,0.448,1,1,1s1-0.447,1-1V27c0-6.065,4.935-11,11-11h19.586L31.293,26.293
	c-0.391,0.391-0.391,1.023,0,1.414C31.488,27.902,31.744,28,32,28s0.512-0.098,0.707-0.293l11.999-11.999
	c0.093-0.092,0.166-0.203,0.217-0.326c0.101-0.244,0.101-0.52,0-0.764c-0.051-0.123-0.124-0.233-0.217-0.326L32.707,2.293
	c-0.391-0.391-1.023-0.391-1.414,0s-0.391,1.023,0,1.414L41.586,14H22C14.832,14,9,19.832,9,27z"/>
<path d="M30,63h24c0.552,0,1-0.447,1-1V38c0-0.553-0.448-1-1-1H30c-0.552,0-1,0.447-1,1v24C29,62.553,29.448,63,30,63z M31,39h22v22
	H31V39z"/>
</svg>
