<?xml version="1.0" encoding="utf-8"?>
<!-- Generator: Adobe Illustrator 19.2.1, SVG Export Plug-In . SVG Version: 6.00 Build 0)  -->
<!DOCTYPE svg PUBLIC "-//W3C//DTD SVG 1.1//EN" "http://www.w3.org/Graphics/SVG/1.1/DTD/svg11.dtd">
<svg version="1.1" id="Layer_1" xmlns="http://www.w3.org/2000/svg" xmlns:xlink="http://www.w3.org/1999/xlink" x="0px" y="0px"
	 width="64px" height="64px" viewBox="0 0 64 64" enable-background="new 0 0 64 64" xml:space="preserve">
<path d="M32,61c0.553,0,1-0.448,1-1V25h13c0.373,0,0.715-0.208,0.887-0.538c0.173-0.331,0.146-0.73-0.067-1.035l-14-20
	c-0.375-0.535-1.264-0.535-1.639,0l-14,20c-0.214,0.305-0.24,0.704-0.067,1.035C17.285,24.792,17.627,25,18,25h13v35
	C31,60.552,31.447,61,32,61z M32,5.744L44.079,23H19.921L32,5.744z"/>
</svg>
