<?xml version="1.0" encoding="utf-8"?>
<!-- Generator: Adobe Illustrator 19.2.1, SVG Export Plug-In . SVG Version: 6.00 Build 0)  -->
<!DOCTYPE svg PUBLIC "-//W3C//DTD SVG 1.1//EN" "http://www.w3.org/Graphics/SVG/1.1/DTD/svg11.dtd">
<svg version="1.1" id="Layer_1" xmlns="http://www.w3.org/2000/svg" xmlns:xlink="http://www.w3.org/1999/xlink" x="0px" y="0px"
	 width="64px" height="64px" viewBox="0 0 64 64" enable-background="new 0 0 64 64" xml:space="preserve">
<path d="M61.923,32.382c0.101-0.244,0.101-0.519,0-0.764c-0.051-0.123-0.125-0.234-0.217-0.327l-9.999-9.999
	c-0.391-0.391-1.023-0.391-1.414,0s-0.391,1.023,0,1.414L58.586,31H3c-0.553,0-1,0.447-1,1s0.447,1,1,1h55.586l-8.293,8.293
	c-0.391,0.391-0.391,1.023,0,1.414C50.488,42.902,50.744,43,51,43s0.512-0.098,0.707-0.293l9.999-9.999
	C61.799,32.616,61.872,32.505,61.923,32.382z"/>
<path d="M2,14c0,0.553,0.447,1,1,1h27.586l-8.293,8.293c-0.391,0.391-0.391,1.023,0,1.414C22.488,24.902,22.744,25,23,25
	s0.512-0.098,0.707-0.293l9.999-9.999c0.093-0.092,0.166-0.203,0.217-0.326c0.101-0.244,0.101-0.519,0-0.764
	c-0.051-0.123-0.125-0.234-0.217-0.327l-9.999-9.999c-0.391-0.391-1.023-0.391-1.414,0s-0.391,1.023,0,1.414L30.586,13H3
	C2.447,13,2,13.447,2,14z"/>
<path d="M2,50c0,0.553,0.447,1,1,1h37.586l-8.293,8.293c-0.391,0.391-0.391,1.023,0,1.414C32.488,60.902,32.744,61,33,61
	s0.512-0.098,0.707-0.293l9.999-9.999c0.093-0.092,0.166-0.203,0.217-0.326c0.101-0.244,0.101-0.519,0-0.764
	c-0.051-0.123-0.125-0.234-0.217-0.327l-9.999-9.999c-0.391-0.391-1.023-0.391-1.414,0s-0.391,1.023,0,1.414L40.586,49H3
	C2.447,49,2,49.447,2,50z"/>
</svg>
