<?xml version="1.0" encoding="utf-8"?>
<!-- Generator: Adobe Illustrator 19.2.1, SVG Export Plug-In . SVG Version: 6.00 Build 0)  -->
<!DOCTYPE svg PUBLIC "-//W3C//DTD SVG 1.1//EN" "http://www.w3.org/Graphics/SVG/1.1/DTD/svg11.dtd">
<svg version="1.1" id="Layer_1" xmlns="http://www.w3.org/2000/svg" xmlns:xlink="http://www.w3.org/1999/xlink" x="0px" y="0px"
	 width="64px" height="64px" viewBox="0 0 64 64" enable-background="new 0 0 64 64" xml:space="preserve">
<path d="M3.293,42.707c0.391,0.391,1.023,0.391,1.414,0l13.25-13.25l15.295,17.207c0.188,0.211,0.455,0.333,0.737,0.336
	c0.003,0,0.007,0,0.011,0c0.278,0,0.543-0.115,0.733-0.319L59,20.547V38c0,0.553,0.448,1,1,1s1-0.447,1-1V18
	c0-0.007-0.004-0.012-0.004-0.018c-0.001-0.08-0.027-0.155-0.047-0.233c-0.013-0.049-0.015-0.102-0.035-0.148
	c-0.019-0.044-0.056-0.08-0.081-0.121c-0.044-0.07-0.083-0.141-0.142-0.198c-0.004-0.004-0.006-0.01-0.01-0.014
	c-0.035-0.032-0.079-0.045-0.117-0.071c-0.065-0.046-0.126-0.094-0.201-0.123c-0.067-0.026-0.137-0.031-0.207-0.042
	C60.103,17.023,60.055,17,60,17H40c-0.552,0-1,0.447-1,1s0.448,1,1,1h17.706l-23.69,25.513L18.748,27.336
	c-0.183-0.206-0.443-0.327-0.718-0.336c-0.268,0.007-0.542,0.099-0.736,0.293l-14,14C2.902,41.684,2.902,42.316,3.293,42.707z"/>
</svg>
