<?xml version="1.0" encoding="utf-8"?>
<!-- Generator: Adobe Illustrator 19.2.1, SVG Export Plug-In . SVG Version: 6.00 Build 0)  -->
<!DOCTYPE svg PUBLIC "-//W3C//DTD SVG 1.1//EN" "http://www.w3.org/Graphics/SVG/1.1/DTD/svg11.dtd">
<svg version="1.1" id="Layer_1" xmlns="http://www.w3.org/2000/svg" xmlns:xlink="http://www.w3.org/1999/xlink" x="0px" y="0px"
	 width="64px" height="64px" viewBox="0 0 64 64" enable-background="new 0 0 64 64" xml:space="preserve">
<path d="M31.382,54.786C31.562,54.927,31.78,55,32,55c0.148,0,0.298-0.033,0.438-0.101C32.781,54.732,33,54.383,33,54V41h19
	c4.963,0,9-4.038,9-9s-4.037-9-9-9H33V10c0-0.383-0.219-0.732-0.562-0.899c-0.346-0.166-0.754-0.123-1.056,0.113l-28,22
	C3.141,31.403,3,31.693,3,32s0.141,0.597,0.382,0.786L31.382,54.786z M31,12.058V24c0,0.552,0.447,1,1,1h20c3.859,0,7,3.14,7,7
	s-3.141,7-7,7H32c-0.553,0-1,0.448-1,1v11.942L5.618,32L31,12.058z"/>
</svg>
