<?xml version="1.0" encoding="utf-8"?>
<!-- Generator: Adobe Illustrator 19.2.1, SVG Export Plug-In . SVG Version: 6.00 Build 0)  -->
<!DOCTYPE svg PUBLIC "-//W3C//DTD SVG 1.1//EN" "http://www.w3.org/Graphics/SVG/1.1/DTD/svg11.dtd">
<svg version="1.1" id="Layer_1" xmlns="http://www.w3.org/2000/svg" xmlns:xlink="http://www.w3.org/1999/xlink" x="0px" y="0px"
	 width="64px" height="64px" viewBox="0 0 64 64" enable-background="new 0 0 64 64" xml:space="preserve">
<path d="M62,1H2C1.447,1,1,1.448,1,2v60c0,0.552,0.447,1,1,1h60c0.553,0,1-0.448,1-1V2C63,1.448,62.553,1,62,1z M61,61H3V3h58V61z"
	/>
<path d="M13.077,32.382c0.051,0.123,0.124,0.233,0.217,0.326l13.999,13.999C27.488,46.902,27.744,47,28,47s0.512-0.098,0.707-0.293
	c0.391-0.391,0.391-1.023,0-1.414L16.414,33H50c0.553,0,1-0.448,1-1s-0.447-1-1-1H16.414l12.293-12.293
	c0.391-0.391,0.391-1.023,0-1.414s-1.023-0.391-1.414,0L13.294,31.292c-0.093,0.092-0.166,0.203-0.217,0.326
	C12.976,31.862,12.976,32.138,13.077,32.382z"/>
</svg>
