<?xml version="1.0" encoding="utf-8"?>
<!-- Generator: Adobe Illustrator 19.2.1, SVG Export Plug-In . SVG Version: 6.00 Build 0)  -->
<!DOCTYPE svg PUBLIC "-//W3C//DTD SVG 1.1//EN" "http://www.w3.org/Graphics/SVG/1.1/DTD/svg11.dtd">
<svg version="1.1" id="Layer_1" xmlns="http://www.w3.org/2000/svg" xmlns:xlink="http://www.w3.org/1999/xlink" x="0px" y="0px"
	 width="64px" height="64px" viewBox="0 0 64 64" enable-background="new 0 0 64 64" xml:space="preserve">
<path d="M3.077,46.382c0.051,0.123,0.124,0.233,0.217,0.326l13.999,13.999C17.488,60.902,17.744,61,18,61s0.512-0.098,0.707-0.293
	c0.391-0.391,0.391-1.023,0-1.414L6.414,47H34c7.168,0,13-5.832,13-13V6.414l12.293,12.293C59.488,18.902,59.744,19,60,19
	s0.512-0.098,0.707-0.293c0.391-0.391,0.391-1.023,0-1.414L46.708,3.294c-0.092-0.093-0.203-0.166-0.326-0.217
	c-0.244-0.101-0.52-0.101-0.764,0c-0.123,0.051-0.233,0.124-0.326,0.217L31.293,17.293c-0.391,0.391-0.391,1.023,0,1.414
	s1.023,0.391,1.414,0L45,6.414V34c0,6.065-4.935,11-11,11H6.414l12.293-12.293c0.391-0.391,0.391-1.023,0-1.414
	s-1.023-0.391-1.414,0L3.294,45.292c-0.093,0.092-0.166,0.203-0.217,0.326C2.976,45.862,2.976,46.138,3.077,46.382z"/>
</svg>
