<?xml version="1.0" encoding="utf-8"?>
<!-- Generator: Adobe Illustrator 19.2.1, SVG Export Plug-In . SVG Version: 6.00 Build 0)  -->
<!DOCTYPE svg PUBLIC "-//W3C//DTD SVG 1.1//EN" "http://www.w3.org/Graphics/SVG/1.1/DTD/svg11.dtd">
<svg version="1.1" id="Layer_1" xmlns="http://www.w3.org/2000/svg" xmlns:xlink="http://www.w3.org/1999/xlink" x="0px" y="0px"
	 width="64px" height="64px" viewBox="0 0 64 64" enable-background="new 0 0 64 64" xml:space="preserve">
<path d="M13.293,52.707l8,8C21.488,60.902,21.744,61,22,61s0.512-0.098,0.707-0.293l28-28c0.391-0.391,0.391-1.023,0-1.414l-28-28
	c-0.391-0.391-1.023-0.391-1.414,0l-8,8c-0.391,0.391-0.391,1.023,0,1.414L32.586,32L13.293,51.293
	C12.902,51.684,12.902,52.316,13.293,52.707z M34.707,32.707c0.391-0.391,0.391-1.023,0-1.414L15.414,12L22,5.414L48.586,32
	L22,58.586L15.414,52L34.707,32.707z"/>
</svg>
