<?xml version="1.0" encoding="utf-8"?>
<!-- Generator: Adobe Illustrator 19.2.1, SVG Export Plug-In . SVG Version: 6.00 Build 0)  -->
<!DOCTYPE svg PUBLIC "-//W3C//DTD SVG 1.1//EN" "http://www.w3.org/Graphics/SVG/1.1/DTD/svg11.dtd">
<svg version="1.1" id="Layer_1" xmlns="http://www.w3.org/2000/svg" xmlns:xlink="http://www.w3.org/1999/xlink" x="0px" y="0px"
	 width="64px" height="64px" viewBox="0 0 64 64" enable-background="new 0 0 64 64" xml:space="preserve">
<path d="M32,2c-0.553,0-1,0.448-1,1v41.586L16.707,30.293c-0.391-0.391-1.023-0.391-1.414,0s-0.391,1.023,0,1.414l15.999,15.999
	c0.092,0.093,0.203,0.166,0.326,0.217C31.74,47.973,31.87,48,32,48s0.26-0.027,0.382-0.077c0.123-0.051,0.233-0.124,0.326-0.217
	l15.999-15.999c0.391-0.391,0.391-1.023,0-1.414s-1.023-0.391-1.414,0L33,44.586V3C33,2.448,32.553,2,32,2z"/>
<path d="M62,49c-0.553,0-1,0.448-1,1v11H3V50c0-0.552-0.447-1-1-1s-1,0.448-1,1v12c0,0.552,0.447,1,1,1h60c0.553,0,1-0.448,1-1V50
	C63,49.448,62.553,49,62,49z"/>
</svg>
