<?xml version="1.0" encoding="utf-8"?>
<!-- Generator: Adobe Illustrator 19.2.1, SVG Export Plug-In . SVG Version: 6.00 Build 0)  -->
<!DOCTYPE svg PUBLIC "-//W3C//DTD SVG 1.1//EN" "http://www.w3.org/Graphics/SVG/1.1/DTD/svg11.dtd">
<svg version="1.1" id="Layer_1" xmlns="http://www.w3.org/2000/svg" xmlns:xlink="http://www.w3.org/1999/xlink" x="0px" y="0px"
	 width="64px" height="64px" viewBox="0 0 64 64" enable-background="new 0 0 64 64" xml:space="preserve">
<path d="M22.762,34.075c0-5.094,4.145-9.239,9.238-9.239c2.947,0,5.621,1.378,7.347,3.664l-4.226-0.202
	c-0.536-0.002-1.021,0.399-1.047,0.951s0.399,1.021,0.951,1.047l6.136,0.294c0.016,0,0.032,0.001,0.048,0.001
	c0.248,0,0.488-0.092,0.673-0.26c0.027-0.024,0.04-0.059,0.064-0.086c0.011-0.012,0.018-0.026,0.028-0.038
	c0.07-0.087,0.126-0.18,0.164-0.284c0.009-0.024,0.011-0.049,0.018-0.073c0.019-0.07,0.049-0.137,0.052-0.211l0.294-6.136
	c0.026-0.552-0.399-1.021-0.951-1.047c-0.532-0.015-1.021,0.399-1.047,0.951l-0.15,3.141c-2.096-2.339-5.094-3.712-8.353-3.712
	c-6.197,0-11.238,5.042-11.238,11.239c0,0.552,0.447,1,1,1S22.762,34.627,22.762,34.075z"/>
<path d="M42.238,33.427c-0.553,0-1,0.448-1,1c0,5.094-4.145,9.239-9.238,9.239c-2.983,0-5.687-1.409-7.41-3.745l4.339,0.022
	c0.002,0,0.003,0,0.005,0c0.55,0,0.997-0.444,1-0.995c0.003-0.552-0.442-1.002-0.995-1.005l-6.143-0.032c-0.002,0-0.003,0-0.005,0
	c-0.012,0-0.022,0.006-0.034,0.007c-0.039,0.001-0.076,0.017-0.116,0.023c-0.096,0.015-0.189,0.032-0.274,0.072
	c-0.004,0.002-0.007,0.001-0.011,0.003c-0.019,0.009-0.03,0.026-0.047,0.036c-0.094,0.053-0.181,0.114-0.253,0.193
	c-0.024,0.026-0.037,0.057-0.058,0.085c-0.055,0.075-0.105,0.15-0.138,0.239c-0.015,0.041-0.017,0.084-0.026,0.127
	c-0.016,0.07-0.043,0.135-0.043,0.209l-0.032,6.143c-0.003,0.552,0.442,1.002,0.995,1.005c0.001,0,0.003,0,0.005,0
	c0.55,0,0.997-0.444,1-0.995l0.016-2.975c2.089,2.256,5.029,3.581,8.225,3.581c6.197,0,11.238-5.042,11.238-11.239
	C43.238,33.875,42.791,33.427,42.238,33.427z"/>
<path d="M52.804,29.144C51.398,18.744,42.593,11,32,11c-9.111,0-17.036,5.728-19.908,14.318C5.628,26.678,1,32.336,1,39
	c0,7.296,5.677,13.444,13,14h38c0.03,0,0.06-0.001,0.09-0.004C58.208,52.444,63,47.175,63,41C63,35.078,58.584,30.022,52.804,29.144
	z M51.954,51l-37.878,0.003C7.865,50.529,3,45.256,3,39c0-5.888,4.217-10.86,10.026-11.823c0.376-0.062,0.684-0.332,0.794-0.696
	C16.266,18.417,23.571,13,32,13c9.829,0,17.957,7.37,18.906,17.142c0.047,0.482,0.432,0.861,0.914,0.9C56.968,31.46,61,35.834,61,41
	C61,46.135,57.03,50.519,51.954,51z"/>
</svg>
