<?xml version="1.0" encoding="utf-8"?>
<!-- Generator: Adobe Illustrator 19.2.1, SVG Export Plug-In . SVG Version: 6.00 Build 0)  -->
<!DOCTYPE svg PUBLIC "-//W3C//DTD SVG 1.1//EN" "http://www.w3.org/Graphics/SVG/1.1/DTD/svg11.dtd">
<svg version="1.1" id="Layer_1" xmlns="http://www.w3.org/2000/svg" xmlns:xlink="http://www.w3.org/1999/xlink" x="0px" y="0px"
	 width="64px" height="64px" viewBox="0 0 64 64" enable-background="new 0 0 64 64" xml:space="preserve">
<path d="M2,51h12c0.553,0,1-0.447,1-1s-0.447-1-1-1H3V15h36.586l-8.293,8.293c-0.391,0.391-0.391,1.023,0,1.414
	C31.488,24.902,31.744,25,32,25s0.512-0.098,0.707-0.293l9.999-9.999c0.093-0.092,0.166-0.203,0.217-0.326
	c0.101-0.244,0.101-0.519,0-0.764c-0.051-0.123-0.125-0.234-0.217-0.327l-9.999-9.999c-0.391-0.391-1.023-0.391-1.414,0
	s-0.391,1.023,0,1.414L39.586,13H2c-0.553,0-1,0.447-1,1v36C1,50.553,1.447,51,2,51z"/>
<path d="M62,13H50c-0.553,0-1,0.447-1,1s0.447,1,1,1h11v34H24.414l8.293-8.293c0.391-0.391,0.391-1.023,0-1.414
	s-1.023-0.391-1.414,0l-9.999,9.999c-0.093,0.092-0.166,0.203-0.217,0.326c-0.101,0.244-0.101,0.52,0,0.764
	c0.051,0.123,0.124,0.234,0.217,0.326l9.999,9.999C31.488,60.902,31.744,61,32,61s0.512-0.098,0.707-0.293
	c0.391-0.391,0.391-1.023,0-1.414L24.414,51H62c0.553,0,1-0.447,1-1V14C63,13.447,62.553,13,62,13z"/>
</svg>
