<?xml version="1.0" encoding="utf-8"?>
<!-- Generator: Adobe Illustrator 19.2.1, SVG Export Plug-In . SVG Version: 6.00 Build 0)  -->
<!DOCTYPE svg PUBLIC "-//W3C//DTD SVG 1.1//EN" "http://www.w3.org/Graphics/SVG/1.1/DTD/svg11.dtd">
<svg version="1.1" id="Layer_1" xmlns="http://www.w3.org/2000/svg" xmlns:xlink="http://www.w3.org/1999/xlink" x="0px" y="0px"
	 width="64px" height="64px" viewBox="0 0 64 64" enable-background="new 0 0 64 64" xml:space="preserve">
<path d="M54.707,3.293c-0.391-0.391-1.023-0.391-1.414,0l-28,28c-0.391,0.391-0.391,1.023,0,1.414l28,28
	C53.488,60.902,53.744,61,54,61s0.512-0.098,0.707-0.293c0.391-0.391,0.391-1.023,0-1.414L27.414,32L54.707,4.707
	C55.098,4.316,55.098,3.684,54.707,3.293z"/>
<path d="M9.293,32.707l28,28C37.488,60.902,37.744,61,38,61s0.512-0.098,0.707-0.293c0.391-0.391,0.391-1.023,0-1.414L11.414,32
	L38.707,4.707c0.391-0.391,0.391-1.023,0-1.414s-1.023-0.391-1.414,0l-28,28C8.902,31.684,8.902,32.316,9.293,32.707z"/>
</svg>
