<?xml version="1.0" encoding="utf-8"?>
<!-- Generator: Adobe Illustrator 19.2.1, SVG Export Plug-In . SVG Version: 6.00 Build 0)  -->
<!DOCTYPE svg PUBLIC "-//W3C//DTD SVG 1.1//EN" "http://www.w3.org/Graphics/SVG/1.1/DTD/svg11.dtd">
<svg version="1.1" id="Layer_1" xmlns="http://www.w3.org/2000/svg" xmlns:xlink="http://www.w3.org/1999/xlink" x="0px" y="0px"
	 width="64px" height="64px" viewBox="0 0 64 64" enable-background="new 0 0 64 64" xml:space="preserve">
<path d="M32,63c0.552,0,1-0.447,1-1V42c0-0.553-0.448-1-1-1s-1,0.447-1,1v20C31,62.553,31.448,63,32,63z"/>
<path d="M61.923,31.618c-0.051-0.123-0.124-0.233-0.217-0.326L48.707,18.293c-0.391-0.391-1.023-0.391-1.414,0s-0.391,1.023,0,1.414
	L58.586,31H33V2c0-0.553-0.448-1-1-1s-1,0.447-1,1v29H2c-0.552,0-1,0.447-1,1s0.448,1,1,1h56.586L47.293,44.293
	c-0.391,0.391-0.391,1.023,0,1.414C47.488,45.902,47.744,46,48,46s0.512-0.098,0.707-0.293l12.999-12.999
	c0.093-0.092,0.166-0.203,0.217-0.326C62.024,32.138,62.024,31.862,61.923,31.618z"/>
</svg>
