<?xml version="1.0" encoding="utf-8"?>
<!-- Generator: Adobe Illustrator 19.2.1, SVG Export Plug-In . SVG Version: 6.00 Build 0)  -->
<!DOCTYPE svg PUBLIC "-//W3C//DTD SVG 1.1//EN" "http://www.w3.org/Graphics/SVG/1.1/DTD/svg11.dtd">
<svg version="1.1" id="Layer_1" xmlns="http://www.w3.org/2000/svg" xmlns:xlink="http://www.w3.org/1999/xlink" x="0px" y="0px"
	 width="64px" height="64px" viewBox="0 0 64 64" enable-background="new 0 0 64 64" xml:space="preserve">
<path fill="#222221" d="M19.293,16.707c0.391,0.391,1.023,0.391,1.414,0L31,6.414V46c0,0.552,0.448,1,1,1s1-0.448,1-1V6.414
	l10.293,10.293C43.488,16.902,43.744,17,44,17s0.512-0.098,0.707-0.293c0.391-0.391,0.391-1.023,0-1.414l-12-12
	c-0.092-0.092-0.203-0.165-0.325-0.216c-0.245-0.101-0.52-0.101-0.764,0c-0.122,0.051-0.233,0.124-0.325,0.216l-12,12
	C18.902,15.684,18.902,16.316,19.293,16.707z"/>
<path fill="#222221" d="M11.03,29.757l-8,32c-0.075,0.299-0.007,0.615,0.182,0.858S3.692,63,4,63h56
	c0.308,0,0.599-0.142,0.788-0.385s0.257-0.559,0.182-0.858l-8-32C52.859,29.312,52.459,29,52,29H42c-0.552,0-1,0.448-1,1
	s0.448,1,1,1h9.219l7.5,30H5.281l7.5-30H22c0.552,0,1-0.448,1-1s-0.448-1-1-1H12C11.541,29,11.141,29.312,11.03,29.757z"/>
</svg>
