<?xml version="1.0" encoding="utf-8"?>
<!-- Generator: Adobe Illustrator 19.2.1, SVG Export Plug-In . SVG Version: 6.00 Build 0)  -->
<!DOCTYPE svg PUBLIC "-//W3C//DTD SVG 1.1//EN" "http://www.w3.org/Graphics/SVG/1.1/DTD/svg11.dtd">
<svg version="1.1" id="Layer_1" xmlns="http://www.w3.org/2000/svg" xmlns:xlink="http://www.w3.org/1999/xlink" x="0px" y="0px"
	 width="64px" height="64px" viewBox="0 0 64 64" enable-background="new 0 0 64 64" xml:space="preserve">
<path d="M32,14c-0.552,0-1,0.448-1,1v43.586L16.707,44.293c-0.391-0.391-1.023-0.391-1.414,0s-0.391,1.023,0,1.414l16,16
	c0.092,0.092,0.203,0.165,0.325,0.216C31.74,61.973,31.87,62,32,62s0.26-0.027,0.382-0.077c0.122-0.051,0.233-0.124,0.325-0.216
	l16-16c0.391-0.391,0.391-1.023,0-1.414s-1.023-0.391-1.414,0L33,58.586V15C33,14.448,32.552,14,32,14z"/>
<path d="M62,1H2C1.448,1,1,1.448,1,2s0.448,1,1,1h60c0.552,0,1-0.448,1-1S62.552,1,62,1z"/>
</svg>
