<?xml version="1.0" encoding="utf-8"?>
<!-- Generator: Adobe Illustrator 19.2.1, SVG Export Plug-In . SVG Version: 6.00 Build 0)  -->
<!DOCTYPE svg PUBLIC "-//W3C//DTD SVG 1.1//EN" "http://www.w3.org/Graphics/SVG/1.1/DTD/svg11.dtd">
<svg version="1.1" id="Layer_1" xmlns="http://www.w3.org/2000/svg" xmlns:xlink="http://www.w3.org/1999/xlink" x="0px" y="0px"
	 width="64px" height="64px" viewBox="0 0 64 64" enable-background="new 0 0 64 64" xml:space="preserve">
<path d="M61.923,31.618c-0.051-0.123-0.124-0.233-0.217-0.326l-9.999-9.999c-0.391-0.391-1.023-0.391-1.414,0s-0.391,1.023,0,1.414
	L58.586,31H39V2c0-0.552-0.447-1-1-1s-1,0.448-1,1v60c0,0.552,0.447,1,1,1s1-0.448,1-1V33h19.586l-8.293,8.293
	c-0.391,0.391-0.391,1.023,0,1.414C50.488,42.902,50.744,43,51,43s0.512-0.098,0.707-0.293l9.999-9.999
	c0.093-0.092,0.166-0.203,0.217-0.326C62.024,32.138,62.024,31.862,61.923,31.618z"/>
<path d="M26,1c-0.553,0-1,0.448-1,1v29H5.414l8.293-8.293c0.391-0.391,0.391-1.023,0-1.414s-1.023-0.391-1.414,0l-9.999,9.999
	c-0.093,0.092-0.166,0.203-0.217,0.326c-0.101,0.244-0.101,0.52,0,0.764c0.051,0.123,0.124,0.233,0.217,0.326l9.999,9.999
	C12.488,42.902,12.744,43,13,43s0.512-0.098,0.707-0.293c0.391-0.391,0.391-1.023,0-1.414L5.414,33H25v29c0,0.552,0.447,1,1,1
	s1-0.448,1-1V2C27,1.448,26.553,1,26,1z"/>
</svg>
