<?xml version="1.0" encoding="utf-8"?>
<!-- Generator: Adobe Illustrator 19.2.1, SVG Export Plug-In . SVG Version: 6.00 Build 0)  -->
<!DOCTYPE svg PUBLIC "-//W3C//DTD SVG 1.1//EN" "http://www.w3.org/Graphics/SVG/1.1/DTD/svg11.dtd">
<svg version="1.1" id="Layer_1" xmlns="http://www.w3.org/2000/svg" xmlns:xlink="http://www.w3.org/1999/xlink" x="0px" y="0px"
	 width="64px" height="64px" viewBox="0 0 64 64" enable-background="new 0 0 64 64" xml:space="preserve">
<path d="M61,27H21.414l8.293-8.293c0.391-0.391,0.391-1.023,0-1.414l-6-6c-0.391-0.391-1.023-0.391-1.414,0l-20,20
	c-0.391,0.391-0.391,1.023,0,1.414l20,20C22.488,52.902,22.744,53,23,53s0.512-0.098,0.707-0.293l6-6
	c0.391-0.391,0.391-1.023,0-1.414L21.414,37H61c0.552,0,1-0.448,1-1v-8C62,27.448,61.552,27,61,27z M60,35H19
	c-0.404,0-0.769,0.244-0.924,0.617c-0.155,0.374-0.069,0.804,0.217,1.09L27.586,46L23,50.586L4.414,32L23,13.414L27.586,18
	l-9.293,9.293c-0.286,0.286-0.372,0.716-0.217,1.09C18.231,28.756,18.596,29,19,29h41V35z"/>
</svg>
