<?xml version="1.0" encoding="utf-8"?>
<!-- Generator: Adobe Illustrator 19.2.1, SVG Export Plug-In . SVG Version: 6.00 Build 0)  -->
<!DOCTYPE svg PUBLIC "-//W3C//DTD SVG 1.1//EN" "http://www.w3.org/Graphics/SVG/1.1/DTD/svg11.dtd">
<svg version="1.1" id="Layer_1" xmlns="http://www.w3.org/2000/svg" xmlns:xlink="http://www.w3.org/1999/xlink" x="0px" y="0px"
	 width="64px" height="64px" viewBox="0 0 64 64" enable-background="new 0 0 64 64" xml:space="preserve">
<path fill="#222221" d="M4.414,3H24c0.553,0,1-0.447,1-1s-0.447-1-1-1H2C1.87,1,1.74,1.026,1.618,1.077
	c-0.245,0.101-0.44,0.296-0.541,0.541C1.026,1.74,1,1.87,1,2v22c0,0.553,0.447,1,1,1s1-0.447,1-1V4.414l22.293,22.293
	C25.488,26.902,25.744,27,26,27s0.512-0.098,0.707-0.293c0.391-0.391,0.391-1.023,0-1.414L4.414,3z"/>
<path fill="#222221" d="M62,33H34c-0.553,0-1,0.447-1,1v28c0,0.553,0.447,1,1,1h28c0.553,0,1-0.447,1-1V34
	C63,33.447,62.553,33,62,33z M61,61H35V35h26V61z"/>
</svg>
