<?xml version="1.0" encoding="utf-8"?>
<!-- Generator: Adobe Illustrator 19.2.1, SVG Export Plug-In . SVG Version: 6.00 Build 0)  -->
<!DOCTYPE svg PUBLIC "-//W3C//DTD SVG 1.1//EN" "http://www.w3.org/Graphics/SVG/1.1/DTD/svg11.dtd">
<svg version="1.1" id="Layer_1" xmlns="http://www.w3.org/2000/svg" xmlns:xlink="http://www.w3.org/1999/xlink" x="0px" y="0px"
	 width="64px" height="64px" viewBox="0 0 64 64" enable-background="new 0 0 64 64" xml:space="preserve">
<path d="M4,37c-0.552,0-1,0.448-1,1v22c0,0.13,0.027,0.26,0.077,0.382c0.101,0.244,0.296,0.439,0.541,0.541
	C3.74,60.973,3.87,61,4,61h22c0.552,0,1-0.448,1-1s-0.448-1-1-1H6.414L59,6.414V26c0,0.552,0.448,1,1,1s1-0.448,1-1V4
	c0-0.13-0.027-0.26-0.077-0.382c-0.101-0.244-0.296-0.439-0.541-0.541C60.26,3.027,60.13,3,60,3H38c-0.552,0-1,0.448-1,1
	s0.448,1,1,1h19.586L5,57.586V38C5,37.448,4.552,37,4,37z"/>
</svg>
