<?xml version="1.0" encoding="utf-8"?>
<!-- Generator: Adobe Illustrator 19.2.1, SVG Export Plug-In . SVG Version: 6.00 Build 0)  -->
<!DOCTYPE svg PUBLIC "-//W3C//DTD SVG 1.1//EN" "http://www.w3.org/Graphics/SVG/1.1/DTD/svg11.dtd">
<svg version="1.1" id="Layer_1" xmlns="http://www.w3.org/2000/svg" xmlns:xlink="http://www.w3.org/1999/xlink" x="0px" y="0px"
	 width="64px" height="64px" viewBox="0 0 64 64" enable-background="new 0 0 64 64" xml:space="preserve">
<path d="M5.293,45.793c-0.391,0.391-0.391,1.023,0,1.414l15,15c0.092,0.092,0.203,0.165,0.325,0.216
	C20.74,62.473,20.87,62.5,21,62.5s0.26-0.027,0.382-0.077c0.122-0.051,0.233-0.124,0.325-0.216l15-15
	c0.391-0.391,0.391-1.023,0-1.414s-1.023-0.391-1.414,0L22,59.086V3.5h36c0.552,0,1-0.448,1-1s-0.448-1-1-1H21c-0.552,0-1,0.448-1,1
	v56.586L6.707,45.793C6.316,45.402,5.684,45.402,5.293,45.793z"/>
</svg>
