<?xml version="1.0" encoding="utf-8"?>
<!-- Generator: Adobe Illustrator 19.2.1, SVG Export Plug-In . SVG Version: 6.00 Build 0)  -->
<!DOCTYPE svg PUBLIC "-//W3C//DTD SVG 1.1//EN" "http://www.w3.org/Graphics/SVG/1.1/DTD/svg11.dtd">
<svg version="1.1" id="Layer_1" xmlns="http://www.w3.org/2000/svg" xmlns:xlink="http://www.w3.org/1999/xlink" x="0px" y="0px"
	 width="64px" height="64px" viewBox="0 0 64 64" enable-background="new 0 0 64 64" xml:space="preserve">
<path d="M62,5H2C1.447,5,1,5.447,1,6v52c0,0.553,0.447,1,1,1h60c0.553,0,1-0.447,1-1V6C63,5.447,62.553,5,62,5z M61,7v8H3V7H61z
	 M3,57V17h58v40H3z"/>
<path d="M52.382,25.077C52.26,25.026,52.13,25,52,25H36c-0.553,0-1,0.447-1,1s0.447,1,1,1h13.586L33.293,43.293
	c-0.391,0.391-0.391,1.023,0,1.414C33.488,44.902,33.744,45,34,45s0.512-0.098,0.707-0.293L51,28.414V42c0,0.553,0.447,1,1,1
	s1-0.447,1-1V26c0-0.13-0.026-0.26-0.077-0.382C52.822,25.373,52.627,25.178,52.382,25.077z"/>
</svg>
