<?xml version="1.0" encoding="utf-8"?>
<!-- Generator: Adobe Illustrator 19.2.1, SVG Export Plug-In . SVG Version: 6.00 Build 0)  -->
<!DOCTYPE svg PUBLIC "-//W3C//DTD SVG 1.1//EN" "http://www.w3.org/Graphics/SVG/1.1/DTD/svg11.dtd">
<svg version="1.1" id="Layer_1" xmlns="http://www.w3.org/2000/svg" xmlns:xlink="http://www.w3.org/1999/xlink" x="0px" y="0px"
	 width="64px" height="64px" viewBox="0 0 64 64" enable-background="new 0 0 64 64" xml:space="preserve">
<path fill="#222221" d="M62,37c-0.553,0-1,0.448-1,1v19H3V17h46.586L39.293,27.293c-0.391,0.391-0.391,1.023,0,1.414
	C39.488,28.902,39.744,29,40,29s0.512-0.098,0.707-0.293l11.999-11.999c0.093-0.092,0.166-0.203,0.217-0.326
	c0.101-0.244,0.101-0.52,0-0.764c-0.051-0.123-0.124-0.233-0.217-0.326L40.707,3.293c-0.391-0.391-1.023-0.391-1.414,0
	s-0.391,1.023,0,1.414L49.586,15H2c-0.553,0-1,0.448-1,1v42c0,0.552,0.447,1,1,1h60c0.553,0,1-0.448,1-1V38
	C63,37.448,62.553,37,62,37z"/>
</svg>
