<?xml version="1.0" encoding="utf-8"?>
<!-- Generator: Adobe Illustrator 19.2.1, SVG Export Plug-In . SVG Version: 6.00 Build 0)  -->
<!DOCTYPE svg PUBLIC "-//W3C//DTD SVG 1.1//EN" "http://www.w3.org/Graphics/SVG/1.1/DTD/svg11.dtd">
<svg version="1.1" id="Layer_1" xmlns="http://www.w3.org/2000/svg" xmlns:xlink="http://www.w3.org/1999/xlink" x="0px" y="0px"
	 width="64px" height="64px" viewBox="0 0 64 64" enable-background="new 0 0 64 64" xml:space="preserve">
<path d="M11,24v16c0,0.553,0.447,1,1,1h23v11c0,0.388,0.225,0.741,0.576,0.905C35.711,52.969,35.855,53,36,53
	c0.229,0,0.457-0.079,0.641-0.231l24-20C60.868,32.578,61,32.297,61,32s-0.132-0.578-0.359-0.769l-24-20
	c-0.299-0.247-0.714-0.302-1.064-0.137C35.225,11.259,35,11.612,35,12v11H12C11.447,23,11,23.447,11,24z M13,25h23
	c0.553,0,1-0.447,1-1v-9.865L58.438,32L37,49.865V40c0-0.553-0.447-1-1-1H13V25z"/>
<path d="M5,40V24c0-0.553-0.447-1-1-1s-1,0.447-1,1v16c0,0.553,0.447,1,1,1S5,40.553,5,40z"/>
</svg>
