<?xml version="1.0" encoding="utf-8"?>
<!-- Generator: Adobe Illustrator 19.2.1, SVG Export Plug-In . SVG Version: 6.00 Build 0)  -->
<!DOCTYPE svg PUBLIC "-//W3C//DTD SVG 1.1//EN" "http://www.w3.org/Graphics/SVG/1.1/DTD/svg11.dtd">
<svg version="1.1" id="Layer_1" xmlns="http://www.w3.org/2000/svg" xmlns:xlink="http://www.w3.org/1999/xlink" x="0px" y="0px"
	 width="64px" height="64px" viewBox="0 0 64 64" enable-background="new 0 0 64 64" xml:space="preserve">
<path d="M61.923,18.618c-0.051-0.123-0.125-0.234-0.217-0.327L50.707,7.293c-0.391-0.391-1.023-0.391-1.414,0s-0.391,1.023,0,1.414
	L58.586,18H46c-6.388,0-11.841,4.021-14,9.659C29.841,22.021,24.388,18,18,18H5.414l9.293-9.293c0.391-0.391,0.391-1.023,0-1.414
	s-1.023-0.391-1.414,0L2.294,18.292c-0.093,0.092-0.166,0.203-0.217,0.326c-0.101,0.244-0.101,0.52,0,0.764
	c0.051,0.123,0.124,0.234,0.217,0.326l10.999,10.999C13.488,30.902,13.744,31,14,31s0.512-0.098,0.707-0.293
	c0.391-0.391,0.391-1.023,0-1.414L5.414,20H18c7.168,0,13,5.832,13,13v14v13c0,0.553,0.447,1,1,1s1-0.447,1-1V47V33
	c0-7.168,5.832-13,13-13h12.586l-9.293,9.293c-0.391,0.391-0.391,1.023,0,1.414C49.488,30.902,49.744,31,50,31
	s0.512-0.098,0.707-0.293l10.999-10.999c0.093-0.092,0.166-0.203,0.217-0.326C62.024,19.138,62.024,18.862,61.923,18.618z"/>
</svg>
