<?xml version="1.0" encoding="utf-8"?>
<!-- Generator: Adobe Illustrator 19.2.1, SVG Export Plug-In . SVG Version: 6.00 Build 0)  -->
<!DOCTYPE svg PUBLIC "-//W3C//DTD SVG 1.1//EN" "http://www.w3.org/Graphics/SVG/1.1/DTD/svg11.dtd">
<svg version="1.1" id="Layer_1" xmlns="http://www.w3.org/2000/svg" xmlns:xlink="http://www.w3.org/1999/xlink" x="0px" y="0px"
	 width="64px" height="64px" viewBox="0 0 64 64" enable-background="new 0 0 64 64" xml:space="preserve">
<path d="M52,43c0.552,0,1-0.447,1-1V28c0-7.168-5.832-13-13-13H14.414L25.707,3.707c0.391-0.391,0.391-1.023,0-1.414
	s-1.023-0.391-1.414,0L11.294,15.292c-0.093,0.092-0.166,0.203-0.217,0.326c-0.101,0.244-0.101,0.52,0,0.764
	c0.051,0.123,0.124,0.233,0.217,0.326l12.999,12.999C24.488,29.902,24.744,30,25,30s0.512-0.098,0.707-0.293
	c0.391-0.391,0.391-1.023,0-1.414L14.414,17H40c6.065,0,11,4.935,11,11v14C51,42.553,51.448,43,52,43z"/>
<path d="M62,60H3V45c0-0.553-0.448-1-1-1s-1,0.447-1,1v16c0,0.553,0.448,1,1,1h60c0.552,0,1-0.447,1-1S62.552,60,62,60z"/>
</svg>
