<?xml version="1.0" encoding="utf-8"?>
<!-- Generator: Adobe Illustrator 19.2.1, SVG Export Plug-In . SVG Version: 6.00 Build 0)  -->
<!DOCTYPE svg PUBLIC "-//W3C//DTD SVG 1.1//EN" "http://www.w3.org/Graphics/SVG/1.1/DTD/svg11.dtd">
<svg version="1.1" id="Layer_1" xmlns="http://www.w3.org/2000/svg" xmlns:xlink="http://www.w3.org/1999/xlink" x="0px" y="0px"
	 width="64px" height="64px" viewBox="0 0 64 64" enable-background="new 0 0 64 64" xml:space="preserve">
<path d="M41.293,49.293L33,57.586V28c0-0.553-0.448-1-1-1s-1,0.447-1,1v29.586l-8.293-8.293c-0.391-0.391-1.023-0.391-1.414,0
	s-0.391,1.023,0,1.414l9.999,9.999c0.092,0.093,0.203,0.166,0.326,0.217C31.74,60.973,31.87,61,32,61s0.26-0.027,0.382-0.077
	c0.123-0.051,0.233-0.124,0.326-0.217l9.999-9.999c0.391-0.391,0.391-1.023,0-1.414S41.684,48.902,41.293,49.293z"/>
<path d="M52.803,19.145C51.398,8.744,42.593,1,32,1c-9.112,0-17.036,5.728-19.908,14.318C5.628,16.678,1,22.336,1,29
	c0,7.295,5.677,13.443,13,14h10c0.552,0,1-0.447,1-1s-0.448-1-1-1l-9.923,0.003C7.865,40.528,3,35.256,3,29
	c0-5.889,4.217-10.86,10.027-11.823c0.375-0.062,0.683-0.332,0.793-0.696C16.266,8.417,23.571,3,32,3
	c9.83,0,17.958,7.37,18.906,17.143c0.046,0.481,0.432,0.861,0.914,0.9C56.968,21.461,61,25.834,61,31c0,5.149-3.993,9.544-9,10
	H40.001c-0.552,0-1,0.447-1,1s0.448,1,1,1l12.089-0.004C58.208,42.444,63,37.175,63,31C63,25.078,58.584,20.022,52.803,19.145z"/>
</svg>
