<?xml version="1.0" encoding="utf-8"?>
<!-- Generator: Adobe Illustrator 19.2.1, SVG Export Plug-In . SVG Version: 6.00 Build 0)  -->
<!DOCTYPE svg PUBLIC "-//W3C//DTD SVG 1.1//EN" "http://www.w3.org/Graphics/SVG/1.1/DTD/svg11.dtd">
<svg version="1.1" id="Layer_1" xmlns="http://www.w3.org/2000/svg" xmlns:xlink="http://www.w3.org/1999/xlink" x="0px" y="0px"
	 width="64px" height="64px" viewBox="0 0 64 64" enable-background="new 0 0 64 64" xml:space="preserve">
<path fill="#222221" d="M55.586,57H34c-0.553,0-1,0.448-1,1s0.447,1,1,1h24c0.13,0,0.26-0.027,0.382-0.077
	c0.245-0.101,0.44-0.296,0.541-0.541C58.974,58.26,59,58.13,59,58V34c0-0.552-0.447-1-1-1s-1,0.448-1,1v21.586L6.707,5.293
	c-0.391-0.391-1.023-0.391-1.414,0s-0.391,1.023,0,1.414L55.586,57z"/>
</svg>
