<?xml version="1.0" encoding="utf-8"?>
<!-- Generator: Adobe Illustrator 19.2.1, SVG Export Plug-In . SVG Version: 6.00 Build 0)  -->
<!DOCTYPE svg PUBLIC "-//W3C//DTD SVG 1.1//EN" "http://www.w3.org/Graphics/SVG/1.1/DTD/svg11.dtd">
<svg version="1.1" id="Layer_1" xmlns="http://www.w3.org/2000/svg" xmlns:xlink="http://www.w3.org/1999/xlink" x="0px" y="0px"
	 width="64px" height="64px" viewBox="0 0 64 64" enable-background="new 0 0 64 64" xml:space="preserve">
<path d="M32,40c-0.553,0-1,0.448-1,1v17.586l-8.293-8.293c-0.391-0.391-1.023-0.391-1.414,0s-0.391,1.023,0,1.414l9.999,9.999
	c0.092,0.093,0.203,0.166,0.326,0.217C31.74,61.973,31.87,62,32,62s0.26-0.027,0.382-0.077c0.123-0.051,0.233-0.124,0.326-0.217
	l9.999-9.999c0.391-0.391,0.391-1.023,0-1.414s-1.023-0.391-1.414,0L33,58.586V41C33,40.448,32.553,40,32,40z"/>
<path d="M22.707,13.707L31,5.414V23c0,0.552,0.447,1,1,1s1-0.448,1-1V5.414l8.293,8.293C41.488,13.902,41.744,14,42,14
	s0.512-0.098,0.707-0.293c0.391-0.391,0.391-1.023,0-1.414l-9.999-9.999c-0.092-0.093-0.203-0.166-0.326-0.217
	c-0.244-0.101-0.52-0.101-0.764,0c-0.123,0.051-0.233,0.124-0.326,0.217l-9.999,9.999c-0.391,0.391-0.391,1.023,0,1.414
	S22.316,14.098,22.707,13.707z"/>
<path d="M58.586,31H41c-0.553,0-1,0.448-1,1s0.447,1,1,1h17.586l-8.293,8.293c-0.391,0.391-0.391,1.023,0,1.414
	C50.488,42.902,50.744,43,51,43s0.512-0.098,0.707-0.293l9.999-9.999c0.093-0.092,0.166-0.203,0.217-0.326
	c0.101-0.244,0.101-0.52,0-0.764c-0.051-0.123-0.124-0.233-0.217-0.326l-9.999-9.999c-0.391-0.391-1.023-0.391-1.414,0
	s-0.391,1.023,0,1.414L58.586,31z"/>
<path d="M2.077,32.382c0.051,0.123,0.124,0.233,0.217,0.326l9.999,9.999C12.488,42.902,12.744,43,13,43s0.512-0.098,0.707-0.293
	c0.391-0.391,0.391-1.023,0-1.414L5.414,33H23c0.553,0,1-0.448,1-1s-0.447-1-1-1H5.414l8.293-8.293c0.391-0.391,0.391-1.023,0-1.414
	s-1.023-0.391-1.414,0l-9.999,9.999c-0.093,0.092-0.166,0.203-0.217,0.326C1.976,31.862,1.976,32.138,2.077,32.382z"/>
</svg>
