<?xml version="1.0" encoding="utf-8"?>
<!-- Generator: Adobe Illustrator 19.2.1, SVG Export Plug-In . SVG Version: 6.00 Build 0)  -->
<!DOCTYPE svg PUBLIC "-//W3C//DTD SVG 1.1//EN" "http://www.w3.org/Graphics/SVG/1.1/DTD/svg11.dtd">
<svg version="1.1" id="Layer_1" xmlns="http://www.w3.org/2000/svg" xmlns:xlink="http://www.w3.org/1999/xlink" x="0px" y="0px"
	 width="64px" height="64px" viewBox="0 0 64 64" enable-background="new 0 0 64 64" xml:space="preserve">
<path d="M62,19H38.414l7.293-7.293c0.391-0.391,0.391-1.023,0-1.414s-1.023-0.391-1.414,0l-8.999,8.999
	c-0.093,0.092-0.166,0.203-0.217,0.326c-0.101,0.244-0.101,0.52,0,0.764c0.051,0.123,0.124,0.233,0.217,0.326l8.999,8.999
	C44.488,29.902,44.744,30,45,30s0.512-0.098,0.707-0.293c0.391-0.391,0.391-1.023,0-1.414L38.414,21H61v28H3V21h22.586l-7.293,7.293
	c-0.391,0.391-0.391,1.023,0,1.414C18.488,29.902,18.744,30,19,30s0.512-0.098,0.707-0.293l8.999-8.999
	c0.093-0.092,0.166-0.203,0.217-0.326c0.101-0.244,0.101-0.52,0-0.764c-0.051-0.123-0.124-0.233-0.217-0.326l-8.999-8.999
	c-0.391-0.391-1.023-0.391-1.414,0s-0.391,1.023,0,1.414L25.586,19H2c-0.553,0-1,0.448-1,1v30c0,0.552,0.447,1,1,1h60
	c0.553,0,1-0.448,1-1V20C63,19.448,62.553,19,62,19z"/>
</svg>
