<?xml version="1.0" encoding="utf-8"?>
<!-- Generator: Adobe Illustrator 19.2.1, SVG Export Plug-In . SVG Version: 6.00 Build 0)  -->
<!DOCTYPE svg PUBLIC "-//W3C//DTD SVG 1.1//EN" "http://www.w3.org/Graphics/SVG/1.1/DTD/svg11.dtd">
<svg version="1.1" id="Layer_1" xmlns="http://www.w3.org/2000/svg" xmlns:xlink="http://www.w3.org/1999/xlink" x="0px" y="0px"
	 width="64px" height="64px" viewBox="0 0 64 64" enable-background="new 0 0 64 64" xml:space="preserve">
<path d="M4,19h37v11c0,0.369,0.203,0.708,0.528,0.882C41.676,30.961,41.838,31,42,31c0.194,0,0.388-0.057,0.555-0.168l18-12
	C60.833,18.646,61,18.334,61,18s-0.167-0.646-0.445-0.832l-18-12c-0.307-0.203-0.702-0.224-1.026-0.05C41.203,5.292,41,5.631,41,6
	v11H4c-0.553,0-1,0.447-1,1S3.447,19,4,19z M43,7.868L58.197,18L43,28.132V7.868z"/>
<path d="M3.445,46.832l18,12C21.612,58.943,21.806,59,22,59c0.162,0,0.324-0.039,0.472-0.118C22.797,58.708,23,58.369,23,58V47h37
	c0.553,0,1-0.447,1-1s-0.447-1-1-1H23V34c0-0.369-0.203-0.708-0.528-0.882c-0.324-0.174-0.721-0.154-1.026,0.05l-18,12
	C3.167,45.354,3,45.666,3,46S3.167,46.646,3.445,46.832z M21,35.868v20.264L5.803,46L21,35.868z"/>
</svg>
