<?xml version="1.0" encoding="utf-8"?>
<!-- Generator: Adobe Illustrator 19.2.1, SVG Export Plug-In . SVG Version: 6.00 Build 0)  -->
<!DOCTYPE svg PUBLIC "-//W3C//DTD SVG 1.1//EN" "http://www.w3.org/Graphics/SVG/1.1/DTD/svg11.dtd">
<svg version="1.1" id="Layer_1" xmlns="http://www.w3.org/2000/svg" xmlns:xlink="http://www.w3.org/1999/xlink" x="0px" y="0px"
	 width="64px" height="64px" viewBox="0 0 64 64" enable-background="new 0 0 64 64" xml:space="preserve">
<path d="M32,24c0.553,0,1-0.447,1-1v-9h8c0.395,0,0.753-0.232,0.913-0.593c0.161-0.361,0.095-0.782-0.17-1.076l-9-10
	c-0.379-0.422-1.107-0.422-1.486,0l-9,10c-0.265,0.294-0.331,0.715-0.17,1.076C22.247,13.768,22.605,14,23,14h8v9
	C31,23.553,31.447,24,32,24z M32,4.495L38.755,12h-13.51L32,4.495z"/>
<path d="M23,33c0.553,0,1-0.447,1-1s-0.447-1-1-1h-9v-8c0-0.395-0.232-0.753-0.593-0.913c-0.36-0.161-0.781-0.095-1.076,0.17l-10,9
	C2.12,31.446,2,31.717,2,32s0.12,0.554,0.331,0.743l10,9C12.519,41.912,12.758,42,13,42c0.138,0,0.276-0.028,0.407-0.087
	C13.768,41.753,14,41.395,14,41v-8H23z M12,38.755L4.495,32L12,25.245V38.755z"/>
<path d="M51.669,22.257c-0.294-0.266-0.716-0.332-1.076-0.17C50.232,22.247,50,22.605,50,23v8h-9c-0.553,0-1,0.447-1,1s0.447,1,1,1
	h9v8c0,0.395,0.232,0.753,0.593,0.913C50.724,41.972,50.862,42,51,42c0.242,0,0.481-0.088,0.669-0.257l10-9
	C61.88,32.554,62,32.283,62,32s-0.12-0.554-0.331-0.743L51.669,22.257z M52,38.755v-13.51L59.505,32L52,38.755z"/>
<path d="M41,50h-8v-9c0-0.553-0.447-1-1-1s-1,0.447-1,1v9h-8c-0.395,0-0.753,0.232-0.913,0.593c-0.161,0.361-0.095,0.782,0.17,1.076
	l9,10C31.446,61.88,31.717,62,32,62s0.554-0.12,0.743-0.331l9-10c0.265-0.294,0.331-0.715,0.17-1.076C41.753,50.232,41.395,50,41,50
	z M32,59.505L25.245,52h13.51L32,59.505z"/>
</svg>
