<?xml version="1.0" encoding="utf-8"?>
<!-- Generator: Adobe Illustrator 19.2.1, SVG Export Plug-In . SVG Version: 6.00 Build 0)  -->
<!DOCTYPE svg PUBLIC "-//W3C//DTD SVG 1.1//EN" "http://www.w3.org/Graphics/SVG/1.1/DTD/svg11.dtd">
<svg version="1.1" id="Layer_1" xmlns="http://www.w3.org/2000/svg" xmlns:xlink="http://www.w3.org/1999/xlink" x="0px" y="0px"
	 width="64px" height="64px" viewBox="0 0 64 64" enable-background="new 0 0 64 64" xml:space="preserve">
<path d="M61.706,17.292l-9.999-9.999c-0.391-0.391-1.023-0.391-1.414,0s-0.391,1.023,0,1.414L58.586,17H40
	c-0.292,0-0.569,0.128-0.759,0.35L15.54,45H2c-0.553,0-1,0.447-1,1s0.447,1,1,1h14c0.292,0,0.569-0.128,0.759-0.35L40.46,19h18.126
	l-8.293,8.293c-0.391,0.391-0.391,1.023,0,1.414C50.488,28.902,50.744,29,51,29s0.512-0.098,0.707-0.293l9.999-9.999
	c0.093-0.092,0.166-0.203,0.217-0.326c0.101-0.244,0.101-0.519,0-0.764C61.872,17.495,61.799,17.384,61.706,17.292z"/>
<path d="M2,19h13.54l7.69,8.972c0.197,0.231,0.478,0.35,0.759,0.35c0.23,0,0.462-0.079,0.65-0.241
	c0.42-0.359,0.469-0.99,0.108-1.409l-7.989-9.321C16.569,17.128,16.292,17,16,17H2c-0.553,0-1,0.447-1,1S1.447,19,2,19z"/>
<path d="M61.923,45.618c-0.051-0.123-0.125-0.234-0.217-0.327l-9.999-9.999c-0.391-0.391-1.023-0.391-1.414,0s-0.391,1.023,0,1.414
	L58.586,45H40.46l-7.701-8.983c-0.358-0.421-0.99-0.469-1.409-0.108c-0.42,0.359-0.469,0.99-0.108,1.409l8,9.333
	C39.431,46.872,39.708,47,40,47h18.586l-8.293,8.293c-0.391,0.391-0.391,1.023,0,1.414C50.488,56.902,50.744,57,51,57
	s0.512-0.098,0.707-0.293l9.999-9.999c0.093-0.092,0.166-0.203,0.217-0.326C62.024,46.138,62.024,45.862,61.923,45.618z"/>
</svg>
