<?xml version="1.0" encoding="utf-8"?>
<!-- Generator: Adobe Illustrator 19.2.1, SVG Export Plug-In . SVG Version: 6.00 Build 0)  -->
<!DOCTYPE svg PUBLIC "-//W3C//DTD SVG 1.1//EN" "http://www.w3.org/Graphics/SVG/1.1/DTD/svg11.dtd">
<svg version="1.1" id="Layer_1" xmlns="http://www.w3.org/2000/svg" xmlns:xlink="http://www.w3.org/1999/xlink" x="0px" y="0px"
	 width="64px" height="64px" viewBox="0 0 64 64" enable-background="new 0 0 64 64" xml:space="preserve">
<path d="M61.707,31.293l-14-14c-0.391-0.391-1.023-0.391-1.414,0s-0.391,1.023,0,1.414L58.586,31H5.414l12.293-12.293
	c0.391-0.391,0.391-1.023,0-1.414s-1.023-0.391-1.414,0l-14,14c-0.092,0.092-0.165,0.203-0.216,0.325
	c-0.101,0.245-0.101,0.52,0,0.764c0.051,0.122,0.124,0.233,0.216,0.325l14,14C16.488,46.902,16.744,47,17,47
	s0.512-0.098,0.707-0.293c0.391-0.391,0.391-1.023,0-1.414L5.414,33h53.172L46.293,45.293c-0.391,0.391-0.391,1.023,0,1.414
	C46.488,46.902,46.744,47,47,47s0.512-0.098,0.707-0.293l14-14c0.092-0.092,0.165-0.203,0.216-0.325c0.101-0.245,0.101-0.52,0-0.764
	C61.872,31.495,61.799,31.385,61.707,31.293z"/>
</svg>
