<?xml version="1.0" encoding="utf-8"?>
<!-- Generator: Adobe Illustrator 19.2.1, SVG Export Plug-In . SVG Version: 6.00 Build 0)  -->
<!DOCTYPE svg PUBLIC "-//W3C//DTD SVG 1.1//EN" "http://www.w3.org/Graphics/SVG/1.1/DTD/svg11.dtd">
<svg version="1.1" id="Layer_1" xmlns="http://www.w3.org/2000/svg" xmlns:xlink="http://www.w3.org/1999/xlink" x="0px" y="0px"
	 width="64px" height="64px" viewBox="0 0 64 64" enable-background="new 0 0 64 64" xml:space="preserve">
<path d="M41,29h11c0.388,0,0.741-0.225,0.905-0.576c0.165-0.351,0.111-0.766-0.137-1.064l-20-24c-0.381-0.455-1.156-0.455-1.537,0
	l-20,24c-0.248,0.299-0.302,0.714-0.137,1.064C11.259,28.775,11.612,29,12,29h11v23c0,0.553,0.447,1,1,1h16c0.553,0,1-0.447,1-1V29z
	 M40,27c-0.553,0-1,0.447-1,1v23H25V28c0-0.553-0.447-1-1-1h-9.865L32,5.562L49.865,27H40z"/>
<path d="M40,59H24c-0.553,0-1,0.447-1,1s0.447,1,1,1h16c0.553,0,1-0.447,1-1S40.553,59,40,59z"/>
</svg>
