<?xml version="1.0" encoding="utf-8"?>
<!-- Generator: Adobe Illustrator 19.2.1, SVG Export Plug-In . SVG Version: 6.00 Build 0)  -->
<!DOCTYPE svg PUBLIC "-//W3C//DTD SVG 1.1//EN" "http://www.w3.org/Graphics/SVG/1.1/DTD/svg11.dtd">
<svg version="1.1" id="Layer_1" xmlns="http://www.w3.org/2000/svg" xmlns:xlink="http://www.w3.org/1999/xlink" x="0px" y="0px"
	 width="64px" height="64px" viewBox="0 0 64 64" enable-background="new 0 0 64 64" xml:space="preserve">
<path fill="#222221" d="M62,7H2C1.448,7,1,7.448,1,8s0.448,1,1,1h60c0.552,0,1-0.448,1-1S62.552,7,62,7z"/>
<path fill="#222221" d="M62,55H2c-0.552,0-1,0.448-1,1s0.448,1,1,1h60c0.552,0,1-0.448,1-1S62.552,55,62,55z"/>
<path fill="#222221" d="M2,41h20c0.552,0,1-0.448,1-1s-0.448-1-1-1H2c-0.552,0-1,0.448-1,1S1.448,41,2,41z"/>
<path fill="#222221" d="M2,25h20c0.552,0,1-0.448,1-1s-0.448-1-1-1H2c-0.552,0-1,0.448-1,1S1.448,25,2,25z"/>
<path fill="#222221" d="M29,32c0,0.552,0.448,1,1,1h28.586L48.293,43.293c-0.391,0.391-0.391,1.023,0,1.414
	C48.488,44.902,48.744,45,49,45s0.512-0.098,0.707-0.293l12-12c0.092-0.092,0.165-0.203,0.216-0.325c0.101-0.245,0.101-0.52,0-0.764
	c-0.051-0.122-0.124-0.233-0.216-0.325l-12-12c-0.391-0.391-1.023-0.391-1.414,0s-0.391,1.023,0,1.414L58.586,31H30
	C29.448,31,29,31.448,29,32z"/>
</svg>
