<?xml version="1.0" encoding="utf-8"?>
<!-- Generator: Adobe Illustrator 19.2.1, SVG Export Plug-In . SVG Version: 6.00 Build 0)  -->
<!DOCTYPE svg PUBLIC "-//W3C//DTD SVG 1.1//EN" "http://www.w3.org/Graphics/SVG/1.1/DTD/svg11.dtd">
<svg version="1.1" id="Layer_1" xmlns="http://www.w3.org/2000/svg" xmlns:xlink="http://www.w3.org/1999/xlink" x="0px" y="0px"
	 width="64px" height="64px" viewBox="0 0 64 64" enable-background="new 0 0 64 64" xml:space="preserve">
<path d="M32,62c0.552,0,1-0.448,1-1V5.414l16.293,16.293C49.488,21.902,49.744,22,50,22s0.512-0.098,0.707-0.293
	c0.391-0.391,0.391-1.023,0-1.414l-18-18c-0.092-0.092-0.203-0.165-0.325-0.216c-0.245-0.101-0.52-0.101-0.764,0
	c-0.122,0.051-0.233,0.124-0.325,0.216l-18,18c-0.391,0.391-0.391,1.023,0,1.414s1.023,0.391,1.414,0L31,5.414V61
	C31,61.552,31.448,62,32,62z"/>
</svg>
