<?xml version="1.0" encoding="utf-8"?>
<!-- Generator: Adobe Illustrator 19.2.1, SVG Export Plug-In . SVG Version: 6.00 Build 0)  -->
<!DOCTYPE svg PUBLIC "-//W3C//DTD SVG 1.1//EN" "http://www.w3.org/Graphics/SVG/1.1/DTD/svg11.dtd">
<svg version="1.1" id="Layer_1" xmlns="http://www.w3.org/2000/svg" xmlns:xlink="http://www.w3.org/1999/xlink" x="0px" y="0px"
	 width="64px" height="64px" viewBox="0 0 64 64" enable-background="new 0 0 64 64" xml:space="preserve">
<path d="M62,1H2C1.448,1,1,1.448,1,2v60c0,0.552,0.448,1,1,1h60c0.552,0,1-0.448,1-1V2C63,1.448,62.552,1,62,1z M61,61H3V3h58V61z"
	/>
<path d="M19.427,32.819l20,14C39.598,46.939,39.798,47,40,47c0.158,0,0.316-0.038,0.462-0.113C40.792,46.715,41,46.373,41,46V18
	c0-0.373-0.208-0.715-0.538-0.887c-0.332-0.172-0.731-0.146-1.035,0.068l-20,14C19.159,31.368,19,31.674,19,32
	S19.159,32.632,19.427,32.819z M39,19.92V44.08L21.744,32L39,19.92z"/>
</svg>
