<?xml version="1.0" encoding="utf-8"?>
<!-- Generator: Adobe Illustrator 19.2.1, SVG Export Plug-In . SVG Version: 6.00 Build 0)  -->
<!DOCTYPE svg PUBLIC "-//W3C//DTD SVG 1.1//EN" "http://www.w3.org/Graphics/SVG/1.1/DTD/svg11.dtd">
<svg version="1.1" id="Layer_1" xmlns="http://www.w3.org/2000/svg" xmlns:xlink="http://www.w3.org/1999/xlink" x="0px" y="0px"
	 width="64px" height="64px" viewBox="0 0 64 64" enable-background="new 0 0 64 64" xml:space="preserve">
<path d="M61.706,17.292l-9.999-9.999c-0.391-0.391-1.023-0.391-1.414,0s-0.391,1.023,0,1.414L58.586,17H45.52
	c-3.801,0-7.398,1.654-9.87,4.54L18.832,41.159C16.741,43.6,13.696,45,10.48,45H2c-0.553,0-1,0.447-1,1s0.447,1,1,1h8.48
	c3.801,0,7.398-1.654,9.87-4.54l16.817-19.619C39.259,20.4,42.304,19,45.52,19h13.066l-8.293,8.293
	c-0.391,0.391-0.391,1.023,0,1.414C50.488,28.902,50.744,29,51,29s0.512-0.098,0.707-0.293l9.999-9.999
	c0.093-0.092,0.166-0.203,0.217-0.326c0.101-0.244,0.101-0.519,0-0.764C61.872,17.495,61.799,17.384,61.706,17.292z"/>
<path d="M2,19h8.48c3.216,0,6.261,1.4,8.352,3.841l4.397,5.131c0.198,0.231,0.479,0.35,0.76,0.35c0.23,0,0.462-0.079,0.65-0.24
	c0.42-0.36,0.469-0.991,0.109-1.41l-4.397-5.131C17.879,18.654,14.281,17,10.48,17H2c-0.553,0-1,0.447-1,1S1.447,19,2,19z"/>
<path d="M61.923,45.618c-0.051-0.123-0.125-0.234-0.217-0.327l-9.999-9.999c-0.391-0.391-1.023-0.391-1.414,0s-0.391,1.023,0,1.414
	L58.586,45H45.52c-3.216,0-6.261-1.4-8.353-3.841l-4.408-5.143c-0.358-0.421-0.99-0.469-1.409-0.108
	c-0.42,0.359-0.469,0.99-0.108,1.409l4.407,5.143c2.473,2.886,6.07,4.54,9.871,4.54h13.066l-8.293,8.293
	c-0.391,0.391-0.391,1.023,0,1.414C50.488,56.902,50.744,57,51,57s0.512-0.098,0.707-0.293l9.999-9.999
	c0.093-0.092,0.166-0.203,0.217-0.326C62.024,46.138,62.024,45.862,61.923,45.618z"/>
</svg>
