<?xml version="1.0" encoding="utf-8"?>
<!-- Generator: Adobe Illustrator 19.2.1, SVG Export Plug-In . SVG Version: 6.00 Build 0)  -->
<!DOCTYPE svg PUBLIC "-//W3C//DTD SVG 1.1//EN" "http://www.w3.org/Graphics/SVG/1.1/DTD/svg11.dtd">
<svg version="1.1" id="Layer_1" xmlns="http://www.w3.org/2000/svg" xmlns:xlink="http://www.w3.org/1999/xlink" x="0px" y="0px"
	 width="64px" height="64px" viewBox="0 0 64 64" enable-background="new 0 0 64 64" xml:space="preserve">
<path d="M41.293,38.707C41.488,38.902,41.744,39,42,39s0.512-0.098,0.707-0.293c0.391-0.391,0.391-1.023,0-1.414l-9.999-9.999
	c-0.092-0.093-0.203-0.166-0.326-0.217c-0.244-0.101-0.52-0.101-0.764,0c-0.123,0.051-0.233,0.124-0.326,0.217l-9.999,9.999
	c-0.391,0.391-0.391,1.023,0,1.414s1.023,0.391,1.414,0L31,30.414V60c0,0.553,0.448,1,1,1s1-0.447,1-1V30.414L41.293,38.707z"/>
<path d="M52.803,23.145C51.398,12.744,42.593,5,32,5c-9.112,0-17.036,5.728-19.908,14.318C5.628,20.678,1,26.336,1,33
	c0,7.295,5.677,13.443,13,14h10c0.552,0,1-0.447,1-1s-0.448-1-1-1l-9.923,0.003C7.865,44.528,3,39.256,3,33
	c0-5.889,4.217-10.86,10.027-11.823c0.375-0.062,0.683-0.332,0.793-0.696C16.266,12.417,23.571,7,32,7
	c9.83,0,17.958,7.37,18.906,17.143c0.046,0.481,0.432,0.861,0.914,0.9C56.968,25.461,61,29.834,61,35c0,5.149-3.993,9.544-9,10
	H40.001c-0.552,0-1,0.447-1,1s0.448,1,1,1l12.089-0.004C58.208,46.444,63,41.175,63,35C63,29.078,58.584,24.022,52.803,23.145z"/>
</svg>
