<?xml version="1.0" encoding="utf-8"?>
<!-- Generator: Adobe Illustrator 19.2.1, SVG Export Plug-In . SVG Version: 6.00 Build 0)  -->
<!DOCTYPE svg PUBLIC "-//W3C//DTD SVG 1.1//EN" "http://www.w3.org/Graphics/SVG/1.1/DTD/svg11.dtd">
<svg version="1.1" id="Layer_1" xmlns="http://www.w3.org/2000/svg" xmlns:xlink="http://www.w3.org/1999/xlink" x="0px" y="0px"
	 width="64px" height="64px" viewBox="0 0 64 64" enable-background="new 0 0 64 64" xml:space="preserve">
<path d="M62,1H2C1.448,1,1,1.448,1,2v60c0,0.552,0.448,1,1,1h60c0.552,0,1-0.448,1-1V2C63,1.448,62.552,1,62,1z M61,61H3V3h58V61z"
	/>
<path d="M31.181,44.573C31.368,44.841,31.674,45,32,45s0.632-0.159,0.819-0.427l14-20c0.214-0.305,0.24-0.704,0.068-1.035
	C46.715,23.208,46.373,23,46,23H18c-0.373,0-0.715,0.208-0.887,0.538c-0.172,0.331-0.146,0.73,0.068,1.035L31.181,44.573z M44.08,25
	L32,42.256L19.92,25H44.08z"/>
</svg>
