<?xml version="1.0" encoding="utf-8"?>
<!-- Generator: Adobe Illustrator 19.2.1, SVG Export Plug-In . SVG Version: 6.00 Build 0)  -->
<!DOCTYPE svg PUBLIC "-//W3C//DTD SVG 1.1//EN" "http://www.w3.org/Graphics/SVG/1.1/DTD/svg11.dtd">
<svg version="1.1" id="Layer_1" xmlns="http://www.w3.org/2000/svg" xmlns:xlink="http://www.w3.org/1999/xlink" x="0px" y="0px"
	 width="64px" height="64px" viewBox="0 0 64 64" enable-background="new 0 0 64 64" xml:space="preserve">
<path d="M62,1H2C1.448,1,1,1.448,1,2v60c0,0.552,0.448,1,1,1h60c0.552,0,1-0.448,1-1V2C63,1.448,62.552,1,62,1z M61,61H3V3h58V61z"
	/>
<path d="M23.538,46.887C23.684,46.962,23.842,47,24,47c0.202,0,0.402-0.061,0.573-0.181l20-14C44.841,32.632,45,32.326,45,32
	s-0.159-0.632-0.427-0.819l-20-14c-0.305-0.213-0.705-0.239-1.035-0.068C23.208,17.285,23,17.627,23,18v28
	C23,46.373,23.208,46.715,23.538,46.887z M25,19.92L42.256,32L25,44.08V19.92z"/>
</svg>
