<?xml version="1.0" encoding="utf-8"?>
<!-- Generator: Adobe Illustrator 19.2.1, SVG Export Plug-In . SVG Version: 6.00 Build 0)  -->
<!DOCTYPE svg PUBLIC "-//W3C//DTD SVG 1.1//EN" "http://www.w3.org/Graphics/SVG/1.1/DTD/svg11.dtd">
<svg version="1.1" id="Layer_1" xmlns="http://www.w3.org/2000/svg" xmlns:xlink="http://www.w3.org/1999/xlink" x="0px" y="0px"
	 width="64px" height="64px" viewBox="0 0 64 64" enable-background="new 0 0 64 64" xml:space="preserve">
<path fill="#222221" d="M26,61c-0.552,0-1,0.448-1,1s0.448,1,1,1h28c0.552,0,1-0.448,1-1V2c0-0.552-0.448-1-1-1H10
	C9.448,1,9,1.448,9,2v32c0,0.552,0.448,1,1,1s1-0.448,1-1V3h42v58H26z"/>
<path fill="#222221" d="M3.293,60.707C3.488,60.902,3.744,61,4,61s0.512-0.098,0.707-0.293L39,26.414V42c0,0.552,0.448,1,1,1
	s1-0.448,1-1V24c0-0.13-0.027-0.26-0.077-0.382c-0.101-0.244-0.296-0.439-0.541-0.541C40.26,23.027,40.13,23,40,23H22
	c-0.552,0-1,0.448-1,1s0.448,1,1,1h15.586L3.293,59.293C2.902,59.684,2.902,60.316,3.293,60.707z"/>
</svg>
