<?xml version="1.0" encoding="utf-8"?>
<!-- Generator: Adobe Illustrator 19.2.1, SVG Export Plug-In . SVG Version: 6.00 Build 0)  -->
<!DOCTYPE svg PUBLIC "-//W3C//DTD SVG 1.1//EN" "http://www.w3.org/Graphics/SVG/1.1/DTD/svg11.dtd">
<svg version="1.1" id="Layer_1" xmlns="http://www.w3.org/2000/svg" xmlns:xlink="http://www.w3.org/1999/xlink" x="0px" y="0px"
	 width="64px" height="64px" viewBox="0 0 64 64" enable-background="new 0 0 64 64" xml:space="preserve">
<path d="M3,4v20c0,0.404,0.244,0.77,0.617,0.924C3.741,24.976,3.871,25,4,25c0.26,0,0.516-0.102,0.707-0.293L14,15.414L48.586,50
	l-9.293,9.293c-0.286,0.286-0.372,0.716-0.217,1.09S39.596,61,40,61h20c0.552,0,1-0.447,1-1V40c0-0.404-0.244-0.77-0.617-0.924
	c-0.375-0.157-0.804-0.07-1.09,0.217L50,48.586L15.414,14l9.293-9.293c0.286-0.286,0.372-0.716,0.217-1.09S24.404,3,24,3H4
	C3.448,3,3,3.447,3,4z M59,59H42.414L59,42.414V59z M5,5h16.586L5,21.586V5z"/>
</svg>
