<?xml version="1.0" encoding="utf-8"?>
<!-- Generator: Adobe Illustrator 19.2.1, SVG Export Plug-In . SVG Version: 6.00 Build 0)  -->
<!DOCTYPE svg PUBLIC "-//W3C//DTD SVG 1.1//EN" "http://www.w3.org/Graphics/SVG/1.1/DTD/svg11.dtd">
<svg version="1.1" id="Layer_1" xmlns="http://www.w3.org/2000/svg" xmlns:xlink="http://www.w3.org/1999/xlink" x="0px" y="0px"
	 width="64px" height="64px" viewBox="0 0 64 64" enable-background="new 0 0 64 64" xml:space="preserve">
<path d="M61.706,42.292L46.707,27.293c-0.391-0.391-1.023-0.391-1.414,0s-0.391,1.023,0,1.414L58.586,42H20.5
	C10.851,42,3,34.149,3,24.5S10.851,7,20.5,7H45c0.552,0,1-0.447,1-1s-0.448-1-1-1H20.5C9.748,5,1,13.748,1,24.5S9.748,44,20.5,44
	h38.086L45.293,57.293c-0.391,0.391-0.391,1.023,0,1.414C45.488,58.902,45.744,59,46,59s0.512-0.098,0.707-0.293l14.999-14.999
	c0.093-0.092,0.166-0.203,0.217-0.326c0.101-0.244,0.101-0.52,0-0.764C61.872,42.495,61.799,42.384,61.706,42.292z"/>
</svg>
