<?xml version="1.0" encoding="utf-8"?>
<!-- Generator: Adobe Illustrator 19.2.1, SVG Export Plug-In . SVG Version: 6.00 Build 0)  -->
<!DOCTYPE svg PUBLIC "-//W3C//DTD SVG 1.1//EN" "http://www.w3.org/Graphics/SVG/1.1/DTD/svg11.dtd">
<svg version="1.1" id="Layer_1" xmlns="http://www.w3.org/2000/svg" xmlns:xlink="http://www.w3.org/1999/xlink" x="0px" y="0px"
	 width="64px" height="64px" viewBox="0 0 64 64" enable-background="new 0 0 64 64" xml:space="preserve">
<path d="M32,1C14.907,1,1,14.907,1,32s13.907,31,31,31s31-13.907,31-31S49.093,1,32,1z M32,61C16.009,61,3,47.991,3,32
	S16.009,3,32,3s29,13.009,29,29S47.991,61,32,61z"/>
<path d="M50.923,31.618c-0.051-0.122-0.124-0.233-0.216-0.325l-14-14c-0.391-0.391-1.023-0.391-1.414,0s-0.391,1.023,0,1.414
	L47.586,31H14c-0.552,0-1,0.448-1,1s0.448,1,1,1h33.586L35.293,45.293c-0.391,0.391-0.391,1.023,0,1.414
	C35.488,46.902,35.744,47,36,47s0.512-0.098,0.707-0.293l14-14c0.092-0.092,0.165-0.203,0.216-0.325
	C51.024,32.138,51.024,31.862,50.923,31.618z"/>
</svg>
