<?xml version="1.0" encoding="utf-8"?>
<!-- Generator: Adobe Illustrator 19.2.1, SVG Export Plug-In . SVG Version: 6.00 Build 0)  -->
<!DOCTYPE svg PUBLIC "-//W3C//DTD SVG 1.1//EN" "http://www.w3.org/Graphics/SVG/1.1/DTD/svg11.dtd">
<svg version="1.1" id="Layer_1" xmlns="http://www.w3.org/2000/svg" xmlns:xlink="http://www.w3.org/1999/xlink" x="0px" y="0px"
	 width="64px" height="64px" viewBox="0 0 64 64" enable-background="new 0 0 64 64" xml:space="preserve">
<path d="M47,1c-8.822,0-16,7.178-16,16v3.586l-7.293-7.293c-0.391-0.391-1.023-0.391-1.414,0s-0.391,1.023,0,1.414l8.999,8.999
	c0.092,0.093,0.203,0.166,0.326,0.217C31.74,23.974,31.87,24,32,24s0.26-0.026,0.382-0.077c0.123-0.051,0.234-0.124,0.326-0.217
	l8.999-8.999c0.391-0.391,0.391-1.023,0-1.414s-1.023-0.391-1.414,0L33,20.586V17c0-7.72,6.28-14,14-14s14,6.28,14,14
	s-6.28,14-14,14H17C8.178,31,1,38.178,1,47s7.178,16,16,16s16-7.178,16-16v-3.586l7.293,7.293C40.488,50.902,40.744,51,41,51
	s0.512-0.098,0.707-0.293c0.391-0.391,0.391-1.023,0-1.414l-8.999-8.999c-0.092-0.093-0.203-0.166-0.327-0.217
	c-0.244-0.101-0.519-0.101-0.764,0c-0.123,0.051-0.234,0.125-0.326,0.217l-8.999,8.999c-0.391,0.391-0.391,1.023,0,1.414
	s1.023,0.391,1.414,0L31,43.414V47c0,7.72-6.28,14-14,14S3,54.72,3,47s6.28-14,14-14h30c8.822,0,16-7.178,16-16S55.822,1,47,1z"/>
</svg>
