<?xml version="1.0" encoding="utf-8"?>
<!-- Generator: Adobe Illustrator 19.2.1, SVG Export Plug-In . SVG Version: 6.00 Build 0)  -->
<!DOCTYPE svg PUBLIC "-//W3C//DTD SVG 1.1//EN" "http://www.w3.org/Graphics/SVG/1.1/DTD/svg11.dtd">
<svg version="1.1" id="Layer_1" xmlns="http://www.w3.org/2000/svg" xmlns:xlink="http://www.w3.org/1999/xlink" x="0px" y="0px"
	 width="64px" height="64px" viewBox="0 0 64 64" enable-background="new 0 0 64 64" xml:space="preserve">
<path d="M32,2c-0.552,0-1,0.448-1,1v55.586L14.707,42.293c-0.391-0.391-1.023-0.391-1.414,0s-0.391,1.023,0,1.414l18,18
	c0.092,0.092,0.203,0.165,0.325,0.216C31.74,61.973,31.87,62,32,62s0.26-0.027,0.382-0.077c0.122-0.051,0.233-0.124,0.325-0.216
	l18-18c0.391-0.391,0.391-1.023,0-1.414s-1.023-0.391-1.414,0L33,58.586V3C33,2.448,32.552,2,32,2z"/>
</svg>
