<?xml version="1.0" encoding="utf-8"?>
<!-- Generator: Adobe Illustrator 19.2.1, SVG Export Plug-In . SVG Version: 6.00 Build 0)  -->
<!DOCTYPE svg PUBLIC "-//W3C//DTD SVG 1.1//EN" "http://www.w3.org/Graphics/SVG/1.1/DTD/svg11.dtd">
<svg version="1.1" id="Layer_1" xmlns="http://www.w3.org/2000/svg" xmlns:xlink="http://www.w3.org/1999/xlink" x="0px" y="0px"
	 width="64px" height="64px" viewBox="0 0 64 64" enable-background="new 0 0 64 64" xml:space="preserve">
<path fill="#222221" d="M6,59c0.256,0,0.512-0.098,0.707-0.293L57,8.414V30c0,0.552,0.448,1,1,1s1-0.448,1-1V6
	c0-0.13-0.027-0.26-0.077-0.382c-0.101-0.244-0.296-0.439-0.541-0.541C58.26,5.027,58.13,5,58,5H34c-0.552,0-1,0.448-1,1
	s0.448,1,1,1h21.586L5.293,57.293c-0.391,0.391-0.391,1.023,0,1.414C5.488,58.902,5.744,59,6,59z"/>
</svg>
