<?xml version="1.0" encoding="utf-8"?>
<!-- Generator: Adobe Illustrator 19.2.1, SVG Export Plug-In . SVG Version: 6.00 Build 0)  -->
<!DOCTYPE svg PUBLIC "-//W3C//DTD SVG 1.1//EN" "http://www.w3.org/Graphics/SVG/1.1/DTD/svg11.dtd">
<svg version="1.1" id="Layer_1" xmlns="http://www.w3.org/2000/svg" xmlns:xlink="http://www.w3.org/1999/xlink" x="0px" y="0px"
	 width="64px" height="64px" viewBox="0 0 64 64" enable-background="new 0 0 64 64" xml:space="preserve">
<path fill="#222221" d="M59,32C59,17.112,46.888,5,32,5c-9.447,0-18.398,5.182-23.213,13.154L7.407,7.532
	C7.336,6.984,6.836,6.597,6.287,6.67C5.739,6.74,5.354,7.242,5.425,7.79l1.784,13.739c0.005,0.038,0.027,0.071,0.036,0.108
	c0.016,0.066,0.034,0.128,0.063,0.189c0.027,0.057,0.061,0.106,0.098,0.157c0.039,0.054,0.08,0.103,0.13,0.149
	c0.02,0.018,0.031,0.044,0.053,0.061c0.04,0.031,0.088,0.047,0.132,0.071c0.026,0.015,0.044,0.039,0.072,0.051
	c0.013,0.006,0.027,0.004,0.04,0.009c0.093,0.037,0.189,0.056,0.289,0.064c0.023,0.002,0.046,0.011,0.069,0.011
	c0.003,0,0.006,0.001,0.009,0.001c0.043,0,0.086-0.003,0.129-0.009l13.757-1.787c0.548-0.07,0.934-0.572,0.862-1.12
	s-0.569-0.939-1.12-0.862L9.92,20.169C14.211,12.225,22.861,7,32,7c13.785,0,25,11.215,25,25S45.785,57,32,57S7,45.785,7,32
	c0-0.553-0.447-1-1-1s-1,0.447-1,1c0,14.888,12.112,27,27,27S59,46.888,59,32z"/>
<path fill="#222221" d="M32,17c-0.553,0-1,0.447-1,1v14c0,0.266,0.105,0.52,0.293,0.707l10,10C41.488,42.902,41.744,43,42,43
	s0.512-0.098,0.707-0.293c0.391-0.391,0.391-1.023,0-1.414L33,31.586V18C33,17.447,32.553,17,32,17z"/>
</svg>
