<?xml version="1.0" encoding="utf-8"?>
<!-- Generator: Adobe Illustrator 19.2.1, SVG Export Plug-In . SVG Version: 6.00 Build 0)  -->
<!DOCTYPE svg PUBLIC "-//W3C//DTD SVG 1.1//EN" "http://www.w3.org/Graphics/SVG/1.1/DTD/svg11.dtd">
<svg version="1.1" id="Layer_1" xmlns="http://www.w3.org/2000/svg" xmlns:xlink="http://www.w3.org/1999/xlink" x="0px" y="0px"
	 width="64px" height="64px" viewBox="0 0 64 64" enable-background="new 0 0 64 64" xml:space="preserve">
<path d="M62,1H2C1.447,1,1,1.448,1,2v60c0,0.552,0.447,1,1,1h60c0.553,0,1-0.448,1-1V2C63,1.448,62.553,1,62,1z M61,61H3V3h58V61z"
	/>
<path d="M18.707,28.707L31,16.414V50c0,0.552,0.447,1,1,1s1-0.448,1-1V16.414l12.293,12.293C45.488,28.902,45.744,29,46,29
	s0.512-0.098,0.707-0.293c0.391-0.391,0.391-1.023,0-1.414L32.708,13.294c-0.092-0.093-0.203-0.166-0.326-0.217
	c-0.244-0.101-0.52-0.101-0.764,0c-0.123,0.051-0.233,0.124-0.326,0.217L17.293,27.293c-0.391,0.391-0.391,1.023,0,1.414
	S18.316,29.098,18.707,28.707z"/>
</svg>
