<?xml version="1.0" encoding="utf-8"?>
<!-- Generator: Adobe Illustrator 19.2.1, SVG Export Plug-In . SVG Version: 6.00 Build 0)  -->
<!DOCTYPE svg PUBLIC "-//W3C//DTD SVG 1.1//EN" "http://www.w3.org/Graphics/SVG/1.1/DTD/svg11.dtd">
<svg version="1.1" id="Layer_1" xmlns="http://www.w3.org/2000/svg" xmlns:xlink="http://www.w3.org/1999/xlink" x="0px" y="0px"
	 width="64px" height="64px" viewBox="0 0 64 64" enable-background="new 0 0 64 64" xml:space="preserve">
<path d="M2,33h19.54l11.701,13.651C33.431,46.873,33.708,47,34,47h24.586l-6.293,6.293c-0.391,0.391-0.391,1.023,0,1.414
	C52.488,54.902,52.744,55,53,55s0.512-0.098,0.707-0.293l7.999-7.999c0.093-0.092,0.166-0.203,0.217-0.326
	c0.101-0.244,0.101-0.52,0-0.764c-0.051-0.123-0.124-0.233-0.217-0.326l-7.999-7.999c-0.391-0.391-1.023-0.391-1.414,0
	s-0.391,1.023,0,1.414L58.586,45H34.46L23.317,32L34.46,19h24.126l-6.293,6.293c-0.391,0.391-0.391,1.023,0,1.414
	C52.488,26.902,52.744,27,53,27s0.512-0.098,0.707-0.293l7.999-7.999c0.093-0.092,0.166-0.203,0.217-0.326
	c0.101-0.244,0.101-0.52,0-0.764c-0.051-0.123-0.124-0.233-0.217-0.326l-7.999-7.999c-0.391-0.391-1.023-0.391-1.414,0
	s-0.391,1.023,0,1.414L58.586,17H34c-0.292,0-0.569,0.127-0.759,0.349L21.54,31H2c-0.553,0-1,0.448-1,1S1.447,33,2,33z"/>
</svg>
