<?xml version="1.0" encoding="utf-8"?>
<!-- Generator: Adobe Illustrator 19.2.1, SVG Export Plug-In . SVG Version: 6.00 Build 0)  -->
<!DOCTYPE svg PUBLIC "-//W3C//DTD SVG 1.1//EN" "http://www.w3.org/Graphics/SVG/1.1/DTD/svg11.dtd">
<svg version="1.1" id="Layer_1" xmlns="http://www.w3.org/2000/svg" xmlns:xlink="http://www.w3.org/1999/xlink" x="0px" y="0px"
	 width="64px" height="64px" viewBox="0 0 64 64" enable-background="new 0 0 64 64" xml:space="preserve">
<path d="M2,33h43.586L31.293,47.293c-0.391,0.391-0.391,1.023,0,1.414C31.488,48.902,31.744,49,32,49s0.512-0.098,0.707-0.293l16-16
	c0.092-0.092,0.165-0.203,0.216-0.325c0.101-0.245,0.101-0.52,0-0.764c-0.051-0.122-0.124-0.233-0.216-0.325l-16-16
	c-0.391-0.391-1.023-0.391-1.414,0s-0.391,1.023,0,1.414L45.586,31H2c-0.552,0-1,0.448-1,1S1.448,33,2,33z"/>
<path d="M62,1c-0.552,0-1,0.448-1,1v60c0,0.552,0.448,1,1,1s1-0.448,1-1V2C63,1.448,62.552,1,62,1z"/>
</svg>
