<?xml version="1.0" encoding="utf-8"?>
<!-- Generator: Adobe Illustrator 19.2.1, SVG Export Plug-In . SVG Version: 6.00 Build 0)  -->
<!DOCTYPE svg PUBLIC "-//W3C//DTD SVG 1.1//EN" "http://www.w3.org/Graphics/SVG/1.1/DTD/svg11.dtd">
<svg version="1.1" id="Layer_1" xmlns="http://www.w3.org/2000/svg" xmlns:xlink="http://www.w3.org/1999/xlink" x="0px" y="0px"
	 width="64px" height="64px" viewBox="0 0 64 64" enable-background="new 0 0 64 64" xml:space="preserve">
<path d="M60.707,21.293l-8-8c-0.391-0.391-1.023-0.391-1.414,0L32,32.586L12.707,13.293c-0.391-0.391-1.023-0.391-1.414,0l-8,8
	c-0.391,0.391-0.391,1.023,0,1.414l28,28C31.488,50.902,31.744,51,32,51s0.512-0.098,0.707-0.293l28-28
	C61.098,22.316,61.098,21.684,60.707,21.293z M32,48.586L5.414,22L12,15.414l19.293,19.293c0.391,0.391,1.023,0.391,1.414,0
	L52,15.414L58.586,22L32,48.586z"/>
</svg>
