<?xml version="1.0" encoding="utf-8"?>
<!-- Generator: Adobe Illustrator 19.2.1, SVG Export Plug-In . SVG Version: 6.00 Build 0)  -->
<!DOCTYPE svg PUBLIC "-//W3C//DTD SVG 1.1//EN" "http://www.w3.org/Graphics/SVG/1.1/DTD/svg11.dtd">
<svg version="1.1" id="Layer_1" xmlns="http://www.w3.org/2000/svg" xmlns:xlink="http://www.w3.org/1999/xlink" x="0px" y="0px"
	 width="64px" height="64px" viewBox="0 0 64 64" enable-background="new 0 0 64 64" xml:space="preserve">
<path d="M2,43h10h46.586l-7.293,7.293c-0.391,0.391-0.391,1.023,0,1.414C51.488,51.902,51.744,52,52,52s0.512-0.098,0.707-0.293
	l8.999-8.999c0.093-0.092,0.166-0.203,0.217-0.326c0.101-0.244,0.101-0.52,0-0.764c-0.051-0.123-0.124-0.233-0.217-0.326
	l-8.999-8.999c-0.391-0.391-1.023-0.391-1.414,0s-0.391,1.023,0,1.414L58.586,41h-44.82l7.595-12.659
	C23.338,25.046,26.952,23,30.794,23h10.792l-7.293,7.293c-0.391,0.391-0.391,1.023,0,1.414C34.488,31.902,34.744,32,35,32
	s0.512-0.098,0.707-0.293l8.999-8.999c0.093-0.092,0.166-0.203,0.217-0.326c0.101-0.244,0.101-0.52,0-0.764
	c-0.051-0.123-0.124-0.233-0.217-0.326l-8.999-8.999c-0.391-0.391-1.023-0.391-1.414,0s-0.391,1.023,0,1.414L41.586,21H30.794
	c-4.54,0-8.812,2.418-11.147,6.312L11.434,41H2c-0.553,0-1,0.448-1,1S1.447,43,2,43z"/>
</svg>
