<?xml version="1.0" encoding="utf-8"?>
<!-- Generator: Adobe Illustrator 19.2.1, SVG Export Plug-In . SVG Version: 6.00 Build 0)  -->
<!DOCTYPE svg PUBLIC "-//W3C//DTD SVG 1.1//EN" "http://www.w3.org/Graphics/SVG/1.1/DTD/svg11.dtd">
<svg version="1.1" id="Layer_1" xmlns="http://www.w3.org/2000/svg" xmlns:xlink="http://www.w3.org/1999/xlink" x="0px" y="0px"
	 width="64px" height="64px" viewBox="0 0 64 64" enable-background="new 0 0 64 64" xml:space="preserve">
<path d="M3.293,46.707l13.999,13.999c0.092,0.093,0.203,0.166,0.326,0.217C17.74,60.973,17.87,61,18,61s0.26-0.027,0.382-0.077
	c0.123-0.051,0.233-0.124,0.326-0.217l13.999-13.999c0.391-0.391,0.391-1.023,0-1.414s-1.023-0.391-1.414,0L19,57.586V30
	c0-6.065,4.935-11,11-11h27.586L45.293,31.293c-0.391,0.391-0.391,1.023,0,1.414C45.488,32.902,45.744,33,46,33
	s0.512-0.098,0.707-0.293l13.999-13.999c0.093-0.092,0.166-0.203,0.217-0.326c0.101-0.244,0.101-0.52,0-0.764
	c-0.051-0.123-0.124-0.233-0.217-0.326L46.707,3.293c-0.391-0.391-1.023-0.391-1.414,0s-0.391,1.023,0,1.414L57.586,17H30
	c-7.168,0-13,5.832-13,13v27.586L4.707,45.293c-0.391-0.391-1.023-0.391-1.414,0S2.902,46.316,3.293,46.707z"/>
</svg>
