<?xml version="1.0" encoding="utf-8"?>
<!-- Generator: Adobe Illustrator 19.2.1, SVG Export Plug-In . SVG Version: 6.00 Build 0)  -->
<!DOCTYPE svg PUBLIC "-//W3C//DTD SVG 1.1//EN" "http://www.w3.org/Graphics/SVG/1.1/DTD/svg11.dtd">
<svg version="1.1" id="Layer_1" xmlns="http://www.w3.org/2000/svg" xmlns:xlink="http://www.w3.org/1999/xlink" x="0px" y="0px"
	 width="64px" height="64px" viewBox="0 0 64 64" enable-background="new 0 0 64 64" xml:space="preserve">
<path d="M3.542,13.111C3.209,13.282,3,13.625,3,14v16c0,0.323,0.156,0.626,0.419,0.814l28,20C31.593,50.938,31.796,51,32,51
	s0.407-0.062,0.581-0.186l28-20C60.844,30.626,61,30.323,61,30V14c0-0.375-0.209-0.718-0.542-0.889
	c-0.335-0.172-0.734-0.143-1.039,0.075L32,32.771L4.581,13.186C4.275,12.968,3.876,12.938,3.542,13.111z M5,15.943l26.419,18.871
	c0.348,0.248,0.814,0.248,1.162,0L59,15.943v13.542L32,48.771L5,29.485V15.943z"/>
</svg>
