<?xml version="1.0" encoding="utf-8"?>
<!-- Generator: Adobe Illustrator 19.2.1, SVG Export Plug-In . SVG Version: 6.00 Build 0)  -->
<!DOCTYPE svg PUBLIC "-//W3C//DTD SVG 1.1//EN" "http://www.w3.org/Graphics/SVG/1.1/DTD/svg11.dtd">
<svg version="1.1" id="Layer_1" xmlns="http://www.w3.org/2000/svg" xmlns:xlink="http://www.w3.org/1999/xlink" x="0px" y="0px"
	 width="64px" height="64px" viewBox="0 0 64 64" enable-background="new 0 0 64 64" xml:space="preserve">
<path d="M17.293,33.293c-0.391,0.391-0.391,1.023,0,1.414l13.999,13.999c0.092,0.093,0.203,0.166,0.326,0.217
	C31.74,48.973,31.87,49,32,49s0.26-0.027,0.382-0.077c0.123-0.051,0.233-0.124,0.326-0.217l13.999-13.999
	c0.391-0.391,0.391-1.023,0-1.414s-1.023-0.391-1.414,0L33,45.586V16c0-0.552-0.447-1-1-1s-1,0.448-1,1v29.586L18.707,33.293
	C18.316,32.902,17.684,32.902,17.293,33.293z"/>
<path d="M2,11c0.553,0,1-0.448,1-1V3h7c0.553,0,1-0.448,1-1s-0.447-1-1-1H2C1.447,1,1,1.448,1,2v8C1,10.552,1.447,11,2,11z"/>
<path d="M38,3c0.553,0,1-0.448,1-1s-0.447-1-1-1H26c-0.553,0-1,0.448-1,1s0.447,1,1,1H38z"/>
<path d="M62,1h-8c-0.553,0-1,0.448-1,1s0.447,1,1,1h7v7c0,0.552,0.447,1,1,1s1-0.448,1-1V2C63,1.448,62.553,1,62,1z"/>
<path d="M62,53c-0.553,0-1,0.448-1,1v7h-7c-0.553,0-1,0.448-1,1s0.447,1,1,1h8c0.553,0,1-0.448,1-1v-8C63,53.448,62.553,53,62,53z"
	/>
<path d="M26,61c-0.553,0-1,0.448-1,1s0.447,1,1,1h12c0.553,0,1-0.448,1-1s-0.447-1-1-1H26z"/>
<path d="M2,63h8c0.553,0,1-0.448,1-1s-0.447-1-1-1H3v-7c0-0.552-0.447-1-1-1s-1,0.448-1,1v8C1,62.552,1.447,63,2,63z"/>
<path d="M2,39c0.553,0,1-0.448,1-1V26c0-0.552-0.447-1-1-1s-1,0.448-1,1v12C1,38.552,1.447,39,2,39z"/>
<path d="M62,25c-0.553,0-1,0.448-1,1v12c0,0.552,0.447,1,1,1s1-0.448,1-1V26C63,25.448,62.553,25,62,25z"/>
</svg>
