<?xml version="1.0" encoding="utf-8"?>
<!-- Generator: Adobe Illustrator 19.2.1, SVG Export Plug-In . SVG Version: 6.00 Build 0)  -->
<!DOCTYPE svg PUBLIC "-//W3C//DTD SVG 1.1//EN" "http://www.w3.org/Graphics/SVG/1.1/DTD/svg11.dtd">
<svg version="1.1" id="Layer_1" xmlns="http://www.w3.org/2000/svg" xmlns:xlink="http://www.w3.org/1999/xlink" x="0px" y="0px"
	 width="64px" height="64px" viewBox="0 0 64 64" enable-background="new 0 0 64 64" xml:space="preserve">
<path d="M3,60c0,0.553,0.447,1,1,1h20c0.404,0,0.77-0.243,0.924-0.617c0.155-0.374,0.069-0.804-0.217-1.09L15.414,50L50,15.414
	l9.293,9.293C59.484,24.898,59.74,25,60,25c0.129,0,0.259-0.024,0.383-0.076C60.757,24.77,61,24.404,61,24V4c0-0.553-0.447-1-1-1H40
	c-0.404,0-0.77,0.243-0.924,0.617c-0.155,0.374-0.069,0.804,0.217,1.09L48.586,14L14,48.586l-9.293-9.293
	c-0.285-0.286-0.715-0.372-1.09-0.217C3.243,39.23,3,39.596,3,40V60z M59,5v16.586L42.414,5H59z M5,42.414L21.586,59H5V42.414z"/>
</svg>
