<?xml version="1.0" encoding="utf-8"?>
<!-- Generator: Adobe Illustrator 19.2.1, SVG Export Plug-In . SVG Version: 6.00 Build 0)  -->
<!DOCTYPE svg PUBLIC "-//W3C//DTD SVG 1.1//EN" "http://www.w3.org/Graphics/SVG/1.1/DTD/svg11.dtd">
<svg version="1.1" id="Layer_1" xmlns="http://www.w3.org/2000/svg" xmlns:xlink="http://www.w3.org/1999/xlink" x="0px" y="0px"
	 width="64px" height="64px" viewBox="0 0 64 64" enable-background="new 0 0 64 64" xml:space="preserve">
<path d="M33,62V42c0-0.553-0.447-1-1-1s-1,0.447-1,1v20c0,0.553,0.447,1,1,1S33,62.553,33,62z"/>
<path d="M15.707,19.293c-0.391-0.391-1.023-0.391-1.414,0L2.294,31.292c-0.093,0.092-0.166,0.203-0.217,0.326
	c-0.101,0.244-0.101,0.52,0,0.764c0.051,0.123,0.124,0.234,0.217,0.326l11.999,11.999C14.488,44.902,14.744,45,15,45
	s0.512-0.098,0.707-0.293c0.391-0.391,0.391-1.023,0-1.414L5.414,33h53.172L48.293,43.293c-0.391,0.391-0.391,1.023,0,1.414
	C48.488,44.902,48.744,45,49,45s0.512-0.098,0.707-0.293l11.999-11.999c0.093-0.092,0.166-0.203,0.217-0.326
	c0.101-0.244,0.101-0.519,0-0.764c-0.051-0.123-0.125-0.234-0.217-0.327L49.707,19.293c-0.391-0.391-1.023-0.391-1.414,0
	s-0.391,1.023,0,1.414L58.586,31H33V2c0-0.553-0.447-1-1-1s-1,0.447-1,1v29H5.414l10.293-10.293
	C16.098,20.316,16.098,19.684,15.707,19.293z"/>
</svg>
