<?xml version="1.0" encoding="utf-8"?>
<!-- Generator: Adobe Illustrator 19.2.1, SVG Export Plug-In . SVG Version: 6.00 Build 0)  -->
<!DOCTYPE svg PUBLIC "-//W3C//DTD SVG 1.1//EN" "http://www.w3.org/Graphics/SVG/1.1/DTD/svg11.dtd">
<svg version="1.1" id="Layer_1" xmlns="http://www.w3.org/2000/svg" xmlns:xlink="http://www.w3.org/1999/xlink" x="0px" y="0px"
	 width="64px" height="64px" viewBox="0 0 64 64" enable-background="new 0 0 64 64" xml:space="preserve">
<path fill="#222221" d="M2,63c0.256,0,0.512-0.098,0.707-0.293l24-24c0.391-0.391,0.391-1.023,0-1.414s-1.023-0.391-1.414,0l-24,24
	c-0.391,0.391-0.391,1.023,0,1.414C1.488,62.902,1.744,63,2,63z"/>
<path fill="#222221" d="M62.382,1.077C62.26,1.027,62.13,1,62,1H42c-0.552,0-1,0.448-1,1s0.448,1,1,1h17.586L37.293,25.293
	c-0.391,0.391-0.391,1.023,0,1.414C37.488,26.902,37.744,27,38,27s0.512-0.098,0.707-0.293L61,4.414V22c0,0.552,0.448,1,1,1
	s1-0.448,1-1V2c0-0.13-0.027-0.26-0.077-0.382C62.821,1.373,62.627,1.179,62.382,1.077z"/>
<path fill="#222221" d="M62,41c-0.552,0-1,0.448-1,1v17.586L2.707,1.293c-0.391-0.391-1.023-0.391-1.414,0s-0.391,1.023,0,1.414
	L59.586,61H42c-0.552,0-1,0.448-1,1s0.448,1,1,1h20c0.13,0,0.26-0.027,0.382-0.077c0.244-0.101,0.439-0.296,0.541-0.541
	C62.973,62.26,63,62.13,63,62V42C63,41.448,62.552,41,62,41z"/>
</svg>
