<?xml version="1.0" encoding="utf-8"?>
<!-- Generator: Adobe Illustrator 19.2.1, SVG Export Plug-In . SVG Version: 6.00 Build 0)  -->
<!DOCTYPE svg PUBLIC "-//W3C//DTD SVG 1.1//EN" "http://www.w3.org/Graphics/SVG/1.1/DTD/svg11.dtd">
<svg version="1.1" id="Layer_1" xmlns="http://www.w3.org/2000/svg" xmlns:xlink="http://www.w3.org/1999/xlink" x="0px" y="0px"
	 width="64px" height="64px" viewBox="0 0 64 64" enable-background="new 0 0 64 64" xml:space="preserve">
<path d="M32,45c7.168,0,13-5.832,13-13s-5.832-13-13-13s-13,5.832-13,13S24.832,45,32,45z M32,21c6.065,0,11,4.935,11,11
	s-4.935,11-11,11s-11-4.935-11-11S25.935,21,32,21z"/>
<path d="M2,19c0.553,0,1-0.448,1-1V3h15c0.553,0,1-0.448,1-1s-0.447-1-1-1H2C1.447,1,1,1.448,1,2v16C1,18.552,1.447,19,2,19z"/>
<path d="M62,1H46c-0.553,0-1,0.448-1,1s0.447,1,1,1h15v15c0,0.552,0.447,1,1,1s1-0.448,1-1V2C63,1.448,62.553,1,62,1z"/>
<path d="M62,45c-0.553,0-1,0.448-1,1v15H46c-0.553,0-1,0.448-1,1s0.447,1,1,1h16c0.553,0,1-0.448,1-1V46C63,45.448,62.553,45,62,45z
	"/>
<path d="M2,63h16c0.553,0,1-0.448,1-1s-0.447-1-1-1H3V46c0-0.552-0.447-1-1-1s-1,0.448-1,1v16C1,62.552,1.447,63,2,63z"/>
</svg>
