<?xml version="1.0" encoding="utf-8"?>
<!-- Generator: Adobe Illustrator 19.2.1, SVG Export Plug-In . SVG Version: 6.00 Build 0)  -->
<!DOCTYPE svg PUBLIC "-//W3C//DTD SVG 1.1//EN" "http://www.w3.org/Graphics/SVG/1.1/DTD/svg11.dtd">
<svg version="1.1" id="Layer_1" xmlns="http://www.w3.org/2000/svg" xmlns:xlink="http://www.w3.org/1999/xlink" x="0px" y="0px"
	 width="64px" height="64px" viewBox="0 0 64 64" enable-background="new 0 0 64 64" xml:space="preserve">
<path d="M30,35c0.256,0,0.512-0.098,0.707-0.293L51,14.414V28c0,0.552,0.447,1,1,1s1-0.448,1-1V12c0-0.13-0.026-0.26-0.077-0.382
	c-0.101-0.245-0.296-0.44-0.541-0.541C52.26,11.027,52.13,11,52,11H36c-0.553,0-1,0.448-1,1s0.447,1,1,1h13.586L29.293,33.293
	c-0.391,0.391-0.391,1.023,0,1.414C29.488,34.902,29.744,35,30,35z"/>
<path d="M62,1H2C1.447,1,1,1.448,1,2v60c0,0.552,0.447,1,1,1h60c0.553,0,1-0.448,1-1V2C63,1.448,62.553,1,62,1z M61,61H3V3h58V61z"
	/>
</svg>
