<?xml version="1.0" encoding="utf-8"?>
<!-- Generator: Adobe Illustrator 19.2.1, SVG Export Plug-In . SVG Version: 6.00 Build 0)  -->
<!DOCTYPE svg PUBLIC "-//W3C//DTD SVG 1.1//EN" "http://www.w3.org/Graphics/SVG/1.1/DTD/svg11.dtd">
<svg version="1.1" id="Layer_1" xmlns="http://www.w3.org/2000/svg" xmlns:xlink="http://www.w3.org/1999/xlink" x="0px" y="0px"
	 width="64px" height="64px" viewBox="0 0 64 64" enable-background="new 0 0 64 64" xml:space="preserve">
<path d="M15,33h43.586L44.293,47.293c-0.391,0.391-0.391,1.023,0,1.414C44.488,48.902,44.744,49,45,49s0.512-0.098,0.707-0.293
	l16-16c0.092-0.092,0.165-0.203,0.216-0.325c0.101-0.245,0.101-0.52,0-0.764c-0.051-0.122-0.124-0.233-0.216-0.325l-16-16
	c-0.391-0.391-1.023-0.391-1.414,0s-0.391,1.023,0,1.414L58.586,31H15c-0.552,0-1,0.448-1,1S14.448,33,15,33z"/>
<path d="M2,63c0.552,0,1-0.448,1-1V2c0-0.552-0.448-1-1-1S1,1.448,1,2v60C1,62.552,1.448,63,2,63z"/>
</svg>
