<?xml version="1.0" encoding="utf-8"?>
<!-- Generator: Adobe Illustrator 19.2.1, SVG Export Plug-In . SVG Version: 6.00 Build 0)  -->
<!DOCTYPE svg PUBLIC "-//W3C//DTD SVG 1.1//EN" "http://www.w3.org/Graphics/SVG/1.1/DTD/svg11.dtd">
<svg version="1.1" id="Layer_1" xmlns="http://www.w3.org/2000/svg" xmlns:xlink="http://www.w3.org/1999/xlink" x="0px" y="0px"
	 width="64px" height="64px" viewBox="0 0 64 64" enable-background="new 0 0 64 64" xml:space="preserve">
<path d="M62,32c0-0.552-0.447-1-1-1H5.414l16.293-16.293c0.391-0.391,0.391-1.023,0-1.414s-1.023-0.391-1.414,0L2.294,31.292
	c-0.093,0.092-0.166,0.203-0.217,0.326c-0.101,0.244-0.101,0.52,0,0.764c0.051,0.123,0.124,0.233,0.217,0.326l17.999,17.999
	C20.488,50.902,20.744,51,21,51s0.512-0.098,0.707-0.293c0.391-0.391,0.391-1.023,0-1.414L5.414,33H61C61.553,33,62,32.552,62,32z"
	/>
</svg>
