<?xml version="1.0" encoding="utf-8"?>
<!-- Generator: Adobe Illustrator 19.2.1, SVG Export Plug-In . SVG Version: 6.00 Build 0)  -->
<!DOCTYPE svg PUBLIC "-//W3C//DTD SVG 1.1//EN" "http://www.w3.org/Graphics/SVG/1.1/DTD/svg11.dtd">
<svg version="1.1" id="Layer_1" xmlns="http://www.w3.org/2000/svg" xmlns:xlink="http://www.w3.org/1999/xlink" x="0px" y="0px"
	 width="64px" height="64px" viewBox="0 0 64 64" enable-background="new 0 0 64 64" xml:space="preserve">
<path d="M61,48V30c0-0.553-0.448-1-1-1s-1,0.447-1,1v17H6.414l10.293-10.293c0.391-0.391,0.391-1.023,0-1.414s-1.023-0.391-1.414,0
	L3.294,47.292c-0.093,0.092-0.166,0.203-0.217,0.326c-0.101,0.244-0.101,0.52,0,0.764c0.051,0.123,0.124,0.233,0.217,0.326
	l11.999,11.999C15.488,60.902,15.744,61,16,61s0.512-0.098,0.707-0.293c0.391-0.391,0.391-1.023,0-1.414L6.414,49H60
	C60.552,49,61,48.553,61,48z"/>
<path d="M60.923,15.618c-0.051-0.123-0.124-0.233-0.217-0.326L48.707,3.293c-0.391-0.391-1.023-0.391-1.414,0s-0.391,1.023,0,1.414
	L57.586,15H4c-0.552,0-1,0.447-1,1v18c0,0.553,0.448,1,1,1s1-0.447,1-1V17h52.586L47.293,27.293c-0.391,0.391-0.391,1.023,0,1.414
	C47.488,28.902,47.744,29,48,29s0.512-0.098,0.707-0.293l11.999-11.999c0.093-0.092,0.166-0.203,0.217-0.326
	C61.024,16.138,61.024,15.862,60.923,15.618z"/>
</svg>
