<?xml version="1.0" encoding="utf-8"?>
<!-- Generator: Adobe Illustrator 19.2.1, SVG Export Plug-In . SVG Version: 6.00 Build 0)  -->
<!DOCTYPE svg PUBLIC "-//W3C//DTD SVG 1.1//EN" "http://www.w3.org/Graphics/SVG/1.1/DTD/svg11.dtd">
<svg version="1.1" id="Layer_1" xmlns="http://www.w3.org/2000/svg" xmlns:xlink="http://www.w3.org/1999/xlink" x="0px" y="0px"
	 width="64px" height="64px" viewBox="0 0 64 64" enable-background="new 0 0 64 64" xml:space="preserve">
<path d="M3.4,32.8l32,24c0.303,0.229,0.708,0.263,1.047,0.095C36.786,56.725,37,56.379,37,56V40l22.4,16.8
	c0.177,0.133,0.388,0.2,0.6,0.2c0.152,0,0.306-0.035,0.447-0.105C60.786,56.725,61,56.379,61,56V8c0-0.379-0.214-0.725-0.553-0.895
	C60.107,6.937,59.703,6.972,59.4,7.2L37,24V8c0-0.379-0.214-0.725-0.553-0.895C36.108,6.937,35.703,6.972,35.4,7.2l-32,24
	C3.148,31.389,3,31.686,3,32S3.148,32.611,3.4,32.8z M35,10v16c0,0.379,0.214,0.725,0.553,0.895
	c0.339,0.168,0.743,0.133,1.047-0.095L59,10v44L36.6,37.2C36.423,37.067,36.212,37,36,37c-0.152,0-0.306,0.035-0.447,0.105
	C35.214,37.275,35,37.621,35,38v16L5.667,32L35,10z"/>
</svg>
