<?xml version="1.0" encoding="utf-8"?>
<!-- Generator: Adobe Illustrator 19.2.1, SVG Export Plug-In . SVG Version: 6.00 Build 0)  -->
<!DOCTYPE svg PUBLIC "-//W3C//DTD SVG 1.1//EN" "http://www.w3.org/Graphics/SVG/1.1/DTD/svg11.dtd">
<svg version="1.1" id="Layer_1" xmlns="http://www.w3.org/2000/svg" xmlns:xlink="http://www.w3.org/1999/xlink" x="0px" y="0px"
	 width="64px" height="64px" viewBox="0 0 64 64" enable-background="new 0 0 64 64" xml:space="preserve">
<path d="M42,11c-9.224,0-17.277,5.908-20.039,14.701c-0.165,0.527,0.128,1.088,0.654,1.254c0.528,0.166,1.089-0.128,1.254-0.654
	C26.368,18.345,33.654,13,42,13c10.477,0,19,8.523,19,19s-8.523,19-19,19c-8.344,0-15.629-5.342-18.128-13.294
	c-0.166-0.526-0.725-0.821-1.254-0.654c-0.527,0.166-0.819,0.727-0.654,1.254C24.727,47.095,32.778,53,42,53c11.579,0,21-9.42,21-21
	S53.579,11,42,11z"/>
<path d="M13.707,21.293c-0.391-0.391-1.023-0.391-1.414,0l-9.999,9.999c-0.093,0.092-0.166,0.203-0.217,0.326
	c-0.101,0.244-0.101,0.52,0,0.764c0.051,0.123,0.124,0.233,0.217,0.326l9.999,9.999C12.488,42.902,12.744,43,13,43
	s0.512-0.098,0.707-0.293c0.391-0.391,0.391-1.023,0-1.414L5.414,33H45c0.553,0,1-0.448,1-1s-0.447-1-1-1H5.414l8.293-8.293
	C14.098,22.316,14.098,21.684,13.707,21.293z"/>
</svg>
