<?xml version="1.0" encoding="utf-8"?>
<!-- Generator: Adobe Illustrator 19.2.1, SVG Export Plug-In . SVG Version: 6.00 Build 0)  -->
<!DOCTYPE svg PUBLIC "-//W3C//DTD SVG 1.1//EN" "http://www.w3.org/Graphics/SVG/1.1/DTD/svg11.dtd">
<svg version="1.1" id="Layer_1" xmlns="http://www.w3.org/2000/svg" xmlns:xlink="http://www.w3.org/1999/xlink" x="0px" y="0px"
	 width="64px" height="64px" viewBox="0 0 64 64" enable-background="new 0 0 64 64" xml:space="preserve">
<path d="M61,26c0-0.553-0.448-1-1-1s-1,0.447-1,1v17.453L34.733,17.319c-0.192-0.207-0.434-0.293-0.744-0.319
	c-0.282,0.003-0.549,0.125-0.737,0.336L17.957,34.543l-13.25-13.25c-0.391-0.391-1.023-0.391-1.414,0s-0.391,1.023,0,1.414l14,14
	c0.195,0.194,0.46,0.286,0.736,0.293c0.275-0.009,0.535-0.13,0.718-0.336l15.269-17.177L57.706,45H40c-0.552,0-1,0.447-1,1
	s0.448,1,1,1h20c0.127,0,0.253-0.027,0.373-0.075c0.059-0.024,0.105-0.065,0.157-0.098c0.05-0.032,0.105-0.052,0.151-0.094
	c0.004-0.004,0.006-0.01,0.01-0.014c0.059-0.057,0.098-0.128,0.142-0.197c0.026-0.042,0.063-0.077,0.082-0.122
	c0.02-0.046,0.021-0.099,0.034-0.148c0.02-0.078,0.046-0.153,0.047-0.233C60.996,46.012,61,46.007,61,46V26z"/>
</svg>
