<?xml version="1.0" encoding="utf-8"?>
<!-- Generator: Adobe Illustrator 19.2.1, SVG Export Plug-In . SVG Version: 6.00 Build 0)  -->
<!DOCTYPE svg PUBLIC "-//W3C//DTD SVG 1.1//EN" "http://www.w3.org/Graphics/SVG/1.1/DTD/svg11.dtd">
<svg version="1.1" id="Layer_1" xmlns="http://www.w3.org/2000/svg" xmlns:xlink="http://www.w3.org/1999/xlink" x="0px" y="0px"
	 width="64px" height="64px" viewBox="0 0 64 64" enable-background="new 0 0 64 64" xml:space="preserve">
<path fill="#222221" d="M32,1c-0.552,0-1,0.448-1,1v47.586L20.707,39.293c-0.391-0.391-1.023-0.391-1.414,0s-0.391,1.023,0,1.414
	l12,12c0.092,0.092,0.203,0.165,0.325,0.216C31.74,52.973,31.87,53,32,53s0.26-0.027,0.382-0.077
	c0.122-0.051,0.233-0.124,0.325-0.216l12-12c0.391-0.391,0.391-1.023,0-1.414s-1.023-0.391-1.414,0L33,49.586V2
	C33,1.448,32.552,1,32,1z"/>
<path fill="#222221" d="M22,29H12c-0.459,0-0.859,0.312-0.97,0.757l-8,32c-0.075,0.299-0.007,0.615,0.182,0.858S3.692,63,4,63h56
	c0.308,0,0.599-0.142,0.788-0.385s0.257-0.559,0.182-0.858l-8-32C52.859,29.312,52.459,29,52,29H42c-0.552,0-1,0.448-1,1
	s0.448,1,1,1h9.219l7.5,30H5.281l7.5-30H22c0.552,0,1-0.448,1-1S22.552,29,22,29z"/>
</svg>
