<?xml version="1.0" encoding="utf-8"?>
<!-- Generator: Adobe Illustrator 19.2.1, SVG Export Plug-In . SVG Version: 6.00 Build 0)  -->
<!DOCTYPE svg PUBLIC "-//W3C//DTD SVG 1.1//EN" "http://www.w3.org/Graphics/SVG/1.1/DTD/svg11.dtd">
<svg version="1.1" id="Layer_1" xmlns="http://www.w3.org/2000/svg" xmlns:xlink="http://www.w3.org/1999/xlink" x="0px" y="0px"
	 width="64px" height="64px" viewBox="0 0 64 64" enable-background="new 0 0 64 64" xml:space="preserve">
<path d="M62,44c-0.552,0-1,0.447-1,1v15H2c-0.552,0-1,0.447-1,1s0.448,1,1,1h60c0.552,0,1-0.447,1-1V45C63,44.447,62.552,44,62,44z"
	/>
<path d="M38.293,29.707C38.488,29.902,38.744,30,39,30s0.512-0.098,0.707-0.293l12.999-12.999c0.093-0.092,0.166-0.203,0.217-0.326
	c0.101-0.244,0.101-0.52,0-0.764c-0.051-0.123-0.124-0.233-0.217-0.326L39.707,2.293c-0.391-0.391-1.023-0.391-1.414,0
	s-0.391,1.023,0,1.414L49.586,15H24c-7.168,0-13,5.832-13,13v14c0,0.553,0.448,1,1,1s1-0.447,1-1V28c0-6.065,4.935-11,11-11h25.586
	L38.293,28.293C37.902,28.684,37.902,29.316,38.293,29.707z"/>
</svg>
