<?xml version="1.0" encoding="utf-8"?>
<!-- Generator: Adobe Illustrator 19.2.1, SVG Export Plug-In . SVG Version: 6.00 Build 0)  -->
<!DOCTYPE svg PUBLIC "-//W3C//DTD SVG 1.1//EN" "http://www.w3.org/Graphics/SVG/1.1/DTD/svg11.dtd">
<svg version="1.1" id="Layer_1" xmlns="http://www.w3.org/2000/svg" xmlns:xlink="http://www.w3.org/1999/xlink" x="0px" y="0px"
	 width="64px" height="64px" viewBox="0 0 64 64" enable-background="new 0 0 64 64" xml:space="preserve">
<path d="M52,32c0-0.324-0.157-0.627-0.421-0.815l-38-27c-0.305-0.218-0.706-0.245-1.038-0.074C12.209,4.283,12,4.626,12,5v54
	c0,0.374,0.209,0.717,0.541,0.889C12.686,59.963,12.843,60,13,60c0.204,0,0.407-0.062,0.579-0.185l38-27
	C51.843,32.627,52,32.324,52,32z M14,57.063V6.937L49.273,32L14,57.063z"/>
</svg>
