<?xml version="1.0" encoding="utf-8"?>
<!-- Generator: Adobe Illustrator 19.2.1, SVG Export Plug-In . SVG Version: 6.00 Build 0)  -->
<!DOCTYPE svg PUBLIC "-//W3C//DTD SVG 1.1//EN" "http://www.w3.org/Graphics/SVG/1.1/DTD/svg11.dtd">
<svg version="1.1" id="Layer_1" xmlns="http://www.w3.org/2000/svg" xmlns:xlink="http://www.w3.org/1999/xlink" x="0px" y="0px"
	 width="64px" height="64px" viewBox="0 0 64 64" enable-background="new 0 0 64 64" xml:space="preserve">
<path d="M3.359,32.769l24,20C27.543,52.921,27.771,53,28,53c0.144,0,0.289-0.031,0.424-0.095C28.775,52.741,29,52.388,29,52V41h23
	c0.553,0,1-0.447,1-1V24c0-0.553-0.447-1-1-1H29V12c0-0.388-0.225-0.741-0.576-0.905c-0.348-0.163-0.765-0.11-1.064,0.137l-24,20
	C3.132,31.422,3,31.703,3,32S3.132,32.578,3.359,32.769z M27,14.135V24c0,0.553,0.447,1,1,1h23v14H28c-0.553,0-1,0.447-1,1v9.865
	L5.562,32L27,14.135z"/>
<path d="M59,24v16c0,0.553,0.447,1,1,1s1-0.447,1-1V24c0-0.553-0.447-1-1-1S59,23.447,59,24z"/>
</svg>
