<?xml version="1.0" encoding="utf-8"?>
<!-- Generator: Adobe Illustrator 19.2.1, SVG Export Plug-In . SVG Version: 6.00 Build 0)  -->
<!DOCTYPE svg PUBLIC "-//W3C//DTD SVG 1.1//EN" "http://www.w3.org/Graphics/SVG/1.1/DTD/svg11.dtd">
<svg version="1.1" id="Layer_1" xmlns="http://www.w3.org/2000/svg" xmlns:xlink="http://www.w3.org/1999/xlink" x="0px" y="0px"
	 width="64px" height="64px" viewBox="0 0 64 64" enable-background="new 0 0 64 64" xml:space="preserve">
<path fill="#222221" d="M2,33h21.586L13.293,43.293c-0.391,0.391-0.391,1.023,0,1.414C13.488,44.902,13.744,45,14,45
	s0.512-0.098,0.707-0.293l11.999-11.999c0.093-0.092,0.166-0.203,0.217-0.326c0.101-0.244,0.101-0.52,0-0.764
	c-0.051-0.123-0.124-0.233-0.217-0.326L14.707,19.293c-0.391-0.391-1.023-0.391-1.414,0s-0.391,1.023,0,1.414L23.586,31H2
	c-0.553,0-1,0.448-1,1S1.447,33,2,33z"/>
<path fill="#222221" d="M62,31H40.414l10.293-10.293c0.391-0.391,0.391-1.023,0-1.414s-1.023-0.391-1.414,0L37.294,31.292
	c-0.093,0.092-0.166,0.203-0.217,0.326c-0.101,0.244-0.101,0.52,0,0.764c0.051,0.123,0.124,0.233,0.217,0.326l11.999,11.999
	C49.488,44.902,49.744,45,50,45s0.512-0.098,0.707-0.293c0.391-0.391,0.391-1.023,0-1.414L40.414,33H62c0.553,0,1-0.448,1-1
	S62.553,31,62,31z"/>
</svg>
