<?xml version="1.0" encoding="utf-8"?>
<!-- Generator: Adobe Illustrator 19.2.1, SVG Export Plug-In . SVG Version: 6.00 Build 0)  -->
<!DOCTYPE svg PUBLIC "-//W3C//DTD SVG 1.1//EN" "http://www.w3.org/Graphics/SVG/1.1/DTD/svg11.dtd">
<svg version="1.1" id="Layer_1" xmlns="http://www.w3.org/2000/svg" xmlns:xlink="http://www.w3.org/1999/xlink" x="0px" y="0px"
	 width="64px" height="64px" viewBox="0 0 64 64" enable-background="new 0 0 64 64" xml:space="preserve">
<path d="M32,2c-0.553,0-1,0.447-1,1v36.586l-8.293-8.293c-0.391-0.391-1.023-0.391-1.414,0s-0.391,1.023,0,1.414l9.999,9.999
	c0.092,0.093,0.203,0.166,0.326,0.217C31.74,42.974,31.87,43,32,43s0.26-0.026,0.382-0.077c0.123-0.051,0.234-0.124,0.326-0.217
	l9.999-9.999c0.391-0.391,0.391-1.023,0-1.414s-1.023-0.391-1.414,0L33,39.586V3C33,2.447,32.553,2,32,2z"/>
<path d="M24,23H11c-0.553,0-1,0.447-1,1v36c0,0.553,0.447,1,1,1h42c0.553,0,1-0.447,1-1V24c0-0.553-0.447-1-1-1H40
	c-0.553,0-1,0.447-1,1s0.447,1,1,1h12v34H12V25h12c0.553,0,1-0.447,1-1S24.553,23,24,23z"/>
</svg>
