<?xml version="1.0" encoding="utf-8"?>
<!-- Generator: Adobe Illustrator 19.1.0, SVG Export Plug-In . SVG Version: 6.00 Build 0)  -->
<!DOCTYPE svg PUBLIC "-//W3C//DTD SVG 1.1//EN" "http://www.w3.org/Graphics/SVG/1.1/DTD/svg11.dtd">
<svg version="1.1" id="Layer_1" xmlns="http://www.w3.org/2000/svg" xmlns:xlink="http://www.w3.org/1999/xlink" x="0px" y="0px"
	 width="24px" height="24px" viewBox="0 0 24 24" enable-background="new 0 0 24 24" xml:space="preserve">
<path d="M2,18h2v5c0,0.55225,0.44727,1,1,1h14c0.55273,0,1-0.44775,1-1v-5h2c0.55273,0,1-0.44775,1-1v-4c0-0.55225-0.44727-1-1-1h-9
	v-2c3.30859,0,6-2.69141,6-6V2c0-0.55225-0.44727-1-1-1h-1c-1.53754,0-2.93719,0.58618-4,1.54047V1c0-0.55225-0.44727-1-1-1
	s-1,0.44775-1,1v6v2v3H2c-0.55273,0-1,0.44775-1,1v4C1,17.55225,1.44727,18,2,18z M17,3v1c0,2.20557-1.79395,4-4,4V7
	C13,4.79443,14.79395,3,17,3z M18,22H6v-4h12V22z M3,14h18v2H3V14z"/>
</svg>
