<?xml version="1.0" encoding="utf-8"?>
<!-- Generator: Adobe Illustrator 19.1.0, SVG Export Plug-In . SVG Version: 6.00 Build 0)  -->
<!DOCTYPE svg PUBLIC "-//W3C//DTD SVG 1.1//EN" "http://www.w3.org/Graphics/SVG/1.1/DTD/svg11.dtd">
<svg version="1.1" id="Layer_1" xmlns="http://www.w3.org/2000/svg" xmlns:xlink="http://www.w3.org/1999/xlink" x="0px" y="0px"
	 width="24px" height="24px" viewBox="0 0 24 24" enable-background="new 0 0 24 24" xml:space="preserve">
<path d="M14,16h-4c-0.57227,0-1.08594,0.31836-1.3418,0.83008c-0.25586,0.51074-0.20117,1.11328,0.1416,1.56934l2,2.66797
	c0.28613,0.38086,0.72363,0.59961,1.2002,0.59961s0.91406-0.21875,1.2002-0.60059l2-2.66602
	c0.34277-0.45703,0.39746-1.05957,0.1416-1.57031C15.08594,16.31836,14.57227,16,14,16z M12,19.33398L11,18h2L12,19.33398z"/>
<path d="M24,4c0-2.20605-1.79395-4-4-4c-1.44049,0-2.77808,0.841-3.50354,2.0838C15.17065,1.4079,13.67242,1,12,1
	S8.82941,1.40796,7.50354,2.0838C6.77808,0.841,5.44049,0,4,0C1.79395,0,0,1.79395,0,4c0,1.52551,0.85938,2.86914,2.14124,3.54248
	C1.75867,8.237,1.42883,8.9447,1.16309,9.64551c-1.12207,2.96387-1.99805,7.16504,0.20508,10.35547C3.2002,22.6543,6.77734,24,12,24
	s8.7998-1.3457,10.63184-3.99902c2.20312-3.19043,1.32715-7.3916,0.20508-10.35547c0,0,0,0-0.00098,0
	c-0.26556-0.70074-0.59528-1.40839-0.97766-2.10284C23.14038,6.86938,24,5.5257,24,4z M2,4c0-1.10254,0.89746-2,2-2
	c0.72607,0,1.43964,0.48419,1.80762,1.15369c-0.99219,0.7641-1.85413,1.68469-2.58423,2.68207C2.5011,5.53021,2,4.82098,2,4z
	 M20.98633,18.86426C19.5498,20.94531,16.52637,22,12,22s-7.5498-1.05469-8.98633-3.13574
	c-1.70996-2.47559-0.93262-5.99414,0.01953-8.50977C3.49902,9.12598,6.12012,3,12,3s8.50098,6.12598,8.9668,7.35449
	C21.91895,12.87012,22.69629,16.38867,20.98633,18.86426z M20.77631,5.83588c-0.73004-0.99744-1.5918-1.91797-2.58392-2.68213
	C18.5603,2.48413,19.27393,2,20,2c1.10254,0,2,0.89746,2,2C22,4.82111,21.49878,5.5304,20.77631,5.83588z"/>
<path d="M10.04785,12.66797c0.93164-1.32617,1.11035-1.99023,0.83008-3.08887c-0.53418-2.08984-1.98145-2.40234-2.79688-2.40234
	c-2.35352,0-4.11621,3.03223-4.13867,4.60938c-0.01367,0.95215,0.375,1.94824,1.01562,2.59766
	c0.47363,0.48145,1.06641,0.74707,1.66699,0.74707C8.11719,15.13086,9.19238,13.88574,10.04785,12.66797z M6.625,13.13086
	c-0.04395,0-0.13281-0.03906-0.24219-0.15039c-0.26562-0.26953-0.44629-0.74805-0.44043-1.16602
	c0.01074-0.76465,1.15918-2.6377,2.13867-2.6377c0.25098,0,0.62988,0,0.85938,0.89746
	c0.09961,0.38965,0.12891,0.50684-0.5293,1.44336C7.65918,12.58789,7.05859,13.13086,6.625,13.13086z"/>
<path d="M15.91895,7.17676c-0.81543,0-2.2627,0.3125-2.79688,2.40332c-0.28027,1.09766-0.10156,1.76172,0.83008,3.08789
	c0.85547,1.21777,1.93066,2.46289,3.42285,2.46289c0.60059,0,1.19336-0.26562,1.66699-0.74707
	c0.64062-0.64941,1.0293-1.64551,1.01562-2.59668C20.03516,10.20898,18.27246,7.17676,15.91895,7.17676z M17.61719,12.98047
	c-0.10938,0.11133-0.19824,0.15039-0.24219,0.15039c-0.43359,0-1.03418-0.54297-1.78613-1.61328
	c-0.6582-0.93652-0.62891-1.05371-0.5293-1.44238c0.22949-0.89844,0.6084-0.89844,0.85938-0.89844
	c0.97949,0,2.12793,1.87305,2.13867,2.63867C18.06348,12.23242,17.88281,12.71094,17.61719,12.98047z"/>
</svg>
