<?xml version="1.0" encoding="utf-8"?>
<!-- Generator: Adobe Illustrator 19.1.0, SVG Export Plug-In . SVG Version: 6.00 Build 0)  -->
<!DOCTYPE svg PUBLIC "-//W3C//DTD SVG 1.1//EN" "http://www.w3.org/Graphics/SVG/1.1/DTD/svg11.dtd">
<svg version="1.1" id="Layer_1" xmlns="http://www.w3.org/2000/svg" xmlns:xlink="http://www.w3.org/1999/xlink" x="0px" y="0px"
	 width="24px" height="24px" viewBox="0 0 24 24" enable-background="new 0 0 24 24" xml:space="preserve">
<path d="M11.06543,2.15283c-0.47168-1.58545-2.14355-2.49365-3.73047-2.02002c-0.76758,0.22803-1.40137,0.7417-1.7832,1.44678
	c-0.38184,0.70459-0.46582,1.51611-0.2373,2.2832l0.57031,1.91797c0.38672,1.30127,1.58398,2.14502,2.87695,2.14502
	c0.28223,0,0.56934-0.04053,0.85352-0.125c0.76758-0.22803,1.40137-0.74219,1.7832-1.44678
	c0.38086-0.70459,0.46582-1.51611,0.2373-2.2832L11.06543,2.15283z M9.63965,5.40186
	C9.51172,5.63672,9.30078,5.80762,9.04492,5.88379C8.51367,6.04297,7.95898,5.73828,7.80176,5.21045L7.23145,3.29248
	C7.15527,3.03662,7.18359,2.7666,7.31055,2.53174C7.43848,2.29688,7.64941,2.12598,7.90527,2.0498
	C8,2.02148,8.0957,2.0083,8.18945,2.0083c0.43066,0,0.83008,0.28125,0.95898,0.71484l0.57031,1.91797
	C9.79492,4.89697,9.7666,5.16699,9.63965,5.40186z"/>
<path d="M16.66504,0.13281c-1.58789-0.47412-3.25977,0.43506-3.73145,2.021l-0.56836,1.91602
	C12.13574,4.83789,12.2207,5.64941,12.60156,6.354c0.38184,0.70459,1.01562,1.21875,1.7832,1.44678
	c0.28418,0.08447,0.57129,0.125,0.85352,0.125c1.29297-0.00049,2.49023-0.84424,2.87793-2.146l0.56836-1.91602
	c0.22949-0.76807,0.14551-1.57959-0.23633-2.28418C18.06641,0.87451,17.43262,0.36084,16.66504,0.13281z M16.76758,3.29346
	l-0.56836,1.91602c-0.1582,0.52881-0.71289,0.83203-1.24414,0.67432c-0.25586-0.07617-0.4668-0.24707-0.59473-0.48193
	c-0.12695-0.23486-0.15527-0.50488-0.07812-0.76172l0.56836-1.91602c0.12988-0.43408,0.52832-0.71582,0.95996-0.71582
	c0.09375,0,0.18945,0.01318,0.28418,0.0415c0.25586,0.07617,0.4668,0.24707,0.59473,0.48193
	C16.81641,2.7666,16.84473,3.03662,16.76758,3.29346z"/>
<path d="M1.05176,5.94482c-0.60938,0.52051-0.97949,1.24707-1.04199,2.0459c-0.06348,0.79883,0.18848,1.57471,0.70898,2.18359
	l0.42188,0.49316c0.52051,0.60889,1.24707,0.979,2.0459,1.0415c0.08008,0.00635,0.16016,0.00977,0.23926,0.00977
	c0.71387,0,1.39648-0.25098,1.94434-0.71973c0.60938-0.52051,0.97949-1.24707,1.04199-2.04639
	c0.0625-0.79883-0.18945-1.57422-0.70996-2.18262L5.28027,6.27637c-0.52051-0.60889-1.24707-0.979-2.04492-1.0415
	C2.43457,5.17432,1.66113,5.42432,1.05176,5.94482z M4.18164,8.06934c0.17285,0.20312,0.25781,0.46143,0.23633,0.72754
	c-0.02051,0.26611-0.14355,0.5083-0.34668,0.68164s-0.4541,0.25586-0.72852,0.23682c-0.2666-0.021-0.50879-0.14453-0.68164-0.34717
	L2.23926,8.875C2.06641,8.67236,1.98242,8.41357,2.00293,8.14746c0.02148-0.26611,0.14453-0.5083,0.34766-0.68213
	C2.53906,7.30469,2.76953,7.22607,3,7.22607c0.28223,0,0.5625,0.11865,0.75977,0.34961L4.18164,8.06934z"/>
<path d="M17.58789,8.95264c0.0625,0.79932,0.43262,1.52588,1.04199,2.04639c0.54785,0.46875,1.23047,0.71973,1.94434,0.71973
	c0.0791,0,0.15918-0.00342,0.23926-0.00977c0.79883-0.0625,1.52539-0.43262,2.04688-1.04199l0.41992-0.49219
	c0.52148-0.60938,0.77344-1.38525,0.70996-2.18408c-0.0625-0.79883-0.43262-1.52539-1.04199-2.0459
	c-0.60938-0.521-1.3916-0.77148-2.18359-0.70996c-0.79785,0.0625-1.52441,0.43262-2.0459,1.04199l-0.41992,0.49268
	C17.77734,7.37842,17.52539,8.15381,17.58789,8.95264z M19.81934,8.06885l0.41992-0.49268
	c0.19824-0.23145,0.47852-0.3501,0.76172-0.3501c0.22949,0,0.45996,0.07861,0.64844,0.23926
	c0.20312,0.17383,0.32617,0.41602,0.34766,0.68213c0.02051,0.26611-0.06348,0.5249-0.2373,0.72803l-0.41992,0.49219
	c-0.17383,0.20312-0.41602,0.32666-0.68262,0.34766c-0.26953,0.02295-0.52539-0.06299-0.72852-0.23682
	c-0.20312-0.17334-0.32617-0.41553-0.34668-0.68164C19.56055,8.53076,19.64551,8.27246,19.81934,8.06885z"/>
<path d="M6.28223,12.91699c-0.01465,0.02002-0.02734,0.04004-0.04004,0.06055l-2.26562,3.74023
	c-1.07324,1.771-0.91797,3.86475,0.4043,5.46436c0.97559,1.18018,2.37207,1.81689,3.83105,1.81689
	c0.59961,0,1.20898-0.10742,1.80469-0.32861l0.2002-0.07324c1.15039-0.42822,2.41699-0.42676,3.56934,0.00049l0.19531,0.07227
	c2.0498,0.76025,4.26074,0.17578,5.6377-1.48779c1.32227-1.59961,1.47754-3.69336,0.4043-5.46436l-2.30566-3.80078
	C16.42285,11.09033,14.28516,10,12,10S7.57715,11.09033,6.28223,12.91699z M16.04688,14.01367l2.26562,3.74023
	c0.62793,1.03711,0.54004,2.21582-0.23535,3.1543c-0.62695,0.7583-1.89355,1.4458-3.40234,0.88623l-0.19434-0.07227
	c-1.59961-0.59277-3.36035-0.59521-4.95801-0.00049l-0.19922,0.07324c-1.51172,0.55957-2.77344-0.12939-3.40039-0.88672
	c-0.77539-0.93848-0.86328-2.11719-0.23535-3.1543l2.24609-3.70801C8.86914,12.74512,10.34961,12,12,12
	C13.66211,12,15.15234,12.75586,16.04688,14.01367z"/>
</svg>
