<?xml version="1.0" encoding="utf-8"?>
<!-- Generator: Adobe Illustrator 19.1.0, SVG Export Plug-In . SVG Version: 6.00 Build 0)  -->
<!DOCTYPE svg PUBLIC "-//W3C//DTD SVG 1.1//EN" "http://www.w3.org/Graphics/SVG/1.1/DTD/svg11.dtd">
<svg version="1.1" id="Layer_1" xmlns="http://www.w3.org/2000/svg" xmlns:xlink="http://www.w3.org/1999/xlink" x="0px" y="0px"
	 width="24px" height="24px" viewBox="0 0 24 24" enable-background="new 0 0 24 24" xml:space="preserve">
<path d="M23,3h-7.14203C15.41083,1.27972,13.8587,0,12,0S8.58917,1.27972,8.14203,3H1C0.44727,3,0,3.44775,0,4v6
	c0,0.55225,0.44727,1,1,1h7v1c0,1.11853,0.46405,2.12842,1.2066,2.85504C7.87628,15.75452,7,17.27692,7,19c0,2.75684,2.24316,5,5,5
	s5-2.24316,5-5c0-1.72308-0.87628-3.24548-2.2066-4.14496C15.53595,14.12842,16,13.11853,16,12v-1h7c0.55273,0,1-0.44775,1-1V4
	C24,3.44775,23.55273,3,23,3z M12,2c0.73676,0,1.37476,0.40509,1.7218,1h-3.4436C10.62524,2.40509,11.26324,2,12,2z M2,5h12v4H2V5z
	 M15,19c0,1.6543-1.3457,3-3,3s-3-1.3457-3-3s1.3457-3,3-3S15,17.3457,15,19z M14,12c0,1.10303-0.89746,2-2,2s-2-0.89697-2-2v-1h4
	V12z M22,9h-6V5h6V9z"/>
</svg>
