<?xml version="1.0" encoding="utf-8"?>
<!-- Generator: Adobe Illustrator 19.1.0, SVG Export Plug-In . SVG Version: 6.00 Build 0)  -->
<!DOCTYPE svg PUBLIC "-//W3C//DTD SVG 1.1//EN" "http://www.w3.org/Graphics/SVG/1.1/DTD/svg11.dtd">
<svg version="1.1" id="Layer_1" xmlns="http://www.w3.org/2000/svg" xmlns:xlink="http://www.w3.org/1999/xlink" x="0px" y="0px"
	 width="24px" height="24px" viewBox="0 0 24 24" enable-background="new 0 0 24 24" xml:space="preserve">
<path d="M21.83008,2.6377c-0.66113-0.37842-1.40039-0.55371-2.14355-0.52734c-0.86035-1.60498-2.74414-2.46729-4.5752-1.96924
	c-1.03027,0.28027-1.89062,0.94482-2.42188,1.87207s-0.66895,2.00586-0.38867,3.03711
	c0.19141,0.70117,0.55957,1.32275,1.06641,1.81592L10.42761,12H5c-0.44141,0-0.83105,0.28955-0.95801,0.71289l-3,10
	c-0.09082,0.30273-0.0332,0.63037,0.15527,0.88428C1.38672,23.85059,1.68359,24,2,24h20c0.31641,0,0.61328-0.14941,0.80273-0.40283
	c0.18848-0.25391,0.24609-0.58154,0.15527-0.88428l-3-10C19.83105,12.28955,19.44141,12,19,12h-1.37817l1.16333-2.03174
	c0.68164,0.18896,1.4043,0.19189,2.10547,0.00049c1.03223-0.27979,1.89258-0.94482,2.42285-1.87207
	c0.53125-0.92725,0.66895-2.00586,0.38867-3.03662C23.42188,4.02881,22.75684,3.16846,21.83008,2.6377z M20.65625,22H3.34375
	l2.40039-8h12.51172L20.65625,22z M21.57812,7.10254c-0.26562,0.46387-0.69531,0.79639-1.21191,0.93652
	c-0.5127,0.14111-1.05371,0.07129-1.51758-0.19434c-0.48242-0.2749-1.0918-0.1084-1.36523,0.37061L15.31628,12h-2.58313
	l2.80493-4.89893c0.27441-0.47949,0.1084-1.09033-0.37109-1.36475c-0.46387-0.26514-0.7959-0.6958-0.93652-1.21094
	c-0.13965-0.51562-0.07129-1.05469,0.19434-1.51807c0.26562-0.46387,0.69629-0.79639,1.21191-0.93652
	c1.06445-0.28857,2.16504,0.34131,2.4541,1.40527c0.14453,0.5332,0.69629,0.84863,1.22754,0.70264
	c0.51465-0.13867,1.05469-0.07031,1.51758,0.19434c0.46387,0.26562,0.7959,0.6958,0.93652,1.21143
	C21.91211,6.1001,21.84375,6.63916,21.57812,7.10254z"/>
</svg>
