<?xml version="1.0" encoding="utf-8"?>
<!-- Generator: Adobe Illustrator 19.1.0, SVG Export Plug-In . SVG Version: 6.00 Build 0)  -->
<!DOCTYPE svg PUBLIC "-//W3C//DTD SVG 1.1//EN" "http://www.w3.org/Graphics/SVG/1.1/DTD/svg11.dtd">
<svg version="1.1" id="Layer_1" xmlns="http://www.w3.org/2000/svg" xmlns:xlink="http://www.w3.org/1999/xlink" x="0px" y="0px"
	 width="24px" height="24px" viewBox="0 0 24 24" enable-background="new 0 0 24 24" xml:space="preserve">
<path d="M23,22h-5.10059C17.43457,19.7207,15.41504,18,13,18v-1c3.30859,0,6-2.69141,6-6V9c0-0.55225-0.44727-1-1-1h-1
	c-1.53754,0-2.93719,0.58618-4,1.54047V9V1c0-0.55225-0.44727-1-1-1s-1,0.44775-1,1v3.54047C9.93719,3.58618,8.53754,3,7,3H6
	C5.44727,3,5,3.44775,5,4v2c0,3.30859,2.69141,6,6,6v2v2v2.42432c-0.83911,0.36652-1.57001,0.95294-2.09961,1.71729
	C8.61035,20.04834,8.30664,20,8,20c-1.30371,0-2.41602,0.83594-2.8291,2H1c-0.55273,0-1,0.44775-1,1s0.44727,1,1,1h5
	c0.55273,0,1-0.44775,1-1c0-0.55127,0.44824-1,1-1c0.2959,0,0.51562,0.13525,0.64648,0.24854
	c0.24414,0.21094,0.57617,0.29102,0.88672,0.21484c0.31348-0.0752,0.57129-0.29639,0.69238-0.59473
	C10.68848,20.7334,11.77734,20,13,20c1.6543,0,3,1.3457,3,3c0,0.55225,0.44727,1,1,1h6c0.55273,0,1-0.44775,1-1S23.55273,22,23,22z
	 M17,10v1c0,2.20557-1.79395,4-4,4v-1C13,11.79443,14.79395,10,17,10z M7,6V5c2.20605,0,4,1.79443,4,4v1C8.79395,10,7,8.20557,7,6z"
	/>
</svg>
