<?xml version="1.0" encoding="utf-8"?>
<!-- Generator: Adobe Illustrator 19.1.0, SVG Export Plug-In . SVG Version: 6.00 Build 0)  -->
<!DOCTYPE svg PUBLIC "-//W3C//DTD SVG 1.1//EN" "http://www.w3.org/Graphics/SVG/1.1/DTD/svg11.dtd">
<svg version="1.1" id="Layer_1" xmlns="http://www.w3.org/2000/svg" xmlns:xlink="http://www.w3.org/1999/xlink" x="0px" y="0px"
	 width="24px" height="24px" viewBox="0 0 24 24" enable-background="new 0 0 24 24" xml:space="preserve">
<path d="M5,20h6v2H7c-0.55225,0-1,0.44775-1,1s0.44775,1,1,1h10c0.55225,0,1-0.44775,1-1s-0.44775-1-1-1h-4v-2h6
	c0.3374,0,0.65234-0.17041,0.83691-0.45264s0.21436-0.63916,0.0791-0.94824l-7-16C12.75684,2.23535,12.39746,2,12,2
	s-0.75684,0.23535-0.91602,0.59912l-7,16c-0.13525,0.30908-0.10547,0.66602,0.0791,0.94824S4.6626,20,5,20z M12,5.49512L17.47119,18
	H13v-4c0-0.55225-0.44775-1-1-1s-1,0.44775-1,1v4H6.52881L12,5.49512z"/>
</svg>
