<?xml version="1.0" encoding="utf-8"?>
<!-- Generator: Adobe Illustrator 19.1.0, SVG Export Plug-In . SVG Version: 6.00 Build 0)  -->
<!DOCTYPE svg PUBLIC "-//W3C//DTD SVG 1.1//EN" "http://www.w3.org/Graphics/SVG/1.1/DTD/svg11.dtd">
<svg version="1.1" id="Layer_1" xmlns="http://www.w3.org/2000/svg" xmlns:xlink="http://www.w3.org/1999/xlink" x="0px" y="0px"
	 width="24px" height="24px" viewBox="0 0 24 24" enable-background="new 0 0 24 24" xml:space="preserve">
<path d="M23,0h-3c-0.40918,0-0.77637,0.24902-0.92871,0.62842L18,3.30762l-1.07129-2.6792C16.77637,0.24902,16.40918,0,16,0H8
	C7.44727,0,7,0.44775,7,1v9L4.59961,8.2002C4.20117,7.90088,3.64355,7.94043,3.29297,8.29297l-2,2
	c-0.35156,0.35205-0.3916,0.90869-0.09277,1.30713L7,19.3335V23c0,0.55225,0.44727,1,1,1h15c0.55273,0,1-0.44775,1-1V1
	C24,0.44775,23.55273,0,23,0z M22,22h-8v-6c0-0.55225-0.44727-1-1-1s-1,0.44775-1,1v6H9v-3c0-0.21631-0.07031-0.42676-0.2002-0.6001
	l-5.47949-7.30615l0.77344-0.77344l3.30664,2.47949c0.30273,0.22754,0.70801,0.26318,1.04688,0.09473
	C8.78613,12.7251,9,12.37891,9,12V2h6.32324l1.74805,4.37158C17.22363,6.75098,17.59082,7,18,7s0.77637-0.24902,0.92871-0.62842
	L20.67676,2H22V22z"/>
<path d="M13,10c-0.55273,0-1,0.44775-1,1v1c0,0.55225,0.44727,1,1,1s1-0.44775,1-1v-1C14,10.44775,13.55273,10,13,10z"/>
</svg>
