<?xml version="1.0" encoding="utf-8"?>
<!-- Generator: Adobe Illustrator 19.1.0, SVG Export Plug-In . SVG Version: 6.00 Build 0)  -->
<!DOCTYPE svg PUBLIC "-//W3C//DTD SVG 1.1//EN" "http://www.w3.org/Graphics/SVG/1.1/DTD/svg11.dtd">
<svg version="1.1" id="Layer_1" xmlns="http://www.w3.org/2000/svg" xmlns:xlink="http://www.w3.org/1999/xlink" x="0px" y="0px"
	 width="24px" height="24px" viewBox="0 0 24 24" enable-background="new 0 0 24 24" xml:space="preserve">
<path d="M12,24c6.06543,0,11-4.93457,11-11V5c0-0.55225-0.44727-1-1-1c-1.591,0-3.0415,0.37848-4.33154,0.94751
	c-1.90424-2.6731-5.19006-3.84033-5.34229-3.89282c-0.2041-0.07031-0.42383-0.07324-0.63086-0.00732
	C11.54034,1.0968,8.20294,2.19812,6.30005,4.93292C5.01794,4.37177,3.57788,4,2,4C1.44727,4,1,4.44775,1,5v8
	C1,19.06543,5.93457,24,12,24z M11.99023,3.06934c0.75049,0.31409,2.66418,1.23285,3.901,2.83295
	C14.12518,7.02814,12.79205,8.41272,12,9.35791C11.20325,8.4071,9.85858,7.01196,8.0769,5.88263
	C9.3009,4.26355,11.23608,3.36993,11.99023,3.06934z M3,6.06299c4.83887,0.61084,8.13379,5.44092,8.16895,5.49268
	c0.37109,0.55371,1.29102,0.55371,1.66211,0C12.86621,11.50391,16.16113,6.67383,21,6.06299V13c0,4.9624-4.03711,9-9,9
	s-9-4.0376-9-9V6.06299z"/>
</svg>
