<?xml version="1.0" encoding="utf-8"?>
<!-- Generator: Adobe Illustrator 19.1.0, SVG Export Plug-In . SVG Version: 6.00 Build 0)  -->
<!DOCTYPE svg PUBLIC "-//W3C//DTD SVG 1.1//EN" "http://www.w3.org/Graphics/SVG/1.1/DTD/svg11.dtd">
<svg version="1.1" id="Layer_1" xmlns="http://www.w3.org/2000/svg" xmlns:xlink="http://www.w3.org/1999/xlink" x="0px" y="0px"
	 width="24px" height="24px" viewBox="0 0 24 24" enable-background="new 0 0 24 24" xml:space="preserve">
<path d="M20,8h-1.02533C18.72083,5.20105,16.36346,3,13.5,3c-1.65723,0-3.19922,0.74072-4.23926,2.00977
	C7.26819,4.86267,5.60156,6.1944,5.1391,8H4C3.5166,8,3.10254,8.3457,3.0166,8.82129l-2,11
	c-0.05371,0.2915,0.02539,0.5918,0.21582,0.81934C1.42188,20.86816,1.70312,21,2,21h20c0.29688,0,0.57812-0.13184,0.76758-0.35938
	c0.19043-0.22754,0.26953-0.52783,0.21582-0.81934l-2-11C20.89746,8.3457,20.4834,8,20,8z M9,7
	c0.14062,0,0.29102,0.02051,0.47266,0.06494c0.41504,0.10156,0.84961-0.07422,1.08008-0.43457C11.20215,5.60938,12.30469,5,13.5,5
	c1.75848,0,3.20422,1.30835,3.44946,3H7.2782C7.62524,7.40509,8.26324,7,9,7z M3.19824,19l1.63672-9h13.12079
	c0.00592,0.00012,0.01202,0.00098,0.01788,0.00098c0.00183,0,0.00336-0.00098,0.00519-0.00098h1.18622l1.63672,9H3.19824z"/>
</svg>
