<?xml version="1.0" encoding="utf-8"?>
<!-- Generator: Adobe Illustrator 19.1.0, SVG Export Plug-In . SVG Version: 6.00 Build 0)  -->
<!DOCTYPE svg PUBLIC "-//W3C//DTD SVG 1.1//EN" "http://www.w3.org/Graphics/SVG/1.1/DTD/svg11.dtd">
<svg version="1.1" id="Layer_1" xmlns="http://www.w3.org/2000/svg" xmlns:xlink="http://www.w3.org/1999/xlink" x="0px" y="0px"
	 width="24px" height="24px" viewBox="0 0 24 24" enable-background="new 0 0 24 24" xml:space="preserve">
<path d="M6,19h5v3H7c-0.55225,0-1,0.44775-1,1s0.44775,1,1,1h10c0.55225,0,1-0.44775,1-1s-0.44775-1-1-1h-4v-3h5
	c2.75684,0,5-2.24316,5-5c0-2.45752-1.78174-4.50635-4.12109-4.92285C18.95947,8.7251,19,8.36523,19,8
	c0-2.50342-1.84912-4.58252-4.25342-4.94434C14.1377,1.26709,12.43652,0,10.5,0C8.01855,0,6,2.01855,6,4.5
	c0,0.1626,0.01074,0.32715,0.03271,0.49609C4.76318,5.93115,4,7.40625,4,9c0,0.13623,0.00635,0.27246,0.02002,0.41113
	C2.22412,10.18945,1,11.98779,1,14C1,16.75684,3.24316,19,6,19z M5.37598,11.06738c0.271-0.05762,0.50635-0.2251,0.64941-0.4624
	s0.18115-0.52344,0.10547-0.79004C6.0415,9.50195,6,9.24268,6,9c0-1.10645,0.62012-2.11963,1.61865-2.64307
	c0.4209-0.22119,0.62842-0.7085,0.49512-1.16553C8.03613,4.9248,8,4.70508,8,4.5C8,3.12158,9.12158,2,10.5,2
	c1.22803,0,2.28564,0.92285,2.46045,2.146c0.07031,0.49268,0.49219,0.85889,0.98975,0.85889
	c0.02637,0,0.06006-0.00195,0.09326-0.00439C15.67773,5.02344,17,6.36035,17,8c0,0.51611-0.14111,1.01953-0.41895,1.49658
	c-0.18018,0.30957-0.18115,0.69141-0.00293,1.00195C16.75684,10.80859,17.0874,11,17.44531,11H18c1.6543,0,3,1.3457,3,3
	s-1.3457,3-3,3H6c-1.6543,0-3-1.3457-3-3C3,12.5918,3.99902,11.3584,5.37598,11.06738z"/>
</svg>
