<?xml version="1.0" encoding="utf-8"?>
<!-- Generator: Adobe Illustrator 20.0.0, SVG Export Plug-In . SVG Version: 6.00 Build 0)  -->
<!DOCTYPE svg PUBLIC "-//W3C//DTD SVG 1.1//EN" "http://www.w3.org/Graphics/SVG/1.1/DTD/svg11.dtd">
<svg version="1.1" id="Layer_1" xmlns="http://www.w3.org/2000/svg" xmlns:xlink="http://www.w3.org/1999/xlink" x="0px" y="0px"
	 width="48px" height="48px" viewBox="0 0 48 48" enable-background="new 0 0 48 48" xml:space="preserve">
<path d="M43,7H5c-2.206,0-4,1.794-4,4v26c0,2.206,1.794,4,4,4h38c2.206,0,4-1.794,4-4V11C47,8.794,45.206,7,43,7z M45,37
	c0,1.103-0.897,2-2,2H5c-1.103,0-2-0.897-2-2V11c0-1.103,0.897-2,2-2h38c1.103,0,2,0.897,2,2V37z"/>
<path d="M23.938,20.184l-0.656,2.629c0.743,0.185,3.035,0.941,3.406-0.546C27.075,20.715,24.681,20.369,23.938,20.184z"/>
<path d="M22.951,24.14l-0.723,2.899c0.893,0.222,3.646,1.106,4.053-0.53C26.706,24.804,23.844,24.363,22.951,24.14z"/>
<path d="M26.902,12.358c-6.428-1.603-12.94,2.31-14.542,8.74c-1.604,6.429,2.309,12.941,8.737,14.544
	c6.43,1.603,12.942-2.31,14.545-8.739C37.244,20.474,33.331,13.961,26.902,12.358z M29.289,22.29
	c-0.173,1.169-0.821,1.735-1.681,1.933c1.181,0.615,1.783,1.558,1.21,3.193c-0.711,2.031-2.399,2.202-4.645,1.777l-0.545,2.184
	l-1.317-0.328l0.538-2.155c-0.341-0.085-0.69-0.175-1.049-0.272l-0.54,2.165l-1.315-0.328l0.545-2.188
	c-0.307-0.079-0.62-0.162-0.939-0.242l-1.714-0.427l0.654-1.507c0,0,0.97,0.258,0.957,0.239c0.373,0.092,0.538-0.151,0.603-0.313
	l1.478-5.926c0.016-0.28-0.08-0.633-0.614-0.766c0.021-0.014-0.956-0.238-0.956-0.238l0.35-1.406l1.816,0.453l-0.001,0.007
	c0.273,0.068,0.554,0.132,0.841,0.198l0.54-2.162l1.316,0.328l-0.529,2.12c0.353,0.081,0.709,0.162,1.055,0.248l0.525-2.106
	l1.317,0.328l-0.539,2.163C28.313,19.835,29.528,20.693,29.289,22.29z"/>
</svg>
