<?xml version="1.0" encoding="utf-8"?>
<!-- Generator: Adobe Illustrator 20.0.0, SVG Export Plug-In . SVG Version: 6.00 Build 0)  -->
<!DOCTYPE svg PUBLIC "-//W3C//DTD SVG 1.1//EN" "http://www.w3.org/Graphics/SVG/1.1/DTD/svg11.dtd">
<svg version="1.1" id="Layer_1" xmlns="http://www.w3.org/2000/svg" xmlns:xlink="http://www.w3.org/1999/xlink" x="0px" y="0px"
	 width="48px" height="48px" viewBox="0 0 48 48" enable-background="new 0 0 48 48" xml:space="preserve">
<path d="M43,7H5c-2.206,0-4,1.794-4,4v26c0,2.206,1.794,4,4,4h38c2.206,0,4-1.794,4-4V11C47,8.794,45.206,7,43,7z M45,37
	c0,1.103-0.897,2-2,2H5c-1.103,0-2-0.897-2-2V11c0-1.103,0.897-2,2-2h38c1.103,0,2,0.897,2,2V37z"/>
<rect x="21.759" y="21.243" width="1.794" height="8.773"/>
<path d="M29.315,28.544c-0.558,0-0.842-0.332-0.842-0.986v-4.656h1.832v-1.645h-1.832v-2.742l-1.765,0.948v1.794h-1.51v1.645h1.51
	v4.949c0,0.683,0.188,1.231,0.548,1.645c0.361,0.428,0.842,0.64,1.448,0.654c0.601,0.014,1.135-0.12,1.587-0.399l0.029-0.014v-0.029
	l0.428-1.669l-0.106,0.067C30.161,28.4,29.719,28.544,29.315,28.544z"/>
<rect x="32.071" y="21.243" width="1.809" height="8.773"/>
<path d="M17.55,22.82c0.76,0,1.467,0.337,2.126,0.991l0.039,0.038l1.015-1.227l-0.039-0.029c-0.827-1.005-1.861-1.496-3.102-1.496
	c-1.299,0-2.366,0.399-3.223,1.188C13.457,23.118,13,24.239,13,25.644c0,1.404,0.457,2.516,1.366,3.357
	c0.842,0.789,1.924,1.178,3.223,1.178c1.241,0,2.285-0.495,3.102-1.486l0.039-0.029l-1.015-1.227l-0.039,0.039
	c-0.659,0.654-1.366,0.991-2.126,0.991c-0.794,0-1.448-0.269-1.967-0.803c-0.524-0.524-0.774-1.202-0.774-2.02
	s0.25-1.501,0.774-2.035C16.102,23.09,16.756,22.82,17.55,22.82z"/>
<path d="M31.777,16.981C30.508,16.322,29.185,16,27.781,16c-1.39,0-2.732,0.322-4.002,0.981c-1.27,0.664-2.328,1.573-3.141,2.722
	l-0.082,0.12h2.073l0.014-0.024c0.707-0.721,1.496-1.27,2.395-1.659c0.866-0.375,1.789-0.558,2.742-0.558
	c0.948,0,1.871,0.183,2.756,0.558c0.88,0.39,1.669,0.938,2.376,1.659l0.029,0.024H35l-0.077-0.12
	C34.105,18.554,33.047,17.645,31.777,16.981z"/>
</svg>
