<?xml version="1.0" encoding="utf-8"?>
<!-- Generator: Adobe Illustrator 20.0.0, SVG Export Plug-In . SVG Version: 6.00 Build 0)  -->
<!DOCTYPE svg PUBLIC "-//W3C//DTD SVG 1.1//EN" "http://www.w3.org/Graphics/SVG/1.1/DTD/svg11.dtd">
<svg version="1.1" id="Layer_1" xmlns="http://www.w3.org/2000/svg" xmlns:xlink="http://www.w3.org/1999/xlink" x="0px" y="0px"
	 width="48px" height="48px" viewBox="0 0 48 48" enable-background="new 0 0 48 48" xml:space="preserve">
<path d="M43,7H5c-2.206,0-4,1.794-4,4v26c0,2.206,1.794,4,4,4h38c2.206,0,4-1.794,4-4V11C47,8.794,45.206,7,43,7z M45,37
	c0,1.103-0.897,2-2,2H5c-1.103,0-2-0.897-2-2V11c0-1.103,0.897-2,2-2h38c1.103,0,2,0.897,2,2V37z"/>
<path d="M31.63,26.164c0.664,0,1.235,0,1.914,0c0.487,0,0.812-0.282,0.901-0.674c0.015-0.065,0.023-0.134,0.023-0.206
	c0-0.071-0.008-0.14-0.023-0.205c-0.088-0.386-0.396-0.674-0.933-0.674c-0.686,0-1.195,0-1.882,0V26.164z"/>
<path d="M34.22,22.79c0.013-0.059,0.02-0.121,0.02-0.187c0-0.066-0.007-0.128-0.02-0.187c-0.081-0.368-0.371-0.624-0.901-0.624
	c-0.857,0-0.845,0-1.689,0v1.623c0.608,0,1.103,0,1.657,0C33.757,23.414,34.12,23.245,34.22,22.79z"/>
<path d="M30,17v3.795c0.864,0,3.547,0,4.413,0c0.575,0,1.209-0.008,1.77,0.323c0.467,0.277,0.716,0.71,0.716,1.243
	c0,0.728-0.506,1.373-1.518,1.53v0.039c1.014,0.078,1.783,0.586,1.896,1.4c0.009,0.068,0.014,0.137,0.014,0.209
	c0,1.084-0.979,1.656-2.105,1.666c-0.022,0-5.163,0-5.185,0V34h5c1.657,0,3-1.343,3-3V14h-5C31.343,14,30,15.343,30,17z"/>
<path d="M10,17v8.566c1.036,0.501,2.485,0.932,3.473,0.677c0.766-0.197,1.196-0.799,1.196-1.58v-3.867h2.867v3.867
	c0,1.177-0.567,1.953-1.654,2.364c-1.726,0.656-4.665,0.283-5.882-0.052V34c2.085,0,3.747,0,5.004,0C16.66,34,18,32.657,18,31V14h-5
	C11.343,14,10,15.343,10,17z"/>
<path d="M20,17v4.698c0.906-0.778,2.245-1.015,3.441-1.074c1.175-0.048,2.42,0.046,3.854,0.4v1.411
	c-1.023-0.514-2.186-0.84-3.276-0.731c-1.358,0.137-2.133,0.979-2.133,2.297c0,1.253,0.699,2.129,2.101,2.292
	c1.277,0.128,2.403-0.277,3.308-0.727v1.41c-1.548,0.383-2.997,0.487-4.336,0.369c-1.039-0.098-2.162-0.357-2.959-1.041V34
	c2.117,0,3.766,0,5.002,0C26.659,34,28,32.657,28,31V14h-5C21.343,14,20,15.343,20,17z"/>
</svg>
