<?xml version="1.0" encoding="utf-8"?>
<!-- Generator: Adobe Illustrator 20.0.0, SVG Export Plug-In . SVG Version: 6.00 Build 0)  -->
<!DOCTYPE svg PUBLIC "-//W3C//DTD SVG 1.1//EN" "http://www.w3.org/Graphics/SVG/1.1/DTD/svg11.dtd">
<svg version="1.1" id="Layer_1" xmlns="http://www.w3.org/2000/svg" xmlns:xlink="http://www.w3.org/1999/xlink" x="0px" y="0px"
	 width="48px" height="48px" viewBox="0 0 48 48" enable-background="new 0 0 48 48" xml:space="preserve">
<path d="M43,7H5c-2.206,0-4,1.794-4,4v26c0,2.206,1.794,4,4,4h38c2.206,0,4-1.794,4-4V11C47,8.794,45.206,7,43,7z M45,37
	c0,1.103-0.897,2-2,2H5c-1.103,0-2-0.897-2-2V11c0-1.103,0.897-2,2-2h38c1.103,0,2,0.897,2,2V37z"/>
<path d="M32.333,19.919c-0.398-0.468-1.104-0.715-2.041-0.715h-2.8c-0.191,0-0.354,0.139-0.384,0.328l-1.132,7.18
	c-0.022,0.142,0.087,0.27,0.231,0.27h1.437c0.134,0,0.248-0.098,0.269-0.23l0.321-2.036c0.03-0.189,0.193-0.328,0.384-0.328h0.886
	c1.844,0,2.909-0.893,3.187-2.662C32.816,20.952,32.695,20.344,32.333,19.919z M30.615,21.826c-0.153,1.005-0.921,1.005-1.663,1.005
	H28.53l0.296-1.877c0.018-0.113,0.116-0.197,0.231-0.197c0.615,0,1.155-0.025,1.423,0.288
	C30.627,21.218,30.671,21.473,30.615,21.826z"/>
<path d="M12.361,19.919c-0.398-0.468-1.104-0.715-2.041-0.715h-2.8c-0.191,0-0.354,0.139-0.384,0.328l-1.132,7.18
	c-0.022,0.142,0.087,0.27,0.231,0.27H7.57c0.191,0,0.354-0.139,0.384-0.328l0.306-1.937c0.03-0.189,0.193-0.328,0.384-0.328h0.886
	c1.844,0,2.909-0.893,3.187-2.662C12.843,20.952,12.723,20.344,12.361,19.919z M10.643,21.826c-0.153,1.005-0.921,1.005-1.663,1.005
	H8.557l0.296-1.877c0.018-0.113,0.116-0.197,0.231-0.197h0.194c0.505,0,0.983,0,1.229,0.288
	C10.654,21.218,10.699,21.473,10.643,21.826z"/>
<path d="M18.69,21.794h-1.341c-0.115,0-0.213,0.084-0.231,0.197l-0.059,0.375c-0.13-0.189-0.389-0.698-1.678-0.698
	c-1.481,0-2.747,1.123-2.993,2.697c-0.128,0.786,0.054,1.536,0.499,2.06c0.409,0.481,0.993,0.682,1.689,0.682
	c1.194,0,1.856-0.767,1.856-0.767l-0.06,0.373c-0.022,0.142,0.087,0.27,0.231,0.27h1.208c0.191,0,0.354-0.139,0.384-0.328
	l0.725-4.59C18.943,21.922,18.833,21.794,18.69,21.794z M15.307,25.684c-0.389,0-0.7-0.125-0.9-0.362
	c-0.198-0.235-0.273-0.569-0.21-0.942c0.121-0.759,0.739-1.29,1.503-1.29c0.381,0,0.69,0.126,0.894,0.365
	c0.205,0.241,0.286,0.578,0.227,0.948C16.691,25.17,16.083,25.684,15.307,25.684z"/>
<path d="M38.662,21.794h-1.341c-0.115,0-0.213,0.084-0.231,0.197l-0.059,0.375c-0.13-0.189-0.389-0.698-1.678-0.698
	c-1.481,0-2.747,1.123-2.993,2.697c-0.128,0.786,0.054,1.536,0.499,2.06c0.409,0.481,0.993,0.682,1.689,0.682
	c1.194,0,1.856-0.767,1.856-0.767l-0.06,0.373c-0.022,0.142,0.087,0.27,0.231,0.27h1.208c0.191,0,0.354-0.139,0.384-0.328
	l0.725-4.59C38.915,21.922,38.805,21.794,38.662,21.794z M35.28,25.684c-0.389,0-0.7-0.125-0.9-0.362
	c-0.198-0.235-0.273-0.569-0.21-0.942c0.121-0.759,0.739-1.29,1.503-1.29c0.381,0,0.69,0.126,0.894,0.365
	c0.205,0.241,0.286,0.578,0.227,0.948C36.664,25.17,36.056,25.684,35.28,25.684z"/>
<path d="M25.831,21.794h-1.348c-0.129,0-0.249,0.064-0.322,0.171l-1.859,2.738l-0.788-2.631c-0.049-0.165-0.201-0.278-0.373-0.278
	h-1.325c-0.16,0-0.273,0.157-0.221,0.309l1.484,4.356l-1.396,1.97c-0.11,0.155,0.001,0.368,0.19,0.368h1.346
	c0.128,0,0.247-0.063,0.32-0.167l4.482-6.469C26.13,22.005,26.019,21.794,25.831,21.794z"/>
<path d="M41.767,19.203h-1.294c-0.115,0-0.213,0.084-0.231,0.197l-1.149,7.312c-0.022,0.142,0.087,0.27,0.231,0.27h1.156
	c0.191,0,0.354-0.139,0.384-0.328l1.133-7.18C42.019,19.332,41.91,19.203,41.767,19.203z"/>
</svg>
