<?xml version="1.0" encoding="utf-8"?>
<!-- Generator: Adobe Illustrator 20.0.0, SVG Export Plug-In . SVG Version: 6.00 Build 0)  -->
<!DOCTYPE svg PUBLIC "-//W3C//DTD SVG 1.1//EN" "http://www.w3.org/Graphics/SVG/1.1/DTD/svg11.dtd">
<svg version="1.1" id="Layer_1" xmlns="http://www.w3.org/2000/svg" xmlns:xlink="http://www.w3.org/1999/xlink" x="0px" y="0px"
	 width="48px" height="48px" viewBox="0 0 48 48" enable-background="new 0 0 48 48" xml:space="preserve">
<path d="M43,7H5c-2.206,0-4,1.794-4,4v26c0,2.206,1.794,4,4,4h38c2.206,0,4-1.794,4-4V11C47,8.794,45.206,7,43,7z M45,37
	c0,1.103-0.897,2-2,2H5c-1.103,0-2-0.897-2-2V11c0-1.103,0.897-2,2-2h38c1.103,0,2,0.897,2,2V37z"/>
<polygon points="19.238,28.8 21.847,28.8 23.48,19.224 20.87,19.224 "/>
<path d="M28.743,23.069c-0.912-0.443-1.471-0.739-1.465-1.187c0-0.398,0.473-0.824,1.495-0.824c0.836-0.013,1.51,0.157,2.188,0.477
	l0.354-2.076c-0.517-0.194-1.327-0.402-2.339-0.402c-2.579,0-4.396,1.299-4.411,3.16c-0.015,1.376,1.297,2.144,2.287,2.602
	c1.016,0.469,1.358,0.769,1.353,1.188c-0.006,0.642-0.811,0.935-1.562,0.935c-1.158,0-1.742-0.179-2.793-0.655l-0.366,2.144
	c0.61,0.267,1.737,0.499,2.908,0.511c2.744,0,4.525-1.284,4.545-3.272C30.944,24.581,30.249,23.752,28.743,23.069z"/>
<path d="M35.99,19.233c-0.625,0-1.092,0.171-1.367,0.794l-3.876,8.776h2.741c0,0,0.448-1.18,0.55-1.439
	c0.3,0,2.962,0.004,3.343,0.004c0.078,0.335,0.318,1.435,0.318,1.435h2.422l-2.113-9.57H35.99z M34.789,25.406
	c0.108-0.276,1.174-3.011,1.386-3.591c0.353,1.651,0.009,0.049,0.781,3.591H34.789z"/>
<path d="M17.049,19.231l-2.555,6.53l-0.272-1.327l-0.915-4.401c-0.158-0.606-0.616-0.787-1.183-0.808H7.913L7.88,19.424
	c1.024,0.248,1.939,0.606,2.742,1.05l2.321,8.317l2.762-0.003l4.109-9.558H17.049z"/>
</svg>
