<?xml version="1.0" encoding="utf-8"?>
<!-- Generator: Adobe Illustrator 20.0.0, SVG Export Plug-In . SVG Version: 6.00 Build 0)  -->
<!DOCTYPE svg PUBLIC "-//W3C//DTD SVG 1.1//EN" "http://www.w3.org/Graphics/SVG/1.1/DTD/svg11.dtd">
<svg version="1.1" id="Layer_1" xmlns="http://www.w3.org/2000/svg" xmlns:xlink="http://www.w3.org/1999/xlink" x="0px" y="0px"
	 width="48px" height="48px" viewBox="0 0 48 48" enable-background="new 0 0 48 48" xml:space="preserve">
<path d="M43,7H5c-2.206,0-4,1.794-4,4v26c0,2.206,1.794,4,4,4h38c2.206,0,4-1.794,4-4V11C47,8.794,45.206,7,43,7z M45,37
	c0,1.103-0.897,2-2,2H5c-1.103,0-2-0.897-2-2V11c0-1.103,0.897-2,2-2h38c1.103,0,2,0.897,2,2V37z"/>
<path d="M30.847,20.425c-0.68,0-1.275,0.283-1.833,0.878l-0.123-0.737h-2.059v10.07l2.343-0.387v-2.362
	c0.359,0.113,0.727,0.17,1.058,0.17c0.586,0,1.436-0.151,2.097-0.869c0.633-0.69,0.954-1.757,0.954-3.164
	c0-1.247-0.236-2.192-0.708-2.796C32.16,20.689,31.583,20.425,30.847,20.425z M30.629,25.762c-0.189,0.359-0.482,0.548-0.822,0.548
	c-0.236,0-0.444-0.047-0.633-0.142v-3.495c0.397-0.416,0.756-0.463,0.888-0.463c0.595,0,0.888,0.642,0.888,1.899
	C30.951,24.827,30.847,25.384,30.629,25.762z"/>
<path d="M36.996,20.425c-1.993,0-3.231,1.474-3.231,3.835c0,1.322,0.331,2.314,0.982,2.947c0.586,0.567,1.426,0.85,2.513,0.85
	c1.001,0,1.927-0.236,2.513-0.623l-0.255-1.606c-0.576,0.312-1.247,0.482-2.003,0.482c-0.453,0-0.765-0.094-0.992-0.293
	c-0.246-0.208-0.387-0.548-0.435-1.03h3.882C39.981,24.874,40,24.345,40,24.175c0-1.171-0.255-2.097-0.756-2.749
	C38.734,20.765,37.969,20.425,36.996,20.425z M36.07,23.551c0.066-1.049,0.35-1.54,0.888-1.54c0.529,0,0.803,0.501,0.841,1.54H36.07
	z"/>
<path d="M11.344,23.334c-0.69-0.255-1.067-0.453-1.067-0.765c0-0.265,0.217-0.416,0.605-0.416c0.708,0,1.436,0.274,1.936,0.52
	l0.283-1.748c-0.397-0.189-1.209-0.501-2.333-0.501c-0.793,0-1.455,0.208-1.927,0.595c-0.491,0.406-0.746,0.992-0.746,1.7
	c0,1.285,0.784,1.833,2.059,2.295c0.822,0.293,1.096,0.501,1.096,0.822c0,0.312-0.265,0.491-0.746,0.491
	c-0.595,0-1.578-0.293-2.22-0.671L8,27.424c0.548,0.312,1.568,0.633,2.626,0.633c0.841,0,1.54-0.198,2.012-0.576
	c0.529-0.416,0.803-1.03,0.803-1.823C13.441,24.345,12.638,23.797,11.344,23.334z"/>
<path d="M21.149,21.435l-0.142-0.869h-2.05v7.349H21.3v-4.77c0.293-0.359,0.708-0.489,1.275-0.489c0.123,0,0.255,0,0.416,0.028
	v-2.163c-0.161-0.038-0.302-0.057-0.444-0.057C21.886,20.465,21.357,20.812,21.149,21.435z"/>
<path d="M18.054,22.304l0.283-1.738h-1.496v-2.11l-2.011,0.331l-0.29,1.779l-0.707,0.115l-0.265,1.623h0.969v3.41
	c0,0.888,0.227,1.502,0.69,1.88c0.387,0.312,0.945,0.463,1.729,0.463c0.605,0,0.973-0.104,1.228-0.17v-1.842
	c-0.142,0.038-0.463,0.104-0.68,0.104c-0.463,0-0.661-0.236-0.661-0.775v-3.07H18.054z"/>
<path d="M24.739,17.364c-0.69,0-1.237,0.548-1.237,1.237c0,0.68,0.548,1.237,1.237,1.237c0.68,0,1.228-0.557,1.228-1.237
	C25.967,17.912,25.419,17.364,24.739,17.364z"/>
<rect x="23.558" y="20.566" width="2.352" height="7.349"/>
</svg>
