<?xml version="1.0" encoding="utf-8"?>
<!-- Generator: Adobe Illustrator 20.0.0, SVG Export Plug-In . SVG Version: 6.00 Build 0)  -->
<!DOCTYPE svg PUBLIC "-//W3C//DTD SVG 1.1//EN" "http://www.w3.org/Graphics/SVG/1.1/DTD/svg11.dtd">
<svg version="1.1" id="Layer_1" xmlns="http://www.w3.org/2000/svg" xmlns:xlink="http://www.w3.org/1999/xlink" x="0px" y="0px"
	 width="48px" height="48px" viewBox="0 0 48 48" enable-background="new 0 0 48 48" xml:space="preserve">
<path d="M43,7H5c-2.206,0-4,1.794-4,4v26c0,2.206,1.794,4,4,4h38c2.206,0,4-1.794,4-4V11C47,8.794,45.206,7,43,7z M45,37
	c0,1.103-0.897,2-2,2H5c-1.103,0-2-0.897-2-2V11c0-1.103,0.897-2,2-2h38c1.103,0,2,0.897,2,2V37z"/>
<path d="M21,20.142v7.716c1.721-0.447,3-2,3-3.858S22.721,20.589,21,20.142z"/>
<path d="M28,16h-8c-4.418,0-8,3.582-8,8s3.582,8,8,8h8c4.418,0,8-3.582,8-8S32.418,16,28,16z M20,30c-3.309,0-6-2.691-6-6
	s2.691-6,6-6s6,2.691,6,6S23.309,30,20,30z"/>
<path d="M16,24c0,1.858,1.279,3.411,3,3.858v-7.716C17.279,20.589,16,22.142,16,24z"/>
</svg>
