<?xml version="1.0" encoding="utf-8"?>
<!-- Generator: Adobe Illustrator 20.0.0, SVG Export Plug-In . SVG Version: 6.00 Build 0)  -->
<!DOCTYPE svg PUBLIC "-//W3C//DTD SVG 1.1//EN" "http://www.w3.org/Graphics/SVG/1.1/DTD/svg11.dtd">
<svg version="1.1" id="Layer_1" xmlns="http://www.w3.org/2000/svg" xmlns:xlink="http://www.w3.org/1999/xlink" x="0px" y="0px"
	 width="48px" height="48px" viewBox="0 0 48 48" enable-background="new 0 0 48 48" xml:space="preserve">
<path d="M43,7H5c-2.206,0-4,1.794-4,4v26c0,2.206,1.794,4,4,4h38c2.206,0,4-1.794,4-4V11C47,8.794,45.206,7,43,7z M45,37
	c0,1.103-0.897,2-2,2H5c-1.103,0-2-0.897-2-2V11c0-1.103,0.897-2,2-2h38c1.103,0,2,0.897,2,2V37z"/>
<path d="M17,21c-0.552,0-1,0.448-1,1v4c0,0.552,0.448,1,1,1s1-0.448,1-1v-4C18,21.448,17.552,21,17,21z"/>
<path d="M31,21c-0.552,0-1,0.448-1,1v4c0,0.552,0.448,1,1,1s1-0.448,1-1v-4C32,21.448,31.552,21,31,21z"/>
<path d="M19,29c0,0.552,0.448,1,1,1h1v2c0,0.552,0.448,1,1,1s1-0.448,1-1v-2h2v2c0,0.552,0.448,1,1,1s1-0.448,1-1v-2h1
	c0.552,0,1-0.448,1-1v-8H19V29z"/>
<path d="M27.163,16.157l1.253-1.88c0.153-0.229,0.091-0.54-0.139-0.693c-0.231-0.153-0.542-0.092-0.693,0.139l-1.253,1.879
	C25.632,15.23,24.847,15,24,15s-1.632,0.23-2.331,0.602l-1.253-1.879c-0.153-0.23-0.464-0.292-0.693-0.139
	c-0.23,0.153-0.292,0.464-0.139,0.693l1.253,1.88C19.724,17.074,19,18.445,19,20h10C29,18.445,28.276,17.074,27.163,16.157z"/>
</svg>
