<?xml version="1.0" encoding="utf-8"?>
<!-- Generator: Adobe Illustrator 20.0.0, SVG Export Plug-In . SVG Version: 6.00 Build 0)  -->
<!DOCTYPE svg PUBLIC "-//W3C//DTD SVG 1.1//EN" "http://www.w3.org/Graphics/SVG/1.1/DTD/svg11.dtd">
<svg version="1.1" id="Layer_1" xmlns="http://www.w3.org/2000/svg" xmlns:xlink="http://www.w3.org/1999/xlink" x="0px" y="0px"
	 width="48px" height="48px" viewBox="0 0 48 48" enable-background="new 0 0 48 48" xml:space="preserve">
<path d="M43,7H5c-2.206,0-4,1.794-4,4v26c0,2.206,1.794,4,4,4h38c2.206,0,4-1.794,4-4V11C47,8.794,45.206,7,43,7z M45,37
	c0,1.103-0.897,2-2,2H5c-1.103,0-2-0.897-2-2V11c0-1.103,0.897-2,2-2h38c1.103,0,2,0.897,2,2V37z"/>
<path d="M28.03,26.996c-2.345,0.995-4.893,1.476-7.212,1.476c-3.437,0-6.764-0.943-9.455-2.509c-0.235-0.137-0.41,0.105-0.214,0.281
	c2.494,2.252,5.789,3.605,9.449,3.605c2.611,0,5.644-0.821,7.735-2.365C28.68,27.229,28.384,26.846,28.03,26.996z"/>
<path d="M26.71,26.126c-0.184,0.129-0.152,0.308,0.052,0.283c0.674-0.081,2.175-0.261,2.443,0.082
	c0.268,0.343-0.298,1.754-0.55,2.385c-0.076,0.191,0.088,0.268,0.26,0.123c1.122-0.939,1.412-2.906,1.182-3.19
	C29.869,25.528,27.907,25.285,26.71,26.126z"/>
<path d="M30.806,23.739c-0.64-0.36-1.385-0.465-2.089-0.448l1.897-2.709c0.176-0.243,0.275-0.397,0.276-0.514l0-0.701
	c0-0.121-0.094-0.206-0.211-0.206l-3.662,0c-0.113,0-0.207,0.083-0.207,0.207v0.817c0.001,0.122,0.095,0.206,0.212,0.206l1.914,0
	l-2.198,3.153c-0.134,0.202-0.136,0.429-0.136,0.562v0.829c0,0.12,0.133,0.257,0.261,0.189c1.246-0.662,2.742-0.598,3.87-0.007
	C30.869,25.189,31,25.05,31,24.93v-0.872C30.989,23.94,30.95,23.82,30.806,23.739z"/>
<path d="M12.336,25.289h1.114c0.119,0,0.215-0.092,0.215-0.206l0-3.031c0-0.662-0.031-1.576,0.77-1.576
	c0.79,0,0.686,0.939,0.686,1.576l0.001,3.032c0,0.11,0.088,0.198,0.2,0.205h1.113c0.119,0,0.215-0.092,0.215-0.206v-3.031
	c0-0.325-0.01-0.806,0.104-1.095c0.114-0.289,0.395-0.469,0.666-0.469c0.322,0,0.572,0.108,0.655,0.493
	c0.052,0.229,0.031,0.83,0.031,1.071l0,3.032c0,0.11,0.088,0.198,0.2,0.205h1.113c0.119,0,0.215-0.092,0.215-0.206l0.001-3.609
	c0-0.614,0.073-1.312-0.281-1.793c-0.312-0.433-0.822-0.626-1.29-0.626c-0.655,0-1.269,0.337-1.539,1.059
	c-0.312-0.722-0.749-1.059-1.446-1.059c-0.686,0-1.196,0.337-1.466,1.059h-0.021v-0.747c-0.007-0.104-0.094-0.186-0.203-0.192
	l-1.038,0c-0.119,0-0.215,0.091-0.215,0.206L12.136,25.1C12.145,25.202,12.229,25.282,12.336,25.289z"/>
<path d="M34.043,19.055c-1.612,0-2.507,1.384-2.507,3.165c0,1.769,0.884,3.189,2.507,3.189c1.56,0,2.548-1.384,2.548-3.129
	C36.591,20.475,35.696,19.055,34.043,19.055z M34.043,24.23c-0.874,0-0.863-1.492-0.863-2.19s0.052-1.817,0.874-1.817
	c0.353,0,0.603,0.156,0.728,0.554c0.146,0.457,0.166,1.035,0.166,1.516C34.948,23.026,34.906,24.23,34.043,24.23z"/>
<path d="M40.409,19.055c-0.77,0-1.206,0.373-1.518,1.155h-0.021v-0.875c-0.02-0.089-0.101-0.155-0.198-0.16l-1.034,0
	c-0.112,0-0.205,0.082-0.214,0.187l0.002,5.721c0,0.11,0.088,0.198,0.2,0.205h1.11c0.119,0,0.215-0.092,0.217-0.206v-3.079
	c0-0.385,0.021-0.734,0.177-1.083c0.125-0.277,0.374-0.457,0.645-0.457c0.77,0,0.697,0.915,0.697,1.54v3.105
	c0.012,0.098,0.095,0.174,0.198,0.18h1.117c0.11,0,0.201-0.079,0.214-0.18V21.51c0-0.554,0-1.324-0.291-1.781
	C41.397,19.236,40.908,19.055,40.409,19.055z"/>
<path d="M23.89,21.424c-0.646,0.072-1.491,0.121-2.095,0.386c-0.698,0.302-1.188,0.917-1.188,1.821c0,1.158,0.73,1.737,1.668,1.737
	c0.792,0,1.225-0.187,1.837-0.81c0.202,0.293,0.269,0.435,0.639,0.742c0.083,0.045,0.189,0.04,0.263-0.026l0.003,0.003
	c0.223-0.198,0.627-0.549,0.854-0.74c0.091-0.074,0.075-0.195,0.004-0.296c-0.204-0.281-0.421-0.51-0.421-1.033v-1.736
	c0-0.736,0.052-1.411-0.49-1.918C24.536,19.145,23.827,19,23.285,19c-1.06,0-2.243,0.396-2.492,1.706
	c-0.026,0.139,0.075,0.212,0.166,0.233l1.08,0.117c0.101-0.005,0.174-0.104,0.194-0.205c0.093-0.451,0.471-0.669,0.896-0.669
	c0.229,0,0.49,0.084,0.625,0.289c0.156,0.229,0.135,0.543,0.135,0.808V21.424z M23.89,22.558c0,0.434,0.01,0.796-0.208,1.182
	c-0.177,0.314-0.459,0.507-0.771,0.507c-0.427,0-0.677-0.326-0.677-0.808c0-0.949,0.851-1.122,1.657-1.122V22.558z"/>
<path d="M11.267,24.241c-0.204-0.281-0.421-0.51-0.421-1.033v-1.736c0-0.736,0.052-1.411-0.49-1.918C9.929,19.145,9.221,19,8.679,19
	c-1.06,0-2.244,0.396-2.492,1.706c-0.026,0.139,0.075,0.212,0.166,0.233l1.08,0.117c0.101-0.005,0.174-0.104,0.194-0.205
	c0.093-0.451,0.471-0.669,0.896-0.669c0.229,0,0.49,0.084,0.625,0.289c0.156,0.229,0.135,0.543,0.135,0.808v0.145
	c-0.646,0.072-1.49,0.121-2.095,0.386C6.49,22.112,6,22.727,6,23.631c0,1.158,0.73,1.737,1.668,1.737
	c0.792,0,1.225-0.187,1.837-0.81c0.202,0.293,0.269,0.435,0.639,0.742c0.083,0.045,0.189,0.04,0.263-0.026l0.003,0.003
	c0.222-0.198,0.627-0.549,0.854-0.74C11.354,24.463,11.338,24.342,11.267,24.241z M9.283,22.558c0,0.434,0.01,0.796-0.208,1.182
	c-0.177,0.314-0.459,0.507-0.771,0.507c-0.427,0-0.677-0.326-0.677-0.808c0-0.949,0.851-1.122,1.657-1.122V22.558z"/>
</svg>
