<?xml version="1.0" encoding="utf-8"?>
<!-- Generator: Adobe Illustrator 20.0.0, SVG Export Plug-In . SVG Version: 6.00 Build 0)  -->
<!DOCTYPE svg PUBLIC "-//W3C//DTD SVG 1.1//EN" "http://www.w3.org/Graphics/SVG/1.1/DTD/svg11.dtd">
<svg version="1.1" id="Layer_1" xmlns="http://www.w3.org/2000/svg" xmlns:xlink="http://www.w3.org/1999/xlink" x="0px" y="0px"
	 width="48px" height="48px" viewBox="0 0 48 48" enable-background="new 0 0 48 48" xml:space="preserve">
<path d="M7,24.653V46c0,0.552,0.447,1,1,1h12c0.553,0,1-0.448,1-1v-9h6v9c0,0.552,0.447,1,1,1h12c0.553,0,1-0.448,1-1V24.654
	c2.197-0.78,4-2.915,4-6.654c0-0.155-0.036-0.309-0.105-0.447l-8-16C36.725,1.214,36.379,1,36,1H12
	c-0.379,0-0.725,0.214-0.895,0.553l-8,16C3.036,17.691,3,17.845,3,18C3,21.738,4.803,23.874,7,24.653z M39,45H29v-9
	c0-0.552-0.447-1-1-1h-8c-0.553,0-1,0.448-1,1v9H9V25c2.085,0,3.924-1.068,5-2.687C15.076,23.932,16.915,25,19,25
	s3.924-1.068,5-2.687C25.076,23.932,26.915,25,29,25s3.924-1.068,5-2.687C35.076,23.932,36.915,25,39,25V45z M12.618,3h22.764
	l7.615,15.23C42.922,21.179,41.405,23,39,23c-2.206,0-4-1.794-4-4c0-0.552-0.447-1-1-1s-1,0.448-1,1c0,2.206-1.794,4-4,4
	s-4-1.794-4-4c0-0.552-0.447-1-1-1s-1,0.448-1,1c0,2.206-1.794,4-4,4s-4-1.794-4-4c0-0.552-0.447-1-1-1s-1,0.448-1,1
	c0,2.206-1.794,4-4,4c-2.405,0-3.922-1.821-3.997-4.77L12.618,3z"/>
</svg>
