<?xml version="1.0" encoding="utf-8"?>
<!-- Generator: Adobe Illustrator 20.0.0, SVG Export Plug-In . SVG Version: 6.00 Build 0)  -->
<!DOCTYPE svg PUBLIC "-//W3C//DTD SVG 1.1//EN" "http://www.w3.org/Graphics/SVG/1.1/DTD/svg11.dtd">
<svg version="1.1" id="layer" xmlns="http://www.w3.org/2000/svg" xmlns:xlink="http://www.w3.org/1999/xlink" x="0px" y="0px"
	 width="48px" height="48px" viewBox="0 0 48 48" enable-background="new 0 0 48 48" xml:space="preserve">
<path fill="#1D1D1B" d="M39,35c0,0.553,0.448,1,1,1h5c0,0,0,0,0,0c0,0,0,0,0.001,0c0.118,0,0.236-0.027,0.351-0.071
	c0.019-0.007,0.038-0.012,0.056-0.02c0.012-0.005,0.025-0.007,0.037-0.013c0.044-0.022,0.072-0.06,0.112-0.087
	c0.061-0.042,0.123-0.08,0.173-0.134c0.043-0.047,0.071-0.101,0.104-0.154c0.035-0.055,0.072-0.107,0.096-0.169
	c0.025-0.067,0.031-0.137,0.042-0.208C45.978,35.095,46,35.051,46,35v-5c0-0.553-0.448-1-1-1s-1,0.447-1,1v1.935
	C42.168,30.088,39.686,29,37,29c-3.824,0-7.257,2.129-8.96,5.555c-0.246,0.495-0.044,1.095,0.451,1.341
	c0.493,0.246,1.094,0.044,1.34-0.45C31.193,32.703,33.94,31,37,31c2.441,0,4.673,1.126,6.164,3H40C39.448,34,39,34.447,39,35z"/>
<path fill="#1D1D1B" d="M45.509,40.104c-0.494-0.248-1.095-0.044-1.34,0.45C42.807,43.297,40.06,45,37,45
	c-2.441,0-4.673-1.126-6.164-3H34c0.552,0,1-0.447,1-1s-0.448-1-1-1h-5c-0.009,0-0.017,0.005-0.027,0.005
	c-0.07,0.002-0.136,0.025-0.205,0.041c-0.063,0.015-0.127,0.023-0.184,0.05c-0.009,0.004-0.019,0.003-0.029,0.008
	c-0.044,0.022-0.072,0.059-0.111,0.086c-0.061,0.042-0.123,0.08-0.173,0.135c-0.043,0.047-0.071,0.101-0.104,0.154
	c-0.035,0.056-0.073,0.107-0.096,0.169c-0.025,0.067-0.031,0.137-0.042,0.207C28.022,40.905,28,40.949,28,41v5c0,0.553,0.448,1,1,1
	s1-0.447,1-1v-1.935C31.832,45.912,34.314,47,37,47c3.824,0,7.257-2.129,8.96-5.555C46.206,40.95,46.004,40.351,45.509,40.104z"/>
<path fill="#1D1D1B" d="M46,15h-7.42L30.868,1.504c-0.273-0.479-0.885-0.646-1.364-0.372s-0.646,0.885-0.372,1.364L36.277,15H11.723
	l7.145-12.504c0.274-0.479,0.107-1.09-0.372-1.364c-0.479-0.274-1.09-0.107-1.364,0.372L9.42,15H2c-0.552,0-1,0.447-1,1v8
	c0,0.553,0.448,1,1,1h3v21c0,0.553,0.448,1,1,1h16c0.552,0,1-0.447,1-1s-0.448-1-1-1H7V25h39c0.552,0,1-0.447,1-1v-8
	C47,15.447,46.552,15,46,15z M45,23H3v-6h42V23z"/>
</svg>
