<?xml version="1.0" encoding="utf-8"?>
<!-- Generator: Adobe Illustrator 20.0.0, SVG Export Plug-In . SVG Version: 6.00 Build 0)  -->
<!DOCTYPE svg PUBLIC "-//W3C//DTD SVG 1.1//EN" "http://www.w3.org/Graphics/SVG/1.1/DTD/svg11.dtd">
<svg version="1.1" id="Layer_1" xmlns="http://www.w3.org/2000/svg" xmlns:xlink="http://www.w3.org/1999/xlink" x="0px" y="0px"
	 width="48px" height="48px" viewBox="0 0 48 48" enable-background="new 0 0 48 48" xml:space="preserve">
<path d="M46,31H9v-4h29c0.469,0,0.874-0.326,0.977-0.783l4-18c0.065-0.296-0.007-0.606-0.196-0.842C42.59,7.138,42.304,7,42,7H9V2
	c0-0.552-0.447-1-1-1H2C1.447,1,1,1.448,1,2s0.447,1,1,1h5v29c0,0.552,0.447,1,1,1h38c0.553,0,1-0.448,1-1S46.553,31,46,31z
	 M40.753,9l-3.555,16H9V9H40.753z"/>
<path d="M17,42c0-2.757-2.243-5-5-5s-5,2.243-5,5s2.243,5,5,5S17,44.757,17,42z M9,42c0-1.654,1.346-3,3-3s3,1.346,3,3s-1.346,3-3,3
	S9,43.654,9,42z"/>
<path d="M42,37c-2.757,0-5,2.243-5,5s2.243,5,5,5s5-2.243,5-5S44.757,37,42,37z M42,45c-1.654,0-3-1.346-3-3s1.346-3,3-3
	s3,1.346,3,3S43.654,45,42,45z"/>
</svg>
