<?xml version="1.0" encoding="utf-8"?>
<!-- Generator: Adobe Illustrator 20.0.0, SVG Export Plug-In . SVG Version: 6.00 Build 0)  -->
<!DOCTYPE svg PUBLIC "-//W3C//DTD SVG 1.1//EN" "http://www.w3.org/Graphics/SVG/1.1/DTD/svg11.dtd">
<svg version="1.1" id="Layer_1" xmlns="http://www.w3.org/2000/svg" xmlns:xlink="http://www.w3.org/1999/xlink" x="0px" y="0px"
	 width="48px" height="48px" viewBox="0 0 48 48" enable-background="new 0 0 48 48" xml:space="preserve">
<path d="M42.949,13.684C42.812,13.275,42.431,13,42,13H31V7c0-0.553-0.448-1-1-1H2C1.448,6,1,6.447,1,7v28c0,0.553,0.448,1,1,1
	h4.025c0.257,3.351,3.059,6,6.475,6s6.218-2.649,6.475-6H30c0,3.309,2.691,6,6,6s6-2.691,6-6h4c0.552,0,1-0.447,1-1v-9
	c0-0.107-0.017-0.214-0.051-0.316L42.949,13.684z M12.5,40C10.019,40,8,37.981,8,35.5s2.019-4.5,4.5-4.5s4.5,2.019,4.5,4.5
	S14.981,40,12.5,40z M36,40c-2.206,0-4-1.794-4-4s1.794-4,4-4s4,1.794,4,4S38.206,40,36,40z M45,34h-3.35
	c-0.826-2.327-3.043-4-5.65-4s-4.824,1.673-5.65,4H18.818c-0.68-2.862-3.251-5-6.318-5s-5.638,2.138-6.318,5H3V8h26v19
	c0,0.553,0.448,1,1,1s1-0.447,1-1V15h10.279L45,26.162V34z"/>
</svg>
