<?xml version="1.0" encoding="utf-8"?>
<!-- Generator: Adobe Illustrator 20.0.0, SVG Export Plug-In . SVG Version: 6.00 Build 0)  -->
<!DOCTYPE svg PUBLIC "-//W3C//DTD SVG 1.1//EN" "http://www.w3.org/Graphics/SVG/1.1/DTD/svg11.dtd">
<svg version="1.1" id="Layer_1" xmlns="http://www.w3.org/2000/svg" xmlns:xlink="http://www.w3.org/1999/xlink" x="0px" y="0px"
	 width="48px" height="48px" viewBox="0 0 48 48" enable-background="new 0 0 48 48" xml:space="preserve">
<path d="M34,19c-0.553,0-1,0.448-1,1c0,4.962-4.037,9-9,9s-9-4.038-9-9c0-0.552-0.447-1-1-1s-1,0.448-1,1c0,6.065,4.935,11,11,11
	s11-4.935,11-11C35,19.448,34.553,19,34,19z"/>
<path d="M3,6v40c0,0.552,0.447,1,1,1h40c0.553,0,1-0.448,1-1V6c0-2.757-2.243-5-5-5H8C5.243,1,3,3.243,3,6z M5,45V9.974
	C5.838,10.609,6.87,11,8,11h32c1.13,0,2.162-0.391,3-1.026V45H5z M8,3h32c1.654,0,3,1.346,3,3s-1.346,3-3,3H8C6.346,9,5,7.654,5,6
	S6.346,3,8,3z"/>
</svg>
