<?xml version="1.0" encoding="utf-8"?>
<!-- Generator: Adobe Illustrator 20.0.0, SVG Export Plug-In . SVG Version: 6.00 Build 0)  -->
<!DOCTYPE svg PUBLIC "-//W3C//DTD SVG 1.1//EN" "http://www.w3.org/Graphics/SVG/1.1/DTD/svg11.dtd">
<svg version="1.1" id="Layer_1" xmlns="http://www.w3.org/2000/svg" xmlns:xlink="http://www.w3.org/1999/xlink" x="0px" y="0px"
	 width="48px" height="48px" viewBox="0 0 48 48" enable-background="new 0 0 48 48" xml:space="preserve">
<path d="M46,31H9V9h11c0.553,0,1-0.448,1-1s-0.447-1-1-1H9V2c0-0.552-0.447-1-1-1H2C1.447,1,1,1.448,1,2s0.447,1,1,1h5v29
	c0,0.553,0.447,1,1,1h38c0.553,0,1-0.447,1-1S46.553,31,46,31z"/>
<path d="M17,42c0-2.757-2.243-5-5-5s-5,2.243-5,5s2.243,5,5,5S17,44.757,17,42z M9,42c0-1.654,1.346-3,3-3s3,1.346,3,3s-1.346,3-3,3
	S9,43.654,9,42z"/>
<path d="M42,37c-2.757,0-5,2.243-5,5s2.243,5,5,5s5-2.243,5-5S44.757,37,42,37z M42,45c-1.654,0-3-1.346-3-3s1.346-3,3-3
	s3,1.346,3,3S43.654,45,42,45z"/>
<path d="M36,1c-6.065,0-11,4.935-11,11s4.935,11,11,11s11-4.935,11-11S42.065,1,36,1z M36,21c-4.963,0-9-4.038-9-9s4.037-9,9-9
	s9,4.038,9,9S40.963,21,36,21z"/>
<path d="M40,11h-8c-0.553,0-1,0.448-1,1s0.447,1,1,1h8c0.553,0,1-0.448,1-1S40.553,11,40,11z"/>
</svg>
