<?xml version="1.0" encoding="utf-8"?>
<!-- Generator: Adobe Illustrator 20.0.0, SVG Export Plug-In . SVG Version: 6.00 Build 0)  -->
<!DOCTYPE svg PUBLIC "-//W3C//DTD SVG 1.1//EN" "http://www.w3.org/Graphics/SVG/1.1/DTD/svg11.dtd">
<svg version="1.1" id="layer" xmlns="http://www.w3.org/2000/svg" xmlns:xlink="http://www.w3.org/1999/xlink" x="0px" y="0px"
	 width="48px" height="48px" viewBox="0 0 48 48" enable-background="new 0 0 48 48" xml:space="preserve">
<path fill="#1D1D1B" d="M1,31c0,0.552,0.448,1,1,1h39c0.48,0,0.893-0.341,0.982-0.813l4-21c0.056-0.292-0.022-0.595-0.212-0.825
	C45.581,9.133,45.298,9,45,9H11.867L10.99,2.858C10.919,2.366,10.498,2,10,2H4C3.448,2,3,2.448,3,3s0.448,1,1,1h5.133l0.877,6.142
	C10.081,10.634,10.502,11,11,11h32.792l-3.619,19H2C1.448,30,1,30.448,1,31z"/>
<path fill="#1D1D1B" d="M10,41c0,2.757,2.243,5,5,5s5-2.243,5-5s-2.243-5-5-5S10,38.243,10,41z M18,41c0,1.654-1.346,3-3,3
	s-3-1.346-3-3s1.346-3,3-3S18,39.346,18,41z"/>
<path fill="#1D1D1B" d="M34,41c0,2.757,2.243,5,5,5s5-2.243,5-5s-2.243-5-5-5S34,38.243,34,41z M42,41c0,1.654-1.346,3-3,3
	s-3-1.346-3-3s1.346-3,3-3S42,39.346,42,41z"/>
<path fill="#1D1D1B" d="M23,18c0.552,0,1-0.448,1-1s-0.448-1-1-1H10c-0.552,0-1,0.448-1,1s0.448,1,1,1H23z"/>
<path fill="#1D1D1B" d="M5,24c0,0.552,0.448,1,1,1h13c0.552,0,1-0.448,1-1s-0.448-1-1-1H6C5.448,23,5,23.448,5,24z"/>
</svg>
