<?xml version="1.0" encoding="utf-8"?>
<!-- Generator: Adobe Illustrator 20.0.0, SVG Export Plug-In . SVG Version: 6.00 Build 0)  -->
<!DOCTYPE svg PUBLIC "-//W3C//DTD SVG 1.1//EN" "http://www.w3.org/Graphics/SVG/1.1/DTD/svg11.dtd">
<svg version="1.1" id="Layer_1" xmlns="http://www.w3.org/2000/svg" xmlns:xlink="http://www.w3.org/1999/xlink" x="0px" y="0px"
	 width="48px" height="48px" viewBox="0 0 48 48" enable-background="new 0 0 48 48" xml:space="preserve">
<path d="M43,7H5c-2.206,0-4,1.794-4,4v26c0,2.206,1.794,4,4,4h38c2.206,0,4-1.794,4-4V11C47,8.794,45.206,7,43,7z M3,17h42v6H3V17z
	 M5,9h38c1.103,0,2,0.897,2,2v4H3v-4C3,9.897,3.897,9,5,9z M43,39H5c-1.103,0-2-0.897-2-2V25h42v12C45,38.103,44.103,39,43,39z"/>
<path d="M20,31H10c-0.552,0-1,0.448-1,1s0.448,1,1,1h10c0.552,0,1-0.448,1-1S20.552,31,20,31z"/>
<path d="M38,31h-3c-0.552,0-1,0.448-1,1s0.448,1,1,1h3c0.552,0,1-0.448,1-1S38.552,31,38,31z"/>
</svg>
