<?xml version="1.0" encoding="utf-8"?>
<!-- Generator: Adobe Illustrator 20.0.0, SVG Export Plug-In . SVG Version: 6.00 Build 0)  -->
<!DOCTYPE svg PUBLIC "-//W3C//DTD SVG 1.1//EN" "http://www.w3.org/Graphics/SVG/1.1/DTD/svg11.dtd">
<svg version="1.1" id="Layer_1" xmlns="http://www.w3.org/2000/svg" xmlns:xlink="http://www.w3.org/1999/xlink" x="0px" y="0px"
	 width="48px" height="48px" viewBox="0 0 48 48" enable-background="new 0 0 48 48" xml:space="preserve">
<path d="M20,45c5.263,0,10.205-2.435,13.418-6.561l5.786,3.978c0.173,0.119,0.37,0.176,0.565,0.176c0.318,0,0.63-0.151,0.825-0.433
	C43.477,37.977,45,33.08,45,28C45,14.215,33.785,3,20,3c-0.552,0-1,0.447-1,1v7.051C10.092,11.573,3,18.964,3,28
	C3,37.374,10.626,45,20,45z M21,5.021C33.22,5.547,43,15.653,43,28c0,4.339-1.208,8.532-3.503,12.19l-5.629-3.87
	c-0.035-0.033-0.059-0.074-0.099-0.103c-0.041-0.028-0.088-0.035-0.131-0.056L21,27.474V5.021z M19,13.051V28
	c0,0.329,0.162,0.638,0.434,0.824l12.331,8.478C28.928,40.887,24.604,43,20,43c-8.271,0-15-6.729-15-15
	C5,20.066,11.195,13.569,19,13.051z"/>
</svg>
