<?xml version="1.0" encoding="utf-8"?>
<!-- Generator: Adobe Illustrator 20.0.0, SVG Export Plug-In . SVG Version: 6.00 Build 0)  -->
<!DOCTYPE svg PUBLIC "-//W3C//DTD SVG 1.1//EN" "http://www.w3.org/Graphics/SVG/1.1/DTD/svg11.dtd">
<svg version="1.1" id="Layer_1" xmlns="http://www.w3.org/2000/svg" xmlns:xlink="http://www.w3.org/1999/xlink" x="0px" y="0px"
	 width="48px" height="48px" viewBox="0 0 48 48" enable-background="new 0 0 48 48" xml:space="preserve">
<path d="M24,1c-4.963,0-9,4.038-9,9v1H7c-0.553,0-1,0.448-1,1v34c0,0.552,0.447,1,1,1h34c0.553,0,1-0.448,1-1V12
	c0-0.552-0.447-1-1-1h-8v-1C33,5.038,28.963,1,24,1z M17,10c0-3.86,3.141-7,7-7s7,3.14,7,7v1H17V10z M40,13v32H8V13h7v5
	c0,0.552,0.447,1,1,1s1-0.448,1-1v-5h14v5c0,0.552,0.447,1,1,1s1-0.448,1-1v-5H40z"/>
</svg>
