<?xml version="1.0" encoding="utf-8"?>
<!-- Generator: Adobe Illustrator 20.0.0, SVG Export Plug-In . SVG Version: 6.00 Build 0)  -->
<!DOCTYPE svg PUBLIC "-//W3C//DTD SVG 1.1//EN" "http://www.w3.org/Graphics/SVG/1.1/DTD/svg11.dtd">
<svg version="1.1" id="Layer_1" xmlns="http://www.w3.org/2000/svg" xmlns:xlink="http://www.w3.org/1999/xlink" x="0px" y="0px"
	 width="48px" height="48px" viewBox="0 0 48 48" enable-background="new 0 0 48 48" xml:space="preserve">
<path d="M32,29H16c-0.552,0-1,0.447-1,1s0.448,1,1,1h16c0.552,0,1-0.447,1-1S32.552,29,32,29z"/>
<path d="M46,37h-3v-9c0-0.217-0.07-0.427-0.2-0.6L37,19.667V14c0-0.553-0.448-1-1-1h-5V9h5c0.552,0,1-0.447,1-1V2
	c0-0.553-0.448-1-1-1H24c-0.552,0-1,0.447-1,1v6c0,0.553,0.448,1,1,1h5v4H12c-0.265,0-0.52,0.105-0.707,0.293S11,13.734,11,14
	l0,5.667L5.2,27.4C5.07,27.573,5,27.783,5,28v9H2c-0.552,0-1,0.447-1,1v8c0,0.553,0.448,1,1,1h44c0.552,0,1-0.447,1-1v-8
	C47,37.447,46.552,37,46,37z M25,3h10v4H25V3z M7,28.333l5.8-7.733c0.13-0.173,0.2-0.383,0.2-0.6l0-5h22v5
	c0,0.217,0.07,0.427,0.2,0.6l5.8,7.733V37H7V28.333z M45,45H3v-6h42V45z"/>
</svg>
