<?xml version="1.0" encoding="utf-8"?>
<!-- Generator: Adobe Illustrator 20.0.0, SVG Export Plug-In . SVG Version: 6.00 Build 0)  -->
<!DOCTYPE svg PUBLIC "-//W3C//DTD SVG 1.1//EN" "http://www.w3.org/Graphics/SVG/1.1/DTD/svg11.dtd">
<svg version="1.1" id="Layer_1" xmlns="http://www.w3.org/2000/svg" xmlns:xlink="http://www.w3.org/1999/xlink" x="0px" y="0px"
	 width="48px" height="48px" viewBox="0 0 48 48" enable-background="new 0 0 48 48" xml:space="preserve">
<path d="M46.316,21.052l-5.525-1.843L36.948,7.684C36.812,7.275,36.431,7,36,7H18c-0.553,0-1,0.447-1,1v26c0,0.553,0.447,1,1,1h7.08
	c0.488,3.386,3.401,6,6.92,6s6.432-2.614,6.92-6H46c0.553,0,1-0.447,1-1V22C47,21.569,46.725,21.188,46.316,21.052z M32,39
	c-2.757,0-5-2.243-5-5s2.243-5,5-5s5,2.243,5,5S34.757,39,32,39z M45,33h-6.08c-0.488-3.386-3.401-6-6.92-6s-6.432,2.614-6.92,6H19
	V9h16.279l3.772,11.316c0.099,0.299,0.333,0.533,0.632,0.632L45,22.721V33z"/>
<path d="M32,19h-5v-5c0-0.553-0.447-1-1-1s-1,0.447-1,1v6c0,0.553,0.447,1,1,1h6c0.553,0,1-0.447,1-1S32.553,19,32,19z"/>
<path d="M12,7H2C1.447,7,1,7.447,1,8s0.447,1,1,1h10c0.553,0,1-0.447,1-1S12.553,7,12,7z"/>
<path d="M12,15H6c-0.553,0-1,0.447-1,1s0.447,1,1,1h6c0.553,0,1-0.447,1-1S12.553,15,12,15z"/>
<path d="M12,23h-2c-0.553,0-1,0.447-1,1s0.447,1,1,1h2c0.553,0,1-0.447,1-1S12.553,23,12,23z"/>
</svg>
