<?xml version="1.0" encoding="utf-8"?>
<!-- Generator: Adobe Illustrator 20.0.0, SVG Export Plug-In . SVG Version: 6.00 Build 0)  -->
<!DOCTYPE svg PUBLIC "-//W3C//DTD SVG 1.1//EN" "http://www.w3.org/Graphics/SVG/1.1/DTD/svg11.dtd">
<svg version="1.1" id="Layer_1" xmlns="http://www.w3.org/2000/svg" xmlns:xlink="http://www.w3.org/1999/xlink" x="0px" y="0px"
	 width="48px" height="48px" viewBox="0 0 48 48" enable-background="new 0 0 48 48" xml:space="preserve">
<path d="M46,32H5.517l2.142-5H36c0.431,0,0.812-0.275,0.948-0.684l6-18c0.103-0.305,0.051-0.64-0.137-0.901
	C42.623,7.154,42.321,7,42,7H7.469l-4.7-5.64C2.415,0.936,1.785,0.878,1.359,1.232C0.936,1.585,0.878,2.216,1.231,2.64L6,8.362
	v17.433l-2.919,6.812c-0.133,0.309-0.101,0.663,0.084,0.944C3.351,33.831,3.664,34,4,34h42c0.553,0,1-0.447,1-1S46.553,32,46,32z
	 M35.279,25H8V9h32.612L35.279,25z"/>
<path d="M13,42c0-2.757-2.243-5-5-5s-5,2.243-5,5s2.243,5,5,5S13,44.757,13,42z M5,42c0-1.654,1.346-3,3-3s3,1.346,3,3s-1.346,3-3,3
	S5,43.654,5,42z"/>
<path d="M45,42c0-2.757-2.243-5-5-5s-5,2.243-5,5s2.243,5,5,5S45,44.757,45,42z M37,42c0-1.654,1.346-3,3-3s3,1.346,3,3
	s-1.346,3-3,3S37,43.654,37,42z"/>
</svg>
