<?xml version="1.0" encoding="utf-8"?>
<!-- Generator: Adobe Illustrator 20.0.0, SVG Export Plug-In . SVG Version: 6.00 Build 0)  -->
<!DOCTYPE svg PUBLIC "-//W3C//DTD SVG 1.1//EN" "http://www.w3.org/Graphics/SVG/1.1/DTD/svg11.dtd">
<svg version="1.1" id="Layer_1" xmlns="http://www.w3.org/2000/svg" xmlns:xlink="http://www.w3.org/1999/xlink" x="0px" y="0px"
	 width="48px" height="48px" viewBox="0 0 48 48" enable-background="new 0 0 48 48" xml:space="preserve">
<path d="M40.91,4.586c-0.144-0.316-0.441-0.535-0.786-0.578L24.133,2.009c-0.029-0.004-0.059,0.001-0.089,0
	C24.028,2.008,24.016,2,24,2s-0.028,0.008-0.044,0.009c-0.03,0.001-0.06-0.004-0.089,0L7.876,4.008
	C7.531,4.051,7.233,4.27,7.09,4.586l-5,11c-0.141,0.31-0.114,0.67,0.069,0.955C2.344,16.827,2.66,17,3,17h3v23
	c0,0.443,0.292,0.834,0.718,0.959l17,5C23.81,45.986,23.905,46,24,46s0.19-0.014,0.282-0.041l17-5C41.708,40.834,42,40.443,42,40V17
	h3c0.34,0,0.656-0.173,0.841-0.459c0.184-0.285,0.21-0.646,0.069-0.955L40.91,4.586z M8.679,5.923L22.59,4.185L19.262,15H4.553
	L8.679,5.923z M8,17h12c0.439,0,0.827-0.286,0.956-0.706L23,9.651v34.013L8,39.252V17z M40,39.252l-15,4.412V9.651l2.044,6.643
	C27.173,16.714,27.561,17,28,17h12V39.252z M28.738,15L25.41,4.185l13.911,1.738L43.447,15H28.738z"/>
</svg>
