<?xml version="1.0" encoding="utf-8"?>
<!-- Generator: Adobe Illustrator 20.0.0, SVG Export Plug-In . SVG Version: 6.00 Build 0)  -->
<!DOCTYPE svg PUBLIC "-//W3C//DTD SVG 1.1//EN" "http://www.w3.org/Graphics/SVG/1.1/DTD/svg11.dtd">
<svg version="1.1" id="layer" xmlns="http://www.w3.org/2000/svg" xmlns:xlink="http://www.w3.org/1999/xlink" x="0px" y="0px"
	 width="48px" height="48px" viewBox="0 0 48 48" enable-background="new 0 0 48 48" xml:space="preserve">
<path fill="#1D1D1B" d="M41.599,40.184C42.474,39.015,43,37.57,43,36c0-3.859-3.14-7-7-7s-7,3.141-7,7s3.14,7,7,7
	c1.57,0,3.016-0.526,4.185-1.402l5.108,5.109C45.488,46.902,45.744,47,46,47s0.512-0.098,0.707-0.293
	c0.391-0.391,0.391-1.023,0-1.414L41.599,40.184z M31,36c0-2.757,2.243-5,5-5s5,2.243,5,5s-2.243,5-5,5S31,38.757,31,36z"/>
<path fill="#1D1D1B" d="M46,15h-7.42L30.868,1.504c-0.274-0.479-0.885-0.646-1.364-0.372s-0.646,0.885-0.372,1.364L36.277,15H11.723
	l7.145-12.504c0.274-0.479,0.107-1.09-0.372-1.364c-0.479-0.274-1.09-0.107-1.364,0.372L9.42,15H2c-0.552,0-1,0.447-1,1v8
	c0,0.553,0.448,1,1,1h3v21c0,0.553,0.448,1,1,1h20c0.552,0,1-0.447,1-1s-0.448-1-1-1H7V25h39c0.552,0,1-0.447,1-1v-8
	C47,15.447,46.552,15,46,15z M45,23H3v-6h42V23z"/>
</svg>
