<?xml version="1.0" encoding="utf-8"?>
<!-- Generator: Adobe Illustrator 20.0.0, SVG Export Plug-In . SVG Version: 6.00 Build 0)  -->
<!DOCTYPE svg PUBLIC "-//W3C//DTD SVG 1.1//EN" "http://www.w3.org/Graphics/SVG/1.1/DTD/svg11.dtd">
<svg version="1.1" id="layer" xmlns="http://www.w3.org/2000/svg" xmlns:xlink="http://www.w3.org/1999/xlink" x="0px" y="0px"
	 width="48px" height="48px" viewBox="0 0 48 48" enable-background="new 0 0 48 48" xml:space="preserve">
<path fill="#1D1D1B" d="M20,16c-2.206,0-4,1.794-4,4s1.794,4,4,4s4-1.794,4-4S22.206,16,20,16z M20,22c-1.103,0-2-0.897-2-2
	s0.897-2,2-2s2,0.897,2,2S21.103,22,20,22z"/>
<path fill="#1D1D1B" d="M35,25.051V17c0-0.266-0.105-0.52-0.293-0.707l-14-14c-0.391-0.391-1.023-0.391-1.414,0l-14,14
	C5.105,16.48,5,16.734,5,17v28c0,0.553,0.448,1,1,1h13c0.552,0,1-0.447,1-1s-0.448-1-1-1H7V17.414l13-13l13,13v7.637
	C27.402,25.558,23,30.272,23,36c0,6.065,4.935,11,11,11s11-4.935,11-11C45,30.272,40.598,25.558,35,25.051z M34,45
	c-4.962,0-9-4.037-9-9s4.038-9,9-9s9,4.037,9,9S38.962,45,34,45z"/>
<path fill="#1D1D1B" d="M38,35h-3v-3c0-0.553-0.448-1-1-1s-1,0.447-1,1v3h-3c-0.552,0-1,0.447-1,1s0.448,1,1,1h3v3
	c0,0.553,0.448,1,1,1s1-0.447,1-1v-3h3c0.552,0,1-0.447,1-1S38.552,35,38,35z"/>
</svg>
