<?xml version="1.0" encoding="utf-8"?>
<!-- Generator: Adobe Illustrator 20.0.0, SVG Export Plug-In . SVG Version: 6.00 Build 0)  -->
<!DOCTYPE svg PUBLIC "-//W3C//DTD SVG 1.1//EN" "http://www.w3.org/Graphics/SVG/1.1/DTD/svg11.dtd">
<svg version="1.1" id="Layer_1" xmlns="http://www.w3.org/2000/svg" xmlns:xlink="http://www.w3.org/1999/xlink" x="0px" y="0px"
	 width="48px" height="48px" viewBox="0 0 48 48" enable-background="new 0 0 48 48" xml:space="preserve">
<path d="M2,21c0.553,0,1-0.448,1-1V2c0-0.552-0.447-1-1-1S1,1.448,1,2v18C1,20.552,1.447,21,2,21z"/>
<path d="M46,1c-0.553,0-1,0.448-1,1v18c0,0.552,0.447,1,1,1s1-0.448,1-1V2C47,1.448,46.553,1,46,1z"/>
<path d="M23,2v18c0,0.552,0.447,1,1,1s1-0.448,1-1V2c0-0.552-0.447-1-1-1S23,1.448,23,2z"/>
<path d="M29,2v18c0,0.552,0.447,1,1,1s1-0.448,1-1V2c0-0.552-0.447-1-1-1S29,1.448,29,2z"/>
<path d="M7,2v18c0,0.552,0.447,1,1,1s1-0.448,1-1V2c0-0.552-0.447-1-1-1S7,1.448,7,2z"/>
<path d="M36,1c-0.553,0-1,0.448-1,1v18c0,0.552,0.447,1,1,1h4c0.553,0,1-0.448,1-1V2c0-0.552-0.447-1-1-1H36z M39,19h-2V3h2V19z"/>
<path d="M14,1c-0.553,0-1,0.448-1,1v18c0,0.552,0.447,1,1,1h4c0.553,0,1-0.448,1-1V2c0-0.552-0.447-1-1-1H14z M17,19h-2V3h2V19z"/>
<path d="M46,25H2c-0.553,0-1,0.448-1,1v20c0,0.552,0.447,1,1,1s1-0.448,1-1V27h4v9c0,0.552,0.447,1,1,1s1-0.448,1-1v-9h4v9
	c0,0.552,0.447,1,1,1h4c0.553,0,1-0.448,1-1v-9h4v9c0,0.552,0.447,1,1,1s1-0.448,1-1v-9h4v9c0,0.552,0.447,1,1,1s1-0.448,1-1v-9h4v9
	c0,0.552,0.447,1,1,1h4c0.553,0,1-0.448,1-1v-9h4v19c0,0.552,0.447,1,1,1s1-0.448,1-1V26C47,25.448,46.553,25,46,25z M17,35h-2v-8h2
	V35z M39,35h-2v-8h2V35z"/>
</svg>
