<?xml version="1.0" encoding="utf-8"?>
<!-- Generator: Adobe Illustrator 20.0.0, SVG Export Plug-In . SVG Version: 6.00 Build 0)  -->
<!DOCTYPE svg PUBLIC "-//W3C//DTD SVG 1.1//EN" "http://www.w3.org/Graphics/SVG/1.1/DTD/svg11.dtd">
<svg version="1.1" id="Layer_1" xmlns="http://www.w3.org/2000/svg" xmlns:xlink="http://www.w3.org/1999/xlink" x="0px" y="0px"
	 width="48px" height="48px" viewBox="0 0 48 48" enable-background="new 0 0 48 48" xml:space="preserve">
<path d="M46,3H32H16H2C1.447,3,1,3.447,1,4v10c0,0.553,0.447,1,1,1h3v29c0,0.553,0.447,1,1,1h36c0.553,0,1-0.447,1-1V15h3
	c0.553,0,1-0.447,1-1V4C47,3.447,46.553,3,46,3z M31,5v8h-1H18h-1V5H31z M19,15h10v15.612l-4.684-1.561
	C24.214,29.018,24.106,29,24,29s-0.214,0.018-0.316,0.052L19,30.612V15z M3,5h12v8H3V5z M41,43H7V15h9h1v17
	c0,0.321,0.154,0.623,0.415,0.812c0.262,0.188,0.596,0.24,0.901,0.137L24,31.054l5.684,1.895C29.787,32.983,29.894,33,30,33
	c0.207,0,0.412-0.064,0.585-0.188C30.846,32.623,31,32.321,31,32V15h1h9V43z M45,13H33V5h12V13z"/>
</svg>
