<?xml version="1.0" encoding="utf-8"?>
<!-- Generator: Adobe Illustrator 20.0.0, SVG Export Plug-In . SVG Version: 6.00 Build 0)  -->
<!DOCTYPE svg PUBLIC "-//W3C//DTD SVG 1.1//EN" "http://www.w3.org/Graphics/SVG/1.1/DTD/svg11.dtd">
<svg version="1.1" id="Layer_1" xmlns="http://www.w3.org/2000/svg" xmlns:xlink="http://www.w3.org/1999/xlink" x="0px" y="0px"
	 width="48px" height="48px" viewBox="0 0 48 48" enable-background="new 0 0 48 48" xml:space="preserve">
<path d="M34,36c-0.552,0-1,0.447-1,1v6c0,1.103-0.897,2-2,2H7c-1.103,0-2-0.897-2-2v-8h13c0.552,0,1-0.447,1-1s-0.448-1-1-1H5V10
	h28.018l-0.016,8h-7.283l-0.744-3.225C24.87,14.321,24.466,14,24,14h-4c-0.552,0-1,0.447-1,1s0.448,1,1,1h3.205l0.698,3.025
	c0.003,0.14,0.035,0.271,0.09,0.391l2.033,8.809C26.13,28.679,26.534,29,27,29h14c0.469,0,0.875-0.325,0.976-0.783l2-9
	c0.066-0.296-0.006-0.605-0.196-0.843C43.59,18.138,43.303,18,43,18h-7.998l0.025-12.992c0.002-1.069-0.413-2.076-1.168-2.833
	C33.103,1.417,32.097,1,31.027,1H7C4.794,1,3,2.794,3,5v38c0,2.206,1.794,4,4,4h24c2.206,0,4-1.794,4-4v-6
	C35,36.447,34.552,36,34,36z M40.198,27H27.795l-1.615-7h7.818c0,0,0.001,0,0.002,0h7.753L40.198,27z M7,3h24.027
	c0.535,0,1.038,0.209,1.416,0.587c0.377,0.379,0.585,0.882,0.584,1.417L33.021,8H5V5C5,3.897,5.897,3,7,3z"/>
<path d="M24,35c0,1.654,1.346,3,3,3s3-1.346,3-3s-1.346-3-3-3S24,33.346,24,35z M28,35c0,0.552-0.449,1-1,1s-1-0.448-1-1
	s0.449-1,1-1S28,34.448,28,35z"/>
<path d="M41,32c-1.654,0-3,1.346-3,3s1.346,3,3,3s3-1.346,3-3S42.654,32,41,32z M41,36c-0.551,0-1-0.448-1-1s0.449-1,1-1
	s1,0.448,1,1S41.551,36,41,36z"/>
</svg>
