<?xml version="1.0" encoding="utf-8"?>
<!-- Generator: Adobe Illustrator 20.0.0, SVG Export Plug-In . SVG Version: 6.00 Build 0)  -->
<!DOCTYPE svg PUBLIC "-//W3C//DTD SVG 1.1//EN" "http://www.w3.org/Graphics/SVG/1.1/DTD/svg11.dtd">
<svg version="1.1" id="Layer_1" xmlns="http://www.w3.org/2000/svg" xmlns:xlink="http://www.w3.org/1999/xlink" x="0px" y="0px"
	 width="48px" height="48px" viewBox="0 0 48 48" enable-background="new 0 0 48 48" xml:space="preserve">
<path d="M6.555,44.832L12,41.202l5.446,3.63c0.336,0.225,0.773,0.225,1.109,0L24,41.202l5.446,3.63c0.336,0.225,0.773,0.225,1.109,0
	L36,41.202l5.446,3.63C41.613,44.943,41.806,45,42,45c0.162,0,0.324-0.039,0.472-0.118C42.797,44.708,43,44.369,43,44V2
	c0-0.553-0.448-1-1-1H6C5.448,1,5,1.447,5,2v42c0,0.369,0.203,0.708,0.528,0.882C5.852,45.056,6.247,45.036,6.555,44.832z M7,3h34
	v39.132l-4.446-2.964c-0.336-0.225-0.773-0.225-1.109,0l-5.444,3.63l-5.446-3.63c-0.336-0.225-0.773-0.225-1.109,0L18,42.798
	l-5.446-3.63C12.387,39.056,12.193,39,12,39s-0.387,0.056-0.555,0.168L7,42.132V3z"/>
<path d="M14,15h10c0.552,0,1-0.447,1-1s-0.448-1-1-1H14c-0.552,0-1,0.447-1,1S13.448,15,14,15z"/>
<path d="M32,15h2c0.552,0,1-0.447,1-1s-0.448-1-1-1h-2c-0.552,0-1,0.447-1,1S31.448,15,32,15z"/>
<path d="M14,23h10c0.552,0,1-0.447,1-1s-0.448-1-1-1H14c-0.552,0-1,0.447-1,1S13.448,23,14,23z"/>
<path d="M32,23h2c0.552,0,1-0.447,1-1s-0.448-1-1-1h-2c-0.552,0-1,0.447-1,1S31.448,23,32,23z"/>
<path d="M14,31h10c0.552,0,1-0.447,1-1s-0.448-1-1-1H14c-0.552,0-1,0.447-1,1S13.448,31,14,31z"/>
<path d="M32,31h2c0.552,0,1-0.447,1-1s-0.448-1-1-1h-2c-0.552,0-1,0.447-1,1S31.448,31,32,31z"/>
</svg>
