<?xml version="1.0" encoding="utf-8"?>
<!-- Generator: Adobe Illustrator 20.0.0, SVG Export Plug-In . SVG Version: 6.00 Build 0)  -->
<!DOCTYPE svg PUBLIC "-//W3C//DTD SVG 1.1//EN" "http://www.w3.org/Graphics/SVG/1.1/DTD/svg11.dtd">
<svg version="1.1" id="Layer_1" xmlns="http://www.w3.org/2000/svg" xmlns:xlink="http://www.w3.org/1999/xlink" x="0px" y="0px"
	 width="48px" height="48px" viewBox="0 0 48 48" enable-background="new 0 0 48 48" xml:space="preserve">
<path d="M46,15h-7.42L30.868,1.504c-0.273-0.479-0.885-0.646-1.364-0.372s-0.646,0.885-0.372,1.364L36.277,15H11.723l7.145-12.504
	c0.274-0.479,0.107-1.09-0.372-1.364c-0.479-0.274-1.09-0.107-1.364,0.372L9.42,15H2c-0.552,0-1,0.447-1,1v8c0,0.553,0.448,1,1,1h3
	v21c0,0.553,0.448,1,1,1h26c0.552,0,1-0.447,1-1s-0.448-1-1-1H7V25h39c0.552,0,1-0.447,1-1v-8C47,15.447,46.552,15,46,15z M45,23H3
	v-6h42V23z"/>
<path d="M46,37h-5v-5c0-0.553-0.448-1-1-1s-1,0.447-1,1v5h-5c-0.552,0-1,0.447-1,1s0.448,1,1,1h5v5c0,0.553,0.448,1,1,1s1-0.447,1-1
	v-5h5c0.552,0,1-0.447,1-1S46.552,37,46,37z"/>
</svg>
