<?xml version="1.0" encoding="utf-8"?>
<!-- Generator: Adobe Illustrator 20.0.0, SVG Export Plug-In . SVG Version: 6.00 Build 0)  -->
<!DOCTYPE svg PUBLIC "-//W3C//DTD SVG 1.1//EN" "http://www.w3.org/Graphics/SVG/1.1/DTD/svg11.dtd">
<svg version="1.1" id="Layer_1" xmlns="http://www.w3.org/2000/svg" xmlns:xlink="http://www.w3.org/1999/xlink" x="0px" y="0px"
	 width="48px" height="48px" viewBox="0 0 48 48" enable-background="new 0 0 48 48" xml:space="preserve">
<path d="M2,4h5.163l1.1,6.159c0.002,0.012,0.004,0.024,0.006,0.036l3.747,20.981C12.101,31.653,12.516,32,13,32h28
	c0.48,0,0.893-0.341,0.982-0.813l4-21c0.056-0.292-0.022-0.595-0.212-0.825C45.581,9.133,45.298,9,45,9H10.087L8.984,2.824
	C8.899,2.347,8.484,2,8,2H2C1.448,2,1,2.448,1,3S1.448,4,2,4z M43.792,11l-3.619,19H13.837l-3.393-19H43.792z"/>
<path d="M10,41c0,2.757,2.243,5,5,5s5-2.243,5-5s-2.243-5-5-5S10,38.243,10,41z M18,41c0,1.654-1.346,3-3,3s-3-1.346-3-3
	s1.346-3,3-3S18,39.346,18,41z"/>
<path d="M34,41c0,2.757,2.243,5,5,5s5-2.243,5-5s-2.243-5-5-5S34,38.243,34,41z M42,41c0,1.654-1.346,3-3,3s-3-1.346-3-3
	s1.346-3,3-3S42,39.346,42,41z"/>
</svg>
