<?xml version="1.0" encoding="utf-8"?>
<!-- Generator: Adobe Illustrator 20.0.0, SVG Export Plug-In . SVG Version: 6.00 Build 0)  -->
<!DOCTYPE svg PUBLIC "-//W3C//DTD SVG 1.1//EN" "http://www.w3.org/Graphics/SVG/1.1/DTD/svg11.dtd">
<svg version="1.1" id="Layer_1" xmlns="http://www.w3.org/2000/svg" xmlns:xlink="http://www.w3.org/1999/xlink" x="0px" y="0px"
	 width="48px" height="48px" viewBox="0 0 48 48" enable-background="new 0 0 48 48" xml:space="preserve">
<path d="M42.948,18.684C42.812,18.275,42.431,18,42,18H31v-6c0-0.553-0.447-1-1-1h-7.051C22.442,5.402,17.728,1,12,1
	C5.935,1,1,5.935,1,12s4.935,11,11,11c5.728,0,10.442-4.402,10.949-10H29v19c0,0.553,0.447,1,1,1s1-0.447,1-1V20h10.279L45,31.162
	V39h-3.35c-0.826-2.327-3.043-4-5.65-4s-4.824,1.673-5.65,4H18.818c-0.68-2.862-3.251-5-6.318-5s-5.638,2.138-6.318,5H3V24
	c0-0.553-0.447-1-1-1s-1,0.447-1,1v16c0,0.553,0.447,1,1,1h4.025c0.257,3.351,3.059,6,6.475,6s6.218-2.649,6.475-6H30
	c0,3.309,2.691,6,6,6s6-2.691,6-6h4c0.553,0,1-0.447,1-1v-9c0-0.107-0.018-0.214-0.052-0.316L42.948,18.684z M12,21
	c-4.963,0-9-4.037-9-9s4.037-9,9-9s9,4.037,9,9S16.963,21,12,21z M12.5,45C10.019,45,8,42.981,8,40.5s2.019-4.5,4.5-4.5
	s4.5,2.019,4.5,4.5S14.981,45,12.5,45z M36,45c-2.206,0-4-1.794-4-4s1.794-4,4-4s4,1.794,4,4S38.206,45,36,45z"/>
<path d="M16,11h-3V8c0-0.553-0.447-1-1-1s-1,0.447-1,1v4c0,0.553,0.447,1,1,1h4c0.553,0,1-0.447,1-1S16.553,11,16,11z"/>
</svg>
