<?xml version="1.0" encoding="utf-8"?>
<!-- Generator: Adobe Illustrator 20.0.0, SVG Export Plug-In . SVG Version: 6.00 Build 0)  -->
<!DOCTYPE svg PUBLIC "-//W3C//DTD SVG 1.1//EN" "http://www.w3.org/Graphics/SVG/1.1/DTD/svg11.dtd">
<svg version="1.1" id="layer" xmlns="http://www.w3.org/2000/svg" xmlns:xlink="http://www.w3.org/1999/xlink" x="0px" y="0px"
	 width="48px" height="48px" viewBox="0 0 48 48" enable-background="new 0 0 48 48" xml:space="preserve">
<path fill="#1D1D1B" d="M35.999,21c0.268,0,0.524-0.107,0.713-0.298l8.403-8.539c2.507-2.548,2.507-6.693,0-9.241
	c-1.371-1.394-3.262-2.083-5.202-1.89C38.416,1.181,37.044,1.844,36,2.896c-1.044-1.052-2.416-1.715-3.913-1.864
	c-1.927-0.192-3.83,0.497-5.202,1.89c-2.507,2.548-2.507,6.693,0,9.241l8.401,8.539C35.475,20.893,35.731,21,35.999,21z
	 M28.311,4.325C29.151,3.471,30.276,3,31.45,3c0.146,0,0.292,0.007,0.438,0.022c1.336,0.133,2.529,0.863,3.274,2.004
	c0.369,0.565,1.305,0.565,1.674,0c0.745-1.141,1.938-1.871,3.275-2.004c1.326-0.135,2.632,0.343,3.577,1.303v0
	c1.746,1.774,1.746,4.661,0,6.435l-7.69,7.814l-7.688-7.814C26.564,8.986,26.564,6.099,28.311,4.325z"/>
<path fill="#1D1D1B" d="M46,31H9V9h10c0.553,0,1-0.448,1-1s-0.447-1-1-1H9V2c0-0.552-0.447-1-1-1H2C1.447,1,1,1.448,1,2s0.447,1,1,1
	h5v29c0,0.552,0.447,1,1,1h38c0.553,0,1-0.448,1-1S46.553,31,46,31z"/>
<path fill="#1D1D1B" d="M17,42c0-2.757-2.243-5-5-5s-5,2.243-5,5s2.243,5,5,5S17,44.757,17,42z M9,42c0-1.654,1.346-3,3-3
	s3,1.346,3,3s-1.346,3-3,3S9,43.654,9,42z"/>
<path fill="#1D1D1B" d="M42,37c-2.757,0-5,2.243-5,5s2.243,5,5,5s5-2.243,5-5S44.757,37,42,37z M42,45c-1.654,0-3-1.346-3-3
	s1.346-3,3-3s3,1.346,3,3S43.654,45,42,45z"/>
</svg>
