<?xml version="1.0" encoding="utf-8"?>
<!-- Generator: Adobe Illustrator 20.0.0, SVG Export Plug-In . SVG Version: 6.00 Build 0)  -->
<!DOCTYPE svg PUBLIC "-//W3C//DTD SVG 1.1//EN" "http://www.w3.org/Graphics/SVG/1.1/DTD/svg11.dtd">
<svg version="1.1" id="Layer_1" xmlns="http://www.w3.org/2000/svg" xmlns:xlink="http://www.w3.org/1999/xlink" x="0px" y="0px"
	 width="48px" height="48px" viewBox="0 0 48 48" enable-background="new 0 0 48 48" xml:space="preserve">
<path d="M42.895,19.395C42.957,18.945,43,18.484,43,18c0-0.155-0.036-0.309-0.105-0.447l-8-16C34.725,1.214,34.379,1,34,1H10
	C9.621,1,9.275,1.214,9.105,1.553l-8,16C1.036,17.691,1,17.845,1,18c0,4.836,3.014,7,6,7v17c0,0.553,0.448,1,1,1h18
	c0.552,0,1-0.447,1-1s-0.448-1-1-1H9V24.647c1.234-0.438,2.287-1.261,3-2.333C13.076,23.932,14.916,25,17,25
	c2.083,0,3.921-1.066,4.997-2.683c0.797,1.202,2.019,2.093,3.457,2.474C25.168,25.782,25,26.848,25,28
	c0,6.539,9.873,16.487,10.293,16.907C35.488,45.103,35.744,45.2,36,45.2s0.512-0.098,0.707-0.293C37.127,44.487,47,34.539,47,28
	C47,24.22,45.31,21.282,42.895,19.395z M23,19c0-0.553-0.448-1-1-1s-1,0.447-1,1c0,2.206-1.794,4-4,4s-4-1.794-4-4
	c0-0.553-0.448-1-1-1s-1,0.447-1,1c0,2.206-1.794,4-4,4c-2.405,0-3.922-1.821-3.997-4.77L10.618,3h22.764l7.589,15.177
	C39.414,17.407,37.698,17,36,17c-3.893,0-7.871,2.142-9.8,5.907C24.367,22.535,23,20.929,23,19z M36,42.766
	C32.954,39.553,27,32.371,27,28c0-5.634,4.576-9,9-9s9,3.366,9,9C45,32.371,39.046,39.553,36,42.766z"/>
<path d="M36,24c-2.206,0-4,1.794-4,4s1.794,4,4,4s4-1.794,4-4S38.206,24,36,24z M36,30c-1.103,0-2-0.897-2-2s0.897-2,2-2
	s2,0.897,2,2S37.103,30,36,30z"/>
</svg>
