<?xml version="1.0" encoding="utf-8"?>
<!-- Generator: Adobe Illustrator 20.0.0, SVG Export Plug-In . SVG Version: 6.00 Build 0)  -->
<!DOCTYPE svg PUBLIC "-//W3C//DTD SVG 1.1//EN" "http://www.w3.org/Graphics/SVG/1.1/DTD/svg11.dtd">
<svg version="1.1" id="layer" xmlns="http://www.w3.org/2000/svg" xmlns:xlink="http://www.w3.org/1999/xlink" x="0px" y="0px"
	 width="48px" height="48px" viewBox="0 0 48 48" enable-background="new 0 0 48 48" xml:space="preserve">
<path fill="#1D1D1B" d="M45.771,10.362C45.581,10.133,45.298,10,45,10h-5.086l-6.707-6.707c-0.391-0.391-1.023-0.391-1.414,0
	L27.5,7.586l-4.293-4.293c-0.391-0.391-1.023-0.391-1.414,0L15.086,10h-4.999L8.984,3.824C8.899,3.347,8.484,3,8,3H2
	C1.448,3,1,3.448,1,4s0.448,1,1,1h5.163l1.1,6.159c0.002,0.012,0.004,0.024,0.006,0.036l3.747,20.981C12.101,32.653,12.516,33,13,33
	h28c0.48,0,0.893-0.341,0.982-0.813l4-21C46.038,10.895,45.96,10.592,45.771,10.362z M32.5,5.414L37.086,10h-7.172l-1-1L32.5,5.414z
	 M22.5,5.414L27.086,10h-9.172L22.5,5.414z M40.172,31H13.837l-3.393-19h33.347L40.172,31z"/>
<path fill="#1D1D1B" d="M10,42c0,2.757,2.243,5,5,5s5-2.243,5-5s-2.243-5-5-5S10,39.243,10,42z M18,42c0,1.654-1.346,3-3,3
	s-3-1.346-3-3s1.346-3,3-3S18,40.346,18,42z"/>
<path fill="#1D1D1B" d="M34,42c0,2.757,2.243,5,5,5s5-2.243,5-5s-2.243-5-5-5S34,39.243,34,42z M42,42c0,1.654-1.346,3-3,3
	s-3-1.346-3-3s1.346-3,3-3S42,40.346,42,42z"/>
</svg>
