<?xml version="1.0" encoding="utf-8"?>
<!-- Generator: Adobe Illustrator 20.0.0, SVG Export Plug-In . SVG Version: 6.00 Build 0)  -->
<!DOCTYPE svg PUBLIC "-//W3C//DTD SVG 1.1//EN" "http://www.w3.org/Graphics/SVG/1.1/DTD/svg11.dtd">
<svg version="1.1" id="Layer_1" xmlns="http://www.w3.org/2000/svg" xmlns:xlink="http://www.w3.org/1999/xlink" x="0px" y="0px"
	 width="48px" height="48px" viewBox="0 0 48 48" enable-background="new 0 0 48 48" xml:space="preserve">
<path d="M46.984,21.862c-0.016-0.116-0.048-0.229-0.103-0.331c-0.002-0.003-0.001-0.007-0.003-0.01
	c-0.004-0.008-0.012-0.012-0.017-0.02c-0.056-0.096-0.128-0.181-0.213-0.255c-0.014-0.012-0.026-0.026-0.041-0.038
	c-0.007-0.006-0.013-0.013-0.02-0.018L39,15.69V2c0-0.553-0.448-1-1-1H10C9.448,1,9,1.447,9,2v13.69l-7.587,5.5
	c-0.008,0.006-0.013,0.013-0.02,0.019c-0.014,0.011-0.025,0.024-0.038,0.036c-0.086,0.074-0.159,0.16-0.215,0.256
	c-0.005,0.008-0.013,0.012-0.017,0.02c-0.002,0.003-0.001,0.007-0.003,0.01c-0.055,0.102-0.086,0.215-0.103,0.331
	c-0.003,0.025-0.007,0.048-0.009,0.072C1.006,21.957,1,21.978,1,22v24c0,0.553,0.448,1,1,1h44c0.001,0,0.001,0,0.002,0
	c0.118,0,0.232-0.028,0.341-0.069c0.029-0.011,0.057-0.022,0.084-0.035c0.096-0.046,0.186-0.103,0.264-0.178
	c0.005-0.005,0.012-0.008,0.018-0.014c0.065-0.065,0.122-0.14,0.169-0.225c0.008-0.015,0.007-0.031,0.014-0.046
	c0.029-0.06,0.042-0.124,0.059-0.19c0.017-0.066,0.036-0.129,0.039-0.196C46.991,46.031,47,46.017,47,46V22
	c0-0.022-0.006-0.043-0.008-0.065C46.991,21.91,46.987,21.887,46.984,21.862z M26.089,34l12.21-6.66
	c0.125-0.04,0.237-0.101,0.335-0.183L45,23.685v20.631L26.089,34z M44.131,21.88L39,24.679V18.16L44.131,21.88z M37,3v22.77
	l-13,7.091L11,25.77V3H37z M9,24.679L3.869,21.88L9,18.16V24.679z M3,23.685l6.367,3.473c0.098,0.082,0.21,0.143,0.335,0.183
	L42.078,45H3V23.685z"/>
<path d="M18,13h12c0.552,0,1-0.447,1-1s-0.448-1-1-1H18c-0.552,0-1,0.447-1,1S17.448,13,18,13z"/>
<path d="M18,21h12c0.552,0,1-0.447,1-1s-0.448-1-1-1H18c-0.552,0-1,0.447-1,1S17.448,21,18,21z"/>
</svg>
