<?xml version="1.0" encoding="utf-8"?>
<!-- Generator: Adobe Illustrator 20.0.0, SVG Export Plug-In . SVG Version: 6.00 Build 0)  -->
<!DOCTYPE svg PUBLIC "-//W3C//DTD SVG 1.1//EN" "http://www.w3.org/Graphics/SVG/1.1/DTD/svg11.dtd">
<svg version="1.1" id="layer" xmlns="http://www.w3.org/2000/svg" xmlns:xlink="http://www.w3.org/1999/xlink" x="0px" y="0px"
	 width="48px" height="48px" viewBox="0 0 48 48" enable-background="new 0 0 48 48" xml:space="preserve">
<path fill="#1D1D1B" d="M37.914,26.032c-1.498,0.149-2.87,0.812-3.914,1.864c-1.043-1.052-2.416-1.715-3.912-1.864
	c-1.941-0.198-3.832,0.495-5.204,1.89c-2.507,2.548-2.507,6.693,0,9.241l8.401,8.538C33.474,45.893,33.731,46,33.999,46
	s0.525-0.107,0.713-0.299l8.403-8.538c2.507-2.548,2.507-6.693,0-9.241C41.744,26.527,39.849,25.84,37.914,26.032z M41.689,35.761
	l-7.69,7.813l-7.688-7.813c-1.746-1.774-1.746-4.662,0-6.437C27.151,28.471,28.276,28,29.45,28c0.146,0,0.292,0.008,0.439,0.022
	c1.335,0.133,2.528,0.863,3.273,2.004c0.185,0.282,0.5,0.453,0.837,0.453c0.337,0,0.652-0.17,0.837-0.453
	c0.745-1.141,1.938-1.871,3.275-2.004c1.328-0.134,2.633,0.343,3.577,1.302C43.436,31.099,43.436,33.986,41.689,35.761z"/>
<path fill="#1D1D1B" d="M23,44H7V17.414l13-13l13,13V21c0,0.553,0.448,1,1,1s1-0.447,1-1v-4c0-0.266-0.105-0.52-0.293-0.707l-14-14
	c-0.391-0.391-1.023-0.391-1.414,0l-14,14C5.105,16.48,5,16.734,5,17v28c0,0.553,0.448,1,1,1h17c0.552,0,1-0.447,1-1
	S23.552,44,23,44z"/>
<path fill="#1D1D1B" d="M16,20c0,2.206,1.794,4,4,4s4-1.794,4-4s-1.794-4-4-4S16,17.794,16,20z M22,20c0,1.103-0.897,2-2,2
	s-2-0.897-2-2s0.897-2,2-2S22,18.897,22,20z"/>
</svg>
