<?xml version="1.0" encoding="utf-8"?>
<!-- Generator: Adobe Illustrator 20.0.0, SVG Export Plug-In . SVG Version: 6.00 Build 0)  -->
<!DOCTYPE svg PUBLIC "-//W3C//DTD SVG 1.1//EN" "http://www.w3.org/Graphics/SVG/1.1/DTD/svg11.dtd">
<svg version="1.1" id="Layer_1" xmlns="http://www.w3.org/2000/svg" xmlns:xlink="http://www.w3.org/1999/xlink" x="0px" y="0px"
	 width="48px" height="48px" viewBox="0 0 48 48" enable-background="new 0 0 48 48" xml:space="preserve">
<path d="M46.976,16.82c-0.021-0.116-0.057-0.227-0.116-0.328c-0.001-0.002-0.001-0.005-0.002-0.007
	c-0.004-0.007-0.012-0.011-0.016-0.018c-0.058-0.092-0.133-0.17-0.219-0.24c-0.022-0.018-0.043-0.036-0.066-0.052
	c-0.018-0.012-0.033-0.029-0.052-0.04l-24-14c-0.316-0.185-0.706-0.182-1.019,0.007l-20,12c-0.02,0.012-0.034,0.029-0.053,0.042
	C1.41,14.2,1.391,14.217,1.37,14.234c-0.086,0.071-0.161,0.151-0.219,0.245c-0.004,0.007-0.011,0.01-0.015,0.017
	c-0.001,0.002-0.001,0.004-0.002,0.006c-0.058,0.101-0.091,0.213-0.112,0.329c-0.005,0.029-0.009,0.056-0.011,0.085
	C1.008,14.944,1,14.971,1,15v16c0,0.355,0.188,0.685,0.496,0.864l24,14c0.025,0.014,0.052,0.02,0.077,0.032
	c0.027,0.013,0.054,0.024,0.082,0.034C25.768,45.972,25.883,46,26,46c0.119,0,0.236-0.028,0.349-0.07
	c0.037-0.014,0.07-0.033,0.105-0.052c0.04-0.02,0.082-0.033,0.119-0.059l20-14C46.841,31.632,47,31.326,47,31V17
	c0-0.032-0.009-0.061-0.012-0.092C46.985,16.878,46.982,16.85,46.976,16.82z M22.007,4.162l22.029,12.85l-8.043,4.826L13.964,8.988
	L22.007,4.162z M25.993,27.838L3.964,14.988l8.042-4.826l22.029,12.85L25.993,27.838z M3,16.742l22,12.833v13.684L3,30.426V16.742z
	 M27,43.079V29.566l18-10.8v11.713L27,43.079z"/>
</svg>
