<?xml version="1.0" encoding="utf-8"?>
<!-- Generator: Adobe Illustrator 20.0.0, SVG Export Plug-In . SVG Version: 6.00 Build 0)  -->
<!DOCTYPE svg PUBLIC "-//W3C//DTD SVG 1.1//EN" "http://www.w3.org/Graphics/SVG/1.1/DTD/svg11.dtd">
<svg version="1.1" id="Layer_1" xmlns="http://www.w3.org/2000/svg" xmlns:xlink="http://www.w3.org/1999/xlink" x="0px" y="0px"
	 width="48px" height="48px" viewBox="0 0 48 48" enable-background="new 0 0 48 48" xml:space="preserve">
<path d="M26.293,45.707C26.488,45.902,26.744,46,27,46s0.512-0.098,0.707-0.293l18-18c0.391-0.391,0.391-1.023,0-1.414l-25-25
	C20.52,1.105,20.265,1,20,1H2C1.448,1,1,1.448,1,2v18c0,0.265,0.105,0.52,0.293,0.707L26.293,45.707z M3,3h16.586l24,24L27,43.586
	l-24-24V3z"/>
<path d="M14,9c-2.757,0-5,2.243-5,5s2.243,5,5,5s5-2.243,5-5S16.757,9,14,9z M14,17c-1.654,0-3-1.346-3-3s1.346-3,3-3s3,1.346,3,3
	S15.654,17,14,17z"/>
</svg>
