<?xml version="1.0" encoding="utf-8"?>
<!-- Generator: Adobe Illustrator 20.0.0, SVG Export Plug-In . SVG Version: 6.00 Build 0)  -->
<!DOCTYPE svg PUBLIC "-//W3C//DTD SVG 1.1//EN" "http://www.w3.org/Graphics/SVG/1.1/DTD/svg11.dtd">
<svg version="1.1" id="Layer_1" xmlns="http://www.w3.org/2000/svg" xmlns:xlink="http://www.w3.org/1999/xlink" x="0px" y="0px"
	 width="48px" height="48px" viewBox="0 0 48 48" enable-background="new 0 0 48 48" xml:space="preserve">
<path d="M23,1c-4.962,0-9,4.038-9,9v1H6c-0.552,0-1,0.448-1,1v34c0,0.552,0.448,1,1,1h15c0.552,0,1-0.448,1-1s-0.448-1-1-1H7V13h7v5
	c0,0.552,0.448,1,1,1s1-0.448,1-1v-5h14v5c0,0.552,0.448,1,1,1s1-0.448,1-1v-5h7v13.214C37.498,25.444,35.801,25,34,25
	c-6.065,0-11,4.935-11,11s4.935,11,11,11s11-4.935,11-11c0-3.408-1.559-6.459-4-8.479V12c0-0.552-0.448-1-1-1h-8v-1
	C32,5.038,27.962,1,23,1z M43,36c0,4.962-4.038,9-9,9s-9-4.038-9-9s4.038-9,9-9S43,31.038,43,36z M16,11v-1c0-3.86,3.14-7,7-7
	s7,3.14,7,7v1H16z"/>
<path d="M38,35h-8c-0.552,0-1,0.448-1,1s0.448,1,1,1h8c0.552,0,1-0.448,1-1S38.552,35,38,35z"/>
</svg>
