<?xml version="1.0" encoding="utf-8"?>
<!-- Generator: Adobe Illustrator 20.0.0, SVG Export Plug-In . SVG Version: 6.00 Build 0)  -->
<!DOCTYPE svg PUBLIC "-//W3C//DTD SVG 1.1//EN" "http://www.w3.org/Graphics/SVG/1.1/DTD/svg11.dtd">
<svg version="1.1" id="Layer_1" xmlns="http://www.w3.org/2000/svg" xmlns:xlink="http://www.w3.org/1999/xlink" x="0px" y="0px"
	 width="48px" height="48px" viewBox="0 0 48 48" enable-background="new 0 0 48 48" xml:space="preserve">
<path d="M17.293,14.707l5.999,5.999c0.092,0.093,0.203,0.166,0.326,0.217C23.74,20.973,23.87,21,24,21s0.26-0.027,0.382-0.077
	c0.123-0.051,0.233-0.124,0.326-0.217l5.999-5.999c0.391-0.391,0.391-1.023,0-1.414s-1.023-0.391-1.414,0L25,17.586V2
	c0-0.552-0.447-1-1-1s-1,0.448-1,1v15.586l-4.293-4.293c-0.391-0.391-1.023-0.391-1.414,0S16.902,14.316,17.293,14.707z"/>
<path d="M46,31H9v-4h29c0.469,0,0.874-0.326,0.977-0.783l4-18c0.065-0.296-0.007-0.606-0.196-0.842C42.59,7.138,42.304,7,42,7H32
	c-0.553,0-1,0.448-1,1s0.447,1,1,1h8.753l-3.555,16H9V9h7c0.553,0,1-0.448,1-1s-0.447-1-1-1H9V2c0-0.552-0.447-1-1-1H2
	C1.447,1,1,1.448,1,2s0.447,1,1,1h5v29c0,0.552,0.447,1,1,1h38c0.553,0,1-0.448,1-1S46.553,31,46,31z"/>
<path d="M12,47c2.757,0,5-2.243,5-5s-2.243-5-5-5s-5,2.243-5,5S9.243,47,12,47z M12,39c1.654,0,3,1.346,3,3s-1.346,3-3,3
	s-3-1.346-3-3S10.346,39,12,39z"/>
<path d="M42,37c-2.757,0-5,2.243-5,5s2.243,5,5,5s5-2.243,5-5S44.757,37,42,37z M42,45c-1.654,0-3-1.346-3-3s1.346-3,3-3
	s3,1.346,3,3S43.654,45,42,45z"/>
</svg>
