<?xml version="1.0" encoding="utf-8"?>
<!-- Generator: Adobe Illustrator 20.0.0, SVG Export Plug-In . SVG Version: 6.00 Build 0)  -->
<!DOCTYPE svg PUBLIC "-//W3C//DTD SVG 1.1//EN" "http://www.w3.org/Graphics/SVG/1.1/DTD/svg11.dtd">
<svg version="1.1" id="layer" xmlns="http://www.w3.org/2000/svg" xmlns:xlink="http://www.w3.org/1999/xlink" x="0px" y="0px"
	 width="48px" height="48px" viewBox="0 0 48 48" enable-background="new 0 0 48 48" xml:space="preserve">
<path fill="#1D1D1B" d="M46,10H33V3c0-0.552-0.448-1-1-1H16c-0.552,0-1,0.448-1,1v7H2c-0.552,0-1,0.448-1,1v34c0,0.552,0.448,1,1,1
	h44c0.552,0,1-0.448,1-1V11C47,10.448,46.552,10,46,10z M17,4h14v6H17V4z M45,44H3V12h42V44z"/>
<path fill="#1D1D1B" d="M19.528,19.118C19.203,19.292,19,19.631,19,20v16c0,0.369,0.203,0.708,0.528,0.882
	C19.676,36.961,19.838,37,20,37c0.194,0,0.387-0.057,0.555-0.168l12-8C32.833,28.646,33,28.334,33,28s-0.167-0.646-0.445-0.832
	l-12-8C20.248,18.962,19.852,18.944,19.528,19.118z M21,21.869L30.197,28L21,34.131V21.869z"/>
</svg>
