<?xml version="1.0" encoding="utf-8"?>
<!-- Generator: Adobe Illustrator 20.0.0, SVG Export Plug-In . SVG Version: 6.00 Build 0)  -->
<!DOCTYPE svg PUBLIC "-//W3C//DTD SVG 1.1//EN" "http://www.w3.org/Graphics/SVG/1.1/DTD/svg11.dtd">
<svg version="1.1" id="layer" xmlns="http://www.w3.org/2000/svg" xmlns:xlink="http://www.w3.org/1999/xlink" x="0px" y="0px"
	 width="48px" height="48px" viewBox="0 0 48 48" enable-background="new 0 0 48 48" xml:space="preserve">
<path fill="#1D1D1B" d="M22,12h16c0.553,0,1-0.447,1-1s-0.447-1-1-1H22c-0.553,0-1,0.447-1,1S21.447,12,22,12z"/>
<path fill="#1D1D1B" d="M22,20h16c0.553,0,1-0.447,1-1s-0.447-1-1-1H22c-0.553,0-1,0.447-1,1S21.447,20,22,20z"/>
<path fill="#1D1D1B" d="M22,28h16c0.553,0,1-0.447,1-1s-0.447-1-1-1H22c-0.553,0-1,0.447-1,1S21.447,28,22,28z"/>
<path fill="#1D1D1B" d="M46,1H14c-0.553,0-1,0.447-1,1v33H6c-2.757,0-5,2.243-5,5v6c0,0.553,0.447,1,1,1h24c0.553,0,1-0.447,1-1
	v-5.167C27,38.684,28.757,37,31,37c1.987,0,4,1.374,4,4c0,3.309,2.691,6,6,6s6-2.691,6-6V2C47,1.447,46.553,1,46,1z M25,40.833V45H3
	v-5c0-1.654,1.346-3,3-3h20.442C25.54,38.019,25,39.354,25,40.833z M45,41c0,2.206-1.794,4-4,4s-4-1.794-4-4c0-3.897-3.092-6-6-6H15
	V3h30V41z"/>
</svg>
