<?xml version="1.0" encoding="utf-8"?>
<!-- Generator: Adobe Illustrator 20.0.0, SVG Export Plug-In . SVG Version: 6.00 Build 0)  -->
<!DOCTYPE svg PUBLIC "-//W3C//DTD SVG 1.1//EN" "http://www.w3.org/Graphics/SVG/1.1/DTD/svg11.dtd">
<svg version="1.1" id="Layer_1" xmlns="http://www.w3.org/2000/svg" xmlns:xlink="http://www.w3.org/1999/xlink" x="0px" y="0px"
	 width="48px" height="48px" viewBox="0 0 48 48" enable-background="new 0 0 48 48" xml:space="preserve">
<path d="M14,9c-2.757,0-5,2.243-5,5s2.243,5,5,5s5-2.243,5-5S16.757,9,14,9z M14,17c-1.654,0-3-1.346-3-3s1.346-3,3-3s3,1.346,3,3
	S15.654,17,14,17z"/>
<path d="M36,13c-1.056,0-2.075,0.158-3.042,0.437L20.704,1.29C20.517,1.104,20.264,1,20,1H2C1.448,1,1,1.448,1,2v18
	c0,0.265,0.105,0.52,0.293,0.707l24,24C25.48,44.895,25.735,45,26,45c0.002,0,0.004,0,0.005,0c0.267-0.001,0.523-0.11,0.709-0.301
	l9.498-9.71C42.179,34.874,47,29.994,47,24C47,17.935,42.065,13,36,13z M25.992,42.578L3,19.586V3h16.588l11.345,11.247
	C27.413,16.083,25,19.762,25,24c0,5.261,3.714,9.665,8.656,10.743L25.992,42.578z M36,33c-4.962,0-9-4.038-9-9s4.038-9,9-9
	s9,4.038,9,9S40.962,33,36,33z"/>
<path d="M40,23h-3v-3c0-0.552-0.448-1-1-1s-1,0.448-1,1v4c0,0.552,0.448,1,1,1h4c0.552,0,1-0.448,1-1S40.552,23,40,23z"/>
</svg>
