<?xml version="1.0" encoding="utf-8"?>
<!-- Generator: Adobe Illustrator 20.0.0, SVG Export Plug-In . SVG Version: 6.00 Build 0)  -->
<!DOCTYPE svg PUBLIC "-//W3C//DTD SVG 1.1//EN" "http://www.w3.org/Graphics/SVG/1.1/DTD/svg11.dtd">
<svg version="1.1" id="layer" xmlns="http://www.w3.org/2000/svg" xmlns:xlink="http://www.w3.org/1999/xlink" x="0px" y="0px"
	 width="48px" height="48px" viewBox="0 0 48 48" enable-background="new 0 0 48 48" xml:space="preserve">
<path fill="#1D1D1B" d="M36.999,46c0.266,0,0.521-0.105,0.708-0.294l7.563-7.59c2.302-2.311,2.302-6.069,0-8.38
	c-1.258-1.262-2.992-1.882-4.766-1.707c-1.334,0.134-2.56,0.708-3.504,1.619c-0.944-0.911-2.17-1.485-3.503-1.619
	c-1.775-0.176-3.51,0.444-4.767,1.707c-2.302,2.311-2.302,6.069,0,8.38l7.561,7.59C36.478,45.895,36.733,46,36.999,46z
	 M30.146,31.148C30.885,30.407,31.873,30,32.905,30c0.13,0,0.261,0.007,0.393,0.02c1.171,0.117,2.217,0.75,2.869,1.736
	c0.37,0.561,1.298,0.561,1.668,0c0.652-0.986,1.698-1.619,2.87-1.736c1.172-0.114,2.318,0.294,3.15,1.129
	c1.527,1.531,1.527,4.024,0,5.556l-6.854,6.879l-6.853-6.879C28.62,35.173,28.62,32.68,30.146,31.148z"/>
<path fill="#1D1D1B" d="M46,15h-7.42L30.868,1.504c-0.274-0.479-0.885-0.646-1.364-0.372s-0.646,0.885-0.372,1.364L36.277,15H11.723
	l7.145-12.504c0.274-0.479,0.107-1.09-0.372-1.364c-0.479-0.274-1.09-0.107-1.364,0.372L9.42,15H2c-0.552,0-1,0.447-1,1v8
	c0,0.553,0.448,1,1,1h3v21c0,0.553,0.448,1,1,1h19c0.552,0,1-0.447,1-1s-0.448-1-1-1H7V25h39c0.552,0,1-0.447,1-1v-8
	C47,15.447,46.552,15,46,15z M45,23H3v-6h42V23z"/>
</svg>
