<?xml version="1.0" encoding="utf-8"?>
<!-- Generator: Adobe Illustrator 20.0.0, SVG Export Plug-In . SVG Version: 6.00 Build 0)  -->
<!DOCTYPE svg PUBLIC "-//W3C//DTD SVG 1.1//EN" "http://www.w3.org/Graphics/SVG/1.1/DTD/svg11.dtd">
<svg version="1.1" id="layer" xmlns="http://www.w3.org/2000/svg" xmlns:xlink="http://www.w3.org/1999/xlink" x="0px" y="0px"
	 width="48px" height="48px" viewBox="0 0 48 48" enable-background="new 0 0 48 48" xml:space="preserve">
<path fill="#1D1D1B" d="M46,17h-7.531l-9.51-11.412C28.745,3.026,26.616,1,24,1s-4.745,2.026-4.958,4.588L9.531,17H2
	c-0.552,0-1,0.447-1,1v28c0,0.553,0.448,1,1,1h44c0.552,0,1-0.447,1-1V18C47,17.447,46.552,17,46,17z M24,3c1.654,0,3,1.346,3,3
	s-1.346,3-3,3s-3-1.346-3-3S22.346,3,24,3z M19.507,8.154C20.315,9.831,22.017,11,24,11s3.685-1.169,4.493-2.846L35.865,17H12.135
	L19.507,8.154z M45,45H3V19h42V45z"/>
</svg>
