<?xml version="1.0" encoding="utf-8"?>
<!-- Generator: Adobe Illustrator 20.0.0, SVG Export Plug-In . SVG Version: 6.00 Build 0)  -->
<!DOCTYPE svg PUBLIC "-//W3C//DTD SVG 1.1//EN" "http://www.w3.org/Graphics/SVG/1.1/DTD/svg11.dtd">
<svg version="1.1" id="layer" xmlns="http://www.w3.org/2000/svg" xmlns:xlink="http://www.w3.org/1999/xlink" x="0px" y="0px"
	 width="48px" height="48px" viewBox="0 0 48 48" enable-background="new 0 0 48 48" xml:space="preserve">
<path fill="#1D1D1B" d="M42,1H6C3.243,1,1,3.243,1,6v26c0,2.757,2.243,5,5,5h12c0.553,0,1-0.448,1-1s-0.447-1-1-1H6
	c-1.654,0-3-1.346-3-3V21h43c0.553,0,1-0.448,1-1V6C47,3.243,44.757,1,42,1z M6,3h36c1.654,0,3,1.346,3,3v3H3V6C3,4.346,4.346,3,6,3
	z M3,19v-8h42v8H3z"/>
<path fill="#1D1D1B" d="M9,27c-0.553,0-1,0.448-1,1s0.447,1,1,1h9c0.553,0,1-0.448,1-1s-0.447-1-1-1H9z"/>
<path fill="#1D1D1B" d="M43,25c-0.553,0-1,0.448-1,1v2.935C40.168,27.088,37.685,26,35,26c-4.702,0-8.713,3.199-9.753,7.779
	c-0.122,0.539,0.216,1.074,0.754,1.196C26.076,34.992,26.15,35,26.224,35c0.456,0,0.869-0.314,0.975-0.779
	C28.029,30.559,31.238,28,35,28c2.44,0,4.673,1.126,6.164,3H37c-0.553,0-1,0.448-1,1s0.447,1,1,1h6c0.009,0,0.017-0.005,0.026-0.005
	c0.068-0.002,0.134-0.025,0.202-0.041c0.064-0.015,0.13-0.024,0.188-0.051c0.009-0.004,0.02-0.003,0.029-0.008
	c0.045-0.022,0.074-0.061,0.115-0.089c0.059-0.041,0.12-0.078,0.169-0.131c0.044-0.048,0.073-0.103,0.106-0.158
	c0.034-0.054,0.071-0.105,0.094-0.165c0.026-0.068,0.032-0.139,0.043-0.211C43.979,32.093,44,32.05,44,32v-6
	C44,25.448,43.553,25,43,25z"/>
<path fill="#1D1D1B" d="M34,40c0-0.552-0.447-1-1-1h-6c-0.01,0-0.017,0.005-0.027,0.005c-0.069,0.002-0.135,0.025-0.203,0.041
	c-0.063,0.015-0.128,0.023-0.186,0.05c-0.01,0.004-0.02,0.003-0.029,0.008c-0.045,0.023-0.075,0.061-0.115,0.089
	c-0.059,0.041-0.12,0.078-0.169,0.131c-0.044,0.048-0.073,0.103-0.107,0.158c-0.034,0.054-0.071,0.104-0.094,0.165
	c-0.026,0.068-0.032,0.139-0.043,0.212C26.021,39.907,26,39.95,26,40v6c0,0.552,0.447,1,1,1s1-0.448,1-1v-2.935
	C29.832,44.912,32.315,46,35,46c4.702,0,8.713-3.199,9.753-7.779c0.122-0.539-0.216-1.074-0.754-1.196
	c-0.545-0.123-1.075,0.215-1.197,0.754C41.971,41.441,38.762,44,35,44c-2.44,0-4.673-1.126-6.164-3H33C33.553,41,34,40.552,34,40z"
	/>
</svg>
