<?xml version="1.0" encoding="utf-8"?>
<!-- Generator: Adobe Illustrator 20.0.0, SVG Export Plug-In . SVG Version: 6.00 Build 0)  -->
<!DOCTYPE svg PUBLIC "-//W3C//DTD SVG 1.1//EN" "http://www.w3.org/Graphics/SVG/1.1/DTD/svg11.dtd">
<svg version="1.1" id="Layer_1" xmlns="http://www.w3.org/2000/svg" xmlns:xlink="http://www.w3.org/1999/xlink" x="0px" y="0px"
	 width="48px" height="48px" viewBox="0 0 48 48" enable-background="new 0 0 48 48" xml:space="preserve">
<path d="M39.868,19H44c0.552,0,1-0.447,1-1s-0.448-1-1-1h-6H10H4c-0.552,0-1,0.447-1,1s0.448,1,1,1h4.132L3.23,26.352
	C1.771,28.541,1,31.089,1,33.72C1,41.043,6.958,47,14.28,47h19.44C41.042,47,47,41.042,47,33.718c0-2.63-0.771-5.177-2.23-7.366
	L39.868,19z M33.72,45H14.28C8.06,45,3,39.938,3,33.718c0-2.233,0.655-4.397,1.895-6.257L10.535,19h26.93l5.641,8.461
	C44.345,29.32,45,31.484,45,33.72C45,39.939,39.94,45,33.72,45z"/>
<path d="M12,8c0,2.512,3.592,6.043,4.312,6.726C16.505,14.908,16.752,15,17,15s0.495-0.092,0.688-0.274
	C18.408,14.043,22,10.512,22,8c0-2.757-2.243-5-5-5S12,5.243,12,8z M20,8c0,1.049-1.583,3.105-3,4.588c-1.417-1.48-3-3.537-3-4.588
	c0-1.654,1.346-3,3-3S20,6.346,20,8z"/>
<path d="M26,8c0,2.512,3.592,6.043,4.312,6.726C30.505,14.908,30.752,15,31,15s0.495-0.092,0.688-0.274
	C32.408,14.043,36,10.512,36,8c0-2.757-2.243-5-5-5S26,5.243,26,8z M34,8c0,1.049-1.583,3.105-3,4.588c-1.417-1.48-3-3.537-3-4.588
	c0-1.654,1.346-3,3-3S34,6.346,34,8z"/>
</svg>
