<?xml version="1.0" encoding="utf-8"?>
<!-- Generator: Adobe Illustrator 19.1.0, SVG Export Plug-In . SVG Version: 6.00 Build 0)  -->
<!DOCTYPE svg PUBLIC "-//W3C//DTD SVG 1.1//EN" "http://www.w3.org/Graphics/SVG/1.1/DTD/svg11.dtd">
<svg version="1.1" id="Layer_1" xmlns="http://www.w3.org/2000/svg" xmlns:xlink="http://www.w3.org/1999/xlink" x="0px" y="0px"
	 width="24px" height="24px" viewBox="0 0 24 24" enable-background="new 0 0 24 24" xml:space="preserve">
<path fill="#444444" d="M22.6385,10.93981c-2.74601-2.74639-5.49241-5.49144-8.23623-8.23874
	c-0.40125-0.39408-0.7783-0.84416-1.30779-1.07033c-0.526-0.24978-1.13523-0.28506-1.7-0.16476
	c-0.4942,0.11373-0.94054,0.38428-1.2974,0.74088c-3.08714,3.0881-6.17531,6.17653-9.26341,9.26334
	c-0.35557,0.35466-0.63309,0.79791-0.7465,1.29082c-0.25358,0.88764,0.06457,1.88172,0.7147,2.52049
	c2.17685,2.17782,4.35499,4.35248,6.53088,6.53152c0.48633,0.49581,1.17148,0.78436,1.86662,0.77617
	c1.78064,0.01006,3.56089-0.00129,5.34024,0.00568c0.80101,0.05103,1.61117-0.23501,2.17814-0.80894
	c1.97243-1.96675,3.93917-3.94047,5.91069-5.90843c0.32125-0.32571,0.66902-0.63064,0.93047-1.0086
	c0.48066-0.69206,0.56-1.62375,0.27939-2.40773C23.61904,11.83185,23.09303,11.39777,22.6385,10.93981z M7.22249,14.4462
	c-0.33512,0.39879-0.92473,0.29423-1.37836,0.22365c-0.3997-0.32035-0.76572-0.69173-1.08826-1.08826
	c-0.18643-0.21952,0.05232-0.44885,0.20004-0.60355c2.03132-2.02216,4.05509-4.0529,6.08203-6.07854
	c0.27249-0.26494,0.5191-0.56007,0.82494-0.78746c0.26332-0.13167,0.46679,0.1534,0.64193,0.30455
	c0.37267,0.39757,0.79533,0.74998,1.1371,1.17586c0.17643,0.21043-0.01703,0.45454-0.17134,0.60574
	C11.3857,10.27867,9.30045,12.35882,7.22249,14.4462z M13.61358,19.23837c-0.32383,0.36415-0.66244,0.72198-1.04291,1.0262
	c-0.34899,0.08445-0.72037,0.0649-1.07382,0.01388c-0.33951-0.17198-0.56916-0.50207-0.84758-0.75591
	c-0.19785-0.19282-0.50781-0.48259-0.25235-0.76102c0.43059-0.47813,0.8908-0.93492,1.36707-1.36958
	c0.17733-0.14927,0.44188-0.0756,0.5849,0.08696c0.40699,0.39312,0.80797,0.79378,1.20103,1.20322
	C13.7046,18.81945,13.78872,19.07961,13.61358,19.23837z M13.49198,13.78034c-1.15664,1.15535-2.31671,2.30884-3.46638,3.47109
	c-0.32287,0.39563-0.8908,0.27029-1.33398,0.23378c-0.42621-0.27468-0.75785-0.68038-1.10091-1.04956
	c-0.22862-0.21668-0.01477-0.5002,0.16127-0.66334c1.15793-1.15348,2.31451-2.30664,3.46645-3.46671
	c0.21043-0.20443,0.40002-0.43976,0.65451-0.59535c0.25455-0.10928,0.44098,0.14992,0.61012,0.29545
	c0.38525,0.41234,0.82371,0.77578,1.1749,1.21773C13.81233,13.41999,13.6328,13.64048,13.49198,13.78034z"/>
</svg>
