<?xml version="1.0" encoding="utf-8"?>
<!-- Generator: Adobe Illustrator 19.1.0, SVG Export Plug-In . SVG Version: 6.00 Build 0)  -->
<!DOCTYPE svg PUBLIC "-//W3C//DTD SVG 1.1//EN" "http://www.w3.org/Graphics/SVG/1.1/DTD/svg11.dtd">
<svg version="1.1" id="Layer_1" xmlns="http://www.w3.org/2000/svg" xmlns:xlink="http://www.w3.org/1999/xlink" x="0px" y="0px"
	 width="24px" height="24px" viewBox="0 0 24 24" enable-background="new 0 0 24 24" xml:space="preserve">
<path fill="#444444" d="M12,0C5.4,0,0,5.4,0,12s5.4,12,12,12s12-5.4,12-12S18.66,0,12,0z M17.52,17.34
	c-0.24,0.36-0.66,0.48-1.02,0.24c-2.82-1.74-6.36-2.1-10.56-1.14c-0.42,0.12-0.78-0.18-0.9-0.54c-0.12-0.42,0.18-0.78,0.54-0.9
	c4.56-1.02,8.52-0.6,11.64,1.32C17.64,16.5,17.7,16.98,17.52,17.34z M18.96,14.04c-0.3,0.42-0.84,0.6-1.26,0.3
	c-3.24-1.98-8.16-2.58-11.94-1.38c-0.48,0.12-1.02-0.12-1.14-0.6c-0.12-0.48,0.12-1.02,0.6-1.14C9.6,9.9,15,10.56,18.72,12.84
	C19.08,13.02,19.26,13.62,18.96,14.04z M19.08,10.68C15.24,8.4,8.82,8.16,5.16,9.3c-0.6,0.18-1.2-0.18-1.38-0.72
	C3.6,7.98,3.96,7.38,4.5,7.2c4.26-1.26,11.28-1.02,15.72,1.62c0.54,0.3,0.72,1.02,0.42,1.56C20.34,10.8,19.62,10.98,19.08,10.68z"/>
</svg>
