<?xml version="1.0" encoding="utf-8"?>
<!-- Generator: Adobe Illustrator 19.1.0, SVG Export Plug-In . SVG Version: 6.00 Build 0)  -->
<!DOCTYPE svg PUBLIC "-//W3C//DTD SVG 1.1//EN" "http://www.w3.org/Graphics/SVG/1.1/DTD/svg11.dtd">
<svg version="1.1" id="Layer_1" xmlns="http://www.w3.org/2000/svg" xmlns:xlink="http://www.w3.org/1999/xlink" x="0px" y="0px"
	 width="24px" height="24px" viewBox="0 0 24 24" enable-background="new 0 0 24 24" xml:space="preserve">
<path fill="#444444" d="M0.00048,11.99955c0,4.74963,2.75993,8.85468,6.76311,10.79941L1.03953,7.116
	C0.37371,8.60827,0.00048,10.25978,0.00048,11.99955z"/>
<path fill="#444444" d="M20.10066,11.39434c0-1.48351-0.53293-2.51023-0.98932-3.30936
	c-0.60811-0.98891-1.1787-1.82555-1.1787-2.81448c0-1.10284,0.83636-2.12969,2.01506-2.12969
	c0.05325,0,0.10372,0.00648,0.15544,0.00972C17.96836,1.19443,15.12394,0,12.00003,0C7.80768,0,4.11973,2.15114,1.97404,5.4085
	c0.28178,0.00902,0.54714,0.01455,0.77231,0.01455c1.25483,0,3.19811-0.15255,3.19811-0.15255
	C6.59105,5.23264,6.6674,6.18295,6.02122,6.25943c0,0-0.65031,0.07605-1.37325,0.11406l4.36951,12.99805l2.62635-7.87568
	L9.77442,6.37349C9.12789,6.33548,8.51579,6.25943,8.51579,6.25943C7.86899,6.22121,7.94485,5.23264,8.59192,5.2705
	c0,0,1.98128,0.15255,3.16033,0.15255c1.2547,0,3.19833-0.15255,3.19833-0.15255c0.64687-0.03786,0.72313,0.91245,0.07655,0.98892
	c0,0-0.65101,0.07605-1.37331,0.11406l4.33661,12.89901l1.19719-3.99897C19.70566,13.61305,20.10066,12.42126,20.10066,11.39434z"/>
<path fill="#444444" d="M12.21071,13.04923L8.61,23.51106C9.68531,23.82731,10.82222,24,12.00003,24
	c1.39737,0,2.73759-0.24123,3.98483-0.68024c-0.03185-0.05145-0.06165-0.10606-0.08593-0.16537L12.21071,13.04923z"/>
<path fill="#444444" d="M22.52979,6.2428c0.05158,0.38218,0.08069,0.79217,0.08069,1.23394
	c0,1.21719-0.22799,2.58602-0.91252,4.29792L18.0329,22.37153c3.56741-2.08003,5.9666-5.94496,5.9666-10.37198
	C23.99951,9.91325,23.46643,7.9519,22.52979,6.2428z"/>
</svg>
