<?xml version="1.0" encoding="utf-8"?>
<!-- Generator: Adobe Illustrator 19.1.0, SVG Export Plug-In . SVG Version: 6.00 Build 0)  -->
<!DOCTYPE svg PUBLIC "-//W3C//DTD SVG 1.1//EN" "http://www.w3.org/Graphics/SVG/1.1/DTD/svg11.dtd">
<svg version="1.1" id="Layer_1" xmlns="http://www.w3.org/2000/svg" xmlns:xlink="http://www.w3.org/1999/xlink" x="0px" y="0px"
	 width="24px" height="24px" viewBox="0 0 24 24" enable-background="new 0 0 24 24" xml:space="preserve">
<path fill="#444444" d="M12,0C5.37256,0,0,5.37256,0,12c0,6.62738,5.37256,12,12,12s12-5.37262,12-12C24,5.37256,18.62744,0,12,0z
	 M15.11591,7.992l-1.12958,0.00049c-0.88574,0-1.05725,0.4209-1.05725,1.03851v1.362h2.11243l-0.27502,2.13324h-1.8374V18h-2.20294
	v-5.47375H8.88409v-2.13324h1.84204V8.81976C10.72614,6.99408,11.84125,6,13.46985,6c0.78015,0,1.45062,0.05804,1.64606,0.08405
	V7.992z"/>
</svg>
