<?xml version="1.0" encoding="utf-8"?>
<!-- Generator: Adobe Illustrator 19.1.0, SVG Export Plug-In . SVG Version: 6.00 Build 0)  -->
<!DOCTYPE svg PUBLIC "-//W3C//DTD SVG 1.1//EN" "http://www.w3.org/Graphics/SVG/1.1/DTD/svg11.dtd">
<svg version="1.1" id="Layer_1" xmlns="http://www.w3.org/2000/svg" xmlns:xlink="http://www.w3.org/1999/xlink" x="0px" y="0px"
	 width="24px" height="24px" viewBox="0 0 24 24" enable-background="new 0 0 24 24" xml:space="preserve">
<path fill="#444444" d="M14.65515,10.9848c-0.48334-0.01703-0.61981,0.38867-0.66077,0.71924
	c0.14545-0.02338,0.30145-0.03363,0.46362-0.02795c0.3042,0.01068,0.5835,0.07483,0.80914,0.17542
	C15.26526,11.50891,15.19025,11.00317,14.65515,10.9848z"/>
<path fill="#444444" d="M21,0H3C1.34314,0,0,1.34314,0,3v18c0,1.65686,1.34314,3,3,3h18c1.65686,0,3-1.34314,3-3V3
	C24,1.34314,22.65686,0,21,0z M7.17694,8.5014l2.18823-2.16998c0.00427-0.00427,0.00861-0.00641,0.01288-0.00714L9.33954,6.39667
	C9.25897,6.55768,9.21271,6.74988,9.21271,6.97034v0.00317c0,0.26843,0.01367,1.23364,0.01367,1.23407
	C9.22626,8.27161,9.17432,8.32416,9.1098,8.32416H7.98364c-0.00073,0-0.00073,0-0.00073,0
	c-0.27661,0-0.50769,0.04718-0.69824,0.13312C7.27594,8.46112,7.21405,8.49176,7.16876,8.51416
	C7.16998,8.50946,7.17267,8.50488,7.17694,8.5014z M16.99268,13.22913c-0.15698,1.70105-0.41632,2.71423-0.52362,3.0462
	C15.92706,17.95703,15.46436,18,14.15173,18c-1.67413,0-2.18665-0.24872-2.18665-1.58795c0-1.47522,0.69403-1.50629,1.8736-1.47388
	c0.16895,0.00421-0.00964,0.16931-0.00964,0.4549c0,0.28711,0.1106,0.40045-0.04181,0.40045
	c-0.34113,0-0.80139-0.04877-0.80139,0.41663c0,0.57581,0.27625,0.55701,1.00104,0.55701c0.8941,0,1.06512-0.11163,1.06512-0.9259
	c0-1.33838-0.3786-1.5437-0.90027-1.60364c-0.57697-0.06763-1.14478-0.15417-1.41846-0.25122
	c-0.69336-0.24628-0.64386-1.16412-0.64386-1.42352c0-0.03906-0.05481-0.03735-0.05481,0c0,0.36743-0.02625,0.87512-0.21509,1.44727
	c-0.0589,0.16479-0.10175,0.2771-0.10248,0.27826c-0.21753,0.45599-0.58246,0.29962-1.16394,0.22522
	c-0.58252-0.07422-1.82544-0.33337-2.36957-0.56635c-0.2442-0.1134-0.32703-0.22058-0.45129-0.47784
	c-0.32062-0.66132-0.6582-2.83569-0.69983-3.14697C6.98236,9.92023,6.98016,9.7124,6.98016,9.7124
	c-0.00067-0.25433,0.02545-0.5036,0.1759-0.70557c0.07556-0.10168,0.17505-0.18762,0.31549-0.2514
	c0.14026-0.06372,0.32385-0.10413,0.56409-0.10413h1.1264C9.40753,8.651,9.60571,8.45203,9.60583,8.20758
	c0-0.00165-0.0036-0.24725-0.0069-0.52185C9.59558,7.41205,9.59192,7.10394,9.59192,6.97314
	c0.00049-0.23108,0.05902-0.39648,0.14948-0.52557c0.13489-0.1933,0.37732-0.31873,0.59631-0.37994
	c0.27557-0.07727,1.34894-0.14478,2.04364,0.13483c0.26074,0.1051,0.49377,0.40857,0.5423,0.74084
	c0.40411-0.01251,1.07318-0.01788,1.64246,0.04919c0.70758,0.08337,1.27069,0.18738,1.54846,0.28772
	c0.25739,0.09283,0.54211,0.3288,0.63159,0.80768C16.89905,8.90723,17.09186,12.15356,16.99268,13.22913z"/>
</svg>
