<?xml version="1.0" encoding="utf-8"?>
<!-- Generator: Adobe Illustrator 19.1.0, SVG Export Plug-In . SVG Version: 6.00 Build 0)  -->
<!DOCTYPE svg PUBLIC "-//W3C//DTD SVG 1.1//EN" "http://www.w3.org/Graphics/SVG/1.1/DTD/svg11.dtd">
<svg version="1.1" id="Layer_1" xmlns="http://www.w3.org/2000/svg" xmlns:xlink="http://www.w3.org/1999/xlink" x="0px" y="0px"
	 width="24px" height="24px" viewBox="0 0 24 24" enable-background="new 0 0 24 24" xml:space="preserve">
<path fill="#444444" d="M23.98835,6.42337c-0.10701,2.33595-1.73836,5.5343-4.89469,9.59449
	c-3.26304,4.23977-6.02402,6.36052-8.28167,6.36052c-1.39944,0-2.58324-1.29064-3.55038-3.87358
	c-0.64571-2.36757-1.29081-4.73498-1.93686-7.10271C4.60638,8.82063,3.83641,7.52833,3.01232,7.52833
	c-0.17967,0-0.80789,0.37784-1.88369,1.13013l-1.12864-1.45411C1.18443,6.16389,2.35263,5.12346,3.50205,4.0814
	C5.08182,2.71697,6.26855,1.99892,7.0589,1.92645c1.86716-0.17954,3.01688,1.09702,3.44825,3.82945
	c0.46638,2.94846,0.78939,4.78203,0.97036,5.49959c0.53905,2.44638,1.13159,3.66827,1.77828,3.66827
	c0.50175,0,1.25677-0.79331,2.26316-2.38085c1.00444-1.58628,1.54281-2.79343,1.61544-3.62321
	c0.1437-1.36928-0.39501-2.05542-1.61544-2.05542c-0.57471,0-1.16726,0.13218-1.77664,0.39342
	c1.17988-3.86272,3.4333-5.73877,6.75924-5.63173C22.96771,1.69829,24.13072,3.29736,23.98835,6.42337z"/>
</svg>
