<?xml version="1.0" encoding="utf-8"?>
<!-- Generator: Adobe Illustrator 19.1.0, SVG Export Plug-In . SVG Version: 6.00 Build 0)  -->
<!DOCTYPE svg PUBLIC "-//W3C//DTD SVG 1.1//EN" "http://www.w3.org/Graphics/SVG/1.1/DTD/svg11.dtd">
<svg version="1.1" id="Layer_1" xmlns="http://www.w3.org/2000/svg" xmlns:xlink="http://www.w3.org/1999/xlink" x="0px" y="0px"
	 width="24px" height="24px" viewBox="0 0 24 24" enable-background="new 0 0 24 24" xml:space="preserve">
<path fill="#444444" d="M21,0H3C1.34314,0,0,1.34314,0,3v18c0,1.65686,1.34314,3,3,3h18c1.65686,0,3-1.34314,3-3V3
	C24,1.34314,22.65686,0,21,0z M16.77155,9.5528c0.0047,0.10559,0.00714,0.21173,0.00714,0.31848
	c0,3.25336-2.47632,7.00476-7.00476,7.00476c-1.39032,0-2.68439-0.40753-3.77393-1.10608
	c0.19257,0.02277,0.38855,0.03442,0.58728,0.03442c1.15344,0,2.21503-0.39362,3.05762-1.05389
	c-1.07733-0.0199-1.98657-0.73169-2.29987-1.70978c0.15033,0.02869,0.30457,0.04413,0.4632,0.04413
	c0.22455,0,0.44202-0.03009,0.64862-0.0863c-1.12622-0.22614-1.97485-1.22119-1.97485-2.41406c0-0.01038,0-0.02069,0.00018-0.03094
	c0.33197,0.18439,0.71155,0.29517,1.11511,0.30792c-0.66058-0.44153-1.09521-1.19507-1.09521-2.04919
	c0-0.45117,0.1214-0.87408,0.33331-1.23773c1.21429,1.4895,3.02832,2.46967,5.07446,2.57233
	c-0.04199-0.18018-0.06378-0.3681-0.06378-0.56104c0-1.35962,1.10236-2.46191,2.46204-2.46191
	c0.70807,0,1.3479,0.29901,1.797,0.77747c0.56085-0.11041,1.08771-0.31531,1.56335-0.59741
	C17.48468,7.87885,17.0943,8.36133,16.586,8.66602c0.49805-0.05951,0.97247-0.19189,1.414-0.3877
	C17.66992,8.77203,17.2525,9.20569,16.77155,9.5528z"/>
</svg>
