<?xml version="1.0" encoding="utf-8"?>
<!-- Generator: Adobe Illustrator 19.1.0, SVG Export Plug-In . SVG Version: 6.00 Build 0)  -->
<!DOCTYPE svg PUBLIC "-//W3C//DTD SVG 1.1//EN" "http://www.w3.org/Graphics/SVG/1.1/DTD/svg11.dtd">
<svg version="1.1" id="Layer_1" xmlns="http://www.w3.org/2000/svg" xmlns:xlink="http://www.w3.org/1999/xlink" x="0px" y="0px"
	 width="24px" height="24px" viewBox="0 0 24 24" enable-background="new 0 0 24 24" xml:space="preserve">
<path fill="#444444" d="M9.87256,12.33069H7.7063v1.98889h2.06641c0.31055-0.00867,0.8844-0.10614,0.8844-0.96686
	C10.6571,12.32043,9.87256,12.33069,9.87256,12.33069z"/>
<path fill="#444444" d="M15.41864,11.18353c-1.1496,0-1.30969,1.14716-1.30969,1.14716h2.4447
	C16.55365,12.33069,16.56824,11.18353,15.41864,11.18353z"/>
<path fill="#444444" d="M10.39899,10.297c0-0.77423-0.52643-0.77423-0.52643-0.77423H9.59381H7.7063v1.66077h2.03204
	C10.08929,11.18353,10.39899,11.07129,10.39899,10.297z"/>
<path fill="#444444" d="M12,0C5.37256,0,0,5.37256,0,12c0,6.62738,5.37256,12,12,12s12-5.37262,12-12C24,5.37256,18.62744,0,12,0z
	 M13.78857,8.63843h3.07037v0.91669h-3.07037V8.63843z M12.23657,13.44562c0,2.27118-2.36401,2.19666-2.36401,2.19666H7.7063H7.6427
	H6v-7.4422h1.6427h0.0636h2.16626c1.17682,0,2.10596,0.6499,2.10596,1.98163s-1.13556,1.41608-1.13556,1.41608
	C12.33978,11.59778,12.23657,13.44562,12.23657,13.44562z M17.9798,13.32404h-3.85626c0,1.38251,1.30969,1.29492,1.30969,1.29492
	c1.23688,0,1.19324-0.80023,1.19324-0.80023h1.30969c0,2.12451-2.54657,1.97906-2.54657,1.97906
	c-3.05579,0-2.85938-2.84491-2.85938-2.84491s-0.00256-2.85938,2.85931-2.85938
	C18.40167,10.09351,17.9798,13.32404,17.9798,13.32404z"/>
</svg>
