<?xml version="1.0" encoding="utf-8"?>
<!-- Generator: Adobe Illustrator 19.1.0, SVG Export Plug-In . SVG Version: 6.00 Build 0)  -->
<!DOCTYPE svg PUBLIC "-//W3C//DTD SVG 1.1//EN" "http://www.w3.org/Graphics/SVG/1.1/DTD/svg11.dtd">
<svg version="1.1" id="Layer_1" xmlns="http://www.w3.org/2000/svg" xmlns:xlink="http://www.w3.org/1999/xlink" x="0px" y="0px"
	 width="24px" height="24px" viewBox="0 0 24 24" enable-background="new 0 0 24 24" xml:space="preserve">
<path fill="#444444" d="M12,0C5.37256,0,0,5.37256,0,12c0,6.62738,5.37256,12,12,12s12-5.37262,12-12C24,5.37256,18.62744,0,12,0z
	 M10,17H7c-0.55228,0-1-0.44772-1-1V7c0-0.55228,0.44772-1,1-1h3c0.55229,0,1,0.44772,1,1v9C11,16.55228,10.55229,17,10,17z M17,14
	h-3c-0.55229,0-1-0.44771-1-1V7c0-0.55228,0.44771-1,1-1h3c0.55228,0,1,0.44772,1,1v6C18,13.55229,17.55228,14,17,14z"/>
</svg>
