<?xml version="1.0" encoding="utf-8"?>
<!-- Generator: Adobe Illustrator 19.1.0, SVG Export Plug-In . SVG Version: 6.00 Build 0)  -->
<!DOCTYPE svg PUBLIC "-//W3C//DTD SVG 1.1//EN" "http://www.w3.org/Graphics/SVG/1.1/DTD/svg11.dtd">
<svg version="1.1" id="Layer_1" xmlns="http://www.w3.org/2000/svg" xmlns:xlink="http://www.w3.org/1999/xlink" x="0px" y="0px"
	 width="24px" height="24px" viewBox="0 0 24 24" enable-background="new 0 0 24 24" xml:space="preserve">
<path fill="#444444" d="M12,0C5.37256,0,0,5.37256,0,12c0,6.62738,5.37256,12,12,12s12-5.37262,12-12C24,5.37256,18.62744,0,12,0z
	 M15.72223,8.20831l-2.20996,4.2168l0.16827,0.18597h2.04169v2.97223H12l-0.23547,0.17664l-1.02844,1.96228L10.47223,18H8.27777
	v-2.22223l2.19714-4.19177l-0.1416-0.18323H8.27777V8.41663h3.71558l0.2196-0.14648L13.25,6.29163L13.54169,6h2.18054V8.20831z"/>
</svg>
