<?xml version="1.0" encoding="utf-8"?>
<!-- Generator: Adobe Illustrator 19.1.0, SVG Export Plug-In . SVG Version: 6.00 Build 0)  -->
<!DOCTYPE svg PUBLIC "-//W3C//DTD SVG 1.1//EN" "http://www.w3.org/Graphics/SVG/1.1/DTD/svg11.dtd">
<svg version="1.1" id="Layer_1" xmlns="http://www.w3.org/2000/svg" xmlns:xlink="http://www.w3.org/1999/xlink" x="0px" y="0px"
	 width="24px" height="24px" viewBox="0 0 24 24" enable-background="new 0 0 24 24" xml:space="preserve">
<path fill="#444444" d="M12.00005,0.00008C5.37265,0.00008,0,5.37261,0,11.99999c0,5.08371,3.16291,9.42584,7.62688,11.17431
	c-0.10497-0.94943-0.19962-2.40571,0.04164-3.44239c0.21791-0.93635,1.40715-5.96482,1.40715-5.96482
	s-0.35904-0.71867-0.35904-1.78139c0-1.66855,0.9672-2.91425,2.17135-2.91425c1.02379,0,1.51834,0.7687,1.51834,1.69034
	c0,1.02958-0.65548,2.56892-0.99387,3.99529c-0.28266,1.19464,0.59901,2.16877,1.777,2.16877
	c2.13293,0,3.77233-2.24911,3.77233-5.49529c0-2.87312-2.06443-4.88198-5.01248-4.88198c-3.41432,0-5.41843,2.56104-5.41843,5.20759
	c0,1.03139,0.3973,2.13731,0.89302,2.7385c0.09799,0.1189,0.11233,0.22296,0.08315,0.34405
	c-0.09103,0.37925-0.29347,1.19438-0.33319,1.36111c-0.05236,0.21961-0.17397,0.26616-0.40133,0.16043
	c-1.49883-0.69777-2.4358-2.88899-2.4358-4.64884c0-3.78535,2.75035-7.26171,7.92877-7.26171
	c4.16266,0,7.39776,2.96622,7.39776,6.93056c0,4.13572-2.60759,7.46404-6.22682,7.46404c-1.21606,0-2.35911-0.63174-2.75038-1.37801
	c0,0-0.60171,2.29128-0.74752,2.85262c-0.27107,1.04225-1.00241,2.34878-1.49163,3.14584
	c1.12285,0.3476,2.31607,0.53515,3.55316,0.53515C18.62746,23.99992,24,18.62739,24,11.99999
	C24,5.37261,18.62746,0.00008,12.00005,0.00008z"/>
</svg>
