<?xml version="1.0" encoding="utf-8"?>
<!-- Generator: Adobe Illustrator 19.1.0, SVG Export Plug-In . SVG Version: 6.00 Build 0)  -->
<!DOCTYPE svg PUBLIC "-//W3C//DTD SVG 1.1//EN" "http://www.w3.org/Graphics/SVG/1.1/DTD/svg11.dtd">
<svg version="1.1" id="Layer_1" xmlns="http://www.w3.org/2000/svg" xmlns:xlink="http://www.w3.org/1999/xlink" x="0px" y="0px"
	 width="24px" height="24px" viewBox="0 0 24 24" enable-background="new 0 0 24 24" xml:space="preserve">
<path fill="#444444" d="M12.09467,12.47168l-1.61871,4.70312c0.4834,0.14215,0.99451,0.21979,1.52399,0.21979
	c0.62817,0,1.23071-0.10846,1.79138-0.30585c-0.01428-0.02307-0.02771-0.04767-0.03864-0.07434L12.09467,12.47168z"/>
<path fill="#444444" d="M15.6416,11.72772c0-0.66693-0.23962-1.12848-0.44476-1.48773
	c-0.27338-0.44458-0.52991-0.82068-0.52991-1.26526c0-0.49579,0.37604-0.9574,0.90588-0.9574
	c0.02393,0,0.04663,0.00293,0.06989,0.00439c-0.95972-0.87939-2.2384-1.41632-3.64276-1.41632
	c-1.88464,0-3.5426,0.96704-4.50714,2.4314c0.12665,0.00403,0.24591,0.00653,0.34717,0.00653
	c0.56409,0,1.43768-0.0686,1.43768-0.0686C9.56836,8.9577,9.60266,9.38495,9.31219,9.41931c0,0-0.29236,0.03418-0.61737,0.05127
	l1.96436,5.84326l1.18066-3.54053l-0.84039-2.30273c-0.29065-0.01709-0.56586-0.05127-0.56586-0.05127
	c-0.29077-0.01721-0.25665-0.46161,0.03424-0.44458c0,0,0.89069,0.0686,1.42072,0.0686c0.56409,0,1.43781-0.0686,1.43781-0.0686
	c0.29083-0.01703,0.32507,0.41022,0.03442,0.44458c0,0-0.29266,0.03418-0.61737,0.05127l1.94952,5.79877l0.53821-1.79773
	C15.46399,12.72516,15.6416,12.18933,15.6416,11.72772z"/>
<path fill="#444444" d="M6.60559,11.99976c0,2.13519,1.24072,3.98065,3.04034,4.85492L7.07269,9.80438
	C6.77332,10.47522,6.60559,11.21765,6.60559,11.99976z"/>
<path fill="#444444" d="M14.71204,16.66248c1.6037-0.93506,2.68225-2.67255,2.68225-4.66272
	c0-0.93787-0.23962-1.81958-0.66071-2.58789c0.02319,0.17175,0.03632,0.35608,0.03632,0.55469
	c0,0.54718-0.10254,1.16254-0.41022,1.93213L14.71204,16.66248z"/>
<path fill="#444444" d="M21,0H3C1.34314,0,0,1.34314,0,3v18c0,1.65686,1.34314,3,3,3h18c1.65686,0,3-1.34314,3-3V3
	C24,1.34314,22.65686,0,21,0z M11.99994,18c-3.30835,0-5.99988-2.69177-5.99988-6.00024C6.00006,8.69147,8.69159,6,11.99994,6
	c3.30829,0,6,2.69147,6,5.99976C17.99994,15.30823,15.30823,18,11.99994,18z"/>
</svg>
