<?xml version="1.0" encoding="utf-8"?>
<!-- Generator: Adobe Illustrator 19.1.0, SVG Export Plug-In . SVG Version: 6.00 Build 0)  -->
<!DOCTYPE svg PUBLIC "-//W3C//DTD SVG 1.1//EN" "http://www.w3.org/Graphics/SVG/1.1/DTD/svg11.dtd">
<svg version="1.1" id="Layer_1" xmlns="http://www.w3.org/2000/svg" xmlns:xlink="http://www.w3.org/1999/xlink" x="0px" y="0px"
	 width="24px" height="24px" viewBox="0 0 24 24" enable-background="new 0 0 24 24" xml:space="preserve">
<path fill="#444444" d="M12,0C5.37256,0,0,5.37256,0,12c0,6.62738,5.37256,12,12,12s12-5.37262,12-12C24,5.37256,18.62744,0,12,0z
	 M8.66669,14.66663C7.19391,14.66663,6,13.47272,6,12c0-1.47278,1.19391-2.66669,2.66669-2.66669S11.33331,10.52722,11.33331,12
	C11.33331,13.47272,10.13947,14.66663,8.66669,14.66663z M15.33331,14.66663c-1.47278,0-2.66663-1.19391-2.66663-2.66663
	c0-1.47278,1.19385-2.66669,2.66663-2.66669S18,10.52722,18,12C18,13.47272,16.80609,14.66663,15.33331,14.66663z"/>
</svg>
