<?xml version="1.0" encoding="utf-8"?>
<!-- Generator: Adobe Illustrator 19.1.0, SVG Export Plug-In . SVG Version: 6.00 Build 0)  -->
<!DOCTYPE svg PUBLIC "-//W3C//DTD SVG 1.1//EN" "http://www.w3.org/Graphics/SVG/1.1/DTD/svg11.dtd">
<svg version="1.1" id="Layer_1" xmlns="http://www.w3.org/2000/svg" xmlns:xlink="http://www.w3.org/1999/xlink" x="0px" y="0px"
	 width="24px" height="24px" viewBox="0 0 24 24" enable-background="new 0 0 24 24" xml:space="preserve">
<path fill="#444444" d="M22.52015,11.93125c-0.61826,0.14252-1.21628,0.2054-1.75461,0.2054
	c-3.0281,0-5.35947-2.11483-5.35947-5.79204c0-1.80236,0.69686-2.73968,1.68226-2.73968c0.9375,0,1.56245,0.84113,1.56245,2.54752
	c0,0.97022-0.25985,2.0335-0.45171,2.66256c0,0,0.93313,1.62781,3.48476,1.12824c0.54183-1.20285,0.83633-2.76064,0.83633-4.12714
	C22.52015,2.13889,20.64545,0,17.20858,0c-3.53265,0-5.59963,2.7158-5.59963,6.29683c0,3.5475,1.65835,6.59259,4.39296,7.98006
	c-1.1499,2.30022-2.61306,4.3264-4.13901,5.85303C9.0943,16.78309,6.59144,12.31818,5.56442,3.60493H1.47985
	c1.88711,14.51155,7.51095,19.13223,8.99792,20.01951c0.84116,0.5047,1.56536,0.48069,2.33447,0.04789
	c1.20739-0.68653,4.83263-4.31111,6.84199-8.55679c0.84346-0.00233,1.8568-0.09913,2.86593-0.32717V11.93125z"/>
</svg>
