<?xml version="1.0" encoding="utf-8"?>
<!-- Generator: Adobe Illustrator 19.1.0, SVG Export Plug-In . SVG Version: 6.00 Build 0)  -->
<!DOCTYPE svg PUBLIC "-//W3C//DTD SVG 1.1//EN" "http://www.w3.org/Graphics/SVG/1.1/DTD/svg11.dtd">
<svg version="1.1" id="Layer_1" xmlns="http://www.w3.org/2000/svg" xmlns:xlink="http://www.w3.org/1999/xlink" x="0px" y="0px"
	 width="24px" height="24px" viewBox="0 0 24 24" enable-background="new 0 0 24 24" xml:space="preserve">
<path fill="#444444" d="M12,0C5.37256,0,0,5.37256,0,12c0,6.62738,5.37256,12,12,12s12-5.37262,12-12C24,5.37256,18.62744,0,12,0z
	 M15.54681,14.00891c-1.63147,2.11987-3.01196,3.18024-4.14081,3.18024c-0.69971,0-1.29163-0.64532-1.77521-1.93677
	c-0.32281-1.18378-0.64539-2.36749-0.96844-3.55133c-0.35919-1.29077-0.74414-1.93689-1.15619-1.93689
	c-0.08984,0-0.40393,0.1889-0.94183,0.56506L6,9.60217c0.59222-0.52026,1.17633-1.04047,1.75104-1.56146
	C8.54089,7.35846,9.13428,6.99945,9.52948,6.9632c0.93353-0.08978,1.50842,0.54852,1.72412,1.91473
	c0.23315,1.47424,0.39465,2.39099,0.48517,2.74982c0.26953,1.22314,0.5658,1.83411,0.8891,1.83411
	c0.25092,0,0.62842-0.39667,1.13159-1.19043c0.50226-0.79315,0.77142-1.39673,0.80774-1.81158
	c0.07184-0.68463-0.19751-1.02771-0.80774-1.02771c-0.28735,0-0.58362,0.0661-0.88831,0.19672
	c0.58997-1.9314,1.71667-2.86938,3.37964-2.81586c1.23309,0.03613,1.81458,0.83569,1.74341,2.39868
	C17.94067,10.37964,17.125,11.97882,15.54681,14.00891z"/>
</svg>
