<?xml version="1.0" encoding="utf-8"?>
<!-- Generator: Adobe Illustrator 19.1.0, SVG Export Plug-In . SVG Version: 6.00 Build 0)  -->
<!DOCTYPE svg PUBLIC "-//W3C//DTD SVG 1.1//EN" "http://www.w3.org/Graphics/SVG/1.1/DTD/svg11.dtd">
<svg version="1.1" id="Layer_1" xmlns="http://www.w3.org/2000/svg" xmlns:xlink="http://www.w3.org/1999/xlink" x="0px" y="0px"
	 width="24px" height="24px" viewBox="0 0 24 24" enable-background="new 0 0 24 24" xml:space="preserve">
<path fill="#444444" d="M12.02698,7.00427c-2.72705,0-4.94489,2.21698-4.94598,4.94202
	c-0.00037,0.93378,0.26105,1.84332,0.75592,2.63019l0.11755,0.18701l-0.49945,1.82379l1.87115-0.49072l0.18054,0.10712
	c0.75903,0.45032,1.62915,0.6886,2.51624,0.6889h0.00208c2.72491,0,4.94275-2.2171,4.94385-4.94232
	c0.00049-1.32062-0.51324-2.56238-1.44666-3.49652C14.58881,7.51953,13.34747,7.00476,12.02698,7.00427z M14.935,14.07111
	c-0.1239,0.34705-0.71765,0.66388-1.00317,0.70654c-0.2561,0.03821-0.58008,0.0542-0.93616-0.0589
	c-0.21582-0.06848-0.49268-0.15991-0.84729-0.31299c-1.49091-0.64355-2.4646-2.14429-2.53888-2.24347
	c-0.07434-0.09918-0.60687-0.80566-0.60687-1.53699c0-0.73126,0.38391-1.09076,0.52014-1.2395
	C9.659,9.23712,9.82001,9.19989,9.91907,9.19989c0.09912,0,0.1983,0.00092,0.28485,0.00525
	c0.09125,0.00452,0.21381-0.03467,0.33441,0.25507c0.12384,0.29749,0.42108,1.02881,0.45825,1.10315
	s0.06195,0.16113,0.01239,0.26031c-0.04956,0.09912-0.07434,0.16113-0.14862,0.24786
	c-0.07434,0.08679-0.15607,0.19373-0.22296,0.26031c-0.0744,0.07404-0.15186,0.15448-0.06512,0.30322
	c0.08667,0.14874,0.38495,0.63531,0.82678,1.0293c0.56769,0.50616,1.04657,0.66309,1.19519,0.73743
	c0.14862,0.0744,0.23535,0.06195,0.32202-0.03717c0.08667-0.09918,0.37152-0.43384,0.47058-0.58258
	c0.09912-0.14874,0.19818-0.12396,0.33441-0.07434c0.13623,0.04956,0.86694,0.409,1.01556,0.4834
	c0.14862,0.07434,0.24768,0.11151,0.28485,0.17352C15.05884,13.42657,15.05884,13.72406,14.935,14.07111z"/>
<path fill="#444444" d="M12,0C5.37256,0,0,5.37256,0,12c0,6.62738,5.37256,12,12,12s12-5.37262,12-12C24,5.37256,18.62744,0,12,0z
	 M12.02502,17.89685h-0.00244c-0.99554-0.00037-1.97369-0.25-2.84253-0.72375L6.02686,18l0.84387-3.08136
	c-0.52051-0.90173-0.79443-1.92474-0.79401-2.97278C6.07806,8.6673,8.7464,6,12.02496,6
	c1.59119,0.00061,3.08466,0.61993,4.20764,1.74384c1.12305,1.12396,1.74115,2.61792,1.74054,4.20679
	C17.9718,15.22919,15.30322,17.89685,12.02502,17.89685z"/>
</svg>
