<?xml version="1.0" encoding="utf-8"?>
<!-- Generator: Adobe Illustrator 19.1.0, SVG Export Plug-In . SVG Version: 6.00 Build 0)  -->
<!DOCTYPE svg PUBLIC "-//W3C//DTD SVG 1.1//EN" "http://www.w3.org/Graphics/SVG/1.1/DTD/svg11.dtd">
<svg version="1.1" id="Layer_1" xmlns="http://www.w3.org/2000/svg" xmlns:xlink="http://www.w3.org/1999/xlink" x="0px" y="0px"
	 width="24px" height="24px" viewBox="0 0 24 24" enable-background="new 0 0 24 24" xml:space="preserve">
<path fill="#444444" d="M24,4.55671c-0.88301,0.39161-1.83194,0.65634-2.82804,0.77533
	c1.01666-0.60936,1.7974-1.57433,2.16501-2.72414c-0.95134,0.56428-2.00512,0.97406-3.12672,1.1949
	c-0.89818-0.957-2.17787-1.55496-3.59403-1.55496c-2.71943,0-4.92403,2.20462-4.92403,4.92378
	c0,0.38595,0.04355,0.7617,0.12748,1.12211C7.72747,8.0884,4.09932,6.12812,1.67078,3.14911
	C1.24693,3.87636,1.00415,4.72216,1.00415,5.62454c0,1.70824,0.86929,3.21537,2.19047,4.09838
	C2.38748,9.69738,1.62825,9.47585,0.96437,9.10704c-0.00034,0.02058-0.00042,0.04115-0.00042,0.0619
	c0,2.38572,1.69726,4.37584,3.9498,4.82815c-0.41321,0.11247-0.8482,0.17266-1.29725,0.17266
	c-0.31729,0-0.62574-0.03087-0.9264-0.0883c0.6266,1.95617,2.445,3.37979,4.59964,3.41957
	c-1.68518,1.32058-3.80827,2.10774-6.11516,2.10774c-0.39745,0-0.7894-0.02332-1.17458-0.06875
	c2.17907,1.39704,4.76724,2.21216,7.54787,2.21216c9.05687,0,14.00945-7.50286,14.00945-14.00958
	c0-0.21347-0.00479-0.42582-0.01423-0.63697C22.50505,6.41137,23.33989,5.54413,24,4.55671z"/>
</svg>
