<?xml version="1.0" encoding="utf-8"?>
<!-- Generator: Adobe Illustrator 19.1.0, SVG Export Plug-In . SVG Version: 6.00 Build 0)  -->
<!DOCTYPE svg PUBLIC "-//W3C//DTD SVG 1.1//EN" "http://www.w3.org/Graphics/SVG/1.1/DTD/svg11.dtd">
<svg version="1.1" id="Layer_1" xmlns="http://www.w3.org/2000/svg" xmlns:xlink="http://www.w3.org/1999/xlink" x="0px" y="0px"
	 width="24px" height="24px" viewBox="0 0 24 24" enable-background="new 0 0 24 24" xml:space="preserve">
<path fill-rule="evenodd" clip-rule="evenodd" fill="#444444" d="M11.99922,0.29632C5.37319,0.29632,0,5.66885,0,12.29702
	c0,5.30129,3.43803,9.79902,8.20693,11.38602c0.60002,0.11006,0.81903-0.26041,0.81903-0.57843
	c0-0.28487-0.01039-1.03951-0.01621-2.04094c-3.33799,0.72518-4.04232-1.60859-4.04232-1.60859
	c-0.54565-1.38626-1.33234-1.75533-1.33234-1.75533C2.54556,16.9552,3.71752,16.9703,3.71752,16.9703
	c1.20424,0.08486,1.83806,1.23664,1.83806,1.23664c1.07045,1.83379,2.80855,1.30427,3.49232,0.99708
	c0.10903-0.77549,0.41902-1.30427,0.76186-1.60424c-2.66468-0.30284-5.46601-1.33234-5.46601-5.93077
	c0-1.31002,0.46756-2.38121,1.23517-3.22005C5.45555,8.14538,5.04375,6.92531,5.69658,5.27318c0,0,1.00754-0.32266,3.29991,1.23016
	c0.95715-0.26616,1.9837-0.39927,3.00421-0.40391c1.01903,0.00464,2.04566,0.13776,3.00421,0.40391
	c2.29097-1.55282,3.29667-1.23016,3.29667-1.23016c0.65468,1.65213,0.24281,2.8722,0.11941,3.17578
	c0.76908,0.83884,1.23348,1.91003,1.23348,3.22005c0,4.60992-2.80568,5.62432-5.47897,5.92141
	c0.43088,0.37047,0.81468,1.10287,0.81468,2.22223c0,1.60424-0.01473,2.89849-0.01473,3.29195
	c0,0.32089,0.21614,0.69424,0.82514,0.57703C20.56484,22.09169,24,17.59691,24,12.29702
	C24,5.66885,18.62674,0.29632,11.99922,0.29632z"/>
</svg>
