<?xml version="1.0" encoding="utf-8"?>
<!-- Generator: Adobe Illustrator 19.1.0, SVG Export Plug-In . SVG Version: 6.00 Build 0)  -->
<!DOCTYPE svg PUBLIC "-//W3C//DTD SVG 1.1//EN" "http://www.w3.org/Graphics/SVG/1.1/DTD/svg11.dtd">
<svg version="1.1" id="Layer_1" xmlns="http://www.w3.org/2000/svg" xmlns:xlink="http://www.w3.org/1999/xlink" x="0px" y="0px"
	 width="24px" height="24px" viewBox="0 0 24 24" enable-background="new 0 0 24 24" xml:space="preserve">
<path fill="#444444" d="M9.97339,0.87635C9.93481,0.85461,9.89472,0.83606,9.85538,0.81527
	c-0.0401,0.00798-0.0802,0.01615-0.12026,0.02395L9.97339,0.87635z"/>
<path fill="#444444" d="M0.86408,9.86761c-0.00779,0.04082-0.013,0.08221-0.02003,0.12341
	c0.02117,0.03786,0.03972,0.07667,0.06123,0.11395L0.86408,9.86761z"/>
<path fill="#444444" d="M23.12962,14.12551c0.00817-0.04211,0.01334-0.0848,0.02113-0.1271
	c-0.02113-0.0377-0.03968-0.07685-0.06195-0.11452L23.12962,14.12551z"/>
<path fill="#444444" d="M13.87591,23.03847c0.03862,0.02246,0.07757,0.04158,0.11543,0.0631
	c0.04268-0.0076,0.08464-0.01262,0.12657-0.02075L13.87591,23.03847z"/>
<path fill="#444444" d="M23.15075,13.99841c-0.00779,0.0423-0.01296,0.08499-0.02113,0.1271l-0.04082-0.24162
	C23.11107,13.92155,23.12962,13.9607,23.15075,13.99841c0.1236-0.67408,0.18856-1.36426,0.18856-2.05407
	c0-1.52998-0.2995-3.01431-0.89117-4.41122c-0.57084-1.34978-1.38745-2.56182-2.42894-3.6024
	c-1.04001-1.04077-2.25266-1.85754-3.60187-2.42842c-1.39672-0.5911-2.88105-0.89045-4.41065-0.89045
	c-0.72116,0-1.44309,0.06777-2.14609,0.2025C9.85906,0.81455,9.85724,0.8147,9.85538,0.81527
	c0.03934,0.02079,0.07944,0.03934,0.11802,0.06108L9.73512,0.83922c0.04006-0.00779,0.08016-0.01596,0.12026-0.02395
	c-0.9643-0.51277-2.04852-0.7865-3.14642-0.7865c-1.79204,0-3.47679,0.69778-4.74398,1.96535C0.69817,3.26113,0,4.94626,0,6.73826
	c0,1.14062,0.29323,2.26194,0.84404,3.25276c0.00703-0.0412,0.01224-0.08259,0.02003-0.12341l0.0412,0.23736
	c-0.02151-0.03729-0.04006-0.07609-0.06123-0.11395C0.7323,10.63298,0.67331,11.289,0.67331,11.94434
	c0,1.52998,0.29954,3.01408,0.89118,4.41137c0.57012,1.35016,1.38745,2.56167,2.42784,3.60225
	c1.04115,1.0404,2.25266,1.85844,3.60297,2.4278c1.39672,0.59239,2.88139,0.89194,4.41137,0.89194
	c0.6659,0,1.33325-0.06051,1.98467-0.17613c-0.03786-0.02151-0.07681-0.04063-0.11543-0.0631l0.242,0.04234
	c-0.04192,0.00813-0.08388,0.01315-0.12657,0.02075c1.00364,0.56791,2.1402,0.86966,3.30047,0.86966
	c1.79204,0,3.47603-0.69688,4.74322-1.96479C23.3026,20.74001,24,19.05489,24,17.26265
	C24,16.11815,23.70529,14.99315,23.15075,13.99841z M12.05198,18.88487c-4.0265,0-5.82743-1.97927-5.82743-3.46303
	c0-0.76092,0.56161-1.2941,1.33587-1.2941c1.72298,0,1.27684,2.47406,4.49156,2.47406c1.64541,0,2.55441-0.89361,2.55441-1.8082
	c0-0.54987-0.27134-1.15952-1.35518-1.42659l-3.58104-0.89414c-2.88401-0.72307-3.40738-2.28216-3.40738-3.74775
	c0-3.04323,2.86509-4.18552,5.55571-4.18552c2.47832,0,5.40019,1.36962,5.40019,3.19526c0,0.78225-0.67738,1.23713-1.45126,1.23713
	c-1.47061,0-1.19965-2.03533-4.16162-2.03533c-1.46981,0-2.28417,0.66567-2.28417,1.61812c0,0.95058,1.16103,1.254,2.16874,1.48395
	l2.65091,0.58829c2.90332,0.64659,3.63935,2.34175,3.63935,3.9387C17.78063,17.03848,15.88285,18.88487,12.05198,18.88487z"/>
</svg>
