<?xml version="1.0" encoding="utf-8"?>
<!-- Generator: Adobe Illustrator 19.1.0, SVG Export Plug-In . SVG Version: 6.00 Build 0)  -->
<!DOCTYPE svg PUBLIC "-//W3C//DTD SVG 1.1//EN" "http://www.w3.org/Graphics/SVG/1.1/DTD/svg11.dtd">
<svg version="1.1" id="Layer_1" xmlns="http://www.w3.org/2000/svg" xmlns:xlink="http://www.w3.org/1999/xlink" x="0px" y="0px"
	 width="24px" height="24px" viewBox="0 0 24 24" enable-background="new 0 0 24 24" xml:space="preserve">
<path fill="#444444" d="M12.79999,8.40002H9.40002v3.60004h3.39996V12c0.99414-0.00006,1.79999-0.80591,1.79999-1.79999
	C14.59998,9.20587,13.79413,8.40002,12.79999,8.40002z"/>
<path fill="#444444" d="M21,0H3C1.34314,0,0,1.34314,0,3v18c0,1.65686,1.34314,3,3,3h18c1.65686,0,3-1.34314,3-3V3
	C24,1.34314,22.65686,0,21,0z M12.79999,14.40002H9.40002V18H7V6l5.79999,0.00006V6C15.11963,6,17,7.88043,17,10.20001
	S15.11963,14.40002,12.79999,14.40002z"/>
</svg>
