<?xml version="1.0" encoding="utf-8"?>
<!-- Generator: Adobe Illustrator 19.1.0, SVG Export Plug-In . SVG Version: 6.00 Build 0)  -->
<!DOCTYPE svg PUBLIC "-//W3C//DTD SVG 1.1//EN" "http://www.w3.org/Graphics/SVG/1.1/DTD/svg11.dtd">
<svg version="1.1" id="Layer_1" xmlns="http://www.w3.org/2000/svg" xmlns:xlink="http://www.w3.org/1999/xlink" x="0px" y="0px"
	 width="24px" height="24px" viewBox="0 0 24 24" enable-background="new 0 0 24 24" xml:space="preserve">
<path fill="#444444" d="M23,0H1C0.44772,0,0,0.44771,0,1v22c0,0.55228,0.44772,1,1,1h12v-9h-3v-4h3V8.41269
	c0-3.09988,1.8933-4.78783,4.65861-4.78783c1.32461,0,2.46305,0.09862,2.79482,0.1427v3.23956l-1.91789,0.00087
	c-1.50393,0-1.79513,0.71465-1.79513,1.76334V11h4.44044l-1,4h-3.44044v9H23c0.55228,0,1-0.44772,1-1V1C24,0.44771,23.55228,0,23,0z
	"/>
</svg>
