<?xml version="1.0" encoding="utf-8"?>
<!-- Generator: Adobe Illustrator 19.1.0, SVG Export Plug-In . SVG Version: 6.00 Build 0)  -->
<!DOCTYPE svg PUBLIC "-//W3C//DTD SVG 1.1//EN" "http://www.w3.org/Graphics/SVG/1.1/DTD/svg11.dtd">
<svg version="1.1" id="Layer_1" xmlns="http://www.w3.org/2000/svg" xmlns:xlink="http://www.w3.org/1999/xlink" x="0px" y="0px"
	 width="24px" height="24px" viewBox="0 0 24 24" enable-background="new 0 0 24 24" xml:space="preserve">
<path fill="#444444" d="M3.51606,11.55418c-0.38091,0.6249-0.54167,2.59192-0.41,3.8981
	c0.0466,0.43122,0.12312,0.78982,0.23319,1.00453c0.15218,0.29651,0.40869,0.47313,0.7013,0.48322
	c0.18704,0.0105,0.30352-0.02276,3.82526-1.18163c0,0,1.56554-0.50988,1.5721-0.51336
	c0.39013-0.10059,0.65279-0.46792,0.67914-0.93757c0.02474-0.48014-0.21846-0.90566-0.61796-1.05829
	c0,0-1.10317-0.46046-1.10594-0.46046c-3.78443-1.59666-3.95397-1.6596-4.14547-1.66219
	C3.95658,11.11517,3.69538,11.26558,3.51606,11.55418z"/>
<path fill="#444444" d="M11.98264,23.45196c0.06115-0.18104,0.06842-0.30611,0.07843-4.09103c0,0,0.009-1.67224,0.01009-1.68971
	c0.02456-0.40891-0.23319-0.78146-0.65943-0.95028c-0.43711-0.17186-0.90758-0.06516-1.17136,0.272
	c0,0-0.77141,0.93761-0.77437,0.93761c-2.65288,3.18533-2.7621,3.33225-2.82688,3.52117
	c-0.03933,0.11236-0.05601,0.22914-0.04169,0.34761c0.01586,0.16792,0.08979,0.33547,0.21418,0.49027
	c0.61414,0.74862,3.56301,1.85812,4.50437,1.6941C11.64388,23.92206,11.88071,23.734,11.98264,23.45196z"/>
<path fill="#444444" d="M17.96272,22.13479c0.88876-0.36254,2.82936-2.88626,2.9656-3.85705
	c0.04653-0.33802-0.05669-0.62928-0.28411-0.81471c-0.14899-0.11453-0.26401-0.1596-3.78297-1.3412
	c0,0-1.54387-0.52172-1.56396-0.53177c-0.37281-0.14783-0.80028-0.0114-1.08712,0.35208
	c-0.29667,0.37123-0.34285,0.85925-0.1052,1.23101l0.62182,1.03377c2.08981,3.47172,2.24885,3.7171,2.39975,3.83733
	C17.3589,22.23145,17.65466,22.26245,17.96272,22.13479L17.96272,22.13479z"/>
<path fill="#444444" d="M16.14543,13.1989c4.00008-0.99051,4.15417-1.04386,4.31219-1.14969
	c0.24215-0.16616,0.36355-0.44561,0.34285-0.78629c0-0.01136,0.00172-0.02141,0-0.03404
	c-0.10261-1.00408-1.82479-3.61786-2.67231-4.04162c-0.29992-0.14783-0.60109-0.13774-0.84883,0.03277
	c-0.15473,0.1037-0.26885,0.2585-2.41021,3.25446c0,0-0.96828,1.34911-0.98005,1.36178
	c-0.25542,0.31657-0.25801,0.77272-0.00941,1.16233c0.25779,0.40321,0.69467,0.60042,1.09458,0.48671
	c0,0-0.01665,0.0289-0.02111,0.0346C15.15002,13.44289,15.5031,13.35502,16.14543,13.1989z"/>
<path fill="#444444" d="M12.12841,9.82027L12.12841,9.82027c-0.06838-1.6211-0.54459-8.8419-0.60083-9.17684
	C11.44551,0.3408,11.2151,0.12437,10.8812,0.03818C9.86138-0.22114,5.959,0.89796,5.23479,1.66145
	c-0.23169,0.24755-0.31807,0.55366-0.24856,0.823c0.11303,0.24013,4.94976,8.02198,4.94976,8.02198
	c0.71544,1.1855,1.29834,1.00183,1.48876,0.94102C11.61501,11.38716,12.19447,11.20346,12.12841,9.82027z"/>
</svg>
