<?xml version="1.0" encoding="utf-8"?>
<!-- Generator: Adobe Illustrator 19.1.0, SVG Export Plug-In . SVG Version: 6.00 Build 0)  -->
<!DOCTYPE svg PUBLIC "-//W3C//DTD SVG 1.1//EN" "http://www.w3.org/Graphics/SVG/1.1/DTD/svg11.dtd">
<svg version="1.1" id="Layer_1" xmlns="http://www.w3.org/2000/svg" xmlns:xlink="http://www.w3.org/1999/xlink" x="0px" y="0px"
	 width="24px" height="24px" viewBox="0 0 24 24" enable-background="new 0 0 24 24" xml:space="preserve">
<path fill="#444444" d="M13.07062,11.31348l-1.32544-0.29413c-0.50385-0.11499-1.08435-0.26666-1.08435-0.742
	c0-0.4762,0.40717-0.80902,1.14209-0.80902c1.48096,0,1.34546,1.01764,2.08081,1.01764c0.3869,0,0.72559-0.22742,0.72559-0.61853
	c0-0.91284-1.46094-1.59766-2.70007-1.59766c-1.34534,0-2.77783,0.57117-2.77783,2.09277c0,0.73279,0.26166,1.51233,1.70367,1.8739
	l1.79053,0.44702c0.54193,0.13354,0.67755,0.43842,0.67755,0.71332c0,0.45728-0.45447,0.90411-1.27716,0.90411
	c-1.60736,0-1.38428-1.23706-2.24579-1.23706c-0.38715,0-0.66797,0.2666-0.66797,0.64709c0,0.74182,0.90051,1.73151,2.91376,1.73151
	c1.91541,0,2.86432-0.92322,2.86432-2.15961C14.89032,12.48438,14.52228,11.63678,13.07062,11.31348z"/>
<path fill="#444444" d="M21,0H3C1.34314,0,0,1.34314,0,3v18c0,1.65686,1.34314,3,3,3h18c1.65686,0,3-1.34314,3-3V3
	C24,1.34314,22.65686,0,21,0z M17.01752,17.00317c-0.63361,0.63397-1.47559,0.98242-2.37164,0.98242
	c-0.58008,0-1.14838-0.15088-1.65021-0.43481c-0.32568,0.0578-0.65936,0.08807-0.99231,0.08807
	c-0.76501,0-1.50732-0.14978-2.20569-0.44598c-0.67517-0.28467-1.28094-0.69373-1.80151-1.21393
	c-0.5202-0.52026-0.92883-1.12604-1.21393-1.80109c-0.29578-0.69867-0.44556-1.44073-0.44556-2.20569
	c0-0.3277,0.02948-0.6557,0.08533-0.97668C6.14661,10.50006,6,9.93945,6,9.36914c0-0.89606,0.34906-1.73859,0.98248-2.37207
	c0.63361-0.63379,1.47595-0.98273,2.37201-0.98273c0.54895,0,1.09106,0.1369,1.57318,0.39325
	c0.00098-0.00024,0.00262-0.00043,0.00262-0.00043c0.3515-0.06738,0.71246-0.10126,1.07306-0.10126
	c0.76477,0,1.50696,0.14966,2.20532,0.44525c0.67456,0.2854,1.28088,0.69379,1.8009,1.21417
	c0.52075,0.52032,0.92908,1.12634,1.21448,1.80121c0.29584,0.69849,0.44562,1.44061,0.44562,2.20563
	c0,0.34491-0.03253,0.69-0.0943,1.02704C17.85266,13.49658,18,14.05908,18,14.63129C18,15.5274,17.65131,16.37,17.01752,17.00317z"
	/>
</svg>
