<?xml version="1.0" encoding="utf-8"?>
<!-- Generator: Adobe Illustrator 19.1.0, SVG Export Plug-In . SVG Version: 6.00 Build 0)  -->
<!DOCTYPE svg PUBLIC "-//W3C//DTD SVG 1.1//EN" "http://www.w3.org/Graphics/SVG/1.1/DTD/svg11.dtd">
<svg version="1.1" id="Layer_1" xmlns="http://www.w3.org/2000/svg" xmlns:xlink="http://www.w3.org/1999/xlink" x="0px" y="0px"
	 width="24px" height="24px" viewBox="0 0 24 24" enable-background="new 0 0 24 24" xml:space="preserve">
<path fill="#444444" d="M21,0H3C1.34314,0,0,1.34314,0,3v18c0,1.65686,1.34314,3,3,3h18c1.65686,0,3-1.34314,3-3V3
	C24,1.34314,22.65686,0,21,0z M15.11591,7.992l-1.12958,0.00049c-0.88574,0-1.05725,0.4209-1.05725,1.03851v1.362h2.11243
	l-0.27502,2.13324h-1.8374V18h-2.20294v-5.47375H8.88409v-2.13324h1.84204V8.81976C10.72614,6.99408,11.84125,6,13.46985,6
	c0.78015,0,1.45062,0.05804,1.64606,0.08405V7.992z"/>
</svg>
