<?xml version="1.0" encoding="utf-8"?>
<!-- Generator: Adobe Illustrator 19.2.1, SVG Export Plug-In . SVG Version: 6.00 Build 0)  -->
<!DOCTYPE svg PUBLIC "-//W3C//DTD SVG 1.1//EN" "http://www.w3.org/Graphics/SVG/1.1/DTD/svg11.dtd">
<svg version="1.1" id="Layer_1" xmlns="http://www.w3.org/2000/svg" xmlns:xlink="http://www.w3.org/1999/xlink" x="0px" y="0px"
	 width="24px" height="24px" viewBox="0 0 24 24" enable-background="new 0 0 24 24" xml:space="preserve">
<path d="M21.986,2.014c-1.375-1.375-3.088-1.853-5.038-1.942C15.668,0.014,15.259,0,12,0S8.332,0.014,7.052,0.072
	c-1.95,0.089-3.663,0.567-5.038,1.942C0.639,3.389,0.161,5.102,0.072,7.052C0.014,8.332,0,8.741,0,12
	c0,3.259,0.014,3.668,0.072,4.948c0.089,1.95,0.567,3.663,1.942,5.038c1.375,1.375,3.088,1.853,5.038,1.942
	C8.332,23.986,8.741,24,12,24s3.668-0.014,4.948-0.072c1.95-0.089,3.663-0.567,5.038-1.942c1.375-1.375,1.853-3.088,1.942-5.038
	C23.986,15.668,24,15.259,24,12c0-3.259-0.014-3.668-0.072-4.948C23.839,5.103,23.361,3.389,21.986,2.014z M21.768,16.849
	c-0.062,1.366-0.336,2.633-1.311,3.608s-2.242,1.249-3.608,1.311c-1.265,0.058-1.645,0.07-4.849,0.07s-3.584-0.012-4.849-0.07
	c-1.366-0.062-2.633-0.336-3.608-1.311s-1.249-2.242-1.311-3.608c-0.058-1.265-0.07-1.645-0.07-4.849
	c0-3.204,0.012-3.584,0.07-4.849c0.062-1.366,0.336-2.633,1.311-3.608c0.975-0.975,2.242-1.249,3.608-1.311
	C8.416,2.174,8.796,2.162,12,2.162s3.584,0.012,4.849,0.07c1.366,0.062,2.633,0.336,3.608,1.311
	c0.975,0.975,1.249,2.242,1.311,3.608c0.058,1.265,0.07,1.645,0.07,4.849C21.838,15.204,21.826,15.584,21.768,16.849z"/>
<path d="M12,5.838c-3.403,0-6.162,2.759-6.162,6.162S8.597,18.162,12,18.162s6.162-2.759,6.162-6.162S15.403,5.838,12,5.838z M12,16
	c-2.209,0-4-1.791-4-4c0-2.209,1.791-4,4-4s4,1.791,4,4C16,14.209,14.209,16,12,16z"/>
<circle cx="18.406" cy="5.594" r="1.44"/>
</svg>
