<?xml version="1.0" encoding="utf-8"?>
<!-- Generator: Adobe Illustrator 19.1.0, SVG Export Plug-In . SVG Version: 6.00 Build 0)  -->
<!DOCTYPE svg PUBLIC "-//W3C//DTD SVG 1.1//EN" "http://www.w3.org/Graphics/SVG/1.1/DTD/svg11.dtd">
<svg version="1.1" id="Layer_1" xmlns="http://www.w3.org/2000/svg" xmlns:xlink="http://www.w3.org/1999/xlink" x="0px" y="0px"
	 width="24px" height="24px" viewBox="0 0 24 24" enable-background="new 0 0 24 24" xml:space="preserve">
<path fill="#444444" d="M14.60999,14.15997c-1.56-0.95996-3.53998-1.16998-5.82001-0.65997
	c-0.17999,0.06-0.32996,0.23999-0.26996,0.45001c0.06,0.17999,0.23999,0.32996,0.44995,0.26996
	c2.10004-0.47998,3.87006-0.29999,5.28003,0.57001c0.17999,0.12,0.39001,0.06,0.51001-0.12
	C14.84998,14.48999,14.82001,14.25,14.60999,14.15997z"/>
<path fill="#444444" d="M15.35999,12.41998c-1.85999-1.14001-4.56-1.46997-6.75-0.81C8.37,11.66998,8.25,11.94,8.31,12.17999
	S8.64001,12.53998,8.88,12.47998c1.89001-0.59998,4.34998-0.29999,5.96997,0.69c0.21002,0.15002,0.48004,0.06,0.63-0.15002
	C15.63,12.81,15.53998,12.51001,15.35999,12.41998z"/>
<path fill="#444444" d="M12,0C5.37256,0,0,5.37256,0,12c0,6.62738,5.37256,12,12,12s12-5.37262,12-12C24,5.37256,18.62744,0,12,0z
	 M12,18c-3.29999,0-6-2.70001-6-6s2.70001-6,6-6c3.33002,0,6,2.70001,6,6S15.29999,18,12,18z"/>
<path fill="#444444" d="M8.25,9.59998c-0.27002,0.09003-0.45001,0.39001-0.35999,0.69c0.08997,0.27002,0.39001,0.45001,0.69,0.35999
	c1.82996-0.57001,5.03998-0.44995,6.95996,0.69c0.27002,0.15002,0.63,0.06,0.78003-0.14996
	c0.14996-0.27002,0.06-0.63-0.21002-0.78003C13.89001,9.08997,10.38,8.96997,8.25,9.59998z"/>
</svg>
