<?xml version="1.0" encoding="utf-8"?>
<!-- Generator: Adobe Illustrator 19.1.0, SVG Export Plug-In . SVG Version: 6.00 Build 0)  -->
<!DOCTYPE svg PUBLIC "-//W3C//DTD SVG 1.1//EN" "http://www.w3.org/Graphics/SVG/1.1/DTD/svg11.dtd">
<svg version="1.1" id="Layer_1" xmlns="http://www.w3.org/2000/svg" xmlns:xlink="http://www.w3.org/1999/xlink" x="0px" y="0px"
	 width="24px" height="24px" viewBox="0 0 24 24" enable-background="new 0 0 24 24" xml:space="preserve">
<path fill="#444444" d="M23.76034,7.2015c0,0-0.23452-1.65387-0.95409-2.38218c-0.91263-0.9559-1.9356-0.96064-2.40472-1.01659
	c-3.35847-0.24277-8.39631-0.24277-8.39631-0.24277h-0.01043c0,0-5.03774,0-8.39631,0.24277
	C3.12932,3.85868,2.10672,3.86342,1.19375,4.81932C0.47418,5.54763,0.24002,7.2015,0.24002,7.2015S0,9.14366,0,11.08582v1.82078
	c0,1.94214,0.24002,3.8843,0.24002,3.8843s0.23416,1.65388,0.95374,2.38219c0.91296,0.9559,2.1122,0.92568,2.64633,1.02586
	c1.92005,0.18411,8.15993,0.24109,8.15993,0.24109s5.04304-0.0076,8.40151-0.25036c0.46912-0.05597,1.49209-0.06069,2.40472-1.01659
	c0.71957-0.72831,0.95409-2.38219,0.95409-2.38219S24,14.84875,24,12.9066v-1.82078C24,9.14366,23.76034,7.2015,23.76034,7.2015z
	 M9.52229,15.11305l-0.0011-6.74336l6.48491,3.38343L9.52229,15.11305z"/>
</svg>
