<?xml version="1.0" encoding="utf-8"?>
<!-- Generator: Adobe Illustrator 19.1.0, SVG Export Plug-In . SVG Version: 6.00 Build 0)  -->
<!DOCTYPE svg PUBLIC "-//W3C//DTD SVG 1.1//EN" "http://www.w3.org/Graphics/SVG/1.1/DTD/svg11.dtd">
<svg version="1.1" id="Layer_1" xmlns="http://www.w3.org/2000/svg" xmlns:xlink="http://www.w3.org/1999/xlink" x="0px" y="0px"
	 width="24px" height="24px" viewBox="0 0 24 24" enable-background="new 0 0 24 24" xml:space="preserve">
<path fill-rule="evenodd" clip-rule="evenodd" fill="#444444" d="M12,24C5.38317,24,0,18.61683,0,12S5.38317,0,12,0
	s12,5.38317,12,12S18.61683,24,12,24z M22.12021,13.64263c-0.35065-0.1107-3.17256-0.95231-6.38452-0.43816
	c1.34064,3.684,1.88621,6.68451,1.99124,7.30802C20.0264,18.95764,21.66338,16.49461,22.12021,13.64263z M16.00379,21.45088
	c-0.15246-0.89927-0.74756-4.03335-2.18659-7.77282c-0.02254,0.00768-0.04507,0.01499-0.06761,0.02284
	c-5.78127,2.01453-7.85659,6.02377-8.04104,6.40085C7.44645,21.45696,9.63049,22.26548,12,22.26548
	C13.41987,22.26548,14.77314,21.97509,16.00379,21.45088z M4.38514,18.86899c0.23219-0.39745,3.04523-5.05513,8.33147-6.76384
	c0.1336-0.04318,0.26831-0.08375,0.4039-0.12195c-0.25729-0.58227-0.53755-1.1652-0.831-1.73946
	c-5.11866,1.53188-10.08569,1.46789-10.53414,1.45869c-0.00314,0.10407-0.00522,0.20838-0.00522,0.31319
	C1.75015,14.64821,2.7481,17.05186,4.38514,18.86899z M1.96665,9.91634C2.4251,9.92239,6.64799,9.94072,11.4425,8.66751
	C9.74417,5.64848,7.91253,3.11025,7.64231,2.73967C4.77475,4.09222,2.63131,6.73572,1.96665,9.91634z M9.59805,2.05071
	c0.28332,0.37935,2.14492,2.91446,3.82451,6.00038c3.64473-1.36608,5.18764-3.43994,5.37199-3.70252
	C16.9845,2.74267,14.60437,1.76577,12,1.76577C11.173,1.76577,10.36883,1.86492,9.59805,2.05071z M19.93403,5.53385
	c-0.21608,0.2923-1.93367,2.49417-5.72342,4.04141c0.2385,0.48823,0.46716,0.98479,0.68002,1.48464
	c0.07545,0.17716,0.14893,0.35347,0.22082,0.52896c3.41051-0.42885,6.79925,0.25846,7.13718,0.32994
	C22.22608,9.49955,21.36158,7.27802,19.93403,5.53385z"/>
</svg>
