<?xml version="1.0" encoding="utf-8"?>
<!-- Generator: Adobe Illustrator 19.1.0, SVG Export Plug-In . SVG Version: 6.00 Build 0)  -->
<!DOCTYPE svg PUBLIC "-//W3C//DTD SVG 1.1//EN" "http://www.w3.org/Graphics/SVG/1.1/DTD/svg11.dtd">
<svg version="1.1" id="Layer_1" xmlns="http://www.w3.org/2000/svg" xmlns:xlink="http://www.w3.org/1999/xlink" x="0px" y="0px"
	 width="24px" height="24px" viewBox="0 0 24 24" enable-background="new 0 0 24 24" xml:space="preserve">
<path fill="#444444" d="M21,0H3C1.34314,0,0,1.34314,0,3v18c0,1.65686,1.34314,3,3,3h18c1.65686,0,3-1.34314,3-3V3
	C24,1.34314,22.65686,0,21,0z M15.14081,15.33325c-2.37793,0-3.2027-1.07214-3.64246-2.4054l-0.43994-1.37457
	c-0.3299-1.00342-0.71478-1.78693-1.92432-1.78693c-0.83856,0-1.69073,0.6048-1.69073,2.29547
	c0,1.31964,0.67352,2.14441,1.62201,2.14441c1.07202,0,1.78687-0.79724,1.78687-0.79724l0.43994,1.19574
	c0,0-0.74237,0.72852-2.29553,0.72852C7.0722,15.33325,6,14.20624,6,12.11682c0-2.17181,1.0722-3.45007,3.09277-3.45007
	c1.82819,0,2.74921,0.65973,3.32648,2.44672l0.45355,1.37445c0.33002,1.00348,0.90723,1.73199,2.29553,1.73199
	c0.93475,0,1.4295-0.20624,1.4295-0.71472c0-0.39868-0.23358-0.68726-0.93457-0.85229l-0.93481-0.21985
	c-1.14081-0.2749-1.59436-0.86603-1.59436-1.80072c0-1.49823,1.20959-1.96558,2.44666-1.96558
	c1.4021,0,2.25427,0.50854,2.3642,1.74561l-1.37445,0.16498c-0.05505-0.59106-0.41241-0.8385-1.0722-0.8385
	c-0.60486,0-0.97589,0.2749-0.97589,0.74225c0,0.41241,0.17865,0.65979,0.78339,0.7973l0.8797,0.19238
	C17.36761,11.74573,18,12.32312,18,13.43646C18,14.81097,16.8454,15.33325,15.14081,15.33325z"/>
</svg>
