<?xml version="1.0" encoding="utf-8"?>
<!-- Generator: Adobe Illustrator 19.1.0, SVG Export Plug-In . SVG Version: 6.00 Build 0)  -->
<!DOCTYPE svg PUBLIC "-//W3C//DTD SVG 1.1//EN" "http://www.w3.org/Graphics/SVG/1.1/DTD/svg11.dtd">
<svg version="1.1" id="Layer_1" xmlns="http://www.w3.org/2000/svg" xmlns:xlink="http://www.w3.org/1999/xlink" x="0px" y="0px"
	 width="24px" height="24px" viewBox="0 0 24 24" enable-background="new 0 0 24 24" xml:space="preserve">
<path fill="#444444" d="M21,0H3C1.34314,0,0,1.34314,0,3v18c0,1.65686,1.34314,3,3,3h18c1.65686,0,3-1.34314,3-3V3
	C24,1.34314,22.65686,0,21,0z M8.68652,17.98907H6.19739V9.98816h2.48914V17.98907z M7.44263,8.89502
	C6.64398,8.89502,6,8.24896,6,7.45288c0-0.7959,0.64398-1.44196,1.44263-1.44196c0.79547,0,1.44128,0.64606,1.44128,1.44196
	C8.88391,8.24896,8.2381,8.89502,7.44263,8.89502z M18,17.98907h-2.48645v-3.89087c0-0.9278-0.01593-2.1214-1.29205-2.1214
	c-1.29395,0-1.49133,1.01123-1.49133,2.05499v3.95728h-2.4837V9.98816h2.38367v1.09381h0.03412
	c0.33154-0.62903,1.14288-1.29236,2.35266-1.29236C17.53473,9.78961,18,11.44629,18,13.60114V17.98907z"/>
</svg>
