<?xml version="1.0" encoding="utf-8"?>
<!-- Generator: Adobe Illustrator 19.1.0, SVG Export Plug-In . SVG Version: 6.00 Build 0)  -->
<!DOCTYPE svg PUBLIC "-//W3C//DTD SVG 1.1//EN" "http://www.w3.org/Graphics/SVG/1.1/DTD/svg11.dtd">
<svg version="1.1" id="Layer_1" xmlns="http://www.w3.org/2000/svg" xmlns:xlink="http://www.w3.org/1999/xlink" x="0px" y="0px"
	 width="24px" height="24px" viewBox="0 0 24 24" enable-background="new 0 0 24 24" xml:space="preserve">
<path fill="#444444" d="M23.99917,9.33961c0-0.9185-0.3954-6.37925-0.3954-6.37925c0-0.86562-0.32085-1.44578-0.72368-1.8412
	C22.48617,0.71783,21.906,0.3955,21.04046,0.3955c0,0-5.46084-0.39542-6.3808-0.39542c-1.31968,0-2.20008-0.03811-3.8538,1.61711
	c-0.80417,0.80268-9.71752,9.71744-10.09395,10.09238c-0.37505,0.37505-1.6435,1.85449,0.52003,4.01793l7.03982,7.04131
	c2.16493,2.16493,3.64444,0.89358,4.0194,0.51863c0.37495-0.37512,9.2897-9.28987,10.09239-10.09257
	C24.03877,11.53967,23.99917,10.66077,23.99917,9.33961z M14.47275,12.28462l3.05424,1.4505l-1.12337,2.01003l-2.82495-1.84474
	c-0.06549-0.04323-0.13988-0.06549-0.21427-0.06549c-0.06549,0-0.13081,0.01633-0.19037,0.05047
	c-0.12652,0.07291-0.19943,0.21132-0.18904,0.35698l0.23358,3.34142h-2.26118c0,0-0.00603,0-0.01039,0
	c0.00882-0.02836,0.18589-3.3429,0.18589-3.3429c0.01041-0.14566-0.06243-0.28405-0.18895-0.35698
	c-0.12801-0.0729-0.28414-0.06698-0.40456,0.01485l-2.74625,1.86554l-1.22591-1.95017l3.08096-1.52951
	c0.13238-0.06235,0.21716-0.19639,0.21716-0.3436c0-0.14731-0.08478-0.28118-0.21716-0.34361l-3.05564-1.45057l1.12314-2.00971
	l2.8237,1.84615c0.12042,0.08034,0.27655,0.08917,0.40456,0.01485c0.12652-0.07291,0.19936-0.21123,0.18895-0.35706L10.9008,6.29973
	h2.26267l-0.17848,3.34133c-0.01039,0.14583,0.06252,0.28415,0.18904,0.35706c0.12785,0.07432,0.28571,0.06549,0.40464-0.01485
	l2.74626-1.86561l1.22581,1.95049l-3.07799,1.52925c-0.13247,0.06243-0.21725,0.1963-0.21725,0.34361
	C14.25551,12.08823,14.34029,12.22227,14.47275,12.28462z M19.69719,5.87677c-0.79988,0-1.44586-0.64747-1.44586-1.44571
	c0-0.79833,0.64598-1.44431,1.44586-1.44431c0.79527,0,1.44126,0.64598,1.44126,1.44431
	C21.13845,5.22931,20.49246,5.87677,19.69719,5.87677z"/>
</svg>
