<?xml version="1.0" encoding="utf-8"?>
<!-- Generator: Adobe Illustrator 19.1.0, SVG Export Plug-In . SVG Version: 6.00 Build 0)  -->
<!DOCTYPE svg PUBLIC "-//W3C//DTD SVG 1.1//EN" "http://www.w3.org/Graphics/SVG/1.1/DTD/svg11.dtd">
<svg version="1.1" id="Layer_1" xmlns="http://www.w3.org/2000/svg" xmlns:xlink="http://www.w3.org/1999/xlink" x="0px" y="0px"
	 width="24px" height="24px" viewBox="0 0 24 24" enable-background="new 0 0 24 24" xml:space="preserve">
<path fill="#444444" d="M12,0C5.37256,0,0,5.37256,0,12c0,6.62738,5.37256,12,12,12s12-5.37262,12-12C24,5.37256,18.62744,0,12,0z
	 M18,12.45331c0,0.97107-0.11981,1.94214-0.11981,1.94214s-0.11731,0.8269-0.47705,1.1911
	c-0.4563,0.47797-0.96783,0.48029-1.20239,0.5083C14.52155,16.21619,12,16.22003,12,16.22003s-3.11993-0.0285-4.07996-0.12054
	c-0.26709-0.05011-0.8667-0.03497-1.32318-0.51294c-0.3598-0.3642-0.47687-1.1911-0.47687-1.1911S6,13.42438,6,12.45331v-0.9104
	c0-0.97107,0.12-1.9422,0.12-1.9422s0.11707-0.8269,0.47687-1.19104c0.45648-0.47797,0.96777-0.48035,1.20239-0.5083
	c1.67926-0.1214,4.19812-0.1214,4.19812-0.1214h0.00525c0,0,2.51892,0,4.19812,0.1214
	c0.23456,0.02795,0.74609,0.03033,1.20239,0.5083c0.35974,0.36414,0.47705,1.19104,0.47705,1.19104S18,10.57184,18,11.54291
	V12.45331z"/>
<polygon fill="#444444" points="10.76117,13.55652 14.00305,11.87653 10.76062,10.18481 "/>
</svg>
