<?xml version="1.0" encoding="utf-8"?>
<!-- Generator: Adobe Illustrator 19.1.0, SVG Export Plug-In . SVG Version: 6.00 Build 0)  -->
<!DOCTYPE svg PUBLIC "-//W3C//DTD SVG 1.1//EN" "http://www.w3.org/Graphics/SVG/1.1/DTD/svg11.dtd">
<svg version="1.1" id="Layer_1" xmlns="http://www.w3.org/2000/svg" xmlns:xlink="http://www.w3.org/1999/xlink" x="0px" y="0px"
	 width="24px" height="24px" viewBox="0 0 24 24" enable-background="new 0 0 24 24" xml:space="preserve">
<path fill="#444444" d="M23,0H1C0.44772,0,0,0.44772,0,1v22c0,0.55228,0.44772,1,1,1h22c0.55228,0,1-0.44772,1-1V1
	C24,0.44772,23.55228,0,23,0z M7.11947,20.45053H3.55632V8.9974h3.56315V20.45053z M5.33887,7.4326
	c-1.14323,0-2.0651-0.92479-2.0651-2.06443c0-1.13933,0.92187-2.06413,2.0651-2.06413c1.13867,0,2.06313,0.92481,2.06313,2.06413
	C7.402,6.50781,6.47755,7.4326,5.33887,7.4326z M20.45153,20.45053h-3.55927v-5.56967c0-1.32813-0.0228-3.0368-1.8496-3.0368
	c-1.8522,0-2.1348,1.4476-2.1348,2.94173v5.66473H9.35253V8.9974h3.41213v1.56573h0.0488
	c0.4746-0.9004,1.63607-1.84993,3.36787-1.84993c3.60413,0,4.2702,2.37147,4.2702,5.45607V20.45053z"/>
</svg>
