<?xml version="1.0" encoding="utf-8"?>
<!-- Generator: Adobe Illustrator 19.1.0, SVG Export Plug-In . SVG Version: 6.00 Build 0)  -->
<!DOCTYPE svg PUBLIC "-//W3C//DTD SVG 1.1//EN" "http://www.w3.org/Graphics/SVG/1.1/DTD/svg11.dtd">
<svg version="1.1" id="Layer_1" xmlns="http://www.w3.org/2000/svg" xmlns:xlink="http://www.w3.org/1999/xlink" x="0px" y="0px"
	 width="24px" height="24px" viewBox="0 0 24 24" enable-background="new 0 0 24 24" xml:space="preserve">
<path fill-rule="evenodd" clip-rule="evenodd" fill="#444444" d="M3.00016,0C1.34322,0,0,1.34393,0,3.00016v17.99967
	C0,22.65678,1.34393,24,3.00016,24h17.99967C22.65678,24,24,22.65606,24,20.99984V3.00016C24,1.34322,22.65607,0,20.99983,0H3.00016
	L3.00016,0z M14,4v9c0,0.55229,0.44771,1,1,1h5c0.55228,0,1-0.44771,1-1V4c0-0.55228-0.44772-1-1-1h-5C14.44771,3,14,3.44771,14,4z
	 M3,4v15c0,0.55228,0.44772,1,1,1h5c0.55229,0,1-0.44772,1-1V4c0-0.55228-0.44771-1-1-1H4C3.44772,3,3,3.44771,3,4z"/>
</svg>
