<?xml version="1.0" encoding="utf-8"?>
<!-- Generator: Adobe Illustrator 19.1.0, SVG Export Plug-In . SVG Version: 6.00 Build 0)  -->
<!DOCTYPE svg PUBLIC "-//W3C//DTD SVG 1.1//EN" "http://www.w3.org/Graphics/SVG/1.1/DTD/svg11.dtd">
<svg version="1.1" id="Layer_1" xmlns="http://www.w3.org/2000/svg" xmlns:xlink="http://www.w3.org/1999/xlink" x="0px" y="0px"
	 width="24px" height="24px" viewBox="0 0 24 24" enable-background="new 0 0 24 24" xml:space="preserve">
<path fill="#444444" d="M12,0C5.37256,0,0,5.37256,0,12c0,6.62738,5.37256,12,12,12s12-5.37262,12-12C24,5.37256,18.62744,0,12,0z
	 M7.74896,18C6.78302,18,6,17.21692,6,16.25098s0.78302-1.74896,1.74896-1.74896s1.74902,0.78302,1.74902,1.74896
	S8.7149,18,7.74896,18z M12.073,18c0-3.34888-2.72412-6.07306-6.073-6.07306v-1.84613c4.36658,0,7.91919,3.55261,7.91919,7.91919
	H12.073z M16.15387,18c0-5.59888-4.55499-10.15387-10.15387-10.15387V6c6.61658,0,12,5.38342,12,12H16.15387z"/>
</svg>
