<?xml version="1.0" encoding="utf-8"?>
<!-- Generator: Adobe Illustrator 19.1.0, SVG Export Plug-In . SVG Version: 6.00 Build 0)  -->
<!DOCTYPE svg PUBLIC "-//W3C//DTD SVG 1.1//EN" "http://www.w3.org/Graphics/SVG/1.1/DTD/svg11.dtd">
<svg version="1.1" id="Layer_1" xmlns="http://www.w3.org/2000/svg" xmlns:xlink="http://www.w3.org/1999/xlink" x="0px" y="0px"
	 width="24px" height="24px" viewBox="0 0 24 24" enable-background="new 0 0 24 24" xml:space="preserve">
<path fill="#444444" d="M13.51221,14.70886c-0.28851,0.28821-0.78113,0.42834-1.50598,0.42834
	c-0.0022,0-0.00427,0.00031-0.00641,0.00031s-0.00421-0.00031-0.00641-0.00031c-0.72485,0-1.21729-0.14008-1.50543-0.42822
	c-0.12799-0.12799-0.33551-0.12799-0.4635-0.00006c-0.12799,0.12799-0.12799,0.33551,0,0.4635
	c0.41736,0.41736,1.0614,0.62024,1.96893,0.62024c0.0022,0,0.00427-0.00031,0.00641-0.00031s0.00421,0.00031,0.00641,0.00031
	c0.90741,0,1.55157-0.20288,1.96924-0.62012c0.12805-0.12793,0.12811-0.33545,0.00018-0.4635
	C13.84772,14.58105,13.64026,14.58093,13.51221,14.70886z"/>
<path fill="#444444" d="M13.7851,11.95947c-0.44855,0-0.82544,0.37585-0.82544,0.8244s0.37689,0.81213,0.82544,0.81213
	s0.81213-0.36359,0.81213-0.81213S14.23364,11.95947,13.7851,11.95947z"/>
<path fill="#444444" d="M11.03937,12.78387c0-0.4483-0.36383-0.8244-0.81213-0.8244s-0.82446,0.3761-0.82446,0.8244
	c0,0.44836,0.37616,0.81213,0.82446,0.81213S11.03937,13.23224,11.03937,12.78387z"/>
<path fill="#444444" d="M21,0H3C1.34314,0,0,1.34314,0,3v18c0,1.65686,1.34314,3,3,3h18c1.65686,0,3-1.34314,3-3V3
	C24,1.34314,22.65686,0,21,0z M17.33081,13.10822c0.01306,0.10443,0.02002,0.20978,0.02002,0.31592
	c0,0.99438-0.57782,1.91907-1.62695,2.60376c-1.00598,0.65656-2.3371,1.01813-3.74823,1.01813
	c-1.41107,0-2.74219-0.36157-3.74817-1.01813c-1.04913-0.68469-1.62695-1.60938-1.62695-2.60376
	c0-0.11633,0.00824-0.23169,0.02386-0.34589C6.24756,12.81793,6,12.38324,6,11.89154c0-0.79523,0.64697-1.44214,1.44214-1.44214
	c0.33435,0,0.64227,0.11462,0.88708,0.3064c0.94397-0.58514,2.15558-0.91913,3.44452-0.95081l0.7746-2.44849
	c0.0517-0.16345,0.22064-0.25946,0.38751-0.22015l1.99268,0.46899c0.20117-0.3866,0.60541-0.65137,1.0705-0.65137
	c0.6651,0,1.20624,0.54108,1.20624,1.20624c0,0.6651-0.54114,1.20618-1.20624,1.20618c-0.63568,0-1.15771-0.49438-1.2027-1.11877
	L13.0816,7.84399l-0.62408,1.97266c1.19623,0.07068,2.31219,0.4035,3.19177,0.95624
	c0.24817-0.20209,0.56439-0.32349,0.90863-0.32349C17.35309,10.4494,18,11.09631,18,11.89154
	C18,12.40253,17.73273,12.85205,17.33081,13.10822z"/>
</svg>
