<?xml version="1.0" encoding="utf-8"?>
<!-- Generator: Adobe Illustrator 19.1.0, SVG Export Plug-In . SVG Version: 6.00 Build 0)  -->
<!DOCTYPE svg PUBLIC "-//W3C//DTD SVG 1.1//EN" "http://www.w3.org/Graphics/SVG/1.1/DTD/svg11.dtd">
<svg version="1.1" id="Layer_1" xmlns="http://www.w3.org/2000/svg" xmlns:xlink="http://www.w3.org/1999/xlink" x="0px" y="0px"
	 width="24px" height="24px" viewBox="0 0 24 24" enable-background="new 0 0 24 24" xml:space="preserve">
<path fill="#444444" d="M24,11.78302c0-1.59039-1.29388-2.88428-2.88422-2.88428c-0.68848,0-1.32092,0.24286-1.8172,0.64703
	c-1.75916-1.10547-3.99115-1.77118-6.38361-1.91248l1.24817-3.94537l3.4295,0.80725c0.08997,1.24884,1.13403,2.23761,2.4054,2.23761
	c1.3302,0,2.41241-1.08221,2.41241-2.41241c0-1.33026-1.08221-2.41248-2.41241-2.41248c-0.93024,0-1.73865,0.5296-2.14099,1.3028
	L13.8717,2.27264c-0.3338-0.07861-0.67163,0.1134-0.77509,0.44031l-1.54919,4.89703
	c-2.57788,0.06335-5.0011,0.73132-6.88904,1.90155C4.16882,9.12805,3.55298,8.89874,2.88428,8.89874
	C1.29388,8.89874,0,10.19263,0,11.78302c0,0.9834,0.49506,1.85278,1.24878,2.37347
	c-0.03131,0.22833-0.04773,0.45905-0.04773,0.69177c0,1.98871,1.15558,3.83807,3.25391,5.20752
	c2.01196,1.31311,4.67419,2.03625,7.49634,2.03625c2.82227,0,5.4845-0.72314,7.4964-2.03625
	c2.09833-1.36945,3.25397-3.21881,3.25397-5.20752c0-0.21234-0.01398-0.42303-0.0401-0.63184
	C23.46545,13.70404,24,12.80499,24,11.78302z M19.99805,3.21881c0.60736,0,1.1015,0.49414,1.1015,1.10156
	c0,0.60736-0.49414,1.10156-1.1015,1.10156s-1.1015-0.4942-1.1015-1.10156C18.89655,3.71295,19.39069,3.21881,19.99805,3.21881z
	 M6.80554,13.56775c0-0.89667,0.75226-1.64886,1.64886-1.64886c0.89667,0,1.62433,0.7522,1.62433,1.64886
	s-0.72766,1.62427-1.62433,1.62427C7.5578,15.19202,6.80554,14.46442,6.80554,13.56775z M15.95087,18.34503
	c-0.83533,0.83453-2.12366,1.24023-3.93848,1.24023c-0.00433,0-0.00848-0.00055-0.01282-0.00061
	c-0.00427,0.00006-0.00842,0.00061-0.01276,0.00061c-1.81512,0-3.10321-0.40576-3.93787-1.24048
	c-0.25598-0.25592-0.25598-0.67096,0-0.92694c0.25598-0.25586,0.67096-0.25592,0.92694,0.00006
	c0.57629,0.57629,1.56122,0.85645,3.01093,0.85645c0.00433,0,0.00848,0.00061,0.01276,0.00067
	c0.00433-0.00006,0.00848-0.00067,0.01282-0.00067c1.44971,0,2.43494-0.28021,3.01196-0.85669
	c0.2561-0.25586,0.67108-0.25562,0.92694,0.00043C16.20715,17.67419,16.20697,18.08917,15.95087,18.34503z M15.57013,15.19202
	c-0.89709,0-1.65088-0.72717-1.65088-1.62427s0.75378-1.64886,1.65088-1.64886c0.89716,0,1.62433,0.75177,1.62433,1.64886
	S16.46729,15.19202,15.57013,15.19202z"/>
</svg>
