<?xml version="1.0" encoding="utf-8"?>
<!-- Generator: Adobe Illustrator 19.1.0, SVG Export Plug-In . SVG Version: 6.00 Build 0)  -->
<!DOCTYPE svg PUBLIC "-//W3C//DTD SVG 1.1//EN" "http://www.w3.org/Graphics/SVG/1.1/DTD/svg11.dtd">
<svg version="1.1" id="Layer_1" xmlns="http://www.w3.org/2000/svg" xmlns:xlink="http://www.w3.org/1999/xlink" x="0px" y="0px"
	 width="24px" height="24px" viewBox="0 0 24 24" enable-background="new 0 0 24 24" xml:space="preserve">
<path fill="#444444" d="M23,0H1C0.44769,0,0,0.44769,0,1v22c0,0.55225,0.44769,1,1,1h22c0.55231,0,1-0.44775,1-1V1
	C24,0.44769,23.55231,0,23,0z M7,16c-2.20917,0-4-1.79089-4-4c0-2.20917,1.79083-4,4-4s4,1.79083,4,4C11,14.20911,9.20917,16,7,16z
	 M17,16c-2.20917,0-4-1.79089-4-4c0-2.20917,1.79083-4,4-4s4,1.79083,4,4C21,14.20911,19.20917,16,17,16z"/>
</svg>
