<?xml version="1.0" encoding="utf-8"?>
<!-- Generator: Adobe Illustrator 19.1.0, SVG Export Plug-In . SVG Version: 6.00 Build 0)  -->
<!DOCTYPE svg PUBLIC "-//W3C//DTD SVG 1.1//EN" "http://www.w3.org/Graphics/SVG/1.1/DTD/svg11.dtd">
<svg version="1.1" id="Layer_1" xmlns="http://www.w3.org/2000/svg" xmlns:xlink="http://www.w3.org/1999/xlink" x="0px" y="0px"
	 width="24px" height="24px" viewBox="0 0 24 24" enable-background="new 0 0 24 24" xml:space="preserve">
<path fill="#444444" d="M12,0C5.37256,0,0,5.37256,0,12c0,6.62738,5.37256,12,12,12s12-5.37262,12-12C24,5.37256,18.62744,0,12,0z
	 M12.92584,14.67249c-0.74432,0-1.44421-0.40228-1.68372-0.85913c0,0-0.40039,1.58801-0.48486,1.89465
	c-0.29846,1.08295-1.17645,2.16681-1.24438,2.25555c-0.04761,0.06189-0.15271,0.04242-0.16382-0.03937
	c-0.01892-0.13806-0.24268-1.5047,0.02069-2.61938c0.13226-0.55969,0.88654-3.75586,0.88654-3.75586
	s-0.21979-0.44012-0.21979-1.0907c0-1.02148,0.5921-1.78412,1.32922-1.78412c0.62677,0,0.92963,0.47064,0.92963,1.03479
	c0,0.63031-0.40131,1.57263-0.60846,2.44586c-0.17303,0.73138,0.3667,1.3277,1.08783,1.3277
	c1.30566,0,2.18524-1.67731,2.18524-3.66473c0-1.5105-1.01697-2.64148-2.86798-2.64148c-2.09027,0-3.39355,1.55933-3.39355,3.30127
	c0,0.60034,0.17737,1.02423,0.45496,1.35168c0.12738,0.1507,0.14526,0.2113,0.09912,0.38422
	c-0.03363,0.12695-0.10895,0.43207-0.14081,0.5531c-0.04578,0.17474-0.18719,0.23706-0.34503,0.17255
	c-0.96265-0.39313-1.4115-1.44775-1.4115-2.63324C7.35516,8.3479,9.00635,6,12.28119,6c2.6319,0,4.36365,1.90405,4.36365,3.94867
	C16.64484,12.65247,15.1416,14.67249,12.92584,14.67249z"/>
</svg>
