<?xml version="1.0" encoding="utf-8"?>
<!-- Generator: Adobe Illustrator 19.1.0, SVG Export Plug-In . SVG Version: 6.00 Build 0)  -->
<!DOCTYPE svg PUBLIC "-//W3C//DTD SVG 1.1//EN" "http://www.w3.org/Graphics/SVG/1.1/DTD/svg11.dtd">
<svg version="1.1" id="Layer_1" xmlns="http://www.w3.org/2000/svg" xmlns:xlink="http://www.w3.org/1999/xlink" x="0px" y="0px"
	 width="24px" height="24px" viewBox="0 0 24 24" enable-background="new 0 0 24 24" xml:space="preserve">
<path fill-rule="evenodd" clip-rule="evenodd" fill="#444444" d="M23.34647,9.28567
	c-0.5051-0.21649-2.67023,0.02406-3.27163-0.52122C19.64985,8.37153,19.623,7.66012,19.4574,6.71166
	c-0.27741-1.58884-0.39292-1.94854-0.68159-2.57401C17.72536,1.90845,15.20833,0,12.92215,0H7.62179
	C3.45206,0,0.0441,3.41597,0.0441,7.5857v8.84464C0.0441,20.59205,3.45206,24,7.62179,24h8.70831
	c4.16973,0,7.55363-3.40795,7.57769-7.56966l0.04811-6.1263C23.9559,10.30405,23.9559,9.54688,23.34647,9.28567z M7.5,6h4
	C12.32843,6,13,6.67157,13,7.5v0C13,8.32843,12.32843,9,11.5,9h-4C6.67157,9,6,8.32843,6,7.5v0C6,6.67157,6.67157,6,7.5,6z M16.5,18
	h-9C6.67157,18,6,17.32843,6,16.5v0C6,15.67157,6.67157,15,7.5,15h9c0.82843,0,1.5,0.67157,1.5,1.5v0
	C18,17.32843,17.32843,18,16.5,18z"/>
</svg>
