<?xml version="1.0" encoding="utf-8"?>
<!-- Generator: Adobe Illustrator 19.1.0, SVG Export Plug-In . SVG Version: 6.00 Build 0)  -->
<!DOCTYPE svg PUBLIC "-//W3C//DTD SVG 1.1//EN" "http://www.w3.org/Graphics/SVG/1.1/DTD/svg11.dtd">
<svg version="1.1" id="Layer_1" xmlns="http://www.w3.org/2000/svg" xmlns:xlink="http://www.w3.org/1999/xlink" x="0px" y="0px"
	 width="24px" height="24px" viewBox="0 0 24 24" enable-background="new 0 0 24 24" xml:space="preserve">
<path fill="#444444" d="M12,0C5.37256,0,0,5.37256,0,12c0,6.62738,5.37256,12,12,12s12-5.37262,12-12C24,5.37256,18.62744,0,12,0z
	 M6.26874,14.35968c-0.00854,0.02954-0.05109,0.05011-0.10321,0.05011c-0.05298,0-0.09656-0.02112-0.10352-0.05042l-0.24445-1.09125
	l0.24445-1.11603c0.0072-0.02899,0.05078-0.05011,0.10352-0.05011c0.05237,0,0.09491,0.02045,0.10345,0.05011l0.27789,1.11603
	L6.26874,14.35968z M8.35425,14.59607v-0.00043c-0.00665,0.052-0.09961,0.09302-0.21179,0.09302
	c-0.11279,0-0.20581-0.04089-0.21149-0.09271l-0.21899-1.3269l0.21899-2.05316c0.00543-0.05212,0.09869-0.09314,0.21149-0.09314
	c0.11218,0,0.20514,0.04102,0.21179,0.09314l0.24756,2.05316L8.35425,14.59607z M10.54779,14.55475v-0.00092
	c-0.00537,0.07617-0.16528,0.13593-0.36365,0.13593c-0.19983,0-0.35974-0.05975-0.36401-0.13513l-0.19232-1.28448l0.19196-2.75348
	c0.00427-0.07617,0.16418-0.13574,0.36401-0.13574c0.19836,0,0.35828,0.05957,0.36365,0.13574l0.21619,2.75336L10.54779,14.55475z
	 M16.47162,14.6983c-0.02728,0-4.23279-0.00214-4.23669-0.00256c-0.09125-0.00922-0.16382-0.0871-0.16504-0.18066V9.66406
	c0.0011-0.08911,0.0318-0.13507,0.14716-0.17969c0.29681-0.11481,0.63287-0.18268,0.97766-0.18268
	c1.40906,0,2.56421,1.08057,2.68585,2.45807c0.18201-0.07629,0.38177-0.11865,0.59119-0.11865
	C17.3158,11.64111,18,12.32556,18,13.1698C18,14.01398,17.31567,14.6983,16.47162,14.6983z"/>
</svg>
