<?xml version="1.0" encoding="utf-8"?>
<!-- Generator: Adobe Illustrator 19.1.0, SVG Export Plug-In . SVG Version: 6.00 Build 0)  -->
<!DOCTYPE svg PUBLIC "-//W3C//DTD SVG 1.1//EN" "http://www.w3.org/Graphics/SVG/1.1/DTD/svg11.dtd">
<svg version="1.1" id="Layer_1" xmlns="http://www.w3.org/2000/svg" xmlns:xlink="http://www.w3.org/1999/xlink" x="0px" y="0px"
	 width="24px" height="24px" viewBox="0 0 24 24" enable-background="new 0 0 24 24" xml:space="preserve">
<path fill="#444444" d="M21,0H3C1.34314,0,0,1.34314,0,3v18c0,1.65686,1.34314,3,3,3h18c1.65686,0,3-1.34314,3-3V3
	C24,1.34314,22.65686,0,21,0z M7.23615,16.66864c-0.19684,0-0.34717-0.17596-0.31635-0.37012l1.5528-9.84808
	C8.51373,6.19116,8.73712,6,9.00006,6h3.72925c1.28491,0,2.28931,0.27148,2.84497,0.90479
	c0.50488,0.57526,0.64532,1.20953,0.50586,2.14398c0,0-0.02356,0.14374-0.03815,0.21838
	c-0.49164,2.52539-2.1745,3.39838-4.32373,3.39838h-1.09406c-0.26257,0-0.48431,0.19116-0.52545,0.45044l0.01788-0.11487
	l-0.57819,3.66754H7.23615z M17,11.69397c-0.43018,2.20898-1.90234,2.97278-3.78241,2.97278h-0.29041
	c-0.22974,0-0.42523,0.16724-0.46106,0.39398l-0.02356,0.12811l-0.36578,2.31824l-0.01892,0.09888
	C12.02203,17.8327,11.82648,18,11.5968,18h-1.59143l0.73169-4.67078h0.9812c2.70496,0,4.41003-1.31598,4.94464-3.80225
	C17.08978,10.06421,17.17236,10.80774,17,11.69397z"/>
</svg>
