<?xml version="1.0" encoding="utf-8"?>
<!-- Generator: Adobe Illustrator 19.1.0, SVG Export Plug-In . SVG Version: 6.00 Build 0)  -->
<!DOCTYPE svg PUBLIC "-//W3C//DTD SVG 1.1//EN" "http://www.w3.org/Graphics/SVG/1.1/DTD/svg11.dtd">
<svg version="1.1" id="Layer_1" xmlns="http://www.w3.org/2000/svg" xmlns:xlink="http://www.w3.org/1999/xlink" x="0px" y="0px"
	 width="24px" height="24px" viewBox="0 0 24 24" enable-background="new 0 0 24 24" xml:space="preserve">
<path fill="#444444" d="M12,0C5.37256,0,0,5.37256,0,12c0,6.62738,5.37256,12,12,12s12-5.37262,12-12C24,5.37256,18.62744,0,12,0z
	 M14.54419,7.80243c-0.49274,0-0.84113,0.46869-0.84113,1.36987c0,1.83856,1.16565,2.896,2.67969,2.896
	c0.26917,0,0.56818-0.03143,0.87732-0.10266v1.42853c-0.50458,0.11401-1.01123,0.16241-1.43298,0.16357
	c-1.00464,2.12286-2.81726,3.93512-3.42096,4.27838c-0.38458,0.21643-0.74664,0.22845-1.16724-0.02393
	c-0.74347-0.4436-3.55542-2.75397-4.49896-10.00977h2.0423c0.51349,4.35663,1.76489,6.58911,3.14923,8.26251
	c0.76294-0.76331,1.49457-1.77643,2.06952-2.92651c-1.36731-0.69373-2.19647-2.21631-2.19647-3.99005
	C11.8045,7.35791,12.83795,6,14.60431,6c1.71838,0,2.65576,1.06946,2.65576,2.90802c0,0.68329-0.14722,1.46216-0.41815,2.0636
	c-1.27582,0.24976-1.74237-0.56415-1.74237-0.56415c0.09595-0.31451,0.22583-0.84613,0.22583-1.33124
	C15.32538,8.22302,15.01294,7.80243,14.54419,7.80243z"/>
</svg>
