<?xml version="1.0" encoding="utf-8"?>
<!-- Generator: Adobe Illustrator 19.1.0, SVG Export Plug-In . SVG Version: 6.00 Build 0)  -->
<!DOCTYPE svg PUBLIC "-//W3C//DTD SVG 1.1//EN" "http://www.w3.org/Graphics/SVG/1.1/DTD/svg11.dtd">
<svg version="1.1" id="Layer_1" xmlns="http://www.w3.org/2000/svg" xmlns:xlink="http://www.w3.org/1999/xlink" x="0px" y="0px"
	 width="24px" height="24px" viewBox="0 0 24 24" enable-background="new 0 0 24 24" xml:space="preserve">
<path fill="#444444" d="M12,0C5.37256,0,0,5.37256,0,12c0,6.62738,5.37256,12,12,12s12-5.37262,12-12C24,5.37256,18.62744,0,12,0z
	 M16.58624,15.15753c-1.52319,3.30029-5.34723,3.30042-7.28546,2.13751c-1.65582-0.99347-4.18463-4.12445-1.38483-7.94781
	c0.11853-0.1449,0.40265-0.13171,0.33868,0.3067c-0.04541,0.31116-0.4516,2.54578,0.32361,3.51666
	c0.35376,0.48547,0.43652,0.15051,0.43652,0.15051s-0.06018-3.25134,2.45361-5.71997
	c1.59558-1.50531,3.80829-1.74615,4.24481-1.5354C16.25964,6.32953,18.48291,11.04816,16.58624,15.15753z"/>
</svg>
