<?xml version="1.0" encoding="utf-8"?>
<!-- Generator: Adobe Illustrator 19.1.0, SVG Export Plug-In . SVG Version: 6.00 Build 0)  -->
<!DOCTYPE svg PUBLIC "-//W3C//DTD SVG 1.1//EN" "http://www.w3.org/Graphics/SVG/1.1/DTD/svg11.dtd">
<svg version="1.1" id="Layer_1" xmlns="http://www.w3.org/2000/svg" xmlns:xlink="http://www.w3.org/1999/xlink" x="0px" y="0px"
	 width="24px" height="24px" viewBox="0 0 24 24" enable-background="new 0 0 24 24" xml:space="preserve">
<path fill="#444444" d="M10.58434,17.20955L9.7045,14.81796c0,0-1.42968,1.59449-3.5737,1.59449
	c-1.89708,0-3.24408-1.64952-3.24408-4.28873c0-3.38137,1.7043-4.591,3.38149-4.591c2.41905,0,3.18878,1.56698,3.84867,3.57392
	l0.87984,2.74915c0.87953,2.66652,2.52905,4.81074,7.28493,4.81074c3.40914,0,5.71835-1.04455,5.71835-3.79355
	c0-2.22677-1.26481-3.38153-3.62905-3.93137l-1.75936-0.38487c-1.20948-0.27493-1.56684-0.76974-1.56684-1.5945
	c0-0.93471,0.74207-1.48455,1.95185-1.48455c1.31958,0,2.0343,0.49493,2.14434,1.67704l2.74899-0.32994
	c-0.21989-2.47418-1.92424-3.49132-4.72846-3.49132c-2.47409,0-4.89335,0.93471-4.89335,3.93121
	c0,1.86942,0.9072,3.05158,3.18874,3.60142l1.86967,0.43974c1.40202,0.33,1.86917,0.90725,1.86917,1.70455
	c0,1.01699-0.98958,1.42943-2.85905,1.42943c-2.77662,0-3.93106-1.45699-4.591-3.46392l-0.9072-2.74895
	c-1.15445-3.5739-2.9965-4.89348-6.65296-4.89348C2.1444,5.33347,0,7.89008,0,12.23368c0,4.17877,2.1444,6.43285,5.99328,6.43285
	C9.09963,18.66653,10.58434,17.20955,10.58434,17.20955L10.58434,17.20955z"/>
</svg>
