<?xml version="1.0" encoding="utf-8"?>
<!-- Generator: Adobe Illustrator 19.1.0, SVG Export Plug-In . SVG Version: 6.00 Build 0)  -->
<!DOCTYPE svg PUBLIC "-//W3C//DTD SVG 1.1//EN" "http://www.w3.org/Graphics/SVG/1.1/DTD/svg11.dtd">
<svg version="1.1" id="Layer_1" xmlns="http://www.w3.org/2000/svg" xmlns:xlink="http://www.w3.org/1999/xlink" x="0px" y="0px"
	 width="24px" height="24px" viewBox="0 0 24 24" enable-background="new 0 0 24 24" xml:space="preserve">
<path fill="#444444" d="M14.12897,13.43732H9.85901c-0.40094,0-0.72571,0.32477-0.72571,0.72168
	c0,0.39294,0.32477,0.72168,0.72571,0.72168h4.26996c0.39691,0,0.72168-0.32874,0.72168-0.72168
	C14.85065,13.76208,14.52588,13.43732,14.12897,13.43732z"/>
<path fill="#444444" d="M9.85901,10.54657h2.10089c0.40094,0,0.72571-0.32874,0.72571-0.72565
	c0-0.39697-0.32477-0.72168-0.72571-0.72168H9.85901c-0.40094,0-0.72571,0.32471-0.72571,0.72168
	C9.1333,10.21783,9.45807,10.54657,9.85901,10.54657z"/>
<path fill="#444444" d="M21,0H3C1.34314,0,0,1.34314,0,3v18c0,1.65686,1.34314,3,3,3h18c1.65686,0,3-1.34314,3-3V3
	C24,1.34314,22.65686,0,21,0z M17.95392,14.21515C17.94189,16.29602,16.24994,18,14.16504,18H9.81091
	c-2.0849,0-3.78888-1.70398-3.78888-3.78485v-4.4223C6.02203,7.70795,7.72601,6,9.81091,6h2.65015
	c1.14313,0,2.40161,0.95422,2.92682,2.06879c0.14435,0.31274,0.20209,0.49261,0.34082,1.28705
	c0.08282,0.47418,0.09625,0.8299,0.30872,1.02637c0.30072,0.27264,1.3833,0.15234,1.6358,0.26062
	c0.30475,0.13062,0.30475,0.50916,0.30475,0.50916L17.95392,14.21515z"/>
</svg>
