<?xml version="1.0" encoding="utf-8"?>
<!-- Generator: Adobe Illustrator 19.1.0, SVG Export Plug-In . SVG Version: 6.00 Build 0)  -->
<!DOCTYPE svg PUBLIC "-//W3C//DTD SVG 1.1//EN" "http://www.w3.org/Graphics/SVG/1.1/DTD/svg11.dtd">
<svg version="1.1" id="Layer_1" xmlns="http://www.w3.org/2000/svg" xmlns:xlink="http://www.w3.org/1999/xlink" x="0px" y="0px"
	 width="24px" height="24px" viewBox="0 0 24 24" enable-background="new 0 0 24 24" xml:space="preserve">
<path fill="#444444" d="M12,0C5.37256,0,0,5.37256,0,12c0,6.62738,5.37256,12,12,12s12-5.37262,12-12C24,5.37256,18.62744,0,12,0z
	 M15.90161,8.33569c1.05414,0,1.909,0.85187,1.909,1.90228c0,1.05066-0.85486,1.90222-1.909,1.90222
	c-1.05487,0-1.90991-0.85156-1.90991-1.90222C13.9917,9.18756,14.84674,8.33569,15.90161,8.33569z M11.60034,9.06818
	c0.94879,0,1.71851,0.7666,1.71851,1.71234c0,0.94543-0.76971,1.71204-1.71851,1.71204c-0.94928,0-1.71869-0.7666-1.71869-1.71204
	C9.88165,9.83478,10.65106,9.06818,11.60034,9.06818z M7.69977,9.72839c0.85413,0,1.54675,0.68964,1.54675,1.54089
	c0,0.85089-0.69263,1.54028-1.54675,1.54028c-0.85437,0-1.54675-0.68939-1.54675-1.54028
	C6.15302,10.41803,6.8454,9.72839,7.69977,9.72839z M9.39941,15.51013c0,0.08466-0.06927,0.15411-0.15472,0.15411H9.19006H6.20929
	H6.15448C6.06927,15.66425,6,15.59479,6,15.51013v-0.59857c0-0.88934,0.71906-1.75018,1.69983-1.75018
	c0.98071,0,1.69958,0.86084,1.69958,1.75018V15.51013z M13.48901,15.49292c0,0.09412-0.0769,0.17133-0.17206,0.17133h-0.06073
	H9.94403H9.88312c-0.09467,0-0.17169-0.07721-0.17169-0.17133v-0.66516c0-0.98822,0.79913-1.94482,1.88885-1.94482
	s1.88873,0.9566,1.88873,1.94482V15.49292z M18,15.47394c0,0.10455-0.08557,0.19031-0.19128,0.19031h-0.06726h-3.68011h-0.06775
	c-0.10522,0-0.1908-0.08575-0.1908-0.19031v-0.73895c0-1.09821,0.88782-2.16095,2.09863-2.16095
	C17.1123,12.57404,18,13.63678,18,14.73499V15.47394z"/>
</svg>
