<?xml version="1.0" encoding="utf-8"?>
<!-- Generator: Adobe Illustrator 19.1.0, SVG Export Plug-In . SVG Version: 6.00 Build 0)  -->
<!DOCTYPE svg PUBLIC "-//W3C//DTD SVG 1.1//EN" "http://www.w3.org/Graphics/SVG/1.1/DTD/svg11.dtd">
<svg version="1.1" id="Layer_1" xmlns="http://www.w3.org/2000/svg" xmlns:xlink="http://www.w3.org/1999/xlink" x="0px" y="0px"
	 width="24px" height="24px" viewBox="0 0 24 24" enable-background="new 0 0 24 24" xml:space="preserve">
<path fill="#444444" d="M21,0H3C1.34314,0,0,1.34314,0,3v18c0,1.65686,1.34314,3,3,3h18c1.65686,0,3-1.34314,3-3V3
	C24,1.34314,22.65686,0,21,0z M7.66962,14.22839c-0.05505-0.10736-0.09326-0.28668-0.11658-0.50226
	c-0.06586-0.65308,0.01453-1.6366,0.20502-1.94904c0.08966-0.14435,0.22021-0.21954,0.36578-0.21387
	c0.09576,0.00128,0.18054,0.03278,2.07275,0.83112c0.0014,0,0.55298,0.23022,0.55298,0.23022
	c0.19971,0.07629,0.32135,0.28906,0.30896,0.52917c-0.01318,0.2348-0.14453,0.41846-0.3396,0.46875
	c-0.00323,0.00177-0.78601,0.25671-0.78601,0.25671c-1.76086,0.57941-1.81909,0.59607-1.91266,0.59082
	C7.87396,14.46497,7.74573,14.37665,7.66962,14.22839z M12.03052,15.68042c-0.005,1.89252-0.00861,1.95502-0.03918,2.04553
	c-0.05096,0.14105-0.16937,0.23505-0.33331,0.26587c-0.4707,0.08203-1.94513-0.47272-2.2522-0.84705
	c-0.06219-0.07739-0.09918-0.16119-0.10712-0.24512c-0.00714-0.05927,0.00122-0.11761,0.02087-0.17383
	c0.03235-0.09442,0.08698-0.16791,1.41339-1.76056c0.00153,0,0.38721-0.46881,0.38721-0.46881
	c0.1319-0.16858,0.36713-0.22192,0.58569-0.13599c0.21313,0.08441,0.34198,0.27069,0.32971,0.4751
	C12.03503,14.8443,12.03052,15.68042,12.03052,15.68042z M11.7124,11.72369c-0.09521,0.0304-0.38672,0.12225-0.74438-0.47052
	c0,0-2.4184-3.89087-2.47491-4.01099c-0.03473-0.13464,0.00842-0.28772,0.12427-0.4115
	c0.36212-0.38171,2.31329-0.94128,2.82324-0.81158c0.16693,0.04309,0.28217,0.15131,0.32318,0.30261
	c0.02814,0.16748,0.26624,3.77783,0.30042,4.58838C12.09723,11.60168,11.8075,11.69354,11.7124,11.72369z M12.94452,11.91809
	c0.00592-0.00629,0.49005-0.68085,0.49005-0.68085c1.07068-1.49799,1.12775-1.57538,1.20508-1.62726
	c0.1239-0.08527,0.27448-0.09027,0.42444-0.01636c0.42377,0.21185,1.28485,1.51874,1.33612,2.02081
	c0.00092,0.00629,0,0.01135,0,0.01703c0.01038,0.17029-0.05029,0.31006-0.17139,0.39313
	c-0.07904,0.05292-0.15607,0.07959-2.15613,0.57483c-0.32117,0.07806-0.49768,0.12201-0.59613,0.16052
	c0.00226-0.00287,0.01056-0.01733,0.01056-0.01733c-0.19995,0.05688-0.4184-0.04175-0.5473-0.24335
	C12.81555,12.3045,12.81683,12.07642,12.94452,11.91809z M14.98138,17.06738c-0.15405,0.06384-0.30194,0.04834-0.41809-0.04529
	c-0.0755-0.06012-0.15497-0.1828-1.19989-1.91864l-0.31091-0.51691c-0.11884-0.18585-0.09576-0.42987,0.05261-0.61548
	c0.14337-0.18176,0.35712-0.24994,0.54352-0.17603c0.01007,0.005,0.78198,0.26587,0.78198,0.26587
	c1.75952,0.59076,1.81702,0.61334,1.89148,0.67059c0.11371,0.09271,0.16534,0.23834,0.14209,0.40735
	C16.39606,15.62427,15.42572,16.88611,14.98138,17.06738z"/>
</svg>
