<?xml version="1.0" encoding="utf-8"?>
<!-- Generator: Adobe Illustrator 19.1.0, SVG Export Plug-In . SVG Version: 6.00 Build 0)  -->
<!DOCTYPE svg PUBLIC "-//W3C//DTD SVG 1.1//EN" "http://www.w3.org/Graphics/SVG/1.1/DTD/svg11.dtd">
<svg version="1.1" id="Layer_1" xmlns="http://www.w3.org/2000/svg" xmlns:xlink="http://www.w3.org/1999/xlink" x="0px" y="0px"
	 width="24px" height="24px" viewBox="0 0 24 24" enable-background="new 0 0 24 24" xml:space="preserve">
<path fill="#444444" d="M12.79999,8.40002H9.40002v3.60004h3.39996V12c0.99414-0.00006,1.79999-0.80591,1.79999-1.79999
	C14.59998,9.20587,13.79413,8.40002,12.79999,8.40002z"/>
<path fill="#444444" d="M12,0C5.37256,0,0,5.37256,0,12c0,6.62738,5.37256,12,12,12s12-5.37262,12-12C24,5.37256,18.62744,0,12,0z
	 M12.79999,14.40002H9.40002V18H7V6l5.79999,0.00006V6C15.11963,6,17,7.88043,17,10.20001S15.11963,14.40002,12.79999,14.40002z"/>
</svg>
