<?xml version="1.0" encoding="utf-8"?>
<!-- Generator: Adobe Illustrator 19.1.0, SVG Export Plug-In . SVG Version: 6.00 Build 0)  -->
<!DOCTYPE svg PUBLIC "-//W3C//DTD SVG 1.1//EN" "http://www.w3.org/Graphics/SVG/1.1/DTD/svg11.dtd">
<svg version="1.1" id="Layer_1" xmlns="http://www.w3.org/2000/svg" xmlns:xlink="http://www.w3.org/1999/xlink" x="0px" y="0px"
	 width="24px" height="24px" viewBox="0 0 24 24" enable-background="new 0 0 24 24" xml:space="preserve">
<path fill="#444444" d="M12,0C5.37256,0,0,5.37256,0,12c0,6.62738,5.37256,12,12,12s12-5.37262,12-12C24,5.37256,18.62744,0,12,0z
	 M13.37036,17.99921c-2.61395,0.04462-3.60449-1.86243-3.60449-3.20465V10.8736H8.5517V9.32355
	c1.82013-0.65613,2.25818-2.2981,2.36096-3.2337C10.91968,6.02551,10.97015,6,10.9989,6c0.02881,0,1.75793,0,1.75793,0v3.05695
	h2.40082v1.81665h-2.40961v3.73541c0.00824,0.50848,0.19427,1.20892,1.15491,1.18311
	c0.31824-0.00824,0.74506-0.10101,0.96814-0.20721l0.57721,1.71149C15.23163,17.61462,14.25226,17.98395,13.37036,17.99921z"/>
</svg>
