<?xml version="1.0" encoding="utf-8"?>
<!-- Generator: Adobe Illustrator 19.1.0, SVG Export Plug-In . SVG Version: 6.00 Build 0)  -->
<!DOCTYPE svg PUBLIC "-//W3C//DTD SVG 1.1//EN" "http://www.w3.org/Graphics/SVG/1.1/DTD/svg11.dtd">
<svg version="1.1" id="Layer_1" xmlns="http://www.w3.org/2000/svg" xmlns:xlink="http://www.w3.org/1999/xlink" x="0px" y="0px"
	 width="24px" height="24px" viewBox="0 0 24 24" enable-background="new 0 0 24 24" xml:space="preserve">
<path fill="#444444" d="M19.93222,4.67296c-0.01652-0.12073-0.12226-0.1875-0.20947-0.1948
	c-0.08721-0.00727-1.93193-0.14396-1.93193-0.14396s-1.28114-1.27185-1.42176-1.41259
	c-0.14063-0.14072-0.41536-0.09802-0.52201-0.06665c-0.01585,0.00466-0.27995,0.08623-0.71704,0.22142
	c-0.42794-1.23144-1.1832-2.36319-2.51188-2.36319c-0.03673,0-0.07445,0.00167-0.11238,0.00374
	C12.12788,0.21713,11.65984,0,11.25552,0c-3.09521,0-4.57395,3.86941-5.0376,5.83566
	C5.01522,6.20829,4.16081,6.4732,4.05161,6.50749C3.38022,6.7182,3.35913,6.73929,3.27109,7.37184
	C3.20443,7.85075,1.44787,21.43546,1.44787,21.43546L15.1357,24l7.41644-1.60452
	C22.55214,22.39548,19.94873,4.7937,19.93222,4.67296z M12.40431,3.78577c0,0.04723-0.0004,0.09054-0.00075,0.13434
	c-0.75345,0.23323-1.57179,0.48659-2.39208,0.7406c0.46063-1.77755,1.32382-2.63611,2.07877-2.96006
	C12.2805,2.17767,12.40431,2.86218,12.40431,3.78577z M11.17045,0.83034c0.13373,0,0.2682,0.04528,0.39714,0.13398
	c-0.99208,0.46675-2.05527,1.64246-2.50437,3.99C8.40695,5.15757,7.76556,5.35623,7.17241,5.53997
	C7.6985,3.74919,8.94729,0.83034,11.17045,0.83034z M11.70369,11.29639c0,0-0.80132-0.42777-1.78339-0.42777
	c-1.43996,0-1.5123,0.90374-1.5123,1.1314c0,1.24244,3.23845,1.71841,3.23845,4.62846c0,2.28948-1.45201,3.7639-3.41012,3.7639
	C5.8866,20.39237,4.6851,18.93,4.6851,18.93l0.62913-2.07861c0,0,1.23512,1.06039,2.27743,1.06039
	c0.68082,0,0.95797-0.53622,0.95797-0.92784c0-1.62071-2.657-1.69301-2.657-4.35604c0-2.24128,1.60866-4.41026,4.85611-4.41026
	c1.25127,0,1.86937,0.35848,1.86937,0.35848L11.70369,11.29639z M13.21542,3.66877c0.00027-0.08155,0.0006-0.16185,0.0006-0.24968
	c0-0.76536-0.10615-1.38162-0.27667-1.87009c0.68467,0.086,1.14075,0.86496,1.43406,1.7614
	C14.02979,3.41674,13.63902,3.53766,13.21542,3.66877z"/>
</svg>
