<?xml version="1.0" encoding="utf-8"?>
<!-- Generator: Adobe Illustrator 19.1.0, SVG Export Plug-In . SVG Version: 6.00 Build 0)  -->
<!DOCTYPE svg PUBLIC "-//W3C//DTD SVG 1.1//EN" "http://www.w3.org/Graphics/SVG/1.1/DTD/svg11.dtd">
<svg version="1.1" id="Layer_1" xmlns="http://www.w3.org/2000/svg" xmlns:xlink="http://www.w3.org/1999/xlink" x="0px" y="0px"
	 width="24px" height="24px" viewBox="0 0 24 24" enable-background="new 0 0 24 24" xml:space="preserve">
<path fill="#444444" d="M12.82092,9.7962c-0.17084-0.21295-0.3822-0.38916-0.56854-0.58795
	c-0.08752-0.07556-0.18927-0.21808-0.32092-0.15222c-0.15295,0.11365-0.27625,0.26123-0.41248,0.39368
	c-1.01349,1.01288-2.02539,2.0282-3.04102,3.03931c-0.07385,0.07733-0.19324,0.19202-0.10004,0.30176
	c0.16125,0.1983,0.3443,0.38397,0.54413,0.54413c0.22681,0.03528,0.52161,0.08759,0.68921-0.11182
	c1.03894-1.0437,2.0816-2.08374,3.12402-3.12402C12.81244,10.0235,12.90918,9.90143,12.82092,9.7962z"/>
<path fill="#444444" d="M12.24152,12.00281c-0.08453-0.07275-0.1778-0.20233-0.30505-0.14771
	c-0.12726,0.07782-0.22205,0.1955-0.32727,0.29767c-0.57593,0.58002-1.15424,1.15662-1.73322,1.73334
	c-0.08801,0.0816-0.19495,0.22339-0.08063,0.33173c0.17151,0.18457,0.33734,0.38739,0.55048,0.52478
	c0.22156,0.01825,0.50555,0.08093,0.66699-0.11694c0.57483-0.58112,1.15485-1.15784,1.73315-1.73553
	c0.07043-0.06989,0.16022-0.18018,0.08301-0.27844C12.65338,12.39075,12.43414,12.20898,12.24152,12.00281z"/>
<path fill="#444444" d="M12.17444,14.73944c-0.07153-0.0813-0.2038-0.1181-0.29242-0.04352
	c-0.23816,0.21735-0.46826,0.44574-0.68353,0.68481c-0.12775,0.13922,0.02722,0.28412,0.12616,0.38049
	c0.13922,0.12695,0.25403,0.29199,0.42377,0.37799c0.17676,0.02551,0.36243,0.03528,0.53693-0.00696
	c0.19025-0.1521,0.35956-0.33099,0.52142-0.51312c0.08759-0.07935,0.04553-0.20941-0.0318-0.27808
	C12.57843,15.13629,12.37793,14.93597,12.17444,14.73944z"/>
<path fill="#444444" d="M12,0C5.37256,0,0,5.37256,0,12c0,6.62738,5.37256,12,12,12s12-5.37262,12-12C24,5.37256,18.62744,0,12,0z
	 M17.77948,13.43445c-0.13074,0.18896-0.30463,0.34143-0.46527,0.50427c-0.98578,0.98401-1.96912,1.97089-2.95532,2.95422
	c-0.28351,0.28699-0.6886,0.42999-1.08911,0.40448c-0.88965-0.00348-1.77979,0.0022-2.6701-0.00281
	c-0.34753,0.00409-0.69012-0.1402-0.93329-0.38812c-1.08795-1.08954-2.177-2.17682-3.26544-3.26575
	c-0.32507-0.3194-0.48413-0.81641-0.35736-1.26025c0.0567-0.24646,0.1955-0.46808,0.37323-0.64539
	c1.54407-1.5434,3.08813-3.08765,4.63171-4.63171c0.17847-0.17828,0.40161-0.31354,0.64874-0.37042
	c0.28235-0.06012,0.58698-0.04248,0.84998,0.0824c0.26477,0.1131,0.45325,0.33813,0.65387,0.53516
	c1.37195,1.37366,2.74512,2.74615,4.11816,4.11938c0.22723,0.22894,0.49023,0.44598,0.59985,0.76068
	C18.05945,12.62256,18.01978,13.08844,17.77948,13.43445z"/>
</svg>
