<?xml version="1.0" encoding="utf-8"?>
<!-- Generator: Adobe Illustrator 19.1.0, SVG Export Plug-In . SVG Version: 6.00 Build 0)  -->
<!DOCTYPE svg PUBLIC "-//W3C//DTD SVG 1.1//EN" "http://www.w3.org/Graphics/SVG/1.1/DTD/svg11.dtd">
<svg version="1.1" id="Layer_1" xmlns="http://www.w3.org/2000/svg" xmlns:xlink="http://www.w3.org/1999/xlink" x="0px" y="0px"
	 width="24px" height="24px" viewBox="0 0 24 24" enable-background="new 0 0 24 24" xml:space="preserve">
<path fill="#444444" d="M11.72125,10.33374c-0.84918-1.50952-1.76501-2.77863-1.90009-2.96393
	c-1.43378,0.67627-2.50549,1.99805-2.83783,3.58832C7.21252,10.96118,9.32397,10.97034,11.72125,10.33374z"/>
<path fill="#444444" d="M12.35828,12.05255c0.06683-0.02161,0.13416-0.04187,0.20197-0.06097
	c-0.12866-0.29114-0.26874-0.58258-0.41547-0.86969c-2.55933,0.76593-5.04285,0.73395-5.26709,0.72931
	c-0.00159,0.05206-0.00262,0.10419-0.00262,0.15662c0,1.31628,0.49896,2.51813,1.3175,3.4267
	C8.30865,15.23578,9.71521,12.90692,12.35828,12.05255z"/>
<path fill="#444444" d="M15.39728,8.17426C14.49225,7.37134,13.30219,6.88287,12,6.88287
	c-0.41351,0-0.81561,0.04956-1.20099,0.14246c0.14166,0.1897,1.07245,1.45721,1.91229,3.00018
	C14.53363,9.34247,15.30511,8.30554,15.39728,8.17426z"/>
<path fill="#444444" d="M12.87482,12.85046c-2.89062,1.00726-3.92828,3.01184-4.02051,3.20038
	c0.8689,0.67761,1.96094,1.08191,3.14569,1.08191c0.70996,0,1.3866-0.1452,2.00189-0.40735
	c-0.07623-0.44958-0.37378-2.01666-1.09326-3.88641C12.89734,12.84283,12.88605,12.8465,12.87482,12.85046z"/>
<path fill="#444444" d="M12,0C5.37256,0,0,5.37256,0,12c0,6.62738,5.37256,12,12,12s12-5.37262,12-12C24,5.37256,18.62744,0,12,0z
	 M12,18c-3.30841,0-6-2.69159-6-6s2.69159-6,6-6s6,2.69159,6,6S15.30841,18,12,18z"/>
<path fill="#444444" d="M13.10529,10.7876c0.11926,0.24414,0.23358,0.49243,0.34003,0.74231
	c0.03772,0.08862,0.07446,0.17676,0.11041,0.26453c1.70526-0.21442,3.3996,0.12921,3.5686,0.16498
	c-0.01129-1.20966-0.44354-2.32043-1.15729-3.1925C15.85895,8.91309,15.00018,10.01398,13.10529,10.7876z"/>
<path fill="#444444" d="M13.86786,12.60223c0.67029,1.84198,0.94312,3.34222,0.99561,3.65399
	c1.14972-0.7774,1.9682-2.00891,2.19666-3.43494C16.88477,12.76593,15.47382,12.34515,13.86786,12.60223z"/>
</svg>
