<?xml version="1.0" encoding="utf-8"?>
<!-- Generator: Adobe Illustrator 19.1.0, SVG Export Plug-In . SVG Version: 6.00 Build 0)  -->
<!DOCTYPE svg PUBLIC "-//W3C//DTD SVG 1.1//EN" "http://www.w3.org/Graphics/SVG/1.1/DTD/svg11.dtd">
<svg version="1.1" id="Layer_1" xmlns="http://www.w3.org/2000/svg" xmlns:xlink="http://www.w3.org/1999/xlink" x="0px" y="0px"
	 width="24px" height="24px" viewBox="0 0 24 24" enable-background="new 0 0 24 24" xml:space="preserve">
<path fill="#444444" d="M3.96576,4.64841c0,0,0,0,0.00148,0h2.2524c0.12905,0,0.23286-0.10512,0.23312-0.2332
	c0-0.00081-0.02735-1.93127-0.02735-2.46811V1.94074c0-0.44089,0.09253-0.82531,0.25373-1.14743l0.07702-0.14467
	C6.74755,0.6501,6.73892,0.65431,6.73036,0.6629L2.35391,5.00279C2.34535,5.00983,2.33999,5.01896,2.33753,5.02834
	c0.09053-0.0448,0.21429-0.10603,0.23177-0.1137C2.95042,4.74266,3.41258,4.64841,3.96576,4.64841z M21.49226,4.17584
	c-0.17893-0.95778-0.74835-1.42978-1.26317-1.61535c-0.55546-0.20074-1.68176-0.40871-3.09689-0.5755
	c-1.1385-0.13408-2.47665-0.12342-3.28493-0.09841c-0.09702-0.66446-0.56308-1.27149-1.08455-1.48165
	c-1.38944-0.55924-3.53617-0.42415-4.08735-0.26966C8.23738,0.25768,7.75261,0.50856,7.48279,0.89513
	c-0.18092,0.25821-0.298,0.58904-0.29891,1.0512c0,0.26158,0.00727,0.87775,0.01394,1.42521
	c0.00662,0.54918,0.01381,1.04035,0.01381,1.04366C7.21137,4.90413,6.81512,5.30204,6.32405,5.30269H4.07129
	c-0.48052,0-0.84769,0.08074-1.12814,0.20818C2.66226,5.6384,2.46331,5.81034,2.31216,6.01375
	C2.01127,6.41766,1.95903,6.91612,1.96028,7.4248c0,0,0.00444,0.41566,0.10458,1.22019
	c0.08326,0.62252,0.75835,4.97126,1.39958,6.29384c0.24862,0.5146,0.41421,0.72892,0.90265,0.95572
	c1.08828,0.46592,3.57409,0.98427,4.73913,1.1327c1.16294,0.14879,1.89285,0.4616,2.32786-0.45045
	c0.00145-0.00226,0.08714-0.22692,0.20498-0.55645c0.37765-1.14438,0.43021-2.15976,0.43021-2.89454
	c0-0.0747,0.10962-0.07813,0.10962,0c0,0.51876-0.09906,2.35449,1.28763,2.84699c0.54742,0.19415,1.68305,0.36722,2.83695,0.50248
	c1.04334,0.11991,1.80052,0.53048,1.80052,3.20727c0,1.62856-0.34206,1.85184-2.13025,1.85184
	c-1.44955,0-2.002,0.03753-2.002-1.11408c0-0.93075,0.92053-0.83319,1.60278-0.83319c0.30473,0,0.08354-0.22668,0.08354-0.80091
	c0-0.5712,0.35725-0.90142,0.01935-0.90978c-2.35915-0.06492-3.74725-0.00271-3.74725,2.94774
	c0,2.67849,1.02502,3.17583,4.37332,3.17583c2.62524,0,3.55064-0.08597,4.63464-3.44933
	c0.21456-0.66395,0.73328-2.69024,1.04724-6.09235C22.18375,12.30716,21.79812,5.81452,21.49226,4.17584z M16.91596,11.35225
	c-0.32435-0.01135-0.6363,0.00913-0.92717,0.05587c0.08185-0.66119,0.35478-1.4725,1.32155-1.43855
	c1.07021,0.03681,1.22017,1.04833,1.22398,1.73346C18.08304,11.50185,17.52443,11.37363,16.91596,11.35225z"/>
</svg>
