<?xml version="1.0" encoding="utf-8"?>
<!-- Generator: Adobe Illustrator 19.1.0, SVG Export Plug-In . SVG Version: 6.00 Build 0)  -->
<!DOCTYPE svg PUBLIC "-//W3C//DTD SVG 1.1//EN" "http://www.w3.org/Graphics/SVG/1.1/DTD/svg11.dtd">
<svg version="1.1" id="Layer_2" xmlns="http://www.w3.org/2000/svg" xmlns:xlink="http://www.w3.org/1999/xlink" x="0px" y="0px"
	 width="48px" height="48px" viewBox="0 0 48 48" enable-background="new 0 0 48 48" xml:space="preserve">
<path d="M10,1C9.4,1,9,1.4,9,2v44c0,0.6,0.4,1,1,1s1-0.4,1-1V2C11,1.4,10.6,1,10,1z"/>
<path d="M38.5,17.1l-22-12c-0.3-0.2-0.7-0.2-1,0S15,5.6,15,6v24c0,0.4,0.2,0.7,0.5,0.9C15.6,31,15.8,31,16,31c0.2,0,0.3,0,0.5-0.1
	l22-12c0.3-0.2,0.5-0.5,0.5-0.9S38.8,17.3,38.5,17.1z"/>
</svg>
