<?xml version="1.0" encoding="utf-8"?>
<!-- Generator: Adobe Illustrator 19.1.0, SVG Export Plug-In . SVG Version: 6.00 Build 0)  -->
<!DOCTYPE svg PUBLIC "-//W3C//DTD SVG 1.1//EN" "http://www.w3.org/Graphics/SVG/1.1/DTD/svg11.dtd">
<svg version="1.1" id="Layer_2" xmlns="http://www.w3.org/2000/svg" xmlns:xlink="http://www.w3.org/1999/xlink" x="0px" y="0px"
	 width="48px" height="48px" viewBox="0 0 48 48" enable-background="new 0 0 48 48" xml:space="preserve">
<path d="M24.7,2.3c-0.4-0.4-1-0.4-1.4,0C22.6,3,7,18.8,7,29c0,10.6,8.6,17,17,17s17-6.4,17-17C41,18.8,25.4,3,24.7,2.3z M24,36
	c-1.8,0-7-1.3-7-7c0-0.6,0.4-1,1-1s1,0.4,1,1c0,4.8,5,5,5,5c0.6,0,1,0.4,1,1S24.6,36,24,36z"/>
</svg>
