<?xml version="1.0" encoding="utf-8"?>
<!-- Generator: Adobe Illustrator 19.1.0, SVG Export Plug-In . SVG Version: 6.00 Build 0)  -->
<!DOCTYPE svg PUBLIC "-//W3C//DTD SVG 1.1//EN" "http://www.w3.org/Graphics/SVG/1.1/DTD/svg11.dtd">
<svg version="1.1" id="Layer_2" xmlns="http://www.w3.org/2000/svg" xmlns:xlink="http://www.w3.org/1999/xlink" x="0px" y="0px"
	 width="48px" height="48px" viewBox="0 0 48 48" enable-background="new 0 0 48 48" xml:space="preserve">
<path id="color_97_" d="M46,21h-2c-0.6,0-1-0.4-1-1s0.4-1,1-1h2c0.6,0,1,0.4,1,1S46.6,21,46,21z"/>
<path id="color_96_" d="M39.3,9.7c-0.3,0-0.5-0.1-0.7-0.3c-0.4-0.4-0.4-1,0-1.4L40,6.6c0.4-0.4,1-0.4,1.4,0c0.4,0.4,0.4,1,0,1.4
	L40,9.4C39.8,9.6,39.6,9.7,39.3,9.7z"/>
<path id="color_95_" d="M28,5c-0.6,0-1-0.4-1-1V2c0-0.6,0.4-1,1-1s1,0.4,1,1v2C29,4.6,28.6,5,28,5z"/>
<path id="color_94_" d="M16.7,9.7c-0.3,0-0.5-0.1-0.7-0.3L14.6,8c-0.4-0.4-0.4-1,0-1.4c0.4-0.4,1-0.4,1.4,0L17.4,8
	c0.4,0.4,0.4,1,0,1.4C17.2,9.6,16.9,9.7,16.7,9.7z"/>
<path d="M36,25c-2.1,0-4.2,0.6-5.9,1.8C27.9,21,22.3,17,16,17C7.7,17,1,23.7,1,32s6.7,15,15,15h20c6.1,0,11-4.9,11-11S42.1,25,36,25
	z"/>
<path id="color_29_" d="M31,24c1.6-0.7,3.3-1,5-1c0.9,0,1.7,0.1,2.5,0.2c0.3-1,0.5-2.1,0.5-3.2c0-6.1-4.9-11-11-11
	c-4.3,0-8.1,2.5-9.9,6.1C23.6,15.8,28.4,19.2,31,24z"/>
</svg>
