<?xml version="1.0" encoding="utf-8"?>
<!-- Generator: Adobe Illustrator 19.1.0, SVG Export Plug-In . SVG Version: 6.00 Build 0)  -->
<!DOCTYPE svg PUBLIC "-//W3C//DTD SVG 1.1//EN" "http://www.w3.org/Graphics/SVG/1.1/DTD/svg11.dtd">
<svg version="1.1" id="Layer_2" xmlns="http://www.w3.org/2000/svg" xmlns:xlink="http://www.w3.org/1999/xlink" x="0px" y="0px"
	 width="48px" height="48px" viewBox="0 0 48 48" enable-background="new 0 0 48 48" xml:space="preserve">
<path d="M16,3C8.8,3,3,8.8,3,16s5.8,13,13,13s13-5.8,13-13S23.2,3,16,3z"/>
<path d="M36,27c-5,0-9,4-9,9s4,9,9,9s9-4,9-9S41,27,36,27z"/>
<path d="M40,19c2.8,0,5-2.2,5-5s-2.2-5-5-5s-5,2.2-5,5S37.2,19,40,19z"/>
</svg>
