<?xml version="1.0" encoding="utf-8"?>
<!-- Generator: Adobe Illustrator 19.1.0, SVG Export Plug-In . SVG Version: 6.00 Build 0)  -->
<!DOCTYPE svg PUBLIC "-//W3C//DTD SVG 1.1//EN" "http://www.w3.org/Graphics/SVG/1.1/DTD/svg11.dtd">
<svg version="1.1" id="Layer_2" xmlns="http://www.w3.org/2000/svg" xmlns:xlink="http://www.w3.org/1999/xlink" x="0px" y="0px"
	 width="48px" height="48px" viewBox="0 0 48 48" enable-background="new 0 0 48 48" xml:space="preserve">
<path d="M38,17c-1.4,0-2.8,0.3-4.1,1c-1.9-4.2-6.2-7-10.9-7c-4.4,0-8.5,2.5-10.6,6.3C11.6,17.1,10.8,17,10,17c-5,0-9,4-9,9s4,9,9,9
	h7.2c-0.3-0.8-0.2-1.8,0.2-2.5l6-10C24,21.6,25,21,26,21c0.5,0,1.1,0.1,1.5,0.4c1.4,0.8,1.9,2.7,1,4.1L25.3,31H28
	c1.1,0,2.1,0.6,2.6,1.5c0.4,0.8,0.5,1.7,0.2,2.5H38c5,0,9-4,9-9S43,17,38,17z"/>
<path id="color_76_" d="M23,9c4.8,0,9.3,2.5,11.8,6.5c1-0.3,2.1-0.5,3.2-0.5c3.2,0,6.1,1.4,8.1,3.6c0.6-1.5,0.9-3,0.9-4.6
	c0-0.6-0.4-1-1-1c-6.1,0-11-4.9-11-11c0-0.6-0.4-1-1-1c-5.4,0-10,3.3-12,8.1C22.4,9,22.7,9,23,9z"/>
<path id="color_75_" d="M22,45c-0.2,0-0.4,0-0.5-0.1c-0.5-0.3-0.6-0.9-0.3-1.4l5.1-8.5H20c-0.4,0-0.7-0.2-0.9-0.5
	c-0.2-0.3-0.2-0.7,0-1l6-10c0.3-0.5,0.9-0.6,1.4-0.3c0.5,0.3,0.6,0.9,0.3,1.4L21.8,33H28c0.4,0,0.7,0.2,0.9,0.5c0.2,0.3,0.2,0.7,0,1
	l-6,10C22.7,44.8,22.3,45,22,45z"/>
</svg>
