<?xml version="1.0" encoding="utf-8"?>
<!-- Generator: Adobe Illustrator 19.1.0, SVG Export Plug-In . SVG Version: 6.00 Build 0)  -->
<!DOCTYPE svg PUBLIC "-//W3C//DTD SVG 1.1//EN" "http://www.w3.org/Graphics/SVG/1.1/DTD/svg11.dtd">
<svg version="1.1" id="Layer_2" xmlns="http://www.w3.org/2000/svg" xmlns:xlink="http://www.w3.org/1999/xlink" x="0px" y="0px"
	 width="48px" height="48px" viewBox="0 0 48 48" enable-background="new 0 0 48 48" xml:space="preserve">
<path id="color_112_" d="M32,4c-0.6,0-1-0.4-1-1V1c0-0.6,0.4-1,1-1s1,0.4,1,1v2C33,3.6,32.6,4,32,4z"/>
<path id="color_111_" d="M41.2,7.8c-0.3,0-0.5-0.1-0.7-0.3c-0.4-0.4-0.4-1,0-1.4l1.4-1.4c0.4-0.4,1-0.4,1.4,0s0.4,1,0,1.4l-1.4,1.4
	C41.7,7.7,41.4,7.8,41.2,7.8z"/>
<path id="color_110_" d="M47,17h-2c-0.6,0-1-0.4-1-1s0.4-1,1-1h2c0.6,0,1,0.4,1,1S47.6,17,47,17z"/>
<path id="color_109_" d="M22.8,7.8c-0.3,0-0.5-0.1-0.7-0.3l-1.4-1.4c-0.4-0.4-0.4-1,0-1.4s1-0.4,1.4,0l1.4,1.4c0.4,0.4,0.4,1,0,1.4
	C23.3,7.7,23.1,7.8,22.8,7.8z"/>
<path id="color_39_" d="M24,47c-0.6,0-1-0.4-1-1v-2c0-0.6,0.4-1,1-1s1,0.4,1,1v2C25,46.6,24.6,47,24,47z"/>
<path id="color_38_" d="M17,44c-0.6,0-1-0.4-1-1v-2c0-0.6,0.4-1,1-1s1,0.4,1,1v2C18,43.6,17.6,44,17,44z"/>
<path d="M38,17c-1.4,0-2.8,0.3-4.1,1c-1.9-4.2-6.2-7-10.9-7c-4.4,0-8.5,2.5-10.6,6.3C11.6,17.1,10.8,17,10,17c-5,0-9,4-9,9s4,9,9,9
	h6v-6c0-0.6,0.4-1,1-1s1,0.4,1,1v6h5v-3c0-0.6,0.4-1,1-1s1,0.4,1,1v3h5v-6c0-0.6,0.4-1,1-1s1,0.4,1,1v6h6c5,0,9-4,9-9S43,17,38,17z"
	/>
<path id="color_37_" d="M31,44c-0.6,0-1-0.4-1-1v-2c0-0.6,0.4-1,1-1s1,0.4,1,1v2C32,43.6,31.6,44,31,44z"/>
<path id="color_17_" d="M34.8,15.5c1-0.3,2.1-0.5,3.2-0.5c1.4,0,2.7,0.3,4,0.8C41.9,10.4,37.4,6,32,6c-2.8,0-5.4,1.2-7.2,3.1
	C28.9,9.6,32.6,12,34.8,15.5z"/>
<path id="color_16_" d="M16,35v2c0,0.6,0.4,1,1,1s1-0.4,1-1v-2H16z"/>
<path id="color_15_" d="M23,35v5c0,0.6,0.4,1,1,1s1-0.4,1-1v-5H23z"/>
<path id="color_14_" d="M30,35v2c0,0.6,0.4,1,1,1s1-0.4,1-1v-2H30z"/>
</svg>
