<?xml version="1.0" encoding="utf-8"?>
<!-- Generator: Adobe Illustrator 19.1.0, SVG Export Plug-In . SVG Version: 6.00 Build 0)  -->
<!DOCTYPE svg PUBLIC "-//W3C//DTD SVG 1.1//EN" "http://www.w3.org/Graphics/SVG/1.1/DTD/svg11.dtd">
<svg version="1.1" id="Layer_2" xmlns="http://www.w3.org/2000/svg" xmlns:xlink="http://www.w3.org/1999/xlink" x="0px" y="0px"
	 width="48px" height="48px" viewBox="0 0 48 48" enable-background="new 0 0 48 48" xml:space="preserve">
<path d="M41,30.3c-1.7,0.5-3.4,0.7-5,0.7c-10.5,0-19-8.5-19-19c0-1.6,0.2-3.3,0.7-5c0.1-0.3,0-0.7-0.3-1c-0.3-0.3-0.6-0.4-1-0.3
	C7.4,8.2,1,16.6,1,26c0,11.6,9.4,21,21,21c9.4,0,17.8-6.4,20.2-15.5c0.1-0.3,0-0.7-0.3-1C41.7,30.3,41.4,30.2,41,30.3z"/>
<path id="color_69_" d="M26,7h3v3c0,0.6,0.4,1,1,1s1-0.4,1-1V7h3c0.6,0,1-0.4,1-1s-0.4-1-1-1h-3V2c0-0.6-0.4-1-1-1s-1,0.4-1,1v3h-3
	c-0.6,0-1,0.4-1,1S25.4,7,26,7z"/>
<path id="color_68_" d="M46,17h-3v-3c0-0.6-0.4-1-1-1s-1,0.4-1,1v3h-3c-0.6,0-1,0.4-1,1s0.4,1,1,1h3v3c0,0.6,0.4,1,1,1s1-0.4,1-1v-3
	h3c0.6,0,1-0.4,1-1S46.6,17,46,17z"/>
</svg>
