<?xml version="1.0" encoding="utf-8"?>
<!-- Generator: Adobe Illustrator 19.1.0, SVG Export Plug-In . SVG Version: 6.00 Build 0)  -->
<!DOCTYPE svg PUBLIC "-//W3C//DTD SVG 1.1//EN" "http://www.w3.org/Graphics/SVG/1.1/DTD/svg11.dtd">
<svg version="1.1" id="Layer_2" xmlns="http://www.w3.org/2000/svg" xmlns:xlink="http://www.w3.org/1999/xlink" x="0px" y="0px"
	 width="48px" height="48px" viewBox="0 0 48 48" enable-background="new 0 0 48 48" xml:space="preserve">
<path d="M38.9,15C37.9,7,31.2,1,23,1C14.8,1,7.8,7.4,7.1,15.4C3.5,16.6,1,20.1,1,24c0,5,4,9,9,9h13v-1c0-0.6,0.4-1,1-1s1,0.4,1,1v1
	h13c5,0,9-4,9-9C47,19.3,43.4,15.5,38.9,15z M17,28c0,0.6-0.4,1-1,1s-1-0.4-1-1v-2c0-0.6,0.4-1,1-1s1,0.4,1,1V28z M33,28
	c0,0.6-0.4,1-1,1s-1-0.4-1-1v-2c0-0.6,0.4-1,1-1s1,0.4,1,1V28z"/>
<path id="color_88_" d="M24,46c-0.6,0-1-0.4-1-1v-2c0-0.6,0.4-1,1-1s1,0.4,1,1v2C25,45.6,24.6,46,24,46z"/>
<path id="color_87_" d="M16,40c-0.6,0-1-0.4-1-1v-2c0-0.6,0.4-1,1-1s1,0.4,1,1v2C17,39.6,16.6,40,16,40z"/>
<path id="color_86_" d="M32,40c-0.6,0-1-0.4-1-1v-2c0-0.6,0.4-1,1-1s1,0.4,1,1v2C33,39.6,32.6,40,32,40z"/>
</svg>
