<?xml version="1.0" encoding="utf-8"?>
<!-- Generator: Adobe Illustrator 19.1.0, SVG Export Plug-In . SVG Version: 6.00 Build 0)  -->
<!DOCTYPE svg PUBLIC "-//W3C//DTD SVG 1.1//EN" "http://www.w3.org/Graphics/SVG/1.1/DTD/svg11.dtd">
<svg version="1.1" id="Layer_2" xmlns="http://www.w3.org/2000/svg" xmlns:xlink="http://www.w3.org/1999/xlink" x="0px" y="0px"
	 width="48px" height="48px" viewBox="0 0 48 48" enable-background="new 0 0 48 48" xml:space="preserve">
<path id="color_102_" d="M4,25H2c-0.6,0-1-0.4-1-1s0.4-1,1-1h2c0.6,0,1,0.4,1,1S4.6,25,4,25z"/>
<path id="color_101_" d="M9.8,10.8c-0.3,0-0.5-0.1-0.7-0.3L7.7,9.1c-0.4-0.4-0.4-1,0-1.4c0.4-0.4,1-0.4,1.4,0l1.4,1.4
	c0.4,0.4,0.4,1,0,1.4C10.3,10.7,10.1,10.8,9.8,10.8z"/>
<path id="color_100_" d="M24,5c-0.6,0-1-0.4-1-1V2c0-0.6,0.4-1,1-1s1,0.4,1,1v2C25,4.6,24.6,5,24,5z"/>
<path id="color_99_" d="M38.2,10.8c-0.3,0-0.5-0.1-0.7-0.3c-0.4-0.4-0.4-1,0-1.4l1.4-1.4c0.4-0.4,1-0.4,1.4,0s0.4,1,0,1.4l-1.4,1.4
	C38.7,10.7,38.5,10.8,38.2,10.8z"/>
<path id="color_98_" d="M46,25h-2c-0.6,0-1-0.4-1-1s0.4-1,1-1h2c0.6,0,1,0.4,1,1S46.6,25,46,25z"/>
<path d="M38,29c-1.4,0-2.8,0.3-4.1,1c-1.9-4.2-6.2-7-10.9-7c-4.4,0-8.5,2.5-10.6,6.3C11.6,29.1,10.8,29,10,29c-5,0-9,4-9,9s4,9,9,9
	h28c5,0,9-4,9-9S43,29,38,29z"/>
<path id="color" d="M11.4,27.1C14,23.3,18.3,21,23,21c4.8,0,9.3,2.5,11.8,6.5c0.6-0.2,1.2-0.3,1.8-0.4c0.2-1,0.4-2,0.4-3.1
	c0-7.2-5.8-13-13-13s-13,5.8-13,13C11,25,11.1,26.1,11.4,27.1C11.4,27.1,11.4,27.1,11.4,27.1z"/>
</svg>
