<?xml version="1.0" encoding="utf-8"?>
<!-- Generator: Adobe Illustrator 19.1.0, SVG Export Plug-In . SVG Version: 6.00 Build 0)  -->
<!DOCTYPE svg PUBLIC "-//W3C//DTD SVG 1.1//EN" "http://www.w3.org/Graphics/SVG/1.1/DTD/svg11.dtd">
<svg version="1.1" id="Layer_2" xmlns="http://www.w3.org/2000/svg" xmlns:xlink="http://www.w3.org/1999/xlink" x="0px" y="0px"
	 width="48px" height="48px" viewBox="0 0 48 48" enable-background="new 0 0 48 48" xml:space="preserve">
<path d="M43,28.3c-1.7,0.5-3.4,0.7-5,0.7c-10.5,0-19-8.5-19-19c0-1.6,0.2-3.3,0.7-5c0.1-0.3,0-0.7-0.3-1c-0.3-0.3-0.6-0.4-1-0.3
	C9.4,6.2,3,14.6,3,24c0,11.6,9.4,21,21,21c9.4,0,17.8-6.4,20.2-15.5c0.1-0.3,0-0.7-0.3-1C43.7,28.3,43.4,28.2,43,28.3z"/>
</svg>
