<?xml version="1.0" encoding="utf-8"?>
<!-- Generator: Adobe Illustrator 19.1.0, SVG Export Plug-In . SVG Version: 6.00 Build 0)  -->
<!DOCTYPE svg PUBLIC "-//W3C//DTD SVG 1.1//EN" "http://www.w3.org/Graphics/SVG/1.1/DTD/svg11.dtd">
<svg version="1.1" id="Layer_2" xmlns="http://www.w3.org/2000/svg" xmlns:xlink="http://www.w3.org/1999/xlink" x="0px" y="0px"
	 width="48px" height="48px" viewBox="0 0 48 48" enable-background="new 0 0 48 48" xml:space="preserve">
<path id="color_128_" d="M32,4c-0.6,0-1-0.4-1-1V1c0-0.6,0.4-1,1-1s1,0.4,1,1v2C33,3.6,32.6,4,32,4z"/>
<path id="color_127_" d="M41.2,7.8c-0.3,0-0.5-0.1-0.7-0.3c-0.4-0.4-0.4-1,0-1.4l1.4-1.4c0.4-0.4,1-0.4,1.4,0s0.4,1,0,1.4l-1.4,1.4
	C41.7,7.7,41.4,7.8,41.2,7.8z"/>
<path id="color_126_" d="M47,17h-2c-0.6,0-1-0.4-1-1s0.4-1,1-1h2c0.6,0,1,0.4,1,1S47.6,17,47,17z"/>
<path id="color_125_" d="M22.8,7.8c-0.3,0-0.5-0.1-0.7-0.3l-1.4-1.4c-0.4-0.4-0.4-1,0-1.4s1-0.4,1.4,0l1.4,1.4c0.4,0.4,0.4,1,0,1.4
	C23.3,7.7,23.1,7.8,22.8,7.8z"/>
<path d="M38,17c-1.4,0-2.8,0.3-4.1,1c-1.9-4.2-6.2-7-10.9-7c-4.4,0-8.5,2.5-10.6,6.3C11.6,17.1,10.8,17,10,17c-5,0-9,4-9,9s4,9,9,9
	h6.5c1.7-3.1,4.3-6,5.4-7.1c0.6-0.6,1.3-0.9,2.2-0.9s1.6,0.3,2.2,0.9c1.1,1.1,3.7,4,5.4,7.1H38c5,0,9-4,9-9S43,17,38,17z"/>
<path id="color_105_" d="M24.7,29.3c-0.4-0.4-1.1-0.4-1.4,0C22.6,30,17,35.9,17,39.9c0,4.4,3.6,7.1,7,7.1s7-2.7,7-7.1
	C31,35.9,25.4,30,24.7,29.3z"/>
<path id="color_6_" d="M34.8,15.5c1-0.3,2.1-0.5,3.2-0.5c1.4,0,2.7,0.3,4,0.8C41.9,10.4,37.4,6,32,6c-2.8,0-5.4,1.2-7.2,3.1
	C28.9,9.6,32.6,12,34.8,15.5z"/>
</svg>
