<?xml version="1.0" encoding="utf-8"?>
<!-- Generator: Adobe Illustrator 19.1.0, SVG Export Plug-In . SVG Version: 6.00 Build 0)  -->
<!DOCTYPE svg PUBLIC "-//W3C//DTD SVG 1.1//EN" "http://www.w3.org/Graphics/SVG/1.1/DTD/svg11.dtd">
<svg version="1.1" id="Layer_2" xmlns="http://www.w3.org/2000/svg" xmlns:xlink="http://www.w3.org/1999/xlink" x="0px" y="0px"
	 width="48px" height="48px" viewBox="0 0 48 48" enable-background="new 0 0 48 48" xml:space="preserve">
<path d="M43.3,5.3l-20,20c-0.4,0.4-0.4,1,0,1.4c0.2,0.2,0.5,0.3,0.7,0.3s0.5-0.1,0.7-0.3l20-20c0.4-0.4,0.4-1,0-1.4
	S43.7,4.9,43.3,5.3z"/>
<path d="M43.3,19.3l-20,20c-0.4,0.4-0.4,1,0,1.4c0.2,0.2,0.5,0.3,0.7,0.3s0.5-0.1,0.7-0.3l20-20c0.4-0.4,0.4-1,0-1.4
	S43.7,18.9,43.3,19.3z"/>
<path d="M24.7,11.3c-0.4-0.4-1-0.4-1.4,0l-20,20c-0.4,0.4-0.4,1,0,1.4C3.5,32.9,3.7,33,4,33s0.5-0.1,0.7-0.3l20-20
	C25.1,12.3,25.1,11.7,24.7,11.3z"/>
</svg>
