<?xml version="1.0" encoding="utf-8"?>
<!-- Generator: Adobe Illustrator 19.1.0, SVG Export Plug-In . SVG Version: 6.00 Build 0)  -->
<!DOCTYPE svg PUBLIC "-//W3C//DTD SVG 1.1//EN" "http://www.w3.org/Graphics/SVG/1.1/DTD/svg11.dtd">
<svg version="1.1" id="Layer_2" xmlns="http://www.w3.org/2000/svg" xmlns:xlink="http://www.w3.org/1999/xlink" x="0px" y="0px"
	 width="48px" height="48px" viewBox="0 0 48 48" enable-background="new 0 0 48 48" xml:space="preserve">
<path id="color_120_" d="M32,6c-0.6,0-1-0.4-1-1V3c0-0.6,0.4-1,1-1s1,0.4,1,1v2C33,5.6,32.6,6,32,6z"/>
<path id="color_119_" d="M41.2,9.8c-0.3,0-0.5-0.1-0.7-0.3c-0.4-0.4-0.4-1,0-1.4l1.4-1.4c0.4-0.4,1-0.4,1.4,0s0.4,1,0,1.4l-1.4,1.4
	C41.7,9.7,41.4,9.8,41.2,9.8z"/>
<path id="color_118_" d="M47,19h-2c-0.6,0-1-0.4-1-1s0.4-1,1-1h2c0.6,0,1,0.4,1,1S47.6,19,47,19z"/>
<path id="color_117_" d="M22.8,9.8c-0.3,0-0.5-0.1-0.7-0.3l-1.4-1.4c-0.4-0.4-0.4-1,0-1.4s1-0.4,1.4,0l1.4,1.4c0.4,0.4,0.4,1,0,1.4
	C23.3,9.7,23.1,9.8,22.8,9.8z"/>
<path id="color_74_" d="M46,36H2c-0.6,0-1-0.4-1-1s0.4-1,1-1h44c0.6,0,1,0.4,1,1S46.6,36,46,36z"/>
<path id="color_73_" d="M40,42H8c-0.6,0-1-0.4-1-1s0.4-1,1-1h32c0.6,0,1,0.4,1,1S40.6,42,40,42z"/>
<path d="M47,27.8c-0.1-4.9-4.1-8.8-9-8.8c-1.4,0-2.8,0.3-4.1,1c-1.9-4.2-6.2-7-10.9-7c-4.4,0-8.5,2.5-10.6,6.3
	C11.6,19.1,10.8,19,10,19c-5,0-9,4-9,9c0,0.6,0.4,1,1,1h44c0,0,0,0,0,0c0.6,0,1-0.4,1-1C47,27.9,47,27.9,47,27.8z"/>
<path id="color_4_" d="M34.8,17.5c1-0.3,2.1-0.5,3.2-0.5c1.4,0,2.7,0.3,4,0.8C41.9,12.4,37.4,8,32,8c-2.8,0-5.4,1.2-7.2,3.1
	C28.9,11.6,32.6,14,34.8,17.5z"/>
</svg>
