<?xml version="1.0" encoding="utf-8"?>
<!-- Generator: Adobe Illustrator 19.1.0, SVG Export Plug-In . SVG Version: 6.00 Build 0)  -->
<!DOCTYPE svg PUBLIC "-//W3C//DTD SVG 1.1//EN" "http://www.w3.org/Graphics/SVG/1.1/DTD/svg11.dtd">
<svg version="1.1" id="Layer_2" xmlns="http://www.w3.org/2000/svg" xmlns:xlink="http://www.w3.org/1999/xlink" x="0px" y="0px"
	 width="48px" height="48px" viewBox="0 0 48 48" enable-background="new 0 0 48 48" xml:space="preserve">
<path id="color_2_" d="M31.4,41.1L26,38l5.4-3.1c0.5-0.3,0.6-0.9,0.4-1.4c-0.3-0.5-0.9-0.6-1.4-0.4L25,36.3V30c0-0.6-0.4-1-1-1
	s-1,0.4-1,1v6.3l-5.4-3.1c-0.5-0.3-1.1-0.1-1.4,0.4c-0.3,0.5-0.1,1.1,0.4,1.4L22,38l-5.4,3.1c-0.5,0.3-0.6,0.9-0.4,1.4
	c0.2,0.3,0.5,0.5,0.9,0.5c0.2,0,0.3,0,0.5-0.1l5.4-3.1V46c0,0.6,0.4,1,1,1s1-0.4,1-1v-6.3l5.4,3.1c0.2,0.1,0.3,0.1,0.5,0.1
	c0.3,0,0.7-0.2,0.9-0.5C32.1,42,31.9,41.4,31.4,41.1z"/>
<path id="color_1_" d="M23,9c4.8,0,9.3,2.5,11.8,6.5c1-0.3,2.1-0.5,3.2-0.5c3.1,0,6,1.3,8,3.4c0.5-1.4,0.8-2.9,0.8-4.4
	c0-0.6-0.4-1-1-1c-6.1,0-11-4.9-11-11c0-0.6-0.4-1-1-1c-5.4,0-10,3.3-12,8.1C22.2,9,22.6,9,23,9z"/>
<path d="M38,17c-1.4,0-2.8,0.3-4.1,1c-1.9-4.2-6.2-7-10.9-7c-4.4,0-8.5,2.5-10.6,6.3C11.6,17.1,10.8,17,10,17c-5,0-9,4-9,9s4,9,9,9
	h4.3c-0.3-0.8-0.2-1.7,0.2-2.5C15,31.6,16,31,17.1,31c0.5,0,1,0.1,1.5,0.4l2.4,1.4V30c0-1.7,1.3-3,3-3s3,1.3,3,3v2.8l2.4-1.4
	c0.5-0.3,1-0.4,1.5-0.4c1.1,0,2.1,0.6,2.6,1.5c0.5,0.8,0.5,1.7,0.2,2.5H38c5,0,9-4,9-9S43,17,38,17z"/>
</svg>
