<?xml version="1.0" encoding="utf-8"?>
<!-- Generator: Adobe Illustrator 19.1.0, SVG Export Plug-In . SVG Version: 6.00 Build 0)  -->
<!DOCTYPE svg PUBLIC "-//W3C//DTD SVG 1.1//EN" "http://www.w3.org/Graphics/SVG/1.1/DTD/svg11.dtd">
<svg version="1.1" id="Layer_2" xmlns="http://www.w3.org/2000/svg" xmlns:xlink="http://www.w3.org/1999/xlink" x="0px" y="0px"
	 width="48px" height="48px" viewBox="0 0 48 48" enable-background="new 0 0 48 48" xml:space="preserve">
<path d="M9.8,10.8c-0.3,0-0.5-0.1-0.7-0.3L7.7,9.1c-0.4-0.4-0.4-1,0-1.4s1-0.4,1.4,0l1.4,1.4c0.4,0.4,0.4,1,0,1.4
	C10.3,10.7,10.1,10.8,9.8,10.8z"/>
<path d="M24,5c-0.6,0-1-0.4-1-1V2c0-0.6,0.4-1,1-1s1,0.4,1,1v2C25,4.6,24.6,5,24,5z"/>
<path d="M38.2,10.8c-0.3,0-0.5-0.1-0.7-0.3c-0.4-0.4-0.4-1,0-1.4l1.4-1.4c0.4-0.4,1-0.4,1.4,0s0.4,1,0,1.4l-1.4,1.4
	C38.7,10.7,38.5,10.8,38.2,10.8z"/>
<path d="M46,25h-2c-0.6,0-1-0.4-1-1s0.4-1,1-1h2c0.6,0,1,0.4,1,1S46.6,25,46,25z"/>
<path d="M4,25H2c-0.6,0-1-0.4-1-1s0.4-1,1-1h2c0.6,0,1,0.4,1,1S4.6,25,4,25z"/>
<path d="M39.6,40.6c-0.3,0-0.5-0.1-0.7-0.3l-1.4-1.4c-0.4-0.4-0.4-1,0-1.4s1-0.4,1.4,0l1.4,1.4c0.4,0.4,0.4,1,0,1.4
	C40.1,40.5,39.9,40.6,39.6,40.6z"/>
<path d="M24,11c-7.2,0-13,5.8-13,13c0,3,1,5.8,2.8,8H18c1.7,0,3,1.3,3,3c0,0.6-0.2,1.1-0.4,1.5c1.1,0.3,2.2,0.5,3.4,0.5
	c7.2,0,13-5.8,13-13S31.2,11,24,11z"/>
<path id="color_58_" d="M18,36H4c-0.6,0-1-0.4-1-1s0.4-1,1-1h14c0.6,0,1,0.4,1,1S18.6,36,18,36z"/>
<path id="color_57_" d="M28,43H12c-0.6,0-1-0.4-1-1s0.4-1,1-1h16c0.6,0,1,0.4,1,1S28.6,43,28,43z"/>
</svg>
