<?xml version="1.0" encoding="utf-8"?>
<!-- Generator: Adobe Illustrator 19.2.0, SVG Export Plug-In . SVG Version: 6.00 Build 0)  -->
<!DOCTYPE svg PUBLIC "-//W3C//DTD SVG 1.1//EN" "http://www.w3.org/Graphics/SVG/1.1/DTD/svg11.dtd">
<svg version="1.1" id="Layer_1" xmlns="http://www.w3.org/2000/svg" xmlns:xlink="http://www.w3.org/1999/xlink" x="0px" y="0px"
	 width="32px" height="32px" viewBox="0 0 32 32" enable-background="new 0 0 32 32" xml:space="preserve">
<path d="M29,28h-1v-5c0-0.553-0.447-1-1-1h-2c-0.553,0-1,0.447-1,1s0.447,1,1,1h1v4h-1c-0.553,0-1,0.447-1,1s0.447,1,1,1h4
	c0.553,0,1-0.447,1-1S29.553,28,29,28z"/>
<path d="M24,3c0-0.552-0.447-1-1-1H3C2.447,2,2,2.448,2,3v3c0,0.552,0.447,1,1,1s1-0.448,1-1V4h8v20H8c-0.553,0-1,0.447-1,1
	s0.447,1,1,1h10c0.553,0,1-0.447,1-1s-0.447-1-1-1h-4V4h8v2c0,0.552,0.447,1,1,1s1-0.448,1-1V3z"/>
</svg>
