<?xml version="1.0" encoding="utf-8"?>
<!-- Generator: Adobe Illustrator 19.2.0, SVG Export Plug-In . SVG Version: 6.00 Build 0)  -->
<!DOCTYPE svg PUBLIC "-//W3C//DTD SVG 1.1//EN" "http://www.w3.org/Graphics/SVG/1.1/DTD/svg11.dtd">
<svg version="1.1" id="Layer_1" xmlns="http://www.w3.org/2000/svg" xmlns:xlink="http://www.w3.org/1999/xlink" x="0px" y="0px"
	 width="32px" height="32px" viewBox="0 0 32 32" enable-background="new 0 0 32 32" xml:space="preserve">
<path d="M31,24H1c-0.553,0-1,0.448-1,1v6c0,0.552,0.447,1,1,1h30c0.553,0,1-0.448,1-1v-6C32,24.448,31.553,24,31,24z M30,30H2v-4h28
	V30z"/>
<path d="M6,20h4c0.553,0,1-0.448,1-1s-0.447-1-1-1H9.461l2.333-6h8.411l2.333,6H22c-0.553,0-1,0.448-1,1s0.447,1,1,1h1.997
	c0.001,0,0.002,0,0.003,0c0.001,0,0.002,0,0.003,0H26c0.553,0,1-0.448,1-1s-0.447-1-1-1h-1.316l-2.873-7.389c0,0,0-0.001,0-0.001
	l-3.878-9.973C17.782,0.253,17.412,0,17,0h-2c-0.412,0-0.782,0.253-0.932,0.638l-3.878,9.973c0,0,0,0,0,0L7.316,18H6
	c-0.553,0-1,0.448-1,1S5.447,20,6,20z M15.684,2h0.633l3.111,8h-6.855L15.684,2z"/>
</svg>
