<?xml version="1.0" encoding="utf-8"?>
<!-- Generator: Adobe Illustrator 19.2.0, SVG Export Plug-In . SVG Version: 6.00 Build 0)  -->
<!DOCTYPE svg PUBLIC "-//W3C//DTD SVG 1.1//EN" "http://www.w3.org/Graphics/SVG/1.1/DTD/svg11.dtd">
<svg version="1.1" id="Layer_1" xmlns="http://www.w3.org/2000/svg" xmlns:xlink="http://www.w3.org/1999/xlink" x="0px" y="0px"
	 width="32px" height="32px" viewBox="0 0 32 32" enable-background="new 0 0 32 32" xml:space="preserve">
<path d="M4,10c2.206,0,4-1.794,4-4S6.206,2,4,2S0,3.794,0,6S1.794,10,4,10z M4,4c1.103,0,2,0.897,2,2S5.103,8,4,8S2,7.103,2,6
	S2.897,4,4,4z"/>
<path d="M31,5H12c-0.552,0-1,0.448-1,1s0.448,1,1,1h19c0.552,0,1-0.448,1-1S31.552,5,31,5z"/>
<path d="M4,20c2.206,0,4-1.794,4-4c0-2.206-1.794-4-4-4s-4,1.794-4,4C0,18.206,1.794,20,4,20z M4,14c1.103,0,2,0.897,2,2
	c0,1.103-0.897,2-2,2s-2-0.897-2-2C2,14.897,2.897,14,4,14z"/>
<path d="M31,15H12c-0.552,0-1,0.448-1,1s0.448,1,1,1h19c0.552,0,1-0.448,1-1S31.552,15,31,15z"/>
<path d="M4,30c2.206,0,4-1.794,4-4s-1.794-4-4-4s-4,1.794-4,4S1.794,30,4,30z M4,24c1.103,0,2,0.897,2,2s-0.897,2-2,2s-2-0.897-2-2
	S2.897,24,4,24z"/>
<path d="M31,25H12c-0.552,0-1,0.447-1,1s0.448,1,1,1h19c0.552,0,1-0.447,1-1S31.552,25,31,25z"/>
</svg>
