<?xml version="1.0" encoding="utf-8"?>
<!-- Generator: Adobe Illustrator 19.2.0, SVG Export Plug-In . SVG Version: 6.00 Build 0)  -->
<!DOCTYPE svg PUBLIC "-//W3C//DTD SVG 1.1//EN" "http://www.w3.org/Graphics/SVG/1.1/DTD/svg11.dtd">
<svg version="1.1" id="Layer_1" xmlns="http://www.w3.org/2000/svg" xmlns:xlink="http://www.w3.org/1999/xlink" x="0px" y="0px"
	 width="32px" height="32px" viewBox="0 0 32 32" enable-background="new 0 0 32 32" xml:space="preserve">
<path d="M31,9H18c-0.552,0-1,0.448-1,1s0.448,1,1,1h13c0.552,0,1-0.448,1-1S31.552,9,31,9z"/>
<path d="M31,15H18c-0.552,0-1,0.448-1,1s0.448,1,1,1h13c0.552,0,1-0.448,1-1S31.552,15,31,15z"/>
<path d="M31,21H1c-0.552,0-1,0.447-1,1s0.448,1,1,1h30c0.552,0,1-0.447,1-1S31.552,21,31,21z"/>
<path d="M31,27H1c-0.552,0-1,0.447-1,1s0.448,1,1,1h30c0.552,0,1-0.447,1-1S31.552,27,31,27z"/>
<path d="M2.91,16.414L4.462,13h6.076l1.552,3.414C12.257,16.782,12.621,17,13,17c0.139,0,0.279-0.029,0.413-0.09
	c0.503-0.229,0.725-0.821,0.497-1.324l-5-11C8.748,4.229,8.392,4,8,4H7C6.608,4,6.252,4.229,6.09,4.586l-5,11
	c-0.229,0.502-0.006,1.095,0.497,1.324C2.086,17.139,2.682,16.917,2.91,16.414z M7.5,6.316L9.629,11H5.371L7.5,6.316z"/>
<path d="M31,3H18c-0.552,0-1,0.448-1,1s0.448,1,1,1h13c0.552,0,1-0.448,1-1S31.552,3,31,3z"/>
</svg>
