<?xml version="1.0" encoding="utf-8"?>
<!-- Generator: Adobe Illustrator 19.2.0, SVG Export Plug-In . SVG Version: 6.00 Build 0)  -->
<!DOCTYPE svg PUBLIC "-//W3C//DTD SVG 1.1//EN" "http://www.w3.org/Graphics/SVG/1.1/DTD/svg11.dtd">
<svg version="1.1" id="Layer_1" xmlns="http://www.w3.org/2000/svg" xmlns:xlink="http://www.w3.org/1999/xlink" x="0px" y="0px"
	 width="32px" height="32px" viewBox="0 0 32 32" enable-background="new 0 0 32 32" xml:space="preserve">
<path d="M31,15H17V2h11v3c0,0.553,0.448,1,1,1s1-0.447,1-1V1c0-0.553-0.448-1-1-1H3C2.448,0,2,0.447,2,1v4c0,0.553,0.448,1,1,1
	s1-0.447,1-1V2h11v13H1c-0.552,0-1,0.447-1,1s0.448,1,1,1h30c0.552,0,1-0.447,1-1S31.552,15,31,15z"/>
<path d="M21,30h-4V20c0-0.553-0.448-1-1-1s-1,0.447-1,1v10h-4c-0.552,0-1,0.447-1,1s0.448,1,1,1h10c0.552,0,1-0.447,1-1
	S21.552,30,21,30z"/>
</svg>
