<?xml version="1.0" encoding="utf-8"?>
<!-- Generator: Adobe Illustrator 19.2.0, SVG Export Plug-In . SVG Version: 6.00 Build 0)  -->
<!DOCTYPE svg PUBLIC "-//W3C//DTD SVG 1.1//EN" "http://www.w3.org/Graphics/SVG/1.1/DTD/svg11.dtd">
<svg version="1.1" id="Layer_1" xmlns="http://www.w3.org/2000/svg" xmlns:xlink="http://www.w3.org/1999/xlink" x="0px" y="0px"
	 width="32px" height="32px" viewBox="0 0 32 32" enable-background="new 0 0 32 32" xml:space="preserve">
<path d="M29,0H3C2.448,0,2,0.448,2,1v4c0,0.552,0.448,1,1,1s1-0.448,1-1V2h11v28h-4c-0.552,0-1,0.447-1,1s0.448,1,1,1h10
	c0.552,0,1-0.447,1-1s-0.448-1-1-1h-4V2h11v3c0,0.552,0.448,1,1,1s1-0.448,1-1V1C30,0.448,29.552,0,29,0z"/>
<path d="M29,15h-2v-2c0-0.552-0.448-1-1-1s-1,0.448-1,1v2h-2c-0.552,0-1,0.448-1,1s0.448,1,1,1h2v2c0,0.553,0.448,1,1,1s1-0.447,1-1
	v-2h2c0.552,0,1-0.448,1-1S29.552,15,29,15z"/>
<path d="M3,17h6c0.552,0,1-0.448,1-1s-0.448-1-1-1H3c-0.552,0-1,0.448-1,1S2.448,17,3,17z"/>
</svg>
