<?xml version="1.0" encoding="utf-8"?>
<!-- Generator: Adobe Illustrator 19.2.0, SVG Export Plug-In . SVG Version: 6.00 Build 0)  -->
<!DOCTYPE svg PUBLIC "-//W3C//DTD SVG 1.1//EN" "http://www.w3.org/Graphics/SVG/1.1/DTD/svg11.dtd">
<svg version="1.1" id="Layer_1" xmlns="http://www.w3.org/2000/svg" xmlns:xlink="http://www.w3.org/1999/xlink" x="0px" y="0px"
	 width="32px" height="32px" viewBox="0 0 32 32" enable-background="new 0 0 32 32" xml:space="preserve">
<path d="M30,13H18c-0.552,0-1,0.447-1,1v2c0,0.553,0.448,1,1,1s1-0.447,1-1v-1h4v11h-2c-0.552,0-1,0.447-1,1s0.448,1,1,1h6
	c0.552,0,1-0.447,1-1s-0.448-1-1-1h-2V15h4v1c0,0.553,0.448,1,1,1s1-0.447,1-1v-2C31,13.447,30.552,13,30,13z"/>
<path d="M17,26h-4V6h8v2c0,0.553,0.448,1,1,1s1-0.447,1-1V5c0-0.553-0.448-1-1-1H2C1.448,4,1,4.447,1,5v3c0,0.553,0.448,1,1,1
	s1-0.447,1-1V6h8v20H7c-0.552,0-1,0.447-1,1s0.448,1,1,1h10c0.552,0,1-0.447,1-1S17.552,26,17,26z"/>
</svg>
