<?xml version="1.0" encoding="utf-8"?>
<!-- Generator: Adobe Illustrator 19.2.0, SVG Export Plug-In . SVG Version: 6.00 Build 0)  -->
<!DOCTYPE svg PUBLIC "-//W3C//DTD SVG 1.1//EN" "http://www.w3.org/Graphics/SVG/1.1/DTD/svg11.dtd">
<svg version="1.1" id="Layer_1" xmlns="http://www.w3.org/2000/svg" xmlns:xlink="http://www.w3.org/1999/xlink" x="0px" y="0px"
	 width="32px" height="32px" viewBox="0 0 32 32" enable-background="new 0 0 32 32" xml:space="preserve">
<path d="M7.293,5.707C7.488,5.902,7.744,6,8,6s0.512-0.098,0.707-0.293c0.391-0.391,0.391-1.023,0-1.414L5.708,1.294
	C5.616,1.201,5.505,1.128,5.382,1.077c-0.244-0.101-0.52-0.101-0.764,0C4.495,1.128,4.384,1.201,4.292,1.294L1.293,4.293
	c-0.391,0.391-0.391,1.023,0,1.414s1.023,0.391,1.414,0L4,4.414v23.172l-1.293-1.293c-0.391-0.391-1.023-0.391-1.414,0
	s-0.391,1.023,0,1.414l2.999,2.999c0.092,0.093,0.203,0.166,0.326,0.217C4.74,30.974,4.87,31,5,31s0.26-0.026,0.382-0.077
	c0.123-0.051,0.234-0.124,0.326-0.217l2.999-2.999c0.391-0.391,0.391-1.023,0-1.414s-1.023-0.391-1.414,0L6,27.586V4.414
	L7.293,5.707z"/>
<path d="M31,5H13c-0.553,0-1,0.448-1,1v3c0,0.552,0.447,1,1,1s1-0.448,1-1V7h7v18h-3c-0.553,0-1,0.447-1,1s0.447,1,1,1h8
	c0.553,0,1-0.447,1-1s-0.447-1-1-1h-3V7h7v2c0,0.552,0.447,1,1,1s1-0.448,1-1V6C32,5.448,31.553,5,31,5z"/>
</svg>
