<?xml version="1.0" encoding="utf-8"?>
<!-- Generator: Adobe Illustrator 19.1.0, SVG Export Plug-In . SVG Version: 6.00 Build 0)  -->
<!DOCTYPE svg PUBLIC "-//W3C//DTD SVG 1.1//EN" "http://www.w3.org/Graphics/SVG/1.1/DTD/svg11.dtd">
<svg version="1.1" id="Layer_1" xmlns="http://www.w3.org/2000/svg" xmlns:xlink="http://www.w3.org/1999/xlink" x="0px" y="0px"
	 width="24px" height="24px" viewBox="0 0 24 24" enable-background="new 0 0 24 24" xml:space="preserve">
<path fill="#231F20" d="M12,0C5.4,0,0,5.4,0,12s5.4,12,12,12s12-5.4,12-12S18.6,0,12,0z M16,7c1.1,0,2,0.9,2,2s-0.9,2-2,2
	s-2-0.9-2-2S14.9,7,16,7z M8,7c1.1,0,2,0.9,2,2s-0.9,2-2,2s-2-0.9-2-2S6.9,7,8,7z M14.9,18.2l-2.9-2l-2.9,2l-3.4-1.7l0.9-1.8
	l2.4,1.2l3.1-2l3.1,2l2.4-1.2l0.9,1.8L14.9,18.2z"/>
</svg>
