<svg xmlns="http://www.w3.org/2000/svg" xmlns:xlink="http://www.w3.org/1999/xlink" x="0px" y="0px" width="48px" height="48px" viewBox="0 0 48 48"><g >
<path fill="#76B5B5" d="M33,39H15c-1.10457,0-2-0.89543-2-2V17c0-3.31371,2.68629-6,6-6h10c3.31371,0,6,2.68629,6,6v20
	C35,38.10457,34.10457,39,33,39z"/>
<rect x="22" y="8" fill="#B3B3B3" width="4" height="3"/>
<path fill="#B3B3B3" d="M20,6H10C9.44775,6,9,5.55273,9,5s0.44775-1,1-1h10c0.55225,0,1,0.44727,1,1S20.55225,6,20,6z"/>
<path fill="#B3B3B3" d="M38,6H28c-0.55225,0-1-0.44727-1-1s0.44775-1,1-1h10c0.55225,0,1,0.44727,1,1S38.55225,6,38,6z"/>
<path fill="#B3B3B3" d="M20,5c0-2.046,1.79086-4,4-4s4,1.79086,4,4s-1.79086,4-4,4S20,7.20914,20,5z"/>
<path fill="#444444" d="M38,6h-5V4h5c0.55228,0,1,0.44771,1,1v0C39,5.55229,38.55228,6,38,6z"/>
<path fill="#EFD358" d="M22,5c0-1.023,0.89543-2,2-2s2,0.89543,2,2s-0.89543,2-2,2S22,6.10457,22,5z"/>
<path fill="#444444" d="M15,6h-5C9.44771,6,9,5.55229,9,5v0c0-0.55228,0.44771-1,1-1h5V6z"/>
<path fill="#444444" d="M24,47L24,47c-1.65686,0-3-1.34314-3-3V34c0-1.65685,1.34314-3,3-3H24c1.65685,0,3,1.34314,3,3V44
	C27,45.65686,25.65686,47,24,47z"/>
<path fill="#BFDEE0" d="M24,29c-2.76141,0-5,2.23859-5,5v4c0,0.55225,0.44775,1,1,1h8c0.55231,0,1-0.44775,1-1v-4
	C29,31.23859,26.76141,29,24,29z"/>
</g></svg>