<svg xmlns="http://www.w3.org/2000/svg" xmlns:xlink="http://www.w3.org/1999/xlink" x="0px" y="0px" width="48px" height="48px" viewBox="0 0 48 48"><g >
<path fill="#43A6DD" d="M47,29H1v-9.00098c0.01407-0.09588,0.02792-0.19024,0.04199-0.28613l2.57227-8.57471
	C3.99496,9.8691,5.16304,9,6.488,9H26h1.00021c0.32629,0,0.63205,0.1592,0.81916,0.4265L34.52071,19H44c1.65685,0,3,1.34315,3,3V29z
	"/>
<polygon fill="#E6E6E6" points="3.34375,19 5.74414,11 25,11 26.47991,11 32.07952,19 "/>
<rect x="16" y="11" fill="#43A6DD" width="2" height="8"/>
<path fill="#458BC4" d="M47,29H1l0,0c0,2.20914,1.79086,4,4,4h40c1.10457,0,2-0.89543,2-2V29z"/>
<path fill="#444444" d="M10,39c-3.30859,0-6-2.69141-6-6s2.69141-6,6-6s6,2.69141,6,6S13.30859,39,10,39z"/>
<path fill="#444444" d="M39,39c-3.30859,0-6-2.69141-6-6s2.69141-6,6-6s6,2.69141,6,6S42.30859,39,39,39z"/>
<path fill="#E6E6E6" d="M10,36c-1.6543,0-3-1.3457-3-3s1.3457-3,3-3s3,1.3457,3,3S11.6543,36,10,36z"/>
<path fill="#E6E6E6" d="M39,36c-1.6543,0-3-1.3457-3-3s1.3457-3,3-3s3,1.3457,3,3S40.6543,36,39,36z"/>
<path fill="#EA9860" d="M46,26h1v-4h-1c-0.55228,0-1,0.44772-1,1v2C45,25.55228,45.44772,26,46,26z"/>
</g></svg>