<svg xmlns="http://www.w3.org/2000/svg" xmlns:xlink="http://www.w3.org/1999/xlink" x="0px" y="0px" width="48px" height="48px" viewBox="0 0 48 48"><g >
<path fill="#8680D8" d="M44,19h-9l-4.44721-8.89443C30.214,9.42801,29.52148,9,28.76393,9H13.3541
	c-0.81782,0-1.55325,0.49792-1.85697,1.25726L8.00024,19H4c-1.65685,0-3,1.34315-3,3v7h46v-7C47,20.34315,45.65685,19,44,19z"/>
<path fill="#5757B2" d="M3,33h42c1.10457,0,2-0.89543,2-2v-2H1v2C1,32.10457,1.89543,33,3,33z"/>
<path fill="#444444" d="M10,39c-3.30859,0-6-2.69141-6-6s2.69141-6,6-6s6,2.69141,6,6S13.30859,39,10,39z"/>
<path fill="#444444" d="M37,39c-3.30859,0-6-2.69141-6-6s2.69141-6,6-6s6,2.69141,6,6S40.30859,39,37,39z"/>
<path fill="#E6E6E6" d="M10,36c-1.6543,0-3-1.3457-3-3s1.3457-3,3-3s3,1.3457,3,3S11.6543,36,10,36z"/>
<path fill="#E6E6E6" d="M37,36c-1.6543,0-3-1.3457-3-3s1.3457-3,3-3s3,1.3457,3,3S38.6543,36,37,36z"/>
<polygon fill="#E6E6E6" points="32.76367,19 28.76367,11 13.35449,11 10.15448,19 "/>
<rect x="20" y="11" fill="#8680D8" width="2" height="8"/>
<path fill="#EFD358" d="M46,26h1v-4h-1c-0.55228,0-1,0.44772-1,1v2C45,25.55228,45.44772,26,46,26z"/>
</g></svg>