<svg xmlns="http://www.w3.org/2000/svg" xmlns:xlink="http://www.w3.org/1999/xlink" x="0px" y="0px" width="48px" height="48px" viewBox="0 0 48 48"><g >
<path fill="#EFD358" d="M30,11H18c-0.55273,0-1-0.44775-1-1V4c0-0.55225,0.44727-1,1-1h12c0.55273,0,1,0.44775,1,1v6
	C31,10.55225,30.55273,11,30,11z"/>
<path fill="#444444" d="M42.00005,23h-36c-0.32129,0-0.62354-0.1543-0.81104-0.41553
	c-0.18799-0.26074-0.23926-0.5957-0.1377-0.90088l3.31641-9.94873C8.91264,10.09912,10.43755,9,12.16216,9h23.67578
	c1.72461,0,3.24951,1.09912,3.79443,2.73535l3.31641,9.94824c0.10156,0.30518,0.05029,0.64014-0.1377,0.90088
	C42.62358,22.8457,42.32133,23,42.00005,23z"/>
<path fill="#E6E6E6" d="M7.38725,21l2.87793-8.63281C10.53764,11.54932,11.29985,11,12.16216,11h23.67578
	c0.8623,0,1.62451,0.54932,1.89697,1.36719L40.61284,21H7.38725z"/>
<path fill="#5B5B5B" d="M41,21H7c-3.31371,0-6,2.68629-6,6v11c0,0.55228,0.44772,1,1,1h44c0.55228,0,1-0.44772,1-1V27
	C47,23.68629,44.31371,21,41,21z"/>
<circle fill="#FFFFFF" cx="7" cy="27" r="3"/>
<circle fill="#FFFFFF" cx="41" cy="27" r="3"/>
<path fill="#444444" d="M29.9132,36H18.0868c-0.58504,0-1.04513-0.50003-0.99655-1.08305l0.83333-10
	C17.96678,24.39866,18.40004,24,18.92013,24h10.15973c0.52009,0,0.95336,0.39866,0.99655,0.91695l0.83333,10
	C30.95833,35.49997,30.49824,36,29.9132,36z"/>
<path fill="#E6E6E6" d="M29.91309,37H18.08691c-0.55762,0-1.09375-0.23486-1.4707-0.64502
	c-0.37793-0.41016-0.56836-0.96387-0.52344-1.52002l0.83496-10.00098C17.0127,23.80566,17.8877,23,18.91992,23h10.16016
	c1.03223,0,1.90723,0.80566,1.99316,1.83447l0.83301,9.99951c0.0459,0.55713-0.14453,1.11084-0.52246,1.521
	C31.00684,36.76514,30.4707,37,29.91309,37z M18.91992,25l-0.83398,10h11.8291l-0.83496-10H18.91992z"/>
<path fill="#444444" d="M9,45H5c-1.10457,0-2-0.89543-2-2v-4h8v4C11,44.10457,10.10457,45,9,45z"/>
<path fill="#444444" d="M43,45h-4c-1.10457,0-2-0.89543-2-2v-4h8v4C45,44.10457,44.10457,45,43,45z"/>
<path fill="#EA9860" d="M9,37H5c-0.55228,0-1-0.44772-1-1l0,0c0-0.55228,0.44771-1,1-1h4c0.55228,0,1,0.44772,1,1l0,0
	C10,36.55228,9.55229,37,9,37z"/>
<path fill="#EA9860" d="M43,37h-4c-0.55228,0-1-0.44772-1-1l0,0c0-0.55228,0.44772-1,1-1h4c0.55228,0,1,0.44772,1,1l0,0
	C44,36.55228,43.55228,37,43,37z"/>
<rect x="19" y="5" fill="#D8BC48" width="10" height="4"/>
</g></svg>