<svg xmlns="http://www.w3.org/2000/svg" xmlns:xlink="http://www.w3.org/1999/xlink" x="0px" y="0px" width="48px" height="48px" viewBox="0 0 48 48"><g >
<path fill="#B3B3B3" d="M16.99902,18c-0.44824,0-0.85547-0.30273-0.96875-0.75781l-2-8
	c-0.13477-0.53516,0.19141-1.07812,0.72754-1.21191c0.53516-0.1377,1.07812,0.19043,1.21191,0.72754l2,8
	c0.13477,0.53516-0.19141,1.07812-0.72754,1.21191C17.16113,17.99023,17.0791,18,16.99902,18z"/>
<path fill="#5B5B5B" d="M38,40c-5.51367,0-10-4.48633-10-10s4.48633-10,10-10s10,4.48633,10,10S43.51367,40,38,40z M38,22
	c-4.41113,0-8,3.58887-8,8s3.58887,8,8,8s8-3.58887,8-8S42.41113,22,38,22z"/>
<path fill="#5B5B5B" d="M10,40C4.48633,40,0,35.51367,0,30s4.48633-10,10-10s10,4.48633,10,10S15.51367,40,10,40z M10,22
	c-4.41113,0-8,3.58887-8,8s3.58887,8,8,8s8-3.58887,8-8S14.41113,22,10,22z"/>
<path fill="#5B5B5B" d="M19,10h-7c-0.55273,0-1-0.44727-1-1s0.44727-1,1-1h7c0.55273,0,1,0.44727,1,1S19.55273,10,19,10z"/>
<path fill="#43A6DD" d="M37.99902,31c-0.43457,0-0.83496-0.28613-0.96094-0.72559l-6-21
	c-0.15137-0.53027,0.15625-1.08398,0.6875-1.23633c0.52637-0.14355,1.08398,0.15527,1.23633,0.6875l6,21
	c0.15137,0.53027-0.15625,1.08398-0.6875,1.23633C38.18262,30.9873,38.09082,31,37.99902,31z"/>
<path fill="#43A6DD" d="M22,31H10c-0.35156,0-0.67773-0.18457-0.8584-0.4873c-0.18066-0.30176-0.18848-0.67676-0.02246-0.98633l7-13
	c0.1543-0.28516,0.43555-0.47852,0.75684-0.51855l16-2c0.40137-0.04785,0.7832,0.1416,0.98633,0.48535
	c0.20215,0.34473,0.18066,0.77637-0.05566,1.09863l-11,15C22.61816,30.84863,22.31836,31,22,31z M11.67383,29h9.81934
	l9.32812-12.71973l-13.18555,1.64844L11.67383,29z"/>
<path fill="#B3B3B3" d="M39,16c-0.55273,0-1-0.44727-1-1s0.44727-1,1-1c1.10254,0,2-0.89746,2-2s-0.89746-2-2-2h-7
	c-0.55273,0-1-0.44727-1-1s0.44727-1,1-1h7c2.20605,0,4,1.79395,4,4S41.20605,16,39,16z"/>
<path fill="#5B5B5B" d="M39,16c-0.55273,0-1-0.44727-1-1s0.44727-1,1-1c1.10254,0,2-0.89746,2-2s-0.89746-2-2-2
	c-0.55273,0-1-0.44727-1-1s0.44727-1,1-1c2.20605,0,4,1.79395,4,4S41.20605,16,39,16z"/>
</g></svg>