<svg xmlns="http://www.w3.org/2000/svg" xmlns:xlink="http://www.w3.org/1999/xlink" x="0px" y="0px" width="48px" height="48px" viewBox="0 0 48 48"><g >
<path fill="#C6C6C6" d="M42.70711,46.70711l2-2c0.26783-0.26783,0.36135-0.664,0.24157-1.02333l-8-24
	c-0.23507-0.70523-1.13014-0.91653-1.65579-0.39088l-8,8c-0.35661,0.35661-0.39187,0.92296-0.08224,1.32105l14,18
	C41.57993,47.08873,42.28178,47.13243,42.70711,46.70711z"/>
<path fill="#C6C6C6" d="M16,46v-8l-6-6H2c-0.89091,0-1.33707,1.07714-0.70711,1.70711l13,13C14.92286,47.33707,16,46.8909,16,46z"/>
<path fill="#C6C6C6" d="M1.38606,6.78935l18,14c0.39809,0.30963,0.96444,0.27437,1.32105-0.08224l8-8
	c0.52565-0.52565,0.31435-1.42072-0.39088-1.65579l-24-8c-0.35933-0.11978-0.7555-0.02626-1.02333,0.24157l-2,2
	C0.86757,5.71822,0.91127,6.42007,1.38606,6.78935z"/>
<path fill-rule="evenodd" clip-rule="evenodd" fill="#E0E0E0" d="M10.74428,30.03156
	c1.79809-2.77885,5.1553-6.93114,7.49721-9.27305L31.87858,7.12142c1.17163-1.17163,3.29282-2.75937,4.77872-3.50358
	C36.6573,3.61784,43.5-0.5,46,2s-1.61784,9.3427-1.61784,9.3427c-0.76335,1.46759-2.33335,3.60849-3.50358,4.77872
	L27.24149,29.75851c-2.34251,2.34251-6.49896,5.70221-9.27305,7.49721L7.67655,43.91517
	c-0.92593,0.59913-2.31277,0.4486-3.0887-0.32733l-0.17569-0.17569c-0.77991-0.77991-0.9253-2.16456-0.32733-3.08871
	L10.74428,30.03156z"/>
<path fill="#5B5B5B" d="M42.16895,11c-0.01465,0-0.0293-0.00049-0.04297-0.00098c-0.55273-0.02344-0.98047-0.48975-0.95703-1.0415
	c0.03516-0.8374-0.28418-1.65771-0.87598-2.25049c-0.59277-0.59229-1.40039-0.91699-2.25098-0.87598
	c-0.51074,0.01807-1.01758-0.40479-1.04102-0.95654s0.4043-1.01807,0.95703-1.0415c1.39258-0.05859,2.7627,0.47217,3.74902,1.45996
	c0.9873,0.98779,1.51953,2.35449,1.45996,3.74951C43.14453,10.57959,42.70117,11,42.16895,11z"/>
</g></svg>