<svg xmlns="http://www.w3.org/2000/svg" xmlns:xlink="http://www.w3.org/1999/xlink" x="0px" y="0px" width="48px" height="48px" viewBox="0 0 48 48"><g >
<path fill="#E86C60" d="M24,36H4c-0.36865,0-0.70752-0.20312-0.88184-0.52832c-0.17383-0.3252-0.15479-0.71973,0.0498-1.02637l20-30
	c0.24463-0.3667,0.70166-0.53027,1.12158-0.40234C24.71143,4.17041,25,4.55957,25,5v30C25,35.55225,24.55225,36,24,36z"/>
<path fill="#999999" d="M25,38h-2V3c0-0.55228,0.44771-1,1-1h0c0.55228,0,1,0.44771,1,1V38z"/>
<path fill="#D8D8D8" d="M36,46H6c-0.43066,0-0.8125-0.27539-0.94873-0.68359l-2-6c-0.10156-0.30518-0.05029-0.64014,0.1377-0.90088
	C3.37695,38.1543,3.67871,38,4,38h38c0.4043,0,0.76904,0.24365,0.92383,0.61719c0.15479,0.37402,0.06934,0.80371-0.2168,1.08984
	l-6,6C36.51953,45.89453,36.26514,46,36,46z"/>
</g></svg>