<svg xmlns="http://www.w3.org/2000/svg" xmlns:xlink="http://www.w3.org/1999/xlink" x="0px" y="0px" width="48px" height="48px" viewBox="0 0 48 48"><g >
<path fill="#444444" d="M14,47H9c-1.10457,0-2-0.89543-2-2v-5c0-0.55228,0.44772-1,1-1h7c0.55229,0,1,0.44772,1,1v5
	C16,46.10457,15.10457,47,14,47z"/>
<path fill="#444444" d="M39,47h-5c-1.10457,0-2-0.89543-2-2v-5c0-0.55228,0.44772-1,1-1h7c0.55228,0,1,0.44772,1,1v5
	C41,46.10457,40.10457,47,39,47z"/>
<path fill="#458BC4" d="M43,37H5v2c0,1.10457,0.89543,2,2,2h34c1.10457,0,2-0.89543,2-2V37z"/>
<path fill="#43A6DD" d="M43,37H5V5c0-2.20914,1.79086-4,4-4h30c2.20914,0,4,1.79086,4,4V37z"/>
<path fill="#E6E6E6" d="M40,27H8c-0.55228,0-1-0.44772-1-1V8c0-0.55228,0.44772-1,1-1h32c0.55228,0,1,0.44772,1,1v18
	C41,26.55228,40.55228,27,40,27z"/>
<path fill="#5B5B5B" d="M24,28c-0.25586,0-0.51172-0.09766-0.70703-0.29297c-0.39062-0.39062-0.39062-1.02344,0-1.41406l7-7
	c0.39062-0.39062,1.02344-0.39062,1.41406,0s0.39062,1.02344,0,1.41406l-7,7C24.51172,27.90234,24.25586,28,24,28z"/>
<path fill="#5B5B5B" d="M26,5h-4c-0.55225,0-1-0.44775-1-1s0.44775-1,1-1h4c0.55225,0,1,0.44775,1,1S26.55225,5,26,5z"/>
<path fill="#EFD358" d="M12,34H8c-0.55228,0-1-0.44772-1-1v-1c0-0.55228,0.44772-1,1-1h4c0.55229,0,1,0.44772,1,1v1
	C13,33.55228,12.55229,34,12,34z"/>
<path fill="#EFD358" d="M40,34h-4c-0.55228,0-1-0.44772-1-1v-1c0-0.55228,0.44772-1,1-1h4c0.55228,0,1,0.44772,1,1v1
	C41,33.55228,40.55228,34,40,34z"/>
<path fill="#E6E6E6" d="M32,34H16c-0.55228,0-1-0.44772-1-1v-1c0-0.55228,0.44771-1,1-1h16c0.55228,0,1,0.44772,1,1v1
	C33,33.55228,32.55228,34,32,34z"/>
<path fill="#458BC4" d="M47,10h-1h-3v2h2v5c0,0.55225,0.44775,1,1,1h1c0.55231,0,1-0.44775,1-1v-6C48,10.44769,47.55231,10,47,10z"/>
<path fill="#458BC4" d="M1,10h1h3v2H3v5c0,0.55225-0.44775,1-1,1H1c-0.55231,0-1-0.44775-1-1v-6C0,10.44769,0.44769,10,1,10z"/>
</g></svg>