<svg xmlns="http://www.w3.org/2000/svg" xmlns:xlink="http://www.w3.org/1999/xlink" x="0px" y="0px" width="48px" height="48px" viewBox="0 0 48 48"><g >
<path fill="#D8D8D8" d="M41,36H25c-0.55225,0-1-0.44775-1-1V13c0-0.43311,0.27881-0.81689,0.69092-0.95117
	c0.41113-0.1333,0.8623,0.01221,1.11768,0.36279l16,22c0.22119,0.3042,0.25342,0.70703,0.08252,1.04199
	C41.72021,35.78906,41.37598,36,41,36z"/>
<path fill="#E6E6E6" d="M25,36H7c-0.36035,0-0.69287-0.19385-0.87012-0.50732c-0.17773-0.31348-0.17285-0.69824,0.0127-1.00732
	l18-30c0.23145-0.38623,0.68896-0.56836,1.12451-0.44922C25.7002,4.15625,26,4.55029,26,5v30C26,35.55225,25.55225,36,25,36z"/>
<path fill="#C6A279" d="M43.70705,39.70703c0.28613-0.28613,0.37158-0.71582,0.2168-1.08984
	C43.76906,38.24365,43.40431,38,43.00002,38h-38c-0.32129,0-0.62305,0.1543-0.81104,0.41553
	c-0.18799,0.26074-0.23926,0.5957-0.1377,0.90088l2,6C6.18752,45.72461,6.56935,46,7.00002,46h30
	c0.26514,0,0.51953-0.10547,0.70703-0.29297L43.70705,39.70703z"/>
<path fill="#999999" d="M26.00002,38h-2V3c0-0.55228,0.44771-1,1-1h0c0.55228,0,1,0.44771,1,1V38z"/>
<polygon fill="#DDBE99" points="4.27911,40 4.9458,42 41.41406,42 43.41406,40 "/>
</g></svg>