<svg xmlns="http://www.w3.org/2000/svg" xmlns:xlink="http://www.w3.org/1999/xlink" x="0px" y="0px" width="48px" height="48px" viewBox="0 0 48 48"><g >
<path fill="#4DA34D" d="M9,19.125H5v-3c0-0.55231-0.44769-1-1-1H3c-0.55225,0-1,0.44769-1,1V22c0,0.55225,0.44775,1,1,1h1
	c0.55231,0,1-0.44775,1-1v-1h4V19.125z"/>
<path fill="#4DA34D" d="M39,19.125h4v-3c0-0.55231,0.44769-1,1-1h1c0.55225,0,1,0.44769,1,1V22c0,0.55225-0.44775,1-1,1h-1
	c-0.55231,0-1-0.44775-1-1v-1h-4V19.125z"/>
<path fill="#5B5B5B" d="M40,32H8c-0.55228,0-1-0.44772-1-1V2c0-0.55228,0.44772-1,1-1h32c0.55228,0,1,0.44772,1,1v29
	C41,31.55228,40.55228,32,40,32z"/>
<path fill="#444444" d="M14,47H9c-1.10457,0-2-0.89543-2-2v-5c0-0.55228,0.44772-1,1-1h7c0.55229,0,1,0.44772,1,1v5
	C16,46.10457,15.10457,47,14,47z"/>
<path fill="#444444" d="M39,47h-5c-1.10457,0-2-0.89543-2-2v-5c0-0.55228,0.44772-1,1-1h7c0.55228,0,1,0.44772,1,1v5
	C41,46.10457,40.10457,47,39,47z"/>
<path fill="#72C472" d="M43,37H5v-7.11246c0-1.397,0.32532-2.7748,0.9502-4.02425L7,23.76416V8c0-0.55228,0.44772-1,1-1h32
	c0.55228,0,1,0.44772,1,1v15.76416l1.0498,2.09912C42.67468,27.11274,43,28.49054,43,29.88754V37z"/>
<path fill="#E6E6E6" d="M38,23H10c-0.55229,0-1-0.44772-1-1V10c0-0.55229,0.44771-1,1-1h28c0.55228,0,1,0.44771,1,1v12
	C39,22.55228,38.55228,23,38,23z"/>
<path fill="#4DA34D" d="M43,37H5v2c0,1.10457,0.89543,2,2,2h34c1.10457,0,2-0.89543,2-2V37z"/>
<circle fill="#EFD358" cx="10" cy="32" r="2"/>
<circle fill="#EFD358" cx="38" cy="32" r="2"/>
<path fill="#444444" d="M30,35H18c-0.55228,0-1-0.44772-1-1v-3c0-0.55228,0.44772-1,1-1h12c0.55228,0,1,0.44772,1,1v3
	C31,34.55228,30.55228,35,30,35z"/>
</g></svg>