<svg xmlns="http://www.w3.org/2000/svg" xmlns:xlink="http://www.w3.org/1999/xlink" x="0px" y="0px" width="48px" height="48px" viewBox="0 0 48 48"><g >
<path fill="#E86C60" d="M41,44H7V34h34V44z"/>
<path fill="#B3B3B3" d="M36.31641,5.05127l-6-2C30.21387,3.01709,30.10742,3,30,3H18c-0.10742,0-0.21387,0.01709-0.31641,0.05127
	l-6,2c-0.52344,0.1748-0.80664,0.74121-0.63184,1.26514c0.17383,0.52393,0.7373,0.80859,1.26465,0.63232l5.08545-1.69531
	l2.66162,7.09766C20.21387,12.75244,20.5957,13.00049,21,13.00049c0.11719,0,0.23535-0.021,0.35156-0.06396
	c0.5166-0.19434,0.77832-0.77051,0.58496-1.2876L19.44318,5h9.11365l-2.49335,6.64893
	c-0.19336,0.51709,0.06836,1.09326,0.58496,1.2876c0.11621,0.04297,0.23438,0.06396,0.35156,0.06396
	c0.4043,0,0.78613-0.24805,0.93652-0.64941l2.66162-7.09766l5.08545,1.69531C35.78906,6.98389,35.89551,7.00049,36,7.00049
	c0.41895,0,0.80859-0.26514,0.94824-0.68408C37.12305,5.79248,36.83984,5.22607,36.31641,5.05127z"/>
<path fill="#D8D8D8" d="M41,34H7V15c0-2.20914,1.79086-4,4-4h26c2.20914,0,4,1.79086,4,4V34z"/>
<path fill="#FFFFFF" d="M12,40c-1.10286,0-2-0.89714-2-2s0.89714-2,2-2s2,0.89714,2,2S13.10286,40,12,40z"/>
<path fill="#EFD358" d="M17.5,42c-0.82715,0-1.5-0.67285-1.5-1.5s0.67285-1.5,1.5-1.5s1.5,0.67285,1.5,1.5S18.32715,42,17.5,42z"/>
<path fill="#EFD358" d="M30.5,42c-0.82715,0-1.5-0.67285-1.5-1.5s0.67285-1.5,1.5-1.5s1.5,0.67285,1.5,1.5S31.32715,42,30.5,42z"/>
<path fill="#FFFFFF" d="M36,40c-1.10286,0-2-0.89714-2-2s0.89714-2,2-2s2,0.89714,2,2S37.10286,40,36,40z"/>
<path fill="#5B5B5B" d="M13.82598,31.21693l-3.55556-16C10.13165,14.59242,10.60687,14,11.24662,14h25.50677
	c0.63975,0,1.11497,0.59242,0.97619,1.21693l-3.55556,16C34.07234,31.67447,33.66653,32,33.19783,32H14.80217
	C14.33347,32,13.92766,31.67447,13.82598,31.21693z"/>
<path fill="#5B5B5B" d="M41,44H7v2c0,0.55228,0.44772,1,1,1h32c0.55228,0,1-0.44772,1-1V44z"/>
<path fill="#E86C60" d="M45,16h-1h-3v2h2v5c0,0.55225,0.44775,1,1,1h1c0.55231,0,1-0.44775,1-1v-6C46,16.44769,45.55231,16,45,16z"/>
<path fill="#E86C60" d="M3,16h1h3v2H5v5c0,0.55225-0.44775,1-1,1H3c-0.55231,0-1-0.44775-1-1v-6C2,16.44769,2.44769,16,3,16z"/>
<polygon fill="#808080" points="23.20001,14 16,32 19,32 26.20001,14 "/>
<polygon fill="#808080" points="29.20001,14 22,32 24,32 31.20001,14 "/>
</g></svg>