<svg xmlns="http://www.w3.org/2000/svg" xmlns:xlink="http://www.w3.org/1999/xlink" x="0px" y="0px" width="48px" height="48px" viewBox="0 0 48 48"><g >
<path fill="#5B5B5B" d="M44,45H4c-0.31592,0-0.61377-0.14941-0.80225-0.40332c-0.18896-0.25293-0.24658-0.58105-0.15576-0.88379
	l12-40C15.16895,3.29004,15.55859,3,16,3h16c0.44141,0,0.83105,0.29004,0.95801,0.71289l12,40
	c0.09082,0.30273,0.0332,0.63086-0.15576,0.88379C44.61377,44.85059,44.31592,45,44,45z"/>
<path fill="#EFD358" d="M24,15c-0.55225,0-1-0.44727-1-1v-4c0-0.55273,0.44775-1,1-1s1,0.44727,1,1v4C25,14.55273,24.55225,15,24,15
	z"/>
<path fill="#EFD358" d="M24,27c-0.55225,0-1-0.44727-1-1v-4c0-0.55273,0.44775-1,1-1s1,0.44727,1,1v4C25,26.55273,24.55225,27,24,27
	z"/>
<path fill="#EFD358" d="M24,39c-0.55225,0-1-0.44727-1-1v-4c0-0.55273,0.44775-1,1-1s1,0.44727,1,1v4C25,38.55273,24.55225,39,24,39
	z"/>
</g></svg>