<svg xmlns="http://www.w3.org/2000/svg" xmlns:xlink="http://www.w3.org/1999/xlink" x="0px" y="0px" width="48px" height="48px" viewBox="0 0 48 48"><g >
<path fill="#E86C60" d="M47,29H5c-2.20914,0-4-1.79086-4-4v-3c0-0.15542,0.03619-0.30871,0.1057-0.44772l5.61809-11.23566
	C7.74015,8.28397,9.8177,7,12.0903,7H46c0.55228,0,1,0.44772,1,1V29z"/>
<path fill="#5B5B5B" d="M26,17h-6c-0.55228,0-1-0.44772-1-1v-4c0-0.55229,0.44772-1,1-1h6c0.55228,0,1,0.44771,1,1v4
	C27,16.55228,26.55228,17,26,17z"/>
<path fill="#5B5B5B" d="M42,17h-6c-0.55228,0-1-0.44772-1-1v-4c0-0.55229,0.44772-1,1-1h6c0.55228,0,1,0.44771,1,1v4
	C43,16.55228,42.55228,17,42,17z"/>
<path fill="#5B5B5B" d="M14,9h-1.90979c-1.51498,0-2.89994,0.85592-3.57751,2.21094l-4.17127,8.34182
	C4.00894,20.21766,4.49244,21,5.23583,21H11c2.20914,0,4-1.79086,4-4v-7C15,9.44771,14.55229,9,14,9z"/>
<path fill="#B3B3B3" d="M47,35H4c-0.55228,0-1-0.44772-1-1l0,0c0-0.55228,0.44771-1,1-1h43V35z"/>
<path fill="#E6E6E6" d="M47,21H20c-0.55228,0-1-0.44771-1-1v0c0-0.55228,0.44771-1,1-1h27V21z"/>
<rect x="9" y="31" fill="#B3B3B3" width="2" height="3"/>
<rect x="15" y="31" fill="#B3B3B3" width="2" height="3"/>
<rect x="34" y="31" fill="#B3B3B3" width="2" height="3"/>
<rect x="40" y="31" fill="#B3B3B3" width="2" height="3"/>
</g></svg>