<svg xmlns="http://www.w3.org/2000/svg" xmlns:xlink="http://www.w3.org/1999/xlink" x="0px" y="0px" width="48px" height="48px" viewBox="0 0 48 48"><g >
<path fill="#B3B3B3" d="M40.89453,45.55273l-6-12c-0.24707-0.49414-0.84717-0.69336-1.3418-0.44727
	c-0.49414,0.24707-0.69434,0.84766-0.44727,1.3418L36.38184,41H11.61816l3.27637-6.55273
	c0.24707-0.49414,0.04688-1.09473-0.44727-1.3418c-0.49561-0.24609-1.09473-0.04688-1.3418,0.44727l-6,12
	c-0.24707,0.49414-0.04688,1.09473,0.44727,1.3418C7.69629,46.96582,7.84912,47,7.99902,47
	c0.36719,0,0.72021-0.20215,0.89551-0.55273L10.61816,43h26.76367l1.72363,3.44727C39.28076,46.79785,39.63379,47,40.00098,47
	c0.1499,0,0.30273-0.03418,0.44629-0.10547C40.94141,46.64746,41.1416,46.04688,40.89453,45.55273z"/>
<path fill="#E86C60" d="M41,34H7V5c0-2.20914,1.79086-4,4-4h26c2.20914,0,4,1.79086,4,4V34z"/>
<path fill="#FFFFFF" d="M12,30c-1.10286,0-2-0.89713-2-2s0.89714-2,2-2s2,0.89713,2,2S13.10286,30,12,30z"/>
<path fill="#EFD358" d="M17.5,32c-0.82715,0-1.5-0.67285-1.5-1.5s0.67285-1.5,1.5-1.5s1.5,0.67285,1.5,1.5S18.32715,32,17.5,32z"/>
<path fill="#EFD358" d="M30.5,32c-0.82715,0-1.5-0.67285-1.5-1.5s0.67285-1.5,1.5-1.5s1.5,0.67285,1.5,1.5S31.32715,32,30.5,32z"/>
<path fill="#FFFFFF" d="M36,30c-1.10286,0-2-0.89713-2-2s0.89714-2,2-2s2,0.89713,2,2S37.10286,30,36,30z"/>
<path fill="#5B5B5B" d="M33,24H15c-0.46875,0-0.87451-0.32568-0.97607-0.7832l-4-18c-0.06592-0.2959,0.00635-0.60596,0.1958-0.84229
	C10.40967,4.1377,10.69678,4,11,4h26c0.30322,0,0.59033,0.1377,0.78027,0.37451c0.18945,0.23633,0.26172,0.54639,0.1958,0.84229
	l-4,18C33.87451,23.67432,33.46875,24,33,24z"/>
<path fill="#5B5B5B" d="M41,34H7v2c0,0.55228,0.44772,1,1,1h32c0.55228,0,1-0.44772,1-1V34z"/>
<polygon fill="#808080" points="19,24 16,24 24,4 27,4 "/>
<polygon fill="#808080" points="24,24 22,24 30,4 32,4 "/>
</g></svg>