<svg xmlns="http://www.w3.org/2000/svg" xmlns:xlink="http://www.w3.org/1999/xlink" x="0px" y="0px" width="48px" height="48px" viewBox="0 0 48 48"><g >
<path fill="#5B5B5B" d="M20,4h-8c-0.55225,0-1,0.44769-1,1v10c0,0.55225,0.44775,1,1,1h8c0.55225,0,1-0.44775,1-1V5
	C21,4.44769,20.55231,4,20,4z"/>
<path fill="#D8D8D8" d="M36,24H8c-0.55225,0-1-0.44775-1-1v-8c0-0.55225,0.44775-1,1-1h24c0.37891,0,0.7251,0.21387,0.89453,0.55273
	l4,8c0.15479,0.31006,0.13818,0.67822-0.04395,0.97314C36.66846,23.82031,36.34668,24,36,24z"/>
<path fill="#5B5B5B" d="M38,36H8c-0.43066,0-0.8125-0.27539-0.94873-0.68359l-4-12c-0.10156-0.30518-0.05029-0.64014,0.1377-0.90088
	C3.37695,22.1543,3.67871,22,4,22h40c0.34668,0,0.66846,0.17969,0.85059,0.47412c0.18213,0.29492,0.19873,0.66309,0.04395,0.97314
	l-6,12C38.7251,35.78613,38.37891,36,38,36z"/>
<circle fill="#D8D8D8" cx="11.5" cy="27.5" r="1.5"/>
<circle fill="#D8D8D8" cx="19.5" cy="27.5" r="1.5"/>
<circle fill="#D8D8D8" cx="27.5" cy="27.5" r="1.5"/>
<circle fill="#D8D8D8" cx="35.5" cy="27.5" r="1.5"/>
<path fill="#76B5B5" d="M46,45c0.55228,0,1-0.44772,1-1V32.54352c-0.64557,0.29022-1.25659,0.68359-1.7868,1.21381
	c-2.34314,2.34314-6.14209,2.34314-8.48529,0c-2.34314-2.34314-6.14209-2.34314-8.48523,0
	c-2.3432,2.34314-6.14215,2.34314-8.48529,0s-6.14215-2.34314-8.48529,0s-6.14215,2.34314-8.48529,0
	C2.25659,33.22711,1.64557,32.83374,1,32.54352V44c0,0.55228,0.44772,1,1,1H46z"/>
<rect x="11" y="7" fill="#E86C60" width="10" height="2"/>
</g></svg>