<svg xmlns="http://www.w3.org/2000/svg" xmlns:xlink="http://www.w3.org/1999/xlink" x="0px" y="0px" width="48px" height="48px" viewBox="0 0 48 48"><g >
<path fill="#B3B3B3" d="M32,14c-0.55225,0-1-0.44727-1-1V5c0-0.55273,0.44775-1,1-1s1,0.44727,1,1v8C33,13.55273,32.55225,14,32,14z
	"/>
<path fill="#B3B3B3" d="M26.99902,44c-0.1499,0-0.30273-0.03418-0.44629-0.10547c-0.49414-0.24707-0.69434-0.84766-0.44727-1.3418
	l3-6c0.24658-0.49414,0.84619-0.69238,1.3418-0.44727c0.49414,0.24707,0.69434,0.84766,0.44727,1.3418l-3,6
	C27.71924,43.79785,27.36621,44,26.99902,44z"/>
<path fill="#B3B3B3" d="M39.00098,44c-0.36719,0-0.72021-0.20215-0.89551-0.55273l-3-6
	c-0.24707-0.49414-0.04688-1.09473,0.44727-1.3418c0.49463-0.24512,1.09473-0.04688,1.3418,0.44727l3,6
	c0.24707,0.49414,0.04688,1.09473-0.44727,1.3418C39.30371,43.96582,39.15088,44,39.00098,44z"/>
<path fill="#EA9860" d="M31,19v-7H8L5.27639,6.55279C5.107,6.214,4.76074,6,4.38197,6H2.2147
	C1.58533,6,1.11243,6.57443,1.23332,7.19208l1.56784,8.01034c0.21602,1.10366,1.03114,1.99381,2.11157,2.30591L17,21v4
	c0,7.1797,5.8203,13,13,13h4c7.16846,0,13-5.83203,13-13H37C33.68629,25,31,22.31371,31,19z"/>
<path fill="#5B5B5B" d="M34,12h-3v7c0,3.31372,2.68628,6,6,6h10C47,17.83203,41.16846,12,34,12z"/>
<path fill="#5B5B5B" d="M42,44H18c-0.55225,0-1-0.44727-1-1s0.44775-1,1-1h24c1.6543,0,3-1.3457,3-3c0-0.55273,0.44775-1,1-1
	s1,0.44727,1,1C47,41.75684,44.75684,44,42,44z"/>
<path fill="#5B5B5B" d="M46,6H18c-0.55225,0-1-0.44727-1-1s0.44775-1,1-1h28c0.55225,0,1,0.44727,1,1S46.55225,6,46,6z"/>
</g></svg>