<svg xmlns="http://www.w3.org/2000/svg" xmlns:xlink="http://www.w3.org/1999/xlink" x="0px" y="0px" width="48px" height="48px" viewBox="0 0 48 48"><g >
<path fill="#444444" d="M14,12H9c-0.3584,0-0.69043-0.19238-0.86816-0.50391l-4-7C3.95508,4.18652,3.95605,3.80664,4.13477,3.49805
	C4.31445,3.18945,4.64355,3,5,3h9c0.55273,0,1,0.44727,1,1v7C15,11.55273,14.55273,12,14,12z"/>
<path fill="#444444" d="M14,26H9c-0.3584,0-0.69043-0.19238-0.86816-0.50391l-4-7c-0.17676-0.30957-0.17578-0.68945,0.00293-0.99805
	C4.31445,17.18945,4.64355,17,5,17h9c0.55273,0,1,0.44727,1,1v7C15,25.55273,14.55273,26,14,26z"/>
<path fill="#444444" d="M14,40H9c-0.3584,0-0.69043-0.19238-0.86816-0.50391l-4-7c-0.17676-0.30957-0.17578-0.68945,0.00293-0.99805
	C4.31445,31.18945,4.64355,31,5,31h9c0.55273,0,1,0.44727,1,1v7C15,39.55273,14.55273,40,14,40z"/>
<path fill="#444444" d="M38,12h-4c-0.55273,0-1-0.44727-1-1V4c0-0.55273,0.44727-1,1-1h8c0.35645,0,0.68555,0.18945,0.86523,0.49805
	c0.17871,0.30859,0.17969,0.68848,0.00293,0.99805l-4,7C38.69043,11.80762,38.3584,12,38,12z"/>
<path fill="#444444" d="M38,26h-4c-0.55273,0-1-0.44727-1-1v-7c0-0.55273,0.44727-1,1-1h8
	c0.35645,0,0.68555,0.18945,0.86523,0.49805c0.17871,0.30859,0.17969,0.68848,0.00293,0.99805l-4,7
	C38.69043,25.80762,38.3584,26,38,26z"/>
<path fill="#444444" d="M38,40h-4c-0.55273,0-1-0.44727-1-1v-7c0-0.55273,0.44727-1,1-1h8
	c0.35645,0,0.68555,0.18945,0.86523,0.49805c0.17871,0.30859,0.17969,0.68848,0.00293,0.99805l-4,7
	C38.69043,39.80762,38.3584,40,38,40z"/>
<path fill="#5B5B5B" d="M34,47H14c-0.55273,0-1-0.44727-1-1V2c0-0.55273,0.44727-1,1-1h20c0.55273,0,1,0.44727,1,1v44
	C35,46.55273,34.55273,47,34,47z"/>
<path fill="#EFD358" d="M24,29c-2.75684,0-5-2.24316-5-5s2.24316-5,5-5s5,2.24316,5,5S26.75684,29,24,29z"/>
<path fill="#72C472" d="M24,43c-2.75684,0-5-2.24316-5-5s2.24316-5,5-5s5,2.24316,5,5S26.75684,43,24,43z"/>
<path fill="#E86C60" d="M24,15c-2.75684,0-5-2.24316-5-5s2.24316-5,5-5s5,2.24316,5,5S26.75684,15,24,15z"/>
<path fill="#444444" d="M30,11c-0.55273,0-1-0.44727-1-1c0-2.75684-2.24316-5-5-5s-5,2.24316-5,5c0,0.55273-0.44727,1-1,1
	s-1-0.44727-1-1c0-3.85938,3.14062-7,7-7s7,3.14062,7,7C31,10.55273,30.55273,11,30,11z"/>
<path fill="#444444" d="M30,25c-0.55273,0-1-0.44727-1-1c0-2.75684-2.24316-5-5-5s-5,2.24316-5,5c0,0.55273-0.44727,1-1,1
	s-1-0.44727-1-1c0-3.85938,3.14062-7,7-7s7,3.14062,7,7C31,24.55273,30.55273,25,30,25z"/>
<path fill="#444444" d="M30,39c-0.55273,0-1-0.44727-1-1c0-2.75684-2.24316-5-5-5s-5,2.24316-5,5c0,0.55273-0.44727,1-1,1
	s-1-0.44727-1-1c0-3.85938,3.14062-7,7-7s7,3.14062,7,7C31,38.55273,30.55273,39,30,39z"/>
</g></svg>