<svg xmlns="http://www.w3.org/2000/svg" xmlns:xlink="http://www.w3.org/1999/xlink" x="0px" y="0px" width="48px" height="48px" viewBox="0 0 48 48"><g >
<path fill="#444444" d="M10,41c-4.96289,0-9-4.03711-9-9s4.03711-9,9-9s9,4.03711,9,9S14.96289,41,10,41z"/>
<path fill="#E6E6E6" d="M10,37c-2.75716,0-5-2.24284-5-5s2.24284-5,5-5s5,2.24284,5,5S12.75716,37,10,37z"/>
<polygon fill="#5B5B5B" points="22,32 10,32 22,24 "/>
<path fill="#5B5B5B" d="M22,33H10c-0.44043,0-0.8291-0.28809-0.95703-0.70996s0.03613-0.87793,0.40234-1.12207l12-8
	c0.30566-0.20459,0.70215-0.22412,1.02637-0.0498C22.79688,23.29248,23,23.63135,23,24v8C23,32.55273,22.55273,33,22,33z
	 M13.30273,31H21v-5.13184L13.30273,31z"/>
<path fill-rule="evenodd" clip-rule="evenodd" fill="#72C472" d="M37.293,3.293l-2,2c-0.22,0.22-0.325,0.531-0.284,0.84
	c0.041,0.309,0.225,0.581,0.495,0.735C37.236,7.858,39,9.943,39,11c0,0.83-0.688,1.57-1.707,1.953
	C28,7.5,20.68243,16.27477,20.68243,16.27477C20.30553,16.6753,19.54902,17,19.00922,17h-4.01844
	c-0.54493,0-1.30604-0.31526-1.69137-0.70059l-2.59363-2.59363c-0.38818-0.38818-1.15042-0.7693-1.69387-0.84694l-5.02384-0.7177
	c-0.54345-0.07764-1.15489,0.27587-1.35877,0.78557L1.35764,16.1059c-0.19966,0.49916,0.03106,1.06686,0.52234,1.2852L10,21
	c6.076,0,11,4.925,11,11c0,0.338-0.02,0.67-0.05,1H30c0.196,0,0.386-0.057,0.55-0.164c0,0,11.281-7.433,11.334-7.476
	C43.79,23.425,47,19.367,47,14c0-8.007-8.333-10.834-8.688-10.95C37.956,2.932,37.56,3.026,37.293,3.293z"/>
<path fill-rule="evenodd" clip-rule="evenodd" fill="#444444" d="M20.1907,16.64672C19.81689,16.85833,19.36578,17,19.00922,17
	h-4.01844c-0.54493,0-1.30604-0.31526-1.69137-0.70059l-2.59363-2.59363c-0.38818-0.38818-1.15042-0.7693-1.69387-0.84694
	l-5.02384-0.7177c-0.54345-0.07764-1.15489,0.27587-1.35877,0.78557l-0.73276,1.8319L12.5,19h5.08579
	c0.26522,0,0.51957-0.10536,0.70711-0.29289l1.99282-1.99282L20.1907,16.64672z"/>
<path fill="#444444" d="M38,41c-4.96289,0-9-4.03711-9-9s4.03711-9,9-9s9,4.03711,9,9S42.96289,41,38,41z"/>
<path fill="#E6E6E6" d="M38,37c-2.75716,0-5-2.24284-5-5s2.24284-5,5-5s5,2.24284,5,5S40.75716,37,38,37z"/>
<path fill="#444444" d="M35,18c-0.25586,0-0.51172-0.09766-0.70703-0.29297c-0.39062-0.39062-0.39062-1.02344,0-1.41406l3-3
	c0.39062-0.39062,1.02344-0.39062,1.41406,0s0.39062,1.02344,0,1.41406l-3,3C35.51172,17.90234,35.25586,18,35,18z"/>
<path fill="#E6E6E6" d="M46.40155,10.53278l-3.71777,1.23926C42.27545,11.9082,42,12.29028,42,12.72076V14c0,0.55225,0.44769,1,1,1
	h3.96246C46.98688,14.67194,47,14.33868,47,14C47,12.70837,46.76672,11.56519,46.40155,10.53278z"/>
</g></svg>