<svg xmlns="http://www.w3.org/2000/svg" xmlns:xlink="http://www.w3.org/1999/xlink" x="0px" y="0px" width="48px" height="48px" viewBox="0 0 48 48"><g >
<path fill="#E86C60" d="M45.92871,20.06104C45.35742,19.38672,44.52246,19,43.63867,19H32.52051l-6.40275-9.14691
	C25.74351,9.31843,25.13192,9,24.47929,9h-12.4481c-1.63565,0-3.1065,0.99584-3.71394,2.51452L5.32324,19H4
	c-1.65685,0-3,1.34315-3,3v7h44.51416l1.08447-6.50684C46.74414,21.62158,46.5,20.73535,45.92871,20.06104z"/>
<path fill="#C94F49" d="M1,30c0,1.65686,1.34314,3,3,3h39.15332c0.98047,0,1.80957-0.70215,1.97266-1.6709L45.51416,29H1V30z"/>
<path fill="#E6E6E6" d="M30.07947,19l-5.59998-8H12.03125c-0.82227,0-1.55176,0.49365-1.85645,1.25732L7.47772,19H30.07947z"/>
<path fill="#444444" d="M10,39c-3.30859,0-6-2.69141-6-6s2.69141-6,6-6s6,2.69141,6,6S13.30859,39,10,39z"/>
<path fill="#444444" d="M37,39c-3.30859,0-6-2.69141-6-6s2.69141-6,6-6s6,2.69141,6,6S40.30859,39,37,39z"/>
<path fill="#E6E6E6" d="M10,36c-1.6543,0-3-1.3457-3-3s1.3457-3,3-3s3,1.3457,3,3S11.6543,36,10,36z"/>
<path fill="#E6E6E6" d="M37,36c-1.6543,0-3-1.3457-3-3s1.3457-3,3-3s3,1.3457,3,3S38.6543,36,37,36z"/>
<path fill="#C94F49" d="M43,24h-6c-0.55273,0-1-0.44775-1-1s0.44727-1,1-1h6c0.55273,0,1,0.44775,1,1S43.55273,24,43,24z"/>
<rect x="14" y="11" fill="#E86C60" width="2" height="8"/>
</g></svg>