<svg xmlns="http://www.w3.org/2000/svg" xmlns:xlink="http://www.w3.org/1999/xlink" x="0px" y="0px" width="48px" height="48px" viewBox="0 0 48 48"><g >
<path fill="#B3B3B3" d="M32,16c-0.55225,0-1-0.44727-1-1V7c0-0.55176-0.44873-1-1-1h-4c-0.55225,0-1-0.44727-1-1s0.44775-1,1-1h4
	c1.6543,0,3,1.3457,3,3v8C33,15.55273,32.55225,16,32,16z"/>
<path fill="#B3B3B3" d="M40,10h-1V4h1c0.55228,0,1,0.44772,1,1v4C41,9.55229,40.55228,10,40,10z"/>
<path fill="#E6E6E6" d="M36,4c-1.65686,0-3,1.34314-3,3s1.34314,3,3,3h3V4H36z"/>
<path fill="#5B5B5B" d="M30,6h-4c-0.55228,0-1-0.44771-1-1v0c0-0.55228,0.44771-1,1-1h4V6z"/>
<path fill="#76B5B5" d="M43.88049,32.39014l-4.93176-17.70654C38.8125,14.27539,38.43066,14,38,14h-6c-0.55228,0-1,0.44771-1,1v18
	c0,1.65685-1.34315,3-3,3l-6.78506,0c-2.50421,0-4.95368-2.01593-5.19144-4.50883c-0.25646-2.68895,1.61875-4.99323,4.13313-5.42035
	C20.64067,25.98861,21,25.58104,21,25.09007L21,22H7c-2.20914,0-4,1.79086-4,4v13c0,0.55228,0.44772,1,1,1h34.10052
	C42.07018,40,44.94561,36.21423,43.88049,32.39014z"/>
<path fill="#444444" d="M9,45c-3.30845,0-6-2.69196-6-6s2.69155-6,6-6s6,2.69196,6,6S12.30845,45,9,45z"/>
<path fill="#C6A279" d="M21,22H7v-2c0-1.65685,1.34315-3,3-3h8c1.65685,0,3,1.34315,3,3V22z"/>
<path fill="#444444" d="M39,45c-3.30845,0-6-2.69196-6-6s2.69155-6,6-6s6,2.69196,6,6S42.30845,45,39,45z"/>
<path fill="#E6E6E6" d="M9,42c-1.65423,0-3-1.34598-3-3s1.34577-3,3-3s3,1.34598,3,3S10.65423,42,9,42z"/>
<path fill="#E6E6E6" d="M39,42c-1.65423,0-3-1.34598-3-3s1.34577-3,3-3s3,1.34598,3,3S40.65423,42,39,42z"/>
<path fill="#9BCED3" d="M16,40H2c-0.55225,0-1-0.44727-1-1c0-4.41113,3.58887-8,8-8s8,3.58887,8,8C17,39.55273,16.55225,40,16,40z"/>
<path fill="#9BCED3" d="M46,40H32c-0.55225,0-1-0.44727-1-1c0-4.41113,3.58887-8,8-8s8,3.58887,8,8C47,39.55273,46.55225,40,46,40z"/>
</g></svg>