<svg xmlns="http://www.w3.org/2000/svg" xmlns:xlink="http://www.w3.org/1999/xlink" x="0px" y="0px" width="48px" height="48px" viewBox="0 0 48 48"><g >
<path fill="#B3B3B3" d="M35,24H25c-0.32324,0-0.62598-0.15576-0.81348-0.41895l-10-14
	c-0.21777-0.30469-0.24707-0.70557-0.07617-1.03857C14.28223,8.20947,14.625,8,15,8h4c0.24219,0,0.47656,0.08789,0.6582,0.24756
	l16,14c0.31348,0.27441,0.4248,0.71436,0.27832,1.104C35.79004,23.7417,35.41699,24,35,24z"/>
<path fill="#E6E6E6" d="M19,44h-4c-0.36914,0-0.70801-0.20312-0.88184-0.52832s-0.1543-0.71973,0.0498-1.02637l10-15
	C24.35352,27.16699,24.66602,27,25,27h11c0.41602,0,0.78809,0.25781,0.93555,0.64648
	c0.14648,0.38867,0.03809,0.82812-0.27441,1.10352l-17,15C19.47852,43.91113,19.24316,44,19,44z"/>
<path fill="#D8D8D8" d="M39,19H10.99467c-0.54934,0-1.24949-0.35675-1.57802-0.81669
	l-3.8333-5.36662C5.26117,12.36564,4.55665,12,3.99063,12H2.00937c-0.55746,0-0.87628,0.43253-0.71524,0.95592l3.41174,11.08816
	c0.16244,0.52794,0.71109,1.1227,1.21698,1.32506l8.1543,3.26172C14.58683,28.83473,15.44989,29,15.99758,29H39c4,0,8-2.5,8-5
	S43,19,39,19z"/>
<circle fill="#5B5B5B" cx="18.5" cy="23.5" r="1.5"/>
<circle fill="#5B5B5B" cx="26.5" cy="23.5" r="1.5"/>
<circle fill="#5B5B5B" cx="34.5" cy="23.5" r="1.5"/>
</g></svg>