<?xml version="1.0" encoding="utf-8"?>
<!-- Generator: Adobe Illustrator 19.1.0, SVG Export Plug-In . SVG Version: 6.00 Build 0)  -->
<!DOCTYPE svg PUBLIC "-//W3C//DTD SVG 1.1//EN" "http://www.w3.org/Graphics/SVG/1.1/DTD/svg11.dtd">
<svg version="1.1" id="Layer_1" xmlns="http://www.w3.org/2000/svg" xmlns:xlink="http://www.w3.org/1999/xlink" x="0px" y="0px"
	 width="24px" height="24px" viewBox="0 0 24 24" enable-background="new 0 0 24 24" xml:space="preserve">
<path d="M23,9h-1V3c0-0.6-0.4-1-1-1s-1,0.4-1,1v1H4V3c0-0.6-0.4-1-1-1S2,2.4,2,3v6H1c-0.6,0-1,0.4-1,1v6v4c0,0.6,0.4,1,1,1
	s1-0.4,1-1v-3h20v3c0,0.6,0.4,1,1,1s1-0.4,1-1v-4v-6C24,9.4,23.6,9,23,9z M20,9h-7V6h7V9z M4,6h7v3H4V6z M2,11h20v4H2V11z"/>
</svg>
