<?xml version="1.0" encoding="utf-8"?>
<!-- Generator: Adobe Illustrator 19.1.0, SVG Export Plug-In . SVG Version: 6.00 Build 0)  -->
<!DOCTYPE svg PUBLIC "-//W3C//DTD SVG 1.1//EN" "http://www.w3.org/Graphics/SVG/1.1/DTD/svg11.dtd">
<svg version="1.1" id="Layer_1" xmlns="http://www.w3.org/2000/svg" xmlns:xlink="http://www.w3.org/1999/xlink" x="0px" y="0px"
	 width="24px" height="24px" viewBox="0 0 24 24" enable-background="new 0 0 24 24" xml:space="preserve">
<path d="M23,12H1c-0.6,0-1,0.4-1,1v9c0,0.6,0.4,1,1,1h22c0.6,0,1-0.4,1-1v-9C24,12.4,23.6,12,23,12z M22,21H2v-7h20V21z"/>
<path d="M5,19h14c0.6,0,1-0.4,1-1s-0.4-1-1-1H5c-0.6,0-1,0.4-1,1S4.4,19,5,19z"/>
<path d="M13,7V2c0-0.6-0.4-1-1-1s-1,0.4-1,1v5c0,0.6,0.4,1,1,1S13,7.6,13,7z"/>
<path d="M8,9V6c0-0.6-0.4-1-1-1S6,5.4,6,6v3c0,0.6,0.4,1,1,1S8,9.6,8,9z"/>
<path d="M18,9V6c0-0.6-0.4-1-1-1s-1,0.4-1,1v3c0,0.6,0.4,1,1,1S18,9.6,18,9z"/>
</svg>
