<?xml version="1.0" encoding="utf-8"?>
<!-- Generator: Adobe Illustrator 19.1.0, SVG Export Plug-In . SVG Version: 6.00 Build 0)  -->
<!DOCTYPE svg PUBLIC "-//W3C//DTD SVG 1.1//EN" "http://www.w3.org/Graphics/SVG/1.1/DTD/svg11.dtd">
<svg version="1.1" id="Layer_1" xmlns="http://www.w3.org/2000/svg" xmlns:xlink="http://www.w3.org/1999/xlink" x="0px" y="0px"
	 width="24px" height="24px" viewBox="0 0 24 24" enable-background="new 0 0 24 24" xml:space="preserve">
<path d="M14,18v1c0,0.6,0.4,1,1,1s1-0.4,1-1v-1c0-0.6-0.4-1-1-1S14,17.4,14,18z"/>
<path d="M9.3,15.2l-0.7,0.7c-0.4,0.4-0.4,1,0,1.4c0.2,0.2,0.5,0.3,0.7,0.3s0.5-0.1,0.7-0.3l0.7-0.7c0.4-0.4,0.4-1,0-1.4
	C10.4,14.9,9.7,14.9,9.3,15.2z"/>
<path d="M19.2,15.2c-0.4,0.4-0.4,1,0,1.4l0.7,0.7c0.2,0.2,0.5,0.3,0.7,0.3s0.5-0.1,0.7-0.3c0.4-0.4,0.4-1,0-1.4l-0.7-0.7
	C20.3,14.9,19.6,14.9,19.2,15.2z"/>
<path d="M15,0H8C4.7,0,2,2.7,2,6v17c0,0.6,0.4,1,1,1h4c0.6,0,1-0.4,1-1s-0.4-1-1-1H4V6c0-2.2,1.8-4,4-4h6v2c-3.9,0-7,3.1-7,7
	c0,0.6,0.4,1,1,1h3.1c0.4,1.7,2,3,3.9,3s3.4-1.3,3.9-3H22c0.6,0,1-0.4,1-1c0-3.9-3.1-7-7-7V1C16,0.4,15.6,0,15,0z M15,13
	c-0.7,0-1.4-0.4-1.7-1h3.4C16.4,12.6,15.7,13,15,13z M20.9,10H9.1c0.5-2.3,2.5-4,4.9-4h2C18.4,6,20.4,7.7,20.9,10z"/>
</svg>
