<?xml version="1.0" encoding="utf-8"?>
<!-- Generator: Adobe Illustrator 19.1.0, SVG Export Plug-In . SVG Version: 6.00 Build 0)  -->
<!DOCTYPE svg PUBLIC "-//W3C//DTD SVG 1.1//EN" "http://www.w3.org/Graphics/SVG/1.1/DTD/svg11.dtd">
<svg version="1.1" id="Layer_1" xmlns="http://www.w3.org/2000/svg" xmlns:xlink="http://www.w3.org/1999/xlink" x="0px" y="0px"
	 width="24px" height="24px" viewBox="0 0 24 24" enable-background="new 0 0 24 24" xml:space="preserve">
<path d="M19,0H5C2.1,0,0,3.9,0,9v14c0,0.6,0.4,1,1,1h15c0.6,0,1-0.4,1-1v-5h2c2.9,0,5-3.9,5-9S21.9,0,19,0z M5,2c1.4,0,3,3,3,7
	s-1.6,7-3,7s-3-3-3-7S3.6,2,5,2z M15,22H2v-5.7C2.8,17.4,3.9,18,5,18h10V22z M19,16H8.2c1.1-1.6,1.8-4.1,1.8-7S9.3,3.6,8.2,2H19
	c1.4,0,3,3,3,7S20.4,16,19,16z"/>
<path d="M5,11c0.6,0,1-0.4,1-1V8c0-0.6-0.4-1-1-1S4,7.4,4,8v2C4,10.6,4.4,11,5,11z"/>
</svg>
