<?xml version="1.0" encoding="utf-8"?>
<!-- Generator: Adobe Illustrator 19.1.0, SVG Export Plug-In . SVG Version: 6.00 Build 0)  -->
<!DOCTYPE svg PUBLIC "-//W3C//DTD SVG 1.1//EN" "http://www.w3.org/Graphics/SVG/1.1/DTD/svg11.dtd">
<svg version="1.1" id="Layer_1" xmlns="http://www.w3.org/2000/svg" xmlns:xlink="http://www.w3.org/1999/xlink" x="0px" y="0px"
	 width="24px" height="24px" viewBox="0 0 24 24" enable-background="new 0 0 24 24" xml:space="preserve">
<path d="M20,1c-1.9,0-3.5,1.3-3.9,3.1C14.3,4.5,13,6.1,13,8c0,0.6,0.4,1,1,1h6c0.6,0,1-0.4,1-1c0-1.8-1.2-3.3-2.8-3.8
	C18.5,3.5,19.2,3,20,3c1.1,0,2,0.9,2,2v7H1c-0.6,0-1,0.4-1,1v2c0,3,2.2,5.4,5,5.9V22c0,0.6,0.4,1,1,1s1-0.4,1-1v-1h10v1
	c0,0.6,0.4,1,1,1s1-0.4,1-1v-1.1c2.8-0.5,5-2.9,5-5.9v-2V5C24,2.8,22.2,1,20,1z M18.7,7h-3.5c0.3-0.6,1-1,1.7-1S18.4,6.4,18.7,7z
	 M22,15c0,2.2-1.8,4-4,4H6c-2.2,0-4-1.8-4-4v-1h20V15z"/>
</svg>
