<?xml version="1.0" encoding="utf-8"?>
<!-- Generator: Adobe Illustrator 19.1.0, SVG Export Plug-In . SVG Version: 6.00 Build 0)  -->
<!DOCTYPE svg PUBLIC "-//W3C//DTD SVG 1.1//EN" "http://www.w3.org/Graphics/SVG/1.1/DTD/svg11.dtd">
<svg version="1.1" id="Layer_1" xmlns="http://www.w3.org/2000/svg" xmlns:xlink="http://www.w3.org/1999/xlink" x="0px" y="0px"
	 width="24px" height="24px" viewBox="0 0 24 24" enable-background="new 0 0 24 24" xml:space="preserve">
<path d="M19,8c0.6,0,1-0.4,1-1V5c0-0.6-0.4-1-1-1s-1,0.4-1,1v2C18,7.6,18.4,8,19,8z"/>
<path d="M16,8c0.6,0,1-0.4,1-1V5c0-0.6-0.4-1-1-1s-1,0.4-1,1v2C15,7.6,15.4,8,16,8z"/>
<path d="M13,8c0.6,0,1-0.4,1-1V5c0-0.6-0.4-1-1-1s-1,0.4-1,1v2C12,7.6,12.4,8,13,8z"/>
<path d="M8,8h2c0.6,0,1-0.4,1-1s-0.4-1-1-1H8C7.4,6,7,6.4,7,7S7.4,8,8,8z"/>
<path d="M19,16h-2c-0.6,0-1,0.4-1,1s0.4,1,1,1h2c0.6,0,1-0.4,1-1S19.6,16,19,16z"/>
<path d="M11,14c-0.6,0-1,0.4-1,1v2c0,0.6,0.4,1,1,1s1-0.4,1-1v-2C12,14.4,11.6,14,11,14z"/>
<path d="M8,14c-0.6,0-1,0.4-1,1v2c0,0.6,0.4,1,1,1s1-0.4,1-1v-2C9,14.4,8.6,14,8,14z"/>
<path d="M14,14c-0.6,0-1,0.4-1,1v2c0,0.6,0.4,1,1,1s1-0.4,1-1v-2C15,14.4,14.6,14,14,14z"/>
<path d="M5,14c-0.6,0-1,0.4-1,1v2c0,0.6,0.4,1,1,1s1-0.4,1-1v-2C6,14.4,5.6,14,5,14z"/>
<path d="M23,0H1C0.4,0,0,0.4,0,1v20c0,0.6,0.4,1,1,1h1v1c0,0.6,0.4,1,1,1s1-0.4,1-1v-1h16v1c0,0.6,0.4,1,1,1s1-0.4,1-1v-1h1
	c0.6,0,1-0.4,1-1V1C24,0.4,23.6,0,23,0z M22,2v8H2V2H22z M2,20v-8h20v8H2z"/>
</svg>
