<?xml version="1.0" encoding="utf-8"?>
<!-- Generator: Adobe Illustrator 19.1.0, SVG Export Plug-In . SVG Version: 6.00 Build 0)  -->
<!DOCTYPE svg PUBLIC "-//W3C//DTD SVG 1.1//EN" "http://www.w3.org/Graphics/SVG/1.1/DTD/svg11.dtd">
<svg version="1.1" id="Layer_1" xmlns="http://www.w3.org/2000/svg" xmlns:xlink="http://www.w3.org/1999/xlink" x="0px" y="0px"
	 width="24px" height="24px" viewBox="0 0 24 24" enable-background="new 0 0 24 24" xml:space="preserve">
<path d="M23,0H1C0.4,0,0,0.4,0,1v22c0,0.6,0.4,1,1,1h22c0.6,0,1-0.4,1-1V1C24,0.4,23.6,0,23,0z M22,22H2V2h20V22z"/>
<path d="M5,20h14c0.6,0,1-0.4,1-1V9c0-0.6-0.4-1-1-1H5C4.4,8,4,8.4,4,9v10C4,19.6,4.4,20,5,20z M6,10h12v8H6V10z"/>
<path d="M15,12c-0.6,0-1,0.4-1,1h-4c0-0.6-0.4-1-1-1s-1,0.4-1,1v1c0,0.6,0.4,1,1,1h6c0.6,0,1-0.4,1-1v-1C16,12.4,15.6,12,15,12z"/>
<path d="M5,6h2c0.6,0,1-0.4,1-1S7.6,4,7,4H5C4.4,4,4,4.4,4,5S4.4,6,5,6z"/>
<path d="M11,6h2c0.6,0,1-0.4,1-1s-0.4-1-1-1h-2c-0.6,0-1,0.4-1,1S10.4,6,11,6z"/>
<path d="M17,6h2c0.6,0,1-0.4,1-1s-0.4-1-1-1h-2c-0.6,0-1,0.4-1,1S16.4,6,17,6z"/>
</svg>
