<?xml version="1.0" encoding="utf-8"?>
<!-- Generator: Adobe Illustrator 19.1.0, SVG Export Plug-In . SVG Version: 6.00 Build 0)  -->
<!DOCTYPE svg PUBLIC "-//W3C//DTD SVG 1.1//EN" "http://www.w3.org/Graphics/SVG/1.1/DTD/svg11.dtd">
<svg version="1.1" id="Layer_1" xmlns="http://www.w3.org/2000/svg" xmlns:xlink="http://www.w3.org/1999/xlink" x="0px" y="0px"
	 width="24px" height="24px" viewBox="0 0 24 24" enable-background="new 0 0 24 24" xml:space="preserve">
<path d="M23.9,14.6L21,7.8V2c0-0.6-0.4-1-1-1H4C3.4,1,3,1.4,3,2v5.8l-2.9,6.8c0,0,0,0,0,0C0,14.7,0,14.9,0,15v7c0,0.6,0.4,1,1,1
	s1-0.4,1-1v-2h20v2c0,0.6,0.4,1,1,1s1-0.4,1-1v-7C24,14.9,24,14.7,23.9,14.6C23.9,14.6,23.9,14.6,23.9,14.6z M4.7,9h14.7l2.1,5h-19
	L4.7,9z M5,3h14v4H5V3z M2,18v-2h20v2H2z"/>
</svg>
