<?xml version="1.0" encoding="utf-8"?>
<!-- Generator: Adobe Illustrator 19.1.0, SVG Export Plug-In . SVG Version: 6.00 Build 0)  -->
<!DOCTYPE svg PUBLIC "-//W3C//DTD SVG 1.1//EN" "http://www.w3.org/Graphics/SVG/1.1/DTD/svg11.dtd">
<svg version="1.1" id="Layer_1" xmlns="http://www.w3.org/2000/svg" xmlns:xlink="http://www.w3.org/1999/xlink" x="0px" y="0px"
	 width="24px" height="24px" viewBox="0 0 24 24" enable-background="new 0 0 24 24" xml:space="preserve">
<path d="M21,0c-0.6,0-1,0.4-1,1v1H4V1c0-0.6-0.4-1-1-1S2,0.4,2,1v22c0,0.6,0.4,1,1,1s1-0.4,1-1v-1h16v1c0,0.6,0.4,1,1,1s1-0.4,1-1V1
	C22,0.4,21.6,0,21,0z M4,10h16v4H4V10z M20,4v4H4V4H20z M4,20v-4h16v4H4z"/>
</svg>
