<?xml version="1.0" encoding="utf-8"?>
<!-- Generator: Adobe Illustrator 19.1.0, SVG Export Plug-In . SVG Version: 6.00 Build 0)  -->
<!DOCTYPE svg PUBLIC "-//W3C//DTD SVG 1.1//EN" "http://www.w3.org/Graphics/SVG/1.1/DTD/svg11.dtd">
<svg version="1.1" id="Layer_1" xmlns="http://www.w3.org/2000/svg" xmlns:xlink="http://www.w3.org/1999/xlink" x="0px" y="0px"
	 width="24px" height="24px" viewBox="0 0 24 24" enable-background="new 0 0 24 24" xml:space="preserve">
<path d="M23,12H13c-0.6,0-1,0.4-1,1v5c0,3.3,2.7,6,6,6s6-2.7,6-6v-5C24,12.4,23.6,12,23,12z M22,18c0,2.2-1.8,4-4,4s-4-1.8-4-4v-4h8
	V18z"/>
<path d="M23,0H1C0.4,0,0,0.4,0,1v22c0,0.6,0.4,1,1,1h7c0.6,0,1-0.4,1-1L9,8h8v2c0,0.6,0.4,1,1,1s1-0.4,1-1V8h4c0.6,0,1-0.4,1-1V1
	C24,0.4,23.6,0,23,0z M22,6H8C7.7,6,7.5,6.1,7.3,6.3S7,6.7,7,7l0,15H2V2h20V6z"/>
</svg>
