<?xml version="1.0" encoding="utf-8"?>
<!-- Generator: Adobe Illustrator 19.1.0, SVG Export Plug-In . SVG Version: 6.00 Build 0)  -->
<!DOCTYPE svg PUBLIC "-//W3C//DTD SVG 1.1//EN" "http://www.w3.org/Graphics/SVG/1.1/DTD/svg11.dtd">
<svg version="1.1" id="Layer_1" xmlns="http://www.w3.org/2000/svg" xmlns:xlink="http://www.w3.org/1999/xlink" x="0px" y="0px"
	 width="24px" height="24px" viewBox="0 0 24 24" enable-background="new 0 0 24 24" xml:space="preserve">
<path d="M23,1H1C0.4,1,0,1.4,0,2v20c0,0.6,0.4,1,1,1s1-0.4,1-1v-1h20v1c0,0.6,0.4,1,1,1s1-0.4,1-1V2C24,1.4,23.6,1,23,1z M2,9h9v4H2
	V9z M13,9h9v4h-9V9z M22,7h-9V3h9V7z M11,3v4H2V3H11z M2,15h9v4H2V15z M13,19v-4h9v4H13z"/>
</svg>
