<?xml version="1.0" encoding="utf-8"?>
<!-- Generator: Adobe Illustrator 20.1.0, SVG Export Plug-In . SVG Version: 6.00 Build 0)  -->
<!DOCTYPE svg PUBLIC "-//W3C//DTD SVG 1.1//EN" "http://www.w3.org/Graphics/SVG/1.1/DTD/svg11.dtd">
<svg version="1.1" id="Layer_1" xmlns="http://www.w3.org/2000/svg" xmlns:xlink="http://www.w3.org/1999/xlink" x="0px" y="0px"
	 width="32px" height="32px" viewBox="0 0 32 32" enable-background="new 0 0 32 32" xml:space="preserve">
<path d="M10,32h22V0H10V32z M12,2h18v28H12V2z"/>
<rect x="17" y="7" width="8" height="2"/>
<rect x="17" y="12" width="8" height="2"/>
<path d="M21,17c-2.206,0-4,1.794-4,4s1.794,4,4,4s4-1.794,4-4S23.206,17,21,17z M21,23c-1.103,0-2-0.897-2-2s0.897-2,2-2
	s2,0.897,2,2S22.103,23,21,23z"/>
<rect x="3" y="26" width="5" height="2"/>
<polygon points="8,22 2,22 2,6 8,6 8,4 0,4 0,24 8,24 "/>
</svg>
