<?xml version="1.0" encoding="utf-8"?>
<!-- Generator: Adobe Illustrator 20.1.0, SVG Export Plug-In . SVG Version: 6.00 Build 0)  -->
<!DOCTYPE svg PUBLIC "-//W3C//DTD SVG 1.1//EN" "http://www.w3.org/Graphics/SVG/1.1/DTD/svg11.dtd">
<svg version="1.1" id="Layer_1" xmlns="http://www.w3.org/2000/svg" xmlns:xlink="http://www.w3.org/1999/xlink" x="0px" y="0px"
	 width="32px" height="32px" viewBox="0 0 32 32" enable-background="new 0 0 32 32" xml:space="preserve">
<path d="M2.171,24H14v-2H0v1c0,2.757,2.243,5,5,5h10v-2H5C3.696,26,2.584,25.164,2.171,24z"/>
<path d="M29,16V5c0-1.654-1.346-3-3-3H6C4.346,2,3,3.346,3,5v15h2V5c0-0.552,0.448-1,1-1h20c0.552,0,1,0.448,1,1v11H29z"/>
<path d="M28,22c0-3.309-2.691-6-6-6s-6,2.691-6,6s2.691,6,6,6c1.294,0,2.49-0.416,3.471-1.115l3.822,3.822l1.414-1.414l-3.822-3.822
	C27.584,24.49,28,23.294,28,22z M22,26c-2.206,0-4-1.794-4-4s1.794-4,4-4s4,1.794,4,4S24.206,26,22,26z"/>
<rect x="14" y="6" width="4" height="2"/>
</svg>
