<?xml version="1.0" encoding="utf-8"?>
<!-- Generator: Adobe Illustrator 20.1.0, SVG Export Plug-In . SVG Version: 6.00 Build 0)  -->
<!DOCTYPE svg PUBLIC "-//W3C//DTD SVG 1.1//EN" "http://www.w3.org/Graphics/SVG/1.1/DTD/svg11.dtd">
<svg version="1.1" id="Layer_1" xmlns="http://www.w3.org/2000/svg" xmlns:xlink="http://www.w3.org/1999/xlink" x="0px" y="0px"
	 width="32px" height="32px" viewBox="0 0 32 32" enable-background="new 0 0 32 32" xml:space="preserve">
<path d="M0,23c0,2.757,2.243,5,5,5h11v-2H5c-1.304,0-2.416-0.836-2.829-2H16v-2H0V23z"/>
<path d="M29,15V5c0-1.654-1.346-3-3-3H6C4.346,2,3,3.346,3,5v15h2V5c0-0.552,0.448-1,1-1h20c0.552,0,1,0.448,1,1v10H29z"/>
<rect x="14" y="6" width="4" height="2"/>
<path d="M29.167,21.247l1.489-1.489l-1.414-1.414l-1.489,1.489c-0.524-0.348-1.116-0.602-1.753-0.732V17h-2v2.101
	c-0.637,0.13-1.229,0.384-1.753,0.732l-1.489-1.489l-1.414,1.414l1.489,1.489c-0.348,0.524-0.602,1.116-0.732,1.753H18v2h2.101
	c0.13,0.637,0.384,1.229,0.732,1.753l-1.489,1.489l1.414,1.414l1.489-1.489c0.524,0.348,1.116,0.602,1.753,0.732V31h2v-2.101
	c0.637-0.13,1.229-0.384,1.753-0.732l1.489,1.489l1.414-1.414l-1.489-1.489c0.348-0.524,0.602-1.116,0.732-1.753H32v-2h-2.101
	C29.769,22.363,29.515,21.771,29.167,21.247z M28,24c0,1.654-1.346,3-3,3s-3-1.346-3-3s1.346-3,3-3S28,22.346,28,24z"/>
</svg>
