<?xml version="1.0" encoding="utf-8"?>
<!-- Generator: Adobe Illustrator 20.1.0, SVG Export Plug-In . SVG Version: 6.00 Build 0)  -->
<!DOCTYPE svg PUBLIC "-//W3C//DTD SVG 1.1//EN" "http://www.w3.org/Graphics/SVG/1.1/DTD/svg11.dtd">
<svg version="1.1" id="Layer_1" xmlns="http://www.w3.org/2000/svg" xmlns:xlink="http://www.w3.org/1999/xlink" x="0px" y="0px"
	 width="32px" height="32px" viewBox="0 0 32 32" enable-background="new 0 0 32 32" xml:space="preserve">
<path d="M22,6H10C4.486,6,0,10.486,0,16s4.486,10,10,10h12c5.514,0,10-4.486,10-10S27.514,6,22,6z M2,16c0-4.411,3.589-8,8-8h9.551
	c-2.776,1.989-3.687,4.979-4.508,7.711c-1.104,3.672-2.068,6.846-6.927,8.056C4.612,22.916,2,19.761,2,16z M22,24h-9.552
	c2.778-1.989,3.689-4.98,4.51-7.713c1.103-3.67,2.067-6.843,6.924-8.054C27.386,9.082,30,12.238,30,16C30,20.411,26.411,24,22,24z"
	/>
</svg>
