<?xml version="1.0" encoding="utf-8"?>
<!-- Generator: Adobe Illustrator 20.1.0, SVG Export Plug-In . SVG Version: 6.00 Build 0)  -->
<!DOCTYPE svg PUBLIC "-//W3C//DTD SVG 1.1//EN" "http://www.w3.org/Graphics/SVG/1.1/DTD/svg11.dtd">
<svg version="1.1" id="Layer_1" xmlns="http://www.w3.org/2000/svg" xmlns:xlink="http://www.w3.org/1999/xlink" x="0px" y="0px"
	 width="32px" height="32px" viewBox="0 0 32 32" enable-background="new 0 0 32 32" xml:space="preserve">
<path d="M29,1H3C1.346,1,0,2.346,0,4v14v2v3c0,1.654,1.346,3,3,3h9v3H8v2h4h2h4h2h4v-2h-4v-3h9c1.654,0,3-1.346,3-3v-3v-2V4
	C32,2.346,30.654,1,29,1z M18,29h-4v-3h4V29z M30,23c0,0.551-0.449,1-1,1h-9h-2h-4h-2H3c-0.551,0-1-0.449-1-1v-3h28V23z M2,18V4
	c0-0.551,0.449-1,1-1h26c0.551,0,1,0.449,1,1v14H2z"/>
<rect x="14" y="5" width="4" height="2"/>
</svg>
