<?xml version="1.0" encoding="utf-8"?>
<!-- Generator: Adobe Illustrator 20.1.0, SVG Export Plug-In . SVG Version: 6.00 Build 0)  -->
<!DOCTYPE svg PUBLIC "-//W3C//DTD SVG 1.1//EN" "http://www.w3.org/Graphics/SVG/1.1/DTD/svg11.dtd">
<svg version="1.1" id="Layer_1" xmlns="http://www.w3.org/2000/svg" xmlns:xlink="http://www.w3.org/1999/xlink" x="0px" y="0px"
	 width="32px" height="32px" viewBox="0 0 32 32" enable-background="new 0 0 32 32" xml:space="preserve">
<path d="M0,23v1c0,2.757,2.243,5,5,5h22c2.757,0,5-2.243,5-5v-1H0z M27,27H5c-1.304,0-2.416-0.836-2.829-2h27.658
	C29.416,26.164,28.304,27,27,27z"/>
<path d="M5,6c0-0.551,0.448-1,1-1h20c0.552,0,1,0.449,1,1v15h2V6c0-1.654-1.346-3-3-3H6C4.346,3,3,4.346,3,6v15h2V6z"/>
<rect x="14" y="7" width="4" height="2"/>
</svg>
