<?xml version="1.0" encoding="utf-8"?>
<!-- Generator: Adobe Illustrator 20.1.0, SVG Export Plug-In . SVG Version: 6.00 Build 0)  -->
<!DOCTYPE svg PUBLIC "-//W3C//DTD SVG 1.1//EN" "http://www.w3.org/Graphics/SVG/1.1/DTD/svg11.dtd">
<svg version="1.1" id="Layer_1" xmlns="http://www.w3.org/2000/svg" xmlns:xlink="http://www.w3.org/1999/xlink" x="0px" y="0px"
	 width="32px" height="32px" viewBox="0 0 32 32" enable-background="new 0 0 32 32" xml:space="preserve">
<path d="M3,32h12c1.654,0,3-1.346,3-3v-3v-2V11V9V8c0-1.654-1.346-3-3-3H3C1.346,5,0,6.346,0,8v1v2v13v2v3C0,30.654,1.346,32,3,32z
	 M2,8c0-0.551,0.448-1,1-1h12c0.552,0,1,0.449,1,1v1H2V8z M2,11h14v13H2V11z M16,26v3c0,0.551-0.448,1-1,1H3c-0.552,0-1-0.449-1-1
	v-3H16z"/>
<path d="M31,14c0-2.414-1.721-4.434-4-4.899V0H8v4h2V2h15v7.101c-2.279,0.465-4,2.484-4,4.899v2h-1v2h1h1v3h2v-3h4v3h2v-3h1h1v-2h-1
	V14z M24,16h-1v-2c0-1.654,1.346-3,3-3s3,1.346,3,3v2h-1H24z"/>
</svg>
