<?xml version="1.0" encoding="utf-8"?>
<!-- Generator: Adobe Illustrator 20.1.0, SVG Export Plug-In . SVG Version: 6.00 Build 0)  -->
<!DOCTYPE svg PUBLIC "-//W3C//DTD SVG 1.1//EN" "http://www.w3.org/Graphics/SVG/1.1/DTD/svg11.dtd">
<svg version="1.1" id="Layer_1" xmlns="http://www.w3.org/2000/svg" xmlns:xlink="http://www.w3.org/1999/xlink" x="0px" y="0px"
	 width="32px" height="32px" viewBox="0 0 32 32" enable-background="new 0 0 32 32" xml:space="preserve">
<path d="M21,4h-7v2h7v6h-3v2h3h2h7v6h-7h-2h-3v2h3v6h-7v-4h-2v4H5v-4H3v6h9h2h7h2h9v-8v-2v-6v-2V4h-9H21z M30,28h-7v-6h7V28z M30,6
	v6h-7V6H30z"/>
<path d="M16,15C16,9.686,9.048,1.68,8.752,1.342L8,0.481l-0.752,0.86C6.952,1.68,0,9.686,0,15c0,4.411,3.589,8,8,8S16,19.411,16,15z
	 M2,15c0-3.354,3.82-8.759,6-11.444c2.18,2.686,6,8.09,6,11.444c0,3.309-2.691,6-6,6S2,18.309,2,15z"/>
<path d="M11,15c0-1.322-1.168-3.503-2.147-5.1L8,8.512L7.147,9.9C6.168,11.497,5,13.678,5,15c0,1.654,1.346,3,3,3S11,16.654,11,15z
	 M7,15c0-0.295,0.23-1.123,1-2.571C8.77,13.877,9,14.705,9,15c0,0.552-0.449,1-1,1S7,15.552,7,15z"/>
</svg>
