<?xml version="1.0" encoding="utf-8"?>
<!-- Generator: Adobe Illustrator 20.1.0, SVG Export Plug-In . SVG Version: 6.00 Build 0)  -->
<!DOCTYPE svg PUBLIC "-//W3C//DTD SVG 1.1//EN" "http://www.w3.org/Graphics/SVG/1.1/DTD/svg11.dtd">
<svg version="1.1" id="Layer_1" xmlns="http://www.w3.org/2000/svg" xmlns:xlink="http://www.w3.org/1999/xlink" x="0px" y="0px"
	 width="32px" height="32px" viewBox="0 0 32 32" enable-background="new 0 0 32 32" xml:space="preserve">
<path d="M7,13c-1.654,0-3,1.346-3,3s1.346,3,3,3s3-1.346,3-3S8.654,13,7,13z M7,17c-0.552,0-1-0.449-1-1s0.448-1,1-1s1,0.449,1,1
	S7.552,17,7,17z"/>
<path d="M29,5H3C1.346,5,0,6.346,0,8v16c0,1.654,1.346,3,3,3h26c1.654,0,3-1.346,3-3V8C32,6.346,30.654,5,29,5z M30,24
	c0,0.551-0.448,1-1,1H3c-0.552,0-1-0.449-1-1V8c0-0.551,0.448-1,1-1h26c0.552,0,1,0.449,1,1V24z"/>
</svg>
