<?xml version="1.0" encoding="utf-8"?>
<!-- Generator: Adobe Illustrator 20.1.0, SVG Export Plug-In . SVG Version: 6.00 Build 0)  -->
<!DOCTYPE svg PUBLIC "-//W3C//DTD SVG 1.1//EN" "http://www.w3.org/Graphics/SVG/1.1/DTD/svg11.dtd">
<svg version="1.1" id="Layer_1" xmlns="http://www.w3.org/2000/svg" xmlns:xlink="http://www.w3.org/1999/xlink" x="0px" y="0px"
	 width="32px" height="32px" viewBox="0 0 32 32" enable-background="new 0 0 32 32" xml:space="preserve">
<path d="M6,8c-1.654,0-3,1.346-3,3v18c0,1.654,1.346,3,3,3h12c1.654,0,3-1.346,3-3V11c0-1.654-1.346-3-3-3H6z M19,11v18
	c0,0.551-0.449,1-1,1H6c-0.551,0-1-0.449-1-1V11c0-0.551,0.449-1,1-1h12C18.551,10,19,10.449,19,11z"/>
<path d="M18,6h1c2.206,0,4,1.794,4,4v1h2v-1c0-3.309-2.691-6-6-6h-1V6z"/>
<path d="M29,11v-1c0-5.514-4.486-10-10-10h-1v2h1c4.411,0,8,3.589,8,8v1H29z"/>
<path d="M7,27h10V12H7V27z M9,14h6v11H9V14z"/>
</svg>
