<?xml version="1.0" encoding="utf-8"?>
<!-- Generator: Adobe Illustrator 20.1.0, SVG Export Plug-In . SVG Version: 6.00 Build 0)  -->
<!DOCTYPE svg PUBLIC "-//W3C//DTD SVG 1.1//EN" "http://www.w3.org/Graphics/SVG/1.1/DTD/svg11.dtd">
<svg version="1.1" id="Layer_1" xmlns="http://www.w3.org/2000/svg" xmlns:xlink="http://www.w3.org/1999/xlink" x="0px" y="0px"
	 width="32px" height="32px" viewBox="0 0 32 32" enable-background="new 0 0 32 32" xml:space="preserve">
<path d="M28,2H4C1.794,2,0,3.794,0,6v20c0,2.206,1.794,4,4,4h24c2.206,0,4-1.794,4-4V6C32,3.794,30.206,2,28,2z M30,26
	c0,1.103-0.897,2-2,2H4c-1.103,0-2-0.897-2-2V6c0-1.103,0.897-2,2-2h24c1.103,0,2,0.897,2,2V26z"/>
<path d="M4,26h24V6H4V26z M6,8h20v16H6V8z"/>
<path d="M12,21.869L20.803,16L12,10.131V21.869z M14,13.869L17.197,16L14,18.131V13.869z"/>
</svg>
