<?xml version="1.0" encoding="utf-8"?>
<!-- Generator: Adobe Illustrator 20.1.0, SVG Export Plug-In . SVG Version: 6.00 Build 0)  -->
<!DOCTYPE svg PUBLIC "-//W3C//DTD SVG 1.1//EN" "http://www.w3.org/Graphics/SVG/1.1/DTD/svg11.dtd">
<svg version="1.1" id="Layer_1" xmlns="http://www.w3.org/2000/svg" xmlns:xlink="http://www.w3.org/1999/xlink" x="0px" y="0px"
	 width="32px" height="32px" viewBox="0 0 32 32" enable-background="new 0 0 32 32" xml:space="preserve">
<path d="M16,0C7.178,0,0,7.178,0,16s7.178,16,16,16s16-7.178,16-16S24.822,0,16,0z M16,30C8.28,30,2,23.72,2,16S8.28,2,16,2
	s14,6.28,14,14S23.72,30,16,30z"/>
<path d="M13.295,6.318l-0.728-1.863l-0.931,0.364C8.521,6.035,6.035,8.52,4.818,11.636l-0.363,0.932l1.862,0.728l0.364-0.932
	c1.015-2.597,3.085-4.668,5.682-5.682L13.295,6.318z"/>
<path d="M16,11c-2.757,0-5,2.243-5,5s2.243,5,5,5s5-2.243,5-5S18.757,11,16,11z M16,19c-1.654,0-3-1.346-3-3s1.346-3,3-3
	s3,1.346,3,3S17.654,19,16,19z"/>
</svg>
