<?xml version="1.0" encoding="utf-8"?>
<!-- Generator: Adobe Illustrator 20.1.0, SVG Export Plug-In . SVG Version: 6.00 Build 0)  -->
<!DOCTYPE svg PUBLIC "-//W3C//DTD SVG 1.1//EN" "http://www.w3.org/Graphics/SVG/1.1/DTD/svg11.dtd">
<svg version="1.1" id="Layer_1" xmlns="http://www.w3.org/2000/svg" xmlns:xlink="http://www.w3.org/1999/xlink" x="0px" y="0px"
	 width="32px" height="32px" viewBox="0 0 32 32" enable-background="new 0 0 32 32" xml:space="preserve">
<path d="M3,20h26V0H3V20z M5,2h22v16H5V2z"/>
<path d="M28,22H4c-2.206,0-4,1.794-4,4v6h32v-6C32,23.794,30.206,22,28,22z M30,30H2v-4c0-1.103,0.897-2,2-2h24c1.103,0,2,0.897,2,2
	V30z"/>
<path d="M7,16h18V4H7V16z M9,6h14v8H9V6z"/>
<rect x="5" y="26" width="4" height="2"/>
<rect x="17" y="26" width="10" height="2"/>
</svg>
