<?xml version="1.0" encoding="utf-8"?>
<!-- Generator: Adobe Illustrator 20.1.0, SVG Export Plug-In . SVG Version: 6.00 Build 0)  -->
<!DOCTYPE svg PUBLIC "-//W3C//DTD SVG 1.1//EN" "http://www.w3.org/Graphics/SVG/1.1/DTD/svg11.dtd">
<svg version="1.1" id="Layer_1" xmlns="http://www.w3.org/2000/svg" xmlns:xlink="http://www.w3.org/1999/xlink" x="0px" y="0px"
	 width="32px" height="32px" viewBox="0 0 32 32" enable-background="new 0 0 32 32" xml:space="preserve">
<path d="M4,13c0,1.654,1.346,3,3,3s3-1.346,3-3s-1.346-3-3-3S4,11.346,4,13z M8,13c0,0.551-0.449,1-1,1s-1-0.449-1-1s0.449-1,1-1
	S8,12.449,8,13z"/>
<path d="M29,2H3C1.346,2,0,3.346,0,5v16c0,1.654,1.346,3,3,3h11v-2H3c-0.551,0-1-0.449-1-1V5c0-0.551,0.449-1,1-1h26
	c0.551,0,1,0.449,1,1v17h2V5C32,3.346,30.654,2,29,2z"/>
<path d="M22,15c-2.206,0-4,1.794-4,4v2h-2v9h12v-9h-2v-2C26,16.794,24.206,15,22,15z M20,19c0-1.103,0.897-2,2-2s2,0.897,2,2v2h-4
	V19z M26,28h-8v-5h2h4h2V28z"/>
</svg>
