<?xml version="1.0" encoding="utf-8"?>
<!-- Generator: Adobe Illustrator 20.1.0, SVG Export Plug-In . SVG Version: 6.00 Build 0)  -->
<!DOCTYPE svg PUBLIC "-//W3C//DTD SVG 1.1//EN" "http://www.w3.org/Graphics/SVG/1.1/DTD/svg11.dtd">
<svg version="1.1" id="Layer_1" xmlns="http://www.w3.org/2000/svg" xmlns:xlink="http://www.w3.org/1999/xlink" x="0px" y="0px"
	 width="32px" height="32px" viewBox="0 0 32 32" enable-background="new 0 0 32 32" xml:space="preserve">
<path d="M5,27h13v-2H5c-1.304,0-2.416-0.836-2.829-2H18v-2H0v1C0,24.757,2.243,27,5,27z"/>
<path d="M29,15V4c0-1.654-1.346-3-3-3H6C4.346,1,3,2.346,3,4v15h2V4c0-0.552,0.449-1,1-1h20c0.551,0,1,0.448,1,1v11H29z"/>
<rect x="14" y="5" width="4" height="2"/>
<path d="M30,21c0-2.206-1.794-4-4-4s-4,1.794-4,4v2h-2v9h12v-9h-2V21z M24,21c0-1.103,0.897-2,2-2s2,0.897,2,2v2h-4V21z M30,30h-8
	v-5h2h4h2V30z"/>
</svg>
