<?xml version="1.0" encoding="utf-8"?>
<!-- Generator: Adobe Illustrator 20.1.0, SVG Export Plug-In . SVG Version: 6.00 Build 0)  -->
<!DOCTYPE svg PUBLIC "-//W3C//DTD SVG 1.1//EN" "http://www.w3.org/Graphics/SVG/1.1/DTD/svg11.dtd">
<svg version="1.1" id="Layer_1" xmlns="http://www.w3.org/2000/svg" xmlns:xlink="http://www.w3.org/1999/xlink" x="0px" y="0px"
	 width="32px" height="32px" viewBox="0 0 32 32" enable-background="new 0 0 32 32" xml:space="preserve">
<path d="M9,25c0,1.654,1.346,3,3,3s3-1.346,3-3s-1.346-3-3-3S9,23.346,9,25z M13,25c0,0.552-0.448,1-1,1s-1-0.448-1-1s0.448-1,1-1
	S13,24.448,13,25z"/>
<path d="M23,18V3c0-1.654-1.346-3-3-3H4C2.346,0,1,1.346,1,3v26c0,1.654,1.346,3,3,3h13v-2H4c-0.552,0-1-0.448-1-1V3
	c0-0.551,0.448-1,1-1h16c0.552,0,1,0.449,1,1v15H23z"/>
<path d="M28,24c1.654,0,3-1.346,3-3s-1.346-3-3-3s-3,1.346-3,3c0,0.147,0.023,0.289,0.044,0.431L22.8,22.615
	C22.297,22.234,21.678,22,21,22c-1.654,0-3,1.346-3,3s1.346,3,3,3c0.678,0,1.297-0.234,1.8-0.615l2.244,1.184
	C25.023,28.711,25,28.853,25,29c0,1.654,1.346,3,3,3s3-1.346,3-3s-1.346-3-3-3c-0.782,0-1.489,0.308-2.023,0.8l-2.07-1.093
	C23.962,25.479,24,25.245,24,25s-0.038-0.479-0.093-0.707l2.07-1.093C26.511,23.692,27.218,24,28,24z M28,20c0.552,0,1,0.448,1,1
	s-0.448,1-1,1s-1-0.448-1-1S27.448,20,28,20z M21,26c-0.552,0-1-0.448-1-1s0.448-1,1-1s1,0.448,1,1S21.552,26,21,26z M28,28
	c0.552,0,1,0.448,1,1s-0.448,1-1,1s-1-0.448-1-1S27.448,28,28,28z"/>
</svg>
