<?xml version="1.0" encoding="utf-8"?>
<!-- Generator: Adobe Illustrator 20.1.0, SVG Export Plug-In . SVG Version: 6.00 Build 0)  -->
<!DOCTYPE svg PUBLIC "-//W3C//DTD SVG 1.1//EN" "http://www.w3.org/Graphics/SVG/1.1/DTD/svg11.dtd">
<svg version="1.1" id="Layer_1" xmlns="http://www.w3.org/2000/svg" xmlns:xlink="http://www.w3.org/1999/xlink" x="0px" y="0px"
	 width="32px" height="32px" viewBox="0 0 32 32" enable-background="new 0 0 32 32" xml:space="preserve">
<path d="M3,20h9c1.654,0,3-1.346,3-3v-3v-2V6V4V3c0-1.654-1.346-3-3-3H3C1.346,0,0,1.346,0,3v1v2v6v2v3C0,18.654,1.346,20,3,20z
	 M2,3c0-0.551,0.449-1,1-1h9c0.551,0,1,0.449,1,1v1H2V3z M2,6h11v6H2V6z M13,14v3c0,0.551-0.449,1-1,1H3c-0.551,0-1-0.449-1-1v-3H13
	z"/>
<path d="M29,12h-9c-1.654,0-3,1.346-3,3v1v2v6v2v3c0,1.654,1.346,3,3,3h9c1.654,0,3-1.346,3-3v-3v-2v-6v-2v-1
	C32,13.346,30.654,12,29,12z M30,29c0,0.551-0.449,1-1,1h-9c-0.551,0-1-0.449-1-1v-3h11V29z M30,24H19v-6h11V24z M19,16v-1
	c0-0.551,0.449-1,1-1h9c0.551,0,1,0.449,1,1v1H19z"/>
<path d="M28,10V9c0-4.962-4.038-9-9-9h-1v2h1c3.86,0,7,3.14,7,7v1H28z"/>
<path d="M4,22v1c0,4.962,4.038,9,9,9h1v-2h-1c-3.86,0-7-3.14-7-7v-1H4z"/>
<rect x="6" y="15" width="3" height="2"/>
<rect x="23" y="27" width="3" height="2"/>
</svg>
