<?xml version="1.0" encoding="utf-8"?>
<!-- Generator: Adobe Illustrator 20.1.0, SVG Export Plug-In . SVG Version: 6.00 Build 0)  -->
<!DOCTYPE svg PUBLIC "-//W3C//DTD SVG 1.1//EN" "http://www.w3.org/Graphics/SVG/1.1/DTD/svg11.dtd">
<svg version="1.1" id="Layer_1" xmlns="http://www.w3.org/2000/svg" xmlns:xlink="http://www.w3.org/1999/xlink" x="0px" y="0px"
	 width="32px" height="32px" viewBox="0 0 32 32" enable-background="new 0 0 32 32" xml:space="preserve">
<path d="M24,7H8c-4.411,0-8,3.589-8,8v10h7v7h18v-7h7V15C32,10.589,28.411,7,24,7z M23,30H9v-5v-2v-5h14v5v2V30z M30,23h-5v-7H7v7H2
	v-8c0-3.309,2.691-6,6-6h16c3.309,0,6,2.691,6,6V23z"/>
<polygon points="25,5 25,0 7,0 7,5 9,5 9,2 23,2 23,5 "/>
<rect x="21" y="12" width="4" height="2"/>
<rect x="11" y="21" width="10" height="2"/>
<rect x="11" y="25" width="10" height="2"/>
</svg>
