<?xml version="1.0" encoding="utf-8"?>
<!-- Generator: Adobe Illustrator 20.1.0, SVG Export Plug-In . SVG Version: 6.00 Build 0)  -->
<!DOCTYPE svg PUBLIC "-//W3C//DTD SVG 1.1//EN" "http://www.w3.org/Graphics/SVG/1.1/DTD/svg11.dtd">
<svg version="1.1" id="Layer_1" xmlns="http://www.w3.org/2000/svg" xmlns:xlink="http://www.w3.org/1999/xlink" x="0px" y="0px"
	 width="32px" height="32px" viewBox="0 0 32 32" enable-background="new 0 0 32 32" xml:space="preserve">
<path d="M0,26h15v2.018c-4.049,0.128-8.028,0.966-8.208,1.004L5.813,29.23l0.417,1.956l0.978-0.208C7.254,30.968,11.841,30,16,30
	c4.152,0,8.746,0.968,8.792,0.978l0.978,0.208l0.417-1.956l-0.978-0.208c-0.18-0.038-4.16-0.876-8.208-1.004V26h15V1H0V26z M2,3h28
	v21H17h-2H2V3z"/>
<rect x="14" y="20" width="4" height="2"/>
</svg>
