<?xml version="1.0" encoding="utf-8"?>
<!-- Generator: Adobe Illustrator 20.1.0, SVG Export Plug-In . SVG Version: 6.00 Build 0)  -->
<!DOCTYPE svg PUBLIC "-//W3C//DTD SVG 1.1//EN" "http://www.w3.org/Graphics/SVG/1.1/DTD/svg11.dtd">
<svg version="1.1" id="Layer_1" xmlns="http://www.w3.org/2000/svg" xmlns:xlink="http://www.w3.org/1999/xlink" x="0px" y="0px"
	 width="32px" height="32px" viewBox="0 0 32 32" enable-background="new 0 0 32 32" xml:space="preserve">
<path d="M10,25c0,1.654,1.346,3,3,3s3-1.346,3-3s-1.346-3-3-3S10,23.346,10,25z M14,25c0,0.552-0.448,1-1,1s-1-0.448-1-1
	s0.448-1,1-1S14,24.448,14,25z"/>
<path d="M21,0H5C3.346,0,2,1.346,2,3v26c0,1.654,1.346,3,3,3h11v-2H5c-0.552,0-1-0.448-1-1V3c0-0.551,0.448-1,1-1h16
	c0.552,0,1,0.449,1,1v13h2V3C24,1.346,22.654,0,21,0z"/>
<path d="M31,25h-2c0,2.206-1.794,4-4,4c-1.023,0-2.039-0.419-2.794-1.146L24,26h-5v5.166l1.814-1.874C21.939,30.377,23.462,31,25,31
	C28.309,31,31,28.309,31,25z"/>
<path d="M31,17.834l-1.815,1.875C28.05,18.607,26.565,18,25,18c-3.309,0-6,2.691-6,6h2c0-2.206,1.794-4,4-4
	c1.043,0,2.034,0.407,2.794,1.146L26,23h5V17.834z"/>
</svg>
