<?xml version="1.0" encoding="utf-8"?>
<!-- Generator: Adobe Illustrator 20.1.0, SVG Export Plug-In . SVG Version: 6.00 Build 0)  -->
<!DOCTYPE svg PUBLIC "-//W3C//DTD SVG 1.1//EN" "http://www.w3.org/Graphics/SVG/1.1/DTD/svg11.dtd">
<svg version="1.1" id="Layer_1" xmlns="http://www.w3.org/2000/svg" xmlns:xlink="http://www.w3.org/1999/xlink" x="0px" y="0px"
	 width="32px" height="32px" viewBox="0 0 32 32" enable-background="new 0 0 32 32" xml:space="preserve">
<path d="M29.145,13.279c-0.524-2.626-2.845-4.533-5.518-4.533c-1.504,0-2.917,0.587-3.98,1.652L19.046,11h-6.093l-0.601-0.602
	c-1.062-1.065-2.476-1.652-3.98-1.652c-2.673,0-4.994,1.906-5.518,4.533L0.049,27.342c-0.2,0.998,0.228,1.993,1.088,2.535
	c0.859,0.54,1.938,0.496,2.75-0.114l4.288-3.224C8.725,26.824,9.339,27,10,27c1.858,0,3.411-1.28,3.858-3h4.284
	c0.447,1.72,2,3,3.858,3c0.663,0,1.279-0.177,1.83-0.464l4.283,3.226c0.434,0.326,0.944,0.491,1.456,0.491
	c0.446,0,0.894-0.125,1.293-0.376c0.861-0.542,1.288-1.537,1.088-2.535L29.145,13.279z M10,25c-1.103,0-2-0.897-2-2s0.897-2,2-2
	s2,0.897,2,2S11.103,25,10,25z M20,23c0-1.103,0.897-2,2-2s2,0.897,2,2s-0.897,2-2,2S20,24.103,20,23z M29.797,28.184
	c-0.092,0.058-0.277,0.134-0.481-0.02l-3.967-2.989C25.757,24.548,26,23.803,26,23c0-2.206-1.794-4-4-4c-1.858,0-3.411,1.28-3.858,3
	h-4.284c-0.447-1.72-2-3-3.858-3c-2.206,0-4,1.794-4,4c0,0.805,0.244,1.552,0.654,2.18l-3.969,2.984
	c-0.204,0.153-0.39,0.078-0.482,0.02c-0.094-0.059-0.244-0.196-0.193-0.45L4.816,13.67c0.338-1.694,1.834-2.924,3.557-2.924
	c0.969,0,1.879,0.378,2.564,1.065L12.124,13h7.753l1.187-1.189c0.685-0.687,1.595-1.064,2.564-1.064c1.723,0,3.219,1.23,3.557,2.924
	l2.806,14.063C30.041,27.988,29.891,28.125,29.797,28.184z"/>
<rect x="15" y="1" width="2" height="8"/>
</svg>
