<?xml version="1.0" encoding="utf-8"?>
<!-- Generator: Adobe Illustrator 20.1.0, SVG Export Plug-In . SVG Version: 6.00 Build 0)  -->
<!DOCTYPE svg PUBLIC "-//W3C//DTD SVG 1.1//EN" "http://www.w3.org/Graphics/SVG/1.1/DTD/svg11.dtd">
<svg version="1.1" id="Layer_1" xmlns="http://www.w3.org/2000/svg" xmlns:xlink="http://www.w3.org/1999/xlink" x="0px" y="0px"
	 width="32px" height="32px" viewBox="0 0 32 32" enable-background="new 0 0 32 32" xml:space="preserve">
<path d="M30,11c0-6.065-4.935-11-11-11h-6C6.935,0,2,4.935,2,11v7.034c-1.246,1.479-2,3.385-2,5.466C0,28.187,3.813,32,8.5,32
	c0.569,0,1.141-0.057,1.698-0.17L11,31.667V15.333l-0.802-0.162C9.641,15.057,9.069,15,8.5,15c-1.653,0-3.193,0.482-4.5,1.302V11
	c0-4.962,4.037-9,9-9h6c4.963,0,9,4.038,9,9v5.302C26.693,15.482,25.153,15,23.5,15c-0.569,0-1.141,0.057-1.698,0.17L21,15.333
	v16.335l0.802,0.162C22.359,31.943,22.931,32,23.5,32c4.687,0,8.5-3.813,8.5-8.5c0-2.081-0.754-3.987-2-5.466V11z M2,23.5
	c0-2.295,1.199-4.312,3-5.468v10.937C3.199,27.812,2,25.795,2,23.5z M9,17.019v12.962C8.834,29.994,8.667,30,8.5,30
	c-0.517,0-1.018-0.067-1.5-0.182V17.182C7.482,17.067,7.983,17,8.5,17C8.667,17,8.834,17.006,9,17.019z M23,29.981V17.019
	C23.166,17.006,23.333,17,23.5,17c0.517,0,1.018,0.067,1.5,0.182v12.637C24.518,29.933,24.017,30,23.5,30
	C23.333,30,23.166,29.994,23,29.981z M27,28.968V18.032c1.801,1.157,3,3.173,3,5.468S28.801,27.812,27,28.968z"/>
</svg>
