<?xml version="1.0" encoding="utf-8"?>
<!-- Generator: Adobe Illustrator 20.1.0, SVG Export Plug-In . SVG Version: 6.00 Build 0)  -->
<!DOCTYPE svg PUBLIC "-//W3C//DTD SVG 1.1//EN" "http://www.w3.org/Graphics/SVG/1.1/DTD/svg11.dtd">
<svg version="1.1" id="Layer_1" xmlns="http://www.w3.org/2000/svg" xmlns:xlink="http://www.w3.org/1999/xlink" x="0px" y="0px"
	 width="32px" height="32px" viewBox="0 0 32 32" enable-background="new 0 0 32 32" xml:space="preserve">
<path d="M12,5h-2V0H2v5H0v16h12V5z M4,2h4v3H4V2z M10,19H2V7h2h4h2V19z"/>
<polygon points="25,30 7,30 7,23 5,23 5,32 27,32 27,23 25,23 "/>
<path d="M30,0h-8v5h-2v16h12V5h-2V0z M24,2h4v3h-4V2z M30,19h-8V7h2h4h2V19z"/>
</svg>
