<?xml version="1.0" encoding="utf-8"?>
<!-- Generator: Adobe Illustrator 20.1.0, SVG Export Plug-In . SVG Version: 6.00 Build 0)  -->
<!DOCTYPE svg PUBLIC "-//W3C//DTD SVG 1.1//EN" "http://www.w3.org/Graphics/SVG/1.1/DTD/svg11.dtd">
<svg version="1.1" id="Layer_1" xmlns="http://www.w3.org/2000/svg" xmlns:xlink="http://www.w3.org/1999/xlink" x="0px" y="0px"
	 width="32px" height="32px" viewBox="0 0 32 32" enable-background="new 0 0 32 32" xml:space="preserve">
<path d="M25,18c-3.309,0-6,2.691-6,6h2c0-2.206,1.794-4,4-4c1.043,0,2.034,0.407,2.794,1.146L26,23h5v-5.166l-1.815,1.875
	C28.05,18.607,26.565,18,25,18z"/>
<path d="M25,29c-1.023,0-2.039-0.419-2.794-1.146L24,26h-5v5.166l1.814-1.874C21.939,30.377,23.462,31,25,31c3.309,0,6-2.691,6-6h-2
	C29,27.206,27.206,29,25,29z"/>
<path d="M0,23c0,2.757,2.243,5,5,5h12v-2H5c-1.304,0-2.416-0.836-2.829-2H17v-2H0V23z"/>
<path d="M29,16V5c0-1.654-1.346-3-3-3H6C4.346,2,3,3.346,3,5v15h2V5c0-0.552,0.448-1,1-1h20c0.552,0,1,0.448,1,1v11H29z"/>
<rect x="14" y="6" width="4" height="2"/>
</svg>
