<?xml version="1.0" encoding="utf-8"?>
<!-- Generator: Adobe Illustrator 19.2.1, SVG Export Plug-In . SVG Version: 6.00 Build 0)  -->
<!DOCTYPE svg PUBLIC "-//W3C//DTD SVG 1.1//EN" "http://www.w3.org/Graphics/SVG/1.1/DTD/svg11.dtd">
<svg version="1.1" id="Layer_1" xmlns="http://www.w3.org/2000/svg" xmlns:xlink="http://www.w3.org/1999/xlink" x="0px" y="0px"
	 width="32px" height="32px" viewBox="0 0 32 32" enable-background="new 0 0 32 32" xml:space="preserve">
<path d="M31,5h-2v3h-2V5h-2v3h-1v3c0,1.858,1.28,3.411,3,3.858V21.5c0,1.378-1.122,2.5-2.5,2.5S22,22.878,22,21.5V21V5
	c0-1.654-1.346-3-3-3H3C1.346,2,0,3.346,0,5v24c0,0.552,0.448,1,1,1h20c0.552,0,1-0.448,1-1v-3.762C22.716,25.718,23.575,26,24.5,26
	c2.481,0,4.5-2.019,4.5-4.5v-6.642c1.72-0.447,3-2,3-3.858V8h-1V5z M17,14c0,0.552-0.448,1-1,1H6c-0.552,0-1-0.448-1-1V8
	c0-0.552,0.448-1,1-1h10c0.552,0,1,0.448,1,1V14z"/>
</svg>
