<?xml version="1.0" encoding="utf-8"?>
<!-- Generator: Adobe Illustrator 19.2.1, SVG Export Plug-In . SVG Version: 6.00 Build 0)  -->
<!DOCTYPE svg PUBLIC "-//W3C//DTD SVG 1.1//EN" "http://www.w3.org/Graphics/SVG/1.1/DTD/svg11.dtd">
<svg version="1.1" id="Layer_1" xmlns="http://www.w3.org/2000/svg" xmlns:xlink="http://www.w3.org/1999/xlink" x="0px" y="0px"
	 width="32px" height="32px" viewBox="0 0 32 32" enable-background="new 0 0 32 32" xml:space="preserve">
<path d="M15,22v5H9c-0.553,0-1,0.448-1,1s0.447,1,1,1h14c0.553,0,1-0.448,1-1s-0.447-1-1-1h-6v-5H15z"/>
<path d="M25.948,3.684C25.812,3.275,25.431,3,25,3h-8v3h9.72L25.948,3.684z"/>
<polygon points="27.387,8 17,8 17,12 28.72,12 "/>
<polygon points="15,8 4.613,8 3.28,12 15,12 "/>
<path d="M30.812,19.584c0.188-0.261,0.239-0.596,0.137-0.901L29.387,14H17v6h13C30.321,20,30.623,19.846,30.812,19.584z"/>
<path d="M2,20h13v-6H2.613l-1.561,4.684c-0.103,0.305-0.051,0.64,0.137,0.901C1.377,19.846,1.679,20,2,20z"/>
<path d="M15,3H7C6.569,3,6.188,3.275,6.052,3.684L5.28,6H15V3z"/>
</svg>
