<?xml version="1.0" encoding="utf-8"?>
<!-- Generator: Adobe Illustrator 19.2.1, SVG Export Plug-In . SVG Version: 6.00 Build 0)  -->
<!DOCTYPE svg PUBLIC "-//W3C//DTD SVG 1.1//EN" "http://www.w3.org/Graphics/SVG/1.1/DTD/svg11.dtd">
<svg version="1.1" id="Layer_1" xmlns="http://www.w3.org/2000/svg" xmlns:xlink="http://www.w3.org/1999/xlink" x="0px" y="0px"
	 width="32px" height="32px" viewBox="0 0 32 32" enable-background="new 0 0 32 32" xml:space="preserve">
<path d="M9.11,17.593l2.495,1.605l-1.297-7.181l-7.072,1.797l2.51,1.615l-5.431,8.494c-0.394,0.615-0.42,1.396-0.069,2.038
	C0.597,26.602,1.269,27,2,27h10v-4H5.653L9.11,17.593z"/>
<path d="M26.597,15.926l-3.375,2.148L26.356,23H19v-3l-5,5l5,5v-3h11c0.73,0,1.402-0.397,1.753-1.037
	c0.351-0.641,0.326-1.421-0.066-2.037L26.597,15.926z"/>
<path d="M19.115,11.63l-2.534,1.531l7.019,1.995l1.499-7.141l-2.56,1.546l-4.851-7.634C17.321,1.35,16.685,1,16,1h0
	c-0.684,0-1.32,0.35-1.688,0.926l-4.455,7l3.375,2.148l2.766-4.348L19.115,11.63z"/>
</svg>
