<?xml version="1.0" encoding="utf-8"?>
<!-- Generator: Adobe Illustrator 19.2.1, SVG Export Plug-In . SVG Version: 6.00 Build 0)  -->
<!DOCTYPE svg PUBLIC "-//W3C//DTD SVG 1.1//EN" "http://www.w3.org/Graphics/SVG/1.1/DTD/svg11.dtd">
<svg version="1.1" id="Layer_1" xmlns="http://www.w3.org/2000/svg" xmlns:xlink="http://www.w3.org/1999/xlink" x="0px" y="0px"
	 width="32px" height="32px" viewBox="0 0 32 32" enable-background="new 0 0 32 32" xml:space="preserve">
<path d="M16,32c2.414,0,4.434-1.721,4.899-4h-9.798C11.566,30.279,13.586,32,16,32z"/>
<path d="M11,22.895V26h10v-3.105c4.124-1.901,7-6.064,7-10.895c0-6.617-5.383-12-12-12S4,5.383,4,12
	C4,16.831,6.876,20.994,11,22.895z M15,6h2v4.027C17.911,8.804,19.357,8,21,8h1v2c0,2.761-2.239,5-5,5v6h-2V6z"/>
</svg>
