<?xml version="1.0" encoding="utf-8"?>
<!-- Generator: Adobe Illustrator 19.2.1, SVG Export Plug-In . SVG Version: 6.00 Build 0)  -->
<!DOCTYPE svg PUBLIC "-//W3C//DTD SVG 1.1//EN" "http://www.w3.org/Graphics/SVG/1.1/DTD/svg11.dtd">
<svg version="1.1" id="Layer_1" xmlns="http://www.w3.org/2000/svg" xmlns:xlink="http://www.w3.org/1999/xlink" x="0px" y="0px"
	 width="32px" height="32px" viewBox="0 0 32 32" enable-background="new 0 0 32 32" xml:space="preserve">
<path d="M6,32c1.966,0,4-1.496,4-4c0-2.193-2.733-5.129-3.281-5.695L6,21.562l-0.719,0.743C4.733,22.871,2,25.807,2,28
	C2,30.504,4.034,32,6,32z"/>
<path d="M9,16c0-1.103,0.897-2,2-2h4c0.911,1.224,2.357,2,4,2c1.631,0,3.088-0.792,4-2c0.007-0.009,6,0,6,0V8h-6
	c-0.725-0.973-1.79-1.656-3.021-1.897C19.983,6.067,20,6.036,20,6V2h5c0.552,0,1-0.448,1-1s-0.448-1-1-1H13c-0.552,0-1,0.448-1,1
	s0.448,1,1,1h5v4c0,0.036,0.017,0.067,0.021,0.103C16.79,6.344,15.724,7.027,15,8h-4c-4.411,0-8,3.589-8,8v3h6V16z"/>
</svg>
