<?xml version="1.0" encoding="utf-8"?>
<!-- Generator: Adobe Illustrator 19.1.0, SVG Export Plug-In . SVG Version: 6.00 Build 0)  -->
<!DOCTYPE svg PUBLIC "-//W3C//DTD SVG 1.1//EN" "http://www.w3.org/Graphics/SVG/1.1/DTD/svg11.dtd">
<svg version="1.1" id="Layer_1" xmlns="http://www.w3.org/2000/svg" xmlns:xlink="http://www.w3.org/1999/xlink" x="0px" y="0px"
	 width="24px" height="24px" viewBox="0 0 24 24" enable-background="new 0 0 24 24" xml:space="preserve">
<path d="M23,2c-0.6,0-1,0.4-1,1v2.5C21.4,5.8,20.7,6,20,6c-1.3,0-2.4-0.6-3.2-1.6C16.6,4.1,16.3,4,16,4c-0.3,0-0.6,0.1-0.8,0.4
	C14.4,5.4,13.3,6,12,6c-1.3,0-2.4-0.6-3.2-1.6C8.6,4.1,8.3,4,8,4C7.7,4,7.4,4.1,7.2,4.4C6.4,5.4,5.3,6,4,6C3.3,6,2.6,5.8,2,5.5V3
	c0-0.6-0.4-1-1-1S0,2.4,0,3v18c0,0.6,0.4,1,1,1h22c0.6,0,1-0.4,1-1V3C24,2.4,23.6,2,23,2z M2,20V7.7C2.6,7.9,3.3,8,4,8
	c1.5,0,2.9-0.6,4-1.5c1.1,1,2.5,1.5,4,1.5c1.5,0,2.9-0.6,4-1.5c1.1,1,2.5,1.5,4,1.5c0.7,0,1.4-0.1,2-0.4V20H2z"/>
<path d="M10,13H7l0-1h3c0.6,0,1-0.4,1-1s-0.4-1-1-1H6c-0.3,0-0.5,0.1-0.7,0.3S5,10.7,5,11l0,3c0,0,0,0,0,0s0,0,0,0l0,3
	c0,0.6,0.4,1,1,1h4c0.6,0,1-0.4,1-1v-3C11,13.4,10.6,13,10,13z M9,16H7l0-1h2V16z"/>
<path d="M18,10h-4c-0.6,0-1,0.4-1,1v6c0,0.6,0.4,1,1,1h4c0.6,0,1-0.4,1-1v-6C19,10.5,18.6,10,18,10z M17,16h-2v-4h2V16z"/>
</svg>
