<?xml version="1.0" encoding="utf-8"?>
<!-- Generator: Adobe Illustrator 19.1.0, SVG Export Plug-In . SVG Version: 6.00 Build 0)  -->
<!DOCTYPE svg PUBLIC "-//W3C//DTD SVG 1.1//EN" "http://www.w3.org/Graphics/SVG/1.1/DTD/svg11.dtd">
<svg version="1.1" id="Layer_1" xmlns="http://www.w3.org/2000/svg" xmlns:xlink="http://www.w3.org/1999/xlink" x="0px" y="0px"
	 width="24px" height="24px" viewBox="0 0 24 24" enable-background="new 0 0 24 24" xml:space="preserve">
<path d="M20,10h-1.7l-6.7-4.8C11.4,5.1,11.2,5,11,5h-1C9.7,5,9.4,5.2,9.2,5.4C9.2,5.4,8,7,6,7C4,7,2.9,5.5,2.8,5.4
	C2.6,5.2,2.3,5,2,5H1C0.4,5,0,5.4,0,6v10c0,1.7,1.3,3,3,3h18c1.7,0,3-1.3,3-3v-2C24,11.8,22.2,10,20,10z M6,9c2.3,0,3.8-1.3,4.5-2
	h0.2l6.7,4.8c0.2,0.1,0.4,0.2,0.6,0.2h2c1.1,0,2,0.9,2,2H2V7.4C2.8,8.1,4.2,9,6,9z M21,17H3c-0.6,0-1-0.4-1-1h20
	C22,16.6,21.6,17,21,17z"/>
</svg>
