<?xml version="1.0" encoding="utf-8"?>
<!-- Generator: Adobe Illustrator 19.1.0, SVG Export Plug-In . SVG Version: 6.00 Build 0)  -->
<!DOCTYPE svg PUBLIC "-//W3C//DTD SVG 1.1//EN" "http://www.w3.org/Graphics/SVG/1.1/DTD/svg11.dtd">
<svg version="1.1" id="Layer_1" xmlns="http://www.w3.org/2000/svg" xmlns:xlink="http://www.w3.org/1999/xlink" x="0px" y="0px"
	 width="24px" height="24px" viewBox="0 0 24 24" enable-background="new 0 0 24 24" xml:space="preserve">
<path d="M5.2,18.9L6,23.2C6.1,23.7,6.5,24,7,24h8c0.5,0,0.9-0.3,1-0.8l0.8-4.3c1.2-1,2.1-2.3,2.7-3.9H21c0.6,0,1-0.4,1-1v-4
	c0-0.6-0.4-1-1-1h-1.5c-0.5-1.5-1.5-2.8-2.7-3.9L16,0.8C15.9,0.3,15.5,0,15,0H7C6.5,0,6.1,0.3,6,0.8L5.2,5.1C3.2,6.8,2,9.3,2,12
	S3.2,17.2,5.2,18.9z M14.2,22H7.8l-0.3-1.7C8.6,20.7,9.8,21,11,21s2.4-0.3,3.5-0.7L14.2,22z M20,11v1v1h-0.1c0-0.3,0.1-0.7,0.1-1
	S20,11.3,20,11L20,11z M7.8,2h6.3l0.3,1.7C13.4,3.3,12.2,3,11,3S8.6,3.3,7.5,3.7L7.8,2z M6.6,6.5C6.7,6.5,6.7,6.5,6.6,6.5
	C7.9,5.6,9.4,5,11,5c1.6,0,3.1,0.5,4.2,1.4c0,0,0.1,0,0.1,0.1c1.1,0.9,2,2.1,2.4,3.5c0,0,0,0,0,0c0,0.2,0.1,0.3,0.1,0.5
	c0.1,0.5,0.2,1,0.2,1.5s-0.1,1-0.2,1.5c-0.1,0.1-0.1,0.3-0.1,0.5c0,0,0,0,0,0c-0.4,1.4-1.2,2.6-2.3,3.5c0,0,0,0-0.1,0
	C14.1,18.4,12.6,19,11,19c-1.6,0-3.1-0.6-4.3-1.5c0,0,0,0-0.1-0.1C5,16.2,4,14.2,4,12C4,9.8,5,7.8,6.6,6.5z"/>
<path d="M11,13h3c0.6,0,1-0.4,1-1s-0.4-1-1-1h-2V9c0-0.6-0.4-1-1-1s-1,0.4-1,1v3C10,12.6,10.4,13,11,13z"/>
</svg>
