<?xml version="1.0" encoding="utf-8"?>
<!-- Generator: Adobe Illustrator 19.1.0, SVG Export Plug-In . SVG Version: 6.00 Build 0)  -->
<!DOCTYPE svg PUBLIC "-//W3C//DTD SVG 1.1//EN" "http://www.w3.org/Graphics/SVG/1.1/DTD/svg11.dtd">
<svg version="1.1" id="Layer_1" xmlns="http://www.w3.org/2000/svg" xmlns:xlink="http://www.w3.org/1999/xlink" x="0px" y="0px"
	 width="24px" height="24px" viewBox="0 0 24 24" enable-background="new 0 0 24 24" xml:space="preserve">
<path d="M2,24h3c0.6,0,1-0.4,1-1v-4.6c0.5,0.4,1.1,0.9,1.6,1.4C9.5,21.6,12,24,16,24h6c0.6,0,1-0.4,1-1v-1.7c0-1.8-1.2-3.4-3-3.9
	l-1.5-0.4L13,11.6V1c0-0.6-0.4-1-1-1H2C1.4,0,1,0.4,1,1v22C1,23.6,1.4,24,2,24z M3,2h8v10c0,0.3,0.1,0.5,0.3,0.7l6,6
	c0.1,0.1,0.3,0.2,0.5,0.3l1.7,0.4c0.9,0.2,1.5,1,1.5,1.9V22h-5c-3.2,0-5.2-1.9-7-3.6C7.6,17.1,6.5,16,5,16c-0.6,0-1,0.4-1,1v5H3V2z"
	/>
</svg>
