<?xml version="1.0" encoding="utf-8"?>
<!-- Generator: Adobe Illustrator 19.1.0, SVG Export Plug-In . SVG Version: 6.00 Build 0)  -->
<!DOCTYPE svg PUBLIC "-//W3C//DTD SVG 1.1//EN" "http://www.w3.org/Graphics/SVG/1.1/DTD/svg11.dtd">
<svg version="1.1" id="Layer_1" xmlns="http://www.w3.org/2000/svg" xmlns:xlink="http://www.w3.org/1999/xlink" x="0px" y="0px"
	 width="24px" height="24px" viewBox="0 0 24 24" enable-background="new 0 0 24 24" xml:space="preserve">
<path d="M12,0C5.4,0,0,5.4,0,12s5.4,12,12,12s12-5.4,12-12S18.6,0,12,0z M12,22C6.5,22,2,17.5,2,12S6.5,2,12,2s10,4.5,10,10
	S17.5,22,12,22z"/>
<path d="M8,5C6.3,5,5,6.3,5,8s1.3,3,3,3s3-1.3,3-3S9.7,5,8,5z M8,9C7.4,9,7,8.6,7,8s0.4-1,1-1s1,0.4,1,1S8.6,9,8,9z"/>
<path d="M16,5c-1.7,0-3,1.3-3,3s1.3,3,3,3s3-1.3,3-3S17.7,5,16,5z M16,9c-0.6,0-1-0.4-1-1s0.4-1,1-1s1,0.4,1,1S16.6,9,16,9z"/>
<path d="M8,13c-1.7,0-3,1.3-3,3s1.3,3,3,3s3-1.3,3-3S9.7,13,8,13z M8,17c-0.6,0-1-0.4-1-1s0.4-1,1-1s1,0.4,1,1S8.6,17,8,17z"/>
<path d="M16,13c-1.7,0-3,1.3-3,3s1.3,3,3,3s3-1.3,3-3S17.7,13,16,13z M16,17c-0.6,0-1-0.4-1-1s0.4-1,1-1s1,0.4,1,1S16.6,17,16,17z"
	/>
</svg>
