<?xml version="1.0" encoding="utf-8"?>
<!-- Generator: Adobe Illustrator 19.1.0, SVG Export Plug-In . SVG Version: 6.00 Build 0)  -->
<!DOCTYPE svg PUBLIC "-//W3C//DTD SVG 1.1//EN" "http://www.w3.org/Graphics/SVG/1.1/DTD/svg11.dtd">
<svg version="1.1" id="Layer_1" xmlns="http://www.w3.org/2000/svg" xmlns:xlink="http://www.w3.org/1999/xlink" x="0px" y="0px"
	 width="24px" height="24px" viewBox="0 0 24 24" enable-background="new 0 0 24 24" xml:space="preserve">
<path d="M2,24h20c0.6,0,1-0.4,1-1v-5c0-2.8-2.2-5-5-5h-5V1c0-0.6-0.4-1-1-1H2C1.4,0,1,0.4,1,1v22C1,23.6,1.4,24,2,24z M3,22v-1h18v1
	H3z M11,2v12c0,0.6,0.4,1,1,1h6c1.7,0,3,1.3,3,3v1H3V2H11z"/>
</svg>
