<?xml version="1.0" encoding="utf-8"?>
<!-- Generator: Adobe Illustrator 19.1.0, SVG Export Plug-In . SVG Version: 6.00 Build 0)  -->
<!DOCTYPE svg PUBLIC "-//W3C//DTD SVG 1.1//EN" "http://www.w3.org/Graphics/SVG/1.1/DTD/svg11.dtd">
<svg version="1.1" id="Layer_1" xmlns="http://www.w3.org/2000/svg" xmlns:xlink="http://www.w3.org/1999/xlink" x="0px" y="0px"
	 width="24px" height="24px" viewBox="0 0 24 24" enable-background="new 0 0 24 24" xml:space="preserve">
<path d="M12,0C9.2,0,7,2.2,7,5v2c0,1.7-1.3,3-3,3H2c-0.6,0-1,0.4-1,1v12c0,0.6,0.4,1,1,1h20c0.6,0,1-0.4,1-1V11c0-0.6-0.4-1-1-1h-2
	c-1.7,0-3-1.3-3-3V5C17,2.2,14.8,0,12,0z M12,2c1.7,0,3,1.3,3,3v1H9V5C9,3.3,10.3,2,12,2z M20,12h1v10H3V12h1c2.4,0,4.4-1.7,4.9-4
	h6.2C15.6,10.3,17.6,12,20,12z"/>
<path d="M15,13H9c-0.6,0-1,0.4-1,1v2c0,2.2,1.8,4,4,4s4-1.8,4-4v-2C16,13.4,15.6,13,15,13z M14,16c0,1.1-0.9,2-2,2s-2-0.9-2-2v-1h4
	V16z"/>
</svg>
