<?xml version="1.0" encoding="utf-8"?>
<!-- Generator: Adobe Illustrator 19.1.0, SVG Export Plug-In . SVG Version: 6.00 Build 0)  -->
<!DOCTYPE svg PUBLIC "-//W3C//DTD SVG 1.1//EN" "http://www.w3.org/Graphics/SVG/1.1/DTD/svg11.dtd">
<svg version="1.1" id="Layer_1" xmlns="http://www.w3.org/2000/svg" xmlns:xlink="http://www.w3.org/1999/xlink" x="0px" y="0px"
	 width="24px" height="24px" viewBox="0 0 24 24" enable-background="new 0 0 24 24" xml:space="preserve">
<path d="M23,23V9c0-0.2-0.1-0.5-0.2-0.7C21,6.4,20,3.7,20,1c0-0.6-0.4-1-1-1h-3c-0.6,0-1,0.4-1,1c0,1.7-1.3,3-3,3S9,2.7,9,1
	c0-0.6-0.4-1-1-1H5C4.4,0,4,0.4,4,1c0,2.7-1,5.4-2.8,7.3C1.1,8.5,1,8.8,1,9v14c0,0.6,0.4,1,1,1h20C22.6,24,23,23.6,23,23z M21,22H3
	V9.4C4.7,7.3,5.8,4.7,6,2h1.1C7.6,4.3,9.6,6,12,6s4.4-1.7,4.9-4H18c0.2,2.7,1.2,5.3,3,7.4V22z"/>
</svg>
