<?xml version="1.0" encoding="utf-8"?>
<!-- Generator: Adobe Illustrator 19.1.0, SVG Export Plug-In . SVG Version: 6.00 Build 0)  -->
<!DOCTYPE svg PUBLIC "-//W3C//DTD SVG 1.1//EN" "http://www.w3.org/Graphics/SVG/1.1/DTD/svg11.dtd">
<svg version="1.1" id="Layer_1" xmlns="http://www.w3.org/2000/svg" xmlns:xlink="http://www.w3.org/1999/xlink" x="0px" y="0px"
	 width="24px" height="24px" viewBox="0 0 24 24" enable-background="new 0 0 24 24" xml:space="preserve">
<path d="M12,0C9.2,0,7,2.2,7,5v2H4C3.5,7,3.1,7.3,3,7.8l-3,15c-0.1,0.3,0,0.6,0.2,0.8C0.4,23.9,0.7,24,1,24h22
	c0.3,0,0.6-0.1,0.8-0.4c0.2-0.2,0.3-0.5,0.2-0.8l-3-15C20.9,7.3,20.5,7,20,7h-3V5C17,2.2,14.8,0,12,0z M9,5c0-1.7,1.3-3,3-3
	s3,1.3,3,3v2H9V5z M21.8,22H2.2L4.8,9h14.4L21.8,22z"/>
</svg>
