<?xml version="1.0" encoding="utf-8"?>
<!-- Generator: Adobe Illustrator 19.1.0, SVG Export Plug-In . SVG Version: 6.00 Build 0)  -->
<!DOCTYPE svg PUBLIC "-//W3C//DTD SVG 1.1//EN" "http://www.w3.org/Graphics/SVG/1.1/DTD/svg11.dtd">
<svg version="1.1" id="Layer_1" xmlns="http://www.w3.org/2000/svg" xmlns:xlink="http://www.w3.org/1999/xlink" x="0px" y="0px"
	 width="24px" height="24px" viewBox="0 0 24 24" enable-background="new 0 0 24 24" xml:space="preserve">
<path d="M23,3h-4V1c0-0.1,0-0.1,0-0.2c0,0,0,0,0,0c0,0,0,0,0,0v0c0,0,0-0.1,0-0.1c0,0,0,0,0,0c0,0,0,0,0,0c0,0,0,0,0,0c0,0,0,0,0,0
	c0-0.1,0-0.1-0.1-0.1v0c0,0,0,0,0,0c0-0.1-0.1-0.1-0.1-0.2c-0.1-0.1-0.2-0.2-0.3-0.2C18.3,0,18.2,0,18,0c0,0,0,0,0,0H6c0,0,0,0,0,0
	C5.8,0,5.7,0,5.6,0.1C5.5,0.2,5.3,0.2,5.3,0.3c0,0.1-0.1,0.1-0.1,0.2c0,0,0,0,0,0v0c0,0,0,0.1-0.1,0.1c0,0,0,0,0,0c0,0,0,0,0,0
	c0,0,0,0,0,0c0,0,0,0,0,0c0,0,0,0.1,0,0.1v0c0,0,0,0,0,0c0,0,0,0,0,0C5,0.9,5,0.9,5,1v2H1C0.4,3,0,3.4,0,4v19c0,0.6,0.4,1,1,1h22
	c0.6,0,1-0.4,1-1V4C24,3.4,23.6,3,23,3z M17,8.1l-3.3-2.2L17,3.1V8.1z M15.2,2L12,4.7L8.8,2H15.2z M7,3.1l3.3,2.8L7,8.1V3.1z M2,5h3
	v5c0,0.4,0.2,0.7,0.5,0.9c0.3,0.2,0.7,0.2,1,0l4.4-3V22H2V5z M22,22h-9V7.9l4.4,3c0.2,0.1,0.4,0.2,0.6,0.2c0.2,0,0.3,0,0.5-0.1
	c0.3-0.2,0.5-0.5,0.5-0.9V5h3V22z"/>
</svg>
