<?xml version="1.0" encoding="utf-8"?>
<!-- Generator: Adobe Illustrator 19.1.0, SVG Export Plug-In . SVG Version: 6.00 Build 0)  -->
<!DOCTYPE svg PUBLIC "-//W3C//DTD SVG 1.1//EN" "http://www.w3.org/Graphics/SVG/1.1/DTD/svg11.dtd">
<svg version="1.1" id="Layer_1" xmlns="http://www.w3.org/2000/svg" xmlns:xlink="http://www.w3.org/1999/xlink" x="0px" y="0px"
	 width="24px" height="24px" viewBox="0 0 24 24" enable-background="new 0 0 24 24" xml:space="preserve">
<path d="M23,3h-4.1l-1-2.4c0-0.1-0.1-0.1-0.1-0.2c0,0,0,0,0,0c-0.1-0.1-0.2-0.2-0.3-0.2c0,0,0,0,0,0c0,0,0,0-0.1,0
	c-0.1,0-0.2-0.1-0.3-0.1c0,0-0.1,0-0.1,0c0,0,0,0,0,0H7c0,0,0,0,0,0c0,0-0.1,0-0.1,0c-0.1,0-0.2,0-0.3,0.1c0,0,0,0-0.1,0
	c0,0,0,0,0,0C6.4,0.2,6.3,0.3,6.3,0.3c0,0,0,0,0,0C6.2,0.4,6.1,0.5,6.1,0.6L5.1,3H1C0.4,3,0,3.4,0,4v19c0,0.6,0.4,1,1,1h22
	c0.6,0,1-0.4,1-1V4C24,3.4,23.6,3,23,3z M6.6,4.4C6.6,4.4,6.6,4.4,6.6,4.4l0.4-1l3.6,7.3l-0.6,1.2L5.2,7.7L6.6,4.4z M11.9,8.5L8.6,2
	h6.7L11.9,8.5z M16.9,3.3l1.9,4.4l-6.8,5L16.9,3.3z M2,5h2.2L3.1,7.6C2.9,8,3,8.5,3.3,8.8l5.7,4.9l-1,1.8c0,0.1-0.1,0.2-0.1,0.3
	c0,0,0,0,0,0.1c0,0,0,0.1,0,0.1v6H2V5z M22,22H10v-5.5l10.6-7.7C21,8.5,21.1,8,20.9,7.6L19.8,5H22V22z"/>
<path d="M13,17c-0.6,0-1,0.4-1,1v1c0,0.6,0.4,1,1,1s1-0.4,1-1v-1C14,17.4,13.6,17,13,17z"/>
</svg>
