<?xml version="1.0" encoding="utf-8"?>
<!-- Generator: Adobe Illustrator 19.1.0, SVG Export Plug-In . SVG Version: 6.00 Build 0)  -->
<!DOCTYPE svg PUBLIC "-//W3C//DTD SVG 1.1//EN" "http://www.w3.org/Graphics/SVG/1.1/DTD/svg11.dtd">
<svg version="1.1" id="Layer_1" xmlns="http://www.w3.org/2000/svg" xmlns:xlink="http://www.w3.org/1999/xlink" x="0px" y="0px"
	 width="24px" height="24px" viewBox="0 0 24 24" enable-background="new 0 0 24 24" xml:space="preserve">
<path d="M20,0h-4c-0.6,0-1,0.4-1,1c0,1.7-1.3,3-3,3S9,2.7,9,1c0-0.6-0.4-1-1-1H4C1.8,0,0,1.8,0,4v10c0,0.6,0.4,1,1,1h3v8
	c0,0.6,0.4,1,1,1h14c0.6,0,1-0.4,1-1v-8h3c0.6,0,1-0.4,1-1V4C24,1.8,22.2,0,20,0z M2,13v-1h2v1H2z M18,22H6v-8V9c0-0.6-0.4-1-1-1
	S4,8.4,4,9v1H2V4c0-1.1,0.9-2,2-2h3.1C7.6,4.3,9.6,6,12,6s4.4-1.7,4.9-4H20c1.1,0,2,0.9,2,2v6h-2V9c0-0.6-0.4-1-1-1s-1,0.4-1,1v5V22
	z M20,13v-1h2v1H20z"/>
<path d="M14,10h-4c-0.6,0-1,0.4-1,1v6c0,0.6,0.4,1,1,1h4c0.6,0,1-0.4,1-1v-6C15,10.4,14.6,10,14,10z M13,12v1h-2v-1H13z M11,16v-1h2
	v1H11z"/>
</svg>
