<?xml version="1.0" encoding="utf-8"?>
<!-- Generator: Adobe Illustrator 19.1.0, SVG Export Plug-In . SVG Version: 6.00 Build 0)  -->
<!DOCTYPE svg PUBLIC "-//W3C//DTD SVG 1.1//EN" "http://www.w3.org/Graphics/SVG/1.1/DTD/svg11.dtd">
<svg version="1.1" id="Layer_1" xmlns="http://www.w3.org/2000/svg" xmlns:xlink="http://www.w3.org/1999/xlink" x="0px" y="0px"
	 width="24px" height="24px" viewBox="0 0 24 24" enable-background="new 0 0 24 24" xml:space="preserve">
<path d="M23,0h-5c-0.2,0-0.5,0.1-0.6,0.2L12,4.7L6.6,0.2C6.5,0.1,6.2,0,6,0H1C0.4,0,0,0.4,0,1v22c0,0.6,0.4,1,1,1h22
	c0.6,0,1-0.4,1-1V1C24,0.4,23.6,0,23,0z M22,22H2V2h3.6L11,6.5V16c0,0.6,0.4,1,1,1s1-0.4,1-1V6.5L18.4,2H22V22z"/>
<path d="M15,8c-0.6,0-1,0.4-1,1v1c0,0.6,0.4,1,1,1s1-0.4,1-1V9C16,8.4,15.6,8,15,8z"/>
<path d="M15,13c-0.6,0-1,0.4-1,1v1c0,0.6,0.4,1,1,1s1-0.4,1-1v-1C16,13.4,15.6,13,15,13z"/>
</svg>
