<?xml version="1.0" encoding="utf-8"?>
<!-- Generator: Adobe Illustrator 19.1.0, SVG Export Plug-In . SVG Version: 6.00 Build 0)  -->
<!DOCTYPE svg PUBLIC "-//W3C//DTD SVG 1.1//EN" "http://www.w3.org/Graphics/SVG/1.1/DTD/svg11.dtd">
<svg version="1.1" id="Layer_1" xmlns="http://www.w3.org/2000/svg" xmlns:xlink="http://www.w3.org/1999/xlink" x="0px" y="0px"
	 width="24px" height="24px" viewBox="0 0 24 24" enable-background="new 0 0 24 24" xml:space="preserve">
<path d="M11,0C9.2,0,7.4,0.8,6.2,2.1C5,3.4,4.4,5.3,4.5,7.1l1,11.1C5.9,21.5,8.6,24,12,24s6.1-2.5,6.4-5.9l1-11
	c0.2-1.8-0.4-3.6-1.7-5C16.6,0.8,14.8,0,13,0H11z M12,22c-2.3,0-4.2-1.8-4.5-4.1l-0.4-4.8C7.7,10.8,10.7,9,12,9
	c1.3,0,4.3,1.8,4.9,4.2l-0.4,4.8C16.2,20.2,14.3,22,12,22z M17.5,6.9l-0.3,2.9C16,8.4,14.4,7.5,13,7.1V5c0-0.6-0.4-1-1-1s-1,0.4-1,1
	v2.1C9.6,7.5,8,8.4,6.8,9.8L6.5,6.9C6.4,5.6,6.8,4.4,7.7,3.5C8.5,2.5,9.7,2,11,2h2c1.3,0,2.4,0.5,3.3,1.5
	C17.2,4.4,17.6,5.6,17.5,6.9z"/>
</svg>
