<?xml version="1.0" encoding="utf-8"?>
<!-- Generator: Adobe Illustrator 19.1.0, SVG Export Plug-In . SVG Version: 6.00 Build 0)  -->
<!DOCTYPE svg PUBLIC "-//W3C//DTD SVG 1.1//EN" "http://www.w3.org/Graphics/SVG/1.1/DTD/svg11.dtd">
<svg version="1.1" id="Layer_1" xmlns="http://www.w3.org/2000/svg" xmlns:xlink="http://www.w3.org/1999/xlink" x="0px" y="0px"
	 width="24px" height="24px" viewBox="0 0 24 24" enable-background="new 0 0 24 24" xml:space="preserve">
<path d="M18,14h-2V4c0-2.7-1-4-3-4c-2.2,0-5,2.8-5,5v9H6c-0.6,0-1,0.4-1,1v8c0,0.6,0.4,1,1,1h12c0.6,0,1-0.4,1-1v-8
	C19,14.4,18.6,14,18,14z M12.9,2c-0.2,1.7-1.2,2.7-2.9,2.9C10.1,3.8,11.9,2.1,12.9,2z M10,6.9c1.8-0.2,3.2-1,4-2.2V14h-4V6.9z
	 M17,22H7v-6h10V22z"/>
</svg>
