<?xml version="1.0" encoding="utf-8"?>
<!-- Generator: Adobe Illustrator 19.1.0, SVG Export Plug-In . SVG Version: 6.00 Build 0)  -->
<!DOCTYPE svg PUBLIC "-//W3C//DTD SVG 1.1//EN" "http://www.w3.org/Graphics/SVG/1.1/DTD/svg11.dtd">
<svg version="1.1" id="Layer_1" xmlns="http://www.w3.org/2000/svg" xmlns:xlink="http://www.w3.org/1999/xlink" x="0px" y="0px"
	 width="24px" height="24px" viewBox="0 0 24 24" enable-background="new 0 0 24 24" xml:space="preserve">
<path d="M5,0C4.4,0,4,0.4,4,1v3c0,3.7,1.2,7.3,1.8,8.7c-0.4,0.4-1,1.1-1.4,2c-1.6,3.6,5.7,7.4,7.2,8.1C11.7,23,11.9,23,12,23
	s0.3,0,0.4-0.1c1.5-0.7,8.8-4.5,7.2-8.1c-0.4-0.9-1-1.6-1.4-2C18.8,11.3,20,7.7,20,4V1c0-0.6-0.4-1-1-1s-1,0.4-1,1v2.1
	c-3.1,0.2-5,1.5-6,2.5c-1-0.9-2.9-2.2-6-2.5V1C6,0.4,5.6,0,5,0z M11.2,7.6c0.4,0.6,1.3,0.6,1.7,0c0,0,1.5-2.2,5.1-2.5
	c-0.3,3.9-1.9,7.5-1.9,7.5c-0.2,0.4-0.1,0.9,0.3,1.2c0,0,0.9,0.7,1.4,1.8c0.5,1.1-2.6,3.6-5.8,5.3c-3.2-1.7-6.3-4.1-5.8-5.3
	c0.5-1.1,1.4-1.8,1.4-1.8C8,13.5,8.1,13,7.9,12.6c0,0-1.6-3.7-1.9-7.5C9.6,5.4,11.1,7.5,11.2,7.6z"/>
</svg>
