<?xml version="1.0" encoding="utf-8"?>
<!-- Generator: Adobe Illustrator 19.1.0, SVG Export Plug-In . SVG Version: 6.00 Build 0)  -->
<!DOCTYPE svg PUBLIC "-//W3C//DTD SVG 1.1//EN" "http://www.w3.org/Graphics/SVG/1.1/DTD/svg11.dtd">
<svg version="1.1" id="Layer_1" xmlns="http://www.w3.org/2000/svg" xmlns:xlink="http://www.w3.org/1999/xlink" x="0px" y="0px"
	 width="24px" height="24px" viewBox="0 0 24 24" enable-background="new 0 0 24 24" xml:space="preserve">
<path d="M1,7.9C1,8,1,8,1,7.9C1,8,1,8,1,7.9c0,0.2,0,0.3,0.1,0.4c0,0,0,0.1,0.1,0.1c0,0.1,0,0.1,0.1,0.2l10,13c0,0,0,0,0,0
	c0,0,0,0,0.1,0.1c0,0,0,0.1,0.1,0.1c0,0,0.1,0.1,0.1,0.1c0,0,0.1,0,0.1,0c0,0,0.1,0,0.1,0c0,0,0,0,0,0c0.1,0,0.2,0,0.3,0
	c0,0,0,0,0,0c0,0,0,0,0,0s0,0,0,0c0,0,0,0,0,0c0.1,0,0.2,0,0.3,0c0,0,0,0,0,0c0,0,0.1,0,0.1,0c0,0,0.1,0,0.1,0c0,0,0.1,0,0.1-0.1
	c0,0,0.1-0.1,0.1-0.1c0,0,0,0,0.1-0.1c0,0,0,0,0,0l10-13c0,0,0.1-0.1,0.1-0.2c0,0,0-0.1,0.1-0.1C23,8.3,23,8.1,23,8c0,0,0,0,0,0
	c0,0,0,0,0-0.1c0-0.1,0-0.2-0.1-0.3c0,0,0-0.1-0.1-0.1c0,0,0-0.1,0-0.1l-4-6c0-0.1-0.1-0.1-0.2-0.2c0,0,0,0,0,0
	c-0.1-0.1-0.2-0.1-0.3-0.2c0,0,0,0,0,0c0,0,0,0,0,0c-0.1,0-0.2,0-0.3,0H6C5.9,1,5.8,1,5.7,1c0,0,0,0,0,0c0,0,0,0,0,0
	c-0.1,0-0.2,0.1-0.3,0.2c0,0,0,0,0,0C5.3,1.3,5.2,1.4,5.2,1.4l-4,6c0,0,0,0.1,0,0.1c0,0,0,0.1-0.1,0.1C1,7.8,1,7.8,1,7.9z M5.7,4.3
	L6.6,7H3.9L5.7,4.3z M20.1,7h-2.7l0.9-2.7L20.1,7z M14.6,9L12,17.6L9.4,9H14.6z M9.9,7L12,3.8L14.1,7H9.9z M16.7,9H20l-5.4,7L16.7,9
	z M15.7,5.7L13.9,3h2.7L15.7,5.7z M8.3,5.7L7.4,3h2.7L8.3,5.7z M7.3,9l2.2,7L4,9H7.3z"/>
</svg>
