<?xml version="1.0" encoding="utf-8"?>
<!-- Generator: Adobe Illustrator 19.1.0, SVG Export Plug-In . SVG Version: 6.00 Build 0)  -->
<!DOCTYPE svg PUBLIC "-//W3C//DTD SVG 1.1//EN" "http://www.w3.org/Graphics/SVG/1.1/DTD/svg11.dtd">
<svg version="1.1" id="Layer_1" xmlns="http://www.w3.org/2000/svg" xmlns:xlink="http://www.w3.org/1999/xlink" x="0px" y="0px"
	 width="24px" height="24px" viewBox="0 0 24 24" enable-background="new 0 0 24 24" xml:space="preserve">
<path d="M23,6h-5c0-3.3-2.7-6-6-6S6,2.7,6,6H1C0.4,6,0,6.4,0,7v12c0,2.8,2.2,5,5,5h14c2.8,0,5-2.2,5-5V7C24,6.4,23.6,6,23,6z M12,2
	c2.2,0,4,1.8,4,4H8C8,3.8,9.8,2,12,2z M22,19c0,1.7-1.3,3-3,3H5c-1.7,0-3-1.3-3-3V8h4v2c0,0.6,0.4,1,1,1s1-0.4,1-1V8h8v2
	c0,0.6,0.4,1,1,1s1-0.4,1-1V8h4V19z"/>
<path d="M15,13H9c-0.6,0-1,0.4-1,1v4c0,0.6,0.4,1,1,1h6c0.6,0,1-0.4,1-1v-4C16,13.4,15.6,13,15,13z M14,17h-4v-2h4V17z"/>
</svg>
