<?xml version="1.0" encoding="utf-8"?>
<!-- Generator: Adobe Illustrator 19.1.0, SVG Export Plug-In . SVG Version: 6.00 Build 0)  -->
<!DOCTYPE svg PUBLIC "-//W3C//DTD SVG 1.1//EN" "http://www.w3.org/Graphics/SVG/1.1/DTD/svg11.dtd">
<svg version="1.1" id="Layer_1" xmlns="http://www.w3.org/2000/svg" xmlns:xlink="http://www.w3.org/1999/xlink" x="0px" y="0px"
	 width="24px" height="24px" viewBox="0 0 24 24" enable-background="new 0 0 24 24" xml:space="preserve">
<path d="M20,0H4C3.4,0,3,0.4,3,1v22c0,0.6,0.4,1,1,1h16c0.6,0,1-0.4,1-1V1C21,0.4,20.6,0,20,0z M19,2v1H5V2H19z M19,22h-6V12
	c0-0.6-0.4-1-1-1s-1,0.4-1,1v10H5V11c2.2,0,4-1.8,4-4c0-0.6-0.4-1-1-1S7,6.4,7,7c0,1.1-0.9,2-2,2V5h6v3c0,0.6,0.4,1,1,1s1-0.4,1-1V5
	h6v4c-1.1,0-2-0.9-2-2c0-0.6-0.4-1-1-1s-1,0.4-1,1c0,2.2,1.8,4,4,4V22z"/>
</svg>
