<?xml version="1.0" encoding="utf-8"?>
<!-- Generator: Adobe Illustrator 19.1.0, SVG Export Plug-In . SVG Version: 6.00 Build 0)  -->
<!DOCTYPE svg PUBLIC "-//W3C//DTD SVG 1.1//EN" "http://www.w3.org/Graphics/SVG/1.1/DTD/svg11.dtd">
<svg version="1.1" id="Layer_1" xmlns="http://www.w3.org/2000/svg" xmlns:xlink="http://www.w3.org/1999/xlink" x="0px" y="0px"
	 width="24px" height="24px" viewBox="0 0 24 24" enable-background="new 0 0 24 24" xml:space="preserve">
<path d="M23,4H1C0.4,4,0,4.4,0,5v6c0,0.6,0.4,1,1,1h1c3.9,0,7,3.1,7,7c0,0.6,0.4,1,1,1h4c0.6,0,1-0.4,1-1c0-3.9,3.1-7,7-7h1
	c0.6,0,1-0.4,1-1V5C24,4.4,23.6,4,23,4z M22,10c-4.6,0-8.4,3.5-8.9,8h-2.1c-0.5-4.5-4.3-8-8.9-8V6h20V10z"/>
</svg>
