<?xml version="1.0" encoding="utf-8"?>
<!-- Generator: Adobe Illustrator 19.1.0, SVG Export Plug-In . SVG Version: 6.00 Build 0)  -->
<!DOCTYPE svg PUBLIC "-//W3C//DTD SVG 1.1//EN" "http://www.w3.org/Graphics/SVG/1.1/DTD/svg11.dtd">
<svg version="1.1" id="Layer_1" xmlns="http://www.w3.org/2000/svg" xmlns:xlink="http://www.w3.org/1999/xlink" x="0px" y="0px"
	 width="48px" height="48px" viewBox="0 0 48 48" enable-background="new 0 0 48 48" xml:space="preserve">
<path d="M44.98438,32.36426c-1.28174-0.95312-2.89307-1.23438-4.4209-0.77734l-14.08203,4.22461L9.58496,5.57568
	C8.37646,3.41357,5.6167,2.604,3.43262,3.76758C2.3335,4.35303,1.53662,5.33398,1.18848,6.5293
	c-0.34814,1.1958-0.20264,2.45117,0.41016,3.53516l18.88965,33.41211C21.01953,44.41602,22.02051,45,23.1001,45H44
	c1.6543,0,3-1.3457,3-3v-5.62402C47,34.7793,46.26514,33.31738,44.98438,32.36426z M45,42c0,0.55176-0.44873,1-1,1H23.1001
	c-0.35986,0-0.69385-0.19434-0.87061-0.50781L3.33984,9.08008C2.99463,8.46924,2.9126,7.76221,3.10889,7.08887
	c0.1958-0.67334,0.64502-1.22607,1.26416-1.55615C4.75439,5.32959,5.16699,5.2334,5.5752,5.2334
	c0.9082,0,1.79395,0.47754,2.26367,1.31787l17.28809,30.93701c0.229,0.40918,0.71289,0.60547,1.16016,0.46973l14.85107-4.45508
	c0.91748-0.27832,1.88428-0.10547,2.65234,0.46582C44.55908,34.54004,45,35.41797,45,36.37598V42z"/>
<path d="M43,20.625V17c0-2.62598-4.02441-4-8-4s-8,1.37402-8,4v3.625c0,2.62598,4.02441,4,8,4S43,23.25098,43,20.625z M35,15
	c3.72217,0,6,1.29492,6,2s-2.27783,2-6,2s-6-1.29492-6-2S31.27783,15,35,15z M29,20.625v-0.89258
	C30.54138,20.56982,32.77765,21,35,21s4.45862-0.43018,6-1.26758V20.625c0,0.70508-2.27783,2-6,2S29,21.33008,29,20.625z"/>
</svg>
