<?xml version="1.0" encoding="utf-8"?>
<!-- Generator: Adobe Illustrator 19.1.0, SVG Export Plug-In . SVG Version: 6.00 Build 0)  -->
<!DOCTYPE svg PUBLIC "-//W3C//DTD SVG 1.1//EN" "http://www.w3.org/Graphics/SVG/1.1/DTD/svg11.dtd">
<svg version="1.1" id="Layer_1" xmlns="http://www.w3.org/2000/svg" xmlns:xlink="http://www.w3.org/1999/xlink" x="0px" y="0px"
	 width="48px" height="48px" viewBox="0 0 48 48" enable-background="new 0 0 48 48" xml:space="preserve">
<path d="M4,11h3.10474l3.90112,35.11035C11.0625,46.6167,11.49023,47,12,47h24c0.50977,0,0.9375-0.3833,0.99414-0.88965L40.89526,11
	H44c0.55273,0,1-0.44775,1-1s-0.44727-1-1-1H28V3h2c0.55273,0,1-0.44775,1-1s-0.44727-1-1-1H18c-0.55273,0-1,0.44775-1,1
	s0.44727,1,1,1h2v6H4c-0.55273,0-1,0.44775-1,1S3.44727,11,4,11z M35.10449,45H12.89551L9.11749,11h29.76501L35.10449,45z M22,3h4v6
	h-4V3z"/>
<path d="M25,20c0,0.55225,0.44727,1,1,1h4c0.55273,0,1-0.44775,1-1s-0.44727-1-1-1h-4C25.44727,19,25,19.44775,25,20z"/>
<path d="M30,27h-4c-0.55273,0-1,0.44775-1,1s0.44727,1,1,1h4c0.55273,0,1-0.44775,1-1S30.55273,27,30,27z"/>
<path d="M30,35h-4c-0.55273,0-1,0.44775-1,1s0.44727,1,1,1h4c0.55273,0,1-0.44775,1-1S30.55273,35,30,35z"/>
</svg>
