<?xml version="1.0" encoding="utf-8"?>
<!-- Generator: Adobe Illustrator 19.1.0, SVG Export Plug-In . SVG Version: 6.00 Build 0)  -->
<!DOCTYPE svg PUBLIC "-//W3C//DTD SVG 1.1//EN" "http://www.w3.org/Graphics/SVG/1.1/DTD/svg11.dtd">
<svg version="1.1" id="Layer_1" xmlns="http://www.w3.org/2000/svg" xmlns:xlink="http://www.w3.org/1999/xlink" x="0px" y="0px"
	 width="48px" height="48px" viewBox="0 0 48 48" enable-background="new 0 0 48 48" xml:space="preserve">
<path d="M6,47c0.55273,0,1-0.44775,1-1V31h35c0.55273,0,1-0.44775,1-1V6c0-0.55225-0.44727-1-1-1H7V2c0-0.55225-0.44727-1-1-1
	S5,1.44775,5,2v44C5,46.55225,5.44727,47,6,47z M7,19h10v10H7V19z M29,19v10H19V19H29z M19,17V7h10v10H19z M31,29V19h10v10H31z
	 M41,17H31V7h10V17z M17,7v10H7V7H17z"/>
</svg>
