<?xml version="1.0" encoding="utf-8"?>
<!-- Generator: Adobe Illustrator 19.1.0, SVG Export Plug-In . SVG Version: 6.00 Build 0)  -->
<!DOCTYPE svg PUBLIC "-//W3C//DTD SVG 1.1//EN" "http://www.w3.org/Graphics/SVG/1.1/DTD/svg11.dtd">
<svg version="1.1" id="Layer_1" xmlns="http://www.w3.org/2000/svg" xmlns:xlink="http://www.w3.org/1999/xlink" x="0px" y="0px"
	 width="48px" height="48px" viewBox="0 0 48 48" enable-background="new 0 0 48 48" xml:space="preserve">
<path d="M44.70703,4.70703c0.39062-0.39062,0.39062-1.02344,0-1.41406s-1.02344-0.39062-1.41406,0L24,22.58594L4.70703,3.29297
	c-0.39062-0.39062-1.02344-0.39062-1.41406,0s-0.39062,1.02344,0,1.41406L22.58594,24l-6.97095,6.97095
	C14.02539,29.69598,12.06702,29,10,29c-2.40381,0-4.66406,0.93604-6.36377,2.63623c-0.39062,0.39062-0.39062,1.02344,0,1.41406
	l4.91309,4.91309l-5.26123,5.33447c-0.3877,0.39307-0.3833,1.02637,0.00977,1.41406C3.49268,44.9043,3.74658,45,4,45
	c0.2583,0,0.51611-0.09961,0.71191-0.29785l5.25153-5.32465l4.98627,4.98627c0.19531,0.19531,0.45117,0.29297,0.70703,0.29297
	s0.51172-0.09766,0.70703-0.29297C18.06396,42.66406,19,40.40381,19,38c0-2.06702-0.69598-4.02539-1.97095-5.61499L24,25.41406
	l6.97095,6.97095C29.69598,33.97461,29,35.93304,29,38c0,2.40381,0.93604,4.66406,2.63623,6.36377
	c0.19531,0.19531,0.45117,0.29297,0.70703,0.29297s0.51172-0.09766,0.70703-0.29297l4.98627-4.98627l5.25153,5.32465
	C43.48389,44.90039,43.7417,45,44,45c0.25342,0,0.50732-0.0957,0.70215-0.28809c0.39307-0.3877,0.39746-1.021,0.00977-1.41406
	l-5.26123-5.33447l4.91309-4.91309c0.39062-0.39062,0.39062-1.02344,0-1.41406C42.66406,29.93604,40.40381,29,38,29
	c-2.06702,0-4.02539,0.69598-5.61499,1.97095L25.41406,24L44.70703,4.70703z M15.60693,42.19287l-9.7998-9.7998
	C7.01074,31.48877,8.46777,31,10,31c1.86963,0,3.62744,0.72803,4.94971,2.05029S17,36.13037,17,38
	C17,39.53223,16.51123,40.98926,15.60693,42.19287z M42.19287,32.39307l-9.7998,9.7998C31.48877,40.98926,31,39.53223,31,38
	c0-1.86963,0.72803-3.62744,2.05029-4.94971S36.13037,31,38,31C39.53223,31,40.98926,31.48877,42.19287,32.39307z"/>
</svg>
