<?xml version="1.0" encoding="utf-8"?>
<!-- Generator: Adobe Illustrator 19.1.0, SVG Export Plug-In . SVG Version: 6.00 Build 0)  -->
<!DOCTYPE svg PUBLIC "-//W3C//DTD SVG 1.1//EN" "http://www.w3.org/Graphics/SVG/1.1/DTD/svg11.dtd">
<svg version="1.1" id="Layer_1" xmlns="http://www.w3.org/2000/svg" xmlns:xlink="http://www.w3.org/1999/xlink" x="0px" y="0px"
	 width="48px" height="48px" viewBox="0 0 48 48" enable-background="new 0 0 48 48" xml:space="preserve">
<path d="M2.56641,33.76074l5.83447,5.83472c0.00067,0.00067,0.00079,0.00153,0.00146,0.0022s0.00153,0.00079,0.0022,0.00146
	l5.83423,5.83447c0.19287,0.19336,0.44873,0.29297,0.70752,0.29297c0.17871,0,0.3584-0.04785,0.51953-0.14551
	c11.75244-7.15723,20.59961-15.24707,25.58447-23.39551c4.09131-6.68652,5.51367-13.42578,3.90283-18.48828
	c-0.00354-0.01117-0.01385-0.01813-0.01776-0.02911c-0.04803-0.13599-0.1189-0.26508-0.2276-0.37408
	c-0.00049-0.00049-0.00092-0.00104-0.0014-0.00153c-0.10889-0.1087-0.23792-0.17969-0.37384-0.22778
	c-0.01105-0.00397-0.01807-0.01428-0.0293-0.01788C39.23877,1.43652,32.50049,2.8584,25.81396,6.9502
	C17.6665,11.93457,9.57715,20.78125,2.41943,32.5332C2.1792,32.92773,2.24023,33.43457,2.56641,33.76074z M15.09521,43.46191
	l-4.57141-4.57166L43.4278,5.98627C44.56683,13.51367,39.74683,28.23993,15.09521,43.46191z M42.01318,4.57275L9.10974,37.4762
	l-4.57166-4.5719C19.75989,8.25555,34.48511,3.43555,42.01318,4.57275z"/>
</svg>
