<?xml version="1.0" encoding="utf-8"?>
<!-- Generator: Adobe Illustrator 19.1.0, SVG Export Plug-In . SVG Version: 6.00 Build 0)  -->
<!DOCTYPE svg PUBLIC "-//W3C//DTD SVG 1.1//EN" "http://www.w3.org/Graphics/SVG/1.1/DTD/svg11.dtd">
<svg version="1.1" id="Layer_1" xmlns="http://www.w3.org/2000/svg" xmlns:xlink="http://www.w3.org/1999/xlink" x="0px" y="0px"
	 width="48px" height="48px" viewBox="0 0 48 48" enable-background="new 0 0 48 48" xml:space="preserve">
<path d="M12,30c-2.20557,0-4,1.79395-4,4s1.79443,4,4,4s4-1.79395,4-4S14.20557,30,12,30z M12,36c-1.10303,0-2-0.89746-2-2
	s0.89697-2,2-2s2,0.89746,2,2S13.10303,36,12,36z"/>
<path d="M42.25439,31.39941c-0.01465-0.00488-0.02979-0.00977-0.04443-0.01367l-5.45294-1.58502l7.97687-19.94427
	c0.61719-1.54199,0.42969-3.2832-0.50146-4.65918S41.75342,3,40.0918,3H32c-0.55225,0-1,0.44727-1,1s0.44775,1,1,1h8.0918
	c1.01172,0,1.91748,0.48047,2.48438,1.31836s0.67676,1.85645,0.30078,2.7959l-8.0498,20.12549l-19.125-5.55908
	c-0.37366-0.13373-1.55103-0.51965-2.91144-0.64081L10.28076,13H14c0.55225,0,1-0.44727,1-1s-0.44775-1-1-1H4
	c-0.55225,0-1,0.44727-1,1s0.44775,1,1,1h4.21924l2.51953,10.078C5.26599,23.70648,1,28.36163,1,34c0,6.06543,4.93457,11,11,11h28
	c3.85986,0,7-3.14062,7-7C47,35.02344,45.09277,32.37012,42.25439,31.39941z M40,43H12c-4.9624,0-9-4.03711-9-9s4.0376-9,9-9
	c1.38867,0,2.76367,0.46875,3.08447,0.58203l26.54346,7.7168C43.646,33.99902,45,35.88574,45,38C45,40.75684,42.75684,43,40,43z"/>
</svg>
