<?xml version="1.0" encoding="utf-8"?>
<!-- Generator: Adobe Illustrator 19.1.0, SVG Export Plug-In . SVG Version: 6.00 Build 0)  -->
<!DOCTYPE svg PUBLIC "-//W3C//DTD SVG 1.1//EN" "http://www.w3.org/Graphics/SVG/1.1/DTD/svg11.dtd">
<svg version="1.1" id="Layer_1" xmlns="http://www.w3.org/2000/svg" xmlns:xlink="http://www.w3.org/1999/xlink" x="0px" y="0px"
	 width="48px" height="48px" viewBox="0 0 48 48" enable-background="new 0 0 48 48" xml:space="preserve">
<path d="M11,38.84521V46c0,0.55225,0.44727,1,1,1h30c0.55273,0,1-0.44775,1-1v-8V12v-2V8c0-3.85986-3.14062-7-7-7H18
	c-3.85938,0-7,3.14014-7,7v7.07129C7.6123,15.55811,5,18.47949,5,22v6C5,35.65643,8.76349,38.24615,11,38.84521z M13,45v-6h28v6H13z
	 M13,8c0-2.75684,2.24316-5,5-5h18c2.75684,0,5,2.24316,5,5v2v2c0,3.85986-3.14062,7-7,7H22.64996
	C21.82367,16.6734,19.60651,15,17,15h-4V8z M7,22c0-2.75684,2.24316-5,5-5h5c2.20605,0,4,1.79443,4,4s-1.79395,4-4,4h-1
	c-0.55273,0-1,0.44775-1,1s0.44727,1,1,1h1c3.30859,0,6-2.69141,6-6h11c2.82611,0,5.34882-1.31189,7-3.35559V37H12
	c-0.0498,0-5-0.52881-5-9V22z"/>
</svg>
