<?xml version="1.0" encoding="utf-8"?>
<!-- Generator: Adobe Illustrator 19.1.0, SVG Export Plug-In . SVG Version: 6.00 Build 0)  -->
<!DOCTYPE svg PUBLIC "-//W3C//DTD SVG 1.1//EN" "http://www.w3.org/Graphics/SVG/1.1/DTD/svg11.dtd">
<svg version="1.1" id="Layer_1" xmlns="http://www.w3.org/2000/svg" xmlns:xlink="http://www.w3.org/1999/xlink" x="0px" y="0px"
	 width="48px" height="48px" viewBox="0 0 48 48" enable-background="new 0 0 48 48" xml:space="preserve">
<path d="M24,4c-2.75684,0-5,2.24316-5,5s2.24316,5,5,5s5-2.24316,5-5S26.75684,4,24,4z M24,12c-1.6543,0-3-1.3457-3-3s1.3457-3,3-3
	s3,1.3457,3,3S25.6543,12,24,12z"/>
<path d="M34.26367,24.25c0.42676,0.21387,0.88672,0.31738,1.3418,0.31738c0.77734,0,1.54395-0.30273,2.12109-0.87988
	l4.98047-4.98047c0.39062-0.39062,0.39062-1.02344,0-1.41406s-1.02344-0.39062-1.41406,0l-4.98047,4.98047
	c-0.30566,0.30566-0.76855,0.38086-1.1543,0.1875l-9.81738-4.9082c-0.41443-0.20721-0.86865-0.31018-1.3233-0.31287
	C24.01135,17.23975,24.00623,17.23633,24,17.23633c-0.00574,0-0.0105,0.00317-0.01624,0.0033
	c-0.45538,0.00238-0.91046,0.10553-1.32556,0.31311l-9.81641,4.9082c-0.38574,0.19141-0.84961,0.11719-1.1543-0.1875
	l-4.98047-4.98047c-0.39062-0.39062-1.02344-0.39062-1.41406,0s-0.39062,1.02344,0,1.41406l4.98047,4.98047
	c0.91504,0.91406,2.30566,1.14062,3.46289,0.5625L23,19.61768V35H10c-0.55273,0-1,0.44727-1,1s0.44727,1,1,1h28
	c0.55273,0,1-0.44727,1-1s-0.44727-1-1-1H25V19.61816L34.26367,24.25z"/>
<path d="M46,43H2c-0.55273,0-1,0.44727-1,1s0.44727,1,1,1h44c0.55273,0,1-0.44727,1-1S46.55273,43,46,43z"/>
</svg>
