<?xml version="1.0" encoding="utf-8"?>
<!-- Generator: Adobe Illustrator 19.1.0, SVG Export Plug-In . SVG Version: 6.00 Build 0)  -->
<!DOCTYPE svg PUBLIC "-//W3C//DTD SVG 1.1//EN" "http://www.w3.org/Graphics/SVG/1.1/DTD/svg11.dtd">
<svg version="1.1" id="Layer_1" xmlns="http://www.w3.org/2000/svg" xmlns:xlink="http://www.w3.org/1999/xlink" x="0px" y="0px"
	 width="48px" height="48px" viewBox="0 0 48 48" enable-background="new 0 0 48 48" xml:space="preserve">
<path d="M39.88477,2.11523c-1.60254,0-3.10938,0.62402-4.24268,1.75781L17.25732,22.25781
	c-1.82617,1.82617-2.79834,4.30566-3.57959,6.29785c-0.44873,1.14355-0.87256,2.22461-1.26367,2.61621l-8.69507,8.69507
	c-0.39221-0.30389-0.95068-0.2915-1.31079,0.0686c-0.39062,0.39062-0.39062,1.02344,0,1.41406l4.24268,4.24219
	c0.19531,0.19531,0.45117,0.29297,0.70703,0.29297s0.51172-0.09766,0.70703-0.29297c0.36023-0.36023,0.37256-0.91876,0.06842-1.3111
	L16.75,35.66406c0.3457-0.3457,1.44043-0.77734,2.49902-1.19434c2.03418-0.80176,4.56592-1.79883,6.41455-3.64746l1.95746-1.95502
	C28.71899,31.29968,31.16241,33,34,33c3.85986,0,7-3.14062,7-7c0-2.84015-1.70343-5.28595-4.13989-6.38239l7.26733-7.26019
	c1.1333-1.13281,1.75732-2.63965,1.75732-4.24219s-0.62402-3.10938-1.75732-4.24219
	C42.99414,2.73926,41.4873,2.11523,39.88477,2.11523z M39,26c0,2.75684-2.24316,5-5,5s-5-2.24316-5-5s2.24316-5,5-5
	S39,23.24316,39,26z M42.71387,10.94336l-8.09546,8.08795C34.41425,19.01331,34.20874,19,34,19c-3.85986,0-7,3.14062-7,7
	c0,0.2121,0.01331,0.42102,0.03186,0.62842L24.25,29.40723c-1.55518,1.55469-3.87256,2.46777-5.73438,3.20215
	c-1.41895,0.55957-2.54004,1.00098-3.17969,1.64062l-8.59943,8.59943l-1.58606-1.58582l8.67767-8.67767
	c0.68652-0.68652,1.13916-1.83984,1.71143-3.30078c0.71338-1.81836,1.60107-4.08203,3.13184-5.61328L37.05615,5.28711
	c1.51172-1.51172,4.14551-1.51172,5.65723,0c0.75537,0.75586,1.17139,1.75977,1.17139,2.82812S43.46875,10.1875,42.71387,10.94336z"
	/>
</svg>
