<?xml version="1.0" encoding="utf-8"?>
<!-- Generator: Adobe Illustrator 19.1.0, SVG Export Plug-In . SVG Version: 6.00 Build 0)  -->
<!DOCTYPE svg PUBLIC "-//W3C//DTD SVG 1.1//EN" "http://www.w3.org/Graphics/SVG/1.1/DTD/svg11.dtd">
<svg version="1.1" id="Layer_1" xmlns="http://www.w3.org/2000/svg" xmlns:xlink="http://www.w3.org/1999/xlink" x="0px" y="0px"
	 width="48px" height="48px" viewBox="0 0 48 48" enable-background="new 0 0 48 48" xml:space="preserve">
<path d="M4,9c-0.55273,0-1,0.44775-1,1s0.44727,1,1,1h3.10474l3.90112,35.11035C11.0625,46.6167,11.49023,47,12,47h24
	c0.50977,0,0.9375-0.3833,0.99414-0.88965L40.89526,11H44c0.55273,0,1-0.44775,1-1s-0.44727-1-1-1H28V3h2c0.55273,0,1-0.44775,1-1
	s-0.44727-1-1-1H18c-0.55273,0-1,0.44775-1,1s0.44727,1,1,1h2v6H4z M35.10449,45H12.89551L9.11749,11h29.76501L35.10449,45z M22,3h4
	v6h-4V3z"/>
<path d="M26.70703,22.70703c0.39062-0.39062,0.39062-1.02344,0-1.41406s-1.02344-0.39062-1.41406,0l-6,6
	c-0.28613,0.28613-0.37207,0.71582-0.2168,1.08984C19.23047,28.75635,19.5957,29,20,29h5.58594l-4.29297,4.29297
	c-0.39062,0.39062-0.39062,1.02344,0,1.41406C21.48828,34.90234,21.74414,35,22,35s0.51172-0.09766,0.70703-0.29297l6-6
	c0.28613-0.28613,0.37207-0.71582,0.2168-1.08984C28.76953,27.24365,28.4043,27,28,27h-5.58594L26.70703,22.70703z"/>
</svg>
