<?xml version="1.0" encoding="utf-8"?>
<!-- Generator: Adobe Illustrator 19.1.0, SVG Export Plug-In . SVG Version: 6.00 Build 0)  -->
<!DOCTYPE svg PUBLIC "-//W3C//DTD SVG 1.1//EN" "http://www.w3.org/Graphics/SVG/1.1/DTD/svg11.dtd">
<svg version="1.1" id="Layer_1" xmlns="http://www.w3.org/2000/svg" xmlns:xlink="http://www.w3.org/1999/xlink" x="0px" y="0px"
	 width="48px" height="48px" viewBox="0 0 48 48" enable-background="new 0 0 48 48" xml:space="preserve">
<path d="M42.53564,2.48877c-1.54346-0.90869-3.39795-0.93018-4.96387-0.06152l-10,5.55566C25.98535,8.86426,25,10.53906,25,12.35352
	V16v11h-6v-7v-4.68115c0-1.20166-0.71387-2.28418-1.81836-2.75732l-10-4.28564c-0.93018-0.39844-1.98926-0.3042-2.83301,0.25293
	C3.50391,9.08545,3,10.02148,3,11.0332V18c0,1.6543,1.3457,3,3,3h11v6H8c-0.55225,0-1,0.44727-1,1v8c0,0.55273,0.44775,1,1,1h3v9
	c0,0.55273,0.44775,1,1,1s1-0.44727,1-1v-9h18v9c0,0.55273,0.44775,1,1,1s1-0.44727,1-1v-9h3c0.55225,0,1-0.44727,1-1v-8
	c0-0.55273-0.44775-1-1-1h-9V17h13c2.75684,0,5-2.24316,5-5V6.79785C45,5.00732,44.07861,3.39648,42.53564,2.48877z M5,18v-6.9668
	c0-0.34229,0.16406-0.64648,0.44971-0.83496c0.16797-0.11084,0.35645-0.16699,0.54736-0.16699
	c0.13281,0,0.26758,0.02734,0.39648,0.08252l10,4.28564C16.76221,14.55762,17,14.91846,17,15.31885V19H6C5.44873,19,5,18.55127,5,18
	z M35,35H9v-6h26V35z M43,12c0,1.6543-1.3457,3-3,3H27v-2.64648c0-1.08887,0.59131-2.09375,1.54346-2.62256l10-5.55566
	c0.93701-0.52197,2.05078-0.5083,2.97803,0.03711C42.44727,4.75732,43,5.72363,43,6.79785V12z"/>
</svg>
