<?xml version="1.0" encoding="utf-8"?>
<!-- Generator: Adobe Illustrator 19.1.0, SVG Export Plug-In . SVG Version: 6.00 Build 0)  -->
<!DOCTYPE svg PUBLIC "-//W3C//DTD SVG 1.1//EN" "http://www.w3.org/Graphics/SVG/1.1/DTD/svg11.dtd">
<svg version="1.1" id="Layer_1" xmlns="http://www.w3.org/2000/svg" xmlns:xlink="http://www.w3.org/1999/xlink" x="0px" y="0px"
	 width="48px" height="48px" viewBox="0 0 48 48" enable-background="new 0 0 48 48" xml:space="preserve">
<path d="M46,27H33V8c0-0.55225-0.44727-1-1-1H16c-0.55273,0-1,0.44775-1,1v13H2c-0.55273,0-1,0.44775-1,1v18
	c0,0.55225,0.44727,1,1,1h14h16h14c0.55273,0,1-0.44775,1-1V28C47,27.44775,46.55273,27,46,27z M3,23h12v16H3V23z M17,9h14v30H17V9z
	 M45,39H33V29h12V39z"/>
</svg>
