<?xml version="1.0" encoding="utf-8"?>
<!-- Generator: Adobe Illustrator 19.1.0, SVG Export Plug-In . SVG Version: 6.00 Build 0)  -->
<!DOCTYPE svg PUBLIC "-//W3C//DTD SVG 1.1//EN" "http://www.w3.org/Graphics/SVG/1.1/DTD/svg11.dtd">
<svg version="1.1" id="Layer_1" xmlns="http://www.w3.org/2000/svg" xmlns:xlink="http://www.w3.org/1999/xlink" x="0px" y="0px"
	 width="48px" height="48px" viewBox="0 0 48 48" enable-background="new 0 0 48 48" xml:space="preserve">
<path d="M46,5c-2.75684,0-5,2.24316-5,5c0,2.04761,1.24005,3.80737,3.00635,4.57959l-8.06787,8.06787l-9.78467-8.15491
	C27.83081,13.68457,29,11.9826,29,10c0-2.75684-2.24316-5-5-5s-5,2.24316-5,5c0,1.9826,1.16919,3.68457,2.84619,4.49255
	l-9.78467,8.15491l-8.06787-8.06787C5.75995,13.80737,7,12.04761,7,10c0-2.75684-2.24316-5-5-5C1.44727,5,1,5.44727,1,6v8v28
	c0,0.55273,0.44727,1,1,1h44c0.55273,0,1-0.44727,1-1V14V6C47,5.44727,46.55273,5,46,5z M43,10c0-1.30371,0.83594-2.41602,2-2.8291
	v5.6582C43.83594,12.41602,43,11.30371,43,10z M24,7c1.6543,0,3,1.3457,3,3s-1.3457,3-3,3s-3-1.3457-3-3S22.3457,7,24,7z M12,25
	c0.22656,0,0.4541-0.07617,0.64062-0.23145L24,15.30243l11.35938,9.46613C35.5459,24.92383,35.77344,25,36,25
	c0.25684,0,0.5127-0.09863,0.70703-0.29297L45,16.41406V35H3V16.41406l8.29297,8.29297C11.4873,24.90137,11.74316,25,12,25z
	 M3,7.1709C4.16406,7.58398,5,8.69629,5,10s-0.83594,2.41602-2,2.8291V7.1709z M3,41v-4h42v4H3z"/>
</svg>
