<?xml version="1.0" encoding="utf-8"?>
<!-- Generator: Adobe Illustrator 19.1.0, SVG Export Plug-In . SVG Version: 6.00 Build 0)  -->
<!DOCTYPE svg PUBLIC "-//W3C//DTD SVG 1.1//EN" "http://www.w3.org/Graphics/SVG/1.1/DTD/svg11.dtd">
<svg version="1.1" id="Layer_1" xmlns="http://www.w3.org/2000/svg" xmlns:xlink="http://www.w3.org/1999/xlink" x="0px" y="0px"
	 width="48px" height="48px" viewBox="0 0 48 48" enable-background="new 0 0 48 48" xml:space="preserve">
<path d="M7,20c0,0.55273,0.44775,1,1,1h6c0.55225,0,1-0.44727,1-1s-0.44775-1-1-1H8C7.44775,19,7,19.44727,7,20z"/>
<path d="M2,28h6c0.55225,0,1-0.44727,1-1s-0.44775-1-1-1H2c-0.55225,0-1,0.44727-1,1S1.44775,28,2,28z"/>
<path d="M37,2c-2.75684,0-5,2.24316-5,5s2.24316,5,5,5s5-2.24316,5-5S39.75684,2,37,2z M37,10c-1.6543,0-3-1.3457-3-3s1.3457-3,3-3
	s3,1.3457,3,3S38.6543,10,37,10z"/>
<path d="M45.29297,15.29297l-3.46826,3.46875c-1.08301,1.08203-2.80029,1.17773-4.00244,0.21582L24.42041,8.45508
	c-1.99121-1.5918-4.854-1.43359-6.65918,0.36914l-3.46826,3.46875c-0.39062,0.39062-0.39062,1.02344,0,1.41406
	s1.02344,0.39062,1.41406,0l3.46826-3.46875c1.08301-1.08203,2.80078-1.17676,4.00244-0.21582l5.25793,4.12823l-7.1427,7.14227
	c-1.06396,1.06348-1.58838,2.53223-1.43994,4.0293c0.14844,1.49609,0.95117,2.83301,2.20215,3.66602l6.125,4.08398
	c0.23584,0.15723,0.39014,0.39844,0.43359,0.67773c0.04346,0.28027-0.03027,0.55664-0.22363,0.7998l-5.18701,6.84668
	c-0.3335,0.43945-0.24707,1.06738,0.19287,1.40039C23.57666,42.93359,23.78906,43,23.99902,43
	c0.30273,0,0.60156-0.13672,0.79785-0.39648l5.1709-6.8252c0.52393-0.65527,0.75098-1.50586,0.62207-2.33496
	c-0.12842-0.82812-0.60254-1.57031-1.30029-2.03516l-6.12549-4.08398c-0.75049-0.5-1.23193-1.30176-1.3208-2.19922
	c-0.08936-0.89844,0.22559-1.7793,0.86377-2.41797l7.31287-7.31244l6.55969,5.15033
	c0.91895,0.73438,2.02246,1.09668,3.12256,1.09668c1.28467,0,2.56445-0.49414,3.53662-1.46582l3.46826-3.46875
	c0.39062-0.39062,0.39062-1.02344,0-1.41406S45.68359,14.90234,45.29297,15.29297z"/>
<path d="M12.74463,36.47266c1.24951-0.41699,2.26465-1.28809,2.86523-2.45703l2.23145-3.47559
	c0.29834-0.46484,0.16357-1.08301-0.30078-1.38184c-0.46533-0.29883-1.0835-0.16406-1.38184,0.30176l-2.25879,3.51758
	c-0.01953,0.0293-0.03711,0.06055-0.05322,0.09277c-0.3584,0.7168-0.97461,1.25195-1.73486,1.50586L1.68359,38.05176
	c-0.52393,0.17383-0.80713,0.74023-0.63232,1.26465C1.19092,39.73535,1.58105,40,2,40c0.10449,0,0.21143-0.0166,0.31641-0.05176
	L12.74463,36.47266z"/>
</svg>
