<?xml version="1.0" encoding="utf-8"?>
<!-- Generator: Adobe Illustrator 19.1.0, SVG Export Plug-In . SVG Version: 6.00 Build 0)  -->
<!DOCTYPE svg PUBLIC "-//W3C//DTD SVG 1.1//EN" "http://www.w3.org/Graphics/SVG/1.1/DTD/svg11.dtd">
<svg version="1.1" id="Layer_1" xmlns="http://www.w3.org/2000/svg" xmlns:xlink="http://www.w3.org/1999/xlink" x="0px" y="0px"
	 width="48px" height="48px" viewBox="0 0 48 48" enable-background="new 0 0 48 48" xml:space="preserve">
<path d="M12,37c0.55225,0,1-0.44775,1-1V25h22v11c0,0.55225,0.44775,1,1,1s1-0.44775,1-1V12c0-0.55225-0.44775-1-1-1s-1,0.44775-1,1
	v11H13V12c0-0.55225-0.44775-1-1-1s-1,0.44775-1,1v24C11,36.55225,11.44775,37,12,37z"/>
<path d="M2,25h3v7c0,0.55225,0.44775,1,1,1s1-0.44775,1-1V16c0-0.55225-0.44775-1-1-1s-1,0.44775-1,1v7H2c-0.55225,0-1,0.44775-1,1
	S1.44775,25,2,25z"/>
<path d="M46,23h-3v-7c0-0.55225-0.44775-1-1-1s-1,0.44775-1,1v16c0,0.55225,0.44775,1,1,1s1-0.44775,1-1v-7h3
	c0.55225,0,1-0.44775,1-1S46.55225,23,46,23z"/>
</svg>
