<?xml version="1.0" encoding="utf-8"?>
<!-- Generator: Adobe Illustrator 19.1.0, SVG Export Plug-In . SVG Version: 6.00 Build 0)  -->
<!DOCTYPE svg PUBLIC "-//W3C//DTD SVG 1.1//EN" "http://www.w3.org/Graphics/SVG/1.1/DTD/svg11.dtd">
<svg version="1.1" id="Layer_1" xmlns="http://www.w3.org/2000/svg" xmlns:xlink="http://www.w3.org/1999/xlink" x="0px" y="0px"
	 width="48px" height="48px" viewBox="0 0 48 48" enable-background="new 0 0 48 48" xml:space="preserve">
<path d="M24,1C12.02344,1,2.18066,9.98926,1.10498,21.91016c-0.0249,0.27979,0.06836,0.55713,0.25781,0.76465
	C1.55225,22.88184,1.82031,23,2.10107,23h10.89801c-0.00488,2.66077-0.07086,6.43054-0.84528,10H2c-0.55225,0-1,0.44775-1,1v10
	c0,0.55225,0.44775,1,1,1c5.63672,0,9.49072-3.07275,11.45508-9.13232C13.54785,35.58105,13.63525,35.2915,13.71729,35H23v3
	c0,4.9624,4.0376,9,9,9s9-4.0376,9-9v-2c0-1.62402,1.35352-3.00537,2.78662-4.46777C45.3667,29.91992,47,28.25293,47,26
	l-0.00391-4.08984C45.93799,10.18506,35.83691,1,24,1z M11.55225,35.25098C9.98438,40.08936,7.18066,42.62012,3,42.96045V35h8.63184
	C11.60596,35.08398,11.57959,35.16748,11.55225,35.25098z M14.19727,33c0.73438-3.63751,0.79724-7.35455,0.80194-10H20
	c1.6543,0,3,1.3457,3,3v7H14.19727z M45,26c0,1.43652-1.2832,2.74609-2.6416,4.13232C40.78418,31.73877,39,33.55957,39,36v2
	c0,3.85986-3.14014,7-7,7s-7-3.14014-7-7V26c0-2.75684-2.24316-5-5-5H3.22314C4.68652,10.66406,13.43359,3,24,3
	c10.81201,0,20.03809,8.38525,21,19V26z"/>
<path d="M32,35c-1.6543,0-3,1.3457-3,3s1.3457,3,3,3s3-1.3457,3-3S33.6543,35,32,35z M32,39c-0.55127,0-1-0.44873-1-1s0.44873-1,1-1
	s1,0.44873,1,1S32.55127,39,32,39z"/>
</svg>
