<?xml version="1.0" encoding="utf-8"?>
<!-- Generator: Adobe Illustrator 19.1.0, SVG Export Plug-In . SVG Version: 6.00 Build 0)  -->
<!DOCTYPE svg PUBLIC "-//W3C//DTD SVG 1.1//EN" "http://www.w3.org/Graphics/SVG/1.1/DTD/svg11.dtd">
<svg version="1.1" id="Layer_1" xmlns="http://www.w3.org/2000/svg" xmlns:xlink="http://www.w3.org/1999/xlink" x="0px" y="0px"
	 width="48px" height="48px" viewBox="0 0 48 48" enable-background="new 0 0 48 48" xml:space="preserve">
<path d="M23.56934,1.00391C10.91406,1.23584,1,11.33691,1,24v12c0,6.06543,4.93457,11,11,11h18c9.37402,0,17-7.62598,17-17v-6
	c0-6.22314-2.44629-12.05225-6.88672-16.4126C35.67188,3.22754,29.76855,0.89551,23.56934,1.00391z M3.60822,19H26.4502
	c0.97559,0,1.86328,0.4541,2.43359,1.24561c0.57129,0.79199,0.72168,1.77734,0.41309,2.70312l-3.33301,9.99951
	C25.55371,34.17578,24.41016,35,23.11719,35H3V24C3,22.27039,3.22504,20.60254,3.60822,19z M45,30c0,8.27148-6.72852,15-15,15H12
	c-4.62457,0-8.44159-3.50653-8.94104-8h20.05823c2.15527,0,4.06152-1.37402,4.74316-3.41895l3.33301-9.99951
	c0.51465-1.54346,0.26465-3.18555-0.68652-4.50537C29.55566,17.75684,28.07715,17,26.4502,17H4.19226
	C6.99463,8.92615,14.51495,3.17029,23.60645,3.00391C29.2793,2.9082,34.6582,5.03418,38.71191,9.01465
	C42.7666,12.99609,45,18.31787,45,24V30z"/>
</svg>
