<?xml version="1.0" encoding="utf-8"?>
<!-- Generator: Adobe Illustrator 19.1.0, SVG Export Plug-In . SVG Version: 6.00 Build 0)  -->
<!DOCTYPE svg PUBLIC "-//W3C//DTD SVG 1.1//EN" "http://www.w3.org/Graphics/SVG/1.1/DTD/svg11.dtd">
<svg version="1.1" id="Layer_1" xmlns="http://www.w3.org/2000/svg" xmlns:xlink="http://www.w3.org/1999/xlink" x="0px" y="0px"
	 width="48px" height="48px" viewBox="0 0 48 48" enable-background="new 0 0 48 48" xml:space="preserve">
<path d="M43.74396,24.09546c3.09595-6.06604,2.19836-12.80988-2.41583-17.42358c-2.91699-2.91699-6.76318-4.42432-10.80078-4.24268
	c-4.2251,0.18896-8.31445,2.14502-11.82617,5.65674c-2.16168,2.16125-3.71796,4.55878-4.65576,7.03015
	c-0.05139,0.09113-0.08521,0.18439-0.10577,0.28436c-1.29736,3.61273-1.26257,7.37115,0.23517,10.78168L3.51465,34.90381
	c-0.65479,0.53613-1.0542,1.32812-1.09668,2.17334c-0.04199,0.84424,0.27686,1.67188,0.875,2.26953l5.36035,5.36035
	c0.56299,0.56299,1.3291,0.87842,2.12158,0.87842c0.04932,0,0.09863-0.00098,0.14795-0.00342
	c0.84521-0.04248,1.63721-0.44189,2.17334-1.09668l8.72217-10.66064c3.36627,1.47217,7.16718,1.52905,10.79919,0.23212
	c0.08112-0.01825,0.15784-0.04156,0.23328-0.08026c0.37067-0.13867,0.73737-0.29712,1.10352-0.46454
	C35.16864,35.59406,37.42078,37,40,37c3.85986,0,7-3.14014,7-7C47,27.5177,45.69757,25.33868,43.74396,24.09546z M21.99268,31.6958
	c-0.4209-0.21387-0.93018-0.10547-1.22754,0.25781l-9.2168,11.26514c-0.18115,0.22119-0.43848,0.35107-0.72461,0.36572
	c-0.28613,0.01025-0.5542-0.08936-0.75635-0.2915l-5.36035-5.36035c-0.20215-0.20215-0.30566-0.4707-0.2915-0.75635
	c0.01465-0.28613,0.14453-0.54346,0.36572-0.72461l11.26514-9.2168c0.36377-0.29736,0.47119-0.80859,0.25781-1.22705
	c-1.37231-2.69861-1.66156-5.633-0.94373-8.53455l15.14746,15.14746C27.58051,33.33856,24.64594,33.04486,21.99268,31.6958z
	 M32.63702,31.92169l-16.5683-16.5683c0.85736-2.03241,2.20886-4.01593,4.04651-5.85339
	c3.15234-3.15234,6.78369-4.90674,10.50146-5.07275c3.47754-0.15625,6.78223,1.14355,9.29736,3.65869
	c4.06464,4.06415,4.79675,9.82123,2.00427,15.18781C41.3078,23.0993,40.66577,23,40,23c-3.85986,0-7,3.14014-7,7
	c0,0.57159,0.07642,1.12439,0.20624,1.65649C33.01642,31.74518,32.82758,31.84186,32.63702,31.92169z M40,35
	c-2.75684,0-5-2.24316-5-5s2.24316-5,5-5s5,2.24316,5,5S42.75684,35,40,35z"/>
</svg>
