<?xml version="1.0" encoding="utf-8"?>
<!-- Generator: Adobe Illustrator 19.1.0, SVG Export Plug-In . SVG Version: 6.00 Build 0)  -->
<!DOCTYPE svg PUBLIC "-//W3C//DTD SVG 1.1//EN" "http://www.w3.org/Graphics/SVG/1.1/DTD/svg11.dtd">
<svg version="1.1" id="Layer_1" xmlns="http://www.w3.org/2000/svg" xmlns:xlink="http://www.w3.org/1999/xlink" x="0px" y="0px"
	 width="48px" height="48px" viewBox="0 0 48 48" enable-background="new 0 0 48 48" xml:space="preserve">
<path d="M38.73383,9.05902c-0.00848-0.00934-0.01105-0.02161-0.01996-0.0307c-0.01593-0.01617-0.03735-0.02173-0.05408-0.03662
	C34.87201,5.29114,29.70123,3,24,3S13.12799,5.29114,9.34021,8.9917C9.32349,9.00659,9.30206,9.01215,9.28613,9.02832
	c-0.00891,0.00909-0.01147,0.02136-0.01996,0.0307C5.40259,12.86957,3,18.15759,3,24c0,5.84204,2.40247,11.13,6.26587,14.94055
	c0.00861,0.00946,0.01123,0.02191,0.02026,0.03113c0.01599,0.01636,0.0376,0.02173,0.05438,0.03674
	C13.12823,42.70892,18.29889,45,24,45s10.87177-2.29114,14.65955-5.99164c0.01678-0.01495,0.03839-0.02039,0.05432-0.03668
	c0.00903-0.00922,0.01166-0.02167,0.02026-0.03113C42.59753,35.13,45,29.84204,45,24
	C45,18.15759,42.59741,12.86957,38.73383,9.05902z M9.99976,11.19995c0.97137,1.05945,1.81567,2.20374,2.51318,3.42542
	l-0.96021,0.4801c-0.49414,0.24707-0.69434,0.84766-0.44727,1.3418C11.28076,16.79785,11.63379,17,12.00098,17
	c0.1499,0,0.30273-0.03369,0.44629-0.10547l0.96735-0.48364C14.31677,18.4751,14.8316,20.69867,14.95068,23H14
	c-0.55225,0-1,0.44775-1,1s0.44775,1,1,1h0.95068c-0.11914,2.30121-0.63403,4.52472-1.53632,6.58905l-0.9671-0.48358
	c-0.49561-0.24609-1.09521-0.0459-1.3418,0.44727c-0.24707,0.49414-0.04688,1.09473,0.44727,1.3418l0.95996,0.47998
	c-0.69745,1.22156-1.54175,2.36578-2.513,3.42542C6.90582,33.41882,5,28.93329,5,24C5,19.06665,6.90582,14.58105,9.99976,11.19995z
	 M11.42297,38.20294c1.11951-1.21271,2.09033-2.5257,2.88348-3.93152l1.24628,0.62311C15.69629,34.96582,15.84912,35,15.99902,35
	c0.36719,0,0.72021-0.20215,0.89551-0.55273c0.24707-0.49414,0.04688-1.09473-0.44727-1.3418l-1.245-0.6225
	c1.0368-2.34015,1.62598-4.86615,1.74841-7.48297H18c0.55225,0,1-0.44775,1-1s-0.44775-1-1-1h-1.04932
	c-0.12244-2.61707-0.71149-5.14319-1.74817-7.48309l1.24475-0.62238c0.49414-0.24707,0.69434-0.84766,0.44727-1.3418
	c-0.24658-0.49414-0.84668-0.69531-1.3418-0.44727l-1.24603,0.62305c-0.79315-1.40588-1.7641-2.71881-2.88367-3.93152
	C14.77771,6.82288,19.17487,5,24,5s9.22229,1.82288,12.57697,4.797c-1.11957,1.21271-2.09052,2.52563-2.88367,3.93152
	l-1.24603-0.62305c-0.49609-0.24805-1.09521-0.04688-1.3418,0.44727c-0.24707,0.49414-0.04688,1.09473,0.44727,1.3418
	l1.24475,0.62238C31.7608,17.85681,31.17175,20.38293,31.04932,23H30c-0.55225,0-1,0.44775-1,1s0.44775,1,1,1h1.04932
	c0.12244,2.61682,0.71161,5.14282,1.74841,7.48297l-1.245,0.6225c-0.49414,0.24707-0.69434,0.84766-0.44727,1.3418
	C31.28076,34.79785,31.63379,35,32.00098,35c0.1499,0,0.30273-0.03418,0.44629-0.10547l1.24628-0.62311
	c0.79315,1.40582,1.76398,2.71875,2.88348,3.93152C33.22235,41.17712,28.8252,43,24,43S14.77765,41.17712,11.42297,38.20294z
	 M38.00031,36.79993c-0.97125-1.05963-1.81555-2.20386-2.513-3.42542l0.95996-0.47998
	c0.49414-0.24707,0.69434-0.84766,0.44727-1.3418c-0.24707-0.49316-0.84668-0.69336-1.3418-0.44727l-0.9671,0.48358
	C33.68335,29.52472,33.16846,27.30121,33.04932,25H34c0.55225,0,1-0.44775,1-1s-0.44775-1-1-1h-0.95068
	c0.11908-2.30133,0.63391-4.5249,1.53607-6.58911l0.96735,0.48364C35.69629,16.96631,35.84912,17,35.99902,17
	c0.36719,0,0.72021-0.20215,0.89551-0.55273c0.24707-0.49414,0.04688-1.09473-0.44727-1.3418l-0.96021-0.4801
	c0.69751-1.22168,1.54181-2.36597,2.51318-3.42542C41.09418,14.58105,43,19.06665,43,24
	C43,28.93329,41.09418,33.41882,38.00031,36.79993z"/>
</svg>
