<?xml version="1.0" encoding="utf-8"?>
<!-- Generator: Adobe Illustrator 19.1.0, SVG Export Plug-In . SVG Version: 6.00 Build 0)  -->
<!DOCTYPE svg PUBLIC "-//W3C//DTD SVG 1.1//EN" "http://www.w3.org/Graphics/SVG/1.1/DTD/svg11.dtd">
<svg version="1.1" id="Layer_1" xmlns="http://www.w3.org/2000/svg" xmlns:xlink="http://www.w3.org/1999/xlink" x="0px" y="0px"
	 width="16px" height="16px" viewBox="0 0 16 16" enable-background="new 0 0 16 16" xml:space="preserve">
<path fill="#444444" d="M15,5c0-1.1-0.9-2-2-2c-0.4,0-0.8,0.1-1.1,0.3C11.6,1.4,10,0,8,0S4.4,1.4,4.1,3.3C3.8,3.1,3.4,3,3,3
	C1.9,3,1,3.9,1,5c0,0.7,0.4,1.4,1,1.7V9c0,1.1,0.2,2,0.5,2.8C2.7,12.6,3,13.5,3,15c0,0.6,0.4,1,1,1h8c0.6,0,1-0.4,1-1
	c0-1.5,0.3-2.4,0.5-3.2C13.8,11,14,10.1,14,9V6.7C14.6,6.4,15,5.7,15,5z M12,9c0,0.9-0.2,1.4-0.4,2.2C11.4,12,11.1,12.8,11,14H5
	c-0.1-1.2-0.3-2-0.6-2.8C4.2,10.4,4,9.9,4,9V7c0.5,0,1.2,0,2,0v2.5C6,10.3,6.7,11,7.5,11S9,10.3,9,9.5V7c1.2,0,2.2,0,3,0V9z"/>
</svg>
