<?xml version="1.0" encoding="utf-8"?>
<!-- Generator: Adobe Illustrator 19.1.0, SVG Export Plug-In . SVG Version: 6.00 Build 0)  -->
<!DOCTYPE svg PUBLIC "-//W3C//DTD SVG 1.1//EN" "http://www.w3.org/Graphics/SVG/1.1/DTD/svg11.dtd">
<svg version="1.1" id="Layer_1" xmlns="http://www.w3.org/2000/svg" xmlns:xlink="http://www.w3.org/1999/xlink" x="0px" y="0px"
	 width="16px" height="16px" viewBox="0 0 16 16" enable-background="new 0 0 16 16" xml:space="preserve">
<path data-color="color-2" fill="#444444" d="M15.3,13.1l-0.8-1.7l0,0C13.2,12.1,11.2,13,8,13c-3.2,0-5.2-1-6.5-1.5l0,0l-0.8,1.7
	c-0.3,0.5,0,1.1,0.5,1.4C3.3,15.5,5.6,16,8,16s4.7-0.5,6.8-1.5C15.3,14.3,15.6,13.7,15.3,13.1z"/>
<path fill="#444444" d="M8.9,0.5c-0.3-0.7-1.4-0.7-1.8,0L6.2,2.4C6.7,2.7,7,3.3,7,4c0,1.1-0.9,2-2,2C4.8,6,4.6,6,4.4,5.9l-2,3.9
	c3.8,1.6,6.7,1.9,11.1,0L8.9,0.5z M9,9C8.4,9,8,8.6,8,8c0-0.6,0.4-1,1-1s1,0.4,1,1C10,8.6,9.6,9,9,9z"/>
</svg>
