<?xml version="1.0" encoding="utf-8"?>
<!-- Generator: Adobe Illustrator 19.1.0, SVG Export Plug-In . SVG Version: 6.00 Build 0)  -->
<!DOCTYPE svg PUBLIC "-//W3C//DTD SVG 1.1//EN" "http://www.w3.org/Graphics/SVG/1.1/DTD/svg11.dtd">
<svg version="1.1" id="Layer_1" xmlns="http://www.w3.org/2000/svg" xmlns:xlink="http://www.w3.org/1999/xlink" x="0px" y="0px"
	 width="16px" height="16px" viewBox="0 0 16 16" enable-background="new 0 0 16 16" xml:space="preserve">
<path fill="#444444" d="M15,2H1C0.4,2,0,2.4,0,3v10c0,0.6,0.4,1,1,1h14c0.6,0,1-0.4,1-1V3C16,2.4,15.6,2,15,2z M3.5,12
	C2.7,12,2,11.3,2,10.5S2.7,9,3.5,9S5,9.7,5,10.5S4.3,12,3.5,12z M3.5,7C2.7,7,2,6.3,2,5.5S2.7,4,3.5,4S5,4.7,5,5.5S4.3,7,3.5,7z
	 M8.5,12C7.7,12,7,11.3,7,10.5S7.7,9,8.5,9S10,9.7,10,10.5S9.3,12,8.5,12z M8.5,7C7.7,7,7,6.3,7,5.5S7.7,4,8.5,4S10,4.7,10,5.5
	S9.3,7,8.5,7z M14,12h-2V4h2V12z"/>
</svg>
