<?xml version="1.0" encoding="utf-8"?>
<!-- Generator: Adobe Illustrator 19.1.0, SVG Export Plug-In . SVG Version: 6.00 Build 0)  -->
<!DOCTYPE svg PUBLIC "-//W3C//DTD SVG 1.1//EN" "http://www.w3.org/Graphics/SVG/1.1/DTD/svg11.dtd">
<svg version="1.1" id="Layer_1" xmlns="http://www.w3.org/2000/svg" xmlns:xlink="http://www.w3.org/1999/xlink" x="0px" y="0px"
	 width="16px" height="16px" viewBox="0 0 16 16" enable-background="new 0 0 16 16" xml:space="preserve">
<path fill="#444444" d="M14.8,6.4C14.6,6.1,14.3,6,14,6h-1V2h-2v4h-1V3H8v3H7V0H5v6H4V2H2v4H1C0.7,6,0.4,6.1,0.2,6.4S0,6.9,0,7.2
	l2,8C2.1,15.7,2.5,16,3,16h9c0.5,0,0.9-0.3,1-0.8l2-8C15,6.9,15,6.6,14.8,6.4z M7.5,12C6.7,12,6,11.3,6,10.5S6.7,9,7.5,9
	S9,9.7,9,10.5S8.3,12,7.5,12z"/>
</svg>
