<?xml version="1.0" encoding="utf-8"?>
<!-- Generator: Adobe Illustrator 19.1.0, SVG Export Plug-In . SVG Version: 6.00 Build 0)  -->
<!DOCTYPE svg PUBLIC "-//W3C//DTD SVG 1.1//EN" "http://www.w3.org/Graphics/SVG/1.1/DTD/svg11.dtd">
<svg version="1.1" id="Layer_1" xmlns="http://www.w3.org/2000/svg" xmlns:xlink="http://www.w3.org/1999/xlink" x="0px" y="0px"
	 width="16px" height="16px" viewBox="0 0 16 16" enable-background="new 0 0 16 16" xml:space="preserve">
<path data-color="color-2" fill="#444444" d="M10,12.3c-0.8,0.4-1.8,0.6-2.7,0.6c-0.5,0-1-0.1-1.4-0.2C6.6,14.7,6.5,16,6.5,16h2.9
	C9.5,16,9.2,14.2,10,12.3z"/>
<path fill="#444444" d="M13.1,3.6C12.9,2,11.5,0.7,9.8,0.7c-0.9,0-1.8,0.4-2.4,1C6.8,0.7,5.7,0,4.4,0c-2,0-3.6,1.6-3.6,3.6
	c0,0.4,0.1,0.8,0.2,1.1C0.4,5.2,0,5.8,0,6.5c0,1.2,1,2.2,2.2,2.2c0.4,0,0.8-0.1,1.1-0.3c0.7,1.5,2.2,2.5,3.9,2.5
	c1.6,0,3.1-0.9,3.8-2.3c0.5,0.5,1.2,0.8,2,0.8c1.6,0,2.9-1.3,2.9-2.9C16,4.9,15,3.6,13.1,3.6z"/>
</svg>
