<?xml version="1.0" encoding="utf-8"?>
<!-- Generator: Adobe Illustrator 19.1.0, SVG Export Plug-In . SVG Version: 6.00 Build 0)  -->
<!DOCTYPE svg PUBLIC "-//W3C//DTD SVG 1.1//EN" "http://www.w3.org/Graphics/SVG/1.1/DTD/svg11.dtd">
<svg version="1.1" id="Layer_1" xmlns="http://www.w3.org/2000/svg" xmlns:xlink="http://www.w3.org/1999/xlink" x="0px" y="0px"
	 width="16px" height="16px" viewBox="0 0 16 16" enable-background="new 0 0 16 16" xml:space="preserve">
<path fill="#444444" d="M13.1,2.2c-0.4,0-0.8,0.1-1.2,0.3C11.2,1,9.7,0,8,0S4.8,1,4.1,2.4C3.7,2.3,3.3,2.2,2.9,2.2
	C1.3,2.2,0,3.5,0,5.1C0,6.7,1.3,8,2.9,8c0.7,0,1.4-0.3,1.9-0.7C5.6,8.2,6.7,8.7,8,8.7s2.4-0.6,3.2-1.4C11.7,7.7,12.4,8,13.1,8
	C14.7,8,16,6.7,16,5.1C16,3.5,14.7,2.2,13.1,2.2z"/>
<path data-color="color-2" fill="#444444" d="M13.1,10c-0.6,0-1.1-0.1-1.6-0.3c-1,0.7-2.2,1-3.4,1s-2.4-0.4-3.4-1C4,9.9,3.5,10,2.9,10
	c-0.6,0-1.1-0.1-1.6-0.3l1.5,5.6c0.1,0.4,0.5,0.7,1,0.7h8.5c0.5,0,0.8-0.3,1-0.7l1.5-5.6C14.2,9.9,13.7,10,13.1,10z"/>
</svg>
