<?xml version="1.0" encoding="utf-8"?>
<!-- Generator: Adobe Illustrator 19.1.0, SVG Export Plug-In . SVG Version: 6.00 Build 0)  -->
<!DOCTYPE svg PUBLIC "-//W3C//DTD SVG 1.1//EN" "http://www.w3.org/Graphics/SVG/1.1/DTD/svg11.dtd">
<svg version="1.1" id="Layer_1" xmlns="http://www.w3.org/2000/svg" xmlns:xlink="http://www.w3.org/1999/xlink" x="0px" y="0px"
	 width="16px" height="16px" viewBox="0 0 16 16" enable-background="new 0 0 16 16" xml:space="preserve">
<path fill="#444444" d="M12.5,1C10,1,6,1,3.5,1C1.6,1,0,2.6,0,4.5c0,1.8,1.3,3.2,3,3.4V14c0,0.6,0.4,1,1,1h8c0.6,0,1-0.4,1-1V7.9
	c1.7-0.2,3-1.7,3-3.4C16,2.6,14.4,1,12.5,1z M5,4c0-0.6,0.4-1,1-1s1,0.4,1,1c0,0.6-0.4,1-1,1S5,4.6,5,4z M7,12c-0.6,0-1-0.4-1-1
	c0-0.6,0.4-1,1-1s1,0.4,1,1C8,11.6,7.6,12,7,12z M10,8C9.4,8,9,7.6,9,7c0-0.6,0.4-1,1-1s1,0.4,1,1C11,7.6,10.6,8,10,8z"/>
</svg>
