<?xml version="1.0" encoding="utf-8"?>
<!-- Generator: Adobe Illustrator 19.1.0, SVG Export Plug-In . SVG Version: 6.00 Build 0)  -->
<!DOCTYPE svg PUBLIC "-//W3C//DTD SVG 1.1//EN" "http://www.w3.org/Graphics/SVG/1.1/DTD/svg11.dtd">
<svg version="1.1" id="Layer_1" xmlns="http://www.w3.org/2000/svg" xmlns:xlink="http://www.w3.org/1999/xlink" x="0px" y="0px"
	 width="16px" height="16px" viewBox="0 0 16 16" enable-background="new 0 0 16 16" xml:space="preserve">
<path fill="#444444" d="M11,5c-0.9,0-1.3-0.5-2.1-1.4C8,2.5,6.8,1,4,1C1.6,1,0,2.6,0,5c0,0.1,0,4,0,4c0,2.3,2.2,6,8,6
	c4.4,0,8-0.3,8-3.8V8C16,6.1,14.1,5,11,5z M4.6,4.6c0.7,0,2.1,0.8,2.1,1.5c0,0.5-1.2,1-2,0.9C4.1,6.8,3.5,6.1,3.5,5.6
	C3.5,5.1,3.9,4.6,4.6,4.6z M14,11.2C14,12,14,13,8,13c-4.3,0-6-2.4-6-4c1.3,1.1,3.2,2,6,2l1.1,0c0.3,0,0.6,0,0.9,0
	c1.8,0,3,0,3.9-0.3V11.2z"/>
</svg>
