<?xml version="1.0" encoding="utf-8"?>
<!-- Generator: Adobe Illustrator 19.1.0, SVG Export Plug-In . SVG Version: 6.00 Build 0)  -->
<!DOCTYPE svg PUBLIC "-//W3C//DTD SVG 1.1//EN" "http://www.w3.org/Graphics/SVG/1.1/DTD/svg11.dtd">
<svg version="1.1" id="Layer_1" xmlns="http://www.w3.org/2000/svg" xmlns:xlink="http://www.w3.org/1999/xlink" x="0px" y="0px"
	 width="16px" height="16px" viewBox="0 0 16 16" enable-background="new 0 0 16 16" xml:space="preserve">
<polygon data-color="color-2" fill="#444444" points="11,2 10,0 6,0 5,2 0,2 0,4 16,4 16,2 "/>
<path fill="#444444" d="M1.2,6L2,15.1c0,0.5,0.5,0.9,1,0.9h10c0.5,0,0.9-0.4,1-0.9L14.8,6H1.2z M8,13c-1.1,0-2-0.9-2-2
	c0-1.1,0.9-2,2-2s2,0.9,2,2C10,12.1,9.1,13,8,13z"/>
</svg>
