<?xml version="1.0" encoding="utf-8"?>
<!-- Generator: Adobe Illustrator 19.1.0, SVG Export Plug-In . SVG Version: 6.00 Build 0)  -->
<!DOCTYPE svg PUBLIC "-//W3C//DTD SVG 1.1//EN" "http://www.w3.org/Graphics/SVG/1.1/DTD/svg11.dtd">
<svg version="1.1" id="Layer_1" xmlns="http://www.w3.org/2000/svg" xmlns:xlink="http://www.w3.org/1999/xlink" x="0px" y="0px"
	 width="16px" height="16px" viewBox="0 0 16 16" enable-background="new 0 0 16 16" xml:space="preserve">
<path fill="#444444" d="M1,12L1,12c0,1.7,1.3,3,3,3h8c1.7,0,3-1.3,3-3v0H1z"/>
<path data-color="color-2" fill="#444444" d="M15,10H1c-0.6,0-1-0.4-1-1v0c0-0.6,0.4-1,1-1h14c0.6,0,1,0.4,1,1v0C16,9.6,15.6,10,15,10z"/>
<path fill="#444444" d="M9,0H7C3.7,0,1,2.7,1,6h14C15,2.7,12.3,0,9,0z M6,4C5.4,4,5,3.6,5,3c0-0.6,0.4-1,1-1s1,0.4,1,1
	C7,3.6,6.6,4,6,4z M11,5c-0.6,0-1-0.4-1-1c0-0.6,0.4-1,1-1s1,0.4,1,1C12,4.6,11.6,5,11,5z"/>
</svg>
