<?xml version="1.0" encoding="utf-8"?>
<!-- Generator: Adobe Illustrator 19.1.0, SVG Export Plug-In . SVG Version: 6.00 Build 0)  -->
<!DOCTYPE svg PUBLIC "-//W3C//DTD SVG 1.1//EN" "http://www.w3.org/Graphics/SVG/1.1/DTD/svg11.dtd">
<svg version="1.1" id="Layer_1" xmlns="http://www.w3.org/2000/svg" xmlns:xlink="http://www.w3.org/1999/xlink" x="0px" y="0px"
	 width="16px" height="16px" viewBox="0 0 16 16" enable-background="new 0 0 16 16" xml:space="preserve">
<path fill="#444444" d="M15,5c0-1.7-1.3-3-3-3c-0.8,0-1.5,0.3-2,0.8C9.7,2.5,9.4,2.3,9,2.2V0H7v2.2C6.6,2.3,6.3,2.5,6,2.8
	C5.5,2.3,4.8,2,4,2C2.3,2,1,3.3,1,5c0,1.4,0.9,2.5,2.2,2.9C3.1,8.2,3,8.6,3,9c0,1.4,0.9,2.5,2.2,2.9C5.1,12.2,5,12.6,5,13
	c0,1.7,1.3,3,3,3s3-1.3,3-3c0-0.4-0.1-0.8-0.2-1.1C12.1,11.5,13,10.4,13,9c0-0.4-0.1-0.8-0.2-1.1C14.1,7.5,15,6.4,15,5z M8,4
	c0.6,0,1,0.4,1,1S8.6,6,8,6S7,5.6,7,5S7.4,4,8,4z M4,4c0.6,0,1,0.4,1,1S4.6,6,4,6S3,5.6,3,5S3.4,4,4,4z M6,8c0.6,0,1,0.4,1,1
	s-0.4,1-1,1S5,9.6,5,9S5.4,8,6,8z M8,14c-0.6,0-1-0.4-1-1s0.4-1,1-1s1,0.4,1,1S8.6,14,8,14z M10,10c-0.6,0-1-0.4-1-1s0.4-1,1-1
	s1,0.4,1,1S10.6,10,10,10z M12,6c-0.6,0-1-0.4-1-1s0.4-1,1-1s1,0.4,1,1S12.6,6,12,6z"/>
</svg>
