<?xml version="1.0" encoding="utf-8"?>
<!-- Generator: Adobe Illustrator 19.1.0, SVG Export Plug-In . SVG Version: 6.00 Build 0)  -->
<!DOCTYPE svg PUBLIC "-//W3C//DTD SVG 1.1//EN" "http://www.w3.org/Graphics/SVG/1.1/DTD/svg11.dtd">
<svg version="1.1" id="Layer_1" xmlns="http://www.w3.org/2000/svg" xmlns:xlink="http://www.w3.org/1999/xlink" x="0px" y="0px"
	 width="16px" height="16px" viewBox="0 0 16 16" enable-background="new 0 0 16 16" xml:space="preserve">
<path fill="#444444" d="M15.6,0.4c-0.6-0.6-1.6-0.6-2.2,0l-0.9,0.9l0,0c-0.7-0.7-1.8-0.7-2.5,0L1.4,10c-0.7,0.7-0.7,1.8,0,2.5l0,0
	l-0.9,0.9c-0.6,0.6-0.6,1.6,0,2.2c0.6,0.6,1.6,0.6,2.2,0l0.9-0.9l0,0c0.7,0.7,1.8,0.7,2.5,0L14.6,6c0.7-0.7,0.7-1.8,0-2.5l0,0
	l0.9-0.9C16.1,2,16.1,1,15.6,0.4z"/>
</svg>
