<?xml version="1.0" encoding="utf-8"?>
<!-- Generator: Adobe Illustrator 19.1.0, SVG Export Plug-In . SVG Version: 6.00 Build 0)  -->
<!DOCTYPE svg PUBLIC "-//W3C//DTD SVG 1.1//EN" "http://www.w3.org/Graphics/SVG/1.1/DTD/svg11.dtd">
<svg version="1.1" id="Layer_1" xmlns="http://www.w3.org/2000/svg" xmlns:xlink="http://www.w3.org/1999/xlink" x="0px" y="0px"
	 width="16px" height="16px" viewBox="0 0 16 16" enable-background="new 0 0 16 16" xml:space="preserve">
<path fill="#444444" d="M9,16H7c-3.9,0-7-3.1-7-7v0h16v0C16,12.9,12.9,16,9,16z"/>
<path data-color="color-2" fill="#444444" d="M0.5,4.9l2.2,1.3C2.6,6.4,2.5,6.7,2.4,7h11.3c-0.8-2.3-3-4-5.7-4C7.5,3,7,3.1,6.6,3.2
	L3.7,0.3c-0.4-0.4-1-0.4-1.4,0s-0.4,1,0,1.4L4.6,4C4.4,4.2,4.2,4.4,3.9,4.6L1.5,3.1C1,2.9,0.4,3,0.1,3.5C-0.1,4,0,4.6,0.5,4.9z"/>
</svg>
