<?xml version="1.0" encoding="utf-8"?>
<!-- Generator: Adobe Illustrator 19.1.0, SVG Export Plug-In . SVG Version: 6.00 Build 0)  -->
<!DOCTYPE svg PUBLIC "-//W3C//DTD SVG 1.1//EN" "http://www.w3.org/Graphics/SVG/1.1/DTD/svg11.dtd">
<svg version="1.1" id="Layer_1" xmlns="http://www.w3.org/2000/svg" xmlns:xlink="http://www.w3.org/1999/xlink" x="0px" y="0px"
	 width="16px" height="16px" viewBox="0 0 16 16" enable-background="new 0 0 16 16" xml:space="preserve">
<path fill="#444444" d="M14.4,10c-4.4,0.8-5.3,1.3-6.6-0.5C7.4,9.1,7.4,8.2,7.4,7.5c0-0.5,0-1-0.1-1.5C7.1,5,6.4,4.2,5.6,3.7
	c0.3-0.2,0.5-0.6,0.4-1C5.9,2.2,5.3,1.8,4.8,1.9C4.1,2,3.5,2.5,3,3.3c-2,0.2-3,1.5-3,3.6c0,3,1.2,5.5,2.2,6.6
	C3.7,15.1,5.8,16,8.1,16c3,0,5.7-1.5,7.6-3.7c0.4-0.4,0.4-1.1,0.1-1.6C15.5,10.2,15,9.9,14.4,10z M8.2,14C8.1,14,8.1,14,8.2,14
	c-1.8,0-3.4-0.7-4.4-1.9c-0.9-1-1.7-3-1.7-5.3C2,6,2.2,5.6,2.6,5.4c0,0.8,0.5,1.2,1,1.2c0.6,0,1-0.5,1-1.1C5,5.7,5.2,6,5.3,6.4
	C5.4,6.7,5.4,7,5.4,7.5c0,1,0,2.3,0.8,3.3c1.8,2.4,3.7,2.2,6.5,1.6C11.3,13.4,9.7,14,8.2,14z"/>
<path data-color="color-2" fill="#444444" d="M12,5c0.3,0,0.5-0.1,0.7-0.3l2-2c0.4-0.4,0.4-1,0-1.4s-1-0.4-1.4,0l-2,2
	c-0.4,0.4-0.4,1,0,1.4C11.5,4.9,11.7,5,12,5z"/>
<path data-color="color-2" fill="#444444" d="M13,6c-0.6,0-1,0.4-1,1s0.4,1,1,1h2c0.6,0,1-0.4,1-1s-0.4-1-1-1H13z"/>
<path data-color="color-2" fill="#444444" d="M9,4c0.6,0,1-0.4,1-1V1c0-0.6-0.4-1-1-1S8,0.4,8,1v2C8,3.6,8.4,4,9,4z"/>
</svg>
