<?xml version="1.0" encoding="utf-8"?>
<!-- Generator: Adobe Illustrator 20.1.0, SVG Export Plug-In . SVG Version: 6.00 Build 0)  -->
<!DOCTYPE svg PUBLIC "-//W3C//DTD SVG 1.1//EN" "http://www.w3.org/Graphics/SVG/1.1/DTD/svg11.dtd">
<svg version="1.1" id="Layer_1" xmlns="http://www.w3.org/2000/svg" xmlns:xlink="http://www.w3.org/1999/xlink" x="0px" y="0px"
	 width="32px" height="32px" viewBox="0 0 32 32" enable-background="new 0 0 32 32" xml:space="preserve">
<path d="M31,5H15.5l-2.7-3.6C12.611,1.148,12.314,1,12,1H1C0.447,1,0,1.447,0,2v28c0,0.553,0.447,1,1,1h30c0.553,0,1-0.447,1-1V6
	C32,5.447,31.553,5,31,5z M20.5,12c1.381,0,2.5,1.119,2.5,2.5c0,1.381-1.119,2.5-2.5,2.5S18,15.881,18,14.5
	C18,13.119,19.119,12,20.5,12z M13,11c1.657,0,3,1.343,3,3s-1.343,3-3,3s-3-1.343-3-3S11.343,11,13,11z M19,25H7v-2.993
	c0-0.706,0.368-1.357,0.974-1.719C8.936,19.713,10.612,19,13,19c2.358,0,4.044,0.717,5.017,1.293C18.628,20.654,19,21.307,19,22.017
	V25z M26,24h-5v-1.982c0-1.144-0.502-2.223-1.338-2.975C19.946,19.02,20.23,19,20.5,19c1.311,0,2.852,0.305,3.968,0.578
	c0.899,0.22,1.532,1.02,1.532,1.945V24z"/>
</svg>
