<?xml version="1.0" encoding="utf-8"?>
<!-- Generator: Adobe Illustrator 20.1.0, SVG Export Plug-In . SVG Version: 6.00 Build 0)  -->
<!DOCTYPE svg PUBLIC "-//W3C//DTD SVG 1.1//EN" "http://www.w3.org/Graphics/SVG/1.1/DTD/svg11.dtd">
<svg version="1.1" id="Layer_1" xmlns="http://www.w3.org/2000/svg" xmlns:xlink="http://www.w3.org/1999/xlink" x="0px" y="0px"
	 width="32px" height="32px" viewBox="0 0 32 32" enable-background="new 0 0 32 32" xml:space="preserve">
<path d="M30,21c0,0.552-0.448,1-1,1h-9v3h-8v-3H3c-0.552,0-1-0.448-1-1V7H0v22c0,1.657,1.343,3,3,3h26c1.657,0,3-1.343,3-3V7h-2V21z
	"/>
<path d="M27,20c0.553,0,1-0.448,1-1V1c0-0.552-0.447-1-1-1H5C4.447,0,4,0.448,4,1v18c0,0.552,0.447,1,1,1H27z M11,9.586l3,3l7-7
	L22.414,7l-7.707,7.707C14.512,14.902,14.256,15,14,15s-0.512-0.098-0.707-0.293L9.586,11L11,9.586z"/>
</svg>
