<?xml version="1.0" encoding="utf-8"?>
<!-- Generator: Adobe Illustrator 20.1.0, SVG Export Plug-In . SVG Version: 6.00 Build 0)  -->
<!DOCTYPE svg PUBLIC "-//W3C//DTD SVG 1.1//EN" "http://www.w3.org/Graphics/SVG/1.1/DTD/svg11.dtd">
<svg version="1.1" id="Layer_1" xmlns="http://www.w3.org/2000/svg" xmlns:xlink="http://www.w3.org/1999/xlink" x="0px" y="0px"
	 width="32px" height="32px" viewBox="0 0 32 32" enable-background="new 0 0 32 32" xml:space="preserve">
<path d="M3,32h26c0.552,0,1-0.448,1-1V1c0-0.552-0.448-1-1-1H3C2.448,0,2,0.448,2,1v30C2,31.552,2.448,32,3,32z M16,9
	c0.552,0,1,0.448,1,1c0,0.552-0.448,1-1,1s-1-0.448-1-1C15,9.448,15.448,9,16,9z M13,20h2v-5h-2v-2h3c0.552,0,1,0.448,1,1v6h2v2h-6
	V20z"/>
</svg>
