<?xml version="1.0" encoding="utf-8"?>
<!-- Generator: Adobe Illustrator 20.1.0, SVG Export Plug-In . SVG Version: 6.00 Build 0)  -->
<!DOCTYPE svg PUBLIC "-//W3C//DTD SVG 1.1//EN" "http://www.w3.org/Graphics/SVG/1.1/DTD/svg11.dtd">
<svg version="1.1" id="Layer_1" xmlns="http://www.w3.org/2000/svg" xmlns:xlink="http://www.w3.org/1999/xlink" x="0px" y="0px"
	 width="32px" height="32px" viewBox="0 0 32 32" enable-background="new 0 0 32 32" xml:space="preserve">
<path d="M7,8h18V5c0-0.552-0.447-1-1-1H12.414L9.707,1.293C9.52,1.105,9.266,1,9,1H1C0.447,1,0,1.448,0,2v20.515l4.154-12.464
	C4.562,8.825,5.706,8,7,8z"/>
<path d="M6.052,10.684l-6,18c-0.103,0.305-0.051,0.64,0.137,0.901C0.377,29.846,0.679,30,1,30h24c0.431,0,0.812-0.275,0.948-0.684
	l6-18c0.103-0.305,0.051-0.64-0.137-0.901C31.623,10.154,31.321,10,31,10H7C6.569,10,6.188,10.275,6.052,10.684z"/>
</svg>
