<?xml version="1.0" encoding="utf-8"?>
<!-- Generator: Adobe Illustrator 20.1.0, SVG Export Plug-In . SVG Version: 6.00 Build 0)  -->
<!DOCTYPE svg PUBLIC "-//W3C//DTD SVG 1.1//EN" "http://www.w3.org/Graphics/SVG/1.1/DTD/svg11.dtd">
<svg version="1.1" id="Layer_1" xmlns="http://www.w3.org/2000/svg" xmlns:xlink="http://www.w3.org/1999/xlink" x="0px" y="0px"
	 width="32px" height="32px" viewBox="0 0 32 32" enable-background="new 0 0 32 32" xml:space="preserve">
<path d="M13.414,5l-2.707-2.707C10.52,2.105,10.266,2,10,2H4C3.447,2,3,2.448,3,3v6h26V6c0-0.552-0.447-1-1-1H13.414z"/>
<path d="M4,30h24c0.485,0,0.9-0.348,0.984-0.826l3-17C32.093,11.562,31.621,11,31,11H1c-0.296,0-0.576,0.131-0.766,0.357
	c-0.19,0.226-0.271,0.525-0.219,0.816l3,17C3.1,29.652,3.515,30,4,30z"/>
</svg>
