<?xml version="1.0" encoding="utf-8"?>
<!-- Generator: Adobe Illustrator 20.1.0, SVG Export Plug-In . SVG Version: 6.00 Build 0)  -->
<!DOCTYPE svg PUBLIC "-//W3C//DTD SVG 1.1//EN" "http://www.w3.org/Graphics/SVG/1.1/DTD/svg11.dtd">
<svg version="1.1" id="Layer_1" xmlns="http://www.w3.org/2000/svg" xmlns:xlink="http://www.w3.org/1999/xlink" x="0px" y="0px"
	 width="32px" height="32px" viewBox="0 0 32 32" enable-background="new 0 0 32 32" xml:space="preserve">
<path d="M31,5H15.5l-2.7-3.6C12.611,1.148,12.315,1,12,1H1C0.448,1,0,1.447,0,2v28c0,0.553,0.448,1,1,1h30c0.552,0,1-0.447,1-1V6
	C32,5.447,31.552,5,31,5z M12.5,10c1.381,0,2.5,1.119,2.5,2.5c0,1.381-1.119,2.5-2.5,2.5S10,13.881,10,12.5
	C10,11.119,11.119,10,12.5,10z M25.875,24.485C25.698,24.803,25.363,25,25,25H7c-0.379,0-0.725-0.214-0.895-0.553
	C5.936,24.108,5.973,23.703,6.2,23.4l3-4c0.331-0.441,0.959-0.532,1.399-0.2l3.251,2.438l5.391-6.289
	c0.206-0.242,0.505-0.377,0.834-0.346c0.317,0.024,0.604,0.197,0.772,0.467l5,8C26.041,23.778,26.051,24.167,25.875,24.485z"/>
</svg>
