<?xml version="1.0" encoding="utf-8"?>
<!-- Generator: Adobe Illustrator 20.1.0, SVG Export Plug-In . SVG Version: 6.00 Build 0)  -->
<!DOCTYPE svg PUBLIC "-//W3C//DTD SVG 1.1//EN" "http://www.w3.org/Graphics/SVG/1.1/DTD/svg11.dtd">
<svg version="1.1" id="Layer_1" xmlns="http://www.w3.org/2000/svg" xmlns:xlink="http://www.w3.org/1999/xlink" x="0px" y="0px"
	 width="32px" height="32px" viewBox="0 0 32 32" enable-background="new 0 0 32 32" xml:space="preserve">
<path d="M2,31c0,0.553,0.448,1,1,1h26c0.552,0,1-0.447,1-1V1c0-0.553-0.448-1-1-1H3C2.448,0,2,0.447,2,1V31z M14,8
	c3.309,0,6,2.691,6,6c0,1.294-0.416,2.49-1.115,3.471l3.822,3.822l-1.414,1.414l-3.822-3.822C16.49,19.584,15.294,20,14,20
	c-3.309,0-6-2.691-6-6S10.691,8,14,8z"/>
<circle cx="14" cy="14" r="4"/>
</svg>
