<?xml version="1.0" encoding="utf-8"?>
<!-- Generator: Adobe Illustrator 20.1.0, SVG Export Plug-In . SVG Version: 6.00 Build 0)  -->
<!DOCTYPE svg PUBLIC "-//W3C//DTD SVG 1.1//EN" "http://www.w3.org/Graphics/SVG/1.1/DTD/svg11.dtd">
<svg version="1.1" id="Layer_1" xmlns="http://www.w3.org/2000/svg" xmlns:xlink="http://www.w3.org/1999/xlink" x="0px" y="0px"
	 width="32px" height="32px" viewBox="0 0 32 32" enable-background="new 0 0 32 32" xml:space="preserve">
<path d="M3,32h26c0.553,0,1-0.448,1-1V1c0-0.552-0.447-1-1-1H3C2.447,0,2,0.448,2,1v30C2,31.552,2.447,32,3,32z M15,8h2v11h-2V8z
	 M16,21c0.552,0,1,0.448,1,1c0,0.552-0.448,1-1,1s-1-0.448-1-1C15,21.448,15.448,21,16,21z"/>
</svg>
