<?xml version="1.0" encoding="utf-8"?>
<!-- Generator: Adobe Illustrator 20.1.0, SVG Export Plug-In . SVG Version: 6.00 Build 0)  -->
<!DOCTYPE svg PUBLIC "-//W3C//DTD SVG 1.1//EN" "http://www.w3.org/Graphics/SVG/1.1/DTD/svg11.dtd">
<svg version="1.1" id="Layer_1" xmlns="http://www.w3.org/2000/svg" xmlns:xlink="http://www.w3.org/1999/xlink" x="0px" y="0px"
	 width="32px" height="32px" viewBox="0 0 32 32" enable-background="new 0 0 32 32" xml:space="preserve">
<path d="M16,12c-3.309,0-6,2.691-6,6c0,1.294,0.416,2.49,1.115,3.471l8.356-8.356C18.49,12.416,17.294,12,16,12z"/>
<path d="M12.529,22.885C13.51,23.584,14.706,24,16,24c3.309,0,6-2.691,6-6c0-1.294-0.416-2.49-1.115-3.471L12.529,22.885z"/>
<path d="M31,5H15.5l-2.7-3.6C12.611,1.148,12.315,1,12,1H1C0.448,1,0,1.447,0,2v28c0,0.553,0.448,1,1,1h30c0.552,0,1-0.447,1-1V6
	C32,5.447,31.552,5,31,5z M16,26c-4.411,0-8-3.589-8-8s3.589-8,8-8s8,3.589,8,8S20.411,26,16,26z"/>
</svg>
