<?xml version="1.0" encoding="utf-8"?>
<!-- Generator: Adobe Illustrator 20.1.0, SVG Export Plug-In . SVG Version: 6.00 Build 0)  -->
<!DOCTYPE svg PUBLIC "-//W3C//DTD SVG 1.1//EN" "http://www.w3.org/Graphics/SVG/1.1/DTD/svg11.dtd">
<svg version="1.1" id="Layer_1" xmlns="http://www.w3.org/2000/svg" xmlns:xlink="http://www.w3.org/1999/xlink" x="0px" y="0px"
	 width="32px" height="32px" viewBox="0 0 32 32" enable-background="new 0 0 32 32" xml:space="preserve">
<path d="M31,0H7C6.447,0,6,0.448,6,1v28c0,1.436-1.011,2.633-2.359,2.928C3.753,31.971,3.873,32,4,32h24c2.206,0,4-1.794,4-4V1
	C32,0.448,31.553,0,31,0z M11,5h8v7h-8V5z M17,27h-6v-2h6V27z M17,22h-6v-2h6V22z M27,27h-8v-7h8V27z M27,17H11v-2h16V17z M27,12h-6
	v-2h6V12z M27,7h-6V5h6V7z"/>
<path d="M2,30c1.105,0,2-0.895,2-2V17H1c-0.552,0-1,0.448-1,1v10C0,29.105,0.895,30,2,30z"/>
</svg>
