<?xml version="1.0" encoding="utf-8"?>
<!-- Generator: Adobe Illustrator 20.1.0, SVG Export Plug-In . SVG Version: 6.00 Build 0)  -->
<!DOCTYPE svg PUBLIC "-//W3C//DTD SVG 1.1//EN" "http://www.w3.org/Graphics/SVG/1.1/DTD/svg11.dtd">
<svg version="1.1" id="Layer_1" xmlns="http://www.w3.org/2000/svg" xmlns:xlink="http://www.w3.org/1999/xlink" x="0px" y="0px"
	 width="32px" height="32px" viewBox="0 0 32 32" enable-background="new 0 0 32 32" xml:space="preserve">
<path d="M2,30h3v2h3v-2h16v2h3v-2h3c0.552,0,1-0.448,1-1V16H1v13C1,29.552,1.448,30,2,30z M13,20h6v2h-6V20z"/>
<path d="M31,1c0-0.552-0.448-1-1-1H2C1.448,0,1,0.448,1,1v13h30V1z M19,6h-6V4h6V6z"/>
</svg>
