<?xml version="1.0" encoding="utf-8"?>
<!-- Generator: Adobe Illustrator 20.1.0, SVG Export Plug-In . SVG Version: 6.00 Build 0)  -->
<!DOCTYPE svg PUBLIC "-//W3C//DTD SVG 1.1//EN" "http://www.w3.org/Graphics/SVG/1.1/DTD/svg11.dtd">
<svg version="1.1" id="Layer_1" xmlns="http://www.w3.org/2000/svg" xmlns:xlink="http://www.w3.org/1999/xlink" x="0px" y="0px"
	 width="32px" height="32px" viewBox="0 0 32 32" enable-background="new 0 0 32 32" xml:space="preserve">
<path d="M31,5H15.5l-2.7-3.6C12.611,1.148,12.314,1,12,1H1C0.447,1,0,1.447,0,2v28c0,0.553,0.447,1,1,1h30c0.553,0,1-0.447,1-1V6
	C32,5.447,31.553,5,31,5z M21,17.414l-4-4V25h-2V13.414l-4,4L9.586,16l5.707-5.707c0.391-0.391,1.023-0.391,1.414,0L22.414,16
	L21,17.414z"/>
</svg>
