<?xml version="1.0" encoding="utf-8"?>
<!-- Generator: Adobe Illustrator 20.1.0, SVG Export Plug-In . SVG Version: 6.00 Build 0)  -->
<!DOCTYPE svg PUBLIC "-//W3C//DTD SVG 1.1//EN" "http://www.w3.org/Graphics/SVG/1.1/DTD/svg11.dtd">
<svg version="1.1" id="Layer_1" xmlns="http://www.w3.org/2000/svg" xmlns:xlink="http://www.w3.org/1999/xlink" x="0px" y="0px"
	 width="32px" height="32px" viewBox="0 0 32 32" enable-background="new 0 0 32 32" xml:space="preserve">
<path d="M31,5H15.5l-2.7-3.6C12.611,1.148,12.314,1,12,1H1C0.447,1,0,1.447,0,2v28c0,0.553,0.447,1,1,1h30c0.553,0,1-0.447,1-1V6
	C32,5.447,31.553,5,31,5z M16.242,17.03C17.739,17.404,20,17.969,20,20.5c0,1.758-1.308,3.204-3,3.449V26h-2v-2.051
	c-1.692-0.245-3-1.691-3-3.449h2c0,0.827,0.673,1.5,1.5,1.5h1c0.827,0,1.5-0.673,1.5-1.5c0-0.842-0.505-1.096-2.242-1.53
	C14.261,18.596,12,18.031,12,15.5c0-1.758,1.308-3.204,3-3.449V10h2v2.051c1.692,0.245,3,1.691,3,3.449h-2
	c0-0.827-0.673-1.5-1.5-1.5h-1c-0.827,0-1.5,0.673-1.5,1.5C14,16.342,14.505,16.596,16.242,17.03z"/>
</svg>
