<?xml version="1.0" encoding="utf-8"?>
<!-- Generator: Adobe Illustrator 20.1.0, SVG Export Plug-In . SVG Version: 6.00 Build 0)  -->
<!DOCTYPE svg PUBLIC "-//W3C//DTD SVG 1.1//EN" "http://www.w3.org/Graphics/SVG/1.1/DTD/svg11.dtd">
<svg version="1.1" id="Layer_1" xmlns="http://www.w3.org/2000/svg" xmlns:xlink="http://www.w3.org/1999/xlink" x="0px" y="0px"
	 width="32px" height="32px" viewBox="0 0 32 32" enable-background="new 0 0 32 32" xml:space="preserve">
<path d="M31,5H15.5l-2.7-3.6C12.611,1.148,12.314,1,12,1H1C0.447,1,0,1.447,0,2v28c0,0.553,0.447,1,1,1h30c0.553,0,1-0.447,1-1V6
	C32,5.447,31.553,5,31,5z M16.707,25.707C16.512,25.902,16.256,26,16,26s-0.512-0.098-0.707-0.293L9.586,20L11,18.586l4,4V11h2
	v11.586l4-4L22.414,20L16.707,25.707z"/>
</svg>
