<?xml version="1.0" encoding="utf-8"?>
<!-- Generator: Adobe Illustrator 19.1.0, SVG Export Plug-In . SVG Version: 6.00 Build 0)  -->
<!DOCTYPE svg PUBLIC "-//W3C//DTD SVG 1.1//EN" "http://www.w3.org/Graphics/SVG/1.1/DTD/svg11.dtd">
<svg version="1.1" id="Layer_1" xmlns="http://www.w3.org/2000/svg" xmlns:xlink="http://www.w3.org/1999/xlink" x="0px" y="0px"
	 width="64px" height="64px" viewBox="0 0 64 64" enable-background="new 0 0 64 64" xml:space="preserve">
<path d="M6,19c0.55225,0,1-0.44775,1-1V7h11c0.55225,0,1-0.44775,1-1s-0.44775-1-1-1H6C5.44775,5,5,5.44775,5,6v12
	C5,18.55225,5.44775,19,6,19z"/>
<path d="M45,6c0,0.55225,0.44775,1,1,1h11v11c0,0.55225,0.44775,1,1,1s1-0.44775,1-1V6c0-0.55225-0.44775-1-1-1H46
	C45.44775,5,45,5.44775,45,6z"/>
<path d="M58,59c0.55225,0,1-0.44727,1-1V46c0-0.55273-0.44775-1-1-1s-1,0.44727-1,1v11H46c-0.55225,0-1,0.44727-1,1s0.44775,1,1,1
	H58z"/>
<path d="M6,45c-0.55225,0-1,0.44727-1,1v12c0,0.55273,0.44775,1,1,1h12c0.55225,0,1-0.44727,1-1s-0.44775-1-1-1H7V46
	C7,45.44727,6.55225,45,6,45z"/>
<path d="M62,31H2c-0.55225,0-1,0.44775-1,1s0.44775,1,1,1h60c0.55225,0,1-0.44775,1-1S62.55225,31,62,31z"/>
</svg>
