<?xml version="1.0" encoding="utf-8"?>
<!-- Generator: Adobe Illustrator 19.1.0, SVG Export Plug-In . SVG Version: 6.00 Build 0)  -->
<!DOCTYPE svg PUBLIC "-//W3C//DTD SVG 1.1//EN" "http://www.w3.org/Graphics/SVG/1.1/DTD/svg11.dtd">
<svg version="1.1" id="Layer_1" xmlns="http://www.w3.org/2000/svg" xmlns:xlink="http://www.w3.org/1999/xlink" x="0px" y="0px"
	 width="64px" height="64px" viewBox="0 0 64 64" enable-background="new 0 0 64 64" xml:space="preserve">
<path d="M55,10H11.41406l5.29297-5.29297c0.39062-0.39062,0.39062-1.02344,0-1.41406s-1.02344-0.39062-1.41406,0l-6.99915,6.99915
	c-0.09259,0.09235-0.16589,0.20306-0.21674,0.32581c-0.10107,0.24438-0.10101,0.51978,0.00006,0.76416
	c0.05078,0.12274,0.12408,0.23346,0.21667,0.32581l6.99915,6.99915C15.48828,18.90234,15.74414,19,16,19
	s0.51172-0.09766,0.70703-0.29297c0.39062-0.39062,0.39062-1.02344,0-1.41406L11.41406,12H55c0.55225,0,1-0.44727,1-1
	S55.55225,10,55,10z"/>
<path d="M48.5,39c-0.92474,0-1.7843,0.28162-2.5,0.76178V25.5c0-2.48145-2.01855-4.5-4.5-4.5
	c-1.0542,0-2.01208,0.37939-2.77991,0.98877C38.09583,20.25232,36.44879,19,34.5,19s-3.59583,1.25232-4.22009,2.98877
	C29.51208,21.37939,28.5542,21,27.5,21c-2.48145,0-4.5,2.01855-4.5,4.5V47c0,0.66895-0.52344,0.89453-0.68359,0.94824
	c-0.16064,0.05566-0.71533,0.18652-1.1167-0.34766l-3.77832-5.03809c-1.22949-1.6416-3.45459-2.16406-5.28613-1.24805
	c-1.07178,0.53613-1.84033,1.46484-2.16357,2.61719c-0.32959,1.17285-0.1416,2.44727,0.51514,3.49609
	c1.40723,2.24805,2.13867,4.69434,2.84619,7.06152c0.52539,1.75684,1.02148,3.41699,1.76807,4.94824
	c0.52783,1.08496,1.23047,2.18457,1.84863,3.11719c0.19238,0.29004,0.51025,0.44727,0.83447,0.44727
	c0.18945,0,0.38135-0.05371,0.55127-0.16602c0.46045-0.30566,0.58643-0.92578,0.28125-1.38672
	c-0.58154-0.87793-1.24072-1.90723-1.71777-2.8877c-0.6748-1.38477-1.14844-2.96875-1.6499-4.64551
	c-0.74561-2.49414-1.51611-5.07227-3.06689-7.5498c-0.35889-0.57227-0.4624-1.2627-0.28516-1.89355
	c0.16895-0.60254,0.57129-1.08887,1.13281-1.36914c0.96729-0.4834,2.14209-0.20703,2.79199,0.6582l3.77832,5.03906
	c0.78906,1.05078,2.10352,1.45996,3.34863,1.04492C24.19482,49.43066,25,48.31348,25,47V25.5c0-1.37891,1.12158-2.5,2.5-2.5
	s2.5,1.12109,2.5,2.5V26v18c0,0.55273,0.44775,1,1,1s1-0.44727,1-1V26v-0.5v-2c0-1.37891,1.12158-2.5,2.5-2.5s2.5,1.12109,2.5,2.5v2
	V27v17c0,0.55273,0.44775,1,1,1s1-0.44727,1-1V27v-1.5c0-1.37891,1.12158-2.5,2.5-2.5s2.5,1.12109,2.5,2.5V44
	c0,0.55273,0.44775,1,1,1s1-0.44727,1-1v-0.5c0-1.37891,1.12158-2.5,2.5-2.5c0.59033,0,1.15088,0.25586,1.5376,0.70215
	c0.38672,0.44531,0.56104,1.03711,0.47754,1.62109L47.86719,61.8584c-0.07812,0.54688,0.30176,1.05371,0.84814,1.13184
	C48.76367,62.99707,48.81104,63,48.8584,63c0.48926,0,0.91699-0.35938,0.98828-0.8584l2.64795-18.53516
	c0.16553-1.15918-0.1792-2.33105-0.94629-3.21484C50.78174,39.50684,49.67041,39,48.5,39z"/>
</svg>
