<?xml version="1.0" encoding="utf-8"?>
<!-- Generator: Adobe Illustrator 19.1.0, SVG Export Plug-In . SVG Version: 6.00 Build 0)  -->
<!DOCTYPE svg PUBLIC "-//W3C//DTD SVG 1.1//EN" "http://www.w3.org/Graphics/SVG/1.1/DTD/svg11.dtd">
<svg version="1.1" id="Layer_1" xmlns="http://www.w3.org/2000/svg" xmlns:xlink="http://www.w3.org/1999/xlink" x="0px" y="0px"
	 width="64px" height="64px" viewBox="0 0 64 64" enable-background="new 0 0 64 64" xml:space="preserve">
<path d="M13.41699,7.2002c-0.44189,0.33105-0.53174,0.95801-0.20068,1.39941C13.41309,8.8623,13.71338,9,14.01758,9
	c0.2085,0,0.41895-0.06543,0.59912-0.2002c3.45898-2.59277,7.37744-4.34473,11.64697-5.2041
	c7.77051-1.56641,15.64209,0.04688,22.16992,4.54102c0.45508,0.31445,1.07764,0.19727,1.39111-0.25586
	c0.31299-0.45508,0.19824-1.07812-0.25635-1.39062C42.59033,1.68359,34.1748-0.03809,25.86865,1.63477
	C21.30518,2.55371,17.11621,4.42676,13.41699,7.2002z"/>
<path d="M62.34412,25.78918c-1.20404-5.87482-4.04797-11.22876-8.23474-15.48645c-0.3877-0.39453-1.02051-0.39941-1.41406-0.01172
	c-0.39355,0.38672-0.39893,1.02051-0.01172,1.41406c3.93701,4.00391,6.60742,9.04395,7.72266,14.5752
	c0.00555,0.02771,0.02209,0.04932,0.02979,0.07599c0.40906,2.0589,0.59863,4.15656,0.55859,6.23749
	c-0.01025,0.55273,0.42871,1.00879,0.98096,1.01953c0.00635,0,0.0127,0,0.01953,0c0.54346,0,0.98877-0.43555,0.99951-0.98047
	c0.04297-2.25293-0.16309-4.52441-0.61133-6.75C62.37634,25.84821,62.35437,25.82214,62.34412,25.78918z"/>
<path d="M3.59424,37.73535c-0.00507-0.02509-0.02179-0.0437-0.02863-0.06793c-1.79626-9.02399,0.69165-18.1322,6.83575-25.00043
	c0.36865-0.41211,0.33301-1.04395-0.07861-1.41211c-0.41113-0.36816-1.04443-0.33301-1.41162,0.07812
	c-6.58545,7.3623-9.24365,17.13086-7.29395,26.80176c0.00732,0.03619,0.02808,0.06494,0.039,0.09937
	c0.08411,0.40936,0.17389,0.81628,0.27301,1.21899c0.1123,0.45605,0.521,0.76074,0.97021,0.76074
	c0.0791,0,0.15967-0.00879,0.23975-0.0293c0.53613-0.13184,0.86426-0.67285,0.73242-1.20996
	C3.771,38.56543,3.67822,38.15234,3.59424,37.73535z"/>
<path d="M32.98047,31.81152c-0.10938-0.54297-0.63477-0.89453-1.17822-0.7832c-0.5415,0.10938-0.8916,0.63672-0.78271,1.17773
	c2.03857,10.1084-0.70264,20.35742-7.52051,28.11719c-0.36426,0.41504-0.32324,1.04688,0.09131,1.41113
	c0.18994,0.16699,0.42529,0.24902,0.65967,0.24902c0.27783,0,0.5542-0.11523,0.75195-0.33984
	C32.23486,53.41016,35.14307,42.53711,32.98047,31.81152z"/>
<path d="M25.66455,33.70801l-0.05664-0.41211c-0.34424-1.70508-0.00342-3.44238,0.95898-4.8916
	c0.96289-1.44922,2.43262-2.43652,4.13818-2.78027c3.48291-0.70312,6.88232,1.52344,7.64648,4.97461
	c0.00293,0.04102,0.00879,0.08301,0.01709,0.125c0.23242,1.15234,0.4165,2.32422,0.54736,3.48242
	c0.06201,0.54883,0.55859,0.93457,1.10596,0.88184c0.54883-0.0625,0.94336-0.55762,0.88135-1.10645
	c-0.13184-1.16992-0.31592-2.35352-0.54736-3.51855c-0.00244-0.0459-0.00879-0.0918-0.01758-0.13672
	c-0.92871-4.60254-5.42627-7.59473-10.02881-6.66309c-2.22949,0.4502-4.1499,1.74023-5.4082,3.63477
	c-1.25879,1.89355-1.7041,4.16504-1.26709,6.31445l0.04834,0.36621c1.27588,9.35254-1.32959,17.36523-7.53418,23.16992
	c-0.40332,0.37793-0.42432,1.01074-0.04736,1.41406c0.19727,0.20996,0.46338,0.31641,0.73047,0.31641
	c0.24512,0,0.49023-0.08984,0.68311-0.26953C24.21338,52.3418,27.03125,43.73145,25.66455,33.70801z"/>
<path d="M40.17969,39.25c-0.57568-0.03516-1.01562,0.41016-1.03662,0.96191c-0.28223,7.57617-2.70947,14.90918-7.01807,21.20605
	c-0.31201,0.45508-0.19531,1.07812,0.26025,1.38965c0.17285,0.11816,0.36963,0.1748,0.56396,0.1748
	c0.31885,0,0.63232-0.15234,0.82617-0.43555c4.52246-6.6084,7.06982-14.30566,7.3667-22.26074
	C41.1626,39.73438,40.73193,39.27051,40.17969,39.25z"/>
<path d="M18.28223,34.77441c-0.01221-0.05859-0.0293-0.11621-0.05176-0.1709c-0.40234-2.12891-0.31396-4.25977,0.2627-6.33594
	c0.14795-0.53223-0.16357-1.08301-0.6958-1.23145c-0.53027-0.14453-1.08301,0.16504-1.23096,0.69629
	c-0.67773,2.43848-0.76611,4.94238-0.2627,7.44043c0.01221,0.05957,0.02979,0.11621,0.05225,0.17188
	c1.22607,6.40918-1.1416,12.94434-6.20557,17.0918c-0.42725,0.34961-0.48975,0.97949-0.13965,1.40723
	c0.19727,0.24121,0.48438,0.36621,0.77393,0.36621c0.22314,0,0.44727-0.07422,0.6333-0.22656
	C17.10205,49.32812,19.73242,41.96777,18.28223,34.77441z"/>
<path d="M28.82959,16.32031c-3.55811,0.7168-6.7959,2.64355-9.11768,5.4248c-0.354,0.42383-0.29736,1.05469,0.12695,1.4082
	c0.42334,0.35352,1.05371,0.29785,1.4082-0.12695c2.06055-2.46777,4.81885-4.10938,7.97754-4.74512
	c5.07324-1.02344,9.28125,0.20117,12.50537,3.63867c2.60791,2.78027,3.76416,6.23145,3.98828,7.32227
	c2.08838,10.3584,0.75146,20.84277-3.8667,30.32129c-0.24219,0.49707-0.03564,1.0957,0.46094,1.33789
	c0.14111,0.06836,0.29004,0.10059,0.4375,0.10059c0.37012,0,0.72607-0.20703,0.89941-0.56152
	c4.81201-9.87695,6.20557-20.80176,4.02881-31.59668C46.84131,24.77734,41.57617,13.74805,28.82959,16.32031z"/>
<path d="M10.93262,36.25586c-0.00977-0.04883-0.02295-0.09473-0.03955-0.14062
	c-2.19678-11.29102,5.10156-22.51465,16.32861-25.06445c0.53857-0.12305,0.87598-0.6582,0.75342-1.19727
	c-0.12256-0.53809-0.65625-0.87402-1.19678-0.75391C14.45459,11.89941,6.46143,24.25977,8.96045,36.65332
	c0.00977,0.04688,0.02246,0.09277,0.03857,0.1377c0.67871,3.62402-0.64014,7.3418-3.46289,9.7334
	c-0.42139,0.35645-0.47363,0.9873-0.1167,1.40918c0.19824,0.2334,0.47998,0.35352,0.76367,0.35352
	c0.22852,0,0.45801-0.07812,0.646-0.2373C10.24365,45.15723,11.81592,40.6377,10.93262,36.25586z"/>
<path d="M55.00635,27.2793C52.83447,16.71094,43.81592,9.00684,33.04395,8.53223c-0.53809-0.02832-1.01855,0.40234-1.04297,0.95508
	c-0.02441,0.55176,0.40332,1.01855,0.95508,1.04297c9.88086,0.43555,18.14941,7.52051,20.10742,17.23047
	c0.00586,0.0293,0.0127,0.05664,0.021,0.08496c1.67871,8.38867,1.41895,16.80957-0.77246,25.0293
	c-0.14209,0.53418,0.17529,1.08203,0.7085,1.22363c0.08643,0.02344,0.17334,0.03418,0.2583,0.03418
	c0.44238,0,0.84668-0.29492,0.96582-0.74219c2.27881-8.54785,2.54248-17.30371,0.78369-26.02441
	C55.02197,27.33594,55.01514,27.30762,55.00635,27.2793z"/>
</svg>
