<?xml version="1.0" encoding="utf-8"?>
<!-- Generator: Adobe Illustrator 19.1.0, SVG Export Plug-In . SVG Version: 6.00 Build 0)  -->
<!DOCTYPE svg PUBLIC "-//W3C//DTD SVG 1.1//EN" "http://www.w3.org/Graphics/SVG/1.1/DTD/svg11.dtd">
<svg version="1.1" id="Layer_1" xmlns="http://www.w3.org/2000/svg" xmlns:xlink="http://www.w3.org/1999/xlink" x="0px" y="0px"
	 width="64px" height="64px" viewBox="0 0 64 64" enable-background="new 0 0 64 64" xml:space="preserve">
<path d="M62.38379,35.21631l-11.49542-4.82086C50.06921,23.39783,44.09637,18,37,18c-7.3822,0-13.43304,5.74707-13.94934,13H5.41406
	l7.29297-7.29297c0.39062-0.39062,0.39062-1.02344,0-1.41406s-1.02344-0.39062-1.41406,0L2.29364,31.2923
	c-0.09253,0.09235-0.16577,0.20306-0.21655,0.32568c-0.10107,0.24438-0.10107,0.51965,0,0.76404
	c0.05078,0.12262,0.12402,0.23334,0.21655,0.32568l8.99933,8.99933C11.48828,41.90234,11.74414,42,12,42
	s0.51172-0.09766,0.70703-0.29297c0.39062-0.39062,0.39062-1.02344,0-1.41406L5.41406,33h17.6366
	C23.56696,40.25293,29.6178,46,37,46c2.99756,0,5.92383-0.98236,8.32092-2.75775l15.28845,6.41156
	c0.12598,0.05273,0.25781,0.07812,0.38672,0.07812c0.39062-0.00049,0.76172-0.23096,0.92188-0.61377
	c0.21387-0.50928-0.02539-1.09521-0.53516-1.30908L37.06836,37.6123c-1.23242-0.51611-2.18945-1.48145-2.69434-2.71729
	c-0.50586-1.23633-0.5-2.59521,0.0166-3.82715c1.06738-2.54297,4.00293-3.74365,6.54492-2.67725l8.69513,3.64648
	c0.00043,0.00018,0.00079,0.00037,0.00128,0.00055l11.97839,5.02338c0.50684,0.21143,1.09473-0.02637,1.30859-0.53564
	S62.89355,35.43018,62.38379,35.21631z M32.54688,30.29443c-0.72363,1.72412-0.73242,3.62695-0.02441,5.35791
	c0.70801,1.73047,2.04785,3.08154,3.77246,3.80469l6.82214,2.86102C41.27594,43.41754,39.19385,44,37,44c-6.61719,0-12-5.3833-12-12
	s5.38281-12,12-12c5.69,0,10.53638,4.05072,11.71515,9.48407l-7.00616-2.93817
	C38.14551,25.05469,34.03809,26.73584,32.54688,30.29443z"/>
</svg>
