<?xml version="1.0" encoding="utf-8"?>
<!-- Generator: Adobe Illustrator 19.1.0, SVG Export Plug-In . SVG Version: 6.00 Build 0)  -->
<!DOCTYPE svg PUBLIC "-//W3C//DTD SVG 1.1//EN" "http://www.w3.org/Graphics/SVG/1.1/DTD/svg11.dtd">
<svg version="1.1" id="Layer_1" xmlns="http://www.w3.org/2000/svg" xmlns:xlink="http://www.w3.org/1999/xlink" x="0px" y="0px"
	 width="64px" height="64px" viewBox="0 0 64 64" enable-background="new 0 0 64 64" xml:space="preserve">
<path d="M28,7c0.55225,0,1-0.44775,1-1V2c0-0.55225-0.44775-1-1-1s-1,0.44775-1,1v4C27,6.55225,27.44775,7,28,7z"/>
<path d="M37.89941,11.10059c0.25586,0,0.51172-0.09766,0.70703-0.29297L41.43506,7.979c0.39062-0.39062,0.39062-1.02344,0-1.41406
	s-1.02344-0.39062-1.41406,0l-2.82861,2.82861c-0.39062,0.39062-0.39062,1.02344,0,1.41406
	C37.3877,11.00293,37.64355,11.10059,37.89941,11.10059z"/>
<path d="M41,20c0,0.55225,0.44775,1,1,1h4c0.55225,0,1-0.44775,1-1s-0.44775-1-1-1h-4C41.44775,19,41,19.44775,41,20z"/>
<path d="M17.39355,10.80762c0.19531,0.19531,0.45117,0.29297,0.70703,0.29297s0.51172-0.09766,0.70703-0.29297
	c0.39062-0.39062,0.39062-1.02344,0-1.41406L15.979,6.56494c-0.39062-0.39062-1.02344-0.39062-1.41406,0s-0.39062,1.02344,0,1.41406
	L17.39355,10.80762z"/>
<path d="M10,21h4c0.55225,0,1-0.44775,1-1s-0.44775-1-1-1h-4c-0.55225,0-1,0.44775-1,1S9.44775,21,10,21z"/>
<path d="M16,41v7c0,2.77002,2.00586,5.55859,3.9458,8.25488C21.44727,58.3418,23,60.49951,23,62c0,0.55225,0.44775,1,1,1h24
	c0.49756,0,0.91943-0.36572,0.98975-0.8584l3.50488-24.53516c0.16553-1.15918-0.1792-2.33057-0.94629-3.21484
	C50.78174,33.50732,49.67041,33,48.5,33c-1.0542,0-2.01208,0.37939-2.77991,0.98877C45.09583,32.25232,43.44879,31,41.5,31
	c-1.0542,0-2.01208,0.37939-2.77991,0.98877C38.09583,30.25232,36.44879,29,34.5,29c-0.92474,0-1.7843,0.28162-2.5,0.76178V17.5
	c0-2.48145-2.01855-4.5-4.5-4.5S23,15.01855,23,17.5V37h-3C17.79443,37,16,38.79443,16,41z M18,41c0-1.10303,0.89697-2,2-2h3v5
	c0,0.55225,0.44775,1,1,1s1-0.44775,1-1v-6V17.5c0-1.37842,1.12158-2.5,2.5-2.5s2.5,1.12158,2.5,2.5v16V35v1
	c0,0.55225,0.44775,1,1,1s1-0.44775,1-1v-1v-1.5c0-1.37842,1.12158-2.5,2.5-2.5s2.5,1.12158,2.5,2.5v2V36v1c0,0.55225,0.44775,1,1,1
	s1-0.44775,1-1v-1v-0.5c0-1.37842,1.12158-2.5,2.5-2.5s2.5,1.12158,2.5,2.5V38c0,0.55225,0.44775,1,1,1s1-0.44775,1-1v-0.5
	c0-1.37842,1.12158-2.5,2.5-2.5c0.59033,0,1.15088,0.25586,1.5376,0.70166c0.38672,0.44629,0.56104,1.03711,0.47754,1.62158
	L47.13281,61H24.8877c-0.40186-1.85938-1.8252-3.83789-3.31836-5.91309C19.81445,52.64746,18,50.12549,18,48V41z"/>
</svg>
