<?xml version="1.0" encoding="utf-8"?>
<!-- Generator: Adobe Illustrator 19.1.0, SVG Export Plug-In . SVG Version: 6.00 Build 0)  -->
<!DOCTYPE svg PUBLIC "-//W3C//DTD SVG 1.1//EN" "http://www.w3.org/Graphics/SVG/1.1/DTD/svg11.dtd">
<svg version="1.1" id="Layer_1" xmlns="http://www.w3.org/2000/svg" xmlns:xlink="http://www.w3.org/1999/xlink" x="0px" y="0px"
	 width="64px" height="64px" viewBox="0 0 64 64" enable-background="new 0 0 64 64" xml:space="preserve">
<path d="M50,7c-3.24048,0-6.20062,1.19958-8.47949,3.16766C39.08978,9.40405,36.56573,9,34,9
	C20.93396,9,10.11664,19.03943,9.08105,31.97321C4.34589,33.91718,1,38.57281,1,44c0,7.16797,5.83154,13,13,13s13-5.83203,13-13
	s-5.83154-13-13-13c-0.9718,0-1.91571,0.11566-2.82715,0.31885C12.5069,19.81934,22.25677,11,34,11
	c2.01678,0,4.00525,0.27002,5.93622,0.78357C38.10303,14.02478,37,16.88531,37,20c0,7.16846,5.83154,13,13,13s13-5.83154,13-13
	S57.16846,7,50,7z M25,44c0,6.06543-4.93457,11-11,11S3,50.06543,3,44s4.93457-11,11-11S25,37.93457,25,44z M50,31
	c-6.06543,0-11-4.93457-11-11S43.93457,9,50,9s11,4.93457,11,11S56.06543,31,50,31z"/>
</svg>
