<?xml version="1.0" encoding="utf-8"?>
<!-- Generator: Adobe Illustrator 19.1.0, SVG Export Plug-In . SVG Version: 6.00 Build 0)  -->
<!DOCTYPE svg PUBLIC "-//W3C//DTD SVG 1.1//EN" "http://www.w3.org/Graphics/SVG/1.1/DTD/svg11.dtd">
<svg version="1.1" id="Layer_1" xmlns="http://www.w3.org/2000/svg" xmlns:xlink="http://www.w3.org/1999/xlink" x="0px" y="0px"
	 width="64px" height="64px" viewBox="0 0 64 64" enable-background="new 0 0 64 64" xml:space="preserve">
<path d="M55,26c-1.40283,0-2.43848,0.43781-3.19415,1.07434C51.17529,24.73199,49.03851,23,46.5,23
	c-1.49927,0-2.85907,0.60474-3.85229,1.5813C41.86652,22.49347,39.85669,21,37.5,21c-1.32843,0-2.54828,0.47375-3.5,1.26099V6.5
	C34,3.46777,31.53223,1,28.5,1S23,3.46777,23,6.5v31.5918c0,1.09375-0.7334,1.70605-1.4209,1.91406
	c-0.68652,0.20703-1.63574,0.10547-2.24316-0.80469l-3.42285-5.13379c-2.07324-3.11035-5.96484-4.36426-9.46582-3.05371
	c-0.97852,0.36719-1.75781,1.13574-2.13965,2.1084s-0.33203,2.06543,0.13477,2.99902l12.66309,25.32617
	C17.27539,61.78613,17.62109,62,18,62h35c0.40234,0,0.76562-0.24121,0.92188-0.6123C53.98242,61.24414,60,46.76953,60,31
	C60,27.96289,58.03711,26,55,26z M52.32227,60h-33.7041L6.23145,35.22656c-0.21777-0.43457-0.23926-0.92188-0.06152-1.37402
	c0.17676-0.45215,0.52539-0.79492,0.98047-0.96582c2.625-0.98535,5.54297-0.04297,7.09863,2.29004l3.42285,5.13379
	c0.99902,1.5,2.75879,2.13574,4.4873,1.60938C23.88477,41.39746,25,39.89453,25,38.0918V6.5C25,4.57031,26.57031,3,28.5,3
	S32,4.57031,32,6.5v20V29v1c0,0.55273,0.44727,1,1,1s1-0.44727,1-1v-1v-2.5c0-1.92969,1.57031-3.5,3.5-3.5s3.5,1.57031,3.5,3.5V30
	c0,0.55273,0.44727,1,1,1s1-0.44727,1-1v-1.5c0-1.92969,1.57031-3.5,3.5-3.5s3.5,1.57031,3.5,3.5V31
	c0,0.05963,0.02386,0.11133,0.03387,0.16803c0.01227,0.06934,0.01538,0.14087,0.04126,0.20453
	c0.02692,0.06683,0.07275,0.12042,0.11279,0.1792c0.03156,0.04608,0.05408,0.09766,0.09283,0.13776
	c0.05682,0.05933,0.12842,0.09943,0.19836,0.14337c0.03827,0.02393,0.06952,0.05615,0.11108,0.07483
	c0.07935,0.03595,0.16827,0.0473,0.25714,0.06146c0.0401,0.00641,0.07489,0.02637,0.11652,0.02789
	c0.00372,0,0.00726-0.00208,0.01099-0.00214C50.9837,31.99518,50.99109,32,51,32c0.50409,0,0.90295-0.37817,0.97235-0.86285
	c0.00562-0.03503,0.02515-0.06464,0.02667-0.10101C52.0127,30.72559,52.20703,28,55,28c1.90625,0,3,1.09375,3,3
	C58,44.54297,53.43848,57.12402,52.32227,60z"/>
</svg>
