<?xml version="1.0" encoding="utf-8"?>
<!-- Generator: Adobe Illustrator 19.1.0, SVG Export Plug-In . SVG Version: 6.00 Build 0)  -->
<!DOCTYPE svg PUBLIC "-//W3C//DTD SVG 1.1//EN" "http://www.w3.org/Graphics/SVG/1.1/DTD/svg11.dtd">
<svg version="1.1" id="Layer_1" xmlns="http://www.w3.org/2000/svg" xmlns:xlink="http://www.w3.org/1999/xlink" x="0px" y="0px"
	 width="64px" height="64px" viewBox="0 0 64 64" enable-background="new 0 0 64 64" xml:space="preserve">
<path d="M10,29c0.55225,0,1-0.44727,1-1V14.41406l4.29297,4.29297C15.48828,18.90234,15.74414,19,16,19
	s0.51172-0.09766,0.70703-0.29297c0.39062-0.39062,0.39062-1.02344,0-1.41406l-5.99933-5.99933
	c-0.09235-0.09253-0.20306-0.16583-0.32581-0.21661c-0.24426-0.10101-0.51953-0.10101-0.76379,0
	c-0.12274,0.05078-0.23346,0.12408-0.32581,0.21661l-5.99933,5.99933c-0.39062,0.39062-0.39062,1.02344,0,1.41406
	s1.02344,0.39062,1.41406,0L9,14.41406V28C9,28.55273,9.44775,29,10,29z"/>
<path d="M9.61798,52.92291C9.74017,52.97345,9.86981,53,10,53s0.25983-0.02655,0.38202-0.07709
	c0.12262-0.05078,0.23334-0.12402,0.32568-0.21655l5.99933-5.99933c0.39062-0.39062,0.39062-1.02344,0-1.41406
	s-1.02344-0.39062-1.41406,0L11,49.58594V36c0-0.55273-0.44775-1-1-1s-1,0.44727-1,1v13.58594l-4.29297-4.29297
	c-0.39062-0.39062-1.02344-0.39062-1.41406,0s-0.39062,1.02344,0,1.41406l5.99933,5.99933
	C9.38464,52.79889,9.49536,52.87213,9.61798,52.92291z"/>
<path d="M56.5,27c-1.0542,0-2.01208,0.37939-2.77991,0.98877C53.09583,26.25232,51.44879,25,49.5,25
	c-1.0542,0-2.01208,0.37939-2.77991,0.98877C46.09583,24.25232,44.44879,23,42.5,23c-0.92474,0-1.7843,0.28162-2.5,0.76178V11.5
	C40,9.01855,37.98145,7,35.5,7S31,9.01855,31,11.5V31h-3c-2.20557,0-4,1.79395-4,4v7c0,2.77051,2.00635,5.55859,3.94629,8.25586
	C29.44775,52.34277,31,54.5,31,56c0,0.55273,0.44775,1,1,1h24c0.49756,0,0.91943-0.36621,0.98975-0.8584l3.50488-24.53516
	c0.16553-1.15918-0.1792-2.33105-0.94629-3.21484C58.78174,27.50684,57.67041,27,56.5,27z M58.51514,31.32324L55.13281,55H32.8877
	c-0.40186-1.85938-1.82471-3.83691-3.31787-5.91211C27.81494,46.64844,26,44.12598,26,42v-7c0-1.10254,0.89697-2,2-2h3v5
	c0,0.55273,0.44775,1,1,1s1-0.44727,1-1v-6V11.5c0-1.37891,1.12158-2.5,2.5-2.5s2.5,1.12109,2.5,2.5v16V29v1
	c0,0.55273,0.44775,1,1,1s1-0.44727,1-1v-1v-1.5c0-1.37891,1.12158-2.5,2.5-2.5s2.5,1.12109,2.5,2.5v2V30v1c0,0.55273,0.44775,1,1,1
	s1-0.44727,1-1v-1v-0.5c0-1.37891,1.12158-2.5,2.5-2.5s2.5,1.12109,2.5,2.5V32c0,0.55273,0.44775,1,1,1s1-0.44727,1-1v-0.5
	c0-1.37891,1.12158-2.5,2.5-2.5c0.59033,0,1.15088,0.25586,1.5376,0.70215C58.42432,30.14746,58.59863,30.73926,58.51514,31.32324z"
	/>
</svg>
