<?xml version="1.0" encoding="utf-8"?>
<!-- Generator: Adobe Illustrator 19.1.0, SVG Export Plug-In . SVG Version: 6.00 Build 0)  -->
<!DOCTYPE svg PUBLIC "-//W3C//DTD SVG 1.1//EN" "http://www.w3.org/Graphics/SVG/1.1/DTD/svg11.dtd">
<svg version="1.1" id="Layer_1" xmlns="http://www.w3.org/2000/svg" xmlns:xlink="http://www.w3.org/1999/xlink" x="0px" y="0px"
	 width="64px" height="64px" viewBox="0 0 64 64" enable-background="new 0 0 64 64" xml:space="preserve">
<path d="M48,27c7.16846,0,13-5.83154,13-13S55.16846,1,48,1S35,6.83154,35,14S40.83154,27,48,27z M48,3c6.06543,0,11,4.93457,11,11
	s-4.93457,11-11,11s-11-4.93457-11-11S41.93457,3,48,3z"/>
<path d="M48,15h5c0.55225,0,1-0.44775,1-1s-0.44775-1-1-1h-4V9c0-0.55225-0.44775-1-1-1s-1,0.44775-1,1v5
	C47,14.55225,47.44775,15,48,15z"/>
<path d="M12,26.15729V36H9c-2.20557,0-4,1.79443-4,4v7c0,2.77002,2.00586,5.55859,3.9458,8.25488
	C10.44727,57.3418,12,59.49951,12,61c0,0.55225,0.44775,1,1,1h24c0.49756,0,0.91943-0.36572,0.98975-0.8584l3.50488-24.53516
	c0.16553-1.15918-0.1792-2.33057-0.94629-3.21484C39.78174,32.50732,38.67041,32,37.5,32c-1.0542,0-2.01208,0.37939-2.77991,0.98877
	C34.09583,31.25232,32.44879,30,30.5,30c-1.0542,0-2.01208,0.37939-2.77991,0.98877C27.09583,29.25232,25.44879,28,23.5,28
	c-0.92474,0-1.7843,0.28162-2.5,0.76178V26.1571c4.81238-1.85107,8-6.44165,8-11.6571C29,7.60742,23.39258,2,16.5,2
	S4,7.60742,4,14.5C4,19.71442,7.18793,24.30585,12,26.15729z M23.5,30c1.37842,0,2.5,1.12158,2.5,2.5v2V35v1
	c0,0.55225,0.44775,1,1,1s1-0.44775,1-1v-1v-0.5c0-1.37842,1.12158-2.5,2.5-2.5s2.5,1.12158,2.5,2.5V37c0,0.55225,0.44775,1,1,1
	s1-0.44775,1-1v-0.5c0-1.37842,1.12158-2.5,2.5-2.5c0.59033,0,1.15088,0.25586,1.5376,0.70166
	c0.38672,0.44629,0.56104,1.03711,0.47754,1.62158L36.13281,60H13.8877c-0.40186-1.85938-1.8252-3.83789-3.31836-5.91309
	C8.81445,51.64746,7,49.12549,7,47v-7c0-1.10303,0.89697-2,2-2h3v5c0,0.55225,0.44775,1,1,1s1-0.44775,1-1v-6V16.5
	c0-1.37842,1.12158-2.5,2.5-2.5s2.5,1.12158,2.5,2.5v16V34v1c0,0.55225,0.44775,1,1,1s1-0.44775,1-1v-1v-1.5
	C21,31.12158,22.12158,30,23.5,30z M16.5,4C22.28955,4,27,8.71045,27,14.5c0,4.11542-2.36334,7.76642-6,9.4837V16.5
	c0-2.48145-2.01855-4.5-4.5-4.5S12,14.01855,12,16.5v7.48389C8.36353,22.26654,6,18.61487,6,14.5C6,8.71045,10.71045,4,16.5,4z"/>
</svg>
