<?xml version="1.0" encoding="utf-8"?>
<!-- Generator: Adobe Illustrator 19.1.0, SVG Export Plug-In . SVG Version: 6.00 Build 0)  -->
<!DOCTYPE svg PUBLIC "-//W3C//DTD SVG 1.1//EN" "http://www.w3.org/Graphics/SVG/1.1/DTD/svg11.dtd">
<svg version="1.1" id="Layer_1" xmlns="http://www.w3.org/2000/svg" xmlns:xlink="http://www.w3.org/1999/xlink" x="0px" y="0px"
	 width="64px" height="64px" viewBox="0 0 64 64" enable-background="new 0 0 64 64" xml:space="preserve">
<path d="M56,19c0.55273,0,1-0.44775,1-1s-0.44727-1-1-1H43v-4.5c0-2.48145-2.01855-4.5-4.5-4.5
	c-1.94879,0-3.59583,1.25232-4.22009,2.98877C33.51208,10.37939,32.5542,10,31.5,10c-2.48145,0-4.5,2.01855-4.5,4.5V17H9.41406
	l6.29297-6.29297c0.39062-0.39062,0.39062-1.02344,0-1.41406s-1.02344-0.39062-1.41406,0L6.29364,17.2923
	c-0.09253,0.09235-0.16577,0.20306-0.21655,0.32568c-0.10107,0.24438-0.10107,0.51965,0,0.76404
	c0.05078,0.12262,0.12402,0.23334,0.21655,0.32568l7.99933,7.99933C14.48828,26.90234,14.74414,27,15,27
	s0.51172-0.09766,0.70703-0.29297c0.39062-0.39062,0.39062-1.02344,0-1.41406L9.41406,19H27v13h-3c-2.20605,0-4,1.79443-4,4v7
	c0,2.77002,2.00586,5.55859,3.94629,8.25488C25.44727,53.3418,27,55.49951,27,57c0,0.55225,0.44727,1,1,1h24
	c0.49805,0,0.91992-0.36572,0.99023-0.8584l3.50488-24.53516c0.16504-1.15869-0.17871-2.33008-0.94629-3.21484
	C54.78223,28.50732,53.6709,28,52.5,28c-1.0542,0-2.01208,0.37939-2.77991,0.98877C49.09583,27.25232,47.44879,26,45.5,26
	c-0.92474,0-1.7843,0.28162-2.5,0.76178V19H56z M45.5,28c1.37891,0,2.5,1.12158,2.5,2.5V33c0,0.55225,0.44727,1,1,1s1-0.44775,1-1
	v-0.5c0-1.37842,1.12109-2.5,2.5-2.5c0.59082,0,1.15137,0.25586,1.53809,0.70215c0.38672,0.4458,0.56055,1.03662,0.47656,1.62109
	L51.13281,56H28.8877c-0.40137-1.85938-1.8252-3.83789-3.31836-5.91309C23.81445,47.64746,22,45.12549,22,43v-7
	c0-1.10303,0.89746-2,2-2h3v5c0,0.55225,0.44727,1,1,1s1-0.44775,1-1v-6V14.5c0-1.37842,1.12109-2.5,2.5-2.5s2.5,1.12158,2.5,2.5V15
	v18c0,0.55225,0.44727,1,1,1s1-0.44775,1-1V15v-0.5v-2c0-1.37842,1.12109-2.5,2.5-2.5s2.5,1.12158,2.5,2.5v18V32v1
	c0,0.55225,0.44727,1,1,1s1-0.44775,1-1v-1v-1.5C43,29.12158,44.12109,28,45.5,28z"/>
</svg>
