<?xml version="1.0" encoding="utf-8"?>
<!-- Generator: Adobe Illustrator 19.1.0, SVG Export Plug-In . SVG Version: 6.00 Build 0)  -->
<!DOCTYPE svg PUBLIC "-//W3C//DTD SVG 1.1//EN" "http://www.w3.org/Graphics/SVG/1.1/DTD/svg11.dtd">
<svg version="1.1" id="Layer_1" xmlns="http://www.w3.org/2000/svg" xmlns:xlink="http://www.w3.org/1999/xlink" x="0px" y="0px"
	 width="64px" height="64px" viewBox="0 0 64 64" enable-background="new 0 0 64 64" xml:space="preserve">
<path d="M61.92279,31.61786c-0.05072-0.12238-0.12378-0.23303-0.21606-0.3252l-8.99969-8.99969
	c-0.39062-0.39062-1.02344-0.39062-1.41406,0s-0.39062,1.02344,0,1.41406L58.58594,31h-17.6366C40.43304,23.74707,34.3822,18,27,18
	c-7.09644,0-13.06934,5.39801-13.88885,12.39569L1.61572,35.21631c-0.50928,0.21387-0.74902,0.7998-0.53564,1.30908
	c0.21338,0.5083,0.79834,0.74756,1.30908,0.53564l20.67578-8.67041c2.54248-1.06787,5.47803,0.13477,6.54443,2.67725
	c1.06592,2.54248-0.13477,5.47852-2.67725,6.54443L2.61719,47.80908c-0.50928,0.21387-0.74902,0.7998-0.53564,1.30908
	c0.16064,0.38281,0.53174,0.61377,0.92285,0.61377c0.12891,0,0.25977-0.02539,0.38623-0.07812l15.28833-6.41138
	C21.07629,45.0177,24.00256,46,27,46c7.3822,0,13.43304-5.74707,13.94934-13h17.6366l-7.29297,7.29297
	c-0.39062,0.39062-0.39062,1.02344,0,1.41406C51.48828,41.90234,51.74414,42,52,42s0.51172-0.09766,0.70703-0.29297l8.99969-8.99969
	c0.09229-0.09216,0.16534-0.20282,0.21606-0.3252C62.02393,32.13763,62.02393,31.86237,61.92279,31.61786z M27,44
	c-2.19379,0-4.27612-0.5824-6.11688-1.68188l6.82245-2.86108c3.55908-1.49268,5.24072-5.60254,3.74854-9.1626
	c-1.49316-3.55908-5.60254-5.23877-9.1626-3.74854l-7.00616,2.93805C16.46411,24.05072,21.31049,20,27,20c6.6167,0,12,5.3833,12,12
	S33.6167,44,27,44z"/>
</svg>
