<?xml version="1.0" encoding="utf-8"?>
<!-- Generator: Adobe Illustrator 20.0.0, SVG Export Plug-In . SVG Version: 6.00 Build 0)  -->
<!DOCTYPE svg PUBLIC "-//W3C//DTD SVG 1.1//EN" "http://www.w3.org/Graphics/SVG/1.1/DTD/svg11.dtd">
<svg version="1.1" id="Layer_1" xmlns="http://www.w3.org/2000/svg" xmlns:xlink="http://www.w3.org/1999/xlink" x="0px" y="0px"
	 width="32px" height="32px" viewBox="0 0 32 32" enable-background="new 0 0 32 32" xml:space="preserve">
<circle cx="11" cy="19" r="2"/>
<circle cx="21" cy="19" r="2"/>
<path d="M28.043,12.129c-1.68-4.152-5.375-7.109-9.699-7.906C19.445,2.868,21.122,2,23,2c0.553,0,1-0.447,1-1s-0.447-1-1-1
	c-2.955,0-5.534,1.614-6.919,4.003C16.054,4.003,16.027,4,16,4C10.698,4,5.935,7.242,3.957,12.129C1.692,12.614,0,14.641,0,17
	s1.692,4.386,3.957,4.871C5.935,26.758,10.698,30,16,30s10.065-3.242,12.043-8.129C30.308,21.386,32,19.359,32,17
	S30.308,12.614,28.043,12.129z M27.235,19.972l-0.648,0.052l-0.216,0.614C24.825,25.041,20.657,28,16,28s-8.825-2.959-10.371-7.362
	l-0.216-0.614l-0.648-0.052C3.214,19.849,2,18.544,2,17s1.214-2.849,2.765-2.972l0.648-0.052l0.216-0.614
	c1.463-4.167,5.275-7.037,9.627-7.333C15.095,6.661,15,7.319,15,8c0,0.553,0.447,1,1,1s1-0.447,1-1c0-0.669,0.115-1.311,0.318-1.912
	c4.11,0.499,7.655,3.292,9.053,7.274l0.216,0.614l0.648,0.052C28.786,14.151,30,15.456,30,17S28.786,19.849,27.235,19.972z"/>
</svg>
