<?xml version="1.0" encoding="utf-8"?>
<!-- Generator: Adobe Illustrator 20.0.0, SVG Export Plug-In . SVG Version: 6.00 Build 0)  -->
<!DOCTYPE svg PUBLIC "-//W3C//DTD SVG 1.1//EN" "http://www.w3.org/Graphics/SVG/1.1/DTD/svg11.dtd">
<svg version="1.1" id="Layer_1" xmlns="http://www.w3.org/2000/svg" xmlns:xlink="http://www.w3.org/1999/xlink" x="0px" y="0px"
	 width="32px" height="32px" viewBox="0 0 32 32" enable-background="new 0 0 32 32" xml:space="preserve">
<path d="M31,6H20c-0.552,0-1,0.447-1,1s0.448,1,1,1h11c0.552,0,1-0.447,1-1S31.552,6,31,6z"/>
<path d="M31,12H20c-0.552,0-1,0.447-1,1s0.448,1,1,1h11c0.552,0,1-0.447,1-1S31.552,12,31,12z"/>
<path d="M31,18h-6c-0.552,0-1,0.447-1,1s0.448,1,1,1h6c0.552,0,1-0.447,1-1S31.552,18,31,18z"/>
<path d="M31,24h-6c-0.552,0-1,0.447-1,1s0.448,1,1,1h6c0.552,0,1-0.447,1-1S31.552,24,31,24z"/>
<path d="M16.409,17.973c-4.4-1.302-8.551-1.277-12.826-0.012C1.439,18.596,0,20.523,0,22.758V29c0,0.553,0.448,1,1,1h18
	c0.552,0,1-0.447,1-1v-6.228C20,20.536,18.557,18.607,16.409,17.973z"/>
<path d="M4,8c0,3.237,2.621,7,6,7s6-3.763,6-7c0-3.309-2.691-6-6-6S4,4.691,4,8z"/>
</svg>
