<?xml version="1.0" encoding="utf-8"?>
<!-- Generator: Adobe Illustrator 20.0.0, SVG Export Plug-In . SVG Version: 6.00 Build 0)  -->
<!DOCTYPE svg PUBLIC "-//W3C//DTD SVG 1.1//EN" "http://www.w3.org/Graphics/SVG/1.1/DTD/svg11.dtd">
<svg version="1.1" id="Layer_1" xmlns="http://www.w3.org/2000/svg" xmlns:xlink="http://www.w3.org/1999/xlink" x="0px" y="0px"
	 width="32px" height="32px" viewBox="0 0 32 32" enable-background="new 0 0 32 32" xml:space="preserve">
<path d="M12,27c0,0.552,0.448,1,1,1h6c0.552,0,1-0.448,1-1v-6h3v-8c0-2.209-1.791-4-4-4h-6c-2.209,0-4,1.791-4,4v8h3V27z"/>
<circle cx="16" cy="4" r="4"/>
<path d="M23,23.396v2.017c4.904,0.619,6.839,1.698,7.006,2.045C29.662,28.345,24.55,30,16,30S2.338,28.345,1.994,27.542
	c0.167-0.43,2.102-1.51,7.006-2.129v-2.017c-2.8,0.344-9,1.303-9,4.104C0,31.052,10.058,32,16,32s16-0.948,16-4.5
	C32,24.699,25.8,23.741,23,23.396z"/>
</svg>
