<?xml version="1.0" encoding="utf-8"?>
<!-- Generator: Adobe Illustrator 20.0.0, SVG Export Plug-In . SVG Version: 6.00 Build 0)  -->
<!DOCTYPE svg PUBLIC "-//W3C//DTD SVG 1.1//EN" "http://www.w3.org/Graphics/SVG/1.1/DTD/svg11.dtd">
<svg version="1.1" id="Layer_1" xmlns="http://www.w3.org/2000/svg" xmlns:xlink="http://www.w3.org/1999/xlink" x="0px" y="0px"
	 width="32px" height="32px" viewBox="0 0 32 32" enable-background="new 0 0 32 32" xml:space="preserve">
<path d="M31,0H1C0.448,0,0,0.447,0,1v30c0,0.553,0.448,1,1,1h30c0.552,0,1-0.447,1-1V1C32,0.447,31.552,0,31,0z M6.017,29
	c0.021-0.263,0.048-0.418,0.048-0.418c0.192-3.389,2.142-4.451,4.968-5.393c1.424-0.475,2.158-1.627,2.545-2.704
	C11.474,19.553,10,17.447,10,15v-2c0-3.309,2.691-6,6-6s6,2.691,6,6v2c0,2.448-1.475,4.554-3.581,5.486
	c0.388,1.076,1.124,2.228,2.548,2.703c2.826,0.942,4.758,2.017,4.951,5.406c0,0,0.027,0.149,0.048,0.405H6.017z"/>
</svg>
