<?xml version="1.0" encoding="utf-8"?>
<!-- Generator: Adobe Illustrator 20.0.0, SVG Export Plug-In . SVG Version: 6.00 Build 0)  -->
<!DOCTYPE svg PUBLIC "-//W3C//DTD SVG 1.1//EN" "http://www.w3.org/Graphics/SVG/1.1/DTD/svg11.dtd">
<svg version="1.1" id="Layer_1" xmlns="http://www.w3.org/2000/svg" xmlns:xlink="http://www.w3.org/1999/xlink" x="0px" y="0px"
	 width="32px" height="32px" viewBox="0 0 32 32" enable-background="new 0 0 32 32" xml:space="preserve">
<path d="M16,32c8.822,0,16-7.178,16-16S24.822,0,16,0S0,7.178,0,16S7.178,32,16,32z M16,2c7.72,0,14,6.28,14,14
	c0,3.804-1.53,7.254-4,9.779v-0.015c0-1.72-0.884-3.319-2.341-4.234l-2.231-1.401C20.075,21.812,18.234,23,16,23
	s-4.075-1.188-5.428-2.871L8.341,21.53C6.884,22.445,6,24.044,6,25.764v0.015C3.53,23.254,2,19.804,2,16C2,8.28,8.28,2,16,2z"/>
<path d="M16,21c3.583,0,6-4.686,6-8s-2.686-6-6-6s-6,2.686-6,6S12.458,21,16,21z"/>
</svg>
