<?xml version="1.0" encoding="utf-8"?>
<!-- Generator: Adobe Illustrator 20.0.0, SVG Export Plug-In . SVG Version: 6.00 Build 0)  -->
<!DOCTYPE svg PUBLIC "-//W3C//DTD SVG 1.1//EN" "http://www.w3.org/Graphics/SVG/1.1/DTD/svg11.dtd">
<svg version="1.1" id="Layer_1" xmlns="http://www.w3.org/2000/svg" xmlns:xlink="http://www.w3.org/1999/xlink" x="0px" y="0px"
	 width="32px" height="32px" viewBox="0 0 32 32" enable-background="new 0 0 32 32" xml:space="preserve">
<path d="M28.962,21.646C27.163,20.896,23.975,20,19,20s-8.163,0.896-9.962,1.646C7.192,22.418,6,24.225,6,26.249V32h26v-5.751
	C32,24.225,30.808,22.418,28.962,21.646z"/>
<path d="M19,1c-3.866,0-7,3.134-7,7v2c0,3.866,3.134,7,7,7s7-3.134,7-7V8C26,4.134,22.866,1,19,1z"/>
<polygon points="6,21 6,17 10,17 10,15 6,15 6,11 4,11 4,15 0,15 0,17 4,17 4,21 "/>
</svg>
