<?xml version="1.0" encoding="utf-8"?>
<!-- Generator: Adobe Illustrator 20.0.0, SVG Export Plug-In . SVG Version: 6.00 Build 0)  -->
<!DOCTYPE svg PUBLIC "-//W3C//DTD SVG 1.1//EN" "http://www.w3.org/Graphics/SVG/1.1/DTD/svg11.dtd">
<svg version="1.1" id="Layer_1" xmlns="http://www.w3.org/2000/svg" xmlns:xlink="http://www.w3.org/1999/xlink" x="0px" y="0px"
	 width="32px" height="32px" viewBox="0 0 32 32" enable-background="new 0 0 32 32" xml:space="preserve">
<path d="M14,17c4.579,0,8-4.751,8-9c0-4.411-3.589-8-8-8S6,3.589,6,8C6,12.249,9.421,17,14,17z"/>
<path d="M1,31h17v-7c0-1.304,0.836-2.416,2-2.829V21c0-0.508,0.07-0.999,0.19-1.47C18.441,19.215,16.397,19,14,19
	c-5.647,0-9.442,1.158-11.632,2.129C0.93,21.767,0,23.201,0,24.783V30C0,30.552,0.448,31,1,31z"/>
<path d="M31,23h-1v-2c0-2.206-1.794-4-4-4s-4,1.794-4,4v2h-1c-0.552,0-1,0.448-1,1v7c0,0.552,0.448,1,1,1h10c0.552,0,1-0.448,1-1v-7
	C32,23.448,31.552,23,31,23z M28,23h-4v-2c0-1.103,0.897-2,2-2s2,0.897,2,2V23z"/>
</svg>
