<?xml version="1.0" encoding="utf-8"?>
<!-- Generator: Adobe Illustrator 20.0.0, SVG Export Plug-In . SVG Version: 6.00 Build 0)  -->
<!DOCTYPE svg PUBLIC "-//W3C//DTD SVG 1.1//EN" "http://www.w3.org/Graphics/SVG/1.1/DTD/svg11.dtd">
<svg version="1.1" id="Layer_1" xmlns="http://www.w3.org/2000/svg" xmlns:xlink="http://www.w3.org/1999/xlink" x="0px" y="0px"
	 width="32px" height="32px" viewBox="0 0 32 32" enable-background="new 0 0 32 32" xml:space="preserve">
<path d="M29.359,6.066l-13-5c-0.232-0.088-0.486-0.088-0.719,0l-13,5C2.378,6.168,2.17,6.376,2.067,6.639
	C1.966,6.901,1.979,7.195,2.105,7.447L5,13.236V21c0,6.065,4.935,11,11,11s11-4.935,11-11v-7.764l2.895-5.789
	c0.126-0.252,0.14-0.546,0.038-0.809C29.83,6.376,29.622,6.168,29.359,6.066z M16,8c1.657,0,3,1.343,3,3s-1.343,3-3,3s-3-1.343-3-3
	S14.343,8,16,8z M25,21c0,4.963-4.037,9-9,9s-9-4.037-9-9v-2h18V21z"/>
</svg>
