<?xml version="1.0" encoding="utf-8"?>
<!-- Generator: Adobe Illustrator 20.0.0, SVG Export Plug-In . SVG Version: 6.00 Build 0)  -->
<!DOCTYPE svg PUBLIC "-//W3C//DTD SVG 1.1//EN" "http://www.w3.org/Graphics/SVG/1.1/DTD/svg11.dtd">
<svg version="1.1" id="Layer_1" xmlns="http://www.w3.org/2000/svg" xmlns:xlink="http://www.w3.org/1999/xlink" x="0px" y="0px"
	 width="32px" height="32px" viewBox="0 0 32 32" enable-background="new 0 0 32 32" xml:space="preserve">
<path d="M31,1h-6v2h3.586l-3.975,3.975C23.071,5.742,21.122,5,19,5c-1.849,0-3.569,0.562-5,1.522C12.569,5.562,10.849,5,9,5
	c-4.963,0-9,4.038-9,9c0,4.625,3.507,8.442,8,8.941v4.645l-3-3L3.586,26l4.707,4.707C8.488,30.902,8.744,31,9,31
	s0.512-0.098,0.707-0.293L14.414,26L13,24.586l-3,3v-4.645c1.467-0.163,2.824-0.684,3.993-1.467C15.425,22.437,17.148,23,19,23
	c4.963,0,9-4.037,9-9c0-2.122-0.742-4.071-1.975-5.611L30,4.414V8h2V2C32,1.448,31.553,1,31,1z M14,18.889
	c-1.235-1.263-2-2.988-2-4.889c0-1.902,0.765-3.627,2-4.889c1.235,1.263,2,2.988,2,4.889C16,15.902,15.235,17.626,14,18.889z M9,21
	c-3.859,0-7-3.141-7-7c0-3.86,3.141-7,7-7c1.238,0,2.399,0.326,3.409,0.892C10.919,9.498,10,11.641,10,14
	c0,2.359,0.919,4.502,2.409,6.108C11.399,20.674,10.237,21,9,21z M19,21c-1.236,0-2.397-0.325-3.406-0.89
	C17.084,18.504,18,16.359,18,14c0-2.359-0.919-4.502-2.409-6.108C16.601,7.326,17.762,7,19,7c3.859,0,7,3.14,7,7
	C26,17.859,22.859,21,19,21z"/>
</svg>
