<?xml version="1.0" encoding="utf-8"?>
<!-- Generator: Adobe Illustrator 20.0.0, SVG Export Plug-In . SVG Version: 6.00 Build 0)  -->
<!DOCTYPE svg PUBLIC "-//W3C//DTD SVG 1.1//EN" "http://www.w3.org/Graphics/SVG/1.1/DTD/svg11.dtd">
<svg version="1.1" id="Layer_1" xmlns="http://www.w3.org/2000/svg" xmlns:xlink="http://www.w3.org/1999/xlink" x="0px" y="0px"
	 width="32px" height="32px" viewBox="0 0 32 32" enable-background="new 0 0 32 32" xml:space="preserve">
<path d="M25,2h3.586l-3.975,3.975C23.071,4.742,21.122,4,19,4c-1.849,0-3.569,0.562-5,1.522C12.569,4.562,10.849,4,9,4
	c-4.962,0-9,4.037-9,9c0,4.625,3.507,8.442,8,8.941V26H5v2h3v3h2v-3h3v-2h-3v-4.059c1.466-0.163,2.824-0.685,3.993-1.467
	C15.425,21.437,17.148,22,19,22c4.962,0,9-4.037,9-9c0-2.122-0.742-4.071-1.975-5.611L30,3.414V7h2V0h-7V2z M14,17.889
	c-1.235-1.263-2-2.988-2-4.889s0.765-3.627,2-4.889c1.235,1.263,2,2.988,2,4.889S15.235,16.627,14,17.889z M9,20
	c-3.86,0-7-3.141-7-7s3.14-7,7-7c1.238,0,2.399,0.326,3.409,0.892C10.919,8.498,10,10.641,10,13s0.919,4.502,2.409,6.108
	C11.399,19.674,10.238,20,9,20z M19,20c-1.236,0-2.397-0.325-3.406-0.89C17.084,17.504,18,15.359,18,13
	c0-2.359-0.919-4.502-2.409-6.108C16.601,6.326,17.762,6,19,6c3.86,0,7,3.141,7,7S22.86,20,19,20z"/>
</svg>
