<?xml version="1.0" encoding="utf-8"?>
<!-- Generator: Adobe Illustrator 20.0.0, SVG Export Plug-In . SVG Version: 6.00 Build 0)  -->
<!DOCTYPE svg PUBLIC "-//W3C//DTD SVG 1.1//EN" "http://www.w3.org/Graphics/SVG/1.1/DTD/svg11.dtd">
<svg version="1.1" id="Layer_1" xmlns="http://www.w3.org/2000/svg" xmlns:xlink="http://www.w3.org/1999/xlink" x="0px" y="0px"
	 width="32px" height="32px" viewBox="0 0 32 32" enable-background="new 0 0 32 32" xml:space="preserve">
<path d="M16,32c7.625,0,12.214-2.001,12.406-2.086L29,29.65V29c0-5.514-4.486-10-10-10h-6C7.486,19,3,23.486,3,29v0.65l0.594,0.264
	C3.786,29.999,8.375,32,16,32z"/>
<path d="M16,17c4.579,0,8-4.751,8-9c0-4.411-3.589-8-8-8S8,3.589,8,8C8,12.249,11.421,17,16,17z"/>
</svg>
