<?xml version="1.0" encoding="utf-8"?>
<!-- Generator: Adobe Illustrator 20.0.0, SVG Export Plug-In . SVG Version: 6.00 Build 0)  -->
<!DOCTYPE svg PUBLIC "-//W3C//DTD SVG 1.1//EN" "http://www.w3.org/Graphics/SVG/1.1/DTD/svg11.dtd">
<svg version="1.1" id="Layer_1" xmlns="http://www.w3.org/2000/svg" xmlns:xlink="http://www.w3.org/1999/xlink" x="0px" y="0px"
	 width="32px" height="32px" viewBox="0 0 32 32" enable-background="new 0 0 32 32" xml:space="preserve">
<path d="M31,0H1C0.448,0,0,0.448,0,1v24c0,0.552,0.448,1,1,1h9.532l4.7,5.64C15.422,31.868,15.703,32,16,32s0.578-0.132,0.768-0.36
	l4.7-5.64H31c0.552,0,1-0.448,1-1V1C32,0.448,31.552,0,31,0z M16,5c2.206,0,4,1.794,4,4s-1.794,4-4,4s-4-1.794-4-4S13.794,5,16,5z
	 M23,20.019L9,20.006v-0.999c0-1.052,0.56-2.04,1.462-2.578C11.553,15.777,13.4,15,16,15c2.567,0,4.422,0.779,5.526,1.433
	C22.435,16.97,23,17.96,23,19.018V20.019z"/>
</svg>
