<?xml version="1.0" encoding="utf-8"?>
<!-- Generator: Adobe Illustrator 20.0.0, SVG Export Plug-In . SVG Version: 6.00 Build 0)  -->
<!DOCTYPE svg PUBLIC "-//W3C//DTD SVG 1.1//EN" "http://www.w3.org/Graphics/SVG/1.1/DTD/svg11.dtd">
<svg version="1.1" id="Layer_1" xmlns="http://www.w3.org/2000/svg" xmlns:xlink="http://www.w3.org/1999/xlink" x="0px" y="0px"
	 width="32px" height="32px" viewBox="0 0 32 32" enable-background="new 0 0 32 32" xml:space="preserve">
<path d="M15,17c4.579,0,8-4.751,8-9c0-4.411-3.589-8-8-8S7,3.589,7,8C7,12.249,10.421,17,15,17z"/>
<path d="M2,31h15.188l1.006-4.022l6.564-6.564C22.499,19.667,19.285,19,15,19c-5.647,0-9.442,1.158-11.632,2.129
	C1.93,21.767,1,23.201,1,24.783V30C1,30.552,1.448,31,2,31z"/>
<path d="M28.379,19.621L20,28l-1,4l4-1l8.379-8.379c0.824-0.824,0.831-2.169,0-3C30.55,18.793,29.207,18.793,28.379,19.621z"/>
</svg>
