<?xml version="1.0" encoding="utf-8"?>
<!-- Generator: Adobe Illustrator 20.0.0, SVG Export Plug-In . SVG Version: 6.00 Build 0)  -->
<!DOCTYPE svg PUBLIC "-//W3C//DTD SVG 1.1//EN" "http://www.w3.org/Graphics/SVG/1.1/DTD/svg11.dtd">
<svg version="1.1" id="Layer_1" xmlns="http://www.w3.org/2000/svg" xmlns:xlink="http://www.w3.org/1999/xlink" x="0px" y="0px"
	 width="32px" height="32px" viewBox="0 0 32 32" enable-background="new 0 0 32 32" xml:space="preserve">
<path d="M16,0C7.178,0,0,7.178,0,16v11.414l0.293,0.293C0.468,27.883,4.715,32,16,32s15.532-4.117,15.707-4.293L32,27.414V16
	C32,7.178,24.822,0,16,0z M16,28C9.383,28,4,22.617,4,16c0-2.684,0.847-4.442,1.291-5.477C6.291,10.735,7.379,11,9,11
	c4.584,0,8.366-1.954,11.579-6.112C25.75,7.446,28,11.492,28,16C28,22.617,22.617,28,16,28z"/>
<circle cx="10.5" cy="17.5" r="1.5"/>
<circle cx="21.5" cy="17.5" r="1.5"/>
</svg>
