<?xml version="1.0" encoding="utf-8"?>
<!-- Generator: Adobe Illustrator 20.0.0, SVG Export Plug-In . SVG Version: 6.00 Build 0)  -->
<!DOCTYPE svg PUBLIC "-//W3C//DTD SVG 1.1//EN" "http://www.w3.org/Graphics/SVG/1.1/DTD/svg11.dtd">
<svg version="1.1" id="Layer_1" xmlns="http://www.w3.org/2000/svg" xmlns:xlink="http://www.w3.org/1999/xlink" x="0px" y="0px"
	 width="32px" height="32px" viewBox="0 0 32 32" enable-background="new 0 0 32 32" xml:space="preserve">
<path d="M14,17c4.579,0,8-4.751,8-9c0-4.411-3.589-8-8-8S6,3.589,6,8C6,12.249,9.421,17,14,17z"/>
<path d="M1,31h17.305C16.876,29.407,16,27.308,16,25c0-2.2,0.791-4.213,2.102-5.776C16.859,19.086,15.499,19,14,19
	c-5.647,0-9.442,1.158-11.632,2.129C0.93,21.767,0,23.201,0,24.783V30C0,30.552,0.448,31,1,31z"/>
<path d="M25,18c-3.866,0-7,3.134-7,7s3.134,7,7,7s7-3.134,7-7S28.866,18,25,18z M29,26h-3v3h-2v-3h-3v-2h3v-3h2v3h3V26z"/>
</svg>
