<?xml version="1.0" encoding="utf-8"?>
<!-- Generator: Adobe Illustrator 20.0.0, SVG Export Plug-In . SVG Version: 6.00 Build 0)  -->
<!DOCTYPE svg PUBLIC "-//W3C//DTD SVG 1.1//EN" "http://www.w3.org/Graphics/SVG/1.1/DTD/svg11.dtd">
<svg version="1.1" id="Layer_1" xmlns="http://www.w3.org/2000/svg" xmlns:xlink="http://www.w3.org/1999/xlink" x="0px" y="0px"
	 width="32px" height="32px" viewBox="0 0 32 32" enable-background="new 0 0 32 32" xml:space="preserve">
<path d="M27,5c0-0.552-0.447-1-1-1s-1,0.448-1,1v11h-5l6,7l6-7h-5V5z"/>
<path d="M15,31v-7h3v-7c0-2.761-2.239-5-5-5H7c-2.761,0-5,2.239-5,5v7h3v7c0,0.552,0.448,1,1,1h8C14.552,32,15,31.552,15,31z"/>
<circle cx="10" cy="5" r="5"/>
</svg>
