<?xml version="1.0" encoding="utf-8"?>
<!-- Generator: Adobe Illustrator 20.0.0, SVG Export Plug-In . SVG Version: 6.00 Build 0)  -->
<!DOCTYPE svg PUBLIC "-//W3C//DTD SVG 1.1//EN" "http://www.w3.org/Graphics/SVG/1.1/DTD/svg11.dtd">
<svg version="1.1" id="Layer_1" xmlns="http://www.w3.org/2000/svg" xmlns:xlink="http://www.w3.org/1999/xlink" x="0px" y="0px"
	 width="32px" height="32px" viewBox="0 0 32 32" enable-background="new 0 0 32 32" xml:space="preserve">
<path d="M14,17c4.579,0,8-4.751,8-9c0-4.411-3.589-8-8-8S6,3.589,6,8C6,12.249,9.421,17,14,17z"/>
<path d="M29.701,19.299C28.655,18.465,27.368,18,26,18c-3.309,0-6,2.691-6,6h2c0-2.206,1.794-4,4-4c0.826,0,1.599,0.276,2.259,0.741
	L26,23h6v-6L29.701,19.299z"/>
<path d="M26,29c-0.826,0-1.599-0.276-2.259-0.741L26,26h-6v6l2.299-2.299C23.345,30.535,24.632,31,26,31c3.309,0,6-2.691,6-6h-2
	C30,27.206,28.206,29,26,29z"/>
<path d="M1,31h17v-7c0-1.713,0.543-3.297,1.46-4.599C17.878,19.157,16.066,19,14,19c-5.647,0-9.442,1.158-11.632,2.129
	C0.93,21.767,0,23.201,0,24.783V30C0,30.552,0.448,31,1,31z"/>
</svg>
