<?xml version="1.0" encoding="utf-8"?>
<!-- Generator: Adobe Illustrator 20.0.0, SVG Export Plug-In . SVG Version: 6.00 Build 0)  -->
<!DOCTYPE svg PUBLIC "-//W3C//DTD SVG 1.1//EN" "http://www.w3.org/Graphics/SVG/1.1/DTD/svg11.dtd">
<svg version="1.1" id="Layer_1" xmlns="http://www.w3.org/2000/svg" xmlns:xlink="http://www.w3.org/1999/xlink" x="0px" y="0px"
	 width="32px" height="32px" viewBox="0 0 32 32" enable-background="new 0 0 32 32" xml:space="preserve">
<path d="M23.5,5C21.015,5,19,7.015,19,9.5s2.015,5.5,4.5,5.5S28,11.985,28,9.5S25.985,5,23.5,5z"/>
<path d="M10.5,4C7.462,4,5,6.462,5,9.5c0,3.038,2.462,6.5,5.5,6.5S16,12.538,16,9.5C16,6.462,13.538,4,10.5,4z"/>
<path d="M29.499,18.128C28.208,17.613,26.12,17,23.5,17c-1.931,0-3.57,0.334-4.817,0.715C21.577,19.036,23,21.579,23,24.185V25h9
	v-3.162C32,20.189,31.019,18.733,29.499,18.128z"/>
<path d="M21,24.185c0-1.9-1.097-3.663-2.795-4.49C16.618,18.922,13.993,18,10.5,18s-6.118,0.922-7.705,1.695
	C1.097,20.522,0,22.285,0,24.185V28h21V24.185z"/>
</svg>
