<?xml version="1.0" encoding="utf-8"?>
<!-- Generator: Adobe Illustrator 20.0.0, SVG Export Plug-In . SVG Version: 6.00 Build 0)  -->
<!DOCTYPE svg PUBLIC "-//W3C//DTD SVG 1.1//EN" "http://www.w3.org/Graphics/SVG/1.1/DTD/svg11.dtd">
<svg version="1.1" id="Layer_1" xmlns="http://www.w3.org/2000/svg" xmlns:xlink="http://www.w3.org/1999/xlink" x="0px" y="0px"
	 width="32px" height="32px" viewBox="0 0 32 32" enable-background="new 0 0 32 32" xml:space="preserve">
<circle cx="16" cy="4" r="4"/>
<path d="M21.929,10.629C21.776,10.249,21.409,10,21,10H11c-0.409,0-0.776,0.249-0.929,0.629l-4,10
	c-0.205,0.513,0.045,1.095,0.558,1.3c0.509,0.204,1.095-0.043,1.3-0.558L11,13.692V31c0,0.553,0.447,1,1,1s1-0.447,1-1v-7h6v7
	c0,0.553,0.447,1,1,1s1-0.447,1-1V13.692l3.071,7.679C24.228,21.763,24.604,22,25,22c0.124,0,0.25-0.022,0.371-0.071
	c0.513-0.205,0.763-0.787,0.558-1.3L21.929,10.629z"/>
</svg>
