<?xml version="1.0" encoding="utf-8"?>
<!-- Generator: Adobe Illustrator 20.0.0, SVG Export Plug-In . SVG Version: 6.00 Build 0)  -->
<!DOCTYPE svg PUBLIC "-//W3C//DTD SVG 1.1//EN" "http://www.w3.org/Graphics/SVG/1.1/DTD/svg11.dtd">
<svg version="1.1" id="Layer_1" xmlns="http://www.w3.org/2000/svg" xmlns:xlink="http://www.w3.org/1999/xlink" x="0px" y="0px"
	 width="32px" height="32px" viewBox="0 0 32 32" enable-background="new 0 0 32 32" xml:space="preserve">
<circle cx="25" cy="21" r="4"/>
<circle cx="7" cy="21" r="4"/>
<path d="M21.526,10.433C20.422,9.779,18.567,9,16,9c-2.601,0-4.447,0.777-5.538,1.429C9.561,10.967,9,11.955,9,13.007V15h14v-1.982
	C23,11.96,22.435,10.97,21.526,10.433z"/>
<path d="M14,30.018c0-1.057-0.565-2.048-1.474-2.585C11.422,26.779,9.567,26,7,26c-2.601,0-4.447,0.777-5.538,1.429
	C0.561,27.967,0,28.955,0,30.007V32h14V30.018z"/>
<path d="M30.526,27.433C29.422,26.779,27.567,26,25,26c-2.601,0-4.447,0.777-5.538,1.429C18.561,27.967,18,28.955,18,30.007V32h14
	v-1.982C32,28.96,31.435,27.97,30.526,27.433z"/>
<circle cx="16" cy="4" r="4"/>
</svg>
