<?xml version="1.0" encoding="utf-8"?>
<!-- Generator: Adobe Illustrator 20.0.0, SVG Export Plug-In . SVG Version: 6.00 Build 0)  -->
<!DOCTYPE svg PUBLIC "-//W3C//DTD SVG 1.1//EN" "http://www.w3.org/Graphics/SVG/1.1/DTD/svg11.dtd">
<svg version="1.1" id="Layer_1" xmlns="http://www.w3.org/2000/svg" xmlns:xlink="http://www.w3.org/1999/xlink" x="0px" y="0px"
	 width="32px" height="32px" viewBox="0 0 32 32" enable-background="new 0 0 32 32" xml:space="preserve">
<path d="M6,8c0,4.249,3.421,9,8,9s8-4.751,8-9c0-4.411-3.589-8-8-8S6,3.589,6,8z"/>
<path d="M18.102,19.224C16.859,19.086,15.499,19,14,19c-5.647,0-9.442,1.158-11.632,2.129C0.93,21.767,0,23.201,0,24.783V30
	c0,0.552,0.448,1,1,1h17.305C16.876,29.407,16,27.308,16,25C16,22.8,16.791,20.787,18.102,19.224z"/>
<path d="M20.05,20.05c-2.734,2.734-2.734,7.166,0,9.899c2.734,2.734,7.166,2.734,9.9,0c2.734-2.734,2.734-7.166,0-9.899
	S22.784,17.317,20.05,20.05z M28.536,27.121l-1.414,1.414L25,26.414l-2.121,2.121l-1.414-1.414L23.586,25l-2.121-2.121l1.414-1.414
	L25,23.586l2.121-2.121l1.414,1.414L26.414,25L28.536,27.121z"/>
</svg>
