<?xml version="1.0" encoding="utf-8"?>
<!-- Generator: Adobe Illustrator 20.0.0, SVG Export Plug-In . SVG Version: 6.00 Build 0)  -->
<!DOCTYPE svg PUBLIC "-//W3C//DTD SVG 1.1//EN" "http://www.w3.org/Graphics/SVG/1.1/DTD/svg11.dtd">
<svg version="1.1" id="Layer_1" xmlns="http://www.w3.org/2000/svg" xmlns:xlink="http://www.w3.org/1999/xlink" x="0px" y="0px"
	 width="32px" height="32px" viewBox="0 0 32 32" enable-background="new 0 0 32 32" xml:space="preserve">
<path d="M31,0H1C0.448,0,0,0.447,0,1v30c0,0.553,0.448,1,1,1h30c0.552,0,1-0.447,1-1V1C32,0.447,31.552,0,31,0z M30,30h-4v-4.236
	c0-1.72-0.884-3.319-2.341-4.234l-2.231-1.401C20.075,21.812,18.234,23,16,23s-4.075-1.188-5.429-2.871L8.341,21.53
	C6.884,22.445,6,24.044,6,25.764V30H2V2h28V30z"/>
<path d="M16,21c3.583,0,6-4.686,6-8s-2.686-6-6-6s-6,2.686-6,6S12.458,21,16,21z"/>
</svg>
