<?xml version="1.0" encoding="utf-8"?>
<!-- Generator: Adobe Illustrator 20.0.0, SVG Export Plug-In . SVG Version: 6.00 Build 0)  -->
<!DOCTYPE svg PUBLIC "-//W3C//DTD SVG 1.1//EN" "http://www.w3.org/Graphics/SVG/1.1/DTD/svg11.dtd">
<svg version="1.1" id="Layer_1" xmlns="http://www.w3.org/2000/svg" xmlns:xlink="http://www.w3.org/1999/xlink" x="0px" y="0px"
	 width="32px" height="32px" viewBox="0 0 32 32" enable-background="new 0 0 32 32" xml:space="preserve">
<path d="M14,17c4.579,0,8-4.751,8-9c0-4.411-3.589-8-8-8S6,3.589,6,8C6,12.249,9.421,17,14,17z"/>
<path d="M1,31h17.763C17.657,29.447,17,27.552,17,25.5c0-2.336,0.847-4.472,2.245-6.127C17.712,19.147,15.976,19,14,19
	c-5.647,0-9.442,1.158-11.632,2.129C0.93,21.767,0,23.201,0,24.783V30C0,30.552,0.448,31,1,31z"/>
<path d="M29.5,24c1.381,0,2.5-1.119,2.5-2.5c0-1.381-1.119-2.5-2.5-2.5S27,20.119,27,21.5c0,0.043,0.01,0.083,0.013,0.125
	l-3.922,1.961C22.658,23.226,22.108,23,21.5,23c-1.381,0-2.5,1.119-2.5,2.5c0,1.381,1.119,2.5,2.5,2.5
	c0.608,0,1.158-0.226,1.591-0.586l3.922,1.961C27.01,29.417,27,29.457,27,29.5c0,1.381,1.119,2.5,2.5,2.5s2.5-1.119,2.5-2.5
	c0-1.381-1.119-2.5-2.5-2.5c-0.608,0-1.158,0.226-1.591,0.586l-3.922-1.961c0.002-0.042,0.002-0.208,0-0.251l3.922-1.961
	C28.342,23.774,28.892,24,29.5,24z"/>
</svg>
