<?xml version="1.0" encoding="utf-8"?>
<!-- Generator: Adobe Illustrator 20.0.0, SVG Export Plug-In . SVG Version: 6.00 Build 0)  -->
<!DOCTYPE svg PUBLIC "-//W3C//DTD SVG 1.1//EN" "http://www.w3.org/Graphics/SVG/1.1/DTD/svg11.dtd">
<svg version="1.1" id="Layer_1" xmlns="http://www.w3.org/2000/svg" xmlns:xlink="http://www.w3.org/1999/xlink" x="0px" y="0px"
	 width="32px" height="32px" viewBox="0 0 32 32" enable-background="new 0 0 32 32" xml:space="preserve">
<path d="M30.999,11c0.357,0,0.704-0.192,0.883-0.529c0.26-0.487,0.076-1.093-0.412-1.353l-15-8c-0.294-0.157-0.647-0.157-0.941,0
	l-15,8c-0.487,0.26-0.671,0.866-0.412,1.353c0.26,0.487,0.866,0.673,1.353,0.412L16,3.133l14.529,7.749
	C30.679,10.962,30.84,11,30.999,11z"/>
<path d="M6,28.758V31c0,0.553,0.448,1,1,1h18c0.552,0,1-0.447,1-1v-2.228c0-2.236-1.443-4.165-3.591-4.8
	c-4.4-1.302-8.551-1.277-12.826-0.012C7.439,24.596,6,26.523,6,28.758z"/>
<path d="M22,14c0-3.309-2.691-6-6-6s-6,2.691-6,6c0,3.237,2.621,7,6,7S22,17.237,22,14z"/>
</svg>
