<?xml version="1.0" encoding="utf-8"?>
<!-- Generator: Adobe Illustrator 20.0.0, SVG Export Plug-In . SVG Version: 6.00 Build 0)  -->
<!DOCTYPE svg PUBLIC "-//W3C//DTD SVG 1.1//EN" "http://www.w3.org/Graphics/SVG/1.1/DTD/svg11.dtd">
<svg version="1.1" id="Layer_1" xmlns="http://www.w3.org/2000/svg" xmlns:xlink="http://www.w3.org/1999/xlink" x="0px" y="0px"
	 width="32px" height="32px" viewBox="0 0 32 32" enable-background="new 0 0 32 32" xml:space="preserve">
<path d="M31,0H14c-0.552,0-1,0.448-1,1v16.081L19,12h12c0.552,0,1-0.448,1-1V1C32,0.448,31.552,0,31,0z"/>
<circle cx="25" cy="18" r="4"/>
<circle cx="7" cy="18" r="4"/>
<path d="M14,28.018c0-1.058-0.565-2.048-1.475-2.585C11.421,24.779,9.565,24,7,24c-2.6,0-4.446,0.776-5.538,1.429
	C0.561,25.968,0,26.955,0,28.007V31h14V28.018z"/>
<path d="M30.525,25.433C29.421,24.779,27.565,24,25,24c-2.6,0-4.446,0.776-5.538,1.429C18.561,25.968,18,26.955,18,28.007V31h14
	v-2.982C32,26.96,31.435,25.97,30.525,25.433z"/>
</svg>
