<?xml version="1.0" encoding="utf-8"?>
<!-- Generator: Adobe Illustrator 19.1.0, SVG Export Plug-In . SVG Version: 6.00 Build 0)  -->
<!DOCTYPE svg PUBLIC "-//W3C//DTD SVG 1.1//EN" "http://www.w3.org/Graphics/SVG/1.1/DTD/svg11.dtd">
<svg version="1.1" id="Layer_1" xmlns="http://www.w3.org/2000/svg" xmlns:xlink="http://www.w3.org/1999/xlink" x="0px" y="0px"
	 width="48px" height="48px" viewBox="0 0 48 48" enable-background="new 0 0 48 48" xml:space="preserve">
<path fill="#EAD8C5" d="M6,20c-2.76141,0-5,2.23859-5,5v5c0,2.76141,2.23859,5,5,5s5-2.23859,5-5v-7C11,20.23859,8.76141,20,6,20z"
	/>
<path fill="#EAD8C5" d="M18,20c-2.76141,0-5,0.23859-5,3v7c0,2.76141,2.23859,5,5,5s5-2.23859,5-5v-7C23,20.23859,20.76141,20,18,20
	z"/>
<path fill="#EAD8C5" d="M30,20c-2.76141,0-5,0.23859-5,3v7c0,2.76141,2.23859,5,5,5s5-2.23859,5-5v-7C35,20.23859,32.76141,20,30,20
	z"/>
<path fill="#EAD8C5" d="M46.89923,21C46.43585,18.71783,44.41888,21,42,21s-4.43585-1.28217-4.89923,1H37v8c0,2.76141,2.23859,5,5,5
	s5-2.23859,5-5v-9H46.89923z"/>
<path fill="#EAD8C5" d="M38,3H10c-4.97056,0-9,4.02944-9,9v12h10v-3c0-0.55228,0.44771-1,1-1h0c0.55228,0,1,0.44771,1,1v3h10v-3
	c0-0.55228,0.44771-1,1-1h0c0.55228,0,1,0.44771,1,1v3h10v-3c0-0.55228,0.44772-1,1-1l0,0c0.55228,0,1,0.44771,1,1v3h10V12
	C47,7.02944,42.97056,3,38,3z"/>
<path fill="#EAD8C5" d="M42,37H20c-0.55273,0-1,0.44727-1,1c0,4.96289,4.03711,9,9,9h14c2.76141,0,5-2.23859,5-5S44.76141,37,42,37z
	"/>
</svg>
