<?xml version="1.0" encoding="utf-8"?>
<!-- Generator: Adobe Illustrator 19.1.0, SVG Export Plug-In . SVG Version: 6.00 Build 0)  -->
<!DOCTYPE svg PUBLIC "-//W3C//DTD SVG 1.1//EN" "http://www.w3.org/Graphics/SVG/1.1/DTD/svg11.dtd">
<svg version="1.1" id="Layer_1" xmlns="http://www.w3.org/2000/svg" xmlns:xlink="http://www.w3.org/1999/xlink" x="0px" y="0px"
	 width="48px" height="48px" viewBox="0 0 48 48" enable-background="new 0 0 48 48" xml:space="preserve">
<path fill="#444444" d="M7.99023,15.01074c-0.10938,0-0.21973-0.01807-0.32715-0.05469
	c-0.33496-0.11621-0.58398-0.40186-0.65332-0.75049L5.01953,4.19482C4.94629,3.82861,5.08398,3.45215,5.37598,3.21875
	c0.29102-0.23291,0.69043-0.28418,1.03027-0.13232l9,4c0.31348,0.13916,0.5332,0.4292,0.58301,0.76855
	c0.0498,0.33984-0.07812,0.68066-0.33789,0.9043L8.6416,14.77002C8.45703,14.92773,8.22559,15.01074,7.99023,15.01074z"/>
<path fill="#444444" d="M40.00977,15.01074c-0.23535,0-0.4668-0.08301-0.65137-0.24072l-7.00977-6.01074
	c-0.25977-0.22363-0.3877-0.56445-0.33789-0.9043c0.0498-0.33936,0.26953-0.62939,0.58301-0.76855l9-4
	c0.33984-0.15186,0.73926-0.10059,1.03027,0.13232c0.29199,0.2334,0.42969,0.60986,0.35645,0.97607l-1.99023,10.01074
	c-0.06934,0.34863-0.31836,0.63428-0.65332,0.75049C40.22949,14.99268,40.11914,15.01074,40.00977,15.01074z"/>
<path fill="#FA645A" d="M24,47C12.4209,47,3,37.57959,3,26S12.4209,5,24,5s21,9.42041,21,21S35.5791,47,24,47z"/>
<path fill="#FA645A" d="M24,39c-4.9624,0-9-4.0376-9-9c0-0.55225,0.44775-1,1-1h16c0.55225,0,1,0.44775,1,1
	C33,34.9624,28.9624,39,24,39z"/>
<path fill="#AE453E" d="M24,39c-4.9624,0-9-4.0376-9-9c0-0.55225,0.44775-1,1-1h16c0.55225,0,1,0.44775,1,1
	C33,34.9624,28.9624,39,24,39z"/>
<path fill="#FFFFFF" d="M33,30c0-0.55225-0.44775-1-1-1H16c-0.55225,0-1,0.44775-1,1c0,0.2926,0,0.64325,0,1h18
	C33,30.64325,33,30.2926,33,30z"/>
<path fill="#444444" d="M12.87854,17c-0.54291,0.54297-0.87878,1.29297-0.87878,2.12146c0,1.65698,1.34326,3.00024,3.00024,3.00024
	s3.00024-1.34326,3.00024-3.00024L12.87854,17z"/>
<path fill="#444444" d="M35.12122,17C35.66412,17.54297,36,18.29297,36,19.12146c0,1.65698-1.34326,3.00024-3.00024,3.00024
	s-3.00024-1.34326-3.00024-3.00024L35.12122,17z"/>
</svg>
