<?xml version="1.0" encoding="utf-8"?>
<!-- Generator: Adobe Illustrator 19.1.0, SVG Export Plug-In . SVG Version: 6.00 Build 0)  -->
<!DOCTYPE svg PUBLIC "-//W3C//DTD SVG 1.1//EN" "http://www.w3.org/Graphics/SVG/1.1/DTD/svg11.dtd">
<svg version="1.1" id="Layer_1" xmlns="http://www.w3.org/2000/svg" xmlns:xlink="http://www.w3.org/1999/xlink" x="0px" y="0px"
	 width="48px" height="48px" viewBox="0 0 48 48" enable-background="new 0 0 48 48" xml:space="preserve">
<path fill="#FFD764" d="M24,47C11.31787,47,1,36.68213,1,24S11.31787,1,24,1s23,10.31787,23,23S36.68213,47,24,47z"/>
<path fill="#444444" d="M14,21c-1.6543,0-3-1.3457-3-3s1.3457-3,3-3s3,1.3457,3,3S15.6543,21,14,21z"/>
<path fill="#444444" d="M34,21c-1.6543,0-3-1.3457-3-3s1.3457-3,3-3s3,1.3457,3,3S35.6543,21,34,21z"/>
<path fill="#444444" d="M18,37.00049c-0.41895,0-0.80908-0.26514-0.94873-0.68408c-0.1748-0.52393,0.1084-1.09033,0.63232-1.26514
	l12-4c0.52686-0.17676,1.09082,0.10889,1.26514,0.63232c0.1748,0.52393-0.1084,1.09033-0.63232,1.26514l-12,4
	C18.21143,36.98389,18.10449,37.00049,18,37.00049z"/>
</svg>
