<?xml version="1.0" encoding="utf-8"?>
<!-- Generator: Adobe Illustrator 19.1.0, SVG Export Plug-In . SVG Version: 6.00 Build 0)  -->
<!DOCTYPE svg PUBLIC "-//W3C//DTD SVG 1.1//EN" "http://www.w3.org/Graphics/SVG/1.1/DTD/svg11.dtd">
<svg version="1.1" id="Layer_1" xmlns="http://www.w3.org/2000/svg" xmlns:xlink="http://www.w3.org/1999/xlink" x="0px" y="0px"
	 width="48px" height="48px" viewBox="0 0 48 48" enable-background="new 0 0 48 48" xml:space="preserve">
<path fill="#EAD8C5" d="M36.85254,47H12c-0.55225,0-1-0.44775-1-1V24c0-0.08887,0.01172-0.17725,0.03516-0.26318l6-22
	C17.15381,1.30176,17.54883,1,18,1c3.85986,0,7,3.14014,7,7v11h14.00684c2.04492,0,3.98145,0.89014,5.31299,2.44238
	c1.33105,1.55176,1.91602,3.60107,1.60498,5.62207l-2.15332,13.99951C43.2417,44.50391,40.33154,47,36.85254,47z"/>
<path fill="#444444" d="M11,23H2c-0.55225,0-1,0.44775-1,1v22c0,0.55225,0.44775,1,1,1h9V23z"/>
</svg>
