<?xml version="1.0" encoding="utf-8"?>
<!-- Generator: Adobe Illustrator 19.1.0, SVG Export Plug-In . SVG Version: 6.00 Build 0)  -->
<!DOCTYPE svg PUBLIC "-//W3C//DTD SVG 1.1//EN" "http://www.w3.org/Graphics/SVG/1.1/DTD/svg11.dtd">
<svg version="1.1" id="Layer_1" xmlns="http://www.w3.org/2000/svg" xmlns:xlink="http://www.w3.org/1999/xlink" x="0px" y="0px"
	 width="48px" height="48px" viewBox="0 0 48 48" enable-background="new 0 0 48 48" xml:space="preserve">
<path fill="#FFD764" d="M24,47C11.31738,47,1,36.68262,1,24S11.31738,1,24,1s23,10.31738,23,23S36.68262,47,24,47z"/>
<path fill="#444444" d="M17,21c-0.55273,0-1-0.44775-1-1c0-1.10303-0.89746-2-2-2s-2,0.89697-2,2c0,0.55225-0.44727,1-1,1
	s-1-0.44775-1-1c0-2.20557,1.79395-4,4-4s4,1.79443,4,4C18,20.55225,17.55273,21,17,21z"/>
<path fill="#444444" d="M37,21c-0.55273,0-1-0.44775-1-1c0-1.10303-0.89746-2-2-2s-2,0.89697-2,2c0,0.55225-0.44727,1-1,1
	s-1-0.44775-1-1c0-2.20557,1.79395-4,4-4s4,1.79443,4,4C38,20.55225,37.55273,21,37,21z"/>
<path fill="#FFFFFF" d="M24,40h-4c-1.10457,0-2-0.89543-2-2v-5h6V40z"/>
<path fill="#FFFFFF" d="M28,40h-4v-7h6v5C30,39.10457,29.10457,40,28,40z"/>
<path fill="#444444" d="M31,35H17c-0.55225,0-1-0.44775-1-1s0.44775-1,1-1h14c0.55225,0,1,0.44775,1,1S31.55225,35,31,35z"/>
</svg>
