<?xml version="1.0" encoding="utf-8"?>
<!-- Generator: Adobe Illustrator 19.1.0, SVG Export Plug-In . SVG Version: 6.00 Build 0)  -->
<!DOCTYPE svg PUBLIC "-//W3C//DTD SVG 1.1//EN" "http://www.w3.org/Graphics/SVG/1.1/DTD/svg11.dtd">
<svg version="1.1" id="Layer_1" xmlns="http://www.w3.org/2000/svg" xmlns:xlink="http://www.w3.org/1999/xlink" x="0px" y="0px"
	 width="48px" height="48px" viewBox="0 0 48 48" enable-background="new 0 0 48 48" xml:space="preserve">
<path fill="#FFD764" d="M24,47C11.31738,47,1,36.68213,1,24S11.31738,1,24,1s23,10.31787,23,23S36.68262,47,24,47z"/>
<path fill="#444444" d="M17,19c-0.55273,0-1-0.44775-1-1c0-1.10303-0.89746-2-2-2s-2,0.89697-2,2c0,0.55225-0.44727,1-1,1
	s-1-0.44775-1-1c0-2.20557,1.79395-4,4-4s4,1.79443,4,4C18,18.55225,17.55273,19,17,19z"/>
<path fill="#444444" d="M37,19c-0.55273,0-1-0.44775-1-1c0-1.10303-0.89746-2-2-2s-2,0.89697-2,2c0,0.55225-0.44727,1-1,1
	s-1-0.44775-1-1c0-2.20557,1.79395-4,4-4s4,1.79443,4,4C38,18.55225,37.55273,19,37,19z"/>
<path fill="#444444" d="M24,40c-5.8291,0-10.79395-4.1665-11.80664-9.90723c-0.09668-0.54395,0.2666-1.0625,0.81055-1.15869
	c0.54395-0.09521,1.0625,0.26758,1.1582,0.81104C15.00684,34.52832,19.14355,38,24,38s8.99316-3.47168,9.83789-8.25488
	c0.09473-0.54346,0.61621-0.90576,1.1582-0.81104c0.54395,0.09619,0.90723,0.61475,0.81055,1.15869
	C34.79395,35.8335,29.8291,40,24,40z"/>
</svg>
