<?xml version="1.0" encoding="utf-8"?>
<!-- Generator: Adobe Illustrator 19.1.0, SVG Export Plug-In . SVG Version: 6.00 Build 0)  -->
<!DOCTYPE svg PUBLIC "-//W3C//DTD SVG 1.1//EN" "http://www.w3.org/Graphics/SVG/1.1/DTD/svg11.dtd">
<svg version="1.1" id="Layer_1" xmlns="http://www.w3.org/2000/svg" xmlns:xlink="http://www.w3.org/1999/xlink" x="0px" y="0px"
	 width="48px" height="48px" viewBox="0 0 48 48" enable-background="new 0 0 48 48" xml:space="preserve">
<path fill="#FFD764" d="M24,47C11.31738,47,1,36.68213,1,24S11.31738,1,24,1s23,10.31787,23,23S36.68262,47,24,47z"/>
<path fill="#444444" d="M14,21c-1.6543,0-3-1.3457-3-3s1.3457-3,3-3s3,1.3457,3,3S15.6543,21,14,21z"/>
<path fill="#444444" d="M34,21c-1.6543,0-3-1.3457-3-3s1.3457-3,3-3s3,1.3457,3,3S35.6543,21,34,21z"/>
<path fill="#444444" d="M32,35H16c-0.55273,0-1-0.44775-1-1s0.44727-1,1-1h16c0.55273,0,1,0.44775,1,1S32.55273,35,32,35z"/>
<path fill="#FA645A" d="M23,35v4c0,2.20917,1.79083,4,4,4s4-1.79083,4-4v-4H23z"/>
</svg>
