<?xml version="1.0" encoding="utf-8"?>
<!-- Generator: Adobe Illustrator 19.1.0, SVG Export Plug-In . SVG Version: 6.00 Build 0)  -->
<!DOCTYPE svg PUBLIC "-//W3C//DTD SVG 1.1//EN" "http://www.w3.org/Graphics/SVG/1.1/DTD/svg11.dtd">
<svg version="1.1" id="Layer_1" xmlns="http://www.w3.org/2000/svg" xmlns:xlink="http://www.w3.org/1999/xlink" x="0px" y="0px"
	 width="48px" height="48px" viewBox="0 0 48 48" enable-background="new 0 0 48 48" xml:space="preserve">
<path fill="#FFD764" d="M25,46C12.31738,46,2,35.68213,2,23S12.31738,0,25,0s23,10.31787,23,23S37.68262,46,25,46z"/>
<path fill="#444444" d="M18,20c-0.55273,0-1-0.44775-1-1c0-1.10303-0.89746-2-2-2s-2,0.89697-2,2c0,0.55225-0.44727,1-1,1
	s-1-0.44775-1-1c0-2.20557,1.79395-4,4-4s4,1.79443,4,4C19,19.55225,18.55273,20,18,20z"/>
<path fill="#444444" d="M38,20c-0.55273,0-1-0.44775-1-1c0-1.10303-0.89746-2-2-2s-2,0.89697-2,2c0,0.55225-0.44727,1-1,1
	s-1-0.44775-1-1c0-2.20557,1.79395-4,4-4s4,1.79443,4,4C39,19.55225,38.55273,20,38,20z"/>
<path fill="#444444" d="M24,36c-0.55225,0-1-0.44775-1-1s0.44775-1,1-1c3.25391,0,6.12646-2.30518,6.82959-5.48145
	c0.11914-0.53906,0.65527-0.88135,1.19287-0.76025c0.53906,0.11963,0.87939,0.65332,0.76025,1.19287
	C31.87793,33.03564,28.18457,36,24,36z"/>
</svg>
