<?xml version="1.0" encoding="utf-8"?>
<!-- Generator: Adobe Illustrator 19.1.0, SVG Export Plug-In . SVG Version: 6.00 Build 0)  -->
<!DOCTYPE svg PUBLIC "-//W3C//DTD SVG 1.1//EN" "http://www.w3.org/Graphics/SVG/1.1/DTD/svg11.dtd">
<svg version="1.1" id="Layer_1" xmlns="http://www.w3.org/2000/svg" xmlns:xlink="http://www.w3.org/1999/xlink" x="0px" y="0px"
	 width="48px" height="48px" viewBox="0 0 48 48" enable-background="new 0 0 48 48" xml:space="preserve">
<path fill="#FFD764" d="M24,47C11.31787,47,1,36.68213,1,24S11.31787,1,24,1s23,10.31787,23,23S36.68213,47,24,47z"/>
<path fill="#444444" d="M33.00081,21.00038c-0.33984,0-0.6709-0.17285-0.8584-0.48535
	c-0.28418-0.47363-0.13086-1.08789,0.34277-1.37207l5-3c0.47314-0.28467,1.0874-0.13086,1.37207,0.34277
	c0.28418,0.47363,0.13086,1.08789-0.34277,1.37207l-5,3C33.35335,20.95448,33.1761,21.00038,33.00081,21.00038z"/>
<path fill="#444444" d="M14.99919,21.00093c-0.17529,0-0.35254-0.0459-0.51367-0.14258l-5-3
	c-0.47363-0.28418-0.62695-0.89844-0.34277-1.37207c0.28369-0.47412,0.89844-0.62842,1.37207-0.34277l5,3
	c0.47363,0.28418,0.62695,0.89844,0.34277,1.37207C15.67009,20.82808,15.33903,21.00093,14.99919,21.00093z"/>
<path fill="#FFFFFF" d="M33,30c0-0.55225-0.44775-1-1-1H16c-0.55225,0-1,0.44775-1,1c0,0.2926,0,0.64325,0,1h18
	C33,30.64325,33,30.2926,33,30z"/>
<path fill="#AE453E" d="M15.05902,31c0.49951,4.49298,4.31696,8,8.94098,8s8.44147-3.50702,8.94098-8H15.05902z"/>
<path fill="#FA645A" d="M19.11359,37.54718C20.5224,38.46252,22.19843,39,24,39s3.4776-0.53748,4.88641-1.45282
	C27.80145,36.01086,26.02423,35,24,35S20.19855,36.01086,19.11359,37.54718z"/>
</svg>
