<?xml version="1.0" encoding="utf-8"?>
<!-- Generator: Adobe Illustrator 19.1.0, SVG Export Plug-In . SVG Version: 6.00 Build 0)  -->
<!DOCTYPE svg PUBLIC "-//W3C//DTD SVG 1.1//EN" "http://www.w3.org/Graphics/SVG/1.1/DTD/svg11.dtd">
<svg version="1.1" id="Layer_1" xmlns="http://www.w3.org/2000/svg" xmlns:xlink="http://www.w3.org/1999/xlink" x="0px" y="0px"
	 width="48px" height="48px" viewBox="0 0 48 48" enable-background="new 0 0 48 48" xml:space="preserve">
<path fill="#444444" d="M12,14c-0.55273,0-1-0.44727-1-1V6.12891c0-0.55273,0.44727-1,1-1s1,0.44727,1,1V13
	C13,13.55273,12.55273,14,12,14z"/>
<path fill="#444444" d="M28,14c-0.55273,0-1-0.44727-1-1V6.12891c0-0.55273,0.44727-1,1-1s1,0.44727,1,1V13
	C29,13.55273,28.55273,14,28,14z"/>
<path fill="#FFD764" d="M20,47C9.52344,47,1,38.47656,1,28S9.52344,9,20,9s19,8.52344,19,19S30.47656,47,20,47z"/>
<path fill="#444444" d="M20,11c-0.55273,0-1-0.44727-1-1V4c0-0.55273,0.44727-1,1-1s1,0.44727,1,1v6C21,10.55273,20.55273,11,20,11z
	"/>
<path fill="#444444" d="M15,23h-5c-0.55273,0-1-0.44727-1-1s0.44727-1,1-1h5c0.55273,0,1,0.44727,1,1S15.55273,23,15,23z"/>
<path fill="#444444" d="M30,23h-5c-0.55273,0-1-0.44727-1-1s0.44727-1,1-1h5c0.55273,0,1,0.44727,1,1S30.55273,23,30,23z"/>
<path fill="#AE453E" d="M20,39c-2.20547,0-4-1.79453-4-4s1.79453-4,4-4s4,1.79453,4,4S22.20547,39,20,39z"/>
<path fill="#FFD764" d="M45.5,1C44.67157,1,44,1.67157,44,2.5V5c0,0.55225-0.44769,1-1,1h-4c-0.55231,0-1-0.44775-1-1V2.5
	C38,1.67157,37.32843,1,36.5,1S35,1.67157,35,2.5V6c0,3.31372,2.68628,6,6,6s6-2.68628,6-6V2.5C47,1.67157,46.32843,1,45.5,1z"/>
<path fill="#444444" d="M44,15h-6c-0.55228,0-1-0.44771-1-1v-1c0-0.55229,0.44772-1,1-1h6c0.55228,0,1,0.44771,1,1v1
	C45,14.55229,44.55228,15,44,15z"/>
</svg>
