<?xml version="1.0" encoding="utf-8"?>
<!-- Generator: Adobe Illustrator 19.1.0, SVG Export Plug-In . SVG Version: 6.00 Build 0)  -->
<!DOCTYPE svg PUBLIC "-//W3C//DTD SVG 1.1//EN" "http://www.w3.org/Graphics/SVG/1.1/DTD/svg11.dtd">
<svg version="1.1" id="Layer_1" xmlns="http://www.w3.org/2000/svg" xmlns:xlink="http://www.w3.org/1999/xlink" x="0px" y="0px"
	 width="48px" height="48px" viewBox="0 0 48 48" enable-background="new 0 0 48 48" xml:space="preserve">
<path fill="#444444" d="M10,15c-0.55273,0-1-0.44775-1-1V6c0-0.55225,0.44727-1,1-1s1,0.44775,1,1v8C11,14.55225,10.55273,15,10,15z
	"/>
<path fill="#444444" d="M38,15c-0.55273,0-1-0.44775-1-1V6c0-0.55225,0.44727-1,1-1s1,0.44775,1,1v8C39,14.55225,38.55273,15,38,15z
	"/>
<path fill="#E0E0E0" d="M46,47H2c-0.55273,0-1-0.44727-1-1V14c0-0.55225,0.44727-1,1-1h44c0.55273,0,1,0.44775,1,1v32
	C47,46.55273,46.55273,47,46,47z"/>
<path fill="#84C459" d="M15,7H5C4.44727,7,4,6.55225,4,6V2c0-0.55225,0.44727-1,1-1h10c0.55273,0,1,0.44775,1,1v4
	C16,6.55225,15.55273,7,15,7z"/>
<path fill="#FA645A" d="M43,7H33c-0.55273,0-1-0.44775-1-1V2c0-0.55225,0.44727-1,1-1h10c0.55273,0,1,0.44775,1,1v4
	C44,6.55225,43.55273,7,43,7z"/>
<path fill="#444444" d="M17,23h-5c-0.55273,0-1-0.44775-1-1s0.44727-1,1-1h5c0.55273,0,1,0.44775,1,1S17.55273,23,17,23z"/>
<path fill="#444444" d="M36,23h-5c-0.55273,0-1-0.44775-1-1s0.44727-1,1-1h5c0.55273,0,1,0.44775,1,1S36.55273,23,36,23z"/>
<path fill="#444444" d="M36,28H12c-0.55231,0-1,0.44769-1,1v12c0,0.55225,0.44769,1,1,1h24c0.55231,0,1-0.44775,1-1V29
	C37,28.44769,36.55231,28,36,28z"/>
<rect x="13" y="30" fill="#FFFFFF" width="6" height="4"/>
<rect x="21" y="30" fill="#FFFFFF" width="6" height="4"/>
<rect x="29" y="30" fill="#FFFFFF" width="6" height="4"/>
<rect x="13" y="36" fill="#FFFFFF" width="6" height="4"/>
<rect x="21" y="36" fill="#FFFFFF" width="6" height="4"/>
<rect x="29" y="36" fill="#FFFFFF" width="6" height="4"/>
</svg>
