<?xml version="1.0" encoding="utf-8"?>
<!-- Generator: Adobe Illustrator 19.1.0, SVG Export Plug-In . SVG Version: 6.00 Build 0)  -->
<!DOCTYPE svg PUBLIC "-//W3C//DTD SVG 1.1//EN" "http://www.w3.org/Graphics/SVG/1.1/DTD/svg11.dtd">
<svg version="1.1" id="Layer_1" xmlns="http://www.w3.org/2000/svg" xmlns:xlink="http://www.w3.org/1999/xlink" x="0px" y="0px"
	 width="48px" height="48px" viewBox="0 0 48 48" enable-background="new 0 0 48 48" xml:space="preserve">
<path fill="#BADEFC" d="M34,47H14C6.83154,47,1,41.16797,1,34V22C1,14.83203,6.83154,9,14,9h3.76416l11.78857-5.89453
	c0.30957-0.1543,0.67822-0.13867,0.97314,0.04395S31,3.65332,31,4l-0.00098,5H34c7.16846,0,13,5.83203,13,13v12
	C47,41.16797,41.16846,47,34,47z"/>
<path fill="#444444" d="M16,29c-0.55225,0-1-0.44727-1-1v-3c0-0.55273,0.44775-1,1-1s1,0.44727,1,1v3C17,28.55273,16.55225,29,16,29
	z"/>
<path fill="#444444" d="M16,22c-0.55225,0-1-0.44727-1-1v-3c0-0.55273,0.44775-1,1-1s1,0.44727,1,1v3C17,21.55273,16.55225,22,16,22
	z"/>
<path fill="#444444" d="M27,39h-6c-0.55225,0-1-0.44727-1-1s0.44775-1,1-1h6c0.55225,0,1,0.44727,1,1S27.55225,39,27,39z"/>
<path fill="#444444" d="M16,26c-1.6543,0-3-1.3457-3-3s1.3457-3,3-3s3,1.3457,3,3S17.6543,26,16,26z"/>
<path fill="#444444" d="M31,29c-0.55225,0-1-0.44727-1-1v-3c0-0.55273,0.44775-1,1-1s1,0.44727,1,1v3C32,28.55273,31.55225,29,31,29
	z"/>
<path fill="#444444" d="M31,22c-0.55225,0-1-0.44727-1-1v-3c0-0.55273,0.44775-1,1-1s1,0.44727,1,1v3C32,21.55273,31.55225,22,31,22
	z"/>
<path fill="#444444" d="M31,26c-1.6543,0-3-1.3457-3-3s1.3457-3,3-3s3,1.3457,3,3S32.6543,26,31,26z"/>
</svg>
