<?xml version="1.0" encoding="utf-8"?>
<!-- Generator: Adobe Illustrator 19.1.0, SVG Export Plug-In . SVG Version: 6.00 Build 0)  -->
<!DOCTYPE svg PUBLIC "-//W3C//DTD SVG 1.1//EN" "http://www.w3.org/Graphics/SVG/1.1/DTD/svg11.dtd">
<svg version="1.1" id="Layer_1" xmlns="http://www.w3.org/2000/svg" xmlns:xlink="http://www.w3.org/1999/xlink" x="0px" y="0px"
	 width="48px" height="48px" viewBox="0 0 48 48" enable-background="new 0 0 48 48" xml:space="preserve">
<path fill="#FFD764" d="M24,47C11.31738,47,1,36.68213,1,24S11.31738,1,24,1s23,10.31787,23,23S36.68262,47,24,47z"/>
<path fill="#444444" d="M37,19h-6c-0.55273,0-1-0.44775-1-1s0.44727-1,1-1h6c0.55273,0,1,0.44775,1,1S37.55273,19,37,19z"/>
<path fill="#444444" d="M17,19h-6c-0.55273,0-1-0.44775-1-1s0.44727-1,1-1h6c0.55273,0,1,0.44775,1,1S17.55273,19,17,19z"/>
<path fill="#444444" d="M24,36.99998c-0.19336,0-0.38672-0.05615-0.55469-0.16797l-5.51758-3.67822l-3.48047,1.74072
	c-0.49414,0.24756-1.09473,0.04688-1.3418-0.44727s-0.04688-1.09473,0.44727-1.3418l4-2
	c0.32227-0.16016,0.7041-0.13672,1.00195,0.0625L24,34.79832l5.44531-3.63037c0.29785-0.19922,0.67969-0.22266,1.00195-0.0625l4,2
	c0.49414,0.24707,0.69434,0.84766,0.44727,1.3418c-0.24805,0.49414-0.84766,0.69482-1.3418,0.44727l-3.48047-1.74072
	l-5.51758,3.67822C24.38672,36.94383,24.19336,36.99998,24,36.99998z"/>
</svg>
