<?xml version="1.0" encoding="utf-8"?>
<!-- Generator: Adobe Illustrator 19.1.0, SVG Export Plug-In . SVG Version: 6.00 Build 0)  -->
<!DOCTYPE svg PUBLIC "-//W3C//DTD SVG 1.1//EN" "http://www.w3.org/Graphics/SVG/1.1/DTD/svg11.dtd">
<svg version="1.1" id="Layer_1" xmlns="http://www.w3.org/2000/svg" xmlns:xlink="http://www.w3.org/1999/xlink" x="0px" y="0px"
	 width="48px" height="48px" viewBox="0 0 48 48" enable-background="new 0 0 48 48" xml:space="preserve">
<path fill="#A56EDC" d="M24,47C11.31787,47,1,36.68262,1,24S11.31787,1,24,1s23,10.31738,23,23S36.68213,47,24,47z"/>
<path fill="#FFFFFF" d="M24,31c-6.06543,0-11-4.93457-11-11S17.93457,9,24,9s11,4.93457,11,11S30.06543,31,24,31z"/>
<path fill="#444444" d="M24,24c-2.20557,0-4-1.79395-4-4s1.79443-4,4-4s4,1.79395,4,4S26.20557,24,24,24z"/>
<path fill="#444444" d="M25.00001,42h-2.00002C19.134,42,16,38.866,16,35.00001V35h16v0.00001C32,38.866,28.866,42,25.00001,42z"/>
<polygon fill="#FFFFFF" points="18,35 20,38 22,35 "/>
<polygon fill="#FFFFFF" points="26,35 28,38 30,35 "/>
</svg>
