<?xml version="1.0" encoding="utf-8"?>
<!-- Generator: Adobe Illustrator 19.1.0, SVG Export Plug-In . SVG Version: 6.00 Build 0)  -->
<!DOCTYPE svg PUBLIC "-//W3C//DTD SVG 1.1//EN" "http://www.w3.org/Graphics/SVG/1.1/DTD/svg11.dtd">
<svg version="1.1" id="Layer_1" xmlns="http://www.w3.org/2000/svg" xmlns:xlink="http://www.w3.org/1999/xlink" x="0px" y="0px"
	 width="48px" height="48px" viewBox="0 0 48 48" enable-background="new 0 0 48 48" xml:space="preserve">
<circle fill="#FFD764" cx="24" cy="24" r="23"/>
<path fill="#444444" d="M14,21c-1.6543,0-3-1.3457-3-3s1.3457-3,3-3s3,1.3457,3,3S15.6543,21,14,21z"/>
<path fill="#444444" d="M34,21c-1.6543,0-3-1.3457-3-3s1.3457-3,3-3s3,1.3457,3,3S35.6543,21,34,21z"/>
<path fill="#444444" d="M30.94238,37.03369c-0.34668,0-0.68408-0.18066-0.86865-0.50293C28.82617,34.35303,26.49902,33,24,33
	s-4.82617,1.35303-6.07373,3.53076c-0.27441,0.479-0.88525,0.646-1.36475,0.37061c-0.479-0.27441-0.64502-0.88525-0.37061-1.36475
	C17.79346,32.73828,20.78564,31,24,31s6.20654,1.73828,7.80908,4.53662c0.27441,0.47949,0.1084,1.09033-0.37061,1.36475
	C31.28174,36.99121,31.11084,37.03369,30.94238,37.03369z"/>
</svg>
