<?xml version="1.0" encoding="utf-8"?>
<!-- Generator: Adobe Illustrator 19.1.0, SVG Export Plug-In . SVG Version: 6.00 Build 0)  -->
<!DOCTYPE svg PUBLIC "-//W3C//DTD SVG 1.1//EN" "http://www.w3.org/Graphics/SVG/1.1/DTD/svg11.dtd">
<svg version="1.1" id="Layer_1" xmlns="http://www.w3.org/2000/svg" xmlns:xlink="http://www.w3.org/1999/xlink" x="0px" y="0px"
	 width="48px" height="48px" viewBox="0 0 48 48" enable-background="new 0 0 48 48" xml:space="preserve">
<path fill="#FFD764" d="M24,47C11.31738,47,1,36.68213,1,24S11.31738,1,24,1s23,10.31787,23,23S36.68262,47,24,47z"/>
<path fill="#444444" d="M17,19c-0.55273,0-1-0.44775-1-1c0-1.10303-0.89746-2-2-2s-2,0.89697-2,2c0,0.55225-0.44727,1-1,1
	s-1-0.44775-1-1c0-2.20557,1.79395-4,4-4s4,1.79443,4,4C18,18.55225,17.55273,19,17,19z"/>
<path fill="#444444" d="M37,19c-0.55273,0-1-0.44775-1-1c0-1.10303-0.89746-2-2-2s-2,0.89697-2,2c0,0.55225-0.44727,1-1,1
	s-1-0.44775-1-1c0-2.20557,1.79395-4,4-4s4,1.79443,4,4C38,18.55225,37.55273,19,37,19z"/>
<path fill="#FFFFFF" d="M35.6051,32C35.85382,31.03912,36,30.03748,36,29c0-0.55225-0.44727-1-1-1H13c-0.55273,0-1,0.44775-1,1
	c0,1.03748,0.14618,2.03912,0.3949,3H35.6051z"/>
<path fill="#AE453E" d="M12.3949,32c1.33734,5.16699,6.02551,9,11.6051,9s10.26776-3.83301,11.6051-9H12.3949z"/>
<path fill="#FA645A" d="M18.01404,39.38495C19.77832,40.40594,21.81903,41,24,41s4.22168-0.59406,5.98596-1.61505
	C28.75952,37.35876,26.54126,36,24,36S19.24048,37.35876,18.01404,39.38495z"/>
</svg>
