<?xml version="1.0" encoding="utf-8"?>
<!-- Generator: Adobe Illustrator 19.1.0, SVG Export Plug-In . SVG Version: 6.00 Build 0)  -->
<!DOCTYPE svg PUBLIC "-//W3C//DTD SVG 1.1//EN" "http://www.w3.org/Graphics/SVG/1.1/DTD/svg11.dtd">
<svg version="1.1" id="Layer_1" xmlns="http://www.w3.org/2000/svg" xmlns:xlink="http://www.w3.org/1999/xlink" x="0px" y="0px"
	 width="48px" height="48px" viewBox="0 0 48 48" enable-background="new 0 0 48 48" xml:space="preserve">
<path fill="#FFD764" d="M45.94922,16H32c-0.55273,0-1-0.44727-1-1V2c0-0.55273,0.44727-1,1-1
	c7.82812,0,14.39355,6.11816,14.94629,13.92969c0.02051,0.27637-0.07617,0.54883-0.26562,0.75195
	C46.49219,15.88477,46.22656,16,45.94922,16z"/>
<path fill="#DDB35F" d="M32,26c5.52283,0,10-4.47717,10-10H32V26z"/>
<path fill="#84C459" d="M17,1C8.7157,1,2,7.7157,2,16v30c0,0.55225,0.44769,1,1,1h14c8.2843,0,15-6.71576,15-15V16V1
	C32,1,21.44147,1,17,1z"/>
<path fill="#F1F2F2" d="M17,23c-3.85938,0-7-3.14062-7-7s3.14062-7,7-7s7,3.14062,7,7S20.85938,23,17,23z"/>
<path fill="#444444" d="M17,19c-1.65402,0-3-1.34598-3-3s1.34598-3,3-3s3,1.34598,3,3S18.65402,19,17,19z"/>
</svg>
