<?xml version="1.0" encoding="utf-8"?>
<!-- Generator: Adobe Illustrator 19.1.0, SVG Export Plug-In . SVG Version: 6.00 Build 0)  -->
<!DOCTYPE svg PUBLIC "-//W3C//DTD SVG 1.1//EN" "http://www.w3.org/Graphics/SVG/1.1/DTD/svg11.dtd">
<svg version="1.1" id="Layer_1" xmlns="http://www.w3.org/2000/svg" xmlns:xlink="http://www.w3.org/1999/xlink" x="0px" y="0px"
	 width="48px" height="48px" viewBox="0 0 48 48" enable-background="new 0 0 48 48" xml:space="preserve">
<path fill="#FFD764" d="M24,47C11.31787,47,1,36.68213,1,24S11.31787,1,24,1s23,10.31787,23,23S36.68213,47,24,47z"/>
<path fill="#444444" d="M33.00081,21.00038c-0.33984,0-0.6709-0.17285-0.8584-0.48535
	c-0.28418-0.47363-0.13086-1.08789,0.34277-1.37207l5-3c0.47314-0.28467,1.08838-0.13086,1.37207,0.34277
	c0.28418,0.47363,0.13086,1.08789-0.34277,1.37207l-5,3C33.35335,20.95448,33.1761,21.00038,33.00081,21.00038z"/>
<path fill="#444444" d="M14.99919,21.00093c-0.17529,0-0.35254-0.0459-0.51367-0.14258l-5-3
	c-0.47363-0.28418-0.62695-0.89844-0.34277-1.37207c0.28369-0.47412,0.89844-0.62842,1.37207-0.34277l5,3
	c0.47363,0.28418,0.62695,0.89844,0.34277,1.37207C15.67009,20.82808,15.33903,21.00093,14.99919,21.00093z"/>
<path fill="#444444" d="M30.88379,35.03369c-0.34668,0-0.68408-0.18066-0.86865-0.50293C28.76758,32.35303,26.44043,31,23.94141,31
	s-4.82617,1.35303-6.07373,3.53076c-0.27441,0.47852-0.88525,0.646-1.36475,0.37061c-0.479-0.27441-0.64502-0.88525-0.37061-1.36475
	C17.73486,30.73828,20.72705,29,23.94141,29s6.20654,1.73828,7.80908,4.53662c0.27441,0.47949,0.1084,1.09033-0.37061,1.36475
	C31.22314,34.99121,31.05225,35.03369,30.88379,35.03369z"/>
</svg>
