<?xml version="1.0" encoding="utf-8"?>
<!-- Generator: Adobe Illustrator 19.1.0, SVG Export Plug-In . SVG Version: 6.00 Build 0)  -->
<!DOCTYPE svg PUBLIC "-//W3C//DTD SVG 1.1//EN" "http://www.w3.org/Graphics/SVG/1.1/DTD/svg11.dtd">
<svg version="1.1" id="Layer_1" xmlns="http://www.w3.org/2000/svg" xmlns:xlink="http://www.w3.org/1999/xlink" x="0px" y="0px"
	 width="48px" height="48px" viewBox="0 0 48 48" enable-background="new 0 0 48 48" xml:space="preserve">
<path fill="#FFD764" d="M24,47C11.31738,47,1,36.68262,1,24C1,11.31787,11.31738,1,24,1s23,10.31787,23,23
	C47,36.68262,36.68262,47,24,47z"/>
<path fill="#FFFFFF" d="M16,32H3.13867c-0.55273,0-1-0.44727-1-1s0.44727-1,1-1H16c0.55273,0,1,0.44727,1,1S16.55273,32,16,32z"/>
<path fill="#FFFFFF" d="M44.86133,32H32c-0.55273,0-1-0.44727-1-1s0.44727-1,1-1h12.86133c0.55273,0,1,0.44727,1,1
	S45.41406,32,44.86133,32z"/>
<path fill="#FFFFFF" d="M30,37H18c-1.6543,0-3-1.3457-3-3v-6c0-1.6543,1.3457-3,3-3h12c1.6543,0,3,1.3457,3,3v6
	C33,35.6543,31.6543,37,30,37z"/>
<path fill="#444444" d="M37,19h-6c-0.55273,0-1-0.44775-1-1s0.44727-1,1-1h6c0.55273,0,1,0.44775,1,1S37.55273,19,37,19z"/>
<path fill="#444444" d="M17,19h-6c-0.55273,0-1-0.44775-1-1s0.44727-1,1-1h6c0.55273,0,1,0.44775,1,1S17.55273,19,17,19z"/>
</svg>
