<?xml version="1.0" encoding="utf-8"?>
<!-- Generator: Adobe Illustrator 19.1.0, SVG Export Plug-In . SVG Version: 6.00 Build 0)  -->
<!DOCTYPE svg PUBLIC "-//W3C//DTD SVG 1.1//EN" "http://www.w3.org/Graphics/SVG/1.1/DTD/svg11.dtd">
<svg version="1.1" id="Layer_1" xmlns="http://www.w3.org/2000/svg" xmlns:xlink="http://www.w3.org/1999/xlink" x="0px" y="0px"
	 width="48px" height="48px" viewBox="0 0 48 48" enable-background="new 0 0 48 48" xml:space="preserve">
<path fill="#444444" d="M24,47C11.31787,47,1,36.68262,1,24S11.31787,1,24,1s23,10.31738,23,23S36.68213,47,24,47z"/>
<path fill="#FFD764" d="M37,15H11c-3.31372,0-6,2.68628-6,6s2.68628,6,6,6h26c3.31372,0,6-2.68628,6-6S40.31372,15,37,15z"/>
<path fill="#444444" d="M14,19c-1.6543,0-3-1.3457-3-3s1.3457-3,3-3s3,1.3457,3,3S15.6543,19,14,19z"/>
<path fill="#444444" d="M34,19c-1.6543,0-3-1.3457-3-3s1.3457-3,3-3s3,1.3457,3,3S35.6543,19,34,19z"/>
</svg>
