<?xml version="1.0" encoding="utf-8"?>
<!-- Generator: Adobe Illustrator 19.1.0, SVG Export Plug-In . SVG Version: 6.00 Build 0)  -->
<!DOCTYPE svg PUBLIC "-//W3C//DTD SVG 1.1//EN" "http://www.w3.org/Graphics/SVG/1.1/DTD/svg11.dtd">
<svg version="1.1" id="Layer_1" xmlns="http://www.w3.org/2000/svg" xmlns:xlink="http://www.w3.org/1999/xlink" x="0px" y="0px"
	 width="48px" height="48px" viewBox="0 0 48 48" enable-background="new 0 0 48 48" xml:space="preserve">
<path fill-rule="evenodd" clip-rule="evenodd" fill="#EA9860" d="M39,20l-1-7.5l6.1774,2.70261
	c0.75316,0.32951,0.80909,1.37653,0.09532,1.7844L39,20z"/>
<path fill="#444444" d="M24,1C15.71576,1,9,7.7157,9,16v0.5V39c0,3.31372-2.68628,6-6,6c-1.33331,0-1.33331,2,0,2h6h1h14v-9
	c0-8.2843,6.71576-15,15-15v-7C39,7.7157,32.28424,1,24,1z"/>
<path fill="#E6E6E6" d="M24,38v9c8.28424,0,15-6.71576,15-15v-9C30.71576,23,24,29.7157,24,38z"/>
<path fill-rule="evenodd" clip-rule="evenodd" fill="#FFFFFF" d="M28,23c-3.859,0-7-3.141-7-7s3.141-7,7-7s7,3.141,7,7
	S31.859,23,28,23"/>
<path fill-rule="evenodd" clip-rule="evenodd" fill="#444444" d="M28,19c-1.654,0-3-1.346-3-3s1.346-3,3-3s3,1.346,3,3
	S29.654,19,28,19"/>
</svg>
