<?xml version="1.0" encoding="utf-8"?>
<!-- Generator: Adobe Illustrator 19.1.0, SVG Export Plug-In . SVG Version: 6.00 Build 0)  -->
<!DOCTYPE svg PUBLIC "-//W3C//DTD SVG 1.1//EN" "http://www.w3.org/Graphics/SVG/1.1/DTD/svg11.dtd">
<svg version="1.1" id="Layer_1" xmlns="http://www.w3.org/2000/svg" xmlns:xlink="http://www.w3.org/1999/xlink" x="0px" y="0px"
	 width="48px" height="48px" viewBox="0 0 48 48" enable-background="new 0 0 48 48" xml:space="preserve">
<path fill="#9BCED3" d="M34,47H14C6.83154,47,1,41.16797,1,34V22C1,14.83203,6.83154,9,14,9h3.76416l11.78857-5.89453
	c0.31006-0.1543,0.67773-0.13867,0.97314,0.04395C30.8208,3.33203,31,3.65332,31,4l-0.00098,5H34c7.16846,0,13,5.83203,13,13v12
	C47,41.16797,41.16846,47,34,47z"/>
<path fill="#444444" d="M36,25c-0.55225,0-1-0.44727-1-1c0-1.6543-1.3457-3-3-3s-3,1.3457-3,3c0,0.55273-0.44775,1-1,1
	s-1-0.44727-1-1c0-2.75684,2.24316-5,5-5s5,2.24316,5,5C37,24.55273,36.55225,25,36,25z"/>
<path fill="#444444" d="M20,25c-0.55225,0-1-0.44727-1-1c0-1.6543-1.3457-3-3-3s-3,1.3457-3,3c0,0.55273-0.44775,1-1,1
	s-1-0.44727-1-1c0-2.75684,2.24316-5,5-5s5,2.24316,5,5C21,24.55273,20.55225,25,20,25z"/>
<path fill="#444444" d="M28,39c-1.63379,0-3.08691-0.78809-4-2.00293C23.08691,38.21191,21.63379,39,20,39c-2.75684,0-5-2.24316-5-5
	c0-0.55273,0.44775-1,1-1s1,0.44727,1,1c0,1.6543,1.3457,3,3,3s3-1.3457,3-3c0-0.55273,0.44775-1,1-1s1,0.44727,1,1
	c0,1.6543,1.3457,3,3,3s3-1.3457,3-3c0-0.55273,0.44775-1,1-1s1,0.44727,1,1C33,36.75684,30.75684,39,28,39z"/>
</svg>
