<?xml version="1.0" encoding="utf-8"?>
<!-- Generator: Adobe Illustrator 19.1.0, SVG Export Plug-In . SVG Version: 6.00 Build 0)  -->
<!DOCTYPE svg PUBLIC "-//W3C//DTD SVG 1.1//EN" "http://www.w3.org/Graphics/SVG/1.1/DTD/svg11.dtd">
<svg version="1.1" id="Layer_1" xmlns="http://www.w3.org/2000/svg" xmlns:xlink="http://www.w3.org/1999/xlink" x="0px" y="0px"
	 width="48px" height="48px" viewBox="0 0 48 48" enable-background="new 0 0 48 48" xml:space="preserve">
<path fill="#FFD764" d="M24,47C11.31787,47,1,36.68262,1,24S11.31787,1,24,1s23,10.31738,23,23S36.68213,47,24,47z"/>
<path fill="#444444" d="M17,18c-0.55273,0-1-0.44775-1-1c0-1.10303-0.89746-2-2-2s-2,0.89697-2,2c0,0.55225-0.44727,1-1,1
	s-1-0.44775-1-1c0-2.20557,1.79395-4,4-4s4,1.79443,4,4C18,17.55225,17.55273,18,17,18z"/>
<path fill="#444444" d="M24,37c-0.55225,0-1-0.44727-1-1s0.44775-1,1-1c3.25439,0,6.12646-2.30566,6.82959-5.48145
	c0.11963-0.54004,0.65479-0.87793,1.19287-0.76074c0.53906,0.11914,0.87939,0.65332,0.76025,1.19238
	C31.87842,34.03516,28.18457,37,24,37z"/>
<circle fill="#444444" cx="34" cy="17" r="3"/>
<path fill="#444444" d="M2.5,29.5c-0.25586,0-0.51172-0.09766-0.70703-0.29297c-0.39062-0.39062-0.39062-1.02344,0-1.41406l26-26
	c0.39062-0.39062,1.02344-0.39062,1.41406,0s0.39062,1.02344,0,1.41406l-26,26C3.01172,29.40234,2.75586,29.5,2.5,29.5z"/>
<circle fill="#444444" cx="14" cy="17" r="6"/>
</svg>
