<?xml version="1.0" encoding="utf-8"?>
<!-- Generator: Adobe Illustrator 19.1.0, SVG Export Plug-In . SVG Version: 6.00 Build 0)  -->
<!DOCTYPE svg PUBLIC "-//W3C//DTD SVG 1.1//EN" "http://www.w3.org/Graphics/SVG/1.1/DTD/svg11.dtd">
<svg version="1.1" id="Layer_1" xmlns="http://www.w3.org/2000/svg" xmlns:xlink="http://www.w3.org/1999/xlink" x="0px" y="0px"
	 width="48px" height="48px" viewBox="0 0 48 48" enable-background="new 0 0 48 48" xml:space="preserve">
<path fill="#A67C52" d="M36,11c-0.55273,0-1-0.44727-1-1V8c0-2.75684-2.24316-5-5-5s-5,2.24316-5,5c0,0.55273-0.44727,1-1,1
	s-1-0.44727-1-1c0-3.85938,3.14062-7,7-7s7,3.14062,7,7v2C37,10.55273,36.55273,11,36,11z"/>
<path fill="#C6C6C6" d="M28,16h-8c-0.55273,0-1-0.44727-1-1v-5c0-1.6543,1.3457-3,3-3h4c1.6543,0,3,1.3457,3,3v5
	C29,15.55273,28.55273,16,28,16z"/>
<path fill="#444444" d="M24,47c-9.37402,0-17-7.62598-17-17s7.62598-17,17-17s17,7.62598,17,17S33.37402,47,24,47z"/>
<path fill="#C6C6C6" d="M14,26.99805c-0.08105,0-0.16406-0.00977-0.24609-0.03125c-0.5332-0.13574-0.85742-0.6748-0.72363-1.20898
	c0.0459-0.1875,1.19727-4.5957,5.72754-5.72754c0.5332-0.13477,1.07812,0.19043,1.21191,0.72754
	c0.13477,0.53516-0.19141,1.07812-0.72754,1.21191c-3.34668,0.83691-4.23633,4.13672-4.27344,4.27637
	C14.85254,26.69727,14.44531,26.99805,14,26.99805z"/>
</svg>
