<?xml version="1.0" encoding="utf-8"?>
<!-- Generator: Adobe Illustrator 19.1.0, SVG Export Plug-In . SVG Version: 6.00 Build 0)  -->
<!DOCTYPE svg PUBLIC "-//W3C//DTD SVG 1.1//EN" "http://www.w3.org/Graphics/SVG/1.1/DTD/svg11.dtd">
<svg version="1.1" id="Layer_1" xmlns="http://www.w3.org/2000/svg" xmlns:xlink="http://www.w3.org/1999/xlink" x="0px" y="0px"
	 width="48px" height="48px" viewBox="0 0 48 48" enable-background="new 0 0 48 48" xml:space="preserve">
<path fill="#FA645A" d="M13,16v14c0,6.06543,4.93457,11,11,11s11-4.93457,11-11V16H13z"/>
<path fill="#C85048" d="M24,29c-0.55225,0-1-0.38337-1-0.85714V17h2v11.14286C25,28.61663,24.55225,29,24,29z"/>
<path fill="#444444" d="M44.50098,22.06445C42.34131,20.81445,41,18.49121,41,16c0-2.49023,1.34033-4.8125,3.49805-6.0625
	c0.47803-0.27637,0.64111-0.88867,0.36426-1.36621c-0.27588-0.47852-0.88867-0.64258-1.36621-0.36426
	C41.01447,9.64362,39.38458,12.18762,39.06689,15H8.93317c-0.31769-2.81238-1.94763-5.35638-4.42926-6.79297
	C4.02539,7.92871,3.41406,8.09277,3.1377,8.57129C2.86084,9.04883,3.02393,9.66113,3.50195,9.9375C5.65967,11.1875,7,13.50977,7,16
	c0,2.49121-1.34131,4.81445-3.50098,6.06445c-0.47803,0.27637-0.64111,0.8877-0.36475,1.36621
	c0.18555,0.32031,0.52148,0.49902,0.8667,0.49902c0.16992,0,0.34229-0.04297,0.5-0.13477
	C6.98401,22.35834,8.61517,19.81335,8.93311,17h30.13379c0.31793,2.81335,1.9491,5.35834,4.43213,6.79492
	c0.15771,0.0918,0.33008,0.13477,0.5,0.13477c0.34521,0,0.68115-0.17871,0.8667-0.49902
	C45.14209,22.95215,44.979,22.34082,44.50098,22.06445z"/>
</svg>
