<?xml version="1.0" encoding="utf-8"?>
<!-- Generator: Adobe Illustrator 19.1.0, SVG Export Plug-In . SVG Version: 6.00 Build 0)  -->
<!DOCTYPE svg PUBLIC "-//W3C//DTD SVG 1.1//EN" "http://www.w3.org/Graphics/SVG/1.1/DTD/svg11.dtd">
<svg version="1.1" id="Layer_1" xmlns="http://www.w3.org/2000/svg" xmlns:xlink="http://www.w3.org/1999/xlink" x="0px" y="0px"
	 width="48px" height="48px" viewBox="0 0 48 48" enable-background="new 0 0 48 48" xml:space="preserve">
<circle fill="#FFD764" cx="24" cy="26" r="21"/>
<path fill="#444444" d="M46,29H2c-0.55273,0-1-0.44727-1-1V14C1,6.83203,6.83203,1,14,1h20c7.16797,0,13,5.83203,13,13v14
	C47,28.55273,46.55273,29,46,29z"/>
<path fill="#666666" d="M46,21H2c-0.55273,0-1-0.44727-1-1s0.44727-1,1-1h44c0.55273,0,1,0.44727,1,1S46.55273,21,46,21z"/>
<path fill="#444444" d="M30,37H18c-0.55273,0-1-0.44727-1-1s0.44727-1,1-1h12c0.55273,0,1,0.44727,1,1S30.55273,37,30,37z"/>
</svg>
