<?xml version="1.0" encoding="utf-8"?>
<!-- Generator: Adobe Illustrator 19.1.0, SVG Export Plug-In . SVG Version: 6.00 Build 0)  -->
<!DOCTYPE svg PUBLIC "-//W3C//DTD SVG 1.1//EN" "http://www.w3.org/Graphics/SVG/1.1/DTD/svg11.dtd">
<svg version="1.1" id="Layer_1" xmlns="http://www.w3.org/2000/svg" xmlns:xlink="http://www.w3.org/1999/xlink" x="0px" y="0px"
	 width="48px" height="48px" viewBox="0 0 48 48" enable-background="new 0 0 48 48" xml:space="preserve">
<path fill="#FFD764" d="M24,47C11.31738,47,1,36.68262,1,24S11.31738,1,24,1s23,10.31738,23,23S36.68262,47,24,47z"/>
<path fill="#FFFFFF" d="M13,33C7.48568,33,3,28.51432,3,23s4.48568-10,10-10s10,4.48568,10,10S18.51432,33,13,33z"/>
<path fill="#FFFFFF" d="M35,33c-5.51432,0-10-4.48568-10-10s4.48568-10,10-10s10,4.48568,10,10S40.51432,33,35,33z"/>
<path fill="#444444" d="M13,27c-2.20605,0-4-1.79395-4-4s1.79395-4,4-4s4,1.79395,4,4S15.20605,27,13,27z"/>
<path fill="#444444" d="M35,27c-2.20605,0-4-1.79395-4-4s1.79395-4,4-4s4,1.79395,4,4S37.20605,27,35,27z"/>
</svg>
