<?xml version="1.0" encoding="utf-8"?>
<!-- Generator: Adobe Illustrator 19.1.0, SVG Export Plug-In . SVG Version: 6.00 Build 0)  -->
<!DOCTYPE svg PUBLIC "-//W3C//DTD SVG 1.1//EN" "http://www.w3.org/Graphics/SVG/1.1/DTD/svg11.dtd">
<svg version="1.1" id="Layer_49" xmlns="http://www.w3.org/2000/svg" xmlns:xlink="http://www.w3.org/1999/xlink" x="0px" y="0px"
	 width="64px" height="64px" viewBox="0 0 64 64" enable-background="new 0 0 64 64" xml:space="preserve">
<path fill="#231F20" d="M62,1h-6c-0.6,0-1,0.4-1,1v48H2c-0.6,0-1,0.4-1,1s0.4,1,1,1h54c0.6,0,1-0.4,1-1V3h5c0.6,0,1-0.4,1-1
	S62.6,1,62,1z"/>
<path fill="#231F20" d="M2,44h46c0.6,0,1-0.4,1-1V10c0-0.6-0.4-1-1-1H35V2c0-0.6-0.4-1-1-1H16c-0.6,0-1,0.4-1,1v7H2
	c-0.6,0-1,0.4-1,1v33C1,43.6,1.4,44,2,44z M3,42V23h16v6c0,0.6,0.4,1,1,1h10c0.6,0,1-0.4,1-1v-6h16v19H3z M29,23v5h-8v-5H29z M17,3
	h16v6H17V3z M47,11v10H3V11H47z"/>
<path fill="#231F20" d="M9,55c-2.2,0-4,1.8-4,4s1.8,4,4,4s4-1.8,4-4S11.2,55,9,55z M9,61c-1.1,0-2-0.9-2-2s0.9-2,2-2s2,0.9,2,2
	S10.1,61,9,61z"/>
<path fill="#231F20" d="M52,59c0-2.2-1.8-4-4-4s-4,1.8-4,4s1.8,4,4,4S52,61.2,52,59z M46,59c0-1.1,0.9-2,2-2s2,0.9,2,2s-0.9,2-2,2
	S46,60.1,46,59z"/>
</svg>
