<?xml version="1.0" encoding="utf-8"?>
<!-- Generator: Adobe Illustrator 19.1.0, SVG Export Plug-In . SVG Version: 6.00 Build 0)  -->
<!DOCTYPE svg PUBLIC "-//W3C//DTD SVG 1.1//EN" "http://www.w3.org/Graphics/SVG/1.1/DTD/svg11.dtd">
<svg version="1.1" id="Layer_49" xmlns="http://www.w3.org/2000/svg" xmlns:xlink="http://www.w3.org/1999/xlink" x="0px" y="0px"
	 width="64px" height="64px" viewBox="0 0 64 64" enable-background="new 0 0 64 64" xml:space="preserve">
<path fill="#231F20" d="M36,32h-8c-0.6,0-1,0.4-1,1s0.4,1,1,1h8c0.6,0,1-0.4,1-1S36.6,32,36,32z"/>
<path fill="#231F20" d="M28,26h8c0.6,0,1-0.4,1-1s-0.4-1-1-1h-8c-0.6,0-1,0.4-1,1S27.4,26,28,26z"/>
<path fill="#231F20" d="M3,62c0,0.6,0.4,1,1,1h56c0.6,0,1-0.4,1-1V50c0-0.6-0.4-1-1-1h-3V28c0-0.3-0.2-0.6-0.4-0.8l-20-14
	C36.4,13.1,36.2,13,36,13h-3V7h3c0.6,0,1-0.4,1-1s-0.4-1-1-1h-3V2c0-0.6-0.4-1-1-1s-1,0.4-1,1v3h-3c-0.6,0-1,0.4-1,1s0.4,1,1,1h3v6
	h-3c-0.2,0-0.4,0.1-0.6,0.2l-20,14C7.2,27.4,7,27.7,7,28v21H4c-0.6,0-1,0.4-1,1V62z M25,50.4l7-7l7,7V61H25V50.4z M59,61H41V51h18
	V61z M55,49h-6V24.3l6,4.2V49z M28.3,15h7.4L47,22.9V49h-6.6l-7.7-7.7c-0.4-0.4-1-0.4-1.4,0L23.6,49H17V22.9L28.3,15z M9,28.5l6-4.2
	V49H9V28.5z M5,51h18v10H5V51z"/>
</svg>
