<?xml version="1.0" encoding="utf-8"?>
<!-- Generator: Adobe Illustrator 19.1.0, SVG Export Plug-In . SVG Version: 6.00 Build 0)  -->
<!DOCTYPE svg PUBLIC "-//W3C//DTD SVG 1.1//EN" "http://www.w3.org/Graphics/SVG/1.1/DTD/svg11.dtd">
<svg version="1.1" id="Layer_49" xmlns="http://www.w3.org/2000/svg" xmlns:xlink="http://www.w3.org/1999/xlink" x="0px" y="0px"
	 width="64px" height="64px" viewBox="0 0 64 64" enable-background="new 0 0 64 64" xml:space="preserve">
<path fill="#231F20" d="M60,41c0.6,0,1-0.4,1-1v-8c0-0.6-0.4-1-1-1h-5C54.5,19.1,44.9,9.5,33,9V2c0-0.6-0.4-1-1-1s-1,0.4-1,1v7
	C19.1,9.5,9.5,19.1,9,31H4c-0.6,0-1,0.4-1,1v8c0,0.6,0.4,1,1,1h3v20H4c-0.6,0-1,0.4-1,1s0.4,1,1,1h56c0.6,0,1-0.4,1-1s-0.4-1-1-1h-3
	V41H60z M32,11c11.2,0,20.4,8.9,20.9,20H11.1C11.6,19.9,20.8,11,32,11z M5,33h54v6H5V33z M31,41v20H21V41H31z M33,41h10v20H33V41z
	 M9,41h10v20H9V41z M55,61H45V41h10V61z"/>
</svg>
