<?xml version="1.0" encoding="utf-8"?>
<!-- Generator: Adobe Illustrator 19.1.0, SVG Export Plug-In . SVG Version: 6.00 Build 0)  -->
<!DOCTYPE svg PUBLIC "-//W3C//DTD SVG 1.1//EN" "http://www.w3.org/Graphics/SVG/1.1/DTD/svg11.dtd">
<svg version="1.1" id="Layer_49" xmlns="http://www.w3.org/2000/svg" xmlns:xlink="http://www.w3.org/1999/xlink" x="0px" y="0px"
	 width="64px" height="64px" viewBox="0 0 64 64" enable-background="new 0 0 64 64" xml:space="preserve">
<path fill="#231F20" d="M11,63c2.7,0,5.3-1.3,7-3.4c1.7,2.1,4.3,3.4,7,3.4s5.3-1.3,7-3.4c1.7,2.1,4.3,3.4,7,3.4s5.3-1.3,7-3.4
	c1.7,2.1,4.3,3.4,7,3.4c5,0,9-4,9-9c0-0.6-0.4-1-1-1s-1,0.4-1,1c0,3.9-3.1,7-7,7c-2.5,0-4.9-1.4-6.1-3.7c-0.4-0.6-1.4-0.6-1.8,0
	C43.9,59.6,41.5,61,39,61s-4.9-1.4-6.1-3.7c-0.2-0.3-0.5-0.5-0.9-0.5s-0.7,0.2-0.9,0.5C29.9,59.6,27.5,61,25,61s-4.9-1.4-6.1-3.7
	c-0.3-0.6-1.4-0.6-1.8,0C15.9,59.6,13.5,61,11,61c-3.9,0-7-3.1-7-7c0-0.6-0.4-1-1-1s-1,0.4-1,1C2,59,6,63,11,63z"/>
<path fill="#231F20" d="M49,51c0.6,0,1-0.4,1-1V6c0-2.8-2.2-5-5-5c-0.6,0-1,0.4-1,1s0.4,1,1,1c1.7,0,3,1.3,3,3v7H16V6
	c0-1.7,1.3-3,3-3c0.6,0,1-0.4,1-1s-0.4-1-1-1c-2.8,0-5,2.2-5,5v44c0,0.6,0.4,1,1,1s1-0.4,1-1v-7h32v7C48,50.6,48.4,51,49,51z M48,15
	v12H16V15H48z M16,41V29h32v12H16z"/>
</svg>
