<?xml version="1.0" encoding="utf-8"?>
<!-- Generator: Adobe Illustrator 19.1.0, SVG Export Plug-In . SVG Version: 6.00 Build 0)  -->
<!DOCTYPE svg PUBLIC "-//W3C//DTD SVG 1.1//EN" "http://www.w3.org/Graphics/SVG/1.1/DTD/svg11.dtd">
<svg version="1.1" id="Layer_49" xmlns="http://www.w3.org/2000/svg" xmlns:xlink="http://www.w3.org/1999/xlink" x="0px" y="0px"
	 width="64px" height="64px" viewBox="0 0 64 64" enable-background="new 0 0 64 64" xml:space="preserve">
<path fill="#231F20" d="M32,1C17.1,1,5,13.1,5,28v10c0,0.6,0.4,1,1,1h9v19c0,1.7-1.3,3-3,3s-3-1.3-3-3c0-0.6-0.4-1-1-1s-1,0.4-1,1
	c0,2.8,2.2,5,5,5s5-2.2,5-5V39h6v17c0,0.6,0.4,1,1,1s1-0.4,1-1V39h6v23c0,0.6,0.4,1,1,1s1-0.4,1-1V39h6v17c0,0.6,0.4,1,1,1
	s1-0.4,1-1V39h6v19c0,2.8,2.2,5,5,5s5-2.2,5-5c0-0.6-0.4-1-1-1s-1,0.4-1,1c0,1.7-1.3,3-3,3s-3-1.3-3-3V39h9c0.6,0,1-0.4,1-1V28
	C59,13.1,46.9,1,32,1z M57,37H7v-9C7,14.2,18.2,3,32,3s25,11.2,25,25V37z"/>
<path fill="#231F20" d="M26,19h-7c-0.6,0-1,0.4-1,1s0.4,1,1,1h7c0.6,0,1-0.4,1-1S26.6,19,26,19z"/>
<path fill="#231F20" d="M45,19h-7c-0.6,0-1,0.4-1,1s0.4,1,1,1h7c0.6,0,1-0.4,1-1S45.6,19,45,19z"/>
</svg>
