<?xml version="1.0" encoding="utf-8"?>
<!-- Generator: Adobe Illustrator 19.1.0, SVG Export Plug-In . SVG Version: 6.00 Build 0)  -->
<!DOCTYPE svg PUBLIC "-//W3C//DTD SVG 1.1//EN" "http://www.w3.org/Graphics/SVG/1.1/DTD/svg11.dtd">
<svg version="1.1" id="Layer_49" xmlns="http://www.w3.org/2000/svg" xmlns:xlink="http://www.w3.org/1999/xlink" x="0px" y="0px"
	 width="64px" height="64px" viewBox="0 0 64 64" enable-background="new 0 0 64 64" xml:space="preserve">
<path fill="#231F20" d="M62.2,43L51,41.2V14c0-0.6-0.4-1-1-1H37V2c0-0.6-0.4-1-1-1s-1,0.4-1,1v4h-6V2c0-0.6-0.4-1-1-1s-1,0.4-1,1v11
	H14c-0.6,0-1,0.4-1,1v27.2L1.8,43C1.4,43.1,1,43.5,1,44v18c0,0.6,0.4,1,1,1h12h36h12c0.6,0,1-0.4,1-1V44C63,43.5,62.6,43.1,62.2,43z
	 M29,8h6v5h-6V8z M3,44.8l10-1.7V61H3V44.8z M15,15h34v46H37v-8c0-0.6-0.4-1-1-1h-8c-0.6,0-1,0.4-1,1v8H15V15z M35,61h-6v-7h6V61z
	 M61,61H51V43.2l10,1.7V61z"/>
<path fill="#231F20" d="M22,23h4c0.6,0,1-0.4,1-1s-0.4-1-1-1h-4c-0.6,0-1,0.4-1,1S21.4,23,22,23z"/>
<path fill="#231F20" d="M38,23h4c0.6,0,1-0.4,1-1s-0.4-1-1-1h-4c-0.6,0-1,0.4-1,1S37.4,23,38,23z"/>
<path fill="#231F20" d="M22,31h4c0.6,0,1-0.4,1-1s-0.4-1-1-1h-4c-0.6,0-1,0.4-1,1S21.4,31,22,31z"/>
<path fill="#231F20" d="M38,31h4c0.6,0,1-0.4,1-1s-0.4-1-1-1h-4c-0.6,0-1,0.4-1,1S37.4,31,38,31z"/>
<path fill="#231F20" d="M22,39h4c0.6,0,1-0.4,1-1s-0.4-1-1-1h-4c-0.6,0-1,0.4-1,1S21.4,39,22,39z"/>
<path fill="#231F20" d="M38,39h4c0.6,0,1-0.4,1-1s-0.4-1-1-1h-4c-0.6,0-1,0.4-1,1S37.4,39,38,39z"/>
<path fill="#231F20" d="M27,46c0-0.6-0.4-1-1-1h-4c-0.6,0-1,0.4-1,1s0.4,1,1,1h4C26.6,47,27,46.6,27,46z"/>
<path fill="#231F20" d="M38,47h4c0.6,0,1-0.4,1-1s-0.4-1-1-1h-4c-0.6,0-1,0.4-1,1S37.4,47,38,47z"/>
</svg>
