<?xml version="1.0" encoding="utf-8"?>
<!-- Generator: Adobe Illustrator 19.1.0, SVG Export Plug-In . SVG Version: 6.00 Build 0)  -->
<!DOCTYPE svg PUBLIC "-//W3C//DTD SVG 1.1//EN" "http://www.w3.org/Graphics/SVG/1.1/DTD/svg11.dtd">
<svg version="1.1" id="Layer_49" xmlns="http://www.w3.org/2000/svg" xmlns:xlink="http://www.w3.org/1999/xlink" x="0px" y="0px"
	 width="64px" height="64px" viewBox="0 0 64 64" enable-background="new 0 0 64 64" xml:space="preserve">
<path fill="#231F20" d="M61,53c-0.6,0-1,0.4-1,1c0,3.9-3.1,7-7,7c-2.5,0-4.9-1.4-6.1-3.7c-0.4-0.6-1.4-0.6-1.8,0
	C43.9,59.6,41.5,61,39,61s-4.9-1.4-6.1-3.7c-0.4-0.6-1.4-0.6-1.8,0C29.9,59.6,27.5,61,25,61s-4.9-1.4-6.1-3.7
	c-0.4-0.6-1.4-0.6-1.8,0C15.9,59.6,13.5,61,11,61c-3.9,0-7-3.1-7-7c0-0.6-0.4-1-1-1s-1,0.4-1,1c0,5,4,9,9,9c2.7,0,5.3-1.3,7-3.4
	c1.7,2.1,4.3,3.4,7,3.4s5.3-1.3,7-3.4c1.7,2.1,4.3,3.4,7,3.4s5.3-1.3,7-3.4c1.7,2.1,4.3,3.4,7,3.4c5,0,9-4,9-9
	C62,53.4,61.6,53,61,53z"/>
<path fill="#231F20" d="M34,1c-11.6,0-21,9.4-21,21v20c0,0.6,0.4,1,1,1h19v8c0,0.6,0.4,1,1,1s1-0.4,1-1v-9V23h11c0.6,0,1-0.4,1-1
	s-0.4-1-1-1H35V2C35,1.4,34.6,1,34,1z M33,41h-4V3.7c1.3-0.4,2.6-0.6,4-0.7V41z M15,22c0-8,5-14.8,12-17.6V41H15V22z"/>
</svg>
