<?xml version="1.0" encoding="utf-8"?>
<!-- Generator: Adobe Illustrator 19.1.0, SVG Export Plug-In . SVG Version: 6.00 Build 0)  -->
<!DOCTYPE svg PUBLIC "-//W3C//DTD SVG 1.1//EN" "http://www.w3.org/Graphics/SVG/1.1/DTD/svg11.dtd">
<svg version="1.1" id="Layer_49" xmlns="http://www.w3.org/2000/svg" xmlns:xlink="http://www.w3.org/1999/xlink" x="0px" y="0px"
	 width="64px" height="64px" viewBox="0 0 64 64" enable-background="new 0 0 64 64" xml:space="preserve">
<path fill="#231F20" d="M5.1,50l3.5,9.7c0.1,0.2,0.3,0.5,0.5,0.6c0.1,0.1,0.3,0.1,0.4,0.1c0.1,0,0.2,0,0.3-0.1L32,52.2l22.1,8.1
	c0.1,0,0.2,0.1,0.3,0.1c0.1,0,0.3,0,0.4-0.1c0.2-0.1,0.4-0.3,0.5-0.6l3.5-9.7c0.1-0.2,0.1-0.5,0-0.8c-0.1-0.2-0.3-0.4-0.6-0.5
	l-8.3-3l8.3-3c0.2-0.1,0.5-0.3,0.6-0.5c0.1-0.2,0.1-0.5,0-0.8l-3.5-9.7c-0.1-0.2-0.3-0.5-0.5-0.6c-0.2-0.1-0.5-0.1-0.8,0l-6.9,2.5
	c0.5-1.6,0.8-3.3,0.8-5.1C48,19.6,33.3,4,32.7,3.3c-0.4-0.4-1.1-0.4-1.5,0C30.7,4,16,19.6,16,28.4c0,1.8,0.3,3.5,0.8,5.1l-6.9-2.5
	c-0.3-0.1-0.5-0.1-0.8,0c-0.2,0.1-0.4,0.3-0.5,0.6l-3.5,9.7c-0.1,0.2-0.1,0.5,0,0.8c0.1,0.2,0.3,0.4,0.6,0.5l8.3,3l-8.3,3
	C5.1,48.9,4.9,49.5,5.1,50z M56.7,50.2L53.9,58l-18.9-6.9l12.2-4.4L56.7,50.2z M32,5.5c3,3.3,14,15.9,14,23c0,8-6.3,14.6-14,14.6
	s-14-6.5-14-14.6C18,21.4,29,8.8,32,5.5z M7.3,41.1l2.8-7.8l7.7,2.8c1.3,2.5,3.1,4.7,5.4,6.2l-6.3,2.3L7.3,41.1z M25.5,43.6
	c2,0.9,4.2,1.4,6.5,1.4c6.2,0,11.5-3.6,14.2-8.9l7.7-2.8l2.8,7.8L10.1,58l-2.8-7.8L25.5,43.6z"/>
<path fill="#231F20" d="M32,37c4.4,0,8-3.8,8-8.6c-0.1-2.6-3.8-8.3-7.2-12.7c-0.2-0.2-0.5-0.4-0.8-0.4c0,0,0,0,0,0
	c-0.3,0-0.6,0.1-0.8,0.4c-3.4,4.4-7.1,10.1-7.2,12.7C24,33.2,27.6,37,32,37z M32,18c4,5.4,5.9,9.2,6,10.5c0,3.6-2.7,6.5-6,6.5
	s-6-2.9-6-6.5C26,27.2,28.1,23.2,32,18z"/>
</svg>
