<?xml version="1.0" encoding="utf-8"?>
<!-- Generator: Adobe Illustrator 19.1.0, SVG Export Plug-In . SVG Version: 6.00 Build 0)  -->
<!DOCTYPE svg PUBLIC "-//W3C//DTD SVG 1.1//EN" "http://www.w3.org/Graphics/SVG/1.1/DTD/svg11.dtd">
<svg version="1.1" id="Layer_49" xmlns="http://www.w3.org/2000/svg" xmlns:xlink="http://www.w3.org/1999/xlink" x="0px" y="0px"
	 width="64px" height="64px" viewBox="0 0 64 64" enable-background="new 0 0 64 64" xml:space="preserve">
<path fill="#231F20" d="M62.9,29.6c-0.5-6-2.7-11.6-6.1-16.2c0,0-0.1-0.1-0.1-0.1C51,5.8,42.1,1,32,1C21.9,1,13,5.8,7.3,13.3
	c0,0-0.1,0.1-0.1,0.1C3.8,18,1.6,23.5,1.1,29.6C1,29.7,1,29.8,1,30c0,0.1,0,0.2,0.1,0.3C1,30.8,1,31.4,1,32v26c0,0.6,0.4,1,1,1h17v3
	c0,0.6,0.4,1,1,1h24c0.6,0,1-0.4,1-1v-3h17c0.6,0,1-0.4,1-1V32c0-0.6,0-1.2-0.1-1.7c0-0.1,0.1-0.2,0.1-0.3
	C63,29.8,63,29.7,62.9,29.6z M44.6,45c-1.4-5.7-6.5-10-12.6-10s-11.3,4.3-12.6,10H15V31h34v14H44.6z M3,45V32c0-0.3,0-0.7,0-1h10v14
	H3z M8.5,15H19v14H3.2C3.7,23.8,5.6,19,8.5,15z M43,15v14H21V15H43z M55.5,15c2.9,4,4.8,8.8,5.4,14H45V15H55.5z M51,31h10
	c0,0.3,0,0.7,0,1v13H51V31z M53.9,13H33V3C41.3,3.3,48.8,7.1,53.9,13z M31,3v10H10.1C15.2,7.1,22.7,3.3,31,3z M3,57V47h16.1
	c0,0.3-0.1,0.7-0.1,1v9H3z M43,61H21V48c0-6.1,4.9-11,11-11s11,4.9,11,11V61z M45,57v-9c0-0.3,0-0.7-0.1-1H61v10H45z"/>
</svg>
