<?xml version="1.0" encoding="utf-8"?>
<!-- Generator: Adobe Illustrator 19.1.0, SVG Export Plug-In . SVG Version: 6.00 Build 0)  -->
<!DOCTYPE svg PUBLIC "-//W3C//DTD SVG 1.1//EN" "http://www.w3.org/Graphics/SVG/1.1/DTD/svg11.dtd">
<svg version="1.1" id="Layer_49" xmlns="http://www.w3.org/2000/svg" xmlns:xlink="http://www.w3.org/1999/xlink" x="0px" y="0px"
	 width="64px" height="64px" viewBox="0 0 64 64" enable-background="new 0 0 64 64" xml:space="preserve">
<path fill="#231F20" d="M9,59h3v3c0,0.6,0.4,1,1,1s1-0.4,1-1v-3h36v3c0,0.6,0.4,1,1,1s1-0.4,1-1v-3h3c0.6,0,1-0.4,1-1V14
	c0-2.8-2.2-5-5-5H41V2c0-0.6-0.4-1-1-1H24c-0.6,0-1,0.4-1,1v7H13c-2.8,0-5,2.2-5,5v44C8,58.6,8.4,59,9,59z M46,57H18V22
	c0-0.6,0.4-1,1-1h26c0.6,0,1,0.4,1,1V57z M25,3h14v6H25V3z M10,14c0-1.7,1.3-3,3-3h38c1.7,0,3,1.3,3,3v43h-6V22c0-1.7-1.3-3-3-3H19
	c-1.7,0-3,1.3-3,3v35h-6V14z"/>
<path fill="#231F20" d="M41,29H23c-0.6,0-1,0.4-1,1s0.4,1,1,1h18c0.6,0,1-0.4,1-1S41.6,29,41,29z"/>
</svg>
