<?xml version="1.0" encoding="utf-8"?>
<!-- Generator: Adobe Illustrator 19.1.0, SVG Export Plug-In . SVG Version: 6.00 Build 0)  -->
<!DOCTYPE svg PUBLIC "-//W3C//DTD SVG 1.1//EN" "http://www.w3.org/Graphics/SVG/1.1/DTD/svg11.dtd">
<svg version="1.1" id="Layer_49" xmlns="http://www.w3.org/2000/svg" xmlns:xlink="http://www.w3.org/1999/xlink" x="0px" y="0px"
	 width="64px" height="64px" viewBox="0 0 64 64" enable-background="new 0 0 64 64" xml:space="preserve">
<path fill="#231F20" d="M60,33c0.6,0,1-0.4,1-1v-2C61,14,48,1,32,1S3,14,3,30v2c0,0.6,0.4,1,1,1h12v15c0,1.7-1.3,3-3,3s-3-1.3-3-3
	c0-0.6-0.4-1-1-1s-1,0.4-1,1c0,2.8,2.2,5,5,5s5-2.2,5-5V33h8v25c0,1.7-1.3,3-3,3s-3-1.3-3-3c0-0.6-0.4-1-1-1s-1,0.4-1,1
	c0,2.8,2.2,5,5,5s5-2.2,5-5V33h8v25c0,2.8,2.2,5,5,5s5-2.2,5-5c0-0.6-0.4-1-1-1s-1,0.4-1,1c0,1.7-1.3,3-3,3s-3-1.3-3-3V33h8v15
	c0,2.8,2.2,5,5,5s5-2.2,5-5c0-0.6-0.4-1-1-1s-1,0.4-1,1c0,1.7-1.3,3-3,3s-3-1.3-3-3V33H60z M5,30C5,15.1,17.1,3,32,3s27,12.1,27,27
	v1H5V30z"/>
</svg>
