<?xml version="1.0" encoding="utf-8"?>
<!-- Generator: Adobe Illustrator 19.1.0, SVG Export Plug-In . SVG Version: 6.00 Build 0)  -->
<!DOCTYPE svg PUBLIC "-//W3C//DTD SVG 1.1//EN" "http://www.w3.org/Graphics/SVG/1.1/DTD/svg11.dtd">
<svg version="1.1" id="Layer_49" xmlns="http://www.w3.org/2000/svg" xmlns:xlink="http://www.w3.org/1999/xlink" x="0px" y="0px"
	 width="64px" height="64px" viewBox="0 0 64 64" enable-background="new 0 0 64 64" xml:space="preserve">
<path fill="#231F20" d="M61,53c-0.6,0-1,0.4-1,1c0,3.9-3.1,7-7,7c-2.5,0-4.9-1.4-6.1-3.7c-0.4-0.6-1.4-0.6-1.8,0
	C43.9,59.6,41.5,61,39,61s-4.9-1.4-6.1-3.7c-0.4-0.6-1.4-0.6-1.8,0C29.9,59.6,27.5,61,25,61s-4.9-1.4-6.1-3.7
	c-0.4-0.6-1.4-0.6-1.8,0C15.9,59.6,13.5,61,11,61c-3.9,0-7-3.1-7-7c0-0.6-0.4-1-1-1s-1,0.4-1,1c0,5,4,9,9,9c2.7,0,5.3-1.3,7-3.4
	c1.7,2.1,4.3,3.4,7,3.4s5.3-1.3,7-3.4c1.7,2.1,4.3,3.4,7,3.4s5.3-1.3,7-3.4c1.7,2.1,4.3,3.4,7,3.4c5,0,9-4,9-9
	C62,53.4,61.6,53,61,53z"/>
<path fill="#231F20" d="M13,22.2c0.1-0.5-0.2-1.1-0.8-1.2l-7-1.6c-0.5-0.1-1.1,0.2-1.2,0.8c-0.1,0.5,0.2,1.1,0.8,1.2l7,1.6
	c0.1,0,0.1,0,0.2,0C12.5,23,12.9,22.7,13,22.2z"/>
<path fill="#231F20" d="M4.8,34.6c-0.5,0.1-0.9,0.7-0.8,1.2c0.1,0.5,0.5,0.8,1,0.8c0.1,0,0.1,0,0.2,0l7-1.6c0.5-0.1,0.9-0.7,0.8-1.2
	c-0.1-0.5-0.7-0.9-1.2-0.8L4.8,34.6z"/>
<path fill="#231F20" d="M2,28c0,0.6,0.4,1,1,1h8c0.6,0,1-0.4,1-1s-0.4-1-1-1H3C2.4,27,2,27.4,2,28z"/>
<path fill="#231F20" d="M59.2,21.4c0.5-0.1,0.9-0.7,0.8-1.2c-0.1-0.5-0.7-0.9-1.2-0.8l-7,1.6c-0.5,0.1-0.9,0.7-0.8,1.2
	c0.1,0.5,0.5,0.8,1,0.8c0.1,0,0.1,0,0.2,0L59.2,21.4z"/>
<path fill="#231F20" d="M59,36.6c0.5,0,0.9-0.3,1-0.8c0.1-0.5-0.2-1.1-0.8-1.2l-7-1.6c-0.5-0.1-1.1,0.2-1.2,0.8
	c-0.1,0.5,0.2,1.1,0.8,1.2l7,1.6C58.9,36.6,58.9,36.6,59,36.6z"/>
<path fill="#231F20" d="M61,27h-8c-0.6,0-1,0.4-1,1s0.4,1,1,1h8c0.6,0,1-0.4,1-1S61.6,27,61,27z"/>
<path fill="#231F20" d="M32,36c3.9,0,7-3.1,7-7s-3.1-7-7-7s-7,3.1-7,7S28.1,36,32,36z M32,24c2.8,0,5,2.2,5,5s-2.2,5-5,5s-5-2.2-5-5
	S29.2,24,32,24z"/>
<path fill="#231F20" d="M11.5,52.9c0.5,0.3,1.1,0.1,1.4-0.3l5.7-9.5h26.9l5.7,9.5c0.2,0.3,0.5,0.5,0.9,0.5c0.2,0,0.4,0,0.5-0.1
	c0.5-0.3,0.6-0.9,0.3-1.4L47,41.7V16c0-0.1,0-0.3-0.1-0.4c0,0,0-0.1-0.1-0.1c-0.1-0.1-0.1-0.2-0.2-0.2c0,0,0,0,0,0l-14-12
	c-0.4-0.3-0.9-0.3-1.3,0l-14,12c0,0,0,0,0,0c-0.1,0.1-0.1,0.1-0.2,0.2c0,0,0,0.1-0.1,0.1C17,15.7,17,15.9,17,16v25.7l-5.9,9.8
	C10.9,52,11,52.6,11.5,52.9z M45,17v24H19V17H45z M32,5.3L43.3,15H20.7L32,5.3z"/>
</svg>
