<?xml version="1.0" encoding="utf-8"?>
<!-- Generator: Adobe Illustrator 19.1.0, SVG Export Plug-In . SVG Version: 6.00 Build 0)  -->
<!DOCTYPE svg PUBLIC "-//W3C//DTD SVG 1.1//EN" "http://www.w3.org/Graphics/SVG/1.1/DTD/svg11.dtd">
<svg version="1.1" id="Layer_49" xmlns="http://www.w3.org/2000/svg" xmlns:xlink="http://www.w3.org/1999/xlink" x="0px" y="0px"
	 width="64px" height="64px" viewBox="0 0 64 64" enable-background="new 0 0 64 64" xml:space="preserve">
<path fill="#231F20" d="M52.9,5.7C52.8,5.3,52.4,5,52,5h-9c-0.6,0-1,0.4-1,1v4c0,0.6,0.4,1,1,1h5.1l2.8,22H13.1l2.8-22H21
	c0.6,0,1-0.4,1-1V6c0-0.6-0.4-1-1-1h-9c-0.4,0-0.8,0.3-0.9,0.7l-10,28C1,33.8,1,33.9,1,34v12c0,7.2,5.8,13,13,13s13-5.8,13-13v-4h10
	v4c0,7.2,5.8,13,13,13s13-5.8,13-13V34c0-0.1,0-0.2-0.1-0.3L52.9,5.7z M50,9.9C49.9,9.4,49.5,9,49,9h-5V7h7.3l9.3,26h-7.7L50,9.9z
	 M12.7,7H20v2h-5c-0.5,0-0.9,0.4-1,0.9L11.1,33H3.4L12.7,7z M25,46c0,6.1-4.9,11-11,11S3,52.1,3,46V35h22V46z M27,40v-5h10v5H27z
	 M50,57c-6.1,0-11-4.9-11-11V35h22v11C61,52.1,56.1,57,50,57z"/>
</svg>
