<?xml version="1.0" encoding="utf-8"?>
<!-- Generator: Adobe Illustrator 19.1.0, SVG Export Plug-In . SVG Version: 6.00 Build 0)  -->
<!DOCTYPE svg PUBLIC "-//W3C//DTD SVG 1.1//EN" "http://www.w3.org/Graphics/SVG/1.1/DTD/svg11.dtd">
<svg version="1.1" id="Layer_49" xmlns="http://www.w3.org/2000/svg" xmlns:xlink="http://www.w3.org/1999/xlink" x="0px" y="0px"
	 width="64px" height="64px" viewBox="0 0 64 64" enable-background="new 0 0 64 64" xml:space="preserve">
<path fill="#231F20" d="M18,47h6c0.6,0,1-0.4,1-1V36h14v10c0,0.6,0.4,1,1,1h6c0.6,0,1-0.4,1-1V18c0-0.6-0.4-1-1-1h-6
	c-0.6,0-1,0.4-1,1v10H25V18c0-0.6-0.4-1-1-1h-6c-0.6,0-1,0.4-1,1v28C17,46.6,17.4,47,18,47z M19,19h4v10c0,0.6,0.4,1,1,1h16
	c0.6,0,1-0.4,1-1V19h4v26h-4V35c0-0.6-0.4-1-1-1H24c-0.6,0-1,0.4-1,1v10h-4V19z"/>
<path fill="#231F20" d="M62,1H2C1.4,1,1,1.4,1,2v60c0,0.6,0.4,1,1,1h60c0.6,0,1-0.4,1-1V2C63,1.4,62.6,1,62,1z M61,61H3V3h58V61z"/>
</svg>
