<?xml version="1.0" encoding="utf-8"?>
<!-- Generator: Adobe Illustrator 19.1.0, SVG Export Plug-In . SVG Version: 6.00 Build 0)  -->
<!DOCTYPE svg PUBLIC "-//W3C//DTD SVG 1.1//EN" "http://www.w3.org/Graphics/SVG/1.1/DTD/svg11.dtd">
<svg version="1.1" id="Layer_1" xmlns="http://www.w3.org/2000/svg" xmlns:xlink="http://www.w3.org/1999/xlink" x="0px" y="0px"
	 width="64px" height="64px" viewBox="0 0 64 64" enable-background="new 0 0 64 64" xml:space="preserve">
<path d="M4,63h56c0.4,0,0.7-0.2,0.9-0.5s0.2-0.7,0-1L33.2,14.2l5.7-9.7C39.1,4,39,3.4,38.5,3.1C38,2.9,37.4,3,37.1,3.5L32,12.3
	l-5.1-8.8C26.6,3,26,2.9,25.5,3.1C25,3.4,24.9,4,25.1,4.5l5.7,9.7L3.1,61.5c-0.2,0.3-0.2,0.7,0,1S3.6,63,4,63z M23.7,61L32,46.1
	L40.3,61H23.7z M32,16.2L38.3,27H25.7L32,16.2z M24.5,29h15l18.8,32H42.6l-9.7-17.5c-0.4-0.6-1.4-0.6-1.7,0L21.4,61H5.7L24.5,29z"/>
</svg>
