<?xml version="1.0" encoding="utf-8"?>
<!-- Generator: Adobe Illustrator 19.1.0, SVG Export Plug-In . SVG Version: 6.00 Build 0)  -->
<!DOCTYPE svg PUBLIC "-//W3C//DTD SVG 1.1//EN" "http://www.w3.org/Graphics/SVG/1.1/DTD/svg11.dtd">
<svg version="1.1" id="Layer_1" xmlns="http://www.w3.org/2000/svg" xmlns:xlink="http://www.w3.org/1999/xlink" x="0px" y="0px"
	 width="64px" height="64px" viewBox="0 0 64 64" enable-background="new 0 0 64 64" xml:space="preserve">
<path d="M60,31H38c-0.6,0-1,0.4-1,1v8c0,2.8-2.2,5-5,5s-5-2.2-5-5V21h5c0.6,0,1-0.4,1-1s-0.4-1-1-1h-7V8c0-3.9-3.1-7-7-7H6
	C5.4,1,5,1.4,5,2v8c0,0.6,0.4,1,1,1h8c0.6,0,1,0.4,1,1v7H8c-0.6,0-1,0.4-1,1s0.4,1,1,1h5v18c0,13.2,10.8,24,24,24s24-10.8,24-24v-7
	C61,31.4,60.6,31,60,31z M14,9H7V3h11c2.8,0,5,2.2,5,5v11h-6v-7C17,10.3,15.7,9,14,9z M59,39c0,12.1-9.9,22-22,22s-22-9.9-22-22V21
	h10v19c0,3.9,3.1,7,7,7s7-3.1,7-7v-7h20V39z"/>
</svg>
