<?xml version="1.0" encoding="utf-8"?>
<!-- Generator: Adobe Illustrator 19.1.0, SVG Export Plug-In . SVG Version: 6.00 Build 0)  -->
<!DOCTYPE svg PUBLIC "-//W3C//DTD SVG 1.1//EN" "http://www.w3.org/Graphics/SVG/1.1/DTD/svg11.dtd">
<svg version="1.1" id="Layer_1" xmlns="http://www.w3.org/2000/svg" xmlns:xlink="http://www.w3.org/1999/xlink" x="0px" y="0px"
	 width="64px" height="64px" viewBox="0 0 64 64" enable-background="new 0 0 64 64" xml:space="preserve">
<path d="M62,51h-3V40c0-0.1,0-0.2,0-0.3l-8-28c-0.1-0.4-0.5-0.7-1-0.7h-5V6c0-0.6-0.4-1-1-1h-8c-0.6,0-1,0.4-1,1v6v15h-6V12V6
	c0-0.6-0.4-1-1-1h-8c-0.6,0-1,0.4-1,1v5h-5c-0.4,0-0.8,0.3-1,0.7l-8,28c0,0.1,0,0.2,0,0.3v11H2c-0.6,0-1,0.4-1,1v6c0,0.6,0.4,1,1,1
	h26c0.6,0,1-0.4,1-1v-6V29h6v23v6c0,0.6,0.4,1,1,1h26c0.6,0,1-0.4,1-1v-6C63,51.4,62.6,51,62,51z M21,7h6v4h-6V7z M27,57H3v-4h24V57
	z M27,51H7V40.1L14.8,13H27v14h-7c-0.6,0-1,0.4-1,1s0.4,1,1,1h7V51z M43,7v4h-6V7H43z M44,27h-7V13h12.2L57,40.1V51H37V29h7
	c0.6,0,1-0.4,1-1S44.6,27,44,27z M61,57H37v-4h24V57z"/>
</svg>
