<?xml version="1.0" encoding="utf-8"?>
<!-- Generator: Adobe Illustrator 19.1.0, SVG Export Plug-In . SVG Version: 6.00 Build 0)  -->
<!DOCTYPE svg PUBLIC "-//W3C//DTD SVG 1.1//EN" "http://www.w3.org/Graphics/SVG/1.1/DTD/svg11.dtd">
<svg version="1.1" id="Layer_1" xmlns="http://www.w3.org/2000/svg" xmlns:xlink="http://www.w3.org/1999/xlink" x="0px" y="0px"
	 width="64px" height="64px" viewBox="0 0 64 64" enable-background="new 0 0 64 64" xml:space="preserve">
<path d="M4,59h14c0.6,0,1-0.4,1-1c0-5,4-9,9-9s9,4,9,9c0,0.6,0.4,1,1,1h14c0.6,0,1-0.4,1-1V42.9c4.5-0.5,8-4.3,8-8.9s-3.5-8.4-8-8.9
	V12c0-0.6-0.4-1-1-1H36.9c-0.5-4.5-4.3-8-8.9-8s-8.4,3.5-8.9,8H4c-0.6,0-1,0.4-1,1v12c0,0.6,0.4,1,1,1c5,0,9,4,9,9s-4,9-9,9
	c-0.6,0-1,0.4-1,1v14C3,58.6,3.4,59,4,59z M5,45c5.6-0.5,10-5.2,10-11S10.6,23.6,5,23V13h15c0.6,0,1-0.4,1-1c0-3.9,3.1-7,7-7
	s7,3.1,7,7c0,0.6,0.4,1,1,1h15v13c0,0.6,0.4,1,1,1c3.9,0,7,3.1,7,7s-3.1,7-7,7c-0.6,0-1,0.4-1,1v15H39c-0.5-5.6-5.2-10-11-10
	s-10.4,4.4-11,10H5V45z"/>
</svg>
