<?xml version="1.0" encoding="utf-8"?>
<!-- Generator: Adobe Illustrator 19.1.0, SVG Export Plug-In . SVG Version: 6.00 Build 0)  -->
<!DOCTYPE svg PUBLIC "-//W3C//DTD SVG 1.1//EN" "http://www.w3.org/Graphics/SVG/1.1/DTD/svg11.dtd">
<svg version="1.1" id="Layer_1" xmlns="http://www.w3.org/2000/svg" xmlns:xlink="http://www.w3.org/1999/xlink" x="0px" y="0px"
	 width="64px" height="64px" viewBox="0 0 64 64" enable-background="new 0 0 64 64" xml:space="preserve">
<path d="M5.5,43.1c-2.7,2.7-2.7,7.2,0,9.9l5.5,5.5c1.4,1.4,3.2,2,4.9,2s3.6-0.7,4.9-2L48,31.4l3.3,3.3c0.2,0.2,0.5,0.3,0.7,0.3
	s0.5-0.1,0.7-0.3l6-6c0.4-0.4,0.4-1,0-1.4L51.4,20l8.3-8.3c2-2,2-5.4,0-7.4s-5.4-2-7.4,0L44,12.6l-7.3-7.3c-0.4-0.4-1-0.4-1.4,0
	l-6,6c-0.4,0.4-0.4,1,0,1.4l3.3,3.3L5.5,43.1z M53.7,5.7c1.3-1.3,3.3-1.3,4.6,0c1.3,1.3,1.3,3.3,0,4.6L50,18.6L45.4,14L53.7,5.7z
	 M36,7.4L56.6,28L52,32.6L31.4,12L36,7.4z M46.6,30L19.5,57.1c-1.9,1.9-5.1,1.9-7.1,0l-5.5-5.5c-1.9-1.9-1.9-5.1,0-7.1l5.1-5.1
	l3.3,3.3c0.2,0.2,0.5,0.3,0.7,0.3s0.5-0.1,0.7-0.3c0.4-0.4,0.4-1,0-1.4L13.4,38l4.6-4.6l3.3,3.3c0.2,0.2,0.5,0.3,0.7,0.3
	s0.5-0.1,0.7-0.3c0.4-0.4,0.4-1,0-1.4L19.4,32l4.6-4.6l3.3,3.3c0.2,0.2,0.5,0.3,0.7,0.3s0.5-0.1,0.7-0.3c0.4-0.4,0.4-1,0-1.4
	L25.4,26l8.6-8.6L46.6,30z"/>
</svg>
