<?xml version="1.0" encoding="utf-8"?>
<!-- Generator: Adobe Illustrator 19.1.0, SVG Export Plug-In . SVG Version: 6.00 Build 0)  -->
<!DOCTYPE svg PUBLIC "-//W3C//DTD SVG 1.1//EN" "http://www.w3.org/Graphics/SVG/1.1/DTD/svg11.dtd">
<svg version="1.1" id="Layer_1" xmlns="http://www.w3.org/2000/svg" xmlns:xlink="http://www.w3.org/1999/xlink" x="0px" y="0px"
	 width="64px" height="64px" viewBox="0 0 64 64" enable-background="new 0 0 64 64" xml:space="preserve">
<path d="M62,1H50c-0.3,0-0.5,0.1-0.7,0.3L23.5,27c-6.1-1.4-12.5,0.4-16.9,4.8c-7.1,7.1-7.1,18.6,0,25.7c3.5,3.5,8.2,5.3,12.8,5.3
	s9.3-1.8,12.8-5.3c4.4-4.4,6.2-10.9,4.8-17l5.7-5.8c0.2-0.2,0.3-0.4,0.3-0.7v-7h7c0.6,0,1-0.4,1-1v-7h7c0.3,0,0.5-0.1,0.7-0.3l4-4
	c0.2-0.2,0.3-0.4,0.3-0.7V2C63,1.4,62.6,1,62,1z M61,13.6L57.6,17H50c-0.6,0-1,0.4-1,1v7h-7c-0.6,0-1,0.4-1,1v7.6l-5.8,5.9
	c-0.2,0.3-0.3,0.6-0.3,1c1.5,5.6-0.1,11.5-4.2,15.6c-6.3,6.3-16.5,6.3-22.8,0c-6.3-6.3-6.3-16.5,0-22.8c3.1-3.1,7.2-4.7,11.4-4.7
	c1.4,0,2.8,0.2,4.2,0.5c0.3,0.1,0.7,0,1-0.3L50.4,3H61V13.6z"/>
<path d="M15,40c-1.6,0-3.1,0.6-4.2,1.8C9.6,42.9,9,44.4,9,46s0.6,3.1,1.8,4.2c1.1,1.1,2.6,1.8,4.2,1.8s3.1-0.6,4.2-1.8
	c1.1-1.1,1.8-2.6,1.8-4.2s-0.6-3.1-1.8-4.2C18.1,40.6,16.6,40,15,40z M17.8,48.8c-1.5,1.5-4.1,1.5-5.7,0C11.4,48.1,11,47.1,11,46
	s0.4-2.1,1.2-2.8c0.8-0.8,1.8-1.2,2.8-1.2s2.1,0.4,2.8,1.2c0.8,0.8,1.2,1.8,1.2,2.8S18.6,48.1,17.8,48.8z"/>
</svg>
