<?xml version="1.0" encoding="utf-8"?>
<!-- Generator: Adobe Illustrator 19.1.0, SVG Export Plug-In . SVG Version: 6.00 Build 0)  -->
<!DOCTYPE svg PUBLIC "-//W3C//DTD SVG 1.1//EN" "http://www.w3.org/Graphics/SVG/1.1/DTD/svg11.dtd">
<svg version="1.1" id="Layer_1" xmlns="http://www.w3.org/2000/svg" xmlns:xlink="http://www.w3.org/1999/xlink" x="0px" y="0px"
	 width="64px" height="64px" viewBox="0 0 64 64" enable-background="new 0 0 64 64" xml:space="preserve">
<path d="M32,1C14.9,1,1,14.9,1,32s13.9,31,31,31s31-13.9,31-31S49.1,1,32,1z M32,61C16,61,3,48,3,32S16,3,32,3s29,13,29,29
	S48,61,32,61z"/>
<path d="M32,9c-10.5,0-19,8.5-19,19s8.5,19,19,19s19-8.5,19-19S42.5,9,32,9z M32,45c-9.4,0-17-7.6-17-17s7.6-17,17-17s17,7.6,17,17
	S41.4,45,32,45z"/>
<path d="M35.2,25.8c1.1-0.9,1.8-2.3,1.8-3.8c0-2.8-2.2-5-5-5s-5,2.2-5,5c0,1.5,0.7,2.9,1.8,3.8C26.5,27,25,29.3,25,32
	c0,3.9,3.1,7,7,7s7-3.1,7-7C39,29.3,37.5,27,35.2,25.8z M29,22c0-1.7,1.3-3,3-3s3,1.3,3,3s-1.3,3-3,3S29,23.7,29,22z M32,37
	c-2.8,0-5-2.2-5-5s2.2-5,5-5s5,2.2,5,5S34.8,37,32,37z"/>
</svg>
