<?xml version="1.0" encoding="utf-8"?>
<!-- Generator: Adobe Illustrator 19.1.0, SVG Export Plug-In . SVG Version: 6.00 Build 0)  -->
<!DOCTYPE svg PUBLIC "-//W3C//DTD SVG 1.1//EN" "http://www.w3.org/Graphics/SVG/1.1/DTD/svg11.dtd">
<svg version="1.1" id="Layer_1" xmlns="http://www.w3.org/2000/svg" xmlns:xlink="http://www.w3.org/1999/xlink" x="0px" y="0px"
	 width="64px" height="64px" viewBox="0 0 64 64" enable-background="new 0 0 64 64" xml:space="preserve">
<path d="M53,21V6c0-0.6-0.4-1-1-1H42c-0.6,0-1,0.4-1,1c0,5-4,9-9,9s-9-4-9-9c0-0.6-0.4-1-1-1H12c-0.6,0-1,0.4-1,1v15
	C5.4,21.6,1,26.3,1,32s4.4,10.4,10,11v15c0,0.6,0.4,1,1,1h10c0.6,0,1-0.4,1-1c0-5,4-9,9-9s9,4,9,9c0,0.6,0.4,1,1,1h10
	c0.6,0,1-0.4,1-1V43c5.6-0.5,10-5.2,10-11S58.6,21.6,53,21z M52,41c-0.6,0-1,0.4-1,1v15h-8c-0.5-5.6-5.2-10-11-10s-10.4,4.4-11,10
	h-8V42c0-0.6-0.4-1-1-1c-5,0-9-4-9-9s4-9,9-9c0.6,0,1-0.4,1-1V7h8c0.5,5.6,5.2,10,11,10s10.4-4.4,11-10h8v15c0,0.6,0.4,1,1,1
	c5,0,9,4,9,9S57,41,52,41z"/>
</svg>
