<?xml version="1.0" encoding="utf-8"?>
<!-- Generator: Adobe Illustrator 19.1.0, SVG Export Plug-In . SVG Version: 6.00 Build 0)  -->
<!DOCTYPE svg PUBLIC "-//W3C//DTD SVG 1.1//EN" "http://www.w3.org/Graphics/SVG/1.1/DTD/svg11.dtd">
<svg version="1.1" id="Layer_1" xmlns="http://www.w3.org/2000/svg" xmlns:xlink="http://www.w3.org/1999/xlink" x="0px" y="0px"
	 width="64px" height="64px" viewBox="0 0 64 64" enable-background="new 0 0 64 64" xml:space="preserve">
<path d="M57,56.5c0-1.7-0.7-3.4-1.9-4.6L39.2,36l15.7-9.8c0.3-0.2,0.4-0.4,0.5-0.7c0-0.3,0.8-7.5-8.1-16.4C38.4,0.2,31.2,1,30.9,1
	c-0.3,0-0.6,0.2-0.7,0.5l-9.8,15.7l-2.3-2.3c-2.5-2.5-6.7-2.5-9.2,0C7.7,16.1,7,17.8,7,19.5c0,1.7,0.7,3.4,1.9,4.6l4.4,4.4l-2.6,4.1
	c-0.2,0.4-0.2,0.9,0.1,1.2l11.7,11.7c0.2,0.2,0.4,0.3,0.7,0.3c0.2,0,0.4,0,0.5-0.2l4.1-2.6l18,18c1.3,1.3,2.9,1.9,4.6,1.9
	c1.7,0,3.3-0.6,4.6-1.9C56.3,59.9,57,58.3,57,56.5z M31.6,3c1.6,0,7.4,0.6,14.3,7.5c6.9,6.9,7.5,12.7,7.5,14.3l-5.2,3.3
	c-0.2-2.7-1.4-7.9-6.7-13.2C36.2,9.6,31,8.4,28.3,8.2L31.6,3z M10.3,22.7c-0.9-0.9-1.3-2-1.3-3.2c0-1.2,0.5-2.3,1.3-3.2
	c1.8-1.8,4.6-1.8,6.4,0l2.6,2.6l-4.9,7.8L10.3,22.7z M23.4,43.6L12.8,33l14.3-22.8c1.6,0,7.2,0.4,13,6.2c5.7,5.7,6.2,11.4,6.2,13
	L23.4,43.6z M53.7,59.7c-1.8,1.8-4.6,1.8-6.4,0L29.6,42l7.8-4.9l16.2,16.2c0.9,0.9,1.3,2,1.3,3.2C55,57.7,54.5,58.9,53.7,59.7z"/>
</svg>
