<?xml version="1.0" encoding="utf-8"?>
<!-- Generator: Adobe Illustrator 19.1.0, SVG Export Plug-In . SVG Version: 6.00 Build 0)  -->
<!DOCTYPE svg PUBLIC "-//W3C//DTD SVG 1.1//EN" "http://www.w3.org/Graphics/SVG/1.1/DTD/svg11.dtd">
<svg version="1.1" id="Layer_1" xmlns="http://www.w3.org/2000/svg" xmlns:xlink="http://www.w3.org/1999/xlink" x="0px" y="0px"
	 width="64px" height="64px" viewBox="0 0 64 64" enable-background="new 0 0 64 64" xml:space="preserve">
<path d="M32.7,7.3c-0.4-0.4-1-0.4-1.4,0l-4,4c-0.7,0.7-1.3,1.4-1.8,2.2c0,0,0,0,0,0c0,0,0,0.1-0.1,0.1c-3.7,5.2-4.3,11.8-1.9,17.5
	L5.3,49.3c-2.6,2.6-2.6,6.8,0,9.4c1.3,1.3,3,1.9,4.7,1.9c1.7,0,3.4-0.6,4.7-1.9l18.2-18.2c2.2,1,4.6,1.5,7.1,1.5
	c3.8,0,7.5-1.2,10.5-3.4c0,0,0,0,0,0c0,0,0,0,0,0c0.8-0.6,1.5-1.1,2.2-1.8l4-4c0.4-0.4,0.4-1,0-1.4L32.7,7.3z M13.3,57.3
	c-1.8,1.8-4.8,1.8-6.6,0c-1.8-1.8-1.8-4.8,0-6.6l3.3-3.3l6.6,6.6L13.3,57.3z M18,52.6L11.4,46l13-13c0.8,1.3,1.7,2.6,2.8,3.7
	c1.1,1.1,2.4,2.1,3.7,2.9L18,52.6z M28.7,35.3c-5.3-5.3-6.1-13.4-2.4-19.5l21.9,21.9C45.8,39.2,43,40,40,40
	C35.7,40,31.7,38.3,28.7,35.3z M51.3,35.3c-0.4,0.4-0.9,0.8-1.4,1.2L27.5,14.1c0.4-0.5,0.8-0.9,1.2-1.4L32,9.4L54.6,32L51.3,35.3z"
	/>
<path d="M54.7,10.7l4-4c0.4-0.4,0.4-1,0-1.4s-1-0.4-1.4,0l-4,4c-0.4,0.4-0.4,1,0,1.4c0.2,0.2,0.5,0.3,0.7,0.3S54.5,10.9,54.7,10.7z"
	/>
<path d="M43,6V2c0-0.6-0.4-1-1-1s-1,0.4-1,1v4c0,0.6,0.4,1,1,1S43,6.6,43,6z"/>
<path d="M62,21h-4c-0.6,0-1,0.4-1,1s0.4,1,1,1h4c0.6,0,1-0.4,1-1S62.6,21,62,21z"/>
</svg>
