<?xml version="1.0" encoding="utf-8"?>
<!-- Generator: Adobe Illustrator 19.1.0, SVG Export Plug-In . SVG Version: 6.00 Build 0)  -->
<!DOCTYPE svg PUBLIC "-//W3C//DTD SVG 1.1//EN" "http://www.w3.org/Graphics/SVG/1.1/DTD/svg11.dtd">
<svg version="1.1" id="Layer_1" xmlns="http://www.w3.org/2000/svg" xmlns:xlink="http://www.w3.org/1999/xlink" x="0px" y="0px"
	 width="64px" height="64px" viewBox="0 0 64 64" enable-background="new 0 0 64 64" xml:space="preserve">
<path d="M30.1,44.9l-4.9,6.5c-0.2,0.3-0.3,0.7-0.1,1c0.2,0.3,0.5,0.6,0.9,0.6h5v9c0,0.6,0.4,1,1,1s1-0.4,1-1v-9h5
	c0.4,0,0.7-0.2,0.9-0.6c0.2-0.3,0.1-0.7-0.1-1l-4.9-6.5C43.5,43.9,51,35.8,51,26v-6C51,9.5,42.5,1,32,1S13,9.5,13,20v6
	C13,35.8,20.5,43.9,30.1,44.9z M28,51l4-5.3l4,5.3H28z M15,20c0-9.4,7.6-17,17-17s17,7.6,17,17v6c0,9.4-7.6,17-17,17s-17-7.6-17-17
	V20z"/>
<path d="M22,21c0.6,0,1-0.4,1-1c0-5,4-9,9-9c0.6,0,1-0.4,1-1s-0.4-1-1-1c-6.1,0-11,4.9-11,11C21,20.6,21.4,21,22,21z"/>
</svg>
