<?xml version="1.0" encoding="utf-8"?>
<!-- Generator: Adobe Illustrator 19.1.0, SVG Export Plug-In . SVG Version: 6.00 Build 0)  -->
<!DOCTYPE svg PUBLIC "-//W3C//DTD SVG 1.1//EN" "http://www.w3.org/Graphics/SVG/1.1/DTD/svg11.dtd">
<svg version="1.1" id="Layer_1" xmlns="http://www.w3.org/2000/svg" xmlns:xlink="http://www.w3.org/1999/xlink" x="0px" y="0px"
	 width="64px" height="64px" viewBox="0 0 64 64" enable-background="new 0 0 64 64" xml:space="preserve">
<path d="M36,1C21.1,1,9,13.1,9,28c0,5.5,1.7,10.7,4.6,15H6c-2.8,0-5,2.2-5,5s2.2,5,5,5h5c2.2,0,4,1.8,4,4s-1.8,4-4,4H2
	c-0.6,0-1,0.4-1,1s0.4,1,1,1h9c3.3,0,6-2.7,6-6s-2.7-6-6-6H6c-1.7,0-3-1.3-3-3s1.3-3,3-3h9c5,6.1,12.5,10,21,10
	c14.9,0,27-12.1,27-27S50.9,1,36,1z M60.6,23.3c-1.9-0.3-3.6-0.4-5.4-0.4c-3.1,0-6.2,0.4-9.2,1.1c-4.9-4.7-7.6-11.1-7.6-17.9
	c0-0.9,0.1-1.9,0.2-3C49.6,4.3,58.5,12.6,60.6,23.3z M21.5,48.3c5.2-14.1,18.7-23.4,33.7-23.4c1.8,0,3.7,0.2,5.7,0.5
	C61,26.2,61,27.1,61,28c0,2.2-0.3,4.3-0.8,6.3c-1.7-0.3-3.4-0.5-5-0.5c-11.5,0-21.9,7.5-25.5,18.3C26.7,51.4,23.9,50.1,21.5,48.3z
	 M36.6,3c-0.1,1.1-0.2,2.1-0.2,3.1c0,6.9,2.7,13.6,7.4,18.5c-3,0.9-5.8,2.3-8.5,3.9c-5.1-6.3-7.9-14.3-7.9-22.4c0-0.5,0-1.1,0.1-1.6
	C30.2,3.5,33,3,36,3C36.2,3,36.4,3,36.6,3z M25.4,5.3c0,0.3,0,0.5,0,0.8c0,3.8,0.6,7.6,1.7,11.3c-4.2,4.6-9.8,7.5-16,8.1
	C12,16.5,17.6,9,25.4,5.3z M11,28c0-0.2,0-0.3,0-0.5c6.5-0.6,12.4-3.4,16.9-8c1.4,3.6,3.3,7,5.7,10.1c-6.1,4.2-11,10.2-13.8,17.4
	C14.4,42.5,11,35.6,11,28z M36,53c-1.5,0-3-0.1-4.4-0.4c3.5-9.9,13-16.8,23.6-16.8c1.5,0,2.9,0.1,4.4,0.4C56.2,46,46.9,53,36,53z"/>
</svg>
