<?xml version="1.0" encoding="utf-8"?>
<!-- Generator: Adobe Illustrator 19.1.0, SVG Export Plug-In . SVG Version: 6.00 Build 0)  -->
<!DOCTYPE svg PUBLIC "-//W3C//DTD SVG 1.1//EN" "http://www.w3.org/Graphics/SVG/1.1/DTD/svg11.dtd">
<svg version="1.1" id="Layer_1" xmlns="http://www.w3.org/2000/svg" xmlns:xlink="http://www.w3.org/1999/xlink" x="0px" y="0px"
	 width="24px" height="24px" viewBox="0 0 24 24" enable-background="new 0 0 24 24" xml:space="preserve">
<path d="M12.2,0C8.9-0.1,5.9,1.2,3.6,3.4C1.3,5.7,0,8.8,0,12v8c0,0.3,0.1,0.6,0.4,0.8C0.6,20.9,0.8,21,1,21c0.1,0,0.2,0,0.2,0
	l10.4-2.5c1.1,1.3,2.6,2.2,4.3,2.4V23c0,0.6,0.4,1,1,1s1-0.4,1-1v-2.1c3.4-0.5,6-3.4,6-6.9v-1.6C24,5.7,18.7,0.1,12.2,0z M2,18.7V13
	h7c0.6,0,1,0.4,1,1c0,1,0.2,1.9,0.6,2.7L2,18.7z M22,14c0,2.4-1.7,4.4-4,4.9v-1.2c0.6-0.3,1-1,1-1.7c0-1.1-0.9-2-2-2s-2,0.9-2,2
	c0,0.7,0.4,1.4,1,1.7v1.2c-2.3-0.5-4-2.5-4-4.9c0-1.7-1.3-3-3-3H2C2.3,8.7,3.3,6.5,5,4.9C6.9,3,9.5,1.9,12.2,2
	C17.6,2.1,22,6.7,22,12.4V14z"/>
</svg>
