<?xml version="1.0" encoding="utf-8"?>
<!-- Generator: Adobe Illustrator 19.1.0, SVG Export Plug-In . SVG Version: 6.00 Build 0)  -->
<!DOCTYPE svg PUBLIC "-//W3C//DTD SVG 1.1//EN" "http://www.w3.org/Graphics/SVG/1.1/DTD/svg11.dtd">
<svg version="1.1" id="Layer_1" xmlns="http://www.w3.org/2000/svg" xmlns:xlink="http://www.w3.org/1999/xlink" x="0px" y="0px"
	 width="24px" height="24px" viewBox="0 0 24 24" enable-background="new 0 0 24 24" xml:space="preserve">
<path d="M23,18.1c-0.6,0-1,0.4-1,1c0,1.7-1.3,3-3,3c-1.1,0-2.1-0.6-2.6-1.6c-0.4-0.6-1.4-0.6-1.8,0c-0.5,1-1.5,1.6-2.6,1.6
	s-2.1-0.6-2.6-1.6c-0.4-0.6-1.4-0.6-1.8,0c-0.5,1-1.5,1.6-2.6,1.6c-1.7,0-3-1.3-3-3c0-0.6-0.4-1-1-1s-1,0.4-1,1c0,2.8,2.2,5,5,5
	c1.3,0,2.6-0.5,3.5-1.5c0.9,0.9,2.2,1.5,3.5,1.5s2.6-0.5,3.5-1.5c0.9,0.9,2.2,1.5,3.5,1.5c2.8,0,5-2.2,5-5
	C24,18.5,23.6,18.1,23,18.1z"/>
<path d="M4.1,19.4c0.2,0.5,0.8,0.7,1.3,0.4c0.5-0.2,0.7-0.8,0.4-1.3l-1.6-3.1l7.7-4.3l7.7,4.3l-1.6,3.1c-0.2,0.5,0,1.1,0.4,1.3
	C18.7,20,18.8,20,19,20c0.4,0,0.7-0.2,0.9-0.6l2-4c0.2-0.5,0.1-1.1-0.4-1.3L20,13.3V6c0-0.6-0.4-1-1-1h-4V1c0-0.6-0.4-1-1-1h-4
	C9.4,0,9,0.4,9,1v4H5C4.4,5,4,5.4,4,6v7.3l-1.5,0.8C2,14.4,1.9,15,2.1,15.4L4.1,19.4z M11,2h2v3h-2V2z M6,7h12v5.2l-5.5-3.1
	c-0.3-0.2-0.7-0.2-1,0L6,12.2V7z"/>
</svg>
