<?xml version="1.0" encoding="utf-8"?>
<!-- Generator: Adobe Illustrator 19.1.0, SVG Export Plug-In . SVG Version: 6.00 Build 0)  -->
<!DOCTYPE svg PUBLIC "-//W3C//DTD SVG 1.1//EN" "http://www.w3.org/Graphics/SVG/1.1/DTD/svg11.dtd">
<svg version="1.1" id="Layer_1" xmlns="http://www.w3.org/2000/svg" xmlns:xlink="http://www.w3.org/1999/xlink" x="0px" y="0px"
	 width="24px" height="24px" viewBox="0 0 24 24" enable-background="new 0 0 24 24" xml:space="preserve">
<path d="M1,10c-0.6,0-1,0.4-1,1v3c0,0.6,0.4,1,1,1s1-0.4,1-1v-3C2,10.4,1.6,10,1,10z"/>
<path d="M23,10c-0.6,0-1,0.4-1,1v3c0,0.6,0.4,1,1,1s1-0.4,1-1v-3C24,10.4,23.6,10,23,10z"/>
<path d="M18,5h-2.4l1-2H18c0.6,0,1-0.4,1-1s-0.4-1-1-1H6C5.4,1,5,1.4,5,2s0.4,1,1,1h1.4l1,2H6C4.3,5,3,6.3,3,8v14c0,0.6,0.4,1,1,1
	h16c0.6,0,1-0.4,1-1V8C21,6.3,19.7,5,18,5z M9.6,3h4.8l-1,2h-2.8L9.6,3z M19,21H5V8c0-0.6,0.4-1,1-1h12c0.6,0,1,0.4,1,1V21z"/>
<path d="M9,18H7c-0.6,0-1,0.4-1,1s0.4,1,1,1h2c0.6,0,1-0.4,1-1S9.6,18,9,18z"/>
<path d="M17,18h-2c-0.6,0-1,0.4-1,1s0.4,1,1,1h2c0.6,0,1-0.4,1-1S17.6,18,17,18z"/>
<path d="M17,8H7C6.4,8,6,8.4,6,9v7c0,0.6,0.4,1,1,1h10c0.6,0,1-0.4,1-1V9C18,8.4,17.6,8,17,8z M16,15H8v-5h8V15z"/>
</svg>
