<?xml version="1.0" encoding="utf-8"?>
<!-- Generator: Adobe Illustrator 19.1.0, SVG Export Plug-In . SVG Version: 6.00 Build 0)  -->
<!DOCTYPE svg PUBLIC "-//W3C//DTD SVG 1.1//EN" "http://www.w3.org/Graphics/SVG/1.1/DTD/svg11.dtd">
<svg version="1.1" id="Layer_1" xmlns="http://www.w3.org/2000/svg" xmlns:xlink="http://www.w3.org/1999/xlink" x="0px" y="0px"
	 width="24px" height="24px" viewBox="0 0 24 24" enable-background="new 0 0 24 24" xml:space="preserve">
<path d="M19.1,10.5L20.7,9c0.8-0.8,1.2-1.8,1.2-2.8s-0.4-2.1-1.2-2.8c-1.5-1.5-4.1-1.5-5.7,0l-1.5,1.5L7,0.6C5.8-0.2,4.3-0.1,3.2,1
	L0.9,3.3C0.7,3.5,0.6,3.8,0.6,4.1c0,0.3,0.2,0.6,0.4,0.7l7.5,5l-1.3,1.3c-0.1,0.1-0.1,0.1-0.1,0.2l-1.8,2.8l-3.1-0.2
	c-0.8-0.1-1.6,0.4-2,1.2c-0.4,0.8-0.2,1.7,0.4,2.2l1.6,1.6l-0.2,0.3C1.6,20,1.7,21,2.4,21.6c0.4,0.4,0.9,0.6,1.4,0.6
	c0.4,0,0.7-0.1,1.1-0.3l0.3-0.2l1.6,1.6c0.4,0.4,0.9,0.6,1.4,0.6c0.3,0,0.6-0.1,0.8-0.2c0.8-0.4,1.2-1.1,1.2-2l-0.2-3.1l2.8-1.8
	c0.1,0,0.1-0.1,0.2-0.1l1.3-1.3l5,7.5c0.2,0.2,0.4,0.4,0.7,0.4c0,0,0.1,0,0.1,0c0.3,0,0.5-0.1,0.7-0.3l2.4-2.4c1-1,1.2-2.6,0.4-3.8
	L19.1,10.5z M3.1,3.9l1.5-1.5C5,2,5.5,2,5.9,2.2L12,6.3L9.9,8.4L3.1,3.9z M2.1,15.8l2,0.2l-0.7,1.1L2.1,15.8z M8.2,21.9l-1.3-1.3
	L8,19.9L8.2,21.9z M11.6,15.3l-3.2,2c0,0,0,0,0,0l-4.6,2.9l5-7.8l7.7-7.7c0.8-0.8,2.1-0.8,2.8,0c0.4,0.4,0.6,0.9,0.6,1.4
	s-0.2,1-0.6,1.4L11.6,15.3z M21.6,19.3l-1.5,1.5l-4.5-6.8l2.1-2.1l4.1,6.1C22,18.5,22,19,21.6,19.3z"/>
</svg>
