<?xml version="1.0" encoding="utf-8"?>
<!-- Generator: Adobe Illustrator 19.1.0, SVG Export Plug-In . SVG Version: 6.00 Build 0)  -->
<!DOCTYPE svg PUBLIC "-//W3C//DTD SVG 1.1//EN" "http://www.w3.org/Graphics/SVG/1.1/DTD/svg11.dtd">
<svg version="1.1" id="Layer_1" xmlns="http://www.w3.org/2000/svg" xmlns:xlink="http://www.w3.org/1999/xlink" x="0px" y="0px"
	 width="24px" height="24px" viewBox="0 0 24 24" enable-background="new 0 0 24 24" xml:space="preserve">
<path d="M6,12c-1.7,0-3,1.3-3,3s1.3,3,3,3s3-1.3,3-3S7.7,12,6,12z M6,16c-0.6,0-1-0.4-1-1s0.4-1,1-1s1,0.4,1,1S6.6,16,6,16z"/>
<path d="M18,12c-1.7,0-3,1.3-3,3s1.3,3,3,3s3-1.3,3-3S19.7,12,18,12z M18,16c-0.6,0-1-0.4-1-1s0.4-1,1-1s1,0.4,1,1S18.6,16,18,16z"
	/>
<path d="M23,9H4C2.9,9,2,8.1,2,7c0-0.6-0.4-1-1-1S0,6.4,0,7c0,2.2,1.8,4,4,4h19c0.6,0,1-0.4,1-1S23.6,9,23,9z"/>
</svg>
