<?xml version="1.0" encoding="utf-8"?>
<!-- Generator: Adobe Illustrator 19.1.0, SVG Export Plug-In . SVG Version: 6.00 Build 0)  -->
<!DOCTYPE svg PUBLIC "-//W3C//DTD SVG 1.1//EN" "http://www.w3.org/Graphics/SVG/1.1/DTD/svg11.dtd">
<svg version="1.1" id="Layer_1" xmlns="http://www.w3.org/2000/svg" xmlns:xlink="http://www.w3.org/1999/xlink" x="0px" y="0px"
	 width="24px" height="24px" viewBox="0 0 24 24" enable-background="new 0 0 24 24" xml:space="preserve">
<path d="M2.1,21.3C2.2,21.7,2.6,22,3,22h15c0.3,0,0.5-0.1,0.7-0.3l3-3c0.3-0.3,0.4-0.7,0.2-1.1C21.8,17.2,21.4,17,21,17H2
	c-0.3,0-0.6,0.2-0.8,0.4C1,17.7,0.9,18,1.1,18.3L2.1,21.3z M18.6,19l-1,1H3.7l-0.3-1H18.6z"/>
<path d="M3,16h9c0.6,0,1-0.4,1-1V3c0-0.4-0.3-0.8-0.7-0.9c-0.4-0.1-0.9,0-1.1,0.3l-9,12c-0.2,0.3-0.3,0.7-0.1,1S2.6,16,3,16z M11,6
	v8H5L11,6z"/>
</svg>
