<?xml version="1.0" encoding="utf-8"?>
<!-- Generator: Adobe Illustrator 19.1.0, SVG Export Plug-In . SVG Version: 6.00 Build 0)  -->
<!DOCTYPE svg PUBLIC "-//W3C//DTD SVG 1.1//EN" "http://www.w3.org/Graphics/SVG/1.1/DTD/svg11.dtd">
<svg version="1.1" id="Layer_1" xmlns="http://www.w3.org/2000/svg" xmlns:xlink="http://www.w3.org/1999/xlink" x="0px" y="0px"
	 width="24px" height="24px" viewBox="0 0 24 24" enable-background="new 0 0 24 24" xml:space="preserve">
<path d="M3.1,17.3C3.2,17.7,3.6,18,4,18c0.1,0,0.2,0,0.3-0.1c0.5-0.2,0.8-0.7,0.6-1.3L3.4,12h17l-2.3,4.6c-0.2,0.5,0,1.1,0.4,1.3
	c0.5,0.2,1.1,0,1.3-0.4l3-6c0.2-0.3,0.1-0.7,0-1C22.7,10.2,22.3,10,22,10h-3.4l-1.7-3.4C16.7,6.2,16.4,6,16,6h-5V2c0-0.6-0.4-1-1-1
	H6C5.4,1,5,1.4,5,2v4H4C3.4,6,3,6.4,3,7v3H2c-0.3,0-0.6,0.2-0.8,0.4C1,10.7,0.9,11,1.1,11.3L3.1,17.3z M7,3h2v3H7V3z M5,8h10.4l1,2
	H5V8z"/>
<path d="M23,17c-0.6,0-1,0.4-1,1c0,1.7-1.3,3-3,3c-1.1,0-2.1-0.6-2.6-1.6c-0.4-0.6-1.4-0.6-1.8,0c-0.5,1-1.5,1.6-2.6,1.6
	s-2.1-0.6-2.6-1.6c-0.4-0.6-1.4-0.6-1.8,0C7.1,20.4,6.1,21,5,21c-1.7,0-3-1.3-3-3c0-0.6-0.4-1-1-1s-1,0.4-1,1c0,2.8,2.2,5,5,5
	c1.3,0,2.6-0.5,3.5-1.5C9.4,22.5,10.7,23,12,23s2.6-0.5,3.5-1.5c0.9,0.9,2.2,1.5,3.5,1.5c2.8,0,5-2.2,5-5C24,17.4,23.6,17,23,17z"/>
</svg>
