<?xml version="1.0" encoding="utf-8"?>
<!-- Generator: Adobe Illustrator 19.1.0, SVG Export Plug-In . SVG Version: 6.00 Build 0)  -->
<!DOCTYPE svg PUBLIC "-//W3C//DTD SVG 1.1//EN" "http://www.w3.org/Graphics/SVG/1.1/DTD/svg11.dtd">
<svg version="1.1" id="Layer_1" xmlns="http://www.w3.org/2000/svg" xmlns:xlink="http://www.w3.org/1999/xlink" x="0px" y="0px"
	 width="24px" height="24px" viewBox="0 0 24 24" enable-background="new 0 0 24 24" xml:space="preserve">
<path d="M14,19h-4c-0.6,0-1,0.4-1,1v3c0,0.6,0.4,1,1,1h4c0.6,0,1-0.4,1-1v-3C15,19.4,14.6,19,14,19z M13,22h-2v-1h2V22z"/>
<path d="M12.1,0C12.1,0,12.1,0,12.1,0C12,0,12,0,12.1,0C12,0,12,0,12,0c0,0,0,0,0,0C7.6,0,4,3.6,4,8c0,3,3.7,8.9,4.2,9.5
	C8.3,17.8,8.7,18,9,18h1c0,0,0,0,0,0c0,0,0,0,0,0h5c0.3,0,0.7-0.2,0.8-0.5C16.3,16.9,20,11,20,8C20,3.6,16.4,0,12.1,0z M13.3,16H13
	V3C15.8,6.4,13.9,13.7,13.3,16z M10.7,16c-1-3.3-2.2-9.8,0.3-12.9V16H10.7z M8.6,3.1c-1.5,3-1.2,7.2-0.6,10.3C7,11.4,6,9.2,6,8
	C6,5.9,7,4.1,8.6,3.1z M16,13.3c0.6-3.1,0.9-7.3-0.6-10.3C17,4.1,18,5.9,18,8C18,9.2,17,11.4,16,13.3z"/>
</svg>
