<?xml version="1.0" encoding="utf-8"?>
<!-- Generator: Adobe Illustrator 19.1.0, SVG Export Plug-In . SVG Version: 6.00 Build 0)  -->
<!DOCTYPE svg PUBLIC "-//W3C//DTD SVG 1.1//EN" "http://www.w3.org/Graphics/SVG/1.1/DTD/svg11.dtd">
<svg version="1.1" id="Layer_1" xmlns="http://www.w3.org/2000/svg" xmlns:xlink="http://www.w3.org/1999/xlink" x="0px" y="0px"
	 width="24px" height="24px" viewBox="0 0 24 24" enable-background="new 0 0 24 24" xml:space="preserve">
<path d="M22.8,16.1L20.3,8H21c0.6,0,1-0.4,1-1V3c0-0.6-0.4-1-1-1h-2c-0.8,0-1.5,0.3-2,0.8V2c0-0.6-0.4-1-1-1h-3c-0.6,0-1,0.4-1,1
	s0.4,1,1,1h2v4v6c0,0.6-0.4,1-1,1h-2c-0.6,0-1-0.4-1-1v-3V8c0-1.7-1.3-3-3-3H3C1.3,5,0,6.3,0,8v2v7c0,1.3,0.9,2.5,2.1,2.8
	C2.5,21.6,4.1,23,6,23c1.9,0,3.4-1.3,3.9-3h6.3c0.4,1.7,2,3,3.9,3c2.2,0,4-1.8,4-4C24,17.9,23.5,16.9,22.8,16.1z M19,4h1v2h-1
	c-0.6,0-1-0.4-1-1S18.4,4,19,4z M12,16h2c1.7,0,3-1.3,3-3V8h1.3l2.1,7c-0.1,0-0.2,0-0.4,0c-1.9,0-3.4,1.3-3.9,3H9.9
	c-0.4-1.7-2-3-3.9-3c-1.7,0-3.2,1.1-3.7,2.6C2.1,17.5,2,17.2,2,17v-6h7v2C9,14.7,10.3,16,12,16z M2,8c0-0.6,0.4-1,1-1h5
	c0.6,0,1,0.4,1,1v1H2V8z M6,21c-1.1,0-2-0.9-2-2s0.9-2,2-2s2,0.9,2,2S7.1,21,6,21z M20,21c-1.1,0-2-0.9-2-2s0.9-2,2-2s2,0.9,2,2
	S21.1,21,20,21z"/>
</svg>
