<?xml version="1.0" encoding="utf-8"?>
<!-- Generator: Adobe Illustrator 19.1.0, SVG Export Plug-In . SVG Version: 6.00 Build 0)  -->
<!DOCTYPE svg PUBLIC "-//W3C//DTD SVG 1.1//EN" "http://www.w3.org/Graphics/SVG/1.1/DTD/svg11.dtd">
<svg version="1.1" id="Layer_1" xmlns="http://www.w3.org/2000/svg" xmlns:xlink="http://www.w3.org/1999/xlink" x="0px" y="0px"
	 width="24px" height="24px" viewBox="0 0 24 24" enable-background="new 0 0 24 24" xml:space="preserve">
<path d="M22,20c0.6,0,1-0.4,1-1v-6c0-0.3-0.1-0.5-0.3-0.7l-1.8-1.8L20,4.8C19.9,4.4,19.5,4,19,4h-2V1c0-0.6-0.4-1-1-1H8
	C7.4,0,7,0.4,7,1v3H5C4.5,4,4.1,4.4,4,4.8l-0.9,5.7l-1.8,1.8C1.1,12.5,1,12.7,1,13v6c0,0.6,0.4,1,1,1v3c0,0.6,0.4,1,1,1h4
	c0.6,0,1-0.4,1-1v-3h8v3c0,0.6,0.4,1,1,1h4c0.6,0,1-0.4,1-1V20z M9,2h6v2H9V2z M18.2,6l0.7,4H5.2l0.7-4H18.2z M3,13.4L4.4,12h15.2
	l1.4,1.4V18H3V13.4z M6,22H4v-2h2V22z M18,22v-2h2v2H18z"/>
<path d="M9,15c0-0.6-0.4-1-1-1H6c-0.6,0-1,0.4-1,1s0.4,1,1,1h2C8.6,16,9,15.6,9,15z"/>
<path d="M16,16h2c0.6,0,1-0.4,1-1s-0.4-1-1-1h-2c-0.6,0-1,0.4-1,1S15.4,16,16,16z"/>
</svg>
