<?xml version="1.0" encoding="utf-8"?>
<!-- Generator: Adobe Illustrator 19.2.0, SVG Export Plug-In . SVG Version: 6.00 Build 0)  -->
<!DOCTYPE svg PUBLIC "-//W3C//DTD SVG 1.1//EN" "http://www.w3.org/Graphics/SVG/1.1/DTD/svg11.dtd">
<svg version="1.1" id="Layer_1" xmlns="http://www.w3.org/2000/svg" xmlns:xlink="http://www.w3.org/1999/xlink" x="0px" y="0px"
	 width="48px" height="48px" viewBox="0 0 48 48" enable-background="new 0 0 48 48" xml:space="preserve">
<path fill="#E86C60" d="M25,14.05048C29.72424,14.51971,33.48029,18.2757,33.94952,23h13.02515
	C46.46313,11.1123,36.88824,1.53687,25,1.02533V14.05048z"/>
<path fill="#8680D8" d="M16.03656,30.03064C14.76398,28.35291,14,26.26819,14,24c0-5.1853,3.94678-9.44763,9-9.94952V1.02533
	C10.77985,1.55115,1,11.6532,1,24c0,5.67676,2.07153,10.87604,5.4928,14.89203L16.03656,30.03064z"/>
<path fill="#EFD358" d="M33.94952,25C33.44763,30.05322,29.18524,34,24,34c-2.53406,0-4.841-0.9502-6.60327-2.50385
	l-9.54492,8.86243C12.00781,44.46161,17.71216,47,24,47c12.34723,0,22.44885-9.7804,22.97467-22H33.94952z"/>
</svg>
