<?xml version="1.0" encoding="utf-8"?>
<!-- Generator: Adobe Illustrator 19.2.0, SVG Export Plug-In . SVG Version: 6.00 Build 0)  -->
<!DOCTYPE svg PUBLIC "-//W3C//DTD SVG 1.1//EN" "http://www.w3.org/Graphics/SVG/1.1/DTD/svg11.dtd">
<svg version="1.1" id="Layer_1" xmlns="http://www.w3.org/2000/svg" xmlns:xlink="http://www.w3.org/1999/xlink" x="0px" y="0px"
	 width="48px" height="48px" viewBox="0 0 48 48" enable-background="new 0 0 48 48" xml:space="preserve">
<path fill="#B3B3B3" d="M8.00098,13c-0.34131,0-0.67432-0.1748-0.86133-0.49023c-0.28125-0.47461-0.12451-1.08789,0.3501-1.37012
	l12.16162-7.21191c0.4751-0.28125,1.08838-0.125,1.37061,0.35059c0.28125,0.47461,0.12451,1.08789-0.3501,1.37012L8.51025,12.86035
	C8.3501,12.95508,8.17432,13,8.00098,13z"/>
<path fill="#B3B3B3" d="M35.99902,13c-0.17334,0-0.34912-0.04492-0.50928-0.13965L23.32812,5.64844
	c-0.47461-0.28223-0.63135-0.89551-0.3501-1.37012c0.28223-0.47559,0.896-0.63184,1.37061-0.35059l12.16162,7.21191
	c0.47461,0.28223,0.63135,0.89551,0.3501,1.37012C36.67334,12.8252,36.34033,13,35.99902,13z"/>
<path fill="#A67C52" d="M42,41H2c-0.55225,0-1-0.44727-1-1V12c0-0.55273,0.44775-1,1-1h40c0.55225,0,1,0.44727,1,1v28
	C43,40.55273,42.55225,41,42,41z"/>
<circle fill="#A67C52" cx="22" cy="4" r="3"/>
<rect x="4" y="14" fill="#E6E6E6" width="36" height="24"/>
<path fill="#B3B3B3" d="M26,23H10c-0.55225,0-1-0.44727-1-1s0.44775-1,1-1h16c0.55225,0,1,0.44727,1,1S26.55225,23,26,23z"/>
<path fill="#B3B3B3" d="M22,31H10c-0.55225,0-1-0.44727-1-1s0.44775-1,1-1h12c0.55225,0,1,0.44727,1,1S22.55225,31,22,31z"/>
<polygon fill="#EFD358" points="44,30.2501 44,47 38,44 32,47 32,30.2501 "/>
<path fill="#E86C60" d="M38,16c-4.96289,0-9,4.0376-9,9s4.03711,9,9,9s9-4.0376,9-9S42.96289,16,38,16z"/>
<circle fill="#C94949" cx="38" cy="25" r="4"/>
</svg>
