<?xml version="1.0" encoding="utf-8"?>
<!-- Generator: Adobe Illustrator 19.2.0, SVG Export Plug-In . SVG Version: 6.00 Build 0)  -->
<!DOCTYPE svg PUBLIC "-//W3C//DTD SVG 1.1//EN" "http://www.w3.org/Graphics/SVG/1.1/DTD/svg11.dtd">
<svg version="1.1" id="Layer_1" xmlns="http://www.w3.org/2000/svg" xmlns:xlink="http://www.w3.org/1999/xlink" x="0px" y="0px"
	 width="48px" height="48px" viewBox="0 0 48 48" enable-background="new 0 0 48 48" xml:space="preserve">
<path fill="#B3B3B3" d="M14,40H8c-0.55225,0-1,0.44775-1,1v5c0,0.55225,0.44775,1,1,1h6c0.55225,0,1-0.44775,1-1v-5
	C15,40.44775,14.55225,40,14,40z"/>
<path fill="#B3B3B3" d="M40,40h-6c-0.55225,0-1,0.44775-1,1v5c0,0.55225,0.44775,1,1,1h6c0.55225,0,1-0.44775,1-1v-5
	C41,40.44775,40.55225,40,40,40z"/>
<path fill="#E6E6E6" d="M45,43H3c-1.10457,0-2-0.89543-2-2V3c0-1.10457,0.89543-2,2-2h42c1.10457,0,2,0.89543,2,2v38
	C47,42.10457,46.10457,43,45,43z"/>
<path fill="#B3B3B3" d="M43,40H7c-0.55225,0-1-0.44775-1-1V5c0-0.55225,0.44775-1,1-1h36c0.55225,0,1,0.44775,1,1v34
	C44,39.55225,43.55225,40,43,40z M8,38h34V6H8V38z"/>
<path fill="#7A7A7A" d="M26,11c-6.06543,0-11,4.93457-11,11s4.93457,11,11,11s11-4.93457,11-11S32.06543,11,26,11z
	 M30.16699,24.75293C30.69098,23.9624,31,23.01733,31,22c0-1.01691-0.3089-1.96155-0.83252-2.75189l2.85828-2.85791
	C34.258,17.9303,35,19.87891,35,22c0,2.12158-0.74231,4.07062-1.97504,5.6109L30.16699,24.75293z M23,22c0-1.6543,1.3457-3,3-3
	s3,1.3457,3,3s-1.3457,3-3,3S23,23.6543,23,22z M31.61194,14.97589l-2.85803,2.85767C27.9632,17.30914,27.01776,17,26,17
	c-1.01733,0-1.9624,0.30902-2.75293,0.83301l-2.85797-2.85797C21.92938,13.74231,23.87842,13,26,13
	C28.12207,13,30.07153,13.74268,31.61194,14.97589z M18.97504,16.3891l2.85797,2.85797C21.30902,20.0376,21,20.98267,21,22
	c0,1.01776,0.30914,1.9632,0.83356,2.75391l-2.85767,2.85803C17.74268,26.07153,17,24.12207,17,22
	C17,19.87842,17.74231,17.92938,18.97504,16.3891z M20.3902,29.02576l2.85791-2.85828C24.03845,26.6911,24.98309,27,26,27
	c1.01733,0,1.9624-0.30902,2.75293-0.83301l2.85797,2.85797C30.07062,30.25769,28.12158,31,26,31
	C23.87891,31,21.9303,30.258,20.3902,29.02576z"/>
<path fill="#7A7A7A" d="M9,17H5c-0.55228,0-1-0.44772-1-1v-5c0-0.55229,0.44772-1,1-1h4c0.55229,0,1,0.44771,1,1v5
	C10,16.55228,9.55229,17,9,17z"/>
<path fill="#7A7A7A" d="M9,34H5c-0.55228,0-1-0.44772-1-1v-5c0-0.55228,0.44772-1,1-1h4c0.55229,0,1,0.44772,1,1v5
	C10,33.55228,9.55229,34,9,34z"/>
</svg>
