<?xml version="1.0" encoding="utf-8"?>
<!-- Generator: Adobe Illustrator 19.2.0, SVG Export Plug-In . SVG Version: 6.00 Build 0)  -->
<!DOCTYPE svg PUBLIC "-//W3C//DTD SVG 1.1//EN" "http://www.w3.org/Graphics/SVG/1.1/DTD/svg11.dtd">
<svg version="1.1" id="Layer_1" xmlns="http://www.w3.org/2000/svg" xmlns:xlink="http://www.w3.org/1999/xlink" x="0px" y="0px"
	 width="48px" height="48px" viewBox="0 0 48 48" enable-background="new 0 0 48 48" xml:space="preserve">
<path fill="#444444" d="M46.45801,15.11035c-0.33398-0.17188-0.73535-0.14258-1.03906,0.07617L33,24.05664V16
	c0-0.36328-0.19727-0.69824-0.51562-0.875c-0.31641-0.1748-0.70605-0.16699-1.01465,0.02734L16.33398,24.6123l-5.47656-9.12695
	C10.67676,15.18457,10.35156,15,10,15H2c-0.55273,0-1,0.44727-1,1v30c0,0.55273,0.44727,1,1,1h44c0.55273,0,1-0.44727,1-1V16
	C47,15.625,46.79102,15.28223,46.45801,15.11035z"/>
<path fill="#BADEFC" d="M40,33h-6c-0.55273,0-1,0.44727-1,1v6c0,0.55273,0.44727,1,1,1h6c0.55273,0,1-0.44727,1-1v-6
	C41,33.44727,40.55273,33,40,33z"/>
<path fill="#BADEFC" d="M28,33h-6c-0.55273,0-1,0.44727-1,1v6c0,0.55273,0.44727,1,1,1h6c0.55273,0,1-0.44727,1-1v-6
	C29,33.44727,28.55273,33,28,33z"/>
<path fill="#B3B3B3" d="M22,2.95801c-1.74414,0-3.41895,0.66602-4.69727,1.8291C15.62891,2.4209,12.94043,1,10,1
	c-4.96289,0-9,4.03711-9,9c0,0.55273,0.44727,1,1,1h25.99609c0.52637,0,0.95703-0.40625,0.99707-0.92188
	C28.99707,10.03809,29,9.99219,29,9.95801C29,6.09863,25.85938,2.95801,22,2.95801z"/>
</svg>
