<?xml version="1.0" encoding="utf-8"?>
<!-- Generator: Adobe Illustrator 19.2.0, SVG Export Plug-In . SVG Version: 6.00 Build 0)  -->
<!DOCTYPE svg PUBLIC "-//W3C//DTD SVG 1.1//EN" "http://www.w3.org/Graphics/SVG/1.1/DTD/svg11.dtd">
<svg version="1.1" id="Layer_1" xmlns="http://www.w3.org/2000/svg" xmlns:xlink="http://www.w3.org/1999/xlink" x="0px" y="0px"
	 width="48px" height="48px" viewBox="0 0 48 48" enable-background="new 0 0 48 48" xml:space="preserve">
<circle fill="#E6E6E6" cx="20" cy="20" r="16"/>
<path fill="#E86C60" d="M20,39C9.52344,39,1,30.47656,1,20S9.52344,1,20,1s19,8.52344,19,19S30.47656,39,20,39z M20,5
	C11.729,5,5,11.72852,5,20s6.729,15,15,15s15-6.72852,15-15S28.271,5,20,5z"/>
<path fill="#E86C60" d="M20,32c-6.6167,0-12-5.38281-12-12S13.3833,8,20,8s12,5.38281,12,12S26.6167,32,20,32z M20,12
	c-4.41113,0-8,3.58887-8,8s3.58887,8,8,8s8-3.58887,8-8S24.41113,12,20,12z"/>
<circle fill="#E86C60" cx="20" cy="20" r="4"/>
<path fill="#335262" d="M46.70703,37.29297L37.41406,28l5.29297-5.29297c0.27441-0.27441,0.36523-0.68262,0.2334-1.04785
	c-0.13232-0.36426-0.46338-0.62012-0.8501-0.65527l-22-2c-0.29346-0.02832-0.58691,0.0791-0.79736,0.28906
	c-0.20996,0.20996-0.31592,0.50195-0.28906,0.79785l2,22c0.03516,0.38574,0.29102,0.71777,0.65576,0.84961
	c0.36426,0.13184,0.77295,0.04199,1.04736-0.2334L28,37.41406l9.29297,9.29297C37.48828,46.90234,37.74414,47,38,47
	s0.51172-0.09766,0.70703-0.29297l8-8C47.09766,38.31641,47.09766,37.68359,46.70703,37.29297z"/>
</svg>
