<?xml version="1.0" encoding="utf-8"?>
<!-- Generator: Adobe Illustrator 19.2.0, SVG Export Plug-In . SVG Version: 6.00 Build 0)  -->
<!DOCTYPE svg PUBLIC "-//W3C//DTD SVG 1.1//EN" "http://www.w3.org/Graphics/SVG/1.1/DTD/svg11.dtd">
<svg version="1.1" id="Layer_1" xmlns="http://www.w3.org/2000/svg" xmlns:xlink="http://www.w3.org/1999/xlink" x="0px" y="0px"
	 width="48px" height="48px" viewBox="0 0 48 48" enable-background="new 0 0 48 48" xml:space="preserve">
<path fill="#B3B3B3" d="M34,45h-9v-7c0-0.55225-0.44727-1-1-1s-1,0.44775-1,1v7h-9c-0.55273,0-1,0.44775-1,1s0.44727,1,1,1h20
	c0.55273,0,1-0.44775,1-1S34.55273,45,34,45z"/>
<path fill="#B3B3B3" d="M8,37H5V25h2c0.55273,0,1-0.44775,1-1s-0.44727-1-1-1H4c-0.55273,0-1,0.44775-1,1v14
	c0,0.55225,0.44727,1,1,1h4c0.55273,0,1-0.44775,1-1S8.55273,37,8,37z"/>
<path fill="#B3B3B3" d="M44,23h-3c-0.55273,0-1,0.44775-1,1s0.44727,1,1,1h2v12h-5c-0.55273,0-1,0.44775-1,1s0.44727,1,1,1h6
	c0.55273,0,1-0.44775,1-1V24C45,23.44775,44.55273,23,44,23z"/>
<path fill="#444444" d="M35,1H13c-1.10457,0-2,0.89543-2,2v28c0,0.55228,0.44771,1,1,1h24c0.55228,0,1-0.44772,1-1V3
	C37,1.89543,36.10457,1,35,1z"/>
<path fill="#636363" d="M36,30H12c-2.76142,0-5,2.23857-5,5v4h34v-4C41,32.23857,38.76143,30,36,30z"/>
</svg>
