<?xml version="1.0" encoding="utf-8"?>
<!-- Generator: Adobe Illustrator 19.2.0, SVG Export Plug-In . SVG Version: 6.00 Build 0)  -->
<!DOCTYPE svg PUBLIC "-//W3C//DTD SVG 1.1//EN" "http://www.w3.org/Graphics/SVG/1.1/DTD/svg11.dtd">
<svg version="1.1" id="Layer_1" xmlns="http://www.w3.org/2000/svg" xmlns:xlink="http://www.w3.org/1999/xlink" x="0px" y="0px"
	 width="48px" height="48px" viewBox="0 0 48 48" enable-background="new 0 0 48 48" xml:space="preserve">
<path fill="#444444" d="M40,8H8c-1.6543,0-3,1.34571-3,3v24c0,0.5522,0.4473,1,1,1h36c0.5527,0,1-0.4478,1-1V11
	C43,9.34571,41.6543,8,40,8z"/>
<path fill="#E6E6E6" d="M1,33v2c0,2.75681,2.2432,5,5,5h36c2.7568,0,5-2.24319,5-5v-2H1z"/>
<rect x="8" y="11" fill="#FFFFFF" width="32" height="19"/>
<path fill="#B3B3B3" d="M27,36h-6c-1.1045,0-2-0.8955-2-2v-1h10v1C29,35.1045,28.1045,36,27,36z"/>
<path fill="#E86C60" d="M24,13c-3.86597,0-7,3.13397-7,7c0,3.86597,3.13403,7,7,7c3.86603,0,7-3.13403,7-7h-7V13z"/>
<path fill="#EFD358" d="M24,13v7h7C31,16.13397,27.86603,13,24,13z"/>
</svg>
