<?xml version="1.0" encoding="utf-8"?>
<!-- Generator: Adobe Illustrator 19.2.0, SVG Export Plug-In . SVG Version: 6.00 Build 0)  -->
<!DOCTYPE svg PUBLIC "-//W3C//DTD SVG 1.1//EN" "http://www.w3.org/Graphics/SVG/1.1/DTD/svg11.dtd">
<svg version="1.1" id="Layer_1" xmlns="http://www.w3.org/2000/svg" xmlns:xlink="http://www.w3.org/1999/xlink" x="0px" y="0px"
	 width="48px" height="48px" viewBox="0 0 48 48" enable-background="new 0 0 48 48" xml:space="preserve">
<path fill="#E6E6E6" d="M37,1H5C3.89543,1,3,1.89543,3,3v36c0,1.10457,0.89543,2,2,2h32c1.10457,0,2-0.89543,2-2V3
	C39,1.89543,38.10457,1,37,1z"/>
<polygon fill="#EFD358" points="44,29.2501 44,46 38,43 32,46 32,29.2501 "/>
<path fill="#B3B3B3" d="M30,14H12c-0.55273,0-1-0.44775-1-1s0.44727-1,1-1h18c0.55273,0,1,0.44775,1,1S30.55273,14,30,14z"/>
<path fill="#B3B3B3" d="M24,22H12c-0.55273,0-1-0.44775-1-1s0.44727-1,1-1h12c0.55273,0,1,0.44775,1,1S24.55273,22,24,22z"/>
<path fill="#B3B3B3" d="M24,30H12c-0.55273,0-1-0.44775-1-1s0.44727-1,1-1h12c0.55273,0,1,0.44775,1,1S24.55273,30,24,30z"/>
<path fill="#E86C60" d="M38,15c-4.96289,0-9,4.0376-9,9s4.03711,9,9,9s9-4.0376,9-9S42.96289,15,38,15z"/>
<circle fill="#C94949" cx="38" cy="24" r="4"/>
</svg>
