<?xml version="1.0" encoding="utf-8"?>
<!-- Generator: Adobe Illustrator 19.2.0, SVG Export Plug-In . SVG Version: 6.00 Build 0)  -->
<!DOCTYPE svg PUBLIC "-//W3C//DTD SVG 1.1//EN" "http://www.w3.org/Graphics/SVG/1.1/DTD/svg11.dtd">
<svg version="1.1" id="Layer_1" xmlns="http://www.w3.org/2000/svg" xmlns:xlink="http://www.w3.org/1999/xlink" x="0px" y="0px"
	 width="48px" height="48px" viewBox="0 0 48 48" enable-background="new 0 0 48 48" xml:space="preserve">
<path fill="#444444" d="M46,23h-1.80524c-1.83203-0.95929-8.97919-12.81702-9.2168-15.22876l1.25836-2.08179
	c0.28613-0.47266,0.13477-1.08789-0.33789-1.37305c-0.47461-0.28613-1.08887-0.13379-1.37305,0.33789L33.396,6.52271
	C31.93105,7.78158,16.0514,7.76622,14.60431,6.52325l-1.1297-1.86896c-0.28516-0.47168-0.89844-0.62402-1.37305-0.33789
	c-0.47266,0.28516-0.62402,0.90039-0.33789,1.37305l1.25836,2.08179C12.78442,10.18298,5.63727,22.04071,3.80524,23H2
	c-0.55273,0-1,0.44727-1,1s0.44727,1,1,1h1.80524c1.83203,0.95929,8.97919,12.81702,9.2168,15.22876l-1.25836,2.08179
	c-0.28613,0.47266-0.13477,1.08789,0.33789,1.37305c0.47555,0.28648,1.08843,0.1335,1.37305-0.33789l1.12994-1.86926
	c1.48273-1.2712,17.43688-1.21769,18.78003-0.01807l1.14081,1.88733c0.28461,0.47139,0.8975,0.62437,1.37305,0.33789
	c0.47266-0.28516,0.62402-0.90039,0.33789-1.37305l-1.25836-2.08179C35.21558,37.81702,42.36273,25.95929,44.19476,25H46
	c0.55273,0,1-0.44727,1-1S46.55273,23,46,23z M41.41486,23h-5.18591c-1.18286-0.81079-5.02722-6.67535-5.45105-8.28033
	l2.8363-4.6922C34.9329,13.30482,38.83438,19.98268,41.41486,23z M29.51569,31.1922L25.77277,25h7.74646
	C32.16886,26.65198,30.4144,29.425,29.51569,31.1922z M14.48077,25h7.74646l-3.74292,6.19214
	C17.5805,29.41491,15.82539,26.64495,14.48077,25z M18.48431,16.80786L22.22723,23h-7.74646
	C15.83133,21.34768,17.58627,18.57375,18.48431,16.80786z M20.27319,15.90167c1.97552,0.20194,5.43827,0.20601,7.45361,0
	L24,22.06714L20.27319,15.90167z M24,25.93286l3.72681,6.16547c-1.97552-0.20194-5.43827-0.20601-7.45361,0L24,25.93286z
	 M25.77277,23l3.74292-6.1922c0.16333,0.32117,0.3504,0.67108,0.57611,1.06915c0.10596,0.18707,1.75922,3.08209,3.42743,5.12305
	H25.77277z M31.88977,9.01459l-2.78973,4.61523c-0.00818,0.00745-0.01886,0.01086-0.02679,0.01862
	c-1.32227,0.55078-8.82422,0.55078-10.14648,0c-0.00793-0.00775-0.01862-0.01123-0.02679-0.01868l-2.78973-4.61517
	C19.8377,9.6176,28.15934,9.6181,31.88977,9.01459z M14.3858,10.02747l2.8363,4.6922
	C16.79828,16.32465,12.95392,22.18921,11.77106,23H6.58514C9.16143,19.98758,13.06455,13.31117,14.3858,10.02747z M6.58514,25
	h5.18591c1.18286,0.81079,5.02722,6.67535,5.45105,8.28033l-2.8363,4.6922C13.0671,34.69518,9.16562,28.01732,6.58514,25z
	 M16.11029,38.98535l2.78967-4.61517c0.00818-0.00745,0.01886-0.01086,0.02679-0.01862c1.32227-0.55078,8.82422-0.55078,10.14648,0
	c0.00745,0.00726,0.01794,0.00964,0.02563,0.01666l2.79083,4.61713C28.16222,38.38245,19.8403,38.3819,16.11029,38.98535z
	 M33.6142,37.97253l-2.8363-4.6922c0.42383-1.60498,4.26819-7.46954,5.45105-8.28033h5.18591
	C38.83857,28.01242,34.93545,34.68884,33.6142,37.97253z"/>
</svg>
