<?xml version="1.0" encoding="utf-8"?>
<!-- Generator: Adobe Illustrator 19.2.0, SVG Export Plug-In . SVG Version: 6.00 Build 0)  -->
<!DOCTYPE svg PUBLIC "-//W3C//DTD SVG 1.1//EN" "http://www.w3.org/Graphics/SVG/1.1/DTD/svg11.dtd">
<svg version="1.1" id="Layer_1" xmlns="http://www.w3.org/2000/svg" xmlns:xlink="http://www.w3.org/1999/xlink" x="0px" y="0px"
	 width="48px" height="48px" viewBox="0 0 48 48" enable-background="new 0 0 48 48" xml:space="preserve">
<path fill="#3F8E3F" d="M43,20H5c-0.55228,0-1-0.44772-1-1V8c0-0.55228,0.44772-1,1-1h38c0.55228,0,1,0.44772,1,1v11
	C44,19.55228,43.55228,20,43,20z"/>
<path fill="#4DA34D" d="M46,41H2c-0.55225,0-1-0.44775-1-1V12c0-0.55225,0.44775-1,1-1h44c0.55225,0,1,0.44775,1,1v28
	C47,40.55225,46.55225,41,46,41z"/>
<path fill="#9EDB9E" d="M38,14H10c0,3.31372-2.68628,6-6,6v12c3.31372,0,6,2.68628,6,6h28c0-3.31372,2.68628-6,6-6V20
	C40.68628,20,38,17.31372,38,14z"/>
<circle fill="#4DA34D" cx="24" cy="26" r="7"/>
</svg>
