<?xml version="1.0" encoding="utf-8"?>
<!-- Generator: Adobe Illustrator 19.2.0, SVG Export Plug-In . SVG Version: 6.00 Build 0)  -->
<!DOCTYPE svg PUBLIC "-//W3C//DTD SVG 1.1//EN" "http://www.w3.org/Graphics/SVG/1.1/DTD/svg11.dtd">
<svg version="1.1" id="Layer_1" xmlns="http://www.w3.org/2000/svg" xmlns:xlink="http://www.w3.org/1999/xlink" x="0px" y="0px"
	 width="48px" height="48px" viewBox="0 0 48 48" enable-background="new 0 0 48 48" xml:space="preserve">
<path fill="#A67C52" d="M45.70703,26.29297l-11-11c-0.39062-0.39062-1.02344-0.39062-1.41406,0l-4,4
	c-0.39062,0.39062-0.39062,1.02344,0,1.41406l11,11C40.48828,31.90234,40.74414,32,41,32s0.51172-0.09766,0.70703-0.29297l4-4
	C46.09766,27.31641,46.09766,26.68359,45.70703,26.29297z"/>
<path fill="#C19F85" d="M40.70703,9.29297l-6-6c-0.39062-0.39062-1.02344-0.39062-1.41406,0l-16,16
	c-0.39062,0.39062-0.39062,1.02344,0,1.41406l6,6C23.48828,26.90234,23.74414,27,24,27s0.51172-0.09766,0.70703-0.29297l16-16
	C41.09766,10.31641,41.09766,9.68359,40.70703,9.29297z"/>
<path fill="#A67C52" d="M28,39H6c-0.55225,0-1,0.44727-1,1v6c0,0.55273,0.44775,1,1,1h22c0.55225,0,1-0.44727,1-1v-6
	C29,39.44727,28.55225,39,28,39z"/>
<path fill="#B3B3B3" d="M10,33H4c-0.55225,0-1-0.44727-1-1s0.44775-1,1-1h6c0.55225,0,1,0.44727,1,1S10.55225,33,10,33z"/>
<path fill="#B3B3B3" d="M12.92871,25.92871c-0.25586,0-0.51172-0.09766-0.70703-0.29297l-4.24219-4.24219
	c-0.39062-0.39062-0.39062-1.02344,0-1.41406s1.02344-0.39062,1.41406,0l4.24219,4.24219c0.39062,0.39062,0.39062,1.02344,0,1.41406
	C13.44043,25.83105,13.18457,25.92871,12.92871,25.92871z"/>
<path fill="#87613E" d="M32,47H2c-0.55225,0-1-0.44727-1-1s0.44775-1,1-1h30c0.55225,0,1,0.44727,1,1S32.55225,47,32,47z"/>
</svg>
