<?xml version="1.0" encoding="utf-8"?>
<!-- Generator: Adobe Illustrator 19.2.0, SVG Export Plug-In . SVG Version: 6.00 Build 0)  -->
<!DOCTYPE svg PUBLIC "-//W3C//DTD SVG 1.1//EN" "http://www.w3.org/Graphics/SVG/1.1/DTD/svg11.dtd">
<svg version="1.1" id="Layer_1" xmlns="http://www.w3.org/2000/svg" xmlns:xlink="http://www.w3.org/1999/xlink" x="0px" y="0px"
	 width="48px" height="48px" viewBox="0 0 48 48" enable-background="new 0 0 48 48" xml:space="preserve">
<path fill="#F2C7AA" d="M30,30c-0.29688,0-0.58203-0.13232-0.77441-0.3667l-9-11c-0.18652-0.22852-0.2627-0.52832-0.20801-0.81836
	c0.05469-0.29053,0.23438-0.5415,0.49219-0.68652L39.7998,6.27344c0.38867-0.22021,0.87988-0.15283,1.19727,0.16455
	c5.90723,5.90771,5.90723,15.52051,0,21.42822c-0.14453,0.14453-0.33008,0.24121-0.53125,0.27734l-10.29004,1.84082
	C30.11719,29.99512,30.05859,30,30,30z M40.29004,27.15918h0.00977H40.29004z"/>
<path fill="#C19F85" d="M41.56934,27.47363c-0.00391-0.00391-0.00781-0.00781-0.01172-0.01172L27.87793,13.46777l-3.07031-9.38184
	c-0.08496-0.25879-0.27148-0.47168-0.5166-0.58984C18.50195,0.7085,11.55176,1.88867,7.00293,6.43799
	c-5.15137,5.15137-5.91016,13.24854-1.80469,19.25342c0.03223,0.04785,0.06934,0.09326,0.11035,0.13477l15.86133,16.20654
	l2.8457,2.84521C24.73926,45.60156,25.70117,46,26.72461,46c1.02246,0,1.98438-0.39844,2.70801-1.12207
	c0.79102-0.7915,1.16309-1.84619,1.11523-2.88477c1.08203,0.04932,2.12207-0.35205,2.88672-1.11816
	c0.79685-0.79631,1.16938-1.8539,1.11816-2.88672c1.03906,0.05225,2.09277-0.32471,2.88475-1.11572
	c0.79053-0.79052,1.16869-1.8403,1.11818-2.89258c1.05469,0.04248,2.11719-0.34326,2.93945-1.16504
	C42.97266,31.33789,43.00586,28.9917,41.56934,27.47363z"/>
<path fill="#F2C7AA" d="M24.03558,35.16467h-0.00006c-1.10529-1.10535-2.8974-1.10535-4.00275,0
	c1.10535-1.10535,1.10535-2.89746,0-4.00281s-2.89746-1.10535-4.00281,0c1.10535-1.10535,1.10535-2.89746,0-4.00281
	s-2.89746-1.10535-4.00281,0c1.10535-1.10535,1.10535-2.89746,0-4.00281s-2.89746-1.10535-4.00281,0l-3.00214,3.00214
	c-1.10535,1.10535-1.10535,2.89746,0,4.00281s2.89746,1.10535,4.00281,0c-1.10535,1.10535-1.10535,2.89746,0,4.00281
	s2.89746,1.10535,4.00281,0c-1.10535,1.10535-1.10535,2.89746,0,4.00281s2.89746,1.10535,4.00281,0
	c-1.10535,1.10535-1.10535,2.89746,0,4.00275v0.00006c1.10535,1.10535,2.89746,1.10535,4.00281,0l3.00214-3.00214
	C25.14093,38.06213,25.14093,36.27002,24.03558,35.16467z"/>
<path fill="#F2C7AA" d="M40.99707,6.43799c-5.9082-5.90771-15.52051-5.90625-21.42871,0L9.56152,16.44482
	c-0.2002,0.19971-0.30566,0.47461-0.29199,0.75684c0.01465,0.28223,0.14746,0.54541,0.36621,0.72412
	c0.10645,0.0874,1.46875,1.16113,3.79688,1.16113c2.10449-0.00049,4.99805-0.87842,8.46289-4.15674
	c2.28223,1.10498,9.75977,4.17529,14.4043-0.46826c0.04004-0.03955,0.07617-0.08203,0.1084-0.12793l4.69727-6.60986
	C41.3877,7.32666,41.3418,6.78271,40.99707,6.43799z"/>
</svg>
