<?xml version="1.0" encoding="utf-8"?>
<!-- Generator: Adobe Illustrator 19.2.0, SVG Export Plug-In . SVG Version: 6.00 Build 0)  -->
<!DOCTYPE svg PUBLIC "-//W3C//DTD SVG 1.1//EN" "http://www.w3.org/Graphics/SVG/1.1/DTD/svg11.dtd">
<svg version="1.1" id="Layer_1" xmlns="http://www.w3.org/2000/svg" xmlns:xlink="http://www.w3.org/1999/xlink" x="0px" y="0px"
	 width="48px" height="48px" viewBox="0 0 48 48" enable-background="new 0 0 48 48" xml:space="preserve">
<path fill="#B29930" d="M8,25H2c-0.55225,0-1-0.44727-1-1s0.44775-1,1-1h6c0.55225,0,1,0.44727,1,1S8.55225,25,8,25z"/>
<path fill="#B29930" d="M12.68652,13.68652c-0.25586,0-0.51172-0.09766-0.70703-0.29297L7.73682,9.15039
	c-0.39062-0.39062-0.39062-1.02344,0-1.41406s1.02344-0.39062,1.41406,0l4.24268,4.24316c0.39062,0.39062,0.39062,1.02344,0,1.41406
	C13.19824,13.58887,12.94238,13.68652,12.68652,13.68652z"/>
<path fill="#B29930" d="M24,9c-0.55225,0-1-0.44727-1-1V2c0-0.55273,0.44775-1,1-1s1,0.44727,1,1v6C25,8.55273,24.55225,9,24,9z"/>
<path fill="#B29930" d="M35.31348,13.68652c-0.25586,0-0.51172-0.09766-0.70703-0.29297c-0.39062-0.39062-0.39062-1.02344,0-1.41406
	l4.24268-4.24316c0.39062-0.39062,1.02344-0.39062,1.41406,0s0.39062,1.02344,0,1.41406l-4.24268,4.24316
	C35.8252,13.58887,35.56934,13.68652,35.31348,13.68652z"/>
<path fill="#B29930" d="M46,25h-6c-0.55225,0-1-0.44727-1-1s0.44775-1,1-1h6c0.55225,0,1,0.44727,1,1S46.55225,25,46,25z"/>
<path fill="#EFD358" d="M30.94873,15.68359C30.8125,15.27539,30.43066,15,30,15H18c-0.43066,0-0.8125,0.27539-0.94873,0.68359
	L13.27911,27h21.44177L30.94873,15.68359z"/>
<path fill="#B29930" d="M34.81104,28.58496c0.18799-0.26074,0.23926-0.59668,0.1377-0.90137L34.72089,27H13.27911l-0.22784,0.68359
	c-0.10156,0.30469-0.05029,0.64062,0.1377,0.90137S13.67871,29,14,29h20C34.32129,29,34.62305,28.8457,34.81104,28.58496z"/>
<path fill="#EFD358" d="M40.94873,29.68359C40.8125,29.27539,40.43066,29,40,29H28c-0.43066,0-0.8125,0.27539-0.94873,0.68359
	L24,38.8374l-3.05127-9.15381C20.8125,29.27539,20.43066,29,20,29H8c-0.43066,0-0.8125,0.27539-0.94873,0.68359L3.27911,41h41.44177
	L40.94873,29.68359z"/>
<path fill="#B29930" d="M3.18896,42.58496C3.37695,42.8457,3.67871,43,4,43h20h20c0.32129,0,0.62305-0.1543,0.81104-0.41504
	s0.23926-0.59668,0.1377-0.90137L44.72089,41H3.27911l-0.22784,0.68359C2.94971,41.98828,3.00098,42.32422,3.18896,42.58496z"/>
</svg>
