<?xml version="1.0" encoding="utf-8"?>
<!-- Generator: Adobe Illustrator 19.2.0, SVG Export Plug-In . SVG Version: 6.00 Build 0)  -->
<!DOCTYPE svg PUBLIC "-//W3C//DTD SVG 1.1//EN" "http://www.w3.org/Graphics/SVG/1.1/DTD/svg11.dtd">
<svg version="1.1" id="Layer_1" xmlns="http://www.w3.org/2000/svg" xmlns:xlink="http://www.w3.org/1999/xlink" x="0px" y="0px"
	 width="48px" height="48px" viewBox="0 0 48 48" enable-background="new 0 0 48 48" xml:space="preserve">
<path fill="#335262" d="M40,23H25v-5c0-0.55273-0.44727-1-1-1s-1,0.44727-1,1v5H8c-0.55273,0-1,0.44727-1,1v6
	c0,0.55273,0.44727,1,1,1s1-0.44727,1-1v-5h14v5c0,0.55273,0.44727,1,1,1s1-0.44727,1-1v-5h14v5c0,0.55273,0.44727,1,1,1
	s1-0.44727,1-1v-6C41,23.44727,40.55273,23,40,23z"/>
<circle fill="#43A6DD" cx="8" cy="40" r="5"/>
<circle fill="#43A6DD" cx="24" cy="40" r="5"/>
<circle fill="#43A6DD" cx="40" cy="40" r="5"/>
<path fill="#E86C60" d="M28,3h-8c-0.55273,0-1,0.44727-1,1v8c0,0.55273,0.44727,1,1,1h8c0.55273,0,1-0.44727,1-1V4
	C29,3.44727,28.55273,3,28,3z"/>
</svg>
