<?xml version="1.0" encoding="utf-8"?>
<!-- Generator: Adobe Illustrator 19.2.0, SVG Export Plug-In . SVG Version: 6.00 Build 0)  -->
<!DOCTYPE svg PUBLIC "-//W3C//DTD SVG 1.1//EN" "http://www.w3.org/Graphics/SVG/1.1/DTD/svg11.dtd">
<svg version="1.1" id="Layer_1" xmlns="http://www.w3.org/2000/svg" xmlns:xlink="http://www.w3.org/1999/xlink" x="0px" y="0px"
	 width="48px" height="48px" viewBox="0 0 48 48" enable-background="new 0 0 48 48" xml:space="preserve">
<path fill-rule="evenodd" clip-rule="evenodd" fill="#C6A279" d="M16.99757,31C13.6852,31,11,28.32529,11,25V14
	c0-7.18,5.82-13,13-13s13,5.82,13,13v11c0,3.31555-2.68453,6-5.99757,6H16.99757z"/>
<rect x="18" y="23" fill-rule="evenodd" clip-rule="evenodd" fill="#EAC3A2" width="12" height="22"/>
<path fill-rule="evenodd" clip-rule="evenodd" fill="#444444" d="M40.683,38.342L30,33l-6,12l-5.982-12L7.317,38.342
	C5.284,39.358,4,41.436,4,43.708v2.2864C4,46.54978,4.44922,47,5.00877,47h37.98244C43.54836,47,44,46.55603,44,45.9944V43.708
	C44,41.436,42.716,39.358,40.683,38.342z"/>
<polygon fill-rule="evenodd" clip-rule="evenodd" fill="#FFFFFF" points="18.018,33 14,39 24,45 "/>
<polygon fill-rule="evenodd" clip-rule="evenodd" fill="#FFFFFF" points="29.991,33 34,39 24.009,45 "/>
<path fill-rule="evenodd" clip-rule="evenodd" fill="#F1D9C5" d="M13,17.8728v2c0,6.065,4.935,11,11,11s11-4.935,11-11v-2
	c0-1.65685-1.34315-3-3-3c-3.48293,0-6.50377-1.97844-8-4.8728c-1.49623,2.89436-4.51707,4.8728-8,4.8728
	C14.34315,14.8728,13,16.21595,13,17.8728z"/>
</svg>
