<?xml version="1.0" encoding="utf-8"?>
<!-- Generator: Adobe Illustrator 19.2.0, SVG Export Plug-In . SVG Version: 6.00 Build 0)  -->
<!DOCTYPE svg PUBLIC "-//W3C//DTD SVG 1.1//EN" "http://www.w3.org/Graphics/SVG/1.1/DTD/svg11.dtd">
<svg version="1.1" id="Layer_1" xmlns="http://www.w3.org/2000/svg" xmlns:xlink="http://www.w3.org/1999/xlink" x="0px" y="0px"
	 width="48px" height="48px" viewBox="0 0 48 48" enable-background="new 0 0 48 48" xml:space="preserve">
<path fill="#444444" d="M24,47c-0.55273,0-1-0.44727-1-1V36c0-0.55273,0.44727-1,1-1s1,0.44727,1,1v10
	C25,46.55273,24.55273,47,24,47z"/>
<path fill="#B3B3B3" d="M27,37h-6c-0.55228,0-1-0.44772-1-1v-6c0-0.55228,0.44772-1,1-1h6c0.55228,0,1,0.44772,1,1v6
	C28,36.55228,27.55228,37,27,37z"/>
<path fill="#E6E6E6" d="M24.00001,33h-0.00003C16.82029,33,11,27.17971,11,20.00001V11h26v9.00001
	C37,27.17971,31.17971,33,24.00001,33z"/>
<path fill="#B3B3B3" d="M16,1h-1c-0.55273,0-1,0.44727-1,1v10c0,0.55273,0.44727,1,1,1h1c0.55273,0,1-0.44727,1-1V2
	C17,1.44727,16.55273,1,16,1z"/>
<path fill="#B3B3B3" d="M33,1h-1c-0.55273,0-1,0.44727-1,1v10c0,0.55273,0.44727,1,1,1h1c0.55273,0,1-0.44727,1-1V2
	C34,1.44727,33.55273,1,33,1z"/>
<path fill="#444444" d="M40,8H8C7.44727,8,7,8.44727,7,9v3c0,0.55273,0.44727,1,1,1h32c0.55273,0,1-0.44727,1-1V9
	C41,8.44727,40.55273,8,40,8z"/>
</svg>
