<?xml version="1.0" encoding="utf-8"?>
<!-- Generator: Adobe Illustrator 19.2.0, SVG Export Plug-In . SVG Version: 6.00 Build 0)  -->
<!DOCTYPE svg PUBLIC "-//W3C//DTD SVG 1.1//EN" "http://www.w3.org/Graphics/SVG/1.1/DTD/svg11.dtd">
<svg version="1.1" id="Layer_1" xmlns="http://www.w3.org/2000/svg" xmlns:xlink="http://www.w3.org/1999/xlink" x="0px" y="0px"
	 width="48px" height="48px" viewBox="0 0 48 48" enable-background="new 0 0 48 48" xml:space="preserve">
<path fill="#72C472" d="M25,23h-8c-0.55225,0-1,0.44775-1,1v18c0,0.55225,0.44775,1,1,1h8c0.55225,0,1-0.44775,1-1V24
	C26,23.44775,25.55225,23,25,23z"/>
<path fill="#9EDB9E" d="M11,31H3c-0.55225,0-1,0.44775-1,1v10c0,0.55225,0.44775,1,1,1h8c0.55225,0,1-0.44775,1-1V32
	C12,31.44775,11.55225,31,11,31z"/>
<path fill="#4DA34D" d="M44.74316,15.33105l-9-10c-0.37891-0.42188-1.10742-0.42188-1.48633,0l-9,10
	c-0.26416,0.29346-0.33105,0.71484-0.17041,1.07568S25.60498,17,26,17h4v25c0,0.55225,0.44775,1,1,1h8c0.55225,0,1-0.44775,1-1V17h4
	c0.39502,0,0.75293-0.23242,0.91357-0.59326S45.00732,15.62451,44.74316,15.33105z"/>
</svg>
