<?xml version="1.0" encoding="utf-8"?>
<!-- Generator: Adobe Illustrator 19.2.0, SVG Export Plug-In . SVG Version: 6.00 Build 0)  -->
<!DOCTYPE svg PUBLIC "-//W3C//DTD SVG 1.1//EN" "http://www.w3.org/Graphics/SVG/1.1/DTD/svg11.dtd">
<svg version="1.1" id="Layer_1" xmlns="http://www.w3.org/2000/svg" xmlns:xlink="http://www.w3.org/1999/xlink" x="0px" y="0px"
	 width="48px" height="48px" viewBox="0 0 48 48" enable-background="new 0 0 48 48" xml:space="preserve">
<path fill="#B3B3B3" d="M6,37c-0.25586,0-0.51172-0.09766-0.70703-0.29297c-0.39062-0.39062-0.39062-1.02344,0-1.41406l2-2
	c0.39062-0.39062,1.02344-0.39062,1.41406,0s0.39062,1.02344,0,1.41406l-2,2C6.51172,36.90234,6.25586,37,6,37z"/>
<path fill="#B3B3B3" d="M42,45H6c-0.55225,0-1-0.44775-1-1s0.44775-1,1-1h36c0.55225,0,1,0.44775,1,1S42.55225,45,42,45z"/>
<path fill="#444444" d="M10,35.82666c-0.98047,0-1.96094-0.37305-2.70703-1.11963c-1.49268-1.49268-1.49268-3.92139,0-5.41406l12-12
	c0.39062-0.39062,1.02344-0.39062,1.41406,0l4,4c0.39062,0.39062,0.39062,1.02344,0,1.41406l-12,12
	C11.96094,35.45361,10.98047,35.82666,10,35.82666z"/>
<path fill="#EFD358" d="M33,24c-0.25586,0-0.51172-0.09766-0.70703-0.29297c-0.39062-0.39062-0.39062-1.02344,0-1.41406L39.58594,15
	l-2.29297-2.29297c-0.39062-0.39062-0.39062-1.02344,0-1.41406s1.02344-0.39062,1.41406,0l3,3
	c0.39062,0.39062,0.39062,1.02344,0,1.41406l-8,8C33.51172,23.90234,33.25586,24,33,24z"/>
<path fill="#636363" d="M38.70703,3.29297c-2.5957-2.5957-6.81836-2.5957-9.41406,0l-12,12
	c-0.39062,0.39062-0.39062,1.02344,0,1.41406l8,8C25.48828,24.90234,25.74414,25,26,25s0.51172-0.09766,0.70703-0.29297l12-12
	C41.30273,10.11182,41.30273,5.88818,38.70703,3.29297z"/>
</svg>
