<?xml version="1.0" encoding="utf-8"?>
<!-- Generator: Adobe Illustrator 19.2.0, SVG Export Plug-In . SVG Version: 6.00 Build 0)  -->
<!DOCTYPE svg PUBLIC "-//W3C//DTD SVG 1.1//EN" "http://www.w3.org/Graphics/SVG/1.1/DTD/svg11.dtd">
<svg version="1.1" id="Layer_1" xmlns="http://www.w3.org/2000/svg" xmlns:xlink="http://www.w3.org/1999/xlink" x="0px" y="0px"
	 width="48px" height="48px" viewBox="0 0 48 48" enable-background="new 0 0 48 48" xml:space="preserve">
<circle fill="#E6E6E6" cx="24" cy="24" r="20"/>
<path fill="#444444" d="M24,3C12.42088,3,3,12.4204,3,24s9.42088,21,21,21c11.57908,0,21-9.4204,21-21S35.57908,3,24,3z M5.05068,25
	h7.9749c0.0678,2.8687,0.4209,5.5658,1.0125,8h-6.7652C5.975,30.5974,5.20168,27.8801,5.05068,25z M25,13V5.1318
	C27.55058,5.7593,29.81068,8.7484,31.27378,13H25z M31.88658,15c0.6335,2.4156,1.0139,5.1379,1.0886,8H25v-8H31.88658z M23,5.1318
	V13h-6.27382C18.18928,8.7484,20.44938,5.7593,23,5.1318z M23,15v8h-7.97522c0.0747-2.8621,0.4551-5.5844,1.0886-8H23z M13.02558,23
	h-7.9749c0.151-2.8801,0.92432-5.5974,2.2222-8h6.7652C13.44648,17.4342,13.09338,20.1313,13.02558,23z M15.02478,25H23v8h-6.88662
	C15.47988,30.5844,15.09948,27.8621,15.02478,25z M23,35v7.8682c-2.55062-0.6275-4.81072-3.6166-6.27382-7.8682H23z M25,42.8682V35
	h6.27378C29.81068,39.2516,27.55058,42.2407,25,42.8682z M25,33v-8h7.97518c-0.0747,2.8621-0.4551,5.5844-1.0886,8H25z M34.97438,25
	h7.9749c-0.151,2.8801-0.92428,5.5974-2.2222,8h-6.7652C34.55348,30.5658,34.90658,27.8687,34.97438,25z M34.97438,23
	c-0.0678-2.8687-0.4209-5.5658-1.0125-8h6.7652c1.29792,2.4026,2.0712,5.1199,2.2222,8H34.97438z M39.46308,13H33.404
	c-0.93952-2.9645-2.24982-5.4228-3.82282-7.1605C33.61318,7.0812,37.06508,9.6392,39.46308,13z M18.41878,5.8395
	c-1.573,1.7377-2.8833,4.196-3.82278,7.1605H8.53688C10.93488,9.6392,14.38678,7.0812,18.41878,5.8395z M8.53688,35H14.596
	c0.93948,2.9645,2.24978,5.4228,3.82278,7.1605C14.38678,40.9188,10.93488,38.3608,8.53688,35z M29.58118,42.1605
	c1.573-1.7377,2.8833-4.196,3.82282-7.1605h6.05908C37.06508,38.3608,33.61318,40.9188,29.58118,42.1605z"/>
<circle fill="#EFD358" cx="16" cy="16" r="3"/>
<path fill="#FFFFFF" d="M16,20c-2.20612,0-4-1.7944-4-4s1.79388-4,4-4c2.20608,0,4,1.7944,4,4S18.20608,20,16,20z M16,14
	c-1.10252,0-2,0.897-2,2s0.89748,2,2,2c1.10248,0,2-0.897,2-2S17.10248,14,16,14z"/>
<circle fill="#EFD358" cx="33" cy="23" r="3"/>
<path fill="#FFFFFF" d="M33,27c-2.20612,0-4-1.7944-4-4s1.79388-4,4-4c2.20608,0,4,1.7944,4,4S35.20608,27,33,27z M33,21
	c-1.10252,0-2,0.897-2,2s0.89748,2,2,2c1.10248,0,2-0.897,2-2S34.10248,21,33,21z"/>
<circle fill="#EFD358" cx="24" cy="34" r="3"/>
<path fill="#FFFFFF" d="M24,38c-2.20612,0-4-1.7944-4-4s1.79388-4,4-4c2.20608,0,4,1.7944,4,4S26.20608,38,24,38z M24,32
	c-1.10252,0-2,0.897-2,2s0.89748,2,2,2c1.10248,0,2-0.897,2-2S25.10248,32,24,32z"/>
</svg>
