<?xml version="1.0" encoding="utf-8"?>
<!-- Generator: Adobe Illustrator 19.2.0, SVG Export Plug-In . SVG Version: 6.00 Build 0)  -->
<!DOCTYPE svg PUBLIC "-//W3C//DTD SVG 1.1//EN" "http://www.w3.org/Graphics/SVG/1.1/DTD/svg11.dtd">
<svg version="1.1" id="Layer_1" xmlns="http://www.w3.org/2000/svg" xmlns:xlink="http://www.w3.org/1999/xlink" x="0px" y="0px"
	 width="48px" height="48px" viewBox="0 0 48 48" enable-background="new 0 0 48 48" xml:space="preserve">
<path fill="#223E49" d="M27,38H9v-4h18c0.55228,0,1,0.44772,1,1v2C28,37.55228,27.55228,38,27,38z"/>
<path fill="#223E49" d="M37.30371,37.05957l-8.46595-13.54534c-0.29277-0.46842-0.15028-1.08549,0.31822-1.37814l1.69631-1.05958
	c0.46832-0.29253,1.08512-0.15011,1.37778,0.31813l8.46623,13.54578L37.30371,37.05957z"/>
<path fill="#223E49" d="M16.09837,26.52993l-1.69631-1.05958c-0.4685-0.29264-0.61098-0.90971-0.31822-1.37813l8.21986-13.15178
	l3.39258,2.11914l-8.22014,13.15222C17.18349,26.68004,16.5667,26.82246,16.09837,26.52993z"/>
<circle fill="#5A7A84" cx="9" cy="36" r="7"/>
<circle fill="#5A7A84" cx="24" cy="12" r="7"/>
<circle fill="#5A7A84" cx="39" cy="36" r="7"/>
</svg>
