<?xml version="1.0" encoding="utf-8"?>
<!-- Generator: Adobe Illustrator 19.2.0, SVG Export Plug-In . SVG Version: 6.00 Build 0)  -->
<!DOCTYPE svg PUBLIC "-//W3C//DTD SVG 1.1//EN" "http://www.w3.org/Graphics/SVG/1.1/DTD/svg11.dtd">
<svg version="1.1" id="Layer_1" xmlns="http://www.w3.org/2000/svg" xmlns:xlink="http://www.w3.org/1999/xlink" x="0px" y="0px"
	 width="48px" height="48px" viewBox="0 0 48 48" enable-background="new 0 0 48 48" xml:space="preserve">
<path fill="#EFD358" d="M26.84406,4.05444C20.62622,4.63928,16,10.10596,16,16.35126V24h-5c-0.55231,0-1,0.44769-1,1v2
	c0,0.55231,0.44769,1,1,1h5v12h-5c-0.55231,0-1,0.44769-1,1v2c0,0.55231,0.44769,1,1,1h26c0.55231,0,1-0.44769,1-1v-2
	c0-0.55231-0.44769-1-1-1H20V28h7c0.55231,0,1-0.44769,1-1v-2c0-0.55231-0.44769-1-1-1h-7v-7.71747
	c0-4.25671,3.20483-7.97955,7.45203-8.26416c4.36182-0.29218,8.05017,2.93469,8.50159,7.11719
	C36.0072,15.63202,36.44025,16,36.93964,16h2.00928c0.59454,0,1.05481-0.51648,1.00031-1.10852
	C39.35376,8.41974,33.59772,3.41925,26.84406,4.05444z"/>
</svg>
