<?xml version="1.0" encoding="utf-8"?>
<!-- Generator: Adobe Illustrator 19.2.0, SVG Export Plug-In . SVG Version: 6.00 Build 0)  -->
<!DOCTYPE svg PUBLIC "-//W3C//DTD SVG 1.1//EN" "http://www.w3.org/Graphics/SVG/1.1/DTD/svg11.dtd">
<svg version="1.1" id="Layer_1" xmlns="http://www.w3.org/2000/svg" xmlns:xlink="http://www.w3.org/1999/xlink" x="0px" y="0px"
	 width="48px" height="48px" viewBox="0 0 48 48" enable-background="new 0 0 48 48" xml:space="preserve">
<path fill="#C19F85" d="M46.97314,9.77051c-0.07959-0.33789-0.32812-0.60938-0.65674-0.71875L40.79083,7.2099l-1.8421-5.52631
	c-0.10986-0.3291-0.38184-0.57715-0.71875-0.65723c-0.33838-0.07812-0.69238,0.02148-0.93701,0.2666l-6,6
	c-0.26807,0.26758-0.36133,0.66406-0.2417,1.02344l2,6c0.09035,0.27046,0.35134,0.53841,0.63232,0.63184l6,2
	C39.7876,16.9834,39.89404,17,40,17c0.26074,0,0.5166-0.10254,0.70703-0.29297l6-6
	C46.95215,10.46191,47.05273,10.10742,46.97314,9.77051z"/>
<circle fill="#E6E6E6" cx="19" cy="29" r="16"/>
<path fill="#E86C60" d="M19,48C8.52344,48,0,39.47656,0,29s8.52344-19,19-19s19,8.52344,19,19S29.47656,48,19,48z M19,14
	c-8.271,0-15,6.72852-15,15s6.729,15,15,15s15-6.72852,15-15S27.271,14,19,14z"/>
<path fill="#E86C60" d="M19,41c-6.6167,0-12-5.38281-12-12s5.3833-12,12-12s12,5.38281,12,12S25.6167,41,19,41z M19,21
	c-4.41113,0-8,3.58887-8,8s3.58887,8,8,8s8-3.58887,8-8S23.41113,21,19,21z"/>
<circle fill="#E86C60" cx="19" cy="29" r="4"/>
<path fill="#87613E" d="M19,30c-0.25586,0-0.51172-0.09766-0.70703-0.29297c-0.39062-0.39062-0.39062-1.02344,0-1.41406l25-25
	c0.39062-0.39062,1.02344-0.39062,1.41406,0s0.39062,1.02344,0,1.41406l-25,25C19.51172,29.90234,19.25586,30,19,30z"/>
</svg>
