<?xml version="1.0" encoding="utf-8"?>
<!-- Generator: Adobe Illustrator 19.2.0, SVG Export Plug-In . SVG Version: 6.00 Build 0)  -->
<!DOCTYPE svg PUBLIC "-//W3C//DTD SVG 1.1//EN" "http://www.w3.org/Graphics/SVG/1.1/DTD/svg11.dtd">
<svg version="1.1" id="Layer_1" xmlns="http://www.w3.org/2000/svg" xmlns:xlink="http://www.w3.org/1999/xlink" x="0px" y="0px"
	 width="48px" height="48px" viewBox="0 0 48 48" enable-background="new 0 0 48 48" xml:space="preserve">
<path fill="#D39B75" d="M42,31.1123c-0.55225,0-1-0.44727-1-1s0.44775-1,1-1c1.36865,0,3-0.52051,3-3
	c0-1.6377-1.01758-1.97363-1.22168-2.02539c-0.52832-0.13086-0.86475-0.66406-0.74316-1.19531
	c0.12109-0.53125,0.6333-0.87305,1.16895-0.75781C45.17139,22.33496,47,23.42578,47,26.1123C47,29.14941,45.0376,31.1123,42,31.1123
	z"/>
<path fill="#EEBC99" d="M30,17H18.64111c-2.35938-4.74902-6.84814-4.68164-8.97021-3.94434
	c-0.5166,0.17969-0.79248,0.74121-0.61963,1.26074l1.65576,4.96777C8.61182,20.71094,6.97559,22.70312,6.01221,25H2
	c-0.55225,0-1,0.44727-1,1v10c0,0.55273,0.44775,1,1,1h5.0874C8.52539,39.23633,10.5918,40.97852,13,41.98828V46
	c0,0.55273,0.44775,1,1,1h6c0.55225,0,1-0.44727,1-1v-3h6v3c0,0.55273,0.44775,1,1,1h6c0.55225,0,1-0.44727,1-1v-4.01172
	C39.81348,39.98047,43,35.25,43,30C43,22.83203,37.16846,17,30,17z"/>
<path fill="#D39B75" d="M30,23h-8c-0.55225,0-1-0.44727-1-1s0.44775-1,1-1h8c0.55225,0,1,0.44727,1,1S30.55225,23,30,23z"/>
<circle fill="#EFD358" cx="26" cy="6" r="5"/>
<path fill="#444444" d="M14,28c-1.10303,0-2-0.89746-2-2s0.89697-2,2-2s2,0.89746,2,2S15.10303,28,14,28z M14,26.00098h0.01025H14z
	 M14,26.00098h0.01025H14z M14,26.00098h0.01025H14z M14,26.00098h0.01025H14z M14,26.00098h0.01025H14z M14,26h0.01025H14z M14,26
	h0.00977H14z M14,26h0.00977H14z"/>
</svg>
