<?xml version="1.0" encoding="utf-8"?>
<!-- Generator: Adobe Illustrator 19.2.0, SVG Export Plug-In . SVG Version: 6.00 Build 0)  -->
<!DOCTYPE svg PUBLIC "-//W3C//DTD SVG 1.1//EN" "http://www.w3.org/Graphics/SVG/1.1/DTD/svg11.dtd">
<svg version="1.1" id="Layer_1" xmlns="http://www.w3.org/2000/svg" xmlns:xlink="http://www.w3.org/1999/xlink" x="0px" y="0px"
	 width="48px" height="48px" viewBox="0 0 48 48" enable-background="new 0 0 48 48" xml:space="preserve">
<path fill="#B3B3B3" d="M26,3h-4c-0.55273,0-1,0.44775-1,1v4c0,0.55225,0.44727,1,1,1h4c0.55273,0,1-0.44775,1-1V4
	C27,3.44775,26.55273,3,26,3z"/>
<path fill="#E6E6E6" d="M42,7H6C5.44727,7,5,7.44775,5,8v28c0,0.55225,0.44727,1,1,1s1-0.44775,1-1h34c0,0.55225,0.44727,1,1,1
	s1-0.44775,1-1V8C43,7.44775,42.55273,7,42,7z"/>
<path fill="#72C472" d="M34.92297,16.6181c-0.10132-0.24475-0.29614-0.43964-0.54089-0.54102C34.25989,16.02655,34.13019,16,34,16
	h-6c-0.55273,0-1,0.44775-1,1s0.44727,1,1,1h3.58594L24,25.58594l-5.29297-5.29297c-0.39062-0.39062-1.02344-0.39062-1.41406,0l-4,4
	c-0.39062,0.39062-0.39062,1.02344,0,1.41406s1.02344,0.39062,1.41406,0L18,22.41406l5.29297,5.29297
	C23.48828,27.90234,23.74414,28,24,28s0.51172-0.09766,0.70703-0.29297L33,19.41406V23c0,0.55225,0.44727,1,1,1s1-0.44775,1-1v-6
	C35,16.86987,34.97351,16.74023,34.92297,16.6181z"/>
<path fill="#B3B3B3" d="M24,45c-0.55273,0-1-0.44775-1-1v-8c0-0.55225,0.44727-1,1-1s1,0.44775,1,1v8C25,44.55225,24.55273,45,24,45
	z"/>
<path fill="#B3B3B3" d="M11.99902,47c-0.21875,0-0.43945-0.07178-0.62402-0.21924c-0.43066-0.34473-0.50098-0.97412-0.15625-1.40527
	l8-10c0.34668-0.43018,0.97461-0.50146,1.40625-0.15625c0.43066,0.34473,0.50098,0.97412,0.15625,1.40527l-8,10
	C12.58301,46.87158,12.29297,47,11.99902,47z"/>
<path fill="#B3B3B3" d="M36.00098,47c-0.29395,0-0.58398-0.12842-0.78223-0.37549l-8-10
	c-0.34473-0.43115-0.27441-1.06055,0.15625-1.40527c0.43262-0.3457,1.06055-0.27393,1.40625,0.15625l8,10
	c0.34473,0.43115,0.27441,1.06055-0.15625,1.40527C36.44043,46.92822,36.21973,47,36.00098,47z"/>
<path fill="#898989" d="M46,37H2c-0.55273,0-1-0.44775-1-1s0.44727-1,1-1h44c0.55273,0,1,0.44775,1,1S46.55273,37,46,37z"/>
</svg>
