<?xml version="1.0" encoding="utf-8"?>
<!-- Generator: Adobe Illustrator 19.2.0, SVG Export Plug-In . SVG Version: 6.00 Build 0)  -->
<!DOCTYPE svg PUBLIC "-//W3C//DTD SVG 1.1//EN" "http://www.w3.org/Graphics/SVG/1.1/DTD/svg11.dtd">
<svg version="1.1" id="Layer_1" xmlns="http://www.w3.org/2000/svg" xmlns:xlink="http://www.w3.org/1999/xlink" x="0px" y="0px"
	 width="48px" height="48px" viewBox="0 0 48 48" enable-background="new 0 0 48 48" xml:space="preserve">
<polygon fill="#DB5852" points="10,22 31.99975,10.00014 38,16 26,38 "/>
<path fill="#B3B3B3" d="M6,43c-0.25586,0-0.51172-0.09766-0.70703-0.29297c-0.39062-0.39062-0.39062-1.02344,0-1.41406l12-12
	c0.39062-0.39062,1.02344-0.39062,1.41406,0s0.39062,1.02344,0,1.41406l-12,12C6.51172,42.90234,6.25586,43,6,43z"/>
<path fill="#ED7A74" d="M42,21c-0.25586,0-0.51172-0.09766-0.70703-0.29297l-14-14c-0.39062-0.39062-0.39062-1.02344,0-1.41406
	s1.02344-0.39062,1.41406,0l14,14c0.39062,0.39062,0.39062,1.02344,0,1.41406C42.51172,20.90234,42.25586,21,42,21z"/>
<path fill="#ED7A74" d="M30,43c-0.25586,0-0.51172-0.09766-0.70703-0.29297l-24-24c-0.39062-0.39062-0.39062-1.02344,0-1.41406
	s1.02344-0.39062,1.41406,0l24,24c0.39062,0.39062,0.39062,1.02344,0,1.41406C30.51172,42.90234,30.25586,43,30,43z"/>
</svg>
