<?xml version="1.0" encoding="utf-8"?>
<!-- Generator: Adobe Illustrator 19.2.0, SVG Export Plug-In . SVG Version: 6.00 Build 0)  -->
<!DOCTYPE svg PUBLIC "-//W3C//DTD SVG 1.1//EN" "http://www.w3.org/Graphics/SVG/1.1/DTD/svg11.dtd">
<svg version="1.1" id="Layer_1" xmlns="http://www.w3.org/2000/svg" xmlns:xlink="http://www.w3.org/1999/xlink" x="0px" y="0px"
	 width="48px" height="48px" viewBox="0 0 48 48" enable-background="new 0 0 48 48" xml:space="preserve">
<rect x="18" y="22" fill-rule="evenodd" clip-rule="evenodd" fill="#EAC3A2" width="12" height="15"/>
<path fill-rule="evenodd" clip-rule="evenodd" fill="#FFFFFF" d="M46,42.00925c0-1.66196-1.22893-3.54691-2.7505-4.2126L30,32
	c-1.688,1.25-3.754,2-6,2s-4.312-0.75-5.982-2L4.75359,37.79666C3.23283,38.46125,2,40.34967,2,42.00925v2.98782
	C2,45.55097,2.44982,46,3.00167,46h41.99666C45.55154,46,46,45.56212,46,44.99707V42.00925z"/>
<polygon fill-rule="evenodd" clip-rule="evenodd" fill="#43A6DD" points="21,46 23,40 25,40 27,46 "/>
<path fill-rule="evenodd" clip-rule="evenodd" fill="#43A6DD" d="M23,40h2l2.18468-2.18465
	c0.43031-0.43031,0.37974-1.14197-0.10709-1.50711l-2.47758-1.85823c-0.35556-0.26667-0.84446-0.26667-1.20002,0l-2.47758,1.85823
	c-0.48683,0.36514-0.5374,1.0768-0.10709,1.50711L23,40z"/>
<path fill-rule="evenodd" clip-rule="evenodd" fill="#444444" d="M20,46l-1.982-14L4.75359,37.79666
	C3.23283,38.46125,2,40.34967,2,42.00925v2.98782C2,45.55097,2.45093,46,2.99477,46H20z"/>
<path fill-rule="evenodd" clip-rule="evenodd" fill="#444444" d="M28,46l1.982-14l13.26441,5.79666
	C44.76717,38.46125,46,40.34967,46,42.00925v2.98782C46,45.55097,45.54908,46,45.00523,46H28z"/>
<path fill="#EAD8C5" d="M24,29c-6.06543,0-11-4.93457-11-11v-4c0-6.06543,4.93457-11,11-11s11,4.93457,11,11v4
	C35,24.06543,30.06543,29,24,29z"/>
<path fill-rule="evenodd" clip-rule="evenodd" fill="#444444" d="M36,15v1c0,2.76142-2.23857,5-5,5h-1c-2.419,0-4.436-1.718-4.899-4
	H25.1c-0.1-0.588-0.548-1-1.1-1s-1.02,0.451-1.1,1h-0.001c-0.463,2.282-2.48,4-4.899,4h-1c-2.76142,0-5-2.23858-5-5v-1
	c0-1.10457,0.89543-2,2-2h20C35.10457,13,36,13.89543,36,15z"/>
</svg>
