<?xml version="1.0" encoding="utf-8"?>
<!-- Generator: Adobe Illustrator 19.2.0, SVG Export Plug-In . SVG Version: 6.00 Build 0)  -->
<!DOCTYPE svg PUBLIC "-//W3C//DTD SVG 1.1//EN" "http://www.w3.org/Graphics/SVG/1.1/DTD/svg11.dtd">
<svg version="1.1" id="Layer_1" xmlns="http://www.w3.org/2000/svg" xmlns:xlink="http://www.w3.org/1999/xlink" x="0px" y="0px"
	 width="48px" height="48px" viewBox="0 0 48 48" enable-background="new 0 0 48 48" xml:space="preserve">
<rect x="6" y="20" fill="#B3B3B3" width="6" height="26"/>
<rect x="16" y="20" fill="#B3B3B3" width="6" height="26"/>
<rect x="26" y="20" fill="#B3B3B3" width="6" height="26"/>
<rect x="36" y="20" fill="#B3B3B3" width="6" height="26"/>
<path fill="#E6E6E6" d="M46.479,15.12207l-22-12c-0.29883-0.16211-0.65918-0.16211-0.95801,0l-22,12
	C1.19971,15.29688,1,15.63379,1,16v6c0,0.55273,0.44775,1,1,1h44c0.55225,0,1-0.44727,1-1v-6
	C47,15.63379,46.80029,15.29688,46.479,15.12207z"/>
<path fill="#E6E6E6" d="M46,43H2c-0.55225,0-1,0.44727-1,1v2c0,0.55273,0.44775,1,1,1h44c0.55225,0,1-0.44727,1-1v-2
	C47,43.44727,46.55225,43,46,43z"/>
<circle fill="#B3B3B3" cx="24" cy="14" r="4"/>
<rect x="7.5" y="21.5" transform="matrix(6.730267e-11 -1 1 6.730267e-11 -15.5 33.5)" fill="#939393" width="3" height="6"/>
<rect x="17.5" y="21.5" transform="matrix(6.730267e-11 -1 1 6.730267e-11 -5.5 43.5)" fill="#939393" width="3" height="6"/>
<rect x="27.5" y="21.5" transform="matrix(6.730267e-11 -1 1 6.730267e-11 4.5 53.5)" fill="#939393" width="3" height="6"/>
<rect x="37.5" y="21.5" transform="matrix(6.730267e-11 -1 1 6.730267e-11 14.5 63.5)" fill="#939393" width="3" height="6"/>
</svg>
