<?xml version="1.0" encoding="utf-8"?>
<!-- Generator: Adobe Illustrator 19.2.0, SVG Export Plug-In . SVG Version: 6.00 Build 0)  -->
<!DOCTYPE svg PUBLIC "-//W3C//DTD SVG 1.1//EN" "http://www.w3.org/Graphics/SVG/1.1/DTD/svg11.dtd">
<svg version="1.1" id="Layer_1" xmlns="http://www.w3.org/2000/svg" xmlns:xlink="http://www.w3.org/1999/xlink" x="0px" y="0px"
	 width="48px" height="48px" viewBox="0 0 48 48" enable-background="new 0 0 48 48" xml:space="preserve">
<path fill="#D8BC48" d="M25,31H9c-0.55225,0-1,0.44775-1,1v3c0,2.62598,4.52734,4,9,4s9-1.37402,9-4v-3
	C26,31.44775,25.55225,31,25,31z"/>
<path fill="#EFD358" d="M17,28c-4.47266,0-9,1.37402-9,4s4.52734,4,9,4s9-1.37402,9-4S21.47266,28,17,28z"/>
<path fill="#D8BC48" d="M25,26H9c-0.55225,0-1,0.44775-1,1v3c0,2.62598,4.52734,4,9,4s9-1.37402,9-4v-3
	C26,26.44775,25.55225,26,25,26z"/>
<path fill="#EFD358" d="M17,23c-4.47266,0-9,1.37402-9,4s4.52734,4,9,4s9-1.37402,9-4S21.47266,23,17,23z"/>
<path fill="#D8BC48" d="M25,21H9c-0.55225,0-1,0.44775-1,1v3c0,2.62598,4.52734,4,9,4s9-1.37402,9-4v-3
	C26,21.44775,25.55225,21,25,21z"/>
<path fill="#EFD358" d="M17,18c-4.47266,0-9,1.37402-9,4s4.52734,4,9,4s9-1.37402,9-4S21.47266,18,17,18z"/>
<path fill="#D8BC48" d="M25,16H9c-0.55225,0-1,0.44775-1,1v3c0,2.62598,4.52734,4,9,4s9-1.37402,9-4v-3
	C26,16.44775,25.55225,16,25,16z"/>
<path fill="#EFD358" d="M17,13c-4.47266,0-9,1.37402-9,4s4.52734,4,9,4s9-1.37402,9-4S21.47266,13,17,13z"/>
<path fill="#D8BC48" d="M25,11H9c-0.55225,0-1,0.44775-1,1v3c0,2.62598,4.52734,4,9,4s9-1.37402,9-4v-3
	C26,11.44775,25.55225,11,25,11z"/>
<path fill="#EFD358" d="M17,8c-4.47266,0-9,1.37402-9,4s4.52734,4,9,4s9-1.37402,9-4S21.47266,8,17,8z"/>
<path fill="#D8BC48" d="M25,6H9C8.44775,6,8,6.44775,8,7v3c0,2.62598,4.52734,4,9,4s9-1.37402,9-4V7C26,6.44775,25.55225,6,25,6z"/>
<path fill="#EFD358" d="M17,3c-4.47266,0-9,1.37402-9,4s4.52734,4,9,4s9-1.37402,9-4S21.47266,3,17,3z"/>
<path opacity="0.1" d="M26,7.56305C22.60016,8.39185,20,10.1571,20,13v3c0,0.33789,0.0415,0.67236,0.12354,1
	C20.0415,17.32764,20,17.66211,20,18v3c0,0.33789,0.0415,0.67236,0.12354,1C20.0415,22.32764,20,22.66211,20,23v3
	c0,0.33789,0.0415,0.67236,0.12354,1C20.0415,27.32764,20,27.66211,20,28v3c0,0.33789,0.0415,0.67236,0.12354,1
	C20.0415,32.32764,20,32.66211,20,33v3c0,0.33789,0.0415,0.67236,0.12354,1C20.0415,37.32764,20,37.66211,20,38v0.7851
	c3.29321-0.47754,6-1.75562,6-3.7851v-3c0-0.35736-0.09039-0.68933-0.24652-1C25.90961,30.68933,26,30.35736,26,30v-3
	c0-0.35736-0.09039-0.68933-0.24652-1C25.90961,25.68933,26,25.35736,26,25v-3c0-0.35736-0.09039-0.68933-0.24652-1
	C25.90961,20.68933,26,20.35736,26,20v-3c0-0.35736-0.09039-0.68933-0.24652-1C25.90961,15.68933,26,15.35736,26,15v-3
	c0-0.35736-0.09039-0.68933-0.24652-1C25.90961,10.68933,26,10.35736,26,10V7.56305z"/>
<path fill="#D8BC48" d="M39,37H23c-0.55225,0-1,0.44775-1,1v3c0,2.62598,4.52734,4,9,4s9-1.37402,9-4v-3
	C40,37.44775,39.55225,37,39,37z"/>
<path fill="#EFD358" d="M31,34c-4.47266,0-9,1.37402-9,4s4.52734,4,9,4s9-1.37402,9-4S35.47266,34,31,34z"/>
<path fill="#D8BC48" d="M39,32H23c-0.55225,0-1,0.44775-1,1v3c0,2.62598,4.52734,4,9,4s9-1.37402,9-4v-3
	C40,32.44775,39.55225,32,39,32z"/>
<path fill="#EFD358" d="M31,29c-4.47266,0-9,1.37402-9,4s4.52734,4,9,4s9-1.37402,9-4S35.47266,29,31,29z"/>
<path fill="#D8BC48" d="M39,27H23c-0.55225,0-1,0.44775-1,1v3c0,2.62598,4.52734,4,9,4s9-1.37402,9-4v-3
	C40,27.44775,39.55225,27,39,27z"/>
<path fill="#EFD358" d="M31,24c-4.47266,0-9,1.37402-9,4s4.52734,4,9,4s9-1.37402,9-4S35.47266,24,31,24z"/>
<path fill="#D8BC48" d="M39,22H23c-0.55225,0-1,0.44775-1,1v3c0,2.62598,4.52734,4,9,4s9-1.37402,9-4v-3
	C40,22.44775,39.55225,22,39,22z"/>
<path fill="#EFD358" d="M31,19c-4.47266,0-9,1.37402-9,4s4.52734,4,9,4s9-1.37402,9-4S35.47266,19,31,19z"/>
<path fill="#D8BC48" d="M39,17H23c-0.55225,0-1,0.44775-1,1v3c0,2.62598,4.52734,4,9,4s9-1.37402,9-4v-3
	C40,17.44775,39.55225,17,39,17z"/>
<path fill="#EFD358" d="M31,14c-4.47266,0-9,1.37402-9,4s4.52734,4,9,4s9-1.37402,9-4S35.47266,14,31,14z"/>
<path fill="#D8BC48" d="M39,12H23c-0.55225,0-1,0.44775-1,1v3c0,2.62598,4.52734,4,9,4s9-1.37402,9-4v-3
	C40,12.44775,39.55225,12,39,12z"/>
<path fill="#EFD358" d="M31,9c-4.47266,0-9,1.37402-9,4s4.52734,4,9,4s9-1.37402,9-4S35.47266,9,31,9z"/>
</svg>
