<?xml version="1.0" encoding="utf-8"?>
<!-- Generator: Adobe Illustrator 19.2.0, SVG Export Plug-In . SVG Version: 6.00 Build 0)  -->
<!DOCTYPE svg PUBLIC "-//W3C//DTD SVG 1.1//EN" "http://www.w3.org/Graphics/SVG/1.1/DTD/svg11.dtd">
<svg version="1.1" id="Layer_1" xmlns="http://www.w3.org/2000/svg" xmlns:xlink="http://www.w3.org/1999/xlink" x="0px" y="0px"
	 width="48px" height="48px" viewBox="0 0 48 48" enable-background="new 0 0 48 48" xml:space="preserve">
<circle fill="#EFD358" cx="24" cy="24" r="22"/>
<path fill="#D8BC48" d="M24,47C11.31738,47,1,36.68213,1,24S11.31738,1,24,1s23,10.31787,23,23S36.68262,47,24,47z M24,3
	C12.4209,3,3,12.42041,3,24s9.4209,21,21,21s21-9.42041,21-21S35.5791,3,24,3z"/>
<path fill="#B29930" d="M26,15c1.9668,0,3.83398,0.62207,5.40039,1.79932c0.44141,0.33154,1.06738,0.24268,1.40039-0.19873
	c0.33105-0.44141,0.24219-1.06836-0.19922-1.3999C30.68652,13.76074,28.40332,13,26,13c-4.26422,0-7.96112,2.44379-9.78571,6H14
	c-0.55273,0-1,0.44775-1,1s0.44727,1,1,1h1.42645C15.15497,21.95514,15,22.95898,15,24c0,0.33752,0.02075,0.6701,0.05066,1H14
	c-0.55273,0-1,0.44775-1,1s0.44727,1,1,1h1.42645c1.3103,4.61005,5.54913,8,10.57355,8c2.40234,0,4.68457-0.76074,6.60059-2.2002
	c0.44141-0.33154,0.53027-0.9585,0.19922-1.3999c-0.33301-0.44092-0.95898-0.52979-1.40039-0.19873
	C29.83301,32.37793,27.96582,33,26,33c-3.90973,0-7.23553-2.51025-8.47491-6H26c0.55273,0,1-0.44775,1-1s-0.44727-1-1-1h-8.94098
	C17.02246,24.6712,17,24.33838,17,24c0-1.05304,0.19122-2.06,0.52509-3H26c0.55273,0,1-0.44775,1-1s-0.44727-1-1-1h-7.47821
	C20.13831,16.59021,22.88635,15,26,15z"/>
</svg>
