<?xml version="1.0" encoding="utf-8"?>
<!-- Generator: Adobe Illustrator 19.2.0, SVG Export Plug-In . SVG Version: 6.00 Build 0)  -->
<!DOCTYPE svg PUBLIC "-//W3C//DTD SVG 1.1//EN" "http://www.w3.org/Graphics/SVG/1.1/DTD/svg11.dtd">
<svg version="1.1" id="Layer_1" xmlns="http://www.w3.org/2000/svg" xmlns:xlink="http://www.w3.org/1999/xlink" x="0px" y="0px"
	 width="48px" height="48px" viewBox="0 0 48 48" enable-background="new 0 0 48 48" xml:space="preserve">
<path fill="#ED7A74" d="M19.98834,12h8.02332l4.83649-7.47021c0.19238-0.30811,0.20264-0.69678,0.02637-1.01465S32.36377,3,32,3H16
	c-0.36377,0-0.69824,0.19727-0.87451,0.51514s-0.16602,0.70654,0.02637,1.01465L19.98834,12z"/>
<path fill="#DB5852" d="M28.01166,12h-8.02332l-3.97662,25.84814c-0.05273,0.34131,0.0752,0.68604,0.3374,0.91113l7,6
	C23.53662,44.91992,23.76807,45,24,45s0.46338-0.08008,0.65088-0.24072l7-6c0.26221-0.2251,0.39014-0.56982,0.3374-0.91113
	L28.01166,12z"/>
</svg>
