<?xml version="1.0" encoding="utf-8"?>
<!-- Generator: Adobe Illustrator 19.2.0, SVG Export Plug-In . SVG Version: 6.00 Build 0)  -->
<!DOCTYPE svg PUBLIC "-//W3C//DTD SVG 1.1//EN" "http://www.w3.org/Graphics/SVG/1.1/DTD/svg11.dtd">
<svg version="1.1" id="Layer_1" xmlns="http://www.w3.org/2000/svg" xmlns:xlink="http://www.w3.org/1999/xlink" x="0px" y="0px"
	 width="48px" height="48px" viewBox="0 0 48 48" enable-background="new 0 0 48 48" xml:space="preserve">
<circle fill="#EFD358" cx="24" cy="24" r="22"/>
<path fill="#D8BC48" d="M24,47C11.31738,47,1,36.68213,1,24S11.31738,1,24,1s23,10.31787,23,23S36.68262,47,24,47z M24,3
	C12.4209,3,3,12.42041,3,24s9.4209,21,21,21s21-9.42041,21-21S35.5791,3,24,3z"/>
<path fill="#B29930" d="M30,29h-5v-3h5c0.55273,0,1-0.44775,1-1s-0.44727-1-1-1h-4.75012l5.54993-7.3999
	c0.33203-0.44189,0.24219-1.06885-0.2002-1.3999c-0.44141-0.33154-1.06738-0.24121-1.39941,0.19971L24,22.3335l-5.2002-6.93359
	c-0.33105-0.44189-0.95898-0.53223-1.39941-0.19971c-0.44238,0.33105-0.53223,0.95801-0.2002,1.3999L22.75012,24H18
	c-0.55273,0-1,0.44775-1,1s0.44727,1,1,1h5v3h-5c-0.55273,0-1,0.44775-1,1s0.44727,1,1,1h5v3c0,0.55225,0.44727,1,1,1s1-0.44775,1-1
	v-3h5c0.55273,0,1-0.44775,1-1S30.55273,29,30,29z"/>
</svg>
