<?xml version="1.0" encoding="utf-8"?>
<!-- Generator: Adobe Illustrator 19.2.0, SVG Export Plug-In . SVG Version: 6.00 Build 0)  -->
<!DOCTYPE svg PUBLIC "-//W3C//DTD SVG 1.1//EN" "http://www.w3.org/Graphics/SVG/1.1/DTD/svg11.dtd">
<svg version="1.1" id="Layer_1" xmlns="http://www.w3.org/2000/svg" xmlns:xlink="http://www.w3.org/1999/xlink" x="0px" y="0px"
	 width="48px" height="48px" viewBox="0 0 48 48" enable-background="new 0 0 48 48" xml:space="preserve">
<rect x="18" y="24" fill-rule="evenodd" clip-rule="evenodd" fill="#87613E" width="12" height="15"/>
<path fill-rule="evenodd" clip-rule="evenodd" fill="#A67C52" d="M35,12v8c0,6.065-4.935,11-11,11s-11-4.935-11-11v-8H35z"/>
<path fill-rule="evenodd" clip-rule="evenodd" fill="#FFFFFF" d="M46,44.00925c0-1.66196-1.22893-3.54691-2.7505-4.2126L30,34
	c-1.688,1.25-3.754,2-6,2s-4.312-0.75-5.982-2L4.75359,39.79666C3.23283,40.46125,2,42.34967,2,44.00925v2.98782
	C2,47.55097,2.44982,48,3.00167,48h41.99666C45.55154,48,46,47.56212,46,46.99707V44.00925z"/>
<path fill-rule="evenodd" clip-rule="evenodd" fill="#444444" d="M13,11.9989c0-3.3131,2.53529-6.90436,5.65398-8.01818
	l7.4057-2.64489c0.51933-0.18547,1.1394,0.06233,1.38418,0.5519L29,5c3.31371,0,6,2.69303,6,6v6c0-2.76142-2.23858-5-5-5H18
	c-2.76142,0-5,2.23858-5,5V11.9989z"/>
<path fill-rule="evenodd" clip-rule="evenodd" fill="#43A6DD" d="M27.07758,38.30823l-2.47754-1.85822
	c-0.35559-0.26666-0.84448-0.26666-1.20007,0l-2.47754,1.85822c-0.48682,0.36511-0.53741,1.07678-0.10712,1.50708L23,42l-2,6h6l-2-6
	l2.18469-2.18469C27.61499,39.38501,27.56439,38.67334,27.07758,38.30823z"/>
<path fill-rule="evenodd" clip-rule="evenodd" fill="#444444" d="M20,48l-1.982-14L4.75359,39.79666
	C3.23283,40.46125,2,42.34967,2,44.00925v2.98782C2,47.55097,2.45093,48,2.99477,48H20z"/>
<path fill-rule="evenodd" clip-rule="evenodd" fill="#444444" d="M28,48l1.982-14l13.26441,5.79666
	C44.76717,40.46125,46,42.34967,46,44.00925v2.98782C46,47.55097,45.54908,48,45.00523,48H28z"/>
</svg>
