<?xml version="1.0" encoding="utf-8"?>
<!-- Generator: Adobe Illustrator 19.2.0, SVG Export Plug-In . SVG Version: 6.00 Build 0)  -->
<!DOCTYPE svg PUBLIC "-//W3C//DTD SVG 1.1//EN" "http://www.w3.org/Graphics/SVG/1.1/DTD/svg11.dtd">
<svg version="1.1" id="Layer_1" xmlns="http://www.w3.org/2000/svg" xmlns:xlink="http://www.w3.org/1999/xlink" x="0px" y="0px"
	 width="48px" height="48px" viewBox="0 0 48 48" enable-background="new 0 0 48 48" xml:space="preserve">
<circle fill="#EFD358" cx="24" cy="24" r="22"/>
<path fill="#D8BC48" d="M24,47C11.31738,47,1,36.68213,1,24S11.31738,1,24,1s23,10.31787,23,23S36.68262,47,24,47z M24,3
	C12.4209,3,3,12.42041,3,24s9.4209,21,21,21s21-9.42041,21-21S35.5791,3,24,3z"/>
<path fill="#B29930" d="M29,19c0,0.55225,0.44727,1,1,1s1-0.44775,1-1c0-3.30859-2.69141-6-6-6v-1c0-0.55225-0.44727-1-1-1
	s-1,0.44775-1,1v1c-3.30859,0-6,2.69141-6,6c0,3.92792,3.15405,5.039,6,5.77734V33c-2.20605,0-4-1.79443-4-4
	c0-0.55225-0.44727-1-1-1s-1,0.44775-1,1c0,3.30859,2.69141,6,6,6v1c0,0.55225,0.44727,1,1,1s1-0.44775,1-1v-1
	c3.30859,0,6-2.69141,6-6c0-3.92792-3.15405-5.039-6-5.77734V15C27.20605,15,29,16.79443,29,19z M29,29c0,2.20557-1.79395,4-4,4
	v-7.70447C27.50507,25.98932,29,26.76184,29,29z M23,22.70447C20.49493,22.01068,19,21.2381,19,19c0-2.20557,1.79395-4,4-4V22.70447
	z"/>
</svg>
