<?xml version="1.0" encoding="utf-8"?>
<!-- Generator: Adobe Illustrator 19.2.0, SVG Export Plug-In . SVG Version: 6.00 Build 0)  -->
<!DOCTYPE svg PUBLIC "-//W3C//DTD SVG 1.1//EN" "http://www.w3.org/Graphics/SVG/1.1/DTD/svg11.dtd">
<svg version="1.1" id="Layer_1" xmlns="http://www.w3.org/2000/svg" xmlns:xlink="http://www.w3.org/1999/xlink" x="0px" y="0px"
	 width="48px" height="48px" viewBox="0 0 48 48" enable-background="new 0 0 48 48" xml:space="preserve">
<path fill="#636363" d="M18,29H4c-0.30273,0-0.58887,0.13672-0.7793,0.37305c-0.18945,0.23535-0.2627,0.54492-0.19727,0.84082
	C3.10156,30.57227,5.09375,39,18,39c0.55273,0,1-0.44727,1-1v-8C19,29.44727,18.55273,29,18,29z"/>
<path fill="#A67C52" d="M43.70703,19.29297l-9-9c-0.39062-0.39062-1.02344-0.39062-1.41406,0l-4,4
	c-0.39062,0.39062-0.39062,1.02344,0,1.41406l9,9C38.48828,24.90234,38.74414,25,39,25s0.51172-0.09766,0.70703-0.29297l4-4
	C44.09766,20.31641,44.09766,19.68359,43.70703,19.29297z"/>
<path fill="#444444" d="M46,29H17v17c0,0.55228,0.44772,1,1,1h22c0.56559,0,0.99647-0.46718,1.00011-1.03275
	c0.0176-2.73092,2.23621-4.94953,4.96713-4.96713C46.53282,40.99647,47,40.56559,47,40V30C47,29.44772,46.55228,29,46,29z"/>
<path fill="#444444" d="M38.70703,6.29297l-4-4c-0.39062-0.39062-1.02344-0.39062-1.41406,0l-12,12
	c-0.39062,0.39062-0.39062,1.02344,0,1.41406l4,4C25.48828,19.90234,25.74414,20,26,20s0.51172-0.09766,0.70703-0.29297l12-12
	C39.09766,7.31641,39.09766,6.68359,38.70703,6.29297z"/>
<path fill="#E86C60" d="M14,25h-4c-0.55273,0-1-0.44727-1-1s0.44727-1,1-1h4c0.55273,0,1,0.44727,1,1S14.55273,25,14,25z"/>
<path fill="#E86C60" d="M16.34277,19.34277c-0.25586,0-0.51172-0.09766-0.70703-0.29297l-2.82812-2.82812
	c-0.39062-0.39062-0.39062-1.02344,0-1.41406s1.02344-0.39062,1.41406,0l2.82812,2.82812c0.39062,0.39062,0.39062,1.02344,0,1.41406
	C16.85449,19.24512,16.59863,19.34277,16.34277,19.34277z"/>
</svg>
