<?xml version="1.0" encoding="utf-8"?>
<!-- Generator: Adobe Illustrator 19.2.0, SVG Export Plug-In . SVG Version: 6.00 Build 0)  -->
<!DOCTYPE svg PUBLIC "-//W3C//DTD SVG 1.1//EN" "http://www.w3.org/Graphics/SVG/1.1/DTD/svg11.dtd">
<svg version="1.1" id="Layer_1" xmlns="http://www.w3.org/2000/svg" xmlns:xlink="http://www.w3.org/1999/xlink" x="0px" y="0px"
	 width="48px" height="48px" viewBox="0 0 48 48" enable-background="new 0 0 48 48" xml:space="preserve">
<path fill="#EFD358" d="M34,31c0-5.67102-4.24982-7.46521-8-8.53113V12.0647c1.99945,0.30945,3.59644,1.96893,3.9339,4.09399
	C30.0108,16.64264,30.42352,17,30.91351,17h2.01984c0.59863,0,1.07129-0.52472,1-1.11908
	C33.42828,11.67047,30.10986,8.35938,26,8.03241V5c0-0.55231-0.44769-1-1-1h-2c-0.55231,0-1,0.44769-1,1v3.0351
	C17.53241,8.39075,14,12.27124,14,17c0,5.67102,4.24982,7.46521,8,8.53113V35.9353c-1.99945-0.30945-3.59644-1.96893-3.9339-4.09399
	C17.9892,31.35736,17.57648,31,17.08649,31h-2.01984c-0.59863,0-1.07129,0.52472-1,1.11908
	c0.50507,4.21045,3.82349,7.52155,7.93335,7.84851V43c0,0.55231,0.44769,1,1,1h2c0.55231,0,1-0.44769,1-1v-3.0351
	C30.46759,39.60925,34,35.72876,34,31z M18,17c0-2.51233,1.74414-4.57758,4-4.9278v9.27307C19.19421,20.42731,18,19.42535,18,17z
	 M26,35.9278v-9.27307c2.80579,0.91797,4,1.91992,4,4.34528C30,33.51233,28.25586,35.57758,26,35.9278z"/>
</svg>
