<?xml version="1.0" encoding="utf-8"?>
<!-- Generator: Adobe Illustrator 19.2.0, SVG Export Plug-In . SVG Version: 6.00 Build 0)  -->
<!DOCTYPE svg PUBLIC "-//W3C//DTD SVG 1.1//EN" "http://www.w3.org/Graphics/SVG/1.1/DTD/svg11.dtd">
<svg version="1.1" id="Layer_1" xmlns="http://www.w3.org/2000/svg" xmlns:xlink="http://www.w3.org/1999/xlink" x="0px" y="0px"
	 width="48px" height="48px" viewBox="0 0 48 48" enable-background="new 0 0 48 48" xml:space="preserve">
<path fill="#444444" d="M24,7c-0.55273,0-1-0.44727-1-1V2c0-0.55273,0.44727-1,1-1s1,0.44727,1,1v4C25,6.55273,24.55273,7,24,7z"/>
<path fill="#E6E6E6" d="M32,11h-3V6c0-0.55273-0.44727-1-1-1h-8c-0.55273,0-1,0.44727-1,1v5h-3c-0.55273,0-1,0.44727-1,1v34
	c0,0.55273,0.44727,1,1,1h16c0.55273,0,1-0.44727,1-1V12C33,11.44727,32.55273,11,32,11z"/>
<path fill="#B3B3B3" d="M20,27H4c-0.55273,0-1,0.44727-1,1v18c0,0.55273,0.44727,1,1,1h16c0.55273,0,1-0.44727,1-1V28
	C21,27.44727,20.55273,27,20,27z"/>
<path fill="#444444" d="M44,21H28c-0.55273,0-1,0.44727-1,1v24c0,0.55273,0.44727,1,1,1h16c0.55273,0,1-0.44727,1-1V22
	C45,21.44727,44.55273,21,44,21z"/>
<path fill="#B3B3B3" d="M37,40h-2c-0.55228,0-1,0.44772-1,1v6h4v-6C38,40.44772,37.55228,40,37,40z"/>
<path fill="#E6E6E6" d="M13,41h-2c-0.55229,0-1,0.44772-1,1v5h4v-5C14,41.44772,13.55229,41,13,41z"/>
<path fill="#BADEFC" d="M34,29h-2c-0.55228,0-1-0.44772-1-1v-2c0-0.55228,0.44772-1,1-1h2c0.55228,0,1,0.44772,1,1v2
	C35,28.55228,34.55228,29,34,29z"/>
<path fill="#BADEFC" d="M40,29h-2c-0.55228,0-1-0.44772-1-1v-2c0-0.55228,0.44772-1,1-1h2c0.55228,0,1,0.44772,1,1v2
	C41,28.55228,40.55228,29,40,29z"/>
<path fill="#BADEFC" d="M34,35h-2c-0.55228,0-1-0.44772-1-1v-2c0-0.55228,0.44772-1,1-1h2c0.55228,0,1,0.44772,1,1v2
	C35,34.55228,34.55228,35,34,35z"/>
<path fill="#BADEFC" d="M40,35h-2c-0.55228,0-1-0.44772-1-1v-2c0-0.55228,0.44772-1,1-1h2c0.55228,0,1,0.44772,1,1v2
	C41,34.55228,40.55228,35,40,35z"/>
<path fill="#FFFFFF" d="M10,36H8c-0.55228,0-1-0.44772-1-1v-2c0-0.55228,0.44772-1,1-1h2c0.55229,0,1,0.44772,1,1v2
	C11,35.55228,10.55229,36,10,36z"/>
<path fill="#FFFFFF" d="M16,36h-2c-0.55229,0-1-0.44772-1-1v-2c0-0.55228,0.44771-1,1-1h2c0.55228,0,1,0.44772,1,1v2
	C17,35.55228,16.55228,36,16,36z"/>
</svg>
