<?xml version="1.0" encoding="utf-8"?>
<!-- Generator: Adobe Illustrator 19.2.0, SVG Export Plug-In . SVG Version: 6.00 Build 0)  -->
<!DOCTYPE svg PUBLIC "-//W3C//DTD SVG 1.1//EN" "http://www.w3.org/Graphics/SVG/1.1/DTD/svg11.dtd">
<svg version="1.1" id="Layer_1" xmlns="http://www.w3.org/2000/svg" xmlns:xlink="http://www.w3.org/1999/xlink" x="0px" y="0px"
	 width="48px" height="48px" viewBox="0 0 48 48" enable-background="new 0 0 48 48" xml:space="preserve">
<path fill="#307730" d="M40,22H8c-0.55228,0-1-0.44772-1-1V6c0-0.55228,0.44772-1,1-1h32c0.55228,0,1,0.44772,1,1v15
	C41,21.55228,40.55228,22,40,22z"/>
<path fill="#3F8E3F" d="M43,22H5c-0.55228,0-1-0.44772-1-1V10c0-0.55229,0.44772-1,1-1h38c0.55228,0,1,0.44771,1,1v11
	C44,21.55228,43.55228,22,43,22z"/>
<path fill="#4DA34D" d="M46,43H2c-0.55225,0-1-0.44775-1-1V14c0-0.55225,0.44775-1,1-1h44c0.55225,0,1,0.44775,1,1v28
	C47,42.55225,46.55225,43,46,43z"/>
<path fill="#9EDB9E" d="M38,16H10c0,3.31372-2.68628,6-6,6v12c3.31372,0,6,2.68628,6,6h28c0-3.31372,2.68628-6,6-6V22
	C40.68628,22,38,19.31372,38,16z"/>
<circle fill="#4DA34D" cx="24" cy="28" r="7"/>
</svg>
