<?xml version="1.0" encoding="utf-8"?>
<!-- Generator: Adobe Illustrator 19.2.0, SVG Export Plug-In . SVG Version: 6.00 Build 0)  -->
<!DOCTYPE svg PUBLIC "-//W3C//DTD SVG 1.1//EN" "http://www.w3.org/Graphics/SVG/1.1/DTD/svg11.dtd">
<svg version="1.1" id="Layer_1" xmlns="http://www.w3.org/2000/svg" xmlns:xlink="http://www.w3.org/1999/xlink" x="0px" y="0px"
	 width="48px" height="48px" viewBox="0 0 48 48" enable-background="new 0 0 48 48" xml:space="preserve">
<path fill="#B3B3B3" d="M34.08105,7.60645c0.29752-0.69803,1.29222-0.8052,1.73291-0.1875l10,14
	c0.3208,0.44922,0.2168,1.07422-0.23291,1.39453C45.40527,22.93945,45.20215,23,45.00098,23
	c-0.31201,0-0.61963-0.14551-0.81494-0.41895l-8.96716-12.55402l-5.29993,12.36652C29.75684,22.77344,29.3877,23,28.99951,23
	c-0.13135,0-0.26514-0.02539-0.39355-0.08105c-0.50732-0.21777-0.74268-0.80566-0.5249-1.3125L34.08105,7.60645z"/>
<path fill="#444444" d="M32.99999,27h8.00002C44.31371,27,47,24.31371,47,21.00001V21H27v0.00001
	C27,24.31371,29.68629,27,32.99999,27z"/>
<path fill="#B3B3B3" d="M13.91895,7.60645c-0.29752-0.69803-1.29222-0.8052-1.73291-0.1875l-10,14
	c-0.3208,0.44922-0.2168,1.07422,0.23291,1.39453C2.59473,22.93945,2.79785,23,2.99902,23
	c0.31201,0,0.61963-0.14551,0.81494-0.41895l8.96716-12.55402l5.29993,12.36652C18.24316,22.77344,18.6123,23,19.00049,23
	c0.13135,0,0.26514-0.02539,0.39355-0.08105c0.50732-0.21777,0.74268-0.80566,0.5249-1.3125L13.91895,7.60645z"/>
<path fill="#636363" d="M38,7H10C9.44775,7,9,7.44727,9,8s0.44775,1,1,1h12v33h4V9h12c0.55225,0,1-0.44727,1-1S38.55225,7,38,7z"/>
<path fill="#444444" d="M29,39H19c-2.20914,0-4,1.79086-4,4v0h18v0C33,40.79086,31.20914,39,29,39z"/>
<path fill="#444444" d="M15.00001,27H6.99999C3.68629,27,1,24.31371,1,21.00001V21h20v0.00001C21,24.31371,18.31371,27,15.00001,27z
	"/>
</svg>
