<?xml version="1.0" encoding="utf-8"?>
<!-- Generator: Adobe Illustrator 19.2.0, SVG Export Plug-In . SVG Version: 6.00 Build 0)  -->
<!DOCTYPE svg PUBLIC "-//W3C//DTD SVG 1.1//EN" "http://www.w3.org/Graphics/SVG/1.1/DTD/svg11.dtd">
<svg version="1.1" id="Layer_1" xmlns="http://www.w3.org/2000/svg" xmlns:xlink="http://www.w3.org/1999/xlink" x="0px" y="0px"
	 width="48px" height="48px" viewBox="0 0 48 48" enable-background="new 0 0 48 48" xml:space="preserve">
<path fill="#444444" d="M43,32H5c-1.10457,0-2,0.89543-2,2v9c0,1.10457,0.89543,2,2,2h38c1.10457,0,2-0.89543,2-2v-9
	C45,32.89543,44.10457,32,43,32z"/>
<path fill="#444444" d="M32,11c-0.55273,0-1-0.44775-1-1V5H17v5c0,0.55225-0.44727,1-1,1s-1-0.44775-1-1V4c0-0.55225,0.44727-1,1-1
	h16c0.55273,0,1,0.44775,1,1v6C33,10.55225,32.55273,11,32,11z"/>
<path fill="#636363" d="M45,9H3c-1.10457,0-2,0.89543-2,2v21c0,1.10457,0.89543,2,2,2h42c1.10457,0,2-0.89543,2-2V11
	C47,9.89543,46.10457,9,45,9z"/>
<rect x="10" y="9" fill="#A67C52" width="4" height="23"/>
<rect x="34" y="9" fill="#A67C52" width="4" height="23"/>
<rect x="34" y="36" fill="#A67C52" width="4" height="9"/>
<rect x="10" y="36" fill="#A67C52" width="4" height="9"/>
<path fill="#E6E6E6" d="M15,37H9c-0.55229,0-1-0.44772-1-1v-4c0-0.55228,0.44771-1,1-1h6c0.55229,0,1,0.44772,1,1v4
	C16,36.55228,15.55229,37,15,37z"/>
<path fill="#E6E6E6" d="M39,37h-6c-0.55228,0-1-0.44772-1-1v-4c0-0.55228,0.44772-1,1-1h6c0.55228,0,1,0.44772,1,1v4
	C40,36.55228,39.55228,37,39,37z"/>
<rect x="10" y="37" fill="#916640" width="4" height="2"/>
<rect x="34" y="37" fill="#916640" width="4" height="2"/>
</svg>
