<?xml version="1.0" encoding="utf-8"?>
<!-- Generator: Adobe Illustrator 19.2.0, SVG Export Plug-In . SVG Version: 6.00 Build 0)  -->
<!DOCTYPE svg PUBLIC "-//W3C//DTD SVG 1.1//EN" "http://www.w3.org/Graphics/SVG/1.1/DTD/svg11.dtd">
<svg version="1.1" id="Layer_1" xmlns="http://www.w3.org/2000/svg" xmlns:xlink="http://www.w3.org/1999/xlink" x="0px" y="0px"
	 width="48px" height="48px" viewBox="0 0 48 48" enable-background="new 0 0 48 48" xml:space="preserve">
<path fill="#EFD358" d="M38.19977,6.40015c0.33136-0.44183,0.24182-1.06866-0.20001-1.40002L36.3996,3.80011
	c-0.44183-0.3313-1.0686-0.24176-1.39996,0.20007L24,18.6665L13.00037,4.00018c-0.33136-0.44183-0.95813-0.53137-1.39996-0.20007
	l-1.60016,1.20001C9.55841,5.33148,9.46887,5.95831,9.80023,6.40015L22,22.66632V24H11c-0.55231,0-1,0.44769-1,1v2
	c0,0.55231,0.44769,1,1,1h11v4H11c-0.55231,0-1,0.44769-1,1v2c0,0.55231,0.44769,1,1,1h11v7c0,0.55231,0.44769,1,1,1h2
	c0.55231,0,1-0.44769,1-1v-7h11c0.55231,0,1-0.44769,1-1v-2c0-0.55231-0.44769-1-1-1H26v-4h11c0.55231,0,1-0.44769,1-1v-2
	c0-0.55231-0.44769-1-1-1H26v-1.33368L38.19977,6.40015z"/>
</svg>
