<?xml version="1.0" encoding="utf-8"?>
<!-- Generator: Adobe Illustrator 19.2.0, SVG Export Plug-In . SVG Version: 6.00 Build 0)  -->
<!DOCTYPE svg PUBLIC "-//W3C//DTD SVG 1.1//EN" "http://www.w3.org/Graphics/SVG/1.1/DTD/svg11.dtd">
<svg version="1.1" id="Layer_1" xmlns="http://www.w3.org/2000/svg" xmlns:xlink="http://www.w3.org/1999/xlink" x="0px" y="0px"
	 width="48px" height="48px" viewBox="0 0 48 48" enable-background="new 0 0 48 48" xml:space="preserve">
<path fill="#72C472" d="M28,25h-8c-0.55225,0-1,0.44775-1,1v18c0,0.55225,0.44775,1,1,1h8c0.55225,0,1-0.44775,1-1V26
	C29,25.44775,28.55225,25,28,25z"/>
<path fill="#9EDB9E" d="M12,33H4c-0.55225,0-1,0.44775-1,1v10c0,0.55225,0.44775,1,1,1h8c0.55225,0,1-0.44775,1-1V34
	C13,33.44775,12.55225,33,12,33z"/>
<path fill="#4DA34D" d="M44,17h-8c-0.55225,0-1,0.44775-1,1v26c0,0.55225,0.44775,1,1,1h8c0.55225,0,1-0.44775,1-1V18
	C45,17.44775,44.55225,17,44,17z"/>
<path fill="#B3B3B3" d="M24.70703,18.70703L37,6.41406V12c0,0.55225,0.44775,1,1,1s1-0.44775,1-1V4
	c0-0.13025-0.02661-0.25989-0.07721-0.38214c-0.10138-0.24445-0.2962-0.43927-0.54065-0.54065C38.25989,3.02661,38.13025,3,38,3h-8
	c-0.55225,0-1,0.44775-1,1s0.44775,1,1,1h5.58594L24,16.58594l-5.29297-5.29297c-0.39062-0.39062-1.02344-0.39062-1.41406,0l-8,8
	c-0.39062,0.39062-0.39062,1.02344,0,1.41406C9.48828,20.90234,9.74414,21,10,21s0.51172-0.09766,0.70703-0.29297L18,13.41406
	l5.29297,5.29297C23.68359,19.09766,24.31641,19.09766,24.70703,18.70703z"/>
</svg>
