<?xml version="1.0" encoding="utf-8"?>
<!-- Generator: Adobe Illustrator 19.2.0, SVG Export Plug-In . SVG Version: 6.00 Build 0)  -->
<!DOCTYPE svg PUBLIC "-//W3C//DTD SVG 1.1//EN" "http://www.w3.org/Graphics/SVG/1.1/DTD/svg11.dtd">
<svg version="1.1" id="Layer_1" xmlns="http://www.w3.org/2000/svg" xmlns:xlink="http://www.w3.org/1999/xlink" x="0px" y="0px"
	 width="48px" height="48px" viewBox="0 0 48 48" enable-background="new 0 0 48 48" xml:space="preserve">
<path fill="#E86C60" d="M26,3c-0.55273,0-1,0.44775-1,1v18c0,0.55225,0.44727,1,1,1h18c0.55273,0,1-0.44775,1-1
	C45,11.52344,36.47656,3,26,3z"/>
<path fill="#EFD358" d="M38,27H21V10c0-0.55225-0.44727-1-1-1C9.52344,9,1,17.52344,1,28s8.52344,19,19,19s19-8.52344,19-19
	C39,27.44775,38.55273,27,38,27z"/>
</svg>
