<?xml version="1.0" encoding="utf-8"?>
<!-- Generator: Adobe Illustrator 19.2.0, SVG Export Plug-In . SVG Version: 6.00 Build 0)  -->
<!DOCTYPE svg PUBLIC "-//W3C//DTD SVG 1.1//EN" "http://www.w3.org/Graphics/SVG/1.1/DTD/svg11.dtd">
<svg version="1.1" id="Layer_1" xmlns="http://www.w3.org/2000/svg" xmlns:xlink="http://www.w3.org/1999/xlink" x="0px" y="0px"
	 width="48px" height="48px" viewBox="0 0 48 48" enable-background="new 0 0 48 48" xml:space="preserve">
<path fill="#444444" d="M38,47H8c-1.10457,0-2-0.89543-2-2V3c0-1.10457,0.89543-2,2-2h30c2.20914,0,4,1.79086,4,4v38
	C42,45.20914,40.20914,47,38,47z"/>
<polygon fill="#E86C60" points="22,1 14,1 14,14 18,12 22,14 "/>
<rect x="6" y="23" fill="#43A6DD" width="36" height="15"/>
<rect x="34" y="1" fill="#636363" width="3" height="46"/>
<path fill="#298BB7" d="M27,29H11c-0.55273,0-1-0.44727-1-1s0.44727-1,1-1h16c0.55273,0,1,0.44727,1,1S27.55273,29,27,29z"/>
<path fill="#298BB7" d="M19,34h-8c-0.55273,0-1-0.44727-1-1s0.44727-1,1-1h8c0.55273,0,1,0.44727,1,1S19.55273,34,19,34z"/>
</svg>
