<?xml version="1.0" encoding="utf-8"?>
<!-- Generator: Adobe Illustrator 19.2.0, SVG Export Plug-In . SVG Version: 6.00 Build 0)  -->
<!DOCTYPE svg PUBLIC "-//W3C//DTD SVG 1.1//EN" "http://www.w3.org/Graphics/SVG/1.1/DTD/svg11.dtd">
<svg version="1.1" id="Layer_1" xmlns="http://www.w3.org/2000/svg" xmlns:xlink="http://www.w3.org/1999/xlink" x="0px" y="0px"
	 width="48px" height="48px" viewBox="0 0 48 48" enable-background="new 0 0 48 48" xml:space="preserve">
<path fill="#A67C52" d="M36,1H8v46h28c2.76143,0,5-2.23857,5-5V6C41,3.23858,38.76143,1,36,1z"/>
<path fill="#444444" d="M9,1H5C3.89543,1,3,1.89543,3,3v42c0,1.10457,0.89543,2,2,2h4V1z"/>
<rect x="18" y="10" fill="#FFFFFF" width="14" height="8"/>
<path fill="#FFFFFF" d="M32,19H18c-0.55273,0-1-0.44727-1-1v-8c0-0.55273,0.44727-1,1-1h14c0.55273,0,1,0.44727,1,1v8
	C33,18.55273,32.55273,19,32,19z M19,17h12v-6H19V17z"/>
<path fill="#EFD358" d="M44,16h-3V8h3c0.55228,0,1,0.44771,1,1v6C45,15.55229,44.55228,16,44,16z"/>
<path fill="#43A6DD" d="M44,26h-3v-8h3c0.55228,0,1,0.44772,1,1v6C45,25.55228,44.55228,26,44,26z"/>
</svg>
