<?xml version="1.0" encoding="utf-8"?>
<!-- Generator: Adobe Illustrator 19.2.0, SVG Export Plug-In . SVG Version: 6.00 Build 0)  -->
<!DOCTYPE svg PUBLIC "-//W3C//DTD SVG 1.1//EN" "http://www.w3.org/Graphics/SVG/1.1/DTD/svg11.dtd">
<svg version="1.1" id="Layer_1" xmlns="http://www.w3.org/2000/svg" xmlns:xlink="http://www.w3.org/1999/xlink" x="0px" y="0px"
	 width="48px" height="48px" viewBox="0 0 48 48" enable-background="new 0 0 48 48" xml:space="preserve">
<path fill="#4DA34D" d="M28,7h-8c-0.55225,0-1,0.44775-1,1v32c0,0.55225,0.44775,1,1,1h8c0.55225,0,1-0.44775,1-1V8
	C29,7.44775,28.55225,7,28,7z"/>
<path fill="#9EDB9E" d="M12,27H4c-0.55225,0-1,0.44775-1,1v12c0,0.55225,0.44775,1,1,1h8c0.55225,0,1-0.44775,1-1V28
	C13,27.44775,12.55225,27,12,27z"/>
<path fill="#72C472" d="M44,17h-8c-0.55225,0-1,0.44775-1,1v22c0,0.55225,0.44775,1,1,1h8c0.55225,0,1-0.44775,1-1V18
	C45,17.44775,44.55225,17,44,17z"/>
</svg>
