<?xml version="1.0" encoding="utf-8"?>
<!-- Generator: Adobe Illustrator 19.2.0, SVG Export Plug-In . SVG Version: 6.00 Build 0)  -->
<!DOCTYPE svg PUBLIC "-//W3C//DTD SVG 1.1//EN" "http://www.w3.org/Graphics/SVG/1.1/DTD/svg11.dtd">
<svg version="1.1" id="Layer_1" xmlns="http://www.w3.org/2000/svg" xmlns:xlink="http://www.w3.org/1999/xlink" x="0px" y="0px"
	 width="48px" height="48px" viewBox="0 0 48 48" enable-background="new 0 0 48 48" xml:space="preserve">
<path fill="#444444" d="M40,8H8c-1.6543,0-3,1.34571-3,3v24c0,0.5522,0.4473,1,1,1h36c0.5527,0,1-0.4478,1-1V11
	C43,9.34571,41.6543,8,40,8z"/>
<path fill="#E6E6E6" d="M1,33v2c0,2.75681,2.2432,5,5,5h36c2.7568,0,5-2.24319,5-5v-2H1z"/>
<rect x="8" y="11" fill="#FFFFFF" width="32" height="19"/>
<path fill="#B3B3B3" d="M27,36h-6c-1.1045,0-2-0.8955-2-2v-1h10v1C29,35.1045,28.1045,36,27,36z"/>
<path fill="#72C472" d="M34.92291,15.61792c-0.10138-0.24475-0.29626-0.43958-0.54102-0.54089C34.25977,15.02649,34.13013,15,34,15
	h-6c-0.55225,0-1,0.44727-1,1s0.44775,1,1,1h3.58594L24,24.58594l-5.29297-5.29297c-0.39062-0.39062-1.02344-0.39062-1.41406,0l-4,4
	c-0.39062,0.39062-0.39062,1.02344,0,1.41406s1.02344,0.39062,1.41406,0L18,21.41406l5.29297,5.29297
	C23.48828,26.90234,23.74414,27,24,27s0.51172-0.09766,0.70703-0.29297L33,18.41406V22c0,0.55273,0.44775,1,1,1s1-0.44727,1-1v-6
	C35,15.86981,34.97345,15.74011,34.92291,15.61792z"/>
</svg>
