<?xml version="1.0" encoding="utf-8"?>
<!-- Generator: Adobe Illustrator 19.2.0, SVG Export Plug-In . SVG Version: 6.00 Build 0)  -->
<!DOCTYPE svg PUBLIC "-//W3C//DTD SVG 1.1//EN" "http://www.w3.org/Graphics/SVG/1.1/DTD/svg11.dtd">
<svg version="1.1" id="Layer_1" xmlns="http://www.w3.org/2000/svg" xmlns:xlink="http://www.w3.org/1999/xlink" x="0px" y="0px"
	 width="48px" height="48px" viewBox="0 0 48 48" enable-background="new 0 0 48 48" xml:space="preserve">
<circle fill="#B3B3B3" cx="24" cy="42" r="5"/>
<path fill="#EFD358" d="M22.19336,1.09389C14.44846,1.89722,8.11993,8.05841,7.14065,15.78304
	C6.17718,23.38294,10.23984,30.43416,17,33.48535V39h14v-5.51465C37.09717,30.7334,41,24.72754,41,18
	C41,8.03032,32.37408,0.0379,22.19336,1.09389z"/>
<path fill="#EDE4BC" d="M16,19c-0.55225,0-1-0.44727-1-1c0-4.96289,4.0376-9,9-9c0.55225,0,1,0.44727,1,1s-0.44775,1-1,1
	c-3.85986,0-7,3.14062-7,7C17,18.55273,16.55225,19,16,19z"/>
<path fill="#E6E6E6" d="M17,38v4c0,1.10455,0.89545,2,2,2h10c1.10461,0,2-0.89545,2-2v-4H17z"/>
</svg>
