<?xml version="1.0" encoding="utf-8"?>
<!-- Generator: Adobe Illustrator 19.2.0, SVG Export Plug-In . SVG Version: 6.00 Build 0)  -->
<!DOCTYPE svg PUBLIC "-//W3C//DTD SVG 1.1//EN" "http://www.w3.org/Graphics/SVG/1.1/DTD/svg11.dtd">
<svg version="1.1" id="Layer_1" xmlns="http://www.w3.org/2000/svg" xmlns:xlink="http://www.w3.org/1999/xlink" x="0px" y="0px"
	 width="48px" height="48px" viewBox="0 0 48 48" enable-background="new 0 0 48 48" xml:space="preserve">
<path fill="#72C472" d="M32,33c-3.01385,0-5.63599,1.66821-7,4.13007V43c4.41827,0,8-3.58173,8-8v-2H32z"/>
<path fill="#A67C52" d="M25,26c0-0.55225-0.44727-1-1-1s-1,0.44775-1,1v20c0,0.55225,0.44727,1,1,1s1-0.44775,1-1v-3v-5.86993V26z"
	/>
<path fill="#4DA34D" d="M46,27H2c-0.55225,0-1-0.44775-1-1V2c0-0.55225,0.44775-1,1-1h44c0.55225,0,1,0.44775,1,1v24
	C47,26.55225,46.55225,27,46,27z"/>
<path fill="#9EDB9E" d="M38,4H10c0,3.31372-2.68628,6-6,6v8c3.31372,0,6,2.68628,6,6h28c0-3.31372,2.68628-6,6-6v-8
	C40.68628,10,38,7.31372,38,4z"/>
<circle fill="#4DA34D" cx="24" cy="14" r="5"/>
</svg>
