<?xml version="1.0" encoding="utf-8"?>
<!-- Generator: Adobe Illustrator 19.2.0, SVG Export Plug-In . SVG Version: 6.00 Build 0)  -->
<!DOCTYPE svg PUBLIC "-//W3C//DTD SVG 1.1//EN" "http://www.w3.org/Graphics/SVG/1.1/DTD/svg11.dtd">
<svg version="1.1" id="Layer_1" xmlns="http://www.w3.org/2000/svg" xmlns:xlink="http://www.w3.org/1999/xlink" x="0px" y="0px"
	 width="48px" height="48px" viewBox="0 0 48 48" enable-background="new 0 0 48 48" xml:space="preserve">
<path fill="#A67C52" d="M39.88086,33.95508c-0.00146-0.00391-0.00342-0.0083-0.00537-0.01221L31,14l3.94873-11.68359
	c0.10156-0.30518,0.05029-0.64014-0.1377-0.90088C34.62305,1.1543,34.32129,1,34,1H14c-0.32129,0-0.62305,0.1543-0.81104,0.41553
	c-0.18799,0.26074-0.23926,0.5957-0.1377,0.90088L17,14L8.11914,33.95508c-1.23291,2.90527-0.92871,6.21094,0.81348,8.84229
	C10.6748,45.4292,13.59912,47,16.75488,47h14.49023c3.15576,0,6.08008-1.5708,7.82227-4.20264
	C40.80957,40.16602,41.11377,36.86035,39.88086,33.95508z"/>
<path fill="#87613E" d="M24,15c-0.55225,0-1-0.44775-1-1V8c0-0.55225,0.44775-1,1-1s1,0.44775,1,1v6C25,14.55225,24.55225,15,24,15z
	"/>
<path fill="#EFD358" d="M24.24268,30.02979c-1.81316-0.45304-2.28446-0.70982-2.23984-1.64349
	c0.03738-0.78224,0.71404-1.38629,1.49717-1.38629l1,0c0.84209,0,1.47249,0.69234,1.50057,1.53396
	C26.01848,29.07049,26.45912,29.5,27,29.5c0.55225,0,1-0.44775,1-1c0-1.75848-1.30835-3.20422-3-3.44946V23c0-0.55228-0.44771-1-1-1
	h0c-0.55228,0-1,0.44771-1,1v2.05054c-1.69165,0.24524-3,1.69098-3,3.44946c0,2.53076,2.26123,3.09619,3.75732,3.47021
	c1.81316,0.45304,2.28446,0.70982,2.23984,1.64349C25.95979,34.39594,25.28313,34.99999,24.5,35h-1
	c-0.84209,0-1.47249-0.69234-1.50057-1.53397C21.98152,32.92951,21.54088,32.5,21,32.5c-0.55225,0-1,0.44775-1,1
	c0,1.75848,1.30835,3.20422,3,3.44946V39c0,0.55228,0.44771,1,1,1h0c0.55228,0,1-0.44772,1-1v-2.05054
	c1.69165-0.24524,3-1.69098,3-3.44946C28,30.96924,25.73877,30.40381,24.24268,30.02979z"/>
<path fill="#EFD358" d="M31,15H17c-0.55225,0-1-0.44775-1-1s0.44775-1,1-1h14c0.55225,0,1,0.44775,1,1S31.55225,15,31,15z"/>
</svg>
