<?xml version="1.0" encoding="utf-8"?>
<!-- Generator: Adobe Illustrator 19.2.0, SVG Export Plug-In . SVG Version: 6.00 Build 0)  -->
<!DOCTYPE svg PUBLIC "-//W3C//DTD SVG 1.1//EN" "http://www.w3.org/Graphics/SVG/1.1/DTD/svg11.dtd">
<svg version="1.1" id="Layer_1" xmlns="http://www.w3.org/2000/svg" xmlns:xlink="http://www.w3.org/1999/xlink" x="0px" y="0px"
	 width="48px" height="48px" viewBox="0 0 48 48" enable-background="new 0 0 48 48" xml:space="preserve">
<circle fill="#FFFFFF" cx="22" cy="24" r="20"/>
<path fill="#72C472" d="M42,23c-0.55273,0-1,0.44727-1,1c0,10.47656-8.52344,19-19,19S3,34.47656,3,24S11.52344,5,22,5
	c6.6748,0,12.68903,3.40118,16.13867,8.9834l-4.00586-0.53613c-0.55273-0.0752-1.05078,0.31152-1.12402,0.8584
	c-0.07324,0.54785,0.31152,1.05078,0.8584,1.12402l5.77777,0.77344c0.59801,0.22978,1.25296-0.13161,1.33173-0.81854
	c0.00061-0.00415,0.00323-0.00739,0.00378-0.01154l0.96875-7.23438c0.07324-0.54785-0.31152-1.05078-0.8584-1.12402
	c-0.55273-0.07031-1.05078,0.31152-1.12402,0.8584l-0.58258,4.3512C35.51251,6.54138,28.97455,3,22,3C10.4209,3,1,12.4209,1,24
	s9.4209,21,21,21s21-9.4209,21-21C43,23.44727,42.55273,23,42,23z"/>
<path fill="#223E49" d="M22,25c-0.55273,0-1-0.44775-1-1V11c0-0.55225,0.44727-1,1-1s1,0.44775,1,1v13
	C23,24.55225,22.55273,25,22,25z"/>
<path fill="#223E49" d="M34,25H22c-0.55273,0-1-0.44775-1-1s0.44727-1,1-1h12c0.55273,0,1,0.44775,1,1S34.55273,25,34,25z"/>
<path fill="#E86C60" d="M12.99902,36c-0.22266,0-0.44629-0.07422-0.63184-0.22607c-0.42773-0.34961-0.49121-0.97949-0.1416-1.40723
	l9-11c0.35059-0.42676,0.97949-0.48975,1.40723-0.14062c0.42773,0.34961,0.49121,0.97949,0.1416,1.40723l-9,11
	C13.57617,35.875,13.28906,36,12.99902,36z"/>
<circle fill="#223E49" cx="22" cy="24" r="3"/>
</svg>
