<?xml version="1.0" encoding="utf-8"?>
<!-- Generator: Adobe Illustrator 19.2.0, SVG Export Plug-In . SVG Version: 6.00 Build 0)  -->
<!DOCTYPE svg PUBLIC "-//W3C//DTD SVG 1.1//EN" "http://www.w3.org/Graphics/SVG/1.1/DTD/svg11.dtd">
<svg version="1.1" id="Layer_1" xmlns="http://www.w3.org/2000/svg" xmlns:xlink="http://www.w3.org/1999/xlink" x="0px" y="0px"
	 width="48px" height="48px" viewBox="0 0 48 48" enable-background="new 0 0 48 48" xml:space="preserve">
<path fill="#636363" d="M43,11c0-1.10457-0.89543-2-2-2H6C4.3457,9,3,7.6543,3,6c0-0.55225-0.44775-1-1-1S1,5.44775,1,6v32
	c0,3.86599,3.13401,7,7,7h33c1.10457,0,2-0.89543,2-2V11z"/>
<path fill="#444444" d="M46,22H36c-2.75684,0-5,2.24316-5,5s2.24316,5,5,5h10c0.55225,0,1-0.44775,1-1v-8
	C47,22.44775,46.55225,22,46,22z"/>
<path fill="#444444" d="M4,3h28c1.10457,0,2,0.89543,2,2v4H4C2.34314,9,1,7.65686,1,6V6C1,4.34314,2.34314,3,4,3z"/>
<circle fill="#E6E6E6" cx="36" cy="27" r="2"/>
<path fill="#B3B3B3" d="M7,16H5c-0.55228,0-1-0.44771-1-1v0c0-0.55228,0.44771-1,1-1h2c0.55228,0,1,0.44771,1,1v0
	C8,15.55229,7.55229,16,7,16z"/>
<path fill="#B3B3B3" d="M15,16h-2c-0.55228,0-1-0.44771-1-1v0c0-0.55228,0.44771-1,1-1h2c0.55228,0,1,0.44771,1,1v0
	C16,15.55229,15.55229,16,15,16z"/>
<path fill="#B3B3B3" d="M23,16h-2c-0.55228,0-1-0.44771-1-1v0c0-0.55228,0.44771-1,1-1h2c0.55228,0,1,0.44771,1,1v0
	C24,15.55229,23.55229,16,23,16z"/>
<path fill="#B3B3B3" d="M31,16h-2c-0.55228,0-1-0.44771-1-1v0c0-0.55228,0.44771-1,1-1h2c0.55228,0,1,0.44771,1,1v0
	C32,15.55229,31.55229,16,31,16z"/>
<path fill="#B3B3B3" d="M39,16h-2c-0.55228,0-1-0.44771-1-1v0c0-0.55228,0.44772-1,1-1h2c0.55228,0,1,0.44771,1,1v0
	C40,15.55229,39.55228,16,39,16z"/>
<path fill="#B3B3B3" d="M7,40H5c-0.55228,0-1-0.44772-1-1l0,0c0-0.55228,0.44771-1,1-1h2c0.55228,0,1,0.44772,1,1l0,0
	C8,39.55228,7.55229,40,7,40z"/>
<path fill="#B3B3B3" d="M15,40h-2c-0.55228,0-1-0.44772-1-1l0,0c0-0.55228,0.44771-1,1-1h2c0.55228,0,1,0.44772,1,1l0,0
	C16,39.55228,15.55229,40,15,40z"/>
<path fill="#B3B3B3" d="M23,40h-2c-0.55228,0-1-0.44772-1-1l0,0c0-0.55228,0.44771-1,1-1h2c0.55228,0,1,0.44772,1,1l0,0
	C24,39.55228,23.55229,40,23,40z"/>
<path fill="#B3B3B3" d="M31,40h-2c-0.55228,0-1-0.44772-1-1l0,0c0-0.55228,0.44771-1,1-1h2c0.55228,0,1,0.44772,1,1l0,0
	C32,39.55228,31.55229,40,31,40z"/>
<path fill="#B3B3B3" d="M39,40h-2c-0.55228,0-1-0.44772-1-1l0,0c0-0.55228,0.44772-1,1-1h2c0.55228,0,1,0.44772,1,1l0,0
	C40,39.55228,39.55228,40,39,40z"/>
</svg>
