<?xml version="1.0" encoding="utf-8"?>
<!-- Generator: Adobe Illustrator 20.1.0, SVG Export Plug-In . SVG Version: 6.00 Build 0)  -->
<!DOCTYPE svg PUBLIC "-//W3C//DTD SVG 1.1//EN" "http://www.w3.org/Graphics/SVG/1.1/DTD/svg11.dtd">
<svg version="1.1" id="Layer_1" xmlns="http://www.w3.org/2000/svg" xmlns:xlink="http://www.w3.org/1999/xlink" x="0px" y="0px"
	 width="24px" height="24px" viewBox="0 0 24 24" enable-background="new 0 0 24 24" xml:space="preserve">
<path d="M9.5,0H0v24h24V4H12.5L9.5,0z M22,22H2V2h6.5l3,4H22V22z"/>
<path d="M9,11v2H7v7h10v-7h-2v-2c0-1.654-1.346-3-3-3S9,9.346,9,11z M15,18H9v-3h2h2h2V18z M12,10c0.552,0,1,0.448,1,1v2h-2v-2
	C11,10.448,11.448,10,12,10z"/>
</svg>
