<?xml version="1.0" encoding="utf-8"?>
<!-- Generator: Adobe Illustrator 20.1.0, SVG Export Plug-In . SVG Version: 6.00 Build 0)  -->
<!DOCTYPE svg PUBLIC "-//W3C//DTD SVG 1.1//EN" "http://www.w3.org/Graphics/SVG/1.1/DTD/svg11.dtd">
<svg version="1.1" id="Layer_1" xmlns="http://www.w3.org/2000/svg" xmlns:xlink="http://www.w3.org/1999/xlink" x="0px" y="0px"
	 width="24px" height="24px" viewBox="0 0 24 24" enable-background="new 0 0 24 24" xml:space="preserve">
<path d="M1,24h22V0H1V24z M3,2h18v20H3V2z"/>
<path d="M12,4C9.794,4,8,5.794,8,8v3h2V8c0-1.103,0.897-2,2-2s2,0.897,2,2v3h2V8C16,5.794,14.206,4,12,4z"/>
<path d="M14,16c0,1.103-0.897,2-2,2s-2-0.897-2-2v-3H8v3c0,2.206,1.794,4,4,4s4-1.794,4-4v-3h-2V16z"/>
<rect x="11" y="9" width="2" height="6"/>
</svg>
