<?xml version="1.0" encoding="utf-8"?>
<!-- Generator: Adobe Illustrator 20.1.0, SVG Export Plug-In . SVG Version: 6.00 Build 0)  -->
<!DOCTYPE svg PUBLIC "-//W3C//DTD SVG 1.1//EN" "http://www.w3.org/Graphics/SVG/1.1/DTD/svg11.dtd">
<svg version="1.1" id="Layer_1" xmlns="http://www.w3.org/2000/svg" xmlns:xlink="http://www.w3.org/1999/xlink" x="0px" y="0px"
	 width="24px" height="24px" viewBox="0 0 24 24" enable-background="new 0 0 24 24" xml:space="preserve">
<path d="M9.5,0H0v24h24V4H12.5L9.5,0z M22,22H2V2h6.5l3,4H22V22z"/>
<path d="M7.086,10.11c-1.444,1.467-1.444,3.855,0,5.322L12,20.426l4.915-4.993c1.443-1.468,1.443-3.855-0.001-5.322h0
	c-0.793-0.806-1.888-1.201-3.006-1.092C13.202,9.089,12.545,9.356,12,9.781c-0.545-0.425-1.202-0.692-1.906-0.763
	C8.975,8.909,7.879,9.305,7.086,10.11z M11.163,11.787L12,13.068l0.837-1.281c0.289-0.442,0.751-0.727,1.269-0.778
	c0.511-0.045,1.017,0.133,1.383,0.504c0.683,0.694,0.683,1.823,0.001,2.518L12,17.574L8.512,14.03c-0.683-0.694-0.683-1.823,0-2.518
	C8.837,11.183,9.272,11,9.726,11c0.056,0,0.113,0.003,0.169,0.009C10.411,11.061,10.874,11.344,11.163,11.787z"/>
</svg>
