<?xml version="1.0" encoding="utf-8"?>
<!-- Generator: Adobe Illustrator 20.1.0, SVG Export Plug-In . SVG Version: 6.00 Build 0)  -->
<!DOCTYPE svg PUBLIC "-//W3C//DTD SVG 1.1//EN" "http://www.w3.org/Graphics/SVG/1.1/DTD/svg11.dtd">
<svg version="1.1" id="Layer_1" xmlns="http://www.w3.org/2000/svg" xmlns:xlink="http://www.w3.org/1999/xlink" x="0px" y="0px"
	 width="24px" height="24px" viewBox="0 0 24 24" enable-background="new 0 0 24 24" xml:space="preserve">
<path d="M9.5,0H0v24h24V4H12.5L9.5,0z M22,22H2V2h6.5l3,4H22V22z"/>
<path d="M10,8v2H5v2h5v2h6v-2h3v-2h-3V8H10z M12,12v-2h2v2H12z"/>
<path d="M14,15H8v2H5v2h3v2h6v-2h5v-2h-5V15z M10,19v-2h2v2H10z"/>
</svg>
