<?xml version="1.0" encoding="utf-8"?>
<!-- Generator: Adobe Illustrator 20.1.0, SVG Export Plug-In . SVG Version: 6.00 Build 0)  -->
<!DOCTYPE svg PUBLIC "-//W3C//DTD SVG 1.1//EN" "http://www.w3.org/Graphics/SVG/1.1/DTD/svg11.dtd">
<svg version="1.1" id="Layer_1" xmlns="http://www.w3.org/2000/svg" xmlns:xlink="http://www.w3.org/1999/xlink" x="0px" y="0px"
	 width="24px" height="24px" viewBox="0 0 24 24" enable-background="new 0 0 24 24" xml:space="preserve">
<path d="M9.5,0H0v24h24V4H12.5L9.5,0z M22,22H2V2h6.5l3,4H22V22z"/>
<path d="M9,15.051C8.838,15.018,8.671,15,8.5,15C7.122,15,6,16.121,6,17.5S7.122,20,8.5,20s2.5-1.121,2.5-2.5V10h5v4.051
	C15.838,14.018,15.671,14,15.5,14c-1.378,0-2.5,1.121-2.5,2.5s1.122,2.5,2.5,2.5s2.5-1.121,2.5-2.5V8H9V15.051z"/>
</svg>
