<?xml version="1.0" encoding="utf-8"?>
<!-- Generator: Adobe Illustrator 20.1.0, SVG Export Plug-In . SVG Version: 6.00 Build 0)  -->
<!DOCTYPE svg PUBLIC "-//W3C//DTD SVG 1.1//EN" "http://www.w3.org/Graphics/SVG/1.1/DTD/svg11.dtd">
<svg version="1.1" id="Layer_1" xmlns="http://www.w3.org/2000/svg" xmlns:xlink="http://www.w3.org/1999/xlink" x="0px" y="0px"
	 width="24px" height="24px" viewBox="0 0 24 24" enable-background="new 0 0 24 24" xml:space="preserve">
<path d="M9.5,0H0v24h24V4H12.5L9.5,0z M22,22H2V2h6.5l3,4H22V22z"/>
<path d="M6,12.5c0,2.481,2.019,4.5,4.5,4.5c0.879,0,1.693-0.263,2.386-0.7l3.407,3.407l1.414-1.414L14.3,14.886
	c0.437-0.693,0.7-1.508,0.7-2.386c0-2.481-2.019-4.5-4.5-4.5S6,10.019,6,12.5z M13,12.5c0,1.379-1.121,2.5-2.5,2.5S8,13.879,8,12.5
	S9.121,10,10.5,10S13,11.121,13,12.5z"/>
</svg>
