<?xml version="1.0" encoding="utf-8"?>
<!-- Generator: Adobe Illustrator 20.1.0, SVG Export Plug-In . SVG Version: 6.00 Build 0)  -->
<!DOCTYPE svg PUBLIC "-//W3C//DTD SVG 1.1//EN" "http://www.w3.org/Graphics/SVG/1.1/DTD/svg11.dtd">
<svg version="1.1" id="Layer_1" xmlns="http://www.w3.org/2000/svg" xmlns:xlink="http://www.w3.org/1999/xlink" x="0px" y="0px"
	 width="24px" height="24px" viewBox="0 0 24 24" enable-background="new 0 0 24 24" xml:space="preserve">
<path d="M1,24h22V0H1V24z M3,2h18v20H3V2z"/>
<path d="M12,5c-3.86,0-7,3.141-7,7s3.14,7,7,7s7-3.141,7-7S15.86,5,12,5z M16.899,11H13V7.101C14.956,7.5,16.5,9.044,16.899,11z
	 M12,17c-2.757,0-5-2.243-5-5c0-2.414,1.721-4.434,4-4.899V13h5.899C16.434,15.279,14.414,17,12,17z"/>
</svg>
