<?xml version="1.0" encoding="utf-8"?>
<!-- Generator: Adobe Illustrator 20.1.0, SVG Export Plug-In . SVG Version: 6.00 Build 0)  -->
<!DOCTYPE svg PUBLIC "-//W3C//DTD SVG 1.1//EN" "http://www.w3.org/Graphics/SVG/1.1/DTD/svg11.dtd">
<svg version="1.1" id="Layer_1" xmlns="http://www.w3.org/2000/svg" xmlns:xlink="http://www.w3.org/1999/xlink" x="0px" y="0px"
	 width="24px" height="24px" viewBox="0 0 24 24" enable-background="new 0 0 24 24" xml:space="preserve">
<path d="M1,24h22V0H1V24z M3,22v-3.586l3.155-3.155l5.064,3.039l4.791-5.749L21,18.37V22H3z M21,2v13.297l-5.011-5.846l-5.209,6.251
	l-4.936-2.961L3,15.586V2H21z"/>
<path d="M10,11c1.654,0,3-1.346,3-3s-1.346-3-3-3S7,6.346,7,8S8.346,11,10,11z M10,7c0.552,0,1,0.449,1,1s-0.448,1-1,1S9,8.551,9,8
	S9.448,7,10,7z"/>
</svg>
