<?xml version="1.0" encoding="utf-8"?>
<!-- Generator: Adobe Illustrator 20.1.0, SVG Export Plug-In . SVG Version: 6.00 Build 0)  -->
<!DOCTYPE svg PUBLIC "-//W3C//DTD SVG 1.1//EN" "http://www.w3.org/Graphics/SVG/1.1/DTD/svg11.dtd">
<svg version="1.1" id="Layer_1" xmlns="http://www.w3.org/2000/svg" xmlns:xlink="http://www.w3.org/1999/xlink" x="0px" y="0px"
	 width="24px" height="24px" viewBox="0 0 24 24" enable-background="new 0 0 24 24" xml:space="preserve">
<path d="M15.414,10H10v14h14V12h-6.586L15.414,10z M22,22H12V12h2.586l2,2H22V22z"/>
<polygon points="8,12 2,12 2,2 4.586,2 6.586,4 12,4 12,8 14,8 14,2 7.414,2 5.414,0 0,0 0,14 8,14 "/>
<path d="M23,8V7c0-3.309-2.691-6-6-6h-1v2h1c2.206,0,4,1.794,4,4v1H23z"/>
<path d="M1,16v1c0,3.309,2.691,6,6,6h1v-2H7c-2.206,0-4-1.794-4-4v-1H1z"/>
</svg>
