<?xml version="1.0" encoding="utf-8"?>
<!-- Generator: Adobe Illustrator 20.1.0, SVG Export Plug-In . SVG Version: 6.00 Build 0)  -->
<!DOCTYPE svg PUBLIC "-//W3C//DTD SVG 1.1//EN" "http://www.w3.org/Graphics/SVG/1.1/DTD/svg11.dtd">
<svg version="1.1" id="Layer_1" xmlns="http://www.w3.org/2000/svg" xmlns:xlink="http://www.w3.org/1999/xlink" x="0px" y="0px"
	 width="24px" height="24px" viewBox="0 0 24 24" enable-background="new 0 0 24 24" xml:space="preserve">
<path d="M1,24h22V0H1V24z M3,2h18v20H3V2z"/>
<path d="M15,10.5C15,8.019,12.981,6,10.5,6S6,8.019,6,10.5S8.019,15,10.5,15c0.879,0,1.693-0.263,2.386-0.7l3.407,3.407l1.414-1.414
	L14.3,12.886C14.737,12.193,15,11.379,15,10.5z M10.5,13C9.122,13,8,11.879,8,10.5S9.122,8,10.5,8S13,9.121,13,10.5
	S11.878,13,10.5,13z"/>
</svg>
