<?xml version="1.0" encoding="utf-8"?>
<!-- Generator: Adobe Illustrator 20.1.0, SVG Export Plug-In . SVG Version: 6.00 Build 0)  -->
<!DOCTYPE svg PUBLIC "-//W3C//DTD SVG 1.1//EN" "http://www.w3.org/Graphics/SVG/1.1/DTD/svg11.dtd">
<svg version="1.1" id="Layer_1" xmlns="http://www.w3.org/2000/svg" xmlns:xlink="http://www.w3.org/1999/xlink" x="0px" y="0px"
	 width="24px" height="24px" viewBox="0 0 24 24" enable-background="new 0 0 24 24" xml:space="preserve">
<path d="M9.5,0H0v24h24V4H12.5L9.5,0z M2,22v-1.519l4.082-3.266l5.073,3.044l5.789-5.788L22,20.37V22H2z M22,17.297l-4.943-5.768
	l-6.211,6.212l-4.927-2.956L2,17.919V2h6.5l3,4H22V17.297z"/>
<path d="M7,11c0,1.654,1.346,3,3,3s3-1.346,3-3s-1.346-3-3-3S7,9.346,7,11z M11,11c0,0.552-0.449,1-1,1s-1-0.448-1-1s0.449-1,1-1
	S11,10.448,11,11z"/>
</svg>
