<?xml version="1.0" encoding="utf-8"?>
<!-- Generator: Adobe Illustrator 20.1.0, SVG Export Plug-In . SVG Version: 6.00 Build 0)  -->
<!DOCTYPE svg PUBLIC "-//W3C//DTD SVG 1.1//EN" "http://www.w3.org/Graphics/SVG/1.1/DTD/svg11.dtd">
<svg version="1.1" id="Layer_1" xmlns="http://www.w3.org/2000/svg" xmlns:xlink="http://www.w3.org/1999/xlink" x="0px" y="0px"
	 width="24px" height="24px" viewBox="0 0 24 24" enable-background="new 0 0 24 24" xml:space="preserve">
<path d="M23,0H1v24h22V0z M21,22H3V2h18V22z"/>
<path d="M10,14.5H8c0,1.758,1.308,3.204,3,3.449V19h2v-1.051c1.692-0.245,3-1.691,3-3.449c0-2.131-1.6-2.864-3-3.267V8.092
	c0.581,0.207,1,0.757,1,1.408h2c0-1.758-1.308-3.204-3-3.449V5h-2v1.051C9.308,6.296,8,7.742,8,9.5c0,2.131,1.6,2.864,3,3.267v3.141
	C10.419,15.701,10,15.151,10,14.5z M14,14.5c0,0.651-0.419,1.201-1,1.408v-2.573C13.742,13.611,14,13.912,14,14.5z M10,9.5
	c0-0.651,0.419-1.201,1-1.408v2.573C10.258,10.389,10,10.088,10,9.5z"/>
</svg>
