<?xml version="1.0" encoding="utf-8"?>
<!-- Generator: Adobe Illustrator 20.1.0, SVG Export Plug-In . SVG Version: 6.00 Build 0)  -->
<!DOCTYPE svg PUBLIC "-//W3C//DTD SVG 1.1//EN" "http://www.w3.org/Graphics/SVG/1.1/DTD/svg11.dtd">
<svg version="1.1" id="Layer_1" xmlns="http://www.w3.org/2000/svg" xmlns:xlink="http://www.w3.org/1999/xlink" x="0px" y="0px"
	 width="24px" height="24px" viewBox="0 0 24 24" enable-background="new 0 0 24 24" xml:space="preserve">
<path d="M9.5,0H0v24h24V4H12.5L9.5,0z M22,22H2V2h6.5l3,4H22V22z"/>
<path d="M9.751,11.01C7.715,10.853,6,12.487,6,14.5C6,16.43,7.57,18,9.5,18h4c2.481,0,4.5-2.019,4.5-4.5S15.981,9,13.5,9
	C11.972,9,10.574,9.768,9.751,11.01z M11.197,12.526C11.59,11.599,12.494,11,13.5,11c1.379,0,2.5,1.121,2.5,2.5S14.879,16,13.5,16
	h-4C8.673,16,8,15.327,8,14.5S8.673,13,9.5,13c0.137,0,0.289,0.028,0.464,0.086l0.874,0.287L11.197,12.526z"/>
</svg>
