<?xml version="1.0" encoding="utf-8"?>
<!-- Generator: Adobe Illustrator 20.1.0, SVG Export Plug-In . SVG Version: 6.00 Build 0)  -->
<!DOCTYPE svg PUBLIC "-//W3C//DTD SVG 1.1//EN" "http://www.w3.org/Graphics/SVG/1.1/DTD/svg11.dtd">
<svg version="1.1" id="Layer_1" xmlns="http://www.w3.org/2000/svg" xmlns:xlink="http://www.w3.org/1999/xlink" x="0px" y="0px"
	 width="24px" height="24px" viewBox="0 0 24 24" enable-background="new 0 0 24 24" xml:space="preserve">
<path d="M1,24h22V0H1V24z M3,2h18v20H3V2z"/>
<path d="M5,11h6V5H5V11z M7,7h2v2H7V7z"/>
<path d="M13,11h6V5h-6V11z M15,7h2v2h-2V7z"/>
<path d="M5,19h6v-6H5V19z M7,15h2v2H7V15z"/>
<path d="M13,19h6v-6h-6V19z M15,15h2v2h-2V15z"/>
</svg>
