<?xml version="1.0" encoding="utf-8"?>
<!-- Generator: Adobe Illustrator 20.1.0, SVG Export Plug-In . SVG Version: 6.00 Build 0)  -->
<!DOCTYPE svg PUBLIC "-//W3C//DTD SVG 1.1//EN" "http://www.w3.org/Graphics/SVG/1.1/DTD/svg11.dtd">
<svg version="1.1" id="Layer_1" xmlns="http://www.w3.org/2000/svg" xmlns:xlink="http://www.w3.org/1999/xlink" x="0px" y="0px"
	 width="24px" height="24px" viewBox="0 0 24 24" enable-background="new 0 0 24 24" xml:space="preserve">
<path d="M23,0H1v24h22V0z M21,22H3V2h18V22z"/>
<path d="M8.5,19c1.379,0,2.5-1.122,2.5-2.5V8h5v5.051C15.838,13.018,15.671,13,15.5,13c-1.379,0-2.5,1.122-2.5,2.5
	s1.121,2.5,2.5,2.5s2.5-1.122,2.5-2.5V6H9v8.051C8.838,14.018,8.671,14,8.5,14C7.121,14,6,15.122,6,16.5S7.121,19,8.5,19z"/>
</svg>
