<?xml version="1.0" encoding="utf-8"?>
<!-- Generator: Adobe Illustrator 19.1.0, SVG Export Plug-In . SVG Version: 6.00 Build 0)  -->
<!DOCTYPE svg PUBLIC "-//W3C//DTD SVG 1.1//EN" "http://www.w3.org/Graphics/SVG/1.1/DTD/svg11.dtd">
<svg version="1.1" id="Layer_1" xmlns="http://www.w3.org/2000/svg" xmlns:xlink="http://www.w3.org/1999/xlink" x="0px" y="0px"
	 width="48px" height="48px" viewBox="0 0 48 48" enable-background="new 0 0 48 48" xml:space="preserve">
<path d="M44,39c0.6,0,1-0.4,1-1V27.2c0-1.1-0.4-2.1-1.2-2.8l-2.9-2.9l-1.5-9.2c-0.3-1.9-2-3.3-3.9-3.3H31V4c0-0.6-0.4-1-1-1H18
	c-0.6,0-1,0.4-1,1v5h-4.5c-2,0-3.6,1.4-3.9,3.3l-1.5,9.2l-2.9,2.9C3.4,25.2,3,26.2,3,27.2V38c0,0.6,0.4,1,1,1h1v5c0,0.6,0.4,1,1,1h7
	c0.6,0,1-0.4,1-1v-5h20v5c0,0.6,0.4,1,1,1h7c0.6,0,1-0.4,1-1v-5H44z M19,5h10v4H19V5z M10.6,12.7c0.2-1,1-1.7,2-1.7h22.9
	c1,0,1.8,0.7,2,1.7l1.4,8.3H9.2L10.6,12.7z M5,27.2c0-0.5,0.2-1,0.6-1.4L8.4,23h31.2l2.8,2.8c0.4,0.4,0.6,0.9,0.6,1.4V37H5V27.2z
	 M12,43H7v-4h5V43z M41,43h-5v-4h5V43z"/>
<path d="M10,33h7c0.6,0,1-0.4,1-1v-3c0-0.6-0.4-1-1-1h-7c-0.6,0-1,0.4-1,1v3C9,32.6,9.4,33,10,33z M11,30h5v1h-5V30z"/>
<path d="M31,33h7c0.6,0,1-0.4,1-1v-3c0-0.6-0.4-1-1-1h-7c-0.6,0-1,0.4-1,1v3C30,32.6,30.4,33,31,33z M32,30h5v1h-5V30z"/>
<path d="M23,33h2c0.6,0,1-0.4,1-1s-0.4-1-1-1h-2c-0.6,0-1,0.4-1,1S22.4,33,23,33z"/>
</svg>
