<?xml version="1.0" encoding="utf-8"?>
<!-- Generator: Adobe Illustrator 19.1.0, SVG Export Plug-In . SVG Version: 6.00 Build 0)  -->
<!DOCTYPE svg PUBLIC "-//W3C//DTD SVG 1.1//EN" "http://www.w3.org/Graphics/SVG/1.1/DTD/svg11.dtd">
<svg version="1.1" id="Layer_1" xmlns="http://www.w3.org/2000/svg" xmlns:xlink="http://www.w3.org/1999/xlink" x="0px" y="0px"
	 width="48px" height="48px" viewBox="0 0 48 48" enable-background="new 0 0 48 48" xml:space="preserve">
<path d="M12,28c-2.2,0-4,1.8-4,4s1.8,4,4,4s4-1.8,4-4S14.2,28,12,28z M12,34c-1.1,0-2-0.9-2-2s0.9-2,2-2s2,0.9,2,2S13.1,34,12,34z"
	/>
<path d="M41,29.1V26c0-2.8-2.2-5-5-5h-1v-5c0-0.6,0.4-1,1-1h2c0.6,0,1-0.4,1-1s-0.4-1-1-1h-2c-1.7,0-3,1.3-3,3v5h-4.2L25,5.8
	C24.9,5.3,24.5,5,24,5H12H8C7.4,5,7,5.4,7,6s0.4,1,1,1h3v14.1C5.4,21.6,1,26.3,1,32c0,6.1,4.9,11,11,11c4.3,0,8-2.4,9.8-6h11.3
	c0.5,3.4,3.4,6,6.9,6c3.9,0,7-3.1,7-7C47,32.5,44.4,29.6,41,29.1z M26.7,21H13V7h10.2L26.7,21z M12,41c-5,0-9-4-9-9s4-9,9-9s9,4,9,9
	S17,41,12,41z M18.3,23H36c1.7,0,3,1.3,3,3v3.1c-3.1,0.4-5.5,2.9-5.9,5.9H22.6c0.3-1,0.4-2,0.4-3C23,28.3,21.1,25,18.3,23z M40,41
	c-2.8,0-5-2.2-5-5c0-2.8,2.2-5,5-5c0,0,0,0,0,0s0,0,0,0c2.8,0,5,2.2,5,5C45,38.8,42.8,41,40,41z"/>
</svg>
