<?xml version="1.0" encoding="utf-8"?>
<!-- Generator: Adobe Illustrator 19.1.0, SVG Export Plug-In . SVG Version: 6.00 Build 0)  -->
<!DOCTYPE svg PUBLIC "-//W3C//DTD SVG 1.1//EN" "http://www.w3.org/Graphics/SVG/1.1/DTD/svg11.dtd">
<svg version="1.1" id="Layer_1" xmlns="http://www.w3.org/2000/svg" xmlns:xlink="http://www.w3.org/1999/xlink" x="0px" y="0px"
	 width="48px" height="48px" viewBox="0 0 48 48" enable-background="new 0 0 48 48" xml:space="preserve">
<path d="M12,24c-2.8,0-5,2.2-5,5s2.2,5,5,5s5-2.2,5-5S14.8,24,12,24z M12,32c-1.7,0-3-1.3-3-3s1.3-3,3-3s3,1.3,3,3S13.7,32,12,32z"
	/>
<path d="M36,24c-2.8,0-5,2.2-5,5s2.2,5,5,5s5-2.2,5-5S38.8,24,36,24z M36,32c-1.7,0-3-1.3-3-3s1.3-3,3-3s3,1.3,3,3S37.7,32,36,32z"
	/>
<path d="M46,19H8c-2.8,0-5-2.2-5-5c0-0.6-0.4-1-1-1s-1,0.4-1,1c0,3.9,3.1,7,7,7h38c0.6,0,1-0.4,1-1S46.6,19,46,19z"/>
</svg>
