<?xml version="1.0" encoding="utf-8"?>
<!-- Generator: Adobe Illustrator 19.1.0, SVG Export Plug-In . SVG Version: 6.00 Build 0)  -->
<!DOCTYPE svg PUBLIC "-//W3C//DTD SVG 1.1//EN" "http://www.w3.org/Graphics/SVG/1.1/DTD/svg11.dtd">
<svg version="1.1" id="Layer_1" xmlns="http://www.w3.org/2000/svg" xmlns:xlink="http://www.w3.org/1999/xlink" x="0px" y="0px"
	 width="48px" height="48px" viewBox="0 0 48 48" enable-background="new 0 0 48 48" xml:space="preserve">
<path d="M40,17h-6.1l-7-11.5C26.7,5.2,26.3,5,26,5H16c-0.4,0-0.7,0.2-0.9,0.5s-0.2,0.7,0,1L21.6,17h-7L12,13.2
	C11.1,11.8,9.5,11,7.9,11H4c-0.3,0-0.6,0.1-0.8,0.4C3,11.6,3,11.9,3,12.2l4,18C7.1,30.7,7.5,31,8,31h14.1l-7,10.4
	c-0.2,0.3-0.2,0.7,0,1S15.6,43,16,43h10c0.3,0,0.6-0.2,0.8-0.4L34.5,31H40c3.9,0,7-3.1,7-7C47,20.1,43.9,17,40,17z M17.8,7h7.7
	l6.1,10h-7.7L17.8,7z M40,29h-6c-0.3,0-0.6,0.2-0.8,0.4L25.5,41h-7.6l7-10.4c0.2-0.3,0.2-0.7,0-1S24.4,29,24,29H8.8L5.2,13h2.6
	c1,0,1.9,0.5,2.5,1.3l2.8,4.2c0.2,0.3,0.5,0.4,0.8,0.4h26c2.8,0,5,2.2,5,5S42.8,29,40,29z"/>
</svg>
