<?xml version="1.0" encoding="utf-8"?>
<!-- Generator: Adobe Illustrator 19.1.0, SVG Export Plug-In . SVG Version: 6.00 Build 0)  -->
<!DOCTYPE svg PUBLIC "-//W3C//DTD SVG 1.1//EN" "http://www.w3.org/Graphics/SVG/1.1/DTD/svg11.dtd">
<svg version="1.1" id="Layer_1" xmlns="http://www.w3.org/2000/svg" xmlns:xlink="http://www.w3.org/1999/xlink" x="0px" y="0px"
	 width="48px" height="48px" viewBox="0 0 48 48" enable-background="new 0 0 48 48" xml:space="preserve">
<path d="M37,20l-1.8-10H40c1.1,0,2,0.9,2,2s-0.9,2-2,2c-0.6,0-1,0.4-1,1s0.4,1,1,1c2.2,0,4-1.8,4-4s-1.8-4-4-4H30c-0.6,0-1,0.4-1,1
	s0.4,1,1,1h3.2l1.1,6H14c-0.4,0-0.8,0.3-1,0.7l-1,3.3C11.7,20,11.4,20,11,20C5.5,20,1,24.5,1,30s4.5,10,10,10s10-4.5,10-10
	c0-4.5-2.9-8.2-7-9.5l0.7-2.5h19.9l0.4,2.2c-4.6,0.9-8,5-8,9.8c0,5.5,4.5,10,10,10s10-4.5,10-10C47,24.5,42.5,20,37,20z M19,30
	c0,4.4-3.6,8-8,8s-8-3.6-8-8s3.6-8,8-8c0.2,0,0.3,0,0.5,0L9,30.7c-0.2,0.5,0.2,1.1,0.7,1.2c0.1,0,0.2,0,0.3,0c0.4,0,0.8-0.3,1-0.7
	l2.5-8.9C16.7,23.5,19,26.5,19,30z M37,38c-4.4,0-8-3.6-8-8c0-3.9,2.7-7.1,6.4-7.8l1.6,9c0.1,0.5,0.5,0.8,1,0.8c0.1,0,0.1,0,0.2,0
	c0.5-0.1,0.9-0.6,0.8-1.2L37.4,22c4.2,0.2,7.6,3.7,7.6,8C45,34.4,41.4,38,37,38z"/>
<path d="M18,12c0.6,0,1-0.4,1-1s-0.4-1-1-1h-8c-0.6,0-1,0.4-1,1s0.4,1,1,1H18z"/>
</svg>
