<?xml version="1.0" encoding="utf-8"?>
<!-- Generator: Adobe Illustrator 19.1.0, SVG Export Plug-In . SVG Version: 6.00 Build 0)  -->
<!DOCTYPE svg PUBLIC "-//W3C//DTD SVG 1.1//EN" "http://www.w3.org/Graphics/SVG/1.1/DTD/svg11.dtd">
<svg version="1.1" id="Layer_1" xmlns="http://www.w3.org/2000/svg" xmlns:xlink="http://www.w3.org/1999/xlink" x="0px" y="0px"
	 width="48px" height="48px" viewBox="0 0 48 48" enable-background="new 0 0 48 48" xml:space="preserve">
<path d="M5.1,42.3C5.2,42.7,5.6,43,6,43h30c0.3,0,0.5-0.1,0.7-0.3l6-6c0.3-0.3,0.4-0.7,0.2-1.1C42.8,35.2,42.4,35,42,35H4
	c-0.3,0-0.6,0.2-0.8,0.4C3,35.7,2.9,36,3.1,36.3L5.1,42.3z M39.6,37l-4,4H6.7l-1.3-4H39.6z"/>
<path d="M6,31h18c0.6,0,1-0.4,1-1V6c0-0.4-0.3-0.8-0.7-0.9c-0.4-0.1-0.9,0-1.1,0.3l-18,24c-0.2,0.3-0.3,0.7-0.1,1S5.6,31,6,31z
	 M23,9v20H8L23,9z"/>
</svg>
