<?xml version="1.0" encoding="utf-8"?>
<!-- Generator: Adobe Illustrator 19.1.0, SVG Export Plug-In . SVG Version: 6.00 Build 0)  -->
<!DOCTYPE svg PUBLIC "-//W3C//DTD SVG 1.1//EN" "http://www.w3.org/Graphics/SVG/1.1/DTD/svg11.dtd">
<svg version="1.1" id="Layer_1" xmlns="http://www.w3.org/2000/svg" xmlns:xlink="http://www.w3.org/1999/xlink" x="0px" y="0px"
	 width="48px" height="48px" viewBox="0 0 48 48" enable-background="new 0 0 48 48" xml:space="preserve">
<path d="M16.3,3c-0.5-0.2-1.1,0.1-1.2,0.7l-12,40c-0.2,0.5,0.1,1.1,0.7,1.2c0.1,0,0.2,0,0.3,0c0.4,0,0.8-0.3,1-0.7l12-40
	C17.1,3.8,16.8,3.2,16.3,3z"/>
<path d="M33,3.7c-0.2-0.5-0.7-0.8-1.2-0.7c-0.5,0.2-0.8,0.7-0.7,1.2l12,40c0.1,0.4,0.5,0.7,1,0.7c0.1,0,0.2,0,0.3,0
	c0.5-0.2,0.8-0.7,0.7-1.2L33,3.7z"/>
<path d="M24,9c-0.6,0-1,0.4-1,1v4c0,0.6,0.4,1,1,1s1-0.4,1-1v-4C25,9.4,24.6,9,24,9z"/>
<path d="M24,21c-0.6,0-1,0.4-1,1v4c0,0.6,0.4,1,1,1s1-0.4,1-1v-4C25,21.4,24.6,21,24,21z"/>
<path d="M24,33c-0.6,0-1,0.4-1,1v4c0,0.6,0.4,1,1,1s1-0.4,1-1v-4C25,33.4,24.6,33,24,33z"/>
</svg>
