<?xml version="1.0" encoding="utf-8"?>
<!-- Generator: Adobe Illustrator 19.1.0, SVG Export Plug-In . SVG Version: 6.00 Build 0)  -->
<!DOCTYPE svg PUBLIC "-//W3C//DTD SVG 1.1//EN" "http://www.w3.org/Graphics/SVG/1.1/DTD/svg11.dtd">
<svg version="1.1" id="Layer_1" xmlns="http://www.w3.org/2000/svg" xmlns:xlink="http://www.w3.org/1999/xlink" x="0px" y="0px"
	 width="48px" height="48px" viewBox="0 0 48 48" enable-background="new 0 0 48 48" xml:space="preserve">
<path d="M24.4,1C18.2,0.9,12.3,3.2,7.9,7.6C3.4,11.9,1,17.8,1,24v16c0,0.3,0.1,0.6,0.4,0.8C1.6,40.9,1.8,41,2,41c0.1,0,0.2,0,0.2,0
	l21.5-5.1c2.2,2.8,5.5,4.7,9.3,5V46c0,0.6,0.4,1,1,1s1-0.4,1-1v-5.1c6.7-0.5,12-6.1,12-12.9v-3.3C47,11.9,36.9,1.2,24.4,1z M3,38.7
	V25h15c1.7,0,3,1.3,3,3c0,2.2,0.6,4.3,1.5,6.1L3,38.7z M34,33c-0.6,0-1-0.4-1-1s0.4-1,1-1s1,0.4,1,1S34.6,33,34,33z M45,28
	c0,5.7-4.4,10.4-10,10.9v-4.1c1.2-0.4,2-1.5,2-2.8c0-1.7-1.3-3-3-3s-3,1.3-3,3c0,1.3,0.8,2.4,2,2.8v4.1c-5.6-0.5-10-5.2-10-10.9
	c0-2.8-2.2-5-5-5H3c0.2-5.3,2.4-10.2,6.3-14c4.1-4,9.4-6.1,15.1-6C35.8,3.2,45,13,45,24.7V28z"/>
</svg>
