<?xml version="1.0" encoding="utf-8"?>
<!-- Generator: Adobe Illustrator 19.1.0, SVG Export Plug-In . SVG Version: 6.00 Build 0)  -->
<!DOCTYPE svg PUBLIC "-//W3C//DTD SVG 1.1//EN" "http://www.w3.org/Graphics/SVG/1.1/DTD/svg11.dtd">
<svg version="1.1" id="Layer_1" xmlns="http://www.w3.org/2000/svg" xmlns:xlink="http://www.w3.org/1999/xlink" x="0px" y="0px"
	 width="48px" height="48px" viewBox="0 0 48 48" enable-background="new 0 0 48 48" xml:space="preserve">
<path d="M44.7,32.8L39.9,17H43c0.6,0,1-0.4,1-1V8c0-0.6-0.4-1-1-1h-4c-2.8,0-5,2.2-5,5c0,0.3,0,0.7,0.1,1H33V6c0-1.7-1.3-3-3-3h-4
	c-0.6,0-1,0.4-1,1s0.4,1,1,1h4c0.6,0,1,0.4,1,1v8v12c0,1.7-1.3,3-3,3h-4c-1.7,0-3-1.3-3-3v-6v-4c0-2.8-2.2-5-5-5H6c-2.8,0-5,2.2-5,5
	v4v14c0,2.4,1.8,4.5,4.1,4.9C5.5,42.3,8.4,45,12,45c3.5,0,6.4-2.6,6.9-6h14.2c0.5,3.4,3.4,6,6.9,6c3.9,0,7-3.1,7-7
	C47,35.9,46.1,34.1,44.7,32.8z M39,9h3v6h-3c-1.7,0-3-1.3-3-3S37.3,9,39,9z M3,16c0-1.7,1.3-3,3-3h10c1.7,0,3,1.3,3,3v3H3V16z M3,34
	V21h16v5c0,2.8,2.2,5,5,5h4c2.8,0,5-2.2,5-5V15h2c0.7,0.9,1.6,1.5,2.8,1.8l4.4,14.5C41.5,31.1,40.8,31,40,31c-3.5,0-6.4,2.6-6.9,6
	H18.9c-0.5-3.4-3.4-6-6.9-6c-3.5,0-6.3,2.5-6.9,5.8C3.9,36.5,3,35.3,3,34z M12,43c-2.8,0-5-2.2-5-5s2.2-5,5-5s5,2.2,5,5
	S14.8,43,12,43z M40,43c-2.8,0-5-2.2-5-5s2.2-5,5-5s5,2.2,5,5S42.8,43,40,43z"/>
</svg>
