<?xml version="1.0" encoding="utf-8"?>
<!-- Generator: Adobe Illustrator 19.1.0, SVG Export Plug-In . SVG Version: 6.00 Build 0)  -->
<!DOCTYPE svg PUBLIC "-//W3C//DTD SVG 1.1//EN" "http://www.w3.org/Graphics/SVG/1.1/DTD/svg11.dtd">
<svg version="1.1" id="Layer_1" xmlns="http://www.w3.org/2000/svg" xmlns:xlink="http://www.w3.org/1999/xlink" x="0px" y="0px"
	 width="48px" height="48px" viewBox="0 0 48 48" enable-background="new 0 0 48 48" xml:space="preserve">
<path d="M46,7c-7.92285,0-14.7641,4.64252-18,11.33984v-1.37079c0.62-0.8327,1-1.85352,1-2.96906
	c0-1.60028-0.76941-3.01141-1.94287-3.92725c0.4599-3.33618,1.4386-5.31512,3.62256-7.33936
	c0.40527-0.375,0.4292-1.00781,0.05371-1.41309c-0.37646-0.40625-1.00879-0.42969-1.41309-0.05371
	c-2.36029,2.18713-3.57648,4.47632-4.1488,7.88654C24.79388,9.06165,24.40527,9,24,9s-0.79388,0.06165-1.17151,0.15314
	c-0.57233-3.41022-1.78851-5.6994-4.1488-7.88654c-0.4043-0.37598-1.0376-0.35254-1.41309,0.05371
	c-0.37549,0.40527-0.35156,1.03809,0.05371,1.41309c2.18396,2.02423,3.16266,4.00317,3.62256,7.33936
	C19.76941,10.98859,19,12.39972,19,14c0,1.11554,0.38,2.13635,1,2.96906v1.37079C16.7641,11.64252,9.92285,7,2,7
	C1.44775,7,1,7.44727,1,8v12c0,5.0929,3.48401,9.37604,8.19025,10.62262C7.25708,32.08429,6,34.3952,6,37c0,4.41113,3.58887,8,8,8
	c2.39008,0,4.53278-1.05914,6-2.72626V43c0,2.20605,1.79443,4,4,4s4-1.79395,4-4v-0.72626C29.46722,43.94086,31.60992,45,34,45
	c4.41113,0,8-3.58887,8-8c0-2.6048-1.25708-4.91571-3.19025-6.37738C43.51599,29.37604,47,25.0929,47,20V8
	C47,7.44727,46.55225,7,46,7z M27,14c0,1.6543-1.3457,3-3,3s-3-1.3457-3-3s1.3457-3,3-3S27,12.3457,27,14z M12,29
	c-4.9624,0-9-4.03711-9-9V9.02734C12.46191,9.54785,20,17.41016,20,27v2H12z M14,43c-3.30859,0-6-2.69141-6-6s2.69141-6,6-6h6v6
	C20,40.30859,17.30859,43,14,43z M26,43c0,1.10254-0.89697,2-2,2s-2-0.89746-2-2V30v-3v-8.42383
	C22.61359,18.84552,23.28821,19,24,19s1.38641-0.15448,2-0.42383V27v3V43z M40,37c0,3.30859-2.69141,6-6,6s-6-2.69141-6-6v-6h6
	C37.30859,31,40,33.69141,40,37z M45,20c0,4.96289-4.0376,9-9,9h-8v-2c0-9.58984,7.53809-17.45215,17-17.97266V20z"/>
</svg>
