<?xml version="1.0" encoding="utf-8"?>
<!-- Generator: Adobe Illustrator 19.1.0, SVG Export Plug-In . SVG Version: 6.00 Build 0)  -->
<!DOCTYPE svg PUBLIC "-//W3C//DTD SVG 1.1//EN" "http://www.w3.org/Graphics/SVG/1.1/DTD/svg11.dtd">
<svg version="1.1" id="Layer_1" xmlns="http://www.w3.org/2000/svg" xmlns:xlink="http://www.w3.org/1999/xlink" x="0px" y="0px"
	 width="48px" height="48px" viewBox="0 0 48 48" enable-background="new 0 0 48 48" xml:space="preserve">
<path d="M11.4834,22.18896c-0.76709,2.26611-0.33496,4.58691,1.20312,6.12451c1.5376,1.53906,3.86035,1.9707,6.12451,1.20312
	c0.89313,1.81097,2.42365,3.03467,4.18896,3.37646V44v2c0,0.55225,0.44775,1,1,1h1c4.9624,0,9-4.0376,9-9v-2
	c0-0.55225-0.44775-1-1-1h-1c-2.82593,0-5.34875,1.31195-7,3.35583v-5.46277c1.76532-0.34174,3.29584-1.56549,4.18896-3.37646
	c2.26465,0.76709,4.58691,0.33545,6.12451-1.20312c1.53809-1.5376,1.97021-3.8584,1.20312-6.12451
	C38.66309,21.13037,40,19.18066,40,17s-1.33691-4.13037-3.4834-5.18896c0.76709-2.26611,0.33496-4.58691-1.20312-6.12451
	c-1.5376-1.53809-3.85889-1.97021-6.12451-1.20312C28.13037,2.33691,26.18066,1,24,1s-4.13037,1.33691-5.18896,3.4834
	c-2.26514-0.76758-4.58691-0.33545-6.12451,1.20312c-1.53809,1.5376-1.97021,3.8584-1.20312,6.12451
	C9.33691,12.86963,8,14.81934,8,17S9.33691,21.13037,11.4834,22.18896z M32,37v1c0,3.85986-3.14014,7-7,7v-1
	C25,40.14014,28.14014,37,32,37z M13.10596,13.30371c0.27588-0.09131,0.49902-0.29785,0.61035-0.56641
	s0.1001-0.57227-0.03027-0.83203c-0.8916-1.77539-0.729-3.66162,0.41455-4.80469c1.14404-1.14355,3.03027-1.30566,4.80469-0.41455
	c0.25977,0.12988,0.5625,0.1416,0.83203,0.03027c0.26855-0.11133,0.4751-0.33447,0.56641-0.61035C20.92627,4.21924,22.37744,3,24,3
	s3.07373,1.21924,3.69629,3.10596c0.09131,0.27588,0.29785,0.49902,0.56641,0.61035s0.57324,0.09961,0.83203-0.03027
	c1.7749-0.89111,3.66113-0.72949,4.80469,0.41455c1.14355,1.14307,1.30615,3.0293,0.41455,4.80469
	c-0.13037,0.25977-0.1416,0.56348-0.03027,0.83203s0.33447,0.4751,0.61035,0.56641C36.78076,13.92627,38,15.37744,38,17
	s-1.21924,3.07373-3.10596,3.69629c-0.27588,0.09131-0.49902,0.29785-0.61035,0.56641s-0.1001,0.57227,0.03027,0.83203
	c0.8916,1.77539,0.729,3.66162-0.41455,4.80469c-1.14404,1.14453-3.02832,1.30664-4.80469,0.41455
	c-0.25879-0.13037-0.56348-0.14111-0.83203-0.03027c-0.26855,0.11133-0.4751,0.33447-0.56641,0.61035
	C27.07373,29.78076,25.62256,31,24,31s-3.07373-1.21924-3.69629-3.10596c-0.09131-0.27588-0.29785-0.49902-0.56641-0.61035
	c-0.12305-0.05078-0.25342-0.07617-0.3833-0.07617c-0.1543,0-0.30811,0.03564-0.44873,0.10645
	c-1.77441,0.8916-3.66162,0.72852-4.80469-0.41455c-1.14355-1.14307-1.30615-3.0293-0.41455-4.80469
	c0.13037-0.25977,0.1416-0.56348,0.03027-0.83203s-0.33447-0.4751-0.61035-0.56641C11.21924,20.07373,10,18.62256,10,17
	S11.21924,13.92627,13.10596,13.30371z"/>
<path d="M24,22c2.75684,0,5-2.24316,5-5s-2.24316-5-5-5s-5,2.24316-5,5S21.24316,22,24,22z M24,14c1.6543,0,3,1.3457,3,3
	s-1.3457,3-3,3s-3-1.3457-3-3S22.3457,14,24,14z"/>
</svg>
