<?xml version="1.0" encoding="utf-8"?>
<!-- Generator: Adobe Illustrator 19.1.0, SVG Export Plug-In . SVG Version: 6.00 Build 0)  -->
<!DOCTYPE svg PUBLIC "-//W3C//DTD SVG 1.1//EN" "http://www.w3.org/Graphics/SVG/1.1/DTD/svg11.dtd">
<svg version="1.1" id="Layer_1" xmlns="http://www.w3.org/2000/svg" xmlns:xlink="http://www.w3.org/1999/xlink" x="0px" y="0px"
	 width="48px" height="48px" viewBox="0 0 48 48" enable-background="new 0 0 48 48" xml:space="preserve">
<path d="M17,11c-3.30859,0-6,2.69141-6,6s2.69141,6,6,6s6-2.69141,6-6S20.30859,11,17,11z M17,21c-2.20605,0-4-1.79395-4-4
	s1.79395-4,4-4s4,1.79395,4,4S19.20605,21,17,21z"/>
<path d="M40.24316,8.07031C37.45215,5.42969,31.62891,1,24,1C11.41309,1,1,13.5791,1,20c0,3.34302,4.68512,6.26385,11.61749,7.8158
	l-0.85187,4.2594c-0.73633,3.68066,0.20605,7.45508,2.58496,10.35742C16.73047,45.33496,20.24707,47,24,47
	s7.26953-1.66504,9.64941-4.56738c2.37891-2.90234,3.32129-6.67676,2.58496-10.35742l-0.84424-4.22186
	C42.37378,26.32538,47,23.41394,47,20C47,16.68652,44.28516,11.89258,40.24316,8.07031z M41.84821,12.82111
	C40.21576,14.22931,38.16943,15,36,15c-4.96289,0-9-4.03711-9-9c0-0.89813,0.14069-1.7868,0.41138-2.65302
	C33.409,4.53729,38.67798,8.65417,41.84821,12.82111z M34.27344,32.46777c0.61816,3.08984-0.17285,6.25977-2.1709,8.69727
	S27.15137,45,24,45s-6.10449-1.39746-8.10254-3.83496s-2.78906-5.60742-2.1709-8.69727l0.85211-4.26068
	C17.4563,28.7149,20.64368,29,24,29c3.37909,0,6.56305-0.27362,9.42706-0.76489L34.27344,32.46777z M34.03833,26.07025
	c-0.00842,0.00153-0.01624-0.00165-0.02466,0.00006c-0.00671,0.00134-0.01147,0.00616-0.01813,0.00763
	C31.05902,26.65186,27.67419,27,24,27c-3.65448,0-7.05267-0.36078-10.008-0.95276c-0.00031-0.00006-0.00049-0.00031-0.00079-0.00037
	c-0.00037-0.00006-0.00073,0.00006-0.0011,0C7.38196,24.7229,3,22.23682,3,20c0-5.59766,9.7207-17,21-17
	c0.47437,0,0.9447,0.02722,1.41296,0.06628C25.1438,4.02606,25,5.00757,25,6c0,6.06543,4.93457,11,11,11
	c2.58313,0,5.02454-0.89124,6.99268-2.52594C44.27283,16.51483,45,18.47357,45,20C45,22.28967,40.68445,24.76453,34.03833,26.07025z
	"/>
</svg>
