<?xml version="1.0" encoding="utf-8"?>
<!-- Generator: Adobe Illustrator 19.1.0, SVG Export Plug-In . SVG Version: 6.00 Build 0)  -->
<!DOCTYPE svg PUBLIC "-//W3C//DTD SVG 1.1//EN" "http://www.w3.org/Graphics/SVG/1.1/DTD/svg11.dtd">
<svg version="1.1" id="Layer_1" xmlns="http://www.w3.org/2000/svg" xmlns:xlink="http://www.w3.org/1999/xlink" x="0px" y="0px"
	 width="48px" height="48px" viewBox="0 0 48 48" enable-background="new 0 0 48 48" xml:space="preserve">
<path d="M12,37h11v8h-9c-0.55225,0-1,0.44775-1,1s0.44775,1,1,1h20c0.55225,0,1-0.44775,1-1s-0.44775-1-1-1h-9v-8h11
	c4.9624,0,9-4.0376,9-9c0-4.80811-3.79053-8.74756-8.53955-8.98828C36.81885,18.03857,37,17.03076,37,16
	c0-4.71924-3.65039-8.60156-8.27637-8.97119C27.83398,3.53809,24.65186,1,21,1c-4.41113,0-8,3.58887-8,8
	c0,0.47314,0.05029,0.94775,0.15527,1.45654C10.57373,12.10791,9,14.93164,9,18c0,0.47754,0.0459,0.95801,0.1416,1.46924
	C5.52881,20.68164,3,24.12012,3,28C3,32.9624,7.0376,37,12,37z M10.54492,21.15625c0.271-0.05762,0.50635-0.22461,0.64941-0.4624
	c0.14307-0.2373,0.18115-0.52344,0.10547-0.78955C11.09521,19.18555,11,18.58057,11,18c0-2.58594,1.44531-4.95117,3.77197-6.17139
	c0.42139-0.22119,0.62891-0.7085,0.49561-1.16504C15.08496,10.03564,15,9.50732,15,9c0-3.30859,2.69141-6,6-6
	c2.94971,0,5.49072,2.21436,5.91064,5.15137C26.98828,8.69482,27.50537,9.07178,28.05127,9C31.88721,9.02783,35,12.15723,35,16
	c0,1.20996-0.32764,2.38672-0.97363,3.49707c-0.18018,0.30908-0.18115,0.69141-0.00244,1.00146
	C34.20215,20.80859,34.53271,21,34.89062,21H36c3.85986,0,7,3.14014,7,7s-3.14014,7-7,7H25v-3.58594l4.70703-4.70703
	c0.39062-0.39062,0.39062-1.02344,0-1.41406s-1.02344-0.39062-1.41406,0L25,28.58594V17c0-0.55225-0.44775-1-1-1s-1,0.44775-1,1
	v6.58594l-3.29297-3.29297c-0.39062-0.39062-1.02344-0.39062-1.41406,0s-0.39062,1.02344,0,1.41406L23,26.41406V35H12
	c-3.85986,0-7-3.14014-7-7C5,24.71387,7.33203,21.83545,10.54492,21.15625z"/>
</svg>
