<?xml version="1.0" encoding="utf-8"?>
<!-- Generator: Adobe Illustrator 19.1.0, SVG Export Plug-In . SVG Version: 6.00 Build 0)  -->
<!DOCTYPE svg PUBLIC "-//W3C//DTD SVG 1.1//EN" "http://www.w3.org/Graphics/SVG/1.1/DTD/svg11.dtd">
<svg version="1.1" id="Layer_1" xmlns="http://www.w3.org/2000/svg" xmlns:xlink="http://www.w3.org/1999/xlink" x="0px" y="0px"
	 width="48px" height="48px" viewBox="0 0 48 48" enable-background="new 0 0 48 48" xml:space="preserve">
<path d="M46,1h-5.99902c-0.40918,0-0.77637,0.24902-0.92871,0.62842L36,9.30762l-3.07031-7.67871
	C32.77734,1.24902,32.41016,1,32.00098,1H16c-0.55273,0-1,0.44775-1,1v20l-6.40039-4.7998
	c-0.39746-0.29834-0.95605-0.25977-1.30664,0.09277l-4,4c-0.35156,0.35205-0.3916,0.90869-0.09277,1.30713L15,38.3335V46
	c0,0.55225,0.44727,1,1,1h30c0.55273,0,1-0.44775,1-1V2C47,1.44775,46.55273,1,46,1z M45,45H27V32c0-0.55225-0.44727-1-1-1
	s-1,0.44775-1,1v13h-8v-7c0-0.21631-0.07031-0.42676-0.2002-0.6001L5.32031,22.09375l2.77344-2.77344l7.30664,5.47949
	c0.30273,0.22705,0.70801,0.26367,1.04688,0.09473C16.78613,24.7251,17,24.37891,17,24V3h14.32422l3.74707,9.37109
	C35.22363,12.75098,35.59082,13,36,13s0.77637-0.24902,0.92871-0.62842L40.67773,3H45V45z"/>
<path d="M26,21c-0.55273,0-1,0.44775-1,1v2c0,0.55225,0.44727,1,1,1s1-0.44775,1-1v-2C27,21.44775,26.55273,21,26,21z"/>
</svg>
