<?xml version="1.0" encoding="utf-8"?>
<!-- Generator: Adobe Illustrator 19.1.0, SVG Export Plug-In . SVG Version: 6.00 Build 0)  -->
<!DOCTYPE svg PUBLIC "-//W3C//DTD SVG 1.1//EN" "http://www.w3.org/Graphics/SVG/1.1/DTD/svg11.dtd">
<svg version="1.1" id="Layer_1" xmlns="http://www.w3.org/2000/svg" xmlns:xlink="http://www.w3.org/1999/xlink" x="0px" y="0px"
	 width="48px" height="48px" viewBox="0 0 48 48" enable-background="new 0 0 48 48" xml:space="preserve">
<path d="M3.12549,40.48438C3.30176,40.80273,3.63623,41,4,41h40c0.36377,0,0.69824-0.19727,0.87451-0.51562
	c0.17627-0.31738,0.16602-0.70605-0.02637-1.01465L38.30444,29H44c0.36621,0,0.70312-0.2002,0.87842-0.52246
	c0.17529-0.32129,0.16016-0.71289-0.03906-1.02051l-11-17.00049C33.65527,10.17188,33.33936,10,33,10
	s-0.65527,0.17188-0.83936,0.45654l-2.77032,4.28107l-4.54218-7.2674c-0.36621-0.58496-1.33008-0.58496-1.69629,0l-4.54236,7.2677
	l-2.77014-4.28137c-0.36816-0.56934-1.31055-0.56934-1.67871,0l-11,17.00049c-0.19922,0.30762-0.21436,0.69922-0.03906,1.02051
	C3.29688,28.7998,3.63379,29,4,29h5.69556l-6.5437,10.46973C2.95947,39.77832,2.94922,40.16699,3.12549,40.48438z M33,12.84082
	L42.16162,27h-5.10718l-6.49377-10.38989L33,12.84082z M24,9.88672L29.6958,19H18.3042L24,9.88672z M5.83838,27L15,12.84082
	l2.43909,3.76965L10.94556,27H5.83838z M17.0542,21h13.8916l11.25,18H5.8042L17.0542,21z"/>
</svg>
