<?xml version="1.0" encoding="utf-8"?>
<!-- Generator: Adobe Illustrator 19.1.0, SVG Export Plug-In . SVG Version: 6.00 Build 0)  -->
<!DOCTYPE svg PUBLIC "-//W3C//DTD SVG 1.1//EN" "http://www.w3.org/Graphics/SVG/1.1/DTD/svg11.dtd">
<svg version="1.1" id="Layer_1" xmlns="http://www.w3.org/2000/svg" xmlns:xlink="http://www.w3.org/1999/xlink" x="0px" y="0px"
	 width="48px" height="48px" viewBox="0 0 48 48" enable-background="new 0 0 48 48" xml:space="preserve">
<path d="M4,27h10.59613L9.08398,39.59912c-0.13525,0.30908-0.10547,0.66602,0.0791,0.94824S9.6626,41,10,41h13v5
	c0,0.55225,0.44775,1,1,1s1-0.44775,1-1v-5h13c0.3374,0,0.65234-0.17041,0.83691-0.45264s0.21436-0.63916,0.0791-0.94824
	L33.40393,27H44c0.34668,0,0.66846-0.17969,0.85059-0.47412c0.18213-0.29492,0.19873-0.66309,0.04395-0.97314l-10-20
	c-0.33887-0.67773-1.4502-0.67773-1.78906,0l-4.84509,9.69061l-3.34436-7.64423C24.75684,7.23535,24.39746,7,24,7
	s-0.75684,0.23535-0.91602,0.59912l-3.34436,7.64423l-4.84509-9.69061c-0.33887-0.67773-1.4502-0.67773-1.78906,0l-10,20
	c-0.15479,0.31006-0.13818,0.67822,0.04395,0.97314C3.33154,26.82031,3.65332,27,4,27z M34,8.23633L42.38184,25h-9.85291
	l-3.22491-7.37122L34,8.23633z M24,10.49512l6.95343,15.89313c0.00031,0.00067,0.00055,0.00128,0.00085,0.00195L36.47119,39
	H11.52881l5.51691-12.6098c0.00031-0.00067,0.00055-0.00128,0.00085-0.00195L24,10.49512z M14,8.23633l4.69598,9.39246L15.47113,25
	H5.61816L14,8.23633z"/>
</svg>
