<?xml version="1.0" encoding="utf-8"?>
<!-- Generator: Adobe Illustrator 19.1.0, SVG Export Plug-In . SVG Version: 6.00 Build 0)  -->
<!DOCTYPE svg PUBLIC "-//W3C//DTD SVG 1.1//EN" "http://www.w3.org/Graphics/SVG/1.1/DTD/svg11.dtd">
<svg version="1.1" id="Layer_1" xmlns="http://www.w3.org/2000/svg" xmlns:xlink="http://www.w3.org/1999/xlink" x="0px" y="0px"
	 width="48px" height="48px" viewBox="0 0 48 48" enable-background="new 0 0 48 48" xml:space="preserve">
<path d="M46,45H34.94434C34.44531,40.50635,30.625,37,26,37c-0.33801,0-0.66992,0.02991-1,0.06647V33h1c6.06543,0,11-4.93457,11-11
	v-4c0-0.55225-0.44727-1-1-1h-2c-3.71985,0-7.00824,1.86072-9,4.69525V18V2c0-0.55225-0.44727-1-1-1s-1,0.44775-1,1v9.69525
	C21.00824,8.86072,17.71985,7,14,7h-2c-0.55273,0-1,0.44775-1,1v4c0,6.06543,4.93457,11,11,11h1v5v4v5.53137
	c-2.00702,0.70959-3.72131,2.10168-4.80078,3.99158C17.51562,41.18164,16.76367,41,16,41c-2.41504,0-4.43457,1.7207-4.89941,4H2
	c-0.55273,0-1,0.44775-1,1s0.44727,1,1,1h10c0.55273,0,1-0.44775,1-1c0-1.6543,1.3457-3,3-3
	c0.89941,0,1.55469,0.40186,1.94531,0.73926c0.24414,0.21094,0.57617,0.29102,0.88672,0.21484
	c0.31348-0.0752,0.57031-0.29639,0.69238-0.59424C20.60547,40.71143,23.14746,39,26,39c3.85938,0,7,3.14014,7,7
	c0,0.55225,0.44727,1,1,1h12c0.55273,0,1-0.44775,1-1S46.55273,45,46,45z M34,19h1v3c0,4.9624-4.03711,9-9,9h-1v-3
	C25,23.0376,29.03711,19,34,19z M22,21c-4.96289,0-9-4.0376-9-9V9h1c4.96289,0,9,4.0376,9,9v3H22z"/>
</svg>
