<?xml version="1.0" encoding="utf-8"?>
<!-- Generator: Adobe Illustrator 19.1.0, SVG Export Plug-In . SVG Version: 6.00 Build 0)  -->
<!DOCTYPE svg PUBLIC "-//W3C//DTD SVG 1.1//EN" "http://www.w3.org/Graphics/SVG/1.1/DTD/svg11.dtd">
<svg version="1.1" id="Layer_1" xmlns="http://www.w3.org/2000/svg" xmlns:xlink="http://www.w3.org/1999/xlink" x="0px" y="0px"
	 width="48px" height="48px" viewBox="0 0 48 48" enable-background="new 0 0 48 48" xml:space="preserve">
<path d="M12.4707,42.66504c2.19336,2.31836,5.1875,2.96191,8.01465,1.71484c2.5-1.10254,4.53516-1.10059,7.0293,0
	c0.9502,0.41895,1.91992,0.625,2.87109,0.625c1.87891,0,3.6875-0.80078,5.14355-2.33984
	c2.21582-2.34277,3.51465-6.54395,1.42285-10.64746l-3.8457-7.53857C31.06055,21.04834,27.65625,19,24,19
	s-7.06055,2.04834-9.10645,5.479c-0.01172,0.01904-0.02246,0.03857-0.03223,0.05811l-3.81348,7.48047
	C8.95605,36.12109,10.25488,40.32227,12.4707,42.66504z M12.8291,32.92578l3.79785-7.4502C18.33496,22.63086,21.02051,21,24,21
	c2.98926,0,5.68262,1.6416,7.35742,4.44531l3.81348,7.48047c1.64844,3.23535,0.63867,6.53223-1.09473,8.36426
	c-1.61035,1.7041-3.70898,2.16211-5.75488,1.25977C26.80762,41.88184,25.4043,41.54785,24,41.54785
	c-1.40332,0-2.80664,0.33398-4.32129,1.00195c-2.04688,0.90234-4.14551,0.44434-5.75488-1.25977
	C12.19043,39.45801,11.18066,36.16113,12.8291,32.92578z"/>
<path d="M16.80078,16.92773c0.07422,0,0.14941-0.00195,0.22461-0.00586c1.49609-0.07812,2.84375-0.90186,3.7959-2.31982
	c0.8916-1.32861,1.33105-3.04053,1.23828-4.81982c-0.19922-3.78076-2.77441-6.73096-5.75195-6.57422
	c-2.97363,0.15527-5.23145,3.3584-5.03418,7.13965C11.46777,14.0332,13.92285,16.92773,16.80078,16.92773z M16.41211,5.20508
	c0.04004-0.00195,0.08008-0.00293,0.11914-0.00293c1.79297,0,3.39551,2.10791,3.53027,4.68457
	c0.07129,1.35059-0.24902,2.62891-0.90137,3.60059c-0.5918,0.88232-1.38672,1.39307-2.23926,1.4375
	c-0.04004,0.00195-0.08008,0.00293-0.11914,0.00293c-1.79297,0-3.39551-2.10791-3.53027-4.68457
	C13.13379,7.6084,14.57129,5.30127,16.41211,5.20508z"/>
<path d="M3.7998,26.2002c0.86426,0.66016,1.80371,1,2.72559,1c0.37012,0,0.73633-0.05371,1.09473-0.16406
	c1.25391-0.38574,2.20898-1.39453,2.69043-2.83936c0.44238-1.32617,0.43066-2.88721-0.0332-4.39502
	c-0.46484-1.5083-1.33203-2.80615-2.44336-3.6543c-1.21191-0.92627-2.57031-1.22021-3.82031-0.83594
	c-1.25293,0.38574-2.20898,1.39404-2.69043,2.83887c-0.44238,1.32666-0.43066,2.8877,0.0332,4.39551
	C1.82129,24.0542,2.68848,25.35254,3.7998,26.2002z M3.21973,18.7832c0.1582-0.47217,0.54688-1.30322,1.38184-1.56006
	c0.16895-0.05176,0.33594-0.07422,0.49805-0.07422c0.63965,0,1.20508,0.34717,1.52148,0.58789
	c0.78223,0.59766,1.40137,1.53955,1.74414,2.65283c0.34277,1.11279,0.36035,2.24023,0.04883,3.1748
	c-0.1582,0.47217-0.54688,1.30273-1.38184,1.55957c-0.83496,0.25977-1.62305-0.21143-2.01953-0.51318
	c-0.78223-0.59766-1.40137-1.53955-1.74414-2.65283C2.93066,20.86084,2.91309,19.7041,3.21973,18.7832z"/>
<path d="M43.98633,15.31201c-1.25195-0.38623-2.60938-0.09033-3.82031,0.83545c-1.11133,0.84814-1.97852,2.146-2.44336,3.6543
	c-0.46387,1.50781-0.47559,3.06885-0.0332,4.39502c0.48145,1.44482,1.43652,2.45361,2.69043,2.83936
	c0.3584,0.11035,0.72461,0.16406,1.09473,0.16406c0.92188,0,1.86133-0.33984,2.72559-1
	c1.11133-0.84766,1.97852-2.146,2.44336-3.6543c0.46387-1.50781,0.47559-3.06885,0.0332-4.39551
	C46.19531,16.70557,45.23926,15.69727,43.98633,15.31201z M44.73145,21.95801c-0.34277,1.11328-0.96191,2.05518-1.74414,2.65283
	c-0.39746,0.30225-1.18457,0.77197-2.01953,0.51318c-0.83496-0.25684-1.22363-1.0874-1.38184-1.55957
	c-0.31152-0.93457-0.29395-2.06201,0.04883-3.1748c0.34277-1.11328,0.96191-2.05518,1.74414-2.65283
	c0.31641-0.24072,0.88184-0.58789,1.52148-0.58789c0.16211,0,0.3291,0.02246,0.49805,0.07471
	c0.83496,0.25635,1.22363,1.0874,1.38184,1.55957C45.08691,19.7041,45.06934,20.86084,44.73145,21.95801z"/>
<path d="M31.20215,16.92773c1.4082,0,2.74219-0.67139,3.7793-1.90967c1.02832-1.22607,1.64746-2.88135,1.74316-4.66064
	c0.09668-1.7793-0.33984-3.4917-1.22852-4.82227c-0.94922-1.41943-2.29492-2.24561-3.79004-2.32666
	c-0.0791-0.00439-0.15625-0.00635-0.2334-0.00635c-2.87402,0-5.33203,2.88867-5.53223,6.5708
	c-0.2041,3.78076,2.04883,6.9873,5.02051,7.14844C31.04199,16.92578,31.12207,16.92773,31.20215,16.92773z M27.9375,9.88086
	c0.14062-2.5752,1.74414-4.67871,3.53613-4.67871c0.04102,0,0.08203,0.00098,0.12402,0.00342
	c0.85059,0.0459,1.64453,0.55811,2.23535,1.44141c0.65039,0.97266,0.96875,2.25195,0.89551,3.60205c0,0-0.00098,0-0.00098,0.00049
	c-0.07227,1.34961-0.52637,2.58691-1.27832,3.48389c-0.68164,0.81396-1.51172,1.24072-2.37988,1.19092
	C29.22949,14.82471,27.7959,12.51514,27.9375,9.88086z"/>
</svg>
