<?xml version="1.0" encoding="utf-8"?>
<!-- Generator: Adobe Illustrator 19.1.0, SVG Export Plug-In . SVG Version: 6.00 Build 0)  -->
<!DOCTYPE svg PUBLIC "-//W3C//DTD SVG 1.1//EN" "http://www.w3.org/Graphics/SVG/1.1/DTD/svg11.dtd">
<svg version="1.1" id="Layer_1" xmlns="http://www.w3.org/2000/svg" xmlns:xlink="http://www.w3.org/1999/xlink" x="0px" y="0px"
	 width="48px" height="48px" viewBox="0 0 48 48" enable-background="new 0 0 48 48" xml:space="preserve">
<path d="M4,35h5v11c0,0.55225,0.44727,1,1,1h28c0.55273,0,1-0.44775,1-1V35h5c0.55273,0,1-0.44775,1-1v-6c0-0.55225-0.44727-1-1-1
	H25v-6h1c6.06543,0,11-4.93457,11-11V6c0-0.55225-0.44727-1-1-1h-2c-3.71985,0-7.00824,1.86072-9,4.69525V2c0-0.55225-0.44727-1-1-1
	s-1,0.44775-1,1v14v4v7H4c-0.55273,0-1,0.44775-1,1v6C3,34.55225,3.44727,35,4,35z M34,7h1v3c0,4.9624-4.03711,9-9,9h-1v-3
	C25,11.0376,29.03711,7,34,7z M37,45H11V35h26V45z M5,29h38v4H5V29z"/>
</svg>
