<?xml version="1.0" encoding="utf-8"?>
<!-- Generator: Adobe Illustrator 19.2.0, SVG Export Plug-In . SVG Version: 6.00 Build 0)  -->
<!DOCTYPE svg PUBLIC "-//W3C//DTD SVG 1.1//EN" "http://www.w3.org/Graphics/SVG/1.1/DTD/svg11.dtd">
<svg version="1.1" id="Layer_1" xmlns="http://www.w3.org/2000/svg" xmlns:xlink="http://www.w3.org/1999/xlink" x="0px" y="0px"
	 width="24px" height="24px" viewBox="0 0 24 24" enable-background="new 0 0 24 24" xml:space="preserve">
<polygon points="10,4 16,4 16,6 18,6 18,2 10,2 8,2 0,2 0,6 2,6 2,4 8,4 8,19 4,19 4,21 8,21 10,21 13,21 13,19 10,19 "/>
<polygon points="17,9 12,9 12,12 14,12 14,11 17,11 17,19 15,19 15,21 17,21 19,21 21,21 21,19 19,19 19,11 22,11 22,12 24,12 24,9 
	19,9 "/>
</svg>
