<?xml version="1.0" encoding="utf-8"?>
<!-- Generator: Adobe Illustrator 19.2.0, SVG Export Plug-In . SVG Version: 6.00 Build 0)  -->
<!DOCTYPE svg PUBLIC "-//W3C//DTD SVG 1.1//EN" "http://www.w3.org/Graphics/SVG/1.1/DTD/svg11.dtd">
<svg version="1.1" id="Layer_1" xmlns="http://www.w3.org/2000/svg" xmlns:xlink="http://www.w3.org/1999/xlink" x="0px" y="0px"
	 width="24px" height="24px" viewBox="0 0 24 24" enable-background="new 0 0 24 24" xml:space="preserve">
<polygon points="8,2 12,2 12,4 14,4 14,0 8,0 6,0 0,0 0,4 2,4 2,2 6,2 6,15 3,15 3,17 6,17 8,17 11,17 11,15 8,15 "/>
<polygon points="16,7 10,7 10,11 12,11 12,9 16,9 16,22 13,22 13,24 16,24 18,24 21,24 21,22 18,22 18,9 22,9 22,11 24,11 24,7 
	18,7 "/>
</svg>
