<?xml version="1.0" encoding="utf-8"?>
<!-- Generator: Adobe Illustrator 19.2.0, SVG Export Plug-In . SVG Version: 6.00 Build 0)  -->
<!DOCTYPE svg PUBLIC "-//W3C//DTD SVG 1.1//EN" "http://www.w3.org/Graphics/SVG/1.1/DTD/svg11.dtd">
<svg version="1.1" id="Layer_1" xmlns="http://www.w3.org/2000/svg" xmlns:xlink="http://www.w3.org/1999/xlink" x="0px" y="0px"
	 width="24px" height="24px" viewBox="0 0 24 24" enable-background="new 0 0 24 24" xml:space="preserve">
<polygon points="16,4 11,4 11,7 13,7 13,6 16,6 16,14 14,14 14,16 16,16 18,16 20,16 20,14 18,14 18,6 21,6 21,7 23,7 23,4 18,4 "/>
<rect x="11" y="18" width="12" height="2"/>
<polygon points="9.414,5 5,0.586 0.586,5 4,5 4,19 0.586,19 5,23.414 9.414,19 6,19 6,5 "/>
</svg>
