<?xml version="1.0" encoding="utf-8"?>
<!-- Generator: Adobe Illustrator 19.2.0, SVG Export Plug-In . SVG Version: 6.00 Build 0)  -->
<!DOCTYPE svg PUBLIC "-//W3C//DTD SVG 1.1//EN" "http://www.w3.org/Graphics/SVG/1.1/DTD/svg11.dtd">
<svg version="1.1" id="Layer_1" xmlns="http://www.w3.org/2000/svg" xmlns:xlink="http://www.w3.org/1999/xlink" x="0px" y="0px"
	 width="24px" height="24px" viewBox="0 0 24 24" enable-background="new 0 0 24 24" xml:space="preserve">
<rect x="7" y="3" width="17" height="2"/>
<rect x="7" y="11" width="17" height="2"/>
<rect x="7" y="19" width="17" height="2"/>
<path d="M4.72,5.881L3.981,5.818C3.846,5.81,3.837,5.783,3.837,5.639V1.407H1.677L1.578,2.146l0.783,0.162
	c0.09,0.027,0.117,0.081,0.117,0.189v3.142c0,0.135-0.018,0.171-0.144,0.18L1.56,5.881v0.711h3.16V5.881z"/>
<path d="M2.955,10.312c0.477,0,0.639,0.243,0.639,0.576c0,0.513-0.387,0.873-1.296,1.755l-1.207,1.179v0.837h4.159v-1.692H4.297
	l-0.126,0.711c-0.018,0.09-0.054,0.108-0.144,0.108H2.703l1.018-0.973c0.657-0.63,1.242-1.188,1.242-2.035
	c0-0.846-0.495-1.44-1.891-1.44c-0.945,0-2.035,0.234-2.043,1.666l1.224,0.108C2.253,10.474,2.46,10.312,2.955,10.312z"/>
<path d="M5.318,21.287c0-0.81-0.423-1.269-1.188-1.386v-0.036c0.567-0.171,1.036-0.648,1.036-1.404c0-0.963-0.531-1.495-1.917-1.495
	c-0.945,0-2.017,0.243-2.017,1.666l1.233,0.108c0-0.639,0.234-0.801,0.72-0.801c0.504,0,0.657,0.279,0.657,0.621
	c0,0.576-0.351,0.891-0.999,0.972l-0.441,0.054v0.9c0.271-0.045,0.441-0.063,0.667-0.063c0.558,0,0.9,0.225,0.9,0.774
	c0,0.63-0.432,0.81-0.937,0.81c-0.63,0-1.008-0.261-1.351-0.594l-0.72,0.792c0.459,0.504,1.27,0.828,2.179,0.828
	C4.427,23.034,5.318,22.476,5.318,21.287z"/>
</svg>
