<?xml version="1.0" encoding="utf-8"?>
<!-- Generator: Adobe Illustrator 19.2.0, SVG Export Plug-In . SVG Version: 6.00 Build 0)  -->
<!DOCTYPE svg PUBLIC "-//W3C//DTD SVG 1.1//EN" "http://www.w3.org/Graphics/SVG/1.1/DTD/svg11.dtd">
<svg version="1.1" id="Layer_1" xmlns="http://www.w3.org/2000/svg" xmlns:xlink="http://www.w3.org/1999/xlink" x="0px" y="0px"
	 width="24px" height="24px" viewBox="0 0 24 24" enable-background="new 0 0 24 24" xml:space="preserve">
<path d="M1,23h8c0.552,0,1-0.447,1-1V12c0-0.552-0.448-1-1-1H2.029c0.215-3.637,1.645-5.956,4.354-7.076
	c0.51-0.211,0.753-0.796,0.542-1.307c-0.212-0.51-0.796-0.752-1.307-0.542C1.89,3.617,0,6.956,0,12v10C0,22.553,0.448,23,1,23z"/>
<path d="M23,11h-6.971c0.215-3.637,1.645-5.956,4.354-7.076c0.51-0.211,0.753-0.796,0.542-1.307
	c-0.212-0.51-0.798-0.752-1.307-0.542C15.89,3.617,14,6.956,14,12v10c0,0.553,0.448,1,1,1h8c0.552,0,1-0.447,1-1V12
	C24,11.448,23.552,11,23,11z"/>
</svg>
