<?xml version="1.0" encoding="utf-8"?>
<!-- Generator: Adobe Illustrator 19.2.0, SVG Export Plug-In . SVG Version: 6.00 Build 0)  -->
<!DOCTYPE svg PUBLIC "-//W3C//DTD SVG 1.1//EN" "http://www.w3.org/Graphics/SVG/1.1/DTD/svg11.dtd">
<svg version="1.1" id="Layer_1" xmlns="http://www.w3.org/2000/svg" xmlns:xlink="http://www.w3.org/1999/xlink" x="0px" y="0px"
	 width="24px" height="24px" viewBox="0 0 24 24" enable-background="new 0 0 24 24" xml:space="preserve">
<path d="M23,2H1C0.448,2,0,2.447,0,3s0.448,1,1,1h22c0.552,0,1-0.447,1-1S23.552,2,23,2z"/>
<path d="M23,8h-8c-0.552,0-1,0.447-1,1s0.448,1,1,1h8c0.552,0,1-0.447,1-1S23.552,8,23,8z"/>
<path d="M23,14h-8c-0.552,0-1,0.447-1,1s0.448,1,1,1h8c0.552,0,1-0.447,1-1S23.552,14,23,14z"/>
<path d="M23,20H1c-0.552,0-1,0.447-1,1s0.448,1,1,1h22c0.552,0,1-0.447,1-1S23.552,20,23,20z"/>
<path d="M12,12L7,8v3H1c-0.552,0-1,0.448-1,1c0,0.552,0.448,1,1,1h6v3L12,12z"/>
</svg>
