<?xml version="1.0" encoding="utf-8"?>
<!-- Generator: Adobe Illustrator 19.2.0, SVG Export Plug-In . SVG Version: 6.00 Build 0)  -->
<!DOCTYPE svg PUBLIC "-//W3C//DTD SVG 1.1//EN" "http://www.w3.org/Graphics/SVG/1.1/DTD/svg11.dtd">
<svg version="1.1" id="Layer_1" xmlns="http://www.w3.org/2000/svg" xmlns:xlink="http://www.w3.org/1999/xlink" x="0px" y="0px"
	 width="24px" height="24px" viewBox="0 0 24 24" enable-background="new 0 0 24 24" xml:space="preserve">
<path d="M1.6,1.472L5.425,13h2.227l3.699-11.492c0.072-0.216,0.232-0.287,0.449-0.341l0.754-0.197V0H8.639l-0.18,0.969l1.455,0.162
	L6.557,11.582L3.27,1.131l1.472-0.162V0H0.54L0.362,0.969l0.807,0.197C1.385,1.221,1.529,1.257,1.6,1.472z"/>
<path d="M11.895,11.851l-0.772,0.197V13h4.13v-0.969l-1.455-0.162l0.952-2.837h5.01l0.969,2.837l-1.472,0.162V13h4.38v-0.969
	l-0.807-0.198c-0.216-0.053-0.36-0.089-0.431-0.305L18.378,0h-2.083l-3.951,11.509C12.272,11.725,12.183,11.779,11.895,11.851z
	 M17.282,1.401l2.082,6.321h-4.201L17.282,1.401z"/>
<polygon points="5,20 19,20 19,23 24,19 19,15 19,18 5,18 5,15 0,19 5,23 "/>
</svg>
