<?xml version="1.0" encoding="utf-8"?>
<!-- Generator: Adobe Illustrator 19.2.0, SVG Export Plug-In . SVG Version: 6.00 Build 0)  -->
<!DOCTYPE svg PUBLIC "-//W3C//DTD SVG 1.1//EN" "http://www.w3.org/Graphics/SVG/1.1/DTD/svg11.dtd">
<svg version="1.1" id="Layer_1" xmlns="http://www.w3.org/2000/svg" xmlns:xlink="http://www.w3.org/1999/xlink" x="0px" y="0px"
	 width="24px" height="24px" viewBox="0 0 24 24" enable-background="new 0 0 24 24" xml:space="preserve">
<path d="M20.782,20.893c-0.02,0.102-0.061,0.122-0.162,0.122h-1.493l1.148-1.097c0.741-0.71,1.401-1.34,1.401-2.294
	c0-0.954-0.558-1.624-2.132-1.624c-1.066,0-2.294,0.264-2.304,1.878L18.619,18c0-0.721,0.233-0.904,0.792-0.904
	c0.538,0,0.721,0.274,0.721,0.65c0,0.579-0.437,0.984-1.462,1.979l-1.361,1.33V22H22v-1.908h-1.076L20.782,20.893z"/>
<path d="M18,2H2v4h1.481l0.353-1.757C3.878,4.022,3.945,4,4.188,4H9v14.819c0,0.331-0.061,0.42-0.371,0.442L6,19.417V21h8v-1.583
	l-2.63-0.177c-0.332-0.022-0.37-0.11-0.37-0.42V4h4.812c0.243,0,0.31,0.022,0.354,0.243L16.519,6H18V2z"/>
</svg>
