<?xml version="1.0" encoding="utf-8"?>
<!-- Generator: Adobe Illustrator 19.2.0, SVG Export Plug-In . SVG Version: 6.00 Build 0)  -->
<!DOCTYPE svg PUBLIC "-//W3C//DTD SVG 1.1//EN" "http://www.w3.org/Graphics/SVG/1.1/DTD/svg11.dtd">
<svg version="1.1" id="Layer_1" xmlns="http://www.w3.org/2000/svg" xmlns:xlink="http://www.w3.org/1999/xlink" x="0px" y="0px"
	 width="24px" height="24px" viewBox="0 0 24 24" enable-background="new 0 0 24 24" xml:space="preserve">
<path d="M21,17c0-3.038-1.478-5.03-4.942-5.426v-0.09c1.853-0.607,3.706-2.218,3.706-5.106C19.764,3.37,18.306,1,13.11,1H3v2.431
	l1.274,0.362C4.703,3.916,5,4.308,5,4.755v14.511c0,0.437-0.283,0.823-0.7,0.954L3,20.63V23h9.836C17.607,23,21,21.497,21,17z
	 M10,4.312h1.62c2.097,0,3.677,0.334,3.677,2.826c0,2.583-1.945,3.1-4.132,3.1H10V4.312z M10,19.718v-6.442h2.502
	c2.066,0,3.767,0.668,3.767,3.191c0,2.644-1.671,3.251-4.224,3.251H10z"/>
</svg>
