<?xml version="1.0" encoding="utf-8"?>
<!-- Generator: Adobe Illustrator 19.2.0, SVG Export Plug-In . SVG Version: 6.00 Build 0)  -->
<!DOCTYPE svg PUBLIC "-//W3C//DTD SVG 1.1//EN" "http://www.w3.org/Graphics/SVG/1.1/DTD/svg11.dtd">
<svg version="1.1" id="Layer_1" xmlns="http://www.w3.org/2000/svg" xmlns:xlink="http://www.w3.org/1999/xlink" x="0px" y="0px"
	 width="24px" height="24px" viewBox="0 0 24 24" enable-background="new 0 0 24 24" xml:space="preserve">
<path d="M8,15.798V2h3.812c0.243,0,0.31,0.022,0.354,0.243L12.519,4H14V0H0v4h1.481l0.353-1.757C1.878,2.022,1.945,2,2.188,2H6
	v13.798c0,0.332-0.061,0.42-0.371,0.442L3,16.396V18h8v-1.604l-2.63-0.178C8.038,16.197,8,16.108,8,15.798z"/>
<path d="M10,10h1.481l0.353-1.757C11.878,8.022,11.945,8,12.188,8H16v13.798c0,0.332-0.061,0.42-0.371,0.442L13,22.396V24h8v-1.604
	l-2.63-0.178c-0.332-0.022-0.37-0.11-0.37-0.42V8h3.812c0.243,0,0.31,0.022,0.354,0.243L22.519,10H24V6H10V10z"/>
</svg>
