<?xml version="1.0" encoding="utf-8"?>
<!-- Generator: Adobe Illustrator 19.2.0, SVG Export Plug-In . SVG Version: 6.00 Build 0)  -->
<!DOCTYPE svg PUBLIC "-//W3C//DTD SVG 1.1//EN" "http://www.w3.org/Graphics/SVG/1.1/DTD/svg11.dtd">
<svg version="1.1" id="Layer_1" xmlns="http://www.w3.org/2000/svg" xmlns:xlink="http://www.w3.org/1999/xlink" x="0px" y="0px"
	 width="24px" height="24px" viewBox="0 0 24 24" enable-background="new 0 0 24 24" xml:space="preserve">
<circle cx="2" cy="4" r="2"/>
<circle cx="2" cy="12" r="2"/>
<circle cx="2" cy="20" r="2"/>
<path d="M23,3H8C7.448,3,7,3.448,7,4s0.448,1,1,1h15c0.552,0,1-0.448,1-1S23.552,3,23,3z"/>
<path d="M23,11H8c-0.552,0-1,0.448-1,1s0.448,1,1,1h15c0.552,0,1-0.448,1-1S23.552,11,23,11z"/>
<path d="M23,19H8c-0.552,0-1,0.447-1,1s0.448,1,1,1h15c0.552,0,1-0.447,1-1S23.552,19,23,19z"/>
</svg>
