<?xml version="1.0" encoding="utf-8"?>
<!-- Generator: Adobe Illustrator 19.2.0, SVG Export Plug-In . SVG Version: 6.00 Build 0)  -->
<!DOCTYPE svg PUBLIC "-//W3C//DTD SVG 1.1//EN" "http://www.w3.org/Graphics/SVG/1.1/DTD/svg11.dtd">
<svg version="1.1" id="Layer_1" xmlns="http://www.w3.org/2000/svg" xmlns:xlink="http://www.w3.org/1999/xlink" x="0px" y="0px"
	 width="24px" height="24px" viewBox="0 0 24 24" enable-background="new 0 0 24 24" xml:space="preserve">
<polygon points="19,19 5,19 5,16 0,20 5,24 5,21 19,21 19,24 24,20 19,16 "/>
<path d="M16.812,2c0.243,0,0.31,0.022,0.354,0.243L17.519,4H19V0H5v4h1.481l0.353-1.757C6.878,2.022,6.945,2,7.188,2H11v11.778
	c0,0.332-0.061,0.42-0.371,0.442L8,14.375V16h8v-1.625l-2.63-0.178c-0.332-0.022-0.37-0.11-0.37-0.42V2H16.812z"/>
</svg>
