<?xml version="1.0" encoding="utf-8"?>
<!-- Generator: Adobe Illustrator 19.2.0, SVG Export Plug-In . SVG Version: 6.00 Build 0)  -->
<!DOCTYPE svg PUBLIC "-//W3C//DTD SVG 1.1//EN" "http://www.w3.org/Graphics/SVG/1.1/DTD/svg11.dtd">
<svg version="1.1" id="Layer_1" xmlns="http://www.w3.org/2000/svg" xmlns:xlink="http://www.w3.org/1999/xlink" x="0px" y="0px"
	 width="24px" height="24px" viewBox="0 0 24 24" enable-background="new 0 0 24 24" xml:space="preserve">
<polygon points="8,5 4,0 0,5 3,5 3,19 0,19 4,24 8,19 5,19 5,5 "/>
<path d="M10,8h1.481l0.353-1.757C11.878,6.022,11.945,6,12.188,6H16v11.778c0,0.332-0.061,0.42-0.371,0.442L13,18.375V20h8v-1.625
	l-2.63-0.178c-0.332-0.022-0.37-0.11-0.37-0.42V6h3.812c0.243,0,0.31,0.022,0.354,0.243L22.519,8H24V4H10V8z"/>
</svg>
