<?xml version="1.0" encoding="utf-8"?>
<!-- Generator: Adobe Illustrator 19.2.0, SVG Export Plug-In . SVG Version: 6.00 Build 0)  -->
<!DOCTYPE svg PUBLIC "-//W3C//DTD SVG 1.1//EN" "http://www.w3.org/Graphics/SVG/1.1/DTD/svg11.dtd">
<svg version="1.1" id="Layer_1" xmlns="http://www.w3.org/2000/svg" xmlns:xlink="http://www.w3.org/1999/xlink" x="0px" y="0px"
	 width="24px" height="24px" viewBox="0 0 24 24" enable-background="new 0 0 24 24" xml:space="preserve">
<path d="M9,19.798V4h4.812c0.243,0,0.31,0.022,0.354,0.243L14.519,6H16V2H0v4h1.481l0.353-1.757C1.878,4.022,1.945,4,2.188,4H7
	v15.798c0,0.332-0.061,0.42-0.371,0.442L4,20.396V22h8v-1.604l-2.63-0.178C9.038,20.197,9,20.108,9,19.798z"/>
<path d="M12,13h1.481l0.353-1.757C13.878,11.022,13.945,11,14.188,11H17v8.798c0,0.332-0.061,0.42-0.371,0.442L15,20.396V22h6
	v-1.604l-1.63-0.178c-0.332-0.022-0.37-0.11-0.37-0.42V11h2.812c0.243,0,0.31,0.022,0.354,0.243L22.519,13H24V9H12V13z"/>
</svg>
