<?xml version="1.0" encoding="utf-8"?>
<!-- Generator: Adobe Illustrator 19.2.0, SVG Export Plug-In . SVG Version: 6.00 Build 0)  -->
<!DOCTYPE svg PUBLIC "-//W3C//DTD SVG 1.1//EN" "http://www.w3.org/Graphics/SVG/1.1/DTD/svg11.dtd">
<svg version="1.1" id="Layer_1" xmlns="http://www.w3.org/2000/svg" xmlns:xlink="http://www.w3.org/1999/xlink" x="0px" y="0px"
	 width="24px" height="24px" viewBox="0 0 24 24" enable-background="new 0 0 24 24" xml:space="preserve">
<path d="M23,3h-8c-0.552,0-1,0.448-1,1s0.448,1,1,1h8c0.552,0,1-0.448,1-1S23.552,3,23,3z"/>
<path d="M23,9h-8c-0.552,0-1,0.448-1,1s0.448,1,1,1h8c0.552,0,1-0.448,1-1S23.552,9,23,9z"/>
<path d="M23,15H1c-0.552,0-1,0.447-1,1s0.448,1,1,1h22c0.552,0,1-0.447,1-1S23.552,15,23,15z"/>
<path d="M23,21H1c-0.552,0-1,0.447-1,1s0.448,1,1,1h22c0.552,0,1-0.447,1-1S23.552,21,23,21z"/>
<path d="M7.62,12h4.364v-1.077l-0.635-0.152c-0.165-0.041-0.276-0.069-0.331-0.235L8.007,2H5.562l-3.025,8.508
	c-0.055,0.166-0.179,0.221-0.345,0.262l-0.608,0.152V12h3.854v-1.077l-1.091-0.124L4.83,9.362h3.425l0.497,1.437L7.62,10.923V12z
	 M5.258,7.87l1.271-3.757h0.083L7.841,7.87H5.258z"/>
</svg>
