<?xml version="1.0" encoding="utf-8"?>
<!-- Generator: Adobe Illustrator 19.2.0, SVG Export Plug-In . SVG Version: 6.00 Build 0)  -->
<!DOCTYPE svg PUBLIC "-//W3C//DTD SVG 1.1//EN" "http://www.w3.org/Graphics/SVG/1.1/DTD/svg11.dtd">
<svg version="1.1" id="Layer_1" xmlns="http://www.w3.org/2000/svg" xmlns:xlink="http://www.w3.org/1999/xlink" x="0px" y="0px"
	 width="24px" height="24px" viewBox="0 0 24 24" enable-background="new 0 0 24 24" xml:space="preserve">
<path d="M23,21H1c-0.552,0-1,0.448-1,1s0.448,1,1,1h22c0.552,0,1-0.448,1-1S23.552,21,23,21z"/>
<path d="M5.52,1.98v9.759C5.52,15.847,7.305,18,11.853,18c4.183,0,6.531-1.981,6.531-6.212V1.98c0-0.366,0.024-0.415,0.391-0.464
	l1.638-0.196V0h-6.065v1.32l1.54,0.171c0.342,0.025,0.391,0.122,0.391,0.489v9.563c0,3.399-1.394,4.549-4.279,4.549
	c-2.837,0-4.232-1.321-4.232-4.622V1.98c0-0.366,0.025-0.415,0.391-0.464L9.799,1.32V0H3.587v1.32l1.541,0.171
	C5.471,1.516,5.52,1.614,5.52,1.98z"/>
</svg>
