<?xml version="1.0" encoding="utf-8"?>
<!-- Generator: Adobe Illustrator 19.2.0, SVG Export Plug-In . SVG Version: 6.00 Build 0)  -->
<!DOCTYPE svg PUBLIC "-//W3C//DTD SVG 1.1//EN" "http://www.w3.org/Graphics/SVG/1.1/DTD/svg11.dtd">
<svg version="1.1" id="Layer_1" xmlns="http://www.w3.org/2000/svg" xmlns:xlink="http://www.w3.org/1999/xlink" x="0px" y="0px"
	 width="24px" height="24px" viewBox="0 0 24 24" enable-background="new 0 0 24 24" xml:space="preserve">
<path d="M2,6h2l0.544-1.632C4.816,3.551,5.581,3,6.442,3H10v16.438c0,0.918-0.625,1.718-1.515,1.94L6,22v2h12v-2l-2.485-0.621
	C14.625,21.156,14,20.356,14,19.438V3h3.558c0.861,0,1.625,0.551,1.897,1.368L20,6h2V0H2V6z"/>
<polygon points="22,10 20,10 20,12 18,12 18,14 20,14 20,16 22,16 22,14 24,14 24,12 22,12 "/>
<rect y="12" width="6" height="2"/>
</svg>
