<?xml version="1.0" encoding="utf-8"?>
<!-- Generator: Adobe Illustrator 19.2.0, SVG Export Plug-In . SVG Version: 6.00 Build 0)  -->
<!DOCTYPE svg PUBLIC "-//W3C//DTD SVG 1.1//EN" "http://www.w3.org/Graphics/SVG/1.1/DTD/svg11.dtd">
<svg version="1.1" id="Layer_1" xmlns="http://www.w3.org/2000/svg" xmlns:xlink="http://www.w3.org/1999/xlink" x="0px" y="0px"
	 width="24px" height="24px" viewBox="0 0 24 24" enable-background="new 0 0 24 24" xml:space="preserve">
<path d="M23,2H1C0.448,2,0,2.448,0,3s0.448,1,1,1h22c0.552,0,1-0.448,1-1S23.552,2,23,2z"/>
<path d="M1,10h12c0.552,0,1-0.448,1-1s-0.448-1-1-1H1C0.448,8,0,8.448,0,9S0.448,10,1,10z"/>
<path d="M23,14H1c-0.552,0-1,0.448-1,1s0.448,1,1,1h22c0.552,0,1-0.448,1-1S23.552,14,23,14z"/>
<path d="M14,21c0-0.552-0.448-1-1-1H1c-0.552,0-1,0.448-1,1s0.448,1,1,1h12C13.552,22,14,21.552,14,21z"/>
</svg>
