<?xml version="1.0" encoding="utf-8"?>
<!-- Generator: Adobe Illustrator 19.2.0, SVG Export Plug-In . SVG Version: 6.00 Build 0)  -->
<!DOCTYPE svg PUBLIC "-//W3C//DTD SVG 1.1//EN" "http://www.w3.org/Graphics/SVG/1.1/DTD/svg11.dtd">
<svg version="1.1" id="Layer_1" xmlns="http://www.w3.org/2000/svg" xmlns:xlink="http://www.w3.org/1999/xlink" x="0px" y="0px"
	 width="24px" height="24px" viewBox="0 0 24 24" enable-background="new 0 0 24 24" xml:space="preserve">
<polygon points="9.272,13.503 14.442,13.503 11.879,5.724 "/>
<path d="M23,0H1C0.447,0,0,0.448,0,1v22c0,0.552,0.447,1,1,1h22c0.553,0,1-0.448,1-1V1C24,0.448,23.553,0,23,0z M19.702,20h-5.391
	v-1.193l1.812-0.199L14.82,15h-6l-1.229,3.608l1.79,0.199V20H4.298v-1.171l0.95-0.243c0.354-0.088,0.464-0.155,0.552-0.42L10.663,4
	h2.564l4.95,14.188c0.088,0.265,0.264,0.31,0.531,0.375l0.993,0.244V20z"/>
</svg>
