<?xml version="1.0" encoding="utf-8"?>
<!-- Generator: Adobe Illustrator 19.1.0, SVG Export Plug-In . SVG Version: 6.00 Build 0)  -->
<!DOCTYPE svg PUBLIC "-//W3C//DTD SVG 1.1//EN" "http://www.w3.org/Graphics/SVG/1.1/DTD/svg11.dtd">
<svg version="1.1" id="Layer_1" xmlns="http://www.w3.org/2000/svg" xmlns:xlink="http://www.w3.org/1999/xlink" x="0px" y="0px"
	 width="64px" height="64px" viewBox="0 0 64 64" enable-background="new 0 0 64 64" xml:space="preserve">
<path fill="#444444" d="M60,3h-6c-0.37891,0-0.72461,0.21387-0.89453,0.55273L48,13.76416L42.89453,3.55273
	C42.72461,3.21387,42.37891,3,42,3H20c-0.55273,0-1,0.44775-1,1v26.17822l-9.46289-6.02197
	c-0.39453-0.25049-0.91211-0.1958-1.24414,0.13672l-5,5c-0.37402,0.37451-0.39258,0.97559-0.04004,1.37158L19,48.38037V60
	c0,0.55225,0.44727,1,1,1h11V45c0-0.55225,0.44727-1,1-1s1,0.44775,1,1v16h27c0.55273,0,1-0.44775,1-1V4C61,3.44775,60.55273,3,60,3
	z M33,39c0,0.55225-0.44727,1-1,1s-1-0.44775-1-1v-2c0-0.55225,0.44727-1,1-1s1,0.44775,1,1V39z"/>
</svg>
