<?xml version="1.0" encoding="utf-8"?>
<!-- Generator: Adobe Illustrator 19.1.0, SVG Export Plug-In . SVG Version: 6.00 Build 0)  -->
<!DOCTYPE svg PUBLIC "-//W3C//DTD SVG 1.1//EN" "http://www.w3.org/Graphics/SVG/1.1/DTD/svg11.dtd">
<svg version="1.1" id="Layer_1" xmlns="http://www.w3.org/2000/svg" xmlns:xlink="http://www.w3.org/1999/xlink" x="0px" y="0px"
	 width="64px" height="64px" viewBox="0 0 64 64" enable-background="new 0 0 64 64" xml:space="preserve">
<path data-color="color-2" fill="#444444" d="M33,52.21069V46c0-0.55225-0.44727-1-1-1s-1,0.44775-1,1v16c0,0.55225,0.44727,1,1,1
	s1-0.44775,1-1v-3.05048C39.15839,58.44019,44,53.28979,44,47v-2C39.07617,45,34.84991,47.96832,33,52.21069z"/>
<path fill="#444444" d="M53,22c0-2.51074-2.79199-4.6709-7.2373-5.7002c2.41504-3.87158,2.8623-7.37354,1.08691-9.14893
	c-1.77637-1.77637-5.27832-1.3291-9.14941,1.08691C36.66992,3.79248,34.50977,1,32,1s-4.66992,2.79248-5.7002,7.23779
	c-3.87109-2.41504-7.37305-2.8623-9.14941-1.08691c-1.77539,1.77539-1.32812,5.27734,1.08691,9.14893
	C13.79199,17.3291,11,19.48926,11,22s2.79199,4.6709,7.23828,5.7002c-2.41504,3.87207-2.8623,7.37402-1.08789,9.14893
	c1.77539,1.7749,5.27734,1.32861,9.14941-1.0874C27.33008,40.20752,29.49023,43,32,43s4.66992-2.79248,5.7002-7.23828
	c3.87109,2.4165,7.37402,2.86328,9.14941,1.0874c1.77441-1.7749,1.32715-5.27686-1.08789-9.14893
	C50.20801,26.6709,53,24.51074,53,22z M32,27c-2.76141,0-5-2.23859-5-5s2.23859-5,5-5s5,2.23859,5,5S34.76141,27,32,27z"/>
</svg>
