<?xml version="1.0" encoding="utf-8"?>
<!-- Generator: Adobe Illustrator 19.1.0, SVG Export Plug-In . SVG Version: 6.00 Build 0)  -->
<!DOCTYPE svg PUBLIC "-//W3C//DTD SVG 1.1//EN" "http://www.w3.org/Graphics/SVG/1.1/DTD/svg11.dtd">
<svg version="1.1" id="Layer_1" xmlns="http://www.w3.org/2000/svg" xmlns:xlink="http://www.w3.org/1999/xlink" x="0px" y="0px"
	 width="64px" height="64px" viewBox="0 0 64 64" enable-background="new 0 0 64 64" xml:space="preserve">
<path fill="#444444" d="M63.00018,2c0-0.55225-0.44775-1-1-1c-8.96881,0-15.74463,1.927-20.16907,5.71857
	C38.75952,5.60828,35.44983,5,32,5c-3.44977,0-6.75946,0.60822-9.83099,1.71851C17.74457,2.92688,10.96881,1,2,1
	C1.44775,1,1,1.44775,1,2c0,12.10107,1.0257,17.16443,4.30975,20.66254C3.82397,26.14709,3,29.97894,3,34
	c0,15.99023,13.00928,29,29,29s29-13.00977,29-29c0-4.021-0.82391-7.85278-2.30969-11.33734
	C61.97449,19.16455,63.00018,14.1012,63.00018,2z M7.32703,18.78259c-1.36902-2.14697-2.1485-5.71649-2.29968-13.70056
	c5.49951,0.30823,9.83173,1.5,12.97595,3.52972C13.63245,11.03107,9.9502,14.54504,7.32703,18.78259z M17,24
	c0-1.65686,1.34314-3,3-3s3,1.34314,3,3s-1.34314,3-3,3S17,25.65686,17,24z M36,54h-8c-5.52283,0-10-4.47717-10-10
	c0-5.52289,4.47717-10,10-10h8c5.52283,0,10,4.47711,10,10C46,49.52283,41.52283,54,36,54z M44,27c-1.65686,0-3-1.34314-3-3
	s1.34314-3,3-3s3,1.34314,3,3S45.65686,27,44,27z M45.99677,8.61176c3.14423-2.02972,7.4765-3.2215,12.97607-3.52972
	c-0.15118,7.98425-0.93066,11.55383-2.2998,13.70074C54.04987,14.54523,50.36761,11.03107,45.99677,8.61176z"/>
<circle data-color="color-2" fill="#444444" cx="26" cy="44" r="3"/>
<circle data-color="color-2" fill="#444444" cx="38" cy="44" r="3"/>
</svg>
