<?xml version="1.0" encoding="utf-8"?>
<!-- Generator: Adobe Illustrator 19.1.0, SVG Export Plug-In . SVG Version: 6.00 Build 0)  -->
<!DOCTYPE svg PUBLIC "-//W3C//DTD SVG 1.1//EN" "http://www.w3.org/Graphics/SVG/1.1/DTD/svg11.dtd">
<svg version="1.1" id="Layer_1" xmlns="http://www.w3.org/2000/svg" xmlns:xlink="http://www.w3.org/1999/xlink" x="0px" y="0px"
	 width="64px" height="64px" viewBox="0 0 64 64" enable-background="new 0 0 64 64" xml:space="preserve">
<path fill="#444444" d="M53,22c0-2.86621-1.82275-5.42236-4.72607-6.74658c1.11426-2.98877,0.59717-6.08105-1.4248-8.10254
	c-2.021-2.021-5.11279-2.53955-8.10254-1.4248C37.42236,2.82275,34.86621,1,32,1s-5.42236,1.82275-6.74658,4.72607
	c-2.98926-1.11475-6.08105-0.59619-8.10254,1.4248c-2.02197,2.02148-2.53906,5.11377-1.4248,8.10254
	C12.82275,16.57764,11,19.13379,11,22s1.82275,5.42236,4.72607,6.74658c-1.11426,2.98877-0.59717,6.08105,1.4248,8.10254
	c2.02148,2.02197,5.11328,2.53857,8.10254,1.4248C26.57764,41.17725,29.13379,43,32,43s5.42236-1.82275,6.74658-4.72607
	c2.98877,1.11328,6.08057,0.59619,8.10254-1.4248c2.02197-2.02148,2.53906-5.11377,1.4248-8.10254
	C51.17725,27.42236,53,24.86621,53,22z M32,28c-3.31372,0-6-2.68628-6-6s2.68628-6,6-6s6,2.68628,6,6S35.31372,28,32,28z"/>
<path data-color="color-2" fill="#444444" d="M33,52.21069V46c0-0.55225-0.44775-1-1-1s-1,0.44775-1,1v16c0,0.55225,0.44775,1,1,1
	s1-0.44775,1-1v-3.05048C39.15839,58.44019,44,53.28979,44,47v-2C39.07617,45,34.84991,47.96832,33,52.21069z"/>
</svg>
