<?xml version="1.0" encoding="utf-8"?>
<!-- Generator: Adobe Illustrator 19.1.0, SVG Export Plug-In . SVG Version: 6.00 Build 0)  -->
<!DOCTYPE svg PUBLIC "-//W3C//DTD SVG 1.1//EN" "http://www.w3.org/Graphics/SVG/1.1/DTD/svg11.dtd">
<svg version="1.1" id="Layer_1" xmlns="http://www.w3.org/2000/svg" xmlns:xlink="http://www.w3.org/1999/xlink" x="0px" y="0px"
	 width="64px" height="64px" viewBox="0 0 64 64" enable-background="new 0 0 64 64" xml:space="preserve">
<path data-color="color-2" fill="#444444" d="M42,25c-3.96655,0-7.38348,2.31537-9,5.66302V4.25879c0-0.55225-0.44727-1-1-1
	s-1,0.44775-1,1v16.40424C29.38348,17.31537,25.96655,15,22,15h-2v4c0,5.52283,4.47717,10,10,10h1v19c0,0.55225,0.44727,1,1,1
	s1-0.44775,1-1v-9h1c5.52283,0,10-4.47717,10-10v-4H42z"/>
<path fill="#444444" d="M62,59H42.94434C42.44531,54.50635,38.625,51,34,51c-3.26367,0-6.21191,1.74121-7.80078,4.52295
	C25.51562,55.18164,24.76367,55,24,55c-2.41504,0-4.43457,1.7207-4.89941,4H2c-0.55273,0-1,0.44775-1,1s0.44727,1,1,1h60
	c0.55273,0,1-0.44775,1-1S62.55273,59,62,59z"/>
</svg>
