<?xml version="1.0" encoding="utf-8"?>
<!-- Generator: Adobe Illustrator 19.1.0, SVG Export Plug-In . SVG Version: 6.00 Build 0)  -->
<!DOCTYPE svg PUBLIC "-//W3C//DTD SVG 1.1//EN" "http://www.w3.org/Graphics/SVG/1.1/DTD/svg11.dtd">
<svg version="1.1" id="Layer_1" xmlns="http://www.w3.org/2000/svg" xmlns:xlink="http://www.w3.org/1999/xlink" x="0px" y="0px"
	 width="64px" height="64px" viewBox="0 0 64 64" enable-background="new 0 0 64 64" xml:space="preserve">
<path fill="#444444" d="M62.79297,45.14746L55.9975,21.84882c-0.03711-0.88074-0.6723-2.98969-11.31451-4.19379
	C42.55579,14.87354,39.36743,13,36,13c-2.68848,0-5.15137,0.95703-7.16895,2.77588C27.30078,15.08887,25.38574,15,24,15
	c-2.46533,0-4.6991,1.0954-6.32391,2.86456c-9.09119,1.24078-9.64258,3.12189-9.67395,3.9856l-6.7951,23.2973
	C1.06934,45.42578,1,45.71191,1,46c0,5.93164,29.73438,6,31,6s31-0.06836,31-6C63,45.71191,62.93066,45.42578,62.79297,45.14746z
	 M32,25c-13.16797,0-20.96094-1.86963-21.94727-2.99609c0.36316-0.37366,1.93066-1.18115,6.07623-1.88342
	c-0.25488,0.50665-0.47498,1.03711-0.64673,1.59277C19.09955,22.49194,25.84253,23,32,23
	c6.16595,0,11.42511-0.33008,14.88068-0.94867c-0.21027-0.76587-0.5025-1.50446-0.85089-2.21338
	c5.51044,0.7467,7.50348,1.72455,7.91846,2.16449C52.96875,23.12842,45.1748,25,32,25z"/>
</svg>
