<?xml version="1.0" encoding="utf-8"?>
<!-- Generator: Adobe Illustrator 19.1.0, SVG Export Plug-In . SVG Version: 6.00 Build 0)  -->
<!DOCTYPE svg PUBLIC "-//W3C//DTD SVG 1.1//EN" "http://www.w3.org/Graphics/SVG/1.1/DTD/svg11.dtd">
<svg version="1.1" id="Layer_1" xmlns="http://www.w3.org/2000/svg" xmlns:xlink="http://www.w3.org/1999/xlink" x="0px" y="0px"
	 width="64px" height="64px" viewBox="0 0 64 64" enable-background="new 0 0 64 64" xml:space="preserve">
<path data-color="color-2" fill="#444444" d="M44,61H34v-8h-4v8H20c-0.55225,0-1,0.44775-1,1s0.44775,1,1,1h24c0.55225,0,1-0.44775,1-1
	S44.55225,61,44,61z"/>
<path fill="#444444" d="M52.19238,25.70068C52.72363,24.53711,53,23.27832,53,22c0-4.9624-4.0376-9-9-9h-1.0459
	C42.98486,12.66699,43,12.33301,43,12c0-6.06543-4.93457-11-11-11S21,5.93457,21,12c0,0.33301,0.01514,0.66699,0.0459,1H20
	c-4.9624,0-9,4.0376-9,9c0,1.27832,0.27637,2.53711,0.80762,3.70068C6.56201,27.47217,3,32.35986,3,38c0,7.16846,5.83154,13,13,13
	h32c7.16846,0,13-5.83154,13-13C61,32.35986,57.43799,27.47217,52.19238,25.70068z M40.70703,33.70703L33,41.41406V45
	c0,0.55225-0.44775,1-1,1s-1-0.44775-1-1v-9.58594l-7.70703-7.70703c-0.39062-0.39062-0.39062-1.02344,0-1.41406
	s1.02344-0.39062,1.41406,0L31,32.58594V21c0-0.55225,0.44775-1,1-1s1,0.44775,1,1v17.58594l6.29297-6.29297
	c0.39062-0.39062,1.02344-0.39062,1.41406,0S41.09766,33.31641,40.70703,33.70703z"/>
</svg>
