<?xml version="1.0" encoding="utf-8"?>
<!-- Generator: Adobe Illustrator 19.1.0, SVG Export Plug-In . SVG Version: 6.00 Build 0)  -->
<!DOCTYPE svg PUBLIC "-//W3C//DTD SVG 1.1//EN" "http://www.w3.org/Graphics/SVG/1.1/DTD/svg11.dtd">
<svg version="1.1" id="Layer_1" xmlns="http://www.w3.org/2000/svg" xmlns:xlink="http://www.w3.org/1999/xlink" x="0px" y="0px"
	 width="64px" height="64px" viewBox="0 0 64 64" enable-background="new 0 0 64 64" xml:space="preserve">
<path fill="#444444" d="M63,10c0-4.9624-4.0376-9-9-9c-3.74109,0-6.98895,2.25909-8.33545,5.6394C41.75958,4.3327,37.08136,3,32,3
	c-5.08118,0-9.75922,1.33258-13.66406,3.63916C16.98907,3.2594,13.74078,1,10,1c-4.9624,0-9,4.0376-9,9
	c0,4.3399,3.07489,7.95654,7.21521,8.7851C7.42883,21.04633,7,23.46808,7,26c0,7.2373,2.70361,16.30469,7.05566,23.66504
	C19.14014,58.26465,25.51318,63,32,63c13.80029,0,25-22.38867,25-37c0-2.53174-0.42877-4.95331-1.21503-7.21442
	C59.92529,17.95697,63,14.34027,63,10z M10,14c-2.20911,0-4-1.79089-4-4c0-2.20917,1.79089-4,4-4
	c2.17743,0,3.94025,1.74213,3.99066,3.90741c-1.28516,1.2182-2.42456,2.5675-3.38733,4.0318C10.40509,13.96942,10.20667,14,10,14z
	 M19,22c0-1.65686,1.34314-3,3-3s3,1.34314,3,3s-1.34314,3-3,3S19,23.65686,19,22z M36,50c-1.6413,0-3.08777-0.80573-4-2.03094
	C31.08777,49.19427,29.6413,50,28,50c-2.75684,0-5-2.24316-5-5c0-0.55273,0.44775-1,1-1s1,0.44727,1,1c0,1.6543,1.3457,3,3,3
	s3-1.3457,3-3v-3.39117c-0.51874-0.18427-0.98822-0.49347-1.34277-0.93695l-3.83838-4.79785
	c-0.72705-0.90918-0.86572-2.125-0.36182-3.17334C25.96143,31.65137,26.99756,31,28.16113,31h7.67773
	c1.16357,0,2.19971,0.65137,2.7041,1.70068c0.50391,1.04834,0.36523,2.26416-0.36182,3.17334l-3.83887,4.79883
	C33.98804,41.11572,33.51868,41.42468,33,41.60889V45c0,1.6543,1.3457,3,3,3s3-1.3457,3-3c0-0.55273,0.44775-1,1-1s1,0.44727,1,1
	C41,47.75684,38.75684,50,36,50z M42,25c-1.65686,0-3-1.34314-3-3s1.34314-3,3-3s3,1.34314,3,3S43.65686,25,42,25z M54,14
	c-0.20667,0-0.40509-0.03058-0.60333-0.06079c-0.96277-1.46429-2.10217-2.8136-3.38733-4.0318C50.05975,7.74213,51.82257,6,54,6
	c2.20917,0,4,1.79083,4,4C58,12.20911,56.20917,14,54,14z"/>
</svg>
