<?xml version="1.0" encoding="utf-8"?>
<!-- Generator: Adobe Illustrator 19.1.0, SVG Export Plug-In . SVG Version: 6.00 Build 0)  -->
<!DOCTYPE svg PUBLIC "-//W3C//DTD SVG 1.1//EN" "http://www.w3.org/Graphics/SVG/1.1/DTD/svg11.dtd">
<svg version="1.1" id="Layer_1" xmlns="http://www.w3.org/2000/svg" xmlns:xlink="http://www.w3.org/1999/xlink" x="0px" y="0px"
	 width="64px" height="64px" viewBox="0 0 64 64" enable-background="new 0 0 64 64" xml:space="preserve">
<path data-color="color-2" fill="#444444" d="M61.99902,30c-0.43848,0-0.87988-0.14307-1.24805-0.43848L32,6.56104L3.24902,29.56152
	c-0.86035,0.69092-2.12109,0.55078-2.81055-0.31201c-0.69043-0.86279-0.55078-2.12109,0.3125-2.81104l30-24
	c0.73047-0.58496,1.76758-0.58496,2.49805,0l30,24c0.86328,0.68994,1.00293,1.94824,0.3125,2.81104
	C63.16699,29.74316,62.58496,30,61.99902,30z"/>
<path fill="#444444" d="M55,27.52234L32,9.12207L9,27.52161V62c0,0.55228,0.44771,1,1,1h11c0.55228,0,1-0.44772,1-1l0-17.65747
	c0-5.32618,4.01926-9.97679,9.3343-10.32094C37.15851,33.64447,42,38.2568,42,44v18c0,0.55228,0.44772,1,1,1h11
	c0.55228,0,1-0.44772,1-1V27.52234z"/>
</svg>
