<?xml version="1.0" encoding="utf-8"?>
<!-- Generator: Adobe Illustrator 19.1.0, SVG Export Plug-In . SVG Version: 6.00 Build 0)  -->
<!DOCTYPE svg PUBLIC "-//W3C//DTD SVG 1.1//EN" "http://www.w3.org/Graphics/SVG/1.1/DTD/svg11.dtd">
<svg version="1.1" id="Layer_1" xmlns="http://www.w3.org/2000/svg" xmlns:xlink="http://www.w3.org/1999/xlink" x="0px" y="0px"
	 width="64px" height="64px" viewBox="0 0 64 64" enable-background="new 0 0 64 64" xml:space="preserve">
<path fill="#444444" d="M32,8C21.62402,8,2,9.46289,2,15v12c0,5.53711,19.62402,7,30,7c2.04669,0,4.45526-0.05823,7-0.19208V30
	V19.82336C36.82343,19.93561,34.49261,20,32,20c-18.11719,0-28-3.30322-28-5s9.88281-5,28-5s28,3.30322,28,5
	c0,1.36615-6.41089,3.77234-18.36328,4.65875C41.86542,20.40076,42,21.18365,42,22v11.617c9.64398-0.72333,20-2.59442,20-6.617V15
	C62,9.46289,42.37598,8,32,8z"/>
<path data-color="color-2" fill="#444444" d="M37.6261,39.76917C39.06543,38.67218,40,36.94537,40,35V22c0-3.30859-2.69141-6-6-6
	c-2.54834,0-4.78503,1.62061-5.62646,3.94922c0.70728,0.01831,1.43921,0.02722,2.17554,0.03479C31.24634,18.78882,32.54688,18,34,18
	c2.20605,0,4,1.79443,4,4v13c0,2.20605-1.79395,4-4,4s-4-1.79395-4-4v-1.01855c-0.64441-0.01068-1.31287-0.02722-2-0.04877V35
	c0,1.94537,0.93457,3.67218,2.3739,4.76917C27.21338,41.16711,25,44.32758,25,48c0,4.96289,4.03711,9,9,9s9-4.03711,9-9
	C43,44.32758,40.78662,41.16705,37.6261,39.76917z"/>
</svg>
