<?xml version="1.0" encoding="utf-8"?>
<!-- Generator: Adobe Illustrator 19.1.0, SVG Export Plug-In . SVG Version: 6.00 Build 0)  -->
<!DOCTYPE svg PUBLIC "-//W3C//DTD SVG 1.1//EN" "http://www.w3.org/Graphics/SVG/1.1/DTD/svg11.dtd">
<svg version="1.1" id="Layer_1" xmlns="http://www.w3.org/2000/svg" xmlns:xlink="http://www.w3.org/1999/xlink" x="0px" y="0px"
	 width="64px" height="64px" viewBox="0 0 64 64" enable-background="new 0 0 64 64" xml:space="preserve">
<path fill="#444444" d="M54.90234,49.56836l-22-46C32.73584,3.22119,32.38525,3,32,3s-0.73584,0.22119-0.90234,0.56836l-22,46
	c-0.14795,0.31006-0.12695,0.67432,0.05615,0.96484S9.65674,51,10,51h44c0.34326,0,0.66309-0.17627,0.84619-0.4668
	S55.05029,49.87842,54.90234,49.56836z"/>
<rect data-color="color-2" x="30" y="53" fill="#444444" width="4" height="8"/>
<path data-color="color-2" fill="#444444" d="M61.89453,37.55273l-14-28c-0.33887-0.67773-1.4502-0.67773-1.78906,0l-4.1524,8.30475
	L52.06476,39H61c0.34668,0,0.66846-0.17969,0.85059-0.47412C62.03271,38.23096,62.04932,37.86279,61.89453,37.55273z"/>
<path data-color="color-2" fill="#444444" d="M22.04688,17.85736l-4.15234-8.30463c-0.33887-0.67773-1.4502-0.67773-1.78906,0l-14,28
	c-0.15479,0.31006-0.13818,0.67822,0.04395,0.97314C2.33154,38.82031,2.65332,39,3,39h8.93506L22.04688,17.85736z"/>
</svg>
