<?xml version="1.0" encoding="utf-8"?>
<!-- Generator: Adobe Illustrator 19.1.0, SVG Export Plug-In . SVG Version: 6.00 Build 0)  -->
<!DOCTYPE svg PUBLIC "-//W3C//DTD SVG 1.1//EN" "http://www.w3.org/Graphics/SVG/1.1/DTD/svg11.dtd">
<svg version="1.1" id="Layer_1" xmlns="http://www.w3.org/2000/svg" xmlns:xlink="http://www.w3.org/1999/xlink" x="0px" y="0px"
	 width="48px" height="48px" viewBox="0 0 48 48" enable-background="new 0 0 48 48" xml:space="preserve">
<path fill="#72C472" d="M47.70851,8.29266l-5.99969-5.99969c-0.39062-0.39062-1.02344-0.39062-1.41406,0s-0.39062,1.02344,0,1.41406
	L44.58772,8H5.00178c-0.55225,0-1,0.44775-1,1s0.44775,1,1,1h39.58594l-4.29297,4.29297c-0.39062,0.39062-0.39062,1.02344,0,1.41406
	C40.49006,15.90234,40.74592,16,41.00178,16s0.51172-0.09766,0.70703-0.29297l5.99969-5.99969
	C48.09716,9.31919,48.09716,8.68081,47.70851,8.29266z"/>
<path fill="#EEBC99" d="M34.66407,11.02737C33.68075,11.18734,33,12.11071,33,13.10696v8.9
	c0,0.54956-0.44347,0.99613-0.99301,0.99997l0,0C31.45199,23.01081,31,22.56197,31,22.00696l0.00001-13.36425
	c0-1.30775-0.94095-2.49946-2.24219-2.62977C27.26135,5.86309,26,7.03417,26,8.49993v12.5c0,0.55225-0.44769,1-1,1s-1-0.44775-1-1
	l0.00001-14.35722c0-1.30775-0.94095-2.49946-2.24219-2.62977C20.26135,3.86309,19,5.03417,19,6.49993v14.5c0,0.55225-0.44769,1-1,1
	s-1-0.44775-1-1l0.00001-12.35722c0-1.30775-0.94095-2.49946-2.24219-2.62977C13.26135,5.86309,12,7.03417,12,8.49993v21.44208
	c0,1.95453-2.51522,2.74859-3.63747,1.14835L6.6322,28.62304c-0.93275-1.33004-2.76477-1.82379-4.14176-0.96185
	c-1.46849,0.91921-1.85016,2.86758-0.86813,4.26782l8.46527,12.07092L37,43.99999v-31
	C37,11.78525,35.9171,10.82353,34.66407,11.02737z"/>
</svg>
