<?xml version="1.0" encoding="utf-8"?>
<!-- Generator: Adobe Illustrator 19.1.0, SVG Export Plug-In . SVG Version: 6.00 Build 0)  -->
<!DOCTYPE svg PUBLIC "-//W3C//DTD SVG 1.1//EN" "http://www.w3.org/Graphics/SVG/1.1/DTD/svg11.dtd">
<svg version="1.1" id="Layer_1" xmlns="http://www.w3.org/2000/svg" xmlns:xlink="http://www.w3.org/1999/xlink" x="0px" y="0px"
	 width="48px" height="48px" viewBox="0 0 48 48" enable-background="new 0 0 48 48" xml:space="preserve">
<path fill="#5A7A84" d="M39,13c-4.41113,0-8,3.58887-8,8s3.58887,8,8,8s8-3.58887,8-8S43.41113,13,39,13z"/>
<path fill="#5A7A84" d="M13,29c-4.41113,0-8,3.58887-8,8s3.58887,8,8,8s8-3.58887,8-8S17.41113,29,13,29z"/>
<path fill="#72C472" d="M31.42334,10.67188l-2.60889-6.49609c-0.20605-0.5127-0.78857-0.7627-1.30029-0.55518
	c-0.5127,0.20557-0.76123,0.78809-0.55518,1.30029l1.66077,4.13611C26.80951,8.3667,24.90497,8,23,8
	C14.64697,8,7.7785,14.43726,7.07043,22.6098l-3.26086-3.27777c-0.38916-0.39307-1.02295-0.39355-1.41406-0.00391
	c-0.3916,0.38965-0.39355,1.02246-0.00391,1.41406l4.93701,4.96289C7.51562,25.89355,7.77002,25.99902,8.03516,26
	c0.00049,0,0.00146,0,0.00244,0c0.26416,0,0.51807-0.10449,0.70508-0.29102l4.9624-4.93701
	c0.3916-0.38965,0.39355-1.02295,0.00391-1.41406c-0.38965-0.39258-1.02344-0.39307-1.41406-0.00391l-3.22064,3.20441
	C9.79828,15.51349,15.76703,10,23,10c1.69775,0,3.39746,0.33423,5.01172,0.96442l-4.38428,1.76068
	c-0.5127,0.20557-0.76123,0.78809-0.55518,1.30029c0.15674,0.39062,0.53174,0.62793,0.92822,0.62793
	c0.12402,0,0.25-0.02344,0.37207-0.07275l6.49561-2.6084c0.24609-0.09863,0.44287-0.29102,0.54736-0.53516
	C31.51953,11.19336,31.52246,10.91797,31.42334,10.67188z"/>
</svg>
