<?xml version="1.0" encoding="utf-8"?>
<!-- Generator: Adobe Illustrator 19.1.0, SVG Export Plug-In . SVG Version: 6.00 Build 0)  -->
<!DOCTYPE svg PUBLIC "-//W3C//DTD SVG 1.1//EN" "http://www.w3.org/Graphics/SVG/1.1/DTD/svg11.dtd">
<svg version="1.1" id="Layer_1" xmlns="http://www.w3.org/2000/svg" xmlns:xlink="http://www.w3.org/1999/xlink" x="0px" y="0px"
	 width="48px" height="48px" viewBox="0 0 48 48" enable-background="new 0 0 48 48" xml:space="preserve">
<path fill="#335262" d="M18.75694,9.29736l-6-6.95068c-0.3988-0.46199-1.11487-0.46199-1.51367,0l-6,6.95068
	c-0.25586,0.2959-0.31543,0.71387-0.15234,1.06982C5.25401,10.72266,5.60862,11,6.00022,11h4v9c0,1.10457,0.89543,2,2,2h0
	c1.10457,0,2-0.89543,2-2v-9h4c0.3916,0,0.74599-0.27734,0.90907-0.63281C19.07237,10.01123,19.0128,9.59326,18.75694,9.29736z"/>
<path fill="#335262" d="M42.75673,9.29736l-6-6.95068c-0.3988-0.46199-1.11487-0.46199-1.51367,0l-6,6.95068
	c-0.25586,0.2959-0.31543,0.71387-0.15234,1.06982C29.2538,10.72266,29.6084,11,30,11h4v9c0,1.10457,0.89543,2,2,2h0
	c1.10457,0,2-0.89543,2-2v-9h4c0.3916,0,0.74599-0.27734,0.90907-0.63281C43.07216,10.01123,43.01259,9.59326,42.75673,9.29736z"/>
<circle fill="#5A7A84" cx="12" cy="36" r="10"/>
<circle fill="#5A7A84" cx="36" cy="35" r="10"/>
</svg>
