<?xml version="1.0" encoding="utf-8"?>
<!-- Generator: Adobe Illustrator 19.1.0, SVG Export Plug-In . SVG Version: 6.00 Build 0)  -->
<!DOCTYPE svg PUBLIC "-//W3C//DTD SVG 1.1//EN" "http://www.w3.org/Graphics/SVG/1.1/DTD/svg11.dtd">
<svg version="1.1" id="Layer_1" xmlns="http://www.w3.org/2000/svg" xmlns:xlink="http://www.w3.org/1999/xlink" x="0px" y="0px"
	 width="48px" height="48px" viewBox="0 0 48 48" enable-background="new 0 0 48 48" xml:space="preserve">
<circle fill="#E6E6E6" cx="37" cy="12" r="9"/>
<path fill="#335262" d="M37,22c-5.51416,0-10-4.48584-10-10S31.48584,2,37,2s10,4.48584,10,10S42.51416,22,37,22z M37,4
	c-4.41113,0-8,3.58887-8,8s3.58887,8,8,8s8-3.58887,8-8S41.41113,4,37,4z"/>
<path fill="#E86C60" d="M41,13h-4c-0.55225,0-1-0.44775-1-1V8c0-0.55225,0.44775-1,1-1s1,0.44775,1,1v3h3c0.55225,0,1,0.44775,1,1
	S41.55225,13,41,13z"/>
<circle fill="#43A6DD" cx="11.5" cy="10.5" r="10.5"/>
<path fill="#EEBC99" d="M30,27c0-1.03125-0.96171-2-2.14815-2c-0.99063,0-1.81618,0.62776-2.06424,1.47687
	C25.74982,25.10384,24.54846,24,23.06454,24h-0.09198c-1.17686,0-2.17089,0.69696-2.55459,1.66876
	c0,0-0.10547-2.66876-2.72714-2.66876h-0.08529C16.32221,23,15.20245,23.69879,15,25V11.5C15,9.567,13.433,8,11.5,8H11.5
	C9.567,8,8,9.567,8,11.5V28H3.14815C1.96176,28,1,28.89543,1,30v8c0,3.5,5.37037,6.0625,5.37037,10h20.40741
	C26.77778,48,30,34.25,30,27z"/>
<path fill="#CE9C7A" d="M7,34L7,34c-0.55229,0-1-0.44772-1-1v-5h2v5C8,33.55228,7.55229,34,7,34z"/>
</svg>
