<?xml version="1.0" encoding="utf-8"?>
<!-- Generator: Adobe Illustrator 19.1.0, SVG Export Plug-In . SVG Version: 6.00 Build 0)  -->
<!DOCTYPE svg PUBLIC "-//W3C//DTD SVG 1.1//EN" "http://www.w3.org/Graphics/SVG/1.1/DTD/svg11.dtd">
<svg version="1.1" id="Layer_1" xmlns="http://www.w3.org/2000/svg" xmlns:xlink="http://www.w3.org/1999/xlink" x="0px" y="0px"
	 width="48px" height="48px" viewBox="0 0 48 48" enable-background="new 0 0 48 48" xml:space="preserve">
<path fill="#72C472" d="M18.35156,8.28711c-0.23193-0.50146-0.82471-0.72021-1.32715-0.48926l-4.16162,1.91968l2.73828-7.40991
	c0.19141-0.51807-0.07324-1.09326-0.59131-1.28467c-0.51709-0.19238-1.09277,0.07324-1.28467,0.59131L10.98492,9.0293
	l-1.92194-4.1665c-0.23145-0.50146-0.8252-0.72021-1.32715-0.48926C7.23438,4.60498,7.01562,5.19922,7.24658,5.70068
	l2.93213,6.35645c0.23297,0.50453,0.83957,0.71398,1.32715,0.48926l6.35645-2.93213
	C18.36377,9.38281,18.58252,8.78857,18.35156,8.28711z"/>
<path fill="#72C472" d="M9.82422,17.10986c-0.00659-0.01422-0.01941-0.02252-0.02655-0.03625
	c-0.26618-0.51514-0.83924-0.65687-1.28937-0.45563c-0.00366,0.00165-0.00757,0.00098-0.01123,0.00262l-6.35645,2.93213
	c-0.50146,0.23145-0.72021,0.82568-0.48926,1.32715c0.23193,0.50146,0.82471,0.72021,1.32715,0.48926l4.15747-1.91815
	l-2.74976,7.40985c-0.19238,0.51807,0.07178,1.09375,0.58936,1.28564c0.11475,0.04248,0.23242,0.06299,0.34814,0.06299
	c0.40576,0,0.78809-0.24951,0.9375-0.65234l2.75494-7.42383l1.92377,4.17041c0.16895,0.36572,0.53076,0.58105,0.90869,0.58105
	c0.14014,0,0.28271-0.0293,0.41846-0.0918c0.50146-0.23145,0.72021-0.82568,0.48926-1.32715L9.82422,17.10986z"/>
<path fill="#EEBC99" d="M41.08809,25.35995c-0.87277-1.81038-2.65289-2.64177-5.42543-2.29321l-0.00413,0.00826
	c-1.01997-1.13927-2.61343-1.7936-4.99884-1.57428l-0.00413,0.00743c-0.6596-3.74764-1.88782-7.22209-3.2812-9.46187
	c-0.79587-1.27939-2.42329-1.86843-3.80771-1.27368c-1.77107,0.76079-2.37611,2.87468-1.38767,4.43233
	c1.64842,2.59774,2.52114,8.54305,2.13233,13.36271c-0.14085,1.74578-2.315,2.47091-3.50578,1.18655l-1.92777-2.07925
	c-1.34335-1.42521-3.5878-1.49158-5.01301-0.14818s-1.49158,3.5878-0.14818,5.01301L24.07805,46h18.23806l3.31219-12.58652
	C46.59607,29.73619,45.871,25.74798,41.08809,25.35995z"/>
</svg>
