<?xml version="1.0" encoding="utf-8"?>
<!-- Generator: Adobe Illustrator 19.1.0, SVG Export Plug-In . SVG Version: 6.00 Build 0)  -->
<!DOCTYPE svg PUBLIC "-//W3C//DTD SVG 1.1//EN" "http://www.w3.org/Graphics/SVG/1.1/DTD/svg11.dtd">
<svg version="1.1" id="Layer_1" xmlns="http://www.w3.org/2000/svg" xmlns:xlink="http://www.w3.org/1999/xlink" x="0px" y="0px"
	 width="48px" height="48px" viewBox="0 0 48 48" enable-background="new 0 0 48 48" xml:space="preserve">
<path fill="#72C472" d="M3.03906,11.51465c0-3.52344,2.97656-6.5,6.5-6.5c1.98004,0,3.78009,0.90021,4.98511,2.40356l-3.052,0.30151
	c-0.5498,0.0542-0.95117,0.54395-0.89697,1.09326c0.05078,0.5166,0.48584,0.90186,0.99414,0.90186
	c0.03271,0,0.06592-0.00146,0.09912-0.00488l4.66846-0.46143c0.49072-0.04834,0.87305-0.44727,0.90039-0.93994l0.26904-4.85107
	c0.03027-0.55127-0.3916-1.02295-0.94336-1.05371c-0.54053-0.02393-1.02295,0.39209-1.05371,0.94336l-0.11456,2.06439
	c-1.54224-1.50934-3.60864-2.39691-5.85565-2.39691c-4.68701,0-8.5,3.81299-8.5,8.5c0,0.55225,0.44775,1,1,1
	S3.03906,12.06689,3.03906,11.51465z"/>
<path fill="#72C472" d="M17.96094,11.48535c-0.55225,0-1,0.44775-1,1c0,3.52344-2.97656,6.5-6.5,6.5
	c-1.98004,0-3.78009-0.90021-4.98511-2.40356l3.052-0.30151c0.5498-0.0542,0.95117-0.54395,0.89697-1.09326
	c-0.05371-0.54932-0.5415-0.94873-1.09326-0.89697l-4.66846,0.46143c-0.49072,0.04834-0.87305,0.44727-0.90039,0.93994
	l-0.26904,4.85107c-0.03027,0.55127,0.3916,1.02295,0.94336,1.05371c0.01855,0.00098,0.0376,0.00146,0.05615,0.00146
	c0.52686,0,0.96777-0.41211,0.99756-0.94482l0.11456-2.06439c1.54224,1.50934,3.60864,2.39691,5.85565,2.39691
	c4.68701,0,8.5-3.81299,8.5-8.5C18.96094,11.93311,18.51318,11.48535,17.96094,11.48535z"/>
<path fill="#EEBC99" d="M41.08809,25.35995c-0.87277-1.81038-2.65289-2.64177-5.42543-2.29321l-0.00413,0.00826
	c-1.01997-1.13927-2.61343-1.7936-4.99884-1.57428l-0.00413,0.00743c-0.6596-3.74764-1.88782-7.22209-3.2812-9.46187
	c-0.79587-1.27939-2.42329-1.86843-3.80771-1.27368c-1.77107,0.76079-2.37611,2.87468-1.38767,4.43233
	c1.64842,2.59774,2.52114,8.54305,2.13233,13.36271c-0.14085,1.74578-2.315,2.47091-3.50578,1.18655l-1.92777-2.07925
	c-1.34335-1.42521-3.5878-1.49158-5.01301-0.14818s-1.49158,3.5878-0.14818,5.01301L24.07805,46h18.23806l3.31219-12.58652
	C46.59607,29.73619,45.871,25.74798,41.08809,25.35995z"/>
</svg>
