<?xml version="1.0" encoding="utf-8"?>
<!-- Generator: Adobe Illustrator 19.1.0, SVG Export Plug-In . SVG Version: 6.00 Build 0)  -->
<!DOCTYPE svg PUBLIC "-//W3C//DTD SVG 1.1//EN" "http://www.w3.org/Graphics/SVG/1.1/DTD/svg11.dtd">
<svg version="1.1" id="Layer_1" xmlns="http://www.w3.org/2000/svg" xmlns:xlink="http://www.w3.org/1999/xlink" x="0px" y="0px"
	 width="48px" height="48px" viewBox="0 0 48 48" enable-background="new 0 0 48 48" xml:space="preserve">
<path fill="#72C472" d="M15.70703,10.29297L9.70789,4.29382c-0.38892-0.38994-1.02844-0.38835-1.41577,0l-5.99915,5.99915
	c-0.39062,0.39062-0.39062,1.02344,0,1.41406s1.02344,0.39062,1.41406,0L8,7.41406V21c0,0.55225,0.44727,1,1,1s1-0.44775,1-1
	V7.41406l4.29297,4.29297C14.48828,11.90234,14.74414,12,15,12s0.51172-0.09766,0.70703-0.29297
	C16.09766,11.31641,16.09766,10.68359,15.70703,10.29297z"/>
<path fill="#EEBC99" d="M43.66407,13.02737C42.68075,13.18734,42,14.11071,42,15.10696v8.9
	c0,0.54956-0.44347,0.99613-0.99301,0.99997l0,0C40.45198,25.01081,40,24.56197,40,24.00696l0-13.36425
	c0-1.30775-0.94094-2.49946-2.24219-2.62977C36.26135,7.86309,35,9.03417,35,10.49993v12.5c0,0.55225-0.44769,1-1,1s-1-0.44775-1-1
	l0-14.35722c0-1.30775-0.94094-2.49946-2.24219-2.62977C29.26135,5.86309,28,7.03417,28,8.49993v14.5c0,0.55225-0.44769,1-1,1
	s-1-0.44775-1-1l0.00001-12.35722c0-1.30775-0.94095-2.49946-2.24219-2.62977C22.26135,7.86309,21,9.03417,21,10.49993v21.44208
	c0,1.95453-2.51522,2.74859-3.63747,1.14835l-1.73033-2.46732c-0.93275-1.33004-2.76477-1.82379-4.14176-0.96185
	c-1.46848,0.91921-1.85016,2.86758-0.86813,4.26782l8.46527,12.07092L46,45.99999v-31
	C46,13.78525,44.9171,12.82353,43.66407,13.02737z"/>
</svg>
