<?xml version="1.0" encoding="utf-8"?>
<!-- Generator: Adobe Illustrator 19.1.0, SVG Export Plug-In . SVG Version: 6.00 Build 0)  -->
<!DOCTYPE svg PUBLIC "-//W3C//DTD SVG 1.1//EN" "http://www.w3.org/Graphics/SVG/1.1/DTD/svg11.dtd">
<svg version="1.1" id="Layer_1" xmlns="http://www.w3.org/2000/svg" xmlns:xlink="http://www.w3.org/1999/xlink" x="0px" y="0px"
	 width="48px" height="48px" viewBox="0 0 48 48" enable-background="new 0 0 48 48" xml:space="preserve">
<path fill="#72C472" d="M15.70703,9.29297L9.70789,3.29382c-0.38892-0.38994-1.02844-0.38835-1.41577,0L2.29297,9.29297
	c-0.39062,0.39062-0.39062,1.02344,0,1.41406s1.02344,0.39062,1.41406,0L8,6.41406V25c0,0.55225,0.44727,1,1,1s1-0.44775,1-1
	V6.41406l4.29297,4.29297C14.48828,10.90234,14.74414,11,15,11s0.51172-0.09766,0.70703-0.29297
	C16.09766,10.31641,16.09766,9.68359,15.70703,9.29297z"/>
<path fill="#EEBC99" d="M43.85187,22c-0.99066,0-1.81622,0.62775-2.06427,1.47687C41.74982,22.10382,40.54846,21,39.06451,21
	h-0.09198C38.1911,21,37.49512,21.31146,37,21.80243l0-14.6327c0-1.62448-1.21643-3.08056-2.83868-3.16549
	C32.43121,3.91365,31,5.28968,31,7v14c0,0.55228-0.44771,1-1,1h0c-0.55228,0-1-0.44772-1-1l0-11.83027
	c0-1.62448-1.21643-3.08056-2.83868-3.16549C24.43121,5.91365,23,7.28968,23,9v16h-4.85187C16.96173,25,16,25.89539,16,27v8
	c0,3.19385,4.45959,5.61029,5.24194,9h21.76282C43.73767,40.71313,46,30.07611,46,24C46,22.96875,45.03827,22,43.85187,22z"/>
<path fill="#CE9C7A" d="M22,31L22,31c-0.55229,0-1-0.44771-1-1v-5h2v5C23,30.55229,22.55229,31,22,31z"/>
</svg>
