<?xml version="1.0" encoding="utf-8"?>
<!-- Generator: Adobe Illustrator 19.1.0, SVG Export Plug-In . SVG Version: 6.00 Build 0)  -->
<!DOCTYPE svg PUBLIC "-//W3C//DTD SVG 1.1//EN" "http://www.w3.org/Graphics/SVG/1.1/DTD/svg11.dtd">
<svg version="1.1" id="Layer_1" xmlns="http://www.w3.org/2000/svg" xmlns:xlink="http://www.w3.org/1999/xlink" x="0px" y="0px"
	 width="48px" height="48px" viewBox="0 0 48 48" enable-background="new 0 0 48 48" xml:space="preserve">
<path fill="#72C472" d="M12.29297,36.29297L9,39.58594V28c0-0.55273-0.44775-1-1-1s-1,0.44727-1,1v11.58594l-3.29297-3.29297
	c-0.39062-0.39062-1.02344-0.39062-1.41406,0s-0.39062,1.02344,0,1.41406l5,5C7.48828,42.90234,7.74414,43,8,43
	s0.51172-0.09766,0.70703-0.29297l5-5c0.39062-0.39062,0.39062-1.02344,0-1.41406S12.68359,35.90234,12.29297,36.29297z"/>
<path fill="#72C472" d="M3.70703,11.70703L7,8.41406V20c0,0.55273,0.44775,1,1,1s1-0.44727,1-1V8.41406l3.29297,3.29297
	C12.48828,11.90234,12.74414,12,13,12s0.51172-0.09766,0.70703-0.29297c0.39062-0.39062,0.39062-1.02344,0-1.41406l-5-5
	c-0.39062-0.39062-1.02344-0.39062-1.41406,0l-5,5c-0.39062,0.39062-0.39062,1.02344,0,1.41406S3.31641,12.09766,3.70703,11.70703z"
	/>
<path fill="#EEBC99" d="M47,23c0-1.03125-0.96171-2-2.14815-2c-0.99063,0-1.81618,0.62776-2.06424,1.47687
	C42.74982,21.10384,41.54846,20,40.06454,20h-0.09198c-1.17686,0-2.17089,0.69696-2.5546,1.66876
	c0,0-0.10547-2.66876-2.72714-2.66876h-0.08529C33.32221,19,32.20245,19.69879,32,21V7.5C32,5.567,30.433,4,28.5,4H28.5
	C26.567,4,25,5.567,25,7.5V24h-4.85185C18.96176,24,18,24.89543,18,26v8c0,3.5,5.37037,6.0625,5.37037,10h20.40741
	C43.77778,44,47,30.25,47,23z"/>
<path fill="#CE9C7A" d="M24,30L24,30c-0.55229,0-1-0.44771-1-1v-5h2v5C25,29.55229,24.55229,30,24,30z"/>
</svg>
