<?xml version="1.0" encoding="utf-8"?>
<!-- Generator: Adobe Illustrator 19.1.0, SVG Export Plug-In . SVG Version: 6.00 Build 0)  -->
<!DOCTYPE svg PUBLIC "-//W3C//DTD SVG 1.1//EN" "http://www.w3.org/Graphics/SVG/1.1/DTD/svg11.dtd">
<svg version="1.1" id="Layer_1" xmlns="http://www.w3.org/2000/svg" xmlns:xlink="http://www.w3.org/1999/xlink" x="0px" y="0px"
	 width="48px" height="48px" viewBox="0 0 48 48" enable-background="new 0 0 48 48" xml:space="preserve">
<path fill="#72C472" d="M14.29297,15.29297L10,19.58594V1c0-0.55225-0.44727-1-1-1S8,0.44775,8,1v18.58594l-4.29297-4.29297
	c-0.39062-0.39062-1.02344-0.39062-1.41406,0s-0.39062,1.02344,0,1.41406l5.99915,5.99915
	c0.38892,0.38994,1.02526,0.39154,1.41577,0l5.99915-5.99915c0.39062-0.39062,0.39062-1.02344,0-1.41406
	S14.68359,14.90234,14.29297,15.29297z"/>
<path fill="#EEBC99" d="M46,20c0-1.03125-0.96171-2-2.14815-2c-0.99063,0-1.81618,0.62776-2.06424,1.47687
	C41.74982,18.10384,40.54846,17,39.06454,17h-0.09198c-1.17686,0-2.17089,0.69696-2.5546,1.66876
	c0,0-0.10547-2.66876-2.72714-2.66876h-0.08529C32.32221,16,31.20245,16.69879,31,18V4.5C31,2.567,29.433,1,27.5,1H27.5
	C25.567,1,24,2.567,24,4.5V21h-4.85185C17.96176,21,17,21.89543,17,23v8c0,3.5,5.37037,6.0625,5.37037,10h20.40741
	C42.77778,41,46,27.25,46,20z"/>
<path fill="#CE9C7A" d="M23,27L23,27c-0.55229,0-1-0.44771-1-1v-5h2v5C24,26.55229,23.55229,27,23,27z"/>
<path fill="#5A7A84" d="M44,48H21c-0.55228,0-1-0.44772-1-1v-5c0-0.55228,0.44772-1,1-1h23c0.55228,0,1,0.44772,1,1v5
	C45,47.55228,44.55228,48,44,48z"/>
</svg>
