<?xml version="1.0" encoding="utf-8"?>
<!-- Generator: Adobe Illustrator 19.1.0, SVG Export Plug-In . SVG Version: 6.00 Build 0)  -->
<!DOCTYPE svg PUBLIC "-//W3C//DTD SVG 1.1//EN" "http://www.w3.org/Graphics/SVG/1.1/DTD/svg11.dtd">
<svg version="1.1" id="Layer_1" xmlns="http://www.w3.org/2000/svg" xmlns:xlink="http://www.w3.org/1999/xlink" x="0px" y="0px"
	 width="48px" height="48px" viewBox="0 0 48 48" enable-background="new 0 0 48 48" xml:space="preserve">
<path fill="#335262" d="M26,14V8h3c0.38818,0,0.74121-0.22461,0.90576-0.57568c0.16357-0.35254,0.11133-0.7666-0.1377-1.06445l-5-6
	C24.57812,0.13184,24.29688,0,24,0s-0.57812,0.13184-0.76807,0.35986l-5.00049,6C18.0791,6.54297,18,6.77051,18,7
	c0,0.14404,0.03125,0.28906,0.09473,0.42432C18.25879,7.77539,18.6123,8,19,8h3v6c0,0.55229,0.44772,1,1,1h2
	C25.55228,15,26,14.55229,26,14z"/>
<path fill="#335262" d="M34,26h6v3c0,0.38818,0.22461,0.74121,0.57568,0.90576c0.35254,0.16357,0.7666,0.11133,1.06445-0.1377l6-5
	C47.86816,24.57812,48,24.29688,48,24s-0.13184-0.57812-0.35986-0.76807l-6-5.00049C41.45703,18.0791,41.22949,18,41,18
	c-0.14404,0-0.28906,0.03125-0.42432,0.09473C40.22461,18.25879,40,18.6123,40,19v3h-6c-0.55228,0-1,0.44772-1,1v2
	C33,25.55228,33.44772,26,34,26z"/>
<path fill="#335262" d="M22,34v6h-3c-0.38818,0-0.74121,0.22461-0.90576,0.57568c-0.16357,0.35254-0.11133,0.7666,0.1377,1.06445
	l5,6C23.42188,47.86816,23.70312,48,24,48s0.57812-0.13184,0.76807-0.35986l5.00049-6C29.9209,41.45703,30,41.22949,30,41
	c0-0.14404-0.03125-0.28906-0.09473-0.42432C29.74121,40.22461,29.3877,40,29,40h-3v-6c0-0.55228-0.44772-1-1-1h-2
	C22.44772,33,22,33.44772,22,34z"/>
<path fill="#335262" d="M14,22H8v-3c0-0.38818-0.22461-0.74121-0.57568-0.90576c-0.35254-0.16357-0.7666-0.11133-1.06445,0.1377
	l-6,5C0.13184,23.42188,0,23.70312,0,24s0.13184,0.57812,0.35986,0.76807l6,5.00049C6.54297,29.9209,6.77051,30,7,30
	c0.14404,0,0.28906-0.03125,0.42432-0.09473C7.77539,29.74121,8,29.3877,8,29v-3h6c0.55229,0,1-0.44772,1-1v-2
	C15,22.44772,14.55229,22,14,22z"/>
<path fill="#5A7A84" d="M19,18h10c0.55228,0,1,0.44772,1,1v10c0,0.55228-0.44772,1-1,1H19c-0.55228,0-1-0.44772-1-1V19
	C18,18.44772,18.44772,18,19,18z"/>
</svg>
