<?xml version="1.0" encoding="utf-8"?>
<!-- Generator: Adobe Illustrator 19.1.0, SVG Export Plug-In . SVG Version: 6.00 Build 0)  -->
<!DOCTYPE svg PUBLIC "-//W3C//DTD SVG 1.1//EN" "http://www.w3.org/Graphics/SVG/1.1/DTD/svg11.dtd">
<svg version="1.1" id="Layer_1" xmlns="http://www.w3.org/2000/svg" xmlns:xlink="http://www.w3.org/1999/xlink" x="0px" y="0px"
	 width="48px" height="48px" viewBox="0 0 48 48" enable-background="new 0 0 48 48" xml:space="preserve">
<path fill="#EEBC99" d="M43.85187,22.99998c-0.79846,0-1.48389,0.41125-1.85187,1.01404l0-14.37146
	c0-1.30772-0.94096-2.49936-2.24217-2.62963C38.26137,6.86313,37,8.03421,37,9.49998v12.5c0,0.55225-0.44769,1-1,1s-1-0.44775-1-1
	l0-14.35742c0-1.30772-0.94096-2.49936-2.24217-2.62963C31.26137,4.86313,30,6.03421,30,7.49998v14.5c0,0.55225-0.44769,1-1,1
	s-1-0.44775-1-1l0.00001-12.35742c0-1.30772-0.94096-2.49936-2.24217-2.62963C24.26137,6.86313,23,8.03421,23,9.49998v21.44205
	c0,1.95453-2.51522,2.74859-3.63746,1.14835l-1.73033-2.46732c-0.93273-1.33001-2.76469-1.82377-4.14167-0.96191
	c-1.46854,0.91916-1.85028,2.86761-0.86821,4.2679l8.46527,12.07092h21.91718C43.73767,41.71312,46,31.07609,46,24.99998
	C46,23.96873,45.03827,22.99998,43.85187,22.99998z"/>
<path fill="#72C472" d="M15.70703,10.29297L9.70789,4.29382c-0.38892-0.38994-1.02844-0.38835-1.41577,0l-5.99915,5.99915
	c-0.39062,0.39062-0.39062,1.02344,0,1.41406s1.02344,0.39062,1.41406,0L8,7.41406V21c0,0.55225,0.44727,1,1,1s1-0.44775,1-1
	V7.41406l4.29297,4.29297C14.48828,11.90234,14.74414,12,15,12s0.51172-0.09766,0.70703-0.29297
	C16.09766,11.31641,16.09766,10.68359,15.70703,10.29297z"/>
</svg>
