<?xml version="1.0" encoding="utf-8"?>
<!-- Generator: Adobe Illustrator 19.1.0, SVG Export Plug-In . SVG Version: 6.00 Build 0)  -->
<!DOCTYPE svg PUBLIC "-//W3C//DTD SVG 1.1//EN" "http://www.w3.org/Graphics/SVG/1.1/DTD/svg11.dtd">
<svg version="1.1" id="Layer_1" xmlns="http://www.w3.org/2000/svg" xmlns:xlink="http://www.w3.org/1999/xlink" x="0px" y="0px"
	 width="48px" height="48px" viewBox="0 0 48 48" enable-background="new 0 0 48 48" xml:space="preserve">
<path fill="#9898E5" d="M21,5c-0.55225,0-1-0.44775-1-1V1c0-0.55225,0.44775-1,1-1s1,0.44775,1,1v3C22,4.55225,21.55225,5,21,5z"/>
<path fill="#9898E5" d="M26.65674,7.34326c-0.25586,0-0.51172-0.09766-0.70703-0.29297c-0.39062-0.39062-0.39062-1.02344,0-1.41406
	l2.12158-2.12158c0.39062-0.39062,1.02344-0.39062,1.41406,0s0.39062,1.02344,0,1.41406l-2.12158,2.12158
	C27.16846,7.24561,26.9126,7.34326,26.65674,7.34326z"/>
<path fill="#9898E5" d="M32,13h-3c-0.55225,0-1-0.44775-1-1s0.44775-1,1-1h3c0.55225,0,1,0.44775,1,1S32.55225,13,32,13z"/>
<path fill="#9898E5" d="M15.34326,7.34326c-0.25586,0-0.51172-0.09766-0.70703-0.29297l-2.12158-2.12158
	c-0.39062-0.39062-0.39062-1.02344,0-1.41406s1.02344-0.39062,1.41406,0l2.12158,2.12158c0.39062,0.39062,0.39062,1.02344,0,1.41406
	C15.85498,7.24561,15.59912,7.34326,15.34326,7.34326z"/>
<path fill="#9898E5" d="M13,13h-3c-0.55225,0-1-0.44775-1-1s0.44775-1,1-1h3c0.55225,0,1,0.44775,1,1S13.55225,13,13,13z"/>
<path fill="#EEBC99" d="M39,27c0-1.03125-0.96171-2-2.14815-2c-0.99063,0-1.81618,0.62776-2.06424,1.47687
	C34.74982,25.10384,33.54846,24,32.06454,24h-0.09198c-1.17686,0-2.17089,0.69696-2.55459,1.66876
	c0,0-0.10547-2.66876-2.72714-2.66876h-0.08529C25.32221,23,24.20245,23.69879,24,25V11.5C24,9.567,22.433,8,20.5,8H20.5
	C18.567,8,17,9.567,17,11.5V28h-4.85185C10.96176,28,10,28.89543,10,30v8c0,3.5,5.37037,6.0625,5.37037,10h20.40741
	C35.77778,48,39,34.25,39,27z"/>
<path fill="#CE9C7A" d="M16,34L16,34c-0.55229,0-1-0.44772-1-1v-5h2v5C17,33.55228,16.55229,34,16,34z"/>
</svg>
