<?xml version="1.0" encoding="utf-8"?>
<!-- Generator: Adobe Illustrator 19.1.0, SVG Export Plug-In . SVG Version: 6.00 Build 0)  -->
<!DOCTYPE svg PUBLIC "-//W3C//DTD SVG 1.1//EN" "http://www.w3.org/Graphics/SVG/1.1/DTD/svg11.dtd">
<svg version="1.1" id="Layer_1" xmlns="http://www.w3.org/2000/svg" xmlns:xlink="http://www.w3.org/1999/xlink" x="0px" y="0px"
	 width="48px" height="48px" viewBox="0 0 48 48" enable-background="new 0 0 48 48" xml:space="preserve">
<path fill="#72C472" d="M2.29149,10.29266l5.9997-5.99969c0.39062-0.39062,1.02344-0.39062,1.41406,0s0.39062,1.02344,0,1.41406
	L5.41228,10h39.58594c0.55225,0,1,0.44775,1,1s-0.44775,1-1,1H5.41228l4.29297,4.29297c0.39062,0.39062,0.39062,1.02344,0,1.41406
	C9.50994,17.90234,9.25408,18,8.99822,18s-0.51172-0.09766-0.70703-0.29297l-5.9997-5.99969
	C1.90284,11.31919,1.90284,10.68081,2.29149,10.29266z"/>
<path fill="#EEBC99" d="M38.85187,21.99998c-0.79846,0-1.48389,0.41125-1.85187,1.01404l0-14.37146
	c0-1.30772-0.94096-2.49936-2.24217-2.62963C33.26137,5.86313,32,7.03421,32,8.49998v12.5c0,0.55225-0.44769,1-1,1s-1-0.44775-1-1
	l0.00001-14.35742c0-1.30772-0.94096-2.49936-2.24217-2.62963C26.26137,3.86313,25,5.03421,25,6.49998v14.5c0,0.55225-0.44769,1-1,1
	s-1-0.44775-1-1l0.00001-12.35742c0-1.30772-0.94096-2.49936-2.24217-2.62963C19.26137,5.86313,18,7.03421,18,8.49998v21.44205
	c0,1.95453-2.51522,2.74859-3.63746,1.14835l-1.73033-2.46732c-0.93273-1.33001-2.76469-1.82377-4.14168-0.96191
	c-1.46854,0.91916-1.85028,2.86761-0.86821,4.2679l8.46527,12.07092h21.91718C38.73767,40.71312,41,30.07609,41,23.99998
	C41,22.96873,40.03827,21.99998,38.85187,21.99998z"/>
</svg>
