<?xml version="1.0" encoding="utf-8"?>
<!-- Generator: Adobe Illustrator 19.1.0, SVG Export Plug-In . SVG Version: 6.00 Build 0)  -->
<!DOCTYPE svg PUBLIC "-//W3C//DTD SVG 1.1//EN" "http://www.w3.org/Graphics/SVG/1.1/DTD/svg11.dtd">
<svg version="1.1" id="Layer_1" xmlns="http://www.w3.org/2000/svg" xmlns:xlink="http://www.w3.org/1999/xlink" x="0px" y="0px"
	 width="48px" height="48px" viewBox="0 0 48 48" enable-background="new 0 0 48 48" xml:space="preserve">
<path fill="#72C472" d="M19.35254,9.12061l-1.69775-6.79102c-0.13428-0.53564-0.67822-0.86133-1.21289-0.72754L9.65088,3.2998
	C9.11523,3.43359,8.78955,3.97656,8.92334,4.5127c0.13428,0.53564,0.6792,0.86182,1.21289,0.72754l4.44861-1.11206l-9.88483,16.4751
	L3.58789,16.1543c-0.13428-0.53516-0.67725-0.85986-1.21289-0.72754c-0.53564,0.13379-0.86133,0.67676-0.72754,1.21289
	l1.69775,6.79102c0.11377,0.4541,0.52148,0.75732,0.96924,0.75732c0.08057,0,0.16211-0.00928,0.24365-0.02979l6.79102-1.69775
	c0.53564-0.13379,0.86133-0.67676,0.72754-1.21289c-0.13428-0.53564-0.67773-0.8623-1.21289-0.72754l-4.44861,1.11206
	l9.88483-16.4751l1.11212,4.44897c0.11377,0.4541,0.52148,0.75781,0.96924,0.75732c0.08057,0,0.16211-0.00928,0.24365-0.02979
	C19.16064,10.19971,19.48633,9.65674,19.35254,9.12061z"/>
<path fill="#EEBC99" d="M41.08809,25.35995c-0.87277-1.81038-2.65289-2.64177-5.42543-2.29321l-0.00413,0.00826
	c-1.01997-1.13927-2.61343-1.7936-4.99884-1.57428l-0.00413,0.00743c-0.6596-3.74764-1.88782-7.22209-3.2812-9.46187
	c-0.79587-1.27939-2.42329-1.86843-3.80771-1.27368c-1.77107,0.76079-2.37611,2.87468-1.38767,4.43233
	c1.64842,2.59774,2.52114,8.54305,2.13233,13.36271c-0.14085,1.74578-2.315,2.47091-3.50578,1.18655l-1.92777-2.07925
	c-1.34335-1.42521-3.5878-1.49158-5.01301-0.14818s-1.49158,3.5878-0.14818,5.01301L24.07805,46h18.23806l3.31219-12.58652
	C46.59607,29.73619,45.871,25.74798,41.08809,25.35995z"/>
</svg>
