<?xml version="1.0" encoding="utf-8"?>
<!-- Generator: Adobe Illustrator 19.1.0, SVG Export Plug-In . SVG Version: 6.00 Build 0)  -->
<!DOCTYPE svg PUBLIC "-//W3C//DTD SVG 1.1//EN" "http://www.w3.org/Graphics/SVG/1.1/DTD/svg11.dtd">
<svg version="1.1" id="Layer_1" xmlns="http://www.w3.org/2000/svg" xmlns:xlink="http://www.w3.org/1999/xlink" x="0px" y="0px"
	 width="48px" height="48px" viewBox="0 0 48 48" enable-background="new 0 0 48 48" xml:space="preserve">
<path fill="#444444" d="M2.43701,29.35352c-0.46631,0-0.88379-0.32812-0.97949-0.80273
	c-1.2207-6.05371,0.00098-12.21387,3.43994-17.34375c0.30713-0.45898,0.9292-0.58203,1.38721-0.27441
	c0.45898,0.30762,0.58154,0.92871,0.27393,1.3877c-3.13965,4.68359-4.25488,10.30762-3.14014,15.83594
	c0.10889,0.54102-0.24121,1.06836-0.78271,1.17773C2.56885,29.34766,2.50244,29.35352,2.43701,29.35352z"/>
<path fill="#444444" d="M8.9126,9C8.64697,9,8.38232,8.89453,8.18555,8.68652C7.80615,8.28516,7.82471,7.65234,8.22607,7.27246
	c3.11963-2.94434,7.00098-4.9502,11.22461-5.80176c5.15283-1.03711,10.33984-0.32422,15.00732,2.06445
	c0.4917,0.25195,0.68604,0.85449,0.43457,1.34668c-0.25195,0.49121-0.854,0.68359-1.3457,0.43457
	c-4.26074-2.18262-8.99951-2.83398-13.70068-1.88477c-3.85645,0.77734-7.3999,2.6084-10.24707,5.2959
	C9.40576,8.90918,9.15918,9,8.9126,9z"/>
<path fill="#444444" d="M45.54932,20.66113c-0.46631,0-0.88379-0.32715-0.97949-0.80273
	c-0.94971-4.70898-3.50928-8.9834-7.20703-12.03418c-0.42627-0.35156-0.48682-0.98145-0.13525-1.4082
	c0.35156-0.4248,0.98291-0.48438,1.40771-0.13477c4.05127,3.34277,6.85498,8.02344,7.89551,13.18262
	c0.10889,0.54102-0.24121,1.06836-0.78271,1.17773C45.68115,20.65527,45.61475,20.66113,45.54932,20.66113z"/>
<path fill="#444444" d="M45.99658,25.4502c-0.00684,0-0.01318,0-0.01953,0c-0.55225-0.01074-0.99121-0.4668-0.98096-1.01953
	c0.0293-1.52637-0.10986-3.06543-0.41455-4.5752c-0.10889-0.54102,0.24121-1.06836,0.78271-1.17773
	c0.54443-0.10938,1.06885,0.24219,1.17822,0.7832c0.33301,1.65137,0.48535,3.33691,0.45361,5.00879
	C46.98535,25.01465,46.54004,25.4502,45.99658,25.4502z"/>
<path fill="#444444" d="M2.65967,30.29004c-0.44873,0-0.85693-0.30469-0.96973-0.75977
	c-0.08008-0.32324-0.15381-0.65137-0.22021-0.98145c-0.10889-0.54102,0.2417-1.06836,0.7832-1.17773
	c0.5376-0.11328,1.06885,0.24219,1.17773,0.7832c0.06055,0.30078,0.12744,0.59961,0.20068,0.89551
	c0.13281,0.53613-0.19434,1.07812-0.73047,1.21094C2.82031,30.28027,2.73926,30.29004,2.65967,30.29004z"/>
<path fill="#444444" d="M18.31689,46.25488c-0.23438,0-0.46973-0.08203-0.65967-0.24902
	c-0.41455-0.36426-0.45557-0.99609-0.09131-1.41113c4.94434-5.62695,6.93213-13.05957,5.45361-20.3916
	c-0.10889-0.54102,0.24121-1.06836,0.78271-1.17773c0.54346-0.1123,1.06885,0.24219,1.17822,0.7832
	c1.60254,7.94824-0.55225,16.00586-5.91162,22.10645C18.87109,46.13965,18.59473,46.25488,18.31689,46.25488z"/>
<path fill="#444444" d="M24.6958,46.9873c-0.19434,0-0.39111-0.05664-0.56396-0.1748
	c-0.45557-0.31152-0.57227-0.93457-0.26025-1.38965c4.40576-6.43945,6.2334-15.38672,4.54688-22.26465
	c-0.6499-2.69141-2.73486-4.09473-5.31543-3.57227c-2.48926,0.50195-3.99854,2.78809-3.51025,5.31738
	c1.34668,6.98047-0.90869,14.01074-6.0332,18.80469c-0.40332,0.37695-1.03516,0.35547-1.41357-0.04688
	c-0.37695-0.40332-0.35596-1.03613,0.04736-1.41406c4.61963-4.32129,6.65137-10.66309,5.43555-16.96484
	c-0.70215-3.63965,1.48096-6.93164,5.07861-7.65723c3.61328-0.72559,6.75879,1.35254,7.6543,5.06055
	c1.81299,7.39355-0.13184,16.98633-4.83984,23.86621C25.32812,46.83496,25.01465,46.9873,24.6958,46.9873z"/>
<path fill="#444444" d="M8.44189,40.55371c-0.28955,0-0.57666-0.125-0.77441-0.36621
	c-0.34961-0.42773-0.28711-1.05762,0.14014-1.40723c3.19043-2.6123,4.93262-6.61816,4.65967-10.71387
	c-0.03711-0.55078,0.37988-1.02734,0.93115-1.06445c0.53955-0.0293,1.02734,0.38086,1.06396,0.93164
	c0.31592,4.73926-1.69775,9.37305-5.38721,12.39355C8.88916,40.47949,8.66504,40.55371,8.44189,40.55371z"/>
<path fill="#444444" d="M35.36865,27c-0.51514,0-0.95264-0.39551-0.99561-0.91797c-0.11133-1.34961-0.3042-2.71289-0.57471-4.05078
	c-0.00391-0.02051-0.00732-0.04102-0.01025-0.06152c-0.53906-2.59375-2.04932-4.82715-4.25781-6.29492
	c-2.2251-1.47754-4.8916-2.00293-7.5127-1.47363c-4.28857,0.86426-7.57178,4.50586-7.98438,8.85645
	c-0.05273,0.5498-0.53711,0.97168-1.08984,0.90039c-0.5498-0.05176-0.95361-0.54004-0.90137-1.08984
	c0.49561-5.2207,4.43506-9.59082,9.58008-10.62793c6.48877-1.30566,12.83008,2.90625,14.13916,9.39453
	c0.00439,0.02148,0.00781,0.04297,0.01074,0.06445c0.27881,1.39453,0.47852,2.81348,0.59424,4.21875
	c0.04541,0.55078-0.36426,1.0332-0.91455,1.0791C35.42383,26.99902,35.396,27,35.36865,27z"/>
<path fill="#444444" d="M31.88281,45.53418c-0.14697,0-0.2959-0.03223-0.43701-0.10059
	c-0.49658-0.24219-0.70312-0.84082-0.46094-1.33789c2.02002-4.14551,3.18018-8.57129,3.44727-13.1543
	c0.03223-0.55078,0.50928-0.96387,1.05664-0.93945c0.55127,0.03223,0.97217,0.50488,0.94043,1.05664
	c-0.2832,4.84766-1.50977,9.52832-3.64648,13.91406C32.60938,45.32812,32.25342,45.53418,31.88281,45.53418z"/>
<path fill="#444444" d="M5.06738,36.21094c-0.28369,0-0.56543-0.12012-0.76318-0.35352
	c-0.35742-0.4209-0.30518-1.05273,0.11621-1.40918c1.99219-1.68848,2.92578-4.30957,2.45361-6.86621
	c-0.0127-0.03809-0.02295-0.07715-0.03125-0.11719c-1.76611-8.75781,3.3125-17.40918,11.8125-20.12207
	c0.52539-0.16797,1.08838,0.12305,1.25684,0.64941c0.16797,0.52539-0.12256,1.08887-0.64844,1.25684
	c-7.48828,2.38965-11.97705,9.9834-10.48438,17.69824c0.01318,0.03906,0.02441,0.08008,0.03271,0.12109
	c0.66699,3.30762-0.52002,6.7207-3.09863,8.90527C5.52539,36.13281,5.2959,36.21094,5.06738,36.21094z"/>
<path fill="#444444" d="M39.60449,40.49707c-0.08496,0-0.17188-0.01074-0.2583-0.03418
	c-0.5337-0.1416-0.85059-0.68945-0.7085-1.22363c1.5957-5.98535,1.78564-12.11621,0.56445-18.22559
	c-0.00635-0.02246-0.01221-0.0459-0.01709-0.07031c-1.45361-7.20801-7.8335-12.43652-15.17236-12.43652
	c-0.00488,0-0.01465,0.00098-0.0127,0c-0.55176,0-0.99951-0.44727-1-0.99902c-0.00049-0.55273,0.44678-1.00098,0.99902-1.00098
	c0.00439,0,0.00928,0,0.01367,0c8.26367,0,15.44971,5.86816,17.11865,13.96973c0.00635,0.02441,0.01221,0.04785,0.01758,0.07324
	c1.29785,6.43555,1.10303,12.89746-0.57861,19.20508C40.45117,40.20215,40.04639,40.49707,39.60449,40.49707z"/>
<rect y="22" opacity="0.6" fill="#E86C60" width="48" height="4"/>
</svg>
