<?xml version="1.0" encoding="utf-8"?>
<!-- Generator: Adobe Illustrator 19.1.0, SVG Export Plug-In . SVG Version: 6.00 Build 0)  -->
<!DOCTYPE svg PUBLIC "-//W3C//DTD SVG 1.1//EN" "http://www.w3.org/Graphics/SVG/1.1/DTD/svg11.dtd">
<svg version="1.1" id="Layer_1" xmlns="http://www.w3.org/2000/svg" xmlns:xlink="http://www.w3.org/1999/xlink" x="0px" y="0px"
	 width="48px" height="48px" viewBox="0 0 48 48" enable-background="new 0 0 48 48" xml:space="preserve">
<path fill="#335262" d="M29.24306,38.70282l6,6.95068c0.3988,0.46199,1.11487,0.46199,1.51367,0l6-6.95068
	c0.25586-0.2959,0.31543-0.71387,0.15234-1.06982c-0.16309-0.35547-0.51768-0.63281-0.90929-0.63281h-4v-9c0-1.10457-0.89543-2-2-2
	h0c-1.10457,0-2,0.89543-2,2v9h-4c-0.3916,0-0.74599,0.27734-0.90907,0.63281C28.92763,37.98896,28.9872,38.40693,29.24306,38.70282
	z"/>
<path fill="#335262" d="M5.24327,38.70282l6,6.95068c0.3988,0.46199,1.11487,0.46199,1.51367,0l6-6.95068
	c0.25586-0.2959,0.31543-0.71387,0.15234-1.06982C18.7462,37.27753,18.3916,37.00019,18,37.00019h-4v-9c0-1.10457-0.89543-2-2-2h0
	c-1.10457,0-2,0.89543-2,2v9H6c-0.3916,0-0.74599,0.27734-0.90907,0.63281C4.92784,37.98896,4.98741,38.40693,5.24327,38.70282z"/>
<circle fill="#5A7A84" cx="36" cy="12.00019" r="10"/>
<circle fill="#5A7A84" cx="12" cy="13.00019" r="10"/>
</svg>
