<?xml version="1.0" encoding="utf-8"?>
<!-- Generator: Adobe Illustrator 20.1.0, SVG Export Plug-In . SVG Version: 6.00 Build 0)  -->
<!DOCTYPE svg PUBLIC "-//W3C//DTD SVG 1.1//EN" "http://www.w3.org/Graphics/SVG/1.1/DTD/svg11.dtd">
<svg version="1.1" id="Layer_1" xmlns="http://www.w3.org/2000/svg" xmlns:xlink="http://www.w3.org/1999/xlink" x="0px" y="0px"
	 width="24px" height="24px" viewBox="0 0 24 24" enable-background="new 0 0 24 24" xml:space="preserve">
<path d="M2,1v2h7.5c0.63,0,1.222,0.296,1.6,0.8L13.5,7H22V1c0-0.552-0.448-1-1-1H3C2.448,0,2,0.448,2,1z"/>
<path d="M23,9H12.5L9.8,5.4C9.611,5.148,9.314,5,9,5H1C0.447,5,0,5.448,0,6v17c0,0.552,0.447,1,1,1h22c0.553,0,1-0.448,1-1V10
	C24,9.448,23.553,9,23,9z"/>
</svg>
