<?xml version="1.0" encoding="utf-8"?>
<!-- Generator: Adobe Illustrator 20.1.0, SVG Export Plug-In . SVG Version: 6.00 Build 0)  -->
<!DOCTYPE svg PUBLIC "-//W3C//DTD SVG 1.1//EN" "http://www.w3.org/Graphics/SVG/1.1/DTD/svg11.dtd">
<svg version="1.1" id="Layer_1" xmlns="http://www.w3.org/2000/svg" xmlns:xlink="http://www.w3.org/1999/xlink" x="0px" y="0px"
	 width="24px" height="24px" viewBox="0 0 24 24" enable-background="new 0 0 24 24" xml:space="preserve">
<path d="M2,24h20c0.552,0,1-0.448,1-1V1c0-0.552-0.448-1-1-1H2C1.448,0,1,0.448,1,1v22C1,23.552,1.448,24,2,24z M12,20
	c-0.552,0-1-0.448-1-1c0-0.552,0.448-1,1-1c0.552,0,1,0.448,1,1C13,19.552,12.552,20,12,20z M8.292,7.521C8.93,6.06,10.49,5,12,5
	c2.168,0,4,1.832,4,4c0,1.824-1.297,3.411-3,3.868V16h-2v-4c0-0.552,0.448-1,1-1c1.065,0,2-0.935,2-2s-0.935-2-2-2
	c-0.812,0-1.592,0.672-1.875,1.322L9.724,9.238L7.891,8.437L8.292,7.521z"/>
</svg>
