<?xml version="1.0" encoding="utf-8"?>
<!-- Generator: Adobe Illustrator 20.1.0, SVG Export Plug-In . SVG Version: 6.00 Build 0)  -->
<!DOCTYPE svg PUBLIC "-//W3C//DTD SVG 1.1//EN" "http://www.w3.org/Graphics/SVG/1.1/DTD/svg11.dtd">
<svg version="1.1" id="Layer_1" xmlns="http://www.w3.org/2000/svg" xmlns:xlink="http://www.w3.org/1999/xlink" x="0px" y="0px"
	 width="24px" height="24px" viewBox="0 0 24 24" enable-background="new 0 0 24 24" xml:space="preserve">
<path d="M13,8c0-0.551-0.449-1-1-1s-1,0.449-1,1v3h2V8z"/>
<path d="M1,23c0,0.552,0.448,1,1,1h20c0.552,0,1-0.448,1-1V1c0-0.552-0.448-1-1-1H2C1.448,0,1,0.448,1,1V23z M7,12
	c0-0.552,0.448-1,1-1h1V8c0-1.654,1.346-3,3-3s3,1.346,3,3v3h1c0.552,0,1,0.448,1,1v5c0,0.552-0.448,1-1,1H8c-0.552,0-1-0.448-1-1
	V12z"/>
</svg>
