<?xml version="1.0" encoding="utf-8"?>
<!-- Generator: Adobe Illustrator 20.1.0, SVG Export Plug-In . SVG Version: 6.00 Build 0)  -->
<!DOCTYPE svg PUBLIC "-//W3C//DTD SVG 1.1//EN" "http://www.w3.org/Graphics/SVG/1.1/DTD/svg11.dtd">
<svg version="1.1" id="Layer_1" xmlns="http://www.w3.org/2000/svg" xmlns:xlink="http://www.w3.org/1999/xlink" x="0px" y="0px"
	 width="24px" height="24px" viewBox="0 0 24 24" enable-background="new 0 0 24 24" xml:space="preserve">
<circle cx="12" cy="14" r="2"/>
<path d="M23,4H12.5L9.8,0.4C9.611,0.148,9.314,0,9,0H1C0.447,0,0,0.447,0,1v22c0,0.553,0.447,1,1,1h22c0.553,0,1-0.447,1-1V5
	C24,4.447,23.553,4,23,4z M18,15h-2.142c-0.094,0.363-0.238,0.704-0.425,1.019l1.516,1.516l-1.414,1.414l-1.516-1.516
	c-0.316,0.186-0.656,0.33-1.019,0.425V20h-2v-2.142c-0.363-0.094-0.704-0.238-1.019-0.425l-1.516,1.516l-1.414-1.414l1.516-1.516
	C8.38,15.704,8.236,15.363,8.142,15H6v-2h2.142c0.094-0.363,0.238-0.704,0.425-1.019l-1.516-1.516l1.414-1.414l1.516,1.516
	c0.316-0.186,0.656-0.33,1.019-0.425V8h2v2.142c0.363,0.094,0.704,0.238,1.019,0.425l1.516-1.516l1.414,1.414l-1.516,1.516
	c0.186,0.316,0.33,0.656,0.425,1.019H18V15z"/>
</svg>
