<?xml version="1.0" encoding="utf-8"?>
<!-- Generator: Adobe Illustrator 20.1.0, SVG Export Plug-In . SVG Version: 6.00 Build 0)  -->
<!DOCTYPE svg PUBLIC "-//W3C//DTD SVG 1.1//EN" "http://www.w3.org/Graphics/SVG/1.1/DTD/svg11.dtd">
<svg version="1.1" id="Layer_1" xmlns="http://www.w3.org/2000/svg" xmlns:xlink="http://www.w3.org/1999/xlink" x="0px" y="0px"
	 width="24px" height="24px" viewBox="0 0 24 24" enable-background="new 0 0 24 24" xml:space="preserve">
<path d="M23,8V7c0-3.309-2.691-6-6-6h-1v2h1c2.206,0,4,1.794,4,4v1H23z"/>
<path d="M1,16v1c0,3.309,2.691,6,6,6h1v-2H7c-2.206,0-4-1.794-4-4v-1H1z"/>
<path d="M1,14h7v-4c0-1.105,0.895-2,2-2h4V1c0-0.552-0.448-1-1-1H1C0.448,0,0,0.448,0,1v12C0,13.552,0.448,14,1,14z"/>
<path d="M23,10H11c-0.553,0-1,0.448-1,1v12c0,0.552,0.447,1,1,1h12c0.553,0,1-0.448,1-1V11C24,10.448,23.553,10,23,10z"/>
</svg>
