<?xml version="1.0" encoding="utf-8"?>
<!-- Generator: Adobe Illustrator 20.1.0, SVG Export Plug-In . SVG Version: 6.00 Build 0)  -->
<!DOCTYPE svg PUBLIC "-//W3C//DTD SVG 1.1//EN" "http://www.w3.org/Graphics/SVG/1.1/DTD/svg11.dtd">
<svg version="1.1" id="Layer_1" xmlns="http://www.w3.org/2000/svg" xmlns:xlink="http://www.w3.org/1999/xlink" x="0px" y="0px"
	 width="24px" height="24px" viewBox="0 0 24 24" enable-background="new 0 0 24 24" xml:space="preserve">
<path d="M2,24h13v-7c0-0.552,0.448-1,1-1h7V1c0-0.552-0.448-1-1-1H2C1.448,0,1,0.448,1,1v22C1,23.552,1.448,24,2,24z M5,5h14v2H5V5z
	 M5,10h14v2H5V10z M5,15h6v2H5V15z"/>
<polygon points="22.414,18 17,18 17,23.414 "/>
</svg>
