<?xml version="1.0" encoding="utf-8"?>
<!-- Generator: Adobe Illustrator 20.1.0, SVG Export Plug-In . SVG Version: 6.00 Build 0)  -->
<!DOCTYPE svg PUBLIC "-//W3C//DTD SVG 1.1//EN" "http://www.w3.org/Graphics/SVG/1.1/DTD/svg11.dtd">
<svg version="1.1" id="Layer_1" xmlns="http://www.w3.org/2000/svg" xmlns:xlink="http://www.w3.org/1999/xlink" x="0px" y="0px"
	 width="24px" height="24px" viewBox="0 0 24 24" enable-background="new 0 0 24 24" xml:space="preserve">
<path d="M1,23c0,0.552,0.448,1,1,1h20c0.552,0,1-0.448,1-1V8h-7c-0.552,0-1-0.448-1-1V0H2C1.448,0,1,0.448,1,1V23z M5,7h6v2H5V7z
	 M5,12h14v2H5V12z M5,17h14v2H5V17z"/>
<polygon points="17,6 22.414,6 17,0.586 "/>
</svg>
