<?xml version="1.0" encoding="utf-8"?>
<!-- Generator: Adobe Illustrator 20.1.0, SVG Export Plug-In . SVG Version: 6.00 Build 0)  -->
<!DOCTYPE svg PUBLIC "-//W3C//DTD SVG 1.1//EN" "http://www.w3.org/Graphics/SVG/1.1/DTD/svg11.dtd">
<svg version="1.1" id="Layer_1" xmlns="http://www.w3.org/2000/svg" xmlns:xlink="http://www.w3.org/1999/xlink" x="0px" y="0px"
	 width="24px" height="24px" viewBox="0 0 24 24" enable-background="new 0 0 24 24" xml:space="preserve">
<path d="M1,23c0,0.553,0.447,1,1,1h20c0.553,0,1-0.447,1-1V1c0-0.553-0.447-1-1-1H2C1.447,0,1,0.447,1,1V23z M8.5,10
	c0.303,0,0.6,0.039,0.887,0.116C10.133,8.272,11.931,7,14,7c2.757,0,5,2.243,5,5s-2.243,5-5,5H8.5C6.57,17,5,15.43,5,13.5
	S6.57,10,8.5,10z"/>
</svg>
