<?xml version="1.0" encoding="utf-8"?>
<!-- Generator: Adobe Illustrator 20.1.0, SVG Export Plug-In . SVG Version: 6.00 Build 0)  -->
<!DOCTYPE svg PUBLIC "-//W3C//DTD SVG 1.1//EN" "http://www.w3.org/Graphics/SVG/1.1/DTD/svg11.dtd">
<svg version="1.1" id="Layer_1" xmlns="http://www.w3.org/2000/svg" xmlns:xlink="http://www.w3.org/1999/xlink" x="0px" y="0px"
	 width="24px" height="24px" viewBox="0 0 24 24" enable-background="new 0 0 24 24" xml:space="preserve">
<circle cx="10.5" cy="10.5" r="2.5"/>
<path d="M1,23c0,0.553,0.448,1,1,1h20c0.552,0,1-0.447,1-1V1c0-0.553-0.448-1-1-1H2C1.448,0,1,0.447,1,1V23z M10.5,6
	c2.481,0,4.5,2.019,4.5,4.5c0,0.879-0.263,1.693-0.7,2.386l3.407,3.407l-1.414,1.414L12.886,14.3C12.193,14.737,11.379,15,10.5,15
	C8.019,15,6,12.981,6,10.5S8.019,6,10.5,6z"/>
</svg>
