<?xml version="1.0" encoding="utf-8"?>
<!-- Generator: Adobe Illustrator 20.1.0, SVG Export Plug-In . SVG Version: 6.00 Build 0)  -->
<!DOCTYPE svg PUBLIC "-//W3C//DTD SVG 1.1//EN" "http://www.w3.org/Graphics/SVG/1.1/DTD/svg11.dtd">
<svg version="1.1" id="Layer_1" xmlns="http://www.w3.org/2000/svg" xmlns:xlink="http://www.w3.org/1999/xlink" x="0px" y="0px"
	 width="24px" height="24px" viewBox="0 0 24 24" enable-background="new 0 0 24 24" xml:space="preserve">
<path d="M13.535,3l-1.703-2.555C11.646,0.167,11.334,0,11,0H4C3.447,0,3,0.448,3,1v5h18V4c0-0.552-0.447-1-1-1H13.535z"/>
<path d="M23,8H1C0.447,8,0,8.448,0,9v14c0,0.552,0.447,1,1,1h22c0.553,0,1-0.448,1-1V9C24,8.448,23.553,8,23,8z"/>
</svg>
