<?xml version="1.0" encoding="utf-8"?>
<!-- Generator: Adobe Illustrator 20.1.0, SVG Export Plug-In . SVG Version: 6.00 Build 0)  -->
<!DOCTYPE svg PUBLIC "-//W3C//DTD SVG 1.1//EN" "http://www.w3.org/Graphics/SVG/1.1/DTD/svg11.dtd">
<svg version="1.1" id="Layer_1" xmlns="http://www.w3.org/2000/svg" xmlns:xlink="http://www.w3.org/1999/xlink" x="0px" y="0px"
	 width="24px" height="24px" viewBox="0 0 24 24" enable-background="new 0 0 24 24" xml:space="preserve">
<path d="M1,24h20c0.553,0,1-0.447,1-1V1c0-0.553-0.447-1-1-1H1C0.447,0,0,0.447,0,1v22C0,23.553,0.447,24,1,24z M14.293,6.293
	c0.391-0.391,1.023-0.391,1.414,0l2,2c0.391,0.391,0.391,1.023,0,1.414L10.914,16.5L7.5,13.086L14.293,6.293z M6,15
	c0-0.164,0.052-0.317,0.127-0.459l3.332,3.332C9.317,17.948,9.164,18,9,18H6V15z"/>
</svg>
