<?xml version="1.0" encoding="utf-8"?>
<!-- Generator: Adobe Illustrator 20.1.0, SVG Export Plug-In . SVG Version: 6.00 Build 0)  -->
<!DOCTYPE svg PUBLIC "-//W3C//DTD SVG 1.1//EN" "http://www.w3.org/Graphics/SVG/1.1/DTD/svg11.dtd">
<svg version="1.1" id="Layer_1" xmlns="http://www.w3.org/2000/svg" xmlns:xlink="http://www.w3.org/1999/xlink" x="0px" y="0px"
	 width="24px" height="24px" viewBox="0 0 24 24" enable-background="new 0 0 24 24" xml:space="preserve">
<path d="M23,1c0-0.552-0.447-1-1-1H2C1.447,0,1,0.448,1,1v22c0,0.552,0.447,1,1,1h20c0.553,0,1-0.448,1-1V1z M12,6
	c1.657,0,3,1.343,3,3s-1.343,3-3,3s-3-1.343-3-3S10.343,6,12,6z M17,18H7v-1.558c0-0.894,0.588-1.686,1.45-1.924
	C9.378,14.262,10.656,14,12,14s2.622,0.262,3.55,0.518c0.862,0.238,1.45,1.03,1.45,1.924V18z"/>
</svg>
