<?xml version="1.0" encoding="utf-8"?>
<!-- Generator: Adobe Illustrator 20.1.0, SVG Export Plug-In . SVG Version: 6.00 Build 0)  -->
<!DOCTYPE svg PUBLIC "-//W3C//DTD SVG 1.1//EN" "http://www.w3.org/Graphics/SVG/1.1/DTD/svg11.dtd">
<svg version="1.1" id="Layer_1" xmlns="http://www.w3.org/2000/svg" xmlns:xlink="http://www.w3.org/1999/xlink" x="0px" y="0px"
	 width="24px" height="24px" viewBox="0 0 24 24" enable-background="new 0 0 24 24" xml:space="preserve">
<path d="M2,24h20c0.552,0,1-0.448,1-1V1c0-0.552-0.448-1-1-1H2C1.448,0,1,0.448,1,1v22C1,23.552,1.448,24,2,24z M11.757,12.97
	C10.261,12.596,8,12.031,8,9.5c0-1.758,1.308-3.204,3-3.449V4h2v2.051c1.692,0.245,3,1.691,3,3.449h-2C14,8.673,13.327,8,12.5,8h-1
	C10.673,8,10,8.673,10,9.5c0,0.842,0.505,1.096,2.243,1.53C13.739,11.404,16,11.969,16,14.5c0,1.758-1.308,3.204-3,3.449V20h-2
	v-2.051c-1.692-0.245-3-1.691-3-3.449h2c0,0.827,0.673,1.5,1.5,1.5h1c0.827,0,1.5-0.673,1.5-1.5
	C14,13.658,13.495,13.404,11.757,12.97z"/>
</svg>
