<?xml version="1.0" encoding="utf-8"?>
<!-- Generator: Adobe Illustrator 20.1.0, SVG Export Plug-In . SVG Version: 6.00 Build 0)  -->
<!DOCTYPE svg PUBLIC "-//W3C//DTD SVG 1.1//EN" "http://www.w3.org/Graphics/SVG/1.1/DTD/svg11.dtd">
<svg version="1.1" id="Layer_1" xmlns="http://www.w3.org/2000/svg" xmlns:xlink="http://www.w3.org/1999/xlink" x="0px" y="0px"
	 width="24px" height="24px" viewBox="0 0 24 24" enable-background="new 0 0 24 24" xml:space="preserve">
<path d="M9.981,17.433C10.576,17.785,11.26,18,12,18c2.206,0,4-1.794,4-4c0-0.74-0.215-1.424-0.567-2.019L9.981,17.433z"/>
<path d="M12,10c-2.206,0-4,1.794-4,4c0,0.74,0.215,1.424,0.567,2.019l5.453-5.452C13.424,10.215,12.74,10,12,10z"/>
<path d="M23,4H12.5L9.8,0.4C9.611,0.148,9.315,0,9,0H1C0.448,0,0,0.447,0,1v22c0,0.553,0.448,1,1,1h22c0.552,0,1-0.447,1-1V5
	C24,4.447,23.552,4,23,4z M12,20c-3.309,0-6-2.691-6-6s2.691-6,6-6s6,2.691,6,6S15.309,20,12,20z"/>
</svg>
