<?xml version="1.0" encoding="utf-8"?>
<!-- Generator: Adobe Illustrator 20.1.0, SVG Export Plug-In . SVG Version: 6.00 Build 0)  -->
<!DOCTYPE svg PUBLIC "-//W3C//DTD SVG 1.1//EN" "http://www.w3.org/Graphics/SVG/1.1/DTD/svg11.dtd">
<svg version="1.1" id="Layer_1" xmlns="http://www.w3.org/2000/svg" xmlns:xlink="http://www.w3.org/1999/xlink" x="0px" y="0px"
	 width="24px" height="24px" viewBox="0 0 24 24" enable-background="new 0 0 24 24" xml:space="preserve">
<path d="M23,7h-2V4c0-0.552-0.447-1-1-1H9.535L7.832,0.445C7.646,0.167,7.334,0,7,0H1C0.447,0,0,0.448,0,1v20c0,1.654,1.346,3,3,3
	h18c1.654,0,3-1.346,3-3V8C24,7.448,23.553,7,23,7z M19,7H5C4.447,7,4,7.448,4,8v13c0,0.551-0.448,1-1,1s-1-0.449-1-1V2h4.465
	l1.703,2.555C8.354,4.833,8.666,5,9,5h10V7z"/>
</svg>
