<?xml version="1.0" encoding="utf-8"?>
<!-- Generator: Adobe Illustrator 20.1.0, SVG Export Plug-In . SVG Version: 6.00 Build 0)  -->
<!DOCTYPE svg PUBLIC "-//W3C//DTD SVG 1.1//EN" "http://www.w3.org/Graphics/SVG/1.1/DTD/svg11.dtd">
<svg version="1.1" id="Layer_1" xmlns="http://www.w3.org/2000/svg" xmlns:xlink="http://www.w3.org/1999/xlink" x="0px" y="0px"
	 width="24px" height="24px" viewBox="0 0 24 24" enable-background="new 0 0 24 24" xml:space="preserve">
<path d="M23,0H5C4.448,0,4,0.448,4,1v11H1c-0.552,0-1,0.448-1,1v8c0,1.657,1.343,3,3,3h1h17c1.657,0,3-1.343,3-3V1
	C24,0.448,23.552,0,23,0z M4,21c0,0.551-0.448,1-1,1s-1-0.449-1-1v-7h2V21z M8,5h6v6H8V5z M20,19H8v-2h12V19z M20,15H8v-2h12V15z
	 M20,11h-4V9h4V11z M20,7h-4V5h4V7z"/>
</svg>
