<?xml version="1.0" encoding="utf-8"?>
<!-- Generator: Adobe Illustrator 20.1.0, SVG Export Plug-In . SVG Version: 6.00 Build 0)  -->
<!DOCTYPE svg PUBLIC "-//W3C//DTD SVG 1.1//EN" "http://www.w3.org/Graphics/SVG/1.1/DTD/svg11.dtd">
<svg version="1.1" id="Layer_1" xmlns="http://www.w3.org/2000/svg" xmlns:xlink="http://www.w3.org/1999/xlink" x="0px" y="0px"
	 width="24px" height="24px" viewBox="0 0 24 24" enable-background="new 0 0 24 24" xml:space="preserve">
<path d="M13.382,17l2.431-4.862L12,7.562l-3.813,4.575L10.618,17H13.382z M12,11c0.552,0,1,0.448,1,1c0,0.552-0.448,1-1,1
	c-0.552,0-1-0.448-1-1C11,11.448,11.448,11,12,11z"/>
<path d="M1,23c0,0.553,0.448,1,1,1h20c0.552,0,1-0.447,1-1V1c0-0.553-0.448-1-1-1H2C1.448,0,1,0.447,1,1V23z M6.232,11.359l5-6
	c0.38-0.455,1.156-0.455,1.536,0l5,6c0.254,0.306,0.304,0.732,0.126,1.088L15.618,17H17v2H7v-2h1.382l-2.276-4.553
	C5.928,12.092,5.978,11.665,6.232,11.359z"/>
</svg>
