<?xml version="1.0" encoding="utf-8"?>
<!-- Generator: Adobe Illustrator 20.1.0, SVG Export Plug-In . SVG Version: 6.00 Build 0)  -->
<!DOCTYPE svg PUBLIC "-//W3C//DTD SVG 1.1//EN" "http://www.w3.org/Graphics/SVG/1.1/DTD/svg11.dtd">
<svg version="1.1" id="Layer_1" xmlns="http://www.w3.org/2000/svg" xmlns:xlink="http://www.w3.org/1999/xlink" x="0px" y="0px"
	 width="24px" height="24px" viewBox="0 0 24 24" enable-background="new 0 0 24 24" xml:space="preserve">
<path d="M21,1c0-0.552-0.448-1-1-1H4C3.448,0,3,0.448,3,1v14h18V1z M11.707,9.707C11.512,9.902,11.256,10,11,10
	s-0.512-0.098-0.707-0.293L7.586,7L9,5.586l2,2l4-4L16.414,5L11.707,9.707z"/>
<path d="M15,19H9v-2H0v6c0,0.552,0.448,1,1,1h22c0.552,0,1-0.448,1-1v-6l-9,0V19z"/>
</svg>
