<?xml version="1.0" encoding="utf-8"?>
<!-- Generator: Adobe Illustrator 20.1.0, SVG Export Plug-In . SVG Version: 6.00 Build 0)  -->
<!DOCTYPE svg PUBLIC "-//W3C//DTD SVG 1.1//EN" "http://www.w3.org/Graphics/SVG/1.1/DTD/svg11.dtd">
<svg version="1.1" id="Layer_1" xmlns="http://www.w3.org/2000/svg" xmlns:xlink="http://www.w3.org/1999/xlink" x="0px" y="0px"
	 width="24px" height="24px" viewBox="0 0 24 24" enable-background="new 0 0 24 24" xml:space="preserve">
<path d="M1,23c0,0.553,0.448,1,1,1h20c0.552,0,1-0.447,1-1V1c0-0.553-0.448-1-1-1H2C1.448,0,1,0.447,1,1V23z M8,8
	c0-2.206,1.794-4,4-4s4,1.794,4,4v3h-2V8c0-1.103-0.897-2-2-2s-2,0.897-2,2v3H8V8z M13,9v6h-2V9H13z M8,13h2v3c0,1.103,0.897,2,2,2
	s2-0.897,2-2v-3h2v3c0,2.206-1.794,4-4,4s-4-1.794-4-4V13z"/>
</svg>
