<?xml version="1.0" encoding="utf-8"?>
<!-- Generator: Adobe Illustrator 20.1.0, SVG Export Plug-In . SVG Version: 6.00 Build 0)  -->
<!DOCTYPE svg PUBLIC "-//W3C//DTD SVG 1.1//EN" "http://www.w3.org/Graphics/SVG/1.1/DTD/svg11.dtd">
<svg version="1.1" id="Layer_1" xmlns="http://www.w3.org/2000/svg" xmlns:xlink="http://www.w3.org/1999/xlink" x="0px" y="0px"
	 width="24px" height="24px" viewBox="0 0 24 24" enable-background="new 0 0 24 24" xml:space="preserve">
<path d="M0.193,22.592c0.087,0.118,0.199,0.217,0.333,0.289c0.099,0.053,0.208,0.091,0.323,0.108C0.9,22.997,0.95,23,1,23
	c0.008,0,0.016,0,0.023,0H19c0.439,0,0.827-0.286,0.956-0.706l4-13c0.093-0.303,0.037-0.633-0.151-0.888S23.317,8,23,8h-2V5
	c0-0.552-0.447-1-1-1h-9.465L8.832,1.445C8.646,1.167,8.334,1,8,1H1C0.447,1,0,1.448,0,2v19.978c-0.002,0.074,0.005,0.148,0.02,0.22
	C0.049,22.342,0.109,22.477,0.193,22.592z M2,3h5.465l1.703,2.555C9.354,5.833,9.666,6,10,6h9v2H5C4.561,8,4.173,8.286,4.044,8.706
	L2,15.35V3z"/>
</svg>
