<?xml version="1.0" encoding="utf-8"?>
<!-- Generator: Adobe Illustrator 19.1.0, SVG Export Plug-In . SVG Version: 6.00 Build 0)  -->
<!DOCTYPE svg PUBLIC "-//W3C//DTD SVG 1.1//EN" "http://www.w3.org/Graphics/SVG/1.1/DTD/svg11.dtd">
<svg version="1.1" id="Layer_1" xmlns="http://www.w3.org/2000/svg" xmlns:xlink="http://www.w3.org/1999/xlink" x="0px" y="0px"
	 width="64px" height="64px" viewBox="0 0 64 64" enable-background="new 0 0 64 64" xml:space="preserve">
<path data-color="color-2" fill="#444444" d="M53,51c0,5.5136719-4.4858398,10-10,10s-10-4.4863281-10-10V13
	c0-6.6171875-5.3833008-12-12-12S9,6.3828125,9,13v15h2V13c0-5.5136719,4.4858398-10,10-10s10,4.4863281,10,10v38
	c0,6.6171875,5.3833008,12,12,12s12-5.3828125,12-12V36h-2V51z"/>
<polygon fill="#444444" points="4,33 6,36 6,48.0007324 4,51 4,54 16,54 16,51 14,48.0007324 14,36 16,33 16,30 4,30 "/>
<polygon fill="#444444" points="60,13 60,10 48,10 48,13 50,16 50,28.0007324 48,31 48,34 60,34 60,31 58,28.0007324 58,16 "/>
</svg>
