<?xml version="1.0" encoding="utf-8"?>
<!-- Generator: Adobe Illustrator 19.1.0, SVG Export Plug-In . SVG Version: 6.00 Build 0)  -->
<!DOCTYPE svg PUBLIC "-//W3C//DTD SVG 1.1//EN" "http://www.w3.org/Graphics/SVG/1.1/DTD/svg11.dtd">
<svg version="1.1" id="Layer_1" xmlns="http://www.w3.org/2000/svg" xmlns:xlink="http://www.w3.org/1999/xlink" x="0px" y="0px"
	 width="64px" height="64px" viewBox="0 0 64 64" enable-background="new 0 0 64 64" xml:space="preserve">
<path data-color="color-2" fill="#444444" d="M42,11H22c-0.5527344,0-1,0.4477539-1,1v40c0,0.5522461,0.4472656,1,1,1h20
	c0.5527344,0,1-0.4477539,1-1V12C43,11.4477539,42.5527344,11,42,11z"/>
<path fill="#444444" d="M18,27H1c-0.5527344,0-1,0.4477539-1,1v24c0,0.5522461,0.4472656,1,1,1h17c0.5527344,0,1-0.4477539,1-1V28
	C19,27.4477539,18.5527344,27,18,27z"/>
<path fill="#444444" d="M63,37H46c-0.5527344,0-1,0.4477539-1,1v14c0,0.5522461,0.4472656,1,1,1h17c0.5527344,0,1-0.4477539,1-1V38
	C64,37.4477539,63.5527344,37,63,37z"/>
</svg>
