<?xml version="1.0" encoding="utf-8"?>
<!-- Generator: Adobe Illustrator 19.1.0, SVG Export Plug-In . SVG Version: 6.00 Build 0)  -->
<!DOCTYPE svg PUBLIC "-//W3C//DTD SVG 1.1//EN" "http://www.w3.org/Graphics/SVG/1.1/DTD/svg11.dtd">
<svg version="1.1" id="Layer_1" xmlns="http://www.w3.org/2000/svg" xmlns:xlink="http://www.w3.org/1999/xlink" x="0px" y="0px"
	 width="64px" height="64px" viewBox="0 0 64 64" enable-background="new 0 0 64 64" xml:space="preserve">
<path data-color="color-2" fill="#444444" d="M5.396769,58.603241l-0.0000114-0.0000114
	c-3.1956768-3.1956749-3.1956768-8.3768921,0-11.572567l3.857533-3.8575325L20.82687,54.7457085l-3.8575325,3.8575325
	C13.7736616,61.7989197,8.5924454,61.7989197,5.396769,58.603241z"/>
<path fill="#444444" d="M59.4021606,27.742981c-2.1304321-2.1303711-5.5845337-2.1304932-7.7150879,0
	c2.1305542-2.1304932,2.1304321-5.5845947,0-7.7150269c-2.1303711-2.1304321-5.5844727-2.1305542-7.7150269,0
	c2.1305542-2.1305542,2.1304321-5.5846558,0-7.7150269c-2.1304321-2.1304321-5.5845337-2.1305542-7.7150269,0
	c2.1304932-2.1305542,2.1303711-5.5846558,0-7.7150879c-2.1304321-2.1304321-5.5845337-2.1305542-7.7150879,0
	c-0.6079102,0.6079102-1.0221558,1.3284912-1.28302,2.0903931L10.1889038,41.2792358L22.720459,53.8112183l34.5913086-17.0701294
	c0.7619019-0.2608643,1.4824829-0.6751099,2.0903931-1.28302C61.5327148,33.3275146,61.5325928,29.8734131,59.4021606,27.742981z"/>
</svg>
