<?xml version="1.0" encoding="utf-8"?>
<!-- Generator: Adobe Illustrator 19.1.0, SVG Export Plug-In . SVG Version: 6.00 Build 0)  -->
<!DOCTYPE svg PUBLIC "-//W3C//DTD SVG 1.1//EN" "http://www.w3.org/Graphics/SVG/1.1/DTD/svg11.dtd">
<svg version="1.1" id="Layer_1" xmlns="http://www.w3.org/2000/svg" xmlns:xlink="http://www.w3.org/1999/xlink" x="0px" y="0px"
	 width="64px" height="64px" viewBox="0 0 64 64" enable-background="new 0 0 64 64" xml:space="preserve">
<circle data-color="color-2" fill="#444444" cx="46" cy="36" r="8"/>
<path data-color="color-2" fill="#444444" d="M14.7807617,35.1650391c-3.2926025,4.1618652-1.1365356,9.5338745-3.5797729,11.9771118
	l-7.0710449,7.0710449c-0.7810669,0.7810669-0.7810669,2.0473633,0,2.8284302l2.8284302,2.8284302
	c0.7810669,0.7810059,2.0473633,0.7810059,2.8284302,0l7.0710449-7.071106
	c2.4468384-2.4468384,7.7262573-0.1773682,11.9779053-3.5784302L14.7807617,35.1650391z"/>
<path fill="#444444" d="M59.2843018,13.2009888l-8.4852905-8.4852905c-1.5621338-1.5620728-4.0947876-1.5620728-5.6568604,0
	l-28.991333,28.991333h0.000061l14.1419067,14.142334l6.9805298-6.9805298C36.465271,39.4264526,36,37.7674561,36,36
	c0-5.5136719,4.4858398-10,10-10c1.7675171,0,3.4264526,0.465332,4.8687744,1.2733154l8.4155273-8.4154663
	C60.8463745,17.2957764,60.8463745,14.7630615,59.2843018,13.2009888z"/>
</svg>
