<?xml version="1.0" encoding="utf-8"?>
<!-- Generator: Adobe Illustrator 19.1.0, SVG Export Plug-In . SVG Version: 6.00 Build 0)  -->
<!DOCTYPE svg PUBLIC "-//W3C//DTD SVG 1.1//EN" "http://www.w3.org/Graphics/SVG/1.1/DTD/svg11.dtd">
<svg version="1.1" id="Layer_1" xmlns="http://www.w3.org/2000/svg" xmlns:xlink="http://www.w3.org/1999/xlink" x="0px" y="0px"
	 width="64px" height="64px" viewBox="0 0 64 64" enable-background="new 0 0 64 64" xml:space="preserve">
<path data-color="color-2" fill="#444444" d="M3.6018677,41.6873169C2.6902466,48.9642334,3.8259277,55.1210938,6.3486328,57.644043
	c1.9707031,1.9707031,5.9487305,3.0268555,10.8769531,3.0268555c1.586792,0,3.2745972-0.1126709,5.0232544-0.3366089
	L3.6018677,41.6873169z"/>
<path fill="#444444" d="M39.3047485,3.9199829C31.4900513,5.350647,22.7592773,9.0837402,15.9536133,15.8896484
	C9.1473999,22.6956177,5.4140625,31.4261475,3.9832764,39.2406006l20.711731,20.711731
	c5.4699097-1.0043335,15.3555298-3.8607788,23.4075317-11.913269c6.7281494-6.7281494,10.430542-15.5656128,11.850647-23.4706421
	L39.3047485,3.9199829z M42.7070312,29.2929688c0.390625,0.390625,0.390625,1.0234375,0,1.4140625
	C42.5117188,30.9023438,42.2558594,31,42,31s-0.5117188-0.0976562-0.7070312-0.2929688L38,27.4140625L33.4140625,32
	l3.2929688,3.2929688c0.390625,0.390625,0.390625,1.0234375,0,1.4140625C36.5117188,36.9023438,36.2558594,37,36,37
	s-0.5117188-0.0976562-0.7070312-0.2929688L32,33.4140625L27.4140625,38l3.2929688,3.2929688
	c0.390625,0.390625,0.390625,1.0234375,0,1.4140625C30.5117188,42.9023438,30.2558594,43,30,43
	s-0.5117188-0.0976562-0.7070312-0.2929688L26,39.4140625l-3.2929688,3.2929688C22.5117188,42.9023438,22.2558594,43,22,43
	s-0.5117188-0.0976562-0.7070312-0.2929688c-0.390625-0.390625-0.390625-1.0234375,0-1.4140625L24.5859375,38l-3.2929688-3.2929688
	c-0.390625-0.390625-0.390625-1.0234375,0-1.4140625s1.0234375-0.390625,1.4140625,0L26,36.5859375L30.5859375,32
	l-3.2929688-3.2929688c-0.390625-0.390625-0.390625-1.0234375,0-1.4140625s1.0234375-0.390625,1.4140625,0L32,30.5859375
	L36.5859375,26l-3.2929688-3.2929688c-0.390625-0.390625-0.390625-1.0234375,0-1.4140625s1.0234375-0.390625,1.4140625,0
	L38,24.5859375l3.2929688-3.2929688c0.390625-0.390625,1.0234375-0.390625,1.4140625,0s0.390625,1.0234375,0,1.4140625
	L39.4140625,26L42.7070312,29.2929688z"/>
<path data-color="color-2" fill="#444444" d="M60.3271484,22.1142578c0.8955688-7.2532959-0.1796265-13.388855-2.6196289-15.8291016
	c-2.5223999-2.5223999-8.6791382-3.6578979-15.9559326-2.74646L60.3271484,22.1142578z"/>
</svg>
