<?xml version="1.0" encoding="utf-8"?>
<!-- Generator: Adobe Illustrator 19.1.0, SVG Export Plug-In . SVG Version: 6.00 Build 0)  -->
<!DOCTYPE svg PUBLIC "-//W3C//DTD SVG 1.1//EN" "http://www.w3.org/Graphics/SVG/1.1/DTD/svg11.dtd">
<svg version="1.1" id="Layer_1" xmlns="http://www.w3.org/2000/svg" xmlns:xlink="http://www.w3.org/1999/xlink" x="0px" y="0px"
	 width="64px" height="64px" viewBox="0 0 64 64" enable-background="new 0 0 64 64" xml:space="preserve">
<path data-color="color-2" fill="#444444" d="M47,30c4.9705811,0,9-1.7908936,9-4v-6c0-2.2091675-4.0294189-4-9-4s-9,1.7908325-9,4v6
	C38,28.2091064,42.0294189,30,47,30z"/>
<path fill="#444444" d="M56.7759399,41.6791382L34,49L10.0112305,7.8085327
	C8.9245605,5.942627,6.5411987,5.2946167,4.6593628,6.3534546C2.739624,7.4335938,2.0737915,9.874939,3.1793823,11.7801514
	l25.9534912,44.7255249C29.6696167,57.4306641,30.6582031,58,31.7276611,58H59c1.6568604,0,3-1.3431396,3-3v-9.5127563
	C62,42.7750854,59.3580322,40.8491821,56.7759399,41.6791382z"/>
</svg>
