<?xml version="1.0" encoding="utf-8"?>
<!-- Generator: Adobe Illustrator 19.1.0, SVG Export Plug-In . SVG Version: 6.00 Build 0)  -->
<!DOCTYPE svg PUBLIC "-//W3C//DTD SVG 1.1//EN" "http://www.w3.org/Graphics/SVG/1.1/DTD/svg11.dtd">
<svg version="1.1" id="Layer_1" xmlns="http://www.w3.org/2000/svg" xmlns:xlink="http://www.w3.org/1999/xlink" x="0px" y="0px"
	 width="64px" height="64px" viewBox="0 0 64 64" enable-background="new 0 0 64 64" xml:space="preserve">
<path fill="#444444" d="M13.302124,25l3.7027588,36.1020508C17.0576172,61.6123047,17.4873047,62,18,62h28
	c0.5126953,0,0.9423828-0.3876953,0.9951172-0.8979492L50.697876,25H13.302124z M41,52h-6c-0.5527344,0-1-0.4477539-1-1
	s0.4472656-1,1-1h6c0.5527344,0,1,0.4477539,1,1S41.5527344,52,41,52z M41,44h-6c-0.5527344,0-1-0.4477539-1-1s0.4472656-1,1-1h6
	c0.5527344,0,1,0.4477539,1,1S41.5527344,44,41,44z M41,36h-6c-0.5527344,0-1-0.4477539-1-1s0.4472656-1,1-1h6
	c0.5527344,0,1,0.4477539,1,1S41.5527344,36,41,36z"/>
<path data-color="color-2" fill="#444444" d="M56,18h-5.7000732C48.6473389,13.3469849,44.2130127,10,39,10h-3V4h2
	c0.5527344,0,1-0.4477539,1-1s-0.4472656-1-1-1H26c-0.5527344,0-1,0.4477539-1,1s0.4472656,1,1,1h2v6h-3
	c-5.2130127,0-9.6473389,3.3469849-11.2999268,8H8c-0.5527344,0-1,0.4477539-1,1v3c0,0.5522461,0.4472656,1,1,1h48
	c0.5527344,0,1-0.4477539,1-1v-3C57,18.4477539,56.5527344,18,56,18z"/>
</svg>
