<?xml version="1.0" encoding="utf-8"?>
<!-- Generator: Adobe Illustrator 19.1.0, SVG Export Plug-In . SVG Version: 6.00 Build 0)  -->
<!DOCTYPE svg PUBLIC "-//W3C//DTD SVG 1.1//EN" "http://www.w3.org/Graphics/SVG/1.1/DTD/svg11.dtd">
<svg version="1.1" id="Layer_1" xmlns="http://www.w3.org/2000/svg" xmlns:xlink="http://www.w3.org/1999/xlink" x="0px" y="0px"
	 width="64px" height="64px" viewBox="0 0 64 64" enable-background="new 0 0 64 64" xml:space="preserve">
<path fill="#444444" d="M47.6400757,22.5168457l2.2422485-10.4221191c0.6357422-2.9667969-0.09375-6.0214844-2.0014648-8.3818359
	C45.9731445,1.3535156,43.1386719,0,40.1040039,0H23.8959961c-3.034668,0-5.8691406,1.3535156-7.7768555,3.7128906
	c-1.9077148,2.3603516-2.637207,5.4150391-2.0009766,8.3837891l2.2417603,10.420166C10.6584473,27.1028442,7,34.1304321,7,42
	c0,8.390625,4.1835938,16.1787109,11.190918,20.8330078C18.3549805,62.9423828,18.5473633,63,18.7441406,63h26.5117188
	c0.1967773,0,0.3891602-0.0576172,0.5532227-0.1669922C52.8164062,58.1787109,57,50.390625,57,42
	C57,34.1304321,53.3415527,27.1028442,47.6400757,22.5168457z M32,51c-4.9624023,0-9-4.0371094-9-9s4.0375977-9,9-9s9,4.0371094,9,9
	S36.9624023,51,32,51z M45.9716797,11.2548828l-1.9057617,8.8585205C40.4859619,18.131897,36.3733521,17,32,17
	s-8.4859009,1.131897-12.0658569,3.1134033l-1.9053345-8.8565674c-0.3813477-1.7802734,0.0566406-3.6132812,1.2011719-5.0292969
	C20.3745117,4.8125,22.0751953,4,23.8959961,4h16.2080078c1.8208008,0,3.5214844,0.8125,4.6660156,2.2275391
	C45.9145508,7.6435547,46.3525391,9.4765625,45.9716797,11.2548828z"/>
</svg>
