<?xml version="1.0" encoding="utf-8"?>
<!-- Generator: Adobe Illustrator 19.1.0, SVG Export Plug-In . SVG Version: 6.00 Build 0)  -->
<!DOCTYPE svg PUBLIC "-//W3C//DTD SVG 1.1//EN" "http://www.w3.org/Graphics/SVG/1.1/DTD/svg11.dtd">
<svg version="1.1" id="Layer_1" xmlns="http://www.w3.org/2000/svg" xmlns:xlink="http://www.w3.org/1999/xlink" x="0px" y="0px"
	 width="64px" height="64px" viewBox="0 0 64 64" enable-background="new 0 0 64 64" xml:space="preserve">
<rect data-color="color-2" x="22" y="1" fill="#444444" width="9" height="8"/>
<path data-color="color-2" fill="#444444" d="M52,1h-8v8h8c0.5527344,0,1-0.4477539,1-1V2C53,1.4477539,52.5527344,1,52,1z"/>
<path data-color="color-2" fill="#444444" d="M12,1c-0.5527344,0-1,0.4477539-1,1v6c0,0.5522461,0.4472656,1,1,1h8V1H12z"/>
<rect data-color="color-2" x="33" y="1" fill="#444444" width="9" height="8"/>
<path fill="#444444" d="M49,17.0449219V12c0-0.5522461-0.4472656-1-1-1H16c-0.5527344,0-1,0.4477539-1,1v5.0449219
	C9.4013672,17.5517578,5,22.2714844,5,28v26c0,4.9624023,4.0371094,9,9,9h36c4.9628906,0,9-4.0375977,9-9V28
	C59,22.2714844,54.5986328,17.5517578,49,17.0449219z M39.7744141,39.6333008l-9,11
	C30.578125,50.8725586,30.2910156,51,29.9990234,51c-0.1699219,0-0.3417969-0.043457-0.4980469-0.1333008
	c-0.4238281-0.2441406-0.609375-0.7592773-0.4375-1.2177734L31.5566406,43H25c-0.3867188,0-0.7382812-0.2226562-0.9033203-0.5717773
	c-0.1660156-0.3491211-0.1152344-0.762207,0.1289062-1.0615234l9-11c0.3105469-0.378418,0.8476562-0.4785156,1.2734375-0.2333984
	c0.4238281,0.2441406,0.609375,0.7592773,0.4375,1.2177734L32.4433594,38H39c0.3867188,0,0.7382812,0.2226562,0.9033203,0.5717773
	C40.0693359,38.9208984,40.0185547,39.3339844,39.7744141,39.6333008z"/>
</svg>
