<?xml version="1.0" encoding="utf-8"?>
<!-- Generator: Adobe Illustrator 19.1.0, SVG Export Plug-In . SVG Version: 6.00 Build 0)  -->
<!DOCTYPE svg PUBLIC "-//W3C//DTD SVG 1.1//EN" "http://www.w3.org/Graphics/SVG/1.1/DTD/svg11.dtd">
<svg version="1.1" id="Layer_1" xmlns="http://www.w3.org/2000/svg" xmlns:xlink="http://www.w3.org/1999/xlink" x="0px" y="0px"
	 width="64px" height="64px" viewBox="0 0 64 64" enable-background="new 0 0 64 64" xml:space="preserve">
<path data-color="color-2" fill="#444444" d="M9,19H6c-0.5522461,0-1,0.4477539-1,1v8H2c-0.5522461,0-1,0.4477539-1,1v6
	c0,0.5522461,0.4477539,1,1,1h3v8c0,0.5522461,0.4477539,1,1,1h3c0.5522461,0,1-0.4477539,1-1V20C10,19.4477539,9.5522461,19,9,19z"
	/>
<path fill="#444444" d="M51,11h-6c-0.5522461,0-1,0.4477539-1,1v16H20V12c0-0.5522461-0.4477539-1-1-1h-6
	c-0.5522461,0-1,0.4477539-1,1v40c0,0.5522461,0.4477539,1,1,1h6c0.5522461,0,1-0.4477539,1-1V36h24v16c0,0.5522461,0.4477539,1,1,1
	h6c0.5522461,0,1-0.4477539,1-1V12C52,11.4477539,51.5522461,11,51,11z"/>
<path data-color="color-2" fill="#444444" d="M62,28h-3v-8c0-0.5522461-0.4477539-1-1-1h-3c-0.5522461,0-1,0.4477539-1,1v24
	c0,0.5522461,0.4477539,1,1,1h3c0.5522461,0,1-0.4477539,1-1v-8h3c0.5522461,0,1-0.4477539,1-1v-6
	C63,28.4477539,62.5522461,28,62,28z"/>
</svg>
