<?xml version="1.0" encoding="utf-8"?>
<!-- Generator: Adobe Illustrator 19.1.0, SVG Export Plug-In . SVG Version: 6.00 Build 0)  -->
<!DOCTYPE svg PUBLIC "-//W3C//DTD SVG 1.1//EN" "http://www.w3.org/Graphics/SVG/1.1/DTD/svg11.dtd">
<svg version="1.1" id="Layer_1" xmlns="http://www.w3.org/2000/svg" xmlns:xlink="http://www.w3.org/1999/xlink" x="0px" y="0px"
	 width="64px" height="64px" viewBox="0 0 64 64" enable-background="new 0 0 64 64" xml:space="preserve">
<path fill="#444444" d="M57.7568359,6.2431641c-5.6992188-5.6992188-14.9726562-5.6992188-20.671875,0
	c-2.8671875,2.8671875-5.5244141,6.6748047-7.8681641,10.0341797c-2.0029297,2.8691406-3.8945312,5.5800781-5.6123047,7.2978516
	c-1.7099609,1.7099609-4.3925781,3.5791016-7.2324219,5.5576172c-3.3642578,2.3447266-7.1777344,5.0019531-10.0986328,7.9228516
	C3.5205078,39.8076172,2.0029297,43.4755859,2,47.3818359C1.9970703,51.2949219,3.5146484,54.96875,6.2734375,57.7265625
	C9.0292969,60.4824219,12.6972656,62,16.6054688,62c0.0039062,0,0.0087891,0,0.0126953,0
	c3.90625-0.0029297,7.5742188-1.5205078,10.3261719-4.2734375c2.9208984-2.9208984,5.578125-6.734375,7.9228516-10.0986328
	c1.9785156-2.8398438,3.8476562-5.5224609,5.5576172-7.2324219c1.7177734-1.7177734,4.4287109-3.609375,7.2978516-5.6123047
	c3.359375-2.34375,7.1669922-5.0009766,10.0341797-7.8681641C63.4560547,21.2158203,63.4560547,11.9423828,57.7568359,6.2431641z"/>
</svg>
