<?xml version="1.0" encoding="utf-8"?>
<!-- Generator: Adobe Illustrator 19.1.0, SVG Export Plug-In . SVG Version: 6.00 Build 0)  -->
<!DOCTYPE svg PUBLIC "-//W3C//DTD SVG 1.1//EN" "http://www.w3.org/Graphics/SVG/1.1/DTD/svg11.dtd">
<svg version="1.1" id="Layer_1" xmlns="http://www.w3.org/2000/svg" xmlns:xlink="http://www.w3.org/1999/xlink" x="0px" y="0px"
	 width="64px" height="64px" viewBox="0 0 64 64" enable-background="new 0 0 64 64" xml:space="preserve">
<path fill="#444444" d="M56.0756836,43.2587891l-6.1578369-2.0008545l5.512207-25.0103149
	c1.3228149-0.6629028,2.4296875-1.7307129,3.1226807-3.1167603l4.3417969-8.6835938
	c0.2470703-0.4941406,0.046875-1.0947266-0.4472656-1.3417969c-0.4951172-0.2451172-1.0947266-0.046875-1.3417969,0.4472656
	l-4.3417969,8.6835938C55.9116211,13.9414062,54.1977539,15,52.2919922,15H44c-0.5522461,0-1,0.4472656-1,1s0.4477539,1,1,1
	h8.2919922c0.3175049,0,0.6304932-0.0240479,0.9387817-0.0650635l-5.223938,23.7020874L20.0786133,31.5625
	c-0.0702515-0.0204468-1.541748-0.4321899-3.291626-0.5376587L13.2807617,17H18c1.6542969,0,3-1.3457031,3-3v-0.4638672
	c0-1.3564453-0.9160156-2.5478516-2.2270508-2.8974609l-11-2.9335938c-0.90625-0.2412109-1.8549805-0.0517578-2.6000977,0.5185547
	C4.4272461,8.7958984,4,9.6640625,4,10.6035156V14c0,1.6542969,1.3457031,3,3,3h4.2192383l3.5159912,14.0640869
	C7.0551758,31.7096558,1,38.1554565,1,46c0,8.2714844,6.7290039,15,15,15h38c4.9624023,0,9-4.0371094,9-9
	C63,47.8125,60.1547852,44.2246094,56.0756836,43.2587891z M16,52c-3.3137207,0-6-2.6862793-6-6s2.6862793-6,6-6s6,2.6862793,6,6
	S19.3137207,52,16,52z"/>
</svg>
