<?xml version="1.0" encoding="utf-8"?>
<!-- Generator: Adobe Illustrator 19.1.0, SVG Export Plug-In . SVG Version: 6.00 Build 0)  -->
<!DOCTYPE svg PUBLIC "-//W3C//DTD SVG 1.1//EN" "http://www.w3.org/Graphics/SVG/1.1/DTD/svg11.dtd">
<svg version="1.1" id="Layer_1" xmlns="http://www.w3.org/2000/svg" xmlns:xlink="http://www.w3.org/1999/xlink" x="0px" y="0px"
	 width="64px" height="64px" viewBox="0 0 64 64" enable-background="new 0 0 64 64" xml:space="preserve">
<path data-color="color-2" fill="#444444" d="M56,18h-5.7000732C48.6473389,13.3469849,44.2130127,10,39,10h-3V4h2
	c0.5527344,0,1-0.4477539,1-1s-0.4472656-1-1-1H26c-0.5527344,0-1,0.4477539-1,1s0.4472656,1,1,1h2v6h-3
	c-5.2130127,0-9.6473389,3.3469849-11.2999268,8H8c-0.5527344,0-1,0.4477539-1,1v3c0,0.5522461,0.4472656,1,1,1h48
	c0.5527344,0,1-0.4477539,1-1v-3C57,18.4477539,56.5527344,18,56,18z"/>
<path fill="#444444" d="M13.302124,25l3.7027588,36.1020508C17.0576172,61.6123047,17.4873047,62,18,62h28
	c0.5126953,0,0.9423828-0.3876953,0.9951172-0.8979492L50.697876,25H13.302124z M39.7744141,40.6333008l-9,11
	C30.578125,51.8725586,30.2910156,52,29.9990234,52c-0.1699219,0-0.3417969-0.043457-0.4980469-0.1333008
	c-0.4238281-0.2441406-0.609375-0.7592773-0.4375-1.2177734L31.5566406,44H25c-0.3867188,0-0.7382812-0.2226562-0.9033203-0.5717773
	c-0.1660156-0.3491211-0.1152344-0.762207,0.1289062-1.0615234l9-11c0.3105469-0.3789062,0.8476562-0.4790039,1.2734375-0.2333984
	c0.4238281,0.2441406,0.609375,0.7592773,0.4375,1.2177734L32.4433594,39H39c0.3867188,0,0.7382812,0.2226562,0.9033203,0.5717773
	C40.0693359,39.9208984,40.0185547,40.3339844,39.7744141,40.6333008z"/>
</svg>
