<?xml version="1.0" encoding="utf-8"?>
<!-- Generator: Adobe Illustrator 19.1.0, SVG Export Plug-In . SVG Version: 6.00 Build 0)  -->
<!DOCTYPE svg PUBLIC "-//W3C//DTD SVG 1.1//EN" "http://www.w3.org/Graphics/SVG/1.1/DTD/svg11.dtd">
<svg version="1.1" id="Layer_1" xmlns="http://www.w3.org/2000/svg" xmlns:xlink="http://www.w3.org/1999/xlink" x="0px" y="0px"
	 width="64px" height="64px" viewBox="0 0 64 64" enable-background="new 0 0 64 64" xml:space="preserve">
<polygon data-color="color-2" fill="#444444" points="26,54 32,58 38,54 42,58 44,34 20,34 22,58 "/>
<path fill="#444444" d="M62,3H2C1.4477539,3,1,3.4477539,1,4v40c0,0.5522461,0.4477539,1,1,1h16.909729l-0.902832-10.8339233
	C18.0022583,34.1102905,18.0103149,34.055542,18.0103149,34H14c-0.5522461,0-1-0.4477539-1-1s0.4477539-1,1-1h6h24h6
	c0.5522461,0,1,0.4477539,1,1s-0.4477539,1-1,1h-4.0103149c0,0.055542,0.0080566,0.1102905,0.003418,0.1660767L45.090271,45H62
	c0.5522461,0,1-0.4477539,1-1V4C63,3.4477539,62.5522461,3,62,3z"/>
</svg>
