<?xml version="1.0" encoding="utf-8"?>
<!-- Generator: Adobe Illustrator 19.1.0, SVG Export Plug-In . SVG Version: 6.00 Build 0)  -->
<!DOCTYPE svg PUBLIC "-//W3C//DTD SVG 1.1//EN" "http://www.w3.org/Graphics/SVG/1.1/DTD/svg11.dtd">
<svg version="1.1" id="Layer_1" xmlns="http://www.w3.org/2000/svg" xmlns:xlink="http://www.w3.org/1999/xlink" x="0px" y="0px"
	 width="64px" height="64px" viewBox="0 0 64 64" enable-background="new 0 0 64 64" xml:space="preserve">
<circle data-color="color-2" fill="#444444" cx="52" cy="40.1717834" r="8"/>
<path fill="#444444" d="M52.2452393,11.7547607c-7.8104248-7.8104858-21.1069336-7.1773682-29.6984863,1.4141846
	c-3.0821533,3.0821533-5.1312866,6.7687988-6.1383667,10.5895386L40.2280884,47.578186
	c1.2930298-0.3409424,2.5714111-0.7946777,3.8154297-1.3734741C42.7671509,44.5255127,42,42.4390869,42,40.171875
	c0-5.5141602,4.4858398-10,10-10c1.7459106,0,3.387207,0.4521484,4.8171997,1.2418213
	C58.8597412,24.4215698,57.3893433,16.8988647,52.2452393,11.7547607z"/>
<path data-color="color-2" fill="#444444" d="M15.9321899,26.1104126c-0.642334,4.2789917-0.0050659,8.6056519,1.967041,12.3399658
	l-9.977356,7.3167114c-1.9769897,1.4497681-2.1965332,4.3205566-0.4630127,6.0540771l4.7199707,4.7199707
	c1.7335205,1.7335205,4.6043091,1.5139771,6.0540771-0.4630127l7.3167114-9.977356
	c3.7320557,1.9709473,8.0577393,2.6088867,12.3357544,1.9628296L15.9321899,26.1104126z"/>
</svg>
