<?xml version="1.0" encoding="utf-8"?>
<!-- Generator: Adobe Illustrator 18.1.1, SVG Export Plug-In . SVG Version: 6.00 Build 0)  -->
<!DOCTYPE svg PUBLIC "-//W3C//DTD SVG 1.1//EN" "http://www.w3.org/Graphics/SVG/1.1/DTD/svg11.dtd">
<svg version="1.1" id="Layer_1" xmlns="http://www.w3.org/2000/svg" xmlns:xlink="http://www.w3.org/1999/xlink" x="0px" y="0px"
	 width="32px" height="32px" viewBox="0 0 32 32" enable-background="new 0 0 32 32" xml:space="preserve">
<path d="M25,15h-1v-1c0-0.6-0.4-1-1-1s-1,0.4-1,1v2c0,0.6,0.4,1,1,1h2c0.6,0,1-0.4,1-1C26,15.4,25.6,15,25,15z"/>
<path d="M31.3,16.1L29,15.3V11c0-0.6-0.4-1-1-1h-8V6c0-0.6-0.4-1-1-1H1C0.4,5,0,5.4,0,6v17c0,0.6,0.4,1,1,1h3.1c0.5,2.3,2.5,4,4.9,4
	s4.4-1.7,4.9-4H19h1c0,2.2,1.8,4,4,4s4-1.8,4-4h3c0.6,0,1-0.4,1-1v-6C32,16.6,31.7,16.2,31.3,16.1z M9,26c-1.7,0-3-1.3-3-3
	s1.3-3,3-3s3,1.3,3,3S10.7,26,9,26z M13,14h-2v2c0,0.6-0.4,1-1,1s-1-0.4-1-1v-2H7c-0.6,0-1-0.4-1-1s0.4-1,1-1h2v-2c0-0.6,0.4-1,1-1
	s1,0.4,1,1v2h2c0.6,0,1,0.4,1,1S13.6,14,13,14z M24,26c-1.1,0-2-0.9-2-2c0-1.1,0.9-2,2-2s2,0.9,2,2C26,25.1,25.1,26,24,26z M30,22
	h-2.6c-0.7-1.2-2-2-3.4-2s-2.8,0.8-3.4,2H20V12h7v4c0,0.4,0.3,0.8,0.7,0.9l2.3,0.8V22z"/>
</svg>
