<?xml version="1.0" encoding="utf-8"?>
<!-- Generator: Adobe Illustrator 18.1.1, SVG Export Plug-In . SVG Version: 6.00 Build 0)  -->
<!DOCTYPE svg PUBLIC "-//W3C//DTD SVG 1.1//EN" "http://www.w3.org/Graphics/SVG/1.1/DTD/svg11.dtd">
<svg version="1.1" id="Layer_1" xmlns="http://www.w3.org/2000/svg" xmlns:xlink="http://www.w3.org/1999/xlink" x="0px" y="0px"
	 width="32px" height="32px" viewBox="0 0 32 32" enable-background="new 0 0 32 32" xml:space="preserve">
<path d="M8.2,31c3.8,0,6.8-3.1,6.8-6.8V14V5.1C15,2.8,13.2,1,10.9,1C9.1,1,7.6,2.2,7.1,3.8c-0.1,0-0.2,0-0.2,0C3.1,3.7,0,6.8,0,10.5
	c0,1.8,0.7,3.5,1.9,4.7C0.8,16,0,17.3,0,18.7c0,1.4,0.7,2.6,1.7,3.3c-0.2,0.7-0.4,1.4-0.4,2.1C1.4,27.9,4.4,31,8.2,31z"/>
<path d="M25.2,3.7c-0.1,0-0.2,0-0.2,0C24.4,2.2,22.9,1,21.1,1C18.8,1,17,2.8,17,5.1v19.1c0,3.8,3.1,6.8,6.8,6.8s6.8-3.1,6.8-6.8
	c0-0.7-0.1-1.4-0.4-2.1c1-0.7,1.7-2,1.7-3.3c0-1.5-0.8-2.7-1.9-3.5c1.2-1.2,1.9-2.9,1.9-4.7C32,6.8,28.9,3.7,25.2,3.7z"/>
</svg>
