<?xml version="1.0" encoding="utf-8"?>
<!-- Generator: Adobe Illustrator 18.1.1, SVG Export Plug-In . SVG Version: 6.00 Build 0)  -->
<!DOCTYPE svg PUBLIC "-//W3C//DTD SVG 1.1//EN" "http://www.w3.org/Graphics/SVG/1.1/DTD/svg11.dtd">
<svg version="1.1" id="Layer_1" xmlns="http://www.w3.org/2000/svg" xmlns:xlink="http://www.w3.org/1999/xlink" x="0px" y="0px"
	 width="32px" height="32px" viewBox="0 0 32 32" enable-background="new 0 0 32 32" xml:space="preserve">
<path d="M11,30.5c2.5,0,4.9-1,6.7-2.8l10-10c3.7-3.7,3.7-9.7,0-13.4c-1.8-1.8-4.2-2.8-6.7-2.8s-4.9,1-6.7,2.8l-10,10
	C0.6,18,0.6,24,4.3,27.7C6.1,29.5,8.5,30.5,11,30.5z M5.7,15.7l4.3-4.3L20.6,22l-4.3,4.3c-1.4,1.4-3.3,2.2-5.3,2.2s-3.9-0.8-5.3-2.2
	C2.8,23.4,2.8,18.6,5.7,15.7z"/>
</svg>
