<?xml version="1.0" encoding="utf-8"?>
<!-- Generator: Adobe Illustrator 18.1.1, SVG Export Plug-In . SVG Version: 6.00 Build 0)  -->
<!DOCTYPE svg PUBLIC "-//W3C//DTD SVG 1.1//EN" "http://www.w3.org/Graphics/SVG/1.1/DTD/svg11.dtd">
<svg version="1.1" id="Layer_1" xmlns="http://www.w3.org/2000/svg" xmlns:xlink="http://www.w3.org/1999/xlink" x="0px" y="0px"
	 width="32px" height="32px" viewBox="0 0 32 32" enable-background="new 0 0 32 32" xml:space="preserve">
<path d="M31,0H1C0.4,0,0,0.4,0,1v30c0,0.6,0.4,1,1,1h30c0.6,0,1-0.4,1-1V1C32,0.4,31.6,0,31,0z M25,18c0,0.6-0.4,1-1,1h-5v5
	c0,0.6-0.4,1-1,1h-4c-0.6,0-1-0.4-1-1v-5H8c-0.6,0-1-0.4-1-1v-4c0-0.6,0.4-1,1-1h5V8c0-0.6,0.4-1,1-1h4c0.6,0,1,0.4,1,1v5h5
	c0.6,0,1,0.4,1,1V18z"/>
</svg>
