<?xml version="1.0" encoding="utf-8"?>
<!-- Generator: Adobe Illustrator 18.1.1, SVG Export Plug-In . SVG Version: 6.00 Build 0)  -->
<!DOCTYPE svg PUBLIC "-//W3C//DTD SVG 1.1//EN" "http://www.w3.org/Graphics/SVG/1.1/DTD/svg11.dtd">
<svg version="1.1" id="Layer_1" xmlns="http://www.w3.org/2000/svg" xmlns:xlink="http://www.w3.org/1999/xlink" x="0px" y="0px"
	 width="32px" height="32px" viewBox="0 0 32 32" enable-background="new 0 0 32 32" xml:space="preserve">
<path d="M7,16h2c0.6,0,1-0.4,1-1s-0.4-1-1-1H7c-0.6,0-1,0.4-1,1S6.4,16,7,16z"/>
<path d="M7,11h2c0.6,0,1-0.4,1-1S9.6,9,9,9H7c-0.6,0-1,0.4-1,1S6.4,11,7,11z"/>
<path d="M7,6h2c0.6,0,1-0.4,1-1S9.6,4,9,4H7C6.4,4,6,4.4,6,5S6.4,6,7,6z"/>
<path d="M17,32c4.4,0,8-3.6,8-8c0-2.4-1.1-4.7-3-6.2V5c0-2.8-2.2-5-5-5s-5,2.2-5,5v12.8c-1.9,1.5-3,3.8-3,6.2C9,28.4,12.6,32,17,32z
	 M16,20.1V8c0-0.6,0.4-1,1-1s1,0.4,1,1v12.1c1.7,0.4,3,2,3,3.9c0,2.2-1.8,4-4,4s-4-1.8-4-4C13,22.1,14.3,20.6,16,20.1z"/>
</svg>
