<?xml version="1.0" encoding="utf-8"?>
<!-- Generator: Adobe Illustrator 19.2.1, SVG Export Plug-In . SVG Version: 6.00 Build 0)  -->
<!DOCTYPE svg PUBLIC "-//W3C//DTD SVG 1.1//EN" "http://www.w3.org/Graphics/SVG/1.1/DTD/svg11.dtd">
<svg version="1.1" id="Layer_1" xmlns="http://www.w3.org/2000/svg" xmlns:xlink="http://www.w3.org/1999/xlink" x="0px" y="0px"
	 width="48px" height="48px" viewBox="0 0 48 48" enable-background="new 0 0 48 48" xml:space="preserve">
<path d="M46,1H16c-0.553,0-1,0.447-1,1v13H2c-0.553,0-1,0.447-1,1v30c0,0.553,0.447,1,1,1h30c0.553,0,1-0.447,1-1V33h13
	c0.553,0,1-0.447,1-1V2C47,1.447,46.553,1,46,1z M45,31H33v-3c0-0.553-0.447-1-1-1s-1,0.447-1,1v3h-3c-0.553,0-1,0.447-1,1
	s0.447,1,1,1h3v12H3V17h12v3c0,0.553,0.447,1,1,1s1-0.447,1-1v-3h3c0.553,0,1-0.447,1-1s-0.447-1-1-1h-3V3h28V31z"/>
<path d="M28,17h3v3c0,0.553,0.447,1,1,1s1-0.447,1-1v-4c0-0.553-0.447-1-1-1h-4c-0.553,0-1,0.447-1,1S27.447,17,28,17z"/>
<path d="M20,31h-3v-3c0-0.553-0.447-1-1-1s-1,0.447-1,1v4c0,0.553,0.447,1,1,1h4c0.553,0,1-0.447,1-1S20.553,31,20,31z"/>
</svg>
