<?xml version="1.0" encoding="utf-8"?>
<!-- Generator: Adobe Illustrator 19.2.1, SVG Export Plug-In . SVG Version: 6.00 Build 0)  -->
<!DOCTYPE svg PUBLIC "-//W3C//DTD SVG 1.1//EN" "http://www.w3.org/Graphics/SVG/1.1/DTD/svg11.dtd">
<svg version="1.1" id="Layer_1" xmlns="http://www.w3.org/2000/svg" xmlns:xlink="http://www.w3.org/1999/xlink" x="0px" y="0px"
	 width="48px" height="48px" viewBox="0 0 48 48" enable-background="new 0 0 48 48" xml:space="preserve">
<path d="M46,5H2C1.447,5,1,5.447,1,6s0.447,1,1,1h44c0.553,0,1-0.447,1-1S46.553,5,46,5z"/>
<path d="M38,13H28c-0.553,0-1,0.447-1,1v28c0,0.553,0.447,1,1,1h10c0.553,0,1-0.447,1-1V14C39,13.447,38.553,13,38,13z M37,41h-8V15
	h8V41z"/>
<path d="M21,30V14c0-0.553-0.447-1-1-1H10c-0.553,0-1,0.447-1,1v16c0,0.553,0.447,1,1,1h10C20.553,31,21,30.553,21,30z M19,29h-8V15
	h8V29z"/>
</svg>
