<?xml version="1.0" encoding="utf-8"?>
<!-- Generator: Adobe Illustrator 19.2.1, SVG Export Plug-In . SVG Version: 6.00 Build 0)  -->
<!DOCTYPE svg PUBLIC "-//W3C//DTD SVG 1.1//EN" "http://www.w3.org/Graphics/SVG/1.1/DTD/svg11.dtd">
<svg version="1.1" id="Layer_1" xmlns="http://www.w3.org/2000/svg" xmlns:xlink="http://www.w3.org/1999/xlink" x="0px" y="0px"
	 width="48px" height="48px" viewBox="0 0 48 48" enable-background="new 0 0 48 48" xml:space="preserve">
<path d="M37.101,13c0.465,2.279,2.484,4,4.899,4c2.757,0,5-2.243,5-5s-2.243-5-5-5c-2.414,0-4.434,1.721-4.899,4H29V8
	c0-0.552-0.448-1-1-1h-8c-0.552,0-1,0.448-1,1v3h-8.101C10.434,8.721,8.414,7,6,7c-2.757,0-5,2.243-5,5s2.243,5,5,5
	c2.414,0,4.434-1.721,4.899-4H19v0.683C11.043,15.839,5.465,22.771,5.042,31H2c-0.552,0-1,0.448-1,1v8c0,0.552,0.448,1,1,1h8
	c0.552,0,1-0.448,1-1v-8c0-0.552-0.448-1-1-1H7.042C7.452,23.864,12.193,17.829,19,15.754V16c0,0.552,0.448,1,1,1h8
	c0.552,0,1-0.448,1-1v-0.246c6.807,2.075,11.548,8.11,11.958,15.246H38c-0.552,0-1,0.448-1,1v8c0,0.552,0.448,1,1,1h8
	c0.552,0,1-0.448,1-1v-8c0-0.552-0.448-1-1-1h-3.042C42.535,22.771,36.957,15.839,29,13.683V13H37.101z M42,9c1.654,0,3,1.346,3,3
	s-1.346,3-3,3s-3-1.346-3-3S40.346,9,42,9z M6,15c-1.654,0-3-1.346-3-3s1.346-3,3-3s3,1.346,3,3S7.654,15,6,15z M9,39H3v-6h6V39z
	 M45,39h-6v-6h6V39z M27,15h-6V9h6V15z"/>
</svg>
