<?xml version="1.0" encoding="utf-8"?>
<!-- Generator: Adobe Illustrator 19.2.1, SVG Export Plug-In . SVG Version: 6.00 Build 0)  -->
<!DOCTYPE svg PUBLIC "-//W3C//DTD SVG 1.1//EN" "http://www.w3.org/Graphics/SVG/1.1/DTD/svg11.dtd">
<svg version="1.1" id="Layer_1" xmlns="http://www.w3.org/2000/svg" xmlns:xlink="http://www.w3.org/1999/xlink" x="0px" y="0px"
	 width="48px" height="48px" viewBox="0 0 48 48" enable-background="new 0 0 48 48" xml:space="preserve">
<path d="M5,46V2c0-0.553-0.448-1-1-1S3,1.447,3,2v44c0,0.553,0.448,1,1,1S5,46.553,5,46z"/>
<path d="M45,46V2c0-0.553-0.448-1-1-1s-1,0.447-1,1v44c0,0.553,0.448,1,1,1S45,46.553,45,46z"/>
<path d="M18,9c-0.552,0-1,0.447-1,1v28c0,0.553,0.448,1,1,1h12c0.552,0,1-0.447,1-1V10c0-0.553-0.448-1-1-1H18z M29,37H19V11h10V37z
	"/>
</svg>
