<?xml version="1.0" encoding="utf-8"?>
<!-- Generator: Adobe Illustrator 19.2.1, SVG Export Plug-In . SVG Version: 6.00 Build 0)  -->
<!DOCTYPE svg PUBLIC "-//W3C//DTD SVG 1.1//EN" "http://www.w3.org/Graphics/SVG/1.1/DTD/svg11.dtd">
<svg version="1.1" id="Layer_1" xmlns="http://www.w3.org/2000/svg" xmlns:xlink="http://www.w3.org/1999/xlink" x="0px" y="0px"
	 width="48px" height="48px" viewBox="0 0 48 48" enable-background="new 0 0 48 48" xml:space="preserve">
<path d="M7,46V2c0-0.553-0.448-1-1-1S5,1.447,5,2v44c0,0.553,0.448,1,1,1S7,46.553,7,46z"/>
<path d="M13,10v10c0,0.553,0.448,1,1,1h28c0.552,0,1-0.447,1-1V10c0-0.553-0.448-1-1-1H14C13.448,9,13,9.447,13,10z M15,11h26v8H15
	V11z"/>
<path d="M13,38c0,0.553,0.448,1,1,1h16c0.552,0,1-0.447,1-1V28c0-0.553-0.448-1-1-1H14c-0.552,0-1,0.447-1,1V38z M15,29h14v8H15V29z
	"/>
</svg>
