<?xml version="1.0" encoding="utf-8"?>
<!-- Generator: Adobe Illustrator 19.2.1, SVG Export Plug-In . SVG Version: 6.00 Build 0)  -->
<!DOCTYPE svg PUBLIC "-//W3C//DTD SVG 1.1//EN" "http://www.w3.org/Graphics/SVG/1.1/DTD/svg11.dtd">
<svg version="1.1" id="Layer_1" xmlns="http://www.w3.org/2000/svg" xmlns:xlink="http://www.w3.org/1999/xlink" x="0px" y="0px"
	 width="48px" height="48px" viewBox="0 0 48 48" enable-background="new 0 0 48 48" xml:space="preserve">
<path d="M11,36c0,0.552,0.447,1,1,1h24c0.553,0,1-0.448,1-1V12c0-0.552-0.447-1-1-1H12c-0.553,0-1,0.448-1,1V36z M13,13h22v22H13V13
	z"/>
<path d="M2,13h4c0.553,0,1-0.448,1-1s-0.447-1-1-1H2c-0.553,0-1,0.448-1,1S1.447,13,2,13z"/>
<path d="M2,37h4c0.553,0,1-0.448,1-1s-0.447-1-1-1H2c-0.553,0-1,0.448-1,1S1.447,37,2,37z"/>
<path d="M42,13h4c0.553,0,1-0.448,1-1s-0.447-1-1-1h-4c-0.553,0-1,0.448-1,1S41.447,13,42,13z"/>
<path d="M46,35h-4c-0.553,0-1,0.448-1,1s0.447,1,1,1h4c0.553,0,1-0.448,1-1S46.553,35,46,35z"/>
<path d="M12,7c0.553,0,1-0.448,1-1V2c0-0.552-0.447-1-1-1s-1,0.448-1,1v4C11,6.552,11.447,7,12,7z"/>
<path d="M37,6V2c0-0.552-0.447-1-1-1s-1,0.448-1,1v4c0,0.552,0.447,1,1,1S37,6.552,37,6z"/>
<path d="M11,46c0,0.552,0.447,1,1,1s1-0.448,1-1v-4c0-0.552-0.447-1-1-1s-1,0.448-1,1V46z"/>
<path d="M36,41c-0.553,0-1,0.448-1,1v4c0,0.552,0.447,1,1,1s1-0.448,1-1v-4C37,41.448,36.553,41,36,41z"/>
</svg>
