<?xml version="1.0" encoding="utf-8"?>
<!-- Generator: Adobe Illustrator 19.2.1, SVG Export Plug-In . SVG Version: 6.00 Build 0)  -->
<!DOCTYPE svg PUBLIC "-//W3C//DTD SVG 1.1//EN" "http://www.w3.org/Graphics/SVG/1.1/DTD/svg11.dtd">
<svg version="1.1" id="Layer_1" xmlns="http://www.w3.org/2000/svg" xmlns:xlink="http://www.w3.org/1999/xlink" x="0px" y="0px"
	 width="48px" height="48px" viewBox="0 0 48 48" enable-background="new 0 0 48 48" xml:space="preserve">
<path d="M46,8h-5V5c0-0.553-0.448-1-1-1c-7.839,0-12.97,1.169-16.013,3.665C20.869,5.2,15.623,4,8,4C7.448,4,7,4.447,7,5v3H2
	C1.448,8,1,8.447,1,9v33c0,0.553,0.448,1,1,1h44c0.552,0,1-0.447,1-1V9C47,8.447,46.552,8,46,8z M9,6.007
	c6.848,0.099,11.437,1.23,14,3.444V25c0,0.553,0.448,1,1,1s1-0.447,1-1V9.439c2.465-2.207,7.053-3.336,14-3.432v26
	c-7.224,0.097-12.041,1.269-14.994,3.652C21.094,33.274,16.271,32.104,9,32.007V6.007z M45,41H3V10h4v23c0,0.553,0.448,1,1,1
	c7.796,0,12.798,1.213,15.293,3.707C23.488,37.902,23.744,38,24,38c0.252,0,0.505-0.095,0.7-0.285C27.253,35.215,32.257,34,40,34
	c0.552,0,1-0.447,1-1V10h4V41z"/>
</svg>
