<?xml version="1.0" encoding="utf-8"?>
<!-- Generator: Adobe Illustrator 19.2.1, SVG Export Plug-In . SVG Version: 6.00 Build 0)  -->
<!DOCTYPE svg PUBLIC "-//W3C//DTD SVG 1.1//EN" "http://www.w3.org/Graphics/SVG/1.1/DTD/svg11.dtd">
<svg version="1.1" id="Layer_1" xmlns="http://www.w3.org/2000/svg" xmlns:xlink="http://www.w3.org/1999/xlink" x="0px" y="0px"
	 width="48px" height="48px" viewBox="0 0 48 48" enable-background="new 0 0 48 48" xml:space="preserve">
<path fill="#222221" d="M35.707,1.293C35.52,1.105,35.265,1,35,1H25c-0.552,0-1,0.448-1,1v8H10V2c0-0.552-0.448-1-1-1S8,1.448,8,2
	v35c0,0.553,0.448,1,1,1h15v8c0,0.553,0.448,1,1,1h14c0.552,0,1-0.447,1-1V32c0-0.266-0.105-0.52-0.293-0.707l-4-4
	C35.52,27.105,35.265,27,35,27H25c-0.552,0-1,0.447-1,1v8H10V12h14v8c0,0.552,0.448,1,1,1h14c0.552,0,1-0.448,1-1V6
	c0-0.265-0.105-0.52-0.293-0.707L35.707,1.293z M26,29h8.586L38,32.414V45H26V29z M38,19H26V3h8.586L38,6.414V19z"/>
</svg>
