<?xml version="1.0" encoding="utf-8"?>
<!-- Generator: Adobe Illustrator 19.2.1, SVG Export Plug-In . SVG Version: 6.00 Build 0)  -->
<!DOCTYPE svg PUBLIC "-//W3C//DTD SVG 1.1//EN" "http://www.w3.org/Graphics/SVG/1.1/DTD/svg11.dtd">
<svg version="1.1" id="Layer_1" xmlns="http://www.w3.org/2000/svg" xmlns:xlink="http://www.w3.org/1999/xlink" x="0px" y="0px"
	 width="48px" height="48px" viewBox="0 0 48 48" enable-background="new 0 0 48 48" xml:space="preserve">
<path fill="#222221" d="M46,1H2C1.447,1,1,1.448,1,2v27c0,0.552,0.447,1,1,1h14.07l2.977,9.305c0.119,0.374,0.447,0.644,0.837,0.688
	C19.924,39.998,19.962,40,20,40c0.349,0,0.676-0.182,0.857-0.485l5.317-8.862l13.094,14.029C39.466,44.894,39.732,45,40,45
	c0.244,0,0.489-0.089,0.683-0.269c0.403-0.377,0.425-1.01,0.049-1.413L27.575,29.221l8.94-5.364
	c0.329-0.197,0.516-0.566,0.481-0.948c-0.035-0.382-0.285-0.711-0.645-0.846l-24-9c-0.357-0.133-0.763-0.052-1.041,0.212
	c-0.277,0.264-0.38,0.664-0.263,1.029L15.43,28H3V3h42v25h-6c-0.553,0-1,0.448-1,1s0.447,1,1,1h7c0.553,0,1-0.448,1-1V2
	C47,1.448,46.553,1,46,1z M33.709,23.208l-8.224,4.934c-0.025,0.015-0.037,0.043-0.06,0.06c-0.035,0.025-0.076,0.036-0.108,0.066
	c-0.045,0.042-0.068,0.097-0.104,0.145c-0.02,0.027-0.054,0.042-0.071,0.071l-4.863,8.106l-6.698-20.93L33.709,23.208z"/>
</svg>
