<?xml version="1.0" encoding="utf-8"?>
<!-- Generator: Adobe Illustrator 19.2.1, SVG Export Plug-In . SVG Version: 6.00 Build 0)  -->
<!DOCTYPE svg PUBLIC "-//W3C//DTD SVG 1.1//EN" "http://www.w3.org/Graphics/SVG/1.1/DTD/svg11.dtd">
<svg version="1.1" id="Layer_1" xmlns="http://www.w3.org/2000/svg" xmlns:xlink="http://www.w3.org/1999/xlink" x="0px" y="0px"
	 width="48px" height="48px" viewBox="0 0 48 48" enable-background="new 0 0 48 48" xml:space="preserve">
<path d="M46,39h-5V16.414l3.707-3.707c1.493-1.492,1.493-3.922,0-5.414c-1.013-1.013-2.455-1.321-3.746-0.958
	C40.629,3.338,38.083,1,35,1H7C3.691,1,1,3.691,1,7v1c0,0.553,0.448,1,1,1h9v32c0,3.309,2.691,6,6,6h23h1c3.309,0,6-2.691,6-6v-1
	C47,39.447,46.552,39,46,39z M43.293,8.707c0.713,0.713,0.713,1.873,0,2.586l-3.999,3.999c-0.001,0.001-0.001,0.001-0.002,0.002
	L32,22.586L29.414,20L40.706,8.708c0,0,0.001-0.001,0.001-0.001C41.42,7.994,42.58,7.994,43.293,8.707z M3,7c0-2.206,1.794-4,4-4
	s4,1.794,4,4H3z M13,41V8V7c0-0.362-0.038-0.715-0.099-1.059c-0.005-0.031-0.008-0.062-0.014-0.092
	c-0.064-0.327-0.158-0.642-0.273-0.947c-0.016-0.042-0.029-0.084-0.046-0.125c-0.118-0.295-0.261-0.577-0.423-0.847
	c-0.026-0.043-0.051-0.086-0.078-0.128c-0.167-0.264-0.354-0.513-0.559-0.747C11.494,3.037,11.483,3.017,11.468,3H35
	c2.206,0,4,1.794,4,4v0.586L27.293,19.293c-0.391,0.391-0.391,1.023,0,1.414l4,4C31.488,24.902,31.744,25,32,25
	s0.512-0.098,0.707-0.293L39,18.414V39H22c-0.552,0-1,0.447-1,1v1c0,3.326-3.5,3.925-4.034,3.997C14.777,44.978,13,43.195,13,41z
	 M41,45h-1H21.412C22.335,44.073,23,42.773,23,41h22C45,43.206,43.206,45,41,45z"/>
<path d="M19.977,32.996c0.129,0.003,0.326,0.007,0.576,0.007c1.67,0,5.684-0.168,7.229-1.714c1.949-1.949,1.949-5.122,0-7.071
	s-5.122-1.948-7.071,0c-1.776,1.776-1.733,6.813-1.707,7.805C19.019,32.554,19.446,32.981,19.977,32.996z M22.125,25.632
	c1.169-1.17,3.072-1.171,4.243,0c1.169,1.17,1.169,3.073,0,4.243c-0.742,0.742-3.315,1.076-5.365,1.122
	C21.049,28.948,21.383,26.374,22.125,25.632z"/>
</svg>
