<?xml version="1.0" encoding="utf-8"?>
<!-- Generator: Adobe Illustrator 19.2.1, SVG Export Plug-In . SVG Version: 6.00 Build 0)  -->
<!DOCTYPE svg PUBLIC "-//W3C//DTD SVG 1.1//EN" "http://www.w3.org/Graphics/SVG/1.1/DTD/svg11.dtd">
<svg version="1.1" id="Layer_1" xmlns="http://www.w3.org/2000/svg" xmlns:xlink="http://www.w3.org/1999/xlink" x="0px" y="0px"
	 width="48px" height="48px" viewBox="0 0 48 48" enable-background="new 0 0 48 48" xml:space="preserve">
<path d="M46,41H2c-0.553,0-1,0.447-1,1s0.447,1,1,1h44c0.553,0,1-0.447,1-1S46.553,41,46,41z"/>
<path d="M10,5C9.447,5,9,5.447,9,6v28c0,0.553,0.447,1,1,1h10c0.553,0,1-0.447,1-1V6c0-0.553-0.447-1-1-1H10z M19,33h-8V7h8V33z"/>
<path d="M28,17c-0.553,0-1,0.447-1,1v16c0,0.553,0.447,1,1,1h10c0.553,0,1-0.447,1-1V18c0-0.553-0.447-1-1-1H28z M37,33h-8V19h8V33z
	"/>
</svg>
