<?xml version="1.0" encoding="utf-8"?>
<!-- Generator: Adobe Illustrator 19.2.1, SVG Export Plug-In . SVG Version: 6.00 Build 0)  -->
<!DOCTYPE svg PUBLIC "-//W3C//DTD SVG 1.1//EN" "http://www.w3.org/Graphics/SVG/1.1/DTD/svg11.dtd">
<svg version="1.1" id="Layer_1" xmlns="http://www.w3.org/2000/svg" xmlns:xlink="http://www.w3.org/1999/xlink" x="0px" y="0px"
	 width="48px" height="48px" viewBox="0 0 48 48" enable-background="new 0 0 48 48" xml:space="preserve">
<path d="M12,37h10c0.404,0,0.769-0.244,0.924-0.617c0.155-0.374,0.069-0.804-0.217-1.09l-10-10c-0.287-0.287-0.716-0.372-1.09-0.217
	C11.244,25.231,11,25.596,11,26v10C11,36.552,11.448,37,12,37z M13,28.414L19.586,35H13V28.414z"/>
<path d="M2,45h40c0.404,0,0.769-0.244,0.924-0.617c0.155-0.374,0.069-0.804-0.217-1.09l-40-40C2.42,3.006,1.991,2.92,1.617,3.076
	C1.244,3.231,1,3.596,1,4v40C1,44.552,1.448,45,2,45z M39.586,43H3v-6h3c0.552,0,1-0.448,1-1s-0.448-1-1-1H3v-6h3
	c0.552,0,1-0.448,1-1s-0.448-1-1-1H3v-6h3c0.552,0,1-0.448,1-1s-0.448-1-1-1H3V6.414L39.586,43z"/>
</svg>
