<?xml version="1.0" encoding="utf-8"?>
<!-- Generator: Adobe Illustrator 19.2.1, SVG Export Plug-In . SVG Version: 6.00 Build 0)  -->
<!DOCTYPE svg PUBLIC "-//W3C//DTD SVG 1.1//EN" "http://www.w3.org/Graphics/SVG/1.1/DTD/svg11.dtd">
<svg version="1.1" id="Layer_1" xmlns="http://www.w3.org/2000/svg" xmlns:xlink="http://www.w3.org/1999/xlink" x="0px" y="0px"
	 width="48px" height="48px" viewBox="0 0 48 48" enable-background="new 0 0 48 48" xml:space="preserve">
<path d="M5,14v32c0,0.553,0.447,1,1,1h36c0.553,0,1-0.447,1-1V14c0-0.553-0.447-1-1-1H6C5.447,13,5,13.447,5,14z M7,15h34v30H7V15z"
	/>
<path d="M9,8c0,0.553,0.447,1,1,1h28c0.553,0,1-0.447,1-1s-0.447-1-1-1H10C9.447,7,9,7.447,9,8z"/>
<path d="M32,3c0.553,0,1-0.447,1-1s-0.447-1-1-1H16c-0.553,0-1,0.447-1,1s0.447,1,1,1H32z"/>
</svg>
