<?xml version="1.0" encoding="utf-8"?>
<!-- Generator: Adobe Illustrator 19.2.1, SVG Export Plug-In . SVG Version: 6.00 Build 0)  -->
<!DOCTYPE svg PUBLIC "-//W3C//DTD SVG 1.1//EN" "http://www.w3.org/Graphics/SVG/1.1/DTD/svg11.dtd">
<svg version="1.1" id="Layer_1" xmlns="http://www.w3.org/2000/svg" xmlns:xlink="http://www.w3.org/1999/xlink" x="0px" y="0px"
	 width="48px" height="48px" viewBox="0 0 48 48" enable-background="new 0 0 48 48" xml:space="preserve">
<path fill="#222221" d="M2,21h18c0.552,0,1-0.448,1-1V2c0-0.552-0.448-1-1-1H2C1.448,1,1,1.448,1,2v18C1,20.552,1.448,21,2,21z M3,3
	h16v16H3V3z"/>
<path fill="#222221" d="M27.707,12.707L35,5.414V46c0,0.552,0.448,1,1,1s1-0.448,1-1V5.414l7.293,7.293
	C44.488,12.902,44.744,13,45,13s0.512-0.098,0.707-0.293c0.391-0.391,0.391-1.023,0-1.414l-9-9
	c-0.092-0.092-0.203-0.165-0.325-0.216c-0.245-0.101-0.52-0.101-0.764,0c-0.122,0.051-0.233,0.124-0.325,0.216l-9,9
	c-0.391,0.391-0.391,1.023,0,1.414S27.316,13.098,27.707,12.707z"/>
<path fill="#222221" d="M2,47h5c0.552,0,1-0.448,1-1s-0.448-1-1-1H3v-4c0-0.552-0.448-1-1-1s-1,0.448-1,1v5C1,46.552,1.448,47,2,47z
	"/>
<path fill="#222221" d="M21,28c0-0.552-0.448-1-1-1h-5c-0.552,0-1,0.448-1,1s0.448,1,1,1h4v4c0,0.552,0.448,1,1,1s1-0.448,1-1V28z"
	/>
<path fill="#222221" d="M20,40c-0.552,0-1,0.448-1,1v4h-4c-0.552,0-1,0.448-1,1s0.448,1,1,1h5c0.552,0,1-0.448,1-1v-5
	C21,40.448,20.552,40,20,40z"/>
<path fill="#222221" d="M2,34c0.552,0,1-0.448,1-1v-4h4c0.552,0,1-0.448,1-1s-0.448-1-1-1H2c-0.552,0-1,0.448-1,1v5
	C1,33.552,1.448,34,2,34z"/>
</svg>
