<?xml version="1.0" encoding="utf-8"?>
<!-- Generator: Adobe Illustrator 19.2.1, SVG Export Plug-In . SVG Version: 6.00 Build 0)  -->
<!DOCTYPE svg PUBLIC "-//W3C//DTD SVG 1.1//EN" "http://www.w3.org/Graphics/SVG/1.1/DTD/svg11.dtd">
<svg version="1.1" id="Layer_1" xmlns="http://www.w3.org/2000/svg" xmlns:xlink="http://www.w3.org/1999/xlink" x="0px" y="0px"
	 width="48px" height="48px" viewBox="0 0 48 48" enable-background="new 0 0 48 48" xml:space="preserve">
<path fill="#222221" d="M44.959,14.545C41.345,6.567,33.313,1,24,1C16.381,1,9.619,4.726,5.432,10.449
	c-0.046,0.052-0.083,0.106-0.117,0.164C2.603,14.387,1,19.009,1,24c0,11.912,9.103,21.737,20.718,22.886
	c0.012,0,0.023,0.005,0.035,0.005c0.003,0,0.006-0.001,0.009-0.001C22.499,46.961,23.245,47,24,47c12.683,0,23-10.317,23-23
	c0-3.322-0.713-6.478-1.986-9.332C44.999,14.625,44.98,14.586,44.959,14.545z M24,3c7.961,0,14.902,4.454,18.462,11H24
	c-5.111,0-9.333,3.857-9.923,8.813L7.38,11.213C11.223,6.23,17.235,3,24,3z M32,24c0,4.411-3.589,8-8,8s-8-3.589-8-8s3.589-8,8-8
	S32,19.589,32,24z M3,24c0-4.02,1.156-7.767,3.123-10.963L15.34,29c0.018,0.031,0.043,0.053,0.063,0.081
	C17.146,32.02,20.343,34,24,34c1.395,0,2.723-0.289,3.93-0.807l-6.699,11.603C10.959,43.433,3,34.638,3,24z M24,45
	c-0.189,0-0.373-0.023-0.561-0.028L32.66,29c0.009-0.016,0.008-0.033,0.017-0.049C33.514,27.489,34,25.802,34,24
	c0-3.273-1.588-6.175-4.026-8h13.434C44.429,18.468,45,21.168,45,24C45,35.579,35.579,45,24,45z"/>
</svg>
