<?xml version="1.0" encoding="utf-8"?>
<!-- Generator: Adobe Illustrator 19.2.1, SVG Export Plug-In . SVG Version: 6.00 Build 0)  -->
<!DOCTYPE svg PUBLIC "-//W3C//DTD SVG 1.1//EN" "http://www.w3.org/Graphics/SVG/1.1/DTD/svg11.dtd">
<svg version="1.1" id="Layer_1" xmlns="http://www.w3.org/2000/svg" xmlns:xlink="http://www.w3.org/1999/xlink" x="0px" y="0px"
	 width="48px" height="48px" viewBox="0 0 48 48" enable-background="new 0 0 48 48" xml:space="preserve">
<path d="M11.445,32.832L23,40.535V46c0,0.553,0.447,1,1,1s1-0.447,1-1v-3.465l11.555-7.703C36.833,34.646,37,34.334,37,34v-5h3
	c0.553,0,1-0.447,1-1v-8c0-0.553-0.447-1-1-1h-8c-0.553,0-1,0.447-1,1v8c0,0.553,0.447,1,1,1h3v4.465l-10,6.667V5.414l4.293,4.293
	C29.488,9.902,29.744,10,30,10s0.512-0.098,0.707-0.293c0.391-0.391,0.391-1.023,0-1.414l-5.999-5.999
	c-0.092-0.093-0.203-0.166-0.327-0.217c-0.244-0.101-0.519-0.101-0.764,0c-0.123,0.051-0.234,0.125-0.326,0.217l-5.999,5.999
	c-0.391,0.391-0.391,1.023,0,1.414s1.023,0.391,1.414,0L23,5.414v32.717l-10-6.667v-6.566c2.279-0.465,4-2.484,4-4.899
	c0-2.757-2.243-5-5-5s-5,2.243-5,5c0,2.414,1.721,4.434,4,4.899V32C11,32.334,11.167,32.646,11.445,32.832z M33,21h6v6h-6V21z M9,20
	c0-1.654,1.346-3,3-3s3,1.346,3,3s-1.346,3-3,3S9,21.654,9,20z"/>
</svg>
