<?xml version="1.0" encoding="utf-8"?>
<!-- Generator: Adobe Illustrator 19.2.1, SVG Export Plug-In . SVG Version: 6.00 Build 0)  -->
<!DOCTYPE svg PUBLIC "-//W3C//DTD SVG 1.1//EN" "http://www.w3.org/Graphics/SVG/1.1/DTD/svg11.dtd">
<svg version="1.1" id="Layer_1" xmlns="http://www.w3.org/2000/svg" xmlns:xlink="http://www.w3.org/1999/xlink" x="0px" y="0px"
	 width="48px" height="48px" viewBox="0 0 48 48" enable-background="new 0 0 48 48" xml:space="preserve">
<path d="M44,13c0.553,0,1-0.448,1-1V4c0-0.552-0.447-1-1-1h-8c-0.553,0-1,0.448-1,1v3H13V4c0-0.552-0.447-1-1-1H4
	C3.447,3,3,3.448,3,4v8c0,0.552,0.447,1,1,1h3v22H4c-0.553,0-1,0.448-1,1v8c0,0.552,0.447,1,1,1h8c0.553,0,1-0.448,1-1v-3h22v3
	c0,0.552,0.447,1,1,1h8c0.553,0,1-0.448,1-1v-8c0-0.552-0.447-1-1-1h-3V13H44z M37,5h6v6h-6V5z M5,5h6v6H5V5z M11,43H5v-6h6V43z
	 M43,43h-6v-6h6V43z M39,35h-3c-0.553,0-1,0.448-1,1v3H13v-3c0-0.552-0.447-1-1-1H9V13h3c0.553,0,1-0.448,1-1V9h22v3
	c0,0.552,0.447,1,1,1h3V35z"/>
</svg>
