<?xml version="1.0" encoding="utf-8"?>
<!-- Generator: Adobe Illustrator 19.2.1, SVG Export Plug-In . SVG Version: 6.00 Build 0)  -->
<!DOCTYPE svg PUBLIC "-//W3C//DTD SVG 1.1//EN" "http://www.w3.org/Graphics/SVG/1.1/DTD/svg11.dtd">
<svg version="1.1" id="Layer_1" xmlns="http://www.w3.org/2000/svg" xmlns:xlink="http://www.w3.org/1999/xlink" x="0px" y="0px"
	 width="48px" height="48px" viewBox="0 0 48 48" enable-background="new 0 0 48 48" xml:space="preserve">
<path d="M41,24V2c0-0.552-0.447-1-1-1h-6c-0.358,0-0.69,0.192-0.868,0.504L30,6.984l-3.132-5.48C26.69,1.192,26.358,1,26,1H8
	C7.447,1,7,1.448,7,2v22c0,3.86,3.141,7,7,7h5v11c0,2.757,2.243,5,5,5s5-2.243,5-5V31h5C37.859,31,41,27.86,41,24z M25.42,3
	l3.712,6.496c0.355,0.623,1.381,0.623,1.736,0L34.58,3H39v18H9V3H25.42z M28,29c-0.553,0-1,0.448-1,1v12c0,1.654-1.346,3-3,3
	s-3-1.346-3-3V30c0-0.552-0.447-1-1-1h-6c-2.757,0-5-2.243-5-5v-1h30v1c0,2.757-2.243,5-5,5H28z"/>
</svg>
