<?xml version="1.0" encoding="utf-8"?>
<!-- Generator: Adobe Illustrator 19.2.1, SVG Export Plug-In . SVG Version: 6.00 Build 0)  -->
<!DOCTYPE svg PUBLIC "-//W3C//DTD SVG 1.1//EN" "http://www.w3.org/Graphics/SVG/1.1/DTD/svg11.dtd">
<svg version="1.1" id="Layer_1" xmlns="http://www.w3.org/2000/svg" xmlns:xlink="http://www.w3.org/1999/xlink" x="0px" y="0px"
	 width="48px" height="48px" viewBox="0 0 48 48" enable-background="new 0 0 48 48" xml:space="preserve">
<path d="M3.068,44.351c0.008,0.02,0.018,0.038,0.027,0.058c0.049,0.109,0.111,0.211,0.198,0.298
	c0.095,0.095,0.207,0.168,0.328,0.218C3.742,44.974,3.871,45,4,45c0.05,0,0.102-0.004,0.152-0.012l26-4
	c0.357-0.055,0.658-0.298,0.785-0.637l5.455-14.546l2.902,2.902C39.488,28.902,39.744,29,40,29s0.512-0.098,0.707-0.293l4-4
	c0.391-0.391,0.391-1.023,0-1.414l-20-20c-0.391-0.391-1.023-0.391-1.414,0l-4,4c-0.391,0.391-0.391,1.023,0,1.414l2.902,2.902
	L7.649,17.063c-0.339,0.127-0.583,0.427-0.637,0.785l-4,26c-0.006,0.037-0.002,0.074-0.004,0.111
	c-0.001,0.023-0.003,0.045-0.002,0.069C3.009,44.14,3.029,44.248,3.068,44.351z M24,5.414L42.586,24L40,26.586L21.414,8L24,5.414z
	 M8.899,18.731l14.849-5.568l11.089,11.089l-5.568,14.849L6.867,42.547l10.376-10.376c0.833,0.551,1.795,0.826,2.757,0.826
	c1.28,0,2.561-0.487,3.536-1.462c1.949-1.95,1.949-5.122,0-7.071c-1.949-1.949-5.122-1.95-7.071,0
	c-1.707,1.708-1.919,4.352-0.635,6.293L5.453,41.133L8.899,18.731z M22.122,30.122c-1.17,1.169-3.073,1.169-4.243,0
	c-1.169-1.17-1.169-3.073,0-4.243c0.585-0.584,1.353-0.877,2.122-0.877c0.768,0,1.537,0.292,2.122,0.877
	C23.291,27.048,23.291,28.952,22.122,30.122z"/>
</svg>
