<?xml version="1.0" encoding="utf-8"?>
<!-- Generator: Adobe Illustrator 19.2.1, SVG Export Plug-In . SVG Version: 6.00 Build 0)  -->
<!DOCTYPE svg PUBLIC "-//W3C//DTD SVG 1.1//EN" "http://www.w3.org/Graphics/SVG/1.1/DTD/svg11.dtd">
<svg version="1.1" id="Layer_1" xmlns="http://www.w3.org/2000/svg" xmlns:xlink="http://www.w3.org/1999/xlink" x="0px" y="0px"
	 width="48px" height="48px" viewBox="0 0 48 48" enable-background="new 0 0 48 48" xml:space="preserve">
<path d="M3.293,33.293c-0.391,0.391-0.391,1.023,0,1.414l10,10C13.488,44.902,13.744,45,14,45s0.512-0.098,0.707-0.293L25,34.414
	l8.293,8.293c0.085,0.085,0.187,0.147,0.295,0.196c0.034,0.015,0.067,0.025,0.101,0.036c0.038,0.013,0.074,0.033,0.114,0.041l10,2
	C43.869,44.994,43.935,45,44,45c0.263,0,0.518-0.104,0.707-0.293c0.236-0.236,0.339-0.575,0.273-0.903l-2-10
	c-0.008-0.04-0.028-0.076-0.041-0.114c-0.011-0.035-0.021-0.068-0.036-0.101c-0.049-0.108-0.111-0.21-0.196-0.295L34.414,25
	l10.293-10.293c0.391-0.391,0.391-1.023,0-1.414l-10-10c-0.391-0.391-1.023-0.391-1.414,0L23,13.586L12.707,3.293
	c-0.391-0.391-1.023-0.391-1.414,0l-8,8c-0.391,0.391-0.391,1.023,0,1.414L13.586,23L3.293,33.293z M36.028,41.386l5.357-5.357
	l1.339,6.697L36.028,41.386z M40.586,34L34,40.586L26.414,33L33,26.414L40.586,34z M34,5.414L42.586,14L14,42.586L5.414,34
	L10,29.414l1.293,1.293C11.488,30.902,11.744,31,12,31s0.512-0.098,0.707-0.293c0.391-0.391,0.391-1.023,0-1.414L11.414,28
	L16,23.414l3.293,3.293C19.488,26.902,19.744,27,20,27s0.512-0.098,0.707-0.293c0.391-0.391,0.391-1.023,0-1.414L17.414,22
	L22,17.414l1.293,1.293C23.488,18.902,23.744,19,24,19s0.512-0.098,0.707-0.293c0.391-0.391,0.391-1.023,0-1.414L23.414,16
	L28,11.414l3.293,3.293C31.488,14.902,31.744,15,32,15s0.512-0.098,0.707-0.293c0.391-0.391,0.391-1.023,0-1.414L29.414,10L34,5.414
	z M12,5.414L14.586,8L8,14.586L5.414,12L12,5.414z M9.414,16L16,9.414L21.586,15L15,21.586L9.414,16z"/>
</svg>
