<?xml version="1.0" encoding="utf-8"?>
<!-- Generator: Adobe Illustrator 19.2.1, SVG Export Plug-In . SVG Version: 6.00 Build 0)  -->
<!DOCTYPE svg PUBLIC "-//W3C//DTD SVG 1.1//EN" "http://www.w3.org/Graphics/SVG/1.1/DTD/svg11.dtd">
<svg version="1.1" id="Layer_1" xmlns="http://www.w3.org/2000/svg" xmlns:xlink="http://www.w3.org/1999/xlink" x="0px" y="0px"
	 width="48px" height="48px" viewBox="0 0 48 48" enable-background="new 0 0 48 48" xml:space="preserve">
<path d="M46,23h-7v-7c0-0.553-0.447-1-1-1H28c-0.553,0-1,0.447-1,1v7h-6V10c0-0.553-0.447-1-1-1H10c-0.553,0-1,0.447-1,1v13H2
	c-0.553,0-1,0.447-1,1s0.447,1,1,1h7v13c0,0.553,0.447,1,1,1h10c0.553,0,1-0.447,1-1V25h6v7c0,0.553,0.447,1,1,1h10
	c0.553,0,1-0.447,1-1v-7h7c0.553,0,1-0.447,1-1S46.553,23,46,23z M19,37h-8V11h8V37z M37,31h-8V17h8V31z"/>
</svg>
