<?xml version="1.0" encoding="utf-8"?>
<!-- Generator: Adobe Illustrator 19.2.1, SVG Export Plug-In . SVG Version: 6.00 Build 0)  -->
<!DOCTYPE svg PUBLIC "-//W3C//DTD SVG 1.1//EN" "http://www.w3.org/Graphics/SVG/1.1/DTD/svg11.dtd">
<svg version="1.1" id="Layer_1" xmlns="http://www.w3.org/2000/svg" xmlns:xlink="http://www.w3.org/1999/xlink" x="0px" y="0px"
	 width="48px" height="48px" viewBox="0 0 48 48" enable-background="new 0 0 48 48" xml:space="preserve">
<path d="M7.251,40.749c3.314,3.313,7.668,4.971,12.021,4.971c4.354,0,8.707-1.657,12.021-4.971l8.484-8.484
	c0,0,0.001-0.001,0.002-0.001s0.001-0.001,0.001-0.002l5.655-5.655c0.391-0.391,0.391-1.023,0-1.414l-5.656-5.657
	c-0.188-0.188-0.441-0.293-0.707-0.293s-0.52,0.105-0.707,0.293L24.222,33.678c-1.32,1.32-3.077,2.047-4.949,2.047
	s-3.63-0.727-4.95-2.047s-2.047-3.078-2.047-4.95s0.727-3.629,2.047-4.949L28.465,9.636c0.188-0.188,0.293-0.441,0.293-0.707
	s-0.105-0.52-0.293-0.707l-5.657-5.656c-0.391-0.391-1.023-0.391-1.414,0l-5.655,5.655c0,0-0.001,0.001-0.002,0.001
	s-0.001,0.001-0.001,0.002l-8.484,8.484C0.623,23.335,0.623,34.121,7.251,40.749z M39.071,21.656l4.242,4.243l-4.242,4.243
	l-4.243-4.243L39.071,21.656z M22.101,4.687l4.243,4.242l-4.243,4.243l-4.243-4.243L22.101,4.687z M8.665,18.121l7.779-7.778
	l4.243,4.243l-7.778,7.778c-1.698,1.697-2.633,3.957-2.633,6.363s0.935,4.666,2.633,6.364s3.958,2.633,6.364,2.633
	s4.666-0.935,6.363-2.633l7.778-7.778l4.243,4.243l-7.778,7.779c-5.849,5.848-15.365,5.85-21.214,0
	C2.817,33.486,2.817,23.97,8.665,18.121z"/>
</svg>
