<?xml version="1.0" encoding="utf-8"?>
<!-- Generator: Adobe Illustrator 19.2.1, SVG Export Plug-In . SVG Version: 6.00 Build 0)  -->
<!DOCTYPE svg PUBLIC "-//W3C//DTD SVG 1.1//EN" "http://www.w3.org/Graphics/SVG/1.1/DTD/svg11.dtd">
<svg version="1.1" id="Layer_1" xmlns="http://www.w3.org/2000/svg" xmlns:xlink="http://www.w3.org/1999/xlink" x="0px" y="0px"
	 width="48px" height="48px" viewBox="0 0 48 48" enable-background="new 0 0 48 48" xml:space="preserve">
<path d="M46,8h-5V4c0-1.103-0.897-2-2-2H24c-1.103,0-2,0.897-2,2v4H2C1.447,8,1,8.447,1,9v29c0,0.553,0.447,1,1,1h5v5
	c0,1.103,0.897,2,2,2h9c1.103,0,2-0.897,2-2v-5h26c0.553,0,1-0.447,1-1V9C47,8.447,46.553,8,46,8z M24,4h15l0.001,4.997
	C39.001,8.998,39,8.999,39,9s0.001,0.002,0.001,0.003L39.002,22H24V4z M9,44V30h9l0.001,7.994C18.001,37.996,18,37.998,18,38
	s0.001,0.004,0.001,0.006L18.002,44H9z M45,37H20v-7c0-1.103-0.897-2-2-2H9c-1.103,0-2,0.897-2,2v7H3V10h19v12c0,1.103,0.897,2,2,2
	h15c1.103,0,2-0.897,2-2V10h4V37z"/>
<path d="M29,42h-6c-0.553,0-1,0.447-1,1s0.447,1,1,1h6c0.553,0,1-0.447,1-1S29.553,42,29,42z"/>
<path d="M14,39h-1c-0.553,0-1,0.447-1,1s0.447,1,1,1h1c0.553,0,1-0.447,1-1S14.553,39,14,39z"/>
<path d="M30,19h3c0.553,0,1-0.447,1-1s-0.447-1-1-1h-3c-0.553,0-1,0.447-1,1S29.447,19,30,19z"/>
</svg>
