<?xml version="1.0" encoding="utf-8"?>
<!-- Generator: Adobe Illustrator 19.2.1, SVG Export Plug-In . SVG Version: 6.00 Build 0)  -->
<!DOCTYPE svg PUBLIC "-//W3C//DTD SVG 1.1//EN" "http://www.w3.org/Graphics/SVG/1.1/DTD/svg11.dtd">
<svg version="1.1" id="Layer_1" xmlns="http://www.w3.org/2000/svg" xmlns:xlink="http://www.w3.org/1999/xlink" x="0px" y="0px"
	 width="48px" height="48px" viewBox="0 0 48 48" enable-background="new 0 0 48 48" xml:space="preserve">
<path d="M37.486,3.443l-23.73,22.315c-0.088,0.088-0.158,0.19-0.241,0.283c-2.624-0.219-5.324,0.668-7.328,2.671
	c-3.399,3.399-4.116,14.93-4.187,16.233c-0.015,0.284,0.091,0.561,0.292,0.761C2.481,45.895,2.735,46,3,46
	c0.018,0,0.036,0,0.054-0.001c1.303-0.07,12.833-0.787,16.233-4.187c1.999-1.999,2.886-4.691,2.672-7.309
	c0.101-0.089,0.202-0.18,0.305-0.282l22.271-23.685c1.949-1.95,1.949-5.122,0-7.071C42.586,1.515,39.414,1.516,37.486,3.443z
	 M17.873,40.398c-2.187,2.186-9.872,3.214-13.798,3.527C4.387,40,5.414,32.315,7.602,30.127c2.832-2.832,7.439-2.831,10.271,0
	C20.705,32.959,20.705,37.566,17.873,40.398z M43.1,9.144l-21.646,23.02c-0.445-1.26-1.161-2.445-2.167-3.451
	c-1.006-1.006-2.19-1.721-3.45-2.167L38.878,4.878c1.169-1.169,3.072-1.169,4.243,0C44.291,6.048,44.291,7.952,43.1,9.144z"/>
</svg>
