<?xml version="1.0" encoding="utf-8"?>
<!-- Generator: Adobe Illustrator 19.2.1, SVG Export Plug-In . SVG Version: 6.00 Build 0)  -->
<!DOCTYPE svg PUBLIC "-//W3C//DTD SVG 1.1//EN" "http://www.w3.org/Graphics/SVG/1.1/DTD/svg11.dtd">
<svg version="1.1" id="Layer_1" xmlns="http://www.w3.org/2000/svg" xmlns:xlink="http://www.w3.org/1999/xlink" x="0px" y="0px"
	 width="48px" height="48px" viewBox="0 0 48 48" enable-background="new 0 0 48 48" xml:space="preserve">
<path d="M33.707,2.293c-0.391-0.391-1.023-0.391-1.414,0l-26,26c-0.391,0.391-0.391,1.023,0,1.414L9.586,33l-6.293,6.293
	c-0.245,0.245-0.346,0.6-0.266,0.937c0.08,0.337,0.328,0.609,0.657,0.719l6,2C9.788,42.983,9.894,43,10,43
	c0.261,0,0.517-0.103,0.707-0.293L15,38.414l3.293,3.293C18.488,41.902,18.744,42,19,42s0.512-0.098,0.707-0.293l26-26
	c0.391-0.391,0.391-1.023,0-1.414L33.707,2.293z M39.586,11L28,22.586L25.414,20L37,8.414L39.586,11z M9.73,40.856l-3.879-1.293
	L11,34.414L13.586,37L9.73,40.856z M19,39.586L8.414,29L33,4.414L35.586,7L23.293,19.293c-0.391,0.391-0.391,1.023,0,1.414l4,4
	C27.488,24.902,27.744,25,28,25s0.512-0.098,0.707-0.293L41,12.414L43.586,15L19,39.586z"/>
</svg>
