<?xml version="1.0" encoding="utf-8"?>
<!-- Generator: Adobe Illustrator 19.2.1, SVG Export Plug-In . SVG Version: 6.00 Build 0)  -->
<!DOCTYPE svg PUBLIC "-//W3C//DTD SVG 1.1//EN" "http://www.w3.org/Graphics/SVG/1.1/DTD/svg11.dtd">
<svg version="1.1" id="Layer_1" xmlns="http://www.w3.org/2000/svg" xmlns:xlink="http://www.w3.org/1999/xlink" x="0px" y="0px"
	 width="48px" height="48px" viewBox="0 0 48 48" enable-background="new 0 0 48 48" xml:space="preserve">
<path d="M24,47c10.247,0,19.348-6.878,22.143-16.758c0.323-1.301,2.908-12.834-5.711-17.144c-5.528-2.646-10.561-1.053-14.606,0.227
	c-3.6,1.14-5.704,1.703-7.025,0.075c-0.402-0.537-0.091-1.572,0.237-2.668c0.482-1.608,1.083-3.609-0.242-5.337
	c-1.709-2.243-5.522-1.924-8.023-0.212C4.653,9.491,1,16.526,1,24C1,36.682,11.318,47,24,47z M11.913,6.825
	c0.924-0.633,2.164-1.02,3.246-1.02c0.86,0,1.621,0.244,2.047,0.803c0.657,0.857,0.406,1.912-0.085,3.548
	c-0.436,1.453-0.93,3.099,0.102,4.473c2.269,2.8,5.638,1.732,9.206,0.603c3.901-1.235,8.324-2.636,13.124-0.337
	c7.211,3.605,4.932,13.723,4.657,14.834C41.667,38.72,33.356,45,24,45C12.42,45,3,35.58,3,24C3,17.176,6.336,10.752,11.913,6.825z"
	/>
<path d="M34,29c2.757,0,5-2.243,5-5s-2.243-5-5-5s-5,2.243-5,5S31.243,29,34,29z M34,21c1.654,0,3,1.346,3,3s-1.346,3-3,3
	s-3-1.346-3-3S32.346,21,34,21z"/>
<path d="M13,24c0-1.654-1.346-3-3-3s-3,1.346-3,3s1.346,3,3,3S13,25.654,13,24z M9,24c0-0.551,0.449-1,1-1s1,0.449,1,1s-0.449,1-1,1
	S9,24.551,9,24z"/>
<path d="M12,34c0,1.654,1.346,3,3,3s3-1.346,3-3s-1.346-3-3-3S12,32.346,12,34z M15,33c0.551,0,1,0.449,1,1s-0.449,1-1,1
	s-1-0.449-1-1S14.449,33,15,33z"/>
<path d="M26,41c1.654,0,3-1.346,3-3s-1.346-3-3-3s-3,1.346-3,3S24.346,41,26,41z M26,37c0.551,0,1,0.449,1,1s-0.449,1-1,1
	s-1-0.449-1-1S25.449,37,26,37z"/>
</svg>
