<?xml version="1.0" encoding="utf-8"?>
<!-- Generator: Adobe Illustrator 19.2.1, SVG Export Plug-In . SVG Version: 6.00 Build 0)  -->
<!DOCTYPE svg PUBLIC "-//W3C//DTD SVG 1.1//EN" "http://www.w3.org/Graphics/SVG/1.1/DTD/svg11.dtd">
<svg version="1.1" id="Layer_1" xmlns="http://www.w3.org/2000/svg" xmlns:xlink="http://www.w3.org/1999/xlink" x="0px" y="0px"
	 width="48px" height="48px" viewBox="0 0 48 48" enable-background="new 0 0 48 48" xml:space="preserve">
<path d="M38.465,9l3.703,5.555C42.354,14.833,42.666,15,43,15h2c0.552,0,1-0.448,1-1V2c0-0.552-0.448-1-1-1H3C2.448,1,2,1.448,2,2
	v12c0,0.552,0.448,1,1,1h2c0.334,0,0.646-0.167,0.832-0.445L9.535,9H19v30.465l-5.555,3.703C13.167,43.354,13,43.666,13,44v2
	c0,0.552,0.448,1,1,1h20c0.552,0,1-0.448,1-1v-2c0-0.334-0.167-0.646-0.445-0.832L29,39.465V9H38.465z M27.445,40.832L33,44.535V45
	H15v-0.465l5.555-3.703C20.833,40.646,21,40.334,21,40V8c0-0.552-0.448-1-1-1H9C8.666,7,8.354,7.167,8.168,7.445L4.465,13H4V3h40v10
	h-0.465l-3.703-5.555C39.646,7.167,39.334,7,39,7H28c-0.552,0-1,0.448-1,1v32C27,40.334,27.167,40.646,27.445,40.832z"/>
</svg>
