<?xml version="1.0" encoding="utf-8"?>
<!-- Generator: Adobe Illustrator 19.2.1, SVG Export Plug-In . SVG Version: 6.00 Build 0)  -->
<!DOCTYPE svg PUBLIC "-//W3C//DTD SVG 1.1//EN" "http://www.w3.org/Graphics/SVG/1.1/DTD/svg11.dtd">
<svg version="1.1" id="Layer_1" xmlns="http://www.w3.org/2000/svg" xmlns:xlink="http://www.w3.org/1999/xlink" x="0px" y="0px"
	 width="48px" height="48px" viewBox="0 0 48 48" enable-background="new 0 0 48 48" xml:space="preserve">
<path d="M44.991,11.935c-0.007-0.104-0.03-0.203-0.068-0.298c-0.006-0.016-0.004-0.032-0.011-0.047
	c-0.008-0.017-0.023-0.027-0.031-0.043c-0.045-0.088-0.102-0.167-0.171-0.238c-0.015-0.016-0.027-0.035-0.043-0.05
	c-0.076-0.068-0.161-0.127-0.257-0.171l-20-9c-0.26-0.117-0.561-0.117-0.82,0l-20,9c-0.096,0.044-0.182,0.103-0.257,0.171
	c-0.016,0.014-0.027,0.033-0.042,0.048c-0.07,0.071-0.126,0.151-0.172,0.24c-0.008,0.016-0.023,0.026-0.031,0.043
	c-0.007,0.015-0.005,0.032-0.011,0.047c-0.037,0.095-0.061,0.193-0.068,0.298c-0.001,0.018-0.007,0.035-0.008,0.053
	C3.002,11.992,3,11.996,3,12v24c0,0.394,0.23,0.75,0.59,0.912l20,9c0.003,0.001,0.007,0.001,0.01,0.002
	C23.723,45.968,23.857,46,24,46s0.277-0.032,0.4-0.086c0.003-0.001,0.007-0.001,0.01-0.002l20-9C44.77,36.75,45,36.394,45,36V12
	c0-0.004-0.002-0.008-0.002-0.012C44.998,11.97,44.992,11.953,44.991,11.935z M24,4.097L41.563,12L24,19.903L6.437,12L24,4.097z
	 M5,13.547l18,8.1v21.807l-18-8.1V13.547z M25,43.453V21.647l18-8.1v21.807L25,43.453z"/>
</svg>
