<?xml version="1.0" encoding="utf-8"?>
<!-- Generator: Adobe Illustrator 19.2.1, SVG Export Plug-In . SVG Version: 6.00 Build 0)  -->
<!DOCTYPE svg PUBLIC "-//W3C//DTD SVG 1.1//EN" "http://www.w3.org/Graphics/SVG/1.1/DTD/svg11.dtd">
<svg version="1.1" id="Layer_1" xmlns="http://www.w3.org/2000/svg" xmlns:xlink="http://www.w3.org/1999/xlink" x="0px" y="0px"
	 width="48px" height="48px" viewBox="0 0 48 48" enable-background="new 0 0 48 48" xml:space="preserve">
<path d="M28,1H8C7.448,1,7,1.447,7,2v44c0,0.553,0.448,1,1,1h20c0.552,0,1-0.447,1-1v-2.784l13.856-22.937
	c0.137-0.227,0.178-0.499,0.115-0.756c-0.063-0.258-0.227-0.479-0.454-0.617l-7.028-4.245l1.481-5.98
	c0.064-0.257,0.022-0.529-0.114-0.757c-0.137-0.227-0.358-0.391-0.616-0.454L29,5.676V2C29,1.447,28.552,1,28,1z M27,3v26H9V3H27z
	 M9,45V31h18v14H9z M40.627,20.101L29.632,38.301l5.353-21.608L40.627,20.101z M34.789,9.171L29,32.538V7.737L34.789,9.171z"/>
<path d="M18,35c-1.654,0-3,1.346-3,3s1.346,3,3,3s3-1.346,3-3S19.654,35,18,35z M18,39c-0.551,0-1-0.448-1-1s0.449-1,1-1
	s1,0.448,1,1S18.551,39,18,39z"/>
</svg>
