<?xml version="1.0" encoding="utf-8"?>
<!-- Generator: Adobe Illustrator 19.2.1, SVG Export Plug-In . SVG Version: 6.00 Build 0)  -->
<!DOCTYPE svg PUBLIC "-//W3C//DTD SVG 1.1//EN" "http://www.w3.org/Graphics/SVG/1.1/DTD/svg11.dtd">
<svg version="1.1" id="Layer_1" xmlns="http://www.w3.org/2000/svg" xmlns:xlink="http://www.w3.org/1999/xlink" x="0px" y="0px"
	 width="48px" height="48px" viewBox="0 0 48 48" enable-background="new 0 0 48 48" xml:space="preserve">
<path d="M22,2c0-0.256-0.098-0.512-0.293-0.707c-0.391-0.391-1.023-0.391-1.414,0c-2.006,2.006-6.58,2.006-8.586,0
	c-0.391-0.391-1.023-0.391-1.414,0C10.098,1.488,10,1.744,10,2s0.098,0.512,0.293,0.707c2.006,2.006,2.006,6.58,0,8.586
	C10.098,11.488,10,11.744,10,12s0.098,0.512,0.293,0.707c0.391,0.391,1.023,0.391,1.414,0c2.006-2.006,6.58-2.006,8.586,0
	C20.488,12.902,20.744,13,21,13s0.512-0.098,0.707-0.293S22,12.256,22,12s-0.098-0.512-0.293-0.707c-2.006-2.006-2.006-6.58,0-8.586
	C21.902,2.512,22,2.256,22,2z M18.547,9.547C17.73,9.324,16.865,9.213,16,9.213s-1.73,0.111-2.547,0.334
	c0.445-1.632,0.445-3.462,0-5.094c1.633,0.445,3.461,0.445,5.094,0C18.102,6.085,18.102,7.915,18.547,9.547z"/>
<path d="M47,2c0-0.256-0.098-0.512-0.293-0.707c-0.391-0.391-1.023-0.391-1.414,0c-2.006,2.006-6.58,2.006-8.586,0
	c-0.391-0.391-1.023-0.391-1.414,0C35.098,1.488,35,1.744,35,2s0.098,0.512,0.293,0.707c2.006,2.006,2.006,6.58,0,8.586
	C35.098,11.488,35,11.744,35,12s0.098,0.512,0.293,0.707c0.391,0.391,1.023,0.391,1.414,0c2.006-2.006,6.58-2.006,8.586,0
	C45.488,12.902,45.744,13,46,13s0.512-0.098,0.707-0.293S47,12.256,47,12s-0.098-0.512-0.293-0.707c-2.006-2.006-2.006-6.58,0-8.586
	C46.902,2.512,47,2.256,47,2z M43.547,9.547C42.73,9.324,41.865,9.213,41,9.213s-1.73,0.111-2.547,0.334
	c0.445-1.632,0.445-3.462,0-5.094c1.633,0.445,3.461,0.445,5.094,0C43.102,6.085,43.102,7.915,43.547,9.547z"/>
<path d="M47,27c0-0.256-0.098-0.512-0.293-0.707c-0.391-0.391-1.023-0.391-1.414,0c-2.006,2.006-6.58,2.006-8.586,0
	c-0.391-0.391-1.023-0.391-1.414,0C35.098,26.488,35,26.744,35,27s0.098,0.512,0.293,0.707c2.006,2.006,2.006,6.58,0,8.586
	C35.098,36.488,35,36.744,35,37s0.098,0.512,0.293,0.707c0.391,0.391,1.023,0.391,1.414,0c2.006-2.006,6.58-2.006,8.586,0
	C45.488,37.902,45.744,38,46,38s0.512-0.098,0.707-0.293S47,37.256,47,37s-0.098-0.512-0.293-0.707c-2.006-2.006-2.006-6.58,0-8.586
	C46.902,27.512,47,27.256,47,27z M43.547,34.547c-0.816-0.223-1.682-0.334-2.547-0.334s-1.73,0.111-2.547,0.334
	c0.445-1.632,0.445-3.462,0-5.094c1.633,0.445,3.461,0.445,5.094,0C43.102,31.085,43.102,32.915,43.547,34.547z"/>
<path d="M35.707,18.293l-6-6c-0.391-0.391-1.023-0.391-1.414,0l-26,26c-0.391,0.391-0.391,1.023,0,1.414l6,6
	C8.488,45.902,8.744,46,9,46s0.512-0.098,0.707-0.293l26-26C36.098,19.316,36.098,18.684,35.707,18.293z M9,43.586L4.414,39
	L23,20.414L27.586,25L9,43.586z M29,23.586L24.414,19L29,14.414L33.586,19L29,23.586z"/>
</svg>
