<?xml version="1.0" encoding="utf-8"?>
<!-- Generator: Adobe Illustrator 19.2.1, SVG Export Plug-In . SVG Version: 6.00 Build 0)  -->
<!DOCTYPE svg PUBLIC "-//W3C//DTD SVG 1.1//EN" "http://www.w3.org/Graphics/SVG/1.1/DTD/svg11.dtd">
<svg version="1.1" id="Layer_1" xmlns="http://www.w3.org/2000/svg" xmlns:xlink="http://www.w3.org/1999/xlink" x="0px" y="0px"
	 width="48px" height="48px" viewBox="0 0 48 48" enable-background="new 0 0 48 48" xml:space="preserve">
<path d="M46,13H34.247C32.107,6.059,25.634,1,18,1C8.626,1,1,8.626,1,18c0,7.634,5.059,14.107,12,16.247V46c0,0.553,0.448,1,1,1h32
	c0.552,0,1-0.447,1-1V14C47,13.447,46.552,13,46,13z M3,18C3,9.729,9.729,3,18,3c6.516,0,12.059,4.183,14.125,10H14
	c-0.552,0-1,0.447-1,1v18.125C7.184,30.059,3,24.516,3,18z M33,18c0,8.271-6.729,15-15,15c-1.027,0-2.03-0.105-3-0.302V15h17.698
	C32.895,15.97,33,16.973,33,18z M45,45H15V34.719C15.976,34.893,16.975,35,18,35c9.374,0,17-7.626,17-17
	c0-1.025-0.107-2.024-0.281-3H45V45z"/>
</svg>
