<?xml version="1.0" encoding="utf-8"?>
<!-- Generator: Adobe Illustrator 19.2.1, SVG Export Plug-In . SVG Version: 6.00 Build 0)  -->
<!DOCTYPE svg PUBLIC "-//W3C//DTD SVG 1.1//EN" "http://www.w3.org/Graphics/SVG/1.1/DTD/svg11.dtd">
<svg version="1.1" id="Layer_1" xmlns="http://www.w3.org/2000/svg" xmlns:xlink="http://www.w3.org/1999/xlink" x="0px" y="0px"
	 width="48px" height="48px" viewBox="0 0 48 48" enable-background="new 0 0 48 48" xml:space="preserve">
<path d="M5,40c0,4.547,9.789,7,19,7s19-2.453,19-7V8c0-4.547-9.789-7-19-7S5,3.453,5,8V40z M24,45c-10.532,0-17-2.912-17-5V11.261
	C10.331,13.707,17.316,15,24,15c0.341,0,0.672-0.012,1-0.027V25c0,2.206,1.794,4,4,4s4-1.794,4-4V14.208
	c3.561-0.668,6.297-1.695,8-2.958V40C41,42.088,34.532,45,24,45z M24,3c10.532,0,17,2.912,17,5c0,1.422-3.147,3.384-9.164,4.382
	C31.354,12.462,31,12.879,31,13.369V25c0,1.103-0.897,2-2,2s-2-0.897-2-2V13.923c0-0.272-0.111-0.532-0.307-0.721
	c-0.187-0.18-0.436-0.279-0.693-0.279c-0.013,0-0.026,0-0.039,0.001l-0.659,0.031C24.874,12.978,24.446,13,24,13
	C13.468,13,7,10.088,7,8S13.468,3,24,3z"/>
</svg>
