<?xml version="1.0" encoding="utf-8"?>
<!-- Generator: Adobe Illustrator 19.2.1, SVG Export Plug-In . SVG Version: 6.00 Build 0)  -->
<!DOCTYPE svg PUBLIC "-//W3C//DTD SVG 1.1//EN" "http://www.w3.org/Graphics/SVG/1.1/DTD/svg11.dtd">
<svg version="1.1" id="Layer_1" xmlns="http://www.w3.org/2000/svg" xmlns:xlink="http://www.w3.org/1999/xlink" x="0px" y="0px"
	 width="48px" height="48px" viewBox="0 0 48 48" enable-background="new 0 0 48 48" xml:space="preserve">
<path fill="#222221" d="M30.211,35.614l7,9C37.4,44.857,37.691,45,38,45s0.6-0.143,0.789-0.386l7-9
	c0.034-0.043,0.051-0.095,0.077-0.143c0.021-0.038,0.046-0.072,0.061-0.113C45.972,35.243,46,35.124,46,35V2c0-0.552-0.447-1-1-1H31
	c-0.553,0-1,0.448-1,1v33c0,0.124,0.028,0.244,0.072,0.358c0.016,0.041,0.04,0.075,0.061,0.113
	C30.159,35.518,30.177,35.57,30.211,35.614z M44,34H32V11h12V34z M38,42.371L33.045,36h9.911L38,42.371z M44,3v6H32V3H44z"/>
<path fill="#222221" d="M4,1C3.447,1,3,1.448,3,2v44c0,0.552,0.447,1,1,1h16c0.553,0,1-0.448,1-1V2c0-0.552-0.447-1-1-1H4z M19,45H5
	v-8h5c0.553,0,1-0.448,1-1s-0.447-1-1-1H5v-6h7c0.553,0,1-0.448,1-1s-0.447-1-1-1H5v-6h5c0.553,0,1-0.448,1-1s-0.447-1-1-1H5v-6h7
	c0.553,0,1-0.448,1-1s-0.447-1-1-1H5V3h14V45z"/>
</svg>
