<?xml version="1.0" encoding="utf-8"?>
<!-- Generator: Adobe Illustrator 19.2.1, SVG Export Plug-In . SVG Version: 6.00 Build 0)  -->
<!DOCTYPE svg PUBLIC "-//W3C//DTD SVG 1.1//EN" "http://www.w3.org/Graphics/SVG/1.1/DTD/svg11.dtd">
<svg version="1.1" id="Layer_1" xmlns="http://www.w3.org/2000/svg" xmlns:xlink="http://www.w3.org/1999/xlink" x="0px" y="0px"
	 width="48px" height="48px" viewBox="0 0 48 48" enable-background="new 0 0 48 48" xml:space="preserve">
<path d="M12.707,25.293c-0.391-0.391-1.023-0.391-1.414,0l-4,4c-0.391,0.391-0.391,1.023,0,1.414l4,4C11.488,34.902,11.744,35,12,35
	s0.512-0.098,0.707-0.293c0.391-0.391,0.391-1.023,0-1.414L9.414,30l3.293-3.293C13.098,26.316,13.098,25.684,12.707,25.293z"/>
<path d="M36.707,25.293c-0.391-0.391-1.023-0.391-1.414,0s-0.391,1.023,0,1.414L38.586,30l-3.293,3.293
	c-0.391,0.391-0.391,1.023,0,1.414C35.488,34.902,35.744,35,36,35s0.512-0.098,0.707-0.293l4-4c0.391-0.391,0.391-1.023,0-1.414
	L36.707,25.293z"/>
<path d="M28,21h-8c-0.552,0-1,0.447-1,1v16c0,0.553,0.448,1,1,1h8c0.552,0,1-0.447,1-1V22C29,21.447,28.552,21,28,21z M27,37h-6V23
	h6V37z"/>
<path d="M8,11h2c0.552,0,1-0.447,1-1s-0.448-1-1-1H8c-0.552,0-1,0.447-1,1S7.448,11,8,11z"/>
<path d="M16,11h2c0.552,0,1-0.447,1-1s-0.448-1-1-1h-2c-0.552,0-1,0.447-1,1S15.448,11,16,11z"/>
<path d="M32,11h8c0.552,0,1-0.447,1-1s-0.448-1-1-1h-8c-0.552,0-1,0.447-1,1S31.448,11,32,11z"/>
<path d="M46,3H2C1.448,3,1,3.447,1,4v40c0,0.553,0.448,1,1,1h44c0.552,0,1-0.447,1-1V4C47,3.447,46.552,3,46,3z M45,5v10H3V5H45z
	 M3,43V17h42v26H3z"/>
</svg>
