<?xml version="1.0" encoding="utf-8"?>
<!-- Generator: Adobe Illustrator 19.2.1, SVG Export Plug-In . SVG Version: 6.00 Build 0)  -->
<!DOCTYPE svg PUBLIC "-//W3C//DTD SVG 1.1//EN" "http://www.w3.org/Graphics/SVG/1.1/DTD/svg11.dtd">
<svg version="1.1" id="Layer_1" xmlns="http://www.w3.org/2000/svg" xmlns:xlink="http://www.w3.org/1999/xlink" x="0px" y="0px"
	 width="48px" height="48px" viewBox="0 0 48 48" enable-background="new 0 0 48 48" xml:space="preserve">
<path fill="#222221" d="M24.377,1C12.944,1,3.621,9.797,2.69,21.463c-0.036,0.456,0.242,0.879,0.676,1.026
	c0.436,0.145,0.911-0.02,1.161-0.404c0.028-0.045,2.928-4.479,7.914-7.583c0.914-0.568,1.957-1.079,3.066-1.515
	c-1.397,1.103-2.812,2.45-3.896,4.003c-2.456,3.337-3.81,7.423-3.81,11.545c0,1.099,0,3.144,0.596,5.257
	C10.696,41.939,18.031,47,27.542,47c8.049,0,13.362-3.216,13.584-3.353c0.296-0.183,0.476-0.505,0.476-0.853l-0.005-9.275
	c0-0.37-0.205-0.711-0.533-0.884c-0.328-0.174-0.725-0.15-1.031,0.06c-3.035,2.074-6.847,3.126-11.33,3.126
	c-3.999,0-6.941-1.006-8.745-2.989C18.438,31.161,18.075,29.141,18,28h26c0.553,0,1-0.447,1-1C45,4.378,32.079,1,24.377,1z M17,26
	c-0.513,0-0.942,0.388-0.995,0.898c-0.017,0.166-0.385,4.113,2.45,7.254c2.197,2.435,5.646,3.669,10.247,3.669
	c4.164,0,7.819-0.847,10.896-2.52l0.004,6.904C38.179,42.947,33.682,45,27.542,45c-8.577,0-15.175-4.503-17.219-11.751
	c-0.521-1.848-0.521-3.642-0.521-4.752c0-3.607,1.247-7.369,3.436-10.342c1.017-1.456,2.39-2.729,3.735-3.766
	c-0.758,1.59-1.15,3.509-0.969,5.693C16.047,20.602,16.479,21,17,21h15c0.512,0,0.941-0.387,0.994-0.896
	c0.021-0.19,0.455-4.711-2.371-7.847c-1.698-1.885-4.169-2.843-7.345-2.847c-0.014,0-0.028,0-0.04,0
	c-3.896,0.005-8.546,1.336-11.854,3.395c-2.584,1.608-4.63,3.523-6.071,5.099C7.602,9.19,15.249,3,24.377,3
	c8.352,0,18.278,4.023,18.614,23H17z M17.961,19c0.025-4.464,3.045-7.09,5.394-7.59c2.541,0.019,4.483,0.75,5.773,2.175
	c1.569,1.733,1.861,4.131,1.896,5.415H17.961z"/>
</svg>
