<?xml version="1.0" encoding="utf-8"?>
<!-- Generator: Adobe Illustrator 19.2.1, SVG Export Plug-In . SVG Version: 6.00 Build 0)  -->
<!DOCTYPE svg PUBLIC "-//W3C//DTD SVG 1.1//EN" "http://www.w3.org/Graphics/SVG/1.1/DTD/svg11.dtd">
<svg version="1.1" id="Layer_1" xmlns="http://www.w3.org/2000/svg" xmlns:xlink="http://www.w3.org/1999/xlink" x="0px" y="0px"
	 width="48px" height="48px" viewBox="0 0 48 48" enable-background="new 0 0 48 48" xml:space="preserve">
<path d="M20,12h24c0.553,0,1-0.447,1-1V5c0-0.553-0.447-1-1-1H20c-0.553,0-1,0.447-1,1v6C19,11.553,19.447,12,20,12z M21,6h22v4H21
	V6z"/>
<path d="M19,27c0,0.553,0.447,1,1,1h24c0.553,0,1-0.447,1-1v-6c0-0.553-0.447-1-1-1H20c-0.553,0-1,0.447-1,1V27z M21,22h22v4H21V22z
	"/>
<path d="M19,43c0,0.553,0.447,1,1,1h24c0.553,0,1-0.447,1-1v-6c0-0.553-0.447-1-1-1H20c-0.553,0-1,0.447-1,1V43z M21,38h22v4H21V38z
	"/>
<path d="M4,13h8c0.553,0,1-0.447,1-1V4c0-0.553-0.447-1-1-1H4C3.447,3,3,3.447,3,4v8C3,12.553,3.447,13,4,13z M5,5h6v6H5V5z"/>
<path d="M3,28c0,0.553,0.447,1,1,1h8c0.553,0,1-0.447,1-1v-8c0-0.553-0.447-1-1-1H4c-0.553,0-1,0.447-1,1V28z M5,21h6v6H5V21z"/>
<path d="M3,44c0,0.553,0.447,1,1,1h8c0.553,0,1-0.447,1-1v-8c0-0.553-0.447-1-1-1H4c-0.553,0-1,0.447-1,1V44z M5,37h6v6H5V37z"/>
</svg>
