<?xml version="1.0" encoding="utf-8"?>
<!-- Generator: Adobe Illustrator 19.2.1, SVG Export Plug-In . SVG Version: 6.00 Build 0)  -->
<!DOCTYPE svg PUBLIC "-//W3C//DTD SVG 1.1//EN" "http://www.w3.org/Graphics/SVG/1.1/DTD/svg11.dtd">
<svg version="1.1" id="Layer_1" xmlns="http://www.w3.org/2000/svg" xmlns:xlink="http://www.w3.org/1999/xlink" x="0px" y="0px"
	 width="48px" height="48px" viewBox="0 0 48 48" enable-background="new 0 0 48 48" xml:space="preserve">
<path fill="#222221" d="M21,2H3C2.448,2,2,2.447,2,3v18c0,0.553,0.448,1,1,1h18c0.552,0,1-0.447,1-1V3C22,2.447,21.552,2,21,2z
	 M20,20H4V4h16V20z"/>
<path fill="#222221" d="M45,2H27c-0.552,0-1,0.447-1,1v18c0,0.553,0.448,1,1,1h18c0.552,0,1-0.447,1-1V3C46,2.447,45.552,2,45,2z
	 M44,20H28V4h16V20z"/>
<path fill="#222221" d="M21,26H3c-0.552,0-1,0.447-1,1v18c0,0.553,0.448,1,1,1h18c0.552,0,1-0.447,1-1V27C22,26.447,21.552,26,21,26
	z M20,44H4V28h16V44z"/>
<path fill="#222221" d="M45,26H27c-0.552,0-1,0.447-1,1v18c0,0.553,0.448,1,1,1h18c0.552,0,1-0.447,1-1V27
	C46,26.447,45.552,26,45,26z M44,44H28V28h16V44z"/>
</svg>
