<?xml version="1.0" encoding="utf-8"?>
<!-- Generator: Adobe Illustrator 19.2.1, SVG Export Plug-In . SVG Version: 6.00 Build 0)  -->
<!DOCTYPE svg PUBLIC "-//W3C//DTD SVG 1.1//EN" "http://www.w3.org/Graphics/SVG/1.1/DTD/svg11.dtd">
<svg version="1.1" id="Layer_1" xmlns="http://www.w3.org/2000/svg" xmlns:xlink="http://www.w3.org/1999/xlink" x="0px" y="0px"
	 width="48px" height="48px" viewBox="0 0 48 48" enable-background="new 0 0 48 48" xml:space="preserve">
<path d="M46,5h-4.19c0.046-1.037-0.313-2.089-1.103-2.879c-1.492-1.492-3.922-1.492-5.414,0L32.414,5H2C1.447,5,1,5.447,1,6v40
	c0,0.553,0.447,1,1,1h44c0.553,0,1-0.447,1-1V6C47,5.447,46.553,5,46,5z M36.707,3.535c0.713-0.713,1.873-0.713,2.586,0
	s0.713,1.873,0,2.586L25.247,20.167l-2.586-2.586l2.873-2.873c0.001-0.001,0.002-0.002,0.003-0.003l7.997-7.997
	c0.001-0.001,0.002-0.002,0.003-0.003L36.707,3.535z M24.414,13H13V7h17.414L24.414,13z M11,7v6H3V7H11z M3,45V15h19.414
	l-1.874,1.874c-0.391,0.391-0.391,1.023,0,1.414l4,4c0.195,0.195,0.451,0.293,0.707,0.293s0.512-0.098,0.707-0.293L40.707,7.535
	C40.874,7.369,41.015,7.187,41.144,7H45v6h-5c-0.553,0-1,0.447-1,1s0.447,1,1,1h5v30H3z"/>
<path d="M12.21,31.593c0.128,0.003,0.323,0.007,0.571,0.007c1.668,0,5.687-0.168,7.233-1.715c1.949-1.949,1.949-5.121,0-7.07
	c-1.95-1.949-5.123-1.949-7.071,0c-1.776,1.776-1.733,6.813-1.707,7.806C11.251,31.151,11.679,31.578,12.21,31.593z M14.357,24.229
	c0.585-0.585,1.354-0.877,2.121-0.877c0.769,0,1.537,0.292,2.122,0.877c0.566,0.566,0.878,1.319,0.878,2.121
	s-0.312,1.555-0.878,2.121c-0.742,0.742-3.316,1.077-5.366,1.123C13.279,27.545,13.613,24.972,14.357,24.229z"/>
<path d="M38,37H10c-0.553,0-1,0.447-1,1s0.447,1,1,1h28c0.553,0,1-0.447,1-1S38.553,37,38,37z"/>
</svg>
