<?xml version="1.0" encoding="utf-8"?>
<!-- Generator: Adobe Illustrator 19.2.1, SVG Export Plug-In . SVG Version: 6.00 Build 0)  -->
<!DOCTYPE svg PUBLIC "-//W3C//DTD SVG 1.1//EN" "http://www.w3.org/Graphics/SVG/1.1/DTD/svg11.dtd">
<svg version="1.1" id="Layer_1" xmlns="http://www.w3.org/2000/svg" xmlns:xlink="http://www.w3.org/1999/xlink" x="0px" y="0px"
	 width="48px" height="48px" viewBox="0 0 48 48" enable-background="new 0 0 48 48" xml:space="preserve">
<path d="M11.293,32.707C11.488,32.902,11.744,33,12,33s0.512-0.098,0.707-0.293c0.391-0.391,0.391-1.023,0-1.414L5.414,24
	l7.293-7.293c0.391-0.391,0.391-1.023,0-1.414s-1.023-0.391-1.414,0l-8,8c-0.391,0.391-0.391,1.023,0,1.414L11.293,32.707z"/>
<path d="M35.293,32.707C35.488,32.902,35.744,33,36,33s0.512-0.098,0.707-0.293l8-8c0.391-0.391,0.391-1.023,0-1.414l-8-8
	c-0.391-0.391-1.023-0.391-1.414,0s-0.391,1.023,0,1.414L42.586,24l-7.293,7.293C34.902,31.684,34.902,32.316,35.293,32.707z"/>
<path d="M27.03,7.758l-8,32c-0.134,0.535,0.192,1.078,0.728,1.212C19.839,40.99,19.92,41,20.001,41c0.448,0,0.855-0.303,0.969-0.758
	l8-32c0.134-0.535-0.192-1.078-0.728-1.212C27.709,6.898,27.164,7.222,27.03,7.758z"/>
</svg>
