<?xml version="1.0" encoding="utf-8"?>
<!-- Generator: Adobe Illustrator 19.2.1, SVG Export Plug-In . SVG Version: 6.00 Build 0)  -->
<!DOCTYPE svg PUBLIC "-//W3C//DTD SVG 1.1//EN" "http://www.w3.org/Graphics/SVG/1.1/DTD/svg11.dtd">
<svg version="1.1" id="Layer_1" xmlns="http://www.w3.org/2000/svg" xmlns:xlink="http://www.w3.org/1999/xlink" x="0px" y="0px"
	 width="48px" height="48px" viewBox="0 0 48 48" enable-background="new 0 0 48 48" xml:space="preserve">
<path d="M4,45c0.065,0,0.131-0.006,0.196-0.02l10-2c0.04-0.008,0.076-0.028,0.114-0.041c0.035-0.011,0.068-0.021,0.101-0.036
	c0.108-0.049,0.21-0.111,0.295-0.196l31-31c0.391-0.391,0.391-1.023,0-1.414l-8-8c-0.391-0.391-1.023-0.391-1.414,0l-31,31
	c-0.085,0.085-0.147,0.187-0.196,0.295c-0.015,0.034-0.025,0.067-0.036,0.101c-0.013,0.038-0.033,0.074-0.041,0.114l-2,10
	c-0.066,0.328,0.037,0.667,0.273,0.903C3.482,44.896,3.737,45,4,45z M6.614,36.028l5.357,5.357l-6.697,1.339L6.614,36.028z
	 M31,10.414L37.586,17L14,40.586L7.414,34L31,10.414z M37,4.414L43.586,11L39,15.586L32.414,9L37,4.414z"/>
</svg>
