<?xml version="1.0" encoding="utf-8"?>
<!-- Generator: Adobe Illustrator 19.2.1, SVG Export Plug-In . SVG Version: 6.00 Build 0)  -->
<!DOCTYPE svg PUBLIC "-//W3C//DTD SVG 1.1//EN" "http://www.w3.org/Graphics/SVG/1.1/DTD/svg11.dtd">
<svg version="1.1" id="Layer_1" xmlns="http://www.w3.org/2000/svg" xmlns:xlink="http://www.w3.org/1999/xlink" x="0px" y="0px"
	 width="48px" height="48px" viewBox="0 0 48 48" enable-background="new 0 0 48 48" xml:space="preserve">
<path fill="#222221" d="M6,1C5.448,1,5,1.448,5,2v40c0,0.553,0.448,1,1,1h13v3c0,0.553,0.448,1,1,1h22c0.552,0,1-0.447,1-1v-8
	c0-0.553-0.448-1-1-1H20c-0.552,0-1,0.447-1,1v3H7V27h12v3c0,0.553,0.448,1,1,1h22c0.552,0,1-0.447,1-1v-8c0-0.552-0.448-1-1-1H20
	c-0.552,0-1,0.448-1,1v3H7V11h12v3c0,0.552,0.448,1,1,1h22c0.552,0,1-0.448,1-1V6c0-0.552-0.448-1-1-1H20c-0.552,0-1,0.448-1,1v3H7
	V2C7,1.448,6.552,1,6,1z M21,39h20v6H21V39z M21,23h20v6H21V23z M21,7h20v6H21V7z"/>
</svg>
