<?xml version="1.0" encoding="utf-8"?>
<!-- Generator: Adobe Illustrator 19.2.1, SVG Export Plug-In . SVG Version: 6.00 Build 0)  -->
<!DOCTYPE svg PUBLIC "-//W3C//DTD SVG 1.1//EN" "http://www.w3.org/Graphics/SVG/1.1/DTD/svg11.dtd">
<svg version="1.1" id="Layer_1" xmlns="http://www.w3.org/2000/svg" xmlns:xlink="http://www.w3.org/1999/xlink" x="0px" y="0px"
	 width="48px" height="48px" viewBox="0 0 48 48" enable-background="new 0 0 48 48" xml:space="preserve">
<path d="M46,7H2C1.447,7,1,7.448,1,8v32c0,0.552,0.447,1,1,1h44c0.553,0,1-0.448,1-1V8C47,7.448,46.553,7,46,7z M18.581,39
	c1.593-1.638,3.774-4.349,5.141-8h10.666c-0.844,4.539-2.32,7.116-2.905,8H18.581z M24.345,29C24.747,27.463,25,25.799,25,24
	s-0.253-3.463-0.655-5h10.346C34.881,20.498,35,22.156,35,24c0,1.847-0.118,3.504-0.306,5H24.345z M3,19h19.263
	C22.716,20.524,23,22.194,23,24s-0.284,3.476-0.737,5H3V19z M31.479,9c0.587,0.898,2.057,3.492,2.902,8H23.723
	c-1.367-3.651-3.548-6.362-5.141-8H31.479z M36.706,19H45v10h-8.291C36.887,27.488,37,25.835,37,24
	C37,22.167,36.886,20.513,36.706,19z M45,17h-8.581c-0.671-3.844-1.787-6.475-2.611-8H45V17z M15.645,9c0.873,0.727,4,3.562,5.888,8
	H3V9H15.645z M3,31h18.533c-1.888,4.438-5.015,7.273-5.888,8H3V31z M33.818,39c0.826-1.522,1.939-4.148,2.606-8H45v8H33.818z"/>
</svg>
