<?xml version="1.0" encoding="utf-8"?>
<!-- Generator: Adobe Illustrator 19.2.1, SVG Export Plug-In . SVG Version: 6.00 Build 0)  -->
<!DOCTYPE svg PUBLIC "-//W3C//DTD SVG 1.1//EN" "http://www.w3.org/Graphics/SVG/1.1/DTD/svg11.dtd">
<svg version="1.1" id="Layer_1" xmlns="http://www.w3.org/2000/svg" xmlns:xlink="http://www.w3.org/1999/xlink" x="0px" y="0px"
	 width="48px" height="48px" viewBox="0 0 48 48" enable-background="new 0 0 48 48" xml:space="preserve">
<path d="M8,15c-0.552,0-1,0.447-1,1v4c0,0.553,0.448,1,1,1s1-0.447,1-1v-4C9,15.447,8.552,15,8,15z"/>
<path d="M45,17.184V6c0-2.757-2.243-5-5-5H6C3.243,1,1,3.243,1,6v24c0,2.757,2.243,5,5,5h23v9c0,1.654,1.346,3,3,3h12
	c1.654,0,3-1.346,3-3V20C47,18.698,46.161,17.598,45,17.184z M44,19c0.551,0,1,0.448,1,1v3H31v-3c0-0.552,0.449-1,1-1H44z M37,17h-5
	c-1.654,0-3,1.346-3,3v7H15V9h22V17z M31,25h14v12H31V25z M6,33c-1.654,0-3-1.346-3-3V6c0-1.654,1.346-3,3-3h34c1.654,0,3,1.346,3,3
	v11h-4V8c0-0.553-0.448-1-1-1H14c-0.552,0-1,0.447-1,1v20c0,0.553,0.448,1,1,1h15v4H6z M44,45H32c-0.551,0-1-0.448-1-1v-5h14v5
	C45,44.552,44.551,45,44,45z"/>
</svg>
