<?xml version="1.0" encoding="utf-8"?>
<!-- Generator: Adobe Illustrator 19.2.1, SVG Export Plug-In . SVG Version: 6.00 Build 0)  -->
<!DOCTYPE svg PUBLIC "-//W3C//DTD SVG 1.1//EN" "http://www.w3.org/Graphics/SVG/1.1/DTD/svg11.dtd">
<svg version="1.1" id="Layer_1" xmlns="http://www.w3.org/2000/svg" xmlns:xlink="http://www.w3.org/1999/xlink" x="0px" y="0px"
	 width="48px" height="48px" viewBox="0 0 48 48" enable-background="new 0 0 48 48" xml:space="preserve">
<path d="M10,23c-1.654,0-3,1.346-3,3s1.346,3,3,3s3-1.346,3-3S11.654,23,10,23z M10,27c-0.551,0-1-0.449-1-1s0.449-1,1-1
	s1,0.449,1,1S10.551,27,10,27z"/>
<path d="M47,5.828c0-1.022-0.398-1.984-1.122-2.707c-1.445-1.446-3.967-1.447-5.414,0L34.586,9H2c-0.552,0-1,0.448-1,1v32
	c0,0.552,0.448,1,1,1h44c0.552,0,1-0.448,1-1V10c0-0.552-0.448-1-1-1h-0.586l0.464-0.464C46.602,7.812,47,6.851,47,5.828z
	 M41.878,4.536c0.691-0.691,1.895-0.691,2.586,0C44.81,4.881,45,5.34,45,5.828c0,0.489-0.19,0.948-0.536,1.293l-2.171,2.171
	c0,0,0,0,0,0L30.678,20.907l-3.232,0.646l0.646-3.232L41.878,4.536z M39,17v18H19V17h7.586l-0.122,0.122
	c-0.14,0.14-0.235,0.317-0.273,0.511l-1,5c-0.066,0.328,0.037,0.667,0.273,0.903c0.189,0.189,0.444,0.293,0.707,0.293
	c0.065,0,0.131-0.006,0.196-0.02l5-1c0.193-0.039,0.371-0.134,0.511-0.273L37.414,17H39z M45,11v30H3V11h29.586l-4,4H18
	c-0.552,0-1,0.448-1,1v20c0,0.552,0.448,1,1,1h22c0.552,0,1-0.448,1-1V16c0-0.552-0.448-1-1-1h-0.586l4-4H45z"/>
<path d="M10,19c0.552,0,1-0.448,1-1v-2c0-0.552-0.448-1-1-1s-1,0.448-1,1v2C9,18.552,9.448,19,10,19z"/>
<path d="M10,33c-0.552,0-1,0.448-1,1v2c0,0.552,0.448,1,1,1s1-0.448,1-1v-2C11,33.448,10.552,33,10,33z"/>
</svg>
