<?xml version="1.0" encoding="utf-8"?>
<!-- Generator: Adobe Illustrator 19.2.1, SVG Export Plug-In . SVG Version: 6.00 Build 0)  -->
<!DOCTYPE svg PUBLIC "-//W3C//DTD SVG 1.1//EN" "http://www.w3.org/Graphics/SVG/1.1/DTD/svg11.dtd">
<svg version="1.1" id="Layer_1" xmlns="http://www.w3.org/2000/svg" xmlns:xlink="http://www.w3.org/1999/xlink" x="0px" y="0px"
	 width="48px" height="48px" viewBox="0 0 48 48" enable-background="new 0 0 48 48" xml:space="preserve">
<path d="M13.293,44.707C13.488,44.902,13.744,45,14,45s0.512-0.098,0.707-0.293l30-30c0.391-0.391,0.391-1.023,0-1.414l-10-10
	c-0.391-0.391-1.023-0.391-1.414,0l-30,30c-0.391,0.391-0.391,1.023,0,1.414L13.293,44.707z M10,29.414l1.293,1.293
	C11.488,30.902,11.744,31,12,31s0.512-0.098,0.707-0.293c0.391-0.391,0.391-1.023,0-1.414L11.414,28L16,23.414l3.293,3.293
	C19.488,26.902,19.744,27,20,27s0.512-0.098,0.707-0.293c0.391-0.391,0.391-1.023,0-1.414L17.414,22L22,17.414l1.293,1.293
	C23.488,18.902,23.744,19,24,19s0.512-0.098,0.707-0.293c0.391-0.391,0.391-1.023,0-1.414L23.414,16L28,11.414l3.293,3.293
	C31.488,14.902,31.744,15,32,15s0.512-0.098,0.707-0.293c0.391-0.391,0.391-1.023,0-1.414L29.414,10L34,5.414L42.586,14L14,42.586
	L5.414,34L10,29.414z"/>
</svg>
