<?xml version="1.0" encoding="utf-8"?>
<!-- Generator: Adobe Illustrator 19.2.1, SVG Export Plug-In . SVG Version: 6.00 Build 0)  -->
<!DOCTYPE svg PUBLIC "-//W3C//DTD SVG 1.1//EN" "http://www.w3.org/Graphics/SVG/1.1/DTD/svg11.dtd">
<svg version="1.1" id="Layer_1" xmlns="http://www.w3.org/2000/svg" xmlns:xlink="http://www.w3.org/1999/xlink" x="0px" y="0px"
	 width="48px" height="48px" viewBox="0 0 48 48" enable-background="new 0 0 48 48" xml:space="preserve">
<path d="M32,47c2.757,0,5-2.243,5-5V16.414l7.707-7.706c1.493-1.492,1.493-3.922,0-5.414c-1.493-1.492-3.922-1.492-5.414,0
	l-2.331,2.331C36.766,3.046,34.628,1,32,1H12C9.243,1,7,3.243,7,6v36c0,2.757,2.243,5,5,5H32z M40.707,4.708
	c0.713-0.713,1.873-0.713,2.586,0s0.713,1.873,0,2.586l-7.998,7.997c-0.001,0.001-0.002,0.002-0.004,0.004L30,20.586L27.414,18
	l7.293-7.292c0,0,0.001-0.001,0.001-0.001L40.707,4.708z M12,3h20c1.654,0,3,1.346,3,3v1.587L33.586,9H9V6C9,4.346,10.346,3,12,3z
	 M9,42V31h9c0.006,0,0.01-0.003,0.016-0.003c0.128,0.003,0.307,0.006,0.537,0.006c1.671,0,5.685-0.168,7.229-1.714
	c0.944-0.944,1.464-2.199,1.464-3.535s-0.52-2.591-1.464-3.535s-2.2-1.465-3.536-1.465c-1.335,0-2.591,0.521-3.535,1.465
	c-1.422,1.422-1.678,4.929-1.71,6.781H9V11h22.586l-6.293,6.293C25.105,17.48,25,17.734,25,18s0.105,0.52,0.293,0.707l4,4
	C29.488,22.902,29.744,23,30,23s0.512-0.098,0.707-0.293L35,18.414V29h-5c-0.552,0-1,0.447-1,1s0.448,1,1,1h5v11
	c0,1.654-1.346,3-3,3H12C10.346,45,9,43.654,9,42z M20.125,23.633c0.567-0.566,1.32-0.879,2.121-0.879
	c0.802,0,1.555,0.312,2.122,0.879c0.566,0.566,0.878,1.319,0.878,2.121s-0.312,1.555-0.878,2.121
	c-0.742,0.742-3.316,1.076-5.366,1.122C19.047,26.949,19.382,24.376,20.125,23.633z"/>
<path d="M22,41c1.654,0,3-1.346,3-3s-1.346-3-3-3s-3,1.346-3,3S20.346,41,22,41z M22,37c0.551,0,1,0.448,1,1s-0.449,1-1,1
	s-1-0.448-1-1S21.449,37,22,37z"/>
</svg>
