<?xml version="1.0" encoding="utf-8"?>
<!-- Generator: Adobe Illustrator 19.2.1, SVG Export Plug-In . SVG Version: 6.00 Build 0)  -->
<!DOCTYPE svg PUBLIC "-//W3C//DTD SVG 1.1//EN" "http://www.w3.org/Graphics/SVG/1.1/DTD/svg11.dtd">
<svg version="1.1" id="Layer_1" xmlns="http://www.w3.org/2000/svg" xmlns:xlink="http://www.w3.org/1999/xlink" x="0px" y="0px"
	 width="48px" height="48px" viewBox="0 0 48 48" enable-background="new 0 0 48 48" xml:space="preserve">
<path d="M46,1H16c-0.552,0-1,0.447-1,1v8c0,0.553,0.448,1,1,1s1-0.447,1-1V3h28v28h-7c-0.552,0-1,0.447-1,1s0.448,1,1,1h8
	c0.552,0,1-0.447,1-1V2C47,1.447,46.552,1,46,1z"/>
<path d="M32,41c-0.552,0-1,0.447-1,1v3h-3c-0.552,0-1,0.447-1,1s0.448,1,1,1h4c0.552,0,1-0.447,1-1v-4C33,41.447,32.552,41,32,41z"
	/>
<path d="M6,45H3v-3c0-0.553-0.448-1-1-1s-1,0.447-1,1v4c0,0.553,0.448,1,1,1h4c0.552,0,1-0.447,1-1S6.552,45,6,45z"/>
<path d="M20,45h-6c-0.552,0-1,0.447-1,1s0.448,1,1,1h6c0.552,0,1-0.447,1-1S20.552,45,20,45z"/>
<path d="M32,15h-4c-0.552,0-1,0.447-1,1s0.448,1,1,1h3v3c0,0.553,0.448,1,1,1s1-0.447,1-1v-4C33,15.447,32.552,15,32,15z"/>
<path d="M6,15H2c-0.552,0-1,0.447-1,1v4c0,0.553,0.448,1,1,1s1-0.447,1-1v-3h3c0.552,0,1-0.447,1-1S6.552,15,6,15z"/>
<path d="M20,15h-6c-0.552,0-1,0.447-1,1s0.448,1,1,1h6c0.552,0,1-0.447,1-1S20.552,15,20,15z"/>
<path d="M2,35c0.552,0,1-0.447,1-1v-6c0-0.553-0.448-1-1-1s-1,0.447-1,1v6C1,34.553,1.448,35,2,35z"/>
<path d="M32,27c-0.552,0-1,0.447-1,1v6c0,0.553,0.448,1,1,1s1-0.447,1-1v-6C33,27.447,32.552,27,32,27z"/>
</svg>
