<?xml version="1.0" encoding="utf-8"?>
<!-- Generator: Adobe Illustrator 19.2.1, SVG Export Plug-In . SVG Version: 6.00 Build 0)  -->
<!DOCTYPE svg PUBLIC "-//W3C//DTD SVG 1.1//EN" "http://www.w3.org/Graphics/SVG/1.1/DTD/svg11.dtd">
<svg version="1.1" id="Layer_1" xmlns="http://www.w3.org/2000/svg" xmlns:xlink="http://www.w3.org/1999/xlink" x="0px" y="0px"
	 width="48px" height="48px" viewBox="0 0 48 48" enable-background="new 0 0 48 48" xml:space="preserve">
<path d="M24,47c0.552,0,1-0.447,1-1v-7h13c0.552,0,1-0.447,1-1V28c0-0.553-0.448-1-1-1H25v-6h7c0.552,0,1-0.447,1-1V10
	c0-0.553-0.448-1-1-1h-7V2c0-0.553-0.448-1-1-1s-1,0.447-1,1v7h-7c-0.552,0-1,0.447-1,1v10c0,0.553,0.448,1,1,1h7v6H10
	c-0.552,0-1,0.447-1,1v10c0,0.553,0.448,1,1,1h13v7C23,46.553,23.448,47,24,47z M17,11h14v8H17V11z M11,29h26v8H11V29z"/>
</svg>
