<?xml version="1.0" encoding="utf-8"?>
<!-- Generator: Adobe Illustrator 19.2.1, SVG Export Plug-In . SVG Version: 6.00 Build 0)  -->
<!DOCTYPE svg PUBLIC "-//W3C//DTD SVG 1.1//EN" "http://www.w3.org/Graphics/SVG/1.1/DTD/svg11.dtd">
<svg version="1.1" id="Layer_1" xmlns="http://www.w3.org/2000/svg" xmlns:xlink="http://www.w3.org/1999/xlink" x="0px" y="0px"
	 width="48px" height="48px" viewBox="0 0 48 48" enable-background="new 0 0 48 48" xml:space="preserve">
<path d="M37,13c0,0.552,0.448,1,1,1h6c0.552,0,1-0.448,1-1s-0.448-1-1-1h-6C37.448,12,37,12.448,37,13z"/>
<path d="M32.293,19.707l4,4C36.488,23.902,36.744,24,37,24s0.512-0.098,0.707-0.293c0.391-0.391,0.391-1.023,0-1.414l-4-4
	c-0.391-0.391-1.023-0.391-1.414,0S31.902,19.316,32.293,19.707z"/>
<path d="M36.293,2.293l-4,4c-0.391,0.391-0.391,1.023,0,1.414C32.488,7.902,32.744,8,33,8s0.512-0.098,0.707-0.293l4-4
	c0.391-0.391,0.391-1.023,0-1.414S36.684,1.902,36.293,2.293z"/>
<path d="M19,5h-8c-0.552,0-1,0.448-1,1v7.069C6.06,13.564,3,16.928,3,21v25c0,0.552,0.448,1,1,1h22c0.552,0,1-0.448,1-1V21
	c0-4.072-3.06-7.436-7-7.931V6C20,5.448,19.552,5,19,5z M18,7v6h-6V7H18z M25,21v24H5V21c0-3.309,2.691-6,6-6h8
	C22.309,15,25,17.691,25,21z"/>
</svg>
