<?xml version="1.0" encoding="utf-8"?>
<!-- Generator: Adobe Illustrator 19.2.1, SVG Export Plug-In . SVG Version: 6.00 Build 0)  -->
<!DOCTYPE svg PUBLIC "-//W3C//DTD SVG 1.1//EN" "http://www.w3.org/Graphics/SVG/1.1/DTD/svg11.dtd">
<svg version="1.1" id="Layer_1" xmlns="http://www.w3.org/2000/svg" xmlns:xlink="http://www.w3.org/1999/xlink" x="0px" y="0px"
	 width="48px" height="48px" viewBox="0 0 48 48" enable-background="new 0 0 48 48" xml:space="preserve">
<path d="M46,3H2C1.448,3,1,3.447,1,4v40c0,0.553,0.448,1,1,1h44c0.552,0,1-0.447,1-1V4C47,3.447,46.552,3,46,3z M45,5v22.865
	l-10.36-8.633c-0.42-0.35-1.043-0.298-1.399,0.118L21.87,32.615l-9.245-7.396c-0.365-0.291-0.884-0.291-1.249,0L3,31.919V5H45z
	 M3,43v-8.519l9-7.201l9.375,7.501c0.42,0.336,1.034,0.278,1.384-0.131l11.358-13.251L45,30.469V43H3z"/>
<path d="M20,21c2.757,0,5-2.243,5-5s-2.243-5-5-5s-5,2.243-5,5S17.243,21,20,21z M20,13c1.654,0,3,1.346,3,3s-1.346,3-3,3
	s-3-1.346-3-3S18.346,13,20,13z"/>
</svg>
