<?xml version="1.0" encoding="utf-8"?>
<!-- Generator: Adobe Illustrator 19.2.1, SVG Export Plug-In . SVG Version: 6.00 Build 0)  -->
<!DOCTYPE svg PUBLIC "-//W3C//DTD SVG 1.1//EN" "http://www.w3.org/Graphics/SVG/1.1/DTD/svg11.dtd">
<svg version="1.1" id="Layer_1" xmlns="http://www.w3.org/2000/svg" xmlns:xlink="http://www.w3.org/1999/xlink" x="0px" y="0px"
	 width="48px" height="48px" viewBox="0 0 48 48" enable-background="new 0 0 48 48" xml:space="preserve">
<path fill="#222221" d="M30.361,6.675l2.496-4.16c0.284-0.474,0.131-1.088-0.343-1.372c-0.475-0.284-1.088-0.132-1.372,0.343
	l-2.608,4.347C27.12,5.303,25.597,5,24,5s-3.12,0.303-4.535,0.832l-2.608-4.347c-0.284-0.475-0.898-0.626-1.372-0.343
	c-0.474,0.284-0.627,0.898-0.343,1.372l2.496,4.16C13.682,8.906,11,13.143,11,18v20c0,0.553,0.448,1,1,1h5v7c0,0.553,0.448,1,1,1
	s1-0.447,1-1v-7h10v7c0,0.553,0.448,1,1,1s1-0.447,1-1v-7h5c0.552,0,1-0.447,1-1V18C37,13.143,34.318,8.906,30.361,6.675z M24,7
	c5.728,0,10.442,4.402,10.949,10H13.051C13.558,11.402,18.272,7,24,7z M13,37V19h22v18H13z"/>
<path fill="#222221" d="M6,18c-0.552,0-1,0.447-1,1v11c0,0.553,0.448,1,1,1s1-0.447,1-1V19C7,18.447,6.552,18,6,18z"/>
<path fill="#222221" d="M42,18c-0.552,0-1,0.447-1,1v11c0,0.553,0.448,1,1,1s1-0.447,1-1V19C43,18.447,42.552,18,42,18z"/>
</svg>
