<?xml version="1.0" encoding="utf-8"?>
<!-- Generator: Adobe Illustrator 19.2.1, SVG Export Plug-In . SVG Version: 6.00 Build 0)  -->
<!DOCTYPE svg PUBLIC "-//W3C//DTD SVG 1.1//EN" "http://www.w3.org/Graphics/SVG/1.1/DTD/svg11.dtd">
<svg version="1.1" id="Layer_1" xmlns="http://www.w3.org/2000/svg" xmlns:xlink="http://www.w3.org/1999/xlink" x="0px" y="0px"
	 width="48px" height="48px" viewBox="0 0 48 48" enable-background="new 0 0 48 48" xml:space="preserve">
<path d="M46,3H2C1.447,3,1,3.447,1,4v40c0,0.553,0.447,1,1,1h44c0.553,0,1-0.447,1-1V4C47,3.447,46.553,3,46,3z M3,5h12v38H3V5z
	 M45,43H17V5h28V43z"/>
<path d="M8,13h2c0.553,0,1-0.447,1-1s-0.447-1-1-1H8c-0.553,0-1,0.447-1,1S7.447,13,8,13z"/>
<path d="M10,17H8c-0.553,0-1,0.447-1,1s0.447,1,1,1h2c0.553,0,1-0.447,1-1S10.553,17,10,17z"/>
<path d="M10,23H8c-0.553,0-1,0.447-1,1s0.447,1,1,1h2c0.553,0,1-0.447,1-1S10.553,23,10,23z"/>
<path d="M10,29H8c-0.553,0-1,0.447-1,1s0.447,1,1,1h2c0.553,0,1-0.447,1-1S10.553,29,10,29z"/>
<path d="M23,13h4c0.553,0,1-0.447,1-1s-0.447-1-1-1h-4c-0.553,0-1,0.447-1,1S22.447,13,23,13z"/>
<path d="M26,18c0,0.553,0.447,1,1,1h5c0.553,0,1-0.447,1-1s-0.447-1-1-1h-5C26.447,17,26,17.447,26,18z"/>
<path d="M28,24c0,0.553,0.447,1,1,1h10c0.553,0,1-0.447,1-1s-0.447-1-1-1H29C28.447,23,28,23.447,28,24z"/>
<path d="M32,29h-5c-0.553,0-1,0.447-1,1s0.447,1,1,1h5c0.553,0,1-0.447,1-1S32.553,29,32,29z"/>
<path d="M27,35h-4c-0.553,0-1,0.447-1,1s0.447,1,1,1h4c0.553,0,1-0.447,1-1S27.553,35,27,35z"/>
</svg>
