<?xml version="1.0" encoding="utf-8"?>
<!-- Generator: Adobe Illustrator 19.2.1, SVG Export Plug-In . SVG Version: 6.00 Build 0)  -->
<!DOCTYPE svg PUBLIC "-//W3C//DTD SVG 1.1//EN" "http://www.w3.org/Graphics/SVG/1.1/DTD/svg11.dtd">
<svg version="1.1" id="Layer_1" xmlns="http://www.w3.org/2000/svg" xmlns:xlink="http://www.w3.org/1999/xlink" x="0px" y="0px"
	 width="48px" height="48px" viewBox="0 0 48 48" enable-background="new 0 0 48 48" xml:space="preserve">
<path d="M20,23H8c-0.552,0-1,0.447-1,1v12c0,0.553,0.448,1,1,1h12c0.552,0,1-0.447,1-1V24C21,23.447,20.552,23,20,23z M19,35H9V25
	h10V35z"/>
<path d="M40,23H26c-0.552,0-1,0.447-1,1s0.448,1,1,1h14c0.552,0,1-0.447,1-1S40.552,23,40,23z"/>
<path d="M40,29H26c-0.552,0-1,0.447-1,1s0.448,1,1,1h14c0.552,0,1-0.447,1-1S40.552,29,40,29z"/>
<path d="M32,35h-6c-0.552,0-1,0.447-1,1s0.448,1,1,1h6c0.552,0,1-0.447,1-1S32.552,35,32,35z"/>
<path d="M8,11h2c0.552,0,1-0.447,1-1s-0.448-1-1-1H8c-0.552,0-1,0.447-1,1S7.448,11,8,11z"/>
<path d="M16,11h2c0.552,0,1-0.447,1-1s-0.448-1-1-1h-2c-0.552,0-1,0.447-1,1S15.448,11,16,11z"/>
<path d="M32,11h8c0.552,0,1-0.447,1-1s-0.448-1-1-1h-8c-0.552,0-1,0.447-1,1S31.448,11,32,11z"/>
<path d="M46,3H2C1.448,3,1,3.447,1,4v40c0,0.553,0.448,1,1,1h44c0.552,0,1-0.447,1-1V4C47,3.447,46.552,3,46,3z M45,5v10H3V5H45z
	 M3,43V17h42v26H3z"/>
</svg>
