<?xml version="1.0" encoding="utf-8"?>
<!-- Generator: Adobe Illustrator 19.2.1, SVG Export Plug-In . SVG Version: 6.00 Build 0)  -->
<!DOCTYPE svg PUBLIC "-//W3C//DTD SVG 1.1//EN" "http://www.w3.org/Graphics/SVG/1.1/DTD/svg11.dtd">
<svg version="1.1" id="Layer_1" xmlns="http://www.w3.org/2000/svg" xmlns:xlink="http://www.w3.org/1999/xlink" x="0px" y="0px"
	 width="48px" height="48px" viewBox="0 0 48 48" enable-background="new 0 0 48 48" xml:space="preserve">
<path d="M16,1c-0.553,0-1,0.448-1,1v3H7C6.447,5,6,5.448,6,6v40c0,0.552,0.447,1,1,1h34c0.553,0,1-0.448,1-1V6c0-0.552-0.447-1-1-1
	h-8V2c0-0.552-0.447-1-1-1s-1,0.448-1,1v3h-6V2c0-0.552-0.447-1-1-1s-1,0.448-1,1v3h-6V2C17,1.448,16.553,1,16,1z M23,7v3
	c0,0.552,0.447,1,1,1s1-0.448,1-1V7h6v3c0,0.552,0.447,1,1,1s1-0.448,1-1V7h7v38H8V7h7v3c0,0.552,0.447,1,1,1s1-0.448,1-1V7H23z"/>
<path d="M13,18v18c0,0.552,0.447,1,1,1h20c0.553,0,1-0.448,1-1V18c0-0.552-0.447-1-1-1H14C13.447,17,13,17.448,13,18z M15,19h18v16
	H15V19z"/>
<path d="M28,23h-8c-0.553,0-1,0.448-1,1s0.447,1,1,1h8c0.553,0,1-0.448,1-1S28.553,23,28,23z"/>
<path d="M24,29h-4c-0.553,0-1,0.448-1,1s0.447,1,1,1h4c0.553,0,1-0.448,1-1S24.553,29,24,29z"/>
</svg>
