<?xml version="1.0" encoding="utf-8"?>
<!-- Generator: Adobe Illustrator 19.2.1, SVG Export Plug-In . SVG Version: 6.00 Build 0)  -->
<!DOCTYPE svg PUBLIC "-//W3C//DTD SVG 1.1//EN" "http://www.w3.org/Graphics/SVG/1.1/DTD/svg11.dtd">
<svg version="1.1" id="Layer_1" xmlns="http://www.w3.org/2000/svg" xmlns:xlink="http://www.w3.org/1999/xlink" x="0px" y="0px"
	 width="24px" height="24px" viewBox="0 0 24 24" enable-background="new 0 0 24 24" xml:space="preserve">
<path d="M12,5H5C4.448,5,4,5.448,4,6v5c0,0.552,0.448,1,1,1h7c0.552,0,1-0.448,1-1V6C13,5.448,12.552,5,12,5z M11,10H6V7h5V10z"/>
<path d="M23,4c-0.552,0-1,0.448-1,1v1h-2V5c0-0.552-0.448-1-1-1s-1,0.448-1,1v2v2c0,1.302,0.839,2.402,2,2.816V16.5
	c0,0.827-0.673,1.5-1.5,1.5S17,17.327,17,16.5V15V4c0-1.654-1.346-3-3-3H3C1.346,1,0,2.346,0,4v18c0,0.552,0.448,1,1,1h15
	c0.552,0,1-0.448,1-1v-2.351C17.456,19.867,17.961,20,18.5,20c1.93,0,3.5-1.57,3.5-3.5v-4.684c1.161-0.414,2-1.514,2-2.816V7V5
	C24,4.448,23.552,4,23,4z M15,21H2V4c0-0.551,0.449-1,1-1h11c0.551,0,1,0.449,1,1v11v1.5V21z M22,9c0,0.551-0.449,1-1,1
	s-1-0.449-1-1V8h2V9z"/>
</svg>
