<?xml version="1.0" encoding="utf-8"?>
<!-- Generator: Adobe Illustrator 19.2.1, SVG Export Plug-In . SVG Version: 6.00 Build 0)  -->
<!DOCTYPE svg PUBLIC "-//W3C//DTD SVG 1.1//EN" "http://www.w3.org/Graphics/SVG/1.1/DTD/svg11.dtd">
<svg version="1.1" id="Layer_1" xmlns="http://www.w3.org/2000/svg" xmlns:xlink="http://www.w3.org/1999/xlink" x="0px" y="0px"
	 width="24px" height="24px" viewBox="0 0 24 24" enable-background="new 0 0 24 24" xml:space="preserve">
<path d="M19.765,15.322C19.303,15.823,17,18.421,17,20.375C17,22.645,18.779,24,20.5,24s3.5-1.355,3.5-3.625
	c0-1.954-2.303-4.552-2.765-5.053C20.856,14.912,20.144,14.912,19.765,15.322z M19,20.375c0-0.646,0.747-1.847,1.501-2.82
	C21.254,18.527,22,19.727,22,20.375C22,22.508,19,22.508,19,20.375z"/>
<path d="M23,0c-2.209,0-4.067,1.45-4.726,3.441l-4.772,0.794L12.978,1.79C12.879,1.329,12.472,1,12,1H1C0.447,1,0,1.447,0,2v14
	c0,0.553,0.447,1,1,1h14c0.302,0,0.588-0.137,0.777-0.371c0.19-0.235,0.264-0.543,0.2-0.839l-1.096-5.113l4.497-2.248
	C20.291,9.391,21.573,10,23,10c0.553,0,1-0.447,1-1V1C24,0.447,23.553,0,23,0z M13.295,9.234c-0.408,0.204-0.626,0.658-0.53,1.104
	L13.763,15H2V3h9.191l0.556,2.589c0.111,0.521,0.618,0.873,1.142,0.776l5.162-0.86c0.043,0.423,0.13,0.83,0.273,1.215L13.295,9.234z
	 M22,7.829C20.836,7.416,20,6.304,20,5s0.836-2.416,2-2.829V7.829z"/>
</svg>
