<?xml version="1.0" encoding="utf-8"?>
<!-- Generator: Adobe Illustrator 19.2.1, SVG Export Plug-In . SVG Version: 6.00 Build 0)  -->
<!DOCTYPE svg PUBLIC "-//W3C//DTD SVG 1.1//EN" "http://www.w3.org/Graphics/SVG/1.1/DTD/svg11.dtd">
<svg version="1.1" id="Layer_1" xmlns="http://www.w3.org/2000/svg" xmlns:xlink="http://www.w3.org/1999/xlink" x="0px" y="0px"
	 width="24px" height="24px" viewBox="0 0 24 24" enable-background="new 0 0 24 24" xml:space="preserve">
<path d="M7,21.414V23c0,0.552,0.448,1,1,1h8c0.552,0,1-0.448,1-1v-1.586l3.707-3.707C20.895,17.52,21,17.265,21,17v-2
	c0-0.552-0.448-1-1-1h-2V3.5C18,1.57,16.43,0,14.5,0c-0.98,0-1.864,0.407-2.5,1.058C11.364,0.407,10.48,0,9.5,0C7.57,0,6,1.57,6,3.5
	V14H4c-0.552,0-1,0.448-1,1v2c0,0.265,0.105,0.52,0.293,0.707L7,21.414z M14.5,2C15.327,2,16,2.673,16,3.5V14h-3V3.5
	C13,2.673,13.673,2,14.5,2z M8,3.5C8,2.673,8.673,2,9.5,2S11,2.673,11,3.5V14H8V3.5z M5,16h14v0.586l-3.707,3.707
	C15.105,20.48,15,20.735,15,21v1H9v-1c0-0.265-0.105-0.52-0.293-0.707L5,16.586V16z"/>
</svg>
