<?xml version="1.0" encoding="utf-8"?>
<!-- Generator: Adobe Illustrator 19.2.1, SVG Export Plug-In . SVG Version: 6.00 Build 0)  -->
<!DOCTYPE svg PUBLIC "-//W3C//DTD SVG 1.1//EN" "http://www.w3.org/Graphics/SVG/1.1/DTD/svg11.dtd">
<svg version="1.1" id="Layer_1" xmlns="http://www.w3.org/2000/svg" xmlns:xlink="http://www.w3.org/1999/xlink" x="0px" y="0px"
	 width="24px" height="24px" viewBox="0 0 24 24" enable-background="new 0 0 24 24" xml:space="preserve">
<path d="M23,5h-2c-0.552,0-1,0.448-1,1s0.448,1,1,1h1v8.5c0,0.827-0.673,1.5-1.5,1.5S19,16.327,19,15.5V14V4c0-1.654-1.346-3-3-3H5
	C3.346,1,2,2.346,2,4v17H1c-0.552,0-1,0.448-1,1s0.448,1,1,1h19c0.552,0,1-0.448,1-1s-0.448-1-1-1h-1v-2.351
	C19.456,18.867,19.961,19,20.5,19c1.93,0,3.5-1.57,3.5-3.5V6C24,5.448,23.552,5,23,5z M4,21V4c0-0.551,0.449-1,1-1h11
	c0.551,0,1,0.449,1,1v10v1.5V21H4z"/>
<path d="M14,5H7C6.448,5,6,5.448,6,6v5c0,0.552,0.448,1,1,1h7c0.552,0,1-0.448,1-1V6C15,5.448,14.552,5,14,5z M13,10H8V7h5V10z"/>
</svg>
