<?xml version="1.0" encoding="utf-8"?>
<!-- Generator: Adobe Illustrator 19.2.1, SVG Export Plug-In . SVG Version: 6.00 Build 0)  -->
<!DOCTYPE svg PUBLIC "-//W3C//DTD SVG 1.1//EN" "http://www.w3.org/Graphics/SVG/1.1/DTD/svg11.dtd">
<svg version="1.1" id="Layer_1" xmlns="http://www.w3.org/2000/svg" xmlns:xlink="http://www.w3.org/1999/xlink" x="0px" y="0px"
	 width="24px" height="24px" viewBox="0 0 24 24" enable-background="new 0 0 24 24" xml:space="preserve">
<path d="M20.95,9.536l-0.957-7.66C19.93,1.375,19.504,1,19,1H5C4.496,1,4.07,1.375,4.008,1.876L3.05,9.536l-2.757,2.757
	C0.105,12.48,0,12.735,0,13v7c0,0.552,0.447,1,1,1h1v1c0,0.552,0.447,1,1,1h3c0.553,0,1-0.448,1-1v-1h10v1c0,0.552,0.447,1,1,1h3
	c0.553,0,1-0.448,1-1v-1h1c0.553,0,1-0.448,1-1v-7c0-0.265-0.105-0.52-0.293-0.707L20.95,9.536z M18.117,3l0.75,6H5.133l0.75-6
	H18.117z M22,19H2v-5.586L4.414,11h15.172L22,13.414V19z"/>
<path d="M8,14H5c-0.553,0-1,0.448-1,1s0.447,1,1,1h3c0.553,0,1-0.448,1-1S8.553,14,8,14z"/>
<path d="M18,14v-1c0-0.552-0.447-1-1-1s-1,0.448-1,1v1h-1c-0.553,0-1,0.448-1,1s0.447,1,1,1h1v1c0,0.552,0.447,1,1,1s1-0.448,1-1v-1
	h1c0.553,0,1-0.448,1-1s-0.447-1-1-1H18z"/>
</svg>
