<?xml version="1.0" encoding="utf-8"?>
<!-- Generator: Adobe Illustrator 19.2.1, SVG Export Plug-In . SVG Version: 6.00 Build 0)  -->
<!DOCTYPE svg PUBLIC "-//W3C//DTD SVG 1.1//EN" "http://www.w3.org/Graphics/SVG/1.1/DTD/svg11.dtd">
<svg version="1.1" id="Layer_1" xmlns="http://www.w3.org/2000/svg" xmlns:xlink="http://www.w3.org/1999/xlink" x="0px" y="0px"
	 width="24px" height="24px" viewBox="0 0 24 24" enable-background="new 0 0 24 24" xml:space="preserve">
<path d="M20.208,14.244c-0.292-0.469-0.91-0.611-1.378-0.317c-0.469,0.292-0.611,0.909-0.318,1.378L20.196,18h-6.782l1.293-1.293
	c0.391-0.391,0.391-1.023,0-1.414s-1.023-0.391-1.414,0l-2.999,2.999c-0.093,0.092-0.166,0.203-0.217,0.326
	c-0.101,0.244-0.101,0.52,0,0.764c0.051,0.123,0.124,0.233,0.217,0.326l2.999,2.999C13.488,22.902,13.744,23,14,23
	s0.512-0.098,0.707-0.293c0.391-0.391,0.391-1.023,0-1.414L13.414,20H22c0.363,0,0.698-0.197,0.875-0.516
	c0.176-0.317,0.166-0.706-0.026-1.015L20.208,14.244z"/>
<path d="M8.625,9.758C8.613,9.712,8.583,9.677,8.566,9.635c-0.03-0.076-0.056-0.153-0.104-0.22C8.412,9.348,8.347,9.299,8.284,9.247
	C8.249,9.217,8.226,9.178,8.186,9.153C8.183,9.151,8.179,9.151,8.176,9.15C8.09,9.097,7.993,9.068,7.895,9.043
	C7.866,9.036,7.84,9.018,7.812,9.013C7.77,9.007,7.727,9.019,7.684,9.018C7.596,9.015,7.508,9.01,7.423,9.03
	c-0.004,0.001-0.008,0-0.012,0.001l-4,1c-0.536,0.134-0.861,0.677-0.728,1.212c0.135,0.537,0.68,0.862,1.213,0.728l1.588-0.397
	l-4.332,6.895c-0.194,0.309-0.205,0.697-0.028,1.016C1.301,19.803,1.636,20,2,20h5c0.552,0,1-0.447,1-1s-0.448-1-1-1H3.809
	l3.444-5.482l0.431,1.724C7.798,14.697,8.206,15,8.653,15c0.081,0,0.162-0.01,0.244-0.03c0.536-0.134,0.861-0.677,0.728-1.212
	L8.625,9.758z"/>
<path d="M12.379,10.517c-0.121,0.539,0.218,1.073,0.757,1.194l4.023,0.902c0.074,0.017,0.147,0.024,0.22,0.024
	c0.102,0,0.203-0.02,0.302-0.052c0.035-0.011,0.066-0.029,0.099-0.044c0.042-0.019,0.086-0.031,0.126-0.056
	c0.014-0.009,0.021-0.023,0.035-0.033c0.074-0.051,0.137-0.114,0.195-0.184c0.022-0.026,0.049-0.047,0.068-0.075
	c0.057-0.085,0.097-0.181,0.127-0.284c0.005-0.018,0.017-0.033,0.021-0.051c0-0.001,0.001-0.002,0.001-0.003l0.903-4.023
	c0.121-0.539-0.218-1.073-0.757-1.194c-0.535-0.12-1.074,0.218-1.194,0.757l-0.368,1.641l-4.087-6.565
	C12.667,2.179,12.346,2,12.001,2C12,2,12,2,12,2c-0.345,0-0.665,0.178-0.848,0.47L8.659,6.459c-0.292,0.469-0.15,1.086,0.318,1.378
	c0.467,0.294,1.085,0.151,1.378-0.317l1.644-2.63l3.268,5.25l-1.694-0.38C13.039,9.64,12.5,9.979,12.379,10.517z"/>
</svg>
