<?xml version="1.0" encoding="utf-8"?>
<!-- Generator: Adobe Illustrator 19.2.1, SVG Export Plug-In . SVG Version: 6.00 Build 0)  -->
<!DOCTYPE svg PUBLIC "-//W3C//DTD SVG 1.1//EN" "http://www.w3.org/Graphics/SVG/1.1/DTD/svg11.dtd">
<svg version="1.1" id="Layer_1" xmlns="http://www.w3.org/2000/svg" xmlns:xlink="http://www.w3.org/1999/xlink" x="0px" y="0px"
	 width="24px" height="24px" viewBox="0 0 24 24" enable-background="new 0 0 24 24" xml:space="preserve">
<path d="M12,0C6.486,0,2,4.486,2,10c0,3.604,1.9,6.864,5,8.651V23c0,0.552,0.447,1,1,1h8c0.553,0,1-0.448,1-1v-4.349
	c3.1-1.787,5-5.047,5-8.651C22,4.486,17.514,0,12,0z M9,22v-1h6v1H9z M13,12c0-1.654,1.346-3,3-3v1c0,1.654-1.346,3-3,3V12z
	 M15.555,17.158C15.215,17.327,15,17.674,15,18.053V19h-2v-4c2.757,0,5-2.243,5-5V8c0-0.552-0.447-1-1-1h-1
	c-1.13,0-2.162,0.391-3,1.026V7c0-0.552-0.447-1-1-1s-1,0.448-1,1v5v2v5H9v-0.947c0-0.379-0.215-0.726-0.555-0.895
	C5.703,15.793,4,13.05,4,10c0-4.411,3.589-8,8-8s8,3.589,8,8C20,13.05,18.297,15.793,15.555,17.158z"/>
</svg>
