<?xml version="1.0" encoding="utf-8"?>
<!-- Generator: Adobe Illustrator 19.2.1, SVG Export Plug-In . SVG Version: 6.00 Build 0)  -->
<!DOCTYPE svg PUBLIC "-//W3C//DTD SVG 1.1//EN" "http://www.w3.org/Graphics/SVG/1.1/DTD/svg11.dtd">
<svg version="1.1" id="Layer_1" xmlns="http://www.w3.org/2000/svg" xmlns:xlink="http://www.w3.org/1999/xlink" x="0px" y="0px"
	 width="24px" height="24px" viewBox="0 0 24 24" enable-background="new 0 0 24 24" xml:space="preserve">
<path d="M20.697,10.141c-0.635-0.367-1.324-0.631-2.041-0.782C18.883,8.663,19,7.936,19,7.202c0-1.425-0.428-2.797-1.237-3.97
	C17.527,2.89,17.106,2.729,16.7,2.829c-0.403,0.1-0.703,0.438-0.753,0.851C15.705,5.688,14.008,7.202,12,7.202
	S8.295,5.688,8.053,3.68C8.003,3.268,7.703,2.929,7.3,2.829c-0.406-0.1-0.827,0.06-1.063,0.403C5.428,4.405,5,5.777,5,7.202
	c0,0.733,0.117,1.461,0.344,2.156C4.628,9.51,3.938,9.772,3.304,10.14c-0.824,0.477-1.53,1.102-2.098,1.859
	c-0.218,0.291-0.261,0.677-0.112,1.009c0.148,0.331,0.465,0.556,0.827,0.587c2.625,0.226,3.991,0.949,4.883,2.607
	c1.004,1.739,0.542,3.965-1.077,5.179c-0.333,0.249-0.476,0.678-0.36,1.077c0.115,0.399,0.465,0.686,0.88,0.72
	c1.419,0.111,2.823-0.201,4.058-0.914c0.635-0.366,1.207-0.832,1.696-1.376c0.489,0.544,1.061,1.01,1.696,1.377
	c1.068,0.616,2.264,0.936,3.487,0.936c0.189,0,0.38-0.008,0.57-0.022c0.415-0.034,0.765-0.32,0.88-0.72
	c0.116-0.399-0.028-0.828-0.36-1.077c-1.618-1.214-2.081-3.439-1.077-5.179c0.005-0.009,0.01-0.018,0.015-0.026
	c0.877-1.632,2.243-2.355,4.868-2.581c0.362-0.031,0.679-0.256,0.827-0.587c0.148-0.332,0.105-0.718-0.112-1.009
	C22.227,11.241,21.521,10.616,20.697,10.141z M15.457,15.216c-1.016,1.77-1.026,3.87-0.174,5.606c-0.2-0.083-0.396-0.18-0.586-0.289
	c-0.758-0.438-1.391-1.074-1.83-1.839c-0.178-0.311-0.509-0.502-0.867-0.502s-0.689,0.191-0.867,0.502
	c-0.439,0.765-1.072,1.4-1.829,1.838c-0.19,0.109-0.385,0.206-0.585,0.289c0.854-1.738,0.845-3.839-0.167-5.593
	c-1.074-1.997-2.677-2.88-4.347-3.298c0.033-0.02,0.067-0.04,0.101-0.06c0.752-0.435,1.613-0.664,2.491-0.664
	c0.005,0,0.012,0.002,0.017,0c0.357,0,0.687-0.19,0.866-0.5c0.179-0.31,0.179-0.692,0-1.002C7.234,8.941,7,8.076,7,7.202
	c0-0.22,0.014-0.438,0.042-0.653C8.123,8.159,9.954,9.202,12,9.202s3.877-1.043,4.958-2.653C16.986,6.765,17,6.982,17,7.202
	c0,0.874-0.234,1.739-0.677,2.503c-0.18,0.31-0.18,0.692,0,1.002c0.179,0.31,0.509,0.5,0.866,0.5c0.001,0,0.002,0,0.003,0
	c0.907-0.023,1.749,0.227,2.505,0.665c0.034,0.02,0.067,0.039,0.1,0.059C18.13,12.348,16.53,13.228,15.457,15.216z"/>
</svg>
