<?xml version="1.0" encoding="utf-8"?>
<!-- Generator: Adobe Illustrator 19.2.1, SVG Export Plug-In . SVG Version: 6.00 Build 0)  -->
<!DOCTYPE svg PUBLIC "-//W3C//DTD SVG 1.1//EN" "http://www.w3.org/Graphics/SVG/1.1/DTD/svg11.dtd">
<svg version="1.1" id="Layer_1" xmlns="http://www.w3.org/2000/svg" xmlns:xlink="http://www.w3.org/1999/xlink" x="0px" y="0px"
	 width="24px" height="24px" viewBox="0 0 24 24" enable-background="new 0 0 24 24" xml:space="preserve">
<path d="M12,0C2,0,2,2.258,2,3v18c0,0.742,0,3,10,3s10-2.258,10-3V3C22,2.258,22,0,12,0z M12,2c5.005,0,7.144,0.616,7.819,1
	C19.144,3.384,17.005,4,12,4S4.856,3.384,4.181,3C4.856,2.616,6.995,2,12,2z M12,22c-5.597,0-7.609-0.771-8-1.125V5.101
	C5.419,5.61,7.845,6,12,6s6.581-0.39,8-0.899v15.774C19.609,21.229,17.597,22,12,22z"/>
<path d="M15.707,10.293c-0.391-0.391-1.023-0.391-1.414,0L12,12.586l-2.293-2.293c-0.391-0.391-1.023-0.391-1.414,0
	s-0.391,1.023,0,1.414L10.586,14l-2.293,2.293c-0.391,0.391-0.391,1.023,0,1.414C8.488,17.902,8.744,18,9,18
	s0.512-0.098,0.707-0.293L12,15.414l2.293,2.293C14.488,17.902,14.744,18,15,18s0.512-0.098,0.707-0.293
	c0.391-0.391,0.391-1.023,0-1.414L13.414,14l2.293-2.293C16.098,11.316,16.098,10.684,15.707,10.293z"/>
</svg>
