<?xml version="1.0" encoding="utf-8"?>
<!-- Generator: Adobe Illustrator 19.2.1, SVG Export Plug-In . SVG Version: 6.00 Build 0)  -->
<!DOCTYPE svg PUBLIC "-//W3C//DTD SVG 1.1//EN" "http://www.w3.org/Graphics/SVG/1.1/DTD/svg11.dtd">
<svg version="1.1" id="Layer_1" xmlns="http://www.w3.org/2000/svg" xmlns:xlink="http://www.w3.org/1999/xlink" x="0px" y="0px"
	 width="24px" height="24px" viewBox="0 0 24 24" enable-background="new 0 0 24 24" xml:space="preserve">
<path d="M1.744,8.891C2.236,9.142,2.838,8.947,3.09,8.455C4.81,5.09,8.224,3,12,3c3.777,0,7.191,2.091,8.911,5.457
	c0.177,0.346,0.528,0.545,0.892,0.545c0.153,0,0.309-0.035,0.454-0.109c0.492-0.251,0.687-0.854,0.436-1.346
	C20.628,3.508,16.532,1,12,1C7.469,1,3.373,3.508,1.309,7.545C1.058,8.037,1.252,8.639,1.744,8.891z"/>
<path d="M8.441,8.049C8.034,8.181,7.755,8.558,7.749,8.987c-0.022,1.606-0.104,9.701,0.479,11.347
	c0.356,1.007,1.084,1.815,2.049,2.275c0.546,0.261,1.131,0.392,1.719,0.392c0.45,0,0.902-0.077,1.338-0.232
	c2.079-0.736,3.172-3.027,2.435-5.106c-0.574-1.621-5.28-7.998-6.218-9.259C9.296,8.06,8.851,7.916,8.441,8.049z M13.885,18.332
	c0.178,0.503,0.15,1.046-0.08,1.529c-0.23,0.482-0.634,0.846-1.138,1.024c-0.503,0.177-1.046,0.149-1.528-0.08
	c-0.482-0.23-0.846-0.634-1.024-1.138c-0.258-0.729-0.365-4.273-0.378-7.621C11.607,14.648,13.611,17.56,13.885,18.332z"/>
</svg>
