<?xml version="1.0" encoding="utf-8"?>
<!-- Generator: Adobe Illustrator 19.2.1, SVG Export Plug-In . SVG Version: 6.00 Build 0)  -->
<!DOCTYPE svg PUBLIC "-//W3C//DTD SVG 1.1//EN" "http://www.w3.org/Graphics/SVG/1.1/DTD/svg11.dtd">
<svg version="1.1" id="Layer_1" xmlns="http://www.w3.org/2000/svg" xmlns:xlink="http://www.w3.org/1999/xlink" x="0px" y="0px"
	 width="24px" height="24px" viewBox="0 0 24 24" enable-background="new 0 0 24 24" xml:space="preserve">
<path d="M13.076,12.383C13.231,12.757,13.596,13,14,13h3c0.552,0,1-0.447,1-1V9c0-0.404-0.244-0.77-0.617-0.924
	c-0.375-0.157-0.804-0.069-1.09,0.217l-0.82,0.82C14.464,8.393,13.264,8,12,8c-1.603,0-3.109,0.624-4.243,1.758
	C6.624,10.891,6,12.397,6,14s0.624,3.109,1.757,4.242C8.891,19.376,10.397,20,12,20s3.109-0.624,4.243-1.758
	c0.535-0.534,0.958-1.154,1.258-1.843c0.221-0.506-0.011-1.096-0.517-1.316c-0.509-0.221-1.096,0.011-1.316,0.518
	c-0.2,0.457-0.482,0.87-0.839,1.228c-1.512,1.512-4.146,1.512-5.657,0C8.416,16.072,8,15.068,8,14s0.416-2.072,1.171-2.828
	c1.268-1.268,3.319-1.458,4.841-0.599l-0.72,0.72C13.007,11.579,12.921,12.009,13.076,12.383z"/>
<path d="M21,8c-0.552,0-1,0.447-1,1v13H4V9c0-0.553-0.448-1-1-1S2,8.447,2,9v14c0,0.553,0.448,1,1,1h18c0.552,0,1-0.447,1-1V9
	C22,8.447,21.552,8,21,8z"/>
<path d="M23,4h-7V1c0-0.553-0.448-1-1-1H9C8.448,0,8,0.447,8,1v3H1C0.448,4,0,4.447,0,5s0.448,1,1,1h22c0.552,0,1-0.447,1-1
	S23.552,4,23,4z M10,2h4v2h-4V2z"/>
</svg>
