<?xml version="1.0" encoding="utf-8"?>
<!-- Generator: Adobe Illustrator 19.1.0, SVG Export Plug-In . SVG Version: 6.00 Build 0)  -->
<!DOCTYPE svg PUBLIC "-//W3C//DTD SVG 1.1//EN" "http://www.w3.org/Graphics/SVG/1.1/DTD/svg11.dtd">
<svg version="1.1" id="Layer_1" xmlns="http://www.w3.org/2000/svg" xmlns:xlink="http://www.w3.org/1999/xlink" x="0px" y="0px"
	 width="48px" height="48px" viewBox="0 0 48 48" enable-background="new 0 0 48 48" xml:space="preserve">
<path d="M45,18c0-9.4-7.6-17-17-17h-8C10.6,1,3,8.6,3,18v10.4c-1.3,1.9-2,4.2-2,6.6c0,6.6,5.4,12,12,12c1.1,0,2.2-0.2,3.3-0.5
	c0.4-0.1,0.7-0.5,0.7-1V24.4c0-0.4-0.3-0.8-0.7-1C15.2,23.2,14.1,23,13,23c-3.1,0-5.9,1.2-8,3.1V18C5,9.7,11.7,3,20,3h8
	c8.3,0,15,6.7,15,15v8.1c-2.1-1.9-4.9-3.1-8-3.1c-1.1,0-2.2,0.2-3.3,0.5c-0.4,0.1-0.7,0.5-0.7,1v21.2c0,0.4,0.3,0.8,0.7,1
	c1.1,0.3,2.2,0.5,3.3,0.5c6.6,0,12-5.4,12-12c0-2.4-0.7-4.7-2-6.6V18z"/>
</svg>
