<?xml version="1.0" encoding="utf-8"?>
<!-- Generator: Adobe Illustrator 19.1.0, SVG Export Plug-In . SVG Version: 6.00 Build 0)  -->
<!DOCTYPE svg PUBLIC "-//W3C//DTD SVG 1.1//EN" "http://www.w3.org/Graphics/SVG/1.1/DTD/svg11.dtd">
<svg version="1.1" id="Layer_1" xmlns="http://www.w3.org/2000/svg" xmlns:xlink="http://www.w3.org/1999/xlink" x="0px" y="0px"
	 width="48px" height="48px" viewBox="0 0 48 48" enable-background="new 0 0 48 48" xml:space="preserve">
<path d="M31,12.8V12c0-0.4-0.2-0.7-0.6-0.9c-0.3-0.2-0.7-0.1-1,0.1L21.7,17H14c-0.6,0-1,0.4-1,1v12c0,0.2,0.1,0.4,0.2,0.6L31,12.8z"
	/>
<path d="M21.7,31l7.7,5.8c0.2,0.1,0.4,0.2,0.6,0.2c0.2,0,0.3,0,0.4-0.1c0.3-0.2,0.6-0.5,0.6-0.9V21.2L21.2,31H21.7z"/>
<path d="M40.3,7.8C40.3,7.8,40.3,7.8,40.3,7.8C40.2,7.7,40.2,7.7,40.3,7.8C36.1,3.6,30.3,1,24,1C11.3,1,1,11.3,1,24
	c0,6.3,2.6,12.1,6.7,16.2c0,0,0,0,0,0.1s0,0,0.1,0C11.9,44.4,17.7,47,24,47c12.7,0,23-10.3,23-23C47,17.7,44.4,11.9,40.3,7.8z M24,3
	c5.4,0,10.4,2.1,14.1,5.5L8.5,38.1C5.1,34.4,3,29.4,3,24C3,12.4,12.4,3,24,3z M24,45c-5.4,0-10.4-2.1-14.1-5.5L39.5,9.9
	C42.9,13.6,45,18.6,45,24C45,35.6,35.6,45,24,45z"/>
</svg>
