<?xml version="1.0" encoding="utf-8"?>
<!-- Generator: Adobe Illustrator 19.1.0, SVG Export Plug-In . SVG Version: 6.00 Build 0)  -->
<!DOCTYPE svg PUBLIC "-//W3C//DTD SVG 1.1//EN" "http://www.w3.org/Graphics/SVG/1.1/DTD/svg11.dtd">
<svg version="1.1" id="Layer_1" xmlns="http://www.w3.org/2000/svg" xmlns:xlink="http://www.w3.org/1999/xlink" x="0px" y="0px"
	 width="48px" height="48px" viewBox="0 0 48 48" enable-background="new 0 0 48 48" xml:space="preserve">
<path d="M44,17H13.9l28.8-5.9c0.5-0.1,0.9-0.6,0.8-1.2L42,2.1c-0.1-0.3-0.2-0.5-0.4-0.6c-0.2-0.1-0.5-0.2-0.8-0.1L2.2,9.2
	C1.9,9.2,1.7,9.4,1.6,9.6c-0.1,0.2-0.2,0.5-0.1,0.8L3,18.1V46c0,0.6,0.4,1,1,1h40c0.6,0,1-0.4,1-1V18C45,17.4,44.6,17,44,17z
	 M40.2,3.5l1.1,5.9L33.2,11l3.2-6.8L40.2,3.5z M34,4.7l-3.2,6.8L23.4,13l3.2-6.8L34,4.7z M4.8,16.8l-1.2-5.9l10.8-2.2l-3.2,6.8
	L4.8,16.8z M16.8,8.2l7.3-1.5l-3.2,6.8L13.6,15L16.8,8.2z M32,35h-7v3c0,0.6-0.4,1-1,1s-1-0.4-1-1v-3h-7c-0.6,0-1-0.4-1-1s0.4-1,1-1
	h16c0.6,0,1,0.4,1,1S32.6,35,32,35z M32,27H16c-0.6,0-1-0.4-1-1s0.4-1,1-1h16c0.6,0,1,0.4,1,1S32.6,27,32,27z"/>
</svg>
