<?xml version="1.0" encoding="utf-8"?>
<!-- Generator: Adobe Illustrator 19.1.0, SVG Export Plug-In . SVG Version: 6.00 Build 0)  -->
<!DOCTYPE svg PUBLIC "-//W3C//DTD SVG 1.1//EN" "http://www.w3.org/Graphics/SVG/1.1/DTD/svg11.dtd">
<svg version="1.1" id="Layer_1" xmlns="http://www.w3.org/2000/svg" xmlns:xlink="http://www.w3.org/1999/xlink" x="0px" y="0px"
	 width="48px" height="48px" viewBox="0 0 48 48" enable-background="new 0 0 48 48" xml:space="preserve">
<path d="M30.4,3.1c-0.3-0.2-0.7-0.1-1,0.1L13.7,15H2c-0.6,0-1,0.4-1,1v16c0,0.6,0.4,1,1,1h11.7l15.7,11.8c0.2,0.1,0.4,0.2,0.6,0.2
	c0.2,0,0.3,0,0.4-0.1c0.3-0.2,0.6-0.5,0.6-0.9V4C31,3.6,30.8,3.3,30.4,3.1z"/>
<path d="M46,23h-3v-3c0-0.6-0.4-1-1-1s-1,0.4-1,1v3h-3c-0.6,0-1,0.4-1,1s0.4,1,1,1h3v3c0,0.6,0.4,1,1,1s1-0.4,1-1v-3h3
	c0.6,0,1-0.4,1-1S46.6,23,46,23z"/>
</svg>
