<?xml version="1.0" encoding="utf-8"?>
<!-- Generator: Adobe Illustrator 19.1.0, SVG Export Plug-In . SVG Version: 6.00 Build 0)  -->
<!DOCTYPE svg PUBLIC "-//W3C//DTD SVG 1.1//EN" "http://www.w3.org/Graphics/SVG/1.1/DTD/svg11.dtd">
<svg version="1.1" id="Layer_1" xmlns="http://www.w3.org/2000/svg" xmlns:xlink="http://www.w3.org/1999/xlink" x="0px" y="0px"
	 width="48px" height="48px" viewBox="0 0 48 48" enable-background="new 0 0 48 48" xml:space="preserve">
<path d="M40.4,5.1c-0.3-0.2-0.7-0.1-1,0.1l-24,18C15.1,23.4,15,23.7,15,24s0.1,0.6,0.4,0.8l24,18c0.2,0.1,0.4,0.2,0.6,0.2
	c0.2,0,0.3,0,0.4-0.1c0.3-0.2,0.6-0.5,0.6-0.9V6C41,5.6,40.8,5.3,40.4,5.1z"/>
<path d="M8,5C7.4,5,7,5.4,7,6v36c0,0.6,0.4,1,1,1s1-0.4,1-1V6C9,5.4,8.6,5,8,5z"/>
</svg>
