<?xml version="1.0" encoding="utf-8"?>
<!-- Generator: Adobe Illustrator 19.1.0, SVG Export Plug-In . SVG Version: 6.00 Build 0)  -->
<!DOCTYPE svg PUBLIC "-//W3C//DTD SVG 1.1//EN" "http://www.w3.org/Graphics/SVG/1.1/DTD/svg11.dtd">
<svg version="1.1" id="Layer_1" xmlns="http://www.w3.org/2000/svg" xmlns:xlink="http://www.w3.org/1999/xlink" x="0px" y="0px"
	 width="48px" height="48px" viewBox="0 0 48 48" enable-background="new 0 0 48 48" xml:space="preserve">
<path d="M40.3,7.7C35.9,3.4,30.1,1,24,1S12.1,3.4,7.7,7.7C3.4,12.1,1,17.9,1,24s2.4,11.9,6.7,16.3C12.1,44.6,17.9,47,24,47
	s11.9-2.4,16.3-6.7C44.6,35.9,47,30.1,47,24S44.6,12.1,40.3,7.7z M9.2,9.2c4-4,9.2-6.2,14.8-6.2c5.3,0,10.2,2,14.1,5.5L8.5,38.1
	C5,34.2,3,29.3,3,24C3,18.4,5.2,13.1,9.2,9.2z"/>
</svg>
