<?xml version="1.0" encoding="utf-8"?>
<!-- Generator: Adobe Illustrator 19.1.0, SVG Export Plug-In . SVG Version: 6.00 Build 0)  -->
<!DOCTYPE svg PUBLIC "-//W3C//DTD SVG 1.1//EN" "http://www.w3.org/Graphics/SVG/1.1/DTD/svg11.dtd">
<svg version="1.1" id="Layer_1" xmlns="http://www.w3.org/2000/svg" xmlns:xlink="http://www.w3.org/1999/xlink" x="0px" y="0px"
	 width="48px" height="48px" viewBox="0 0 48 48" enable-background="new 0 0 48 48" xml:space="preserve">
<path d="M46,1c-0.6,0-1,0.4-1,1v5h-6V2c0-0.6-0.4-1-1-1H10C9.4,1,9,1.4,9,2v5H3V2c0-0.6-0.4-1-1-1S1,1.4,1,2v44c0,0.6,0.4,1,1,1
	s1-0.4,1-1v-5h6v5c0,0.6,0.4,1,1,1h28c0.6,0,1-0.4,1-1v-5h6v5c0,0.6,0.4,1,1,1s1-0.4,1-1V2C47,1.4,46.6,1,46,1z M39,17h6v6h-6V17z
	 M9,23H3v-6h6V23z M3,25h6v6H3V25z M39,25h6v6h-6V25z M45,9v6h-6V9H45z M9,9v6H3V9H9z M3,39v-6h6v6H3z M39,39v-6h6v6H39z"/>
</svg>
