<?xml version="1.0" encoding="utf-8"?>
<!-- Generator: Adobe Illustrator 19.1.0, SVG Export Plug-In . SVG Version: 6.00 Build 0)  -->
<!DOCTYPE svg PUBLIC "-//W3C//DTD SVG 1.1//EN" "http://www.w3.org/Graphics/SVG/1.1/DTD/svg11.dtd">
<svg version="1.1" id="Layer_1" xmlns="http://www.w3.org/2000/svg" xmlns:xlink="http://www.w3.org/1999/xlink" x="0px" y="0px"
	 width="48px" height="48px" viewBox="0 0 48 48" enable-background="new 0 0 48 48" xml:space="preserve">
<path d="M24,5H2C1.4,5,1,4.6,1,4s0.4-1,1-1h22c0.6,0,1,0.4,1,1S24.6,5,24,5z"/>
<path d="M24,45H2c-0.6,0-1-0.4-1-1s0.4-1,1-1h22c0.6,0,1,0.4,1,1S24.6,45,24,45z"/>
<path d="M24,7H2C1.4,7,1,7.4,1,8v32c0,0.6,0.4,1,1,1h22c0.6,0,1-0.4,1-1V8C25,7.4,24.6,7,24,7z M9,32c0,0.6-0.4,1-1,1s-1-0.4-1-1V16
	c0-0.6,0.4-1,1-1s1,0.4,1,1V32z"/>
<path d="M46,11H28c-0.6,0-1,0.4-1,1v24c0,0.6,0.4,1,1,1h10c0.6,0,1-0.4,1-1c0-3.9,3.1-7,7-7c0.6,0,1-0.4,1-1V12
	C47,11.4,46.6,11,46,11z M34,31h-2c-0.6,0-1-0.4-1-1s0.4-1,1-1h2c0.6,0,1,0.4,1,1S34.6,31,34,31z M34,19h-2c-0.6,0-1-0.4-1-1
	s0.4-1,1-1h2c0.6,0,1,0.4,1,1S34.6,19,34,19z M42,19h-2c-0.6,0-1-0.4-1-1s0.4-1,1-1h2c0.6,0,1,0.4,1,1S42.6,19,42,19z"/>
</svg>
