<?xml version="1.0" encoding="utf-8"?>
<!-- Generator: Adobe Illustrator 19.1.0, SVG Export Plug-In . SVG Version: 6.00 Build 0)  -->
<!DOCTYPE svg PUBLIC "-//W3C//DTD SVG 1.1//EN" "http://www.w3.org/Graphics/SVG/1.1/DTD/svg11.dtd">
<svg version="1.1" id="Layer_1" xmlns="http://www.w3.org/2000/svg" xmlns:xlink="http://www.w3.org/1999/xlink" x="0px" y="0px"
	 width="48px" height="48px" viewBox="0 0 48 48" enable-background="new 0 0 48 48" xml:space="preserve">
<path d="M2,35c-0.6,0-1-0.4-1-1V14c0-0.6,0.4-1,1-1s1,0.4,1,1v20C3,34.6,2.6,35,2,35z"/>
<path d="M46,35c-0.6,0-1-0.4-1-1V14c0-0.6,0.4-1,1-1s1,0.4,1,1v20C47,34.6,46.6,35,46,35z"/>
<path d="M40,7H8C7.4,7,7,7.4,7,8v32c0,0.6,0.4,1,1,1h32c0.6,0,1-0.4,1-1V8C41,7.4,40.6,7,40,7z M33,28c0,0.1,0,0.2-0.1,0.3
	c0,0.2,0.1,0.4,0.1,0.7c0,2.2-1.8,4-4,4s-4-1.8-4-4s1.8-4,4-4c0.7,0,1.4,0.2,2,0.6V17H21v11c0,0.1,0,0.2-0.1,0.3
	c0,0.2,0.1,0.4,0.1,0.7c0,2.2-1.8,4-4,4s-4-1.8-4-4s1.8-4,4-4c0.7,0,1.4,0.2,2,0.6V16c0-0.6,0.4-1,1-1h12c0.6,0,1,0.4,1,1V28z"/>
</svg>
