<?xml version="1.0" encoding="utf-8"?>
<!-- Generator: Adobe Illustrator 19.1.0, SVG Export Plug-In . SVG Version: 6.00 Build 0)  -->
<!DOCTYPE svg PUBLIC "-//W3C//DTD SVG 1.1//EN" "http://www.w3.org/Graphics/SVG/1.1/DTD/svg11.dtd">
<svg version="1.1" id="Layer_1" xmlns="http://www.w3.org/2000/svg" xmlns:xlink="http://www.w3.org/1999/xlink" x="0px" y="0px"
	 width="48px" height="48px" viewBox="0 0 48 48" enable-background="new 0 0 48 48" xml:space="preserve">
<path d="M4,23H2c-0.6,0-1,0.4-1,1s0.4,1,1,1h2c0.6,0,1-0.4,1-1S4.6,23,4,23z"/>
<path d="M9.2,7.7c-0.4-0.4-1-0.4-1.4,0s-0.4,1,0,1.4l1.4,1.4c0.2,0.2,0.5,0.3,0.7,0.3s0.5-0.1,0.7-0.3c0.4-0.4,0.4-1,0-1.4L9.2,7.7z
	"/>
<path d="M24,5c0.6,0,1-0.4,1-1V2c0-0.6-0.4-1-1-1s-1,0.4-1,1v2C23,4.6,23.4,5,24,5z"/>
<path d="M38.8,7.7l-1.4,1.4c-0.4,0.4-0.4,1,0,1.4c0.2,0.2,0.5,0.3,0.7,0.3s0.5-0.1,0.7-0.3l1.4-1.4c0.4-0.4,0.4-1,0-1.4
	S39.2,7.3,38.8,7.7z"/>
<path d="M46,23h-2c-0.6,0-1,0.4-1,1s0.4,1,1,1h2c0.6,0,1-0.4,1-1S46.6,23,46,23z"/>
<path d="M38.8,37.4c-0.4-0.4-1-0.4-1.4,0s-0.4,1,0,1.4l1.4,1.4c0.2,0.2,0.5,0.3,0.7,0.3c0.3,0,0.5-0.1,0.7-0.3c0.4-0.4,0.4-1,0-1.4
	L38.8,37.4z"/>
<path d="M24,43c-0.6,0-1,0.4-1,1v2c0,0.6,0.4,1,1,1s1-0.4,1-1v-2C25,43.4,24.6,43,24,43z"/>
<path d="M9.2,37.4l-1.4,1.4c-0.4,0.4-0.4,1,0,1.4c0.2,0.2,0.5,0.3,0.7,0.3c0.3,0,0.5-0.1,0.7-0.3l1.4-1.4c0.4-0.4,0.4-1,0-1.4
	S9.5,37,9.2,37.4z"/>
<path d="M24,11c-7.2,0-13,5.8-13,13s5.8,13,13,13s13-5.8,13-13S31.2,11,24,11z"/>
</svg>
