<?xml version="1.0" encoding="utf-8"?>
<!-- Generator: Adobe Illustrator 19.1.0, SVG Export Plug-In . SVG Version: 6.00 Build 0)  -->
<!DOCTYPE svg PUBLIC "-//W3C//DTD SVG 1.1//EN" "http://www.w3.org/Graphics/SVG/1.1/DTD/svg11.dtd">
<svg version="1.1" id="Layer_1" xmlns="http://www.w3.org/2000/svg" xmlns:xlink="http://www.w3.org/1999/xlink" x="0px" y="0px"
	 width="48px" height="48px" viewBox="0 0 48 48" enable-background="new 0 0 48 48" xml:space="preserve">
<path d="M40.5,29.1c-0.3-0.2-0.7-0.2-1,0l-14.5,9V24.9c6.7-0.5,12-6.1,12-12.9V4c0-0.4-0.2-0.7-0.5-0.9c-0.3-0.2-0.7-0.2-1,0L30,6.8
	l-5.4-3.6c-0.3-0.2-0.8-0.2-1.1,0L18,6.8l-5.4-3.6c-0.3-0.2-0.7-0.2-1,0C11.2,3.3,11,3.6,11,4v8c0,6.8,5.3,12.4,12,12.9v13.2
	l-14.5-9c-0.3-0.2-0.7-0.2-1,0C7.2,29.3,7,29.6,7,30v8c0,5,4,9,9,9h16c5,0,9-4,9-9v-8C41,29.6,40.8,29.3,40.5,29.1z"/>
</svg>
