<?xml version="1.0" encoding="utf-8"?>
<!-- Generator: Adobe Illustrator 19.1.0, SVG Export Plug-In . SVG Version: 6.00 Build 0)  -->
<!DOCTYPE svg PUBLIC "-//W3C//DTD SVG 1.1//EN" "http://www.w3.org/Graphics/SVG/1.1/DTD/svg11.dtd">
<svg version="1.1" id="Layer_1" xmlns="http://www.w3.org/2000/svg" xmlns:xlink="http://www.w3.org/1999/xlink" x="0px" y="0px"
	 width="48px" height="48px" viewBox="0 0 48 48" enable-background="new 0 0 48 48" xml:space="preserve">
<path d="M46,1H2C1.4,1,1,1.4,1,2v44c0,0.6,0.4,1,1,1h44c0.6,0,1-0.4,1-1V2C47,1.4,46.6,1,46,1z M20,9c2.8,0,5,2.2,5,5s-2.2,5-5,5
	s-5-2.2-5-5S17.2,9,20,9z M40,39C40,39,40,39,40,39H8c-0.4,0-0.7-0.2-0.9-0.5c-0.2-0.3-0.2-0.7,0-1l8-12c0.2-0.2,0.4-0.4,0.7-0.4
	c0.3,0,0.6,0.1,0.8,0.3l5.2,5.2l7.3-9.1c0.2-0.3,0.5-0.4,0.8-0.4c0.3,0,0.6,0.2,0.8,0.5l9.9,15.9c0.2,0.2,0.3,0.4,0.3,0.7
	C41,38.6,40.6,39,40,39z"/>
</svg>
