<?xml version="1.0" encoding="utf-8"?>
<!-- Generator: Adobe Illustrator 19.1.0, SVG Export Plug-In . SVG Version: 6.00 Build 0)  -->
<!DOCTYPE svg PUBLIC "-//W3C//DTD SVG 1.1//EN" "http://www.w3.org/Graphics/SVG/1.1/DTD/svg11.dtd">
<svg version="1.1" id="Layer_1" xmlns="http://www.w3.org/2000/svg" xmlns:xlink="http://www.w3.org/1999/xlink" x="0px" y="0px"
	 width="48px" height="48px" viewBox="0 0 48 48" enable-background="new 0 0 48 48" xml:space="preserve">
<path d="M28,3c-9.6,0-17.5,7-18.8,16.4C4.4,20.6,1,25,1,30c0,6.1,4.9,11,11,11h16c10.5,0,19-8.5,19-19S38.5,3,28,3z M35,28
	c0,0.1,0,0.2-0.1,0.3c0,0.2,0.1,0.4,0.1,0.7c0,2.2-1.8,4-4,4s-4-1.8-4-4s1.8-4,4-4c0.7,0,1.4,0.2,2,0.6V17H23v11
	c0,0.1,0,0.2-0.1,0.3c0,0.2,0.1,0.4,0.1,0.7c0,2.2-1.8,4-4,4s-4-1.8-4-4s1.8-4,4-4c0.7,0,1.4,0.2,2,0.6V16c0-0.6,0.4-1,1-1h12
	c0.6,0,1,0.4,1,1V28z"/>
</svg>
