<?xml version="1.0" encoding="utf-8"?>
<!-- Generator: Adobe Illustrator 19.1.0, SVG Export Plug-In . SVG Version: 6.00 Build 0)  -->
<!DOCTYPE svg PUBLIC "-//W3C//DTD SVG 1.1//EN" "http://www.w3.org/Graphics/SVG/1.1/DTD/svg11.dtd">
<svg version="1.1" id="Layer_1" xmlns="http://www.w3.org/2000/svg" xmlns:xlink="http://www.w3.org/1999/xlink" x="0px" y="0px"
	 width="48px" height="48px" viewBox="0 0 48 48" enable-background="new 0 0 48 48" xml:space="preserve">
<path d="M7,8V3h5c0.6,0,1-0.4,1-1s-0.4-1-1-1H6C5.4,1,5,1.4,5,2v6c0,0.6,0.4,1,1,1S7,8.6,7,8z"/>
<path d="M32,3h5v5c0,0.6,0.4,1,1,1s1-0.4,1-1V2c0-0.6-0.4-1-1-1h-6c-0.6,0-1,0.4-1,1S31.4,3,32,3z"/>
<path d="M38,22H26l0-11.8c0-2.1-1.5-4-3.6-4.2C20,5.8,18,7.7,18,10v22l-5.5-4.1C10.9,26.7,8.9,26.4,7,27l0,0
	c-1.5,0.5-2.2,2.3-1.3,3.7l9,14.8c0.2,0.3,0.5,0.5,0.9,0.5H41c0.6,0,1-0.4,1-1l0-19C42,23.8,40.2,22,38,22z"/>
</svg>
