<?xml version="1.0" encoding="utf-8"?>
<!-- Generator: Adobe Illustrator 19.1.0, SVG Export Plug-In . SVG Version: 6.00 Build 0)  -->
<!DOCTYPE svg PUBLIC "-//W3C//DTD SVG 1.1//EN" "http://www.w3.org/Graphics/SVG/1.1/DTD/svg11.dtd">
<svg version="1.1" id="Layer_1" xmlns="http://www.w3.org/2000/svg" xmlns:xlink="http://www.w3.org/1999/xlink" x="0px" y="0px"
	 width="48px" height="48px" viewBox="0 0 48 48" enable-background="new 0 0 48 48" xml:space="preserve">
<polygon points="19.4,16.2 15,24.1 19.5,31.9 28.6,31.8 33,23.9 28.5,16.1 "/>
<path d="M47,24C47,11.3,36.7,1,24,1S1,11.3,1,24s10.3,23,23,23S47,36.7,47,24z M40.6,36.8l-6.4-10.9L23.4,45c-0.7,0-1.5-0.1-2.2-0.2
	l6.2-11L5.5,34c-0.3-0.6-0.7-1.3-0.9-2l12.7-0.1L13,24.7c0,0,0,0,0-0.1L6.1,13c0.4-0.6,0.8-1.2,1.3-1.8l6.4,10.9L24.6,3
	c0.7,0,1.5,0.1,2.2,0.2l-6.2,11l8.3-0.1c0.1,0,0.2,0,0.2,0L42.5,14c0.3,0.6,0.7,1.3,0.9,2l-12.7,0.1L41.9,35
	C41.5,35.6,41.1,36.2,40.6,36.8z"/>
</svg>
