<?xml version="1.0" encoding="utf-8"?>
<!-- Generator: Adobe Illustrator 19.1.0, SVG Export Plug-In . SVG Version: 6.00 Build 0)  -->
<!DOCTYPE svg PUBLIC "-//W3C//DTD SVG 1.1//EN" "http://www.w3.org/Graphics/SVG/1.1/DTD/svg11.dtd">
<svg version="1.1" id="Layer_1" xmlns="http://www.w3.org/2000/svg" xmlns:xlink="http://www.w3.org/1999/xlink" x="0px" y="0px"
	 width="48px" height="48px" viewBox="0 0 48 48" enable-background="new 0 0 48 48" xml:space="preserve">
<path d="M28.4,3.1c-0.3-0.2-0.7-0.1-1,0.1L11.7,15H2c-0.6,0-1,0.4-1,1v16c0,0.6,0.4,1,1,1h9.7l15.7,11.8c0.2,0.1,0.4,0.2,0.6,0.2
	c0.2,0,0.3,0,0.4-0.1c0.3-0.2,0.6-0.5,0.6-0.9V4C29,3.6,28.8,3.3,28.4,3.1z"/>
<path d="M40,17c-3.9,0-7,3.1-7,7s3.1,7,7,7s7-3.1,7-7S43.9,17,40,17z M45,24c0,1-0.3,2-0.8,2.8l-6.9-6.9C38,19.3,39,19,40,19
	C42.8,19,45,21.2,45,24z M35,24c0-1,0.3-2,0.8-2.8l6.9,6.9C42,28.7,41,29,40,29C37.2,29,35,26.8,35,24z"/>
</svg>
