<?xml version="1.0" encoding="utf-8"?>
<!-- Generator: Adobe Illustrator 19.1.0, SVG Export Plug-In . SVG Version: 6.00 Build 0)  -->
<!DOCTYPE svg PUBLIC "-//W3C//DTD SVG 1.1//EN" "http://www.w3.org/Graphics/SVG/1.1/DTD/svg11.dtd">
<svg version="1.1" id="Layer_1" xmlns="http://www.w3.org/2000/svg" xmlns:xlink="http://www.w3.org/1999/xlink" x="0px" y="0px"
	 width="48px" height="48px" viewBox="0 0 48 48" enable-background="new 0 0 48 48" xml:space="preserve">
<path d="M2.7,25.3C2.5,25,2,24.9,1.6,25.1C1.3,25.2,1,25.6,1,26v18c0,0.6,0.4,1,1,1h16c0.4,0,0.8-0.2,0.9-0.6s0.1-0.8-0.2-1.1
	L2.7,25.3z"/>
<path d="M46.4,25.1c-0.4-0.1-0.8,0-1.1,0.3l-16,18c-0.3,0.3-0.3,0.7-0.2,1.1S29.6,45,30,45h16c0.6,0,1-0.4,1-1V26
	C47,25.6,46.7,25.2,46.4,25.1z"/>
<path d="M12,25h24c0.6,0,1-0.4,1-1V4c0-0.6-0.4-1-1-1H12c-0.6,0-1,0.4-1,1v20C11,24.6,11.4,25,12,25z"/>
</svg>
