<?xml version="1.0" encoding="utf-8"?>
<!-- Generator: Adobe Illustrator 19.1.0, SVG Export Plug-In . SVG Version: 6.00 Build 0)  -->
<!DOCTYPE svg PUBLIC "-//W3C//DTD SVG 1.1//EN" "http://www.w3.org/Graphics/SVG/1.1/DTD/svg11.dtd">
<svg version="1.1" id="Layer_1" xmlns="http://www.w3.org/2000/svg" xmlns:xlink="http://www.w3.org/1999/xlink" x="0px" y="0px"
	 width="48px" height="48px" viewBox="0 0 48 48" enable-background="new 0 0 48 48" xml:space="preserve">
<path d="M30.4,24C28,23.8,26,25.7,26,28l0-3.8c0-2.1-1.5-4-3.6-4.2C20,19.8,18,21.7,18,24l0-3.8c0-2.1-1.5-4-3.6-4.2
	C12,15.8,10,17.7,10,20v4c0-2.3-2-4.2-4.4-4C3.5,20.2,2,22.1,2,24.2L2,45c0,0.6,0.4,1,1,1h30c0.6,0,1-0.4,1-1l0-16.8
	C34,26.1,32.5,24.2,30.4,24z"/>
<path d="M28,9c-0.6,0-1,0.4-1,1s0.4,1,1,1c5,0,9,4,9,9c0,0.6,0.4,1,1,1s1-0.4,1-1C39,13.9,34.1,9,28,9z"/>
<path d="M28,1c-0.6,0-1,0.4-1,1s0.4,1,1,1c9.4,0,17,7.6,17,17c0,0.6,0.4,1,1,1s1-0.4,1-1C47,9.5,38.5,1,28,1z"/>
</svg>
