<?xml version="1.0" encoding="utf-8"?>
<!-- Generator: Adobe Illustrator 19.1.0, SVG Export Plug-In . SVG Version: 6.00 Build 0)  -->
<!DOCTYPE svg PUBLIC "-//W3C//DTD SVG 1.1//EN" "http://www.w3.org/Graphics/SVG/1.1/DTD/svg11.dtd">
<svg version="1.1" id="Layer_1" xmlns="http://www.w3.org/2000/svg" xmlns:xlink="http://www.w3.org/1999/xlink" x="0px" y="0px"
	 width="48px" height="48px" viewBox="0 0 48 48" enable-background="new 0 0 48 48" xml:space="preserve">
<path d="M40,1H8C7.4,1,7,1.4,7,2v44c0,0.6,0.4,1,1,1h32c0.6,0,1-0.4,1-1V2C41,1.4,40.6,1,40,1z M24,7c2.8,0,5,2.2,5,5s-2.2,5-5,5
	s-5-2.2-5-5S21.2,7,24,7z M24,39c-5,0-9-4-9-9s4-9,9-9s9,4,9,9S29,39,24,39z"/>
<circle cx="24" cy="30" r="3"/>
</svg>
