<?xml version="1.0" encoding="utf-8"?>
<!-- Generator: Adobe Illustrator 19.1.0, SVG Export Plug-In . SVG Version: 6.00 Build 0)  -->
<!DOCTYPE svg PUBLIC "-//W3C//DTD SVG 1.1//EN" "http://www.w3.org/Graphics/SVG/1.1/DTD/svg11.dtd">
<svg version="1.1" id="Layer_1" xmlns="http://www.w3.org/2000/svg" xmlns:xlink="http://www.w3.org/1999/xlink" x="0px" y="0px"
	 width="48px" height="48px" viewBox="0 0 48 48" enable-background="new 0 0 48 48" xml:space="preserve">
<path d="M34,13H2c-0.6,0-1,0.4-1,1v32c0,0.6,0.4,1,1,1h32c0.6,0,1-0.4,1-1V14C35,13.4,34.6,13,34,13z"/>
<path d="M40,7H8C7.4,7,7,7.4,7,8v2c0,0.6,0.4,1,1,1h29v29c0,0.6,0.4,1,1,1h2c0.6,0,1-0.4,1-1V8C41,7.4,40.6,7,40,7z"/>
<path d="M46,1H14c-0.6,0-1,0.4-1,1v2c0,0.6,0.4,1,1,1h29v29c0,0.6,0.4,1,1,1h2c0.6,0,1-0.4,1-1V2C47,1.4,46.6,1,46,1z"/>
</svg>
