<?xml version="1.0" encoding="utf-8"?>
<!-- Generator: Adobe Illustrator 19.1.0, SVG Export Plug-In . SVG Version: 6.00 Build 0)  -->
<!DOCTYPE svg PUBLIC "-//W3C//DTD SVG 1.1//EN" "http://www.w3.org/Graphics/SVG/1.1/DTD/svg11.dtd">
<svg version="1.1" id="Layer_1" xmlns="http://www.w3.org/2000/svg" xmlns:xlink="http://www.w3.org/1999/xlink" x="0px" y="0px"
	 width="48px" height="48px" viewBox="0 0 48 48" enable-background="new 0 0 48 48" xml:space="preserve">
<path d="M28.4,3.1c-0.3-0.2-0.7-0.1-1,0.1L11.7,15H2c-0.6,0-1,0.4-1,1v16c0,0.6,0.4,1,1,1h9.7l15.7,11.8c0.2,0.1,0.4,0.2,0.6,0.2
	c0.2,0,0.3,0,0.4-0.1c0.3-0.2,0.6-0.5,0.6-0.9V4C29,3.6,28.8,3.3,28.4,3.1z"/>
<path d="M46,23h-8c-0.6,0-1,0.4-1,1s0.4,1,1,1h8c0.6,0,1-0.4,1-1S46.6,23,46,23z"/>
<path d="M35.3,15c0.2,0,0.3,0,0.5-0.1l6.9-4c0.5-0.3,0.6-0.9,0.4-1.4c-0.3-0.5-0.9-0.6-1.4-0.4l-6.9,4c-0.5,0.3-0.6,0.9-0.4,1.4
	C34.6,14.8,35,15,35.3,15z"/>
<path d="M42.7,37.1l-6.9-4c-0.5-0.3-1.1-0.1-1.4,0.4c-0.3,0.5-0.1,1.1,0.4,1.4l6.9,4c0.2,0.1,0.3,0.1,0.5,0.1c0.3,0,0.7-0.2,0.9-0.5
	C43.4,38,43.2,37.4,42.7,37.1z"/>
</svg>
