<?xml version="1.0" encoding="utf-8"?>
<!-- Generator: Adobe Illustrator 19.1.0, SVG Export Plug-In . SVG Version: 6.00 Build 0)  -->
<!DOCTYPE svg PUBLIC "-//W3C//DTD SVG 1.1//EN" "http://www.w3.org/Graphics/SVG/1.1/DTD/svg11.dtd">
<svg version="1.1" id="Layer_1" xmlns="http://www.w3.org/2000/svg" xmlns:xlink="http://www.w3.org/1999/xlink" x="0px" y="0px"
	 width="48px" height="48px" viewBox="0 0 48 48" enable-background="new 0 0 48 48" xml:space="preserve">
<path d="M32.5,3.1c-0.3-0.2-0.7-0.2-1,0L15.7,13H8c-3.9,0-7,3.1-7,7s3.1,7,7,7h7.7l15.8,9.8c0.2,0.1,0.3,0.2,0.5,0.2
	c0.2,0,0.3,0,0.5-0.1c0.3-0.2,0.5-0.5,0.5-0.9V4C33,3.6,32.8,3.3,32.5,3.1z"/>
<path d="M46,21h-4c-0.6,0-1-0.4-1-1s0.4-1,1-1h4c0.6,0,1,0.4,1,1S46.6,21,46,21z"/>
<path d="M39.6,12c-0.3,0-0.7-0.2-0.9-0.5c-0.3-0.5-0.1-1.1,0.4-1.4l3.5-2C43,7.9,43.6,8,43.9,8.5C44.2,9,44,9.6,43.6,9.9l-3.5,2
	C39.9,12,39.8,12,39.6,12z"/>
<path d="M43.1,32c-0.2,0-0.3,0-0.5-0.1l-3.5-2c-0.5-0.3-0.6-0.9-0.4-1.4c0.3-0.5,0.9-0.6,1.4-0.4l3.5,2c0.5,0.3,0.6,0.9,0.4,1.4
	C43.7,31.8,43.4,32,43.1,32z"/>
<path d="M16,29.5L15.1,29H8c-0.5,0-1-0.1-1.5-0.1l6,13.5c0.7,1.6,2.2,2.5,3.9,2.5c0.6,0,1.2-0.1,1.7-0.4c2.1-0.9,3.1-3.4,2.1-5.6
	L16,29.5z"/>
</svg>
