<?xml version="1.0" encoding="utf-8"?>
<!-- Generator: Adobe Illustrator 19.1.0, SVG Export Plug-In . SVG Version: 6.00 Build 0)  -->
<!DOCTYPE svg PUBLIC "-//W3C//DTD SVG 1.1//EN" "http://www.w3.org/Graphics/SVG/1.1/DTD/svg11.dtd">
<svg version="1.1" id="Layer_1" xmlns="http://www.w3.org/2000/svg" xmlns:xlink="http://www.w3.org/1999/xlink" x="0px" y="0px"
	 width="48px" height="48px" viewBox="0 0 48 48" enable-background="new 0 0 48 48" xml:space="preserve">
<path d="M44,1H4C3.4,1,3,1.4,3,2v44c0,0.6,0.4,1,1,1h40c0.6,0,1-0.4,1-1V2C45,1.4,44.6,1,44,1z M39,32c0,0.6-0.4,1-1,1H10
	c-0.6,0-1-0.4-1-1V8c0-0.6,0.4-1,1-1h28c0.6,0,1,0.4,1,1V32z"/>
<path d="M28,19h-3v-3c0-0.6-0.4-1-1-1s-1,0.4-1,1v3h-3c-0.6,0-1,0.4-1,1s0.4,1,1,1h3v3c0,0.6,0.4,1,1,1s1-0.4,1-1v-3h3
	c0.6,0,1-0.4,1-1S28.6,19,28,19z"/>
</svg>
