<?xml version="1.0" encoding="utf-8"?>
<!-- Generator: Adobe Illustrator 19.1.0, SVG Export Plug-In . SVG Version: 6.00 Build 0)  -->
<!DOCTYPE svg PUBLIC "-//W3C//DTD SVG 1.1//EN" "http://www.w3.org/Graphics/SVG/1.1/DTD/svg11.dtd">
<svg version="1.1" id="Layer_1" xmlns="http://www.w3.org/2000/svg" xmlns:xlink="http://www.w3.org/1999/xlink" x="0px" y="0px"
	 width="48px" height="48px" viewBox="0 0 48 48" enable-background="new 0 0 48 48" xml:space="preserve">
<path d="M38.9,15.6C38.7,15.2,38.4,15,38,15H27.3L31,2.3C31,2,31,1.6,30.8,1.4S30.3,1,30,1H16c-0.5,0-0.8,0.3-1,0.7l-6,22
	C9,24,9,24.4,9.2,24.6C9.4,24.9,9.7,25,10,25h10.7L17,39.8c-0.1,0.5,0.1,0.9,0.5,1.1C17.7,41,17.8,41,18,41c0.3,0,0.6-0.1,0.8-0.4
	l20-24C39,16.3,39.1,15.9,38.9,15.6z"/>
<path d="M38.8,33.4c-0.4-0.6-1.3-0.6-1.7,0l-8,12c-0.3,0.5-0.2,1.1,0.3,1.4s1.1,0.2,1.4-0.3l2.4-3.6h9.6l2.4,3.6
	c0.2,0.3,0.5,0.4,0.8,0.4c0.2,0,0.4-0.1,0.6-0.2c0.5-0.3,0.6-0.9,0.3-1.4L38.8,33.4z M34.5,41l3.5-5.2l3.5,5.2H34.5z"/>
</svg>
