<?xml version="1.0" encoding="utf-8"?>
<!-- Generator: Adobe Illustrator 19.1.0, SVG Export Plug-In . SVG Version: 6.00 Build 0)  -->
<!DOCTYPE svg PUBLIC "-//W3C//DTD SVG 1.1//EN" "http://www.w3.org/Graphics/SVG/1.1/DTD/svg11.dtd">
<svg version="1.1" id="Layer_1" xmlns="http://www.w3.org/2000/svg" xmlns:xlink="http://www.w3.org/1999/xlink" x="0px" y="0px"
	 width="48px" height="48px" viewBox="0 0 48 48" enable-background="new 0 0 48 48" xml:space="preserve">
<path d="M42.5,34.5C41,34.8,39.5,35,38,35c-5.6,0-10.9-2.2-14.8-6.1C16.3,22,15,11.4,20.1,3.1c0.2-0.3,0.2-0.8,0-1.1
	c-0.2-0.3-0.6-0.5-1-0.4c-4.3,0.9-8.2,3.1-11.3,6.2c-9,9-9,23.6,0,32.5C12.1,44.6,17.9,47,24,47s11.9-2.4,16.3-6.7
	c1.2-1.2,2.4-2.7,3.3-4.3c0.2-0.3,0.2-0.8,0-1.1C43.3,34.6,42.9,34.4,42.5,34.5z"/>
<path d="M44.6,19.2c-2.4-2.5-2.3-8,0.1-10.5C44.9,8.5,45,8.3,45,8s-0.1-0.5-0.3-0.7c-0.4-0.4-1-0.4-1.4,0c-1.2,1.2-3.1,1.9-5.3,1.9
	s-4.1-0.7-5.3-1.9c-0.4-0.4-1-0.4-1.4,0C31.1,7.5,31,7.7,31,8s0.1,0.5,0.3,0.7c2.5,2.5,2.5,8.1,0,10.6C31.1,19.5,31,19.7,31,20
	s0.1,0.5,0.3,0.7c0.4,0.4,1,0.4,1.4,0c1.2-1.2,3.1-1.9,5.3-1.9s4.1,0.7,5.3,1.9c0.2,0.2,0.5,0.3,0.7,0.3c0,0,0,0,0,0
	c0.6,0,1-0.4,1-1C45,19.7,44.9,19.4,44.6,19.2z"/>
</svg>
