<?xml version="1.0" encoding="utf-8"?>
<!-- Generator: Adobe Illustrator 19.1.0, SVG Export Plug-In . SVG Version: 6.00 Build 0)  -->
<!DOCTYPE svg PUBLIC "-//W3C//DTD SVG 1.1//EN" "http://www.w3.org/Graphics/SVG/1.1/DTD/svg11.dtd">
<svg version="1.1" id="Layer_1" xmlns="http://www.w3.org/2000/svg" xmlns:xlink="http://www.w3.org/1999/xlink" x="0px" y="0px"
	 width="48px" height="48px" viewBox="0 0 48 48" enable-background="new 0 0 48 48" xml:space="preserve">
<path d="M34.5,7.8c-0.5-0.3-1.1-0.1-1.4,0.4c-0.3,0.5-0.1,1.1,0.4,1.4C39.4,12.9,43,19.2,43,26c0,10.5-8.5,19-19,19S5,36.5,5,26
	c0-6.8,3.6-13.1,9.5-16.5c0.5-0.3,0.6-0.9,0.4-1.4S14,7.5,13.5,7.8C7,11.6,3,18.5,3,26c0,11.6,9.4,21,21,21s21-9.4,21-21
	C45,18.5,41,11.6,34.5,7.8z"/>
<path d="M24,17c0.6,0,1-0.4,1-1V2c0-0.6-0.4-1-1-1s-1,0.4-1,1v14C23,16.6,23.4,17,24,17z"/>
</svg>
