<?xml version="1.0" encoding="utf-8"?>
<!-- Generator: Adobe Illustrator 19.1.0, SVG Export Plug-In . SVG Version: 6.00 Build 0)  -->
<!DOCTYPE svg PUBLIC "-//W3C//DTD SVG 1.1//EN" "http://www.w3.org/Graphics/SVG/1.1/DTD/svg11.dtd">
<svg version="1.1" id="Layer_1" xmlns="http://www.w3.org/2000/svg" xmlns:xlink="http://www.w3.org/1999/xlink" x="0px" y="0px"
	 width="48px" height="48px" viewBox="0 0 48 48" enable-background="new 0 0 48 48" xml:space="preserve">
<path d="M2.6,7.2C2.3,7,1.9,6.9,1.6,7.1C1.2,7.3,1,7.6,1,8v32c0,0.4,0.2,0.7,0.6,0.9C1.7,41,1.9,41,2,41c0.2,0,0.4-0.1,0.6-0.2
	l20-16c0.2-0.2,0.4-0.5,0.4-0.8s-0.1-0.6-0.4-0.8L2.6,7.2z"/>
<path d="M24.6,7.2c-0.3-0.2-0.7-0.3-1.1-0.1C23.2,7.3,23,7.6,23,8v16v16c0,0.4,0.2,0.7,0.6,0.9C23.7,41,23.9,41,24,41
	c0.2,0,0.4-0.1,0.6-0.2l20-16c0.2-0.2,0.4-0.5,0.4-0.8s-0.1-0.6-0.4-0.8L24.6,7.2z"/>
</svg>
