<?xml version="1.0" encoding="utf-8"?>
<!-- Generator: Adobe Illustrator 19.1.0, SVG Export Plug-In . SVG Version: 6.00 Build 0)  -->
<!DOCTYPE svg PUBLIC "-//W3C//DTD SVG 1.1//EN" "http://www.w3.org/Graphics/SVG/1.1/DTD/svg11.dtd">
<svg version="1.1" id="Layer_1" xmlns="http://www.w3.org/2000/svg" xmlns:xlink="http://www.w3.org/1999/xlink" x="0px" y="0px"
	 width="48px" height="48px" viewBox="0 0 48 48" enable-background="new 0 0 48 48" xml:space="preserve">
<path d="M24,27c6.1,0,11-4.9,11-11S30.1,5,24,5S13,9.9,13,16S17.9,27,24,27z"/>
<path d="M32,33H16c-5,0-9,4-9,9v4c0,0.6,0.4,1,1,1h32c0.6,0,1-0.4,1-1v-4C41,37,37,33,32,33z"/>
<path d="M4,9c0.6,0,1-0.4,1-1V3h5c0.6,0,1-0.4,1-1s-0.4-1-1-1H4C3.4,1,3,1.4,3,2v6C3,8.6,3.4,9,4,9z"/>
<path d="M11,28c0-0.6-0.4-1-1-1H5v-5c0-0.6-0.4-1-1-1s-1,0.4-1,1v6c0,0.6,0.4,1,1,1h6C10.6,29,11,28.6,11,28z"/>
<path d="M44,21c-0.6,0-1,0.4-1,1v5h-5c-0.6,0-1,0.4-1,1s0.4,1,1,1h6c0.6,0,1-0.4,1-1v-6C45,21.4,44.6,21,44,21z"/>
<path d="M44,1h-6c-0.6,0-1,0.4-1,1s0.4,1,1,1h5v5c0,0.6,0.4,1,1,1s1-0.4,1-1V2C45,1.4,44.6,1,44,1z"/>
</svg>
