<?xml version="1.0" encoding="utf-8"?>
<!-- Generator: Adobe Illustrator 19.1.0, SVG Export Plug-In . SVG Version: 6.00 Build 0)  -->
<!DOCTYPE svg PUBLIC "-//W3C//DTD SVG 1.1//EN" "http://www.w3.org/Graphics/SVG/1.1/DTD/svg11.dtd">
<svg version="1.1" id="Layer_1" xmlns="http://www.w3.org/2000/svg" xmlns:xlink="http://www.w3.org/1999/xlink" x="0px" y="0px"
	 width="48px" height="48px" viewBox="0 0 48 48" enable-background="new 0 0 48 48" xml:space="preserve">
<path d="M25,5.1V2c0-0.6-0.4-1-1-1s-1,0.4-1,1v30.4c-1.7-2-4.2-3.4-7-3.4c-5,0-9,4-9,9s4,9,9,9s9-4,9-9V16.8c2-0.4,8-1.3,14.5,2.1
	C39.7,19,39.8,19,40,19c0.2,0,0.5-0.1,0.6-0.2c0.3-0.3,0.4-0.7,0.3-1.1C37.7,7.4,28.1,5.4,25,5.1z"/>
</svg>
