<?xml version="1.0" encoding="utf-8"?>
<!-- Generator: Adobe Illustrator 19.1.0, SVG Export Plug-In . SVG Version: 6.00 Build 0)  -->
<!DOCTYPE svg PUBLIC "-//W3C//DTD SVG 1.1//EN" "http://www.w3.org/Graphics/SVG/1.1/DTD/svg11.dtd">
<svg version="1.1" id="Layer_1" xmlns="http://www.w3.org/2000/svg" xmlns:xlink="http://www.w3.org/1999/xlink" x="0px" y="0px"
	 width="48px" height="48px" viewBox="0 0 48 48" enable-background="new 0 0 48 48" xml:space="preserve">
<path d="M29,33H19c-0.6,0-1-0.4-1-1s0.4-1,1-1h10c0.6,0,1,0.4,1,1S29.6,33,29,33z"/>
<path d="M24,39h-5c-0.6,0-1-0.4-1-1s0.4-1,1-1h5c0.6,0,1,0.4,1,1S24.6,39,24,39z"/>
<path d="M44,1H16c-0.3,0-0.5,0.1-0.7,0.3l-12,12C3.1,13.5,3,13.7,3,14v32c0,0.6,0.4,1,1,1h7V24c0-0.6,0.4-1,1-1h24c0.6,0,1,0.4,1,1
	v23h7c0.6,0,1-0.4,1-1V2C45,1.4,44.6,1,44,1z M21,12c0,0.6-0.4,1-1,1s-1-0.4-1-1V8c0-0.6,0.4-1,1-1s1,0.4,1,1V12z M29,12
	c0,0.6-0.4,1-1,1s-1-0.4-1-1V8c0-0.6,0.4-1,1-1s1,0.4,1,1V12z M37,12c0,0.6-0.4,1-1,1s-1-0.4-1-1V8c0-0.6,0.4-1,1-1s1,0.4,1,1V12z"
	/>
</svg>
