<?xml version="1.0" encoding="utf-8"?>
<!-- Generator: Adobe Illustrator 19.1.0, SVG Export Plug-In . SVG Version: 6.00 Build 0)  -->
<!DOCTYPE svg PUBLIC "-//W3C//DTD SVG 1.1//EN" "http://www.w3.org/Graphics/SVG/1.1/DTD/svg11.dtd">
<svg version="1.1" id="Layer_1" xmlns="http://www.w3.org/2000/svg" xmlns:xlink="http://www.w3.org/1999/xlink" x="0px" y="0px"
	 width="48px" height="48px" viewBox="0 0 48 48" enable-background="new 0 0 48 48" xml:space="preserve">
<path d="M46,9h-7.5l-3.7-5.6C34.6,3.2,34.3,3,34,3H22c-0.3,0-0.6,0.2-0.8,0.4L17.5,9H2c-0.6,0-1,0.4-1,1v34c0,0.6,0.4,1,1,1h44
	c0.6,0,1-0.4,1-1V10C47,9.4,46.6,9,46,9z M12,19h-2c-0.6,0-1-0.4-1-1s0.4-1,1-1h2c0.6,0,1,0.4,1,1S12.6,19,12,19z M28,37
	c-6.1,0-11-4.9-11-11s4.9-11,11-11s11,4.9,11,11S34.1,37,28,37z"/>
</svg>
