<?xml version="1.0" encoding="utf-8"?>
<!-- Generator: Adobe Illustrator 19.1.0, SVG Export Plug-In . SVG Version: 6.00 Build 0)  -->
<!DOCTYPE svg PUBLIC "-//W3C//DTD SVG 1.1//EN" "http://www.w3.org/Graphics/SVG/1.1/DTD/svg11.dtd">
<svg version="1.1" id="Layer_1" xmlns="http://www.w3.org/2000/svg" xmlns:xlink="http://www.w3.org/1999/xlink" x="0px" y="0px"
	 width="48px" height="48px" viewBox="0 0 48 48" enable-background="new 0 0 48 48" xml:space="preserve">
<rect x="1" y="17" width="14" height="12"/>
<rect x="17" y="1" width="12" height="14"/>
<rect x="17" y="17" width="12" height="12"/>
<rect x="17" y="31" width="12" height="14"/>
<rect x="31" y="17" width="14" height="12"/>
<path d="M15,31H1v13c0,0.6,0.4,1,1,1h13V31z"/>
<path d="M31,15h14V2c0-0.6-0.4-1-1-1H31V15z"/>
<path d="M31,31v14h13c0.6,0,1-0.4,1-1V31H31z"/>
<path d="M15,15V1H2C1.4,1,1,1.4,1,2v13H15z"/>
</svg>
