<?xml version="1.0" encoding="utf-8"?>
<!-- Generator: Adobe Illustrator 19.1.0, SVG Export Plug-In . SVG Version: 6.00 Build 0)  -->
<!DOCTYPE svg PUBLIC "-//W3C//DTD SVG 1.1//EN" "http://www.w3.org/Graphics/SVG/1.1/DTD/svg11.dtd">
<svg version="1.1" id="Layer_1" xmlns="http://www.w3.org/2000/svg" xmlns:xlink="http://www.w3.org/1999/xlink" x="0px" y="0px"
	 width="48px" height="48px" viewBox="0 0 48 48" enable-background="new 0 0 48 48" xml:space="preserve">
<path d="M14,3H2C1.4,3,1,3.4,1,4v12c0,0.6,0.4,1,1,1s1-0.4,1-1V5h11c0.6,0,1-0.4,1-1S14.6,3,14,3z"/>
<path d="M46,3H34c-0.6,0-1,0.4-1,1s0.4,1,1,1h11v11c0,0.6,0.4,1,1,1s1-0.4,1-1V4C47,3.4,46.6,3,46,3z"/>
<path d="M46,31c-0.6,0-1,0.4-1,1v11H34c-0.6,0-1,0.4-1,1s0.4,1,1,1h12c0.6,0,1-0.4,1-1V32C47,31.4,46.6,31,46,31z"/>
<path d="M14,43H3V32c0-0.6-0.4-1-1-1s-1,0.4-1,1v12c0,0.6,0.4,1,1,1h12c0.6,0,1-0.4,1-1S14.6,43,14,43z"/>
<path d="M24,17c-3.9,0-7,3.1-7,7s3.1,7,7,7s7-3.1,7-7S27.9,17,24,17z"/>
</svg>
