<?xml version="1.0" encoding="utf-8"?>
<!-- Generator: Adobe Illustrator 19.1.0, SVG Export Plug-In . SVG Version: 6.00 Build 0)  -->
<!DOCTYPE svg PUBLIC "-//W3C//DTD SVG 1.1//EN" "http://www.w3.org/Graphics/SVG/1.1/DTD/svg11.dtd">
<svg version="1.1" id="Layer_1" xmlns="http://www.w3.org/2000/svg" xmlns:xlink="http://www.w3.org/1999/xlink" x="0px" y="0px"
	 width="48px" height="48px" viewBox="0 0 48 48" enable-background="new 0 0 48 48" xml:space="preserve">
<path d="M32.4,17c1.5,1.2,3.5,2,5.6,2c5,0,9-4,9-9s-4-9-9-9s-9,4-9,9c0,2.1,0.7,4.1,2,5.6l-3,3l-7.3-7.3c-0.2-0.2-0.6-0.4-0.9-0.3
	l-8,2c-0.5,0.1-0.9,0.7-0.7,1.2c0.1,0.5,0.7,0.9,1.2,0.7l7.5-1.9l6.9,6.9L3.3,43.3c-0.4,0.4-0.4,1,0,1.4C3.5,44.9,3.7,45,4,45
	s0.5-0.1,0.7-0.3L18,31.4l8.2,8.2l-8.6,3.4c-0.5,0.2-0.8,0.8-0.6,1.3c0.2,0.4,0.5,0.6,0.9,0.6c0.1,0,0.2,0,0.4-0.1l10-4
	c0.3-0.1,0.5-0.4,0.6-0.7c0.1-0.3,0-0.7-0.3-0.9L19.4,30l6.6-6.6l7.3,7.3c0.2,0.2,0.5,0.3,0.7,0.3s0.5-0.1,0.7-0.3l6-6
	c0.4-0.4,0.4-1,0-1.4s-1-0.4-1.4,0L34,28.6L27.4,22L32.4,17z"/>
</svg>
