<?xml version="1.0" encoding="utf-8"?>
<!-- Generator: Adobe Illustrator 19.1.0, SVG Export Plug-In . SVG Version: 6.00 Build 0)  -->
<!DOCTYPE svg PUBLIC "-//W3C//DTD SVG 1.1//EN" "http://www.w3.org/Graphics/SVG/1.1/DTD/svg11.dtd">
<svg version="1.1" id="Layer_1" xmlns="http://www.w3.org/2000/svg" xmlns:xlink="http://www.w3.org/1999/xlink" x="0px" y="0px"
	 width="48px" height="48px" viewBox="0 0 48 48" enable-background="new 0 0 48 48" xml:space="preserve">
<path d="M46,1H2C1.4,1,1,1.4,1,2v44c0,0.6,0.4,1,1,1h44c0.6,0,1-0.4,1-1V2C47,1.4,46.6,1,46,1z M26,41c-2.4,0-4.4-1.7-4.9-4H8
	c-0.6,0-1-0.4-1-1s0.4-1,1-1h13.1c0.5-2.3,2.5-4,4.9-4c2.8,0,5,2.2,5,5S28.8,41,26,41z M30.6,18.8l-12,8C18.4,26.9,18.2,27,18,27
	c-0.2,0-0.3,0-0.5-0.1C17.2,26.7,17,26.4,17,26V10c0-0.4,0.2-0.7,0.5-0.9c0.3-0.2,0.7-0.2,1,0l12,8c0.3,0.2,0.4,0.5,0.4,0.8
	S30.8,18.6,30.6,18.8z M40,37h-4c-0.6,0-1-0.4-1-1s0.4-1,1-1h4c0.6,0,1,0.4,1,1S40.6,37,40,37z"/>
</svg>
