<?xml version="1.0" encoding="utf-8"?>
<!-- Generator: Adobe Illustrator 19.1.0, SVG Export Plug-In . SVG Version: 6.00 Build 0)  -->
<!DOCTYPE svg PUBLIC "-//W3C//DTD SVG 1.1//EN" "http://www.w3.org/Graphics/SVG/1.1/DTD/svg11.dtd">
<svg version="1.1" id="Layer_1" xmlns="http://www.w3.org/2000/svg" xmlns:xlink="http://www.w3.org/1999/xlink" x="0px" y="0px"
	 width="48px" height="48px" viewBox="0 0 48 48" enable-background="new 0 0 48 48" xml:space="preserve">
<path d="M38,1H10C9.4,1,9,1.4,9,2v6c0,0.6,0.4,1,1,1h28c0.6,0,1-0.4,1-1V2C39,1.4,38.6,1,38,1z"/>
<path d="M25,31.6V25h4c0.6,0,1-0.4,1-1V12c0-0.6-0.4-1-1-1H19c-0.6,0-1,0.4-1,1v12c0,0.6,0.4,1,1,1h4v6.6L11.3,43.3
	c-0.4,0.4-0.4,1,0,1.4s1,0.4,1.4,0L23,34.4V42c0,0.6,0.4,1,1,1s1-0.4,1-1v-7.6l10.3,10.3c0.2,0.2,0.5,0.3,0.7,0.3s0.5-0.1,0.7-0.3
	c0.4-0.4,0.4-1,0-1.4L25,31.6z"/>
</svg>
