<?xml version="1.0" encoding="utf-8"?>
<!-- Generator: Adobe Illustrator 19.1.0, SVG Export Plug-In . SVG Version: 6.00 Build 0)  -->
<!DOCTYPE svg PUBLIC "-//W3C//DTD SVG 1.1//EN" "http://www.w3.org/Graphics/SVG/1.1/DTD/svg11.dtd">
<svg version="1.1" id="Layer_1" xmlns="http://www.w3.org/2000/svg" xmlns:xlink="http://www.w3.org/1999/xlink" x="0px" y="0px"
	 width="48px" height="48px" viewBox="0 0 48 48" enable-background="new 0 0 48 48" xml:space="preserve">
<path d="M46,1H2C1.4,1,1,1.4,1,2v44c0,0.6,0.4,1,1,1h44c0.6,0,1-0.4,1-1V2C47,1.4,46.6,1,46,1z M20,9c2.8,0,5,2.2,5,5s-2.2,5-5,5
	s-5-2.2-5-5S17.2,9,20,9z M40.7,20.7l-12,12c-0.3,0.3-0.8,0.4-1.2,0.2l-9.3-5.6L8.8,38.6C8.6,38.9,8.3,39,8,39
	c-0.2,0-0.5-0.1-0.6-0.2c-0.4-0.4-0.5-1-0.1-1.4l10-12c0.3-0.4,0.9-0.5,1.3-0.2l9.3,5.6l11.4-11.4c0.4-0.4,1-0.4,1.4,0
	S41.1,20.3,40.7,20.7z"/>
</svg>
