<?xml version="1.0" encoding="utf-8"?>
<!-- Generator: Adobe Illustrator 19.1.0, SVG Export Plug-In . SVG Version: 6.00 Build 0)  -->
<!DOCTYPE svg PUBLIC "-//W3C//DTD SVG 1.1//EN" "http://www.w3.org/Graphics/SVG/1.1/DTD/svg11.dtd">
<svg version="1.1" id="Layer_1" xmlns="http://www.w3.org/2000/svg" xmlns:xlink="http://www.w3.org/1999/xlink" x="0px" y="0px"
	 width="48px" height="48px" viewBox="0 0 48 48" enable-background="new 0 0 48 48" xml:space="preserve">
<path d="M8,7H4C3.4,7,3,6.6,3,6s0.4-1,1-1h4c0.6,0,1,0.4,1,1S8.6,7,8,7z"/>
<path d="M46,9H34.5l-3.7-5.6C30.6,3.2,30.3,3,30,3H18c-0.3,0-0.6,0.2-0.8,0.4L13.5,9H2c-0.6,0-1,0.4-1,1v34c0,0.6,0.4,1,1,1h44
	c0.6,0,1-0.4,1-1V10C47,9.4,46.6,9,46,9z M24,37c-3,0-5.8-1.2-7.7-3.2c0,0,0,0,0,0s0,0,0,0c-2-2-3.2-4.7-3.2-7.7c0-6.1,4.9-11,11-11
	c3,0,5.8,1.2,7.7,3.2c0,0,0,0,0,0s0,0,0,0c2,2,3.2,4.7,3.2,7.7C35,32.1,30.1,37,24,37z"/>
<path d="M18.4,33c1.5,1.2,3.5,2,5.6,2c5,0,9-4,9-9c0-2.1-0.7-4.1-2-5.6L18.4,33z"/>
<path d="M29.6,19c-1.5-1.2-3.5-2-5.6-2c-5,0-9,4-9,9c0,2.1,0.7,4.1,2,5.6L29.6,19z"/>
</svg>
