<?xml version="1.0" encoding="utf-8"?>
<!-- Generator: Adobe Illustrator 19.2.1, SVG Export Plug-In . SVG Version: 6.00 Build 0)  -->
<!DOCTYPE svg PUBLIC "-//W3C//DTD SVG 1.1//EN" "http://www.w3.org/Graphics/SVG/1.1/DTD/svg11.dtd">
<svg version="1.1" id="Layer_1" xmlns="http://www.w3.org/2000/svg" xmlns:xlink="http://www.w3.org/1999/xlink" x="0px" y="0px"
	 width="48px" height="48px" viewBox="0 0 48 48" enable-background="new 0 0 48 48" xml:space="preserve">
<path d="M29,23.675V9h3.125c0.553,0,1-0.447,1-1V2c0-0.553-0.447-1-1-1H16c-0.553,0-1,0.447-1,1v6c0,0.553,0.447,1,1,1h3v14.675
	L7.812,39.06c-1.112,1.528-1.27,3.524-0.412,5.209S9.965,47,11.855,47h24.289c1.891,0,3.599-1.047,4.456-2.731
	s0.7-3.681-0.412-5.209L29,23.675z M20.809,24.588C20.933,24.417,21,24.211,21,24V8c0-0.553-0.447-1-1-1h-3V3h14.125v4H28
	c-0.553,0-1,0.447-1,1v16c0,0.211,0.067,0.417,0.191,0.588L31.855,31H16.145L20.809,24.588z M38.818,43.361
	C38.296,44.388,37.296,45,36.145,45H11.855c-1.151,0-2.151-0.612-2.674-1.639s-0.43-2.194,0.247-3.126L14.691,33h18.619l5.262,7.235
	C39.248,41.167,39.341,42.335,38.818,43.361z"/>
</svg>
