<?xml version="1.0" encoding="utf-8"?>
<!-- Generator: Adobe Illustrator 19.2.1, SVG Export Plug-In . SVG Version: 6.00 Build 0)  -->
<!DOCTYPE svg PUBLIC "-//W3C//DTD SVG 1.1//EN" "http://www.w3.org/Graphics/SVG/1.1/DTD/svg11.dtd">
<svg version="1.1" id="Layer_1" xmlns="http://www.w3.org/2000/svg" xmlns:xlink="http://www.w3.org/1999/xlink" x="0px" y="0px"
	 width="48px" height="48px" viewBox="0 0 48 48" enable-background="new 0 0 48 48" xml:space="preserve">
<path d="M46,1H2C1.447,1,1,1.448,1,2v44c0,0.552,0.447,1,1,1h44c0.553,0,1-0.448,1-1V2C47,1.448,46.553,1,46,1z M45,45H3V3h42V45z"
	/>
<path d="M10,21h10c0.553,0,1-0.448,1-1V10c0-0.552-0.447-1-1-1H10c-0.553,0-1,0.448-1,1v10C9,20.552,9.447,21,10,21z M11,11h8v8h-8
	V11z"/>
<path d="M28,21h10c0.553,0,1-0.448,1-1V10c0-0.552-0.447-1-1-1H28c-0.553,0-1,0.448-1,1v10C27,20.552,27.447,21,28,21z M29,11h8v8
	h-8V11z"/>
<path d="M10,39h10c0.553,0,1-0.448,1-1V28c0-0.552-0.447-1-1-1H10c-0.553,0-1,0.448-1,1v10C9,38.552,9.447,39,10,39z M11,29h8v8h-8
	V29z"/>
<path d="M28,39h10c0.553,0,1-0.448,1-1V28c0-0.552-0.447-1-1-1H28c-0.553,0-1,0.448-1,1v10C27,38.552,27.447,39,28,39z M29,29h8v8
	h-8V29z"/>
</svg>
