<?xml version="1.0" encoding="utf-8"?>
<!-- Generator: Adobe Illustrator 19.2.1, SVG Export Plug-In . SVG Version: 6.00 Build 0)  -->
<!DOCTYPE svg PUBLIC "-//W3C//DTD SVG 1.1//EN" "http://www.w3.org/Graphics/SVG/1.1/DTD/svg11.dtd">
<svg version="1.1" id="Layer_1" xmlns="http://www.w3.org/2000/svg" xmlns:xlink="http://www.w3.org/1999/xlink" x="0px" y="0px"
	 width="48px" height="48px" viewBox="0 0 48 48" enable-background="new 0 0 48 48" xml:space="preserve">
<path fill="#222221" d="M46,17H2c-0.553,0-1,0.447-1,1s0.447,1,1,1h44c0.553,0,1-0.447,1-1S46.553,17,46,17z"/>
<path fill="#222221" d="M46,5H2C1.447,5,1,5.447,1,6s0.447,1,1,1h44c0.553,0,1-0.447,1-1S46.553,5,46,5z"/>
<path fill="#222221" d="M2,31h20c0.553,0,1-0.447,1-1s-0.447-1-1-1H2c-0.553,0-1,0.447-1,1S1.447,31,2,31z"/>
<path fill="#222221" d="M2,43h20c0.553,0,1-0.447,1-1s-0.447-1-1-1H2c-0.553,0-1,0.447-1,1S1.447,43,2,43z"/>
<path fill="#222221" d="M31.293,42.707C31.488,42.902,31.744,43,32,43s0.512-0.098,0.707-0.293L38,37.414l5.293,5.293
	C43.488,42.902,43.744,43,44,43s0.512-0.098,0.707-0.293c0.391-0.391,0.391-1.023,0-1.414L39.414,36l5.293-5.293
	c0.391-0.391,0.391-1.023,0-1.414s-1.023-0.391-1.414,0L38,34.586l-5.293-5.293c-0.391-0.391-1.023-0.391-1.414,0
	s-0.391,1.023,0,1.414L36.586,36l-5.293,5.293C30.902,41.684,30.902,42.316,31.293,42.707z"/>
</svg>
