<?xml version="1.0" encoding="utf-8"?>
<!-- Generator: Adobe Illustrator 19.2.1, SVG Export Plug-In . SVG Version: 6.00 Build 0)  -->
<!DOCTYPE svg PUBLIC "-//W3C//DTD SVG 1.1//EN" "http://www.w3.org/Graphics/SVG/1.1/DTD/svg11.dtd">
<svg version="1.1" id="Layer_1" xmlns="http://www.w3.org/2000/svg" xmlns:xlink="http://www.w3.org/1999/xlink" x="0px" y="0px"
	 width="48px" height="48px" viewBox="0 0 48 48" enable-background="new 0 0 48 48" xml:space="preserve">
<path d="M9,2H3C2.447,2,2,2.448,2,3v6c0,0.552,0.447,1,1,1h6c0.553,0,1-0.448,1-1V3C10,2.448,9.553,2,9,2z M8,8H4V4h4V8z"/>
<path d="M15,10h6c0.553,0,1-0.448,1-1V3c0-0.552-0.447-1-1-1h-6c-0.553,0-1,0.448-1,1v6C14,9.552,14.447,10,15,10z M16,4h4v4h-4V4z"
	/>
<path d="M27,10h6c0.553,0,1-0.448,1-1V3c0-0.552-0.447-1-1-1h-6c-0.553,0-1,0.448-1,1v6C26,9.552,26.447,10,27,10z M28,4h4v4h-4V4z"
	/>
<path d="M39,10h6c0.553,0,1-0.448,1-1V3c0-0.552-0.447-1-1-1h-6c-0.553,0-1,0.448-1,1v6C38,9.552,38.447,10,39,10z M40,4h4v4h-4V4z"
	/>
<path d="M2,21c0,0.552,0.447,1,1,1h6c0.553,0,1-0.448,1-1v-6c0-0.552-0.447-1-1-1H3c-0.553,0-1,0.448-1,1V21z M4,16h4v4H4V16z"/>
<path d="M14,21c0,0.552,0.447,1,1,1h6c0.553,0,1-0.448,1-1v-6c0-0.552-0.447-1-1-1h-6c-0.553,0-1,0.448-1,1V21z M16,16h4v4h-4V16z"
	/>
<path d="M26,21c0,0.552,0.447,1,1,1h6c0.553,0,1-0.448,1-1v-6c0-0.552-0.447-1-1-1h-6c-0.553,0-1,0.448-1,1V21z M28,16h4v4h-4V16z"
	/>
<path d="M38,21c0,0.552,0.447,1,1,1h6c0.553,0,1-0.448,1-1v-6c0-0.552-0.447-1-1-1h-6c-0.553,0-1,0.448-1,1V21z M40,16h4v4h-4V16z"
	/>
<path d="M2,33c0,0.552,0.447,1,1,1h6c0.553,0,1-0.448,1-1v-6c0-0.552-0.447-1-1-1H3c-0.553,0-1,0.448-1,1V33z M4,28h4v4H4V28z"/>
<path d="M14,33c0,0.552,0.447,1,1,1h6c0.553,0,1-0.448,1-1v-6c0-0.552-0.447-1-1-1h-6c-0.553,0-1,0.448-1,1V33z M16,28h4v4h-4V28z"
	/>
<path d="M26,33c0,0.552,0.447,1,1,1h6c0.553,0,1-0.448,1-1v-6c0-0.552-0.447-1-1-1h-6c-0.553,0-1,0.448-1,1V33z M28,28h4v4h-4V28z"
	/>
<path d="M38,33c0,0.552,0.447,1,1,1h6c0.553,0,1-0.448,1-1v-6c0-0.552-0.447-1-1-1h-6c-0.553,0-1,0.448-1,1V33z M40,28h4v4h-4V28z"
	/>
<path d="M2,45c0,0.552,0.447,1,1,1h6c0.553,0,1-0.448,1-1v-6c0-0.552-0.447-1-1-1H3c-0.553,0-1,0.448-1,1V45z M4,40h4v4H4V40z"/>
<path d="M14,45c0,0.552,0.447,1,1,1h6c0.553,0,1-0.448,1-1v-6c0-0.552-0.447-1-1-1h-6c-0.553,0-1,0.448-1,1V45z M16,40h4v4h-4V40z"
	/>
<path d="M26,45c0,0.552,0.447,1,1,1h6c0.553,0,1-0.448,1-1v-6c0-0.552-0.447-1-1-1h-6c-0.553,0-1,0.448-1,1V45z M28,40h4v4h-4V40z"
	/>
<path d="M38,45c0,0.552,0.447,1,1,1h6c0.553,0,1-0.448,1-1v-6c0-0.552-0.447-1-1-1h-6c-0.553,0-1,0.448-1,1V45z M40,40h4v4h-4V40z"
	/>
</svg>
