<?xml version="1.0" encoding="utf-8"?>
<!-- Generator: Adobe Illustrator 19.2.1, SVG Export Plug-In . SVG Version: 6.00 Build 0)  -->
<!DOCTYPE svg PUBLIC "-//W3C//DTD SVG 1.1//EN" "http://www.w3.org/Graphics/SVG/1.1/DTD/svg11.dtd">
<svg version="1.1" id="Layer_1" xmlns="http://www.w3.org/2000/svg" xmlns:xlink="http://www.w3.org/1999/xlink" x="0px" y="0px"
	 width="48px" height="48px" viewBox="0 0 48 48" enable-background="new 0 0 48 48" xml:space="preserve">
<path d="M44.507,3.138c-0.305-0.18-0.684-0.185-0.992-0.012L25.741,13H10c-0.553,0-1,0.447-1,1v1.08C5.614,15.568,3,18.481,3,22
	s2.614,6.432,6,6.92V30c0,0.553,0.447,1,1,1h1.446l7.767,12.428c0.658,1.053,1.689,1.776,2.903,2.038
	c0.323,0.069,0.647,0.104,0.969,0.104c0.889,0,1.756-0.262,2.514-0.767c2.089-1.393,2.655-4.226,1.263-6.313L21.868,31h3.873
	l17.773,9.874C43.665,40.958,43.833,41,44,41c0.176,0,0.351-0.046,0.507-0.138C44.812,40.683,45,40.354,45,40V4
	C45,3.646,44.812,3.317,44.507,3.138z M5,22c0-2.414,1.721-4.434,4-4.899v9.798C6.721,26.434,5,24.414,5,22z M25.197,39.599
	c0.378,0.567,0.513,1.248,0.38,1.916c-0.134,0.669-0.521,1.245-1.088,1.624c-0.578,0.387-1.273,0.519-1.952,0.371
	c-0.682-0.146-1.26-0.552-1.629-1.143L13.804,31h5.661L25.197,39.599z M25,29H11V15h14V29z M43,38.301l-16-8.889V14.588l16-8.889
	V38.301z"/>
</svg>
