<?xml version="1.0" encoding="utf-8"?>
<!-- Generator: Adobe Illustrator 19.2.1, SVG Export Plug-In . SVG Version: 6.00 Build 0)  -->
<!DOCTYPE svg PUBLIC "-//W3C//DTD SVG 1.1//EN" "http://www.w3.org/Graphics/SVG/1.1/DTD/svg11.dtd">
<svg version="1.1" id="Layer_1" xmlns="http://www.w3.org/2000/svg" xmlns:xlink="http://www.w3.org/1999/xlink" x="0px" y="0px"
	 width="48px" height="48px" viewBox="0 0 48 48" enable-background="new 0 0 48 48" xml:space="preserve">
<path fill="#222221" d="M4,12v4c0,0.552,0.447,1,1,1s1-0.448,1-1v-4c0-0.552-0.447-1-1-1S4,11.448,4,12z"/>
<path fill="#222221" d="M26.213,20.373l-2.828,2.829c-0.391,0.391-0.391,1.024,0,1.414c0.195,0.195,0.451,0.293,0.707,0.293
	s0.512-0.098,0.707-0.293l2.828-2.829c0.391-0.391,0.391-1.024,0-1.414C27.236,19.982,26.604,19.982,26.213,20.373z"/>
<path fill="#222221" d="M32,42c-0.553,0-1,0.448-1,1s0.447,1,1,1h4c0.553,0,1-0.448,1-1s-0.447-1-1-1H32z"/>
<path fill="#222221" d="M44,44c0.553,0,1-0.448,1-1C45,20.944,27.056,3,5,3C4.447,3,4,3.448,4,4s0.447,1,1,1
	c20.953,0,38,17.047,38,38C43,43.552,43.447,44,44,44z"/>
<path fill="#222221" d="M6,47c2.757,0,5-2.243,5-5c0-1.017-0.309-1.963-0.833-2.753l8.54-8.54c0.391-0.391,0.391-1.023,0-1.414
	s-1.023-0.391-1.414,0l-8.54,8.54C7.962,37.309,7.017,37,6,37c-2.757,0-5,2.243-5,5S3.243,47,6,47z M6,39c1.654,0,3,1.346,3,3
	s-1.346,3-3,3s-3-1.346-3-3S4.346,39,6,39z"/>
</svg>
