<?xml version="1.0" encoding="utf-8"?>
<!-- Generator: Adobe Illustrator 19.2.1, SVG Export Plug-In . SVG Version: 6.00 Build 0)  -->
<!DOCTYPE svg PUBLIC "-//W3C//DTD SVG 1.1//EN" "http://www.w3.org/Graphics/SVG/1.1/DTD/svg11.dtd">
<svg version="1.1" id="Layer_1" xmlns="http://www.w3.org/2000/svg" xmlns:xlink="http://www.w3.org/1999/xlink" x="0px" y="0px"
	 width="48px" height="48px" viewBox="0 0 48 48" enable-background="new 0 0 48 48" xml:space="preserve">
<path fill="#222221" d="M38.293,19.293c-0.391,0.391-0.391,1.023,0,1.414L42.586,25H21c-0.552,0-1,0.448-1,1s0.448,1,1,1h21.586
	l-4.293,4.293c-0.391,0.391-0.391,1.023,0,1.414C38.488,32.902,38.744,33,39,33s0.512-0.098,0.707-0.293l6-6
	c0.092-0.092,0.165-0.203,0.216-0.325c0.101-0.245,0.101-0.52,0-0.764c-0.051-0.122-0.124-0.233-0.216-0.325l-6-6
	C39.316,18.902,38.684,18.902,38.293,19.293z"/>
<path fill="#222221" d="M2,45h36c0.552,0,1-0.448,1-1v-6c0-0.552-0.448-1-1-1s-1,0.448-1,1v5H3V9h7v3c0,0.552,0.448,1,1,1
	s1-0.448,1-1V9h16v3c0,0.552,0.448,1,1,1s1-0.448,1-1V9h7v5c0,0.552,0.448,1,1,1s1-0.448,1-1V8c0-0.552-0.448-1-1-1h-8V4
	c0-0.552-0.448-1-1-1s-1,0.448-1,1v3H12V4c0-0.552-0.448-1-1-1s-1,0.448-1,1v3H2C1.448,7,1,7.448,1,8v36C1,44.552,1.448,45,2,45z"/>
</svg>
