<?xml version="1.0" encoding="utf-8"?>
<!-- Generator: Adobe Illustrator 19.2.1, SVG Export Plug-In . SVG Version: 6.00 Build 0)  -->
<!DOCTYPE svg PUBLIC "-//W3C//DTD SVG 1.1//EN" "http://www.w3.org/Graphics/SVG/1.1/DTD/svg11.dtd">
<svg version="1.1" id="Layer_1" xmlns="http://www.w3.org/2000/svg" xmlns:xlink="http://www.w3.org/1999/xlink" x="0px" y="0px"
	 width="48px" height="48px" viewBox="0 0 48 48" enable-background="new 0 0 48 48" xml:space="preserve">
<path d="M46,5h-7.001V2c0-0.553-0.447-1-1-1h-6c-0.553,0-1,0.447-1,1v3H17V2c0-0.553-0.447-1-1-1h-6C9.447,1,9,1.447,9,2v3H2
	C1.447,5,1,5.447,1,6v40c0,0.553,0.447,1,1,1h44c0.553,0,1-0.447,1-1V6C47,5.447,46.553,5,46,5z M36.999,3v8h-4V6.005
	C32.999,6.003,33,6.002,33,6s-0.001-0.003-0.001-0.005V3H36.999z M11,3h4v8h-4V3z M9,7v5c0,0.553,0.447,1,1,1h6c0.553,0,1-0.447,1-1
	V7h13.999v5c0,0.553,0.447,1,1,1h6c0.553,0,1-0.447,1-1V7H45v10H3V7H9z M3,45V19h42v26H3z"/>
</svg>
