<?xml version="1.0" encoding="utf-8"?>
<!-- Generator: Adobe Illustrator 19.2.1, SVG Export Plug-In . SVG Version: 6.00 Build 0)  -->
<!DOCTYPE svg PUBLIC "-//W3C//DTD SVG 1.1//EN" "http://www.w3.org/Graphics/SVG/1.1/DTD/svg11.dtd">
<svg version="1.1" id="Layer_1" xmlns="http://www.w3.org/2000/svg" xmlns:xlink="http://www.w3.org/1999/xlink" x="0px" y="0px"
	 width="48px" height="48px" viewBox="0 0 48 48" enable-background="new 0 0 48 48" xml:space="preserve">
<path d="M24,1C11.318,1,1,11.318,1,24s10.318,23,23,23s23-10.318,23-23S36.682,1,24,1z M24,45C12.42,45,3,35.58,3,24S12.42,3,24,3
	s21,9.42,21,21S35.58,45,24,45z"/>
<path d="M36,20H12c-0.552,0-1,0.448-1,1v6c0,0.552,0.448,1,1,1h24c0.552,0,1-0.448,1-1v-6C37,20.448,36.552,20,36,20z M35,26H13v-4
	h22V26z"/>
</svg>
