<?xml version="1.0" encoding="utf-8"?>
<!-- Generator: Adobe Illustrator 19.2.1, SVG Export Plug-In . SVG Version: 6.00 Build 0)  -->
<!DOCTYPE svg PUBLIC "-//W3C//DTD SVG 1.1//EN" "http://www.w3.org/Graphics/SVG/1.1/DTD/svg11.dtd">
<svg version="1.1" id="Layer_1" xmlns="http://www.w3.org/2000/svg" xmlns:xlink="http://www.w3.org/1999/xlink" x="0px" y="0px"
	 width="48px" height="48px" viewBox="0 0 48 48" enable-background="new 0 0 48 48" xml:space="preserve">
<path fill="#222221" d="M43.192,6.808c-5.068-5.068-13.316-5.068-18.385,0C24.526,7.089,24.257,7.385,24,7.695
	c-0.257-0.311-0.526-0.606-0.808-0.888c-5.068-5.068-13.316-5.068-18.385,0s-5.068,13.316,0,18.385l18.485,18.485
	c0.195,0.195,0.451,0.293,0.707,0.293s0.512-0.098,0.707-0.293l4.244-4.244C30.861,41.033,33.319,42,36,42c6.065,0,11-4.935,11-11
	c0-2.728-1.004-5.223-2.655-7.147C48.235,18.737,47.803,11.418,43.192,6.808z M24,41.557L6.222,23.778
	c-4.289-4.289-4.289-11.268,0-15.557c4.289-4.289,11.268-4.289,15.557,0c0.511,0.511,0.978,1.083,1.389,1.701
	c0.37,0.557,1.295,0.557,1.665,0c0.411-0.618,0.878-1.19,1.389-1.701c4.289-4.289,11.268-4.289,15.557,0
	c3.843,3.842,4.262,9.911,1.128,14.229C41.017,20.921,38.615,20,36,20c-6.065,0-11,4.935-11,11c0,2.666,0.955,5.112,2.538,7.018
	L24,41.557z M36,40c-4.962,0-9-4.037-9-9s4.038-9,9-9s9,4.037,9,9S40.962,40,36,40z"/>
<path fill="#222221" d="M40,30h-8c-0.552,0-1,0.447-1,1s0.448,1,1,1h8c0.552,0,1-0.447,1-1S40.552,30,40,30z"/>
</svg>
