<?xml version="1.0" encoding="utf-8"?>
<!-- Generator: Adobe Illustrator 19.2.1, SVG Export Plug-In . SVG Version: 6.00 Build 0)  -->
<!DOCTYPE svg PUBLIC "-//W3C//DTD SVG 1.1//EN" "http://www.w3.org/Graphics/SVG/1.1/DTD/svg11.dtd">
<svg version="1.1" id="Layer_1" xmlns="http://www.w3.org/2000/svg" xmlns:xlink="http://www.w3.org/1999/xlink" x="0px" y="0px"
	 width="48px" height="48px" viewBox="0 0 48 48" enable-background="new 0 0 48 48" xml:space="preserve">
<path d="M24,47c8.356,0,17-6.359,17-17C41,19.83,25.375,3.966,24.71,3.295c-0.376-0.378-1.044-0.378-1.42,0
	C22.625,3.966,7,19.83,7,30C7,40.641,15.644,47,24,47z M24,5.442C27.066,8.679,39,21.805,39,30c0,9.389-7.626,15-15,15
	S9,39.389,9,30C9,21.81,20.934,8.68,24,5.442z"/>
<path d="M24,37c0.552,0,1-0.448,1-1s-0.448-1-1-1c-0.05,0-5-0.215-5-5c0-0.552-0.448-1-1-1s-1,0.448-1,1C17,35.714,22.184,37,24,37z
	"/>
</svg>
