<?xml version="1.0" encoding="utf-8"?>
<!-- Generator: Adobe Illustrator 19.2.1, SVG Export Plug-In . SVG Version: 6.00 Build 0)  -->
<!DOCTYPE svg PUBLIC "-//W3C//DTD SVG 1.1//EN" "http://www.w3.org/Graphics/SVG/1.1/DTD/svg11.dtd">
<svg version="1.1" id="Layer_1" xmlns="http://www.w3.org/2000/svg" xmlns:xlink="http://www.w3.org/1999/xlink" x="0px" y="0px"
	 width="48px" height="48px" viewBox="0 0 48 48" enable-background="new 0 0 48 48" xml:space="preserve">
<path d="M24,47c12.683,0,23-10.318,23-23S36.683,1,24,1S1,11.318,1,24S11.317,47,24,47z M24,3c11.579,0,21,9.42,21,21
	s-9.421,21-21,21S3,35.58,3,24S12.421,3,24,3z"/>
<path d="M19.833,21.247C19.309,22.038,19,22.983,19,24c0,2.757,2.243,5,5,5s5-2.243,5-5s-2.243-5-5-5
	c-1.017,0-1.962,0.309-2.753,0.833l-7.146-7.146c-0.391-0.391-1.023-0.391-1.414,0s-0.391,1.023,0,1.414L19.833,21.247z M27,24
	c0,1.654-1.346,3-3,3s-3-1.346-3-3c0-0.813,0.328-1.55,0.855-2.091c0.01-0.009,0.023-0.012,0.033-0.022s0.012-0.023,0.022-0.033
	C22.45,21.328,23.187,21,24,21C25.654,21,27,22.346,27,24z"/>
<path d="M24,11c0.553,0,1-0.448,1-1V8c0-0.552-0.447-1-1-1s-1,0.448-1,1v2C23,10.552,23.447,11,24,11z"/>
<path d="M38,25h2c0.553,0,1-0.448,1-1s-0.447-1-1-1h-2c-0.553,0-1,0.448-1,1S37.447,25,38,25z"/>
<path d="M33.899,15.101c0.256,0,0.512-0.098,0.707-0.293l1.414-1.414c0.391-0.391,0.391-1.023,0-1.414s-1.023-0.391-1.414,0
	l-1.414,1.414c-0.391,0.391-0.391,1.023,0,1.414C33.388,15.003,33.644,15.101,33.899,15.101z"/>
<path d="M11,24c0-0.552-0.447-1-1-1H8c-0.553,0-1,0.448-1,1s0.447,1,1,1h2C10.553,25,11,24.552,11,24z"/>
</svg>
