<?xml version="1.0" encoding="utf-8"?>
<!-- Generator: Adobe Illustrator 19.2.1, SVG Export Plug-In . SVG Version: 6.00 Build 0)  -->
<!DOCTYPE svg PUBLIC "-//W3C//DTD SVG 1.1//EN" "http://www.w3.org/Graphics/SVG/1.1/DTD/svg11.dtd">
<svg version="1.1" id="Layer_1" xmlns="http://www.w3.org/2000/svg" xmlns:xlink="http://www.w3.org/1999/xlink" x="0px" y="0px"
	 width="48px" height="48px" viewBox="0 0 48 48" enable-background="new 0 0 48 48" xml:space="preserve">
<path d="M28,47h10c0.553,0,1-0.448,1-1V27h5c0.396,0,0.754-0.233,0.914-0.595c0.16-0.362,0.092-0.785-0.174-1.078l-20-22
	c-0.379-0.417-1.102-0.417-1.48,0l-20,22c-0.266,0.293-0.334,0.715-0.174,1.078C3.246,26.767,3.604,27,4,27h5v19
	c0,0.552,0.447,1,1,1h10c0.553,0,1-0.448,1-1v-9h6v9C27,46.552,27.447,47,28,47z M20,35c-0.553,0-1,0.448-1,1v9h-8V26
	c0-0.552-0.447-1-1-1H6.261L24,5.487L41.739,25H38c-0.553,0-1,0.448-1,1v19h-8v-9c0-0.552-0.447-1-1-1H20z"/>
</svg>
