<?xml version="1.0" encoding="utf-8"?>
<!-- Generator: Adobe Illustrator 19.2.1, SVG Export Plug-In . SVG Version: 6.00 Build 0)  -->
<!DOCTYPE svg PUBLIC "-//W3C//DTD SVG 1.1//EN" "http://www.w3.org/Graphics/SVG/1.1/DTD/svg11.dtd">
<svg version="1.1" id="Layer_1" xmlns="http://www.w3.org/2000/svg" xmlns:xlink="http://www.w3.org/1999/xlink" x="0px" y="0px"
	 width="48px" height="48px" viewBox="0 0 48 48" enable-background="new 0 0 48 48" xml:space="preserve">
<path d="M5,36v6c0,0.553,0.448,1,1,1s1-0.447,1-1v-6c0-0.553-0.448-1-1-1S5,35.447,5,36z"/>
<path d="M17,26v16c0,0.553,0.448,1,1,1s1-0.447,1-1V26c0-0.553-0.448-1-1-1S17,25.447,17,26z"/>
<path d="M29,16v26c0,0.553,0.448,1,1,1s1-0.447,1-1V16c0-0.553-0.448-1-1-1S29,15.447,29,16z"/>
<path d="M41,6v36c0,0.553,0.448,1,1,1s1-0.447,1-1V6c0-0.553-0.448-1-1-1S41,5.447,41,6z"/>
</svg>
