<?xml version="1.0" encoding="utf-8"?>
<!-- Generator: Adobe Illustrator 19.2.1, SVG Export Plug-In . SVG Version: 6.00 Build 0)  -->
<!DOCTYPE svg PUBLIC "-//W3C//DTD SVG 1.1//EN" "http://www.w3.org/Graphics/SVG/1.1/DTD/svg11.dtd">
<svg version="1.1" id="Layer_1" xmlns="http://www.w3.org/2000/svg" xmlns:xlink="http://www.w3.org/1999/xlink" x="0px" y="0px"
	 width="48px" height="48px" viewBox="0 0 48 48" enable-background="new 0 0 48 48" xml:space="preserve">
<path d="M14.707,21.293c-0.391-0.391-1.023-0.391-1.414,0s-0.391,1.023,0,1.414l8,8C21.488,30.902,21.744,31,22,31
	s0.512-0.098,0.707-0.293l22-22c0.391-0.391,0.391-1.023,0-1.414s-1.023-0.391-1.414,0L22,28.586L14.707,21.293z"/>
<path d="M2,47h38c0.552,0,1-0.448,1-1V26c0-0.552-0.448-1-1-1s-1,0.448-1,1v19H3V9h27c0.552,0,1-0.448,1-1s-0.448-1-1-1H2
	C1.448,7,1,7.448,1,8v38C1,46.552,1.448,47,2,47z"/>
</svg>
