<?xml version="1.0" encoding="utf-8"?>
<!-- Generator: Adobe Illustrator 19.2.1, SVG Export Plug-In . SVG Version: 6.00 Build 0)  -->
<!DOCTYPE svg PUBLIC "-//W3C//DTD SVG 1.1//EN" "http://www.w3.org/Graphics/SVG/1.1/DTD/svg11.dtd">
<svg version="1.1" id="Layer_1" xmlns="http://www.w3.org/2000/svg" xmlns:xlink="http://www.w3.org/1999/xlink" x="0px" y="0px"
	 width="48px" height="48px" viewBox="0 0 48 48" enable-background="new 0 0 48 48" xml:space="preserve">
<path d="M40.263,12.737c-0.015-0.015-0.034-0.02-0.05-0.033C36.052,8.563,30.32,6,24,6S11.948,8.563,7.787,12.704
	c-0.015,0.014-0.035,0.018-0.05,0.033s-0.02,0.034-0.033,0.05C3.563,16.948,1,22.68,1,29c0,4.47,1.289,8.809,3.727,12.546
	C4.912,41.83,5.227,42,5.564,42h36.871c0.338,0,0.653-0.17,0.837-0.454C45.711,37.809,47,33.47,47,29
	c0-6.32-2.563-12.052-6.704-16.213C40.283,12.771,40.278,12.752,40.263,12.737z M41.886,40H6.114c-1.864-3.023-2.912-6.453-3.08-10
	H7c0.552,0,1-0.448,1-1s-0.448-1-1-1H3.051c0.239-5.035,2.25-9.602,5.434-13.102l2.788,2.788c0.195,0.195,0.451,0.293,0.707,0.293
	s0.512-0.098,0.707-0.293c0.391-0.391,0.391-1.023,0-1.414l-2.788-2.788c3.5-3.184,8.067-5.195,13.102-5.434V12c0,0.552,0.448,1,1,1
	s1-0.448,1-1V8.051c5.035,0.239,9.602,2.25,13.102,5.434l-2.788,2.788c-0.391,0.391-0.391,1.023,0,1.414
	c0.195,0.195,0.451,0.293,0.707,0.293s0.512-0.098,0.707-0.293l2.788-2.788c3.184,3.5,5.195,8.067,5.434,13.102H41
	c-0.552,0-1,0.448-1,1s0.448,1,1,1h3.966C44.798,33.547,43.75,36.977,41.886,40z"/>
<path d="M24,24c-0.239,0-0.468,0.038-0.698,0.071l-3.36-9.407c-0.186-0.52-0.758-0.789-1.278-0.605
	c-0.52,0.186-0.791,0.758-0.605,1.278l3.359,9.404C19.975,25.619,19,27.192,19,29c0,2.757,2.243,5,5,5s5-2.243,5-5S26.757,24,24,24z
	 M24,32c-1.654,0-3-1.346-3-3s1.346-3,3-3s3,1.346,3,3S25.654,32,24,32z"/>
</svg>
