<?xml version="1.0" encoding="utf-8"?>
<!-- Generator: Adobe Illustrator 19.2.1, SVG Export Plug-In . SVG Version: 6.00 Build 0)  -->
<!DOCTYPE svg PUBLIC "-//W3C//DTD SVG 1.1//EN" "http://www.w3.org/Graphics/SVG/1.1/DTD/svg11.dtd">
<svg version="1.1" id="Layer_1" xmlns="http://www.w3.org/2000/svg" xmlns:xlink="http://www.w3.org/1999/xlink" x="0px" y="0px"
	 width="48px" height="48px" viewBox="0 0 48 48" enable-background="new 0 0 48 48" xml:space="preserve">
<path fill="#222221" d="M46,9h-4c-0.552,0-1,0.447-1,1s0.448,1,1,1h4c0.552,0,1-0.447,1-1S46.552,9,46,9z"/>
<path fill="#222221" d="M2,11h32c0.552,0,1-0.447,1-1s-0.448-1-1-1H2c-0.552,0-1,0.447-1,1S1.448,11,2,11z"/>
<path fill="#222221" d="M2,25h4c0.552,0,1-0.447,1-1s-0.448-1-1-1H2c-0.552,0-1,0.447-1,1S1.448,25,2,25z"/>
<path fill="#222221" d="M46,23H14c-0.552,0-1,0.447-1,1s0.448,1,1,1h32c0.552,0,1-0.447,1-1S46.552,23,46,23z"/>
<path fill="#222221" d="M46,37h-4c-0.552,0-1,0.447-1,1s0.448,1,1,1h4c0.552,0,1-0.447,1-1S46.552,37,46,37z"/>
<path fill="#222221" d="M2,39h32c0.552,0,1-0.447,1-1s-0.448-1-1-1H2c-0.552,0-1,0.447-1,1S1.448,39,2,39z"/>
</svg>
