<?xml version="1.0" encoding="utf-8"?>
<!-- Generator: Adobe Illustrator 19.2.1, SVG Export Plug-In . SVG Version: 6.00 Build 0)  -->
<!DOCTYPE svg PUBLIC "-//W3C//DTD SVG 1.1//EN" "http://www.w3.org/Graphics/SVG/1.1/DTD/svg11.dtd">
<svg version="1.1" id="Layer_1" xmlns="http://www.w3.org/2000/svg" xmlns:xlink="http://www.w3.org/1999/xlink" x="0px" y="0px"
	 width="48px" height="48px" viewBox="0 0 48 48" enable-background="new 0 0 48 48" xml:space="preserve">
<path d="M2,21h18c0.552,0,1-0.448,1-1V2c0-0.552-0.448-1-1-1H2C1.448,1,1,1.448,1,2v18C1,20.552,1.448,21,2,21z M3,3h16v16H3V3z"/>
<path d="M46,1H28c-0.552,0-1,0.448-1,1v18c0,0.552,0.448,1,1,1h18c0.552,0,1-0.448,1-1V2C47,1.448,46.552,1,46,1z M45,19H29V3h16V19
	z"/>
<path d="M2,47h18c0.552,0,1-0.448,1-1V28c0-0.552-0.448-1-1-1H2c-0.552,0-1,0.448-1,1v18C1,46.552,1.448,47,2,47z M3,29h16v16H3V29z
	"/>
<path d="M46,27H28c-0.552,0-1,0.448-1,1v18c0,0.552,0.448,1,1,1h18c0.552,0,1-0.448,1-1V28C47,27.448,46.552,27,46,27z M45,45H29V29
	h16V45z"/>
</svg>
