<?xml version="1.0" encoding="utf-8"?>
<!-- Generator: Adobe Illustrator 19.2.1, SVG Export Plug-In . SVG Version: 6.00 Build 0)  -->
<!DOCTYPE svg PUBLIC "-//W3C//DTD SVG 1.1//EN" "http://www.w3.org/Graphics/SVG/1.1/DTD/svg11.dtd">
<svg version="1.1" id="Layer_1" xmlns="http://www.w3.org/2000/svg" xmlns:xlink="http://www.w3.org/1999/xlink" x="0px" y="0px"
	 width="48px" height="48px" viewBox="0 0 48 48" enable-background="new 0 0 48 48" xml:space="preserve">
<path d="M2,11h8c0.553,0,1-0.448,1-1V2c0-0.552-0.447-1-1-1H2C1.447,1,1,1.448,1,2v8C1,10.552,1.447,11,2,11z M3,3h6v6H3V3z"/>
<path d="M2,29h8c0.553,0,1-0.448,1-1v-8c0-0.552-0.447-1-1-1H2c-0.553,0-1,0.448-1,1v8C1,28.552,1.447,29,2,29z M3,21h6v6H3V21z"/>
<path d="M2,47h8c0.553,0,1-0.448,1-1v-8c0-0.552-0.447-1-1-1H2c-0.553,0-1,0.448-1,1v8C1,46.552,1.447,47,2,47z M3,39h6v6H3V39z"/>
<path d="M19,10c0,0.552,0.447,1,1,1h8c0.553,0,1-0.448,1-1V2c0-0.552-0.447-1-1-1h-8c-0.553,0-1,0.448-1,1V10z M21,3h6v6h-6V3z"/>
<path d="M19,28c0,0.552,0.447,1,1,1h8c0.553,0,1-0.448,1-1v-8c0-0.552-0.447-1-1-1h-8c-0.553,0-1,0.448-1,1V28z M21,21h6v6h-6V21z"
	/>
<path d="M19,46c0,0.552,0.447,1,1,1h8c0.553,0,1-0.448,1-1v-8c0-0.552-0.447-1-1-1h-8c-0.553,0-1,0.448-1,1V46z M21,39h6v6h-6V39z"
	/>
<path d="M46,1h-8c-0.553,0-1,0.448-1,1v8c0,0.552,0.447,1,1,1h8c0.553,0,1-0.448,1-1V2C47,1.448,46.553,1,46,1z M45,9h-6V3h6V9z"/>
<path d="M46,19h-8c-0.553,0-1,0.448-1,1v8c0,0.552,0.447,1,1,1h8c0.553,0,1-0.448,1-1v-8C47,19.448,46.553,19,46,19z M45,27h-6v-6h6
	V27z"/>
<path d="M46,37h-8c-0.553,0-1,0.448-1,1v8c0,0.552,0.447,1,1,1h8c0.553,0,1-0.448,1-1v-8C47,37.448,46.553,37,46,37z M45,45h-6v-6h6
	V45z"/>
</svg>
