<?xml version="1.0" encoding="utf-8"?>
<!-- Generator: Adobe Illustrator 19.2.1, SVG Export Plug-In . SVG Version: 6.00 Build 0)  -->
<!DOCTYPE svg PUBLIC "-//W3C//DTD SVG 1.1//EN" "http://www.w3.org/Graphics/SVG/1.1/DTD/svg11.dtd">
<svg version="1.1" id="Layer_1" xmlns="http://www.w3.org/2000/svg" xmlns:xlink="http://www.w3.org/1999/xlink" x="0px" y="0px"
	 width="48px" height="48px" viewBox="0 0 48 48" enable-background="new 0 0 48 48" xml:space="preserve">
<path d="M44,45c0.256,0,0.512-0.098,0.707-0.293c0.391-0.391,0.391-1.023,0-1.414l-6-6c-0.391-0.391-1.023-0.391-1.414,0
	s-0.391,1.023,0,1.414l6,6C43.488,44.902,43.744,45,44,45z"/>
<path d="M20,39c10.477,0,19-8.523,19-19S30.477,1,20,1S1,9.523,1,20S9.523,39,20,39z M20,3c9.374,0,17,7.626,17,17s-7.626,17-17,17
	S3,29.374,3,20S10.626,3,20,3z"/>
<path d="M10.001,18.979c0.067,0.014,0.134,0.02,0.2,0.02c0.466,0,0.883-0.327,0.979-0.801c0.72-3.543,3.475-6.298,7.019-7.018
	c0.542-0.11,0.891-0.638,0.781-1.179c-0.11-0.542-0.639-0.893-1.179-0.781c-4.333,0.88-7.702,4.248-8.581,8.581
	C9.11,18.342,9.46,18.87,10.001,18.979z"/>
</svg>
