<?xml version="1.0" encoding="utf-8"?>
<!-- Generator: Adobe Illustrator 19.2.1, SVG Export Plug-In . SVG Version: 6.00 Build 0)  -->
<!DOCTYPE svg PUBLIC "-//W3C//DTD SVG 1.1//EN" "http://www.w3.org/Graphics/SVG/1.1/DTD/svg11.dtd">
<svg version="1.1" id="Layer_1" xmlns="http://www.w3.org/2000/svg" xmlns:xlink="http://www.w3.org/1999/xlink" x="0px" y="0px"
	 width="48px" height="48px" viewBox="0 0 48 48" enable-background="new 0 0 48 48" xml:space="preserve">
<path d="M38,1c-5.841,0-11.308,3.051-14.406,8H14H6c-2.851,0-5,3.869-5,9s2.149,9,5,9h2.852l9.414,16.056
	c0.93,1.585,2.604,2.469,4.322,2.469c0.858,0,1.728-0.221,2.521-0.686c2.378-1.395,3.178-4.464,1.783-6.842L20.443,27h3.151
	c3.099,4.949,8.565,8,14.406,8c5.047,0,9-7.468,9-17S43.047,1,38,1z M3,18c0-4.007,1.584-7,3-7h4.785C9.681,12.624,9,15.112,9,18
	s0.681,5.376,1.785,7H6C4.584,25,3,22.007,3,18z M25.167,39.009c0.405,0.691,0.517,1.499,0.314,2.274s-0.693,1.426-1.385,1.831
	c-1.425,0.835-3.269,0.357-4.106-1.07L11.17,27H14h4.125L25.167,39.009z M25.023,25.499C24.845,25.19,24.515,25,24.158,25H14
	c-1.416,0-3-2.993-3-7s1.584-7,3-7h10.158c0.356,0,0.687-0.19,0.865-0.499c1.794-3.096,4.615-5.401,7.88-6.591
	c-1.126,1.439-2.057,3.356-2.73,5.601c-0.084,0.126-0.148,0.267-0.168,0.428c-0.005,0.041,0.009,0.078,0.009,0.118
	C29.368,12.416,29,15.11,29,18c0,2.896,0.369,5.595,1.018,7.958c0.001,0.035-0.012,0.067-0.008,0.103
	c0.019,0.152,0.079,0.284,0.156,0.405c0.673,2.256,1.607,4.18,2.737,5.624C29.639,30.9,26.817,28.595,25.023,25.499z M31,18
	c0-2.417,0.289-4.716,0.786-6.763C34.813,12.033,37,14.79,37,18c0,3.21-2.187,5.966-5.214,6.763C31.289,22.716,31,20.417,31,18z
	 M38,33c-2.297,0-4.373-2.527-5.658-6.318C36.21,25.642,39,22.109,39,18c0-4.11-2.789-7.642-6.658-8.682C33.627,5.527,35.703,3,38,3
	c3.794,0,7,6.869,7,15S41.794,33,38,33z"/>
</svg>
