<?xml version="1.0" encoding="utf-8"?>
<!-- Generator: Adobe Illustrator 19.2.1, SVG Export Plug-In . SVG Version: 6.00 Build 0)  -->
<!DOCTYPE svg PUBLIC "-//W3C//DTD SVG 1.1//EN" "http://www.w3.org/Graphics/SVG/1.1/DTD/svg11.dtd">
<svg version="1.1" id="Layer_1" xmlns="http://www.w3.org/2000/svg" xmlns:xlink="http://www.w3.org/1999/xlink" x="0px" y="0px"
	 width="48px" height="48px" viewBox="0 0 48 48" enable-background="new 0 0 48 48" xml:space="preserve">
<path d="M2,34h18c0.553,0,1-0.447,1-1v-3c0-0.553-0.447-1-1-1s-1,0.447-1,1v2H3V16h16v2c0,0.553,0.447,1,1,1s1-0.447,1-1v-3
	c0-0.553-0.447-1-1-1H2c-0.553,0-1,0.447-1,1v18C1,33.553,1.447,34,2,34z"/>
<path d="M46,14H28c-0.553,0-1,0.447-1,1v3c0,0.553,0.447,1,1,1s1-0.447,1-1v-2h16v16H29v-2c0-0.553-0.447-1-1-1s-1,0.447-1,1v3
	c0,0.553,0.447,1,1,1h18c0.553,0,1-0.447,1-1V15C47,14.447,46.553,14,46,14z"/>
<path d="M14,24c0,0.553,0.447,1,1,1h18c0.553,0,1-0.447,1-1s-0.447-1-1-1H15C14.447,23,14,23.447,14,24z"/>
</svg>
