<?xml version="1.0" encoding="utf-8"?>
<!-- Generator: Adobe Illustrator 19.2.1, SVG Export Plug-In . SVG Version: 6.00 Build 0)  -->
<!DOCTYPE svg PUBLIC "-//W3C//DTD SVG 1.1//EN" "http://www.w3.org/Graphics/SVG/1.1/DTD/svg11.dtd">
<svg version="1.1" id="Layer_1" xmlns="http://www.w3.org/2000/svg" xmlns:xlink="http://www.w3.org/1999/xlink" x="0px" y="0px"
	 width="48px" height="48px" viewBox="0 0 48 48" enable-background="new 0 0 48 48" xml:space="preserve">
<path d="M46,1H2C1.448,1,1,1.448,1,2v44c0,0.552,0.448,1,1,1h44c0.552,0,1-0.448,1-1V2C47,1.448,46.552,1,46,1z M45,45H3V3h42V45z"
	/>
<circle cx="24" cy="36" r="2"/>
<path d="M18.016,16.759c0.505,0.219,1.095-0.01,1.317-0.516C20.141,14.395,22.147,13,24,13c2.664,0,5,2.336,5,5s-2.336,5-5,5
	c-0.552,0-1,0.448-1,1v5c0,0.552,0.448,1,1,1s1-0.448,1-1v-4.075c3.341-0.502,6-3.47,6-6.925c0-3.794-3.206-7-7-7
	c-2.642,0-5.375,1.868-6.5,4.442C17.278,15.948,17.509,16.538,18.016,16.759z"/>
</svg>
