<?xml version="1.0" encoding="utf-8"?>
<!-- Generator: Adobe Illustrator 19.2.1, SVG Export Plug-In . SVG Version: 6.00 Build 0)  -->
<!DOCTYPE svg PUBLIC "-//W3C//DTD SVG 1.1//EN" "http://www.w3.org/Graphics/SVG/1.1/DTD/svg11.dtd">
<svg version="1.1" id="Layer_1" xmlns="http://www.w3.org/2000/svg" xmlns:xlink="http://www.w3.org/1999/xlink" x="0px" y="0px"
	 width="48px" height="48px" viewBox="0 0 48 48" enable-background="new 0 0 48 48" xml:space="preserve">
<path d="M45.696,8.637c-0.342-0.083-0.695,0.02-0.941,0.266l-5.24,5.24l-5.657-5.657l5.24-5.24c0.246-0.246,0.347-0.603,0.266-0.941
	c-0.082-0.338-0.334-0.61-0.665-0.717c-1.538-0.498-3.134-0.682-4.735-0.542c-6.149,0.532-11.066,5.987-10.961,12.158
	c0.017,0.951,0.146,1.896,0.386,2.818L4.639,32.57c-1.599,1.412-2.515,3.363-2.581,5.494s0.728,4.135,2.235,5.643
	c1.449,1.449,3.357,2.239,5.396,2.239c0.082,0,0.164-0.001,0.246-0.004c2.131-0.066,4.082-0.982,5.494-2.581l16.549-18.748
	c1.771,0.462,3.591,0.514,5.421,0.147c4.351-0.866,7.936-4.169,9.132-8.413c0.658-2.338,0.618-4.774-0.118-7.047
	C46.306,8.97,46.034,8.719,45.696,8.637z M44.605,15.805c-0.994,3.528-3.976,6.273-7.597,6.995c-1.712,0.34-3.412,0.249-5.057-0.276
	c-0.377-0.119-0.791-0.007-1.054,0.291L13.93,42.037c-1.042,1.181-2.482,1.857-4.057,1.906c-1.571,0.048-3.053-0.537-4.166-1.65
	s-1.699-2.593-1.65-4.166c0.049-1.574,0.726-3.015,1.906-4.057l19.224-16.969c0.297-0.263,0.411-0.677,0.29-1.055
	c-0.299-0.934-0.458-1.901-0.475-2.877c-0.088-5.144,4.01-9.688,9.133-10.133C34.423,3.013,34.711,3,34.998,3
	c0.475,0,0.946,0.034,1.415,0.102l-4.677,4.677c-0.391,0.391-0.391,1.023,0,1.414l7.071,7.071c0.391,0.391,1.023,0.391,1.414,0
	l4.679-4.679C45.103,12.977,45.005,14.39,44.605,15.805z"/>
</svg>
