<?xml version="1.0" encoding="utf-8"?>
<!-- Generator: Adobe Illustrator 19.2.1, SVG Export Plug-In . SVG Version: 6.00 Build 0)  -->
<!DOCTYPE svg PUBLIC "-//W3C//DTD SVG 1.1//EN" "http://www.w3.org/Graphics/SVG/1.1/DTD/svg11.dtd">
<svg version="1.1" id="Layer_1" xmlns="http://www.w3.org/2000/svg" xmlns:xlink="http://www.w3.org/1999/xlink" x="0px" y="0px"
	 width="48px" height="48px" viewBox="0 0 48 48" enable-background="new 0 0 48 48" xml:space="preserve">
<path d="M46,9H33V2c0-0.552-0.447-1-1-1H16c-0.553,0-1,0.448-1,1v7H2c-0.553,0-1,0.448-1,1s0.447,1,1,1h5v35c0,0.552,0.447,1,1,1h32
	c0.553,0,1-0.448,1-1V11h5c0.553,0,1-0.448,1-1S46.553,9,46,9z M17,3h14v6H17V3z M39,45H9V11h30V45z"/>
<path d="M24,19c-0.553,0-1,0.448-1,1v16c0,0.552,0.447,1,1,1s1-0.448,1-1V20C25,19.448,24.553,19,24,19z"/>
<path d="M16,19c-0.553,0-1,0.448-1,1v16c0,0.552,0.447,1,1,1s1-0.448,1-1V20C17,19.448,16.553,19,16,19z"/>
<path d="M31,20v16c0,0.552,0.447,1,1,1s1-0.448,1-1V20c0-0.552-0.447-1-1-1S31,19.448,31,20z"/>
</svg>
