<?xml version="1.0" encoding="utf-8"?>
<!-- Generator: Adobe Illustrator 19.2.1, SVG Export Plug-In . SVG Version: 6.00 Build 0)  -->
<!DOCTYPE svg PUBLIC "-//W3C//DTD SVG 1.1//EN" "http://www.w3.org/Graphics/SVG/1.1/DTD/svg11.dtd">
<svg version="1.1" id="Layer_1" xmlns="http://www.w3.org/2000/svg" xmlns:xlink="http://www.w3.org/1999/xlink" x="0px" y="0px"
	 width="48px" height="48px" viewBox="0 0 48 48" enable-background="new 0 0 48 48" xml:space="preserve">
<path d="M24,29c2.757,0,5-2.243,5-5s-2.243-5-5-5s-5,2.243-5,5S21.243,29,24,29z M24,21c1.654,0,3,1.346,3,3s-1.346,3-3,3
	s-3-1.346-3-3S22.346,21,24,21z"/>
<path d="M6,29c2.757,0,5-2.243,5-5s-2.243-5-5-5s-5,2.243-5,5S3.243,29,6,29z M6,21c1.654,0,3,1.346,3,3s-1.346,3-3,3s-3-1.346-3-3
	S4.346,21,6,21z"/>
<path d="M42,19c-2.757,0-5,2.243-5,5s2.243,5,5,5s5-2.243,5-5S44.757,19,42,19z M42,27c-1.654,0-3-1.346-3-3s1.346-3,3-3
	s3,1.346,3,3S43.654,27,42,27z"/>
</svg>
