<?xml version="1.0" encoding="utf-8"?>
<!-- Generator: Adobe Illustrator 19.2.1, SVG Export Plug-In . SVG Version: 6.00 Build 0)  -->
<!DOCTYPE svg PUBLIC "-//W3C//DTD SVG 1.1//EN" "http://www.w3.org/Graphics/SVG/1.1/DTD/svg11.dtd">
<svg version="1.1" id="Layer_1" xmlns="http://www.w3.org/2000/svg" xmlns:xlink="http://www.w3.org/1999/xlink" x="0px" y="0px"
	 width="48px" height="48px" viewBox="0 0 48 48" enable-background="new 0 0 48 48" xml:space="preserve">
<path d="M21.562,22l11.078-9.231c0.242-0.202,0.375-0.507,0.358-0.822c-0.018-0.314-0.182-0.604-0.444-0.778l-12-8
	c-0.306-0.204-0.702-0.224-1.026-0.05C19.203,3.292,19,3.631,19,4v15.865L8.641,11.231c-0.426-0.354-1.056-0.295-1.409,0.128
	c-0.354,0.425-0.296,1.056,0.128,1.409L18.438,22L7.359,31.231c-0.424,0.354-0.481,0.984-0.128,1.409
	c0.354,0.423,0.983,0.481,1.409,0.128L19,24.135V42c0,0.388,0.225,0.741,0.576,0.905C19.711,42.969,19.855,43,20,43
	c0.229,0,0.457-0.079,0.641-0.231l12-10C32.868,32.578,33,32.297,33,32s-0.132-0.578-0.359-0.769L21.562,22z M21,5.868l9.331,6.221
	L21,19.865V5.868z M21,39.865v-15.73L30.438,32L21,39.865z"/>
</svg>
