<?xml version="1.0" encoding="utf-8"?>
<!-- Generator: Adobe Illustrator 19.2.1, SVG Export Plug-In . SVG Version: 6.00 Build 0)  -->
<!DOCTYPE svg PUBLIC "-//W3C//DTD SVG 1.1//EN" "http://www.w3.org/Graphics/SVG/1.1/DTD/svg11.dtd">
<svg version="1.1" id="Layer_1" xmlns="http://www.w3.org/2000/svg" xmlns:xlink="http://www.w3.org/1999/xlink" x="0px" y="0px"
	 width="48px" height="48px" viewBox="0 0 48 48" enable-background="new 0 0 48 48" xml:space="preserve">
<path d="M23,19v8c0,0.552,0.448,1,1,1h8c0.552,0,1-0.448,1-1s-0.448-1-1-1h-7v-7c0-0.552-0.448-1-1-1S23,18.448,23,19z"/>
<path d="M5,27c0,10.477,8.523,19,19,19s19-8.523,19-19c0-10.139-7.989-18.424-18-18.949V4h4c0.552,0,1-0.448,1-1s-0.448-1-1-1H19
	c-0.552,0-1,0.448-1,1s0.448,1,1,1h4v4.051C12.989,8.576,5,16.861,5,27z M41,27c0,9.374-7.626,17-17,17S7,36.374,7,27
	s7.626-17,17-17S41,17.626,41,27z"/>
</svg>
