<?xml version="1.0" encoding="utf-8"?>
<!-- Generator: Adobe Illustrator 19.2.1, SVG Export Plug-In . SVG Version: 6.00 Build 0)  -->
<!DOCTYPE svg PUBLIC "-//W3C//DTD SVG 1.1//EN" "http://www.w3.org/Graphics/SVG/1.1/DTD/svg11.dtd">
<svg version="1.1" id="Layer_1" xmlns="http://www.w3.org/2000/svg" xmlns:xlink="http://www.w3.org/1999/xlink" x="0px" y="0px"
	 width="48px" height="48px" viewBox="0 0 48 48" enable-background="new 0 0 48 48" xml:space="preserve">
<path fill="#222221" d="M2,13h24c0.552,0,1-0.447,1-1V4c0-0.553-0.448-1-1-1H2C1.448,3,1,3.447,1,4v8C1,12.553,1.448,13,2,13z M3,5
	h22v6H3V5z"/>
<path fill="#222221" d="M2,29h24c0.552,0,1-0.447,1-1v-8c0-0.553-0.448-1-1-1H2c-0.552,0-1,0.447-1,1v8C1,28.553,1.448,29,2,29z
	 M3,21h22v6H3V21z"/>
<path fill="#222221" d="M2,45h24c0.552,0,1-0.447,1-1v-8c0-0.553-0.448-1-1-1H2c-0.552,0-1,0.447-1,1v8C1,44.553,1.448,45,2,45z
	 M3,37h22v6H3V37z"/>
<path fill="#222221" d="M35.293,32.707C35.488,32.902,35.744,33,36,33s0.512-0.098,0.707-0.293l8-8c0.391-0.391,0.391-1.023,0-1.414
	l-8-8c-0.391-0.391-1.023-0.391-1.414,0s-0.391,1.023,0,1.414L42.586,24l-7.293,7.293C34.902,31.684,34.902,32.316,35.293,32.707z"
	/>
</svg>
