<?xml version="1.0" encoding="utf-8"?>
<!-- Generator: Adobe Illustrator 19.2.1, SVG Export Plug-In . SVG Version: 6.00 Build 0)  -->
<!DOCTYPE svg PUBLIC "-//W3C//DTD SVG 1.1//EN" "http://www.w3.org/Graphics/SVG/1.1/DTD/svg11.dtd">
<svg version="1.1" id="Layer_1" xmlns="http://www.w3.org/2000/svg" xmlns:xlink="http://www.w3.org/1999/xlink" x="0px" y="0px"
	 width="48px" height="48px" viewBox="0 0 48 48" enable-background="new 0 0 48 48" xml:space="preserve">
<path d="M36,23H12c-0.552,0-1,0.447-1,1v16c0,0.553,0.448,1,1,1h16c0.552,0,1-0.447,1-1v-7h7c0.552,0,1-0.447,1-1v-8
	C37,23.447,36.552,23,36,23z M27,31h-6v-6h6V31z M19,25v6h-6v-6H19z M13,33h6v6h-6V33z M21,39v-6h6v6H21z M35,31h-6v-6h6V31z"/>
<path d="M46,5h-7V2c0-0.553-0.448-1-1-1h-6c-0.552,0-1,0.447-1,1v3H17V2c0-0.553-0.448-1-1-1h-6C9.448,1,9,1.447,9,2v3H2
	C1.448,5,1,5.447,1,6v40c0,0.553,0.448,1,1,1h44c0.552,0,1-0.447,1-1V6C47,5.447,46.552,5,46,5z M33,3h4v8h-4V3z M11,3h4v8h-4V3z
	 M9,7v5c0,0.553,0.448,1,1,1h6c0.552,0,1-0.447,1-1V7h14v5c0,0.553,0.448,1,1,1h6c0.552,0,1-0.447,1-1V7h6v10H3V7H9z M3,45V19h42v26
	H3z"/>
</svg>
