<?xml version="1.0" encoding="utf-8"?>
<!-- Generator: Adobe Illustrator 19.2.1, SVG Export Plug-In . SVG Version: 6.00 Build 0)  -->
<!DOCTYPE svg PUBLIC "-//W3C//DTD SVG 1.1//EN" "http://www.w3.org/Graphics/SVG/1.1/DTD/svg11.dtd">
<svg version="1.1" id="Layer_1" xmlns="http://www.w3.org/2000/svg" xmlns:xlink="http://www.w3.org/1999/xlink" x="0px" y="0px"
	 width="48px" height="48px" viewBox="0 0 48 48" enable-background="new 0 0 48 48" xml:space="preserve">
<path d="M18,13c-0.553,0-1,0.447-1,1v17c0,3.309,2.691,6,6,6s6-2.691,6-6V11c0-5.514-4.486-10-10-10S9,5.486,9,11v22
	c0,7.72,6.28,14,14,14s14-6.28,14-14V8c0-0.553-0.447-1-1-1s-1,0.447-1,1v25c0,6.617-5.383,12-12,12s-12-5.383-12-12V11
	c0-4.411,3.589-8,8-8s8,3.589,8,8v20c0,2.206-1.794,4-4,4s-4-1.794-4-4V14C19,13.447,18.553,13,18,13z"/>
</svg>
