<?xml version="1.0" encoding="utf-8"?>
<!-- Generator: Adobe Illustrator 19.2.1, SVG Export Plug-In . SVG Version: 6.00 Build 0)  -->
<!DOCTYPE svg PUBLIC "-//W3C//DTD SVG 1.1//EN" "http://www.w3.org/Graphics/SVG/1.1/DTD/svg11.dtd">
<svg version="1.1" id="Layer_1" xmlns="http://www.w3.org/2000/svg" xmlns:xlink="http://www.w3.org/1999/xlink" x="0px" y="0px"
	 width="48px" height="48px" viewBox="0 0 48 48" enable-background="new 0 0 48 48" xml:space="preserve">
<path d="M44.707,43.293l-6-6c-0.391-0.391-1.023-0.391-1.414,0s-0.391,1.023,0,1.414l6,6C43.488,44.902,43.744,45,44,45
	s0.512-0.098,0.707-0.293C45.098,44.316,45.098,43.684,44.707,43.293z"/>
<path d="M1,20c0,10.477,8.523,19,19,19s19-8.523,19-19S30.477,1,20,1S1,9.523,1,20z M20,3c9.374,0,17,7.626,17,17s-7.626,17-17,17
	S3,29.374,3,20S10.626,3,20,3z"/>
<path d="M14,21h12c0.552,0,1-0.448,1-1s-0.448-1-1-1H14c-0.552,0-1,0.448-1,1S13.448,21,14,21z"/>
</svg>
