<?xml version="1.0" encoding="utf-8"?>
<!-- Generator: Adobe Illustrator 19.2.1, SVG Export Plug-In . SVG Version: 6.00 Build 0)  -->
<!DOCTYPE svg PUBLIC "-//W3C//DTD SVG 1.1//EN" "http://www.w3.org/Graphics/SVG/1.1/DTD/svg11.dtd">
<svg version="1.1" id="Layer_1" xmlns="http://www.w3.org/2000/svg" xmlns:xlink="http://www.w3.org/1999/xlink" x="0px" y="0px"
	 width="48px" height="48px" viewBox="0 0 48 48" enable-background="new 0 0 48 48" xml:space="preserve">
<path d="M24,7C14.626,7,7,14.626,7,24c0,2.582,0.584,5.084,1.736,7.439C8.904,31.783,9.253,32,9.635,32h9.466
	c0.465,2.279,2.484,4,4.899,4s4.434-1.721,4.899-4h9.466c0.382,0,0.73-0.217,0.898-0.561C40.416,29.085,41,26.583,41,24
	C41,14.626,33.374,7,24,7z M24,34c-1.654,0-3-1.346-3-3s1.346-3,3-3s3,1.346,3,3S25.654,34,24,34z M37.728,30h-8.829
	c-0.465-2.279-2.484-4-4.899-4c-0.239,0-0.468,0.038-0.698,0.071l-3.36-9.407c-0.186-0.52-0.757-0.791-1.278-0.605
	c-0.52,0.186-0.791,0.758-0.605,1.278l3.359,9.404c-1.169,0.712-2.034,1.875-2.316,3.259h-8.829C9.428,28.086,9,26.071,9,24
	c0-8.271,6.729-15,15-15s15,6.729,15,15C39,26.072,38.572,28.087,37.728,30z"/>
<path d="M24,1C11.318,1,1,11.318,1,24s10.318,23,23,23s23-10.318,23-23S36.682,1,24,1z M24,45C12.42,45,3,35.58,3,24S12.42,3,24,3
	s21,9.42,21,21S35.58,45,24,45z"/>
</svg>
