<?xml version="1.0" encoding="utf-8"?>
<!-- Generator: Adobe Illustrator 19.2.1, SVG Export Plug-In . SVG Version: 6.00 Build 0)  -->
<!DOCTYPE svg PUBLIC "-//W3C//DTD SVG 1.1//EN" "http://www.w3.org/Graphics/SVG/1.1/DTD/svg11.dtd">
<svg version="1.1" id="Layer_1" xmlns="http://www.w3.org/2000/svg" xmlns:xlink="http://www.w3.org/1999/xlink" x="0px" y="0px"
	 width="48px" height="48px" viewBox="0 0 48 48" enable-background="new 0 0 48 48" xml:space="preserve">
<path d="M4.076,32.535c-1.599,1.412-2.515,3.363-2.581,5.494s0.728,4.135,2.235,5.643c1.449,1.449,3.357,2.238,5.396,2.238
	c0.082,0,0.165-0.001,0.247-0.004c2.131-0.066,4.082-0.983,5.493-2.581l7.744-8.773l10.12,10.12
	c1.573,1.573,3.641,2.359,5.707,2.359s4.134-0.786,5.707-2.359c1.524-1.524,2.364-3.552,2.364-5.707c0-2.156-0.84-4.184-2.364-5.707
	l-8.38-8.38c0.357-0.039,0.714-0.082,1.072-0.153c4.351-0.866,7.936-4.169,9.132-8.413c0.658-2.338,0.618-4.774-0.118-7.047
	c-0.107-0.331-0.379-0.582-0.717-0.664c-0.342-0.081-0.695,0.02-0.941,0.266l-5.24,5.239l-5.657-5.657l5.24-5.239
	c0.246-0.246,0.347-0.603,0.266-0.94c-0.082-0.339-0.333-0.61-0.664-0.718C36.598,1.053,35.002,0.871,33.4,1.01
	c-6.149,0.532-11.066,5.987-10.961,12.158c0.017,0.951,0.146,1.896,0.386,2.817l-3.162,2.791l-5.446-5.446l1.219-3.656
	c0.12-0.359,0.026-0.756-0.241-1.023L9.538,2.994c-0.391-0.391-1.023-0.391-1.414,0L2.467,8.65C2.279,8.838,2.174,9.092,2.174,9.357
	s0.105,0.52,0.293,0.707l5.657,5.657c0.19,0.19,0.446,0.293,0.707,0.293c0.105,0,0.213-0.017,0.316-0.052l3.656-1.219l5.358,5.358
	L4.076,32.535z M9.102,13.87L4.588,9.357l4.243-4.242l4.512,4.513l-1.061,3.182L9.102,13.87z M44.509,38.965
	c0,1.621-0.632,3.146-1.778,4.293c-2.367,2.367-6.219,2.365-8.586,0L23.937,33.05l7.479-8.473c0.497,0.13,0.999,0.219,1.503,0.284
	l9.811,9.811C43.877,35.818,44.509,37.343,44.509,38.965z M24.914,16.011c-0.299-0.933-0.458-1.9-0.475-2.876
	c-0.088-5.144,4.01-9.688,9.134-10.133c0.289-0.025,0.579-0.038,0.867-0.038c0.474,0,0.944,0.034,1.411,0.102l-4.678,4.677
	c-0.188,0.188-0.293,0.441-0.293,0.707s0.105,0.52,0.293,0.707l7.071,7.071c0.391,0.391,1.023,0.391,1.414,0l4.679-4.678
	c0.202,1.392,0.104,2.805-0.295,4.22c-0.994,3.528-3.976,6.273-7.597,6.995c-1.713,0.341-3.414,0.247-5.056-0.276
	c-0.381-0.123-0.792-0.008-1.055,0.29L13.367,42.001c-1.042,1.181-2.481,1.857-4.056,1.906c-1.576,0.046-3.054-0.537-4.167-1.649
	c-1.113-1.113-1.699-2.593-1.65-4.166c0.049-1.574,0.726-3.015,1.906-4.057l19.224-16.97C24.921,16.803,25.035,16.389,24.914,16.011
	z"/>
<path d="M32.73,33.258c-0.391,0.391-0.391,1.023,0,1.414l4,4c0.195,0.195,0.451,0.293,0.707,0.293s0.512-0.098,0.707-0.293
	c0.391-0.391,0.391-1.023,0-1.414l-4-4C33.754,32.867,33.121,32.867,32.73,33.258z"/>
</svg>
