<?xml version="1.0" encoding="utf-8"?>
<!-- Generator: Adobe Illustrator 19.2.1, SVG Export Plug-In . SVG Version: 6.00 Build 0)  -->
<!DOCTYPE svg PUBLIC "-//W3C//DTD SVG 1.1//EN" "http://www.w3.org/Graphics/SVG/1.1/DTD/svg11.dtd">
<svg version="1.1" id="Layer_1" xmlns="http://www.w3.org/2000/svg" xmlns:xlink="http://www.w3.org/1999/xlink" x="0px" y="0px"
	 width="48px" height="48px" viewBox="0 0 48 48" enable-background="new 0 0 48 48" xml:space="preserve">
<path d="M15.293,32.707C15.488,32.902,15.744,33,16,33s0.512-0.098,0.707-0.293L24,25.414l7.293,7.293
	C31.488,32.902,31.744,33,32,33s0.512-0.098,0.707-0.293c0.391-0.391,0.391-1.023,0-1.414L25.414,24l7.293-7.293
	c0.391-0.391,0.391-1.023,0-1.414s-1.023-0.391-1.414,0L24,22.586l-7.293-7.293c-0.391-0.391-1.023-0.391-1.414,0
	s-0.391,1.023,0,1.414L22.586,24l-7.293,7.293C14.902,31.684,14.902,32.316,15.293,32.707z"/>
</svg>
