<?xml version="1.0" encoding="utf-8"?>
<!-- Generator: Adobe Illustrator 19.2.1, SVG Export Plug-In . SVG Version: 6.00 Build 0)  -->
<!DOCTYPE svg PUBLIC "-//W3C//DTD SVG 1.1//EN" "http://www.w3.org/Graphics/SVG/1.1/DTD/svg11.dtd">
<svg version="1.1" id="Layer_1" xmlns="http://www.w3.org/2000/svg" xmlns:xlink="http://www.w3.org/1999/xlink" x="0px" y="0px"
	 width="48px" height="48px" viewBox="0 0 48 48" enable-background="new 0 0 48 48" xml:space="preserve">
<path d="M39.535,4.121c-1.949-1.949-5.121-1.949-7.07,0L5.293,31.293c-0.086,0.086-0.149,0.189-0.198,0.299
	c-0.016,0.036-0.025,0.073-0.037,0.11c-0.014,0.045-0.036,0.087-0.044,0.134l-2,12c-0.053,0.318,0.051,0.643,0.279,0.871
	C3.482,44.896,3.737,45,4,45c0.055,0,0.109-0.005,0.164-0.014l12-2c0.047-0.008,0.089-0.03,0.134-0.044
	c0.038-0.012,0.074-0.02,0.11-0.037c0.11-0.049,0.213-0.112,0.299-0.198l27.172-27.172c1.949-1.949,1.949-5.121,0-7.07L39.535,4.121
	z M36,20.586L27.414,12L30,9.414L38.586,18L36,20.586z M16,40.586L12.414,37L31,18.414L34.586,22L16,40.586z M26,13.414L29.586,17
	L11,35.586L7.414,32L26,13.414z M6.667,34.081l7.252,7.252l-8.702,1.45L6.667,34.081z M42.465,14.121L40,16.586L31.414,8
	l2.465-2.465c1.17-1.17,3.072-1.17,4.242,0l4.344,4.344C43.635,11.049,43.635,12.951,42.465,14.121z"/>
</svg>
