<?xml version="1.0" encoding="utf-8"?>
<!-- Generator: Adobe Illustrator 19.2.1, SVG Export Plug-In . SVG Version: 6.00 Build 0)  -->
<!DOCTYPE svg PUBLIC "-//W3C//DTD SVG 1.1//EN" "http://www.w3.org/Graphics/SVG/1.1/DTD/svg11.dtd">
<svg version="1.1" id="Layer_1" xmlns="http://www.w3.org/2000/svg" xmlns:xlink="http://www.w3.org/1999/xlink" x="0px" y="0px"
	 width="48px" height="48px" viewBox="0 0 48 48" enable-background="new 0 0 48 48" xml:space="preserve">
<path d="M2,13h28c0.553,0,1-0.447,1-1V4c0-0.553-0.447-1-1-1H2C1.447,3,1,3.447,1,4v8C1,12.553,1.447,13,2,13z M3,5h26v6H3V5z"/>
<path d="M2,29h28c0.553,0,1-0.447,1-1v-8c0-0.553-0.447-1-1-1H2c-0.553,0-1,0.447-1,1v8C1,28.553,1.447,29,2,29z M3,21h26v6H3V21z"
	/>
<path d="M2,45h28c0.553,0,1-0.447,1-1v-8c0-0.553-0.447-1-1-1H2c-0.553,0-1,0.447-1,1v8C1,44.553,1.447,45,2,45z M3,37h26v6H3V37z"
	/>
<path d="M46,3h-8c-0.553,0-1,0.447-1,1v40c0,0.553,0.447,1,1,1h8c0.553,0,1-0.447,1-1V4C47,3.447,46.553,3,46,3z M45,43h-6V5h6V43z"
	/>
</svg>
