<?xml version="1.0" encoding="utf-8"?>
<!-- Generator: Adobe Illustrator 19.2.1, SVG Export Plug-In . SVG Version: 6.00 Build 0)  -->
<!DOCTYPE svg PUBLIC "-//W3C//DTD SVG 1.1//EN" "http://www.w3.org/Graphics/SVG/1.1/DTD/svg11.dtd">
<svg version="1.1" id="Layer_1" xmlns="http://www.w3.org/2000/svg" xmlns:xlink="http://www.w3.org/1999/xlink" x="0px" y="0px"
	 width="48px" height="48px" viewBox="0 0 48 48" enable-background="new 0 0 48 48" xml:space="preserve">
<path fill="#222221" d="M18.707,13.293l-10-10c-0.391-0.391-1.023-0.391-1.414,0l-6,6C1.105,9.48,1,9.735,1,10
	c0,9.842,3.87,18.792,10.159,25.427l-7.866,7.866c-0.391,0.391-0.391,1.023,0,1.414C3.488,44.902,3.744,45,4,45
	s0.512-0.098,0.707-0.293l7.866-7.866C19.208,43.13,28.158,47,38,47c0.265,0,0.52-0.105,0.707-0.293l6-6
	c0.391-0.391,0.391-1.023,0-1.414l-10-10c-0.391-0.391-1.023-0.391-1.414,0L28,34.586l-3.293-3.293
	c-0.391-0.391-1.023-0.391-1.414,0s-0.391,1.023,0,1.414l4,4c0.391,0.391,1.023,0.391,1.414,0L34,31.414L42.586,40l-4.998,4.998
	c-9.128-0.106-17.421-3.731-23.601-9.571l30.72-30.72c0.391-0.391,0.391-1.023,0-1.414s-1.023-0.391-1.414,0L20,26.586L13.414,20
	l5.293-5.293C19.098,14.316,19.098,13.684,18.707,13.293z M11.293,19.293c-0.391,0.391-0.391,1.023,0,1.414L18.586,28l-6.013,6.013
	c-5.839-6.18-9.465-14.473-9.571-23.601L8,5.414L16.586,14L11.293,19.293z"/>
</svg>
