<?xml version="1.0" encoding="utf-8"?>
<!-- Generator: Adobe Illustrator 19.2.1, SVG Export Plug-In . SVG Version: 6.00 Build 0)  -->
<!DOCTYPE svg PUBLIC "-//W3C//DTD SVG 1.1//EN" "http://www.w3.org/Graphics/SVG/1.1/DTD/svg11.dtd">
<svg version="1.1" id="Layer_1" xmlns="http://www.w3.org/2000/svg" xmlns:xlink="http://www.w3.org/1999/xlink" x="0px" y="0px"
	 width="48px" height="48px" viewBox="0 0 48 48" enable-background="new 0 0 48 48" xml:space="preserve">
<path d="M30,7c-7.595,0-14.156,4.951-16.283,12.156C13.116,19.05,12.557,19,12,19C5.935,19,1,23.935,1,30s4.935,11,11,11h18
	c9.374,0,17-7.626,17-17S39.374,7,30,7z M30,39H12c-4.963,0-9-4.038-9-9s4.037-9,9-9c0.674,0,1.371,0.097,2.194,0.304
	c0.258,0.063,0.534,0.023,0.764-0.115c0.229-0.14,0.393-0.365,0.454-0.626C17.011,13.755,23.009,9,30,9c8.271,0,15,6.729,15,15
	S38.271,39,30,39z"/>
</svg>
