<?xml version="1.0" encoding="utf-8"?>
<!-- Generator: Adobe Illustrator 19.2.1, SVG Export Plug-In . SVG Version: 6.00 Build 0)  -->
<!DOCTYPE svg PUBLIC "-//W3C//DTD SVG 1.1//EN" "http://www.w3.org/Graphics/SVG/1.1/DTD/svg11.dtd">
<svg version="1.1" id="Layer_1" xmlns="http://www.w3.org/2000/svg" xmlns:xlink="http://www.w3.org/1999/xlink" x="0px" y="0px"
	 width="48px" height="48px" viewBox="0 0 48 48" enable-background="new 0 0 48 48" xml:space="preserve">
<path d="M13.293,34.707C13.488,34.902,13.744,35,14,35s0.512-0.098,0.707-0.293l5.572-5.572c0.844,0.241,2.468,0.612,4.541,0.612
	c3.346,0,7.819-0.972,11.887-5.04c7.367-7.368,8.257-20.104,8.291-20.644c0.018-0.287-0.088-0.567-0.291-0.771
	c-0.203-0.203-0.479-0.304-0.771-0.291c-0.539,0.034-13.276,0.923-20.644,8.291c-6.461,6.461-5.017,14.198-4.421,16.421
	l-5.579,5.579C12.902,33.684,12.902,34.316,13.293,34.707z M24.707,12.707c5.583-5.584,14.897-7.186,18.174-7.588
	c-0.403,3.276-2.004,12.59-7.588,18.174c-4.995,4.994-10.656,4.703-13.354,4.182l8.768-8.768c0.391-0.391,0.391-1.023,0-1.414
	s-1.023-0.391-1.414,0l-8.732,8.732C20.091,23.27,19.877,17.537,24.707,12.707z"/>
<path d="M43,46V30c0-0.553-0.448-1-1-1s-1,0.447-1,1v15H3V7h15c0.552,0,1-0.447,1-1s-0.448-1-1-1H2C1.448,5,1,5.447,1,6v40
	c0,0.553,0.448,1,1,1h40C42.552,47,43,46.553,43,46z"/>
</svg>
