<?xml version="1.0" encoding="utf-8"?>
<!-- Generator: Adobe Illustrator 19.2.1, SVG Export Plug-In . SVG Version: 6.00 Build 0)  -->
<!DOCTYPE svg PUBLIC "-//W3C//DTD SVG 1.1//EN" "http://www.w3.org/Graphics/SVG/1.1/DTD/svg11.dtd">
<svg version="1.1" id="Layer_1" xmlns="http://www.w3.org/2000/svg" xmlns:xlink="http://www.w3.org/1999/xlink" x="0px" y="0px"
	 width="48px" height="48px" viewBox="0 0 48 48" enable-background="new 0 0 48 48" xml:space="preserve">
<path d="M44.967,3.782c-0.006-0.026-0.008-0.051-0.016-0.077c-0.034-0.11-0.087-0.213-0.157-0.306
	c-0.006-0.008-0.007-0.017-0.013-0.025c-0.012-0.015-0.03-0.021-0.043-0.036c-0.033-0.036-0.061-0.076-0.099-0.108
	C44.602,3.2,44.559,3.18,44.518,3.155c-0.023-0.014-0.044-0.031-0.069-0.043c-0.101-0.051-0.208-0.086-0.32-0.1
	c-0.024-0.003-0.047,0-0.071-0.002c-0.091-0.005-0.181,0.002-0.271,0.022c-0.032,0.007-0.063,0.013-0.095,0.024
	c-0.021,0.007-0.043,0.008-0.063,0.016l-40,16c-0.336,0.135-0.573,0.439-0.62,0.798C2.961,20.228,3.11,20.583,3.4,20.8l9.6,7.201V42
	c0,0.42,0.263,0.796,0.657,0.939C13.77,42.98,13.885,43,14,43c0.289,0,0.571-0.126,0.765-0.356l6.871-8.164L35.393,44.8
	c0.175,0.132,0.387,0.2,0.6,0.2c0.12,0,0.241-0.021,0.356-0.065c0.321-0.123,0.557-0.401,0.624-0.738l8.008-40
	c0.004-0.018,0.001-0.036,0.003-0.054c0.004-0.03,0.004-0.058,0.006-0.088C44.994,3.962,44.987,3.871,44.967,3.782z M38.104,7.435
	L14.301,26.478l-8.278-6.21L38.104,7.435z M15,39.259v-9.757l5.034,3.776L15,39.259z M35.323,42.248L15.954,27.717L42.481,6.497
	L35.323,42.248z"/>
</svg>
