<?xml version="1.0" encoding="utf-8"?>
<!-- Generator: Adobe Illustrator 19.2.1, SVG Export Plug-In . SVG Version: 6.00 Build 0)  -->
<!DOCTYPE svg PUBLIC "-//W3C//DTD SVG 1.1//EN" "http://www.w3.org/Graphics/SVG/1.1/DTD/svg11.dtd">
<svg version="1.1" id="Layer_1" xmlns="http://www.w3.org/2000/svg" xmlns:xlink="http://www.w3.org/1999/xlink" x="0px" y="0px"
	 width="48px" height="48px" viewBox="0 0 48 48" enable-background="new 0 0 48 48" xml:space="preserve">
<path d="M24,3c4.963,0,9,4.038,9,9c0,0.552,0.447,1,1,1s1-0.448,1-1c0-6.065-4.935-11-11-11S13,5.935,13,12v9.836
	C10.526,24.512,9,28.077,9,32c0,8.271,6.729,15,15,15s15-6.729,15-15s-6.729-15-15-15c-3.379,0-6.49,1.136-9,3.028V12
	C15,7.038,19.037,3,24,3z M37,32c0,7.168-5.832,13-13,13s-13-5.832-13-13s5.832-13,13-13S37,24.832,37,32z"/>
<path d="M23,34.899V38c0,0.552,0.447,1,1,1s1-0.448,1-1v-3.101c2.279-0.465,4-2.484,4-4.899c0-2.757-2.243-5-5-5s-5,2.243-5,5
	C19,32.414,20.721,34.434,23,34.899z M24,27c1.654,0,3,1.346,3,3s-1.346,3-3,3s-3-1.346-3-3S22.346,27,24,27z"/>
</svg>
