<?xml version="1.0" encoding="utf-8"?>
<!-- Generator: Adobe Illustrator 19.2.1, SVG Export Plug-In . SVG Version: 6.00 Build 0)  -->
<!DOCTYPE svg PUBLIC "-//W3C//DTD SVG 1.1//EN" "http://www.w3.org/Graphics/SVG/1.1/DTD/svg11.dtd">
<svg version="1.1" id="Layer_1" xmlns="http://www.w3.org/2000/svg" xmlns:xlink="http://www.w3.org/1999/xlink" x="0px" y="0px"
	 width="48px" height="48px" viewBox="0 0 48 48" enable-background="new 0 0 48 48" xml:space="preserve">
<path d="M24,1C11.317,1,1,11.318,1,24s10.317,23,23,23s23-10.318,23-23S36.683,1,24,1z M25,44.949V38c0-0.552-0.447-1-1-1
	s-1,0.448-1,1v6.949C12.22,44.438,3.562,35.78,3.051,25H10c0.553,0,1-0.448,1-1s-0.447-1-1-1H3.051
	C3.562,12.22,12.22,3.562,23,3.051V10c0,0.552,0.447,1,1,1s1-0.448,1-1V3.051C35.78,3.562,44.438,12.22,44.949,23H38
	c-0.553,0-1,0.448-1,1s0.447,1,1,1h6.949C44.438,35.78,35.78,44.438,25,44.949z"/>
<path d="M32,23h-7.465l-7.703-11.555c-0.307-0.459-0.927-0.585-1.387-0.277c-0.46,0.306-0.584,0.927-0.277,1.387l8,12
	C23.354,24.833,23.666,25,24,25h8c0.553,0,1-0.448,1-1S32.553,23,32,23z"/>
</svg>
