<?xml version="1.0" encoding="utf-8"?>
<!-- Generator: Adobe Illustrator 19.2.1, SVG Export Plug-In . SVG Version: 6.00 Build 0)  -->
<!DOCTYPE svg PUBLIC "-//W3C//DTD SVG 1.1//EN" "http://www.w3.org/Graphics/SVG/1.1/DTD/svg11.dtd">
<svg version="1.1" id="Layer_1" xmlns="http://www.w3.org/2000/svg" xmlns:xlink="http://www.w3.org/1999/xlink" x="0px" y="0px"
	 width="48px" height="48px" viewBox="0 0 48 48" enable-background="new 0 0 48 48" xml:space="preserve">
<path fill="#222221" d="M41,18c0-0.553-0.447-1-1-1H8c-0.553,0-1,0.447-1,1s0.447,1,1,1h32C40.553,19,41,18.553,41,18z"/>
<path fill="#222221" d="M46,5H2C1.447,5,1,5.447,1,6s0.447,1,1,1h44c0.553,0,1-0.447,1-1S46.553,5,46,5z"/>
<path fill="#222221" d="M35,30c0-0.553-0.447-1-1-1H14c-0.553,0-1,0.447-1,1s0.447,1,1,1h20C34.553,31,35,30.553,35,30z"/>
<path fill="#222221" d="M20,41c-0.553,0-1,0.447-1,1s0.447,1,1,1h8c0.553,0,1-0.447,1-1s-0.447-1-1-1H20z"/>
</svg>
