<?xml version="1.0" encoding="utf-8"?>
<!-- Generator: Adobe Illustrator 19.2.1, SVG Export Plug-In . SVG Version: 6.00 Build 0)  -->
<!DOCTYPE svg PUBLIC "-//W3C//DTD SVG 1.1//EN" "http://www.w3.org/Graphics/SVG/1.1/DTD/svg11.dtd">
<svg version="1.1" id="Layer_1" xmlns="http://www.w3.org/2000/svg" xmlns:xlink="http://www.w3.org/1999/xlink" x="0px" y="0px"
	 width="48px" height="48px" viewBox="0 0 48 48" enable-background="new 0 0 48 48" xml:space="preserve">
<path d="M2,25h26c0.552,0,1-0.448,1-1s-0.448-1-1-1H2c-0.552,0-1,0.448-1,1S1.448,25,2,25z"/>
<path d="M46,9H2c-0.552,0-1,0.448-1,1s0.448,1,1,1h44c0.552,0,1-0.448,1-1S46.552,9,46,9z"/>
<path d="M46,37H2c-0.552,0-1,0.448-1,1s0.448,1,1,1h44c0.552,0,1-0.448,1-1S46.552,37,46,37z"/>
</svg>
