<?xml version="1.0" encoding="utf-8"?>
<!-- Generator: Adobe Illustrator 19.2.1, SVG Export Plug-In . SVG Version: 6.00 Build 0)  -->
<!DOCTYPE svg PUBLIC "-//W3C//DTD SVG 1.1//EN" "http://www.w3.org/Graphics/SVG/1.1/DTD/svg11.dtd">
<svg version="1.1" id="Layer_1" xmlns="http://www.w3.org/2000/svg" xmlns:xlink="http://www.w3.org/1999/xlink" x="0px" y="0px"
	 width="48px" height="48px" viewBox="0 0 48 48" enable-background="new 0 0 48 48" xml:space="preserve">
<path d="M27.672,14.929c0.391-0.391,0.391-1.023,0-1.414s-1.023-0.391-1.414,0L14.236,25.535c-2.339,2.34-2.339,6.146,0,8.485
	c1.134,1.134,2.641,1.758,4.243,1.758s3.109-0.624,4.242-1.758l14.143-14.142c3.899-3.899,3.899-10.243,0-14.143
	c-3.898-3.898-10.244-3.898-14.143,0L7.166,21.293c-5.459,5.459-5.459,14.34,0,19.799c2.644,2.645,6.159,4.101,9.899,4.101
	c3.739,0,7.255-1.456,9.899-4.101l17.677-17.678c0.391-0.391,0.391-1.023,0-1.414s-1.023-0.391-1.414,0L25.551,39.678
	c-2.267,2.267-5.28,3.515-8.485,3.515c-3.206,0-6.219-1.248-8.485-3.515c-4.679-4.679-4.679-12.292,0-16.971L24.136,7.15
	c3.119-3.119,8.195-3.119,11.314,0s3.119,8.195,0,11.314L21.308,32.606c-1.512,1.512-4.146,1.512-5.657,0
	c-1.56-1.56-1.56-4.098,0-5.657L27.672,14.929z"/>
</svg>
