<?xml version="1.0" encoding="utf-8"?>
<!-- Generator: Adobe Illustrator 19.2.1, SVG Export Plug-In . SVG Version: 6.00 Build 0)  -->
<!DOCTYPE svg PUBLIC "-//W3C//DTD SVG 1.1//EN" "http://www.w3.org/Graphics/SVG/1.1/DTD/svg11.dtd">
<svg version="1.1" id="Layer_1" xmlns="http://www.w3.org/2000/svg" xmlns:xlink="http://www.w3.org/1999/xlink" x="0px" y="0px"
	 width="48px" height="48px" viewBox="0 0 48 48" enable-background="new 0 0 48 48" xml:space="preserve">
<path fill="#222221" d="M46,7H18c-0.552,0-1,0.448-1,1s0.448,1,1,1h28c0.552,0,1-0.448,1-1S46.552,7,46,7z"/>
<path fill="#222221" d="M46,19H18c-0.552,0-1,0.448-1,1s0.448,1,1,1h28c0.552,0,1-0.448,1-1S46.552,19,46,19z"/>
<path fill="#222221" d="M46,31H18c-0.552,0-1,0.448-1,1s0.448,1,1,1h28c0.552,0,1-0.448,1-1S46.552,31,46,31z"/>
<path fill="#222221" d="M46,43H18c-0.552,0-1,0.448-1,1s0.448,1,1,1h28c0.552,0,1-0.448,1-1S46.552,43,46,43z"/>
<path fill="#222221" d="M6,37c2.757,0,5-2.243,5-5s-2.243-5-5-5s-5,2.243-5,5S3.243,37,6,37z M6,29c1.654,0,3,1.346,3,3
	s-1.346,3-3,3s-3-1.346-3-3S4.346,29,6,29z"/>
<path fill="#222221" d="M6,13c2.757,0,5-2.243,5-5S8.757,3,6,3S1,5.243,1,8S3.243,13,6,13z M6,5c1.654,0,3,1.346,3,3s-1.346,3-3,3
	S3,9.654,3,8S4.346,5,6,5z"/>
</svg>
