<?xml version="1.0" encoding="utf-8"?>
<!-- Generator: Adobe Illustrator 19.2.1, SVG Export Plug-In . SVG Version: 6.00 Build 0)  -->
<!DOCTYPE svg PUBLIC "-//W3C//DTD SVG 1.1//EN" "http://www.w3.org/Graphics/SVG/1.1/DTD/svg11.dtd">
<svg version="1.1" id="Layer_1" xmlns="http://www.w3.org/2000/svg" xmlns:xlink="http://www.w3.org/1999/xlink" x="0px" y="0px"
	 width="48px" height="48px" viewBox="0 0 48 48" enable-background="new 0 0 48 48" xml:space="preserve">
<path d="M46,5H2C1.448,5,1,5.447,1,6v10v26c0,0.553,0.448,1,1,1h44c0.552,0,1-0.447,1-1V16V6C47,5.447,46.552,5,46,5z M3,7h42v8.406
	L24,26.861L3,15.406V7z M3,41V17.685l20.521,11.193C23.67,28.959,23.835,29,24,29s0.33-0.041,0.479-0.122L45,17.685V41H3z"/>
</svg>
