<?xml version="1.0" encoding="utf-8"?>
<!-- Generator: Adobe Illustrator 19.2.1, SVG Export Plug-In . SVG Version: 6.00 Build 0)  -->
<!DOCTYPE svg PUBLIC "-//W3C//DTD SVG 1.1//EN" "http://www.w3.org/Graphics/SVG/1.1/DTD/svg11.dtd">
<svg version="1.1" id="Layer_1" xmlns="http://www.w3.org/2000/svg" xmlns:xlink="http://www.w3.org/1999/xlink" x="0px" y="0px"
	 width="48px" height="48px" viewBox="0 0 48 48" enable-background="new 0 0 48 48" xml:space="preserve">
<path d="M46,1H2C1.448,1,1,1.448,1,2v44c0,0.552,0.448,1,1,1h44c0.552,0,1-0.448,1-1V2C47,1.448,46.552,1,46,1z M45,45H3V3h42V45z"
	/>
<path d="M12,28h8v8c0,0.552,0.448,1,1,1h6c0.552,0,1-0.448,1-1v-8h8c0.552,0,1-0.448,1-1v-6c0-0.552-0.448-1-1-1h-8v-8
	c0-0.552-0.448-1-1-1h-6c-0.552,0-1,0.448-1,1v8h-8c-0.552,0-1,0.448-1,1v6C11,27.552,11.448,28,12,28z M13,22h8
	c0.552,0,1-0.448,1-1v-8h4v8c0,0.552,0.448,1,1,1h8v4h-8c-0.552,0-1,0.448-1,1v8h-4v-8c0-0.552-0.448-1-1-1h-8V22z"/>
</svg>
