<?xml version="1.0" encoding="utf-8"?>
<!-- Generator: Adobe Illustrator 19.2.1, SVG Export Plug-In . SVG Version: 6.00 Build 0)  -->
<!DOCTYPE svg PUBLIC "-//W3C//DTD SVG 1.1//EN" "http://www.w3.org/Graphics/SVG/1.1/DTD/svg11.dtd">
<svg version="1.1" id="Layer_1" xmlns="http://www.w3.org/2000/svg" xmlns:xlink="http://www.w3.org/1999/xlink" x="0px" y="0px"
	 width="48px" height="48px" viewBox="0 0 48 48" enable-background="new 0 0 48 48" xml:space="preserve">
<path d="M24,37c12.329,0,20.488-11.934,20.83-12.442c0.226-0.336,0.227-0.775,0.002-1.112C44.493,22.937,36.393,11,24,11
	C11.543,11,3.502,22.94,3.166,23.448c-0.222,0.335-0.222,0.771,0.002,1.106C3.507,25.063,11.607,37,24,37z M31,20
	c0,3.86-3.141,7-7,7s-7-3.14-7-7c0-3.611,2.749-6.591,6.263-6.96C23.509,13.029,23.75,13,24,13c0.251,0,0.492,0.029,0.739,0.04
	C28.252,13.411,31,16.39,31,20z M16.891,14.502C15.71,16.024,15,17.929,15,20c0,4.962,4.037,9,9,9s9-4.038,9-9
	c0-2.064-0.706-3.962-1.878-5.482c6.108,2.594,10.364,7.774,11.644,9.48C41.023,26.306,33.808,35,24,35
	c-9.863,0-17.041-8.699-18.769-11.002C6.503,22.292,10.751,17.091,16.891,14.502z"/>
</svg>
