<?xml version="1.0" encoding="utf-8"?>
<!-- Generator: Adobe Illustrator 19.2.1, SVG Export Plug-In . SVG Version: 6.00 Build 0)  -->
<!DOCTYPE svg PUBLIC "-//W3C//DTD SVG 1.1//EN" "http://www.w3.org/Graphics/SVG/1.1/DTD/svg11.dtd">
<svg version="1.1" id="Layer_1" xmlns="http://www.w3.org/2000/svg" xmlns:xlink="http://www.w3.org/1999/xlink" x="0px" y="0px"
	 width="48px" height="48px" viewBox="0 0 48 48" enable-background="new 0 0 48 48" xml:space="preserve">
<path d="M46,17h-5v-5c0-0.553-0.448-1-1-1H2c-0.552,0-1,0.447-1,1v24c0,0.553,0.448,1,1,1h38c0.552,0,1-0.447,1-1v-5h5
	c0.552,0,1-0.447,1-1V18C47,17.447,46.552,17,46,17z M39,35H3V13h36V35z M45,29h-4V19h4V29z"/>
<path d="M16,17H8c-0.552,0-1,0.447-1,1v12c0,0.553,0.448,1,1,1h8c0.552,0,1-0.447,1-1V18C17,17.447,16.552,17,16,17z M15,29H9V19h6
	V29z"/>
</svg>
