<?xml version="1.0" encoding="utf-8"?>
<!-- Generator: Adobe Illustrator 19.2.1, SVG Export Plug-In . SVG Version: 6.00 Build 0)  -->
<!DOCTYPE svg PUBLIC "-//W3C//DTD SVG 1.1//EN" "http://www.w3.org/Graphics/SVG/1.1/DTD/svg11.dtd">
<svg version="1.1" id="Layer_1" xmlns="http://www.w3.org/2000/svg" xmlns:xlink="http://www.w3.org/1999/xlink" x="0px" y="0px"
	 width="48px" height="48px" viewBox="0 0 48 48" enable-background="new 0 0 48 48" xml:space="preserve">
<path d="M20,41c0,2.206,1.794,4,4,4s4-1.794,4-4s-1.794-4-4-4S20,38.794,20,41z M24,39c1.103,0,2,0.897,2,2s-0.897,2-2,2
	s-2-0.897-2-2S22.897,39,24,39z"/>
<path d="M25,30V4c0-0.552-0.447-1-1-1s-1,0.448-1,1v26c0,0.552,0.447,1,1,1S25,30.552,25,30z"/>
</svg>
