<?xml version="1.0" encoding="utf-8"?>
<!-- Generator: Adobe Illustrator 19.2.1, SVG Export Plug-In . SVG Version: 6.00 Build 0)  -->
<!DOCTYPE svg PUBLIC "-//W3C//DTD SVG 1.1//EN" "http://www.w3.org/Graphics/SVG/1.1/DTD/svg11.dtd">
<svg version="1.1" id="Layer_1" xmlns="http://www.w3.org/2000/svg" xmlns:xlink="http://www.w3.org/1999/xlink" x="0px" y="0px"
	 width="48px" height="48px" viewBox="0 0 48 48" enable-background="new 0 0 48 48" xml:space="preserve">
<path d="M35.707,3.293c-0.391-0.391-1.023-0.391-1.414,0l-30,30C4.105,33.48,4,33.734,4,34v9c0,0.553,0.448,1,1,1h9
	c0.265,0,0.52-0.105,0.707-0.293l30-30c0.391-0.391,0.391-1.023,0-1.414L35.707,3.293z M13.586,42H6v-7.586l23-23L36.586,19
	L13.586,42z M38,17.586L30.414,10L35,5.414L42.586,13L38,17.586z"/>
</svg>
