<?xml version="1.0" encoding="utf-8"?>
<!-- Generator: Adobe Illustrator 19.2.1, SVG Export Plug-In . SVG Version: 6.00 Build 0)  -->
<!DOCTYPE svg PUBLIC "-//W3C//DTD SVG 1.1//EN" "http://www.w3.org/Graphics/SVG/1.1/DTD/svg11.dtd">
<svg version="1.1" id="Layer_1" xmlns="http://www.w3.org/2000/svg" xmlns:xlink="http://www.w3.org/1999/xlink" x="0px" y="0px"
	 width="48px" height="48px" viewBox="0 0 48 48" enable-background="new 0 0 48 48" xml:space="preserve">
<path d="M38.863,21.041C37.89,13.098,31.089,7,23,7C14.7,7,7.843,13.318,7.088,21.511C3.469,22.746,1,26.139,1,30
	c0,4.962,4.038,9,9,9h28c4.962,0,9-4.038,9-9C47,25.329,43.422,21.477,38.863,21.041z M38,37H10c-3.86,0-7-3.14-7-7
	c0-3.19,2.172-5.97,5.283-6.759c0.426-0.108,0.731-0.482,0.753-0.921C9.396,14.851,15.529,9,23,9c7.341,0,13.47,5.741,13.952,13.07
	c0.035,0.526,0.471,0.935,0.998,0.935c0.026,0,0.062-0.002,0.095-0.005C41.884,23.024,45,26.155,45,30C45,33.86,41.86,37,38,37z"/>
</svg>
