<?xml version="1.0" encoding="utf-8"?>
<!-- Generator: Adobe Illustrator 19.2.1, SVG Export Plug-In . SVG Version: 6.00 Build 0)  -->
<!DOCTYPE svg PUBLIC "-//W3C//DTD SVG 1.1//EN" "http://www.w3.org/Graphics/SVG/1.1/DTD/svg11.dtd">
<svg version="1.1" id="Layer_1" xmlns="http://www.w3.org/2000/svg" xmlns:xlink="http://www.w3.org/1999/xlink" x="0px" y="0px"
	 width="48px" height="48px" viewBox="0 0 48 48" enable-background="new 0 0 48 48" xml:space="preserve">
<path d="M38,19c4.962,0,9-4.037,9-9s-4.038-9-9-9s-9,4.037-9,9c0,1.091,0.205,2.132,0.562,3.101l-12.017,6.009
	C15.938,16.64,13.159,15,10,15c-4.962,0-9,4.037-9,9s4.038,9,9,9c3.199,0,6.007-1.683,7.603-4.205l11.998,5.999
	C29.219,35.791,29,36.87,29,38c0,4.963,4.038,9,9,9s9-4.037,9-9s-4.038-9-9-9c-3.119,0-5.871,1.596-7.487,4.014l-12.037-6.019
	C18.809,26.057,19,25.051,19,24c0-1.091-0.205-2.132-0.562-3.101l12.017-6.009C32.062,17.36,34.841,19,38,19z M38,31
	c3.86,0,7,3.141,7,7s-3.14,7-7,7s-7-3.141-7-7S34.14,31,38,31z M10,31c-3.86,0-7-3.141-7-7s3.14-7,7-7s7,3.141,7,7
	c0,0.999-0.214,1.949-0.593,2.81c-0.053,0.062-0.113,0.117-0.151,0.193c-0.044,0.088-0.057,0.18-0.074,0.272
	C15.005,29.488,12.677,31,10,31z M38,3c3.86,0,7,3.141,7,7s-3.14,7-7,7s-7-3.141-7-7S34.14,3,38,3z"/>
</svg>
