<?xml version="1.0" encoding="utf-8"?>
<!-- Generator: Adobe Illustrator 19.2.1, SVG Export Plug-In . SVG Version: 6.00 Build 0)  -->
<!DOCTYPE svg PUBLIC "-//W3C//DTD SVG 1.1//EN" "http://www.w3.org/Graphics/SVG/1.1/DTD/svg11.dtd">
<svg version="1.1" id="Layer_1" xmlns="http://www.w3.org/2000/svg" xmlns:xlink="http://www.w3.org/1999/xlink" x="0px" y="0px"
	 width="48px" height="48px" viewBox="0 0 48 48" enable-background="new 0 0 48 48" xml:space="preserve">
<path d="M24,47c9.211,0,19-2.453,19-7V8c0-4.547-9.789-7-19-7S5,3.453,5,8v32C5,44.547,14.789,47,24,47z M24,45
	c-10.533,0-17-2.912-17-5V27.261C10.331,29.707,17.316,31,24,31s13.669-1.293,17-3.739V40C41,42.088,34.533,45,24,45z M41,24
	c0,2.088-6.467,5-17,5S7,26.088,7,24V11.261C10.331,13.707,17.316,15,24,15s13.669-1.293,17-3.739V24z M24,3c10.533,0,17,2.912,17,5
	s-6.467,5-17,5S7,10.088,7,8S13.467,3,24,3z"/>
</svg>
