<?xml version="1.0" encoding="utf-8"?>
<!-- Generator: Adobe Illustrator 19.2.1, SVG Export Plug-In . SVG Version: 6.00 Build 0)  -->
<!DOCTYPE svg PUBLIC "-//W3C//DTD SVG 1.1//EN" "http://www.w3.org/Graphics/SVG/1.1/DTD/svg11.dtd">
<svg version="1.1" id="Layer_1" xmlns="http://www.w3.org/2000/svg" xmlns:xlink="http://www.w3.org/1999/xlink" x="0px" y="0px"
	 width="48px" height="48px" viewBox="0 0 48 48" enable-background="new 0 0 48 48" xml:space="preserve">
<path d="M10,33h10c4.962,0,9-4.037,9-9c0-0.553-0.448-1-1-1s-1,0.447-1,1c0,3.859-3.14,7-7,7H10c-3.86,0-7-3.141-7-7s3.14-7,7-7h4
	c0.552,0,1-0.447,1-1s-0.448-1-1-1h-4c-4.962,0-9,4.037-9,9S5.038,33,10,33z"/>
<path d="M38,15H28c-4.962,0-9,4.037-9,9c0,0.553,0.448,1,1,1s1-0.447,1-1c0-3.859,3.14-7,7-7h10c3.86,0,7,3.141,7,7s-3.14,7-7,7h-4
	c-0.552,0-1,0.447-1,1s0.448,1,1,1h4c4.962,0,9-4.037,9-9S42.962,15,38,15z"/>
</svg>
