<?xml version="1.0" encoding="utf-8"?>
<!-- Generator: Adobe Illustrator 19.2.1, SVG Export Plug-In . SVG Version: 6.00 Build 0)  -->
<!DOCTYPE svg PUBLIC "-//W3C//DTD SVG 1.1//EN" "http://www.w3.org/Graphics/SVG/1.1/DTD/svg11.dtd">
<svg version="1.1" id="Layer_1" xmlns="http://www.w3.org/2000/svg" xmlns:xlink="http://www.w3.org/1999/xlink" x="0px" y="0px"
	 width="48px" height="48px" viewBox="0 0 48 48" enable-background="new 0 0 48 48" xml:space="preserve">
<path d="M43.293,3.293l-22,22c-0.391,0.391-0.391,1.023,0,1.414C21.488,26.902,21.744,27,22,27s0.512-0.098,0.707-0.293l22-22
	c0.391-0.391,0.391-1.023,0-1.414S43.684,2.902,43.293,3.293z"/>
<path d="M22,47c11.579,0,21-9.421,21-21c0-2.146-0.323-4.265-0.96-6.295c-0.165-0.526-0.727-0.821-1.254-0.654
	c-0.526,0.165-0.819,0.727-0.654,1.254C40.708,22.141,41,24.057,41,26c0,10.477-8.523,19-19,19S3,36.477,3,26S11.523,7,22,7
	c1.943,0,3.858,0.292,5.691,0.867c0.527,0.164,1.089-0.129,1.254-0.654c0.165-0.527-0.128-1.089-0.654-1.254
	C26.264,5.322,24.146,5,22,5C10.421,5,1,14.421,1,26S10.421,47,22,47z"/>
</svg>
