<?xml version="1.0" encoding="utf-8"?>
<!-- Generator: Adobe Illustrator 19.2.1, SVG Export Plug-In . SVG Version: 6.00 Build 0)  -->
<!DOCTYPE svg PUBLIC "-//W3C//DTD SVG 1.1//EN" "http://www.w3.org/Graphics/SVG/1.1/DTD/svg11.dtd">
<svg version="1.1" id="Layer_1" xmlns="http://www.w3.org/2000/svg" xmlns:xlink="http://www.w3.org/1999/xlink" x="0px" y="0px"
	 width="48px" height="48px" viewBox="0 0 48 48" enable-background="new 0 0 48 48" xml:space="preserve">
<path d="M42,1H6C5.448,1,5,1.447,5,2v8c0,0.292,0.127,0.569,0.349,0.759L19,22.46V44c0,0.347,0.18,0.668,0.474,0.851
	C19.635,44.95,19.817,45,20,45c0.153,0,0.306-0.035,0.447-0.105l8-4C28.786,40.725,29,40.379,29,40V22.46l13.651-11.701
	C42.873,10.569,43,10.292,43,10V2C43,1.447,42.552,1,42,1z M41,9.54L27.349,21.241C27.127,21.431,27,21.708,27,22v17.382l-6,3V22
	c0-0.292-0.127-0.569-0.349-0.759L7,9.54V3h34V9.54z"/>
</svg>
