<?xml version="1.0" encoding="utf-8"?>
<!-- Generator: Adobe Illustrator 19.2.1, SVG Export Plug-In . SVG Version: 6.00 Build 0)  -->
<!DOCTYPE svg PUBLIC "-//W3C//DTD SVG 1.1//EN" "http://www.w3.org/Graphics/SVG/1.1/DTD/svg11.dtd">
<svg version="1.1" id="Layer_1" xmlns="http://www.w3.org/2000/svg" xmlns:xlink="http://www.w3.org/1999/xlink" x="0px" y="0px"
	 width="48px" height="48px" viewBox="0 0 48 48" enable-background="new 0 0 48 48" xml:space="preserve">
<path fill="#222221" d="M46,1H2C1.447,1,1,1.448,1,2v44c0,0.552,0.447,1,1,1h21c0.553,0,1-0.448,1-1s-0.447-1-1-1H3V3h42v20
	c0,0.552,0.447,1,1,1s1-0.448,1-1V2C47,1.448,46.553,1,46,1z"/>
<path fill="#222221" d="M43,29c0-0.552-0.447-1-1-1H29c-0.13,0-0.26,0.027-0.382,0.077c-0.245,0.101-0.44,0.296-0.541,0.541
	C28.027,28.74,28,28.87,28,29v13c0,0.552,0.447,1,1,1s1-0.448,1-1V31.414l14.293,14.293C44.488,45.902,44.744,46,45,46
	s0.512-0.098,0.707-0.293c0.391-0.391,0.391-1.023,0-1.414L31.414,30H42C42.553,30,43,29.552,43,29z"/>
</svg>
