<?xml version="1.0" encoding="utf-8"?>
<!-- Generator: Adobe Illustrator 19.2.1, SVG Export Plug-In . SVG Version: 6.00 Build 0)  -->
<!DOCTYPE svg PUBLIC "-//W3C//DTD SVG 1.1//EN" "http://www.w3.org/Graphics/SVG/1.1/DTD/svg11.dtd">
<svg version="1.1" id="Layer_1" xmlns="http://www.w3.org/2000/svg" xmlns:xlink="http://www.w3.org/1999/xlink" x="0px" y="0px"
	 width="48px" height="48px" viewBox="0 0 48 48" enable-background="new 0 0 48 48" xml:space="preserve">
<path d="M30,47h12c0.553,0,1-0.448,1-1V20c0-0.286-0.122-0.558-0.336-0.748l-18-16c-0.379-0.337-0.949-0.337-1.328,0l-18,16
	C5.122,19.442,5,19.714,5,20v26c0,0.552,0.447,1,1,1h12c0.553,0,1-0.448,1-1V33h10v13C29,46.552,29.447,47,30,47z M18,31
	c-0.553,0-1,0.448-1,1v13H7V20.449L24,5.338l17,15.111V45H31V32c0-0.552-0.447-1-1-1H18z"/>
</svg>
