<?xml version="1.0" encoding="utf-8"?>
<!-- Generator: Adobe Illustrator 19.2.1, SVG Export Plug-In . SVG Version: 6.00 Build 0)  -->
<!DOCTYPE svg PUBLIC "-//W3C//DTD SVG 1.1//EN" "http://www.w3.org/Graphics/SVG/1.1/DTD/svg11.dtd">
<svg version="1.1" id="Layer_1" xmlns="http://www.w3.org/2000/svg" xmlns:xlink="http://www.w3.org/1999/xlink" x="0px" y="0px"
	 width="48px" height="48px" viewBox="0 0 48 48" enable-background="new 0 0 48 48" xml:space="preserve">
<path fill="#222221" d="M2.077,26.382c0.051,0.123,0.124,0.233,0.217,0.326l5.999,5.999C8.488,32.902,8.744,33,9,33
	s0.512-0.098,0.707-0.293c0.391-0.391,0.391-1.023,0-1.414L5.414,27H27c0.553,0,1-0.448,1-1s-0.447-1-1-1H5.414l4.293-4.293
	c0.391-0.391,0.391-1.023,0-1.414s-1.023-0.391-1.414,0l-5.999,5.999c-0.093,0.092-0.166,0.203-0.217,0.326
	C1.976,25.862,1.976,26.138,2.077,26.382z"/>
<path fill="#222221" d="M46,7h-8V4c0-0.552-0.447-1-1-1s-1,0.448-1,1v3H20V4c0-0.552-0.447-1-1-1s-1,0.448-1,1v3h-8
	C9.447,7,9,7.448,9,8v6c0,0.552,0.447,1,1,1s1-0.448,1-1V9h7v3c0,0.552,0.447,1,1,1s1-0.448,1-1V9h16v3c0,0.552,0.447,1,1,1
	s1-0.448,1-1V9h7v34H11v-5c0-0.552-0.447-1-1-1s-1,0.448-1,1v6c0,0.552,0.447,1,1,1h36c0.553,0,1-0.448,1-1V8
	C47,7.448,46.553,7,46,7z"/>
</svg>
