<?xml version="1.0" encoding="utf-8"?>
<!-- Generator: Adobe Illustrator 19.2.1, SVG Export Plug-In . SVG Version: 6.00 Build 0)  -->
<!DOCTYPE svg PUBLIC "-//W3C//DTD SVG 1.1//EN" "http://www.w3.org/Graphics/SVG/1.1/DTD/svg11.dtd">
<svg version="1.1" id="Layer_1" xmlns="http://www.w3.org/2000/svg" xmlns:xlink="http://www.w3.org/1999/xlink" x="0px" y="0px"
	 width="48px" height="48px" viewBox="0 0 48 48" enable-background="new 0 0 48 48" xml:space="preserve">
<path d="M5,14v32c0,0.553,0.448,1,1,1h36c0.552,0,1-0.447,1-1V14c0-0.553-0.448-1-1-1H6C5.448,13,5,13.447,5,14z M7,15h34v30H7V15z"
	/>
<path d="M38,7H10C9.448,7,9,7.447,9,8s0.448,1,1,1h28c0.552,0,1-0.447,1-1S38.552,7,38,7z"/>
<path d="M32,1H16c-0.552,0-1,0.447-1,1s0.448,1,1,1h16c0.552,0,1-0.447,1-1S32.552,1,32,1z"/>
<path d="M32,23c-0.552,0-1,0.447-1,1v3H17v-3c0-0.553-0.448-1-1-1s-1,0.447-1,1v4c0,0.553,0.448,1,1,1h16c0.552,0,1-0.447,1-1v-4
	C33,23.447,32.552,23,32,23z"/>
</svg>
