<?xml version="1.0" encoding="utf-8"?>
<!-- Generator: Adobe Illustrator 19.2.1, SVG Export Plug-In . SVG Version: 6.00 Build 0)  -->
<!DOCTYPE svg PUBLIC "-//W3C//DTD SVG 1.1//EN" "http://www.w3.org/Graphics/SVG/1.1/DTD/svg11.dtd">
<svg version="1.1" id="Layer_1" xmlns="http://www.w3.org/2000/svg" xmlns:xlink="http://www.w3.org/1999/xlink" x="0px" y="0px"
	 width="48px" height="48px" viewBox="0 0 48 48" enable-background="new 0 0 48 48" xml:space="preserve">
<path d="M15.2,40.6C15.39,40.853,15.687,41,16,41c0.026,0,0.052-0.001,0.079-0.003c0.341-0.027,0.645-0.227,0.805-0.529
	c8.855-16.739,27.351-25.475,27.537-25.561c0.245-0.114,0.434-0.322,0.523-0.577c0.089-0.255,0.071-0.536-0.049-0.777l-2-4
	c-0.217-0.433-0.714-0.651-1.177-0.512C26.76,13.449,18.171,22.056,15.852,24.639L8.6,19.2c-0.397-0.299-0.956-0.259-1.307,0.093
	l-4,4C2.941,23.645,2.901,24.202,3.2,24.6L15.2,40.6z M8.094,21.32L15.4,26.8c0.431,0.323,1.042,0.247,1.38-0.174
	c0.084-0.105,8.472-10.391,24.702-15.424l1.173,2.345c-3.852,1.959-18.491,10.111-26.785,24.615L5.32,24.094L8.094,21.32z"/>
</svg>
