<?xml version="1.0" encoding="utf-8"?>
<!-- Generator: Adobe Illustrator 19.2.1, SVG Export Plug-In . SVG Version: 6.00 Build 0)  -->
<!DOCTYPE svg PUBLIC "-//W3C//DTD SVG 1.1//EN" "http://www.w3.org/Graphics/SVG/1.1/DTD/svg11.dtd">
<svg version="1.1" id="Layer_1" xmlns="http://www.w3.org/2000/svg" xmlns:xlink="http://www.w3.org/1999/xlink" x="0px" y="0px"
	 width="48px" height="48px" viewBox="0 0 48 48" enable-background="new 0 0 48 48" xml:space="preserve">
<path fill="#222221" d="M35,5H13c-0.363,0-0.698,0.197-0.874,0.514l-10,18c-0.168,0.302-0.168,0.669,0,0.972l10,18
	C12.302,42.803,12.637,43,13,43h22c0.363,0,0.698-0.197,0.874-0.514l10-18c0.168-0.302,0.168-0.669,0-0.972l-10-18
	C35.698,5.197,35.363,5,35,5z M34.411,41H13.589L4.144,24l9.445-17h20.822l9.445,17L34.411,41z"/>
<path fill="#222221" d="M24,15c-4.963,0-9,4.038-9,9s4.037,9,9,9s9-4.038,9-9S28.963,15,24,15z M24,31c-3.859,0-7-3.14-7-7
	s3.141-7,7-7s7,3.14,7,7S27.859,31,24,31z"/>
</svg>
