<?xml version="1.0" encoding="utf-8"?>
<!-- Generator: Adobe Illustrator 19.2.1, SVG Export Plug-In . SVG Version: 6.00 Build 0)  -->
<!DOCTYPE svg PUBLIC "-//W3C//DTD SVG 1.1//EN" "http://www.w3.org/Graphics/SVG/1.1/DTD/svg11.dtd">
<svg version="1.1" id="Layer_1" xmlns="http://www.w3.org/2000/svg" xmlns:xlink="http://www.w3.org/1999/xlink" x="0px" y="0px"
	 width="48px" height="48px" viewBox="0 0 48 48" enable-background="new 0 0 48 48" xml:space="preserve">
<path d="M46,1H2C1.447,1,1,1.447,1,2v44c0,0.553,0.447,1,1,1h44c0.553,0,1-0.447,1-1V2C47,1.447,46.553,1,46,1z M45,3v20h-9
	c-0.379,0-0.725,0.214-0.895,0.553L30,33.764L18.895,11.553c-0.34-0.678-1.449-0.678-1.789,0L11.382,23H3V3H45z M3,45V25h9
	c0.379,0,0.725-0.214,0.895-0.553L18,14.236l11.105,22.211C29.275,36.786,29.621,37,30,37s0.725-0.214,0.895-0.553L36.618,25H45v20
	H3z"/>
</svg>
