<?xml version="1.0" encoding="utf-8"?>
<!-- Generator: Adobe Illustrator 19.2.1, SVG Export Plug-In . SVG Version: 6.00 Build 0)  -->
<!DOCTYPE svg PUBLIC "-//W3C//DTD SVG 1.1//EN" "http://www.w3.org/Graphics/SVG/1.1/DTD/svg11.dtd">
<svg version="1.1" id="Layer_1" xmlns="http://www.w3.org/2000/svg" xmlns:xlink="http://www.w3.org/1999/xlink" x="0px" y="0px"
	 width="48px" height="48px" viewBox="0 0 48 48" enable-background="new 0 0 48 48" xml:space="preserve">
<path fill="#222221" d="M38,47c0.265,0,0.52-0.105,0.707-0.293l6-6c0.391-0.391,0.391-1.023,0-1.414l-10-10
	c-0.391-0.391-1.023-0.391-1.414,0L28,34.586L13.414,20l5.293-5.293c0.391-0.391,0.391-1.023,0-1.414l-10-10
	c-0.391-0.391-1.023-0.391-1.414,0l-6,6C1.105,9.48,1,9.735,1,10C1,30.402,17.598,47,38,47z M8,5.414L16.586,14l-5.293,5.293
	c-0.391,0.391-0.391,1.023,0,1.414l16,16c0.391,0.391,1.023,0.391,1.414,0L34,31.414L42.586,40l-4.998,4.998
	C18.616,44.777,3.223,29.384,3.002,10.412L8,5.414z"/>
<path fill="#222221" d="M28,1c-0.552,0-1,0.448-1,1s0.448,1,1,1c9.374,0,17,7.626,17,17c0,0.552,0.448,1,1,1s1-0.448,1-1
	C47,9.523,38.477,1,28,1z"/>
<path fill="#222221" d="M37,20c0,0.552,0.448,1,1,1s1-0.448,1-1c0-6.065-4.935-11-11-11c-0.552,0-1,0.448-1,1s0.448,1,1,1
	C32.962,11,37,15.038,37,20z"/>
</svg>
