<?xml version="1.0" encoding="utf-8"?>
<!-- Generator: Adobe Illustrator 19.2.1, SVG Export Plug-In . SVG Version: 6.00 Build 0)  -->
<!DOCTYPE svg PUBLIC "-//W3C//DTD SVG 1.1//EN" "http://www.w3.org/Graphics/SVG/1.1/DTD/svg11.dtd">
<svg version="1.1" id="Layer_1" xmlns="http://www.w3.org/2000/svg" xmlns:xlink="http://www.w3.org/1999/xlink" x="0px" y="0px"
	 width="48px" height="48px" viewBox="0 0 48 48" enable-background="new 0 0 48 48" xml:space="preserve">
<path d="M20,1C9.523,1,1,9.523,1,20s8.523,19,19,19c4.879,0,9.32-1.864,12.688-4.898l10.605,10.605C43.488,44.902,43.744,45,44,45
	s0.512-0.098,0.707-0.293c0.391-0.391,0.391-1.023,0-1.414L34.102,32.688C37.136,29.32,39,24.879,39,20C39,9.523,30.477,1,20,1z
	 M3,20c0-9.374,7.626-17,17-17s17,7.626,17,17s-7.626,17-17,17S3,29.374,3,20z"/>
<path d="M26,19H14c-0.553,0-1,0.448-1,1s0.447,1,1,1h12c0.553,0,1-0.448,1-1S26.553,19,26,19z"/>
</svg>
