<?xml version="1.0" encoding="utf-8"?>
<!-- Generator: Adobe Illustrator 19.2.1, SVG Export Plug-In . SVG Version: 6.00 Build 0)  -->
<!DOCTYPE svg PUBLIC "-//W3C//DTD SVG 1.1//EN" "http://www.w3.org/Graphics/SVG/1.1/DTD/svg11.dtd">
<svg version="1.1" id="Layer_1" xmlns="http://www.w3.org/2000/svg" xmlns:xlink="http://www.w3.org/1999/xlink" x="0px" y="0px"
	 width="48px" height="48px" viewBox="0 0 48 48" enable-background="new 0 0 48 48" xml:space="preserve">
<path d="M35,3c-4.891,0-8.997,1.63-10.884,4.023C24.076,7.018,24.041,7,24,7s-0.076,0.018-0.116,0.023C21.997,4.63,17.891,3,13,3
	C6.271,3,1,6.075,1,10v34c0,0.553,0.447,1,1,1s1-0.447,1-1c0-2.71,4.579-5,10-5s10,2.29,10,5c0,0.553,0.447,1,1,1s1-0.447,1-1
	c0-2.71,4.579-5,10-5s10,2.29,10,5c0,0.553,0.447,1,1,1s1-0.447,1-1V10C47,6.075,41.729,3,35,3z M13,37c-4.221,0-7.867,1.21-10,3.08
	V10c0-2.71,4.579-5,10-5s10,2.29,10,5v30.101C20.87,38.223,17.231,37,13,37z M45,40.08C42.867,38.21,39.221,37,35,37
	c-4.231,0-7.87,1.223-10,3.101V10c0-2.71,4.579-5,10-5s10,2.29,10,5V40.08z"/>
</svg>
