<?xml version="1.0" encoding="utf-8"?>
<!-- Generator: Adobe Illustrator 19.2.1, SVG Export Plug-In . SVG Version: 6.00 Build 0)  -->
<!DOCTYPE svg PUBLIC "-//W3C//DTD SVG 1.1//EN" "http://www.w3.org/Graphics/SVG/1.1/DTD/svg11.dtd">
<svg version="1.1" id="Layer_1" xmlns="http://www.w3.org/2000/svg" xmlns:xlink="http://www.w3.org/1999/xlink" x="0px" y="0px"
	 width="48px" height="48px" viewBox="0 0 48 48" enable-background="new 0 0 48 48" xml:space="preserve">
<path d="M3.293,44.707C3.488,44.902,3.744,45,4,45s0.512-0.098,0.707-0.293l6.179-6.179c1.359,0.629,4.586,1.891,8.589,1.891
	c4.008,0,8.788-1.268,13.232-5.712c9.256-9.256,12.164-29.705,12.283-30.57c0.044-0.314-0.064-0.631-0.292-0.853
	S44.15,2.96,43.839,3.013c-0.892,0.146-21.932,3.666-30.546,12.28c-8.935,8.935-5.096,19.111-3.824,21.824l-6.176,6.176
	C2.902,43.684,2.902,44.316,3.293,44.707z M14.707,16.707C21.649,9.765,37.952,6.176,42.788,5.239
	c-0.823,4.756-4.046,20.604-11.495,28.054c-7.495,7.494-15.834,5.035-18.904,3.732l14.318-14.318c0.391-0.391,0.391-1.023,0-1.414
	s-1.023-0.391-1.414,0L10.979,35.607C9.695,32.543,7.249,24.165,14.707,16.707z"/>
</svg>
