<?xml version="1.0" encoding="utf-8"?>
<!-- Generator: Adobe Illustrator 19.2.1, SVG Export Plug-In . SVG Version: 6.00 Build 0)  -->
<!DOCTYPE svg PUBLIC "-//W3C//DTD SVG 1.1//EN" "http://www.w3.org/Graphics/SVG/1.1/DTD/svg11.dtd">
<svg version="1.1" id="Layer_1" xmlns="http://www.w3.org/2000/svg" xmlns:xlink="http://www.w3.org/1999/xlink" x="0px" y="0px"
	 width="48px" height="48px" viewBox="0 0 48 48" enable-background="new 0 0 48 48" xml:space="preserve">
<path d="M43.839,3.013c-0.892,0.146-21.932,3.666-30.546,12.28c-8.935,8.935-5.096,19.111-3.824,21.824l-6.176,6.176
	c-0.391,0.391-0.391,1.023,0,1.414C3.488,44.902,3.744,45,4,45s0.512-0.098,0.707-0.293l6.179-6.179
	c1.359,0.628,4.586,1.891,8.589,1.891c4.008,0,8.789-1.268,13.232-5.712c0.249-0.248,0.348-0.608,0.263-0.949l-1.563-6.254
	l4.498,1.449c0.466,0.147,0.972-0.06,1.196-0.495c4.815-9.373,7.756-23.655,7.879-24.259c0.065-0.322-0.031-0.655-0.259-0.893
	C44.493,3.07,44.162,2.96,43.839,3.013z M35.701,26.786l-5.395-1.738c-0.345-0.11-0.724-0.025-0.99,0.222
	c-0.265,0.248-0.375,0.621-0.287,0.973l1.861,7.442c-7.388,7.018-15.486,4.622-18.502,3.341l8.318-8.318
	c0.391-0.391,0.391-1.023,0-1.414s-1.023-0.391-1.414,0l-8.314,8.314c-1.284-3.064-3.73-11.442,3.728-18.9
	C21.609,9.806,37.763,6.218,42.702,5.256C41.847,9.038,39.313,19.395,35.701,26.786z"/>
</svg>
