<?xml version="1.0" encoding="utf-8"?>
<!-- Generator: Adobe Illustrator 19.2.1, SVG Export Plug-In . SVG Version: 6.00 Build 0)  -->
<!DOCTYPE svg PUBLIC "-//W3C//DTD SVG 1.1//EN" "http://www.w3.org/Graphics/SVG/1.1/DTD/svg11.dtd">
<svg version="1.1" id="Layer_1" xmlns="http://www.w3.org/2000/svg" xmlns:xlink="http://www.w3.org/1999/xlink" x="0px" y="0px"
	 width="48px" height="48px" viewBox="0 0 48 48" enable-background="new 0 0 48 48" xml:space="preserve">
<path d="M16,43c-0.553,0-1,0.448-1,1s0.447,1,1,1h16c0.553,0,1-0.448,1-1s-0.447-1-1-1h-7V18c0-0.552-0.447-1-1-1h-8
	c-0.553,0-1,0.448-1,1s0.447,1,1,1h7v24H16z"/>
<path d="M28,6c0-2.206-1.794-4-4-4s-4,1.794-4,4s1.794,4,4,4S28,8.206,28,6z M22,6c0-1.103,0.897-2,2-2s2,0.897,2,2s-0.897,2-2,2
	S22,7.103,22,6z"/>
</svg>
