<?xml version="1.0" encoding="utf-8"?>
<!-- Generator: Adobe Illustrator 19.2.1, SVG Export Plug-In . SVG Version: 6.00 Build 0)  -->
<!DOCTYPE svg PUBLIC "-//W3C//DTD SVG 1.1//EN" "http://www.w3.org/Graphics/SVG/1.1/DTD/svg11.dtd">
<svg version="1.1" id="Layer_1" xmlns="http://www.w3.org/2000/svg" xmlns:xlink="http://www.w3.org/1999/xlink" x="0px" y="0px"
	 width="48px" height="48px" viewBox="0 0 48 48" enable-background="new 0 0 48 48" xml:space="preserve">
<path d="M43,46V22c0-0.553-0.447-1-1-1s-1,0.447-1,1v23H3V7h23c0.553,0,1-0.447,1-1s-0.447-1-1-1H2C1.447,5,1,5.447,1,6v40
	c0,0.553,0.447,1,1,1h40C42.553,47,43,46.553,43,46z"/>
<path d="M43.293,3.293l-22,22c-0.391,0.391-0.391,1.023,0,1.414C21.488,26.902,21.744,27,22,27s0.512-0.098,0.707-0.293l22-22
	c0.391-0.391,0.391-1.023,0-1.414S43.684,2.902,43.293,3.293z"/>
</svg>
