<?xml version="1.0" encoding="utf-8"?>
<!-- Generator: Adobe Illustrator 19.2.1, SVG Export Plug-In . SVG Version: 6.00 Build 0)  -->
<!DOCTYPE svg PUBLIC "-//W3C//DTD SVG 1.1//EN" "http://www.w3.org/Graphics/SVG/1.1/DTD/svg11.dtd">
<svg version="1.1" id="Layer_1" xmlns="http://www.w3.org/2000/svg" xmlns:xlink="http://www.w3.org/1999/xlink" x="0px" y="0px"
	 width="48px" height="48px" viewBox="0 0 48 48" enable-background="new 0 0 48 48" xml:space="preserve">
<path d="M22,45c11.579,0,21-9.42,21-21c0-1.869-0.246-3.725-0.732-5.516c-0.144-0.533-0.692-0.846-1.227-0.704
	c-0.533,0.145-0.848,0.694-0.703,1.227C40.777,20.628,41,22.308,41,24c0,10.477-8.523,19-19,19S3,34.477,3,24S11.523,5,22,5
	c3.54,0,6.992,0.979,9.985,2.832c0.47,0.291,1.086,0.146,1.377-0.324c0.29-0.47,0.146-1.086-0.324-1.376C29.729,4.083,25.912,3,22,3
	C10.421,3,1,12.42,1,24S10.421,45,22,45z"/>
<path d="M14.707,19.293c-0.391-0.391-1.023-0.391-1.414,0s-0.391,1.023,0,1.414l8,8C21.488,28.902,21.744,29,22,29
	s0.512-0.098,0.707-0.293l22-22c0.391-0.391,0.391-1.023,0-1.414s-1.023-0.391-1.414,0L22,26.586L14.707,19.293z"/>
</svg>
