<?xml version="1.0" encoding="utf-8"?>
<!-- Generator: Adobe Illustrator 19.2.1, SVG Export Plug-In . SVG Version: 6.00 Build 0)  -->
<!DOCTYPE svg PUBLIC "-//W3C//DTD SVG 1.1//EN" "http://www.w3.org/Graphics/SVG/1.1/DTD/svg11.dtd">
<svg version="1.1" id="Layer_1" xmlns="http://www.w3.org/2000/svg" xmlns:xlink="http://www.w3.org/1999/xlink" x="0px" y="0px"
	 width="48px" height="48px" viewBox="0 0 48 48" enable-background="new 0 0 48 48" xml:space="preserve">
<path d="M17.293,40.707C17.488,40.902,17.744,41,18,41s0.512-0.098,0.707-0.293l26-26c0.391-0.391,0.391-1.023,0-1.414l-6-6
	c-0.391-0.391-1.023-0.391-1.414,0L18,26.586l-7.293-7.293c-0.391-0.391-1.023-0.391-1.414,0l-6,6c-0.391,0.391-0.391,1.023,0,1.414
	L17.293,40.707z M10,21.414l7.293,7.293c0.391,0.391,1.023,0.391,1.414,0L38,9.414L42.586,14L18,38.586L5.414,26L10,21.414z"/>
</svg>
