<?xml version="1.0" encoding="utf-8"?>
<!-- Generator: Adobe Illustrator 19.2.1, SVG Export Plug-In . SVG Version: 6.00 Build 0)  -->
<!DOCTYPE svg PUBLIC "-//W3C//DTD SVG 1.1//EN" "http://www.w3.org/Graphics/SVG/1.1/DTD/svg11.dtd">
<svg version="1.1" id="Layer_1" xmlns="http://www.w3.org/2000/svg" xmlns:xlink="http://www.w3.org/1999/xlink" x="0px" y="0px"
	 width="48px" height="48px" viewBox="0 0 48 48" enable-background="new 0 0 48 48" xml:space="preserve">
<path d="M38.707,9.293c-0.391-0.391-1.023-0.391-1.414,0L24,22.586L10.707,9.293c-0.391-0.391-1.023-0.391-1.414,0
	s-0.391,1.023,0,1.414L22.586,24L9.293,37.293c-0.391,0.391-0.391,1.023,0,1.414C9.488,38.902,9.744,39,10,39
	s0.512-0.098,0.707-0.293L24,25.414l13.293,13.293C37.488,38.902,37.744,39,38,39s0.512-0.098,0.707-0.293
	c0.391-0.391,0.391-1.023,0-1.414L25.414,24l13.293-13.293C39.098,10.316,39.098,9.684,38.707,9.293z"/>
</svg>
