<?xml version="1.0" encoding="utf-8"?>
<!-- Generator: Adobe Illustrator 19.2.1, SVG Export Plug-In . SVG Version: 6.00 Build 0)  -->
<!DOCTYPE svg PUBLIC "-//W3C//DTD SVG 1.1//EN" "http://www.w3.org/Graphics/SVG/1.1/DTD/svg11.dtd">
<svg version="1.1" id="Layer_1" xmlns="http://www.w3.org/2000/svg" xmlns:xlink="http://www.w3.org/1999/xlink" x="0px" y="0px"
	 width="48px" height="48px" viewBox="0 0 48 48" enable-background="new 0 0 48 48" xml:space="preserve">
<path d="M45,46c0.553,0,1-0.448,1-1V3c0-0.552-0.447-1-1-1H3C2.447,2,2,2.448,2,3v42c0,0.552,0.447,1,1,1H45z M4,4h40v40H4V4z"/>
<path d="M15,8H9C8.447,8,8,8.448,8,9v6c0,0.552,0.447,1,1,1h6c0.553,0,1-0.448,1-1V9C16,8.448,15.553,8,15,8z M14,14h-4v-4h4V14z"/>
<path d="M27,8h-6c-0.553,0-1,0.448-1,1v6c0,0.552,0.447,1,1,1h6c0.553,0,1-0.448,1-1V9C28,8.448,27.553,8,27,8z M26,14h-4v-4h4V14z"
	/>
<path d="M39,8h-6c-0.553,0-1,0.448-1,1v6c0,0.552,0.447,1,1,1h6c0.553,0,1-0.448,1-1V9C40,8.448,39.553,8,39,8z M38,14h-4v-4h4V14z"
	/>
<path d="M15,20H9c-0.553,0-1,0.448-1,1v6c0,0.552,0.447,1,1,1h6c0.553,0,1-0.448,1-1v-6C16,20.448,15.553,20,15,20z M14,26h-4v-4h4
	V26z"/>
<path d="M27,20h-6c-0.553,0-1,0.448-1,1v6c0,0.552,0.447,1,1,1h6c0.553,0,1-0.448,1-1v-6C28,20.448,27.553,20,27,20z M26,26h-4v-4h4
	V26z"/>
<path d="M39,20h-6c-0.553,0-1,0.448-1,1v6c0,0.552,0.447,1,1,1h6c0.553,0,1-0.448,1-1v-6C40,20.448,39.553,20,39,20z M38,26h-4v-4h4
	V26z"/>
<path d="M15,32H9c-0.553,0-1,0.448-1,1v6c0,0.552,0.447,1,1,1h6c0.553,0,1-0.448,1-1v-6C16,32.448,15.553,32,15,32z M14,38h-4v-4h4
	V38z"/>
<path d="M27,32h-6c-0.553,0-1,0.448-1,1v6c0,0.552,0.447,1,1,1h6c0.553,0,1-0.448,1-1v-6C28,32.448,27.553,32,27,32z M26,38h-4v-4h4
	V38z"/>
<path d="M39,32h-6c-0.553,0-1,0.448-1,1v6c0,0.552,0.447,1,1,1h6c0.553,0,1-0.448,1-1v-6C40,32.448,39.553,32,39,32z M38,38h-4v-4h4
	V38z"/>
</svg>
