<?xml version="1.0" encoding="utf-8"?>
<!-- Generator: Adobe Illustrator 19.2.1, SVG Export Plug-In . SVG Version: 6.00 Build 0)  -->
<!DOCTYPE svg PUBLIC "-//W3C//DTD SVG 1.1//EN" "http://www.w3.org/Graphics/SVG/1.1/DTD/svg11.dtd">
<svg version="1.1" id="Layer_1" xmlns="http://www.w3.org/2000/svg" xmlns:xlink="http://www.w3.org/1999/xlink" x="0px" y="0px"
	 width="32px" height="32px" viewBox="0 0 32 32" enable-background="new 0 0 32 32" xml:space="preserve">
<path d="M24.586,11l3,3H24c-2.826,0-5.349,1.312-7,3.355V4.414l4,4L22.414,7L16,0.586L9.586,7L11,8.414l4-4v12.941
	C13.349,15.312,10.826,14,8,14H4.414l3-3L6,9.586L0.586,15L6,20.414L7.414,19l-3-3H8c3.859,0,7,3.141,7,7v6v2h2v-2v-6
	c0-3.859,3.141-7,7-7h3.586l-3,3L26,20.414L31.414,15L26,9.586L24.586,11z"/>
</svg>
