<?xml version="1.0" encoding="utf-8"?>
<!-- Generator: Adobe Illustrator 19.2.1, SVG Export Plug-In . SVG Version: 6.00 Build 0)  -->
<!DOCTYPE svg PUBLIC "-//W3C//DTD SVG 1.1//EN" "http://www.w3.org/Graphics/SVG/1.1/DTD/svg11.dtd">
<svg version="1.1" id="Layer_1" xmlns="http://www.w3.org/2000/svg" xmlns:xlink="http://www.w3.org/1999/xlink" x="0px" y="0px"
	 width="32px" height="32px" viewBox="0 0 32 32" enable-background="new 0 0 32 32" xml:space="preserve">
<path d="M13,17.586l-6,6l-6-6V31h13.414l-6-6l6-6L13,17.586z M9.586,29H3v-6.586L5.586,25L7,26.414L9.586,29z"/>
<path d="M31,1H17.586l6,6l-6,6L19,14.414l6-6l6,6V1z M29,9.586L26.414,7L25,5.586L22.414,3H29V9.586z"/>
<path d="M1,1v13.414l6-6l6,6L14.414,13l-6-6l6-6H1z M5.586,7L3,9.586V3h6.586L7,5.586L5.586,7z"/>
<path d="M31,31V17.586l-6,6l-6-6L17.586,19l6,6l-6,6H31z M26.414,25L29,22.414V29h-6.586L25,26.414L26.414,25z"/>
</svg>
