<?xml version="1.0" encoding="utf-8"?>
<!-- Generator: Adobe Illustrator 19.2.1, SVG Export Plug-In . SVG Version: 6.00 Build 0)  -->
<!DOCTYPE svg PUBLIC "-//W3C//DTD SVG 1.1//EN" "http://www.w3.org/Graphics/SVG/1.1/DTD/svg11.dtd">
<svg version="1.1" id="Layer_1" xmlns="http://www.w3.org/2000/svg" xmlns:xlink="http://www.w3.org/1999/xlink" x="0px" y="0px"
	 width="32px" height="32px" viewBox="0 0 32 32" enable-background="new 0 0 32 32" xml:space="preserve">
<path d="M9.919,8h12.161L16,0.399L9.919,8z M14.081,6L16,3.601L17.919,6H14.081z"/>
<path d="M24,22.081L31.601,16L24,9.919V22.081z M26,14.081L28.399,16L26,17.919V14.081z"/>
<path d="M16,31.601L22.081,24H9.919L16,31.601z M16,28.399L14.081,26h3.839L16,28.399z"/>
<path d="M8,22.081V9.919L0.399,16L8,22.081z M6,17.919L3.601,16L6,14.081V17.919z"/>
<path d="M20,16c0-2.206-1.794-4-4-4s-4,1.794-4,4s1.794,4,4,4S20,18.206,20,16z M14,16c0-1.103,0.897-2,2-2s2,0.897,2,2
	s-0.897,2-2,2S14,17.103,14,16z"/>
</svg>
