<?xml version="1.0" encoding="utf-8"?>
<!-- Generator: Adobe Illustrator 19.2.1, SVG Export Plug-In . SVG Version: 6.00 Build 0)  -->
<!DOCTYPE svg PUBLIC "-//W3C//DTD SVG 1.1//EN" "http://www.w3.org/Graphics/SVG/1.1/DTD/svg11.dtd">
<svg version="1.1" id="Layer_1" xmlns="http://www.w3.org/2000/svg" xmlns:xlink="http://www.w3.org/1999/xlink" x="0px" y="0px"
	 width="32px" height="32px" viewBox="0 0 32 32" enable-background="new 0 0 32 32" xml:space="preserve">
<polygon fill="#222221" points="22,2 28.586,2 22.293,8.293 23.707,9.707 30,3.414 30,10 32,10 32,0 22,0 "/>
<polygon fill="#222221" points="2,3.414 8.293,9.707 9.707,8.293 3.414,2 10,2 10,0 0,0 0,10 2,10 "/>
<polygon fill="#222221" points="30,28.586 23.707,22.293 22.293,23.707 28.586,30 22,30 22,32 32,32 32,22 30,22 "/>
<polygon fill="#222221" points="10,30 3.414,30 9.707,23.707 8.293,22.293 2,28.586 2,22 0,22 0,32 10,32 "/>
<path fill="#222221" d="M16,10c-3.309,0-6,2.691-6,6s2.691,6,6,6s6-2.691,6-6S19.309,10,16,10z M16,20c-2.206,0-4-1.794-4-4
	s1.794-4,4-4s4,1.794,4,4S18.206,20,16,20z"/>
</svg>
