<?xml version="1.0" encoding="utf-8"?>
<!-- Generator: Adobe Illustrator 19.2.1, SVG Export Plug-In . SVG Version: 6.00 Build 0)  -->
<!DOCTYPE svg PUBLIC "-//W3C//DTD SVG 1.1//EN" "http://www.w3.org/Graphics/SVG/1.1/DTD/svg11.dtd">
<svg version="1.1" id="Layer_1" xmlns="http://www.w3.org/2000/svg" xmlns:xlink="http://www.w3.org/1999/xlink" x="0px" y="0px"
	 width="32px" height="32px" viewBox="0 0 32 32" enable-background="new 0 0 32 32" xml:space="preserve">
<path d="M23,1c-4.411,0-8,3.589-8,8v0.586l-3-3L10.586,8L16,13.414L21.414,8L20,6.586l-3,3V9c0-3.309,2.691-6,6-6s6,2.691,6,6
	s-2.691,6-6,6H9c-4.411,0-8,3.589-8,8s3.589,8,8,8s8-3.589,8-8v-0.586l3,3L21.414,24L16,18.586L10.586,24L12,25.414l3-3V23
	c0,3.309-2.691,6-6,6s-6-2.691-6-6s2.691-6,6-6h14c4.411,0,8-3.589,8-8S27.411,1,23,1z"/>
</svg>
