<?xml version="1.0" encoding="utf-8"?>
<!-- Generator: Adobe Illustrator 19.2.1, SVG Export Plug-In . SVG Version: 6.00 Build 0)  -->
<!DOCTYPE svg PUBLIC "-//W3C//DTD SVG 1.1//EN" "http://www.w3.org/Graphics/SVG/1.1/DTD/svg11.dtd">
<svg version="1.1" id="Layer_1" xmlns="http://www.w3.org/2000/svg" xmlns:xlink="http://www.w3.org/1999/xlink" x="0px" y="0px"
	 width="32px" height="32px" viewBox="0 0 32 32" enable-background="new 0 0 32 32" xml:space="preserve">
<polygon points="15,20 15,27.586 11,23.586 9.586,25 16,31.414 22.414,25 21,23.586 17,27.586 17,20 "/>
<polygon points="15,4.414 15,12 17,12 17,4.414 21,8.414 22.414,7 16,0.586 9.586,7 11,8.414 "/>
<polygon points="23.586,11 27.586,15 20,15 20,17 27.586,17 23.586,21 25,22.414 31.414,16 25,9.586 "/>
<polygon points="8.414,21 4.414,17 12,17 12,15 4.414,15 8.414,11 7,9.586 0.586,16 7,22.414 "/>
</svg>
