<?xml version="1.0" encoding="utf-8"?>
<!-- Generator: Adobe Illustrator 19.2.1, SVG Export Plug-In . SVG Version: 6.00 Build 0)  -->
<!DOCTYPE svg PUBLIC "-//W3C//DTD SVG 1.1//EN" "http://www.w3.org/Graphics/SVG/1.1/DTD/svg11.dtd">
<svg version="1.1" id="Layer_1" xmlns="http://www.w3.org/2000/svg" xmlns:xlink="http://www.w3.org/1999/xlink" x="0px" y="0px"
	 width="32px" height="32px" viewBox="0 0 32 32" enable-background="new 0 0 32 32" xml:space="preserve">
<polygon points="31,1 19,1 19,3 27.586,3 20.293,10.293 21.707,11.707 29,4.414 29,13 31,13 "/>
<polygon points="1,19 1,31 13,31 13,29 4.414,29 11.707,21.707 10.293,20.293 3,27.586 3,19 "/>
<polygon points="13,1 1,1 1,13 3,13 3,4.414 10.293,11.707 11.707,10.293 4.414,3 13,3 "/>
<polygon points="31,19 29,19 29,27.586 21.707,20.293 20.293,21.707 27.586,29 19,29 19,31 31,31 "/>
</svg>
