<?xml version="1.0" encoding="utf-8"?>
<!-- Generator: Adobe Illustrator 19.2.1, SVG Export Plug-In . SVG Version: 6.00 Build 0)  -->
<!DOCTYPE svg PUBLIC "-//W3C//DTD SVG 1.1//EN" "http://www.w3.org/Graphics/SVG/1.1/DTD/svg11.dtd">
<svg version="1.1" id="Layer_1" xmlns="http://www.w3.org/2000/svg" xmlns:xlink="http://www.w3.org/1999/xlink" x="0px" y="0px"
	 width="32px" height="32px" viewBox="0 0 32 32" enable-background="new 0 0 32 32" xml:space="preserve">
<polygon points="3,3 11,3 11,1 1,1 1,11 3,11 "/>
<polygon points="29,11 31,11 31,1 21,1 21,3 29,3 "/>
<polygon points="31,21 29,21 29,29 21,29 21,31 31,31 "/>
<polygon points="11,29 3,29 3,21 1,21 1,31 11,31 "/>
<path d="M16,23c3.859,0,7-3.14,7-7s-3.141-7-7-7s-7,3.14-7,7S12.141,23,16,23z M16,11c2.757,0,5,2.243,5,5s-2.243,5-5,5
	s-5-2.243-5-5S13.243,11,16,11z"/>
</svg>
