<?xml version="1.0" encoding="utf-8"?>
<!-- Generator: Adobe Illustrator 19.2.1, SVG Export Plug-In . SVG Version: 6.00 Build 0)  -->
<!DOCTYPE svg PUBLIC "-//W3C//DTD SVG 1.1//EN" "http://www.w3.org/Graphics/SVG/1.1/DTD/svg11.dtd">
<svg version="1.1" id="Layer_1" xmlns="http://www.w3.org/2000/svg" xmlns:xlink="http://www.w3.org/1999/xlink" x="0px" y="0px"
	 width="32px" height="32px" viewBox="0 0 32 32" enable-background="new 0 0 32 32" xml:space="preserve">
<polygon points="21,20.414 22.414,19 16,12.586 9.586,19 11,20.414 15,16.414 15,30 17,30 17,16.414 "/>
<path d="M26.842,11.145C25.956,5.879,21.426,2,16,2C11.322,2,7.242,4.883,5.665,9.233C2.348,10.062,0,13.026,0,16.5
	c0,3.908,3.042,7.201,7,7.5h6v-2l-5.924,0.003C4.229,21.786,2,19.369,2,16.5c0-2.698,1.933-4.978,4.595-5.419l0.613-0.102
	l0.181-0.595C8.547,6.566,12.007,4,16,4c4.656,0,8.506,3.49,8.956,8.119l0.081,0.832l0.833,0.068C28.186,13.208,30,15.176,30,17.5
	c0,2.318-1.796,4.297-4,4.5h-7v2h1l6.089-0.004C29.404,23.697,32,20.844,32,17.5C32,14.419,29.792,11.771,26.842,11.145z"/>
</svg>
