<?xml version="1.0" encoding="utf-8"?>
<!-- Generator: Adobe Illustrator 19.2.1, SVG Export Plug-In . SVG Version: 6.00 Build 0)  -->
<!DOCTYPE svg PUBLIC "-//W3C//DTD SVG 1.1//EN" "http://www.w3.org/Graphics/SVG/1.1/DTD/svg11.dtd">
<svg version="1.1" id="Layer_1" xmlns="http://www.w3.org/2000/svg" xmlns:xlink="http://www.w3.org/1999/xlink" x="0px" y="0px"
	 width="32px" height="32px" viewBox="0 0 32 32" enable-background="new 0 0 32 32" xml:space="preserve">
<polygon points="21,19.414 22.414,18 16,11.586 9.586,18 11,19.414 15,15.414 15,24 17,24 17,15.414 "/>
<path d="M26.842,14.145C25.956,8.879,21.426,5,16,5c-4.678,0-8.759,2.883-10.335,7.233C2.348,13.062,0,16.026,0,19.5
	c0,3.908,3.041,7.201,7,7.5h6v-2l-5.924,0.003C4.229,24.786,2,22.369,2,19.5c0-2.698,1.933-4.978,4.596-5.419l0.612-0.102
	l0.181-0.595C8.547,9.566,12.008,7,16,7c4.656,0,8.506,3.49,8.955,8.119l0.08,0.832l0.834,0.068C28.186,16.208,30,18.177,30,20.5
	c0,2.318-1.797,4.297-4,4.5h-7v2h1l6.09-0.004C29.404,26.697,32,23.844,32,20.5C32,17.419,29.792,14.771,26.842,14.145z"/>
</svg>
