<?xml version="1.0" encoding="utf-8"?>
<!-- Generator: Adobe Illustrator 19.2.1, SVG Export Plug-In . SVG Version: 6.00 Build 0)  -->
<!DOCTYPE svg PUBLIC "-//W3C//DTD SVG 1.1//EN" "http://www.w3.org/Graphics/SVG/1.1/DTD/svg11.dtd">
<svg version="1.1" id="Layer_1" xmlns="http://www.w3.org/2000/svg" xmlns:xlink="http://www.w3.org/1999/xlink" x="0px" y="0px"
	 width="32px" height="32px" viewBox="0 0 32 32" enable-background="new 0 0 32 32" xml:space="preserve">
<polygon points="17,27.586 17,14 15,14 15,27.586 11,23.586 9.586,25 16,31.414 22.414,25 21,23.586 "/>
<path d="M26.842,9.145C25.956,3.879,21.426,0,16,0C11.322,0,7.242,2.883,5.665,7.233C2.348,8.062,0,11.026,0,14.5
	c0,3.908,3.042,7.201,7,7.5h6v-2l-5.924,0.003C4.229,19.786,2,17.369,2,14.5c0-2.698,1.933-4.978,4.595-5.419l0.613-0.102
	l0.181-0.595C8.547,4.566,12.007,2,16,2c4.656,0,8.506,3.49,8.956,8.119l0.081,0.832l0.833,0.068C28.186,11.208,30,13.176,30,15.5
	c0,2.318-1.796,4.297-4,4.5h-7v2h1l6.089-0.004C29.404,21.697,32,18.844,32,15.5C32,12.419,29.792,9.771,26.842,9.145z"/>
</svg>
