<?xml version="1.0" encoding="utf-8"?>
<!-- Generator: Adobe Illustrator 19.2.1, SVG Export Plug-In . SVG Version: 6.00 Build 0)  -->
<!DOCTYPE svg PUBLIC "-//W3C//DTD SVG 1.1//EN" "http://www.w3.org/Graphics/SVG/1.1/DTD/svg11.dtd">
<svg version="1.1" id="Layer_1" xmlns="http://www.w3.org/2000/svg" xmlns:xlink="http://www.w3.org/1999/xlink" x="0px" y="0px"
	 width="32px" height="32px" viewBox="0 0 32 32" enable-background="new 0 0 32 32" xml:space="preserve">
<path d="M16,4c4.079,0,7.861,2.093,10.055,5.45l-6.748-0.904l-0.266,1.982l9.685,1.297l1.297-9.685l-1.982-0.266l-0.779,5.817
	C24.653,4.168,20.482,2,16,2C8.28,2,2,8.28,2,16h2C4,9.383,9.383,4,16,4z"/>
<path d="M4.738,24.307C7.347,27.832,11.518,30,16,30c7.72,0,14-6.28,14-14h-2c0,6.617-5.383,12-12,12
	c-4.079,0-7.861-2.093-10.055-5.45l6.748,0.904l0.266-1.982l-9.685-1.297l-1.297,9.685l1.982,0.266L4.738,24.307z"/>
<path d="M16,12c-2.206,0-4,1.794-4,4s1.794,4,4,4s4-1.794,4-4S18.206,12,16,12z M16,18c-1.103,0-2-0.897-2-2s0.897-2,2-2
	s2,0.897,2,2S17.103,18,16,18z"/>
</svg>
