<svg xmlns="http://www.w3.org/2000/svg" xmlns:xlink="http://www.w3.org/1999/xlink" x="0px" y="0px" width="48px" height="48px" viewBox="0 0 48 48"><g >
<rect x="8" y="44" fill="#87613E" width="32" height="4"/>
<path fill="#444444" d="M34.640583,0.2319048c-0.4258003-0.3535-1.055584-0.2959048-1.4092026,0.128l-9.1903801,11.0282993
	l-5.2412186-6.9882998c-0.3309994-0.4419048-0.9589996-0.5321999-1.3993988-0.1996999
	c-0.4423828,0.3309999-0.5321999,0.9579997-0.200201,1.3999l6,7.9999995c0.0195007,0.0264006,0.0508175,0.0361004,0.0723,0.0601006
	c0.0312004,0.0345993,0.0498009,0.0770998,0.0869007,0.1078997c0.0429001,0.0355997,0.0937004,0.0527,0.1396179,0.0799999
	c0.0361824,0.0209999,0.0683823,0.0439997,0.1073818,0.0606003C23.7323818,13.9639044,23.8642826,14,23.9990005,14H24h0.0009995
	c0.1268826,0,0.2510014-0.0321951,0.3710823-0.0810957c0.0361004-0.0145998,0.0674-0.0346003,0.1015015-0.0531998
	c0.0419998-0.0228996,0.0868988-0.0366001,0.1259995-0.0658998c0.0361004-0.0269003,0.0546989-0.0658998,0.0858994-0.0962
	c0.0254002-0.0249004,0.0596008-0.0356045,0.0831013-0.0635004l9.9999981-12
	C35.1220818,1.2158048,35.0644836,0.5854048,34.640583,0.2319048z"/>
<path fill="#C19F85" d="M42,12H6c-2.7617171,0-5,2.2388048-5,5v24c0,2.7612038,2.2382829,5,5,5h36c2.7616806,0,5-2.2387962,5-5V17
	C47,14.2388048,44.7616806,12,42,12z"/>
<path fill="#444444" d="M42,43H6c-1.104517,0-2-0.8954964-2-2V17c0-1.104496,0.895483-2,2-2h36c1.1044807,0,2,0.895504,2,2v24
	C44,42.1045036,43.1044807,43,42,43z"/>
<rect x="7" y="18" fill="#E6E6E6" width="26" height="22"/>
<circle fill="#6B6B6B" cx="38.5" cy="20.5" r="2.5"/>
<circle fill="#6B6B6B" cx="38.5" cy="28.5" r="2.5"/>
</g></svg>