<svg xmlns="http://www.w3.org/2000/svg" xmlns:xlink="http://www.w3.org/1999/xlink" x="0px" y="0px" width="48px" height="48px" viewBox="0 0 48 48"><g >
<path fill="#B3B3B3" d="M36,47H12c-2.756815,0-5-2.2431984-5-5V25h2v17c0,1.6543007,1.345686,3,3,3h24c1.6542854,0,3-1.3456993,3-3
	V25h2v17C41,44.7568016,38.7567863,47,36,47z"/>
<path fill="#B3B3B3" d="M12,1H4C3.4472857,1,3,1.4478,3,2v6c0,0.5522003,0.4472857,1,1,1c0.5526857,0,1-0.4477997,1-1h6
	c0,0.5522003,0.4472857,1,1,1c0.5526857,0,1-0.4477997,1-1V2C13,1.4478,12.5526857,1,12,1z"/>
<path fill="#B3B3B3" d="M44,1h-8c-0.5527153,0-1,0.4478-1,1v6c0,0.5522003,0.4472847,1,1,1c0.5526848,0,1-0.4477997,1-1h6
	c0,0.5522003,0.4472847,1,1,1c0.5526848,0,1-0.4477997,1-1V2C45,1.4478,44.5526848,1,44,1z"/>
<path fill="#494949" d="M15,8c0-0.5521998-0.4473143-1-1-1H2C1.4472858,7,1,7.4478002,1,8v5h14V8z"/>
<path fill="#5B5B5B" d="M1,13v13c0,0.5522003,0.4472858,1,1,1h12c0.5526857,0,1-0.4477997,1-1V13H1z"/>
<path fill="#494949" d="M47,8c0-0.5521998-0.4473152-1-1-1H34c-0.5527153,0-1,0.4478002-1,1v5h14V8z"/>
<path fill="#5B5B5B" d="M33,13v13c0,0.5522003,0.4472847,1,1,1h12c0.5526848,0,1-0.4477997,1-1V13H33z"/>
<rect x="5" y="3" fill="#494949" width="2" height="2"/>
<rect x="9" y="3" fill="#494949" width="2" height="2"/>
<rect x="37" y="3" fill="#494949" width="2" height="2"/>
<rect x="41" y="3" fill="#494949" width="2" height="2"/>
</g></svg>