<svg xmlns="http://www.w3.org/2000/svg" xmlns:xlink="http://www.w3.org/1999/xlink" x="0px" y="0px" width="48px" height="48px" viewBox="0 0 48 48"><g >
<path fill="#444444" d="M42,1H6C4.3431001,1,3,2.3431001,3,4v40c0,1.6568985,1.3431001,3,3,3h36c1.6568985,0,3-1.3431015,3-3V4
	C45,2.3431001,43.6568985,1,42,1z"/>
<circle fill="#595959" cx="24" cy="41" r="2"/>
<path fill="#FFFFFF" d="M40,35H8c-0.5523,0-1-0.4477005-1-1v-4h34v4C41,34.5522995,40.5522995,35,40,35z"/>
<path fill="#43A6DD" d="M41,30V6c0-0.5523-0.4477005-1-1-1H8C7.4478002,5,7,5.4477,7,6v24H41z"/>
</g></svg>