<svg xmlns="http://www.w3.org/2000/svg" xmlns:xlink="http://www.w3.org/1999/xlink" x="0px" y="0px" width="48px" height="48px" viewBox="0 0 48 48"><g >
<path fill="#727272" d="M41,2c0-0.5522-0.4477997-1-1-1H8C7.4478002,1,7,1.4478,7,2v10h34V2z"/>
<path fill="#444444" d="M43,11H5c-2.2091,0-4,1.7909002-4,4v20c0,1.104599,0.8954,2,2,2h7c0.5522003,0,1-0.4477997,1-1h25.9990005
	c0,0.5522003,0.4477997,1,1,1H45c1.104599,0,2-0.895401,2-2V15C47,12.7909002,45.2090988,11,43,11z"/>
<path fill="#232323" d="M41,37H7V25c0-0.5522995,0.4477-1,1-1h32c0.5522995,0,1,0.4477005,1,1V37z"/>
<path fill="#E6E6E6" d="M9,26v20c0,0.5522003,0.4477997,1,1,1h28c0.5522003,0,1-0.4477997,1-1V26H9z"/>
<circle fill="#72C472" cx="41.5" cy="17.5" r="1.5"/>
<path fill="#B3B3B3" d="M32,32H15.9989996c-0.5527,0-1-0.4477997-1-1s0.4473-1,1-1H32c0.5527,0,1,0.4477997,1,1S32.5527,32,32,32z"/>
<path fill="#B3B3B3" d="M32,37H15.9989996c-0.5527,0-1-0.4477997-1-1s0.4473-1,1-1H32c0.5527,0,1,0.4477997,1,1S32.5527,37,32,37z"/>
<path fill="#B3B3B3" d="M23.9990005,42h-8.000001c-0.5527,0-1-0.4477997-1-1s0.4473-1,1-1h8.000001c0.5527,0,1,0.4477997,1,1
	S24.5517006,42,23.9990005,42z"/>
</g></svg>