<svg xmlns="http://www.w3.org/2000/svg" xmlns:xlink="http://www.w3.org/1999/xlink" x="0px" y="0px" width="48px" height="48px" viewBox="0 0 48 48"><g >
<rect x="20" y="32" fill="#282828" width="8" height="9"/>
<path fill="#444444" d="M46,5H2C1.4472858,5,1,5.4478049,1,6v28c0,0.5522041,0.4472858,1,1,1h44c0.5526848,0,1-0.4477959,1-1V6
	C47,5.4478049,46.5526848,5,46,5z"/>
<rect x="3" y="7" fill="#ED69AB" width="42" height="26"/>
<path fill="#FFFFFF" d="M21.6000004,15.1999998l5.3332844,4.000001c0.5333996,0.3999996,0.5333996,1.1999989,0,1.5999985
	l-5.3332844,4C20.9407845,25.294405,20,24.8239994,20,24v-8C20,15.1759996,20.9407845,14.7056046,21.6000004,15.1999998z"/>
<path fill="#444444" d="M39,38H9c-1.1045146,0-2,0.895504-2,2v4c0,1.1045036,0.8954854,2,2,2h30c1.1044846,0,2-0.8954964,2-2v-4
	C41,38.895504,40.1044846,38,39,38z"/>
<rect x="10" y="41" fill="#0F0F0F" width="17" height="2"/>
<circle fill="#72C472" cx="37" cy="42" r="1"/>
<circle fill="#E86C60" cx="33" cy="42" r="1"/>
</g></svg>