<svg xmlns="http://www.w3.org/2000/svg" xmlns:xlink="http://www.w3.org/1999/xlink" x="0px" y="0px" width="48px" height="48px" viewBox="0 0 48 48"><g >
<path fill="#E86C60" d="M3,31c0,0.5522995,0.4472911,1,1,1c0.552691,0,1-0.4477005,1-1V20H3V31z"/>
<path fill="#E86C60" d="M45,31c0,0.5522995-0.4473114,1-1,1c-0.5527115,0-1-0.4477005-1-1V20h2V31z"/>
<path fill="#444444" d="M44,24c-1.1045113,0-2-0.8955002-2-2v-4c0-7.7196999-6.2803116-14-14-14h-8C12.2802906,4,6,10.2803001,6,18
	v4c0,1.1044998-0.8955088,2-2,2c-1.1045089,0-2-0.8955002-2-2v-4C2,8.0747004,10.0751905,0,20,0h8c9.9247894,0,18,8.0747004,18,18v4
	C46,23.1044998,45.1044884,24,44,24z"/>
<path fill="#444444" d="M14,25.4591999C13.0527906,25.1616993,12.0453911,25,11,25C5.477191,25,1,29.4771004,1,35
	c0,5.5228004,4.477191,10,10,10c1.0453911,0,2.0527906-0.1617012,3-0.4592018V25.4591999z"/>
<path fill="#E86C60" d="M14,47L14,47c-1.1046095,0-2-0.895401-2-2V25c0-1.1046009,0.8953905-2,2-2l0,0c1.1045904,0,2,0.8953991,2,2
	v20C16,46.104599,15.1045904,47,14,47z"/>
<path fill="#444444" d="M34,25.4591999C34.9471893,25.1616993,35.9545898,25,37,25c5.522789,0,10,4.4771004,10,10
	c0,5.5228004-4.477211,10-10,10c-1.0454102,0-2.0528107-0.1617012-3-0.4592018V25.4591999z"/>
<path fill="#E86C60" d="M34,47L34,47c1.1045914,0,2-0.895401,2-2V25c0-1.1046009-0.8954086-2-2-2l0,0c-1.1046104,0-2,0.8953991-2,2
	v20C32,46.104599,32.8953896,47,34,47z"/>
</g></svg>