<svg xmlns="http://www.w3.org/2000/svg" xmlns:xlink="http://www.w3.org/1999/xlink" x="0px" y="0px" width="48px" height="48px" viewBox="0 0 48 48"><g >
<path fill="#444444" d="M12.1234999,12.374507L31.8799,12.4062071h0.0014c0.2993984,0,0.5831013-0.1342068,0.7730007-0.3652067
	c0.1903992-0.2318935,0.2665977-0.5365934,0.2075005-0.8310003l-1.8813019-9.4062929C30.8871994,1.3364075,30.4766006,1,30,1H14
	c-0.4765997,0-0.8872004,0.3364075-0.9805002,0.8037075l-1.875,9.3745003
	c-0.0585995,0.2934999,0.0171003,0.5981998,0.2066002,0.8296003C11.5404997,12.239707,11.8241997,12.3739996,12.1234999,12.374507z"/>
<path fill="#444444" d="M32.6605988,35.9331055c-0.1893997-0.2313995-0.472599-0.3661995-0.7718983-0.3666992l-19.7807999-0.0376015
	h-0.0015001c-0.2997999,0-0.5834999,0.1338005-0.7733994,0.3651962c-0.1899004,0.2319984-0.2666006,0.536705-0.2075005,0.8311043
	l1.8940001,9.4712029C13.1127996,46.6636047,13.5234003,47,14,47h16c0.4766006,0,0.8871994-0.3363953,0.9804993-0.8036919
	l1.8866997-9.4336014C32.9258003,36.4692078,32.8501015,36.164608,32.6605988,35.9331055z"/>
<rect x="37.4921989" y="20" fill="#999999" width="4.5078001" height="8"/>
<path fill="#707070" d="M22,7C12.6260004,7,5,14.6260004,5,24s7.6260004,17,17,17s17-7.6259995,17-17S31.3740005,7,22,7z"/>
<path fill="#FFFFFF" d="M8.5894003,28C10.3154001,33.7754059,15.6703997,38,22,38s11.6846008-4.2245941,13.4105988-10H8.5894003z"/>
<path fill="#E6E6E6" d="M35.4105988,28C35.7896004,26.7314072,36,25.3906078,36,24c0-7.7196922-6.2803001-14-14-14
	S8,16.2803078,8,24c0,1.3906078,0.2103996,2.7314072,0.5894003,4H35.4105988z"/>
<circle fill="#ED69AB" cx="28" cy="28" r="4"/>
</g></svg>