<svg xmlns="http://www.w3.org/2000/svg" xmlns:xlink="http://www.w3.org/1999/xlink" x="0px" y="0px" width="48px" height="48px" viewBox="0 0 48 48"><g >
<circle fill="#1B679B" cx="24" cy="36" r="4"/>
<path fill="#458BC4" d="M16.9589996,28.8017998C18.7602997,27,21.2504997,25.8848,24,25.8848
	c2.75,0,5.2392998,1.1152,7.0410004,2.9169998l4.2724991-4.1152992C32.4179993,21.7910004,28.4185009,20,24,20
	c-4.4179993,0-8.4184999,1.7910004-11.3135004,4.6865005L16.9589996,28.8017998z"/>
<path fill="#43A6DD" d="M9.0015001,21C12.8397999,17.1611004,18.1425991,14.7870998,24,14.7870998
	S35.1601982,17.1611004,38.9990005,21l4.7998009-4.7987995C38.7318993,11.1337996,31.7318993,8,24,8
	S9.2680998,11.1337996,4.2012,16.2012005L9.0015001,21z"/>
</g></svg>