<svg xmlns="http://www.w3.org/2000/svg" xmlns:xlink="http://www.w3.org/1999/xlink" x="0px" y="0px" width="48px" height="48px" viewBox="0 0 48 48"><g >
<rect x="36" y="20" fill="#2D2D2D" width="4" height="8"/>
<path fill="#E6E6E6" d="M11.7573004,10.9702072c0.5361996,0.1337929,1.0790997-0.1913996,1.2128992-0.7275L13.0307999,10h17.9384003
	l0.0606003,0.2427073C31.1436005,10.6968069,31.5513,11.0005074,31.9990005,11c0.0806007,0,0.1620979-0.0092926,0.2436981-0.0297928
	c0.5356026-0.1337996,0.8613014-0.6766996,0.7275009-1.2129002l-2-7.9999995C30.8589001,1.3125075,30.4589996,1,30,1H14
	c-0.4589996,0-0.8589001,0.3125075-0.9701996,0.7573075l-2,7.9999995
	C10.8959999,10.2935076,11.2216997,10.8364077,11.7573004,10.9702072z"/>
<path fill="#E6E6E6" d="M32.2426987,37.029808c-0.5326996-0.1343002-1.078598,0.1918983-1.2128983,0.7274971L30.9692001,38
	H13.0307999l-0.0606003-0.2426949c-0.1337996-0.5355988-0.6766996-0.8617973-1.2128992-0.7274971
	c-0.5356007,0.1337967-0.8613005,0.6766968-0.7275,1.2128983l2,8C13.1410999,46.6875076,13.5410004,47,14,47h16
	c0.4589996,0,0.8589001-0.3124924,0.9701996-0.7572937l2-8C33.1040001,37.7065048,32.7783012,37.1636047,32.2426987,37.029808z"/>
<path fill="#444444" d="M32,9H12c-2.7567997,0-5,2.243207-5,5v20c0,2.7568054,2.2432003,5,5,5h20c2.7568016,0,5-2.2431946,5-5V14
	C37,11.243207,34.7568016,9,32,9z"/>
<rect x="11" y="13" fill="#5B5B5B" width="22" height="22"/>
<circle fill="#FFFFFF" cx="22" cy="24" r="3"/>
<circle fill="#E86C60" cx="15" cy="24" r="2"/>
<circle fill="#EF8EC3" cx="18" cy="18" r="2"/>
<circle fill="#8680D8" cx="26" cy="18" r="2"/>
<circle fill="#EA9860" cx="18" cy="30" r="2"/>
<circle fill="#72C472" cx="26" cy="30" r="2"/>
<circle fill="#43A6DD" cx="29" cy="24" r="2"/>
</g></svg>