<svg xmlns="http://www.w3.org/2000/svg" xmlns:xlink="http://www.w3.org/1999/xlink" x="0px" y="0px" width="48px" height="48px" viewBox="0 0 48 48"><g >
<path fill="#B3B3B3" d="M36,47H16c-2.7568169,0-5-2.2431984-5-5V25h2v17c0,1.6543007,1.3456831,3,3,3h20
	c1.6542816,0,3-1.3456993,3-3V25h2v17C41,44.7568016,38.7567825,47,36,47z"/>
<path fill="#B3B3B3" d="M44,1h-8c-0.5527191,0-1,0.4478-1,1v6c0,0.5522003,0.4472809,1,1,1c0.552681,0,1-0.4477997,1-1h6
	c0,0.5522003,0.4472809,1,1,1c0.552681,0,1-0.4477997,1-1V2C45,1.4478,44.552681,1,44,1z"/>
<path fill="#5B5B5B" d="M6,1C5.4472828,1,5,1.4478,5,2v6c0,0.5522003,0.4472828,1,1,1c0.5526829,0,1-0.4477997,1-1V2
	C7,1.4478,6.5526829,1,6,1z"/>
<path fill="#5B5B5B" d="M18,1c-0.5527172,0-1,0.4478-1,1v6c0,0.5522003,0.4472828,1,1,1c0.5526829,0,1-0.4477997,1-1V2
	C19,1.4478,18.5526829,1,18,1z"/>
<path fill="#B3B3B3" d="M23,8c0-0.5521998-0.4473171-1-1-1H2C1.447283,7,1,7.4478002,1,8v4.0834999h22V8z"/>
<path fill="#E6E6E6" d="M1,12.0834999V18c0,6.0653992,4.9345827,11,11,11c6.065382,0,11-4.9346008,11-11v-5.9165001H1z"/>
<path fill="#494949" d="M47,8c0-0.5521998-0.447319-1-1-1H34c-0.5527191,0-1,0.4478002-1,1v5h14V8z"/>
<path fill="#5B5B5B" d="M33,13v13c0,0.5522003,0.4472809,1,1,1h12c0.552681,0,1-0.4477997,1-1V13H33z"/>
<rect x="37" y="3" fill="#494949" width="2" height="2"/>
<rect x="41" y="3" fill="#494949" width="2" height="2"/>
</g></svg>