<svg xmlns="http://www.w3.org/2000/svg" xmlns:xlink="http://www.w3.org/1999/xlink" x="0px" y="0px" width="48px" height="48px" viewBox="0 0 48 48"><g >
<path fill="#6D6D6D" d="M24,12.9995003c-0.5522041,0-1-0.4477005-1-1V5.9994998c0-0.5521998,0.4477959-1,1-1
	c0.5521965,0,1,0.4478002,1,1v6.0000005C25,12.5517998,24.5521965,12.9995003,24,12.9995003z"/>
<path fill="#444444" d="M28,35h-8c-0.5522041,0-1-0.4477997-1-1s0.4477959-1,1-1h8c0.5521965,0,1,0.4477997,1,1S28.5521965,35,28,35
	z"/>
<path fill="#494949" d="M45.940197,40.6693993l-3.9311981-19.6556988c-0.6972046-3.4854012-3.7832031-6.0152006-7.3374023-6.0152006
	c-1.9990005,0-4.3072014,1.1531-5.2915001,2.1918993C28.3957958,18.2292004,28,19,28,19h-8
	c0,0-0.1907043-0.4316998-1.4079037-1.8096008C17.375,15.8125,15.2995958,14.9984999,13.3005962,14.9984999
	c-3.5542002,0-6.6401997,2.5297995-7.3374,6.0152006L2.0320001,40.6693993
	c-0.2461034,1.2299995,0.2807965,2.4570999,1.3417964,3.1259995c1.0620003,0.6690025,2.3965001,0.6152,3.4004002-0.1376991L15,37h18
	l8.198494,6.6581993c0.5356026,0.4014015,1.1655045,0.6040001,1.7974014,0.6040001c0.5527,0,1.107399-0.1548004,1.6025009-0.4668007
	C45.6593971,43.1264992,46.1862946,41.8993988,45.940197,40.6693993z"/>
<circle fill="#6D6D6D" cx="16" cy="33.9985008" r="4"/>
<path fill="#2B2B2B" d="M16,38.9985008c-2.7568035,0-5-2.2430992-5-5c0-2.7568016,2.2431965-5,5-5c2.7567959,0,5,2.2431984,5,5
	C21,36.7554016,18.7567959,38.9985008,16,38.9985008z M16,30.9985008c-1.6543036,0-3,1.3456993-3,3s1.3456964,3,3,3
	c1.6542969,0,3-1.3456993,3-3S17.6542969,30.9985008,16,30.9985008z"/>
<circle fill="#6D6D6D" cx="32" cy="33.9985008" r="4"/>
<path fill="#2B2B2B" d="M32,38.9985008c-2.7568035,0-5-2.2430992-5-5c0-2.7568016,2.2431965-5,5-5c2.756794,0,5,2.2431984,5,5
	C37,36.7554016,34.756794,38.9985008,32,38.9985008z M32,30.9985008c-1.6543045,0-3,1.3456993-3,3s1.3456955,3,3,3
	c1.6542969,0,3-1.3456993,3-3S33.6542969,30.9985008,32,30.9985008z"/>
<rect x="22" y="11" fill="#B3B3B3" width="4" height="8"/>
<path fill="#2B2B2B" d="M16,25h1c0.5522957,0,1-0.4477005,1-1v-1c0-0.5522995-0.4477043-1-1-1h-1c-0.5523033,0-1,0.4477005-1,1v1
	C15,24.5522995,15.4476967,25,16,25z"/>
<path fill="#2B2B2B" d="M10,25h1c0.5522966,0,1-0.4477005,1-1v-1c0-0.5522995-0.4477034-1-1-1h-1c-0.5523033,0-1,0.4477005-1,1v1
	C9,24.5522995,9.4476967,25,10,25z"/>
<path fill="#2B2B2B" d="M12,26v1c0,0.5522995,0.4476967,1,1,1h1c0.5522966,0,1-0.4477005,1-1v-1c0-0.5522995-0.4477034-1-1-1h-1
	C12.4476967,25,12,25.4477005,12,26z"/>
<path fill="#2B2B2B" d="M12,20v1c0,0.5522995,0.4476967,1,1,1h1c0.5522966,0,1-0.4477005,1-1v-1c0-0.5522995-0.4477034-1-1-1h-1
	C12.4476967,19,12,19.4477005,12,20z"/>
<circle fill="#2B2B2B" cx="35.5" cy="20.5" r="1.5"/>
<circle fill="#EFD358" cx="35.5" cy="20.5" r="1.5"/>
<circle fill="#4DA34D" cx="35.5" cy="26.5" r="1.5"/>
<circle fill="#E86C60" cx="38.5" cy="23.5" r="1.5"/>
<circle fill="#458BC4" cx="32.5" cy="23.5" r="1.5"/>
</g></svg>