<svg xmlns="http://www.w3.org/2000/svg" xmlns:xlink="http://www.w3.org/1999/xlink" x="0px" y="0px" width="48px" height="48px" viewBox="0 0 48 48"><g >
<path fill="#E6E6E6" d="M34,17H14C6.8315001,17,1,22.8314991,1,30s5.8315001,13,13,13h20c7.168499,0,13-5.831501,13-13
	S41.168499,17,34,17z"/>
<path fill="#444444" d="M24,11c-0.5522003,0-1-0.4477997-1-1V4c0-0.5522001,0.4477997-1,1-1s1,0.4477999,1,1v6
	C25,10.5522003,24.5522003,11,24,11z"/>
<rect x="22" y="9" fill="#B3B3B3" width="4" height="8"/>
<circle fill="#FFFFFF" cx="34" cy="30" r="8"/>
<circle fill="#FFFFFF" cx="13" cy="30" r="8"/>
<circle fill="#458BC4" cx="34" cy="26" r="2"/>
<circle fill="#EFD358" cx="34" cy="34" r="2"/>
<circle fill="#E86C60" cx="38" cy="30" r="2"/>
<circle fill="#4DA34D" cx="30" cy="30" r="2"/>
<path fill="#666666" d="M17,29h-3v-3c0-0.5522003-0.4477997-1-1-1s-1,0.4477997-1,1v3H9c-0.5522003,0-1,0.4477997-1,1
	s0.4477997,1,1,1h3v3c0,0.5522003,0.4477997,1,1,1s1-0.4477997,1-1v-3h3c0.5522003,0,1-0.4477997,1-1S17.5522003,29,17,29z"/>
</g></svg>