<svg xmlns="http://www.w3.org/2000/svg" xmlns:xlink="http://www.w3.org/1999/xlink" x="0px" y="0px" width="48px" height="48px" viewBox="0 0 48 48"><g >
<path fill="#E6E6E6" d="M41,1H7C5.3430829,1,4,2.3431001,4,4v40c0,1.6568985,1.3430829,3,3,3h34c1.6568832,0,3-1.3431015,3-3V4
	C44,2.3431001,42.6568832,1,41,1z"/>
<circle fill="#CCCCCC" cx="24" cy="42" r="2"/>
<path fill="#43A6DD" d="M40,37H8c-0.5523171,0-1-0.4477005-1-1V5c0-0.5523,0.4476829-1,1-1h32c0.5522804,0,1,0.4477,1,1v31
	C41,36.5522995,40.5522804,37,40,37z"/>
</g></svg>