<svg xmlns="http://www.w3.org/2000/svg" xmlns:xlink="http://www.w3.org/1999/xlink" x="0px" y="0px" width="48px" height="48px" viewBox="0 0 48 48"><g >
<path fill="#444444" d="M40,8H8c-1.6543002,0-3,1.345705-3,3v24c0,0.5522041,0.4473,1,1,1h36c0.5527,0,1-0.4477959,1-1V11
	C43,9.345705,41.6543007,8,40,8z"/>
<path fill="#E6E6E6" d="M1,33v2c0,2.7568054,2.2432001,5,5,5h36c2.7568016,0,5-2.2431946,5-5v-2H1z"/>
<rect x="8" y="11" fill="#43A6DD" width="32" height="19"/>
<path fill="#B3B3B3" d="M27,36h-6c-1.1044998,0-2-0.8954964-2-2v-1h10v1C29,35.1045036,28.1044998,36,27,36z"/>
</g></svg>