<svg xmlns="http://www.w3.org/2000/svg" xmlns:xlink="http://www.w3.org/1999/xlink" x="0px" y="0px" width="48px" height="48px" viewBox="0 0 48 48"><g >
<path fill="#E6E6E6" d="M35,47H13c-2.2089996,0-4-1.7910004-4-4V5c0-2.2090001,1.7910004-4,4-4h22c2.2089996,0,4,1.7909999,4,4v38
	C39,45.2089996,37.2089996,47,35,47z"/>
<circle fill="#CCCCCC" cx="24" cy="42" r="2"/>
<path fill="#43A6DD" d="M35,37H13c-0.5523033,0-1-0.4476929-1-1V8c0-0.5522928,0.4476967-1,1-1h22c0.5522957,0,1,0.4477072,1,1v28
	C36,36.5523071,35.5522957,37,35,37z"/>
</g></svg>