<svg xmlns="http://www.w3.org/2000/svg" xmlns:xlink="http://www.w3.org/1999/xlink" x="0px" y="0px" width="48px" height="48px" viewBox="0 0 48 48"><g >
<path fill="#B3B3B3" d="M28.5,47C22.7099991,47,18,42.289608,18,36.5V36c0-0.5521927,0.4472847-1,1-1c0.5526848,0,1,0.4478073,1,1
	v0.5c0,4.6870003,3.8134861,8.5,8.5,8.5c4.6864853,0,8.5-3.8129997,8.5-8.5V28c0-0.5521927,0.4472847-1,1-1
	c0.5526848,0,1,0.4478073,1,1v8.5C39,42.289608,34.2900009,47,28.5,47z"/>
<path fill="#E6E6E6" d="M44,15c-0.5527153,0-1,0.4478073-1,1H33c0-0.5521927-0.4473152-1-1-1c-0.5527153,0-1,0.4478073-1,1v6
	c0,3.8599072,3.140583,7,7,7c3.8593864,0,7-3.1400928,7-7v-6C45,15.4478073,44.5526848,15,44,15z"/>
<rect x="33" y="11" fill="#A5A5A5" width="2" height="6"/>
<rect x="41" y="11" fill="#A5A5A5" width="2" height="6"/>
<path fill="#B3B3B3" d="M46,17H30c-0.5527153,0-1-0.4477921-1-1c0-0.5521927,0.4472847-1,1-1h16c0.5526848,0,1,0.4478073,1,1
	C47,16.5522079,46.5526848,17,46,17z"/>
<path fill="#444444" d="M21,1H5C2.7909999,1,1,2.7909999,1,5v30c0,2.2089996,1.7909999,4,4,4h16c2.2089996,0,4-1.7910004,4-4V5
	C25,2.7909999,23.2089996,1,21,1z"/>
<path fill="#43A6DD" d="M21,31H5c-0.5523143,0-1-0.4476929-1-1V7c0-0.5522923,0.4476857-1,1-1h16c0.5522861,0,1,0.4477077,1,1v23
	C22,30.5523071,21.5522861,31,21,31z"/>
<circle fill="#595959" cx="13" cy="35" r="2"/>
</g></svg>