<svg xmlns="http://www.w3.org/2000/svg" xmlns:xlink="http://www.w3.org/1999/xlink" x="0px" y="0px" width="48px" height="48px" viewBox="0 0 48 48"><g >
<path fill="#E6E6E6" d="M41,1H7C5.3431001,1,4,2.3431001,4,4v40c0,1.6568985,1.3431001,3,3,3h34c1.6568985,0,3-1.3431015,3-3V4
	C44,2.3431001,42.6568985,1,41,1z"/>
<circle fill="#CCCCCC" cx="24" cy="42" r="2"/>
<path fill="#444444" d="M40,37H8c-0.5523,0-1-0.4477005-1-1V5c0-0.5523,0.4477-1,1-1h32c0.5522995,0,1,0.4477,1,1v31
	C41,36.5522995,40.5522995,37,40,37z"/>
<path fill="#B3B3B3" d="M34,11H14c-0.5527,0-1-0.4477997-1-1s0.4473-1,1-1h20c0.5527,0,1,0.4477997,1,1S34.5527,11,34,11z"/>
<path fill="#B3B3B3" d="M34,26H14c-0.5527,0-1-0.4477997-1-1s0.4473-1,1-1h20c0.5527,0,1,0.4477997,1,1S34.5527,26,34,26z"/>
<path fill="#B3B3B3" d="M34,16H14c-0.5527,0-1-0.4477997-1-1s0.4473-1,1-1h20c0.5527,0,1,0.4477997,1,1S34.5527,16,34,16z"/>
<path fill="#B3B3B3" d="M29,21H14c-0.5527,0-1-0.4477997-1-1s0.4473-1,1-1h15c0.5527,0,1,0.4477997,1,1S29.5527,21,29,21z"/>
<path fill="#B3B3B3" d="M21,31h-7c-0.5527,0-1-0.4477997-1-1s0.4473-1,1-1h7c0.5527,0,1,0.4477997,1,1S21.5527,31,21,31z"/>
</g></svg>