<svg xmlns="http://www.w3.org/2000/svg" xmlns:xlink="http://www.w3.org/1999/xlink" x="0px" y="0px" width="48px" height="48px" viewBox="0 0 48 48"><g >
<path fill="#4DA34D" d="M46.7681885,40C46.9151917,39.3557014,47,38.6882019,47,38v-2c0-0.5522003-0.4473114-1-1-1
	c-1.6543083,0-3-1.3456993-3-3s1.3456917-3,3-3c0.5526886,0,1-0.4477997,1-1v-8c0-0.5522003-0.4473114-1-1-1
	c-1.6543083,0-3-1.3456993-3-3s1.3456917-3,3-3c0.5526886,0,1-0.4477997,1-1v-2c0-4.9624-4.0371094-9-9-9H10
	c-4.9629087,0-9,4.0376-9,9v2c0,0.5522003,0.4472911,1,1,1c1.6542912,0,3,1.3457003,3,3s-1.3457088,3-3,3
	c-0.5527089,0-1,0.4477997-1,1v8c0,0.5522003,0.4472911,1,1,1c1.6542912,0,3,1.3456993,3,3s-1.3457088,3-3,3
	c-0.5527089,0-1,0.4477997-1,1v2c0,0.6882019,0.0847912,1.3557014,0.2317911,2H46.7681885z"/>
<path fill="#444444" d="M1.2317911,40C2.1445911,44.0017014,5.7252913,47,10,47h28c4.2746887,0,7.8553886-2.9982986,8.7681885-7
	H1.2317911z"/>
<path fill="#444444" d="M18,21h-4c-1.1046095,0-2-0.8953991-2-2v-4c0-1.1046,0.8953905-2,2-2h4c1.1045914,0,2,0.8954,2,2v4
	C20,20.1046009,19.1045914,21,18,21z"/>
<path fill="#444444" d="M34,21h-4c-1.1046104,0-2-0.8953991-2-2v-4c0-1.1046,0.8953896-2,2-2h4c1.1045914,0,2,0.8954,2,2v4
	C36,20.1046009,35.1045914,21,34,21z"/>
<path fill="#444444" d="M18,35h-4c-1.1046095,0-2-0.895401-2-2v-4c0-1.1046009,0.8953905-2,2-2h4c1.1045914,0,2,0.8953991,2,2v4
	C20,34.104599,19.1045914,35,18,35z"/>
<path fill="#444444" d="M34,35h-4c-1.1046104,0-2-0.895401-2-2v-4c0-1.1046009,0.8953896-2,2-2h4c1.1045914,0,2,0.8953991,2,2v4
	C36,34.104599,35.1045914,35,34,35z"/>
<path fill="#EA9860" d="M11,47v-3c0-0.5522003,0.4472914-1,1-1c0.5526905,0,1,0.4477997,1,1v3H11z"/>
<path fill="#EA9860" d="M17,47v-3c0-0.5522003,0.4472904-1,1-1c0.5526905,0,1,0.4477997,1,1v3H17z"/>
<path fill="#EA9860" d="M23,47v-3c0-0.5522003,0.4472904-1,1-1c0.5526905,0,1,0.4477997,1,1v3H23z"/>
<path fill="#EA9860" d="M29,47v-3c0-0.5522003,0.4472904-1,1-1c0.5526905,0,1,0.4477997,1,1v3H29z"/>
<path fill="#EA9860" d="M35,47v-3c0-0.5522003,0.4472885-1,1-1c0.5526886,0,1,0.4477997,1,1v3H35z"/>
</g></svg>