<svg xmlns="http://www.w3.org/2000/svg" xmlns:xlink="http://www.w3.org/1999/xlink" x="0px" y="0px" width="48px" height="48px" viewBox="0 0 48 48"><g >
<path fill="#B3B3B3" d="M44.5858879,41.6987l-6.2041016-10.3393002c-0.2840996-0.4731998-0.8973999-0.6269989-1.3719978-0.3428001
	c-0.3115997,0.1870003-0.4677887,0.5186005-0.4687881,0.8574009L11.4580002,31.875
	c-0.0010004-0.3388996-0.1572123-0.6704006-0.4687119-0.8574009c-0.4747-0.2851982-1.0879002-0.1303997-1.3720999,0.3428001
	L3.415,41.6982002c-0.6142116,1.0234985-0.5742116,2.2686005,0.1035883,3.25
	c0.6796,0.9819984,1.8310001,1.4589996,3.0048001,1.2456017L24,43.0166016l17.4765892,3.1772003
	c0.1854973,0.033699,0.3700981,0.0502968,0.5527,0.0502968c0.9735985,0,1.8798981-0.4692001,2.4511986-1.2953987
	C45.1591873,43.9673004,45.2001877,42.7221985,44.5858879,41.6987z"/>
<path fill="#E6E6E6" d="M24,1C13.5233879,1,5,9.5234003,5,20s8.5233879,19,19,19c10.4765892,0,19-8.5233994,19-19S34.4765892,1,24,1
	z"/>
<path fill="#444444" d="M24,11c-6.0654125,0-11,4.9345999-11,11s4.9345875,11,11,11c6.0653877,0,11-4.9346008,11-11
	S30.0653877,11,24,11z"/>
<path fill="#232323" d="M24,15c-3.8598118,0-7,3.1401997-7,7s3.1401882,7,7,7c3.859787,0,7-3.1401997,7-7S27.859787,15,24,15z"/>
<circle fill="#43A6DD" cx="24" cy="22" r="2"/>
</g></svg>