<svg xmlns="http://www.w3.org/2000/svg" xmlns:xlink="http://www.w3.org/1999/xlink" x="0px" y="0px" width="48px" height="48px" viewBox="0 0 48 48"><g >
<path fill="#494949" d="M40,7H8c-3.8599,0-7,3.1400995-7,7v26c0,3.8599014,3.1401,7,7,7h32c3.8599014,0,7-3.1400986,7-7V14
	C47,10.1400995,43.8599014,7,40,7z"/>
<path fill="#EAD8C5" d="M40,13H8c-0.5521998,0-1,0.4477997-1,1v26c0,0.5522003,0.4478002,1,1,1h32c0.5522003,0,1-0.4477997,1-1V14
	C41,13.4477997,40.5522003,13,40,13z"/>
<path fill="#FFFFFF" d="M34,20.8789005l-6,6L23.1210995,22l9.0000019-9h-4.2422009L13,27.8789005l-6-6v4.2421989L10.8788996,30
	L7,33.8788986v4.2422028l6-6L21.8789005,41h6.2421989L39,30.1210995l2,2.0000019v-4.2422009L34,20.8789005z M25,39.8788986
	L15.1211004,30L21,24.1210995l7,7l6-6L36.8788986,28L25,39.8788986z"/>
<path fill="#FFFFFF" d="M22.1210995,13h-4.2421989L14,16.8789005L10.1211004,13H8c-0.5521998,0-1,0.4477997-1,1v0.1211004
	l7,6.999999L22.1210995,13z"/>
<path fill="#E86C60" d="M24,1c-5.4071999,0-11,4.1146998-11,11c0,6.5088005,9.8701,16.5307999,10.2900009,16.9545994
	C23.4780006,29.1436005,23.7334003,29.25,24,29.25s0.5219994-0.1063995,0.7099991-0.2954006C25.1299,28.5307999,35,18.5088005,35,12
	C35,5.1146998,29.4071999,1,24,1z"/>
<circle fill="#FFFFFF" cx="24" cy="12" r="2"/>
</g></svg>