<svg xmlns="http://www.w3.org/2000/svg" xmlns:xlink="http://www.w3.org/1999/xlink" x="0px" y="0px" width="48px" height="48px" viewBox="0 0 48 48"><g >
<path fill="#444444" d="M36,1H12C9.7908936,1,8,2.7909,8,5v38c0,2.2090988,1.7908936,4,4,4h24c2.2090912,0,4-1.7909012,4-4V5
	C40,2.7909,38.2090912,1,36,1z"/>
<path fill="#BFDEE0" d="M13,27h22c0.5522919,0,1-0.4477005,1-1V6c0-0.5523-0.4477081-1-1-1H13c-0.5523062,0-1,0.4477-1,1v20
	C12,26.5522995,12.4476938,27,13,27z"/>
<path fill="#7A7A7A" d="M24,43c-3.3086071,0-6-2.6913986-6-6s2.6913929-6,6-6c3.3085938,0,6,2.6913986,6,6S27.3085938,43,24,43z
	 M24,33c-2.2061062,0-4,1.7943993-4,4s1.7938938,4,4,4c2.2060928,0,4-1.7943993,4-4S26.2060928,33,24,33z"/>
</g></svg>