<svg xmlns="http://www.w3.org/2000/svg" xmlns:xlink="http://www.w3.org/1999/xlink" x="0px" y="0px" width="48px" height="48px" viewBox="0 0 48 48"><g >
<rect x="36" y="20" fill="#2D2D2D" width="4" height="8"/>
<path fill="#43A6DD" d="M12,11h20c0.3081017,0,0.5985985-0.1420927,0.7881012-0.3847923
	c0.1893997-0.2426004,0.2567978-0.559,0.1820984-0.8579006l-2-7.9999995C30.8589001,1.3125075,30.4589996,1,30,1H14
	c-0.4589996,0-0.8589001,0.3125075-0.9701996,0.7573075l-2,7.9999995c-0.0747004,0.2989006-0.0073004,0.6153002,0.1820993,0.8579006
	C11.4013996,10.8579073,11.6919003,11,12,11z"/>
<path fill="#43A6DD" d="M32,37H12c-0.3080997,0-0.5986004,0.1421051-0.7881002,0.3848076
	c-0.1893997,0.2425995-0.2567997,0.5589981-0.1820993,0.8578987l2,8C13.1410999,46.6875076,13.5410004,47,14,47h16
	c0.4589996,0,0.8589001-0.3124924,0.9701996-0.7572937l2-8c0.0746994-0.2989006,0.0073013-0.6152992-0.1820984-0.8578987
	C32.5985985,37.1421051,32.3081017,37,32,37z"/>
<path fill="#444444" d="M32,9H12c-2.7567997,0-5,2.243207-5,5v20c0,2.7568054,2.2432003,5,5,5h20c2.7568016,0,5-2.2431946,5-5V14
	C37,11.243207,34.7568016,9,32,9z"/>
<rect x="11" y="13" fill="#5B5B5B" width="22" height="22"/>
<path fill="#FFFFFF" d="M22,25c-0.5522003,0-1-0.447794-1-1l1-7l1,6l7,1L22,25z"/>
</g></svg>