<svg xmlns="http://www.w3.org/2000/svg" xmlns:xlink="http://www.w3.org/1999/xlink" x="0px" y="0px" width="48px" height="48px" viewBox="0 0 48 48"><g >
<path fill="#B3B3B3" d="M34,13c-0.5522003,0-1-0.4477997-1-1V6c0-0.5521998,0.4477997-1,1-1s1,0.4478002,1,1v6
	C35,12.5522003,34.5522003,13,34,13z"/>
<path fill="#B3B3B3" d="M28,47c-3.8598995,0-7-3.1400986-7-7v-3.9995003c0-0.5522995,0.4477997-1,1-1s1,0.4477005,1,1V40
	c0,2.7568016,2.2432003,5,5,5s5-2.2431984,5-5v-4c0-0.5522003,0.4477997-1,1-1s1,0.4477997,1,1v4C35,43.8599014,31.8598995,47,28,47
	z"/>
<path fill="#B3B3B3" d="M22,13c-0.5522003,0-1-0.4477997-1-1V8c0-2.7568002-2.2432003-5-5-5s-5,2.2431998-5,5v4
	c0,0.5522003-0.4477997,1-1,1s-1-0.4477997-1-1V8c0-3.8599,3.1400995-7,7-7s7,3.1401,7,7v4C23,12.5522003,22.5522003,13,22,13z"/>
<path fill="#444444" d="M46,11H2c-0.5522,0-1,0.4477997-1,1v24c0,0.5522003,0.4478,1,1,1h44c0.5522003,0,1-0.4477997,1-1V12
	C47,11.4477997,46.5522003,11,46,11z"/>
<path fill="#B3B3B3" d="M8,19H5c-0.5523,0-1-0.4477005-1-1v-2c0-0.5523005,0.4477-1,1-1h3c0.5523005,0,1,0.4476995,1,1v2
	C9,18.5522995,8.5523005,19,8,19z"/>
<path fill="#B3B3B3" d="M15,19h-3c-0.5523005,0-1-0.4477005-1-1v-2c0-0.5523005,0.4476995-1,1-1h3c0.5523005,0,1,0.4476995,1,1v2
	C16,18.5522995,15.5523005,19,15,19z"/>
<path fill="#B3B3B3" d="M22,19h-3c-0.5522995,0-1-0.4477005-1-1v-2c0-0.5523005,0.4477005-1,1-1h3c0.5522995,0,1,0.4476995,1,1v2
	C23,18.5522995,22.5522995,19,22,19z"/>
<path fill="#B3B3B3" d="M29,19h-3c-0.5522995,0-1-0.4477005-1-1v-2c0-0.5523005,0.4477005-1,1-1h3c0.5522995,0,1,0.4476995,1,1v2
	C30,18.5522995,29.5522995,19,29,19z"/>
<path fill="#B3B3B3" d="M36,19h-3c-0.5522995,0-1-0.4477005-1-1v-2c0-0.5523005,0.4477005-1,1-1h3c0.5522995,0,1,0.4476995,1,1v2
	C37,18.5522995,36.5522995,19,36,19z"/>
<path fill="#B3B3B3" d="M43,19h-3c-0.5522995,0-1-0.4477005-1-1v-2c0-0.5523005,0.4477005-1,1-1h3c0.5522995,0,1,0.4476995,1,1v2
	C44,18.5522995,43.5522995,19,43,19z"/>
<path fill="#B3B3B3" d="M8,26H5c-0.5523,0-1-0.4477005-1-1v-2c0-0.5522995,0.4477-1,1-1h3c0.5523005,0,1,0.4477005,1,1v2
	C9,25.5522995,8.5523005,26,8,26z"/>
<path fill="#B3B3B3" d="M15,26h-3c-0.5523005,0-1-0.4477005-1-1v-2c0-0.5522995,0.4476995-1,1-1h3c0.5523005,0,1,0.4477005,1,1v2
	C16,25.5522995,15.5523005,26,15,26z"/>
<path fill="#B3B3B3" d="M22,26h-3c-0.5522995,0-1-0.4477005-1-1v-2c0-0.5522995,0.4477005-1,1-1h3c0.5522995,0,1,0.4477005,1,1v2
	C23,25.5522995,22.5522995,26,22,26z"/>
<path fill="#B3B3B3" d="M29,26h-3c-0.5522995,0-1-0.4477005-1-1v-2c0-0.5522995,0.4477005-1,1-1h3c0.5522995,0,1,0.4477005,1,1v2
	C30,25.5522995,29.5522995,26,29,26z"/>
<path fill="#B3B3B3" d="M43,26H33c-0.5522995,0-1-0.4477005-1-1v-2c0-0.5522995,0.4477005-1,1-1h10c0.5522995,0,1,0.4477005,1,1v2
	C44,25.5522995,43.5522995,26,43,26z"/>
<path fill="#B3B3B3" d="M8,33H5c-0.5523,0-1-0.4477005-1-1v-2c0-0.5522995,0.4477-1,1-1h3c0.5523005,0,1,0.4477005,1,1v2
	C9,32.5522995,8.5523005,33,8,33z"/>
<path fill="#B3B3B3" d="M36,33H12c-0.5523005,0-1-0.4477005-1-1v-2c0-0.5522995,0.4476995-1,1-1h24c0.5522995,0,1,0.4477005,1,1v2
	C37,32.5522995,36.5522995,33,36,33z"/>
<path fill="#B3B3B3" d="M43,33h-3c-0.5522995,0-1-0.4477005-1-1v-2c0-0.5522995,0.4477005-1,1-1h3c0.5522995,0,1,0.4477005,1,1v2
	C44,32.5522995,43.5522995,33,43,33z"/>
</g></svg>