<svg xmlns="http://www.w3.org/2000/svg" xmlns:xlink="http://www.w3.org/1999/xlink" x="0px" y="0px" width="48px" height="48px" viewBox="0 0 48 48"><g >
<path fill="#444444" d="M46,3H2C1.4472939,3,1,3.4477999,1,4v24c0,0.5522003,0.4472939,1,1,1h44c0.5526924,0,1-0.4477997,1-1V4
	C47,3.4477999,46.5526924,3,46,3z"/>
<path fill="#B3B3B3" d="M8,11H5c-0.5523062,0-1-0.4476995-1-1V8c0-0.5523,0.4476938-1,1-1h3c0.5522938,0,1,0.4477,1,1v2
	C9,10.5523005,8.5522938,11,8,11z"/>
<path fill="#B3B3B3" d="M15,11h-3c-0.5523062,0-1-0.4476995-1-1V8c0-0.5523,0.4476938-1,1-1h3c0.5522938,0,1,0.4477,1,1v2
	C16,10.5523005,15.5522938,11,15,11z"/>
<path fill="#B3B3B3" d="M22,11h-3c-0.5523071,0-1-0.4476995-1-1V8c0-0.5523,0.4476929-1,1-1h3c0.5522938,0,1,0.4477,1,1v2
	C23,10.5523005,22.5522938,11,22,11z"/>
<path fill="#B3B3B3" d="M29,11h-3c-0.5523071,0-1-0.4476995-1-1V8c0-0.5523,0.4476929-1,1-1h3c0.5522938,0,1,0.4477,1,1v2
	C30,10.5523005,29.5522938,11,29,11z"/>
<path fill="#B3B3B3" d="M36,11h-3c-0.5523071,0-1-0.4476995-1-1V8c0-0.5523,0.4476929-1,1-1h3c0.5522919,0,1,0.4477,1,1v2
	C37,10.5523005,36.5522919,11,36,11z"/>
<path fill="#B3B3B3" d="M43,11h-3c-0.5523071,0-1-0.4476995-1-1V8c0-0.5523,0.4476929-1,1-1h3c0.5522919,0,1,0.4477,1,1v2
	C44,10.5523005,43.5522919,11,43,11z"/>
<path fill="#B3B3B3" d="M8,18H5c-0.5523062,0-1-0.4477005-1-1v-2c0-0.5523005,0.4476938-1,1-1h3c0.5522938,0,1,0.4476995,1,1v2
	C9,17.5522995,8.5522938,18,8,18z"/>
<path fill="#B3B3B3" d="M15,18h-3c-0.5523062,0-1-0.4477005-1-1v-2c0-0.5523005,0.4476938-1,1-1h3c0.5522938,0,1,0.4476995,1,1v2
	C16,17.5522995,15.5522938,18,15,18z"/>
<path fill="#B3B3B3" d="M22,18h-3c-0.5523071,0-1-0.4477005-1-1v-2c0-0.5523005,0.4476929-1,1-1h3c0.5522938,0,1,0.4476995,1,1v2
	C23,17.5522995,22.5522938,18,22,18z"/>
<path fill="#B3B3B3" d="M29,18h-3c-0.5523071,0-1-0.4477005-1-1v-2c0-0.5523005,0.4476929-1,1-1h3c0.5522938,0,1,0.4476995,1,1v2
	C30,17.5522995,29.5522938,18,29,18z"/>
<path fill="#B3B3B3" d="M43,18H33c-0.5523071,0-1-0.4477005-1-1v-2c0-0.5523005,0.4476929-1,1-1h10c0.5522919,0,1,0.4476995,1,1v2
	C44,17.5522995,43.5522919,18,43,18z"/>
<path fill="#B3B3B3" d="M8,25H5c-0.5523062,0-1-0.4477005-1-1v-2c0-0.5522995,0.4476938-1,1-1h3c0.5522938,0,1,0.4477005,1,1v2
	C9,24.5522995,8.5522938,25,8,25z"/>
<path fill="#B3B3B3" d="M36,25H12c-0.5523062,0-1-0.4477005-1-1v-2c0-0.5522995,0.4476938-1,1-1h24c0.5522919,0,1,0.4477005,1,1v2
	C37,24.5522995,36.5522919,25,36,25z"/>
<path fill="#666666" d="M39,20h-4c-3.3137074,0-6,2.6863003-6,6v14c0,3.3137016,2.6862926,6,6,6h4c3.313694,0,6-2.6862984,6-6V26
	C45,22.6863003,42.313694,20,39,20z"/>
<path fill="#444444" d="M37,34c-0.5527077,0-1-0.4477997-1-1v-9c0-0.5522003,0.4472923-1,1-1c0.5526924,0,1,0.4477997,1,1v9
	C38,33.5522003,37.5526924,34,37,34z"/>
<path fill="#B3B3B3" d="M37,30c-0.5527077,0-1-0.4477997-1-1v-3c0-0.5522003,0.4472923-1,1-1c0.5526924,0,1,0.4477997,1,1v3
	C38,29.5522003,37.5526924,30,37,30z"/>
</g></svg>