<svg xmlns="http://www.w3.org/2000/svg" xmlns:xlink="http://www.w3.org/1999/xlink" x="0px" y="0px" width="48px" height="48px" viewBox="0 0 48 48"><g >
<path fill="#AFAFAF" d="M46,11H2c-0.5522034,0-1,0.4477997-1,1v24c0,0.5522003,0.4477966,1,1,1h44c0.5521965,0,1-0.4477997,1-1V12
	C47,11.4477997,46.5521965,11,46,11z"/>
<path fill="#FFFFFF" d="M8,19H5c-0.5523033,0-1-0.4477005-1-1v-2c0-0.5523005,0.4476967-1,1-1h3c0.5522966,0,1,0.4476995,1,1v2
	C9,18.5522995,8.5522966,19,8,19z"/>
<path fill="#FFFFFF" d="M15,19h-3c-0.5523033,0-1-0.4477005-1-1v-2c0-0.5523005,0.4476967-1,1-1h3c0.5522966,0,1,0.4476995,1,1v2
	C16,18.5522995,15.5522966,19,15,19z"/>
<path fill="#FFFFFF" d="M22,19h-3c-0.5523033,0-1-0.4477005-1-1v-2c0-0.5523005,0.4476967-1,1-1h3c0.5522957,0,1,0.4476995,1,1v2
	C23,18.5522995,22.5522957,19,22,19z"/>
<path fill="#FFFFFF" d="M29,19h-3c-0.5523033,0-1-0.4477005-1-1v-2c0-0.5523005,0.4476967-1,1-1h3c0.5522957,0,1,0.4476995,1,1v2
	C30,18.5522995,29.5522957,19,29,19z"/>
<path fill="#FFFFFF" d="M36,19h-3c-0.5523033,0-1-0.4477005-1-1v-2c0-0.5523005,0.4476967-1,1-1h3c0.5522957,0,1,0.4476995,1,1v2
	C37,18.5522995,36.5522957,19,36,19z"/>
<path fill="#FFFFFF" d="M43,19h-3c-0.5523033,0-1-0.4477005-1-1v-2c0-0.5523005,0.4476967-1,1-1h3c0.5522957,0,1,0.4476995,1,1v2
	C44,18.5522995,43.5522957,19,43,19z"/>
<path fill="#FFFFFF" d="M8,26H5c-0.5523033,0-1-0.4477005-1-1v-2c0-0.5522995,0.4476967-1,1-1h3c0.5522966,0,1,0.4477005,1,1v2
	C9,25.5522995,8.5522966,26,8,26z"/>
<path fill="#FFFFFF" d="M15,26h-3c-0.5523033,0-1-0.4477005-1-1v-2c0-0.5522995,0.4476967-1,1-1h3c0.5522966,0,1,0.4477005,1,1v2
	C16,25.5522995,15.5522966,26,15,26z"/>
<path fill="#FFFFFF" d="M22,26h-3c-0.5523033,0-1-0.4477005-1-1v-2c0-0.5522995,0.4476967-1,1-1h3c0.5522957,0,1,0.4477005,1,1v2
	C23,25.5522995,22.5522957,26,22,26z"/>
<path fill="#FFFFFF" d="M29,26h-3c-0.5523033,0-1-0.4477005-1-1v-2c0-0.5522995,0.4476967-1,1-1h3c0.5522957,0,1,0.4477005,1,1v2
	C30,25.5522995,29.5522957,26,29,26z"/>
<path fill="#FFFFFF" d="M43,26H33c-0.5523033,0-1-0.4477005-1-1v-2c0-0.5522995,0.4476967-1,1-1h10c0.5522957,0,1,0.4477005,1,1v2
	C44,25.5522995,43.5522957,26,43,26z"/>
<path fill="#FFFFFF" d="M8,33H5c-0.5523033,0-1-0.4477005-1-1v-2c0-0.5522995,0.4476967-1,1-1h3c0.5522966,0,1,0.4477005,1,1v2
	C9,32.5522995,8.5522966,33,8,33z"/>
<path fill="#FFFFFF" d="M36,33H12c-0.5523033,0-1-0.4477005-1-1v-2c0-0.5522995,0.4476967-1,1-1h24c0.5522957,0,1,0.4477005,1,1v2
	C37,32.5522995,36.5522957,33,36,33z"/>
<path fill="#FFFFFF" d="M43,33h-3c-0.5523033,0-1-0.4477005-1-1v-2c0-0.5522995,0.4476967-1,1-1h3c0.5522957,0,1,0.4477005,1,1v2
	C44,32.5522995,43.5522957,33,43,33z"/>
</g></svg>