<svg xmlns="http://www.w3.org/2000/svg" xmlns:xlink="http://www.w3.org/1999/xlink" x="0px" y="0px" width="48px" height="48px" viewBox="0 0 48 48"><g >
<path fill="#444444" d="M38,1H10C7.2385826,1,5,3.2386,5,6v36c0,2.7613983,2.2385826,5,5,5h28c2.7613831,0,5-2.2386017,5-5V6
	C43,3.2386,40.7613831,1,38,1z"/>
<path fill="#E6E6E6" d="M38,39H10c-0.5523176,0-1-0.4477005-1-1V7c0-0.5523,0.4476824-1,1-1h28c0.5522804,0,1,0.4477,1,1v31
	C39,38.5522995,38.5522804,39,38,39z"/>
<path fill="#B3B3B3" d="M31.0009995,16H15c-0.5527172,0-1-0.4477997-1-1s0.4472828-1,1-1h16.0009995c0.5526829,0,1,0.4477997,1,1
	S31.5536823,16,31.0009995,16z"/>
<path fill="#B3B3B3" d="M31.0009995,31H15c-0.5527172,0-1-0.4477997-1-1s0.4472828-1,1-1h16.0009995c0.5526829,0,1,0.4477997,1,1
	S31.5536823,31,31.0009995,31z"/>
<path fill="#B3B3B3" d="M31.0009995,21H15c-0.5527172,0-1-0.4477997-1-1s0.4472828-1,1-1h16.0009995c0.5526829,0,1,0.4477997,1,1
	S31.5536823,21,31.0009995,21z"/>
<path fill="#B3B3B3" d="M23,26h-8c-0.5527172,0-1-0.4477997-1-1s0.4472828-1,1-1h8c0.5526829,0,1,0.4477997,1,1S23.5526829,26,23,26
	z"/>
</g></svg>