<svg xmlns="http://www.w3.org/2000/svg" xmlns:xlink="http://www.w3.org/1999/xlink" x="0px" y="0px" width="48px" height="48px" viewBox="0 0 48 48"><g >
<path fill="#444444" d="M17,1H5C2.7908967,1,1,2.7909,1,5v20c0,2.2091007,1.7908967,4,4,4h12c2.2090969,0,4-1.7908993,4-4V5
	C21,2.7909,19.2090969,1,17,1z"/>
<path fill="#444444" d="M43,19H31c-2.2091045,0-4,1.7908993-4,4v20c0,2.2090988,1.7908955,4,4,4h12c2.209095,0,4-1.7909012,4-4V23
	C47,20.7908993,45.209095,19,43,19z"/>
<path fill="#7A7A7A" d="M17,24H5c-0.5523033,0-1-0.4477005-1-1V5c0-0.5523,0.4476967-1,1-1h12c0.5522957,0,1,0.4477,1,1v18
	C18,23.5522995,17.5522957,24,17,24z"/>
<path fill="#7A7A7A" d="M43,42H31c-0.5523033,0-1-0.4477005-1-1V23c0-0.5522995,0.4476967-1,1-1h12c0.5522957,0,1,0.4477005,1,1v18
	C44,41.5522995,43.5522957,42,43,42z"/>
<path fill="#43A6DD" d="M41.7070007,9.2930002c-0.3906059-0.3907003-1.023407-0.3907003-1.4140015,0L38,11.5859003V7
	c0-2.7568002-2.243206-5-5-5h-4c-0.5522041,0-1,0.4477999-1,1s0.4477959,1,1,1h4c1.6542969,0,3,1.3456998,3,3v4.5859003
	l-2.2929993-2.2929001c-0.3906059-0.3907003-1.0234032-0.3907003-1.4140015,0c-0.3907032,0.3906002-0.3907032,1.0233994,0,1.4139996
	l4,4C36.4882965,14.9022999,36.7440948,15,37,15c0.2558975,0,0.5116959-0.0977001,0.7070007-0.2930002l4-4
	C42.0976944,10.3163996,42.0976944,9.6836004,41.7070007,9.2930002z"/>
<path fill="#43A6DD" d="M6.2930002,38.7070007c0.3905964,0.3906975,1.0233965,0.3906975,1.4139996,0L10,36.4141006V41
	c0,2.7568016,2.2431965,5,5,5h4c0.5521965,0,1-0.4477997,1-1s-0.4478035-1-1-1h-4c-1.6543036,0-3-1.3456993-3-3v-4.5858994
	l2.2930002,2.2929001c0.3905964,0.3906975,1.0233965,0.3906975,1.4139996,0c0.3906965-0.3906021,0.3906965-1.0233994,0-1.4140015
	l-4-4C11.5116968,33.0976982,11.2558966,33,11,33c-0.2559032,0-0.5117035,0.0976982-0.7069998,0.2929993l-4,4
	C5.9022965,37.6836014,5.9022965,38.3163986,6.2930002,38.7070007z"/>
</g></svg>