<svg xmlns="http://www.w3.org/2000/svg" xmlns:xlink="http://www.w3.org/1999/xlink" x="0px" y="0px" width="48px" height="48px" viewBox="0 0 48 48"><g >
<path fill="#444444" d="M38,1H10C7.2385998,1,5,3.2386,5,6v36c0,2.7613983,2.2385998,5,5,5h28c2.7613983,0,5-2.2386017,5-5V6
	C43,3.2386,40.7613983,1,38,1z"/>
<path fill="#E6E6E6" d="M38,39H10c-0.5523005,0-1-0.4477005-1-1V7c0-0.5523,0.4476995-1,1-1h28c0.5522995,0,1,0.4477,1,1v31
	C39,38.5522995,38.5522995,39,38,39z"/>
<path fill="#B3B3B3" d="M31.0009995,13H15c-0.5527,0-1-0.4477997-1-1s0.4473-1,1-1h16.0009995c0.5527,0,1,0.4477997,1,1
	S31.5536995,13,31.0009995,13z"/>
<path fill="#B3B3B3" d="M31.0009995,28H15c-0.5527,0-1-0.4477997-1-1s0.4473-1,1-1h16.0009995c0.5527,0,1,0.4477997,1,1
	S31.5536995,28,31.0009995,28z"/>
<path fill="#B3B3B3" d="M31.0009995,18H15c-0.5527,0-1-0.4477997-1-1s0.4473-1,1-1h16.0009995c0.5527,0,1,0.4477997,1,1
	S31.5536995,18,31.0009995,18z"/>
<path fill="#B3B3B3" d="M23,23h-8c-0.5527,0-1-0.4477997-1-1s0.4473-1,1-1h8c0.5527,0,1,0.4477997,1,1S23.5527,23,23,23z"/>
<path fill="#ED69AB" d="M38,39H10c-0.5523005,0-1-0.4477005-1-1v-4h30v4C39,38.5522995,38.5522995,39,38,39z"/>
</g></svg>