<svg xmlns="http://www.w3.org/2000/svg" xmlns:xlink="http://www.w3.org/1999/xlink" x="0px" y="0px" width="48px" height="48px" viewBox="0 0 48 48"><g >
<path fill="#B3B3B3" d="M37,1H11C9.8954,1,9,1.8954,9,3v9c0,0.5522003,0.5166998,1,1.1538,1
	c0.6372004,0,1.1539001-0.4477997,1.1539001-1h25.3845978c0,0.5522003,0.5167007,1,1.1539001,1C38.4832993,13,39,12.5522003,39,12V3
	C39,1.8954,38.104599,1,37,1z"/>
<path fill="#E6E6E6" d="M38,11H10c-4.9706001,0-9,4.0293999-9,9v15c0,1.104599,0.8954,2,2,2h9c0.5522003,0,1-0.4477997,1-1h22
	c0,0.5522003,0.4477997,1,1,1h9c1.104599,0,2-0.895401,2-2V20C47,15.0293999,42.9706001,11,38,11z"/>
<path fill="#B3B3B3" d="M9,28v17c0,1.104599,0.8954,2,2,2h26c1.104599,0,2-0.895401,2-2V28H9z"/>
<circle fill="#E86C60" cx="37.5" cy="19.5" r="1.5"/>
<circle fill="#72C472" cx="32.5" cy="19.5" r="1.5"/>
<rect x="11" y="8" fill="#FFFFFF" width="26" height="3"/>
<rect x="11" y="28" fill="#FFFFFF" width="26" height="15"/>
<rect x="11" y="28" fill="#CCCCCC" width="26" height="3"/>
<rect x="9" y="28" fill="#9B9B9B" width="2" height="3"/>
<rect x="37" y="28" fill="#9B9B9B" width="2" height="3"/>
</g></svg>