<svg xmlns="http://www.w3.org/2000/svg" xmlns:xlink="http://www.w3.org/1999/xlink" x="0px" y="0px" width="48px" height="48px" viewBox="0 0 48 48"><g >
<path fill="#444444" d="M23,17H9c-2.2090998,0-4,1.7908993-4,4v22c0,2.2090988,1.7909002,4,4,4h14c2.2091007,0,4-1.7909012,4-4V21
	C27,18.7908993,25.2091007,17,23,17z"/>
<path fill="#72C472" d="M34,21c-0.5522003,0-1-0.4477997-1-1c0-4.9624004-4.0375996-9-9-9c-0.5522003,0-1-0.4477997-1-1
	s0.4477997-1,1-1c6.0653992,0,11,4.9345999,11,11C35,20.5522003,34.5522003,21,34,21z"/>
<path fill="#72C472" d="M42,21c-0.5522003,0-1-0.4477997-1-1c0-9.3739996-7.6259995-17-17-17c-0.5522003,0-1-0.4477999-1-1
	s0.4477997-1,1-1c10.4766006,0,19,8.5234003,19,19C43,20.5522003,42.5522003,21,42,21z"/>
<path fill="#9EDB9E" d="M23,33H9c-0.5523005,0-1-0.4477005-1-1V21c0-0.5522995,0.4476995-1,1-1h14c0.5522995,0,1,0.4477005,1,1v11
	C24,32.5522995,23.5522995,33,23,33z"/>
<circle fill="#E86C60" cx="16" cy="40.5" r="1.5"/>
</g></svg>