<?xml version="1.0" encoding="utf-8"?>
<!-- Generator: Adobe Illustrator 19.1.0, SVG Export Plug-In . SVG Version: 6.00 Build 0)  -->
<!DOCTYPE svg PUBLIC "-//W3C//DTD SVG 1.1//EN" "http://www.w3.org/Graphics/SVG/1.1/DTD/svg11.dtd">
<svg version="1.1" id="Layer_2" xmlns="http://www.w3.org/2000/svg" xmlns:xlink="http://www.w3.org/1999/xlink" x="0px" y="0px"
	 width="24px" height="24px" viewBox="0 0 24 24" enable-background="new 0 0 24 24" xml:space="preserve">
<path d="M22.29297,0.29297l-5.26892,5.26941c-1.11487-0.52893-2.48572-0.34338-3.40588,0.57678
	C12.86505,6.8927,10.46167,11.16754,9.44,13.01318l-6.80426,1.17285c-1.24023,0.21387-2.19336,1.10693-2.4873,2.33057
	c-0.29492,1.22314,0.14844,2.45166,1.15527,3.20605c0,0,0,0,0,0.00049l1.70117,1.27246l1.27246,1.69971
	c0.59961,0.80176,1.5,1.24609,2.45898,1.24609c0.24707,0,0.49707-0.0293,0.74707-0.08936
	c1.22363-0.29443,2.11719-1.24756,2.33008-2.48779l1.17322-6.80389c1.84528-1.02142,6.12054-3.42493,6.87463-4.17902
	c0.91992-0.92029,1.10449-2.29071,0.57654-3.40466l5.26917-5.26965c0.39062-0.39062,0.39062-1.02344,0-1.41406
	S22.68359-0.09766,22.29297,0.29297z M2.09277,16.98389c0.04004-0.16504,0.2207-0.71289,0.88281-0.82715l4.17291-0.7193
	l-3.5238,3.5238l-1.12177-0.83966C1.96484,17.71924,2.05273,17.14893,2.09277,16.98389z M7.01562,21.90723
	c-0.16309,0.03906-0.73535,0.12744-1.13672-0.41064l-0.83997-1.12146l3.52295-3.52295L7.84277,21.0249
	C7.72852,21.68652,7.18164,21.86768,7.01562,21.90723z M16.44727,8.9668c-0.29199,0.28662-1.84961,1.23633-3.73926,2.32471
	c1.08887-1.88916,2.03906-3.44678,2.32422-3.73828c0.19531-0.19482,0.45117-0.29248,0.70801-0.29248
	c0.25586,0,0.51172,0.09766,0.70703,0.29248C16.83691,7.94287,16.83691,8.57764,16.44727,8.9668z"/>
</svg>
