<?xml version="1.0" encoding="utf-8"?>
<!-- Generator: Adobe Illustrator 19.1.0, SVG Export Plug-In . SVG Version: 6.00 Build 0)  -->
<!DOCTYPE svg PUBLIC "-//W3C//DTD SVG 1.1//EN" "http://www.w3.org/Graphics/SVG/1.1/DTD/svg11.dtd">
<svg version="1.1" id="Layer_2" xmlns="http://www.w3.org/2000/svg" xmlns:xlink="http://www.w3.org/1999/xlink" x="0px" y="0px"
	 width="24px" height="24px" viewBox="0 0 24 24" enable-background="new 0 0 24 24" xml:space="preserve">
<path d="M2.5,22.91455c0.1875,0.1875,0.44141,0.29297,0.70703,0.29297s0.51953-0.10547,0.70703-0.29297l4.24219-4.24268
	c0.39062-0.39062,0.39062-1.02344,0-1.41406l-0.00006-0.00006l2.19739-2.19763c1.01349,0.6955,2.25024,1.0683,3.59857,1.0683
	c0.51245,0,1.04242-0.07196,1.57758-0.17737C16.21655,17.16736,17.50604,18,19,18c2.20605,0,4-1.79443,4-4
	c0-0.93182-0.3335-1.77911-0.86969-2.4599c2.40497-3.38098,2.51831-7.48865,0.16852-9.83844
	c-1.36035-1.35986-3.32129-1.93164-5.51465-1.61816c-2.08496,0.30029-4.14453,1.37744-5.79883,3.03223
	C7.78607,6.315,6.98553,10.81097,8.93591,13.64966l-2.19379,2.19403c-0.375-0.375-1.039-0.37494-1.414,0.00006l-4.24219,4.24268
	c-0.39062,0.39062-0.39062,1.02344,0,1.41406L2.5,22.91455z M19,16c-1.10254,0-2-0.89697-2-2s0.89746-2,2-2s2,0.89697,2,2
	S20.10254,16,19,16z M12.39941,4.52979c1.35156-1.35156,3.00977-2.22754,4.66992-2.4668
	c1.55371-0.22412,2.91113,0.14941,3.81543,1.05273c1.60974,1.60974,1.40918,4.64844-0.35516,7.19098
	C20.05792,10.11066,19.54193,10,19,10c-2.20605,0-4,1.79443-4,4c0,0.00995,0.00287,0.01917,0.00293,0.02911
	c-1.61407,0.28259-3.07751-0.07251-4.01855-1.01398C9.06836,11.09863,9.7168,7.21289,12.39941,4.52979z"/>
</svg>
