<?xml version="1.0" encoding="utf-8"?>
<!-- Generator: Adobe Illustrator 19.1.0, SVG Export Plug-In . SVG Version: 6.00 Build 0)  -->
<!DOCTYPE svg PUBLIC "-//W3C//DTD SVG 1.1//EN" "http://www.w3.org/Graphics/SVG/1.1/DTD/svg11.dtd">
<svg version="1.1" id="Layer_2" xmlns="http://www.w3.org/2000/svg" xmlns:xlink="http://www.w3.org/1999/xlink" x="0px" y="0px"
	 width="24px" height="24px" viewBox="0 0 24 24" enable-background="new 0 0 24 24" xml:space="preserve">
<path d="M22.48297,11.88892c1.4231-3.12842,0.90338-6.53815-1.46539-8.90649c-1.55908-1.55957-3.6084-2.35938-5.77637-2.26758
	c-2.23926,0.10059-4.39844,1.12891-6.24414,2.97461C7.87866,4.80786,7.08038,6.05011,6.58453,7.33234
	c-0.0481,0.08923-0.078,0.18073-0.09698,0.27802c-0.62073,1.77759-0.65204,3.6217-0.00317,5.32764l-5.04297,4.12695
	c-0.43701,0.35693-0.70361,0.88477-0.73193,1.44824c-0.02783,0.56299,0.18457,1.11475,0.5835,1.51367l2.68018,2.68018
	c0.37549,0.37549,0.88623,0.58594,1.41455,0.58594c0.03271,0,0.06592-0.00098,0.09912-0.00244
	c0.56348-0.02832,1.09131-0.29492,1.44824-0.73145l4.12744-5.04443c1.71967,0.65106,3.62317,0.63257,5.44202-0.0246
	c0.03711-0.01196,0.07281-0.02197,0.10858-0.03833c0.06433-0.02417,0.12946-0.04254,0.19354-0.06836
	C17.5368,18.35876,18.69067,19,20,19c2.20557,0,4-1.79443,4-4C24,13.737,23.40002,12.6225,22.48297,11.88892z M10.41113,5.10352
	c1.48633-1.48633,3.1875-2.31299,4.91943-2.39062c1.59668-0.07129,3.11572,0.52686,4.27295,1.68359
	c1.78546,1.78503,2.15607,4.28687,1.06409,6.67102C20.44934,11.03052,20.22864,11,20,11c-2.18536,0-3.96155,1.76324-3.99402,3.94104
	L8.64465,7.57971C9.05054,6.72339,9.62921,5.88544,10.41113,5.10352z M11.22314,15.40234
	c-0.42041-0.21436-0.92969-0.10596-1.22754,0.25781l-4.6084,5.63281l-2.67969-2.68018l5.63232-4.6084
	c0.36377-0.29736,0.47119-0.80859,0.25781-1.22705c-0.48291-0.94977-0.66467-1.96625-0.57697-2.99347l6.19055,6.19055
	C13.17725,16.06177,12.16046,15.87854,11.22314,15.40234z M20,17c-1.10303,0-2-0.89697-2-2s0.89697-2,2-2s2,0.89697,2,2
	S21.10303,17,20,17z"/>
</svg>
