<?xml version="1.0" encoding="utf-8"?>
<!-- Generator: Adobe Illustrator 19.1.0, SVG Export Plug-In . SVG Version: 6.00 Build 0)  -->
<!DOCTYPE svg PUBLIC "-//W3C//DTD SVG 1.1//EN" "http://www.w3.org/Graphics/SVG/1.1/DTD/svg11.dtd">
<svg version="1.1" id="Layer_2" xmlns="http://www.w3.org/2000/svg" xmlns:xlink="http://www.w3.org/1999/xlink" x="0px" y="0px"
	 width="24px" height="24px" viewBox="0 0 24 24" enable-background="new 0 0 24 24" xml:space="preserve">
<path d="M7.51709,22.87598c0.28857,0.1582,0.63574,0.16602,0.93018,0.01855L10,22.11816l1.55273,0.77637
	c0.28125,0.14062,0.61328,0.14062,0.89453,0L14,22.11816l1.55273,0.77637C15.69385,22.96484,15.84668,23,16,23
	c0.1665,0,0.33252-0.0415,0.48291-0.12402c0.2876-0.15918,0.47949-0.44922,0.51221-0.77637L17.90509,13H19c0.55225,0,1-0.44775,1-1
	s-0.44775-1-1-1H5c-0.55225,0-1,0.44775-1,1s0.44775,1,1,1h1.09491l0.90997,9.09961
	C7.0376,22.42676,7.22949,22.7168,7.51709,22.87598z M15.89496,13l-0.74554,7.45654l-0.70215-0.35107
	c-0.28125-0.14062-0.61328-0.14062-0.89453,0L12,20.88184l-1.55273-0.77637c-0.28125-0.14062-0.61328-0.14062-0.89453,0
	l-0.70215,0.35107L8.10504,13H15.89496z"/>
<path d="M23,0H1C0.44775,0,0,0.44775,0,1v15c0,0.55225,0.44775,1,1,1h3c0.55225,0,1-0.44775,1-1s-0.44775-1-1-1H2V2h20v13h-2
	c-0.55225,0-1,0.44775-1,1s0.44775,1,1,1h3c0.55225,0,1-0.44775,1-1V1C24,0.44775,23.55225,0,23,0z"/>
</svg>
