<?xml version="1.0" encoding="utf-8"?>
<!-- Generator: Adobe Illustrator 19.1.0, SVG Export Plug-In . SVG Version: 6.00 Build 0)  -->
<!DOCTYPE svg PUBLIC "-//W3C//DTD SVG 1.1//EN" "http://www.w3.org/Graphics/SVG/1.1/DTD/svg11.dtd">
<svg version="1.1" id="Layer_2" xmlns="http://www.w3.org/2000/svg" xmlns:xlink="http://www.w3.org/1999/xlink" x="0px" y="0px"
	 width="24px" height="24px" viewBox="0 0 24 24" enable-background="new 0 0 24 24" xml:space="preserve">
<path d="M23,2H1C0.44775,2,0,2.44775,0,3v18c0,0.55225,0.44775,1,1,1h22c0.55225,0,1-0.44775,1-1V3C24,2.44775,23.55225,2,23,2z
	 M22,15h-2V9h2V15z M12,14c-1.10303,0-2-0.89697-2-2s0.89697-2,2-2s2,0.89697,2,2S13.10303,14,12,14z M2,9h2v6H2V9z M2,17h3
	c0.55225,0,1-0.44775,1-1V8c0-0.55225-0.44775-1-1-1H2V4h9v4.14203C9.27972,8.58929,8,10.14172,8,12s1.27972,3.41071,3,3.85797V20H2
	V17z M13,20v-4.14203c1.72028-0.44727,3-1.99969,3-3.85797s-1.27972-3.41071-3-3.85797V4h9v3h-3c-0.55225,0-1,0.44775-1,1v8
	c0,0.55225,0.44775,1,1,1h3v3H13z"/>
</svg>
