<?xml version="1.0" encoding="utf-8"?>
<!-- Generator: Adobe Illustrator 19.1.0, SVG Export Plug-In . SVG Version: 6.00 Build 0)  -->
<!DOCTYPE svg PUBLIC "-//W3C//DTD SVG 1.1//EN" "http://www.w3.org/Graphics/SVG/1.1/DTD/svg11.dtd">
<svg version="1.1" id="Layer_2" xmlns="http://www.w3.org/2000/svg" xmlns:xlink="http://www.w3.org/1999/xlink" x="0px" y="0px"
	 width="24px" height="24px" viewBox="0 0 24 24" enable-background="new 0 0 24 24" xml:space="preserve">
<path d="M23,13h-6V4c0-0.55225-0.44727-1-1-1H8C7.44727,3,7,3.44775,7,4v6H1c-0.55273,0-1,0.44775-1,1v9c0,0.55225,0.44727,1,1,1h7
	h8h7c0.55273,0,1-0.44775,1-1v-6C24,13.44775,23.55273,13,23,13z M2,12h5v7H2V12z M9,5h6v14H9V5z M22,19h-5v-4h5V19z"/>
</svg>
