<?xml version="1.0" encoding="utf-8"?>
<!-- Generator: Adobe Illustrator 19.1.0, SVG Export Plug-In . SVG Version: 6.00 Build 0)  -->
<!DOCTYPE svg PUBLIC "-//W3C//DTD SVG 1.1//EN" "http://www.w3.org/Graphics/SVG/1.1/DTD/svg11.dtd">
<svg version="1.1" id="Layer_2" xmlns="http://www.w3.org/2000/svg" xmlns:xlink="http://www.w3.org/1999/xlink" x="0px" y="0px"
	 width="24px" height="24px" viewBox="0 0 24 24" enable-background="new 0 0 24 24" xml:space="preserve">
<path d="M16,5c0-1.6543-1.3457-3-3-3s-3,1.3457-3,3s1.3457,3,3,3S16,6.6543,16,5z M12,5c0-0.55127,0.44824-1,1-1s1,0.44873,1,1
	s-0.44824,1-1,1S12,5.55127,12,5z"/>
<path d="M11.52539,15.61475C11.38281,15.70264,11,15.8833,10.55273,15.6582l-2.35938-1.17969
	c-0.86035-0.43018-1.91309-0.18555-2.49414,0.58887L3.2002,18.3999c-0.33203,0.44189-0.24219,1.06885,0.2002,1.3999
	C3.58008,19.93506,3.79004,20,3.99902,20c0.30469,0,0.60449-0.13818,0.80078-0.3999l2.49902-3.33252l2.35938,1.17969
	c0.93555,0.46777,2.02832,0.42041,2.91895-0.13135C13.46777,16.76514,14,15.81152,14,14.76416V11h4v3c0,0.55225,0.44727,1,1,1
	s1-0.44775,1-1v-3c0-1.10303-0.89746-2-2-2H6V6c0-0.55225-0.44727-1-1-1S4,5.44775,4,6v3c0,1.10303,0.89746,2,2,2h6v3.76416
	C12,15.26709,11.66797,15.52637,11.52539,15.61475z"/>
<path d="M8,20v3c0,0.55225,0.44727,1,1,1s1-0.44775,1-1v-3c0-0.55225-0.44727-1-1-1S8,19.44775,8,20z"/>
<path d="M9,5V1c0-0.55225-0.44727-1-1-1S7,0.44775,7,1v4c0,0.55225,0.44727,1,1,1S9,5.55225,9,5z"/>
</svg>
