<?xml version="1.0" encoding="utf-8"?>
<!-- Generator: Adobe Illustrator 19.1.0, SVG Export Plug-In . SVG Version: 6.00 Build 0)  -->
<!DOCTYPE svg PUBLIC "-//W3C//DTD SVG 1.1//EN" "http://www.w3.org/Graphics/SVG/1.1/DTD/svg11.dtd">
<svg version="1.1" id="Layer_2" xmlns="http://www.w3.org/2000/svg" xmlns:xlink="http://www.w3.org/1999/xlink" x="0px" y="0px"
	 width="24px" height="24px" viewBox="0 0 24 24" enable-background="new 0 0 24 24" xml:space="preserve">
<path d="M20,6c0-1.6543-1.3457-3-3-3s-3,1.3457-3,3s1.3457,3,3,3S20,7.6543,20,6z M16,6c0-0.55127,0.44824-1,1-1s1,0.44873,1,1
	s-0.44824,1-1,1S16,6.55127,16,6z"/>
<path d="M23,19h-8v-2.21924c0-0.91943-0.62305-1.71729-1.51562-1.94043l-1.78027-0.44507l1.87714-2.5011l6.76349,5.86169
	C20.53418,17.91943,20.76758,18,21,18c0.2793,0,0.55762-0.1167,0.75586-0.34521c0.36133-0.41699,0.31641-1.04883-0.10059-1.41064
	l-15-13C6.23828,2.88379,5.60742,2.92676,5.24414,3.34521C4.88281,3.76221,4.92773,4.39404,5.34473,4.75586l6.7215,5.82532L9.5,14H7
	c-1.10254,0-2,0.89697-2,2v3H1c-0.55273,0-1,0.44775-1,1s0.44727,1,1,1h22c0.55273,0,1-0.44775,1-1S23.55273,19,23,19z M7,16
	h2.87695L13,16.78076V19H7V16z"/>
</svg>
