<?xml version="1.0" encoding="utf-8"?>
<!-- Generator: Adobe Illustrator 19.1.0, SVG Export Plug-In . SVG Version: 6.00 Build 0)  -->
<!DOCTYPE svg PUBLIC "-//W3C//DTD SVG 1.1//EN" "http://www.w3.org/Graphics/SVG/1.1/DTD/svg11.dtd">
<svg version="1.1" id="Layer_2" xmlns="http://www.w3.org/2000/svg" xmlns:xlink="http://www.w3.org/1999/xlink" x="0px" y="0px"
	 width="24px" height="24px" viewBox="0 0 24 24" enable-background="new 0 0 24 24" xml:space="preserve">
<path d="M19.98535,1.18652c-1.16992-1.16992-3.07275-1.1709-4.24268,0L4.4292,12.5c-1.00293,1.00195-1.01074,2.07275-1.01709,2.854
	c-0.00537,0.69238-0.02344,1.01465-0.39746,1.38867l-2.12061,2.12109c-0.37842,0.37744-0.58643,0.87988-0.58643,1.41455
	c0,0.53418,0.20801,1.03613,0.58594,1.41406l1.41406,1.41406c0.37793,0.37793,0.87988,0.58594,1.41406,0.58594
	c0.53467,0,1.03711-0.20801,1.41406-0.58545l2.12158-2.12158c0.38184-0.38135,0.7334-0.40381,1.42969-0.41455
	c0.77734-0.01172,1.84131-0.02832,2.81299-1l3.71014-3.71295C15.93158,16.56219,16.91455,17,18,17c2.20557,0,4-1.79443,4-4
	c0-1.08484-0.43744-2.06726-1.14105-2.78851l1.95453-1.95416c1.16992-1.16943,1.16992-3.07324,0-4.24268L19.98535,1.18652z
	 M8.65625,18.57129c-0.77734,0.01172-1.84131,0.02832-2.81299,1l-2.12158,2.12109l-1.41357-1.41406l2.12061-2.12158
	c0.96924-0.96924,0.97754-2.02002,0.9834-2.78711c0.00134-0.17267,0.00372-0.32367,0.01251-0.46014l3.64771,3.64771
	C8.94653,18.5647,8.81256,18.56885,8.65625,18.57129z M18,15c-1.10303,0-2-0.89697-2-2s0.89697-2,2-2s2,0.89697,2,2
	S19.10303,15,18,15z M21.39941,6.84326l-2.32294,2.32257C18.73175,9.06866,18.37537,9,18,9c-2.20557,0-4,1.79443-4,4
	c0,0.37463,0.06842,0.73029,0.16516,1.0744l-3.37244,3.37506l-4.24243-4.24243L17.15674,2.60059
	c0.38916-0.38916,1.02441-0.39014,1.41455,0l2.82812,2.82812C21.78906,5.81885,21.78906,6.45312,21.39941,6.84326z"/>
</svg>
