<?xml version="1.0" encoding="utf-8"?>
<!-- Generator: Adobe Illustrator 19.1.0, SVG Export Plug-In . SVG Version: 6.00 Build 0)  -->
<!DOCTYPE svg PUBLIC "-//W3C//DTD SVG 1.1//EN" "http://www.w3.org/Graphics/SVG/1.1/DTD/svg11.dtd">
<svg version="1.1" id="Layer_2" xmlns="http://www.w3.org/2000/svg" xmlns:xlink="http://www.w3.org/1999/xlink" x="0px" y="0px"
	 width="24px" height="24px" viewBox="0 0 24 24" enable-background="new 0 0 24 24" xml:space="preserve">
<path d="M10,15h1.58594l-1.29297,1.29297c-0.39062,0.39062-0.39062,1.02344,0,1.41406C10.48828,17.90234,10.74414,18,11,18
	s0.51172-0.09766,0.70703-0.29297l3-3c0.28613-0.28613,0.37207-0.71582,0.2168-1.08984C14.76953,13.24365,14.4043,13,14,13h-1.58594
	l1.29297-1.29297c0.39062-0.39062,0.39062-1.02344,0-1.41406s-1.02344-0.39062-1.41406,0l-3,3
	c-0.28613,0.28613-0.37207,0.71582-0.2168,1.08984C9.23047,14.75635,9.5957,15,10,15z"/>
<path d="M4,24h16c1.6543,0,3-1.3457,3-3V10.87061c0-2.35449-1.56055-3.52686-2.7002-4.38281
	C20.06091,6.30841,19.86005,6.15039,19.68073,6H20c0.55273,0,1-0.44775,1-1V1c0-0.55225-0.44727-1-1-1H4C3.44727,0,3,0.44775,3,1v4
	c0,0.55225,0.44727,1,1,1h0.31927C4.13995,6.15039,3.93909,6.30841,3.7002,6.48779C2.56055,7.34375,1,8.51611,1,10.87061V21
	C1,22.6543,2.3457,24,4,24z M19,4h-1h-1V2h2V4z M13,4V2h2v2H13z M9,4V2h2v2H9z M5,2h2v2H6H5V2z M3,10.87061
	c0-1.35547,0.88086-2.01709,1.90137-2.7832C5.64355,7.52979,6.45996,6.9165,6.81641,6h10.36719
	c0.35645,0.9165,1.17285,1.52979,1.91504,2.0874C20.11914,8.85352,21,9.51514,21,10.87061V21c0,0.55127-0.44824,1-1,1H4
	c-0.55176,0-1-0.44873-1-1V10.87061z"/>
</svg>
