<?xml version="1.0" encoding="utf-8"?>
<!-- Generator: Adobe Illustrator 19.1.0, SVG Export Plug-In . SVG Version: 6.00 Build 0)  -->
<!DOCTYPE svg PUBLIC "-//W3C//DTD SVG 1.1//EN" "http://www.w3.org/Graphics/SVG/1.1/DTD/svg11.dtd">
<svg version="1.1" id="Layer_2" xmlns="http://www.w3.org/2000/svg" xmlns:xlink="http://www.w3.org/1999/xlink" x="0px" y="0px"
	 width="24px" height="24px" viewBox="0 0 24 24" enable-background="new 0 0 24 24" xml:space="preserve">
<path d="M22.8208,16.23438c-0.74365-0.56836-1.6875-0.75439-2.59082-0.51562l-6.39062,1.49072L5.55566,2.4834
	C5.16943,1.79688,4.53955,1.30225,3.78125,1.09033C3.02344,0.87842,2.22754,0.97461,1.5415,1.35986
	C0.85449,1.74609,0.35986,2.37695,0.14795,3.13623C-0.06396,3.896,0.0332,4.69238,0.4209,5.37891l9.38818,16.60498
	C10.1626,22.61084,10.82959,23,11.5498,23H22c1.10303,0,2-0.89697,2-2v-2.38135C24,17.67578,23.57031,16.80664,22.8208,16.23438z
	 M22,21H11.55029L2.16211,4.39453c-0.12451-0.2207-0.15576-0.47656-0.08789-0.7207c0.06836-0.24414,0.22705-0.44678,0.44775-0.5708
	c0.14404-0.08105,0.30273-0.12207,0.46338-0.12207c0.08594,0,0.17236,0.01172,0.25684,0.03516
	C3.48584,3.08447,3.68848,3.24316,3.8125,3.46387l8.65137,15.38037c0.21777,0.38721,0.66553,0.58496,1.09863,0.4834l7.13818-1.66504
	c0.01221-0.00244,0.02441-0.00586,0.03613-0.00879c0.30225-0.08301,0.61963-0.021,0.87012,0.16992
	C21.85693,18.01465,22,18.3042,22,18.61865V21z"/>
<path d="M22,10.3125V8.5C22,7.02783,20.14941,6,17.5,6S13,7.02783,13,8.5v1.8125c0,1.47217,1.85059,2.5,4.5,2.5
	S22,11.78467,22,10.3125z M17.5,8c1.24023,0,2.02539,0.29395,2.35986,0.5C19.52539,8.70605,18.74023,9,17.5,9
	s-2.02539-0.29395-2.35986-0.5C15.47461,8.29395,16.25977,8,17.5,8z"/>
</svg>
