<?xml version="1.0" encoding="utf-8"?>
<!-- Generator: Adobe Illustrator 19.1.0, SVG Export Plug-In . SVG Version: 6.00 Build 0)  -->
<!DOCTYPE svg PUBLIC "-//W3C//DTD SVG 1.1//EN" "http://www.w3.org/Graphics/SVG/1.1/DTD/svg11.dtd">
<svg version="1.1" id="Layer_2" xmlns="http://www.w3.org/2000/svg" xmlns:xlink="http://www.w3.org/1999/xlink" x="0px" y="0px"
	 width="24px" height="24px" viewBox="0 0 24 24" enable-background="new 0 0 24 24" xml:space="preserve">
<path d="M11.77539,0.00195C5.17285,0.12305,0,5.39307,0,12v6c0,3.30859,2.69141,6,6,6h9c4.96289,0,9-4.0376,9-9v-3
	c0-3.24707-1.27637-6.28809-3.59277-8.56299S15.04883-0.05127,11.77539,0.00195z M2.19501,10h11.03058
	c0.3252,0,0.62109,0.15137,0.81152,0.41553c0.18945,0.26367,0.23926,0.5918,0.13672,0.90088l-1.66602,4.99951
	C12.37109,16.7251,11.98926,17,11.55859,17H2v-5C2,11.31396,2.0672,10.64526,2.19501,10z M22,15c0,3.85986-3.14062,7-7,7H6
	c-1.8587,0-3.41083-1.27972-3.85797-3h9.41656c1.29297,0,2.43652-0.82422,2.8457-2.05176l1.66602-4.99902
	c0.30957-0.92529,0.15918-1.91064-0.41113-2.70264S14.20215,8,13.22559,8H2.82013c1.50024-3.49194,4.91638-5.92352,8.99237-5.99805
	c2.70117-0.05566,5.2627,0.96729,7.19336,2.8623C20.93652,6.76025,22,9.29443,22,12V15z"/>
</svg>
