<?xml version="1.0" encoding="utf-8"?>
<!-- Generator: Adobe Illustrator 19.1.0, SVG Export Plug-In . SVG Version: 6.00 Build 0)  -->
<!DOCTYPE svg PUBLIC "-//W3C//DTD SVG 1.1//EN" "http://www.w3.org/Graphics/SVG/1.1/DTD/svg11.dtd">
<svg version="1.1" id="Layer_1" xmlns="http://www.w3.org/2000/svg" xmlns:xlink="http://www.w3.org/1999/xlink" x="0px" y="0px"
	 width="32px" height="32px" viewBox="0 0 32 32" enable-background="new 0 0 32 32" xml:space="preserve">
<path fill="#444444" d="M32,6.07561c-1.17735,0.52214-2.44259,0.87512-3.77071,1.03378
	c1.35555-0.81248,2.39653-2.09911,2.88667-3.63218c-1.26845,0.75237-2.67349,1.29874-4.16896,1.5932
	c-1.19757-1.276-2.90382-2.07328-4.79203-2.07328c-3.6259,0-6.56538,2.93949-6.56538,6.56504
	c0,0.51461,0.05807,1.0156,0.16997,1.49615C10.30329,10.78454,5.46576,8.17083,2.2277,4.19882
	C1.66258,5.16848,1.33887,6.29621,1.33887,7.49939c0,2.27766,1.15906,4.28716,2.92062,5.46451
	C3.1833,12.92984,2.171,12.63447,1.28582,12.14272c-0.00046,0.02744-0.00056,0.05487-0.00056,0.08253
	c0,3.18096,2.26302,5.83445,5.2664,6.43754C6.00071,18.81275,5.42072,18.893,4.82199,18.893
	c-0.42305,0-0.83433-0.04115-1.2352-0.11774c0.83546,2.60823,3.26,4.50639,6.13286,4.55943
	c-2.24691,1.76077-5.07769,2.81032-8.15355,2.81032c-0.52993,0-1.05253-0.03109-1.5661-0.09167
	c2.90543,1.86272,6.35632,2.94954,10.06382,2.94954c12.07582,0,18.67926-10.00381,18.67926-18.67944
	c0-0.28463-0.00639-0.56776-0.01897-0.8493C30.00674,8.54849,31.11985,7.39218,32,6.07561z"/>
</svg>
