<?xml version="1.0" encoding="utf-8"?>
<!-- Generator: Adobe Illustrator 19.1.0, SVG Export Plug-In . SVG Version: 6.00 Build 0)  -->
<!DOCTYPE svg PUBLIC "-//W3C//DTD SVG 1.1//EN" "http://www.w3.org/Graphics/SVG/1.1/DTD/svg11.dtd">
<svg version="1.1" id="Layer_1" xmlns="http://www.w3.org/2000/svg" xmlns:xlink="http://www.w3.org/1999/xlink" x="0px" y="0px"
	 width="32px" height="32px" viewBox="0 0 32 32" enable-background="new 0 0 32 32" xml:space="preserve">
<path fill="#444444" d="M16,0C7.16341,0,0,7.16341,0,16c0,8.83651,7.16341,16,16,16s16-7.16349,16-16C32,7.16341,24.83659,0,16,0z
	 M15.99992,24c-4.41113,0-7.99984-3.58903-7.99984-8.00033C8.00008,11.58862,11.58879,8,15.99992,8c4.41105,0,8,3.58862,8,7.99967
	C23.99992,20.41097,20.41097,24,15.99992,24z"/>
<path fill="#444444" d="M20.85547,15.63696c0-0.88924-0.3195-1.50464-0.59302-1.98364
	c-0.3645-0.59277-0.70654-1.09424-0.70654-1.68701c0-0.66105,0.50138-1.27653,1.20785-1.27653
	c0.0319,0,0.06217,0.00391,0.09318,0.00586c-1.27962-1.17253-2.98454-1.88843-4.85701-1.88843
	c-2.51286,0-4.72347,1.28939-6.00952,3.24186c0.16886,0.00537,0.32788,0.00871,0.46289,0.00871
	c0.75212,0,1.91691-0.09147,1.91691-0.09147c0.38761-0.02271,0.43335,0.54696,0.04606,0.59277c0,0-0.38981,0.04557-0.82316,0.06836
	l2.61914,7.79102l1.57422-4.7207l-1.12052-3.07031c-0.38753-0.02279-0.75448-0.06836-0.75448-0.06836
	c-0.3877-0.02295-0.3422-0.61548,0.04565-0.59277c0,0,1.18758,0.09147,1.89429,0.09147c0.75212,0,1.91707-0.09147,1.91707-0.09147
	c0.38778-0.02271,0.43343,0.54696,0.0459,0.59277c0,0-0.39022,0.04557-0.82316,0.06836l2.59937,7.73169l0.71761-2.39697
	C20.61865,16.96688,20.85547,16.25244,20.85547,15.63696z"/>
<path fill="#444444" d="M8.80745,15.99967c0,2.84692,1.6543,5.30754,4.05379,6.47323l-3.43099-9.40039
	C9.03109,13.96696,8.80745,14.95687,8.80745,15.99967z"/>
<path fill="#444444" d="M16.12622,16.62891l-2.15828,6.27083c0.64453,0.18953,1.32601,0.29305,2.03198,0.29305
	c0.83757,0,1.64095-0.14461,2.38851-0.40779c-0.01904-0.03076-0.03695-0.06356-0.05151-0.09912L16.12622,16.62891z"/>
<path fill="#444444" d="M19.61605,22.21663c2.13826-1.24675,3.57633-3.5634,3.57633-6.21696
	c0-1.25049-0.3195-2.42611-0.88094-3.45052c0.03093,0.229,0.04842,0.47477,0.04842,0.73958
	c0,0.72957-0.13672,1.55005-0.54696,2.57617L19.61605,22.21663z"/>
</svg>
