<?xml version="1.0" encoding="utf-8"?>
<!-- Generator: Adobe Illustrator 19.1.0, SVG Export Plug-In . SVG Version: 6.00 Build 0)  -->
<!DOCTYPE svg PUBLIC "-//W3C//DTD SVG 1.1//EN" "http://www.w3.org/Graphics/SVG/1.1/DTD/svg11.dtd">
<svg version="1.1" id="Layer_1" xmlns="http://www.w3.org/2000/svg" xmlns:xlink="http://www.w3.org/1999/xlink" x="0px" y="0px"
	 width="32px" height="32px" viewBox="0 0 32 32" enable-background="new 0 0 32 32" xml:space="preserve">
<path fill="#444444" d="M31.9989,12.45281c0-1.22466-0.5272-8.50566-0.5272-8.50566c0-1.15417-0.42779-1.9277-0.96491-2.45493
	C29.98156,0.9571,29.208,0.52733,28.05395,0.52733c0,0-7.28111-0.52723-8.50774-0.52723c-1.75957,0-2.93344-0.05081-5.13839,2.15615
	C13.33559,3.22649,1.45113,15.11283,0.94921,15.61276C0.44914,16.11283-1.24211,18.08541,1.64259,20.97l9.38643,9.38841
	c2.88657,2.88657,4.85925,1.19144,5.3592,0.69151c0.49994-0.50016,12.38627-12.38649,13.45651-13.45676
	C32.05169,15.38623,31.9989,14.21436,31.9989,12.45281z M19.297,16.37949l4.07231,1.93401l-1.49783,2.68004l-3.7666-2.45966
	c-0.08732-0.05763-0.18651-0.08732-0.2857-0.08732c-0.08732,0-0.17441,0.02178-0.25383,0.0673
	c-0.16869,0.09721-0.2659,0.28176-0.25205,0.47597l0.31144,4.45522h-3.01491c0,0-0.00804,0-0.01385,0
	c0.01176-0.03782,0.24786-4.4572,0.24786-4.4572c0.01387-0.19421-0.08324-0.37874-0.25194-0.47597
	c-0.17068-0.09721-0.37885-0.0893-0.53941,0.0198l-3.66166,2.48738L8.7563,18.41883l4.10794-2.03934
	c0.17651-0.08313,0.28955-0.26185,0.28955-0.45813c0-0.19642-0.11304-0.37491-0.28955-0.45815l-4.07418-1.9341l1.49752-2.67961
	l3.76493,2.46153c0.16056,0.10712,0.36874,0.1189,0.53941,0.0198c0.16869-0.09721,0.26581-0.28164,0.25194-0.47608L14.5344,8.39964
	h3.01689l-0.23797,4.45511c-0.01385,0.19444,0.08336,0.37887,0.25205,0.47608c0.17047,0.0991,0.38095,0.08732,0.53953-0.0198
	l3.66168-2.48747l1.63441,2.60065L19.297,15.46321c-0.17662,0.08324-0.28966,0.26173-0.28966,0.45815
	C19.00734,16.11765,19.12038,16.29636,19.297,16.37949z M26.26292,7.8357c-1.06651,0-1.92781-0.86329-1.92781-1.92761
	c0-1.06444,0.86131-1.92574,1.92781-1.92574c1.06036,0,1.92168,0.8613,1.92168,1.92574
	C28.1846,6.97241,27.32328,7.8357,26.26292,7.8357z"/>
</svg>
