<?xml version="1.0" encoding="utf-8"?>
<!-- Generator: Adobe Illustrator 19.1.0, SVG Export Plug-In . SVG Version: 6.00 Build 0)  -->
<!DOCTYPE svg PUBLIC "-//W3C//DTD SVG 1.1//EN" "http://www.w3.org/Graphics/SVG/1.1/DTD/svg11.dtd">
<svg version="1.1" id="Layer_1" xmlns="http://www.w3.org/2000/svg" xmlns:xlink="http://www.w3.org/1999/xlink" x="0px" y="0px"
	 width="32px" height="32px" viewBox="0 0 32 32" enable-background="new 0 0 32 32" xml:space="preserve">
<path fill="#444444" d="M15.71175,8.64282c-0.08602-0.05908-0.17562-0.08927-0.26481-0.08927
	c-1.4821,0-2.31462,1.94588-2.66537,3.13973c0.39543-0.12248,0.82308-0.25488,1.26058-0.39038
	C14.34155,9.73779,15.05037,8.95402,15.71175,8.64282z"/>
<path fill="#444444" d="M14.67432,11.1071c0.54688-0.16935,1.09245-0.33822,1.59473-0.49373
	c0.00024-0.02921,0.00049-0.05802,0.00049-0.08952c0-0.61572-0.08252-1.0721-0.20939-1.39014
	C15.55688,9.34969,14.98136,9.92212,14.67432,11.1071z"/>
<path fill="#444444" d="M11.92839,16.41862c0,1.77531,1.7714,1.82349,1.7714,2.90397c0,0.26107-0.18481,0.61857-0.63867,0.61857
	c-0.69491,0-1.51831-0.70695-1.51831-0.70695l-0.41943,1.38574c0,0,0.80103,0.97493,2.36751,0.97493
	c1.30542,0,2.27344-0.98291,2.27344-2.50928c0-1.94002-2.15902-2.25732-2.15902-3.08561c0-0.15177,0.04826-0.75431,1.00822-0.75431
	c0.6547,0,1.18896,0.28524,1.18896,0.28524l0.60962-1.81356c0,0-0.41211-0.23893-1.24626-0.23893
	C13.0009,13.47843,11.92839,14.9244,11.92839,16.41862z"/>
<path fill="#444444" d="M16.62622,9.03263c0.11369,0.32568,0.18449,0.73649,0.18449,1.24674
	c0,0.05851-0.00024,0.11206-0.00041,0.16642c0.28239-0.0874,0.54289-0.16797,0.77197-0.23885
	C17.38672,9.60929,17.08268,9.09001,16.62622,9.03263z"/>
<path fill="#444444" d="M16,0C7.16341,0,0,7.16341,0,16c0,8.83651,7.16341,16,16,16s16-7.16349,16-16C32,7.16341,24.83659,0,16,0z
	 M18.09049,24l-9.12524-1.70972c0,0,1.17106-9.05648,1.21549-9.37573c0.05868-0.42171,0.07275-0.43579,0.52035-0.57625
	c0.07275-0.02287,0.64242-0.19946,1.44417-0.44792C12.45435,10.57959,13.44019,8,15.50366,8
	c0.26953,0,0.58162,0.14478,0.8335,0.47795c0.02531-0.00138,0.05046-0.00252,0.07495-0.00252
	c0.88574,0,1.38924,0.75448,1.67456,1.57544c0.29142-0.09009,0.46745-0.14445,0.47803-0.14754
	c0.07113-0.02092,0.25423-0.0494,0.34798,0.04443c0.09375,0.09375,0.94783,0.94173,0.94783,0.94173s1.22982,0.09106,1.28801,0.09595
	c0.05811,0.00488,0.12858,0.0494,0.13965,0.12988c0.01099,0.08049,1.74658,11.81502,1.74658,11.81502L18.09049,24z"/>
</svg>
