<?xml version="1.0" encoding="utf-8"?>
<!-- Generator: Adobe Illustrator 19.1.0, SVG Export Plug-In . SVG Version: 6.00 Build 0)  -->
<!DOCTYPE svg PUBLIC "-//W3C//DTD SVG 1.1//EN" "http://www.w3.org/Graphics/SVG/1.1/DTD/svg11.dtd">
<svg version="1.1" id="Layer_1" xmlns="http://www.w3.org/2000/svg" xmlns:xlink="http://www.w3.org/1999/xlink" x="0px" y="0px"
	 width="32px" height="32px" viewBox="0 0 32 32" enable-background="new 0 0 32 32" xml:space="preserve">
<path fill="#444444" d="M18.83862,17.91642h-5.69328c-0.53459,0-0.96761,0.43303-0.96761,0.96224
	c0,0.52393,0.43302,0.96224,0.96761,0.96224h5.69328c0.52921,0,0.96224-0.43831,0.96224-0.96224
	C19.80086,18.34945,19.36784,17.91642,18.83862,17.91642z"/>
<path fill="#444444" d="M13.14534,14.06209h2.80119c0.53459,0,0.96761-0.43831,0.96761-0.96753
	c0-0.5293-0.43303-0.96224-0.96761-0.96224h-2.80119c-0.53459,0-0.96761,0.43294-0.96761,0.96224
	C12.17773,13.62378,12.61076,14.06209,13.14534,14.06209z"/>
<path fill="#444444" d="M28,0H4C1.79085,0,0,1.79085,0,4v24c0,2.20915,1.79085,4,4,4h24c2.20915,0,4-1.79085,4-4V4
	C32,1.79085,30.20915,0,28,0z M23.93856,18.95353C23.92253,21.72803,21.66659,24,18.88672,24h-5.8055
	c-2.77987,0-5.05184-2.27197-5.05184-5.04647v-5.8964C8.02938,10.27726,10.30135,8,13.08122,8h3.53353
	c1.52417,0,3.20215,1.2723,3.90243,2.75838c0.19246,0.41699,0.26945,0.65682,0.45443,1.71606
	c0.11043,0.63224,0.12834,1.10653,0.41162,1.36849c0.40096,0.36353,1.8444,0.20312,2.18107,0.34749
	c0.40633,0.17415,0.40633,0.67887,0.40633,0.67887L23.93856,18.95353z"/>
</svg>
