<?xml version="1.0" encoding="utf-8"?>
<!-- Generator: Adobe Illustrator 19.1.0, SVG Export Plug-In . SVG Version: 6.00 Build 0)  -->
<!DOCTYPE svg PUBLIC "-//W3C//DTD SVG 1.1//EN" "http://www.w3.org/Graphics/SVG/1.1/DTD/svg11.dtd">
<svg version="1.1" id="Layer_1" xmlns="http://www.w3.org/2000/svg" xmlns:xlink="http://www.w3.org/1999/xlink" x="0px" y="0px"
	 width="32px" height="32px" viewBox="0 0 32 32" enable-background="new 0 0 32 32" xml:space="preserve">
<path fill="#444444" d="M12.91448,14.92739c0,0,3.02816-0.22496,3.02816-3.77614c0-3.55126-2.47759-5.28428-5.61587-5.28428H4.5502
	H4.38049H0v19.84575h4.38049H4.5502h5.77656c0,0,6.3041,0.19871,6.3041-5.85762
	C16.63087,19.85509,16.90612,14.92739,12.91448,14.92739z M4.5502,9.39409h5.03325h0.74332c0,0,1.40394,0,1.40394,2.06468
	s-0.82588,2.36405-1.76182,2.36405H4.5502V9.39409z M10.06052,22.18557H4.5502v-5.30362h5.77656
	c0,0,2.09217-0.02748,2.09217,2.72531C12.41894,21.90255,10.88864,22.16254,10.06052,22.18557z"/>
<path fill="#444444" d="M25.03876,10.91613c-7.63172,0-7.62482,7.62486-7.62482,7.62486s-0.52373,7.58641,7.62504,7.58641
	c0,0,6.79079,0.38787,6.79079-5.27744H28.3373c0,0,0.11635,2.13395-3.18196,2.13395c0,0-3.49252,0.23359-3.49252-3.45314h10.28331
	C31.94613,19.53078,33.07117,10.91613,25.03876,10.91613z M28.14303,16.88195h-6.51911c0,0,0.42687-3.05913,3.49247-3.05913
	C28.18203,13.82282,28.14303,16.88195,28.14303,16.88195z"/>
<rect data-color="color-2" x="20.76946" y="7" fill="#444444" width="8.18766" height="2"/>
</svg>
