<?xml version="1.0" encoding="utf-8"?>
<!-- Generator: Adobe Illustrator 19.1.0, SVG Export Plug-In . SVG Version: 6.00 Build 0)  -->
<!DOCTYPE svg PUBLIC "-//W3C//DTD SVG 1.1//EN" "http://www.w3.org/Graphics/SVG/1.1/DTD/svg11.dtd">
<svg version="1.1" id="Layer_1" xmlns="http://www.w3.org/2000/svg" xmlns:xlink="http://www.w3.org/1999/xlink" x="0px" y="0px"
	 width="32px" height="32px" viewBox="0 0 32 32" enable-background="new 0 0 32 32" xml:space="preserve">
<path data-color="color-2" fill="#444444" d="M0.60154,16.40572c-0.0114-0.07911-0.06807-0.13364-0.13791-0.13364
	c-0.0702,0-0.12829,0.0563-0.13791,0.13364L0,19.38171l0.32572,2.91006c0.00927,0.07804,0.06735,0.13435,0.13791,0.13435
	c0.06949,0,0.12615-0.05488,0.13756-0.13364l0.37062-2.91077L0.60154,16.40572z"/>
<path data-color="color-2" fill="#444444" d="M5.7346,13.66065c-0.13364,0-0.24411,0.1094-0.25052,0.24838L5.22464,19.3842l0.25943,3.53833
	c0.00677,0.13827,0.11689,0.24732,0.25052,0.24732c0.13292,0,0.24304-0.1094,0.25088-0.24803v0.00107l0.29329-3.53869
	l-0.29329-5.47517C5.97764,13.77006,5.86752,13.66065,5.7346,13.66065z"/>
<path data-color="color-2" fill="#444444" d="M3.07791,15.56363c-0.10263,0-0.18638,0.08196-0.19457,0.19137l-0.29222,3.62778
	l0.29222,3.50982c0.00784,0.10869,0.09194,0.19065,0.19457,0.19065c0.10156,0,0.18531-0.08196,0.19422-0.19065l0.33213-3.50982
	l-0.33213-3.62849C3.26322,15.6456,3.17947,15.56363,3.07791,15.56363z"/>
<path data-color="color-2" fill="#444444" d="M8.43441,23.16949c0.16571,0,0.30041-0.13363,0.30719-0.30469l0.25444-3.47882
	l-0.25409-7.28941c-0.00677-0.17105-0.14148-0.30469-0.30719-0.30469c-0.16713,0-0.3022,0.13399-0.30754,0.30505l-0.22558,7.2887
	l0.22558,3.48024C8.13257,23.0355,8.26763,23.16949,8.43441,23.16949z"/>
<path data-color="color-2" fill="#444444" d="M13.9616,23.18589c0.22807,0,0.41623-0.18781,0.42051-0.41873v0.00249v-0.00249
	l0.17747-3.37904l-0.17747-8.41873c-0.00392-0.23057-0.19244-0.41873-0.42051-0.41873c-0.22843,0-0.41694,0.1878-0.42051,0.41908
	l-0.15858,8.41552c0,0.00534,0.15858,3.38403,0.15858,3.38403C13.54466,22.99808,13.73353,23.18589,13.9616,23.18589z"/>
<path data-color="color-2" fill="#444444" d="M11.17698,23.1727c0.19849,0,0.3585-0.15929,0.36385-0.36242v0.00249l0.21596-3.42608
	l-0.21631-7.34215c-0.00535-0.20313-0.16535-0.36207-0.36385-0.36207c-0.19992,0-0.35993,0.15894-0.3642,0.36207l-0.19208,7.34251
	l0.19244,3.42536C10.81705,23.01341,10.97706,23.1727,11.17698,23.1727z"/>
<path fill="#444444" d="M27.92463,15.04299c-0.55842,0-1.09118,0.11297-1.57655,0.31645
	c-0.32429-3.67339-3.4047-6.55495-7.16219-6.55495c-0.91942,0-1.81567,0.18103-2.60715,0.48715
	c-0.30754,0.11903-0.38951,0.24161-0.39236,0.47931v12.93599c0.00321,0.24945,0.19671,0.45721,0.44011,0.4818
	c0.01033,0.00107,11.22509,0.00677,11.29778,0.00677c2.25079,0,4.07573-1.82494,4.07573-4.07608
	S30.17542,15.04299,27.92463,15.04299z"/>
</svg>
