<?xml version="1.0" encoding="utf-8"?>
<!-- Generator: Adobe Illustrator 19.1.0, SVG Export Plug-In . SVG Version: 6.00 Build 0)  -->
<!DOCTYPE svg PUBLIC "-//W3C//DTD SVG 1.1//EN" "http://www.w3.org/Graphics/SVG/1.1/DTD/svg11.dtd">
<svg version="1.1" id="Layer_1" xmlns="http://www.w3.org/2000/svg" xmlns:xlink="http://www.w3.org/1999/xlink" x="0px" y="0px"
	 width="32px" height="32px" viewBox="0 0 32 32" enable-background="new 0 0 32 32" xml:space="preserve">
<polygon fill="#444444" points="11.25439,14.2382 15.99992,17.16854 20.74561,14.2382 15.99992,11.30794 "/>
<path fill="#444444" d="M28,0H4C1.79085,0,0,1.79085,0,4v24c0,2.20915,1.79085,4,4,4h24c2.20915,0,4-1.79085,4-4V4
	C32,1.79085,30.20915,0,28,0z M20.72616,20.61255l-4.71647,2.82829l-4.71647-2.82829v-1.03451l1.41341,0.92277l3.30306-2.74089
	l3.30306,2.74089l1.41341-0.92277V20.61255z M24,16.84448l-4.70662,3.073l-3.29346-2.74894l-3.29329,2.74894L8,16.84448
	l3.25439-2.60628L8,11.63216l4.70662-3.07308l3.29329,2.74886l3.29346-2.74886L24,11.63216l-3.25439,2.60604L24,16.84448z"/>
</svg>
