<?xml version="1.0" encoding="utf-8"?>
<!-- Generator: Adobe Illustrator 19.1.0, SVG Export Plug-In . SVG Version: 6.00 Build 0)  -->
<!DOCTYPE svg PUBLIC "-//W3C//DTD SVG 1.1//EN" "http://www.w3.org/Graphics/SVG/1.1/DTD/svg11.dtd">
<svg version="1.1" id="Layer_1" xmlns="http://www.w3.org/2000/svg" xmlns:xlink="http://www.w3.org/1999/xlink" x="0px" y="0px"
	 width="32px" height="32px" viewBox="0 0 32 32" enable-background="new 0 0 32 32" xml:space="preserve">
<path fill="#444444" d="M16,0C7.16341,0,0,7.16341,0,16c0,8.83651,7.16341,16,16,16s16-7.16349,16-16C32,7.16341,24.83659,0,16,0z
	 M9.64819,22.22485c-0.26245,0-0.46289-0.23462-0.42179-0.49349l2.07039-13.13078C11.35164,8.25488,11.6495,8,12.00008,8h4.97233
	c1.71322,0,3.05241,0.36198,3.79329,1.20638c0.67318,0.76701,0.86043,1.61271,0.67448,2.85864c0,0-0.03141,0.19165-0.05086,0.29118
	c-0.65552,3.36719-2.89933,4.53117-5.76497,4.53117h-1.45874c-0.3501,0-0.64575,0.25488-0.7006,0.60059l0.02384-0.15316
	l-0.77091,4.89005H9.64819z M22.66667,15.59196c-0.57357,2.94531-2.53646,3.9637-5.04321,3.9637h-0.38721
	c-0.30631,0-0.56697,0.22298-0.61475,0.52531l-0.03141,0.17082l-0.48771,3.09098l-0.02523,0.13184
	C16.02938,23.77694,15.76864,24,15.4624,24H13.3405l0.97559-6.2277h1.30827c3.60661,0,5.88005-1.75464,6.59285-5.06966
	C22.78638,13.41895,22.89648,14.41032,22.66667,15.59196z"/>
</svg>
