<?xml version="1.0" encoding="utf-8"?>
<!-- Generator: Adobe Illustrator 19.1.0, SVG Export Plug-In . SVG Version: 6.00 Build 0)  -->
<!DOCTYPE svg PUBLIC "-//W3C//DTD SVG 1.1//EN" "http://www.w3.org/Graphics/SVG/1.1/DTD/svg11.dtd">
<svg version="1.1" id="Layer_1" xmlns="http://www.w3.org/2000/svg" xmlns:xlink="http://www.w3.org/1999/xlink" x="0px" y="0px"
	 width="32px" height="32px" viewBox="0 0 32 32" enable-background="new 0 0 32 32" xml:space="preserve">
<circle fill="#444444" cx="21.13143" cy="10.95447" r="0.96334"/>
<path fill="#444444" d="M17.64852,15.73161l2.052-1.01953l-0.81722-1.30029l-1.83089,1.24373
	c-0.07926,0.05355-0.18449,0.05941-0.26969,0.00985c-0.08439-0.04858-0.13297-0.14079-0.12606-0.23804l0.11898-2.22754h-1.50846
	l0.15479,2.22754c0.00692,0.09725-0.04167,0.18945-0.12598,0.23804c-0.08537,0.04956-0.18945,0.0437-0.26969-0.00985
	l-1.88249-1.23079l-0.74878,1.33984l2.03711,0.96704c0.08822,0.04158,0.14478,0.13086,0.14478,0.22908
	c0,0.09814-0.05656,0.1875-0.14478,0.229l-2.05396,1.01969l0.81722,1.30013l1.83089-1.24373
	c0.08024-0.05452,0.18433-0.05851,0.26969-0.00985c0.08431,0.04858,0.13289,0.14087,0.12598,0.23796
	c0,0-0.11808,2.20972-0.12394,2.2286c0.00285,0,0.00692,0,0.00692,0h1.50741l-0.15568-2.22762
	c-0.00692-0.09709,0.04167-0.18937,0.12606-0.23796c0.03963-0.02279,0.08325-0.03369,0.12687-0.03369
	c0.04964,0,0.0992,0.01489,0.14282,0.0437l1.8833,1.22982l0.74894-1.34001l-2.03613-0.96704
	c-0.0883-0.0415-0.14486-0.13086-0.14486-0.229C17.50366,15.86247,17.56022,15.77319,17.64852,15.73161z"/>
<path fill="#444444" d="M16,0C7.16341,0,0,7.16341,0,16c0,8.83651,7.16341,16,16,16s16-7.16349,16-16C32,7.16341,24.83659,0,16,0z
	 M22.92236,16.79655c-0.53516,0.53516-6.47827,6.47835-6.72827,6.72835c-0.24992,0.25-1.23633,1.09757-2.67961-0.3457
	l-4.6932-4.69425c-1.44238-1.44222-0.59668-2.42855-0.34668-2.67855c0.25098-0.25,6.1932-6.1932,6.72933-6.72827
	C16.3064,7.97461,16.89331,8,17.77311,8c0.61328,0,4.25383,0.26367,4.25383,0.26367c0.57707,0,0.96387,0.21484,1.22648,0.48242
	c0.26855,0.26359,0.48242,0.65039,0.48242,1.22746c0,0,0.26359,3.64046,0.26359,4.25285
	C23.99943,15.10718,24.02588,15.69312,22.92236,16.79655z"/>
</svg>
