<?xml version="1.0" encoding="utf-8"?>
<!-- Generator: Adobe Illustrator 19.1.0, SVG Export Plug-In . SVG Version: 6.00 Build 0)  -->
<!DOCTYPE svg PUBLIC "-//W3C//DTD SVG 1.1//EN" "http://www.w3.org/Graphics/SVG/1.1/DTD/svg11.dtd">
<svg version="1.1" id="Layer_1" xmlns="http://www.w3.org/2000/svg" xmlns:xlink="http://www.w3.org/1999/xlink" x="0px" y="0px"
	 width="32px" height="32px" viewBox="0 0 32 32" enable-background="new 0 0 32 32" xml:space="preserve">
<path fill="#444444" d="M28,0H4C1.79085,0,0,1.79085,0,4v24c0,2.20915,1.79085,4,4,4h24c2.20915,0,4-1.79085,4-4V4
	C32,1.79085,30.20915,0,28,0z M22.11499,20.21004c-2.03092,4.40039-7.12964,4.40055-9.71395,2.85002
	c-2.20776-1.32463-5.57951-5.49927-1.84644-10.59709c0.15804-0.1932,0.53687-0.17562,0.45158,0.40894
	c-0.06055,0.41488-0.60213,3.39437,0.43148,4.68888c0.47168,0.6473,0.58203,0.20068,0.58203,0.20068
	s-0.08024-4.33512,3.27148-7.62663c2.12744-2.00708,5.07772-2.32821,5.65975-2.0472
	C21.67953,8.43937,24.64388,14.73088,22.11499,20.21004z"/>
</svg>
