<?xml version="1.0" encoding="utf-8"?>
<!-- Generator: Adobe Illustrator 19.1.0, SVG Export Plug-In . SVG Version: 6.00 Build 0)  -->
<!DOCTYPE svg PUBLIC "-//W3C//DTD SVG 1.1//EN" "http://www.w3.org/Graphics/SVG/1.1/DTD/svg11.dtd">
<svg version="1.1" id="Layer_1" xmlns="http://www.w3.org/2000/svg" xmlns:xlink="http://www.w3.org/1999/xlink" x="0px" y="0px"
	 width="32px" height="32px" viewBox="0 0 32 32" enable-background="new 0 0 32 32" xml:space="preserve">
<path fill="#444444" d="M31.98446,8.56449c-0.14267,3.1146-2.31781,7.37906-6.52625,12.79265
	c-4.35071,5.65302-8.03203,8.48068-11.04222,8.48068c-1.86592,0-3.44432-1.72085-4.73383-5.16478
	c-0.86095-3.15676-1.72108-6.3133-2.58248-9.47028c-0.95785-3.44193-1.98446-5.165-3.08325-5.165
	c-0.23956,0-1.07718,0.50379-2.51158,1.50684L0,9.60581c1.57924-1.38728,3.13684-2.77452,4.66941-4.16394
	C6.77577,3.62263,8.35807,2.66523,9.41187,2.5686c2.48954-0.23938,4.0225,1.4627,4.59767,5.10593
	c0.62184,3.93128,1.05252,6.37604,1.29381,7.33278c0.71873,3.26184,1.50879,4.89103,2.37103,4.89103
	c0.669,0,1.67569-1.05774,3.01754-3.17447c1.33925-2.11505,2.05708-3.72458,2.15392-4.83094
	c0.1916-1.82571-0.52668-2.74056-2.15392-2.74056c-0.76628,0-1.55635,0.17624-2.36885,0.52455
	c1.57317-5.1503,4.57773-7.6517,9.01231-7.50898C30.62361,2.26439,32.17429,4.39649,31.98446,8.56449z"/>
</svg>
