<?xml version="1.0" encoding="utf-8"?>
<!-- Generator: Adobe Illustrator 19.1.0, SVG Export Plug-In . SVG Version: 6.00 Build 0)  -->
<!DOCTYPE svg PUBLIC "-//W3C//DTD SVG 1.1//EN" "http://www.w3.org/Graphics/SVG/1.1/DTD/svg11.dtd">
<svg version="1.1" id="Layer_1" xmlns="http://www.w3.org/2000/svg" xmlns:xlink="http://www.w3.org/1999/xlink" x="0px" y="0px"
	 width="32px" height="32px" viewBox="0 0 32 32" enable-background="new 0 0 32 32" xml:space="preserve">
<path fill="#444444" d="M16,0C7.16341,0,0,7.16341,0,16c0,8.83651,7.16341,16,16,16s16-7.16349,16-16C32,7.16341,24.83659,0,16,0z
	 M19.39225,10.40324c-0.65698,0-1.1215,0.62492-1.1215,1.8265c0,2.45142,1.5542,3.86133,3.57292,3.86133
	c0.35889,0,0.75757-0.04191,1.16976-0.13688v1.9047c-0.67277,0.15202-1.34831,0.21655-1.91064,0.2181
	c-1.33952,2.83048-3.75635,5.24683-4.56128,5.70451c-0.51278,0.28857-0.99552,0.30461-1.55632-0.0319
	c-0.99129-0.59147-4.74056-3.67196-5.99862-13.34635h2.72306c0.68465,5.80884,2.35319,8.78548,4.19897,11.01668
	c1.01725-1.01774,1.99276-2.36857,2.75936-3.90202c-1.82308-0.92497-2.92863-2.95508-2.92863-5.32007
	C15.73934,9.81055,17.11727,8,19.47241,8c2.29118,0,3.54102,1.42594,3.54102,3.87736c0,0.91105-0.19629,1.94954-0.55754,2.75146
	c-1.70109,0.33301-2.32316-0.7522-2.32316-0.7522c0.12793-0.41935,0.30111-1.12817,0.30111-1.77498
	C20.43384,10.96403,20.01725,10.40324,19.39225,10.40324z"/>
</svg>
