<?xml version="1.0" encoding="utf-8"?>
<!-- Generator: Adobe Illustrator 19.1.0, SVG Export Plug-In . SVG Version: 6.00 Build 0)  -->
<!DOCTYPE svg PUBLIC "-//W3C//DTD SVG 1.1//EN" "http://www.w3.org/Graphics/SVG/1.1/DTD/svg11.dtd">
<svg version="1.1" id="Layer_1" xmlns="http://www.w3.org/2000/svg" xmlns:xlink="http://www.w3.org/1999/xlink" x="0px" y="0px"
	 width="32px" height="32px" viewBox="0 0 32 32" enable-background="new 0 0 32 32" xml:space="preserve">
<path fill-rule="evenodd" clip-rule="evenodd" fill="#444444" d="M31.12863,12.38089
	c-0.67346-0.28866-3.5603,0.03208-4.36218-0.69495C26.1998,11.16204,26.164,10.2135,25.9432,8.94888
	c-0.36988-2.11846-0.52389-2.59806-0.90879-3.43201C23.63381,2.5446,20.27778,0,17.22953,0h-7.06715
	C4.60274,0,0.0588,4.55463,0.0588,10.11427v11.79285C0.0588,27.45607,4.60274,32,10.16238,32h11.61109
	c5.55964,0,10.07151-4.54393,10.10358-10.09288l0.06415-8.16839C31.9412,13.73873,31.9412,12.72917,31.12863,12.38089z
	 M10.29068,8.26462h5.6024c1.06916,0,1.93518,0.86602,1.93518,1.92449c0,1.05847-0.86602,1.93518-1.93518,1.93518h-5.6024
	c-1.06916,0-1.93519-0.87671-1.93519-1.93518C8.35549,9.13064,9.22152,8.26462,10.29068,8.26462z M21.67725,23.68192H10.29068
	c-1.06916,0-1.93519-0.87671-1.93519-1.92448c0-1.05848,0.86602-1.92449,1.93519-1.92449h11.38657
	c1.05847,0,1.92449,0.86602,1.92449,1.92449C23.60174,22.80521,22.73572,23.68192,21.67725,23.68192z"/>
</svg>
