<?xml version="1.0" encoding="utf-8"?>
<!-- Generator: Adobe Illustrator 19.1.0, SVG Export Plug-In . SVG Version: 6.00 Build 0)  -->
<!DOCTYPE svg PUBLIC "-//W3C//DTD SVG 1.1//EN" "http://www.w3.org/Graphics/SVG/1.1/DTD/svg11.dtd">
<svg version="1.1" id="Layer_1" xmlns="http://www.w3.org/2000/svg" xmlns:xlink="http://www.w3.org/1999/xlink" x="0px" y="0px"
	 width="32px" height="32px" viewBox="0 0 32 32" enable-background="new 0 0 32 32" xml:space="preserve">
<path fill="#444444" d="M13.29786,1.16847c-0.05144-0.02899-0.1049-0.05372-0.15735-0.08144
	c-0.05346,0.01064-0.10693,0.02154-0.16034,0.03193L13.29786,1.16847z"/>
<path fill="#444444" d="M1.1521,13.15682c-0.01039,0.05443-0.01733,0.10962-0.02671,0.16454
	c0.02823,0.05048,0.05296,0.10222,0.08164,0.15194L1.1521,13.15682z"/>
<path fill="#444444" d="M30.83949,18.83401c0.0109-0.05615,0.01779-0.11306,0.02818-0.16946
	c-0.02818-0.05027-0.05291-0.10247-0.0826-0.15269L30.83949,18.83401z"/>
<path fill="#444444" d="M18.50121,30.71796c0.05149,0.02995,0.10343,0.05544,0.15391,0.08413
	c0.05691-0.01014,0.11286-0.01682,0.16876-0.02767L18.50121,30.71796z"/>
<path fill="#444444" d="M30.86766,18.66454c-0.01038,0.0564-0.01728,0.11331-0.02818,0.16946l-0.05443-0.32215
	C30.81476,18.56207,30.83949,18.61427,30.86766,18.66454c0.1648-0.89877,0.25141-1.81902,0.25141-2.73876
	c0-2.03997-0.39934-4.01907-1.18823-5.88162c-0.76112-1.79971-1.84993-3.41577-3.23859-4.80321
	c-1.38668-1.3877-3.00355-2.47671-4.8025-3.23789c-1.86229-0.78813-3.8414-1.18726-5.88086-1.18726
	c-0.96155,0-1.92412,0.09036-2.86145,0.27c-0.00203,0.00026-0.00446,0.00046-0.00694,0.00122
	c0.05245,0.02772,0.10592,0.05245,0.15735,0.08144l-0.3177-0.04951c0.05341-0.01039,0.10688-0.02128,0.16034-0.03193
	c-1.28573-0.68369-2.73136-1.04867-4.19523-1.04867c-2.38939,0-4.63572,0.93038-6.3253,2.62047C0.9309,4.34817,0,6.59501,0,8.98435
	c0,1.52083,0.39098,3.01591,1.12539,4.33702c0.00938-0.05493,0.01632-0.11012,0.02671-0.16454l0.05493,0.31648
	c-0.02868-0.04972-0.05341-0.10146-0.08164-0.15194C0.9764,14.17731,0.89775,15.052,0.89775,15.92578
	c0,2.03997,0.39939,4.01877,1.18823,5.88182c0.76016,1.80021,1.84993,3.41556,3.23712,4.803
	c1.38821,1.38719,3.00355,2.47792,4.80397,3.23707c1.86229,0.78986,3.84186,1.18925,5.88182,1.18925
	c0.88787,0,1.77767-0.08068,2.64622-0.23484c-0.05047-0.02868-0.10242-0.05417-0.15391-0.08413l0.32266,0.05646
	c-0.0559,0.01085-0.11185,0.01753-0.16876,0.02767c1.33819,0.75722,2.8536,1.15955,4.40062,1.15955
	c2.38939,0,4.63471-0.92917,6.32429-2.61972C31.07013,27.65335,32,25.40651,32,23.01687
	C32,21.49087,31.60705,19.99087,30.86766,18.66454z M16.0693,25.17983c-5.36866,0-7.76991-2.63903-7.76991-4.61737
	c0-1.01456,0.74881-1.72546,1.78116-1.72546c2.2973,0,1.70245,3.29874,5.98875,3.29874c2.19388,0,3.40588-1.19148,3.40588-2.41093
	c0-0.73316-0.36179-1.54602-1.8069-1.90213l-4.77472-1.19219c-3.84535-0.96409-4.54318-3.04287-4.54318-4.99699
	c0-4.05764,3.82012-5.5807,7.40762-5.5807c3.30442,0,7.20025,1.82616,7.20025,4.26034c0,1.043-0.90317,1.64951-1.93502,1.64951
	c-1.96081,0-1.59953-2.71378-5.54882-2.71378c-1.95975,0-3.04556,0.88756-3.04556,2.15749c0,1.26744,1.54804,1.672,2.89165,1.9786
	l3.53455,0.78438c3.8711,0.86212,4.85246,3.12234,4.85246,5.2516C23.7075,22.71797,21.17713,25.17983,16.0693,25.17983z"/>
</svg>
