<?xml version="1.0" encoding="utf-8"?>
<!-- Generator: Adobe Illustrator 19.1.0, SVG Export Plug-In . SVG Version: 6.00 Build 0)  -->
<!DOCTYPE svg PUBLIC "-//W3C//DTD SVG 1.1//EN" "http://www.w3.org/Graphics/SVG/1.1/DTD/svg11.dtd">
<svg version="1.1" id="Layer_1" xmlns="http://www.w3.org/2000/svg" xmlns:xlink="http://www.w3.org/1999/xlink" x="0px" y="0px"
	 width="32px" height="32px" viewBox="0 0 32 32" enable-background="new 0 0 32 32" xml:space="preserve">
<path fill="#444444" d="M26.5763,6.23062c-0.02203-0.16098-0.16302-0.25-0.2793-0.25973
	c-0.11628-0.0097-2.5759-0.19195-2.5759-0.19195s-1.70818-1.6958-1.89568-1.88346c-0.18751-0.18762-0.55381-0.1307-0.69601-0.08887
	c-0.02114,0.00621-0.37326,0.11498-0.95605,0.29522c-0.57058-1.64193-1.57759-3.15092-3.34917-3.15092
	c-0.04897,0-0.09927,0.00223-0.14984,0.00499C16.17051,0.28951,15.54646,0,15.00737,0c-4.12695,0-6.0986,5.15921-6.7168,7.78088
	C6.68695,8.27772,5.54775,8.63093,5.40215,8.67665C4.50696,8.9576,4.47884,8.98572,4.36145,9.82911
	c-0.08887,0.63855-2.43096,18.7515-2.43096,18.7515L20.18093,32l9.88858-2.13936C30.06951,29.86064,26.59831,6.3916,26.5763,6.23062
	z M16.53909,5.04769c0,0.06298-0.00053,0.12072-0.001,0.17912c-1.0046,0.31098-2.09573,0.64878-3.18944,0.98746
	c0.61417-2.37007,1.76509-3.51481,2.7717-3.94675C16.37399,2.90356,16.53909,3.81624,16.53909,5.04769z M14.89393,1.10712
	c0.1783,0,0.35761,0.06037,0.52952,0.17865c-1.32278,0.62233-2.74037,2.18994-3.33916,5.32
	c-0.87503,0.271-1.73021,0.53588-2.52108,0.78086C10.26466,4.99892,11.92971,1.10712,14.89393,1.10712z M15.60492,15.06185
	c0,0-1.06843-0.57036-2.37785-0.57036c-1.91995,0-2.0164,1.20499-2.0164,1.50853c0,1.65658,4.31793,2.29121,4.31793,6.17128
	c0,3.05264-1.93602,5.01854-4.54683,5.01854C7.8488,27.18983,6.2468,25.24,6.2468,25.24l0.83883-2.77148
	c0,0,1.64682,1.41385,3.03658,1.41385c0.90776,0,1.27729-0.71496,1.27729-1.23712c0-2.16095-3.54267-2.25735-3.54267-5.80805
	c0-2.98838,2.14488-5.88035,6.47482-5.88035c1.66836,0,2.49249,0.47798,2.49249,0.47798L15.60492,15.06185z M17.62057,4.8917
	c0.00036-0.10873,0.0008-0.2158,0.0008-0.33291c0-1.02048-0.14154-1.84216-0.36889-2.49345
	c0.91289,0.11466,1.521,1.15328,1.91208,2.34854C18.70639,4.55565,18.18536,4.71688,17.62057,4.8917z"/>
</svg>
