<?xml version="1.0" encoding="utf-8"?>
<!-- Generator: Adobe Illustrator 19.1.0, SVG Export Plug-In . SVG Version: 6.00 Build 0)  -->
<!DOCTYPE svg PUBLIC "-//W3C//DTD SVG 1.1//EN" "http://www.w3.org/Graphics/SVG/1.1/DTD/svg11.dtd">
<svg version="1.1" id="Layer_1" xmlns="http://www.w3.org/2000/svg" xmlns:xlink="http://www.w3.org/1999/xlink" x="0px" y="0px"
	 width="32px" height="32px" viewBox="0 0 32 32" enable-background="new 0 0 32 32" xml:space="preserve">
<path fill="#444444" d="M19.47998,18.87996c-2.08-1.27995-4.71997-1.55998-7.76001-0.87996
	c-0.23999,0.08-0.43994,0.31999-0.35994,0.60002c0.08,0.23999,0.31999,0.43994,0.59993,0.35995
	c2.80005-0.63997,5.16007-0.39998,7.04004,0.76001c0.23999,0.15999,0.52002,0.08,0.68001-0.15999
	C19.79997,19.31999,19.76001,19,19.47998,18.87996z"/>
<path fill="#444444" d="M20.47998,16.55998c-2.47998-1.52002-6.08-1.95996-9-1.08C11.15999,15.55998,11,15.92,11.08,16.23999
	c0.08,0.31999,0.44002,0.47998,0.76001,0.39998c2.52002-0.79997,5.79997-0.39998,7.95996,0.92
	c0.28003,0.20003,0.64006,0.08,0.84001-0.20003C20.84001,17.08,20.71997,16.68001,20.47998,16.55998z"/>
<path fill="#444444" d="M16,0C7.16341,0,0,7.16341,0,16c0,8.83651,7.16341,16,16,16s16-7.16349,16-16C32,7.16341,24.83659,0,16,0z
	 M16,24c-4.39998,0-8-3.60002-8-8s3.60002-8,8-8c4.44002,0,8,3.60002,8,8S20.39998,24,16,24z"/>
<path fill="#444444" d="M11,12.79997c-0.36003,0.12004-0.60002,0.52002-0.47998,0.92c0.11995,0.36003,0.52002,0.60002,0.92,0.47998
	c2.43994-0.76001,6.71997-0.59993,9.27995,0.92c0.36003,0.20003,0.84001,0.08,1.04004-0.19995
	c0.19995-0.36003,0.08-0.84001-0.28003-1.04004C18.52002,12.11995,13.84001,11.95996,11,12.79997z"/>
</svg>
