<?xml version="1.0" encoding="utf-8"?>
<!-- Generator: Adobe Illustrator 19.1.0, SVG Export Plug-In . SVG Version: 6.00 Build 0)  -->
<!DOCTYPE svg PUBLIC "-//W3C//DTD SVG 1.1//EN" "http://www.w3.org/Graphics/SVG/1.1/DTD/svg11.dtd">
<svg version="1.1" id="Layer_1" xmlns="http://www.w3.org/2000/svg" xmlns:xlink="http://www.w3.org/1999/xlink" x="0px" y="0px"
	 width="32px" height="32px" viewBox="0 0 32 32" enable-background="new 0 0 32 32" xml:space="preserve">
<path fill="#444444" d="M28,0H4C1.79089,0,0,1.79083,0,4v24c0,2.20911,1.79089,4,4,4h24c2.20917,0,4-1.79089,4-4V4
	C32,1.79083,30.20917,0,28,0z M23.90198,22.97491c0,0-1.90942,0.6416-2.61487,0.68079
	c-0.05524,0.00336-0.18524-0.3335-0.2887-0.74811c-0.10352-0.41455-0.36127-1.14679-0.57288-1.62695
	c-0.41333-0.93787-0.94629-2.70947-1.50458-4.99988c-0.19141-0.78571-0.40472-1.53284-0.47375-1.66028
	c-0.17847-0.32904-0.28461,0.71185-0.3797,3.72375c-0.04413,1.39679-0.17511,2.86102-0.29077,3.25391l-0.21063,0.71423
	c-1.90857,0.17664-1.15747,0.10718-3.1355,0.28998c-0.62769-0.78717-2.73822-4.13971-2.73822-4.13971
	c-0.00116,0.0011,0.36182,3.04565,0.29474,3.30164c-0.10852,0.41479-1.60504,1.00287-2.48804,0.97797
	c-0.73334-0.021-0.88934-0.32495-1.12268-2.18982c-0.39838-3.1806-0.43378-3.91833-0.31982-6.6543l0.11334-2.71997l0.69824-0.18683
	c1.12439-0.30078,2.37537-0.24286,2.71869,0.12573c0.15997,0.17188,0.92743,1.54675,1.7052,3.05548l1.41425,2.74298l0.20032-1.50793
	c0.29504-2.22235,1.17426-5.19751,1.93188-6.53699l0.29761-0.52637l1.40155,0.0343c1.15314,0.02826,1.45697,0.08966,1.71393,0.34668
	c0.39825,0.39819,1.15027,3.24561,2.25659,8.54297c0.13159,0.6308,0.34399,1.4433,0.47211,1.80585
	c0.12793,0.36237,0.23248,0.79065,0.23248,0.9516s0.17859,0.83966,0.39685,1.50818
	C24.01074,22.76288,24.09247,23.16522,23.90198,22.97491z"/>
</svg>
