<?xml version="1.0" encoding="utf-8"?>
<!-- Generator: Adobe Illustrator 19.1.0, SVG Export Plug-In . SVG Version: 6.00 Build 0)  -->
<!DOCTYPE svg PUBLIC "-//W3C//DTD SVG 1.1//EN" "http://www.w3.org/Graphics/SVG/1.1/DTD/svg11.dtd">
<svg version="1.1" id="Layer_1" xmlns="http://www.w3.org/2000/svg" xmlns:xlink="http://www.w3.org/1999/xlink" x="0px" y="0px"
	 width="32px" height="32px" viewBox="0 0 32 32" enable-background="new 0 0 32 32" xml:space="preserve">
<path fill="#444444" d="M28,0H4C1.79085,0,0,1.79085,0,4v24c0,2.20915,1.79085,4,4,4h24c2.20915,0,4-1.79085,4-4V4
	C32,1.79085,30.20915,0,28,0z M17.23446,19.56331c-0.99243,0-1.92562-0.53638-2.24496-1.14551c0,0-0.53385,2.11735-0.64648,2.5262
	c-0.39795,1.44393-1.5686,2.88908-1.65918,3.00741c-0.06348,0.08252-0.20361,0.05656-0.21842-0.05249
	c-0.02523-0.18408-0.32357-2.00627,0.02759-3.49251c0.17635-0.74626,1.18205-5.00781,1.18205-5.00781
	S13.382,14.81177,13.382,13.94434c0-1.36198,0.78947-2.37883,1.7723-2.37883c0.83569,0,1.2395,0.62752,1.2395,1.37972
	c0,0.84041-0.53508,2.09684-0.81128,3.26115c-0.23071,0.97518,0.48893,1.77026,1.45044,1.77026
	c1.74088,0,2.91366-2.23641,2.91366-4.88631c0-2.014-1.35596-3.52197-3.82397-3.52197c-2.78703,0-4.52474,2.0791-4.52474,4.40169
	c0,0.80046,0.23649,1.36564,0.60661,1.80225c0.16984,0.20093,0.19368,0.28174,0.13216,0.51229
	c-0.04484,0.16927-0.14526,0.57609-0.18774,0.73747c-0.06104,0.23299-0.24959,0.31608-0.46004,0.23006
	c-1.28353-0.52417-1.882-1.93034-1.882-3.51099C9.80688,11.13053,12.00846,8,16.37492,8c3.5092,0,5.8182,2.53874,5.8182,5.26489
	C22.19312,16.86996,20.1888,19.56331,17.23446,19.56331z"/>
</svg>
