<?xml version="1.0" encoding="utf-8"?>
<!-- Generator: Adobe Illustrator 19.1.0, SVG Export Plug-In . SVG Version: 6.00 Build 0)  -->
<!DOCTYPE svg PUBLIC "-//W3C//DTD SVG 1.1//EN" "http://www.w3.org/Graphics/SVG/1.1/DTD/svg11.dtd">
<svg version="1.1" id="Layer_1" xmlns="http://www.w3.org/2000/svg" xmlns:xlink="http://www.w3.org/1999/xlink" x="0px" y="0px"
	 width="32px" height="32px" viewBox="0 0 32 32" enable-background="new 0 0 32 32" xml:space="preserve">
<path data-color="color-2" fill="#444444" d="M13.44774,12.51485h1.47855c0,0-1.12651-5.59736-6.58306-5.59736S0,11.31793,0,15.85919
	s2.56986,9.22332,7.9912,9.22332s7.21672-4.9989,7.21672-6.86469h-1.58416c0,0-0.63366,5.52695-5.38614,5.52695
	s-6.72387-4.08361-6.72387-7.85038S4.0132,8.32563,8.30803,8.32563S13.44774,12.51485,13.44774,12.51485z"/>
<path fill="#444444" d="M28.65567,15.38394c2.18262-0.66887,2.60506-2.17088,2.60506-3.66117
	c0-1.5607-0.77448-4.29483-3.90759-4.29483s-9.57536,0-9.57536,0v17.14412c0,0,7.49835,0,9.68097,0S32,22.35423,32,19.88999
	C32,17.76604,31.00256,15.91199,28.65567,15.38394z M20.77008,9.85699h5.17492c1.27671,0,2.31169,1.03498,2.31169,2.31169
	c0,1.27673-1.03498,2.31171-2.31169,2.31171h-5.17492V9.85699z M26.30877,22.17822h-5.53869v-5.35093h5.53869
	c1.47762,0,2.67547,1.19785,2.67547,2.67547S27.78639,22.17822,26.30877,22.17822z"/>
</svg>
