<?xml version="1.0" encoding="utf-8"?>
<!-- Generator: Adobe Illustrator 19.1.0, SVG Export Plug-In . SVG Version: 6.00 Build 0)  -->
<!DOCTYPE svg PUBLIC "-//W3C//DTD SVG 1.1//EN" "http://www.w3.org/Graphics/SVG/1.1/DTD/svg11.dtd">
<svg version="1.1" id="Layer_1" xmlns="http://www.w3.org/2000/svg" xmlns:xlink="http://www.w3.org/1999/xlink" x="0px" y="0px"
	 width="32px" height="32px" viewBox="0 0 32 32" enable-background="new 0 0 32 32" xml:space="preserve">
<path fill="#444444" d="M19.5402,14.6464c-0.64445-0.02271-0.82642,0.51823-0.88102,0.95898
	c0.19393-0.03117,0.40194-0.04484,0.61816-0.03727c0.4056,0.01424,0.77799,0.09977,1.07886,0.23389
	C20.35368,15.34521,20.25366,14.6709,19.5402,14.6464z"/>
<path fill="#444444" d="M28,0H4C1.79085,0,0,1.79085,0,4v24c0,2.20915,1.79085,4,4,4h24c2.20915,0,4-1.79085,4-4V4
	C32,1.79085,30.20915,0,28,0z M9.56925,11.33521l2.91764-2.89331c0.0057-0.0057,0.01147-0.00854,0.01717-0.00952l-0.05135,0.09652
	c-0.10742,0.21468-0.16911,0.47095-0.16911,0.76489v0.00423c0,0.35791,0.01823,1.64486,0.01823,1.64486
	c-0.00016,0.08594-0.06942,0.15601-0.15544,0.15601h-1.50155c-0.00098,0-0.00098,0-0.00098,0
	c-0.36881,0-0.67692,0.06291-0.93099,0.17749c-0.01164,0.00513-0.09416,0.04598-0.15454,0.07585
	C9.55998,11.34595,9.56356,11.33984,9.56925,11.33521z M22.6569,17.63883c-0.20931,2.26807-0.55509,3.61898-0.69816,4.06161
	C21.23608,23.94271,20.61914,24,18.86898,24c-2.23218,0-2.91553-0.33162-2.91553-2.11727c0-1.96696,0.92537-2.00838,2.49813-1.96517
	c0.22526,0.00562-0.01286,0.22575-0.01286,0.60653c0,0.38281,0.14746,0.53394-0.05575,0.53394
	c-0.45483,0-1.06852-0.06502-1.06852,0.5555c0,0.76774,0.36833,0.74268,1.33472,0.74268c1.19214,0,1.42017-0.14884,1.42017-1.23454
	c0-1.78451-0.5048-2.05827-1.20036-2.13818c-0.76929-0.09017-1.52637-0.20557-1.89128-0.33496
	c-0.92448-0.32837-0.85848-1.55217-0.85848-1.89803c0-0.05208-0.07308-0.0498-0.07308,0c0,0.48991-0.03499,1.16683-0.28678,1.92969
	c-0.07853,0.21973-0.13566,0.36947-0.13664,0.37101c-0.29004,0.60799-0.77661,0.3995-1.55192,0.30029
	c-0.77669-0.09896-2.43392-0.4445-3.15942-0.75513c-0.3256-0.1512-0.43604-0.29411-0.60173-0.63713
	c-0.42749-0.88175-0.8776-3.78092-0.93311-4.19596c-0.06673-0.53629-0.06966-0.81339-0.06966-0.81339
	c-0.0009-0.33911,0.03394-0.67147,0.23454-0.94076c0.10075-0.13558,0.2334-0.25016,0.42065-0.33521
	c0.18701-0.08496,0.4318-0.13883,0.75212-0.13883h1.50187c0.32731-0.00041,0.59155-0.26571,0.59172-0.59163
	c0-0.0022-0.0048-0.32967-0.0092-0.6958c-0.00448-0.36491-0.00936-0.77572-0.00936-0.95011
	c0.00065-0.30811,0.07869-0.52865,0.1993-0.70077c0.17985-0.25773,0.50309-0.42497,0.79508-0.50659
	c0.36743-0.10303,1.79858-0.19303,2.72485,0.17977c0.34766,0.14014,0.65837,0.54476,0.72306,0.98779
	c0.53882-0.01668,1.43091-0.02384,2.18994,0.06559c0.94344,0.11117,1.69425,0.24984,2.06462,0.38363
	c0.34318,0.12378,0.72282,0.43839,0.84212,1.0769C22.53206,11.8763,22.78914,16.20475,22.6569,17.63883z"/>
</svg>
