<?xml version="1.0" encoding="utf-8"?>
<!-- Generator: Adobe Illustrator 19.1.0, SVG Export Plug-In . SVG Version: 6.00 Build 0)  -->
<!DOCTYPE svg PUBLIC "-//W3C//DTD SVG 1.1//EN" "http://www.w3.org/Graphics/SVG/1.1/DTD/svg11.dtd">
<svg version="1.1" id="Layer_1" xmlns="http://www.w3.org/2000/svg" xmlns:xlink="http://www.w3.org/1999/xlink" x="0px" y="0px"
	 width="32px" height="32px" viewBox="0 0 32 32" enable-background="new 0 0 32 32" xml:space="preserve">
<path fill="#444444" d="M16,0C7.16341,0,0,7.16341,0,16c0,8.83651,7.16341,16,16,16s16-7.16349,16-16C32,7.16341,24.83659,0,16,0z
	 M20.72909,18.67855c-2.17529,2.8265-4.01595,4.24031-5.52108,4.24031c-0.93294,0-1.72217-0.86043-2.36694-2.58236
	c-0.43042-1.57837-0.86051-3.15666-1.29126-4.73511c-0.47892-1.72103-0.99219-2.58252-1.54158-2.58252
	c-0.11979,0-0.53857,0.25187-1.25578,0.75342L8,12.8029c0.78963-0.69369,1.56844-1.38729,2.33472-2.08195
	c1.05314-0.90967,1.84432-1.38835,2.37126-1.43669c1.24471-0.11971,2.01123,0.73136,2.29883,2.55298
	c0.31087,1.96566,0.5262,3.18799,0.64689,3.66642c0.35938,1.63086,0.7544,2.44547,1.18547,2.44547
	c0.33455,0,0.83789-0.52889,1.50879-1.58724c0.66968-1.05754,1.02856-1.86231,1.07699-2.41545
	c0.09578-0.91284-0.26335-1.37028-1.07699-1.37028c-0.38314,0-0.77816,0.08813-1.18441,0.26229
	c0.78662-2.5752,2.2889-3.82585,4.50619-3.75448c1.64412,0.04818,2.41943,1.11426,2.32454,3.19824
	C23.9209,13.83952,22.83333,15.97176,20.72909,18.67855z"/>
</svg>
