<?xml version="1.0" encoding="utf-8"?>
<!-- Generator: Adobe Illustrator 19.1.0, SVG Export Plug-In . SVG Version: 6.00 Build 0)  -->
<!DOCTYPE svg PUBLIC "-//W3C//DTD SVG 1.1//EN" "http://www.w3.org/Graphics/SVG/1.1/DTD/svg11.dtd">
<svg version="1.1" id="Layer_1" xmlns="http://www.w3.org/2000/svg" xmlns:xlink="http://www.w3.org/1999/xlink" x="0px" y="0px"
	 width="32px" height="32px" viewBox="0 0 32 32" enable-background="new 0 0 32 32" xml:space="preserve">
<path fill="#444444" d="M0.07159,32l2.25028-8.21695c-1.38802-2.40459-2.11842-5.13263-2.11728-7.92732
	C0.2081,7.11286,7.32369,0,16.06651,0c4.24317,0.00169,8.22577,1.65314,11.22045,4.65031
	c2.99476,2.99717,4.6431,6.98116,4.64145,11.21808c-0.00354,8.74288-7.11977,15.85667-15.86168,15.85667h-0.00004h-0.00649
	c-2.65475-0.0011-5.26321-0.66683-7.57997-1.93003L0.07159,32z M8.86978,26.92423l0.48143,0.28566
	c2.02414,1.20086,4.34444,1.83613,6.71007,1.83706h0.0054c7.26649,0,13.18068-5.91233,13.18363-13.17958
	c0.00135-3.52159-1.36866-6.83293-3.85778-9.32408s-5.79928-3.86386-9.32062-3.8652c-7.27207,0-13.1863,5.91191-13.18922,13.17865
	c-0.00101,2.49022,0.69602,4.91556,2.0157,7.01398l0.31351,0.4986l-1.33188,4.86342L8.86978,26.92423z"/>
<path data-color="color-2" fill-rule="evenodd" clip-rule="evenodd" fill="#444444" d="M12.10224,9.22725
	c-0.32169-0.7726-0.64844-0.66807-0.89172-0.68018c-0.23091-0.01149-0.49539-0.01392-0.7596-0.01392
	c-0.26421,0-0.69357,0.09915-1.05687,0.49578c-0.36328,0.39664-1.38712,1.3552-1.38712,3.30533
	c0,1.95013,1.42014,3.83413,1.61832,4.09858c0.19815,0.26445,2.79469,4.26641,6.77046,5.98261
	c0.94557,0.4082,1.68385,0.65193,2.25939,0.83463c0.94949,0.30148,1.81348,0.25896,2.49637,0.15696
	c0.76144-0.11373,2.34486-0.95852,2.67515-1.88401c0.33025-0.92549,0.33025-1.71878,0.23116-1.88405
	c-0.09904-0.16523-0.36328-0.2644-0.75958-0.46275c-0.39635-0.1983-2.34489-1.15686-2.70822-1.28906
	c-0.36328-0.1322-0.62747-0.19831-0.8917,0.19834c-0.26419,0.3966-1.02373,1.28906-1.25494,1.55346
	c-0.23116,0.26444-0.46236,0.29751-0.85867,0.09917c-0.39635-0.1983-1.67339-0.61671-3.1872-1.96652
	c-1.17816-1.05052-1.97365-2.3481-2.20483-2.74474c-0.23118-0.39664-0.02459-0.6111,0.17382-0.8086
	c0.17826-0.17751,0.39631-0.46274,0.59448-0.69412c0.19815-0.23137,0.26421-0.39664,0.39631-0.66105
	c0.13212-0.26444,0.06606-0.49582-0.03303-0.69414C13.22515,11.97066,12.43253,10.02051,12.10224,9.22725z"/>
</svg>
