<?xml version="1.0" encoding="utf-8"?>
<!-- Generator: Adobe Illustrator 19.1.0, SVG Export Plug-In . SVG Version: 6.00 Build 0)  -->
<!DOCTYPE svg PUBLIC "-//W3C//DTD SVG 1.1//EN" "http://www.w3.org/Graphics/SVG/1.1/DTD/svg11.dtd">
<svg version="1.1" id="Layer_1" xmlns="http://www.w3.org/2000/svg" xmlns:xlink="http://www.w3.org/1999/xlink" x="0px" y="0px"
	 width="32px" height="32px" viewBox="0 0 32 32" enable-background="new 0 0 32 32" xml:space="preserve">
<path fill="#444444" d="M28,0H4C1.79085,0,0,1.79085,0,4v24c0,2.20915,1.79085,4,4,4h24c2.20915,0,4-1.79085,4-4V4
	C32,1.79085,30.20915,0,28,0z M17.82715,23.99894c-3.48527,0.05949-4.80599-2.48323-4.80599-4.27287v-5.22795h-1.6189V12.4314
	c2.42684-0.87484,3.0109-3.06413,3.14795-4.3116C14.55957,8.03402,14.62687,8,14.6652,8c0.03841,0,2.34391,0,2.34391,0v4.07593
	h3.20109v2.4222H16.9974v4.98055c0.01099,0.67798,0.25903,1.6119,1.53988,1.57747c0.42432-0.01099,0.99341-0.13468,1.29085-0.27629
	l0.76961,2.28198C20.30884,23.48617,19.00301,23.9786,17.82715,23.99894z"/>
</svg>
