<?xml version="1.0" encoding="utf-8"?>
<!-- Generator: Adobe Illustrator 19.1.0, SVG Export Plug-In . SVG Version: 6.00 Build 0)  -->
<!DOCTYPE svg PUBLIC "-//W3C//DTD SVG 1.1//EN" "http://www.w3.org/Graphics/SVG/1.1/DTD/svg11.dtd">
<svg version="1.1" id="Layer_1" xmlns="http://www.w3.org/2000/svg" xmlns:xlink="http://www.w3.org/1999/xlink" x="0px" y="0px"
	 width="32px" height="32px" viewBox="0 0 32 32" enable-background="new 0 0 32 32" xml:space="preserve">
<path fill="#444444" d="M18.01628,19.61182c-0.38468,0.38428-1.0415,0.57113-2.00797,0.57113
	c-0.00293,0-0.0057,0.00041-0.00854,0.00041c-0.00285,0-0.00562-0.00041-0.00854-0.00041
	c-0.96647,0-1.62305-0.18677-2.00724-0.57096c-0.17065-0.17065-0.44735-0.17065-0.618-0.00008
	c-0.17065,0.17065-0.17065,0.44735,0,0.618c0.55648,0.55648,1.4152,0.82699,2.62524,0.82699
	c0.00293,0,0.0057-0.00041,0.00854-0.00041c0.00285,0,0.00562,0.00041,0.00854,0.00041c1.20988,0,2.06877-0.27051,2.62565-0.82682
	c0.17074-0.17057,0.17082-0.44727,0.00024-0.618C18.46362,19.44141,18.18701,19.44124,18.01628,19.61182z"/>
<path fill="#444444" d="M14.71916,17.04517c0-0.59774-0.48511-1.0992-1.08285-1.0992c-0.59774,0-1.09928,0.50146-1.09928,1.0992
	c0,0.59782,0.50155,1.08285,1.09928,1.08285C14.23405,18.12801,14.71916,17.64298,14.71916,17.04517z"/>
<path fill="#444444" d="M18.38013,15.94596c-0.59806,0-1.10059,0.50114-1.10059,1.0992s0.50252,1.08285,1.10059,1.08285
	s1.08285-0.48478,1.08285-1.08285S18.97819,15.94596,18.38013,15.94596z"/>
<path fill="#444444" d="M16,0C7.16341,0,0,7.16341,0,16c0,8.83651,7.16341,16,16,16s16-7.16349,16-16C32,7.16341,24.83659,0,16,0z
	 M23.10775,17.47762c0.01741,0.13924,0.02669,0.2797,0.02669,0.42122c0,1.32585-0.77043,2.55876-2.16927,3.47168
	c-1.34131,0.87541-3.11613,1.3575-4.99764,1.3575c-1.88143,0-3.65625-0.4821-4.99756-1.3575
	C9.57113,20.4576,8.8007,19.22469,8.8007,17.89884c0-0.15511,0.01099-0.30892,0.03182-0.46118
	C8.33008,17.09058,8,16.51099,8,15.85539c0-1.0603,0.86263-1.92285,1.92285-1.92285c0.4458,0,0.85636,0.15283,1.18278,0.40853
	c1.25863-0.78019,2.8741-1.2255,4.59269-1.26774l1.0328-3.26465c0.06893-0.21794,0.29419-0.34595,0.51668-0.29354l2.6569,0.62533
	c0.26823-0.51546,0.80721-0.86849,1.42733-0.86849c0.8868,0,1.60832,0.72144,1.60832,1.60832
	c0,0.8868-0.72152,1.60824-1.60832,1.60824c-0.84757,0-1.54362-0.65918-1.6036-1.4917l-2.28629-0.53817l-0.83211,2.63021
	c1.59497,0.09424,3.08293,0.538,4.2557,1.27498c0.33089-0.26945,0.75252-0.43131,1.21151-0.43131
	c1.06022,0,1.92277,0.86255,1.92277,1.92285C24,16.5367,23.64364,17.13607,23.10775,17.47762z"/>
</svg>
