<?xml version="1.0" encoding="utf-8"?>
<!-- Generator: Adobe Illustrator 19.1.0, SVG Export Plug-In . SVG Version: 6.00 Build 0)  -->
<!DOCTYPE svg PUBLIC "-//W3C//DTD SVG 1.1//EN" "http://www.w3.org/Graphics/SVG/1.1/DTD/svg11.dtd">
<svg version="1.1" id="Layer_1" xmlns="http://www.w3.org/2000/svg" xmlns:xlink="http://www.w3.org/1999/xlink" x="0px" y="0px"
	 width="32px" height="32px" viewBox="0 0 32 32" enable-background="new 0 0 32 32" xml:space="preserve">
<path fill="#444444" d="M28,0H4C1.79085,0,0,1.79085,0,4v24c0,2.20915,1.79085,4,4,4h24c2.20915,0,4-1.79085,4-4V4
	C32,1.79085,30.20915,0,28,0z M21.20215,11.11426c1.40552,0,2.54533,1.13582,2.54533,2.53638
	c0,1.40088-1.13981,2.53629-2.54533,2.53629c-1.40649,0-2.54655-1.13542-2.54655-2.53629
	C18.6556,12.25008,19.79565,11.11426,21.20215,11.11426z M15.46712,12.0909c1.26506,0,2.29134,1.02214,2.29134,2.28312
	c0,1.26058-1.02629,2.28271-2.29134,2.28271c-1.26571,0-2.29158-1.02214-2.29158-2.28271
	C13.17554,13.11304,14.20142,12.0909,15.46712,12.0909z M10.26636,12.97119c1.13883,0,2.06234,0.91951,2.06234,2.05452
	c0,1.13452-0.9235,2.05371-2.06234,2.05371c-1.13916,0-2.06234-0.91919-2.06234-2.05371
	C8.20402,13.89071,9.1272,12.97119,10.26636,12.97119z M12.53255,20.68018c0,0.11287-0.09237,0.20548-0.2063,0.20548h-0.07283
	H8.27905H8.20597C8.09237,20.88566,8,20.79305,8,20.68018v-0.7981c0-1.18579,0.95874-2.33358,2.26644-2.33358
	c1.30762,0,2.26611,1.14779,2.26611,2.33358V20.68018z M17.98535,20.65723c0,0.12549-0.10254,0.22843-0.22941,0.22843h-0.08097
	h-4.41626h-0.08122c-0.12622,0-0.22892-0.10295-0.22892-0.22843v-0.88688c0-1.31763,1.06551-2.5931,2.51847-2.5931
	s2.51831,1.27547,2.51831,2.5931V20.65723z M24,20.63192c0,0.1394-0.1141,0.25374-0.25504,0.25374h-0.08968h-4.90682h-0.09033
	c-0.1403,0-0.25439-0.11434-0.25439-0.25374v-0.98527c0-1.46427,1.18376-2.88127,2.79818-2.88127
	c1.6145,0,2.7981,1.41699,2.7981,2.88127V20.63192z"/>
</svg>
