<?xml version="1.0" encoding="utf-8"?>
<!-- Generator: Adobe Illustrator 19.1.0, SVG Export Plug-In . SVG Version: 6.00 Build 0)  -->
<!DOCTYPE svg PUBLIC "-//W3C//DTD SVG 1.1//EN" "http://www.w3.org/Graphics/SVG/1.1/DTD/svg11.dtd">
<svg version="1.1" id="Layer_1" xmlns="http://www.w3.org/2000/svg" xmlns:xlink="http://www.w3.org/1999/xlink" x="0px" y="0px"
	 width="32px" height="32px" viewBox="0 0 32 32" enable-background="new 0 0 32 32" xml:space="preserve">
<path data-color="color-2" fill="#444444" d="M32,14.00006h-3v-3h-3v3h-3v3h3v3h3v-3h3V14.00006z"/>
<path fill="#444444" d="M11,14.00006v3.7h6c-0.2,1.6-1.9,4.7-6.1,4.7c-3.7,0-6.7-3.1-6.7-6.8s3-6.8,6.7-6.8c2.1,0,3.5,0.9,4.3,1.7
	l2.9-2.8c-1.9-1.8-4.3-2.8-7.3-2.8c-6-0.2-10.8,4.7-10.8,10.7s4.8,10.8,10.8,10.8c7.5,0,11.3-6.2,10.2-12.4L11,14.00006L11,14.00006
	z"/>
</svg>
