<?xml version="1.0" encoding="utf-8"?>
<!-- Generator: Adobe Illustrator 19.1.0, SVG Export Plug-In . SVG Version: 6.00 Build 0)  -->
<!DOCTYPE svg PUBLIC "-//W3C//DTD SVG 1.1//EN" "http://www.w3.org/Graphics/SVG/1.1/DTD/svg11.dtd">
<svg version="1.1" id="Layer_1" xmlns="http://www.w3.org/2000/svg" xmlns:xlink="http://www.w3.org/1999/xlink" x="0px" y="0px"
	 width="32px" height="32px" viewBox="0 0 32 32" enable-background="new 0 0 32 32" xml:space="preserve">
<path fill="#444444" d="M13.16341,16.44092h-2.88835v2.65186h2.75521c0.41406-0.01156,1.1792-0.14152,1.1792-1.28914
	C14.20947,16.42725,13.16341,16.44092,13.16341,16.44092z"/>
<path fill="#444444" d="M20.55819,14.91138c-1.5328,0-1.74626,1.52954-1.74626,1.52954h3.2596
	C22.07153,16.44092,22.09098,14.91138,20.55819,14.91138z"/>
<path fill="#444444" d="M13.86532,13.72933c0-1.03231-0.7019-1.03231-0.7019-1.03231h-0.37166h-2.51668v2.21436h2.70939
	C13.45239,14.91138,13.86532,14.76172,13.86532,13.72933z"/>
<path fill="#444444" d="M16,0C7.16341,0,0,7.16341,0,16c0,8.83651,7.16341,16,16,16s16-7.16349,16-16C32,7.16341,24.83659,0,16,0z
	 M18.38477,11.5179h4.09383v1.22225h-4.09383V11.5179z M16.31543,17.92749c0,3.02824-3.15202,2.92887-3.15202,2.92887h-2.88835
	h-0.0848H8v-9.92293h2.19027h0.0848h2.88835c1.56909,0,2.80794,0.86654,2.80794,2.64217s-1.51408,1.8881-1.51408,1.8881
	C16.45304,15.4637,16.31543,17.92749,16.31543,17.92749z M23.97306,17.76538h-5.14168c0,1.84334,1.74626,1.72656,1.74626,1.72656
	c1.64917,0,1.59098-1.06698,1.59098-1.06698h1.74626c0,2.83268-3.39543,2.63875-3.39543,2.63875
	c-4.07438,0-3.8125-3.79321-3.8125-3.79321s-0.00342-3.8125,3.81242-3.8125C24.53556,13.45801,23.97306,17.76538,23.97306,17.76538z
	"/>
</svg>
