<?xml version="1.0" encoding="utf-8"?>
<!-- Generator: Adobe Illustrator 19.1.0, SVG Export Plug-In . SVG Version: 6.00 Build 0)  -->
<!DOCTYPE svg PUBLIC "-//W3C//DTD SVG 1.1//EN" "http://www.w3.org/Graphics/SVG/1.1/DTD/svg11.dtd">
<svg version="1.1" id="Layer_1" xmlns="http://www.w3.org/2000/svg" xmlns:xlink="http://www.w3.org/1999/xlink" x="0px" y="0px"
	 width="32px" height="32px" viewBox="0 0 32 32" enable-background="new 0 0 32 32" xml:space="preserve">
<path fill="#444444" d="M28,0H4C1.79085,0,0,1.79085,0,4v24c0,2.20915,1.79085,4,4,4h24c2.20915,0,4-1.79085,4-4V4
	C32,1.79085,30.20915,0,28,0z M11.55558,19.5555C9.59188,19.5555,8,17.96362,8,16c0-1.9637,1.59188-3.55558,3.55558-3.55558
	S15.11108,14.0363,15.11108,16C15.11108,17.96362,13.51929,19.5555,11.55558,19.5555z M20.44442,19.5555
	c-1.96371,0-3.5555-1.59188-3.5555-3.5555c0-1.9637,1.5918-3.55558,3.5555-3.55558S24,14.0363,24,16
	C24,17.96362,22.40812,19.5555,20.44442,19.5555z"/>
</svg>
