<?xml version="1.0" encoding="utf-8"?>
<!-- Generator: Adobe Illustrator 19.1.0, SVG Export Plug-In . SVG Version: 6.00 Build 0)  -->
<!DOCTYPE svg PUBLIC "-//W3C//DTD SVG 1.1//EN" "http://www.w3.org/Graphics/SVG/1.1/DTD/svg11.dtd">
<svg version="1.1" id="Layer_1" xmlns="http://www.w3.org/2000/svg" xmlns:xlink="http://www.w3.org/1999/xlink" x="0px" y="0px"
	 width="32px" height="32px" viewBox="0 0 32 32" enable-background="new 0 0 32 32" xml:space="preserve">
<path fill="#444444" d="M25.99676,29.81527c-0.20698-0.82919-0.72253-2.29361-1.14569-3.25391
	c-0.82665-1.87584-1.89266-5.41895-3.00915-9.99981c-0.38285-1.5714-0.80951-3.06566-0.9476-3.32057
	c-0.35682-0.65808-0.56919,1.42378-0.75935,7.44748c-0.08825,2.7936-0.35015,5.72211-0.58158,6.50781l-0.42126,1.42854
	c-3.81714,0.35323-2.31493,0.2143-6.27099,0.57999c-1.25531-1.57439-5.4764-8.27952-5.4764-8.27952
	c-0.00232,0.0023,0.72357,6.09134,0.58951,6.60336c-0.21714,0.82951-3.2101,2.00567-4.97609,1.95584
	c-1.46664-0.04191-1.7787-0.64983-2.24535-4.3796c-0.79681-6.36115-0.8676-7.83668-0.63967-13.30864l0.22666-5.4399L1.73627,5.9827
	c2.24885-0.60158,4.7507-0.4857,5.43736,0.25143c0.31999,0.3438,1.85489,3.09359,3.41041,6.11099l2.82852,5.48593l0.40063-3.01582
	c0.59015-4.44468,2.34853-10.39504,3.86374-13.07403l0.59523-1.05268l2.80312,0.06857
	c2.3063,0.0565,2.91391,0.17936,3.42787,0.69332c0.79649,0.79649,2.30059,6.4913,4.51325,17.08602
	c0.26317,1.26156,0.68793,2.88661,0.94411,3.61168c0.25587,0.72475,0.46507,1.58124,0.46507,1.90314
	c0,0.3219,0.35714,1.67933,0.79363,3.01645c0.8022,2.45805,0.9657,3.26279,0.58475,2.88217c0,0-3.81882,1.28323-5.22974,1.36156
	C26.46374,31.31809,26.20374,30.64445,25.99676,29.81527L25.99676,29.81527z"/>
</svg>
