<?xml version="1.0" encoding="utf-8"?>
<!-- Generator: Adobe Illustrator 19.1.0, SVG Export Plug-In . SVG Version: 6.00 Build 0)  -->
<!DOCTYPE svg PUBLIC "-//W3C//DTD SVG 1.1//EN" "http://www.w3.org/Graphics/SVG/1.1/DTD/svg11.dtd">
<svg version="1.1" id="Layer_1" xmlns="http://www.w3.org/2000/svg" xmlns:xlink="http://www.w3.org/1999/xlink" x="0px" y="0px"
	 width="32px" height="32px" viewBox="0 0 32 32" enable-background="new 0 0 32 32" xml:space="preserve">
<path fill="#444444" d="M16,0C7.2,0,0,7.2,0,16s7.2,16,16,16s16-7.2,16-16S24.88,0,16,0z M23.36,23.12
	c-0.32,0.48-0.88,0.64-1.36,0.32c-3.76-2.32-8.48-2.8-14.08-1.52c-0.56,0.16-1.04-0.24-1.2-0.72c-0.16-0.56,0.24-1.04,0.72-1.2
	c6.08-1.36,11.36-0.8,15.52,1.76C23.52,22,23.6,22.64,23.36,23.12z M25.28,18.72c-0.4,0.56-1.12,0.8-1.68,0.4
	c-4.32-2.64-10.88-3.44-15.92-1.84c-0.64,0.16-1.36-0.16-1.52-0.8c-0.16-0.64,0.16-1.36,0.8-1.52c5.84-1.76,13.04-0.88,18,2.16
	C25.44,17.36,25.68,18.16,25.28,18.72z M25.44,14.24c-5.12-3.04-13.68-3.36-18.56-1.84c-0.8,0.24-1.6-0.24-1.84-0.96
	C4.8,10.64,5.28,9.84,6,9.6c5.68-1.68,15.04-1.36,20.96,2.16c0.72,0.4,0.96,1.36,0.56,2.08C27.12,14.4,26.16,14.64,25.44,14.24z"/>
</svg>
