<?xml version="1.0" encoding="utf-8"?>
<!-- Generator: Adobe Illustrator 19.1.0, SVG Export Plug-In . SVG Version: 6.00 Build 0)  -->
<!DOCTYPE svg PUBLIC "-//W3C//DTD SVG 1.1//EN" "http://www.w3.org/Graphics/SVG/1.1/DTD/svg11.dtd">
<svg version="1.1" id="Layer_1" xmlns="http://www.w3.org/2000/svg" xmlns:xlink="http://www.w3.org/1999/xlink" x="0px" y="0px"
	 width="32px" height="32px" viewBox="0 0 32 32" enable-background="new 0 0 32 32" xml:space="preserve">
<path fill-rule="evenodd" clip-rule="evenodd" fill="#444444" d="M16,32C7.17756,32,0,24.82244,0,16S7.17756,0,16,0
	s16,7.17756,16,16S24.82244,32,16,32z M29.49362,18.19017c-0.46754-0.14759-4.23008-1.26975-8.51269-0.58421
	c1.78751,4.912,2.51494,8.91267,2.65499,9.74403C26.70187,25.27686,28.88451,21.99282,29.49362,18.19017z M21.33839,28.60118
	c-0.20327-1.19903-0.99675-5.3778-2.91545-10.36377c-0.03005,0.01024-0.06009,0.01998-0.09014,0.03045
	c-7.70836,2.68605-10.47545,8.03169-10.72139,8.53446C9.92861,28.60929,12.84065,29.68731,16,29.68731
	C17.89316,29.68731,19.69752,29.30012,21.33839,28.60118z M5.84685,25.15866c0.30958-0.52994,4.06031-6.74018,11.10863-9.01846
	c0.17813-0.05757,0.35774-0.11167,0.53853-0.16259c-0.34305-0.77636-0.71674-1.5536-1.108-2.31927
	c-6.82488,2.04251-13.44759,1.95719-14.04552,1.94492c-0.00418,0.13876-0.00696,0.27784-0.00696,0.41759
	C2.33353,19.53095,3.66413,22.73582,5.84685,25.15866z M2.62221,13.22178c0.61126,0.00807,6.24178,0.03252,12.63446-1.6651
	C12.99222,7.53131,10.55004,4.147,10.18975,3.6529C6.36634,5.4563,3.50841,8.98096,2.62221,13.22178z M12.7974,2.73428
	c0.37776,0.50581,2.85989,3.88595,5.09935,8.00051c4.85964-1.82144,6.91685-4.58659,7.16266-4.93669
	C22.646,3.65689,19.47249,2.35436,16,2.35436C14.89733,2.35436,13.82511,2.48656,12.7974,2.73428z M26.5787,7.37847
	c-0.2881,0.38974-2.57823,3.32555-7.63122,5.38855c0.318,0.65097,0.62288,1.31305,0.90669,1.97952
	c0.10059,0.23621,0.19857,0.47129,0.29442,0.70528c4.54735-0.5718,9.06567,0.34462,9.51624,0.43992
	C29.63477,12.66606,28.48211,9.70403,26.5787,7.37847z"/>
</svg>
