<?xml version="1.0" encoding="utf-8"?>
<!-- Generator: Adobe Illustrator 19.1.0, SVG Export Plug-In . SVG Version: 6.00 Build 0)  -->
<!DOCTYPE svg PUBLIC "-//W3C//DTD SVG 1.1//EN" "http://www.w3.org/Graphics/SVG/1.1/DTD/svg11.dtd">
<svg version="1.1" id="Layer_1" xmlns="http://www.w3.org/2000/svg" xmlns:xlink="http://www.w3.org/1999/xlink" x="0px" y="0px"
	 width="32px" height="32px" viewBox="0 0 32 32" enable-background="new 0 0 32 32" xml:space="preserve">
<path fill="#444444" d="M16,0C7.16339,0,0,7.16339,0,16c0,8.83649,7.16339,16,16,16s16-7.16351,16-16C32,7.16339,24.83661,0,16,0z
	 M14.14459,15.73236l-0.03204-0.03088c-0.10181-0.0976-0.27234-0.26099-0.27429-0.44733
	c-0.00104-0.09424,0.0412-0.18475,0.12555-0.26898l1.02551-1.02734l-1.03156-1.02838
	c-0.1651-0.17487-0.09705-0.3941,0.22009-0.71118c0.18329-0.18329,0.34589-0.27625,0.48334-0.27625
	c0.07574,0,0.14471,0.02771,0.19934,0.08008l1.03125,1.03156l1.01984-1.02161c0.17786-0.16388,0.45538-0.08966,0.74304,0.198
	c0.19812,0.19812,0.39667,0.45679,0.17175,0.70013l-1.02557,1.0329l0.98346,0.9837c0.10132,0.11151,0.31091,0.3421-0.10791,0.76978
	c-0.1781,0.18176-0.34705,0.27393-0.50201,0.27393c-0.11383-0.00311-0.21155-0.05383-0.30139-0.15509l-0.97064-0.96747
	c-0.08301,0.08411-0.95331,0.966-1.03027,1.03748c-0.02771,0.02576-0.10602,0.08588-0.23303,0.08588
	C14.4856,15.99127,14.31921,15.90417,14.14459,15.73236z M21.56171,14.01691c-0.13904,1.88458-1.32251,3.62598-3.08893,4.54504
	c-1.03461,0.53766-2.07849,0.73779-3.10229,0.59576c-0.57391-0.07996-0.57776-0.37701-0.53186-1.0415
	c0.06854-0.98737,0.4245-1.00696,0.84113-1.00696c0.01025,0,0.02203,0.00018,0.03088,0c1.62433,0,2.54041-0.77844,3.02399-1.43188
	c0.6394-0.86481,0.77942-1.79645,0.77942-2.08252c-0.00037-0.99957-0.42242-1.95312-1.1582-2.61633
	c-0.74963-0.67609-1.71332-0.98981-2.71594-0.88763c-1.7464,0.18091-3.11456,1.79565-3.11456,3.67621v9.56683
	C12.52533,23.88678,12.1051,24,11.47406,24c-0.63098,0-1.05127-0.11322-1.05127-0.66608v-9.54437
	c0-3.01837,2.25879-5.55463,5.1424-5.77399c1.62756-0.12115,3.22211,0.46857,4.37677,1.62018
	C21.09216,10.78339,21.6825,12.38013,21.56171,14.01691z"/>
</svg>
