<?xml version="1.0" encoding="utf-8"?>
<!-- Generator: Adobe Illustrator 19.1.0, SVG Export Plug-In . SVG Version: 6.00 Build 0)  -->
<!DOCTYPE svg PUBLIC "-//W3C//DTD SVG 1.1//EN" "http://www.w3.org/Graphics/SVG/1.1/DTD/svg11.dtd">
<svg version="1.1" id="Layer_1" xmlns="http://www.w3.org/2000/svg" xmlns:xlink="http://www.w3.org/1999/xlink" x="0px" y="0px"
	 width="32px" height="32px" viewBox="0 0 32 32" enable-background="new 0 0 32 32" xml:space="preserve">
<path fill="#444444" d="M17.06665,11.20003h-4.53328v4.80005h4.53328V16c1.32552-0.00008,2.39998-1.07454,2.39998-2.39998
	C19.46663,12.2745,18.39217,11.20003,17.06665,11.20003z"/>
<path fill="#444444" d="M16,0C7.16341,0,0,7.16341,0,16c0,8.83651,7.16341,16,16,16s16-7.16349,16-16C32,7.16341,24.83659,0,16,0z
	 M17.06665,19.20003h-4.53328V24H9.33333V8l7.73332,0.00008V8c3.09286,0,5.60002,2.50724,5.60002,5.60002
	S20.15951,19.20003,17.06665,19.20003z"/>
</svg>
