<?xml version="1.0" encoding="utf-8"?>
<!-- Generator: Adobe Illustrator 19.1.0, SVG Export Plug-In . SVG Version: 6.00 Build 0)  -->
<!DOCTYPE svg PUBLIC "-//W3C//DTD SVG 1.1//EN" "http://www.w3.org/Graphics/SVG/1.1/DTD/svg11.dtd">
<svg version="1.1" id="Layer_1" xmlns="http://www.w3.org/2000/svg" xmlns:xlink="http://www.w3.org/1999/xlink" x="0px" y="0px"
	 width="32px" height="32px" viewBox="0 0 32 32" enable-background="new 0 0 32 32" xml:space="preserve">
<ellipse fill="#444444" cx="26.40435" cy="11.30125" rx="5.09062" ry="5.07266"/>
<ellipse data-color="color-2" fill="#444444" cx="14.93421" cy="12.74773" rx="4.58265" ry="4.56586"/>
<ellipse fill="#444444" cx="4.53264" cy="14.05062" rx="4.1247" ry="4.10827"/>
<path fill="#444444" d="M4.5328,19.09704C1.91747,19.09704,0,21.39266,0,23.76421v1.59626l0,0
	c0,0.22563,0.18467,0.41094,0.41187,0.41094h0.14624h7.94874h0.14563c0.22797,0,0.41267-0.18531,0.41267-0.41094l0,0v-1.59626
	C9.06515,21.39266,7.14809,19.09704,4.5328,19.09704z"/>
<path data-color="color-2" fill="#444444" d="M14.93405,18.35454c-2.90595,0-5.03686,2.55091-5.03686,5.18624v1.77376l0,0
	c0,0.25091,0.20531,0.45686,0.45779,0.45686h0.1625h8.83251h0.16189c0.25373,0,0.45875-0.20595,0.45875-0.45686l0,0v-1.77376
	C19.97062,20.90546,17.84,18.35454,14.93405,18.35454z"/>
<path fill="#444444" d="M26.40374,17.53077c-3.22877,0-5.59626,2.83408-5.59626,5.7625v1.97062l0,0
	c0,0.27875,0.22813,0.50752,0.50874,0.50752h0.18064h9.81376h0.17936c0.28189,0,0.51002-0.22877,0.51002-0.50752l0,0v-1.97062
	C32,20.36485,29.6328,17.53077,26.40374,17.53077z"/>
</svg>
