<?xml version="1.0" encoding="utf-8"?>
<!-- Generator: Adobe Illustrator 19.1.0, SVG Export Plug-In . SVG Version: 6.00 Build 0)  -->
<!DOCTYPE svg PUBLIC "-//W3C//DTD SVG 1.1//EN" "http://www.w3.org/Graphics/SVG/1.1/DTD/svg11.dtd">
<svg version="1.1" id="Layer_1" xmlns="http://www.w3.org/2000/svg" xmlns:xlink="http://www.w3.org/1999/xlink" x="0px" y="0px"
	 width="32px" height="32px" viewBox="0 0 32 32" enable-background="new 0 0 32 32" xml:space="preserve">
<path fill="#444444" d="M21.15436,16.42242h-2.76935v2.67548h2.76935c0.73883,0,1.33777-0.59894,1.33777-1.33777
	C22.49213,17.02136,21.89319,16.42242,21.15436,16.42242z"/>
<path fill="#444444" d="M22.12836,14.09314c0-0.63837-0.51752-1.15588-1.15588-1.15588h-2.58746v2.31171h2.58746
	C21.61084,15.24896,22.12836,14.73151,22.12836,14.09314z"/>
<path fill="#444444" d="M16,0C7.16345,0,0,7.16345,0,16s7.16345,16,16,16s16-7.16345,16-16S24.83655,0,16,0z M11.99561,20.54126
	C9.28491,20.54126,8,18.2002,8,15.92957s1.44336-4.47083,4.17163-4.47083s3.2915,2.79865,3.2915,2.79865h-0.73926
	c0,0-0.42242-2.0946-2.56989-2.0946c-2.1474,0-3.39709,1.901-3.39709,3.78442c0,1.88336,0.98566,3.92517,3.36194,3.92517
	c2.37622,0,2.69305-2.76349,2.69305-2.76349h0.79205C15.60394,18.04181,14.7063,20.54126,11.99561,20.54126z M21.72937,20.2948
	c-1.09131,0-4.84045,0-4.84045,0v-8.57202c0,0,3.22107,0,4.78766,0c1.56653,0,1.9538,1.36707,1.9538,2.1474
	c0,0.74512-0.21124,1.49615-1.30255,1.83057C23.50128,15.96478,24,16.89178,24,17.9538
	C24,19.18591,22.82068,20.2948,21.72937,20.2948z"/>
</svg>
