<?xml version="1.0" encoding="utf-8"?>
<!-- Generator: Adobe Illustrator 19.1.0, SVG Export Plug-In . SVG Version: 6.00 Build 0)  -->
<!DOCTYPE svg PUBLIC "-//W3C//DTD SVG 1.1//EN" "http://www.w3.org/Graphics/SVG/1.1/DTD/svg11.dtd">
<svg version="1.1" id="Layer_1" xmlns="http://www.w3.org/2000/svg" xmlns:xlink="http://www.w3.org/1999/xlink" x="0px" y="0px"
	 width="32px" height="32px" viewBox="0 0 32 32" enable-background="new 0 0 32 32" xml:space="preserve">
<path fill="#444444" d="M28,0H4C1.79085,0,0,1.79085,0,4v24c0,2.20915,1.79085,4,4,4h24c2.20915,0,4-1.79085,4-4V4
	C32,1.79085,30.20915,0,28,0z M11.58203,23.98543H8.26318V13.31755h3.31885V23.98543z M9.9235,11.86003
	C8.85864,11.86003,8,10.99862,8,9.93717c0-1.0612,0.85864-1.92261,1.9235-1.92261c1.06063,0,1.92171,0.86141,1.92171,1.92261
	C11.84521,10.99862,10.98413,11.86003,9.9235,11.86003z M24,23.98543h-3.31527v-5.18783c0-1.23706-0.02124-2.82853-1.72274-2.82853
	c-1.72526,0-1.98845,1.34831-1.98845,2.73999v5.27637h-3.3116V13.31755h3.17822v1.45841h0.04549
	c0.44206-0.8387,1.52385-1.72314,3.13688-1.72314c3.3571,0,3.97746,2.2089,3.97746,5.08203V23.98543z"/>
</svg>
