<?xml version="1.0" encoding="utf-8"?>
<!-- Generator: Adobe Illustrator 19.1.0, SVG Export Plug-In . SVG Version: 6.00 Build 0)  -->
<!DOCTYPE svg PUBLIC "-//W3C//DTD SVG 1.1//EN" "http://www.w3.org/Graphics/SVG/1.1/DTD/svg11.dtd">
<svg version="1.1" id="Layer_1" xmlns="http://www.w3.org/2000/svg" xmlns:xlink="http://www.w3.org/1999/xlink" x="0px" y="0px"
	 width="32px" height="32px" viewBox="0 0 32 32" enable-background="new 0 0 32 32" xml:space="preserve">
<path fill="#444444" d="M30.18467,14.58642c-3.66135-3.66186-7.32322-7.32192-10.98164-10.98499
	c-0.53499-0.52545-1.03774-1.12555-1.74372-1.42711c-0.70134-0.33304-1.51364-0.38009-2.26667-0.21967
	c-0.65894,0.15164-1.25405,0.51237-1.72987,0.98785C9.34658,7.05996,5.22903,11.17786,1.11155,15.29362
	c-0.4741,0.47288-0.84412,1.06388-0.99533,1.7211c-0.33811,1.18352,0.0861,2.50897,0.95293,3.36065
	c2.90246,2.90376,5.80666,5.8033,8.70784,8.7087c0.64844,0.66108,1.56197,1.04582,2.48883,1.03489
	c2.37418,0.01342,4.74785-0.00172,7.12032,0.00757c1.06801,0.06804,2.14823-0.31334,2.90419-1.07859
	c2.6299-2.62233,5.25223-5.25395,7.88093-7.87791c0.42834-0.43427,0.89202-0.84085,1.24063-1.3448
	c0.64087-0.92274,0.74667-2.165,0.37252-3.2103C31.49205,15.7758,30.79071,15.19702,30.18467,14.58642z M9.62999,19.2616
	c-0.44683,0.53172-1.23298,0.3923-1.83781,0.2982c-0.53293-0.42713-1.02096-0.9223-1.45102-1.45102
	c-0.24857-0.2927,0.06976-0.59847,0.26672-0.80473c2.70843-2.69621,5.40679-5.40386,8.10937-8.10472
	c0.36331-0.35325,0.69214-0.74675,1.09992-1.04995c0.3511-0.17556,0.62238,0.20454,0.8559,0.40606
	c0.49689,0.53009,1.06044,0.99997,1.51613,1.56781c0.23524,0.28058-0.02271,0.60605-0.22845,0.80765
	C15.18094,13.70489,12.40061,16.47843,9.62999,19.2616z M18.15144,25.65116c-0.43178,0.48554-0.88326,0.96264-1.39055,1.36827
	c-0.46532,0.1126-0.96049,0.08654-1.43175,0.0185c-0.45268-0.22931-0.75888-0.66943-1.13011-1.00789
	c-0.2638-0.25709-0.67708-0.64345-0.33647-1.01469c0.57412-0.63751,1.18773-1.24656,1.82276-1.82611
	c0.23645-0.19903,0.58918-0.10081,0.77987,0.11594c0.54265,0.52415,1.0773,1.05837,1.60137,1.60429
	C18.2728,25.0926,18.38496,25.43948,18.15144,25.65116z M17.98931,18.37379c-1.54219,1.54047-3.08894,3.07845-4.62184,4.62812
	c-0.43049,0.52751-1.18774,0.36039-1.77864,0.31171c-0.56828-0.36624-1.01047-0.90717-1.46788-1.39941
	c-0.30483-0.28891-0.01969-0.66693,0.21503-0.88446c1.54391-1.53798,3.08602-3.07552,4.62193-4.62227
	c0.28057-0.27257,0.53336-0.58634,0.87268-0.7938c0.3394-0.1457,0.58798,0.19989,0.8135,0.39393
	c0.51366,0.54979,1.09829,1.03438,1.56653,1.62364C18.41644,17.89332,18.17707,18.18731,17.98931,18.37379z"/>
</svg>
