<?xml version="1.0" encoding="utf-8"?>
<!-- Generator: Adobe Illustrator 19.1.0, SVG Export Plug-In . SVG Version: 6.00 Build 0)  -->
<!DOCTYPE svg PUBLIC "-//W3C//DTD SVG 1.1//EN" "http://www.w3.org/Graphics/SVG/1.1/DTD/svg11.dtd">
<svg version="1.1" id="Layer_1" xmlns="http://www.w3.org/2000/svg" xmlns:xlink="http://www.w3.org/1999/xlink" x="0px" y="0px"
	 width="32px" height="32px" viewBox="0 0 32 32" enable-background="new 0 0 32 32" xml:space="preserve">
<path fill="#444444" d="M31.98772,10.94556c-0.00291-0.0202-0.00798-0.03954-0.01131-0.05974
	c-0.00678-0.03874-0.0139-0.07746-0.02403-0.11533c-0.00592-0.02274-0.01433-0.0446-0.02144-0.06647
	c-0.01099-0.03367-0.02188-0.06734-0.03534-0.10015c-0.00938-0.02273-0.02026-0.04547-0.03072-0.06733
	c-0.01443-0.03113-0.02951-0.06146-0.04675-0.09087c-0.01261-0.02193-0.02607-0.04299-0.03911-0.064
	c-0.01854-0.02866-0.03749-0.05645-0.05817-0.0834c-0.01508-0.02015-0.03104-0.04035-0.04709-0.05974
	c-0.02187-0.02521-0.04461-0.05047-0.06863-0.07407c-0.01798-0.01848-0.03577-0.037-0.05473-0.05387
	c-0.02521-0.02267-0.05128-0.0446-0.07778-0.06561c-0.02059-0.016-0.04083-0.03199-0.06228-0.04713
	c-0.00808-0.00506-0.01508-0.0118-0.02273-0.01687L16.76269,0.23105c-0.46199-0.30803-1.06344-0.30803-1.52548,0L0.61228,9.98096
	C0.60474,9.98603,0.59758,9.99277,0.5896,9.99783c-0.02149,0.01514-0.04169,0.03113-0.06189,0.04713
	c-0.02694,0.02101-0.05307,0.04294-0.07785,0.06561c-0.01934,0.01687-0.03701,0.03539-0.05516,0.05387
	c-0.02392,0.0236-0.04666,0.04886-0.06815,0.07407c-0.01637,0.01939-0.03237,0.0396-0.04756,0.05974
	c-0.0202,0.02694-0.0396,0.05473-0.05765,0.0834c-0.0139,0.02101-0.02693,0.04207-0.03954,0.064
	c-0.01686,0.02941-0.03199,0.05974-0.04676,0.09087c-0.0105,0.02187-0.02145,0.0446-0.0307,0.06733
	c-0.01347,0.03281-0.0244,0.06648-0.03535,0.10015c-0.00716,0.02187-0.01514,0.04373-0.02149,0.06647
	c-0.01007,0.03788-0.0168,0.0766-0.02397,0.11533c-0.00333,0.0202-0.0084,0.03954-0.01093,0.05974
	C0.00458,11.00444,0,11.06424,0,11.12484v9.74991c0,0.06056,0.00458,0.12034,0.0126,0.18014
	c0.00254,0.0194,0.0076,0.03954,0.01093,0.05883c0.00717,0.03879,0.0139,0.07747,0.02397,0.11539
	c0.00635,0.02274,0.01433,0.04461,0.02149,0.06648c0.01094,0.03362,0.02188,0.06733,0.03535,0.10095
	c0.00926,0.02285,0.0202,0.04471,0.0307,0.06658c0.01476,0.03103,0.0299,0.06131,0.04676,0.09169
	c0.01261,0.02112,0.02564,0.04202,0.03954,0.06314c0.01805,0.02865,0.03744,0.05645,0.05765,0.08338
	c0.01519,0.02101,0.03119,0.0404,0.04756,0.05969c0.02149,0.02521,0.04423,0.05053,0.06815,0.07413
	c0.01815,0.01842,0.03582,0.03696,0.05516,0.05376c0.02478,0.02284,0.0509,0.04471,0.07785,0.06572
	c0.0202,0.01605,0.0404,0.03201,0.06189,0.04709c0.00798,0.00506,0.01514,0.01185,0.02268,0.0168l14.62492,9.75002
	c0.23099,0.15396,0.49701,0.23143,0.76296,0.23143c0.26553,0,0.53143-0.07747,0.76253-0.23143l14.62493-9.75002
	c0.00765-0.00495,0.01465-0.01174,0.02273-0.0168c0.02145-0.01508,0.04169-0.03103,0.06228-0.04709
	c0.0265-0.02101,0.05257-0.04288,0.07778-0.06572c0.01896-0.0168,0.03675-0.03534,0.05473-0.05376
	c0.02403-0.0236,0.04677-0.04892,0.06863-0.07413c0.01605-0.01929,0.03201-0.03868,0.04709-0.05969
	c0.02069-0.02693,0.03964-0.05473,0.05817-0.08338c0.01304-0.02112,0.0265-0.04202,0.03911-0.06314
	c0.01724-0.03038,0.03232-0.06066,0.04675-0.09169c0.01046-0.02187,0.02134-0.04373,0.03072-0.06658
	c0.01346-0.03362,0.02435-0.06733,0.03534-0.10095c0.00711-0.02188,0.01551-0.04374,0.02144-0.06648
	c0.01013-0.03792,0.01724-0.0766,0.02403-0.11539c0.00333-0.01929,0.0084-0.03943,0.01131-0.05883
	C31.99527,20.99509,32,20.93531,32,20.87475v-9.74991C32,11.06424,31.99527,11.00444,31.98772,10.94556z M17.37508,3.94452
	l10.77377,7.18198l-4.8123,3.21938l-5.96146-3.98783V3.94452z M14.62486,3.94452v6.41353l-5.96113,3.98783l-4.81269-3.21938
	L14.62486,3.94452z M2.75016,13.69869l3.44035,2.3011l-3.44035,2.30116V13.69869z M14.62486,28.05507L3.85105,20.87303
	l4.81269-3.2185l5.96113,3.98701V28.05507z M16.00016,19.25284l-4.86359-3.25305l4.86359-3.25304l4.86322,3.25304L16.00016,19.25284
	z M17.37508,28.05507v-6.41353l5.96146-3.98701l4.8123,3.2185L17.37508,28.05507z M29.24973,18.30095l-3.43992-2.30116
	l3.43992-2.3011V18.30095z"/>
</svg>
