<?xml version="1.0" encoding="utf-8"?>
<!-- Generator: Adobe Illustrator 19.1.0, SVG Export Plug-In . SVG Version: 6.00 Build 0)  -->
<!DOCTYPE svg PUBLIC "-//W3C//DTD SVG 1.1//EN" "http://www.w3.org/Graphics/SVG/1.1/DTD/svg11.dtd">
<svg version="1.1" id="Layer_1" xmlns="http://www.w3.org/2000/svg" xmlns:xlink="http://www.w3.org/1999/xlink" x="0px" y="0px"
	 width="32px" height="32px" viewBox="0 0 32 32" enable-background="new 0 0 32 32" xml:space="preserve">
<path fill="#444444" d="M28,0H4C1.79085,0,0,1.79085,0,4v24c0,2.20915,1.79085,4,4,4h24c2.20915,0,4-1.79085,4-4V4
	C32,1.79085,30.20915,0,28,0z M10.22616,18.97119c-0.0734-0.14315-0.12435-0.38224-0.15544-0.66968
	c-0.08781-0.87077,0.01937-2.18213,0.27336-2.59871c0.11955-0.19246,0.29362-0.29272,0.48771-0.28516
	c0.12769,0.00171,0.24072,0.0437,2.76367,1.10815c0.00187,0,0.7373,0.30697,0.7373,0.30697
	c0.26628,0.10172,0.42847,0.38542,0.41195,0.70557c-0.01758,0.31307-0.19271,0.55794-0.4528,0.625
	c-0.00431,0.00236-1.04801,0.34229-1.04801,0.34229c-2.34782,0.77254-2.42546,0.79476-2.55021,0.78776
	C10.49862,19.28662,10.32764,19.16886,10.22616,18.97119z M16.04069,20.90723c-0.00667,2.52336-0.01147,2.60669-0.05225,2.72738
	c-0.06795,0.18807-0.22583,0.31339-0.44442,0.35449c-0.6276,0.10938-2.59351-0.63029-3.00293-1.12939
	c-0.08293-0.10319-0.13224-0.21493-0.14282-0.32682c-0.00952-0.07902,0.00163-0.15682,0.02783-0.23177
	c0.04313-0.1259,0.11597-0.22388,1.88452-2.34741c0.00204,0,0.51628-0.62508,0.51628-0.62508
	c0.17586-0.22477,0.4895-0.2959,0.78092-0.18131c0.28418,0.11255,0.45597,0.36092,0.43962,0.63346
	C16.04671,19.7924,16.04069,20.90723,16.04069,20.90723z M15.61654,15.63159c-0.12695,0.04053-0.51562,0.163-0.99251-0.62736
	c0,0-3.22453-5.18783-3.29989-5.34798c-0.04631-0.17952,0.01123-0.38363,0.16569-0.54867
	c0.48283-0.50895,3.08439-1.25505,3.76432-1.08211c0.22258,0.05746,0.37622,0.20174,0.43091,0.40348
	c0.03752,0.22331,0.35498,5.03711,0.40055,6.11784C16.12964,15.46891,15.74333,15.59139,15.61654,15.63159z M17.25936,15.89079
	c0.00789-0.00838,0.6534-0.9078,0.6534-0.9078c1.42757-1.99731,1.50366-2.1005,1.60677-2.16968
	c0.1652-0.11369,0.36597-0.12036,0.56592-0.02181c0.56502,0.28247,1.71313,2.02498,1.78149,2.69442
	c0.00122,0.00838,0,0.01514,0,0.02271c0.01383,0.22705-0.06706,0.41341-0.22852,0.52417
	c-0.10539,0.07056-0.20809,0.10612-2.87484,0.76644c-0.42822,0.10409-0.66357,0.16268-0.79484,0.21403
	c0.00301-0.00383,0.01408-0.02311,0.01408-0.02311c-0.2666,0.07585-0.55786-0.05566-0.72974-0.32446
	C17.0874,16.40601,17.08911,16.10189,17.25936,15.89079z M19.97518,22.75651c-0.2054,0.08512-0.40259,0.06445-0.55746-0.06038
	c-0.10067-0.08016-0.20662-0.24373-1.59985-2.55819l-0.41455-0.68921c-0.15845-0.2478-0.12769-0.57316,0.07015-0.82064
	c0.19116-0.24235,0.47615-0.33325,0.72469-0.2347c0.01343,0.00667,1.04264,0.35449,1.04264,0.35449
	c2.34603,0.78768,2.42269,0.81779,2.52197,0.89412c0.15161,0.12362,0.22046,0.31779,0.18945,0.54313
	C21.86141,20.83236,20.56763,22.51481,19.97518,22.75651z"/>
</svg>
