<?xml version="1.0" encoding="utf-8"?>
<!-- Generator: Adobe Illustrator 19.1.0, SVG Export Plug-In . SVG Version: 6.00 Build 0)  -->
<!DOCTYPE svg PUBLIC "-//W3C//DTD SVG 1.1//EN" "http://www.w3.org/Graphics/SVG/1.1/DTD/svg11.dtd">
<svg version="1.1" id="Layer_1" xmlns="http://www.w3.org/2000/svg" xmlns:xlink="http://www.w3.org/1999/xlink" x="0px" y="0px"
	 width="32px" height="32px" viewBox="0 0 32 32" enable-background="new 0 0 32 32" xml:space="preserve">
<path fill="#444444" d="M14.11245,22.94607l-1.17312-3.18879c0,0-1.90624,2.12599-4.76494,2.12599
	c-2.52945,0-4.32543-2.19936-4.32543-5.7183c0-4.50849,2.2724-6.12134,4.50865-6.12134c3.2254,0,4.25171,2.08931,5.13156,4.76522
	l1.17312,3.66553c1.17271,3.55535,3.37207,6.41432,9.71325,6.41432c4.54552,0,7.62447-1.39273,7.62447-5.05807
	c0-2.96902-1.68641-4.5087-4.83873-5.24182l-2.34581-0.51316c-1.61263-0.36657-2.08911-1.02632-2.08911-2.126
	c0-1.24628,0.98942-1.9794,2.60247-1.9794c1.75944,0,2.71239,0.6599,2.85912,2.23606l3.66532-0.43993
	c-0.29318-3.29891-2.56565-4.6551-6.30461-4.6551c-3.29878,0-6.52446,1.24628-6.52446,5.24161
	c0,2.49256,1.2096,4.06878,4.25166,4.8019l2.49289,0.58632c1.86936,0.43999,2.49222,1.20967,2.49222,2.27273
	c0,1.35599-1.31944,1.9059-3.81207,1.9059c-3.70216,0-5.24142-1.94265-6.12134-4.61856l-1.2096-3.66526
	c-1.53926-4.76521-3.99534-6.52464-8.87061-6.52464C2.85919,7.11129,0,10.52011,0,16.31158
	c0,5.5717,2.85919,8.57713,7.99104,8.57713C12.13284,24.88871,14.11245,22.94607,14.11245,22.94607L14.11245,22.94607z"/>
</svg>
