<?xml version="1.0" encoding="utf-8"?>
<!-- Generator: Adobe Illustrator 19.1.0, SVG Export Plug-In . SVG Version: 6.00 Build 0)  -->
<!DOCTYPE svg PUBLIC "-//W3C//DTD SVG 1.1//EN" "http://www.w3.org/Graphics/SVG/1.1/DTD/svg11.dtd">
<svg version="1.1" id="Layer_1" xmlns="http://www.w3.org/2000/svg" xmlns:xlink="http://www.w3.org/1999/xlink" x="0px" y="0px"
	 width="32px" height="32px" viewBox="0 0 32 32" enable-background="new 0 0 32 32" xml:space="preserve">
<path fill-rule="evenodd" clip-rule="evenodd" fill="#444444" d="M15.99897,0.3951C7.16425,0.3951,0,7.55846,0,16.39603
	c0,7.06838,4.58404,13.06536,10.94257,15.18136c0.80003,0.14674,1.09204-0.34722,1.09204-0.77124
	c0-0.37983-0.01385-1.38602-0.02161-2.72125c-4.45066,0.9669-5.38976-2.14478-5.38976-2.14478
	c-0.72754-1.84835-1.77646-2.34045-1.77646-2.34045c-1.45271-0.99273,0.10991-0.9726,0.10991-0.9726
	c1.60565,0.11315,2.45075,1.64886,2.45075,1.64886c1.42727,2.44505,3.74473,1.73903,4.65643,1.32944
	c0.14537-1.03399,0.55869-1.73903,1.01582-2.13899c-3.5529-0.40379-7.28801-1.77645-7.28801-7.90769
	c0-1.74669,0.62342-3.17494,1.6469-4.2934C7.27406,10.86051,6.725,9.23374,7.59544,7.03091c0,0,1.34339-0.43021,4.39987,1.64022
	c1.27621-0.35488,2.64493-0.53237,4.00561-0.53855c1.35871,0.00619,2.72754,0.18368,4.00561,0.53855
	c3.05462-2.07043,4.39555-1.64022,4.39555-1.64022c0.8729,2.20284,0.32374,3.8296,0.15922,4.23437
	c1.02544,1.11846,1.64464,2.54671,1.64464,4.2934c0,6.14657-3.7409,7.49909-7.3053,7.89522
	c0.5745,0.49396,1.08624,1.47049,1.08624,2.96298c0,2.13899-0.01965,3.86466-0.01965,4.38927
	c0,0.42786,0.28819,0.92565,1.10019,0.76937C27.41978,29.45559,32,23.46255,32,16.39603C32,7.55846,24.83565,0.3951,15.99897,0.3951
	z"/>
</svg>
