<?xml version="1.0" encoding="utf-8"?>
<!-- Generator: Adobe Illustrator 19.1.0, SVG Export Plug-In . SVG Version: 6.00 Build 0)  -->
<!DOCTYPE svg PUBLIC "-//W3C//DTD SVG 1.1//EN" "http://www.w3.org/Graphics/SVG/1.1/DTD/svg11.dtd">
<svg version="1.1" id="Layer_1" xmlns="http://www.w3.org/2000/svg" xmlns:xlink="http://www.w3.org/1999/xlink" x="0px" y="0px"
	 width="32px" height="32px" viewBox="0 0 32 32" enable-background="new 0 0 32 32" xml:space="preserve">
<path fill="#444444" d="M28,0H4C1.79085,0,0,1.79085,0,4v24c0,2.20915,1.79085,4,4,4h24c2.20915,0,4-1.79085,4-4V4
	C32,1.79085,30.20915,0,28,0z M20.15454,10.65601l-1.5061,0.00065c-1.18099,0-1.40967,0.5612-1.40967,1.38468v1.816h2.81657
	l-0.3667,2.84432h-2.44987V24h-2.93726v-7.29834h-2.45605v-2.84432h2.45605v-2.09766C14.30151,9.32544,15.78833,8,17.9598,8
	C19,8,19.89396,8.07739,20.15454,8.11206V10.65601z"/>
</svg>
