<?xml version="1.0" encoding="utf-8"?>
<!-- Generator: Adobe Illustrator 19.2.1, SVG Export Plug-In . SVG Version: 6.00 Build 0)  -->
<!DOCTYPE svg PUBLIC "-//W3C//DTD SVG 1.1//EN" "http://www.w3.org/Graphics/SVG/1.1/DTD/svg11.dtd">
<svg version="1.1" id="Layer_1" xmlns="http://www.w3.org/2000/svg" xmlns:xlink="http://www.w3.org/1999/xlink" x="0px" y="0px"
	 width="32px" height="32px" viewBox="0 0 32 32" enable-background="new 0 0 32 32" xml:space="preserve">
<path d="M20,10h-8c-0.935,0-2,1.065-2,2v8c0,0.953,1.047,2,2,2h8c0.935,0,2-1.065,2-2v-8C22,11.065,20.935,10,20,10z M16,20
	c-2.206,0-4-1.794-4-4s1.794-4,4-4s4,1.794,4,4S18.206,20,16,20z M20.145,12.852c-0.53,0-0.96-0.43-0.96-0.96
	c0-0.53,0.43-0.96,0.96-0.96c0.53,0,0.96,0.43,0.96,0.96C21.105,12.422,20.675,12.852,20.145,12.852z"/>
<circle cx="16" cy="16" r="2"/>
<path d="M28,0H4C1.791,0,0,1.791,0,4v24c0,2.209,1.791,4,4,4h24c2.209,0,4-1.791,4-4V4C32,1.791,30.209,0,28,0z M24,20
	c0,2.056-1.944,4-4,4h-8c-2.056,0-4-1.944-4-4v-8c0-2.056,1.944-4,4-4h8c2.056,0,4,1.944,4,4V20z"/>
</svg>
