<?xml version="1.0" encoding="utf-8"?>
<!-- Generator: Adobe Illustrator 19.1.0, SVG Export Plug-In . SVG Version: 6.00 Build 0)  -->
<!DOCTYPE svg PUBLIC "-//W3C//DTD SVG 1.1//EN" "http://www.w3.org/Graphics/SVG/1.1/DTD/svg11.dtd">
<svg version="1.1" id="Layer_1" xmlns="http://www.w3.org/2000/svg" xmlns:xlink="http://www.w3.org/1999/xlink" x="0px" y="0px"
	 width="32px" height="32px" viewBox="0 0 32 32" enable-background="new 0 0 32 32" xml:space="preserve">
<path fill="#444444" d="M16,0C7.16341,0,0,7.16341,0,16c0,8.83651,7.16341,16,16,16s16-7.16349,16-16C32,7.16341,24.83659,0,16,0z
	 M22.36206,12.73706c0.00627,0.14079,0.00952,0.28231,0.00952,0.42464c0,4.33781-3.30176,9.33968-9.33968,9.33968
	c-1.85376,0-3.57918-0.54338-5.0319-1.47477c0.25675,0.03036,0.51807,0.0459,0.78304,0.0459
	c1.53792,0,2.95337-0.52482,4.07682-1.40519c-1.43644-0.02653-2.64876-0.97559-3.06649-2.27971
	c0.20044,0.03825,0.40609,0.05884,0.61759,0.05884c0.2994,0,0.58936-0.04012,0.86483-0.11507
	c-1.50163-0.30151-2.63314-1.62826-2.63314-3.21875c0-0.01383,0-0.02759,0.00024-0.04126
	c0.44263,0.24585,0.94873,0.39355,1.48682,0.41056c-0.88078-0.5887-1.46029-1.59342-1.46029-2.73226
	c0-0.60156,0.16187-1.16545,0.44442-1.65031c1.61906,1.986,4.03776,3.29289,6.76595,3.42977
	c-0.05599-0.24023-0.08504-0.4908-0.08504-0.74805c0-1.81283,1.46981-3.28255,3.28272-3.28255
	c0.94409,0,1.7972,0.39868,2.396,1.03662c0.7478-0.14722,1.45028-0.42041,2.08447-0.79655
	c-0.24504,0.76652-0.76554,1.40983-1.44328,1.81608c0.66406-0.07935,1.29663-0.25586,1.88534-0.51693
	C23.5599,11.69604,23.00334,12.27425,22.36206,12.73706z"/>
</svg>
