<?xml version="1.0" encoding="utf-8"?>
<!-- Generator: Adobe Illustrator 19.1.0, SVG Export Plug-In . SVG Version: 6.00 Build 0)  -->
<!DOCTYPE svg PUBLIC "-//W3C//DTD SVG 1.1//EN" "http://www.w3.org/Graphics/SVG/1.1/DTD/svg11.dtd">
<svg version="1.1" id="Layer_1" xmlns="http://www.w3.org/2000/svg" xmlns:xlink="http://www.w3.org/1999/xlink" x="0px" y="0px"
	 width="32px" height="32px" viewBox="0 0 32 32" enable-background="new 0 0 32 32" xml:space="preserve">
<path fill="#444444" d="M16.00007,0.00011C7.16353,0.00011,0,7.16348,0,15.99999c0,6.77828,4.21722,12.56779,10.16917,14.89908
	c-0.13995-1.26591-0.26616-3.20761,0.05552-4.58985c0.29055-1.24846,1.8762-7.95309,1.8762-7.95309
	s-0.47871-0.95823-0.47871-2.37519c0-2.22473,1.2896-3.88566,2.89514-3.88566c1.36506,0,2.02446,1.02493,2.02446,2.25379
	c0,1.37277-0.87397,3.42522-1.32517,5.32705c-0.37688,1.59285,0.79867,2.89169,2.36933,2.89169
	c2.84391,0,5.02977-2.99881,5.02977-7.32706c0-3.83083-2.75257-6.50931-6.68331-6.50931c-4.55242,0-7.22458,3.41473-7.22458,6.94345
	c0,1.37518,0.52973,2.84975,1.19069,3.65133c0.13065,0.15853,0.14977,0.29728,0.11087,0.45874
	c-0.12137,0.50567-0.3913,1.59251-0.44425,1.81482c-0.06981,0.29282-0.23197,0.35488-0.53511,0.2139
	c-1.99845-0.93037-3.24774-3.85199-3.24774-6.19845c0-5.04713,3.66713-9.68229,10.5717-9.68229
	c5.55022,0,9.86368,3.95496,9.86368,9.24075c0,5.5143-3.47679,9.95206-8.30243,9.95206c-1.62141,0-3.14548-0.84232-3.66717-1.83734
	c0,0-0.80228,3.05504-0.99669,3.80349c-0.36143,1.38967-1.33655,3.13171-1.98884,4.19446
	c1.49713,0.46347,3.08809,0.71354,4.73754,0.71354C24.83661,31.99989,32,24.83652,32,15.99999
	C32,7.16348,24.83661,0.00011,16.00007,0.00011z"/>
</svg>
