<?xml version="1.0" encoding="utf-8"?>
<!-- Generator: Adobe Illustrator 19.1.0, SVG Export Plug-In . SVG Version: 6.00 Build 0)  -->
<!DOCTYPE svg PUBLIC "-//W3C//DTD SVG 1.1//EN" "http://www.w3.org/Graphics/SVG/1.1/DTD/svg11.dtd">
<svg version="1.1" id="Layer_1" xmlns="http://www.w3.org/2000/svg" xmlns:xlink="http://www.w3.org/1999/xlink" x="0px" y="0px"
	 width="32px" height="32px" viewBox="0 0 32 32" enable-background="new 0 0 32 32" xml:space="preserve">
<path fill="#444444" d="M5.28768,6.19788c0,0,0,0,0.00197,0h3.0032c0.17207,0,0.31048-0.14016,0.31083-0.31094
	c0-0.00108-0.03647-2.57502-0.03647-3.29081V2.58765c0-0.58786,0.12338-1.10041,0.3383-1.5299l0.10269-0.19289
	C8.99673,0.86679,8.98523,0.87242,8.97381,0.88387L3.13855,6.67038c-0.01142,0.0094-0.01856,0.02157-0.02184,0.03407
	c0.12071-0.05974,0.28572-0.14137,0.30902-0.1516C3.93389,6.32354,4.55011,6.19788,5.28768,6.19788z M28.65635,5.56779
	c-0.23857-1.27704-0.9978-1.90637-1.68423-2.1538c-0.74062-0.26765-2.24235-0.54495-4.12919-0.76733
	c-1.518-0.17878-3.3022-0.16456-4.37991-0.13122c-0.12936-0.88595-0.75078-1.69532-1.44606-1.97553
	c-1.85258-0.74566-4.7149-0.56553-5.44981-0.35955c-0.58398,0.16321-1.23034,0.49772-1.5901,1.01315
	C9.73582,1.53779,9.57971,1.97889,9.5785,2.59511c0,0.34878,0.0097,1.17033,0.01859,1.90028
	c0.00883,0.73224,0.01842,1.38713,0.01842,1.39155C9.61516,6.53885,9.08682,7.06939,8.43207,7.07025H5.42838
	c-0.6407,0-1.13025,0.10765-1.50418,0.27757c-0.37452,0.17005-0.63978,0.3993-0.84132,0.67051
	c-0.40119,0.53854-0.47083,1.20316-0.46917,1.8814c0,0,0.00592,0.55422,0.13943,1.62691
	c0.11102,0.83003,1.01113,6.62835,1.8661,8.39178c0.33149,0.68614,0.55228,0.97189,1.20353,1.27429
	c1.45104,0.62122,4.76545,1.31237,6.31884,1.51027c1.55059,0.19839,2.5238,0.61546,3.10382-0.6006
	c0.00194-0.00301,0.11618-0.30256,0.27331-0.74193c0.50353-1.52584,0.57361-2.87968,0.57361-3.85939
	c0-0.09959,0.14616-0.10417,0.14616,0c0,0.69168-0.13208,3.13932,1.71684,3.79599c0.7299,0.25887,2.24407,0.48963,3.7826,0.66997
	c1.39112,0.15987,2.40069,0.70731,2.40069,4.27635c0,2.17141-0.45607,2.46913-2.84033,2.46913
	c-1.93274,0-2.66934,0.05004-2.66934-1.48544c0-1.241,1.22737-1.11091,2.13704-1.11091c0.4063,0,0.11139-0.30224,0.11139-1.06788
	c0-0.7616,0.47633-1.20189,0.0258-1.21304c-3.14553-0.08657-4.99634-0.00361-4.99634,3.93032
	c0,3.57131,1.36669,4.23444,5.83109,4.23444c3.50031,0,4.73418-0.11462,6.17951-4.59911
	c0.28608-0.88527,0.97771-3.58699,1.39632-8.12313C29.57833,16.40955,29.06416,7.75269,28.65635,5.56779z M22.55462,15.13634
	c-0.43246-0.01514-0.84841,0.01217-1.23623,0.0745c0.10913-0.88159,0.47304-1.96333,1.76206-1.91806
	c1.42694,0.04907,1.62689,1.39777,1.63198,2.31128C24.11072,15.3358,23.3659,15.16483,22.55462,15.13634z"/>
</svg>
