<?xml version="1.0" encoding="utf-8"?>
<!-- Generator: Adobe Illustrator 19.1.0, SVG Export Plug-In . SVG Version: 6.00 Build 0)  -->
<!DOCTYPE svg PUBLIC "-//W3C//DTD SVG 1.1//EN" "http://www.w3.org/Graphics/SVG/1.1/DTD/svg11.dtd">
<svg version="1.1" id="Layer_1" xmlns="http://www.w3.org/2000/svg" xmlns:xlink="http://www.w3.org/1999/xlink" x="0px" y="0px"
	 width="32px" height="32px" viewBox="0 0 32 32" enable-background="new 0 0 32 32" xml:space="preserve">
<path fill="#444444" d="M17.42749,15.08464l-1.76725-0.39217c-0.67179-0.15332-1.4458-0.35555-1.4458-0.98934
	c0-0.63493,0.54289-1.07869,1.52279-1.07869c1.97461,0,1.79394,1.35685,2.77441,1.35685c0.51587,0,0.96745-0.30322,0.96745-0.82471
	c0-1.21712-1.94792-2.13021-3.6001-2.13021c-1.79378,0-3.70378,0.76156-3.70378,2.79036c0,0.97705,0.34888,2.01644,2.27157,2.49854
	l2.38737,0.59603c0.72258,0.17806,0.9034,0.58455,0.9034,0.95109c0,0.6097-0.60596,1.20548-1.70288,1.20548
	c-2.14315,0-1.8457-1.64941-2.99438-1.64941c-0.51619,0-0.89062,0.35547-0.89062,0.86279c0,0.9891,1.20068,2.30868,3.88501,2.30868
	c2.55387,0,3.81909-1.23096,3.81909-2.87948C19.85376,16.64583,19.36304,15.51571,17.42749,15.08464z"/>
<path fill="#444444" d="M28,0H4C1.79085,0,0,1.79085,0,4v24c0,2.20915,1.79085,4,4,4h24c2.20915,0,4-1.79085,4-4V4
	C32,1.79085,30.20915,0,28,0z M22.69002,22.6709c-0.84481,0.8453-1.96745,1.3099-3.16219,1.3099
	c-0.77344,0-1.53117-0.20117-2.20028-0.57975c-0.43424,0.07707-0.87915,0.11743-1.32308,0.11743
	c-1.02002,0-2.00977-0.19971-2.94092-0.59464c-0.90023-0.37956-1.70793-0.92497-2.40202-1.61857
	c-0.6936-0.69369-1.23844-1.50138-1.61857-2.40145c-0.39437-0.93156-0.59408-1.92098-0.59408-2.94092
	c0-0.43693,0.03931-0.87427,0.11377-1.30225C8.19548,14.00008,8,13.2526,8,12.49219c0-1.19474,0.46541-2.31812,1.30998-3.16276
	c0.84481-0.84505,1.96794-1.3103,3.16268-1.3103c0.73193,0,1.45475,0.18254,2.09758,0.52433
	c0.0013-0.00033,0.0035-0.00057,0.0035-0.00057c0.46867-0.08984,0.94995-0.13501,1.43075-0.13501
	c1.01969,0,2.00928,0.19954,2.94043,0.59367c0.89941,0.38053,1.70784,0.92505,2.4012,1.6189
	c0.69434,0.69377,1.23877,1.50179,1.6193,2.40161c0.39445,0.93132,0.59416,1.92082,0.59416,2.94084
	c0,0.45988-0.04338,0.92-0.12573,1.36938C23.80355,17.99544,24,18.74544,24,19.50838
	C24,20.70321,23.53507,21.82666,22.69002,22.6709z"/>
</svg>
