<?xml version="1.0" encoding="utf-8"?>
<!-- Generator: Adobe Illustrator 19.1.0, SVG Export Plug-In . SVG Version: 6.00 Build 0)  -->
<!DOCTYPE svg PUBLIC "-//W3C//DTD SVG 1.1//EN" "http://www.w3.org/Graphics/SVG/1.1/DTD/svg11.dtd">
<svg version="1.1" id="Layer_1" xmlns="http://www.w3.org/2000/svg" xmlns:xlink="http://www.w3.org/1999/xlink" x="0px" y="0px"
	 width="32px" height="32px" viewBox="0 0 32 32" enable-background="new 0 0 32 32" xml:space="preserve">
<path fill="#444444" d="M28,0H4C1.79085,0,0,1.79085,0,4v24c0,2.20915,1.79085,4,4,4h24c2.20915,0,4-1.79085,4-4V4
	C32,1.79085,30.20915,0,28,0z M10.33195,24C9.04403,24,8,22.95589,8,21.66797s1.04403-2.33195,2.33195-2.33195
	s2.33203,1.04403,2.33203,2.33195S11.61987,24,10.33195,24z M16.09733,24c0-4.46517-3.63216-8.09741-8.09733-8.09741v-2.46151
	c5.8221,0,10.55892,4.73682,10.55892,10.55892H16.09733z M21.53849,24c0-7.46517-6.07332-13.53849-13.53849-13.53849V8
	c8.8221,0,16,7.1779,16,16H21.53849z"/>
</svg>
