<?xml version="1.0" encoding="utf-8"?>
<!-- Generator: Adobe Illustrator 19.1.0, SVG Export Plug-In . SVG Version: 6.00 Build 0)  -->
<!DOCTYPE svg PUBLIC "-//W3C//DTD SVG 1.1//EN" "http://www.w3.org/Graphics/SVG/1.1/DTD/svg11.dtd">
<svg version="1.1" id="Layer_1" xmlns="http://www.w3.org/2000/svg" xmlns:xlink="http://www.w3.org/1999/xlink" x="0px" y="0px"
	 width="32px" height="32px" viewBox="0 0 32 32" enable-background="new 0 0 32 32" xml:space="preserve">
<path fill="#444444" d="M4.68809,15.40558c-0.50788,0.8332-0.72222,3.4559-0.54667,5.19747
	c0.06213,0.57496,0.16416,1.05309,0.31092,1.33937c0.2029,0.39535,0.54492,0.63084,0.93507,0.64429
	c0.24939,0.014,0.4047-0.03034,5.10035-1.57551c0,0,2.08739-0.67983,2.09614-0.68448
	c0.52017-0.13412,0.87039-0.6239,0.90553-1.25009c0.03299-0.64019-0.29128-1.20755-0.82395-1.41105
	c0,0-1.47089-0.61395-1.47459-0.61395c-5.04591-2.12888-5.27195-2.2128-5.52729-2.21625
	C5.27544,14.82022,4.92718,15.02077,4.68809,15.40558z"/>
<path fill="#444444" d="M15.97686,31.26928c0.08153-0.24139,0.09123-0.40815,0.10458-5.45471c0,0,0.012-2.22965,0.01345-2.25294
	c0.03274-0.54522-0.31092-1.04194-0.87923-1.26704c-0.58281-0.22915-1.2101-0.08688-1.56182,0.36266
	c0,0-1.02855,1.25014-1.0325,1.25014c-3.53718,4.24711-3.68279,4.44301-3.76917,4.69489
	c-0.05244,0.14981-0.07468,0.30552-0.05559,0.46349c0.02114,0.22389,0.11972,0.44729,0.28558,0.65369
	c0.81885,0.99815,4.75068,2.47749,6.00582,2.25879C15.52517,31.89607,15.84094,31.64534,15.97686,31.26928z"/>
<path fill="#444444" d="M23.9503,29.51306c1.18501-0.48338,3.77247-3.84835,3.95413-5.14273
	c0.06203-0.45069-0.07558-0.83904-0.37881-1.08628c-0.19865-0.15271-0.35201-0.2128-5.04396-1.78826
	c0,0-2.05849-0.69563-2.08529-0.70903c-0.49708-0.1971-1.06704-0.0152-1.44949,0.46943
	c-0.39555,0.49498-0.45714,1.14567-0.14026,1.64135l0.8291,1.37836c2.78642,4.62896,2.99846,4.95613,3.19966,5.11644
	C23.1452,29.64193,23.53955,29.68327,23.9503,29.51306L23.9503,29.51306z"/>
<path fill="#444444" d="M21.52724,17.59854c5.33344-1.32068,5.53889-1.39181,5.74959-1.53292
	c0.32287-0.22155,0.48473-0.59415,0.45714-1.04839c0-0.01515,0.0023-0.02854,0-0.04539
	c-0.13682-1.33877-2.43305-4.82381-3.56307-5.38882c-0.3999-0.1971-0.80145-0.18365-1.13177,0.04369
	c-0.2063,0.13827-0.35846,0.34467-3.21361,4.33928c0,0-1.29103,1.79881-1.30673,1.8157
	c-0.34057,0.4221-0.34402,1.0303-0.01255,1.54977c0.34372,0.53762,0.92622,0.80055,1.45944,0.64894
	c0,0-0.02219,0.03854-0.02814,0.04614C20.20002,17.92386,20.6708,17.80669,21.52724,17.59854z"/>
<path fill="#444444" d="M16.17121,13.0937L16.17121,13.0937c-0.09118-2.16147-0.72612-11.7892-0.8011-12.23579
	c-0.10942-0.4035-0.41665-0.69208-0.86184-0.807C13.1485-0.29486,7.94533,1.19727,6.97972,2.21527
	C6.6708,2.54534,6.55563,2.95349,6.6483,3.3126c0.15071,0.32017,6.59968,10.69597,6.59968,10.69597
	c0.95392,1.58066,1.73112,1.33577,1.98501,1.25469C15.48668,15.18288,16.25929,14.93794,16.17121,13.0937z"/>
</svg>
