<?xml version="1.0" encoding="utf-8"?>
<!-- Generator: Adobe Illustrator 19.1.0, SVG Export Plug-In . SVG Version: 6.00 Build 0)  -->
<!DOCTYPE svg PUBLIC "-//W3C//DTD SVG 1.1//EN" "http://www.w3.org/Graphics/SVG/1.1/DTD/svg11.dtd">
<svg version="1.1" id="Layer_1" xmlns="http://www.w3.org/2000/svg" xmlns:xlink="http://www.w3.org/1999/xlink" x="0px" y="0px"
	 width="32px" height="32px" viewBox="0 0 32 32" enable-background="new 0 0 32 32" xml:space="preserve">
<path fill="#444444" d="M28,0H4C1.79085,0,0,1.79085,0,4v24c0,2.20915,1.79085,4,4,4h24c2.20915,0,4-1.79085,4-4V4
	C32,1.79085,30.20915,0,28,0z M20.18774,20.44434c-3.17057,0-4.27026-1.42953-4.85661-3.20719l-0.58659-1.83276
	c-0.43986-1.33789-0.95304-2.38257-2.56576-2.38257c-1.11808,0-2.25431,0.8064-2.25431,3.06063
	c0,1.75952,0.89803,2.85921,2.16268,2.85921c1.42936,0,2.38249-1.06299,2.38249-1.06299l0.58659,1.59432
	c0,0-0.98983,0.97135-3.06071,0.97135C9.42961,20.44434,8,18.94165,8,16.15576c0-2.89575,1.42961-4.6001,4.1237-4.6001
	c2.43758,0,3.66561,0.87964,4.4353,3.26229l0.60474,1.8326c0.44002,1.33797,1.20964,2.30933,3.06071,2.30933
	c1.24634,0,1.90601-0.27498,1.90601-0.95296c0-0.53158-0.31144-0.91634-1.24609-1.13639l-1.24642-0.29313
	c-1.52108-0.36654-2.12581-1.1547-2.12581-2.40096c0-1.99764,1.61279-2.62077,3.26221-2.62077
	c1.86947,0,3.0057,0.67806,3.15226,2.32747l-1.8326,0.21997c-0.0734-0.78809-0.54989-1.118-1.42961-1.118
	c-0.80648,0-1.30119,0.36654-1.30119,0.98967c0,0.54989,0.2382,0.87972,1.04452,1.06307l1.17293,0.25651
	C23.15682,15.66097,24,16.43083,24,17.91528C24,19.74796,22.46053,20.44434,20.18774,20.44434z"/>
</svg>
