<?xml version="1.0" encoding="utf-8"?>
<!-- Generator: Adobe Illustrator 19.1.0, SVG Export Plug-In . SVG Version: 6.00 Build 0)  -->
<!DOCTYPE svg PUBLIC "-//W3C//DTD SVG 1.1//EN" "http://www.w3.org/Graphics/SVG/1.1/DTD/svg11.dtd">
<svg version="1.1" id="Layer_1" xmlns="http://www.w3.org/2000/svg" xmlns:xlink="http://www.w3.org/1999/xlink" x="0px" y="0px"
	 width="32px" height="32px" viewBox="0 0 32 32" enable-background="new 0 0 32 32" xml:space="preserve">
<path fill="#444444" d="M16,0C7.16341,0,0,7.16341,0,16c0,8.83651,7.16341,16,16,16s16-7.16349,16-16C32,7.16341,24.83659,0,16,0z
	 M24,16.60441c0,1.29476-0.15975,2.58952-0.15975,2.58952s-0.15641,1.10254-0.63607,1.58813
	c-0.6084,0.63729-1.29045,0.64038-1.60319,0.67773C19.36206,21.62158,16,21.62671,16,21.62671s-4.15991-0.038-5.43994-0.16073
	c-0.35612-0.06681-1.1556-0.04663-1.76424-0.68392c-0.47974-0.4856-0.63582-1.58813-0.63582-1.58813S8,17.89917,8,16.60441v-1.21387
	c0-1.29476,0.15999-2.5896,0.15999-2.5896s0.15609-1.10254,0.63582-1.58805c0.60864-0.63729,1.29036-0.64046,1.60319-0.67773
	c2.23901-0.16187,5.59749-0.16187,5.59749-0.16187h0.007c0,0,3.35856,0,5.59749,0.16187
	c0.31274,0.03727,0.99479,0.04045,1.60319,0.67773c0.47965,0.48551,0.63607,1.58805,0.63607,1.58805S24,14.09578,24,15.39054
	V16.60441z"/>
<polygon fill="#444444" points="14.34823,18.07536 18.67074,15.83537 14.34749,13.57975 "/>
</svg>
