<?xml version="1.0" encoding="utf-8"?>
<!-- Generator: Adobe Illustrator 19.1.0, SVG Export Plug-In . SVG Version: 6.00 Build 0)  -->
<!DOCTYPE svg PUBLIC "-//W3C//DTD SVG 1.1//EN" "http://www.w3.org/Graphics/SVG/1.1/DTD/svg11.dtd">
<svg version="1.1" id="Layer_1" xmlns="http://www.w3.org/2000/svg" xmlns:xlink="http://www.w3.org/1999/xlink" x="0px" y="0px"
	 width="32px" height="32px" viewBox="0 0 32 32" enable-background="new 0 0 32 32" xml:space="preserve">
<path fill="#444444" d="M15.20823,0.17584L0.78017,6.91663c-0.4329,0.20225-0.4311,0.81847,0.00296,1.0182l14.53923,6.68989
	c0.43009,0.19789,0.92519,0.19789,1.35527,0l14.53923-6.68989c0.43407-0.19973,0.43586-0.81595,0.00296-1.0182L16.79177,0.17584
	C16.28995-0.05861,15.71004-0.05861,15.20823,0.17584z"/>
<path data-color="color-2" fill="#444444" d="M31.21983,15.56811l-2.9798-1.39217c-0.43191-0.20179-0.93075-0.20324-1.36383-0.00397
	l-10.19856,4.69263c-0.43009,0.19789-0.92519,0.19789-1.35527,0L5.12381,14.17198c-0.43308-0.19927-0.93192-0.19782-1.36383,0.00397
	l-2.9798,1.39217c-0.4329,0.20225-0.4311,0.81847,0.00296,1.0182l14.53923,6.68989c0.43009,0.1979,0.92518,0.1979,1.35527,0
	l14.53923-6.68989C31.65093,16.38659,31.65273,15.77036,31.21983,15.56811z"/>
<path data-color="color-2" fill="#444444" d="M31.21983,24.14349l-2.9798-1.39217c-0.43191-0.20179-0.93075-0.20324-1.36383-0.00397
	l-10.19856,4.69263c-0.43009,0.19789-0.92519,0.19789-1.35527,0L5.12381,22.74736c-0.43308-0.19927-0.93192-0.19782-1.36383,0.00397
	l-2.9798,1.39217c-0.4329,0.20225-0.4311,0.81847,0.00296,1.0182l14.53923,6.68989c0.43009,0.1979,0.92518,0.1979,1.35527,0
	l14.53923-6.68989C31.65093,24.96196,31.65273,24.34574,31.21983,24.14349z"/>
</svg>
