<?xml version="1.0" encoding="utf-8"?>
<!-- Generator: Adobe Illustrator 19.1.0, SVG Export Plug-In . SVG Version: 6.00 Build 0)  -->
<!DOCTYPE svg PUBLIC "-//W3C//DTD SVG 1.1//EN" "http://www.w3.org/Graphics/SVG/1.1/DTD/svg11.dtd">
<svg version="1.1" id="Layer_1" xmlns="http://www.w3.org/2000/svg" xmlns:xlink="http://www.w3.org/1999/xlink" x="0px" y="0px"
	 width="32px" height="32px" viewBox="0 0 32 32" enable-background="new 0 0 32 32" xml:space="preserve">
<path fill="#444444" d="M16.03597,9.33903c-3.63607,0-6.59318,2.95597-6.59465,6.58936
	c-0.00049,1.24504,0.34806,2.45776,1.00789,3.50692l0.15674,0.24935l-0.66593,2.43172l2.49487-0.6543l0.24072,0.14282
	c1.01204,0.60042,2.1722,0.91813,3.35498,0.91854h0.00277c3.63322,0,6.59033-2.95614,6.5918-6.58976
	c0.00065-1.76082-0.68433-3.4165-1.92887-4.66203C19.45174,10.02604,17.79663,9.33968,16.03597,9.33903z M19.91333,18.76147
	c-0.1652,0.46273-0.95687,0.88517-1.33756,0.94206c-0.34147,0.05095-0.77344,0.07227-1.24821-0.07853
	c-0.28776-0.09131-0.6569-0.21322-1.12972-0.41732c-1.98787-0.85807-3.28613-2.85905-3.38517-2.99129
	c-0.09912-0.13224-0.80916-1.07422-0.80916-2.04932c0-0.97502,0.51188-1.45435,0.69352-1.65267
	c0.18164-0.19824,0.39632-0.24788,0.5284-0.24788c0.13216,0,0.2644,0.00122,0.3798,0.007
	c0.12166,0.00602,0.28508-0.04622,0.44588,0.34009c0.16512,0.39665,0.56144,1.37175,0.611,1.47087s0.0826,0.21484,0.01652,0.34709
	c-0.06608,0.13216-0.09912,0.21484-0.19816,0.33048c-0.09912,0.11572-0.20809,0.2583-0.29728,0.34709
	c-0.0992,0.09871-0.20247,0.20597-0.08683,0.4043c0.11556,0.19832,0.51326,0.84709,1.10238,1.3724
	c0.75692,0.67488,1.39543,0.88411,1.59359,0.98323c0.19816,0.0992,0.3138,0.0826,0.42936-0.04956
	c0.11556-0.13224,0.49536-0.57845,0.62744-0.77677c0.13216-0.19832,0.26424-0.16528,0.44588-0.09912
	c0.18164,0.06608,1.15592,0.54533,1.35408,0.64453c0.19816,0.09912,0.33024,0.14868,0.3798,0.23136
	C20.07845,17.9021,20.07845,18.29875,19.91333,18.76147z"/>
<path fill="#444444" d="M28,0H4C1.79085,0,0,1.79085,0,4v24c0,2.20915,1.79085,4,4,4h24c2.20915,0,4-1.79085,4-4V4
	C32,1.79085,30.20915,0,28,0z M16.03337,23.86247h-0.00325c-1.32739-0.00049-2.63159-0.33333-3.79004-0.96501L8.03581,24
	l1.12516-4.10848c-0.69401-1.20231-1.05924-2.56632-1.05867-3.9637C8.10408,11.5564,11.66187,8,16.03329,8
	c2.12158,0.00081,4.11287,0.82658,5.61019,2.32511c1.4974,1.49862,2.32153,3.49056,2.32072,5.60905
	C23.9624,20.30558,20.4043,23.86247,16.03337,23.86247z"/>
</svg>
