<?xml version="1.0" encoding="utf-8"?>
<!-- Generator: Adobe Illustrator 19.1.0, SVG Export Plug-In . SVG Version: 6.00 Build 0)  -->
<!DOCTYPE svg PUBLIC "-//W3C//DTD SVG 1.1//EN" "http://www.w3.org/Graphics/SVG/1.1/DTD/svg11.dtd">
<svg version="1.1" id="Layer_1" xmlns="http://www.w3.org/2000/svg" xmlns:xlink="http://www.w3.org/1999/xlink" x="0px" y="0px"
	 width="32px" height="32px" viewBox="0 0 32 32" enable-background="new 0 0 32 32" xml:space="preserve">
<path data-color="color-2" fill="#444444" d="M11.67647,14.09171c0.00397,0.3727,0.34498,0.69939,0.54867,0.89463l0.064,0.06175
	c0.34933,0.34361,0.68209,0.51782,0.98888,0.51782c0.25409,0,0.41066-0.12018,0.4661-0.17181
	c0.15389-0.14289,1.89459-1.90669,2.06062-2.07494l1.94125,1.93499c0.17971,0.20246,0.37507,0.30392,0.60274,0.31018
	c0.31,0,0.6478-0.18432,1.004-0.5479c0.83766-0.85531,0.41853-1.31648,0.21584-1.53946l-1.96691-1.96752l2.05122-2.06574
	c0.44984-0.48673,0.0527-1.004-0.34352-1.40026c-0.57532-0.57532-1.1304-0.72379-1.48615-0.39596l-2.03962,2.04314l-2.06253-2.06311
	c-0.10929-0.10475-0.24715-0.16012-0.39867-0.16012c-0.27487,0-0.60007,0.18585-0.96666,0.55245
	c-0.63436,0.6342-0.77038,1.07266-0.44021,1.42244l2.06307,2.05677l-2.05092,2.05459
	C11.75896,13.72214,11.67441,13.90318,11.67647,14.09171z"/>
<path fill="#444444" d="M15.13037,0.03118C9.3632,0.46989,4.84561,5.54234,4.84561,11.57914V30.6679
	C4.84561,31.77365,5.68615,32,6.94815,32c1.26202,0,2.10256-0.22635,2.10256-1.3321V11.53427
	c0-3.76118,2.73633-6.99071,6.2291-7.35249c2.00517-0.20433,3.93264,0.42308,5.43183,1.77523
	c1.47154,1.32649,2.31567,3.23353,2.31647,5.23271c0,0.57211-0.28005,2.43546-1.55888,4.16502
	c-0.96713,1.30687-2.79925,2.86375-6.04802,2.86375c-0.01763,0.0004-0.04125,0-0.0617,0c-0.83331,0-1.54524,0.03926-1.68226,2.014
	c-0.09175,1.32891-0.08414,1.92305,1.06368,2.08291c2.04767,0.28406,4.13537-0.11619,6.20466-1.19149
	c3.53282-1.83813,5.89977-5.32085,6.17783-9.09005c0.24159-3.2736-0.9391-6.46708-3.23954-8.76233
	C21.5746,0.96828,18.38554-0.21121,15.13037,0.03118z"/>
</svg>
