<?xml version="1.0" encoding="utf-8"?>
<!-- Generator: Adobe Illustrator 19.1.0, SVG Export Plug-In . SVG Version: 6.00 Build 0)  -->
<!DOCTYPE svg PUBLIC "-//W3C//DTD SVG 1.1//EN" "http://www.w3.org/Graphics/SVG/1.1/DTD/svg11.dtd">
<svg version="1.1" id="Layer_1" xmlns="http://www.w3.org/2000/svg" xmlns:xlink="http://www.w3.org/1999/xlink" x="0px" y="0px"
	 width="32px" height="32px" viewBox="0 0 32 32" enable-background="new 0 0 32 32" xml:space="preserve">
<path fill="#444444" d="M30.66667,0H1.33333C0.59695,0,0,0.59695,0,1.33333v29.33333C0,31.40305,0.59695,32,1.33333,32h29.33333
	C31.40305,32,32,31.40305,32,30.66667V1.33333C32,0.59695,31.40305,0,30.66667,0z M9.49262,27.26738H4.74176V11.99653h4.75086
	V27.26738z M7.1185,9.91013c-1.5243,0-2.75347-1.23305-2.75347-2.75258c0-1.5191,1.22916-2.75218,2.75347-2.75218
	c1.51823,0,2.75084,1.23308,2.75084,2.75218C9.86933,8.67708,8.63673,9.91013,7.1185,9.91013z M27.26871,27.26738h-4.74569v-7.42622
	c0-1.77085-0.0304-4.04907-2.46613-4.04907c-2.4696,0-2.8464,1.93013-2.8464,3.92231v7.55298h-4.74045V11.99653h4.54951v2.08764
	h0.06507c0.6328-1.20053,2.18142-2.46658,4.49049-2.46658c4.80551,0,5.6936,3.16196,5.6936,7.27476V27.26738z"/>
</svg>
