<?xml version="1.0" encoding="utf-8"?>
<!-- Generator: Adobe Illustrator 19.1.0, SVG Export Plug-In . SVG Version: 6.00 Build 0)  -->
<!DOCTYPE svg PUBLIC "-//W3C//DTD SVG 1.1//EN" "http://www.w3.org/Graphics/SVG/1.1/DTD/svg11.dtd">
<svg version="1.1" id="Layer_1" xmlns="http://www.w3.org/2000/svg" xmlns:xlink="http://www.w3.org/1999/xlink" x="0px" y="0px"
	 width="32px" height="32px" viewBox="0 0 32 32" enable-background="new 0 0 32 32" xml:space="preserve">
<path fill="#444444" d="M0.00065,15.9994c0,6.33284,3.67991,11.80623,9.01748,14.39921L1.38604,9.488
	C0.49828,11.47769,0.00065,13.67971,0.00065,15.9994z"/>
<path fill="#444444" d="M26.80088,15.19246c0-1.97802-0.71058-3.34697-1.31909-4.41248
	c-0.81082-1.31855-1.5716-2.43407-1.5716-3.75264c0-1.47046,1.11515-2.83958,2.68675-2.83958
	c0.07099,0,0.1383,0.00864,0.20726,0.01296C23.95781,1.59258,20.16525,0,16.00004,0C10.41025,0,5.49297,2.86819,2.63205,7.21134
	c0.3757,0.01203,0.72952,0.0194,1.02975,0.0194c1.6731,0,4.26415-0.2034,4.26415-0.2034
	C8.78806,6.97685,8.88987,8.24393,8.0283,8.3459c0,0-0.86709,0.10141-1.831,0.15208l5.82602,17.33073l3.5018-10.50091
	l-2.49256-6.82982c-0.86204-0.05067-1.67817-0.15208-1.67817-0.15208c-0.8624-0.05096-0.76125-1.36905,0.1015-1.31857
	c0,0,2.64171,0.2034,4.21378,0.2034c1.67293,0,4.26443-0.2034,4.26443-0.2034c0.86249-0.05049,0.96418,1.21659,0.10206,1.31857
	c0,0-0.86801,0.10141-1.83108,0.15208l5.78214,17.19868l1.59625-5.33196C26.27421,18.15074,26.80088,16.56168,26.80088,15.19246z"/>
<path fill="#444444" d="M16.28095,17.39898l-4.80095,13.94911C12.91375,31.76975,14.42963,32,16.00004,32
	c1.86316,0,3.65012-0.32164,5.31311-0.90699c-0.04246-0.0686-0.0822-0.14142-0.11457-0.2205L16.28095,17.39898z"/>
<path fill="#444444" d="M30.03973,8.32374c0.06877,0.50957,0.10758,1.05623,0.10758,1.64525
	c0,1.62292-0.30399,3.44802-1.21669,5.73056L24.04387,29.8287c4.75655-2.77338,7.95547-7.92661,7.95547-13.8293
	C31.99935,13.21766,31.28858,10.60253,30.03973,8.32374z"/>
</svg>
