<?xml version="1.0" encoding="utf-8"?>
<!-- Generator: Adobe Illustrator 19.1.0, SVG Export Plug-In . SVG Version: 6.00 Build 0)  -->
<!DOCTYPE svg PUBLIC "-//W3C//DTD SVG 1.1//EN" "http://www.w3.org/Graphics/SVG/1.1/DTD/svg11.dtd">
<svg version="1.1" id="Layer_1" xmlns="http://www.w3.org/2000/svg" xmlns:xlink="http://www.w3.org/1999/xlink" x="0px" y="0px"
	 width="32px" height="32px" viewBox="0 0 32 32" enable-background="new 0 0 32 32" xml:space="preserve">
<path fill="#444444" d="M30.66667,0H1.33333C0.59695,0,0,0.59695,0,1.33333v29.33333C0,31.40305,0.59695,32,1.33333,32H17V20h-4v-5
	h4v-4c0-4.13318,2.6166-6.16686,6.30368-6.16686c1.76615,0,3.28406,0.13149,3.72643,0.19027v4.31942l-2.55718,0.00116
	C22.46768,9.34398,22,10.29685,22,11.6951V15h5l-1,5h-4l0.07942,12h8.58725C31.40305,32,32,31.40305,32,30.66667V1.33333
	C32,0.59695,31.40305,0,30.66667,0z"/>
</svg>
