<?xml version="1.0" encoding="utf-8"?>
<!-- Generator: Adobe Illustrator 19.1.0, SVG Export Plug-In . SVG Version: 6.00 Build 0)  -->
<!DOCTYPE svg PUBLIC "-//W3C//DTD SVG 1.1//EN" "http://www.w3.org/Graphics/SVG/1.1/DTD/svg11.dtd">
<svg version="1.1" id="Layer_1" xmlns="http://www.w3.org/2000/svg" xmlns:xlink="http://www.w3.org/1999/xlink" x="0px" y="0px"
	 width="32px" height="32px" viewBox="0 0 32 32" enable-background="new 0 0 32 32" xml:space="preserve">
<path fill="#444444" d="M32,15.71069c0-2.12052-1.72518-3.8457-3.84562-3.8457c-0.91797,0-1.76123,0.32381-2.42293,0.86271
	c-2.34554-1.47396-5.32153-2.36157-8.51147-2.54997l1.66422-5.2605l4.57267,1.07633
	c0.11995,1.66512,1.51204,2.98348,3.20719,2.98348c1.7736,0,3.21655-1.44295,3.21655-3.21655
	c0-1.77368-1.44295-3.21663-3.21655-3.21663c-1.24032,0-2.3182,0.70614-2.85465,1.73706l-5.3138-1.25073
	c-0.44507-0.10482-0.89551,0.1512-1.03345,0.58708l-2.06559,6.52938c-3.43717,0.08447-6.66813,0.9751-9.18538,2.5354
	c-0.65275-0.51131-1.47388-0.81706-2.36548-0.81706C1.72518,11.86499,0,13.59017,0,15.71069
	c0,1.3112,0.66007,2.47038,1.66504,3.16463c-0.04175,0.30444-0.06364,0.61206-0.06364,0.92236
	c0,2.65161,1.54077,5.11743,4.33854,6.94336c2.68262,1.75081,6.23226,2.71501,9.99512,2.71501
	c3.76302,0,7.31266-0.96419,9.9952-2.71501c2.79777-1.82593,4.33862-4.29175,4.33862-6.94336
	c0-0.28312-0.01864-0.56405-0.05347-0.84245C31.28727,18.27205,32,17.07332,32,15.71069z M26.66406,4.29175
	c0.80981,0,1.46867,0.65885,1.46867,1.46875c0,0.80981-0.65885,1.46875-1.46867,1.46875s-1.46867-0.65894-1.46867-1.46875
	C25.19539,4.9506,25.85425,4.29175,26.66406,4.29175z M9.07406,18.09033c0-1.19556,1.00301-2.19849,2.19849-2.19849
	c1.19556,0,2.16577,1.00293,2.16577,2.19849s-0.97021,2.16569-2.16577,2.16569C10.07707,20.25602,9.07406,19.28589,9.07406,18.09033
	z M21.26782,24.46004c-1.11377,1.11271-2.83154,1.65365-5.2513,1.65365c-0.00578,0-0.01131-0.00073-0.01709-0.00081
	c-0.0057,0.00008-0.01123,0.00081-0.01701,0.00081c-2.42017,0-4.13761-0.54102-5.25049-1.65397
	c-0.34131-0.34123-0.34131-0.89461,0-1.23592c0.34131-0.34115,0.89461-0.34123,1.23592,0.00008
	c0.76839,0.76839,2.08162,1.14193,4.01457,1.14193c0.00578,0,0.01131,0.00081,0.01701,0.00089
	c0.00578-0.00008,0.01131-0.00089,0.01709-0.00089c1.93294,0,3.24658-0.37362,4.01595-1.14225
	c0.34147-0.34115,0.89478-0.34082,1.23592,0.00057C21.60954,23.56559,21.60929,24.1189,21.26782,24.46004z M20.76017,20.25602
	c-1.19613,0-2.20117-0.96956-2.20117-2.16569c0-1.19613,1.00505-2.19849,2.20117-2.19849c1.19621,0,2.16577,1.00236,2.16577,2.19849
	C22.92594,19.28646,21.95638,20.25602,20.76017,20.25602z"/>
</svg>
