<?xml version="1.0" encoding="utf-8"?>
<!-- Generator: Adobe Illustrator 19.1.0, SVG Export Plug-In . SVG Version: 6.00 Build 0)  -->
<!DOCTYPE svg PUBLIC "-//W3C//DTD SVG 1.1//EN" "http://www.w3.org/Graphics/SVG/1.1/DTD/svg11.dtd">
<svg version="1.1" id="Layer_1" xmlns="http://www.w3.org/2000/svg" xmlns:xlink="http://www.w3.org/1999/xlink" x="0px" y="0px"
	 width="32px" height="32px" viewBox="0 0 32 32" enable-background="new 0 0 32 32" xml:space="preserve">
<path fill="#444444" d="M28,0H4C1.79083,0,0,1.79083,0,4v24c0,2.20911,1.79083,4,4,4h24c2.20917,0,4-1.79089,4-4V4
	C32,1.79083,30.20917,0,28,0z M12.14001,23c-3.87,0-7-3.13-7-7s3.13-7,7-7c1.89001,0,3.46997,0.69,4.69,1.82996l-1.90002,1.83002
	c-0.52002-0.5-1.42999-1.08002-2.78998-1.08002C9.75,11.57996,7.79999,13.56,7.79999,16s1.95001,4.41998,4.34003,4.41998
	c2.76996,0,3.81-1.98999,3.96997-3.02002H12V15h6.75c0.06,0.34998,0.10999,0.70001,0.10999,1.15997
	C18.85999,20.15997,16.17999,23,12.14001,23z M27,17h-2v2h-2v-2h-2v-2h2v-2h2v2h2V17z"/>
</svg>
