<?xml version="1.0" encoding="utf-8"?>
<!-- Generator: Adobe Illustrator 19.1.0, SVG Export Plug-In . SVG Version: 6.00 Build 0)  -->
<!DOCTYPE svg PUBLIC "-//W3C//DTD SVG 1.1//EN" "http://www.w3.org/Graphics/SVG/1.1/DTD/svg11.dtd">
<svg version="1.1" id="Layer_1" xmlns="http://www.w3.org/2000/svg" xmlns:xlink="http://www.w3.org/1999/xlink" x="0px" y="0px"
	 width="32px" height="32px" viewBox="0 0 32 32" enable-background="new 0 0 32 32" xml:space="preserve">
<path fill="#444444" d="M30.02687,15.90833c-0.82434,0.19002-1.6217,0.27387-2.33948,0.27387
	c-4.03746,0-7.14596-2.81977-7.14596-7.72272c0-2.40315,0.92915-3.65291,2.24301-3.65291c1.25,0,2.08327,1.12151,2.08327,3.39669
	c0,1.29362-0.34646,2.71133-0.60229,3.55008c0,0,1.24417,2.17041,4.64635,1.50432c0.72243-1.60379,1.1151-3.68085,1.1151-5.50285
	C30.02687,2.85185,27.52727,0,22.94477,0c-4.71021,0-7.46617,3.62106-7.46617,8.39577c0,4.73,2.21113,8.79011,5.85729,10.64008
	c-1.5332,3.06696-3.48408,5.76853-5.51868,7.80405c-3.69147-4.46243-7.02861-10.41565-8.39799-22.03332H1.97313
	c2.51615,19.34873,10.0146,25.50964,11.99722,26.69268c1.12155,0.67293,2.08714,0.64091,3.11262,0.06385
	c1.60986-0.91537,6.4435-5.74815,9.12265-11.40905c1.12461-0.0031,2.47573-0.13217,3.82124-0.43623V15.90833z"/>
</svg>
