<?xml version="1.0" encoding="utf-8"?>
<!-- Generator: Adobe Illustrator 19.1.0, SVG Export Plug-In . SVG Version: 6.00 Build 0)  -->
<!DOCTYPE svg PUBLIC "-//W3C//DTD SVG 1.1//EN" "http://www.w3.org/Graphics/SVG/1.1/DTD/svg11.dtd">
<svg version="1.1" id="Layer_1" xmlns="http://www.w3.org/2000/svg" xmlns:xlink="http://www.w3.org/1999/xlink" x="0px" y="0px"
	 width="32px" height="32px" viewBox="0 0 32 32" enable-background="new 0 0 32 32" xml:space="preserve">
<g>
	<path fill="#444444" d="M18.13333,11.2v0.00002H13.6v4.8h4.53333v-0.00007c1.32549-0.00002,2.39993-1.07452,2.39993-2.39998
		C20.53327,12.27451,19.45882,11.20002,18.13333,11.2z"/>
</g>
<g>
	<g>
		<path fill="#444444" d="M16,0C7.16344,0,0,7.16344,0,16s7.16344,16,16,16s16-7.16344,16-16S24.83656,0,16,0z M18.13333,19.2
			v0.00002H13.6V24h-3.2V8l7.73333,0.00002V8c3.09281,0,5.6,2.5072,5.6,5.6C23.73333,16.69279,21.22614,19.2,18.13333,19.2z"/>
	</g>
</g>
</svg>
