<?xml version="1.0" encoding="utf-8"?>
<!-- Generator: Adobe Illustrator 19.1.0, SVG Export Plug-In . SVG Version: 6.00 Build 0)  -->
<!DOCTYPE svg PUBLIC "-//W3C//DTD SVG 1.1//EN" "http://www.w3.org/Graphics/SVG/1.1/DTD/svg11.dtd">
<svg version="1.1" id="Layer_1" xmlns="http://www.w3.org/2000/svg" xmlns:xlink="http://www.w3.org/1999/xlink" x="0px" y="0px"
	 width="32px" height="32px" viewBox="0 0 32 32" enable-background="new 0 0 32 32" xml:space="preserve">
<path fill="#444444" d="M31.68045,9.602c0,0-0.3127-2.20516-1.27212-3.17624c-1.21684-1.27454-2.5808-1.28085-3.20629-1.35546
	c-4.47795-0.3237-11.19508-0.3237-11.19508-0.3237h-0.01391c0,0-6.71699,0-11.19508,0.3237
	c-0.62553,0.0746-1.98901,0.08092-3.20629,1.35546C0.63224,7.39684,0.32002,9.602,0.32002,9.602S0,12.19154,0,14.7811v2.42771
	c0,2.58952,0.32002,5.17907,0.32002,5.17907s0.31221,2.20517,1.27165,3.17625c1.21728,1.27454,2.81627,1.23424,3.52844,1.36782
	c2.56006,0.24548,10.87991,0.32145,10.87991,0.32145s6.72406-0.01013,11.20201-0.33381
	c0.62549-0.07462,1.98945-0.08092,3.20629-1.35546c0.95942-0.97108,1.27212-3.17625,1.27212-3.17625S32,19.79833,32,17.20881
	V14.7811C32,12.19154,31.68045,9.602,31.68045,9.602z M12.69638,20.15074l-0.00147-8.99115l8.64654,4.51124L12.69638,20.15074z"/>
</svg>
