<?xml version="1.0" encoding="utf-8"?>
<!-- Generator: Adobe Illustrator 19.1.0, SVG Export Plug-In . SVG Version: 6.00 Build 0)  -->
<!DOCTYPE svg PUBLIC "-//W3C//DTD SVG 1.1//EN" "http://www.w3.org/Graphics/SVG/1.1/DTD/svg11.dtd">
<svg version="1.1" id="Layer_1" xmlns="http://www.w3.org/2000/svg" xmlns:xlink="http://www.w3.org/1999/xlink" x="0px" y="0px"
	 width="32px" height="32px" viewBox="0 0 32 32" enable-background="new 0 0 32 32" xml:space="preserve">
<path fill="#444444" d="M4.76863,22.71373c0-2.55635,1.08597-3.90595,3.2-4.48627c-0.33464-0.8366-0.50196-1.45359-0.50196-1.85098
	c0-1.47107,1.85891-3.29412,3.26275-3.29412c0.35556,0,0.77386,0.09412,1.2549,0.28235
	c-1.00392-2.86536-1.72549-5.04052-2.16471-6.52549c-0.57345-1.93538-1.34105-4.45211,0-5.96078
	C10.34248,0.29281,11.04314,0,11.92157,0c1.50588,0,3.31503,3.08497,5.42745,9.2549l0.53333,1.53726
	c0.80022-2.00055,3.25583-10.19608,6.02353-10.19608c0.8366,0,1.49543,0.28235,1.97647,0.84706
	c1.35232,1.52136,0.55538,3.77422,0,5.74118c-0.43921,1.5268-1.12941,3.6183-2.07059,6.27451
	c1.19216,0.29281,2.04967,0.85752,2.57255,1.69412c0.56471,0.89935,0.84706,2.2902,0.84706,4.17255
	c0,3.72288-1.1085,6.76601-3.32549,9.12941C21.64706,30.8183,18.7817,32,15.3098,32c-4.28775,0-8.05347-2.51849-9.72549-5.92941
	C5.04052,24.94118,4.76863,23.82222,4.76863,22.71373z M6.80784,22.55686c0,1.3105,0.87484,2.89231,1.66275,3.95294
	c1.84549,2.38564,4.25872,3.41961,7.0902,3.41961c2.69804,0,4.96732-1.01438,6.80784-3.04314
	c1.81961-2.00784,2.72941-4.54902,2.72941-7.62353c0-1.05148-0.00283-2.62427-0.78431-3.29412
	c-0.56471-0.48105-1.6732-0.89935-3.32549-1.2549c-1.65229-0.37647-3.40915-0.56471-5.27059-0.56471
	c-0.71938,0-1.09804,0.10861-1.09804,0.81569c0,0.85752,0.48105,1.46405,1.44314,1.81961
	c1.04575,0.43922,2.77124,0.65882,5.17647,0.65882h0.87843c0.49171,0,0.9283,0.25687,1.06667,1.31765
	c-0.90187,0.90187-2.38745,1.02292-3.38824,1.78823c-0.8366,0.60654-1.50588,1.3281-2.00784,2.16471
	c-0.48104,0.81569-0.72157,1.58954-0.72157,2.32157c0,0.43922,0.10457,0.97255,0.31372,1.6
	c0.23007,0.6902,0.34507,1.13987,0.34507,1.34902c-0.00552,0.19416-0.06272,0.32941-0.29797,0.42353
	c-0.97253,0.21961-1.41703-0.25621-1.83533-1.05098c-0.35556-0.66928-0.55425-1.5268-0.59608-2.57255
	c-0.12664,0.04222-0.58519,0.03137-0.72157,0.03137c0.02092,0.10457,0.03137,0.23006,0.03137,0.37647
	c0,0.62745-0.24052,1.16078-0.72157,1.6c-0.48105,0.43922-1.04575,0.65882-1.69412,0.65882
	c-0.98301,0-1.97647-0.47059-2.98039-1.41177c-1.00392-0.96209-1.50588-1.90327-1.50588-2.82353
	c0-0.54605,0.23359-0.82967,0.59608-1.19216c0.52288,0.64837,0.87843,1.09804,1.06667,1.34902
	c0.87843,1.23399,1.6732,1.85098,2.38431,1.85098c0.39929,0,0.72157-0.29581,0.72157-0.50196
	c0-0.16732-0.12549-0.47059-0.37647-0.90981c-0.36698-0.68809-1.81473-2.60728-2.57255-3.23137
	c-0.31373-0.29281-0.54379-0.43922-0.6902-0.43922C7.82739,20.14118,6.80784,21.04728,6.80784,22.55686z M9.63137,16.56471
	c0,0.27189,0.16732,0.74248,0.50196,1.41176c0.61684,1.18962,2.06706,3.10905,3.16863,4.07843
	c0.50196,0.4183,0.87843,0.62745,1.12941,0.62745c0.32191,0,0.65882-0.38285,0.65882-0.72157
	c0-0.25098-0.18824-0.85752-0.56471-1.81961c-0.5182-1.25848-1.62037-3.56187-2.66667-4.42353
	c-0.33464-0.31373-0.65882-0.47059-0.97255-0.47059C10.43869,15.24706,9.63137,16.06714,9.63137,16.56471z M11.04314,3.01176
	c0,0.71111,0.25098,1.83007,0.75294,3.35686c0.46013,1.48497,1.15033,3.4719,2.07059,5.96078
	c0.47372-0.28423,1.62083-0.14927,2.22745-0.09412l-2.16471-6.27451C13.34379,4.28758,12.88366,3.2,12.54902,2.69804
	c-0.2719-0.43922-0.54379-0.65882-0.81569-0.65882C11.27835,2.03922,11.04314,2.55304,11.04314,3.01176z M16.25098,19.01176
	c0.18824,0.48104,0.38693,1.00392,0.59608,1.56863c0.4183-0.48105,0.8366-0.87843,1.2549-1.19216
	C17.46381,19.2606,16.95016,19.24482,16.25098,19.01176z M19.5451,12.61176l2.10196,0.37647
	c0.94118-2.59346,1.66274-4.67451,2.16471-6.24314c0.28921-0.93703,1.12712-3.07299,0.56471-3.79608
	c-0.19012-0.3327-0.77596-0.43219-1.44314,0.62745c-0.39738,0.60654-0.84706,1.66275-1.34902,3.16863L19.5451,12.61176z"/>
</svg>
