<?xml version="1.0" encoding="utf-8"?>
<!-- Generator: Adobe Illustrator 19.1.0, SVG Export Plug-In . SVG Version: 6.00 Build 0)  -->
<!DOCTYPE svg PUBLIC "-//W3C//DTD SVG 1.1//EN" "http://www.w3.org/Graphics/SVG/1.1/DTD/svg11.dtd">
<svg version="1.1" id="Layer_1" xmlns="http://www.w3.org/2000/svg" xmlns:xlink="http://www.w3.org/1999/xlink" x="0px" y="0px"
	 width="64px" height="64px" viewBox="0 0 64 64" enable-background="new 0 0 64 64" xml:space="preserve">
<path d="M62,1H2C1.4,1,1,1.4,1,2v60c0,0.6,0.4,1,1,1h60c0.6,0,1-0.4,1-1V2C63,1.4,62.6,1,62,1z M49,38c0,0.6-0.4,1-1,1h-9v9
	c0,0.6-0.4,1-1,1H26c-0.6,0-1-0.4-1-1v-9h-9c-0.6,0-1-0.4-1-1V26c0-0.6,0.4-1,1-1h9v-9c0-0.6,0.4-1,1-1h12c0.6,0,1,0.4,1,1v9h9
	c0.6,0,1,0.4,1,1V38z"/>
</svg>
