<?xml version="1.0" encoding="utf-8"?>
<!-- Generator: Adobe Illustrator 19.1.0, SVG Export Plug-In . SVG Version: 6.00 Build 0)  -->
<!DOCTYPE svg PUBLIC "-//W3C//DTD SVG 1.1//EN" "http://www.w3.org/Graphics/SVG/1.1/DTD/svg11.dtd">
<svg version="1.1" id="Layer_1" xmlns="http://www.w3.org/2000/svg" xmlns:xlink="http://www.w3.org/1999/xlink" x="0px" y="0px"
	 width="64px" height="64px" viewBox="0 0 64 64" enable-background="new 0 0 64 64" xml:space="preserve">
<path id="color_27_" d="M50,31h-3v-3c0-0.6-0.4-1-1-1s-1,0.4-1,1v4c0,0.6,0.4,1,1,1h4c0.6,0,1-0.4,1-1S50.6,31,50,31z"/>
<path d="M62.3,33.1L57,31.3V22c0-0.6-0.4-1-1-1H39v-9c0-0.6-0.4-1-1-1H2c-0.6,0-1,0.4-1,1v34c0,0.6,0.4,1,1,1h9.1
	c0.5,3.4,3.4,6,6.9,6s6.4-2.6,6.9-6H38h5c0,3.3,2.7,6,6,6s6-2.7,6-6h7c0.6,0,1-0.4,1-1V34C63,33.6,62.7,33.2,62.3,33.1z M18,51
	c-2.8,0-5-2.2-5-5s2.2-5,5-5s5,2.2,5,5S20.8,51,18,51z M26,29h-5v5c0,0.6-0.4,1-1,1s-1-0.4-1-1v-5h-5c-0.6,0-1-0.4-1-1s0.4-1,1-1h5
	v-5c0-0.6,0.4-1,1-1s1,0.4,1,1v5h5c0.6,0,1,0.4,1,1S26.6,29,26,29z M49,51c-2.2,0-4-1.8-4-4s1.8-4,4-4s4,1.8,4,4S51.2,51,49,51z
	 M61,45h-6.4c-0.8-2.3-3-4-5.6-4s-4.8,1.7-5.6,4H39V23h16v9c0,0.4,0.3,0.8,0.7,0.9l5.3,1.8V45z"/>
</svg>
