<?xml version="1.0" encoding="utf-8"?>
<!-- Generator: Adobe Illustrator 19.1.0, SVG Export Plug-In . SVG Version: 6.00 Build 0)  -->
<!DOCTYPE svg PUBLIC "-//W3C//DTD SVG 1.1//EN" "http://www.w3.org/Graphics/SVG/1.1/DTD/svg11.dtd">
<svg version="1.1" id="Layer_1" xmlns="http://www.w3.org/2000/svg" xmlns:xlink="http://www.w3.org/1999/xlink" x="0px" y="0px"
	 width="64px" height="64px" viewBox="0 0 64 64" enable-background="new 0 0 64 64" xml:space="preserve">
<path d="M54.7,9.3C51.3,5.9,46.8,4,42,4s-9.3,1.9-12.7,5.3l-20,20c-7,7-7,18.4,0,25.4C12.7,58.1,17.2,60,22,60s9.3-1.9,12.7-5.3
	l20-20C61.7,27.7,61.7,16.3,54.7,9.3z M33.3,53.3c-3,3-7,4.7-11.3,4.7s-8.3-1.7-11.3-4.7c-6.2-6.2-6.2-16.4,0-22.6l9.3-9.3L42.6,44
	L33.3,53.3z"/>
</svg>
