<?xml version="1.0" encoding="utf-8"?>
<!-- Generator: Adobe Illustrator 19.1.0, SVG Export Plug-In . SVG Version: 6.00 Build 0)  -->
<!DOCTYPE svg PUBLIC "-//W3C//DTD SVG 1.1//EN" "http://www.w3.org/Graphics/SVG/1.1/DTD/svg11.dtd">
<svg version="1.1" id="Layer_1" xmlns="http://www.w3.org/2000/svg" xmlns:xlink="http://www.w3.org/1999/xlink" x="0px" y="0px"
	 width="64px" height="64px" viewBox="0 0 64 64" enable-background="new 0 0 64 64" xml:space="preserve">
<path d="M52.3,9l-20-6C32.1,3,31.9,3,31.7,3l-20,6c-0.5,0.1-0.8,0.6-0.7,1l2,22v12c0,10.5,8.5,19,19,19s19-8.5,19-19V32l2-22
	C53,9.6,52.7,9.2,52.3,9z M26,17h5v-5c0-0.6,0.4-1,1-1s1,0.4,1,1v5h5c0.6,0,1,0.4,1,1s-0.4,1-1,1h-5v5c0,0.6-0.4,1-1,1s-1-0.4-1-1
	v-5h-5c-0.6,0-1-0.4-1-1S25.4,17,26,17z M49,44c0,9.4-7.6,17-17,17s-17-7.6-17-17V33h34V44z"/>
</svg>
