<?xml version="1.0" encoding="utf-8"?>
<!-- Generator: Adobe Illustrator 19.1.0, SVG Export Plug-In . SVG Version: 6.00 Build 0)  -->
<!DOCTYPE svg PUBLIC "-//W3C//DTD SVG 1.1//EN" "http://www.w3.org/Graphics/SVG/1.1/DTD/svg11.dtd">
<svg version="1.1" id="Layer_1" xmlns="http://www.w3.org/2000/svg" xmlns:xlink="http://www.w3.org/1999/xlink" x="0px" y="0px"
	 width="64px" height="64px" viewBox="0 0 64 64" enable-background="new 0 0 64 64" xml:space="preserve">
<path d="M39.9,4.1C39.4,3.4,38.5,3,37.7,3H31V2c0-0.6-0.4-1-1-1s-1,0.4-1,1v6c0,0.6,0.4,1,1,1s1-0.4,1-1V5h6.7
	c0.3,0,0.6,0.1,0.8,0.4c0.2,0.2,0.3,0.5,0.2,0.8l-5.1,32.3c-0.2,1.5-1.5,2.5-3,2.5H11.4c-1.5,0-2.7-1.1-3-2.5L3.4,6.2
	c0-0.3,0-0.6,0.2-0.8C3.8,5.1,4,5,4.3,5H11v3c0,0.6,0.4,1,1,1s1-0.4,1-1V2c0-0.6-0.4-1-1-1s-1,0.4-1,1v1H4.3C3.5,3,2.6,3.4,2.1,4.1
	S1.2,5.6,1.4,6.5l5.1,32.3c0.4,2.4,2.5,4.2,4.9,4.2h19.2c2.5,0,4.6-1.8,4.9-4.2l5.1-32.3C40.8,5.6,40.5,4.7,39.9,4.1z"/>
<path id="color" d="M62,38c0-4.4-3.6-8-8-8s-8,3.6-8,8c0,4.1,3.1,7.4,7,7.9V46c0,8.3-6.7,15-15,15h-2c-8.3,0-15-6.7-15-15v-1h-2v1
	c0,9.4,7.6,17,17,17h2c9.4,0,17-7.6,17-17v-0.1C58.9,45.4,62,42.1,62,38z"/>
</svg>
