<?xml version="1.0" encoding="utf-8"?>
<!-- Generator: Adobe Illustrator 19.1.0, SVG Export Plug-In . SVG Version: 6.00 Build 0)  -->
<!DOCTYPE svg PUBLIC "-//W3C//DTD SVG 1.1//EN" "http://www.w3.org/Graphics/SVG/1.1/DTD/svg11.dtd">
<svg version="1.1" id="Layer_1" xmlns="http://www.w3.org/2000/svg" xmlns:xlink="http://www.w3.org/1999/xlink" x="0px" y="0px"
	 width="64px" height="64px" viewBox="0 0 64 64" enable-background="new 0 0 64 64" xml:space="preserve">
<path id="color_22_" d="M58,51H6c-0.6,0-1,0.4-1,1v8c0,0.6,0.4,1,1,1h52c0.6,0,1-0.4,1-1v-8C59,51.4,58.6,51,58,51z"/>
<path d="M62,11H45V4c0-0.6-0.4-1-1-1H20c-0.6,0-1,0.4-1,1v7H2c-0.6,0-1,0.4-1,1v36c0,0.6,0.4,1,1,1h60c0.6,0,1-0.4,1-1V12
	C63,11.4,62.6,11,62,11z M42,33c0,0.6-0.4,1-1,1h-5v5c0,0.6-0.4,1-1,1h-6c-0.6,0-1-0.4-1-1v-5h-5c-0.6,0-1-0.4-1-1v-6
	c0-0.6,0.4-1,1-1h5v-5c0-0.6,0.4-1,1-1h6c0.6,0,1,0.4,1,1v5h5c0.6,0,1,0.4,1,1V33z M43,11H21V5h22V11z"/>
</svg>
