<?xml version="1.0" encoding="utf-8"?>
<!-- Generator: Adobe Illustrator 19.1.0, SVG Export Plug-In . SVG Version: 6.00 Build 0)  -->
<!DOCTYPE svg PUBLIC "-//W3C//DTD SVG 1.1//EN" "http://www.w3.org/Graphics/SVG/1.1/DTD/svg11.dtd">
<svg version="1.1" id="Layer_1" xmlns="http://www.w3.org/2000/svg" xmlns:xlink="http://www.w3.org/1999/xlink" x="0px" y="0px"
	 width="64px" height="64px" viewBox="0 0 64 64" enable-background="new 0 0 64 64" xml:space="preserve">
<circle id="color_14_" cx="54" cy="56" r="7"/>
<path id="color_13_" d="M18,29C8.6,29,1,36.6,1,46s7.6,17,17,17s17-7.6,17-17S27.4,29,18,29z"/>
<path d="M8,3h9v24.1c0.3,0,0.7-0.1,1-0.1s0.7,0,1,0.1V17h25c0.6,0,1-0.4,1-1s-0.4-1-1-1H19V2c0-0.6-0.4-1-1-1H8C7.4,1,7,1.4,7,2
	S7.4,3,8,3z"/>
<path d="M53,47.1c0.3,0,0.7-0.1,1-0.1s0.7,0,1,0.1V32c0-2.2-1.8-4-4-4H24c3.8,1.3,7.1,3.8,9.4,7H53V47.1z"/>
</svg>
