<?xml version="1.0" encoding="utf-8"?>
<!-- Generator: Adobe Illustrator 19.1.0, SVG Export Plug-In . SVG Version: 6.00 Build 0)  -->
<!DOCTYPE svg PUBLIC "-//W3C//DTD SVG 1.1//EN" "http://www.w3.org/Graphics/SVG/1.1/DTD/svg11.dtd">
<svg version="1.1" id="Layer_1" xmlns="http://www.w3.org/2000/svg" xmlns:xlink="http://www.w3.org/1999/xlink" x="0px" y="0px"
	 width="64px" height="64px" viewBox="0 0 64 64" enable-background="new 0 0 64 64" xml:space="preserve">
<path d="M62,21H43V2c0-0.6-0.4-1-1-1H22c-0.6,0-1,0.4-1,1v19H2c-0.6,0-1,0.4-1,1v20c0,0.6,0.4,1,1,1h19v19c0,0.6,0.4,1,1,1h20
	c0.6,0,1-0.4,1-1V43h19c0.6,0,1-0.4,1-1V22C63,21.4,62.6,21,62,21z"/>
</svg>
