<?xml version="1.0" encoding="utf-8"?>
<!-- Generator: Adobe Illustrator 19.1.0, SVG Export Plug-In . SVG Version: 6.00 Build 0)  -->
<!DOCTYPE svg PUBLIC "-//W3C//DTD SVG 1.1//EN" "http://www.w3.org/Graphics/SVG/1.1/DTD/svg11.dtd">
<svg version="1.1" id="Layer_1" xmlns="http://www.w3.org/2000/svg" xmlns:xlink="http://www.w3.org/1999/xlink" x="0px" y="0px"
	 width="64px" height="64px" viewBox="0 0 64 64" enable-background="new 0 0 64 64" xml:space="preserve">
<path d="M22,19v10h7c0.6,0,1,0.4,1,1s-0.4,1-1,1h-7v6h7c0.6,0,1,0.4,1,1s-0.4,1-1,1h-7v6h7c0.6,0,1,0.4,1,1s-0.4,1-1,1h-7v6
	c0,5.5,4.5,10,10,10s10-4.5,10-10V19H22z"/>
<path d="M46,1H18c-0.6,0-1,0.4-1,1v8c0,0.6,0.4,1,1,1h4v6h20v-6h4c0.6,0,1-0.4,1-1V2C47,1.4,46.6,1,46,1z"/>
</svg>
