<?xml version="1.0" encoding="utf-8"?>
<!-- Generator: Adobe Illustrator 19.1.0, SVG Export Plug-In . SVG Version: 6.00 Build 0)  -->
<!DOCTYPE svg PUBLIC "-//W3C//DTD SVG 1.1//EN" "http://www.w3.org/Graphics/SVG/1.1/DTD/svg11.dtd">
<svg version="1.1" id="Layer_1" xmlns="http://www.w3.org/2000/svg" xmlns:xlink="http://www.w3.org/1999/xlink" x="0px" y="0px"
	 width="64px" height="64px" viewBox="0 0 64 64" enable-background="new 0 0 64 64" xml:space="preserve">
<path d="M32.9,3.5c-0.4-0.6-1.4-0.6-1.7,0c-0.2,0.4-5.7,9.6-5.7,21.2c0,11.6,5.4,20.8,5.7,21.2c0.2,0.3,0.5,0.5,0.9,0.5
	s0.7-0.2,0.9-0.5c0.2-0.4,5.7-9.6,5.7-21.2C38.5,13.1,33.1,3.9,32.9,3.5z"/>
<path id="color_17_" d="M37.3,48.9c0.2,0.2,0.4,0.3,0.7,0.3c0.1,0,0.1,0,0.2,0c0.3-0.1,7.6-1.5,13.1-7c5.5-5.5,6.9-12.7,7-13.1
	c0.1-0.3,0-0.7-0.3-0.9C57.7,28,57.3,27.9,57,28c-0.3,0.1-7.6,1.5-13.1,7c-5.5,5.5-6.9,12.7-7,13.1C37,48.3,37.1,48.7,37.3,48.9z"/>
<path d="M48.5,51c-6.1,0-10.9,4.1-11.1,4.2C37.1,55.4,37,55.7,37,56s0.1,0.6,0.4,0.8c0.2,0.2,5,4.2,11.1,4.2
	c6.1,0,10.9-4.1,11.1-4.2c0.2-0.2,0.4-0.5,0.4-0.8s-0.1-0.6-0.4-0.8C59.4,55.1,54.6,51,48.5,51z"/>
<path id="color_16_" d="M12.8,42c5.5,5.5,12.7,6.9,13.1,7c0.1,0,0.1,0,0.2,0c0.3,0,0.5-0.1,0.7-0.3c0.2-0.2,0.3-0.6,0.3-0.9
	c-0.1-0.3-1.5-7.6-7-13.1c-5.5-5.5-12.7-6.9-13.1-7c-0.3-0.1-0.7,0-0.9,0.3c-0.2,0.2-0.3,0.6-0.3,0.9C5.9,29.3,7.3,36.6,12.8,42z"/>
<path d="M15.5,51c-6.1,0-10.9,4.1-11.1,4.2C4.1,55.4,4,55.7,4,56s0.1,0.6,0.4,0.8c0.2,0.2,5,4.2,11.1,4.2c6.1,0,10.9-4.1,11.1-4.2
	c0.2-0.2,0.4-0.5,0.4-0.8s-0.1-0.6-0.4-0.8C26.4,55.1,21.6,51,15.5,51z"/>
</svg>
