<?xml version="1.0" encoding="utf-8"?>
<!-- Generator: Adobe Illustrator 19.1.0, SVG Export Plug-In . SVG Version: 6.00 Build 0)  -->
<!DOCTYPE svg PUBLIC "-//W3C//DTD SVG 1.1//EN" "http://www.w3.org/Graphics/SVG/1.1/DTD/svg11.dtd">
<svg version="1.1" id="Layer_1" xmlns="http://www.w3.org/2000/svg" xmlns:xlink="http://www.w3.org/1999/xlink" x="0px" y="0px"
	 width="64px" height="64px" viewBox="0 0 64 64" enable-background="new 0 0 64 64" xml:space="preserve">
<path id="color_11_" d="M42.4,9L41,1.8C40.9,1.3,40.5,1,40,1H20c-0.5,0-0.9,0.3-1,0.8L17.6,9H42.4z"/>
<path id="color_10_" d="M17.6,55l1.4,7.2c0.1,0.5,0.5,0.8,1,0.8h20c0.5,0,0.9-0.3,1-0.8l1.4-7.2H17.6z"/>
<path d="M54,27h-3V16c0-2.8-2.2-5-5-5H14c-2.8,0-5,2.2-5,5v32c0,2.8,2.2,5,5,5h32c2.8,0,5-2.2,5-5V37h3c0.6,0,1-0.4,1-1v-8
	C55,27.4,54.6,27,54,27z M42,33h-3.5l-3.7,5.6C34.6,38.8,34.3,39,34,39s-0.6-0.2-0.8-0.4L26,27.8l-3.2,4.8C22.6,32.8,22.3,33,22,33
	h-4c-0.6,0-1-0.4-1-1s0.4-1,1-1h3.5l3.7-5.6c0.4-0.6,1.3-0.6,1.7,0L34,36.2l3.2-4.8c0.2-0.3,0.5-0.4,0.8-0.4h4c0.6,0,1,0.4,1,1
	S42.6,33,42,33z"/>
</svg>
