<?xml version="1.0" encoding="utf-8"?>
<!-- Generator: Adobe Illustrator 19.1.0, SVG Export Plug-In . SVG Version: 6.00 Build 0)  -->
<!DOCTYPE svg PUBLIC "-//W3C//DTD SVG 1.1//EN" "http://www.w3.org/Graphics/SVG/1.1/DTD/svg11.dtd">
<svg version="1.1" id="Layer_1" xmlns="http://www.w3.org/2000/svg" xmlns:xlink="http://www.w3.org/1999/xlink" x="0px" y="0px"
	 width="64px" height="64px" viewBox="0 0 64 64" enable-background="new 0 0 64 64" xml:space="preserve">
<path d="M62.9,1.6c-0.1-0.2-0.3-0.4-0.5-0.5C62.3,1,62.1,1,62,1H52c-0.6,0-1,0.4-1,1s0.4,1,1,1h7.6L49.3,13.3C46.3,10.6,42.3,9,38,9
	c-9.4,0-17,7.6-17,17s7.6,17,17,17s17-7.6,17-17c0-4.3-1.6-8.3-4.3-11.3L61,4.4V12c0,0.6,0.4,1,1,1s1-0.4,1-1V2
	C63,1.9,63,1.7,62.9,1.6z M38,41c-8.3,0-15-6.7-15-15s6.7-15,15-15s15,6.7,15,15S46.3,41,38,41z"/>
<path d="M31,15.1c-0.6,0.4-1.1,0.8-1.6,1.2c2.2,2.6,3.6,6,3.6,9.7s-1.4,7.1-3.6,9.7c0.5,0.4,1,0.8,1.6,1.2c2.5-3,4-6.8,4-10.9
	C35,21.8,33.5,18,31,15.1z"/>
<path d="M24,53h-5V42.9c2.6-0.2,5-0.9,7.2-2.1c-0.6-0.4-1.1-0.9-1.6-1.4c-2,1-4.2,1.5-6.6,1.5C9.7,41,3,34.3,3,26s6.7-15,15-15
	c2.4,0,4.6,0.6,6.6,1.5c0.5-0.5,1.1-1,1.6-1.4C23.8,9.8,21,9,18,9C8.6,9,1,16.6,1,26c0,9,7.1,16.4,16,16.9V53h-5c-0.6,0-1,0.4-1,1
	s0.4,1,1,1h5v5c0,0.6,0.4,1,1,1s1-0.4,1-1v-5h5c0.6,0,1-0.4,1-1S24.6,53,24,53z"/>
</svg>
