<?xml version="1.0" encoding="utf-8"?>
<!-- Generator: Adobe Illustrator 19.1.0, SVG Export Plug-In . SVG Version: 6.00 Build 0)  -->
<!DOCTYPE svg PUBLIC "-//W3C//DTD SVG 1.1//EN" "http://www.w3.org/Graphics/SVG/1.1/DTD/svg11.dtd">
<svg version="1.1" id="Layer_1" xmlns="http://www.w3.org/2000/svg" xmlns:xlink="http://www.w3.org/1999/xlink" x="0px" y="0px"
	 width="64px" height="64px" viewBox="0 0 64 64" enable-background="new 0 0 64 64" xml:space="preserve">
<path d="M32,27c-2.8,0-5,2.2-5,5s2.2,5,5,5s5-2.2,5-5S34.8,27,32,27z"/>
<path d="M52,32c1.1-1.1,2.1-2.2,3-3.2c4.2-5,5.5-9.3,3.8-12.3c-1.2-2.1-3.9-3.3-7.8-3.3c-2.6,0-5.7,0.5-9,1.4C39.9,6.4,36.2,1,32,1
	s-7.9,5.4-10,13.7c-3.3-0.9-6.4-1.4-9-1.4c-3.9,0-6.6,1.1-7.8,3.3C3.5,19.4,4.8,23.8,9,28.8c0.9,1.1,1.9,2.2,3,3.2
	c-1.1,1.1-2.1,2.2-3,3.2c-4.2,5-5.5,9.3-3.8,12.3c1.2,2.1,3.9,3.3,7.8,3.3c0,0,0,0,0,0c2.6,0,5.7-0.5,9-1.4C24.1,57.6,27.8,63,32,63
	s7.9-5.4,10-13.7c3.3,0.9,6.4,1.4,9,1.4c3.9,0,6.6-1.1,7.8-3.3c1.7-2.9,0.3-7.3-3.8-12.3C54.1,34.2,53.1,33.1,52,32z M51,15.2
	c2.2,0,5,0.4,6.1,2.3c1.2,2.1-0.1,5.8-3.6,10c-0.9,1-1.9,2.1-2.9,3.1c-2-1.8-4.3-3.7-6.8-5.4c-0.3-3.1-0.7-6-1.3-8.6
	C45.6,15.7,48.5,15.2,51,15.2z M37,40.7c-1.7,1-3.3,1.9-5,2.7c-1.7-0.8-3.3-1.7-5-2.7c-1.7-1-3.3-2-4.8-3C22.1,35.8,22,34,22,32
	s0.1-3.8,0.2-5.7c1.5-1,3.1-2,4.8-3c1.7-1,3.3-1.9,5-2.7c1.7,0.8,3.3,1.7,5,2.7c1.7,1,3.3,2,4.8,3C41.9,28.2,42,30,42,32
	s-0.1,3.8-0.2,5.7C40.3,38.7,38.7,39.7,37,40.7z M41.6,40.2c-0.2,2.4-0.6,4.6-1,6.6c-2-0.7-4.1-1.5-6.3-2.4c1.2-0.6,2.5-1.3,3.7-2
	C39.2,41.7,40.4,40.9,41.6,40.2z M29.7,44.4c-2.1,1-4.2,1.8-6.3,2.4c-0.4-2-0.8-4.3-1-6.6c1.2,0.8,2.4,1.5,3.6,2.2
	C27.2,43.1,28.5,43.8,29.7,44.4z M20.1,36.2c-1.9-1.4-3.6-2.8-5.2-4.2c1.6-1.4,3.3-2.8,5.2-4.2C20,29.2,20,30.6,20,32
	S20,34.8,20.1,36.2z M22.4,23.8c0.2-2.4,0.6-4.6,1-6.6c2,0.7,4.1,1.5,6.3,2.4c-1.2,0.6-2.5,1.3-3.7,2C24.8,22.3,23.6,23.1,22.4,23.8
	z M34.3,19.6c2.1-1,4.2-1.8,6.3-2.4c0.4,2,0.8,4.3,1,6.6c-1.2-0.8-2.4-1.5-3.6-2.2C36.8,20.9,35.5,20.2,34.3,19.6z M43.9,27.8
	c1.9,1.4,3.6,2.8,5.2,4.2c-1.6,1.4-3.3,2.8-5.2,4.2C44,34.8,44,33.4,44,32S44,29.2,43.9,27.8z M32,3c3,0,6.2,4.6,8.1,12.2
	c-2.6,0.8-5.3,1.9-8.1,3.2c-2.8-1.3-5.5-2.4-8.1-3.2C25.8,7.6,29,3,32,3z M6.9,17.5c1.1-1.9,3.9-2.3,6.1-2.3c2.5,0,5.4,0.5,8.5,1.4
	c-0.6,2.6-1,5.5-1.3,8.6c-2.5,1.7-4.8,3.5-6.8,5.4c-1.1-1-2.1-2.1-2.9-3.1C7,23.3,5.7,19.6,6.9,17.5z M13,48.8c-2.2,0-5-0.4-6.1-2.3
	c-1.2-2.1,0.1-5.8,3.6-10c0.9-1,1.9-2.1,2.9-3.1c2,1.8,4.3,3.7,6.8,5.4c0.3,3.1,0.7,6,1.3,8.6C18.4,48.3,15.5,48.8,13,48.8z M32,61
	c-3,0-6.2-4.6-8.1-12.2c2.6-0.8,5.3-1.9,8.1-3.2c2.8,1.3,5.5,2.4,8.1,3.2C38.2,56.4,35,61,32,61z M57.1,46.5
	c-1.1,1.9-3.9,2.3-6.1,2.3c-2.5,0-5.4-0.5-8.5-1.4c0.6-2.6,1-5.5,1.3-8.6c2.5-1.7,4.8-3.5,6.8-5.4c1.1,1,2.1,2.1,2.9,3.1
	C57,40.7,58.3,44.4,57.1,46.5z"/>
</svg>
