<?xml version="1.0" encoding="utf-8"?>
<!-- Generator: Adobe Illustrator 19.1.0, SVG Export Plug-In . SVG Version: 6.00 Build 0)  -->
<!DOCTYPE svg PUBLIC "-//W3C//DTD SVG 1.1//EN" "http://www.w3.org/Graphics/SVG/1.1/DTD/svg11.dtd">
<svg version="1.1" id="Layer_1" xmlns="http://www.w3.org/2000/svg" xmlns:xlink="http://www.w3.org/1999/xlink" x="0px" y="0px"
	 width="64px" height="64px" viewBox="0 0 64 64" enable-background="new 0 0 64 64" xml:space="preserve">
<path id="color_12_" d="M8,49c-3.9,0-7,3.1-7,7s3.1,7,7,7s7-3.1,7-7S11.9,49,8,49z"/>
<path d="M51.1,17c-0.6,0-1.1,0-1.7,0.1C48.9,8.2,41.3,1,32,1c-6,0-11.6,3.1-14.8,8.1c-0.5-0.1-1-0.1-1.6-0.1C7.6,9,1,15.4,1,23.3
	c0,6.8,4.8,12.6,11.5,14c2.1,8,9.6,13.7,18.1,13.7c7.5,0,14.3-4.4,17.2-11.1c1.1,0.3,2.2,0.5,3.2,0.5c6.6,0,11.9-5.2,11.9-11.7
	C63,22.2,57.7,17,51.1,17z M38,35H26c-0.4,0-0.7-0.2-0.9-0.5c-0.2-0.3-0.2-0.7,0-1L32.3,21H26c-0.6,0-1-0.4-1-1s0.4-1,1-1h8
	c0.4,0,0.7,0.2,0.9,0.5c0.2,0.3,0.2,0.7,0,1L27.7,33H38c0.6,0,1,0.4,1,1S38.6,35,38,35z"/>
</svg>
