<?xml version="1.0" encoding="utf-8"?>
<!-- Generator: Adobe Illustrator 19.1.0, SVG Export Plug-In . SVG Version: 6.00 Build 0)  -->
<!DOCTYPE svg PUBLIC "-//W3C//DTD SVG 1.1//EN" "http://www.w3.org/Graphics/SVG/1.1/DTD/svg11.dtd">
<svg version="1.1" id="Layer_1" xmlns="http://www.w3.org/2000/svg" xmlns:xlink="http://www.w3.org/1999/xlink" x="0px" y="0px"
	 width="64px" height="64px" viewBox="0 0 64 64" enable-background="new 0 0 64 64" xml:space="preserve">
<path d="M41,18.9V2c0-0.6-0.4-1-1-1H24c-0.6,0-1,0.4-1,1v16.9C14.5,22.5,9,30.7,9,40c0,12.7,10.3,23,23,23s23-10.3,23-23
	C55,30.7,49.5,22.5,41,18.9z M32,55c-8.3,0-15-6.7-15-15c0-0.6,0.4-1,1-1h28c0.6,0,1,0.4,1,1C47,48.3,40.3,55,32,55z"/>
</svg>
