<?xml version="1.0" encoding="utf-8"?>
<!-- Generator: Adobe Illustrator 19.1.0, SVG Export Plug-In . SVG Version: 6.00 Build 0)  -->
<!DOCTYPE svg PUBLIC "-//W3C//DTD SVG 1.1//EN" "http://www.w3.org/Graphics/SVG/1.1/DTD/svg11.dtd">
<svg version="1.1" id="Layer_1" xmlns="http://www.w3.org/2000/svg" xmlns:xlink="http://www.w3.org/1999/xlink" x="0px" y="0px"
	 width="64px" height="64px" viewBox="0 0 64 64" enable-background="new 0 0 64 64" xml:space="preserve">
<path d="M43,36V10c0-5-4-9-9-9s-9,4-9,9v3h6c0.6,0,1,0.4,1,1s-0.4,1-1,1h-6v6h6c0.6,0,1,0.4,1,1s-0.4,1-1,1h-6v6h6c0.6,0,1,0.4,1,1
	s-0.4,1-1,1h-6v5c-3.8,2.8-6,7.3-6,12c0,8.3,6.7,15,15,15s15-6.7,15-15C49,43.3,46.8,38.8,43,36z M34,55c-3.9,0-7-3.1-7-7
	c0-0.6,0.4-1,1-1h12c0.6,0,1,0.4,1,1C41,51.9,37.9,55,34,55z"/>
</svg>
