<?xml version="1.0" encoding="utf-8"?>
<!-- Generator: Adobe Illustrator 19.1.0, SVG Export Plug-In . SVG Version: 6.00 Build 0)  -->
<!DOCTYPE svg PUBLIC "-//W3C//DTD SVG 1.1//EN" "http://www.w3.org/Graphics/SVG/1.1/DTD/svg11.dtd">
<svg version="1.1" id="Layer_1" xmlns="http://www.w3.org/2000/svg" xmlns:xlink="http://www.w3.org/1999/xlink" x="0px" y="0px"
	 width="64px" height="64px" viewBox="0 0 64 64" enable-background="new 0 0 64 64" xml:space="preserve">
<path d="M21.4,29l3.7-7.4c0.2-0.3,0.5-0.5,0.8-0.6c0.4,0,0.7,0.2,0.9,0.5L35.9,36l3.2-6.4c0.2-0.3,0.5-0.6,0.9-0.6h20.1
	c1.8-3.6,2.9-7.2,2.9-10.4C63,8.9,55.2,1,45.6,1C40.3,1,35.3,3.5,32,7.7C28.7,3.5,23.7,1,18.4,1C8.8,1,1,8.9,1,18.6
	c0,3.3,1.1,6.8,2.9,10.4H21.4z"/>
<path id="color_4_" d="M40.6,31l-3.7,7.4C36.7,38.8,36.4,39,36,39c0,0,0,0,0,0c-0.3,0-0.7-0.2-0.8-0.5L26.1,24l-3.2,6.4
	C22.7,30.8,22.4,31,22,31H4.9c8,14.4,25.5,29,26.4,29.8c0.2,0.2,0.4,0.2,0.6,0.2s0.5-0.1,0.6-0.2c1-0.8,18.4-15.4,26.4-29.8H40.6z"
	/>
</svg>
