<?xml version="1.0" encoding="utf-8"?>
<!-- Generator: Adobe Illustrator 19.1.0, SVG Export Plug-In . SVG Version: 6.00 Build 0)  -->
<!DOCTYPE svg PUBLIC "-//W3C//DTD SVG 1.1//EN" "http://www.w3.org/Graphics/SVG/1.1/DTD/svg11.dtd">
<svg version="1.1" id="Layer_1" xmlns="http://www.w3.org/2000/svg" xmlns:xlink="http://www.w3.org/1999/xlink" x="0px" y="0px"
	 width="64px" height="64px" viewBox="0 0 64 64" enable-background="new 0 0 64 64" xml:space="preserve">
<path d="M49.3,1.1c-6.6-0.5-11.4,5.1-12.2,14.1c-0.3,3.4,0.5,7,1.2,10.6c0.7,3.5,1.4,6.7,1.2,9.7c0,0.6,0.4,1,0.9,1.1l14,1.1
	c0,0,0.1,0,0.1,0c0.4,0,0.8-0.3,0.9-0.7c0.1-0.3,2.7-8.3,3.5-18C59.7,8.6,55.9,1.6,49.3,1.1z"/>
<path id="color_6_" d="M53.9,43.6l-14-1.1c-0.6,0-1,0.4-1.1,0.9l-0.2,3c-0.3,4.4,2.9,8.3,7.3,8.6c0.2,0,0.4,0,0.6,0
	c4.1,0,7.6-3.2,8-7.4l0.2-3C54.9,44.1,54.5,43.6,53.9,43.6z"/>
<path d="M14.7,9C8,9.6,4.3,16.6,5.1,26.9c0.8,9.7,3.4,17.7,3.5,18c0.1,0.4,0.5,0.7,0.9,0.7c0,0,0.1,0,0.1,0l14-1.2
	c0.6,0,1-0.5,0.9-1.1c-0.2-2.9,0.4-6.2,1.1-9.7c0.7-3.5,1.5-7.2,1.2-10.6C26.1,14.1,21.3,8.5,14.7,9z"/>
<path id="color_5_" d="M25.2,51.3c0-0.6-0.5-1-1.1-0.9l-14,1.2c-0.6,0-1,0.5-0.9,1.1l0.2,3c0.3,4.1,3.8,7.3,8,7.3c0,0,0,0,0,0
	c0.2,0,0.4,0,0.7,0c2.1-0.2,4.1-1.2,5.4-2.8c1.4-1.6,2-3.7,1.9-5.8L25.2,51.3z"/>
</svg>
