<?xml version="1.0" encoding="utf-8"?>
<!-- Generator: Adobe Illustrator 19.1.0, SVG Export Plug-In . SVG Version: 6.00 Build 0)  -->
<!DOCTYPE svg PUBLIC "-//W3C//DTD SVG 1.1//EN" "http://www.w3.org/Graphics/SVG/1.1/DTD/svg11.dtd">
<svg version="1.1" id="Layer_1" xmlns="http://www.w3.org/2000/svg" xmlns:xlink="http://www.w3.org/1999/xlink" x="0px" y="0px"
	 width="64px" height="64px" viewBox="0 0 64 64" enable-background="new 0 0 64 64" xml:space="preserve">
<path d="M60.7,31.3l-28-28c-0.4-0.4-1-0.4-1.4,0s-0.4,1,0,1.4l7.3,7.3L32,18.6l3.7,3.7c0.4,0.4,0.4,1,0,1.4C35.5,23.9,35.3,24,35,24
	s-0.5-0.1-0.7-0.3L30.6,20L26,24.6l3.7,3.7c0.4,0.4,0.4,1,0,1.4C29.5,29.9,29.3,30,29,30s-0.5-0.1-0.7-0.3L24.6,26L20,30.6l3.7,3.7
	c0.4,0.4,0.4,1,0,1.4C23.5,35.9,23.3,36,23,36s-0.5-0.1-0.7-0.3L18.6,32l-7.3,7.3c-0.4,0.4-0.4,1,0,1.4l5.3,5.3L3.3,59.3
	c-0.4,0.4-0.4,1,0,1.4C3.5,60.9,3.7,61,4,61s0.5-0.1,0.7-0.3L18,47.4l5.3,5.3c0.2,0.2,0.5,0.3,0.7,0.3s0.5-0.1,0.7-0.3L52,25.4
	l7.3,7.3c0.2,0.2,0.5,0.3,0.7,0.3s0.5-0.1,0.7-0.3C61.1,32.3,61.1,31.7,60.7,31.3z"/>
<path id="color_1_" d="M52.1,5.5l-7.2,7.2l6.4,6.4l7.2-7.2l2.8,2.8c0.2,0.2,0.5,0.3,0.7,0.3s0.5-0.1,0.7-0.3c0.4-0.4,0.4-1,0-1.4
	l-12-12c-0.4-0.4-1-0.4-1.4,0s-0.4,1,0,1.4L52.1,5.5z"/>
</svg>
