<?xml version="1.0" encoding="utf-8"?>
<!-- Generator: Adobe Illustrator 19.1.0, SVG Export Plug-In . SVG Version: 6.00 Build 0)  -->
<!DOCTYPE svg PUBLIC "-//W3C//DTD SVG 1.1//EN" "http://www.w3.org/Graphics/SVG/1.1/DTD/svg11.dtd">
<svg version="1.1" id="Layer_2" xmlns="http://www.w3.org/2000/svg" xmlns:xlink="http://www.w3.org/1999/xlink" x="0px" y="0px"
	 width="16px" height="16px" viewBox="0 0 16 16" enable-background="new 0 0 16 16" xml:space="preserve">
<path fill="#444444" d="M16,4.5C16,2.6,14.4,1,12.5,1c-1.1,0-2.1,0.5-2.7,1.3C9.2,2.1,8.6,2,8,2C6,2,4.2,3.2,3.4,5
	C1.5,5,0,6.6,0,8.5c0,1.1,0.5,2.1,1.4,2.8l1.2-1.6C1.9,9.2,1.8,8.1,2.4,7.5c0.7-0.8,1.5-0.4,2.4-0.2C5.1,6.3,5.5,4,8,4
	c2.5,0,2.9,2.2,3.1,3.3c1-0.3,2.9-0.9,2.9,1.2c0,0.5-0.2,0.9-0.6,1.2l1.2,1.6c0.9-0.7,1.4-1.7,1.4-2.8c0-0.8-0.2-1.4-0.7-2
	C15.7,5.9,16,5.2,16,4.5z"/>
<rect data-color="color-2" x="7" y="13" fill="#444444" width="2" height="3"/>
<rect data-color="color-2" x="4" y="11" fill="#444444" width="2" height="3"/>
<rect data-color="color-2" x="10" y="11" fill="#444444" width="2" height="3"/>
</svg>
