<?xml version="1.0" encoding="utf-8"?>
<!-- Generator: Adobe Illustrator 19.1.0, SVG Export Plug-In . SVG Version: 6.00 Build 0)  -->
<!DOCTYPE svg PUBLIC "-//W3C//DTD SVG 1.1//EN" "http://www.w3.org/Graphics/SVG/1.1/DTD/svg11.dtd">
<svg version="1.1" id="Layer_2" xmlns="http://www.w3.org/2000/svg" xmlns:xlink="http://www.w3.org/1999/xlink" x="0px" y="0px"
	 width="16px" height="16px" viewBox="0 0 16 16" enable-background="new 0 0 16 16" xml:space="preserve">
<path data-color="color-2" fill="#444444" d="M6,14c0-1.2,2-3.3,2-3.3s2,2.1,2,3.3c0,1.3-1,2-2,2S6,15.3,6,14z"/>
<path fill="#444444" d="M12,12h-1v-2h1c1.1,0,2-0.9,2-2c0-1.3-0.9-2.6-3.9-1.4C10,5.6,9.7,2,6,2C3.8,2,2,3.8,2,6
	c0,1.9,1.3,3.5,3.2,3.9l-0.4,2C2,11.3,0,8.8,0,6c0-3.3,2.7-6,6-6c2.6,0,4.8,1.6,5.6,4C14,3.8,16,5.7,16,8C16,10.2,14.2,12,12,12z"/>
</svg>
