<?xml version="1.0" encoding="utf-8"?>
<!-- Generator: Adobe Illustrator 19.1.0, SVG Export Plug-In . SVG Version: 6.00 Build 0)  -->
<!DOCTYPE svg PUBLIC "-//W3C//DTD SVG 1.1//EN" "http://www.w3.org/Graphics/SVG/1.1/DTD/svg11.dtd">
<svg version="1.1" id="Layer_2" xmlns="http://www.w3.org/2000/svg" xmlns:xlink="http://www.w3.org/1999/xlink" x="0px" y="0px"
	 width="16px" height="16px" viewBox="0 0 16 16" enable-background="new 0 0 16 16" xml:space="preserve">
<path fill="#444444" d="M14.7,11l-1.3-1.5C13.8,9.1,14,8.6,14,8c0-1-0.6-2.7-3.9-1.4C10,5.6,9.7,2,6,2C3.8,2,2,3.8,2,6
	c0,1.3,0.6,2.4,1.6,3.2l-1.2,1.6C0.9,9.7,0,7.9,0,6c0-3.3,2.7-6,6-6c2.6,0,4.8,1.6,5.6,4C14,3.8,16,5.7,16,8
	C16,9.1,15.5,10.2,14.7,11z"/>
<rect data-color="color-2" x="7" y="13" fill="#444444" width="2" height="3"/>
<rect data-color="color-2" x="4" y="11" fill="#444444" width="2" height="3"/>
<rect data-color="color-2" x="10" y="11" fill="#444444" width="2" height="3"/>
</svg>
