<?xml version="1.0" encoding="utf-8"?>
<!-- Generator: Adobe Illustrator 19.1.0, SVG Export Plug-In . SVG Version: 6.00 Build 0)  -->
<!DOCTYPE svg PUBLIC "-//W3C//DTD SVG 1.1//EN" "http://www.w3.org/Graphics/SVG/1.1/DTD/svg11.dtd">
<svg version="1.1" id="Layer_2" xmlns="http://www.w3.org/2000/svg" xmlns:xlink="http://www.w3.org/1999/xlink" x="0px" y="0px"
	 width="16px" height="16px" viewBox="0 0 16 16" enable-background="new 0 0 16 16" xml:space="preserve">
<path fill="#444444" d="M16,3.5C16,1.6,14.4,0,12.5,0c-1.1,0-2.1,0.5-2.7,1.3C9.2,1.1,8.6,1,8,1C6,1,4.2,2.2,3.4,4
	C1.5,4,0,5.6,0,7.5c0,1.1,0.5,2.1,1.4,2.8l1.2-1.6C2.2,8.4,2,8,2,7.5C2,6.7,2.7,6,3.5,6c0.3,0,1.1,0.2,1.4,0.3l0.2-1
	C5.4,4,6.6,3,8,3s2.6,1,2.9,2.3l0.2,1C11.4,6.2,12.2,6,12.5,6C13.3,6,14,6.7,14,7.5c0,0.5-0.2,0.9-0.6,1.2l1.2,1.6
	C15.5,9.6,16,8.6,16,7.5c0-0.8-0.2-1.4-0.7-2C15.7,4.9,16,4.2,16,3.5z"/>
<polygon data-color="color-2" fill="#444444" points="12,10.9 11,9.1 9,10.3 9,8 7,8 7,10.3 5,9.1 4,10.9 6,12 4,13.1 5,14.9 7,13.7 7,16 
	9,16 9,13.7 11,14.9 12,13.1 10,12 "/>
</svg>
