<?xml version="1.0" encoding="utf-8"?>
<!-- Generator: Adobe Illustrator 19.1.0, SVG Export Plug-In . SVG Version: 6.00 Build 0)  -->
<!DOCTYPE svg PUBLIC "-//W3C//DTD SVG 1.1//EN" "http://www.w3.org/Graphics/SVG/1.1/DTD/svg11.dtd">
<svg version="1.1" id="Layer_2" xmlns="http://www.w3.org/2000/svg" xmlns:xlink="http://www.w3.org/1999/xlink" x="0px" y="0px"
	 width="16px" height="16px" viewBox="0 0 16 16" enable-background="new 0 0 16 16" xml:space="preserve">
<path data-color="color-2" fill="#444444" d="M8,16c-1.7,0-3.3-0.5-4.6-1.4c-0.4-0.3-0.6-0.9-0.2-1.4c0.3-0.4,0.9-0.6,1.4-0.2
	c1.7,1.2,4.8,1.3,6.6,0.1c0.5-0.3,1.1-0.2,1.4,0.3c0.3,0.5,0.2,1.1-0.3,1.4C11.1,15.6,9.6,16,8,16z"/>
<path data-color="color-2" fill="#444444" d="M8,12c-2.7,0-5.2-0.8-6.7-2.2c-0.4-0.4-0.4-1-0.1-1.4C1.6,8,2.3,8,2.7,8.4
	C3.8,9.4,5.8,10,8,10c2.3,0,4.3-0.7,5.4-1.7c0.4-0.4,1-0.4,1.4,0c0.4,0.4,0.4,1,0,1.4C13.3,11.1,10.8,12,8,12z"/>
<path fill="#444444" d="M8,8C4,8,0,6.6,0,4s4-4,8-4s8,1.4,8,4S12,8,8,8z M8,2C4.3,2,2,3.3,2,4s2.3,2,6,2s6-1.3,6-2S11.7,2,8,2z"/>
</svg>
