<?xml version="1.0" encoding="utf-8"?>
<!-- Generator: Adobe Illustrator 19.1.0, SVG Export Plug-In . SVG Version: 6.00 Build 0)  -->
<!DOCTYPE svg PUBLIC "-//W3C//DTD SVG 1.1//EN" "http://www.w3.org/Graphics/SVG/1.1/DTD/svg11.dtd">
<svg version="1.1" id="Layer_2" xmlns="http://www.w3.org/2000/svg" xmlns:xlink="http://www.w3.org/1999/xlink" x="0px" y="0px"
	 width="16px" height="16px" viewBox="0 0 16 16" enable-background="new 0 0 16 16" xml:space="preserve">
<path data-color="color-2" fill="#444444" d="M7,7H0V5h7c0.6,0,1-0.4,1-1S7.6,3,7,3S6,3.4,6,4H4c0-1.7,1.3-3,3-3s3,1.3,3,3S8.7,7,7,7z"/>
<path fill="#444444" d="M13,15c-1.7,0-3-1.3-3-3h2c0,0.6,0.4,1,1,1s1-0.4,1-1s-0.4-1-1-1H0V9h13c1.7,0,3,1.3,3,3S14.7,15,13,15z"/>
</svg>
