<?xml version="1.0" encoding="utf-8"?>
<!-- Generator: Adobe Illustrator 19.1.0, SVG Export Plug-In . SVG Version: 6.00 Build 0)  -->
<!DOCTYPE svg PUBLIC "-//W3C//DTD SVG 1.1//EN" "http://www.w3.org/Graphics/SVG/1.1/DTD/svg11.dtd">
<svg version="1.1" id="Layer_2" xmlns="http://www.w3.org/2000/svg" xmlns:xlink="http://www.w3.org/1999/xlink" x="0px" y="0px"
	 width="16px" height="16px" viewBox="0 0 16 16" enable-background="new 0 0 16 16" xml:space="preserve">
<path fill="#444444" d="M0.5,8.4C0.2,7.6,0,6.8,0,6c0-3.3,2.7-6,6-6c2.6,0,4.8,1.6,5.6,4C14,3.8,16,5.7,16,8c0,0.6-0.4,1-1,1
	s-1-0.4-1-1c0-1.3-1.3-2.4-2.7-1.9C10.7,6.4,10,6,9.9,5.4C9.6,3.4,8,2,6,2C3.8,2,2,3.8,2,6c0,0.6,0.1,1.1,0.3,1.6s0,1.1-0.5,1.3
	C1.3,9.1,0.7,8.9,0.5,8.4z"/>
<rect data-color="color-2" x="7" y="14" fill="#444444" width="2" height="2"/>
<rect data-color="color-2" x="4" y="12" fill="#444444" width="2" height="2"/>
<rect data-color="color-2" x="10" y="12" fill="#444444" width="2" height="2"/>
<rect data-color="color-2" x="7" y="10" fill="#444444" width="2" height="3"/>
<rect data-color="color-2" x="4" y="8" fill="#444444" width="2" height="3"/>
<rect data-color="color-2" x="10" y="8" fill="#444444" width="2" height="3"/>
</svg>
