<?xml version="1.0" encoding="utf-8"?>
<!-- Generator: Adobe Illustrator 19.1.0, SVG Export Plug-In . SVG Version: 6.00 Build 0)  -->
<!DOCTYPE svg PUBLIC "-//W3C//DTD SVG 1.1//EN" "http://www.w3.org/Graphics/SVG/1.1/DTD/svg11.dtd">
<svg version="1.1" id="Layer_2" xmlns="http://www.w3.org/2000/svg" xmlns:xlink="http://www.w3.org/1999/xlink" x="0px" y="0px"
	 width="16px" height="16px" viewBox="0 0 16 16" enable-background="new 0 0 16 16" xml:space="preserve">
<path fill="#444444" d="M10.3,5.7c-0.4-0.4-0.4-1,0-1.4l4-4c0.4-0.4,1-0.4,1.4,0s0.4,1,0,1.4l-4,4C11.3,6.1,10.7,6.1,10.3,5.7z"/>
<path fill="#444444" d="M10.3,11.7c-0.4-0.4-0.4-1,0-1.4l4-4c0.4-0.4,1-0.4,1.4,0s0.4,1,0,1.4l-4,4C11.3,12.1,10.7,12.1,10.3,11.7z"
	/>
<path fill="#444444" d="M3.3,6.7c-0.4-0.4-0.4-1,0-1.4l4-4c0.4-0.4,1-0.4,1.4,0s0.4,1,0,1.4l-4,4C4.3,7.1,3.7,7.1,3.3,6.7z"/>
<path data-color="color-2" fill="#444444" d="M0.3,9.7c-0.4-0.4-0.4-1,0-1.4l1-1c0.4-0.4,1-0.4,1.4,0s0.4,1,0,1.4l-1,1
	C1.3,10.1,0.7,10.1,0.3,9.7z"/>
<path data-color="color-2" fill="#444444" d="M7.3,8.7c-0.4-0.4-0.4-1,0-1.4l1-1c0.4-0.4,1-0.4,1.4,0s0.4,1,0,1.4l-1,1
	C8.3,9.1,7.7,9.1,7.3,8.7z"/>
<path data-color="color-2" fill="#444444" d="M7.3,14.7c-0.4-0.4-0.4-1,0-1.4l1-1c0.4-0.4,1-0.4,1.4,0s0.4,1,0,1.4l-1,1
	C8.3,15.1,7.7,15.1,7.3,14.7z"/>
</svg>
