<?xml version="1.0" encoding="utf-8"?>
<!-- Generator: Adobe Illustrator 19.1.0, SVG Export Plug-In . SVG Version: 6.00 Build 0)  -->
<!DOCTYPE svg PUBLIC "-//W3C//DTD SVG 1.1//EN" "http://www.w3.org/Graphics/SVG/1.1/DTD/svg11.dtd">
<svg version="1.1" id="Layer_2" xmlns="http://www.w3.org/2000/svg" xmlns:xlink="http://www.w3.org/1999/xlink" x="0px" y="0px"
	 width="16px" height="16px" viewBox="0 0 16 16" enable-background="new 0 0 16 16" xml:space="preserve">
<path fill="#444444" d="M16,5.5C16,3,14,1,11.5,1C9.8,1,8.4,1.9,7.6,3.2C7.1,3.1,6.6,3,6,3C2.7,3,0,5.7,0,9s2.7,6,6,6h6
	c2.2,0,4-1.8,4-4c0-1-0.4-1.9-1-2.6C15.6,7.6,16,6.6,16,5.5z M12,13H6c-2.2,0-4-1.8-4-4s1.8-4,4-4c3.1,0,3.8,2.4,4.1,4.6
	C13,8.5,14,9.7,14,11C14,12.1,13.1,13,12,13z"/>
</svg>
