<?xml version="1.0" encoding="utf-8"?>
<!-- Generator: Adobe Illustrator 19.1.0, SVG Export Plug-In . SVG Version: 6.00 Build 0)  -->
<!DOCTYPE svg PUBLIC "-//W3C//DTD SVG 1.1//EN" "http://www.w3.org/Graphics/SVG/1.1/DTD/svg11.dtd">
<svg version="1.1" id="Layer_2" xmlns="http://www.w3.org/2000/svg" xmlns:xlink="http://www.w3.org/1999/xlink" x="0px" y="0px"
	 width="16px" height="16px" viewBox="0 0 16 16" enable-background="new 0 0 16 16" xml:space="preserve">
<path fill="#444444" d="M14.7,9C15.4,8.2,15.9,7.1,16,6c-3.4,0.3-6.2-2.5-6-6c-2.3,0.2-4.2,1.8-4.8,4C2.3,4.4,0,7,0,10
	c0,3.3,2.7,6,6,6h6c2.2,0,4-1.8,4-4C16,10.8,15.5,9.8,14.7,9z M12,14H6c-2.2,0-4-1.8-4-4s1.8-4,4-4c3.1,0,3.8,2.4,4.1,4.6
	c3-1.2,3.9,0.2,3.9,1.4C14,13.1,13.1,14,12,14z"/>
</svg>
