<?xml version="1.0" encoding="utf-8"?>
<!-- Generator: Adobe Illustrator 19.1.0, SVG Export Plug-In . SVG Version: 6.00 Build 0)  -->
<!DOCTYPE svg PUBLIC "-//W3C//DTD SVG 1.1//EN" "http://www.w3.org/Graphics/SVG/1.1/DTD/svg11.dtd">
<svg version="1.1" id="Layer_2" xmlns="http://www.w3.org/2000/svg" xmlns:xlink="http://www.w3.org/1999/xlink" x="0px" y="0px"
	 width="16px" height="16px" viewBox="0 0 16 16" enable-background="new 0 0 16 16" xml:space="preserve">
<path data-color="color-2" fill="#444444" d="M6,14c0-1.2,2-3.3,2-3.3s2,2.1,2,3.3c0,1.3-1,2-2,2S6,15.3,6,14z"/>
<path fill="#444444" d="M14.9,6C15.6,5.3,16,4.5,16,3.5c0-0.3-0.1-0.6-0.1-0.9C14.1,3.7,11.6,2.2,12,0c-1.3,0.2-2.3,1-2.8,2.2
	C8.9,2.1,8.4,2,8,2C6,2,4.2,3.2,3.4,5C1.5,5,0,6.6,0,8.5C0,10.4,1.6,12,3.5,12H5v-2H3.5C2.7,10,2,9.3,2,8.5S2.7,7,3.5,7
	c0.3,0,1.1,0.2,1.4,0.3l0.2-1C5.4,5,6.6,4,8,4s2.6,1,2.9,2.3l0.2,1C11.4,7.2,12.2,7,12.5,7C13.3,7,14,7.7,14,8.5S13.3,10,12.5,10H11
	v2h1.5c1.9,0,3.5-1.6,3.5-3.5C16,7.5,15.6,6.6,14.9,6z"/>
</svg>
