<?xml version="1.0" encoding="utf-8"?>
<!-- Generator: Adobe Illustrator 19.1.0, SVG Export Plug-In . SVG Version: 6.00 Build 0)  -->
<!DOCTYPE svg PUBLIC "-//W3C//DTD SVG 1.1//EN" "http://www.w3.org/Graphics/SVG/1.1/DTD/svg11.dtd">
<svg version="1.1" id="Layer_1" xmlns="http://www.w3.org/2000/svg" xmlns:xlink="http://www.w3.org/1999/xlink" x="0px" y="0px"
	 width="16px" height="16px" viewBox="0 0 16 16" enable-background="new 0 0 16 16" xml:space="preserve">
<g>
	<path fill="#444444" d="M12,14H6c-3.3,0-6-2.7-6-6s2.7-6,6-6c2.6,0,4.8,1.6,5.6,4C14,5.8,16,7.7,16,10C16,12.2,14.2,14,12,14z M6,4
		C3.8,4,2,5.8,2,8c0,2.2,1.8,4,4,4h6c1.1,0,2-0.9,2-2c0-1-0.6-2.7-3.9-1.4C10,7.6,9.7,4,6,4z"/>
</g>
</svg>
