<?xml version="1.0" encoding="utf-8"?>
<!-- Generator: Adobe Illustrator 20.1.0, SVG Export Plug-In . SVG Version: 6.00 Build 0)  -->
<!DOCTYPE svg PUBLIC "-//W3C//DTD SVG 1.1//EN" "http://www.w3.org/Graphics/SVG/1.1/DTD/svg11.dtd">
<svg version="1.1" id="Layer_1" xmlns="http://www.w3.org/2000/svg" xmlns:xlink="http://www.w3.org/1999/xlink" x="0px" y="0px"
	 width="48px" height="48px" viewBox="0 0 48 48" enable-background="new 0 0 48 48" xml:space="preserve">
<path d="M42,11H6c-2.761,0-5,2.239-5,5v20c0,0.552,0.448,1,1,1h6V23c0-0.552,0.448-1,1-1h30c0.552,0,1,0.448,1,1v14h6
	c0.552,0,1-0.448,1-1V16C47,13.239,44.761,11,42,11z"/>
<path d="M37,1H11c-0.552,0-1,0.448-1,1v7h28V2C38,1.448,37.552,1,37,1z"/>
<path d="M37,47c0.552,0,1-0.448,1-1V24H10v22c0,0.552,0.448,1,1,1H37z M18,31h12c0.552,0,1,0.447,1,1s-0.448,1-1,1H18
	c-0.552,0-1-0.447-1-1S17.448,31,18,31z M18,38h12c0.552,0,1,0.447,1,1s-0.448,1-1,1H18c-0.552,0-1-0.447-1-1S17.448,38,18,38z"/>
</svg>
