<?xml version="1.0" encoding="utf-8"?>
<!-- Generator: Adobe Illustrator 20.1.0, SVG Export Plug-In . SVG Version: 6.00 Build 0)  -->
<!DOCTYPE svg PUBLIC "-//W3C//DTD SVG 1.1//EN" "http://www.w3.org/Graphics/SVG/1.1/DTD/svg11.dtd">
<svg version="1.1" id="Layer_1" xmlns="http://www.w3.org/2000/svg" xmlns:xlink="http://www.w3.org/1999/xlink" x="0px" y="0px"
	 width="48px" height="48px" viewBox="0 0 48 48" enable-background="new 0 0 48 48" xml:space="preserve">
<path d="M38,25c-4.963,0-9,4.037-9,9c0,4.963,4.037,9,9,9c4.963,0,9-4.037,9-9C47,29.037,42.963,25,38,25z M43.707,31.707l-7,7
	C36.512,38.902,36.256,39,36,39s-0.512-0.098-0.707-0.293l-3-3c-0.391-0.391-0.391-1.023,0-1.414s1.023-0.391,1.414,0L36,36.586
	l6.293-6.293c0.391-0.391,1.023-0.391,1.414,0S44.098,31.316,43.707,31.707z"/>
<circle cx="24" cy="11" r="1"/>
<path d="M2,30c-0.552,0-1,0.448-1,1v1c0,2.761,2.239,5,5,5h21.425C27.154,36.045,27,35.041,27,34c0-1.413,0.276-2.759,0.761-4H2z"/>
<path d="M43,24.21V10c0-2.757-2.243-5-5-5H10c-2.757,0-5,2.243-5,5v17h2V10c0-1.654,1.346-3,3-3h28c1.654,0,3,1.346,3,3v13.425
	C41.698,23.622,42.366,23.886,43,24.21z"/>
</svg>
