<?xml version="1.0" encoding="utf-8"?>
<!-- Generator: Adobe Illustrator 20.1.0, SVG Export Plug-In . SVG Version: 6.00 Build 0)  -->
<!DOCTYPE svg PUBLIC "-//W3C//DTD SVG 1.1//EN" "http://www.w3.org/Graphics/SVG/1.1/DTD/svg11.dtd">
<svg version="1.1" id="Layer_1" xmlns="http://www.w3.org/2000/svg" xmlns:xlink="http://www.w3.org/1999/xlink" x="0px" y="0px"
	 width="48px" height="48px" viewBox="0 0 48 48" enable-background="new 0 0 48 48" xml:space="preserve">
<path d="M46,11H2c-0.552,0-1,0.447-1,1v24c0,0.553,0.448,1,1,1h44c0.552,0,1-0.447,1-1V12C47,11.447,46.552,11,46,11z M18,19h2
	c0.552,0,1,0.447,1,1s-0.448,1-1,1h-2c-0.552,0-1-0.447-1-1S17.448,19,18,19z M10,29H8c-0.552,0-1-0.447-1-1s0.448-1,1-1h2
	c0.552,0,1,0.447,1,1S10.552,29,10,29z M10,21H8c-0.552,0-1-0.447-1-1s0.448-1,1-1h2c0.552,0,1,0.447,1,1S10.552,21,10,21z M30,29
	H18c-0.552,0-1-0.447-1-1s0.448-1,1-1h12c0.552,0,1,0.447,1,1S30.552,29,30,29z M30,21h-2c-0.552,0-1-0.447-1-1s0.448-1,1-1h2
	c0.552,0,1,0.447,1,1S30.552,21,30,21z M40,29h-2c-0.552,0-1-0.447-1-1s0.448-1,1-1h2c0.552,0,1,0.447,1,1S40.552,29,40,29z M40,21
	h-2c-0.552,0-1-0.447-1-1s0.448-1,1-1h2c0.552,0,1,0.447,1,1S40.552,21,40,21z"/>
</svg>
