<?xml version="1.0" encoding="utf-8"?>
<!-- Generator: Adobe Illustrator 20.1.0, SVG Export Plug-In . SVG Version: 6.00 Build 0)  -->
<!DOCTYPE svg PUBLIC "-//W3C//DTD SVG 1.1//EN" "http://www.w3.org/Graphics/SVG/1.1/DTD/svg11.dtd">
<svg version="1.1" id="Layer_1" xmlns="http://www.w3.org/2000/svg" xmlns:xlink="http://www.w3.org/1999/xlink" x="0px" y="0px"
	 width="48px" height="48px" viewBox="0 0 48 48" enable-background="new 0 0 48 48" xml:space="preserve">
<path d="M3,6v36c0,2.757,2.243,5,5,5h23.444c-2.906-1.329-5.132-3.882-6.018-7H8c-0.552,0-1-0.448-1-1V7c0-0.552,0.448-1,1-1h24
	c0.552,0,1,0.448,1,1v19.426C33.955,26.155,34.959,26,36,26c0.338,0,0.67,0.021,1,0.051V6c0-2.757-2.243-5-5-5H8
	C5.243,1,3,3.243,3,6z"/>
<path d="M27,37c0,4.971,4.029,9,9,9s9-4.029,9-9s-4.029-9-9-9S27,32.029,27,37z M37,32v4h4c0.552,0,1,0.448,1,1s-0.448,1-1,1h-5
	c-0.552,0-1-0.448-1-1v-5c0-0.552,0.448-1,1-1S37,31.448,37,32z"/>
</svg>
