<?xml version="1.0" encoding="utf-8"?>
<!-- Generator: Adobe Illustrator 20.1.0, SVG Export Plug-In . SVG Version: 6.00 Build 0)  -->
<!DOCTYPE svg PUBLIC "-//W3C//DTD SVG 1.1//EN" "http://www.w3.org/Graphics/SVG/1.1/DTD/svg11.dtd">
<svg version="1.1" id="Layer_1" xmlns="http://www.w3.org/2000/svg" xmlns:xlink="http://www.w3.org/1999/xlink" x="0px" y="0px"
	 width="48px" height="48px" viewBox="0 0 48 48" enable-background="new 0 0 48 48" xml:space="preserve">
<path d="M42,3H6C3.243,3,1,5.243,1,8v32c0,2.757,2.243,5,5,5h36c2.757,0,5-2.243,5-5V8C47,5.243,44.757,3,42,3z M43,40
	c0,0.553-0.447,1-1,1H6c-0.553,0-1-0.447-1-1V8c0-0.553,0.447-1,1-1h36c0.553,0,1,0.447,1,1V40z"/>
<path d="M30.573,23.181l-10-7c-0.306-0.214-0.705-0.24-1.035-0.067C19.207,16.285,19,16.627,19,17v14
	c0,0.373,0.207,0.715,0.538,0.887C19.684,31.963,19.842,32,20,32c0.201,0,0.402-0.061,0.573-0.181l10-7
	C30.841,24.632,31,24.326,31,24S30.841,23.368,30.573,23.181z"/>
</svg>
