<?xml version="1.0" encoding="utf-8"?>
<!-- Generator: Adobe Illustrator 20.1.0, SVG Export Plug-In . SVG Version: 6.00 Build 0)  -->
<!DOCTYPE svg PUBLIC "-//W3C//DTD SVG 1.1//EN" "http://www.w3.org/Graphics/SVG/1.1/DTD/svg11.dtd">
<svg version="1.1" id="Layer_1" xmlns="http://www.w3.org/2000/svg" xmlns:xlink="http://www.w3.org/1999/xlink" x="0px" y="0px"
	 width="48px" height="48px" viewBox="0 0 48 48" enable-background="new 0 0 48 48" xml:space="preserve">
<path d="M42,8H6c-2.757,0-5,2.243-5,5v22c0,2.757,2.243,5,5,5h36c2.757,0,5-2.243,5-5V13C47,10.243,44.757,8,42,8z M42,35
	c0,0.552-0.448,1-1,1H9c-0.552,0-1-0.448-1-1V13c0-0.552,0.448-1,1-1h32c0.552,0,1,0.448,1,1V35z"/>
</svg>
