<?xml version="1.0" encoding="utf-8"?>
<!-- Generator: Adobe Illustrator 20.1.0, SVG Export Plug-In . SVG Version: 6.00 Build 0)  -->
<!DOCTYPE svg PUBLIC "-//W3C//DTD SVG 1.1//EN" "http://www.w3.org/Graphics/SVG/1.1/DTD/svg11.dtd">
<svg version="1.1" id="Layer_1" xmlns="http://www.w3.org/2000/svg" xmlns:xlink="http://www.w3.org/1999/xlink" x="0px" y="0px"
	 width="48px" height="48px" viewBox="0 0 48 48" enable-background="new 0 0 48 48" xml:space="preserve">
<path d="M42,8c0-1.654-1.346-3-3-3H9C7.346,5,6,6.346,6,8v20h36V8z M38,23c0,0.552-0.448,1-1,1H11c-0.552,0-1-0.448-1-1V10
	c0-0.552,0.448-1,1-1h26c0.552,0,1,0.448,1,1V23z"/>
<path d="M4.236,43h39.528c1.047,0,2.001-0.532,2.552-1.423c0.551-0.891,0.6-1.982,0.131-2.919L42.118,30H5.882l-4.329,8.658
	c-0.468,0.937-0.419,2.028,0.131,2.919C2.235,42.468,3.188,43,4.236,43z"/>
</svg>
