<?xml version="1.0" encoding="utf-8"?>
<!-- Generator: Adobe Illustrator 20.1.0, SVG Export Plug-In . SVG Version: 6.00 Build 0)  -->
<!DOCTYPE svg PUBLIC "-//W3C//DTD SVG 1.1//EN" "http://www.w3.org/Graphics/SVG/1.1/DTD/svg11.dtd">
<svg version="1.1" id="Layer_1" xmlns="http://www.w3.org/2000/svg" xmlns:xlink="http://www.w3.org/1999/xlink" x="0px" y="0px"
	 width="48px" height="48px" viewBox="0 0 48 48" enable-background="new 0 0 48 48" xml:space="preserve">
<path d="M46,15h-3v-3c0-0.552-0.447-1-1-1s-1,0.448-1,1v3h-6v-3c0-0.552-0.447-1-1-1s-1,0.448-1,1v3h-3c-0.553,0-1,0.448-1,1
	s0.447,1,1,1h1v5c0,3.519,2.614,6.432,6,6.92V45H14v-5h-2v6c0,0.552,0.447,1,1,1h25c0.553,0,1-0.448,1-1V28.92
	c3.386-0.488,6-3.401,6-6.92v-5h1c0.553,0,1-0.448,1-1S46.553,15,46,15z"/>
<path d="M6,37h14c2.757,0,5-2.243,5-5V6c0-2.757-2.243-5-5-5H6C3.243,1,1,3.243,1,6v26C1,34.757,3.243,37,6,37z M13,34
	c-1.105,0-2-0.895-2-2s0.895-2,2-2s2,0.895,2,2S14.105,34,13,34z M3,8c0-0.552,0.448-1,1-1h18c0.552,0,1,0.448,1,1v18
	c0,0.552-0.448,1-1,1H4c-0.552,0-1-0.448-1-1V8z"/>
</svg>
