<?xml version="1.0" encoding="utf-8"?>
<!-- Generator: Adobe Illustrator 20.1.0, SVG Export Plug-In . SVG Version: 6.00 Build 0)  -->
<!DOCTYPE svg PUBLIC "-//W3C//DTD SVG 1.1//EN" "http://www.w3.org/Graphics/SVG/1.1/DTD/svg11.dtd">
<svg version="1.1" id="Layer_1" xmlns="http://www.w3.org/2000/svg" xmlns:xlink="http://www.w3.org/1999/xlink" x="0px" y="0px"
	 width="48px" height="48px" viewBox="0 0 48 48" enable-background="new 0 0 48 48" xml:space="preserve">
<path d="M1,40c0,0.552,0.447,1,1,1h44c0.553,0,1-0.448,1-1V25H1V40z M10,32h28c0.553,0,1,0.448,1,1s-0.447,1-1,1H10
	c-0.553,0-1-0.448-1-1S9.447,32,10,32z"/>
<path d="M46.554,23L36.848,7.47C36.665,7.178,36.345,7,36,7H12c-0.345,0-0.665,0.178-0.848,0.47L1.446,23H46.554z"/>
</svg>
