<?xml version="1.0" encoding="utf-8"?>
<!-- Generator: Adobe Illustrator 20.1.0, SVG Export Plug-In . SVG Version: 6.00 Build 0)  -->
<!DOCTYPE svg PUBLIC "-//W3C//DTD SVG 1.1//EN" "http://www.w3.org/Graphics/SVG/1.1/DTD/svg11.dtd">
<svg version="1.1" id="Layer_1" xmlns="http://www.w3.org/2000/svg" xmlns:xlink="http://www.w3.org/1999/xlink" x="0px" y="0px"
	 width="48px" height="48px" viewBox="0 0 48 48" enable-background="new 0 0 48 48" xml:space="preserve">
<path d="M5,29h12c2.206,0,4-1.794,4-4V5c0-2.206-1.794-4-4-4H5C2.794,1,1,2.794,1,5v20C1,27.206,2.794,29,5,29z M3,7
	c0-0.552,0.448-1,1-1h14c0.552,0,1,0.448,1,1v15c0,0.552-0.448,1-1,1H4c-0.552,0-1-0.448-1-1V7z"/>
<path d="M43,19H31c-2.206,0-4,1.794-4,4v20c0,2.206,1.794,4,4,4h12c2.206,0,4-1.794,4-4V23C47,20.794,45.206,19,43,19z M45,40
	c0,0.552-0.448,1-1,1H30c-0.552,0-1-0.448-1-1V25c0-0.552,0.448-1,1-1h14c0.552,0,1,0.448,1,1V40z"/>
<path d="M28,1c-0.552,0-1,0.448-1,1s0.448,1,1,1c4.962,0,9,4.038,9,9c0,0.552,0.448,1,1,1s1-0.448,1-1C39,5.935,34.065,1,28,1z"/>
<path d="M11,36c0-0.552-0.448-1-1-1s-1,0.448-1,1c0,6.065,4.935,11,11,11c0.552,0,1-0.448,1-1s-0.448-1-1-1
	C15.038,45,11,40.962,11,36z"/>
</svg>
