<?xml version="1.0" encoding="utf-8"?>
<!-- Generator: Adobe Illustrator 20.1.0, SVG Export Plug-In . SVG Version: 6.00 Build 0)  -->
<!DOCTYPE svg PUBLIC "-//W3C//DTD SVG 1.1//EN" "http://www.w3.org/Graphics/SVG/1.1/DTD/svg11.dtd">
<svg version="1.1" id="Layer_1" xmlns="http://www.w3.org/2000/svg" xmlns:xlink="http://www.w3.org/1999/xlink" x="0px" y="0px"
	 width="48px" height="48px" viewBox="0 0 48 48" enable-background="new 0 0 48 48" xml:space="preserve">
<path d="M11,2v7h26V2c0-0.552-0.448-1-1-1H12C11.448,1,11,1.448,11,2z"/>
<path d="M37,11H11C5.486,11,1,15.486,1,21v15c0,0.553,0.448,1,1,1h7V25c0-0.552,0.448-1,1-1h28c0.552,0,1,0.448,1,1v12h7
	c0.552,0,1-0.447,1-1V21C47,15.486,42.514,11,37,11z M36.5,19c-0.828,0-1.5-0.672-1.5-1.5s0.672-1.5,1.5-1.5s1.5,0.672,1.5,1.5
	S37.328,19,36.5,19z"/>
<path d="M37,46V26H11v20c0,0.552,0.448,1,1,1h24C36.552,47,37,46.552,37,46z M30,41H18c-0.552,0-1-0.447-1-1s0.448-1,1-1h12
	c0.552,0,1,0.447,1,1S30.552,41,30,41z M30,34H18c-0.552,0-1-0.447-1-1s0.448-1,1-1h12c0.552,0,1,0.447,1,1S30.552,34,30,34z"/>
</svg>
