<?xml version="1.0" encoding="utf-8"?>
<!-- Generator: Adobe Illustrator 20.1.0, SVG Export Plug-In . SVG Version: 6.00 Build 0)  -->
<!DOCTYPE svg PUBLIC "-//W3C//DTD SVG 1.1//EN" "http://www.w3.org/Graphics/SVG/1.1/DTD/svg11.dtd">
<svg version="1.1" id="Layer_1" xmlns="http://www.w3.org/2000/svg" xmlns:xlink="http://www.w3.org/1999/xlink" x="0px" y="0px"
	 width="48px" height="48px" viewBox="0 0 48 48" enable-background="new 0 0 48 48" xml:space="preserve">
<path d="M15,26V8c0-0.553-0.447-1-1-1H2C1.447,7,1,7.447,1,8v18c0,0.553,0.447,1,1,1h12C14.553,27,15,26.553,15,26z"/>
<path d="M46,7H34c-0.553,0-1,0.447-1,1v18c0,0.553,0.447,1,1,1h12c0.553,0,1-0.447,1-1V8C47,7.447,46.553,7,46,7z"/>
<path d="M39,45H9V31H7v15c0,0.553,0.447,1,1,1h32c0.553,0,1-0.447,1-1V31h-2V45z"/>
<path d="M3,2v3h10V2c0-0.553-0.447-1-1-1H4C3.447,1,3,1.447,3,2z"/>
<path d="M35,2v3h10V2c0-0.553-0.447-1-1-1h-8C35.447,1,35,1.447,35,2z"/>
</svg>
