<?xml version="1.0" encoding="utf-8"?>
<!-- Generator: Adobe Illustrator 20.1.0, SVG Export Plug-In . SVG Version: 6.00 Build 0)  -->
<!DOCTYPE svg PUBLIC "-//W3C//DTD SVG 1.1//EN" "http://www.w3.org/Graphics/SVG/1.1/DTD/svg11.dtd">
<svg version="1.1" id="Layer_1" xmlns="http://www.w3.org/2000/svg" xmlns:xlink="http://www.w3.org/1999/xlink" x="0px" y="0px"
	 width="48px" height="48px" viewBox="0 0 48 48" enable-background="new 0 0 48 48" xml:space="preserve">
<circle cx="24" cy="11" r="1"/>
<path d="M38.539,27.015c1.501,0,2.907,0.511,4.033,1.429l-2.497,2.686l6.686,0.351l-0.606-6.893l-2.216,2.384
	c-1.494-1.26-3.383-1.957-5.4-1.957c-4.513,0-8.206,3.538-8.474,7.985h2.001C32.339,29.707,35.189,27.015,38.539,27.015z"/>
<path d="M38.461,39.985c-1.501,0-2.907-0.511-4.033-1.429l2.497-2.686l-6.687-0.351l0.606,6.893l2.216-2.384
	c1.494,1.26,3.383,1.957,5.4,1.957c4.513,0,8.206-3.538,8.474-7.985h-2.001C44.661,37.293,41.811,39.985,38.461,39.985z"/>
<path d="M2,30c-0.552,0-1,0.448-1,1v1c0,2.761,2.239,5,5,5h22.425C28.154,36.045,28,35.041,28,34c0-1.413,0.276-2.759,0.761-4H2z"/>
<path d="M43,23.761V10c0-2.757-2.243-5-5-5H10c-2.757,0-5,2.243-5,5v17h2V10c0-1.654,1.346-3,3-3h28c1.654,0,3,1.346,3,3v13.19
	C41.692,23.318,42.36,23.511,43,23.761z"/>
</svg>
