<?xml version="1.0" encoding="utf-8"?>
<!-- Generator: Adobe Illustrator 20.1.0, SVG Export Plug-In . SVG Version: 6.00 Build 0)  -->
<!DOCTYPE svg PUBLIC "-//W3C//DTD SVG 1.1//EN" "http://www.w3.org/Graphics/SVG/1.1/DTD/svg11.dtd">
<svg version="1.1" id="Layer_1" xmlns="http://www.w3.org/2000/svg" xmlns:xlink="http://www.w3.org/1999/xlink" x="0px" y="0px"
	 width="48px" height="48px" viewBox="0 0 48 48" enable-background="new 0 0 48 48" xml:space="preserve">
<path d="M46,31h-1v-5c0-3.519-2.614-6.432-6-6.92V2c0-0.552-0.447-1-1-1H13c-0.553,0-1,0.448-1,1v6h2V3h23v16.08
	c-3.386,0.488-6,3.401-6,6.92v5h-1c-0.553,0-1,0.448-1,1s0.447,1,1,1h3v3c0,0.552,0.447,1,1,1s1-0.448,1-1v-3h6v3
	c0,0.552,0.447,1,1,1s1-0.448,1-1v-3h3c0.553,0,1-0.448,1-1S46.553,31,46,31z"/>
<path d="M6,47h14c2.757,0,5-2.243,5-5V16c0-2.757-2.243-5-5-5H6c-2.757,0-5,2.243-5,5v26C1,44.757,3.243,47,6,47z M13,44
	c-1.105,0-2-0.895-2-2s0.895-2,2-2s2,0.895,2,2S14.105,44,13,44z M3,18c0-0.552,0.448-1,1-1h18c0.552,0,1,0.448,1,1v18
	c0,0.552-0.448,1-1,1H4c-0.552,0-1-0.448-1-1V18z"/>
</svg>
