<?xml version="1.0" encoding="utf-8"?>
<!-- Generator: Adobe Illustrator 20.1.0, SVG Export Plug-In . SVG Version: 6.00 Build 0)  -->
<!DOCTYPE svg PUBLIC "-//W3C//DTD SVG 1.1//EN" "http://www.w3.org/Graphics/SVG/1.1/DTD/svg11.dtd">
<svg version="1.1" id="Layer_1" xmlns="http://www.w3.org/2000/svg" xmlns:xlink="http://www.w3.org/1999/xlink" x="0px" y="0px"
	 width="48px" height="48px" viewBox="0 0 48 48" enable-background="new 0 0 48 48" xml:space="preserve">
<path d="M45,1h-8v46h8c1.105,0,2-0.895,2-2V3C47,1.895,46.105,1,45,1z"/>
<path d="M35,1H13v46h22V1z M24,38c-1.105,0-2-0.895-2-2c0-1.105,0.895-2,2-2c1.105,0,2,0.895,2,2C26,37.105,25.105,38,24,38z M24,26
	c-1.105,0-2-0.895-2-2c0-1.105,0.895-2,2-2c1.105,0,2,0.895,2,2C26,25.105,25.105,26,24,26z M24,14c-1.105,0-2-0.895-2-2
	s0.895-2,2-2c1.105,0,2,0.895,2,2S25.105,14,24,14z"/>
<path d="M3,47h8V1H3C1.895,1,1,1.895,1,3v42C1,46.105,1.895,47,3,47z"/>
</svg>
