<?xml version="1.0" encoding="utf-8"?>
<!-- Generator: Adobe Illustrator 20.1.0, SVG Export Plug-In . SVG Version: 6.00 Build 0)  -->
<!DOCTYPE svg PUBLIC "-//W3C//DTD SVG 1.1//EN" "http://www.w3.org/Graphics/SVG/1.1/DTD/svg11.dtd">
<svg version="1.1" id="Layer_1" xmlns="http://www.w3.org/2000/svg" xmlns:xlink="http://www.w3.org/1999/xlink" x="0px" y="0px"
	 width="48px" height="48px" viewBox="0 0 48 48" enable-background="new 0 0 48 48" xml:space="preserve">
<path d="M17,40v4h-5c-0.552,0-1,0.448-1,1s0.448,1,1,1h24c0.552,0,1-0.448,1-1s-0.448-1-1-1h-5v-4H17z"/>
<path d="M42,2H6C3.243,2,1,4.243,1,7v26c0,2.757,2.243,5,5,5h36c2.757,0,5-2.243,5-5V7C47,4.243,44.757,2,42,2z M45,28H3V7
	c0-1.654,1.346-3,3-3h36c1.654,0,3,1.346,3,3V28z"/>
<circle cx="24" cy="8" r="1"/>
</svg>
