<?xml version="1.0" encoding="utf-8"?>
<!-- Generator: Adobe Illustrator 20.1.0, SVG Export Plug-In . SVG Version: 6.00 Build 0)  -->
<!DOCTYPE svg PUBLIC "-//W3C//DTD SVG 1.1//EN" "http://www.w3.org/Graphics/SVG/1.1/DTD/svg11.dtd">
<svg version="1.1" id="Layer_1" xmlns="http://www.w3.org/2000/svg" xmlns:xlink="http://www.w3.org/1999/xlink" x="0px" y="0px"
	 width="48px" height="48px" viewBox="0 0 48 48" enable-background="new 0 0 48 48" xml:space="preserve">
<path d="M34,1c-0.553,0-1,0.448-1,1s0.447,1,1,1c6.065,0,11,4.935,11,11c0,0.552,0.447,1,1,1s1-0.448,1-1C47,6.832,41.168,1,34,1z"
	/>
<path d="M14,45C7.935,45,3,40.065,3,34c0-0.552-0.447-1-1-1s-1,0.448-1,1c0,7.168,5.832,13,13,13c0.553,0,1-0.448,1-1
	S14.553,45,14,45z"/>
<path d="M22.025,2.462c-1.949-1.949-5.122-1.949-7.071,0L2.458,14.958c-1.949,1.949-1.949,5.122,0,7.071l23.513,23.513
	c1.949,1.949,5.122,1.949,7.071,0l12.496-12.496c1.949-1.949,1.949-5.122,0-7.071L22.025,2.462z M40.588,28.097L28.093,40.592
	c-0.391,0.391-1.024,0.391-1.414,0L5.993,19.907c-0.391-0.391-0.391-1.024,0-1.414L18.489,5.998c0.391-0.391,1.024-0.391,1.414,0
	l20.685,20.685C40.979,27.073,40.979,27.706,40.588,28.097z"/>
</svg>
