<?xml version="1.0" encoding="utf-8"?>
<!-- Generator: Adobe Illustrator 20.1.0, SVG Export Plug-In . SVG Version: 6.00 Build 0)  -->
<!DOCTYPE svg PUBLIC "-//W3C//DTD SVG 1.1//EN" "http://www.w3.org/Graphics/SVG/1.1/DTD/svg11.dtd">
<svg version="1.1" id="Layer_1" xmlns="http://www.w3.org/2000/svg" xmlns:xlink="http://www.w3.org/1999/xlink" x="0px" y="0px"
	 width="48px" height="48px" viewBox="0 0 48 48" enable-background="new 0 0 48 48" xml:space="preserve">
<path d="M40.939,30.972c-1.494-1.26-3.383-1.957-5.4-1.957c-4.513,0-8.206,3.538-8.474,7.985h2.001
	c0.273-3.293,3.123-5.985,6.473-5.985c1.501,0,2.907,0.511,4.033,1.429l-2.497,2.686l6.686,0.351l-0.606-6.893L40.939,30.972z"/>
<path d="M41.934,38c-0.273,3.293-3.123,5.985-6.473,5.985c-1.501,0-2.907-0.511-4.033-1.429l2.497-2.686l-6.687-0.351l0.606,6.893
	l2.216-2.384c1.494,1.26,3.383,1.957,5.4,1.957c4.513,0,8.206-3.538,8.474-7.985H41.934z"/>
<path d="M33,1H9C6.243,1,4,3.243,4,6v36c0,2.757,2.243,5,5,5h16v-7H9c-0.552,0-1-0.448-1-1V7c0-0.552,0.448-1,1-1h24
	c0.552,0,1,0.448,1,1v20.05c0.329-0.033,0.662-0.05,1-0.05c1.045,0,2.053,0.162,3,0.459V6C38,3.243,35.757,1,33,1z"/>
</svg>
