<?xml version="1.0" encoding="utf-8"?>
<!-- Generator: Adobe Illustrator 20.1.0, SVG Export Plug-In . SVG Version: 6.00 Build 0)  -->
<!DOCTYPE svg PUBLIC "-//W3C//DTD SVG 1.1//EN" "http://www.w3.org/Graphics/SVG/1.1/DTD/svg11.dtd">
<svg version="1.1" id="Layer_1" xmlns="http://www.w3.org/2000/svg" xmlns:xlink="http://www.w3.org/1999/xlink" x="0px" y="0px"
	 width="48px" height="48px" viewBox="0 0 48 48" enable-background="new 0 0 48 48" xml:space="preserve">
<path d="M2,36h11v-2H3V8h10V6H2C1.447,6,1,6.448,1,7v28C1,35.552,1.447,36,2,36z"/>
<path d="M46,1H16c-0.553,0-1,0.448-1,1v44c0,0.552,0.447,1,1,1h30c0.553,0,1-0.448,1-1V2C47,1.448,46.553,1,46,1z M31,39
	c-1.657,0-3-1.343-3-3s1.343-3,3-3s3,1.343,3,3S32.657,39,31,39z M40,19H22c-0.553,0-1-0.448-1-1s0.447-1,1-1h18
	c0.553,0,1,0.448,1,1S40.553,19,40,19z M40,11H22c-0.553,0-1-0.448-1-1s0.447-1,1-1h18c0.553,0,1,0.448,1,1S40.553,11,40,11z"/>
<path d="M13,42v-2H6c-0.553,0-1,0.448-1,1s0.447,1,1,1H13z"/>
</svg>
