<?xml version="1.0" encoding="utf-8"?>
<!-- Generator: Adobe Illustrator 20.1.0, SVG Export Plug-In . SVG Version: 6.00 Build 0)  -->
<!DOCTYPE svg PUBLIC "-//W3C//DTD SVG 1.1//EN" "http://www.w3.org/Graphics/SVG/1.1/DTD/svg11.dtd">
<svg version="1.1" id="Layer_1" xmlns="http://www.w3.org/2000/svg" xmlns:xlink="http://www.w3.org/1999/xlink" x="0px" y="0px"
	 width="48px" height="48px" viewBox="0 0 48 48" enable-background="new 0 0 48 48" xml:space="preserve">
<path d="M36,26c0.338,0,0.67,0.021,1,0.051V6c0-2.757-2.243-5-5-5H8C5.243,1,3,3.243,3,6v36c0,2.757,2.243,5,5,5h23.444
	c-2.906-1.329-5.132-3.882-6.018-7H8c-0.552,0-1-0.448-1-1V7c0-0.552,0.448-1,1-1h24c0.552,0,1,0.448,1,1v19.426
	C33.955,26.155,34.959,26,36,26z"/>
<path d="M36,28c-4.963,0-9,4.037-9,9c0,4.963,4.037,9,9,9c4.963,0,9-4.037,9-9C45,32.037,40.963,28,36,28z M41.707,34.707l-7,7
	C34.512,41.902,34.256,42,34,42s-0.512-0.098-0.707-0.293l-3-3c-0.391-0.391-0.391-1.023,0-1.414s1.023-0.391,1.414,0L34,39.586
	l6.293-6.293c0.391-0.391,1.023-0.391,1.414,0S42.098,34.316,41.707,34.707z"/>
</svg>
