<?xml version="1.0" encoding="utf-8"?>
<!-- Generator: Adobe Illustrator 20.1.0, SVG Export Plug-In . SVG Version: 6.00 Build 0)  -->
<!DOCTYPE svg PUBLIC "-//W3C//DTD SVG 1.1//EN" "http://www.w3.org/Graphics/SVG/1.1/DTD/svg11.dtd">
<svg version="1.1" id="Layer_1" xmlns="http://www.w3.org/2000/svg" xmlns:xlink="http://www.w3.org/1999/xlink" x="0px" y="0px"
	 width="48px" height="48px" viewBox="0 0 48 48" enable-background="new 0 0 48 48" xml:space="preserve">
<path d="M44.895,37.553C44.725,37.214,44.379,37,44,37h-4V26h-4v11h-4c-0.379,0-0.725,0.214-0.895,0.553S30.973,38.297,31.2,38.6
	l6,8c0.188,0.252,0.485,0.4,0.8,0.4s0.611-0.148,0.8-0.4l6-8C45.027,38.297,45.064,37.892,44.895,37.553z"/>
<path d="M40,24V6c0-2.757-2.243-5-5-5H11C8.243,1,6,3.243,6,6v36c0,2.757,2.243,5,5,5h24h0l-5.25-7H11c-0.552,0-1-0.448-1-1V7
	c0-0.552,0.448-1,1-1h24c0.552,0,1,0.448,1,1v17H40z"/>
</svg>
