<?xml version="1.0" encoding="utf-8"?>
<!-- Generator: Adobe Illustrator 20.1.0, SVG Export Plug-In . SVG Version: 6.00 Build 0)  -->
<!DOCTYPE svg PUBLIC "-//W3C//DTD SVG 1.1//EN" "http://www.w3.org/Graphics/SVG/1.1/DTD/svg11.dtd">
<svg version="1.1" id="Layer_1" xmlns="http://www.w3.org/2000/svg" xmlns:xlink="http://www.w3.org/1999/xlink" x="0px" y="0px"
	 width="48px" height="48px" viewBox="0 0 48 48" enable-background="new 0 0 48 48" xml:space="preserve">
<path d="M34,1H10C7.243,1,5,3.243,5,6v36c0,2.757,2.243,5,5,5h24c0.472,0,0.92-0.087,1.354-0.21C34.509,45.756,34,44.437,34,43
	c0-0.033,0-0.067,0.001-0.102l-1.09-0.653C32.029,42.738,31.033,43,30,43c-2.215,0-4.149-1.21-5.188-3H10c-0.552,0-1-0.448-1-1V7
	c0-0.552,0.448-1,1-1h24c0.552,0,1,0.448,1,1v20.69c0.899-1.354,2.334-2.319,4-2.6V6C39,3.243,36.757,1,34,1z"/>
<path d="M40,35c2.206,0,4-1.794,4-4s-1.794-4-4-4s-4,1.794-4,4c0,0.393,0.075,0.766,0.181,1.126l-3.378,2.027
	C32.08,33.441,31.092,33,30,33c-2.206,0-4,1.794-4,4s1.794,4,4,4c1.092,0,2.08-0.441,2.803-1.153l3.378,2.027
	C36.075,42.234,36,42.607,36,43c0,2.206,1.794,4,4,4s4-1.794,4-4s-1.794-4-4-4c-1.091,0-2.08,0.441-2.802,1.152l-3.379-2.027
	C33.925,37.766,34,37.393,34,37s-0.075-0.766-0.181-1.125l3.379-2.027C37.92,34.559,38.909,35,40,35z"/>
</svg>
