<?xml version="1.0" encoding="utf-8"?>
<!-- Generator: Adobe Illustrator 20.1.0, SVG Export Plug-In . SVG Version: 6.00 Build 0)  -->
<!DOCTYPE svg PUBLIC "-//W3C//DTD SVG 1.1//EN" "http://www.w3.org/Graphics/SVG/1.1/DTD/svg11.dtd">
<svg version="1.1" id="Layer_1" xmlns="http://www.w3.org/2000/svg" xmlns:xlink="http://www.w3.org/1999/xlink" x="0px" y="0px"
	 width="48px" height="48px" viewBox="0 0 48 48" enable-background="new 0 0 48 48" xml:space="preserve">
<circle cx="24" cy="37" r="4"/>
<path d="M31.563,20.679l-3.07,3.07c2.012,0.68,3.86,1.806,5.406,3.352l1.414,1.415l2.829-2.829l-1.415-1.414
	C35.208,22.753,33.456,21.558,31.563,20.679z"/>
<path d="M5.615,18.615C10.526,13.705,17.055,11,24,11c3.383,0,6.662,0.652,9.707,1.879l-6.436,6.436C26.203,19.113,25.111,19,24,19
	c-4.808,0-9.329,1.873-12.728,5.272l-1.414,1.414l2.829,2.829l1.415-1.415c2.54-2.541,5.888-3.97,9.464-4.079L7.293,39.293
	c-0.391,0.391-0.391,1.023,0,1.414C7.488,40.902,7.744,41,8,41s0.512-0.098,0.707-0.293l36-36c0.391-0.391,0.391-1.023,0-1.414
	s-1.023-0.391-1.414,0l-6.552,6.552C32.804,7.993,28.481,7,24,7c-8.014,0-15.547,3.121-21.213,8.787l-1.415,1.414l2.829,2.829
	L5.615,18.615z"/>
<path d="M37.482,14.761c1.761,1.072,3.408,2.36,4.903,3.855l1.414,1.415l2.829-2.829l-1.415-1.414
	c-1.489-1.49-3.11-2.798-4.833-3.925L37.482,14.761z"/>
</svg>
