<?xml version="1.0" encoding="utf-8"?>
<!-- Generator: Adobe Illustrator 20.1.0, SVG Export Plug-In . SVG Version: 6.00 Build 0)  -->
<!DOCTYPE svg PUBLIC "-//W3C//DTD SVG 1.1//EN" "http://www.w3.org/Graphics/SVG/1.1/DTD/svg11.dtd">
<svg version="1.1" id="Layer_1" xmlns="http://www.w3.org/2000/svg" xmlns:xlink="http://www.w3.org/1999/xlink" x="0px" y="0px"
	 width="48px" height="48px" viewBox="0 0 48 48" enable-background="new 0 0 48 48" xml:space="preserve">
<path d="M8,39h6c0.552,0,1-0.448,1-1V24c0-0.552-0.448-1-1-1H5v-1C5,11.523,13.523,3,24,3s19,8.523,19,19v1h-9c-0.552,0-1,0.448-1,1
	v14c0,0.552,0.448,1,1,1h6c1.13,0,2.162-0.391,3-1.026V39c0,2.757-2.243,5-5,5h-3v-1c0-0.552-0.448-1-1-1H24c-0.552,0-1,0.448-1,1v3
	c0,0.552,0.448,1,1,1h10c0.552,0,1-0.448,1-1h3c3.86,0,7-3.14,7-7V22c0-11.58-9.42-21-21-21S3,10.42,3,22v12C3,36.757,5.243,39,8,39
	z"/>
</svg>
