<?xml version="1.0" encoding="utf-8"?>
<!-- Generator: Adobe Illustrator 19.0.1, SVG Export Plug-In . SVG Version: 6.00 Build 0)  -->
<!DOCTYPE svg PUBLIC "-//W3C//DTD SVG 1.1//EN" "http://www.w3.org/Graphics/SVG/1.1/DTD/svg11.dtd">
<svg version="1.1" id="Layer_1" xmlns="http://www.w3.org/2000/svg" xmlns:xlink="http://www.w3.org/1999/xlink" x="0px" y="0px"
	 width="32px" height="32px" viewBox="0 0 32 32" enable-background="new 0 0 32 32" xml:space="preserve">
<path d="M13,12c0-1.7-1.3-3-3-3s-3,1.3-3,3s1.3,3,3,3S13,13.7,13,12z M9,12c0-0.6,0.4-1,1-1s1,0.4,1,1s-0.4,1-1,1S9,12.6,9,12z"/>
<path d="M16,0C7.2,0,0,7.2,0,16s7.2,16,16,16s16-7.2,16-16S24.8,0,16,0z M16,30C8.3,30,2,23.7,2,16S8.3,2,16,2s14,6.3,14,14
	S23.7,30,16,30z"/>
<path d="M23,11h-4c-0.6,0-1,0.4-1,1s0.4,1,1,1h4c0.6,0,1-0.4,1-1S23.6,11,23,11z"/>
<path d="M22,19H10c-0.6,0-1,0.4-1,1s0.4,1,1,1h2v2c0,2.2,1.8,4,4,4s4-1.8,4-4v-2h2c0.6,0,1-0.4,1-1S22.6,19,22,19z M18,23
	c0,1.1-0.9,2-2,2s-2-0.9-2-2v-2h4V23z"/>
</svg>
