<?xml version="1.0" encoding="utf-8"?>
<!-- Generator: Adobe Illustrator 19.0.1, SVG Export Plug-In . SVG Version: 6.00 Build 0)  -->
<!DOCTYPE svg PUBLIC "-//W3C//DTD SVG 1.1//EN" "http://www.w3.org/Graphics/SVG/1.1/DTD/svg11.dtd">
<svg version="1.1" id="Layer_1" xmlns="http://www.w3.org/2000/svg" xmlns:xlink="http://www.w3.org/1999/xlink" x="0px" y="0px"
	 width="32px" height="32px" viewBox="0 0 32 32" enable-background="new 0 0 32 32" xml:space="preserve">
<path d="M14,1h-1c-0.4,0-0.8,0.3-1,0.7L8.2,15H3c-0.6,0-1,0.4-1,1v15c0,0.6,0.4,1,1,1h6h15.3c1.9,0,3.6-1.4,3.9-3.3l1.8-9.5
	c0-0.1,0-0.1,0-0.2v-1c0-2.2-1.8-4-4-4h-8V5C18,2.8,16.2,1,14,1z M4,17h4v13H4V17z M26,16c1.1,0,2,0.9,2,2v0.9l-1.8,9.5
	c-0.2,0.9-1,1.6-2,1.6H10V16.1L13.8,3H14c1.1,0,2,0.9,2,2v10c0,0.6,0.4,1,1,1H26z"/>
</svg>
