<?xml version="1.0" encoding="utf-8"?>
<!-- Generator: Adobe Illustrator 19.0.1, SVG Export Plug-In . SVG Version: 6.00 Build 0)  -->
<!DOCTYPE svg PUBLIC "-//W3C//DTD SVG 1.1//EN" "http://www.w3.org/Graphics/SVG/1.1/DTD/svg11.dtd">
<svg version="1.1" id="Layer_1" xmlns="http://www.w3.org/2000/svg" xmlns:xlink="http://www.w3.org/1999/xlink" x="0px" y="0px"
	 width="32px" height="32px" viewBox="0 0 32 32" enable-background="new 0 0 32 32" xml:space="preserve">
<path d="M8,13c0.6,0,1-0.4,1-1c0-0.6,0.4-1,1-1s1,0.4,1,1c0,0.6,0.4,1,1,1s1-0.4,1-1c0-1.7-1.3-3-3-3s-3,1.3-3,3C7,12.6,7.4,13,8,13
	z"/>
<path d="M22,9c-1.7,0-3,1.3-3,3c0,0.6,0.4,1,1,1s1-0.4,1-1c0-0.6,0.4-1,1-1s1,0.4,1,1c0,0.6,0.4,1,1,1s1-0.4,1-1
	C25,10.3,23.7,9,22,9z"/>
<path d="M16,0C7.2,0,0,7.2,0,16s7.2,16,16,16s16-7.2,16-16S24.8,0,16,0z M16,30C8.3,30,2,23.7,2,16S8.3,2,16,2s14,6.3,14,14
	S23.7,30,16,30z"/>
<path d="M24,16h-4c0,0,0,0,0,0s0,0,0,0h-8c0,0,0,0,0,0s0,0,0,0H8c-0.6,0-1,0.4-1,1c0,2.4,1.7,4.4,4,4.9V22c0,2.8,2.2,5,5,5
	c2.8,0,5-2.2,5-5v-0.1c2.3-0.5,4-2.5,4-4.9C25,16.4,24.6,16,24,16z M9.2,18H11v1.8C10.1,19.5,9.5,18.8,9.2,18z M19,22
	c0,1.7-1.3,3-3,3c-1.7,0-3-1.3-3-3v-4h6V22z M21,19.8V18h1.8C22.5,18.8,21.9,19.5,21,19.8z"/>
</svg>
