<?xml version="1.0" encoding="utf-8"?>
<!-- Generator: Adobe Illustrator 19.0.1, SVG Export Plug-In . SVG Version: 6.00 Build 0)  -->
<!DOCTYPE svg PUBLIC "-//W3C//DTD SVG 1.1//EN" "http://www.w3.org/Graphics/SVG/1.1/DTD/svg11.dtd">
<svg version="1.1" id="Layer_1" xmlns="http://www.w3.org/2000/svg" xmlns:xlink="http://www.w3.org/1999/xlink" x="0px" y="0px"
	 width="32px" height="32px" viewBox="0 0 32 32" enable-background="new 0 0 32 32" xml:space="preserve">
<path d="M25,8h-4V3c0-0.4-0.2-0.7-0.5-0.9c-0.3-0.2-0.7-0.2-1,0L10.7,8H7c-3.9,0-7,3.1-7,7v10c0,3.9,3.1,7,7,7h18c3.9,0,7-3.1,7-7
	V15C32,11.1,28.9,8,25,8z M30,25c0,2.8-2.2,5-5,5H7c-2.8,0-5-2.2-5-5V15c0-2.8,2.2-5,5-5h4c0.2,0,0.4-0.1,0.6-0.2l7.4-5V9
	c0,0.6,0.4,1,1,1h5c2.8,0,5,2.2,5,5V25z"/>
<path d="M10,16c0.6,0,1,0.4,1,1c0,0.6,0.4,1,1,1s1-0.4,1-1c0-1.7-1.3-3-3-3s-3,1.3-3,3c0,0.6,0.4,1,1,1s1-0.4,1-1
	C9,16.4,9.4,16,10,16z"/>
<path d="M22,14c-1.7,0-3,1.3-3,3c0,0.6,0.4,1,1,1s1-0.4,1-1c0-0.6,0.4-1,1-1s1,0.4,1,1c0,0.6,0.4,1,1,1s1-0.4,1-1
	C25,15.3,23.7,14,22,14z"/>
<path d="M22,22c-0.6,0-1,0.4-1,1c0,1.1-0.9,2-2,2s-2-0.9-2-2c0-0.6-0.4-1-1-1s-1,0.4-1,1c0,1.1-0.9,2-2,2s-2-0.9-2-2
	c0-0.6-0.4-1-1-1s-1,0.4-1,1c0,2.2,1.8,4,4,4c1.2,0,2.3-0.5,3-1.4c0.7,0.8,1.8,1.4,3,1.4c2.2,0,4-1.8,4-4C23,22.4,22.6,22,22,22z"/>
</svg>
