<?xml version="1.0" encoding="utf-8"?>
<!-- Generator: Adobe Illustrator 19.0.1, SVG Export Plug-In . SVG Version: 6.00 Build 0)  -->
<!DOCTYPE svg PUBLIC "-//W3C//DTD SVG 1.1//EN" "http://www.w3.org/Graphics/SVG/1.1/DTD/svg11.dtd">
<svg version="1.1" id="Layer_1" xmlns="http://www.w3.org/2000/svg" xmlns:xlink="http://www.w3.org/1999/xlink" x="0px" y="0px"
	 width="32px" height="32px" viewBox="0 0 32 32" enable-background="new 0 0 32 32" xml:space="preserve">
<path d="M25,8h-4V3c0-0.4-0.2-0.7-0.5-0.9c-0.3-0.2-0.7-0.2-1,0L10.7,8H7c-3.9,0-7,3.1-7,7v10c0,3.9,3.1,7,7,7h18c3.9,0,7-3.1,7-7
	V15C32,11.1,28.9,8,25,8z M30,25c0,2.8-2.2,5-5,5H7c-2.8,0-5-2.2-5-5V15c0-2.8,2.2-5,5-5h4c0.2,0,0.4-0.1,0.6-0.2l7.4-5V9
	c0,0.6,0.4,1,1,1h5c2.8,0,5,2.2,5,5V25z"/>
<path d="M9,15c-0.6,0-1,0.4-1,1v5c0,0.6,0.4,1,1,1s1-0.4,1-1v-5C10,15.4,9.6,15,9,15z"/>
<path d="M23,15c-0.6,0-1,0.4-1,1v5c0,0.6,0.4,1,1,1s1-0.4,1-1v-5C24,15.4,23.6,15,23,15z"/>
<path d="M18,25h-4c-0.6,0-1,0.4-1,1s0.4,1,1,1h4c0.6,0,1-0.4,1-1S18.6,25,18,25z"/>
</svg>
