<?xml version="1.0" encoding="utf-8"?>
<!-- Generator: Adobe Illustrator 19.0.1, SVG Export Plug-In . SVG Version: 6.00 Build 0)  -->
<!DOCTYPE svg PUBLIC "-//W3C//DTD SVG 1.1//EN" "http://www.w3.org/Graphics/SVG/1.1/DTD/svg11.dtd">
<svg version="1.1" id="Layer_1" xmlns="http://www.w3.org/2000/svg" xmlns:xlink="http://www.w3.org/1999/xlink" x="0px" y="0px"
	 width="32px" height="32px" viewBox="0 0 32 32" enable-background="new 0 0 32 32" xml:space="preserve">
<path d="M16,0C7.2,0,0,7.2,0,16s7.2,16,16,16s16-7.2,16-16S24.8,0,16,0z M16,30C8.3,30,2,23.7,2,16S8.3,2,16,2s14,6.3,14,14
	S23.7,30,16,30z"/>
<path d="M23.7,9.3c-0.4-0.4-1-0.4-1.4,0L21,10.6l-1.3-1.3c-0.4-0.4-1-0.4-1.4,0s-0.4,1,0,1.4l1.3,1.3l-1.3,1.3c-0.4,0.4-0.4,1,0,1.4
	c0.2,0.2,0.5,0.3,0.7,0.3s0.5-0.1,0.7-0.3l1.3-1.3l1.3,1.3c0.2,0.2,0.5,0.3,0.7,0.3s0.5-0.1,0.7-0.3c0.4-0.4,0.4-1,0-1.4L22.4,12
	l1.3-1.3C24.1,10.3,24.1,9.7,23.7,9.3z"/>
<path d="M12.3,14.7c0.2,0.2,0.5,0.3,0.7,0.3s0.5-0.1,0.7-0.3c0.4-0.4,0.4-1,0-1.4L12.4,12l1.3-1.3c0.4-0.4,0.4-1,0-1.4s-1-0.4-1.4,0
	L11,10.6L9.7,9.3c-0.4-0.4-1-0.4-1.4,0s-0.4,1,0,1.4L9.6,12l-1.3,1.3c-0.4,0.4-0.4,1,0,1.4C8.5,14.9,8.7,15,9,15s0.5-0.1,0.7-0.3
	l1.3-1.3L12.3,14.7z"/>
<path d="M16,17c-2.8,0-5,2.2-5,5s2.2,5,5,5s5-2.2,5-5S18.8,17,16,17z M16,25c-1.7,0-3-1.3-3-3s1.3-3,3-3s3,1.3,3,3S17.7,25,16,25z"
	/>
</svg>
