<?xml version="1.0" encoding="utf-8"?>
<!-- Generator: Adobe Illustrator 19.0.1, SVG Export Plug-In . SVG Version: 6.00 Build 0)  -->
<!DOCTYPE svg PUBLIC "-//W3C//DTD SVG 1.1//EN" "http://www.w3.org/Graphics/SVG/1.1/DTD/svg11.dtd">
<svg version="1.1" id="Layer_1" xmlns="http://www.w3.org/2000/svg" xmlns:xlink="http://www.w3.org/1999/xlink" x="0px" y="0px"
	 width="32px" height="32px" viewBox="0 0 32 32" enable-background="new 0 0 32 32" xml:space="preserve">
<path d="M8.2,17L12,30.3c0.1,0.4,0.5,0.7,1,0.7h1c2.2,0,4-1.8,4-4v-9h8c2.2,0,4-1.8,4-4v-1c0-0.1,0-0.1,0-0.2l-1.8-9.5
	c-0.4-1.9-2-3.3-3.9-3.3H9H3C2.4,0,2,0.4,2,1v15c0,0.6,0.4,1,1,1H8.2z M26.2,3.6l1.8,9.5V14c0,1.1-0.9,2-2,2h-9c-0.6,0-1,0.4-1,1v10
	c0,1.1-0.9,2-2,2h-0.2L10,15.9V2h14.3C25.2,2,26.1,2.7,26.2,3.6z M4,2h4v13H4V2z"/>
</svg>
