<?xml version="1.0" encoding="utf-8"?>
<!-- Generator: Adobe Illustrator 19.0.1, SVG Export Plug-In . SVG Version: 6.00 Build 0)  -->
<!DOCTYPE svg PUBLIC "-//W3C//DTD SVG 1.1//EN" "http://www.w3.org/Graphics/SVG/1.1/DTD/svg11.dtd">
<svg version="1.1" id="Layer_1" xmlns="http://www.w3.org/2000/svg" xmlns:xlink="http://www.w3.org/1999/xlink" x="0px" y="0px"
	 width="32px" height="32px" viewBox="0 0 32 32" enable-background="new 0 0 32 32" xml:space="preserve">
<path d="M31,8c-0.6,0-1,0.4-1,1v4h-2v-1c0-6.6-5.4-12-12-12S4,5.4,4,12v2H2v-4c0-0.6-0.4-1-1-1s-1,0.4-1,1v5c0,0.6,0.4,1,1,1h3v15
	c0,0.6,0.4,1,1,1h22c0.6,0,1-0.4,1-1V15h3c0.6,0,1-0.4,1-1V9C32,8.4,31.6,8,31,8z M26,30H6V12C6,6.5,10.5,2,16,2s10,4.5,10,10V30z"
	/>
<path d="M13,11c0.6,0,1-0.4,1-1s-0.4-1-1-1h-3c-0.6,0-1,0.4-1,1s0.4,1,1,1H13z"/>
<path d="M22,9h-3c-0.6,0-1,0.4-1,1s0.4,1,1,1h3c0.6,0,1-0.4,1-1S22.6,9,22,9z"/>
<path d="M21,17H11c-0.6,0-1,0.4-1,1s0.4,1,1,1h3v2c0,1.7,1.3,3,3,3s3-1.3,3-3v-2h1c0.6,0,1-0.4,1-1S21.6,17,21,17z M18,21
	c0,0.6-0.4,1-1,1s-1-0.4-1-1v-2h2V21z"/>
</svg>
