<?xml version="1.0" encoding="utf-8"?>
<!-- Generator: Adobe Illustrator 19.0.1, SVG Export Plug-In . SVG Version: 6.00 Build 0)  -->
<!DOCTYPE svg PUBLIC "-//W3C//DTD SVG 1.1//EN" "http://www.w3.org/Graphics/SVG/1.1/DTD/svg11.dtd">
<svg version="1.1" id="Layer_1" xmlns="http://www.w3.org/2000/svg" xmlns:xlink="http://www.w3.org/1999/xlink" x="0px" y="0px"
	 width="32px" height="32px" viewBox="0 0 32 32" enable-background="new 0 0 32 32" xml:space="preserve">
<path d="M30,22.2V17c0-1.3-0.8-2.4-2-2.8V3c0-0.4-0.2-0.8-0.6-0.9C27,1.9,26.6,2,26.3,2.3L21.6,7H7c-1.7,0-3,1.3-3,3v4.2
	c-1.2,0.4-2,1.5-2,2.8v5.2c-1.2,0.4-2,1.5-2,2.8v4c0,1.7,1.3,3,3,3h26c1.7,0,3-1.3,3-3v-4C32,23.7,31.2,22.6,30,22.2z M7,9h15
	c0.3,0,0.5-0.1,0.7-0.3L26,5.4V14H6v-4C6,9.4,6.4,9,7,9z M5,16h22c0.6,0,1,0.4,1,1v5H4v-5C4,16.4,4.4,16,5,16z M30,29
	c0,0.6-0.4,1-1,1H3c-0.6,0-1-0.4-1-1v-4c0-0.6,0.4-1,1-1h26c0.6,0,1,0.4,1,1V29z"/>
</svg>
