<?xml version="1.0" encoding="utf-8"?>
<!-- Generator: Adobe Illustrator 19.0.1, SVG Export Plug-In . SVG Version: 6.00 Build 0)  -->
<!DOCTYPE svg PUBLIC "-//W3C//DTD SVG 1.1//EN" "http://www.w3.org/Graphics/SVG/1.1/DTD/svg11.dtd">
<svg version="1.1" id="Layer_1" xmlns="http://www.w3.org/2000/svg" xmlns:xlink="http://www.w3.org/1999/xlink" x="0px" y="0px"
	 width="32px" height="32px" viewBox="0 0 32 32" enable-background="new 0 0 32 32" xml:space="preserve">
<path d="M23,11h-1c0-6.1-4.9-11-11-11S0,4.9,0,11v20c0,0.6,0.4,1,1,1h20c0.6,0,1-0.4,1-1v-5h1c3,0,5.4-2.2,5.9-5H31c0.6,0,1-0.4,1-1
	C32,15,28,11,23,11z M20,30H2V11c0-5,4-9,9-9s9,4,9,9V30z M23,24h-1v-3h4.9C26.4,22.7,24.9,24,23,24z M22,19v-6h1
	c3.5,0,6.4,2.6,6.9,6H22z"/>
<path d="M13,6c-2.2,0-4,1.8-4,4s1.8,4,4,4s4-1.8,4-4S15.2,6,13,6z M13,12c-1.1,0-2-0.9-2-2s0.9-2,2-2s2,0.9,2,2S14.1,12,13,12z"/>
</svg>
