<?xml version="1.0" encoding="utf-8"?>
<!-- Generator: Adobe Illustrator 19.0.1, SVG Export Plug-In . SVG Version: 6.00 Build 0)  -->
<!DOCTYPE svg PUBLIC "-//W3C//DTD SVG 1.1//EN" "http://www.w3.org/Graphics/SVG/1.1/DTD/svg11.dtd">
<svg version="1.1" id="Layer_1" xmlns="http://www.w3.org/2000/svg" xmlns:xlink="http://www.w3.org/1999/xlink" x="0px" y="0px"
	 width="32px" height="32px" viewBox="0 0 32 32" enable-background="new 0 0 32 32" xml:space="preserve">
<path d="M28,6V2h2c0.6,0,1-0.4,1-1s-0.4-1-1-1h-6c-0.6,0-1,0.4-1,1s0.4,1,1,1h2v4H6V2h2c0.6,0,1-0.4,1-1S8.6,0,8,0H2
	C1.4,0,1,0.4,1,1s0.4,1,1,1h2v4c-2.2,0-4,1.8-4,4v18c0,2.2,1.8,4,4,4h24c2.2,0,4-1.8,4-4V10C32,7.8,30.2,6,28,6z M30,28
	c0,1.1-0.9,2-2,2H4c-1.1,0-2-0.9-2-2V10c0-1.1,0.9-2,2-2h24c1.1,0,2,0.9,2,2V28z"/>
<path d="M26,17H6c-0.6,0-1,0.4-1,1v8c0,0.6,0.4,1,1,1h20c0.6,0,1-0.4,1-1v-8C27,17.4,26.6,17,26,17z M15,19h2v6h-2V19z M13,25h-2v-6
	h2V25z M19,19h2v6h-2V19z M7,19h2v6H7V19z M25,25h-2v-6h2V25z"/>
<path d="M7,13h4c0.6,0,1-0.4,1-1s-0.4-1-1-1H7c-0.6,0-1,0.4-1,1S6.4,13,7,13z"/>
<path d="M21,13h4c0.6,0,1-0.4,1-1s-0.4-1-1-1h-4c-0.6,0-1,0.4-1,1S20.4,13,21,13z"/>
</svg>
