<?xml version="1.0" encoding="utf-8"?>
<!-- Generator: Adobe Illustrator 19.0.1, SVG Export Plug-In . SVG Version: 6.00 Build 0)  -->
<!DOCTYPE svg PUBLIC "-//W3C//DTD SVG 1.1//EN" "http://www.w3.org/Graphics/SVG/1.1/DTD/svg11.dtd">
<svg version="1.1" id="Layer_1" xmlns="http://www.w3.org/2000/svg" xmlns:xlink="http://www.w3.org/1999/xlink" x="0px" y="0px"
	 width="32px" height="32px" viewBox="0 0 32 32" enable-background="new 0 0 32 32" xml:space="preserve">
<path d="M16,0C7.2,0,0,7.2,0,16s7.2,16,16,16s16-7.2,16-16S24.8,0,16,0z M16,30C8.3,30,2,23.7,2,16S8.3,2,16,2s14,6.3,14,14
	S23.7,30,16,30z"/>
<path d="M20,21h-8c-0.6,0-1,0.4-1,1s0.4,1,1,1h8c0.6,0,1-0.4,1-1S20.6,21,20,21z"/>
<path d="M13,12c0-1.7-1.3-3-3-3s-3,1.3-3,3s1.3,3,3,3S13,13.7,13,12z M10,13c-0.6,0-1-0.4-1-1s0.4-1,1-1s1,0.4,1,1S10.6,13,10,13z"
	/>
<path d="M21,8c-2.2,0-4,1.8-4,4s1.8,4,4,4s4-1.8,4-4S23.2,8,21,8z M21,14c-1.1,0-2-0.9-2-2s0.9-2,2-2s2,0.9,2,2S22.1,14,21,14z"/>
</svg>
