<?xml version="1.0" encoding="utf-8"?>
<!-- Generator: Adobe Illustrator 19.0.1, SVG Export Plug-In . SVG Version: 6.00 Build 0)  -->
<!DOCTYPE svg PUBLIC "-//W3C//DTD SVG 1.1//EN" "http://www.w3.org/Graphics/SVG/1.1/DTD/svg11.dtd">
<svg version="1.1" id="Layer_1" xmlns="http://www.w3.org/2000/svg" xmlns:xlink="http://www.w3.org/1999/xlink" x="0px" y="0px"
	 width="32px" height="32px" viewBox="0 0 32 32" enable-background="new 0 0 32 32" xml:space="preserve">
<path d="M16,0C7.2,0,0,7.2,0,16c0,6.1,3.5,11.5,8.5,14.1c0,0,0.1,0,0.1,0.1c2.2,1.1,4.7,1.8,7.3,1.8s5.1-0.7,7.3-1.8
	c0,0,0.1,0,0.1-0.1c5.1-2.7,8.5-8,8.5-14.1C32,7.2,24.8,0,16,0z M2.6,20H8v7.5C5.4,25.7,3.5,23.1,2.6,20z M15,20v9.9
	c-1.8-0.1-3.5-0.6-5-1.3V20H15z M22,20v8.6c-1.5,0.7-3.2,1.2-5,1.3V20H22z M24,27.5V20h5.4C28.5,23.1,26.6,25.7,24,27.5z M29.8,18
	H2.2C2.1,17.3,2,16.7,2,16C2,8.3,8.3,2,16,2s14,6.3,14,14C30,16.7,29.9,17.3,29.8,18z"/>
<path d="M22.6,10.1l-4,2c-0.5,0.2-0.7,0.8-0.4,1.3c0.2,0.4,0.5,0.6,0.9,0.6c0.1,0,0.3,0,0.4-0.1l4-2c0.5-0.2,0.7-0.8,0.4-1.3
	S23,9.9,22.6,10.1z"/>
<path d="M13.4,12.1l-4-2c-0.5-0.2-1.1,0-1.3,0.4c-0.2,0.5,0,1.1,0.4,1.3l4,2C12.7,14,12.8,14,13,14c0.4,0,0.7-0.2,0.9-0.6
	C14.1,13,13.9,12.4,13.4,12.1z"/>
</svg>
