<?xml version="1.0" encoding="utf-8"?>
<!-- Generator: Adobe Illustrator 19.0.1, SVG Export Plug-In . SVG Version: 6.00 Build 0)  -->
<!DOCTYPE svg PUBLIC "-//W3C//DTD SVG 1.1//EN" "http://www.w3.org/Graphics/SVG/1.1/DTD/svg11.dtd">
<svg version="1.1" id="Layer_1" xmlns="http://www.w3.org/2000/svg" xmlns:xlink="http://www.w3.org/1999/xlink" x="0px" y="0px"
	 width="32px" height="32px" viewBox="0 0 32 32" enable-background="new 0 0 32 32" xml:space="preserve">
<path d="M30,22.2V17c0-1.7-1.3-3-3-3H17v-2.1c1.7-0.4,3-2,3-3.9c0-1.9-2.6-5.8-3.2-6.6c-0.4-0.5-1.3-0.5-1.6,0C14.6,2.2,12,6.1,12,8
	c0,1.9,1.3,3.4,3,3.9V14H5c-1.7,0-3,1.3-3,3v5.2c-1.2,0.4-2,1.5-2,2.8v6c0,0.6,0.4,1,1,1h30c0.6,0,1-0.4,1-1v-6
	C32,23.7,31.2,22.6,30,22.2z M14,8c0-0.7,0.9-2.5,2-4.2c1.1,1.7,2,3.5,2,4.2c0,1.1-0.9,2-2,2S14,9.1,14,8z M5,16h22c0.6,0,1,0.4,1,1
	v5H4v-5C4,16.4,4.4,16,5,16z M30,30H2v-5c0-0.6,0.4-1,1-1h26c0.6,0,1,0.4,1,1V30z"/>
</svg>
