<?xml version="1.0" encoding="utf-8"?>
<!-- Generator: Adobe Illustrator 19.0.1, SVG Export Plug-In . SVG Version: 6.00 Build 0)  -->
<!DOCTYPE svg PUBLIC "-//W3C//DTD SVG 1.1//EN" "http://www.w3.org/Graphics/SVG/1.1/DTD/svg11.dtd">
<svg version="1.1" id="Layer_1" xmlns="http://www.w3.org/2000/svg" xmlns:xlink="http://www.w3.org/1999/xlink" x="0px" y="0px"
	 width="32px" height="32px" viewBox="0 0 32 32" enable-background="new 0 0 32 32" xml:space="preserve">
<path d="M16,0C7.2,0,0,7.2,0,16v3c0,2.8,2.2,5,5,5h2v3c0,2.8,2.2,5,5,5h8c2.8,0,5-2.2,5-5v-3h2c2.8,0,5-2.2,5-5v-3
	C32,7.2,24.8,0,16,0z M23,27c0,1.7-1.3,3-3,3h-8c-1.7,0-3-1.3-3-3v-3h2v1c0,0.6,0.4,1,1,1s1-0.4,1-1v-1h2v1c0,0.6,0.4,1,1,1
	s1-0.4,1-1v-1h2v1c0,0.6,0.4,1,1,1s1-0.4,1-1v-1h2V27z M30,19c0,1.7-1.3,3-3,3h-2v-1c0-0.6-0.4-1-1-1s-1,0.4-1,1v1h-2v-1
	c0-0.6-0.4-1-1-1s-1,0.4-1,1v1h-2v-1c0-0.6-0.4-1-1-1s-1,0.4-1,1v1h-2v-1c0-0.6-0.4-1-1-1s-1,0.4-1,1v1H9v-1c0-0.6-0.4-1-1-1
	s-1,0.4-1,1v1H5c-1.7,0-3-1.3-3-3v-3C2,8.3,8.3,2,16,2s14,6.3,14,14V19z"/>
<path d="M10,8c-1.7,0-3,1.3-3,3s1.3,3,3,3s3-1.3,3-3S11.7,8,10,8z M10,12c-0.6,0-1-0.4-1-1s0.4-1,1-1s1,0.4,1,1S10.6,12,10,12z"/>
<path d="M22,8c-1.7,0-3,1.3-3,3s1.3,3,3,3s3-1.3,3-3S23.7,8,22,8z M22,12c-0.6,0-1-0.4-1-1s0.4-1,1-1s1,0.4,1,1S22.6,12,22,12z"/>
</svg>
