<?xml version="1.0" encoding="utf-8"?>
<!-- Generator: Adobe Illustrator 19.0.1, SVG Export Plug-In . SVG Version: 6.00 Build 0)  -->
<!DOCTYPE svg PUBLIC "-//W3C//DTD SVG 1.1//EN" "http://www.w3.org/Graphics/SVG/1.1/DTD/svg11.dtd">
<svg version="1.1" id="Layer_1" xmlns="http://www.w3.org/2000/svg" xmlns:xlink="http://www.w3.org/1999/xlink" x="0px" y="0px"
	 width="32px" height="32px" viewBox="0 0 32 32" enable-background="new 0 0 32 32" xml:space="preserve">
<path d="M31.8,13.3C30.5,5.8,23.9,0,16,0S1.5,5.8,0.2,13.3C0.1,13.9,0,14.4,0,15c0,0.2,0,0.3,0,0.5c0,0.2,0,0.3,0,0.5
	c0,8.8,7.2,16,16,16s16-7.2,16-16c0-0.2,0-0.3,0-0.5c0-0.2,0-0.3,0-0.5C32,14.4,31.9,13.9,31.8,13.3z M24,15c-0.6,0-1,0.4-1,1v3H9
	v-3c0-0.6-0.4-1-1-1s-1,0.4-1,1v3H6c-2.1,0-3.8-1.6-4-3.7c0-0.5,0.1-1,0.1-1.4C2.7,12.2,4.2,11,6,11h20c1.8,0,3.3,1.2,3.8,2.9
	c0.1,0.5,0.1,1,0.1,1.4c-0.2,2-1.9,3.7-4,3.7h-1v-3C25,15.4,24.6,15,24,15z M16,2c5.4,0,10,3,12.4,7.5C27.7,9.2,26.8,9,26,9H6
	C5.2,9,4.3,9.2,3.6,9.5C6,5,10.6,2,16,2z M16,30C9.6,30,4.3,25.7,2.6,19.9C3.5,20.6,4.7,21,6,21h20c1.3,0,2.5-0.4,3.4-1.1
	C27.7,25.7,22.4,30,16,30z"/>
</svg>
