<?xml version="1.0" encoding="utf-8"?>
<!-- Generator: Adobe Illustrator 19.2.1, SVG Export Plug-In . SVG Version: 6.00 Build 0)  -->
<!DOCTYPE svg PUBLIC "-//W3C//DTD SVG 1.1//EN" "http://www.w3.org/Graphics/SVG/1.1/DTD/svg11.dtd">
<svg version="1.1" id="Layer_1" xmlns="http://www.w3.org/2000/svg" xmlns:xlink="http://www.w3.org/1999/xlink" x="0px" y="0px"
	 width="48px" height="48px" viewBox="0 0 48 48" enable-background="new 0 0 48 48" xml:space="preserve">
<path d="M42.823,23.432c-0.375-0.541-1.271-0.541-1.646,0C40.479,24.441,37,29.601,37,32c0,2.757,2.243,5,5,5s5-2.243,5-5
	C47,29.601,43.521,24.441,42.823,23.432z"/>
<path d="M4,21h18c0.552,0,1,0.449,1,1v5h-2c-0.553,0-1,0.448-1,1v17c0,0.552,0.447,1,1,1h6c0.553,0,1-0.448,1-1V28
	c0-0.552-0.447-1-1-1h-2v-5c0-1.654-1.346-3-3-3H4c-0.552,0-1-0.449-1-1V8c0-0.552-0.447-1-1-1S1,7.448,1,8v10
	C1,19.654,2.346,21,4,21z"/>
<path d="M43,12V4c0-1.105-0.895-2-2-2H7C5.895,2,5,2.895,5,4v8c0,1.105,0.895,2,2,2h34C42.105,14,43,13.105,43,12z"/>
</svg>
