<?xml version="1.0" encoding="utf-8"?>
<!-- Generator: Adobe Illustrator 19.2.1, SVG Export Plug-In . SVG Version: 6.00 Build 0)  -->
<!DOCTYPE svg PUBLIC "-//W3C//DTD SVG 1.1//EN" "http://www.w3.org/Graphics/SVG/1.1/DTD/svg11.dtd">
<svg version="1.1" id="Layer_1" xmlns="http://www.w3.org/2000/svg" xmlns:xlink="http://www.w3.org/1999/xlink" x="0px" y="0px"
	 width="48px" height="48px" viewBox="0 0 48 48" enable-background="new 0 0 48 48" xml:space="preserve">
<path d="M45.707,22.293l-20-20c-0.391-0.391-1.023-0.391-1.414,0l-4,4c-0.391,0.391-0.391,1.023,0,1.414l20,20
	C40.488,27.902,40.744,28,41,28s0.512-0.098,0.707-0.293l4-4C46.098,23.316,46.098,22.684,45.707,22.293z"/>
<path d="M17,35.998c-0.962,0-1.924-0.276-2.757-0.826L3.476,45.938l25.676-3.95c0.357-0.055,0.658-0.298,0.785-0.637l5.774-15.398
	L22.047,12.289L6.649,18.063c-0.339,0.127-0.583,0.427-0.637,0.785l-3.95,25.676l10.767-10.767c-1.283-1.94-1.072-4.585,0.635-6.293
	c1.95-1.95,5.123-1.949,7.071,0c1.949,1.95,1.949,5.122,0,7.071C19.561,35.51,18.28,35.998,17,35.998z"/>
</svg>
