<?xml version="1.0" encoding="utf-8"?>
<!-- Generator: Adobe Illustrator 19.2.1, SVG Export Plug-In . SVG Version: 6.00 Build 0)  -->
<!DOCTYPE svg PUBLIC "-//W3C//DTD SVG 1.1//EN" "http://www.w3.org/Graphics/SVG/1.1/DTD/svg11.dtd">
<svg version="1.1" id="Layer_1" xmlns="http://www.w3.org/2000/svg" xmlns:xlink="http://www.w3.org/1999/xlink" x="0px" y="0px"
	 width="48px" height="48px" viewBox="0 0 48 48" enable-background="new 0 0 48 48" xml:space="preserve">
<path d="M23,2v44c0,0.553,0.447,1,1,1s1-0.447,1-1V2c0-0.553-0.447-1-1-1S23,1.447,23,2z"/>
<path d="M17,36V16c0-0.449-0.3-0.844-0.733-0.964c-0.431-0.12-0.894,0.063-1.124,0.449l-12,20c-0.186,0.309-0.19,0.693-0.013,1.008
	C3.308,36.807,3.64,37,4,37h12C16.553,37,17,36.553,17,36z"/>
<path d="M31.733,15.036C31.3,15.156,31,15.551,31,16v20c0,0.553,0.447,1,1,1h12c0.36,0,0.692-0.193,0.87-0.507
	c0.178-0.314,0.173-0.699-0.013-1.008l-12-20C32.627,15.1,32.164,14.918,31.733,15.036z"/>
</svg>
