<?xml version="1.0" encoding="utf-8"?>
<!-- Generator: Adobe Illustrator 19.2.1, SVG Export Plug-In . SVG Version: 6.00 Build 0)  -->
<!DOCTYPE svg PUBLIC "-//W3C//DTD SVG 1.1//EN" "http://www.w3.org/Graphics/SVG/1.1/DTD/svg11.dtd">
<svg version="1.1" id="Layer_1" xmlns="http://www.w3.org/2000/svg" xmlns:xlink="http://www.w3.org/1999/xlink" x="0px" y="0px"
	 width="48px" height="48px" viewBox="0 0 48 48" enable-background="new 0 0 48 48" xml:space="preserve">
<path d="M6,17c2.414,0,4.434-1.721,4.899-4H19v3c0,0.552,0.448,1,1,1h8c0.552,0,1-0.448,1-1v-3h8.101c0.465,2.279,2.484,4,4.899,4
	c2.757,0,5-2.243,5-5s-2.243-5-5-5c-2.414,0-4.434,1.721-4.899,4H29V8c0-0.552-0.448-1-1-1h-8c-0.552,0-1,0.448-1,1v3h-8.101
	C10.434,8.721,8.414,7,6,7c-2.757,0-5,2.243-5,5S3.243,17,6,17z"/>
<path d="M2,41.001h8c0.552,0,1-0.448,1-1v-8c0-0.552-0.448-1-1-1H7.036C7.404,24.589,11.278,19.069,17,16.509v-2.17
	c-6.882,2.7-11.576,9.142-11.962,16.662H2c-0.552,0-1,0.448-1,1v8C1,40.553,1.448,41.001,2,41.001z"/>
<path d="M47,32.001c0-0.552-0.448-1-1-1h-3.038C42.576,23.48,37.882,17.038,31,14.339v2.17c5.722,2.561,9.596,8.08,9.964,14.492H38
	c-0.552,0-1,0.448-1,1v8c0,0.552,0.448,1,1,1h8c0.552,0,1-0.448,1-1V32.001z"/>
</svg>
