<?xml version="1.0" encoding="utf-8"?>
<!-- Generator: Adobe Illustrator 19.2.1, SVG Export Plug-In . SVG Version: 6.00 Build 0)  -->
<!DOCTYPE svg PUBLIC "-//W3C//DTD SVG 1.1//EN" "http://www.w3.org/Graphics/SVG/1.1/DTD/svg11.dtd">
<svg version="1.1" id="Layer_1" xmlns="http://www.w3.org/2000/svg" xmlns:xlink="http://www.w3.org/1999/xlink" x="0px" y="0px"
	 width="48px" height="48px" viewBox="0 0 48 48" enable-background="new 0 0 48 48" xml:space="preserve">
<path d="M45.707,14.293L42.414,11L28.707,24.707C28.512,24.902,28.256,25,28,25s-0.512-0.098-0.707-0.293l-4-4
	c-0.391-0.391-0.391-1.023,0-1.414L37,5.586l-3.293-3.293c-0.391-0.391-1.023-0.391-1.414,0l-25,25
	c-0.391,0.391-0.391,1.023,0,1.414l12,12C19.488,40.902,19.744,41,20,41s0.512-0.098,0.707-0.293l25-25
	C46.098,15.316,46.098,14.684,45.707,14.293z"/>
<path d="M2.027,41.23c0.08,0.337,0.328,0.609,0.657,0.719l6,2c0.358,0.119,0.755,0.027,1.023-0.242l4.879-4.879l-5.414-5.414
	l-6.879,6.879C2.048,40.538,1.947,40.893,2.027,41.23z"/>
</svg>
