<?xml version="1.0" encoding="utf-8"?>
<!-- Generator: Adobe Illustrator 19.2.1, SVG Export Plug-In . SVG Version: 6.00 Build 0)  -->
<!DOCTYPE svg PUBLIC "-//W3C//DTD SVG 1.1//EN" "http://www.w3.org/Graphics/SVG/1.1/DTD/svg11.dtd">
<svg version="1.1" id="Layer_1" xmlns="http://www.w3.org/2000/svg" xmlns:xlink="http://www.w3.org/1999/xlink" x="0px" y="0px"
	 width="48px" height="48px" viewBox="0 0 48 48" enable-background="new 0 0 48 48" xml:space="preserve">
<path d="M46,23h-7v-6c0-1.105-0.895-2-2-2h-8c-1.105,0-2,0.895-2,2v6h-6V11c0-1.105-0.895-2-2-2h-8c-1.105,0-2,0.895-2,2v12H2
	c-0.553,0-1,0.447-1,1s0.447,1,1,1h7v12c0,1.105,0.895,2,2,2h8c1.105,0,2-0.895,2-2V25h6v6c0,1.105,0.895,2,2,2h8
	c1.105,0,2-0.895,2-2v-6h7c0.553,0,1-0.447,1-1S46.553,23,46,23z"/>
</svg>
