<?xml version="1.0" encoding="utf-8"?>
<!-- Generator: Adobe Illustrator 19.2.1, SVG Export Plug-In . SVG Version: 6.00 Build 0)  -->
<!DOCTYPE svg PUBLIC "-//W3C//DTD SVG 1.1//EN" "http://www.w3.org/Graphics/SVG/1.1/DTD/svg11.dtd">
<svg version="1.1" id="Layer_1" xmlns="http://www.w3.org/2000/svg" xmlns:xlink="http://www.w3.org/1999/xlink" x="0px" y="0px"
	 width="48px" height="48px" viewBox="0 0 48 48" enable-background="new 0 0 48 48" xml:space="preserve">
<path d="M5.586,15L15,5.586l-3.293-3.293c-0.391-0.391-1.023-0.391-1.414,0l-8,8c-0.391,0.391-0.391,1.023,0,1.414L5.586,15z"/>
<rect x="7.636" y="10.636" transform="matrix(0.7071 -0.7071 0.7071 0.7071 -5.9203 14.293)" width="13.313" height="7.314"/>
<rect x="28.05" y="29.636" transform="matrix(0.7071 -0.7071 0.7071 0.7071 -14.3761 34.707)" width="13.313" height="10.143"/>
<path d="M45,46c0.263,0,0.518-0.104,0.707-0.293c0.236-0.236,0.339-0.575,0.273-0.903l-1.895-9.475l-8.757,8.757l9.475,1.895
	C44.869,45.994,44.935,46,45,46z"/>
<path d="M12.293,45.707C12.488,45.902,12.744,46,13,46s0.512-0.098,0.707-0.293l32-32c0.391-0.391,0.391-1.023,0-1.414l-10-10
	c-0.391-0.391-1.023-0.391-1.414,0l-5.291,5.291l2.706,2.709c0.39,0.391,0.39,1.024-0.001,1.414C31.511,11.902,31.256,12,31,12
	c-0.256,0-0.512-0.098-0.708-0.293l-2.705-2.708l-3.584,3.584l1.711,1.711c0.391,0.391,0.391,1.023,0,1.414
	C25.52,15.902,25.264,16,25.008,16s-0.512-0.098-0.707-0.293l-1.711-1.711l-3.586,3.586l3.711,3.711
	c0.391,0.391,0.391,1.023,0,1.414C22.52,22.902,22.264,23,22.008,23s-0.512-0.098-0.707-0.293l-3.711-3.711l-3.586,3.586
	l1.711,1.711c0.391,0.391,0.391,1.023,0,1.414C15.52,25.902,15.264,26,15.008,26s-0.512-0.098-0.707-0.293l-1.711-1.711
	l-3.586,3.586l3.711,3.711c0.391,0.391,0.391,1.023,0,1.414C12.52,32.902,12.264,33,12.008,33s-0.512-0.098-0.707-0.293L7.59,28.996
	l-5.297,5.297c-0.391,0.391-0.391,1.023,0,1.414L12.293,45.707z M38,12c1.105,0,2,0.895,2,2c0,1.105-0.895,2-2,2s-2-0.895-2-2
	C36,12.895,36.895,12,38,12z"/>
</svg>
