<?xml version="1.0" encoding="utf-8"?>
<!-- Generator: Adobe Illustrator 19.2.1, SVG Export Plug-In . SVG Version: 6.00 Build 0)  -->
<!DOCTYPE svg PUBLIC "-//W3C//DTD SVG 1.1//EN" "http://www.w3.org/Graphics/SVG/1.1/DTD/svg11.dtd">
<svg version="1.1" id="Layer_1" xmlns="http://www.w3.org/2000/svg" xmlns:xlink="http://www.w3.org/1999/xlink" x="0px" y="0px"
	 width="48px" height="48px" viewBox="0 0 48 48" enable-background="new 0 0 48 48" xml:space="preserve">
<path d="M46,1H16c-0.552,0-1,0.448-1,1v11h18c1.105,0,2,0.895,2,2v18h11c0.552,0,1-0.448,1-1V2C47,1.448,46.552,1,46,1z"/>
<path d="M32,15H2c-0.552,0-1,0.447-1,1v30c0,0.553,0.448,1,1,1h30c0.552,0,1-0.447,1-1V16C33,15.447,32.552,15,32,15z"/>
</svg>
