<?xml version="1.0" encoding="utf-8"?>
<!-- Generator: Adobe Illustrator 19.2.1, SVG Export Plug-In . SVG Version: 6.00 Build 0)  -->
<!DOCTYPE svg PUBLIC "-//W3C//DTD SVG 1.1//EN" "http://www.w3.org/Graphics/SVG/1.1/DTD/svg11.dtd">
<svg version="1.1" id="Layer_1" xmlns="http://www.w3.org/2000/svg" xmlns:xlink="http://www.w3.org/1999/xlink" x="0px" y="0px"
	 width="48px" height="48px" viewBox="0 0 48 48" enable-background="new 0 0 48 48" xml:space="preserve">
<path fill="#222221" d="M8,0C7.448,0,7,0.448,7,1v36c0,0.552,0.448,1,1,1h13v-2H9V12h12v-2H9V1C9,0.448,8.552,0,8,0z"/>
<path fill="#222221" d="M40,48c0.552,0,1-0.447,1-1V32c0-0.266-0.105-0.52-0.293-0.707l-5-5C35.52,26.105,35.265,26,35,26H24
	c-0.552,0-1,0.447-1,1v20c0,0.553,0.448,1,1,1H40z"/>
<path fill="#222221" d="M35.707,0.293C35.52,0.105,35.265,0,35,0H24c-0.552,0-1,0.447-1,1v20c0,0.553,0.448,1,1,1h16
	c0.552,0,1-0.447,1-1V6c0-0.266-0.105-0.52-0.293-0.707L35.707,0.293z"/>
</svg>
