<?xml version="1.0" encoding="utf-8"?>
<!-- Generator: Adobe Illustrator 19.2.1, SVG Export Plug-In . SVG Version: 6.00 Build 0)  -->
<!DOCTYPE svg PUBLIC "-//W3C//DTD SVG 1.1//EN" "http://www.w3.org/Graphics/SVG/1.1/DTD/svg11.dtd">
<svg version="1.1" id="Layer_1" xmlns="http://www.w3.org/2000/svg" xmlns:xlink="http://www.w3.org/1999/xlink" x="0px" y="0px"
	 width="48px" height="48px" viewBox="0 0 48 48" enable-background="new 0 0 48 48" xml:space="preserve">
<path fill="#222221" d="M11,46c0,0.552,0.447,1,1,1h24c0.553,0,1-0.448,1-1c0-2.757,2.243-5,5-5c0.553,0,1-0.448,1-1V8
	c0-0.552-0.447-1-1-1c-2.757,0-5-2.243-5-5c0-0.552-0.447-1-1-1H12c-0.553,0-1,0.448-1,1c0,2.757-2.243,5-5,5C5.447,7,5,7.448,5,8
	v32c0,0.552,0.447,1,1,1C8.757,41,11,43.243,11,46z M24,7c7.168,0,13,7.626,13,17s-5.832,17-13,17s-13-7.626-13-17S16.832,7,24,7z"
	/>
</svg>
