<?xml version="1.0" encoding="utf-8"?>
<!-- Generator: Adobe Illustrator 19.2.1, SVG Export Plug-In . SVG Version: 6.00 Build 0)  -->
<!DOCTYPE svg PUBLIC "-//W3C//DTD SVG 1.1//EN" "http://www.w3.org/Graphics/SVG/1.1/DTD/svg11.dtd">
<svg version="1.1" id="Layer_1" xmlns="http://www.w3.org/2000/svg" xmlns:xlink="http://www.w3.org/1999/xlink" x="0px" y="0px"
	 width="48px" height="48px" viewBox="0 0 48 48" enable-background="new 0 0 48 48" xml:space="preserve">
<path fill="#222221" d="M2,13h10c0.552,0,1-0.448,1-1V2c0-0.552-0.448-1-1-1H2C1.448,1,1,1.448,1,2v10C1,12.552,1.448,13,2,13z"/>
<path fill="#222221" d="M19,13h10c0.552,0,1-0.448,1-1V2c0-0.552-0.448-1-1-1H19c-0.552,0-1,0.448-1,1v10C18,12.552,18.448,13,19,13
	z"/>
<path fill="#222221" d="M19,30h10c0.552,0,1-0.448,1-1V19c0-0.552-0.448-1-1-1H19c-0.552,0-1,0.448-1,1v10
	C18,29.552,18.448,30,19,30z"/>
<path fill="#222221" d="M28,44v-6c0-0.552-0.448-1-1-1h-6c-0.552,0-1,0.448-1,1v6c0,0.552,0.448,1,1,1h6C27.552,45,28,44.552,28,44z
	"/>
<path fill="#222221" d="M37,44c0,0.552,0.448,1,1,1h6c0.552,0,1-0.448,1-1v-6c0-0.552-0.448-1-1-1h-6c-0.552,0-1,0.448-1,1V44z"/>
<path fill="#222221" d="M38,28h6c0.552,0,1-0.448,1-1v-6c0-0.552-0.448-1-1-1h-6c-0.552,0-1,0.448-1,1v6C37,27.552,37.448,28,38,28z
	"/>
<path fill="#222221" d="M46,1H36c-0.552,0-1,0.448-1,1v10c0,0.552,0.448,1,1,1h10c0.552,0,1-0.448,1-1V2C47,1.448,46.552,1,46,1z"/>
<path fill="#222221" d="M2,30h10c0.552,0,1-0.448,1-1V19c0-0.552-0.448-1-1-1H2c-0.552,0-1,0.448-1,1v10C1,29.552,1.448,30,2,30z"/>
<path fill="#222221" d="M2,47h10c0.552,0,1-0.448,1-1V36c0-0.552-0.448-1-1-1H2c-0.552,0-1,0.448-1,1v10C1,46.552,1.448,47,2,47z"/>
</svg>
