<?xml version="1.0" encoding="utf-8"?>
<!-- Generator: Adobe Illustrator 19.2.1, SVG Export Plug-In . SVG Version: 6.00 Build 0)  -->
<!DOCTYPE svg PUBLIC "-//W3C//DTD SVG 1.1//EN" "http://www.w3.org/Graphics/SVG/1.1/DTD/svg11.dtd">
<svg version="1.1" id="Layer_1" xmlns="http://www.w3.org/2000/svg" xmlns:xlink="http://www.w3.org/1999/xlink" x="0px" y="0px"
	 width="48px" height="48px" viewBox="0 0 48 48" enable-background="new 0 0 48 48" xml:space="preserve">
<path d="M6,45c2.757,0,5-2.243,5-5c0-2.399-3.479-7.559-4.177-8.568c-0.375-0.541-1.271-0.541-1.646,0C4.479,32.441,1,37.601,1,40
	C1,42.757,3.243,45,6,45z"/>
<path d="M42.356,23.388c0,0-0.528-0.723-1.388-1.898C39.072,23.055,36.647,24,34,24h-6c-0.552,0-1-0.448-1-1c0-0.552,0.448-1,1-1h6
	c4.963,0,9-4.038,9-9s-4.037-9-9-9h-5.852c-0.837-1.134-1.365-1.845-1.408-1.887C26.001,1.376,24.98,1,23.703,1
	c-3.492,0-8.685,2.935-13.227,7.477c-2.921,2.921-5.219,6.137-6.469,9.056c-1.374,3.206-1.337,5.766,0.105,7.208
	c0.028,0.028,21.274,15.616,21.274,15.616c0.545,0.511,1.254,0.741,2.074,0.741c2.725,0,6.672-2.538,9.885-5.75
	C41.526,31.167,44.564,25.743,42.356,23.388z M34,6c3.859,0,7,3.14,7,7c0,2.096-0.931,3.975-2.395,5.259
	C35.845,14.487,32.15,9.442,29.62,6H34z M25.008,8.533c-1.153,2.691-3.301,5.685-6.046,8.43c-4.121,4.122-8.868,6.891-11.812,6.891
	c-0.728,0-1.273-0.178-1.623-0.527c-0.801-0.801-0.682-2.672,0.318-5.006c1.153-2.69,3.3-5.684,6.045-8.429
	C16.013,5.77,20.76,3,23.703,3c0.728,0,1.273,0.178,1.623,0.527C26.127,4.328,26.008,6.199,25.008,8.533z"/>
</svg>
