<?xml version="1.0" encoding="utf-8"?>
<!-- Generator: Adobe Illustrator 19.2.1, SVG Export Plug-In . SVG Version: 6.00 Build 0)  -->
<!DOCTYPE svg PUBLIC "-//W3C//DTD SVG 1.1//EN" "http://www.w3.org/Graphics/SVG/1.1/DTD/svg11.dtd">
<svg version="1.1" id="Layer_1" xmlns="http://www.w3.org/2000/svg" xmlns:xlink="http://www.w3.org/1999/xlink" x="0px" y="0px"
	 width="48px" height="48px" viewBox="0 0 48 48" enable-background="new 0 0 48 48" xml:space="preserve">
<path d="M10,5C9.448,5,9,5.448,9,6v8c0,0.552,0.448,1,1,1h8c0.552,0,1-0.448,1-1V6c0-0.552-0.448-1-1-1H10z"/>
<path d="M30,5c-0.552,0-1,0.448-1,1v8c0,0.552,0.448,1,1,1h8c0.552,0,1-0.448,1-1V6c0-0.552-0.448-1-1-1H30z"/>
<path d="M2,43h8c0.552,0,1-0.448,1-1v-8c0-0.552-0.448-1-1-1H2c-0.552,0-1,0.448-1,1v8C1,42.552,1.448,43,2,43z"/>
<path d="M38,43h8c0.552,0,1-0.448,1-1v-8c0-0.552-0.448-1-1-1h-8c-0.552,0-1,0.448-1,1v8C37,42.552,37.448,43,38,43z"/>
<polygon points="13.04,17 10.96,17 6.96,31 9.04,31 "/>
<rect x="21" y="9" width="6" height="2"/>
<polygon points="41.04,31 37.04,17 34.96,17 38.96,31 "/>
<rect x="13" y="37" width="22" height="2"/>
</svg>
