<?xml version="1.0" encoding="utf-8"?>
<!-- Generator: Adobe Illustrator 19.2.1, SVG Export Plug-In . SVG Version: 6.00 Build 0)  -->
<!DOCTYPE svg PUBLIC "-//W3C//DTD SVG 1.1//EN" "http://www.w3.org/Graphics/SVG/1.1/DTD/svg11.dtd">
<svg version="1.1" id="Layer_1" xmlns="http://www.w3.org/2000/svg" xmlns:xlink="http://www.w3.org/1999/xlink" x="0px" y="0px"
	 width="48px" height="48px" viewBox="0 0 48 48" enable-background="new 0 0 48 48" xml:space="preserve">
<path d="M8,39h6c0.553,0,1-0.448,1-1V27c0-0.552-0.447-1-1-1H8c-0.553,0-1,0.448-1,1v11C7,38.552,7.447,39,8,39z"/>
<path d="M8,23h32c0.553,0,1-0.448,1-1v-4c0-0.552-0.447-1-1-1H8c-0.553,0-1,0.448-1,1v4C7,22.552,7.447,23,8,23z"/>
<path d="M40,26H19c-0.553,0-1,0.448-1,1v11c0,0.552,0.447,1,1,1h21c0.553,0,1-0.448,1-1V27C41,26.448,40.553,26,40,26z"/>
<path d="M3,45h42c1.105,0,2-0.895,2-2V5c0-1.105-0.895-2-2-2H3C1.895,3,1,3.895,1,5v38C1,44.105,1.895,45,3,45z M20,6
	c1.105,0,2,0.895,2,2s-0.895,2-2,2s-2-0.895-2-2S18.895,6,20,6z M13,6c1.105,0,2,0.895,2,2s-0.895,2-2,2s-2-0.895-2-2S11.895,6,13,6
	z M6,6c1.105,0,2,0.895,2,2s-0.895,2-2,2S4,9.105,4,8S4.895,6,6,6z M3,14c0-0.552,0.448-1,1-1h40c0.552,0,1,0.448,1,1v28
	c0,0.552-0.448,1-1,1H4c-0.552,0-1-0.448-1-1V14z"/>
</svg>
