<?xml version="1.0" encoding="utf-8"?>
<!-- Generator: Adobe Illustrator 19.2.1, SVG Export Plug-In . SVG Version: 6.00 Build 0)  -->
<!DOCTYPE svg PUBLIC "-//W3C//DTD SVG 1.1//EN" "http://www.w3.org/Graphics/SVG/1.1/DTD/svg11.dtd">
<svg version="1.1" id="Layer_1" xmlns="http://www.w3.org/2000/svg" xmlns:xlink="http://www.w3.org/1999/xlink" x="0px" y="0px"
	 width="48px" height="48px" viewBox="0 0 48 48" enable-background="new 0 0 48 48" xml:space="preserve">
<path d="M10.959,41.41c0.624-0.371,2.615-1.016,4.287-1.44c0.175-0.044,0.334-0.135,0.461-0.262l17.879-17.879l-7.414-7.414
	L8.292,32.293c-0.127,0.127-0.218,0.287-0.262,0.461c-0.424,1.671-1.069,3.663-1.44,4.287C4.579,37.25,3,38.935,3,41
	c0,2.206,1.794,4,4,4C9.065,45,10.75,43.421,10.959,41.41z"/>
<path d="M46,7.243c0-1.4-0.546-2.717-1.536-3.707C43.474,2.545,42.157,2,40.757,2c-1.4,0-2.717,0.545-3.707,1.536L32,8.585
	l-3.293-3.293c-0.391-0.391-1.023-0.391-1.414,0l-3,3c-0.391,0.391-0.391,1.023,0,1.414l14,14C38.488,23.902,38.744,24,39,24
	s0.512-0.098,0.707-0.293l3-3c0.391-0.391,0.391-1.023,0-1.414l-3.293-3.293l5.05-5.05C45.454,9.959,46,8.643,46,7.243z"/>
</svg>
