<?xml version="1.0" encoding="utf-8"?>
<!-- Generator: Adobe Illustrator 19.2.1, SVG Export Plug-In . SVG Version: 6.00 Build 0)  -->
<!DOCTYPE svg PUBLIC "-//W3C//DTD SVG 1.1//EN" "http://www.w3.org/Graphics/SVG/1.1/DTD/svg11.dtd">
<svg version="1.1" id="Layer_1" xmlns="http://www.w3.org/2000/svg" xmlns:xlink="http://www.w3.org/1999/xlink" x="0px" y="0px"
	 width="48px" height="48px" viewBox="0 0 48 48" enable-background="new 0 0 48 48" xml:space="preserve">
<path fill="#222221" d="M32.908,16.581c-0.148-0.32-0.453-0.538-0.803-0.575c-0.358-0.036-0.694,0.112-0.905,0.395L19.8,31.6
	L12.6,26.2c-0.238-0.178-0.541-0.241-0.83-0.174c-0.289,0.068-0.532,0.261-0.665,0.526l-8,16c-0.155,0.31-0.138,0.678,0.044,0.973
	S3.653,44,4,44h40c0.341,0,0.659-0.174,0.842-0.461c0.184-0.287,0.208-0.648,0.066-0.958L32.908,16.581z"/>
<circle fill="#222221" cx="17" cy="10" r="6"/>
</svg>
