<?xml version="1.0" encoding="utf-8"?>
<!-- Generator: Adobe Illustrator 19.2.1, SVG Export Plug-In . SVG Version: 6.00 Build 0)  -->
<!DOCTYPE svg PUBLIC "-//W3C//DTD SVG 1.1//EN" "http://www.w3.org/Graphics/SVG/1.1/DTD/svg11.dtd">
<svg version="1.1" id="Layer_1" xmlns="http://www.w3.org/2000/svg" xmlns:xlink="http://www.w3.org/1999/xlink" x="0px" y="0px"
	 width="48px" height="48px" viewBox="0 0 48 48" enable-background="new 0 0 48 48" xml:space="preserve">
<path d="M35,1H13c-1.105,0-2,0.895-2,2v6h26V3C37,1.895,36.105,1,35,1z"/>
<path d="M13,47h22c1.105,0,2-0.895,2-2v-6H11v6C11,46.105,11.895,47,13,47z"/>
<path d="M9,12v24c0,0.552,0.448,1,1,1h28c0.552,0,1-0.448,1-1V12c0-0.552-0.448-1-1-1H10C9.448,11,9,11.448,9,12z M13,25
	c0-0.552,0.448-1,1-1s1,0.448,1,1v6c0,0.552-0.448,1-1,1s-1-0.448-1-1V25z"/>
</svg>
