<?xml version="1.0" encoding="utf-8"?>
<!-- Generator: Adobe Illustrator 19.2.1, SVG Export Plug-In . SVG Version: 6.00 Build 0)  -->
<!DOCTYPE svg PUBLIC "-//W3C//DTD SVG 1.1//EN" "http://www.w3.org/Graphics/SVG/1.1/DTD/svg11.dtd">
<svg version="1.1" id="Layer_1" xmlns="http://www.w3.org/2000/svg" xmlns:xlink="http://www.w3.org/1999/xlink" x="0px" y="0px"
	 width="48px" height="48px" viewBox="0 0 48 48" enable-background="new 0 0 48 48" xml:space="preserve">
<path d="M1,9v29c0,0.553,0.447,1,1,1h3v-2H3V10h17V8H2C1.447,8,1,8.447,1,9z"/>
<path d="M19,29H8c-0.553,0-1,0.447-1,1v16c0,0.553,0.447,1,1,1h11c0.553,0,1-0.447,1-1V30C20,29.447,19.553,29,19,29z M13.5,44
	c-0.828,0-1.5-0.672-1.5-1.5s0.672-1.5,1.5-1.5s1.5,0.672,1.5,1.5S14.328,44,13.5,44z"/>
<path d="M22,3v18c0,1.103,0.897,2,2,2h15c1.103,0,2-0.897,2-2V3c0-1.103-0.897-2-2-2H24C22.897,1,22,1.897,22,3z M31.5,17
	c0.828,0,1.5,0.672,1.5,1.5S32.328,20,31.5,20S30,19.328,30,18.5S30.672,17,31.5,17z"/>
<path d="M46,8h-3v2h2v27H22v7h10c0.552,0,1-0.448,1-1c0-0.552-0.448-1-1-1h-4v-3h18c0.553,0,1-0.447,1-1V9C47,8.447,46.553,8,46,8z"
	/>
</svg>
