<?xml version="1.0" encoding="utf-8"?>
<!-- Generator: Adobe Illustrator 19.2.1, SVG Export Plug-In . SVG Version: 6.00 Build 0)  -->
<!DOCTYPE svg PUBLIC "-//W3C//DTD SVG 1.1//EN" "http://www.w3.org/Graphics/SVG/1.1/DTD/svg11.dtd">
<svg version="1.1" id="Layer_1" xmlns="http://www.w3.org/2000/svg" xmlns:xlink="http://www.w3.org/1999/xlink" x="0px" y="0px"
	 width="48px" height="48px" viewBox="0 0 48 48" enable-background="new 0 0 48 48" xml:space="preserve">
<circle cx="8" cy="8" r="5"/>
<circle cx="8" cy="24" r="5"/>
<circle cx="8" cy="40" r="5"/>
<path d="M44,7H20c-0.553,0-1,0.447-1,1s0.447,1,1,1h24c0.553,0,1-0.447,1-1S44.553,7,44,7z"/>
<path d="M44,23H20c-0.553,0-1,0.447-1,1s0.447,1,1,1h24c0.553,0,1-0.447,1-1S44.553,23,44,23z"/>
<path d="M45,40c0-0.553-0.447-1-1-1H20c-0.553,0-1,0.447-1,1s0.447,1,1,1h24C44.553,41,45,40.553,45,40z"/>
</svg>
