<?xml version="1.0" encoding="utf-8"?>
<!-- Generator: Adobe Illustrator 19.2.1, SVG Export Plug-In . SVG Version: 6.00 Build 0)  -->
<!DOCTYPE svg PUBLIC "-//W3C//DTD SVG 1.1//EN" "http://www.w3.org/Graphics/SVG/1.1/DTD/svg11.dtd">
<svg version="1.1" id="Layer_1" xmlns="http://www.w3.org/2000/svg" xmlns:xlink="http://www.w3.org/1999/xlink" x="0px" y="0px"
	 width="48px" height="48px" viewBox="0 0 48 48" enable-background="new 0 0 48 48" xml:space="preserve">
<path d="M21,24c0-1.763-0.196-3.426-0.502-5H1v10h19.528C20.816,27.39,21,25.721,21,24z"/>
<path d="M47,19H36.61c0.238,1.599,0.39,3.267,0.39,5c0,1.736-0.151,3.403-0.386,5H47V19z"/>
<path d="M30.575,41c1.143-2.195,2.705-5.734,3.636-10H22.179c-0.893,3.919-2.379,7.354-3.795,10H30.575z"/>
<path d="M34.584,29C34.838,27.403,35,25.733,35,24c0-1.731-0.163-3.401-0.419-5h-12.04C22.823,20.578,23,22.24,23,24
	c0,1.724-0.166,3.392-0.431,5H34.584z"/>
<path d="M34.206,17c-0.933-4.257-2.496-7.8-3.637-10h-12.93c1.585,2.364,3.415,5.777,4.476,10H34.206z"/>
<path d="M3,41h13.073c1.432-2.532,3.051-6.001,4.032-10H1v8C1,40.105,1.895,41,3,41z"/>
<path d="M47,39v-8H36.264c-0.841,4.124-2.251,7.601-3.432,10H45C46.105,41,47,40.105,47,39z"/>
<path d="M47,9c0-1.105-0.895-2-2-2H32.821c1.18,2.404,2.591,5.886,3.436,10H47V9z"/>
<path d="M15.179,7H3C1.895,7,1,7.895,1,9v8h19.032C18.821,12.571,16.72,9.103,15.179,7z"/>
</svg>
