<?xml version="1.0" encoding="utf-8"?>
<!-- Generator: Adobe Illustrator 19.2.1, SVG Export Plug-In . SVG Version: 6.00 Build 0)  -->
<!DOCTYPE svg PUBLIC "-//W3C//DTD SVG 1.1//EN" "http://www.w3.org/Graphics/SVG/1.1/DTD/svg11.dtd">
<svg version="1.1" id="Layer_1" xmlns="http://www.w3.org/2000/svg" xmlns:xlink="http://www.w3.org/1999/xlink" x="0px" y="0px"
	 width="48px" height="48px" viewBox="0 0 48 48" enable-background="new 0 0 48 48" xml:space="preserve">
<path d="M2.293,38.293c-0.391,0.391-0.391,1.023,0,1.414l6,6C8.488,45.902,8.744,46,9,46s0.512-0.098,0.707-0.293L30,25.414
	L22.586,18L2.293,38.293z"/>
<path d="M30.707,11.293c-0.391-0.391-1.023-0.391-1.414,0L24,16.586L31.414,24l5.293-5.293c0.391-0.391,0.391-1.023,0-1.414
	L30.707,11.293z"/>
<path d="M13,9c0,0.256,0.098,0.512,0.293,0.707c0.391,0.391,1.023,0.391,1.414,0C15.2,9.214,16.057,8.92,17,8.92
	s1.8,0.294,2.293,0.787C19.488,9.902,19.744,10,20,10c0.007-0.001,0.013,0,0.02,0c0.552,0,1-0.448,1-1c0-0.327-0.157-0.617-0.4-0.8
	c-0.962-1.097-0.933-3.473,0.087-4.493C20.902,3.512,21,3.256,21,3s-0.098-0.512-0.293-0.707c-0.391-0.391-1.023-0.391-1.414,0
	C18.8,2.786,17.943,3.08,17,3.08s-1.8-0.294-2.293-0.787c-0.391-0.391-1.023-0.391-1.414,0C13.098,2.488,13,2.744,13,3
	s0.098,0.512,0.293,0.707c1.05,1.05,1.05,3.536,0,4.586C13.098,8.488,13,8.744,13,9z"/>
<path d="M45.62,8.2c-0.962-1.097-0.933-3.473,0.087-4.493C45.902,3.512,46,3.256,46,3s-0.098-0.512-0.293-0.707
	c-0.391-0.391-1.023-0.391-1.414,0C43.8,2.786,42.943,3.08,42,3.08s-1.8-0.294-2.293-0.787c-0.391-0.391-1.023-0.391-1.414,0
	C38.098,2.488,38,2.744,38,3s0.098,0.512,0.293,0.707c1.05,1.05,1.05,3.536,0,4.586C38.098,8.488,38,8.744,38,9
	s0.098,0.512,0.293,0.707c0.391,0.391,1.023,0.391,1.414,0C40.2,9.214,41.057,8.92,42,8.92s1.8,0.294,2.293,0.787
	C44.488,9.902,44.744,10,45,10c0.007-0.001,0.013,0,0.02,0c0.552,0,1-0.448,1-1C46.02,8.673,45.863,8.383,45.62,8.2z"/>
<path d="M45.62,33.2c-0.962-1.097-0.933-3.473,0.087-4.493C45.902,28.512,46,28.256,46,28s-0.098-0.512-0.293-0.707
	c-0.391-0.391-1.023-0.391-1.414,0C43.8,27.786,42.943,28.08,42,28.08s-1.8-0.294-2.293-0.787c-0.391-0.391-1.023-0.391-1.414,0
	C38.098,27.488,38,27.744,38,28s0.098,0.512,0.293,0.707c1.05,1.05,1.05,3.536,0,4.586C38.098,33.488,38,33.744,38,34
	s0.098,0.512,0.293,0.707c0.391,0.391,1.023,0.391,1.414,0C40.2,34.214,41.057,33.92,42,33.92s1.8,0.294,2.293,0.787
	C44.488,34.902,44.744,35,45,35c0.007-0.001,0.013,0,0.02,0c0.552,0,1-0.448,1-1C46.02,33.673,45.863,33.383,45.62,33.2z"/>
</svg>
