<?xml version="1.0" encoding="utf-8"?>
<!-- Generator: Adobe Illustrator 19.2.1, SVG Export Plug-In . SVG Version: 6.00 Build 0)  -->
<!DOCTYPE svg PUBLIC "-//W3C//DTD SVG 1.1//EN" "http://www.w3.org/Graphics/SVG/1.1/DTD/svg11.dtd">
<svg version="1.1" id="Layer_1" xmlns="http://www.w3.org/2000/svg" xmlns:xlink="http://www.w3.org/1999/xlink" x="0px" y="0px"
	 width="48px" height="48px" viewBox="0 0 48 48" enable-background="new 0 0 48 48" xml:space="preserve">
<path d="M23,48h2c0.552,0,1-0.448,1-1v-2.93l11.109-7.406C37.666,36.293,38,35.669,38,35v-5h2c0.553,0,1-0.447,1-1v-8
	c0-0.553-0.447-1-1-1h-8c-0.553,0-1,0.447-1,1v8c0,0.553,0.447,1,1,1h2v3.93l-8,5.333V10h4c0.391,0,0.745-0.228,0.908-0.582
	s0.105-0.772-0.149-1.068l-6-7c-0.379-0.443-1.139-0.443-1.518,0l-6,7c-0.255,0.296-0.312,0.714-0.149,1.068S17.609,10,18,10h4
	v24.263l-8-5.333v-6.354c1.763-0.774,3-2.531,3-4.576c0-2.757-2.243-5-5-5s-5,2.243-5,5c0,2.045,1.237,3.802,3,4.576V30
	c0,0.669,0.334,1.293,0.891,1.664L22,39.07V47C22,47.552,22.448,48,23,48z"/>
</svg>
