<?xml version="1.0" encoding="utf-8"?>
<!-- Generator: Adobe Illustrator 19.2.1, SVG Export Plug-In . SVG Version: 6.00 Build 0)  -->
<!DOCTYPE svg PUBLIC "-//W3C//DTD SVG 1.1//EN" "http://www.w3.org/Graphics/SVG/1.1/DTD/svg11.dtd">
<svg version="1.1" id="Layer_1" xmlns="http://www.w3.org/2000/svg" xmlns:xlink="http://www.w3.org/1999/xlink" x="0px" y="0px"
	 width="48px" height="48px" viewBox="0 0 48 48" enable-background="new 0 0 48 48" xml:space="preserve">
<circle cx="21" cy="17" r="4"/>
<path d="M45,3H3C1.895,3,1,3.895,1,5v38c0,1.105,0.895,2,2,2h42c1.105,0,2-0.895,2-2V5C47,3.895,46.105,3,45,3z M45,29
	l-10.293-8.707c-0.461-0.458-1.126-0.341-1.466,0.057L23.236,32.022L27,37.75L12.625,26.219c-0.397-0.317-0.972-0.286-1.332,0.074
	L3,33V6c0-0.553,0.448-1,1-1h40c0.552,0,1,0.447,1,1V29z"/>
</svg>
