<?xml version="1.0" encoding="utf-8"?>
<!-- Generator: Adobe Illustrator 19.2.1, SVG Export Plug-In . SVG Version: 6.00 Build 0)  -->
<!DOCTYPE svg PUBLIC "-//W3C//DTD SVG 1.1//EN" "http://www.w3.org/Graphics/SVG/1.1/DTD/svg11.dtd">
<svg version="1.1" id="Layer_1" xmlns="http://www.w3.org/2000/svg" xmlns:xlink="http://www.w3.org/1999/xlink" x="0px" y="0px"
	 width="48px" height="48px" viewBox="0 0 48 48" enable-background="new 0 0 48 48" xml:space="preserve">
<path d="M3,45h12V3H3C1.895,3,1,3.895,1,5v38C1,44.105,1.895,45,3,45z M6,11h4c0.553,0,1,0.447,1,1s-0.447,1-1,1H6
	c-0.553,0-1-0.447-1-1S5.447,11,6,11z M6,17h4c0.553,0,1,0.447,1,1s-0.447,1-1,1H6c-0.553,0-1-0.447-1-1S5.447,17,6,17z M6,23h4
	c0.553,0,1,0.447,1,1s-0.447,1-1,1H6c-0.553,0-1-0.447-1-1S5.447,23,6,23z M6,29h4c0.553,0,1,0.447,1,1s-0.447,1-1,1H6
	c-0.553,0-1-0.447-1-1S5.447,29,6,29z M6,35h4c0.553,0,1,0.447,1,1s-0.447,1-1,1H6c-0.553,0-1-0.447-1-1S5.447,35,6,35z"/>
<path d="M45,3H17v42h28c1.105,0,2-0.895,2-2V5C47,3.895,46.105,3,45,3z M34,18c0,0.553-0.447,1-1,1h-5c-0.553,0-1-0.447-1-1
	s0.447-1,1-1h5C33.553,17,34,17.447,34,18z M24,11h4c0.553,0,1,0.447,1,1s-0.447,1-1,1h-4c-0.553,0-1-0.447-1-1S23.447,11,24,11z
	 M28,37h-4c-0.553,0-1-0.447-1-1s0.447-1,1-1h4c0.553,0,1,0.447,1,1S28.553,37,28,37z M33,31h-5c-0.553,0-1-0.447-1-1s0.447-1,1-1h5
	c0.553,0,1,0.447,1,1S33.553,31,33,31z M40,25h-8c-0.553,0-1-0.447-1-1s0.447-1,1-1h8c0.553,0,1,0.447,1,1S40.553,25,40,25z"/>
</svg>
