<?xml version="1.0" encoding="utf-8"?>
<!-- Generator: Adobe Illustrator 19.2.1, SVG Export Plug-In . SVG Version: 6.00 Build 0)  -->
<!DOCTYPE svg PUBLIC "-//W3C//DTD SVG 1.1//EN" "http://www.w3.org/Graphics/SVG/1.1/DTD/svg11.dtd">
<svg version="1.1" id="Layer_1" xmlns="http://www.w3.org/2000/svg" xmlns:xlink="http://www.w3.org/1999/xlink" x="0px" y="0px"
	 width="48px" height="48px" viewBox="0 0 48 48" enable-background="new 0 0 48 48" xml:space="preserve">
<path fill="#222221" d="M46,1H2C1.447,1,1,1.448,1,2v27c0,0.552,0.447,1,1,1h10v-2H3V3h42v25h-4v2h5c0.553,0,1-0.448,1-1V2
	C47,1.448,46.553,1,46,1z"/>
<path fill="#222221" d="M39.998,24.935c-0.026-0.402-0.291-0.749-0.671-0.88l-26-9c-0.356-0.123-0.747-0.037-1.019,0.222
	c-0.271,0.259-0.374,0.647-0.268,1.007l8,27c0.117,0.394,0.462,0.676,0.871,0.712C20.941,43.999,20.971,44,21,44
	c0.376,0,0.724-0.212,0.895-0.553l4.879-9.759l12.082,12.945c0.377,0.404,1.01,0.426,1.413,0.049l1.462-1.365
	c0.404-0.377,0.425-1.01,0.049-1.413L29.577,30.829l9.871-4.935C39.807,25.714,40.024,25.336,39.998,24.935z"/>
</svg>
