<?xml version="1.0" encoding="utf-8"?>
<!-- Generator: Adobe Illustrator 19.2.1, SVG Export Plug-In . SVG Version: 6.00 Build 0)  -->
<!DOCTYPE svg PUBLIC "-//W3C//DTD SVG 1.1//EN" "http://www.w3.org/Graphics/SVG/1.1/DTD/svg11.dtd">
<svg version="1.1" id="Layer_1" xmlns="http://www.w3.org/2000/svg" xmlns:xlink="http://www.w3.org/1999/xlink" x="0px" y="0px"
	 width="48px" height="48px" viewBox="0 0 48 48" enable-background="new 0 0 48 48" xml:space="preserve">
<path d="M17,11v26c0,1.105,0.895,2,2,2h10c1.105,0,2-0.895,2-2V11c0-1.105-0.895-2-2-2H19C17.895,9,17,9.895,17,11z"/>
<path d="M4,1C3.448,1,3,1.447,3,2v44c0,0.553,0.448,1,1,1s1-0.447,1-1V2C5,1.447,4.552,1,4,1z"/>
<path d="M44,1c-0.552,0-1,0.447-1,1v44c0,0.553,0.448,1,1,1s1-0.447,1-1V2C45,1.447,44.552,1,44,1z"/>
</svg>
