<?xml version="1.0" encoding="utf-8"?>
<!-- Generator: Adobe Illustrator 19.2.1, SVG Export Plug-In . SVG Version: 6.00 Build 0)  -->
<!DOCTYPE svg PUBLIC "-//W3C//DTD SVG 1.1//EN" "http://www.w3.org/Graphics/SVG/1.1/DTD/svg11.dtd">
<svg version="1.1" id="Layer_1" xmlns="http://www.w3.org/2000/svg" xmlns:xlink="http://www.w3.org/1999/xlink" x="0px" y="0px"
	 width="48px" height="48px" viewBox="0 0 48 48" enable-background="new 0 0 48 48" xml:space="preserve">
<path d="M9.5,23.086L24.914,38.5L38.5,24.914L23.086,9.5L9.5,23.086z M19,26c-1.105,0-2-0.895-2-2c0-1.105,0.895-2,2-2s2,0.895,2,2
	C21,25.105,20.105,26,19,26z M24,31c-1.105,0-2-0.895-2-2c0-1.105,0.895-2,2-2s2,0.895,2,2C26,30.105,25.105,31,24,31z M29,22
	c1.105,0,2,0.895,2,2c0,1.105-0.895,2-2,2s-2-0.895-2-2C27,22.895,27.895,22,29,22z M26,19c0,1.105-0.895,2-2,2s-2-0.895-2-2
	c0-1.105,0.895-2,2-2S26,17.895,26,19z"/>
<path d="M3.829,28.757c-2.339,2.339-2.339,6.146,0,8.485l6.929,6.929c1.169,1.17,2.706,1.755,4.243,1.755s3.073-0.585,4.243-1.755
	l4.257-4.257L8.086,24.5L3.829,28.757z"/>
<path d="M44.171,19.243c2.339-2.339,2.339-6.146,0-8.485l-6.929-6.929c-2.339-2.34-6.146-2.34-8.485,0L24.5,8.086L39.914,23.5
	L44.171,19.243z"/>
</svg>
