<?xml version="1.0" encoding="utf-8"?>
<!-- Generator: Adobe Illustrator 19.2.1, SVG Export Plug-In . SVG Version: 6.00 Build 0)  -->
<!DOCTYPE svg PUBLIC "-//W3C//DTD SVG 1.1//EN" "http://www.w3.org/Graphics/SVG/1.1/DTD/svg11.dtd">
<svg version="1.1" id="Layer_1" xmlns="http://www.w3.org/2000/svg" xmlns:xlink="http://www.w3.org/1999/xlink" x="0px" y="0px"
	 width="48px" height="48px" viewBox="0 0 48 48" enable-background="new 0 0 48 48" xml:space="preserve">
<path d="M2,29c-0.553,0-1,0.448-1,1s0.447,1,1,1h5v-2H2z"/>
<path d="M46,19c0.553,0,1-0.448,1-1s-0.447-1-1-1h-5v2H46z"/>
<path d="M46,25c0.553,0,1-0.448,1-1s-0.447-1-1-1h-5v2H46z"/>
<path d="M31,2c0-0.552-0.447-1-1-1s-1,0.448-1,1v5h2V2z"/>
<path d="M2,17c-0.553,0-1,0.448-1,1s0.447,1,1,1h5v-2H2z"/>
<path d="M19,2c0-0.552-0.447-1-1-1s-1,0.448-1,1v5h2V2z"/>
<path d="M25,2c0-0.552-0.447-1-1-1s-1,0.448-1,1v5h2V2z"/>
<path d="M29,46c0,0.552,0.447,1,1,1s1-0.448,1-1v-5h-2V46z"/>
<path d="M23,46c0,0.552,0.447,1,1,1s1-0.448,1-1v-5h-2V46z"/>
<path d="M17,46c0,0.552,0.447,1,1,1s1-0.448,1-1v-5h-2V46z"/>
<path d="M2,23c-0.553,0-1,0.448-1,1s0.447,1,1,1h5v-2H2z"/>
<path d="M46,31c0.553,0,1-0.448,1-1s-0.447-1-1-1h-5v2H46z"/>
<path d="M37,19c-0.552,0-1-0.448-1-1s0.448-1,1-1h4V9c0-1.105-0.895-2-2-2h-8v4c0,0.552-0.448,1-1,1s-1-0.448-1-1V7h-4v4
	c0,0.552-0.448,1-1,1s-1-0.448-1-1V7h-4v4c0,0.552-0.448,1-1,1s-1-0.448-1-1V7H9C7.895,7,7,7.895,7,9v8h4c0.552,0,1,0.448,1,1
	s-0.448,1-1,1H7v4h4c0.552,0,1,0.448,1,1s-0.448,1-1,1H7v4h4c0.552,0,1,0.448,1,1s-0.448,1-1,1H7v8c0,1.105,0.895,2,2,2h8v-4
	c0-0.552,0.448-1,1-1s1,0.448,1,1v4h4v-4c0-0.552,0.448-1,1-1s1,0.448,1,1v4h4v-4c0-0.552,0.448-1,1-1s1,0.448,1,1v4h8
	c1.105,0,2-0.895,2-2v-8h-4c-0.552,0-1-0.448-1-1s0.448-1,1-1h4v-4h-4c-0.552,0-1-0.448-1-1s0.448-1,1-1h4v-4H37z"/>
</svg>
