<?xml version="1.0" encoding="utf-8"?>
<!-- Generator: Adobe Illustrator 19.2.1, SVG Export Plug-In . SVG Version: 6.00 Build 0)  -->
<!DOCTYPE svg PUBLIC "-//W3C//DTD SVG 1.1//EN" "http://www.w3.org/Graphics/SVG/1.1/DTD/svg11.dtd">
<svg version="1.1" id="Layer_1" xmlns="http://www.w3.org/2000/svg" xmlns:xlink="http://www.w3.org/1999/xlink" x="0px" y="0px"
	 width="48px" height="48px" viewBox="0 0 48 48" enable-background="new 0 0 48 48" xml:space="preserve">
<path fill="#222221" d="M9,41H4v5c0,0.6,0.4,1,1,1h16c0.6,0,1-0.4,1-1V2c0-0.6-0.4-1-1-1H5C4.4,1,4,1.4,4,2v5h5c0.6,0,1,0.4,1,1
	c0,0.6-0.4,1-1,1H4v6h3c0.6,0,1,0.4,1,1c0,0.6-0.4,1-1,1H4v6h5c0.6,0,1,0.4,1,1c0,0.6-0.4,1-1,1H4v6h3c0.6,0,1,0.4,1,1
	c0,0.6-0.4,1-1,1H4v6h5c0.6,0,1,0.4,1,1C10,40.6,9.6,41,9,41z M17,4c1.1,0,2,0.9,2,2c0,1.1-0.9,2-2,2s-2-0.9-2-2C15,4.9,15.9,4,17,4
	z"/>
<path fill="#222221" d="M44,2c0-0.552-0.447-1-1-1H31c-0.553,0-1,0.448-1,1v5h14V2z"/>
<rect x="30" y="9" fill="#222221" width="14" height="27"/>
<path fill="#222221" d="M36.181,46.83c0.398,0.569,1.24,0.569,1.638,0L44,38H30L36.181,46.83z"/>
</svg>
