<?xml version="1.0" encoding="utf-8"?>
<!-- Generator: Adobe Illustrator 19.2.1, SVG Export Plug-In . SVG Version: 6.00 Build 0)  -->
<!DOCTYPE svg PUBLIC "-//W3C//DTD SVG 1.1//EN" "http://www.w3.org/Graphics/SVG/1.1/DTD/svg11.dtd">
<svg version="1.1" id="Layer_1" xmlns="http://www.w3.org/2000/svg" xmlns:xlink="http://www.w3.org/1999/xlink" x="0px" y="0px"
	 width="48px" height="48px" viewBox="0 0 48 48" enable-background="new 0 0 48 48" xml:space="preserve">
<path d="M16,47h16c0.552,0,1-0.448,1-1V2c0-0.552-0.448-1-1-1H16c-0.552,0-1,0.448-1,1v5h5c0.552,0,1,0.448,1,1s-0.448,1-1,1h-5v6h3
	c0.552,0,1,0.448,1,1s-0.448,1-1,1h-3v6h5c0.552,0,1,0.448,1,1s-0.448,1-1,1h-5v6h3c0.552,0,1,0.448,1,1s-0.448,1-1,1h-3v6h5
	c0.552,0,1,0.448,1,1s-0.448,1-1,1h-5v5C15,46.552,15.448,47,16,47z M28,4c1.105,0,2,0.895,2,2c0,1.105-0.895,2-2,2s-2-0.895-2-2
	C26,4.895,26.895,4,28,4z"/>
</svg>
