<?xml version="1.0" encoding="utf-8"?>
<!-- Generator: Adobe Illustrator 19.2.1, SVG Export Plug-In . SVG Version: 6.00 Build 0)  -->
<!DOCTYPE svg PUBLIC "-//W3C//DTD SVG 1.1//EN" "http://www.w3.org/Graphics/SVG/1.1/DTD/svg11.dtd">
<svg version="1.1" id="Layer_1" xmlns="http://www.w3.org/2000/svg" xmlns:xlink="http://www.w3.org/1999/xlink" x="0px" y="0px"
	 width="48px" height="48px" viewBox="0 0 48 48" enable-background="new 0 0 48 48" xml:space="preserve">
<path d="M5,14v30c0,1.105,0.895,2,2,2h34c1.105,0,2-0.895,2-2V14c0-1.105-0.895-2-2-2H7C5.895,12,5,12.895,5,14z"/>
<path d="M9,8v2h30V8c0-0.552-0.448-1-1-1H10C9.448,7,9,7.448,9,8z"/>
<path d="M32,2H16c-0.552,0-1,0.448-1,1v2h18V3C33,2.448,32.552,2,32,2z"/>
</svg>
