<?xml version="1.0" encoding="utf-8"?>
<!-- Generator: Adobe Illustrator 19.2.1, SVG Export Plug-In . SVG Version: 6.00 Build 0)  -->
<!DOCTYPE svg PUBLIC "-//W3C//DTD SVG 1.1//EN" "http://www.w3.org/Graphics/SVG/1.1/DTD/svg11.dtd">
<svg version="1.1" id="Layer_1" xmlns="http://www.w3.org/2000/svg" xmlns:xlink="http://www.w3.org/1999/xlink" x="0px" y="0px"
	 width="48px" height="48px" viewBox="0 0 48 48" enable-background="new 0 0 48 48" xml:space="preserve">
<path fill="#222221" d="M40.989,41.209l4-38c0.06-0.563-0.123-1.126-0.502-1.547C44.107,1.24,43.567,1,43,1H5
	C4.433,1,3.893,1.24,3.514,1.662C3.134,2.083,2.952,2.646,3.011,3.209l4,38c0.086,0.824,0.673,1.51,1.474,1.724l15,4
	C23.653,46.978,23.827,47,24,47s0.347-0.022,0.515-0.067l15-4C40.316,42.719,40.902,42.033,40.989,41.209z M36,15.3L23.174,21H35.19
	l-1.327,14.596L24,38.062l-10-2.5V30h4v2.438l6,1.5l6.137-1.534L30.81,25H14v-4.3L29.076,14H12v-4h24V15.3z"/>
</svg>
