<?xml version="1.0" encoding="utf-8"?>
<!-- Generator: Adobe Illustrator 19.2.1, SVG Export Plug-In . SVG Version: 6.00 Build 0)  -->
<!DOCTYPE svg PUBLIC "-//W3C//DTD SVG 1.1//EN" "http://www.w3.org/Graphics/SVG/1.1/DTD/svg11.dtd">
<svg version="1.1" id="Layer_1" xmlns="http://www.w3.org/2000/svg" xmlns:xlink="http://www.w3.org/1999/xlink" x="0px" y="0px"
	 width="48px" height="48px" viewBox="0 0 48 48" enable-background="new 0 0 48 48" xml:space="preserve">
<path d="M13,4c0-0.552-0.447-1-1-1H4C3.447,3,3,3.448,3,4v8c0,0.552,0.447,1,1,1h8c0.553,0,1-0.448,1-1V4z"/>
<path d="M45,4c0-0.552-0.447-1-1-1h-8c-0.553,0-1,0.448-1,1v8c0,0.552,0.447,1,1,1h8c0.553,0,1-0.448,1-1V4z"/>
<path d="M3,36v8c0,0.552,0.447,1,1,1h8c0.553,0,1-0.448,1-1v-8c0-0.552-0.447-1-1-1H4C3.447,35,3,35.448,3,36z"/>
<path d="M35,36v8c0,0.552,0.447,1,1,1h8c0.553,0,1-0.448,1-1v-8c0-0.552-0.447-1-1-1h-8C35.447,35,35,35.448,35,36z"/>
<rect x="39" y="15" width="2" height="18"/>
<rect x="15" y="39" width="18" height="2"/>
<rect x="7" y="15" width="2" height="18"/>
<rect x="15" y="7" width="18" height="2"/>
</svg>
