<?xml version="1.0" encoding="utf-8"?>
<!-- Generator: Adobe Illustrator 19.2.1, SVG Export Plug-In . SVG Version: 6.00 Build 0)  -->
<!DOCTYPE svg PUBLIC "-//W3C//DTD SVG 1.1//EN" "http://www.w3.org/Graphics/SVG/1.1/DTD/svg11.dtd">
<svg version="1.1" id="Layer_1" xmlns="http://www.w3.org/2000/svg" xmlns:xlink="http://www.w3.org/1999/xlink" x="0px" y="0px"
	 width="48px" height="48px" viewBox="0 0 48 48" enable-background="new 0 0 48 48" xml:space="preserve">
<path d="M46,23H2c-0.553,0-1,0.447-1,1s0.447,1,1,1h44c0.553,0,1-0.447,1-1S46.553,23,46,23z"/>
<path d="M32,17c0.008,0,0.015,0,0.02,0c0.553,0,1-0.447,1-1c0-0.416-0.253-0.772-0.614-0.923L12.515,3.143
	c-0.31-0.186-0.694-0.19-1.008-0.013S11,3.64,11,4v12c0,0.553,0.447,1,1,1H32z"/>
<path d="M32,31H12c-0.553,0-1,0.447-1,1v12c0,0.36,0.193,0.692,0.507,0.87C11.66,44.957,11.83,45,12,45
	c0.178,0,0.356-0.048,0.515-0.143l20-12c0.386-0.231,0.569-0.691,0.449-1.124C32.844,31.3,32.449,31,32,31z"/>
</svg>
