<?xml version="1.0" encoding="utf-8"?>
<!-- Generator: Adobe Illustrator 19.2.1, SVG Export Plug-In . SVG Version: 6.00 Build 0)  -->
<!DOCTYPE svg PUBLIC "-//W3C//DTD SVG 1.1//EN" "http://www.w3.org/Graphics/SVG/1.1/DTD/svg11.dtd">
<svg version="1.1" id="Layer_1" xmlns="http://www.w3.org/2000/svg" xmlns:xlink="http://www.w3.org/1999/xlink" x="0px" y="0px"
	 width="48px" height="48px" viewBox="0 0 48 48" enable-background="new 0 0 48 48" xml:space="preserve">
<path d="M5,2v44c0,0.553,0.448,1,1,1s1-0.447,1-1V2c0-0.553-0.448-1-1-1S5,1.447,5,2z"/>
<path d="M43,19v-8c0-1.105-0.895-2-2-2H15c-1.105,0-2,0.895-2,2v8c0,1.105,0.895,2,2,2h26C42.105,21,43,20.105,43,19z"/>
<path d="M15,27c-1.105,0-2,0.895-2,2v8c0,1.105,0.895,2,2,2h14c1.105,0,2-0.895,2-2v-8c0-1.105-0.895-2-2-2H15z"/>
</svg>
