<?xml version="1.0" encoding="utf-8"?>
<!-- Generator: Adobe Illustrator 19.2.1, SVG Export Plug-In . SVG Version: 6.00 Build 0)  -->
<!DOCTYPE svg PUBLIC "-//W3C//DTD SVG 1.1//EN" "http://www.w3.org/Graphics/SVG/1.1/DTD/svg11.dtd">
<svg version="1.1" id="Layer_1" xmlns="http://www.w3.org/2000/svg" xmlns:xlink="http://www.w3.org/1999/xlink" x="0px" y="0px"
	 width="48px" height="48px" viewBox="0 0 48 48" enable-background="new 0 0 48 48" xml:space="preserve">
<path d="M37,31c1.105,0,2-0.895,2-2V19c0-1.105-0.895-2-2-2H11c-1.105,0-2,0.895-2,2v10c0,1.105,0.895,2,2,2H37z"/>
<path d="M46,3H2C1.448,3,1,3.447,1,4s0.448,1,1,1h44c0.552,0,1-0.447,1-1S46.552,3,46,3z"/>
<path d="M46,43H2c-0.552,0-1,0.447-1,1s0.448,1,1,1h44c0.552,0,1-0.447,1-1S46.552,43,46,43z"/>
</svg>
