<?xml version="1.0" encoding="utf-8"?>
<!-- Generator: Adobe Illustrator 19.2.1, SVG Export Plug-In . SVG Version: 6.00 Build 0)  -->
<!DOCTYPE svg PUBLIC "-//W3C//DTD SVG 1.1//EN" "http://www.w3.org/Graphics/SVG/1.1/DTD/svg11.dtd">
<svg version="1.1" id="Layer_1" xmlns="http://www.w3.org/2000/svg" xmlns:xlink="http://www.w3.org/1999/xlink" x="0px" y="0px"
	 width="48px" height="48px" viewBox="0 0 48 48" enable-background="new 0 0 48 48" xml:space="preserve">
<path d="M24,1c-0.552,0-1,0.448-1,1v2.069C19.06,4.564,16,7.928,16,12c0,4.411,3.589,8,8,8s8-3.589,8-8c0-4.072-3.06-7.436-7-7.931
	V2C25,1.448,24.552,1,24,1z"/>
<path d="M43,33c0.552,0,1-0.448,1-1s-0.448-1-1-1h-4.256l-6.611-13.203c-1.59,2.224-4.063,3.77-6.906,4.12L29.768,31H25v-2
	c0-0.552-0.448-1-1-1s-1,0.448-1,1v2h-4.768l4.542-9.083c-2.843-0.35-5.316-1.896-6.906-4.12L9.256,31H5c-0.552,0-1,0.448-1,1
	s0.448,1,1,1h3.255L1,47c0,0,8.969,0.281,11.66-4.856L17.232,33H23v2c0,0.552,0.448,1,1,1s1-0.448,1-1v-2h5.768l4.572,9.144
	C38.031,47.281,47,47,47,47l-7.255-14H43z"/>
</svg>
