<?xml version="1.0" encoding="utf-8"?>
<!-- Generator: Adobe Illustrator 19.2.1, SVG Export Plug-In . SVG Version: 6.00 Build 0)  -->
<!DOCTYPE svg PUBLIC "-//W3C//DTD SVG 1.1//EN" "http://www.w3.org/Graphics/SVG/1.1/DTD/svg11.dtd">
<svg version="1.1" id="Layer_1" xmlns="http://www.w3.org/2000/svg" xmlns:xlink="http://www.w3.org/1999/xlink" x="0px" y="0px"
	 width="48px" height="48px" viewBox="0 0 48 48" enable-background="new 0 0 48 48" xml:space="preserve">
<path fill="#222221" d="M24,1c-0.553,0-1,0.447-1,1v9.382l-13,6.5l14,7l14-7l-13-6.5V2C25,1.447,24.553,1,24,1z"/>
<path fill="#222221" d="M25,26.618v17l13-6.5l7.553,3.776C45.696,40.966,45.849,41,45.999,41c0.367,0,0.72-0.202,0.896-0.553
	c0.247-0.494,0.047-1.095-0.447-1.342L39,35.382V19.618L25,26.618z"/>
<path fill="#222221" d="M9,35.382l-7.447,3.724c-0.494,0.247-0.694,0.848-0.447,1.342C1.281,40.798,1.634,41,2.001,41
	c0.15,0,0.303-0.034,0.446-0.105L10,37.118l13,6.5v-17l-14-7V35.382z"/>
</svg>
