<?xml version="1.0" encoding="utf-8"?>
<!-- Generator: Adobe Illustrator 19.2.1, SVG Export Plug-In . SVG Version: 6.00 Build 0)  -->
<!DOCTYPE svg PUBLIC "-//W3C//DTD SVG 1.1//EN" "http://www.w3.org/Graphics/SVG/1.1/DTD/svg11.dtd">
<svg version="1.1" id="Layer_1" xmlns="http://www.w3.org/2000/svg" xmlns:xlink="http://www.w3.org/1999/xlink" x="0px" y="0px"
	 width="48px" height="48px" viewBox="0 0 48 48" enable-background="new 0 0 48 48" xml:space="preserve">
<path fill="#222221" d="M6,0C5.448,0,5,0.448,5,1v41c0,0.552,0.448,1,1,1h11v-2H7V27h10v-2H7V11h10V9H7V1C7,0.448,6.552,0,6,0z"/>
<path fill="#222221" d="M20,16h22c0.552,0,1-0.447,1-1V5c0-0.553-0.448-1-1-1H20c-0.552,0-1,0.447-1,1v10C19,15.553,19.448,16,20,16
	z"/>
<path fill="#222221" d="M19,47c0,0.553,0.448,1,1,1h22c0.552,0,1-0.447,1-1V37c0-0.553-0.448-1-1-1H20c-0.552,0-1,0.447-1,1V47z"/>
<path fill="#222221" d="M19,31c0,0.553,0.448,1,1,1h22c0.552,0,1-0.447,1-1V21c0-0.553-0.448-1-1-1H20c-0.552,0-1,0.447-1,1V31z"/>
</svg>
