<?xml version="1.0" encoding="utf-8"?>
<!-- Generator: Adobe Illustrator 19.2.1, SVG Export Plug-In . SVG Version: 6.00 Build 0)  -->
<!DOCTYPE svg PUBLIC "-//W3C//DTD SVG 1.1//EN" "http://www.w3.org/Graphics/SVG/1.1/DTD/svg11.dtd">
<svg version="1.1" id="Layer_1" xmlns="http://www.w3.org/2000/svg" xmlns:xlink="http://www.w3.org/1999/xlink" x="0px" y="0px"
	 width="48px" height="48px" viewBox="0 0 48 48" enable-background="new 0 0 48 48" xml:space="preserve">
<path d="M4,35h23v-4H12c-0.552,0-1-0.447-1-1V6c0-0.553,0.448-1,1-1h26c0.552,0,1,0.447,1,1v9h3c0.342,0,0.677,0.035,1,0.101V4
	c0-1.654-1.346-3-3-3H4C2.346,1,1,2.346,1,4v28C1,33.654,2.346,35,4,35z M6,15c1.654,0,3,1.346,3,3s-1.346,3-3,3s-3-1.346-3-3
	S4.346,15,6,15z"/>
<path d="M47,44V20c0-1.654-1.346-3-3-3H32c-1.654,0-3,1.346-3,3v24c0,1.654,1.346,3,3,3h12C45.654,47,47,45.654,47,44z M38,45
	c-1.103,0-2-0.897-2-2s0.897-2,2-2s2,0.897,2,2S39.103,45,38,45z M43,39H33c-0.552,0-1-0.447-1-1V21c0-0.553,0.448-1,1-1h10
	c0.552,0,1,0.447,1,1v17C44,38.553,43.552,39,43,39z"/>
</svg>
