<?xml version="1.0" encoding="utf-8"?>
<!-- Generator: Adobe Illustrator 19.2.1, SVG Export Plug-In . SVG Version: 6.00 Build 0)  -->
<!DOCTYPE svg PUBLIC "-//W3C//DTD SVG 1.1//EN" "http://www.w3.org/Graphics/SVG/1.1/DTD/svg11.dtd">
<svg version="1.1" id="Layer_1" xmlns="http://www.w3.org/2000/svg" xmlns:xlink="http://www.w3.org/1999/xlink" x="0px" y="0px"
	 width="48px" height="48px" viewBox="0 0 48 48" enable-background="new 0 0 48 48" xml:space="preserve">
<path d="M46,41H2c-0.553,0-1,0.447-1,1s0.447,1,1,1h44c0.553,0,1-0.447,1-1S46.553,41,46,41z"/>
<path d="M11,5C9.895,5,9,5.895,9,7v26c0,1.105,0.895,2,2,2h8c1.105,0,2-0.895,2-2V7c0-1.105-0.895-2-2-2H11z"/>
<path d="M29,17c-1.105,0-2,0.895-2,2v14c0,1.105,0.895,2,2,2h8c1.105,0,2-0.895,2-2V19c0-1.105-0.895-2-2-2H29z"/>
</svg>
