<?xml version="1.0" encoding="utf-8"?>
<!-- Generator: Adobe Illustrator 19.2.1, SVG Export Plug-In . SVG Version: 6.00 Build 0)  -->
<!DOCTYPE svg PUBLIC "-//W3C//DTD SVG 1.1//EN" "http://www.w3.org/Graphics/SVG/1.1/DTD/svg11.dtd">
<svg version="1.1" id="Layer_1" xmlns="http://www.w3.org/2000/svg" xmlns:xlink="http://www.w3.org/1999/xlink" x="0px" y="0px"
	 width="48px" height="48px" viewBox="0 0 48 48" enable-background="new 0 0 48 48" xml:space="preserve">
<path d="M32,47h9c1.105,0,2-0.895,2-2v-7.61c0-0.289-0.127-0.56-0.343-0.754C39.062,33.406,37,28.802,37,24
	c0-4.801,2.062-9.406,5.658-12.636C42.873,11.171,43,10.899,43,10.61V3c0-1.105-0.895-2-2-2H7C5.895,1,5,1.895,5,3v7.61
	c0,0.289,0.127,0.56,0.343,0.754C8.938,14.594,11,19.199,11,24c0,4.802-2.062,9.406-5.657,12.636C5.127,36.829,5,37.1,5,37.39V45
	c0,1.105,0.895,2,2,2h9c0.552,0,1-0.448,1-1V24.293c0-3.833,2.954-7.175,6.785-7.29C27.749,16.884,31,20.062,31,24v22
	C31,46.552,31.448,47,32,47z"/>
<circle cx="25.5" cy="31.5" r="2.5"/>
</svg>
