<?xml version="1.0" encoding="utf-8"?>
<!-- Generator: Adobe Illustrator 19.2.1, SVG Export Plug-In . SVG Version: 6.00 Build 0)  -->
<!DOCTYPE svg PUBLIC "-//W3C//DTD SVG 1.1//EN" "http://www.w3.org/Graphics/SVG/1.1/DTD/svg11.dtd">
<svg version="1.1" id="Layer_1" xmlns="http://www.w3.org/2000/svg" xmlns:xlink="http://www.w3.org/1999/xlink" x="0px" y="0px"
	 width="48px" height="48px" viewBox="0 0 48 48" enable-background="new 0 0 48 48" xml:space="preserve">
<path d="M4,22v23c0,1.105,0.895,2,2,2h20c1.105,0,2-0.895,2-2V22c0-4.418-3.582-8-8-8h-8C7.582,14,4,17.582,4,22z"/>
<path d="M21,7c0-0.552-0.448-1-1-1h-8c-0.552,0-1,0.448-1,1v5h10V7z"/>
<path d="M44,12c0-0.552-0.448-1-1-1h-6c-0.552,0-1,0.448-1,1s0.448,1,1,1h6C43.552,13,44,12.552,44,12z"/>
<path d="M35.071,6.343L39.314,2.1c0.391-0.39,0.391-1.024,0-1.414s-1.024-0.391-1.414,0l-4.243,4.243
	c-0.391,0.391-0.391,1.024,0,1.414S34.681,6.734,35.071,6.343z"/>
<path d="M33.657,19.071l4.243,4.243c0.391,0.39,1.024,0.39,1.414,0c0.391-0.391,0.391-1.024,0-1.414l-4.243-4.243
	c-0.391-0.391-1.024-0.391-1.414,0S33.266,18.681,33.657,19.071z"/>
</svg>
