<svg xmlns="http://www.w3.org/2000/svg" xmlns:xlink="http://www.w3.org/1999/xlink" x="0px" y="0px" width="48px" height="48px" viewBox="0 0 48 48"><g >
<path fill="#87613E" d="M32,13c-0.553,0-1-0.447-1-1V7H17v5c0,0.553-0.447,1-1,1s-1-0.447-1-1V6c0-0.553,0.447-1,1-1h16
	c0.553,0,1,0.447,1,1v6C33,12.553,32.553,13,32,13z"/>
<path fill="#87613E" d="M44,47H4c-0.553,0-1-0.447-1-1V32.925c0-0.553,0.447-1,1-1h40c0.553,0,1,0.447,1,1V46
	C45,46.553,44.553,47,44,47z"/>
<path fill="#A67C52" d="M45,36H3c-1.105,0-2-0.895-2-2V13c0-1.105,0.895-2,2-2h42c1.105,0,2,0.895,2,2v21C47,35.105,46.105,36,45,36
	z"/>
<path fill="#5E4027" d="M15,39h-2c-0.552,0-1-0.448-1-1v-9h4v9C16,38.552,15.552,39,15,39z"/>
<path fill="#5E4027" d="M35,39h-2c-0.552,0-1-0.448-1-1v-9h4v9C36,38.552,35.552,39,35,39z"/>
<path fill="#EFD358" d="M17,30h-6c-0.552,0-1-0.448-1-1v-4c0-0.552,0.448-1,1-1h6c0.552,0,1,0.448,1,1v4C18,29.552,17.552,30,17,30z
	"/>
<path fill="#EFD358" d="M37,30h-6c-0.552,0-1-0.448-1-1v-4c0-0.552,0.448-1,1-1h6c0.552,0,1,0.448,1,1v4C38,29.552,37.552,30,37,30z
	"/>
</g></svg>