<svg xmlns="http://www.w3.org/2000/svg" xmlns:xlink="http://www.w3.org/1999/xlink" x="0px" y="0px" width="48px" height="48px" viewBox="0 0 48 48"><g >
<path fill="#EA9860" d="M24,47C11.318,47,1,36.683,1,24S11.318,1,24,1s23,10.317,23,23S36.682,47,24,47z"/>
<rect x="23" y="1" fill="#444444" width="2" height="46"/>
<rect x="1" y="23" fill="#444444" width="46" height="2"/>
<path fill="#444444" d="M15,24c0-6.468-2.688-12.317-7-16.5C7.52,7.966,7.061,8.452,6.623,8.958C10.549,12.776,13,18.104,13,24
	s-2.451,11.224-6.377,15.042C7.061,39.548,7.52,40.034,8,40.5C12.312,36.317,15,30.468,15,24z"/>
<path fill="#444444" d="M41.377,39.042C37.451,35.224,35,29.896,35,24s2.451-11.224,6.377-15.042C40.939,8.452,40.48,7.966,40,7.5
	c-4.312,4.183-7,10.032-7,16.5s2.688,12.317,7,16.5C40.48,40.034,40.939,39.548,41.377,39.042z"/>
</g></svg>