<svg xmlns="http://www.w3.org/2000/svg" xmlns:xlink="http://www.w3.org/1999/xlink" x="0px" y="0px" width="48px" height="48px" viewBox="0 0 48 48"><g >
<path fill="#EAD8C5" d="M38,47H8c-1.105,0-2-0.895-2-2V3c0-1.105,0.895-2,2-2h30c2.209,0,4,1.791,4,4v38C42,45.209,40.209,47,38,47z
	"/>
<polygon fill="#E86C60" points="22,1 14,1 14,14 18,12 22,14 "/>
<rect x="6" y="23" fill="#C6A279" width="36" height="15"/>
<rect x="34" y="1" fill="#636363" width="3" height="46"/>
<path fill="#A67C52" d="M27,29H11c-0.553,0-1-0.447-1-1s0.447-1,1-1h16c0.553,0,1,0.447,1,1S27.553,29,27,29z"/>
<path fill="#A67C52" d="M19,34h-8c-0.553,0-1-0.447-1-1s0.447-1,1-1h8c0.553,0,1,0.447,1,1S19.553,34,19,34z"/>
</g></svg>