<svg xmlns="http://www.w3.org/2000/svg" xmlns:xlink="http://www.w3.org/1999/xlink" x="0px" y="0px" width="48px" height="48px" viewBox="0 0 48 48"><g >
<path fill="#E6E6E6" d="M36,1H6c2.761,0,5,2.239,5,5v36c0,2.761,2.239,5,5,5h25V6C41,3.239,38.761,1,36,1z"/>
<path fill="#B3B3B3" d="M34,12H18c-0.552,0-1-0.448-1-1s0.448-1,1-1h16c0.552,0,1,0.448,1,1S34.552,12,34,12z"/>
<path fill="#B3B3B3" d="M34,20H18c-0.552,0-1-0.448-1-1s0.448-1,1-1h16c0.552,0,1,0.448,1,1S34.552,20,34,20z"/>
<path fill="#B3B3B3" d="M34,28H18c-0.552,0-1-0.448-1-1s0.448-1,1-1h16c0.552,0,1,0.448,1,1S34.552,28,34,28z"/>
<path fill="#B3B3B3" d="M25,36h-7c-0.552,0-1-0.448-1-1s0.448-1,1-1h7c0.552,0,1,0.448,1,1S25.552,36,25,36z"/>
<path fill="#B3B3B3" d="M6,1C3.239,1,1,3.239,1,6h10C11,3.239,8.761,1,6,1z"/>
<path fill="#B3B3B3" d="M21,42c0,2.761-2.239,5-5,5h26c2.761,0,5-2.239,5-5H21z"/>
<polygon fill="#E86C60" points="41,23 33,23 33,36 37,34 41,36 "/>
<path fill="#EFD358" d="M37,25c-4.962,0-9-4.038-9-9s4.038-9,9-9s9,4.038,9,9S41.962,25,37,25z"/>
<path fill="#C19A3A" d="M37,9c-3.86,0-7,3.14-7,7s3.14,7,7,7s7-3.14,7-7S40.86,9,37,9z M37,21c-2.757,0-5-2.243-5-5s2.243-5,5-5
	s5,2.243,5,5S39.757,21,37,21z"/>
</g></svg>