<svg xmlns="http://www.w3.org/2000/svg" xmlns:xlink="http://www.w3.org/1999/xlink" x="0px" y="0px" width="48px" height="48px" viewBox="0 0 48 48"><g >
<path fill="#EAD8C5" d="M6.009,43c-0.326,0-0.654-0.039-0.979-0.12l-4.272-1.069C0.312,41.699,0,41.3,0,40.841V2
	c0-0.553,0.447-1,1-1h2c3.859,0,7,3.141,7,7v5.586l5.209,5.209c0.774,0.774,1.062,1.866,0.771,2.922
	c-0.293,1.055-1.102,1.843-2.163,2.109L10,24.78V29c0,0.407-0.247,0.774-0.625,0.927l-2.672,1.082
	c-0.568,0.229-0.622,0.753-0.625,0.907s0.031,0.68,0.587,0.931l2.747,1.242C9.771,34.251,10,34.607,10,35v3.998
	c0,1.24-0.561,2.39-1.538,3.152C7.748,42.708,6.889,43,6.009,43z"/>
<path fill="#E6E6E6" d="M42,33H16c-0.379,0-0.725-0.214-0.895-0.553c-0.169-0.339-0.133-0.744,0.095-1.047l5.8-7.733V12
	c0-2.757,2.243-5,5-5h16c2.757,0,5,2.243,5,5v16C47,30.757,44.757,33,42,33z"/>
<path fill="#B3B3B3" d="M40,17H28c-0.553,0-1-0.447-1-1s0.447-1,1-1h12c0.553,0,1,0.447,1,1S40.553,17,40,17z"/>
<path fill="#B3B3B3" d="M34,25h-6c-0.553,0-1-0.447-1-1s0.447-1,1-1h6c0.553,0,1,0.447,1,1S34.553,25,34,25z"/>
</g></svg>