<svg xmlns="http://www.w3.org/2000/svg" xmlns:xlink="http://www.w3.org/1999/xlink" x="0px" y="0px" width="48px" height="48px" viewBox="0 0 48 48"><g >
<path fill="#E86C60" d="M2,7C1.448,7,1,7.448,1,8v10c0,0.552,0.448,1,1,1h36c0.552,0,1-0.448,1-1V8c0-0.552-0.448-1-1-1H2z"/>
<path fill="#C64B4B" d="M16,14h-6c-0.553,0-1-0.448-1-1s0.447-1,1-1h6c0.553,0,1,0.448,1,1S16.553,14,16,14z"/>
<path fill="#C64B4B" d="M23,14h-2c-0.553,0-1-0.448-1-1s0.447-1,1-1h2c0.553,0,1,0.448,1,1S23.553,14,23,14z"/>
<path fill="#9BCED3" d="M2,31c-0.552,0-1,0.448-1,1v10c0,0.552,0.448,1,1,1h36c0.552,0,1-0.448,1-1V32c0-0.552-0.448-1-1-1H2z"/>
<path fill="#76B5B5" d="M16,38h-6c-0.553,0-1-0.448-1-1s0.447-1,1-1h6c0.553,0,1,0.448,1,1S16.553,38,16,38z"/>
<path fill="#76B5B5" d="M23,38h-2c-0.553,0-1-0.448-1-1s0.447-1,1-1h2c0.553,0,1,0.448,1,1S23.553,38,23,38z"/>
<path fill="#DDBE99" d="M9,20v10c0,0.552,0.448,1,1,1h36c0.552,0,1-0.448,1-1V20c0-0.552-0.448-1-1-1H10C9.448,19,9,19.448,9,20z"/>
<path fill="#C6A279" d="M24,26h-6c-0.553,0-1-0.448-1-1s0.447-1,1-1h6c0.553,0,1,0.448,1,1S24.553,26,24,26z"/>
<path fill="#C6A279" d="M31,26h-2c-0.553,0-1-0.448-1-1s0.447-1,1-1h2c0.553,0,1,0.448,1,1S31.553,26,31,26z"/>
</g></svg>