<svg xmlns="http://www.w3.org/2000/svg" xmlns:xlink="http://www.w3.org/1999/xlink" x="0px" y="0px" width="48px" height="48px" viewBox="0 0 48 48"><g >
<path fill="#B3B3B3" d="M26,3h-4c-0.553,0-1,0.448-1,1v4c0,0.552,0.447,1,1,1h4c0.553,0,1-0.448,1-1V4C27,3.448,26.553,3,26,3z"/>
<path fill="#E6E6E6" d="M42,7H6C5.447,7,5,7.448,5,8v28c0,0.552,0.447,1,1,1s1-0.448,1-1h34c0,0.552,0.447,1,1,1s1-0.448,1-1V8
	C43,7.448,42.553,7,42,7z"/>
<path fill="#B3B3B3" d="M24,45c-0.553,0-1-0.448-1-1v-8c0-0.552,0.447-1,1-1s1,0.448,1,1v8C25,44.552,24.553,45,24,45z"/>
<path fill="#B3B3B3" d="M11.999,47c-0.219,0-0.439-0.072-0.624-0.219c-0.431-0.345-0.501-0.974-0.156-1.405l8-10
	c0.347-0.43,0.975-0.501,1.406-0.156c0.431,0.345,0.501,0.974,0.156,1.405l-8,10C12.583,46.872,12.293,47,11.999,47z"/>
<path fill="#B3B3B3" d="M36.001,47c-0.294,0-0.584-0.128-0.782-0.375l-8-10c-0.345-0.431-0.274-1.061,0.156-1.405
	c0.433-0.346,1.061-0.274,1.406,0.156l8,10c0.345,0.431,0.274,1.061-0.156,1.405C36.44,46.928,36.22,47,36.001,47z"/>
<path fill="#898989" d="M46,37H2c-0.553,0-1-0.448-1-1s0.447-1,1-1h44c0.553,0,1,0.448,1,1S46.553,37,46,37z"/>
<path fill="#C6A279" d="M30,19c-0.256,0-0.512-0.098-0.707-0.293c-0.391-0.391-0.391-1.023,0-1.414l16-16
	c0.391-0.391,1.023-0.391,1.414,0s0.391,1.023,0,1.414l-16,16C30.512,18.902,30.256,19,30,19z"/>
<path fill="#B3B3B3" d="M22,19h-8c-0.552,0-1-0.447-1-1s0.448-1,1-1h8c0.552,0,1,0.447,1,1S22.552,19,22,19z"/>
<path fill="#B3B3B3" d="M34,27H14c-0.552,0-1-0.447-1-1s0.448-1,1-1h20c0.552,0,1,0.447,1,1S34.552,27,34,27z"/>
</g></svg>