<svg xmlns="http://www.w3.org/2000/svg" xmlns:xlink="http://www.w3.org/1999/xlink" x="0px" y="0px" width="48px" height="48px" viewBox="0 0 48 48"><g >
<path fill="#E6E6E6" d="M38,47H2c-0.553,0-1-0.447-1-1V2c0-0.553,0.447-1,1-1h36c0.553,0,1,0.447,1,1v44C39,46.553,38.553,47,38,47z
	"/>
<path fill="#B3B3B3" d="M22.005,15H10c-0.553,0-1-0.447-1-1s0.447-1,1-1h12.005c0.553,0,1,0.447,1,1S22.558,15,22.005,15z"/>
<path fill="#B3B3B3" d="M20.833,25H10c-0.553,0-1-0.447-1-1s0.447-1,1-1h10.833c0.553,0,1,0.447,1,1S21.386,25,20.833,25z"/>
<path fill="#B3B3B3" d="M30,35H10c-0.553,0-1-0.447-1-1s0.447-1,1-1h20c0.553,0,1,0.447,1,1S30.553,35,30,35z"/>
<path fill="#C6A279" d="M46,35c-0.256,0-0.512-0.098-0.707-0.293l-8-8c-0.391-0.391-0.391-1.023,0-1.414s1.023-0.391,1.414,0l8,8
	c0.391,0.391,0.391,1.023,0,1.414C46.512,34.902,46.256,35,46,35z"/>
<path fill="#5B5B5B" d="M30,31c-6.065,0-11-4.935-11-11S23.935,9,30,9s11,4.935,11,11S36.065,31,30,31z"/>
<path fill="#BFDEE0" d="M30,11c-4.632,0-8.443,3.501-8.941,8H28c1.104,0,2,0.896,2,2s-0.896,2-2,2h-6.477
	c1.237,3.493,4.56,6,8.477,6c4.971,0,9-4.029,9-9C39,15.029,34.971,11,30,11z"/>
<path fill="#76B5B5" d="M30,21c0-1.104-0.896-2-2-2h-6.941C21.022,19.329,21,19.662,21,20c0,1.054,0.19,2.06,0.523,3H28
	C29.104,23,30,22.104,30,21z"/>
</g></svg>