<svg xmlns="http://www.w3.org/2000/svg" xmlns:xlink="http://www.w3.org/1999/xlink" x="0px" y="0px" width="48px" height="48px" viewBox="0 0 48 48"><g >
<path fill="#BFDEE0" d="M15,17v18v3c0,4.962,4.038,9,9,9s9-4.038,9-9V7H15V17z"/>
<path fill="#76B5B5" d="M23,18c0-0.552-0.448-1-1-1h-7v2h7C22.552,19,23,18.552,23,18z"/>
<path fill="#76B5B5" d="M21,26c0-0.552-0.448-1-1-1h-5v2h5C20.552,27,21,26.552,21,26z"/>
<path fill="#76B5B5" d="M23,34c0-0.552-0.448-1-1-1h-7v2h7C22.552,35,23,34.552,23,34z"/>
<path fill="#9BCED3" d="M36,7H12c-0.552,0-1-0.448-1-1V2c0-0.552,0.448-1,1-1h24c0.552,0,1,0.448,1,1v4C37,6.552,36.552,7,36,7z"/>
</g></svg>