<svg xmlns="http://www.w3.org/2000/svg" xmlns:xlink="http://www.w3.org/1999/xlink" x="0px" y="0px" width="48px" height="48px" viewBox="0 0 48 48"><g >
<path fill="#A67C52" d="M24,45c-0.088,0-0.177-0.012-0.263-0.035l-22-6C1.302,38.846,1,38.451,1,38V4
	c0-0.312,0.146-0.605,0.393-0.795c0.248-0.188,0.569-0.251,0.87-0.17L24,8.963l21.737-5.928c0.302-0.081,0.623-0.019,0.87,0.17
	C46.854,3.395,47,3.688,47,4v34c0,0.451-0.302,0.846-0.737,0.965l-22,6C24.177,44.988,24.088,45,24,45z"/>
<polygon fill="#E6E6E6" points="3,37.236 3,5.309 24,11.037 45,5.309 45,37.236 24,42.963 "/>
<path fill="#B3B3B3" d="M18,35.072c-0.087,0-0.175-0.012-0.264-0.036l-8-2.182c-0.533-0.146-0.847-0.695-0.702-1.228
	c0.146-0.532,0.695-0.844,1.228-0.702l8,2.182c0.533,0.146,0.847,0.695,0.702,1.228C18.843,34.779,18.44,35.072,18,35.072z"/>
<path fill="#B3B3B3" d="M18,17.656c-0.087,0-0.175-0.012-0.264-0.036l-8-2.182c-0.533-0.146-0.847-0.695-0.702-1.228
	c0.146-0.532,0.695-0.844,1.228-0.702l8,2.182c0.533,0.146,0.847,0.695,0.702,1.228C18.843,17.363,18.44,17.656,18,17.656z"/>
<path fill="#B3B3B3" d="M18,26.091c-0.087,0-0.175-0.012-0.264-0.036l-8-2.182c-0.533-0.146-0.847-0.695-0.702-1.228
	c0.146-0.532,0.695-0.844,1.228-0.702l8,2.182c0.533,0.146,0.847,0.695,0.702,1.228C18.843,25.799,18.44,26.091,18,26.091z"/>
<path fill="#B3B3B3" d="M30,35.072c-0.44,0-0.843-0.292-0.964-0.737c-0.145-0.533,0.169-1.083,0.702-1.228l8-2.182
	c0.535-0.146,1.082,0.169,1.228,0.702c0.145,0.533-0.169,1.083-0.702,1.228l-8,2.182C30.175,35.06,30.086,35.072,30,35.072z"/>
<path fill="#B3B3B3" d="M30,17.656c-0.44,0-0.843-0.292-0.964-0.737c-0.145-0.533,0.169-1.083,0.702-1.228l8-2.182
	c0.535-0.145,1.082,0.169,1.228,0.702c0.145,0.533-0.169,1.083-0.702,1.228l-8,2.182C30.175,17.644,30.086,17.656,30,17.656z"/>
<path fill="#B3B3B3" d="M30,26.091c-0.44,0-0.843-0.292-0.964-0.737c-0.145-0.533,0.169-1.083,0.702-1.228l8-2.182
	c0.535-0.145,1.082,0.169,1.228,0.702c0.145,0.533-0.169,1.083-0.702,1.228l-8,2.182C30.175,26.08,30.086,26.091,30,26.091z"/>
<path fill="#B3B3B3" d="M24,43L24,43c-0.552,0-1-0.448-1-1V12c0-0.552,0.448-1,1-1h0c0.552,0,1,0.448,1,1v30
	C25,42.552,24.552,43,24,43z"/>
</g></svg>