<svg xmlns="http://www.w3.org/2000/svg" xmlns:xlink="http://www.w3.org/1999/xlink" x="0px" y="0px" width="48px" height="48px" viewBox="0 0 48 48"><g >
<path fill="#E86C60" d="M30,22h-7c-3.86,0-7-3.141-7-7s3.14-7,7-7h7c1.104,0,2,0.896,2,2v10C32,21.104,31.104,22,30,22z M23,12
	c-1.654,0-3,1.346-3,3s1.346,3,3,3h5v-6H23z"/>
<path fill="#E86C60" d="M30,22c-1.104,0-2-0.896-2-2V8c0-1.103-0.897-2-2-2h-4c-1.104,0-2-0.896-2-2s0.896-2,2-2h4
	c3.309,0,6,2.691,6,6v12C32,21.104,31.104,22,30,22z"/>
<path fill="#72C472" d="M6,46c-1.104,0-2-0.896-2-2V22c0-1.104,0.896-2,2-2s2,0.896,2,2v22C8,45.104,7.104,46,6,46z"/>
<path fill="#72C472" d="M12,46H6c-1.104,0-2-0.896-2-2V32c0-1.104,0.896-2,2-2h6c4.411,0,8,3.589,8,8S16.411,46,12,46z M8,42h4
	c2.206,0,4-1.794,4-4s-1.794-4-4-4H8V42z"/>
<path fill="#43A6DD" d="M40,46h-4c-3.309,0-6-2.691-6-6v-6c0-3.309,2.691-6,6-6h4c2.134,0,4.124,1.147,5.194,2.995
	c0.554,0.956,0.228,2.18-0.728,2.733c-0.956,0.553-2.18,0.228-2.733-0.728C41.376,32.384,40.711,32,40,32h-4c-1.103,0-2,0.897-2,2v6
	c0,1.103,0.897,2,2,2h4c0.712,0,1.376-0.384,1.734-1.002c0.553-0.956,1.776-1.282,2.733-0.729c0.956,0.553,1.282,1.776,0.729,2.732
	C44.125,44.852,42.134,46,40,46z"/>
</g></svg>