<?xml version="1.0" encoding="utf-8"?>
<!-- Generator: Adobe Illustrator 19.2.1, SVG Export Plug-In . SVG Version: 6.00 Build 0)  -->
<!DOCTYPE svg PUBLIC "-//W3C//DTD SVG 1.1//EN" "http://www.w3.org/Graphics/SVG/1.1/DTD/svg11.dtd">
<svg version="1.1" id="Layer_1" xmlns="http://www.w3.org/2000/svg" xmlns:xlink="http://www.w3.org/1999/xlink" x="0px" y="0px"
	 width="16px" height="16px" viewBox="0 0 16 16" enable-background="new 0 0 16 16" xml:space="preserve">
<path d="M6.133,15.059c1.187,0.007,2.374-0.001,3.56,0.004c0.534,0.034,1.074-0.157,1.452-0.539c1.315-1.311,2.627-2.626,3.94-3.939
	c1.875-1.875,0.31-2.987,0.007-3.292c-1.831-1.831-3.66-3.662-5.491-5.492c-0.654-0.654-1.766-1.434-2.87-0.329
	C4.673,3.53,2.614,5.589,0.556,7.647c-0.954,0.954-0.455,2.115-0.021,2.541c1.451,1.452,2.903,2.902,4.354,4.354
	C5.213,14.873,5.669,15.065,6.133,15.059z M9.076,12.826C8.86,13.068,8.634,13.307,8.38,13.51c-0.233,0.056-0.48,0.043-0.716,0.009
	c-0.226-0.115-0.379-0.335-0.565-0.504c-0.132-0.129-0.339-0.322-0.168-0.507c0.287-0.319,0.594-0.623,0.911-0.913
	c0.118-0.099,0.295-0.05,0.39,0.058c0.271,0.262,0.539,0.529,0.801,0.802C9.136,12.546,9.193,12.72,9.076,12.826z M8.995,9.187
	c-0.771,0.77-1.544,1.539-2.311,2.314c-0.215,0.264-0.594,0.18-0.889,0.156c-0.284-0.183-0.505-0.454-0.734-0.7
	c-0.152-0.144-0.01-0.333,0.107-0.442C5.94,9.746,7.746,7.911,7.915,7.807c0.17-0.073,0.294,0.1,0.407,0.197
	c0.257,0.275,0.549,0.517,0.783,0.812C9.208,8.947,9.089,9.094,8.995,9.187z M3.896,9.78C3.63,9.566,3.386,9.319,3.171,9.054
	C3.046,8.908,3.205,8.755,3.304,8.652c1.354-1.348,4.401-4.426,4.605-4.577C8.084,3.987,8.22,4.177,8.337,4.278
	c0.248,0.265,0.53,0.5,0.758,0.784c0.118,0.14-0.011,0.303-0.114,0.404C7.59,6.852,6.2,8.239,4.815,9.631
	C4.592,9.897,4.198,9.827,3.896,9.78z"/>
</svg>
