<?xml version="1.0" encoding="utf-8"?>
<!-- Generator: Adobe Illustrator 19.2.1, SVG Export Plug-In . SVG Version: 6.00 Build 0)  -->
<!DOCTYPE svg PUBLIC "-//W3C//DTD SVG 1.1//EN" "http://www.w3.org/Graphics/SVG/1.1/DTD/svg11.dtd">
<svg version="1.1" id="Layer_1" xmlns="http://www.w3.org/2000/svg" xmlns:xlink="http://www.w3.org/1999/xlink" x="0px" y="0px"
	 width="16px" height="16px" viewBox="0 0 16 16" enable-background="new 0 0 16 16" xml:space="preserve">
<path d="M11.906,6.729c0.471-1.328,0.816-2.374,1.035-3.137c0.278-0.984,0.676-2.11,0-2.871c-0.24-0.282-0.57-0.424-0.988-0.424
	c-1.384,0-2.612,4.098-3.012,5.098L8.674,4.627C7.618,1.542,6.714,0,5.961,0C5.522,0,5.171,0.146,4.91,0.439
	c-0.67,0.754-0.287,2.013,0,2.98c0.22,0.742,0.58,1.83,1.082,3.263c-0.241-0.094-0.45-0.141-0.627-0.141
	c-0.702,0-1.631,0.912-1.631,1.647c0,0.199,0.084,0.507,0.251,0.925c-1.057,0.29-1.6,0.965-1.6,2.243
	c0,0.554,0.136,1.114,0.408,1.678C3.628,14.741,5.511,16,7.655,16c1.736,0,3.169-0.591,4.298-1.773
	c1.109-1.182,1.663-2.703,1.663-4.565c0-0.941-0.141-1.637-0.424-2.086C12.931,7.158,12.502,6.876,11.906,6.729z M10.792,3.373
	c0.251-0.753,0.476-1.281,0.674-1.584c0.334-0.53,0.627-0.48,0.722-0.314c0.281,0.362-0.138,1.43-0.282,1.898
	c-0.251,0.784-0.612,1.825-1.082,3.122L9.773,6.306L10.792,3.373z M5.898,3.184C5.647,2.421,5.522,1.861,5.522,1.506
	c0-0.229,0.118-0.486,0.345-0.486c0.136,0,0.272,0.11,0.408,0.329C6.442,1.6,6.672,2.144,6.965,2.98l1.082,3.137
	C7.744,6.09,7.17,6.023,6.933,6.165C6.473,4.92,6.128,3.927,5.898,3.184z M5.443,7.624c0.157,0,0.319,0.078,0.486,0.235
	c0.523,0.431,1.074,1.583,1.333,2.212c0.188,0.481,0.282,0.784,0.282,0.91c0,0.169-0.168,0.361-0.329,0.361
	c-0.125,0-0.314-0.105-0.565-0.314C6.1,10.543,5.375,9.583,5.067,8.988c-0.167-0.335-0.251-0.57-0.251-0.706
	C4.816,8.034,5.219,7.624,5.443,7.624z M11.184,13.443c-0.92,1.014-2.055,1.522-3.404,1.522c-1.416,0-2.622-0.517-3.545-1.71
	c-0.394-0.53-0.831-1.321-0.831-1.976c0-0.755,0.51-1.208,0.863-1.208c0.073,0,0.188,0.073,0.345,0.22
	c0.379,0.312,1.103,1.272,1.286,1.616c0.125,0.22,0.188,0.371,0.188,0.455c0,0.103-0.161,0.251-0.361,0.251
	c-0.356,0-0.753-0.309-1.192-0.925C4.439,11.561,4.261,11.336,4,11.012c-0.181,0.181-0.298,0.323-0.298,0.596
	c0,0.46,0.251,0.931,0.753,1.412c0.502,0.471,0.999,0.706,1.49,0.706c0.324,0,0.607-0.11,0.847-0.329s0.361-0.486,0.361-0.8
	c0-0.073-0.005-0.136-0.016-0.188c0.068,0,0.297,0.005,0.361-0.016c0.021,0.523,0.12,0.952,0.298,1.286
	c0.209,0.397,0.431,0.635,0.918,0.526c0.118-0.047,0.146-0.115,0.149-0.212c0-0.105-0.057-0.329-0.173-0.674
	c-0.105-0.314-0.157-0.58-0.157-0.8c0-0.366,0.12-0.753,0.361-1.161c0.251-0.418,0.586-0.779,1.004-1.082
	c0.5-0.383,1.243-0.443,1.694-0.894c-0.069-0.53-0.287-0.659-0.533-0.659H10.62c-1.203,0-2.065-0.11-2.588-0.329
	C7.55,8.214,7.31,7.911,7.31,7.482c0-0.354,0.189-0.408,0.549-0.408c0.931,0,1.809,0.094,2.635,0.282
	c0.826,0.178,1.38,0.387,1.663,0.627c0.391,0.335,0.392,1.121,0.392,1.647C12.549,11.169,12.094,12.439,11.184,13.443z M8.125,9.506
	c0.35,0.117,0.606,0.124,0.926,0.188C8.842,9.851,8.633,10.05,8.424,10.29C8.319,10.008,8.22,9.746,8.125,9.506z"/>
</svg>
