<?xml version="1.0" encoding="utf-8"?>
<!-- Generator: Adobe Illustrator 19.2.1, SVG Export Plug-In . SVG Version: 6.00 Build 0)  -->
<!DOCTYPE svg PUBLIC "-//W3C//DTD SVG 1.1//EN" "http://www.w3.org/Graphics/SVG/1.1/DTD/svg11.dtd">
<svg version="1.1" id="Layer_1" xmlns="http://www.w3.org/2000/svg" xmlns:xlink="http://www.w3.org/1999/xlink" x="0px" y="0px"
	 width="16px" height="16px" viewBox="0 0 16 16" enable-background="new 0 0 16 16" xml:space="preserve">
<path d="M10.09,16l4.944-1.07c0,0-1.736-11.734-1.747-11.815s-0.081-0.125-0.14-0.13c-0.058-0.005-1.288-0.096-1.288-0.096
	s-0.854-0.848-0.948-0.942c-0.094-0.094-0.277-0.065-0.348-0.044c-0.011,0.003-0.187,0.057-0.478,0.148
	c-0.285-0.821-0.62-1.58-1.75-1.573C8.085,0.145,7.773,0,7.504,0C5.44,0,4.454,2.58,4.145,3.89C3.344,4.139,2.774,4.315,2.701,4.338
	c-0.448,0.14-0.462,0.155-0.52,0.576C2.136,5.234,0.965,14.29,0.965,14.29L10.09,16z M9.582,2.207
	C9.353,2.278,9.093,2.358,8.81,2.446c0-0.054,0-0.108,0-0.167c0-0.51-0.071-0.921-0.184-1.247C9.083,1.09,9.387,1.609,9.582,2.207z
	 M8.269,2.613C7.767,2.769,7.221,2.938,6.674,3.107C6.981,1.922,7.557,1.35,8.06,1.134C8.337,2,8.269,2.584,8.269,2.613z
	 M7.447,0.554c0.089,0,0.179,0.03,0.265,0.089c-0.661,0.311-1.37,1.095-1.67,2.66c-0.438,0.135-0.865,0.268-1.261,0.39
	C5.132,2.499,5.965,0.554,7.447,0.554z M3.543,11.234c0,0,0.823,0.707,1.518,0.707c0.454,0,0.639-0.357,0.639-0.619
	c0-1.081-1.771-1.129-1.771-2.904c0-1.494,1.072-2.94,3.237-2.94c0.834,0,1.246,0.239,1.246,0.239l-0.61,1.813
	c0,0-0.534-0.285-1.189-0.285c-0.96,0-1.008,0.602-1.008,0.754c0,0.828,2.159,1.146,2.159,3.086c0,1.526-0.968,2.509-2.273,2.509
	c-1.567,0-2.367-0.975-2.367-0.975L3.543,11.234z"/>
</svg>
