<?xml version="1.0" encoding="utf-8"?>
<!-- Generator: Adobe Illustrator 19.2.1, SVG Export Plug-In . SVG Version: 6.00 Build 0)  -->
<!DOCTYPE svg PUBLIC "-//W3C//DTD SVG 1.1//EN" "http://www.w3.org/Graphics/SVG/1.1/DTD/svg11.dtd">
<svg version="1.1" id="Layer_1" xmlns="http://www.w3.org/2000/svg" xmlns:xlink="http://www.w3.org/1999/xlink" x="0px" y="0px"
	 width="16px" height="16px" viewBox="0 0 16 16" enable-background="new 0 0 16 16" xml:space="preserve">
<path d="M15.61,3.458l-7.214-3.37c-0.251-0.117-0.541-0.117-0.792,0L0.39,3.458C0.174,3.559,0.175,3.868,0.392,3.967l7.27,3.345
	c0.215,0.099,0.463,0.099,0.678,0l7.27-3.345C15.825,3.868,15.826,3.559,15.61,3.458z"/>
<path d="M14.12,7.088c-0.216-0.101-0.465-0.102-0.682-0.002L8.339,9.432c-0.215,0.099-0.463,0.099-0.678,0L2.562,7.086
	c-0.217-0.1-0.466-0.099-0.682,0.002L0.39,7.784C0.174,7.885,0.175,8.193,0.392,8.293l7.27,3.345c0.215,0.099,0.463,0.099,0.678,0
	l7.27-3.345c0.217-0.1,0.218-0.408,0.001-0.509L14.12,7.088z"/>
<path d="M15.608,12.581c0.217-0.1,0.218-0.408,0.001-0.509l-1.49-0.696c-0.216-0.101-0.465-0.102-0.682-0.002L8.339,13.72
	c-0.215,0.099-0.463,0.099-0.678,0l-5.099-2.346c-0.217-0.1-0.466-0.099-0.682,0.002l-1.49,0.696
	c-0.216,0.101-0.216,0.409,0.001,0.509l7.27,3.345c0.215,0.099,0.463,0.099,0.678,0L15.608,12.581z"/>
</svg>
