<?xml version="1.0" encoding="utf-8"?>
<!-- Generator: Adobe Illustrator 19.2.1, SVG Export Plug-In . SVG Version: 6.00 Build 0)  -->
<!DOCTYPE svg PUBLIC "-//W3C//DTD SVG 1.1//EN" "http://www.w3.org/Graphics/SVG/1.1/DTD/svg11.dtd">
<svg version="1.1" id="Layer_1" xmlns="http://www.w3.org/2000/svg" xmlns:xlink="http://www.w3.org/1999/xlink" x="0px" y="0px"
	 width="16px" height="16px" viewBox="0 0 16 16" enable-background="new 0 0 16 16" xml:space="preserve">
<path d="M2.008,5.019c1.429-0.04,2.033,4.877,2.833,7.318c0.645,1.722,1.434,2.582,2.367,2.582c1.505,0,3.346-1.414,5.521-4.24
	c2.104-2.707,3.192-4.839,3.263-6.396c0.095-2.084-0.68-3.15-2.325-3.198c-2.217-0.071-3.72,1.179-4.506,3.754
	c2.01-0.76,2.357,0.195,2.261,1.108C11.375,6.5,9.781,9.949,8.837,9.949c-1.009,0-1.522-4.146-1.832-6.112
	C6.717,2.016,5.95,1.157,4.706,1.284C3.516,1.406,0.79,4.109,0,4.803l0.752,0.969C1.47,5.271,1.888,5.019,2.008,5.019z"/>
</svg>
