<?xml version="1.0" encoding="utf-8"?>
<!-- Generator: Adobe Illustrator 19.2.1, SVG Export Plug-In . SVG Version: 6.00 Build 0)  -->
<!DOCTYPE svg PUBLIC "-//W3C//DTD SVG 1.1//EN" "http://www.w3.org/Graphics/SVG/1.1/DTD/svg11.dtd">
<svg version="1.1" id="Layer_1" xmlns="http://www.w3.org/2000/svg" xmlns:xlink="http://www.w3.org/1999/xlink" x="0px" y="0px"
	 width="16px" height="16px" viewBox="0 0 16 16" enable-background="new 0 0 16 16" xml:space="preserve">
<path d="M7.902,6.868l0.971,0.967c0.09,0.101,0.188,0.152,0.301,0.155c0.155,0,0.324-0.092,0.502-0.274
	c0.419-0.428,0.209-0.658,0.108-0.77L8.801,5.963L9.826,4.93c0.225-0.243,0.026-0.502-0.172-0.7
	C9.367,3.942,9.089,3.868,8.912,4.032l-1.02,1.022L6.861,4.022c-0.055-0.052-0.124-0.08-0.199-0.08c-0.137,0-0.3,0.093-0.483,0.276
	c-0.317,0.317-0.385,0.536-0.22,0.711l1.032,1.028L5.964,6.985C5.879,7.069,5.837,7.16,5.838,7.254
	c0.002,0.186,0.172,0.35,0.274,0.447l0.032,0.031c0.175,0.172,0.341,0.259,0.494,0.259c0.127,0,0.205-0.06,0.233-0.086
	C6.949,7.834,7.819,6.952,7.902,6.868z"/>
<path d="M7.565,0.016C4.682,0.235,2.423,2.771,2.423,5.79v9.544c0,0.553,0.42,0.666,1.051,0.666c0.631,0,1.051-0.113,1.051-0.666
	V5.767c0-1.881,1.368-3.495,3.115-3.676c1.003-0.102,1.966,0.212,2.716,0.888c0.736,0.663,1.158,1.617,1.158,2.616
	c0,0.286-0.14,1.218-0.779,2.083c-0.484,0.653-1.4,1.432-3.024,1.432c-0.009,0-0.021,0-0.031,0c-0.417,0-0.773,0.02-0.841,1.007
	c-0.046,0.664-0.042,0.962,0.532,1.042c1.024,0.142,2.068-0.058,3.102-0.596c1.766-0.919,2.95-2.66,3.089-4.545
	c0.121-1.637-0.47-3.234-1.62-4.381C10.787,0.484,9.193-0.106,7.565,0.016z"/>
</svg>
