<?xml version="1.0" encoding="utf-8"?>
<!-- Generator: Adobe Illustrator 19.2.1, SVG Export Plug-In . SVG Version: 6.00 Build 0)  -->
<!DOCTYPE svg PUBLIC "-//W3C//DTD SVG 1.1//EN" "http://www.w3.org/Graphics/SVG/1.1/DTD/svg11.dtd">
<svg version="1.1" id="Layer_1" xmlns="http://www.w3.org/2000/svg" xmlns:xlink="http://www.w3.org/1999/xlink" x="0px" y="0px"
	 width="16px" height="16px" viewBox="0 0 16 16" enable-background="new 0 0 16 16" xml:space="preserve">
<path d="M14.456,6.629c0.361-0.802,0.558-1.84,0.558-2.751c0-2.451-1.25-3.877-3.541-3.877C9.117,0,7.739,1.811,7.739,4.198
	c0,2.365,1.106,4.395,2.929,5.32c-0.767,1.534-1.742,2.884-2.759,3.902C6.063,11.189,4.394,8.212,3.71,2.403H0.987
	c1.258,9.674,5.007,12.755,5.999,13.346c0.561,0.336,1.044,0.32,1.556,0.032c0.805-0.458,3.222-2.874,4.561-5.705
	c0.562-0.002,1.238-0.066,1.911-0.218V7.954c-0.412,0.095-0.811,0.137-1.17,0.137c-2.019,0-3.573-1.41-3.573-3.861
	c0-1.202,0.465-1.826,1.122-1.826c0.625,0,1.042,0.561,1.042,1.698c0,0.647-0.173,1.356-0.301,1.775
	C12.133,5.877,12.755,6.962,14.456,6.629z"/>
</svg>
