<?xml version="1.0" encoding="utf-8"?>
<!-- Generator: Adobe Illustrator 19.2.1, SVG Export Plug-In . SVG Version: 6.00 Build 0)  -->
<!DOCTYPE svg PUBLIC "-//W3C//DTD SVG 1.1//EN" "http://www.w3.org/Graphics/SVG/1.1/DTD/svg11.dtd">
<svg version="1.1" id="Layer_1" xmlns="http://www.w3.org/2000/svg" xmlns:xlink="http://www.w3.org/1999/xlink" x="0px" y="0px"
	 width="16px" height="16px" viewBox="0 0 16 16" enable-background="new 0 0 16 16" xml:space="preserve">
<polygon points="8.724,6.613 8.724,6.613 6.586,7.329 7.276,9.387 9.413,8.671 8.724,6.613 "/>
<path d="M15.33,5.801c-1.649-5.498-4.032-6.781-9.53-5.131C0.303,2.319-0.98,4.701,0.67,10.199c1.649,5.498,4.032,6.781,9.53,5.131
	S16.98,11.299,15.33,5.801z M12.55,9.37l-1.037,0.347l0.359,1.073c0.145,0.434-0.089,0.904-0.523,1.05
	c-0.094,0.032-0.755,0.192-1.05-0.523L9.94,10.244L7.802,10.96l0.359,1.073c0.145,0.434-0.089,0.904-0.523,1.05
	c-0.094,0.032-0.779,0.152-1.05-0.523L6.23,11.486l-1.037,0.347C4.609,12,4.257,11.65,4.143,11.311
	c-0.146-0.434,0.089-0.904,0.523-1.05l1.037-0.347L5.014,7.856L3.977,8.203C3.453,8.359,3.041,8.02,2.927,7.68
	C2.782,7.246,3.016,6.776,3.45,6.63l1.036-0.347L4.128,5.21c-0.146-0.434,0.089-0.904,0.523-1.05C5.085,4.015,5.555,4.249,5.7,4.684
	L6.06,5.756L8.198,5.04L7.838,3.968c-0.145-0.434,0.089-0.904,0.523-1.05c0.434-0.145,0.904,0.089,1.05,0.523L9.77,4.514
	l1.037-0.347c0.435-0.145,0.904,0.089,1.05,0.523c0.146,0.434-0.089,0.904-0.523,1.05l-1.037,0.347l0.689,2.058l1.037-0.347
	c0.434-0.145,0.904,0.089,1.05,0.523C13.218,8.754,12.984,9.224,12.55,9.37z"/>
</svg>
