<?xml version="1.0" encoding="utf-8"?>
<!-- Generator: Adobe Illustrator 19.2.1, SVG Export Plug-In . SVG Version: 6.00 Build 0)  -->
<!DOCTYPE svg PUBLIC "-//W3C//DTD SVG 1.1//EN" "http://www.w3.org/Graphics/SVG/1.1/DTD/svg11.dtd">
<svg version="1.1" id="Layer_1" xmlns="http://www.w3.org/2000/svg" xmlns:xlink="http://www.w3.org/1999/xlink" x="0px" y="0px"
	 width="16px" height="16px" viewBox="0 0 16 16" enable-background="new 0 0 16 16" xml:space="preserve">
<circle cx="12.145" cy="3.892" r="0.96"/>
<path d="M8,4C5.794,4,4,5.794,4,8s1.794,4,4,4s4-1.794,4-4S10.206,4,8,4z M8,10c-1.103,0-2-0.897-2-2s0.897-2,2-2s2,0.897,2,2
	S9.103,10,8,10z"/>
<path d="M12,0H4C1.944,0,0,1.944,0,4v8c0,2.056,1.944,4,4,4h8c2.056,0,4-1.944,4-4V4C16,1.944,14.056,0,12,0z M14,12
	c0,0.935-1.065,2-2,2H4c-0.953,0-2-1.047-2-2V4c0-0.935,1.065-2,2-2h8c0.935,0,2,1.065,2,2V12z"/>
</svg>
