<?xml version="1.0" encoding="utf-8"?>
<!-- Generator: Adobe Illustrator 19.2.1, SVG Export Plug-In . SVG Version: 6.00 Build 0)  -->
<!DOCTYPE svg PUBLIC "-//W3C//DTD SVG 1.1//EN" "http://www.w3.org/Graphics/SVG/1.1/DTD/svg11.dtd">
<svg version="1.1" id="Layer_1" xmlns="http://www.w3.org/2000/svg" xmlns:xlink="http://www.w3.org/1999/xlink" x="0px" y="0px"
	 width="16px" height="16px" viewBox="0 0 16 16" enable-background="new 0 0 16 16" xml:space="preserve">
<path d="M0.232,8.136c-0.035,0-0.064,0.028-0.069,0.067L0,9.691l0.163,1.455c0.005,0.039,0.034,0.067,0.069,0.067
	c0.035,0,0.063-0.027,0.069-0.067l0.185-1.455L0.301,8.203C0.295,8.163,0.267,8.136,0.232,8.136z"/>
<path d="M2.255,6.83c-0.067,0-0.122,0.055-0.125,0.124L2,9.692l0.13,1.769c0.003,0.069,0.058,0.124,0.125,0.124
	c0.066,0,0.122-0.055,0.125-0.124v0.001l0.147-1.769L2.38,6.955C2.377,6.885,2.321,6.83,2.255,6.83z"/>
<path d="M6.29,5.275c-0.114,0-0.208,0.094-0.21,0.21L6,9.693c0,0.003,0.079,1.692,0.079,1.692c0.002,0.114,0.096,0.208,0.21,0.208
	s0.208-0.094,0.21-0.209l0.089-1.69L6.5,5.485C6.498,5.369,6.404,5.275,6.29,5.275z"/>
<path d="M4.278,5.841c-0.1,0-0.18,0.079-0.182,0.181L4,9.693l0.096,1.713c0.002,0.101,0.082,0.18,0.182,0.18
	c0.099,0,0.179-0.08,0.182-0.181v0.001l0.108-1.713L4.46,6.022C4.457,5.921,4.377,5.841,4.278,5.841z"/>
<path d="M13.962,7.521c-0.279,0-0.546,0.056-0.788,0.158c-0.162-1.837-1.702-3.277-3.581-3.277c-0.46,0-0.908,0.091-1.304,0.244
	c-0.154,0.06-0.195,0.121-0.196,0.24v6.468c0.002,0.125,0.098,0.229,0.22,0.241c0.005,0.001,5.613,0.003,5.649,0.003
	c1.125,0,2.038-0.912,2.038-2.038S15.088,7.521,13.962,7.521z"/>
</svg>
