<?xml version="1.0" encoding="utf-8"?>
<!-- Generator: Adobe Illustrator 19.2.1, SVG Export Plug-In . SVG Version: 6.00 Build 0)  -->
<!DOCTYPE svg PUBLIC "-//W3C//DTD SVG 1.1//EN" "http://www.w3.org/Graphics/SVG/1.1/DTD/svg11.dtd">
<svg version="1.1" id="Layer_1" xmlns="http://www.w3.org/2000/svg" xmlns:xlink="http://www.w3.org/1999/xlink" x="0px" y="0px"
	 width="16px" height="16px" viewBox="0 0 16 16" enable-background="new 0 0 16 16" xml:space="preserve">
<path d="M4.119,11.872c-2.376,0-3.362-2.042-3.362-3.925c0-1.883,1.25-3.784,3.397-3.784c2.147,0,2.57,2.095,2.57,2.095h0.739
	c0,0-0.563-2.799-3.292-2.799S0,5.659,0,7.93s1.285,4.612,3.996,4.612s3.608-2.499,3.608-3.432H6.812
	C6.812,9.109,6.495,11.872,4.119,11.872z"/>
<path d="M14.328,7.701c1.091-0.334,1.303-1.085,1.303-1.831c0-0.78-0.387-2.147-1.954-2.147c-1.567,0-4.788,0-4.788,0v8.572
	c0,0,3.749,0,4.84,0S16,11.186,16,9.954C16,8.892,15.501,7.965,14.328,7.701z M10.385,4.937h2.587c0.638,0,1.156,0.518,1.156,1.156
	s-0.518,1.156-1.156,1.156h-2.587V4.937z M13.154,11.098h-2.769V8.422h2.769c0.739,0,1.338,0.599,1.338,1.338
	C14.492,10.499,13.893,11.098,13.154,11.098z"/>
</svg>
