<?xml version="1.0" encoding="utf-8"?>
<!-- Generator: Adobe Illustrator 19.2.1, SVG Export Plug-In . SVG Version: 6.00 Build 0)  -->
<!DOCTYPE svg PUBLIC "-//W3C//DTD SVG 1.1//EN" "http://www.w3.org/Graphics/SVG/1.1/DTD/svg11.dtd">
<svg version="1.1" id="Layer_1" xmlns="http://www.w3.org/2000/svg" xmlns:xlink="http://www.w3.org/1999/xlink" x="0px" y="0px"
	 width="16px" height="16px" viewBox="0 0 16 16" enable-background="new 0 0 16 16" xml:space="preserve">
<path d="M8.1,15c4,0,6.7-2.8,6.7-6.8c0-0.5,0-0.8-0.1-1.2H8v2.4h4.1c-0.2,1-1.2,3-4,3c-2.4,0-4.3-2-4.3-4.4c0-2.4,2-4.4,4.3-4.4
	c1.4,0,2.3,0.6,2.8,1.1l1.9-1.8C11.6,1.7,10,1,8.1,1c-3.9,0-7,3.1-7,7C1.1,11.9,4.2,15,8.1,15z"/>
</svg>
