<?xml version="1.0" encoding="utf-8"?>
<!-- Generator: Adobe Illustrator 19.2.1, SVG Export Plug-In . SVG Version: 6.00 Build 0)  -->
<!DOCTYPE svg PUBLIC "-//W3C//DTD SVG 1.1//EN" "http://www.w3.org/Graphics/SVG/1.1/DTD/svg11.dtd">
<svg version="1.1" id="Layer_1" xmlns="http://www.w3.org/2000/svg" xmlns:xlink="http://www.w3.org/1999/xlink" x="0px" y="0px"
	 width="16px" height="16px" viewBox="0 0 16 16" enable-background="new 0 0 16 16" xml:space="preserve">
<path d="M15.333,0H0.667C0.298,0,0,0.298,0,0.667v14.667C0,15.702,0.298,16,0.667,16h14.667C15.702,16,16,15.702,16,15.333V0.667
	C16,0.298,15.702,0,15.333,0z M4.746,13.634H2.371V5.998h2.375V13.634z M3.559,4.955c-0.762,0-1.377-0.617-1.377-1.376
	c0-0.76,0.615-1.376,1.377-1.376c0.759,0,1.375,0.617,1.375,1.376C4.935,4.339,4.318,4.955,3.559,4.955z M13.634,13.634h-2.373
	V9.921c0-0.885-0.015-2.024-1.233-2.024c-1.235,0-1.423,0.965-1.423,1.961v3.776h-2.37V5.998H8.51v1.044h0.033
	c0.316-0.6,1.091-1.233,2.245-1.233c2.403,0,2.847,1.581,2.847,3.637V13.634z"/>
</svg>
