<?xml version="1.0" encoding="utf-8"?>
<!-- Generator: Adobe Illustrator 19.2.1, SVG Export Plug-In . SVG Version: 6.00 Build 0)  -->
<!DOCTYPE svg PUBLIC "-//W3C//DTD SVG 1.1//EN" "http://www.w3.org/Graphics/SVG/1.1/DTD/svg11.dtd">
<svg version="1.1" id="Layer_1" xmlns="http://www.w3.org/2000/svg" xmlns:xlink="http://www.w3.org/1999/xlink" x="0px" y="0px"
	 width="16px" height="16px" viewBox="0 0 16 16" enable-background="new 0 0 16 16" xml:space="preserve">
<path d="M0.667,16H8v-4.987H6v-3h2v-2c0-2.067,1.156-3,3-3c0.883,0,1.779-0.029,2,0v3h-1c-0.604,0-1,0.375-1,1v1h2.625l-0.625,3h-2
	V16h4.333C15.702,16,16,15.702,16,15.333V0.667C16,0.298,15.702,0,15.333,0H0.667C0.298,0,0,0.298,0,0.667v14.667
	C0,15.702,0.298,16,0.667,16z"/>
</svg>
