<?xml version="1.0" encoding="utf-8"?>
<!-- Generator: Adobe Illustrator 19.2.1, SVG Export Plug-In . SVG Version: 6.00 Build 0)  -->
<!DOCTYPE svg PUBLIC "-//W3C//DTD SVG 1.1//EN" "http://www.w3.org/Graphics/SVG/1.1/DTD/svg11.dtd">
<svg version="1.1" id="Layer_1" xmlns="http://www.w3.org/2000/svg" xmlns:xlink="http://www.w3.org/1999/xlink" x="0px" y="0px"
	 width="16px" height="16px" viewBox="0 0 16 16" enable-background="new 0 0 16 16" xml:space="preserve">
<path d="M4.509,15.199L0.693,4.744C0.249,5.739,0,6.84,0,8C0,11.166,1.84,13.903,4.509,15.199z"/>
<path d="M4.014,4.173c0,0-0.434,0.051-0.916,0.076l2.913,8.665l1.751-5.25L6.516,4.249C6.085,4.224,5.677,4.173,5.677,4.173
	C5.246,4.147,5.297,3.488,5.728,3.514c0,0,1.321,0.102,2.107,0.102c0.836,0,2.132-0.102,2.132-0.102
	c0.431-0.025,0.482,0.608,0.051,0.659c0,0-0.434,0.051-0.916,0.076l2.891,8.599l0.798-2.666C13.137,9.075,13.4,8.281,13.4,7.596
	c0-0.989-0.355-1.673-0.66-2.206c-0.405-0.659-0.786-1.217-0.786-1.876c0-0.735,0.558-1.42,1.343-1.42
	c0.036,0,0.069,0.004,0.104,0.006C11.979,0.796,10.083,0,8,0C5.205,0,2.746,1.434,1.316,3.606c0.188,0.006,2.647-0.092,2.647-0.092
	C4.394,3.488,4.445,4.122,4.014,4.173z"/>
<path d="M10.657,15.547c-0.021-0.034-0.041-0.071-0.057-0.11L8.141,8.699L5.74,15.674C6.457,15.885,7.215,16,8,16
	C8.932,16,9.825,15.839,10.657,15.547z"/>
<path d="M14.465,7.85l-2.443,7.065C14.4,13.528,16,10.951,16,8c0-1.391-0.355-2.698-0.98-3.838c0.034,0.255,0.054,0.528,0.054,0.823
	C15.074,5.796,14.922,6.708,14.465,7.85z"/>
</svg>
