<?xml version="1.0" encoding="utf-8"?>
<!-- Generator: Adobe Illustrator 19.2.1, SVG Export Plug-In . SVG Version: 6.00 Build 0)  -->
<!DOCTYPE svg PUBLIC "-//W3C//DTD SVG 1.1//EN" "http://www.w3.org/Graphics/SVG/1.1/DTD/svg11.dtd">
<svg version="1.1" id="Layer_1" xmlns="http://www.w3.org/2000/svg" xmlns:xlink="http://www.w3.org/1999/xlink" x="0px" y="0px"
	 width="16px" height="16px" viewBox="0 0 16 16" enable-background="new 0 0 16 16" xml:space="preserve">
<path d="M8,0C3.589,0,0,3.589,0,8s3.589,8,8,8s8-3.589,8-8S12.411,0,8,0z M11.905,3.147c-0.357,0.412-1.24,1.27-2.85,1.925
	C8.269,3.661,7.447,2.457,7.014,1.848C8.88,1.34,10.66,1.96,11.905,3.147z M5.11,2.481c0.354,0.497,1.208,1.73,2.047,3.18
	C4.877,6.22,2.874,6.327,1.986,6.344C2.446,4.693,3.584,3.283,5.11,2.481z M3.091,11.857c-0.836-1.065-1.303-2.369-1.329-3.726
	c0.91-0.007,3.53-0.099,6.258-0.873c0.088,0.177,0.174,0.355,0.257,0.533C5.438,8.74,3.709,10.942,3.091,11.857z M4.387,13.094
	c0.397-0.676,1.702-2.531,4.588-3.613c0.73,1.965,1.089,3.63,1.227,4.368C8.14,14.5,5.74,14.1,4.387,13.094z M11.886,12.888
	c-0.151-0.751-0.477-2.177-1.062-3.853C11.9,8.8,13.56,9.06,14.109,9.28C13.814,10.698,13.022,11.98,11.886,12.888z M10.194,7.392
	c0,0-0.243-0.561-0.346-0.78c1.739-0.768,2.758-1.723,3.22-2.237c0.67,0.933,1.071,2.04,1.155,3.185
	C13.54,7.36,11.68,7.12,10.194,7.392z"/>
</svg>
