<?xml version="1.0" encoding="utf-8"?>
<!-- Generator: Adobe Illustrator 19.2.1, SVG Export Plug-In . SVG Version: 6.00 Build 0)  -->
<!DOCTYPE svg PUBLIC "-//W3C//DTD SVG 1.1//EN" "http://www.w3.org/Graphics/SVG/1.1/DTD/svg11.dtd">
<svg version="1.1" id="Layer_1" xmlns="http://www.w3.org/2000/svg" xmlns:xlink="http://www.w3.org/1999/xlink" x="0px" y="0px"
	 width="16px" height="16px" viewBox="0 0 16 16" enable-background="new 0 0 16 16" xml:space="preserve">
<path d="M6.745,9.538c0.017-0.32-0.146-0.604-0.412-0.706c0,0-3.373-1.413-3.501-1.415C2.638,7.41,2.464,7.51,2.344,7.703
	c-0.254,0.417-0.422,2.578-0.118,3.268c0.09,0.203,0.272,0.315,0.468,0.322c0.125,0.007,3.594-1.128,3.598-1.13
	C6.552,10.096,6.727,9.851,6.745,9.538z"/>
<path d="M7.608,11.147c-0.291-0.115-0.605-0.043-0.781,0.181c0,0-2.346,2.851-2.401,2.973c-0.103,0.228,0.032,0.455,0.115,0.559
	c0.409,0.499,2.375,1.239,3.003,1.129c0.219-0.041,0.376-0.167,0.444-0.354c0.041-0.121,0.058-3.842,0.059-3.854
	C8.064,11.508,7.892,11.26,7.608,11.147z"/>
<path d="M10.198,10.393c-0.249-0.099-0.534-0.008-0.725,0.235c-0.198,0.247-0.229,0.573-0.07,0.821c0,0,1.914,3.167,2.014,3.247
	c0.155,0.125,0.352,0.145,0.557,0.06c0.592-0.242,1.886-1.924,1.977-2.571c0.031-0.225-0.038-0.419-0.189-0.543
	C13.664,11.566,10.212,10.4,10.198,10.393z"/>
<path d="M9.983,8.99c0,0,3.55-0.887,3.656-0.957c0.161-0.111,0.242-0.297,0.229-0.524c0-0.008,0.001-0.014,0-0.023
	c-0.068-0.669-1.217-2.412-1.782-2.694c-0.2-0.099-0.401-0.092-0.566,0.022c-0.103,0.069-2.252,3.069-2.26,3.077
	c-0.17,0.211-0.172,0.515-0.006,0.775C9.425,8.935,9.716,9.066,9.983,8.99z"/>
<path d="M7.254,0.025C6.574-0.147,3.973,0.599,3.49,1.108C3.335,1.273,3.278,1.477,3.324,1.656c0.075,0.16,3.3,5.348,3.3,5.348
	c0.477,0.79,0.866,0.668,0.993,0.627c0.127-0.04,0.513-0.163,0.469-1.085C8.04,5.466,7.723,0.652,7.685,0.429
	C7.63,0.227,7.477,0.083,7.254,0.025z"/>
</svg>
