<?xml version="1.0" encoding="utf-8"?>
<!-- Generator: Adobe Illustrator 19.2.1, SVG Export Plug-In . SVG Version: 6.00 Build 0)  -->
<!DOCTYPE svg PUBLIC "-//W3C//DTD SVG 1.1//EN" "http://www.w3.org/Graphics/SVG/1.1/DTD/svg11.dtd">
<svg version="1.1" id="Layer_1" xmlns="http://www.w3.org/2000/svg" xmlns:xlink="http://www.w3.org/1999/xlink" x="0px" y="0px"
	 width="16px" height="16px" viewBox="0 0 16 16" enable-background="new 0 0 16 16" xml:space="preserve">
<path d="M15.564,6.19c-0.337-0.144-1.78,0.016-2.181-0.347c-0.283-0.262-0.321-1.874-0.866-3.085C11.842,1.26,10.139,0,8.615,0
	H5.081c-2.78,0-5.052,2.277-5.052,5.057v5.896C0.029,13.728,2.301,16,5.081,16h5.806c2.78,0,5.036-2.272,5.052-5.046l0.032-4.084
	C15.971,6.869,15.971,6.365,15.564,6.19z M5,4h3c0.552,0,1,0.448,1,1c0,0.552-0.448,1-1,1H5C4.448,6,4,5.552,4,5
	C4,4.448,4.448,4,5,4z M11,12H5c-0.552,0-1-0.448-1-1c0-0.552,0.448-1,1-1h6c0.552,0,1,0.448,1,1C12,11.552,11.552,12,11,12z"/>
</svg>
