<?xml version="1.0" encoding="utf-8"?>
<!-- Generator: Adobe Illustrator 19.2.1, SVG Export Plug-In . SVG Version: 6.00 Build 0)  -->
<!DOCTYPE svg PUBLIC "-//W3C//DTD SVG 1.1//EN" "http://www.w3.org/Graphics/SVG/1.1/DTD/svg11.dtd">
<svg version="1.1" id="Layer_1" xmlns="http://www.w3.org/2000/svg" xmlns:xlink="http://www.w3.org/1999/xlink" x="0px" y="0px"
	 width="16px" height="16px" viewBox="0 0 16 16" enable-background="new 0 0 16 16" xml:space="preserve">
<path d="M15.558,1.739c-0.634,0.376-1.337,0.649-2.084,0.797c-0.599-0.638-1.452-1.037-2.396-1.037c-1.813,0-3.283,1.47-3.283,3.283
	c0,0.257,0.029,0.508,0.085,0.748c-2.728-0.137-5.147-1.444-6.766-3.43C0.831,2.584,0.669,3.148,0.669,3.75
	c0,1.139,0.58,2.144,1.46,2.732C1.592,6.465,1.086,6.317,0.643,6.071c0,0.014,0,0.027,0,0.041c0,1.59,1.131,2.917,2.633,3.219
	C3,9.406,2.71,9.446,2.411,9.446c-0.212,0-0.417-0.021-0.618-0.059c0.418,1.304,1.63,2.253,3.066,2.28
	c-1.123,0.88-2.539,1.405-4.077,1.405c-0.265,0-0.526-0.016-0.783-0.046c1.453,0.931,3.178,1.475,5.032,1.475
	c6.038,0,9.34-5.002,9.34-9.34c0-0.142-0.003-0.284-0.009-0.425C15.003,4.274,15.56,3.696,16,3.038
	c-0.589,0.261-1.221,0.438-1.885,0.517C14.792,3.148,15.313,2.505,15.558,1.739z"/>
</svg>
