<?xml version="1.0" encoding="utf-8"?>
<!-- Generator: Adobe Illustrator 19.2.1, SVG Export Plug-In . SVG Version: 6.00 Build 0)  -->
<!DOCTYPE svg PUBLIC "-//W3C//DTD SVG 1.1//EN" "http://www.w3.org/Graphics/SVG/1.1/DTD/svg11.dtd">
<svg version="1.1" id="Layer_1" xmlns="http://www.w3.org/2000/svg" xmlns:xlink="http://www.w3.org/1999/xlink" x="0px" y="0px"
	 width="16px" height="16px" viewBox="0 0 16 16" enable-background="new 0 0 16 16" xml:space="preserve">
<path d="M8.972,0H4C3.65,0,3.352,0.255,3.297,0.601l-2.07,13.131c-0.041,0.259,0.159,0.493,0.422,0.493h3.07l0.747-4.737
	C5.52,9.142,5.815,8.887,6.166,8.887h1.459c2.866,0,5.109-1.164,5.765-4.531c0.019-0.1,0.345-2.028-0.624-3.15
	C12.031,0.356,10.686,0,8.972,0z"/>
<path d="M7.625,9.887h-1.21L5.469,16h1.994c0.306,0,0.567-0.223,0.615-0.525l0.513-3.223l0.031-0.171
	c0.131-0.61,1.002-0.525,1.002-0.525c2.507,0,4.47-1.018,5.043-3.964c0.217-1.116,0.116-2.053-0.373-2.758
	C13.541,8.132,11.25,9.887,7.625,9.887z"/>
</svg>
