<?xml version="1.0" encoding="utf-8"?>
<!-- Generator: Adobe Illustrator 19.2.1, SVG Export Plug-In . SVG Version: 6.00 Build 0)  -->
<!DOCTYPE svg PUBLIC "-//W3C//DTD SVG 1.1//EN" "http://www.w3.org/Graphics/SVG/1.1/DTD/svg11.dtd">
<svg version="1.1" id="Layer_1" xmlns="http://www.w3.org/2000/svg" xmlns:xlink="http://www.w3.org/1999/xlink" x="0px" y="0px"
	 width="16px" height="16px" viewBox="0 0 16 16" enable-background="new 0 0 16 16" xml:space="preserve">
<path d="M12.408,7.038c-0.741-0.184-1.045-0.513-1.045-1.063c0-0.623,0.495-0.99,1.301-0.99c0.88,0,1.356,0.33,1.43,1.118
	l1.833-0.22c-0.147-1.649-1.283-2.328-3.152-2.328c-1.649,0-3.262,0.623-3.262,2.621c0,1.246,0.605,2.034,2.126,2.401
	c0,0,2.493,0.381,2.493,1.43c0,0.678-0.66,0.953-1.906,0.953c-2.87,0-3.665-4.142-3.665-4.142c-0.77-2.383-1.998-3.262-4.435-3.262
	C1.43,3.556,0,5.26,0,8.156c0,2.786,1.43,4.289,3.996,4.289c2.071,0,3.061-0.971,3.061-0.971L6.47,9.879
	c0,0-0.953,1.063-2.382,1.063c-1.265,0-2.163-1.1-2.163-2.859c0-2.254,1.136-3.061,2.254-3.061c1.613,0,2.264,1.105,2.566,2.383
	c0.88,3.721,2.273,5.04,5.443,5.04c2.273,0,3.812-0.696,3.812-2.529C16,7.5,13.792,7.438,12.408,7.038z"/>
</svg>
