<?xml version="1.0" encoding="utf-8"?>
<!-- Generator: Adobe Illustrator 19.2.1, SVG Export Plug-In . SVG Version: 6.00 Build 0)  -->
<!DOCTYPE svg PUBLIC "-//W3C//DTD SVG 1.1//EN" "http://www.w3.org/Graphics/SVG/1.1/DTD/svg11.dtd">
<svg version="1.1" id="Layer_1" xmlns="http://www.w3.org/2000/svg" xmlns:xlink="http://www.w3.org/1999/xlink" x="0px" y="0px"
	 width="16px" height="16px" viewBox="0 0 16 16" enable-background="new 0 0 16 16" xml:space="preserve">
<path d="M4.24,14.898c1.158,0.632,2.463,0.964,3.79,0.965h0.003h0c4.371,0,7.929-3.557,7.931-7.928
	c0.001-2.118-0.823-4.11-2.321-5.609S10.155,0.001,8.033,0C3.662,0,0.104,3.556,0.102,7.928c-0.001,1.397,0.365,2.761,1.059,3.964
	L0.036,16L4.24,14.898z M4.697,4.514C5.094,4.156,5.89,4.227,6.051,4.614C6.216,5.01,6.613,5.985,6.662,6.084S6.75,6.594,6.48,6.762
	c-0.129,0.081-0.543,0.41-0.384,0.751C6.193,7.722,6.61,8.361,7.199,8.886C7.956,9.561,8.594,9.77,8.792,9.869
	c0.198,0.099,0.314,0.083,0.429-0.05c0.116-0.132,0.495-0.578,0.627-0.777c0.132-0.198,0.264-0.165,0.446-0.099
	s1.156,0.545,1.354,0.645c0.198,0.099,0.33,0.149,0.38,0.231c0.05,0.083,0.05,0.479-0.116,0.942
	c-0.165,0.463-0.957,0.885-1.338,0.942c-0.341,0.051-1.294-0.016-2.378-0.496c-1.98-0.877-3.286-2.859-3.385-2.991
	C4.714,8.084,4.003,7.142,4.003,6.167S4.497,4.695,4.697,4.514z"/>
</svg>
