<?xml version="1.0" encoding="utf-8"?>
<!-- Generator: Adobe Illustrator 19.2.1, SVG Export Plug-In . SVG Version: 6.00 Build 0)  -->
<!DOCTYPE svg PUBLIC "-//W3C//DTD SVG 1.1//EN" "http://www.w3.org/Graphics/SVG/1.1/DTD/svg11.dtd">
<svg version="1.1" id="Layer_1" xmlns="http://www.w3.org/2000/svg" xmlns:xlink="http://www.w3.org/1999/xlink" x="0px" y="0px"
	 width="16px" height="16px" viewBox="0 0 16 16" enable-background="new 0 0 16 16" xml:space="preserve">
<path d="M8,0C3.582,0,0,3.582,0,8c0,3.389,2.109,6.284,5.085,7.45c-0.07-0.633-0.133-1.604,0.028-2.295
	C5.258,12.53,6.05,9.178,6.05,9.178S5.811,8.699,5.811,7.99c0-1.112,0.645-1.943,1.448-1.943c0.682,0,1.012,0.513,1.012,1.127
	c0,0.686-0.437,1.713-0.663,2.664c-0.188,0.796,0.399,1.446,1.185,1.446c1.422,0,2.515-1.499,2.515-3.664
	c0-1.915-1.376-3.255-3.342-3.255c-2.276,0-3.612,1.707-3.612,3.472c0,0.688,0.265,1.425,0.595,1.826
	c0.065,0.079,0.075,0.149,0.055,0.229c-0.061,0.253-0.196,0.796-0.222,0.907c-0.035,0.146-0.116,0.177-0.268,0.107
	c-0.999-0.465-1.624-1.926-1.624-3.099c0-2.524,1.834-4.841,5.286-4.841c2.775,0,4.932,1.977,4.932,4.62
	c0,2.757-1.738,4.976-4.151,4.976c-0.811,0-1.573-0.421-1.834-0.919c0,0-0.401,1.528-0.498,1.902
	c-0.181,0.695-0.668,1.566-0.994,2.097C6.38,15.875,7.175,16,8,16c4.418,0,8-3.582,8-8C16,3.582,12.418,0,8,0z"/>
</svg>
