<?xml version="1.0" encoding="utf-8"?>
<!-- Generator: Adobe Illustrator 19.2.1, SVG Export Plug-In . SVG Version: 6.00 Build 0)  -->
<!DOCTYPE svg PUBLIC "-//W3C//DTD SVG 1.1//EN" "http://www.w3.org/Graphics/SVG/1.1/DTD/svg11.dtd">
<svg version="1.1" id="Layer_1" xmlns="http://www.w3.org/2000/svg" xmlns:xlink="http://www.w3.org/1999/xlink" x="0px" y="0px"
	 width="16px" height="16px" viewBox="0 0 16 16" enable-background="new 0 0 16 16" xml:space="preserve">
<path d="M1.043,10.904c0.886,2.343,3.119,3.645,4.021,4.02c2.152,0.896,3.976,0.527,4.264,0.477c0.669,0.379,1.427,0.58,2.2,0.58
	C12.723,15.981,16,15,16,11.508c0-1.242-0.58-2.201-0.566-2.176c0.082-0.449,0.61-3.787-2.088-6.712
	c-2.518-2.73-6.434-2.168-6.776-2.077C5.927,0.202,5.205,0.019,4.473,0.019C0.953,0.019,0,3.297,0,4.492
	C0,5.71,0.577,6.686,0.563,6.661C0.235,8.259,0.685,9.958,1.043,10.904z M6.447,8.315C4.562,7.792,4.175,6.794,4.175,5.817
	c0-2.029,1.91-2.79,3.704-2.79c1.652,0,3.6,0.913,3.6,2.13c0,0.521-0.452,0.825-0.968,0.825c-0.98,0-0.8-1.357-2.774-1.357
	c-0.98,0-1.523,0.444-1.523,1.079c0,0.943,1.828,1.07,3.213,1.381c1.885,0.478,2.426,1.561,2.426,2.626
	c0,1.648-1.265,2.879-3.819,2.879c-2.684,0-3.885-1.32-3.885-2.309c0-0.507,0.374-0.863,0.891-0.863
	c1.149,0,0.851,1.649,2.994,1.649c1.097,0,1.703-0.596,1.703-1.206C9.738,8.708,8.331,8.839,6.447,8.315z"/>
</svg>
