<?xml version="1.0" encoding="utf-8"?>
<!-- Generator: Adobe Illustrator 19.2.1, SVG Export Plug-In . SVG Version: 6.00 Build 0)  -->
<!DOCTYPE svg PUBLIC "-//W3C//DTD SVG 1.1//EN" "http://www.w3.org/Graphics/SVG/1.1/DTD/svg11.dtd">
<svg version="1.1" id="Layer_1" xmlns="http://www.w3.org/2000/svg" xmlns:xlink="http://www.w3.org/1999/xlink" x="0px" y="0px"
	 width="16px" height="16px" viewBox="0 0 16 16" enable-background="new 0 0 16 16" xml:space="preserve">
<path d="M14.922,8.797c1.103-1.103,1.077-1.689,1.077-2.57c0-0.612-0.264-4.253-0.264-4.253c0-0.577-0.214-0.964-0.482-1.227
	c-0.263-0.268-0.649-0.482-1.226-0.482c0,0-3.641-0.264-4.254-0.264c-0.88,0-1.467-0.025-2.569,1.078
	C6.668,1.613,0.726,7.556,0.475,7.806c-0.25,0.25-1.096,1.236,0.347,2.679l4.693,4.694c1.443,1.443,2.43,0.596,2.68,0.346
	C8.444,15.275,14.387,9.332,14.922,8.797z M13.131,1.991c0.53,0,0.961,0.431,0.961,0.963c0,0.532-0.431,0.964-0.961,0.964
	c-0.533,0-0.964-0.432-0.964-0.964C12.168,2.422,12.598,1.991,13.131,1.991z M9.052,9.267C9.009,9.238,8.959,9.223,8.91,9.223
	c-0.044,0-0.087,0.011-0.127,0.034C8.698,9.306,8.65,9.398,8.657,9.495l0.156,2.228H7.305c0,0-0.004,0-0.007,0
	c0.006-0.019,0.124-2.229,0.124-2.229C7.429,9.397,7.38,9.305,7.296,9.256c-0.085-0.049-0.189-0.045-0.27,0.01L5.195,10.51
	l-0.817-1.3l2.054-1.02C6.52,8.148,6.577,8.059,6.577,7.961c0-0.098-0.057-0.188-0.145-0.229L4.395,6.765l0.749-1.34l1.882,1.231
	c0.08,0.054,0.184,0.059,0.27,0.01C7.38,6.617,7.429,6.525,7.422,6.427L7.267,4.2h1.508L8.657,6.427
	C8.65,6.525,8.698,6.617,8.783,6.665c0.085,0.05,0.19,0.044,0.27-0.01l1.831-1.244l0.817,1.3L9.648,7.732
	C9.56,7.773,9.504,7.862,9.504,7.961c0,0.098,0.057,0.188,0.145,0.229l2.036,0.967l-0.749,1.34L9.052,9.267z"/>
</svg>
