<?xml version="1.0" encoding="utf-8"?>
<!-- Generator: Adobe Illustrator 19.2.1, SVG Export Plug-In . SVG Version: 6.00 Build 0)  -->
<!DOCTYPE svg PUBLIC "-//W3C//DTD SVG 1.1//EN" "http://www.w3.org/Graphics/SVG/1.1/DTD/svg11.dtd">
<svg version="1.1" id="Layer_1" xmlns="http://www.w3.org/2000/svg" xmlns:xlink="http://www.w3.org/1999/xlink" x="0px" y="0px"
	 width="16px" height="16px" viewBox="0 0 16 16" enable-background="new 0 0 16 16" xml:space="preserve">
<path d="M8,0C3.6,0,0,3.6,0,8c0,4.4,3.6,8,8,8s8-3.6,8-8C16,3.6,12.44,0,8,0z M11.68,11.56c-0.16,0.24-0.44,0.32-0.68,0.16
	c-1.88-1.16-4.24-1.4-7.04-0.76c-0.28,0.08-0.52-0.12-0.6-0.36c-0.08-0.28,0.12-0.52,0.36-0.6c3.04-0.68,5.68-0.4,7.76,0.88
	C11.76,11,11.8,11.32,11.68,11.56z M12.64,9.36c-0.2,0.28-0.56,0.4-0.84,0.2C9.64,8.24,6.36,7.84,3.84,8.64
	c-0.32,0.08-0.68-0.08-0.76-0.4C3,7.92,3.16,7.56,3.48,7.48c2.92-0.88,6.52-0.44,9,1.08C12.72,8.68,12.84,9.08,12.64,9.36z
	 M13.76,6.92c-0.2,0.28-0.68,0.4-1.04,0.2C10.16,5.6,5.88,5.44,3.44,6.2c-0.4,0.12-0.8-0.12-0.92-0.48C2.4,5.32,2.64,4.92,3,4.8
	c2.84-0.84,7.52-0.68,10.48,1.08C13.84,6.08,13.96,6.56,13.76,6.92z"/>
</svg>
