<?xml version="1.0" encoding="utf-8"?>
<!-- Generator: Adobe Illustrator 19.2.1, SVG Export Plug-In . SVG Version: 6.00 Build 0)  -->
<!DOCTYPE svg PUBLIC "-//W3C//DTD SVG 1.1//EN" "http://www.w3.org/Graphics/SVG/1.1/DTD/svg11.dtd">
<svg version="1.1" id="Layer_1" xmlns="http://www.w3.org/2000/svg" xmlns:xlink="http://www.w3.org/1999/xlink" x="0px" y="0px"
	 width="16px" height="16px" viewBox="0 0 16 16" enable-background="new 0 0 16 16" xml:space="preserve">
<ellipse cx="13.202" cy="5.651" rx="2.546" ry="2.536"/>
<ellipse cx="7.467" cy="6.374" rx="2.291" ry="2.283"/>
<ellipse cx="2.266" cy="7.025" rx="2.062" ry="2.054"/>
<path d="M0.206,12.886h0.073h3.974h0.073c0.114,0,0.206-0.093,0.206-0.205v-0.798c0-1.186-0.959-2.334-2.266-2.334
	C0.959,9.549,0,10.696,0,11.882v0.798C0,12.793,0.092,12.886,0.206,12.886z"/>
<path d="M4.949,12.657c0,0.125,0.103,0.228,0.229,0.228h0.081h4.416h0.081c0.127,0,0.229-0.103,0.229-0.228V11.77
	c0-1.318-1.065-2.593-2.518-2.593c-1.453,0-2.518,1.275-2.518,2.593V12.657z"/>
<path d="M13.202,8.765c-1.614,0-2.798,1.417-2.798,2.881v0.985c0,0.139,0.114,0.254,0.254,0.254h0.09h4.907h0.09
	c0.141,0,0.255-0.114,0.255-0.254v-0.985C16,10.182,14.816,8.765,13.202,8.765z"/>
</svg>
