<?xml version="1.0" encoding="utf-8"?>
<!-- Generator: Adobe Illustrator 19.2.1, SVG Export Plug-In . SVG Version: 6.00 Build 0)  -->
<!DOCTYPE svg PUBLIC "-//W3C//DTD SVG 1.1//EN" "http://www.w3.org/Graphics/SVG/1.1/DTD/svg11.dtd">
<svg version="1.1" id="Layer_1" xmlns="http://www.w3.org/2000/svg" xmlns:xlink="http://www.w3.org/1999/xlink" x="0px" y="0px"
	 width="16px" height="16px" viewBox="0 0 16 16" enable-background="new 0 0 16 16" xml:space="preserve">
<path d="M14.077,5.932c-0.459,0-0.881,0.162-1.211,0.431c-1.173-0.737-2.661-1.181-4.256-1.275l0.832-2.63l2.286,0.538
	c0.06,0.833,0.756,1.492,1.604,1.492c0.887,0,1.608-0.721,1.608-1.608c0-0.887-0.721-1.608-1.608-1.608
	c-0.62,0-1.159,0.353-1.427,0.869L9.248,1.515C9.025,1.463,8.8,1.591,8.731,1.809L7.698,5.073C5.98,5.116,4.364,5.561,3.106,6.341
	C2.779,6.085,2.369,5.932,1.923,5.932C0.863,5.932,0,6.795,0,7.855c0,0.656,0.33,1.235,0.833,1.582
	C0.812,9.59,0.801,9.744,0.801,9.899c0,1.326,0.77,2.559,2.169,3.472c1.341,0.875,3.116,1.358,4.998,1.358
	c1.882,0,3.656-0.482,4.998-1.358c1.399-0.913,2.169-2.146,2.169-3.472c0-0.142-0.009-0.282-0.027-0.421
	C15.644,9.136,16,8.537,16,7.855C16,6.795,15.137,5.932,14.077,5.932z M4.537,9.045c0-0.598,0.502-1.099,1.099-1.099
	c0.598,0,1.083,0.501,1.083,1.099s-0.485,1.083-1.083,1.083C5.039,10.128,4.537,9.643,4.537,9.045z M10.634,12.23
	c-0.557,0.556-1.416,0.827-2.626,0.827c-0.003,0-0.006,0-0.009,0c-0.003,0-0.006,0-0.009,0c-1.21,0-2.069-0.271-2.625-0.827
	c-0.171-0.171-0.171-0.447,0-0.618c0.171-0.171,0.447-0.171,0.618,0c0.384,0.384,1.041,0.571,2.007,0.571c0.003,0,0.006,0,0.009,0
	c0.003,0,0.006,0,0.009,0c0.966,0,1.623-0.187,2.008-0.571c0.171-0.171,0.447-0.17,0.618,0S10.805,12.059,10.634,12.23z
	 M10.38,10.128c-0.598,0-1.101-0.485-1.101-1.083c0-0.598,0.503-1.099,1.101-1.099s1.083,0.501,1.083,1.099
	C11.463,9.643,10.978,10.128,10.38,10.128z"/>
</svg>
