<?xml version="1.0" encoding="utf-8"?>
<!-- Generator: Adobe Illustrator 19.2.1, SVG Export Plug-In . SVG Version: 6.00 Build 0)  -->
<!DOCTYPE svg PUBLIC "-//W3C//DTD SVG 1.1//EN" "http://www.w3.org/Graphics/SVG/1.1/DTD/svg11.dtd">
<svg version="1.1" id="Layer_1" xmlns="http://www.w3.org/2000/svg" xmlns:xlink="http://www.w3.org/1999/xlink" x="0px" y="0px"
	 width="16px" height="16px" viewBox="0 0 16 16" enable-background="new 0 0 16 16" xml:space="preserve">
<path d="M15.213,12.026c0-0.161-0.105-0.589-0.233-0.952c-0.128-0.363-0.34-1.175-0.472-1.806c-1.106-5.297-1.858-8.145-2.257-8.543
	c-0.257-0.257-0.561-0.318-1.714-0.347L9.136,0.344L8.838,0.871C8.081,2.21,7.202,5.185,6.907,7.408l-0.2,1.508L5.292,6.173
	C4.514,4.664,3.747,3.289,3.587,3.117C3.243,2.748,1.993,2.691,0.868,2.991L0.17,3.178l-0.113,2.72
	c-0.114,2.736-0.079,3.474,0.32,6.654c0.233,1.865,0.389,2.169,1.123,2.19c0.883,0.025,2.379-0.563,2.488-0.978
	c0.067-0.256-0.296-3.301-0.295-3.302c0,0,2.111,3.353,2.738,4.14c1.978-0.183,1.227-0.113,3.135-0.29l0.211-0.714
	c0.116-0.393,0.247-1.857,0.291-3.254c0.095-3.012,0.201-4.053,0.38-3.724c0.069,0.127,0.282,0.875,0.474,1.66
	c0.558,2.29,1.091,4.062,1.505,5c0.212,0.48,0.469,1.212,0.573,1.627c0.104,0.415,0.234,0.751,0.289,0.748
	c0.705-0.039,2.615-0.681,2.615-0.681c0.19,0.19,0.109-0.212-0.292-1.441C15.391,12.865,15.213,12.187,15.213,12.026z"/>
</svg>
