<?xml version="1.0" encoding="utf-8"?>
<!-- Generator: Adobe Illustrator 19.1.0, SVG Export Plug-In . SVG Version: 6.00 Build 0)  -->
<!DOCTYPE svg PUBLIC "-//W3C//DTD SVG 1.1//EN" "http://www.w3.org/Graphics/SVG/1.1/DTD/svg11.dtd">
<svg version="1.1" id="Layer_1" xmlns="http://www.w3.org/2000/svg" xmlns:xlink="http://www.w3.org/1999/xlink" x="0px" y="0px"
	 width="48px" height="48px" viewBox="0 0 48 48" enable-background="new 0 0 48 48" xml:space="preserve">
<path d="M34,1c-3.9,0-7.5,1.7-10,4.7C21.5,2.7,17.9,1,14,1C6.8,1,1,6.8,1,14c0,2.6,1,5.5,2.5,8.4c0,0,0,0,0,0
	c5.7,10.7,19.1,21.8,19.8,22.4c0.2,0.2,0.4,0.2,0.6,0.2s0.4-0.1,0.6-0.2c0.7-0.6,14.1-11.7,19.8-22.4c0,0,0,0,0,0
	C46,19.5,47,16.6,47,14C47,6.8,41.2,1,34,1z M24,42.7C21.4,40.5,11.3,31.6,6.1,23H14c0.3,0,0.6-0.2,0.8-0.4l3.2-4.8l7.2,10.8
	c0.2,0.3,0.5,0.4,0.8,0.4s0.6-0.2,0.8-0.4l3.7-5.6h11.3C36.7,31.6,26.6,40.5,24,42.7z M43,21H30c-0.3,0-0.6,0.2-0.8,0.4L26,26.2
	l-7.2-10.8c-0.4-0.6-1.3-0.6-1.7,0L13.5,21H5c-1.3-2.5-2-4.8-2-7C3,7.9,7.9,3,14,3c3.7,0,7.1,1.8,9.2,4.9c0.4,0.6,1.3,0.6,1.7,0
	C26.9,4.8,30.3,3,34,3c6.1,0,11,4.9,11,11C45,16.2,44.2,18.5,43,21z"/>
</svg>
