<?xml version="1.0" encoding="utf-8"?>
<!-- Generator: Adobe Illustrator 19.1.0, SVG Export Plug-In . SVG Version: 6.00 Build 0)  -->
<!DOCTYPE svg PUBLIC "-//W3C//DTD SVG 1.1//EN" "http://www.w3.org/Graphics/SVG/1.1/DTD/svg11.dtd">
<svg version="1.1" id="Layer_1" xmlns="http://www.w3.org/2000/svg" xmlns:xlink="http://www.w3.org/1999/xlink" x="0px" y="0px"
	 width="48px" height="48px" viewBox="0 0 48 48" enable-background="new 0 0 48 48" xml:space="preserve">
<path d="M23.4,44.8c0.2,0.2,0.4,0.2,0.6,0.2s0.4-0.1,0.6-0.2C25.5,44,47,26.3,47,14c0-7.2-5.8-13-13-13c-3.9,0-7.5,1.7-10,4.7
	C21.5,2.7,17.9,1,14,1C6.8,1,1,6.8,1,14C1,26.3,22.5,44,23.4,44.8z M14,3c3.7,0,7.1,1.8,9.2,4.9c0.4,0.6,1.3,0.6,1.7,0
	C26.9,4.8,30.3,3,34,3c6.1,0,11,4.9,11,11c0,10.3-17.4,25.7-21,28.7C20.4,39.7,3,24.3,3,14C3,7.9,7.9,3,14,3z"/>
</svg>
