<?xml version="1.0" encoding="utf-8"?>
<!-- Generator: Adobe Illustrator 19.1.0, SVG Export Plug-In . SVG Version: 6.00 Build 0)  -->
<!DOCTYPE svg PUBLIC "-//W3C//DTD SVG 1.1//EN" "http://www.w3.org/Graphics/SVG/1.1/DTD/svg11.dtd">
<svg version="1.1" id="Layer_1" xmlns="http://www.w3.org/2000/svg" xmlns:xlink="http://www.w3.org/1999/xlink" x="0px" y="0px"
	 width="48px" height="48px" viewBox="0 0 48 48" enable-background="new 0 0 48 48" xml:space="preserve">
<path d="M16,23h2c0.3,0,0.5-0.1,0.7-0.3l3-3l3.4,6.8c0.1,0.3,0.4,0.5,0.7,0.5c0.1,0,0.1,0,0.2,0c0.3,0,0.5-0.1,0.7-0.3l3.7-3.7H32
	c0.6,0,1-0.4,1-1s-0.4-1-1-1h-2c-0.3,0-0.5,0.1-0.7,0.3l-3,3l-3.4-6.8c-0.1-0.3-0.4-0.5-0.7-0.5c-0.3,0-0.6,0.1-0.9,0.3L17.6,21H16
	c-0.6,0-1,0.4-1,1S15.4,23,16,23z"/>
<path d="M14,1c-2.8,0-5,2.2-5,5v36c0,2.8,2.2,5,5,5h20c2.8,0,5-2.2,5-5V6c0-2.8-2.2-5-5-5H14z M37,33H11V11h26V33z M34,45H14
	c-1.7,0-3-1.3-3-3v-7h26v7C37,43.7,35.7,45,34,45z M37,6v3H11V6c0-1.7,1.3-3,3-3h20C35.7,3,37,4.3,37,6z"/>
<path d="M24,37c-1.7,0-3,1.3-3,3s1.3,3,3,3s3-1.3,3-3S25.7,37,24,37z M24,41c-0.6,0-1-0.4-1-1s0.4-1,1-1s1,0.4,1,1S24.6,41,24,41z"
	/>
</svg>
