<?xml version="1.0" encoding="utf-8"?>
<!-- Generator: Adobe Illustrator 19.1.0, SVG Export Plug-In . SVG Version: 6.00 Build 0)  -->
<!DOCTYPE svg PUBLIC "-//W3C//DTD SVG 1.1//EN" "http://www.w3.org/Graphics/SVG/1.1/DTD/svg11.dtd">
<svg version="1.1" id="Layer_1" xmlns="http://www.w3.org/2000/svg" xmlns:xlink="http://www.w3.org/1999/xlink" x="0px" y="0px"
	 width="48px" height="48px" viewBox="0 0 48 48" enable-background="new 0 0 48 48" xml:space="preserve">
<path d="M10.4,44.9c0.4,0.1,0.8,0.1,1.2,0.1c2.1,0,4.1-0.8,5.9-2.3c3.5-3,5.5-8.5,5.5-14.7v-3.8c0.7,0,1.3,0,2,0V28
	c0,6.2,2.1,11.7,5.5,14.7c1.8,1.5,3.8,2.3,5.9,2.3c0.4,0,0.8,0,1.2-0.1C44,44,47.7,34.7,46.2,23.9C44.5,12.8,37.8,7,32,7
	c-1.1,0-2.1,0.3-3,0.7V2c0-0.6-0.4-1-1-1s-1,0.4-1,1v8c0,5,4,9,9,9c0.6,0,1-0.4,1-1s-0.4-1-1-1c-3.7,0-6.8-3-7-6.7
	C29.6,9.5,30.7,9,32,9c6.5,0,11.1,7.8,12.2,15.1c1.4,9.6-1.7,18-6.9,18.8c-1.9,0.3-3.8-0.3-5.5-1.8c-3-2.6-4.8-7.5-4.8-13.2v-3.6
	c2.9,0.3,5.8,1.2,8.6,2.5C35.7,27,35.8,27,36,27c0.4,0,0.7-0.2,0.9-0.6c0.2-0.5,0-1.1-0.4-1.3c-3.2-1.6-6.7-2.6-10.3-2.8
	c-0.1,0-0.1,0-0.2,0c0,0,0,0-0.1,0c-1.3-0.1-2.6-0.1-3.9,0c0,0,0,0-0.1,0c-0.1,0-0.1,0-0.2,0c-3.5,0.3-7,1.2-10.3,2.8
	c-0.5,0.2-0.7,0.8-0.4,1.3c0.2,0.5,0.8,0.7,1.3,0.4c2.7-1.4,5.6-2.2,8.6-2.5V28c0,5.6-1.8,10.5-4.8,13.2c-1.7,1.4-3.6,2.1-5.5,1.8
	c-5.2-0.8-8.3-9.2-6.9-18.8C4.9,16.8,9.5,9,16,9c1.3,0,2.4,0.5,3,1.3C18.8,14,15.7,17,12,17c-0.6,0-1,0.4-1,1s0.4,1,1,1c5,0,9-4,9-9
	V2c0-0.6-0.4-1-1-1s-1,0.4-1,1v5.7C18.1,7.3,17.1,7,16,7C10.2,7,3.5,12.8,1.8,23.9C0.3,34.7,4,44,10.4,44.9z"/>
</svg>
