<?xml version="1.0" encoding="utf-8"?>
<!-- Generator: Adobe Illustrator 19.1.0, SVG Export Plug-In . SVG Version: 6.00 Build 0)  -->
<!DOCTYPE svg PUBLIC "-//W3C//DTD SVG 1.1//EN" "http://www.w3.org/Graphics/SVG/1.1/DTD/svg11.dtd">
<svg version="1.1" id="Layer_1" xmlns="http://www.w3.org/2000/svg" xmlns:xlink="http://www.w3.org/1999/xlink" x="0px" y="0px"
	 width="48px" height="48px" viewBox="0 0 48 48" enable-background="new 0 0 48 48" xml:space="preserve">
<path d="M24,1C11.3,1,1,11.3,1,24s10.3,23,23,23s23-10.3,23-23S36.7,1,24,1z M24,45C12.4,45,3,35.6,3,24S12.4,3,24,3s21,9.4,21,21
	S35.6,45,24,45z"/>
<path d="M38,23H10c-0.6,0-1,0.4-1,1c0,8.3,6.7,15,15,15s15-6.7,15-15C39,23.4,38.6,23,38,23z M24,37c-6.8,0-12.4-5.3-13-12H37
	C36.4,31.7,30.8,37,24,37z"/>
</svg>
