<?xml version="1.0" encoding="utf-8"?>
<!-- Generator: Adobe Illustrator 19.1.0, SVG Export Plug-In . SVG Version: 6.00 Build 0)  -->
<!DOCTYPE svg PUBLIC "-//W3C//DTD SVG 1.1//EN" "http://www.w3.org/Graphics/SVG/1.1/DTD/svg11.dtd">
<svg version="1.1" id="Layer_1" xmlns="http://www.w3.org/2000/svg" xmlns:xlink="http://www.w3.org/1999/xlink" x="0px" y="0px"
	 width="48px" height="48px" viewBox="0 0 48 48" enable-background="new 0 0 48 48" xml:space="preserve">
<path d="M31,8c0-3.9-3.1-7-7-7s-7,3.1-7,7s3.1,7,7,7S31,11.9,31,8z M19,8c0-2.8,2.2-5,5-5s5,2.2,5,5s-2.2,5-5,5S19,10.8,19,8z"/>
<path d="M20,47h8c0.6,0,1-0.4,1-1v-7.6l5.7-5.7c0.2-0.2,0.3-0.4,0.3-0.7V20c0-0.6-0.4-1-1-1H14c-0.6,0-1,0.4-1,1v12
	c0,0.3,0.1,0.5,0.3,0.7l5.7,5.7V46C19,46.6,19.4,47,20,47z M15,31.6V21h18v10.6l-5.7,5.7C27.1,37.5,27,37.7,27,38v7h-6v-7
	c0-0.3-0.1-0.5-0.3-0.7L15,31.6z"/>
</svg>
