<?xml version="1.0" encoding="utf-8"?>
<!-- Generator: Adobe Illustrator 19.1.0, SVG Export Plug-In . SVG Version: 6.00 Build 0)  -->
<!DOCTYPE svg PUBLIC "-//W3C//DTD SVG 1.1//EN" "http://www.w3.org/Graphics/SVG/1.1/DTD/svg11.dtd">
<svg version="1.1" id="Layer_1" xmlns="http://www.w3.org/2000/svg" xmlns:xlink="http://www.w3.org/1999/xlink" x="0px" y="0px"
	 width="48px" height="48px" viewBox="0 0 48 48" enable-background="new 0 0 48 48" xml:space="preserve">
<path d="M24,1C11.3,1,1,11.3,1,24s10.3,23,23,23s23-10.3,23-23S36.7,1,24,1z M24,3c11.2,0,20.4,8.9,20.9,20H36
	c-0.4,0-0.7,0.2-0.9,0.6L30,33.8L18.9,11.6c-0.3-0.7-1.4-0.7-1.8,0L11.4,23H3.1C3.6,11.9,12.8,3,24,3z M24,45
	C12.8,45,3.6,36.1,3.1,25H12c0.4,0,0.7-0.2,0.9-0.6L18,14.2l11.1,22.2c0.2,0.3,0.5,0.6,0.9,0.6s0.7-0.2,0.9-0.6L36.6,25h8.3
	C44.4,36.1,35.2,45,24,45z"/>
</svg>
