<?xml version="1.0" encoding="utf-8"?>
<!-- Generator: Adobe Illustrator 19.1.0, SVG Export Plug-In . SVG Version: 6.00 Build 0)  -->
<!DOCTYPE svg PUBLIC "-//W3C//DTD SVG 1.1//EN" "http://www.w3.org/Graphics/SVG/1.1/DTD/svg11.dtd">
<svg version="1.1" id="Layer_1" xmlns="http://www.w3.org/2000/svg" xmlns:xlink="http://www.w3.org/1999/xlink" x="0px" y="0px"
	 width="48px" height="48px" viewBox="0 0 48 48" enable-background="new 0 0 48 48" xml:space="preserve">
<path d="M46,1H2C1.4,1,1,1.4,1,2v44c0,0.6,0.4,1,1,1h44c0.6,0,1-0.4,1-1V2C47,1.4,46.6,1,46,1z M45,45H3V3h42V45z"/>
<path d="M10,31c0.3,0,0.6-0.1,0.8-0.4l9.4-11.2l9.2,7.4c0.4,0.3,1,0.3,1.3-0.1l8-8c0.4-0.4,0.4-1,0-1.4s-1-0.4-1.4,0l-7.4,7.4
	l-9.3-7.4c-0.4-0.3-1-0.3-1.4,0.1l-10,12c-0.4,0.4-0.3,1.1,0.1,1.4C9.5,30.9,9.8,31,10,31z"/>
</svg>
