<?xml version="1.0" encoding="utf-8"?>
<!-- Generator: Adobe Illustrator 19.1.0, SVG Export Plug-In . SVG Version: 6.00 Build 0)  -->
<!DOCTYPE svg PUBLIC "-//W3C//DTD SVG 1.1//EN" "http://www.w3.org/Graphics/SVG/1.1/DTD/svg11.dtd">
<svg version="1.1" id="Layer_1" xmlns="http://www.w3.org/2000/svg" xmlns:xlink="http://www.w3.org/1999/xlink" x="0px" y="0px"
	 width="48px" height="48px" viewBox="0 0 48 48" enable-background="new 0 0 48 48" xml:space="preserve">
<path d="M24,1C14.6,1,7,8.6,7,18c0,9,7.1,16.4,16,16.9V41h-5c-0.6,0-1,0.4-1,1s0.4,1,1,1h5v3c0,0.6,0.4,1,1,1s1-0.4,1-1v-3h5
	c0.6,0,1-0.4,1-1s-0.4-1-1-1h-5v-6.1C33.9,34.4,41,27,41,18C41,8.6,33.4,1,24,1z M24,33c-8.3,0-15-6.7-15-15S15.7,3,24,3
	s15,6.7,15,15S32.3,33,24,33z"/>
</svg>
