<?xml version="1.0" encoding="utf-8"?>
<!-- Generator: Adobe Illustrator 19.1.0, SVG Export Plug-In . SVG Version: 6.00 Build 0)  -->
<!DOCTYPE svg PUBLIC "-//W3C//DTD SVG 1.1//EN" "http://www.w3.org/Graphics/SVG/1.1/DTD/svg11.dtd">
<svg version="1.1" id="Layer_1" xmlns="http://www.w3.org/2000/svg" xmlns:xlink="http://www.w3.org/1999/xlink" x="0px" y="0px"
	 width="48px" height="48px" viewBox="0 0 48 48" enable-background="new 0 0 48 48" xml:space="preserve">
<path d="M38,13c-0.3,0-0.7,0-1,0.1C36.5,6.3,30.9,1,24,1c-4.5,0-8.6,2.3-11,6.1C12.7,7,12.4,7,12,7C5.9,7,1,11.9,1,18
	c0,5.1,3.5,9.5,8.5,10.7C11.1,34.7,16.7,39,23,39c5.5,0,10.5-3.3,12.8-8.3c0.7,0.2,1.5,0.3,2.2,0.3c5,0,9-4,9-9S43,13,38,13z M38,29
	c-0.8,0-1.6-0.2-2.5-0.5c-0.2-0.1-0.5-0.1-0.8,0c-0.2,0.1-0.4,0.3-0.5,0.6C32.5,33.8,28,37,23,37c-5.6,0-10.5-3.9-11.7-9.4
	c-0.1-0.4-0.4-0.7-0.8-0.8C6.1,26.1,3,22.4,3,18c0-5,4-9,9-9c0.5,0,0.9,0.1,1.4,0.1c0.4,0.1,0.8-0.1,1-0.5C16.3,5.2,20,3,24,3
	c6.1,0,11,4.9,11,11.1l0,0.2c0,0.3,0.1,0.6,0.4,0.8c0.2,0.2,0.6,0.3,0.9,0.2c0.7-0.2,1.2-0.3,1.8-0.3c3.9,0,7,3.1,7,7S41.9,29,38,29
	z"/>
<path d="M6,37c-2.8,0-5,2.2-5,5s2.2,5,5,5s5-2.2,5-5S8.8,37,6,37z M6,45c-1.7,0-3-1.3-3-3s1.3-3,3-3s3,1.3,3,3S7.7,45,6,45z"/>
<path d="M28,23h-6.2l5.1-8.5c0.2-0.3,0.2-0.7,0-1C26.7,13.2,26.4,13,26,13h-6c-0.6,0-1,0.4-1,1s0.4,1,1,1h4.2l-5.1,8.5
	c-0.2,0.3-0.2,0.7,0,1c0.2,0.3,0.5,0.5,0.9,0.5h8c0.6,0,1-0.4,1-1S28.6,23,28,23z"/>
</svg>
