<?xml version="1.0" encoding="utf-8"?>
<!-- Generator: Adobe Illustrator 19.1.0, SVG Export Plug-In . SVG Version: 6.00 Build 0)  -->
<!DOCTYPE svg PUBLIC "-//W3C//DTD SVG 1.1//EN" "http://www.w3.org/Graphics/SVG/1.1/DTD/svg11.dtd">
<svg version="1.1" id="Layer_1" xmlns="http://www.w3.org/2000/svg" xmlns:xlink="http://www.w3.org/1999/xlink" x="0px" y="0px"
	 width="48px" height="48px" viewBox="0 0 48 48" enable-background="new 0 0 48 48" xml:space="preserve">
<path d="M16,3C8.8,3,3,8.8,3,16s5.8,13,13,13s13-5.8,13-13S23.2,3,16,3z M16,27C9.9,27,5,22.1,5,16S9.9,5,16,5s11,4.9,11,11
	S22.1,27,16,27z"/>
<path d="M36,27c-5,0-9,4-9,9s4,9,9,9s9-4,9-9S41,27,36,27z M36,43c-3.9,0-7-3.1-7-7s3.1-7,7-7s7,3.1,7,7S39.9,43,36,43z"/>
<path d="M40,9c-2.8,0-5,2.2-5,5s2.2,5,5,5s5-2.2,5-5S42.8,9,40,9z M40,17c-1.7,0-3-1.3-3-3s1.3-3,3-3s3,1.3,3,3S41.7,17,40,17z"/>
</svg>
