<?xml version="1.0" encoding="utf-8"?>
<!-- Generator: Adobe Illustrator 19.1.0, SVG Export Plug-In . SVG Version: 6.00 Build 0)  -->
<!DOCTYPE svg PUBLIC "-//W3C//DTD SVG 1.1//EN" "http://www.w3.org/Graphics/SVG/1.1/DTD/svg11.dtd">
<svg version="1.1" id="Layer_1" xmlns="http://www.w3.org/2000/svg" xmlns:xlink="http://www.w3.org/1999/xlink" x="0px" y="0px"
	 width="48px" height="48px" viewBox="0 0 48 48" enable-background="new 0 0 48 48" xml:space="preserve">
<path d="M46,1H2C1.4,1,1,1.4,1,2v44c0,0.6,0.4,1,1,1h44c0.6,0,1-0.4,1-1V2C47,1.4,46.6,1,46,1z M45,3v20h-9c-0.4,0-0.7,0.2-0.9,0.6
	L30,33.8L18.9,11.6c-0.3-0.7-1.4-0.7-1.8,0L11.4,23H3V3H45z M3,45V25h9c0.4,0,0.7-0.2,0.9-0.6L18,14.2l11.1,22.2
	c0.2,0.3,0.5,0.6,0.9,0.6s0.7-0.2,0.9-0.6L36.6,25H45v20H3z"/>
</svg>
