<?xml version="1.0" encoding="utf-8"?>
<!-- Generator: Adobe Illustrator 19.1.0, SVG Export Plug-In . SVG Version: 6.00 Build 0)  -->
<!DOCTYPE svg PUBLIC "-//W3C//DTD SVG 1.1//EN" "http://www.w3.org/Graphics/SVG/1.1/DTD/svg11.dtd">
<svg version="1.1" id="Layer_1" xmlns="http://www.w3.org/2000/svg" xmlns:xlink="http://www.w3.org/1999/xlink" x="0px" y="0px"
	 width="48px" height="48px" viewBox="0 0 48 48" enable-background="new 0 0 48 48" xml:space="preserve">
<path d="M28,23h-3v-3c0-0.6-0.4-1-1-1s-1,0.4-1,1v3h-3c-0.6,0-1,0.4-1,1s0.4,1,1,1h3v3c0,0.6,0.4,1,1,1s1-0.4,1-1v-3h3
	c0.6,0,1-0.4,1-1S28.6,23,28,23z"/>
<path d="M46,11H33V4c0-0.6-0.4-1-1-1H16c-0.6,0-1,0.4-1,1v7H2c-0.6,0-1,0.4-1,1v24c0,0.6,0.4,1,1,1h1v7c0,0.6,0.4,1,1,1h40
	c0.6,0,1-0.4,1-1v-7h1c0.6,0,1-0.4,1-1V12C47,11.4,46.6,11,46,11z M17,5h14v6H17V5z M43,43H5v-6h38V43z M45,35H3V13h42V35z"/>
</svg>
