<?xml version="1.0" encoding="utf-8"?>
<!-- Generator: Adobe Illustrator 19.1.0, SVG Export Plug-In . SVG Version: 6.00 Build 0)  -->
<!DOCTYPE svg PUBLIC "-//W3C//DTD SVG 1.1//EN" "http://www.w3.org/Graphics/SVG/1.1/DTD/svg11.dtd">
<svg version="1.1" id="Layer_1" xmlns="http://www.w3.org/2000/svg" xmlns:xlink="http://www.w3.org/1999/xlink" x="0px" y="0px"
	 width="48px" height="48px" viewBox="0 0 48 48" enable-background="new 0 0 48 48" xml:space="preserve">
<path d="M38,9h-2c0.6-0.8,1-1.9,1-3c0-2.8-2.2-5-5-5H12c-5,0-9,4-9,9c0,3.1,1.6,5.9,4,7.5c-3.5,1.2-6,4.6-6,8.5c0,5,4,9,9,9h9v11
	c0,0.6,0.4,1,1,1s1-0.4,1-1V34c0-0.6-0.4-1-1-1H10c-3.9,0-7-3.1-7-7s3.1-7,7-7h2h2h20c0.6,0,1-0.4,1-1s-0.4-1-1-1H14h-2
	c-3.9,0-7-3.1-7-7s3.1-7,7-7h20c1.7,0,3,1.3,3,3s-1.3,3-3,3H14c-0.6,0-1,0.4-1,1s0.4,1,1,1h24c3.9,0,7,3.1,7,7s-3.1,7-7,7H22h-4h-4
	c-0.6,0-1,0.4-1,1s0.4,1,1,1h4h4c2.8,0,5,2.2,5,5v14c0,0.6,0.4,1,1,1s1-0.4,1-1V32c0-2-0.8-3.7-2.1-5H38c5,0,9-4,9-9S43,9,38,9z"/>
</svg>
