<?xml version="1.0" encoding="utf-8"?>
<!-- Generator: Adobe Illustrator 19.1.0, SVG Export Plug-In . SVG Version: 6.00 Build 0)  -->
<!DOCTYPE svg PUBLIC "-//W3C//DTD SVG 1.1//EN" "http://www.w3.org/Graphics/SVG/1.1/DTD/svg11.dtd">
<svg version="1.1" id="Layer_1" xmlns="http://www.w3.org/2000/svg" xmlns:xlink="http://www.w3.org/1999/xlink" x="0px" y="0px"
	 width="48px" height="48px" viewBox="0 0 48 48" enable-background="new 0 0 48 48" xml:space="preserve">
<path d="M46,15H33V2c0-0.6-0.4-1-1-1H16c-0.6,0-1,0.4-1,1v13H2c-0.6,0-1,0.4-1,1v16c0,0.6,0.4,1,1,1h13v13c0,0.6,0.4,1,1,1h16
	c0.6,0,1-0.4,1-1V33h13c0.6,0,1-0.4,1-1V16C47,15.4,46.6,15,46,15z M45,31H32c-0.6,0-1,0.4-1,1v13H17V32c0-0.6-0.4-1-1-1H3V17h13
	c0.6,0,1-0.4,1-1V3h14v13c0,0.6,0.4,1,1,1h13V31z"/>
</svg>
