<?xml version="1.0" encoding="utf-8"?>
<!-- Generator: Adobe Illustrator 19.1.0, SVG Export Plug-In . SVG Version: 6.00 Build 0)  -->
<!DOCTYPE svg PUBLIC "-//W3C//DTD SVG 1.1//EN" "http://www.w3.org/Graphics/SVG/1.1/DTD/svg11.dtd">
<svg version="1.1" id="Layer_1" xmlns="http://www.w3.org/2000/svg" xmlns:xlink="http://www.w3.org/1999/xlink" x="0px" y="0px"
	 width="48px" height="48px" viewBox="0 0 48 48" enable-background="new 0 0 48 48" xml:space="preserve">
<path d="M6,47h34c0.6,0,1-0.4,1-1v-6c0-0.6-0.4-1-1-1H15v-3c0-4.6-3.5-8.4-8-8.9V26c0-5.3,2.7-10.1,7.1-12.8l5.5,13.5
	c0.2,0.4,0.5,0.6,0.9,0.6c0.1,0,0.3,0,0.4-0.1l7.4-3c0.2-0.1,0.4-0.3,0.5-0.5c0.1-0.2,0.1-0.5,0-0.8L23,8.4v0v0l-2.4-5.9
	C20.4,2,19.8,1.8,19.3,2l-7.4,3c-0.2,0.1-0.4,0.3-0.5,0.5c-0.1,0.2-0.1,0.5,0,0.8l2.1,5C8.2,14.4,5,19.9,5,26v2v12v6
	C5,46.6,5.4,47,6,47z M21.1,25l-5.2-12.7l5.6-2.2l5.2,12.6L21.1,25z M19.1,4.2l1.7,4l-5.6,2.2l-1.6-4L19.1,4.2z M39,45H7v-4h7h25V45
	z M13,36v3H7v-9.9C10.4,29.6,13,32.5,13,36z"/>
<path d="M21,34c0,0.6,0.4,1,1,1h14c0.6,0,1-0.4,1-1s-0.4-1-1-1H22C21.4,33,21,33.4,21,34z"/>
</svg>
