<?xml version="1.0" encoding="utf-8"?>
<!-- Generator: Adobe Illustrator 19.1.0, SVG Export Plug-In . SVG Version: 6.00 Build 0)  -->
<!DOCTYPE svg PUBLIC "-//W3C//DTD SVG 1.1//EN" "http://www.w3.org/Graphics/SVG/1.1/DTD/svg11.dtd">
<svg version="1.1" id="Layer_1" xmlns="http://www.w3.org/2000/svg" xmlns:xlink="http://www.w3.org/1999/xlink" x="0px" y="0px"
	 width="48px" height="48px" viewBox="0 0 48 48" enable-background="new 0 0 48 48" xml:space="preserve">
<path d="M41,33.1V26v-2c0-2.2-1.8-4-4-4H15v-7h19c0.6,0,1-0.4,1-1s-0.4-1-1-1H15V2c0-0.6-0.4-1-1-1H8C7.4,1,7,1.4,7,2s0.4,1,1,1h5
	v18.1C6.3,21.6,1,27.2,1,34c0,7.2,5.8,13,13,13s13-5.8,13-13c0-2.6-0.8-5-2.1-7H39v6.1c-3.4,0.5-6,3.4-6,6.9c0,3.9,3.1,7,7,7
	s7-3.1,7-7C47,36.5,44.4,33.6,41,33.1z M14,45C7.9,45,3,40.1,3,34s4.9-11,11-11s11,4.9,11,11S20.1,45,14,45z M19,22h18
	c1.1,0,2,0.9,2,2v1H23.4C22.1,23.7,20.7,22.7,19,22z M40,45c-2.8,0-5-2.2-5-5s2.2-5,5-5s5,2.2,5,5S42.8,45,40,45z"/>
</svg>
