<?xml version="1.0" encoding="utf-8"?>
<!-- Generator: Adobe Illustrator 19.1.0, SVG Export Plug-In . SVG Version: 6.00 Build 0)  -->
<!DOCTYPE svg PUBLIC "-//W3C//DTD SVG 1.1//EN" "http://www.w3.org/Graphics/SVG/1.1/DTD/svg11.dtd">
<svg version="1.1" id="Layer_1" xmlns="http://www.w3.org/2000/svg" xmlns:xlink="http://www.w3.org/1999/xlink" x="0px" y="0px"
	 width="48px" height="48px" viewBox="0 0 48 48" enable-background="new 0 0 48 48" xml:space="preserve">
<path d="M7.8,45c1.4,0,2.8-0.8,4.1-2.2l7.7-9.1c1-1.2,2.5-2.6,4.4-2.6c1.5,0,2.9,0.8,4.4,2.6l7.7,9.1c0.7,0.8,2.1,2.3,4.1,2.3
	c2.7,0,4.8-2.2,4.8-4.9l-2-20c0.3-1.2,2-7,2-10.1c0-3.9-3.1-7-7-7c-1.5,0-4.4,0.7-8.6,2.1c-3.5,1.1-7.3,1.1-10.8,0
	C14.4,3.7,11.5,3,10,3c-3.9,0-7,3.1-7,7c0,3.1,1.7,8.9,2,10.1L3,40.2C3,42.8,5.2,45,7.8,45z M7,19.7c0-0.1-2-6.6-2-9.7
	c0-2.8,2.2-5,5-5c1.3,0,4.1,0.7,8,2c3.9,1.3,8.2,1.3,12.1,0c3.9-1.3,6.7-2,8-2c2.8,0,5,2.2,5,5c0,3.1-1.9,9.6-2,9.7
	c0,0.1,0,0.3,0,0.4l2,20.1c0,1.5-1.3,2.8-2.8,2.8c-1.2,0-2.1-1.1-2.5-1.5l-7.7-9.1C28,30.1,26.1,29,24,29c-2.1,0-4.2,1.2-5.9,3.3
	l-7.7,9.1c-0.9,1-1.7,1.5-2.5,1.5C6.3,43,5,41.7,5,40.3l2-20.2C7,20,7,19.8,7,19.7z"/>
<path d="M17.8,15.2c2,0.5,4.1,0.7,6.2,0.7c2.1,0,4.2-0.2,6.2-0.7c0.5-0.1,0.9-0.7,0.7-1.2c-0.1-0.5-0.7-0.9-1.2-0.7
	c-1.9,0.4-3.8,0.7-5.8,0.7c-1.9,0-3.9-0.2-5.8-0.7c-0.5-0.1-1.1,0.2-1.2,0.7C16.9,14.5,17.2,15.1,17.8,15.2z"/>
</svg>
