<?xml version="1.0" encoding="utf-8"?>
<!-- Generator: Adobe Illustrator 19.1.0, SVG Export Plug-In . SVG Version: 6.00 Build 0)  -->
<!DOCTYPE svg PUBLIC "-//W3C//DTD SVG 1.1//EN" "http://www.w3.org/Graphics/SVG/1.1/DTD/svg11.dtd">
<svg version="1.1" id="Layer_1" xmlns="http://www.w3.org/2000/svg" xmlns:xlink="http://www.w3.org/1999/xlink" x="0px" y="0px"
	 width="48px" height="48px" viewBox="0 0 48 48" enable-background="new 0 0 48 48" xml:space="preserve">
<path d="M46,27H32c-0.4,0-0.8,0.2-0.9,0.6L26,39.5L14.9,13.6C14.8,13.2,14.4,13,14,13s-0.8,0.2-0.9,0.6L7.3,27H2c-0.6,0-1,0.4-1,1
	s0.4,1,1,1h6c0.4,0,0.8-0.2,0.9-0.6L14,16.5l11.1,25.9c0.2,0.4,0.5,0.6,0.9,0.6s0.8-0.2,0.9-0.6L32.7,29H46c0.6,0,1-0.4,1-1
	S46.6,27,46,27z"/>
<path d="M34.6,3.5c-0.2-0.2-0.6-0.3-0.9-0.2c-4.8,1.2-7.6,6-6.5,10.9c0.8,3.2,3.3,5.8,6.6,6.6c0.7,0.2,1.4,0.2,2.1,0.2
	c4.1,0,7.7-2.7,8.7-6.7c0.1-0.3,0-0.6-0.2-0.9C44.3,13.1,44,13,43.7,13H40c-2.8,0-5-2.2-5-5V4.3C35,4,34.9,3.7,34.6,3.5z M40,15h2.3
	c-1.4,2.9-4.7,4.6-8,3.8c-2.5-0.6-4.5-2.6-5.1-5.1c-0.8-3.3,0.9-6.6,3.8-8V8C33,11.9,36.1,15,40,15z"/>
</svg>
