<?xml version="1.0" encoding="utf-8"?>
<!-- Generator: Adobe Illustrator 19.1.0, SVG Export Plug-In . SVG Version: 6.00 Build 0)  -->
<!DOCTYPE svg PUBLIC "-//W3C//DTD SVG 1.1//EN" "http://www.w3.org/Graphics/SVG/1.1/DTD/svg11.dtd">
<svg version="1.1" id="Layer_1" xmlns="http://www.w3.org/2000/svg" xmlns:xlink="http://www.w3.org/1999/xlink" x="0px" y="0px"
	 width="48px" height="48px" viewBox="0 0 48 48" enable-background="new 0 0 48 48" xml:space="preserve">
<path d="M46,1H2C1.4,1,1,1.4,1,2v44c0,0.6,0.4,1,1,1h44c0.6,0,1-0.4,1-1V2C47,1.4,46.6,1,46,1z M45,45H3V3h42V45z"/>
<path d="M12,29h7v7c0,0.6,0.4,1,1,1h8c0.6,0,1-0.4,1-1v-7h7c0.6,0,1-0.4,1-1v-8c0-0.6-0.4-1-1-1h-7v-7c0-0.6-0.4-1-1-1h-8
	c-0.6,0-1,0.4-1,1v7h-7c-0.6,0-1,0.4-1,1v8C11,28.6,11.4,29,12,29z M13,21h7c0.6,0,1-0.4,1-1v-7h6v7c0,0.6,0.4,1,1,1h7v6h-7
	c-0.6,0-1,0.4-1,1v7h-6v-7c0-0.6-0.4-1-1-1h-7V21z"/>
</svg>
