<?xml version="1.0" encoding="utf-8"?>
<!-- Generator: Adobe Illustrator 19.2.1, SVG Export Plug-In . SVG Version: 6.00 Build 0)  -->
<!DOCTYPE svg PUBLIC "-//W3C//DTD SVG 1.1//EN" "http://www.w3.org/Graphics/SVG/1.1/DTD/svg11.dtd">
<svg version="1.1" id="Layer_1" xmlns="http://www.w3.org/2000/svg" xmlns:xlink="http://www.w3.org/1999/xlink" x="0px" y="0px"
	 width="32px" height="32px" viewBox="0 0 32 32" enable-background="new 0 0 32 32" xml:space="preserve">
<path d="M12.908,15.908c-0.413,0.115-0.707,0.479-0.731,0.908c-0.09,1.604-0.514,9.688-0.001,11.358
	C12.704,29.893,14.291,31,16.001,31c0.388,0,0.783-0.057,1.172-0.177c2.108-0.647,3.297-2.89,2.649-4.999
	c-0.505-1.645-4.938-8.214-5.821-9.514C13.761,15.955,13.32,15.794,12.908,15.908z M17.911,26.412
	c0.324,1.054-0.271,2.175-1.325,2.499c-1.053,0.323-2.175-0.27-2.499-1.324c-0.227-0.74-0.184-4.286-0.056-7.631
	C15.792,22.636,17.67,25.629,17.911,26.412z"/>
<path d="M2.455,11.388l5.036,3.273c0.235,0.153,0.524,0.2,0.797,0.129c0.272-0.071,0.502-0.253,0.633-0.502
	C10.313,11.644,13.026,10,16,10s5.687,1.644,7.08,4.289c0.131,0.249,0.36,0.431,0.633,0.502c0.083,0.021,0.167,0.032,0.252,0.032
	c0.191,0,0.381-0.055,0.545-0.162l5.036-3.273c0.445-0.29,0.587-0.876,0.322-1.337C27.01,5.085,21.696,2,16,2
	c-0.583,0-1.161,0.04-1.734,0.104c-0.016,0.001-0.029-0.006-0.045-0.005c-0.016,0.002-0.028,0.011-0.043,0.014
	C9.19,2.693,4.682,5.619,2.133,10.051C1.868,10.512,2.009,11.099,2.455,11.388z M27.635,10.245l-3.345,2.174
	C22.439,9.668,19.353,8,16,8c-0.051,0-0.1,0.009-0.15,0.009l-0.419-3.973C15.622,4.028,15.809,4,16,4
	C20.668,4,25.044,6.371,27.635,10.245z M13.444,4.266l0.419,3.979c-2.497,0.546-4.705,2.022-6.153,4.174l-3.345-2.174
	C6.475,7.091,9.774,4.959,13.444,4.266z"/>
</svg>
