<?xml version="1.0" encoding="utf-8"?>
<!-- Generator: Adobe Illustrator 19.2.1, SVG Export Plug-In . SVG Version: 6.00 Build 0)  -->
<!DOCTYPE svg PUBLIC "-//W3C//DTD SVG 1.1//EN" "http://www.w3.org/Graphics/SVG/1.1/DTD/svg11.dtd">
<svg version="1.1" id="Layer_1" xmlns="http://www.w3.org/2000/svg" xmlns:xlink="http://www.w3.org/1999/xlink" x="0px" y="0px"
	 width="32px" height="32px" viewBox="0 0 32 32" enable-background="new 0 0 32 32" xml:space="preserve">
<path d="M3,20h6c0.552,0,1-0.448,1-1v-3c0-0.551,0.449-1,1-1h3.54c1.099,1.224,2.688,2,4.46,2s3.36-0.776,4.46-2H29
	c0.552,0,1-0.448,1-1V8c0-0.552-0.448-1-1-1h-5.54C22.572,6.012,21.365,5.321,20,5.09V2h5c0.552,0,1-0.448,1-1s-0.448-1-1-1H13
	c-0.552,0-1,0.448-1,1s0.448,1,1,1h5v3.09c-1.365,0.23-2.572,0.921-3.46,1.91H11c-4.962,0-9,4.038-9,9v3C2,19.552,2.448,20,3,20z
	 M28,9v4h-3.35c0.223-0.627,0.35-1.298,0.35-2s-0.128-1.373-0.35-2H28z M19,7c2.206,0,4,1.794,4,4s-1.794,4-4,4s-4-1.794-4-4
	S16.794,7,19,7z M4,16c0-3.86,3.14-7,7-7h2.35C13.128,9.627,13,10.298,13,11s0.128,1.373,0.35,2H11c-1.654,0-3,1.346-3,3v2H4V16z"/>
<path d="M6,32c1.966,0,4-1.496,4-4c0-2.193-2.733-5.129-3.281-5.695c-0.377-0.39-1.061-0.39-1.438,0C4.733,22.871,2,25.807,2,28
	C2,30.504,4.034,32,6,32z M6,24.496c0.984,1.17,2,2.683,2,3.504c0,2.626-4,2.626-4,0C4,27.179,5.016,25.667,6,24.496z"/>
</svg>
