<?xml version="1.0" encoding="utf-8"?>
<!-- Generator: Adobe Illustrator 19.2.1, SVG Export Plug-In . SVG Version: 6.00 Build 0)  -->
<!DOCTYPE svg PUBLIC "-//W3C//DTD SVG 1.1//EN" "http://www.w3.org/Graphics/SVG/1.1/DTD/svg11.dtd">
<svg version="1.1" id="Layer_1" xmlns="http://www.w3.org/2000/svg" xmlns:xlink="http://www.w3.org/1999/xlink" x="0px" y="0px"
	 width="32px" height="32px" viewBox="0 0 32 32" enable-background="new 0 0 32 32" xml:space="preserve">
<path d="M9,18H6c-0.553,0-1,0.448-1,1s0.447,1,1,1h3c0.553,0,1-0.448,1-1S9.553,18,9,18z"/>
<path d="M26,18h-1v-1c0-0.552-0.447-1-1-1s-1,0.448-1,1v1h-1c-0.553,0-1,0.448-1,1s0.447,1,1,1h1v1c0,0.552,0.447,1,1,1s1-0.448,1-1
	v-1h1c0.553,0,1-0.448,1-1S26.553,18,26,18z"/>
<path d="M28.925,13.511l-1.534-8.144C27.136,3.448,25.462,2,23.5,2h-15C6.576,2,4.902,3.39,4.516,5.326l-1.445,8.19l-1.81,1.815
	C0.459,15.999,0,17.044,0,18.2V24c0,0.552,0.447,1,1,1h1v4c0,0.552,0.447,1,1,1h5c0.553,0,1-0.448,1-1v-4h14v4c0,0.552,0.447,1,1,1
	h5c0.553,0,1-0.448,1-1v-4h1c0.553,0,1-0.448,1-1v-5.8c0-1.072-0.401-2.016-1.193-2.807L28.925,13.511z M6.48,5.696
	C6.677,4.713,7.526,4,8.5,4h15c0.964,0,1.785,0.702,1.918,1.685L26.795,13H24.82l-1.24-6.196C23.486,6.336,23.076,6,22.6,6H9.4
	C8.924,6,8.514,6.336,8.42,6.804L7.18,13H5.192L6.48,5.696z M22.78,13H9.22l1-5H21.78L22.78,13z M7,28H4v-3h3V28z M28,28h-3v-3h3V28
	z M30,23H2v-4.8c0-0.552,0.202-1.05,0.607-1.393L4.414,15h23.172l1.807,1.808C29.807,17.221,30,17.664,30,18.2V23z"/>
</svg>
