<?xml version="1.0" encoding="utf-8"?>
<!-- Generator: Adobe Illustrator 19.2.1, SVG Export Plug-In . SVG Version: 6.00 Build 0)  -->
<!DOCTYPE svg PUBLIC "-//W3C//DTD SVG 1.1//EN" "http://www.w3.org/Graphics/SVG/1.1/DTD/svg11.dtd">
<svg version="1.1" id="Layer_1" xmlns="http://www.w3.org/2000/svg" xmlns:xlink="http://www.w3.org/1999/xlink" x="0px" y="0px"
	 width="32px" height="32px" viewBox="0 0 32 32" enable-background="new 0 0 32 32" xml:space="preserve">
<path d="M3,32h26c0.553,0,1-0.448,1-1V12c0-0.311-0.145-0.604-0.391-0.792l-13-10c-0.359-0.276-0.859-0.276-1.219,0l-13,10
	C2.145,11.396,2,11.689,2,12v19C2,31.552,2.447,32,3,32z M4,12.492l12-9.23l12,9.23V30H4V12.492z"/>
<path d="M22.836,12.014c-0.322,0.054-7.912,1.348-11.043,4.479c-2.797,2.797-2.447,6.123-1.691,7.99l-1.809,1.809
	c-0.391,0.391-0.391,1.023,0,1.414C8.488,27.902,8.744,28,9,28s0.512-0.098,0.707-0.293l1.82-1.82
	c0.744,0.289,1.713,0.518,2.787,0.518c1.646,0,3.529-0.534,5.192-2.198c3.419-3.42,4.442-10.763,4.484-11.074
	c0.042-0.314-0.067-0.63-0.295-0.852C23.468,12.061,23.149,11.961,22.836,12.014z M18.093,22.793
	c-1.758,1.758-3.699,1.757-4.957,1.485l2.571-2.571c0.391-0.391,0.391-1.023,0-1.414s-1.023-0.391-1.414,0l-2.586,2.586
	c-0.28-1.243-0.29-3.182,1.5-4.972c1.95-1.95,6.304-3.133,8.553-3.637C21.314,16.462,20.223,20.663,18.093,22.793z"/>
</svg>
