<?xml version="1.0" encoding="utf-8"?>
<!-- Generator: Adobe Illustrator 19.2.1, SVG Export Plug-In . SVG Version: 6.00 Build 0)  -->
<!DOCTYPE svg PUBLIC "-//W3C//DTD SVG 1.1//EN" "http://www.w3.org/Graphics/SVG/1.1/DTD/svg11.dtd">
<svg version="1.1" id="Layer_1" xmlns="http://www.w3.org/2000/svg" xmlns:xlink="http://www.w3.org/1999/xlink" x="0px" y="0px"
	 width="32px" height="32px" viewBox="0 0 32 32" enable-background="new 0 0 32 32" xml:space="preserve">
<path d="M27.929,11.34c-0.698-0.403-1.443-0.718-2.227-0.941C25.9,9.609,26,8.807,26,8c0-1.617-0.4-3.229-1.156-4.662
	c-0.206-0.39-0.645-0.599-1.076-0.515c-0.433,0.085-0.759,0.443-0.803,0.882c-0.147,1.473-0.744,2.793-1.639,3.843
	C19.728,6.534,17.905,6,16,6s-3.728,0.534-5.325,1.548c-0.896-1.05-1.492-2.369-1.639-3.843c-0.044-0.438-0.37-0.797-0.803-0.882
	C7.798,2.736,7.362,2.947,7.156,3.338C6.4,4.771,6,6.383,6,8c0,0.807,0.1,1.609,0.298,2.398c-0.783,0.223-1.528,0.538-2.226,0.941
	c-0.922,0.532-1.748,1.203-2.454,1.994c-0.25,0.28-0.322,0.678-0.186,1.027c0.136,0.351,0.456,0.595,0.83,0.634
	c1.356,0.14,2.613,0.302,3.752,0.594C6.008,15.727,6,15.867,6,16c0,3.743,2.081,7.102,5.348,8.823
	c-0.46,1.306-1.306,2.487-2.513,3.354c-0.358,0.258-0.505,0.72-0.362,1.137c0.143,0.418,0.565,0.721,0.983,0.675
	c1.617-0.06,3.213-0.52,4.616-1.329c0.698-0.403,1.344-0.891,1.928-1.457c0.584,0.566,1.23,1.054,1.928,1.457
	c1.403,0.81,2.999,1.27,4.616,1.329c0.013,0.001,0.025,0.001,0.038,0.001c0.426,0,0.807-0.271,0.945-0.676
	c0.143-0.417-0.004-0.879-0.362-1.137c-1.206-0.867-2.053-2.049-2.513-3.354C23.919,23.102,26,19.743,26,16
	c0-0.133-0.008-0.273-0.015-0.411c1.139-0.292,2.397-0.454,3.752-0.594c0.374-0.039,0.694-0.283,0.83-0.634
	c0.136-0.35,0.064-0.747-0.186-1.027C29.676,12.543,28.85,11.872,27.929,11.34z M19.731,8.931C18.649,9.609,17.37,10,16,10
	s-2.649-0.391-3.731-1.069C13.415,8.319,14.683,8,16,8S18.585,8.319,19.731,8.931z M8.025,16.333
	c1.111,0.573,2.05,1.404,2.779,2.667c0.685,1.186,0.987,2.489,0.94,3.766C9.531,21.376,8.135,18.988,8.025,16.333z M20.257,22.766
	c-0.047-1.276,0.255-2.579,0.94-3.766c0.729-1.262,1.668-2.093,2.779-2.667C23.865,18.988,22.469,21.376,20.257,22.766z M19.464,18
	c-1.722,2.981-1.568,6.542,0.162,9.287c-0.237-0.107-0.469-0.228-0.698-0.359c-0.814-0.47-1.54-1.087-2.158-1.834
	c-0.38-0.459-1.161-0.459-1.541,0c-0.618,0.747-1.344,1.364-2.158,1.834c-0.229,0.132-0.461,0.252-0.698,0.359
	c1.73-2.745,1.884-6.306,0.162-9.287c-1.896-3.283-5.001-4.281-7.806-4.72c0.112-0.072,0.227-0.142,0.342-0.208
	c0.813-0.471,1.71-0.791,2.667-0.952c0.294-0.05,0.551-0.229,0.7-0.486c0.149-0.259,0.175-0.569,0.071-0.849C8.171,9.877,8,8.94,8,8
	c0-0.264,0.013-0.525,0.038-0.784C9.55,10.087,12.557,12,16,12s6.45-1.913,7.962-4.784C23.987,7.475,24,7.736,24,8
	c0,0.94-0.171,1.877-0.509,2.785c-0.104,0.279-0.078,0.59,0.071,0.849c0.149,0.258,0.406,0.437,0.7,0.486
	c0.957,0.161,1.854,0.481,2.667,0.952c0.116,0.066,0.229,0.136,0.341,0.208C24.465,13.719,21.359,14.717,19.464,18z"/>
</svg>
