<?xml version="1.0" encoding="utf-8"?>
<!-- Generator: Adobe Illustrator 19.2.1, SVG Export Plug-In . SVG Version: 6.00 Build 0)  -->
<!DOCTYPE svg PUBLIC "-//W3C//DTD SVG 1.1//EN" "http://www.w3.org/Graphics/SVG/1.1/DTD/svg11.dtd">
<svg version="1.1" id="Layer_1" xmlns="http://www.w3.org/2000/svg" xmlns:xlink="http://www.w3.org/1999/xlink" x="0px" y="0px"
	 width="32px" height="32px" viewBox="0 0 32 32" enable-background="new 0 0 32 32" xml:space="preserve">
<path d="M22.938,1.625c-0.456-0.218-1.002-0.062-1.273,0.363L16,10.847l-5.664-8.859c-0.271-0.425-0.818-0.582-1.273-0.363
	c-2.925,1.396-5.328,3.62-6.949,6.429c-1.604,2.776-2.332,5.929-2.106,9.115c0.036,0.507,0.445,0.905,0.952,0.929l10.579,0.479
	l-4.875,9.401c-0.234,0.45-0.093,1.004,0.328,1.288C9.638,31.055,12.731,32,15.938,32c3.244,0,6.371-0.97,9.042-2.805
	c0.416-0.285,0.554-0.837,0.322-1.284l-4.841-9.335l10.579-0.479c0.507-0.023,0.916-0.422,0.952-0.929
	c0.226-3.187-0.503-6.339-2.106-9.115C28.266,5.245,25.862,3.021,22.938,1.625z M16,19c-1.654,0-3-1.346-3-3s1.346-3,3-3
	s3,1.346,3,3S17.654,19,16,19z M3.845,9.054c1.271-2.202,3.091-3.992,5.297-5.22l4.854,7.592C12.236,12.201,11,13.957,11,16
	c0,0.189,0.035,0.369,0.056,0.552l-9.089-0.411C1.949,13.658,2.591,11.226,3.845,9.054z M15.938,30c-2.508,0-4.937-0.66-7.077-1.918
	l4.185-8.07C13.876,20.625,14.891,21,16,21s2.124-0.375,2.954-0.988l4.153,8.01C20.942,29.318,18.481,30,15.938,30z M20.944,16.552
	C20.965,16.369,21,16.189,21,16c0-2.043-1.236-3.799-2.996-4.574l4.854-7.592c2.206,1.228,4.026,3.018,5.297,5.22
	c1.254,2.172,1.896,4.604,1.878,7.088L20.944,16.552z"/>
</svg>
