<?xml version="1.0" encoding="utf-8"?>
<!-- Generator: Adobe Illustrator 19.2.1, SVG Export Plug-In . SVG Version: 6.00 Build 0)  -->
<!DOCTYPE svg PUBLIC "-//W3C//DTD SVG 1.1//EN" "http://www.w3.org/Graphics/SVG/1.1/DTD/svg11.dtd">
<svg version="1.1" id="Layer_1" xmlns="http://www.w3.org/2000/svg" xmlns:xlink="http://www.w3.org/1999/xlink" x="0px" y="0px"
	 width="32px" height="32px" viewBox="0 0 32 32" enable-background="new 0 0 32 32" xml:space="preserve">
<path d="M16,0C10.069,0,3,0.694,3,4v24c0,3.306,7.069,4,13,4s13-0.694,13-4V4C29,0.694,21.931,0,16,0z M16,2c9.088,0,11,1.671,11,2
	s-1.912,2-11,2S5,4.329,5,4S6.912,2,16,2z M16,30c-9.088,0-11-1.671-11-2V6.473C7.523,7.682,12.014,8,16,8s8.477-0.318,11-1.527V28
	C27,28.329,25.088,30,16,30z"/>
<path d="M19.707,14.293c-0.391-0.391-1.023-0.391-1.414,0L16,16.586l-2.293-2.293c-0.391-0.391-1.023-0.391-1.414,0
	s-0.391,1.023,0,1.414L14.586,18l-2.293,2.293c-0.391,0.391-0.391,1.023,0,1.414C12.488,21.902,12.744,22,13,22
	s0.512-0.098,0.707-0.293L16,19.414l2.293,2.293C18.488,21.902,18.744,22,19,22s0.512-0.098,0.707-0.293
	c0.391-0.391,0.391-1.023,0-1.414L17.414,18l2.293-2.293C20.098,15.316,20.098,14.684,19.707,14.293z"/>
</svg>
