<?xml version="1.0" encoding="utf-8"?>
<!-- Generator: Adobe Illustrator 19.2.1, SVG Export Plug-In . SVG Version: 6.00 Build 0)  -->
<!DOCTYPE svg PUBLIC "-//W3C//DTD SVG 1.1//EN" "http://www.w3.org/Graphics/SVG/1.1/DTD/svg11.dtd">
<svg version="1.1" id="Layer_1" xmlns="http://www.w3.org/2000/svg" xmlns:xlink="http://www.w3.org/1999/xlink" x="0px" y="0px"
	 width="32px" height="32px" viewBox="0 0 32 32" enable-background="new 0 0 32 32" xml:space="preserve">
<path d="M11,23.5V26v1c0,2.757,2.243,5,5,5s5-2.243,5-5v-1v-2.5l3.6-2.7c0.252-0.188,0.4-0.485,0.4-0.8v-2c0-0.552-0.448-1-1-1h-2
	V3.5C22,1.57,20.43,0,18.5,0c-0.98,0-1.864,0.407-2.5,1.058C15.364,0.407,14.48,0,13.5,0C11.57,0,10,1.57,10,3.5V17H8
	c-0.552,0-1,0.448-1,1v2c0,0.315,0.148,0.611,0.4,0.8L11,23.5z M16,30c-1.654,0-3-1.346-3-3h6C19,28.654,17.654,30,16,30z M18.5,2
	C19.327,2,20,2.673,20,3.5V17h-3V3.5C17,2.673,17.673,2,18.5,2z M12,3.5C12,2.673,12.673,2,13.5,2S15,2.673,15,3.5V17h-3V3.5z M9,19
	h14v0.5l-3.6,2.7C19.148,22.389,19,22.685,19,23v2h-6v-2c0-0.315-0.148-0.611-0.4-0.8L9,19.5V19z"/>
</svg>
