<?xml version="1.0" encoding="utf-8"?>
<!-- Generator: Adobe Illustrator 19.1.0, SVG Export Plug-In . SVG Version: 6.00 Build 0)  -->
<!DOCTYPE svg PUBLIC "-//W3C//DTD SVG 1.1//EN" "http://www.w3.org/Graphics/SVG/1.1/DTD/svg11.dtd">
<svg version="1.1" id="Layer_1" xmlns="http://www.w3.org/2000/svg" xmlns:xlink="http://www.w3.org/1999/xlink" x="0px" y="0px"
	 width="48px" height="48px" viewBox="0 0 48 48" enable-background="new 0 0 48 48" xml:space="preserve">
<path data-color="color-2" fill="#444444" d="M9,7l-6,7h5v13c0,0.55225,0.44727,1,1,1s1-0.44775,1-1V14h5L9,7z"/>
<path fill="#444444" d="M41.11353,22.22266L30,20V9c0-1.65686-1.34314-3-3-3s-3,1.34314-3,3v19c0,0.55225-0.44775,1-1,1
	s-1-0.44775-1-1v-4h-2c-1.10455,0-2,0.89539-2,2v8c0,3.5,5,6.0625,5,10h18l3.25842-17.10657
	C44.66907,24.73743,43.26569,22.65314,41.11353,22.22266z"/>
</svg>
