<?xml version="1.0" encoding="utf-8"?>
<!-- Generator: Adobe Illustrator 19.1.0, SVG Export Plug-In . SVG Version: 6.00 Build 0)  -->
<!DOCTYPE svg PUBLIC "-//W3C//DTD SVG 1.1//EN" "http://www.w3.org/Graphics/SVG/1.1/DTD/svg11.dtd">
<svg version="1.1" id="Layer_1" xmlns="http://www.w3.org/2000/svg" xmlns:xlink="http://www.w3.org/1999/xlink" x="0px" y="0px"
	 width="48px" height="48px" viewBox="0 0 48 48" enable-background="new 0 0 48 48" xml:space="preserve">
<path fill="#444444" d="M35.88965,25.5553L34,25.28516l0-13.64265c0-1.30772-0.94098-2.49934-2.2422-2.62957
	C30.26133,8.86316,29,10.03425,29,11.5V23c0,0.55228-0.44771,1-1,1h0c-0.55228,0-1-0.44772-1-1l0.00001-12.35742
	c0-1.30772-0.94096-2.49936-2.24217-2.62963C23.26137,7.86315,22,9.03423,22,10.5V23c0,0.55225-0.44769,1-1,1s-1-0.44775-1-1
	l0.00001-11.35742c0-1.30772-0.94096-2.49936-2.24217-2.62963C16.26137,8.86315,15,10.03423,15,11.5V31c0,0.55225-0.44775,1-1,1
	s-1-0.44775-1-1v-4h-2c-1.10457,0-2,0.89543-2,2v8c0,3.5,5,6.0625,5,10h22l2.41211-17.91354
	C38.73232,27.4054,37.58371,25.79748,35.88965,25.5553z"/>
<path data-color="color-2" fill="#444444" d="M13,18.7049V11.5C13,9.01904,15.01855,7,17.5,7c0.15039,0,0.30371,0.00781,0.45703,0.02295
	c1.01367,0.10156,1.92871,0.56299,2.63184,1.25391C21.36426,6.91797,22.82715,6,24.5,6c0.15039,0,0.30371,0.00781,0.45703,0.02295
	c1.44629,0.14453,2.69336,1.02295,3.40625,2.25391C29.17383,7.48682,30.28125,7,31.50098,7
	c0.15039,0,0.30176,0.00732,0.45605,0.02246C34.22461,7.25,36,9.2793,36,11.64258v7.06268c1.85974-1.66602,3-4.07635,3-6.70526
	c0-4.9624-4.03711-9-9-9c-0.11621,0-0.23145,0.00342-0.3457,0.00879C28.05273,1.71045,26.06055,1,24,1
	c-2.07422,0-4.08008,0.7207-5.68752,2.03564C13.62305,3.3877,10,7.25928,10,12C10,14.62836,11.14026,17.0387,13,18.7049z"/>
</svg>
