<?xml version="1.0" encoding="utf-8"?>
<!-- Generator: Adobe Illustrator 19.1.0, SVG Export Plug-In . SVG Version: 6.00 Build 0)  -->
<!DOCTYPE svg PUBLIC "-//W3C//DTD SVG 1.1//EN" "http://www.w3.org/Graphics/SVG/1.1/DTD/svg11.dtd">
<svg version="1.1" id="Layer_1" xmlns="http://www.w3.org/2000/svg" xmlns:xlink="http://www.w3.org/1999/xlink" x="0px" y="0px"
	 width="48px" height="48px" viewBox="0 0 48 48" enable-background="new 0 0 48 48" xml:space="preserve">
<path data-color="color-2" fill="#444444" d="M14.01953,34.9248c-0.31152-0.25781-0.74805-0.30078-1.10742-0.11035l-3.9834,2.13202
	c-1.42914-4.08154-2.18262-8.39752-2.18262-12.75946c0-7.05615,1.93848-13.94824,5.60449-19.93018l-1.70508-1.04492
	c-3.85938,6.29639-5.89941,13.5498-5.89941,20.9751c0,4.69147,0.8327,9.33191,2.40375,13.71155l-4.62152,2.47351
	c-0.35547,0.19043-0.56152,0.57422-0.52441,0.97559c0.03809,0.40039,0.3125,0.74023,0.69727,0.86035l7.9082,2.48047
	c0.09766,0.03027,0.19824,0.0459,0.29883,0.0459c0.16016,0,0.32031-0.03906,0.46582-0.11523
	c0.23535-0.12305,0.41113-0.33594,0.49023-0.59082l2.47559-8.03809C14.45898,35.60352,14.33203,35.18262,14.01953,34.9248z"/>
<path fill="#444444" d="M45.73077,2.05707L28.76538,5.98462c-2.13824,0.495-3.47827,2.62054-3.00287,4.76331l2.45471,11.06451
	l-10.06311,4.44232c-1.51575,0.66913-2.20203,2.44025-1.53296,3.95599c0.66913,1.51575,2.44031,2.20209,3.95605,1.53296
	l16.99438-7.51392c0.50879-0.22412,1.09668,0.00537,1.31934,0.51074c0.22266,0.50488-0.00586,1.0957-0.51074,1.31885
	l-3.27704,1.44696l0.81183,1.83899c0.44611,1.0105,1.62683,1.46808,2.63733,1.02197l7.31866-3.23071L45.73077,2.05707z"/>
</svg>
