<?xml version="1.0" encoding="utf-8"?>
<!-- Generator: Adobe Illustrator 19.1.0, SVG Export Plug-In . SVG Version: 6.00 Build 0)  -->
<!DOCTYPE svg PUBLIC "-//W3C//DTD SVG 1.1//EN" "http://www.w3.org/Graphics/SVG/1.1/DTD/svg11.dtd">
<svg version="1.1" id="Layer_1" xmlns="http://www.w3.org/2000/svg" xmlns:xlink="http://www.w3.org/1999/xlink" x="0px" y="0px"
	 width="48px" height="48px" viewBox="0 0 48 48" enable-background="new 0 0 48 48" xml:space="preserve">
<path data-color="color-2" fill="#444444" d="M23,14c0,0.55273,0.44727,1,1,1s1-0.44727,1-1V7h5l-6-7l-6,7h5V14z"/>
<path fill="#444444" d="M35.88965,35.55524L34,35.2851V21.64246c0-1.30768-0.94098-2.49933-2.24219-2.62958
	C30.26135,18.86316,29,20.03424,29,21.49994v11.5c0,0.55231-0.44769,1-1,1s-1-0.44769-1-1V20.64252
	c0-1.30768-0.94098-2.49933-2.24219-2.62958C23.26135,17.8631,22,19.03418,22,20.49994v12.5c0,0.55225-0.44769,1-1,1s-1-0.44775-1-1
	V21.64252c0-1.30768-0.94098-2.49933-2.24219-2.62958C16.26135,18.8631,15,20.03418,15,21.49994v19.5c0,0.55225-0.44775,1-1,1
	s-1-0.44775-1-1v-4h-2c-1.10455,0-2,0.89545-2,2v8C9,47.34222,9.05945,47.67346,9.14575,48H38l0.41211-8.91357
	C38.7323,37.4054,37.58368,35.79742,35.88965,35.55524z"/>
</svg>
