<?xml version="1.0" encoding="utf-8"?>
<!-- Generator: Adobe Illustrator 19.1.0, SVG Export Plug-In . SVG Version: 6.00 Build 0)  -->
<!DOCTYPE svg PUBLIC "-//W3C//DTD SVG 1.1//EN" "http://www.w3.org/Graphics/SVG/1.1/DTD/svg11.dtd">
<svg version="1.1" id="Layer_1" xmlns="http://www.w3.org/2000/svg" xmlns:xlink="http://www.w3.org/1999/xlink" x="0px" y="0px"
	 width="48px" height="48px" viewBox="0 0 48 48" enable-background="new 0 0 48 48" xml:space="preserve">
<path fill="#444444" d="M35.4541,44.65381l-6.80273-18.3877c-0.95605-2.58496-3.84082-3.90967-6.42383-2.95459
	c-2.58594,0.95654-3.91113,3.83838-2.9541,6.4248l5.77441,15.6084c0.14453,0.39209,0.51855,0.65283,0.9375,0.65283l8.53125,0.00342
	c0.32715,0,0.63379-0.16016,0.82031-0.42822C35.52441,45.3042,35.56836,44.96094,35.4541,44.65381z"/>
<path data-color="color-2" fill="#444444" d="M25,16.05066V9h6l-7-8l-7,8h6v7.05066C17.4021,16.55817,13,21.27209,13,27
	c0,4.61737,2.81744,8.59131,6.90826,10.21729l-2.5108-6.78711c-0.64844-1.75146-0.57422-3.65283,0.20703-5.35303
	c0.78223-1.7002,2.17773-2.99316,3.92871-3.6416c0.78027-0.28809,1.59473-0.43408,2.42188-0.43408
	c2.91992,0,5.56055,1.83691,6.57227,4.5708l2.72058,7.35376C34.37213,31.17169,35,29.12256,35,27
	C35,21.27209,30.5979,16.55817,25,16.05066z"/>
</svg>
