<?xml version="1.0" encoding="utf-8"?>
<!-- Generator: Adobe Illustrator 19.1.0, SVG Export Plug-In . SVG Version: 6.00 Build 0)  -->
<!DOCTYPE svg PUBLIC "-//W3C//DTD SVG 1.1//EN" "http://www.w3.org/Graphics/SVG/1.1/DTD/svg11.dtd">
<svg version="1.1" id="Layer_1" xmlns="http://www.w3.org/2000/svg" xmlns:xlink="http://www.w3.org/1999/xlink" x="0px" y="0px"
	 width="48px" height="48px" viewBox="0 0 48 48" enable-background="new 0 0 48 48" xml:space="preserve">
<polygon data-color="color-2" fill="#444444" points="10.59766,12.96533 20.05469,8.60303 14.08752,6.40314 15.94775,1.36963 
	14.07178,0.67627 12.211,5.7113 6.23535,3.5083 "/>
<polygon data-color="color-2" fill="#444444" points="13.76758,25.6582 9.40527,16.20166 -0.05176,20.56396 5.90759,22.76074 
	4.03809,27.79883 5.91357,28.49463 7.78455,23.45264 "/>
<path fill="#444444" d="M40.47467,25.08075l-9.92029-2.91772c-0.63501-3.82727-1.88416-7.39594-3.30109-9.67358
	c-0.78552-1.2627-2.39166-1.84406-3.75806-1.25708c-1.74792,0.75085-2.34509,2.83716-1.36957,4.37451
	c1.62695,2.56378,2.48822,8.43152,2.10449,13.18829c-0.13898,1.72296-2.28479,2.43866-3.46002,1.17102l-1.90259-2.05206
	c-1.32581-1.40662-3.54095-1.47211-4.94757-0.14624s-1.47211,3.54095-0.14624,4.94757L24,46h18l3.26898-12.42224
	C46.23297,29.91479,44.10846,26.14954,40.47467,25.08075z"/>
</svg>
