<?xml version="1.0" encoding="utf-8"?>
<!-- Generator: Adobe Illustrator 19.1.0, SVG Export Plug-In . SVG Version: 6.00 Build 0)  -->
<!DOCTYPE svg PUBLIC "-//W3C//DTD SVG 1.1//EN" "http://www.w3.org/Graphics/SVG/1.1/DTD/svg11.dtd">
<svg version="1.1" id="Layer_1" xmlns="http://www.w3.org/2000/svg" xmlns:xlink="http://www.w3.org/1999/xlink" x="0px" y="0px"
	 width="48px" height="48px" viewBox="0 0 48 48" enable-background="new 0 0 48 48" xml:space="preserve">
<path fill="#444444" d="M2.43652,29.85352c-0.69971,0-1.3252-0.49121-1.46875-1.20312
	c-1.24756-6.18652,0.00049-12.48047,3.51416-17.72168c0.46143-0.6875,1.39307-0.87207,2.08105-0.41113
	c0.68848,0.46094,0.87207,1.39355,0.41113,2.08105C3.90918,17.1709,2.82031,22.66113,3.9082,28.05664
	c0.16406,0.8125-0.36182,1.60352-1.17383,1.76758C2.63428,29.84375,2.53467,29.85352,2.43652,29.85352z"/>
<path fill="#444444" d="M8.91309,9.5c-0.39844,0-0.79639-0.1582-1.09131-0.4707C7.25293,8.42676,7.28076,7.47754,7.88281,6.90918
	c3.18799-3.00879,7.15381-5.05859,11.46924-5.92871c5.26221-1.05957,10.56396-0.33105,15.33398,2.11035
	c0.7373,0.37695,1.0293,1.28125,0.65186,2.01855s-1.28076,1.03125-2.01904,0.65137
	c-4.15869-2.12891-8.78271-2.76465-13.37402-1.83887c-3.76465,0.75781-7.22363,2.5459-10.00244,5.16895
	C9.65234,9.36426,9.28223,9.5,8.91309,9.5z"/>
<path fill="#444444" d="M45.54883,21.16113c-0.69971,0-1.3252-0.49121-1.46875-1.20312
	c-0.92725-4.59766-3.42578-8.76953-7.03564-11.74805c-0.63916-0.52734-0.72949-1.47266-0.20264-2.1123
	c0.52686-0.63867,1.47217-0.73047,2.11182-0.20215c4.13916,3.41504,7.00439,8.19824,8.06689,13.46875
	c0.16406,0.8125-0.36182,1.60352-1.17383,1.76758C45.74658,21.15137,45.64697,21.16113,45.54883,21.16113z"/>
<path fill="#444444" d="M45.99658,25.9502c-0.00977,0-0.01953,0-0.0293,0c-0.82812-0.0166-1.48682-0.7002-1.4707-1.52832
	c0.02832-1.49023-0.10791-2.99316-0.40479-4.4668c-0.16406-0.8125,0.36182-1.60352,1.17383-1.76758
	c0.81055-0.16016,1.60254,0.3623,1.7666,1.17383c0.34033,1.6875,0.49658,3.40918,0.46338,5.11719
	C47.47998,25.29785,46.81152,25.9502,45.99658,25.9502z"/>
<path fill="#444444" d="M2.65967,30.79004c-0.67383,0-1.28564-0.45605-1.45508-1.13965
	c-0.08203-0.33105-0.15723-0.66602-0.2251-1.00293c-0.16309-0.8125,0.36279-1.60254,1.1748-1.7666
	c0.81006-0.16016,1.60254,0.36328,1.7666,1.1748c0.05908,0.29395,0.12451,0.58594,0.1958,0.87402
	c0.19922,0.80371-0.2915,1.61719-1.0957,1.81641C2.90039,30.77637,2.77881,30.79004,2.65967,30.79004z"/>
<path fill="#444444" d="M18.31689,46.75488c-0.35156,0-0.70459-0.12305-0.98975-0.37305
	c-0.62207-0.54688-0.68359-1.49414-0.13672-2.11719c4.84033-5.50879,6.78613-12.78516,5.33936-19.96191
	c-0.16406-0.8125,0.36182-1.60352,1.17383-1.76758c0.81055-0.16113,1.60254,0.3623,1.7666,1.17383
	c1.63379,8.10352-0.5625,16.31738-6.02588,22.53613C19.14795,46.58203,18.7334,46.75488,18.31689,46.75488z"/>
<path data-color="color-2" fill="#444444" d="M24.69531,47.4873c-0.2915,0-0.58643-0.08496-0.8457-0.26172
	c-0.68359-0.46777-0.8584-1.40137-0.39062-2.08496c4.33057-6.3291,6.12842-15.11523,4.47363-21.86328
	c-0.59082-2.44629-2.40234-3.66895-4.73096-3.20117c-2.21191,0.44629-3.55273,2.48047-3.11816,4.73242
	c1.37988,7.15039-0.93115,14.35254-6.18213,19.26465c-0.60547,0.56641-1.55469,0.53516-2.12012-0.07129
	c-0.56592-0.60449-0.53467-1.55371,0.07031-2.12012c4.49316-4.20312,6.46973-10.37305,5.28662-16.50488
	c-0.74365-3.85254,1.65918-7.47363,5.4707-8.24219c3.89014-0.77832,7.27686,1.45117,8.23877,5.43262
	c1.84424,7.52246-0.12939,17.27637-4.91309,24.2666C25.64404,47.25879,25.17383,47.4873,24.69531,47.4873z"/>
<path fill="#444444" d="M8.44238,41.05371c-0.43457,0-0.86475-0.1875-1.16162-0.5498
	c-0.5249-0.64062-0.43066-1.58594,0.21045-2.11035c3.06543-2.51074,4.73926-6.3584,4.47705-10.29395
	c-0.05518-0.82617,0.57031-1.54102,1.39697-1.59668c0.81152-0.04785,1.54102,0.57031,1.59619,1.39746
	c0.32666,4.90039-1.75537,9.69043-5.56982,12.81348C9.11279,40.94238,8.77637,41.05371,8.44238,41.05371z"/>
<path fill="#444444" d="M35.36816,27.5c-0.77295,0-1.4292-0.59277-1.49365-1.37695c-0.10938-1.33008-0.2998-2.67383-0.56592-3.99316
	c-0.00488-0.02441-0.00928-0.04883-0.01318-0.07324c-0.51465-2.45801-1.94824-4.57422-4.04199-5.96484
	c-2.11377-1.4043-4.64648-1.90332-7.13721-1.40039c-4.07422,0.82031-7.19336,4.28027-7.58545,8.41309
	c-0.07812,0.8252-0.81592,1.43359-1.63477,1.35156c-0.82471-0.07812-1.43018-0.81055-1.35156-1.63477
	c0.51611-5.43848,4.61963-9.99121,9.979-11.07129c6.76172-1.35645,13.36475,3.02734,14.72754,9.78516
	c0.00537,0.02734,0.01025,0.05371,0.01416,0.08008c0.28076,1.4082,0.48242,2.8418,0.59961,4.26172
	c0.06787,0.82617-0.54639,1.5498-1.37207,1.61816C35.45068,27.49805,35.40918,27.5,35.36816,27.5z"/>
<path fill="#444444" d="M31.88281,46.03418c-0.2207,0-0.44434-0.04883-0.65625-0.15137
	c-0.74463-0.36328-1.0542-1.26074-0.69141-2.00586c1.99121-4.08594,3.13428-8.44824,3.39795-12.96387
	c0.04785-0.82812,0.74951-1.4668,1.58496-1.41016c0.82715,0.04785,1.4585,0.75781,1.41016,1.58398
	c-0.28662,4.91406-1.53027,9.65918-3.6958,14.10449C32.97266,45.72461,32.43848,46.03418,31.88281,46.03418z"/>
<path data-color="color-2" fill="#444444" d="M5.06787,36.71094c-0.42578,0-0.84863-0.17969-1.14551-0.53027
	c-0.53564-0.63184-0.45703-1.57812,0.1748-2.11426c1.84717-1.56543,2.71729-3.99219,2.29102-6.36328
	c-0.01416-0.0459-0.02588-0.0918-0.03516-0.13867C4.53613,18.55566,9.75977,9.65723,18.50342,6.86719
	c0.78809-0.25391,1.63281,0.18262,1.88525,0.97266c0.25146,0.78906-0.18408,1.63281-0.97314,1.88477
	C12.1792,12.03418,7.8374,19.36621,9.26465,26.82324c0.01465,0.04785,0.02734,0.09668,0.03711,0.14551
	c0.70361,3.4873-0.54785,7.08398-3.26514,9.38672C5.75488,36.59375,5.41016,36.71094,5.06787,36.71094z"/>
<path data-color="color-2" fill="#444444" d="M39.60498,40.99707c-0.12793,0-0.25781-0.01562-0.38721-0.05078
	c-0.80078-0.21289-1.27637-1.03516-1.06299-1.83594c1.57422-5.90527,1.7627-11.9541,0.56006-17.98242
	c-0.00732-0.02832-0.01367-0.05664-0.01953-0.08496C37.28857,14.06738,31.11426,9.00684,24.0127,9.00684
	c-0.00391,0-0.00781,0-0.01172,0H24c-0.82812,0-1.49951-0.6709-1.5-1.49902s0.67041-1.5,1.49902-1.50098
	c0.00391,0,0.00928,0,0.01367,0c8.49463,0,15.88184,6.02832,17.60498,14.35254c0.00781,0.03027,0.01514,0.06055,0.021,0.09082
	c1.31348,6.5127,1.11621,13.05078-0.58545,19.43359C40.87451,40.55469,40.26807,40.99707,39.60498,40.99707z"/>
</svg>
