<?xml version="1.0" encoding="utf-8"?>
<!-- Generator: Adobe Illustrator 19.1.0, SVG Export Plug-In . SVG Version: 6.00 Build 0)  -->
<!DOCTYPE svg PUBLIC "-//W3C//DTD SVG 1.1//EN" "http://www.w3.org/Graphics/SVG/1.1/DTD/svg11.dtd">
<svg version="1.1" id="Layer_1" xmlns="http://www.w3.org/2000/svg" xmlns:xlink="http://www.w3.org/1999/xlink" x="0px" y="0px"
	 width="48px" height="48px" viewBox="0 0 48 48" enable-background="new 0 0 48 48" xml:space="preserve">
<path data-color="color-2" fill="#444444" d="M47,24l-8-7v6h-7.05066C31.44183,17.4021,26.72791,13,21,13
	c-4.61737,0-8.59131,2.81744-10.21729,6.90826l6.78711-2.5108c1.75146-0.64844,3.65283-0.57422,5.35303,0.20703
	c1.7002,0.78223,2.99316,2.17773,3.6416,3.92871c0.28809,0.78027,0.43408,1.59473,0.43408,2.42188
	c0,2.91992-1.83691,5.56055-4.5708,6.57227l-7.35376,2.72058C16.82831,34.37213,18.87744,35,21,35
	c5.72791,0,10.44183-4.4021,10.94934-10H39v6L47,24z"/>
<path fill="#444444" d="M24.68848,22.22754c-0.95654-2.58594-3.83838-3.91113-6.4248-2.9541l-15.6084,5.77441
	c-0.39209,0.14453-0.65283,0.51855-0.65283,0.9375L1.99902,34.5166c0,0.32715,0.16016,0.63379,0.42822,0.82031
	c0.26855,0.1875,0.61182,0.23145,0.91895,0.11719l18.3877-6.80273C24.31885,27.69531,25.64355,24.81055,24.68848,22.22754z"/>
</svg>
