<?xml version="1.0" encoding="utf-8"?>
<!-- Generator: Adobe Illustrator 19.1.0, SVG Export Plug-In . SVG Version: 6.00 Build 0)  -->
<!DOCTYPE svg PUBLIC "-//W3C//DTD SVG 1.1//EN" "http://www.w3.org/Graphics/SVG/1.1/DTD/svg11.dtd">
<svg version="1.1" id="Layer_1" xmlns="http://www.w3.org/2000/svg" xmlns:xlink="http://www.w3.org/1999/xlink" x="0px" y="0px"
	 width="48px" height="48px" viewBox="0 0 48 48" enable-background="new 0 0 48 48" xml:space="preserve">
<circle fill="#444444" cx="24" cy="7" r="5"/>
<circle fill="#444444" cx="40" cy="7" r="5"/>
<circle fill="#444444" cx="40" cy="24" r="5"/>
<circle fill="#444444" cx="8" cy="41" r="5"/>
<path data-color="color-2" fill="#444444" d="M40,36c-0.94904,0-1.82678,0.27924-2.58264,0.7384l-9.34546-9.85303
	C28.65161,26.06903,29,25.07745,29,24c0-2.76141-2.23859-5-5-5c-2.42572,0-4.44543,1.72821-4.90125,4.01996
	C19.06464,23.01642,19.03503,23,19,23h-6c-0.03503,0-0.06464,0.01642-0.09875,0.01996
	c-0.3927-1.97455-1.94659-3.52844-3.92114-3.9212C8.98364,19.06464,9,19.03503,9,19v-7c0-0.03503-0.01636-0.06464-0.0199-0.09875
	C11.27185,11.44537,13,9.42572,13,7c0-2.76141-2.23859-5-5-5S3,4.23859,3,7c0,2.42572,1.72821,4.44543,4.01996,4.90125
	C7.01642,11.93536,7,11.96497,7,12v7c0,0.03503,0.01642,0.06464,0.01996,0.09875C4.72821,19.55457,3,21.57428,3,24
	c0,2.76141,2.23859,5,5,5c2.42572,0,4.44543-1.72821,4.90125-4.01996C12.93536,24.98358,12.96497,25,13,25h6
	c0.03503,0,0.06464-0.01642,0.09875-0.01996C19.55457,27.27179,21.57428,29,24,29c0.95898,0,1.84613-0.28357,2.60712-0.75165
	l9.3382,9.84534c-0.40735,0.56702-0.70532,1.21625-0.84656,1.92621C35.06464,40.01636,35.03503,40,35,40h-6
	c-0.03503,0-0.06464,0.01636-0.09875,0.0199C28.44537,37.72815,26.42572,36,24,36c-2.76141,0-5,2.23859-5,5s2.23859,5,5,5
	c2.42572,0,4.44537-1.72815,4.90125-4.0199C28.93536,41.98364,28.96497,42,29,42h6c0.03503,0,0.06464-0.01636,0.09875-0.0199
	C35.55463,44.27185,37.57428,46,40,46c2.76141,0,5-2.23859,5-5S42.76141,36,40,36z"/>
</svg>
