<?xml version="1.0" encoding="utf-8"?>
<!-- Generator: Adobe Illustrator 19.1.0, SVG Export Plug-In . SVG Version: 6.00 Build 0)  -->
<!DOCTYPE svg PUBLIC "-//W3C//DTD SVG 1.1//EN" "http://www.w3.org/Graphics/SVG/1.1/DTD/svg11.dtd">
<svg version="1.1" id="Layer_1" xmlns="http://www.w3.org/2000/svg" xmlns:xlink="http://www.w3.org/1999/xlink" x="0px" y="0px"
	 width="48px" height="48px" viewBox="0 0 48 48" enable-background="new 0 0 48 48" xml:space="preserve">
<path fill="#444444" d="M40.47467,25.08075l-9.92029-2.91772c-0.63501-3.82727-1.88416-7.39594-3.30109-9.67358
	c-0.78552-1.2627-2.39166-1.84406-3.75806-1.25708c-1.74792,0.75085-2.34509,2.83716-1.36957,4.37451
	c1.62695,2.56378,2.48822,8.43152,2.10455,13.18829c-0.13904,1.72296-2.28485,2.43866-3.46008,1.17102l-1.90259-2.05206
	c-1.32581-1.40662-3.54095-1.47211-4.94757-0.14624s-1.47211,3.54095-0.14624,4.94757L24,46h18l3.26904-12.42224
	C46.23297,29.91479,44.10846,26.14954,40.47467,25.08075z"/>
<path data-color="color-2" fill="#444444" d="M3.03906,11.51465c0-3.52344,2.97656-6.5,6.5-6.5c1.50104,0,2.90662,0.51068,4.03259,1.42853
	l-2.49677,2.6864l6.68646,0.35126l-0.60632-6.89319l-2.21594,2.38428c-1.49445-1.25989-3.38318-1.95728-5.40002-1.95728
	c-4.68701,0-8.5,3.81299-8.5,8.5c0,0.55225,0.44775,1,1,1S3.03906,12.06689,3.03906,11.51465z"/>
<path data-color="color-2" fill="#444444" d="M18.96094,12.48535c0-0.55225-0.44775-1-1-1s-1,0.44775-1,1c0,3.52344-2.97656,6.5-6.5,6.5
	c-1.50104,0-2.90662-0.51068-4.03259-1.42853l2.49683-2.6864l-6.68652-0.35126l0.60638,6.89313l2.21594-2.38422
	c1.49445,1.25989,3.38312,1.95728,5.39996,1.95728C15.14795,20.98535,18.96094,17.17236,18.96094,12.48535z"/>
</svg>
