<?xml version="1.0" encoding="utf-8"?>
<!-- Generator: Adobe Illustrator 19.2.1, SVG Export Plug-In . SVG Version: 6.00 Build 0)  -->
<!DOCTYPE svg PUBLIC "-//W3C//DTD SVG 1.1//EN" "http://www.w3.org/Graphics/SVG/1.1/DTD/svg11.dtd">
<svg version="1.1" id="Layer_1" xmlns="http://www.w3.org/2000/svg" xmlns:xlink="http://www.w3.org/1999/xlink" x="0px" y="0px"
	 width="24px" height="24px" viewBox="0 0 24 24" enable-background="new 0 0 24 24" xml:space="preserve">
<path d="M17.5,0C13.916,0,11,2.916,11,6.5v0.086l-2-2L7.586,6L12,10.414L16.414,6L15,4.586l-2,2V6.5C13,4.019,15.019,2,17.5,2
	S22,4.019,22,6.5S19.981,11,17.5,11h-11C2.916,11,0,13.916,0,17.5S2.916,24,6.5,24s6.5-2.916,6.5-6.5v-0.086l2,2L16.414,18
	L12,13.586L7.586,18L9,19.414l2-2V17.5c0,2.481-2.019,4.5-4.5,4.5S2,19.981,2,17.5S4.019,13,6.5,13h11c3.584,0,6.5-2.916,6.5-6.5
	S21.084,0,17.5,0z"/>
</svg>
