<?xml version="1.0" encoding="utf-8"?>
<!-- Generator: Adobe Illustrator 19.2.1, SVG Export Plug-In . SVG Version: 6.00 Build 0)  -->
<!DOCTYPE svg PUBLIC "-//W3C//DTD SVG 1.1//EN" "http://www.w3.org/Graphics/SVG/1.1/DTD/svg11.dtd">
<svg version="1.1" id="Layer_1" xmlns="http://www.w3.org/2000/svg" xmlns:xlink="http://www.w3.org/1999/xlink" x="0px" y="0px"
	 width="24px" height="24px" viewBox="0 0 24 24" enable-background="new 0 0 24 24" xml:space="preserve">
<path d="M4.219,6H1v2h3.219c0.85,0,1.662,0.362,2.229,0.993l0.623,0.691l1.486-1.338L7.935,7.655C6.989,6.604,5.635,6,4.219,6z"/>
<path d="M17.586,14l2,2h-2.805c-0.85,0-1.662-0.362-2.229-0.993l-0.609-0.677l-1.486,1.338l0.609,0.677
	c0.945,1.052,2.3,1.655,3.716,1.655h2.805l-2,2L19,21.414L23.414,17L19,12.586L17.586,14z"/>
<path d="M17.586,4l2,2h-2.805c-1.416,0-2.771,0.604-3.716,1.655l-6.617,7.352C5.881,15.638,5.068,16,4.219,16H1v2h3.219
	c1.416,0,2.771-0.604,3.716-1.655l6.617-7.352C15.119,8.362,15.932,8,16.781,8h2.805l-2,2L19,11.414L23.414,7L19,2.586L17.586,4z"/>
</svg>
