<?xml version="1.0" encoding="utf-8"?>
<!-- Generator: Adobe Illustrator 19.2.1, SVG Export Plug-In . SVG Version: 6.00 Build 0)  -->
<!DOCTYPE svg PUBLIC "-//W3C//DTD SVG 1.1//EN" "http://www.w3.org/Graphics/SVG/1.1/DTD/svg11.dtd">
<svg version="1.1" id="Layer_1" xmlns="http://www.w3.org/2000/svg" xmlns:xlink="http://www.w3.org/1999/xlink" x="0px" y="0px"
	 width="24px" height="24px" viewBox="0 0 24 24" enable-background="new 0 0 24 24" xml:space="preserve">
<polygon points="15,11 15,13 19.586,13 17.586,15 19,16.414 23.414,12 19,7.586 17.586,9 19.586,11 "/>
<polygon points="11,15 11,19.586 9,17.586 7.586,19 12,23.414 16.414,19 15,17.586 13,19.586 13,15 "/>
<polygon points="11,4.414 11,9 13,9 13,4.414 15,6.414 16.414,5 12,0.586 7.586,5 9,6.414 "/>
<polygon points="6.414,15 4.414,13 9,13 9,11 4.414,11 6.414,9 5,7.586 0.586,12 5,16.414 "/>
</svg>
