<?xml version="1.0" encoding="utf-8"?>
<!-- Generator: Adobe Illustrator 19.2.1, SVG Export Plug-In . SVG Version: 6.00 Build 0)  -->
<!DOCTYPE svg PUBLIC "-//W3C//DTD SVG 1.1//EN" "http://www.w3.org/Graphics/SVG/1.1/DTD/svg11.dtd">
<svg version="1.1" id="Layer_1" xmlns="http://www.w3.org/2000/svg" xmlns:xlink="http://www.w3.org/1999/xlink" x="0px" y="0px"
	 width="24px" height="24px" viewBox="0 0 24 24" enable-background="new 0 0 24 24" xml:space="preserve">
<polygon points="15,13.414 16.414,12 12,7.586 7.586,12 9,13.414 11,11.414 11,22 13,22 13,11.414 "/>
<path d="M19.872,8.077C19.19,4.046,15.667,1,11.5,1C7.196,1,3.623,4.196,3.081,8.396C1.236,9.161,0,10.963,0,13c0,2.757,2.243,5,5,5
	h4v-2H5c-1.654,0-3-1.346-3-3c0-1.366,0.931-2.557,2.265-2.895l0.717-0.183l0.036-0.739C5.184,5.716,8.032,3,11.5,3
	c3.408,0,6.253,2.666,6.477,6.068l0.062,0.941l0.943-0.007c0.844,0.023,1.561,0.302,2.129,0.866C21.685,11.438,22,12.194,22,13
	c0,1.654-1.346,3-3,3h-4v2h4c2.757,0,5-2.243,5-5c0-1.343-0.525-2.604-1.479-3.551C21.788,8.723,20.87,8.25,19.872,8.077z"/>
</svg>
