<?xml version="1.0" encoding="utf-8"?>
<!-- Generator: Adobe Illustrator 19.2.1, SVG Export Plug-In . SVG Version: 6.00 Build 0)  -->
<!DOCTYPE svg PUBLIC "-//W3C//DTD SVG 1.1//EN" "http://www.w3.org/Graphics/SVG/1.1/DTD/svg11.dtd">
<svg version="1.1" id="Layer_1" xmlns="http://www.w3.org/2000/svg" xmlns:xlink="http://www.w3.org/1999/xlink" x="0px" y="0px"
	 width="24px" height="24px" viewBox="0 0 24 24" enable-background="new 0 0 24 24" xml:space="preserve">
<polygon points="13,19.586 13,9 11,9 11,19.586 9,17.586 7.586,19 12,23.414 16.414,19 15,17.586 "/>
<path d="M19.872,7.077C19.19,3.046,15.667,0,11.5,0C7.196,0,3.623,3.196,3.081,7.396C1.236,8.161,0,9.963,0,12c0,2.757,2.243,5,5,5
	h3v-2H5c-1.654,0-3-1.346-3-3c0-1.366,0.931-2.557,2.265-2.895l0.717-0.183l0.036-0.739C5.184,4.716,8.032,2,11.5,2
	c3.408,0,6.253,2.666,6.477,6.068l0.062,0.941l0.943-0.007c0.845,0.02,1.561,0.302,2.129,0.866C21.685,10.438,22,11.194,22,12
	c0,1.654-1.346,3-3,3h-3v2h3c2.757,0,5-2.243,5-5c0-1.343-0.525-2.604-1.479-3.551C21.788,7.723,20.87,7.25,19.872,7.077z"/>
</svg>
