<?xml version="1.0" encoding="utf-8"?>
<!-- Generator: Adobe Illustrator 19.2.1, SVG Export Plug-In . SVG Version: 6.00 Build 0)  -->
<!DOCTYPE svg PUBLIC "-//W3C//DTD SVG 1.1//EN" "http://www.w3.org/Graphics/SVG/1.1/DTD/svg11.dtd">
<svg version="1.1" id="Layer_1" xmlns="http://www.w3.org/2000/svg" xmlns:xlink="http://www.w3.org/1999/xlink" x="0px" y="0px"
	 width="24px" height="24px" viewBox="0 0 24 24" enable-background="new 0 0 24 24" xml:space="preserve">
<path d="M16.586,3l3,3H17c-2.086,0-3.924,1.071-5,2.69C10.924,7.071,9.086,6,7,6H4.414l3-3L6,1.586L0.586,7L6,12.414L7.414,11l-3-3
	H7c2.206,0,4,1.794,4,4v9h2v-9c0-2.206,1.794-4,4-4h2.586l-3,3L18,12.414L23.414,7L18,1.586L16.586,3z"/>
</svg>
