<?xml version="1.0" encoding="utf-8"?>
<!-- Generator: Adobe Illustrator 19.2.1, SVG Export Plug-In . SVG Version: 6.00 Build 0)  -->
<!DOCTYPE svg PUBLIC "-//W3C//DTD SVG 1.1//EN" "http://www.w3.org/Graphics/SVG/1.1/DTD/svg11.dtd">
<svg version="1.1" id="Layer_1" xmlns="http://www.w3.org/2000/svg" xmlns:xlink="http://www.w3.org/1999/xlink" x="0px" y="0px"
	 width="24px" height="24px" viewBox="0 0 24 24" enable-background="new 0 0 24 24" xml:space="preserve">
<polygon fill="#222221" points="11,6 11,12.414 16,17.414 17.414,16 13,11.586 13,6 "/>
<path fill="#222221" d="M23,12c0-6.065-4.935-11-11-11C8.692,1,5.689,2.435,3.663,4.843L3.082,1.417L1.11,1.752l1.171,6.901
	l6.901-1.171L8.848,5.511L5.19,6.131C6.842,4.169,9.295,3,12,3c4.963,0,9,4.037,9,9s-4.037,9-9,9s-9-4.037-9-9H1
	c0,6.065,4.935,11,11,11S23,18.065,23,12z"/>
</svg>
