<?xml version="1.0" encoding="utf-8"?>
<!-- Generator: Adobe Illustrator 19.2.1, SVG Export Plug-In . SVG Version: 6.00 Build 0)  -->
<!DOCTYPE svg PUBLIC "-//W3C//DTD SVG 1.1//EN" "http://www.w3.org/Graphics/SVG/1.1/DTD/svg11.dtd">
<svg version="1.1" id="Layer_1" xmlns="http://www.w3.org/2000/svg" xmlns:xlink="http://www.w3.org/1999/xlink" x="0px" y="0px"
	 width="24px" height="24px" viewBox="0 0 24 24" enable-background="new 0 0 24 24" xml:space="preserve">
<polygon points="2,2 8,2 8,0 0,0 0,8 2,8 "/>
<polygon points="16,2 22,2 22,8 24,8 24,0 16,0 "/>
<polygon points="22,22 16,22 16,24 24,24 24,16 22,16 "/>
<polygon points="8,22 2,22 2,16 0,16 0,24 8,24 "/>
<path d="M12,17c2.757,0,5-2.243,5-5s-2.243-5-5-5s-5,2.243-5,5S9.243,17,12,17z M12,9c1.654,0,3,1.346,3,3s-1.346,3-3,3
	s-3-1.346-3-3S10.346,9,12,9z"/>
</svg>
