<?xml version="1.0" encoding="utf-8"?>
<!-- Generator: Adobe Illustrator 19.2.1, SVG Export Plug-In . SVG Version: 6.00 Build 0)  -->
<!DOCTYPE svg PUBLIC "-//W3C//DTD SVG 1.1//EN" "http://www.w3.org/Graphics/SVG/1.1/DTD/svg11.dtd">
<svg version="1.1" id="Layer_1" xmlns="http://www.w3.org/2000/svg" xmlns:xlink="http://www.w3.org/1999/xlink" x="0px" y="0px"
	 width="24px" height="24px" viewBox="0 0 24 24" enable-background="new 0 0 24 24" xml:space="preserve">
<path d="M18,11.414L23.414,6L18,0.586L16.586,2l3,3H8c-3.86,0-7,3.141-7,7v1h2v-1c0-2.757,2.243-5,5-5h11.586l-3,3L18,11.414z"/>
<path d="M6,23.414L7.414,22l-3-3H16c3.86,0,7-3.141,7-7v-1h-2v1c0,2.757-2.243,5-5,5H4.414l3-3L6,12.586L0.586,18L6,23.414z"/>
</svg>
