<?xml version="1.0" encoding="utf-8"?>
<!-- Generator: Adobe Illustrator 19.2.1, SVG Export Plug-In . SVG Version: 6.00 Build 0)  -->
<!DOCTYPE svg PUBLIC "-//W3C//DTD SVG 1.1//EN" "http://www.w3.org/Graphics/SVG/1.1/DTD/svg11.dtd">
<svg version="1.1" id="Layer_1" xmlns="http://www.w3.org/2000/svg" xmlns:xlink="http://www.w3.org/1999/xlink" x="0px" y="0px"
	 width="24px" height="24px" viewBox="0 0 24 24" enable-background="new 0 0 24 24" xml:space="preserve">
<polygon points="7.056,9.667 8.542,8.329 6.445,6 1,6 1,8 5.555,8 "/>
<polygon points="17.586,14 19.586,16 15.445,16 13.949,14.338 12.463,15.676 14.555,18 19.586,18 17.586,20 19,21.414 23.414,17 
	19,12.586 "/>
<polygon points="17.586,4 19.586,6 14.555,6 5.555,16 1,16 1,18 6.445,18 15.445,8 19.586,8 17.586,10 19,11.414 23.414,7 19,2.586 
	"/>
</svg>
