<?xml version="1.0" encoding="utf-8"?>
<!-- Generator: Adobe Illustrator 19.2.1, SVG Export Plug-In . SVG Version: 6.00 Build 0)  -->
<!DOCTYPE svg PUBLIC "-//W3C//DTD SVG 1.1//EN" "http://www.w3.org/Graphics/SVG/1.1/DTD/svg11.dtd">
<svg version="1.1" id="Layer_1" xmlns="http://www.w3.org/2000/svg" xmlns:xlink="http://www.w3.org/1999/xlink" x="0px" y="0px"
	 width="24px" height="24px" viewBox="0 0 24 24" enable-background="new 0 0 24 24" xml:space="preserve">
<path d="M19,11.414L23.414,7L19,2.586L17.586,4l2,2h-5.515c-1.602,0-3.108,0.624-4.243,1.757L6.586,11H1v2h5.586l3.242,3.243
	C10.963,17.376,12.47,18,14.071,18h5.515l-2,2L19,21.414L23.414,17L19,12.586L17.586,14l2,2h-5.515
	c-1.068,0-2.073-0.416-2.829-1.171L8.414,12l2.828-2.828C11.998,8.416,13.003,8,14.071,8h5.515l-2,2L19,11.414z"/>
</svg>
