<?xml version="1.0" encoding="utf-8"?>
<!-- Generator: Adobe Illustrator 19.2.1, SVG Export Plug-In . SVG Version: 6.00 Build 0)  -->
<!DOCTYPE svg PUBLIC "-//W3C//DTD SVG 1.1//EN" "http://www.w3.org/Graphics/SVG/1.1/DTD/svg11.dtd">
<svg version="1.1" id="Layer_1" xmlns="http://www.w3.org/2000/svg" xmlns:xlink="http://www.w3.org/1999/xlink" x="0px" y="0px"
	 width="24px" height="24px" viewBox="0 0 24 24" enable-background="new 0 0 24 24" xml:space="preserve">
<path fill="#222221" d="M6,18.414L7.414,17l-3-3h3.728c0.447,1.721,2,3,3.858,3s3.411-1.279,3.858-3h3.728l-3,3L18,18.414L23.414,13
	L18,7.586L16.586,9l3,3h-3.728c-0.447-1.721-2-3-3.858-3s-3.411,1.279-3.858,3H4.414l3-3L6,7.586L0.586,13L6,18.414z M12,11
	c1.103,0,2,0.897,2,2s-0.897,2-2,2s-2-0.897-2-2S10.897,11,12,11z"/>
</svg>
