<?xml version="1.0" encoding="utf-8"?>
<!-- Generator: Adobe Illustrator 19.1.0, SVG Export Plug-In . SVG Version: 6.00 Build 0)  -->
<!DOCTYPE svg PUBLIC "-//W3C//DTD SVG 1.1//EN" "http://www.w3.org/Graphics/SVG/1.1/DTD/svg11.dtd">
<svg version="1.1" id="Layer_1" xmlns="http://www.w3.org/2000/svg" xmlns:xlink="http://www.w3.org/1999/xlink" x="0px" y="0px"
	 width="64px" height="64px" viewBox="0 0 64 64" enable-background="new 0 0 64 64" xml:space="preserve">
<path d="M61.6,43.2l-23-16C38.4,27.1,38.2,27,38,27H26c-0.2,0-0.4,0.1-0.6,0.2l-23,16C2.2,43.4,2,43.7,2,44v7c0,0.6,0.4,1,1,1h58
	c0.6,0,1-0.4,1-1v-7C62,43.7,61.8,43.4,61.6,43.2z"/>
<path id="color_42_" d="M39,25v-6c0-3.5-2.6-6.4-6-6.9V2c0-0.6-0.4-1-1-1c-0.6,0-1,0.4-1,1v10.1c-3.4,0.5-6,3.4-6,6.9v6H39z"/>
<path id="color_41_" d="M21.2,54c0.9,5.1,5.4,9,10.8,9c5.4,0,9.9-3.9,10.8-9H21.2z"/>
</svg>
