<?xml version="1.0" encoding="utf-8"?>
<!-- Generator: Adobe Illustrator 19.1.0, SVG Export Plug-In . SVG Version: 6.00 Build 0)  -->
<!DOCTYPE svg PUBLIC "-//W3C//DTD SVG 1.1//EN" "http://www.w3.org/Graphics/SVG/1.1/DTD/svg11.dtd">
<svg version="1.1" id="Layer_1" xmlns="http://www.w3.org/2000/svg" xmlns:xlink="http://www.w3.org/1999/xlink" x="0px" y="0px"
	 width="64px" height="64px" viewBox="0 0 64 64" enable-background="new 0 0 64 64" xml:space="preserve">
<path d="M54,11H3v-1c0-3.9,3.1-7,7-7h22c0.6,0,1-0.4,1-1s-0.4-1-1-1H10c-5,0-9,4-9,9v2v12v38c0,0.6,0.4,1,1,1h18c0.6,0,1-0.4,1-1V29
	h33c5,0,9-4,9-9S59,11,54,11z"/>
<path id="color_8_" d="M45,49.2c0-3.7,6-11.2,6-11.2s6,7.5,6,11.2c0,3.7-3,5.8-6,5.8S45,52.9,45,49.2z"/>
</svg>
