<?xml version="1.0" encoding="utf-8"?>
<!-- Generator: Adobe Illustrator 19.1.0, SVG Export Plug-In . SVG Version: 6.00 Build 0)  -->
<!DOCTYPE svg PUBLIC "-//W3C//DTD SVG 1.1//EN" "http://www.w3.org/Graphics/SVG/1.1/DTD/svg11.dtd">
<svg version="1.1" id="Layer_1" xmlns="http://www.w3.org/2000/svg" xmlns:xlink="http://www.w3.org/1999/xlink" x="0px" y="0px"
	 width="64px" height="64px" viewBox="0 0 64 64" enable-background="new 0 0 64 64" xml:space="preserve">
<path d="M61,29V2c0-0.6-0.4-1-1-1H4C3.4,1,3,1.4,3,2v27H61z M49,7h2c0.6,0,1,0.4,1,1v14c0,0.6-0.4,1-1,1h-2c-0.6,0-1-0.4-1-1V8
	C48,7.4,48.4,7,49,7z M42,7h2c0.6,0,1,0.4,1,1v14c0,0.6-0.4,1-1,1h-2c-0.6,0-1-0.4-1-1V8C41,7.4,41.4,7,42,7z M35,7h2
	c0.6,0,1,0.4,1,1v14c0,0.6-0.4,1-1,1h-2c-0.6,0-1-0.4-1-1V8C34,7.4,34.4,7,35,7z M15,19h14c0.6,0,1,0.4,1,1v2c0,0.6-0.4,1-1,1H15
	c-0.6,0-1-0.4-1-1v-2C14,19.4,14.4,19,15,19z"/>
<path id="color_15_" d="M3,31v27c0,0.6,0.4,1,1,1h5v3c0,0.6,0.4,1,1,1c0.6,0,1-0.4,1-1v-3h42v3c0,0.6,0.4,1,1,1c0.6,0,1-0.4,1-1v-3
	h5c0.6,0,1-0.4,1-1V31H3z M15,53h-2c-0.6,0-1-0.4-1-1V38c0-0.6,0.4-1,1-1h2c0.6,0,1,0.4,1,1v14C16,52.6,15.6,53,15,53z M22,53h-2
	c-0.6,0-1-0.4-1-1V38c0-0.6,0.4-1,1-1h2c0.6,0,1,0.4,1,1v14C23,52.6,22.6,53,22,53z M29,53h-2c-0.6,0-1-0.4-1-1V38c0-0.6,0.4-1,1-1
	h2c0.6,0,1,0.4,1,1v14C30,52.6,29.6,53,29,53z M49,53H35c-0.6,0-1-0.4-1-1v-2c0-0.6,0.4-1,1-1h14c0.6,0,1,0.4,1,1v2
	C50,52.6,49.6,53,49,53z"/>
</svg>
