<?xml version="1.0" encoding="utf-8"?>
<!-- Generator: Adobe Illustrator 19.1.0, SVG Export Plug-In . SVG Version: 6.00 Build 0)  -->
<!DOCTYPE svg PUBLIC "-//W3C//DTD SVG 1.1//EN" "http://www.w3.org/Graphics/SVG/1.1/DTD/svg11.dtd">
<svg version="1.1" id="Layer_1" xmlns="http://www.w3.org/2000/svg" xmlns:xlink="http://www.w3.org/1999/xlink" x="0px" y="0px"
	 width="64px" height="64px" viewBox="0 0 64 64" enable-background="new 0 0 64 64" xml:space="preserve">
<path id="color_29_" d="M32,24c0.6,0,1-0.4,1-1V4c0-0.6-0.4-1-1-1c-0.6,0-1,0.4-1,1v19C31,23.6,31.4,24,32,24z"/>
<path id="color_28_" d="M18,28c0.6,0,1-0.4,1-1V16c0-0.6-0.4-1-1-1c-0.6,0-1,0.4-1,1v11C17,27.6,17.4,28,18,28z"/>
<path id="color_27_" d="M46,28c0.6,0,1-0.4,1-1V16c0-0.6-0.4-1-1-1c-0.6,0-1,0.4-1,1v11C45,27.6,45.4,28,46,28z"/>
<path d="M58,33H6c-2.8,0-5,2.2-5,5v18c0,2.8,2.2,5,5,5h52c2.8,0,5-2.2,5-5V38C63,35.2,60.8,33,58,33z M53,52H11c-0.6,0-1-0.4-1-1
	s0.4-1,1-1h42c0.6,0,1,0.4,1,1S53.6,52,53,52z M53,44h-3c-0.6,0-1-0.4-1-1l0,0c0-0.6,0.4-1,1-1h3c0.6,0,1,0.4,1,1l0,0
	C54,43.6,53.6,44,53,44z"/>
</svg>
