<?xml version="1.0" encoding="utf-8"?>
<!-- Generator: Adobe Illustrator 19.1.0, SVG Export Plug-In . SVG Version: 6.00 Build 0)  -->
<!DOCTYPE svg PUBLIC "-//W3C//DTD SVG 1.1//EN" "http://www.w3.org/Graphics/SVG/1.1/DTD/svg11.dtd">
<svg version="1.1" id="Layer_1" xmlns="http://www.w3.org/2000/svg" xmlns:xlink="http://www.w3.org/1999/xlink" x="0px" y="0px"
	 width="64px" height="64px" viewBox="0 0 64 64" enable-background="new 0 0 64 64" xml:space="preserve">
<path d="M62,32H2c-0.6,0-1,0.4-1,1v12v10c0,0.6,0.4,1,1,1c0.6,0,1-0.4,1-1v-9h58v9c0,0.6,0.4,1,1,1c0.6,0,1-0.4,1-1V45V33
	C63,32.4,62.6,32,62,32z"/>
<path id="color_25_" d="M54,18H36c-1.1,0-2.2,0.4-3,1v11h26v-7C59,20.2,56.8,18,54,18z"/>
<path id="color_24_" d="M31,19c-0.8-0.6-1.9-1-3-1H10c-2.8,0-5,2.2-5,5v7h26V19z"/>
<path d="M10,16h18c1.5,0,2.8,0.4,4,1.3c1.2-0.8,2.5-1.3,4-1.3h18c1.1,0,2.1,0.3,3,0.7V9c0-0.6-0.4-1-1-1H8C7.4,8,7,8.4,7,9v7.7
	C7.9,16.3,8.9,16,10,16z"/>
</svg>
