<?xml version="1.0" encoding="utf-8"?>
<!-- Generator: Adobe Illustrator 19.1.0, SVG Export Plug-In . SVG Version: 6.00 Build 0)  -->
<!DOCTYPE svg PUBLIC "-//W3C//DTD SVG 1.1//EN" "http://www.w3.org/Graphics/SVG/1.1/DTD/svg11.dtd">
<svg version="1.1" id="Layer_1" xmlns="http://www.w3.org/2000/svg" xmlns:xlink="http://www.w3.org/1999/xlink" x="0px" y="0px"
	 width="64px" height="64px" viewBox="0 0 64 64" enable-background="new 0 0 64 64" xml:space="preserve">
<path id="color_9_" d="M59,33v-3c0-0.6-0.4-1-1-1H6c-0.6,0-1,0.4-1,1v3H59z"/>
<path d="M5,35v1c0,8.3,6.7,15,15,15h3v11c0,0.6,0.4,1,1,1h16c0.6,0,1-0.4,1-1V51h3c8.3,0,15-6.7,15-15v-1H5z"/>
<path d="M51,27V8c0-3.9-3.1-7-7-7H20c-3.9,0-7,3.1-7,7v19H51z"/>
</svg>
