<?xml version="1.0" encoding="utf-8"?>
<!-- Generator: Adobe Illustrator 19.1.0, SVG Export Plug-In . SVG Version: 6.00 Build 0)  -->
<!DOCTYPE svg PUBLIC "-//W3C//DTD SVG 1.1//EN" "http://www.w3.org/Graphics/SVG/1.1/DTD/svg11.dtd">
<svg version="1.1" id="Layer_1" xmlns="http://www.w3.org/2000/svg" xmlns:xlink="http://www.w3.org/1999/xlink" x="0px" y="0px"
	 width="64px" height="64px" viewBox="0 0 64 64" enable-background="new 0 0 64 64" xml:space="preserve">
<path d="M52,1H12C5.8,1,1,10.2,1,22s4.8,21,11,21h40c6.2,0,11-9.2,11-21S58.2,1,52,1z M12,41c-4.9,0-9-8.7-9-19S7.1,3,12,3
	c2.2,0,4.3,1.8,5.9,4.8l1.7,4.3C20.5,15,21,18.4,21,22C21,32.3,16.9,41,12,41z"/>
<path id="color_19_" d="M12,27L12,27c0.6,0,1-0.4,1-1v-8c0-0.6-0.4-1-1-1l0,0c-0.6,0-1,0.4-1,1v8C11,26.6,11.4,27,12,27z"/>
<path id="color_18_" d="M1,34.6V62c0,0.6,0.4,1,1,1h34c0.6,0,1-0.4,1-1V45H12C7.3,45,3.3,40.9,1,34.6z"/>
</svg>
