<?xml version="1.0" encoding="utf-8"?>
<!-- Generator: Adobe Illustrator 19.1.0, SVG Export Plug-In . SVG Version: 6.00 Build 0)  -->
<!DOCTYPE svg PUBLIC "-//W3C//DTD SVG 1.1//EN" "http://www.w3.org/Graphics/SVG/1.1/DTD/svg11.dtd">
<svg version="1.1" id="Layer_1" xmlns="http://www.w3.org/2000/svg" xmlns:xlink="http://www.w3.org/1999/xlink" x="0px" y="0px"
	 width="64px" height="64px" viewBox="0 0 64 64" enable-background="new 0 0 64 64" xml:space="preserve">
<path d="M62,1H26C12.2,1,1,12.2,1,26c0,0.6,0.4,1,1,1h60c0.6,0,1-0.4,1-1V2C63,1.4,62.6,1,62,1z M51,16H33c-1.7,0-3-1.3-3-3
	c0-1.7,1.3-3,3-3h18c1.7,0,3,1.3,3,3C54,14.7,52.7,16,51,16z"/>
<path id="color_7_" d="M53,39.1V29h-2v10.1c-4.7,1.1-10,9.6-10,14.9c0,5.6,4.2,9,10.8,9c6.9,0,11.2-3.4,11.2-9
	C63,48.7,57.7,40.2,53,39.1z M51,61c-2.9-0.2-8-1.2-8-7c0-4.8,4.7-11.5,8-12.8V61z M53,61V41.2c3.3,1.3,8,7.9,8,12.8
	C61,59.6,55.8,60.7,53,61z"/>
</svg>
