<?xml version="1.0" encoding="utf-8"?>
<!-- Generator: Adobe Illustrator 19.1.0, SVG Export Plug-In . SVG Version: 6.00 Build 0)  -->
<!DOCTYPE svg PUBLIC "-//W3C//DTD SVG 1.1//EN" "http://www.w3.org/Graphics/SVG/1.1/DTD/svg11.dtd">
<svg version="1.1" id="Layer_1" xmlns="http://www.w3.org/2000/svg" xmlns:xlink="http://www.w3.org/1999/xlink" x="0px" y="0px"
	 width="64px" height="64px" viewBox="0 0 64 64" enable-background="new 0 0 64 64" xml:space="preserve">
<path d="M53,20V9c0-0.6-0.4-1-1-1H12c-0.6,0-1,0.4-1,1v11H53z"/>
<polygon id="color_35_" points="60.6,38 53.6,22 10.4,22 3.4,38 "/>
<path d="M3,40v15c0,0.6,0.4,1,1,1c0.6,0,1-0.4,1-1v-7h54v7c0,0.6,0.4,1,1,1c0.6,0,1-0.4,1-1V40H3z"/>
</svg>
