<?xml version="1.0" encoding="utf-8"?>
<!-- Generator: Adobe Illustrator 19.1.0, SVG Export Plug-In . SVG Version: 6.00 Build 0)  -->
<!DOCTYPE svg PUBLIC "-//W3C//DTD SVG 1.1//EN" "http://www.w3.org/Graphics/SVG/1.1/DTD/svg11.dtd">
<svg version="1.1" id="Layer_1" xmlns="http://www.w3.org/2000/svg" xmlns:xlink="http://www.w3.org/1999/xlink" x="0px" y="0px"
	 width="64px" height="64px" viewBox="0 0 64 64" enable-background="new 0 0 64 64" xml:space="preserve">
<path id="color_20_" d="M5,32h16v-4c0-3.3-2.7-6-6-6H7c-0.7,0-1.4,0.1-2,0.4V32z"/>
<path d="M62,19c-0.6,0-1,0.4-1,1v14H32H21H3V23.5V15V8c0-0.6-0.4-1-1-1C1.4,7,1,7.4,1,8v20v6v22c0,0.6,0.4,1,1,1c0.6,0,1-0.4,1-1V45
	h58v11c0,0.6,0.4,1,1,1c0.6,0,1-0.4,1-1V20C63,19.4,62.6,19,62,19z"/>
</svg>
