<?xml version="1.0" encoding="utf-8"?>
<!-- Generator: Adobe Illustrator 19.1.0, SVG Export Plug-In . SVG Version: 6.00 Build 0)  -->
<!DOCTYPE svg PUBLIC "-//W3C//DTD SVG 1.1//EN" "http://www.w3.org/Graphics/SVG/1.1/DTD/svg11.dtd">
<svg version="1.1" id="Layer_1" xmlns="http://www.w3.org/2000/svg" xmlns:xlink="http://www.w3.org/1999/xlink" x="0px" y="0px"
	 width="64px" height="64px" viewBox="0 0 64 64" enable-background="new 0 0 64 64" xml:space="preserve">
<path id="color_31_" d="M1,28h30V14H1V28z M11,20h10c0.6,0,1,0.4,1,1v0c0,0.6-0.4,1-1,1H11c-0.6,0-1-0.4-1-1v0
	C10,20.4,10.4,20,11,20z"/>
<path d="M1,57c0,0.6,0.4,1,1,1c0.6,0,1-0.4,1-1V30H1V57z"/>
<path d="M61,57c0,0.6,0.4,1,1,1c0.6,0,1-0.4,1-1V30h-2V57z"/>
<path id="color_30_" d="M33,28h30V14H33V28z M43,20h10c0.6,0,1,0.4,1,1v0c0,0.6-0.4,1-1,1H43c-0.6,0-1-0.4-1-1v0
	C42,20.4,42.4,20,43,20z"/>
<path d="M62,6H2C1.4,6,1,6.4,1,7v5h30h2h30V7C63,6.4,62.6,6,62,6z"/>
</svg>
