<svg xmlns="http://www.w3.org/2000/svg" xmlns:xlink="http://www.w3.org/1999/xlink" x="0px" y="0px" width="48px" height="48px" viewBox="0 0 48 48"><g >
<path fill="#EFD358" d="M46,21h-2c-0.5527344,0-1-0.4477539-1-1s0.4472656-1,1-1h2c0.5527344,0,1,0.4477539,1,1S46.5527344,21,46,21
	z"/>
<path fill="#EFD358" d="M39.3134766,9.6865234c-0.2558594,0-0.5117188-0.0976562-0.7070312-0.2929688
	c-0.390625-0.3901367-0.390625-1.0234375,0-1.4140625l1.4140625-1.4145508c0.390625-0.390625,1.0234375-0.390625,1.4140625,0
	c0.390625,0.3901367,0.390625,1.0234375,0,1.4140625l-1.4140625,1.4145508
	C39.8251953,9.5888672,39.5693359,9.6865234,39.3134766,9.6865234z"/>
<path fill="#EFD358" d="M28,5c-0.5527344,0-1-0.4477539-1-1V2c0-0.5522461,0.4472656-1,1-1s1,0.4477539,1,1v2
	C29,4.5522461,28.5527344,5,28,5z"/>
<path fill="#EFD358" d="M16.6865234,9.6865234c-0.2558594,0-0.5117188-0.0976562-0.7070312-0.2929688l-1.4140625-1.4145508
	c-0.390625-0.390625-0.390625-1.0239258,0-1.4140625c0.390625-0.390625,1.0234375-0.390625,1.4140625,0l1.4140625,1.4145508
	c0.390625,0.390625,0.390625,1.0239258,0,1.4140625C17.1982422,9.5888672,16.9423828,9.6865234,16.6865234,9.6865234z"/>
<circle fill="#EFD358" cx="28" cy="20" r="11"/>
<path fill="#E0E0E0" d="M35.8118935,47H16.2595978C9.3552904,47,3.0874088,42.4491272,1.4549904,35.7405739
	C-0.9496628,25.8584633,6.5095406,17,16,17c6.3124847,0,11.8994141,3.9604492,14.0537109,9.7929688
	C31.8359375,25.6289062,33.9013672,25,36,25c6.948761,0,12.4132957,6.476511,10.6742744,13.7102013
	C45.4880981,43.644249,40.8865166,47,35.8118935,47z"/>
</g></svg>