<svg xmlns="http://www.w3.org/2000/svg" xmlns:xlink="http://www.w3.org/1999/xlink" x="0px" y="0px" width="48px" height="48px" viewBox="0 0 48 48"><g >
<path fill="#EFD358" d="M34,27c-7.1679688,0-13-5.831543-13-13S26.8320312,1,34,1h1v1c0,6.0654297,4.9345703,11,11,11h1v1
	C47,21.168457,41.1679688,27,34,27z"/>
<path fill="#666666" d="M5.8956299,36h36.2087402C45.0067139,34.5047607,47,31.4837646,47,28c0-4.9628906-4.0375977-9-9-9
	c-1.4345703,0-2.8310547,0.3417969-4.0991211,0.9980469C31.9628906,15.7666016,27.7241211,13,23,13
	c-4.4443359,0-8.5019531,2.4619141-10.578125,6.34375C11.6230469,19.1152344,10.8120117,19,10,19c-4.9624023,0-9,4.0371094-9,9
	C1,31.4837646,2.9932861,34.5047607,5.8956299,36z"/>
<path fill="#42A6DD" d="M46,37H2c-0.5522842,0-1-0.4477158-1-1l0,0c0-0.5522842,0.4477158-1,1-1h44c0.5522842,0,1,0.4477158,1,1l0,0
	C47,36.5522842,46.5522842,37,46,37z"/>
<path fill="#42A6DD" d="M39.9375,44h-31.875C7.475697,44,7,43.5522842,7,43l0,0c0-0.5522842,0.475697-1,1.062499-1h31.875
	C40.5243034,42,41,42.4477158,41,43l0,0C41,43.5522842,40.5243034,44,39.9375,44z"/>
</g></svg>