<svg xmlns="http://www.w3.org/2000/svg" xmlns:xlink="http://www.w3.org/1999/xlink" x="0px" y="0px" width="48px" height="48px" viewBox="0 0 48 48"><g >
<path fill="#EFD358" d="M34,27c-7.1679688,0-13-5.831543-13-13S26.8320312,1,34,1h1v1c0,6.0654297,4.9345703,11,11,11h1v1
	C47,21.168457,41.1679688,27,34,27z"/>
<path fill="#666666" d="M38,37H10c-4.9624023,0-9-4.0371094-9-9s4.0375977-9,9-9c0.8120117,0,1.6230469,0.1152344,2.421875,0.34375
	C14.4980469,15.4619141,18.5556641,13,23,13c4.7241211,0,8.9628906,2.7666016,10.9008789,6.9980469
	C35.1689453,19.3417969,36.5654297,19,38,19c4.9624023,0,9,4.0371094,9,9S42.9624023,37,38,37z"/>
<path fill="#42A6DD" d="M24,39c-0.5527344,0-1-0.4472656-1-1v-8c0-0.5527344,0.4472656-1,1-1s1,0.4472656,1,1v8
	C25,38.5527344,24.5527344,39,24,39z"/>
<path fill="#42A6DD" d="M16,37c-0.5527344,0-1-0.4472656-1-1v-8c0-0.5527344,0.4472656-1,1-1s1,0.4472656,1,1v8
	C17,36.5527344,16.5527344,37,16,37z"/>
<path fill="#42A6DD" d="M24,47c-0.5527344,0-1-0.4472656-1-1v-2c0-0.5527344,0.4472656-1,1-1s1,0.4472656,1,1v2
	C25,46.5527344,24.5527344,47,24,47z"/>
<path fill="#42A6DD" d="M16,45c-0.5527344,0-1-0.4472656-1-1v-2c0-0.5527344,0.4472656-1,1-1s1,0.4472656,1,1v2
	C17,44.5527344,16.5527344,45,16,45z"/>
<path fill="#42A6DD" d="M32,37c-0.5527344,0-1-0.4472656-1-1v-8c0-0.5527344,0.4472656-1,1-1s1,0.4472656,1,1v8
	C33,36.5527344,32.5527344,37,32,37z"/>
<path fill="#42A6DD" d="M32,45c-0.5527344,0-1-0.4472656-1-1v-2c0-0.5527344,0.4472656-1,1-1s1,0.4472656,1,1v2
	C33,44.5527344,32.5527344,45,32,45z"/>
</g></svg>