<svg xmlns="http://www.w3.org/2000/svg" xmlns:xlink="http://www.w3.org/1999/xlink" x="0px" y="0px" width="48px" height="48px" viewBox="0 0 48 48"><g >
<path fill="#EFD358" d="M46,18h-2c-0.5527344,0-1-0.4472656-1-1s0.4472656-1,1-1h2c0.5527344,0,1,0.4472656,1,1S46.5527344,18,46,18
	z"/>
<path fill="#EFD358" d="M42.3137093,7.1005049L40.8994942,8.514719c-0.3908424,0.3908415-1.0233688,0.3908415-1.4142113,0
	c-0.3908424-0.3908424-0.3908424-1.0233717,0-1.4142141l1.4142113-1.4142132c0.3908424-0.3908424,1.0233727-0.3908424,1.4142151,0
	C42.7045517,6.0771337,42.7045517,6.7096629,42.3137093,7.1005049z"/>
<path fill="#EFD358" d="M32,2v2c0,0.5527344-0.4472656,1-1,1s-1-0.4472656-1-1V2c0-0.5527344,0.4472656-1,1-1S32,1.4472656,32,2z"/>
<path fill="#EFD358" d="M21.1005058,5.6862917l1.4142132,1.4142132c0.3908424,0.3908424,0.3908424,1.0233717,0,1.4142141
	c-0.3908424,0.3908415-1.0233727,0.3908415-1.4142132,0l-1.4142151-1.4142141c-0.3908405-0.390842-0.3908405-1.0233712,0-1.4142132
	C20.0771332,5.2954493,20.7096634,5.2954493,21.1005058,5.6862917z"/>
<circle fill="#EFD358" cx="31" cy="17" r="10"/>
<path fill="#C6C6C6" d="M38,37H10c-4.9624023,0-9-4.0371094-9-9s4.0375977-9,9-9c0.8120117,0,1.6230469,0.1152344,2.421875,0.34375
	C14.4980469,15.4619141,18.5556641,13,23,13c4.7241211,0,8.9628906,2.7666016,10.9008789,6.9980469
	C35.1689453,19.3417969,36.5654297,19,38,19c4.9624023,0,9,4.0371094,9,9S42.9624023,37,38,37z"/>
<path fill="#42A6DD" d="M24.7167969,29.3027344c-0.3759766-0.3867188-1.0576172-0.3867188-1.4335938,0
	C22.6396484,29.9648438,17,35.8818359,17,39.9042969C17,44.3457031,20.559082,47,24,47s7-2.6542969,7-7.0957031
	C31,35.8818359,25.3603516,29.9648438,24.7167969,29.3027344z"/>
</g></svg>