<svg xmlns="http://www.w3.org/2000/svg" xmlns:xlink="http://www.w3.org/1999/xlink" x="0px" y="0px" width="48px" height="48px" viewBox="0 0 48 48"><g >
<path fill="#E86C60" d="M24,11C11.2974243,11,1,21.2974243,1,34c0,0.3353882,0.0110474,0.6680908,0.0252686,1h6.0252075
	C7.0310669,34.6672974,7,34.3375854,7,34c0-9.388855,7.611145-17,17-17s17,7.611145,17,17
	c0,0.3375854-0.0310669,0.6672974-0.0504761,1h6.0252075C46.9889526,34.6680908,47,34.3353882,47,34
	C47,21.2974243,36.7025757,11,24,11z"/>
<path fill="#EFD358" d="M24,15C13.5065918,15,5,23.5065918,5,34c0,0.3375854,0.0330811,0.666748,0.0504761,1h6.000061
	C11.0252686,34.6688843,11,34.3375854,11,34c0-7.1796875,5.8203125-13,13-13s13,5.8203125,13,13
	c0,0.3375854-0.0252686,0.6688843-0.0505371,1h6.000061C42.9669189,34.666748,43,34.3375854,43,34
	C43,23.5065918,34.4934082,15,24,15z"/>
<path fill="#72C472" d="M24,19c-8.2843018,0-15,6.7156982-15,15c0,0.3375854,0.0285034,0.6679688,0.0504761,1h6.0081787
	C15.0222778,34.6712646,15,34.3384399,15,34c0-4.9705811,4.0294189-9,9-9s9,4.0294189,9,9
	c0,0.3384399-0.0222778,0.6712646-0.0586548,1h6.0081787C38.9714966,34.6679688,39,34.3375854,39,34
	C39,25.7156982,32.2843018,19,24,19z"/>
<path fill="#42A6DD" d="M24,23c-6.0751343,0-11,4.9248657-11,11c0,0.3375854,0.0206909,0.670166,0.0504761,1h4.0290527
	C17.0325317,34.6725464,17,34.3404541,17,34c0-3.8660278,3.1340332-7,7-7s7,3.1339722,7,7
	c0,0.3404541-0.0325317,0.6725464-0.0795288,1h4.0290527C34.9793091,34.670166,35,34.3375854,35,34
	C35,27.9248657,30.0751343,23,24,23z"/>
</g></svg>