<svg xmlns="http://www.w3.org/2000/svg" xmlns:xlink="http://www.w3.org/1999/xlink" x="0px" y="0px" width="48px" height="48px" viewBox="0 0 48 48"><g >
<path fill="#E86C60" d="M12,11c-2.7568359,0-5-2.2431641-5-5s2.2431641-5,5-5s5,2.2431641,5,5S14.7568359,11,12,11z M12,3
	c-1.6542969,0-3,1.3457031-3,3s1.3457031,3,3,3s3-1.3457031,3-3S13.6542969,3,12,3z"/>
<path fill="#E86C60" d="M32.0048828,45c-9.3740234,0-17-7.6259766-17-17s7.6259766-17,17-17
	c2.9853516,0,5.9228516,0.7851562,8.4951172,2.2714844c0.4785156,0.2763672,0.6425781,0.8886719,0.3662109,1.3662109
	c-0.2773438,0.4785156-0.890625,0.6416016-1.3662109,0.3662109C37.2314453,13.6923828,34.6396484,13,32.0048828,13
	c-8.2714844,0-15,6.7285156-15,15s6.7285156,15,15,15c2.5429688,0,5.0556641-0.6474609,7.265625-1.8740234
	c0.484375-0.2675781,1.0927734-0.0927734,1.3603516,0.3896484c0.2675781,0.4833984,0.0927734,1.0917969-0.3896484,1.3603516
	C37.734375,44.265625,34.8857422,45,32.0048828,45z"/>
</g></svg>