<svg xmlns="http://www.w3.org/2000/svg" xmlns:xlink="http://www.w3.org/1999/xlink" x="0px" y="0px" width="48px" height="48px" viewBox="0 0 48 48"><g >
<path fill="#C6C6C6" d="M39,37H10c-4.9624023,0-9-4.0375977-9-9c0-3.8754883,2.4697266-7.2763672,6.0898438-8.5087891
	C7.8540039,11.309082,14.7099609,5,23,5c8.090332,0,14.8930664,6.1015625,15.8637695,14.0473633
	C43.4448242,19.5004883,47,23.3427734,47,28c0,4.4135742-3.2197266,8.1713867-7.543457,8.875
	C39.3198242,36.9541016,39.1645508,37,39,37z"/>
<path fill="#42A6DD" d="M31.4282227,40.1337891L26.0003052,37l5.4279175-3.1337891
	c0.4785156-0.2763672,0.6420898-0.8876953,0.3662109-1.3662109c-0.2773438-0.4785156-0.8886719-0.6435547-1.3662109-0.3662109
	L25,35.2677612V29c0-0.5527344-0.4477539-1-1-1s-1,0.4472656-1,1v6.2677612l-5.4282227-3.1339722
	c-0.4794922-0.2773438-1.090332-0.1113281-1.3662109,0.3662109c-0.2758789,0.4785156-0.1123047,1.0898438,0.3662109,1.3662109
	L21.9996948,37l-5.4279175,3.1337891C16.0932617,40.4101562,15.9296875,41.0214844,16.2055664,41.5
	c0.1855469,0.3212891,0.5214844,0.5,0.8671875,0.5c0.1694336,0,0.3417969-0.0429688,0.4990234-0.1337891L23,38.7322388V45
	c0,0.5527344,0.4477539,1,1,1s1-0.4472656,1-1v-6.2677612l5.4282227,3.1339722C30.5859375,41.9570312,30.7578125,42,30.9272461,42
	c0.3457031,0,0.6816406-0.1796875,0.8671875-0.5C32.0703125,41.0214844,31.9067383,40.4101562,31.4282227,40.1337891z"/>
</g></svg>