<svg xmlns="http://www.w3.org/2000/svg" xmlns:xlink="http://www.w3.org/1999/xlink" x="0px" y="0px" width="48px" height="48px" viewBox="0 0 48 48"><g >
<path fill="#C6C6C6" d="M24,15.3886719c-1.7382812,0-3.4755859-0.5053711-4.9921875-1.5161133l-3.3505859-2.2333984
	c-2.2392578-1.4921875-5.1777344-1.5625-7.4833984-0.1777344l-5.6591797,3.3950195
	c-0.4746094,0.284668-1.0878906,0.1308594-1.3720703-0.3427734s-0.1308594-1.0878906,0.3427734-1.3720703L7.1445312,9.746582
	c2.9648438-1.7802734,6.7431641-1.6914062,9.6220703,0.2285156l3.3505859,2.2333984
	c2.359375,1.5722656,5.40625,1.5722656,7.765625,0l3.3505859-2.2333984
	c2.8789062-1.9199219,6.6552734-2.0087891,9.6220703-0.2285156l5.6591797,3.3950195
	c0.4736328,0.2841797,0.6269531,0.8984375,0.3427734,1.3720703s-0.8974609,0.6274414-1.3720703,0.3427734l-5.6591797-3.3950195
	c-2.3056641-1.3847656-5.2441406-1.3149414-7.4833984,0.1777344l-3.3505859,2.2333984
	C27.4755859,14.8833008,25.7373047,15.3886719,24,15.3886719z"/>
<path fill="#C6C6C6" d="M24,39.5410156c-1.7382812,0-3.4755859-0.5058594-4.9921875-1.5166016l-3.3505859-2.2333984
	c-2.2392578-1.4921875-5.1777344-1.5634766-7.4833984-0.1777344l-5.6591797,3.3955078
	c-0.4746094,0.2851562-1.0878906,0.1298828-1.3720703-0.3427734c-0.2841797-0.4736328-0.1308594-1.0878906,0.3427734-1.3720703
	l5.6591797-3.3955078c2.9648438-1.7792969,6.7431641-1.6904297,9.6220703,0.2285156l3.3505859,2.2333984
	c2.359375,1.5722656,5.40625,1.5722656,7.765625,0l3.3505859-2.2333984
	c2.8789062-1.9189453,6.6552734-2.0078125,9.6220703-0.2285156l5.6591797,3.3955078
	c0.4736328,0.2841797,0.6269531,0.8984375,0.3427734,1.3720703c-0.2841797,0.4726562-0.8974609,0.6279297-1.3720703,0.3427734
	l-5.6591797-3.3955078c-2.3076172-1.3847656-5.2451172-1.3144531-7.4833984,0.1777344l-3.3505859,2.2333984
	C27.4755859,39.0351562,25.7373047,39.5410156,24,39.5410156z"/>
<path fill="#999999" d="M24,27.4648438c-1.7382812,0-3.4755859-0.5058594-4.9921875-1.5166016l-3.3505859-2.2329102
	c-2.2392578-1.4921875-5.1777344-1.5615234-7.4833984-0.1782227l-5.6591797,3.3955078
	c-0.4746094,0.2841797-1.0878906,0.1308594-1.3720703-0.3427734s-0.1308594-1.0878906,0.3427734-1.3720703l5.6591797-3.3955078
	c2.9667969-1.7807617,6.7431641-1.6899414,9.6220703,0.2290039l3.3505859,2.2329102
	c2.359375,1.5722656,5.40625,1.5722656,7.765625,0l3.3505859-2.2329102
	c2.8789062-1.9199219,6.6552734-2.0087891,9.6220703-0.2290039l5.6591797,3.3955078
	c0.4736328,0.2841797,0.6269531,0.8984375,0.3427734,1.3720703s-0.8974609,0.6269531-1.3720703,0.3427734l-5.6591797-3.3955078
	c-2.3066406-1.3837891-5.2451172-1.3149414-7.4833984,0.1782227l-3.3505859,2.2329102
	C27.4755859,26.9589844,25.7373047,27.4648438,24,27.4648438z"/>
</g></svg>