<svg xmlns="http://www.w3.org/2000/svg" xmlns:xlink="http://www.w3.org/1999/xlink" x="0px" y="0px" width="48px" height="48px" viewBox="0 0 48 48"><g >
<path fill="#EFD358" d="M46,18h-2c-0.5522461,0-1-0.4472656-1-1s0.4477539-1,1-1h2c0.5522461,0,1,0.4472656,1,1S46.5522461,18,46,18
	z"/>
<path fill="#EFD358" d="M42.3137093,7.1005049L40.8994942,8.514719c-0.3904953,0.3904963-1.0233688,0.3908415-1.4142113,0
	c-0.3908424-0.3908424-0.3904991-1.0237169,0-1.4142141l1.4142113-1.4142132c0.3904991-0.3904972,1.0233727-0.3908424,1.4142151,0
	C42.7045517,6.0771337,42.7042046,6.7100081,42.3137093,7.1005049z"/>
<path fill="#EFD358" d="M32,2v2c0,0.5522461-0.4472656,1-1,1s-1-0.4477539-1-1V2c0-0.5522461,0.4472656-1,1-1S32,1.4477539,32,2z"/>
<path fill="#EFD358" d="M21.1005058,5.6862917l1.4142132,1.4142132c0.3904972,0.3904972,0.3908424,1.0233717,0,1.4142141
	c-0.3908424,0.3908415-1.0237179,0.3904963-1.4142132,0l-1.4142151-1.4142141c-0.3904953-0.3904967-0.3908405-1.0233712,0-1.4142132
	C20.0771332,5.2954493,20.7100086,5.2957945,21.1005058,5.6862917z"/>
<path fill="#EFD358" d="M31,27c-5.5141602,0-10-4.4863281-10-10S25.4858398,7,31,7s10,4.4863281,10,10S36.5141602,27,31,27z"/>
<path fill="#EFD358" d="M31,5c-0.5522461,0-1-0.4472656-1-1V2c0-0.5527344,0.4477539-1,1-1s1,0.4472656,1,1v2
	C32,4.5527344,31.5522461,5,31,5z"/>
<path fill="#999999" d="M38,37H10c-4.9624023,0-9-4.0371094-9-9s4.0375977-9,9-9c0.8120117,0,1.6230469,0.1152344,2.421875,0.34375
	C14.4980469,15.4619141,18.5556641,13,23,13c4.7241211,0,8.9628906,2.7666016,10.9008789,6.9980469
	C35.1689453,19.3417969,36.5654297,19,38,19c4.9624023,0,9,4.0371094,9,9S42.9624023,37,38,37z"/>
<path fill="#EFD358" d="M31.9057617,33.5761719C31.7412109,33.2246094,31.3881836,33,31,33h-6.5229492l3.4516602-8.6289062
	c0.1826172-0.4560547,0.0058594-0.9785156-0.4165039-1.2304688c-0.4223633-0.2490234-0.965332-0.1572266-1.2802734,0.21875l-10,12
	c-0.2485352,0.2988281-0.3022461,0.7138672-0.1376953,1.0644531C16.2587891,36.7753906,16.6118164,37,17,37h6.5229492
	l-3.4516602,8.6289062c-0.1826172,0.4560547-0.0058594,0.9785156,0.4165039,1.2304688
	C20.6474609,46.9541016,20.8242188,47,20.9995117,47c0.2885742,0,0.5727539-0.125,0.7685547-0.359375l10-12
	C32.0166016,34.3417969,32.0703125,33.9267578,31.9057617,33.5761719z"/>
</g></svg>