<svg xmlns="http://www.w3.org/2000/svg" xmlns:xlink="http://www.w3.org/1999/xlink" x="0px" y="0px" width="48px" height="48px" viewBox="0 0 48 48"><g >
<path fill="#448BC4" d="M24,45c-5.4072266,0-11-4.0791016-11-10.9042969c0-6.4072266,9.871582-16.3808594,10.2919922-16.8017578
	c0.375-0.3769531,1.0410156-0.3769531,1.4160156,0C25.128418,17.7148438,35,27.6884766,35,34.0957031
	C35,40.9208984,29.4072266,45,24,45z"/>
<path fill="#42A6DD" d="M40,21c-3.440918,0-7-2.6542969-7-7.0957031c0-4.0224609,5.6396484-9.9394531,6.2832031-10.6015625
	c0.3759766-0.3867188,1.0576172-0.3867188,1.4335938,0C41.3603516,3.9648438,47,9.8818359,47,13.9042969
	C47,18.3457031,43.440918,21,40,21z"/>
<path fill="#42A6DD" d="M8,21c-3.440918,0-7-2.6542969-7-7.0957031C1,9.8818359,6.6396484,3.9648438,7.2832031,3.3027344
	c0.3759766-0.3867188,1.0576172-0.3867188,1.4335938,0C9.3603516,3.9648438,15,9.8818359,15,13.9042969
	C15,18.3457031,11.440918,21,8,21z"/>
</g></svg>