<svg xmlns="http://www.w3.org/2000/svg" xmlns:xlink="http://www.w3.org/1999/xlink" x="0px" y="0px" width="48px" height="48px" viewBox="0 0 48 48"><g >
<path fill="#999999" d="M39,33H10c-4.9624023,0-9-4.0375977-9-9c0-3.8754883,2.4697266-7.2763672,6.0898438-8.5087891
	C7.8540039,7.309082,14.7099609,1,23,1c8.090332,0,14.8930664,6.1015625,15.8637695,14.0473633
	C43.4448242,15.5004883,47,19.3427734,47,24c0,4.4135742-3.2197266,8.1713867-7.543457,8.875
	C39.3198242,32.9541016,39.1645508,33,39,33z"/>
<path fill="#EFD358" d="M32.9057617,33.5756836C32.7412109,33.2246094,32.3881836,33,32,33h-7.5229492l3.4516602-8.628418
	c0.1826172-0.4570312,0.0058594-0.9785156-0.4165039-1.2304688c-0.4213867-0.2514648-0.9648438-0.1591797-1.2802734,0.21875l-10,12
	c-0.2485352,0.2978516-0.3022461,0.7128906-0.1376953,1.0644531C16.2587891,36.7753906,16.6118164,37,17,37h7.5229492
	l-3.4516602,8.628418c-0.1826172,0.4570312-0.0058594,0.9785156,0.4165039,1.2304688
	C21.6474609,46.9541016,21.8242188,47,21.9995117,47c0.2885742,0,0.5727539-0.1245117,0.7685547-0.3598633l10-12
	C33.0166016,34.3422852,33.0703125,33.9272461,32.9057617,33.5756836z"/>
</g></svg>