<svg xmlns="http://www.w3.org/2000/svg" xmlns:xlink="http://www.w3.org/1999/xlink" x="0px" y="0px" width="48px" height="48px" viewBox="0 0 48 48"><g >
<path fill="#B3B3B3" d="M24,45c-3.234375,0-6.2822266-0.9072266-8.5830078-2.5556641
	c-0.4487305-0.3212891-0.5522461-0.9462891-0.2304688-1.3945312c0.3208008-0.4492188,0.9453125-0.5546875,1.3955078-0.2304688
	C18.5454102,42.2255859,21.1801758,43,24,43c2.5610352,0,5.0180664-0.6552734,6.9179688-1.8466797
	c0.46875-0.2929688,1.0854492-0.1513672,1.378418,0.3164062c0.293457,0.4677734,0.1518555,1.0849609-0.315918,1.3789062
	C29.7661133,44.2363281,26.9321289,45,24,45z"/>
<path fill="#666666" d="M24,37c-5.1733398,0-9.9130859-1.5244141-12.6782227-4.0791016
	c-0.4057617-0.3740234-0.4311523-1.0068359-0.0566406-1.4130859c0.3740234-0.4042969,1.0078125-0.4306641,1.4130859-0.0556641
	C15.0483398,33.640625,19.3862305,35,24,35c4.7592773,0,9.1640625-1.4228516,11.4956055-3.7128906
	c0.3935547-0.3876953,1.0263672-0.3828125,1.4140625,0.0117188c0.387207,0.3945312,0.3813477,1.0273438-0.0126953,1.4140625
	C34.1645508,35.3974609,29.3432617,37,24,37z"/>
<path fill="#B3B3B3" d="M24,29c-6.5722656,0-12.5009766-1.5742188-15.859375-4.2109375
	c-0.434082-0.3408203-0.5097656-0.96875-0.1689453-1.4033203c0.3408203-0.4365234,0.9697266-0.5117188,1.4042969-0.1689453
	C12.3486328,25.5498047,17.9521484,27,24,27c6.050293,0,11.6552734-1.4511719,14.6274414-3.7861328
	c0.434082-0.3427734,1.0625-0.2666016,1.4038086,0.1679688s0.2661133,1.0634766-0.168457,1.4042969
	C36.5053711,27.4248047,30.5751953,29,24,29z"/>
<path fill="#666666" d="M24,21C9.0610352,21,1,16.3632812,1,12s8.0610352-9,23-9s23,4.6367188,23,9S38.9389648,21,24,21z M24,5
	C11.6245117,5,3,8.6894531,3,12s8.6245117,7,21,7s21-3.6894531,21-7S36.3754883,5,24,5z"/>
</g></svg>