<svg xmlns="http://www.w3.org/2000/svg" xmlns:xlink="http://www.w3.org/1999/xlink" x="0px" y="0px" width="48px" height="48px" viewBox="0 0 48 48"><g >
<path fill="#42A6DD" d="M27.6591797,17H2c-0.5527344,0-1-0.4477539-1-1s0.4472656-1,1-1h25.6591797c2.7568359,0,5-2.2431641,5-5
	s-2.2431641-5-5-5c-2.1162109,0-4.0117188,1.3398438-4.7158203,3.3334961
	c-0.1845703,0.5205078-0.7539062,0.7939453-1.2763672,0.6098633c-0.5205078-0.184082-0.7939453-0.7553711-0.6103516-1.2758789
	C22.0429688,4.8754883,24.6962891,3,27.6591797,3c3.859375,0,7,3.1401367,7,7S31.5185547,17,27.6591797,17z"/>
<path fill="#42A6DD" d="M15.6591797,45c-2.9628906,0-5.6162109-1.8759766-6.6025391-4.6679688
	c-0.1835938-0.5205078,0.0898438-1.0917969,0.6103516-1.2763672c0.5224609-0.1796875,1.0917969,0.0888672,1.2763672,0.6103516
	C11.6474609,41.6601562,13.5429688,43,15.6591797,43c2.7568359,0,5-2.2431641,5-5s-2.2431641-5-5-5H2c-0.5527344,0-1-0.4472656-1-1
	s0.4472656-1,1-1h13.6591797c3.859375,0,7,3.140625,7,7S19.5185547,45,15.6591797,45z"/>
<path fill="#42A6DD" d="M40,37c-2.9619141,0-5.6152344-1.8759766-6.6015625-4.6679688
	c-0.1845703-0.5205078,0.0878906-1.0917969,0.609375-1.2753906c0.5224609-0.1845703,1.0917969,0.0888672,1.2753906,0.609375
	C35.9892578,33.6601562,37.8837891,35,40,35c2.7568359,0,5-2.2431641,5-5s-2.2431641-5-5-5H2c-0.5527344,0-1-0.4477539-1-1
	s0.4472656-1,1-1h38c3.859375,0,7,3.140625,7,7S43.859375,37,40,37z"/>
</g></svg>