<svg xmlns="http://www.w3.org/2000/svg" xmlns:xlink="http://www.w3.org/1999/xlink" x="0px" y="0px" width="48px" height="48px" viewBox="0 0 48 48"><g >
<path fill="#EFD358" d="M41.9804688,30.5668945c-0.2548828-0.253418-0.625-0.3500977-0.9707031-0.2578125
	C39.3310547,30.7675781,37.6455078,31,36,31c-10.4765625,0-19-8.5234375-19-19c0-1.6469727,0.2324219-3.3325195,0.6914062-5.0102539
	c0.0947266-0.3461914-0.0039177-0.7167969-0.2578125-0.9707031c-0.2529297-0.253418-0.625-0.3505859-0.9707031-0.2578125
	C7.3583984,8.2480469,1,16.5708008,1,26c0,11.5795898,9.4208984,21,21,21c9.4296875,0,17.7519531-6.3583984,20.2382812-15.4624023
	C42.3330078,31.190918,42.234375,30.8208008,41.9804688,30.5668945z"/>
<path fill="#C6C6C6" d="M34,5c-1.6542969,0-3-1.3457031-3-3c0-0.5522461-0.4472656-1-1-1s-1,0.4477539-1,1
	c0,1.6542969-1.3457031,3-3,3c-0.5527344,0-1,0.4477539-1,1s0.4472656,1,1,1c1.6542969,0,3,1.3457031,3,3
	c0,0.5522461,0.4472656,1,1,1s1-0.4477539,1-1c0-1.6542969,1.3457031-3,3-3c0.5527344,0,1-0.4477539,1-1S34.5527344,5,34,5z"/>
<path fill="#C6C6C6" d="M46,17c-1.6542969,0-3-1.3457031-3-3c0-0.5522461-0.4472656-1-1-1s-1,0.4477539-1,1
	c0,1.6542969-1.3457031,3-3,3c-0.5527344,0-1,0.4477539-1,1s0.4472656,1,1,1c1.6542969,0,3,1.3457031,3,3
	c0,0.5522461,0.4472656,1,1,1s1-0.4477539,1-1c0-1.6542969,1.3457031-3,3-3c0.5527344,0,1-0.4477539,1-1S46.5527344,17,46,17z"/>
</g></svg>