<svg xmlns="http://www.w3.org/2000/svg" xmlns:xlink="http://www.w3.org/1999/xlink" x="0px" y="0px" width="48px" height="48px" viewBox="0 0 48 48"><g >
<path fill="#C6C6C6" d="M39,33H10c-4.9624023,0-9-4.0375977-9-9c0-3.8754883,2.4697266-7.2763672,6.0898438-8.5087891
	C7.8540039,7.309082,14.7099609,1,23,1c8.090332,0,14.8930664,6.1015625,15.8637695,14.0473633
	C43.4448242,15.5004883,47,19.3427734,47,24c0,4.4135742-3.2197266,8.1713867-7.543457,8.875
	C39.3198242,32.9541016,39.1645508,33,39,33z"/>
<path fill="#42A6DD" d="M24,47c-0.5522461,0-1-0.4477539-1-1v-2c0-0.5522461,0.4477539-1,1-1s1,0.4477539,1,1v2
	C25,46.5522461,24.5522461,47,24,47z"/>
<path fill="#42A6DD" d="M24,35c-0.5522461,0-1-0.4477539-1-1v-2c0-0.5522461,0.4477539-1,1-1s1,0.4477539,1,1v2
	C25,34.5522461,24.5522461,35,24,35z"/>
<path fill="#42A6DD" d="M16,41c-0.5522461,0-1-0.4477539-1-1v-2c0-0.5522461,0.4477539-1,1-1s1,0.4477539,1,1v2
	C17,40.5522461,16.5522461,41,16,41z"/>
<path fill="#42A6DD" d="M32,41c-0.5522461,0-1-0.4477539-1-1v-2c0-0.5522461,0.4477539-1,1-1s1,0.4477539,1,1v2
	C33,40.5522461,32.5522461,41,32,41z"/>
<path fill="#42A6DD" d="M16,29c-0.5522461,0-1-0.4477539-1-1v-2c0-0.5522461,0.4477539-1,1-1s1,0.4477539,1,1v2
	C17,28.5522461,16.5522461,29,16,29z"/>
<path fill="#42A6DD" d="M32,29c-0.5522461,0-1-0.4477539-1-1v-2c0-0.5522461,0.4477539-1,1-1s1,0.4477539,1,1v2
	C33,28.5522461,32.5522461,29,32,29z"/>
</g></svg>