<svg xmlns="http://www.w3.org/2000/svg" xmlns:xlink="http://www.w3.org/1999/xlink" x="0px" y="0px" width="48px" height="48px" viewBox="0 0 48 48"><g >
<path fill="#E0E0E0" d="M36,35H18C8.6259766,35,1,27.3740234,1,18S8.6259766,1,18,1
	c7.5864258,0,14.1474609,4.9453125,16.2792969,12.1430664C34.859375,13.0478516,35.4350586,13,36,13c6.0654297,0,11,4.9345703,11,11
	S42.0654297,35,36,35z"/>
<path fill="#42A6DD" d="M18,35H2c-0.5522461,0-1-0.4472656-1-1s0.4477539-1,1-1h16c0.5522461,0,1,0.4472656,1,1S18.5522461,35,18,35
	z"/>
<path fill="#42A6DD" d="M24,27H8c-0.5522461,0-1-0.4472656-1-1s0.4477539-1,1-1h16c0.5522461,0,1,0.4472656,1,1S24.5522461,27,24,27
	z"/>
<path fill="#42A6DD" d="M28,43H12c-0.5522461,0-1-0.4472656-1-1s0.4477539-1,1-1h16c0.5522461,0,1,0.4472656,1,1
	S28.5522461,43,28,43z"/>
</g></svg>