<svg xmlns="http://www.w3.org/2000/svg" xmlns:xlink="http://www.w3.org/1999/xlink" x="0px" y="0px" width="48px" height="48px" viewBox="0 0 48 48"><g >
<path fill="#EFD358" d="M26,40C15.5234375,40,7,31.4765625,7,21c0-8.2670898,5.2861328-15.5307617,13.1538086-18.0742188
	c0.3408203-0.1088867,0.7148438-0.0292969,0.9804688,0.2119141C21.3994141,3.3789062,21.5151367,3.7436523,21.4375,4.09375
	C21.1474609,5.4042969,21,6.71875,21,8c0,9.925293,8.074707,18,18,18c1.2822266,0,2.5961914-0.1474609,3.9057617-0.4384766
	c0.3491211-0.0771484,0.7148438,0.0380859,0.956543,0.3037109c0.2412109,0.2646484,0.3222656,0.6396484,0.2119141,0.9804688
	C41.5307617,34.7138672,34.2675781,40,26,40z"/>
<path fill="#4DA2DA" d="M18,38H2c-0.5522461,0-1-0.4472656-1-1s0.4477539-1,1-1h16c0.5522461,0,1,0.4472656,1,1S18.5522461,38,18,38
	z"/>
<path fill="#4DA2DA" d="M24,30H8c-0.5522461,0-1-0.4472656-1-1s0.4477539-1,1-1h16c0.5522461,0,1,0.4472656,1,1S24.5522461,30,24,30
	z"/>
<path fill="#4DA2DA" d="M26,46H10c-0.5522461,0-1-0.4472656-1-1s0.4477539-1,1-1h16c0.5522461,0,1,0.4472656,1,1
	S26.5522461,46,26,46z"/>
</g></svg>