<svg xmlns="http://www.w3.org/2000/svg" xmlns:xlink="http://www.w3.org/1999/xlink" x="0px" y="0px" width="48px" height="48px" viewBox="0 0 48 48"><g >
<path fill="#EFD358" d="M46,20h-2c-0.5522461,0-1-0.4472656-1-1s0.4477539-1,1-1h2c0.5522461,0,1,0.4472656,1,1S46.5522461,20,46,20
	z"/>
<path fill="#EFD358" d="M42.3137093,9.1005049l-1.4142151,1.4142141c-0.3904953,0.3904963-1.0233688,0.3908415-1.4142113,0
	c-0.3908424-0.3908424-0.3904991-1.0237169,0-1.4142141l1.4142113-1.4142132c0.3904991-0.3904972,1.0233727-0.3908424,1.4142151,0
	S42.7042046,8.7100077,42.3137093,9.1005049z"/>
<path fill="#EFD358" d="M32,4v2c0,0.5522461-0.4472656,1-1,1s-1-0.4477539-1-1V4c0-0.5522461,0.4472656-1,1-1S32,3.4477539,32,4z"/>
<path fill="#EFD358" d="M21.1005058,7.6862917l1.4142132,1.4142132c0.3904972,0.3904972,0.3908424,1.0233717,0,1.4142141
	c-0.3908424,0.3908415-1.0237179,0.3904963-1.4142132,0l-1.4142151-1.4142141c-0.3904953-0.3904972-0.3908405-1.0233707,0-1.4142132
	C20.0771332,7.2954493,20.7100086,7.2957945,21.1005058,7.6862917z"/>
<path fill="#EFD358" d="M31,29c-5.5141602,0-10-4.4863281-10-10S25.4858398,9,31,9s10,4.4863281,10,10S36.5141602,29,31,29z"/>
<path fill="#EFD358" d="M31,7c-0.5522461,0-1-0.4472656-1-1V4c0-0.5527344,0.4477539-1,1-1s1,0.4472656,1,1v2
	C32,6.5527344,31.5522461,7,31,7z"/>
<path fill="#42A6DD" d="M46,39H2c-0.5522461,0-1-0.4472656-1-1s0.4477539-1,1-1h44c0.5522461,0,1,0.4472656,1,1S46.5522461,39,46,39
	z"/>
<path fill="#42A6DD" d="M40,46H8c-0.5522461,0-1-0.4472656-1-1s0.4477539-1,1-1h32c0.5522461,0,1,0.4472656,1,1S40.5522461,46,40,46
	z"/>
<path fill="#E0E0E0" d="M4.3555908,37h39.2888184C45.6881104,35.3488159,47,32.8261108,47,30c0-4.9628906-4.0375977-9-9-9
	c-1.4345703,0-2.8310547,0.3417969-4.0991211,0.9980469C31.9628906,17.7666016,27.7241211,15,23,15
	c-4.4443359,0-8.5019531,2.4619141-10.578125,6.34375C11.6230469,21.1152344,10.8120117,21,10,21c-4.9624023,0-9,4.0371094-9,9
	C1,32.8261108,2.3118896,35.3488159,4.3555908,37z"/>
</g></svg>