<svg xmlns="http://www.w3.org/2000/svg" xmlns:xlink="http://www.w3.org/1999/xlink" x="0px" y="0px" width="48px" height="48px" viewBox="0 0 48 48"><g >
<path fill="#E0E0E0" d="M5.895874,35h36.1983032C45.0237427,33.4987183,47,30.4538574,47,27
	c0-4.6572266-3.5551758-8.4995117-8.1362305-8.9526367C37.8930664,10.1015625,31.090332,4,23,4
	C14.7099609,4,7.8540039,10.309082,7.0898438,18.4912109C3.4697266,19.7236328,1,23.1245117,1,27
	C1,30.4834595,2.9934692,33.5046997,5.895874,35z"/>
<path fill="#42A6DD" d="M46,36H2c-0.5522461,0-1-0.4472656-1-1s0.4477539-1,1-1h44c0.5522461,0,1,0.4472656,1,1S46.5522461,36,46,36
	z"/>
<path fill="#42A6DD" d="M40,43H8c-0.5522461,0-1-0.4472656-1-1s0.4477539-1,1-1h32c0.5522461,0,1,0.4472656,1,1S40.5522461,43,40,43
	z"/>
</g></svg>