<svg xmlns="http://www.w3.org/2000/svg" xmlns:xlink="http://www.w3.org/1999/xlink" x="0px" y="0px" width="48px" height="48px" viewBox="0 0 48 48"><g >
<path fill="#666666" d="M46,7H2C1.4477539,7,1,6.5527344,1,6s0.4477539-1,1-1h44c0.5522461,0,1,0.4472656,1,1S46.5522461,7,46,7z"/>
<path fill="#B3B3B3" d="M40,14H8c-0.5522461,0-1-0.4472656-1-1s0.4477539-1,1-1h32c0.5522461,0,1,0.4472656,1,1S40.5522461,14,40,14
	z"/>
<path fill="#666666" d="M42,21H14c-0.5522461,0-1-0.4472656-1-1s0.4477539-1,1-1h28c0.5522461,0,1,0.4472656,1,1
	S42.5522461,21,42,21z"/>
<path fill="#B3B3B3" d="M36,28H18c-0.5522461,0-1-0.4472656-1-1s0.4477539-1,1-1h18c0.5522461,0,1,0.4472656,1,1
	S36.5522461,28,36,28z"/>
<path fill="#666666" d="M26,35H14c-0.5522461,0-1-0.4472656-1-1s0.4477539-1,1-1h12c0.5522461,0,1,0.4472656,1,1
	S26.5522461,35,26,35z"/>
<path fill="#B3B3B3" d="M16,42H8c-0.5522461,0-1-0.4472656-1-1s0.4477539-1,1-1h8c0.5522461,0,1,0.4472656,1,1S16.5522461,42,16,42z
	"/>
</g></svg>