<svg xmlns="http://www.w3.org/2000/svg" xmlns:xlink="http://www.w3.org/1999/xlink" x="0px" y="0px" width="48px" height="48px" viewBox="0 0 48 48"><g >
<path fill="#E86C60" d="M24,46C11.8688011,46,2,36.1307335,2,24S11.8688011,2,24,2s22,9.8692684,22,22S36.1311989,46,24,46z"/>
<path fill="#E0E0E0" d="M21.9999657,36.0001755c-0.0205078,0-0.0410156-0.0004883-0.0615234-0.0019531
	c-0.4306641-0.0263672-0.7958984-0.3261719-0.9052734-0.7436523l-5-19c-0.0908203-0.34375,0.0078125-0.7099609,0.2597656-0.9614258
	c0.2509766-0.2519531,0.6152344-0.3505859,0.9619141-0.2602539l19,5c0.4169922,0.1098633,0.7167969,0.4750977,0.7431641,0.9057617
	s-0.2255859,0.8295898-0.6269531,0.9902344l-9.6015625,3.8408203l-3.8408203,9.6020508
	C22.7763329,35.7531052,22.4071922,36.0001755,21.9999657,36.0001755z"/>
</g></svg>