<svg xmlns="http://www.w3.org/2000/svg" xmlns:xlink="http://www.w3.org/1999/xlink" x="0px" y="0px" width="48px" height="48px" viewBox="0 0 48 48"><g >
<path fill="#42A6DD" d="M24,27c-0.2558594,0-0.5117188-0.0976562-0.7070312-0.2929688
	c-0.390625-0.390625-0.390625-1.0234375,0-1.4140625l20-20c0.390625-0.390625,1.0234375-0.390625,1.4140625,0
	s0.390625,1.0234375,0,1.4140625l-20,20C24.5117188,26.9023438,24.2558594,27,24,27z"/>
<path fill="#42A6DD" d="M24,42c-0.2558594,0-0.5117188-0.0976562-0.7070312-0.2929688
	c-0.390625-0.390625-0.390625-1.0234375,0-1.4140625l20-20c0.390625-0.390625,1.0234375-0.390625,1.4140625,0
	s0.390625,1.0234375,0,1.4140625l-20,20C24.5117188,41.9023438,24.2558594,42,24,42z"/>
<path fill="#42A6DD" d="M4,33c-0.2558594,0-0.5117188-0.0976562-0.7070312-0.2929688
	c-0.390625-0.390625-0.390625-1.0234375,0-1.4140625l20-20c0.390625-0.390625,1.0234375-0.390625,1.4140625,0
	s0.390625,1.0234375,0,1.4140625l-20,20C4.5117188,32.9023438,4.2558594,33,4,33z"/>
</g></svg>