<svg xmlns="http://www.w3.org/2000/svg" xmlns:xlink="http://www.w3.org/1999/xlink" x="0px" y="0px" width="48px" height="48px" viewBox="0 0 48 48"><g >
<path fill="#EA9860" d="M4,28H2c-0.5527344,0-1-0.4477539-1-1s0.4472656-1,1-1h2c0.5527344,0,1,0.4477539,1,1S4.5527344,28,4,28z"/>
<path fill="#EA9860" d="M9.7998047,13.7998047c-0.2558594,0-0.5117188-0.0976562-0.7070312-0.2929688l-1.3994141-1.3999023
	c-0.390625-0.390625-0.390625-1.0239258,0-1.4140625c0.390625-0.390625,1.0234375-0.390625,1.4140625,0l1.3994141,1.3999023
	c0.390625,0.390625,0.390625,1.0239258,0,1.4140625C10.3115234,13.7021484,10.0556641,13.7998047,9.7998047,13.7998047z"/>
<path fill="#EA9860" d="M24,8c-0.5527344,0-1-0.4477539-1-1V5c0-0.5522461,0.4472656-1,1-1s1,0.4477539,1,1v2
	C25,7.5522461,24.5527344,8,24,8z"/>
<path fill="#EA9860" d="M38.2001953,13.7998047c-0.2558594,0-0.5117188-0.0976562-0.7070312-0.2929688
	c-0.390625-0.3901367-0.390625-1.0234375,0-1.4140625l1.3994141-1.3999023c0.390625-0.390625,1.0234375-0.390625,1.4140625,0
	c0.390625,0.3901367,0.390625,1.0234375,0,1.4140625l-1.3994141,1.3999023
	C38.7119141,13.7021484,38.4560547,13.7998047,38.2001953,13.7998047z"/>
<path fill="#EA9860" d="M46,28h-2c-0.5527344,0-1-0.4477539-1-1s0.4472656-1,1-1h2c0.5527344,0,1,0.4477539,1,1S46.5527344,28,46,28
	z"/>
<path fill="#42A6DD" d="M46,36H2c-0.5527344,0-1-0.4477539-1-1s0.4472656-1,1-1h44c0.5527344,0,1,0.4477539,1,1S46.5527344,36,46,36
	z"/>
<path fill="#42A6DD" d="M40,43H8c-0.5527344,0-1-0.4477539-1-1s0.4472656-1,1-1h32c0.5527344,0,1,0.4477539,1,1S40.5527344,43,40,43
	z"/>
<path fill="#EA9860" d="M34.9428711,34C36.2390137,31.9780884,37,29.5800171,37,27c0-7.1796875-5.8203125-13-13-13
	s-13,5.8203125-13,13c0,2.5800171,0.7609863,4.9780884,2.0571289,7H34.9428711z"/>
</g></svg>