<svg xmlns="http://www.w3.org/2000/svg" xmlns:xlink="http://www.w3.org/1999/xlink" x="0px" y="0px" width="48px" height="48px" viewBox="0 0 48 48"><g >
<circle fill="#EFD358" cx="24" cy="24" r="13"/>
<path fill="#EFD358" d="M4,25H2c-0.5522461,0-1-0.4472656-1-1s0.4477539-1,1-1h2c0.5522461,0,1,0.4472656,1,1S4.5522461,25,4,25z"/>
<path fill="#EFD358" d="M9.7998047,10.7998047c-0.2558594,0-0.5117188-0.0976562-0.7070312-0.2929688L7.6928711,9.1074219
	c-0.390625-0.390625-0.390625-1.0234375,0-1.4140625c0.3896484-0.390625,1.0234375-0.390625,1.4140625,0l1.3999023,1.3994141
	c0.390625,0.390625,0.390625,1.0234375,0,1.4140625C10.3120117,10.7021484,10.0556641,10.7998047,9.7998047,10.7998047z"/>
<path fill="#EFD358" d="M24,5c-0.5522461,0-1-0.4472656-1-1V2c0-0.5527344,0.4477539-1,1-1s1,0.4472656,1,1v2
	C25,4.5527344,24.5522461,5,24,5z"/>
<path fill="#EFD358" d="M38.2001953,10.7998047c-0.2558594,0-0.5117188-0.0976562-0.7070312-0.2929688
	c-0.390625-0.390625-0.390625-1.0234375,0-1.4140625l1.3999023-1.3994141c0.390625-0.390625,1.0234375-0.390625,1.4140625,0
	s0.390625,1.0234375,0,1.4140625l-1.3999023,1.3994141C38.7119141,10.7021484,38.4560547,10.7998047,38.2001953,10.7998047z"/>
<path fill="#EFD358" d="M46,25h-2c-0.5522461,0-1-0.4472656-1-1s0.4477539-1,1-1h2c0.5522461,0,1,0.4472656,1,1S46.5522461,25,46,25
	z"/>
<path fill="#E0E0E0" d="M38,47H10c-4.9624023,0-9-4.0371094-9-9s4.0375977-9,9-9c0.8120117,0,1.6230469,0.1152344,2.421875,0.34375
	C14.4980469,25.4619141,18.5556641,23,23,23c4.7241211,0,8.9628906,2.7666016,10.9008789,6.9980469
	C35.1689453,29.3417969,36.5654297,29,38,29c4.9624023,0,9,4.0371094,9,9S42.9624023,47,38,47z"/>
</g></svg>