<?xml version="1.0" encoding="utf-8"?>
<!-- Generator: Adobe Illustrator 18.1.1, SVG Export Plug-In . SVG Version: 6.00 Build 0)  -->
<!DOCTYPE svg PUBLIC "-//W3C//DTD SVG 1.1//EN" "http://www.w3.org/Graphics/SVG/1.1/DTD/svg11.dtd">
<svg version="1.1" id="Layer_1" xmlns="http://www.w3.org/2000/svg" xmlns:xlink="http://www.w3.org/1999/xlink" x="0px" y="0px"
	 width="32px" height="32px" viewBox="0 0 32 32" enable-background="new 0 0 32 32" xml:space="preserve">
<path d="M31,3h-4c0-0.6-0.4-1-1-1h-4c-0.6,0-1,0.4-1,1h-2c0-0.6-0.4-1-1-1h-4c-0.6,0-1,0.4-1,1h-2c0-0.6-0.4-1-1-1H6
	C5.4,2,5,2.4,5,3H1C0.4,3,0,3.4,0,4v25c0,0.6,0.4,1,1,1h7h8h8h7c0.6,0,1-0.4,1-1V4C32,3.4,31.6,3,31,3z M25,4v14h-2V4H25z M17,4v14
	h-2V4H17z M9,4v14H7V4H9z M2,5h3v14c0,0.6,0.4,1,1,1h1v8H2V5z M9,20h1c0.6,0,1-0.4,1-1V5h2v14c0,0.6,0.4,1,1,1h1v8H9V20z M17,20h1
	c0.6,0,1-0.4,1-1V5h2v14c0,0.6,0.4,1,1,1h1v8h-6V20z M30,28h-5v-8h1c0.6,0,1-0.4,1-1V5h3V28z"/>
</svg>
