<?xml version="1.0" encoding="utf-8"?>
<!-- Generator: Adobe Illustrator 18.1.1, SVG Export Plug-In . SVG Version: 6.00 Build 0)  -->
<!DOCTYPE svg PUBLIC "-//W3C//DTD SVG 1.1//EN" "http://www.w3.org/Graphics/SVG/1.1/DTD/svg11.dtd">
<svg version="1.1" id="Layer_1" xmlns="http://www.w3.org/2000/svg" xmlns:xlink="http://www.w3.org/1999/xlink" x="0px" y="0px"
	 width="32px" height="32px" viewBox="0 0 32 32" enable-background="new 0 0 32 32" xml:space="preserve">
<path d="M31,16h-4c-0.3,0-0.6,0.2-0.8,0.4l-2.8,4.2L19,5.7C18.8,5.3,18.4,5,18,5c-0.5,0-0.8,0.3-0.9,0.8l-4.2,16.8L8.9,11.7
	C8.8,11.3,8.5,11,8.1,11c-0.4,0-0.8,0.1-1,0.5L4.4,16H1c-0.6,0-1,0.4-1,1s0.4,1,1,1h4c0.4,0,0.7-0.2,0.9-0.5l1.9-3.2l4.3,12
	c0.1,0.4,0.5,0.7,0.9,0.7c0,0,0,0,0,0c0.4,0,0.8-0.3,0.9-0.8l4.1-16.4l4,13.5c0.1,0.4,0.4,0.6,0.8,0.7c0.4,0.1,0.8-0.1,1-0.4
	l3.7-5.6H31c0.6,0,1-0.4,1-1S31.6,16,31,16z"/>
</svg>
