<?xml version="1.0" encoding="utf-8"?>
<!-- Generator: Adobe Illustrator 18.1.1, SVG Export Plug-In . SVG Version: 6.00 Build 0)  -->
<!DOCTYPE svg PUBLIC "-//W3C//DTD SVG 1.1//EN" "http://www.w3.org/Graphics/SVG/1.1/DTD/svg11.dtd">
<svg version="1.1" id="Layer_1" xmlns="http://www.w3.org/2000/svg" xmlns:xlink="http://www.w3.org/1999/xlink" x="0px" y="0px"
	 width="32px" height="32px" viewBox="0 0 32 32" enable-background="new 0 0 32 32" xml:space="preserve">
<path d="M3.6,13c-0.5-0.1-1.1,0.2-1.2,0.7C2.1,14.8,2,15.9,2,17c0,7.7,6.3,14,14,14s14-6.3,14-14c0-6.3-4.1-11.7-10-13.4
	c-0.2-2-1.9-3.6-4-3.6c-2.2,0-4,1.8-4,4s1.8,4,4,4c1.6,0,3.1-1,3.7-2.4C24.6,7.2,28,11.7,28,17c0,6.6-5.4,12-12,12S4,23.6,4,17
	c0-0.9,0.1-1.9,0.3-2.8C4.4,13.7,4.1,13.2,3.6,13z M16,6c-1.1,0-2-0.9-2-2s0.9-2,2-2s2,0.9,2,2S17.1,6,16,6z"/>
<path d="M6.6,7.6C6.3,7.9,6.2,8.4,6.5,8.8c1,1.6,5.8,9.7,6.9,10.8c0.7,0.7,1.6,1.1,2.6,1.1s1.9-0.4,2.6-1.1c1.5-1.5,1.5-3.8,0-5.3
	c-1.1-1.1-9.2-5.9-10.8-6.9C7.4,7.2,6.9,7.3,6.6,7.6z M17.2,15.8c0.7,0.7,0.7,1.8,0,2.4c-0.7,0.7-1.8,0.7-2.4,0
	c-0.5-0.5-2.6-3.8-4.5-7C13.4,13.2,16.7,15.3,17.2,15.8z"/>
</svg>
