<?xml version="1.0" encoding="utf-8"?>
<!-- Generator: Adobe Illustrator 18.1.1, SVG Export Plug-In . SVG Version: 6.00 Build 0)  -->
<!DOCTYPE svg PUBLIC "-//W3C//DTD SVG 1.1//EN" "http://www.w3.org/Graphics/SVG/1.1/DTD/svg11.dtd">
<svg version="1.1" id="Layer_1" xmlns="http://www.w3.org/2000/svg" xmlns:xlink="http://www.w3.org/1999/xlink" x="0px" y="0px"
	 width="32px" height="32px" viewBox="0 0 32 32" enable-background="new 0 0 32 32" xml:space="preserve">
<path d="M31,6h-7.6l-3.7-3.7C19.5,2.1,19.3,2,19,2h-6c-0.3,0-0.5,0.1-0.7,0.3L8.6,6H1C0.4,6,0,6.4,0,7v22c0,0.6,0.4,1,1,1h30
	c0.6,0,1-0.4,1-1V7C32,6.4,31.6,6,31,6z M30,28H2V8h7c0.3,0,0.5-0.1,0.7-0.3L13.4,4h5.2l3.7,3.7C22.5,7.9,22.7,8,23,8h7V28z"/>
<path d="M3,3C2.4,3,2,3.4,2,4s0.4,1,1,1h3c0.6,0,1-0.4,1-1S6.6,3,6,3H3z"/>
<path d="M21.7,12.3C21.7,12.3,21.6,12.3,21.7,12.3C20.2,10.9,18.2,10,16,10c-4.4,0-8,3.6-8,8c0,2.2,0.9,4.2,2.3,5.6c0,0,0,0,0,0
	c0,0,0,0,0,0c1.4,1.4,3.4,2.3,5.6,2.3c4.4,0,8-3.6,8-8C24,15.8,23.1,13.8,21.7,12.3C21.7,12.4,21.7,12.3,21.7,12.3z M16,12
	c1.3,0,2.5,0.4,3.5,1.1l-8.4,8.4c-0.7-1-1.1-2.2-1.1-3.5C10,14.7,12.7,12,16,12z M16,24c-1.3,0-2.5-0.4-3.5-1.1l8.4-8.4
	c0.7,1,1.1,2.2,1.1,3.5C22,21.3,19.3,24,16,24z"/>
</svg>
