<?xml version="1.0" encoding="utf-8"?>
<!-- Generator: Adobe Illustrator 18.1.1, SVG Export Plug-In . SVG Version: 6.00 Build 0)  -->
<!DOCTYPE svg PUBLIC "-//W3C//DTD SVG 1.1//EN" "http://www.w3.org/Graphics/SVG/1.1/DTD/svg11.dtd">
<svg version="1.1" id="Layer_1" xmlns="http://www.w3.org/2000/svg" xmlns:xlink="http://www.w3.org/1999/xlink" x="0px" y="0px"
	 width="32px" height="32px" viewBox="0 0 32 32" enable-background="new 0 0 32 32" xml:space="preserve">
<path d="M16.8,4.4c-0.4-0.5-1.2-0.5-1.6,0l-13,17c-0.2,0.3-0.3,0.7-0.1,1.1C2.3,22.8,2.6,23,3,23h26c0,0,0,0,0,0c0.6,0,1-0.4,1-1
	c0-0.3-0.1-0.6-0.3-0.7L16.8,4.4z M5,21L16,6.6L27,21H5z"/>
<path d="M28.4,26H4c-0.6,0-1,0.4-1,1s0.4,1,1,1h24.4c0.6,0,1-0.4,1-1S28.9,26,28.4,26z"/>
</svg>
