<?xml version="1.0" encoding="utf-8"?>
<!-- Generator: Adobe Illustrator 18.1.1, SVG Export Plug-In . SVG Version: 6.00 Build 0)  -->
<!DOCTYPE svg PUBLIC "-//W3C//DTD SVG 1.1//EN" "http://www.w3.org/Graphics/SVG/1.1/DTD/svg11.dtd">
<svg version="1.1" id="Layer_1" xmlns="http://www.w3.org/2000/svg" xmlns:xlink="http://www.w3.org/1999/xlink" x="0px" y="0px"
	 width="32px" height="32px" viewBox="0 0 32 32" enable-background="new 0 0 32 32" xml:space="preserve">
<path d="M27.3,4.7C27.3,4.7,27.3,4.7,27.3,4.7C24.4,1.8,20.4,0,16,0C7.2,0,0,7.2,0,16c0,4.4,1.8,8.4,4.7,11.3c0,0,0,0,0,0s0,0,0,0
	C7.6,30.2,11.6,32,16,32c8.8,0,16-7.2,16-16C32,11.6,30.2,7.6,27.3,4.7C27.3,4.7,27.3,4.7,27.3,4.7z M16,2c3.5,0,6.7,1.3,9.2,3.4
	L21,9.6V8c0-0.4-0.2-0.7-0.6-0.9c-0.3-0.2-0.8-0.1-1.1,0.1L14.6,11H9c-0.6,0-1,0.4-1,1v8c0,0.6,0.4,1,1,1h0.6l-4.2,4.2
	C3.3,22.7,2,19.5,2,16C2,8.3,8.3,2,16,2z M11.6,19H10v-6h5c0.2,0,0.4-0.1,0.6-0.2l3.4-2.7v1.5L11.6,19z M19,14.4v7.5l-3.4-2.7
	C15.4,19.1,15.2,19,15,19h-0.6L19,14.4z M16,30c-3.5,0-6.7-1.3-9.2-3.4l5.6-5.6h2.2l4.7,3.8c0.2,0.1,0.4,0.2,0.6,0.2
	c0.1,0,0.3,0,0.4-0.1c0.3-0.2,0.6-0.5,0.6-0.9V12.4l5.6-5.6C28.7,9.3,30,12.5,30,16C30,23.7,23.7,30,16,30z"/>
</svg>
