<?xml version="1.0" encoding="utf-8"?>
<!-- Generator: Adobe Illustrator 18.1.1, SVG Export Plug-In . SVG Version: 6.00 Build 0)  -->
<!DOCTYPE svg PUBLIC "-//W3C//DTD SVG 1.1//EN" "http://www.w3.org/Graphics/SVG/1.1/DTD/svg11.dtd">
<svg version="1.1" id="Layer_1" xmlns="http://www.w3.org/2000/svg" xmlns:xlink="http://www.w3.org/1999/xlink" x="0px" y="0px"
	 width="32px" height="32px" viewBox="0 0 32 32" enable-background="new 0 0 32 32" xml:space="preserve">
<path d="M31,7h-4.6l4.3-4.3c0.4-0.4,0.4-1,0-1.4s-1-0.4-1.4,0L23.6,7h-1.1l-2.7-3.6C19.6,3.1,19.3,3,19,3h-7c-0.3,0-0.6,0.1-0.8,0.4
	L8.5,7H1C0.4,7,0,7.4,0,8v18c0,0.6,0.4,1,1,1h2.6l-2.3,2.3c-0.4,0.4-0.4,1,0,1.4C1.5,30.9,1.7,31,2,31s0.5-0.1,0.7-0.3L6.4,27H31
	c0.6,0,1-0.4,1-1V8C32,7.4,31.6,7,31,7z M2,25V9h7c0.3,0,0.6-0.1,0.8-0.4L12.5,5h6l2.7,3.6c0.1,0.2,0.3,0.3,0.5,0.3l-2.2,2.2
	c-1-0.7-2.2-1.1-3.5-1.1c-3.3,0-6,2.7-6,6c0,1.3,0.4,2.5,1.1,3.5L5.6,25H2z M20,16c0,2.2-1.8,4-4,4c-0.7,0-1.4-0.2-2-0.6l5.5-5.5
	C19.8,14.6,20,15.3,20,16z M12,16c0-2.2,1.8-4,4-4c0.7,0,1.4,0.2,2,0.6L12.6,18C12.2,17.4,12,16.7,12,16z M30,25H8.4l4.1-4.1
	c1,0.7,2.2,1.1,3.5,1.1c3.3,0,6-2.7,6-6c0-1.3-0.4-2.5-1.1-3.5L24.4,9H30V25z"/>
</svg>
