<?xml version="1.0" encoding="utf-8"?>
<!-- Generator: Adobe Illustrator 18.1.1, SVG Export Plug-In . SVG Version: 6.00 Build 0)  -->
<!DOCTYPE svg PUBLIC "-//W3C//DTD SVG 1.1//EN" "http://www.w3.org/Graphics/SVG/1.1/DTD/svg11.dtd">
<svg version="1.1" id="Layer_1" xmlns="http://www.w3.org/2000/svg" xmlns:xlink="http://www.w3.org/1999/xlink" x="0px" y="0px"
	 width="32px" height="32px" viewBox="0 0 32 32" enable-background="new 0 0 32 32" xml:space="preserve">
<path d="M31,2H1C0.4,2,0,2.4,0,3v26c0,0.6,0.4,1,1,1h30c0.6,0,1-0.4,1-1V3C32,2.4,31.6,2,31,2z M30,28H2V4h28V28z"/>
<path d="M10,21h3c0.6,0,1-0.4,1-1s-0.4-1-1-1h-2v-6h2c0.6,0,1-0.4,1-1s-0.4-1-1-1h-3c-0.6,0-1,0.4-1,1v8C9,20.6,9.4,21,10,21z"/>
<path d="M19,19c-0.6,0-1,0.4-1,1s0.4,1,1,1h3c0.6,0,1-0.4,1-1v-8c0-0.6-0.4-1-1-1h-3c-0.6,0-1,0.4-1,1s0.4,1,1,1h2v6H19z"/>
</svg>
