<?xml version="1.0" encoding="utf-8"?>
<!-- Generator: Adobe Illustrator 18.1.1, SVG Export Plug-In . SVG Version: 6.00 Build 0)  -->
<!DOCTYPE svg PUBLIC "-//W3C//DTD SVG 1.1//EN" "http://www.w3.org/Graphics/SVG/1.1/DTD/svg11.dtd">
<svg version="1.1" id="Layer_1" xmlns="http://www.w3.org/2000/svg" xmlns:xlink="http://www.w3.org/1999/xlink" x="0px" y="0px"
	 width="32px" height="32px" viewBox="0 0 32 32" enable-background="new 0 0 32 32" xml:space="preserve">
<path d="M31,0H1C0.4,0,0,0.4,0,1v30c0,0.6,0.4,1,1,1h30c0.6,0,1-0.4,1-1V1C32,0.4,31.6,0,31,0z M30,30H2V2h28V30z"/>
<path d="M11.6,22.9C11.7,23,11.8,23,12,23c0.2,0,0.4-0.1,0.6-0.2l8-6c0.3-0.2,0.4-0.5,0.4-0.8s-0.1-0.6-0.4-0.8l-8-6
	c-0.3-0.2-0.7-0.3-1-0.1C11.2,9.3,11,9.6,11,10v12C11,22.4,11.2,22.7,11.6,22.9z M13,12l5.3,4L13,20V12z"/>
</svg>
