<?xml version="1.0" encoding="utf-8"?>
<!-- Generator: Adobe Illustrator 18.1.1, SVG Export Plug-In . SVG Version: 6.00 Build 0)  -->
<!DOCTYPE svg PUBLIC "-//W3C//DTD SVG 1.1//EN" "http://www.w3.org/Graphics/SVG/1.1/DTD/svg11.dtd">
<svg version="1.1" id="Layer_1" xmlns="http://www.w3.org/2000/svg" xmlns:xlink="http://www.w3.org/1999/xlink" x="0px" y="0px"
	 width="32px" height="32px" viewBox="0 0 32 32" enable-background="new 0 0 32 32" xml:space="preserve">
<path d="M31,0c-0.6,0-1,0.4-1,1v2h-4V1c0-0.6-0.4-1-1-1H7C6.4,0,6,0.4,6,1v2H2V1c0-0.6-0.4-1-1-1S0,0.4,0,1v30c0,0.6,0.4,1,1,1
	s1-0.4,1-1v-2h4v2c0,0.6,0.4,1,1,1h18c0.6,0,1-0.4,1-1v-2h4v2c0,0.6,0.4,1,1,1s1-0.4,1-1V1C32,0.4,31.6,0,31,0z M26,17h4v4h-4V17z
	 M26,11h4v4h-4V11z M30,5v4h-4V5H30z M8,2h16v13H8V2z M6,21H2v-4h4V21z M2,15v-4h4v4H2z M6,5v4H2V5H6z M2,27v-4h4v4H2z M24,30H8V17
	h16V30z M26,27v-4h4v4H26z"/>
</svg>
