<?xml version="1.0" encoding="utf-8"?>
<!-- Generator: Adobe Illustrator 18.1.1, SVG Export Plug-In . SVG Version: 6.00 Build 0)  -->
<!DOCTYPE svg PUBLIC "-//W3C//DTD SVG 1.1//EN" "http://www.w3.org/Graphics/SVG/1.1/DTD/svg11.dtd">
<svg version="1.1" id="Layer_1" xmlns="http://www.w3.org/2000/svg" xmlns:xlink="http://www.w3.org/1999/xlink" x="0px" y="0px"
	 width="32px" height="32px" viewBox="0 0 32 32" enable-background="new 0 0 32 32" xml:space="preserve">
<path d="M1,11c0.6,0,1-0.4,1-1V3h7c0.6,0,1-0.4,1-1S9.6,1,9,1H1C0.4,1,0,1.4,0,2v8C0,10.6,0.4,11,1,11z"/>
<path d="M31,1h-8c-0.6,0-1,0.4-1,1s0.4,1,1,1h7v7c0,0.6,0.4,1,1,1s1-0.4,1-1V2C32,1.4,31.6,1,31,1z"/>
<path d="M31,21c-0.6,0-1,0.4-1,1v7h-7c-0.6,0-1,0.4-1,1s0.4,1,1,1h8c0.6,0,1-0.4,1-1v-8C32,21.4,31.6,21,31,21z"/>
<path d="M1,31h8c0.6,0,1-0.4,1-1s-0.4-1-1-1H2v-7c0-0.6-0.4-1-1-1s-1,0.4-1,1v8C0,30.6,0.4,31,1,31z"/>
<path d="M16,11c-2.8,0-5,2.2-5,5s2.2,5,5,5s5-2.2,5-5S18.8,11,16,11z M16,19c-1.7,0-3-1.3-3-3s1.3-3,3-3s3,1.3,3,3S17.7,19,16,19z"
	/>
</svg>
