<?xml version="1.0" encoding="utf-8"?>
<!-- Generator: Adobe Illustrator 18.1.1, SVG Export Plug-In . SVG Version: 6.00 Build 0)  -->
<!DOCTYPE svg PUBLIC "-//W3C//DTD SVG 1.1//EN" "http://www.w3.org/Graphics/SVG/1.1/DTD/svg11.dtd">
<svg version="1.1" id="Layer_1" xmlns="http://www.w3.org/2000/svg" xmlns:xlink="http://www.w3.org/1999/xlink" x="0px" y="0px"
	 width="32px" height="32px" viewBox="0 0 32 32" enable-background="new 0 0 32 32" xml:space="preserve">
<path d="M22.7,0c-2.5,0-4.8,1-6.6,2.7c-2,2-2.9,4.7-2.7,7.4L3.4,23.3c-0.3,0.4-0.3,1,0.1,1.3l3.9,3.9c0.2,0.2,0.5,0.3,0.7,0.3
	c0.2,0,0.4-0.1,0.6-0.2l13.2-10.1c0.3,0,0.6,0,0.8,0c2.5,0,4.8-1,6.6-2.7c3.6-3.6,3.6-9.5,0-13.1C27.5,1,25.2,0,22.7,0z M8.2,26.5
	l-2.7-2.7l8.6-11.2c0.5,1.2,1.1,2.3,2.1,3.2c0.9,0.9,2,1.6,3.2,2.1L8.2,26.5z M27.9,14.4c-1.4,1.4-3.2,2.1-5.2,2.1
	c-0.3,0-0.6,0-1-0.1c0,0,0,0,0,0c-1.6-0.2-3-0.9-4.2-2.1c-1.2-1.2-1.8-2.6-2.1-4.2c0,0,0,0,0,0c-0.3-2.2,0.4-4.4,2.1-6.1
	C18.9,2.8,20.8,2,22.7,2c1.9,0,3.8,0.8,5.2,2.1C30.7,7,30.7,11.6,27.9,14.4z"/>
<path d="M2.9,27.1c-0.4-0.4-1-0.4-1.4,0c-0.4,0.4-0.4,1,0,1.4l2,2c0.2,0.2,0.5,0.3,0.7,0.3s0.5-0.1,0.7-0.3c0.4-0.4,0.4-1,0-1.4
	L2.9,27.1z"/>
</svg>
