<?xml version="1.0" encoding="utf-8"?>
<!-- Generator: Adobe Illustrator 18.1.1, SVG Export Plug-In . SVG Version: 6.00 Build 0)  -->
<!DOCTYPE svg PUBLIC "-//W3C//DTD SVG 1.1//EN" "http://www.w3.org/Graphics/SVG/1.1/DTD/svg11.dtd">
<svg version="1.1" id="Layer_1" xmlns="http://www.w3.org/2000/svg" xmlns:xlink="http://www.w3.org/1999/xlink" x="0px" y="0px"
	 width="32px" height="32px" viewBox="0 0 32 32" enable-background="new 0 0 32 32" xml:space="preserve">
<path d="M19.5,3.1c-0.4-0.2-0.9-0.2-1.2,0.1l-16,15C2,18.6,1.9,19,2.1,19.4C2.2,19.7,2.6,20,3,20h10.8L12,27.8
	c-0.1,0.4,0.1,0.9,0.5,1.1C12.7,29,12.8,29,13,29c0.2,0,0.5-0.1,0.7-0.3l16-15c0.3-0.3,0.4-0.7,0.2-1.1C29.8,12.3,29.4,12,29,12
	H18.2L20,4.2C20.1,3.8,19.9,3.3,19.5,3.1z M26.5,14L14.7,25.1l1.3-5.8c0.1-0.3,0-0.6-0.2-0.8C15.6,18.1,15.3,18,15,18H5.5L17.3,6.9
	L16,12.8c-0.1,0.3,0,0.6,0.2,0.8c0.2,0.2,0.5,0.4,0.8,0.4H26.5z"/>
</svg>
