<?xml version="1.0" encoding="utf-8"?>
<!-- Generator: Adobe Illustrator 18.1.1, SVG Export Plug-In . SVG Version: 6.00 Build 0)  -->
<!DOCTYPE svg PUBLIC "-//W3C//DTD SVG 1.1//EN" "http://www.w3.org/Graphics/SVG/1.1/DTD/svg11.dtd">
<svg version="1.1" id="Layer_1" xmlns="http://www.w3.org/2000/svg" xmlns:xlink="http://www.w3.org/1999/xlink" x="0px" y="0px"
	 width="32px" height="32px" viewBox="0 0 32 32" enable-background="new 0 0 32 32" xml:space="preserve">
<path d="M27,4H5C4.4,4,4,4.4,4,5v22c0,0.6,0.4,1,1,1h22c0.6,0,1-0.4,1-1V5C28,4.4,27.6,4,27,4z M26,26H6V6h20V26z"/>
<path d="M1,8C0.4,8,0,8.4,0,9v14c0,0.6,0.4,1,1,1s1-0.4,1-1V9C2,8.4,1.6,8,1,8z"/>
<path d="M31,8c-0.6,0-1,0.4-1,1v14c0,0.6,0.4,1,1,1s1-0.4,1-1V9C32,8.4,31.6,8,31,8z"/>
<path d="M11,23c1.7,0,3-1.3,3-3v-9h7v4.2c-0.3-0.1-0.6-0.2-1-0.2c-1.7,0-3,1.3-3,3s1.3,3,3,3s3-1.3,3-3v-8c0-0.6-0.4-1-1-1h-9
	c-0.6,0-1,0.4-1,1v7.2c-0.3-0.1-0.6-0.2-1-0.2c-1.7,0-3,1.3-3,3S9.3,23,11,23z M20,19c-0.6,0-1-0.4-1-1s0.4-1,1-1s1,0.4,1,1
	S20.6,19,20,19z M11,19c0.6,0,1,0.4,1,1s-0.4,1-1,1s-1-0.4-1-1S10.4,19,11,19z"/>
</svg>
