<?xml version="1.0" encoding="utf-8"?>
<!-- Generator: Adobe Illustrator 18.1.1, SVG Export Plug-In . SVG Version: 6.00 Build 0)  -->
<!DOCTYPE svg PUBLIC "-//W3C//DTD SVG 1.1//EN" "http://www.w3.org/Graphics/SVG/1.1/DTD/svg11.dtd">
<svg version="1.1" id="Layer_1" xmlns="http://www.w3.org/2000/svg" xmlns:xlink="http://www.w3.org/1999/xlink" x="0px" y="0px"
	 width="32px" height="32px" viewBox="0 0 32 32" enable-background="new 0 0 32 32" xml:space="preserve">
<path d="M0,18.7C0,26,6,32,13.3,32c3.5,0,6.8-1.4,9.3-3.8c0.3,0,0.5,0,0.7,0c4.2,0,7.3-1.3,8.3-3.8c1.1-2.9-0.8-6.6-5.2-9.9
	C25.9,9.1,22,4.7,17,3.3C16.8,1.4,15.2,0,13.3,0c-1.9,0-3.4,1.4-3.7,3.3C4.4,4.8,0.5,9.4,0.1,15c0,0.1,0,0.1,0,0.2
	c0,0.3,0,0.6,0,0.9V18.7z M13.3,30C7.1,30,2.1,25,2,18.8c2.3,2.8,6.1,5.4,10.8,7.2c2.4,1,4.8,1.6,7,1.9C17.9,29.3,15.7,30,13.3,30z
	 M29.8,23.7c-0.7,1.8-3.5,2.8-7.5,2.6c0,0-0.1,0-0.1,0c-2.5-0.2-5.4-0.8-8.6-2C8.8,22.3,4.8,19.5,3,16.7c3.3,1.1,6.8,1.6,10.3,1.6
	c4.1,0,8.2-0.8,12.1-2.2C28.8,18.8,30.6,21.7,29.8,23.7z M13.3,4.9c3.8,1.9,5.2,6.8,4.6,11.2c-3.1,0.4-6.2,0.4-9.3,0
	C8.1,11.7,9.5,6.7,13.3,4.9z M24.4,14.3c-1.5,0.5-3,1-4.5,1.3c0.3-3.6-0.6-7.5-2.8-10.2C20.9,6.8,23.8,10.2,24.4,14.3z M13.3,2
	c0.6,0,1.2,0.3,1.5,0.8c-0.5-0.1-1-0.1-1.5-0.1c0,0,0,0,0,0c0,0,0,0,0,0c0,0,0,0-0.1,0c0,0,0,0,0,0c-0.5,0-0.9,0-1.4,0.1
	C12.2,2.3,12.7,2,13.3,2z M9.4,5.4C7.2,8.1,6.3,12,6.6,15.6c-1.5-0.3-3-0.8-4.4-1.3C2.8,10.2,5.6,6.8,9.4,5.4z"/>
</svg>
