<?xml version="1.0" encoding="utf-8"?>
<!-- Generator: Adobe Illustrator 18.1.1, SVG Export Plug-In . SVG Version: 6.00 Build 0)  -->
<!DOCTYPE svg PUBLIC "-//W3C//DTD SVG 1.1//EN" "http://www.w3.org/Graphics/SVG/1.1/DTD/svg11.dtd">
<svg version="1.1" id="Layer_1" xmlns="http://www.w3.org/2000/svg" xmlns:xlink="http://www.w3.org/1999/xlink" x="0px" y="0px"
	 width="32px" height="32px" viewBox="0 0 32 32" enable-background="new 0 0 32 32" xml:space="preserve">
<path d="M24.3,10.5c-0.4-0.4-1-0.4-1.4,0s-0.4,1,0,1.4c2.3,2.3,2.3,6,0,8.2c-0.4,0.4-0.4,1,0,1.4c0.2,0.2,0.5,0.3,0.7,0.3
	s0.5-0.1,0.7-0.3C27.3,18.5,27.3,13.5,24.3,10.5z"/>
<path d="M26.7,6.6c-0.4,0.4-0.4,1,0,1.4c2.1,2.1,3.3,5,3.3,8s-1.2,5.8-3.3,8c-0.4,0.4-0.4,1,0,1.4c0.2,0.2,0.5,0.3,0.7,0.3
	s0.5-0.1,0.7-0.3c2.5-2.5,3.9-5.8,3.9-9.4s-1.4-6.9-3.9-9.4C27.7,6.2,27.1,6.2,26.7,6.6z"/>
<path d="M9.2,10.5c-0.4-0.4-1-0.4-1.4,0c-3,3-3,8,0,11.1c0.2,0.2,0.5,0.3,0.7,0.3s0.5-0.1,0.7-0.3c0.4-0.4,0.4-1,0-1.4
	c-2.3-2.3-2.3-6,0-8.2C9.5,11.5,9.5,10.9,9.2,10.5z"/>
<path d="M2,16c0-3,1.2-5.8,3.3-8c0.4-0.4,0.4-1,0-1.4s-1-0.4-1.4,0C1.4,9.1,0,12.5,0,16s1.4,6.9,3.9,9.4c0.2,0.2,0.5,0.3,0.7,0.3
	s0.5-0.1,0.7-0.3c0.4-0.4,0.4-1,0-1.4C3.2,21.8,2,19,2,16z"/>
<path d="M16,12c-2.2,0-4,1.8-4,4s1.8,4,4,4s4-1.8,4-4S18.2,12,16,12z M16,18c-1.1,0-2-0.9-2-2s0.9-2,2-2s2,0.9,2,2S17.1,18,16,18z"
	/>
</svg>
