<?xml version="1.0" encoding="utf-8"?>
<!-- Generator: Adobe Illustrator 18.1.1, SVG Export Plug-In . SVG Version: 6.00 Build 0)  -->
<!DOCTYPE svg PUBLIC "-//W3C//DTD SVG 1.1//EN" "http://www.w3.org/Graphics/SVG/1.1/DTD/svg11.dtd">
<svg version="1.1" id="Layer_1" xmlns="http://www.w3.org/2000/svg" xmlns:xlink="http://www.w3.org/1999/xlink" x="0px" y="0px"
	 width="32px" height="32px" viewBox="0 0 32 32" enable-background="new 0 0 32 32" xml:space="preserve">
<path d="M31,0H1C0.4,0,0,0.4,0,1v30c0,0.6,0.4,1,1,1h30c0.6,0,1-0.4,1-1V1C32,0.4,31.6,0,31,0z M30,30H2V2h28V30z"/>
<path d="M5,27h22c0,0,0,0,0,0c0.6,0,1-0.4,1-1c0-0.3-0.1-0.5-0.2-0.7l-6.9-11.8C20.7,13.2,20.4,13,20,13c-0.3,0-0.7,0.1-0.9,0.4
	l-4.4,6.1l-4.2-3.3C10.4,16,10.1,16,9.8,16c-0.3,0.1-0.5,0.2-0.7,0.5l-5,9c-0.2,0.3-0.2,0.7,0,1C4.3,26.8,4.6,27,5,27z M10.3,18.5
	l4.1,3.3c0.2,0.2,0.5,0.2,0.8,0.2c0.3,0,0.5-0.2,0.7-0.4l4.1-5.7l5.3,9.2H6.7L10.3,18.5z"/>
<path d="M14,13c2.2,0,4-1.8,4-4s-1.8-4-4-4s-4,1.8-4,4S11.8,13,14,13z M14,7c1.1,0,2,0.9,2,2s-0.9,2-2,2s-2-0.9-2-2S12.9,7,14,7z"/>
</svg>
