<?xml version="1.0" encoding="utf-8"?>
<!-- Generator: Adobe Illustrator 18.1.1, SVG Export Plug-In . SVG Version: 6.00 Build 0)  -->
<!DOCTYPE svg PUBLIC "-//W3C//DTD SVG 1.1//EN" "http://www.w3.org/Graphics/SVG/1.1/DTD/svg11.dtd">
<svg version="1.1" id="Layer_1" xmlns="http://www.w3.org/2000/svg" xmlns:xlink="http://www.w3.org/1999/xlink" x="0px" y="0px"
	 width="32px" height="32px" viewBox="0 0 32 32" enable-background="new 0 0 32 32" xml:space="preserve">
<path d="M31,6h-7.6l-3.7-3.7C19.5,2.1,19.3,2,19,2h-6c-0.3,0-0.5,0.1-0.7,0.3L8.6,6H1C0.4,6,0,6.4,0,7v22c0,0.6,0.4,1,1,1h30
	c0.6,0,1-0.4,1-1V7C32,6.4,31.6,6,31,6z M30,28H2V8h7c0.3,0,0.5-0.1,0.7-0.3L13.4,4h5.2l3.7,3.7C22.5,7.9,22.7,8,23,8h7V28z"/>
<path d="M6,5c0.6,0,1-0.4,1-1S6.6,3,6,3H3C2.4,3,2,3.4,2,4s0.4,1,1,1H6z"/>
<path d="M17,18v-6c0-0.6-0.4-1-1-1s-1,0.4-1,1v7c0,0.6,0.4,1,1,1h7c0.6,0,1-0.4,1-1s-0.4-1-1-1H17z"/>
</svg>
