<?xml version="1.0" encoding="utf-8"?>
<!-- Generator: Adobe Illustrator 18.1.1, SVG Export Plug-In . SVG Version: 6.00 Build 0)  -->
<!DOCTYPE svg PUBLIC "-//W3C//DTD SVG 1.1//EN" "http://www.w3.org/Graphics/SVG/1.1/DTD/svg11.dtd">
<svg version="1.1" id="Layer_1" xmlns="http://www.w3.org/2000/svg" xmlns:xlink="http://www.w3.org/1999/xlink" x="0px" y="0px"
	 width="32px" height="32px" viewBox="0 0 32 32" enable-background="new 0 0 32 32" xml:space="preserve">
<path d="M3,32h22c0.6,0,1-0.4,1-1v-3h3c0.6,0,1-0.4,1-1V1c0-0.6-0.4-1-1-1H7C6.4,0,6,0.4,6,1v3H3C2.4,4,2,4.4,2,5v26
	C2,31.6,2.4,32,3,32z M8,2h20v24h-2V5c0-0.6-0.4-1-1-1H8V2z M4,6h20v24H4V6z"/>
<path d="M21,8H7C6.4,8,6,8.4,6,9v13c0,0.6,0.4,1,1,1h14c0.6,0,1-0.4,1-1V9C22,8.4,21.6,8,21,8z M20,21H8V10h12V21z"/>
</svg>
