<?xml version="1.0" encoding="utf-8"?>
<!-- Generator: Adobe Illustrator 18.1.1, SVG Export Plug-In . SVG Version: 6.00 Build 0)  -->
<!DOCTYPE svg PUBLIC "-//W3C//DTD SVG 1.1//EN" "http://www.w3.org/Graphics/SVG/1.1/DTD/svg11.dtd">
<svg version="1.1" id="Layer_1" xmlns="http://www.w3.org/2000/svg" xmlns:xlink="http://www.w3.org/1999/xlink" x="0px" y="0px"
	 width="32px" height="32px" viewBox="0 0 32 32" enable-background="new 0 0 32 32" xml:space="preserve">
<path d="M25.5,0H6.5C2.9,0,0,2.9,0,6.5v19.1C0,29.1,2.9,32,6.5,32h19.1c3.6,0,6.5-2.9,6.5-6.5V6.5C32,2.9,29.1,0,25.5,0z M30,25.5
	c0,2.5-2,4.5-4.5,4.5H6.5C4,30,2,28,2,25.5V6.5C2,4,4,2,6.5,2h19.1C28,2,30,4,30,6.5V25.5z"/>
<path d="M16,7c-5,0-9,4-9,9s4,9,9,9s9-4,9-9S21,7,16,7z M16,23c-3.9,0-7-3.1-7-7s3.1-7,7-7s7,3.1,7,7S19.9,23,16,23z"/>
<path d="M16,11c-0.6,0-1,0.4-1,1c0,1.7-1.3,3-3,3c-0.6,0-1,0.4-1,1c0,2.8,2.2,5,5,5s5-2.2,5-5S18.8,11,16,11z M16,19
	c-1.4,0-2.5-0.9-2.9-2.1c1.9-0.4,3.3-1.9,3.7-3.7c1.2,0.4,2.1,1.5,2.1,2.9C19,17.7,17.7,19,16,19z"/>
<circle cx="7" cy="7" r="2"/>
</svg>
