<?xml version="1.0" encoding="utf-8"?>
<!-- Generator: Adobe Illustrator 18.1.1, SVG Export Plug-In . SVG Version: 6.00 Build 0)  -->
<!DOCTYPE svg PUBLIC "-//W3C//DTD SVG 1.1//EN" "http://www.w3.org/Graphics/SVG/1.1/DTD/svg11.dtd">
<svg version="1.1" id="Layer_1" xmlns="http://www.w3.org/2000/svg" xmlns:xlink="http://www.w3.org/1999/xlink" x="0px" y="0px"
	 width="32px" height="32px" viewBox="0 0 32 32" enable-background="new 0 0 32 32" xml:space="preserve">
<path d="M31,2H1C0.4,2,0,2.4,0,3v26c0,0.6,0.4,1,1,1h30c0.6,0,1-0.4,1-1V3C32,2.4,31.6,2,31,2z M30,28H2V4h28V28z"/>
<path d="M16,24c6.1,0,11-3.6,11-8s-4.9-8-11-8S5,11.6,5,16S9.9,24,16,24z M16,10c5,0,9,2.7,9,6s-4,6-9,6s-9-2.7-9-6S11,10,16,10z"/>
</svg>
