<?xml version="1.0" encoding="utf-8"?>
<!-- Generator: Adobe Illustrator 18.1.1, SVG Export Plug-In . SVG Version: 6.00 Build 0)  -->
<!DOCTYPE svg PUBLIC "-//W3C//DTD SVG 1.1//EN" "http://www.w3.org/Graphics/SVG/1.1/DTD/svg11.dtd">
<svg version="1.1" id="Layer_1" xmlns="http://www.w3.org/2000/svg" xmlns:xlink="http://www.w3.org/1999/xlink" x="0px" y="0px"
	 width="32px" height="32px" viewBox="0 0 32 32" enable-background="new 0 0 32 32" xml:space="preserve">
<path d="M31,0H1C0.4,0,0,0.4,0,1v30c0,0.6,0.4,1,1,1h30c0.6,0,1-0.4,1-1V1C32,0.4,31.6,0,31,0z M30,30H2V2h28V30z"/>
<path d="M11.5,17.9C11.7,18,11.8,18,12,18c0.2,0,0.4-0.1,0.5-0.2l8-5c0.3-0.2,0.5-0.5,0.5-0.8s-0.2-0.7-0.5-0.8l-8-5
	c-0.3-0.2-0.7-0.2-1,0C11.2,6.3,11,6.6,11,7v10C11,17.4,11.2,17.7,11.5,17.9z M13,8.8l5.1,3.2L13,15.2V8.8z"/>
<path d="M24,25h3c0.6,0,1-0.4,1-1s-0.4-1-1-1h-3c-0.6,0-1,0.4-1,1S23.4,25,24,25z"/>
<path d="M5,25h10.2c0.4,1.2,1.5,2,2.8,2c1.7,0,3-1.3,3-3s-1.3-3-3-3c-1.3,0-2.4,0.8-2.8,2H5c-0.6,0-1,0.4-1,1S4.4,25,5,25z M18,23
	c0.6,0,1,0.4,1,1s-0.4,1-1,1s-1-0.4-1-1S17.4,23,18,23z"/>
</svg>
