<?xml version="1.0" encoding="utf-8"?>
<!-- Generator: Adobe Illustrator 18.1.1, SVG Export Plug-In . SVG Version: 6.00 Build 0)  -->
<!DOCTYPE svg PUBLIC "-//W3C//DTD SVG 1.1//EN" "http://www.w3.org/Graphics/SVG/1.1/DTD/svg11.dtd">
<svg version="1.1" id="Layer_1" xmlns="http://www.w3.org/2000/svg" xmlns:xlink="http://www.w3.org/1999/xlink" x="0px" y="0px"
	 width="32px" height="32px" viewBox="0 0 32 32" enable-background="new 0 0 32 32" xml:space="preserve">
<path d="M31,5H12V3c0-0.6-0.4-1-1-1H5C4.4,2,4,2.4,4,3v2H1C0.4,5,0,5.4,0,6v23c0,0.6,0.4,1,1,1h30c0.6,0,1-0.4,1-1V6
	C32,5.4,31.6,5,31,5z M6,4h4v1H6V4z M30,28H2V7h28V28z"/>
<path d="M9,10H6c-0.6,0-1,0.4-1,1s0.4,1,1,1h3c0.6,0,1-0.4,1-1S9.6,10,9,10z"/>
<path d="M20,25c3.9,0,7-3.1,7-7s-3.1-7-7-7s-7,3.1-7,7S16.1,25,20,25z M20,13c2.8,0,5,2.2,5,5s-2.2,5-5,5s-5-2.2-5-5S17.2,13,20,13z
	"/>
</svg>
