<?xml version="1.0" encoding="utf-8"?>
<!-- Generator: Adobe Illustrator 18.1.1, SVG Export Plug-In . SVG Version: 6.00 Build 0)  -->
<!DOCTYPE svg PUBLIC "-//W3C//DTD SVG 1.1//EN" "http://www.w3.org/Graphics/SVG/1.1/DTD/svg11.dtd">
<svg version="1.1" id="Layer_1" xmlns="http://www.w3.org/2000/svg" xmlns:xlink="http://www.w3.org/1999/xlink" x="0px" y="0px"
	 width="32px" height="32px" viewBox="0 0 32 32" enable-background="new 0 0 32 32" xml:space="preserve">
<path d="M19.6,22.2l-6-4c-0.3-0.2-0.7-0.2-1,0C12.2,18.3,12,18.6,12,19v8c0,0.4,0.2,0.7,0.5,0.9C12.7,28,12.8,28,13,28
	c0.2,0,0.4-0.1,0.6-0.2l6-4c0.3-0.2,0.4-0.5,0.4-0.8S19.8,22.4,19.6,22.2z M14,25.1v-4.3l3.2,2.1L14,25.1z"/>
<path d="M29.9,6.7c0.2-0.2,0.2-0.5,0.2-0.7l-0.8-5c-0.1-0.5-0.6-0.9-1.1-0.8l-27,3.9C0.6,4.1,0.2,4.6,0.3,5.2L1,10.1V15v16
	c0,0.6,0.4,1,1,1h28c0.6,0,1-0.4,1-1V15v-5c0-0.6-0.4-1-1-1H15.9l13.3-1.9C29.5,7,29.7,6.9,29.9,6.7z M21.2,6.2L19,3.5L22.6,3
	l2.2,2.7L21.2,6.2z M15.3,7.1l-2.2-2.7l3.6-0.5l2.2,2.7L15.3,7.1z M19.2,11l-1.8,3h-3.7l1.8-3H19.2z M25.2,11l-1.8,3h-3.7l1.8-3
	H25.2z M11.4,14H7.8l1.8-3h3.7L11.4,14z M3,14v-3h4.2l-1.8,3H3z M9.3,7.9L7.1,5.2l3.6-0.5L13,7.4L9.3,7.9z M4.8,5.5L7,8.3L2.8,8.9
	l-0.4-3L4.8,5.5z M3,30V16h26v14H3z M29,14h-3.2l1.8-3H29V14z M27.2,5.4l-2.2-2.7l2.5-0.4l0.5,3L27.2,5.4z"/>
</svg>
