<?xml version="1.0" encoding="utf-8"?>
<!-- Generator: Adobe Illustrator 18.1.1, SVG Export Plug-In . SVG Version: 6.00 Build 0)  -->
<!DOCTYPE svg PUBLIC "-//W3C//DTD SVG 1.1//EN" "http://www.w3.org/Graphics/SVG/1.1/DTD/svg11.dtd">
<svg version="1.1" id="Layer_1" xmlns="http://www.w3.org/2000/svg" xmlns:xlink="http://www.w3.org/1999/xlink" x="0px" y="0px"
	 width="32px" height="32px" viewBox="0 0 32 32" enable-background="new 0 0 32 32" xml:space="preserve">
<path d="M31,3h-7V1c0-0.6-0.4-1-1-1s-1,0.4-1,1v2h-5V1c0-0.6-0.4-1-1-1s-1,0.4-1,1v2h-5V1c0-0.6-0.4-1-1-1S8,0.4,8,1v2H1
	C0.4,3,0,3.4,0,4v27c0,0.6,0.4,1,1,1h30c0.6,0,1-0.4,1-1V4C32,3.4,31.6,3,31,3z M30,30H2V5h6v1c0,0.6,0.4,1,1,1s1-0.4,1-1V5h5v1
	c0,0.6,0.4,1,1,1s1-0.4,1-1V5h5v1c0,0.6,0.4,1,1,1s1-0.4,1-1V5h6V30z"/>
<path d="M21.9,15.5c-0.2-0.3-0.4-0.5-0.8-0.5c-0.3,0-0.6,0.1-0.9,0.3l-5.4,6.3l-4.2-3.4C10.4,18,10.1,18,9.8,18
	c-0.3,0-0.5,0.2-0.7,0.5l-5,8c-0.2,0.3-0.2,0.7,0,1C4.3,27.8,4.6,28,5,28h22c0,0,0,0,0,0c0.6,0,1-0.4,1-1c0-0.2-0.1-0.5-0.2-0.6
	L21.9,15.5z M6.8,26l3.4-5.5l4.1,3.3c0.4,0.3,1,0.3,1.4-0.1l5.1-5.9l4.5,8.2H6.8z"/>
<path d="M13,17c2.2,0,4-1.8,4-4s-1.8-4-4-4s-4,1.8-4,4S10.8,17,13,17z M13,11c1.1,0,2,0.9,2,2s-0.9,2-2,2s-2-0.9-2-2S11.9,11,13,11z
	"/>
</svg>
