<?xml version="1.0" encoding="utf-8"?>
<!-- Generator: Adobe Illustrator 18.1.1, SVG Export Plug-In . SVG Version: 6.00 Build 0)  -->
<!DOCTYPE svg PUBLIC "-//W3C//DTD SVG 1.1//EN" "http://www.w3.org/Graphics/SVG/1.1/DTD/svg11.dtd">
<svg version="1.1" id="Layer_1" xmlns="http://www.w3.org/2000/svg" xmlns:xlink="http://www.w3.org/1999/xlink" x="0px" y="0px"
	 width="32px" height="32px" viewBox="0 0 32 32" enable-background="new 0 0 32 32" xml:space="preserve">
<path d="M7.7,21.3c-0.4-0.4-1-0.4-1.4,0s-0.4,1,0,1.4l3,3C9.5,25.9,9.7,26,10,26s0.5-0.1,0.7-0.3c0.4-0.4,0.4-1,0-1.4L7.7,21.3z"/>
<path d="M27.4,0.8c-0.2-0.2-0.4-0.3-0.7-0.3S26.2,0.6,26,0.8l-3.8,3.8C22,4.8,21.9,5,21.9,5.3S22,5.8,22.2,6l1.2,1.2l-2.5,2.5
	c-1.6-1.3-3.6-2-5.7-2c-2.4,0-4.7,0.9-6.5,2.7l-1,1c-0.2,0.2-0.3,0.4-0.3,0.7s0.1,0.5,0.3,0.7c0.3,0.3,0.5,0.8,0.5,1.2
	c0,0.5-0.2,0.9-0.5,1.2c-0.6,0.6-1.8,0.6-2.4,0c-0.2-0.2-0.4-0.3-0.7-0.3S4.2,14.9,4,15.1l-1,1c-1.7,1.7-2.7,4-2.7,6.4
	C0.4,25,1.3,27.3,3,29s4,2.7,6.4,2.7s4.7-0.9,6.5-2.7l1-1c0.4-0.4,0.4-1,0-1.4c-0.3-0.3-0.5-0.8-0.5-1.2s0.2-0.9,0.5-1.2
	c0.6-0.6,1.8-0.6,2.4,0c0.4,0.4,1,0.4,1.4,0l1-1c1.7-1.7,2.7-4,2.7-6.4c0-2.1-0.7-4.1-2-5.7l2.5-2.5L26,9.8c0.2,0.2,0.4,0.3,0.7,0.3
	s0.5-0.1,0.7-0.3L31.2,6c0.4-0.4,0.4-1,0-1.4L27.4,0.8z M22.3,16.8c0,1.9-0.7,3.7-2.1,5l-0.3,0.3c-1.4-0.8-3.3-0.5-4.4,0.6
	c-0.7,0.7-1.1,1.6-1.1,2.6c0,0.6,0.2,1.3,0.5,1.8l-0.3,0.3c-1.3,1.3-3.1,2.1-5,2.1s-3.7-0.7-5-2.1c-1.3-1.3-2.1-3.1-2.1-5
	c0-1.9,0.7-3.7,2.1-5l0.3-0.3c1.4,0.8,3.3,0.5,4.4-0.6c0.7-0.7,1.1-1.6,1.1-2.6c0-0.6-0.2-1.3-0.5-1.8l0.3-0.3
	c1.3-1.3,3.1-2.1,5-2.1c1.6,0,3,0.5,4.3,1.4l-2.2,2.2c-1.1-0.5-2.5-0.3-3.4,0.6C13.3,14.4,13,15.2,13,16s0.3,1.6,0.9,2.1
	c0.6,0.6,1.3,0.9,2.1,0.9s1.6-0.3,2.1-0.9c0.6-0.6,0.9-1.3,0.9-2.1c0-0.5-0.1-0.9-0.3-1.3l2.2-2.2C21.8,13.7,22.3,15.2,22.3,16.8z
	 M16.7,15.3c0.2,0.2,0.3,0.4,0.3,0.7s-0.1,0.5-0.3,0.7c-0.4,0.4-1,0.4-1.4,0C15.1,16.5,15,16.3,15,16s0.1-0.5,0.3-0.7S15.7,15,16,15
	S16.5,15.1,16.7,15.3z M26.7,7.7l-2.4-2.4l2.4-2.4l2.4,2.4L26.7,7.7z"/>
</svg>
