<?xml version="1.0" encoding="utf-8"?>
<!-- Generator: Adobe Illustrator 18.1.1, SVG Export Plug-In . SVG Version: 6.00 Build 0)  -->
<!DOCTYPE svg PUBLIC "-//W3C//DTD SVG 1.1//EN" "http://www.w3.org/Graphics/SVG/1.1/DTD/svg11.dtd">
<svg version="1.1" id="Layer_1" xmlns="http://www.w3.org/2000/svg" xmlns:xlink="http://www.w3.org/1999/xlink" x="0px" y="0px"
	 width="32px" height="32px" viewBox="0 0 32 32" enable-background="new 0 0 32 32" xml:space="preserve">
<path d="M7,5V2h3c0.6,0,1-0.4,1-1s-0.4-1-1-1H6C5.4,0,5,0.4,5,1v4c0,0.6,0.4,1,1,1S7,5.6,7,5z"/>
<path d="M23,6c0.6,0,1-0.4,1-1V1c0-0.6-0.4-1-1-1h-4c-0.6,0-1,0.4-1,1s0.4,1,1,1h3v3C22,5.6,22.4,6,23,6z"/>
<path d="M3.4,18.2C3,18.5,2.9,19,3.1,19.5l6,11c0.3,0.5,0.9,0.7,1.4,0.4c0.5-0.3,0.7-0.9,0.4-1.4L5.3,19.3l0.2-0.1
	c0.8-0.5,1.9-0.4,2.5,0.2l3.3,3.3c0.3,0.3,0.7,0.4,1.1,0.2c0.4-0.2,0.6-0.5,0.6-0.9V7.5C13,6.7,13.7,6,14.5,6S16,6.7,16,7.5V17
	c0,0.6,0.4,1,1,1h7c0.9,0,1.8,0.4,2.3,1.1c0.6,0.7,0.8,1.6,0.6,2.5L25,29.8c-0.1,0.5,0.2,1.1,0.8,1.2c0.1,0,0.2,0,0.2,0
	c0.5,0,0.9-0.3,1-0.8l1.9-8.1c0.3-1.5,0-3-1-4.2c-1-1.2-2.4-1.9-3.9-1.9h-6V7.5C18,5.6,16.4,4,14.5,4S11,5.6,11,7.5v12.1L9.4,18
	c-1.3-1.3-3.5-1.6-5-0.5L3.4,18.2z"/>
</svg>
