<?xml version="1.0" encoding="utf-8"?>
<!-- Generator: Adobe Illustrator 18.1.1, SVG Export Plug-In . SVG Version: 6.00 Build 0)  -->
<!DOCTYPE svg PUBLIC "-//W3C//DTD SVG 1.1//EN" "http://www.w3.org/Graphics/SVG/1.1/DTD/svg11.dtd">
<svg version="1.1" id="Layer_1" xmlns="http://www.w3.org/2000/svg" xmlns:xlink="http://www.w3.org/1999/xlink" x="0px" y="0px"
	 width="32px" height="32px" viewBox="0 0 32 32" enable-background="new 0 0 32 32" xml:space="preserve">
<path d="M10.3,0.3l-8,8C2.1,8.5,2,8.7,2,9v22c0,0.6,0.4,1,1,1h26c0.6,0,1-0.4,1-1V1c0-0.6-0.4-1-1-1H11C10.7,0,10.5,0.1,10.3,0.3z
	 M24,30H9V18h15V30z M28,2v28h-2V17c0-0.6-0.4-1-1-1H8c-0.6,0-1,0.4-1,1v13H4V9.4L11.4,2H28z"/>
<path d="M13,23h7c0.6,0,1-0.4,1-1s-0.4-1-1-1h-7c-0.6,0-1,0.4-1,1S12.4,23,13,23z"/>
<path d="M13,27h3c0.6,0,1-0.4,1-1s-0.4-1-1-1h-3c-0.6,0-1,0.4-1,1S12.4,27,13,27z"/>
<path d="M25,9c0.6,0,1-0.4,1-1V5c0-0.6-0.4-1-1-1s-1,0.4-1,1v3C24,8.6,24.4,9,25,9z"/>
<path d="M21,9c0.6,0,1-0.4,1-1V5c0-0.6-0.4-1-1-1s-1,0.4-1,1v3C20,8.6,20.4,9,21,9z"/>
<path d="M17,9c0.6,0,1-0.4,1-1V5c0-0.6-0.4-1-1-1s-1,0.4-1,1v3C16,8.6,16.4,9,17,9z"/>
<path d="M13,9c0.6,0,1-0.4,1-1V5c0-0.6-0.4-1-1-1s-1,0.4-1,1v3C12,8.6,12.4,9,13,9z"/>
</svg>
