<?xml version="1.0" encoding="utf-8"?>
<!-- Generator: Adobe Illustrator 18.1.1, SVG Export Plug-In . SVG Version: 6.00 Build 0)  -->
<!DOCTYPE svg PUBLIC "-//W3C//DTD SVG 1.1//EN" "http://www.w3.org/Graphics/SVG/1.1/DTD/svg11.dtd">
<svg version="1.1" id="Layer_1" xmlns="http://www.w3.org/2000/svg" xmlns:xlink="http://www.w3.org/1999/xlink" x="0px" y="0px"
	 width="32px" height="32px" viewBox="0 0 32 32" enable-background="new 0 0 32 32" xml:space="preserve">
<circle cx="6" cy="11" r="2"/>
<path d="M31.5,7.1c-0.3-0.2-0.7-0.2-1,0L22,11.4V6c0-0.6-0.4-1-1-1H1C0.4,5,0,5.4,0,6v20c0,0.6,0.4,1,1,1h20c0.6,0,1-0.4,1-1v-5.4
	l8.6,4.3c0.3,0.2,0.7,0.1,1,0c0.3-0.2,0.5-0.5,0.5-0.9V8C32,7.7,31.8,7.3,31.5,7.1z M30,22.4l-8.6-4.3c-0.3-0.2-0.7-0.1-1,0
	C20.2,18.3,20,18.7,20,19v6H2V7h18v6c0,0.3,0.2,0.7,0.5,0.9c0.3,0.2,0.7,0.2,1,0L30,9.6V22.4z"/>
</svg>
