<?xml version="1.0" encoding="utf-8"?>
<!-- Generator: Adobe Illustrator 18.1.1, SVG Export Plug-In . SVG Version: 6.00 Build 0)  -->
<!DOCTYPE svg PUBLIC "-//W3C//DTD SVG 1.1//EN" "http://www.w3.org/Graphics/SVG/1.1/DTD/svg11.dtd">
<svg version="1.1" id="Layer_1" xmlns="http://www.w3.org/2000/svg" xmlns:xlink="http://www.w3.org/1999/xlink" x="0px" y="0px"
	 width="32px" height="32px" viewBox="0 0 32 32" enable-background="new 0 0 32 32" xml:space="preserve">
<path d="M16,0C11.7,0,7.7,1.7,4.7,4.7c-3,3-4.7,7-4.7,11.3s1.7,8.3,4.7,11.3c3,3,7,4.7,11.3,4.7s8.3-1.7,11.3-4.7
	c3-3,4.7-7,4.7-11.3s-1.7-8.3-4.7-11.3C24.3,1.7,20.3,0,16,0z M25.9,25.9C23.3,28.5,19.7,30,16,30s-7.3-1.5-9.9-4.1S2,19.7,2,16
	s1.5-7.3,4.1-9.9S12.3,2,16,2s7.3,1.5,9.9,4.1S30,12.3,30,16S28.5,23.3,25.9,25.9z"/>
<path d="M16,12c2.2,0,4-1.8,4-4s-1.8-4-4-4s-4,1.8-4,4S13.8,12,16,12z M16,6c1.1,0,2,0.9,2,2s-0.9,2-2,2s-2-0.9-2-2S14.9,6,16,6z"/>
<path d="M16,20c-2.2,0-4,1.8-4,4s1.8,4,4,4s4-1.8,4-4S18.2,20,16,20z M16,26c-1.1,0-2-0.9-2-2s0.9-2,2-2s2,0.9,2,2S17.1,26,16,26z"
	/>
<path d="M8,12c-2.2,0-4,1.8-4,4s1.8,4,4,4s4-1.8,4-4S10.2,12,8,12z M8,18c-1.1,0-2-0.9-2-2s0.9-2,2-2s2,0.9,2,2S9.1,18,8,18z"/>
<path d="M20,16c0,2.2,1.8,4,4,4s4-1.8,4-4s-1.8-4-4-4S20,13.8,20,16z M26,16c0,1.1-0.9,2-2,2s-2-0.9-2-2s0.9-2,2-2S26,14.9,26,16z"
	/>
</svg>
