<?xml version="1.0" encoding="utf-8"?>
<!-- Generator: Adobe Illustrator 18.1.1, SVG Export Plug-In . SVG Version: 6.00 Build 0)  -->
<!DOCTYPE svg PUBLIC "-//W3C//DTD SVG 1.1//EN" "http://www.w3.org/Graphics/SVG/1.1/DTD/svg11.dtd">
<svg version="1.1" id="Layer_1" xmlns="http://www.w3.org/2000/svg" xmlns:xlink="http://www.w3.org/1999/xlink" x="0px" y="0px"
	 width="32px" height="32px" viewBox="0 0 32 32" enable-background="new 0 0 32 32" xml:space="preserve">
<path d="M31,6H20.4l-3.7-3.7C16.5,2.1,16.3,2,16,2h-6C9.7,2,9.5,2.1,9.3,2.3L5.6,6H1C0.4,6,0,6.4,0,7v22c0,0.6,0.4,1,1,1h30
	c0.6,0,1-0.4,1-1V7C32,6.4,31.6,6,31,6z M30,28H2V8h4c0.3,0,0.5-0.1,0.7-0.3L10.4,4h5.2l3.7,3.7C19.5,7.9,19.7,8,20,8h10V28z"/>
<path d="M4,12v12c0,0.6,0.4,1,1,1h16c0.6,0,1-0.4,1-1V12c0-0.6-0.4-1-1-1H5C4.4,11,4,11.4,4,12z M6,13h14v10H6V13z"/>
<circle cx="26" cy="23" r="2"/>
<path d="M25,13h2c0.6,0,1-0.4,1-1s-0.4-1-1-1h-2c-0.6,0-1,0.4-1,1S24.4,13,25,13z"/>
<path d="M25,16h2c0.6,0,1-0.4,1-1s-0.4-1-1-1h-2c-0.6,0-1,0.4-1,1S24.4,16,25,16z"/>
</svg>
