<?xml version="1.0" encoding="utf-8"?>
<!-- Generator: Adobe Illustrator 19.2.1, SVG Export Plug-In . SVG Version: 6.00 Build 0)  -->
<!DOCTYPE svg PUBLIC "-//W3C//DTD SVG 1.1//EN" "http://www.w3.org/Graphics/SVG/1.1/DTD/svg11.dtd">
<svg version="1.1" id="Layer_1" xmlns="http://www.w3.org/2000/svg" xmlns:xlink="http://www.w3.org/1999/xlink" x="0px" y="0px"
	 width="64px" height="64px" viewBox="0 0 64 64" enable-background="new 0 0 64 64" xml:space="preserve">
<path d="M48.707,47.293c-0.391-0.391-1.023-0.391-1.414,0s-0.391,1.023,0,1.414l12,12C59.488,60.902,59.744,61,60,61
	s0.512-0.098,0.707-0.293c0.391-0.391,0.391-1.023,0-1.414L48.707,47.293z"/>
<path d="M26,51c13.785,0,25-11.215,25-25S39.785,1,26,1S1,12.215,1,26S12.215,51,26,51z M26,3c12.682,0,23,10.318,23,23
	S38.682,49,26,49S3,38.682,3,26S13.318,3,26,3z"/>
<path d="M18,27h7v7c0,0.552,0.448,1,1,1s1-0.448,1-1v-7h7c0.552,0,1-0.448,1-1s-0.448-1-1-1h-7v-7c0-0.552-0.448-1-1-1s-1,0.448-1,1
	v7h-7c-0.552,0-1,0.448-1,1S17.448,27,18,27z"/>
</svg>
