<?xml version="1.0" encoding="utf-8"?>
<!-- Generator: Adobe Illustrator 19.2.1, SVG Export Plug-In . SVG Version: 6.00 Build 0)  -->
<!DOCTYPE svg PUBLIC "-//W3C//DTD SVG 1.1//EN" "http://www.w3.org/Graphics/SVG/1.1/DTD/svg11.dtd">
<svg version="1.1" id="Layer_1" xmlns="http://www.w3.org/2000/svg" xmlns:xlink="http://www.w3.org/1999/xlink" x="0px" y="0px"
	 width="64px" height="64px" viewBox="0 0 64 64" enable-background="new 0 0 64 64" xml:space="preserve">
<path d="M32,1C14.906,1,1,14.907,1,32s13.906,31,31,31s31-13.907,31-31S49.094,1,32,1z M33,60.975V52c0-0.552-0.447-1-1-1
	s-1,0.448-1,1v8.975C15.804,60.456,3.544,48.196,3.025,33H12c0.553,0,1-0.448,1-1s-0.447-1-1-1H3.025
	C3.544,15.804,15.804,3.544,31,3.025V12c0,0.552,0.447,1,1,1s1-0.448,1-1V3.025C48.196,3.544,60.456,15.804,60.975,31H52
	c-0.553,0-1,0.448-1,1s0.447,1,1,1h8.975C60.456,48.196,48.196,60.456,33,60.975z"/>
<path d="M44,31H32.5L20.8,15.4c-0.331-0.442-0.959-0.532-1.399-0.2c-0.442,0.331-0.532,0.958-0.2,1.4l12,16
	c0.188,0.252,0.485,0.4,0.8,0.4h12c0.553,0,1-0.448,1-1S44.553,31,44,31z"/>
</svg>
