<?xml version="1.0" encoding="utf-8"?>
<!-- Generator: Adobe Illustrator 19.2.1, SVG Export Plug-In . SVG Version: 6.00 Build 0)  -->
<!DOCTYPE svg PUBLIC "-//W3C//DTD SVG 1.1//EN" "http://www.w3.org/Graphics/SVG/1.1/DTD/svg11.dtd">
<svg version="1.1" id="Layer_1" xmlns="http://www.w3.org/2000/svg" xmlns:xlink="http://www.w3.org/1999/xlink" x="0px" y="0px"
	 width="64px" height="64px" viewBox="0 0 64 64" enable-background="new 0 0 64 64" xml:space="preserve">
<path d="M62,1H2C1.447,1,1,1.448,1,2v60c0,0.552,0.447,1,1,1h60c0.553,0,1-0.448,1-1V2C63,1.448,62.553,1,62,1z M61,61H3V3h58V61z"
	/>
<path d="M14,29h14c0.553,0,1-0.448,1-1V14c0-0.552-0.447-1-1-1H14c-0.553,0-1,0.448-1,1v14C13,28.552,13.447,29,14,29z M15,15h12v12
	H15V15z"/>
<path d="M36,29h14c0.553,0,1-0.448,1-1V14c0-0.552-0.447-1-1-1H36c-0.553,0-1,0.448-1,1v14C35,28.552,35.447,29,36,29z M37,15h12v12
	H37V15z"/>
<path d="M14,51h14c0.553,0,1-0.448,1-1V36c0-0.552-0.447-1-1-1H14c-0.553,0-1,0.448-1,1v14C13,50.552,13.447,51,14,51z M15,37h12v12
	H15V37z"/>
<path d="M36,51h14c0.553,0,1-0.448,1-1V36c0-0.552-0.447-1-1-1H36c-0.553,0-1,0.448-1,1v14C35,50.552,35.447,51,36,51z M37,37h12v12
	H37V37z"/>
</svg>
