<?xml version="1.0" encoding="utf-8"?>
<!-- Generator: Adobe Illustrator 19.2.1, SVG Export Plug-In . SVG Version: 6.00 Build 0)  -->
<!DOCTYPE svg PUBLIC "-//W3C//DTD SVG 1.1//EN" "http://www.w3.org/Graphics/SVG/1.1/DTD/svg11.dtd">
<svg version="1.1" id="Layer_1" xmlns="http://www.w3.org/2000/svg" xmlns:xlink="http://www.w3.org/1999/xlink" x="0px" y="0px"
	 width="64px" height="64px" viewBox="0 0 64 64" enable-background="new 0 0 64 64" xml:space="preserve">
<path d="M26,1C12.215,1,1,12.215,1,26s11.215,25,25,25c6.534,0,12.487-2.522,16.946-6.641l16.347,16.348
	C59.488,60.902,59.744,61,60,61s0.512-0.098,0.707-0.293c0.391-0.391,0.391-1.023,0-1.414L44.36,42.945
	C48.478,38.487,51,32.534,51,26C51,12.215,39.785,1,26,1z M3,26C3,13.318,13.317,3,26,3s23,10.318,23,23S38.683,49,26,49
	S3,38.682,3,26z"/>
<path d="M34,25H18c-0.553,0-1,0.448-1,1s0.447,1,1,1h16c0.553,0,1-0.448,1-1S34.553,25,34,25z"/>
</svg>
