<?xml version="1.0" encoding="utf-8"?>
<!-- Generator: Adobe Illustrator 19.2.1, SVG Export Plug-In . SVG Version: 6.00 Build 0)  -->
<!DOCTYPE svg PUBLIC "-//W3C//DTD SVG 1.1//EN" "http://www.w3.org/Graphics/SVG/1.1/DTD/svg11.dtd">
<svg version="1.1" id="Layer_1" xmlns="http://www.w3.org/2000/svg" xmlns:xlink="http://www.w3.org/1999/xlink" x="0px" y="0px"
	 width="64px" height="64px" viewBox="0 0 64 64" enable-background="new 0 0 64 64" xml:space="preserve">
<path d="M5.507,58.87c0.312,0.178,0.699,0.173,1.007-0.013L26,47.166l19.485,11.691C45.644,58.953,45.822,59,46,59
	c0.17,0,0.34-0.043,0.493-0.13C46.806,58.693,47,58.36,47,58V46.949C53.701,46.436,59,40.831,59,34s-5.299-12.436-12-12.949V2
	c0-0.552-0.448-1-1-1H6C5.448,1,5,1.448,5,2v56C5,58.36,5.194,58.693,5.507,58.87z M57,34c0,6.065-4.935,11-11,11s-11-4.935-11-11
	s4.935-11,11-11S57,27.935,57,34z M7,3h38v18.051C38.299,21.564,33,27.169,33,34s5.299,12.436,12,12.949v9.285L26.515,45.143
	c-0.317-0.19-0.712-0.19-1.029,0L7,56.234V3z"/>
<path d="M45,30v3h-3c-0.552,0-1,0.448-1,1s0.448,1,1,1h3v3c0,0.552,0.448,1,1,1s1-0.448,1-1v-3h3c0.552,0,1-0.448,1-1s-0.448-1-1-1
	h-3v-3c0-0.552-0.448-1-1-1S45,29.448,45,30z"/>
</svg>
