<?xml version="1.0" encoding="utf-8"?>
<!-- Generator: Adobe Illustrator 19.2.1, SVG Export Plug-In . SVG Version: 6.00 Build 0)  -->
<!DOCTYPE svg PUBLIC "-//W3C//DTD SVG 1.1//EN" "http://www.w3.org/Graphics/SVG/1.1/DTD/svg11.dtd">
<svg version="1.1" id="Layer_1" xmlns="http://www.w3.org/2000/svg" xmlns:xlink="http://www.w3.org/1999/xlink" x="0px" y="0px"
	 width="64px" height="64px" viewBox="0 0 64 64" enable-background="new 0 0 64 64" xml:space="preserve">
<path fill="#222221" d="M32,3C16.972,3,1,6.154,1,12c0,0.954,0.432,1.835,1.209,2.644c0.018,0.025,0.025,0.055,0.046,0.079L25,40.38
	V60c0,0.553,0.448,1,1,1h12c0.552,0,1-0.447,1-1V40.38l22.744-25.657c0.021-0.023,0.027-0.053,0.045-0.078
	C62.567,13.836,63,12.955,63,12C63,6.154,47.028,3,32,3z M32,5c17.967,0,29,4.077,29,7s-11.033,7-29,7S3,14.923,3,12S14.033,5,32,5z
	 M37.251,39.337C37.089,39.52,37,39.756,37,40v19H27V40c0-0.244-0.089-0.48-0.251-0.663L7.546,17.676C13.587,19.858,22.962,21,32,21
	c9.037,0,18.411-1.142,24.453-3.323L37.251,39.337z"/>
</svg>
