<?xml version="1.0" encoding="utf-8"?>
<!-- Generator: Adobe Illustrator 19.2.1, SVG Export Plug-In . SVG Version: 6.00 Build 0)  -->
<!DOCTYPE svg PUBLIC "-//W3C//DTD SVG 1.1//EN" "http://www.w3.org/Graphics/SVG/1.1/DTD/svg11.dtd">
<svg version="1.1" id="Layer_1" xmlns="http://www.w3.org/2000/svg" xmlns:xlink="http://www.w3.org/1999/xlink" x="0px" y="0px"
	 width="64px" height="64px" viewBox="0 0 64 64" enable-background="new 0 0 64 64" xml:space="preserve">
<path d="M2,15h12c0.553,0,1-0.448,1-1V2c0-0.552-0.447-1-1-1H2C1.447,1,1,1.448,1,2v12C1,14.552,1.447,15,2,15z M3,3h10v10H3V3z"/>
<path d="M25,14c0,0.552,0.447,1,1,1h12c0.553,0,1-0.448,1-1V2c0-0.552-0.447-1-1-1H26c-0.553,0-1,0.448-1,1V14z M27,3h10v10H27V3z"
	/>
<path d="M62,1H50c-0.553,0-1,0.448-1,1v12c0,0.552,0.447,1,1,1h12c0.553,0,1-0.448,1-1V2C63,1.448,62.553,1,62,1z M61,13H51V3h10V13
	z"/>
<path d="M2,39h12c0.553,0,1-0.448,1-1V26c0-0.552-0.447-1-1-1H2c-0.553,0-1,0.448-1,1v12C1,38.552,1.447,39,2,39z M3,27h10v10H3V27z
	"/>
<path d="M25,38c0,0.552,0.447,1,1,1h12c0.553,0,1-0.448,1-1V26c0-0.552-0.447-1-1-1H26c-0.553,0-1,0.448-1,1V38z M27,27h10v10H27V27
	z"/>
<path d="M62,25H50c-0.553,0-1,0.448-1,1v12c0,0.552,0.447,1,1,1h12c0.553,0,1-0.448,1-1V26C63,25.448,62.553,25,62,25z M61,37H51V27
	h10V37z"/>
<path d="M2,63h12c0.553,0,1-0.448,1-1V50c0-0.552-0.447-1-1-1H2c-0.553,0-1,0.448-1,1v12C1,62.552,1.447,63,2,63z M3,51h10v10H3V51z
	"/>
<path d="M25,62c0,0.552,0.447,1,1,1h12c0.553,0,1-0.448,1-1V50c0-0.552-0.447-1-1-1H26c-0.553,0-1,0.448-1,1V62z M27,51h10v10H27V51
	z"/>
<path d="M62,49H50c-0.553,0-1,0.448-1,1v12c0,0.552,0.447,1,1,1h12c0.553,0,1-0.448,1-1V50C63,49.448,62.553,49,62,49z M61,61H51V51
	h10V61z"/>
</svg>
