<?xml version="1.0" encoding="utf-8"?>
<!-- Generator: Adobe Illustrator 19.2.1, SVG Export Plug-In . SVG Version: 6.00 Build 0)  -->
<!DOCTYPE svg PUBLIC "-//W3C//DTD SVG 1.1//EN" "http://www.w3.org/Graphics/SVG/1.1/DTD/svg11.dtd">
<svg version="1.1" id="Layer_1" xmlns="http://www.w3.org/2000/svg" xmlns:xlink="http://www.w3.org/1999/xlink" x="0px" y="0px"
	 width="64px" height="64px" viewBox="0 0 64 64" enable-background="new 0 0 64 64" xml:space="preserve">
<path d="M53,37.365V24c0-11.579-9.42-21-21-21s-21,9.421-21,21v13.365c-6.051,2.961-9.925,8.588-9.925,14.494
	c0,0.015,0.008,0.028,0.009,0.042C1.083,51.935,1.075,51.967,1.075,52c0,5.634,15.724,9,30.925,9s30.925-3.366,30.925-9
	c0-0.033-0.008-0.065-0.009-0.098c0.001-0.015,0.009-0.027,0.009-0.042C62.925,45.953,59.051,40.326,53,37.365z M12.411,38.912
	C12.77,38.75,13,38.394,13,38V24c0-10.477,8.523-19,19-19s19,8.523,19,19v14c0,0.394,0.23,0.75,0.589,0.912
	c5.033,2.267,7.686,5.977,8.756,9.385c-3.827-2.545-11.477-4.266-19.942-4.956c-0.116-0.052-0.243-0.084-0.377-0.089
	c-0.084-0.002-0.16,0.024-0.239,0.042C37.23,43.101,34.608,43,32,43c-11.49,0-23.274,1.924-28.345,5.297
	C4.724,44.889,7.378,41.179,12.411,38.912z M38.885,45.222C38.311,48.531,35.462,51,31.999,51c-3.45,0-6.31-2.473-6.887-5.778
	C27.281,45.08,29.578,45,32,45C34.421,45,36.717,45.08,38.885,45.222z M32,59c-17.657,0-28.925-4.146-28.925-7
	c0-2.34,7.576-5.546,20.032-6.626C23.767,49.723,27.493,53,31.999,53c4.522,0,8.233-3.273,8.89-7.626
	C53.347,46.453,60.925,49.66,60.925,52C60.925,54.854,49.657,59,32,59z"/>
</svg>
