<?xml version="1.0" encoding="utf-8"?>
<!-- Generator: Adobe Illustrator 19.2.1, SVG Export Plug-In . SVG Version: 6.00 Build 0)  -->
<!DOCTYPE svg PUBLIC "-//W3C//DTD SVG 1.1//EN" "http://www.w3.org/Graphics/SVG/1.1/DTD/svg11.dtd">
<svg version="1.1" id="Layer_1" xmlns="http://www.w3.org/2000/svg" xmlns:xlink="http://www.w3.org/1999/xlink" x="0px" y="0px"
	 width="64px" height="64px" viewBox="0 0 64 64" enable-background="new 0 0 64 64" xml:space="preserve">
<path d="M50.707,3.293c-0.391-0.391-1.023-0.391-1.414,0l-30,30c-0.133,0.133-0.226,0.3-0.268,0.482l-3,13
	c-0.077,0.336,0.023,0.688,0.268,0.932C16.482,47.896,16.738,48,17,48c0.075,0,0.15-0.009,0.225-0.025l13-3
	c0.183-0.042,0.35-0.135,0.482-0.268l30-30c0.391-0.391,0.391-1.023,0-1.414L50.707,3.293z M29.496,43.09l-11.162,2.576
	l2.576-11.162L44,11.414L52.586,20L29.496,43.09z M54,18.586L45.414,10L50,5.414L58.586,14L54,18.586z"/>
<path d="M53,62V38c0-0.553-0.447-1-1-1s-1,0.447-1,1v23H3V13h23c0.553,0,1-0.447,1-1s-0.447-1-1-1H2c-0.553,0-1,0.447-1,1v50
	c0,0.553,0.447,1,1,1h50C52.553,63,53,62.553,53,62z"/>
</svg>
