<?xml version="1.0" encoding="utf-8"?>
<!-- Generator: Adobe Illustrator 19.2.1, SVG Export Plug-In . SVG Version: 6.00 Build 0)  -->
<!DOCTYPE svg PUBLIC "-//W3C//DTD SVG 1.1//EN" "http://www.w3.org/Graphics/SVG/1.1/DTD/svg11.dtd">
<svg version="1.1" id="Layer_1" xmlns="http://www.w3.org/2000/svg" xmlns:xlink="http://www.w3.org/1999/xlink" x="0px" y="0px"
	 width="64px" height="64px" viewBox="0 0 64 64" enable-background="new 0 0 64 64" xml:space="preserve">
<path d="M17,42c0,0.553,0.447,1,1,1h28c0.553,0,1-0.447,1-1V22c0-0.553-0.447-1-1-1H18c-0.553,0-1,0.447-1,1V42z M19,23h26v18H19V23
	z"/>
<path d="M11,42V22c0-0.553-0.447-1-1-1s-1,0.447-1,1v20c0,0.553,0.447,1,1,1S11,42.553,11,42z"/>
<path d="M53,22v20c0,0.553,0.447,1,1,1s1-0.447,1-1V22c0-0.553-0.447-1-1-1S53,21.447,53,22z"/>
<path d="M3,54V10c0-0.553-0.447-1-1-1s-1,0.447-1,1v44c0,0.553,0.447,1,1,1S3,54.553,3,54z"/>
<path d="M62,9c-0.553,0-1,0.447-1,1v44c0,0.553,0.447,1,1,1s1-0.447,1-1V10C63,9.447,62.553,9,62,9z"/>
</svg>
