<?xml version="1.0" encoding="utf-8"?>
<!-- Generator: Adobe Illustrator 19.2.1, SVG Export Plug-In . SVG Version: 6.00 Build 0)  -->
<!DOCTYPE svg PUBLIC "-//W3C//DTD SVG 1.1//EN" "http://www.w3.org/Graphics/SVG/1.1/DTD/svg11.dtd">
<svg version="1.1" id="Layer_1" xmlns="http://www.w3.org/2000/svg" xmlns:xlink="http://www.w3.org/1999/xlink" x="0px" y="0px"
	 width="64px" height="64px" viewBox="0 0 64 64" enable-background="new 0 0 64 64" xml:space="preserve">
<path d="M3.293,60.707C3.488,60.902,3.744,61,4,61s0.512-0.098,0.707-0.293l8.848-8.848c1.681,0.807,6.296,2.73,12.098,2.73
	c5.526,0,12.121-1.749,18.254-7.882C56.771,33.842,60.824,5.344,60.99,4.137c0.044-0.314-0.064-0.631-0.292-0.853
	S60.15,2.96,59.839,3.013c-1.243,0.203-30.577,5.111-42.546,17.08c-12.641,12.642-6.751,27.074-5.155,30.355l-8.845,8.845
	C2.902,59.684,2.902,60.316,3.293,60.707z M18.707,21.507C28.796,11.418,52.809,6.362,58.794,5.233
	c-0.982,5.89-5.466,29.224-16.301,40.06c-11.142,11.143-23.585,6.834-27.446,5.074l19.66-19.66c0.391-0.391,0.391-1.023,0-1.414
	s-1.023-0.391-1.414,0L13.627,48.959C11.853,45.123,7.49,32.725,18.707,21.507z"/>
</svg>
