<?xml version="1.0" encoding="utf-8"?>
<!-- Generator: Adobe Illustrator 19.2.1, SVG Export Plug-In . SVG Version: 6.00 Build 0)  -->
<!DOCTYPE svg PUBLIC "-//W3C//DTD SVG 1.1//EN" "http://www.w3.org/Graphics/SVG/1.1/DTD/svg11.dtd">
<svg version="1.1" id="Layer_1" xmlns="http://www.w3.org/2000/svg" xmlns:xlink="http://www.w3.org/1999/xlink" x="0px" y="0px"
	 width="64px" height="64px" viewBox="0 0 64 64" enable-background="new 0 0 64 64" xml:space="preserve">
<path d="M62,1H2C1.447,1,1,1.447,1,2v60c0,0.553,0.447,1,1,1h60c0.553,0,1-0.447,1-1V2C63,1.447,62.553,1,62,1z M61,3v28H48
	c-0.379,0-0.725,0.214-0.895,0.553L40,45.764L24.895,15.553c-0.34-0.678-1.449-0.678-1.789,0L15.382,31H3V3H61z M3,61V33h13
	c0.379,0,0.725-0.214,0.895-0.553L24,18.236l15.105,30.211C39.275,48.786,39.621,49,40,49s0.725-0.214,0.895-0.553L48.618,33H61v28
	H3z"/>
</svg>
