<?xml version="1.0" encoding="utf-8"?>
<!-- Generator: Adobe Illustrator 19.2.1, SVG Export Plug-In . SVG Version: 6.00 Build 0)  -->
<!DOCTYPE svg PUBLIC "-//W3C//DTD SVG 1.1//EN" "http://www.w3.org/Graphics/SVG/1.1/DTD/svg11.dtd">
<svg version="1.1" id="Layer_1" xmlns="http://www.w3.org/2000/svg" xmlns:xlink="http://www.w3.org/1999/xlink" x="0px" y="0px"
	 width="64px" height="64px" viewBox="0 0 64 64" enable-background="new 0 0 64 64" xml:space="preserve">
<path d="M50,19H38c-0.552,0-1,0.447-1,1s0.448,1,1,1h12c6.065,0,11,4.935,11,11s-4.935,11-11,11H38c-0.552,0-1,0.447-1,1
	s0.448,1,1,1h12c7.168,0,13-5.832,13-13S57.168,19,50,19z"/>
<path d="M14,45h12c0.552,0,1-0.447,1-1s-0.448-1-1-1H14C7.935,43,3,38.065,3,32s4.935-11,11-11h12c0.552,0,1-0.447,1-1s-0.448-1-1-1
	H14C6.832,19,1,24.832,1,32S6.832,45,14,45z"/>
<path d="M38,33h6c0.552,0,1-0.447,1-1s-0.448-1-1-1h-6c-0.552,0-1,0.447-1,1S37.448,33,38,33z"/>
<path d="M26,31h-6c-0.552,0-1,0.447-1,1s0.448,1,1,1h6c0.552,0,1-0.447,1-1S26.552,31,26,31z"/>
<path d="M31,8v48c0,0.553,0.448,1,1,1s1-0.447,1-1V8c0-0.553-0.448-1-1-1S31,7.447,31,8z"/>
</svg>
