<?xml version="1.0" encoding="utf-8"?>
<!-- Generator: Adobe Illustrator 19.2.1, SVG Export Plug-In . SVG Version: 6.00 Build 0)  -->
<!DOCTYPE svg PUBLIC "-//W3C//DTD SVG 1.1//EN" "http://www.w3.org/Graphics/SVG/1.1/DTD/svg11.dtd">
<svg version="1.1" id="Layer_1" xmlns="http://www.w3.org/2000/svg" xmlns:xlink="http://www.w3.org/1999/xlink" x="0px" y="0px"
	 width="64px" height="64px" viewBox="0 0 64 64" enable-background="new 0 0 64 64" xml:space="preserve">
<path d="M61.503,11.352c-0.337-0.083-0.694,0.02-0.94,0.266l-7.361,7.361l-8.18-8.18l7.361-7.361
	c0.246-0.246,0.347-0.603,0.266-0.94c-0.082-0.339-0.333-0.61-0.664-0.718C50.389,1.262,48.737,1,47.076,1
	c-8.78,0-15.924,7.144-15.924,15.924c0,1.422,0.19,2.834,0.567,4.207L3.353,45.238c-0.213,0.181-0.341,0.442-0.352,0.722
	c-0.012,0.278,0.095,0.55,0.292,0.747l14,14C17.48,60.896,17.735,61,18,61c0.014,0,0.027,0,0.04-0.001
	c0.279-0.011,0.541-0.139,0.722-0.352L42.869,32.28c1.373,0.377,2.785,0.567,4.207,0.567c8.78,0,15.924-7.144,15.924-15.924
	c0-1.661-0.262-3.312-0.779-4.908C62.113,11.685,61.842,11.434,61.503,11.352z M47.076,30.848c-1.439,0-2.866-0.224-4.242-0.663
	c-0.386-0.123-0.805-0.003-1.066,0.305L17.94,58.526L5.474,46.06l28.037-23.827c0.308-0.261,0.428-0.682,0.305-1.066
	c-0.439-1.376-0.663-2.803-0.663-4.242C33.152,9.246,39.398,3,47.076,3c0.892,0,1.781,0.087,2.657,0.258L42.9,10.092
	c-0.391,0.391-0.391,1.023,0,1.414l9.594,9.594c0.391,0.391,1.023,0.391,1.414,0l6.834-6.833C60.913,15.143,61,16.032,61,16.924
	C61,24.602,54.754,30.848,47.076,30.848z"/>
</svg>
