<?xml version="1.0" encoding="utf-8"?>
<!-- Generator: Adobe Illustrator 19.2.1, SVG Export Plug-In . SVG Version: 6.00 Build 0)  -->
<!DOCTYPE svg PUBLIC "-//W3C//DTD SVG 1.1//EN" "http://www.w3.org/Graphics/SVG/1.1/DTD/svg11.dtd">
<svg version="1.1" id="Layer_1" xmlns="http://www.w3.org/2000/svg" xmlns:xlink="http://www.w3.org/1999/xlink" x="0px" y="0px"
	 width="64px" height="64px" viewBox="0 0 64 64" enable-background="new 0 0 64 64" xml:space="preserve">
<path fill="#222221" d="M62,7H2C1.447,7,1,7.447,1,8s0.447,1,1,1h60c0.553,0,1-0.447,1-1S62.553,7,62,7z"/>
<path fill="#222221" d="M55,24c0-0.553-0.447-1-1-1H10c-0.553,0-1,0.447-1,1s0.447,1,1,1h44C54.553,25,55,24.553,55,24z"/>
<path fill="#222221" d="M47,40c0-0.553-0.447-1-1-1H18c-0.553,0-1,0.447-1,1s0.447,1,1,1h28C46.553,41,47,40.553,47,40z"/>
<path fill="#222221" d="M26,55c-0.553,0-1,0.447-1,1s0.447,1,1,1h12c0.553,0,1-0.447,1-1s-0.447-1-1-1H26z"/>
</svg>
