<?xml version="1.0" encoding="utf-8"?>
<!-- Generator: Adobe Illustrator 19.2.1, SVG Export Plug-In . SVG Version: 6.00 Build 0)  -->
<!DOCTYPE svg PUBLIC "-//W3C//DTD SVG 1.1//EN" "http://www.w3.org/Graphics/SVG/1.1/DTD/svg11.dtd">
<svg version="1.1" id="Layer_1" xmlns="http://www.w3.org/2000/svg" xmlns:xlink="http://www.w3.org/1999/xlink" x="0px" y="0px"
	 width="64px" height="64px" viewBox="0 0 64 64" enable-background="new 0 0 64 64" xml:space="preserve">
<path d="M58,4H6C3.243,4,1,6.243,1,9v50c0,0.553,0.448,1,1,1h60c0.552,0,1-0.447,1-1V9C63,6.243,60.757,4,58,4z M6,6h52
	c1.654,0,3,1.346,3,3v7H3V9C3,7.346,4.346,6,6,6z M3,18h16v40H3V18z M21,58V18h40v40H21z"/>
<path d="M8,12h2c0.552,0,1-0.447,1-1s-0.448-1-1-1H8c-0.552,0-1,0.447-1,1S7.448,12,8,12z"/>
<path d="M16,12h2c0.552,0,1-0.447,1-1s-0.448-1-1-1h-2c-0.552,0-1,0.447-1,1S15.448,12,16,12z"/>
<path d="M48,12h8c0.552,0,1-0.447,1-1s-0.448-1-1-1h-8c-0.552,0-1,0.447-1,1S47.448,12,48,12z"/>
</svg>
