<?xml version="1.0" encoding="utf-8"?>
<!-- Generator: Adobe Illustrator 19.2.1, SVG Export Plug-In . SVG Version: 6.00 Build 0)  -->
<!DOCTYPE svg PUBLIC "-//W3C//DTD SVG 1.1//EN" "http://www.w3.org/Graphics/SVG/1.1/DTD/svg11.dtd">
<svg version="1.1" id="Layer_1" xmlns="http://www.w3.org/2000/svg" xmlns:xlink="http://www.w3.org/1999/xlink" x="0px" y="0px"
	 width="64px" height="64px" viewBox="0 0 64 64" enable-background="new 0 0 64 64" xml:space="preserve">
<path d="M9.313,55.227c-1.04,1.561-1.133,3.479-0.247,5.133C9.951,62.013,11.599,63,13.474,63h37.053
	c1.875,0,3.522-0.987,4.407-2.641c0.886-1.653,0.793-3.572-0.247-5.133L39,31.697V11h5c0.553,0,1-0.447,1-1V2c0-0.553-0.447-1-1-1
	H20c-0.553,0-1,0.447-1,1v8c0,0.553,0.447,1,1,1h5v20.697L9.313,55.227z M53.171,59.416C52.64,60.408,51.651,61,50.526,61H13.474
	c-1.125,0-2.113-0.592-2.645-1.584s-0.476-2.144,0.148-3.08L21.202,41h21.597l10.224,15.336
	C53.646,57.272,53.702,58.424,53.171,59.416z M26,9h-5V3h22v6h-5c-0.553,0-1,0.447-1,1v22c0,0.197,0.059,0.391,0.168,0.555
	L41.465,39h-18.93l4.297-6.445C26.941,32.391,27,32.197,27,32V10C27,9.447,26.553,9,26,9z"/>
</svg>
