<?xml version="1.0" encoding="utf-8"?>
<!-- Generator: Adobe Illustrator 19.2.1, SVG Export Plug-In . SVG Version: 6.00 Build 0)  -->
<!DOCTYPE svg PUBLIC "-//W3C//DTD SVG 1.1//EN" "http://www.w3.org/Graphics/SVG/1.1/DTD/svg11.dtd">
<svg version="1.1" id="Layer_1" xmlns="http://www.w3.org/2000/svg" xmlns:xlink="http://www.w3.org/1999/xlink" x="0px" y="0px"
	 width="64px" height="64px" viewBox="0 0 64 64" enable-background="new 0 0 64 64" xml:space="preserve">
<path d="M45.637,1C40.283,1,35.283,3.48,32,7.701C28.717,3.48,23.717,1,18.363,1C8.789,1,1,8.882,1,18.571
	C1,35.419,30.122,59.743,31.362,60.77C31.547,60.923,31.773,61,32,61s0.453-0.077,0.638-0.23c0.033-0.027,3.134-2.604,7.281-6.577
	C42.305,57.123,45.936,59,50,59c7.168,0,13-5.832,13-13c0-4.724-2.541-8.854-6.319-11.131C60.858,28.587,63,23.101,63,18.571
	C63,8.882,55.211,1,45.637,1z M61,46c0,6.065-4.935,11-11,11s-11-4.935-11-11s4.935-11,11-11S61,39.935,61,46z M50,33
	c-7.168,0-13,5.832-13,13c0,2.378,0.652,4.601,1.771,6.52c-3.099,2.979-5.639,5.2-6.77,6.169C27.686,54.988,3,33.171,3,18.571
	C3,9.985,9.892,3,18.363,3c5.154,0,9.939,2.604,12.801,6.967c0.369,0.563,1.303,0.563,1.672,0C35.697,5.604,40.482,3,45.637,3
	C54.108,3,61,9.985,61,18.571c0,4.178-2.07,9.358-6.115,15.39C53.375,33.346,51.728,33,50,33z"/>
<path d="M49,42v3h-3c-0.553,0-1,0.448-1,1s0.447,1,1,1h3v3c0,0.552,0.447,1,1,1s1-0.448,1-1v-3h3c0.553,0,1-0.448,1-1s-0.447-1-1-1
	h-3v-3c0-0.552-0.447-1-1-1S49,41.448,49,42z"/>
</svg>
