<?xml version="1.0" encoding="utf-8"?>
<!-- Generator: Adobe Illustrator 19.2.1, SVG Export Plug-In . SVG Version: 6.00 Build 0)  -->
<!DOCTYPE svg PUBLIC "-//W3C//DTD SVG 1.1//EN" "http://www.w3.org/Graphics/SVG/1.1/DTD/svg11.dtd">
<svg version="1.1" id="Layer_1" xmlns="http://www.w3.org/2000/svg" xmlns:xlink="http://www.w3.org/1999/xlink" x="0px" y="0px"
	 width="64px" height="64px" viewBox="0 0 64 64" enable-background="new 0 0 64 64" xml:space="preserve">
<path d="M42.293,20.293l-7.54,7.54C33.962,27.309,33.017,27,32,27s-1.962,0.309-2.753,0.833l-12.54-12.54
	c-0.391-0.391-1.023-0.391-1.414,0s-0.391,1.023,0,1.414l12.54,12.54C27.309,30.038,27,30.983,27,32c0,2.757,2.243,5,5,5
	s5-2.243,5-5c0-1.017-0.309-1.962-0.833-2.753l7.54-7.54c0.391-0.391,0.391-1.023,0-1.414S42.684,19.902,42.293,20.293z M32,35
	c-1.654,0-3-1.346-3-3s1.346-3,3-3s3,1.346,3,3S33.654,35,32,35z"/>
<path d="M32,1C14.906,1,1,14.907,1,32s13.906,31,31,31s31-13.907,31-31S49.094,1,32,1z M32,61C16.01,61,3,47.991,3,32S16.01,3,32,3
	s29,13.009,29,29S47.99,61,32,61z"/>
<path d="M32,12c0.553,0,1-0.448,1-1V8c0-0.552-0.447-1-1-1s-1,0.448-1,1v3C31,11.552,31.447,12,32,12z"/>
<path d="M52,32c0,0.552,0.447,1,1,1h3c0.553,0,1-0.448,1-1s-0.447-1-1-1h-3C52.447,31,52,31.448,52,32z"/>
<path d="M32,52c-0.553,0-1,0.448-1,1v3c0,0.552,0.447,1,1,1s1-0.448,1-1v-3C33,52.448,32.553,52,32,52z"/>
<path d="M11,31H8c-0.553,0-1,0.448-1,1s0.447,1,1,1h3c0.553,0,1-0.448,1-1S11.553,31,11,31z"/>
</svg>
