<?xml version="1.0" encoding="utf-8"?>
<!-- Generator: Adobe Illustrator 19.2.1, SVG Export Plug-In . SVG Version: 6.00 Build 0)  -->
<!DOCTYPE svg PUBLIC "-//W3C//DTD SVG 1.1//EN" "http://www.w3.org/Graphics/SVG/1.1/DTD/svg11.dtd">
<svg version="1.1" id="Layer_1" xmlns="http://www.w3.org/2000/svg" xmlns:xlink="http://www.w3.org/1999/xlink" x="0px" y="0px"
	 width="64px" height="64px" viewBox="0 0 64 64" enable-background="new 0 0 64 64" xml:space="preserve">
<path d="M39.293,40.707l8,8C47.488,48.902,47.744,49,48,49s0.512-0.098,0.707-0.293c0.391-0.391,0.391-1.023,0-1.414l-8-8
	c-0.391-0.391-1.023-0.391-1.414,0S38.902,40.316,39.293,40.707z"/>
<path d="M58.071,18.937c-0.188-0.189-0.442-0.296-0.708-0.297c-0.001,0-0.002,0-0.003,0c-0.266,0-0.52,0.105-0.707,0.293
	l-1.386,1.386l-2.586-2.586l1.366-1.366c0.389-0.389,0.391-1.019,0.004-1.41L43.785,4.563C38.949-0.195,31.11-0.166,26.313,4.633
	c-0.188,0.188-0.293,0.441-0.293,0.707s0.105,0.52,0.293,0.707l10.052,10.052l-7.89,6.964l-7.478-7.478l-0.019-4.095
	c-0.001-0.264-0.106-0.516-0.293-0.702l-8.485-8.485c-0.391-0.391-1.023-0.391-1.414,0l-8.485,8.485
	c-0.391,0.391-0.391,1.023,0,1.414l8.485,8.485c0.187,0.187,0.438,0.292,0.702,0.293l4.095,0.019l7.141,7.141L3.338,45.25
	C3.131,45.433,3.009,45.693,3,45.969c-0.008,0.276,0.098,0.543,0.293,0.738l10,10C13.48,56.895,13.735,57,14,57
	c0.011,0,0.021,0,0.031,0c0.275-0.009,0.536-0.131,0.719-0.338l13.361-15.137l15.182,15.182c1.849,1.85,4.278,2.773,6.707,2.773
	s4.858-0.924,6.707-2.773c3.698-3.698,3.698-9.716,0-13.414L40.689,27.275l3.213-3.64l0.732,0.732c0.391,0.391,1.023,0.391,1.414,0
	l1.685-1.685l2.586,2.586l-1.685,1.685c-0.391,0.391-0.391,1.023,0,1.414l3.5,3.5c0.195,0.195,0.451,0.293,0.707,0.293
	s0.512-0.098,0.707-0.293l8-8c0.389-0.389,0.391-1.019,0.004-1.41L58.071,18.937z M16.707,19.293
	c-0.187-0.187-0.438-0.292-0.702-0.293l-4.095-0.019l-7.487-7.487l7.071-7.071l7.487,7.487L19,16.005
	c0.001,0.264,0.106,0.516,0.293,0.702l7.681,7.681l-2.747,2.425L16.707,19.293z M55.293,44.707c2.918,2.919,2.918,7.667,0,10.586
	c-2.918,2.918-7.668,2.918-10.586,0l-15.27-15.27l9.926-11.246L55.293,44.707z M27.362,39.35c-0.002,0.002-0.005,0.003-0.007,0.005
	c-0.004,0.004-0.005,0.01-0.009,0.014L13.954,54.54L5.46,46.046l32.323-28.53l4.701,4.701L27.362,39.35z M52.841,29.745
	l-2.086-2.086l1.685-1.685c0.391-0.391,0.391-1.023,0-1.414l-4-4c-0.391-0.391-1.023-0.391-1.414,0l-1.685,1.685L28.469,5.374
	c4.053-3.34,10.097-3.141,13.904,0.605l9.558,9.676l-1.37,1.37c-0.391,0.391-0.391,1.023,0,1.414l4,4
	c0.391,0.391,1.023,0.391,1.414,0l1.382-1.382l2.074,2.098L52.841,29.745z"/>
</svg>
