<?xml version="1.0" encoding="utf-8"?>
<!-- Generator: Adobe Illustrator 19.2.1, SVG Export Plug-In . SVG Version: 6.00 Build 0)  -->
<!DOCTYPE svg PUBLIC "-//W3C//DTD SVG 1.1//EN" "http://www.w3.org/Graphics/SVG/1.1/DTD/svg11.dtd">
<svg version="1.1" id="Layer_1" xmlns="http://www.w3.org/2000/svg" xmlns:xlink="http://www.w3.org/1999/xlink" x="0px" y="0px"
	 width="64px" height="64px" viewBox="0 0 64 64" enable-background="new 0 0 64 64" xml:space="preserve">
<path d="M9,2v28c0,0.552,0.448,1,1,1s1-0.448,1-1V2c0-0.552-0.448-1-1-1S9,1.448,9,2z"/>
<path d="M33,8V2c0-0.552-0.448-1-1-1s-1,0.448-1,1v6c0,0.552,0.448,1,1,1S33,8.552,33,8z"/>
<path d="M9,54.941V62c0,0.552,0.448,1,1,1s1-0.448,1-1v-7.059c4.493-0.5,8-4.317,8-8.941c0-4.962-4.038-9-9-9s-9,4.038-9,9
	C1,50.624,4.507,54.441,9,54.941z M10,39c3.86,0,7,3.14,7,7s-3.14,7-7,7s-7-3.14-7-7S6.14,39,10,39z"/>
<path d="M53,2v28c0,0.552,0.448,1,1,1s1-0.448,1-1V2c0-0.552-0.448-1-1-1S53,1.448,53,2z"/>
<path d="M54,37c-4.962,0-9,4.038-9,9c0,4.624,3.507,8.441,8,8.941V62c0,0.552,0.448,1,1,1s1-0.448,1-1v-7.059
	c4.493-0.5,8-4.317,8-8.941C63,41.038,58.962,37,54,37z M54,53c-3.86,0-7-3.14-7-7s3.14-7,7-7s7,3.14,7,7S57.86,53,54,53z"/>
<path d="M23,24c0,4.624,3.507,8.441,8,8.941V62c0,0.552,0.448,1,1,1s1-0.448,1-1V32.941c4.493-0.5,8-4.317,8-8.941
	c0-4.962-4.038-9-9-9S23,19.038,23,24z M32,17c3.86,0,7,3.14,7,7s-3.14,7-7,7s-7-3.14-7-7S28.14,17,32,17z"/>
</svg>
