<?xml version="1.0" encoding="utf-8"?>
<!-- Generator: Adobe Illustrator 19.2.1, SVG Export Plug-In . SVG Version: 6.00 Build 0)  -->
<!DOCTYPE svg PUBLIC "-//W3C//DTD SVG 1.1//EN" "http://www.w3.org/Graphics/SVG/1.1/DTD/svg11.dtd">
<svg version="1.1" id="Layer_1" xmlns="http://www.w3.org/2000/svg" xmlns:xlink="http://www.w3.org/1999/xlink" x="0px" y="0px"
	 width="64px" height="64px" viewBox="0 0 64 64" enable-background="new 0 0 64 64" xml:space="preserve">
<path d="M26,3H4C3.448,3,3,3.447,3,4v22c0,0.553,0.448,1,1,1h22c0.552,0,1-0.447,1-1V4C27,3.447,26.552,3,26,3z M25,25H5V5h20V25z"
	/>
<path d="M60,7H36c-0.552,0-1,0.447-1,1s0.448,1,1,1h24c0.552,0,1-0.447,1-1S60.552,7,60,7z"/>
<path d="M36,21h16c0.552,0,1-0.447,1-1s-0.448-1-1-1H36c-0.552,0-1,0.447-1,1S35.448,21,36,21z"/>
<path d="M3,60c0,0.553,0.448,1,1,1h22c0.552,0,1-0.447,1-1V38c0-0.553-0.448-1-1-1H4c-0.552,0-1,0.447-1,1V60z M5,39h20v20H5V39z"/>
<path d="M61,42c0-0.553-0.448-1-1-1H36c-0.552,0-1,0.447-1,1s0.448,1,1,1h24C60.552,43,61,42.553,61,42z"/>
<path d="M53,54c0-0.553-0.448-1-1-1H36c-0.552,0-1,0.447-1,1s0.448,1,1,1h16C52.552,55,53,54.553,53,54z"/>
</svg>
