<?xml version="1.0" encoding="utf-8"?>
<!-- Generator: Adobe Illustrator 19.2.1, SVG Export Plug-In . SVG Version: 6.00 Build 0)  -->
<!DOCTYPE svg PUBLIC "-//W3C//DTD SVG 1.1//EN" "http://www.w3.org/Graphics/SVG/1.1/DTD/svg11.dtd">
<svg version="1.1" id="Layer_1" xmlns="http://www.w3.org/2000/svg" xmlns:xlink="http://www.w3.org/1999/xlink" x="0px" y="0px"
	 width="64px" height="64px" viewBox="0 0 64 64" enable-background="new 0 0 64 64" xml:space="preserve">
<path fill="#222221" d="M2,17h36c0.553,0,1-0.448,1-1V4c0-0.552-0.447-1-1-1H2C1.447,3,1,3.448,1,4v12C1,16.552,1.447,17,2,17z M3,5
	h34v10H3V5z"/>
<path fill="#222221" d="M2,39h36c0.553,0,1-0.447,1-1V26c0-0.552-0.447-1-1-1H2c-0.553,0-1,0.448-1,1v12C1,38.553,1.447,39,2,39z
	 M3,27h34v10H3V27z"/>
<path fill="#222221" d="M2,61h36c0.553,0,1-0.447,1-1V48c0-0.553-0.447-1-1-1H2c-0.553,0-1,0.447-1,1v12C1,60.553,1.447,61,2,61z
	 M3,49h34v10H3V49z"/>
<path fill="#222221" d="M60.707,31.293l-12-12c-0.391-0.391-1.023-0.391-1.414,0s-0.391,1.023,0,1.414L58.586,32L47.293,43.293
	c-0.391,0.391-0.391,1.023,0,1.414C47.488,44.902,47.744,45,48,45s0.512-0.098,0.707-0.293l12-12
	C61.098,32.316,61.098,31.684,60.707,31.293z"/>
</svg>
