<?xml version="1.0" encoding="utf-8"?>
<!-- Generator: Adobe Illustrator 19.2.1, SVG Export Plug-In . SVG Version: 6.00 Build 0)  -->
<!DOCTYPE svg PUBLIC "-//W3C//DTD SVG 1.1//EN" "http://www.w3.org/Graphics/SVG/1.1/DTD/svg11.dtd">
<svg version="1.1" id="Layer_1" xmlns="http://www.w3.org/2000/svg" xmlns:xlink="http://www.w3.org/1999/xlink" x="0px" y="0px"
	 width="64px" height="64px" viewBox="0 0 64 64" enable-background="new 0 0 64 64" xml:space="preserve">
<path fill="#222221" d="M4,61h56c0.352,0,0.678-0.185,0.858-0.487c0.181-0.302,0.189-0.677,0.022-0.987l-28-52
	c-0.349-0.647-1.412-0.647-1.761,0l-28,52c-0.167,0.31-0.159,0.685,0.022,0.987C3.322,60.815,3.648,61,4,61z M32,10.109L58.326,59
	H5.674L32,10.109z"/>
<path fill="#222221" d="M32,41c0.552,0,1-0.448,1-1V27c0-0.552-0.448-1-1-1s-1,0.448-1,1v13C31,40.552,31.448,41,32,41z"/>
<path fill="#222221" d="M32,45c-2.206,0-4,1.794-4,4s1.794,4,4,4s4-1.794,4-4S34.206,45,32,45z M32,51c-1.103,0-2-0.897-2-2
	s0.897-2,2-2s2,0.897,2,2S33.103,51,32,51z"/>
</svg>
