<?xml version="1.0" encoding="utf-8"?>
<!-- Generator: Adobe Illustrator 19.2.1, SVG Export Plug-In . SVG Version: 6.00 Build 0)  -->
<!DOCTYPE svg PUBLIC "-//W3C//DTD SVG 1.1//EN" "http://www.w3.org/Graphics/SVG/1.1/DTD/svg11.dtd">
<svg version="1.1" id="Layer_1" xmlns="http://www.w3.org/2000/svg" xmlns:xlink="http://www.w3.org/1999/xlink" x="0px" y="0px"
	 width="64px" height="64px" viewBox="0 0 64 64" enable-background="new 0 0 64 64" xml:space="preserve">
<path fill="#222221" d="M38,1c-0.552,0-1,0.448-1,1s0.448,1,1,1c12.682,0,23,10.318,23,23c0,0.552,0.448,1,1,1s1-0.448,1-1
	C63,12.215,51.785,1,38,1z"/>
<path fill="#222221" d="M50,63c0.265,0,0.52-0.105,0.707-0.293l10-10c0.391-0.391,0.391-1.023,0-1.414l-14-14
	c-0.391-0.391-1.023-0.391-1.414,0L36,46.586L17.414,28l9.293-9.293c0.391-0.391,0.391-1.023,0-1.414l-14-14
	c-0.391-0.391-1.023-0.391-1.414,0l-10,10C1.105,13.48,1,13.735,1,14C1,41.019,22.981,63,50,63z M12,5.414L24.586,18l-9.293,9.293
	c-0.391,0.391-0.391,1.023,0,1.414l20,20c0.391,0.391,1.023,0.391,1.414,0L46,39.414L58.586,52l-8.999,8.998
	C23.998,60.777,3.223,40.002,3.002,14.413L12,5.414z"/>
<path fill="#222221" d="M49,26c0,0.552,0.448,1,1,1s1-0.448,1-1c0-7.168-5.832-13-13-13c-0.552,0-1,0.448-1,1s0.448,1,1,1
	C44.065,15,49,19.935,49,26z"/>
</svg>
