<?xml version="1.0" encoding="utf-8"?>
<!-- Generator: Adobe Illustrator 19.2.1, SVG Export Plug-In . SVG Version: 6.00 Build 0)  -->
<!DOCTYPE svg PUBLIC "-//W3C//DTD SVG 1.1//EN" "http://www.w3.org/Graphics/SVG/1.1/DTD/svg11.dtd">
<svg version="1.1" id="Layer_1" xmlns="http://www.w3.org/2000/svg" xmlns:xlink="http://www.w3.org/1999/xlink" x="0px" y="0px"
	 width="64px" height="64px" viewBox="0 0 64 64" enable-background="new 0 0 64 64" xml:space="preserve">
<path d="M32,3C14.617,3,1,13.981,1,28c0,14.086,13.906,25.546,31,25.546c2.783,0,5.585-0.32,8.331-0.951l15.286,6.329
	C55.74,58.975,55.871,59,56,59c0.207,0,0.412-0.064,0.586-0.189c0.28-0.203,0.437-0.537,0.411-0.883l-1.001-13.762
	C60.517,39.612,63,33.889,63,28C63,13.981,49.383,3,32,3z M54.268,43.062c-0.212,0.206-0.321,0.495-0.3,0.789l0.917,12.604
	l-14.086-5.832c-0.122-0.051-0.252-0.076-0.383-0.076c-0.078,0-0.156,0.009-0.232,0.027c-2.695,0.645-5.449,0.971-8.184,0.971
	C16.01,51.546,3,40.983,3,28C3,15.103,15.738,5,32,5s29,10.103,29,23C61,33.487,58.609,38.837,54.268,43.062z"/>
</svg>
