<?xml version="1.0" encoding="utf-8"?>
<!-- Generator: Adobe Illustrator 19.2.1, SVG Export Plug-In . SVG Version: 6.00 Build 0)  -->
<!DOCTYPE svg PUBLIC "-//W3C//DTD SVG 1.1//EN" "http://www.w3.org/Graphics/SVG/1.1/DTD/svg11.dtd">
<svg version="1.1" id="Layer_1" xmlns="http://www.w3.org/2000/svg" xmlns:xlink="http://www.w3.org/1999/xlink" x="0px" y="0px"
	 width="64px" height="64px" viewBox="0 0 64 64" enable-background="new 0 0 64 64" xml:space="preserve">
<path d="M5,36c0,14.888,12.112,27,27,27s27-12.112,27-27C59,21.448,47.426,9.554,33,9.025V3h6c0.552,0,1-0.448,1-1s-0.448-1-1-1H25
	c-0.552,0-1,0.448-1,1s0.448,1,1,1h6v6.025C16.574,9.554,5,21.448,5,36z M57,36c0,13.785-11.215,25-25,25S7,49.785,7,36
	s11.215-25,25-25S57,22.215,57,36z"/>
<path d="M22.865,22.865c-0.359,0.25-0.514,0.704-0.383,1.121c0.416,1.324,4.103,12.983,5.414,14.869
	c0.762,1.097,1.906,1.831,3.221,2.067c0.298,0.054,0.597,0.08,0.894,0.08c1.011,0,1.997-0.307,2.844-0.897
	c1.097-0.762,1.831-1.906,2.067-3.221c0.236-1.314-0.054-2.642-0.817-3.738c-1.311-1.885-10.96-9.399-12.056-10.25
	C23.704,22.628,23.224,22.616,22.865,22.865z M34.463,34.288c0.458,0.658,0.631,1.454,0.49,2.243s-0.582,1.475-1.24,1.933
	c-0.658,0.458-1.455,0.632-2.243,0.49c-0.789-0.142-1.475-0.582-1.932-1.24c0,0,0,0,0,0c-0.691-0.994-2.625-6.549-4.152-11.224
	C29.236,29.547,33.771,33.293,34.463,34.288z"/>
<path d="M31,16v4c0,0.552,0.448,1,1,1s1-0.448,1-1v-4c0-0.552-0.448-1-1-1S31,15.448,31,16z"/>
<path d="M48,37h4c0.552,0,1-0.448,1-1s-0.448-1-1-1h-4c-0.552,0-1,0.448-1,1S47.448,37,48,37z"/>
<path d="M32,51c-0.552,0-1,0.448-1,1v4c0,0.552,0.448,1,1,1s1-0.448,1-1v-4C33,51.448,32.552,51,32,51z"/>
<path d="M16,35h-4c-0.552,0-1,0.448-1,1s0.448,1,1,1h4c0.552,0,1-0.448,1-1S16.552,35,16,35z"/>
</svg>
