<?xml version="1.0" encoding="utf-8"?>
<!-- Generator: Adobe Illustrator 19.2.1, SVG Export Plug-In . SVG Version: 6.00 Build 0)  -->
<!DOCTYPE svg PUBLIC "-//W3C//DTD SVG 1.1//EN" "http://www.w3.org/Graphics/SVG/1.1/DTD/svg11.dtd">
<svg version="1.1" id="Layer_1" xmlns="http://www.w3.org/2000/svg" xmlns:xlink="http://www.w3.org/1999/xlink" x="0px" y="0px"
	 width="64px" height="64px" viewBox="0 0 64 64" enable-background="new 0 0 64 64" xml:space="preserve">
<path d="M62,1H2C1.447,1,1,1.448,1,2v60c0,0.552,0.447,1,1,1h60c0.553,0,1-0.448,1-1V2C63,1.448,62.553,1,62,1z M61,61H3V3h58V61z"
	/>
<path d="M10,19h8c0.553,0,1-0.448,1-1v-8c0-0.552-0.447-1-1-1h-8c-0.553,0-1,0.448-1,1v8C9,18.552,9.447,19,10,19z M11,11h6v6h-6V11
	z"/>
<path d="M28,19h8c0.553,0,1-0.448,1-1v-8c0-0.552-0.447-1-1-1h-8c-0.553,0-1,0.448-1,1v8C27,18.552,27.447,19,28,19z M29,11h6v6h-6
	V11z"/>
<path d="M46,19h8c0.553,0,1-0.448,1-1v-8c0-0.552-0.447-1-1-1h-8c-0.553,0-1,0.448-1,1v8C45,18.552,45.447,19,46,19z M47,11h6v6h-6
	V11z"/>
<path d="M10,37h8c0.553,0,1-0.448,1-1v-8c0-0.552-0.447-1-1-1h-8c-0.553,0-1,0.448-1,1v8C9,36.552,9.447,37,10,37z M11,29h6v6h-6V29
	z"/>
<path d="M28,37h8c0.553,0,1-0.448,1-1v-8c0-0.552-0.447-1-1-1h-8c-0.553,0-1,0.448-1,1v8C27,36.552,27.447,37,28,37z M29,29h6v6h-6
	V29z"/>
<path d="M46,37h8c0.553,0,1-0.448,1-1v-8c0-0.552-0.447-1-1-1h-8c-0.553,0-1,0.448-1,1v8C45,36.552,45.447,37,46,37z M47,29h6v6h-6
	V29z"/>
<path d="M10,55h8c0.553,0,1-0.448,1-1v-8c0-0.552-0.447-1-1-1h-8c-0.553,0-1,0.448-1,1v8C9,54.552,9.447,55,10,55z M11,47h6v6h-6V47
	z"/>
<path d="M28,55h8c0.553,0,1-0.448,1-1v-8c0-0.552-0.447-1-1-1h-8c-0.553,0-1,0.448-1,1v8C27,54.552,27.447,55,28,55z M29,47h6v6h-6
	V47z"/>
<path d="M46,55h8c0.553,0,1-0.448,1-1v-8c0-0.552-0.447-1-1-1h-8c-0.553,0-1,0.448-1,1v8C45,54.552,45.447,55,46,55z M47,47h6v6h-6
	V47z"/>
</svg>
