<?xml version="1.0" encoding="utf-8"?>
<!-- Generator: Adobe Illustrator 19.2.1, SVG Export Plug-In . SVG Version: 6.00 Build 0)  -->
<!DOCTYPE svg PUBLIC "-//W3C//DTD SVG 1.1//EN" "http://www.w3.org/Graphics/SVG/1.1/DTD/svg11.dtd">
<svg version="1.1" id="Layer_1" xmlns="http://www.w3.org/2000/svg" xmlns:xlink="http://www.w3.org/1999/xlink" x="0px" y="0px"
	 width="64px" height="64px" viewBox="0 0 64 64" enable-background="new 0 0 64 64" xml:space="preserve">
<path d="M32,63c11.15,0,23-8.061,23-23C55,25.875,33.619,4.21,32.709,3.295c-0.375-0.378-1.043-0.378-1.418,0
	C30.381,4.21,9,25.875,9,40C9,54.939,20.85,63,32,63z M32,5.438C35.744,9.357,53,28.075,53,40c0,13.64-10.82,21-21,21
	s-21-7.36-21-21C11,28.08,28.256,9.358,32,5.438z"/>
<path d="M32,49c0.55,0,0.995-0.444,0.998-0.995C33,47.456,32.557,47.006,32.006,47C31.72,46.997,25,46.843,25,40
	c0-0.552-0.448-1-1-1s-1,0.448-1,1C23,48.897,31.91,49,32,49z"/>
</svg>
