<?xml version="1.0" encoding="utf-8"?>
<!-- Generator: Adobe Illustrator 19.2.1, SVG Export Plug-In . SVG Version: 6.00 Build 0)  -->
<!DOCTYPE svg PUBLIC "-//W3C//DTD SVG 1.1//EN" "http://www.w3.org/Graphics/SVG/1.1/DTD/svg11.dtd">
<svg version="1.1" id="Layer_1" xmlns="http://www.w3.org/2000/svg" xmlns:xlink="http://www.w3.org/1999/xlink" x="0px" y="0px"
	 width="64px" height="64px" viewBox="0 0 64 64" enable-background="new 0 0 64 64" xml:space="preserve">
<path d="M38.001,61H54c0.552,0,1-0.447,1-1V26.148l5.347,4.61C60.536,30.92,60.768,31,61,31c0.281,0,0.56-0.117,0.758-0.347
	c0.361-0.419,0.314-1.05-0.104-1.411l-29-25c-0.375-0.322-0.931-0.322-1.306,0L19,14.886V8c0-0.553-0.448-1-1-1h-6
	c-0.552,0-1,0.447-1,1v13.783l-8.653,7.459c-0.418,0.361-0.465,0.992-0.104,1.411c0.36,0.418,0.991,0.463,1.41,0.104L9,26.148V60
	c0,0.553,0.448,1,1,1h16.001c0.552,0,1-0.447,1-1V46h10v14C37.001,60.553,37.449,61,38.001,61z M13,9h4v7.61l-4,3.448V9z M26.001,44
	c-0.552,0-1,0.447-1,1v14H11V24.424L32,6.32l21,18.104V59H39.001V45c0-0.553-0.448-1-1-1H26.001z"/>
<path d="M39.001,36V26c0-0.553-0.448-1-1-1h-12c-0.552,0-1,0.447-1,1v10c0,0.553,0.448,1,1,1h12C38.553,37,39.001,36.553,39.001,36z
	 M37.001,35h-10v-8h10V35z"/>
</svg>
