<?xml version="1.0" encoding="utf-8"?>
<!-- Generator: Adobe Illustrator 19.2.1, SVG Export Plug-In . SVG Version: 6.00 Build 0)  -->
<!DOCTYPE svg PUBLIC "-//W3C//DTD SVG 1.1//EN" "http://www.w3.org/Graphics/SVG/1.1/DTD/svg11.dtd">
<svg version="1.1" id="Layer_1" xmlns="http://www.w3.org/2000/svg" xmlns:xlink="http://www.w3.org/1999/xlink" x="0px" y="0px"
	 width="64px" height="64px" viewBox="0 0 64 64" enable-background="new 0 0 64 64" xml:space="preserve">
<path d="M10,63h44c0.553,0,1-0.448,1-1V13h5c0.553,0,1-0.448,1-1s-0.447-1-1-1H43V2c0-0.552-0.447-1-1-1H22c-0.553,0-1,0.448-1,1v9
	H4c-0.553,0-1,0.448-1,1s0.447,1,1,1h5v49C9,62.552,9.447,63,10,63z M53,61H11V13h42V61z M23,3h18v8H23V3z"/>
<path d="M32,25c-0.553,0-1,0.448-1,1v22c0,0.552,0.447,1,1,1s1-0.448,1-1V26C33,25.448,32.553,25,32,25z"/>
<path d="M22,25c-0.553,0-1,0.448-1,1v22c0,0.552,0.447,1,1,1s1-0.448,1-1V26C23,25.448,22.553,25,22,25z"/>
<path d="M41,26v22c0,0.552,0.447,1,1,1s1-0.448,1-1V26c0-0.552-0.447-1-1-1S41,25.448,41,26z"/>
</svg>
