<?xml version="1.0" encoding="utf-8"?>
<!-- Generator: Adobe Illustrator 19.2.1, SVG Export Plug-In . SVG Version: 6.00 Build 0)  -->
<!DOCTYPE svg PUBLIC "-//W3C//DTD SVG 1.1//EN" "http://www.w3.org/Graphics/SVG/1.1/DTD/svg11.dtd">
<svg version="1.1" id="Layer_1" xmlns="http://www.w3.org/2000/svg" xmlns:xlink="http://www.w3.org/1999/xlink" x="0px" y="0px"
	 width="64px" height="64px" viewBox="0 0 64 64" enable-background="new 0 0 64 64" xml:space="preserve">
<path d="M32,1C14.907,1,1,14.907,1,32s13.907,31,31,31s31-13.907,31-31S49.093,1,32,1z M32,61C16.009,61,3,47.991,3,32
	S16.009,3,32,3s29,13.009,29,29S47.991,61,32,61z"/>
<path d="M32,9C19.318,9,9,19.318,9,32c0,2.875,0.53,5.688,1.575,8.364c0.15,0.384,0.52,0.636,0.932,0.636H25.08
	c0.488,3.387,3.401,6,6.92,6s6.432-2.613,6.92-6h13.573c0.412,0,0.782-0.252,0.932-0.636C54.47,37.688,55,34.875,55,32
	C55,19.318,44.682,9,32,9z M32,45c-2.756,0-4.999-2.242-5-4.998c0-0.001,0-0.001,0-0.002s0-0.001,0-0.002
	C27.001,37.242,29.244,35,32,35c2.757,0,5,2.243,5,5S34.757,45,32,45z M51.799,39H38.92c-0.488-3.387-3.401-6-6.92-6
	c-0.351,0-0.693,0.034-1.031,0.085l-4.011-13.372c-0.159-0.529-0.717-0.826-1.245-0.671c-0.529,0.159-0.83,0.716-0.671,1.245
	l4.011,13.372c-2.1,0.98-3.632,2.968-3.974,5.341H12.201C11.404,36.749,11,34.397,11,32c0-11.58,9.42-21,21-21s21,9.42,21,21
	C53,34.397,52.596,36.749,51.799,39z"/>
</svg>
