<?xml version="1.0" encoding="utf-8"?>
<!-- Generator: Adobe Illustrator 19.2.1, SVG Export Plug-In . SVG Version: 6.00 Build 0)  -->
<!DOCTYPE svg PUBLIC "-//W3C//DTD SVG 1.1//EN" "http://www.w3.org/Graphics/SVG/1.1/DTD/svg11.dtd">
<svg version="1.1" id="Layer_1" xmlns="http://www.w3.org/2000/svg" xmlns:xlink="http://www.w3.org/1999/xlink" x="0px" y="0px"
	 width="64px" height="64px" viewBox="0 0 64 64" enable-background="new 0 0 64 64" xml:space="preserve">
<path d="M12,41c3.033,0,5.715-1.513,7.346-3.818l24.338,13.385C43.245,51.626,43,52.784,43,54c0,4.963,4.038,9,9,9s9-4.037,9-9
	s-4.038-9-9-9c-3.033,0-5.715,1.512-7.346,3.818L20.316,35.433C20.755,34.374,21,33.216,21,32c0-1.216-0.245-2.374-0.684-3.433
	l24.338-13.385C46.285,17.488,48.967,19,52,19c4.962,0,9-4.037,9-9s-4.038-9-9-9s-9,4.037-9,9c0,1.216,0.245,2.374,0.684,3.433
	L19.346,26.818C17.715,24.513,15.033,23,12,23c-4.962,0-9,4.037-9,9S7.038,41,12,41z M52,47c3.86,0,7,3.141,7,7s-3.14,7-7,7
	s-7-3.141-7-7c0-1.186,0.299-2.303,0.821-3.283c0.02-0.028,0.044-0.052,0.061-0.083c0.01-0.019,0.01-0.04,0.019-0.06
	C47.103,48.444,49.384,47,52,47z M52,3c3.86,0,7,3.141,7,7s-3.14,7-7,7c-2.616,0-4.897-1.444-6.098-3.575
	c-0.009-0.019-0.008-0.041-0.019-0.06c-0.013-0.024-0.036-0.037-0.05-0.06C45.302,12.32,45,11.195,45,10C45,6.141,48.14,3,52,3z
	 M12,25c2.507,0,4.704,1.329,5.941,3.316c0.016,0.121,0.049,0.242,0.112,0.355c0.061,0.112,0.146,0.201,0.238,0.279
	C18.74,29.873,19,30.906,19,32c0,1.091-0.258,2.121-0.706,3.043c-0.095,0.078-0.179,0.172-0.242,0.286
	c-0.063,0.113-0.096,0.234-0.112,0.355C16.704,37.671,14.507,39,12,39c-3.86,0-7-3.141-7-7S8.14,25,12,25z"/>
</svg>
