<?xml version="1.0" encoding="utf-8"?>
<!-- Generator: Adobe Illustrator 19.2.1, SVG Export Plug-In . SVG Version: 6.00 Build 0)  -->
<!DOCTYPE svg PUBLIC "-//W3C//DTD SVG 1.1//EN" "http://www.w3.org/Graphics/SVG/1.1/DTD/svg11.dtd">
<svg version="1.1" id="Layer_1" xmlns="http://www.w3.org/2000/svg" xmlns:xlink="http://www.w3.org/1999/xlink" x="0px" y="0px"
	 width="64px" height="64px" viewBox="0 0 64 64" enable-background="new 0 0 64 64" xml:space="preserve">
<path d="M62,1H2C1.448,1,1,1.448,1,2v60c0,0.552,0.448,1,1,1h60c0.552,0,1-0.448,1-1V2C63,1.448,62.552,1,62,1z M61,61H3V3h58V61z"
	/>
<path d="M32,46c-2.206,0-4,1.794-4,4s1.794,4,4,4s4-1.794,4-4S34.206,46,32,46z M32,52c-1.103,0-2-0.897-2-2s0.897-2,2-2
	s2,0.897,2,2S33.103,52,32,52z"/>
<path d="M22.432,18.916c0.506,0.221,1.095-0.009,1.317-0.516C25.182,15.12,28.421,13,32,13c4.962,0,9,4.038,9,9s-4.038,9-9,9
	c-0.552,0-1,0.448-1,1v6c0,0.552,0.448,1,1,1s1-0.448,1-1v-5.045C38.599,32.448,43,27.729,43,22c0-6.065-4.935-11-11-11
	c-4.374,0-8.332,2.59-10.084,6.599C21.694,18.104,21.925,18.694,22.432,18.916z"/>
</svg>
