<?xml version="1.0" encoding="utf-8"?>
<!-- Generator: Adobe Illustrator 19.2.1, SVG Export Plug-In . SVG Version: 6.00 Build 0)  -->
<!DOCTYPE svg PUBLIC "-//W3C//DTD SVG 1.1//EN" "http://www.w3.org/Graphics/SVG/1.1/DTD/svg11.dtd">
<svg version="1.1" id="Layer_1" xmlns="http://www.w3.org/2000/svg" xmlns:xlink="http://www.w3.org/1999/xlink" x="0px" y="0px"
	 width="64px" height="64px" viewBox="0 0 64 64" enable-background="new 0 0 64 64" xml:space="preserve">
<path d="M50,27c7.168,0,13-5.832,13-13c0-1.846-0.389-3.644-1.157-5.344c-0.135-0.299-0.409-0.513-0.731-0.571
	c-0.326-0.062-0.655,0.044-0.887,0.276L54,14.586L49.414,10l6.225-6.225c0.232-0.232,0.335-0.563,0.277-0.887
	c-0.059-0.323-0.273-0.597-0.572-0.731C53.645,1.39,51.847,1,50,1c-7.168,0-13,5.832-13,13c0,0.813,0.084,1.649,0.251,2.49
	l-5.252,4.764l-5.25-4.763C26.916,15.65,27,14.815,27,14c0-7.168-5.832-13-13-13c-1.847,0-3.645,0.39-5.344,1.157
	C8.357,2.292,8.144,2.565,8.084,2.889C8.026,3.212,8.129,3.543,8.361,3.775L14.586,10L10,14.586L3.775,8.361
	C3.544,8.129,3.214,8.022,2.889,8.085C2.566,8.144,2.292,8.357,2.157,8.656C1.389,10.356,1,12.154,1,14c0,7.168,5.832,13,13,13
	c0.813,0,1.649-0.084,2.491-0.251l4.266,4.702L3.328,47.26C3.125,47.443,3.007,47.702,3,47.976
	c-0.007,0.273,0.099,0.538,0.292,0.731l12,12C15.48,60.895,15.735,61,16,61c0.008,0,0.016,0,0.024,0
	c0.273-0.007,0.532-0.125,0.716-0.328L32,43.848l15.259,16.824c0.184,0.203,0.443,0.321,0.716,0.328c0.008,0,0.016,0,0.024,0
	c0.265,0,0.52-0.105,0.707-0.293l12-12c0.193-0.193,0.299-0.458,0.292-0.731c-0.006-0.273-0.125-0.532-0.328-0.716L43.244,31.452
	l4.266-4.703C48.352,26.916,49.187,27,50,27z M17.583,24.976c-0.246-0.271-0.62-0.389-0.977-0.3C15.72,24.891,14.844,25,14,25
	C7.935,25,3,20.065,3,14c0-1.065,0.154-2.112,0.458-3.128l5.835,5.835c0.391,0.391,1.023,0.391,1.414,0l6-6
	c0.391-0.391,0.391-1.023,0-1.414l-5.835-5.835C11.887,3.153,12.934,3,14,3c6.065,0,11,4.935,11,11c0,0.846-0.109,1.722-0.324,2.605
	c-0.086,0.355,0.028,0.73,0.3,0.977l5.536,5.022l-8.273,7.504L17.583,24.976z M58.55,48.035L48.035,58.551L33.35,42.359l8.55-9.426
	L58.55,48.035z M46.417,24.976l-5.326,5.872c0,0-0.001,0-0.001,0.001s0,0.001-0.001,0.001L15.965,58.551L5.45,48.035l33.575-30.453
	c0.271-0.246,0.386-0.62,0.3-0.977C39.109,15.721,39,14.844,39,14c0-6.065,4.935-11,11-11c1.066,0,2.113,0.153,3.128,0.458
	l-5.835,5.835c-0.391,0.391-0.391,1.023,0,1.414l6,6c0.391,0.391,1.023,0.391,1.414,0l5.835-5.835C60.846,11.888,61,12.935,61,14
	c0,6.065-4.935,11-11,11c-0.843,0-1.72-0.109-2.606-0.324C47.039,24.586,46.663,24.703,46.417,24.976z"/>
</svg>
