<?xml version="1.0" encoding="utf-8"?>
<!-- Generator: Adobe Illustrator 19.2.1, SVG Export Plug-In . SVG Version: 6.00 Build 0)  -->
<!DOCTYPE svg PUBLIC "-//W3C//DTD SVG 1.1//EN" "http://www.w3.org/Graphics/SVG/1.1/DTD/svg11.dtd">
<svg version="1.1" id="Layer_1" xmlns="http://www.w3.org/2000/svg" xmlns:xlink="http://www.w3.org/1999/xlink" x="0px" y="0px"
	 width="64px" height="64px" viewBox="0 0 64 64" enable-background="new 0 0 64 64" xml:space="preserve">
<path d="M45.637,1C40.283,1,35.283,3.48,32,7.701C28.717,3.48,23.717,1,18.363,1C8.789,1,1,8.882,1,18.571
	C1,35.419,30.122,59.743,31.362,60.77C31.547,60.923,31.773,61,32,61s0.453-0.077,0.638-0.23C33.878,59.743,63,35.419,63,18.571
	C63,8.882,55.211,1,45.637,1z M32,58.688C27.683,54.986,3,33.17,3,18.571C3,9.985,9.892,3,18.363,3
	c5.154,0,9.939,2.604,12.801,6.967c0.369,0.563,1.303,0.563,1.672,0C35.697,5.604,40.482,3,45.637,3C54.108,3,61,9.985,61,18.571
	C61,33.165,36.317,54.985,32,58.688z"/>
</svg>
