<?xml version="1.0" encoding="utf-8"?>
<!-- Generator: Adobe Illustrator 19.2.1, SVG Export Plug-In . SVG Version: 6.00 Build 0)  -->
<!DOCTYPE svg PUBLIC "-//W3C//DTD SVG 1.1//EN" "http://www.w3.org/Graphics/SVG/1.1/DTD/svg11.dtd">
<svg version="1.1" id="Layer_1" xmlns="http://www.w3.org/2000/svg" xmlns:xlink="http://www.w3.org/1999/xlink" x="0px" y="0px"
	 width="64px" height="64px" viewBox="0 0 64 64" enable-background="new 0 0 64 64" xml:space="preserve">
<path fill="#222221" d="M4,25h18c0.553,0,1-0.448,1-1s-0.447-1-1-1H4c-0.553,0-1,0.448-1,1S3.447,25,4,25z"/>
<path fill="#222221" d="M4,41h18c0.553,0,1-0.448,1-1s-0.447-1-1-1H4c-0.553,0-1,0.448-1,1S3.447,41,4,41z"/>
<path fill="#222221" d="M4,57h38c0.553,0,1-0.448,1-1s-0.447-1-1-1H4c-0.553,0-1,0.448-1,1S3.447,57,4,57z"/>
<path fill="#222221" d="M42,7H4C3.447,7,3,7.448,3,8s0.447,1,1,1h38c0.553,0,1-0.448,1-1S42.553,7,42,7z"/>
<path fill="#222221" d="M42,19c-7.168,0-13,5.832-13,13s5.832,13,13,13c3.225,0,6.173-1.187,8.447-3.139l8.846,8.846
	C59.488,50.902,59.744,51,60,51s0.512-0.098,0.707-0.293c0.391-0.391,0.391-1.023,0-1.414l-8.846-8.846
	C53.813,38.173,55,35.225,55,32C55,24.832,49.168,19,42,19z M31,32c0-6.065,4.935-11,11-11s11,4.935,11,11s-4.935,11-11,11
	S31,38.065,31,32z"/>
</svg>
