<?xml version="1.0" encoding="utf-8"?>
<!-- Generator: Adobe Illustrator 19.2.1, SVG Export Plug-In . SVG Version: 6.00 Build 0)  -->
<!DOCTYPE svg PUBLIC "-//W3C//DTD SVG 1.1//EN" "http://www.w3.org/Graphics/SVG/1.1/DTD/svg11.dtd">
<svg version="1.1" id="Layer_1" xmlns="http://www.w3.org/2000/svg" xmlns:xlink="http://www.w3.org/1999/xlink" x="0px" y="0px"
	 width="64px" height="64px" viewBox="0 0 64 64" enable-background="new 0 0 64 64" xml:space="preserve">
<path d="M28,54c0,2.206,1.794,4,4,4s4-1.794,4-4s-1.794-4-4-4S28,51.794,28,54z M32,52c1.103,0,2,0.897,2,2s-0.897,2-2,2
	s-2-0.897-2-2S30.897,52,32,52z"/>
<path d="M33,40V6c0-0.552-0.447-1-1-1s-1,0.448-1,1v34c0,0.552,0.447,1,1,1S33,40.552,33,40z"/>
</svg>
