<?xml version="1.0" encoding="utf-8"?>
<!-- Generator: Adobe Illustrator 19.2.1, SVG Export Plug-In . SVG Version: 6.00 Build 0)  -->
<!DOCTYPE svg PUBLIC "-//W3C//DTD SVG 1.1//EN" "http://www.w3.org/Graphics/SVG/1.1/DTD/svg11.dtd">
<svg version="1.1" id="Layer_1" xmlns="http://www.w3.org/2000/svg" xmlns:xlink="http://www.w3.org/1999/xlink" x="0px" y="0px"
	 width="64px" height="64px" viewBox="0 0 64 64" enable-background="new 0 0 64 64" xml:space="preserve">
<path d="M17.151,31.293c0.391-0.391,0.391-1.023,0-1.414s-1.023-0.391-1.414,0l-5.657,5.656c-2.456,2.455-3.808,5.72-3.808,9.192
	s1.353,6.737,3.808,9.192c2.456,2.455,5.72,3.808,9.192,3.808c3.473,0,6.737-1.353,9.192-3.808l7.071-7.07
	c2.456-2.455,3.808-5.72,3.808-9.192s-1.353-6.737-3.808-9.192c-0.391-0.391-1.023-0.391-1.414,0s-0.391,1.023,0,1.414
	c2.078,2.077,3.222,4.84,3.222,7.778s-1.144,5.7-3.222,7.778l-7.071,7.07c-2.078,2.078-4.84,3.222-7.778,3.222
	c-2.938,0-5.701-1.144-7.778-3.222c-2.078-2.077-3.222-4.84-3.222-7.778s1.144-5.7,3.222-7.778L17.151,31.293z"/>
<path d="M46.849,32.707c-0.391,0.391-0.391,1.023,0,1.414s1.023,0.391,1.414,0l5.657-5.656c2.456-2.455,3.808-5.72,3.808-9.192
	s-1.353-6.737-3.808-9.192c-2.456-2.455-5.72-3.808-9.192-3.808c-3.473,0-6.737,1.353-9.192,3.808l-7.071,7.07
	c-2.456,2.455-3.808,5.72-3.808,9.192s1.353,6.737,3.808,9.192c0.195,0.195,0.451,0.293,0.707,0.293s0.512-0.098,0.707-0.293
	c0.391-0.391,0.391-1.023,0-1.414c-2.078-2.077-3.222-4.84-3.222-7.778s1.144-5.7,3.222-7.778l7.071-7.07
	c2.078-2.078,4.84-3.222,7.778-3.222c2.938,0,5.701,1.144,7.778,3.222c2.078,2.077,3.222,4.84,3.222,7.778s-1.144,5.7-3.222,7.778
	L46.849,32.707z"/>
</svg>
