<?xml version="1.0" encoding="utf-8"?>
<!-- Generator: Adobe Illustrator 19.2.1, SVG Export Plug-In . SVG Version: 6.00 Build 0)  -->
<!DOCTYPE svg PUBLIC "-//W3C//DTD SVG 1.1//EN" "http://www.w3.org/Graphics/SVG/1.1/DTD/svg11.dtd">
<svg version="1.1" id="Layer_1" xmlns="http://www.w3.org/2000/svg" xmlns:xlink="http://www.w3.org/1999/xlink" x="0px" y="0px"
	 width="64px" height="64px" viewBox="0 0 64 64" enable-background="new 0 0 64 64" xml:space="preserve">
<path d="M32,3c-10.477,0-19,8.523-19,19v12c0,9.697-7.698,19.273-7.775,19.369c-0.244,0.299-0.293,0.712-0.127,1.061
	C5.263,54.777,5.614,55,6,55h19.08c0.488,3.386,3.401,6,6.92,6s6.432-2.614,6.92-6H58c0.386,0,0.738-0.223,0.903-0.571
	s0.116-0.761-0.128-1.061C58.697,53.272,51,43.714,51,34V22C51,11.523,42.477,3,32,3z M32,59c-2.414,0-4.434-1.721-4.899-4h9.798
	C36.434,57.279,34.414,59,32,59z M56.008,53H7.992C10.288,49.734,15,42.051,15,34V22c0-9.215,7.785-17,17-17s17,7.785,17,17v12
	C49,42.051,53.712,49.734,56.008,53z"/>
</svg>
