<?xml version="1.0" encoding="utf-8"?>
<!-- Generator: Adobe Illustrator 19.2.1, SVG Export Plug-In . SVG Version: 6.00 Build 0)  -->
<!DOCTYPE svg PUBLIC "-//W3C//DTD SVG 1.1//EN" "http://www.w3.org/Graphics/SVG/1.1/DTD/svg11.dtd">
<svg version="1.1" id="Layer_1" xmlns="http://www.w3.org/2000/svg" xmlns:xlink="http://www.w3.org/1999/xlink" x="0px" y="0px"
	 width="64px" height="64px" viewBox="0 0 64 64" enable-background="new 0 0 64 64" xml:space="preserve">
<path d="M61.503,11.352c-0.337-0.083-0.695,0.02-0.94,0.266l-7.361,7.361l-8.18-8.18l7.361-7.361
	c0.246-0.246,0.347-0.603,0.266-0.941c-0.082-0.338-0.333-0.609-0.665-0.717c-2.598-0.842-5.28-1.006-7.974-0.483
	c-6.342,1.226-11.397,6.306-12.579,12.641c-0.455,2.435-0.356,4.854,0.291,7.203L5.82,43.756c-2.135,1.852-3.416,4.534-3.516,7.359
	c-0.101,2.825,0.989,5.593,2.988,7.592c1.915,1.915,4.534,2.995,7.234,2.995c0.119,0,0.238-0.002,0.357-0.007
	c2.825-0.1,5.508-1.381,7.357-3.514L42.86,32.278c2.344,0.646,4.761,0.744,7.191,0.293c6.333-1.178,11.416-6.227,12.648-12.563
	c0.525-2.7,0.364-5.389-0.479-7.992C62.113,11.685,61.842,11.434,61.503,11.352z M60.737,19.626
	c-1.077,5.538-5.519,9.95-11.051,10.979c-2.322,0.432-4.627,0.29-6.853-0.42c-0.381-0.121-0.796-0.006-1.058,0.295l-23.042,26.39
	c-1.512,1.742-3.614,2.746-5.92,2.828c-2.339,0.065-4.477-0.772-6.107-2.404c-1.632-1.632-2.485-3.801-2.404-6.107
	c0.082-2.306,1.086-4.408,2.83-5.922l26.388-23.04c0.301-0.262,0.417-0.678,0.295-1.058c-0.712-2.228-0.854-4.537-0.418-6.862
	C34.43,8.77,38.847,4.331,44.389,3.259c0.9-0.173,1.798-0.26,2.691-0.26c0.891,0,1.777,0.086,2.654,0.259L42.9,10.092
	c-0.391,0.391-0.391,1.023,0,1.414l9.594,9.594c0.391,0.391,1.023,0.391,1.414,0l6.834-6.834
	C61.089,16.026,61.088,17.823,60.737,19.626z"/>
<path d="M14,47c-1.654,0-3,1.346-3,3s1.346,3,3,3s3-1.346,3-3S15.654,47,14,47z M14,51c-0.552,0-1-0.448-1-1s0.448-1,1-1
	s1,0.448,1,1S14.552,51,14,51z"/>
</svg>
