<?xml version="1.0" encoding="utf-8"?>
<!-- Generator: Adobe Illustrator 19.2.1, SVG Export Plug-In . SVG Version: 6.00 Build 0)  -->
<!DOCTYPE svg PUBLIC "-//W3C//DTD SVG 1.1//EN" "http://www.w3.org/Graphics/SVG/1.1/DTD/svg11.dtd">
<svg version="1.1" id="Layer_1" xmlns="http://www.w3.org/2000/svg" xmlns:xlink="http://www.w3.org/1999/xlink" x="0px" y="0px"
	 width="64px" height="64px" viewBox="0 0 64 64" enable-background="new 0 0 64 64" xml:space="preserve">
<path d="M32,1C14.906,1,1,14.906,1,32s13.906,31,31,31s31-13.906,31-31S49.094,1,32,1z M32,61C16.01,61,3,47.99,3,32S16.01,3,32,3
	s29,13.01,29,29S47.99,61,32,61z"/>
<path d="M48.264,21.394l-5.657-5.657c-0.391-0.391-1.023-0.391-1.414,0L32,24.929l-9.192-9.192c-0.391-0.391-1.023-0.391-1.414,0
	l-5.657,5.657c-0.391,0.391-0.391,1.023,0,1.414L24.929,32l-9.192,9.192c-0.391,0.391-0.391,1.023,0,1.414l5.657,5.657
	c0.391,0.391,1.023,0.391,1.414,0L32,39.071l9.192,9.192c0.195,0.195,0.451,0.293,0.707,0.293s0.512-0.098,0.707-0.293l5.657-5.657
	c0.391-0.391,0.391-1.023,0-1.414L39.071,32l9.192-9.192C48.654,22.417,48.654,21.784,48.264,21.394z M36.95,31.293
	c-0.391,0.391-0.391,1.023,0,1.414l9.192,9.192l-4.243,4.243l-9.192-9.192c-0.195-0.195-0.451-0.293-0.707-0.293
	s-0.512,0.098-0.707,0.293l-9.192,9.192l-4.243-4.243l9.192-9.192c0.391-0.391,0.391-1.023,0-1.414l-9.192-9.192l4.243-4.243
	l9.192,9.192c0.391,0.391,1.023,0.391,1.414,0l9.192-9.192l4.243,4.243L36.95,31.293z"/>
</svg>
