<?xml version="1.0" encoding="utf-8"?>
<!-- Generator: Adobe Illustrator 19.2.1, SVG Export Plug-In . SVG Version: 6.00 Build 0)  -->
<!DOCTYPE svg PUBLIC "-//W3C//DTD SVG 1.1//EN" "http://www.w3.org/Graphics/SVG/1.1/DTD/svg11.dtd">
<svg version="1.1" id="Layer_1" xmlns="http://www.w3.org/2000/svg" xmlns:xlink="http://www.w3.org/1999/xlink" x="0px" y="0px"
	 width="64px" height="64px" viewBox="0 0 64 64" enable-background="new 0 0 64 64" xml:space="preserve">
<path d="M40,9c-10.062,0-18.953,6.593-21.934,16.143C17.38,25.048,16.688,25,16,25C7.729,25,1,31.729,1,40s6.729,15,15,15h26
	c0.192,0,0.372-0.054,0.524-0.148C54.228,53.579,63,43.831,63,32C63,19.318,52.683,9,40,9z M41.91,52.903
	c-0.125,0.011-0.242,0.045-0.349,0.097H16C8.832,53,3,47.168,3,40s5.832-13,13-13c0.86,0,1.729,0.087,2.581,0.258
	c0.513,0.101,1.025-0.212,1.163-0.721C22.207,17.389,30.536,11,40,11c11.579,0,21,9.42,21,21C61,42.935,52.793,51.921,41.91,52.903z
	"/>
</svg>
