<?xml version="1.0" encoding="utf-8"?>
<!-- Generator: Adobe Illustrator 19.2.1, SVG Export Plug-In . SVG Version: 6.00 Build 0)  -->
<!DOCTYPE svg PUBLIC "-//W3C//DTD SVG 1.1//EN" "http://www.w3.org/Graphics/SVG/1.1/DTD/svg11.dtd">
<svg version="1.1" id="Layer_1" xmlns="http://www.w3.org/2000/svg" xmlns:xlink="http://www.w3.org/1999/xlink" x="0px" y="0px"
	 width="64px" height="64px" viewBox="0 0 64 64" enable-background="new 0 0 64 64" xml:space="preserve">
<path fill="#222221" d="M4,61h48c0.553,0,1-0.448,1-1V28c0-0.552-0.447-1-1-1s-1,0.448-1,1v31H5V13h31c0.553,0,1-0.448,1-1
	s-0.447-1-1-1H4c-0.553,0-1,0.448-1,1v48C3,60.552,3.447,61,4,61z"/>
<path fill="#222221" d="M52,21c4.963,0,9-4.038,9-9s-4.037-9-9-9s-9,4.038-9,9S47.037,21,52,21z M52,5c3.859,0,7,3.14,7,7
	s-3.141,7-7,7s-7-3.14-7-7S48.141,5,52,5z"/>
</svg>
