<?xml version="1.0" encoding="utf-8"?>
<!-- Generator: Adobe Illustrator 19.2.1, SVG Export Plug-In . SVG Version: 6.00 Build 0)  -->
<!DOCTYPE svg PUBLIC "-//W3C//DTD SVG 1.1//EN" "http://www.w3.org/Graphics/SVG/1.1/DTD/svg11.dtd">
<svg version="1.1" id="Layer_1" xmlns="http://www.w3.org/2000/svg" xmlns:xlink="http://www.w3.org/1999/xlink" x="0px" y="0px"
	 width="64px" height="64px" viewBox="0 0 64 64" enable-background="new 0 0 64 64" xml:space="preserve">
<path d="M3,44c0,0.359,0.192,0.69,0.504,0.868l28,16C31.657,60.956,31.829,61,32,61s0.343-0.044,0.496-0.132l28-16
	C60.808,44.69,61,44.359,61,44s-0.192-0.69-0.504-0.868L51.516,38l8.981-5.132C60.808,32.69,61,32.359,61,32
	s-0.192-0.69-0.504-0.868L51.515,26l8.981-5.132C60.808,20.69,61,20.359,61,20s-0.192-0.69-0.504-0.868l-28-16
	c-0.307-0.176-0.686-0.176-0.992,0l-28,16C3.192,19.31,3,19.641,3,20s0.192,0.69,0.504,0.868L12.484,26l-8.981,5.132
	C3.192,31.31,3,31.641,3,32s0.192,0.69,0.504,0.868L12.485,38l-8.981,5.132C3.192,43.31,3,43.641,3,44z M32,5.152L57.984,20
	l-9,5.143c-0.041,0.024-0.084,0.04-0.122,0.07L32,34.848l-16.86-9.634c-0.043-0.034-0.092-0.053-0.139-0.08L6.016,20L32,5.152z
	 M14.5,27.151l17.004,9.717C31.657,36.956,31.829,37,32,37s0.343-0.044,0.496-0.132L49.5,27.152L57.984,32l-8.861,5.064
	c-0.105,0.04-0.203,0.092-0.29,0.166L32,46.848L6.016,32L14.5,27.151z M14.5,39.152l17.004,9.716C31.657,48.956,31.829,49,32,49
	s0.343-0.044,0.496-0.132L49.5,39.152L57.984,44L32,58.848L6.016,44L14.5,39.152z"/>
</svg>
