<?xml version="1.0" encoding="utf-8"?>
<!-- Generator: Adobe Illustrator 19.2.1, SVG Export Plug-In . SVG Version: 6.00 Build 0)  -->
<!DOCTYPE svg PUBLIC "-//W3C//DTD SVG 1.1//EN" "http://www.w3.org/Graphics/SVG/1.1/DTD/svg11.dtd">
<svg version="1.1" id="Layer_1" xmlns="http://www.w3.org/2000/svg" xmlns:xlink="http://www.w3.org/1999/xlink" x="0px" y="0px"
	 width="64px" height="64px" viewBox="0 0 64 64" enable-background="new 0 0 64 64" xml:space="preserve">
<path d="M4.124,60.992l16-2c0.055-0.007,0.106-0.031,0.159-0.047c0.041-0.012,0.081-0.018,0.12-0.036
	c0.112-0.05,0.217-0.114,0.304-0.202l39.172-39.172c0.944-0.944,1.464-2.199,1.464-3.535s-0.52-2.591-1.464-3.535l-8.344-8.344
	C50.591,3.177,49.336,2.657,48,2.657s-2.591,0.52-3.535,1.464L5.293,43.293c-0.088,0.088-0.153,0.192-0.202,0.304
	c-0.017,0.039-0.024,0.079-0.036,0.12c-0.016,0.053-0.04,0.103-0.047,0.159l-2,16c-0.038,0.307,0.066,0.613,0.285,0.831
	C3.481,60.896,3.736,61,4,61C4.041,61,4.083,60.997,4.124,60.992z M6.739,46.153l11.108,11.108L5.151,58.849L6.739,46.153z
	 M36,15.414L41.586,21L13,49.586L7.415,44L36,15.414z M42,9.414L54.586,22L50,26.586L37.414,14L42,9.414z M20,56.585L14.414,51
	L43,22.414L48.586,28L20,56.585z M45.879,5.535c1.17-1.17,3.072-1.17,4.242,0l8.344,8.344c1.17,1.17,1.17,3.072,0,4.242L56,20.586
	L43.414,8L45.879,5.535z"/>
</svg>
