<?xml version="1.0" encoding="utf-8"?>
<!-- Generator: Adobe Illustrator 19.2.1, SVG Export Plug-In . SVG Version: 6.00 Build 0)  -->
<!DOCTYPE svg PUBLIC "-//W3C//DTD SVG 1.1//EN" "http://www.w3.org/Graphics/SVG/1.1/DTD/svg11.dtd">
<svg version="1.1" id="Layer_1" xmlns="http://www.w3.org/2000/svg" xmlns:xlink="http://www.w3.org/1999/xlink" x="0px" y="0px"
	 width="64px" height="64px" viewBox="0 0 64 64" enable-background="new 0 0 64 64" xml:space="preserve">
<path d="M15.737,42.606l5.657,5.657c0.391,0.391,1.023,0.391,1.414,0L32,39.071l9.192,9.192c0.195,0.195,0.451,0.293,0.707,0.293
	s0.512-0.098,0.707-0.293l5.657-5.657c0.391-0.391,0.391-1.023,0-1.414L39.071,32l9.192-9.192c0.391-0.391,0.391-1.023,0-1.414
	l-5.657-5.657c-0.391-0.391-1.023-0.391-1.414,0L32,24.929l-9.192-9.192c-0.391-0.391-1.023-0.391-1.414,0l-5.657,5.657
	c-0.391,0.391-0.391,1.023,0,1.414L24.929,32l-9.192,9.192C15.346,41.583,15.346,42.216,15.737,42.606z M27.05,32.707
	c0.391-0.391,0.391-1.023,0-1.414l-9.192-9.192l4.243-4.243l9.192,9.192c0.391,0.391,1.023,0.391,1.414,0l9.192-9.192l4.243,4.243
	l-9.192,9.192c-0.391,0.391-0.391,1.023,0,1.414l9.192,9.192l-4.243,4.243l-9.192-9.192c-0.195-0.195-0.451-0.293-0.707-0.293
	s-0.512,0.098-0.707,0.293l-9.192,9.192l-4.243-4.243L27.05,32.707z"/>
<path d="M62,1H2C1.448,1,1,1.448,1,2v60c0,0.552,0.448,1,1,1h60c0.552,0,1-0.448,1-1V2C63,1.448,62.552,1,62,1z M61,61H3V3h58V61z"
	/>
</svg>
