<?xml version="1.0" encoding="utf-8"?>
<!-- Generator: Adobe Illustrator 19.2.1, SVG Export Plug-In . SVG Version: 6.00 Build 0)  -->
<!DOCTYPE svg PUBLIC "-//W3C//DTD SVG 1.1//EN" "http://www.w3.org/Graphics/SVG/1.1/DTD/svg11.dtd">
<svg version="1.1" id="Layer_1" xmlns="http://www.w3.org/2000/svg" xmlns:xlink="http://www.w3.org/1999/xlink" x="0px" y="0px"
	 width="64px" height="64px" viewBox="0 0 64 64" enable-background="new 0 0 64 64" xml:space="preserve">
<path d="M32,1C14.907,1,1,14.907,1,32s13.907,31,31,31s31-13.907,31-31S49.093,1,32,1z M32,61C16.009,61,3,47.991,3,32
	S16.009,3,32,3s29,13.009,29,29S47.991,61,32,61z"/>
<path d="M50,27H14c-0.552,0-1,0.448-1,1v8c0,0.552,0.448,1,1,1h36c0.552,0,1-0.448,1-1v-8C51,27.448,50.552,27,50,27z M49,35H15v-6
	h34V35z"/>
</svg>
