<?xml version="1.0" encoding="utf-8"?>
<!-- Generator: Adobe Illustrator 19.2.1, SVG Export Plug-In . SVG Version: 6.00 Build 0)  -->
<!DOCTYPE svg PUBLIC "-//W3C//DTD SVG 1.1//EN" "http://www.w3.org/Graphics/SVG/1.1/DTD/svg11.dtd">
<svg version="1.1" id="Layer_1" xmlns="http://www.w3.org/2000/svg" xmlns:xlink="http://www.w3.org/1999/xlink" x="0px" y="0px"
	 width="64px" height="64px" viewBox="0 0 64 64" enable-background="new 0 0 64 64" xml:space="preserve">
<path d="M32,1C14.906,1,1,14.907,1,32s13.906,31,31,31s31-13.907,31-31S49.094,1,32,1z M32,61C16.01,61,3,47.991,3,32S16.01,3,32,3
	s29,13.009,29,29S47.99,61,32,61z"/>
<path d="M40,51h-7V26c0-0.552-0.447-1-1-1h-8c-0.553,0-1,0.448-1,1s0.447,1,1,1h7v24h-7c-0.553,0-1,0.448-1,1s0.447,1,1,1h16
	c0.553,0,1-0.448,1-1S40.553,51,40,51z"/>
<path d="M32,18c2.206,0,4-1.794,4-4s-1.794-4-4-4s-4,1.794-4,4S29.794,18,32,18z M32,12c1.103,0,2,0.897,2,2s-0.897,2-2,2
	s-2-0.897-2-2S30.897,12,32,12z"/>
</svg>
