<?xml version="1.0" encoding="utf-8"?>
<!-- Generator: Adobe Illustrator 19.2.1, SVG Export Plug-In . SVG Version: 6.00 Build 0)  -->
<!DOCTYPE svg PUBLIC "-//W3C//DTD SVG 1.1//EN" "http://www.w3.org/Graphics/SVG/1.1/DTD/svg11.dtd">
<svg version="1.1" id="Layer_1" xmlns="http://www.w3.org/2000/svg" xmlns:xlink="http://www.w3.org/1999/xlink" x="0px" y="0px"
	 width="64px" height="64px" viewBox="0 0 64 64" enable-background="new 0 0 64 64" xml:space="preserve">
<path d="M32,1c-7.168,0-13,5.832-13,13v11h-9c-0.552,0-1,0.448-1,1v36c0,0.552,0.448,1,1,1h44c0.552,0,1-0.448,1-1V26
	c0-0.552-0.448-1-1-1h-9V14C45,6.832,39.168,1,32,1z M21,14c0-6.065,4.935-11,11-11s11,4.935,11,11v11H21V14z M53,61H11V27h42V61z"
	/>
<path d="M32,34c-3.86,0-7,3.14-7,7c0,3.519,2.613,6.432,6,6.92V53c0,0.552,0.448,1,1,1s1-0.448,1-1v-5.08
	c3.387-0.488,6-3.401,6-6.92C39,37.14,35.86,34,32,34z M32,46c-2.757,0-5-2.243-5-5s2.243-5,5-5s5,2.243,5,5S34.757,46,32,46z"/>
</svg>
