<?xml version="1.0" encoding="utf-8"?>
<!-- Generator: Adobe Illustrator 19.2.1, SVG Export Plug-In . SVG Version: 6.00 Build 0)  -->
<!DOCTYPE svg PUBLIC "-//W3C//DTD SVG 1.1//EN" "http://www.w3.org/Graphics/SVG/1.1/DTD/svg11.dtd">
<svg version="1.1" id="Layer_1" xmlns="http://www.w3.org/2000/svg" xmlns:xlink="http://www.w3.org/1999/xlink" x="0px" y="0px"
	 width="64px" height="64px" viewBox="0 0 64 64" enable-background="new 0 0 64 64" xml:space="preserve">
<path d="M59.839,3.013c-1.243,0.203-30.576,5.111-42.546,17.08c-12.641,12.641-6.752,27.073-5.155,30.355l-8.845,8.845
	c-0.391,0.391-0.391,1.023,0,1.414C3.488,60.902,3.744,61,4,61s0.512-0.098,0.707-0.293l8.848-8.848
	c1.681,0.807,6.297,2.73,12.098,2.73c5.527,0,12.121-1.749,18.254-7.882c0.249-0.248,0.348-0.608,0.263-0.949l-2.364-9.454
	l6.982,2.25c0.466,0.148,0.972-0.06,1.196-0.495C56.701,24.985,60.938,4.406,60.98,4.199c0.065-0.322-0.031-0.655-0.259-0.893
	S60.163,2.959,59.839,3.013z M48.588,36.388l-7.881-2.54c-0.345-0.11-0.725-0.025-0.99,0.222c-0.265,0.248-0.375,0.621-0.287,0.973
	l2.662,10.646c-11.04,10.647-23.23,6.418-27.044,4.679l11.659-11.659c0.391-0.391,0.391-1.023,0-1.414s-1.023-0.391-1.414,0
	L13.639,48.947c-1.727-3.845-6.013-16.359,5.068-27.44c10.041-10.04,33.872-15.096,40-16.257
	C57.646,10.025,53.948,25.569,48.588,36.388z"/>
</svg>
