<?xml version="1.0" encoding="utf-8"?>
<!-- Generator: Adobe Illustrator 19.2.1, SVG Export Plug-In . SVG Version: 6.00 Build 0)  -->
<!DOCTYPE svg PUBLIC "-//W3C//DTD SVG 1.1//EN" "http://www.w3.org/Graphics/SVG/1.1/DTD/svg11.dtd">
<svg version="1.1" id="Layer_1" xmlns="http://www.w3.org/2000/svg" xmlns:xlink="http://www.w3.org/1999/xlink" x="0px" y="0px"
	 width="64px" height="64px" viewBox="0 0 64 64" enable-background="new 0 0 64 64" xml:space="preserve">
<path d="M2,63h60c0.553,0,1-0.447,1-1V8c0-0.553-0.447-1-1-1H49V2c0-0.553-0.447-1-1-1s-1,0.447-1,1v5H33V2c0-0.553-0.447-1-1-1
	s-1,0.447-1,1v5H17V2c0-0.553-0.447-1-1-1s-1,0.447-1,1v5H2C1.447,7,1,7.447,1,8v54C1,62.553,1.447,63,2,63z M3,61V23h58v38H3z
	 M15,9v5c0,0.553,0.447,1,1,1s1-0.447,1-1V9h14v5c0,0.553,0.447,1,1,1s1-0.447,1-1V9h14v5c0,0.553,0.447,1,1,1s1-0.447,1-1V9h12v12
	H3V9H15z"/>
</svg>
