<?xml version="1.0" encoding="utf-8"?>
<!-- Generator: Adobe Illustrator 19.2.1, SVG Export Plug-In . SVG Version: 6.00 Build 0)  -->
<!DOCTYPE svg PUBLIC "-//W3C//DTD SVG 1.1//EN" "http://www.w3.org/Graphics/SVG/1.1/DTD/svg11.dtd">
<svg version="1.1" id="Layer_1" xmlns="http://www.w3.org/2000/svg" xmlns:xlink="http://www.w3.org/1999/xlink" x="0px" y="0px"
	 width="64px" height="64px" viewBox="0 0 64 64" enable-background="new 0 0 64 64" xml:space="preserve">
<path d="M32,3c6.065,0,11,4.935,11,11c0,0.552,0.448,1,1,1s1-0.448,1-1c0-7.168-5.832-13-13-13S19,6.832,19,14v11h-9
	c-0.552,0-1,0.448-1,1v36c0,0.552,0.448,1,1,1h44c0.552,0,1-0.448,1-1V26c0-0.552-0.448-1-1-1H44H21V14C21,7.935,25.935,3,32,3z
	 M44,27h9v34H11V27h9H44z"/>
<path d="M31,47.92V53c0,0.552,0.448,1,1,1s1-0.448,1-1v-5.08c3.387-0.488,6-3.401,6-6.92c0-3.86-3.14-7-7-7s-7,3.14-7,7
	C25,44.519,27.613,47.432,31,47.92z M32,36c2.757,0,5,2.243,5,5s-2.243,5-5,5s-5-2.243-5-5S29.243,36,32,36z"/>
</svg>
