<?xml version="1.0" encoding="utf-8"?>
<!-- Generator: Adobe Illustrator 19.2.1, SVG Export Plug-In . SVG Version: 6.00 Build 0)  -->
<!DOCTYPE svg PUBLIC "-//W3C//DTD SVG 1.1//EN" "http://www.w3.org/Graphics/SVG/1.1/DTD/svg11.dtd">
<svg version="1.1" id="Layer_1" xmlns="http://www.w3.org/2000/svg" xmlns:xlink="http://www.w3.org/1999/xlink" x="0px" y="0px"
	 width="64px" height="64px" viewBox="0 0 64 64" enable-background="new 0 0 64 64" xml:space="preserve">
<path d="M52,41c-3.11,0-5.916,1.303-7.919,3.384L33,35.52v-12.57C38.598,22.442,43,17.728,43,12c0-6.065-4.935-11-11-11
	S21,5.935,21,12c0,5.728,4.402,10.442,10,10.949v12.57l-11.081,8.865C17.916,42.303,15.11,41,12,41C5.935,41,1,45.935,1,52
	s4.935,11,11,11s11-4.935,11-11c0-2.238-0.675-4.319-1.828-6.058L32,37.28l10.828,8.662C41.675,47.681,41,49.762,41,52
	c0,6.065,4.935,11,11,11s11-4.935,11-11S58.065,41,52,41z M12,61c-4.962,0-9-4.038-9-9s4.038-9,9-9c2.782,0,5.273,1.27,6.925,3.26
	c0.026,0.047,0.038,0.098,0.073,0.142c0.025,0.031,0.061,0.043,0.088,0.07C20.281,47.999,21,49.915,21,52C21,56.962,16.962,61,12,61
	z M23,12c0-4.962,4.038-9,9-9s9,4.038,9,9s-4.038,9-9,9S23,16.962,23,12z M52,61c-4.962,0-9-4.038-9-9s4.038-9,9-9s9,4.038,9,9
	S56.962,61,52,61z"/>
</svg>
