<?xml version="1.0" encoding="utf-8"?>
<!-- Generator: Adobe Illustrator 19.2.1, SVG Export Plug-In . SVG Version: 6.00 Build 0)  -->
<!DOCTYPE svg PUBLIC "-//W3C//DTD SVG 1.1//EN" "http://www.w3.org/Graphics/SVG/1.1/DTD/svg11.dtd">
<svg version="1.1" id="Layer_1" xmlns="http://www.w3.org/2000/svg" xmlns:xlink="http://www.w3.org/1999/xlink" x="0px" y="0px"
	 width="64px" height="64px" viewBox="0 0 64 64" enable-background="new 0 0 64 64" xml:space="preserve">
<path d="M62,5H2C1.447,5,1,5.447,1,6v40c0,0.553,0.447,1,1,1h19.531l9.7,11.641C31.422,58.868,31.703,59,32,59
	s0.578-0.132,0.769-0.359L42.469,47H62c0.553,0,1-0.447,1-1V6C63,5.447,62.553,5,62,5z M61,45H42c-0.297,0-0.578,0.132-0.769,0.359
	L32,56.438l-9.231-11.078C22.578,45.132,22.297,45,22,45H3V7h58V45z"/>
<path d="M16,21h32c0.553,0,1-0.447,1-1s-0.447-1-1-1H16c-0.553,0-1,0.447-1,1S15.447,21,16,21z"/>
<path d="M16,33h18c0.553,0,1-0.447,1-1s-0.447-1-1-1H16c-0.553,0-1,0.447-1,1S15.447,33,16,33z"/>
</svg>
