<?xml version="1.0" encoding="utf-8"?>
<!-- Generator: Adobe Illustrator 19.2.1, SVG Export Plug-In . SVG Version: 6.00 Build 0)  -->
<!DOCTYPE svg PUBLIC "-//W3C//DTD SVG 1.1//EN" "http://www.w3.org/Graphics/SVG/1.1/DTD/svg11.dtd">
<svg version="1.1" id="Layer_1" xmlns="http://www.w3.org/2000/svg" xmlns:xlink="http://www.w3.org/1999/xlink" x="0px" y="0px"
	 width="64px" height="64px" viewBox="0 0 64 64" enable-background="new 0 0 64 64" xml:space="preserve">
<path d="M53.913,10.087c-0.006-0.006-0.015-0.008-0.021-0.014C48.28,4.47,40.538,1,32,1C14.907,1,1,14.907,1,32
	c0,8.538,3.47,16.28,9.073,21.892c0.006,0.006,0.008,0.015,0.014,0.021s0.015,0.008,0.021,0.014C15.72,59.53,23.462,63,32,63
	c17.093,0,31-13.907,31-31c0-8.538-3.47-16.28-9.073-21.892C53.921,10.102,53.919,10.093,53.913,10.087z M32,3
	c7.636,0,14.588,2.972,19.773,7.813L10.813,51.773C5.972,46.588,3,39.636,3,32C3,16.009,16.009,3,32,3z M32,61
	c-7.636,0-14.588-2.972-19.773-7.813l40.959-40.959C58.028,17.412,61,24.364,61,32C61,47.991,47.991,61,32,61z"/>
</svg>
