<?xml version="1.0" encoding="utf-8"?>
<!-- Generator: Adobe Illustrator 19.2.1, SVG Export Plug-In . SVG Version: 6.00 Build 0)  -->
<!DOCTYPE svg PUBLIC "-//W3C//DTD SVG 1.1//EN" "http://www.w3.org/Graphics/SVG/1.1/DTD/svg11.dtd">
<svg version="1.1" id="Layer_1" xmlns="http://www.w3.org/2000/svg" xmlns:xlink="http://www.w3.org/1999/xlink" x="0px" y="0px"
	 width="64px" height="64px" viewBox="0 0 64 64" enable-background="new 0 0 64 64" xml:space="preserve">
<path d="M60,25H39V4c0-0.553-0.447-1-1-1H26c-0.553,0-1,0.447-1,1v21H4c-0.553,0-1,0.447-1,1v12c0,0.553,0.447,1,1,1h21v21
	c0,0.553,0.447,1,1,1h12c0.553,0,1-0.447,1-1V39h21c0.553,0,1-0.447,1-1V26C61,25.447,60.553,25,60,25z M59,37H38
	c-0.553,0-1,0.447-1,1v21H27V38c0-0.553-0.447-1-1-1H5V27h21c0.553,0,1-0.447,1-1V5h10v21c0,0.553,0.447,1,1,1h21V37z"/>
</svg>
