<?xml version="1.0" encoding="utf-8"?>
<!-- Generator: Adobe Illustrator 19.2.1, SVG Export Plug-In . SVG Version: 6.00 Build 0)  -->
<!DOCTYPE svg PUBLIC "-//W3C//DTD SVG 1.1//EN" "http://www.w3.org/Graphics/SVG/1.1/DTD/svg11.dtd">
<svg version="1.1" id="Layer_1" xmlns="http://www.w3.org/2000/svg" xmlns:xlink="http://www.w3.org/1999/xlink" x="0px" y="0px"
	 width="64px" height="64px" viewBox="0 0 64 64" enable-background="new 0 0 64 64" xml:space="preserve">
<path d="M20.707,25.293c-0.391-0.391-1.023-0.391-1.414,0s-0.391,1.023,0,1.414l10,10C29.488,36.902,29.744,37,30,37
	s0.512-0.098,0.707-0.293l30-30c0.391-0.391,0.391-1.023,0-1.414s-1.023-0.391-1.414,0L30,34.586L20.707,25.293z"/>
<path d="M4,61h52c0.552,0,1-0.448,1-1V28c0-0.552-0.448-1-1-1s-1,0.448-1,1v31H5V9h35c0.552,0,1-0.448,1-1s-0.448-1-1-1H4
	C3.448,7,3,7.448,3,8v52C3,60.552,3.448,61,4,61z"/>
</svg>
