<?xml version="1.0" encoding="utf-8"?>
<!-- Generator: Adobe Illustrator 19.2.1, SVG Export Plug-In . SVG Version: 6.00 Build 0)  -->
<!DOCTYPE svg PUBLIC "-//W3C//DTD SVG 1.1//EN" "http://www.w3.org/Graphics/SVG/1.1/DTD/svg11.dtd">
<svg version="1.1" id="Layer_1" xmlns="http://www.w3.org/2000/svg" xmlns:xlink="http://www.w3.org/1999/xlink" x="0px" y="0px"
	 width="64px" height="64px" viewBox="0 0 64 64" enable-background="new 0 0 64 64" xml:space="preserve">
<path d="M21.257,54.669C21.447,54.88,21.718,55,22,55c0.027,0,0.055-0.001,0.082-0.003c0.312-0.025,0.593-0.195,0.761-0.458
	c15.794-24.73,37.444-37.548,37.661-37.674c0.409-0.239,0.594-0.731,0.445-1.18l-2-6c-0.092-0.276-0.3-0.498-0.569-0.609
	c-0.27-0.109-0.572-0.098-0.833,0.034c-18.333,9.307-32.644,22.68-35.668,25.609l-11.324-7.549
	c-0.397-0.264-0.925-0.212-1.262,0.125l-6,6c-0.376,0.376-0.392,0.98-0.036,1.376L21.257,54.669z M10.127,29.287l11.318,7.545
	c0.399,0.266,0.929,0.211,1.266-0.129c0.149-0.151,14.935-14.992,34.708-25.281l1.38,4.141C54.979,17.961,36.239,30.412,21.87,52.36
	L5.378,34.036L10.127,29.287z"/>
</svg>
