<?xml version="1.0" encoding="utf-8"?>
<!-- Generator: Adobe Illustrator 19.2.1, SVG Export Plug-In . SVG Version: 6.00 Build 0)  -->
<!DOCTYPE svg PUBLIC "-//W3C//DTD SVG 1.1//EN" "http://www.w3.org/Graphics/SVG/1.1/DTD/svg11.dtd">
<svg version="1.1" id="Layer_1" xmlns="http://www.w3.org/2000/svg" xmlns:xlink="http://www.w3.org/1999/xlink" x="0px" y="0px"
	 width="64px" height="64px" viewBox="0 0 64 64" enable-background="new 0 0 64 64" xml:space="preserve">
<path d="M8,63h48c0.552,0,1-0.447,1-1V18c0-0.553-0.448-1-1-1H8c-0.552,0-1,0.447-1,1v44C7,62.553,7.448,63,8,63z M9,19h46v42H9V19z
	"/>
<path d="M14,9c-0.552,0-1,0.447-1,1s0.448,1,1,1h36c0.552,0,1-0.447,1-1s-0.448-1-1-1H14z"/>
<path d="M21,2c0,0.553,0.448,1,1,1h20c0.552,0,1-0.447,1-1s-0.448-1-1-1H22C21.448,1,21,1.447,21,2z"/>
<path d="M42,31c-0.552,0-1,0.447-1,1v3H23v-3c0-0.553-0.448-1-1-1s-1,0.447-1,1v4c0,0.553,0.448,1,1,1h20c0.552,0,1-0.447,1-1v-4
	C43,31.447,42.552,31,42,31z"/>
</svg>
