<?xml version="1.0" encoding="utf-8"?>
<!-- Generator: Adobe Illustrator 19.2.1, SVG Export Plug-In . SVG Version: 6.00 Build 0)  -->
<!DOCTYPE svg PUBLIC "-//W3C//DTD SVG 1.1//EN" "http://www.w3.org/Graphics/SVG/1.1/DTD/svg11.dtd">
<svg version="1.1" id="Layer_1" xmlns="http://www.w3.org/2000/svg" xmlns:xlink="http://www.w3.org/1999/xlink" x="0px" y="0px"
	 width="64px" height="64px" viewBox="0 0 64 64" enable-background="new 0 0 64 64" xml:space="preserve">
<path d="M51,1c-7.5,0-15.123,4.692-19.569,12H18L8,12.998c-3.729,0-7,5.608-7,12.002c0,6.393,3.271,12,7,12h3.709l12.785,21.805
	c1.2,2.047,3.362,3.188,5.579,3.188c1.108,0,2.23-0.285,3.254-0.886c3.07-1.8,4.104-5.762,2.303-8.832L26.672,37h4.759
	C35.877,44.308,43.5,49,51,49c6.729,0,12-10.542,12-24S57.729,1,51,1z M3,25c0-5.54,2.735-10.002,5-10.002l6.497,0.001
	C12.9,17.094,11.909,20.677,11.909,25c0,4.322,0.991,7.905,2.587,10H8C5.735,35,3,30.539,3,25z M33.905,53.287
	c1.242,2.119,0.529,4.854-1.59,6.096c-2.116,1.242-4.852,0.53-6.097-1.59L14.027,37H18h6.354L33.905,53.287z M32.865,35.499
	C32.687,35.19,32.356,35,32,35H18c-2.256,0-4.091-4.486-4.091-10S15.744,15,18,15h14c0.356,0,0.687-0.19,0.865-0.499
	c2.886-4.98,7.334-8.694,12.173-10.422C41.406,8.16,39,15.912,39,25s2.406,16.84,6.039,20.921
	C40.199,44.193,35.751,40.479,32.865,35.499z M41,25c0-3.518,0.401-6.871,1.102-9.856c4.545,0.999,7.988,5.163,7.988,9.856
	c0,4.576-3.412,8.518-8.072,9.502C41.368,31.608,41,28.378,41,25z M51,47c-3.532,0-6.705-4.278-8.489-10.557
	C48.046,35.237,52.09,30.5,52.09,25c0-5.593-4.078-10.559-9.477-11.789C44.414,7.123,47.534,3,51,3c5.421,0,10,10.075,10,22
	S56.421,47,51,47z"/>
</svg>
