<?xml version="1.0" encoding="utf-8"?>
<!-- Generator: Adobe Illustrator 19.2.1, SVG Export Plug-In . SVG Version: 6.00 Build 0)  -->
<!DOCTYPE svg PUBLIC "-//W3C//DTD SVG 1.1//EN" "http://www.w3.org/Graphics/SVG/1.1/DTD/svg11.dtd">
<svg version="1.1" id="Layer_1" xmlns="http://www.w3.org/2000/svg" xmlns:xlink="http://www.w3.org/1999/xlink" x="0px" y="0px"
	 width="64px" height="64px" viewBox="0 0 64 64" enable-background="new 0 0 64 64" xml:space="preserve">
<path d="M60,61c0.256,0,0.512-0.098,0.707-0.293c0.391-0.391,0.391-1.023,0-1.414l-12-12c-0.391-0.391-1.023-0.391-1.414,0
	s-0.391,1.023,0,1.414l12,12C59.488,60.902,59.744,61,60,61z"/>
<path d="M26,51c13.785,0,25-11.215,25-25S39.785,1,26,1S1,12.215,1,26S12.215,51,26,51z M26,3c12.682,0,23,10.318,23,23
	S38.682,49,26,49S3,38.682,3,26S13.318,3,26,3z"/>
<path d="M10.255,22.967C10.339,22.989,10.422,23,10.505,23c0.445,0,0.852-0.3,0.968-0.751c1.361-5.287,5.491-9.416,10.777-10.776
	c0.535-0.138,0.857-0.683,0.719-1.217c-0.137-0.535-0.68-0.858-1.217-0.719c-5.992,1.542-10.673,6.222-12.215,12.214
	C9.398,22.285,9.72,22.83,10.255,22.967z"/>
</svg>
