<?xml version="1.0" encoding="utf-8"?>
<!-- Generator: Adobe Illustrator 19.2.1, SVG Export Plug-In . SVG Version: 6.00 Build 0)  -->
<!DOCTYPE svg PUBLIC "-//W3C//DTD SVG 1.1//EN" "http://www.w3.org/Graphics/SVG/1.1/DTD/svg11.dtd">
<svg version="1.1" id="Layer_1" xmlns="http://www.w3.org/2000/svg" xmlns:xlink="http://www.w3.org/1999/xlink" x="0px" y="0px"
	 width="64px" height="64px" viewBox="0 0 64 64" enable-background="new 0 0 64 64" xml:space="preserve">
<path d="M40,63h18c0.553,0,1-0.448,1-1V24c0-0.311-0.145-0.604-0.391-0.792l-26-20c-0.359-0.276-0.859-0.276-1.219,0l-26,20
	C5.145,23.396,5,23.689,5,24v38c0,0.552,0.447,1,1,1h18c0.553,0,1-0.448,1-1V43h14v19C39,62.552,39.447,63,40,63z M24,41
	c-0.553,0-1,0.448-1,1v19H7V24.492l25-19.23l25,19.23V61H41V42c0-0.552-0.447-1-1-1H24z"/>
</svg>
