<?xml version="1.0" encoding="utf-8"?>
<!-- Generator: Adobe Illustrator 19.2.1, SVG Export Plug-In . SVG Version: 6.00 Build 0)  -->
<!DOCTYPE svg PUBLIC "-//W3C//DTD SVG 1.1//EN" "http://www.w3.org/Graphics/SVG/1.1/DTD/svg11.dtd">
<svg version="1.1" id="Layer_1" xmlns="http://www.w3.org/2000/svg" xmlns:xlink="http://www.w3.org/1999/xlink" x="0px" y="0px"
	 width="64px" height="64px" viewBox="0 0 64 64" enable-background="new 0 0 64 64" xml:space="preserve">
<path d="M19.293,44.707C19.488,44.902,19.744,45,20,45s0.512-0.098,0.707-0.293L32,33.414l11.293,11.293
	C43.488,44.902,43.744,45,44,45s0.512-0.098,0.707-0.293c0.391-0.391,0.391-1.023,0-1.414L33.414,32l11.293-11.293
	c0.391-0.391,0.391-1.023,0-1.414s-1.023-0.391-1.414,0L32,30.586L20.707,19.293c-0.391-0.391-1.023-0.391-1.414,0
	s-0.391,1.023,0,1.414L30.586,32L19.293,43.293C18.902,43.684,18.902,44.316,19.293,44.707z"/>
</svg>
