<?xml version="1.0" encoding="utf-8"?>
<!-- Generator: Adobe Illustrator 19.2.1, SVG Export Plug-In . SVG Version: 6.00 Build 0)  -->
<!DOCTYPE svg PUBLIC "-//W3C//DTD SVG 1.1//EN" "http://www.w3.org/Graphics/SVG/1.1/DTD/svg11.dtd">
<svg version="1.1" id="Layer_1" xmlns="http://www.w3.org/2000/svg" xmlns:xlink="http://www.w3.org/1999/xlink" x="0px" y="0px"
	 width="64px" height="64px" viewBox="0 0 64 64" enable-background="new 0 0 64 64" xml:space="preserve">
<path d="M43.313,38.657c0.266,0,0.52-0.105,0.707-0.293l17.385-17.385c0.391-0.391,0.391-1.023,0-1.414L44.435,2.595
	c-0.391-0.391-1.023-0.391-1.414,0L25.636,19.979c-0.188,0.188-0.293,0.441-0.293,0.707s0.105,0.52,0.293,0.707l4.243,4.242
	c0.391,0.391,1.023,0.391,1.414,0s0.391-1.023,0-1.414l-3.536-3.535L43.728,4.716l15.557,15.557L43.313,36.243l-3.535-3.536
	c-0.391-0.391-1.023-0.391-1.414,0s-0.391,1.023,0,1.414l4.242,4.243C42.794,38.552,43.048,38.657,43.313,38.657z"/>
<path d="M21.394,25.636c-0.188-0.188-0.441-0.293-0.707-0.293s-0.52,0.105-0.707,0.293L2.595,43.021
	c-0.391,0.391-0.391,1.023,0,1.414l16.971,16.971c0.195,0.195,0.451,0.293,0.707,0.293s0.512-0.098,0.707-0.293l17.385-17.385
	c0.188-0.188,0.293-0.441,0.293-0.707s-0.105-0.52-0.293-0.707l-4.243-4.242c-0.391-0.391-1.023-0.391-1.414,0s-0.391,1.023,0,1.414
	l3.536,3.535L20.272,59.284L4.716,43.728l15.971-15.971l3.535,3.536c0.391,0.391,1.023,0.391,1.414,0s0.391-1.023,0-1.414
	L21.394,25.636z"/>
<path d="M22.808,41.192c0.195,0.195,0.451,0.293,0.707,0.293s0.512-0.098,0.707-0.293l16.971-16.971
	c0.391-0.391,0.391-1.023,0-1.414s-1.023-0.391-1.414,0L22.808,39.778C22.417,40.169,22.417,40.802,22.808,41.192z"/>
</svg>
