<?xml version="1.0" encoding="utf-8"?>
<!-- Generator: Adobe Illustrator 19.2.1, SVG Export Plug-In . SVG Version: 6.00 Build 0)  -->
<!DOCTYPE svg PUBLIC "-//W3C//DTD SVG 1.1//EN" "http://www.w3.org/Graphics/SVG/1.1/DTD/svg11.dtd">
<svg version="1.1" id="Layer_1" xmlns="http://www.w3.org/2000/svg" xmlns:xlink="http://www.w3.org/1999/xlink" x="0px" y="0px"
	 width="64px" height="64px" viewBox="0 0 64 64" enable-background="new 0 0 64 64" xml:space="preserve">
<path d="M59.993,3c-0.699,0.005-17.222,0.244-27.319,10.341c-8.875,8.875-6.666,19.824-5.943,22.514l-7.438,7.438
	c-0.391,0.391-0.391,1.023,0,1.414C19.488,44.902,19.744,45,20,45s0.512-0.098,0.707-0.293l7.43-7.43
	c1.052,0.302,3.349,0.842,6.306,0.842c4.577,0,10.721-1.298,16.216-6.793C60.756,21.229,60.995,4.706,61,4.008
	c0.002-0.269-0.104-0.525-0.293-0.715S60.293,3.001,59.993,3z M49.245,29.912c-7.477,7.476-16.023,6.535-19.48,5.737l12.942-12.942
	c0.391-0.391,0.391-1.023,0-1.414s-1.023-0.391-1.414,0L28.376,34.21c-0.753-3.52-1.598-12.145,5.712-19.455
	c8.103-8.103,21.099-9.479,24.866-9.709C58.724,8.813,57.348,21.81,49.245,29.912z"/>
<path d="M59,62V40c0-0.553-0.448-1-1-1s-1,0.447-1,1v21H3V7h21c0.552,0,1-0.447,1-1s-0.448-1-1-1H2C1.448,5,1,5.447,1,6v56
	c0,0.553,0.448,1,1,1h56C58.552,63,59,62.553,59,62z"/>
</svg>
