<?xml version="1.0" encoding="utf-8"?>
<!-- Generator: Adobe Illustrator 19.2.1, SVG Export Plug-In . SVG Version: 6.00 Build 0)  -->
<!DOCTYPE svg PUBLIC "-//W3C//DTD SVG 1.1//EN" "http://www.w3.org/Graphics/SVG/1.1/DTD/svg11.dtd">
<svg version="1.1" id="Layer_1" xmlns="http://www.w3.org/2000/svg" xmlns:xlink="http://www.w3.org/1999/xlink" x="0px" y="0px"
	 width="64px" height="64px" viewBox="0 0 64 64" enable-background="new 0 0 64 64" xml:space="preserve">
<path d="M56,1H8C7.448,1,7,1.447,7,2v8c0,0.247,0.091,0.485,0.257,0.669L25,30.384V60c0,0.369,0.203,0.708,0.528,0.882
	C25.676,60.961,25.838,61,26,61c0.194,0,0.387-0.057,0.555-0.168l12-8C38.833,52.646,39,52.334,39,52V30.384l17.743-19.715
	C56.909,10.485,57,10.247,57,10V2C57,1.447,56.552,1,56,1z M55,9.616L37.257,29.331C37.091,29.515,37,29.753,37,30v21.465l-10,6.667
	V30c0-0.247-0.091-0.485-0.257-0.669L9,9.616V3h46V9.616z"/>
</svg>
