<?xml version="1.0" encoding="utf-8"?>
<!-- Generator: Adobe Illustrator 19.2.1, SVG Export Plug-In . SVG Version: 6.00 Build 0)  -->
<!DOCTYPE svg PUBLIC "-//W3C//DTD SVG 1.1//EN" "http://www.w3.org/Graphics/SVG/1.1/DTD/svg11.dtd">
<svg version="1.1" id="Layer_1" xmlns="http://www.w3.org/2000/svg" xmlns:xlink="http://www.w3.org/1999/xlink" x="0px" y="0px"
	 width="64px" height="64px" viewBox="0 0 64 64" enable-background="new 0 0 64 64" xml:space="preserve">
<path d="M56,25H41v-9c0-5.781-3.474-12.628-10.113-14.528c-0.94-0.271-1.926-0.09-2.7,0.493C27.433,2.533,27,3.401,27,4.347v11.311
	L15,31.085V28c0-0.553-0.448-1-1-1H2c-0.552,0-1,0.447-1,1v33.991c0,0.553,0.448,1,1,1h12c0.552,0,1-0.447,1-1v-4.399l5.286,2.643
	C23.903,62.044,27.954,63,32,63h20c3.947,0,7.306-2.884,7.992-6.902l3-24C62.998,32.057,63,32.015,63,31.974
	C63,28.128,59.86,25,56,25z M13,60.991H3V29h10V60.991z M58.014,55.805C57.499,58.815,54.97,61,52,61H32
	c-3.737,0-7.479-0.884-10.82-2.555L15,55.355V34.344l13.79-17.729C28.926,16.438,29,16.223,29,16V4.347
	c0-0.427,0.245-0.675,0.391-0.784c0.269-0.202,0.614-0.264,0.945-0.169C36.024,5.022,39,10.968,39,16v10c0,0.553,0.448,1,1,1h16
	c2.737,0,4.967,2.199,5,4.914L58.014,55.805z"/>
</svg>
