<?xml version="1.0" encoding="utf-8"?>
<!-- Generator: Adobe Illustrator 19.2.1, SVG Export Plug-In . SVG Version: 6.00 Build 0)  -->
<!DOCTYPE svg PUBLIC "-//W3C//DTD SVG 1.1//EN" "http://www.w3.org/Graphics/SVG/1.1/DTD/svg11.dtd">
<svg version="1.1" id="Layer_1" xmlns="http://www.w3.org/2000/svg" xmlns:xlink="http://www.w3.org/1999/xlink" x="0px" y="0px"
	 width="64px" height="64px" viewBox="0 0 64 64" enable-background="new 0 0 64 64" xml:space="preserve">
<path d="M52.803,29.145C51.398,18.744,42.593,11,32,11c-9.112,0-17.036,5.728-19.908,14.318C5.628,26.678,1,32.336,1,39
	c0,7.296,5.677,13.444,13,14h38c0.03,0,0.06-0.001,0.09-0.004C58.208,52.444,63,47.175,63,41C63,35.079,58.584,30.023,52.803,29.145
	z M51.954,51l-37.878,0.003C7.865,50.529,3,45.256,3,39c0-5.888,4.217-10.86,10.027-11.823c0.375-0.062,0.683-0.332,0.793-0.696
	C16.266,18.417,23.571,13,32,13c9.83,0,17.958,7.37,18.906,17.142c0.046,0.481,0.432,0.861,0.914,0.9C56.968,31.461,61,35.835,61,41
	C61,46.135,57.03,50.519,51.954,51z"/>
</svg>
