<?xml version="1.0" encoding="utf-8"?>
<!-- Generator: Adobe Illustrator 19.2.1, SVG Export Plug-In . SVG Version: 6.00 Build 0)  -->
<!DOCTYPE svg PUBLIC "-//W3C//DTD SVG 1.1//EN" "http://www.w3.org/Graphics/SVG/1.1/DTD/svg11.dtd">
<svg version="1.1" id="Layer_1" xmlns="http://www.w3.org/2000/svg" xmlns:xlink="http://www.w3.org/1999/xlink" x="0px" y="0px"
	 width="64px" height="64px" viewBox="0 0 64 64" enable-background="new 0 0 64 64" xml:space="preserve">
<path d="M32,51c15.53,0,28.279-17.668,28.814-18.42c0.247-0.346,0.247-0.81,0.002-1.157C60.284,30.67,47.61,13,32,13
	C16.309,13,3.71,30.673,3.182,31.425c-0.243,0.346-0.242,0.807,0.002,1.152C3.716,33.33,16.39,51,32,51z M32,15
	c13.049,0,24.429,13.958,26.752,16.999C56.419,35.039,44.995,49,32,49C18.946,49,7.562,35.032,5.245,31.998
	C7.55,28.962,18.864,15,32,15z"/>
<path d="M32,43c6.065,0,11-4.935,11-11s-4.935-11-11-11s-11,4.935-11,11S25.935,43,32,43z M32,23c4.963,0,9,4.038,9,9s-4.037,9-9,9
	s-9-4.038-9-9S27.037,23,32,23z"/>
</svg>
