<?xml version="1.0" encoding="utf-8"?>
<!-- Generator: Adobe Illustrator 19.2.1, SVG Export Plug-In . SVG Version: 6.00 Build 0)  -->
<!DOCTYPE svg PUBLIC "-//W3C//DTD SVG 1.1//EN" "http://www.w3.org/Graphics/SVG/1.1/DTD/svg11.dtd">
<svg version="1.1" id="Layer_1" xmlns="http://www.w3.org/2000/svg" xmlns:xlink="http://www.w3.org/1999/xlink" x="0px" y="0px"
	 width="64px" height="64px" viewBox="0 0 64 64" enable-background="new 0 0 64 64" xml:space="preserve">
<path fill="#222221" d="M60,53H28c-0.552,0-1,0.448-1,1s0.448,1,1,1h32c0.552,0,1-0.448,1-1S60.552,53,60,53z"/>
<path fill="#222221" d="M28,11h32c0.552,0,1-0.448,1-1s-0.448-1-1-1H28c-0.552,0-1,0.448-1,1S27.448,11,28,11z"/>
<path fill="#222221" d="M4.077,32.382c0.051,0.122,0.124,0.233,0.216,0.325l12,12C16.488,44.902,16.744,45,17,45
	s0.512-0.098,0.707-0.293c0.391-0.391,0.391-1.023,0-1.414L7.414,33H56c0.552,0,1-0.448,1-1s-0.448-1-1-1H7.414l10.293-10.293
	c0.391-0.391,0.391-1.023,0-1.414s-1.023-0.391-1.414,0l-12,12c-0.092,0.092-0.165,0.203-0.216,0.325
	C3.976,31.862,3.976,32.138,4.077,32.382z"/>
</svg>
