<?xml version="1.0" encoding="utf-8"?>
<!-- Generator: Adobe Illustrator 19.2.1, SVG Export Plug-In . SVG Version: 6.00 Build 0)  -->
<!DOCTYPE svg PUBLIC "-//W3C//DTD SVG 1.1//EN" "http://www.w3.org/Graphics/SVG/1.1/DTD/svg11.dtd">
<svg version="1.1" id="Layer_1" xmlns="http://www.w3.org/2000/svg" xmlns:xlink="http://www.w3.org/1999/xlink" x="0px" y="0px"
	 width="64px" height="64px" viewBox="0 0 64 64" enable-background="new 0 0 64 64" xml:space="preserve">
<path d="M60.451,25.517c-0.118-0.362-0.431-0.626-0.808-0.681l-18.481-2.685L32.897,5.403c-0.337-0.683-1.457-0.683-1.794,0
	l-8.265,16.748L4.356,24.836c-0.377,0.055-0.69,0.319-0.808,0.681s-0.02,0.759,0.253,1.025l13.374,13.036l-3.157,18.407
	c-0.064,0.375,0.09,0.754,0.398,0.978c0.309,0.225,0.717,0.253,1.053,0.076L32,50.349l16.531,8.691
	c0.146,0.077,0.306,0.115,0.465,0.115c0.207,0,0.414-0.064,0.588-0.191c0.308-0.224,0.462-0.603,0.398-0.978l-3.157-18.407
	l13.374-13.036C60.471,26.276,60.569,25.878,60.451,25.517z M45.052,38.513c-0.235,0.23-0.343,0.561-0.288,0.885l2.904,16.928
	l-15.203-7.993C32.32,48.257,32.16,48.219,32,48.219s-0.32,0.038-0.465,0.115l-15.203,7.993l2.904-16.928
	c0.055-0.324-0.052-0.655-0.288-0.885L6.649,26.524l16.997-2.469c0.326-0.047,0.607-0.252,0.753-0.547L32,8.105l7.601,15.402
	c0.146,0.295,0.427,0.5,0.753,0.547l16.997,2.469L45.052,38.513z"/>
</svg>
