<?xml version="1.0" encoding="utf-8"?>
<!-- Generator: Adobe Illustrator 19.2.1, SVG Export Plug-In . SVG Version: 6.00 Build 0)  -->
<!DOCTYPE svg PUBLIC "-//W3C//DTD SVG 1.1//EN" "http://www.w3.org/Graphics/SVG/1.1/DTD/svg11.dtd">
<svg version="1.1" id="Layer_1" xmlns="http://www.w3.org/2000/svg" xmlns:xlink="http://www.w3.org/1999/xlink" x="0px" y="0px"
	 width="64px" height="64px" viewBox="0 0 64 64" enable-background="new 0 0 64 64" xml:space="preserve">
<path fill="#222221" d="M4,55h32c0.552,0,1-0.448,1-1s-0.448-1-1-1H4c-0.552,0-1,0.448-1,1S3.448,55,4,55z"/>
<path fill="#222221" d="M4,11h32c0.552,0,1-0.448,1-1s-0.448-1-1-1H4c-0.552,0-1,0.448-1,1S3.448,11,4,11z"/>
<path fill="#222221" d="M56.586,31H8c-0.552,0-1,0.448-1,1s0.448,1,1,1h48.586L46.293,43.293c-0.391,0.391-0.391,1.023,0,1.414
	C46.488,44.902,46.744,45,47,45s0.512-0.098,0.707-0.293l12-12c0.092-0.092,0.165-0.203,0.216-0.325c0.101-0.245,0.101-0.52,0-0.764
	c-0.051-0.122-0.124-0.233-0.216-0.325l-12-12c-0.391-0.391-1.023-0.391-1.414,0s-0.391,1.023,0,1.414L56.586,31z"/>
</svg>
