<?xml version="1.0" encoding="utf-8"?>
<!-- Generator: Adobe Illustrator 19.2.1, SVG Export Plug-In . SVG Version: 6.00 Build 0)  -->
<!DOCTYPE svg PUBLIC "-//W3C//DTD SVG 1.1//EN" "http://www.w3.org/Graphics/SVG/1.1/DTD/svg11.dtd">
<svg version="1.1" id="Layer_1" xmlns="http://www.w3.org/2000/svg" xmlns:xlink="http://www.w3.org/1999/xlink" x="0px" y="0px"
	 width="64px" height="64px" viewBox="0 0 64 64" enable-background="new 0 0 64 64" xml:space="preserve">
<path d="M4,33h34c0.552,0,1-0.448,1-1s-0.448-1-1-1H4c-0.552,0-1,0.448-1,1S3.448,33,4,33z"/>
<path d="M4,15h56c0.552,0,1-0.448,1-1s-0.448-1-1-1H4c-0.552,0-1,0.448-1,1S3.448,15,4,15z"/>
<path d="M4,51h56c0.552,0,1-0.448,1-1s-0.448-1-1-1H4c-0.552,0-1,0.448-1,1S3.448,51,4,51z"/>
</svg>
