<?xml version="1.0" encoding="utf-8"?>
<!-- Generator: Adobe Illustrator 19.2.1, SVG Export Plug-In . SVG Version: 6.00 Build 0)  -->
<!DOCTYPE svg PUBLIC "-//W3C//DTD SVG 1.1//EN" "http://www.w3.org/Graphics/SVG/1.1/DTD/svg11.dtd">
<svg version="1.1" id="Layer_1" xmlns="http://www.w3.org/2000/svg" xmlns:xlink="http://www.w3.org/1999/xlink" x="0px" y="0px"
	 width="64px" height="64px" viewBox="0 0 64 64" enable-background="new 0 0 64 64" xml:space="preserve">
<path d="M44.707,19.293c-0.391-0.391-1.023-0.391-1.414,0L32,30.586L20.707,19.293c-0.391-0.391-1.023-0.391-1.414,0
	s-0.391,1.023,0,1.414L30.586,32L19.293,43.293c-0.391,0.391-0.391,1.023,0,1.414C19.488,44.902,19.744,45,20,45
	s0.512-0.098,0.707-0.293L32,33.414l11.293,11.293C43.488,44.902,43.744,45,44,45s0.512-0.098,0.707-0.293
	c0.391-0.391,0.391-1.023,0-1.414L33.414,32l11.293-11.293C45.098,20.316,45.098,19.684,44.707,19.293z"/>
<path d="M32,1C14.907,1,1,14.906,1,32s13.907,31,31,31s31-13.906,31-31S49.093,1,32,1z M32,61C16.009,61,3,47.99,3,32S16.009,3,32,3
	s29,13.01,29,29S47.991,61,32,61z"/>
</svg>
