<?xml version="1.0" encoding="utf-8"?>
<!-- Generator: Adobe Illustrator 19.2.1, SVG Export Plug-In . SVG Version: 6.00 Build 0)  -->
<!DOCTYPE svg PUBLIC "-//W3C//DTD SVG 1.1//EN" "http://www.w3.org/Graphics/SVG/1.1/DTD/svg11.dtd">
<svg version="1.1" id="Layer_1" xmlns="http://www.w3.org/2000/svg" xmlns:xlink="http://www.w3.org/1999/xlink" x="0px" y="0px"
	 width="64px" height="64px" viewBox="0 0 64 64" enable-background="new 0 0 64 64" xml:space="preserve">
<path d="M32,1C14.907,1,1,14.906,1,32s13.907,31,31,31s31-13.906,31-31S49.093,1,32,1z M32,61C16.009,61,3,47.99,3,32S16.009,3,32,3
	s29,13.01,29,29S47.991,61,32,61z"/>
<path d="M32,13c-10.477,0-19,8.523-19,19s8.523,19,19,19s19-8.523,19-19S42.477,13,32,13z M32,49c-9.374,0-17-7.626-17-17
	s7.626-17,17-17s17,7.626,17,17S41.374,49,32,49z"/>
<path d="M32,25c-3.86,0-7,3.141-7,7s3.14,7,7,7s7-3.141,7-7S35.86,25,32,25z M32,37c-2.757,0-5-2.243-5-5s2.243-5,5-5s5,2.243,5,5
	S34.757,37,32,37z"/>
</svg>
