<?xml version="1.0" encoding="utf-8"?>
<!-- Generator: Adobe Illustrator 19.2.1, SVG Export Plug-In . SVG Version: 6.00 Build 0)  -->
<!DOCTYPE svg PUBLIC "-//W3C//DTD SVG 1.1//EN" "http://www.w3.org/Graphics/SVG/1.1/DTD/svg11.dtd">
<svg version="1.1" id="Layer_1" xmlns="http://www.w3.org/2000/svg" xmlns:xlink="http://www.w3.org/1999/xlink" x="0px" y="0px"
	 width="64px" height="64px" viewBox="0 0 64 64" enable-background="new 0 0 64 64" xml:space="preserve">
<path d="M18,33h13v13c0,0.552,0.447,1,1,1s1-0.448,1-1V33h13c0.553,0,1-0.448,1-1s-0.447-1-1-1H33V18c0-0.552-0.447-1-1-1
	s-1,0.448-1,1v13H18c-0.553,0-1,0.448-1,1S17.447,33,18,33z"/>
<path d="M62,1H2C1.447,1,1,1.448,1,2v60c0,0.552,0.447,1,1,1h60c0.553,0,1-0.448,1-1V2C63,1.448,62.553,1,62,1z M61,61H3V3h58V61z"
	/>
</svg>
