<?xml version="1.0" encoding="utf-8"?>
<!-- Generator: Adobe Illustrator 19.2.1, SVG Export Plug-In . SVG Version: 6.00 Build 0)  -->
<!DOCTYPE svg PUBLIC "-//W3C//DTD SVG 1.1//EN" "http://www.w3.org/Graphics/SVG/1.1/DTD/svg11.dtd">
<svg version="1.1" id="Layer_1" xmlns="http://www.w3.org/2000/svg" xmlns:xlink="http://www.w3.org/1999/xlink" x="0px" y="0px"
	 width="64px" height="64px" viewBox="0 0 64 64" enable-background="new 0 0 64 64" xml:space="preserve">
<path d="M26,51c6.534,0,12.487-2.522,16.946-6.641l16.347,16.348C59.488,60.902,59.744,61,60,61s0.512-0.098,0.707-0.293
	c0.391-0.391,0.391-1.023,0-1.414L44.36,42.945C48.478,38.487,51,32.534,51,26C51,12.215,39.785,1,26,1S1,12.215,1,26
	S12.215,51,26,51z M26,3c12.683,0,23,10.318,23,23S38.683,49,26,49S3,38.682,3,26S13.317,3,26,3z"/>
</svg>
