<?xml version="1.0" encoding="utf-8"?>
<!-- Generator: Adobe Illustrator 19.2.1, SVG Export Plug-In . SVG Version: 6.00 Build 0)  -->
<!DOCTYPE svg PUBLIC "-//W3C//DTD SVG 1.1//EN" "http://www.w3.org/Graphics/SVG/1.1/DTD/svg11.dtd">
<svg version="1.1" id="Layer_1" xmlns="http://www.w3.org/2000/svg" xmlns:xlink="http://www.w3.org/1999/xlink" x="0px" y="0px"
	 width="64px" height="64px" viewBox="0 0 64 64" enable-background="new 0 0 64 64" xml:space="preserve">
<path d="M54.707,9.293c-0.391-0.391-1.023-0.391-1.414,0L32,30.586L10.707,9.293c-0.391-0.391-1.023-0.391-1.414,0
	s-0.391,1.023,0,1.414L30.586,32L9.293,53.293c-0.391,0.391-0.391,1.023,0,1.414C9.488,54.902,9.744,55,10,55
	s0.512-0.098,0.707-0.293L32,33.414l21.293,21.293C53.488,54.902,53.744,55,54,55s0.512-0.098,0.707-0.293
	c0.391-0.391,0.391-1.023,0-1.414L33.414,32l21.293-21.293C55.098,10.316,55.098,9.684,54.707,9.293z"/>
</svg>
