<?xml version="1.0" encoding="utf-8"?>
<!-- Generator: Adobe Illustrator 19.2.1, SVG Export Plug-In . SVG Version: 6.00 Build 0)  -->
<!DOCTYPE svg PUBLIC "-//W3C//DTD SVG 1.1//EN" "http://www.w3.org/Graphics/SVG/1.1/DTD/svg11.dtd">
<svg version="1.1" id="Layer_1" xmlns="http://www.w3.org/2000/svg" xmlns:xlink="http://www.w3.org/1999/xlink" x="0px" y="0px"
	 width="64px" height="64px" viewBox="0 0 64 64" enable-background="new 0 0 64 64" xml:space="preserve">
<path d="M31.367,36.774C31.551,36.925,31.775,37,32,37s0.449-0.075,0.633-0.226l22-18c0.427-0.351,0.49-0.98,0.141-1.407
	c-0.35-0.428-0.979-0.489-1.407-0.142L32,34.708L10.633,17.226c-0.428-0.348-1.058-0.286-1.407,0.142
	c-0.35,0.427-0.287,1.057,0.141,1.407L31.367,36.774z"/>
<path d="M62,9H2c-0.552,0-1,0.447-1,1v44c0,0.553,0.448,1,1,1h60c0.552,0,1-0.447,1-1V10C63,9.447,62.552,9,62,9z M61,53H3V11h58V53
	z"/>
<path d="M17.219,33.375l-8,10c-0.345,0.432-0.275,1.061,0.156,1.406C9.56,44.929,9.78,45,10,45c0.293,0,0.584-0.129,0.781-0.375
	l8-10c0.345-0.432,0.275-1.061-0.156-1.406C18.194,32.875,17.564,32.945,17.219,33.375z"/>
<path d="M46.781,33.375c-0.345-0.432-0.975-0.501-1.405-0.156c-0.432,0.346-0.501,0.975-0.156,1.406l8,10
	C53.417,44.872,53.707,45,54,45c0.219,0,0.44-0.071,0.624-0.219c0.432-0.346,0.501-0.975,0.156-1.406L46.781,33.375z"/>
</svg>
