<?xml version="1.0" encoding="utf-8"?>
<!-- Generator: Adobe Illustrator 19.2.1, SVG Export Plug-In . SVG Version: 6.00 Build 0)  -->
<!DOCTYPE svg PUBLIC "-//W3C//DTD SVG 1.1//EN" "http://www.w3.org/Graphics/SVG/1.1/DTD/svg11.dtd">
<svg version="1.1" id="Layer_1" xmlns="http://www.w3.org/2000/svg" xmlns:xlink="http://www.w3.org/1999/xlink" x="0px" y="0px"
	 width="64px" height="64px" viewBox="0 0 64 64" enable-background="new 0 0 64 64" xml:space="preserve">
<path d="M11.655,40.786C18.494,46.16,25.529,49,32,49c6.438,0,13.463-2.84,20.314-8.213c5.133-4.025,8.333-7.995,8.466-8.162
	c0.292-0.365,0.293-0.882,0.002-1.248c-0.133-0.167-3.313-4.138-8.438-8.164C45.506,17.84,38.471,15,32,15
	c-6.504,0-13.55,2.84-20.376,8.214c-5.114,4.027-8.276,7.999-8.408,8.166c-0.288,0.364-0.287,0.879,0.002,1.243
	C3.351,32.79,6.531,36.76,11.655,40.786z M43,28c0,6.065-4.935,11-11,11s-11-4.935-11-11s4.935-11,11-11S43,21.935,43,28z
	 M22.702,18.933C20.415,21.277,19,24.475,19,28c0,7.168,5.832,13,13,13s13-5.832,13-13c0-3.512-1.406-6.698-3.677-9.04
	c8.702,3.545,15.481,10.86,17.369,13.039C56.158,34.909,44.858,47,32,47C19.085,47,7.823,34.903,5.306,31.998
	C7.183,29.816,13.951,22.469,22.702,18.933z"/>
<path d="M32,33c0.553,0,1-0.448,1-1s-0.447-1-1-1c-1.654,0-3-1.346-3-3c0-0.552-0.447-1-1-1s-1,0.448-1,1C27,30.757,29.243,33,32,33
	z"/>
</svg>
