<?xml version="1.0" encoding="utf-8"?>
<!-- Generator: Adobe Illustrator 19.2.1, SVG Export Plug-In . SVG Version: 6.00 Build 0)  -->
<!DOCTYPE svg PUBLIC "-//W3C//DTD SVG 1.1//EN" "http://www.w3.org/Graphics/SVG/1.1/DTD/svg11.dtd">
<svg version="1.1" id="Layer_1" xmlns="http://www.w3.org/2000/svg" xmlns:xlink="http://www.w3.org/1999/xlink" x="0px" y="0px"
	 width="64px" height="64px" viewBox="0 0 64 64" enable-background="new 0 0 64 64" xml:space="preserve">
<path fill="#222221" d="M62,7H49V2c0-0.552-0.447-1-1-1s-1,0.448-1,1v5H33V2c0-0.552-0.447-1-1-1s-1,0.448-1,1v5H17V2
	c0-0.552-0.447-1-1-1s-1,0.448-1,1v5H2C1.447,7,1,7.448,1,8v54c0,0.553,0.447,1,1,1h60c0.553,0,1-0.447,1-1V8
	C63,7.448,62.553,7,62,7z M15,9v5c0,0.552,0.447,1,1,1s1-0.448,1-1V9h14v5c0,0.552,0.447,1,1,1s1-0.448,1-1V9h14v5
	c0,0.552,0.447,1,1,1s1-0.448,1-1V9h12v12H3V9H15z M3,61V23h58v38H3z"/>
<path fill="#222221" d="M40,41h-7v-7c0-0.553-0.447-1-1-1s-1,0.447-1,1v7h-7c-0.553,0-1,0.447-1,1s0.447,1,1,1h7v7
	c0,0.553,0.447,1,1,1s1-0.447,1-1v-7h7c0.553,0,1-0.447,1-1S40.553,41,40,41z"/>
</svg>
