<?xml version="1.0" encoding="utf-8"?>
<!-- Generator: Adobe Illustrator 19.2.1, SVG Export Plug-In . SVG Version: 6.00 Build 0)  -->
<!DOCTYPE svg PUBLIC "-//W3C//DTD SVG 1.1//EN" "http://www.w3.org/Graphics/SVG/1.1/DTD/svg11.dtd">
<svg version="1.1" id="Layer_1" xmlns="http://www.w3.org/2000/svg" xmlns:xlink="http://www.w3.org/1999/xlink" x="0px" y="0px"
	 width="64px" height="64px" viewBox="0 0 64 64" enable-background="new 0 0 64 64" xml:space="preserve">
<path d="M62,1H2C1.447,1,1,1.448,1,2v60c0,0.552,0.447,1,1,1h60c0.553,0,1-0.448,1-1V2C63,1.448,62.553,1,62,1z M61,61H3V3h58V61z"
	/>
<path d="M16,33c0.553,0,1-0.448,1-1V10c0-0.552-0.447-1-1-1s-1,0.448-1,1v22C15,32.552,15.447,33,16,33z"/>
<path d="M10,49h5v5c0,0.552,0.447,1,1,1s1-0.448,1-1v-5h5c0.553,0,1-0.448,1-1v-8c0-0.552-0.447-1-1-1H10c-0.553,0-1,0.448-1,1v8
	C9,48.552,9.447,49,10,49z M11,41h10v6H11V41z"/>
<path d="M32,15c0.553,0,1-0.448,1-1v-4c0-0.552-0.447-1-1-1s-1,0.448-1,1v4C31,14.552,31.447,15,32,15z"/>
<path d="M26,31h5v23c0,0.552,0.447,1,1,1s1-0.448,1-1V31h5c0.553,0,1-0.448,1-1v-8c0-0.552-0.447-1-1-1H26c-0.553,0-1,0.448-1,1v8
	C25,30.552,25.447,31,26,31z M27,23h10v6H27V23z"/>
<path d="M48,33c0.553,0,1-0.448,1-1V10c0-0.552-0.447-1-1-1s-1,0.448-1,1v22C47,32.552,47.447,33,48,33z"/>
<path d="M42,49h5v5c0,0.552,0.447,1,1,1s1-0.448,1-1v-5h5c0.553,0,1-0.448,1-1v-8c0-0.552-0.447-1-1-1H42c-0.553,0-1,0.448-1,1v8
	C41,48.552,41.447,49,42,49z M43,41h10v6H43V41z"/>
</svg>
