<?xml version="1.0" encoding="utf-8"?>
<!-- Generator: Adobe Illustrator 19.2.1, SVG Export Plug-In . SVG Version: 6.00 Build 0)  -->
<!DOCTYPE svg PUBLIC "-//W3C//DTD SVG 1.1//EN" "http://www.w3.org/Graphics/SVG/1.1/DTD/svg11.dtd">
<svg version="1.1" id="Layer_1" xmlns="http://www.w3.org/2000/svg" xmlns:xlink="http://www.w3.org/1999/xlink" x="0px" y="0px"
	 width="64px" height="64px" viewBox="0 0 64 64" enable-background="new 0 0 64 64" xml:space="preserve">
<path d="M62,23h-7v-7c0-0.553-0.448-1-1-1H2c-0.552,0-1,0.447-1,1v32c0,0.553,0.448,1,1,1h52c0.552,0,1-0.447,1-1v-7h7
	c0.552,0,1-0.447,1-1V24C63,23.447,62.552,23,62,23z M53,47H3V17h50V47z M61,39h-6V25h6V39z"/>
<path d="M20,23H10c-0.552,0-1,0.447-1,1v16c0,0.553,0.448,1,1,1h10c0.552,0,1-0.447,1-1V24C21,23.447,20.552,23,20,23z M19,39h-8V25
	h8V39z"/>
</svg>
