<?xml version="1.0" encoding="utf-8"?>
<!-- Generator: Adobe Illustrator 19.2.1, SVG Export Plug-In . SVG Version: 6.00 Build 0)  -->
<!DOCTYPE svg PUBLIC "-//W3C//DTD SVG 1.1//EN" "http://www.w3.org/Graphics/SVG/1.1/DTD/svg11.dtd">
<svg version="1.1" id="Layer_1" xmlns="http://www.w3.org/2000/svg" xmlns:xlink="http://www.w3.org/1999/xlink" x="0px" y="0px"
	 width="64px" height="64px" viewBox="0 0 64 64" enable-background="new 0 0 64 64" xml:space="preserve">
<path d="M62,7H51V2c0-0.553-0.448-1-1-1h-6c-0.552,0-1,0.447-1,1v5H21V2c0-0.553-0.448-1-1-1h-6c-0.552,0-1,0.447-1,1v5H2
	C1.448,7,1,7.447,1,8v54c0,0.553,0.448,1,1,1h60c0.552,0,1-0.447,1-1V8C63,7.447,62.552,7,62,7z M45,3h4v10h-4V3z M15,3h4v10h-4V3z
	 M13,9v5c0,0.553,0.448,1,1,1h6c0.552,0,1-0.447,1-1V9h22v5c0,0.553,0.448,1,1,1h6c0.552,0,1-0.447,1-1V9h10v12H3V9H13z M3,61V23h58
	v38H3z"/>
<path d="M50,31H14c-0.552,0-1,0.447-1,1v20c0,0.553,0.448,1,1,1h24c0.552,0,1-0.447,1-1v-9h11c0.552,0,1-0.447,1-1V32
	C51,31.447,50.552,31,50,31z M26,33h11v8H27v-7C27,33.447,26.552,33,26,33s-1,0.447-1,1v7H15v-8H26z M15,43h10v8H15V43z M27,51v-8
	h10v8H27z M49,41H39v-8h10V41z"/>
</svg>
