<?xml version="1.0" encoding="utf-8"?>
<!-- Generator: Adobe Illustrator 19.2.1, SVG Export Plug-In . SVG Version: 6.00 Build 0)  -->
<!DOCTYPE svg PUBLIC "-//W3C//DTD SVG 1.1//EN" "http://www.w3.org/Graphics/SVG/1.1/DTD/svg11.dtd">
<svg version="1.1" id="Layer_1" xmlns="http://www.w3.org/2000/svg" xmlns:xlink="http://www.w3.org/1999/xlink" x="0px" y="0px"
	 width="64px" height="64px" viewBox="0 0 64 64" enable-background="new 0 0 64 64" xml:space="preserve">
<path d="M60.707,59.293l-12-12c-0.391-0.391-1.023-0.391-1.414,0s-0.391,1.023,0,1.414l12,12C59.488,60.902,59.744,61,60,61
	s0.512-0.098,0.707-0.293C61.098,60.316,61.098,59.684,60.707,59.293z"/>
<path d="M1,26c0,13.785,11.215,25,25,25s25-11.215,25-25S39.785,1,26,1S1,12.215,1,26z M26,3c12.682,0,23,10.318,23,23
	S38.682,49,26,49S3,38.682,3,26S13.318,3,26,3z"/>
<path d="M18,27h16c0.552,0,1-0.448,1-1s-0.448-1-1-1H18c-0.552,0-1,0.448-1,1S17.448,27,18,27z"/>
</svg>
