<?xml version="1.0" encoding="utf-8"?>
<!-- Generator: Adobe Illustrator 19.2.1, SVG Export Plug-In . SVG Version: 6.00 Build 0)  -->
<!DOCTYPE svg PUBLIC "-//W3C//DTD SVG 1.1//EN" "http://www.w3.org/Graphics/SVG/1.1/DTD/svg11.dtd">
<svg version="1.1" id="Layer_1" xmlns="http://www.w3.org/2000/svg" xmlns:xlink="http://www.w3.org/1999/xlink" x="0px" y="0px"
	 width="64px" height="64px" viewBox="0 0 64 64" enable-background="new 0 0 64 64" xml:space="preserve">
<path fill="#222221" d="M2,61h48c0.552,0,1-0.448,1-1v-8c0-0.552-0.448-1-1-1s-1,0.448-1,1v7H3V11h12v5c0,0.552,0.448,1,1,1
	s1-0.448,1-1v-5h18v5c0,0.552,0.448,1,1,1s1-0.448,1-1v-5h12v5c0,0.552,0.448,1,1,1s1-0.448,1-1v-6c0-0.552-0.448-1-1-1H37V4
	c0-0.552-0.448-1-1-1s-1,0.448-1,1v5H17V4c0-0.552-0.448-1-1-1s-1,0.448-1,1v5H2c-0.552,0-1,0.448-1,1v50C1,60.552,1.448,61,2,61z"
	/>
<path fill="#222221" d="M51.293,25.707L58.586,33H29c-0.552,0-1,0.448-1,1s0.448,1,1,1h29.586l-7.293,7.293
	c-0.391,0.391-0.391,1.023,0,1.414C51.488,43.902,51.744,44,52,44s0.512-0.098,0.707-0.293l9-9c0.092-0.092,0.165-0.203,0.216-0.325
	c0.101-0.245,0.101-0.52,0-0.764c-0.051-0.122-0.124-0.233-0.216-0.325l-9-9c-0.391-0.391-1.023-0.391-1.414,0
	S50.902,25.316,51.293,25.707z"/>
</svg>
