<?xml version="1.0" encoding="utf-8"?>
<!-- Generator: Adobe Illustrator 19.2.1, SVG Export Plug-In . SVG Version: 6.00 Build 0)  -->
<!DOCTYPE svg PUBLIC "-//W3C//DTD SVG 1.1//EN" "http://www.w3.org/Graphics/SVG/1.1/DTD/svg11.dtd">
<svg version="1.1" id="Layer_1" xmlns="http://www.w3.org/2000/svg" xmlns:xlink="http://www.w3.org/1999/xlink" x="0px" y="0px"
	 width="32px" height="32px" viewBox="0 0 32 32" enable-background="new 0 0 32 32" xml:space="preserve">
<path d="M23,0H9C8.448,0,8,0.448,8,1v8h16V1C24,0.448,23.552,0,23,0z M13,6h-2V3h2V6z M21,6h-2V3h2V6z"/>
<path d="M6,12v17c0,1.654,1.346,3,3,3h14c1.654,0,3-1.346,3-3V12c0-0.553-0.447-1-1-1H7C6.447,11,6,11.447,6,12z M11,17
	c0-0.553,0.447-1,1-1h8c0.553,0,1,0.447,1,1v6c0,0.553-0.447,1-1,1h-8c-0.553,0-1-0.447-1-1V17z"/>
</svg>
