<?xml version="1.0" encoding="utf-8"?>
<!-- Generator: Adobe Illustrator 19.2.1, SVG Export Plug-In . SVG Version: 6.00 Build 0)  -->
<!DOCTYPE svg PUBLIC "-//W3C//DTD SVG 1.1//EN" "http://www.w3.org/Graphics/SVG/1.1/DTD/svg11.dtd">
<svg version="1.1" id="Layer_1" xmlns="http://www.w3.org/2000/svg" xmlns:xlink="http://www.w3.org/1999/xlink" x="0px" y="0px"
	 width="32px" height="32px" viewBox="0 0 32 32" enable-background="new 0 0 32 32" xml:space="preserve">
<path fill="#222221" d="M1,14h12c0.552,0,1-0.448,1-1V1c0-0.552-0.448-1-1-1H1C0.448,0,0,0.448,0,1v12C0,13.552,0.448,14,1,14z"/>
<path fill="#222221" d="M1,32h4v-2H2v-3H0v4C0,31.552,0.448,32,1,32z"/>
<path fill="#222221" d="M14,19c0-0.552-0.448-1-1-1H9v2h3v3h2V19z"/>
<path fill="#222221" d="M12,30H9v2h4c0.552,0,1-0.448,1-1v-4h-2V30z"/>
<path fill="#222221" d="M2,20h3v-2H1c-0.552,0-1,0.448-1,1v4h2V20z"/>
<path fill="#222221" d="M19,11h5v20h2V11h5c0.379,0,0.725-0.214,0.895-0.553S32.027,9.703,31.8,9.4l-6-8C25.611,1.148,25.315,1,25,1
	s-0.611,0.148-0.8,0.4l-6,8c-0.228,0.303-0.264,0.708-0.095,1.047S18.621,11,19,11z"/>
</svg>
