<?xml version="1.0" encoding="utf-8"?>
<!-- Generator: Adobe Illustrator 19.2.1, SVG Export Plug-In . SVG Version: 6.00 Build 0)  -->
<!DOCTYPE svg PUBLIC "-//W3C//DTD SVG 1.1//EN" "http://www.w3.org/Graphics/SVG/1.1/DTD/svg11.dtd">
<svg version="1.1" id="Layer_1" xmlns="http://www.w3.org/2000/svg" xmlns:xlink="http://www.w3.org/1999/xlink" x="0px" y="0px"
	 width="32px" height="32px" viewBox="0 0 32 32" enable-background="new 0 0 32 32" xml:space="preserve">
<path fill="#222221" d="M8,24c0,0.552,0.448,1,1,1h2v4.5c0,0.828,0.672,1.5,1.5,1.5s1.5-0.672,1.5-1.5V25h4v4.5
	c0,0.828,0.672,1.5,1.5,1.5s1.5-0.672,1.5-1.5V25h2c0.552,0,1-0.448,1-1V11H8V24z"/>
<path fill="#222221" d="M5.5,11C4.672,11,4,11.672,4,12.5v7C4,20.328,4.672,21,5.5,21S7,20.328,7,19.5v-7C7,11.672,6.328,11,5.5,11z
	"/>
<path fill="#222221" d="M26.5,11c-0.828,0-1.5,0.672-1.5,1.5v7c0,0.828,0.672,1.5,1.5,1.5s1.5-0.672,1.5-1.5v-7
	C28,11.672,27.328,11,26.5,11z"/>
<path fill="#222221" d="M20.153,3.172l1.263-1.895c0.153-0.229,0.091-0.54-0.139-0.693c-0.231-0.153-0.542-0.091-0.693,0.139
	l-1.319,1.979C18.267,2.254,17.164,2,16,2s-2.267,0.254-3.265,0.701l-1.319-1.979c-0.153-0.229-0.463-0.292-0.693-0.139
	s-0.292,0.464-0.139,0.693l1.263,1.895C9.543,4.576,8,7.105,8,10h16C24,7.105,22.457,4.576,20.153,3.172z M13,7
	c-0.552,0-1-0.448-1-1c0-0.552,0.448-1,1-1s1,0.448,1,1C14,6.552,13.552,7,13,7z M19,7c-0.552,0-1-0.448-1-1c0-0.552,0.448-1,1-1
	s1,0.448,1,1C20,6.552,19.552,7,19,7z"/>
</svg>
