<?xml version="1.0" encoding="utf-8"?>
<!-- Generator: Adobe Illustrator 19.2.1, SVG Export Plug-In . SVG Version: 6.00 Build 0)  -->
<!DOCTYPE svg PUBLIC "-//W3C//DTD SVG 1.1//EN" "http://www.w3.org/Graphics/SVG/1.1/DTD/svg11.dtd">
<svg version="1.1" id="Layer_1" xmlns="http://www.w3.org/2000/svg" xmlns:xlink="http://www.w3.org/1999/xlink" x="0px" y="0px"
	 width="32px" height="32px" viewBox="0 0 32 32" enable-background="new 0 0 32 32" xml:space="preserve">
<path d="M16.084,31.121c7.166,0,13.53-4.811,15.487-11.729c0.228-0.917,2.049-9.047-4.085-12.113c-1.419-0.68-2.88-1.01-4.466-1.01
	c-2.148,0-4.077,0.61-5.779,1.149c-1.239,0.392-2.31,0.731-3.148,0.731c-0.603,0-1.006-0.179-1.322-0.569
	c-0.181-0.241,0.028-0.937,0.212-1.551c0.333-1.109,0.789-2.628-0.217-3.94c-0.595-0.781-1.573-1.21-2.754-1.21
	c-1.093,0-2.247,0.361-3.178,0.999C2.555,4.891,0,9.811,0,15.037C0,23.906,7.215,31.121,16.084,31.121z M23,10c2.206,0,4,1.794,4,4
	s-1.794,4-4,4s-4-1.794-4-4S20.794,10,23,10z M16,22c1.105,0,2,0.895,2,2c0,1.105-0.895,2-2,2s-2-0.895-2-2
	C14,22.895,14.895,22,16,22z M11,21c0,1.105-0.895,2-2,2s-2-0.895-2-2c0-1.105,0.895-2,2-2S11,19.895,11,21z M7,12
	c1.105,0,2,0.895,2,2c0,1.105-0.895,2-2,2s-2-0.895-2-2C5,12.895,5.895,12,7,12z"/>
</svg>
