<?xml version="1.0" encoding="utf-8"?>
<!-- Generator: Adobe Illustrator 19.2.1, SVG Export Plug-In . SVG Version: 6.00 Build 0)  -->
<!DOCTYPE svg PUBLIC "-//W3C//DTD SVG 1.1//EN" "http://www.w3.org/Graphics/SVG/1.1/DTD/svg11.dtd">
<svg version="1.1" id="Layer_1" xmlns="http://www.w3.org/2000/svg" xmlns:xlink="http://www.w3.org/1999/xlink" x="0px" y="0px"
	 width="32px" height="32px" viewBox="0 0 32 32" enable-background="new 0 0 32 32" xml:space="preserve">
<path d="M13,7h17c0.553,0,1-0.447,1-1V4c0-0.553-0.447-1-1-1H13c-0.553,0-1,0.447-1,1v2C12,6.553,12.447,7,13,7z"/>
<path d="M12,17c0,0.553,0.447,1,1,1h17c0.553,0,1-0.447,1-1v-2c0-0.553-0.447-1-1-1H13c-0.553,0-1,0.447-1,1V17z"/>
<path d="M12,28c0,0.553,0.447,1,1,1h17c0.553,0,1-0.447,1-1v-2c0-0.553-0.447-1-1-1H13c-0.553,0-1,0.447-1,1V28z"/>
<path d="M2,9h6c0.553,0,1-0.447,1-1V2c0-0.553-0.447-1-1-1H2C1.447,1,1,1.447,1,2v6C1,8.553,1.447,9,2,9z"/>
<path d="M1,19c0,0.553,0.447,1,1,1h6c0.553,0,1-0.447,1-1v-6c0-0.553-0.447-1-1-1H2c-0.553,0-1,0.447-1,1V19z"/>
<path d="M1,30c0,0.553,0.447,1,1,1h6c0.553,0,1-0.447,1-1v-6c0-0.553-0.447-1-1-1H2c-0.553,0-1,0.447-1,1V30z"/>
</svg>
