<?xml version="1.0" encoding="utf-8"?>
<!-- Generator: Adobe Illustrator 19.2.1, SVG Export Plug-In . SVG Version: 6.00 Build 0)  -->
<!DOCTYPE svg PUBLIC "-//W3C//DTD SVG 1.1//EN" "http://www.w3.org/Graphics/SVG/1.1/DTD/svg11.dtd">
<svg version="1.1" id="Layer_1" xmlns="http://www.w3.org/2000/svg" xmlns:xlink="http://www.w3.org/1999/xlink" x="0px" y="0px"
	 width="32px" height="32px" viewBox="0 0 32 32" enable-background="new 0 0 32 32" xml:space="preserve">
<path d="M7,26h18c0.553,0,1-0.448,1-1V7c0-0.552-0.447-1-1-1H7C6.447,6,6,6.448,6,7v18C6,25.552,6.447,26,7,26z"/>
<rect y="6" width="4" height="2"/>
<rect x="6" width="2" height="4"/>
<rect x="28" y="6" width="4" height="2"/>
<rect x="24" width="2" height="4"/>
<rect y="24" width="4" height="2"/>
<rect x="6" y="28" width="2" height="4"/>
<rect x="28" y="24" width="4" height="2"/>
<rect x="24" y="28" width="2" height="4"/>
</svg>
