<?xml version="1.0" encoding="utf-8"?>
<!-- Generator: Adobe Illustrator 19.2.1, SVG Export Plug-In . SVG Version: 6.00 Build 0)  -->
<!DOCTYPE svg PUBLIC "-//W3C//DTD SVG 1.1//EN" "http://www.w3.org/Graphics/SVG/1.1/DTD/svg11.dtd">
<svg version="1.1" id="Layer_1" xmlns="http://www.w3.org/2000/svg" xmlns:xlink="http://www.w3.org/1999/xlink" x="0px" y="0px"
	 width="32px" height="32px" viewBox="0 0 32 32" enable-background="new 0 0 32 32" xml:space="preserve">
<path d="M6,16.586L15.414,26L26,15.414L16.586,6L6,16.586z M12,17c-0.552,0-1-0.448-1-1c0-0.552,0.448-1,1-1s1,0.448,1,1
	C13,16.552,12.552,17,12,17z M16,21c-0.552,0-1-0.448-1-1c0-0.552,0.448-1,1-1s1,0.448,1,1C17,20.552,16.552,21,16,21z M20,15
	c0.552,0,1,0.448,1,1c0,0.552-0.448,1-1,1s-1-0.448-1-1C19,15.448,19.448,15,20,15z M17,12c0,0.552-0.448,1-1,1s-1-0.448-1-1
	c0-0.552,0.448-1,1-1S17,11.448,17,12z"/>
<path d="M30.707,10.707c0.391-0.391,0.391-1.023,0-1.414l-8-8c-0.391-0.391-1.023-0.391-1.414,0L18,4.586L27.414,14L30.707,10.707z"
	/>
<path d="M1.293,21.293c-0.391,0.391-0.391,1.023,0,1.414l8,8C9.488,30.902,9.744,31,10,31s0.512-0.098,0.707-0.293L14,27.414
	L4.586,18L1.293,21.293z"/>
</svg>
