<?xml version="1.0" encoding="utf-8"?>
<!-- Generator: Adobe Illustrator 19.2.1, SVG Export Plug-In . SVG Version: 6.00 Build 0)  -->
<!DOCTYPE svg PUBLIC "-//W3C//DTD SVG 1.1//EN" "http://www.w3.org/Graphics/SVG/1.1/DTD/svg11.dtd">
<svg version="1.1" id="Layer_1" xmlns="http://www.w3.org/2000/svg" xmlns:xlink="http://www.w3.org/1999/xlink" x="0px" y="0px"
	 width="32px" height="32px" viewBox="0 0 32 32" enable-background="new 0 0 32 32" xml:space="preserve">
<path d="M16,16l4-1L31.379,3.621c0.828-0.828,0.828-2.172,0-3v0c-0.828-0.828-2.172-0.828-3,0L26,3H1C0.448,3,0,3.448,0,4v25
	c0,0.552,0.448,1,1,1h30c0.552,0,1-0.448,1-1V5.828l-4,4V23c0,0.552-0.448,1-1,1H10c-0.552,0-1-0.448-1-1V9c0-0.552,0.448-1,1-1h11
	l-4,4L16,16z M3,8h2v4H3V8z M5,24H3v-4h2V24z M4,18c-1.103,0-2-0.897-2-2s0.897-2,2-2s2,0.897,2,2S5.103,18,4,18z"/>
</svg>
