<?xml version="1.0" encoding="utf-8"?>
<!-- Generator: Adobe Illustrator 19.2.1, SVG Export Plug-In . SVG Version: 6.00 Build 0)  -->
<!DOCTYPE svg PUBLIC "-//W3C//DTD SVG 1.1//EN" "http://www.w3.org/Graphics/SVG/1.1/DTD/svg11.dtd">
<svg version="1.1" id="Layer_1" xmlns="http://www.w3.org/2000/svg" xmlns:xlink="http://www.w3.org/1999/xlink" x="0px" y="0px"
	 width="32px" height="32px" viewBox="0 0 32 32" enable-background="new 0 0 32 32" xml:space="preserve">
<path fill="#222221" d="M26.664,4.073c-4.104-2-7.929-0.6-9.195,0.273C21.5,5.231,24.546,10.105,24.546,16
	S21.5,26.769,17.469,27.654c1.266,0.873,5.091,2.273,9.195,0.273C29.938,24.997,32,20.74,32,16v0v0v0
	C32,11.26,29.938,7.003,26.664,4.073z"/>
<path fill="#222221" d="M16,0C7.164,0,0,7.163,0,16c0,8.581,6.755,15.584,15.238,15.982C15.491,31.993,15.745,32,16,32
	c4.096,0,7.832-1.54,10.663-4.072c-1.875,1.244-4.068,1.959-6.412,1.959c-3.81,0-7.222-1.89-9.518-4.871
	c-1.769-2.088-2.915-5.175-2.993-8.64c0-0.009,0-0.745,0-0.754c0.078-3.464,1.224-6.552,2.992-8.64
	c2.295-2.981,5.708-4.871,9.518-4.871c2.344,0,4.537,0.716,6.413,1.96c-2.816-2.52-6.53-4.057-10.603-4.072
	C16.04,0.001,16.02,0,16,0z"/>
</svg>
