<?xml version="1.0" encoding="utf-8"?>
<!-- Generator: Adobe Illustrator 19.2.1, SVG Export Plug-In . SVG Version: 6.00 Build 0)  -->
<!DOCTYPE svg PUBLIC "-//W3C//DTD SVG 1.1//EN" "http://www.w3.org/Graphics/SVG/1.1/DTD/svg11.dtd">
<svg version="1.1" id="Layer_1" xmlns="http://www.w3.org/2000/svg" xmlns:xlink="http://www.w3.org/1999/xlink" x="0px" y="0px"
	 width="32px" height="32px" viewBox="0 0 32 32" enable-background="new 0 0 32 32" xml:space="preserve">
<path fill="#222221" d="M27.501,0.008c-3.69,0-8.302,3.36-8.302,3.36S13.697,1.886,8.196,5.213C2.2,9.035,2.398,15.821,2.398,15.821
	C7.273,8.837,14.06,6.004,14.06,6.004v0.461C4.045,13.314,1.673,23.332,1.08,25.375C0.487,27.417,0.882,32,5.099,32
	s8.5-3.397,8.5-3.397s0.922,0.198,3.426,0.198c10.542,0,13.046-9.29,13.046-9.29h-9.356c0,0-0.659,3.031-4.019,3.031
	c-4.612,0-4.349-4.81-4.349-4.81h17.856c0.857-12.387-9.949-14.166-9.949-14.166s3.819-2.701,7.116-2.701
	c5.226,0,2.755,6.122,2.755,6.122l0.167,0.167C33.252-0.529,27.501,0.008,27.501,0.008z M13.076,28.466c0,0-6.435,3.905-9.324,1.199
	c-1.547-2.706,0.967-6.538,0.967-6.538S6.847,27.073,13.076,28.466z M20.816,13.516h-8.492c0,0-0.108-4.138,4.353-4.138
	C20.985,9.378,20.816,13.516,20.816,13.516z"/>
</svg>
