<?xml version="1.0" encoding="utf-8"?>
<!-- Generator: Adobe Illustrator 19.2.1, SVG Export Plug-In . SVG Version: 6.00 Build 0)  -->
<!DOCTYPE svg PUBLIC "-//W3C//DTD SVG 1.1//EN" "http://www.w3.org/Graphics/SVG/1.1/DTD/svg11.dtd">
<svg version="1.1" id="Layer_1" xmlns="http://www.w3.org/2000/svg" xmlns:xlink="http://www.w3.org/1999/xlink" x="0px" y="0px"
	 width="32px" height="32px" viewBox="0 0 32 32" enable-background="new 0 0 32 32" xml:space="preserve">
<path d="M2,5v26c0,0.552,0.447,1,1,1h26c0.553,0,1-0.448,1-1V5c0-0.552-0.447-1-1-1h-4v3h2v22H5V7h2V4H3C2.447,4,2,4.448,2,5z"/>
<path d="M23,4h-3c0-2.209-1.791-4-4-4s-4,1.791-4,4H9v5h14V4z"/>
<path d="M12,17.586L10.586,19l3.707,3.707C14.488,22.902,14.744,23,15,23s0.512-0.098,0.707-0.293L22.414,16L21,14.586l-6,6
	L12,17.586z"/>
</svg>
