<?xml version="1.0" encoding="utf-8"?>
<!-- Generator: Adobe Illustrator 19.2.1, SVG Export Plug-In . SVG Version: 6.00 Build 0)  -->
<!DOCTYPE svg PUBLIC "-//W3C//DTD SVG 1.1//EN" "http://www.w3.org/Graphics/SVG/1.1/DTD/svg11.dtd">
<svg version="1.1" id="Layer_1" xmlns="http://www.w3.org/2000/svg" xmlns:xlink="http://www.w3.org/1999/xlink" x="0px" y="0px"
	 width="32px" height="32px" viewBox="0 0 32 32" enable-background="new 0 0 32 32" xml:space="preserve">
<path d="M30.707,10.293l-9-9c-0.391-0.391-1.023-0.391-1.414,0l-19,19c-0.391,0.391-0.391,1.023,0,1.414L8.586,29H3
	c-0.552,0-1,0.448-1,1s0.448,1,1,1h26c0.552,0,1-0.448,1-1s-0.448-1-1-1H13.414l17.293-17.293
	C31.098,11.316,31.098,10.684,30.707,10.293z M11,28.586L3.414,21L12,12.414L19.586,20L11,28.586z"/>
</svg>
