<?xml version="1.0" encoding="utf-8"?>
<!-- Generator: Adobe Illustrator 19.2.1, SVG Export Plug-In . SVG Version: 6.00 Build 0)  -->
<!DOCTYPE svg PUBLIC "-//W3C//DTD SVG 1.1//EN" "http://www.w3.org/Graphics/SVG/1.1/DTD/svg11.dtd">
<svg version="1.1" id="Layer_1" xmlns="http://www.w3.org/2000/svg" xmlns:xlink="http://www.w3.org/1999/xlink" x="0px" y="0px"
	 width="32px" height="32px" viewBox="0 0 32 32" enable-background="new 0 0 32 32" xml:space="preserve">
<path d="M1,9h1.586c0.265,0,0.52-0.105,0.707-0.293L6,6h7v20l-2.707,2.293C10.105,28.481,10,28.735,10,29v2h12v-2
	c0-0.265-0.105-0.519-0.293-0.707L19,26V6h7l1.703,2.555C27.889,8.833,28.201,9,28.535,9H31V2c0-0.552-0.448-1-1-1H2
	C1.448,1,1,1.448,1,2V9z"/>
</svg>
