<?xml version="1.0" encoding="utf-8"?>
<!-- Generator: Adobe Illustrator 19.2.1, SVG Export Plug-In . SVG Version: 6.00 Build 0)  -->
<!DOCTYPE svg PUBLIC "-//W3C//DTD SVG 1.1//EN" "http://www.w3.org/Graphics/SVG/1.1/DTD/svg11.dtd">
<svg version="1.1" id="Layer_1" xmlns="http://www.w3.org/2000/svg" xmlns:xlink="http://www.w3.org/1999/xlink" x="0px" y="0px"
	 width="32px" height="32px" viewBox="0 0 32 32" enable-background="new 0 0 32 32" xml:space="preserve">
<rect x="14" y="14" width="8" height="2"/>
<rect x="14" y="18" width="5" height="2"/>
<path d="M27,1H4C2.895,1,2,1.895,2,3v27c0,1.105,0.895,2,2,2h23c1.105,0,2-0.895,2-2V3C29,1.895,28.105,1,27,1z M6.5,25
	C5.672,25,5,24.328,5,23.5S5.672,22,6.5,22S8,22.672,8,23.5S7.328,25,6.5,25z M6.5,18C5.672,18,5,17.328,5,16.5S5.672,15,6.5,15
	S8,15.672,8,16.5S7.328,18,6.5,18z M6.5,11C5.672,11,5,10.328,5,9.5S5.672,8,6.5,8S8,8.672,8,9.5S7.328,11,6.5,11z M24,23H12V11h12
	V23z"/>
</svg>
