<?xml version="1.0" encoding="utf-8"?>
<!-- Generator: Adobe Illustrator 19.2.1, SVG Export Plug-In . SVG Version: 6.00 Build 0)  -->
<!DOCTYPE svg PUBLIC "-//W3C//DTD SVG 1.1//EN" "http://www.w3.org/Graphics/SVG/1.1/DTD/svg11.dtd">
<svg version="1.1" id="Layer_1" xmlns="http://www.w3.org/2000/svg" xmlns:xlink="http://www.w3.org/1999/xlink" x="0px" y="0px"
	 width="32px" height="32px" viewBox="0 0 32 32" enable-background="new 0 0 32 32" xml:space="preserve">
<path fill="#222221" d="M16,31c0.088,0,0.177-0.012,0.263-0.035l11-3c0.407-0.111,0.7-0.465,0.733-0.885l2-25
	c0.022-0.278-0.073-0.554-0.262-0.759C29.545,1.116,29.279,1,29,1H3C2.721,1,2.455,1.116,2.265,1.321
	C2.076,1.526,1.981,1.802,2.003,2.08l2,25c0.033,0.42,0.327,0.773,0.733,0.885l11,3C15.823,30.988,15.912,31,16,31z M9.684,22.948
	C9.275,22.812,9,22.431,9,22v-3h2v2.279l5,1.667l5.051-1.685L21.437,16H10c-0.552,0-1-0.447-1-1v-1c0-0.414,0.255-0.785,0.641-0.934
	L20.214,9H9V7h14c0.552,0,1,0.447,1,1v1c0,0.414-0.255,0.785-0.641,0.934L12.786,14h9.728c0.278,0,0.543,0.115,0.732,0.319
	c0.189,0.203,0.285,0.477,0.265,0.754l-0.513,7c-0.03,0.402-0.298,0.748-0.681,0.875l-6,2C16.213,24.982,16.107,25,16,25
	s-0.213-0.018-0.316-0.052L9.684,22.948z"/>
</svg>
