<?xml version="1.0" encoding="utf-8"?>
<!-- Generator: Adobe Illustrator 19.2.1, SVG Export Plug-In . SVG Version: 6.00 Build 0)  -->
<!DOCTYPE svg PUBLIC "-//W3C//DTD SVG 1.1//EN" "http://www.w3.org/Graphics/SVG/1.1/DTD/svg11.dtd">
<svg version="1.1" id="Layer_1" xmlns="http://www.w3.org/2000/svg" xmlns:xlink="http://www.w3.org/1999/xlink" x="0px" y="0px"
	 width="32px" height="32px" viewBox="0 0 32 32" enable-background="new 0 0 32 32" xml:space="preserve">
<circle cx="16" cy="10" r="9"/>
<path d="M17.99,20.81C17.344,20.929,16.68,21,16,21c-5.107,0-9.4-3.504-10.633-8.23C2.208,14.167,0,17.323,0,21c0,4.971,4.029,9,9,9
	c4.971,0,9-4.029,9-9C18,20.936,17.992,20.874,17.99,20.81z"/>
<path d="M26.633,12.77c-0.895,3.431-3.402,6.21-6.667,7.479C19.983,20.497,20,20.747,20,21c0,2.685-0.97,5.146-2.574,7.058
	C18.96,29.27,20.893,30,23,30c4.971,0,9-4.029,9-9C32,17.323,29.792,14.167,26.633,12.77z"/>
</svg>
