<?xml version="1.0" encoding="utf-8"?>
<!-- Generator: Adobe Illustrator 19.2.1, SVG Export Plug-In . SVG Version: 6.00 Build 0)  -->
<!DOCTYPE svg PUBLIC "-//W3C//DTD SVG 1.1//EN" "http://www.w3.org/Graphics/SVG/1.1/DTD/svg11.dtd">
<svg version="1.1" id="Layer_1" xmlns="http://www.w3.org/2000/svg" xmlns:xlink="http://www.w3.org/1999/xlink" x="0px" y="0px"
	 width="32px" height="32px" viewBox="0 0 32 32" enable-background="new 0 0 32 32" xml:space="preserve">
<path fill="#222221" d="M1,32h12c0.552,0,1-0.448,1-1V19c0-0.552-0.448-1-1-1H1c-0.552,0-1,0.448-1,1v12C0,31.552,0.448,32,1,32z"/>
<path fill="#222221" d="M2,2h3V0H1C0.448,0,0,0.448,0,1v4h2V2z"/>
<path fill="#222221" d="M14,13V9h-2v3H9v2h4C13.552,14,14,13.552,14,13z"/>
<path fill="#222221" d="M12,5h2V1c0-0.552-0.448-1-1-1H9v2h3V5z"/>
<path fill="#222221" d="M1,14h4v-2H2V9H0v4C0,13.552,0.448,14,1,14z"/>
<path fill="#222221" d="M24.2,30.6c0.188,0.252,0.485,0.4,0.8,0.4s0.611-0.148,0.8-0.4l6-8c0.228-0.303,0.264-0.708,0.095-1.047
	S31.379,21,31,21h-5V1h-2v20h-5c-0.379,0-0.725,0.214-0.895,0.553S17.973,22.297,18.2,22.6L24.2,30.6z"/>
</svg>
