<?xml version="1.0" encoding="utf-8"?>
<!-- Generator: Adobe Illustrator 19.2.1, SVG Export Plug-In . SVG Version: 6.00 Build 0)  -->
<!DOCTYPE svg PUBLIC "-//W3C//DTD SVG 1.1//EN" "http://www.w3.org/Graphics/SVG/1.1/DTD/svg11.dtd">
<svg version="1.1" id="Layer_1" xmlns="http://www.w3.org/2000/svg" xmlns:xlink="http://www.w3.org/1999/xlink" x="0px" y="0px"
	 width="32px" height="32px" viewBox="0 0 32 32" enable-background="new 0 0 32 32" xml:space="preserve">
<path d="M14,6c0-0.552-0.448-1-1-1H9C8.448,5,8,5.448,8,6v3h6V6z"/>
<path d="M28,7h-4c-0.552,0-1,0.448-1,1s0.448,1,1,1h4c0.552,0,1-0.448,1-1S28.552,7,28,7z"/>
<path d="M24.364,0.293l-2.828,2.828c-0.391,0.391-0.391,1.024,0,1.414s1.024,0.391,1.414,0l2.828-2.828
	c0.391-0.391,0.391-1.024,0-1.414S24.754-0.098,24.364,0.293z"/>
<path d="M21.536,12.879l2.828,2.828c0.391,0.391,1.024,0.391,1.414,0s0.391-1.024,0-1.414l-2.828-2.828
	c-0.391-0.391-1.024-0.391-1.414,0S21.145,12.488,21.536,12.879z"/>
<path d="M3,17v14c0,0.552,0.448,1,1,1h14c0.552,0,1-0.448,1-1V17c0-3.314-2.686-6-6-6H9C5.686,11,3,13.686,3,17z"/>
</svg>
