<?xml version="1.0" encoding="utf-8"?>
<!-- Generator: Adobe Illustrator 19.2.1, SVG Export Plug-In . SVG Version: 6.00 Build 0)  -->
<!DOCTYPE svg PUBLIC "-//W3C//DTD SVG 1.1//EN" "http://www.w3.org/Graphics/SVG/1.1/DTD/svg11.dtd">
<svg version="1.1" id="Layer_1" xmlns="http://www.w3.org/2000/svg" xmlns:xlink="http://www.w3.org/1999/xlink" x="0px" y="0px"
	 width="32px" height="32px" viewBox="0 0 32 32" enable-background="new 0 0 32 32" xml:space="preserve">
<path fill="#222221" d="M3,1C2.448,1,2,1.448,2,2v16c0,0.552,0.448,1,1,1h11c0.552,0,1-0.448,1-1V2c0-0.552-0.448-1-1-1H3z"/>
<path fill="#222221" d="M2,30c0,0.552,0.448,1,1,1h11c0.552,0,1-0.448,1-1v-8c0-0.552-0.448-1-1-1H3c-0.552,0-1,0.448-1,1V30z"/>
<path fill="#222221" d="M17,2v8c0,0.552,0.448,1,1,1h11c0.552,0,1-0.448,1-1V2c0-0.552-0.448-1-1-1H18C17.448,1,17,1.448,17,2z"/>
<path fill="#222221" d="M30,14c0-0.552-0.448-1-1-1H18c-0.552,0-1,0.448-1,1v16c0,0.552,0.448,1,1,1h11c0.552,0,1-0.448,1-1V14z"/>
</svg>
