<?xml version="1.0" encoding="utf-8"?>
<!-- Generator: Adobe Illustrator 19.2.1, SVG Export Plug-In . SVG Version: 6.00 Build 0)  -->
<!DOCTYPE svg PUBLIC "-//W3C//DTD SVG 1.1//EN" "http://www.w3.org/Graphics/SVG/1.1/DTD/svg11.dtd">
<svg version="1.1" id="Layer_1" xmlns="http://www.w3.org/2000/svg" xmlns:xlink="http://www.w3.org/1999/xlink" x="0px" y="0px"
	 width="32px" height="32px" viewBox="0 0 32 32" enable-background="new 0 0 32 32" xml:space="preserve">
<path fill="#222221" d="M16,0.028C8.294,0.028,0,1.584,0,5c0,0.258,0.047,0.505,0.138,0.742l4.866,22.384
	C5.176,30.787,10.784,32,16,32s10.824-1.213,10.996-3.874l4.866-22.384C31.953,5.505,32,5.258,32,5C32,1.584,23.706,0.028,16,0.028z
	 M29.934,5.197C29.33,6.163,24.607,7.972,16,7.972S2.67,6.163,2.066,5.197L2.009,4.932C2.237,4.01,6.99,2.028,16,2.028
	S29.763,4.01,29.991,4.932L29.934,5.197z"/>
</svg>
