<?xml version="1.0" encoding="utf-8"?>
<!-- Generator: Adobe Illustrator 19.2.1, SVG Export Plug-In . SVG Version: 6.00 Build 0)  -->
<!DOCTYPE svg PUBLIC "-//W3C//DTD SVG 1.1//EN" "http://www.w3.org/Graphics/SVG/1.1/DTD/svg11.dtd">
<svg version="1.1" id="Layer_1" xmlns="http://www.w3.org/2000/svg" xmlns:xlink="http://www.w3.org/1999/xlink" x="0px" y="0px"
	 width="32px" height="32px" viewBox="0 0 32 32" enable-background="new 0 0 32 32" xml:space="preserve">
<path fill="#222221" d="M5,25H2v-3H0v4c0,0.553,0.448,1,1,1h4V25z"/>
<path fill="#222221" d="M11,25H8v2h4c0.552,0,1-0.447,1-1v-4h-2V25z"/>
<path fill="#222221" d="M13,7c0-0.553-0.448-1-1-1H8v2h3v3h2V7z"/>
<path fill="#222221" d="M2,8h3V6H1C0.448,6,0,6.447,0,7v4h2V8z"/>
<path fill="#222221" d="M31,0H17c-0.552,0-1,0.447-1,1v30c0,0.553,0.448,1,1,1h14c0.552,0,1-0.447,1-1V1C32,0.447,31.552,0,31,0z"/>
<rect y="14" fill="#222221" width="2" height="5"/>
<rect x="11" y="14" fill="#222221" width="2" height="5"/>
</svg>
