<?xml version="1.0" encoding="utf-8"?>
<!-- Generator: Adobe Illustrator 19.2.1, SVG Export Plug-In . SVG Version: 6.00 Build 0)  -->
<!DOCTYPE svg PUBLIC "-//W3C//DTD SVG 1.1//EN" "http://www.w3.org/Graphics/SVG/1.1/DTD/svg11.dtd">
<svg version="1.1" id="Layer_1" xmlns="http://www.w3.org/2000/svg" xmlns:xlink="http://www.w3.org/1999/xlink" x="0px" y="0px"
	 width="32px" height="32px" viewBox="0 0 32 32" enable-background="new 0 0 32 32" xml:space="preserve">
<path d="M31,0H11c-0.552,0-1,0.447-1,1v7h11c1.654,0,3,1.346,3,3v11h7c0.552,0,1-0.447,1-1V1C32,0.447,31.552,0,31,0z"/>
<path d="M21,10H1c-0.552,0-1,0.447-1,1v20c0,0.553,0.448,1,1,1h20c0.552,0,1-0.447,1-1V11C22,10.447,21.552,10,21,10z"/>
</svg>
