<?xml version="1.0" encoding="utf-8"?>
<!-- Generator: Adobe Illustrator 19.2.1, SVG Export Plug-In . SVG Version: 6.00 Build 0)  -->
<!DOCTYPE svg PUBLIC "-//W3C//DTD SVG 1.1//EN" "http://www.w3.org/Graphics/SVG/1.1/DTD/svg11.dtd">
<svg version="1.1" id="Layer_1" xmlns="http://www.w3.org/2000/svg" xmlns:xlink="http://www.w3.org/1999/xlink" x="0px" y="0px"
	 width="32px" height="32px" viewBox="0 0 32 32" enable-background="new 0 0 32 32" xml:space="preserve">
<path d="M15.957,9.543l3.379-3.379c0.188-0.188,0.293-0.441,0.293-0.707s-0.105-0.52-0.293-0.707l-3.958-3.957
	c-0.391-0.391-1.023-0.391-1.414,0l-3.378,3.378L15.957,9.543z"/>
<path d="M4.071,27.929c2.303,2.303,5.365,3.571,8.622,3.571c3.256,0,6.318-1.269,8.621-3.571l5.1-5.1l-5.372-5.372l-5.101,5.101
	c-0.866,0.867-2.021,1.344-3.25,1.344c-1.229,0-2.383-0.478-3.25-1.344c-0.866-0.867-1.344-2.021-1.344-3.25
	c0-1.229,0.477-2.384,1.344-3.25l5.101-5.101L9.171,5.585l-5.1,5.1C1.769,12.988,0.5,16.051,0.5,19.307
	C0.5,22.563,1.769,25.626,4.071,27.929z"/>
<path d="M27.25,12.664c-0.188-0.188-0.441-0.293-0.707-0.293s-0.52,0.105-0.707,0.293l-3.379,3.379l5.372,5.372l3.378-3.378
	c0.391-0.391,0.391-1.023,0-1.414L27.25,12.664z"/>
</svg>
