<?xml version="1.0" encoding="utf-8"?>
<!-- Generator: Adobe Illustrator 19.2.1, SVG Export Plug-In . SVG Version: 6.00 Build 0)  -->
<!DOCTYPE svg PUBLIC "-//W3C//DTD SVG 1.1//EN" "http://www.w3.org/Graphics/SVG/1.1/DTD/svg11.dtd">
<svg version="1.1" id="Layer_1" xmlns="http://www.w3.org/2000/svg" xmlns:xlink="http://www.w3.org/1999/xlink" x="0px" y="0px"
	 width="32px" height="32px" viewBox="0 0 32 32" enable-background="new 0 0 32 32" xml:space="preserve">
<path fill="#222221" d="M31.893,13.71c-0.07-0.492-0.327-1.363-0.327-1.363s-0.28,0.737-0.63,1.92c0.553-5.19-2.22-8.32-2.883-8.687
	c0,0,0.033,0.178,0.09,0.493c-0.868-1.364-2.188-2.005-2.188-2.005s0.049,0.288,0.125,0.856C23.413,2.495,19.882,1,16,1
	C11.45,1,7.374,3.044,4.621,6.253C3.779,5.272,3.702,3.907,3.702,3.907s-1.995,1.99-1.613,5.634C1.317,10.636,0.593,11.939,0,15.284
	c0,0,0.002-0.005,0.005-0.014c-0.001,0.007-0.002,0.013-0.004,0.019c0,0,0.01-0.033,0.03-0.09c-0.005,0.025-0.009,0.049-0.014,0.075
	c0,0,0.002-0.006,0.005-0.014c-0.001,0.006-0.002,0.013-0.003,0.019c0,0,0.033-0.103,0.098-0.277
	c0.001-0.005,0.002-0.01,0.003-0.015c0.116-0.31,0.332-0.836,0.648-1.412c-0.002,0.005-0.003,0.01-0.005,0.015
	c-0.003,0.006-0.006,0.012-0.01,0.018c0.003-0.006,0.007-0.012,0.01-0.018c-0.375,1.185-0.662,3.005-0.488,5.707
	c0-0.001,0-0.004,0-0.006c0,0.004,0,0.007,0.001,0.011c0.001-0.017,0.005-0.054,0.012-0.109c0.002,0.029,0.003,0.058,0.005,0.088
	c0-0.002,0-0.005,0.001-0.006c0,0.004,0,0.008,0.001,0.012c0.003-0.04,0.02-0.192,0.055-0.428c0-0.004,0-0.007,0-0.011
	c0.046-0.31,0.122-0.762,0.238-1.291c0.128,2.346,0.771,4.491,1.962,6.53c1.087,1.862,3.712,5.988,11.079,7.788
	c-0.587-0.16-1.22-0.669-1.22-0.669c1.204,0.386,3.358,0.855,4.623,0.79c-0.16-0.076-0.715-0.403-0.715-0.403
	c4.223,0.237,9.073-1.205,9.678-3.521c0.294-0.153,0.597-0.33,0.907-0.541c1.921-1.304,4.344-4.253,3.569-6.347
	C31.621,18.892,32.269,16.169,31.893,13.71z M26.651,14.769c-0.612-1.562-1.451-2.211-1.451-2.211
	c0.278,3.174,0.361,4.307-0.218,6.567c-0.168-0.728-0.395-1.135-0.395-1.135c-0.243,2.685-2.017,5.828-2.809,5.284
	c-0.001-0.001-0.003-0.002-0.003-0.002c0.023-0.196,0.043-0.401-0.009-0.532c0,0-0.369,0.201-0.593,0.5
	c-0.28,0.373-1.204,1.197-1.413,1.051c0.195-0.06,0.351-0.308,0.393-0.552c-1.123,0.785-3.51,1.11-6.081-0.176
	c0.337-0.038,0.842-0.157,1.226,0.07c-0.385-0.42-1.314-0.333-1.98-0.543c-0.58-0.183-1.336-0.996-1.771-1.408
	c0.013,0.003,1.789,0.522,3.831-0.163c0.354-0.119,0.669-0.282,0.937-0.468c0.736-0.509,1.795-1.262,2.281-1.182
	c0.019,0.003,0.038,0.004,0.057,0.009c0.586,0.131,0.977-0.457,0.52-0.98c-0.455-0.523-1.661-1.512-3.06-0.85
	c-3.842,1.82-6.404-0.87-5.96-2.447c0.083-0.296,0.4-0.688,0.534-0.714c0.746-0.099,1.399,0.5,1.399,0.5s0.359-1.102,0.077-2.065
	c0.649-0.816,2.935-1.54,3.405-2.689c0.111-0.272,0.238-0.911-0.127-1.045c-0.605-0.145-2.044-0.15-2.575-0.145
	c-1.013,0.008-1.484-0.872-1.64-1.245c0,0.001-0.001,0.003-0.001,0.004c-0.001-0.003-0.003-0.007-0.004-0.011
	c0.294-1.065,0.604-1.761,2.156-3.042C10.712,4.761,9.173,6.888,9.171,6.89c-0.81-0.201-1.544-0.25-2.22-0.206
	C9.294,4.409,12.484,3,16,3c3.992,0,7.566,1.812,9.952,4.652c-0.798-0.697-1.922-1.342-2.715-1.403
	C24.596,7.26,26.863,10.246,26.651,14.769z"/>
</svg>
