<?xml version="1.0" encoding="utf-8"?>
<!-- Generator: Adobe Illustrator 19.2.1, SVG Export Plug-In . SVG Version: 6.00 Build 0)  -->
<!DOCTYPE svg PUBLIC "-//W3C//DTD SVG 1.1//EN" "http://www.w3.org/Graphics/SVG/1.1/DTD/svg11.dtd">
<svg version="1.1" id="Layer_1" xmlns="http://www.w3.org/2000/svg" xmlns:xlink="http://www.w3.org/1999/xlink" x="0px" y="0px"
	 width="32px" height="32px" viewBox="0 0 32 32" enable-background="new 0 0 32 32" xml:space="preserve">
<path d="M31,0H1C0.448,0,0,0.448,0,1v30c0,0.552,0.448,1,1,1h30c0.552,0,1-0.448,1-1V1C32,0.448,31.552,0,31,0z M13,24h-3v3
	c0,0.552-0.448,1-1,1s-1-0.448-1-1v-3H5c-0.552,0-1-0.448-1-1s0.448-1,1-1h3v-3c0-0.552,0.448-1,1-1s1,0.448,1,1v3h3
	c0.552,0,1,0.448,1,1S13.552,24,13,24z M9,14c-2.757,0-5-2.243-5-5s2.243-5,5-5s5,2.243,5,5S11.757,14,9,14z M18,5
	c0-0.552,0.448-1,1-1h8c0.552,0,1,0.448,1,1v8c0,0.552-0.448,1-1,1h-8c-0.552,0-1-0.448-1-1V5z M27.02,27
	c-0.007,0-0.014-0.001-0.02,0h-8c-0.369,0-0.708-0.203-0.882-0.528c-0.174-0.325-0.155-0.72,0.05-1.026l4-6
	c0.371-0.557,1.293-0.557,1.664,0l3.905,5.858c0.175,0.18,0.283,0.426,0.283,0.697C28.02,26.552,27.572,27,27.02,27z"/>
</svg>
