<?xml version="1.0" encoding="utf-8"?>
<!-- Generator: Adobe Illustrator 19.2.1, SVG Export Plug-In . SVG Version: 6.00 Build 0)  -->
<!DOCTYPE svg PUBLIC "-//W3C//DTD SVG 1.1//EN" "http://www.w3.org/Graphics/SVG/1.1/DTD/svg11.dtd">
<svg version="1.1" id="Layer_1" xmlns="http://www.w3.org/2000/svg" xmlns:xlink="http://www.w3.org/1999/xlink" x="0px" y="0px"
	 width="32px" height="32px" viewBox="0 0 32 32" enable-background="new 0 0 32 32" xml:space="preserve">
<path d="M31,2H7v4h25V3C32,2.448,31.553,2,31,2z"/>
<path d="M5,2H1C0.447,2,0,2.448,0,3v3h5V2z"/>
<path d="M0,29c0,0.552,0.447,1,1,1h30c0.553,0,1-0.448,1-1V8H0V29z M12,21h8v2h-8V21z M4.586,14L6,12.586L11.414,18L6,23.414
	L4.586,22l4-4L4.586,14z"/>
</svg>
