<?xml version="1.0" encoding="utf-8"?>
<!-- Generator: Adobe Illustrator 19.2.1, SVG Export Plug-In . SVG Version: 6.00 Build 0)  -->
<!DOCTYPE svg PUBLIC "-//W3C//DTD SVG 1.1//EN" "http://www.w3.org/Graphics/SVG/1.1/DTD/svg11.dtd">
<svg version="1.1" id="Layer_1" xmlns="http://www.w3.org/2000/svg" xmlns:xlink="http://www.w3.org/1999/xlink" x="0px" y="0px"
	 width="32px" height="32px" viewBox="0 0 32 32" enable-background="new 0 0 32 32" xml:space="preserve">
<rect x="3.979" y="12.465" transform="matrix(0.7071 -0.7071 0.7071 0.7071 -7.6274 15.5858)" width="22.042" height="9.071"/>
<path d="M2,31c0.092,0,0.184-0.013,0.275-0.039l6.434-1.838l-5.832-5.832l-1.838,6.434c-0.1,0.35-0.002,0.725,0.254,0.982
	C1.483,30.897,1.738,31,2,31z"/>
<path d="M30.707,7.707c0.391-0.391,0.391-1.023,0-1.414l-5-5c-0.391-0.391-1.023-0.391-1.414,0L21,4.586L27.414,11L30.707,7.707z"/>
</svg>
