<?xml version="1.0" encoding="utf-8"?>
<!-- Generator: Adobe Illustrator 19.2.1, SVG Export Plug-In . SVG Version: 6.00 Build 0)  -->
<!DOCTYPE svg PUBLIC "-//W3C//DTD SVG 1.1//EN" "http://www.w3.org/Graphics/SVG/1.1/DTD/svg11.dtd">
<svg version="1.1" id="Layer_1" xmlns="http://www.w3.org/2000/svg" xmlns:xlink="http://www.w3.org/1999/xlink" x="0px" y="0px"
	 width="32px" height="32px" viewBox="0 0 32 32" enable-background="new 0 0 32 32" xml:space="preserve">
<path fill="#222221" d="M4.737,27.965l11,3C15.823,30.988,15.912,31,16,31s0.177-0.012,0.263-0.035l11-3
	c0.407-0.111,0.7-0.465,0.733-0.885l2-25c0.022-0.278-0.073-0.554-0.262-0.759C29.545,1.116,29.279,1,29,1H3
	C2.721,1,2.455,1.116,2.265,1.321C2.076,1.526,1.981,1.802,2.003,2.08l2,25C4.037,27.5,4.33,27.854,4.737,27.965z M8.268,7.318
	C8.458,7.115,8.722,7,9,7h15v2H10.074l0.357,5H22.5c0.278,0,0.542,0.115,0.732,0.318c0.189,0.203,0.285,0.476,0.266,0.753l-0.5,7
	c-0.029,0.403-0.298,0.75-0.681,0.877l-6,2C16.213,24.982,16.107,25,16,25s-0.213-0.018-0.316-0.052l-6-2
	C9.275,22.812,9,22.431,9,22v-3h2v2.279l5,1.667l5.05-1.684L21.426,16H9.5c-0.524,0-0.96-0.405-0.998-0.929l-0.5-7
	C7.983,7.794,8.079,7.521,8.268,7.318z"/>
</svg>
