<?xml version="1.0" encoding="utf-8"?>
<!-- Generator: Adobe Illustrator 19.2.1, SVG Export Plug-In . SVG Version: 6.00 Build 0)  -->
<!DOCTYPE svg PUBLIC "-//W3C//DTD SVG 1.1//EN" "http://www.w3.org/Graphics/SVG/1.1/DTD/svg11.dtd">
<svg version="1.1" id="Layer_1" xmlns="http://www.w3.org/2000/svg" xmlns:xlink="http://www.w3.org/1999/xlink" x="0px" y="0px"
	 width="32px" height="32px" viewBox="0 0 32 32" enable-background="new 0 0 32 32" xml:space="preserve">
<path d="M28.964,8.036c1.381-1.381,1.381-3.619,0-5c-1.381-1.381-3.619-1.381-5,0L9.716,17.284c1.194,0.309,2.29,0.923,3.183,1.817
	c0.912,0.912,1.513,2.018,1.815,3.185L28.964,8.036z"/>
<path d="M4.414,20.515c-1.731,1.73-2.311,7.297-2.41,8.396c-0.026,0.295,0.08,0.587,0.289,0.796C2.481,29.896,2.736,30,3,30
	c0.03,0,0.06-0.001,0.089-0.004c1.099-0.099,6.666-0.679,8.396-2.41c1.949-1.95,1.949-5.122,0-7.071
	C9.537,18.566,6.364,18.565,4.414,20.515z"/>
</svg>
