<?xml version="1.0" encoding="utf-8"?>
<!-- Generator: Adobe Illustrator 19.2.1, SVG Export Plug-In . SVG Version: 6.00 Build 0)  -->
<!DOCTYPE svg PUBLIC "-//W3C//DTD SVG 1.1//EN" "http://www.w3.org/Graphics/SVG/1.1/DTD/svg11.dtd">
<svg version="1.1" id="Layer_1" xmlns="http://www.w3.org/2000/svg" xmlns:xlink="http://www.w3.org/1999/xlink" x="0px" y="0px"
	 width="32px" height="32px" viewBox="0 0 32 32" enable-background="new 0 0 32 32" xml:space="preserve">
<path fill="#222221" d="M20,32h9c1.105,0,2-0.895,2-2V14c0-1.105-0.895-2-2-2h-9c-1.105,0-2,0.895-2,2v16C18,31.105,18.895,32,20,32
	z M24.5,30c-0.828,0-1.5-0.672-1.5-1.5s0.672-1.5,1.5-1.5s1.5,0.672,1.5,1.5S25.328,30,24.5,30z M20,15c0-0.552,0.448-1,1-1h7
	c0.552,0,1,0.448,1,1v9c0,0.552-0.448,1-1,1h-7c-0.552,0-1-0.448-1-1V15z"/>
<path fill="#222221" d="M6,4h13c0.552,0,1,0.448,1,1v5h4V3c0-1.657-1.343-3-3-3H4C2.343,0,1,1.343,1,3v22c0,1.657,1.343,3,3,3h12v-7
	H6c-0.552,0-1-0.448-1-1V5C5,4.448,5.448,4,6,4z M12.5,23c0.828,0,1.5,0.672,1.5,1.5S13.328,26,12.5,26S11,25.328,11,24.5
	S11.672,23,12.5,23z"/>
</svg>
