<?xml version="1.0" encoding="utf-8"?>
<!-- Generator: Adobe Illustrator 19.2.1, SVG Export Plug-In . SVG Version: 6.00 Build 0)  -->
<!DOCTYPE svg PUBLIC "-//W3C//DTD SVG 1.1//EN" "http://www.w3.org/Graphics/SVG/1.1/DTD/svg11.dtd">
<svg version="1.1" id="Layer_1" xmlns="http://www.w3.org/2000/svg" xmlns:xlink="http://www.w3.org/1999/xlink" x="0px" y="0px"
	 width="32px" height="32px" viewBox="0 0 32 32" enable-background="new 0 0 32 32" xml:space="preserve">
<path d="M2,2h3V0H1C0.447,0,0,0.448,0,1v4h2V2z"/>
<path d="M1,29h4v-2H2v-3H0v4C0,28.552,0.447,29,1,29z"/>
<path d="M29,1c0-0.552-0.447-1-1-1h-4v2h3v3h2V1z"/>
<rect x="8" width="5" height="2"/>
<rect x="16" width="5" height="2"/>
<rect x="8" y="27" width="5" height="2"/>
<rect y="8" width="2" height="5"/>
<rect y="16" width="2" height="5"/>
<rect x="27" y="8" width="2" height="5"/>
<path d="M30.561,28.439l-6.211-6.211L30,19l-15-4l4,15l3.229-5.65l6.211,6.211c0.586,0.586,1.535,0.586,2.121,0
	C31.146,29.975,31.146,29.025,30.561,28.439z"/>
</svg>
