<?xml version="1.0" encoding="utf-8"?>
<!-- Generator: Adobe Illustrator 19.2.1, SVG Export Plug-In . SVG Version: 6.00 Build 0)  -->
<!DOCTYPE svg PUBLIC "-//W3C//DTD SVG 1.1//EN" "http://www.w3.org/Graphics/SVG/1.1/DTD/svg11.dtd">
<svg version="1.1" id="Layer_1" xmlns="http://www.w3.org/2000/svg" xmlns:xlink="http://www.w3.org/1999/xlink" x="0px" y="0px"
	 width="32px" height="32px" viewBox="0 0 32 32" enable-background="new 0 0 32 32" xml:space="preserve">
<path d="M30.707,8.293L29.414,7l-7.707,7.707C21.512,14.902,21.256,15,21,15s-0.512-0.098-0.707-0.293l-3-3
	c-0.391-0.391-0.391-1.023,0-1.414L25,2.586l-1.293-1.293c-0.391-0.391-1.023-0.391-1.414,0l-18,18
	c-0.391,0.391-0.391,1.023,0,1.414l7,7C11.488,27.902,11.744,28,12,28s0.512-0.098,0.707-0.293l18-18
	C31.098,9.316,31.098,8.684,30.707,8.293z"/>
<path d="M1.043,27.29c0.107,0.353,0.399,0.619,0.761,0.691l5,1C6.869,28.994,6.935,29,7,29c0.263,0,0.518-0.104,0.707-0.293
	l0.879-0.879l-4.414-4.414l-2.879,2.879C1.032,26.554,0.936,26.937,1.043,27.29z"/>
</svg>
