<?xml version="1.0" encoding="utf-8"?>
<!-- Generator: Adobe Illustrator 19.2.1, SVG Export Plug-In . SVG Version: 6.00 Build 0)  -->
<!DOCTYPE svg PUBLIC "-//W3C//DTD SVG 1.1//EN" "http://www.w3.org/Graphics/SVG/1.1/DTD/svg11.dtd">
<svg version="1.1" id="Layer_1" xmlns="http://www.w3.org/2000/svg" xmlns:xlink="http://www.w3.org/1999/xlink" x="0px" y="0px"
	 width="32px" height="32px" viewBox="0 0 32 32" enable-background="new 0 0 32 32" xml:space="preserve">
<path d="M7,28c0-1.278-1.522-3.621-2.177-4.568c-0.375-0.541-1.271-0.541-1.646,0C2.522,24.379,1,26.722,1,28c0,1.654,1.346,3,3,3
	S7,29.654,7,28z"/>
<path d="M18,14h6.5c3.584,0,6.5-2.916,6.5-6.5S28.084,1,24.5,1h-5.083c-0.05-0.068-0.084-0.114-0.084-0.114
	C18.754,0.306,17.927,0,16.942,0c-2.595,0-6.426,2.154-9.759,5.487c-4.061,4.061-7.054,9.699-4.602,12.15
	c0.027,0.027,15.399,11.308,15.399,11.308c0.454,0.42,1.029,0.607,1.683,0.607c2.109,0,5.036-1.944,7.338-4.246
	c1.582-1.583,2.853-3.309,3.576-4.86c1.074-2.301,0.646-3.527,0.063-4.159c0,0-0.517-0.705-1.327-1.807
	C27.945,15.431,26.291,16,24.5,16H18c-0.552,0-1-0.448-1-1C17,14.448,17.448,14,18,14z M24.5,3C26.981,3,29,5.019,29,7.5
	c0,1.576-0.817,2.959-2.047,3.764C24.893,8.457,22.442,5.12,20.886,3H24.5z M13.318,11.622c-4.273,4.273-8.363,5.559-9.322,4.602
	c-0.962-0.962,0.352-5.072,4.602-9.322c4.192-4.192,8.321-5.599,9.321-4.601C19.551,3.933,15.387,9.554,13.318,11.622z"/>
</svg>
