<?xml version="1.0" encoding="utf-8"?>
<!-- Generator: Adobe Illustrator 19.2.1, SVG Export Plug-In . SVG Version: 6.00 Build 0)  -->
<!DOCTYPE svg PUBLIC "-//W3C//DTD SVG 1.1//EN" "http://www.w3.org/Graphics/SVG/1.1/DTD/svg11.dtd">
<svg version="1.1" id="Layer_1" xmlns="http://www.w3.org/2000/svg" xmlns:xlink="http://www.w3.org/1999/xlink" x="0px" y="0px"
	 width="32px" height="32px" viewBox="0 0 32 32" enable-background="new 0 0 32 32" xml:space="preserve">
<path fill="#222221" d="M7,31c0,0.552,0.447,1,1,1h16c0.553,0,1-0.448,1-1c0-1.654,1.346-3,3-3c0.553,0,1-0.448,1-1V5
	c0-0.552-0.447-1-1-1c-1.654,0-3-1.346-3-3c0-0.552-0.447-1-1-1H8C7.447,0,7,0.448,7,1c0,1.654-1.346,3-3,3C3.447,4,3,4.448,3,5v22
	c0,0.552,0.447,1,1,1C5.654,28,7,29.346,7,31z M16,5c4.411,0,8,4.935,8,11s-3.589,11-8,11s-8-4.935-8-11S11.589,5,16,5z"/>
</svg>
