<?xml version="1.0" encoding="utf-8"?>
<!-- Generator: Adobe Illustrator 19.2.1, SVG Export Plug-In . SVG Version: 6.00 Build 0)  -->
<!DOCTYPE svg PUBLIC "-//W3C//DTD SVG 1.1//EN" "http://www.w3.org/Graphics/SVG/1.1/DTD/svg11.dtd">
<svg version="1.1" id="Layer_1" xmlns="http://www.w3.org/2000/svg" xmlns:xlink="http://www.w3.org/1999/xlink" x="0px" y="0px"
	 width="32px" height="32px" viewBox="0 0 32 32" enable-background="new 0 0 32 32" xml:space="preserve">
<path fill="#222221" d="M31,0H9C8.447,0,8,0.448,8,1v22c0,0.552,0.447,1,1,1h22c0.553,0,1-0.448,1-1V1C32,0.448,31.553,0,31,0z"/>
<path fill="#222221" d="M1,32h4v-2H2v-3H0v4C0,31.552,0.447,32,1,32z"/>
<path fill="#222221" d="M14,31v-4h-2v3H9v2h4C13.553,32,14,31.552,14,31z"/>
<path fill="#222221" d="M2,20h3v-2H1c-0.553,0-1,0.448-1,1v4h2V20z"/>
</svg>
