<?xml version="1.0" encoding="utf-8"?>
<!-- Generator: Adobe Illustrator 19.0.1, SVG Export Plug-In . SVG Version: 6.00 Build 0)  -->
<!DOCTYPE svg PUBLIC "-//W3C//DTD SVG 1.1//EN" "http://www.w3.org/Graphics/SVG/1.1/DTD/svg11.dtd">
<svg version="1.1" id="Layer_49" xmlns="http://www.w3.org/2000/svg" xmlns:xlink="http://www.w3.org/1999/xlink" x="0px" y="0px"
	 width="32px" height="32px" viewBox="0 0 32 32" enable-background="new 0 0 32 32" xml:space="preserve">
<path d="M2,32h28c0.4,0,0.7-0.2,0.9-0.5s0.2-0.7,0-1L17.2,7.1l2.7-4.6C20.1,2,20,1.4,19.5,1.1C19,0.9,18.4,1,18.1,1.5L16,5.1
	l-2.1-3.6C13.6,1,13,0.9,12.5,1.1C12,1.4,11.9,2,12.1,2.5l2.7,4.6L1.1,30.5c-0.2,0.3-0.2,0.7,0,1S1.6,32,2,32z M12.7,30l3.3-5.9
	l3.3,5.9H12.7z M16,9.1l2.3,3.9h-4.6L16,9.1z M12.5,15h6.9l8.8,15h-6.7l-4.7-8.5c-0.4-0.6-1.4-0.6-1.7,0L10.4,30H3.7L12.5,15z"/>
</svg>
