<?xml version="1.0" encoding="utf-8"?>
<!-- Generator: Adobe Illustrator 19.0.1, SVG Export Plug-In . SVG Version: 6.00 Build 0)  -->
<!DOCTYPE svg PUBLIC "-//W3C//DTD SVG 1.1//EN" "http://www.w3.org/Graphics/SVG/1.1/DTD/svg11.dtd">
<svg version="1.1" id="Layer_49" xmlns="http://www.w3.org/2000/svg" xmlns:xlink="http://www.w3.org/1999/xlink" x="0px" y="0px"
	 width="32px" height="32px" viewBox="0 0 32 32" enable-background="new 0 0 32 32" xml:space="preserve">
<path d="M1.3,11.7l5,5C6.5,16.9,6.7,17,7,17h7v14c0,0.6,0.4,1,1,1h6c0.6,0,1-0.4,1-1V17h8c0.6,0,1-0.4,1-1V6c0-0.6-0.4-1-1-1h-8V1
	c0-0.6-0.4-1-1-1h-6c-0.6,0-1,0.4-1,1v4H7C6.7,5,6.5,5.1,6.3,5.3l-5,5C0.9,10.7,0.9,11.3,1.3,11.7z M20,30h-4V17h4V30z M16,2h4v3h-4
	V2z M7.4,7H29v8H7.4l-4-4L7.4,7z"/>
</svg>
