<?xml version="1.0" encoding="utf-8"?>
<!-- Generator: Adobe Illustrator 19.0.1, SVG Export Plug-In . SVG Version: 6.00 Build 0)  -->
<!DOCTYPE svg PUBLIC "-//W3C//DTD SVG 1.1//EN" "http://www.w3.org/Graphics/SVG/1.1/DTD/svg11.dtd">
<svg version="1.1" id="Layer_49" xmlns="http://www.w3.org/2000/svg" xmlns:xlink="http://www.w3.org/1999/xlink" x="0px" y="0px"
	 width="32px" height="32px" viewBox="0 0 32 32" enable-background="new 0 0 32 32" xml:space="preserve">
<path d="M18,16v13c0,1.7,1.3,3,3,3h6c1.7,0,3-1.3,3-3V16c0-3-2.2-5.4-5-5.9V2h1c0.6,0,1-0.4,1-1s-0.4-1-1-1h-4c-0.6,0-1,0.4-1,1
	s0.4,1,1,1h1v8.1C20.2,10.6,18,13,18,16z M28,16v13c0,0.6-0.4,1-1,1h-6c-0.6,0-1-0.4-1-1V16c0-1.9,1.3-3.4,3-3.9V16c0,0.6,0.4,1,1,1
	s1-0.4,1-1v-3.9C26.7,12.6,28,14.1,28,16z"/>
<path d="M2,16c0,3,2.2,5.4,5,5.9V30H6c-0.6,0-1,0.4-1,1s0.4,1,1,1h4c0.6,0,1-0.4,1-1s-0.4-1-1-1H9v-8.1c2.8-0.5,5-2.9,5-5.9V3
	c0-1.7-1.3-3-3-3H5C3.3,0,2,1.3,2,3V16z M4,3c0-0.6,0.4-1,1-1h6c0.6,0,1,0.4,1,1v13c0,1.9-1.3,3.4-3,3.9V16c0-0.6-0.4-1-1-1
	s-1,0.4-1,1v3.9c-1.7-0.4-3-2-3-3.9V3z"/>
</svg>
