<?xml version="1.0" encoding="utf-8"?>
<!-- Generator: Adobe Illustrator 19.0.1, SVG Export Plug-In . SVG Version: 6.00 Build 0)  -->
<!DOCTYPE svg PUBLIC "-//W3C//DTD SVG 1.1//EN" "http://www.w3.org/Graphics/SVG/1.1/DTD/svg11.dtd">
<svg version="1.1" id="Layer_49" xmlns="http://www.w3.org/2000/svg" xmlns:xlink="http://www.w3.org/1999/xlink" x="0px" y="0px"
	 width="32px" height="32px" viewBox="0 0 32 32" enable-background="new 0 0 32 32" xml:space="preserve">
<path d="M16,5c-4.4,0-8,3.6-8,8s3.6,8,8,8s8-3.6,8-8S20.4,5,16,5z M21.9,12H20c-0.1-1.5-0.4-2.9-0.8-4.1C20.6,8.8,21.6,10.3,21.9,12
	z M16,19c-0.6,0-1.8-1.9-2-5H18C17.8,17.1,16.6,19,16,19z M14,12c0.2-3.1,1.3-5,2-5s1.8,1.9,2,5H14z M12.9,7.9
	c-0.5,1.2-0.7,2.6-0.8,4.1h-1.9C10.4,10.3,11.4,8.8,12.9,7.9z M10.1,14H12c0.1,1.5,0.4,2.9,0.8,4.1C11.4,17.2,10.4,15.7,10.1,14z
	 M19.1,18.1c0.5-1.2,0.7-2.6,0.8-4.1h1.9C21.6,15.7,20.6,17.2,19.1,18.1z"/>
<path d="M19,24h-6c-0.6,0-1,0.4-1,1s0.4,1,1,1h6c0.6,0,1-0.4,1-1S19.6,24,19,24z"/>
<path d="M26,32c2.2,0,4-1.8,4-4V4c0-2.2-1.8-4-4-4H3C2.4,0,2,0.4,2,1v30c0,0.6,0.4,1,1,1H26z M4,2h22c1.1,0,2,0.9,2,2v24
	c0,1.1-0.9,2-2,2H4V2z"/>
</svg>
