<?xml version="1.0" encoding="utf-8"?>
<!-- Generator: Adobe Illustrator 19.0.1, SVG Export Plug-In . SVG Version: 6.00 Build 0)  -->
<!DOCTYPE svg PUBLIC "-//W3C//DTD SVG 1.1//EN" "http://www.w3.org/Graphics/SVG/1.1/DTD/svg11.dtd">
<svg version="1.1" id="Layer_49" xmlns="http://www.w3.org/2000/svg" xmlns:xlink="http://www.w3.org/1999/xlink" x="0px" y="0px"
	 width="32px" height="32px" viewBox="0 0 32 32" enable-background="new 0 0 32 32" xml:space="preserve">
<path d="M1,31c0,0.6,0.4,1,1,1h28c0.6,0,1-0.4,1-1v-6c0-0.6-0.4-1-1-1h-1V14c0-0.3-0.2-0.6-0.4-0.8l-10-7C18.4,6.1,18.2,6,18,6h-1V4
	h1c0.6,0,1-0.4,1-1s-0.4-1-1-1h-1V1c0-0.6-0.4-1-1-1s-1,0.4-1,1v1h-1c-0.6,0-1,0.4-1,1s0.4,1,1,1h1v2h-1c-0.2,0-0.4,0.1-0.6,0.2
	l-10,7C3.2,13.4,3,13.7,3,14v10H2c-0.6,0-1,0.4-1,1V31z M13,24.5l3-2.2l3,2.2V30h-6V24.5z M29,30h-8v-4h8V30z M27,24h-2V13.1l2,1.4
	V24z M14.3,8h3.4l5.3,3.7V24h-2c0-0.3-0.1-0.6-0.4-0.8l-4-3c-0.4-0.3-0.8-0.3-1.2,0l-4,3C11.1,23.4,11,23.7,11,24H9V11.7L14.3,8z
	 M5,14.5l2-1.4V24H5V14.5z M3,26h8v4H3V26z"/>
<path d="M14,18h4c0.6,0,1-0.4,1-1s-0.4-1-1-1h-4c-0.6,0-1,0.4-1,1S13.4,18,14,18z"/>
<path d="M14,14h4c0.6,0,1-0.4,1-1s-0.4-1-1-1h-4c-0.6,0-1,0.4-1,1S13.4,14,14,14z"/>
</svg>
