<?xml version="1.0" encoding="utf-8"?>
<!-- Generator: Adobe Illustrator 19.0.1, SVG Export Plug-In . SVG Version: 6.00 Build 0)  -->
<!DOCTYPE svg PUBLIC "-//W3C//DTD SVG 1.1//EN" "http://www.w3.org/Graphics/SVG/1.1/DTD/svg11.dtd">
<svg version="1.1" id="Layer_49" xmlns="http://www.w3.org/2000/svg" xmlns:xlink="http://www.w3.org/1999/xlink" x="0px" y="0px"
	 width="32px" height="32px" viewBox="0 0 32 32" enable-background="new 0 0 32 32" xml:space="preserve">
<path d="M22,6h-7V1c0-0.6-0.4-1-1-1h-4C9.4,0,9,0.4,9,1v5H3C2.4,6,2,6.4,2,7v7c0,0.6,0.4,1,1,1h6v14c0,1.7,1.3,3,3,3s3-1.3,3-3V15
	h14c0.6,0,1-0.4,1-1C30,9.6,26.4,6,22,6z M4,13V8h5v5H4z M13,29c0,0.6-0.4,1-1,1s-1-0.4-1-1V2h2V29z M15,13V8h7c3,0,5.4,2.2,5.9,5
	H15z"/>
</svg>
