<?xml version="1.0" encoding="utf-8"?>
<!-- Generator: Adobe Illustrator 19.0.1, SVG Export Plug-In . SVG Version: 6.00 Build 0)  -->
<!DOCTYPE svg PUBLIC "-//W3C//DTD SVG 1.1//EN" "http://www.w3.org/Graphics/SVG/1.1/DTD/svg11.dtd">
<svg version="1.1" id="Layer_49" xmlns="http://www.w3.org/2000/svg" xmlns:xlink="http://www.w3.org/1999/xlink" x="0px" y="0px"
	 width="32px" height="32px" viewBox="0 0 32 32" enable-background="new 0 0 32 32" xml:space="preserve">
<path d="M6,14.3L5,16.1c-0.2,0.4-0.2,0.9,0.1,1.2l5.8,5.8c0.2,0.2,0.4,0.3,0.7,0.3c0.2,0,0.4,0,0.5-0.2l1.7-1.1l8.7,8.7
	c0.7,0.7,1.7,1.1,2.7,1.1s1.9-0.4,2.7-1.1c1.5-1.5,1.5-3.8,0-5.3l-7.5-7.5l7.3-4.5c0.3-0.2,0.4-0.4,0.5-0.7c0-0.2,0.4-4-4.2-8.6
	C19.4-0.4,15.5,0,15.4,0c-0.3,0-0.6,0.2-0.7,0.5l-4.5,7.3L9.4,7.1c-1.5-1.5-3.8-1.5-5.3,0c-1.5,1.5-1.5,3.8,0,5.3L6,14.3z
	 M11.7,21.1l-4.7-4.7l4.1-6.5c0-0.1,0.1-0.1,0.1-0.2l2.6-4.2c0.9,0,3.3,0.4,5.9,2.9c2.5,2.5,2.9,4.9,2.9,5.9L18.4,17
	c-0.1,0-0.1,0.1-0.2,0.1L11.7,21.1z M26.5,27c0.7,0.7,0.7,1.8,0,2.5c-0.7,0.7-1.8,0.7-2.5,0l-8.4-8.4l3.1-1.9L26.5,27z M16.1,2
	c1,0.1,3.5,0.6,6.5,3.6c3,3,3.5,5.5,3.6,6.5l-1.7,1.1c-0.3-1.5-1.1-3.8-3.4-6.1C18.8,4.8,16.5,4,15,3.7L16.1,2z M5.5,8.5
	c0.7-0.7,1.8-0.7,2.5,0l1,1l-1.9,3.1L5.5,11C4.8,10.3,4.8,9.2,5.5,8.5z"/>
</svg>
