<?xml version="1.0" encoding="utf-8"?>
<!-- Generator: Adobe Illustrator 19.0.1, SVG Export Plug-In . SVG Version: 6.00 Build 0)  -->
<!DOCTYPE svg PUBLIC "-//W3C//DTD SVG 1.1//EN" "http://www.w3.org/Graphics/SVG/1.1/DTD/svg11.dtd">
<svg version="1.1" id="Layer_49" xmlns="http://www.w3.org/2000/svg" xmlns:xlink="http://www.w3.org/1999/xlink" x="0px" y="0px"
	 width="32px" height="32px" viewBox="0 0 32 32" enable-background="new 0 0 32 32" xml:space="preserve">
<path d="M27.8,5.2C27.8,5.2,27.8,5.2,27.8,5.2C24.8,2,20.7,0,16.1,0c0,0,0,0,0,0c0,0,0,0,0,0c0,0,0,0,0,0c0,0,0,0,0,0
	C11.3,0,7.2,2,4.2,5.2c0,0,0,0,0,0C4.1,5.3,4,5.4,4,5.5C1.5,8.3,0,12,0,16s1.5,7.7,4,10.5c0.1,0.1,0.2,0.2,0.3,0.3c0,0,0,0,0,0
	C7.2,30,11.3,32,16,32c0,0,0,0,0,0s0,0,0,0c0,0,0,0,0,0s0,0,0,0c0,0,0,0,0,0s0,0,0,0c4.7,0,8.8-2,11.8-5.2c0,0,0,0,0,0
	c0.1-0.1,0.2-0.2,0.3-0.3c2.5-2.8,4-6.5,4-10.5s-1.5-7.7-4-10.5C28,5.4,27.9,5.3,27.8,5.2z M27.2,24.4c-0.9-1-1.9-1.8-2.9-2.5
	c0.4-1.5,0.7-3.2,0.7-5h5C29.8,19.8,28.7,22.3,27.2,24.4z M2.1,17h5c0.1,1.8,0.3,3.4,0.7,5c-1.1,0.6-2,1.5-2.9,2.5
	C3.3,22.3,2.2,19.8,2.1,17z M4.8,7.6c0.9,1,1.9,1.8,2.9,2.5c-0.4,1.5-0.7,3.2-0.7,5h-5C2.2,12.2,3.3,9.7,4.8,7.6z M15,2.7V10
	c-1.9-0.1-3.4-0.4-4.8-1C11.2,6.3,12.8,4.2,15,2.7z M15,12v3H9c0.1-1.4,0.3-2.8,0.6-4.1C11.2,11.5,13,11.9,15,12z M15,17v3
	c-2,0.1-3.8,0.4-5.4,1C9.3,19.8,9.1,18.4,9,17H15z M15,22v7.2c-2.2-1.4-3.8-3.6-4.8-6.3C11.6,22.4,13.1,22.1,15,22z M17,29.3V22
	c1.9,0.1,3.4,0.4,4.8,1C20.8,25.7,19.2,27.8,17,29.3z M17,20v-3h6c-0.1,1.4-0.3,2.8-0.6,4.1C20.8,20.5,19,20.1,17,20z M17,15v-3
	c2-0.1,3.8-0.4,5.4-1c0.3,1.3,0.5,2.6,0.6,4.1H17z M17,10V2.7c2.2,1.4,3.8,3.6,4.8,6.3C20.4,9.6,18.9,9.9,17,10z M20,2.6
	c2.2,0.7,4.2,1.9,5.8,3.5c-0.7,0.8-1.4,1.5-2.3,2C22.7,5.9,21.5,4.1,20,2.6z M8.4,8.1c-0.8-0.5-1.6-1.2-2.3-2
	C7.8,4.5,9.8,3.3,12,2.6C10.5,4.1,9.3,5.9,8.4,8.1z M8.4,23.9c0.8,2.1,2.1,4,3.6,5.5c-2.2-0.7-4.2-1.9-5.8-3.5
	C6.9,25.1,7.6,24.5,8.4,23.9z M23.6,23.9c0.8,0.5,1.6,1.2,2.3,2c-1.6,1.6-3.6,2.8-5.8,3.5C21.5,27.9,22.7,26.1,23.6,23.9z M25,15
	c-0.1-1.8-0.3-3.4-0.7-5c1.1-0.6,2-1.5,2.9-2.5c1.6,2.1,2.6,4.6,2.8,7.4H25z"/>
</svg>
