<?xml version="1.0" encoding="utf-8"?>
<!-- Generator: Adobe Illustrator 19.0.1, SVG Export Plug-In . SVG Version: 6.00 Build 0)  -->
<!DOCTYPE svg PUBLIC "-//W3C//DTD SVG 1.1//EN" "http://www.w3.org/Graphics/SVG/1.1/DTD/svg11.dtd">
<svg version="1.1" id="Layer_49" xmlns="http://www.w3.org/2000/svg" xmlns:xlink="http://www.w3.org/1999/xlink" x="0px" y="0px"
	 width="32px" height="32px" viewBox="0 0 32 32" enable-background="new 0 0 32 32" xml:space="preserve">
<path d="M31,20c-0.6,0-1,0.4-1,1v2h-3.8l-2.1-13H26c0.6,0,1-0.4,1-1V1c0-0.6-0.4-1-1-1s-1,0.4-1,1v1h-3V1c0-0.6-0.4-1-1-1
	s-1,0.4-1,1v1h-3V1c0-0.6-0.4-1-1-1s-1,0.4-1,1v1h-3V1c0-0.6-0.4-1-1-1s-1,0.4-1,1v1H7V1c0-0.6-0.4-1-1-1S5,0.4,5,1v8
	c0,0.6,0.4,1,1,1h1.8L5.8,23H2v-2c0-0.6-0.4-1-1-1s-1,0.4-1,1v3v7c0,0.6,0.4,1,1,1h5h20h5c0.6,0,1-0.4,1-1v-7v-3
	C32,20.4,31.6,20,31,20z M7,4h18v4h-2H9H7V4z M2,25h3.5L5,27.8c0,0.1,0,0.1,0,0.2v2H2V25z M7,28.1L9.9,10h12.3L25,28.1V30h-5v-3
	c0-2.2-1.8-4-4-4s-4,1.8-4,4v3H7V28.1z M18,30h-4v-3c0-1.1,0.9-2,2-2s2,0.9,2,2V30z M30,30h-3v-2c0-0.1,0-0.1,0-0.2L26.5,25H30V30z"
	/>
</svg>
