<?xml version="1.0" encoding="utf-8"?>
<!-- Generator: Adobe Illustrator 19.0.1, SVG Export Plug-In . SVG Version: 6.00 Build 0)  -->
<!DOCTYPE svg PUBLIC "-//W3C//DTD SVG 1.1//EN" "http://www.w3.org/Graphics/SVG/1.1/DTD/svg11.dtd">
<svg version="1.1" id="Layer_49" xmlns="http://www.w3.org/2000/svg" xmlns:xlink="http://www.w3.org/1999/xlink" x="0px" y="0px"
	 width="32px" height="32px" viewBox="0 0 32 32" enable-background="new 0 0 32 32" xml:space="preserve">
<path d="M1,21v4c0,0.6,0.4,1,1,1h28c0.6,0,1-0.4,1-1v-4c0-7.9-6.2-14.4-14-14.9V4h4c0.6,0,1-0.4,1-1s-0.4-1-1-1H11c-0.6,0-1,0.4-1,1
	s0.4,1,1,1h4v2.1C7.2,6.6,1,13.1,1,21z M3,21c0-5.4,3.3-10,7.9-12C7.7,11.9,6,16,6,21v3H3V21z M29,21v3H8v-3c0-6.2,2.8-10.6,8.2-13
	C23.3,8.1,29,13.9,29,21z"/>
<path d="M2,30h28c0.6,0,1-0.4,1-1s-0.4-1-1-1H2c-0.6,0-1,0.4-1,1S1.4,30,2,30z"/>
</svg>
