<?xml version="1.0" encoding="utf-8"?>
<!-- Generator: Adobe Illustrator 19.0.1, SVG Export Plug-In . SVG Version: 6.00 Build 0)  -->
<!DOCTYPE svg PUBLIC "-//W3C//DTD SVG 1.1//EN" "http://www.w3.org/Graphics/SVG/1.1/DTD/svg11.dtd">
<svg version="1.1" id="Layer_49" xmlns="http://www.w3.org/2000/svg" xmlns:xlink="http://www.w3.org/1999/xlink" x="0px" y="0px"
	 width="32px" height="32px" viewBox="0 0 32 32" enable-background="new 0 0 32 32" xml:space="preserve">
<path d="M2.1,25.2L3.8,30c0.1,0.2,0.3,0.5,0.5,0.6c0.1,0.1,0.3,0.1,0.4,0.1c0.1,0,0.2,0,0.3-0.1l10.9-4l10.9,4
	c0.1,0,0.2,0.1,0.3,0.1c0.1,0,0.3,0,0.4-0.1c0.2-0.1,0.4-0.3,0.5-0.6l1.8-4.8c0.1-0.2,0.1-0.5,0-0.8c-0.1-0.2-0.3-0.4-0.6-0.5
	l-2.9-1l2.9-1c0.2-0.1,0.5-0.3,0.6-0.5c0.1-0.2,0.1-0.5,0-0.8l-1.8-4.8c-0.1-0.2-0.3-0.5-0.5-0.6c-0.2-0.1-0.5-0.1-0.8,0l-3.7,1.3
	c0.5-1,0.8-2.2,0.8-3.4c0-4.2-6.5-10.9-7.3-11.7c-0.4-0.4-1.1-0.4-1.4,0C14.5,2.1,8,8.8,8,13c0,1.2,0.3,2.4,0.8,3.4l-3.7-1.3
	c-0.5-0.2-1.1,0.1-1.3,0.6l-1.8,4.8C2,20.8,2,21,2.1,21.3c0.1,0.2,0.3,0.4,0.6,0.5l2.9,1l-2.9,1C2.1,24.1,1.9,24.6,2.1,25.2z
	 M27.7,25.4l-1.1,3l-7.7-2.8l4.6-1.7L27.7,25.4z M16,3.5c2.2,2.3,6,7,6,9.5c0,3.3-2.7,6-6,6s-6-2.7-6-6C10,10.5,13.8,5.8,16,3.5z
	 M4.3,20.2l1.1-3l5.9,2.1c0.4,0.3,0.9,0.6,1.4,0.8l-4.2,1.5L4.3,20.2z M16.5,21c1.6-0.1,3.1-0.7,4.3-1.6l5.9-2.1l1.1,3L5.4,28.4
	l-1.1-3L16.5,21z"/>
<path d="M16,17c2.2,0,4-1.8,4-4c0,0,0-0.1,0-0.1c-0.2-1.5-2.3-4.3-3.2-5.5c-0.4-0.5-1.2-0.5-1.6,0c-0.9,1.2-3.1,4-3.2,5.5
	c0,0,0,0.1,0,0.1C12,15.2,13.8,17,16,17z M16,9.7c1.3,1.8,1.9,3,2,3.4c0,1-0.9,1.9-2,1.9c-1.1,0-2-0.9-2-1.9
	C14.1,12.7,14.6,11.6,16,9.7z"/>
</svg>
