<?xml version="1.0" encoding="utf-8"?>
<!-- Generator: Adobe Illustrator 19.0.1, SVG Export Plug-In . SVG Version: 6.00 Build 0)  -->
<!DOCTYPE svg PUBLIC "-//W3C//DTD SVG 1.1//EN" "http://www.w3.org/Graphics/SVG/1.1/DTD/svg11.dtd">
<svg version="1.1" id="Layer_49" xmlns="http://www.w3.org/2000/svg" xmlns:xlink="http://www.w3.org/1999/xlink" x="0px" y="0px"
	 width="32px" height="32px" viewBox="0 0 32 32" enable-background="new 0 0 32 32" xml:space="preserve">
<path d="M30,17c0.6,0,1-0.4,1-1s-0.4-1-1-1h-2.1C27.5,9.2,22.8,4.5,17,4.1V1c0-0.6-0.4-1-1-1s-1,0.4-1,1v3.1C9.2,4.5,4.5,9.2,4.1,15
	H2c-0.6,0-1,0.4-1,1s0.4,1,1,1h1v13H2c-0.6,0-1,0.4-1,1s0.4,1,1,1h28c0.6,0,1-0.4,1-1s-0.4-1-1-1h-1V17H30z M16,6c5.2,0,9.4,4,9.9,9
	H6.1C6.6,10,10.8,6,16,6z M15,17v13h-4V17H15z M17,17h4v13h-4V17z M5,17h4v13H5V17z M27,30h-4V17h4V30z"/>
</svg>
