<?xml version="1.0" encoding="utf-8"?>
<!-- Generator: Adobe Illustrator 19.0.1, SVG Export Plug-In . SVG Version: 6.00 Build 0)  -->
<!DOCTYPE svg PUBLIC "-//W3C//DTD SVG 1.1//EN" "http://www.w3.org/Graphics/SVG/1.1/DTD/svg11.dtd">
<svg version="1.1" id="Layer_49" xmlns="http://www.w3.org/2000/svg" xmlns:xlink="http://www.w3.org/1999/xlink" x="0px" y="0px"
	 width="32px" height="32px" viewBox="0 0 32 32" enable-background="new 0 0 32 32" xml:space="preserve">
<path d="M16,11c1.7,0,3-1.3,3-3s-1.3-3-3-3s-3,1.3-3,3S14.3,11,16,11z M16,7c0.6,0,1,0.4,1,1s-0.4,1-1,1s-1-0.4-1-1S15.4,7,16,7z"/>
<path d="M2,32h28c0.6,0,1-0.4,1-1v-3c0-0.6-0.4-1-1-1h-2V14h2c0.6,0,1-0.4,1-1v-3c0-0.4-0.2-0.7-0.5-0.9l-14-8c-0.3-0.2-0.7-0.2-1,0
	l-14,8C1.2,9.3,1,9.6,1,10v3c0,0.6,0.4,1,1,1h2v13H2c-0.6,0-1,0.4-1,1v3C1,31.6,1.4,32,2,32z M26,27h-2V14h2V27z M19,27V14h3v13H19z
	 M15,27V14h2v13H15z M10,27V14h3v13H10z M3,10.6l13-7.4l13,7.4V12H3V10.6z M6,14h2v13H6V14z M3,29h26v1H3V29z"/>
</svg>
