<?xml version="1.0" encoding="utf-8"?>
<!-- Generator: Adobe Illustrator 19.0.1, SVG Export Plug-In . SVG Version: 6.00 Build 0)  -->
<!DOCTYPE svg PUBLIC "-//W3C//DTD SVG 1.1//EN" "http://www.w3.org/Graphics/SVG/1.1/DTD/svg11.dtd">
<svg version="1.1" id="Layer_49" xmlns="http://www.w3.org/2000/svg" xmlns:xlink="http://www.w3.org/1999/xlink" x="0px" y="0px"
	 width="32px" height="32px" viewBox="0 0 32 32" enable-background="new 0 0 32 32" xml:space="preserve">
<path d="M30,18c0.6,0,1-0.4,1-1v-2c0-8.3-6.7-15-15-15S1,6.7,1,15v2c0,0.6,0.4,1,1,1h5v6c0,0.6-0.4,1-1,1s-1-0.4-1-1
	c0-0.6-0.4-1-1-1s-1,0.4-1,1c0,1.7,1.3,3,3,3s3-1.3,3-3v-6h3v11c0,0.6-0.4,1-1,1s-1-0.4-1-1c0-0.6-0.4-1-1-1s-1,0.4-1,1
	c0,1.7,1.3,3,3,3s3-1.3,3-3V18h4v11c0,1.7,1.3,3,3,3s3-1.3,3-3c0-0.6-0.4-1-1-1s-1,0.4-1,1c0,0.6-0.4,1-1,1s-1-0.4-1-1V18h3v6
	c0,1.7,1.3,3,3,3s3-1.3,3-3c0-0.6-0.4-1-1-1s-1,0.4-1,1c0,0.6-0.4,1-1,1s-1-0.4-1-1v-6H30z M3,15C3,7.8,8.8,2,16,2s13,5.8,13,13v1H3
	V15z"/>
</svg>
