<?xml version="1.0" encoding="utf-8"?>
<!-- Generator: Adobe Illustrator 19.0.1, SVG Export Plug-In . SVG Version: 6.00 Build 0)  -->
<!DOCTYPE svg PUBLIC "-//W3C//DTD SVG 1.1//EN" "http://www.w3.org/Graphics/SVG/1.1/DTD/svg11.dtd">
<svg version="1.1" id="Layer_49" xmlns="http://www.w3.org/2000/svg" xmlns:xlink="http://www.w3.org/1999/xlink" x="0px" y="0px"
	 width="32px" height="32px" viewBox="0 0 32 32" enable-background="new 0 0 32 32" xml:space="preserve">
<path d="M29,3.1V1c0-0.6-0.4-1-1-1s-1,0.4-1,1v2.1c-1.7,0.4-3,2-3,3.9v2v2.2c-1.6-2.2-4.1-3.7-7-4V4c0-0.6-0.4-1-1-1s-1,0.4-1,1v3.3
	c-2.9,0.3-5.4,1.8-7,4V9V7c0-1.9-1.3-3.4-3-3.9V1c0-0.6-0.4-1-1-1S3,0.4,3,1v2.1C1.3,3.6,0,5.1,0,7v2v22c0,0.6,0.4,1,1,1h30
	c0.6,0,1-0.4,1-1V9V7C32,5.1,30.7,3.6,29,3.1z M28,5c1.1,0,2,0.9,2,2v1h-4V7C26,5.9,26.9,5,28,5z M26,10h4v20h-4V18v-0.8V10z M16,26
	c-0.6,0-1,0.4-1,1v3h-3V19h8v11h-3v-3C17,26.4,16.6,26,16,26z M8,19h2v11H8V19z M22,19h2v11h-2V19z M16,9.2c4.3,0,7.9,3.5,8,7.8H8
	C8.1,12.7,11.7,9.2,16,9.2z M6,18v12H2V10h4v7.2V18z M4,5c1.1,0,2,0.9,2,2v1H2V7C2,5.9,2.9,5,4,5z"/>
</svg>
