<?xml version="1.0" encoding="utf-8"?>
<!-- Generator: Adobe Illustrator 19.0.1, SVG Export Plug-In . SVG Version: 6.00 Build 0)  -->
<!DOCTYPE svg PUBLIC "-//W3C//DTD SVG 1.1//EN" "http://www.w3.org/Graphics/SVG/1.1/DTD/svg11.dtd">
<svg version="1.1" id="Layer_49" xmlns="http://www.w3.org/2000/svg" xmlns:xlink="http://www.w3.org/1999/xlink" x="0px" y="0px"
	 width="32px" height="32px" viewBox="0 0 32 32" enable-background="new 0 0 32 32" xml:space="preserve">
<path d="M16,24c6.1,0,11-4.9,11-11S22.1,2,16,2S5,6.9,5,13S9.9,24,16,24z M16,4c5,0,9,4,9,9s-4,9-9,9s-9-4-9-9S11,4,16,4z"/>
<path d="M5.2,23.4l-1.9,1.9c-0.4,0.4-0.4,1,0,1.4C3.5,26.9,3.7,27,4,27s0.5-0.1,0.7-0.3l2-2c2.4,1.9,5.3,3,8.3,3.2v2h-5
	c-0.6,0-1,0.4-1,1s0.4,1,1,1h12c0.6,0,1-0.4,1-1s-0.4-1-1-1h-5v-2.1c7.8-0.5,14-7,14-14.9c0-3.4-1.2-6.7-3.3-9.3l2-2
	c0.4-0.4,0.4-1,0-1.4s-1-0.4-1.4,0l-1.9,1.9c-0.6-0.5-1.2-1.1-1.8-1.5c-0.5-0.3-1.1-0.2-1.4,0.3C22.9,1.4,23,2,23.4,2.3
	C26.9,4.7,29,8.7,29,13c0,7.2-5.8,13-13,13c-4.6,0-8.9-2.5-11.2-6.5c-0.3-0.5-0.9-0.6-1.4-0.4C2.9,19.4,2.8,20,3,20.5
	C3.6,21.6,4.4,22.5,5.2,23.4z"/>
</svg>
