<?xml version="1.0" encoding="utf-8"?>
<!-- Generator: Adobe Illustrator 19.0.1, SVG Export Plug-In . SVG Version: 6.00 Build 0)  -->
<!DOCTYPE svg PUBLIC "-//W3C//DTD SVG 1.1//EN" "http://www.w3.org/Graphics/SVG/1.1/DTD/svg11.dtd">
<svg version="1.1" id="Layer_49" xmlns="http://www.w3.org/2000/svg" xmlns:xlink="http://www.w3.org/1999/xlink" x="0px" y="0px"
	 width="32px" height="32px" viewBox="0 0 32 32" enable-background="new 0 0 32 32" xml:space="preserve">
<path d="M27,22c-2.8,0-5,2.2-5,5s2.2,5,5,5s5-2.2,5-5S29.8,22,27,22z M27,30c-1.7,0-3-1.3-3-3s1.3-3,3-3s3,1.3,3,3S28.7,30,27,30z"
	/>
<path d="M1,23h5v5c0,2.2,1.8,4,4,4s4-1.8,4-4v-5h5c0.6,0,1-0.4,1-1V10.3c0-5.4-4.1-9.9-9.3-10.3C7.9-0.2,5.2,0.8,3.2,2.7
	C1.2,4.6,0,7.2,0,10v12C0,22.6,0.4,23,1,23z M13,21c-0.6,0-1,0.4-1,1v6c0,1.1-0.9,2-2,2s-2-0.9-2-2v-6c0-0.6-0.4-1-1-1H2v-3h16v3H13
	z M4.5,4.2c1.6-1.5,3.8-2.3,6-2.1c4.2,0.3,7.5,3.9,7.5,8.3V16H2v-6C2,7.8,2.9,5.7,4.5,4.2z"/>
</svg>
