<?xml version="1.0" encoding="utf-8"?>
<!-- Generator: Adobe Illustrator 19.0.1, SVG Export Plug-In . SVG Version: 6.00 Build 0)  -->
<!DOCTYPE svg PUBLIC "-//W3C//DTD SVG 1.1//EN" "http://www.w3.org/Graphics/SVG/1.1/DTD/svg11.dtd">
<svg version="1.1" id="Layer_49" xmlns="http://www.w3.org/2000/svg" xmlns:xlink="http://www.w3.org/1999/xlink" x="0px" y="0px"
	 width="32px" height="32px" viewBox="0 0 32 32" enable-background="new 0 0 32 32" xml:space="preserve">
<path d="M3,23h3.5l6.7,8.6c0.2,0.2,0.5,0.4,0.8,0.4h4c0.3,0,0.6-0.1,0.8-0.4l6.7-8.6H29c0.6,0,1-0.4,1-1s-0.4-1-1-1H3
	c-0.6,0-1,0.4-1,1S2.4,23,3,23z M17.5,30h-3L9,23H23L17.5,30z"/>
<path d="M3,0C2.4,0,2,0.4,2,1v12c0,2.8,2.2,5,5,5h18c2.8,0,5-2.2,5-5V1c0-0.6-0.4-1-1-1s-1,0.4-1,1v3.6L16,15.6L4,4.6V1
	C4,0.4,3.6,0,3,0z M28,13c0,1.7-1.3,3-3,3h-6.4L28,7.3V13z M13.4,16H7c-1.7,0-3-1.3-3-3V7.3L13.4,16z"/>
</svg>
