<?xml version="1.0" encoding="utf-8"?>
<!-- Generator: Adobe Illustrator 19.0.1, SVG Export Plug-In . SVG Version: 6.00 Build 0)  -->
<!DOCTYPE svg PUBLIC "-//W3C//DTD SVG 1.1//EN" "http://www.w3.org/Graphics/SVG/1.1/DTD/svg11.dtd">
<svg version="1.1" id="Layer_49" xmlns="http://www.w3.org/2000/svg" xmlns:xlink="http://www.w3.org/1999/xlink" x="0px" y="0px"
	 width="32px" height="32px" viewBox="0 0 32 32" enable-background="new 0 0 32 32" xml:space="preserve">
<path d="M7,8c-2.2,0-4,1.8-4,4s1.8,4,4,4s4-1.8,4-4S9.2,8,7,8z M7,14c-1.1,0-2-0.9-2-2s0.9-2,2-2s2,0.9,2,2S8.1,14,7,14z"/>
<path d="M31,20c-0.6,0-1,0.4-1,1v1h-4v-1c0-0.6-0.4-1-1-1s-1,0.4-1,1v1h-5v-1c0-0.6-0.4-1-1-1s-1,0.4-1,1v1h-4v-3c0.6,0,1-0.4,1-1V6
	V4c0-0.6-0.4-1-1-1s-1,0.4-1,1v1h-0.6L7.7,1.3c-0.4-0.4-1-0.4-1.4,0L2.6,5H2V4c0-0.6-0.4-1-1-1S0,3.4,0,4v2v12c0,0.6,0.4,1,1,1v12
	c0,0.6,0.4,1,1,1h10h19c0.6,0,1-0.4,1-1v-8v-2C32,20.4,31.6,20,31,20z M24,24v6h-5v-6H24z M17,24v6h-4v-6H17z M2,7h10v10H2V7z
	 M7,3.4L8.6,5H5.4L7,3.4z M3,19h8v11H3V19z M30,30h-4v-6h4V30z"/>
<path d="M7,21c-0.6,0-1,0.4-1,1v5c0,0.6,0.4,1,1,1s1-0.4,1-1v-5C8,21.4,7.6,21,7,21z"/>
</svg>
