<?xml version="1.0" encoding="utf-8"?>
<!-- Generator: Adobe Illustrator 19.0.1, SVG Export Plug-In . SVG Version: 6.00 Build 0)  -->
<!DOCTYPE svg PUBLIC "-//W3C//DTD SVG 1.1//EN" "http://www.w3.org/Graphics/SVG/1.1/DTD/svg11.dtd">
<svg version="1.1" id="Layer_49" xmlns="http://www.w3.org/2000/svg" xmlns:xlink="http://www.w3.org/1999/xlink" x="0px" y="0px"
	 width="32px" height="32px" viewBox="0 0 32 32" enable-background="new 0 0 32 32" xml:space="preserve">
<path d="M5.5,32c1.3,0,2.6-0.5,3.5-1.5c0.9,0.9,2.2,1.5,3.5,1.5s2.6-0.5,3.5-1.5c0.9,0.9,2.2,1.5,3.5,1.5s2.6-0.5,3.5-1.5
	c0.9,0.9,2.2,1.5,3.5,1.5c2.8,0,5-2.2,5-5c0-0.6-0.4-1-1-1s-1,0.4-1,1c0,1.7-1.3,3-3,3c-1.1,0-2.1-0.6-2.6-1.6
	c-0.4-0.6-1.4-0.6-1.8,0c-0.5,1-1.5,1.6-2.6,1.6s-2.1-0.6-2.6-1.6c-0.2-0.3-0.5-0.5-0.9-0.5s-0.7,0.2-0.9,0.5
	c-0.5,1-1.5,1.6-2.6,1.6s-2.1-0.6-2.6-1.6c-0.3-0.6-1.4-0.6-1.8,0c-0.5,1-1.5,1.6-2.6,1.6c-1.7,0-3-1.3-3-3c0-0.6-0.4-1-1-1
	s-1,0.4-1,1C0.5,29.8,2.7,32,5.5,32z"/>
<path d="M26,26c0.6,0,1-0.4,1-1V3c0-1.7-1.3-3-3-3c-0.6,0-1,0.4-1,1s0.4,1,1,1c0.6,0,1,0.4,1,1v3H7V3c0-0.6,0.4-1,1-1
	c0.6,0,1-0.4,1-1S8.6,0,8,0C6.3,0,5,1.3,5,3v22c0,0.6,0.4,1,1,1s1-0.4,1-1v-3h18v3C25,25.6,25.4,26,26,26z M25,8v5H7V8H25z M7,20v-5
	h18v5H7z"/>
</svg>
