<?xml version="1.0" encoding="utf-8"?>
<!-- Generator: Adobe Illustrator 19.0.1, SVG Export Plug-In . SVG Version: 6.00 Build 0)  -->
<!DOCTYPE svg PUBLIC "-//W3C//DTD SVG 1.1//EN" "http://www.w3.org/Graphics/SVG/1.1/DTD/svg11.dtd">
<svg version="1.1" id="Layer_49" xmlns="http://www.w3.org/2000/svg" xmlns:xlink="http://www.w3.org/1999/xlink" x="0px" y="0px"
	 width="32px" height="32px" viewBox="0 0 32 32" enable-background="new 0 0 32 32" xml:space="preserve">
<path d="M31,25h-1v-5c0-0.1,0-0.2,0-0.3l-4-14C25.8,5.3,25.4,5,25,5h-2V3c0-0.6-0.4-1-1-1h-4c-0.6,0-1,0.4-1,1v3v7h-2V6V3
	c0-0.6-0.4-1-1-1h-4C9.4,2,9,2.4,9,3v2H7C6.6,5,6.2,5.3,6,5.7l-4,14c0,0.1,0,0.2,0,0.3v5H1c-0.6,0-1,0.4-1,1v3c0,0.6,0.4,1,1,1h13
	c0.6,0,1-0.4,1-1v-3V15h2v11v3c0,0.6,0.4,1,1,1h13c0.6,0,1-0.4,1-1v-3C32,25.4,31.6,25,31,25z M11,4h2v1h-2V4z M13,28H2v-1h11V28z
	 M13,25H4v-4.9L7.8,7H13v6h-3c-0.6,0-1,0.4-1,1s0.4,1,1,1h3V25z M21,4v1h-2V4H21z M22,13h-3V7h5.2L28,20.1V25h-9V15h3
	c0.6,0,1-0.4,1-1S22.6,13,22,13z M30,28H19v-1h11V28z"/>
</svg>
