<?xml version="1.0" encoding="utf-8"?>
<!-- Generator: Adobe Illustrator 18.1.1, SVG Export Plug-In . SVG Version: 6.00 Build 0)  -->
<!DOCTYPE svg PUBLIC "-//W3C//DTD SVG 1.1//EN" "http://www.w3.org/Graphics/SVG/1.1/DTD/svg11.dtd">
<svg version="1.1" id="Layer_1" xmlns="http://www.w3.org/2000/svg" xmlns:xlink="http://www.w3.org/1999/xlink" x="0px" y="0px"
	 width="32px" height="32px" viewBox="0 0 32 32" enable-background="new 0 0 32 32" xml:space="preserve">
<path d="M27,0h-6c-0.6,0-1,0.4-1,1c0,2.2-1.8,4-4,4s-4-1.8-4-4c0-0.6-0.4-1-1-1H5C2.2,0,0,2.2,0,5v12c0,0.6,0.4,1,1,1h4v-5
	c0-0.6,0.4-1,1-1s1,0.4,1,1v19h18V13c0-0.6,0.4-1,1-1s1,0.4,1,1v5h4c0.6,0,1-0.4,1-1V5C32,2.2,29.8,0,27,0z"/>
</svg>
