<?xml version="1.0" encoding="utf-8"?>
<!-- Generator: Adobe Illustrator 18.1.1, SVG Export Plug-In . SVG Version: 6.00 Build 0)  -->
<!DOCTYPE svg PUBLIC "-//W3C//DTD SVG 1.1//EN" "http://www.w3.org/Graphics/SVG/1.1/DTD/svg11.dtd">
<svg version="1.1" id="Layer_1" xmlns="http://www.w3.org/2000/svg" xmlns:xlink="http://www.w3.org/1999/xlink" x="0px" y="0px"
	 width="32px" height="32px" viewBox="0 0 32 32" enable-background="new 0 0 32 32" xml:space="preserve">
<path d="M26.6,1.2C26.4,1.1,26.2,1,26,1h-5c-0.6,0-1,0.4-1,1c0,2.2-1.8,4-4,4s-4-1.8-4-4c0-0.6-0.4-1-1-1H6C5.8,1,5.6,1.1,5.4,1.2
	l-5,4C0.1,5.4,0,5.7,0,6v7c0,0.6,0.4,1,1,1h4v10c0,0.6,0.4,1,1,1c2.8,0,5,2.2,5,5c0,0.6,0.4,1,1,1h8c0.6,0,1-0.4,1-1
	c0-2.8,2.2-5,5-5c0.6,0,1-0.4,1-1V14h4c0.6,0,1-0.4,1-1V6c0-0.3-0.1-0.6-0.4-0.8L26.6,1.2z M16,22c0,0-5-4.3-5-7.1
	c0-1.6,1.2-2.9,2.7-2.9c1,0,1.7,0.3,2.3,1c0.6-0.7,1.3-1,2.3-1c1.5,0,2.7,1.3,2.7,2.9C21,17.7,16,22,16,22z"/>
</svg>
