<?xml version="1.0" encoding="utf-8"?>
<!-- Generator: Adobe Illustrator 18.1.1, SVG Export Plug-In . SVG Version: 6.00 Build 0)  -->
<!DOCTYPE svg PUBLIC "-//W3C//DTD SVG 1.1//EN" "http://www.w3.org/Graphics/SVG/1.1/DTD/svg11.dtd">
<svg version="1.1" id="Layer_1" xmlns="http://www.w3.org/2000/svg" xmlns:xlink="http://www.w3.org/1999/xlink" x="0px" y="0px"
	 width="32px" height="32px" viewBox="0 0 32 32" enable-background="new 0 0 32 32" xml:space="preserve">
<path d="M1,20h3.8C8,16.7,8.8,12.5,9,10H0v9C0,19.6,0.4,20,1,20z"/>
<path d="M31,4H1C0.4,4,0,4.4,0,5v3h9h2h10h2h9V5C32,4.4,31.6,4,31,4z"/>
<path d="M27.2,20H31c0.6,0,1-0.4,1-1v-9h-9C23.2,12.5,24,16.7,27.2,20z"/>
<path d="M11,10c-0.1,2.5-0.9,6.8-3.9,10.5C8.8,21.2,10,23,10,25v2c0,0.6,0.4,1,1,1h10c0.6,0,1-0.4,1-1v-2c0-2,1.2-3.8,2.9-4.5
	c-3.1-3.6-3.8-7.9-3.9-10.5H11z"/>
</svg>
