<?xml version="1.0" encoding="utf-8"?>
<!-- Generator: Adobe Illustrator 18.1.1, SVG Export Plug-In . SVG Version: 6.00 Build 0)  -->
<!DOCTYPE svg PUBLIC "-//W3C//DTD SVG 1.1//EN" "http://www.w3.org/Graphics/SVG/1.1/DTD/svg11.dtd">
<svg version="1.1" id="Layer_1" xmlns="http://www.w3.org/2000/svg" xmlns:xlink="http://www.w3.org/1999/xlink" x="0px" y="0px"
	 width="32px" height="32px" viewBox="0 0 32 32" enable-background="new 0 0 32 32" xml:space="preserve">
<circle cx="16" cy="15" r="1"/>
<circle cx="16" cy="20" r="2"/>
<path d="M27,18h4c0.6,0,1-0.4,1-1v-2h-5V18z"/>
<path d="M0,17c0,0.6,0.4,1,1,1h4v-3H0V17z"/>
<path d="M27,0h-6c-0.6,0-1,0.4-1,1c0,2.2-1.8,4-4,4s-4-1.8-4-4c0-0.6-0.4-1-1-1H5C2.2,0,0,2.2,0,5v8h5v-2c0-0.6,0.4-1,1-1s1,0.4,1,1
	v21h18V11c0-0.6,0.4-1,1-1s1,0.4,1,1v2h5V5C32,2.2,29.8,0,27,0z M16,24c-2.2,0-4-1.8-4-4c0-1.3,0.6-2.5,1.6-3.2
	C13.2,16.3,13,15.7,13,15c0-1.7,1.3-3,3-3s3,1.3,3,3c0,0.7-0.2,1.3-0.6,1.8c1,0.7,1.6,1.9,1.6,3.2C20,22.2,18.2,24,16,24z"/>
</svg>
