<?xml version="1.0" encoding="utf-8"?>
<!-- Generator: Adobe Illustrator 18.1.1, SVG Export Plug-In . SVG Version: 6.00 Build 0)  -->
<!DOCTYPE svg PUBLIC "-//W3C//DTD SVG 1.1//EN" "http://www.w3.org/Graphics/SVG/1.1/DTD/svg11.dtd">
<svg version="1.1" id="Layer_1" xmlns="http://www.w3.org/2000/svg" xmlns:xlink="http://www.w3.org/1999/xlink" x="0px" y="0px"
	 width="32px" height="32px" viewBox="0 0 32 32" enable-background="new 0 0 32 32" xml:space="preserve">
<path d="M28,14h-3.7l-8.7-6.8C15.4,7.1,15.2,7,15,7h-2c-0.4,0-0.7,0.2-0.9,0.6c0,0-1.1,2.4-4.1,2.4c-2.9,0-4-2.3-4.1-2.4
	C3.7,7.2,3.4,7,3,7H1C0.4,7,0,7.4,0,8v12h32v-2C32,15.8,30.2,14,28,14z"/>
<path d="M3,25h26c1.7,0,3-1.3,3-3H0C0,23.7,1.3,25,3,25z"/>
</svg>
