<?xml version="1.0" encoding="utf-8"?>
<!-- Generator: Adobe Illustrator 18.1.1, SVG Export Plug-In . SVG Version: 6.00 Build 0)  -->
<!DOCTYPE svg PUBLIC "-//W3C//DTD SVG 1.1//EN" "http://www.w3.org/Graphics/SVG/1.1/DTD/svg11.dtd">
<svg version="1.1" id="Layer_1" xmlns="http://www.w3.org/2000/svg" xmlns:xlink="http://www.w3.org/1999/xlink" x="0px" y="0px"
	 width="32px" height="32px" viewBox="0 0 32 32" enable-background="new 0 0 32 32" xml:space="preserve">
<path d="M31,5c-0.6,0-1,0.4-1,1v4.1c-0.9,0.6-2,0.9-3.1,0.9c-0.7,0-1.3-0.1-1.9-0.3V2c0-0.6-0.4-1-1-1H12c-0.6,0-1,0.4-1,1v4.6
	l-4.1,4.1C5.3,11.2,3.5,11,2,10.1V6c0-0.6-0.4-1-1-1S0,5.4,0,6v24c0,0.6,0.4,1,1,1h30c0.6,0,1-0.4,1-1V6C32,5.4,31.6,5,31,5z M23,19
	v2v3c0,0.6-0.4,1-1,1s-1-0.4-1-1v-5c0-0.6-0.4-1-1-1s-1,0.4-1,1v5c0,0.6-0.4,1-1,1s-1-0.4-1-1v-5c0-0.6-0.4-1-1-1s-1,0.4-1,1v5
	c0,0.6-0.4,1-1,1s-1-0.4-1-1V13c0-0.4-0.2-0.8-0.6-0.9c-0.4-0.2-0.8-0.1-1.1,0.2l-2.5,2.5c-0.4,0.4-1.2,0.4-1.6,0
	C7,14.6,6.9,14.3,6.9,14s0.1-0.6,0.3-0.8l0.9-0.9l0,0l4.6-4.6C12.9,7.5,13,7.3,13,7V3h10V19z"/>
</svg>
