<?xml version="1.0" encoding="utf-8"?>
<!-- Generator: Adobe Illustrator 18.1.1, SVG Export Plug-In . SVG Version: 6.00 Build 0)  -->
<!DOCTYPE svg PUBLIC "-//W3C//DTD SVG 1.1//EN" "http://www.w3.org/Graphics/SVG/1.1/DTD/svg11.dtd">
<svg version="1.1" id="Layer_1" xmlns="http://www.w3.org/2000/svg" xmlns:xlink="http://www.w3.org/1999/xlink" x="0px" y="0px"
	 width="32px" height="32px" viewBox="0 0 32 32" enable-background="new 0 0 32 32" xml:space="preserve">
<path d="M1,21h7V11H1c-0.6,0-1,0.4-1,1v8C0,20.6,0.4,21,1,21z"/>
<path d="M31,11h-7v10h7c0.6,0,1-0.4,1-1v-8C32,11.4,31.6,11,31,11z"/>
<path d="M11,9c-0.6,0-1,0.4-1,1v12c0,0.6,0.4,1,1,1h10c0.6,0,1-0.4,1-1V10c0-0.6-0.4-1-1-1H11z M16,17h-4v-2h4V17z"/>
</svg>
