<?xml version="1.0" encoding="utf-8"?>
<!-- Generator: Adobe Illustrator 18.1.1, SVG Export Plug-In . SVG Version: 6.00 Build 0)  -->
<!DOCTYPE svg PUBLIC "-//W3C//DTD SVG 1.1//EN" "http://www.w3.org/Graphics/SVG/1.1/DTD/svg11.dtd">
<svg version="1.1" id="Layer_1" xmlns="http://www.w3.org/2000/svg" xmlns:xlink="http://www.w3.org/1999/xlink" x="0px" y="0px"
	 width="32px" height="32px" viewBox="0 0 32 32" enable-background="new 0 0 32 32" xml:space="preserve">
<path d="M20.5,16c-0.8,0-1.5,0.7-1.5,1.5v3c0,0.8,0.7,1.5,1.5,1.5s1.5-0.7,1.5-1.5v-3C22,16.7,21.3,16,20.5,16z"/>
<path d="M31,3c-0.6,0-1,0.4-1,1v4.1C29.1,8.7,28,9,26.9,9c-1.8,0-3.5-0.9-4.7-2.4c-0.4-0.5-1.2-0.5-1.6,0C19.5,8.1,17.8,9,16,9
	c-1.8,0-3.5-0.9-4.7-2.4c-0.4-0.5-1.2-0.5-1.6,0C8.6,8.1,6.9,9,5.1,9C4,9,2.9,8.7,2,8.1V4c0-0.6-0.4-1-1-1S0,3.4,0,4v24
	c0,0.6,0.4,1,1,1h30c0.6,0,1-0.4,1-1V4C32,3.4,31.6,3,31,3z M15,21c0,1.7-1.3,3-3,3H9c-0.6,0-1-0.4-1-1s0.4-1,1-1h3c0.6,0,1-0.4,1-1
	s-0.4-1-1-1h-2c-0.6,0-1-0.4-1-1s0.4-1,1-1h2c0.6,0,1-0.4,1-1s-0.4-1-1-1H9c-0.6,0-1-0.4-1-1s0.4-1,1-1h3c1.7,0,3,1.3,3,3
	c0,0.8-0.3,1.5-0.8,2C14.7,19.5,15,20.2,15,21z M24,20.5c0,1.9-1.6,3.5-3.5,3.5S17,22.4,17,20.5v-3c0-1.9,1.6-3.5,3.5-3.5
	s3.5,1.6,3.5,3.5V20.5z"/>
</svg>
