<?xml version="1.0" encoding="utf-8"?>
<!-- Generator: Adobe Illustrator 18.1.1, SVG Export Plug-In . SVG Version: 6.00 Build 0)  -->
<!DOCTYPE svg PUBLIC "-//W3C//DTD SVG 1.1//EN" "http://www.w3.org/Graphics/SVG/1.1/DTD/svg11.dtd">
<svg version="1.1" id="Layer_1" xmlns="http://www.w3.org/2000/svg" xmlns:xlink="http://www.w3.org/1999/xlink" x="0px" y="0px"
	 width="32px" height="32px" viewBox="0 0 32 32" enable-background="new 0 0 32 32" xml:space="preserve">
<path d="M27,1c0-0.6-0.4-1-1-1H15c-0.6,0-1,0.4-1,1v4h13V1z"/>
<path d="M8.3,29.7c1.3,1.3,2.9,1.9,4.7,1.9c1.4,0,2.8-0.5,3.9-1.3l-9.3-9.3C5.7,23.7,5.9,27.4,8.3,29.7z"/>
<path d="M14,14.6l-5,5l9.4,9.4l8.3-8.3c0.2-0.2,0.3-0.4,0.3-0.7V7H14V14.6z"/>
</svg>
