<?xml version="1.0" encoding="utf-8"?>
<!-- Generator: Adobe Illustrator 18.1.1, SVG Export Plug-In . SVG Version: 6.00 Build 0)  -->
<!DOCTYPE svg PUBLIC "-//W3C//DTD SVG 1.1//EN" "http://www.w3.org/Graphics/SVG/1.1/DTD/svg11.dtd">
<svg version="1.1" id="Layer_1" xmlns="http://www.w3.org/2000/svg" xmlns:xlink="http://www.w3.org/1999/xlink" x="0px" y="0px"
	 width="32px" height="32px" viewBox="0 0 32 32" enable-background="new 0 0 32 32" xml:space="preserve">
<path d="M31,0h-7c-0.2,0-0.5,0.1-0.7,0.2L17,5.8v15.7c0,0.6-0.4,1-1,1s-1-0.4-1-1V5.8L8.7,0.2C8.5,0.1,8.2,0,8,0H1C0.4,0,0,0.4,0,1
	v30c0,0.6,0.4,1,1,1h30c0.6,0,1-0.4,1-1V1C32,0.4,31.6,0,31,0z M21,19c0,0.6-0.4,1-1,1s-1-0.4-1-1v-1c0-0.6,0.4-1,1-1s1,0.4,1,1V19z
	 M21,14c0,0.6-0.4,1-1,1s-1-0.4-1-1v-1c0-0.6,0.4-1,1-1s1,0.4,1,1V14z"/>
</svg>
