<?xml version="1.0" encoding="utf-8"?>
<!-- Generator: Adobe Illustrator 18.1.1, SVG Export Plug-In . SVG Version: 6.00 Build 0)  -->
<!DOCTYPE svg PUBLIC "-//W3C//DTD SVG 1.1//EN" "http://www.w3.org/Graphics/SVG/1.1/DTD/svg11.dtd">
<svg version="1.1" id="Layer_1" xmlns="http://www.w3.org/2000/svg" xmlns:xlink="http://www.w3.org/1999/xlink" x="0px" y="0px"
	 width="32px" height="32px" viewBox="0 0 32 32" enable-background="new 0 0 32 32" xml:space="preserve">
<path d="M31,8h-8V7c0-3.9-3.1-7-7-7S9,3.1,9,7v1H1C0.4,8,0,8.4,0,9v18c0,2.8,2.2,5,5,5h22c2.8,0,5-2.2,5-5V9C32,8.4,31.6,8,31,8z
	 M11,7c0-2.8,2.2-5,5-5s5,2.2,5,5v1H11V7z M22,23c0,0.6-0.4,1-1,1H11c-0.6,0-1-0.4-1-1v-6c0-0.6,0.4-1,1-1h10c0.6,0,1,0.4,1,1V23z"
	/>
</svg>
