<?xml version="1.0" encoding="utf-8"?>
<!-- Generator: Adobe Illustrator 18.1.1, SVG Export Plug-In . SVG Version: 6.00 Build 0)  -->
<!DOCTYPE svg PUBLIC "-//W3C//DTD SVG 1.1//EN" "http://www.w3.org/Graphics/SVG/1.1/DTD/svg11.dtd">
<svg version="1.1" id="Layer_1" xmlns="http://www.w3.org/2000/svg" xmlns:xlink="http://www.w3.org/1999/xlink" x="0px" y="0px"
	 width="32px" height="32px" viewBox="0 0 32 32" enable-background="new 0 0 32 32" xml:space="preserve">
<path d="M1.5,28.5C1.9,29.4,2.8,30,3.8,30c0.6,0,1.1-0.2,1.6-0.6l23.2-18.6c1.3-1,2.1-2.6,2.2-4.2C30.8,5,30.2,3.4,29,2.2
	c-1.1-1.1-2.6-1.7-4.1-1.7c-1.8,0-3.4,0.8-4.5,2.2L1.8,25.9C1.2,26.7,1.1,27.7,1.5,28.5z M22.3,7.3l1-1c0.4-0.4,1-0.4,1.4,0
	s0.4,1,0,1.4l-1,1C23.5,8.9,23.3,9,23,9s-0.5-0.1-0.7-0.3C21.9,8.3,21.9,7.7,22.3,7.3z"/>
<path d="M4.6,14.4l2.1,2.1L8,15l-2-2c-1.3-1.3-1.3-3.4,0-4.7C7.3,7,9.4,7,10.7,8.3l1.4,1.4l1.3-1.6l-1.3-1.3c-2.1-2.1-5.4-2.1-7.5,0
	C2.5,9,2.5,12.4,4.6,14.4z"/>
<path d="M28.9,19c1.8-1.8,2-4.4,0.8-6.5l-1.6,1.3c0.6,1.2,0.4,2.8-0.6,3.8c-1.2,1.2-3.1,1.2-4.4,0.2l-1.6,1.3c1,0.9,2.3,1.5,3.7,1.5
	C26.6,20.6,27.9,20,28.9,19z"/>
<path d="M14.7,24.5l6.7,6.7c0.2,0.2,0.5,0.3,0.7,0.3s0.5-0.1,0.7-0.3c0.4-0.4,0.4-1,0-1.4l-6.5-6.5L14.7,24.5z"/>
</svg>
