<?xml version="1.0" encoding="utf-8"?>
<!-- Generator: Adobe Illustrator 18.1.1, SVG Export Plug-In . SVG Version: 6.00 Build 0)  -->
<!DOCTYPE svg PUBLIC "-//W3C//DTD SVG 1.1//EN" "http://www.w3.org/Graphics/SVG/1.1/DTD/svg11.dtd">
<svg version="1.1" id="Layer_1" xmlns="http://www.w3.org/2000/svg" xmlns:xlink="http://www.w3.org/1999/xlink" x="0px" y="0px"
	 width="32px" height="32px" viewBox="0 0 32 32" enable-background="new 0 0 32 32" xml:space="preserve">
<path d="M15,0H3C2.4,0,2,0.4,2,1v3h13V0z"/>
<path d="M17,4h13V1c0-0.6-0.4-1-1-1H17V4z"/>
<path d="M3,32h11c0.6,0,1-0.4,1-1V19c0-0.6,0.4-1,1-1s1,0.4,1,1v12c0,0.6,0.4,1,1,1h11c0.6,0,1-0.4,1-1V16h-1c-3.3,0-6-2.7-6-6V9h2
	v1c0,2.2,1.8,4,4,4h1V6H17v4.9c0,0.6-0.4,1-1,1s-1-0.4-1-1V6H2v8h1c2.2,0,4-1.8,4-4V9h2v1c0,3.3-2.7,6-6,6H2v15C2,31.6,2.4,32,3,32z
	"/>
</svg>
