<?xml version="1.0" encoding="utf-8"?>
<!-- Generator: Adobe Illustrator 18.1.1, SVG Export Plug-In . SVG Version: 6.00 Build 0)  -->
<!DOCTYPE svg PUBLIC "-//W3C//DTD SVG 1.1//EN" "http://www.w3.org/Graphics/SVG/1.1/DTD/svg11.dtd">
<svg version="1.1" id="Layer_1" xmlns="http://www.w3.org/2000/svg" xmlns:xlink="http://www.w3.org/1999/xlink" x="0px" y="0px"
	 width="32px" height="32px" viewBox="0 0 32 32" enable-background="new 0 0 32 32" xml:space="preserve">
<rect x="5" y="20" width="22" height="6"/>
<path d="M31,26c-0.6,0-1,0.4-1,1c0,0.6-0.4,1-1,1H3c-0.6,0-1-0.4-1-1c0-0.6-0.4-1-1-1s-1,0.4-1,1c0,1.7,1.3,3,3,3h26
	c1.7,0,3-1.3,3-3C32,26.4,31.6,26,31,26z"/>
<path d="M27,3c0-0.6-0.4-1-1-1H6C5.4,2,5,2.4,5,3v15h22V3z"/>
</svg>
