<?xml version="1.0" encoding="utf-8"?>
<!-- Generator: Adobe Illustrator 19.1.0, SVG Export Plug-In . SVG Version: 6.00 Build 0)  -->
<!DOCTYPE svg PUBLIC "-//W3C//DTD SVG 1.1//EN" "http://www.w3.org/Graphics/SVG/1.1/DTD/svg11.dtd">
<svg version="1.1" id="Layer_1" xmlns="http://www.w3.org/2000/svg" xmlns:xlink="http://www.w3.org/1999/xlink" x="0px" y="0px"
	 width="64px" height="64px" viewBox="0 0 64 64" enable-background="new 0 0 64 64" xml:space="preserve">
<path d="M16,21c0.6,0,1-0.4,1-1v-7c0-0.6-0.4-1-1-1s-1,0.4-1,1v7C15,20.6,15.4,21,16,21z"/>
<path d="M16,35c-0.6,0-1,0.4-1,1v10c0,0.6,0.4,1,1,1s1-0.4,1-1V36C17,35.4,16.6,35,16,35z"/>
<path d="M8,63h48c0.6,0,1-0.4,1-1V2c0-0.6-0.4-1-1-1H8C7.4,1,7,1.4,7,2v60C7,62.6,7.4,63,8,63z M9,61V29h46v32H9z M55,3v24H9V3H55z"
	/>
</svg>
