<?xml version="1.0" encoding="utf-8"?>
<!-- Generator: Adobe Illustrator 19.1.0, SVG Export Plug-In . SVG Version: 6.00 Build 0)  -->
<!DOCTYPE svg PUBLIC "-//W3C//DTD SVG 1.1//EN" "http://www.w3.org/Graphics/SVG/1.1/DTD/svg11.dtd">
<svg version="1.1" id="Layer_1" xmlns="http://www.w3.org/2000/svg" xmlns:xlink="http://www.w3.org/1999/xlink" x="0px" y="0px"
	 width="64px" height="64px" viewBox="0 0 64 64" enable-background="new 0 0 64 64" xml:space="preserve">
<path d="M62.5,47.1L41.8,36c-0.5-0.3-1.1-0.1-1.4,0.4c-0.3,0.5-0.1,1.1,0.4,1.4L61,48.6V53H3v-4.4l27.5-15.7
	c0.3-0.2,0.5-0.5,0.5-0.9v-6.3c0-0.5-0.3-0.9-0.8-1C27.2,24,25,21.2,25,18c0-3.9,3.1-7,7-7s7,3.1,7,7c0,0.6,0.4,1,1,1s1-0.4,1-1
	c0-5-4-9-9-9s-9,4-9,9c0,3.8,2.4,7.2,6,8.5v4.9L1.5,47.1C1.2,47.3,1,47.6,1,48v6c0,0.6,0.4,1,1,1h60c0.6,0,1-0.4,1-1v-6
	C63,47.6,62.8,47.3,62.5,47.1z"/>
</svg>
