<?xml version="1.0" encoding="utf-8"?>
<!-- Generator: Adobe Illustrator 19.1.0, SVG Export Plug-In . SVG Version: 6.00 Build 0)  -->
<!DOCTYPE svg PUBLIC "-//W3C//DTD SVG 1.1//EN" "http://www.w3.org/Graphics/SVG/1.1/DTD/svg11.dtd">
<svg version="1.1" id="Layer_1" xmlns="http://www.w3.org/2000/svg" xmlns:xlink="http://www.w3.org/1999/xlink" x="0px" y="0px"
	 width="64px" height="64px" viewBox="0 0 64 64" enable-background="new 0 0 64 64" xml:space="preserve">
<path d="M3,53h18.1c0.5,5.6,5.2,10,10.9,10s10.4-4.4,10.9-10H61c0.6,0,1-0.4,1-1v-7c0-0.3-0.1-0.6-0.4-0.8L39,26.5V20
	c0-3.5-2.6-6.4-6-6.9V2c0-0.6-0.4-1-1-1s-1,0.4-1,1v11.1c-3.4,0.5-6,3.4-6,6.9v6.5L2.4,44.2C2.1,44.4,2,44.7,2,45v7
	C2,52.6,2.4,53,3,53z M32,61c-4.6,0-8.4-3.5-8.9-8h17.9C40.4,57.5,36.6,61,32,61z M27,20c0-2.8,2.2-5,5-5s5,2.2,5,5v6H27V20z
	 M4,45.5L26.3,28h11.3L60,45.5V51H4V45.5z"/>
</svg>
