<?xml version="1.0" encoding="utf-8"?>
<!-- Generator: Adobe Illustrator 19.1.0, SVG Export Plug-In . SVG Version: 6.00 Build 0)  -->
<!DOCTYPE svg PUBLIC "-//W3C//DTD SVG 1.1//EN" "http://www.w3.org/Graphics/SVG/1.1/DTD/svg11.dtd">
<svg version="1.1" id="Layer_1" xmlns="http://www.w3.org/2000/svg" xmlns:xlink="http://www.w3.org/1999/xlink" x="0px" y="0px"
	 width="64px" height="64px" viewBox="0 0 64 64" enable-background="new 0 0 64 64" xml:space="preserve">
<path d="M62,36h-6V2c0-0.6-0.4-1-1-1H9C8.4,1,8,1.4,8,2v34H2c-0.6,0-1,0.4-1,1v11v14c0,0.6,0.4,1,1,1s1-0.4,1-1V49h8v7
	c0,0.6,0.4,1,1,1s1-0.4,1-1v-7h38v7c0,0.6,0.4,1,1,1s1-0.4,1-1v-7h8v13c0,0.6,0.4,1,1,1s1-0.4,1-1V48V37C63,36.4,62.6,36,62,36z
	 M10,3h44v33H10V3z M3,38h58v9H3V38z"/>
</svg>
