<?xml version="1.0" encoding="utf-8"?>
<!-- Generator: Adobe Illustrator 19.1.0, SVG Export Plug-In . SVG Version: 6.00 Build 0)  -->
<!DOCTYPE svg PUBLIC "-//W3C//DTD SVG 1.1//EN" "http://www.w3.org/Graphics/SVG/1.1/DTD/svg11.dtd">
<svg version="1.1" id="Layer_1" xmlns="http://www.w3.org/2000/svg" xmlns:xlink="http://www.w3.org/1999/xlink" x="0px" y="0px"
	 width="64px" height="64px" viewBox="0 0 64 64" enable-background="new 0 0 64 64" xml:space="preserve">
<path d="M43,46v4c0,0.6,0.4,1,1,1s1-0.4,1-1v-4c0-0.6-0.4-1-1-1S43,45.4,43,46z"/>
<path d="M34.1,43.3l-2.8,2.8c-0.4,0.4-0.4,1,0,1.4c0.2,0.2,0.5,0.3,0.7,0.3s0.5-0.1,0.7-0.3l2.8-2.8c0.4-0.4,0.4-1,0-1.4
	S34.5,42.9,34.1,43.3z"/>
<path d="M52.5,43.3c-0.4,0.4-0.4,1,0,1.4l2.8,2.8c0.2,0.2,0.5,0.3,0.7,0.3s0.5-0.1,0.7-0.3c0.4-0.4,0.4-1,0-1.4l-2.8-2.8
	C53.5,42.9,52.9,42.9,52.5,43.3z"/>
<path d="M61,30v-2.3c0-9-7.1-16.3-16-16.7C44.5,5.4,39.7,1,34,1H22C12.6,1,5,8.6,5,18v44c0,0.6,0.4,1,1,1h11c0.6,0,1-0.4,1-1
	s-0.4-1-1-1H7V18C7,9.7,13.7,3,22,3h12c4.6,0,8.5,3.5,9,8.1C34,11.8,27,19.2,27,28.3V30c0,0.6,0.4,1,1,1h7.1c0.5,4.5,4.3,8,8.9,8
	s8.4-3.5,8.9-8H60C60.6,31,61,30.6,61,30z M44,37c-3.5,0-6.4-2.6-6.9-6h13.8C50.4,34.4,47.5,37,44,37z M59,29H29v-0.7
	C29,19.9,35.9,13,44.3,13C52.4,13,59,19.6,59,27.7V29z"/>
</svg>
