<?xml version="1.0" encoding="utf-8"?>
<!-- Generator: Adobe Illustrator 19.1.0, SVG Export Plug-In . SVG Version: 6.00 Build 0)  -->
<!DOCTYPE svg PUBLIC "-//W3C//DTD SVG 1.1//EN" "http://www.w3.org/Graphics/SVG/1.1/DTD/svg11.dtd">
<svg version="1.1" id="Layer_1" xmlns="http://www.w3.org/2000/svg" xmlns:xlink="http://www.w3.org/1999/xlink" x="0px" y="0px"
	 width="64px" height="64px" viewBox="0 0 64 64" enable-background="new 0 0 64 64" xml:space="preserve">
<path d="M62,1H2C1.4,1,1,1.4,1,2v6v54c0,0.6,0.4,1,1,1h16h28h16c0.6,0,1-0.4,1-1V8V2C63,1.4,62.6,1,62,1z M3,3h58v4H3V3z M45.1,61
	H33V36h15.8c2.3,2.7,4.8,4.8,7.3,6.2C51.1,46.3,45.6,54.9,45.1,61z M7.9,42.2c2.5-1.4,4.9-3.5,7.3-6.2H31v25H18.9
	C18.4,54.9,12.9,46.3,7.9,42.2z M31,9v25H16.8c5.1-6.7,8.9-15.9,9.2-25H31z M33,34V9h5c0.3,9.1,4.2,18.3,9.2,25H33z M3,61V9h21
	c-0.3,9.3-4.7,18.9-10,25.3c0,0,0,0-0.1,0.1c-2.7,3.2-5.6,5.6-8.3,6.7C5.3,41.2,5,41.5,5,41.9c0,0.4,0.1,0.7,0.4,0.9
	C10.3,46.1,16.3,55,16.9,61H3z M47.1,61c0.6-6,6.7-14.9,11.5-18.2c0.3-0.2,0.5-0.6,0.4-0.9c0-0.4-0.3-0.7-0.6-0.8
	C50.1,37.5,40.5,22.9,40,9h21v52H47.1z"/>
</svg>
