<?xml version="1.0" encoding="utf-8"?>
<!-- Generator: Adobe Illustrator 19.1.0, SVG Export Plug-In . SVG Version: 6.00 Build 0)  -->
<!DOCTYPE svg PUBLIC "-//W3C//DTD SVG 1.1//EN" "http://www.w3.org/Graphics/SVG/1.1/DTD/svg11.dtd">
<svg version="1.1" id="Layer_1" xmlns="http://www.w3.org/2000/svg" xmlns:xlink="http://www.w3.org/1999/xlink" x="0px" y="0px"
	 width="64px" height="64px" viewBox="0 0 64 64" enable-background="new 0 0 64 64" xml:space="preserve">
<path d="M58,26.1V15c0-3.9-3.1-7-7-7H13c-3.9,0-7,3.1-7,7v11.1C3.2,26.6,1,29,1,32v19c0,0.6,0.4,1,1,1h5v3c0,0.6,0.4,1,1,1
	s1-0.4,1-1v-3h46v3c0,0.6,0.4,1,1,1s1-0.4,1-1v-3h5c0.6,0,1-0.4,1-1V32C63,29,60.8,26.6,58,26.1z M56,15v11.1c-2.8,0.5-5,2.9-5,5.9
	v2.1c-1.3-1.3-3-2.1-5-2.1H33V10h18C53.8,10,56,12.2,56,15z M46,34c2.8,0,5,2.2,5,5H13c0-2.8,2.2-5,5-5H46z M13,10h18v22H18
	c-2,0-3.7,0.8-5,2.1V32c0-3-2.2-5.4-5-5.9V15C8,12.2,10.2,10,13,10z M61,50H3V32c0-2.2,1.8-4,4-4s4,1.8,4,4v7v1c0,0.6,0.4,1,1,1h40
	c0.6,0,1-0.4,1-1v-1v-7c0-2.2,1.8-4,4-4s4,1.8,4,4V50z"/>
</svg>
