<?xml version="1.0" encoding="utf-8"?>
<!-- Generator: Adobe Illustrator 19.1.0, SVG Export Plug-In . SVG Version: 6.00 Build 0)  -->
<!DOCTYPE svg PUBLIC "-//W3C//DTD SVG 1.1//EN" "http://www.w3.org/Graphics/SVG/1.1/DTD/svg11.dtd">
<svg version="1.1" id="Layer_1" xmlns="http://www.w3.org/2000/svg" xmlns:xlink="http://www.w3.org/1999/xlink" x="0px" y="0px"
	 width="64px" height="64px" viewBox="0 0 64 64" enable-background="new 0 0 64 64" xml:space="preserve">
<path d="M62,1H2C1.4,1,1,1.4,1,2v60c0,0.6,0.4,1,1,1h60c0.6,0,1-0.4,1-1V2C63,1.4,62.6,1,62,1z M61,3v6H3V3H61z M3,61V11h58v50H3z"
	/>
<path d="M32,17c-10.5,0-19,8.5-19,19s8.5,19,19,19s19-8.5,19-19S42.5,17,32,17z M32,53c-9.4,0-17-7.6-17-17s7.6-17,17-17
	s17,7.6,17,17S41.4,53,32,53z"/>
<path d="M37.2,34.7c-0.4-0.4-1-0.4-1.4,0c-1,1-2.4,1.6-3.8,1.6s-2.8-0.6-3.8-1.6c-0.4-0.4-1-0.4-1.4,0c-1.9,1.8-4.9,2.1-7.1,0.4
	c-0.3-0.2-0.7-0.3-1-0.1c-0.3,0.2-0.6,0.5-0.6,0.9c0,7.6,6.2,13.9,13.9,13.9S45.9,43.6,45.9,36c0-0.4-0.2-0.7-0.6-0.9
	c-0.3-0.2-0.7-0.1-1,0.1C42.1,36.8,39.1,36.6,37.2,34.7z M43.7,37.8c-0.9,5.7-5.8,10.1-11.7,10.1c-5.9,0-10.9-4.4-11.7-10.1
	c2.4,1,5.2,0.6,7.2-1c1.3,1,2.9,1.5,4.5,1.5s3.2-0.5,4.5-1.5C38.5,38.3,41.4,38.7,43.7,37.8z"/>
</svg>
