<?xml version="1.0" encoding="utf-8"?>
<!-- Generator: Adobe Illustrator 19.1.0, SVG Export Plug-In . SVG Version: 6.00 Build 0)  -->
<!DOCTYPE svg PUBLIC "-//W3C//DTD SVG 1.1//EN" "http://www.w3.org/Graphics/SVG/1.1/DTD/svg11.dtd">
<svg version="1.1" id="Layer_1" xmlns="http://www.w3.org/2000/svg" xmlns:xlink="http://www.w3.org/1999/xlink" x="0px" y="0px"
	 width="64px" height="64px" viewBox="0 0 64 64" enable-background="new 0 0 64 64" xml:space="preserve">
<path d="M51,22H39c-0.6,0-1,0.4-1,1s0.4,1,1,1h12c0.6,0,1-0.4,1-1S51.6,22,51,22z"/>
<path d="M63,8c0-0.6-0.4-1-1-1H2C1.4,7,1,7.4,1,8v48c0,0.6,0.4,1,1,1s1-0.4,1-1V16h24v40c0,0.6,0.4,1,1,1s1-0.4,1-1V32h32v24
	c0,0.6,0.4,1,1,1s1-0.4,1-1V15c0,0,0,0,0,0s0,0,0,0V8z M3,9h58v5H3V9z M29,30V16h32v14H29z"/>
</svg>
