<?xml version="1.0" encoding="utf-8"?>
<!-- Generator: Adobe Illustrator 19.1.0, SVG Export Plug-In . SVG Version: 6.00 Build 0)  -->
<!DOCTYPE svg PUBLIC "-//W3C//DTD SVG 1.1//EN" "http://www.w3.org/Graphics/SVG/1.1/DTD/svg11.dtd">
<svg version="1.1" id="Layer_1" xmlns="http://www.w3.org/2000/svg" xmlns:xlink="http://www.w3.org/1999/xlink" x="0px" y="0px"
	 width="64px" height="64px" viewBox="0 0 64 64" enable-background="new 0 0 64 64" xml:space="preserve">
<path d="M57,36H35h-6c-0.6,0-1,0.4-1,1v4c0,2.8,2.2,5,5,5h1c0,6.6,5.4,12,12,12s12-5.4,12-12v-9C58,36.4,57.6,36,57,36z M33,44
	c-1.7,0-3-1.3-3-3v-3h4v6H33z M56,46c0,5.5-4.5,10-10,10s-10-4.5-10-10v-8h20V46z"/>
<path d="M57,61H35c-0.6,0-1,0.4-1,1s0.4,1,1,1h22c0.6,0,1-0.4,1-1S57.6,61,57,61z"/>
<path d="M55,1H2C1.4,1,1,1.4,1,2v60c0,0.6,0.4,1,1,1h16c0.6,0,1-0.4,1-1l0-45h36c4.4,0,8-3.6,8-8S59.4,1,55,1z M55,15H18
	c-0.3,0-0.5,0.1-0.7,0.3S17,15.7,17,16l0,45H3V3h52c3.3,0,6,2.7,6,6S58.3,15,55,15z"/>
<path d="M51,28.2c0-2.7-3.8-7.4-4.2-7.9c-0.4-0.5-1.2-0.5-1.5,0c-0.4,0.5-4.2,5.2-4.2,7.9c0,3.1,2.6,4.8,5,4.8S51,31.3,51,28.2z
	 M43,28.2c0-1.2,1.6-3.8,3-5.6c1.4,1.8,3,4.4,3,5.6c0,1.8-1.5,2.8-3,2.8S43,30,43,28.2z"/>
</svg>
