<?xml version="1.0" encoding="utf-8"?>
<!-- Generator: Adobe Illustrator 19.1.0, SVG Export Plug-In . SVG Version: 6.00 Build 0)  -->
<!DOCTYPE svg PUBLIC "-//W3C//DTD SVG 1.1//EN" "http://www.w3.org/Graphics/SVG/1.1/DTD/svg11.dtd">
<svg version="1.1" id="Layer_1" xmlns="http://www.w3.org/2000/svg" xmlns:xlink="http://www.w3.org/1999/xlink" x="0px" y="0px"
	 width="64px" height="64px" viewBox="0 0 64 64" enable-background="new 0 0 64 64" xml:space="preserve">
<path d="M58,1c-0.6,0-1,0.4-1,1v5H7V2c0-0.6-0.4-1-1-1S5,1.4,5,2v60c0,0.6,0.4,1,1,1s1-0.4,1-1v-5h50v5c0,0.6,0.4,1,1,1s1-0.4,1-1V2
	C59,1.4,58.6,1,58,1z M7,25h50v14H7V25z M57,9v14H7V9H57z M7,55V41h50v14H7z"/>
</svg>
