<?xml version="1.0" encoding="utf-8"?>
<!-- Generator: Adobe Illustrator 19.1.0, SVG Export Plug-In . SVG Version: 6.00 Build 0)  -->
<!DOCTYPE svg PUBLIC "-//W3C//DTD SVG 1.1//EN" "http://www.w3.org/Graphics/SVG/1.1/DTD/svg11.dtd">
<svg version="1.1" id="Layer_1" xmlns="http://www.w3.org/2000/svg" xmlns:xlink="http://www.w3.org/1999/xlink" x="0px" y="0px"
	 width="64px" height="64px" viewBox="0 0 64 64" enable-background="new 0 0 64 64" xml:space="preserve">
<path d="M62,19c-0.6,0-1,0.4-1,1v13H21v-5c0-3.3-2.7-6-6-6H7c-1.5,0-2.9,0.6-4,1.5V8c0-0.6-0.4-1-1-1S1,7.4,1,8v20v6v22
	c0,0.6,0.4,1,1,1s1-0.4,1-1V45h58v11c0,0.6,0.4,1,1,1s1-0.4,1-1V20C63,19.4,62.6,19,62,19z M7,24h8c2.2,0,4,1.8,4,4v5H3v-5
	C3,25.8,4.8,24,7,24z M3,43v-8h58v8H3z"/>
</svg>
