<?xml version="1.0" encoding="utf-8"?>
<!-- Generator: Adobe Illustrator 19.1.0, SVG Export Plug-In . SVG Version: 6.00 Build 0)  -->
<!DOCTYPE svg PUBLIC "-//W3C//DTD SVG 1.1//EN" "http://www.w3.org/Graphics/SVG/1.1/DTD/svg11.dtd">
<svg version="1.1" id="Layer_1" xmlns="http://www.w3.org/2000/svg" xmlns:xlink="http://www.w3.org/1999/xlink" x="0px" y="0px"
	 width="64px" height="64px" viewBox="0 0 64 64" enable-background="new 0 0 64 64" xml:space="preserve">
<path d="M62,1H26C12.2,1,1,12.2,1,26c0,0.6,0.4,1,1,1h49v12.1c-4.7,1.1-10,9.6-10,14.9c0,5.6,4.2,9,10.8,9c0,0,0.1,0,0.1,0
	c0,0,0,0,0,0c0,0,0,0,0,0c6.8-0.1,11-3.5,11-9c0-5.3-5.3-13.8-10-14.9V27h9c0.6,0,1-0.4,1-1V2C63,1.4,62.6,1,62,1z M43,54
	c0-4.8,4.7-11.5,8-12.8V61C48.1,60.8,43,59.7,43,54z M61,54c0,5.6-5.2,6.7-8,7V41.2C56.3,42.5,61,49.2,61,54z M61,25H3
	C3.5,12.8,13.7,3,26,3h35V25z"/>
<path d="M33,17h18c2.2,0,4-1.8,4-4s-1.8-4-4-4H33c-2.2,0-4,1.8-4,4S30.8,17,33,17z M33,11h18c1.1,0,2,0.9,2,2s-0.9,2-2,2H33
	c-1.1,0-2-0.9-2-2S31.9,11,33,11z"/>
</svg>
