<?xml version="1.0" encoding="utf-8"?>
<!-- Generator: Adobe Illustrator 19.1.0, SVG Export Plug-In . SVG Version: 6.00 Build 0)  -->
<!DOCTYPE svg PUBLIC "-//W3C//DTD SVG 1.1//EN" "http://www.w3.org/Graphics/SVG/1.1/DTD/svg11.dtd">
<svg version="1.1" id="Layer_1" xmlns="http://www.w3.org/2000/svg" xmlns:xlink="http://www.w3.org/1999/xlink" x="0px" y="0px"
	 width="64px" height="64px" viewBox="0 0 64 64" enable-background="new 0 0 64 64" xml:space="preserve">
<path d="M58,27.2V10c0-3.9-3.1-7-7-7H13c-3.9,0-7,3.1-7,7v17.2c-2.9,0.7-5,3.3-5,6.3V55c0,0.6,0.4,1,1,1h5v4c0,0.6,0.4,1,1,1
	s1-0.4,1-1v-4h46v4c0,0.6,0.4,1,1,1s1-0.4,1-1v-4h5c0.6,0,1-0.4,1-1V33.5C63,30.4,60.9,27.9,58,27.2z M13,5h38c2.8,0,5,2.2,5,5v17
	c-3.4,0.3-6,3.1-6,6.5v3.6c-1.3-1.3-3-2.1-5-2.1H19c-2,0-3.7,0.8-5,2.1v-3.6c0-3.4-2.6-6.2-6-6.5V10C8,7.2,10.2,5,13,5z M14,42
	c0-2.8,2.2-5,5-5h26c2.8,0,5,2.2,5,5v2H14V42z M61,54H3V33.5C3,31,5,29,7.5,29s4.5,2,4.5,4.5V42v3c0,0.6,0.4,1,1,1h38
	c0.6,0,1-0.4,1-1v-3v-8.5c0-2.5,2-4.5,4.5-4.5s4.5,2,4.5,4.5V54z"/>
</svg>
