<?xml version="1.0" encoding="utf-8"?>
<!-- Generator: Adobe Illustrator 19.2.1, SVG Export Plug-In . SVG Version: 6.00 Build 0)  -->
<!DOCTYPE svg PUBLIC "-//W3C//DTD SVG 1.1//EN" "http://www.w3.org/Graphics/SVG/1.1/DTD/svg11.dtd">
<svg version="1.1" id="Layer_1" xmlns="http://www.w3.org/2000/svg" xmlns:xlink="http://www.w3.org/1999/xlink" x="0px" y="0px"
	 width="64px" height="64px" viewBox="0 0 64 64" enable-background="new 0 0 64 64" xml:space="preserve">
<path d="M24,14c-0.552,0-1,0.447-1,1v34c0,0.553,0.448,1,1,1h16c0.552,0,1-0.447,1-1V15c0-0.553-0.448-1-1-1H24z M39,48H25V16h14V48
	z"/>
<path d="M7,62V2c0-0.553-0.448-1-1-1S5,1.447,5,2v60c0,0.553,0.448,1,1,1S7,62.553,7,62z"/>
<path d="M59,62V2c0-0.553-0.448-1-1-1s-1,0.447-1,1v60c0,0.553,0.448,1,1,1S59,62.553,59,62z"/>
</svg>
