<?xml version="1.0" encoding="utf-8"?>
<!-- Generator: Adobe Illustrator 19.2.1, SVG Export Plug-In . SVG Version: 6.00 Build 0)  -->
<!DOCTYPE svg PUBLIC "-//W3C//DTD SVG 1.1//EN" "http://www.w3.org/Graphics/SVG/1.1/DTD/svg11.dtd">
<svg version="1.1" id="Layer_1" xmlns="http://www.w3.org/2000/svg" xmlns:xlink="http://www.w3.org/1999/xlink" x="0px" y="0px"
	 width="64px" height="64px" viewBox="0 0 64 64" enable-background="new 0 0 64 64" xml:space="preserve">
<path d="M62,55H2c-0.553,0-1,0.447-1,1s0.447,1,1,1h60c0.553,0,1-0.447,1-1S62.553,55,62,55z"/>
<path d="M12,7c-0.553,0-1,0.447-1,1v38c0,0.553,0.447,1,1,1h14c0.553,0,1-0.447,1-1V8c0-0.553-0.447-1-1-1H12z M25,45H13V9h12V45z"
	/>
<path d="M38,25c-0.553,0-1,0.447-1,1v20c0,0.553,0.447,1,1,1h14c0.553,0,1-0.447,1-1V26c0-0.553-0.447-1-1-1H38z M51,45H39V27h12V45
	z"/>
</svg>
