<?xml version="1.0" encoding="utf-8"?>
<!-- Generator: Adobe Illustrator 19.2.1, SVG Export Plug-In . SVG Version: 6.00 Build 0)  -->
<!DOCTYPE svg PUBLIC "-//W3C//DTD SVG 1.1//EN" "http://www.w3.org/Graphics/SVG/1.1/DTD/svg11.dtd">
<svg version="1.1" id="Layer_1" xmlns="http://www.w3.org/2000/svg" xmlns:xlink="http://www.w3.org/1999/xlink" x="0px" y="0px"
	 width="64px" height="64px" viewBox="0 0 64 64" enable-background="new 0 0 64 64" xml:space="preserve">
<path d="M2.293,46.293c-0.391,0.391-0.391,1.023,0,1.414l14,14C16.488,61.902,16.744,62,17,62s0.512-0.098,0.707-0.293L33,46.414
	l11.293,11.293c0.087,0.087,0.191,0.151,0.302,0.2c0.038,0.017,0.077,0.024,0.116,0.036c0.049,0.015,0.096,0.039,0.147,0.046l14,2
	C58.906,59.997,58.953,60,59,60c0.263,0,0.518-0.104,0.707-0.293c0.223-0.223,0.328-0.537,0.283-0.849l-2-14
	c-0.007-0.052-0.031-0.098-0.046-0.147c-0.012-0.039-0.019-0.078-0.036-0.116c-0.049-0.111-0.113-0.215-0.2-0.302L46.414,33
	l15.293-15.293c0.391-0.391,0.391-1.023,0-1.414l-14-14c-0.391-0.391-1.023-0.391-1.414,0L31,17.586L15.707,2.293
	c-0.391-0.391-1.023-0.391-1.414,0l-12,12c-0.391,0.391-0.391,1.023,0,1.414L17.586,31L2.293,46.293z M47.121,56.293l9.172-9.172
	l1.528,10.7L47.121,56.293z M55.586,45L45,55.586L34.414,45L45,34.414L55.586,45z M47,4.414L59.586,17L17,59.586L4.414,47L13,38.414
	l5.293,5.293C18.488,43.902,18.744,44,19,44s0.512-0.098,0.707-0.293c0.391-0.391,0.391-1.023,0-1.414L14.414,37L19,32.414
	l3.293,3.293C22.488,35.902,22.744,36,23,36s0.512-0.098,0.707-0.293c0.391-0.391,0.391-1.023,0-1.414L20.414,31L25,26.414
	l5.293,5.293C30.488,31.902,30.744,32,31,32s0.512-0.098,0.707-0.293c0.391-0.391,0.391-1.023,0-1.414L26.414,25L31,20.414
	l3.293,3.293C34.488,23.902,34.744,24,35,24s0.512-0.098,0.707-0.293c0.391-0.391,0.391-1.023,0-1.414L32.414,19L37,14.414
	l5.293,5.293C42.488,19.902,42.744,20,43,20s0.512-0.098,0.707-0.293c0.391-0.391,0.391-1.023,0-1.414L38.414,13L47,4.414z
	 M29.586,19L19,29.586L11.414,22L22,11.414L29.586,19z M15,4.414L20.586,10L10,20.586L4.414,15L15,4.414z"/>
</svg>
