<?xml version="1.0" encoding="utf-8"?>
<!-- Generator: Adobe Illustrator 19.2.1, SVG Export Plug-In . SVG Version: 6.00 Build 0)  -->
<!DOCTYPE svg PUBLIC "-//W3C//DTD SVG 1.1//EN" "http://www.w3.org/Graphics/SVG/1.1/DTD/svg11.dtd">
<svg version="1.1" id="Layer_1" xmlns="http://www.w3.org/2000/svg" xmlns:xlink="http://www.w3.org/1999/xlink" x="0px" y="0px"
	 width="64px" height="64px" viewBox="0 0 64 64" enable-background="new 0 0 64 64" xml:space="preserve">
<path fill="#222221" d="M5,2v34c0,0.552,0.448,1,1,1h22c0.552,0,1-0.448,1-1V2c0-0.552-0.448-1-1-1H6C5.448,1,5,1.448,5,2z M7,3h20
	v32H7V3z"/>
<path fill="#222221" d="M5,62c0,0.552,0.448,1,1,1h22c0.552,0,1-0.448,1-1V44c0-0.552-0.448-1-1-1H6c-0.552,0-1,0.448-1,1V62z M7,45
	h20v16H7V45z"/>
<path fill="#222221" d="M35,2v18c0,0.552,0.448,1,1,1h22c0.552,0,1-0.448,1-1V2c0-0.552-0.448-1-1-1H36C35.448,1,35,1.448,35,2z
	 M37,3h20v16H37V3z"/>
<path fill="#222221" d="M59,28c0-0.552-0.448-1-1-1H36c-0.552,0-1,0.448-1,1v34c0,0.552,0.448,1,1,1h22c0.552,0,1-0.448,1-1V28z
	 M57,61H37V29h20V61z"/>
</svg>
