<?xml version="1.0" encoding="utf-8"?>
<!-- Generator: Adobe Illustrator 19.2.1, SVG Export Plug-In . SVG Version: 6.00 Build 0)  -->
<!DOCTYPE svg PUBLIC "-//W3C//DTD SVG 1.1//EN" "http://www.w3.org/Graphics/SVG/1.1/DTD/svg11.dtd">
<svg version="1.1" id="Layer_1" xmlns="http://www.w3.org/2000/svg" xmlns:xlink="http://www.w3.org/1999/xlink" x="0px" y="0px"
	 width="64px" height="64px" viewBox="0 0 64 64" enable-background="new 0 0 64 64" xml:space="preserve">
<path d="M32,55c0.553,0,1-0.448,1-1v-2c0-0.552-0.447-1-1-1s-1,0.448-1,1v2C31,54.552,31.447,55,32,55z"/>
<path d="M32,63c3.859,0,7-3.14,7-7V43h9c3.859,0,7-3.14,7-7V2c0-0.552-0.447-1-1-1H10C9.447,1,9,1.448,9,2v34c0,3.86,3.141,7,7,7h9
	v13C25,59.86,28.141,63,32,63z M11,11h26v10c0,2.206,1.794,4,4,4s4-1.794,4-4V11h8v20H11V11z M53,3v6h-9c-0.553,0-1,0.448-1,1v11
	c0,1.103-0.897,2-2,2s-2-0.897-2-2V10c0-0.552-0.447-1-1-1H11V3H53z M16,41c-2.757,0-5-2.243-5-5v-3h42v3c0,2.757-2.243,5-5,5H38
	c-0.553,0-1,0.448-1,1v14c0,2.757-2.243,5-5,5s-5-2.243-5-5V42c0-0.552-0.447-1-1-1H16z"/>
</svg>
