<?xml version="1.0" encoding="utf-8"?>
<!-- Generator: Adobe Illustrator 19.2.1, SVG Export Plug-In . SVG Version: 6.00 Build 0)  -->
<!DOCTYPE svg PUBLIC "-//W3C//DTD SVG 1.1//EN" "http://www.w3.org/Graphics/SVG/1.1/DTD/svg11.dtd">
<svg version="1.1" id="Layer_1" xmlns="http://www.w3.org/2000/svg" xmlns:xlink="http://www.w3.org/1999/xlink" x="0px" y="0px"
	 width="64px" height="64px" viewBox="0 0 64 64" enable-background="new 0 0 64 64" xml:space="preserve">
<path fill="#222221" d="M62,1H52c-0.552,0-1,0.448-1,1v4H13V2c0-0.552-0.448-1-1-1H2C1.448,1,1,1.448,1,2v10c0,0.552,0.448,1,1,1h4
	v38H2c-0.552,0-1,0.448-1,1v10c0,0.552,0.448,1,1,1h10c0.552,0,1-0.448,1-1v-4h38v4c0,0.552,0.448,1,1,1h10c0.552,0,1-0.448,1-1V52
	c0-0.552-0.448-1-1-1h-4V13h4c0.552,0,1-0.448,1-1V2C63,1.448,62.552,1,62,1z M3,3h8v8H3V3z M11,61H3v-8h8V61z M61,61h-8v-8h8V61z
	 M56,51h-4c-0.552,0-1,0.448-1,1v4H13v-4c0-0.552-0.448-1-1-1H8V13h4c0.552,0,1-0.448,1-1V8h38v4c0,0.552,0.448,1,1,1h4V51z M61,11
	h-8V3h8V11z"/>
<path fill="#222221" d="M40,17c0.552,0,1-0.448,1-1s-0.448-1-1-1c-3.483,0-6.505,1.993-8,4.896C30.505,16.993,27.483,15,24,15
	c-0.552,0-1,0.448-1,1s0.448,1,1,1c3.86,0,7,3.14,7,7v11h-7c-0.552,0-1,0.448-1,1s0.448,1,1,1h7v3c0,3.86-3.14,7-7,7
	c-0.552,0-1,0.448-1,1s0.448,1,1,1c3.483,0,6.505-1.993,8-4.896C33.495,47.007,36.517,49,40,49c0.552,0,1-0.448,1-1s-0.448-1-1-1
	c-3.86,0-7-3.14-7-7v-3h7c0.552,0,1-0.448,1-1s-0.448-1-1-1h-7V24C33,20.14,36.14,17,40,17z"/>
</svg>
