<?xml version="1.0" encoding="utf-8"?>
<!-- Generator: Adobe Illustrator 19.2.1, SVG Export Plug-In . SVG Version: 6.00 Build 0)  -->
<!DOCTYPE svg PUBLIC "-//W3C//DTD SVG 1.1//EN" "http://www.w3.org/Graphics/SVG/1.1/DTD/svg11.dtd">
<svg version="1.1" id="Layer_1" xmlns="http://www.w3.org/2000/svg" xmlns:xlink="http://www.w3.org/1999/xlink" x="0px" y="0px"
	 width="64px" height="64px" viewBox="0 0 64 64" enable-background="new 0 0 64 64" xml:space="preserve">
<path d="M55,61c0-0.553-0.447-1-1-1H10c-0.553,0-1,0.447-1,1s0.447,1,1,1h44C54.553,62,55,61.553,55,61z"/>
<path d="M5.658,44.061C5.263,44.204,5,44.579,5,45v10c0,0.553,0.447,1,1,1h52c0.553,0,1-0.447,1-1V45
	c0-0.421-0.263-0.796-0.658-0.939L37,36.3V13.535l5.555-3.704C42.833,9.646,43,9.333,43,8.999V3c0-0.553-0.447-1-1-1H22
	c-0.553,0-1,0.447-1,1v5.999c0,0.334,0.167,0.646,0.445,0.832L27,13.535V36.3L5.658,44.061z M28.555,12.168L23,8.464V4h18v4.464
	l-5.555,3.704C35.167,12.354,35,12.666,35,13v24c0,0.421,0.263,0.796,0.658,0.939L57,45.7V54H7v-8.3l21.342-7.761
	C28.737,37.796,29,37.421,29,37V13C29,12.666,28.833,12.354,28.555,12.168z"/>
</svg>
