<?xml version="1.0" encoding="utf-8"?>
<!-- Generator: Adobe Illustrator 19.2.1, SVG Export Plug-In . SVG Version: 6.00 Build 0)  -->
<!DOCTYPE svg PUBLIC "-//W3C//DTD SVG 1.1//EN" "http://www.w3.org/Graphics/SVG/1.1/DTD/svg11.dtd">
<svg version="1.1" id="Layer_1" xmlns="http://www.w3.org/2000/svg" xmlns:xlink="http://www.w3.org/1999/xlink" x="0px" y="0px"
	 width="64px" height="64px" viewBox="0 0 64 64" enable-background="new 0 0 64 64" xml:space="preserve">
<path fill="#222221" d="M46.956,4.885C41.27,1.379,34.962,1,32.515,1C17.116,1,4.559,12.852,3.304,28.569
	c-0.036,0.456,0.242,0.879,0.676,1.025c0.43,0.148,0.911-0.019,1.161-0.403C5.18,29.13,9.196,23.005,16.047,18.74
	c4.105-2.556,10.109-4.272,14.94-4.272c3.706,0,6.536,1.045,8.412,3.105c2.294,2.521,2.633,5.987,2.654,7.609H22.912
	c0.545-2.875,1.902-5.766,3.743-7.911c0.301-0.351,0.322-0.86,0.053-1.235c-0.269-0.375-0.761-0.516-1.188-0.343
	c-0.226,0.092-5.584,2.302-9.893,7.318c-3.402,3.962-5.354,9.473-5.354,15.169c0,1.48,0,4.236,0.799,7.073
	C14.162,56.2,24.032,63,36.83,63c10.874,0,18.033-4.333,18.332-4.518c0.296-0.183,0.476-0.505,0.476-0.852l-0.005-12.648
	c0-0.371-0.205-0.712-0.533-0.885c-0.328-0.174-0.725-0.15-1.031,0.06c-4.2,2.87-9.468,4.326-15.656,4.326
	c-5.745,0-9.987-1.419-12.605-4.218c-2.164-2.312-2.671-5.044-2.782-6.443h36.661c0.553,0,1-0.447,1-1l0.007-1.678
	c0.024-4.118,0.052-8.785-1.13-13.623C57.87,14.597,53.63,8.999,46.956,4.885z M58.692,35.133c-0.002,0.231-0.003,0.461-0.004,0.689
	H22.003c-0.524,0-0.959,0.404-0.997,0.928c-0.015,0.2-0.315,4.951,3.313,8.854c3.011,3.238,7.752,4.88,14.093,4.88
	c5.861,0,10.972-1.241,15.222-3.692l0.004,10.256C51.909,57.976,45.604,61,36.83,61c-11.864,0-20.996-6.241-23.831-16.289
	c-0.725-2.57-0.725-5.049-0.725-6.579c0-5.177,1.775-10.213,4.871-13.817c1.859-2.165,3.963-3.779,5.681-4.888
	c-1.079,2.081-1.812,4.394-2.07,6.642c-0.033,0.283,0.057,0.567,0.247,0.779c0.189,0.213,0.461,0.335,0.746,0.335h21.277
	c0.515,0,0.945-0.391,0.995-0.902c0.023-0.243,0.54-5.992-3.13-10.039c-2.271-2.504-5.604-3.773-9.904-3.773
	c-5.254,0-11.533,1.796-15.997,4.575c-4.109,2.558-7.212,5.688-9.158,7.967C8.511,12.23,19.409,3,32.515,3
	c2.277,0,8.141,0.35,13.393,3.588c6.209,3.828,10.149,9.013,11.712,15.408C58.743,26.595,58.716,31.13,58.692,35.133z"/>
</svg>
