<?xml version="1.0" encoding="utf-8"?>
<!-- Generator: Adobe Illustrator 19.2.1, SVG Export Plug-In . SVG Version: 6.00 Build 0)  -->
<!DOCTYPE svg PUBLIC "-//W3C//DTD SVG 1.1//EN" "http://www.w3.org/Graphics/SVG/1.1/DTD/svg11.dtd">
<svg version="1.1" id="Layer_1" xmlns="http://www.w3.org/2000/svg" xmlns:xlink="http://www.w3.org/1999/xlink" x="0px" y="0px"
	 width="64px" height="64px" viewBox="0 0 64 64" enable-background="new 0 0 64 64" xml:space="preserve">
<path d="M47,17c0,0.552,0.448,1,1,1h10c0.552,0,1-0.448,1-1s-0.448-1-1-1H48C47.448,16,47,16.448,47,17z"/>
<path d="M44.293,25.707l6,6C50.488,31.902,50.744,32,51,32s0.512-0.098,0.707-0.293c0.391-0.391,0.391-1.023,0-1.414l-6-6
	c-0.391-0.391-1.023-0.391-1.414,0S43.902,25.316,44.293,25.707z"/>
<path d="M50.293,2.293l-6,6c-0.391,0.391-0.391,1.023,0,1.414C44.488,9.902,44.744,10,45,10s0.512-0.098,0.707-0.293l6-6
	c0.391-0.391,0.391-1.023,0-1.414S50.684,1.902,50.293,2.293z"/>
<path d="M5,31v31c0,0.552,0.448,1,1,1h32c0.552,0,1-0.448,1-1V31c0-7.168-5.832-13-13-13h-8C10.832,18,5,23.832,5,31z M7,61V32h30
	v29H7z M18,20h8c5.728,0,10.442,4.402,10.949,10H7.051C7.558,24.402,12.272,20,18,20z"/>
<path d="M27,15c0.552,0,1-0.448,1-1V6c0-0.552-0.448-1-1-1H17c-0.552,0-1,0.448-1,1v8c0,0.552,0.448,1,1,1H27z M18,7h8v6h-8V7z"/>
</svg>
