<?xml version="1.0" encoding="utf-8"?>
<!-- Generator: Adobe Illustrator 19.2.1, SVG Export Plug-In . SVG Version: 6.00 Build 0)  -->
<!DOCTYPE svg PUBLIC "-//W3C//DTD SVG 1.1//EN" "http://www.w3.org/Graphics/SVG/1.1/DTD/svg11.dtd">
<svg version="1.1" id="Layer_1" xmlns="http://www.w3.org/2000/svg" xmlns:xlink="http://www.w3.org/1999/xlink" x="0px" y="0px"
	 width="64px" height="64px" viewBox="0 0 64 64" enable-background="new 0 0 64 64" xml:space="preserve">
<path fill="#222221" d="M42,19H22c-0.552,0-1,0.447-1,1v24c0,0.553,0.448,1,1,1h20c0.552,0,1-0.447,1-1V20
	C43,19.447,42.552,19,42,19z M41,43H23V21h18V43z"/>
<path fill="#222221" d="M57,7H7c-3.309,0-6,2.691-6,6v38c0,3.309,2.691,6,6,6h50c3.309,0,6-2.691,6-6V13C63,9.691,60.309,7,57,7z
	 M61,43h-8V21h8V43z M3,21h8v22H3V21z M57,55H7c-2.206,0-4-1.794-4-4v-6h9c0.552,0,1-0.447,1-1V20c0-0.553-0.448-1-1-1H3v-6
	c0-2.206,1.794-4,4-4h50c2.206,0,4,1.794,4,4v6h-9c-0.552,0-1,0.447-1,1v24c0,0.553,0.448,1,1,1h9v6C61,53.206,59.206,55,57,55z"/>
</svg>
