<?xml version="1.0" encoding="utf-8"?>
<!-- Generator: Adobe Illustrator 19.2.1, SVG Export Plug-In . SVG Version: 6.00 Build 0)  -->
<!DOCTYPE svg PUBLIC "-//W3C//DTD SVG 1.1//EN" "http://www.w3.org/Graphics/SVG/1.1/DTD/svg11.dtd">
<svg version="1.1" id="Layer_1" xmlns="http://www.w3.org/2000/svg" xmlns:xlink="http://www.w3.org/1999/xlink" x="0px" y="0px"
	 width="64px" height="64px" viewBox="0 0 64 64" enable-background="new 0 0 64 64" xml:space="preserve">
<path fill="#222221" d="M32.346,61.93c0.037-0.014,0.07-0.032,0.104-0.05c0.037-0.019,0.076-0.029,0.111-0.053l28-19
	c0.225-0.152,0.378-0.391,0.424-0.658s-0.019-0.543-0.181-0.762l-28-38c-0.012-0.016-0.032-0.021-0.045-0.036
	C32.576,3.149,32.31,3,32,3s-0.576,0.149-0.759,0.37c-0.013,0.015-0.033,0.02-0.045,0.036l-28,38
	c-0.162,0.219-0.227,0.494-0.181,0.762s0.199,0.506,0.424,0.658l28,19c0.035,0.024,0.074,0.034,0.111,0.053
	c0.035,0.018,0.067,0.036,0.104,0.05C31.766,61.972,31.882,62,32,62C32.118,62,32.234,61.972,32.346,61.93z M33,59.112V7.043
	l25.578,34.713L33,59.112z M31,7.043v52.07L5.422,41.756L31,7.043z"/>
</svg>
