<?xml version="1.0" encoding="utf-8"?>
<!-- Generator: Adobe Illustrator 19.2.1, SVG Export Plug-In . SVG Version: 6.00 Build 0)  -->
<!DOCTYPE svg PUBLIC "-//W3C//DTD SVG 1.1//EN" "http://www.w3.org/Graphics/SVG/1.1/DTD/svg11.dtd">
<svg version="1.1" id="Layer_1" xmlns="http://www.w3.org/2000/svg" xmlns:xlink="http://www.w3.org/1999/xlink" x="0px" y="0px"
	 width="64px" height="64px" viewBox="0 0 64 64" enable-background="new 0 0 64 64" xml:space="preserve">
<path d="M56,25H8c-0.553,0-1,0.448-1,1v26c0,0.552,0.447,1,1,1h48c0.553,0,1-0.448,1-1V26C57,25.448,56.553,25,56,25z M55,27v6H9v-6
	H55z M9,35h9v16H9V35z M20,51V35h35v16H20z"/>
<path d="M10,14h4c0.553,0,1-0.448,1-1s-0.447-1-1-1h-4c-0.553,0-1,0.448-1,1S9.447,14,10,14z"/>
<path d="M20,14h4c0.553,0,1-0.448,1-1s-0.447-1-1-1h-4c-0.553,0-1,0.448-1,1S19.447,14,20,14z"/>
<path d="M43,14h11c0.553,0,1-0.448,1-1s-0.447-1-1-1H43c-0.553,0-1,0.448-1,1S42.447,14,43,14z"/>
<path d="M2,59h60c0.553,0,1-0.448,1-1V6c0-0.552-0.447-1-1-1H2C1.447,5,1,5.448,1,6v52C1,58.552,1.447,59,2,59z M3,57V21h58v36H3z
	 M61,7v12H3V7H61z"/>
</svg>
