<?xml version="1.0" encoding="utf-8"?>
<!-- Generator: Adobe Illustrator 19.2.1, SVG Export Plug-In . SVG Version: 6.00 Build 0)  -->
<!DOCTYPE svg PUBLIC "-//W3C//DTD SVG 1.1//EN" "http://www.w3.org/Graphics/SVG/1.1/DTD/svg11.dtd">
<svg version="1.1" id="Layer_1" xmlns="http://www.w3.org/2000/svg" xmlns:xlink="http://www.w3.org/1999/xlink" x="0px" y="0px"
	 width="64px" height="64px" viewBox="0 0 64 64" enable-background="new 0 0 64 64" xml:space="preserve">
<path d="M49.243,2.829C48.109,1.695,46.603,1.071,45,1.071s-3.109,0.624-4.243,1.757l-37,37C2.624,40.962,2,42.468,2,44.071
	c0,1.603,0.624,3.109,1.757,4.243l11.929,11.929C16.82,61.376,18.326,62,19.929,62c1.603,0,3.109-0.624,4.242-1.757l37-37
	c1.133-1.133,1.757-2.64,1.757-4.243s-0.624-3.109-1.757-4.243L49.243,2.829z M32,49.586L14.414,32L34,12.414L51.586,30L32,49.586z
	 M22.757,58.829c-1.56,1.56-4.098,1.559-5.657,0L5.171,46.899c-1.56-1.56-1.56-4.097,0-5.657L13,33.414L30.586,51L22.757,58.829z
	 M59.757,21.829L53,28.586L35.414,11l6.757-6.757c0.78-0.78,1.804-1.169,2.829-1.169s2.049,0.39,2.829,1.169l11.929,11.929
	C61.317,17.731,61.317,20.269,59.757,21.829z"/>
<path d="M26,28c-1.654,0-3,1.346-3,3s1.346,3,3,3s3-1.346,3-3S27.654,28,26,28z M26,32c-0.551,0-1-0.449-1-1s0.449-1,1-1
	s1,0.449,1,1S26.551,32,26,32z"/>
<path d="M33,35c-1.654,0-3,1.346-3,3s1.346,3,3,3s3-1.346,3-3S34.654,35,33,35z M33,39c-0.551,0-1-0.449-1-1s0.449-1,1-1
	s1,0.449,1,1S33.551,39,33,39z"/>
<path d="M33,21c-1.654,0-3,1.346-3,3s1.346,3,3,3s3-1.346,3-3S34.654,21,33,21z M33,25c-0.551,0-1-0.449-1-1s0.449-1,1-1
	s1,0.449,1,1S33.551,25,33,25z"/>
<path d="M40,28c-1.654,0-3,1.346-3,3s1.346,3,3,3s3-1.346,3-3S41.654,28,40,28z M40,32c-0.551,0-1-0.449-1-1s0.449-1,1-1
	s1,0.449,1,1S40.551,32,40,32z"/>
</svg>
