<?xml version="1.0" encoding="utf-8"?>
<!-- Generator: Adobe Illustrator 19.2.1, SVG Export Plug-In . SVG Version: 6.00 Build 0)  -->
<!DOCTYPE svg PUBLIC "-//W3C//DTD SVG 1.1//EN" "http://www.w3.org/Graphics/SVG/1.1/DTD/svg11.dtd">
<svg version="1.1" id="Layer_1" xmlns="http://www.w3.org/2000/svg" xmlns:xlink="http://www.w3.org/1999/xlink" x="0px" y="0px"
	 width="64px" height="64px" viewBox="0 0 64 64" enable-background="new 0 0 64 64" xml:space="preserve">
<path d="M36,13c1.654,0,3-1.346,3-3s-1.346-3-3-3s-3,1.346-3,3S34.346,13,36,13z M36,9c0.551,0,1,0.449,1,1s-0.449,1-1,1
	s-1-0.449-1-1S35.449,9,36,9z"/>
<path d="M20,63h24c0.552,0,1-0.448,1-1V2c0-0.552-0.448-1-1-1H20c-0.552,0-1,0.448-1,1v60C19,62.552,19.448,63,20,63z M43,3v58H21
	v-8h5c0.552,0,1-0.448,1-1s-0.448-1-1-1h-5v-6h7c0.552,0,1-0.448,1-1s-0.448-1-1-1h-7v-6h5c0.552,0,1-0.448,1-1s-0.448-1-1-1h-5v-6
	h7c0.552,0,1-0.448,1-1s-0.448-1-1-1h-7v-6h5c0.552,0,1-0.448,1-1s-0.448-1-1-1h-5v-6h7c0.552,0,1-0.448,1-1s-0.448-1-1-1h-7V3H43z"
	/>
</svg>
