<?xml version="1.0" encoding="utf-8"?>
<!-- Generator: Adobe Illustrator 19.2.1, SVG Export Plug-In . SVG Version: 6.00 Build 0)  -->
<!DOCTYPE svg PUBLIC "-//W3C//DTD SVG 1.1//EN" "http://www.w3.org/Graphics/SVG/1.1/DTD/svg11.dtd">
<svg version="1.1" id="Layer_1" xmlns="http://www.w3.org/2000/svg" xmlns:xlink="http://www.w3.org/1999/xlink" x="0px" y="0px"
	 width="64px" height="64px" viewBox="0 0 64 64" enable-background="new 0 0 64 64" xml:space="preserve">
<path d="M14,23h8h20h8c4.962,0,9-4.038,9-9s-4.038-9-9-9s-9,4.038-9,9v7H23v-7c0-4.962-4.038-9-9-9s-9,4.038-9,9S9.038,23,14,23z
	 M43,14c0-3.86,3.14-7,7-7s7,3.14,7,7s-3.14,7-7,7h-7V14z M14,7c3.86,0,7,3.14,7,7v7h-7c-3.86,0-7-3.14-7-7S10.14,7,14,7z"/>
<path d="M14,59c4.962,0,9-4.038,9-9v-2c0-0.552-0.448-1-1-1s-1,0.448-1,1v2c0,3.86-3.14,7-7,7s-7-3.14-7-7s3.14-7,7-7h8h20h8
	c3.86,0,7,3.14,7,7s-3.14,7-7,7s-7-3.14-7-7v-2c0-0.552-0.448-1-1-1s-1,0.448-1,1v2c0,4.962,4.038,9,9,9s9-4.038,9-9s-4.038-9-9-9
	h-7V28c0-0.552-0.448-1-1-1s-1,0.448-1,1v13H23V28c0-0.552-0.448-1-1-1s-1,0.448-1,1v13h-7c-4.962,0-9,4.038-9,9S9.038,59,14,59z"/>
</svg>
