<?xml version="1.0" encoding="utf-8"?>
<!-- Generator: Adobe Illustrator 19.2.1, SVG Export Plug-In . SVG Version: 6.00 Build 0)  -->
<!DOCTYPE svg PUBLIC "-//W3C//DTD SVG 1.1//EN" "http://www.w3.org/Graphics/SVG/1.1/DTD/svg11.dtd">
<svg version="1.1" id="Layer_1" xmlns="http://www.w3.org/2000/svg" xmlns:xlink="http://www.w3.org/1999/xlink" x="0px" y="0px"
	 width="64px" height="64px" viewBox="0 0 64 64" enable-background="new 0 0 64 64" xml:space="preserve">
<path d="M2,63h12c0.553,0,1-0.448,1-1v-5h34v5c0,0.552,0.447,1,1,1h12c0.553,0,1-0.448,1-1V50c0-0.552-0.447-1-1-1h-5V15h5
	c0.553,0,1-0.448,1-1V2c0-0.552-0.447-1-1-1H50c-0.553,0-1,0.448-1,1v5H15V2c0-0.552-0.447-1-1-1H2C1.447,1,1,1.448,1,2v12
	c0,0.552,0.447,1,1,1h5v34H2c-0.553,0-1,0.448-1,1v12C1,62.552,1.447,63,2,63z M61,61H51V51h10V61z M51,3h10v10H51V3z M3,3h10v10H3
	V3z M9,15h5c0.553,0,1-0.448,1-1V9h34v5c0,0.552,0.447,1,1,1h5v34h-5c-0.553,0-1,0.448-1,1v5H15v-5c0-0.552-0.447-1-1-1H9V15z M3,51
	h10v10H3V51z"/>
</svg>
