<?xml version="1.0" encoding="utf-8"?>
<!-- Generator: Adobe Illustrator 19.2.1, SVG Export Plug-In . SVG Version: 6.00 Build 0)  -->
<!DOCTYPE svg PUBLIC "-//W3C//DTD SVG 1.1//EN" "http://www.w3.org/Graphics/SVG/1.1/DTD/svg11.dtd">
<svg version="1.1" id="Layer_1" xmlns="http://www.w3.org/2000/svg" xmlns:xlink="http://www.w3.org/1999/xlink" x="0px" y="0px"
	 width="64px" height="64px" viewBox="0 0 64 64" enable-background="new 0 0 64 64" xml:space="preserve">
<path fill="#222221" d="M29,3H4C3.448,3,3,3.447,3,4v25c0,0.553,0.448,1,1,1h25c0.552,0,1-0.447,1-1V4C30,3.447,29.552,3,29,3z
	 M28,28H5V5h23V28z"/>
<path fill="#222221" d="M60,3H35c-0.552,0-1,0.447-1,1v25c0,0.553,0.448,1,1,1h25c0.552,0,1-0.447,1-1V4C61,3.447,60.552,3,60,3z
	 M59,28H36V5h23V28z"/>
<path fill="#222221" d="M29,34H4c-0.552,0-1,0.447-1,1v25c0,0.553,0.448,1,1,1h25c0.552,0,1-0.447,1-1V35C30,34.447,29.552,34,29,34
	z M28,59H5V36h23V59z"/>
<path fill="#222221" d="M60,34H35c-0.552,0-1,0.447-1,1v25c0,0.553,0.448,1,1,1h25c0.552,0,1-0.447,1-1V35
	C61,34.447,60.552,34,60,34z M59,59H36V36h23V59z"/>
</svg>
