<?xml version="1.0" encoding="utf-8"?>
<!-- Generator: Adobe Illustrator 19.2.1, SVG Export Plug-In . SVG Version: 6.00 Build 0)  -->
<!DOCTYPE svg PUBLIC "-//W3C//DTD SVG 1.1//EN" "http://www.w3.org/Graphics/SVG/1.1/DTD/svg11.dtd">
<svg version="1.1" id="Layer_1" xmlns="http://www.w3.org/2000/svg" xmlns:xlink="http://www.w3.org/1999/xlink" x="0px" y="0px"
	 width="64px" height="64px" viewBox="0 0 64 64" enable-background="new 0 0 64 64" xml:space="preserve">
<path fill="#222221" d="M26,29h16c0.549,0,0.995-0.441,1-0.99c0.002-0.161,0.008-3.98-2.603-6.616C38.824,19.805,36.672,19,34,19
	c-2.813,0-5.039,0.837-6.617,2.488c-2.529,2.647-2.389,6.398-2.382,6.558C25.025,28.579,25.466,29,26,29z M28.829,22.869
	C30.015,21.629,31.754,21,34,21c2.112,0,3.782,0.602,4.965,1.789c1.317,1.322,1.782,3.113,1.946,4.211H27.049
	C27.169,25.938,27.562,24.195,28.829,22.869z"/>
<path fill="#222221" d="M46.49,10.278c-0.482-0.276-1.091-0.107-1.364,0.372c-0.274,0.48-0.107,1.091,0.372,1.364
	C50.764,15.02,56.969,21.087,57.088,33H26c-0.527,0-0.964,0.409-0.998,0.936c-0.014,0.217-0.31,5.35,2.71,8.57
	C29.264,44.161,31.379,45,34,45c4.07,0,5.754-2.252,6.448-4h15.638c-1.921,5.047-7.411,14.002-22.165,14.002
	c-12.584,0-18.644-5.347-21.136-8.533c-0.34-0.434-0.969-0.513-1.404-0.172c-0.435,0.341-0.512,0.969-0.172,1.404
	c2.717,3.474,9.279,9.301,22.712,9.301c17.456,0,22.964-11.683,24.522-16.706c0.094-0.303,0.038-0.633-0.15-0.889
	S57.806,39,57.488,39H39.731c-0.448,0-0.842,0.298-0.963,0.729C38.159,41.899,36.555,43,34,43c-2.042,0-3.665-0.624-4.822-1.855
	c-1.747-1.857-2.11-4.688-2.175-6.145h31.081c0.545,0,0.99-0.438,1-0.982C59.323,20.474,52.367,13.632,46.49,10.278z"/>
<path fill="#222221" d="M53.564,1.016c-3.782,0-10.1,2.294-16.759,6.037c-3.471-0.572-11.661-1.15-19.975,3.878
	C10.559,14.929,6.704,21.224,5.683,29.136c-0.511,3.964,0.625,8.403,0.985,9.67c-1.907,4.309-2.864,7.798-3.37,9.65
	c-0.09,0.331-0.167,0.612-0.233,0.843c-0.701,2.414-0.843,7.206,1.639,10.51C6.271,61.896,8.643,63,11.561,63
	c2.094,0,4.37-0.423,6.767-1.256c0.521-0.182,0.798-0.751,0.616-1.272c-0.182-0.522-0.753-0.799-1.272-0.616
	c-2.185,0.76-4.24,1.145-6.11,1.145c-2.296,0-4.065-0.805-5.258-2.393c-2.027-2.699-1.884-6.8-1.318-8.751
	c0.069-0.238,0.149-0.53,0.243-0.873c1.137-4.166,4.598-16.844,16.563-28.274C31.795,10.744,47.086,3.016,53.657,3.012
	c0.033-0.006,3.141-0.268,4.739,1.845c1.472,1.944,1.287,5.47-0.534,10.197c-0.199,0.515,0.058,1.094,0.573,1.292
	c0.514,0.2,1.094-0.057,1.292-0.573c2.114-5.483,2.202-9.562,0.264-12.123C57.727,0.659,53.644,1.005,53.564,1.016z M20.395,19.277
	C14.509,24.9,10.633,30.804,8.044,35.919c-0.352-1.815-0.666-4.288-0.377-6.528c0.657-5.094,2.967-12.14,10.218-16.762
	c6.123-3.702,12.179-4.132,16.044-3.888C29.175,11.677,24.405,15.282,20.395,19.277z"/>
</svg>
