<?xml version="1.0" encoding="utf-8"?>
<!-- Generator: Adobe Illustrator 19.2.1, SVG Export Plug-In . SVG Version: 6.00 Build 0)  -->
<!DOCTYPE svg PUBLIC "-//W3C//DTD SVG 1.1//EN" "http://www.w3.org/Graphics/SVG/1.1/DTD/svg11.dtd">
<svg version="1.1" id="Layer_1" xmlns="http://www.w3.org/2000/svg" xmlns:xlink="http://www.w3.org/1999/xlink" x="0px" y="0px"
	 width="64px" height="64px" viewBox="0 0 64 64" enable-background="new 0 0 64 64" xml:space="preserve">
<path d="M52.527,4.406l-35.891,30.23c-0.123,0.123-0.232,0.257-0.347,0.387c-3.089,0.118-5.978,1.363-8.177,3.561
	C3.667,43.028,3.026,59.274,3,59.963c-0.01,0.278,0.096,0.547,0.292,0.744C3.481,60.895,3.735,61,4,61c0.012,0,0.024,0,0.037,0
	c0.689-0.025,16.935-0.667,21.379-5.112c2.196-2.196,3.441-5.083,3.56-8.169c0.145-0.127,0.295-0.265,0.445-0.418l30.114-35.765
	c1.949-1.95,1.949-5.122,0-7.071C57.586,2.516,54.415,2.516,52.527,4.406z M24.002,54.474c-2.997,2.997-13.827,4.188-18.952,4.476
	c0.287-5.125,1.477-15.953,4.476-18.952C11.46,38.065,14.03,37,16.764,37s5.304,1.065,7.238,2.998
	C25.935,41.932,27,44.502,27,47.236S25.935,52.54,24.002,54.474z M58.063,10.185L28.784,44.959c-0.45-2.4-1.604-4.61-3.368-6.375
	c-1.763-1.763-3.971-2.917-6.37-3.367L53.878,5.878c1.169-1.169,3.073-1.17,4.243,0C59.291,7.048,59.291,8.952,58.063,10.185z"/>
</svg>
