<?xml version="1.0" encoding="utf-8"?>
<!-- Generator: Adobe Illustrator 19.2.1, SVG Export Plug-In . SVG Version: 6.00 Build 0)  -->
<!DOCTYPE svg PUBLIC "-//W3C//DTD SVG 1.1//EN" "http://www.w3.org/Graphics/SVG/1.1/DTD/svg11.dtd">
<svg version="1.1" id="Layer_1" xmlns="http://www.w3.org/2000/svg" xmlns:xlink="http://www.w3.org/1999/xlink" x="0px" y="0px"
	 width="64px" height="64px" viewBox="0 0 64 64" enable-background="new 0 0 64 64" xml:space="preserve">
<path d="M62,1H22c-0.552,0-1,0.447-1,1v19H2c-0.552,0-1,0.447-1,1v40c0,0.553,0.448,1,1,1h40c0.552,0,1-0.447,1-1V43h19
	c0.552,0,1-0.447,1-1V2C63,1.447,62.552,1,62,1z M41,61H3V23h18v19c0,0.553,0.448,1,1,1h19V61z M41,41H23V23h18V41z M61,41H43V22
	c0-0.553-0.448-1-1-1H23V3h38V41z"/>
</svg>
