<?xml version="1.0" encoding="utf-8"?>
<!-- Generator: Adobe Illustrator 19.2.1, SVG Export Plug-In . SVG Version: 6.00 Build 0)  -->
<!DOCTYPE svg PUBLIC "-//W3C//DTD SVG 1.1//EN" "http://www.w3.org/Graphics/SVG/1.1/DTD/svg11.dtd">
<svg version="1.1" id="Layer_1" xmlns="http://www.w3.org/2000/svg" xmlns:xlink="http://www.w3.org/1999/xlink" x="0px" y="0px"
	 width="64px" height="64px" viewBox="0 0 64 64" enable-background="new 0 0 64 64" xml:space="preserve">
<path d="M62,9h-5V4c0-0.553-0.448-1-1-1c-9.387,0-17.873,2.396-24,6.761C25.873,5.396,17.387,3,8,3C7.448,3,7,3.447,7,4v5H2
	c-0.552,0-1,0.447-1,1v48c0,0.553,0.448,1,1,1h60c0.552,0,1-0.447,1-1V10C63,9.447,62.552,9,62,9z M9,5.01
	c8.664,0.163,16.414,2.469,22,6.519V38c0,0.553,0.448,1,1,1s1-0.447,1-1V11.529c5.586-4.05,13.336-6.356,22-6.519v38.999
	c-8.988,0.164-17.091,2.543-23,6.752c-5.909-4.209-14.012-6.588-23-6.752V5.01z M61,57H3V11h4v34c0,0.553,0.448,1,1,1
	c9.267,0,17.576,2.414,23.398,6.799C31.577,52.933,31.788,53,32,53s0.423-0.067,0.602-0.201C38.424,48.414,46.733,46,56,46
	c0.552,0,1-0.447,1-1V11h4V57z"/>
</svg>
