<?xml version="1.0" encoding="utf-8"?>
<!-- Generator: Adobe Illustrator 19.2.1, SVG Export Plug-In . SVG Version: 6.00 Build 0)  -->
<!DOCTYPE svg PUBLIC "-//W3C//DTD SVG 1.1//EN" "http://www.w3.org/Graphics/SVG/1.1/DTD/svg11.dtd">
<svg version="1.1" id="Layer_1" xmlns="http://www.w3.org/2000/svg" xmlns:xlink="http://www.w3.org/1999/xlink" x="0px" y="0px"
	 width="64px" height="64px" viewBox="0 0 64 64" enable-background="new 0 0 64 64" xml:space="preserve">
<path d="M32.168,61.242c13.885,0,26.219-9.321,30.003-22.698c0.333-1.341,1.353-6.117,0.496-11.29
	c-0.914-5.515-3.719-9.591-8.126-11.794c-7.449-3.566-14.274-1.406-19.757,0.331c-5.093,1.612-8.071,2.403-10.042-0.029
	c-0.664-0.886-0.232-2.324,0.267-3.989c0.637-2.124,1.431-4.768-0.271-6.987c-2.216-2.908-7.208-2.462-10.493-0.212
	C5.951,10.412,1,19.945,1,30.074C1,47.26,14.982,61.242,32.168,61.242z M15.384,6.216c1.317-0.902,3.084-1.447,4.651-1.447
	c1.299,0,2.46,0.375,3.112,1.23c1.081,1.411,0.529,3.25-0.055,5.198c-0.601,2.001-1.222,4.07,0.072,5.793
	c2.949,3.642,7.247,2.281,12.223,0.706c5.416-1.714,11.555-3.657,18.275-0.441c3.85,1.925,6.216,5.398,7.032,10.325
	c0.794,4.794-0.154,9.234-0.456,10.45c-3.532,12.489-15.075,21.211-28.07,21.211C16.084,59.242,3,46.157,3,30.074
	C3,20.595,7.633,11.673,15.384,6.216z"/>
<path d="M46,35c3.86,0,7-3.14,7-7s-3.14-7-7-7s-7,3.14-7,7S42.14,35,46,35z M46,23c2.757,0,5,2.243,5,5s-2.243,5-5,5s-5-2.243-5-5
	S43.243,23,46,23z"/>
<path d="M19,28c0-2.757-2.243-5-5-5s-5,2.243-5,5s2.243,5,5,5S19,30.757,19,28z M11,28c0-1.654,1.346-3,3-3s3,1.346,3,3
	s-1.346,3-3,3S11,29.654,11,28z"/>
<path d="M13,42c0,2.757,2.243,5,5,5s5-2.243,5-5s-2.243-5-5-5S13,39.243,13,42z M21,42c0,1.654-1.346,3-3,3s-3-1.346-3-3
	s1.346-3,3-3S21,40.346,21,42z"/>
<path d="M32,53c2.757,0,5-2.243,5-5s-2.243-5-5-5s-5,2.243-5,5S29.243,53,32,53z M32,45c1.654,0,3,1.346,3,3s-1.346,3-3,3
	s-3-1.346-3-3S30.346,45,32,45z"/>
</svg>
