<?xml version="1.0" encoding="utf-8"?>
<!-- Generator: Adobe Illustrator 19.2.1, SVG Export Plug-In . SVG Version: 6.00 Build 0)  -->
<!DOCTYPE svg PUBLIC "-//W3C//DTD SVG 1.1//EN" "http://www.w3.org/Graphics/SVG/1.1/DTD/svg11.dtd">
<svg version="1.1" id="Layer_1" xmlns="http://www.w3.org/2000/svg" xmlns:xlink="http://www.w3.org/1999/xlink" x="0px" y="0px"
	 width="64px" height="64px" viewBox="0 0 64 64" enable-background="new 0 0 64 64" xml:space="preserve">
<path d="M6,10v44c0,5.215,10.935,9,26,9s26-3.785,26-9V10c0-5.215-10.935-9-26-9S6,4.785,6,10z M39,34c2.206,0,4-1.794,4-4V18.258
	c5.951-0.849,10.367-2.387,12.814-4.376C54.377,29.367,44.437,41,32,41C19.539,41,9.585,29.323,8.177,13.794
	C12.082,16.951,20.921,19,32,19c0.95,0,1.923-0.02,3-0.06V30C35,32.206,36.794,34,39,34z M56,54c0,3.38-9.644,7-24,7S8,57.38,8,54
	V22.923C11.888,34.828,21.053,43,32,43s20.112-8.172,24-20.077V54z M32,3c14.356,0,24,3.62,24,7c0,2.28-4.368,5.141-14.127,6.393
	C41.374,16.457,41,16.882,41,17.385V30c0,1.103-0.897,2-2,2s-2-0.897-2-2V17.896c0-0.273-0.112-0.535-0.31-0.724
	c-0.187-0.178-0.434-0.276-0.69-0.276c-0.016,0-0.031,0-0.048,0.001C34.473,16.967,33.217,17,32,17c-14.356,0-24-3.62-24-7
	S17.644,3,32,3z"/>
</svg>
