<?xml version="1.0" encoding="utf-8"?>
<!-- Generator: Adobe Illustrator 19.2.1, SVG Export Plug-In . SVG Version: 6.00 Build 0)  -->
<!DOCTYPE svg PUBLIC "-//W3C//DTD SVG 1.1//EN" "http://www.w3.org/Graphics/SVG/1.1/DTD/svg11.dtd">
<svg version="1.1" id="Layer_1" xmlns="http://www.w3.org/2000/svg" xmlns:xlink="http://www.w3.org/1999/xlink" x="0px" y="0px"
	 width="64px" height="64px" viewBox="0 0 64 64" enable-background="new 0 0 64 64" xml:space="preserve">
<path d="M26,11h34c0.553,0,1-0.447,1-1s-0.447-1-1-1H26c-0.553,0-1,0.447-1,1S25.447,11,26,11z"/>
<path d="M26,33h34c0.553,0,1-0.447,1-1s-0.447-1-1-1H26c-0.553,0-1,0.447-1,1S25.447,33,26,33z"/>
<path d="M26,55h34c0.553,0,1-0.447,1-1s-0.447-1-1-1H26c-0.553,0-1,0.447-1,1S25.447,55,26,55z"/>
<path d="M4,17h12c0.553,0,1-0.447,1-1V4c0-0.553-0.447-1-1-1H4C3.447,3,3,3.447,3,4v12C3,16.553,3.447,17,4,17z M5,5h10v10H5V5z"/>
<path d="M3,38c0,0.553,0.447,1,1,1h12c0.553,0,1-0.447,1-1V26c0-0.553-0.447-1-1-1H4c-0.553,0-1,0.447-1,1V38z M5,27h10v10H5V27z"/>
<path d="M3,60c0,0.553,0.447,1,1,1h12c0.553,0,1-0.447,1-1V48c0-0.553-0.447-1-1-1H4c-0.553,0-1,0.447-1,1V60z M5,49h10v10H5V49z"/>
</svg>
