<?xml version="1.0" encoding="utf-8"?>
<!-- Generator: Adobe Illustrator 19.2.1, SVG Export Plug-In . SVG Version: 6.00 Build 0)  -->
<!DOCTYPE svg PUBLIC "-//W3C//DTD SVG 1.1//EN" "http://www.w3.org/Graphics/SVG/1.1/DTD/svg11.dtd">
<svg version="1.1" id="Layer_1" xmlns="http://www.w3.org/2000/svg" xmlns:xlink="http://www.w3.org/1999/xlink" x="0px" y="0px"
	 width="64px" height="64px" viewBox="0 0 64 64" enable-background="new 0 0 64 64" xml:space="preserve">
<path d="M51,20c1.654,0,3-1.346,3-3s-1.346-3-3-3s-3,1.346-3,3S49.346,20,51,20z M51,16c0.552,0,1,0.449,1,1s-0.448,1-1,1
	s-1-0.449-1-1S50.448,16,51,16z"/>
<path d="M16.293,61.707C16.488,61.902,16.744,62,17,62s0.512-0.098,0.707-0.293l44-44c0.391-0.391,0.391-1.023,0-1.414l-14-14
	c-0.391-0.391-1.023-0.391-1.414,0l-44,44c-0.391,0.391-0.391,1.023,0,1.414L16.293,61.707z M13,38.414l5.293,5.293
	C18.488,43.902,18.744,44,19,44s0.512-0.098,0.707-0.293c0.391-0.391,0.391-1.023,0-1.414L14.414,37L19,32.414l3.293,3.293
	C22.488,35.902,22.744,36,23,36s0.512-0.098,0.707-0.293c0.391-0.391,0.391-1.023,0-1.414L20.414,31L25,26.414l5.293,5.293
	C30.488,31.902,30.744,32,31,32s0.512-0.098,0.707-0.293c0.391-0.391,0.391-1.023,0-1.414L26.414,25L31,20.414l3.293,3.293
	C34.488,23.902,34.744,24,35,24s0.512-0.098,0.707-0.293c0.391-0.391,0.391-1.023,0-1.414L32.414,19L37,14.414l5.293,5.293
	C42.488,19.902,42.744,20,43,20s0.512-0.098,0.707-0.293c0.391-0.391,0.391-1.023,0-1.414L38.414,13L47,4.414L59.586,17L17,59.586
	L4.414,47L13,38.414z"/>
</svg>
