<?xml version="1.0" encoding="utf-8"?>
<!-- Generator: Adobe Illustrator 19.2.1, SVG Export Plug-In . SVG Version: 6.00 Build 0)  -->
<!DOCTYPE svg PUBLIC "-//W3C//DTD SVG 1.1//EN" "http://www.w3.org/Graphics/SVG/1.1/DTD/svg11.dtd">
<svg version="1.1" id="Layer_1" xmlns="http://www.w3.org/2000/svg" xmlns:xlink="http://www.w3.org/1999/xlink" x="0px" y="0px"
	 width="64px" height="64px" viewBox="0 0 64 64" enable-background="new 0 0 64 64" xml:space="preserve">
<path d="M14,51h36c0.553,0,1-0.448,1-1V14c0-0.552-0.447-1-1-1H14c-0.553,0-1,0.448-1,1v36C13,50.552,13.447,51,14,51z M15,15h34v34
	H15V15z"/>
<path d="M2,15h4c0.553,0,1-0.448,1-1s-0.447-1-1-1H2c-0.553,0-1,0.448-1,1S1.447,15,2,15z"/>
<path d="M2,51h4c0.553,0,1-0.448,1-1s-0.447-1-1-1H2c-0.553,0-1,0.448-1,1S1.447,51,2,51z"/>
<path d="M58,15h4c0.553,0,1-0.448,1-1s-0.447-1-1-1h-4c-0.553,0-1,0.448-1,1S57.447,15,58,15z"/>
<path d="M62,49h-4c-0.553,0-1,0.448-1,1s0.447,1,1,1h4c0.553,0,1-0.448,1-1S62.553,49,62,49z"/>
<path d="M14,7c0.553,0,1-0.448,1-1V2c0-0.552-0.447-1-1-1s-1,0.448-1,1v4C13,6.552,13.447,7,14,7z"/>
<path d="M50,1c-0.553,0-1,0.448-1,1v4c0,0.552,0.447,1,1,1s1-0.448,1-1V2C51,1.448,50.553,1,50,1z"/>
<path d="M14,63c0.553,0,1-0.448,1-1v-4c0-0.552-0.447-1-1-1s-1,0.448-1,1v4C13,62.552,13.447,63,14,63z"/>
<path d="M51,62v-4c0-0.552-0.447-1-1-1s-1,0.448-1,1v4c0,0.552,0.447,1,1,1S51,62.552,51,62z"/>
</svg>
