<?xml version="1.0" encoding="utf-8"?>
<!-- Generator: Adobe Illustrator 19.2.1, SVG Export Plug-In . SVG Version: 6.00 Build 0)  -->
<!DOCTYPE svg PUBLIC "-//W3C//DTD SVG 1.1//EN" "http://www.w3.org/Graphics/SVG/1.1/DTD/svg11.dtd">
<svg version="1.1" id="Layer_1" xmlns="http://www.w3.org/2000/svg" xmlns:xlink="http://www.w3.org/1999/xlink" x="0px" y="0px"
	 width="64px" height="64px" viewBox="0 0 64 64" enable-background="new 0 0 64 64" xml:space="preserve">
<path d="M2,9c0.553,0,1-0.448,1-1V3h5c0.553,0,1-0.448,1-1S8.553,1,8,1H2C1.447,1,1,1.448,1,2v6C1,8.552,1.447,9,2,9z"/>
<path d="M2,50h6c0.553,0,1-0.448,1-1s-0.447-1-1-1H3v-5c0-0.552-0.447-1-1-1s-1,0.448-1,1v6C1,49.552,1.447,50,2,50z"/>
<path d="M50,2c0-0.552-0.447-1-1-1h-6c-0.553,0-1,0.448-1,1s0.447,1,1,1h5v5c0,0.552,0.447,1,1,1s1-0.448,1-1V2z"/>
<path d="M22,1h-7c-0.553,0-1,0.448-1,1s0.447,1,1,1h7c0.553,0,1-0.448,1-1S22.553,1,22,1z"/>
<path d="M2,23c0.553,0,1-0.448,1-1v-7c0-0.552-0.447-1-1-1s-1,0.448-1,1v7C1,22.552,1.447,23,2,23z"/>
<path d="M49,14c-0.553,0-1,0.448-1,1v7c0,0.552,0.447,1,1,1s1-0.448,1-1v-7C50,14.448,49.553,14,49,14z"/>
<path d="M2,37c0.553,0,1-0.448,1-1v-7c0-0.552-0.447-1-1-1s-1,0.448-1,1v7C1,36.552,1.447,37,2,37z"/>
<path d="M36,3c0.553,0,1-0.448,1-1s-0.447-1-1-1h-7c-0.553,0-1,0.448-1,1s0.447,1,1,1H36z"/>
<path d="M22,48h-7c-0.553,0-1,0.448-1,1s0.447,1,1,1h7c0.553,0,1-0.448,1-1S22.553,48,22,48z"/>
<path d="M26.293,26.293c-0.258,0.258-0.355,0.636-0.253,0.986l9,31c0.114,0.396,0.46,0.68,0.869,0.717C35.94,58.999,35.971,59,36,59
	c0.376,0,0.724-0.212,0.895-0.553l5.38-10.759l11.019,11.019c0.391,0.391,1.023,0.391,1.414,0l4-4c0.391-0.391,0.391-1.023,0-1.414
	L47.688,42.274l10.759-5.379c0.368-0.184,0.586-0.575,0.549-0.985c-0.037-0.41-0.322-0.755-0.717-0.87l-31-9
	C26.926,25.939,26.551,26.035,26.293,26.293z M55.268,36.248l-9.715,4.857c-0.287,0.144-0.488,0.417-0.54,0.734
	s0.053,0.64,0.28,0.867L56.586,54L54,56.586L42.707,45.293C42.519,45.104,42.263,45,42,45c-0.053,0-0.106,0.004-0.16,0.013
	c-0.317,0.052-0.591,0.252-0.734,0.54l-4.857,9.715l-7.781-26.8L55.268,36.248z"/>
</svg>
