<?xml version="1.0" encoding="utf-8"?>
<!-- Generator: Adobe Illustrator 19.2.1, SVG Export Plug-In . SVG Version: 6.00 Build 0)  -->
<!DOCTYPE svg PUBLIC "-//W3C//DTD SVG 1.1//EN" "http://www.w3.org/Graphics/SVG/1.1/DTD/svg11.dtd">
<svg version="1.1" id="Layer_1" xmlns="http://www.w3.org/2000/svg" xmlns:xlink="http://www.w3.org/1999/xlink" x="0px" y="0px"
	 width="64px" height="64px" viewBox="0 0 64 64" enable-background="new 0 0 64 64" xml:space="preserve">
<path d="M62,1H22c-0.553,0-1,0.447-1,1v19H2c-0.553,0-1,0.447-1,1v40c0,0.553,0.447,1,1,1h40c0.553,0,1-0.447,1-1V43h19
	c0.553,0,1-0.447,1-1V2C63,1.447,62.553,1,62,1z M61,41H43v-5c0-0.553-0.447-1-1-1s-1,0.447-1,1v5h-5c-0.553,0-1,0.447-1,1
	s0.447,1,1,1h5v18H3V23h18v5c0,0.553,0.447,1,1,1s1-0.447,1-1v-5h5c0.553,0,1-0.447,1-1s-0.447-1-1-1h-5V3h38V41z"/>
<path d="M28,41h-5v-5c0-0.553-0.447-1-1-1s-1,0.447-1,1v6c0,0.553,0.447,1,1,1h6c0.553,0,1-0.447,1-1S28.553,41,28,41z"/>
<path d="M36,23h5v5c0,0.553,0.447,1,1,1s1-0.447,1-1v-6c0-0.553-0.447-1-1-1h-6c-0.553,0-1,0.447-1,1S35.447,23,36,23z"/>
</svg>
