<?xml version="1.0" encoding="utf-8"?>
<!-- Generator: Adobe Illustrator 19.2.1, SVG Export Plug-In . SVG Version: 6.00 Build 0)  -->
<!DOCTYPE svg PUBLIC "-//W3C//DTD SVG 1.1//EN" "http://www.w3.org/Graphics/SVG/1.1/DTD/svg11.dtd">
<svg version="1.1" id="Layer_1" xmlns="http://www.w3.org/2000/svg" xmlns:xlink="http://www.w3.org/1999/xlink" x="0px" y="0px"
	 width="64px" height="64px" viewBox="0 0 64 64" enable-background="new 0 0 64 64" xml:space="preserve">
<path d="M46,1H18c-0.553,0-1,0.447-1,1v17h-3c-0.553,0-1,0.447-1,1v38c0,2.757,2.243,5,5,5h28c2.757,0,5-2.243,5-5V20
	c0-0.553-0.447-1-1-1h-3V2C47,1.447,46.553,1,46,1z M19,3h26v16H19V3z M49,58c0,1.654-1.346,3-3,3H18c-1.654,0-3-1.346-3-3V21h34V58
	z"/>
<path d="M26,7c-0.553,0-1,0.447-1,1v6c0,0.553,0.447,1,1,1s1-0.447,1-1V8C27,7.447,26.553,7,26,7z"/>
<path d="M38,7c-0.553,0-1,0.447-1,1v6c0,0.553,0.447,1,1,1s1-0.447,1-1V8C39,7.447,38.553,7,38,7z"/>
<path d="M42,31H22c-0.553,0-1,0.447-1,1v16c0,0.553,0.447,1,1,1h20c0.553,0,1-0.447,1-1V32C43,31.447,42.553,31,42,31z M41,47H23V33
	h18V47z"/>
<path d="M28,41h8c0.553,0,1-0.447,1-1s-0.447-1-1-1h-8c-0.553,0-1,0.447-1,1S27.447,41,28,41z"/>
</svg>
