<?xml version="1.0" encoding="utf-8"?>
<!-- Generator: Adobe Illustrator 19.2.1, SVG Export Plug-In . SVG Version: 6.00 Build 0)  -->
<!DOCTYPE svg PUBLIC "-//W3C//DTD SVG 1.1//EN" "http://www.w3.org/Graphics/SVG/1.1/DTD/svg11.dtd">
<svg version="1.1" id="Layer_1" xmlns="http://www.w3.org/2000/svg" xmlns:xlink="http://www.w3.org/1999/xlink" x="0px" y="0px"
	 width="64px" height="64px" viewBox="0 0 64 64" enable-background="new 0 0 64 64" xml:space="preserve">
<path d="M45,3h-6.626c-0.07-0.095-0.143-0.188-0.221-0.278L38.06,2.595c-0.008-0.01-0.02-0.015-0.028-0.025
	c-0.027-0.028-0.044-0.063-0.072-0.09c-3.835-3.836-13.889,0.205-22.887,9.202C6.077,20.678,2.035,30.73,5.871,34.567
	c0.026,0.027,0.06,0.043,0.088,0.069c0.011,0.009,0.016,0.022,0.028,0.03l0.15,0.11c0.209,0.179,0.425,0.349,0.665,0.488
	L36.605,57.12c0.669,0.634,1.59,0.95,2.716,0.95c1.274,0,2.811-0.404,4.54-1.212c3-1.4,6.351-3.87,9.436-6.954
	c5.759-5.759,10.217-13.537,7.216-16.691l-5.073-6.917C57.646,23.82,59,20.569,59,17C59,9.28,52.72,3,45,3z M16.487,13.095
	c5.528-5.528,12.983-10.138,17.39-10.138c1.091,0,1.993,0.287,2.634,0.908l0.554,0.755c1.939,3.782-3.262,12.87-9.722,19.33
	c-6.461,6.459-15.547,11.659-19.329,9.721L7.261,33.12C4.125,29.89,9.589,19.994,16.487,13.095z M59.04,34.567
	c1.412,1.413-0.627,7.392-7.157,13.923c-2.924,2.924-6.073,5.252-8.867,6.556c-2.379,1.111-4.315,1.341-5.056,0.601
	c-0.036-0.036-0.074-0.069-0.115-0.1L11.098,35.934c4.819-0.562,11.486-4.394,17.659-10.569c6.171-6.17,10.008-12.836,10.574-17.653
	l13.479,18.38C50.709,27.899,47.983,29,45,29h-9c-0.553,0-1,0.448-1,1s0.447,1,1,1h9c3.425,0,6.562-1.24,8.997-3.289l4.943,6.74
	C58.971,34.492,59.004,34.531,59.04,34.567z M39.823,5H45c6.617,0,12,5.383,12,12c0,2.906-1.04,5.573-2.765,7.652L39.823,5z"/>
<path d="M8.823,45.432c-0.375-0.541-1.271-0.541-1.646,0C6.647,46.199,2,53.013,2,56c0,3.309,2.691,6,6,6s6-2.691,6-6
	C14,53.013,9.353,46.199,8.823,45.432z M8,60c-2.206,0-4-1.794-4-4c0-1.537,2.199-5.427,4-8.201c1.801,2.774,4,6.664,4,8.201
	C12,58.206,10.206,60,8,60z"/>
</svg>
