<?xml version="1.0" encoding="utf-8"?>
<!-- Generator: Adobe Illustrator 19.2.1, SVG Export Plug-In . SVG Version: 6.00 Build 0)  -->
<!DOCTYPE svg PUBLIC "-//W3C//DTD SVG 1.1//EN" "http://www.w3.org/Graphics/SVG/1.1/DTD/svg11.dtd">
<svg version="1.1" id="Layer_1" xmlns="http://www.w3.org/2000/svg" xmlns:xlink="http://www.w3.org/1999/xlink" x="0px" y="0px"
	 width="64px" height="64px" viewBox="0 0 64 64" enable-background="new 0 0 64 64" xml:space="preserve">
<path d="M60.84,9.49c-0.023-0.037-0.031-0.08-0.059-0.115c-0.012-0.015-0.029-0.021-0.042-0.035
	c-0.047-0.053-0.103-0.092-0.161-0.134c-0.049-0.036-0.094-0.074-0.148-0.099c-0.056-0.027-0.116-0.039-0.177-0.055
	c-0.067-0.018-0.131-0.037-0.2-0.04C60.035,9.01,60.019,9,60,9H24c-0.228,0-0.447,0.077-0.625,0.219l-20,16
	c-0.013,0.011-0.018,0.028-0.031,0.039c-0.074,0.065-0.13,0.144-0.182,0.229c-0.022,0.035-0.051,0.064-0.068,0.101
	C3.036,25.715,3,25.852,3,26v28c0,0.552,0.447,1,1,1h36c0.121,0,0.238-0.028,0.35-0.071c0.037-0.014,0.068-0.033,0.102-0.05
	c0.04-0.021,0.083-0.033,0.121-0.06l20-14C60.841,40.632,61,40.326,61,40V10c0-0.044-0.02-0.082-0.025-0.125
	c-0.009-0.069-0.017-0.136-0.041-0.202C60.911,9.606,60.876,9.549,60.84,9.49z M24.351,11h32.798l-17.5,14H6.851L24.351,11z M5,27
	h34v26H5V27z M41,52.079V26.481l18-14.4v27.399L41,52.079z"/>
</svg>
