<?xml version="1.0" encoding="utf-8"?>
<!-- Generator: Adobe Illustrator 19.2.1, SVG Export Plug-In . SVG Version: 6.00 Build 0)  -->
<!DOCTYPE svg PUBLIC "-//W3C//DTD SVG 1.1//EN" "http://www.w3.org/Graphics/SVG/1.1/DTD/svg11.dtd">
<svg version="1.1" id="Layer_1" xmlns="http://www.w3.org/2000/svg" xmlns:xlink="http://www.w3.org/1999/xlink" x="0px" y="0px"
	 width="64px" height="64px" viewBox="0 0 64 64" enable-background="new 0 0 64 64" xml:space="preserve">
<path fill="#222221" d="M32,2c-0.552,0-1,0.448-1,1v4H8C7.448,7,7,7.448,7,8v38c0,0.552,0.448,1,1,1h12.64l-4.594,14.702
	c-0.165,0.527,0.129,1.088,0.656,1.253C16.801,62.985,16.901,63,17,63c0.426,0,0.82-0.274,0.954-0.702L20.235,55h23.529l2.281,7.298
	C46.179,62.726,46.574,63,47,63c0.099,0,0.2-0.015,0.299-0.046c0.527-0.165,0.821-0.726,0.656-1.253L43.36,47H56
	c0.552,0,1-0.448,1-1V8c0-0.552-0.448-1-1-1H33V3C33,2.448,32.552,2,32,2z M43.14,53H20.86l1.875-6h18.529L43.14,53z M9,45v-4.532
	l11.095-9.245l9.391,5.634c0.368,0.222,0.837,0.182,1.166-0.098l13.297-11.397L55,36.414V45H9z M55,33.586L44.707,23.293
	c-0.371-0.37-0.961-0.392-1.358-0.052L29.896,34.771l-9.382-5.629c-0.363-0.219-0.828-0.183-1.155,0.089L9,37.865V9h46V33.586z"/>
<path fill="#222221" d="M24,20c0,2.757,2.243,5,5,5s5-2.243,5-5s-2.243-5-5-5S24,17.243,24,20z M32,20c0,1.654-1.346,3-3,3
	s-3-1.346-3-3s1.346-3,3-3S32,18.346,32,20z"/>
</svg>
