<?xml version="1.0" encoding="utf-8"?>
<!-- Generator: Adobe Illustrator 19.2.1, SVG Export Plug-In . SVG Version: 6.00 Build 0)  -->
<!DOCTYPE svg PUBLIC "-//W3C//DTD SVG 1.1//EN" "http://www.w3.org/Graphics/SVG/1.1/DTD/svg11.dtd">
<svg version="1.1" id="Layer_1" xmlns="http://www.w3.org/2000/svg" xmlns:xlink="http://www.w3.org/1999/xlink" x="0px" y="0px"
	 width="64px" height="64px" viewBox="0 0 64 64" enable-background="new 0 0 64 64" xml:space="preserve">
<path d="M5,2v60c0,0.552,0.447,1,1,1h50c0.553,0,1-0.448,1-1V2c0-0.552-0.447-1-1-1H6C5.447,1,5,1.448,5,2z M7,3h48v58H7V3z"/>
<path d="M14,29c-1.654,0-3,1.346-3,3s1.346,3,3,3s3-1.346,3-3S15.654,29,14,29z M14,33c-0.552,0-1-0.449-1-1s0.448-1,1-1
	s1,0.449,1,1S14.552,33,14,33z"/>
<path d="M14,41c-1.654,0-3,1.346-3,3s1.346,3,3,3s3-1.346,3-3S15.654,41,14,41z M14,45c-0.552,0-1-0.449-1-1s0.448-1,1-1
	s1,0.449,1,1S14.552,45,14,45z"/>
<path d="M14,17c-1.654,0-3,1.346-3,3s1.346,3,3,3s3-1.346,3-3S15.654,17,14,17z M14,21c-0.552,0-1-0.449-1-1s0.448-1,1-1
	s1,0.449,1,1S14.552,21,14,21z"/>
<path d="M48,23H26c-0.553,0-1,0.448-1,1v18c0,0.552,0.447,1,1,1h22c0.553,0,1-0.448,1-1V24C49,23.448,48.553,23,48,23z M47,41H27V25
	h20V41z"/>
<path d="M32,31h10c0.553,0,1-0.448,1-1s-0.447-1-1-1H32c-0.553,0-1,0.448-1,1S31.447,31,32,31z"/>
<path d="M32,37h5c0.553,0,1-0.448,1-1s-0.447-1-1-1h-5c-0.553,0-1,0.448-1,1S31.447,37,32,37z"/>
</svg>
