<?xml version="1.0" encoding="utf-8"?>
<!-- Generator: Adobe Illustrator 19.2.1, SVG Export Plug-In . SVG Version: 6.00 Build 0)  -->
<!DOCTYPE svg PUBLIC "-//W3C//DTD SVG 1.1//EN" "http://www.w3.org/Graphics/SVG/1.1/DTD/svg11.dtd">
<svg version="1.1" id="Layer_1" xmlns="http://www.w3.org/2000/svg" xmlns:xlink="http://www.w3.org/1999/xlink" x="0px" y="0px"
	 width="64px" height="64px" viewBox="0 0 64 64" enable-background="new 0 0 64 64" xml:space="preserve">
<path d="M9,61H3v-6c0-0.553-0.447-1-1-1s-1,0.447-1,1v7c0,0.553,0.447,1,1,1h7c0.553,0,1-0.447,1-1S9.553,61,9,61z"/>
<path d="M9,21H2c-0.553,0-1,0.447-1,1v7c0,0.553,0.447,1,1,1s1-0.447,1-1v-6h6c0.553,0,1-0.447,1-1S9.553,21,9,21z"/>
<path d="M2,47c0.553,0,1-0.447,1-1v-8c0-0.553-0.447-1-1-1s-1,0.447-1,1v8C1,46.553,1.447,47,2,47z"/>
<path d="M26,61h-8c-0.553,0-1,0.447-1,1s0.447,1,1,1h8c0.553,0,1-0.447,1-1S26.553,61,26,61z"/>
<path d="M42,54c-0.553,0-1,0.447-1,1v6h-6c-0.553,0-1,0.447-1,1s0.447,1,1,1h7c0.553,0,1-0.447,1-1v-7C43,54.447,42.553,54,42,54z"
	/>
<path d="M62,1h-7c-0.553,0-1,0.447-1,1s0.447,1,1,1h6v6c0,0.553,0.447,1,1,1s1-0.447,1-1V2C63,1.447,62.553,1,62,1z"/>
<path d="M21,2v7c0,0.553,0.447,1,1,1s1-0.447,1-1V3h6c0.553,0,1-0.447,1-1s-0.447-1-1-1h-7C21.447,1,21,1.447,21,2z"/>
<path d="M46,1h-8c-0.553,0-1,0.447-1,1s0.447,1,1,1h8c0.553,0,1-0.447,1-1S46.553,1,46,1z"/>
<path d="M62,17c-0.553,0-1,0.447-1,1v8c0,0.553,0.447,1,1,1s1-0.447,1-1v-8C63,17.447,62.553,17,62,17z"/>
<path d="M62,34c-0.553,0-1,0.447-1,1v6h-6c-0.553,0-1,0.447-1,1s0.447,1,1,1h7c0.553,0,1-0.447,1-1v-7C63,34.447,62.553,34,62,34z"
	/>
<path d="M46,41h-3V22c0-0.553-0.447-1-1-1H23v-3c0-0.553-0.447-1-1-1s-1,0.447-1,1v3h-3c-0.553,0-1,0.447-1,1s0.447,1,1,1h3v19
	c0,0.553,0.447,1,1,1h19v3c0,0.553,0.447,1,1,1s1-0.447,1-1v-3h3c0.553,0,1-0.447,1-1S46.553,41,46,41z M23,23h18v18H23V23z"/>
</svg>
