<?xml version="1.0" encoding="utf-8"?>
<!-- Generator: Adobe Illustrator 19.2.1, SVG Export Plug-In . SVG Version: 6.00 Build 0)  -->
<!DOCTYPE svg PUBLIC "-//W3C//DTD SVG 1.1//EN" "http://www.w3.org/Graphics/SVG/1.1/DTD/svg11.dtd">
<svg version="1.1" id="Layer_1" xmlns="http://www.w3.org/2000/svg" xmlns:xlink="http://www.w3.org/1999/xlink" x="0px" y="0px"
	 width="64px" height="64px" viewBox="0 0 64 64" enable-background="new 0 0 64 64" xml:space="preserve">
<path fill="#222221" d="M62,1H20c-0.553,0-1,0.448-1,1v42c0,0.552,0.447,1,1,1h42c0.553,0,1-0.448,1-1V2C63,1.448,62.553,1,62,1z
	 M61,43H21V3h40V43z"/>
<path fill="#222221" d="M2,63h8c0.553,0,1-0.448,1-1s-0.447-1-1-1H3v-7c0-0.552-0.447-1-1-1s-1,0.448-1,1v8C1,62.552,1.447,63,2,63z
	"/>
<path fill="#222221" d="M29,53c0-0.552-0.447-1-1-1s-1,0.448-1,1v8h-7c-0.553,0-1,0.448-1,1s0.447,1,1,1h8c0.553,0,1-0.448,1-1V53z"
	/>
<path fill="#222221" d="M2,45c0.553,0,1-0.448,1-1v-7h7c0.553,0,1-0.448,1-1s-0.447-1-1-1H2c-0.553,0-1,0.448-1,1v8
	C1,44.552,1.447,45,2,45z"/>
</svg>
