<?xml version="1.0" encoding="utf-8"?>
<!-- Generator: Adobe Illustrator 19.2.1, SVG Export Plug-In . SVG Version: 6.00 Build 0)  -->
<!DOCTYPE svg PUBLIC "-//W3C//DTD SVG 1.1//EN" "http://www.w3.org/Graphics/SVG/1.1/DTD/svg11.dtd">
<svg version="1.1" id="Layer_1" xmlns="http://www.w3.org/2000/svg" xmlns:xlink="http://www.w3.org/1999/xlink" x="0px" y="0px"
	 width="64px" height="64px" viewBox="0 0 64 64" enable-background="new 0 0 64 64" xml:space="preserve">
<path d="M29,30c3.309,0,6-2.691,6-6s-2.691-6-6-6s-6,2.691-6,6S25.691,30,29,30z M29,20c2.206,0,4,1.794,4,4s-1.794,4-4,4
	s-4-1.794-4-4S26.794,20,29,20z"/>
<path d="M62,5H2C1.448,5,1,5.447,1,6v52c0,0.553,0.448,1,1,1h60c0.552,0,1-0.447,1-1V6C63,5.447,62.552,5,62,5z M61,57H3V7h58V57z"
	/>
<path d="M8,53h48c0.552,0,1-0.447,1-1V12c0-0.553-0.448-1-1-1H8c-0.552,0-1,0.447-1,1v40C7,52.553,7.448,53,8,53z M9,51v-6.531
	l11.095-9.246l9.391,5.635c0.368,0.221,0.838,0.184,1.166-0.099l13.297-11.396L55,40.414V51H9z M55,13v24.586L44.707,27.293
	c-0.37-0.37-0.962-0.391-1.358-0.052l-13.453,11.53l-9.382-5.629c-0.364-0.218-0.827-0.183-1.155,0.089L9,41.865V13H55z"/>
</svg>
