<?xml version="1.0" encoding="utf-8"?>
<!-- Generator: Adobe Illustrator 19.2.1, SVG Export Plug-In . SVG Version: 6.00 Build 0)  -->
<!DOCTYPE svg PUBLIC "-//W3C//DTD SVG 1.1//EN" "http://www.w3.org/Graphics/SVG/1.1/DTD/svg11.dtd">
<svg version="1.1" id="Layer_1" xmlns="http://www.w3.org/2000/svg" xmlns:xlink="http://www.w3.org/1999/xlink" x="0px" y="0px"
	 width="64px" height="64px" viewBox="0 0 64 64" enable-background="new 0 0 64 64" xml:space="preserve">
<path d="M62,7H2C1.447,7,1,7.447,1,8s0.447,1,1,1h60c0.553,0,1-0.447,1-1S62.553,7,62,7z"/>
<path d="M52,17H38c-0.553,0-1,0.447-1,1v38c0,0.553,0.447,1,1,1h14c0.553,0,1-0.447,1-1V18C53,17.447,52.553,17,52,17z M51,55H39V19
	h12V55z"/>
<path d="M27,38V18c0-0.553-0.447-1-1-1H12c-0.553,0-1,0.447-1,1v20c0,0.553,0.447,1,1,1h14C26.553,39,27,38.553,27,38z M25,37H13V19
	h12V37z"/>
</svg>
