<?xml version="1.0" encoding="utf-8"?>
<!-- Generator: Adobe Illustrator 19.2.1, SVG Export Plug-In . SVG Version: 6.00 Build 0)  -->
<!DOCTYPE svg PUBLIC "-//W3C//DTD SVG 1.1//EN" "http://www.w3.org/Graphics/SVG/1.1/DTD/svg11.dtd">
<svg version="1.1" id="Layer_1" xmlns="http://www.w3.org/2000/svg" xmlns:xlink="http://www.w3.org/1999/xlink" x="0px" y="0px"
	 width="64px" height="64px" viewBox="0 0 64 64" enable-background="new 0 0 64 64" xml:space="preserve">
<path fill="#222221" d="M42.895,19.553c-0.156-0.312-0.464-0.521-0.812-0.55c-0.348-0.025-0.686,0.126-0.891,0.409L25.807,40.565
	l-9.183-7.347c-0.23-0.185-0.533-0.256-0.822-0.199c-0.29,0.059-0.539,0.242-0.681,0.502l-12,22
	c-0.169,0.31-0.162,0.686,0.018,0.989C3.32,56.813,3.647,57,4,57h56c0.347,0,0.668-0.18,0.851-0.475s0.199-0.663,0.044-0.973
	L42.895,19.553z M5.685,55l10.622-19.474l9.069,7.255c0.213,0.171,0.489,0.247,0.758,0.21c0.271-0.036,0.515-0.182,0.675-0.403
	l15.033-20.669L58.382,55H5.685z"/>
<path fill="#222221" d="M21,23c4.411,0,8-3.589,8-8s-3.589-8-8-8s-8,3.589-8,8S16.589,23,21,23z M21,9c3.309,0,6,2.691,6,6
	s-2.691,6-6,6s-6-2.691-6-6S17.691,9,21,9z"/>
</svg>
