<?xml version="1.0" encoding="utf-8"?>
<!-- Generator: Adobe Illustrator 19.2.1, SVG Export Plug-In . SVG Version: 6.00 Build 0)  -->
<!DOCTYPE svg PUBLIC "-//W3C//DTD SVG 1.1//EN" "http://www.w3.org/Graphics/SVG/1.1/DTD/svg11.dtd">
<svg version="1.1" id="Layer_1" xmlns="http://www.w3.org/2000/svg" xmlns:xlink="http://www.w3.org/1999/xlink" x="0px" y="0px"
	 width="64px" height="64px" viewBox="0 0 64 64" enable-background="new 0 0 64 64" xml:space="preserve">
<path d="M3.043,54.29c0.107,0.353,0.399,0.619,0.761,0.691l10,2C13.869,56.994,13.935,57,14,57c0.263,0,0.518-0.104,0.707-0.293
	L20,51.414l3.293,3.293C23.488,54.902,23.744,55,24,55s0.512-0.098,0.707-0.293l37-37c0.391-0.391,0.391-1.023,0-1.414l-14-14
	c-0.391-0.391-1.023-0.391-1.414,0l-37,37c-0.391,0.391-0.391,1.023,0,1.414L12.586,44l-9.293,9.293
	C3.032,53.554,2.936,53.937,3.043,54.29z M55.586,13L42,26.586L37.414,22L51,8.414L55.586,13z M47,4.414L49.586,7L35.293,21.293
	c-0.391,0.391-0.391,1.023,0,1.414l6,6C41.488,28.902,41.744,29,42,29s0.512-0.098,0.707-0.293L57,14.414L59.586,17L24,52.586
	L11.414,40L47,4.414z M14,45.414L18.586,50l-4.915,4.915l-7.643-1.529L14,45.414z"/>
</svg>
