<?xml version="1.0" encoding="utf-8"?>
<!-- Generator: Adobe Illustrator 19.2.1, SVG Export Plug-In . SVG Version: 6.00 Build 0)  -->
<!DOCTYPE svg PUBLIC "-//W3C//DTD SVG 1.1//EN" "http://www.w3.org/Graphics/SVG/1.1/DTD/svg11.dtd">
<svg version="1.1" id="Layer_1" xmlns="http://www.w3.org/2000/svg" xmlns:xlink="http://www.w3.org/1999/xlink" x="0px" y="0px"
	 width="64px" height="64px" viewBox="0 0 64 64" enable-background="new 0 0 64 64" xml:space="preserve">
<path d="M62,21H42.949C42.422,9.887,33.242,1,22,1C10.42,1,1,10.421,1,22c0,11.242,8.886,20.422,20,20.949V62c0,0.553,0.448,1,1,1
	h40c0.552,0,1-0.447,1-1V22C63,21.447,62.552,21,62,21z M3,22C3,11.523,11.523,3,22,3c10.139,0,18.424,7.989,18.949,18H22
	c-0.552,0-1,0.447-1,1v18.949C10.989,40.424,3,32.139,3,22z M40.949,23C40.442,32.677,32.677,40.442,23,40.949V23H40.949z M61,61H23
	V42.949C33.78,42.438,42.438,33.78,42.949,23H61V61z"/>
</svg>
