<?xml version="1.0" encoding="utf-8"?>
<!-- Generator: Adobe Illustrator 19.2.1, SVG Export Plug-In . SVG Version: 6.00 Build 0)  -->
<!DOCTYPE svg PUBLIC "-//W3C//DTD SVG 1.1//EN" "http://www.w3.org/Graphics/SVG/1.1/DTD/svg11.dtd">
<svg version="1.1" id="Layer_1" xmlns="http://www.w3.org/2000/svg" xmlns:xlink="http://www.w3.org/1999/xlink" x="0px" y="0px"
	 width="64px" height="64px" viewBox="0 0 64 64" enable-background="new 0 0 64 64" xml:space="preserve">
<path fill="#222221" d="M52.662,8.892c-5.656-5.061-12.953-7.862-20.545-7.891C32.116,1.001,32.001,1,32,1C14.906,1,1,14.906,1,32
	c0,16.587,12.969,30.188,29.523,30.964C31.014,62.987,31.505,63,32,63c7.635,0,14.972-2.802,20.659-7.89
	C59.23,49.232,63,40.809,63,32C63,23.192,59.231,14.77,52.662,8.892z M30.618,60.966C15.131,60.24,3,47.517,3,32
	C3,16.01,16.01,3,32,3V2l0.109,1.001c3.776,0.014,7.474,0.762,10.904,2.17c-0.304-0.042-0.609-0.065-0.915-0.094
	c-0.178-0.017-0.354-0.042-0.533-0.055c-0.53-0.038-1.062-0.06-1.596-0.06c-0.449,0-0.897,0.014-1.342,0.04
	c-6.683,0.403-12.926,3.806-17.266,9.445c0,0.001-0.001,0.001-0.001,0.002c-0.009,0.012-0.019,0.023-0.028,0.034
	c-0.002,0.002-0.002,0.005-0.003,0.007c-3.551,4.215-5.67,10.327-5.816,16.804v1.436c0.146,6.468,2.271,12.591,5.833,16.806
	c0.248,0.321,0.504,0.631,0.764,0.937c0.042,0.049,0.081,0.102,0.123,0.151c0.254,0.295,0.516,0.579,0.781,0.861
	c0.056,0.06,0.109,0.123,0.165,0.182c0.245,0.256,0.499,0.5,0.753,0.744c0.081,0.077,0.158,0.16,0.239,0.236
	c0.232,0.217,0.472,0.422,0.71,0.629c0.109,0.094,0.214,0.194,0.324,0.286c0.217,0.182,0.441,0.352,0.663,0.525
	c0.137,0.107,0.271,0.22,0.41,0.324c0.202,0.151,0.411,0.29,0.617,0.434c0.165,0.115,0.327,0.237,0.494,0.348
	c0.17,0.112,0.344,0.214,0.516,0.322c0.21,0.131,0.417,0.268,0.63,0.392c0.139,0.081,0.282,0.153,0.422,0.231
	c0.25,0.14,0.5,0.282,0.754,0.412c0.152,0.078,0.309,0.145,0.462,0.22c0.247,0.119,0.493,0.243,0.743,0.353
	c0.15,0.066,0.304,0.122,0.456,0.185c0.258,0.107,0.516,0.218,0.777,0.316c0.144,0.054,0.292,0.098,0.437,0.148
	c0.273,0.095,0.544,0.194,0.82,0.279c0.14,0.043,0.282,0.076,0.423,0.117c0.285,0.082,0.569,0.166,0.857,0.236
	c0.1,0.024,0.201,0.041,0.301,0.064c0.331,0.076,0.663,0.151,0.997,0.212c0.115,0.021,0.233,0.033,0.348,0.053
	c0.321,0.053,0.642,0.107,0.966,0.146c0.183,0.022,0.369,0.032,0.553,0.05c0.259,0.025,0.517,0.055,0.777,0.07
	c0.445,0.027,0.892,0.04,1.341,0.04c0.534,0,1.066-0.021,1.597-0.06c0.173-0.012,0.345-0.037,0.518-0.053
	c0.31-0.03,0.62-0.053,0.928-0.096C39.13,60.425,34.845,61.165,30.618,60.966z M22.888,48.26c-3.279-3.872-5.238-9.549-5.374-15.553
	v-1.391c0.135-6.014,2.088-11.679,5.384-15.587c2.652-3.124,5.996-4.845,9.421-4.845c8.168,0,14.812,9.473,14.812,21.115
	c0,11.644-6.645,21.116-14.812,21.116C28.89,53.116,25.541,51.392,22.888,48.26z M51.387,53.564
	c-0.199,0.131-0.405,0.248-0.607,0.372c-0.23,0.141-0.457,0.289-0.692,0.421c-0.21,0.118-0.427,0.221-0.64,0.332
	c-0.239,0.124-0.476,0.256-0.719,0.37c-0.218,0.103-0.442,0.19-0.663,0.285c-0.244,0.105-0.486,0.218-0.733,0.313
	c-0.228,0.088-0.46,0.159-0.69,0.239c-0.246,0.085-0.49,0.178-0.738,0.254c-0.243,0.074-0.49,0.131-0.734,0.195
	c-0.24,0.064-0.478,0.136-0.721,0.191c-0.263,0.06-0.53,0.101-0.795,0.15c-0.228,0.042-0.454,0.094-0.683,0.128
	c-0.299,0.045-0.601,0.07-0.903,0.102c-0.198,0.021-0.394,0.051-0.592,0.066c-0.501,0.037-1.003,0.056-1.507,0.056
	c-0.396,0-0.79-0.013-1.183-0.036c-0.128-0.008-0.255-0.022-0.383-0.032c-0.263-0.021-0.527-0.041-0.788-0.072
	c-0.154-0.018-0.307-0.043-0.461-0.065c-0.234-0.033-0.468-0.066-0.701-0.107c-0.162-0.029-0.323-0.063-0.484-0.096
	c-0.222-0.045-0.444-0.09-0.665-0.142c-0.165-0.039-0.329-0.083-0.493-0.126c-0.214-0.056-0.427-0.114-0.639-0.177
	c-0.166-0.05-0.332-0.103-0.497-0.157c-0.207-0.067-0.412-0.137-0.617-0.211c-0.166-0.06-0.331-0.122-0.495-0.186
	c-0.201-0.078-0.4-0.16-0.598-0.244c-0.165-0.07-0.329-0.142-0.493-0.216c-0.073-0.033-0.144-0.069-0.217-0.103
	c0.353,0.031,0.707,0.047,1.062,0.047c9.271,0,16.812-10.37,16.812-23.116S41.589,8.885,32.318,8.885
	c-0.356,0-0.71,0.016-1.063,0.047c0.075-0.035,0.149-0.073,0.224-0.107c0.158-0.072,0.317-0.141,0.477-0.209
	c0.204-0.087,0.41-0.171,0.617-0.251c0.158-0.062,0.317-0.122,0.477-0.179c0.212-0.076,0.425-0.148,0.638-0.218
	c0.159-0.052,0.318-0.103,0.478-0.151c0.217-0.065,0.436-0.124,0.656-0.182C34.98,7.593,35.139,7.55,35.3,7.513
	c0.225-0.053,0.451-0.099,0.677-0.145c0.158-0.032,0.315-0.066,0.474-0.094c0.236-0.042,0.474-0.075,0.712-0.108
	c0.15-0.021,0.3-0.046,0.451-0.063c0.265-0.031,0.531-0.052,0.797-0.073c0.126-0.01,0.25-0.024,0.376-0.032
	c0.393-0.023,0.788-0.036,1.184-0.036c0.504,0,1.007,0.019,1.508,0.056c0.198,0.015,0.394,0.046,0.592,0.066
	c0.302,0.031,0.604,0.057,0.904,0.102c0.238,0.036,0.473,0.089,0.709,0.133c0.256,0.048,0.514,0.087,0.768,0.145
	c0.253,0.057,0.501,0.132,0.752,0.199c0.235,0.062,0.471,0.117,0.704,0.187c0.257,0.078,0.51,0.175,0.765,0.263
	c0.221,0.077,0.445,0.145,0.663,0.23c0.27,0.104,0.534,0.226,0.8,0.342c0.198,0.086,0.399,0.163,0.594,0.256
	c0.277,0.131,0.547,0.279,0.82,0.422c0.179,0.094,0.362,0.18,0.538,0.279c0.279,0.157,0.551,0.332,0.824,0.502
	c0.158,0.099,0.32,0.189,0.477,0.292C57.497,15.933,61,23.788,61,32C61,40.213,57.497,48.067,51.387,53.564z"/>
</svg>
