<?xml version="1.0" encoding="utf-8"?>
<!-- Generator: Adobe Illustrator 19.2.1, SVG Export Plug-In . SVG Version: 6.00 Build 0)  -->
<!DOCTYPE svg PUBLIC "-//W3C//DTD SVG 1.1//EN" "http://www.w3.org/Graphics/SVG/1.1/DTD/svg11.dtd">
<svg version="1.1" id="Layer_1" xmlns="http://www.w3.org/2000/svg" xmlns:xlink="http://www.w3.org/1999/xlink" x="0px" y="0px"
	 width="64px" height="64px" viewBox="0 0 64 64" enable-background="new 0 0 64 64" xml:space="preserve">
<path fill="#222221" d="M39.231,48.64l10,12C49.422,60.868,49.703,61,50,61s0.578-0.132,0.769-0.36l10-12
	c0.04-0.048,0.062-0.106,0.092-0.16c0.022-0.039,0.05-0.073,0.066-0.116C60.972,48.249,61,48.126,61,48V2c0-0.552-0.447-1-1-1H40
	c-0.553,0-1,0.448-1,1v46c0,0.126,0.028,0.249,0.074,0.365c0.017,0.042,0.044,0.076,0.066,0.115
	C39.17,48.534,39.191,48.592,39.231,48.64z M59,13v34h-8V13H59z M49,47h-8V13h8V47z M50,58.438L42.135,49h15.73L50,58.438z M59,3v8
	H41V3H59z"/>
<path fill="#222221" d="M20,13c1.654,0,3-1.346,3-3s-1.346-3-3-3s-3,1.346-3,3S18.346,13,20,13z M20,9c0.552,0,1,0.449,1,1
	s-0.448,1-1,1s-1-0.449-1-1S19.448,9,20,9z"/>
<path fill="#222221" d="M28,1H4C3.447,1,3,1.448,3,2v60c0,0.552,0.447,1,1,1h24c0.553,0,1-0.448,1-1V2C29,1.448,28.553,1,28,1z
	 M27,61H5v-6h6c0.553,0,1-0.448,1-1s-0.447-1-1-1H5v-6h8c0.553,0,1-0.448,1-1s-0.447-1-1-1H5v-6h6c0.553,0,1-0.448,1-1s-0.447-1-1-1
	H5v-6h8c0.553,0,1-0.448,1-1s-0.447-1-1-1H5v-6h6c0.553,0,1-0.448,1-1s-0.447-1-1-1H5v-6h8c0.553,0,1-0.448,1-1s-0.447-1-1-1H5V3h22
	V61z"/>
</svg>
