<?xml version="1.0" encoding="utf-8"?>
<!-- Generator: Adobe Illustrator 19.2.1, SVG Export Plug-In . SVG Version: 6.00 Build 0)  -->
<!DOCTYPE svg PUBLIC "-//W3C//DTD SVG 1.1//EN" "http://www.w3.org/Graphics/SVG/1.1/DTD/svg11.dtd">
<svg version="1.1" id="Layer_1" xmlns="http://www.w3.org/2000/svg" xmlns:xlink="http://www.w3.org/1999/xlink" x="0px" y="0px"
	 width="64px" height="64px" viewBox="0 0 64 64" enable-background="new 0 0 64 64" xml:space="preserve">
<path d="M8,47h31v11c0,2.757,2.243,5,5,5h14c2.757,0,5-2.243,5-5V30c0-2.757-2.243-5-5-5h-1V8c0-3.859-3.14-7-7-7H8
	C4.14,1,1,4.141,1,8v32C1,43.859,4.14,47,8,47z M48,25h-4c-2.757,0-5,2.243-5,5v8H16c-0.551,0-1-0.448-1-1V11c0-0.552,0.449-1,1-1
	h31c0.551,0,1,0.448,1,1V25z M61,49H41V35h20V49z M58,61H44c-1.654,0-3-1.346-3-3v-7h20v7C61,59.654,59.654,61,58,61z M61,30v3H41
	v-3c0-1.654,1.346-3,3-3h14C59.654,27,61,28.346,61,30z M3,8c0-2.757,2.243-5,5-5h42c2.757,0,5,2.243,5,5v17h-5V11
	c0-1.654-1.346-3-3-3H16c-1.654,0-3,1.346-3,3v26c0,1.654,1.346,3,3,3h23v5H8c-2.757,0-5-2.243-5-5V8z"/>
<path d="M8,27c0.552,0,1-0.447,1-1v-4c0-0.553-0.448-1-1-1s-1,0.447-1,1v4C7,26.553,7.448,27,8,27z"/>
<path d="M52,55h-2c-0.552,0-1,0.447-1,1s0.448,1,1,1h2c0.552,0,1-0.447,1-1S52.552,55,52,55z"/>
</svg>
