<?xml version="1.0" encoding="utf-8"?>
<!-- Generator: Adobe Illustrator 19.2.1, SVG Export Plug-In . SVG Version: 6.00 Build 0)  -->
<!DOCTYPE svg PUBLIC "-//W3C//DTD SVG 1.1//EN" "http://www.w3.org/Graphics/SVG/1.1/DTD/svg11.dtd">
<svg version="1.1" id="Layer_1" xmlns="http://www.w3.org/2000/svg" xmlns:xlink="http://www.w3.org/1999/xlink" x="0px" y="0px"
	 width="64px" height="64px" viewBox="0 0 64 64" enable-background="new 0 0 64 64" xml:space="preserve">
<path d="M26,30H10c-0.552,0-1,0.447-1,1v16c0,0.553,0.448,1,1,1h16c0.552,0,1-0.447,1-1V31C27,30.447,26.552,30,26,30z M25,46H11V32
	h14V46z"/>
<path d="M54,30H33c-0.552,0-1,0.447-1,1s0.448,1,1,1h21c0.552,0,1-0.447,1-1S54.552,30,54,30z"/>
<path d="M54,38H33c-0.552,0-1,0.447-1,1s0.448,1,1,1h21c0.552,0,1-0.447,1-1S54.552,38,54,38z"/>
<path d="M45,46H33c-0.552,0-1,0.447-1,1s0.448,1,1,1h12c0.552,0,1-0.447,1-1S45.552,46,45,46z"/>
<path d="M10,14h4c0.552,0,1-0.447,1-1s-0.448-1-1-1h-4c-0.552,0-1,0.447-1,1S9.448,14,10,14z"/>
<path d="M20,14h4c0.552,0,1-0.447,1-1s-0.448-1-1-1h-4c-0.552,0-1,0.447-1,1S19.448,14,20,14z"/>
<path d="M43,14h11c0.552,0,1-0.447,1-1s-0.448-1-1-1H43c-0.552,0-1,0.447-1,1S42.448,14,43,14z"/>
<path d="M62,5H2C1.448,5,1,5.447,1,6v52c0,0.553,0.448,1,1,1h60c0.552,0,1-0.447,1-1V6C63,5.447,62.552,5,62,5z M61,7v12H3V7H61z
	 M3,57V21h58v36H3z"/>
</svg>
