<?xml version="1.0" encoding="utf-8"?>
<!-- Generator: Adobe Illustrator 19.2.1, SVG Export Plug-In . SVG Version: 6.00 Build 0)  -->
<!DOCTYPE svg PUBLIC "-//W3C//DTD SVG 1.1//EN" "http://www.w3.org/Graphics/SVG/1.1/DTD/svg11.dtd">
<svg version="1.1" id="Layer_1" xmlns="http://www.w3.org/2000/svg" xmlns:xlink="http://www.w3.org/1999/xlink" x="0px" y="0px"
	 width="64px" height="64px" viewBox="0 0 64 64" enable-background="new 0 0 64 64" xml:space="preserve">
<path fill="#222221" d="M62.5,26.26C61.437,14.982,51.267,7.579,50.834,7.27c-0.329-0.235-0.77-0.25-1.115-0.032
	c-0.171,0.107-0.301,0.262-0.38,0.438c-1.333-1.154-2.709-1.976-4.367-2.42C40.73,3.098,36.161,2,31.389,2
	c-8.154,0-15.673,3.153-21.315,8.893C9.192,9.429,9.086,7.754,9.085,7.731C9.067,7.355,8.84,7.021,8.497,6.866
	C8.155,6.714,7.753,6.764,7.459,6.999C7.278,7.145,3.091,10.607,4,18.288c-5.157,10.958-1.466,23.95,1.035,28.231
	C8.411,52.301,16.576,62,33.342,62c13.679,0,21.282-9.392,23.286-12.271c2.456-3.527,3.686-7.022,3.245-9.118
	C61.993,36.226,62.949,31.019,62.5,26.26z M31.389,4c3.297,0,6.488,0.564,9.53,1.672c-0.079,0.383,0.061,0.781,0.383,1.014
	c3.988,2.875,8.163,10.294,9.1,17.676c-0.538-0.644-0.933-0.954-0.967-0.98c-0.316-0.246-0.75-0.278-1.101-0.081
	c-0.35,0.195-0.549,0.582-0.505,0.98c1.259,11.514-4.791,20.213-9.509,21.143c-3.529,0.696-8.559,0.312-12.473-2.609
	c2.314,0.03,4.858-0.443,6.708-1.725c0.223-0.154,0.451-0.317,0.681-0.483c1.044-0.752,2.218-1.621,3.134-1.563
	c1.004,0.047,1.865-0.401,2.237-1.171c0.356-0.736,0.187-1.611-0.449-2.341c-1.467-1.688-4.175-3.188-6.981-1.857
	c-3.221,1.525-6.39,1.384-8.479-0.381c-1.09-0.921-1.677-2.188-1.425-3.082c0.102-0.363,0.251-0.575,0.443-0.63
	c0.307-0.087,0.93,0.092,1.582,0.69c0.25,0.229,0.601,0.317,0.93,0.229c0.329-0.086,0.591-0.333,0.697-0.656
	c0.029-0.089,0.639-1.996,0.293-3.917c0.492-0.421,1.29-0.889,2.066-1.345c1.67-0.979,3.564-2.09,4.214-3.679
	c0.058-0.141,0.553-1.408,0.112-2.408c-0.185-0.42-0.516-0.735-0.933-0.889c-0.037-0.014-0.074-0.024-0.112-0.034
	c-1.204-0.288-3.729-0.312-5.121-0.303c-1.58-0.035-1.995-1.303-2.011-1.36c-0.397-1.339,1.752-3.461,3.624-5.005
	c0.305-0.252,0.433-0.659,0.327-1.041c-0.106-0.381-0.427-0.663-0.819-0.72c-4.729-0.697-7.51,1.947-8.524,3.17
	c-2.268-0.471-4.431-0.419-6.444,0.147c-0.054-0.032-0.102-0.071-0.154-0.105C16.712,6.963,23.752,4,31.389,4z M57.914,40.062
	c-0.125,0.248-0.141,0.536-0.044,0.796c0.36,0.974-0.296,4.014-2.883,7.729C53.123,51.265,46.052,60,33.342,60
	c-15.768,0-23.421-9.077-26.58-14.489c-2.354-4.028-5.832-16.324-0.834-26.62c0.086-0.177,0.118-0.374,0.092-0.569
	c-0.551-4.118,0.533-6.812,1.486-8.309c0.31,0.997,0.855,2.163,1.781,3.131c0.009,0.009,0.013,0.022,0.023,0.031
	c0.006,0.006,0.015,0.008,0.022,0.013c0.462,0.474,1.009,0.902,1.681,1.23c0.238,0.128,0.521,0.156,0.781,0.072
	c1.961-0.63,4.119-0.659,6.415-0.088c0.42,0.102,0.856-0.073,1.087-0.438c0.074-0.116,1.515-2.341,4.536-2.837
	c-2.617,2.649-2.647,4.233-2.316,5.349c0.286,0.97,1.47,2.793,3.905,2.793c0.013,0,0.027,0,0.04,0
	c1.509-0.011,3.354,0.033,4.331,0.188c-0.005,0.189-0.057,0.474-0.144,0.688c-0.395,0.963-1.978,1.892-3.375,2.712
	c-1.188,0.696-2.309,1.354-2.935,2.141c-0.202,0.254-0.269,0.591-0.177,0.903c0.193,0.659,0.19,1.38,0.126,1.981
	c-0.729-0.325-1.467-0.412-2.118-0.227c-0.51,0.146-1.424,0.6-1.821,2.012c-0.472,1.675,0.337,3.697,2.06,5.152
	c2.704,2.284,6.675,2.529,10.625,0.66c2.311-1.097,4.25,0.942,4.617,1.364c0.058,0.066,0.094,0.121,0.115,0.161
	c-0.058,0.022-0.161,0.047-0.3,0.038c-1.618-0.055-3.087,0.995-4.397,1.938c-0.22,0.158-0.437,0.314-0.65,0.462
	c-2.145,1.485-5.763,1.65-8.228,1.046c-0.419-0.097-0.861,0.078-1.089,0.447c-0.228,0.369-0.191,0.844,0.091,1.174
	c4.6,5.39,11.772,6.209,16.516,5.274c2.996-0.591,6.085-3.346,8.266-7.369c1.992-3.678,3.034-8.089,3.026-12.68
	c0.219,0.405,0.438,0.867,0.642,1.389c0.172,0.438,0.627,0.707,1.094,0.621c0.466-0.076,0.814-0.468,0.836-0.939
	c0.366-7.804-3.315-16.301-7.6-21.058c1.802,0.623,3.229,1.849,4.86,3.61c0.295,0.318,0.762,0.411,1.156,0.227
	c0.299-0.14,0.504-0.413,0.561-0.726c2.911,2.645,8.25,8.451,8.961,15.986C60.936,30.97,59.99,35.933,57.914,40.062z"/>
</svg>
