<?xml version="1.0" encoding="utf-8"?>
<!-- Generator: Adobe Illustrator 19.2.1, SVG Export Plug-In . SVG Version: 6.00 Build 0)  -->
<!DOCTYPE svg PUBLIC "-//W3C//DTD SVG 1.1//EN" "http://www.w3.org/Graphics/SVG/1.1/DTD/svg11.dtd">
<svg version="1.1" id="Layer_1" xmlns="http://www.w3.org/2000/svg" xmlns:xlink="http://www.w3.org/1999/xlink" x="0px" y="0px"
	 width="64px" height="64px" viewBox="0 0 64 64" enable-background="new 0 0 64 64" xml:space="preserve">
<path d="M14,12h-4c-0.553,0-1,0.447-1,1s0.447,1,1,1h4c0.553,0,1-0.447,1-1S14.553,12,14,12z"/>
<path d="M24,12h-4c-0.553,0-1,0.447-1,1s0.447,1,1,1h4c0.553,0,1-0.447,1-1S24.553,12,24,12z"/>
<path d="M63.036,6.535c0-1.211-0.473-2.351-1.329-3.207c-1.77-1.768-4.645-1.767-6.414-0.001L53.618,5H2C1.447,5,1,5.447,1,6v52
	c0,0.553,0.447,1,1,1h60c0.553,0,1-0.447,1-1V17c0-0.553-0.447-1-1-1s-1,0.447-1,1v40H3V21h34.594l-6.091,6.082
	C31.155,27.033,30.803,27,30.445,27c-2.019,0-3.915,0.786-5.341,2.213c-2.662,2.661-3.066,11.726-3.104,12.751
	c-0.011,0.277,0.096,0.547,0.292,0.743C22.48,42.895,22.735,43,23,43c0.012,0,0.024,0,0.036-0.001
	c1.025-0.037,10.09-0.441,12.751-3.104C37.214,38.47,38,36.573,38,34.555c0-0.358-0.033-0.709-0.082-1.057L61.707,9.742
	C62.563,8.887,63.036,7.747,63.036,6.535z M3,19V7h48.615L39.597,19H3z M34.373,38.481c-1.437,1.437-6.687,2.228-10.317,2.463
	c0.235-3.631,1.026-8.882,2.463-10.317C27.567,29.578,28.962,29,30.445,29s2.879,0.578,3.928,1.627S36,33.071,36,34.555
	S35.422,37.433,34.373,38.481z M60.293,8.327L37.267,31.32c-0.366-0.771-0.858-1.486-1.479-2.107
	c-0.621-0.621-1.335-1.112-2.105-1.478L54.738,6.708c0.001-0.001,0.001-0.001,0.002-0.002l1.967-1.964
	c0.988-0.988,2.598-0.988,3.586,0c0.479,0.479,0.743,1.116,0.743,1.793C61.036,7.213,60.771,7.85,60.293,8.327z"/>
<path d="M10,49c-0.553,0-1,0.447-1,1s0.447,1,1,1h44c0.553,0,1-0.447,1-1s-0.447-1-1-1H10z"/>
</svg>
