<?xml version="1.0" encoding="utf-8"?>
<!-- Generator: Adobe Illustrator 19.2.1, SVG Export Plug-In . SVG Version: 6.00 Build 0)  -->
<!DOCTYPE svg PUBLIC "-//W3C//DTD SVG 1.1//EN" "http://www.w3.org/Graphics/SVG/1.1/DTD/svg11.dtd">
<svg version="1.1" id="Layer_1" xmlns="http://www.w3.org/2000/svg" xmlns:xlink="http://www.w3.org/1999/xlink" x="0px" y="0px"
	 width="64px" height="64px" viewBox="0 0 64 64" enable-background="new 0 0 64 64" xml:space="preserve">
<path fill="#222221" d="M62,1H2C1.447,1,1,1.448,1,2v34c0,0.552,0.447,1,1,1h17.946l5.105,15.316
	c0.128,0.383,0.474,0.652,0.877,0.681C25.953,52.999,25.977,53,26,53c0.377,0,0.725-0.212,0.895-0.553l7.379-14.759l20.019,20.019
	C54.488,57.902,54.744,58,55,58s0.512-0.098,0.707-0.293c0.391-0.391,0.391-1.023,0-1.414L35.688,36.274l14.759-7.379
	c0.361-0.181,0.579-0.562,0.55-0.965c-0.028-0.403-0.297-0.75-0.681-0.878l-36-12c-0.359-0.121-0.756-0.025-1.023,0.242
	c-0.268,0.268-0.361,0.664-0.241,1.023L19.28,35H3V3h58v32h-9c-0.553,0-1,0.448-1,1s0.447,1,1,1h10c0.553,0,1-0.448,1-1V2
	C63,1.448,62.553,1,62,1z M47.394,28.185l-13.841,6.92c-0.193,0.097-0.351,0.254-0.447,0.447l-6.92,13.841L15.581,17.581
	L47.394,28.185z"/>
</svg>
