<?xml version="1.0" encoding="utf-8"?>
<!-- Generator: Adobe Illustrator 19.2.1, SVG Export Plug-In . SVG Version: 6.00 Build 0)  -->
<!DOCTYPE svg PUBLIC "-//W3C//DTD SVG 1.1//EN" "http://www.w3.org/Graphics/SVG/1.1/DTD/svg11.dtd">
<svg version="1.1" id="Layer_1" xmlns="http://www.w3.org/2000/svg" xmlns:xlink="http://www.w3.org/1999/xlink" x="0px" y="0px"
	 width="64px" height="64px" viewBox="0 0 64 64" enable-background="new 0 0 64 64" xml:space="preserve">
<path fill="#222221" d="M32,55c9.374,0,17-10.318,17-23S41.374,9,32,9S15,19.318,15,32S22.626,55,32,55z M32,11
	c8.271,0,15,9.42,15,21s-6.729,21-15,21s-15-9.42-15-21S23.729,11,32,11z"/>
<path fill="#222221" d="M15,62c0,0.552,0.447,1,1,1h32c0.553,0,1-0.448,1-1c0-3.86,3.141-7,7-7c0.553,0,1-0.448,1-1V10
	c0-0.552-0.447-1-1-1c-3.859,0-7-3.14-7-7c0-0.552-0.447-1-1-1H16c-0.553,0-1,0.448-1,1c0,3.86-3.141,7-7,7c-0.553,0-1,0.448-1,1v44
	c0,0.552,0.447,1,1,1C11.859,55,15,58.14,15,62z M9,10.945c4.165-0.462,7.482-3.78,7.944-7.945h30.111
	c0.462,4.165,3.779,7.482,7.944,7.945v42.11c-4.165,0.462-7.482,3.78-7.944,7.945H16.944c-0.462-4.165-3.779-7.482-7.944-7.945
	V10.945z"/>
</svg>
