<?xml version="1.0" encoding="utf-8"?>
<!-- Generator: Adobe Illustrator 19.2.1, SVG Export Plug-In . SVG Version: 6.00 Build 0)  -->
<!DOCTYPE svg PUBLIC "-//W3C//DTD SVG 1.1//EN" "http://www.w3.org/Graphics/SVG/1.1/DTD/svg11.dtd">
<svg version="1.1" id="Layer_1" xmlns="http://www.w3.org/2000/svg" xmlns:xlink="http://www.w3.org/1999/xlink" x="0px" y="0px"
	 width="64px" height="64px" viewBox="0 0 64 64" enable-background="new 0 0 64 64" xml:space="preserve">
<path d="M62,1H22c-0.552,0-1,0.447-1,1v14c0,0.553,0.448,1,1,1s1-0.447,1-1V3h38v38H48c-0.552,0-1,0.447-1,1s0.448,1,1,1h14
	c0.552,0,1-0.447,1-1V2C63,1.447,62.552,1,62,1z"/>
<path d="M9,61H3v-6c0-0.553-0.448-1-1-1s-1,0.447-1,1v7c0,0.553,0.448,1,1,1h7c0.552,0,1-0.447,1-1S9.552,61,9,61z"/>
<path d="M9,21H2c-0.552,0-1,0.447-1,1v7c0,0.553,0.448,1,1,1s1-0.447,1-1v-6h6c0.552,0,1-0.447,1-1S9.552,21,9,21z"/>
<path d="M2,47c0.552,0,1-0.447,1-1v-8c0-0.553-0.448-1-1-1s-1,0.447-1,1v8C1,46.553,1.448,47,2,47z"/>
<path d="M26,21h-8c-0.552,0-1,0.447-1,1s0.448,1,1,1h8c0.552,0,1-0.447,1-1S26.552,21,26,21z"/>
<path d="M26,61h-8c-0.552,0-1,0.447-1,1s0.448,1,1,1h8c0.552,0,1-0.447,1-1S26.552,61,26,61z"/>
<path d="M42,54c-0.552,0-1,0.447-1,1v6h-6c-0.552,0-1,0.447-1,1s0.448,1,1,1h7c0.552,0,1-0.447,1-1v-7C43,54.447,42.552,54,42,54z"
	/>
<path d="M42,21h-7c-0.552,0-1,0.447-1,1s0.448,1,1,1h6v6c0,0.553,0.448,1,1,1s1-0.447,1-1v-7C43,21.447,42.552,21,42,21z"/>
<path d="M42,37c-0.552,0-1,0.447-1,1v8c0,0.553,0.448,1,1,1s1-0.447,1-1v-8C43,37.447,42.552,37,42,37z"/>
</svg>
