<?xml version="1.0" encoding="utf-8"?>
<!-- Generator: Adobe Illustrator 19.2.1, SVG Export Plug-In . SVG Version: 6.00 Build 0)  -->
<!DOCTYPE svg PUBLIC "-//W3C//DTD SVG 1.1//EN" "http://www.w3.org/Graphics/SVG/1.1/DTD/svg11.dtd">
<svg version="1.1" id="Layer_1" xmlns="http://www.w3.org/2000/svg" xmlns:xlink="http://www.w3.org/1999/xlink" x="0px" y="0px"
	 width="64px" height="64px" viewBox="0 0 64 64" enable-background="new 0 0 64 64" xml:space="preserve">
<path d="M10,30c-1.654,0-3,1.346-3,3s1.346,3,3,3s3-1.346,3-3S11.654,30,10,30z M10,34c-0.551,0-1-0.449-1-1s0.449-1,1-1
	s1,0.449,1,1S10.551,34,10,34z"/>
<path d="M10,25c0.552,0,1-0.448,1-1v-5c0-0.552-0.448-1-1-1s-1,0.448-1,1v5C9,24.552,9.448,25,10,25z"/>
<path d="M10,41c-0.552,0-1,0.448-1,1v5c0,0.552,0.448,1,1,1s1-0.448,1-1v-5C11,41.448,10.552,41,10,41z"/>
<path d="M61.464,3.536c-2.044-2.044-5.37-2.044-7.414,0L49.586,8H2C1.448,8,1,8.448,1,9v48c0,0.552,0.448,1,1,1h60
	c0.552,0,1-0.448,1-1V9c0-0.195-0.071-0.367-0.168-0.521C63.248,6.76,62.803,4.875,61.464,3.536z M55.464,4.95
	c1.265-1.264,3.321-1.264,4.586,0c1.264,1.264,1.264,3.322,0,4.586l-8.714,8.714c-0.04,0.034-0.075,0.069-0.109,0.109L40.489,29.097
	l-6.114,1.528l1.528-6.114l4.804-4.804c0,0,0,0,0.001-0.001l9.999-9.999c0,0,0,0,0.001-0.001L55.464,4.95z M53,20v26l-34,0V20
	h18.586l-3.293,3.293c-0.128,0.128-0.219,0.289-0.263,0.464l-2,8c-0.085,0.341,0.015,0.701,0.263,0.95
	C32.483,32.897,32.738,33,33,33c0.081,0,0.162-0.01,0.243-0.03l8-2c0.176-0.044,0.336-0.135,0.464-0.263L52.414,20H53z M3,56V10
	h44.586l-8,8H18c-0.552,0-1,0.448-1,1v28c0,0.552,0.448,1,1,1l36,0c0.265,0,0.52-0.105,0.707-0.293S55,47.266,55,47V19
	c0-0.43-0.275-0.789-0.656-0.93L61,11.414V56H3z"/>
</svg>
