<?xml version="1.0" encoding="utf-8"?>
<!-- Generator: Adobe Illustrator 19.2.1, SVG Export Plug-In . SVG Version: 6.00 Build 0)  -->
<!DOCTYPE svg PUBLIC "-//W3C//DTD SVG 1.1//EN" "http://www.w3.org/Graphics/SVG/1.1/DTD/svg11.dtd">
<svg version="1.1" id="Layer_1" xmlns="http://www.w3.org/2000/svg" xmlns:xlink="http://www.w3.org/1999/xlink" x="0px" y="0px"
	 width="64px" height="64px" viewBox="0 0 64 64" enable-background="new 0 0 64 64" xml:space="preserve">
<path d="M63.036,6.535c0-1.211-0.472-2.351-1.329-3.207c-1.769-1.768-4.646-1.767-6.414-0.001l-2.611,2.607
	C51.792,3.078,49.134,1,46,1H8C4.14,1,1,4.141,1,8v4c0,0.553,0.448,1,1,1h11v43c0,3.859,3.14,7,7,7h36c3.86,0,7-3.141,7-7v-4
	c0-0.553-0.448-1-1-1h-9V28c0-0.553-0.448-1-1-1s-1,0.447-1,1v23H26c-0.552,0-1,0.447-1,1v4c0,2.757-2.243,5-5,5s-5-2.243-5-5V12V8
	c0-0.243-0.013-0.483-0.037-0.72c-0.008-0.078-0.025-0.153-0.035-0.231c-0.021-0.157-0.041-0.314-0.073-0.468
	c-0.02-0.096-0.049-0.189-0.073-0.284c-0.033-0.13-0.062-0.263-0.102-0.39c-0.032-0.102-0.073-0.199-0.11-0.299
	c-0.042-0.116-0.081-0.234-0.129-0.347c-0.043-0.1-0.094-0.195-0.141-0.293c-0.052-0.108-0.1-0.217-0.158-0.322
	c-0.053-0.097-0.114-0.188-0.171-0.281c-0.061-0.1-0.119-0.202-0.184-0.298c-0.063-0.093-0.134-0.18-0.202-0.27
	c-0.068-0.09-0.133-0.183-0.206-0.27c-0.073-0.088-0.154-0.17-0.231-0.255c-0.075-0.082-0.147-0.166-0.226-0.244
	C12.912,3.02,12.904,3.009,12.895,3H46c2.628,0,4.766,2.057,4.962,4.651L35.504,23.082C35.156,23.033,34.804,23,34.446,23
	c-2.019,0-3.916,0.786-5.341,2.213C26.442,27.874,26.038,36.938,26,37.964c-0.01,0.277,0.096,0.547,0.292,0.743
	C26.481,38.895,26.735,39,27,39c0.012,0,0.024,0,0.037-0.001c1.025-0.037,10.09-0.441,12.75-3.104C41.214,34.47,42,32.572,42,30.555
	c0-0.358-0.033-0.709-0.082-1.058L61.707,9.742C62.564,8.887,63.036,7.747,63.036,6.535z M27,56v-3h34v3c0,2.757-2.243,5-5,5H24.895
	C26.193,59.729,27,57.957,27,56z M3,11V8c0-2.757,2.243-5,5-5s5,2.243,5,5v3H3z M38.373,34.481
	c-1.436,1.437-6.687,2.228-10.317,2.463c0.235-3.631,1.026-8.882,2.463-10.317C31.567,25.578,32.962,25,34.446,25
	s2.878,0.578,3.927,1.627C39.422,27.677,40,29.071,40,30.555S39.422,33.433,38.373,34.481z M60.293,8.327L41.267,27.321
	c-0.366-0.771-0.858-1.486-1.48-2.108c-0.621-0.621-1.334-1.112-2.105-1.479L52.706,8.736c0.001-0.001,0.001-0.001,0.002-0.002
	l3.999-3.992c0.988-0.988,2.598-0.988,3.586,0c0.479,0.479,0.743,1.116,0.743,1.793C61.036,7.213,60.772,7.85,60.293,8.327z"/>
</svg>
