<?xml version="1.0" encoding="utf-8"?>
<!-- Generator: Adobe Illustrator 19.2.1, SVG Export Plug-In . SVG Version: 6.00 Build 0)  -->
<!DOCTYPE svg PUBLIC "-//W3C//DTD SVG 1.1//EN" "http://www.w3.org/Graphics/SVG/1.1/DTD/svg11.dtd">
<svg version="1.1" id="Layer_1" xmlns="http://www.w3.org/2000/svg" xmlns:xlink="http://www.w3.org/1999/xlink" x="0px" y="0px"
	 width="64px" height="64px" viewBox="0 0 64 64" enable-background="new 0 0 64 64" xml:space="preserve">
<path d="M62,31H2c-0.553,0-1,0.447-1,1s0.447,1,1,1h60c0.553,0,1-0.447,1-1S62.553,31,62,31z"/>
<path d="M44,25c0.426,0,0.805-0.27,0.944-0.672c0.14-0.401,0.01-0.848-0.323-1.112l-24-19C20.319,3.979,19.91,3.935,19.564,4.1
	C19.22,4.267,19,4.616,19,5v19c0,0.553,0.447,1,1,1H44z M21,7.067L41.126,23H21V7.067z"/>
<path d="M20,60c0.221,0,0.44-0.073,0.621-0.216l24-19c0.333-0.265,0.463-0.711,0.323-1.112C44.805,39.27,44.426,39,44,39H20
	c-0.553,0-1,0.447-1,1v19c0,0.384,0.22,0.733,0.564,0.9C19.703,59.967,19.852,60,20,60z M21,41h20.126L21,56.933V41z"/>
</svg>
