<?xml version="1.0" encoding="utf-8"?>
<!-- Generator: Adobe Illustrator 19.2.1, SVG Export Plug-In . SVG Version: 6.00 Build 0)  -->
<!DOCTYPE svg PUBLIC "-//W3C//DTD SVG 1.1//EN" "http://www.w3.org/Graphics/SVG/1.1/DTD/svg11.dtd">
<svg version="1.1" id="Layer_1" xmlns="http://www.w3.org/2000/svg" xmlns:xlink="http://www.w3.org/1999/xlink" x="0px" y="0px"
	 width="64px" height="64px" viewBox="0 0 64 64" enable-background="new 0 0 64 64" xml:space="preserve">
<path d="M8.85,55.15c4.559,4.559,10.547,6.839,16.535,6.839c5.989,0,11.978-2.28,16.536-6.839L53.79,43.281
	c0.001-0.001,0.002-0.001,0.003-0.002s0.001-0.002,0.002-0.003l7.912-7.912c0.391-0.391,0.391-1.023,0-1.414l-7.914-7.914
	c-0.391-0.391-1.023-0.391-1.414,0l-7.912,7.912c-0.001,0.001-0.002,0.001-0.003,0.002s-0.001,0.002-0.002,0.003L32.593,45.822
	c-3.973,3.972-10.438,3.975-14.415,0c-3.974-3.975-3.974-10.44,0-14.415l11.869-11.869c0.001-0.001,0.002-0.001,0.003-0.002
	s0.001-0.002,0.002-0.003l7.912-7.912c0.391-0.391,0.391-1.023,0-1.414L30.05,2.293c-0.391-0.391-1.023-0.391-1.414,0l-7.912,7.912
	c-0.001,0.001-0.002,0.001-0.003,0.002s-0.001,0.002-0.002,0.003L8.85,22.079C-0.269,31.197-0.269,46.032,8.85,55.15z
	 M53.086,28.157l6.5,6.5l-6.5,6.5l-6.5-6.5L53.086,28.157z M29.343,4.414l6.5,6.5l-6.5,6.5l-6.5-6.5L29.343,4.414z M10.264,23.493
	l11.165-11.165l6.5,6.5L16.764,29.993c-4.753,4.754-4.753,12.489,0,17.243c4.755,4.755,12.49,4.753,17.243,0l11.165-11.165l6.5,6.5
	L40.507,53.736c-8.338,8.339-21.905,8.337-30.243,0C1.926,45.398,1.926,31.831,10.264,23.493z"/>
</svg>
