<?xml version="1.0" encoding="utf-8"?>
<!-- Generator: Adobe Illustrator 19.2.1, SVG Export Plug-In . SVG Version: 6.00 Build 0)  -->
<!DOCTYPE svg PUBLIC "-//W3C//DTD SVG 1.1//EN" "http://www.w3.org/Graphics/SVG/1.1/DTD/svg11.dtd">
<svg version="1.1" id="Layer_1" xmlns="http://www.w3.org/2000/svg" xmlns:xlink="http://www.w3.org/1999/xlink" x="0px" y="0px"
	 width="64px" height="64px" viewBox="0 0 64 64" enable-background="new 0 0 64 64" xml:space="preserve">
<path d="M62,7h-5V3c0-1.103-0.897-2-2-2H35c-1.103,0-2,0.897-2,2v4H2C1.447,7,1,7.447,1,8v40c0,0.553,0.447,1,1,1h5v4
	c0,1.103,0.897,2,2,2h12c1.103,0,2-0.897,2-2v-4h39c0.553,0,1-0.447,1-1V8C63,7.447,62.553,7,62,7z M55,3l0,4.998
	C55,7.999,55,7.999,55,8s0,0.001,0,0.002L55.002,31H35V8.005C35,8.003,35.001,8.002,35.001,8S35,7.997,35,7.995V3H55z M9,53V31h12
	l0.002,16.997c0,0.001-0.001,0.002-0.001,0.003s0.001,0.002,0.001,0.003l0,4.997H9z M61,47H23V31c0-1.103-0.897-2-2-2H9
	c-1.103,0-2,0.897-2,2v16H3V9h30v22c0,1.103,0.897,2,2,2h20c1.103,0,2-0.897,2-2V9h4V47z"/>
<path d="M42,59h-5v-3c0-0.553-0.447-1-1-1h-8c-0.553,0-1,0.447-1,1v3h-5c-0.553,0-1,0.447-1,1s0.447,1,1,1h6h8h6
	c0.553,0,1-0.447,1-1S42.553,59,42,59z M29,59v-2h6v2H29z"/>
<path d="M44,27h2c0.553,0,1-0.447,1-1s-0.447-1-1-1h-2c-0.553,0-1,0.447-1,1S43.447,27,44,27z"/>
<path d="M16,47h-2c-0.553,0-1,0.447-1,1s0.447,1,1,1h2c0.553,0,1-0.447,1-1S16.553,47,16,47z"/>
</svg>
