<?xml version="1.0" encoding="utf-8"?>
<!-- Generator: Adobe Illustrator 19.2.1, SVG Export Plug-In . SVG Version: 6.00 Build 0)  -->
<!DOCTYPE svg PUBLIC "-//W3C//DTD SVG 1.1//EN" "http://www.w3.org/Graphics/SVG/1.1/DTD/svg11.dtd">
<svg version="1.1" id="Layer_1" xmlns="http://www.w3.org/2000/svg" xmlns:xlink="http://www.w3.org/1999/xlink" x="0px" y="0px"
	 width="64px" height="64px" viewBox="0 0 64 64" enable-background="new 0 0 64 64" xml:space="preserve">
<path d="M45,1H19c-0.553,0-1,0.447-1,1v5h-6c-0.553,0-1,0.447-1,1v5H6c-0.553,0-1,0.447-1,1v48c0,0.553,0.447,1,1,1h52
	c0.553,0,1-0.447,1-1V14c0-0.553-0.447-1-1-1h-5V8c0-0.553-0.447-1-1-1h-6V2C46,1.447,45.553,1,45,1z M20,3h24v4H20V3z M57,61H7V15
	h50V61z M51,13H13V9h38V13z"/>
</svg>
