<?xml version="1.0" encoding="utf-8"?>
<!-- Generator: Adobe Illustrator 19.2.1, SVG Export Plug-In . SVG Version: 6.00 Build 0)  -->
<!DOCTYPE svg PUBLIC "-//W3C//DTD SVG 1.1//EN" "http://www.w3.org/Graphics/SVG/1.1/DTD/svg11.dtd">
<svg version="1.1" id="Layer_1" xmlns="http://www.w3.org/2000/svg" xmlns:xlink="http://www.w3.org/1999/xlink" x="0px" y="0px"
	 width="64px" height="64px" viewBox="0 0 64 64" enable-background="new 0 0 64 64" xml:space="preserve">
<path d="M4,63h54c0.401,0,0.764-0.24,0.92-0.609s0.078-0.796-0.201-1.085l-54-56C4.436,5.012,4.004,4.921,3.625,5.073
	C3.248,5.225,3,5.592,3,6v56C3,62.552,3.448,63,4,63z M55.646,61H5v-6h3c0.552,0,1-0.448,1-1s-0.448-1-1-1H5v-6h5
	c0.552,0,1-0.448,1-1s-0.448-1-1-1H5v-6h3c0.552,0,1-0.448,1-1s-0.448-1-1-1H5v-6h5c0.552,0,1-0.448,1-1s-0.448-1-1-1H5v-6h3
	c0.552,0,1-0.448,1-1s-0.448-1-1-1H5V8.478L55.646,61z"/>
<path d="M18,51h14c0.404,0,0.769-0.244,0.924-0.617c0.155-0.374,0.069-0.804-0.217-1.09l-14-14c-0.287-0.287-0.716-0.373-1.09-0.217
	C17.244,35.231,17,35.596,17,36v14C17,50.552,17.448,51,18,51z M19,38.414L29.586,49H19V38.414z"/>
</svg>
