<?xml version="1.0" encoding="utf-8"?>
<!-- Generator: Adobe Illustrator 19.2.1, SVG Export Plug-In . SVG Version: 6.00 Build 0)  -->
<!DOCTYPE svg PUBLIC "-//W3C//DTD SVG 1.1//EN" "http://www.w3.org/Graphics/SVG/1.1/DTD/svg11.dtd">
<svg version="1.1" id="Layer_1" xmlns="http://www.w3.org/2000/svg" xmlns:xlink="http://www.w3.org/1999/xlink" x="0px" y="0px"
	 width="64px" height="64px" viewBox="0 0 64 64" enable-background="new 0 0 64 64" xml:space="preserve">
<path fill="#222221" d="M60.374,19.535C55.566,8.633,44.661,1,32,1C21.829,1,12.788,5.924,7.132,13.513
	c-0.054,0.059-0.097,0.121-0.135,0.19C3.231,18.835,1,25.16,1,32c0,15.867,11.984,28.979,27.374,30.781
	c0.088,0.024,0.177,0.037,0.265,0.037c0.005,0,0.009-0.002,0.014-0.002C29.753,62.935,30.869,63,32,63c17.094,0,31-13.906,31-31
	c0-4.378-0.917-8.543-2.561-12.323C60.421,19.627,60.399,19.581,60.374,19.535z M32,3c11.318,0,21.136,6.521,25.911,16H32
	c-7.008,0-12.723,5.578-12.976,12.525L9.067,14.28C14.376,7.425,22.679,3,32,3z M32,43c-6.065,0-11-4.935-11-11s4.935-11,11-11
	s11,4.935,11,11S38.065,43,32,43z M3,32c0-5.883,1.766-11.359,4.788-15.935L20.741,38.5c0.024,0.041,0.056,0.073,0.084,0.109
	C23.092,42.427,27.246,45,32,45c2.192,0,4.256-0.55,6.069-1.513l-9.956,17.245C13.955,58.826,3,46.672,3,32z M32,61
	c-0.571,0-1.138-0.021-1.701-0.054L43.259,38.5c0.012-0.021,0.012-0.044,0.022-0.066C44.369,36.534,45,34.341,45,32
	c0-4.633-2.445-8.697-6.104-11h19.931C60.224,24.394,61,28.108,61,32C61,47.99,47.99,61,32,61z"/>
</svg>
