<?xml version="1.0" encoding="utf-8"?>
<!-- Generator: Adobe Illustrator 19.2.1, SVG Export Plug-In . SVG Version: 6.00 Build 0)  -->
<!DOCTYPE svg PUBLIC "-//W3C//DTD SVG 1.1//EN" "http://www.w3.org/Graphics/SVG/1.1/DTD/svg11.dtd">
<svg version="1.1" id="Layer_1" xmlns="http://www.w3.org/2000/svg" xmlns:xlink="http://www.w3.org/1999/xlink" x="0px" y="0px"
	 width="64px" height="64px" viewBox="0 0 64 64" enable-background="new 0 0 64 64" xml:space="preserve">
<path d="M15,43C9.486,43,5,47.486,5,53s4.486,10,10,10s10-4.486,10-10c0-0.795-0.103-1.565-0.279-2.307L32,43.414l7.279,7.279
	C39.103,51.435,39,52.205,39,53c0,5.514,4.486,10,10,10s10-4.486,10-10s-4.486-10-10-10c-1.29,0-2.52,0.254-3.654,0.701
	l-6.292-7.341l13.407-13.407c5.18-5.181,6.166-13.187,2.396-19.468c-0.166-0.275-0.453-0.455-0.773-0.481
	c-0.324-0.03-0.634,0.103-0.843,0.346L32,28.131L10.759,3.35c-0.209-0.243-0.521-0.377-0.843-0.346
	C9.596,3.03,9.308,3.21,9.143,3.485c-3.769,6.281-2.784,14.287,2.396,19.468L24.946,36.36l-6.292,7.341C17.52,43.254,16.29,43,15,43
	z M15,61c-4.411,0-8-3.589-8-8s3.589-8,8-8s8,3.589,8,8S19.411,61,15,61z M57,53c0,4.411-3.589,8-8,8s-8-3.589-8-8s3.589-8,8-8
	S57,48.589,57,53z M27.067,36.958c0.34-0.396,0.317-0.988-0.052-1.357L12.953,21.539c-4.194-4.194-5.244-10.506-2.761-15.778
	l21.048,24.557c0.38,0.443,1.139,0.443,1.519,0L53.808,5.761c2.483,5.272,1.433,11.584-2.761,15.778L36.985,35.601
	c-0.37,0.369-0.392,0.961-0.052,1.357l6.588,7.686c-1.493,0.982-2.701,2.354-3.494,3.969l-7.32-7.32
	c-0.391-0.391-1.023-0.391-1.414,0l-7.32,7.32c-0.793-1.614-2.001-2.987-3.494-3.969L27.067,36.958z"/>
</svg>
