<?xml version="1.0" encoding="utf-8"?>
<!-- Generator: Adobe Illustrator 19.2.1, SVG Export Plug-In . SVG Version: 6.00 Build 0)  -->
<!DOCTYPE svg PUBLIC "-//W3C//DTD SVG 1.1//EN" "http://www.w3.org/Graphics/SVG/1.1/DTD/svg11.dtd">
<svg version="1.1" id="Layer_1" xmlns="http://www.w3.org/2000/svg" xmlns:xlink="http://www.w3.org/1999/xlink" x="0px" y="0px"
	 width="64px" height="64px" viewBox="0 0 64 64" enable-background="new 0 0 64 64" xml:space="preserve">
<path d="M34,1H10C9.448,1,9,1.447,9,2v60c0,0.553,0.448,1,1,1h24c0.552,0,1-0.447,1-1V49.265l1.143-3.716l18.603-20.884
	c0.178-0.199,0.269-0.462,0.251-0.729s-0.14-0.516-0.342-0.691l-9.189-7.992l1.488-4.836c0.078-0.253,0.052-0.527-0.072-0.762
	s-0.336-0.41-0.59-0.488L35,5.692V2C35,1.447,34.552,1,34,1z M33,3v38H11V3H33z M11,61V43h22v18H11z M52.58,24.091L37.557,40.956
	l7.267-23.611L52.58,24.091z M44.75,10.785l-1.38,4.484c0,0,0,0.001,0,0.001L35,42.467V7.785L44.75,10.785z"/>
<path d="M22,48c-2.206,0-4,1.794-4,4s1.794,4,4,4s4-1.794,4-4S24.206,48,22,48z M22,54c-1.103,0-2-0.897-2-2s0.897-2,2-2
	s2,0.897,2,2S23.103,54,22,54z"/>
</svg>
