<?xml version="1.0" encoding="utf-8"?>
<!-- Generator: Adobe Illustrator 19.2.1, SVG Export Plug-In . SVG Version: 6.00 Build 0)  -->
<!DOCTYPE svg PUBLIC "-//W3C//DTD SVG 1.1//EN" "http://www.w3.org/Graphics/SVG/1.1/DTD/svg11.dtd">
<svg version="1.1" id="Layer_1" xmlns="http://www.w3.org/2000/svg" xmlns:xlink="http://www.w3.org/1999/xlink" x="0px" y="0px"
	 width="64px" height="64px" viewBox="0 0 64 64" enable-background="new 0 0 64 64" xml:space="preserve">
<path d="M3,40c-0.553,0-1,0.448-1,1s0.447,1,1,1h6v12c0,0.552,0.447,1,1,1h12v6c0,0.552,0.447,1,1,1s1-0.448,1-1v-6h7v6
	c0,0.552,0.447,1,1,1s1-0.448,1-1v-6h7v6c0,0.552,0.447,1,1,1s1-0.448,1-1v-6h12c0.553,0,1-0.448,1-1V42h6c0.553,0,1-0.448,1-1
	s-0.447-1-1-1h-6v-7h6c0.553,0,1-0.448,1-1s-0.447-1-1-1h-6v-7h6c0.553,0,1-0.448,1-1s-0.447-1-1-1h-6V10c0-0.552-0.447-1-1-1H42V3
	c0-0.552-0.447-1-1-1s-1,0.448-1,1v6h-7V3c0-0.552-0.447-1-1-1s-1,0.448-1,1v6h-7V3c0-0.552-0.447-1-1-1s-1,0.448-1,1v6H10
	c-0.553,0-1,0.448-1,1v12H3c-0.553,0-1,0.448-1,1s0.447,1,1,1h6v7H3c-0.553,0-1,0.448-1,1s0.447,1,1,1h6v7H3z M11,33h4
	c0.553,0,1-0.448,1-1s-0.447-1-1-1h-4v-7h4c0.553,0,1-0.448,1-1s-0.447-1-1-1h-4V11h11v4c0,0.552,0.447,1,1,1s1-0.448,1-1v-4h7v4
	c0,0.552,0.447,1,1,1s1-0.448,1-1v-4h7v4c0,0.552,0.447,1,1,1s1-0.448,1-1v-4h11v11h-4c-0.553,0-1,0.448-1,1s0.447,1,1,1h4v7h-4
	c-0.553,0-1,0.448-1,1s0.447,1,1,1h4v7h-4c-0.553,0-1,0.448-1,1s0.447,1,1,1h4v11H42v-4c0-0.552-0.447-1-1-1s-1,0.448-1,1v4h-7v-4
	c0-0.552-0.447-1-1-1s-1,0.448-1,1v4h-7v-4c0-0.552-0.447-1-1-1s-1,0.448-1,1v4H11V42h4c0.553,0,1-0.448,1-1s-0.447-1-1-1h-4V33z"/>
</svg>
