<?xml version="1.0" encoding="utf-8"?>
<!-- Generator: Adobe Illustrator 19.1.0, SVG Export Plug-In . SVG Version: 6.00 Build 0)  -->
<!DOCTYPE svg PUBLIC "-//W3C//DTD SVG 1.1//EN" "http://www.w3.org/Graphics/SVG/1.1/DTD/svg11.dtd">
<svg version="1.1" id="Layer_1" xmlns="http://www.w3.org/2000/svg" xmlns:xlink="http://www.w3.org/1999/xlink" x="0px" y="0px"
	 width="24px" height="24px" viewBox="0 0 24 24" enable-background="new 0 0 24 24" xml:space="preserve">
<path data-color="color-2" fill="#444444" d="M21,0H5C4.4477539,0,4,0.4477539,4,1v3c0,0.5522461,0.4477539,1,1,1h16
	c0.5522461,0,1-0.4477539,1-1V1C22,0.4477539,21.5522461,0,21,0z"/>
<path fill="#444444" d="M7,7v3.5112305l-3.2602539,3.2255859c-1.1333008,1.1328125-1.7573242,2.6396484-1.7573242,4.2421875
	s0.6240234,3.109375,1.7573242,4.2426758c1.1694336,1.1694336,2.7055664,1.7543945,4.2416992,1.7543945
	c1.5371094,0,3.0742188-0.5854492,4.2451172-1.7558594l6.4824219-6.5146484C18.8955078,15.5180664,19,15.2641602,19,15V7H7z"/>
</svg>
