<?xml version="1.0" encoding="utf-8"?>
<!-- Generator: Adobe Illustrator 19.1.0, SVG Export Plug-In . SVG Version: 6.00 Build 0)  -->
<!DOCTYPE svg PUBLIC "-//W3C//DTD SVG 1.1//EN" "http://www.w3.org/Graphics/SVG/1.1/DTD/svg11.dtd">
<svg version="1.1" id="Layer_1" xmlns="http://www.w3.org/2000/svg" xmlns:xlink="http://www.w3.org/1999/xlink" x="0px" y="0px"
	 width="24px" height="24px" viewBox="0 0 24 24" enable-background="new 0 0 24 24" xml:space="preserve">
<path data-color="color-2" fill="#444444" d="M16.0146484,12.2392578l-3.4150391,2.5605469
	c-0.3554688,0.2666016-0.84375,0.2666016-1.1992188,0l-3.4150391-2.5605469l-4.9411621,3.529541
	C3.4882202,20.3040161,7.8140259,23,12,23s8.5117798-2.6959839,8.9558105-7.2312012L16.0146484,12.2392578z"/>
<path fill="#444444" d="M7.4189453,10.1860352C7.7734375,9.9331055,8.2519531,9.9375,8.5996094,10.2001953L12,12.75
	l3.4003906-2.5498047c0.3466797-0.2617188,0.8271484-0.2666016,1.1806641-0.0141602l4.3500977,3.1072388
	C20.4018555,6.1636353,16.5980835,1,12,1C7.3631592,1,3.5922241,6.1638184,3.0681152,13.2937622L7.4189453,10.1860352z"/>
</svg>
