<?xml version="1.0" encoding="utf-8"?>
<!-- Generator: Adobe Illustrator 19.1.0, SVG Export Plug-In . SVG Version: 6.00 Build 0)  -->
<!DOCTYPE svg PUBLIC "-//W3C//DTD SVG 1.1//EN" "http://www.w3.org/Graphics/SVG/1.1/DTD/svg11.dtd">
<svg version="1.1" id="Layer_1" xmlns="http://www.w3.org/2000/svg" xmlns:xlink="http://www.w3.org/1999/xlink" x="0px" y="0px"
	 width="24px" height="24px" viewBox="0 0 24 24" enable-background="new 0 0 24 24" xml:space="preserve">
<path d="M20.9,14.4C21,14,21,13.5,21,13c0-5.5-4.5-10-10-10c-0.5,0-1,0-1.4,0.1C7.2,1.5,3.2-0.6,1.3,1.3C0,2.6,0.6,5.2,2.3,8.1
	C1.5,9.5,1,11.2,1,13c0,5.5,4.5,10,10,10c1.8,0,3.5-0.5,4.9-1.3c1.8,1.1,3.5,1.7,4.9,1.7c0.8,0,1.5-0.2,2-0.7
	C24.6,20.8,22.5,16.8,20.9,14.4z M3.6,6.3C2.6,4.4,2.4,3,2.7,2.7C3,2.4,4.4,2.4,7,3.9C5.7,4.4,4.5,5.3,3.6,6.3z M7.5,17.4
	C6.7,17.4,6,16.8,6,16s0.7-1.5,1.5-1.5s1.5,0.7,1.5,1.5S8.3,17.4,7.5,17.4z M11,11c-1.1,0-2-0.9-2-2s0.9-2,2-2s2,0.9,2,2
	S12.1,11,11,11z M15,15.5c-0.8,0-1.5-0.7-1.5-1.5s0.7-1.5,1.5-1.5s1.5,0.7,1.5,1.5S15.8,15.5,15,15.5z M21.3,21.3
	c-0.4,0.4-1.7,0.1-3.6-0.9c1-0.9,1.9-2.1,2.4-3.4C21.6,19.6,21.6,21,21.3,21.3z"/>
</svg>
