<?xml version="1.0" encoding="utf-8"?>
<!-- Generator: Adobe Illustrator 19.1.0, SVG Export Plug-In . SVG Version: 6.00 Build 0)  -->
<!DOCTYPE svg PUBLIC "-//W3C//DTD SVG 1.1//EN" "http://www.w3.org/Graphics/SVG/1.1/DTD/svg11.dtd">
<svg version="1.1" id="Layer_1" xmlns="http://www.w3.org/2000/svg" xmlns:xlink="http://www.w3.org/1999/xlink" x="0px" y="0px"
	 width="24px" height="24px" viewBox="0 0 24 24" enable-background="new 0 0 24 24" xml:space="preserve">
<path d="M22.3,3.9l-2.2-2.2c-1.1-1.1-3.1-1.1-4.2,0L2.3,15.3c-0.1,0.1-0.1,0.2-0.2,0.3c0,0,0,0.1,0,0.1c0,0,0,0.1,0,0.1l-1,6
	c-0.1,0.3,0.1,0.6,0.3,0.9C1.5,22.9,1.7,23,2,23c0.1,0,0.1,0,0.2,0l6-1c0,0,0.1,0,0.1,0c0,0,0.1,0,0.1,0c0.1,0,0.2-0.1,0.3-0.2
	L22.3,8.1C23.5,7,23.5,5,22.3,3.9z M17,10.6L13.4,7L15,5.4L18.6,9L17,10.6z M8,19.6l-1.1-1.1l7.6-7.6l1.1,1.1L8,19.6z M12,8.4
	l1.1,1.1l-7.6,7.6L4.4,16L12,8.4z"/>
</svg>
