<?xml version="1.0" encoding="utf-8"?>
<!-- Generator: Adobe Illustrator 19.1.0, SVG Export Plug-In . SVG Version: 6.00 Build 0)  -->
<!DOCTYPE svg PUBLIC "-//W3C//DTD SVG 1.1//EN" "http://www.w3.org/Graphics/SVG/1.1/DTD/svg11.dtd">
<svg version="1.1" id="Layer_1" xmlns="http://www.w3.org/2000/svg" xmlns:xlink="http://www.w3.org/1999/xlink" x="0px" y="0px"
	 width="24px" height="24px" viewBox="0 0 24 24" enable-background="new 0 0 24 24" xml:space="preserve">
<path id="color_15_" d="M8.6,15.2C7.9,14.5,6.9,14,5.8,14S3.7,14.5,3,15.2c-1.4,1.4-1.7,5.5-1.7,6.3c0,0.3,0.1,0.6,0.3,0.8
	c0.2,0.2,0.4,0.3,0.7,0.3c0,0,0,0,0.1,0c0.8,0,4.9-0.3,6.3-1.7c0.8-0.8,1.2-1.8,1.2-2.8S9.4,16,8.6,15.2z"/>
<path d="M15.6,4l-7.3,7.3c-0.4,0.4-0.4,1,0,1.4l3,3c0.2,0.2,0.5,0.3,0.7,0.3s0.5-0.1,0.7-0.3L20,8.4L15.6,4z"/>
<path id="color_14_" d="M22.2,1.8c-1.2-1.2-3.2-1.2-4.4,0L17,2.6L21.4,7l0.8-0.8C23.4,5,23.4,3,22.2,1.8z"/>
</svg>
