<?xml version="1.0" encoding="utf-8"?>
<!-- Generator: Adobe Illustrator 19.1.0, SVG Export Plug-In . SVG Version: 6.00 Build 0)  -->
<!DOCTYPE svg PUBLIC "-//W3C//DTD SVG 1.1//EN" "http://www.w3.org/Graphics/SVG/1.1/DTD/svg11.dtd">
<svg version="1.1" id="Layer_1" xmlns="http://www.w3.org/2000/svg" xmlns:xlink="http://www.w3.org/1999/xlink" x="0px" y="0px"
	 width="24px" height="24px" viewBox="0 0 24 24" enable-background="new 0 0 24 24" xml:space="preserve">
<path id="color_36_" d="M2,22H1c-0.6,0-1-0.4-1-1s0.4-1,1-1h1c0.6,0,1-0.4,1-1v-0.4l-1.7-0.9c-0.7-0.4-1.1-1-1.1-1.8
	c0-0.8,0.4-1.4,1.1-1.8L3,13.4V12c0-0.5,0.3-0.9,0.8-1L6,10.5L3.3,7.7C3.1,7.5,3,7.3,3,7V2c0-0.6,0.4-1,1-1s1,0.4,1,1v4.6L7.5,9
	C8,9.6,8.2,10.3,8,11c-0.2,0.7-0.7,1.2-1.4,1.4L5,12.8V14c0,0.4-0.2,0.7-0.6,0.9L2.2,16l2.2,1.2C4.8,17.3,5,17.6,5,18v1
	C5,20.7,3.7,22,2,22z"/>
<path d="M21,3h-8c-1.7,0-3,1.3-3,3v5.7l-2.8,3.7c-0.2,0.3-0.3,0.7-0.1,1C7.3,16.8,7.6,17,8,17h13c1.7,0,3-1.3,3-3V6
	C24,4.3,22.7,3,21,3z M20,13h-6v-2h6V13z M20,9h-6V7h6V9z"/>
</svg>
