<?xml version="1.0" encoding="utf-8"?>
<!-- Generator: Adobe Illustrator 19.1.0, SVG Export Plug-In . SVG Version: 6.00 Build 0)  -->
<!DOCTYPE svg PUBLIC "-//W3C//DTD SVG 1.1//EN" "http://www.w3.org/Graphics/SVG/1.1/DTD/svg11.dtd">
<svg version="1.1" id="Layer_1" xmlns="http://www.w3.org/2000/svg" xmlns:xlink="http://www.w3.org/1999/xlink" x="0px" y="0px"
	 width="24px" height="24px" viewBox="0 0 24 24" enable-background="new 0 0 24 24" xml:space="preserve">
<path d="M19.7,11.3l-8-8c-0.4-0.4-1-0.4-1.4,0l-7,7c-0.4,0.4-0.4,1,0,1.4l8,8c0.2,0.2,0.5,0.3,0.7,0.3s0.5-0.1,0.7-0.3l7-7
	C20.1,12.3,20.1,11.7,19.7,11.3z M9.7,9.7l-2,2C7.5,11.9,7.3,12,7,12s-0.5-0.1-0.7-0.3c-0.4-0.4-0.4-1,0-1.4l2-2
	c0.4-0.4,1-0.4,1.4,0S10.1,9.3,9.7,9.7z"/>
<path d="M19,24H5c-0.6,0-1-0.4-1-1s0.4-1,1-1h14c0.6,0,1,0.4,1,1S19.6,24,19,24z"/>
<path id="color_6_" d="M20.8,9.6l0.9-0.9c0.4-0.4,0.4-1,0-1.4l-6-6c-0.4-0.4-1-0.4-1.4,0l-0.9,0.9L20.8,9.6z"/>
<path id="color_5_" d="M2.2,13.4l-0.9,0.9c-0.4,0.4-0.4,1,0,1.4l5,5C6.5,20.9,6.7,21,7,21h2c0.2,0,0.4-0.1,0.6-0.2L2.2,13.4z"/>
</svg>
