<?xml version="1.0" encoding="utf-8"?>
<!-- Generator: Adobe Illustrator 19.1.0, SVG Export Plug-In . SVG Version: 6.00 Build 0)  -->
<!DOCTYPE svg PUBLIC "-//W3C//DTD SVG 1.1//EN" "http://www.w3.org/Graphics/SVG/1.1/DTD/svg11.dtd">
<svg version="1.1" id="Layer_1" xmlns="http://www.w3.org/2000/svg" xmlns:xlink="http://www.w3.org/1999/xlink" x="0px" y="0px"
	 width="24px" height="24px" viewBox="0 0 24 24" enable-background="new 0 0 24 24" xml:space="preserve">
<path d="M23,18h-2v-1c-0.5,0-0.9-0.1-1.3-0.3L19,16.4l-0.7,0.3C17.9,16.9,17.5,17,17,17c-0.6,0-1.1-0.2-1.6-0.4C14.5,16,14,15,14,14
	V9.9c-1.3-1.3-2-3-2-4.9c0-2,0.8-3.7,2.1-5H3.5C1.6,0,0,1.6,0,3.5V5c0,0.6,0.4,1,1,1h4v14.5C5,22.4,6.6,24,8.5,24H20h0.5
	c1.9,0,3.5-1.6,3.5-3.5V19C24,18.4,23.6,18,23,18z M5,4H2V3.5C2,2.7,2.7,2,3.5,2S5,2.7,5,3.5V4z M22,20.5c0,0.8-0.7,1.5-1.5,1.5
	h-8.8c0.2-0.4,0.3-0.9,0.3-1.5V20h10V20.5z"/>
<path id="color_33_" d="M24,5c0-2.8-2.2-5-5-5s-5,2.2-5,5c0,1.6,0.8,3.1,2,4v5c0,0.3,0.2,0.7,0.5,0.9c0.3,0.2,0.7,0.2,1,0l1.6-0.8
	l1.6,0.8C20.7,15,20.8,15,21,15c0.2,0,0.4-0.1,0.5-0.1c0.3-0.2,0.5-0.5,0.5-0.9V9C23.2,8.1,24,6.6,24,5z"/>
</svg>
