<?xml version="1.0" encoding="utf-8"?>
<!-- Generator: Adobe Illustrator 19.1.0, SVG Export Plug-In . SVG Version: 6.00 Build 0)  -->
<!DOCTYPE svg PUBLIC "-//W3C//DTD SVG 1.1//EN" "http://www.w3.org/Graphics/SVG/1.1/DTD/svg11.dtd">
<svg version="1.1" id="Layer_1" xmlns="http://www.w3.org/2000/svg" xmlns:xlink="http://www.w3.org/1999/xlink" x="0px" y="0px"
	 width="24px" height="24px" viewBox="0 0 24 24" enable-background="new 0 0 24 24" xml:space="preserve">
<path d="M20,12.4V8c0-4.4-3.6-8-8-8S4,3.6,4,8v4.4c-2.9,1.8-4,5.5-4,7.6c0,3.2,7.5,4,12,4s12-0.8,12-4C24,17.9,22.9,14.2,20,12.4z
	 M12,22c-6,0-9.7-1.3-10-2c0.2-0.5,2.4-1.5,6.2-1.9c0.5,1.6,2,2.8,3.8,2.8c1.8,0,3.3-1.2,3.8-2.8c3.7,0.4,6,1.3,6.2,1.8c0,0,0,0,0,0
	C21.7,20.7,18,22,12,22z"/>
</svg>
