<?xml version="1.0" encoding="utf-8"?>
<!-- Generator: Adobe Illustrator 19.1.0, SVG Export Plug-In . SVG Version: 6.00 Build 0)  -->
<!DOCTYPE svg PUBLIC "-//W3C//DTD SVG 1.1//EN" "http://www.w3.org/Graphics/SVG/1.1/DTD/svg11.dtd">
<svg version="1.1" id="Layer_1" xmlns="http://www.w3.org/2000/svg" xmlns:xlink="http://www.w3.org/1999/xlink" x="0px" y="0px"
	 width="24px" height="24px" viewBox="0 0 24 24" enable-background="new 0 0 24 24" xml:space="preserve">
<path id="color_45_" d="M19,2h-3v6h3c0.6,0,1-0.4,1-1V3C20,2.4,19.6,2,19,2z"/>
<path id="color_44_" d="M23,9h-3v6h3c0.6,0,1-0.4,1-1v-4C24,9.4,23.6,9,23,9z"/>
<path id="color_43_" d="M19,16h-3v6h3c0.6,0,1-0.4,1-1v-4C20,16.4,19.6,16,19,16z"/>
<path d="M1,2C0.4,2,0,2.4,0,3v4c0,0.6,0.4,1,1,1h13V2H1z M9,6H4V4h5V6z"/>
<path d="M5,9c-0.6,0-1,0.4-1,1v4c0,0.6,0.4,1,1,1h13V9H5z M13,13H8v-2h5V13z"/>
<path d="M1,16c-0.6,0-1,0.4-1,1v4c0,0.6,0.4,1,1,1h13v-6H1z M9,20H4v-2h5V20z"/>
</svg>
