<?xml version="1.0" encoding="utf-8"?>
<!-- Generator: Adobe Illustrator 19.1.0, SVG Export Plug-In . SVG Version: 6.00 Build 0)  -->
<!DOCTYPE svg PUBLIC "-//W3C//DTD SVG 1.1//EN" "http://www.w3.org/Graphics/SVG/1.1/DTD/svg11.dtd">
<svg version="1.1" id="Layer_1" xmlns="http://www.w3.org/2000/svg" xmlns:xlink="http://www.w3.org/1999/xlink" x="0px" y="0px"
	 width="24px" height="24px" viewBox="0 0 24 24" enable-background="new 0 0 24 24" xml:space="preserve">
<path d="M23,0H1C0.4,0,0,0.4,0,1v22c0,0.6,0.4,1,1,1h22c0.6,0,1-0.4,1-1V1C24,0.4,23.6,0,23,0z M9.7,18.3c0.4,0.4,0.4,1,0,1.4
	C9.5,19.9,9.3,20,9,20s-0.5-0.1-0.7-0.3L7,18.4l-1.3,1.3C5.5,19.9,5.3,20,5,20s-0.5-0.1-0.7-0.3c-0.4-0.4-0.4-1,0-1.4L5.6,17
	l-1.3-1.3c-0.4-0.4-0.4-1,0-1.4s1-0.4,1.4,0L7,15.6l1.3-1.3c0.4-0.4,1-0.4,1.4,0s0.4,1,0,1.4L8.4,17L9.7,18.3z M9,8H8v1
	c0,0.6-0.4,1-1,1S6,9.6,6,9V8H5C4.4,8,4,7.6,4,7s0.4-1,1-1h1V5c0-0.6,0.4-1,1-1s1,0.4,1,1v1h1c0.6,0,1,0.4,1,1S9.6,8,9,8z M19,20h-4
	c-0.6,0-1-0.4-1-1s0.4-1,1-1h4c0.6,0,1,0.4,1,1S19.6,20,19,20z M19,16h-4c-0.6,0-1-0.4-1-1s0.4-1,1-1h4c0.6,0,1,0.4,1,1
	S19.6,16,19,16z M19,8h-4c-0.6,0-1-0.4-1-1s0.4-1,1-1h4c0.6,0,1,0.4,1,1S19.6,8,19,8z"/>
</svg>
