<?xml version="1.0" encoding="utf-8"?>
<!-- Generator: Adobe Illustrator 19.1.0, SVG Export Plug-In . SVG Version: 6.00 Build 0)  -->
<!DOCTYPE svg PUBLIC "-//W3C//DTD SVG 1.1//EN" "http://www.w3.org/Graphics/SVG/1.1/DTD/svg11.dtd">
<svg version="1.1" id="Layer_1" xmlns="http://www.w3.org/2000/svg" xmlns:xlink="http://www.w3.org/1999/xlink" x="0px" y="0px"
	 width="24px" height="24px" viewBox="0 0 24 24" enable-background="new 0 0 24 24" xml:space="preserve">
<path d="M21.7,11.3l-1.8-1.8l0.8-0.8c0.4-0.4,0.4-1,0-1.4l-4-4c-0.4-0.4-1-0.4-1.4,0l-11,11c-0.4,0.4-0.4,1,0,1.4L4.6,16l-2.3,2.3
	c-0.4,0.4-0.4,1,0,1.4L2.6,20l-1.3,1.3c-0.4,0.4-0.4,1,0,1.4C1.5,22.9,1.7,23,2,23s0.5-0.1,0.7-0.3L4,21.4l0.3,0.3
	C4.5,21.9,4.7,22,5,22s0.5-0.1,0.7-0.3L8,19.4l0.3,0.3C8.5,19.9,8.7,20,9,20s0.5-0.1,0.7-0.3l8.8-8.8l1.1,1.1l-5.3,5.3
	c-0.4,0.4-0.4,1,0,1.4c0.2,0.2,0.5,0.3,0.7,0.3s0.5-0.1,0.7-0.3l6-6C22.1,12.3,22.1,11.7,21.7,11.3z"/>
<path id="color_12_" d="M21.8,5.6l0.9-0.9c0.4-0.4,0.4-1,0-1.4l-2-2c-0.4-0.4-1-0.4-1.4,0l-0.9,0.9L21.8,5.6z"/>
</svg>
