<?xml version="1.0" encoding="utf-8"?>
<!-- Generator: Adobe Illustrator 19.1.0, SVG Export Plug-In . SVG Version: 6.00 Build 0)  -->
<!DOCTYPE svg PUBLIC "-//W3C//DTD SVG 1.1//EN" "http://www.w3.org/Graphics/SVG/1.1/DTD/svg11.dtd">
<svg version="1.1" id="Layer_1" xmlns="http://www.w3.org/2000/svg" xmlns:xlink="http://www.w3.org/1999/xlink" x="0px" y="0px"
	 width="24px" height="24px" viewBox="0 0 24 24" enable-background="new 0 0 24 24" xml:space="preserve">
<path d="M22,14h-4v-3c0-0.3-0.1-0.6-0.4-0.8L13,6.5V5h3c0.6,0,1-0.4,1-1V1c0-0.6-0.4-1-1-1h-4c-0.6,0-1,0.4-1,1v5.5l-4.6,3.7
	C6.1,10.4,6,10.7,6,11v3H2c-0.6,0-1,0.4-1,1v8c0,0.6,0.4,1,1,1h7c0.6,0,1-0.4,1-1v-5h4v5c0,0.6,0.4,1,1,1h7c0.6,0,1-0.4,1-1v-8
	C23,14.4,22.6,14,22,14z M13,2h2v1h-2V2z M14,14h-4v-2h4V14z"/>
</svg>
