<?xml version="1.0" encoding="utf-8"?>
<!-- Generator: Adobe Illustrator 19.1.0, SVG Export Plug-In . SVG Version: 6.00 Build 0)  -->
<!DOCTYPE svg PUBLIC "-//W3C//DTD SVG 1.1//EN" "http://www.w3.org/Graphics/SVG/1.1/DTD/svg11.dtd">
<svg version="1.1" id="Layer_1" xmlns="http://www.w3.org/2000/svg" xmlns:xlink="http://www.w3.org/1999/xlink" x="0px" y="0px"
	 width="24px" height="24px" viewBox="0 0 24 24" enable-background="new 0 0 24 24" xml:space="preserve">
<path d="M23,4h-1V2c0-0.3-0.2-0.6-0.4-0.8C21.3,1,21,0.9,20.7,1.1L12,3.9L3.3,1.1C3,0.9,2.7,1,2.4,1.2C2.2,1.4,2,1.7,2,2v2H1
	C0.4,4,0,4.4,0,5v18c0,0.6,0.4,1,1,1h22c0.6,0,1-0.4,1-1V5C24,4.4,23.6,4,23,4z M20,17.3l-7,2.3V5.7l7-2.3V17.3z M4,3.4l7,2.3v13.9
	l-7-2.3V3.4z"/>
</svg>
