<?xml version="1.0" encoding="utf-8"?>
<!-- Generator: Adobe Illustrator 19.1.0, SVG Export Plug-In . SVG Version: 6.00 Build 0)  -->
<!DOCTYPE svg PUBLIC "-//W3C//DTD SVG 1.1//EN" "http://www.w3.org/Graphics/SVG/1.1/DTD/svg11.dtd">
<svg version="1.1" id="Layer_1" xmlns="http://www.w3.org/2000/svg" xmlns:xlink="http://www.w3.org/1999/xlink" x="0px" y="0px"
	 width="24px" height="24px" viewBox="0 0 24 24" enable-background="new 0 0 24 24" xml:space="preserve">
<path d="M23,3h-1c0-0.6-0.4-1-1-1h-7c-0.8,0-1.5,0.3-2,0.8C11.5,2.3,10.8,2,10,2H3C2.4,2,2,2.4,2,3H1C0.4,3,0,3.4,0,4v17
	c0,0.6,0.4,1,1,1h22c0.6,0,1-0.4,1-1V4C24,3.4,23.6,3,23,3z M4,4h6c0.6,0,1,0.4,1,1c0,0.6,0.4,1,1,1s1-0.4,1-1c0-0.6,0.4-1,1-1h6v13
	h-6c-0.8,0-1.5,0.3-2,0.8c-0.5-0.5-1.2-0.8-2-0.8H4V4z"/>
<path id="color_4_" d="M12,15c0.6,0,1-0.4,1-1V8c0-0.6-0.4-1-1-1s-1,0.4-1,1v6C11,14.6,11.4,15,12,15z"/>
</svg>
