<?xml version="1.0" encoding="utf-8"?>
<!-- Generator: Adobe Illustrator 19.1.0, SVG Export Plug-In . SVG Version: 6.00 Build 0)  -->
<!DOCTYPE svg PUBLIC "-//W3C//DTD SVG 1.1//EN" "http://www.w3.org/Graphics/SVG/1.1/DTD/svg11.dtd">
<svg version="1.1" id="Layer_1" xmlns="http://www.w3.org/2000/svg" xmlns:xlink="http://www.w3.org/1999/xlink" x="0px" y="0px"
	 width="24px" height="24px" viewBox="0 0 24 24" enable-background="new 0 0 24 24" xml:space="preserve">
<path id="color_31_" d="M19,0v24c1.7,0,3-1.3,3-3V3C22,1.3,20.7,0,19,0z"/>
<path d="M12,0v6c0,0.4-0.2,0.8-0.6,0.9C11.3,7,11.1,7,11,7c-0.3,0-0.5-0.1-0.7-0.3L9,5.4L7.7,6.7C7.4,7,7,7.1,6.6,6.9
	C6.2,6.8,6,6.4,6,6V0H3C2.4,0,2,0.4,2,1v22c0,0.6,0.4,1,1,1h14V0H12z M13,16c0,0.6-0.4,1-1,1H7c-0.6,0-1-0.4-1-1v-3c0-0.6,0.4-1,1-1
	h5c0.6,0,1,0.4,1,1V16z"/>
</svg>
