<?xml version="1.0" encoding="utf-8"?>
<!-- Generator: Adobe Illustrator 19.1.0, SVG Export Plug-In . SVG Version: 6.00 Build 0)  -->
<!DOCTYPE svg PUBLIC "-//W3C//DTD SVG 1.1//EN" "http://www.w3.org/Graphics/SVG/1.1/DTD/svg11.dtd">
<svg version="1.1" id="Layer_1" xmlns="http://www.w3.org/2000/svg" xmlns:xlink="http://www.w3.org/1999/xlink" x="0px" y="0px"
	 width="24px" height="24px" viewBox="0 0 24 24" enable-background="new 0 0 24 24" xml:space="preserve">
<path d="M22.7,6.3l-5-5c-0.4-0.4-1-0.4-1.4,0L14,3.6l2.7,2.7c0.4,0.4,0.4,1,0,1.4C16.5,7.9,16.2,8,16,8c-0.3,0-0.5-0.1-0.7-0.3
	L12.6,5L11,6.6l1.7,1.7c0.4,0.4,0.4,1,0,1.4C12.5,9.9,12.3,10,12,10s-0.5-0.1-0.7-0.3L9.6,8L8,9.6l2.7,2.7c0.4,0.4,0.4,1,0,1.4
	C10.5,13.9,10.3,14,10,14s-0.5-0.1-0.7-0.3L6.6,11L5,12.6l1.7,1.7c0.4,0.4,0.4,1,0,1.4C6.5,15.9,6.3,16,6,16s-0.5-0.1-0.7-0.3
	L3.6,14l-2.3,2.3c-0.4,0.4-0.4,1,0,1.4l5,5C6.5,22.9,6.7,23,7,23s0.5-0.1,0.7-0.3l15-15C23.1,7.3,23.1,6.7,22.7,6.3z"/>
</svg>
