<?xml version="1.0" encoding="utf-8"?>
<!-- Generator: Adobe Illustrator 19.1.0, SVG Export Plug-In . SVG Version: 6.00 Build 0)  -->
<!DOCTYPE svg PUBLIC "-//W3C//DTD SVG 1.1//EN" "http://www.w3.org/Graphics/SVG/1.1/DTD/svg11.dtd">
<svg version="1.1" id="Layer_1" xmlns="http://www.w3.org/2000/svg" xmlns:xlink="http://www.w3.org/1999/xlink" x="0px" y="0px"
	 width="24px" height="24px" viewBox="0 0 24 24" enable-background="new 0 0 24 24" xml:space="preserve">
<path id="color_38_" d="M3,15.1c-1.7,0.4-3,2-3,3.9v4c0,0.6,0.4,1,1,1h2V15.1z"/>
<path id="color_37_" d="M21,15.1V24h2c0.6,0,1-0.4,1-1v-4C24,17.1,22.7,15.6,21,15.1z"/>
<path d="M16.9,4.1C16.5,1.8,14.5,0,12,0S7.5,1.8,7.1,4.1C5.3,4.5,4,6.1,4,8v15c0,0.6,0.4,1,1,1h14c0.6,0,1-0.4,1-1V8
	C20,6.1,18.7,4.5,16.9,4.1z M12,2c1.3,0,2.4,0.8,2.8,2H9.2C9.6,2.8,10.7,2,12,2z M9,18v1c0,0.6-0.4,1-1,1s-1-0.4-1-1v-1
	c-0.6,0-1-0.4-1-1s0.4-1,1-1v-5c0-0.6,0.4-1,1-1s1,0.4,1,1v5c0.6,0,1,0.4,1,1S9.6,18,9,18z M17,18v1c0,0.6-0.4,1-1,1s-1-0.4-1-1v-1
	c-0.6,0-1-0.4-1-1s0.4-1,1-1v-5c0-0.6,0.4-1,1-1s1,0.4,1,1v5c0.6,0,1,0.4,1,1S17.6,18,17,18z"/>
</svg>
