<?xml version="1.0" encoding="utf-8"?>
<!-- Generator: Adobe Illustrator 19.1.0, SVG Export Plug-In . SVG Version: 6.00 Build 0)  -->
<!DOCTYPE svg PUBLIC "-//W3C//DTD SVG 1.1//EN" "http://www.w3.org/Graphics/SVG/1.1/DTD/svg11.dtd">
<svg version="1.1" id="Layer_1" xmlns="http://www.w3.org/2000/svg" xmlns:xlink="http://www.w3.org/1999/xlink" x="0px" y="0px"
	 width="24px" height="24px" viewBox="0 0 24 24" enable-background="new 0 0 24 24" xml:space="preserve">
<path d="M22,1H2C1.4,1,1,1.4,1,2v21c0,0.6,0.4,1,1,1h20c0.6,0,1-0.4,1-1V2C23,1.4,22.6,1,22,1z M20,20c0,0.6-0.4,1-1,1H5
	c-0.6,0-1-0.4-1-1V5c0-0.6,0.4-1,1-1h2v3c0,0.6,0.4,1,1,1h2c0.6,0,1-0.4,1-1c0-0.6,0.4-1,1-1s1,0.4,1,1c0,0.6,0.4,1,1,1h2
	c0.6,0,1-0.4,1-1V4h2c0.6,0,1,0.4,1,1V20z"/>
<rect id="color_47_" x="8" y="11" width="8" height="2"/>
<rect id="color_46_" x="8" y="15" width="8" height="2"/>
</svg>
