<svg xmlns="http://www.w3.org/2000/svg" xmlns:xlink="http://www.w3.org/1999/xlink" x="0px" y="0px" width="48px" height="48px" viewBox="0 0 48 48"><g >
<path fill="#A67C52" d="M46.79053,19.38721c-0.33887-0.43652-0.96826-0.51562-1.40332-0.17773l-3.13629,2.43121l-1.28363-4.89459
	c-0.13965-0.53467-0.68604-0.85547-1.22119-0.71338c-0.53418,0.14014-0.85352,0.68652-0.71338,1.22119l1.49976,5.71887
	l-4.08472,3.16638c-0.43652,0.33838-0.51611,0.9668-0.17773,1.40332c0.19727,0.25391,0.49268,0.38721,0.79102,0.38721
	c0.21436,0,0.43018-0.06836,0.6123-0.20947l4.60425-3.56915l0.00055-0.00037l4.33466-3.36017
	C47.04932,20.45215,47.12891,19.82373,46.79053,19.38721z"/>
<path fill="#A67C52" d="M7.46521,22.98151l1.50208-5.7276c0.14014-0.53467-0.1792-1.08105-0.71338-1.22119
	c-0.5376-0.14111-1.08105,0.18018-1.22119,0.71338l-1.2851,4.90027l-3.13385-2.43591
	c-0.43604-0.33887-1.06445-0.26123-1.40332,0.17578c-0.33887,0.43604-0.26025,1.06445,0.17578,1.40332l8.93896,6.94824
	c0.18262,0.1416,0.39844,0.21045,0.61328,0.21045c0.29785,0,0.59277-0.13281,0.79004-0.38623
	c0.33887-0.43604,0.26025-1.06445-0.17578-1.40332L7.46521,22.98151z"/>
<path fill="#D3D3D3" d="M24,47c-8.271,0-15-6.729-15-15c0-5.33838,2.87305-10.31689,7.49756-12.99268
	c0.15234-0.08789,0.3252-0.13428,0.50098-0.13428l14.00293,0.00049c0.1748,0,0.34668,0.0459,0.49854,0.1333
	C36.12598,21.66748,39,26.646,39,32C39,40.271,32.271,47,24,47z"/>
<path fill="#E6E6E6" d="M24,25c-4.9624,0-9-4.0376-9-9c0-2.58008,1.11035-5.04053,3.0459-6.74951
	C18.229,9.08887,18.46436,9,18.70801,9l0,0l10.58594,0.00195c0.24414,0,0.47949,0.08936,0.66211,0.25049
	C31.89062,10.96094,33,13.42041,33,16C33,20.9624,28.9624,25,24,25z"/>
<path fill="#444444" d="M35,9h-4V2c0-0.55225-0.44775-1-1-1H18c-0.55225,0-1,0.44775-1,1v7h-4c-0.55225,0-1,0.44775-1,1
	s0.44775,1,1,1h22c0.55225,0,1-0.44775,1-1S35.55225,9,35,9z"/>
<circle fill="#444444" cx="21" cy="15" r="1"/>
<circle fill="#444444" cx="27" cy="15" r="1"/>
<path fill="#EA9860" d="M22.92951,20.68949c-0.93294-0.59136-1.20984-1.82704-0.61848-2.75998
	c0.59136-0.93294,1.82704-1.20984,2.75998-0.61848C26.00394,17.90239,31.59136,23.06706,31,24S23.86244,21.28084,22.92951,20.68949z
	"/>
</g></svg>