<svg xmlns="http://www.w3.org/2000/svg" xmlns:xlink="http://www.w3.org/1999/xlink" x="0px" y="0px" width="48px" height="48px" viewBox="0 0 48 48"><g >
<path fill="#BADEFC" d="M42.2431,39C45.22382,35.1217,47,30.26947,47,25C47,12.29742,36.70258,2,24,2S1,12.29742,1,25
	c0,5.26947,1.77618,10.1217,4.7569,14H42.2431z"/>
<rect x="22" y="33" fill="#87613E" width="4" height="6"/>
<path fill="#72C472" d="M31,33.9646H17c-0.35791,0-0.68896-0.19141-0.86719-0.50195s-0.17725-0.69238,0.00342-1.00195l7-12
	c0.3584-0.61426,1.36914-0.61426,1.72754,0l7,12c0.18066,0.30957,0.18164,0.69141,0.00342,1.00195S31.35791,33.9646,31,33.9646z"/>
<path fill="#A67C52" d="M43,46H5c-1.10457,0-2-0.89543-2-2v-3c0-1.10457,0.89543-2,2-2h38c1.10457,0,2,0.89543,2,2v3
	C45,45.10457,44.10457,46,43,46z"/>
<circle fill="#FFFFFF" cx="11" cy="21" r="1"/>
<circle fill="#FFFFFF" cx="27" cy="12" r="1"/>
<circle fill="#FFFFFF" cx="16" cy="12" r="2"/>
<circle fill="#FFFFFF" cx="37" cy="20" r="2"/>
<path fill="#FFFFFF" d="M34,39H14c-0.55228,0-1-0.44772-1-1l0,0c0-0.55228,0.44771-1,1-1h20c0.55228,0,1,0.44772,1,1l0,0
	C35,38.55228,34.55228,39,34,39z"/>
</g></svg>