<svg xmlns="http://www.w3.org/2000/svg" xmlns:xlink="http://www.w3.org/1999/xlink" x="0px" y="0px" width="48px" height="48px" viewBox="0 0 48 48"><g >
<path fill="#A67C52" d="M44.59564,7.95148c-1.44031-1.25281-3.60388-1.22205-5.117-0.05817l-0.17181,0.13214l5.03326,6.22064
	l0.09839-0.07568C46.4054,12.65759,46.5769,9.67468,44.59564,7.95148z"/>
<path fill="#A67C52" d="M11.80701,47.4931c0.70941,0.34558,1.45618,0.50836,2.19006,0.50836
	c1.79614,0,3.50226-0.98206,4.39215-2.63525l-9.03247-4.10565C8.57922,43.65155,9.51636,46.37744,11.80701,47.4931z"/>
<path fill="#A67C52" d="M8.52136,7.89331c-1.51312-1.16388-3.6767-1.19464-5.117,0.05817
	C1.4231,9.67468,1.5946,12.65759,3.56152,14.17041l0.09839,0.07568l5.03326-6.22064L8.52136,7.89331z"/>
<path fill="#A67C52" d="M33,12.87689V10H15v2.87689l-4.72125-3.63177l-5.03326,6.22064L15,22.96924v5.27014L10.11377,39.4079
	l9.10492,4.13861l2.94897-6.74066c0.69904-1.59778,2.96564-1.59778,3.66467,0l2.94897,6.74066l9.10492-4.13861L33,28.23938v-5.27014
	l9.75452-7.50348l-5.03326-6.22064L33,12.87689z"/>
<path fill="#A67C52" d="M34.00293,48.00146c0.73389,0,1.48065-0.16278,2.19006-0.50836
	c2.29065-1.11566,3.22778-3.84155,2.45026-6.23254l-9.03247,4.10565C30.50067,47.01941,32.20679,48.00146,34.00293,48.00146z"/>
<path fill="#EAD8C5" d="M9.52112,40.76257c-0.07104,0.16235-0.11029,0.33167-0.16437,0.49799l9.03247,4.10565
	c0.0647-0.12024,0.13617-0.23499,0.19183-0.3623l0.63763-1.4574l-9.10492-4.13861L9.52112,40.76257z"/>
<polygon fill="#EAD8C5" points="37.72125,9.24512 42.75452,15.46576 44.34009,14.24609 39.30682,8.02545 "/>
<path fill="#EAD8C5" d="M29.41895,45.00391c0.05566,0.12732,0.12714,0.24207,0.19183,0.3623l9.03247-4.10565
	c-0.05408-0.16632-0.09332-0.33563-0.16437-0.49799l-0.59265-1.35468l-9.10492,4.13861L29.41895,45.00391z"/>
<polygon fill="#EAD8C5" points="8.69318,8.02545 3.65991,14.24609 5.24548,15.46576 10.27875,9.24512 "/>
<circle fill="#A67C52" cx="24" cy="10" r="10"/>
<path fill="#FFFFFF" d="M24,16c-1.90234,0-3.65039-0.87305-4.79688-2.39502c-0.33203-0.44092-0.24414-1.06787,0.19727-1.40039
	c0.44238-0.33252,1.06934-0.24316,1.40039,0.19727C21.56543,13.41748,22.73145,14,24,14c1.26953,0,2.43652-0.5835,3.2002-1.60059
	c0.33105-0.44141,0.95996-0.53027,1.40039-0.19922c0.44141,0.33203,0.53027,0.95898,0.19922,1.40039
	C27.6543,15.12549,25.90527,16,24,16z"/>
<circle fill="#FFFFFF" cx="21" cy="7" r="1"/>
<circle fill="#FFFFFF" cx="27" cy="7" r="1"/>
<circle fill="#EFD358" cx="24" cy="25" r="1"/>
<circle fill="#EFD358" cx="24" cy="30" r="1"/>
</g></svg>