<svg xmlns="http://www.w3.org/2000/svg" xmlns:xlink="http://www.w3.org/1999/xlink" x="0px" y="0px" width="48px" height="48px" viewBox="0 0 48 48"><g >
<path fill="#E86C60" d="M30,1c-7.73193,0-14,6.26794-14,14v7.83081l-2.39394-2.39394c-1.95264-1.95264-5.11853-1.95264-7.07105,0
	H6.53489c-1.95251,1.95264-1.95251,5.11841,0,7.07104L17,38h27V15C44,7.26794,37.73193,1,30,1z"/>
<path fill="#E6E6E6" d="M44,47H16c-1.10457,0-2-0.89543-2-2v-6c0-1.10457,0.89543-2,2-2h28c1.10457,0,2,0.89543,2,2v6
	C46,46.10457,45.10457,47,44,47z"/>
</g></svg>