<svg xmlns="http://www.w3.org/2000/svg" xmlns:xlink="http://www.w3.org/1999/xlink" x="0px" y="0px" width="48px" height="48px" viewBox="0 0 48 48"><g >
<path fill="#E6E6E6" d="M22,42C10.4209,42,1,32.57959,1,21S10.4209,0,22,0s21,9.42041,21,21S33.5791,42,22,42z"/>
<circle fill="#444444" cx="16" cy="16" r="2"/>
<circle fill="#444444" cx="30" cy="16" r="2"/>
<path fill="#D85B55" d="M21.99902,45c-8.61035,0-15.34961-2.7876-19.49121-5.12939C2.19434,39.69287,2,39.36035,2,39v-9
	c0-0.33789,0.1709-0.65283,0.4541-0.8374c0.28223-0.18555,0.63867-0.21533,0.94922-0.07764
	C9.21777,31.64648,15.64746,33,22.00098,33c0.01953,0,0.04004,0,0.06055,0c6.3291-0.0083,12.73926-1.3623,18.53516-3.91504
	c0.31055-0.13672,0.66699-0.10693,0.94922,0.07764C41.8291,29.34717,42,29.66211,42,30v9c0,0.36035-0.19434,0.69287-0.50781,0.87061
	C37.36621,42.20312,30.64648,44.98633,22.06445,45C22.04199,45,22.02051,45,21.99902,45z"/>
<path fill="#E86C60" d="M19.08333,48L5,45V31.00038c0-1.2171,1.07798-2.15202,2.28284-1.9799l10,1.42857
	C18.26814,30.58981,19,31.43365,19,32.42895L19.08333,48z"/>
<path fill="#EA9860" d="M23.04524,27.89117c-2.14853-0.51393-3.47363-2.67228-2.9597-4.82081s2.67228-3.47363,4.82081-2.9597
	s21.76273,6.1262,21.07604,9.15427C45.35686,32.02332,25.19377,28.4051,23.04524,27.89117z"/>
</g></svg>