<svg xmlns="http://www.w3.org/2000/svg" xmlns:xlink="http://www.w3.org/1999/xlink" x="0px" y="0px" width="48px" height="48px" viewBox="0 0 48 48"><g >
<path fill="#4DA34D" d="M18.09863,34.3208l-0.66016-0.55615c-2.84375-2.39551-6.0918-4.00635-9.65332-4.78809L6.75195,28.75
	l0.28516-1.01953c1.24414-4.44531-1.3916-11.20752-3.64551-12.93701l-0.77539-0.59521l0.57617-0.78857
	c2.76367-3.77881,1.83301-9.17725,1.82324-9.23145L4.7168,2.5127l1.60449,0.54004c0.05566,0.02002,5.65234,1.86475,11.36816-0.00342
	l1.02051-0.33301l0.25977,1.04102c0.74707,2.98486,3.36426,6.479,6.66895,8.90088l0.37109,0.27197l1.02539,13.48975
	L18.09863,34.3208z"/>
<path fill="#72C472" d="M45.2373,14.25928l-0.33789-0.69629C42.90918,9.46533,42.99902,4.07568,43,4.02148l0.03418-1.63428
	l-1.4707,0.71289C41.51172,3.12549,36.25,5.63574,30.10156,5.00537l-0.99023-0.10156l-0.10547,0.99023
	c-0.36914,3.46387-5.64844,8.74316-9.11133,9.11133l-1.28809,0.13721l0.45801,1.21094
	c1.18457,3.13184,1.93457,8.66113,1.95117,11.98779l0.00293,0.60889l10.69336,5.45801l0.51172-0.46973
	c2.4375-2.2373,6.2666-4.13818,9.99219-4.96191l1.03809-0.22949l-0.29199-1.02197
	c-1.21289-4.24512-0.29883-11.27246,1.68652-12.96387L45.2373,14.25928z"/>
<path fill="#4DA34D" d="M27.36523,30.03271c-0.17578,0-0.35352-0.0459-0.51465-0.14307
	c-0.47266-0.28467-0.62598-0.89893-0.3418-1.37207l6.63379-11.03271c0.28613-0.47314,0.90039-0.62793,1.37305-0.3418
	c0.47266,0.28467,0.62598,0.89893,0.3418,1.37207l-6.63379,11.03271C28.03516,29.85986,27.70508,30.03271,27.36523,30.03271z"/>
<circle fill="#C64747" cx="18.5" cy="38.5" r="5.5"/>
<circle fill="#C64747" cx="29.5" cy="38.5" r="5.5"/>
<circle fill="#E86C60" cx="24" cy="34" r="6"/>
</g></svg>