<svg xmlns="http://www.w3.org/2000/svg" xmlns:xlink="http://www.w3.org/1999/xlink" x="0px" y="0px" width="48px" height="48px" viewBox="0 0 48 48"><g >
<path fill="#E86C60" d="M42,38.00049L42,38.00049L38,38c-0.55225,0-1-0.44775-1-1V22H5c-0.55225,0-1-0.44775-1-1v-0.5
	C4,9.74756,12.74756,1,23.5,1S43,9.74756,43,20.5v16.50049c0,0.26514-0.10547,0.51953-0.29297,0.70703
	S42.26514,38.00049,42,38.00049z"/>
<path fill="#E6E6E6" d="M36,30H3c-0.55225,0-1-0.44775-1-1v-8c0-0.55225,0.44775-1,1-1h33c0.55225,0,1,0.44775,1,1v8
	C37,29.55225,36.55225,30,36,30z"/>
<path fill="#E6E6E6" d="M40,47c-3.30859,0-6-2.69141-6-6s2.69141-6,6-6s6,2.69141,6,6S43.30859,47,40,47z"/>
</g></svg>