<svg xmlns="http://www.w3.org/2000/svg" xmlns:xlink="http://www.w3.org/1999/xlink" x="0px" y="0px" width="48px" height="48px" viewBox="0 0 48 48"><g >
<path fill="#C6C6C6" d="M14.31934,21.44434c-0.42871,0-0.82227-0.27734-0.9541-0.7041
	c-1.66602-5.375-2.01367-14.65039,0.05176-18.10645c0.53418-0.89355,1.2168-1.42676,2.02734-1.58496
	C15.61133,1.0166,15.78125,1,15.9541,1c4.15723,0,9.125,10.05078,10.31738,16.56836c0.0957,0.51953-0.23145,1.02441-0.74512,1.15039
	l-10.96777,2.69629C14.47949,21.43555,14.39844,21.44434,14.31934,21.44434z"/>
<path fill="#E0E0E0" d="M21.56445,47H18c-6.06543,0-11-4.93457-11-11v-3.12402c0-7.02637,4.46094-13.29785,10.84961-15.25098
	c2.12891-0.65234,4.33105-0.79395,6.57227-0.42188c0.77539-2.09668,1.72949-4.10449,2.72656-5.72656
	c2.67285-4.35156,9.13281-10.4209,13.58105-10.4209c0.74414,0,1.41602,0.16504,1.99707,0.49121
	c0.97168,0.54688,1.63672,1.51953,1.97656,2.89062c1.12207,4.52441-1.49414,12.42871-3.8623,16.10449
	c-1.26172,1.95605-3.04199,4.0498-4.94922,5.83008c1.06152,2.60938,1.36719,5.44043,0.88184,8.23438
	C35.52344,41.78809,29.12695,47,21.56445,47z"/>
<path fill="#ED69AB" d="M28.17383,18.59082c0.68457-1.85059,1.53027-3.63379,2.38184-5.01953
	c2.63672-4.29199,8.28809-9.22754,10.15332-8.51562c1.4577,0.96518-1.14258,10.0791-3.23047,13.32031
	c-1.0752,1.66602-2.64844,3.51562-4.31641,5.07227c-0.53558-0.80273-1.2793-1.76657-2.28711-2.7399
	C29.91119,19.77756,28.96643,19.08972,28.17383,18.59082z"/>
<path fill="#444444" d="M18,33c-1.6543,0-3-1.3457-3-3s1.3457-3,3-3s3,1.3457,3,3S19.6543,33,18,33z"/>
<path fill="#444444" d="M10,39c0-1.65686-1.34314-3-3-3c0,2.0329,0.56415,3.93219,1.5296,5.56781
	C9.40649,41.04419,10,40.09558,10,39z"/>
</g></svg>