<svg xmlns="http://www.w3.org/2000/svg" xmlns:xlink="http://www.w3.org/1999/xlink" x="0px" y="0px" width="48px" height="48px" viewBox="0 0 48 48"><g >
<path fill="#ED69AB" d="M41,26H21V3h8c6.62742,0,12,5.37258,12,12V26z"/>
<path fill="#72C472" d="M24,47C13.52344,47,5,38.47656,5,28V16C5,7.72852,11.729,1,20,1h8c0.55225,0,1,0.44727,1,1
	c0,3.85938,3.14014,7,7,7c0.55225,0,1,0.44727,1,1c0,2.75684,2.24316,5,5,5c0.55225,0,1,0.44727,1,1v12
	C43,38.47656,34.47656,47,24,47z"/>
<path fill="#444444" d="M18.5,21c-1.37858,0-2.5-1.12142-2.5-2.5s1.12142-2.5,2.5-2.5s2.5,1.12142,2.5,2.5S19.87858,21,18.5,21z"/>
<path fill="#444444" d="M29.5,21c-1.37858,0-2.5-1.12142-2.5-2.5s1.12142-2.5,2.5-2.5s2.5,1.12142,2.5,2.5S30.87858,21,29.5,21z"/>
<path fill="#444444" d="M16,35c-0.55225,0-1-0.44727-1-1c0-4.96289,4.0376-9,9-9s9,4.03711,9,9c0,0.55273-0.44775,1-1,1H16z"/>
<path fill="#C64B4B" d="M24,35v3c0,1.65686,1.34314,3,3,3s3-1.34314,3-3v-3H24z"/>
<path fill="#C64B4B" d="M15.06451,33C15.02649,33.3288,15,33.66095,15,34c0,0.55273,0.44775,1,1,1h16c0.55225,0,1-0.44727,1-1
	c0-0.33905-0.02649-0.6712-0.06451-1H15.06451z"/>
</g></svg>