<svg xmlns="http://www.w3.org/2000/svg" xmlns:xlink="http://www.w3.org/1999/xlink" x="0px" y="0px" width="48px" height="48px" viewBox="0 0 48 48"><g >
<path fill="#C6C6C6" d="M24.00188,18.00188l-5.75921-5.75921C19.32849,11.15698,20,9.65686,20,8c0-3.31372-2.68628-6-6-6
	S8,4.68628,8,8c-3.31372,0-6,2.68628-6,6s2.68628,6,6,6c1.65686,0,3.15698-0.67151,4.24268-1.75732l5.75921,5.75921
	L24.00188,18.00188z"/>
<path fill="#C6C6C6" d="M24.00014,30.00014l5.75719,5.75719C28.67151,36.84314,28,38.34314,28,40c0,3.31372,2.68628,6,6,6
	s6-2.68628,6-6c3.31372,0,6-2.68628,6-6s-2.68628-6-6-6c-1.65686,0-3.15686,0.67151-4.24268,1.75732l-5.75719-5.75719
	L24.00014,30.00014z"/>
<path fill="#E0E0E0" d="M40,8c0-3.31372-2.68628-6-6-6s-6,2.68628-6,6c0,1.65686,0.67151,3.15698,1.75732,4.24268L12.24268,29.75732
	C11.15686,28.67151,9.65686,28,8,28c-3.31372,0-6,2.68628-6,6s2.68628,6,6,6c0,3.31372,2.68628,6,6,6s6-2.68628,6-6
	c0-1.65686-0.67151-3.15686-1.75732-4.24268l17.51465-17.51465C36.84302,19.32849,38.34314,20,40,20c3.31372,0,6-2.68628,6-6
	S43.31372,8,40,8z"/>
</g></svg>