<svg xmlns="http://www.w3.org/2000/svg" xmlns:xlink="http://www.w3.org/1999/xlink" x="0px" y="0px" width="48px" height="48px" viewBox="0 0 48 48"><g >
<path fill="#72C472" d="M5.01404,29.12604C5.00867,29.41705,5,29.7066,5,30c0,10.6416,9.66016,17,19,17s19-6.3584,19-17
	c0-0.2934-0.00867-0.58295-0.01404-0.87396C39.62769,30.82281,32.40033,32,24,32S8.37231,30.82281,5.01404,29.12604z"/>
<path fill="#EFD358" d="M41.79309,19.64679C39.11597,8.64471,32.2522,1,24,1S8.88403,8.64478,6.20691,19.64679
	C9.91888,21.05829,16.48969,22,24,22S38.08112,21.05829,41.79309,19.64679z"/>
<path fill="#C64692" d="M24,22c-7.51031,0-14.08112-0.94171-17.79309-2.35321c-0.71686,2.94623-1.1308,6.1333-1.19287,9.47925
	C8.37231,30.82281,15.59967,32,24,32s15.62769-1.17719,18.98596-2.87396c-0.06207-3.34595-0.47601-6.53302-1.19287-9.47925
	C38.08112,21.05829,31.51031,22,24,22z"/>
</g></svg>