<svg xmlns="http://www.w3.org/2000/svg" xmlns:xlink="http://www.w3.org/1999/xlink" x="0px" y="0px" width="48px" height="48px" viewBox="0 0 48 48"><g >
<path fill="#72C472" d="M36.5,14c-1.38074,0-2.5,1.11926-2.5,2.5V17h-2V5.5C32,4.11926,30.88074,3,29.5,3S27,4.11926,27,5.5V17h-2
	V2.5C25,1.11926,23.88074,0,22.5,0S20,1.11926,20,2.5V17h-2V5.5C18,4.11926,16.88074,3,15.5,3S13,4.11926,13,5.5V22
	l-1.79999-1.79999C10.09998,19,8.20001,19,7,20.20001c-1.20001,1.09998-1.20001,3,0,4.19995l6,6V38h26V16.5
	C39,15.11926,37.88074,14,36.5,14z"/>
<path fill="#E6E6E6" d="M40,34h-6c-0.26514,0-0.51953,0.10547-0.70703,0.29297L30,37.58594l-3.29297-3.29297
	C26.51953,34.10547,26.26514,34,26,34H12c-0.55225,0-1,0.44727-1,1v12c0,0.55273,0.44775,1,1,1h28c0.55225,0,1-0.44727,1-1V35
	C41,34.44727,40.55225,34,40,34z"/>
<path fill="#444444" d="M46,48H2c-0.55225,0-1-0.44727-1-1s0.44775-1,1-1h12.12646c0.44531-1.72363,2.01318-3,3.87354-3
	c0.38818,0,0.77441,0.05859,1.14648,0.17285C20.42822,41.21875,22.63281,40,25,40c3.52051,0,6.44189,2.6123,6.92871,6H46
	c0.55225,0,1,0.44727,1,1S46.55225,48,46,48z"/>
<path fill="#4DA34D" d="M35,19H17c-0.55225,0-1-0.44727-1-1s0.44775-1,1-1h18c0.55225,0,1,0.44727,1,1S35.55225,19,35,19z"/>
<path fill="#9EDB9E" d="M36.5,21L36.5,21c1.38072,0,2.5-1.11929,2.5-2.5v-4c0-1.38071-1.11929-2.5-2.5-2.5H36.5
	c-1.38071,0-2.5,1.11929-2.5,2.5v4C34,19.88071,35.11929,21,36.5,21z"/>
</g></svg>