<svg xmlns="http://www.w3.org/2000/svg" xmlns:xlink="http://www.w3.org/1999/xlink" x="0px" y="0px" width="48px" height="48px" viewBox="0 0 48 48"><g >
<path fill="#EAD8C5" d="M14.68018,13H11V6c0-0.55225-0.44775-1-1-1S9,5.44775,9,6v7H6c-1.6543,0-3-1.3457-3-3V2
	c0-0.55225-0.44775-1-1-1S1,1.44775,1,2v8c0,2.75684,2.24316,5,5,5h8.68018c0.55225,0,1-0.44775,1-1S15.23242,13,14.68018,13z"/>
<path fill="#EAD8C5" d="M46,1c-0.55225,0-1,0.44775-1,1v8c0,1.6543-1.3457,3-3,3h-3V6c0-0.55225-0.44775-1-1-1s-1,0.44775-1,1v7
	h-3.68018c-0.55225,0-1,0.44775-1,1s0.44775,1,1,1H42c2.75684,0,5-2.24316,5-5V2C47,1.44775,46.55225,1,46,1z"/>
<path fill="#A67C52" d="M11.0249,27H8c-3.85986,0-7-3.14014-7-7v-1h10.49463L11.0249,27z"/>
<path fill="#A67C52" d="M40,27h-3.0249l-0.46973-8H47v1C47,23.85986,43.85986,27,40,27z"/>
<path fill="#C19F85" d="M24,47C14.70654,47,9,33.604,9,24c0-8.74756,4.90674-13,15-13s15,4.25244,15,13C39,33.604,33.29346,47,24,47
	z"/>
<path fill="#444444" d="M21,27c-0.55225,0-1-0.44775-1-1c0-1.10303-0.89697-2-2-2s-2,0.89697-2,2c0,0.55225-0.44775,1-1,1
	s-1-0.44775-1-1c0-2.20557,1.79443-4,4-4s4,1.79443,4,4C22,26.55225,21.55225,27,21,27z"/>
<path fill="#444444" d="M33,27c-0.55225,0-1-0.44775-1-1c0-1.10303-0.89697-2-2-2s-2,0.89697-2,2c0,0.55225-0.44775,1-1,1
	s-1-0.44775-1-1c0-2.20557,1.79443-4,4-4s4,1.79443,4,4C34,26.55225,33.55225,27,33,27z"/>
<path fill="#EAD8C5" d="M24,29c-5.33746,0-9.97491,2.98828-12.33679,7.38171C14.20605,42.25116,18.46698,47,24,47
	s9.79395-4.74884,12.33679-10.61829C33.97491,31.98828,29.33746,29,24,29z"/>
<path fill="#444444" d="M24,41c-2.75684,0-5-2.24316-5-5s2.24316-5,5-5s5,2.24316,5,5S26.75684,41,24,41z"/>
</g></svg>