<svg xmlns="http://www.w3.org/2000/svg" xmlns:xlink="http://www.w3.org/1999/xlink" x="0px" y="0px" width="48px" height="48px" viewBox="0 0 48 48"><g >
<path fill="#C6C6C6" d="M24,25c-0.55273,0-1-0.44727-1-1V6c0-0.55273,0.44727-1,1-1s1,0.44727,1,1v18C25,24.55273,24.55273,25,24,25
	z"/>
<path fill="#444444" d="M24,41.0127c-7.16797,0-13-4.03711-13-9s5.83203-9,13-9s13,4.03711,13,9S31.16797,41.0127,24,41.0127z"/>
<path fill="#444444" d="M17.8418,26.14453c-0.31543,0-0.62695-0.14941-0.82129-0.42773C14.95898,22.76367,11.58691,21,8,21
	c-0.55273,0-1-0.44727-1-1s0.44727-1,1-1c4.23926,0,8.22461,2.08301,10.66113,5.57227
	c0.31543,0.45312,0.20508,1.07617-0.24805,1.39258C18.23926,26.08594,18.03906,26.14453,17.8418,26.14453z"/>
<path fill="#444444" d="M2.00098,30.35938c-0.37402,0-0.7334-0.21094-0.9043-0.57129
	c-0.2373-0.49902-0.02441-1.09473,0.47461-1.33203C3.58887,27.49805,5.75098,27.0127,8,27.0127
	c1.82031,0,3.59961,0.32227,5.28906,0.95801c0.51758,0.19434,0.7793,0.77051,0.58398,1.28711
	c-0.19434,0.51758-0.77441,0.77832-1.28711,0.58398c-3.27148-1.22852-6.99512-1.08008-10.15723,0.4209
	C2.29004,30.32812,2.14453,30.35938,2.00098,30.35938z"/>
<path fill="#444444" d="M6,45.0127c-0.55273,0-1-0.44727-1-1c0-4.64941,2.93262-8.81738,7.29688-10.37207
	c0.52051-0.18457,1.09277,0.08594,1.27832,0.60645c0.18457,0.52051-0.08691,1.09277-0.60645,1.27832
	C9.39844,36.7959,7,40.20703,7,44.0127C7,44.56543,6.55273,45.0127,6,45.0127z"/>
<path fill="#444444" d="M30.1582,26.14453c-0.19727,0-0.39746-0.05859-0.57129-0.17969
	c-0.45312-0.31641-0.56348-0.93945-0.24805-1.39258C31.77539,21.08301,35.76074,19,40,19c0.55273,0,1,0.44727,1,1s-0.44727,1-1,1
	c-3.58691,0-6.95898,1.76367-9.02051,4.7168C30.78516,25.99512,30.47363,26.14453,30.1582,26.14453z"/>
<path fill="#444444" d="M45.99902,30.35938c-0.14355,0-0.28906-0.03125-0.42773-0.09668
	c-3.16113-1.5-6.88574-1.64844-10.15723-0.4209c-0.5127,0.19531-1.09375-0.06641-1.28711-0.58398
	c-0.19531-0.5166,0.06641-1.09277,0.58398-1.28711C36.40039,27.33496,38.17969,27.0127,40,27.0127
	c2.24902,0,4.41113,0.48535,6.42871,1.44336c0.49902,0.2373,0.71191,0.83301,0.47461,1.33203
	C46.73242,30.14844,46.37305,30.35938,45.99902,30.35938z"/>
<path fill="#444444" d="M42,45.0127c-0.55273,0-1-0.44727-1-1c0-3.80566-2.39844-7.2168-5.96875-8.4873
	c-0.51953-0.18555-0.79102-0.75781-0.60645-1.27832c0.18555-0.52051,0.75488-0.79102,1.27832-0.60645
	C40.06738,35.19531,43,39.36328,43,44.0127C43,44.56543,42.55273,45.0127,42,45.0127z"/>
<circle fill="#E0E0E0" cx="20.5" cy="30.5" r="1.5"/>
<circle fill="#E0E0E0" cx="27.5" cy="30.5" r="1.5"/>
</g></svg>