<svg xmlns="http://www.w3.org/2000/svg" xmlns:xlink="http://www.w3.org/1999/xlink" x="0px" y="0px" width="48px" height="48px" viewBox="0 0 48 48"><g >
<path fill="#444444" d="M41.27417,42.06775C44.75494,40.15143,47,37.03259,47,32c0-4.20996-1.57666-6.8584-4-10.31641V14
	c0-4.3945-14.49259-5-19-5c-7.05713,0-19,1.05273-19,5v7.68359C2.57666,25.1416,1,27.79004,1,32
	c0,5.03259,2.24506,8.15143,5.72583,10.06775l-2.52271,3.32874c-0.3335,0.43945-0.24707,1.06738,0.19287,1.40039
	C4.57666,46.93359,4.78857,47,4.99902,47c0.30273,0,0.60107-0.13672,0.79785-0.39648l2.78326-3.67261
	C12.86682,44.62964,18.46143,45,24,45s11.13318-0.37036,15.41986-2.06909l2.78326,3.67261C42.3999,46.86328,42.69824,47,43.00098,47
	c0.21045,0,0.42236-0.06641,0.60303-0.20312c0.43994-0.33301,0.52637-0.96094,0.19287-1.40039L41.27417,42.06775z"/>
<path fill="#72C472" d="M41.00195,13.98145c-0.1582-0.53809-2.9502-2.01758-10.21826-2.68359l-3.60449-0.23438
	C26.14893,11.02246,25.08398,11,24,11c-10.60498,0-16.70557,1.96484-17.00195,3.01758C7,14.10156,7.11719,14.23145,7.18701,14.29883
	c2.08838,2.03809,13.17188,2.81738,18.78857,2.6748L27,16.94824V28c0,1.10254,0.89697,2,2,2s2-0.89746,2-2V16.68359l0.89014-0.09863
	C39.06445,15.79102,40.90234,14.33008,41.00195,13.98145z"/>
<path fill="#9EDB9E" d="M19.5,6C18.12142,6,17,4.87858,17,3.5S18.12142,1,19.5,1S22,2.12142,22,3.5S20.87858,6,19.5,6z"/>
<path fill="#9EDB9E" d="M29.5,12c-1.37858,0-2.5-1.12142-2.5-2.5S28.12142,7,29.5,7S32,8.12142,32,9.5S30.87858,12,29.5,12z"/>
</g></svg>