<svg xmlns="http://www.w3.org/2000/svg" xmlns:xlink="http://www.w3.org/1999/xlink" x="0px" y="0px" width="48px" height="48px" viewBox="0 0 48 48"><g >
<path fill="#E86C60" d="M8.85933,44.98502c1.56199,1.56199,4.09487,1.56199,5.65685,0l22.28667-22.28667
	c4.67906-4.67906,4.67906-12.2915,0-16.97056s-12.29151-4.67906-16.97056,0c-1.56199,1.56199-1.56199,4.09487,0,5.65685
	c1.56199,1.56199,4.09487,1.56199,5.65685,0c1.55992-1.55992,4.09694-1.55992,5.65685,0c1.55992,1.55992,1.55992,4.09694,0,5.65685
	L8.85933,39.32817C7.29735,40.89015,7.29735,43.42303,8.85933,44.98502z"/>
<polygon fill="#EDBEBC" points="16.33051,43.17065 17.82135,41.67981 14.05029,34.13721 12.55939,35.62811 "/>
<polygon fill="#EDBEBC" points="20.05188,28.13562 18.56116,29.62634 22.33051,37.17065 23.82123,35.67993 "/>
<path fill="#EDBEBC" d="M37.82764,6.91339l-6.69305,4.46191c0.00354,0.00354,0.00787,0.0058,0.01141,0.00934
	c0.49524,0.49524,0.81506,1.09314,0.99585,1.72278l6.77582-4.51709C38.6087,8.0072,38.23938,7.44922,37.82764,6.91339z"/>
<path fill="#EDBEBC" d="M31.87561,16.00012c-0.18701,0.37341-0.41846,0.73022-0.72961,1.04138l-0.58777,0.58777l4.52612,6.78754
	l1.44214-1.44214L31.87561,16.00012z"/>
<path fill="#EDBEBC" d="M27,2.29041v8.16113c0.64502-0.22461,1.33234-0.28644,2-0.17157V2.23774
	C28.33301,2.20002,27.66467,2.21753,27,2.29041z"/>
<polygon fill="#EDBEBC" points="26.05029,22.13721 24.55939,23.62811 28.33051,31.17065 29.82135,29.67981 "/>
</g></svg>