<svg xmlns="http://www.w3.org/2000/svg" xmlns:xlink="http://www.w3.org/1999/xlink" x="0px" y="0px" width="48px" height="48px" viewBox="0 0 48 48"><g >
<path fill="#444444" d="M24,43c-0.37891,0-0.72461-0.21387-0.89453-0.55273C21.51172,39.26367,16.40918,31,12,31
	c-2.34375,0-4.58984,0.73926-6.49414,2.13672c-0.22559,0.16602-0.50879,0.23438-0.78613,0.1748
	c-0.27539-0.05371-0.51465-0.22168-0.66016-0.46094C2.05762,29.55566,1,25.79492,1,21.97461
	C1,15.33105,4.06249,9.2168,9.40137,5.20117c0.30371-0.22852,0.70898-0.26562,1.04688-0.09668
	c0.33887,0.16895,0.55371,0.51465,0.55469,0.89355c0.00977,4.21875,2.99023,7.89355,7.10059,8.77344h11.79297
	c4.11035-0.87988,7.09082-4.55469,7.10059-8.77344c0.00098-0.37891,0.21582-0.72461,0.55469-0.89355
	c0.33691-0.16895,0.74316-0.13184,1.04688,0.09668C43.93749,9.2168,47,15.33105,47,21.97461
	c0,3.82031-1.05762,7.58105-3.05957,10.87598c-0.14551,0.23926-0.38477,0.40723-0.66016,0.46094
	c-0.27734,0.05762-0.56055-0.00977-0.78613-0.1748C40.58984,31.73926,38.34375,31,36,31
	c-4.40918,0-9.51172,8.26367-11.10547,11.44727C24.72461,42.78613,24.37891,43,24,43z"/>
<path fill="#666666" d="M24,23c-3.85938,0-7-3.14062-7-7V6c0-0.4043,0.24316-0.76953,0.61719-0.92383
	c0.37402-0.15625,0.80371-0.06934,1.08984,0.2168L22.41406,9h3.17188l3.70703-3.70703
	c0.28613-0.28711,0.71582-0.37305,1.08984-0.2168C30.75684,5.23047,31,5.5957,31,6v10C31,19.85938,27.85938,23,24,23z"/>
<circle fill="#E86C60" cx="21" cy="14" r="1"/>
<circle fill="#E86C60" cx="27" cy="14" r="1"/>
</g></svg>