<svg xmlns="http://www.w3.org/2000/svg" xmlns:xlink="http://www.w3.org/1999/xlink" x="0px" y="0px" width="48px" height="48px" viewBox="0 0 48 48"><g >
<path fill="#A67C52" d="M25,45h-2c-0.55228,0-1-0.44772-1-1v-5h4v5C26,44.55228,25.55228,45,25,45z"/>
<path fill="#4DA34D" d="M42,39H6c-0.37891,0-0.7251-0.21387-0.89453-0.55273S4.97266,37.70312,5.2002,37.3999l10.5-14
	C15.88867,23.14795,16.18506,23,16.5,23h15c0.31494,0,0.61133,0.14795,0.7998,0.3999l10.5,14
	c0.22754,0.30322,0.26416,0.7085,0.09473,1.04736S42.37891,39,42,39z"/>
<path fill="#72C472" d="M38,25H10c-0.37305,0-0.71484-0.20752-0.88721-0.53809c-0.17188-0.33105-0.146-0.72998,0.06787-1.03516
	l14-20c0.37402-0.53516,1.26465-0.53516,1.63867,0l14,20c0.21387,0.30518,0.23975,0.7041,0.06787,1.03516
	C38.71484,24.79248,38.37305,25,38,25z"/>
<circle fill="#FFFFFF" cx="26" cy="14" r="2"/>
<circle fill="#FFFFFF" cx="19" cy="20" r="1"/>
<circle fill="#FFFFFF" cx="20" cy="32" r="2"/>
<circle fill="#FFFFFF" cx="29" cy="29" r="1"/>
</g></svg>