<svg xmlns="http://www.w3.org/2000/svg" xmlns:xlink="http://www.w3.org/1999/xlink" x="0px" y="0px" width="48px" height="48px" viewBox="0 0 48 48"><g >
<path fill="#A67C52" d="M10,47c-2.75684,0-5-2.24316-5-5V6c0-2.75684,2.24316-5,5-5s5,2.24316,5,5v36C15,44.75684,12.75684,47,10,47
	z"/>
<path fill="#E6E6E6" d="M44,27c-0.14453,0-0.28955-0.03125-0.42529-0.09473C35.26074,23,27.84814,23,20,23H4
	c-0.55225,0-1-0.44727-1-1V10c0-0.55273,0.44775-1,1-1h20c14.16797,0,19.09424,3.89844,20.96143,16.66211
	c0.03809,0.10547,0.05859,0.21973,0.05859,0.33789c0,0.55273-0.44775,1-1,1C44.01318,27,44.00684,27,44,27z"/>
<path opacity="0.5" fill="#FFFFFF" d="M44.78534,24.62097C44.60199,24.84686,44.33362,25,44.02002,25C44.01318,25,44.00684,25,44,25
	c-0.14453,0-0.28955-0.03125-0.42529-0.09473C35.26074,21,27.84814,21,20,21H3v1c0,0.55273,0.44775,1,1,1h16
	c7.84814,0,15.26074,0,23.57471,3.90527C43.71045,26.96875,43.85547,27,44,27c0.00684,0,0.01318,0,0.02002,0
	c0.55225,0,1-0.44727,1-1c0-0.11816-0.02051-0.23242-0.05859-0.33789C44.90839,25.2995,44.84344,24.96936,44.78534,24.62097z"/>
<circle fill="#666666" cx="10" cy="15" r="2"/>
</g></svg>