<svg xmlns="http://www.w3.org/2000/svg" xmlns:xlink="http://www.w3.org/1999/xlink" x="0px" y="0px" width="48px" height="48px" viewBox="0 0 48 48"><g >
<path fill="#666666" d="M24,47C13.52344,47,5,38.47656,5,28V4c0-0.38477,0.2207-0.73438,0.56641-0.90137
	C5.91113,2.93164,6.32422,2.97852,6.625,3.21875l9.50098,7.60156C17.38477,10.23047,20.44043,9,24,9
	s6.61523,1.23047,7.87402,1.82031L41.375,3.21875c0.2998-0.24023,0.70996-0.28613,1.05859-0.12012C42.7793,3.26562,43,3.61523,43,4
	v24C43,38.47656,34.47656,47,24,47z"/>
<path fill="#444444" d="M32.79199,38.4082c-0.33008-0.44238-0.95703-0.53418-1.39941-0.20215C30.69824,38.72559,29.87109,39,29,39
	c-1.98828,0-3.64453-1.42969-3.93848-3.40039c-0.07184-0.4837-0.4834-0.8089-0.95581-0.83075
	c-0.01099-0.00201-0.01935-0.0094-0.03052-0.01105c-0.02588-0.00342-0.0495,0.00604-0.0752,0.00458
	c-0.0257,0.00146-0.04932-0.008-0.0752-0.00458c-0.01117,0.00165-0.01953,0.00903-0.03052,0.01105
	c-0.47223,0.02191-0.88312,0.34705-0.95581,0.83075C22.64453,37.57031,20.98828,39,19,39
	c-0.87109,0-1.69824-0.27441-2.39258-0.79395c-0.44336-0.33203-1.06934-0.24023-1.39941,0.20215
	c-0.33105,0.44141-0.24023,1.06836,0.20215,1.39941C16.45215,40.58789,17.69336,41,19,41c2.09674,0,3.93011-1.07141,5-2.72498
	C25.06989,39.92859,26.90326,41,29,41c1.30664,0,2.54785-0.41211,3.58984-1.19238
	C33.03223,39.47656,33.12305,38.84961,32.79199,38.4082z"/>
<path fill="#72C472" d="M16.5,26c-1.37858,0-2.5-1.12142-2.5-2.5s1.12142-2.5,2.5-2.5s2.5,1.12142,2.5,2.5S17.87858,26,16.5,26z"/>
<path fill="#72C472" d="M31.5,26c-1.37858,0-2.5-1.12142-2.5-2.5s1.12142-2.5,2.5-2.5c1.37858,0,2.5,1.12142,2.5,2.5
	S32.87858,26,31.5,26z"/>
<path fill="#444444" d="M24,36.75098c-0.42773,0-0.8291-0.16602-1.13086-0.46777l-2.55176-2.55176
	c-0.45898-0.45898-0.5957-1.14355-0.34668-1.74414C20.21875,31.3877,20.79883,31,21.44824,31h5.10352
	c0.64941,0,1.22949,0.3877,1.47754,0.9873c0.24902,0.60059,0.1123,1.28516-0.34668,1.74414l-2.55176,2.55176
	C24.8291,36.58496,24.42773,36.75098,24,36.75098z"/>
<path fill="#444444" d="M15.00098,32c-0.05469,0-0.10938-0.00391-0.16504-0.01367l-12-2
	c-0.54492-0.09082-0.91309-0.60645-0.82227-1.15039c0.08984-0.54492,0.60742-0.91992,1.15039-0.82227l12,2
	c0.54492,0.09082,0.91309,0.60645,0.82227,1.15039C15.90527,31.65332,15.48145,32,15.00098,32z"/>
<path fill="#444444" d="M4.99902,39c-0.45801,0-0.87207-0.31738-0.97559-0.7832c-0.11914-0.53906,0.2207-1.07324,0.75977-1.19336
	l9-2c0.53906-0.11328,1.07324,0.2207,1.19336,0.75977c0.11914,0.53906-0.2207,1.07324-0.75977,1.19336l-9,2
	C5.14355,38.99219,5.07129,39,4.99902,39z"/>
<path fill="#444444" d="M32.99902,32c-0.48047,0-0.9043-0.34668-0.98535-0.83594c-0.09082-0.54395,0.27734-1.05957,0.82227-1.15039
	l12-2c0.54492-0.09668,1.05957,0.27734,1.15039,0.82227c0.09082,0.54395-0.27734,1.05957-0.82227,1.15039l-12,2
	C33.1084,31.99609,33.05371,32,32.99902,32z"/>
<path fill="#444444" d="M43.00098,39c-0.07227,0-0.14453-0.00781-0.21777-0.02344l-9-2
	c-0.53906-0.12012-0.87891-0.6543-0.75977-1.19336c0.12012-0.53906,0.6582-0.87207,1.19336-0.75977l9,2
	c0.53906,0.12012,0.87891,0.6543,0.75977,1.19336C43.87305,38.68262,43.45898,39,43.00098,39z"/>
</g></svg>