<svg xmlns="http://www.w3.org/2000/svg" xmlns:xlink="http://www.w3.org/1999/xlink" x="0px" y="0px" width="48px" height="48px" viewBox="0 0 48 48"><g >
<path fill="#EAD8C5" d="M43.17389,35c-1.04889-1.25-4.21556-2.75-4.21556-2.75l-2,1.375l0.20834,2.75L42.375,36.5L43.17389,35z"/>
<path fill="#D6BA45" d="M34,1c-4.36224,0-6.79938,3.5498-8,6.13287C24.79938,4.5498,22.36224,1,18,1c-2.75684,0-5,2.24316-5,5
	s2.24316,5,5,5h8h8c2.75684,0,5-2.24316,5-5S36.75684,1,34,1z M18,9c-1.6543,0-3-1.3457-3-3s1.3457-3,3-3
	c3.80469,0,5.81836,3.9292,6.61523,6H18z M34,9h-6.61523C28.18164,6.9292,30.19531,3,34,3c1.6543,0,3,1.3457,3,3S35.6543,9,34,9z"/>
<path fill="#C64B4B" d="M41,35H10c-0.55229,0-1-0.44772-1-1V16c0-0.55229,0.44771-1,1-1h32c0.55228,0,1,0.44771,1,1v17
	C43,34.10457,42.10457,35,41,35z"/>
<path fill="#E86C60" d="M45,17H7c-1.10457,0-2-0.89543-2-2v-4c0-1.10457,0.89543-2,2-2h38c1.10457,0,2,0.89543,2,2v4
	C47,16.10457,46.10457,17,45,17z"/>
<rect x="21" y="9" fill="#EFD358" width="10" height="8"/>
<rect x="21" y="17" fill="#D6BA45" width="10" height="18"/>
<path fill="#EAD8C5" d="M43.17389,35H17c-1.10457,0-2-0.89543-2-2v0c0-1.10457,0.89543-2,2-2l8.83039,0
	c1.6243,0,3.08022-1.21621,3.16535-2.83828C29.08654,26.43157,27.71083,25,26,25H1v14.479l16.44922,6.85742
	c1.8208,0.68256,3.83527,0.67297,5.68848,0.20508l22.09277-7.92041C44.76556,37.07056,44.05573,35.88361,43.17389,35z"/>
</g></svg>