<svg xmlns="http://www.w3.org/2000/svg" xmlns:xlink="http://www.w3.org/1999/xlink" x="0px" y="0px" width="48px" height="48px" viewBox="0 0 48 48"><g >
<path fill="#76B5B5" d="M24,35c-0.18652,0-0.37305-0.05225-0.53711-0.15625l-22-14
	c-0.30371-0.19336-0.48047-0.53564-0.46191-0.89551c0.01855-0.35938,0.22949-0.68164,0.55176-0.84277L24,5l22.44727,14.10547
	c0.32227,0.16113,0.5332,0.4834,0.55176,0.84277c0.01855,0.35986-0.1582,0.70215-0.46191,0.89551l-22,14
	C24.37305,34.94775,24.18652,35,24,35z"/>
<path fill="#E86C60" d="M24,20.68262l-0.6377-0.52734C22.50684,19.44775,15,13.10547,15,8.46143C15,5.39893,17.33105,3,20.30762,3
	C21.71777,3,23.02637,3.52148,24,4.43652C24.97363,3.52148,26.28223,3,27.69238,3C30.66895,3,33,5.39893,33,8.46143
	c0,4.64404-7.50684,10.98633-8.3623,11.69385L24,20.68262z"/>
<path fill="#9BCED3" d="M46,45c-0.08398,0-0.16895-0.01074-0.25195-0.03223l-23-6L23,32l24-12v24
	c0,0.30957-0.14355,0.60205-0.38867,0.7915C46.43457,44.92822,46.21875,45,46,45z"/>
<path fill="#BFDEE0" d="M46,45H2c-0.55273,0-1-0.44775-1-1V20l45.47852,23.12207c0.40137,0.21875,0.60352,0.68213,0.49023,1.125
	C46.85645,44.68994,46.45703,45,46,45z"/>
</g></svg>