<svg xmlns="http://www.w3.org/2000/svg" xmlns:xlink="http://www.w3.org/1999/xlink" x="0px" y="0px" width="48px" height="48px" viewBox="0 0 48 48"><g >
<path fill="#5E4027" d="M6.04541,43L6.04541,43c-0.31348,0-0.60889-0.14746-0.79785-0.39746C3.77734,40.65625,3,38.37305,3,36
	c0-3.50391,1.604-6.71094,4.40039-8.80078c0.21777-0.16309,0.49316-0.22754,0.7627-0.18555
	c0.26855,0.04492,0.50732,0.19727,0.66113,0.42188l6.86816,10.04199c0.21826,0.31836,0.2334,0.73438,0.03906,1.06738
	s-0.5625,0.53125-0.94775,0.49316c-3.14014-0.25488-6.0542,1.06934-7.94043,3.56445C6.6543,42.85254,6.35889,43,6.04541,43z"/>
<path fill="#5E4027" d="M41.95459,43L41.95459,43c-0.31348,0-0.60889-0.14746-0.79785-0.39746
	c-1.88574-2.49609-4.80518-3.82227-7.94043-3.56445c-0.38818,0.04004-0.75342-0.16016-0.94775-0.49316
	s-0.1792-0.74902,0.03906-1.06738l6.86816-10.04199c0.15381-0.22461,0.39258-0.37695,0.66113-0.42188
	c0.27051-0.04199,0.54443,0.02344,0.7627,0.18555C43.396,29.28906,45,32.49609,45,36c0,2.375-0.77734,4.6582-2.24756,6.60352
	C42.56348,42.85352,42.26807,43,41.95459,43z"/>
<path fill="#A67C52" d="M24,47c2.21283,0,6.85959-4.16814,11.10379-9.66063C39.91136,31.11779,43,24.7759,43,20
	C43,9.50659,34.49341,1,24,1S5,9.50659,5,20c0,4.7759,3.08864,11.11779,7.89622,17.33937C17.14041,42.83186,21.78717,47,24,47z"/>
<path fill="#EAD8C5" d="M14,31C7.93457,31,3,26.06543,3,20S7.93457,9,14,9s11,4.93457,11,11S20.06543,31,14,31z"/>
<path fill="#EAD8C5" d="M34,31c-6.06543,0-11-4.93457-11-11S27.93457,9,34,9s11,4.93457,11,11S40.06543,31,34,31z"/>
<circle fill="#EA9860" cx="14" cy="20" r="5"/>
<circle fill="#EA9860" cx="34" cy="20" r="5"/>
<path fill="#5E4027" d="M23.92871,15C23.44189,11.6123,20.52051,9,17,9H2c0.48682,3.3877,3.4082,6,6.92871,6H17
	c3.86597,0,7,3.13397,7,7v-7H23.92871z"/>
<path fill="#5E4027" d="M31,9c-3.52051,0-6.44189,2.6123-6.92871,6H24v7c0-3.86603,3.13403-7,7-7h8.07129
	C42.5918,15,45.51318,12.3877,46,9H31z"/>
<path fill="#EFD358" d="M24,19c-1.00684,0-3,4.25391-3,7s1.99316,7,3,7s3-4.25391,3-7S25.00684,19,24,19z"/>
<circle fill="#444444" cx="14" cy="20" r="3"/>
<circle fill="#444444" cx="34" cy="20" r="3"/>
</g></svg>