<svg xmlns="http://www.w3.org/2000/svg" xmlns:xlink="http://www.w3.org/1999/xlink" x="0px" y="0px" width="48px" height="48px" viewBox="0 0 48 48"><g >
<path fill="#C6C6C6" d="M8.01157,28.99997C4.1469,29.00627,1,25.86323,1,22l0-6.93016C5.30177,14.47038,9,17.81201,9,22l0,6
	C9,28.54604,8.55761,28.99907,8.01157,28.99997z"/>
<path fill="#C6C6C6" d="M39.98843,28.99997C39.44239,28.99907,39,28.54604,39,28l0-6c0-4.18799,3.69823-7.52962,8-6.93016L47,22
	C47,25.86323,43.8531,29.00627,39.98843,28.99997z"/>
<path fill="#D3D3D3" d="M24,47c-9.37402,0-17-7.62598-17-17V14C7,6.83203,12.83203,1,20,1h8c7.16797,0,13,5.83203,13,13v16
	C41,39.37402,33.37402,47,24,47z"/>
<path fill="#C64B4B" d="M17.5,25c-1.37858,0-2.5-1.12142-2.5-2.5s1.12142-2.5,2.5-2.5s2.5,1.12142,2.5,2.5S18.87858,25,17.5,25z"/>
<path fill="#C64B4B" d="M30.5,25c-1.37858,0-2.5-1.12142-2.5-2.5s1.12142-2.5,2.5-2.5s2.5,1.12142,2.5,2.5S31.87858,25,30.5,25z"/>
<path fill="#444444" d="M28,1h-8C12.83203,1,7,6.83203,7,14v6c0-6.07513,4.92487-11,11-11c2.21527,0,4.27362,0.66064,6,1.78735
	C25.72638,9.66064,27.78473,9,30,9c6.07513,0,11,4.92487,11,11v-6C41,6.83203,35.16797,1,28,1z"/>
<path fill="#444444" d="M25.00001,39h-2.00002C19.134,39,16,35.866,16,32.00001V32h16v0.00001C32,35.866,28.866,39,25.00001,39z"/>
<polygon fill="#FFFFFF" points="18,32 20,35 22,32 "/>
<polygon fill="#FFFFFF" points="26,32 28,35 30,32 "/>
</g></svg>