<svg xmlns="http://www.w3.org/2000/svg" xmlns:xlink="http://www.w3.org/1999/xlink" x="0px" y="0px" width="48px" height="48px" viewBox="0 0 48 48"><g >
<path fill="#C64B4B" d="M41,47H7c-1.10457,0-2-0.89543-2-2V19c0-1.10457,0.89543-2,2-2h34c1.10457,0,2,0.89543,2,2v26
	C43,46.10457,42.10457,47,41,47z"/>
<polygon fill="#EFD358" points="25.41406,47 43,29.41406 43,26.58594 22.58594,47 "/>
<polygon fill="#EFD358" points="5,34.58594 5,37.41406 25.41406,17 22.58594,17 "/>
<path fill="#EFD358" d="M7.58594,47h2.82812l28.29297-28.29297c0.39062-0.39062,0.39062-1.02344,0-1.41406
	s-1.02344-0.39062-1.41406,0L7.58594,47z"/>
<path fill="#EFD358" d="M32,1c-4.36224,0-6.79938,3.5498-8,6.13287C22.79938,4.5498,20.36224,1,16,1c-2.75684,0-5,2.24316-5,5
	s2.24316,5,5,5h8h8c2.75684,0,5-2.24316,5-5S34.75684,1,32,1z M16,9c-1.6543,0-3-1.3457-3-3s1.3457-3,3-3
	c3.80469,0,5.81836,3.9292,6.61523,6H16z M32,9h-6.61523C26.18164,6.9292,28.19531,3,32,3c1.6543,0,3,1.3457,3,3S33.6543,9,32,9z"/>
<path fill="#E86C60" d="M45,19H3c-1.10457,0-2-0.89543-2-2v-6c0-1.10457,0.89543-2,2-2h42c1.10457,0,2,0.89543,2,2v6
	C47,18.10457,46.10457,19,45,19z"/>
</g></svg>