<svg xmlns="http://www.w3.org/2000/svg" xmlns:xlink="http://www.w3.org/1999/xlink" x="0px" y="0px" width="48px" height="48px" viewBox="0 0 48 48"><g >
<path fill="#C6C6C6" d="M24,47C12.375,47,3.56152,35.0957,3.19238,34.58887c-0.13867-0.18945-0.20605-0.4209-0.19043-0.65527l2-30
	c0.02539-0.37207,0.25391-0.69922,0.59473-0.84863C5.93945,2.9375,6.33398,2.98535,6.625,3.21875l9.50098,7.60156
	C17.38477,10.23047,20.44043,9,24,9s6.61523,1.23047,7.87402,1.82031L41.375,3.21875
	c0.29102-0.23242,0.68652-0.2832,1.02832-0.13379c0.34082,0.14941,0.56934,0.47656,0.59473,0.84863l2,30
	c0.01562,0.23438-0.05176,0.46582-0.19043,0.65527C44.43848,35.0957,35.625,47,24,47z"/>
<path fill="#444444" d="M24,47c-0.55273,0-1-0.44727-1-1v-8c0-0.55273,0.44727-1,1-1s1,0.44727,1,1v8C25,46.55273,24.55273,47,24,47
	z"/>
<path fill="#C64B4B" d="M16,27c-1.6543,0-3-1.3457-3-3s1.3457-3,3-3s3,1.3457,3,3S17.6543,27,16,27z"/>
<path fill="#C64B4B" d="M32,27c-1.6543,0-3-1.3457-3-3s1.3457-3,3-3s3,1.3457,3,3S33.6543,27,32,27z"/>
<path fill="#444444" d="M24,39c-0.25586,0-0.51172-0.09766-0.70703-0.29297l-4-4c-0.28613-0.28613-0.37207-0.71582-0.2168-1.08984
	C19.23047,33.24316,19.5957,33,20,33h8c0.4043,0,0.76953,0.24316,0.92383,0.61719c0.15527,0.37402,0.06934,0.80371-0.2168,1.08984
	l-4,4C24.51172,38.90234,24.25586,39,24,39z"/>
</g></svg>