<svg xmlns="http://www.w3.org/2000/svg" xmlns:xlink="http://www.w3.org/1999/xlink" x="0px" y="0px" width="48px" height="48px" viewBox="0 0 48 48"><g >
<path fill="#E86C60" d="M15.96338,46.95264c-2.81689,0.00049-5.63281-1.07178-7.77734-3.21631
	c-4.28906-4.28857-4.28906-11.26758,0-15.55615L15,21.44043V12c0-0.55229,0.44771-1,1-1h20c0.55228,0,1,0.44771,1,1v15.52377
	c0,1.8505-0.73274,3.62572-2.03799,4.93746L23.74414,43.73486C21.59863,45.87988,18.78076,46.95264,15.96338,46.95264z"/>
<path fill="#E6E6E6" d="M39,13H13c-1.10457,0-2-0.89543-2-2V3c0-1.10457,0.89543-2,2-2h26c1.10457,0,2,0.89543,2,2v8
	C41,12.10457,40.10457,13,39,13z"/>
<path fill="#CE544E" d="M29,31c0,2.0672,0.79071,3.94501,2.0777,5.36481l3.88428-3.90356C36.26727,31.14948,37,29.37427,37,27.52374
	V23C32.58173,23,29,26.58173,29,31z"/>
<path fill="#CE544E" d="M6.83173,29.83173C3.9624,34.1059,4.41132,39.96204,8.18604,43.73633
	c2.14453,2.14453,4.96045,3.2168,7.77734,3.21631c2.14111,0,4.2807-0.62323,6.12708-1.86218L6.83173,29.83173z"/>
</g></svg>