<svg xmlns="http://www.w3.org/2000/svg" xmlns:xlink="http://www.w3.org/1999/xlink" x="0px" y="0px" width="48px" height="48px" viewBox="0 0 48 48"><g >
<path fill="#444444" d="M24,47C9.06104,47,1,42.36328,1,38s8.06104-9,23-9s23,4.63672,23,9S38.93896,47,24,47z"/>
<path fill="#444444" d="M24,39c-9.01904,0-12.39453-2.06641-12.53418-2.1543c-0.34863-0.2207-0.52637-0.63184-0.44727-1.03711
	C12.60938,27.64258,18.24805,1,24,1c5.01318,0,17.87256,7.3916,20.4458,11.125c0.57178,0.83008,0.73633,1.58105,0.48877,2.23145
	c-1.21777,2.52637-6.68262,2.51562-11.63525,1.92383l3.68359,19.53418c0.07568,0.40332-0.10205,0.81152-0.44873,1.03125
	C36.39453,36.93359,33.01904,39,24,39z"/>
<path fill="#8680D8" d="M35.6535,28.76447C33.53314,30.08752,29.11841,31,24,31c-5.01361,0-9.35669-0.87469-11.52557-2.15381
	c-0.63171,2.83533-1.13007,5.29004-1.45587,6.9624c-0.0791,0.40527,0.09863,0.81641,0.44727,1.03711
	C11.60547,36.93359,14.98096,39,24,39s12.39453-2.06641,12.53418-2.1543c0.34668-0.21973,0.52441-0.62793,0.44873-1.03125
	L35.6535,28.76447z"/>
<path fill="#EFD358" d="M27,41h-6c-1.6543,0-3-1.3457-3-3v-6c0-1.6543,1.3457-3,3-3h6c1.6543,0,3,1.3457,3,3v6
	C30,39.6543,28.6543,41,27,41z M21,31c-0.55127,0-1,0.44824-1,1v6c0,0.55176,0.44873,1,1,1h6c0.55127,0,1-0.44824,1-1v-6
	c0-0.55176-0.44873-1-1-1H21z"/>
</g></svg>