<svg xmlns="http://www.w3.org/2000/svg" xmlns:xlink="http://www.w3.org/1999/xlink" x="0px" y="0px" width="48px" height="48px" viewBox="0 0 48 48"><g >
<path fill="#8680D8" d="M24,28l9-6l9.96881,6.34381C42.42377,12.88214,34.28961,1,24,1S5.57623,12.88214,5.03119,28.34381L15,22
	L24,28z"/>
<path fill="#ED69AB" d="M33,22l-9,6l-9-6l-9.96881,6.34381C5.0119,28.89185,5,29.44336,5,30c0,10.6416,9.66016,17,19,17
	s19-6.3584,19-17c0-0.55664-0.0119-1.10815-0.03119-1.65619L33,22z"/>
<path fill="#EFD358" d="M42.90979,27.12067l-9.37268-5.96442c-0.33398-0.21289-0.76172-0.20898-1.0918,0.01172L24,26.79785
	l-8.44531-5.62988c-0.33008-0.2207-0.75781-0.22461-1.0918-0.01172l-9.37268,5.96442
	c-0.04932,0.79749-0.07501,1.60675-0.08289,2.42383l9.97998-6.35114l8.45801,5.63867c0.33594,0.22461,0.77344,0.22461,1.10938,0
	l8.45801-5.63867l9.97998,6.35114C42.9848,28.72742,42.95911,27.91815,42.90979,27.12067z"/>
</g></svg>