<svg xmlns="http://www.w3.org/2000/svg" xmlns:xlink="http://www.w3.org/1999/xlink" x="0px" y="0px" width="48px" height="48px" viewBox="0 0 48 48"><g >
<path fill="#E6E6E6" d="M24,22c-0.55225,0-1-0.44775-1-1V2c0-0.55225,0.44775-1,1-1s1,0.44775,1,1v19C25,21.55225,24.55225,22,24,22
	z"/>
<path fill="#EFD358" d="M28,28h-8c-0.55225,0-1-0.44775-1-1v-5c0-0.55225,0.44775-1,1-1h8c0.55225,0,1,0.44775,1,1v5
	C29,27.55225,28.55225,28,28,28z"/>
<path fill="#E86C60" d="M24,47c-6.06543,0-11-4.93457-11-11s4.93457-11,11-11s11,4.93457,11,11S30.06543,47,24,47z"/>
<path fill="#E86C60" d="M9,25c-0.25586,0-0.51172-0.09766-0.70703-0.29297l-6-6c-0.39062-0.39062-0.39062-1.02344,0-1.41406l6-6
	c0.39062-0.39062,1.02344-0.39062,1.41406,0l6,6c0.39062,0.39062,0.39062,1.02344,0,1.41406l-6,6C9.51172,24.90234,9.25586,25,9,25z
	"/>
<path fill="#E86C60" d="M39,25c-0.25586,0-0.51172-0.09766-0.70703-0.29297l-6-6c-0.39062-0.39062-0.39062-1.02344,0-1.41406l6-6
	c0.39062-0.39062,1.02344-0.39062,1.41406,0l6,6c0.39062,0.39062,0.39062,1.02344,0,1.41406l-6,6
	C39.51172,24.90234,39.25586,25,39,25z"/>
<path fill="#E6E6E6" d="M39,13c-0.55225,0-1-0.44775-1-1V2c0-0.55225,0.44775-1,1-1s1,0.44775,1,1v10C40,12.55225,39.55225,13,39,13
	z"/>
<path fill="#E6E6E6" d="M9,13c-0.55225,0-1-0.44775-1-1V2c0-0.55225,0.44775-1,1-1s1,0.44775,1,1v10C10,12.55225,9.55225,13,9,13z"/>
<path fill="#EFD358" d="M11,14H7c-0.55228,0-1-0.44771-1-1v-3c0-0.55229,0.44772-1,1-1h4c0.55229,0,1,0.44771,1,1v3
	C12,13.55229,11.55229,14,11,14z"/>
<path fill="#EFD358" d="M41,14h-4c-0.55228,0-1-0.44771-1-1v-3c0-0.55229,0.44772-1,1-1h4c0.55228,0,1,0.44771,1,1v3
	C42,13.55229,41.55228,14,41,14z"/>
</g></svg>