<svg xmlns="http://www.w3.org/2000/svg" xmlns:xlink="http://www.w3.org/1999/xlink" x="0px" y="0px" width="48px" height="48px" viewBox="0 0 48 48"><g >
<path fill="#666666" d="M5,47V20C5,9.52344,13.52344,1,24,1s19,8.52344,19,19v27H5z"/>
<path fill="#EFD358" d="M28,19h-3v-3c0-0.55273-0.44775-1-1-1s-1,0.44727-1,1v3h-3c-0.55225,0-1,0.44727-1,1s0.44775,1,1,1h3v7
	c0,0.55273,0.44775,1,1,1s1-0.44727,1-1v-7h3c0.55225,0,1-0.44727,1-1S28.55225,19,28,19z"/>
<path fill="#A67C52" d="M46,47H2c-0.55225,0-1-0.44727-1-1s0.44775-1,1-1h9.10059c0.46436-2.2793,2.48486-4,4.89941-4
	c0.76318,0,1.51562,0.18164,2.19971,0.52344C19.78857,38.74121,22.73584,37,26,37c4.62451,0,8.4458,3.50586,8.94482,8H46
	c0.55225,0,1,0.44727,1,1S46.55225,47,46,47z"/>
<path fill="#444444" d="M46,47H2c-0.55225,0-1-0.44727-1-1s0.44775-1,1-1h9.10059c0.46436-2.2793,2.48486-4,4.89941-4
	c0.76318,0,1.51562,0.18164,2.19971,0.52344C19.78857,38.74121,22.73584,37,26,37c4.62451,0,8.4458,3.50586,8.94482,8H46
	c0.55225,0,1,0.44727,1,1S46.55225,47,46,47z"/>
<path fill="#999999" d="M17.70703,30.29297c-0.39062-0.39062-1.02344-0.39062-1.41406,0l-3.1377,3.1377l-1.32324-1.98535
	C11.64648,31.16699,11.33447,31,11,31H5v2h5.46484l1.70312,2.55469c0.16602,0.24902,0.43555,0.41113,0.7334,0.44043
	C12.93457,35.99805,12.96729,36,13,36c0.26367,0,0.51855-0.10449,0.70703-0.29297l4-4
	C18.09766,31.31641,18.09766,30.68359,17.70703,30.29297z"/>
<path fill="#999999" d="M36.68799,5.89795l-3.39502,3.39502c-0.13965,0.13965-0.23486,0.31738-0.27344,0.51074l-0.79443,3.97168
	l-2.98242-0.74512c-0.53516-0.13477-1.07812,0.19141-1.21289,0.72754c-0.13379,0.53516,0.19189,1.07812,0.72754,1.21191l4,1
	C32.8374,15.99023,32.91895,16,33,16c0.1875,0,0.37354-0.05273,0.53467-0.15527c0.23096-0.14551,0.39209-0.38086,0.4458-0.64844
	l0.94092-4.70312l3.18073-3.18115C37.65533,6.81598,37.18408,6.34473,36.68799,5.89795z"/>
</g></svg>