<svg xmlns="http://www.w3.org/2000/svg" xmlns:xlink="http://www.w3.org/1999/xlink" x="0px" y="0px" width="48px" height="48px" viewBox="0 0 48 48"><g >
<path fill="#B3B3B3" d="M46,40c-0.55273,0-1,0.44775-1,1c0,1.6543-1.3457,3-3,3H31v-5c0-0.55225-0.44727-1-1-1s-1,0.44775-1,1v5H15
	v-5c0-0.55225-0.44727-1-1-1s-1,0.44775-1,1v5H2c-0.55273,0-1,0.44775-1,1s0.44727,1,1,1h40c2.75684,0,5-2.24316,5-5
	C47,40.44775,46.55273,40,46,40z"/>
<path fill="#A67C52" d="M37,40H7c-1.10457,0-2-0.89543-2-2V4c0-1.10457,0.89543-2,2-2h18c1.10457,0,2,0.89543,2,2v22h5
	c3.86599,0,7,3.13401,7,7v5C39,39.10457,38.10457,40,37,40z"/>
<path fill="#5E4027" d="M22,10h5V8h-5c-0.55273,0-1,0.44775-1,1S21.44727,10,22,10z"/>
<path fill="#5E4027" d="M22,16h5v-2h-5c-0.55273,0-1,0.44775-1,1S21.44727,16,22,16z"/>
<path fill="#5E4027" d="M27,20h-5c-0.55273,0-1,0.44775-1,1s0.44727,1,1,1h5V20z"/>
</g></svg>