<svg xmlns="http://www.w3.org/2000/svg" xmlns:xlink="http://www.w3.org/1999/xlink" x="0px" y="0px" width="48px" height="48px" viewBox="0 0 48 48"><g >
<path fill="#E6E6E6" d="M24,8c-2.20557,0-4-1.79443-4-4s1.79443-4,4-4s4,1.79443,4,4S26.20557,8,24,8z M24,2
	c-1.10303,0-2,0.89697-2,2s0.89697,2,2,2s2-0.89697,2-2S25.10303,2,24,2z"/>
<path fill="#EFD358" d="M29,15.08936H19c-0.55225,0-1-0.44775-1-1V7c0-0.55225,0.44775-1,1-1h10c0.55225,0,1,0.44775,1,1v7.08936
	C30,14.6416,29.55225,15.08936,29,15.08936z"/>
<path fill="#E86C60" d="M24,48c-9.92529,0-18-8.07471-18-18s8.07471-18,18-18s18,8.07471,18,18S33.92529,48,24,48z"/>
<path fill="#EFD358" d="M6.72125,25h34.5575c-0.19775-0.68225-0.42169-1.35345-0.69562-2H7.41687
	C7.14294,23.64655,6.91901,24.31775,6.72125,25z"/>
<path fill="#EFD358" d="M7.41687,37h33.16626c0.27393-0.64655,0.49786-1.31775,0.69562-2H6.72125
	C6.91901,35.68225,7.14294,36.35345,7.41687,37z"/>
<circle fill="#EFD358" cx="24" cy="30" r="1"/>
<circle fill="#EFD358" cx="18" cy="30" r="1"/>
<circle fill="#EFD358" cx="12" cy="30" r="1"/>
<circle fill="#EFD358" cx="36" cy="30" r="1"/>
<circle fill="#EFD358" cx="30" cy="30" r="1"/>
</g></svg>