<?xml version="1.0" encoding="utf-8"?>
<!-- Generator: Adobe Illustrator 19.1.0, SVG Export Plug-In . SVG Version: 6.00 Build 0)  -->
<!DOCTYPE svg PUBLIC "-//W3C//DTD SVG 1.1//EN" "http://www.w3.org/Graphics/SVG/1.1/DTD/svg11.dtd">
<svg version="1.1" id="Layer_1" xmlns="http://www.w3.org/2000/svg" xmlns:xlink="http://www.w3.org/1999/xlink" x="0px" y="0px"
	 width="24px" height="24px" viewBox="0 0 24 24" enable-background="new 0 0 24 24" xml:space="preserve">
<path d="M23,11c0.6,0,1-0.4,1-1V1c0-0.6-0.4-1-1-1H9C4,0,0,4,0,9v1c0,0.6,0.4,1,1,1h17v3.1c-2.3,0.6-4,3.4-4,5.9c0,2.5,1.9,4,5,4
	c3.1,0,5-1.5,5-4c0-2.4-1.7-5.2-4-5.9V11H23z M16,20c0-1.4,0.9-3,2-3.7v5.6C16,21.6,16,20.4,16,20z M22,20c0,0.4,0,1.6-2,1.9v-5.6
	C21.1,17,22,18.6,22,20z M8,5c0-0.6,0.4-1,1-1h10c0.6,0,1,0.4,1,1s-0.4,1-1,1H9C8.4,6,8,5.6,8,5z"/>
</svg>
