<?xml version="1.0" encoding="utf-8"?>
<!-- Generator: Adobe Illustrator 19.1.0, SVG Export Plug-In . SVG Version: 6.00 Build 0)  -->
<!DOCTYPE svg PUBLIC "-//W3C//DTD SVG 1.1//EN" "http://www.w3.org/Graphics/SVG/1.1/DTD/svg11.dtd">
<svg version="1.1" id="Layer_1" xmlns="http://www.w3.org/2000/svg" xmlns:xlink="http://www.w3.org/1999/xlink" x="0px" y="0px"
	 width="24px" height="24px" viewBox="0 0 24 24" enable-background="new 0 0 24 24" xml:space="preserve">
<path d="M21,6V2c0-0.6-0.4-1-1-1H4C3.4,1,3,1.4,3,2v4H21z"/>
<polygon id="color_19_" points="23.7,14 21.1,8 2.9,8 0.3,14 "/>
<path d="M0,22c0,0.6,0.4,1,1,1c0.6,0,1-0.4,1-1v-2h20v2c0,0.6,0.4,1,1,1c0.6,0,1-0.4,1-1v-6H0V22z"/>
</svg>
