<?xml version="1.0" encoding="utf-8"?>
<!-- Generator: Adobe Illustrator 19.1.0, SVG Export Plug-In . SVG Version: 6.00 Build 0)  -->
<!DOCTYPE svg PUBLIC "-//W3C//DTD SVG 1.1//EN" "http://www.w3.org/Graphics/SVG/1.1/DTD/svg11.dtd">
<svg version="1.1" id="Layer_1" xmlns="http://www.w3.org/2000/svg" xmlns:xlink="http://www.w3.org/1999/xlink" x="0px" y="0px"
	 width="24px" height="24px" viewBox="0 0 24 24" enable-background="new 0 0 24 24" xml:space="preserve">
<path d="M22,3c0-0.6-0.4-1-1-1s-1,0.4-1,1v1h-7v5h9V3z"/>
<path id="color_15_" d="M0,11v9c0,0.6,0.4,1,1,1s1-0.4,1-1v-3h20v3c0,0.6,0.4,1,1,1s1-0.4,1-1v-9H0z"/>
<path d="M11,4H4V3c0-0.6-0.4-1-1-1S2,2.4,2,3v6h9V4z"/>
</svg>
