<?xml version="1.0" encoding="utf-8"?>
<!-- Generator: Adobe Illustrator 19.1.0, SVG Export Plug-In . SVG Version: 6.00 Build 0)  -->
<!DOCTYPE svg PUBLIC "-//W3C//DTD SVG 1.1//EN" "http://www.w3.org/Graphics/SVG/1.1/DTD/svg11.dtd">
<svg version="1.1" id="Layer_1" xmlns="http://www.w3.org/2000/svg" xmlns:xlink="http://www.w3.org/1999/xlink" x="0px" y="0px"
	 width="24px" height="24px" viewBox="0 0 24 24" enable-background="new 0 0 24 24" xml:space="preserve">
<path d="M23.4,13.1l-7.6-3.2c-0.5-0.2-1.1,0-1.3,0.5c-0.2,0.5,0,1.1,0.5,1.3l7,3V15h-2H4H2v-0.4l9.4-4.7C11.8,9.7,12,9.4,12,9l0-2.2
	c0-0.4-0.3-0.8-0.7-0.9C10.5,5.6,10,4.8,10,4c0-1.1,0.9-2,2-2s2,0.9,2,2c0,0.6,0.4,1,1,1s1-0.4,1-1c0-2.2-1.8-4-4-4S8,1.8,8,4
	c0,1.4,0.8,2.8,2,3.5l0,0.9l-9.4,4.7C0.2,13.3,0,13.6,0,14v2c0,0.6,0.4,1,1,1h2v6c0,0.6,0.4,1,1,1h16c0.6,0,1-0.4,1-1v-6h2
	c0.6,0,1-0.4,1-1v-2C24,13.6,23.8,13.2,23.4,13.1z"/>
</svg>
