<?xml version="1.0" encoding="utf-8"?>
<!-- Generator: Adobe Illustrator 19.1.0, SVG Export Plug-In . SVG Version: 6.00 Build 0)  -->
<!DOCTYPE svg PUBLIC "-//W3C//DTD SVG 1.1//EN" "http://www.w3.org/Graphics/SVG/1.1/DTD/svg11.dtd">
<svg version="1.1" id="Layer_1" xmlns="http://www.w3.org/2000/svg" xmlns:xlink="http://www.w3.org/1999/xlink" x="0px" y="0px"
	 width="24px" height="24px" viewBox="0 0 24 24" enable-background="new 0 0 24 24" xml:space="preserve">
<path d="M23,16H13v-2h8c0.6,0,1-0.4,1-1V1c0-0.6-0.4-1-1-1H3C2.4,0,2,0.4,2,1v12c0,0.6,0.4,1,1,1h8v2H1c-0.6,0-1,0.4-1,1v6
	c0,0.6,0.4,1,1,1c0.6,0,1-0.4,1-1v-2h20v2c0,0.6,0.4,1,1,1c0.6,0,1-0.4,1-1v-6C24,16.4,23.6,16,23,16z M4,2h16v10H4V2z"/>
</svg>
