<?xml version="1.0" encoding="utf-8"?>
<!-- Generator: Adobe Illustrator 19.1.0, SVG Export Plug-In . SVG Version: 6.00 Build 0)  -->
<!DOCTYPE svg PUBLIC "-//W3C//DTD SVG 1.1//EN" "http://www.w3.org/Graphics/SVG/1.1/DTD/svg11.dtd">
<svg version="1.1" id="Layer_1" xmlns="http://www.w3.org/2000/svg" xmlns:xlink="http://www.w3.org/1999/xlink" x="0px" y="0px"
	 width="24px" height="24px" viewBox="0 0 24 24" enable-background="new 0 0 24 24" xml:space="preserve">
<path id="color_12_" d="M6,14v3c0,0.6,0.4,1,1,1c0.6,0,1-0.4,1-1v-3H6z"/>
<path id="color_11_" d="M2,14v8c0,0.6,0.4,1,1,1c0.6,0,1-0.4,1-1v-8H2z"/>
<path d="M23.7,7.3l-6-6C17.5,1.1,17.3,1,17,1H7C6.7,1,6.5,1.1,6.3,1.3l-6,6C0.1,7.5,0,7.7,0,8v3c0,0.6,0.4,1,1,1h22c0.6,0,1-0.4,1-1
	V8C24,7.7,23.9,7.5,23.7,7.3z"/>
<path id="color_10_" d="M20,14v8c0,0.6,0.4,1,1,1c0.6,0,1-0.4,1-1v-8H20z"/>
<path id="color_9_" d="M16,14v3c0,0.6,0.4,1,1,1c0.6,0,1-0.4,1-1v-3H16z"/>
</svg>
