<?xml version="1.0" encoding="utf-8"?>
<!-- Generator: Adobe Illustrator 19.1.0, SVG Export Plug-In . SVG Version: 6.00 Build 0)  -->
<!DOCTYPE svg PUBLIC "-//W3C//DTD SVG 1.1//EN" "http://www.w3.org/Graphics/SVG/1.1/DTD/svg11.dtd">
<svg version="1.1" id="Layer_1" xmlns="http://www.w3.org/2000/svg" xmlns:xlink="http://www.w3.org/1999/xlink" x="0px" y="0px"
	 width="24px" height="24px" viewBox="0 0 24 24" enable-background="new 0 0 24 24" xml:space="preserve">
<path id="color_23_" d="M22,16H2c-0.6,0-1,0.4-1,1v1c0,0.6,0.4,1,1,1h2v4c0,0.6,0.4,1,1,1h14c0.6,0,1-0.4,1-1v-4h2c0.6,0,1-0.4,1-1
	v-1C23,16.4,22.6,16,22,16z"/>
<path d="M5,14h14v-3h2V9h-2c0-1.6-0.5-3-1.4-4.2L19.4,3L18,1.6l-1.8,1.8c-0.9-0.7-2-1.2-3.2-1.3V0h-2v2.1C9.8,2.3,8.7,2.7,7.8,3.4
	L6,1.6L4.6,3l1.8,1.8C5.5,6,5,7.4,5,9H3v2h2V14z"/>
</svg>
