<?xml version="1.0" encoding="utf-8"?>
<!-- Generator: Adobe Illustrator 19.1.0, SVG Export Plug-In . SVG Version: 6.00 Build 0)  -->
<!DOCTYPE svg PUBLIC "-//W3C//DTD SVG 1.1//EN" "http://www.w3.org/Graphics/SVG/1.1/DTD/svg11.dtd">
<svg version="1.1" id="Layer_1" xmlns="http://www.w3.org/2000/svg" xmlns:xlink="http://www.w3.org/1999/xlink" x="0px" y="0px"
	 width="24px" height="24px" viewBox="0 0 24 24" enable-background="new 0 0 24 24" xml:space="preserve">
<path d="M23.6,14.2l-9-6C14.4,8.1,14.2,8,14,8h-4C9.8,8,9.6,8.1,9.4,8.2l-9,6C0.2,14.4,0,14.7,0,15v3c0,0.6,0.4,1,1,1h22
	c0.6,0,1-0.4,1-1v-3C24,14.7,23.8,14.4,23.6,14.2z"/>
<path id="color_25_" d="M14,6c0.3,0,1,0,1,0V4c0-0.6-0.4-1-1-1h-1V1c0-0.6-0.4-1-1-1s-1,0.4-1,1v2h-1C9.4,3,9,3.4,9,4v2h1H14z"/>
<path id="color_24_" d="M12,24c2,0,3.8-1.2,4.6-3H7.4C8.2,22.8,10,24,12,24z"/>
</svg>
