<?xml version="1.0" encoding="utf-8"?>
<!-- Generator: Adobe Illustrator 19.1.0, SVG Export Plug-In . SVG Version: 6.00 Build 0)  -->
<!DOCTYPE svg PUBLIC "-//W3C//DTD SVG 1.1//EN" "http://www.w3.org/Graphics/SVG/1.1/DTD/svg11.dtd">
<svg version="1.1" id="Layer_1" xmlns="http://www.w3.org/2000/svg" xmlns:xlink="http://www.w3.org/1999/xlink" x="0px" y="0px"
	 width="24px" height="24px" viewBox="0 0 24 24" enable-background="new 0 0 24 24" xml:space="preserve">
<path d="M21.8,9.4l-6-9C15.6,0.2,15.3,0,15,0H9C8.7,0,8.4,0.2,8.2,0.4l-6,9C2.1,9.6,2,9.8,2,10v2c0,0.6,0.4,1,1,1h18
	c0.6,0,1-0.4,1-1v-2C22,9.8,21.9,9.6,21.8,9.4z"/>
<path id="color_22_" d="M7,15H5v3c0,0.6,0.4,1,1,1c0.6,0,1-0.4,1-1V15z"/>
<path id="color_21_" d="M16,22h-3v-4h1c0.6,0,1-0.4,1-1v-2H9v2c0,0.6,0.4,1,1,1h1v4H8c-0.6,0-1,0.4-1,1s0.4,1,1,1h4h4
	c0.6,0,1-0.4,1-1S16.6,22,16,22z"/>
</svg>
