<?xml version="1.0" encoding="utf-8"?>
<!-- Generator: Adobe Illustrator 19.1.0, SVG Export Plug-In . SVG Version: 6.00 Build 0)  -->
<!DOCTYPE svg PUBLIC "-//W3C//DTD SVG 1.1//EN" "http://www.w3.org/Graphics/SVG/1.1/DTD/svg11.dtd">
<svg version="1.1" id="Layer_1" xmlns="http://www.w3.org/2000/svg" xmlns:xlink="http://www.w3.org/1999/xlink" x="0px" y="0px"
	 width="24px" height="24px" viewBox="0 0 24 24" enable-background="new 0 0 24 24" xml:space="preserve">
<path id="color_17_" d="M21,12H3c-0.6,0-1,0.4-1,1v1h20v-1C22,12.4,21.6,12,21,12z"/>
<path d="M8,20.9V23c0,0.6,0.4,1,1,1h6c0.6,0,1-0.4,1-1v-2.1c2.7-0.4,4.9-2.4,5.7-4.9H2.3C3.1,18.6,5.3,20.5,8,20.9z"/>
<path d="M19,3c0-1.7-1.3-3-3-3H8C6.3,0,5,1.3,5,3v7h14V3z"/>
</svg>
