<?xml version="1.0" encoding="utf-8"?>
<!-- Generator: Adobe Illustrator 19.1.0, SVG Export Plug-In . SVG Version: 6.00 Build 0)  -->
<!DOCTYPE svg PUBLIC "-//W3C//DTD SVG 1.1//EN" "http://www.w3.org/Graphics/SVG/1.1/DTD/svg11.dtd">
<svg version="1.1" id="Layer_1" xmlns="http://www.w3.org/2000/svg" xmlns:xlink="http://www.w3.org/1999/xlink" x="0px" y="0px"
	 width="24px" height="24px" viewBox="0 0 24 24" enable-background="new 0 0 24 24" xml:space="preserve">
<path id="color_26_" d="M23,10h-3c-0.6,0-1,0.4-1,1v4H5v-4c0-0.6-0.4-1-1-1H1c-0.6,0-1,0.4-1,1v9c0,0.6,0.4,1,1,1h2v2
	c0,0.6,0.4,1,1,1s1-0.4,1-1v-2h14v2c0,0.6,0.4,1,1,1s1-0.4,1-1v-2h2c0.6,0,1-0.4,1-1v-9C24,10.4,23.6,10,23,10z"/>
<path d="M6,8c0.6,0,1,0.4,1,1v4h10V9c0-0.6,0.4-1,1-1h3V1c0-0.6-0.4-1-1-1H4C3.4,0,3,0.4,3,1v7H6z"/>
</svg>
