<?xml version="1.0" encoding="utf-8"?>
<!-- Generator: Adobe Illustrator 19.1.0, SVG Export Plug-In . SVG Version: 6.00 Build 0)  -->
<!DOCTYPE svg PUBLIC "-//W3C//DTD SVG 1.1//EN" "http://www.w3.org/Graphics/SVG/1.1/DTD/svg11.dtd">
<svg version="1.1" id="Layer_1" xmlns="http://www.w3.org/2000/svg" xmlns:xlink="http://www.w3.org/1999/xlink" x="0px" y="0px"
	 width="24px" height="24px" viewBox="0 0 24 24" enable-background="new 0 0 24 24" xml:space="preserve">
<path d="M23,2H12v18h8v2c0,0.6,0.4,1,1,1c0.6,0,1-0.4,1-1v-2h1c0.6,0,1-0.4,1-1V3C24,2.4,23.6,2,23,2z M15,10h6v2h-6V10z"/>
<path id="color_28_" d="M0,3v16c0,0.6,0.4,1,1,1h1v2c0,0.6,0.4,1,1,1c0.6,0,1-0.4,1-1v-2h6V2H1C0.4,2,0,2.4,0,3z M3,10h4v2H3V10z"/>
</svg>
