<?xml version="1.0" encoding="utf-8"?>
<!-- Generator: Adobe Illustrator 19.1.0, SVG Export Plug-In . SVG Version: 6.00 Build 0)  -->
<!DOCTYPE svg PUBLIC "-//W3C//DTD SVG 1.1//EN" "http://www.w3.org/Graphics/SVG/1.1/DTD/svg11.dtd">
<svg version="1.1" id="Layer_1" xmlns="http://www.w3.org/2000/svg" xmlns:xlink="http://www.w3.org/1999/xlink" x="0px" y="0px"
	 width="24px" height="24px" viewBox="0 0 24 24" enable-background="new 0 0 24 24" xml:space="preserve">
<path d="M23,12H1c-0.6,0-1,0.4-1,1v9c0,0.6,0.4,1,1,1h22c0.6,0,1-0.4,1-1v-9C24,12.4,23.6,12,23,12z M20,19H4v-2h16V19z"/>
<path id="color_43_" d="M12,8c0.6,0,1-0.4,1-1V2c0-0.6-0.4-1-1-1c-0.6,0-1,0.4-1,1v5C11,7.6,11.4,8,12,8z"/>
<path id="color_42_" d="M7,10c0.6,0,1-0.4,1-1V6c0-0.6-0.4-1-1-1C6.4,5,6,5.4,6,6v3C6,9.6,6.4,10,7,10z"/>
<path id="color_41_" d="M17,10c0.6,0,1-0.4,1-1V6c0-0.6-0.4-1-1-1c-0.6,0-1,0.4-1,1v3C16,9.6,16.4,10,17,10z"/>
</svg>
