<?xml version="1.0" encoding="utf-8"?>
<!-- Generator: Adobe Illustrator 19.1.0, SVG Export Plug-In . SVG Version: 6.00 Build 0)  -->
<!DOCTYPE svg PUBLIC "-//W3C//DTD SVG 1.1//EN" "http://www.w3.org/Graphics/SVG/1.1/DTD/svg11.dtd">
<svg version="1.1" id="Layer_1" xmlns="http://www.w3.org/2000/svg" xmlns:xlink="http://www.w3.org/1999/xlink" x="0px" y="0px"
	 width="24px" height="24px" viewBox="0 0 24 24" enable-background="new 0 0 24 24" xml:space="preserve">
<path d="M22,0H2C1.4,0,1,0.4,1,1v9h22V1C23,0.4,22.6,0,22,0z M15,6H9V4h6V6z"/>
<path id="color_27_" d="M1,21c0,0.6,0.4,1,1,1h1v1c0,0.6,0.4,1,1,1s1-0.4,1-1v-1h14v1c0,0.6,0.4,1,1,1s1-0.4,1-1v-1h1
	c0.6,0,1-0.4,1-1v-9H1V21z M9,16h6v2H9V16z"/>
</svg>
