<?xml version="1.0" encoding="utf-8"?>
<!-- Generator: Adobe Illustrator 19.1.0, SVG Export Plug-In . SVG Version: 6.00 Build 0)  -->
<!DOCTYPE svg PUBLIC "-//W3C//DTD SVG 1.1//EN" "http://www.w3.org/Graphics/SVG/1.1/DTD/svg11.dtd">
<svg version="1.1" id="Layer_1" xmlns="http://www.w3.org/2000/svg" xmlns:xlink="http://www.w3.org/1999/xlink" x="0px" y="0px"
	 width="24px" height="24px" viewBox="0 0 24 24" enable-background="new 0 0 24 24" xml:space="preserve">
<path d="M0,7v14c0,0.6,0.4,1,1,1c0.6,0,1-0.4,1-1V7H0z"/>
<path d="M11,5h11h2V3c0-0.6-0.4-1-1-1H1C0.4,2,0,2.4,0,3v2h2H11z"/>
<path id="color_14_" d="M10,12v9c0,0.6,0.4,1,1,1c0.6,0,1-0.4,1-1v-8h10v8c0,0.6,0.4,1,1,1c0.6,0,1-0.4,1-1V7H10V12z M14,9h6v2h-6V9
	z"/>
</svg>
