<?xml version="1.0" encoding="utf-8"?>
<!-- Generator: Adobe Illustrator 19.1.0, SVG Export Plug-In . SVG Version: 6.00 Build 0)  -->
<!DOCTYPE svg PUBLIC "-//W3C//DTD SVG 1.1//EN" "http://www.w3.org/Graphics/SVG/1.1/DTD/svg11.dtd">
<svg version="1.1" id="Layer_1" xmlns="http://www.w3.org/2000/svg" xmlns:xlink="http://www.w3.org/1999/xlink" x="0px" y="0px"
	 width="24px" height="24px" viewBox="0 0 24 24" enable-background="new 0 0 24 24" xml:space="preserve">
<path d="M16,4V1c0-0.6-0.4-1-1-1H8C4.7,0,2,2.7,2,6v17c0,0.6,0.4,1,1,1h4c0.6,0,1-0.4,1-1s-0.4-1-1-1H4V6c0-2.2,1.8-4,4-4h6v2
	c-3.3,0-6,2.7-6,6v1h3c0,2.2,1.8,4,4,4c2.2,0,4-1.8,4-4h3v-1C22,6.7,19.3,4,16,4z M15,13c-1.1,0-2-0.9-2-2h4C17,12.1,16.1,13,15,13z
	"/>
<rect id="color_3_" x="14" y="17" width="2" height="3"/>
<rect id="color_2_" x="8.7" y="14.8" transform="matrix(0.7066 0.7076 -0.7076 0.7066 14.3806 -2.0784)" width="2" height="3"/>
<rect id="color_1_" x="18.8" y="15.3" transform="matrix(0.7076 0.7066 -0.7066 0.7076 17.4571 -9.5795)" width="3" height="2"/>
</svg>
