<?xml version="1.0" encoding="utf-8"?>
<!-- Generator: Adobe Illustrator 19.1.0, SVG Export Plug-In . SVG Version: 6.00 Build 0)  -->
<!DOCTYPE svg PUBLIC "-//W3C//DTD SVG 1.1//EN" "http://www.w3.org/Graphics/SVG/1.1/DTD/svg11.dtd">
<svg version="1.1" id="Layer_2" xmlns="http://www.w3.org/2000/svg" xmlns:xlink="http://www.w3.org/1999/xlink" x="0px" y="0px"
	 width="24px" height="24px" viewBox="0 0 24 24" enable-background="new 0 0 24 24" xml:space="preserve">
<path d="M23,1H1C0.4,1,0,1.4,0,2s0.4,1,1,1h22c0.6,0,1-0.4,1-1S23.6,1,23,1z"/>
<path d="M20,5H4C3.4,5,3,5.4,3,6s0.4,1,1,1h16c0.6,0,1-0.4,1-1S20.6,5,20,5z"/>
<path d="M22,10c0-0.6-0.4-1-1-1H7c-0.6,0-1,0.4-1,1s0.4,1,1,1h14C21.6,11,22,10.6,22,10z"/>
<path d="M19,14c0-0.6-0.4-1-1-1H9c-0.6,0-1,0.4-1,1s0.4,1,1,1h9C18.6,15,19,14.6,19,14z"/>
<path d="M7,17c-0.6,0-1,0.4-1,1s0.4,1,1,1h6c0.6,0,1-0.4,1-1s-0.4-1-1-1H7z"/>
<path d="M4,23h4c0.6,0,1-0.4,1-1s-0.4-1-1-1H4c-0.6,0-1,0.4-1,1S3.4,23,4,23z"/>
</svg>
