<?xml version="1.0" encoding="utf-8"?>
<!-- Generator: Adobe Illustrator 19.1.0, SVG Export Plug-In . SVG Version: 6.00 Build 0)  -->
<!DOCTYPE svg PUBLIC "-//W3C//DTD SVG 1.1//EN" "http://www.w3.org/Graphics/SVG/1.1/DTD/svg11.dtd">
<svg version="1.1" id="Layer_2" xmlns="http://www.w3.org/2000/svg" xmlns:xlink="http://www.w3.org/1999/xlink" x="0px" y="0px"
	 width="24px" height="24px" viewBox="0 0 24 24" enable-background="new 0 0 24 24" xml:space="preserve">
<path d="M2,13c0.6,0,1-0.4,1-1s-0.4-1-1-1H1c-0.6,0-1,0.4-1,1s0.4,1,1,1H2z"/>
<path d="M3.5,3.5c-0.4,0.4-0.4,1,0,1.4l0.7,0.7c0.2,0.2,0.5,0.3,0.7,0.3s0.5-0.1,0.7-0.3c0.4-0.4,0.4-1,0-1.4L4.9,3.5
	C4.5,3.1,3.9,3.1,3.5,3.5z"/>
<path d="M11,1v1c0,0.6,0.4,1,1,1s1-0.4,1-1V1c0-0.6-0.4-1-1-1S11,0.4,11,1z"/>
<path d="M19.1,3.5l-0.7,0.7c-0.4,0.4-0.4,1,0,1.4c0.2,0.2,0.5,0.3,0.7,0.3s0.5-0.1,0.7-0.3l0.7-0.7c0.4-0.4,0.4-1,0-1.4
	C20.1,3.1,19.5,3.1,19.1,3.5z"/>
<path d="M23,11h-1c-0.6,0-1,0.4-1,1s0.4,1,1,1h1c0.6,0,1-0.4,1-1S23.6,11,23,11z"/>
<path d="M19,14c-0.1,0-0.2,0-0.3,0c0.2-0.7,0.3-1.3,0.3-2c0-3.9-3.1-7-7-7s-7,3.1-7,7c0,0.7,0.1,1.4,0.3,2c-0.1,0-0.2,0-0.3,0
	c-2.8,0-5,2.2-5,5s2.2,5,5,5h14c2.8,0,5-2.2,5-5S21.8,14,19,14z M12,7c2.8,0,5,2.2,5,5c0,0.6-0.1,1.1-0.3,1.6
	C15.5,12,13.6,11,11.5,11c-1.7,0-3.3,0.7-4.4,1.8C7,12.5,7,12.3,7,12C7,9.2,9.2,7,12,7z M19,22H5c-1.7,0-3-1.3-3-3s1.3-3,3-3
	c0.4,0,0.7,0.1,1.1,0.2c0.5,0.2,1.1,0,1.3-0.5c0.7-1.6,2.3-2.7,4.1-2.7c1.9,0,3.6,1.2,4.3,3.1c0,0,0,0,0,0.1c0,0.1,0.1,0.2,0.2,0.2
	c0,0,0.1,0.1,0.1,0.1c0,0,0,0,0,0c0.1,0.1,0.2,0.1,0.3,0.2c0,0,0,0,0,0c0,0,0,0,0.1,0c0.1,0,0.2,0,0.2,0c0,0,0,0,0.1,0
	c0.1,0,0.2,0,0.2-0.1c0.1,0,0.1,0,0.2-0.1c0,0,0.1,0,0.1,0c0.5-0.4,1.1-0.5,1.7-0.5c1.7,0,3,1.3,3,3S20.7,22,19,22z"/>
</svg>
