<?xml version="1.0" encoding="utf-8"?>
<!-- Generator: Adobe Illustrator 19.1.0, SVG Export Plug-In . SVG Version: 6.00 Build 0)  -->
<!DOCTYPE svg PUBLIC "-//W3C//DTD SVG 1.1//EN" "http://www.w3.org/Graphics/SVG/1.1/DTD/svg11.dtd">
<svg version="1.1" id="Layer_2" xmlns="http://www.w3.org/2000/svg" xmlns:xlink="http://www.w3.org/1999/xlink" x="0px" y="0px"
	 width="24px" height="24px" viewBox="0 0 24 24" enable-background="new 0 0 24 24" xml:space="preserve">
<path d="M23,6c-2.8,0-5-2.2-5-5c0-0.6-0.4-1-1-1c-3.2,0-5.9,2.1-6.7,5.1C8.5,5.5,6.9,6.5,6,8.1C5.6,8,5.3,8,5,8c-2.8,0-5,2.2-5,5
	s2.2,5,5,5h1c0.6,0,1-0.4,1-1s-0.4-1-1-1H5c-1.7,0-3-1.3-3-3s1.3-3,3-3c0.4,0,0.7,0.1,1.1,0.2c0.5,0.2,1.1,0,1.3-0.5
	C8.1,8.1,9.7,7,11.5,7c1.9,0,3.6,1.2,4.3,3.1c0.1,0.3,0.3,0.5,0.6,0.6c0.3,0.1,0.6,0,0.9-0.1c0.5-0.4,1.1-0.5,1.7-0.5
	c1.7,0,3,1.3,3,3s-1.3,3-3,3h-1c-0.6,0-1,0.4-1,1s0.4,1,1,1h1c2.8,0,5-2.2,5-5c0-1-0.3-2-0.8-2.8C23.7,9.2,24,8.1,24,7
	C24,6.4,23.6,6,23,6z M17.2,8.3c-1-1.8-2.7-3-4.8-3.3c0.6-1.5,2-2.7,3.7-3c0.5,3,2.8,5.4,5.8,5.8c-0.1,0.3-0.1,0.6-0.3,0.9
	C20.9,8.3,20,8,19,8C18.4,8,17.8,8.1,17.2,8.3z"/>
<path d="M11.3,14.3C10.7,14.9,8,17.8,8,20c0,2.5,2,4,4,4s4-1.5,4-4c0-2.2-2.7-5.1-3.3-5.6C12.3,13.9,11.7,13.9,11.3,14.3z M12,22
	c-1,0-2-0.7-2-2c0-0.8,1-2.3,2-3.5c1,1.2,2,2.7,2,3.5C14,21.3,13,22,12,22z"/>
</svg>
