<?xml version="1.0" encoding="utf-8"?>
<!-- Generator: Adobe Illustrator 19.1.0, SVG Export Plug-In . SVG Version: 6.00 Build 0)  -->
<!DOCTYPE svg PUBLIC "-//W3C//DTD SVG 1.1//EN" "http://www.w3.org/Graphics/SVG/1.1/DTD/svg11.dtd">
<svg version="1.1" id="Layer_2" xmlns="http://www.w3.org/2000/svg" xmlns:xlink="http://www.w3.org/1999/xlink" x="0px" y="0px"
	 width="24px" height="24px" viewBox="0 0 24 24" enable-background="new 0 0 24 24" xml:space="preserve">
<path d="M19.9,7.1C19.2,3,15.7,0,11.5,0C7.3,0,3.6,3.2,3.1,7.4C1.3,8.1,0,9.9,0,12c0,2.8,2.2,5,5,5c0.6,0,1-0.4,1-1s-0.4-1-1-1
	c-1.7,0-3-1.3-3-3c0-1.4,0.9-2.6,2.2-2.9C4.7,9,5,8.6,5,8.2C5.2,4.8,8.1,2,11.5,2c3.4,0,6.2,2.6,6.5,6.1C18,8.6,18.5,9,19,9
	c1.7,0,3,1.3,3,3s-1.3,3-3,3c-0.6,0-1,0.4-1,1s0.4,1,1,1c2.8,0,5-2.2,5-5C24,9.5,22.2,7.5,19.9,7.1z"/>
<path d="M12,24c2,0,4-1.5,4-4c0-2.2-2.7-5.1-3.3-5.6c-0.4-0.4-1.1-0.4-1.4,0C10.7,14.9,8,17.8,8,20C8,22.5,10,24,12,24z M12,16.5
	c1,1.2,2,2.7,2,3.5c0,1.3-1,2-2,2s-2-0.7-2-2C10,19.1,11,17.7,12,16.5z"/>
</svg>
