<?xml version="1.0" encoding="utf-8"?>
<!-- Generator: Adobe Illustrator 19.1.0, SVG Export Plug-In . SVG Version: 6.00 Build 0)  -->
<!DOCTYPE svg PUBLIC "-//W3C//DTD SVG 1.1//EN" "http://www.w3.org/Graphics/SVG/1.1/DTD/svg11.dtd">
<svg version="1.1" id="Layer_2" xmlns="http://www.w3.org/2000/svg" xmlns:xlink="http://www.w3.org/1999/xlink" x="0px" y="0px"
	 width="24px" height="24px" viewBox="0 0 24 24" enable-background="new 0 0 24 24" xml:space="preserve">
<path d="M12,9c-0.6,0-1,0.4-1,1v5.6l-1.3-1.3c-0.4-0.4-1-0.4-1.4,0s-0.4,1,0,1.4l3,3c0.1,0.1,0.2,0.2,0.3,0.2C11.7,19,11.9,19,12,19
	s0.3,0,0.4-0.1c0.1-0.1,0.2-0.1,0.3-0.2l3-3c0.4-0.4,0.4-1,0-1.4s-1-0.4-1.4,0L13,15.6V10C13,9.4,12.6,9,12,9z"/>
<path d="M19.9,10.1C19.2,6,15.7,3,11.5,3c-4.2,0-7.9,3.2-8.4,7.4C1.3,11.1,0,12.9,0,15c0,2.8,2.2,5,5,5h3c0.6,0,1-0.4,1-1
	s-0.4-1-1-1H5c-1.7,0-3-1.3-3-3c0-1.4,0.9-2.6,2.2-2.9C4.7,12,5,11.6,5,11.2C5.2,7.8,8.1,5,11.5,5c3.4,0,6.2,2.6,6.5,6.1
	c0,0.5,0.5,0.9,1,0.9c1.7,0,3,1.3,3,3s-1.3,3-3,3h-3c-0.6,0-1,0.4-1,1s0.4,1,1,1h3c2.8,0,5-2.2,5-5C24,12.5,22.2,10.5,19.9,10.1z"/>
</svg>
