<?xml version="1.0" encoding="utf-8"?>
<!-- Generator: Adobe Illustrator 19.1.0, SVG Export Plug-In . SVG Version: 6.00 Build 0)  -->
<!DOCTYPE svg PUBLIC "-//W3C//DTD SVG 1.1//EN" "http://www.w3.org/Graphics/SVG/1.1/DTD/svg11.dtd">
<svg version="1.1" id="Layer_2" xmlns="http://www.w3.org/2000/svg" xmlns:xlink="http://www.w3.org/1999/xlink" x="0px" y="0px"
	 width="24px" height="24px" viewBox="0 0 24 24" enable-background="new 0 0 24 24" xml:space="preserve">
<path d="M10.1,1.7c-0.3-0.3-0.6-0.4-1-0.3C4.3,2.7,1,7.1,1,12c0,6.1,4.9,11,11,11c4.9,0,9.3-3.3,10.6-8.1c0.1-0.3,0-0.7-0.3-1
	c-0.3-0.3-0.6-0.4-1-0.3C20.6,13.9,19.8,14,19,14c-5,0-9-4-9-9c0-0.8,0.1-1.6,0.3-2.4C10.4,2.3,10.3,1.9,10.1,1.7z M19,16
	c0.4,0,0.7,0,1.1-0.1C18.6,19,15.5,21,12,21c-5,0-9-4-9-9c0-3.5,2-6.6,5.1-8.1C8,4.3,8,4.6,8,5C8,11.1,12.9,16,19,16z"/>
</svg>
