<?xml version="1.0" encoding="utf-8"?>
<!-- Generator: Adobe Illustrator 19.1.0, SVG Export Plug-In . SVG Version: 6.00 Build 0)  -->
<!DOCTYPE svg PUBLIC "-//W3C//DTD SVG 1.1//EN" "http://www.w3.org/Graphics/SVG/1.1/DTD/svg11.dtd">
<svg version="1.1" id="Layer_2" xmlns="http://www.w3.org/2000/svg" xmlns:xlink="http://www.w3.org/1999/xlink" x="0px" y="0px"
	 width="24px" height="24px" viewBox="0 0 24 24" enable-background="new 0 0 24 24" xml:space="preserve">
<path d="M3,23V1c0-0.6-0.4-1-1-1S1,0.4,1,1v22c0,0.6,0.4,1,1,1S3,23.6,3,23z"/>
<path d="M23.2,5l-17-3C5.9,2,5.6,2,5.4,2.2C5.1,2.4,5,2.7,5,3v12c0,0.3,0.1,0.6,0.4,0.8C5.5,15.9,5.8,16,6,16c0.1,0,0.1,0,0.2,0
	l17-3c0.5-0.1,0.8-0.5,0.8-1V6C24,5.5,23.7,5.1,23.2,5z M17,6V12l-4,0.7V5.3L17,6z M7,4.2l4,0.7v8.2l-4,0.7V4.2z M22,11.2l-3,0.5
	V6.3l3,0.5V11.2z"/>
</svg>
