<?xml version="1.0" encoding="utf-8"?>
<!-- Generator: Adobe Illustrator 19.1.0, SVG Export Plug-In . SVG Version: 6.00 Build 0)  -->
<!DOCTYPE svg PUBLIC "-//W3C//DTD SVG 1.1//EN" "http://www.w3.org/Graphics/SVG/1.1/DTD/svg11.dtd">
<svg version="1.1" id="Layer_2" xmlns="http://www.w3.org/2000/svg" xmlns:xlink="http://www.w3.org/1999/xlink" x="0px" y="0px"
	 width="24px" height="24px" viewBox="0 0 24 24" enable-background="new 0 0 24 24" xml:space="preserve">
<path d="M15,3c-3.9,0-7.3,2.4-8.5,6C6.3,9,6.2,9,6,9c-3.4,0-6,2.6-6,6s2.6,6,6,6h9c5,0,9-4,9-9S20,3,15,3z M15,19H6
	c-2.2,0-4-1.8-4-4s1.8-4,4-4c0.3,0,0.6,0.1,1,0.2c0.3,0.1,0.5,0,0.8-0.1c0.2-0.1,0.4-0.4,0.5-0.6C8.9,7.2,11.7,5,15,5
	c3.9,0,7,3.1,7,7S18.9,19,15,19z"/>
</svg>
