<?xml version="1.0" encoding="utf-8"?>
<!-- Generator: Adobe Illustrator 19.1.0, SVG Export Plug-In . SVG Version: 6.00 Build 0)  -->
<!DOCTYPE svg PUBLIC "-//W3C//DTD SVG 1.1//EN" "http://www.w3.org/Graphics/SVG/1.1/DTD/svg11.dtd">
<svg version="1.1" id="Layer_2" xmlns="http://www.w3.org/2000/svg" xmlns:xlink="http://www.w3.org/1999/xlink" x="0px" y="0px"
	 width="24px" height="24px" viewBox="0 0 24 24" enable-background="new 0 0 24 24" xml:space="preserve">
<path d="M24,7c0-0.6-0.4-1-1-1c-2.8,0-5-2.2-5-5c0-0.6-0.4-1-1-1c-2.7,0-5.2,1.6-6.3,4c-0.2,0.3-0.3,0.7-0.4,1.1C9.9,5,9.4,5,9,5
	c-5,0-9,4-9,9s4,9,9,9h9c3.4,0,6-2.6,6-6c0-2-0.9-3.7-2.3-4.8C23.1,10.9,24,9,24,7z M18,21H9c-3.9,0-7-3.1-7-7s3.1-7,7-7
	c3.3,0,6.1,2.2,6.8,5.4c0.1,0.3,0.2,0.5,0.5,0.6s0.5,0.2,0.8,0.1c0.3-0.1,0.7-0.2,1-0.2c2.2,0,4,1.8,4,4S20.2,21,18,21z M18,11
	c-0.2,0-0.3,0-0.5,0c-0.9-2.6-2.8-4.5-5.3-5.4c0.1-0.3,0.2-0.5,0.3-0.7c0.7-1.4,2-2.5,3.6-2.8c0.5,3,2.8,5.4,5.8,5.8
	c-0.3,1.4-1.1,2.6-2.3,3.3C19.1,11.1,18.6,11,18,11z"/>
</svg>
