<?xml version="1.0" encoding="utf-8"?>
<!-- Generator: Adobe Illustrator 19.1.0, SVG Export Plug-In . SVG Version: 6.00 Build 0)  -->
<!DOCTYPE svg PUBLIC "-//W3C//DTD SVG 1.1//EN" "http://www.w3.org/Graphics/SVG/1.1/DTD/svg11.dtd">
<svg version="1.1" id="Layer_2" xmlns="http://www.w3.org/2000/svg" xmlns:xlink="http://www.w3.org/1999/xlink" x="0px" y="0px"
	 width="24px" height="24px" viewBox="0 0 24 24" enable-background="new 0 0 24 24" xml:space="preserve">
<path d="M17,0c-3.2,0-5.9,2.1-6.7,5.1C8.5,5.5,6.9,6.5,6,8.1C5.6,8,5.3,8,5,8c-2.8,0-5,2.2-5,5s2.2,5,5,5c0.6,0,1-0.4,1-1
	s-0.4-1-1-1c-1.7,0-3-1.3-3-3s1.3-3,3-3c0.4,0,0.7,0.1,1.1,0.2c0.5,0.2,1.1,0,1.3-0.5C8.1,8.1,9.7,7,11.5,7c1.9,0,3.6,1.2,4.3,3.1
	c0.1,0.3,0.3,0.5,0.6,0.6c0.3,0.1,0.6,0,0.9-0.1c0.5-0.4,1.1-0.5,1.7-0.5c1.7,0,3,1.3,3,3s-1.3,3-3,3c-0.6,0-1,0.4-1,1s0.4,1,1,1
	c2.8,0,5-2.2,5-5c0-1-0.3-2-0.8-2.8C23.7,9.2,24,8.1,24,7C24,3.1,20.9,0,17,0z M17.2,8.3c-1-1.8-2.7-3-4.7-3.3C13.2,3.2,14.9,2,17,2
	c2.8,0,5,2.2,5,5c0,0.6-0.1,1.2-0.3,1.8C20.9,8.3,20,8,19,8C18.4,8,17.8,8.1,17.2,8.3z"/>
<path d="M13,23v-5c0-0.6-0.4-1-1-1s-1,0.4-1,1v5c0,0.6,0.4,1,1,1S13,23.6,13,23z"/>
<path d="M8,21c0.6,0,1-0.4,1-1v-5c0-0.6-0.4-1-1-1s-1,0.4-1,1v5C7,20.6,7.4,21,8,21z"/>
<path d="M17,20v-5c0-0.6-0.4-1-1-1s-1,0.4-1,1v5c0,0.6,0.4,1,1,1S17,20.6,17,20z"/>
</svg>
