<?xml version="1.0" encoding="utf-8"?>
<!-- Generator: Adobe Illustrator 19.1.0, SVG Export Plug-In . SVG Version: 6.00 Build 0)  -->
<!DOCTYPE svg PUBLIC "-//W3C//DTD SVG 1.1//EN" "http://www.w3.org/Graphics/SVG/1.1/DTD/svg11.dtd">
<svg version="1.1" id="Layer_2" xmlns="http://www.w3.org/2000/svg" xmlns:xlink="http://www.w3.org/1999/xlink" x="0px" y="0px"
	 width="24px" height="24px" viewBox="0 0 24 24" enable-background="new 0 0 24 24" xml:space="preserve">
<path d="M19.9,10.1C19.2,6,15.7,3,11.5,3c-4.2,0-7.9,3.2-8.4,7.4C1.3,11.1,0,12.9,0,15c0,2.8,2.2,5,5,5h14c2.8,0,5-2.2,5-5
	C24,12.5,22.2,10.5,19.9,10.1z M19,18H5c-1.7,0-3-1.3-3-3c0-1.4,0.9-2.6,2.2-2.9C4.7,12,5,11.6,5,11.2C5.2,7.8,8.1,5,11.5,5
	c3.4,0,6.2,2.6,6.5,6.1c0,0.5,0.5,0.9,1,0.9c1.7,0,3,1.3,3,3S20.7,18,19,18z"/>
</svg>
