<?xml version="1.0" encoding="utf-8"?>
<!-- Generator: Adobe Illustrator 19.1.0, SVG Export Plug-In . SVG Version: 6.00 Build 0)  -->
<!DOCTYPE svg PUBLIC "-//W3C//DTD SVG 1.1//EN" "http://www.w3.org/Graphics/SVG/1.1/DTD/svg11.dtd">
<svg version="1.1" id="Layer_2" xmlns="http://www.w3.org/2000/svg" xmlns:xlink="http://www.w3.org/1999/xlink" x="0px" y="0px"
	 width="24px" height="24px" viewBox="0 0 24 24" enable-background="new 0 0 24 24" xml:space="preserve">
<path d="M12,0C5.4,0,0,5.4,0,12c0,6.6,5.4,12,12,12c1.2,0,2.3-0.2,3.3-0.5c0,0,0,0,0,0c5-1.4,8.7-6.1,8.7-11.5C24,5.4,18.6,0,12,0z
	 M2,12c0-5.3,4.1-9.6,9.3-10C8.1,4.2,6,7.9,6,12c0,4.1,2.1,7.8,5.3,10C6.1,21.6,2,17.3,2,12z M15,21.5c-4.1-1.3-7-5.2-7-9.5
	s2.9-8.2,7-9.5c4,1.3,7,5.1,7,9.5C22,16.5,19.1,20.2,15,21.5z"/>
</svg>
