<?xml version="1.0" encoding="utf-8"?>
<!-- Generator: Adobe Illustrator 19.1.0, SVG Export Plug-In . SVG Version: 6.00 Build 0)  -->
<!DOCTYPE svg PUBLIC "-//W3C//DTD SVG 1.1//EN" "http://www.w3.org/Graphics/SVG/1.1/DTD/svg11.dtd">
<svg version="1.1" id="Layer_2" xmlns="http://www.w3.org/2000/svg" xmlns:xlink="http://www.w3.org/1999/xlink" x="0px" y="0px"
	 width="24px" height="24px" viewBox="0 0 24 24" enable-background="new 0 0 24 24" xml:space="preserve">
<path d="M19.9,8.1C19.2,4,15.7,1,11.5,1C7.3,1,3.6,4.2,3.1,8.4C1.3,9.1,0,10.9,0,13c0,2.8,2.2,5,5,5c0.6,0,1-0.4,1-1s-0.4-1-1-1
	c-1.7,0-3-1.3-3-3c0-1.4,0.9-2.6,2.2-2.9C4.7,10,5,9.6,5,9.2C5.2,5.8,8.1,3,11.5,3c3.4,0,6.2,2.6,6.5,6.1c0,0.5,0.5,0.9,1,0.9
	c1.7,0,3,1.3,3,3s-1.3,3-3,3c-0.6,0-1,0.4-1,1s0.4,1,1,1c2.8,0,5-2.2,5-5C24,10.5,22.2,8.5,19.9,8.1z"/>
<path d="M7.7,19.5C7.9,19.8,8.2,20,8.5,20c0.2,0,0.3,0,0.5-0.1l2-1.1V21c0,0.6,0.4,1,1,1s1-0.4,1-1v-2.3l2,1.1
	c0.2,0.1,0.3,0.1,0.5,0.1c0.3,0,0.7-0.2,0.9-0.5c0.3-0.5,0.1-1.1-0.4-1.4L14,17l2-1.1c0.5-0.3,0.6-0.9,0.4-1.4
	c-0.3-0.5-0.9-0.6-1.4-0.4l-2,1.1V13c0-0.6-0.4-1-1-1s-1,0.4-1,1v2.3l-2-1.1c-0.5-0.3-1.1-0.1-1.4,0.4C7.4,15,7.6,15.6,8,15.9l2,1.1
	l-2,1.1C7.6,18.4,7.4,19,7.7,19.5z"/>
</svg>
