<?xml version="1.0" encoding="utf-8"?>
<!-- Generator: Adobe Illustrator 19.1.0, SVG Export Plug-In . SVG Version: 6.00 Build 0)  -->
<!DOCTYPE svg PUBLIC "-//W3C//DTD SVG 1.1//EN" "http://www.w3.org/Graphics/SVG/1.1/DTD/svg11.dtd">
<svg version="1.1" id="Layer_2" xmlns="http://www.w3.org/2000/svg" xmlns:xlink="http://www.w3.org/1999/xlink" x="0px" y="0px"
	 width="24px" height="24px" viewBox="0 0 24 24" enable-background="new 0 0 24 24" xml:space="preserve">
<path d="M2,4c0,2.2,1.8,4,4,4s4-1.8,4-4S8.2,0,6,0S2,1.8,2,4z M6,2c1.1,0,2,0.9,2,2S7.1,6,6,6S4,5.1,4,4S4.9,2,6,2z"/>
<path d="M16,8c1.2,0,2.4,0.3,3.5,0.9C20,9.2,20.6,9,20.9,8.6s0.1-1.1-0.4-1.4C19.1,6.4,17.6,6,16,6c-5,0-9,4-9,9s4,9,9,9
	c1.5,0,3-0.4,4.4-1.1c0.5-0.3,0.7-0.9,0.4-1.4c-0.3-0.5-0.9-0.7-1.4-0.4c-1,0.6-2.2,0.9-3.4,0.9c-3.9,0-7-3.1-7-7S12.1,8,16,8z"/>
</svg>
