<?xml version="1.0" encoding="utf-8"?>
<!-- Generator: Adobe Illustrator 19.1.0, SVG Export Plug-In . SVG Version: 6.00 Build 0)  -->
<!DOCTYPE svg PUBLIC "-//W3C//DTD SVG 1.1//EN" "http://www.w3.org/Graphics/SVG/1.1/DTD/svg11.dtd">
<svg version="1.1" id="Layer_2" xmlns="http://www.w3.org/2000/svg" xmlns:xlink="http://www.w3.org/1999/xlink" x="0px" y="0px"
	 width="24px" height="24px" viewBox="0 0 24 24" enable-background="new 0 0 24 24" xml:space="preserve">
<path d="M0,8c0,0.6,0.4,1,1,1h12.8c2.2,0,4-1.8,4-4s-1.8-4-4-4c-1.7,0-3.2,1.1-3.8,2.7c-0.2,0.5,0.1,1.1,0.6,1.3
	c0.5,0.2,1.1-0.1,1.3-0.6C12.2,3.5,13,3,13.8,3c1.1,0,2,0.9,2,2s-0.9,2-2,2H1C0.4,7,0,7.4,0,8z"/>
<path d="M7.8,15H1c-0.6,0-1,0.4-1,1s0.4,1,1,1h6.8c1.1,0,2,0.9,2,2s-0.9,2-2,2c-0.8,0-1.6-0.5-1.9-1.3c-0.2-0.5-0.8-0.8-1.3-0.6
	c-0.5,0.2-0.8,0.8-0.6,1.3C4.6,21.9,6.1,23,7.8,23c2.2,0,4-1.8,4-4S10,15,7.8,15z"/>
<path d="M20,11H1c-0.6,0-1,0.4-1,1s0.4,1,1,1h19c1.1,0,2,0.9,2,2s-0.9,2-2,2c-0.8,0-1.6-0.5-1.9-1.3c-0.2-0.5-0.8-0.8-1.3-0.6
	c-0.5,0.2-0.8,0.8-0.6,1.3c0.6,1.6,2.1,2.7,3.8,2.7c2.2,0,4-1.8,4-4C24,12.8,22.2,11,20,11z"/>
</svg>
