<?xml version="1.0" encoding="utf-8"?>
<!-- Generator: Adobe Illustrator 19.1.0, SVG Export Plug-In . SVG Version: 6.00 Build 0)  -->
<!DOCTYPE svg PUBLIC "-//W3C//DTD SVG 1.1//EN" "http://www.w3.org/Graphics/SVG/1.1/DTD/svg11.dtd">
<svg version="1.1" id="Layer_2" xmlns="http://www.w3.org/2000/svg" xmlns:xlink="http://www.w3.org/1999/xlink" x="0px" y="0px"
	 width="24px" height="24px" viewBox="0 0 24 24" enable-background="new 0 0 24 24" xml:space="preserve">
<path d="M23,16H1c-0.6,0-1,0.4-1,1s0.4,1,1,1h22c0.6,0,1-0.4,1-1S23.6,16,23,16z"/>
<path d="M20,20H4c-0.6,0-1,0.4-1,1s0.4,1,1,1h16c0.6,0,1-0.4,1-1S20.6,20,20,20z"/>
<path d="M17,0c-3.2,0-5.9,2.1-6.7,5.1C8.5,5.5,6.9,6.5,6,8.1C5.6,8,5.3,8,5,8c-2.8,0-5,2.2-5,5c0,0.6,0.4,1,1,1s1-0.4,1-1
	c0-1.7,1.3-3,3-3c0.4,0,0.7,0.1,1.1,0.2c0.5,0.2,1.1,0,1.3-0.5C8.1,8.1,9.7,7,11.5,7c1.9,0,3.6,1.2,4.3,3.1c0.1,0.3,0.3,0.5,0.6,0.6
	c0.3,0.1,0.6,0,0.9-0.1c0.5-0.4,1.1-0.5,1.7-0.5c1.7,0,3,1.3,3,3c0,0.6,0.4,1,1,1s1-0.4,1-1c0-1-0.3-2-0.8-2.8C23.7,9.2,24,8.1,24,7
	C24,3.1,20.9,0,17,0z M17.2,8.3c-1-1.8-2.7-3-4.8-3.3C13.2,3.2,14.9,2,17,2c2.8,0,5,2.2,5,5c0,0.6-0.1,1.2-0.3,1.8
	C20.9,8.3,20,8,19,8C18.4,8,17.8,8.1,17.2,8.3z"/>
</svg>
