<?xml version="1.0" encoding="utf-8"?>
<!-- Generator: Adobe Illustrator 19.1.0, SVG Export Plug-In . SVG Version: 6.00 Build 0)  -->
<!DOCTYPE svg PUBLIC "-//W3C//DTD SVG 1.1//EN" "http://www.w3.org/Graphics/SVG/1.1/DTD/svg11.dtd">
<svg version="1.1" id="Layer_2" xmlns="http://www.w3.org/2000/svg" xmlns:xlink="http://www.w3.org/1999/xlink" x="0px" y="0px"
	 width="24px" height="24px" viewBox="0 0 24 24" enable-background="new 0 0 24 24" xml:space="preserve">
<path d="M23,6c-2.8,0-5-2.2-5-5c0-0.6-0.4-1-1-1c-3.2,0-5.9,2.1-6.7,5.1C8.5,5.5,6.9,6.5,6,8.1C5.6,8,5.3,8,5,8c-2.8,0-5,2.2-5,5
	s2.2,5,5,5c0.6,0,1-0.4,1-1s-0.4-1-1-1c-1.7,0-3-1.3-3-3s1.3-3,3-3c0.4,0,0.7,0.1,1.1,0.2c0.5,0.2,1.1,0,1.3-0.5
	C8.1,8.1,9.7,7,11.5,7c1.9,0,3.6,1.2,4.3,3.1c0.1,0.3,0.3,0.5,0.6,0.6c0.3,0.1,0.6,0,0.9-0.1c0.5-0.4,1.1-0.5,1.7-0.5
	c1.7,0,3,1.3,3,3s-1.3,3-3,3c-0.6,0-1,0.4-1,1s0.4,1,1,1c2.8,0,5-2.2,5-5c0-1-0.3-2-0.8-2.8C23.7,9.2,24,8.1,24,7
	C24,6.4,23.6,6,23,6z M17.2,8.3c-1-1.8-2.7-3-4.8-3.3c0.6-1.5,2-2.7,3.7-3c0.5,3,2.8,5.4,5.8,5.8c-0.1,0.3-0.1,0.6-0.3,0.9
	C20.9,8.3,20,8,19,8C18.4,8,17.8,8.1,17.2,8.3z"/>
<path d="M16.3,16.5c-0.3-0.5-0.9-0.6-1.4-0.4l-2,1.1V15c0-0.6-0.4-1-1-1s-1,0.4-1,1v2.3l-2-1.1c-0.5-0.3-1.1-0.1-1.4,0.4
	C7.4,17,7.6,17.6,8,17.9l2,1.1l-2,1.1c-0.5,0.3-0.6,0.9-0.4,1.4C7.9,21.8,8.2,22,8.5,22c0.2,0,0.3,0,0.5-0.1l2-1.1V23
	c0,0.6,0.4,1,1,1s1-0.4,1-1v-2.3l2,1.1c0.2,0.1,0.3,0.1,0.5,0.1c0.3,0,0.7-0.2,0.9-0.5c0.3-0.5,0.1-1.1-0.4-1.4L14,19l2-1.1
	C16.4,17.6,16.6,17,16.3,16.5z"/>
</svg>
