<?xml version="1.0" encoding="utf-8"?>
<!-- Generator: Adobe Illustrator 19.1.0, SVG Export Plug-In . SVG Version: 6.00 Build 0)  -->
<!DOCTYPE svg PUBLIC "-//W3C//DTD SVG 1.1//EN" "http://www.w3.org/Graphics/SVG/1.1/DTD/svg11.dtd">
<svg version="1.1" id="Layer_2" xmlns="http://www.w3.org/2000/svg" xmlns:xlink="http://www.w3.org/1999/xlink" x="0px" y="0px"
	 width="24px" height="24px" viewBox="0 0 24 24" enable-background="new 0 0 24 24" xml:space="preserve">
<path d="M19.9,7.1C19.2,3,15.7,0,11.5,0C7.3,0,3.6,3.2,3.1,7.4C1.3,8.1,0,9.9,0,12c0,2.3,1.5,4.3,3.7,4.8C4.3,17,4.8,16.7,5,16.1
	c0.1-0.5-0.2-1.1-0.7-1.2C2.9,14.6,2,13.4,2,12c0-1.4,0.9-2.6,2.2-2.9C4.7,9,5,8.6,5,8.2C5.2,4.8,8.1,2,11.5,2
	c3.4,0,6.2,2.6,6.5,6.1C18,8.6,18.5,9,19,9c1.7,0,3,1.3,3,3c0,1.4-0.9,2.6-2.3,2.9c-0.5,0.1-0.9,0.7-0.7,1.2c0.1,0.5,0.5,0.7,1,0.7
	c0.1,0,0.2,0,0.3,0c2.2-0.6,3.7-2.6,3.7-4.8C24,9.5,22.2,7.5,19.9,7.1z"/>
<path d="M12,18c0.6,0,1-0.4,1-1v-1c0-0.6-0.4-1-1-1s-1,0.4-1,1v1C11,17.6,11.4,18,12,18z"/>
<path d="M8,15c0.6,0,1-0.4,1-1v-1c0-0.6-0.4-1-1-1s-1,0.4-1,1v1C7,14.6,7.4,15,8,15z"/>
<path d="M16,15c0.6,0,1-0.4,1-1v-1c0-0.6-0.4-1-1-1s-1,0.4-1,1v1C15,14.6,15.4,15,16,15z"/>
<path d="M11,23c0,0.6,0.4,1,1,1s1-0.4,1-1v-1c0-0.6-0.4-1-1-1s-1,0.4-1,1V23z"/>
<path d="M7,20c0,0.6,0.4,1,1,1s1-0.4,1-1v-1c0-0.6-0.4-1-1-1s-1,0.4-1,1V20z"/>
<path d="M15,20c0,0.6,0.4,1,1,1s1-0.4,1-1v-1c0-0.6-0.4-1-1-1s-1,0.4-1,1V20z"/>
</svg>
