<?xml version="1.0" encoding="utf-8"?>
<!-- Generator: Adobe Illustrator 19.1.0, SVG Export Plug-In . SVG Version: 6.00 Build 0)  -->
<!DOCTYPE svg PUBLIC "-//W3C//DTD SVG 1.1//EN" "http://www.w3.org/Graphics/SVG/1.1/DTD/svg11.dtd">
<svg version="1.1" id="Layer_2" xmlns="http://www.w3.org/2000/svg" xmlns:xlink="http://www.w3.org/1999/xlink" x="0px" y="0px"
	 width="24px" height="24px" viewBox="0 0 24 24" enable-background="new 0 0 24 24" xml:space="preserve">
<path d="M9.1,2.7c-0.3-0.3-0.6-0.4-1-0.3C3.3,3.7,0,8.1,0,13c0,6.1,4.9,11,11,11c4.9,0,9.3-3.3,10.6-8.1c0.1-0.3,0-0.7-0.3-1
	c-0.3-0.3-0.6-0.4-1-0.3C19.6,14.9,18.8,15,18,15c-5,0-9-4-9-9c0-0.8,0.1-1.6,0.3-2.4C9.4,3.3,9.3,2.9,9.1,2.7z M18,17
	c0.4,0,0.7,0,1.1-0.1C17.6,20,14.5,22,11,22c-5,0-9-4-9-9c0-3.5,2-6.6,5.1-8.1C7,5.3,7,5.6,7,6C7,12.1,11.9,17,18,17z"/>
<path d="M15,0c-0.6,0-1,0.4-1,1v1h-1c-0.6,0-1,0.4-1,1s0.4,1,1,1h1v1c0,0.6,0.4,1,1,1s1-0.4,1-1V4h1c0.6,0,1-0.4,1-1s-0.4-1-1-1h-1
	V1C16,0.4,15.6,0,15,0z"/>
<path d="M23,8h-1V7c0-0.6-0.4-1-1-1s-1,0.4-1,1v1h-1c-0.6,0-1,0.4-1,1s0.4,1,1,1h1v1c0,0.6,0.4,1,1,1s1-0.4,1-1v-1h1
	c0.6,0,1-0.4,1-1S23.6,8,23,8z"/>
</svg>
