<?xml version="1.0" encoding="utf-8"?>
<!-- Generator: Adobe Illustrator 19.1.0, SVG Export Plug-In . SVG Version: 6.00 Build 0)  -->
<!DOCTYPE svg PUBLIC "-//W3C//DTD SVG 1.1//EN" "http://www.w3.org/Graphics/SVG/1.1/DTD/svg11.dtd">
<svg version="1.1" id="Layer_2" xmlns="http://www.w3.org/2000/svg" xmlns:xlink="http://www.w3.org/1999/xlink" x="0px" y="0px"
	 width="24px" height="24px" viewBox="0 0 24 24" enable-background="new 0 0 24 24" xml:space="preserve">
<path d="M19.2,11.1c0.3-0.7,1-1.1,1.8-1.1c0.6,0,1-0.4,1-1s-0.4-1-1-1c-1.9,0-3.5,1.3-3.9,3.1c-0.6,0.1-1.3,0.3-1.8,0.6
	c-0.1-0.1-0.1-0.3-0.2-0.4C15.4,8.3,18,6,21,6c0.6,0,1-0.4,1-1s-0.4-1-1-1c-3.4,0-6.4,2.2-7.5,5.2C13,8.7,12.4,8.3,11.8,8
	C13.4,4.4,17,2,21,2c0.6,0,1-0.4,1-1s-0.4-1-1-1c-4.8,0-9.2,2.9-11,7.3C9.3,7.1,8.7,7,8,7c-4.4,0-8,3.6-8,8s3.6,8,8,8h10
	c3.3,0,6-2.7,6-6C24,14.1,21.9,11.7,19.2,11.1z M18,21H8c-3.3,0-6-2.7-6-6s2.7-6,6-6c2.7,0,5.1,1.8,5.8,4.5c0.1,0.3,0.3,0.6,0.7,0.7
	c0.3,0.1,0.7,0,0.9-0.2c0.7-0.6,1.6-1,2.6-1c2.2,0,4,1.8,4,4S20.2,21,18,21z"/>
</svg>
