<?xml version="1.0" encoding="utf-8"?>
<!-- Generator: Adobe Illustrator 19.1.0, SVG Export Plug-In . SVG Version: 6.00 Build 0)  -->
<!DOCTYPE svg PUBLIC "-//W3C//DTD SVG 1.1//EN" "http://www.w3.org/Graphics/SVG/1.1/DTD/svg11.dtd">
<svg version="1.1" id="Layer_2" xmlns="http://www.w3.org/2000/svg" xmlns:xlink="http://www.w3.org/1999/xlink" x="0px" y="0px"
	 width="24px" height="24px" viewBox="0 0 24 24" enable-background="new 0 0 24 24" xml:space="preserve">
<path d="M12,0C5.4,0,0,5.4,0,12s5.4,12,12,12s12-5.4,12-12S18.6,0,12,0z M12,22C6.5,22,2,17.5,2,12S6.5,2,12,2s10,4.5,10,10
	S17.5,22,12,22z"/>
<path d="M17.3,9L7.8,6.5c-0.3-0.1-0.7,0-1,0.3C6.5,7,6.4,7.4,6.5,7.8L9,17.3C9.1,17.7,9.5,18,9.9,18c0,0,0,0,0.1,0
	c0.4,0,0.8-0.2,0.9-0.6l1.8-4.6l4.6-1.8c0.4-0.2,0.7-0.6,0.6-1S17.7,9.1,17.3,9z M11.6,11.1c-0.3,0.1-0.5,0.3-0.6,0.6l-0.9,2.2
	L8.9,8.9l4.9,1.3L11.6,11.1z"/>
</svg>
