<?xml version="1.0" encoding="utf-8"?>
<!-- Generator: Adobe Illustrator 19.1.0, SVG Export Plug-In . SVG Version: 6.00 Build 0)  -->
<!DOCTYPE svg PUBLIC "-//W3C//DTD SVG 1.1//EN" "http://www.w3.org/Graphics/SVG/1.1/DTD/svg11.dtd">
<svg version="1.1" id="Layer_1" xmlns="http://www.w3.org/2000/svg" xmlns:xlink="http://www.w3.org/1999/xlink" x="0px" y="0px"
	 width="24px" height="24px" viewBox="0 0 24 24" enable-background="new 0 0 24 24" xml:space="preserve">
<path d="M22,12c0.6,0,1-0.4,1-1c0-5.5-4.5-10-10-10c-0.6,0-1,0.4-1,1v9c0,0.6,0.4,1,1,1H22z M14,3.1c3.6,0.5,6.5,3.3,6.9,6.9H14V3.1
	z"/>
<path d="M10,4C4.5,4,0,8.5,0,14s4.5,10,10,10s10-4.5,10-10c0-0.6-0.4-1-1-1h-8V5C11,4.4,10.6,4,10,4z M17.9,15c-0.5,3.9-3.9,7-7.9,7
	c-4.4,0-8-3.6-8-8c0-4.1,3.1-7.4,7-7.9V14c0,0.6,0.4,1,1,1H17.9z"/>
</svg>
