<?xml version="1.0" encoding="utf-8"?>
<!-- Generator: Adobe Illustrator 19.1.0, SVG Export Plug-In . SVG Version: 6.00 Build 0)  -->
<!DOCTYPE svg PUBLIC "-//W3C//DTD SVG 1.1//EN" "http://www.w3.org/Graphics/SVG/1.1/DTD/svg11.dtd">
<svg version="1.1" id="Layer_1" xmlns="http://www.w3.org/2000/svg" xmlns:xlink="http://www.w3.org/1999/xlink" x="0px" y="0px"
	 width="24px" height="24px" viewBox="0 0 24 24" enable-background="new 0 0 24 24" xml:space="preserve">
<path d="M9,19c0.3,0,0.7,0,1-0.1c0,0,0,0,0,0.1c0,1.7,2.1,3,5,3s5-1.3,5-3c0-0.6-0.2-1.1-0.6-1.5c0.4-0.4,0.6-0.9,0.6-1.5
	c0-0.6-0.2-1.1-0.6-1.5c0.4-0.4,0.6-0.9,0.6-1.5c0-0.6-0.2-1.1-0.6-1.5c0.4-0.4,0.6-0.9,0.6-1.5c0-1.7-2.1-3-5-3c-0.3,0-0.7,0-1,0.1
	c0,0,0,0,0-0.1c0-0.6-0.2-1.1-0.6-1.5C13.8,5.1,14,4.6,14,4c0-1.7-2.1-3-5-3S4,2.3,4,4c0,0.6,0.2,1.1,0.6,1.5C4.2,5.9,4,6.4,4,7
	c0,0.6,0.2,1.1,0.6,1.5C4.2,8.9,4,9.4,4,10c0,0.6,0.2,1.1,0.6,1.5C4.2,11.9,4,12.4,4,13c0,0.6,0.2,1.1,0.6,1.5C4.2,14.9,4,15.4,4,16
	C4,17.7,6.1,19,9,19z M9,7c1,0,1.8-0.2,2.6-0.4C11.9,6.8,12,7,12,7c0,0.2-1.1,1-3,1C8.1,8,7.3,7.8,6.8,7.6c-0.1,0-0.1-0.1-0.2-0.1
	C6.2,7.3,6,7.1,6,7c0-0.1,0.1-0.2,0.4-0.4C7.2,6.8,8,7,9,7z M9,10c0.3,0,0.7,0,1-0.1c0,0,0,0,0,0.1c0,0.3,0.1,0.6,0.2,0.9
	C9.8,11,9.4,11,9,11c-1.9,0-3-0.8-3-1c0-0.1,0.1-0.2,0.4-0.4C7.2,9.8,8,10,9,10z M17.6,12.6c0.3,0.2,0.4,0.4,0.4,0.4
	c0,0.2-1.1,1-3,1c-1.1,0-1.9-0.2-2.4-0.5c0,0-0.1,0-0.1,0C12.2,13.3,12,13.1,12,13c0,0,0.1-0.2,0.4-0.4C13.2,12.8,14,13,15,13
	C16,13,16.8,12.8,17.6,12.6z M18,16c0,0.1-0.2,0.4-0.7,0.6c0,0,0,0-0.1,0C16.7,16.8,16,17,15,17c-1,0-1.7-0.2-2.2-0.4c0,0,0,0,0,0
	C12.2,16.4,12,16.1,12,16c0,0,0.1-0.2,0.4-0.4C13.2,15.8,14,16,15,16c1,0,1.8-0.2,2.6-0.4C17.9,15.8,18,16,18,16z M9,13
	c0.3,0,0.7,0,1-0.1c0,0,0,0,0,0.1c0,0.3,0.1,0.6,0.2,0.9C9.8,14,9.4,14,9,14c-0.9,0-1.7-0.2-2.2-0.4c-0.1,0-0.1-0.1-0.2-0.1
	C6.2,13.3,6,13.1,6,13c0,0,0.1-0.2,0.4-0.4C7.2,12.8,8,13,9,13z M6,16c0-0.1,0.1-0.2,0.4-0.4C7.2,15.8,8,16,9,16c0.3,0,0.7,0,1-0.1
	c0,0,0,0,0,0.1c0,0.3,0.1,0.6,0.2,0.9C9.8,17,9.4,17,9,17C7.1,17,6,16.2,6,16z M15,20c-1.9,0-3-0.8-3-1c0,0,0.1-0.2,0.4-0.4
	C13.2,18.8,14,19,15,19s1.8-0.2,2.6-0.4C17.9,18.8,18,19,18,19C18,19.2,16.9,20,15,20z M18,10c0,0.1-0.2,0.3-0.7,0.5
	c-0.1,0-0.1,0-0.2,0.1C16.7,10.8,15.9,11,15,11c-1,0-1.8-0.2-2.3-0.4c0,0,0,0,0,0C12.3,10.4,12,10.1,12,10c0-0.2,1.1-1,3-1
	S18,9.8,18,10z M9,3c1.9,0,3,0.8,3,1c0,0.1-0.2,0.4-0.7,0.6c0,0,0,0,0,0C10.7,4.8,10,5,9,5C8.1,5,7.3,4.8,6.8,4.6
	c-0.1,0-0.1-0.1-0.2-0.1C6.2,4.3,6,4.1,6,4C6,3.8,7.1,3,9,3z"/>
</svg>
