<?xml version="1.0" encoding="utf-8"?>
<!-- Generator: Adobe Illustrator 19.1.0, SVG Export Plug-In . SVG Version: 6.00 Build 0)  -->
<!DOCTYPE svg PUBLIC "-//W3C//DTD SVG 1.1//EN" "http://www.w3.org/Graphics/SVG/1.1/DTD/svg11.dtd">
<svg version="1.1" id="Layer_1" xmlns="http://www.w3.org/2000/svg" xmlns:xlink="http://www.w3.org/1999/xlink" x="0px" y="0px"
	 width="24px" height="24px" viewBox="0 0 24 24" enable-background="new 0 0 24 24" xml:space="preserve">
<path d="M23,10h-6c-0.6,0-1,0.4-1,1s0.4,1,1,1h5v9H2v-9h3v2c0,0.6,0.4,1,1,1h3c0.3,0,0.5-0.1,0.7-0.3l9-9c0.4-0.4,0.4-1,0-1.4l-3-3
	c-0.4-0.4-1-0.4-1.4,0L5.6,10H1c-0.6,0-1,0.4-1,1v11c0,0.6,0.4,1,1,1h22c0.6,0,1-0.4,1-1V11C24,10.4,23.6,10,23,10z M15,3.4L16.6,5
	l-8,8H7v-1.6L15,3.4z"/>
<path d="M5,18c0,0.6,0.4,1,1,1h12c0.6,0,1-0.4,1-1s-0.4-1-1-1H6C5.4,17,5,17.4,5,18z"/>
</svg>
