<?xml version="1.0" encoding="utf-8"?>
<!-- Generator: Adobe Illustrator 19.1.0, SVG Export Plug-In . SVG Version: 6.00 Build 0)  -->
<!DOCTYPE svg PUBLIC "-//W3C//DTD SVG 1.1//EN" "http://www.w3.org/Graphics/SVG/1.1/DTD/svg11.dtd">
<svg version="1.1" id="Layer_1" xmlns="http://www.w3.org/2000/svg" xmlns:xlink="http://www.w3.org/1999/xlink" x="0px" y="0px"
	 width="24px" height="24px" viewBox="0 0 24 24" enable-background="new 0 0 24 24" xml:space="preserve">
<path d="M3,23h18c0.6,0,1-0.4,1-1s-0.4-1-1-1H3c-0.6,0-1,0.4-1,1S2.4,23,3,23z"/>
<path d="M2.3,18.7C2.5,18.9,2.7,19,3,19s0.5-0.1,0.7-0.3l0.5-0.5c0.3,0.1,0.6,0.2,0.8,0.2c0.6,0,1.2-0.2,1.7-0.7l5.3-5.3l0.3,0.3
	c0.2,0.2,0.5,0.3,0.7,0.3s0.5-0.1,0.7-0.3L19,7.4L19.6,8l-3.3,3.3c-0.4,0.4-0.4,1,0,1.4c0.2,0.2,0.5,0.3,0.7,0.3s0.5-0.1,0.7-0.3
	l4-4c0.4-0.4,0.4-1,0-1.4l-1.4-1.4c0.3-0.6,0.5-1.2,0.5-1.9c0-1-0.4-2-1.1-2.7c-1.4-1.4-4-1.4-5.4,0l-6,6c-0.4,0.4-0.4,1,0,1.4
	L8.6,9l-5.3,5.3C2.6,15,2.4,16,2.7,16.8l-0.5,0.5C1.9,17.7,1.9,18.3,2.3,18.7z M15.7,2.7c0.7-0.7,1.9-0.7,2.6,0s0.7,1.9,0,2.6
	L13,10.6L10.4,8L15.7,2.7z M4.7,15.7l5.3-5.3l0.6,0.6l-5.3,5.3c-0.2,0.2-0.4,0.2-0.6,0C4.5,16.1,4.5,15.9,4.7,15.7z"/>
</svg>
