<?xml version="1.0" encoding="utf-8"?>
<!-- Generator: Adobe Illustrator 19.1.0, SVG Export Plug-In . SVG Version: 6.00 Build 0)  -->
<!DOCTYPE svg PUBLIC "-//W3C//DTD SVG 1.1//EN" "http://www.w3.org/Graphics/SVG/1.1/DTD/svg11.dtd">
<svg version="1.1" id="Layer_1" xmlns="http://www.w3.org/2000/svg" xmlns:xlink="http://www.w3.org/1999/xlink" x="0px" y="0px"
	 width="24px" height="24px" viewBox="0 0 24 24" enable-background="new 0 0 24 24" xml:space="preserve">
<path d="M20.3,10.7c0.2,0.2,0.5,0.3,0.7,0.3s0.5-0.1,0.7-0.3c0.4-0.4,0.4-1,0-1.4l-7-7c-0.4-0.4-1-0.4-1.4,0s-0.4,1,0,1.4l1.1,1.1
	l-9.2,5L3.7,8.3c-0.4-0.4-1-0.4-1.4,0s-0.4,1,0,1.4l2,2c0,0,0,0,0,0L7.6,15l-5.3,5.3c-0.4,0.4-0.4,1,0,1.4C2.5,21.9,2.7,22,3,22
	s0.5-0.1,0.7-0.3L9,16.4l5.3,5.3c0.2,0.2,0.5,0.3,0.7,0.3s0.5-0.1,0.7-0.3c0.4-0.4,0.4-1,0-1.4l-1.5-1.5l5-9.2L20.3,10.7z
	 M12.8,17.3l-6.1-6.1l9.2-5l1.9,1.9L12.8,17.3z"/>
</svg>
