<?xml version="1.0" encoding="utf-8"?>
<!-- Generator: Adobe Illustrator 19.1.0, SVG Export Plug-In . SVG Version: 6.00 Build 0)  -->
<!DOCTYPE svg PUBLIC "-//W3C//DTD SVG 1.1//EN" "http://www.w3.org/Graphics/SVG/1.1/DTD/svg11.dtd">
<svg version="1.1" id="Layer_1" xmlns="http://www.w3.org/2000/svg" xmlns:xlink="http://www.w3.org/1999/xlink" x="0px" y="0px"
	 width="24px" height="24px" viewBox="0 0 24 24" enable-background="new 0 0 24 24" xml:space="preserve">
<path d="M11.3,22.7c0.2,0.2,0.5,0.3,0.7,0.3s0.5-0.1,0.7-0.3l5-5c0.3-0.3,0.4-0.6,0.3-1l-0.4-1.6l2.2-2.5c0.3-0.4,0.3-0.9,0-1.3
	l-4.6-5.5l1.7-3.4c0.2-0.3,0.1-0.7,0-1C16.7,1.2,16.3,1,16,1H8C7.7,1,7.3,1.2,7.1,1.5C7,1.8,7,2.1,7.1,2.4l1.8,3.7L6,16.7
	c-0.1,0.3,0,0.7,0.3,1L11.3,22.7z M16.9,12.9l-0.7-2.7l1.5,1.8L16.9,12.9z M14.4,3l-1,2h-2.8l-1-2H14.4z M10.8,7h2.5l2.6,9.7
	L12,20.6l-3.9-3.9L10.8,7z"/>
</svg>
