<?xml version="1.0" encoding="utf-8"?>
<!-- Generator: Adobe Illustrator 19.1.0, SVG Export Plug-In . SVG Version: 6.00 Build 0)  -->
<!DOCTYPE svg PUBLIC "-//W3C//DTD SVG 1.1//EN" "http://www.w3.org/Graphics/SVG/1.1/DTD/svg11.dtd">
<svg version="1.1" id="Layer_1" xmlns="http://www.w3.org/2000/svg" xmlns:xlink="http://www.w3.org/1999/xlink" x="0px" y="0px"
	 width="24px" height="24px" viewBox="0 0 24 24" enable-background="new 0 0 24 24" xml:space="preserve">
<path d="M12,0C5.4,0,0,5.4,0,12s5.4,12,12,12s12-5.4,12-12S18.6,0,12,0z M12,22C6.5,22,2,17.5,2,12S6.5,2,12,2s10,4.5,10,10
	S17.5,22,12,22z"/>
<path d="M15.4,8.8c0.4,0.3,1.1,0.2,1.4-0.2c0.3-0.4,0.2-1.1-0.2-1.4C15.6,6.4,14.3,6,13,6c-2.2,0-4.1,1.2-5.2,3H7c-0.6,0-1,0.4-1,1
	s0.4,1,1,1h0.1C7,11.3,7,11.7,7,12c-0.6,0-1,0.4-1,1s0.4,1,1,1h0.4c0.8,2.3,3,4,5.6,4c1.3,0,2.6-0.4,3.6-1.2c0.4-0.3,0.5-1,0.2-1.4
	c-0.3-0.4-1-0.5-1.4-0.2C14.7,15.7,13.9,16,13,16c-1.5,0-2.7-0.8-3.4-2H13c0.6,0,1-0.4,1-1s-0.4-1-1-1H9c0-0.3,0.1-0.7,0.1-1H13
	c0.6,0,1-0.4,1-1s-0.4-1-1-1h-2.6C11.1,8.4,12,8,13,8C13.9,8,14.7,8.3,15.4,8.8z"/>
</svg>
