<?xml version="1.0" encoding="utf-8"?>
<!-- Generator: Adobe Illustrator 19.1.0, SVG Export Plug-In . SVG Version: 6.00 Build 0)  -->
<!DOCTYPE svg PUBLIC "-//W3C//DTD SVG 1.1//EN" "http://www.w3.org/Graphics/SVG/1.1/DTD/svg11.dtd">
<svg version="1.1" id="Layer_1" xmlns="http://www.w3.org/2000/svg" xmlns:xlink="http://www.w3.org/1999/xlink" x="0px" y="0px"
	 width="24px" height="24px" viewBox="0 0 24 24" enable-background="new 0 0 24 24" xml:space="preserve">
<path d="M5,7.8l-2,11c0,0,0,0.1,0,0.1c0,0,0,0,0,0.1c0,0.1,0,0.2,0.1,0.3c0,0,0,0,0,0.1c0,0.1,0.1,0.2,0.2,0.3c0,0,0,0,0,0
	c0,0,0,0,0,0c0,0,0.1,0.1,0.1,0.1c0.1,0,0.1,0.1,0.2,0.1C3.7,20,3.9,20,4,20c0.1,0,0.1,0,0.2,0l11-2c0.3-0.1,0.6-0.3,0.7-0.5
	l2.4-4.8l0,0c0.2,0.2,0.5,0.3,0.7,0.3s0.5-0.1,0.7-0.3l2-2c0.4-0.4,0.4-1,0-1.4l-8-8c-0.4-0.4-1-0.4-1.4,0l-2,2
	c-0.4,0.4-0.4,1,0,1.4l0,0L5.6,7.1C5.3,7.2,5.1,7.5,5,7.8z M13,3.4l6.6,6.6L19,10.6L12.4,4L13,3.4z M11.8,6.2l5,5l-2.5,4.9l-7.4,1.3
	l2.7-2.8c0.4,0.2,0.9,0.3,1.3,0.3c0.8,0,1.5-0.3,2.1-0.9v0c0.6-0.6,0.9-1.3,0.9-2.1s-0.3-1.6-0.9-2.1C12,8.7,10,8.7,8.9,9.9
	C8.3,10.4,8,11.2,8,12c0,0.4,0.1,0.9,0.3,1.3L5.6,16l1.3-7.3L11.8,6.2z M10.3,12.7C10.1,12.5,10,12.3,10,12s0.1-0.5,0.3-0.7
	c0.2-0.2,0.5-0.3,0.7-0.3s0.5,0.1,0.7,0.3c0.2,0.2,0.3,0.4,0.3,0.7s-0.1,0.5-0.3,0.7c0,0,0,0,0,0C11.3,13.1,10.7,13.1,10.3,12.7z"/>
<path d="M4,23h16c0.6,0,1-0.4,1-1s-0.4-1-1-1H4c-0.6,0-1,0.4-1,1S3.4,23,4,23z"/>
</svg>
