<?xml version="1.0" encoding="utf-8"?>
<!-- Generator: Adobe Illustrator 19.1.0, SVG Export Plug-In . SVG Version: 6.00 Build 0)  -->
<!DOCTYPE svg PUBLIC "-//W3C//DTD SVG 1.1//EN" "http://www.w3.org/Graphics/SVG/1.1/DTD/svg11.dtd">
<svg version="1.1" id="Layer_1" xmlns="http://www.w3.org/2000/svg" xmlns:xlink="http://www.w3.org/1999/xlink" x="0px" y="0px"
	 width="24px" height="24px" viewBox="0 0 24 24" enable-background="new 0 0 24 24" xml:space="preserve">
<path d="M2,14c0,0.6,0.4,1,1,1h1.5c1.3,4.1,5.1,7,9.5,7c2.2,0,4.3-0.7,6-2c0.4-0.3,0.5-1,0.2-1.4c-0.3-0.4-1-0.5-1.4-0.2
	c-1.4,1-3.1,1.6-4.8,1.6c-3.3,0-6.2-2.1-7.4-5H13c0.6,0,1-0.4,1-1s-0.4-1-1-1H6.1C6,12.7,6,12.3,6,12s0-0.7,0.1-1H13
	c0.6,0,1-0.4,1-1s-0.4-1-1-1H6.6c1.2-2.9,4.1-5,7.4-5c1.7,0,3.4,0.6,4.8,1.6c0.4,0.3,1.1,0.2,1.4-0.2C20.5,5,20.4,4.3,20,4
	c-1.7-1.3-3.8-2-6-2C9.5,2,5.7,4.9,4.5,9H3c-0.6,0-1,0.4-1,1s0.4,1,1,1h1.1C4,11.3,4,11.7,4,12s0,0.7,0.1,1H3C2.4,13,2,13.4,2,14z"
	/>
</svg>
