<?xml version="1.0" encoding="utf-8"?>
<!-- Generator: Adobe Illustrator 19.1.0, SVG Export Plug-In . SVG Version: 6.00 Build 0)  -->
<!DOCTYPE svg PUBLIC "-//W3C//DTD SVG 1.1//EN" "http://www.w3.org/Graphics/SVG/1.1/DTD/svg11.dtd">
<svg version="1.1" id="Layer_1" xmlns="http://www.w3.org/2000/svg" xmlns:xlink="http://www.w3.org/1999/xlink" x="0px" y="0px"
	 width="24px" height="24px" viewBox="0 0 24 24" enable-background="new 0 0 24 24" xml:space="preserve">
<path d="M23.5,7.1c-0.3-0.2-0.7-0.1-1,0.1L17,11.1V8c0-0.4-0.2-0.7-0.5-0.9c-0.3-0.2-0.7-0.2-1,0l-7.1,4.5L5.9,7.5
	C5.7,7.2,5.4,7,5,7H1C0.4,7,0,7.4,0,8v15c0,0.6,0.4,1,1,1h22c0.6,0,1-0.4,1-1V8C24,7.6,23.8,7.3,23.5,7.1z M22,22H2V9h2.4l2.7,4.5
	c0.1,0.2,0.4,0.4,0.6,0.5C8,14,8.3,14,8.5,13.8l6.5-4V13c0,0.4,0.2,0.7,0.5,0.9c0.3,0.2,0.7,0.1,1-0.1L22,9.9V22z"/>
<path d="M16,17v3c0,0.6,0.4,1,1,1h3c0.6,0,1-0.4,1-1v-3c0-0.6-0.4-1-1-1h-3C16.4,16,16,16.4,16,17z M18,18h1v1h-1V18z"/>
<path d="M14,16h-3c-0.6,0-1,0.4-1,1v3c0,0.6,0.4,1,1,1h3c0.6,0,1-0.4,1-1v-3C15,16.4,14.6,16,14,16z M13,19h-1v-1h1V19z"/>
<path d="M1,6h13c0.5,0,1-0.4,1-0.9C15,5,15,5,15,5c0-2.2-1.8-4-4-4c-0.8,0-1.6,0.3-2.3,0.7C7.8,0.6,6.5,0,5,0C2.2,0,0,2.2,0,5
	C0,5.6,0.4,6,1,6z M9.4,3.8C9.8,3.3,10.4,3,11,3c0.7,0,1.4,0.4,1.7,1H9.2C9.3,3.9,9.3,3.9,9.4,3.8z M5,2c1.1,0,2.2,0.6,2.7,1.7
	C7.7,3.8,7.8,3.9,7.9,4H2.2C2.6,2.8,3.7,2,5,2z"/>
</svg>
