<?xml version="1.0" encoding="utf-8"?>
<!-- Generator: Adobe Illustrator 19.1.0, SVG Export Plug-In . SVG Version: 6.00 Build 0)  -->
<!DOCTYPE svg PUBLIC "-//W3C//DTD SVG 1.1//EN" "http://www.w3.org/Graphics/SVG/1.1/DTD/svg11.dtd">
<svg version="1.1" id="Layer_1" xmlns="http://www.w3.org/2000/svg" xmlns:xlink="http://www.w3.org/1999/xlink" x="0px" y="0px"
	 width="24px" height="24px" viewBox="0 0 24 24" enable-background="new 0 0 24 24" xml:space="preserve">
<path d="M23,16h-1V7c0-1.7-1.3-3-3-3H5C3.3,4,2,5.3,2,7v9H1c-0.6,0-1,0.4-1,1c0,1.7,1.3,3,3,3h18c1.7,0,3-1.3,3-3
	C24,16.4,23.6,16,23,16z M4,7c0-0.6,0.4-1,1-1h14c0.6,0,1,0.4,1,1v9H4V7z"/>
<path d="M12,7c-0.6,0-1,0.4-1,1v6c0,0.6,0.4,1,1,1s1-0.4,1-1V8C13,7.4,12.6,7,12,7z"/>
<path d="M16,9c-0.6,0-1,0.4-1,1v4c0,0.6,0.4,1,1,1s1-0.4,1-1v-4C17,9.4,16.6,9,16,9z"/>
<path d="M8,11c-0.6,0-1,0.4-1,1v2c0,0.6,0.4,1,1,1s1-0.4,1-1v-2C9,11.4,8.6,11,8,11z"/>
</svg>
