<?xml version="1.0" encoding="utf-8"?>
<!-- Generator: Adobe Illustrator 19.1.0, SVG Export Plug-In . SVG Version: 6.00 Build 0)  -->
<!DOCTYPE svg PUBLIC "-//W3C//DTD SVG 1.1//EN" "http://www.w3.org/Graphics/SVG/1.1/DTD/svg11.dtd">
<svg version="1.1" id="Layer_1" xmlns="http://www.w3.org/2000/svg" xmlns:xlink="http://www.w3.org/1999/xlink" x="0px" y="0px"
	 width="24px" height="24px" viewBox="0 0 24 24" enable-background="new 0 0 24 24" xml:space="preserve">
<path d="M23,11h-1V5c0-0.6-0.4-1-1-1h-4V1c0-0.6-0.4-1-1-1H3C1.3,0,0,1.3,0,3v17c0,2.2,1.8,4,4,4h17c0.6,0,1-0.4,1-1v-6h1
	c0.6,0,1-0.4,1-1v-4C24,11.4,23.6,11,23,11z M3,2h12v2H3C2.4,4,2,3.6,2,3S2.4,2,3,2z M20,19h-1c-0.6,0-1,0.4-1,1s0.4,1,1,1h1v1H4
	c-0.7,0-1.4-0.4-1.7-1H3c0.6,0,1-0.4,1-1s-0.4-1-1-1H2V9h1c0.6,0,1-0.4,1-1S3.6,7,3,7H2V5.8c0.1,0,0.2,0,0.3,0.1c0.1,0,0.1,0,0.2,0
	C2.6,6,2.8,6,3,6h17v1h-1c-0.6,0-1,0.4-1,1s0.4,1,1,1h1v2h-2c-1.7,0-3,1.3-3,3s1.3,3,3,3h2V19z M22,15h-4c-0.6,0-1-0.4-1-1
	s0.4-1,1-1h4V15z"/>
<path d="M9,7H7C6.4,7,6,7.4,6,8s0.4,1,1,1h2c0.6,0,1-0.4,1-1S9.6,7,9,7z"/>
<path d="M13,9h2c0.6,0,1-0.4,1-1s-0.4-1-1-1h-2c-0.6,0-1,0.4-1,1S12.4,9,13,9z"/>
<path d="M9,19H7c-0.6,0-1,0.4-1,1s0.4,1,1,1h2c0.6,0,1-0.4,1-1S9.6,19,9,19z"/>
<path d="M15,19h-2c-0.6,0-1,0.4-1,1s0.4,1,1,1h2c0.6,0,1-0.4,1-1S15.6,19,15,19z"/>
</svg>
