<?xml version="1.0" encoding="utf-8"?>
<!-- Generator: Adobe Illustrator 19.1.0, SVG Export Plug-In . SVG Version: 6.00 Build 0)  -->
<!DOCTYPE svg PUBLIC "-//W3C//DTD SVG 1.1//EN" "http://www.w3.org/Graphics/SVG/1.1/DTD/svg11.dtd">
<svg version="1.1" id="Layer_1" xmlns="http://www.w3.org/2000/svg" xmlns:xlink="http://www.w3.org/1999/xlink" x="0px" y="0px"
	 width="24px" height="24px" viewBox="0 0 24 24" enable-background="new 0 0 24 24" xml:space="preserve">
<path d="M23,14H9H2c-0.3,0-0.6,0.1-0.8,0.4C1,14.6,1,14.9,1,15.2c0,0.2,1,4.3,7,4.7v3c0,0.6,0.4,1,1,1h11c0.6,0,1-0.4,1-1
	c0-1.1,0.9-2,2-2c0.6,0,1-0.4,1-1v-5C24,14.4,23.6,14,23,14z M3.6,16H8v2C5.6,17.7,4.3,16.8,3.6,16z M22,19.1
	c-1.4,0.4-2.5,1.5-2.9,2.9H10v-6h12V19.1z"/>
<path d="M14.3,11.7c0.2,0.2,0.5,0.3,0.7,0.3s0.5-0.1,0.7-0.3l1.3-1.3l2.3,2.3c0.2,0.2,0.5,0.3,0.7,0.3s0.5-0.1,0.7-0.3l2-2
	c0.4-0.4,0.4-1,0-1.4L20.4,7l1.3-1.3c0.4-0.4,0.4-1,0-1.4l-3-3c-0.4-0.4-1-0.4-1.4,0l-6,6c-0.4,0.4-0.4,1,0,1.4L14.3,11.7z M20.6,10
	L20,10.6L18.4,9L19,8.4L20.6,10z M18,3.4L19.6,5L15,9.6L13.4,8L18,3.4z"/>
<path d="M5,11c-0.6,0-1,0.4-1,1s0.4,1,1,1h2c0.6,0,1-0.4,1-1s-0.4-1-1-1H5z"/>
<path d="M8.9,9.9c0.4-0.4,0.4-1,0-1.4L7.5,7.1c-0.4-0.4-1-0.4-1.4,0s-0.4,1,0,1.4l1.4,1.4c0.2,0.2,0.5,0.3,0.7,0.3S8.7,10.1,8.9,9.9
	z"/>
</svg>
