<?xml version="1.0" encoding="utf-8"?>
<!-- Generator: Adobe Illustrator 19.1.0, SVG Export Plug-In . SVG Version: 6.00 Build 0)  -->
<!DOCTYPE svg PUBLIC "-//W3C//DTD SVG 1.1//EN" "http://www.w3.org/Graphics/SVG/1.1/DTD/svg11.dtd">
<svg version="1.1" id="Layer_1" xmlns="http://www.w3.org/2000/svg" xmlns:xlink="http://www.w3.org/1999/xlink" x="0px" y="0px"
	 width="24px" height="24px" viewBox="0 0 24 24" enable-background="new 0 0 24 24" xml:space="preserve">
<path d="M11,23c6.1,0,11-4.9,11-11c0-0.6-0.4-1-1-1s-1,0.4-1,1c0,5-4,9-9,9s-9-4-9-9s4-9,9-9c2.8,0,5.3,1.3,7,3.3l-0.8-0.1
	c-0.5-0.1-1.1,0.3-1.1,0.9s0.3,1.1,0.9,1.1l3,0.4c0,0,0,0,0,0c0.2,0,0.4,0,0.6-0.1c0.2-0.1,0.3-0.2,0.4-0.4c0,0,0,0,0,0
	C20.9,8,21,7.9,21,7.8c0,0,0,0,0-0.1l0.5-3.6c0.1-0.5-0.3-1.1-0.9-1.1c-0.5-0.1-1.1,0.3-1.1,0.9l-0.1,1C17.3,2.4,14.3,1,11,1
	C4.9,1,0,5.9,0,12S4.9,23,11,23z"/>
<path d="M10,7v4H6c-0.6,0-1,0.4-1,1s0.4,1,1,1h5c0.6,0,1-0.4,1-1V7c0-0.6-0.4-1-1-1S10,6.4,10,7z"/>
</svg>
