<?xml version="1.0" encoding="utf-8"?>
<!-- Generator: Adobe Illustrator 19.1.0, SVG Export Plug-In . SVG Version: 6.00 Build 0)  -->
<!DOCTYPE svg PUBLIC "-//W3C//DTD SVG 1.1//EN" "http://www.w3.org/Graphics/SVG/1.1/DTD/svg11.dtd">
<svg version="1.1" id="Layer_1" xmlns="http://www.w3.org/2000/svg" xmlns:xlink="http://www.w3.org/1999/xlink" x="0px" y="0px"
	 width="24px" height="24px" viewBox="0 0 24 24" enable-background="new 0 0 24 24" xml:space="preserve">
<path d="M10,12c-0.6,0-1,0.4-1,1v9c0,0.6,0.4,1,1,1h4c0.6,0,1-0.4,1-1v-9c0-0.6-0.4-1-1-1H10z M13,21h-2v-7h2V21z"/>
<path d="M1,17v5c0,0.6,0.4,1,1,1h4c0.6,0,1-0.4,1-1v-5c0-0.6-0.4-1-1-1H2C1.4,16,1,16.4,1,17z M3,18h2v3H3V18z"/>
<path d="M18,23h4c0.6,0,1-0.4,1-1V9c0-0.6-0.4-1-1-1h-4c-0.6,0-1,0.4-1,1v13C17,22.6,17.4,23,18,23z M19,10h2v11h-2V10z"/>
<path d="M18,6c0,0.6,0.4,1,1,1s1-0.4,1-1V2c0-0.1,0-0.3-0.1-0.4c-0.1-0.2-0.3-0.4-0.5-0.5C19.3,1,19.1,1,19,1h-4c-0.6,0-1,0.4-1,1
	s0.4,1,1,1h1.6L12,7.6L9.7,5.3c-0.4-0.4-1-0.4-1.4,0l-4,4c-0.4,0.4-0.4,1,0,1.4C4.5,10.9,4.7,11,5,11s0.5-0.1,0.7-0.3L9,7.4l2.3,2.3
	c0.4,0.4,1,0.4,1.4,0L18,4.4V6z"/>
</svg>
