<?xml version="1.0" encoding="utf-8"?>
<!-- Generator: Adobe Illustrator 19.1.0, SVG Export Plug-In . SVG Version: 6.00 Build 0)  -->
<!DOCTYPE svg PUBLIC "-//W3C//DTD SVG 1.1//EN" "http://www.w3.org/Graphics/SVG/1.1/DTD/svg11.dtd">
<svg version="1.1" id="Layer_1" xmlns="http://www.w3.org/2000/svg" xmlns:xlink="http://www.w3.org/1999/xlink" x="0px" y="0px"
	 width="24px" height="24px" viewBox="0 0 24 24" enable-background="new 0 0 24 24" xml:space="preserve">
<path d="M1,24h3h13c1.7,0,3-1.3,3-3V11c0,0.6,0.4,1,1,1s1-0.4,1-1V9c0-0.6-0.4-1-1-1s-1,0.4-1,1V6c0,0.6,0.4,1,1,1s1-0.4,1-1V4
	c0-0.6-0.4-1-1-1s-1,0.4-1,1V3c0-1.7-1.3-3-3-3H4H1C0.4,0,0,0.4,0,1v22C0,23.6,0.4,24,1,24z M18,3v18c0,0.6-0.4,1-1,1H5V2h12
	C17.6,2,18,2.4,18,3z M2,2h1v20H2V2z"/>
<path d="M8,10h7c0.6,0,1-0.4,1-1V5c0-0.6-0.4-1-1-1H8C7.4,4,7,4.4,7,5v4C7,9.6,7.4,10,8,10z M9,6h5v2H9V6z"/>
<path d="M8,13h7c0.6,0,1-0.4,1-1s-0.4-1-1-1H8c-0.6,0-1,0.4-1,1S7.4,13,8,13z"/>
<path d="M11,14H8c-0.6,0-1,0.4-1,1s0.4,1,1,1h3c0.6,0,1-0.4,1-1S11.6,14,11,14z"/>
</svg>
