<?xml version="1.0" encoding="utf-8"?>
<!-- Generator: Adobe Illustrator 19.1.0, SVG Export Plug-In . SVG Version: 6.00 Build 0)  -->
<!DOCTYPE svg PUBLIC "-//W3C//DTD SVG 1.1//EN" "http://www.w3.org/Graphics/SVG/1.1/DTD/svg11.dtd">
<svg version="1.1" id="Layer_1" xmlns="http://www.w3.org/2000/svg" xmlns:xlink="http://www.w3.org/1999/xlink" x="0px" y="0px"
	 width="24px" height="24px" viewBox="0 0 24 24" enable-background="new 0 0 24 24" xml:space="preserve">
<path d="M17,3c0-0.6-0.4-1-1-1h-1.2c-0.4-1.2-1.5-2-2.8-2S9.6,0.8,9.2,2H8C7.4,2,7,2.4,7,3H4C3.4,3,3,3.4,3,4v19c0,0.6,0.4,1,1,1h16
	c0.6,0,1-0.4,1-1V4c0-0.6-0.4-1-1-1H17z M10,4c0.6,0,1-0.4,1-1c0-0.6,0.4-1,1-1s1,0.4,1,1c0,0.6,0.4,1,1,1h1v2H9V4H10z M19,22H5V5h2
	v2c0,0.6,0.4,1,1,1h8c0.6,0,1-0.4,1-1V5h2V22z"/>
<path d="M16,10H8c-0.6,0-1,0.4-1,1s0.4,1,1,1h8c0.6,0,1-0.4,1-1S16.6,10,16,10z"/>
<path d="M16,14H8c-0.6,0-1,0.4-1,1s0.4,1,1,1h8c0.6,0,1-0.4,1-1S16.6,14,16,14z"/>
<path d="M11,18H8c-0.6,0-1,0.4-1,1s0.4,1,1,1h3c0.6,0,1-0.4,1-1S11.6,18,11,18z"/>
</svg>
