<?xml version="1.0" encoding="utf-8"?>
<!-- Generator: Adobe Illustrator 19.1.0, SVG Export Plug-In . SVG Version: 6.00 Build 0)  -->
<!DOCTYPE svg PUBLIC "-//W3C//DTD SVG 1.1//EN" "http://www.w3.org/Graphics/SVG/1.1/DTD/svg11.dtd">
<svg version="1.1" id="Layer_1" xmlns="http://www.w3.org/2000/svg" xmlns:xlink="http://www.w3.org/1999/xlink" x="0px" y="0px"
	 width="24px" height="24px" viewBox="0 0 24 24" enable-background="new 0 0 24 24" xml:space="preserve">
<path d="M19,13c-0.6,0-1.1,0.1-1.6,0.3l-2.1-3.6C16.3,8.8,17,7.5,17,6c0-2.8-2.2-5-5-5S7,3.2,7,6c0,1.5,0.7,2.8,1.7,3.7l-2.1,3.6
	C6.1,13.1,5.6,13,5,13c-2.8,0-5,2.2-5,5s2.2,5,5,5c2.4,0,4.4-1.7,4.9-4h4.2c0.5,2.3,2.5,4,4.9,4c2.8,0,5-2.2,5-5S21.8,13,19,13z
	 M12,3c1.7,0,3,1.3,3,3s-1.3,3-3,3S9,7.7,9,6S10.3,3,12,3z M10.4,10.7c0.5,0.2,1,0.3,1.6,0.3c0.6,0,1.1-0.1,1.6-0.3l2.1,3.6
	c-0.8,0.7-1.4,1.6-1.6,2.7H9.9c-0.2-1.1-0.8-2-1.6-2.7L10.4,10.7z M5,21c-1.7,0-3-1.3-3-3s1.3-3,3-3s3,1.3,3,3S6.7,21,5,21z M19,21
	c-1.7,0-3-1.3-3-3s1.3-3,3-3s3,1.3,3,3S20.7,21,19,21z"/>
</svg>
