<?xml version="1.0" encoding="utf-8"?>
<!-- Generator: Adobe Illustrator 19.1.0, SVG Export Plug-In . SVG Version: 6.00 Build 0)  -->
<!DOCTYPE svg PUBLIC "-//W3C//DTD SVG 1.1//EN" "http://www.w3.org/Graphics/SVG/1.1/DTD/svg11.dtd">
<svg version="1.1" id="Layer_1" xmlns="http://www.w3.org/2000/svg" xmlns:xlink="http://www.w3.org/1999/xlink" x="0px" y="0px"
	 width="24px" height="24px" viewBox="0 0 24 24" enable-background="new 0 0 24 24" xml:space="preserve">
<path d="M23,4h-6V2c0-0.6-0.4-1-1-1H8C7.4,1,7,1.4,7,2v2H1C0.4,4,0,4.4,0,5v11v6c0,0.6,0.4,1,1,1h22c0.6,0,1-0.4,1-1v-6V5
	C24,4.4,23.6,4,23,4z M22,15h-1v-1c0-0.6-0.4-1-1-1h-1V6h3V15z M17,6v7h-1c-0.6,0-1,0.4-1,1v1H9v-1c0-0.6-0.4-1-1-1H7V6H17z M7,15
	v0.8c0,0.1,0,0.1,0,0.2s0,0.1,0,0.2V17H5v-2H7z M8,19c0.6,0,1-0.4,1-1v-1h6v1c0,0.6,0.4,1,1,1h1v2H7v-2H8z M17,17v-2h2v0.8
	c0,0.1,0,0.1,0,0.2s0,0.1,0,0.2V17H17z M9,3h6v1H9V3z M2,6h3v7H4c-0.6,0-1,0.4-1,1v1H2V6z M2,17h1v1c0,0.6,0.4,1,1,1h1v2H2V17z
	 M19,21v-2h1c0.6,0,1-0.4,1-1v-1h1v4H19z"/>
</svg>
