<?xml version="1.0" encoding="utf-8"?>
<!-- Generator: Adobe Illustrator 19.1.0, SVG Export Plug-In . SVG Version: 6.00 Build 0)  -->
<!DOCTYPE svg PUBLIC "-//W3C//DTD SVG 1.1//EN" "http://www.w3.org/Graphics/SVG/1.1/DTD/svg11.dtd">
<svg version="1.1" id="Layer_1" xmlns="http://www.w3.org/2000/svg" xmlns:xlink="http://www.w3.org/1999/xlink" x="0px" y="0px"
	 width="24px" height="24px" viewBox="0 0 24 24" enable-background="new 0 0 24 24" xml:space="preserve">
<path d="M20.9,14.7C20.8,14.3,20.4,14,20,14h-2.3l-1.8-5.3C15.8,8.3,15.4,8,15,8H9C8.6,8,8.2,8.3,8.1,8.7L6.3,14H4
	c-0.4,0-0.8,0.3-0.9,0.7l-2,6C0.9,21,1,21.3,1.2,21.6S1.7,22,2,22h10h10c0.3,0,0.6-0.2,0.8-0.4s0.2-0.6,0.1-0.9L20.9,14.7z M9.7,10
	h4.6l1.3,4H14h-4H8.4L9.7,10z M12,17.8L11.4,16h1.2L12,17.8z M3.4,20l1.3-4H7h2.3l1.3,4H3.4z M13.4,20l1.3-4H17h2.3l1.3,4H13.4z"/>
<path d="M5,12c0-0.6-0.4-1-1-1H1c-0.6,0-1,0.4-1,1s0.4,1,1,1h3C4.6,13,5,12.6,5,12z"/>
<path d="M6.3,7.3c0.3,0,0.5-0.1,0.7-0.3c0.4-0.4,0.4-1,0-1.4L4.9,3.5c-0.4-0.4-1-0.4-1.4,0s-0.4,1,0,1.4L5.6,7
	C5.8,7.2,6.1,7.3,6.3,7.3z"/>
<path d="M13,4V1c0-0.6-0.4-1-1-1s-1,0.4-1,1v3c0,0.6,0.4,1,1,1S13,4.6,13,4z"/>
<path d="M18.4,7l2.1-2.1c0.4-0.4,0.4-1,0-1.4s-1-0.4-1.4,0l-2.1,2.1c-0.4,0.4-0.4,1,0,1.4c0.2,0.2,0.5,0.3,0.7,0.3S18.2,7.2,18.4,7z
	"/>
<path d="M23,11h-3c-0.6,0-1,0.4-1,1s0.4,1,1,1h3c0.6,0,1-0.4,1-1S23.6,11,23,11z"/>
</svg>
