<?xml version="1.0" encoding="utf-8"?>
<!-- Generator: Adobe Illustrator 19.1.0, SVG Export Plug-In . SVG Version: 6.00 Build 0)  -->
<!DOCTYPE svg PUBLIC "-//W3C//DTD SVG 1.1//EN" "http://www.w3.org/Graphics/SVG/1.1/DTD/svg11.dtd">
<svg version="1.1" id="Layer_1" xmlns="http://www.w3.org/2000/svg" xmlns:xlink="http://www.w3.org/1999/xlink" x="0px" y="0px"
	 width="24px" height="24px" viewBox="0 0 24 24" enable-background="new 0 0 24 24" xml:space="preserve">
<path d="M8,11c-0.6,0-1,0.4-1,1v9c0,0.6,0.4,1,1,1h4c0.6,0,1-0.4,1-1v-9c0-0.6-0.4-1-1-1H8z M11,20H9v-7h2V20z"/>
<path d="M1,22h4c0.6,0,1-0.4,1-1v-5c0-0.6-0.4-1-1-1H1c-0.6,0-1,0.4-1,1v5C0,21.6,0.4,22,1,22z M2,17h2v3H2V17z"/>
<path d="M15,22h4c0.6,0,1-0.4,1-1V9h1c0.4,0,0.7-0.2,0.9-0.6c0.2-0.3,0.1-0.8-0.1-1.1l-4-5c-0.4-0.5-1.2-0.5-1.6,0l-4,5
	c-0.2,0.3-0.3,0.7-0.1,1.1C12.3,8.8,12.6,9,13,9h1v12C14,21.6,14.4,22,15,22z M17,4.6L18.9,7C18.4,7,18,7.5,18,8v12h-2V8
	c0-0.5-0.4-1-0.9-1L17,4.6z"/>
</svg>
