<?xml version="1.0" encoding="utf-8"?>
<!-- Generator: Adobe Illustrator 19.1.0, SVG Export Plug-In . SVG Version: 6.00 Build 0)  -->
<!DOCTYPE svg PUBLIC "-//W3C//DTD SVG 1.1//EN" "http://www.w3.org/Graphics/SVG/1.1/DTD/svg11.dtd">
<svg version="1.1" id="Layer_1" xmlns="http://www.w3.org/2000/svg" xmlns:xlink="http://www.w3.org/1999/xlink" x="0px" y="0px"
	 width="24px" height="24px" viewBox="0 0 24 24" enable-background="new 0 0 24 24" xml:space="preserve">
<path d="M23.5,7.1l-11-6c-0.3-0.2-0.7-0.2-1,0l-11,6C0.2,7.3,0,7.6,0,8v3c0,0.6,0.4,1,1,1h1v10H1c-0.6,0-1,0.4-1,1s0.4,1,1,1h22
	c0.6,0,1-0.4,1-1s-0.4-1-1-1h-1V12h1c0.6,0,1-0.4,1-1V8C24,7.6,23.8,7.3,23.5,7.1z M4,12h2v10H4V12z M9,12v10H8V12H9z M13,12v10h-2
	V12H13z M16,12v10h-1V12H16z M20,22h-2V12h2V22z M22,10H2V8.6l10-5.5l10,5.5V10z"/>
<circle cx="12" cy="7" r="2"/>
</svg>
