<?xml version="1.0" encoding="utf-8"?>
<!-- Generator: Adobe Illustrator 19.1.0, SVG Export Plug-In . SVG Version: 6.00 Build 0)  -->
<!DOCTYPE svg PUBLIC "-//W3C//DTD SVG 1.1//EN" "http://www.w3.org/Graphics/SVG/1.1/DTD/svg11.dtd">
<svg version="1.1" id="Layer_1" xmlns="http://www.w3.org/2000/svg" xmlns:xlink="http://www.w3.org/1999/xlink" x="0px" y="0px"
	 width="24px" height="24px" viewBox="0 0 24 24" enable-background="new 0 0 24 24" xml:space="preserve">
<path d="M23,4h-6V2c0-0.6-0.4-1-1-1H8C7.4,1,7,1.4,7,2v2H1C0.4,4,0,4.4,0,5v11c0,0.6,0.4,1,1,1v5c0,0.6,0.4,1,1,1h20
	c0.6,0,1-0.4,1-1v-5c0.6,0,1-0.4,1-1V5C24,4.4,23.6,4,23,4z M9,3h6v1H9V3z M2,6h20v9h-7v-1c0-0.6-0.4-1-1-1h-4c-0.6,0-1,0.4-1,1v1H2
	V6z M11,15h2v0.8c0,0.1,0,0.1,0,0.2s0,0.1,0,0.2V17h-2V15z M21,21H3v-4h6v1c0,0.6,0.4,1,1,1h4c0.6,0,1-0.4,1-1v-1h6V21z"/>
</svg>
