<?xml version="1.0" encoding="utf-8"?>
<!-- Generator: Adobe Illustrator 19.1.0, SVG Export Plug-In . SVG Version: 6.00 Build 0)  -->
<!DOCTYPE svg PUBLIC "-//W3C//DTD SVG 1.1//EN" "http://www.w3.org/Graphics/SVG/1.1/DTD/svg11.dtd">
<svg version="1.1" id="Layer_1" xmlns="http://www.w3.org/2000/svg" xmlns:xlink="http://www.w3.org/1999/xlink" x="0px" y="0px"
	 width="24px" height="24px" viewBox="0 0 24 24" enable-background="new 0 0 24 24" xml:space="preserve">
<path d="M12,0C5.4,0,0,5.4,0,12c0,3,1.1,5.8,3,7.9c0,0.1,0.1,0.2,0.2,0.3c0.1,0.1,0.2,0.2,0.3,0.2C5.6,22.6,8.7,24,12,24
	c6.6,0,12-5.4,12-12S18.6,0,12,0z M21.9,11H13V2.1C17.7,2.5,21.5,6.3,21.9,11z M11,2.1v9.5L4,18c-1.3-1.7-2-3.8-2-6
	C2,6.8,6,2.6,11,2.1z M12,22c-2.5,0-4.8-1-6.6-2.5l7-6.5h9.6C21.4,18,17.2,22,12,22z"/>
</svg>
