<?xml version="1.0" encoding="utf-8"?>
<!-- Generator: Adobe Illustrator 19.1.0, SVG Export Plug-In . SVG Version: 6.00 Build 0)  -->
<!DOCTYPE svg PUBLIC "-//W3C//DTD SVG 1.1//EN" "http://www.w3.org/Graphics/SVG/1.1/DTD/svg11.dtd">
<svg version="1.1" id="Layer_1" xmlns="http://www.w3.org/2000/svg" xmlns:xlink="http://www.w3.org/1999/xlink" x="0px" y="0px"
	 width="24px" height="24px" viewBox="0 0 24 24" enable-background="new 0 0 24 24" xml:space="preserve">
<path d="M12,24c6.6,0,12-5.4,12-12S18.6,0,12,0S0,5.4,0,12S5.4,24,12,24z M12,2c5.5,0,10,4.5,10,10s-4.5,10-10,10S2,17.5,2,12
	S6.5,2,12,2z"/>
<path d="M9,14c-0.6,0-1,0.4-1,1s0.4,1,1,1h2v1c0,0.6,0.4,1,1,1s1-0.4,1-1v-1h2c0.6,0,1-0.4,1-1s-0.4-1-1-1h-2v-1h2c0.6,0,1-0.4,1-1
	s-0.4-1-1-1h-1l1.8-2.4c0.3-0.4,0.2-1.1-0.2-1.4c-0.4-0.3-1.1-0.2-1.4,0.2L12,10.3L9.8,7.4C9.5,7,8.8,6.9,8.4,7.2
	C8,7.5,7.9,8.2,8.2,8.6L10,11H9c-0.6,0-1,0.4-1,1s0.4,1,1,1h2v1H9z"/>
</svg>
