<?xml version="1.0" encoding="utf-8"?>
<!-- Generator: Adobe Illustrator 19.1.0, SVG Export Plug-In . SVG Version: 6.00 Build 0)  -->
<!DOCTYPE svg PUBLIC "-//W3C//DTD SVG 1.1//EN" "http://www.w3.org/Graphics/SVG/1.1/DTD/svg11.dtd">
<svg version="1.1" id="Layer_1" xmlns="http://www.w3.org/2000/svg" xmlns:xlink="http://www.w3.org/1999/xlink" x="0px" y="0px"
	 width="24px" height="24px" viewBox="0 0 24 24" enable-background="new 0 0 24 24" xml:space="preserve">
<path d="M5,20c-0.6,0-1,0.4-1,1s0.4,1,1,1h14c0.6,0,1-0.4,1-1s-0.4-1-1-1h-9v-6h4c0.6,0,1-0.4,1-1s-0.4-1-1-1h-4V8c0-2.2,1.8-4,4-4
	s4,1.8,4,4c0,0.6,0.4,1,1,1s1-0.4,1-1c0-3.3-2.7-6-6-6S8,4.7,8,8v4H5c-0.6,0-1,0.4-1,1s0.4,1,1,1h3v6H5z"/>
</svg>
