<?xml version="1.0" encoding="utf-8"?>
<!-- Generator: Adobe Illustrator 19.1.0, SVG Export Plug-In . SVG Version: 6.00 Build 0)  -->
<!DOCTYPE svg PUBLIC "-//W3C//DTD SVG 1.1//EN" "http://www.w3.org/Graphics/SVG/1.1/DTD/svg11.dtd">
<svg version="1.1" id="Layer_1" xmlns="http://www.w3.org/2000/svg" xmlns:xlink="http://www.w3.org/1999/xlink" x="0px" y="0px"
	 width="24px" height="24px" viewBox="0 0 24 24" enable-background="new 0 0 24 24" xml:space="preserve">
<path d="M9.9,20l0.1,1.1c0,0.4,0.3,0.7,0.7,0.8c0.4,0.1,0.8,0,1-0.2l2.3-2.3l3.3,3.3c0.2,0.2,0.5,0.3,0.7,0.3s0.5-0.1,0.7-0.3l4-4
	c0.4-0.4,0.4-1,0-1.4L19.4,14l2.3-2.3c0.3-0.3,0.4-0.7,0.2-1c-0.1-0.4-0.5-0.6-0.9-0.7L20,9.9C19.9,4.4,15.5,0,10,0
	C4.5,0,0,4.5,0,10C0,15.5,4.4,19.9,9.9,20z M10.1,9C9.8,9,9.5,9.1,9.3,9.3C9.1,9.5,9,9.8,9,10.1l0.3,3.8C7.5,13.6,6,12,6,10
	c0-2.2,1.8-4,4-4c2,0,3.6,1.5,3.9,3.4L10.1,9z M20.6,18L18,20.6l-3.3-3.3C14.5,17.1,14.3,17,14,17s-0.5,0.1-0.7,0.3l-1.5,1.5
	c0-0.1,0-0.1,0-0.2l-0.7-7.5l7.7,0.7l-1.5,1.5c-0.4,0.4-0.4,1,0,1.4L20.6,18z M10,2c4.3,0,7.8,3.4,8,7.7l-2-0.2
	C15.7,6.4,13.2,4,10,4c-3.3,0-6,2.7-6,6c0,3.2,2.4,5.7,5.5,6l0.2,2C5.4,17.8,2,14.3,2,10C2,5.6,5.6,2,10,2z"/>
</svg>
