<?xml version="1.0" encoding="utf-8"?>
<!-- Generator: Adobe Illustrator 19.1.0, SVG Export Plug-In . SVG Version: 6.00 Build 0)  -->
<!DOCTYPE svg PUBLIC "-//W3C//DTD SVG 1.1//EN" "http://www.w3.org/Graphics/SVG/1.1/DTD/svg11.dtd">
<svg version="1.1" id="Layer_1" xmlns="http://www.w3.org/2000/svg" xmlns:xlink="http://www.w3.org/1999/xlink" x="0px" y="0px"
	 width="24px" height="24px" viewBox="0 0 24 24" enable-background="new 0 0 24 24" xml:space="preserve">
<path d="M23,15c-0.6,0-1,0.4-1,1c0,1.3-0.8,2.4-2,2.8V11c0-4.4-3.6-8-8-8s-8,3.6-8,8v7.8c-1.2-0.4-2-1.5-2-2.8c0-0.6-0.4-1-1-1
	s-1,0.4-1,1c0,2.8,2.2,5,5,5h14c2.8,0,5-2.2,5-5C24,15.4,23.6,15,23,15z M6,16h12v3H6V16z M12,5c3.3,0,6,2.7,6,6v3H6v-3
	C6,7.7,8.7,5,12,5z"/>
</svg>
