<?xml version="1.0" encoding="utf-8"?>
<!-- Generator: Adobe Illustrator 19.1.0, SVG Export Plug-In . SVG Version: 6.00 Build 0)  -->
<!DOCTYPE svg PUBLIC "-//W3C//DTD SVG 1.1//EN" "http://www.w3.org/Graphics/SVG/1.1/DTD/svg11.dtd">
<svg version="1.1" id="Layer_1" xmlns="http://www.w3.org/2000/svg" xmlns:xlink="http://www.w3.org/1999/xlink" x="0px" y="0px"
	 width="24px" height="24px" viewBox="0 0 24 24" enable-background="new 0 0 24 24" xml:space="preserve">
<path d="M14,21c0.6,0,1-0.4,1-1V4c0-0.6-0.4-1-1-1h-4C9.4,3,9,3.4,9,4v16c0,0.6,0.4,1,1,1H14z M11,5h2v14h-2V5z"/>
<path d="M6,21c0.6,0,1-0.4,1-1v-6c0-0.6-0.4-1-1-1H2c-0.6,0-1,0.4-1,1v6c0,0.6,0.4,1,1,1H6z M3,15h2v4H3V15z"/>
<path d="M22,21c0.6,0,1-0.4,1-1V9c0-0.6-0.4-1-1-1h-4c-0.6,0-1,0.4-1,1v11c0,0.6,0.4,1,1,1H22z M19,10h2v9h-2V10z"/>
</svg>
