<?xml version="1.0" encoding="utf-8"?>
<!-- Generator: Adobe Illustrator 19.1.0, SVG Export Plug-In . SVG Version: 6.00 Build 0)  -->
<!DOCTYPE svg PUBLIC "-//W3C//DTD SVG 1.1//EN" "http://www.w3.org/Graphics/SVG/1.1/DTD/svg11.dtd">
<svg version="1.1" id="Layer_1" xmlns="http://www.w3.org/2000/svg" xmlns:xlink="http://www.w3.org/1999/xlink" x="0px" y="0px"
	 width="24px" height="24px" viewBox="0 0 24 24" enable-background="new 0 0 24 24" xml:space="preserve">
<path d="M22.2,10.6c-0.5-0.1-1.1,0.2-1.2,0.8c0,0,0,0.1,0,0.1C19.8,9.4,17.6,8,15,8H9.6c-1.4-2.4-3.8-2.4-5-1.9
	C4.2,6.2,3.9,6.8,4.1,7.3l0.7,2.1C3.9,10.1,3.2,11,2.7,12H1c-0.6,0-1,0.4-1,1v5c0,0.6,0.4,1,1,1h2.3C4,20,4.9,20.8,6,21.3V23
	c0,0.6,0.4,1,1,1h3c0.6,0,1-0.4,1-1v-1h2v1c0,0.6,0.4,1,1,1h3c0.6,0,1-0.4,1-1v-1.7c2.1-1,3.6-3.1,3.9-5.4c1.3-0.3,2.1-1.4,2.1-2.9
	C24,11.4,22.8,10.7,22.2,10.6z M16.7,19.7c-0.4,0.1-0.7,0.5-0.7,0.9V22h-1v-1c0-0.6-0.4-1-1-1h-4c-0.6,0-1,0.4-1,1v1H8v-1.3
	c0-0.4-0.3-0.8-0.7-0.9c-1.1-0.4-2-1.2-2.6-2.2C4.5,17.2,4.2,17,3.8,17H2v-3h1.3c0.4,0,0.8-0.3,0.9-0.7c0.4-1.1,1.2-2,2.2-2.6
	C6.9,10.5,7,10,6.9,9.5L6.3,7.9c0.6,0.1,1.3,0.4,1.7,1.5C8.2,9.8,8.6,10,9,10h6c2.8,0,5,2.2,5,5C20,17.1,18.7,19,16.7,19.7z
	 M21.9,13.6c-0.1-0.4-0.2-0.8-0.4-1.2c0.1,0.1,0.2,0.1,0.3,0.1c0,0,0.2,0.1,0.2,0.5C22,13.3,21.9,13.5,21.9,13.6z"/>
<path d="M15,11h-4c-0.6,0-1,0.4-1,1s0.4,1,1,1h4c0.6,0,1-0.4,1-1S15.6,11,15,11z"/>
<path d="M16,3c0-1.7-1.3-3-3-3s-3,1.3-3,3s1.3,3,3,3S16,4.7,16,3z M12,3c0-0.6,0.4-1,1-1s1,0.4,1,1s-0.4,1-1,1S12,3.6,12,3z"/>
</svg>
