<?xml version="1.0" encoding="utf-8"?>
<!-- Generator: Adobe Illustrator 19.1.0, SVG Export Plug-In . SVG Version: 6.00 Build 0)  -->
<!DOCTYPE svg PUBLIC "-//W3C//DTD SVG 1.1//EN" "http://www.w3.org/Graphics/SVG/1.1/DTD/svg11.dtd">
<svg version="1.1" id="Layer_1" xmlns="http://www.w3.org/2000/svg" xmlns:xlink="http://www.w3.org/1999/xlink" x="0px" y="0px"
	 width="24px" height="24px" viewBox="0 0 24 24" enable-background="new 0 0 24 24" xml:space="preserve">
<path d="M3,0C2.4,0,2,0.4,2,1v22c0,0.6,0.4,1,1,1h19c0.6,0,1-0.4,1-1V1c0-0.6-0.4-1-1-1H3z M21,22H4V2h17V22z"/>
<path d="M6,9h13c0.6,0,1-0.4,1-1V4c0-0.6-0.4-1-1-1H6C5.4,3,5,3.4,5,4v4C5,8.6,5.4,9,6,9z M7,5h11v2H7V5z"/>
<path d="M6,15h5c0.6,0,1-0.4,1-1v-3c0-0.6-0.4-1-1-1H6c-0.6,0-1,0.4-1,1v3C5,14.6,5.4,15,6,15z M7,12h3v1H7V12z"/>
<path d="M19,10h-5c-0.6,0-1,0.4-1,1v9c0,0.6,0.4,1,1,1h5c0.6,0,1-0.4,1-1v-9C20,10.4,19.6,10,19,10z M18,19h-3v-7h3V19z"/>
<path d="M6,21h5c0.6,0,1-0.4,1-1v-3c0-0.6-0.4-1-1-1H6c-0.6,0-1,0.4-1,1v3C5,20.6,5.4,21,6,21z M7,18h3v1H7V18z"/>
</svg>
