<?xml version="1.0" encoding="utf-8"?>
<!-- Generator: Adobe Illustrator 19.1.0, SVG Export Plug-In . SVG Version: 6.00 Build 0)  -->
<!DOCTYPE svg PUBLIC "-//W3C//DTD SVG 1.1//EN" "http://www.w3.org/Graphics/SVG/1.1/DTD/svg11.dtd">
<svg version="1.1" id="Layer_1" xmlns="http://www.w3.org/2000/svg" xmlns:xlink="http://www.w3.org/1999/xlink" x="0px" y="0px"
	 width="24px" height="24px" viewBox="0 0 24 24" enable-background="new 0 0 24 24" xml:space="preserve">
<path d="M23,0H1C0.4,0,0,0.4,0,1v12c0,0.6,0.4,1,1,1h10v9c0,0.6,0.4,1,1,1s1-0.4,1-1v-1c3.6-0.2,6-1.4,6-6c0-0.6-0.4-1-1-1
	c-2.2,0-3.9,0.4-5,1.2V14h10c0.6,0,1-0.4,1-1V1C24,0.4,23.6,0,23,0z M17,17c-0.2,2.1-1.2,2.8-3.9,2.9C13.3,18.2,14.1,17.2,17,17z
	 M22,12H2V2h20V12z"/>
<path d="M12,10c1.7,0,3-1.3,3-3s-1.3-3-3-3S9,5.3,9,7S10.3,10,12,10z M12,6c0.6,0,1,0.4,1,1s-0.4,1-1,1s-1-0.4-1-1S11.4,6,12,6z"/>
<path d="M5,8h1c0.6,0,1-0.4,1-1S6.6,6,6,6H5C4.4,6,4,6.4,4,7S4.4,8,5,8z"/>
<path d="M18,8h1c0.6,0,1-0.4,1-1s-0.4-1-1-1h-1c-0.6,0-1,0.4-1,1S17.4,8,18,8z"/>
</svg>
