<?xml version="1.0" encoding="utf-8"?>
<!-- Generator: Adobe Illustrator 19.1.0, SVG Export Plug-In . SVG Version: 6.00 Build 0)  -->
<!DOCTYPE svg PUBLIC "-//W3C//DTD SVG 1.1//EN" "http://www.w3.org/Graphics/SVG/1.1/DTD/svg11.dtd">
<svg version="1.1" id="Layer_1" xmlns="http://www.w3.org/2000/svg" xmlns:xlink="http://www.w3.org/1999/xlink" x="0px" y="0px"
	 width="24px" height="24px" viewBox="0 0 24 24" enable-background="new 0 0 24 24" xml:space="preserve">
<path d="M6,16c-0.6,0-1,0.4-1,1s0.4,1,1,1h5v3c0,0.6,0.4,1,1,1s1-0.4,1-1v-3h5c0.6,0,1-0.4,1-1s-0.4-1-1-1h-5v-2h5c0.6,0,1-0.4,1-1
	s-0.4-1-1-1h-5v-0.7l5.8-7.7c0.3-0.4,0.2-1.1-0.2-1.4c-0.4-0.3-1.1-0.2-1.4,0.2L12,9.3L6.8,2.4C6.5,2,5.8,1.9,5.4,2.2
	C5,2.5,4.9,3.2,5.2,3.6l5.8,7.7V12H6c-0.6,0-1,0.4-1,1s0.4,1,1,1h5v2H6z"/>
</svg>
