<?xml version="1.0" encoding="utf-8"?>
<!-- Generator: Adobe Illustrator 19.1.0, SVG Export Plug-In . SVG Version: 6.00 Build 0)  -->
<!DOCTYPE svg PUBLIC "-//W3C//DTD SVG 1.1//EN" "http://www.w3.org/Graphics/SVG/1.1/DTD/svg11.dtd">
<svg version="1.1" id="Layer_1" xmlns="http://www.w3.org/2000/svg" xmlns:xlink="http://www.w3.org/1999/xlink" x="0px" y="0px"
	 width="24px" height="24px" viewBox="0 0 24 24" enable-background="new 0 0 24 24" xml:space="preserve">
<path d="M23,0H1C0.4,0,0,0.4,0,1v16c0,0.6,0.4,1,1,1h13c0,0.6,0.2,1.1,0.6,1.5c-0.4,0.4-0.6,1-0.6,1.5c0,1.7,2.1,3,5,3s5-1.3,5-3
	c0-0.6-0.2-1.1-0.6-1.5c0.4-0.4,0.6-0.9,0.6-1.5c0-0.6-0.2-1.1-0.6-1.5c0.4-0.4,0.6-0.9,0.6-1.5c0-0.6-0.2-1.1-0.6-1.5
	c0.4-0.4,0.6-0.9,0.6-1.5c0,0,0,0,0,0c0,0,0,0,0,0V1C24,0.4,23.6,0,23,0z M22,18c0,0.1-0.2,0.3-0.7,0.6c0,0-0.1,0-0.1,0
	C20.7,18.8,20,19,19,19c-1.9,0-3-0.8-3-1c0,0,0.1-0.2,0.4-0.4C17.2,17.8,18,18,19,18c1,0,1.8-0.2,2.6-0.4C21.9,17.8,22,17.9,22,18z
	 M19,13c-1.9,0-3-0.8-3-1s1.1-1,3-1s3,0.8,3,1S20.9,13,19,13z M19,9c-2.9,0-5,1.3-5,3c0,0.4,0.1,0.7,0.3,1H7.9
	c-0.4-1.4-1.5-2.5-2.9-2.9V7.9C6.4,7.5,7.5,6.4,7.9,5h8.3c0.4,1.4,1.5,2.5,2.9,2.9V9z M22,15c0,0.1-0.2,0.3-0.7,0.6
	c0,0-0.1,0-0.1,0.1C20.7,15.8,19.9,16,19,16c-1.9,0-3-0.8-3-1c0,0,0.1-0.2,0.4-0.4C17.2,14.8,18,15,19,15c1,0,1.8-0.2,2.6-0.4
	C21.9,14.8,22,15,22,15z M2,16V2h20v7.6c-0.3-0.1-0.6-0.3-1-0.3V7c0-0.6-0.4-1-1-1c-1.1,0-2-0.9-2-2c0-0.6-0.4-1-1-1H7
	C6.4,3,6,3.4,6,4c0,1.1-0.9,2-2,2C3.4,6,3,6.4,3,7v4c0,0.6,0.4,1,1,1c1.1,0,2,0.9,2,2c0,0.6,0.4,1,1,1h7c0,0.4,0.1,0.7,0.3,1H2z
	 M19,22c-1.9,0-3-0.8-3-1c0,0,0.1-0.2,0.4-0.4C17.2,20.8,18,21,19,21c1,0,1.8-0.2,2.6-0.4C21.9,20.8,22,21,22,21
	C22,21.2,20.9,22,19,22z"/>
<path d="M12,6c-1.7,0-3,1.3-3,3s1.3,3,3,3s3-1.3,3-3S13.7,6,12,6z M12,10c-0.6,0-1-0.4-1-1s0.4-1,1-1s1,0.4,1,1S12.6,10,12,10z"/>
</svg>
