<?xml version="1.0" encoding="utf-8"?>
<!-- Generator: Adobe Illustrator 19.1.0, SVG Export Plug-In . SVG Version: 6.00 Build 0)  -->
<!DOCTYPE svg PUBLIC "-//W3C//DTD SVG 1.1//EN" "http://www.w3.org/Graphics/SVG/1.1/DTD/svg11.dtd">
<svg version="1.1" id="Layer_1" xmlns="http://www.w3.org/2000/svg" xmlns:xlink="http://www.w3.org/1999/xlink" x="0px" y="0px"
	 width="24px" height="24px" viewBox="0 0 24 24" enable-background="new 0 0 24 24" xml:space="preserve">
<path d="M3,12v2c0,0.6,0.4,1,1,1s1-0.4,1-1v-1h6v1c0,0.6,0.4,1,1,1s1-0.4,1-1v-1h6v1c0,0.6,0.4,1,1,1s1-0.4,1-1v-2c0-0.6-0.4-1-1-1
	h-7v-1c0-0.6-0.4-1-1-1s-1,0.4-1,1v1H4C3.4,11,3,11.4,3,12z"/>
<path d="M1,20c0,1.7,1.3,3,3,3s3-1.3,3-3s-1.3-3-3-3S1,18.3,1,20z M4,19c0.6,0,1,0.4,1,1s-0.4,1-1,1s-1-0.4-1-1S3.4,19,4,19z"/>
<path d="M12,23c1.7,0,3-1.3,3-3s-1.3-3-3-3s-3,1.3-3,3S10.3,23,12,23z M12,19c0.6,0,1,0.4,1,1s-0.4,1-1,1s-1-0.4-1-1S11.4,19,12,19z
	"/>
<path d="M20,17c-1.7,0-3,1.3-3,3s1.3,3,3,3s3-1.3,3-3S21.7,17,20,17z M20,21c-0.6,0-1-0.4-1-1s0.4-1,1-1s1,0.4,1,1S20.6,21,20,21z"
	/>
<path d="M14,7c0.6,0,1-0.4,1-1V2c0-0.6-0.4-1-1-1h-4C9.4,1,9,1.4,9,2v4c0,0.6,0.4,1,1,1H14z M11,3h2v2h-2V3z"/>
</svg>
