<?xml version="1.0" encoding="utf-8"?>
<!-- Generator: Adobe Illustrator 19.1.0, SVG Export Plug-In . SVG Version: 6.00 Build 0)  -->
<!DOCTYPE svg PUBLIC "-//W3C//DTD SVG 1.1//EN" "http://www.w3.org/Graphics/SVG/1.1/DTD/svg11.dtd">
<svg version="1.1" id="Layer_1" xmlns="http://www.w3.org/2000/svg" xmlns:xlink="http://www.w3.org/1999/xlink" x="0px" y="0px"
	 width="24px" height="24px" viewBox="0 0 24 24" enable-background="new 0 0 24 24" xml:space="preserve">
<path d="M8,22c0,0.6,0.4,1,1,1h6c0.6,0,1-0.4,1-1v-3v-1.9c3.1-1.5,5-4.6,5-8.1c0-5-4-9-9-9S3,4,3,9c0,3.5,1.9,6.5,5,8.1V19V22z
	 M10,21v-1h4v1H10z M5,9c0-3.9,3.1-7,7-7s7,3.1,7,7c0,2.9-1.7,5.4-4.4,6.5C14.2,15.6,14,16,14,16.4V18h-4v-1.6
	c0-0.4-0.2-0.8-0.6-0.9C6.7,14.4,5,11.9,5,9z"/>
<path d="M12,6c0.6,0,1-0.4,1-1s-0.4-1-1-1C9.2,4,7,6.2,7,9c0,0.6,0.4,1,1,1s1-0.4,1-1C9,7.3,10.3,6,12,6z"/>
</svg>
