<?xml version="1.0" encoding="utf-8"?>
<!-- Generator: Adobe Illustrator 19.1.0, SVG Export Plug-In . SVG Version: 6.00 Build 0)  -->
<!DOCTYPE svg PUBLIC "-//W3C//DTD SVG 1.1//EN" "http://www.w3.org/Graphics/SVG/1.1/DTD/svg11.dtd">
<svg version="1.1" id="Layer_1" xmlns="http://www.w3.org/2000/svg" xmlns:xlink="http://www.w3.org/1999/xlink" x="0px" y="0px"
	 width="24px" height="24px" viewBox="0 0 24 24" enable-background="new 0 0 24 24" xml:space="preserve">
<path d="M19,7V1c0-0.6-0.4-1-1-1H1C0.4,0,0,0.4,0,1v19c0,0.6,0.4,1,1,1h14c0,0.3,0.2,0.6,0.4,0.8c0.3,0.2,0.6,0.2,0.9,0.1l2.7-0.9
	l2.7,0.9c0.1,0,0.2,0.1,0.3,0.1c0.2,0,0.4-0.1,0.6-0.2c0.3-0.2,0.4-0.5,0.4-0.8v-6c0.6-0.8,1-1.9,1-3C24,9.2,21.8,7,19,7z M22,12
	c0,1.7-1.3,3-3,3s-3-1.3-3-3s1.3-3,3-3S22,10.3,22,12z M2,19V2h15v5.4c-1.8,0.8-3,2.5-3,4.6c0,1.1,0.4,2.1,1,3v4H2z M19.3,19.1
	c-0.2-0.1-0.4-0.1-0.6,0L17,19.6v-3c0.6,0.3,1.3,0.4,2,0.4s1.4-0.2,2-0.4v3L19.3,19.1z"/>
<path d="M5,7h9c0.6,0,1-0.4,1-1s-0.4-1-1-1H5C4.4,5,4,5.4,4,6S4.4,7,5,7z"/>
<path d="M11,9H5c-0.6,0-1,0.4-1,1s0.4,1,1,1h6c0.6,0,1-0.4,1-1S11.6,9,11,9z"/>
<path d="M11,13H5c-0.6,0-1,0.4-1,1s0.4,1,1,1h6c0.6,0,1-0.4,1-1S11.6,13,11,13z"/>
</svg>
