<?xml version="1.0" encoding="utf-8"?>
<!-- Generator: Adobe Illustrator 19.1.0, SVG Export Plug-In . SVG Version: 6.00 Build 0)  -->
<!DOCTYPE svg PUBLIC "-//W3C//DTD SVG 1.1//EN" "http://www.w3.org/Graphics/SVG/1.1/DTD/svg11.dtd">
<svg version="1.1" id="Layer_1" xmlns="http://www.w3.org/2000/svg" xmlns:xlink="http://www.w3.org/1999/xlink" x="0px" y="0px"
	 width="24px" height="24px" viewBox="0 0 24 24" enable-background="new 0 0 24 24" xml:space="preserve">
<path d="M1,23c0,0.6,0.4,1,1,1h8h4h8c0.6,0,1-0.4,1-1V11c0-0.6-0.4-1-1-1h-5V6c0-0.6-0.4-1-1-1h-1V3c0-0.6-0.4-1-1-1h-1V1
	c0-0.6-0.4-1-1-1s-1,0.4-1,1v1h-1C9.4,2,9,2.4,9,3v2H8C7.4,5,7,5.4,7,6v7H2c-0.6,0-1,0.4-1,1V23z M21,22h-6V12h6V22z M9,7h1
	c0.6,0,1-0.4,1-1V4h2v2c0,0.6,0.4,1,1,1h1v3h-1c-0.6,0-1,0.4-1,1v11h-2v-8c0-0.6-0.4-1-1-1H9V7z M3,15h6v7H3V15z"/>
<path d="M17,15h2c0.6,0,1-0.4,1-1s-0.4-1-1-1h-2c-0.6,0-1,0.4-1,1S16.4,15,17,15z"/>
<path d="M17,18h2c0.6,0,1-0.4,1-1s-0.4-1-1-1h-2c-0.6,0-1,0.4-1,1S16.4,18,17,18z"/>
<path d="M17,21h2c0.6,0,1-0.4,1-1s-0.4-1-1-1h-2c-0.6,0-1,0.4-1,1S16.4,21,17,21z"/>
<path d="M7,16H5c-0.6,0-1,0.4-1,1s0.4,1,1,1h2c0.6,0,1-0.4,1-1S7.6,16,7,16z"/>
<path d="M7,19H5c-0.6,0-1,0.4-1,1s0.4,1,1,1h2c0.6,0,1-0.4,1-1S7.6,19,7,19z"/>
</svg>
