<?xml version="1.0" encoding="utf-8"?>
<!-- Generator: Adobe Illustrator 19.2.1, SVG Export Plug-In . SVG Version: 6.00 Build 0)  -->
<!DOCTYPE svg PUBLIC "-//W3C//DTD SVG 1.1//EN" "http://www.w3.org/Graphics/SVG/1.1/DTD/svg11.dtd">
<svg version="1.1" id="Layer_1" xmlns="http://www.w3.org/2000/svg" xmlns:xlink="http://www.w3.org/1999/xlink" x="0px" y="0px"
	 width="24px" height="24px" viewBox="0 0 24 24" enable-background="new 0 0 24 24" xml:space="preserve">
<path d="M11.504,23.959c0.164,0.027,0.328,0.04,0.491,0.04c0.712,0,1.401-0.249,1.948-0.714C14.615,22.714,15,21.881,15,21v-5h2
	c2.206,0,4-1.794,4-4V1c0-0.552-0.447-1-1-1h-4c-0.334,0-0.646,0.167-0.832,0.445L14,2.197l-1.168-1.752C12.646,0.167,12.334,0,12,0
	H4C3.447,0,3,0.448,3,1v11c0,2.206,1.794,4,4,4h2v4.893C9,22.409,10.076,23.727,11.504,23.959z M11.465,2l1.703,2.555
	c0.371,0.557,1.293,0.557,1.664,0L16.535,2H19v8H5V2H11.465z M7,14c-1.103,0-2-0.897-2-2h14c0,1.103-0.897,2-2,2h-3
	c-0.553,0-1,0.448-1,1v6c0,0.294-0.129,0.572-0.353,0.762c-0.229,0.193-0.522,0.27-0.822,0.224C11.362,21.91,11,21.43,11,20.893V15
	c0-0.552-0.447-1-1-1H7z"/>
</svg>
