<?xml version="1.0" encoding="utf-8"?>
<!-- Generator: Adobe Illustrator 19.2.1, SVG Export Plug-In . SVG Version: 6.00 Build 0)  -->
<!DOCTYPE svg PUBLIC "-//W3C//DTD SVG 1.1//EN" "http://www.w3.org/Graphics/SVG/1.1/DTD/svg11.dtd">
<svg version="1.1" id="Layer_1" xmlns="http://www.w3.org/2000/svg" xmlns:xlink="http://www.w3.org/1999/xlink" x="0px" y="0px"
	 width="24px" height="24px" viewBox="0 0 24 24" enable-background="new 0 0 24 24" xml:space="preserve">
<path d="M23,0H1C0.448,0,0,0.448,0,1v6c0,0.552,0.448,1,1,1h1c0.334,0,0.646-0.167,0.832-0.445L4.535,5H9v14.465l-2.555,1.703
	C6.167,21.354,6,21.666,6,22v1c0,0.552,0.448,1,1,1h10c0.552,0,1-0.448,1-1v-1c0-0.334-0.167-0.646-0.445-0.832L15,19.465V5h4.465
	l1.703,2.555C21.354,7.833,21.666,8,22,8h1c0.552,0,1-0.448,1-1V1C24,0.448,23.552,0,23,0z M22,5.197l-1.168-1.752
	C20.646,3.167,20.334,3,20,3h-6c-0.552,0-1,0.448-1,1v16c0,0.334,0.167,0.646,0.445,0.832L15.197,22H8.803l1.752-1.168
	C10.833,20.646,11,20.334,11,20V4c0-0.552-0.448-1-1-1H4C3.666,3,3.354,3.167,3.168,3.445L2,5.197V2h20V5.197z"/>
</svg>
