<?xml version="1.0" encoding="utf-8"?>
<!-- Generator: Adobe Illustrator 19.2.1, SVG Export Plug-In . SVG Version: 6.00 Build 0)  -->
<!DOCTYPE svg PUBLIC "-//W3C//DTD SVG 1.1//EN" "http://www.w3.org/Graphics/SVG/1.1/DTD/svg11.dtd">
<svg version="1.1" id="Layer_1" xmlns="http://www.w3.org/2000/svg" xmlns:xlink="http://www.w3.org/1999/xlink" x="0px" y="0px"
	 width="24px" height="24px" viewBox="0 0 24 24" enable-background="new 0 0 24 24" xml:space="preserve">
<path fill="#222221" d="M3,0C2.448,0,2,0.448,2,1v20c0,0.553,0.448,1,1,1h6v1c0,0.553,0.448,1,1,1h11c0.552,0,1-0.447,1-1v-4
	c0-0.553-0.448-1-1-1H10c-0.552,0-1,0.447-1,1v1H4v-6h5v1c0,0.553,0.448,1,1,1h11c0.552,0,1-0.447,1-1v-4c0-0.552-0.448-1-1-1H10
	c-0.552,0-1,0.448-1,1v1H4V6h5v1c0,0.552,0.448,1,1,1h11c0.552,0,1-0.448,1-1V3c0-0.552-0.448-1-1-1H10C9.448,2,9,2.448,9,3v1H4V1
	C4,0.448,3.552,0,3,0z M11,20h9v2h-9V20z M11,12h9v2h-9V12z M11,4h9v2h-9V4z"/>
</svg>
