<?xml version="1.0" encoding="utf-8"?>
<!-- Generator: Adobe Illustrator 19.2.1, SVG Export Plug-In . SVG Version: 6.00 Build 0)  -->
<!DOCTYPE svg PUBLIC "-//W3C//DTD SVG 1.1//EN" "http://www.w3.org/Graphics/SVG/1.1/DTD/svg11.dtd">
<svg version="1.1" id="Layer_1" xmlns="http://www.w3.org/2000/svg" xmlns:xlink="http://www.w3.org/1999/xlink" x="0px" y="0px"
	 width="24px" height="24px" viewBox="0 0 24 24" enable-background="new 0 0 24 24" xml:space="preserve">
<path d="M3,23c1.654,0,3-1.346,3-3c0-1.278-1.522-3.621-2.177-4.568c-0.375-0.541-1.271-0.541-1.646,0C1.522,16.379,0,18.722,0,20
	C0,21.654,1.346,23,3,23z M3,17.854c0.576,0.97,0.992,1.841,1,2.146c0,0.551-0.448,1-1,1c-0.551,0-1-0.448-1-0.999
	C2.009,19.695,2.425,18.824,3,17.854z"/>
<path d="M18,2h-2.311l-0.659-0.898c-0.1-0.16-0.206-0.298-0.307-0.399c-1.856-1.859-5.853,0.194-8.839,3.182
	C4.38,5.389,3.194,7.053,2.544,8.569c-1.043,2.434-0.348,3.647,0.159,4.154c0.029,0.029,0.063,0.048,0.093,0.075
	c0.009,0.007,0.013,0.017,0.022,0.024l0.091,0.066c0.08,0.064,0.159,0.128,0.245,0.18l10.221,7.496
	c0.365,0.331,0.821,0.477,1.334,0.477c1.571,0,3.675-1.371,5.318-3.015c2.181-2.181,3.881-5.17,2.537-6.651l-0.812-1.107
	C22.519,9.39,23,8.255,23,7C23,4.243,20.757,2,18,2z M18,4c1.654,0,3,1.346,3,3c0,0.589-0.177,1.135-0.471,1.599L17.156,4H18z
	 M4.383,9.357c0.544-1.27,1.606-2.749,2.916-4.059s2.789-2.373,4.058-2.917C12.021,2.098,12.52,2,12.853,2
	c0.221,0,0.36,0.045,0.434,0.105l0.046,0.062c0.139,0.206,0.171,0.831-0.288,1.902c-0.544,1.27-1.606,2.749-2.916,4.058
	C7.3,10.955,4.891,11.641,4.234,11.38l-0.127-0.093C3.956,11.105,3.907,10.466,4.383,9.357z M18.613,16.613
	c-1.983,1.982-3.618,2.529-3.89,2.475c-0.036-0.036-0.074-0.069-0.115-0.099l-8.133-5.964c1.665-0.625,3.503-1.919,5.067-3.482
	c1.504-1.504,2.69-3.168,3.341-4.684C14.942,4.72,14.976,4.6,15.025,4.47l3.938,5.357C18.659,9.931,18.339,10,18,10h-4
	c-0.553,0-1,0.448-1,1s0.447,1,1,1h4c0.784,0,1.517-0.197,2.178-0.52l0.86,1.17C21.143,12.998,20.594,14.631,18.613,16.613z"/>
</svg>
