<?xml version="1.0" encoding="utf-8"?>
<!-- Generator: Adobe Illustrator 19.2.1, SVG Export Plug-In . SVG Version: 6.00 Build 0)  -->
<!DOCTYPE svg PUBLIC "-//W3C//DTD SVG 1.1//EN" "http://www.w3.org/Graphics/SVG/1.1/DTD/svg11.dtd">
<svg version="1.1" id="Layer_1" xmlns="http://www.w3.org/2000/svg" xmlns:xlink="http://www.w3.org/1999/xlink" x="0px" y="0px"
	 width="24px" height="24px" viewBox="0 0 24 24" enable-background="new 0 0 24 24" xml:space="preserve">
<path d="M22,21v-4V3c0-1.654-1.346-3-3-3H5C3.346,0,2,1.346,2,3v18c0,1.654,1.346,3,3,3h14C20.654,24,22,22.654,22,21z M8,2h4v5.132
	l-1.445-0.964c-0.336-0.225-0.773-0.225-1.109,0L8,7.132V2z M4,3c0-0.552,0.449-1,1-1h1v7c0,0.369,0.203,0.708,0.528,0.882
	c0.323,0.174,0.719,0.153,1.026-0.05L10,8.202l2.445,1.63C12.613,9.943,12.806,10,13,10c0.162,0,0.324-0.039,0.472-0.118
	C13.797,9.708,14,9.369,14,9V2h5c0.551,0,1,0.448,1,1v14c0,0.552-0.449,1-1,1H5c-0.193,0-0.381,0.022-0.563,0.057
	c-0.058,0.011-0.113,0.03-0.17,0.044C4.178,18.124,4.086,18.141,4,18.171V3z M20,21c0,0.552-0.449,1-1,1H5c-0.551,0-1-0.448-1-1
	s0.449-1,1-1h14c0.193,0,0.381-0.022,0.563-0.057c0.058-0.011,0.113-0.03,0.169-0.044c0.089-0.023,0.181-0.039,0.267-0.07V21z"/>
</svg>
