<?xml version="1.0" encoding="utf-8"?>
<!-- Generator: Adobe Illustrator 19.2.1, SVG Export Plug-In . SVG Version: 6.00 Build 0)  -->
<!DOCTYPE svg PUBLIC "-//W3C//DTD SVG 1.1//EN" "http://www.w3.org/Graphics/SVG/1.1/DTD/svg11.dtd">
<svg version="1.1" id="Layer_1" xmlns="http://www.w3.org/2000/svg" xmlns:xlink="http://www.w3.org/1999/xlink" x="0px" y="0px"
	 width="24px" height="24px" viewBox="0 0 24 24" enable-background="new 0 0 24 24" xml:space="preserve">
<circle cx="4" cy="9" r="1"/>
<path d="M22,8V2c0-1.103-0.897-2-2-2H2C0.897,0,0,0.897,0,2v14c0,1.103,0.897,2,2,2h12v4c0,1.103,0.897,2,2,2h6c1.103,0,2-0.897,2-2
	V10C24,8.897,23.103,8,22,8z M22.001,18H16v-8h6L22.001,18z M16,8c-1.103,0-2,0.897-2,2v2H8V6h8V8z M2,16V2h18v6h-2V5
	c0-0.553-0.448-1-1-1H7C6.448,4,6,4.447,6,5v8c0,0.553,0.448,1,1,1h7v2H2z M16,22v-2h6.001l0,2H16z"/>
</svg>
