<?xml version="1.0" encoding="utf-8"?>
<!-- Generator: Adobe Illustrator 19.2.1, SVG Export Plug-In . SVG Version: 6.00 Build 0)  -->
<!DOCTYPE svg PUBLIC "-//W3C//DTD SVG 1.1//EN" "http://www.w3.org/Graphics/SVG/1.1/DTD/svg11.dtd">
<svg version="1.1" id="Layer_1" xmlns="http://www.w3.org/2000/svg" xmlns:xlink="http://www.w3.org/1999/xlink" x="0px" y="0px"
	 width="24px" height="24px" viewBox="0 0 24 24" enable-background="new 0 0 24 24" xml:space="preserve">
<path d="M2,23c0.065,0,0.131-0.006,0.196-0.02l5-1c0.193-0.039,0.371-0.134,0.511-0.273l15-15c0.391-0.391,0.391-1.023,0-1.414l-4-4
	c-0.391-0.391-1.023-0.391-1.414,0l-15,15c-0.14,0.14-0.235,0.317-0.273,0.511l-1,5c-0.066,0.328,0.037,0.667,0.273,0.903
	C1.482,22.896,1.737,23,2,23z M18,3.414L20.586,6L19,7.586L16.414,5L18,3.414z M3.921,17.493L15,6.414L17.586,9L6.507,20.079
	l-3.232,0.646L3.921,17.493z"/>
</svg>
