<?xml version="1.0" encoding="utf-8"?>
<!-- Generator: Adobe Illustrator 19.2.1, SVG Export Plug-In . SVG Version: 6.00 Build 0)  -->
<!DOCTYPE svg PUBLIC "-//W3C//DTD SVG 1.1//EN" "http://www.w3.org/Graphics/SVG/1.1/DTD/svg11.dtd">
<svg version="1.1" id="Layer_1" xmlns="http://www.w3.org/2000/svg" xmlns:xlink="http://www.w3.org/1999/xlink" x="0px" y="0px"
	 width="24px" height="24px" viewBox="0 0 24 24" enable-background="new 0 0 24 24" xml:space="preserve">
<path d="M10,24h4c3.309,0,6-2.691,6-6V6c0-3.309-2.691-6-6-6h-4C6.691,0,4,2.691,4,6v12C4,21.309,6.691,24,10,24z M6,6
	c0-2.206,1.794-4,4-4h4c2.206,0,4,1.794,4,4v12c0,2.206-1.794,4-4,4h-4c-2.206,0-4-1.794-4-4V6z"/>
<path d="M11,11.816V13c0,0.552,0.447,1,1,1s1-0.448,1-1v-1.184c1.161-0.414,2-1.514,2-2.816s-0.839-2.402-2-2.816V5
	c0-0.552-0.447-1-1-1s-1,0.448-1,1v1.184C9.839,6.598,9,7.698,9,9S9.839,11.402,11,11.816z M12,8c0.552,0,1,0.449,1,1s-0.448,1-1,1
	s-1-0.449-1-1S11.448,8,12,8z"/>
</svg>
