<?xml version="1.0" encoding="utf-8"?>
<!-- Generator: Adobe Illustrator 19.2.1, SVG Export Plug-In . SVG Version: 6.00 Build 0)  -->
<!DOCTYPE svg PUBLIC "-//W3C//DTD SVG 1.1//EN" "http://www.w3.org/Graphics/SVG/1.1/DTD/svg11.dtd">
<svg version="1.1" id="Layer_1" xmlns="http://www.w3.org/2000/svg" xmlns:xlink="http://www.w3.org/1999/xlink" x="0px" y="0px"
	 width="24px" height="24px" viewBox="0 0 24 24" enable-background="new 0 0 24 24" xml:space="preserve">
<path fill="#222221" d="M15,24h6c1.103,0,2-0.897,2-2V10c0-1.103-0.897-2-2-2h-2V2c0-1.103-0.897-2-2-2H3C1.897,0,1,0.897,1,2v17
	c0,1.103,0.897,2,2,2h10v1C13,23.103,13.897,24,15,24z M21.002,22H15V10h6L21.002,22z M3,19V2h14v6h-2c-1.103,0-2,0.897-2,2v9H3z"/>
</svg>
