<?xml version="1.0" encoding="utf-8"?>
<!-- Generator: Adobe Illustrator 19.2.1, SVG Export Plug-In . SVG Version: 6.00 Build 0)  -->
<!DOCTYPE svg PUBLIC "-//W3C//DTD SVG 1.1//EN" "http://www.w3.org/Graphics/SVG/1.1/DTD/svg11.dtd">
<svg version="1.1" id="Layer_1" xmlns="http://www.w3.org/2000/svg" xmlns:xlink="http://www.w3.org/1999/xlink" x="0px" y="0px"
	 width="24px" height="24px" viewBox="0 0 24 24" enable-background="new 0 0 24 24" xml:space="preserve">
<path d="M23,20H1c-0.553,0-1,0.447-1,1s0.447,1,1,1h22c0.553,0,1-0.447,1-1S23.553,20,23,20z"/>
<path d="M10,18c0.553,0,1-0.447,1-1V3c0-0.553-0.447-1-1-1H5C4.447,2,4,2.447,4,3v14c0,0.553,0.447,1,1,1H10z M6,4h3v12H6V4z"/>
<path d="M19,18c0.553,0,1-0.447,1-1V9c0-0.553-0.447-1-1-1h-5c-0.553,0-1,0.447-1,1v8c0,0.553,0.447,1,1,1H19z M15,10h3v6h-3V10z"/>
</svg>
