<?xml version="1.0" encoding="utf-8"?>
<!-- Generator: Adobe Illustrator 19.2.1, SVG Export Plug-In . SVG Version: 6.00 Build 0)  -->
<!DOCTYPE svg PUBLIC "-//W3C//DTD SVG 1.1//EN" "http://www.w3.org/Graphics/SVG/1.1/DTD/svg11.dtd">
<svg version="1.1" id="Layer_1" xmlns="http://www.w3.org/2000/svg" xmlns:xlink="http://www.w3.org/1999/xlink" x="0px" y="0px"
	 width="24px" height="24px" viewBox="0 0 24 24" enable-background="new 0 0 24 24" xml:space="preserve">
<path fill="#222221" d="M24,3c0-1.654-1.346-3-3-3c-1.302,0-2.402,0.839-2.816,2h-3.369C14.402,0.839,13.302,0,12,0
	S9.598,0.839,9.184,2H5.816C5.402,0.839,4.302,0,3,0C1.346,0,0,1.346,0,3c0,1.302,0.839,2.402,2,2.816v3.369
	C0.839,9.598,0,10.698,0,12s0.839,2.402,2,2.816v3.369C0.839,18.598,0,19.698,0,21c0,1.654,1.346,3,3,3c1.302,0,2.402-0.839,2.816-2
	h3.369c0.414,1.161,1.514,2,2.816,2s2.402-0.839,2.816-2h3.369c0.414,1.161,1.514,2,2.816,2c1.654,0,3-1.346,3-3
	c0-1.302-0.839-2.402-2-2.816v-3.369c1.161-0.414,2-1.514,2-2.816s-0.839-2.402-2-2.816V5.816C23.161,5.402,24,4.302,24,3z M21,2
	c0.552,0,1,0.449,1,1s-0.448,1-1,1s-1-0.449-1-1S20.448,2,21,2z M18,12c0,1.302,0.839,2.402,2,2.816v3.369
	c-0.847,0.302-1.514,0.969-1.816,1.816h-3.369c-0.414-1.161-1.514-2-2.816-2s-2.402,0.839-2.816,2H5.816
	C5.514,19.153,4.847,18.486,4,18.184v-3.369C5.161,14.402,6,13.302,6,12S5.161,9.598,4,9.184V5.816C4.847,5.514,5.514,4.847,5.816,4
	h3.369C9.598,5.161,10.698,6,12,6s2.402-0.839,2.816-2h3.369C18.486,4.847,19.153,5.514,20,5.816v3.369
	C18.839,9.598,18,10.698,18,12z M12,2c0.552,0,1,0.449,1,1s-0.448,1-1,1s-1-0.449-1-1S11.448,2,12,2z M3,2c0.552,0,1,0.449,1,1
	S3.552,4,3,4S2,3.551,2,3S2.448,2,3,2z M3,11c0.552,0,1,0.449,1,1s-0.448,1-1,1s-1-0.449-1-1S2.448,11,3,11z M3,22
	c-0.552,0-1-0.449-1-1s0.448-1,1-1s1,0.449,1,1S3.552,22,3,22z M12,22c-0.552,0-1-0.449-1-1s0.448-1,1-1s1,0.449,1,1
	S12.552,22,12,22z M21,22c-0.552,0-1-0.449-1-1s0.448-1,1-1s1,0.449,1,1S21.552,22,21,22z M21,13c-0.552,0-1-0.449-1-1s0.448-1,1-1
	s1,0.449,1,1S21.552,13,21,13z"/>
<circle fill="#222221" cx="12" cy="12" r="2"/>
</svg>
