<?xml version="1.0" encoding="utf-8"?>
<!-- Generator: Adobe Illustrator 19.2.1, SVG Export Plug-In . SVG Version: 6.00 Build 0)  -->
<!DOCTYPE svg PUBLIC "-//W3C//DTD SVG 1.1//EN" "http://www.w3.org/Graphics/SVG/1.1/DTD/svg11.dtd">
<svg version="1.1" id="Layer_1" xmlns="http://www.w3.org/2000/svg" xmlns:xlink="http://www.w3.org/1999/xlink" x="0px" y="0px"
	 width="24px" height="24px" viewBox="0 0 24 24" enable-background="new 0 0 24 24" xml:space="preserve">
<path fill="#222221" d="M23.828,10.056c-0.039-0.241-0.081-0.48-0.135-0.716c-0.053-0.236-0.113-0.465-0.178-0.692
	c-0.046-0.159-0.097-0.316-0.15-0.472c-0.089-0.266-0.182-0.529-0.287-0.782c-0.031-0.075-0.067-0.148-0.1-0.222
	c-0.831-1.889-2.064-3.402-3.346-4.435c0.001,0.004,0.002,0.008,0.003,0.012C17.559,1.033,14.898,0,12,0
	C8.496,0,5.348,1.519,3.153,3.921C2.634,3.178,2.499,2.277,2.499,2.277s-1.7,1.268-1.244,4.346c0,0-0.611,1.088-0.977,2.83
	c-0.024,0.11-0.044,0.22-0.064,0.331c-0.035,0.193-0.065,0.394-0.092,0.601c-0.046,0.34-0.075,0.684-0.092,1.032
	c-0.005,0.103-0.013,0.201-0.016,0.306C0.012,11.817,0,11.907,0,12c0,0.033,0.016,0.061,0.019,0.093
	c0.014,1.717,0.386,3.706,1.522,5.795C1.541,17.888,4.562,24,12,24c7.5,0,12-6.217,12-12c0-0.468-0.034-0.928-0.086-1.382
	C23.892,10.427,23.858,10.243,23.828,10.056z M8.551,15.991c0.01,0.002,2.714,0.032,3.678-0.486c0.608-0.327,1.385-0.973,1.76-0.912
	c0.608,0.09,0.751-0.399,0.445-0.75c-0.351-0.404-1.281-1.167-2.361-0.655c-2.964,1.404-4.941-0.672-4.598-1.888
	c0.064-0.229,0.309-0.531,0.412-0.551c0.502-0.487,3.403-2.396,3.766-3.282c0.086-0.21,0.183-0.703-0.098-0.806
	C11.089,6.549,9.98,6.545,9.57,6.548C8.789,6.555,8.265,6.068,8.3,5.583c0.044-0.605,0.466-1.359,1.664-2.347
	c-2.057-0.3-3.244,1.341-3.245,1.343C6.334,4.483,5.876,4.461,5.44,4.471C7.198,2.937,9.489,2,12,2c3.461,0,6.515,1.769,8.311,4.448
	C20.756,14.334,14.699,20.48,8.551,15.991z"/>
</svg>
