<?xml version="1.0" encoding="utf-8"?>
<!-- Generator: Adobe Illustrator 19.2.1, SVG Export Plug-In . SVG Version: 6.00 Build 0)  -->
<!DOCTYPE svg PUBLIC "-//W3C//DTD SVG 1.1//EN" "http://www.w3.org/Graphics/SVG/1.1/DTD/svg11.dtd">
<svg version="1.1" id="Layer_1" xmlns="http://www.w3.org/2000/svg" xmlns:xlink="http://www.w3.org/1999/xlink" x="0px" y="0px"
	 width="24px" height="24px" viewBox="0 0 24 24" enable-background="new 0 0 24 24" xml:space="preserve">
<path d="M12,0c-0.553,0-1,0.447-1,1v22c0,0.553,0.447,1,1,1s1-0.447,1-1V1C13,0.447,12.553,0,12,0z"/>
<path d="M8.267,7.036C7.836,6.916,7.373,7.1,7.143,7.485l-6,10c-0.186,0.309-0.19,0.693-0.013,1.008C1.308,18.807,1.64,19,2,19h6
	c0.553,0,1-0.447,1-1V8C9,7.551,8.7,7.156,8.267,7.036z M7,17H3.767L7,11.61V17z"/>
<path d="M16.857,7.485c-0.23-0.386-0.693-0.567-1.124-0.449C15.3,7.156,15,7.551,15,8v10c0,0.553,0.447,1,1,1h6
	c0.36,0,0.692-0.193,0.87-0.507c0.178-0.314,0.173-0.699-0.013-1.008L16.857,7.485z M17,17v-5.39L20.233,17H17z"/>
</svg>
