<?xml version="1.0" encoding="utf-8"?>
<!-- Generator: Adobe Illustrator 19.2.1, SVG Export Plug-In . SVG Version: 6.00 Build 0)  -->
<!DOCTYPE svg PUBLIC "-//W3C//DTD SVG 1.1//EN" "http://www.w3.org/Graphics/SVG/1.1/DTD/svg11.dtd">
<svg version="1.1" id="Layer_1" xmlns="http://www.w3.org/2000/svg" xmlns:xlink="http://www.w3.org/1999/xlink" x="0px" y="0px"
	 width="24px" height="24px" viewBox="0 0 24 24" enable-background="new 0 0 24 24" xml:space="preserve">
<path d="M8,24h8c0.552,0,1-0.448,1-1V1c0-0.552-0.448-1-1-1H8C7.448,0,7,0.448,7,1v22C7,23.552,7.448,24,8,24z M15,2v20H9v-3h1
	c0.552,0,1-0.448,1-1s-0.448-1-1-1H9v-2h2c0.552,0,1-0.448,1-1s-0.448-1-1-1H9v-2h1c0.552,0,1-0.448,1-1s-0.448-1-1-1H9V7h2
	c0.552,0,1-0.448,1-1s-0.448-1-1-1H9V2H15z"/>
</svg>
