<?xml version="1.0" encoding="utf-8"?>
<!-- Generator: Adobe Illustrator 19.2.1, SVG Export Plug-In . SVG Version: 6.00 Build 0)  -->
<!DOCTYPE svg PUBLIC "-//W3C//DTD SVG 1.1//EN" "http://www.w3.org/Graphics/SVG/1.1/DTD/svg11.dtd">
<svg version="1.1" id="Layer_1" xmlns="http://www.w3.org/2000/svg" xmlns:xlink="http://www.w3.org/1999/xlink" x="0px" y="0px"
	 width="24px" height="24px" viewBox="0 0 24 24" enable-background="new 0 0 24 24" xml:space="preserve">
<path d="M1,24h12c0.552,0,1-0.448,1-1V10c0-0.315-0.148-0.611-0.4-0.8L10,6.5V3c0-0.552-0.448-1-1-1H5C4.448,2,4,2.448,4,3v3.5
	L0.4,9.2C0.148,9.389,0,9.685,0,10v13C0,23.552,0.448,24,1,24z M8,4v2H6V4H8z M2,10.5L5.333,8h3.334L12,10.5V22H2V10.5z"/>
<path d="M23,7h-3c-0.552,0-1,0.448-1,1s0.448,1,1,1h3c0.552,0,1-0.448,1-1S23.552,7,23,7z"/>
<path d="M17.5,4.5c0.256,0,0.512-0.098,0.707-0.293l2-2c0.391-0.391,0.391-1.023,0-1.414s-1.023-0.391-1.414,0l-2,2
	c-0.391,0.391-0.391,1.023,0,1.414C16.988,4.402,17.244,4.5,17.5,4.5z"/>
<path d="M16.793,13.207l2,2c0.195,0.195,0.451,0.293,0.707,0.293s0.512-0.098,0.707-0.293c0.391-0.391,0.391-1.023,0-1.414l-2-2
	c-0.391-0.391-1.023-0.391-1.414,0S16.402,12.816,16.793,13.207z"/>
</svg>
