<?xml version="1.0" encoding="utf-8"?>
<!-- Generator: Adobe Illustrator 19.2.1, SVG Export Plug-In . SVG Version: 6.00 Build 0)  -->
<!DOCTYPE svg PUBLIC "-//W3C//DTD SVG 1.1//EN" "http://www.w3.org/Graphics/SVG/1.1/DTD/svg11.dtd">
<svg version="1.1" id="Layer_1" xmlns="http://www.w3.org/2000/svg" xmlns:xlink="http://www.w3.org/1999/xlink" x="0px" y="0px"
	 width="24px" height="24px" viewBox="0 0 24 24" enable-background="new 0 0 24 24" xml:space="preserve">
<path fill="#222221" d="M23,0H1C0.448,0,0,0.448,0,1v22c0,0.552,0.448,1,1,1h22c0.552,0,1-0.448,1-1V1C24,0.448,23.552,0,23,0z
	 M2,17h5v5H2V17z M22,22H9v-6c0-0.552-0.448-1-1-1H2V2h20V22z"/>
<path fill="#222221" d="M11,14c0.256,0,0.512-0.098,0.707-0.293L18,7.414V12c0,0.552,0.448,1,1,1s1-0.448,1-1V5
	c0-0.13-0.027-0.26-0.077-0.382c-0.101-0.244-0.296-0.439-0.541-0.541C19.26,4.027,19.13,4,19,4h-7c-0.552,0-1,0.448-1,1
	s0.448,1,1,1h4.586l-6.293,6.293c-0.391,0.391-0.391,1.023,0,1.414C10.488,13.902,10.744,14,11,14z"/>
</svg>
