<?xml version="1.0" encoding="utf-8"?>
<!-- Generator: Adobe Illustrator 19.2.1, SVG Export Plug-In . SVG Version: 6.00 Build 0)  -->
<!DOCTYPE svg PUBLIC "-//W3C//DTD SVG 1.1//EN" "http://www.w3.org/Graphics/SVG/1.1/DTD/svg11.dtd">
<svg version="1.1" id="Layer_1" xmlns="http://www.w3.org/2000/svg" xmlns:xlink="http://www.w3.org/1999/xlink" x="0px" y="0px"
	 width="24px" height="24px" viewBox="0 0 24 24" enable-background="new 0 0 24 24" xml:space="preserve">
<path fill="#222221" d="M23,0H1C0.447,0,0,0.448,0,1v13c0,0.552,0.447,1,1,1h6.613l1.439,4.316c0.123,0.37,0.451,0.635,0.839,0.678
	C9.928,19.998,9.964,20,10,20c0.349,0,0.676-0.182,0.857-0.485l2.341-3.902l5.094,5.094C18.488,20.902,18.744,21,19,21
	s0.512-0.098,0.707-0.293c0.391-0.391,0.391-1.023,0-1.414l-5.094-5.094l3.902-2.341c0.335-0.201,0.522-0.578,0.479-0.966
	s-0.308-0.716-0.678-0.84l-12-4C5.957,5.93,5.561,6.025,5.293,6.293S4.932,6.957,5.052,7.316L6.946,13H2V2h20v11h-2
	c-0.553,0-1,0.448-1,1s0.447,1,1,1h3c0.553,0,1-0.448,1-1V1C24,0.448,23.553,0,23,0z M15.621,11.261l-3.136,1.881
	c-0.028,0.017-0.042,0.048-0.067,0.067c-0.041,0.03-0.088,0.046-0.125,0.083s-0.053,0.084-0.083,0.125
	c-0.019,0.026-0.051,0.04-0.067,0.067l-1.882,3.136l-2.68-8.04L15.621,11.261z"/>
</svg>
