<?xml version="1.0" encoding="utf-8"?>
<!-- Generator: Adobe Illustrator 19.2.1, SVG Export Plug-In . SVG Version: 6.00 Build 0)  -->
<!DOCTYPE svg PUBLIC "-//W3C//DTD SVG 1.1//EN" "http://www.w3.org/Graphics/SVG/1.1/DTD/svg11.dtd">
<svg version="1.1" id="Layer_1" xmlns="http://www.w3.org/2000/svg" xmlns:xlink="http://www.w3.org/1999/xlink" x="0px" y="0px"
	 width="24px" height="24px" viewBox="0 0 24 24" enable-background="new 0 0 24 24" xml:space="preserve">
<path fill="#222221" d="M12.191,0C6.212,0,1.336,4.597,0.85,10.692c-0.036,0.456,0.242,0.877,0.675,1.025
	c0.436,0.144,0.912-0.018,1.161-0.402c0.011-0.016,0.78-1.186,2.143-2.393c-1.54,2.337-1.939,5.352-1.059,8.196
	c0.947,3.06,3.243,5.383,6.299,6.374c0.909,0.295,1.912,0.425,2.941,0.425c2.721,0,5.632-0.907,7.515-2.066
	C20.82,21.67,21,21.348,21,21v-4c0-0.358-0.192-0.689-0.503-0.868c-0.311-0.177-0.692-0.176-1.003,0.006
	c-1.823,1.069-3.213,1.272-5.141,1.272c-3.157,0-4.462-1.373-4.997-2.41H22c0.553,0,1-0.447,1-1v-3.024
	C22.799,2.883,17.285,0,12.191,0z M21,13H8c-0.283,0-0.553,0.12-0.743,0.33c-0.189,0.211-0.28,0.491-0.252,0.773
	c0.191,1.835,1.973,5.307,7.349,5.307c1.654,0,3.086-0.15,4.646-0.793v1.803c-2.261,1.201-5.889,1.96-8.314,1.171
	c-2.429-0.788-4.253-2.633-5.005-5.062c-0.746-2.41-0.32-5.061,1.121-6.932C6.874,9.5,6.949,9.403,7.026,9.308
	C7.009,9.532,7,9.764,7,10c0,0.553,0.447,1,1,1h8c0.512,0,0.941-0.387,0.994-0.896c0.012-0.104,0.25-2.579-1.31-4.311
	c-0.945-1.051-2.303-1.585-4.034-1.589c-0.006,0-0.012,0-0.019,0C10.987,4.19,10.279,4.277,9.579,4.41
	C9.562,4.414,9.543,4.417,9.525,4.421C8.065,4.706,6.59,5.257,5.431,5.979C4.877,6.322,4.371,6.694,3.915,7.07
	C5.493,4.021,8.602,2,12.191,2c2.014,0,8.602,0.65,8.809,9V13z M9.072,9c0.358-2.314,1.964-2.678,2.64-2.794
	c1.104,0.014,1.938,0.322,2.479,0.918C14.702,7.686,14.9,8.426,14.974,9H9.072z"/>
</svg>
