<?xml version="1.0" encoding="utf-8"?>
<!-- Generator: Adobe Illustrator 19.2.1, SVG Export Plug-In . SVG Version: 6.00 Build 0)  -->
<!DOCTYPE svg PUBLIC "-//W3C//DTD SVG 1.1//EN" "http://www.w3.org/Graphics/SVG/1.1/DTD/svg11.dtd">
<svg version="1.1" id="Layer_1" xmlns="http://www.w3.org/2000/svg" xmlns:xlink="http://www.w3.org/1999/xlink" x="0px" y="0px"
	 width="24px" height="24px" viewBox="0 0 24 24" enable-background="new 0 0 24 24" xml:space="preserve">
<path fill="#222221" d="M12,0C8.704,0,5.716,1.336,3.545,3.494c-0.009,0.009-0.021,0.011-0.03,0.02s-0.012,0.021-0.02,0.03
	C1.336,5.716,0,8.704,0,12c0,6.617,5.383,12,12,12c3.296,0,6.284-1.336,8.455-3.494c0.009-0.009,0.021-0.011,0.03-0.02
	s0.012-0.021,0.02-0.03C22.664,18.284,24,15.296,24,12C24,5.383,18.617,0,12,0z M2.051,13H4c0.553,0,1-0.447,1-1s-0.447-1-1-1H2.051
	c0.2-2.008,0.998-3.842,2.211-5.324L5.636,7.05c0.195,0.195,0.451,0.293,0.707,0.293S6.854,7.245,7.05,7.05
	c0.391-0.391,0.391-1.023,0-1.414L5.676,4.262C7.158,3.049,8.992,2.251,11,2.051V4c0,0.553,0.447,1,1,1s1-0.447,1-1V2.051
	c4.717,0.471,8.479,4.232,8.949,8.949H20c-0.553,0-1,0.447-1,1s0.447,1,1,1h1.949c-0.2,2.008-0.998,3.842-2.211,5.324l-1.374-1.374
	c-0.391-0.391-1.023-0.391-1.414,0s-0.391,1.023,0,1.414l1.374,1.374c-1.482,1.213-3.316,2.011-5.324,2.211V20c0-0.553-0.447-1-1-1
	s-1,0.447-1,1v1.949C6.283,21.479,2.521,17.717,2.051,13z"/>
<path fill="#222221" d="M14.447,14.895c0.193-0.097,0.351-0.254,0.447-0.447l4-8c0.192-0.385,0.117-0.85-0.188-1.154
	c-0.305-0.306-0.769-0.379-1.154-0.188l-8,4C9.359,9.202,9.202,9.359,9.105,9.553l-4,8c-0.192,0.385-0.117,0.85,0.188,1.154
	C5.485,18.899,5.741,19,6,19c0.152,0,0.305-0.034,0.447-0.105L14.447,14.895z M10.745,10.745l5.019-2.509l-2.509,5.019l-5.019,2.509
	L10.745,10.745z"/>
</svg>
