<?xml version="1.0" encoding="utf-8"?>
<!-- Generator: Adobe Illustrator 19.2.1, SVG Export Plug-In . SVG Version: 6.00 Build 0)  -->
<!DOCTYPE svg PUBLIC "-//W3C//DTD SVG 1.1//EN" "http://www.w3.org/Graphics/SVG/1.1/DTD/svg11.dtd">
<svg version="1.1" id="Layer_1" xmlns="http://www.w3.org/2000/svg" xmlns:xlink="http://www.w3.org/1999/xlink" x="0px" y="0px"
	 width="24px" height="24px" viewBox="0 0 24 24" enable-background="new 0 0 24 24" xml:space="preserve">
<path fill="#222221" d="M23.965,3.777C23.598,0.813,16.344,0.007,12,0.007S0.402,0.813,0.035,3.777
	C0.025,3.818,0.02,3.858,0.016,3.901C0.014,3.937,0,3.97,0,4.007c0,0.056,0.02,0.106,0.024,0.161
	c0.003,0.021-0.003,0.04,0.002,0.061l0.021,0.088c0.02,0.116,0.04,0.232,0.08,0.341l3.878,16.486
	c0.199,2.653,6.149,2.862,7.995,2.862s7.796-0.209,7.995-2.862l3.878-16.486c0.04-0.109,0.061-0.225,0.08-0.341l0.021-0.088
	c0.005-0.021-0.002-0.04,0.002-0.061C23.98,4.113,24,4.063,24,4.007c0-0.037-0.014-0.07-0.016-0.106
	C23.98,3.858,23.975,3.818,23.965,3.777z M12,2.007c5.887,0,9.53,1.261,9.974,1.985l-0.01,0.042C21.488,4.76,17.855,6.007,12,6.007
	c-5.771,0-9.382-1.211-9.94-1.867L2.027,3.999C2.449,3.276,6.093,2.007,12,2.007z M18.026,20.778
	c-0.01,0.042-0.017,0.084-0.021,0.127c-0.324,0.369-2.175,1.102-6.005,1.102s-5.681-0.733-6.005-1.102
	c-0.005-0.043-0.012-0.085-0.021-0.127L2.656,6.672C5.258,7.68,9.226,8.007,12,8.007s6.742-0.327,9.344-1.335L18.026,20.778z"/>
</svg>
