<?xml version="1.0" encoding="utf-8"?>
<!-- Generator: Adobe Illustrator 19.2.1, SVG Export Plug-In . SVG Version: 6.00 Build 0)  -->
<!DOCTYPE svg PUBLIC "-//W3C//DTD SVG 1.1//EN" "http://www.w3.org/Graphics/SVG/1.1/DTD/svg11.dtd">
<svg version="1.1" id="Layer_1" xmlns="http://www.w3.org/2000/svg" xmlns:xlink="http://www.w3.org/1999/xlink" x="0px" y="0px"
	 width="24px" height="24px" viewBox="0 0 24 24" enable-background="new 0 0 24 24" xml:space="preserve">
<path d="M2,17c-0.553,0-1,0.448-1,1v4c0,0.552,0.447,1,1,1h4c0.553,0,1-0.448,1-1v-1h10v1c0,0.552,0.447,1,1,1h4
	c0.553,0,1-0.448,1-1v-4c0-0.552-0.447-1-1-1h-1V7h1c0.553,0,1-0.448,1-1V2c0-0.552-0.447-1-1-1h-4c-0.553,0-1,0.448-1,1v1H7V2
	c0-0.552-0.447-1-1-1H2C1.447,1,1,1.448,1,2v4c0,0.552,0.447,1,1,1h1v10H2z M5,21H3v-2h2V21z M21,21h-2v-2h2V21z M19,3h2v2h-2V3z
	 M3,3h2v2H3V3z M5,7h1c0.553,0,1-0.448,1-1V5h10v1c0,0.552,0.447,1,1,1h1v10h-1c-0.553,0-1,0.448-1,1v1H7v-1c0-0.552-0.447-1-1-1H5
	V7z"/>
</svg>
