<?xml version="1.0" encoding="utf-8"?>
<!-- Generator: Adobe Illustrator 19.2.1, SVG Export Plug-In . SVG Version: 6.00 Build 0)  -->
<!DOCTYPE svg PUBLIC "-//W3C//DTD SVG 1.1//EN" "http://www.w3.org/Graphics/SVG/1.1/DTD/svg11.dtd">
<svg version="1.1" id="Layer_1" xmlns="http://www.w3.org/2000/svg" xmlns:xlink="http://www.w3.org/1999/xlink" x="0px" y="0px"
	 width="24px" height="24px" viewBox="0 0 24 24" enable-background="new 0 0 24 24" xml:space="preserve">
<path fill="#222221" d="M6,15h3v3c0,0.553,0.447,1,1,1h8c0.553,0,1-0.447,1-1v-8c0-0.552-0.447-1-1-1h-3V6c0-0.552-0.447-1-1-1H6
	C5.447,5,5,5.448,5,6v8C5,14.553,5.447,15,6,15z M17,11v6h-6v-2h3c0.553,0,1-0.447,1-1v-3H17z M7,7h6v6H7V7z"/>
<path fill="#222221" d="M23,0H1C0.447,0,0,0.448,0,1v22c0,0.553,0.447,1,1,1h22c0.553,0,1-0.447,1-1V1C24,0.448,23.553,0,23,0z
	 M22,22H2V2h20V22z"/>
</svg>
