<?xml version="1.0" encoding="utf-8"?>
<!-- Generator: Adobe Illustrator 19.2.1, SVG Export Plug-In . SVG Version: 6.00 Build 0)  -->
<!DOCTYPE svg PUBLIC "-//W3C//DTD SVG 1.1//EN" "http://www.w3.org/Graphics/SVG/1.1/DTD/svg11.dtd">
<svg version="1.1" id="Layer_1" xmlns="http://www.w3.org/2000/svg" xmlns:xlink="http://www.w3.org/1999/xlink" x="0px" y="0px"
	 width="24px" height="24px" viewBox="0 0 24 24" enable-background="new 0 0 24 24" xml:space="preserve">
<path d="M23,11h-3V8c0-0.553-0.447-1-1-1h-5c-0.553,0-1,0.447-1,1v3h-2V5c0-0.553-0.447-1-1-1H5C4.447,4,4,4.447,4,5v6H1
	c-0.553,0-1,0.447-1,1s0.447,1,1,1h3v6c0,0.553,0.447,1,1,1h5c0.553,0,1-0.447,1-1v-6h2v3c0,0.553,0.447,1,1,1h5
	c0.553,0,1-0.447,1-1v-3h3c0.553,0,1-0.447,1-1S23.553,11,23,11z M9,18H6V6h3V18z M18,15h-3V9h3V15z"/>
</svg>
