<?xml version="1.0" encoding="utf-8"?>
<!-- Generator: Adobe Illustrator 19.2.1, SVG Export Plug-In . SVG Version: 6.00 Build 0)  -->
<!DOCTYPE svg PUBLIC "-//W3C//DTD SVG 1.1//EN" "http://www.w3.org/Graphics/SVG/1.1/DTD/svg11.dtd">
<svg version="1.1" id="Layer_1" xmlns="http://www.w3.org/2000/svg" xmlns:xlink="http://www.w3.org/1999/xlink" x="0px" y="0px"
	 width="24px" height="24px" viewBox="0 0 24 24" enable-background="new 0 0 24 24" xml:space="preserve">
<path d="M1,24h20c0.404,0,0.769-0.244,0.924-0.617c0.155-0.374,0.069-0.804-0.217-1.09l-20-20C1.42,2.007,0.992,1.92,0.617,2.076
	C0.244,2.231,0,2.596,0,3v20C0,23.552,0.448,24,1,24z M18.586,22H2v-2h1c0.552,0,1-0.448,1-1s-0.448-1-1-1H2v-2h1
	c0.552,0,1-0.448,1-1s-0.448-1-1-1H2v-2h1c0.552,0,1-0.448,1-1s-0.448-1-1-1H2V5.414L18.586,22z"/>
<path d="M6,20h5c0.404,0,0.769-0.244,0.924-0.617c0.155-0.374,0.069-0.804-0.217-1.09l-5-5c-0.287-0.287-0.715-0.373-1.09-0.217
	C5.244,13.231,5,13.596,5,14v5C5,19.552,5.448,20,6,20z M7,16.414L8.586,18H7V16.414z"/>
</svg>
