<?xml version="1.0" encoding="utf-8"?>
<!-- Generator: Adobe Illustrator 19.2.1, SVG Export Plug-In . SVG Version: 6.00 Build 0)  -->
<!DOCTYPE svg PUBLIC "-//W3C//DTD SVG 1.1//EN" "http://www.w3.org/Graphics/SVG/1.1/DTD/svg11.dtd">
<svg version="1.1" id="Layer_1" xmlns="http://www.w3.org/2000/svg" xmlns:xlink="http://www.w3.org/1999/xlink" x="0px" y="0px"
	 width="24px" height="24px" viewBox="0 0 24 24" enable-background="new 0 0 24 24" xml:space="preserve">
<path d="M4,7c1.654,0,3-1.346,3-3S5.654,1,4,1S1,2.346,1,4S2.346,7,4,7z M4,3c0.552,0,1,0.448,1,1S4.552,5,4,5S3,4.552,3,4
	S3.448,3,4,3z"/>
<path d="M4,15c1.654,0,3-1.346,3-3S5.654,9,4,9s-3,1.346-3,3S2.346,15,4,15z M4,11c0.552,0,1,0.448,1,1s-0.448,1-1,1s-1-0.448-1-1
	S3.448,11,4,11z"/>
<path d="M4,23c1.654,0,3-1.346,3-3s-1.346-3-3-3s-3,1.346-3,3S2.346,23,4,23z M4,19c0.552,0,1,0.448,1,1s-0.448,1-1,1s-1-0.448-1-1
	S3.448,19,4,19z"/>
<path d="M22,3H10C9.447,3,9,3.447,9,4s0.447,1,1,1h12c0.553,0,1-0.447,1-1S22.553,3,22,3z"/>
<path d="M22,11H10c-0.553,0-1,0.447-1,1s0.447,1,1,1h12c0.553,0,1-0.447,1-1S22.553,11,22,11z"/>
<path d="M23,20c0-0.553-0.447-1-1-1H10c-0.553,0-1,0.447-1,1s0.447,1,1,1h12C22.553,21,23,20.553,23,20z"/>
</svg>
