<?xml version="1.0" encoding="utf-8"?>
<!-- Generator: Adobe Illustrator 19.2.1, SVG Export Plug-In . SVG Version: 6.00 Build 0)  -->
<!DOCTYPE svg PUBLIC "-//W3C//DTD SVG 1.1//EN" "http://www.w3.org/Graphics/SVG/1.1/DTD/svg11.dtd">
<svg version="1.1" id="Layer_1" xmlns="http://www.w3.org/2000/svg" xmlns:xlink="http://www.w3.org/1999/xlink" x="0px" y="0px"
	 width="24px" height="24px" viewBox="0 0 24 24" enable-background="new 0 0 24 24" xml:space="preserve">
<path d="M1.027,20.23c0.08,0.337,0.328,0.609,0.657,0.719l3,1C4.788,21.983,4.894,22,5,22c0.261,0,0.517-0.103,0.707-0.293L8,19.414
	l1.293,1.293C9.488,20.902,9.744,21,10,21s0.512-0.098,0.707-0.293l12-12c0.391-0.391,0.391-1.023,0-1.414l-6-6
	c-0.391-0.391-1.023-0.391-1.414,0l-12,12c-0.391,0.391-0.391,1.023,0,1.414L4.586,16l-3.293,3.293
	C1.048,19.538,0.947,19.893,1.027,20.23z M16,3.414l1.293,1.293L12,10l2,2l5.293-5.293L20.586,8L10,18.586L5.414,14L16,3.414z
	 M6,17.414L6.586,18L4.73,19.856l-0.879-0.293L6,17.414z"/>
</svg>
