<?xml version="1.0" encoding="utf-8"?>
<!-- Generator: Adobe Illustrator 19.2.1, SVG Export Plug-In . SVG Version: 6.00 Build 0)  -->
<!DOCTYPE svg PUBLIC "-//W3C//DTD SVG 1.1//EN" "http://www.w3.org/Graphics/SVG/1.1/DTD/svg11.dtd">
<svg version="1.1" id="Layer_1" xmlns="http://www.w3.org/2000/svg" xmlns:xlink="http://www.w3.org/1999/xlink" x="0px" y="0px"
	 width="24px" height="24px" viewBox="0 0 24 24" enable-background="new 0 0 24 24" xml:space="preserve">
<path d="M2,24h20c0.553,0,1-0.448,1-1V2c0-0.552-0.447-1-1-1h-4c0-0.552-0.447-1-1-1H7C6.447,0,6,0.448,6,1H2C1.447,1,1,1.448,1,2
	v21C1,23.552,1.447,24,2,24z M16,2v4h-1.171C14.416,4.836,13.304,4,12,4S9.584,4.836,9.171,6H8V2H16z M3,3h3v4c0,0.552,0.447,1,1,1
	h3c0.553,0,1-0.448,1-1c0-0.551,0.448-1,1-1s1,0.449,1,1c0,0.552,0.447,1,1,1h3c0.553,0,1-0.448,1-1V3h3v19H3V3z"/>
<path d="M14.293,12.293L11,15.586l-1.293-1.293c-0.391-0.391-1.023-0.391-1.414,0s-0.391,1.023,0,1.414l2,2
	C10.488,17.902,10.744,18,11,18s0.512-0.098,0.707-0.293l4-4c0.391-0.391,0.391-1.023,0-1.414S14.684,11.902,14.293,12.293z"/>
</svg>
