<?xml version="1.0" encoding="utf-8"?>
<!-- Generator: Adobe Illustrator 19.2.1, SVG Export Plug-In . SVG Version: 6.00 Build 0)  -->
<!DOCTYPE svg PUBLIC "-//W3C//DTD SVG 1.1//EN" "http://www.w3.org/Graphics/SVG/1.1/DTD/svg11.dtd">
<svg version="1.1" id="Layer_1" xmlns="http://www.w3.org/2000/svg" xmlns:xlink="http://www.w3.org/1999/xlink" x="0px" y="0px"
	 width="24px" height="24px" viewBox="0 0 24 24" enable-background="new 0 0 24 24" xml:space="preserve">
<path fill="#222221" d="M5,23c0,0.552,0.447,1,1,1h12c0.553,0,1-0.448,1-1c0-1.103,0.897-2,2-2c0.553,0,1-0.448,1-1V4
	c0-0.552-0.447-1-1-1c-1.103,0-2-0.897-2-2c0-0.552-0.447-1-1-1H6C5.447,0,5,0.448,5,1c0,1.103-0.897,2-2,2C2.447,3,2,3.448,2,4v16
	c0,0.552,0.447,1,1,1C4.103,21,5,21.897,5,23z M4,4.874C5.403,4.511,6.511,3.404,6.873,2h10.254c0.362,1.404,1.47,2.511,2.873,2.874
	v14.253c-1.403,0.363-2.511,1.47-2.873,2.874H6.873C6.511,20.596,5.403,19.489,4,19.126V4.874z"/>
<path fill="#222221" d="M12,20c3.309,0,6-3.589,6-8s-2.691-8-6-8s-6,3.589-6,8S8.691,20,12,20z M12,6c2.168,0,4,2.748,4,6
	s-1.832,6-4,6s-4-2.748-4-6S9.832,6,12,6z"/>
</svg>
