<?xml version="1.0" encoding="utf-8"?>
<!-- Generator: Adobe Illustrator 19.2.1, SVG Export Plug-In . SVG Version: 6.00 Build 0)  -->
<!DOCTYPE svg PUBLIC "-//W3C//DTD SVG 1.1//EN" "http://www.w3.org/Graphics/SVG/1.1/DTD/svg11.dtd">
<svg version="1.1" id="Layer_1" xmlns="http://www.w3.org/2000/svg" xmlns:xlink="http://www.w3.org/1999/xlink" x="0px" y="0px"
	 width="24px" height="24px" viewBox="0 0 24 24" enable-background="new 0 0 24 24" xml:space="preserve">
<path d="M22.708,8.292L21.415,7l0.671-0.671c1.217-1.217,1.217-3.197,0-4.414c-1.217-1.217-3.197-1.217-4.414,0L17,2.585
	l-1.293-1.293c-0.391-0.391-1.023-0.391-1.414,0l-3,3c-0.391,0.391-0.391,1.023,0,1.414L12.586,7l-8.293,8.293
	c-0.113,0.113-0.198,0.252-0.246,0.405c-0.156,0.491-0.37,1.036-0.52,1.34C2.097,17.265,1,18.507,1,20c0,1.654,1.346,3,3,3
	c1.494,0,2.736-1.097,2.963-2.528c0.301-0.149,0.84-0.361,1.34-0.52c0.152-0.048,0.291-0.133,0.404-0.246L17,11.414l1.293,1.293
	C18.489,12.902,18.745,13,19,13s0.512-0.098,0.707-0.293l3-3C23.098,9.316,23.098,8.683,22.708,8.292z M7.463,18.122
	C5.411,18.801,5,19.329,5,20c0,0.551-0.449,1-1,1s-1-0.449-1-1s0.449-1,1-1c0.671,0,1.199-0.411,1.878-2.463L14,8.414L15.586,10
	L7.463,18.122z M20.672,4.914l-1.378,1.378c-0.391,0.391-0.391,1.023,0,1.414L20.586,9L19,10.585L13.415,5L15,3.414l1.293,1.293
	c0.391,0.391,1.023,0.391,1.414,0l1.378-1.378c0.438-0.438,1.148-0.438,1.586,0C21.109,3.766,21.109,4.477,20.672,4.914z"/>
</svg>
