<?xml version="1.0" encoding="utf-8"?>
<!-- Generator: Adobe Illustrator 19.2.1, SVG Export Plug-In . SVG Version: 6.00 Build 0)  -->
<!DOCTYPE svg PUBLIC "-//W3C//DTD SVG 1.1//EN" "http://www.w3.org/Graphics/SVG/1.1/DTD/svg11.dtd">
<svg version="1.1" id="Layer_1" xmlns="http://www.w3.org/2000/svg" xmlns:xlink="http://www.w3.org/1999/xlink" x="0px" y="0px"
	 width="24px" height="24px" viewBox="0 0 24 24" enable-background="new 0 0 24 24" xml:space="preserve">
<path d="M23,4h-2V3c0-0.553-0.448-1-1-1h-6c-0.768,0-1.469,0.29-2,0.766C11.469,2.29,10.768,2,10,2H4C3.448,2,3,2.447,3,3v1H1
	C0.448,4,0,4.447,0,5v16c0,0.553,0.448,1,1,1h22c0.552,0,1-0.447,1-1V5C24,4.447,23.552,4,23,4z M5,4h5c0.551,0,1,0.448,1,1v6
	c0,0.553,0.448,1,1,1s1-0.447,1-1V5c0-0.552,0.449-1,1-1h5v12h-5c-0.768,0-1.469,0.29-2,0.766C11.469,16.29,10.768,16,10,16H5V4z
	 M22,20H12H2V6h1v11c0,0.553,0.448,1,1,1h6c0.551,0,1,0.448,1,1c0,0.553,0.448,1,1,1s1-0.447,1-1c0-0.552,0.449-1,1-1h6
	c0.552,0,1-0.447,1-1V6h1V20z"/>
</svg>
