<?xml version="1.0" encoding="utf-8"?>
<!-- Generator: Adobe Illustrator 19.2.1, SVG Export Plug-In . SVG Version: 6.00 Build 0)  -->
<!DOCTYPE svg PUBLIC "-//W3C//DTD SVG 1.1//EN" "http://www.w3.org/Graphics/SVG/1.1/DTD/svg11.dtd">
<svg version="1.1" id="Layer_1" xmlns="http://www.w3.org/2000/svg" xmlns:xlink="http://www.w3.org/1999/xlink" x="0px" y="0px"
	 width="24px" height="24px" viewBox="0 0 24 24" enable-background="new 0 0 24 24" xml:space="preserve">
<path d="M22.86,2.14c-1.494-1.494-3.922-1.492-5.414,0l-5.153,5.153l-10,10c-0.3,0.3-0.378,0.757-0.194,1.14
	C2.267,18.782,2.619,19,3,19c0.037,0,0.074-0.002,0.111-0.006l9-1c0.388-0.043,0.715-0.308,0.838-0.677l0.925-2.776L16,12.414
	l0.293,0.293C16.488,12.902,16.744,13,17,13s0.512-0.098,0.707-0.293l5.153-5.153C24.353,6.062,24.353,3.633,22.86,2.14z
	 M12.293,13.293c-0.11,0.11-0.192,0.244-0.242,0.391l-0.798,2.393l-5.53,0.615L13,9.414L14.586,11L12.293,13.293z M21.446,6.14
	L17,10.586L14.414,8l4.446-4.446c0.713-0.713,1.873-0.713,2.586,0C22.158,4.267,22.159,5.427,21.446,6.14z"/>
</svg>
