<?xml version="1.0" encoding="utf-8"?>
<!-- Generator: Adobe Illustrator 19.2.1, SVG Export Plug-In . SVG Version: 6.00 Build 0)  -->
<!DOCTYPE svg PUBLIC "-//W3C//DTD SVG 1.1//EN" "http://www.w3.org/Graphics/SVG/1.1/DTD/svg11.dtd">
<svg version="1.1" id="Layer_1" xmlns="http://www.w3.org/2000/svg" xmlns:xlink="http://www.w3.org/1999/xlink" x="0px" y="0px"
	 width="24px" height="24px" viewBox="0 0 24 24" enable-background="new 0 0 24 24" xml:space="preserve">
<path d="M23,1H1C0.448,1,0,1.448,0,2v20c0,0.552,0.448,1,1,1h22c0.552,0,1-0.448,1-1V2C24,1.448,23.552,1,23,1z M22,5H7V3h15V5z
	 M5,3v2H2V3H5z M2,21V7h20v14H2z"/>
<path d="M5.707,10.293c-0.391-0.391-1.023-0.391-1.414,0s-0.391,1.023,0,1.414L5.586,13l-1.293,1.293
	c-0.391,0.391-0.391,1.023,0,1.414C4.488,15.902,4.744,16,5,16s0.512-0.098,0.707-0.293l2-2c0.391-0.391,0.391-1.023,0-1.414
	L5.707,10.293z"/>
<path d="M14,14h-4c-0.552,0-1,0.448-1,1s0.448,1,1,1h4c0.552,0,1-0.448,1-1S14.552,14,14,14z"/>
</svg>
