<?xml version="1.0" encoding="utf-8"?>
<!-- Generator: Adobe Illustrator 19.2.1, SVG Export Plug-In . SVG Version: 6.00 Build 0)  -->
<!DOCTYPE svg PUBLIC "-//W3C//DTD SVG 1.1//EN" "http://www.w3.org/Graphics/SVG/1.1/DTD/svg11.dtd">
<svg version="1.1" id="Layer_1" xmlns="http://www.w3.org/2000/svg" xmlns:xlink="http://www.w3.org/1999/xlink" x="0px" y="0px"
	 width="24px" height="24px" viewBox="0 0 24 24" enable-background="new 0 0 24 24" xml:space="preserve">
<path d="M23,16h-1.009l-2.866-8.025C19.615,7.911,20,7.508,20,7V3c0-0.552-0.448-1-1-1h-4c-0.552,0-1,0.448-1,1v1h-4V3
	c0-0.552-0.448-1-1-1H5C4.448,2,4,2.448,4,3v4c0,0.552,0.448,1,1,1h0.103l-2.286,8H1c-0.552,0-1,0.448-1,1v4c0,0.552,0.448,1,1,1h4
	c0.552,0,1-0.448,1-1v-1h12v1c0,0.552,0.448,1,1,1h4c0.552,0,1-0.448,1-1v-4C24,16.448,23.552,16,23,16z M16,4h2v2h-0.177
	c-0.054-0.006-0.107-0.003-0.162,0H16V4z M6,4h2v0.998C8,4.998,8,4.999,8,5s0,0.002,0,0.002V6H6.67C6.521,5.964,6.374,5.969,6.233,6
	H6V4z M2,20v-2h1.507c0.021,0.001,0.042,0.009,0.062,0.009c0.018,0,0.035-0.008,0.054-0.009H4v0.794
	C3.985,18.863,3.958,18.927,3.958,19S3.985,19.137,4,19.206V20H2z M6,18v-1c0-0.552-0.448-1-1-1H4.897l2.286-8H9
	c0.552,0,1-0.448,1-1V6h4v1c0,0.552,0.448,1,1,1h2.01l2.857,8H19c-0.552,0-1,0.448-1,1v1H6z M22,20h-2v-2h2V20z"/>
</svg>
