<?xml version="1.0" encoding="utf-8"?>
<!-- Generator: Adobe Illustrator 19.2.1, SVG Export Plug-In . SVG Version: 6.00 Build 0)  -->
<!DOCTYPE svg PUBLIC "-//W3C//DTD SVG 1.1//EN" "http://www.w3.org/Graphics/SVG/1.1/DTD/svg11.dtd">
<svg version="1.1" id="Layer_1" xmlns="http://www.w3.org/2000/svg" xmlns:xlink="http://www.w3.org/1999/xlink" x="0px" y="0px"
	 width="24px" height="24px" viewBox="0 0 24 24" enable-background="new 0 0 24 24" xml:space="preserve">
<path d="M1.707,17.121L5.586,21H3c-0.552,0-1,0.448-1,1s0.448,1,1,1h18c0.552,0,1-0.448,1-1s-0.448-1-1-1h-8.586l9.66-9.66
	c1.17-1.169,1.17-3.073,0-4.242l-5.172-5.172c-1.133-1.133-3.109-1.133-4.242,0L1.707,12.879
	C0.537,14.048,0.537,15.952,1.707,17.121z M14.074,3.34c0.189-0.188,0.44-0.292,0.707-0.292s0.518,0.104,0.707,0.292l5.172,5.172
	c0.39,0.39,0.39,1.024,0,1.414L16,14.586L9.414,8L14.074,3.34z M3.121,14.293L8,9.414L14.586,16l-5,5H8.414l-5.293-5.293
	C2.731,15.317,2.731,14.683,3.121,14.293z"/>
</svg>
