<?xml version="1.0" encoding="utf-8"?>
<!-- Generator: Adobe Illustrator 19.2.1, SVG Export Plug-In . SVG Version: 6.00 Build 0)  -->
<!DOCTYPE svg PUBLIC "-//W3C//DTD SVG 1.1//EN" "http://www.w3.org/Graphics/SVG/1.1/DTD/svg11.dtd">
<svg version="1.1" id="Layer_1" xmlns="http://www.w3.org/2000/svg" xmlns:xlink="http://www.w3.org/1999/xlink" x="0px" y="0px"
	 width="24px" height="24px" viewBox="0 0 24 24" enable-background="new 0 0 24 24" xml:space="preserve">
<path d="M23,1H1C0.448,1,0,1.447,0,2v20c0,0.553,0.448,1,1,1h22c0.552,0,1-0.447,1-1V2C24,1.447,23.552,1,23,1z M22,3v9.865
	l-4.36-3.633c-0.421-0.35-1.043-0.298-1.399,0.118l-5.371,6.266l-4.245-3.396c-0.365-0.291-0.884-0.291-1.249,0L2,14.919V3H22z
	 M2,21v-3.519l4-3.201l4.375,3.501c0.421,0.336,1.034,0.279,1.384-0.131l5.358-6.251L22,15.469V21H2z"/>
<path d="M10,11c1.654,0,3-1.346,3-3s-1.346-3-3-3S7,6.346,7,8S8.346,11,10,11z M10,7c0.551,0,1,0.448,1,1s-0.449,1-1,1S9,8.552,9,8
	S9.449,7,10,7z"/>
</svg>
