<?xml version="1.0" encoding="utf-8"?>
<!-- Generator: Adobe Illustrator 19.2.1, SVG Export Plug-In . SVG Version: 6.00 Build 0)  -->
<!DOCTYPE svg PUBLIC "-//W3C//DTD SVG 1.1//EN" "http://www.w3.org/Graphics/SVG/1.1/DTD/svg11.dtd">
<svg version="1.1" id="Layer_1" xmlns="http://www.w3.org/2000/svg" xmlns:xlink="http://www.w3.org/1999/xlink" x="0px" y="0px"
	 width="24px" height="24px" viewBox="0 0 24 24" enable-background="new 0 0 24 24" xml:space="preserve">
<path fill="#222221" d="M16.908,8.581c-0.148-0.32-0.453-0.538-0.803-0.575C15.751,7.969,15.412,8.118,15.2,8.4L9.8,15.6L6.6,13.2
	c-0.238-0.178-0.542-0.242-0.83-0.174c-0.289,0.068-0.532,0.261-0.665,0.526l-4,8c-0.155,0.31-0.138,0.678,0.044,0.973
	S1.653,23,2,23h20c0.341,0,0.659-0.174,0.842-0.461c0.184-0.287,0.208-0.648,0.066-0.958L16.908,8.581z M3.618,21l2.74-5.481
	L9.4,17.8c0.443,0.332,1.07,0.242,1.4-0.2l4.995-6.659L20.437,21H3.618z"/>
<path fill="#222221" d="M8,9c2.206,0,4-1.794,4-4s-1.794-4-4-4S4,2.794,4,5S5.794,9,8,9z M8,3c1.103,0,2,0.897,2,2S9.103,7,8,7
	S6,6.103,6,5S6.897,3,8,3z"/>
</svg>
