<?xml version="1.0" encoding="utf-8"?>
<!-- Generator: Adobe Illustrator 19.2.1, SVG Export Plug-In . SVG Version: 6.00 Build 0)  -->
<!DOCTYPE svg PUBLIC "-//W3C//DTD SVG 1.1//EN" "http://www.w3.org/Graphics/SVG/1.1/DTD/svg11.dtd">
<svg version="1.1" id="Layer_1" xmlns="http://www.w3.org/2000/svg" xmlns:xlink="http://www.w3.org/1999/xlink" x="0px" y="0px"
	 width="24px" height="24px" viewBox="0 0 24 24" enable-background="new 0 0 24 24" xml:space="preserve">
<path fill="#222221" d="M1,10h8c0.552,0,1-0.448,1-1V1c0-0.552-0.448-1-1-1H1C0.448,0,0,0.448,0,1v8C0,9.552,0.448,10,1,10z M2,2h6
	v6H2V2z"/>
<path fill="#222221" d="M14.707,6.707L17,4.414V23c0,0.552,0.448,1,1,1s1-0.448,1-1V4.414l2.293,2.293C21.488,6.902,21.744,7,22,7
	s0.512-0.098,0.707-0.293c0.391-0.391,0.391-1.023,0-1.414l-4-4c-0.092-0.092-0.203-0.165-0.325-0.216
	c-0.245-0.101-0.52-0.101-0.764,0c-0.122,0.051-0.233,0.124-0.325,0.216l-4,4c-0.391,0.391-0.391,1.023,0,1.414
	S14.316,7.098,14.707,6.707z"/>
<path fill="#222221" d="M1,24h2c0.552,0,1-0.448,1-1s-0.448-1-1-1H2v-1c0-0.552-0.448-1-1-1s-1,0.448-1,1v2C0,23.552,0.448,24,1,24z
	"/>
<path fill="#222221" d="M10,15c0-0.552-0.448-1-1-1H7c-0.552,0-1,0.448-1,1s0.448,1,1,1h1v1c0,0.552,0.448,1,1,1s1-0.448,1-1V15z"/>
<path fill="#222221" d="M9,20c-0.552,0-1,0.448-1,1v1H7c-0.552,0-1,0.448-1,1s0.448,1,1,1h2c0.552,0,1-0.448,1-1v-2
	C10,20.448,9.552,20,9,20z"/>
<path fill="#222221" d="M1,18c0.552,0,1-0.448,1-1v-1h1c0.552,0,1-0.448,1-1s-0.448-1-1-1H1c-0.552,0-1,0.448-1,1v2
	C0,17.552,0.448,18,1,18z"/>
</svg>
