<?xml version="1.0" encoding="utf-8"?>
<!-- Generator: Adobe Illustrator 19.2.1, SVG Export Plug-In . SVG Version: 6.00 Build 0)  -->
<!DOCTYPE svg PUBLIC "-//W3C//DTD SVG 1.1//EN" "http://www.w3.org/Graphics/SVG/1.1/DTD/svg11.dtd">
<svg version="1.1" id="Layer_1" xmlns="http://www.w3.org/2000/svg" xmlns:xlink="http://www.w3.org/1999/xlink" x="0px" y="0px"
	 width="24px" height="24px" viewBox="0 0 24 24" enable-background="new 0 0 24 24" xml:space="preserve">
<path d="M4.293,22.707C4.488,22.902,4.744,23,5,23s0.512-0.098,0.707-0.293l13-13c0.391-0.391,0.391-1.023,0-1.414l-3-3
	c-0.391-0.391-1.023-0.391-1.414,0l-13,13c-0.391,0.391-0.391,1.023,0,1.414L4.293,22.707z M15,7.414L16.586,9L15,10.586L13.414,9
	L15,7.414z M12,10.414L13.586,12L5,20.586L3.414,19L12,10.414z"/>
<path d="M14,1v1c0,0.552,0.448,1,1,1s1-0.448,1-1V1c0-0.552-0.448-1-1-1S14,0.448,14,1z"/>
<path d="M21.364,2.636c-0.391-0.391-1.023-0.391-1.414,0l-0.707,0.707c-0.391,0.391-0.391,1.023,0,1.414
	c0.195,0.195,0.451,0.293,0.707,0.293s0.512-0.098,0.707-0.293l0.707-0.707C21.754,3.66,21.754,3.027,21.364,2.636z"/>
<path d="M23,8h-1c-0.552,0-1,0.448-1,1s0.448,1,1,1h1c0.552,0,1-0.448,1-1S23.552,8,23,8z"/>
<path d="M19.243,13.243c-0.391,0.391-0.391,1.023,0,1.414l0.707,0.707c0.195,0.195,0.451,0.293,0.707,0.293s0.512-0.098,0.707-0.293
	c0.391-0.391,0.391-1.023,0-1.414l-0.707-0.707C20.266,12.852,19.633,12.852,19.243,13.243z"/>
<path d="M8.636,2.636c-0.391,0.391-0.391,1.023,0,1.414l0.707,0.707C9.539,4.953,9.794,5.05,10.05,5.05s0.512-0.098,0.707-0.293
	c0.391-0.391,0.391-1.023,0-1.414L10.05,2.636C9.66,2.246,9.027,2.246,8.636,2.636z"/>
</svg>
