<?xml version="1.0" encoding="utf-8"?>
<!-- Generator: Adobe Illustrator 19.2.1, SVG Export Plug-In . SVG Version: 6.00 Build 0)  -->
<!DOCTYPE svg PUBLIC "-//W3C//DTD SVG 1.1//EN" "http://www.w3.org/Graphics/SVG/1.1/DTD/svg11.dtd">
<svg version="1.1" id="Layer_1" xmlns="http://www.w3.org/2000/svg" xmlns:xlink="http://www.w3.org/1999/xlink" x="0px" y="0px"
	 width="24px" height="24px" viewBox="0 0 24 24" enable-background="new 0 0 24 24" xml:space="preserve">
<path d="M21.992,5.945c-0.006-0.107-0.03-0.208-0.068-0.305c-0.006-0.015-0.004-0.031-0.01-0.046
	c-0.008-0.018-0.023-0.028-0.032-0.045c-0.044-0.086-0.099-0.164-0.166-0.234c-0.017-0.018-0.03-0.038-0.048-0.055
	c-0.077-0.07-0.163-0.13-0.262-0.174l-9-4c-0.26-0.115-0.553-0.115-0.812,0l-9,4C2.495,5.13,2.409,5.191,2.331,5.261
	C2.314,5.276,2.302,5.296,2.286,5.312c-0.068,0.071-0.124,0.15-0.168,0.237C2.109,5.565,2.094,5.576,2.086,5.594
	C2.079,5.609,2.082,5.625,2.076,5.64C2.038,5.737,2.014,5.838,2.008,5.945C2.007,5.96,2.002,5.975,2.001,5.99
	C2.001,5.993,2,5.997,2,6v12c0,0.396,0.232,0.753,0.594,0.914l9,4c0.003,0.001,0.006,0.001,0.009,0.002
	C11.724,22.969,11.858,23,12,23s0.276-0.031,0.398-0.084c0.003-0.001,0.006-0.001,0.008-0.002l9-4C21.768,18.753,22,18.396,22,18V6
	c0-0.003-0.001-0.007-0.001-0.01C21.998,5.975,21.993,5.96,21.992,5.945z M12,3.095L18.538,6L12,8.905L5.462,6L12,3.095z M4,7.539
	l7,3.111v9.811l-7-3.11V7.539z M13,20.461V10.65l7-3.111v9.812L13,20.461z"/>
</svg>
