<?xml version="1.0" encoding="utf-8"?>
<!-- Generator: Adobe Illustrator 19.2.1, SVG Export Plug-In . SVG Version: 6.00 Build 0)  -->
<!DOCTYPE svg PUBLIC "-//W3C//DTD SVG 1.1//EN" "http://www.w3.org/Graphics/SVG/1.1/DTD/svg11.dtd">
<svg version="1.1" id="Layer_1" xmlns="http://www.w3.org/2000/svg" xmlns:xlink="http://www.w3.org/1999/xlink" x="0px" y="0px"
	 width="24px" height="24px" viewBox="0 0 24 24" enable-background="new 0 0 24 24" xml:space="preserve">
<path d="M14.293,4.293l-12,12c-0.14,0.14-0.235,0.317-0.273,0.511l-1,5c-0.066,0.328,0.037,0.667,0.273,0.903
	C1.482,22.896,1.737,23,2,23c0.065,0,0.131-0.006,0.196-0.02l5-1c0.193-0.039,0.371-0.134,0.511-0.273L19,10.414L20.586,12
	l-5.293,5.293c-0.391,0.391-0.391,1.023,0,1.414C15.488,18.902,15.744,19,16,19s0.512-0.098,0.707-0.293l6-6
	c0.391-0.391,0.391-1.023,0-1.414l-3-3l-4-4C15.316,3.902,14.684,3.902,14.293,4.293z M6.507,20.079l-3.232,0.646l0.646-3.232
	L15,6.414L17.586,9L6.507,20.079z"/>
<path d="M22.379,4.621c0.831-0.831,0.824-2.176,0-3c-0.828-0.828-2.172-0.828-3,0L17.5,3.5l3,3L22.379,4.621z"/>
</svg>
