<?xml version="1.0" encoding="utf-8"?>
<!-- Generator: Adobe Illustrator 19.2.1, SVG Export Plug-In . SVG Version: 6.00 Build 0)  -->
<!DOCTYPE svg PUBLIC "-//W3C//DTD SVG 1.1//EN" "http://www.w3.org/Graphics/SVG/1.1/DTD/svg11.dtd">
<svg version="1.1" id="Layer_1" xmlns="http://www.w3.org/2000/svg" xmlns:xlink="http://www.w3.org/1999/xlink" x="0px" y="0px"
	 width="24px" height="24px" viewBox="0 0 24 24" enable-background="new 0 0 24 24" xml:space="preserve">
<path fill="#222221" d="M19,23c0.314,0,0.611-0.148,0.8-0.4l3-4c0.13-0.173,0.2-0.384,0.2-0.6V1c0-0.552-0.447-1-1-1h-6
	c-0.553,0-1,0.448-1,1v17c0,0.216,0.07,0.427,0.2,0.6l3,4C18.389,22.852,18.686,23,19,23z M21,2v2h-4V2H21z M17,6h4v11.667l-2,2.667
	l-2-2.667V6z"/>
<path fill="#222221" d="M1,1v22c0,0.552,0.447,1,1,1h8c0.553,0,1-0.448,1-1V1c0-0.552-0.447-1-1-1H2C1.447,0,1,0.448,1,1z M9,2v20H3
	v-3h1c0.553,0,1-0.448,1-1s-0.447-1-1-1H3v-2h2c0.553,0,1-0.448,1-1s-0.447-1-1-1H3v-2h1c0.553,0,1-0.448,1-1S4.553,9,4,9H3V7h2
	c0.553,0,1-0.448,1-1S5.553,5,5,5H3V2H9z"/>
</svg>
