<?xml version="1.0" encoding="utf-8"?>
<!-- Generator: Adobe Illustrator 19.2.1, SVG Export Plug-In . SVG Version: 6.00 Build 0)  -->
<!DOCTYPE svg PUBLIC "-//W3C//DTD SVG 1.1//EN" "http://www.w3.org/Graphics/SVG/1.1/DTD/svg11.dtd">
<svg version="1.1" id="Layer_1" xmlns="http://www.w3.org/2000/svg" xmlns:xlink="http://www.w3.org/1999/xlink" x="0px" y="0px"
	 width="24px" height="24px" viewBox="0 0 24 24" enable-background="new 0 0 24 24" xml:space="preserve">
<path fill="#222221" d="M10,0H1C0.448,0,0,0.447,0,1v9c0,0.553,0.448,1,1,1h9c0.552,0,1-0.447,1-1V1C11,0.447,10.552,0,10,0z M9,9H2
	V2h7V9z"/>
<path fill="#222221" d="M23,0h-9c-0.552,0-1,0.447-1,1v9c0,0.553,0.448,1,1,1h9c0.552,0,1-0.447,1-1V1C24,0.447,23.552,0,23,0z
	 M22,9h-7V2h7V9z"/>
<path fill="#222221" d="M10,13H1c-0.552,0-1,0.447-1,1v9c0,0.553,0.448,1,1,1h9c0.552,0,1-0.447,1-1v-9C11,13.447,10.552,13,10,13z
	 M9,22H2v-7h7V22z"/>
<path fill="#222221" d="M23,13h-9c-0.552,0-1,0.447-1,1v9c0,0.553,0.448,1,1,1h9c0.552,0,1-0.447,1-1v-9C24,13.447,23.552,13,23,13z
	 M22,22h-7v-7h7V22z"/>
</svg>
