<?xml version="1.0" encoding="utf-8"?>
<!-- Generator: Adobe Illustrator 19.2.1, SVG Export Plug-In . SVG Version: 6.00 Build 0)  -->
<!DOCTYPE svg PUBLIC "-//W3C//DTD SVG 1.1//EN" "http://www.w3.org/Graphics/SVG/1.1/DTD/svg11.dtd">
<svg version="1.1" id="Layer_1" xmlns="http://www.w3.org/2000/svg" xmlns:xlink="http://www.w3.org/1999/xlink" x="0px" y="0px"
	 width="24px" height="24px" viewBox="0 0 24 24" enable-background="new 0 0 24 24" xml:space="preserve">
<path d="M19,6c0-0.552-0.447-1-1-1H6C5.447,5,5,5.448,5,6v12c0,0.552,0.447,1,1,1h12c0.553,0,1-0.448,1-1V6z M17,17H7V7h10V17z"/>
<path d="M1,7h1c0.553,0,1-0.448,1-1S2.553,5,2,5H1C0.447,5,0,5.448,0,6S0.447,7,1,7z"/>
<path d="M1,19h1c0.553,0,1-0.448,1-1s-0.447-1-1-1H1c-0.553,0-1,0.448-1,1S0.447,19,1,19z"/>
<path d="M22,7h1c0.553,0,1-0.448,1-1s-0.447-1-1-1h-1c-0.553,0-1,0.448-1,1S21.447,7,22,7z"/>
<path d="M23,17h-1c-0.553,0-1,0.448-1,1s0.447,1,1,1h1c0.553,0,1-0.448,1-1S23.553,17,23,17z"/>
<path d="M6,3c0.553,0,1-0.448,1-1V1c0-0.552-0.447-1-1-1S5,0.448,5,1v1C5,2.552,5.447,3,6,3z"/>
<path d="M19,1c0-0.552-0.447-1-1-1s-1,0.448-1,1v1c0,0.552,0.447,1,1,1s1-0.448,1-1V1z"/>
<path d="M5,22v1c0,0.552,0.447,1,1,1s1-0.448,1-1v-1c0-0.552-0.447-1-1-1S5,21.448,5,22z"/>
<path d="M18,21c-0.553,0-1,0.448-1,1v1c0,0.552,0.447,1,1,1s1-0.448,1-1v-1C19,21.448,18.553,21,18,21z"/>
</svg>
