<?xml version="1.0" encoding="utf-8"?>
<!-- Generator: Adobe Illustrator 19.2.1, SVG Export Plug-In . SVG Version: 6.00 Build 0)  -->
<!DOCTYPE svg PUBLIC "-//W3C//DTD SVG 1.1//EN" "http://www.w3.org/Graphics/SVG/1.1/DTD/svg11.dtd">
<svg version="1.1" id="Layer_1" xmlns="http://www.w3.org/2000/svg" xmlns:xlink="http://www.w3.org/1999/xlink" x="0px" y="0px"
	 width="24px" height="24px" viewBox="0 0 24 24" enable-background="new 0 0 24 24" xml:space="preserve">
<path d="M23,0H8C7.448,0,7,0.447,7,1v6H1C0.448,7,0,7.447,0,8v15c0,0.553,0.448,1,1,1h15c0.552,0,1-0.447,1-1v-6h6
	c0.552,0,1-0.447,1-1V1C24,0.447,23.552,0,23,0z M15,22H2V9h5v7c0,0.553,0.448,1,1,1h7V22z M15,15H9V9h6V15z M22,15h-5V8
	c0-0.553-0.448-1-1-1H9V2h13V15z"/>
</svg>
