<?xml version="1.0" encoding="utf-8"?>
<!-- Generator: Adobe Illustrator 19.2.1, SVG Export Plug-In . SVG Version: 6.00 Build 0)  -->
<!DOCTYPE svg PUBLIC "-//W3C//DTD SVG 1.1//EN" "http://www.w3.org/Graphics/SVG/1.1/DTD/svg11.dtd">
<svg version="1.1" id="Layer_1" xmlns="http://www.w3.org/2000/svg" xmlns:xlink="http://www.w3.org/1999/xlink" x="0px" y="0px"
	 width="24px" height="24px" viewBox="0 0 24 24" enable-background="new 0 0 24 24" xml:space="preserve">
<path d="M16,24c1.654,0,3-1.346,3-3V8.414l3.707-3.707C23.163,4.252,23.414,3.646,23.414,3c0-0.645-0.251-1.251-0.707-1.707
	c-0.941-0.941-2.473-0.941-3.414,0L18.76,1.826C18.302,0.754,17.238,0,16,0H6C4.346,0,3,1.346,3,3v18c0,1.654,1.346,3,3,3H16z
	 M20.707,2.707c0.162-0.16,0.425-0.161,0.585,0C21.398,2.812,21.414,2.937,21.414,3c0,0.064-0.016,0.188-0.121,0.293l-3.999,3.999
	c-0.001,0.001-0.001,0.001-0.002,0.002L15,9.586L14.414,9l3.292-3.292c0.001-0.001,0.001-0.001,0.002-0.002l0.998-0.998
	c0.001-0.001,0.001-0.001,0.002-0.002L20.707,2.707z M6,2h10c0.551,0,1,0.448,1,1v0.586L16.586,4H5V3C5,2.448,5.449,2,6,2z M5,21v-5
	h4c0.003,0,0.005-0.002,0.008-0.002c0.079,0.002,0.169,0.003,0.28,0.003c0.957,0,2.978-0.109,3.851-0.982
	c1.146-1.146,1.146-3.012,0-4.158c-1.11-1.112-3.047-1.112-4.158,0c0,0,0,0,0,0C8.287,11.555,8.079,12.966,8.021,14H5V6h9.586
	l-2.293,2.293c-0.391,0.391-0.391,1.023,0,1.414l2,2C14.488,11.902,14.744,12,15,12s0.512-0.098,0.707-0.293L17,10.414V14h-2
	c-0.552,0-1,0.447-1,1s0.448,1,1,1h2v5c0,0.552-0.449,1-1,1H6C5.449,22,5,21.552,5,21z M10.028,13.972
	c0.06-0.798,0.204-1.51,0.369-1.698c0.355-0.352,0.973-0.354,1.328,0.002c0.367,0.367,0.367,0.963,0.002,1.327
	C11.541,13.768,10.828,13.912,10.028,13.972z"/>
<circle cx="11" cy="19" r="2"/>
</svg>
