<?xml version="1.0" encoding="utf-8"?>
<!-- Generator: Adobe Illustrator 19.2.1, SVG Export Plug-In . SVG Version: 6.00 Build 0)  -->
<!DOCTYPE svg PUBLIC "-//W3C//DTD SVG 1.1//EN" "http://www.w3.org/Graphics/SVG/1.1/DTD/svg11.dtd">
<svg version="1.1" id="Layer_1" xmlns="http://www.w3.org/2000/svg" xmlns:xlink="http://www.w3.org/1999/xlink" x="0px" y="0px"
	 width="24px" height="24px" viewBox="0 0 24 24" enable-background="new 0 0 24 24" xml:space="preserve">
<path d="M7,24h10c1.654,0,3-1.346,3-3V3c0-1.654-1.346-3-3-3H7C5.346,0,4,1.346,4,3v18C4,22.654,5.346,24,7,24z M18,14H6V7h12V14z
	 M17,22H7c-0.552,0-1-0.449-1-1v-5h12v5C18,21.551,17.552,22,17,22z M7,2h10c0.552,0,1,0.449,1,1v2H6V3C6,2.449,6.448,2,7,2z"/>
<circle cx="12" cy="19" r="2"/>
</svg>
