<?xml version="1.0" encoding="utf-8"?>
<!-- Generator: Adobe Illustrator 19.2.1, SVG Export Plug-In . SVG Version: 6.00 Build 0)  -->
<!DOCTYPE svg PUBLIC "-//W3C//DTD SVG 1.1//EN" "http://www.w3.org/Graphics/SVG/1.1/DTD/svg11.dtd">
<svg version="1.1" id="Layer_1" xmlns="http://www.w3.org/2000/svg" xmlns:xlink="http://www.w3.org/1999/xlink" x="0px" y="0px"
	 width="24px" height="24px" viewBox="0 0 24 24" enable-background="new 0 0 24 24" xml:space="preserve">
<path d="M12,24c5.346,0,10.094-3.589,11.557-8.759c0.171-0.69,1.541-6.811-3.125-9.143c-2.942-1.41-5.675-0.544-7.67,0.088
	c-1.772,0.562-2.538,0.736-2.953,0.23c-0.042-0.139,0.103-0.62,0.189-0.907c0.26-0.865,0.615-2.049-0.202-3.115
	C8.77,1.047,6.544,1.192,5.098,2.183C1.906,4.431,0,8.101,0,12C0,18.617,5.383,24,12,24z M6.239,3.825
	c0.414-0.283,0.932-0.418,1.34-0.418c0.292,0,0.527,0.069,0.628,0.202C8.39,3.848,8.282,4.269,8.082,4.935
	C7.842,5.733,7.544,6.726,8.223,7.63c1.349,1.664,3.277,1.053,5.142,0.463c1.863-0.59,3.973-1.258,6.188-0.198
	c3.314,1.657,2.115,6.652,2.071,6.833C20.413,19.01,16.455,22,12,22C6.486,22,2,17.514,2,12C2,8.75,3.589,5.691,6.239,3.825z"/>
<path d="M17,15c1.654,0,3-1.346,3-3s-1.346-3-3-3s-3,1.346-3,3S15.346,15,17,15z M17,11c0.551,0,1,0.449,1,1s-0.449,1-1,1
	s-1-0.449-1-1S16.449,11,17,11z"/>
<circle cx="5" cy="12" r="2"/>
<circle cx="7.5" cy="17" r="2"/>
<circle cx="13" cy="19" r="2"/>
</svg>
