<?xml version="1.0" encoding="utf-8"?>
<!-- Generator: Adobe Illustrator 19.2.1, SVG Export Plug-In . SVG Version: 6.00 Build 0)  -->
<!DOCTYPE svg PUBLIC "-//W3C//DTD SVG 1.1//EN" "http://www.w3.org/Graphics/SVG/1.1/DTD/svg11.dtd">
<svg version="1.1" id="Layer_1" xmlns="http://www.w3.org/2000/svg" xmlns:xlink="http://www.w3.org/1999/xlink" x="0px" y="0px"
	 width="24px" height="24px" viewBox="0 0 24 24" enable-background="new 0 0 24 24" xml:space="preserve">
<path d="M23,2H1C0.447,2,0,2.447,0,3s0.447,1,1,1h22c0.553,0,1-0.447,1-1S23.553,2,23,2z"/>
<path d="M20,7c0-0.553-0.447-1-1-1h-5c-0.553,0-1,0.447-1,1v14c0,0.553,0.447,1,1,1h5c0.553,0,1-0.447,1-1V7z M18,20h-3V8h3V20z"/>
<path d="M11,15V7c0-0.553-0.447-1-1-1H5C4.447,6,4,6.447,4,7v8c0,0.553,0.447,1,1,1h5C10.553,16,11,15.553,11,15z M9,14H6V8h3V14z"
	/>
</svg>
