<?xml version="1.0" encoding="utf-8"?>
<!-- Generator: Adobe Illustrator 19.2.1, SVG Export Plug-In . SVG Version: 6.00 Build 0)  -->
<!DOCTYPE svg PUBLIC "-//W3C//DTD SVG 1.1//EN" "http://www.w3.org/Graphics/SVG/1.1/DTD/svg11.dtd">
<svg version="1.1" id="Layer_1" xmlns="http://www.w3.org/2000/svg" xmlns:xlink="http://www.w3.org/1999/xlink" x="0px" y="0px"
	 width="24px" height="24px" viewBox="0 0 24 24" enable-background="new 0 0 24 24" xml:space="preserve">
<path d="M23,16h-2.633l-5.615-9.359C14.901,6.467,15,6.248,15,6V2c0-0.552-0.447-1-1-1h-4C9.447,1,9,1.448,9,2v4
	c0,0.248,0.099,0.467,0.249,0.642L3.634,16H1c-0.553,0-1,0.448-1,1v4c0,0.552,0.447,1,1,1h4c0.553,0,1-0.448,1-1v-1h12v1
	c0,0.552,0.447,1,1,1h4c0.553,0,1-0.448,1-1v-4C24,16.448,23.553,16,23,16z M11,3h2v1.993C12.994,4.994,12.987,4.999,12.981,5H11V3z
	 M4,20H2v-2h2V20z M6,18v-1c0-0.248-0.1-0.467-0.249-0.642L11.366,7h1.268l5.615,9.358C18.1,16.533,18,16.752,18,17v1H6z M22,20h-2
	v-2h2V20z"/>
</svg>
