<?xml version="1.0" encoding="utf-8"?>
<!-- Generator: Adobe Illustrator 19.2.1, SVG Export Plug-In . SVG Version: 6.00 Build 0)  -->
<!DOCTYPE svg PUBLIC "-//W3C//DTD SVG 1.1//EN" "http://www.w3.org/Graphics/SVG/1.1/DTD/svg11.dtd">
<svg version="1.1" id="Layer_1" xmlns="http://www.w3.org/2000/svg" xmlns:xlink="http://www.w3.org/1999/xlink" x="0px" y="0px"
	 width="24px" height="24px" viewBox="0 0 24 24" enable-background="new 0 0 24 24" xml:space="preserve">
<path d="M5,6v12c0,0.552,0.447,1,1,1h12c0.553,0,1-0.448,1-1V6c0-0.552-0.447-1-1-1H6C5.447,5,5,5.448,5,6z M7,7h10v10H7V7z"/>
<path d="M9,2V1c0-0.552-0.447-1-1-1S7,0.448,7,1v1c0,0.552,0.447,1,1,1S9,2.552,9,2z"/>
<path d="M13,2V1c0-0.552-0.447-1-1-1s-1,0.448-1,1v1c0,0.552,0.447,1,1,1S13,2.552,13,2z"/>
<path d="M17,2V1c0-0.552-0.447-1-1-1s-1,0.448-1,1v1c0,0.552,0.447,1,1,1S17,2.552,17,2z"/>
<path d="M23,7h-1c-0.553,0-1,0.448-1,1s0.447,1,1,1h1c0.553,0,1-0.448,1-1S23.553,7,23,7z"/>
<path d="M23,11h-1c-0.553,0-1,0.448-1,1s0.447,1,1,1h1c0.553,0,1-0.448,1-1S23.553,11,23,11z"/>
<path d="M23,15h-1c-0.553,0-1,0.448-1,1s0.447,1,1,1h1c0.553,0,1-0.448,1-1S23.553,15,23,15z"/>
<path d="M15,22v1c0,0.552,0.447,1,1,1s1-0.448,1-1v-1c0-0.552-0.447-1-1-1S15,21.448,15,22z"/>
<path d="M11,22v1c0,0.552,0.447,1,1,1s1-0.448,1-1v-1c0-0.552-0.447-1-1-1S11,21.448,11,22z"/>
<path d="M7,22v1c0,0.552,0.447,1,1,1s1-0.448,1-1v-1c0-0.552-0.447-1-1-1S7,21.448,7,22z"/>
<path d="M1,17h1c0.553,0,1-0.448,1-1s-0.447-1-1-1H1c-0.553,0-1,0.448-1,1S0.447,17,1,17z"/>
<path d="M1,13h1c0.553,0,1-0.448,1-1s-0.447-1-1-1H1c-0.553,0-1,0.448-1,1S0.447,13,1,13z"/>
<path d="M1,9h1c0.553,0,1-0.448,1-1S2.553,7,2,7H1C0.447,7,0,7.448,0,8S0.447,9,1,9z"/>
</svg>
