<?xml version="1.0" encoding="utf-8"?>
<!-- Generator: Adobe Illustrator 19.2.1, SVG Export Plug-In . SVG Version: 6.00 Build 0)  -->
<!DOCTYPE svg PUBLIC "-//W3C//DTD SVG 1.1//EN" "http://www.w3.org/Graphics/SVG/1.1/DTD/svg11.dtd">
<svg version="1.1" id="Layer_1" xmlns="http://www.w3.org/2000/svg" xmlns:xlink="http://www.w3.org/1999/xlink" x="0px" y="0px"
	 width="24px" height="24px" viewBox="0 0 24 24" enable-background="new 0 0 24 24" xml:space="preserve">
<path d="M12,24c0.552,0,1-0.447,1-1v-3h6c0.552,0,1-0.447,1-1v-5c0-0.553-0.448-1-1-1h-6v-2h3c0.552,0,1-0.447,1-1V5
	c0-0.553-0.448-1-1-1h-3V1c0-0.553-0.448-1-1-1s-1,0.447-1,1v3H8C7.448,4,7,4.447,7,5v5c0,0.553,0.448,1,1,1h3v2H5
	c-0.552,0-1,0.447-1,1v5c0,0.553,0.448,1,1,1h6v3C11,23.553,11.448,24,12,24z M9,6h6v3H9V6z M6,15h12v3H6V15z"/>
</svg>
