<?xml version="1.0" encoding="utf-8"?>
<!-- Generator: Adobe Illustrator 19.1.0, SVG Export Plug-In . SVG Version: 6.00 Build 0)  -->
<!DOCTYPE svg PUBLIC "-//W3C//DTD SVG 1.1//EN" "http://www.w3.org/Graphics/SVG/1.1/DTD/svg11.dtd">
<svg version="1.1" id="Layer_1" xmlns="http://www.w3.org/2000/svg" xmlns:xlink="http://www.w3.org/1999/xlink" x="0px" y="0px"
	 width="48px" height="48px" viewBox="0 0 48 48" enable-background="new 0 0 48 48" xml:space="preserve">
<path d="M46.6,13.2c-0.3-0.2-0.6-0.2-0.9-0.1L33,18.5V10c0-0.6-0.4-1-1-1H2c-0.6,0-1,0.4-1,1v28c0,0.6,0.4,1,1,1h30c0.6,0,1-0.4,1-1
	v-8.5l12.6,5.4C45.7,35,45.9,35,46,35c0.2,0,0.4-0.1,0.6-0.2c0.3-0.2,0.4-0.5,0.4-0.8V14C47,13.7,46.8,13.4,46.6,13.2z M31,37H3V11
	h28v9v8V37z M45,32.5l-12-5.1v-6.7l12-5.1V32.5z"/>
</svg>
