<?xml version="1.0" encoding="utf-8"?>
<!-- Generator: Adobe Illustrator 19.1.0, SVG Export Plug-In . SVG Version: 6.00 Build 0)  -->
<!DOCTYPE svg PUBLIC "-//W3C//DTD SVG 1.1//EN" "http://www.w3.org/Graphics/SVG/1.1/DTD/svg11.dtd">
<svg version="1.1" id="Layer_1" xmlns="http://www.w3.org/2000/svg" xmlns:xlink="http://www.w3.org/1999/xlink" x="0px" y="0px"
	 width="48px" height="48px" viewBox="0 0 48 48" enable-background="new 0 0 48 48" xml:space="preserve">
<path d="M45,34V14V4c0-0.6-0.4-1-1-1H14c-0.6,0-1,0.4-1,1v10v19.1c-1.3-1.3-3-2.1-5-2.1c-3.9,0-7,3.1-7,7s3.1,7,7,7s7-3.1,7-7V15h28
	v14.1c-1.3-1.3-3-2.1-5-2.1c-3.9,0-7,3.1-7,7s3.1,7,7,7S45,37.9,45,34z M8,43c-2.8,0-5-2.2-5-5s2.2-5,5-5s5,2.2,5,5S10.8,43,8,43z
	 M15,5h28v8H15V5z M33,34c0-2.8,2.2-5,5-5s5,2.2,5,5s-2.2,5-5,5S33,36.8,33,34z"/>
</svg>
