<?xml version="1.0" encoding="utf-8"?>
<!-- Generator: Adobe Illustrator 19.1.0, SVG Export Plug-In . SVG Version: 6.00 Build 0)  -->
<!DOCTYPE svg PUBLIC "-//W3C//DTD SVG 1.1//EN" "http://www.w3.org/Graphics/SVG/1.1/DTD/svg11.dtd">
<svg version="1.1" id="Layer_1" xmlns="http://www.w3.org/2000/svg" xmlns:xlink="http://www.w3.org/1999/xlink" x="0px" y="0px"
	 width="48px" height="48px" viewBox="0 0 48 48" enable-background="new 0 0 48 48" xml:space="preserve">
<path d="M2,3h22c0.6,0,1-0.4,1-1s-0.4-1-1-1H2C1.4,1,1,1.4,1,2S1.4,3,2,3z"/>
<path d="M2,47h22c0.6,0,1-0.4,1-1s-0.4-1-1-1H2c-0.6,0-1,0.4-1,1S1.4,47,2,47z"/>
<path d="M8,15c-0.6,0-1,0.4-1,1v16c0,0.6,0.4,1,1,1s1-0.4,1-1V16C9,15.4,8.6,15,8,15z"/>
<path d="M46,11H25V8c0-0.6-0.4-1-1-1H2C1.4,7,1,7.4,1,8v32c0,0.6,0.4,1,1,1h22c0.6,0,1-0.4,1-1v-3h13c0.6,0,1-0.4,1-1
	c0-3.9,3.1-7,7-7c0.6,0,1-0.4,1-1V12C47,11.4,46.6,11,46,11z M23,39H3V9h20V39z M45,27.1c-4.2,0.5-7.5,3.8-7.9,7.9H25V13h20V27.1z"
	/>
<path d="M30,19h2c0.6,0,1-0.4,1-1s-0.4-1-1-1h-2c-0.6,0-1,0.4-1,1S29.4,19,30,19z"/>
<path d="M32,29h-2c-0.6,0-1,0.4-1,1s0.4,1,1,1h2c0.6,0,1-0.4,1-1S32.6,29,32,29z"/>
<path d="M38,19h2c0.6,0,1-0.4,1-1s-0.4-1-1-1h-2c-0.6,0-1,0.4-1,1S37.4,19,38,19z"/>
</svg>
