<?xml version="1.0" encoding="utf-8"?>
<!-- Generator: Adobe Illustrator 19.1.0, SVG Export Plug-In . SVG Version: 6.00 Build 0)  -->
<!DOCTYPE svg PUBLIC "-//W3C//DTD SVG 1.1//EN" "http://www.w3.org/Graphics/SVG/1.1/DTD/svg11.dtd">
<svg version="1.1" id="Layer_1" xmlns="http://www.w3.org/2000/svg" xmlns:xlink="http://www.w3.org/1999/xlink" x="0px" y="0px"
	 width="48px" height="48px" viewBox="0 0 48 48" enable-background="new 0 0 48 48" xml:space="preserve">
<path d="M31.8,18.2C31.8,18.2,31.8,18.2,31.8,18.2c-2-2-4.8-3.2-7.8-3.2c-6.1,0-11,4.9-11,11c0,3,1.2,5.8,3.2,7.7c0,0,0,0,0,0
	s0,0,0,0c2,2,4.7,3.2,7.7,3.2c6.1,0,11-4.9,11-11C35,23,33.8,20.2,31.8,18.2C31.8,18.2,31.8,18.2,31.8,18.2z M24,17
	c2.1,0,4.1,0.7,5.6,2L17,31.6c-1.2-1.5-2-3.5-2-5.6C15,21,19,17,24,17z M24,35c-2.1,0-4.1-0.7-5.6-2L31,20.4c1.2,1.5,2,3.5,2,5.6
	C33,31,29,35,24,35z"/>
<path d="M46,9H34.5l-3.7-5.6C30.6,3.2,30.3,3,30,3H18c-0.3,0-0.6,0.2-0.8,0.4L13.5,9H2c-0.6,0-1,0.4-1,1v34c0,0.6,0.4,1,1,1h44
	c0.6,0,1-0.4,1-1V10C47,9.4,46.6,9,46,9z M45,43H3V11h11c0.3,0,0.6-0.2,0.8-0.4L18.5,5h10.9l3.7,5.6c0.2,0.3,0.5,0.4,0.8,0.4h11V43z
	"/>
<path d="M4,5h4c0.6,0,1-0.4,1-1S8.6,3,8,3H4C3.4,3,3,3.4,3,4S3.4,5,4,5z"/>
</svg>
