<?xml version="1.0" encoding="utf-8"?>
<!-- Generator: Adobe Illustrator 19.1.0, SVG Export Plug-In . SVG Version: 6.00 Build 0)  -->
<!DOCTYPE svg PUBLIC "-//W3C//DTD SVG 1.1//EN" "http://www.w3.org/Graphics/SVG/1.1/DTD/svg11.dtd">
<svg version="1.1" id="Layer_1" xmlns="http://www.w3.org/2000/svg" xmlns:xlink="http://www.w3.org/1999/xlink" x="0px" y="0px"
	 width="48px" height="48px" viewBox="0 0 48 48" enable-background="new 0 0 48 48" xml:space="preserve">
<path d="M46.6,21.2c-0.3-0.2-0.6-0.2-0.9-0.1L33,26.5V20c0-0.6-0.4-1-1-1H2c-0.6,0-1,0.4-1,1v24c0,0.6,0.4,1,1,1h30c0.6,0,1-0.4,1-1
	v-6.5l12.6,5.4C45.7,43,45.9,43,46,43c0.2,0,0.4-0.1,0.6-0.2c0.3-0.2,0.4-0.5,0.4-0.8V22C47,21.7,46.8,21.4,46.6,21.2z M31,43H3V21
	h28v7v8V43z M45,40.5l-12-5.1v-6.7l12-5.1V40.5z"/>
<path d="M8,15c3.9,0,7-3.1,7-7s-3.1-7-7-7S1,4.1,1,8S4.1,15,8,15z M8,3c2.8,0,5,2.2,5,5s-2.2,5-5,5s-5-2.2-5-5S5.2,3,8,3z"/>
<path d="M19,10c0,2.8,2.2,5,5,5s5-2.2,5-5s-2.2-5-5-5S19,7.2,19,10z M27,10c0,1.7-1.3,3-3,3s-3-1.3-3-3s1.3-3,3-3S27,8.3,27,10z"/>
</svg>
