<?xml version="1.0" encoding="utf-8"?>
<!-- Generator: Adobe Illustrator 19.1.0, SVG Export Plug-In . SVG Version: 6.00 Build 0)  -->
<!DOCTYPE svg PUBLIC "-//W3C//DTD SVG 1.1//EN" "http://www.w3.org/Graphics/SVG/1.1/DTD/svg11.dtd">
<svg version="1.1" id="Layer_1" xmlns="http://www.w3.org/2000/svg" xmlns:xlink="http://www.w3.org/1999/xlink" x="0px" y="0px"
	 width="48px" height="48px" viewBox="0 0 48 48" enable-background="new 0 0 48 48" xml:space="preserve">
<path d="M4,47h40c0.6,0,1-0.4,1-1V2c0-0.6-0.4-1-1-1H4C3.4,1,3,1.4,3,2v44C3,46.6,3.4,47,4,47z M5,3h38v42H5V3z"/>
<path d="M38,7H10C9.4,7,9,7.4,9,8v24c0,0.6,0.4,1,1,1h28c0.6,0,1-0.4,1-1V8C39,7.4,38.6,7,38,7z M37,31H11V9h26V31z"/>
<path d="M20,21h8c0.6,0,1-0.4,1-1s-0.4-1-1-1h-8c-0.6,0-1,0.4-1,1S19.4,21,20,21z"/>
</svg>
