<?xml version="1.0" encoding="utf-8"?>
<!-- Generator: Adobe Illustrator 19.1.0, SVG Export Plug-In . SVG Version: 6.00 Build 0)  -->
<!DOCTYPE svg PUBLIC "-//W3C//DTD SVG 1.1//EN" "http://www.w3.org/Graphics/SVG/1.1/DTD/svg11.dtd">
<svg version="1.1" id="Layer_1" xmlns="http://www.w3.org/2000/svg" xmlns:xlink="http://www.w3.org/1999/xlink" x="0px" y="0px"
	 width="48px" height="48px" viewBox="0 0 48 48" enable-background="new 0 0 48 48" xml:space="preserve">
<path d="M46,11h-7.6l6.3-6.3c0.4-0.4,0.4-1,0-1.4s-1-0.4-1.4,0L35.6,11h-3.1l-3.7-5.6C28.6,5.2,28.3,5,28,5H18
	c-0.3,0-0.6,0.2-0.8,0.4L13.5,11H2c-0.6,0-1,0.4-1,1v26c0,0.6,0.4,1,1,1h5.6l-4.3,4.3c-0.4,0.4-0.4,1,0,1.4C3.5,44.9,3.7,45,4,45
	s0.5-0.1,0.7-0.3l5.7-5.7H46c0.6,0,1-0.4,1-1V12C47,11.4,46.6,11,46,11z M3,37V13h11c0.3,0,0.6-0.2,0.8-0.4L18.5,7h8.9l3.7,5.6
	c0.2,0.3,0.5,0.4,0.8,0.4h1.6l-4,4c-1.5-1.2-3.5-2-5.6-2c-5,0-9,4-9,9c0,2.1,0.7,4.1,2,5.6L9.6,37H3z M31,24c0,3.9-3.1,7-7,7
	c-1.6,0-3-0.5-4.2-1.4l9.8-9.8C30.5,21,31,22.4,31,24z M17,24c0-3.9,3.1-7,7-7c1.6,0,3,0.5,4.2,1.4l-9.8,9.8C17.5,27,17,25.6,17,24z
	 M45,37H12.4l6-6c1.5,1.2,3.5,2,5.6,2c5,0,9-4,9-9c0-2.1-0.7-4.1-2-5.6l5.4-5.4H45V37z"/>
</svg>
