<?xml version="1.0" encoding="utf-8"?>
<!-- Generator: Adobe Illustrator 19.1.0, SVG Export Plug-In . SVG Version: 6.00 Build 0)  -->
<!DOCTYPE svg PUBLIC "-//W3C//DTD SVG 1.1//EN" "http://www.w3.org/Graphics/SVG/1.1/DTD/svg11.dtd">
<svg version="1.1" id="Layer_1" xmlns="http://www.w3.org/2000/svg" xmlns:xlink="http://www.w3.org/1999/xlink" x="0px" y="0px"
	 width="48px" height="48px" viewBox="0 0 48 48" enable-background="new 0 0 48 48" xml:space="preserve">
<path d="M24,1C11.3,1,1,11.3,1,24s10.3,23,23,23s23-10.3,23-23S36.7,1,24,1z M24,45C12.4,45,3,35.6,3,24S12.4,3,24,3s21,9.4,21,21
	S35.6,45,24,45z"/>
<path d="M30.6,23.2l-12-8c-0.3-0.2-0.7-0.2-1,0C17.2,15.3,17,15.6,17,16v16c0,0.4,0.2,0.7,0.5,0.9C17.7,33,17.8,33,18,33
	c0.2,0,0.4-0.1,0.6-0.2l12-8c0.3-0.2,0.4-0.5,0.4-0.8S30.8,23.4,30.6,23.2z M19,30.1V17.9l9.2,6.1L19,30.1z"/>
</svg>
