<?xml version="1.0" encoding="utf-8"?>
<!-- Generator: Adobe Illustrator 19.1.0, SVG Export Plug-In . SVG Version: 6.00 Build 0)  -->
<!DOCTYPE svg PUBLIC "-//W3C//DTD SVG 1.1//EN" "http://www.w3.org/Graphics/SVG/1.1/DTD/svg11.dtd">
<svg version="1.1" id="Layer_1" xmlns="http://www.w3.org/2000/svg" xmlns:xlink="http://www.w3.org/1999/xlink" x="0px" y="0px"
	 width="48px" height="48px" viewBox="0 0 48 48" enable-background="new 0 0 48 48" xml:space="preserve">
<path d="M46,1H2C1.4,1,1,1.4,1,2v44c0,0.6,0.4,1,1,1h44c0.6,0,1-0.4,1-1V2C47,1.4,46.6,1,46,1z M19,39v6h-6v-6H19z M21,39h6v6h-6V39
	z M29,39h6v6h-6V39z M3,37V11h42v26H3z M29,9V3h6v6H29z M27,9h-6V3h6V9z M19,9h-6V3h6V9z M45,9h-8V3h8V9z M11,3v6H3V3H11z M3,39h8v6
	H3V39z M37,45v-6h8v6H37z"/>
<path d="M20.6,17.2c-0.3-0.2-0.7-0.3-1-0.1C19.2,17.3,19,17.6,19,18v12c0,0.4,0.2,0.7,0.6,0.9C19.7,31,19.8,31,20,31
	c0.2,0,0.4-0.1,0.6-0.2l8-6c0.3-0.2,0.4-0.5,0.4-0.8s-0.1-0.6-0.4-0.8L20.6,17.2z M21,28v-8l5.3,4L21,28z"/>
</svg>
