<?xml version="1.0" encoding="utf-8"?>
<!-- Generator: Adobe Illustrator 19.1.0, SVG Export Plug-In . SVG Version: 6.00 Build 0)  -->
<!DOCTYPE svg PUBLIC "-//W3C//DTD SVG 1.1//EN" "http://www.w3.org/Graphics/SVG/1.1/DTD/svg11.dtd">
<svg version="1.1" id="Layer_1" xmlns="http://www.w3.org/2000/svg" xmlns:xlink="http://www.w3.org/1999/xlink" x="0px" y="0px"
	 width="48px" height="48px" viewBox="0 0 48 48" enable-background="new 0 0 48 48" xml:space="preserve">
<path d="M46,7H2C1.4,7,1,7.4,1,8v10c0,0.6,0.4,1,1,1c2.8,0,5,2.2,5,5s-2.2,5-5,5c-0.6,0-1,0.4-1,1v10c0,0.6,0.4,1,1,1h44
	c0.6,0,1-0.4,1-1V30c0-0.6-0.4-1-1-1c-2.8,0-5-2.2-5-5s2.2-5,5-5c0.6,0,1-0.4,1-1V8C47,7.4,46.6,7,46,7z M45,17.1
	c-3.4,0.5-6,3.4-6,6.9s2.6,6.4,6,6.9V39H3v-8.1c3.4-0.5,6-3.4,6-6.9s-2.6-6.4-6-6.9V9h42V17.1z"/>
<path d="M16,31h16c0.6,0,1-0.4,1-1V18c0-0.6-0.4-1-1-1H16c-0.6,0-1,0.4-1,1v12C15,30.6,15.4,31,16,31z M17,19h14v10H17V19z"/>
</svg>
