<?xml version="1.0" encoding="utf-8"?>
<!-- Generator: Adobe Illustrator 19.1.0, SVG Export Plug-In . SVG Version: 6.00 Build 0)  -->
<!DOCTYPE svg PUBLIC "-//W3C//DTD SVG 1.1//EN" "http://www.w3.org/Graphics/SVG/1.1/DTD/svg11.dtd">
<svg version="1.1" id="Layer_1" xmlns="http://www.w3.org/2000/svg" xmlns:xlink="http://www.w3.org/1999/xlink" x="0px" y="0px"
	 width="48px" height="48px" viewBox="0 0 48 48" enable-background="new 0 0 48 48" xml:space="preserve">
<path d="M33,24c0-0.3-0.1-0.6-0.4-0.8l-24-18C8.3,5,7.9,4.9,7.6,5.1C7.2,5.3,7,5.6,7,6v36c0,0.4,0.2,0.7,0.6,0.9C7.7,43,7.8,43,8,43
	c0.2,0,0.4-0.1,0.6-0.2l24-18C32.9,24.6,33,24.3,33,24z M9,40V8l21.3,16L9,40z"/>
<path d="M40,5c-0.6,0-1,0.4-1,1v36c0,0.6,0.4,1,1,1s1-0.4,1-1V6C41,5.4,40.6,5,40,5z"/>
</svg>
