<?xml version="1.0" encoding="utf-8"?>
<!-- Generator: Adobe Illustrator 19.1.0, SVG Export Plug-In . SVG Version: 6.00 Build 0)  -->
<!DOCTYPE svg PUBLIC "-//W3C//DTD SVG 1.1//EN" "http://www.w3.org/Graphics/SVG/1.1/DTD/svg11.dtd">
<svg version="1.1" id="Layer_1" xmlns="http://www.w3.org/2000/svg" xmlns:xlink="http://www.w3.org/1999/xlink" x="0px" y="0px"
	 width="48px" height="48px" viewBox="0 0 48 48" enable-background="new 0 0 48 48" xml:space="preserve">
<path d="M7,8V3h5c0.6,0,1-0.4,1-1s-0.4-1-1-1H6C5.4,1,5,1.4,5,2v6c0,0.6,0.4,1,1,1S7,8.6,7,8z"/>
<path d="M38,9c0.6,0,1-0.4,1-1V2c0-0.6-0.4-1-1-1h-6c-0.6,0-1,0.4-1,1s0.4,1,1,1h5v5C37,8.6,37.4,9,38,9z"/>
<path d="M4.8,31.2l8.3,13.3c0.2,0.3,0.5,0.5,0.8,0.5c0.2,0,0.4,0,0.5-0.2c0.5-0.3,0.6-0.9,0.3-1.4L6.5,30.2
	c-0.2-0.4-0.3-0.9-0.1-1.3c0.2-0.4,0.5-0.8,0.9-0.9c1.6-0.5,3.3-0.2,4.6,0.7l5.5,4.1c0.3,0.2,0.7,0.3,1,0.1c0.3-0.2,0.6-0.5,0.6-0.9
	V10c0-1.7,1.3-3,3-3c1.7,0,3,1.3,3,3l0,12c0,0.3,0.1,0.5,0.3,0.7S25.7,23,26,23h12c1.7,0,3,1.3,3,3l0,18c0,0.6,0.4,1,1,1s1-0.4,1-1
	l0-18c0-2.8-2.2-5-5-5H27l0-11c0-2.8-2.2-5-5-5c-2.8,0-5,2.2-5,5v20l-3.9-2.9c-1.8-1.4-4.2-1.8-6.4-1c-1,0.3-1.8,1.1-2.2,2.1
	C4.1,29.2,4.3,30.3,4.8,31.2z"/>
</svg>
