<?xml version="1.0" encoding="utf-8"?>
<!-- Generator: Adobe Illustrator 19.1.0, SVG Export Plug-In . SVG Version: 6.00 Build 0)  -->
<!DOCTYPE svg PUBLIC "-//W3C//DTD SVG 1.1//EN" "http://www.w3.org/Graphics/SVG/1.1/DTD/svg11.dtd">
<svg version="1.1" id="Layer_1" xmlns="http://www.w3.org/2000/svg" xmlns:xlink="http://www.w3.org/1999/xlink" x="0px" y="0px"
	 width="48px" height="48px" viewBox="0 0 48 48" enable-background="new 0 0 48 48" xml:space="preserve">
<path d="M46,1H2C1.4,1,1,1.4,1,2v44c0,0.6,0.4,1,1,1h44c0.6,0,1-0.4,1-1V2C47,1.4,46.6,1,46,1z M45,45H3V3h42V45z"/>
<path d="M17.5,32.9C17.7,33,17.8,33,18,33c0.2,0,0.4-0.1,0.6-0.2l12-8c0.3-0.2,0.4-0.5,0.4-0.8s-0.2-0.6-0.4-0.8l-12-8
	c-0.3-0.2-0.7-0.2-1,0C17.2,15.3,17,15.6,17,16v16C17,32.4,17.2,32.7,17.5,32.9z M19,17.9l9.2,6.1L19,30.1V17.9z"/>
</svg>
