<?xml version="1.0" encoding="utf-8"?>
<!-- Generator: Adobe Illustrator 19.1.0, SVG Export Plug-In . SVG Version: 6.00 Build 0)  -->
<!DOCTYPE svg PUBLIC "-//W3C//DTD SVG 1.1//EN" "http://www.w3.org/Graphics/SVG/1.1/DTD/svg11.dtd">
<svg version="1.1" id="Layer_1" xmlns="http://www.w3.org/2000/svg" xmlns:xlink="http://www.w3.org/1999/xlink" x="0px" y="0px"
	 width="48px" height="48px" viewBox="0 0 48 48" enable-background="new 0 0 48 48" xml:space="preserve">
<path d="M24,47c5.9,0,11.8-2.2,16.3-6.7c9-9,9-23.6,0-32.5c-9-9-23.6-9-32.5,0c-9,9-9,23.6,0,32.5C12.2,44.7,18.1,47,24,47z
	 M9.2,9.2C17.3,1,30.7,1,38.8,9.2c8.2,8.2,8.2,21.5,0,29.7c-8.2,8.2-21.5,8.2-29.7,0C1,30.7,1,17.3,9.2,9.2z"/>
<path d="M24,17c2.8,0,5-2.2,5-5s-2.2-5-5-5s-5,2.2-5,5S21.2,17,24,17z M24,9c1.7,0,3,1.3,3,3s-1.3,3-3,3s-3-1.3-3-3S22.3,9,24,9z"/>
<path d="M36,29c2.8,0,5-2.2,5-5s-2.2-5-5-5s-5,2.2-5,5S33.2,29,36,29z M36,21c1.7,0,3,1.3,3,3s-1.3,3-3,3s-3-1.3-3-3S34.3,21,36,21z
	"/>
<path d="M24,41c2.8,0,5-2.2,5-5s-2.2-5-5-5s-5,2.2-5,5S21.2,41,24,41z M24,33c1.7,0,3,1.3,3,3s-1.3,3-3,3s-3-1.3-3-3S22.3,33,24,33z
	"/>
<path d="M17,24c0-2.8-2.2-5-5-5s-5,2.2-5,5s2.2,5,5,5S17,26.8,17,24z M9,24c0-1.7,1.3-3,3-3s3,1.3,3,3s-1.3,3-3,3S9,25.7,9,24z"/>
</svg>
