<?xml version="1.0" encoding="utf-8"?>
<!-- Generator: Adobe Illustrator 19.1.0, SVG Export Plug-In . SVG Version: 6.00 Build 0)  -->
<!DOCTYPE svg PUBLIC "-//W3C//DTD SVG 1.1//EN" "http://www.w3.org/Graphics/SVG/1.1/DTD/svg11.dtd">
<svg version="1.1" id="Layer_1" xmlns="http://www.w3.org/2000/svg" xmlns:xlink="http://www.w3.org/1999/xlink" x="0px" y="0px"
	 width="48px" height="48px" viewBox="0 0 48 48" enable-background="new 0 0 48 48" xml:space="preserve">
<path d="M46,1H2C1.4,1,1,1.4,1,2v44c0,0.6,0.4,1,1,1h44c0.6,0,1-0.4,1-1V2C47,1.4,46.6,1,46,1z M45,45H3V3h42V45z"/>
<path d="M8,39h32c0.4,0,0.7-0.2,0.9-0.5s0.2-0.7,0-1l-10-16c-0.2-0.3-0.5-0.4-0.8-0.5c-0.3,0-0.6,0.1-0.8,0.4l-7.3,9.1l-5.2-5.2
	c-0.2-0.2-0.5-0.3-0.8-0.3c-0.3,0-0.6,0.2-0.7,0.4l-8,12c-0.2,0.3-0.2,0.7,0,1C7.3,38.8,7.6,39,8,39z M16.2,27.6l5.1,5.1
	c0.2,0.2,0.5,0.3,0.8,0.3c0.3,0,0.5-0.2,0.7-0.4l7.1-8.9L38.2,37H9.9L16.2,27.6z"/>
<path d="M20,19c2.8,0,5-2.2,5-5s-2.2-5-5-5s-5,2.2-5,5S17.2,19,20,19z M20,11c1.7,0,3,1.3,3,3s-1.3,3-3,3s-3-1.3-3-3S18.3,11,20,11z
	"/>
</svg>
