<?xml version="1.0" encoding="utf-8"?>
<!-- Generator: Adobe Illustrator 19.1.0, SVG Export Plug-In . SVG Version: 6.00 Build 0)  -->
<!DOCTYPE svg PUBLIC "-//W3C//DTD SVG 1.1//EN" "http://www.w3.org/Graphics/SVG/1.1/DTD/svg11.dtd">
<svg version="1.1" id="Layer_1" xmlns="http://www.w3.org/2000/svg" xmlns:xlink="http://www.w3.org/1999/xlink" x="0px" y="0px"
	 width="48px" height="48px" viewBox="0 0 48 48" enable-background="new 0 0 48 48" xml:space="preserve">
<path d="M20.1,2c-0.2-0.3-0.6-0.5-1-0.4c-4.3,0.9-8.2,3.1-11.3,6.2c-9,9-9,23.6,0,32.5C12.2,44.7,18.1,47,24,47s11.8-2.2,16.3-6.7
	c1.2-1.2,2.4-2.7,3.3-4.3c0.2-0.3,0.2-0.8,0-1.1c-0.2-0.3-0.6-0.5-1-0.4c-7.1,1.6-14.3-0.5-19.4-5.6C16.3,22,15,11.4,20.1,3.1
	C20.3,2.7,20.3,2.3,20.1,2z M21.7,30.3c5,5,11.9,7.4,18.9,6.6c-0.6,0.7-1.1,1.4-1.8,2c-8.2,8.2-21.5,8.2-29.7,0
	C1,30.7,1,17.3,9.2,9.2c2.3-2.3,5-4,8.1-5C13.1,12.9,14.8,23.3,21.7,30.3z"/>
<path d="M31,20c0,0.3,0.1,0.5,0.3,0.7c0.4,0.4,1,0.4,1.4,0c2.5-2.5,8.1-2.5,10.6,0c0.2,0.2,0.5,0.3,0.7,0.3s0.5-0.1,0.7-0.3
	S45,20.3,45,20s-0.1-0.5-0.3-0.7c-2.5-2.5-2.5-8.1,0-10.6C44.9,8.5,45,8.3,45,8s-0.1-0.5-0.3-0.7c-0.4-0.4-1-0.4-1.4,0
	c-2.5,2.5-8.1,2.5-10.6,0c-0.4-0.4-1-0.4-1.4,0C31.1,7.5,31,7.7,31,8s0.1,0.5,0.3,0.7c2.5,2.5,2.5,8.1,0,10.6
	C31.1,19.5,31,19.7,31,20z M34.7,10.7c2.1,0.7,4.6,0.7,6.7,0c-0.7,2.1-0.7,4.6,0,6.7c-1.1-0.3-2.2-0.5-3.3-0.5s-2.3,0.2-3.3,0.5
	C35.3,15.2,35.3,12.8,34.7,10.7z"/>
</svg>
