<?xml version="1.0" encoding="utf-8"?>
<!-- Generator: Adobe Illustrator 19.1.0, SVG Export Plug-In . SVG Version: 6.00 Build 0)  -->
<!DOCTYPE svg PUBLIC "-//W3C//DTD SVG 1.1//EN" "http://www.w3.org/Graphics/SVG/1.1/DTD/svg11.dtd">
<svg version="1.1" id="Layer_1" xmlns="http://www.w3.org/2000/svg" xmlns:xlink="http://www.w3.org/1999/xlink" x="0px" y="0px"
	 width="48px" height="48px" viewBox="0 0 48 48" enable-background="new 0 0 48 48" xml:space="preserve">
<path d="M32.5,3.1c-0.3-0.2-0.7-0.2-1,0L15.7,13H8c-3.9,0-7,3.1-7,7c0,2.9,1.8,5.5,4.4,6.5l7.1,15.8c0.7,1.6,2.2,2.5,3.9,2.5
	c0.6,0,1.2-0.1,1.7-0.4c2.1-0.9,3.1-3.4,2.1-5.6L14.9,27h0.8l15.8,9.8c0.2,0.1,0.3,0.2,0.5,0.2c0.2,0,0.3,0,0.5-0.1
	c0.3-0.2,0.5-0.5,0.5-0.9V4C33,3.6,32.8,3.3,32.5,3.1z M3,20c0-2.8,2.2-5,5-5h1v10H8C5.2,25,3,22.8,3,20z M18.3,39.7
	c0.5,1.1,0,2.4-1.1,2.9c-1.1,0.5-2.4,0-2.9-1.1L7.8,27c0.1,0,0.1,0,0.2,0h4.7L18.3,39.7z M31,34.2l-14.5-9C16.4,25.1,16.2,25,16,25
	h-2.6c-0.1,0-0.1,0-0.2,0H11V15h5c0.2,0,0.4-0.1,0.5-0.2l14.5-9V34.2z"/>
<path d="M46,19h-4c-0.6,0-1,0.4-1,1s0.4,1,1,1h4c0.6,0,1-0.4,1-1S46.6,19,46,19z"/>
<path d="M39.6,12c0.2,0,0.3,0,0.5-0.1l3.5-2C44,9.6,44.2,9,43.9,8.5C43.6,8,43,7.9,42.6,8.1l-3.5,2c-0.5,0.3-0.6,0.9-0.4,1.4
	C38.9,11.8,39.2,12,39.6,12z"/>
<path d="M43.6,30.1l-3.5-2c-0.5-0.3-1.1-0.1-1.4,0.4c-0.3,0.5-0.1,1.1,0.4,1.4l3.5,2c0.2,0.1,0.3,0.1,0.5,0.1c0.3,0,0.7-0.2,0.9-0.5
	C44.2,31,44,30.4,43.6,30.1z"/>
</svg>
