<?xml version="1.0" encoding="utf-8"?>
<!-- Generator: Adobe Illustrator 19.1.0, SVG Export Plug-In . SVG Version: 6.00 Build 0)  -->
<!DOCTYPE svg PUBLIC "-//W3C//DTD SVG 1.1//EN" "http://www.w3.org/Graphics/SVG/1.1/DTD/svg11.dtd">
<svg version="1.1" id="Layer_1" xmlns="http://www.w3.org/2000/svg" xmlns:xlink="http://www.w3.org/1999/xlink" x="0px" y="0px"
	 width="48px" height="48px" viewBox="0 0 48 48" enable-background="new 0 0 48 48" xml:space="preserve">
<path d="M2,47c0.6,0,1-0.4,1-1V2c0-0.6-0.4-1-1-1S1,1.4,1,2v44C1,46.6,1.4,47,2,47z"/>
<path d="M46,1c-0.6,0-1,0.4-1,1v44c0,0.6,0.4,1,1,1s1-0.4,1-1V2C47,1.4,46.6,1,46,1z"/>
<path d="M14,21h20c0.6,0,1-0.4,1-1V2c0-0.6-0.4-1-1-1H14c-0.6,0-1,0.4-1,1v18C13,20.6,13.4,21,14,21z M15,3h18v16H15V3z"/>
<path d="M13,46c0,0.6,0.4,1,1,1h20c0.6,0,1-0.4,1-1V28c0-0.6-0.4-1-1-1H14c-0.6,0-1,0.4-1,1V46z M15,29h18v16H15V29z"/>
<path d="M8,7c0.6,0,1-0.4,1-1V4c0-0.6-0.4-1-1-1S7,3.4,7,4v2C7,6.6,7.4,7,8,7z"/>
<path d="M7,18c0,0.6,0.4,1,1,1s1-0.4,1-1v-2c0-0.6-0.4-1-1-1s-1,0.4-1,1V18z"/>
<path d="M7,30c0,0.6,0.4,1,1,1s1-0.4,1-1v-2c0-0.6-0.4-1-1-1s-1,0.4-1,1V30z"/>
<path d="M7,42c0,0.6,0.4,1,1,1s1-0.4,1-1v-2c0-0.6-0.4-1-1-1s-1,0.4-1,1V42z"/>
<path d="M40,7c0.6,0,1-0.4,1-1V4c0-0.6-0.4-1-1-1s-1,0.4-1,1v2C39,6.6,39.4,7,40,7z"/>
<path d="M39,18c0,0.6,0.4,1,1,1s1-0.4,1-1v-2c0-0.6-0.4-1-1-1s-1,0.4-1,1V18z"/>
<path d="M39,30c0,0.6,0.4,1,1,1s1-0.4,1-1v-2c0-0.6-0.4-1-1-1s-1,0.4-1,1V30z"/>
<path d="M39,42c0,0.6,0.4,1,1,1s1-0.4,1-1v-2c0-0.6-0.4-1-1-1s-1,0.4-1,1V42z"/>
</svg>
