<?xml version="1.0" encoding="utf-8"?>
<!-- Generator: Adobe Illustrator 19.1.0, SVG Export Plug-In . SVG Version: 6.00 Build 0)  -->
<!DOCTYPE svg PUBLIC "-//W3C//DTD SVG 1.1//EN" "http://www.w3.org/Graphics/SVG/1.1/DTD/svg11.dtd">
<svg version="1.1" id="Layer_1" xmlns="http://www.w3.org/2000/svg" xmlns:xlink="http://www.w3.org/1999/xlink" x="0px" y="0px"
	 width="48px" height="48px" viewBox="0 0 48 48" enable-background="new 0 0 48 48" xml:space="preserve">
<path d="M18,43c0.6,0,1-0.4,1-1V6c0-0.6-0.4-1-1-1H8C7.4,5,7,5.4,7,6v36c0,0.6,0.4,1,1,1H18z M9,7h8v34H9V7z"/>
<path d="M40,43c0.6,0,1-0.4,1-1V6c0-0.6-0.4-1-1-1H30c-0.6,0-1,0.4-1,1v36c0,0.6,0.4,1,1,1H40z M31,7h8v34h-8V7z"/>
</svg>
