<?xml version="1.0" encoding="utf-8"?>
<!-- Generator: Adobe Illustrator 19.1.0, SVG Export Plug-In . SVG Version: 6.00 Build 0)  -->
<!DOCTYPE svg PUBLIC "-//W3C//DTD SVG 1.1//EN" "http://www.w3.org/Graphics/SVG/1.1/DTD/svg11.dtd">
<svg version="1.1" id="Layer_1" xmlns="http://www.w3.org/2000/svg" xmlns:xlink="http://www.w3.org/1999/xlink" x="0px" y="0px"
	 width="48px" height="48px" viewBox="0 0 48 48" enable-background="new 0 0 48 48" xml:space="preserve">
<path d="M34.4,16.2c-0.4,0.4-0.4,1,0,1.4c3.5,3.5,3.5,9.2,0,12.7c-0.4,0.4-0.4,1,0,1.4c0.2,0.2,0.5,0.3,0.7,0.3s0.5-0.1,0.7-0.3
	c4.3-4.3,4.3-11.3,0-15.6C35.4,15.8,34.8,15.8,34.4,16.2z"/>
<path d="M40,10.6c-0.4,0.4-0.4,1,0,1.4c6.6,6.6,6.6,17.4,0,24c-0.4,0.4-0.4,1,0,1.4c0.2,0.2,0.5,0.3,0.7,0.3s0.5-0.1,0.7-0.3
	c7.4-7.4,7.4-19.5,0-26.9C41,10.2,40.4,10.2,40,10.6z"/>
<path d="M13.6,16.2c-0.4-0.4-1-0.4-1.4,0c-4.3,4.3-4.3,11.3,0,15.6c0.2,0.2,0.5,0.3,0.7,0.3s0.5-0.1,0.7-0.3c0.4-0.4,0.4-1,0-1.4
	c-3.5-3.5-3.5-9.2,0-12.7C14,17.2,14,16.6,13.6,16.2z"/>
<path d="M8,10.6c-0.4-0.4-1-0.4-1.4,0C-0.8,18-0.8,30,6.6,37.4c0.2,0.2,0.5,0.3,0.7,0.3s0.5-0.1,0.7-0.3c0.4-0.4,0.4-1,0-1.4
	c-6.6-6.6-6.6-17.4,0-24C8.4,11.6,8.4,11,8,10.6z"/>
<path d="M24,19c-2.8,0-5,2.2-5,5s2.2,5,5,5s5-2.2,5-5S26.8,19,24,19z M24,27c-1.7,0-3-1.3-3-3s1.3-3,3-3s3,1.3,3,3S25.7,27,24,27z"
	/>
</svg>
