<?xml version="1.0" encoding="utf-8"?>
<!-- Generator: Adobe Illustrator 19.1.0, SVG Export Plug-In . SVG Version: 6.00 Build 0)  -->
<!DOCTYPE svg PUBLIC "-//W3C//DTD SVG 1.1//EN" "http://www.w3.org/Graphics/SVG/1.1/DTD/svg11.dtd">
<svg version="1.1" id="Layer_1" xmlns="http://www.w3.org/2000/svg" xmlns:xlink="http://www.w3.org/1999/xlink" x="0px" y="0px"
	 width="48px" height="48px" viewBox="0 0 48 48" enable-background="new 0 0 48 48" xml:space="preserve">
<path d="M46,13h-7.7L27,4.4c0-0.1,0-0.3,0-0.4c0-1.7-1.3-3-3-3s-3,1.3-3,3c0,0.1,0,0.3,0,0.4L9.7,13H2c-0.6,0-1,0.4-1,1v32
	c0,0.6,0.4,1,1,1h44c0.6,0,1-0.4,1-1V14C47,13.4,46.6,13,46,13z M24,3c0.6,0,1,0.4,1,1s-0.4,1-1,1s-1-0.4-1-1S23.4,3,24,3z M22,6.2
	C22.5,6.7,23.2,7,24,7s1.5-0.3,2-0.8l9,6.8H13L22,6.2z M45,15v22.6L34.7,27.3c-0.4-0.4-1-0.4-1.4,0L21.8,38.7l-9.3-5.6
	c-0.4-0.2-0.9-0.2-1.2,0.2L3,41.6V15H45z M3,45v-0.6l9.2-9.2l9.3,5.6c0.4,0.2,0.9,0.2,1.2-0.2L34,29.4l11,11V45H3z"/>
<path d="M20,29c2.8,0,5-2.2,5-5s-2.2-5-5-5s-5,2.2-5,5S17.2,29,20,29z M20,21c1.7,0,3,1.3,3,3s-1.3,3-3,3s-3-1.3-3-3S18.3,21,20,21z
	"/>
</svg>
