<?xml version="1.0" encoding="utf-8"?>
<!-- Generator: Adobe Illustrator 19.1.0, SVG Export Plug-In . SVG Version: 6.00 Build 0)  -->
<!DOCTYPE svg PUBLIC "-//W3C//DTD SVG 1.1//EN" "http://www.w3.org/Graphics/SVG/1.1/DTD/svg11.dtd">
<svg version="1.1" id="Layer_1" xmlns="http://www.w3.org/2000/svg" xmlns:xlink="http://www.w3.org/1999/xlink" x="0px" y="0px"
	 width="48px" height="48px" viewBox="0 0 48 48" enable-background="new 0 0 48 48" xml:space="preserve">
<path d="M46,1H2C1.4,1,1,1.4,1,2v44c0,0.6,0.4,1,1,1h44c0.6,0,1-0.4,1-1V2C47,1.4,46.6,1,46,1z M45,45H3V3h42V45z"/>
<path d="M17.5,26.9C17.7,27,17.8,27,18,27c0.2,0,0.4-0.1,0.6-0.2l12-8c0.3-0.2,0.4-0.5,0.4-0.8s-0.2-0.6-0.4-0.8l-12-8
	c-0.3-0.2-0.7-0.2-1,0C17.2,9.3,17,9.6,17,10v16C17,26.4,17.2,26.7,17.5,26.9z M19,11.9l9.2,6.1L19,24.1V11.9z"/>
<path d="M36,37h4c0.6,0,1-0.4,1-1s-0.4-1-1-1h-4c-0.6,0-1,0.4-1,1S35.4,37,36,37z"/>
<path d="M8,37h13.1c0.5,2.3,2.5,4,4.9,4c2.8,0,5-2.2,5-5s-2.2-5-5-5c-2.4,0-4.4,1.7-4.9,4H8c-0.6,0-1,0.4-1,1S7.4,37,8,37z M26,33
	c1.7,0,3,1.3,3,3s-1.3,3-3,3s-3-1.3-3-3S24.3,33,26,33z"/>
</svg>
