<?xml version="1.0" encoding="utf-8"?>
<!-- Generator: Adobe Illustrator 19.1.0, SVG Export Plug-In . SVG Version: 6.00 Build 0)  -->
<!DOCTYPE svg PUBLIC "-//W3C//DTD SVG 1.1//EN" "http://www.w3.org/Graphics/SVG/1.1/DTD/svg11.dtd">
<svg version="1.1" id="Layer_1" xmlns="http://www.w3.org/2000/svg" xmlns:xlink="http://www.w3.org/1999/xlink" x="0px" y="0px"
	 width="48px" height="48px" viewBox="0 0 48 48" enable-background="new 0 0 48 48" xml:space="preserve">
<path d="M41,16.2V16c0-8.3-6.7-15-15-15h-4C13.7,1,7,7.7,7,16v0.2C3.4,18,1,21.7,1,26c0,5,3.4,9.3,8,10.6V44c0,0.6,0.4,1,1,1h7v1
	c0,0.6,0.4,1,1,1h8c0.6,0,1-0.4,1-1v-4c0-0.6-0.4-1-1-1h-8c-0.6,0-1,0.4-1,1v1h-6v-6.1c0.3,0,0.7,0.1,1,0.1c0.7,0,1.5-0.1,2.2-0.2
	c0.5-0.1,0.8-0.5,0.8-1V16.2c0-0.5-0.3-0.9-0.8-1C13.5,15.1,12.7,15,12,15c-1,0-2,0.2-3,0.4C9.3,8.5,15,3,22,3h4
	c7,0,12.7,5.5,13,12.4C38,15.2,37,15,36,15c-0.7,0-1.5,0.1-2.2,0.2c-0.5,0.1-0.8,0.5-0.8,1v19.6c0,0.5,0.3,0.9,0.8,1
	c0.7,0.1,1.5,0.2,2.2,0.2c6.1,0,11-4.9,11-11C47,21.7,44.6,18,41,16.2z M19,43h6v2h-6V43z M13,17.1v17.9c-0.3,0-0.7,0.1-1,0.1
	c-5,0-9-4-9-9s4-9,9-9C12.3,17,12.7,17,13,17.1z M36,35c-0.3,0-0.7,0-1-0.1V17.1c0.3,0,0.7-0.1,1-0.1c1.3,0,2.5,0.3,3.6,0.8
	c0,0,0,0,0,0c3.2,1.4,5.4,4.6,5.4,8.2C45,31,41,35,36,35z"/>
</svg>
