<?xml version="1.0" encoding="utf-8"?>
<!-- Generator: Adobe Illustrator 19.1.0, SVG Export Plug-In . SVG Version: 6.00 Build 0)  -->
<!DOCTYPE svg PUBLIC "-//W3C//DTD SVG 1.1//EN" "http://www.w3.org/Graphics/SVG/1.1/DTD/svg11.dtd">
<svg version="1.1" id="Layer_1" xmlns="http://www.w3.org/2000/svg" xmlns:xlink="http://www.w3.org/1999/xlink" x="0px" y="0px"
	 width="48px" height="48px" viewBox="0 0 48 48" enable-background="new 0 0 48 48" xml:space="preserve">
<path d="M40,7H8C7.4,7,7,7.4,7,8v32c0,0.6,0.4,1,1,1h32c0.6,0,1-0.4,1-1V8C41,7.4,40.6,7,40,7z M39,39H9V9h30V39z"/>
<path d="M2,13c-0.6,0-1,0.4-1,1v20c0,0.6,0.4,1,1,1s1-0.4,1-1V14C3,13.4,2.6,13,2,13z"/>
<path d="M46,13c-0.6,0-1,0.4-1,1v20c0,0.6,0.4,1,1,1s1-0.4,1-1V14C47,13.4,46.6,13,46,13z"/>
<path d="M17,33c2.2,0,4-1.8,4-4c0-0.2,0-0.4-0.1-0.7c0-0.1,0.1-0.2,0.1-0.3V17h10v8.6c-0.6-0.3-1.3-0.6-2-0.6c-2.2,0-4,1.8-4,4
	s1.8,4,4,4s4-1.8,4-4c0-0.2,0-0.4-0.1-0.7c0-0.1,0.1-0.2,0.1-0.3V16c0-0.6-0.4-1-1-1H20c-0.6,0-1,0.4-1,1v9.6
	c-0.6-0.3-1.3-0.6-2-0.6c-2.2,0-4,1.8-4,4S14.8,33,17,33z M29,31c-1.1,0-2-0.9-2-2s0.9-2,2-2s2,0.9,2,2S30.1,31,29,31z M17,27
	c1.1,0,2,0.9,2,2s-0.9,2-2,2s-2-0.9-2-2S15.9,27,17,27z"/>
</svg>
