<?xml version="1.0" encoding="utf-8"?>
<!-- Generator: Adobe Illustrator 19.1.0, SVG Export Plug-In . SVG Version: 6.00 Build 0)  -->
<!DOCTYPE svg PUBLIC "-//W3C//DTD SVG 1.1//EN" "http://www.w3.org/Graphics/SVG/1.1/DTD/svg11.dtd">
<svg version="1.1" id="Layer_1" xmlns="http://www.w3.org/2000/svg" xmlns:xlink="http://www.w3.org/1999/xlink" x="0px" y="0px"
	 width="48px" height="48px" viewBox="0 0 48 48" enable-background="new 0 0 48 48" xml:space="preserve">
<path d="M35,20v-8c0-6.1-4.9-11-11-11S13,5.9,13,12v8c0,6.1,4.9,11,11,11S35,26.1,35,20z M15.1,21H20c0.6,0,1-0.4,1-1s-0.4-1-1-1h-5
	v-6h5c0.6,0,1-0.4,1-1s-0.4-1-1-1h-4.9c0.5-4.5,4.3-8,8.9-8s8.4,3.5,8.9,8H28c-0.6,0-1,0.4-1,1s0.4,1,1,1h5v6h-5c-0.6,0-1,0.4-1,1
	s0.4,1,1,1h4.9c-0.5,4.5-4.3,8-8.9,8S15.6,25.5,15.1,21z"/>
<path d="M42,19c-0.6,0-1,0.4-1,1c0,9.4-7.6,17-17,17S7,29.4,7,20c0-0.6-0.4-1-1-1s-1,0.4-1,1c0,10.1,8,18.4,18,18.9V45h-9
	c-0.6,0-1,0.4-1,1s0.4,1,1,1h20c0.6,0,1-0.4,1-1s-0.4-1-1-1h-9v-6.1c10-0.5,18-8.8,18-18.9C43,19.4,42.6,19,42,19z"/>
</svg>
