<?xml version="1.0" encoding="utf-8"?>
<!-- Generator: Adobe Illustrator 19.1.0, SVG Export Plug-In . SVG Version: 6.00 Build 0)  -->
<!DOCTYPE svg PUBLIC "-//W3C//DTD SVG 1.1//EN" "http://www.w3.org/Graphics/SVG/1.1/DTD/svg11.dtd">
<svg version="1.1" id="Layer_1" xmlns="http://www.w3.org/2000/svg" xmlns:xlink="http://www.w3.org/1999/xlink" x="0px" y="0px"
	 width="48px" height="48px" viewBox="0 0 48 48" enable-background="new 0 0 48 48" xml:space="preserve">
<path d="M10.6,10.6c-0.3,0.3-0.4,0.8-0.2,1.2c0.9,1.4,8.4,14.1,10.1,15.8c1,1,2.3,1.5,3.5,1.5c1.3,0,2.6-0.5,3.5-1.5
	c1.9-1.9,1.9-5.1,0-7.1c-1.6-1.6-14.3-9.2-15.8-10.1C11.4,10.2,10.9,10.2,10.6,10.6z M26.1,21.9c1.2,1.2,1.2,3.1,0,4.2
	c-1.2,1.2-3.1,1.2-4.2,0c-0.9-0.9-4.6-6.8-7.7-11.9C19.4,17.3,25.2,21,26.1,21.9z"/>
<path d="M6,23c-0.6,0-1,0.4-1,1c0,10.5,8.5,19,19,19s19-8.5,19-19c0-8.7-5.7-16.1-14-18.3C28.8,3.1,26.6,1,24,1c-2.8,0-5,2.2-5,5
	s2.2,5,5,5c2.2,0,4-1.4,4.7-3.3C36,9.7,41,16.3,41,24c0,9.4-7.6,17-17,17S7,33.4,7,24C7,23.4,6.6,23,6,23z M24,9c-1.7,0-3-1.3-3-3
	s1.3-3,3-3s3,1.3,3,3S25.7,9,24,9z"/>
</svg>
