<?xml version="1.0" encoding="utf-8"?>
<!-- Generator: Adobe Illustrator 19.1.0, SVG Export Plug-In . SVG Version: 6.00 Build 0)  -->
<!DOCTYPE svg PUBLIC "-//W3C//DTD SVG 1.1//EN" "http://www.w3.org/Graphics/SVG/1.1/DTD/svg11.dtd">
<svg version="1.1" id="Layer_1" xmlns="http://www.w3.org/2000/svg" xmlns:xlink="http://www.w3.org/1999/xlink" x="0px" y="0px"
	 width="48px" height="48px" viewBox="0 0 48 48" enable-background="new 0 0 48 48" xml:space="preserve">
<path d="M45,2c0-0.6-0.4-1-1-1H2C1.4,1,1,1.4,1,2v42c0,0.6,0.4,1,1,1h27.7c1.8,1.3,4,2,6.3,2c6.1,0,11-4.9,11-11
	c0-2.3-0.7-4.5-2-6.3V2z M43,3v19.1l-10.4-7c-0.4-0.3-0.9-0.2-1.3,0.1L19.8,26.7l-9.3-5.6c-0.4-0.2-0.9-0.2-1.2,0.2L3,27.6V3H43z
	 M3,30.4l7.2-7.2l9.3,5.6c0.4,0.2,0.9,0.2,1.2-0.2l11.4-11.4L43,24.5v3c-1.9-1.6-4.3-2.5-7-2.5c-6.1,0-11,4.9-11,11
	c0,2.7,0.9,5.1,2.5,7H3V30.4z M36,45c-5,0-9-4-9-9s4-9,9-9s9,4,9,9S41,45,36,45z"/>
<path d="M18,19c2.8,0,5-2.2,5-5s-2.2-5-5-5s-5,2.2-5,5S15.2,19,18,19z M18,11c1.7,0,3,1.3,3,3s-1.3,3-3,3s-3-1.3-3-3S16.3,11,18,11z
	"/>
<path d="M40,35h-8c-0.6,0-1,0.4-1,1s0.4,1,1,1h8c0.6,0,1-0.4,1-1S40.6,35,40,35z"/>
</svg>
