<?xml version="1.0" encoding="utf-8"?>
<!-- Generator: Adobe Illustrator 19.1.0, SVG Export Plug-In . SVG Version: 6.00 Build 0)  -->
<!DOCTYPE svg PUBLIC "-//W3C//DTD SVG 1.1//EN" "http://www.w3.org/Graphics/SVG/1.1/DTD/svg11.dtd">
<svg version="1.1" id="Layer_1" xmlns="http://www.w3.org/2000/svg" xmlns:xlink="http://www.w3.org/1999/xlink" x="0px" y="0px"
	 width="48px" height="48px" viewBox="0 0 48 48" enable-background="new 0 0 48 48" xml:space="preserve">
<path d="M1.6,30.9L5,32.2V40c0,0.5,0.4,0.9,0.8,1l12,2c0.1,0,0.1,0,0.2,0c0.2,0,0.5-0.1,0.6-0.2c0.2-0.2,0.4-0.5,0.4-0.8v-4.6
	l14.6,5.5c0.1,0,0.2,0.1,0.4,0.1c0.2,0,0.4-0.1,0.6-0.2c0.3-0.2,0.4-0.5,0.4-0.8V6c0-0.3-0.2-0.6-0.4-0.8C34.3,5,34,4.9,33.6,5.1
	l-32,12C1.3,17.2,1,17.6,1,18v12C1,30.4,1.3,30.8,1.6,30.9z M17,40.8L7,39.2v-6.2l10,3.8V40.8z M33,40.6l-22-8.2V15.7l22-8.2V40.6z
	 M3,18.7l6-2.2v15.1l-6-2.2V18.7z"/>
<path d="M46,23h-4c-0.6,0-1,0.4-1,1s0.4,1,1,1h4c0.6,0,1-0.4,1-1S46.6,23,46,23z"/>
<path d="M39.6,16c0.2,0,0.3,0,0.5-0.1l3.5-2c0.5-0.3,0.6-0.9,0.4-1.4c-0.3-0.5-0.9-0.6-1.4-0.4l-3.5,2c-0.5,0.3-0.6,0.9-0.4,1.4
	C38.9,15.8,39.2,16,39.6,16z"/>
<path d="M39.1,33.9l3.5,2c0.2,0.1,0.3,0.1,0.5,0.1c0.3,0,0.7-0.2,0.9-0.5c0.3-0.5,0.1-1.1-0.4-1.4l-3.5-2c-0.5-0.3-1.1-0.1-1.4,0.4
	C38.4,33,38.6,33.6,39.1,33.9z"/>
</svg>
