<?xml version="1.0" encoding="utf-8"?>
<!-- Generator: Adobe Illustrator 19.1.0, SVG Export Plug-In . SVG Version: 6.00 Build 0)  -->
<!DOCTYPE svg PUBLIC "-//W3C//DTD SVG 1.1//EN" "http://www.w3.org/Graphics/SVG/1.1/DTD/svg11.dtd">
<svg version="1.1" id="Layer_1" xmlns="http://www.w3.org/2000/svg" xmlns:xlink="http://www.w3.org/1999/xlink" x="0px" y="0px"
	 width="48px" height="48px" viewBox="0 0 48 48" enable-background="new 0 0 48 48" xml:space="preserve">
<path d="M46,9h-7.5l-3.7-5.6C34.6,3.2,34.3,3,34,3H22c-0.3,0-0.6,0.2-0.8,0.4L17.5,9H2c-0.6,0-1,0.4-1,1v34c0,0.6,0.4,1,1,1h44
	c0.6,0,1-0.4,1-1V10C47,9.4,46.6,9,46,9z M3,11h6v32H3V11z M45,43H11V11h7c0.3,0,0.6-0.2,0.8-0.4L22.5,5h10.9l3.7,5.6
	c0.2,0.3,0.5,0.4,0.8,0.4h7V43z"/>
<path d="M28,15c-6.1,0-11,4.9-11,11s4.9,11,11,11s11-4.9,11-11S34.1,15,28,15z M28,35c-5,0-9-4-9-9s4-9,9-9s9,4,9,9S33,35,28,35z"/>
</svg>
