<?xml version="1.0" encoding="utf-8"?>
<!-- Generator: Adobe Illustrator 19.1.0, SVG Export Plug-In . SVG Version: 6.00 Build 0)  -->
<!DOCTYPE svg PUBLIC "-//W3C//DTD SVG 1.1//EN" "http://www.w3.org/Graphics/SVG/1.1/DTD/svg11.dtd">
<svg version="1.1" id="Layer_1" xmlns="http://www.w3.org/2000/svg" xmlns:xlink="http://www.w3.org/1999/xlink" x="0px" y="0px"
	 width="48px" height="48px" viewBox="0 0 48 48" enable-background="new 0 0 48 48" xml:space="preserve">
<path d="M26.4,5.1C26,4.9,25.6,5,25.3,5.3l-20,22C5,27.6,4.9,28,5.1,28.4C5.2,28.8,5.6,29,6,29h16.8L21,41.9c-0.1,0.4,0.2,0.9,0.6,1
	C21.7,43,21.9,43,22,43c0.3,0,0.5-0.1,0.7-0.3l20-22c0.3-0.3,0.3-0.7,0.2-1.1C42.8,19.2,42.4,19,42,19H25.2L27,6.1
	C27.1,5.7,26.8,5.3,26.4,5.1z M39.7,21L23.5,38.9L25,28.1c0-0.3,0-0.6-0.2-0.8C24.6,27.1,24.3,27,24,27H8.3L24.5,9.1L23,19.9
	c0,0.3,0,0.6,0.2,0.8c0.2,0.2,0.5,0.3,0.8,0.3H39.7z"/>
<path d="M37.2,33.4l-8,12c-0.3,0.5-0.2,1.1,0.3,1.4s1.1,0.2,1.4-0.3l2.4-3.6h9.6l2.4,3.6c0.2,0.3,0.5,0.4,0.8,0.4
	c0.2,0,0.4-0.1,0.6-0.2c0.5-0.3,0.6-0.9,0.3-1.4l-8-12C38.5,32.9,37.5,32.9,37.2,33.4z M34.5,41l3.5-5.2l3.5,5.2H34.5z"/>
</svg>
