<?xml version="1.0" encoding="utf-8"?>
<!-- Generator: Adobe Illustrator 19.1.0, SVG Export Plug-In . SVG Version: 6.00 Build 0)  -->
<!DOCTYPE svg PUBLIC "-//W3C//DTD SVG 1.1//EN" "http://www.w3.org/Graphics/SVG/1.1/DTD/svg11.dtd">
<svg version="1.1" id="Layer_1" xmlns="http://www.w3.org/2000/svg" xmlns:xlink="http://www.w3.org/1999/xlink" x="0px" y="0px"
	 width="48px" height="48px" viewBox="0 0 48 48" enable-background="new 0 0 48 48" xml:space="preserve">
<path d="M46.4,7.1c-0.3-0.2-0.8-0.1-1.1,0.1l-20,16C25.1,23.4,25,23.7,25,24s0.1,0.6,0.4,0.8l20,16c0.2,0.1,0.4,0.2,0.6,0.2
	c0.1,0,0.3,0,0.4-0.1c0.3-0.2,0.6-0.5,0.6-0.9V8C47,7.6,46.8,7.3,46.4,7.1z M45,37.9L27.6,24L45,10.1V37.9z"/>
<path d="M24.4,7.1c-0.3-0.2-0.8-0.1-1.1,0.1l-20,16C3.1,23.4,3,23.7,3,24s0.1,0.6,0.4,0.8l20,16c0.2,0.1,0.4,0.2,0.6,0.2
	c0.1,0,0.3,0,0.4-0.1c0.3-0.2,0.6-0.5,0.6-0.9V24V8C25,7.6,24.8,7.3,24.4,7.1z M23,37.9L5.6,24L23,10.1V37.9z"/>
</svg>
