<?xml version="1.0" encoding="utf-8"?>
<!-- Generator: Adobe Illustrator 19.1.0, SVG Export Plug-In . SVG Version: 6.00 Build 0)  -->
<!DOCTYPE svg PUBLIC "-//W3C//DTD SVG 1.1//EN" "http://www.w3.org/Graphics/SVG/1.1/DTD/svg11.dtd">
<svg version="1.1" id="Layer_1" xmlns="http://www.w3.org/2000/svg" xmlns:xlink="http://www.w3.org/1999/xlink" x="0px" y="0px"
	 width="48px" height="48px" viewBox="0 0 48 48" enable-background="new 0 0 48 48" xml:space="preserve">
<path d="M6,33h36c0.4,0,0.7-0.2,0.9-0.6s0.1-0.7-0.1-1l-18-24c-0.4-0.5-1.2-0.5-1.6,0l-18,24c-0.2,0.3-0.3,0.7-0.1,1S5.6,33,6,33z
	 M24,9.7L40,31H8L24,9.7z"/>
<path d="M42,39H6c-0.6,0-1,0.4-1,1s0.4,1,1,1h36c0.6,0,1-0.4,1-1S42.6,39,42,39z"/>
</svg>
