<?xml version="1.0" encoding="utf-8"?>
<!-- Generator: Adobe Illustrator 19.1.0, SVG Export Plug-In . SVG Version: 6.00 Build 0)  -->
<!DOCTYPE svg PUBLIC "-//W3C//DTD SVG 1.1//EN" "http://www.w3.org/Graphics/SVG/1.1/DTD/svg11.dtd">
<svg version="1.1" id="Layer_1" xmlns="http://www.w3.org/2000/svg" xmlns:xlink="http://www.w3.org/1999/xlink" x="0px" y="0px"
	 width="48px" height="48px" viewBox="0 0 48 48" enable-background="new 0 0 48 48" xml:space="preserve">
<path d="M46,9H32.9c-0.5-5-4.8-8-8.9-8s-8.4,3-8.9,8H2c-0.6,0-1,0.4-1,1v36c0,0.6,0.4,1,1,1h44c0.6,0,1-0.4,1-1V10
	C47,9.4,46.6,9,46,9z M24,3c3.4,0,7,2.6,7,7c0,3.3-4.6,8.3-7,10.6c-2.4-2.3-7-7.3-7-10.6C17,5.6,20.6,3,24,3z M9,34.4l5.2-5.2
	l9.3,5.6C23.6,35,23.8,35,24,35c0.3,0,0.5-0.1,0.7-0.3l9.4-9.4l4.9,3.5V39H9V34.4z M39,26.3l-4.4-3.2c-0.4-0.3-0.9-0.2-1.3,0.1
	l-9.4,9.4l-9.3-5.6c-0.4-0.2-0.9-0.2-1.2,0.2L9,31.6V17h9.1c2.3,3.1,5.1,5.6,5.3,5.7c0.2,0.2,0.4,0.3,0.7,0.3s0.5-0.1,0.7-0.3
	c0.2-0.2,3-2.7,5.3-5.7H39V26.3z M45,45H3V11h12.1c0.2,1.3,0.8,2.7,1.6,4H8c-0.6,0-1,0.4-1,1v18c0,0,0,0,0,0v6c0,0.6,0.4,1,1,1h32
	c0.6,0,1-0.4,1-1V16c0-0.6-0.4-1-1-1h-8.7c0.8-1.3,1.4-2.7,1.6-4H45V45z"/>
<path d="M27,10c0-1.7-1.3-3-3-3s-3,1.3-3,3s1.3,3,3,3S27,11.7,27,10z M23,10c0-0.6,0.4-1,1-1s1,0.4,1,1s-0.4,1-1,1S23,10.6,23,10z"
	/>
</svg>
