<?xml version="1.0" encoding="utf-8"?>
<!-- Generator: Adobe Illustrator 19.1.0, SVG Export Plug-In . SVG Version: 6.00 Build 0)  -->
<!DOCTYPE svg PUBLIC "-//W3C//DTD SVG 1.1//EN" "http://www.w3.org/Graphics/SVG/1.1/DTD/svg11.dtd">
<svg version="1.1" id="Layer_1" xmlns="http://www.w3.org/2000/svg" xmlns:xlink="http://www.w3.org/1999/xlink" x="0px" y="0px"
	 width="48px" height="48px" viewBox="0 0 48 48" enable-background="new 0 0 48 48" xml:space="preserve">
<path d="M2,47c0.6,0,1-0.4,1-1V24c0-1.7,1.3-3,3-3s3,1.3,3,3v16c0,0.6,0.4,1,1,1s1-0.4,1-1V24v-4c0-1.7,1.3-3,3-3s3,1.3,3,3v4v16
	c0,0.6,0.4,1,1,1s1-0.4,1-1V24c0-1.7,1.3-3,3-3s3,1.3,3,3v4v12c0,0.6,0.4,1,1,1s1-0.4,1-1V28c0-1.7,1.3-3,3-3s3,1.3,3,3v18
	c0,0.6,0.4,1,1,1s1-0.4,1-1V28c0-2.8-2.2-5-5-5c-1.1,0-2.2,0.4-3,1v0c0-2.8-2.2-5-5-5c-1.1,0-2.2,0.4-3,1v0c0-2.8-2.2-5-5-5
	s-5,2.2-5,5v0c-0.8-0.6-1.9-1-3-1c-2.8,0-5,2.2-5,5v22C1,46.6,1.4,47,2,47z"/>
<path d="M37,20c0,0.6,0.4,1,1,1s1-0.4,1-1c0-6.1-4.9-11-11-11c-0.6,0-1,0.4-1,1s0.4,1,1,1C33,11,37,15,37,20z"/>
<path d="M28,1c-0.6,0-1,0.4-1,1s0.4,1,1,1c9.4,0,17,7.6,17,17c0,0.6,0.4,1,1,1s1-0.4,1-1C47,9.5,38.5,1,28,1z"/>
</svg>
