<?xml version="1.0" encoding="utf-8"?>
<!-- Generator: Adobe Illustrator 19.1.0, SVG Export Plug-In . SVG Version: 6.00 Build 0)  -->
<!DOCTYPE svg PUBLIC "-//W3C//DTD SVG 1.1//EN" "http://www.w3.org/Graphics/SVG/1.1/DTD/svg11.dtd">
<svg version="1.1" id="Layer_1" xmlns="http://www.w3.org/2000/svg" xmlns:xlink="http://www.w3.org/1999/xlink" x="0px" y="0px"
	 width="48px" height="48px" viewBox="0 0 48 48" enable-background="new 0 0 48 48" xml:space="preserve">
<path d="M46,1H14c-0.6,0-1,0.4-1,1v5H8C7.4,7,7,7.4,7,8v5H2c-0.6,0-1,0.4-1,1v32c0,0.6,0.4,1,1,1h32c0.6,0,1-0.4,1-1v-5h5
	c0.6,0,1-0.4,1-1v-5h5c0.6,0,1-0.4,1-1V2C47,1.4,46.6,1,46,1z M33,45H3V15h30V45z M39,39h-4V14c0-0.6-0.4-1-1-1H9V9h30V39z M45,33
	h-4V8c0-0.6-0.4-1-1-1H15V3h30V33z"/>
</svg>
