<?xml version="1.0" encoding="utf-8"?>
<!-- Generator: Adobe Illustrator 19.1.0, SVG Export Plug-In . SVG Version: 6.00 Build 0)  -->
<!DOCTYPE svg PUBLIC "-//W3C//DTD SVG 1.1//EN" "http://www.w3.org/Graphics/SVG/1.1/DTD/svg11.dtd">
<svg version="1.1" id="Layer_1" xmlns="http://www.w3.org/2000/svg" xmlns:xlink="http://www.w3.org/1999/xlink" x="0px" y="0px"
	 width="48px" height="48px" viewBox="0 0 48 48" enable-background="new 0 0 48 48" xml:space="preserve">
<path d="M24,1C11.3,1,1,11.3,1,24s10.3,23,23,23s23-10.3,23-23S36.7,1,24,1z M25,44.9V38c0-0.6-0.4-1-1-1s-1,0.4-1,1v6.9
	C12.2,44.4,3.6,35.8,3.1,25H10c0.6,0,1-0.4,1-1s-0.4-1-1-1H3.1C3.6,12.2,12.2,3.6,23,3.1V10c0,0.6,0.4,1,1,1s1-0.4,1-1V3.1
	C35.8,3.6,44.4,12.2,44.9,23H38c-0.6,0-1,0.4-1,1s0.4,1,1,1h6.9C44.4,35.8,35.8,44.4,25,44.9z"/>
<path d="M24,19c-2.8,0-5,2.2-5,5s2.2,5,5,5s5-2.2,5-5S26.8,19,24,19z M24,27c-1.7,0-3-1.3-3-3s1.3-3,3-3s3,1.3,3,3S25.7,27,24,27z"
	/>
</svg>
