<?xml version="1.0" encoding="utf-8"?>
<!-- Generator: Adobe Illustrator 19.1.0, SVG Export Plug-In . SVG Version: 6.00 Build 0)  -->
<!DOCTYPE svg PUBLIC "-//W3C//DTD SVG 1.1//EN" "http://www.w3.org/Graphics/SVG/1.1/DTD/svg11.dtd">
<svg version="1.1" id="Layer_1" xmlns="http://www.w3.org/2000/svg" xmlns:xlink="http://www.w3.org/1999/xlink" x="0px" y="0px"
	 width="48px" height="48px" viewBox="0 0 48 48" enable-background="new 0 0 48 48" xml:space="preserve">
<path d="M30.8,1.4C30.6,1.1,30.3,1,30,1H16c-0.5,0-0.8,0.3-1,0.7l-6,22C9,24,9,24.4,9.2,24.6C9.4,24.9,9.7,25,10,25h10.7L17,39.8
	c-0.1,0.5,0.1,0.9,0.5,1.1C17.7,41,17.8,41,18,41c0.3,0,0.6-0.1,0.8-0.4l20-24c0.2-0.3,0.3-0.7,0.1-1.1C38.7,15.2,38.4,15,38,15
	H27.3L31,2.3C31,2,31,1.6,30.8,1.4z M25,15.7c-0.1,0.3,0,0.6,0.2,0.9S25.7,17,26,17h9.9L20,36L23,24.2c0.1-0.3,0-0.6-0.2-0.9
	S22.3,23,22,23H11.3l5.5-20h11.9L25,15.7z"/>
</svg>
