<?xml version="1.0" encoding="utf-8"?>
<!-- Generator: Adobe Illustrator 19.1.0, SVG Export Plug-In . SVG Version: 6.00 Build 0)  -->
<!DOCTYPE svg PUBLIC "-//W3C//DTD SVG 1.1//EN" "http://www.w3.org/Graphics/SVG/1.1/DTD/svg11.dtd">
<svg version="1.1" id="Layer_1" xmlns="http://www.w3.org/2000/svg" xmlns:xlink="http://www.w3.org/1999/xlink" x="0px" y="0px"
	 width="48px" height="48px" viewBox="0 0 48 48" enable-background="new 0 0 48 48" xml:space="preserve">
<path d="M46.6,17.2c-0.3-0.2-0.6-0.2-0.9-0.1L33,22.5V14c0-0.6-0.4-1-1-1h-5V8c0-0.6-0.4-1-1-1H10C9.4,7,9,7.4,9,8s0.4,1,1,1h15v4H2
	c-0.6,0-1,0.4-1,1v28c0,0.6,0.4,1,1,1h30c0.6,0,1-0.4,1-1v-8.5l12.6,5.4C45.7,39,45.9,39,46,39c0.2,0,0.4-0.1,0.6-0.2
	c0.3-0.2,0.4-0.5,0.4-0.8V18C47,17.7,46.8,17.4,46.6,17.2z M31,41H3V15h28v9v8V41z M45,36.5l-12-5.1v-6.7l12-5.1V36.5z"/>
<path d="M10,19c-1.7,0-3,1.3-3,3s1.3,3,3,3s3-1.3,3-3S11.7,19,10,19z M10,23c-0.6,0-1-0.4-1-1s0.4-1,1-1s1,0.4,1,1S10.6,23,10,23z"
	/>
<path d="M26,21h-4c-0.6,0-1,0.4-1,1s0.4,1,1,1h4c0.6,0,1-0.4,1-1S26.6,21,26,21z"/>
</svg>
