<?xml version="1.0" encoding="utf-8"?>
<!-- Generator: Adobe Illustrator 19.1.0, SVG Export Plug-In . SVG Version: 6.00 Build 0)  -->
<!DOCTYPE svg PUBLIC "-//W3C//DTD SVG 1.1//EN" "http://www.w3.org/Graphics/SVG/1.1/DTD/svg11.dtd">
<svg version="1.1" id="Layer_1" xmlns="http://www.w3.org/2000/svg" xmlns:xlink="http://www.w3.org/1999/xlink" x="0px" y="0px"
	 width="48px" height="48px" viewBox="0 0 48 48" enable-background="new 0 0 48 48" xml:space="preserve">
<path d="M46.9,19.5c0-0.1-0.1-0.1-0.1-0.2l-12-14C34.6,5.1,34.3,5,34,5c-0.3,0-0.5,0.1-0.7,0.3l-4,4c-0.4,0.4-0.4,1,0,1.4
	s1,0.4,1.4,0l3.2-3.2L43.8,19H4.2l9.9-11.5l3.2,3.2c0.4,0.4,1,0.4,1.4,0s0.4-1,0-1.4l-4-4C14.5,5.1,14.2,5,14,5
	c-0.3,0-0.5,0.1-0.7,0.3l-12,14c0,0-0.1,0.1-0.1,0.2c0,0-0.1,0.1-0.1,0.1C1,19.7,1,19.9,1,20v22c0,0.6,0.4,1,1,1h18c0.6,0,1-0.4,1-1
	c0-1.7,1.3-3,3-3s3,1.3,3,3c0,0.6,0.4,1,1,1h18c0.6,0,1-0.4,1-1V20c0-0.1,0-0.3-0.1-0.4C46.9,19.6,46.9,19.5,46.9,19.5z M28.9,41
	c-0.5-2.3-2.5-4-4.9-4s-4.4,1.7-4.9,4H3V21h42v20H28.9z"/>
<path d="M18,25H8c-0.6,0-1,0.4-1,1v10c0,0.6,0.4,1,1,1h8c0.3,0,0.5-0.1,0.7-0.3l2-2c0.2-0.2,0.3-0.4,0.3-0.7v-8
	C19,25.4,18.6,25,18,25z M17,33.6L15.6,35H9v-8h8V33.6z"/>
<path d="M40,25H30c-0.6,0-1,0.4-1,1v8c0,0.3,0.1,0.5,0.3,0.7l2,2c0.2,0.2,0.4,0.3,0.7,0.3h8c0.6,0,1-0.4,1-1V26
	C41,25.4,40.6,25,40,25z M39,35h-6.6L31,33.6V27h8V35z"/>
</svg>
