<?xml version="1.0" encoding="utf-8"?>
<!-- Generator: Adobe Illustrator 19.1.0, SVG Export Plug-In . SVG Version: 6.00 Build 0)  -->
<!DOCTYPE svg PUBLIC "-//W3C//DTD SVG 1.1//EN" "http://www.w3.org/Graphics/SVG/1.1/DTD/svg11.dtd">
<svg version="1.1" id="Layer_1" xmlns="http://www.w3.org/2000/svg" xmlns:xlink="http://www.w3.org/1999/xlink" x="0px" y="0px"
	 width="48px" height="48px" viewBox="0 0 48 48" enable-background="new 0 0 48 48" xml:space="preserve">
<path d="M14,25c2.8,0,5-2.2,5-5s-2.2-5-5-5s-5,2.2-5,5S11.2,25,14,25z M14,17c1.7,0,3,1.3,3,3s-1.3,3-3,3s-3-1.3-3-3S12.3,17,14,17z
	"/>
<path d="M34,25c2.8,0,5-2.2,5-5s-2.2-5-5-5s-5,2.2-5,5S31.2,25,34,25z M34,17c1.7,0,3,1.3,3,3s-1.3,3-3,3s-3-1.3-3-3S32.3,17,34,17z
	"/>
<path d="M46,7H2C1.4,7,1,7.4,1,8v32c0,0.6,0.4,1,1,1h44c0.6,0,1-0.4,1-1V8C47,7.4,46.6,7,46,7z M11.6,39l3-6h18.8l3,6H11.6z M45,39
	h-6.4l-3.7-7.4C34.7,31.2,34.4,31,34,31H14c-0.4,0-0.7,0.2-0.9,0.6L9.4,39H3V9h42V39z"/>
</svg>
