<?xml version="1.0" encoding="utf-8"?>
<!-- Generator: Adobe Illustrator 19.1.0, SVG Export Plug-In . SVG Version: 6.00 Build 0)  -->
<!DOCTYPE svg PUBLIC "-//W3C//DTD SVG 1.1//EN" "http://www.w3.org/Graphics/SVG/1.1/DTD/svg11.dtd">
<svg version="1.1" id="Layer_1" xmlns="http://www.w3.org/2000/svg" xmlns:xlink="http://www.w3.org/1999/xlink" x="0px" y="0px"
	 width="48px" height="48px" viewBox="0 0 48 48" enable-background="new 0 0 48 48" xml:space="preserve">
<path d="M46,3H2C1.4,3,1,3.4,1,4v40c0,0.6,0.4,1,1,1h44c0.6,0,1-0.4,1-1V4C47,3.4,46.6,3,46,3z M45,43H3V5h42V43z"/>
<path d="M16,31h4c0.6,0,1-0.4,1-1s-0.4-1-1-1h-3V19h3c0.6,0,1-0.4,1-1s-0.4-1-1-1h-4c-0.6,0-1,0.4-1,1v12C15,30.6,15.4,31,16,31z"/>
<path d="M28,29c-0.6,0-1,0.4-1,1s0.4,1,1,1h4c0.6,0,1-0.4,1-1V18c0-0.6-0.4-1-1-1h-4c-0.6,0-1,0.4-1,1s0.4,1,1,1h3v10H28z"/>
</svg>
