<?xml version="1.0" encoding="utf-8"?>
<!-- Generator: Adobe Illustrator 19.1.0, SVG Export Plug-In . SVG Version: 6.00 Build 0)  -->
<!DOCTYPE svg PUBLIC "-//W3C//DTD SVG 1.1//EN" "http://www.w3.org/Graphics/SVG/1.1/DTD/svg11.dtd">
<svg version="1.1" id="Layer_1" xmlns="http://www.w3.org/2000/svg" xmlns:xlink="http://www.w3.org/1999/xlink" x="0px" y="0px"
	 width="48px" height="48px" viewBox="0 0 48 48" enable-background="new 0 0 48 48" xml:space="preserve">
<path d="M28,3c-9.6,0-17.5,7-18.8,16.4C4.4,20.6,1,25,1,30c0,6.1,4.9,11,11,11h16c10.5,0,19-8.5,19-19S38.5,3,28,3z M28,39H12
	c-5,0-9-4-9-9c0-4.3,3.1-8,7.3-8.8c0.4-0.1,0.8-0.4,0.8-0.9C12,11.6,19.2,5,28,5c9.4,0,17,7.6,17,17S37.4,39,28,39z"/>
<path d="M34,15H22c-0.6,0-1,0.4-1,1v9.6c-0.6-0.3-1.3-0.6-2-0.6c-2.2,0-4,1.8-4,4s1.8,4,4,4s4-1.8,4-4c0-0.2,0-0.4-0.1-0.7
	c0-0.1,0.1-0.2,0.1-0.3V17h10v8.6c-0.6-0.3-1.3-0.6-2-0.6c-2.2,0-4,1.8-4,4s1.8,4,4,4s4-1.8,4-4c0-0.2,0-0.4-0.1-0.7
	c0-0.1,0.1-0.2,0.1-0.3V16C35,15.4,34.6,15,34,15z M19,31c-1.1,0-2-0.9-2-2s0.9-2,2-2s2,0.9,2,2S20.1,31,19,31z M31,31
	c-1.1,0-2-0.9-2-2s0.9-2,2-2s2,0.9,2,2S32.1,31,31,31z"/>
</svg>
