<?xml version="1.0" encoding="utf-8"?>
<!-- Generator: Adobe Illustrator 18.1.1, SVG Export Plug-In . SVG Version: 6.00 Build 0)  -->
<!DOCTYPE svg PUBLIC "-//W3C//DTD SVG 1.1//EN" "http://www.w3.org/Graphics/SVG/1.1/DTD/svg11.dtd">
<svg version="1.1" id="Layer_1" xmlns="http://www.w3.org/2000/svg" xmlns:xlink="http://www.w3.org/1999/xlink" x="0px" y="0px"
	 width="32px" height="32px" viewBox="0 0 32 32" enable-background="new 0 0 32 32" xml:space="preserve">
<path d="M31,11h-9v-1c0-0.6-0.4-1-1-1H11c-0.6,0-1,0.4-1,1v1H1c-0.6,0-1,0.4-1,1v8c0,0.6,0.4,1,1,1h9v1c0,0.6,0.4,1,1,1h10
	c0.6,0,1-0.4,1-1v-1h9c0.6,0,1-0.4,1-1v-8C32,11.4,31.6,11,31,11z M2,19v-6h8v6H2z M20,21h-8v-4h2c0.6,0,1-0.4,1-1s-0.4-1-1-1h-2v-4
	h8V21z M30,19h-8v-6h8V19z"/>
</svg>
