<?xml version="1.0" encoding="utf-8"?>
<!-- Generator: Adobe Illustrator 18.1.1, SVG Export Plug-In . SVG Version: 6.00 Build 0)  -->
<!DOCTYPE svg PUBLIC "-//W3C//DTD SVG 1.1//EN" "http://www.w3.org/Graphics/SVG/1.1/DTD/svg11.dtd">
<svg version="1.1" id="Layer_1" xmlns="http://www.w3.org/2000/svg" xmlns:xlink="http://www.w3.org/1999/xlink" x="0px" y="0px"
	 width="32px" height="32px" viewBox="0 0 32 32" enable-background="new 0 0 32 32" xml:space="preserve">
<path d="M31,6h-3.6C27.8,5.4,28,4.7,28,4c0-2.2-1.8-4-4-4H8C5.8,0,4,1.8,4,4c0,0.7,0.2,1.4,0.6,2H1C0.4,6,0,6.4,0,7v24
	c0,0.6,0.4,1,1,1h30c0.6,0,1-0.4,1-1V7C32,6.4,31.6,6,31,6z M6,4c0-1.1,0.9-2,2-2h16c1.1,0,2,0.9,2,2s-0.9,2-2,2h-1
	c-0.6,0-1,0.4-1,1c0,3.3-2.7,6-6,6s-6-2.7-6-6c0-0.6-0.4-1-1-1H8C6.9,6,6,5.1,6,4z M30,30H2V8h6.1c0.3,2.1,1.4,4,2.9,5.2V23
	c0,0.6,0.4,1,1,1s1-0.4,1-1v-8.6c0.9,0.4,1.9,0.6,3,0.6s2.1-0.2,3-0.6V23c0,0.6,0.4,1,1,1s1-0.4,1-1v-9.8c1.6-1.3,2.7-3.1,2.9-5.2
	H30V30z"/>
</svg>
