<?xml version="1.0" encoding="utf-8"?>
<!-- Generator: Adobe Illustrator 18.1.1, SVG Export Plug-In . SVG Version: 6.00 Build 0)  -->
<!DOCTYPE svg PUBLIC "-//W3C//DTD SVG 1.1//EN" "http://www.w3.org/Graphics/SVG/1.1/DTD/svg11.dtd">
<svg version="1.1" id="Layer_1" xmlns="http://www.w3.org/2000/svg" xmlns:xlink="http://www.w3.org/1999/xlink" x="0px" y="0px"
	 width="32px" height="32px" viewBox="0 0 32 32" enable-background="new 0 0 32 32" xml:space="preserve">
<path d="M31,5c-0.6,0-1,0.4-1,1v4.1c-0.9,0.6-2,0.9-3.1,0.9c-0.7,0-1.3-0.1-1.9-0.3V2c0-0.6-0.4-1-1-1H12c-0.6,0-1,0.4-1,1v4.6
	l-4.1,4.1C5.3,11.2,3.5,11,2,10.1V6c0-0.6-0.4-1-1-1S0,5.4,0,6v24c0,0.6,0.4,1,1,1h30c0.6,0,1-0.4,1-1V6C32,5.4,31.6,5,31,5z
	 M12.7,7.7C12.9,7.5,13,7.3,13,7V3h10v16v2v3c0,0.6-0.4,1-1,1s-1-0.4-1-1v-5c0-0.6-0.4-1-1-1s-1,0.4-1,1v5c0,0.6-0.4,1-1,1
	s-1-0.4-1-1v-5c0-0.6-0.4-1-1-1s-1,0.4-1,1v5c0,0.6-0.4,1-1,1s-1-0.4-1-1V13c0-0.4-0.2-0.8-0.6-0.9c-0.4-0.2-0.8-0.1-1.1,0.2
	l-2.5,2.5c-0.4,0.4-1.2,0.4-1.6,0C7,14.6,6.9,14.3,6.9,14s0.1-0.6,0.3-0.8l0.9-0.9c0,0,0,0,0,0L12.7,7.7z M2,29V12.3
	C3,12.8,4,13,5.1,13c-0.4,1.1-0.1,2.3,0.7,3.2c1.2,1.2,3.2,1.2,4.4,0l0.8-0.8V24c0,1.7,1.3,3,3,3c0.8,0,1.5-0.3,2-0.8
	c0.5,0.5,1.2,0.8,2,0.8s1.5-0.3,2-0.8c0.5,0.5,1.2,0.8,2,0.8c1.7,0,3-1.3,3-3v-3v-2v-6.2c0.6,0.1,1.2,0.2,1.9,0.2
	c1.1,0,2.1-0.2,3.1-0.7V29H2z"/>
</svg>
