<?xml version="1.0" encoding="utf-8"?>
<!-- Generator: Adobe Illustrator 18.1.1, SVG Export Plug-In . SVG Version: 6.00 Build 0)  -->
<!DOCTYPE svg PUBLIC "-//W3C//DTD SVG 1.1//EN" "http://www.w3.org/Graphics/SVG/1.1/DTD/svg11.dtd">
<svg version="1.1" id="Layer_1" xmlns="http://www.w3.org/2000/svg" xmlns:xlink="http://www.w3.org/1999/xlink" x="0px" y="0px"
	 width="32px" height="32px" viewBox="0 0 32 32" enable-background="new 0 0 32 32" xml:space="preserve">
<path d="M14.6,0C12.3,0,10,1,8.4,2.8C6.8,4.5,6,6.9,6.2,9.2l1.4,15.1C8,28.7,11.6,32,16,32s8-3.3,8.4-7.7l1.4-15.1
	c0.2-2.4-0.6-4.7-2.2-6.5C22,1,19.7,0,17.4,0H14.6z M16,30c-3.4,0-6.1-2.5-6.4-5.9L9,17.6c0.8-3.5,5.1-6,7-6c1.9,0,6.2,2.5,7,6
	l-0.6,6.5C22.1,27.5,19.4,30,16,30z M23.8,9.1l-0.4,4.8c-1.7-2.2-4.3-3.8-6.4-4.2V6c0-0.6-0.4-1-1-1s-1,0.4-1,1v3.7
	c-2.1,0.4-4.7,2-6.4,4.2L8.2,9.1C8,7.2,8.6,5.5,9.9,4.1C11.1,2.7,12.8,2,14.6,2h2.7c1.8,0,3.5,0.7,4.8,2.1C23.4,5.5,24,7.2,23.8,9.1
	z"/>
</svg>
