<?xml version="1.0" encoding="utf-8"?>
<!-- Generator: Adobe Illustrator 18.1.1, SVG Export Plug-In . SVG Version: 6.00 Build 0)  -->
<!DOCTYPE svg PUBLIC "-//W3C//DTD SVG 1.1//EN" "http://www.w3.org/Graphics/SVG/1.1/DTD/svg11.dtd">
<svg version="1.1" id="Layer_1" xmlns="http://www.w3.org/2000/svg" xmlns:xlink="http://www.w3.org/1999/xlink" x="0px" y="0px"
	 width="32px" height="32px" viewBox="0 0 32 32" enable-background="new 0 0 32 32" xml:space="preserve">
<path d="M19,2c-1,0-2,0.1-2.9,0.3c-0.1,0-0.1,0-0.1,0C10.2,3.8,6,8.9,6,15v3.6c-2,0.7-6,2.5-6,4.8c0,3.5,9.8,6.5,14.6,6.5
	c5.5,0,14.3-7,15.3-7.9c1.1-0.5,1.6-0.9,1.7-0.9c0.3-0.2,0.4-0.5,0.4-0.8V15C32,7.8,26.2,2,19,2z M8,15c0-5.1,3.5-9.4,8.2-10.6
	C21.4,5.7,25,10,25,15v6.5c-1.6,0.3-3.6,0.5-6,0.5c-6.4,0-9.9-1.6-11-2.2V15z M14.6,27.9C9.2,27.9,2,24.6,2,23.5
	c0-0.6,1.9-1.8,4.1-2.7c0.1,0.2,0.2,0.3,0.3,0.4C6.6,21.2,10.3,24,19,24c2.1,0,3.9-0.2,5.5-0.4C21.3,25.7,17.3,27.9,14.6,27.9z
	 M30,19.8c-0.5,0.3-1.5,0.8-3,1.2v-6c0-4.5-2.4-8.5-6.2-10.8C26,5,30,9.6,30,15V19.8z"/>
</svg>
