<?xml version="1.0" encoding="utf-8"?>
<!-- Generator: Adobe Illustrator 18.1.1, SVG Export Plug-In . SVG Version: 6.00 Build 0)  -->
<!DOCTYPE svg PUBLIC "-//W3C//DTD SVG 1.1//EN" "http://www.w3.org/Graphics/SVG/1.1/DTD/svg11.dtd">
<svg version="1.1" id="Layer_1" xmlns="http://www.w3.org/2000/svg" xmlns:xlink="http://www.w3.org/1999/xlink" x="0px" y="0px"
	 width="32px" height="32px" viewBox="0 0 32 32" enable-background="new 0 0 32 32" xml:space="preserve">
<path d="M31,22h-2v-5c0-5.8-3.8-10.7-9-12.4V4c0-2.2-1.8-4-4-4s-4,1.8-4,4v0.6C6.8,6.3,3,11.2,3,17v5H1c-0.6,0-1,0.4-1,1v8
	c0,0.6,0.4,1,1,1h30c0.6,0,1-0.4,1-1v-8C32,22.4,31.6,22,31,22z M14,4c0-1.1,0.9-2,2-2s2,0.9,2,2v0.2C17.3,4.1,16.7,4,16,4
	s-1.3,0.1-2,0.2V4z M5,17C5,10.9,9.9,6,16,6s11,4.9,11,11v5H5V17z M15,24v6H9v-6H15z M17,24h6v6h-6V24z M2,24h5v6H2V24z M30,30h-5
	v-6h5V30z"/>
</svg>
