<?xml version="1.0" encoding="utf-8"?>
<!-- Generator: Adobe Illustrator 18.1.1, SVG Export Plug-In . SVG Version: 6.00 Build 0)  -->
<!DOCTYPE svg PUBLIC "-//W3C//DTD SVG 1.1//EN" "http://www.w3.org/Graphics/SVG/1.1/DTD/svg11.dtd">
<svg version="1.1" id="Layer_1" xmlns="http://www.w3.org/2000/svg" xmlns:xlink="http://www.w3.org/1999/xlink" x="0px" y="0px"
	 width="32px" height="32px" viewBox="0 0 32 32" enable-background="new 0 0 32 32" xml:space="preserve">
<path d="M1,27h28c0.3,0,0.7-0.2,0.9-0.5s0.2-0.7,0-1L28,21.8C27.9,15.3,22.5,10,16,10H2V9c0-1.1,0.9-2,2-2h9c0.6,0,1-0.4,1-1
	s-0.4-1-1-1H4C1.8,5,0,6.8,0,9v2v11v4C0,26.6,0.4,27,1,27z M2,25v-2h24.4l1,2H2z M26,21H2v-9h14C21.2,12,25.4,16,26,21z"/>
</svg>
