<?xml version="1.0" encoding="utf-8"?>
<!-- Generator: Adobe Illustrator 18.1.1, SVG Export Plug-In . SVG Version: 6.00 Build 0)  -->
<!DOCTYPE svg PUBLIC "-//W3C//DTD SVG 1.1//EN" "http://www.w3.org/Graphics/SVG/1.1/DTD/svg11.dtd">
<svg version="1.1" id="Layer_1" xmlns="http://www.w3.org/2000/svg" xmlns:xlink="http://www.w3.org/1999/xlink" x="0px" y="0px"
	 width="32px" height="32px" viewBox="0 0 32 32" enable-background="new 0 0 32 32" xml:space="preserve">
<path d="M7,32h21c0.6,0,1-0.4,1-1V1c0-0.6-0.4-1-1-1H8C7.4,0,7,0.4,7,1v11.6l-3.8,4.7C3,17.6,3,17.9,3,18.2l3,13
	C6.1,31.7,6.5,32,7,32z M27,5h-5V2h5V5z M16,5V2h4v3H16z M14,2v3H9V2H14z M8.8,13.6C8.9,13.4,9,13.2,9,13V7h18v23H7.8L5.1,18.2
	L8.8,13.6z"/>
<path d="M12.5,20.9l5,3C17.6,24,17.8,24,18,24s0.4,0,0.5-0.1l5-3c0.3-0.2,0.5-0.5,0.5-0.9v-8c0-0.6-0.4-1-1-1H13c-0.6,0-1,0.4-1,1v8
	C12,20.4,12.2,20.7,12.5,20.9z M18,21.8l-4-2.4V16h8v3.4L18,21.8z M22,13v1h-8v-1H22z"/>
</svg>
