<?xml version="1.0" encoding="utf-8"?>
<!-- Generator: Adobe Illustrator 18.1.1, SVG Export Plug-In . SVG Version: 6.00 Build 0)  -->
<!DOCTYPE svg PUBLIC "-//W3C//DTD SVG 1.1//EN" "http://www.w3.org/Graphics/SVG/1.1/DTD/svg11.dtd">
<svg version="1.1" id="Layer_1" xmlns="http://www.w3.org/2000/svg" xmlns:xlink="http://www.w3.org/1999/xlink" x="0px" y="0px"
	 width="32px" height="32px" viewBox="0 0 32 32" enable-background="new 0 0 32 32" xml:space="preserve">
<path d="M17.7,29.7l9-9c0.2-0.2,0.3-0.4,0.3-0.7V1c0-0.6-0.4-1-1-1H15c-0.6,0-1,0.4-1,1v13.6l-5.7,5.7c-2.6,2.6-2.6,6.8,0,9.4
	c1.3,1.3,2.9,1.9,4.7,1.9S16.5,31,17.7,29.7z M25,2v3h-9V2H25z M15.7,15.7c0.2-0.2,0.3-0.4,0.3-0.7V7h9v12.6l-8,8L10.4,21L15.7,15.7
	z M9.1,22.5l6.4,6.4c-0.7,0.5-1.6,0.7-2.5,0.7c-1.2,0-2.4-0.5-3.3-1.4C8.1,26.7,7.9,24.3,9.1,22.5z"/>
</svg>
