<?xml version="1.0" encoding="utf-8"?>
<!-- Generator: Adobe Illustrator 18.1.1, SVG Export Plug-In . SVG Version: 6.00 Build 0)  -->
<!DOCTYPE svg PUBLIC "-//W3C//DTD SVG 1.1//EN" "http://www.w3.org/Graphics/SVG/1.1/DTD/svg11.dtd">
<svg version="1.1" id="Layer_1" xmlns="http://www.w3.org/2000/svg" xmlns:xlink="http://www.w3.org/1999/xlink" x="0px" y="0px"
	 width="32px" height="32px" viewBox="0 0 32 32" enable-background="new 0 0 32 32" xml:space="preserve">
<path d="M1,25h4.6l-4.3,4.3c-0.4,0.4-0.4,1,0,1.4C1.5,30.9,1.7,31,2,31s0.5-0.1,0.7-0.3L8.4,25H29c0.3,0,0.7-0.2,0.9-0.5
	s0.2-0.7,0-1L28,19.8c-0.1-3.9-2-7.3-4.9-9.4l7.6-7.6c0.4-0.4,0.4-1,0-1.4s-1-0.4-1.4,0l-8,8C19.7,8.5,17.9,8,16,8H2V7
	c0-1.1,0.9-2,2-2h9c0.6,0,1-0.4,1-1s-0.4-1-1-1H4C1.8,3,0,4.8,0,7v2v11v4C0,24.6,0.4,25,1,25z M2,23v-2h7.6l-2,2H2z M10.4,23l2-2h14
	l1,2H10.4z M26,19H14.4l7.2-7.2C24,13.4,25.7,16,26,19z M19.8,10.8L11.6,19H2v-9h14C17.4,10,18.6,10.3,19.8,10.8z"/>
</svg>
