<?xml version="1.0" encoding="utf-8"?>
<!-- Generator: Adobe Illustrator 18.1.1, SVG Export Plug-In . SVG Version: 6.00 Build 0)  -->
<!DOCTYPE svg PUBLIC "-//W3C//DTD SVG 1.1//EN" "http://www.w3.org/Graphics/SVG/1.1/DTD/svg11.dtd">
<svg version="1.1" id="Layer_1" xmlns="http://www.w3.org/2000/svg" xmlns:xlink="http://www.w3.org/1999/xlink" x="0px" y="0px"
	 width="32px" height="32px" viewBox="0 0 32 32" enable-background="new 0 0 32 32" xml:space="preserve">
<path d="M31,4h-5.6l-1.5-3.4c0-0.1-0.1-0.1-0.1-0.2c0,0,0,0,0-0.1c-0.1-0.1-0.2-0.2-0.3-0.2c0,0,0,0,0,0c0,0,0,0-0.1,0
	c-0.1,0-0.2-0.1-0.3-0.1c0,0-0.1,0-0.1,0c0,0,0,0-0.1,0H9c0,0,0,0,0,0c0,0-0.1,0-0.1,0c-0.1,0-0.2,0-0.3,0.1c0,0,0,0-0.1,0
	c0,0,0,0,0,0C8.4,0.2,8.3,0.3,8.2,0.4c0,0,0,0,0,0C8.2,0.4,8.1,0.5,8.1,0.6L6.6,4H1C0.4,4,0,4.4,0,5v26c0,0.6,0.4,1,1,1h30
	c0.6,0,1-0.4,1-1V5C32,4.4,31.6,4,31,4z M8.1,5.4C8.1,5.4,8.1,5.4,8.1,5.4l0.9-2.1l5.6,10.8l-1.2,2.2L6.2,9.7L8.1,5.4z M15.8,12
	L10.6,2h10.7L15.8,12z M22.9,3.2l1,2.1c0,0,0,0,0,0l1.9,4.3l-10.7,7.8L22.9,3.2z M2,6h3.7L4.1,9.6C3.9,10,4,10.4,4.3,10.7l8.1,7.4
	l-1.3,2.4c0,0,0,0,0,0l0,0c-0.1,0.1-0.1,0.2-0.1,0.3c0,0,0,0.1,0,0.1c0,0,0,0.1,0,0.1v9H2V6z M30,30H13v-8.5l14.6-10.7
	c0.4-0.3,0.5-0.8,0.3-1.2L26.3,6H30V30z"/>
<path d="M16,24c-0.6,0-1,0.4-1,1v1c0,0.6,0.4,1,1,1s1-0.4,1-1v-1C17,24.4,16.6,24,16,24z"/>
</svg>
