<?xml version="1.0" encoding="utf-8"?>
<!-- Generator: Adobe Illustrator 18.1.1, SVG Export Plug-In . SVG Version: 6.00 Build 0)  -->
<!DOCTYPE svg PUBLIC "-//W3C//DTD SVG 1.1//EN" "http://www.w3.org/Graphics/SVG/1.1/DTD/svg11.dtd">
<svg version="1.1" id="Layer_1" xmlns="http://www.w3.org/2000/svg" xmlns:xlink="http://www.w3.org/1999/xlink" x="0px" y="0px"
	 width="32px" height="32px" viewBox="0 0 32 32" enable-background="new 0 0 32 32" xml:space="preserve">
<path d="M27,0h-6c-0.6,0-1,0.4-1,1c0,2.2-1.8,4-4,4s-4-1.8-4-4c0-0.6-0.4-1-1-1H5C2.2,0,0,2.2,0,5v12c0,0.6,0.4,1,1,1h5v13
	c0,0.6,0.4,1,1,1h18c0.6,0,1-0.4,1-1V18h5c0.6,0,1-0.4,1-1V5C32,2.2,29.8,0,27,0z M30,16h-4v-3c0-0.6-0.4-1-1-1s-1,0.4-1,1v4v13H8
	V17v-4c0-0.6-0.4-1-1-1s-1,0.4-1,1v3H2V5c0-1.7,1.3-3,3-3h5.1C10.6,4.8,13,7,16,7s5.4-2.2,5.9-5H27c1.7,0,3,1.3,3,3V16z"/>
</svg>
