<?xml version="1.0" encoding="utf-8"?>
<!-- Generator: Adobe Illustrator 18.1.1, SVG Export Plug-In . SVG Version: 6.00 Build 0)  -->
<!DOCTYPE svg PUBLIC "-//W3C//DTD SVG 1.1//EN" "http://www.w3.org/Graphics/SVG/1.1/DTD/svg11.dtd">
<svg version="1.1" id="Layer_1" xmlns="http://www.w3.org/2000/svg" xmlns:xlink="http://www.w3.org/1999/xlink" x="0px" y="0px"
	 width="32px" height="32px" viewBox="0 0 32 32" enable-background="new 0 0 32 32" xml:space="preserve">
<path d="M6.8,32h18.3c1.5,0,2.9-0.7,3.9-1.8c1-1.2,1.3-2.7,1.1-4.1L27,9.8C26.9,9.3,26.5,9,26,9h-4V6c0-3.3-2.7-6-6-6s-6,2.7-6,6v3
	H6C5.5,9,5.1,9.3,5,9.8L1.9,26.1C1.6,27.5,2,29,3,30.2C3.9,31.3,5.3,32,6.8,32z M12,6c0-2.2,1.8-4,4-4s4,1.8,4,4v3h-8V6z M3.9,26.4
	L6.8,11h18.3l2.9,15.4c0.2,0.9-0.1,1.8-0.6,2.5c-0.6,0.7-1.4,1.1-2.3,1.1H6.8c-0.9,0-1.7-0.4-2.3-1.1C4,28.2,3.7,27.3,3.9,26.4z"/>
</svg>
