<?xml version="1.0" encoding="utf-8"?>
<!-- Generator: Adobe Illustrator 18.1.1, SVG Export Plug-In . SVG Version: 6.00 Build 0)  -->
<!DOCTYPE svg PUBLIC "-//W3C//DTD SVG 1.1//EN" "http://www.w3.org/Graphics/SVG/1.1/DTD/svg11.dtd">
<svg version="1.1" id="Layer_1" xmlns="http://www.w3.org/2000/svg" xmlns:xlink="http://www.w3.org/1999/xlink" x="0px" y="0px"
	 width="32px" height="32px" viewBox="0 0 32 32" enable-background="new 0 0 32 32" xml:space="preserve">
<path d="M31,4h-5.1l-1-3.3c0,0,0,0,0,0c0,0,0,0,0,0c0-0.1-0.1-0.2-0.2-0.3c0,0-0.1-0.1-0.1-0.1c-0.1-0.1-0.1-0.1-0.2-0.2
	c0,0,0,0,0,0c0,0,0,0-0.1,0c-0.1,0-0.2-0.1-0.2-0.1c0,0-0.1,0-0.1,0c0,0,0,0,0,0H8c0,0,0,0,0,0c0,0-0.1,0-0.1,0
	c-0.1,0-0.2,0-0.2,0.1c0,0,0,0-0.1,0c0,0,0,0,0,0c-0.1,0-0.1,0.1-0.2,0.2c0,0-0.1,0-0.1,0.1C7.1,0.5,7.1,0.6,7.1,0.7c0,0,0,0,0,0
	c0,0,0,0,0,0L6.1,4H1C0.4,4,0,4.4,0,5v26c0,0.6,0.4,1,1,1h30c0.6,0,1-0.4,1-1V5C32,4.4,31.6,4,31,4z M21.1,15.4l0.7,1.4L17,21.6
	v-5.3l6.7-12.6l2.1,7l-4.5,3.6C21,14.5,20.9,15,21.1,15.4z M10.6,14.2l-4.5-3.6l2.1-7L15,16.3v5.3l-4.8-4.8l0.7-1.4
	C11.1,15,11,14.5,10.6,14.2z M16,13.9L9.7,2h12.7L16,13.9z M2,6h3.5L4,10.7c-0.1,0.4,0,0.8,0.3,1.1l4.4,3.5l-0.6,1.3
	c-0.2,0.4-0.1,0.9,0.2,1.2l6.7,6.7V30H2V6z M30,30H17v-5.6l6.7-6.7c0.3-0.3,0.4-0.8,0.2-1.2l-0.6-1.3l4.4-3.5
	c0.3-0.3,0.5-0.7,0.3-1.1L26.5,6H30V30z"/>
<path d="M26,24h-4c-0.6,0-1,0.4-1,1s0.4,1,1,1h4c0.6,0,1-0.4,1-1S26.6,24,26,24z"/>
</svg>
