<?xml version="1.0" encoding="utf-8"?>
<!-- Generator: Adobe Illustrator 18.1.1, SVG Export Plug-In . SVG Version: 6.00 Build 0)  -->
<!DOCTYPE svg PUBLIC "-//W3C//DTD SVG 1.1//EN" "http://www.w3.org/Graphics/SVG/1.1/DTD/svg11.dtd">
<svg version="1.1" id="Layer_1" xmlns="http://www.w3.org/2000/svg" xmlns:xlink="http://www.w3.org/1999/xlink" x="0px" y="0px"
	 width="32px" height="32px" viewBox="0 0 32 32" enable-background="new 0 0 32 32" xml:space="preserve">
<path d="M31,4H1C0.4,4,0,4.4,0,5v14c0,0.6,0.4,1,1,1h4c2.8,0,5,2.2,5,5v2c0,0.6,0.4,1,1,1h10c0.6,0,1-0.4,1-1v-2c0-2.8,2.2-5,5-5h4
	c0.6,0,1-0.4,1-1V5C32,4.4,31.6,4,31,4z M30,6v2H2V6H30z M2,18v-8h7c-0.1,3.2-0.8,5.8-3.3,8c-0.2,0-0.4,0-0.7,0H2z M20,25v1h-8v-1
	c0-2.8-1.7-5.3-4.1-6.4c2.5-2.8,3-5.8,3.1-8.6h10c0.1,2.8,0.6,5.9,3.1,8.6C21.7,19.7,20,22.2,20,25z M27,18c-0.2,0-0.5,0-0.7,0
	c-2.5-2.3-3.2-4.8-3.3-8h7v8H27z"/>
</svg>
