<?xml version="1.0" encoding="utf-8"?>
<!-- Generator: Adobe Illustrator 18.1.1, SVG Export Plug-In . SVG Version: 6.00 Build 0)  -->
<!DOCTYPE svg PUBLIC "-//W3C//DTD SVG 1.1//EN" "http://www.w3.org/Graphics/SVG/1.1/DTD/svg11.dtd">
<svg version="1.1" id="Layer_1" xmlns="http://www.w3.org/2000/svg" xmlns:xlink="http://www.w3.org/1999/xlink" x="0px" y="0px"
	 width="32px" height="32px" viewBox="0 0 32 32" enable-background="new 0 0 32 32" xml:space="preserve">
<path d="M1.5,28.5C1.9,29.4,2.8,30,3.8,30c0.6,0,1.1-0.2,1.6-0.6l7.9-6.3l8.1,8.1c0.2,0.2,0.5,0.3,0.7,0.3s0.5-0.1,0.7-0.3
	c0.4-0.4,0.4-1,0-1.4l-8-8l5.2-4.2l1.3,1.3c1,1,2.3,1.6,3.8,1.6c1.4,0,2.8-0.6,3.8-1.6c2.1-2.1,2.1-5.4,0-7.5L28.4,11l0.2-0.1
	c1.3-1,2.1-2.6,2.2-4.2C30.8,5,30.2,3.4,29,2.2c-1.1-1.1-2.6-1.7-4.1-1.7c-1.8,0-3.4,0.8-4.5,2.2l-5.5,6.9l-2.7-2.7
	c-2.1-2.1-5.4-2.1-7.5,0c-2.1,2.1-2.1,5.4,0,7.5L8.2,18l-6.3,7.9C1.2,26.7,1.1,27.7,1.5,28.5z M27.5,12.9c1.3,1.3,1.3,3.4,0,4.7
	c-1.3,1.3-3.4,1.3-4.7,0l-1.2-1.2l5.2-4.2L27.5,12.9z M21.9,3.9c0.7-0.9,1.8-1.4,3-1.4c1,0,2,0.4,2.7,1.1c0.8,0.8,1.2,1.8,1.1,2.9
	c-0.1,1.1-0.6,2.1-1.4,2.8L20.2,15l-4-4L21.9,3.9z M6,13c-1.3-1.3-1.3-3.4,0-4.7C7.3,7,9.4,7,10.7,8.3l2.9,2.9l-4.2,5.2L6,13z
	 M3.4,27.1L15,12.6l3.6,3.6L4.1,27.9c-0.3,0.2-0.7,0.1-0.8-0.2C3.2,27.5,3.2,27.3,3.4,27.1z"/>
<path d="M23,9c0.3,0,0.5-0.1,0.7-0.3l1-1c0.4-0.4,0.4-1,0-1.4s-1-0.4-1.4,0l-1,1c-0.4,0.4-0.4,1,0,1.4C22.5,8.9,22.7,9,23,9z"/>
</svg>
