<?xml version="1.0" encoding="utf-8"?>
<!-- Generator: Adobe Illustrator 18.1.1, SVG Export Plug-In . SVG Version: 6.00 Build 0)  -->
<!DOCTYPE svg PUBLIC "-//W3C//DTD SVG 1.1//EN" "http://www.w3.org/Graphics/SVG/1.1/DTD/svg11.dtd">
<svg version="1.1" id="Layer_1" xmlns="http://www.w3.org/2000/svg" xmlns:xlink="http://www.w3.org/1999/xlink" x="0px" y="0px"
	 width="32px" height="32px" viewBox="0 0 32 32" enable-background="new 0 0 32 32" xml:space="preserve">
<path d="M31,3c-0.6,0-1,0.4-1,1v8.1c-0.9,0.6-2,0.9-3.1,0.9c-1.8,0-3.5-0.9-4.7-2.4c-0.4-0.5-1.2-0.5-1.6,0C19.5,12.1,17.8,13,16,13
	c-1.8,0-3.5-0.9-4.7-2.4c-0.4-0.5-1.2-0.5-1.6,0C8.6,12.1,6.9,13,5.1,13C4,13,2.9,12.7,2,12.1V4c0-0.6-0.4-1-1-1S0,3.4,0,4v24
	c0,0.6,0.4,1,1,1h30c0.6,0,1-0.4,1-1V4C32,3.4,31.6,3,31,3z M2,27V14.3C3,14.8,4,15,5.1,15c2.1,0,4-0.8,5.5-2.2
	C12,14.2,13.9,15,16,15c2.1,0,4-0.8,5.5-2.2c1.5,1.4,3.4,2.2,5.5,2.2c1.1,0,2.1-0.2,3.1-0.7V27H2z"/>
</svg>
