<?xml version="1.0" encoding="utf-8"?>
<!-- Generator: Adobe Illustrator 18.1.1, SVG Export Plug-In . SVG Version: 6.00 Build 0)  -->
<!DOCTYPE svg PUBLIC "-//W3C//DTD SVG 1.1//EN" "http://www.w3.org/Graphics/SVG/1.1/DTD/svg11.dtd">
<svg version="1.1" id="Layer_1" xmlns="http://www.w3.org/2000/svg" xmlns:xlink="http://www.w3.org/1999/xlink" x="0px" y="0px"
	 width="32px" height="32px" viewBox="0 0 32 32" enable-background="new 0 0 32 32" xml:space="preserve">
<path d="M15,0c-0.6,0-1,0.4-1,1v2v8H6c-2.2,0-4,1.8-4,4v14v2c0,0.6,0.4,1,1,1s1-0.4,1-1v-1h3v1c0,0.6,0.4,1,1,1s1-0.4,1-1v-1h2v1
	c0,0.6,0.4,1,1,1s1-0.4,1-1v-1h3v1c0,0.6,0.4,1,1,1s1-0.4,1-1v-2v-9h8c2.2,0,4-1.8,4-4V3V1c0-0.6-0.4-1-1-1s-1,0.4-1,1v1h-3V1
	c0-0.6-0.4-1-1-1s-1,0.4-1,1v1h-2V1c0-0.6-0.4-1-1-1s-1,0.4-1,1v1h-3V1C16,0.4,15.6,0,15,0z M4,15c0-1.1,0.9-2,2-2h10.5
	c-0.3,0.6-0.5,1.3-0.5,2v13H4V15z M20,13c1.1,0,2,0.9,2,2v1c0,0.7,0.2,1.4,0.6,2H18v-3C18,13.9,18.9,13,20,13z M28,16
	c0,1.1-0.9,2-2,2s-2-0.9-2-2v-1c0-2.2-1.8-4-4-4h-4V4h12V16z"/>
</svg>
