<?xml version="1.0" encoding="utf-8"?>
<!-- Generator: Adobe Illustrator 18.1.1, SVG Export Plug-In . SVG Version: 6.00 Build 0)  -->
<!DOCTYPE svg PUBLIC "-//W3C//DTD SVG 1.1//EN" "http://www.w3.org/Graphics/SVG/1.1/DTD/svg11.dtd">
<svg version="1.1" id="Layer_1" xmlns="http://www.w3.org/2000/svg" xmlns:xlink="http://www.w3.org/1999/xlink" x="0px" y="0px"
	 width="32px" height="32px" viewBox="0 0 32 32" enable-background="new 0 0 32 32" xml:space="preserve">
<path d="M26.6,1.2C26.4,1.1,26.2,1,26,1h-5c-0.6,0-1,0.4-1,1c0,2.2-1.8,4-4,4s-4-1.8-4-4c0-0.6-0.4-1-1-1H6C5.8,1,5.6,1.1,5.4,1.2
	l-5,4C0.1,5.4,0,5.7,0,6v7c0,0.6,0.4,1,1,1h4v10c0,0.6,0.4,1,1,1c2.8,0,5,2.2,5,5c0,0.6,0.4,1,1,1h8c0.6,0,1-0.4,1-1
	c0-2.8,2.2-5,5-5c0.6,0,1-0.4,1-1V14h4c0.6,0,1-0.4,1-1V6c0-0.3-0.1-0.6-0.4-0.8L26.6,1.2z M30,12h-4c-0.6,0-1,0.4-1,1v10.1
	c-3.1,0.4-5.5,2.9-5.9,5.9h-6.1c-0.4-3.1-2.9-5.5-5.9-5.9V13c0-0.6-0.4-1-1-1H2V6.5L6.4,3h3.7C10.6,5.8,13,8,16,8s5.4-2.2,5.9-5h3.7
	L30,6.5V12z"/>
<path d="M18.3,11c-0.9,0-1.7,0.2-2.3,0.7c-0.6-0.4-1.4-0.7-2.3-0.7c-2.1,0-3.7,1.7-3.7,3.9c0,3.2,4.8,7.4,5.3,7.9
	c0.2,0.2,0.4,0.2,0.7,0.2s0.5-0.1,0.7-0.2c0.5-0.5,5.3-4.7,5.3-7.9C22,12.7,20.4,11,18.3,11z M16,20.7c-1.8-1.7-4-4.2-4-5.8
	c0-1.1,0.7-1.9,1.7-1.9c0.7,0,1.1,0.2,1.6,0.7c0.2,0.2,0.5,0.4,0.8,0.3c0.3,0,0.6-0.1,0.8-0.4c0.4-0.5,0.8-0.6,1.5-0.6
	c1,0,1.7,0.8,1.7,1.9C20,16.4,17.8,19,16,20.7z"/>
</svg>
