<?xml version="1.0" encoding="utf-8"?>
<!-- Generator: Adobe Illustrator 18.1.1, SVG Export Plug-In . SVG Version: 6.00 Build 0)  -->
<!DOCTYPE svg PUBLIC "-//W3C//DTD SVG 1.1//EN" "http://www.w3.org/Graphics/SVG/1.1/DTD/svg11.dtd">
<svg version="1.1" id="Layer_1" xmlns="http://www.w3.org/2000/svg" xmlns:xlink="http://www.w3.org/1999/xlink" x="0px" y="0px"
	 width="32px" height="32px" viewBox="0 0 32 32" enable-background="new 0 0 32 32" xml:space="preserve">
<path d="M27,19h-3c-1.5,0-2.8-0.5-3.8-1.5L4.4,3C4,2.7,3.5,2.6,3.1,3C3,3.1,0,5.5,0,10.5c0,2.3,0.9,3.8,1.6,5.2
	C2.4,17.1,3,18.2,3,20v8c0,0.6,0.4,1,1,1h3c0.6,0,1-0.4,1-1v-9.7c1.4,0.7,3.5,2.5,5.3,4.2C16.9,25.7,20.6,29,24,29h7
	c0.6,0,1-0.4,1-1v-3.8C32,21.3,29.8,19,27,19z M30,27h-6c-2.6,0-6.2-3.2-9.3-6c-3-2.7-5.6-5-7.7-5c-0.6,0-1,0.4-1,1v10H5v-7
	c0-2.3-0.9-3.8-1.6-5.2C2.6,13.5,2,12.3,2,10.5C2,7.8,3.1,6,3.8,5.1l15,13.9c1.4,1.3,3.2,2,5.2,2h3c1.7,0,3,1.4,3,3.2V27z"/>
</svg>
