<?xml version="1.0" encoding="utf-8"?>
<!-- Generator: Adobe Illustrator 18.1.1, SVG Export Plug-In . SVG Version: 6.00 Build 0)  -->
<!DOCTYPE svg PUBLIC "-//W3C//DTD SVG 1.1//EN" "http://www.w3.org/Graphics/SVG/1.1/DTD/svg11.dtd">
<svg version="1.1" id="Layer_1" xmlns="http://www.w3.org/2000/svg" xmlns:xlink="http://www.w3.org/1999/xlink" x="0px" y="0px"
	 width="32px" height="32px" viewBox="0 0 32 32" enable-background="new 0 0 32 32" xml:space="preserve">
<path d="M16,32c6.6,0,12-5.4,12-12c0-5.8-4.1-10.6-9.5-11.7l4.2-3.5C22.9,4.6,23,4.3,23,4s-0.1-0.6-0.3-0.8l-3-3
	C19.5,0.1,19.3,0,19,0h-6c-0.3,0-0.5,0.1-0.7,0.3l-3,3C9.1,3.5,9,3.8,9,4s0.1,0.5,0.4,0.7l4.2,3.5C8.1,9.4,4,14.2,4,20
	C4,26.6,9.4,32,16,32z M13.4,2h5.2l1.9,1.9L16,7.7l-4.5-3.8L13.4,2z M16,10c5.5,0,10,4.5,10,10s-4.5,10-10,10S6,25.5,6,20
	S10.5,10,16,10z"/>
</svg>
