<?xml version="1.0" encoding="utf-8"?>
<!-- Generator: Adobe Illustrator 18.1.1, SVG Export Plug-In . SVG Version: 6.00 Build 0)  -->
<!DOCTYPE svg PUBLIC "-//W3C//DTD SVG 1.1//EN" "http://www.w3.org/Graphics/SVG/1.1/DTD/svg11.dtd">
<svg version="1.1" id="Layer_1" xmlns="http://www.w3.org/2000/svg" xmlns:xlink="http://www.w3.org/1999/xlink" x="0px" y="0px"
	 width="32px" height="32px" viewBox="0 0 32 32" enable-background="new 0 0 32 32" xml:space="preserve">
<path d="M16,0c-2.8,0-5,2.2-5,5v0.1C6.5,5.6,3,9.4,3,14v17c0,0.6,0.4,1,1,1h24c0.6,0,1-0.4,1-1V14c0-4.6-3.5-8.4-8-8.9V5
	C21,2.2,18.8,0,16,0z M16,2c1.7,0,3,1.3,3,3h-6C13,3.3,14.3,2,16,2z M27,30H5v-4c0-4.4,3.6-8,8-8h6c4.4,0,8,3.6,8,8V30z M27,14v6
	c-1.8-2.4-4.7-4-8-4h-6c-3.3,0-6.2,1.6-8,4v-6c0-3.5,2.6-6.4,6-6.9V9c0,0.6,0.4,1,1,1s1-0.4,1-1V7h6v2c0,0.6,0.4,1,1,1s1-0.4,1-1
	V7.1C24.4,7.6,27,10.5,27,14z"/>
<path d="M19,21h-6c-0.6,0-1,0.4-1,1v4c0,0.6,0.4,1,1,1h6c0.6,0,1-0.4,1-1v-4C20,21.4,19.6,21,19,21z M18,25h-4v-2h4V25z"/>
</svg>
