<?xml version="1.0" encoding="utf-8"?>
<!-- Generator: Adobe Illustrator 18.1.1, SVG Export Plug-In . SVG Version: 6.00 Build 0)  -->
<!DOCTYPE svg PUBLIC "-//W3C//DTD SVG 1.1//EN" "http://www.w3.org/Graphics/SVG/1.1/DTD/svg11.dtd">
<svg version="1.1" id="Layer_1" xmlns="http://www.w3.org/2000/svg" xmlns:xlink="http://www.w3.org/1999/xlink" x="0px" y="0px"
	 width="32px" height="32px" viewBox="0 0 32 32" enable-background="new 0 0 32 32" xml:space="preserve">
<path d="M16,0C7.2,0,0,7.2,0,16s7.2,16,16,16s16-7.2,16-16S24.8,0,16,0z M16,30C8.3,30,2,23.7,2,16S8.3,2,16,2s14,6.3,14,14
	S23.7,30,16,30z"/>
<path d="M11,8c-1.7,0-3,1.3-3,3s1.3,3,3,3s3-1.3,3-3S12.7,8,11,8z M11,12c-0.6,0-1-0.4-1-1s0.4-1,1-1s1,0.4,1,1S11.6,12,11,12z"/>
<path d="M21,8c-1.7,0-3,1.3-3,3s1.3,3,3,3s3-1.3,3-3S22.7,8,21,8z M21,12c-0.6,0-1-0.4-1-1s0.4-1,1-1s1,0.4,1,1S21.6,12,21,12z"/>
<path d="M11,18c-1.7,0-3,1.3-3,3s1.3,3,3,3s3-1.3,3-3S12.7,18,11,18z M11,22c-0.6,0-1-0.4-1-1s0.4-1,1-1s1,0.4,1,1S11.6,22,11,22z"
	/>
<path d="M21,18c-1.7,0-3,1.3-3,3s1.3,3,3,3s3-1.3,3-3S22.7,18,21,18z M21,22c-0.6,0-1-0.4-1-1s0.4-1,1-1s1,0.4,1,1S21.6,22,21,22z"
	/>
</svg>
