<?xml version="1.0" encoding="utf-8"?>
<!-- Generator: Adobe Illustrator 19.2.1, SVG Export Plug-In . SVG Version: 6.00 Build 0)  -->
<!DOCTYPE svg PUBLIC "-//W3C//DTD SVG 1.1//EN" "http://www.w3.org/Graphics/SVG/1.1/DTD/svg11.dtd">
<svg version="1.1" id="Layer_1" xmlns="http://www.w3.org/2000/svg" xmlns:xlink="http://www.w3.org/1999/xlink" x="0px" y="0px"
	 width="64px" height="64px" viewBox="0 0 64 64" enable-background="new 0 0 64 64" xml:space="preserve">
<path d="M62,17h-1v-5c0-0.552-0.448-1-1-1s-1,0.448-1,1v5h-6v-5c0-0.552-0.448-1-1-1s-1,0.448-1,1v5h-1c-0.552,0-1,0.448-1,1v4
	c0,3.519,2.613,6.432,6,6.92V43.5c0,3.033-2.467,5.5-5.5,5.5S44,46.533,44,43.5V42V10c0-2.757-2.243-5-5-5H10c-2.757,0-5,2.243-5,5
	v47H2c-0.552,0-1,0.448-1,1s0.448,1,1,1h45c0.552,0,1-0.448,1-1s-0.448-1-1-1h-3v-8.418C45.371,50.065,47.326,51,49.5,51
	c4.136,0,7.5-3.364,7.5-7.5V28.92c3.387-0.488,6-3.401,6-6.92v-4C63,17.448,62.552,17,62,17z M42,57H7V10c0-1.654,1.346-3,3-3h29
	c1.654,0,3,1.346,3,3v32v1.5V57z M61,22c0,2.757-2.243,5-5,5s-5-2.243-5-5v-3h10V22z"/>
<path d="M36,12H13c-0.552,0-1,0.448-1,1v17c0,0.552,0.448,1,1,1h23c0.552,0,1-0.448,1-1V13C37,12.448,36.552,12,36,12z M35,29H14V14
	h21V29z"/>
<path d="M21,35h-8c-0.552,0-1,0.448-1,1s0.448,1,1,1h8c0.552,0,1-0.448,1-1S21.552,35,21,35z"/>
</svg>
