<?xml version="1.0" encoding="utf-8"?>
<!-- Generator: Adobe Illustrator 19.2.1, SVG Export Plug-In . SVG Version: 6.00 Build 0)  -->
<!DOCTYPE svg PUBLIC "-//W3C//DTD SVG 1.1//EN" "http://www.w3.org/Graphics/SVG/1.1/DTD/svg11.dtd">
<svg version="1.1" id="Layer_1" xmlns="http://www.w3.org/2000/svg" xmlns:xlink="http://www.w3.org/1999/xlink" x="0px" y="0px"
	 width="64px" height="64px" viewBox="0 0 64 64" enable-background="new 0 0 64 64" xml:space="preserve">
<path d="M6,63h52c0.553,0,1-0.448,1-1V24c0-0.311-0.145-0.604-0.391-0.792l-26-20c-0.359-0.276-0.859-0.276-1.219,0l-26,20
	C5.145,23.396,5,23.689,5,24v38C5,62.552,5.447,63,6,63z M7,24.492l25-19.23l25,19.23V61H7V24.492z"/>
<path d="M45.836,25.014c-0.631,0.105-15.506,2.642-21.543,8.679c-6.223,6.223-3.863,13.269-2.882,15.482l-4.118,4.118
	c-0.391,0.391-0.391,1.023,0,1.414C17.488,54.902,17.744,55,18,55s0.512-0.098,0.707-0.293l4.127-4.127
	c1.063,0.451,3.251,1.214,5.923,1.214c2.901,0,6.366-0.902,9.55-4.087c6.604-6.603,8.603-20.965,8.685-21.574
	c0.042-0.314-0.067-0.63-0.295-0.852C46.468,25.061,46.149,24.961,45.836,25.014z M36.893,46.293
	c-4.773,4.773-10.139,3.628-12.528,2.756l6.342-6.342c0.391-0.391,0.391-1.023,0-1.414s-1.023-0.391-1.414,0l-6.362,6.362
	c-0.899-2.347-2.104-7.668,2.776-12.548c4.569-4.569,15.262-7.082,19.076-7.857C44.116,30.981,41.882,41.304,36.893,46.293z"/>
</svg>
