<?xml version="1.0" encoding="utf-8"?>
<!-- Generator: Adobe Illustrator 19.2.1, SVG Export Plug-In . SVG Version: 6.00 Build 0)  -->
<!DOCTYPE svg PUBLIC "-//W3C//DTD SVG 1.1//EN" "http://www.w3.org/Graphics/SVG/1.1/DTD/svg11.dtd">
<svg version="1.1" id="Layer_1" xmlns="http://www.w3.org/2000/svg" xmlns:xlink="http://www.w3.org/1999/xlink" x="0px" y="0px"
	 width="64px" height="64px" viewBox="0 0 64 64" enable-background="new 0 0 64 64" xml:space="preserve">
<path d="M26.082,32.781c-0.413,0.115-0.708,0.48-0.731,0.908c-0.109,1.948-1.04,19.121-0.043,22.365
	c0.549,1.788,1.761,3.254,3.413,4.13c1.024,0.543,2.142,0.818,3.27,0.818c0.69,0,1.385-0.104,2.064-0.312
	c1.788-0.549,3.254-1.762,4.13-3.414c0.875-1.652,1.055-3.546,0.506-5.333c-0.989-3.219-10.439-17.179-11.514-18.76
	C26.935,32.828,26.495,32.667,26.082,32.781z M36.778,52.53c0.393,1.277,0.264,2.63-0.361,3.81s-1.673,2.046-2.95,2.438
	c-1.277,0.393-2.629,0.265-3.81-0.362c-1.18-0.625-2.045-1.673-2.438-2.949c-0.591-1.924-0.372-11.327-0.026-18.675
	C30.632,41.948,36.136,50.442,36.778,52.53z"/>
<path d="M5.454,21.938l10.071,6.546c0.235,0.153,0.525,0.198,0.797,0.129c0.272-0.071,0.502-0.253,0.633-0.502
	C19.915,22.491,25.68,19,32,19s12.085,3.491,15.045,9.111c0.131,0.249,0.361,0.431,0.633,0.502c0.083,0.021,0.167,0.032,0.252,0.032
	c0.192,0,0.381-0.055,0.545-0.162l10.071-6.546c0.445-0.29,0.587-0.876,0.322-1.337C53.331,10.978,43.036,5,32,5
	c-1.133,0-2.255,0.078-3.367,0.202c-0.029,0-0.055-0.012-0.085-0.009c-0.03,0.003-0.054,0.02-0.083,0.026
	c-9.662,1.125-18.393,6.796-23.333,15.382C4.867,21.061,5.009,21.648,5.454,21.938z M56.649,20.785l-8.371,5.441
	C44.841,20.509,38.7,17,32,17c-0.402,0-0.801,0.014-1.198,0.039l-1.047-9.941C30.499,7.039,31.247,7,32,7
	C42.008,7,51.367,12.259,56.649,20.785z M27.767,7.327l1.048,9.95c-5.422,0.92-10.21,4.153-13.093,8.949l-8.371-5.441
	C11.88,13.476,19.407,8.58,27.767,7.327z"/>
</svg>
