<?xml version="1.0" encoding="utf-8"?>
<!-- Generator: Adobe Illustrator 19.2.1, SVG Export Plug-In . SVG Version: 6.00 Build 0)  -->
<!DOCTYPE svg PUBLIC "-//W3C//DTD SVG 1.1//EN" "http://www.w3.org/Graphics/SVG/1.1/DTD/svg11.dtd">
<svg version="1.1" id="Layer_1" xmlns="http://www.w3.org/2000/svg" xmlns:xlink="http://www.w3.org/1999/xlink" x="0px" y="0px"
	 width="64px" height="64px" viewBox="0 0 64 64" enable-background="new 0 0 64 64" xml:space="preserve">
<path d="M60,9H41V2c0-0.553-0.448-1-1-1H24c-0.552,0-1,0.447-1,1v7H4c-0.552,0-1,0.447-1,1v6c0,0.553,0.448,1,1,1h5.083
	l3.921,45.087C13.049,62.604,13.481,63,14,63h36c0.519,0,0.951-0.396,0.996-0.913L54.917,17H60c0.552,0,1-0.447,1-1v-6
	C61,9.447,60.552,9,60,9z M25,3h14v6H25V3z M49.083,61H14.917l-3.826-44h41.819L49.083,61z M59,15H5v-4h54V15z"/>
<path d="M21.5,38.8c0.552,0,1-0.447,1-1c0-5.149,4.351-9.5,9.5-9.5c3.049,0,5.798,1.429,7.545,3.798l-4.42-0.196
	c-0.537-0.031-1.019,0.403-1.043,0.955c-0.024,0.552,0.403,1.019,0.955,1.043l6.3,0.279c0.015,0.001,0.03,0.001,0.045,0.001
	c0.008,0,0.015-0.004,0.023-0.004c0.054-0.001,0.106-0.021,0.159-0.031c0.075-0.014,0.151-0.025,0.219-0.056
	c0.01-0.004,0.02-0.003,0.03-0.008c0.038-0.018,0.063-0.051,0.098-0.074c0.065-0.042,0.128-0.082,0.182-0.137
	c0.041-0.042,0.07-0.09,0.102-0.139c0.038-0.055,0.075-0.109,0.101-0.172c0.025-0.059,0.035-0.12,0.048-0.183
	c0.009-0.045,0.031-0.084,0.034-0.13l0.42-6.3c0.037-0.551-0.38-1.027-0.931-1.064c-0.542-0.025-1.027,0.381-1.064,0.932
	l-0.223,3.351C38.455,27.732,35.371,26.3,32,26.3c-6.341,0-11.5,5.159-11.5,11.5C20.5,38.353,20.948,38.8,21.5,38.8z"/>
<path d="M41.5,38.08c0,5.149-4.351,9.5-9.5,9.5c-3.085,0-5.866-1.461-7.608-3.88h4.528c0.552,0,1-0.447,1-1s-0.448-1-1-1h-6.3
	c-0.008,0-0.015,0.004-0.023,0.005c-0.062,0.001-0.121,0.023-0.182,0.036c-0.069,0.015-0.139,0.023-0.202,0.051
	c-0.008,0.004-0.017,0.002-0.025,0.006c-0.043,0.02-0.07,0.056-0.108,0.082c-0.064,0.042-0.127,0.081-0.18,0.136
	c-0.043,0.045-0.071,0.098-0.104,0.15c-0.036,0.055-0.074,0.106-0.099,0.168c-0.026,0.065-0.033,0.132-0.045,0.201
	c-0.008,0.049-0.031,0.092-0.032,0.143l-0.14,6.3c-0.013,0.553,0.425,1.01,0.977,1.022c0.008,0,0.015,0,0.023,0
	c0.542,0,0.987-0.434,0.999-0.978l0.07-3.16c2.119,2.344,5.147,3.717,8.45,3.717c6.341,0,11.5-5.159,11.5-11.5c0-0.553-0.448-1-1-1
	S41.5,37.527,41.5,38.08z"/>
</svg>
