<?xml version="1.0" encoding="utf-8"?>
<!-- Generator: Adobe Illustrator 19.2.1, SVG Export Plug-In . SVG Version: 6.00 Build 0)  -->
<!DOCTYPE svg PUBLIC "-//W3C//DTD SVG 1.1//EN" "http://www.w3.org/Graphics/SVG/1.1/DTD/svg11.dtd">
<svg version="1.1" id="Layer_1" xmlns="http://www.w3.org/2000/svg" xmlns:xlink="http://www.w3.org/1999/xlink" x="0px" y="0px"
	 width="64px" height="64px" viewBox="0 0 64 64" enable-background="new 0 0 64 64" xml:space="preserve">
<path d="M46,35c3.394,0,7-2.453,7-7c0-4.086-5.639-10.031-6.281-10.695c-0.377-0.39-1.061-0.39-1.438,0
	C44.639,17.969,39,23.914,39,28C39,32.547,42.606,35,46,35z M46,19.472c1.857,2.08,5,6.102,5,8.528c0,3.248-2.576,5-5,5
	s-5-1.752-5-5C41,25.574,44.143,21.551,46,19.472z"/>
<path d="M26,21c3.394,0,7-2.453,7-7c0-4.086-5.639-10.031-6.281-10.695c-0.377-0.39-1.061-0.39-1.438,0C24.639,3.969,19,9.914,19,14
	C19,18.547,22.606,21,26,21z M26,5.472c1.857,2.08,5,6.102,5,8.528c0,3.248-2.576,5-5,5s-5-1.752-5-5
	C21,11.574,24.143,7.551,26,5.472z"/>
<path d="M60.98,47.804C60.941,47.608,59.929,43,52,43H39.229c-1.715-2.331-4.453-4-7.229-4h-7.481c-2.634-3.555-7.692-6-12.519-6h-1
	v-3c0-0.552-0.447-1-1-1H2c-0.553,0-1,0.448-1,1v26c0,0.552,0.447,1,1,1h8c0.553,0,1-0.448,1-1v-2.362l12.986,6.672
	c1.398,0.636,2.86,0.954,4.271,0.954c1.239,0,2.439-0.246,3.52-0.737l28.6-11.6C60.821,48.746,61.075,48.275,60.98,47.804z M9,55H3
	V31h6V55z M30.986,58.69c-1.795,0.814-4.103,0.742-6.129-0.18L11,51.389V35h1c4.395,0,8.987,2.284,11.168,5.555
	C23.354,40.833,23.666,41,24,41h8c3.134,0,6.32,2.885,6.905,6H22c-0.553,0-1,0.448-1,1s0.447,1,1,1h18c0.553,0,1-0.448,1-1
	c0-1.022-0.235-2.036-0.637-3H52c4.345,0,6.035,1.517,6.666,2.462L30.986,58.69z"/>
</svg>
