<?xml version="1.0" encoding="utf-8"?>
<!-- Generator: Adobe Illustrator 19.2.1, SVG Export Plug-In . SVG Version: 6.00 Build 0)  -->
<!DOCTYPE svg PUBLIC "-//W3C//DTD SVG 1.1//EN" "http://www.w3.org/Graphics/SVG/1.1/DTD/svg11.dtd">
<svg version="1.1" id="Layer_1" xmlns="http://www.w3.org/2000/svg" xmlns:xlink="http://www.w3.org/1999/xlink" x="0px" y="0px"
	 width="64px" height="64px" viewBox="0 0 64 64" enable-background="new 0 0 64 64" xml:space="preserve">
<path d="M12,63c3.394,0,7-2.453,7-7c0-4.086-5.639-10.031-6.281-10.695c-0.377-0.39-1.061-0.39-1.438,0C10.639,45.969,5,51.914,5,56
	C5,60.547,8.606,63,12,63z M12,47.472c1.858,2.08,5,6.102,5,8.528c0,3.248-2.576,5-5,5s-5-1.752-5-5
	C7,53.574,10.142,49.551,12,47.472z"/>
<path d="M6,39h12c0.552,0,1-0.448,1-1v-6c0-1.654,1.346-3,3-3h7.513c2.094,2.549,5.159,4,8.487,4s6.393-1.451,8.486-4H58
	c0.552,0,1-0.448,1-1V16c0-0.552-0.448-1-1-1H46.487c-1.882-2.291-4.551-3.685-7.487-3.945V3h11c0.552,0,1-0.448,1-1s-0.448-1-1-1
	H26c-0.552,0-1,0.448-1,1s0.448,1,1,1h11v8.055c-2.937,0.261-5.605,1.655-7.487,3.945H22c-9.374,0-17,7.626-17,17v6
	C5,38.552,5.448,39,6,39z M7,32c0-8.271,6.729-15,15-15h8c0.315,0,0.612-0.148,0.8-0.4c1.713-2.288,4.337-3.6,7.2-3.6
	c2.862,0,5.487,1.312,7.2,3.6c0.189,0.252,0.485,0.4,0.8,0.4h11v10H46c-0.315,0-0.612,0.148-0.8,0.4C43.487,29.688,40.863,31,38,31
	s-5.487-1.312-7.2-3.6C30.611,27.148,30.314,27,30,27h-8c-2.757,0-5,2.243-5,5v5H7V32z"/>
</svg>
