<?xml version="1.0" encoding="utf-8"?>
<!-- Generator: Adobe Illustrator 19.2.1, SVG Export Plug-In . SVG Version: 6.00 Build 0)  -->
<!DOCTYPE svg PUBLIC "-//W3C//DTD SVG 1.1//EN" "http://www.w3.org/Graphics/SVG/1.1/DTD/svg11.dtd">
<svg version="1.1" id="Layer_1" xmlns="http://www.w3.org/2000/svg" xmlns:xlink="http://www.w3.org/1999/xlink" x="0px" y="0px"
	 width="64px" height="64px" viewBox="0 0 64 64" enable-background="new 0 0 64 64" xml:space="preserve">
<path d="M36.77,36.639c0.19-0.229,0.269-0.53,0.213-0.823l-2.089-11.145l15.561-7.781C52.061,19.36,54.84,21,58,21
	c0.553,0,1-0.447,1-1V4c0-0.553-0.447-1-1-1c-4.032,0-7.453,2.665-8.595,6.326l-17.159,1.226l-1.264-6.736
	C30.895,3.343,30.481,3,30,3H2C1.447,3,1,3.447,1,4v32c0,0.553,0.447,1,1,1h34C36.298,37,36.579,36.867,36.77,36.639z M57,5.071
	v13.857c-3.388-0.486-6-3.408-6-6.929S53.612,5.558,57,5.071z M3,35V5h26.17l1.275,6.797c0.093,0.5,0.546,0.851,1.054,0.812
	l17.534-1.252C49.017,11.57,49,11.783,49,12c0,1.091,0.205,2.132,0.562,3.1L33.324,23.22c-0.399,0.2-0.618,0.64-0.535,1.079
	L34.795,35H3z"/>
<path d="M56.265,29.322C55.726,29.907,51,35.139,51,38.75c0,4.06,3.092,6.25,6,6.25s6-2.19,6-6.25c0-3.611-4.726-8.843-5.265-9.428
	C57.356,28.912,56.644,28.912,56.265,29.322z M57,43c-1.939,0-4-1.489-4-4.25c0-2.034,2.449-5.383,4-7.231
	c1.551,1.849,4,5.197,4,7.231C61,41.511,58.939,43,57,43z"/>
<path d="M40.265,45.322C39.726,45.907,35,51.139,35,54.75c0,4.06,3.092,6.25,6,6.25s6-2.19,6-6.25c0-3.611-4.726-8.843-5.265-9.428
	C41.356,44.912,40.644,44.912,40.265,45.322z M41,59c-1.939,0-4-1.489-4-4.25c0-2.034,2.449-5.383,4-7.231
	c1.551,1.849,4,5.197,4,7.231C45,57.511,42.939,59,41,59z"/>
</svg>
