<?xml version="1.0" encoding="utf-8"?>
<!-- Generator: Adobe Illustrator 19.2.1, SVG Export Plug-In . SVG Version: 6.00 Build 0)  -->
<!DOCTYPE svg PUBLIC "-//W3C//DTD SVG 1.1//EN" "http://www.w3.org/Graphics/SVG/1.1/DTD/svg11.dtd">
<svg version="1.1" id="Layer_1" xmlns="http://www.w3.org/2000/svg" xmlns:xlink="http://www.w3.org/1999/xlink" x="0px" y="0px"
	 width="64px" height="64px" viewBox="0 0 64 64" enable-background="new 0 0 64 64" xml:space="preserve">
<path d="M21,44.182V52c0,6.065,4.935,11,11,11s11-4.935,11-11v-7.818C50.418,40.137,55,32.46,55,24
	c0-6.537-2.796-12.787-7.672-17.148c-4.942-4.42-11.321-6.449-17.974-5.704C19.267,2.275,10.825,10.349,9.282,20.347
	C7.787,30.035,12.482,39.533,21,44.182z M32,61c-4.625,0-8.442-3.507-8.941-8h17.882C40.442,57.493,36.625,61,32,61z M31,29h-1
	c-4.963,0-9-4.038-9-9v-3h1c4.963,0,9,4.038,9,9V29z M33,34c0-4.962,4.037-9,9-9h1v3c0,4.962-4.037,9-9,9h-1V34z M11.259,20.652
	c1.407-9.121,9.111-16.488,18.318-17.516c0.823-0.092,1.642-0.137,2.453-0.137c5.177,0,10.063,1.855,13.965,5.344
	C50.447,12.325,53,18.032,53,24c0,7.911-4.39,15.073-11.456,18.689C41.21,42.86,41,43.204,41,43.579V51h-8V39h1
	c6.065,0,11-4.935,11-11v-4c0-0.552-0.447-1-1-1h-2c-3.72,0-7.008,1.861-9,4.695V26V12c0-0.552-0.447-1-1-1s-1,0.448-1,1v7.695
	C29.008,16.861,25.72,15,22,15h-2c-0.553,0-1,0.448-1,1v4c0,6.065,4.935,11,11,11h1v3v4v13h-8v-7.421c0-0.375-0.21-0.719-0.544-0.89
	C14.363,38.547,9.864,29.691,11.259,20.652z"/>
</svg>
