<?xml version="1.0" encoding="utf-8"?>
<!-- Generator: Adobe Illustrator 19.1.0, SVG Export Plug-In . SVG Version: 6.00 Build 0)  -->
<!DOCTYPE svg PUBLIC "-//W3C//DTD SVG 1.1//EN" "http://www.w3.org/Graphics/SVG/1.1/DTD/svg11.dtd">
<svg version="1.1" id="Layer_1" xmlns="http://www.w3.org/2000/svg" xmlns:xlink="http://www.w3.org/1999/xlink" x="0px" y="0px"
	 width="32px" height="32px" viewBox="0 0 32 32" enable-background="new 0 0 32 32" xml:space="preserve">
<path d="M15.7002,0.00244C8.42657,0.13599,2.46704,4.961,0.61096,11.6004c-0.01398,0.03186-0.01489,0.06842-0.02551,0.10193
	C0.21295,13.06915,0,14.5058,0,16v8c0,4.33691,3.58008,8,7.81836,8h12.27246C26.65723,32,32,26.65723,32,20.09082V16
	c0-4.3291-1.70117-8.38379-4.79102-11.41748C24.12109,1.5498,20.03125-0.0459,15.7002,0.00244z M2.3222,13h15.51569
	c0.65039,0,1.24219,0.30273,1.62207,0.83008c0.38086,0.52783,0.48047,1.18506,0.27539,1.80273l-2.22754,6.68359
	C17.37109,22.72559,16.98926,23,16.55859,23H2v-7C2,14.96741,2.11609,13.96594,2.3222,13z M30,20.09082
	C30,25.55469,25.55469,30,20.09082,30H7.81836c-2.82416,0-5.24902-2.20483-5.72699-5h14.46722
	c1.29297,0,2.43652-0.82422,2.8457-2.05078l2.22754-6.68457c0.41211-1.23438,0.21191-2.54834-0.5498-3.604
	C20.32129,11.60547,19.13867,11,17.83789,11H2.91376C4.87061,5.79291,9.802,2.11115,15.7373,2.00244
	c3.76953-0.08887,7.36816,1.354,10.07031,4.00732C28.51172,8.66406,30,12.21191,30,16V20.09082z"/>
</svg>
