<?xml version="1.0" encoding="utf-8"?>
<!-- Generator: Adobe Illustrator 19.1.0, SVG Export Plug-In . SVG Version: 6.00 Build 0)  -->
<!DOCTYPE svg PUBLIC "-//W3C//DTD SVG 1.1//EN" "http://www.w3.org/Graphics/SVG/1.1/DTD/svg11.dtd">
<svg version="1.1" id="Layer_1" xmlns="http://www.w3.org/2000/svg" xmlns:xlink="http://www.w3.org/1999/xlink" x="0px" y="0px"
	 width="32px" height="32px" viewBox="0 0 32 32" enable-background="new 0 0 32 32" xml:space="preserve">
<path d="M30.97955,1.62189c-0.04785-0.13501-0.11877-0.263-0.22644-0.37134c-0.00153-0.00153-0.00299-0.00287-0.00452-0.00439
	c-0.10846-0.10767-0.23645-0.17853-0.37158-0.22632c-0.01105-0.00397-0.01813-0.01428-0.02936-0.01788
	C20.48096-2.1377,8.3042,9.19629,0.61572,21.81934c-0.23975,0.39453-0.1792,0.90137,0.14648,1.22754l8.19043,8.19043
	c0.19287,0.19336,0.44873,0.29297,0.70752,0.29297c0.17871,0,0.3584-0.04785,0.51953-0.14551
	c12.625-7.68945,23.95801-19.86426,20.81787-29.7334C30.99396,1.64008,30.98352,1.633,30.97955,1.62189z M28.00598,2.57953
	L5.56519,25.02124l-2.82983-2.82983C12.90381,5.8244,22.68256,2.12683,28.00598,2.57953z M9.80859,29.26465L6.97925,26.4353
	L29.41974,3.99384C29.8717,9.31885,26.17664,19.09607,9.80859,29.26465z"/>
</svg>
