<?xml version="1.0" encoding="utf-8"?>
<!-- Generator: Adobe Illustrator 19.1.0, SVG Export Plug-In . SVG Version: 6.00 Build 0)  -->
<!DOCTYPE svg PUBLIC "-//W3C//DTD SVG 1.1//EN" "http://www.w3.org/Graphics/SVG/1.1/DTD/svg11.dtd">
<svg version="1.1" id="Layer_1" xmlns="http://www.w3.org/2000/svg" xmlns:xlink="http://www.w3.org/1999/xlink" x="0px" y="0px"
	 width="32px" height="32px" viewBox="0 0 32 32" enable-background="new 0 0 32 32" xml:space="preserve">
<path d="M27.13086,0.00195c-1.39893-0.02637-2.6875,0.4834-3.6665,1.46289L12.15088,12.77832
	c-1.33545,1.33496-1.95264,2.94141-2.44824,4.23145c-0.3501,0.91113-0.65234,1.69727-1.0874,2.13281l-3.43408,3.43359
	c-1.00537-0.59082-2.39941-0.42871-3.24707,0.41895c-0.50586,0.50586-0.78467,1.17871-0.78467,1.89355
	c0,0.71582,0.27881,1.38867,0.78467,1.89453l3.2749,3.27539c0.50635,0.50586,1.17822,0.78418,1.89307,0.78418
	c0.00342,0,0.00635,0,0.00977,0c0.71875-0.00293,1.39307-0.28613,1.89746-0.79785c0.86377-0.87402,1-2.20508,0.41162-3.22363
	l3.43701-3.43652c0.48926-0.48926,1.30762-0.80273,2.25537-1.16602c1.25995-0.48315,2.67804-1.03491,3.92596-2.20221
	C19.95361,21.21375,21.3808,22,23,22c2.75684,0,5-2.24316,5-5c0-1.61536-0.78284-3.03931-1.97522-3.95398l4.35071-4.35071
	c1.97119-1.9707,2.12207-5.06152,0.34424-7.03613C29.79004,0.62598,28.51514,0.03809,27.13086,0.00195z M23,20
	c-1.6543,0-3-1.3457-3-3s1.3457-3,3-3s3,1.3457,3,3S24.6543,20,23,20z M28.96143,7.28125l-4.85242,4.85242
	C23.75104,12.052,23.38232,12,23,12c-2.75684,0-5,2.24316-5,5c0,0.38239,0.052,0.75116,0.13373,1.10919l-0.32611,0.32635
	c-0.9873,0.98633-2.21924,1.45898-3.41016,1.91602c-1.11279,0.42578-2.16406,0.8291-2.95361,1.61914l-4.08057,4.08008
	c-0.39014,0.38965-0.39062,1.02246-0.00098,1.41309l0.22021,0.2207c0.26318,0.2627,0.26465,0.69141,0.00342,0.95605
	c-0.12793,0.12988-0.29883,0.20117-0.48096,0.20215c-0.00098,0-0.00195,0-0.00244,0c-0.18115,0-0.35156-0.07031-0.47949-0.19824
	l-3.2749-3.27539c-0.12842-0.12793-0.19873-0.29883-0.19873-0.48047c0-0.18066,0.07031-0.35156,0.19873-0.47949
	c0.26465-0.2627,0.69482-0.26367,0.95947,0l0.22754,0.22754c0.375,0.375,1.03906,0.375,1.41406,0l4.08008-4.08008
	c0.73535-0.73535,1.12646-1.75293,1.54004-2.8291c0.47217-1.22949,0.96094-2.5,1.99561-3.53516L24.87842,2.87891
	c0.58789-0.58789,1.35547-0.9082,2.2002-0.87793c0.83057,0.02148,1.5957,0.37598,2.15479,0.99609
	C30.28174,4.16113,30.15967,6.08301,28.96143,7.28125z"/>
</svg>
