<?xml version="1.0" encoding="utf-8"?>
<!-- Generator: Adobe Illustrator 19.1.0, SVG Export Plug-In . SVG Version: 6.00 Build 0)  -->
<!DOCTYPE svg PUBLIC "-//W3C//DTD SVG 1.1//EN" "http://www.w3.org/Graphics/SVG/1.1/DTD/svg11.dtd">
<svg version="1.1" id="Layer_1" xmlns="http://www.w3.org/2000/svg" xmlns:xlink="http://www.w3.org/1999/xlink" x="0px" y="0px"
	 width="32px" height="32px" viewBox="0 0 32 32" enable-background="new 0 0 32 32" xml:space="preserve">
<path d="M5.38232,28.97754c0.56494,0.56543,1.32764,0.87891,2.12012,0.87891c0.07666,0,0.15332-0.00293,0.22998-0.00879
	c0.87402-0.06689,1.67236-0.51074,2.18994-1.21729l3.1709-4.32324c2.54431,1.07458,5.51172,1.0979,8.25616,0.13086
	c0.07251-0.01855,0.14032-0.04199,0.20801-0.07703c0.40137-0.14954,0.79572-0.32062,1.18451-0.51361
	c0.87756,0.76117,2.008,1.23859,3.25806,1.23859c2.75684,0,5-2.24316,5-5c0-1.50452-0.68201-2.83997-1.737-3.75739
	c1.30188-4.03003,0.38373-8.341-2.43341-11.15814c-4.28809-4.28955-11.58496-3.9707-16.26318,0.70703
	c-1.34082,1.34064-2.33392,2.922-2.95557,4.599c-0.02063,0.04456-0.0318,0.08954-0.04547,0.13617
	c-0.97614,2.72906-0.9743,5.69904,0.12701,8.29462l-4.32275,3.16992c-0.70654,0.51807-1.15039,1.31641-1.21729,2.19043
	s0.25049,1.73047,0.87012,2.3501L5.38232,28.97754z M26,23.08594c-1.6543,0-3-1.3457-3-3s1.3457-3,3-3s3,1.3457,3,3
	S27.6543,23.08594,26,23.08594z M11.98047,7.2915c3.90039-3.89844,9.92676-4.21582,13.43506-0.70703
	c2.19592,2.19635,2.94226,5.53955,2.04449,8.74438c-0.4649-0.14331-0.94873-0.24292-1.46002-0.24292c-2.75684,0-5,2.24316-5,5
	c0,0.77063,0.18988,1.49231,0.50262,2.1449c-0.05408,0.02441-0.10583,0.05634-0.16028,0.07977L9.68896,10.65723
	C10.2168,9.43701,10.98511,8.28699,11.98047,7.2915z M4.55225,23.68994l4.98877-3.65869
	c0.3999-0.29297,0.52441-0.83496,0.29297-1.27295c-0.95538-1.8092-1.2038-3.90338-0.81262-5.94055l10.14941,10.14941
	c-2.05804,0.38788-4.15826,0.1333-5.92908-0.80115c-0.43799-0.23242-0.98047-0.10742-1.27295,0.29297l-3.65918,4.98877
	c-0.1748,0.23877-0.43408,0.38281-0.72949,0.40576c-0.29932,0.01855-0.57422-0.08105-0.78369-0.29004l-2.35986-2.35986
	c-0.20947-0.20947-0.3125-0.48779-0.29004-0.7832C4.16943,24.12451,4.31348,23.86523,4.55225,23.68994z"/>
</svg>
