<?xml version="1.0" encoding="utf-8"?>
<!-- Generator: Adobe Illustrator 19.1.0, SVG Export Plug-In . SVG Version: 6.00 Build 0)  -->
<!DOCTYPE svg PUBLIC "-//W3C//DTD SVG 1.1//EN" "http://www.w3.org/Graphics/SVG/1.1/DTD/svg11.dtd">
<svg version="1.1" id="Layer_1" xmlns="http://www.w3.org/2000/svg" xmlns:xlink="http://www.w3.org/1999/xlink" x="0px" y="0px"
	 width="32px" height="32px" viewBox="0 0 32 32" enable-background="new 0 0 32 32" xml:space="preserve">
<path d="M28.72754,3.27246c-1.51074-1.51172-3.51953-2.34375-5.65625-2.34375s-4.14551,0.83203-5.65723,2.34375l-0.70703-0.70703
	c-0.39062-0.39062-1.02344-0.39062-1.41406,0l-4.24219,4.24219c-0.39062,0.39062-0.39062,1.02344,0,1.41406l0.70703,0.70703
	l-2.8291,2.8291l-0.70703-0.70703c-0.39062-0.39062-1.02344-0.39062-1.41406,0l-4.24219,4.24219
	c-0.39062,0.39062-0.39062,1.02344,0,1.41406l0.70703,0.70703c-1.51172,1.51172-2.34375,3.52051-2.34375,5.65723
	s0.83203,4.14551,2.34375,5.65625c1.51074,1.51172,3.51953,2.34375,5.65625,2.34375s4.14551-0.83203,5.65723-2.34375
	l0.70703,0.70703c0.19531,0.19531,0.45117,0.29297,0.70703,0.29297s0.51172-0.09766,0.70703-0.29297l4.24219-4.24219
	c0.39062-0.39062,0.39062-1.02344,0-1.41406l-0.70703-0.70703l2.8291-2.8291l0.70703,0.70703
	c0.19531,0.19531,0.45117,0.29297,0.70703,0.29297s0.51172-0.09766,0.70703-0.29297l4.24219-4.24219
	c0.39062-0.39062,0.39062-1.02344,0-1.41406l-0.70703-0.70703c1.51172-1.51172,2.34375-3.52051,2.34375-5.65723
	S30.23926,4.7832,28.72754,3.27246z M16,4.68652l1.41406,1.41406l-2.82812,2.82812l-1.41406-1.41406L16,4.68652z M7.51465,13.17188
	l1.41406,1.41406l-2.82812,2.82812L4.68652,16L7.51465,13.17188z M8.92871,29.07129c-1.60254,0-3.1084-0.62402-4.24219-1.75781
	s-1.75781-2.63965-1.75781-4.24219s0.62402-3.10938,1.75781-4.24316l0.70703,0.70703
	c0.19531,0.19531,0.45117,0.29297,0.70703,0.29297s0.51172-0.09766,0.70703-0.29297l1.41406-1.41406l5.65723,5.65723
	l-1.41406,1.41406c-0.39062,0.39062-0.39062,1.02344,0,1.41406l0.70703,0.70703
	C12.03809,28.44727,10.53125,29.07129,8.92871,29.07129z M16,27.31348l-1.41406-1.41406l2.82812-2.82812l1.41406,1.41406
	L16,27.31348z M18.82812,21.65723l-0.70703-0.70703c-0.39062-0.39062-1.02344-0.39062-1.41406,0l-1.41406,1.41406l-5.65723-5.65723
	l1.41406-1.41406c0.39062-0.39062,0.39062-1.02344,0-1.41406l-0.70703-0.70703l2.8291-2.8291l0.70703,0.70703
	c0.19531,0.19531,0.45117,0.29297,0.70703,0.29297s0.51172-0.09766,0.70703-0.29297l1.41406-1.41406l5.65723,5.65723
	l-1.41406,1.41406c-0.39062,0.39062-0.39062,1.02344,0,1.41406l0.70703,0.70703L18.82812,21.65723z M24.48535,18.82812
	l-1.41406-1.41406l2.82812-2.82812L27.31348,16L24.48535,18.82812z M27.31348,13.17188l-0.70703-0.70703
	c-0.39062-0.39062-1.02344-0.39062-1.41406,0l-1.41406,1.41406l-5.65723-5.65723l1.41406-1.41406
	c0.39062-0.39062,0.39062-1.02344,0-1.41406l-0.70703-0.70703c1.13379-1.13379,2.64062-1.75781,4.24316-1.75781
	s3.1084,0.62402,4.24219,1.75781s1.75781,2.63965,1.75781,4.24219S28.44727,12.03809,27.31348,13.17188z"/>
</svg>
