<?xml version="1.0" encoding="utf-8"?>
<!-- Generator: Adobe Illustrator 19.1.0, SVG Export Plug-In . SVG Version: 6.00 Build 0)  -->
<!DOCTYPE svg PUBLIC "-//W3C//DTD SVG 1.1//EN" "http://www.w3.org/Graphics/SVG/1.1/DTD/svg11.dtd">
<svg version="1.1" id="Layer_1" xmlns="http://www.w3.org/2000/svg" xmlns:xlink="http://www.w3.org/1999/xlink" x="0px" y="0px"
	 width="32px" height="32px" viewBox="0 0 32 32" enable-background="new 0 0 32 32" xml:space="preserve">
<path d="M27.64014,12.07715c0.00146-0.04492,0.00244-0.08984,0.00244-0.13477c0-0.99512-0.3877-1.93164-1.09229-2.63574
	c-0.76361-0.76361-1.77844-1.11487-2.78113-1.07593c0.03906-1.00275-0.31232-2.01776-1.07629-2.78149
	c-0.73486-0.73535-1.72363-1.11035-2.76953-1.08984c0.03516-0.99805-0.32764-2.00781-1.08789-2.76758
	c-1.40723-1.4082-3.86377-1.4082-5.271-0.00098c-0.37988,0.37988-0.66846,0.83789-0.8584,1.36426L3.80273,20.99707l-1.81152,1.81152
	c-1.98535,1.98535-1.98535,5.21484,0,7.2002c0.99268,0.99219,2.29639,1.48828,3.6001,1.48828
	c1.3042,0,2.60791-0.49609,3.60059-1.48828l1.8125-1.8125l18.03955-8.90234c0.52539-0.18945,0.98389-0.47754,1.36426-0.85742
	c1.45312-1.4541,1.45312-3.81836-0.00049-5.27246C29.64746,12.40332,28.63525,12.03809,27.64014,12.07715z M7.77783,28.59473
	c-1.20508,1.2041-3.16748,1.20508-4.37256,0C2.82129,28.01074,2.5,27.23438,2.5,26.40918c0-0.82617,0.32129-1.60254,0.90527-2.18652
	l1.22168-1.22168l4.37256,4.37207L7.77783,28.59473z M28.99463,17.02148c-0.17773,0.17773-0.40039,0.31348-0.66162,0.40234
	c-0.04102,0.01367-0.08105,0.03027-0.11963,0.0498l-17.59949,8.68573l-4.77295-4.77252l8.68542-17.60071
	c0.01855-0.03809,0.03516-0.07812,0.04932-0.11816c0.08936-0.26172,0.22461-0.48438,0.40234-0.66211
	c0.65332-0.65234,1.79102-0.65234,2.44336,0c0.67334,0.67383,0.67334,1.76953,0,2.44336
	c-0.02106,0.02106-0.02863,0.04901-0.04742,0.07141c-0.0188,0.02222-0.04486,0.0343-0.06195,0.05847L9.59717,16.48535
	c-0.31885,0.4502-0.21191,1.07422,0.23877,1.39355c0.17578,0.12402,0.37695,0.18359,0.57666,0.18359
	c0.31348,0,0.62256-0.14746,0.81738-0.42285L18.8761,6.83057c0.65863-0.61542,1.76282-0.60718,2.40271,0.03271
	c0.67334,0.67383,0.67334,1.76953,0,2.44336l-9.19434,9.19434c-0.39062,0.39062-0.39062,1.02344,0,1.41406
	s1.02344,0.39062,1.41406,0l9.19434-9.19434c0.67383-0.67383,1.77002-0.67383,2.44385,0
	c0.32617,0.32617,0.50586,0.76074,0.50586,1.22168c0,0.44196-0.16852,0.85541-0.46844,1.17621l-10.74298,7.43414
	c-0.4541,0.31445-0.56787,0.9375-0.25342,1.3916c0.19434,0.28027,0.50586,0.43066,0.82324,0.43066
	c0.19629,0,0.39453-0.05762,0.56787-0.17773l10.84375-7.50391c0.02576-0.01788,0.039-0.04523,0.06256-0.065
	c0.0238-0.01978,0.05328-0.02789,0.07562-0.05023c0.67383-0.67188,1.76953-0.67383,2.44336,0
	C29.66748,15.25195,29.66748,16.34863,28.99463,17.02148z"/>
</svg>
