<?xml version="1.0" encoding="utf-8"?>
<!-- Generator: Adobe Illustrator 19.1.0, SVG Export Plug-In . SVG Version: 6.00 Build 0)  -->
<!DOCTYPE svg PUBLIC "-//W3C//DTD SVG 1.1//EN" "http://www.w3.org/Graphics/SVG/1.1/DTD/svg11.dtd">
<svg version="1.1" id="Layer_1" xmlns="http://www.w3.org/2000/svg" xmlns:xlink="http://www.w3.org/1999/xlink" x="0px" y="0px"
	 width="32px" height="32px" viewBox="0 0 32 32" enable-background="new 0 0 32 32" xml:space="preserve">
<path d="M8,27c1.6543,0,3-1.3457,3-3v-5h10v5c0,1.6543,1.3457,3,3,3s3-1.3457,3-3V8c0-1.6543-1.3457-3-3-3s-3,1.3457-3,3v5H11V8
	c0-1.6543-1.3457-3-3-3S5,6.3457,5,8v16C5,25.6543,6.3457,27,8,27z M23,8c0-0.55127,0.44873-1,1-1s1,0.44873,1,1v16
	c0,0.55127-0.44873,1-1,1s-1-0.44873-1-1V8z M21,15v2H11v-2H21z M7,8c0-0.55127,0.44873-1,1-1s1,0.44873,1,1v16
	c0,0.55127-0.44873,1-1,1s-1-0.44873-1-1V8z"/>
<path d="M1,17h1v5c0,0.55225,0.44775,1,1,1s1-0.44775,1-1V10c0-0.55225-0.44775-1-1-1s-1,0.44775-1,1v5H1c-0.55225,0-1,0.44775-1,1
	S0.44775,17,1,17z"/>
<path d="M31,15h-1v-5c0-0.55225-0.44775-1-1-1s-1,0.44775-1,1v12c0,0.55225,0.44775,1,1,1s1-0.44775,1-1v-5h1
	c0.55225,0,1-0.44775,1-1S31.55225,15,31,15z"/>
</svg>
