<?xml version="1.0" encoding="utf-8"?>
<!-- Generator: Adobe Illustrator 19.1.0, SVG Export Plug-In . SVG Version: 6.00 Build 0)  -->
<!DOCTYPE svg PUBLIC "-//W3C//DTD SVG 1.1//EN" "http://www.w3.org/Graphics/SVG/1.1/DTD/svg11.dtd">
<svg version="1.1" id="Layer_1" xmlns="http://www.w3.org/2000/svg" xmlns:xlink="http://www.w3.org/1999/xlink" x="0px" y="0px"
	 width="32px" height="32px" viewBox="0 0 32 32" enable-background="new 0 0 32 32" xml:space="preserve">
<path d="M22,6c-2.6709,0-5.18213,1.04004-7.0708,2.9292C13.04004,10.81787,12,13.3291,12,16s1.04004,5.18213,2.9292,7.0708
	c1.77081,1.77124,4.09106,2.78394,6.57489,2.90503c0.00134,0,0.00238,0.00073,0.00372,0.00073
	c0.00244,0,0.00482-0.00018,0.00726-0.00018C21.67676,25.98407,21.83698,26,22,26c2.6709,0,5.18213-1.04004,7.0708-2.9292
	C30.95996,21.18213,32,18.6709,32,16s-1.04004-5.18213-2.9292-7.0708C27.18213,7.04004,24.6709,6,22,6z M16.34326,10.34326
	c1.38855-1.38855,3.19873-2.19489,5.14069-2.31812c-0.12286,1.93408-0.93677,3.771-2.31207,5.14673
	c-1.37677,1.37634-3.20856,2.19006-5.14673,2.31232C14.14832,13.54218,14.95465,11.73187,16.34326,10.34326z M14.13898,17.47369
	c2.42072-0.15094,4.72266-1.16394,6.44696-2.88776c1.72369-1.72412,2.74298-4.02527,2.89404-6.44598
	c1.57275,0.29279,3.02081,1.04736,4.17676,2.20331c1.15601,1.15601,1.91064,2.60419,2.20337,4.17706
	c-2.41742,0.15161-4.72192,1.17004-6.44604,2.89374c-1.72369,1.72412-2.74298,4.02527-2.89404,6.44598
	c-1.57275-0.29279-3.02081-1.04736-4.17676-2.20331C15.18579,20.49927,14.43091,19.04889,14.13898,17.47369z M27.65674,21.65674
	c-1.38855,1.38855-3.19873,2.19489-5.14069,2.31812c0.12286-1.93408,0.93677-3.771,2.31207-5.14673
	c1.37653-1.37573,3.20984-2.18896,5.14673-2.31189C29.85162,18.45813,29.04523,20.26825,27.65674,21.65674z"/>
<path d="M3,11h7c0.55225,0,1-0.44775,1-1s-0.44775-1-1-1H3c-0.55225,0-1,0.44775-1,1S2.44775,11,3,11z"/>
<path d="M10,23c0.55225,0,1-0.44775,1-1s-0.44775-1-1-1H3c-0.55225,0-1,0.44775-1,1s0.44775,1,1,1H10z"/>
<path d="M1,17h7c0.55225,0,1-0.44775,1-1s-0.44775-1-1-1H1c-0.55225,0-1,0.44775-1,1S0.44775,17,1,17z"/>
</svg>
