<?xml version="1.0" encoding="utf-8"?>
<!-- Generator: Adobe Illustrator 19.1.0, SVG Export Plug-In . SVG Version: 6.00 Build 0)  -->
<!DOCTYPE svg PUBLIC "-//W3C//DTD SVG 1.1//EN" "http://www.w3.org/Graphics/SVG/1.1/DTD/svg11.dtd">
<svg version="1.1" id="Layer_1" xmlns="http://www.w3.org/2000/svg" xmlns:xlink="http://www.w3.org/1999/xlink" x="0px" y="0px"
	 width="32px" height="32px" viewBox="0 0 32 32" enable-background="new 0 0 32 32" xml:space="preserve">
<path d="M26.52698,5.33051c-0.00574-0.00616-0.00739-0.0144-0.01331-0.02045c-0.01062-0.01086-0.02515-0.01428-0.03613-0.02454
	C23.77142,2.63873,20.07532,1,16,1S8.22858,2.63873,5.52246,5.28552C5.51147,5.29578,5.49695,5.29919,5.48633,5.31006
	C5.48041,5.3161,5.47876,5.32434,5.47302,5.33051C2.7149,8.05212,1,11.82831,1,16s1.71472,7.94769,4.47253,10.66919
	c0.00598,0.00641,0.00763,0.01495,0.01379,0.02124c0.01093,0.01117,0.02582,0.01453,0.03711,0.02502
	C8.22949,29.36163,11.92517,31,16,31c4.07489,0,7.77057-1.63831,10.47662-4.28455c0.01129-0.0105,0.02618-0.01392,0.03705-0.02502
	c0.00616-0.00629,0.00781-0.01483,0.01379-0.02124C29.28528,23.94769,31,20.17169,31,16S29.2851,8.05212,26.52698,5.33051z
	 M25.79834,24.51672c-0.50201-0.57556-0.94348-1.18939-1.33173-1.83228l0.38055-0.19031
	c0.49414-0.24707,0.69434-0.84766,0.44727-1.3418c-0.24658-0.49414-0.8457-0.69238-1.3418-0.44727l-0.3924,0.19629
	C23.05701,19.66742,22.75214,18.35486,22.64941,17H23c0.55225,0,1-0.44775,1-1s-0.44775-1-1-1h-0.35059
	c0.10272-1.35516,0.40759-2.66785,0.91089-3.90173l0.39233,0.19617c0.14355,0.07178,0.29639,0.10547,0.44629,0.10547
	c0.36719,0,0.72021-0.20215,0.89551-0.55273c0.24707-0.49414,0.04688-1.09473-0.44727-1.3418l-0.38031-0.19019
	c0.38831-0.64282,0.82971-1.25641,1.33173-1.83185C27.78632,9.76721,29,12.74152,29,16
	C29,19.25842,27.78625,22.23279,25.79834,24.51672z M6.20142,7.48334c0.50208,0.57544,0.94342,1.18903,1.33173,1.83185
	L7.15283,9.50537c-0.49414,0.24707-0.69434,0.84766-0.44727,1.3418c0.17529,0.35059,0.52832,0.55273,0.89551,0.55273
	c0.1499,0,0.30273-0.03369,0.44629-0.10547l0.39233-0.19617C8.94299,12.33215,9.24786,13.64484,9.35059,15H9
	c-0.55225,0-1,0.44775-1,1s0.44775,1,1,1h0.35059c-0.10272,1.35486-0.40759,2.66742-0.91083,3.90137l-0.3924-0.19629
	c-0.49463-0.24512-1.09473-0.04688-1.3418,0.44727s-0.04688,1.09473,0.44727,1.3418l0.38055,0.19031
	c-0.38824,0.64288-0.82971,1.25671-1.33173,1.83228C4.21375,22.23279,3,19.25842,3,16C3,12.74152,4.21368,9.76721,6.20142,7.48334z
	 M7.62122,25.92377c0.64929-0.73169,1.21796-1.51508,1.70581-2.34216l0.62561,0.31293C10.09619,23.96582,10.24854,24,10.39893,24
	c0.36719,0,0.72021-0.20215,0.89551-0.55273c0.24707-0.49414,0.04688-1.09473-0.44727-1.3418l-0.60754-0.30389
	c0.63495-1.51141,1.0014-3.13098,1.11096-4.80157h0.44922c0.55225,0,1-0.44775,1-1s-0.44775-1-1-1h-0.44922
	c-0.10962-1.67059-0.47626-3.29022-1.11115-4.80164l0.60773-0.30383c0.49414-0.24707,0.69434-0.84766,0.44727-1.3418
	c-0.24658-0.49365-0.8457-0.69531-1.3418-0.44727L9.32684,8.41833C8.83893,7.59119,8.2702,6.80792,7.62097,6.07629
	C9.88586,4.16089,12.80823,3,16,3s6.11414,1.16089,8.37903,3.07629c-0.64923,0.73163-1.21796,1.51489-1.70587,2.34204
	l-0.62579-0.31287c-0.49561-0.24805-1.09521-0.04639-1.3418,0.44727c-0.24707,0.49414-0.04688,1.09473,0.44727,1.3418
	l0.60773,0.30383C21.12567,11.70978,20.75903,13.32941,20.64941,15H20.2002c-0.55225,0-1,0.44775-1,1s0.44775,1,1,1h0.44922
	c0.10956,1.67059,0.47601,3.29016,1.11096,4.80157l-0.60754,0.30389c-0.49414,0.24707-0.69434,0.84766-0.44727,1.3418
	C20.88086,23.79785,21.23389,24,21.60107,24c0.1499,0,0.30273-0.03418,0.44629-0.10547l0.62561-0.31293
	c0.48785,0.82709,1.05652,1.61047,1.70581,2.34216C22.11389,27.83917,19.19165,29,16,29S9.88611,27.83917,7.62122,25.92377z"/>
</svg>
