<?xml version="1.0" encoding="utf-8"?>
<!-- Generator: Adobe Illustrator 19.1.0, SVG Export Plug-In . SVG Version: 6.00 Build 0)  -->
<!DOCTYPE svg PUBLIC "-//W3C//DTD SVG 1.1//EN" "http://www.w3.org/Graphics/SVG/1.1/DTD/svg11.dtd">
<svg version="1.1" id="Layer_1" xmlns="http://www.w3.org/2000/svg" xmlns:xlink="http://www.w3.org/1999/xlink" x="0px" y="0px"
	 width="32px" height="32px" viewBox="0 0 32 32" enable-background="new 0 0 32 32" xml:space="preserve">
<path d="M3.7041,31.12451c0.1875,0.1875,0.44141,0.29297,0.70703,0.29297s0.51953-0.10547,0.70703-0.29297l5.65723-5.65674
	c0.1875-0.1875,0.29297-0.44189,0.29297-0.70703s-0.10547-0.51953-0.29297-0.70703l-0.58661-0.58655
	c1.36694-0.75275,3.52148-1.12225,5.79266-1.50183c1.48376-0.24823,3.00635-0.51086,4.48096-0.89441
	C21.25256,22.79401,22.98376,24,25,24c2.75684,0,5-2.24316,5-5c0-1.22308-0.45874-2.33026-1.19073-3.20007
	c3.76544-4.58997,4.27502-10.44904,1.05792-13.66663C26.3584-1.37402,19.69727-0.4248,15.01758,4.25439
	c-1.62231,1.62268-2.83411,3.51794-3.54321,5.48871c-0.00299,0.00775-0.00964,0.0127-0.01245,0.02057
	c-0.00653,0.01825-0.01099,0.0376-0.01746,0.05585c-0.0705,0.20001-0.12811,0.40137-0.18805,0.60272
	c-0.57062,1.80072-0.90674,3.71869-1.2193,5.58704c-0.38043,2.27515-0.7511,4.43372-1.50476,5.80176L7.94629,21.2251
	c-0.39062-0.39062-1.02344-0.39062-1.41406,0l-5.65625,5.65674c-0.39062,0.39062-0.39062,1.02344,0,1.41406L3.7041,31.12451z
	 M12.89648,19.10352c0.43915,0.43903,0.93304,0.80402,1.46356,1.10974c-1.18408,0.20813-2.31354,0.44055-3.33069,0.75708
	c0.31537-1.01263,0.54742-2.13696,0.75519-3.3158C12.08929,18.18225,12.46063,18.66766,12.89648,19.10352z M25,22
	c-1.6543,0-3-1.3457-3-3s1.3457-3,3-3s3,1.3457,3,3S26.6543,22,25,22z M16.43164,5.66846
	c3.89746-3.89941,9.29004-4.85107,12.02148-2.12109c2.49097,2.49139,1.92804,7.21143-1.20874,11.00928
	C26.56628,14.2124,25.81097,14,25,14c-2.75684,0-5,2.24316-5,5c0,0.02563,0.0072,0.04932,0.00757,0.07489
	c-2.30823,0.44238-4.35266-0.04236-5.69702-1.38544c-1.51044-1.51044-1.88861-3.83698-1.26886-6.27405
	c0.09637-0.32922,0.18988-0.66089,0.30304-0.97595c0.00299-0.00842,0.00098-0.01697,0.00372-0.02539
	C13.94611,8.76813,14.98486,7.11542,16.43164,5.66846z M7.23926,23.34619l0.70654,0.7063
	c0.00024,0.00024,0.00024,0.00049,0.00049,0.00073s0.00049,0.00024,0.00073,0.00049l0.70728,0.70703l-4.24316,4.24268
	l-1.41406-1.41455L7.23926,23.34619z"/>
</svg>
