<?xml version="1.0" encoding="utf-8"?>
<!-- Generator: Adobe Illustrator 19.1.0, SVG Export Plug-In . SVG Version: 6.00 Build 0)  -->
<!DOCTYPE svg PUBLIC "-//W3C//DTD SVG 1.1//EN" "http://www.w3.org/Graphics/SVG/1.1/DTD/svg11.dtd">
<svg version="1.1" id="Layer_1" xmlns="http://www.w3.org/2000/svg" xmlns:xlink="http://www.w3.org/1999/xlink" x="0px" y="0px"
	 width="32px" height="32px" viewBox="0 0 32 32" enable-background="new 0 0 32 32" xml:space="preserve">
<path d="M2.8208,29.17529c1.09619,1.09619,3.21387,1.67236,5.79639,1.67236c4.85303,0,11.34766-2.03467,15.7876-6.47461
	c4.20557-4.20508,5.63721-9.43652,6.11621-12.18066c0.73047-4.18359,0.21484-7.87451-1.31396-9.40332
	C26.05127-0.36621,14.42627,0.78809,7.62305,7.59131c-3.30499,3.30499-5.26666,7.74475-6.05908,11.8017
	c-0.06451,0.14203-0.09485,0.29224-0.08948,0.44525C0.75269,23.95319,1.25391,27.6084,2.8208,29.17529z M4.23486,27.76123
	c-0.80829-0.80847-1.23724-3.02362-1.01984-5.7962l6.81628,6.81628C7.25873,28.99878,5.04358,28.5697,4.23486,27.76123z
	 M23.38184,3.1167c2.11377,0,3.7417,0.41699,4.41113,1.08643c0.7334,0.7334,1.22168,2.86957,0.9892,5.76556l-6.79175-6.79175
	C22.4715,3.13885,22.93909,3.1167,23.38184,3.1167z M9.03711,9.00537c3.09326-3.0929,7.0025-4.76862,10.47845-5.47516
	l8.92017,8.92017c-0.53381,2.62085-1.91309,6.97717-5.44501,10.50861c-3.09564,3.09564-7.00568,4.7644-10.48376,5.46985
	l-8.93958-8.93958C4.27277,16.01111,5.94147,12.10101,9.03711,9.00537z"/>
<path d="M10.29297,21.70703C10.48828,21.90234,10.74414,22,11,22s0.51172-0.09766,0.70703-0.29297L13,20.41406l1.29297,1.29297
	C14.48828,21.90234,14.74414,22,15,22s0.51172-0.09766,0.70703-0.29297c0.39062-0.39062,0.39062-1.02344,0-1.41406L14.41406,19
	L16,17.41406l1.29297,1.29297C17.48828,18.90234,17.74414,19,18,19s0.51172-0.09766,0.70703-0.29297
	c0.39062-0.39062,0.39062-1.02344,0-1.41406L17.41406,16L19,14.41406l1.29297,1.29297C20.48828,15.90234,20.74414,16,21,16
	s0.51172-0.09766,0.70703-0.29297c0.39062-0.39062,0.39062-1.02344,0-1.41406L20.41406,13l1.29297-1.29297
	c0.39062-0.39062,0.39062-1.02344,0-1.41406s-1.02344-0.39062-1.41406,0L19,11.58594l-1.29297-1.29297
	c-0.39062-0.39062-1.02344-0.39062-1.41406,0s-0.39062,1.02344,0,1.41406L17.58594,13L16,14.58594l-1.29297-1.29297
	c-0.39062-0.39062-1.02344-0.39062-1.41406,0s-0.39062,1.02344,0,1.41406L14.58594,16L13,17.58594l-1.29297-1.29297
	c-0.39062-0.39062-1.02344-0.39062-1.41406,0s-0.39062,1.02344,0,1.41406L11.58594,19l-1.29297,1.29297
	C9.90234,20.68359,9.90234,21.31641,10.29297,21.70703z"/>
</svg>
