<?xml version="1.0" encoding="utf-8"?>
<!-- Generator: Adobe Illustrator 19.1.0, SVG Export Plug-In . SVG Version: 6.00 Build 0)  -->
<!DOCTYPE svg PUBLIC "-//W3C//DTD SVG 1.1//EN" "http://www.w3.org/Graphics/SVG/1.1/DTD/svg11.dtd">
<svg version="1.1" id="Layer_1" xmlns="http://www.w3.org/2000/svg" xmlns:xlink="http://www.w3.org/1999/xlink" x="0px" y="0px"
	 width="32px" height="32px" viewBox="0 0 32 32" enable-background="new 0 0 32 32" xml:space="preserve">
<path d="M5.29297,12.70703C5.48828,12.90234,5.74414,13,6,13s0.51172-0.09766,0.70703-0.29297L9,10.41406l2.29297,2.29297
	C11.48828,12.90234,11.74414,13,12,13s0.51172-0.09766,0.70703-0.29297c0.39062-0.39062,0.39062-1.02344,0-1.41406L10.41406,9
	l2.29297-2.29297c0.39062-0.39062,0.39062-1.02344,0-1.41406s-1.02344-0.39062-1.41406,0L9,7.58594L6.70703,5.29297
	c-0.39062-0.39062-1.02344-0.39062-1.41406,0s-0.39062,1.02344,0,1.41406L7.58594,9l-2.29297,2.29297
	C4.90234,11.68359,4.90234,12.31641,5.29297,12.70703z"/>
<path d="M25.29297,19.29297L23,21.58594l-2.29297-2.29297c-0.39062-0.39062-1.02344-0.39062-1.41406,0s-0.39062,1.02344,0,1.41406
	L21.58594,23l-2.29297,2.29297c-0.39062,0.39062-0.39062,1.02344,0,1.41406C19.48828,26.90234,19.74414,27,20,27
	s0.51172-0.09766,0.70703-0.29297L23,24.41406l2.29297,2.29297C25.48828,26.90234,25.74414,27,26,27
	s0.51172-0.09766,0.70703-0.29297c0.39062-0.39062,0.39062-1.02344,0-1.41406L24.41406,23l2.29297-2.29297
	c0.39062-0.39062,0.39062-1.02344,0-1.41406S25.68359,18.90234,25.29297,19.29297z"/>
<path d="M9,28c2.75684,0,5-2.24316,5-5c0-1.01733-0.30902-1.9624-0.83301-2.75293L24,9.41406V13c0,0.55225,0.44727,1,1,1
	s1-0.44775,1-1V7c0-0.13013-0.02649-0.25977-0.07703-0.3819c-0.10132-0.24475-0.29614-0.43964-0.54089-0.54102
	C25.25989,6.02655,25.13019,6,25,6h-6c-0.55273,0-1,0.44775-1,1s0.44727,1,1,1h3.58594L11.75293,18.83301
	C10.9624,18.30902,10.01733,18,9,18c-2.75684,0-5,2.24316-5,5S6.24316,28,9,28z M9,20c1.6543,0,3,1.3457,3,3s-1.3457,3-3,3
	s-3-1.3457-3-3S7.3457,20,9,20z"/>
<path d="M31,0H1C0.44727,0,0,0.44775,0,1v30c0,0.55273,0.44727,1,1,1h30c0.55273,0,1-0.44727,1-1V1C32,0.44775,31.55273,0,31,0z
	 M30,30H2V2h28V30z"/>
</svg>
