<?xml version="1.0" encoding="utf-8"?>
<!-- Generator: Adobe Illustrator 19.1.0, SVG Export Plug-In . SVG Version: 6.00 Build 0)  -->
<!DOCTYPE svg PUBLIC "-//W3C//DTD SVG 1.1//EN" "http://www.w3.org/Graphics/SVG/1.1/DTD/svg11.dtd">
<svg version="1.1" id="Layer_1" xmlns="http://www.w3.org/2000/svg" xmlns:xlink="http://www.w3.org/1999/xlink" x="0px" y="0px"
	 width="32px" height="32px" viewBox="0 0 32 32" enable-background="new 0 0 32 32" xml:space="preserve">
<path d="M26.10645,1.65039c-1.16992-1.16992-3.07227-1.16992-4.24219,0L7.01465,16.5
	c-1.45166,1.45117-1.58594,3.16504-1.69434,4.54199c-0.06396,0.8125-0.11914,1.51465-0.42676,1.82227l-3.53564,3.53516
	c-0.77979,0.7793-0.77979,2.04883,0,2.82812l1.41406,1.41406c0.38965,0.38965,0.90186,0.58496,1.41406,0.58496
	c0.5127,0,1.0249-0.19531,1.41455-0.58496l3.53516-3.53516c0.30078-0.30078,0.98291-0.34863,1.77246-0.40527
	c1.30713-0.09375,3.09717-0.22168,4.5918-1.71582l3.73346-3.73346C20.151,22.31323,21.49036,23,23,23c2.75684,0,5-2.24316,5-5
	c0-1.5097-0.68683-2.849-1.74817-3.7666l4.09729-4.09766c1.16992-1.16992,1.16992-3.07227,0-4.24219L26.10645,1.65039z
	 M10.76562,24.70605c-1.08936,0.07812-2.21582,0.1582-3.04395,0.98633l-3.53564,3.53516l-1.41406-1.41406l3.53564-3.53516
	c0.82959-0.83008,0.91943-1.97363,1.00635-3.0791c0.06879-0.87585,0.13953-1.7146,0.52173-2.46411l5.43622,5.43622
	C12.50061,24.57874,11.65173,24.64313,10.76562,24.70605z M23,21c-1.6543,0-3-1.3457-3-3s1.3457-3,3-3s3,1.3457,3,3
	S24.6543,21,23,21z M28.93506,8.72168l-4.50989,4.51038C23.97052,13.09564,23.49847,13,23,13c-2.75684,0-5,2.24316-5,5
	c0,0.49847,0.09558,0.97052,0.23206,1.42517l-3.43909,3.43909l-5.65723-5.65723L23.27832,3.06445
	c0.38916-0.38867,1.02393-0.38867,1.41406,0l4.24268,4.24316C29.32471,7.69727,29.32471,8.33203,28.93506,8.72168z"/>
</svg>
