<?xml version="1.0" encoding="utf-8"?>
<!-- Generator: Adobe Illustrator 19.1.0, SVG Export Plug-In . SVG Version: 6.00 Build 0)  -->
<!DOCTYPE svg PUBLIC "-//W3C//DTD SVG 1.1//EN" "http://www.w3.org/Graphics/SVG/1.1/DTD/svg11.dtd">
<svg version="1.1" id="Layer_1" xmlns="http://www.w3.org/2000/svg" xmlns:xlink="http://www.w3.org/1999/xlink" x="0px" y="0px"
	 width="32px" height="32px" viewBox="0 0 32 32" enable-background="new 0 0 32 32" xml:space="preserve">
<path d="M17,17h3c0.55273,0,1-0.44775,1-1s-0.44727-1-1-1h-3c-0.55273,0-1,0.44775-1,1S16.44727,17,17,17z"/>
<path d="M17,21h3c0.55273,0,1-0.44775,1-1s-0.44727-1-1-1h-3c-0.55273,0-1,0.44775-1,1S16.44727,21,17,21z"/>
<path d="M17,25h3c0.55273,0,1-0.44775,1-1s-0.44727-1-1-1h-3c-0.55273,0-1,0.44775-1,1S16.44727,25,17,25z"/>
<path d="M4,11h2.09113l1.91376,20.09473C8.05371,31.60791,8.48438,32,9,32h14c0.51562,0,0.94629-0.39209,0.99512-0.90527
	L25.90887,11H28c0.55273,0,1-0.44775,1-1V6c0-0.55225-0.44727-1-1-1h-9V2c0.55273,0,1-0.44775,1-1s-0.44727-1-1-1h-6
	c-0.55273,0-1,0.44775-1,1s0.44727,1,1,1v3H4C3.44727,5,3,5.44775,3,6v4C3,10.55225,3.44727,11,4,11z M22.09082,30H9.90918
	L8.09937,11h15.80127L22.09082,30z M15,2h2v3h-2V2z M5,7h22v2H5V7z"/>
</svg>
