<?xml version="1.0" encoding="utf-8"?>
<!-- Generator: Adobe Illustrator 19.1.0, SVG Export Plug-In . SVG Version: 6.00 Build 0)  -->
<!DOCTYPE svg PUBLIC "-//W3C//DTD SVG 1.1//EN" "http://www.w3.org/Graphics/SVG/1.1/DTD/svg11.dtd">
<svg version="1.1" id="Layer_1" xmlns="http://www.w3.org/2000/svg" xmlns:xlink="http://www.w3.org/1999/xlink" x="0px" y="0px"
	 width="32px" height="32px" viewBox="0 0 32 32" enable-background="new 0 0 32 32" xml:space="preserve">
<path d="M17,6V2c0-0.55225-0.44775-1-1-1s-1,0.44775-1,1v4c0,0.55225,0.44775,1,1,1S17,6.55225,17,6z"/>
<path d="M22.36377,9.05029l2.82861-2.82861c0.39062-0.39062,0.39062-1.02344,0-1.41406s-1.02344-0.39062-1.41406,0l-2.82861,2.82861
	c-0.39062,0.39062-0.39062,1.02344,0,1.41406c0.19531,0.19531,0.45117,0.29297,0.70703,0.29297S22.16846,9.24561,22.36377,9.05029z"
	/>
<path d="M10.34326,9.34326c0.25586,0,0.51172-0.09766,0.70703-0.29297c0.39062-0.39062,0.39062-1.02344,0-1.41406L8.22168,4.80762
	c-0.39062-0.39062-1.02344-0.39062-1.41406,0s-0.39062,1.02344,0,1.41406l2.82861,2.82861
	C9.83154,9.24561,10.0874,9.34326,10.34326,9.34326z"/>
<path d="M0,22c0,4.96289,4.0376,9,9,9s9-4.03711,9-9c0-0.33008-0.02002-0.66406-0.05908-1H27
	c0.37891,0,0.7251-0.21387,0.89453-0.55273l3-6c0.15479-0.31006,0.13818-0.67822-0.04395-0.97314
	C30.66846,13.17969,30.34668,13,30,13H9C4.0376,13,0,17.03711,0,22z M9,15h19.38184l-2,4h-9.64404
	c-0.30908,0-0.60107,0.14258-0.79053,0.3877c-0.18945,0.24414-0.25488,0.5625-0.17773,0.86133C15.92236,20.84375,16,21.43262,16,22
	c0,3.85938-3.14014,7-7,7s-7-3.14062-7-7S5.14014,15,9,15z"/>
<path d="M9,26c2.20557,0,4-1.79395,4-4s-1.79443-4-4-4s-4,1.79395-4,4S6.79443,26,9,26z M9,20c1.10303,0,2,0.89746,2,2
	s-0.89697,2-2,2s-2-0.89746-2-2S7.89697,20,9,20z"/>
</svg>
