<?xml version="1.0" encoding="utf-8"?>
<!-- Generator: Adobe Illustrator 19.1.0, SVG Export Plug-In . SVG Version: 6.00 Build 0)  -->
<!DOCTYPE svg PUBLIC "-//W3C//DTD SVG 1.1//EN" "http://www.w3.org/Graphics/SVG/1.1/DTD/svg11.dtd">
<svg version="1.1" id="Layer_1" xmlns="http://www.w3.org/2000/svg" xmlns:xlink="http://www.w3.org/1999/xlink" x="0px" y="0px"
	 width="32px" height="32px" viewBox="0 0 32 32" enable-background="new 0 0 32 32" xml:space="preserve">
<path d="M31,18h-8V6c0-0.55225-0.44727-1-1-1H10C9.44727,5,9,5.44775,9,6v7H1c-0.55273,0-1,0.44775-1,1v12c0,0.55225,0.44727,1,1,1
	h9h12h9c0.55273,0,1-0.44775,1-1v-7C32,18.44775,31.55273,18,31,18z M2,15h7v10H2V15z M11,7h10v18H11V7z M30,25h-7v-5h7V25z"/>
</svg>
