<?xml version="1.0" encoding="utf-8"?>
<!-- Generator: Adobe Illustrator 19.1.0, SVG Export Plug-In . SVG Version: 6.00 Build 0)  -->
<!DOCTYPE svg PUBLIC "-//W3C//DTD SVG 1.1//EN" "http://www.w3.org/Graphics/SVG/1.1/DTD/svg11.dtd">
<svg version="1.1" id="Layer_1" xmlns="http://www.w3.org/2000/svg" xmlns:xlink="http://www.w3.org/1999/xlink" x="0px" y="0px"
	 width="32px" height="32px" viewBox="0 0 32 32" enable-background="new 0 0 32 32" xml:space="preserve">
<path d="M2,19v4.5C2,27.63574,5.36426,31,9.5,31c2.77905,0,5.20428-1.52277,6.5-3.77417C17.29572,29.47723,19.72095,31,22.5,31
	c4.13574,0,7.5-3.36426,7.5-7.5V19c0-0.36914-0.20312-0.70801-0.52832-0.88184c-0.32422-0.1748-0.71973-0.1543-1.02637,0.0498l-3,2
	c-0.45996,0.30664-0.58398,0.92676-0.27734,1.38672c0.30469,0.45898,0.9248,0.58301,1.38672,0.27734L28,20.86816V23.5
	c0,3.03223-2.46777,5.5-5.5,5.5S17,26.53223,17,23.5V8.85803C18.72052,8.41083,20,6.85834,20,5c0-2.20557-1.79395-4-4-4
	s-4,1.79443-4,4c0,1.85834,1.27948,3.41083,3,3.85803V23.5c0,3.03223-2.46777,5.5-5.5,5.5S4,26.53223,4,23.5v-2.63184
	l1.44531,0.96387c0.45996,0.30566,1.08105,0.18164,1.38672-0.27734c0.30664-0.45996,0.18262-1.08008-0.27734-1.38672l-3-2
	c-0.30566-0.2041-0.70215-0.22461-1.02637-0.0498C2.20312,18.29199,2,18.63086,2,19z M14,5c0-1.10303,0.89746-2,2-2s2,0.89697,2,2
	s-0.89746,2-2,2S14,6.10303,14,5z"/>
</svg>
