<?xml version="1.0" encoding="utf-8"?>
<!-- Generator: Adobe Illustrator 19.1.0, SVG Export Plug-In . SVG Version: 6.00 Build 0)  -->
<!DOCTYPE svg PUBLIC "-//W3C//DTD SVG 1.1//EN" "http://www.w3.org/Graphics/SVG/1.1/DTD/svg11.dtd">
<svg version="1.1" id="Layer_1" xmlns="http://www.w3.org/2000/svg" xmlns:xlink="http://www.w3.org/1999/xlink" x="0px" y="0px"
	 width="32px" height="32px" viewBox="0 0 32 32" enable-background="new 0 0 32 32" xml:space="preserve">
<path d="M29.82324,0.7627l-7.13165,7.13165c-1.38495-0.76532-3.16101-0.57727-4.33417,0.59589
	c-0.99658,0.99658-4.41931,7.11548-5.54474,9.14996l-9.14569,1.5766c-1.51074,0.26074-2.67188,1.34863-3.0293,2.83887
	c-0.3584,1.49023,0.18066,2.98633,1.40723,3.9043L4.3291,27.6709l1.71094,2.28418c0.73047,0.97559,1.82715,1.5166,2.99512,1.5166
	c0.2998,0,0.60449-0.03613,0.90918-0.10938c1.49023-0.35742,2.57812-1.51855,2.83887-3.0293l1.5766-9.14569
	c2.03448-1.12543,8.15338-4.54816,9.14996-5.54474c1.17407-1.17407,1.36218-2.94922,0.59607-4.33435l7.13147-7.13147
	c0.39062-0.39062,0.39062-1.02344,0-1.41406S30.21387,0.37207,29.82324,0.7627z M2.58203,22.52246
	c0.1709-0.71094,0.70312-1.20996,1.4248-1.33496l6.51416-1.12256l-5.57098,5.57098L3.24414,24.3584
	C2.6582,23.9209,2.41113,23.23438,2.58203,22.52246z M10.8125,27.99316c-0.125,0.72168-0.62402,1.25391-1.33496,1.4248
	S8.08008,29.3418,7.6416,28.75586l-1.27753-1.70587l5.57098-5.57098L10.8125,27.99316z M22.0957,12.22852
	c-0.46387,0.46387-3.24316,2.11914-6.03223,3.70801c1.58887-2.78906,3.24414-5.56836,3.70801-6.03223
	c0.31055-0.31055,0.72266-0.48145,1.16211-0.48145s0.85156,0.1709,1.16211,0.48145s0.48145,0.72266,0.48145,1.16211
	S22.40625,11.91797,22.0957,12.22852z"/>
</svg>
