<?xml version="1.0" encoding="utf-8"?>
<!-- Generator: Adobe Illustrator 19.1.0, SVG Export Plug-In . SVG Version: 6.00 Build 0)  -->
<!DOCTYPE svg PUBLIC "-//W3C//DTD SVG 1.1//EN" "http://www.w3.org/Graphics/SVG/1.1/DTD/svg11.dtd">
<svg version="1.1" id="Layer_1" xmlns="http://www.w3.org/2000/svg" xmlns:xlink="http://www.w3.org/1999/xlink" x="0px" y="0px"
	 width="32px" height="32px" viewBox="0 0 32 32" enable-background="new 0 0 32 32" xml:space="preserve">
<path d="M22,6c0-2.20605-1.79395-4-4-4s-4,1.79395-4,4s1.79395,4,4,4S22,8.20605,22,6z M16,6c0-1.10254,0.89746-2,2-2s2,0.89746,2,2
	s-0.89746,2-2,2S16,7.10254,16,6z"/>
<path d="M16.50684,22.46289c-0.14941,0.08691-0.54297,0.26172-0.99316,0.0127l-4.55078-2.5293
	c-1.2832-0.71191-2.88184-0.39844-3.7998,0.74805L4.21875,24.375c-0.34473,0.43164-0.27441,1.06055,0.15625,1.40625
	C4.55957,25.92871,4.78027,26,4.99902,26c0.29395,0,0.58398-0.12891,0.78223-0.375l2.94434-3.68066
	c0.30469-0.38281,0.83594-0.4873,1.2666-0.25l4.55078,2.5293c0.94043,0.52246,2.05371,0.50781,2.97852-0.03711
	C18.44727,23.6416,19,22.6748,19,21.60059V14h5c0.55176,0,1,0.44824,1,1v4c0,0.55273,0.44727,1,1,1s1-0.44727,1-1v-4
	c0-1.6543-1.3457-3-3-3H9c-0.55176,0-1-0.44824-1-1V8c0-0.55273-0.44727-1-1-1S6,7.44727,6,8v3c0,1.6543,1.3457,3,3,3h8v7.60059
	C17,22.11719,16.65527,22.37598,16.50684,22.46289z"/>
<path d="M10,27v4c0,0.55273,0.44727,1,1,1s1-0.44727,1-1v-4c0-0.55273-0.44727-1-1-1S10,26.44727,10,27z"/>
<path d="M12,7V1c0-0.55273-0.44727-1-1-1s-1,0.44727-1,1v6c0,0.55273,0.44727,1,1,1S12,7.55273,12,7z"/>
</svg>
