<?xml version="1.0" encoding="utf-8"?>
<!-- Generator: Adobe Illustrator 19.1.0, SVG Export Plug-In . SVG Version: 6.00 Build 0)  -->
<!DOCTYPE svg PUBLIC "-//W3C//DTD SVG 1.1//EN" "http://www.w3.org/Graphics/SVG/1.1/DTD/svg11.dtd">
<svg version="1.1" id="Layer_1" xmlns="http://www.w3.org/2000/svg" xmlns:xlink="http://www.w3.org/1999/xlink" x="0px" y="0px"
	 width="32px" height="32px" viewBox="0 0 32 32" enable-background="new 0 0 32 32" xml:space="preserve">
<path d="M16,2c-2.20605,0-4,1.79395-4,4s1.79395,4,4,4s4-1.79395,4-4S18.20605,2,16,2z M16,8c-1.10254,0-2-0.89746-2-2
	s0.89746-2,2-2s2,0.89746,2,2S17.10254,8,16,8z"/>
<path d="M22.85547,17.45508c0.33691,0.16797,0.69824,0.25,1.05762,0.25c0.6123,0,1.2168-0.23828,1.6709-0.69336l3.39551-3.39551
	c0.39062-0.39062,0.39062-1.02344,0-1.41406s-1.02344-0.39062-1.41406,0l-3.39551,3.39551
	c-0.11133,0.11035-0.2793,0.13965-0.41992,0.06836l-6.69434-3.34668c-0.32513-0.16278-0.68225-0.24371-1.0401-0.24591
	C16.01007,12.07336,16.00555,12.07031,16,12.07031c-0.00641,0-0.01172,0.00354-0.01813,0.00366
	c-0.35645,0.00287-0.71283,0.08325-1.03851,0.24536L8.25,15.66602c-0.14258,0.07129-0.30957,0.04199-0.41992-0.06836
	l-3.39551-3.39551c-0.39062-0.39062-1.02344-0.39062-1.41406,0s-0.39062,1.02344,0,1.41406l3.39551,3.39551
	c0.72168,0.72168,1.81836,0.89844,2.72852,0.44336L15,14.52692V24H7c-0.55273,0-1,0.44727-1,1s0.44727,1,1,1h18
	c0.55273,0,1-0.44727,1-1s-0.44727-1-1-1h-8v-9.47266L22.85547,17.45508z"/>
<path d="M31,28H1c-0.55273,0-1,0.44727-1,1s0.44727,1,1,1h30c0.55273,0,1-0.44727,1-1S31.55273,28,31,28z"/>
</svg>
