<?xml version="1.0" encoding="utf-8"?>
<!-- Generator: Adobe Illustrator 19.1.0, SVG Export Plug-In . SVG Version: 6.00 Build 0)  -->
<!DOCTYPE svg PUBLIC "-//W3C//DTD SVG 1.1//EN" "http://www.w3.org/Graphics/SVG/1.1/DTD/svg11.dtd">
<svg version="1.1" id="Layer_1" xmlns="http://www.w3.org/2000/svg" xmlns:xlink="http://www.w3.org/1999/xlink" x="0px" y="0px"
	 width="32px" height="32px" viewBox="0 0 32 32" enable-background="new 0 0 32 32" xml:space="preserve">
<path d="M23.93475,10.72559l1.00665-4.67773c0.31787-1.48438-0.04688-3.01172-1.00049-4.19141
	C22.98682,0.67676,21.56934,0,20.05225,0h-8.10449c-1.51709,0-2.93457,0.67676-3.88867,1.85645
	c-0.95361,1.17969-1.31836,2.70703-1,4.19141l1.00623,4.67767C4.99097,13.10529,3,16.82037,3,21
	c0,4.36328,2.17529,8.41309,5.81885,10.83301C8.98291,31.94238,9.17529,32,9.37207,32h13.25586
	c0.19678,0,0.38916-0.05762,0.55322-0.16699C26.82471,29.41309,29,25.36328,29,21C29,16.82043,27.00909,13.10541,23.93475,10.72559z
	 M9.01465,5.62793c-0.19092-0.88965,0.02783-1.80566,0.6001-2.51367S11.03711,2,11.94775,2h8.10449
	c0.91064,0,1.76074,0.40625,2.33301,1.11426s0.79102,1.62402,0.60059,2.51367l-0.8432,3.91986C20.31207,8.56195,18.22083,8,16,8
	c-2.22076,0-4.31201,0.56195-6.14252,1.54773L9.01465,5.62793z M22.31885,30H9.68115C6.74414,27.93555,5,24.59375,5,21
	c0-6.06543,4.93457-11,11-11s11,4.93457,11,11C27,24.59375,25.25586,27.93555,22.31885,30z"/>
<path d="M16,16c-2.75684,0-5,2.24316-5,5s2.24316,5,5,5s5-2.24316,5-5S18.75684,16,16,16z M16,24c-1.6543,0-3-1.3457-3-3
	s1.3457-3,3-3s3,1.3457,3,3S17.6543,24,16,24z"/>
</svg>
