<?xml version="1.0" encoding="utf-8"?>
<!-- Generator: Adobe Illustrator 19.1.0, SVG Export Plug-In . SVG Version: 6.00 Build 0)  -->
<!DOCTYPE svg PUBLIC "-//W3C//DTD SVG 1.1//EN" "http://www.w3.org/Graphics/SVG/1.1/DTD/svg11.dtd">
<svg version="1.1" id="Layer_1" xmlns="http://www.w3.org/2000/svg" xmlns:xlink="http://www.w3.org/1999/xlink" x="0px" y="0px"
	 width="48px" height="48px" viewBox="0 0 48 48" enable-background="new 0 0 48 48" xml:space="preserve">
<path d="M43.9,26.1l-7.4-2.9l-13.9-9.9C22.4,13.1,22.2,13,22,13h-2c-0.1,0-0.3,0-0.4,0.1c0,0-4.2,1.9-7.6,1.9s-7.5-1.9-7.6-1.9
	C4.3,13,4.1,13,4,13H2c-0.6,0-1,0.4-1,1v20c0,0.6,0.4,1,1,1h12c0.6,0,1-0.4,1-1v-2.7L27.7,35c0.1,0,0.2,0,0.3,0h18c0.6,0,1-0.4,1-1
	v-3.3C47,28.7,45.8,26.8,43.9,26.1z"/>
</svg>
