<?xml version="1.0" encoding="utf-8"?>
<!-- Generator: Adobe Illustrator 19.1.0, SVG Export Plug-In . SVG Version: 6.00 Build 0)  -->
<!DOCTYPE svg PUBLIC "-//W3C//DTD SVG 1.1//EN" "http://www.w3.org/Graphics/SVG/1.1/DTD/svg11.dtd">
<svg version="1.1" id="Layer_1" xmlns="http://www.w3.org/2000/svg" xmlns:xlink="http://www.w3.org/1999/xlink" x="0px" y="0px"
	 width="48px" height="48px" viewBox="0 0 48 48" enable-background="new 0 0 48 48" xml:space="preserve">
<path d="M46,13H35v-1c0-6.1-4.9-11-11-11S13,5.9,13,12v1H2c-0.6,0-1,0.4-1,1v24c0,5,4,9,9,9h28c5,0,9-4,9-9V14
	C47,13.4,46.6,13,46,13z M31,34c0,0.6-0.4,1-1,1H18c-0.6,0-1-0.4-1-1v-8c0-0.6,0.4-1,1-1h12c0.6,0,1,0.4,1,1V34z M33,13H15v-1
	c0-5,4-9,9-9s9,4,9,9V13z"/>
</svg>
