<?xml version="1.0" encoding="utf-8"?>
<!-- Generator: Adobe Illustrator 19.1.0, SVG Export Plug-In . SVG Version: 6.00 Build 0)  -->
<!DOCTYPE svg PUBLIC "-//W3C//DTD SVG 1.1//EN" "http://www.w3.org/Graphics/SVG/1.1/DTD/svg11.dtd">
<svg version="1.1" id="Layer_1" xmlns="http://www.w3.org/2000/svg" xmlns:xlink="http://www.w3.org/1999/xlink" x="0px" y="0px"
	 width="48px" height="48px" viewBox="0 0 48 48" enable-background="new 0 0 48 48" xml:space="preserve">
<path d="M42,45H6c-2.8,0-5-2.2-5-5c0-0.6,0.4-1,1-1s1,0.4,1,1c0,1.7,1.3,3,3,3h36c1.7,0,3-1.3,3-3c0-0.6,0.4-1,1-1s1,0.4,1,1
	C47,42.8,44.8,45,42,45z"/>
<rect x="9" y="33" width="30" height="8"/>
<path d="M39,31V4c0-0.6-0.4-1-1-1H10C9.4,3,9,3.4,9,4v27H39z"/>
</svg>
