<?xml version="1.0" encoding="utf-8"?>
<!-- Generator: Adobe Illustrator 19.1.0, SVG Export Plug-In . SVG Version: 6.00 Build 0)  -->
<!DOCTYPE svg PUBLIC "-//W3C//DTD SVG 1.1//EN" "http://www.w3.org/Graphics/SVG/1.1/DTD/svg11.dtd">
<svg version="1.1" id="Layer_1" xmlns="http://www.w3.org/2000/svg" xmlns:xlink="http://www.w3.org/1999/xlink" x="0px" y="0px"
	 width="48px" height="48px" viewBox="0 0 48 48" enable-background="new 0 0 48 48" xml:space="preserve">
<path d="M44.7,38.3l-4-4C40.5,34.1,40.3,34,40,34H2c-0.6,0-1,0.4-1,1v4c0,0.6,0.4,1,1,1h42c0.4,0,0.8-0.2,0.9-0.6
	C45.1,39,45,38.6,44.7,38.3z"/>
<path d="M40.9,32C40.4,23.1,33,16,24,16H3v-3c0-1.7,1.3-3,3-3h14c0.6,0,1-0.4,1-1s-0.4-1-1-1H6c-2.8,0-5,2.2-5,5v4v15H40.9z"/>
</svg>
