<?xml version="1.0" encoding="utf-8"?>
<!-- Generator: Adobe Illustrator 19.1.0, SVG Export Plug-In . SVG Version: 6.00 Build 0)  -->
<!DOCTYPE svg PUBLIC "-//W3C//DTD SVG 1.1//EN" "http://www.w3.org/Graphics/SVG/1.1/DTD/svg11.dtd">
<svg version="1.1" id="Layer_1" xmlns="http://www.w3.org/2000/svg" xmlns:xlink="http://www.w3.org/1999/xlink" x="0px" y="0px"
	 width="48px" height="48px" viewBox="0 0 48 48" enable-background="new 0 0 48 48" xml:space="preserve">
<rect x="19" y="5" width="10" height="7"/>
<path d="M38,5h-7v7h7c0.6,0,1-0.4,1-1V6C39,5.4,38.6,5,38,5z"/>
<path d="M17,5h-7C9.4,5,9,5.4,9,6v5c0,0.6,0.4,1,1,1h7V5z"/>
<path d="M39.2,14H8.8L3,41.8c-0.1,0.3,0,0.6,0.2,0.8C3.4,42.9,3.7,43,4,43h40c0,0,0,0,0,0c0.6,0,1-0.4,1-1c0-0.1,0-0.3-0.1-0.4
	L39.2,14z"/>
</svg>
