<?xml version="1.0" encoding="utf-8"?>
<!-- Generator: Adobe Illustrator 19.1.0, SVG Export Plug-In . SVG Version: 6.00 Build 0)  -->
<!DOCTYPE svg PUBLIC "-//W3C//DTD SVG 1.1//EN" "http://www.w3.org/Graphics/SVG/1.1/DTD/svg11.dtd">
<svg version="1.1" id="Layer_1" xmlns="http://www.w3.org/2000/svg" xmlns:xlink="http://www.w3.org/1999/xlink" x="0px" y="0px"
	 width="48px" height="48px" viewBox="0 0 48 48" enable-background="new 0 0 48 48" xml:space="preserve">
<path d="M46,9H2c-0.6,0-1,0.4-1,1v12c0,0.6,0.4,1,1,1h2c8.3,0,15,6.7,15,15c0,0.6,0.4,1,1,1h8c0.6,0,1-0.4,1-1c0-8.3,6.7-15,15-15h2
	c0.6,0,1-0.4,1-1V10C47,9.4,46.6,9,46,9z"/>
</svg>
