<?xml version="1.0" encoding="utf-8"?>
<!-- Generator: Adobe Illustrator 19.1.0, SVG Export Plug-In . SVG Version: 6.00 Build 0)  -->
<!DOCTYPE svg PUBLIC "-//W3C//DTD SVG 1.1//EN" "http://www.w3.org/Graphics/SVG/1.1/DTD/svg11.dtd">
<svg version="1.1" id="Layer_1" xmlns="http://www.w3.org/2000/svg" xmlns:xlink="http://www.w3.org/1999/xlink" x="0px" y="0px"
	 width="48px" height="48px" viewBox="0 0 48 48" enable-background="new 0 0 48 48" xml:space="preserve">
<path d="M5,22.5V41h38V22.5c-1.3,0.5-2.7,0.6-4,0.5V4c0-0.6-0.4-1-1-1H18c-0.6,0-1,0.4-1,1v7.3L11.3,17c-0.8,0.8-1.2,1.8-1.2,2.8
	c0,1,0.4,1.9,1,2.6c-1,0.4-2,0.6-3.1,0.6C7,23.1,6,22.9,5,22.5z M12.7,18.4l6-6c0.2-0.2,0.3-0.4,0.3-0.7V5h18v29.5
	c0,0.8-0.7,1.5-1.5,1.5S34,35.3,34,34.5V26c0-0.6-0.4-1-1-1s-1,0.4-1,1v8.5c0,0.8-0.7,1.5-1.5,1.5S29,35.3,29,34.5V26
	c0-0.6-0.4-1-1-1s-1,0.4-1,1v8.5c0,0.8-0.7,1.5-1.5,1.5S24,35.3,24,34.5V26c0-0.6-0.4-1-1-1s-1,0.4-1,1v8.5c0,0.8-0.7,1.5-1.5,1.5
	S19,35.3,19,34.5V20.2c0-0.4-0.2-0.8-0.6-0.9c-0.4-0.2-0.8-0.1-1.1,0.2l-1.8,1.8c-0.8,0.8-2.1,0.8-2.8,0c-0.4-0.4-0.6-0.9-0.6-1.4
	S12.3,18.8,12.7,18.4z"/>
<path d="M46,7c-0.6,0-1,0.4-1,1v35H3V8c0-0.6-0.4-1-1-1S1,7.4,1,8v36c0,0.6,0.4,1,1,1h44c0.6,0,1-0.4,1-1V8C47,7.4,46.6,7,46,7z"/>
</svg>
