<?xml version="1.0" encoding="utf-8"?>
<!-- Generator: Adobe Illustrator 19.1.0, SVG Export Plug-In . SVG Version: 6.00 Build 0)  -->
<!DOCTYPE svg PUBLIC "-//W3C//DTD SVG 1.1//EN" "http://www.w3.org/Graphics/SVG/1.1/DTD/svg11.dtd">
<svg version="1.1" id="Layer_1" xmlns="http://www.w3.org/2000/svg" xmlns:xlink="http://www.w3.org/1999/xlink" x="0px" y="0px"
	 width="48px" height="48px" viewBox="0 0 48 48" enable-background="new 0 0 48 48" xml:space="preserve">
<rect x="13" y="36" width="10" height="11"/>
<rect x="25" y="36" width="10" height="11"/>
<path d="M46,36h-9v11h9c0.6,0,1-0.4,1-1v-9C47,36.4,46.6,36,46,36z"/>
<path d="M11,36H2c-0.6,0-1,0.4-1,1v9c0,0.6,0.4,1,1,1h9V36z"/>
<path d="M24,5c1.7,0,3.4,0.2,5,0.6C28.8,3,26.6,1,24,1s-4.8,2-5,4.6C20.6,5.2,22.3,5,24,5z"/>
<path d="M43,34v-8c0-10.5-8.5-19-19-19S5,15.5,5,26v8H43z"/>
</svg>
