<?xml version="1.0" encoding="utf-8"?>
<!-- Generator: Adobe Illustrator 19.1.0, SVG Export Plug-In . SVG Version: 6.00 Build 0)  -->
<!DOCTYPE svg PUBLIC "-//W3C//DTD SVG 1.1//EN" "http://www.w3.org/Graphics/SVG/1.1/DTD/svg11.dtd">
<svg version="1.1" id="Layer_1" xmlns="http://www.w3.org/2000/svg" xmlns:xlink="http://www.w3.org/1999/xlink" x="0px" y="0px"
	 width="48px" height="48px" viewBox="0 0 48 48" enable-background="new 0 0 48 48" xml:space="preserve">
<path d="M26.1,11.1l4.7-5.5c0.3-0.3,0.3-0.8,0.1-1.2l-2-3C28.6,1.2,28.3,1,28,1h-8c-0.3,0-0.6,0.2-0.8,0.4l-2,3
	c-0.2,0.4-0.2,0.9,0.1,1.2l4.7,5.5C13,12.2,6,19.8,6,29c0,9.9,8.1,18,18,18s18-8.1,18-18C42,19.8,35,12.2,26.1,11.1z M24,43
	c-7.7,0-14-6.3-14-14s6.3-14,14-14s14,6.3,14,14S31.7,43,24,43z"/>
</svg>
