<?xml version="1.0" encoding="utf-8"?>
<!-- Generator: Adobe Illustrator 19.1.0, SVG Export Plug-In . SVG Version: 6.00 Build 0)  -->
<!DOCTYPE svg PUBLIC "-//W3C//DTD SVG 1.1//EN" "http://www.w3.org/Graphics/SVG/1.1/DTD/svg11.dtd">
<svg version="1.1" id="Layer_1" xmlns="http://www.w3.org/2000/svg" xmlns:xlink="http://www.w3.org/1999/xlink" x="0px" y="0px"
	 width="48px" height="48px" viewBox="0 0 48 48" enable-background="new 0 0 48 48" xml:space="preserve">
<path d="M19,24h10c6,0,11.3,3.3,14,8.3V22c0-6.8-5.3-12.4-12-12.9V8c0-3.9-3.1-7-7-7s-7,3.1-7,7v1.1C10.3,9.6,5,15.2,5,22v10.3
	C7.7,27.3,13,24,19,24z M19,8c0-2.8,2.2-5,5-5s5,2.2,5,5v1H19V8z"/>
<path d="M29,26H19c-7.7,0-14,6.3-14,14v6c0,0.6,0.4,1,1,1h36c0.6,0,1-0.4,1-1v-6C43,32.3,36.7,26,29,26z M31,40c0,0.6-0.4,1-1,1H18
	c-0.6,0-1-0.4-1-1v-6c0-0.6,0.4-1,1-1h12c0.6,0,1,0.4,1,1V40z"/>
</svg>
