<?xml version="1.0" encoding="utf-8"?>
<!-- Generator: Adobe Illustrator 19.1.0, SVG Export Plug-In . SVG Version: 6.00 Build 0)  -->
<!DOCTYPE svg PUBLIC "-//W3C//DTD SVG 1.1//EN" "http://www.w3.org/Graphics/SVG/1.1/DTD/svg11.dtd">
<svg version="1.1" id="Layer_1" xmlns="http://www.w3.org/2000/svg" xmlns:xlink="http://www.w3.org/1999/xlink" x="0px" y="0px"
	 width="48px" height="48px" viewBox="0 0 48 48" enable-background="new 0 0 48 48" xml:space="preserve">
<path d="M42,3H6C5.4,3,5,3.4,5,4v28c0,0.3,0.2,0.6,0.4,0.8l18,12c0.2,0.1,0.4,0.2,0.6,0.2s0.4-0.1,0.6-0.2l18-12
	c0.3-0.2,0.4-0.5,0.4-0.8V4C43,3.4,42.6,3,42,3z M12,11H9c-0.6,0-1-0.4-1-1s0.4-1,1-1h3c0.6,0,1,0.4,1,1S12.6,11,12,11z M21,11h-3
	c-0.6,0-1-0.4-1-1s0.4-1,1-1h3c0.6,0,1,0.4,1,1S21.6,11,21,11z M30,11h-3c-0.6,0-1-0.4-1-1s0.4-1,1-1h3c0.6,0,1,0.4,1,1
	S30.6,11,30,11z M39,11h-3c-0.6,0-1-0.4-1-1s0.4-1,1-1h3c0.6,0,1,0.4,1,1S39.6,11,39,11z"/>
</svg>
