<?xml version="1.0" encoding="utf-8"?>
<!-- Generator: Adobe Illustrator 19.1.0, SVG Export Plug-In . SVG Version: 6.00 Build 0)  -->
<!DOCTYPE svg PUBLIC "-//W3C//DTD SVG 1.1//EN" "http://www.w3.org/Graphics/SVG/1.1/DTD/svg11.dtd">
<svg version="1.1" id="Layer_1" xmlns="http://www.w3.org/2000/svg" xmlns:xlink="http://www.w3.org/1999/xlink" x="0px" y="0px"
	 width="48px" height="48px" viewBox="0 0 48 48" enable-background="new 0 0 48 48" xml:space="preserve">
<path d="M42,1c-0.6,0-1,0.4-1,1v3h-8V2c0-0.6-0.4-1-1-1s-1,0.4-1,1v3h-8V2c0-0.6-0.4-1-1-1s-1,0.4-1,1v4v11H10c-2.8,0-5,2.2-5,5v20
	v4c0,0.6,0.4,1,1,1s1-0.4,1-1v-3h8v3c0,0.6,0.4,1,1,1s1-0.4,1-1v-3h8v3c0,0.6,0.4,1,1,1s1-0.4,1-1v-4V29h11c2.8,0,5-2.2,5-5v-6V6V2
	C43,1.4,42.6,1,42,1z M27,22c0-1.7,1.3-3,3-3s3,1.3,3,3v2c0,1.1,0.4,2.2,1,3h-7V22z M41,24c0,1.7-1.3,3-3,3s-3-1.3-3-3v-2
	c0-2.8-2.2-5-5-5h-7V7h18v11V24z"/>
</svg>
