<?xml version="1.0" encoding="utf-8"?>
<!-- Generator: Adobe Illustrator 19.1.0, SVG Export Plug-In . SVG Version: 6.00 Build 0)  -->
<!DOCTYPE svg PUBLIC "-//W3C//DTD SVG 1.1//EN" "http://www.w3.org/Graphics/SVG/1.1/DTD/svg11.dtd">
<svg version="1.1" id="Layer_1" xmlns="http://www.w3.org/2000/svg" xmlns:xlink="http://www.w3.org/1999/xlink" x="0px" y="0px"
	 width="48px" height="48px" viewBox="0 0 48 48" enable-background="new 0 0 48 48" xml:space="preserve">
<circle cx="24" cy="22" r="2"/>
<circle cx="24" cy="29" r="3"/>
<path d="M3,42v4c0,0.6,0.4,1,1,1h40c0.6,0,1-0.4,1-1v-4H3z"/>
<path d="M45,40V18c0-0.2-0.1-0.5-0.2-0.7C41,13.1,39,7.7,39,2c0-0.6-0.4-1-1-1h-6c-0.6,0-1,0.4-1,1c0,3.9-3.1,7-7,7s-7-3.1-7-7
	c0-0.6-0.4-1-1-1h-6C9.4,1,9,1.4,9,2c0,5.7-2,11.1-5.8,15.3C3.1,17.5,3,17.8,3,18v22H45z M21.2,24.9C20.5,24.1,20,23.1,20,22
	c0-2.2,1.8-4,4-4s4,1.8,4,4c0,1.1-0.5,2.1-1.2,2.9c1.3,0.9,2.2,2.4,2.2,4.1c0,2.8-2.2,5-5,5s-5-2.2-5-5C19,27.3,19.9,25.8,21.2,24.9
	z"/>
</svg>
