<?xml version="1.0" encoding="utf-8"?>
<!-- Generator: Adobe Illustrator 19.1.0, SVG Export Plug-In . SVG Version: 6.00 Build 0)  -->
<!DOCTYPE svg PUBLIC "-//W3C//DTD SVG 1.1//EN" "http://www.w3.org/Graphics/SVG/1.1/DTD/svg11.dtd">
<svg version="1.1" id="Layer_1" xmlns="http://www.w3.org/2000/svg" xmlns:xlink="http://www.w3.org/1999/xlink" x="0px" y="0px"
	 width="48px" height="48px" viewBox="0 0 48 48" enable-background="new 0 0 48 48" xml:space="preserve">
<path d="M2,17c1.4,0,2.7,0.1,4,0.3V8c0-0.6-0.4-1-1-1H2C1.4,7,1,7.4,1,8v9.2C1.3,17.1,1.6,17,2,17z"/>
<path d="M46,17c0.4,0,0.7,0.1,1,0.2V8c0-0.6-0.4-1-1-1h-3c-0.6,0-1,0.4-1,1v9.3C43.3,17.1,44.6,17,46,17z"/>
<path d="M46,19c-12.6,0-19.7,8-22,11.2C21.7,27,14.6,19,2,19c-0.6,0-1,0.4-1,1v10c0,6.1,4.9,11,11,11h24c6.1,0,11-4.9,11-11V20
	C47,19.4,46.6,19,46,19z"/>
</svg>
