<?xml version="1.0" encoding="utf-8"?>
<!-- Generator: Adobe Illustrator 19.1.0, SVG Export Plug-In . SVG Version: 6.00 Build 0)  -->
<!DOCTYPE svg PUBLIC "-//W3C//DTD SVG 1.1//EN" "http://www.w3.org/Graphics/SVG/1.1/DTD/svg11.dtd">
<svg version="1.1" id="Layer_1" xmlns="http://www.w3.org/2000/svg" xmlns:xlink="http://www.w3.org/1999/xlink" x="0px" y="0px"
	 width="48px" height="48px" viewBox="0 0 48 48" enable-background="new 0 0 48 48" xml:space="preserve">
<path d="M46,7h-9V2c0-0.6-0.4-1-1-1H12c-0.6,0-1,0.4-1,1v5H2C1.4,7,1,7.4,1,8v38c0,0.6,0.4,1,1,1h21V14c0-0.6,0.4-1,1-1s1,0.4,1,1
	v33h21c0.6,0,1-0.4,1-1V8C47,7.4,46.6,7,46,7z M18,41h-1c-0.6,0-1-0.4-1-1s0.4-1,1-1h1c0.6,0,1,0.4,1,1S18.6,41,18,41z M18,34h-1
	c-0.6,0-1-0.4-1-1s0.4-1,1-1h1c0.6,0,1,0.4,1,1S18.6,34,18,34z M18,27h-1c-0.6,0-1-0.4-1-1s0.4-1,1-1h1c0.6,0,1,0.4,1,1
	S18.6,27,18,27z M13,16.3v-12l9.3,7.6l-7.8,5.2C13.9,17.5,13,17.1,13,16.3z M33.4,17.1l-7.8-5.2L35,4.3v12
	C35,17.1,34.1,17.5,33.4,17.1z"/>
</svg>
