<?xml version="1.0" encoding="utf-8"?>
<!-- Generator: Adobe Illustrator 19.1.0, SVG Export Plug-In . SVG Version: 6.00 Build 0)  -->
<!DOCTYPE svg PUBLIC "-//W3C//DTD SVG 1.1//EN" "http://www.w3.org/Graphics/SVG/1.1/DTD/svg11.dtd">
<svg version="1.1" id="Layer_1" xmlns="http://www.w3.org/2000/svg" xmlns:xlink="http://www.w3.org/1999/xlink" x="0px" y="0px"
	 width="48px" height="48px" viewBox="0 0 48 48" enable-background="new 0 0 48 48" xml:space="preserve">
<path fill="#231F20" d="M24,1C11.3,1,1,11.3,1,24c0,2.6,0.4,5,1.2,7.3c0,0,0,0.1,0,0.1C5.3,40.5,13.9,47,24,47
	c10.1,0,18.7-6.5,21.8-15.6c0,0,0-0.1,0-0.1C46.6,29,47,26.6,47,24C47,11.3,36.7,1,24,1z M24,45c-8.7,0-16.3-5.4-19.4-13H15v2
	c0,1.7,1.3,3,3,3h12c1.7,0,3-1.3,3-3v-2h10.4C40.3,39.6,32.7,45,24,45z M31,34c0,0.6-0.4,1-1,1H18c-0.6,0-1-0.4-1-1v-6
	c0-0.6,0.4-1,1-1h12c0.6,0,1,0.4,1,1V34z M44.1,30H33v-2c0-1.7-1.3-3-3-3H18c-1.7,0-3,1.3-3,3v2H3.9C3.3,28.1,3,26.1,3,24
	C3,12.4,12.4,3,24,3s21,9.4,21,21C45,26.1,44.7,28.1,44.1,30z"/>
<path fill="#231F20" d="M35,17h-6c-0.6,0-1,0.4-1,1s0.4,1,1,1h6c0.6,0,1-0.4,1-1S35.6,17,35,17z"/>
<path fill="#231F20" d="M19,17h-6c-0.6,0-1,0.4-1,1s0.4,1,1,1h6c0.6,0,1-0.4,1-1S19.6,17,19,17z"/>
</svg>
