<?xml version="1.0" encoding="utf-8"?>
<!-- Generator: Adobe Illustrator 19.1.0, SVG Export Plug-In . SVG Version: 6.00 Build 0)  -->
<!DOCTYPE svg PUBLIC "-//W3C//DTD SVG 1.1//EN" "http://www.w3.org/Graphics/SVG/1.1/DTD/svg11.dtd">
<svg version="1.1" id="Layer_1" xmlns="http://www.w3.org/2000/svg" xmlns:xlink="http://www.w3.org/1999/xlink" x="0px" y="0px"
	 width="48px" height="48px" viewBox="0 0 48 48" enable-background="new 0 0 48 48" xml:space="preserve">
<path fill="#231F20" d="M24,1C11.3,1,1,11.3,1,24s10.3,23,23,23s23-10.3,23-23S36.7,1,24,1z M24,45C12.4,45,3,35.6,3,24S12.4,3,24,3
	s21,9.4,21,21S35.6,45,24,45z"/>
<path fill="#231F20" d="M32,27H16c-0.6,0-1,0.4-1,1c0,5,4,9,9,9s9-4,9-9C33,27.4,32.6,27,32,27z M24,35c-3.5,0-6.4-2.6-6.9-6h13.9
	C30.4,32.4,27.5,35,24,35z"/>
<path fill="#231F20" d="M19,18c0-1.7-1.3-3-3-3s-3,1.3-3,3s1.3,3,3,3S19,19.7,19,18z M15,18c0-0.6,0.4-1,1-1s1,0.4,1,1s-0.4,1-1,1
	S15,18.6,15,18z"/>
<path fill="#231F20" d="M35,17h-6c-0.6,0-1,0.4-1,1s0.4,1,1,1h6c0.6,0,1-0.4,1-1S35.6,17,35,17z"/>
</svg>
