<?xml version="1.0" encoding="utf-8"?>
<!-- Generator: Adobe Illustrator 19.1.0, SVG Export Plug-In . SVG Version: 6.00 Build 0)  -->
<!DOCTYPE svg PUBLIC "-//W3C//DTD SVG 1.1//EN" "http://www.w3.org/Graphics/SVG/1.1/DTD/svg11.dtd">
<svg version="1.1" id="Layer_1" xmlns="http://www.w3.org/2000/svg" xmlns:xlink="http://www.w3.org/1999/xlink" x="0px" y="0px"
	 width="48px" height="48px" viewBox="0 0 48 48" enable-background="new 0 0 48 48" xml:space="preserve">
<path fill="#231F20" d="M24,47c12.7,0,23-10.3,23-23S36.7,1,24,1S1,11.3,1,24S11.3,47,24,47z M24,3c11.6,0,21,9.4,21,21
	s-9.4,21-21,21S3,35.6,3,24S12.4,3,24,3z"/>
<path fill="#231F20" d="M15,36c0,0.6,0.4,1,1,1h16c0.6,0,1-0.4,1-1c0-5-4-9-9-9S15,31,15,36z M24,29c3.5,0,6.4,2.6,6.9,6H17.1
	C17.6,31.6,20.5,29,24,29z"/>
<path fill="#231F20" d="M28,19h6c0.6,0,1-0.4,1-1s-0.4-1-1-1h-6c-0.6,0-1,0.4-1,1S27.4,19,28,19z"/>
<path fill="#231F20" d="M14,19h6c0.6,0,1-0.4,1-1s-0.4-1-1-1h-6c-0.6,0-1,0.4-1,1S13.4,19,14,19z"/>
</svg>
