<?xml version="1.0" encoding="utf-8"?>
<!-- Generator: Adobe Illustrator 19.1.0, SVG Export Plug-In . SVG Version: 6.00 Build 0)  -->
<!DOCTYPE svg PUBLIC "-//W3C//DTD SVG 1.1//EN" "http://www.w3.org/Graphics/SVG/1.1/DTD/svg11.dtd">
<svg version="1.1" id="Layer_1" xmlns="http://www.w3.org/2000/svg" xmlns:xlink="http://www.w3.org/1999/xlink" x="0px" y="0px"
	 width="48px" height="48px" viewBox="0 0 48 48" enable-background="new 0 0 48 48" xml:space="preserve">
<path fill="#231F20" d="M34,9h-3l0-5c0-0.3-0.2-0.7-0.5-0.9s-0.7-0.2-1,0L17.8,9H14C6.8,9,1,14.8,1,22v12c0,7.2,5.8,13,13,13h20
	c7.2,0,13-5.8,13-13V22C47,14.8,41.2,9,34,9z M45,34c0,6.1-4.9,11-11,11H14C7.9,45,3,40.1,3,34V22c0-6.1,4.9-11,11-11h4
	c0.2,0,0.3,0,0.4-0.1L29,5.6l0,4.4c0,0.3,0.1,0.5,0.3,0.7S29.7,11,30,11h4c6.1,0,11,4.9,11,11V34z"/>
<path fill="#231F20" d="M27,37h-6c-0.6,0-1,0.4-1,1s0.4,1,1,1h6c0.6,0,1-0.4,1-1S27.6,37,27,37z"/>
<path fill="#231F20" d="M17,20.2V18c0-0.6-0.4-1-1-1s-1,0.4-1,1v2.2c-1.2,0.4-2,1.5-2,2.8s0.8,2.4,2,2.8V28c0,0.6,0.4,1,1,1
	s1-0.4,1-1v-2.2c1.2-0.4,2-1.5,2-2.8S18.2,20.6,17,20.2z M16,24c-0.6,0-1-0.4-1-1s0.4-1,1-1s1,0.4,1,1S16.6,24,16,24z"/>
<path fill="#231F20" d="M32,20.2V18c0-0.6-0.4-1-1-1s-1,0.4-1,1v2.2c-1.2,0.4-2,1.5-2,2.8s0.8,2.4,2,2.8V28c0,0.6,0.4,1,1,1
	s1-0.4,1-1v-2.2c1.2-0.4,2-1.5,2-2.8S33.2,20.6,32,20.2z M31,24c-0.6,0-1-0.4-1-1s0.4-1,1-1s1,0.4,1,1S31.6,24,31,24z"/>
</svg>
