<?xml version="1.0" encoding="utf-8"?>
<!-- Generator: Adobe Illustrator 19.1.0, SVG Export Plug-In . SVG Version: 6.00 Build 0)  -->
<!DOCTYPE svg PUBLIC "-//W3C//DTD SVG 1.1//EN" "http://www.w3.org/Graphics/SVG/1.1/DTD/svg11.dtd">
<svg version="1.1" id="Layer_1" xmlns="http://www.w3.org/2000/svg" xmlns:xlink="http://www.w3.org/1999/xlink" x="0px" y="0px"
	 width="48px" height="48px" viewBox="0 0 48 48" enable-background="new 0 0 48 48" xml:space="preserve">
<path fill="#231F20" d="M24,1C11.3,1,1,11.3,1,24s10.3,23,23,23s23-10.3,23-23S36.7,1,24,1z M24,45C12.4,45,3,35.6,3,24S12.4,3,24,3
	s21,9.4,21,21S35.6,45,24,45z"/>
<path fill="#231F20" d="M19,18c0-1.7-1.3-3-3-3s-3,1.3-3,3s1.3,3,3,3S19,19.7,19,18z M15,18c0-0.6,0.4-1,1-1s1,0.4,1,1s-0.4,1-1,1
	S15,18.6,15,18z"/>
<path fill="#231F20" d="M32,15c-1.7,0-3,1.3-3,3s1.3,3,3,3s3-1.3,3-3S33.7,15,32,15z M32,19c-0.6,0-1-0.4-1-1s0.4-1,1-1s1,0.4,1,1
	S32.6,19,32,19z"/>
<path fill="#231F20" d="M31.8,29l-16,4c-0.5,0.1-0.9,0.7-0.7,1.2c0.1,0.5,0.5,0.8,1,0.8c0.1,0,0.2,0,0.2,0l16-4
	c0.5-0.1,0.9-0.7,0.7-1.2C32.8,29.2,32.3,28.9,31.8,29z"/>
</svg>
