<?xml version="1.0" encoding="utf-8"?>
<!-- Generator: Adobe Illustrator 19.1.0, SVG Export Plug-In . SVG Version: 6.00 Build 0)  -->
<!DOCTYPE svg PUBLIC "-//W3C//DTD SVG 1.1//EN" "http://www.w3.org/Graphics/SVG/1.1/DTD/svg11.dtd">
<svg version="1.1" id="Layer_1" xmlns="http://www.w3.org/2000/svg" xmlns:xlink="http://www.w3.org/1999/xlink" x="0px" y="0px"
	 width="48px" height="48px" viewBox="0 0 48 48" enable-background="new 0 0 48 48" xml:space="preserve">
<path fill="#231F20" d="M24,1C11.3,1,1,11.3,1,24s10.3,23,23,23s23-10.3,23-23S36.7,1,24,1z M24,45C12.4,45,3,35.6,3,24S12.4,3,24,3
	s21,9.4,21,21S35.6,45,24,45z"/>
<path fill="#231F20" d="M24,29c-3.2,0-6.2,1.7-7.8,4.5c-0.3,0.5-0.1,1.1,0.4,1.4c0.5,0.3,1.1,0.1,1.4-0.4c1.2-2.2,3.6-3.5,6.1-3.5
	c2.5,0,4.8,1.3,6.1,3.5c0.2,0.3,0.5,0.5,0.9,0.5c0.2,0,0.3,0,0.5-0.1c0.5-0.3,0.6-0.9,0.4-1.4C30.2,30.7,27.2,29,24,29z"/>
<path fill="#231F20" d="M19,16c0-1.7-1.3-3-3-3s-3,1.3-3,3s1.3,3,3,3S19,17.7,19,16z M16,17c-0.6,0-1-0.4-1-1s0.4-1,1-1s1,0.4,1,1
	S16.6,17,16,17z"/>
<path fill="#231F20" d="M32,13c-1.7,0-3,1.3-3,3s1.3,3,3,3s3-1.3,3-3S33.7,13,32,13z M32,17c-0.6,0-1-0.4-1-1s0.4-1,1-1s1,0.4,1,1
	S32.6,17,32,17z"/>
<path fill="#231F20" d="M31.2,21.4C30.5,22.4,29,24.7,29,26c0,1.7,1.3,3,3,3s3-1.3,3-3c0-1.3-1.5-3.6-2.2-4.6
	C32.4,20.9,31.6,20.9,31.2,21.4z M32,27c-0.6,0-1-0.4-1-1c0-0.3,0.4-1.2,1-2.1c0.6,1,1,1.8,1,2.1C33,26.6,32.6,27,32,27z"/>
</svg>
