<?xml version="1.0" encoding="utf-8"?>
<!-- Generator: Adobe Illustrator 19.1.0, SVG Export Plug-In . SVG Version: 6.00 Build 0)  -->
<!DOCTYPE svg PUBLIC "-//W3C//DTD SVG 1.1//EN" "http://www.w3.org/Graphics/SVG/1.1/DTD/svg11.dtd">
<svg version="1.1" id="Layer_1" xmlns="http://www.w3.org/2000/svg" xmlns:xlink="http://www.w3.org/1999/xlink" x="0px" y="0px"
	 width="48px" height="48px" viewBox="0 0 48 48" enable-background="new 0 0 48 48" xml:space="preserve">
<path fill="#231F20" d="M24,1C11.3,1,1,11.3,1,24s10.3,23,23,23s23-10.3,23-23S36.7,1,24,1z M24,45C12.4,45,3,35.6,3,24S12.4,3,24,3
	s21,9.4,21,21S35.6,45,24,45z"/>
<path fill="#231F20" d="M21,20c0-0.6-0.4-1-1-1s-1,0.4-1,1c0,2.8-2.2,5-5,5s-5-2.2-5-5c0-0.6-0.4-1-1-1s-1,0.4-1,1c0,3.9,3.1,7,7,7
	S21,23.9,21,20z"/>
<path fill="#231F20" d="M34,25c-2.8,0-5-2.2-5-5c0-0.6-0.4-1-1-1s-1,0.4-1,1c0,3.9,3.1,7,7,7s7-3.1,7-7c0-0.6-0.4-1-1-1s-1,0.4-1,1
	C39,22.8,36.8,25,34,25z"/>
<path fill="#231F20" d="M29,33H19c-0.6,0-1,0.4-1,1s0.4,1,1,1h10c0.6,0,1-0.4,1-1S29.6,33,29,33z"/>
</svg>
