<?xml version="1.0" encoding="utf-8"?>
<!-- Generator: Adobe Illustrator 19.1.0, SVG Export Plug-In . SVG Version: 6.00 Build 0)  -->
<!DOCTYPE svg PUBLIC "-//W3C//DTD SVG 1.1//EN" "http://www.w3.org/Graphics/SVG/1.1/DTD/svg11.dtd">
<svg version="1.1" id="Layer_1" xmlns="http://www.w3.org/2000/svg" xmlns:xlink="http://www.w3.org/1999/xlink" x="0px" y="0px"
	 width="48px" height="48px" viewBox="0 0 48 48" enable-background="new 0 0 48 48" xml:space="preserve">
<path fill="#231F20" d="M22,47h22c0.6,0,1-0.4,1-1V30c0-11.3-8.9-20.5-20.1-21c-0.5-4.5-4.3-8-8.9-8c-4.9,0-8.8,3.9-9,8.7l-3.8,5.8
	c-0.2,0.3-0.2,0.7,0,1S3.6,17,4,17h9v21C13,43,17,47,22,47z M5.9,15l3-4.4C8.9,10.4,9,10.2,9,10c0-3.9,3.1-7,7-7s7,3.1,7,7
	c0,0.6,0.4,1,1,1c10.5,0,19,8.5,19,19v15H22c-3.9,0-7-3.1-7-7V16c0-0.6-0.4-1-1-1H5.9z"/>
<path fill="#231F20" d="M29.2,34.6c0.2,0.2,0.5,0.4,0.8,0.4s0.6-0.1,0.8-0.4l5-6c0.4-0.4,0.3-1.1-0.1-1.4c-0.4-0.4-1.1-0.3-1.4,0.1
	L30,32.4l-4.2-5.1c-0.4-0.4-1-0.5-1.4-0.1c-0.4,0.4-0.5,1-0.1,1.4L29.2,34.6z"/>
<circle fill="#231F20" cx="15" cy="8" r="2"/>
</svg>
