<?xml version="1.0" encoding="utf-8"?>
<!-- Generator: Adobe Illustrator 19.1.0, SVG Export Plug-In . SVG Version: 6.00 Build 0)  -->
<!DOCTYPE svg PUBLIC "-//W3C//DTD SVG 1.1//EN" "http://www.w3.org/Graphics/SVG/1.1/DTD/svg11.dtd">
<svg version="1.1" id="Layer_1" xmlns="http://www.w3.org/2000/svg" xmlns:xlink="http://www.w3.org/1999/xlink" x="0px" y="0px"
	 width="48px" height="48px" viewBox="0 0 48 48" enable-background="new 0 0 48 48" xml:space="preserve">
<path fill="#231F20" d="M24,1C11.3,1,1,11.3,1,24s10.3,23,23,23s23-10.3,23-23S36.7,1,24,1z M24,45C12.4,45,3,35.6,3,24S12.4,3,24,3
	s21,9.4,21,21S35.6,45,24,45z"/>
<path fill="#231F20" d="M32,13c-2.8,0-5,2.2-5,5c0,0.6,0.4,1,1,1s1-0.4,1-1c0-1.7,1.3-3,3-3s3,1.3,3,3c0,0.6,0.4,1,1,1s1-0.4,1-1
	C37,15.2,34.8,13,32,13z"/>
<path fill="#231F20" d="M19,18c0,0.6,0.4,1,1,1s1-0.4,1-1c0-2.8-2.2-5-5-5s-5,2.2-5,5c0,0.6,0.4,1,1,1s1-0.4,1-1c0-1.7,1.3-3,3-3
	S19,16.3,19,18z"/>
<path fill="#231F20" d="M31.3,29.3l-0.6,0.6c-2,2-4.6,3.1-7.5,3.1H16c-0.6,0-1,0.4-1,1s0.4,1,1,1h7.2c3.4,0,6.5-1.3,8.9-3.7l0.6-0.6
	c0.4-0.4,0.4-1,0-1.4S31.7,28.9,31.3,29.3z"/>
</svg>
