<?xml version="1.0" encoding="utf-8"?>
<!-- Generator: Adobe Illustrator 19.1.0, SVG Export Plug-In . SVG Version: 6.00 Build 0)  -->
<!DOCTYPE svg PUBLIC "-//W3C//DTD SVG 1.1//EN" "http://www.w3.org/Graphics/SVG/1.1/DTD/svg11.dtd">
<svg version="1.1" id="Layer_1" xmlns="http://www.w3.org/2000/svg" xmlns:xlink="http://www.w3.org/1999/xlink" x="0px" y="0px"
	 width="48px" height="48px" viewBox="0 0 48 48" enable-background="new 0 0 48 48" xml:space="preserve">
<path fill="#231F20" d="M16,13c-2.8,0-5,2.2-5,5c0,2.5,1.9,4.6,4.4,4.9c0.2,0,0.4,0.1,0.6,0.1s0.4,0,0.6-0.1
	c2.5-0.3,4.4-2.4,4.4-4.9C21,15.2,18.8,13,16,13z M15,20c0-0.6,0.4-1,1-1s1,0.4,1,1s-0.4,1-1,1S15,20.6,15,20z M18.8,19
	c-0.4-1.2-1.5-2-2.8-2s-2.4,0.8-2.8,2c-0.1-0.3-0.2-0.6-0.2-1c0-1.7,1.3-3,3-3s3,1.3,3,3C19,18.4,18.9,18.7,18.8,19z"/>
<path fill="#231F20" d="M32,13c-2.8,0-5,2.2-5,5c0,2.5,1.9,4.6,4.4,4.9c0.2,0,0.4,0.1,0.6,0.1s0.4,0,0.6-0.1
	c2.5-0.3,4.4-2.4,4.4-4.9C37,15.2,34.8,13,32,13z M31,20c0-0.6,0.4-1,1-1s1,0.4,1,1s-0.4,1-1,1S31,20.6,31,20z M34.8,19
	c-0.4-1.2-1.5-2-2.8-2s-2.4,0.8-2.8,2c-0.1-0.3-0.2-0.6-0.2-1c0-1.7,1.3-3,3-3s3,1.3,3,3C35,18.4,34.9,18.7,34.8,19z"/>
<path fill="#231F20" d="M24,1C11.3,1,1,11.3,1,24v14c0,5,4,9,9,9h28c5,0,9-4,9-9V24C47,11.3,36.7,1,24,1z M17,45h-6V34
	c0-1.7,1.3-3,3-3s3,1.3,3,3V45z M37,45h-6V34c0-1.7,1.3-3,3-3s3,1.3,3,3V45z M45,38c0,3.5-2.6,6.4-6,6.9V34c0-2.8-2.2-5-5-5
	s-5,2.2-5,5v11H19V34c0-2.8-2.2-5-5-5s-5,2.2-5,5v10.9c-3.4-0.5-6-3.4-6-6.9V24C3,12.4,12.4,3,24,3s21,9.4,21,21V38z"/>
</svg>
