<?xml version="1.0" encoding="utf-8"?>
<!-- Generator: Adobe Illustrator 19.1.0, SVG Export Plug-In . SVG Version: 6.00 Build 0)  -->
<!DOCTYPE svg PUBLIC "-//W3C//DTD SVG 1.1//EN" "http://www.w3.org/Graphics/SVG/1.1/DTD/svg11.dtd">
<svg version="1.1" id="Layer_1" xmlns="http://www.w3.org/2000/svg" xmlns:xlink="http://www.w3.org/1999/xlink" x="0px" y="0px"
	 width="48px" height="48px" viewBox="0 0 48 48" enable-background="new 0 0 48 48" xml:space="preserve">
<path fill="#231F20" d="M46,13h-7V7h4c0.6,0,1-0.4,1-1V2c0-0.6-0.4-1-1-1H33c-0.6,0-1,0.4-1,1v4c0,0.6,0.4,1,1,1h4v6H11V7h4
	c0.6,0,1-0.4,1-1V2c0-0.6-0.4-1-1-1H5C4.4,1,4,1.4,4,2v4c0,0.6,0.4,1,1,1h4v6H2c-0.6,0-1,0.4-1,1v32c0,0.6,0.4,1,1,1h44
	c0.6,0,1-0.4,1-1V14C47,13.4,46.6,13,46,13z M34,3h8v2h-8V3z M6,3h8v2H6V3z M45,45H3V15h42V45z"/>
<path fill="#231F20" d="M10,27c-0.6,0-1,0.4-1,1v12c0,0.6,0.4,1,1,1h28c0.6,0,1-0.4,1-1V28c0-0.6-0.4-1-1-1H10z M37,33h-7v-4h7V33z
	 M20,33v-4h8v4H20z M28,35v4h-8v-4H28z M18,29v4h-7v-4H18z M11,35h7v4h-7V35z M30,39v-4h7v4H30z"/>
<path fill="#231F20" d="M12,23h5c0.6,0,1-0.4,1-1s-0.4-1-1-1h-5c-0.6,0-1,0.4-1,1S11.4,23,12,23z"/>
<path fill="#231F20" d="M31,23h5c0.6,0,1-0.4,1-1s-0.4-1-1-1h-5c-0.6,0-1,0.4-1,1S30.4,23,31,23z"/>
</svg>
