<?xml version="1.0" encoding="utf-8"?>
<!-- Generator: Adobe Illustrator 19.1.0, SVG Export Plug-In . SVG Version: 6.00 Build 0)  -->
<!DOCTYPE svg PUBLIC "-//W3C//DTD SVG 1.1//EN" "http://www.w3.org/Graphics/SVG/1.1/DTD/svg11.dtd">
<svg version="1.1" id="Layer_1" xmlns="http://www.w3.org/2000/svg" xmlns:xlink="http://www.w3.org/1999/xlink" x="0px" y="0px"
	 width="16px" height="16px" viewBox="0 0 16 16" enable-background="new 0 0 16 16" xml:space="preserve">
<path fill="#444444" d="M13,0h-1c-0.6,0-1,0.4-1,1s0.4,1,1,1h1c0.6,0,1,0.4,1,1v5.6C13.4,8.2,12.7,8,12,8c-1.1,0-2.2,0.5-2.9,1.2
	C8.4,9,7.6,9,6.9,9.2C6.2,8.5,5.1,8,4,8C3.3,8,2.6,8.2,2,8.6V3c0-0.6,0.4-1,1-1h1c0.6,0,1-0.4,1-1S4.6,0,4,0H3C1.3,0,0,1.3,0,3v9
	c0,2.2,1.8,4,4,4s4-1.8,4-4c0,2.2,1.8,4,4,4s4-1.8,4-4V3C16,1.3,14.7,0,13,0z M4,14c-1.1,0-2-0.9-2-2s0.9-2,2-2s2,0.9,2,2
	S5.1,14,4,14z M12,14c-1.1,0-2-0.9-2-2s0.9-2,2-2s2,0.9,2,2S13.1,14,12,14z"/>
</svg>
