<?xml version="1.0" encoding="utf-8"?>
<!-- Generator: Adobe Illustrator 20.0.0, SVG Export Plug-In . SVG Version: 6.00 Build 0)  -->
<!DOCTYPE svg PUBLIC "-//W3C//DTD SVG 1.1//EN" "http://www.w3.org/Graphics/SVG/1.1/DTD/svg11.dtd">
<svg version="1.1" id="Layer_1" xmlns="http://www.w3.org/2000/svg" xmlns:xlink="http://www.w3.org/1999/xlink" x="0px" y="0px"
	 width="32px" height="32px" viewBox="0 0 32 32" enable-background="new 0 0 32 32" xml:space="preserve">
<polygon points="4,4 4,6 4,16 4,18 4,22 31,22 31,20 6,20 6,18 25.781,18 29.281,4 19,4 19,6 26.719,6 24.219,16 6,16 6,6 13,6 
	13,4 6,4 6,0 0,0 0,2 4,2 "/>
<path d="M7,24c-2.206,0-4,1.794-4,4s1.794,4,4,4s4-1.794,4-4S9.206,24,7,24z M7,30c-1.103,0-2-0.897-2-2s0.897-2,2-2s2,0.897,2,2
	S8.103,30,7,30z"/>
<path d="M28,24c-2.206,0-4,1.794-4,4s1.794,4,4,4s4-1.794,4-4S30.206,24,28,24z M28,30c-1.103,0-2-0.897-2-2s0.897-2,2-2
	s2,0.897,2,2S29.103,30,28,30z"/>
<polygon points="12,7.586 10.586,9 16,14.414 21.414,9 20,7.586 17,10.586 17,1 15,1 15,10.586 "/>
</svg>
