<?xml version="1.0" encoding="utf-8"?>
<!-- Generator: Adobe Illustrator 20.0.0, SVG Export Plug-In . SVG Version: 6.00 Build 0)  -->
<!DOCTYPE svg PUBLIC "-//W3C//DTD SVG 1.1//EN" "http://www.w3.org/Graphics/SVG/1.1/DTD/svg11.dtd">
<svg version="1.1" id="Layer_1" xmlns="http://www.w3.org/2000/svg" xmlns:xlink="http://www.w3.org/1999/xlink" x="0px" y="0px"
	 width="32px" height="32px" viewBox="0 0 32 32" enable-background="new 0 0 32 32" xml:space="preserve">
<path d="M27,0H5v10.424l-5,2.901V32h32V13.324l-5-2.901V0z M17.643,22.235L30,15.575v13.704L17.643,22.235z M25,2v13.998
	l-9.406,5.069L7,16.169V2H25z M5,15.029l-1.993-1.136L5,12.736V15.029z M2,15.622L27.226,30H2V15.622z M28.952,13.869L27,14.921
	v-2.184L28.952,13.869z"/>
<rect x="10" y="6" width="12" height="2"/>
<rect x="10" y="11" width="12" height="2"/>
</svg>
