<?xml version="1.0" encoding="utf-8"?>
<!-- Generator: Adobe Illustrator 20.0.0, SVG Export Plug-In . SVG Version: 6.00 Build 0)  -->
<!DOCTYPE svg PUBLIC "-//W3C//DTD SVG 1.1//EN" "http://www.w3.org/Graphics/SVG/1.1/DTD/svg11.dtd">
<svg version="1.1" id="Layer_1" xmlns="http://www.w3.org/2000/svg" xmlns:xlink="http://www.w3.org/1999/xlink" x="0px" y="0px"
	 width="32px" height="32px" viewBox="0 0 32 32" enable-background="new 0 0 32 32" xml:space="preserve">
<path d="M31.414,18l-18-18H4.586L0,4.586v8.828l18,18L31.414,18z M2,5.414L5.414,2h7.172l16,16L18,28.586l-16-16V5.414z"/>
<path d="M9,6C7.346,6,6,7.346,6,9s1.346,3,3,3s3-1.346,3-3S10.654,6,9,6z M9,10c-0.552,0-1-0.449-1-1s0.448-1,1-1s1,0.449,1,1
	S9.552,10,9,10z"/>
</svg>
