<?xml version="1.0" encoding="utf-8"?>
<!-- Generator: Adobe Illustrator 20.0.0, SVG Export Plug-In . SVG Version: 6.00 Build 0)  -->
<!DOCTYPE svg PUBLIC "-//W3C//DTD SVG 1.1//EN" "http://www.w3.org/Graphics/SVG/1.1/DTD/svg11.dtd">
<svg version="1.1" id="layer" xmlns="http://www.w3.org/2000/svg" xmlns:xlink="http://www.w3.org/1999/xlink" x="0px" y="0px"
	 width="32px" height="32px" viewBox="0 0 32 32" enable-background="new 0 0 32 32" xml:space="preserve">
<path fill="#1D1D1B" d="M3.845,18.31c0.224,0.071,0.446,0.16,0.67,0.265l0.501-1.287c-0.596-0.284-1.221-0.426-1.875-0.426
	c-0.599,0-1.119,0.127-1.562,0.383c-0.973,0.559-1.372,1.619-1.372,2.746c0,2.087,1.08,3.092,2.831,3.092
	c0.638,0,1.209-0.111,1.714-0.335v-1.383c-0.499,0.205-0.999,0.381-1.536,0.381c-0.886,0-1.328-0.582-1.328-1.747
	c0-0.56,0.108-0.999,0.327-1.318C2.583,18.14,3.219,18.11,3.845,18.31z"/>
<polygon fill="#1D1D1B" points="5.846,16.947 5.846,23 9.811,23 9.811,21.68 7.48,21.68 7.48,16.947 "/>
<path fill="#1D1D1B" d="M15.608,22.287c0.5-0.529,0.749-1.304,0.749-2.322c0-1.021-0.248-1.795-0.745-2.322
	c-0.496-0.526-1.227-0.79-2.189-0.79c-0.96,0-1.692,0.266-2.196,0.797c-0.503,0.531-0.755,1.3-0.755,2.308
	c0,1.019,0.253,1.794,0.76,2.326c0.506,0.533,1.233,0.799,2.184,0.799C14.378,23.082,15.109,22.817,15.608,22.287z M12.193,19.965
	c0-1.181,0.41-1.771,1.229-1.771c0.958,0,1.213,0.809,1.213,1.771c0,0.976-0.249,1.756-1.221,1.756
	C12.601,21.721,12.193,21.135,12.193,19.965z"/>
<path fill="#1D1D1B" d="M18.058,21.619c-0.337-0.09-0.661-0.215-0.974-0.375v1.457c0.296,0.141,0.58,0.24,0.854,0.297
	c0.633,0.132,1.607,0.145,2.276-0.158c0.746-0.336,1.109-0.958,1.109-1.678c0-0.949-0.525-1.382-1.391-1.771
	c-0.354-0.162-1.185-0.463-1.185-0.832c0-0.189,0.144-0.39,0.609-0.39c0.411,0,0.899,0.13,1.465,0.39l0.501-1.264
	c-0.651-0.289-1.29-0.434-1.917-0.434c-1.242,0-2.28,0.524-2.28,1.771c0,1.021,0.546,1.455,1.47,1.875
	c0.436,0.195,0.704,0.325,0.805,0.389c0.165,0.106,0.288,0.214,0.288,0.406C19.688,21.913,18.65,21.777,18.058,21.619z"/>
<polygon fill="#1D1D1B" points="25.767,18.26 25.767,16.947 22.174,16.947 22.174,23 25.767,23 25.767,21.666 23.809,21.666 
	23.809,20.523 25.622,20.523 25.622,19.212 23.809,19.212 23.809,18.26 "/>
<path fill="#1D1D1B" d="M31.879,19.846c0-0.938-0.265-1.656-0.793-2.152c-0.528-0.497-1.278-0.746-2.249-0.746h-2.095V23H28.7
	c1.007,0,1.788-0.273,2.345-0.82C31.601,21.633,31.879,20.855,31.879,19.846z M28.741,21.658h-0.364v-3.391h0.476
	c0.994,0,1.329,0.658,1.329,1.636C30.182,20.974,29.825,21.658,28.741,21.658z"/>
<path fill="#1D1D1B" d="M18.907,3.706C18.963,3.478,19,3.244,19,3c0-1.654-1.346-3-3-3s-3,1.346-3,3
	c0,0.244,0.037,0.478,0.093,0.706L6.696,8H0v6h2v-4h28v4h2V8h-6.696L18.907,3.706z M16,2c0.551,0,1,0.448,1,1s-0.449,1-1,1
	s-1-0.448-1-1S15.449,2,16,2z M14.191,5.377C14.695,5.762,15.318,6,16,6s1.305-0.238,1.809-0.623L21.717,8H10.283L14.191,5.377z"/>
<polygon fill="#1D1D1B" points="30,30 2,30 2,25 0,25 0,32 32,32 32,25 30,25 "/>
</svg>
