<?xml version="1.0" encoding="utf-8"?>
<!-- Generator: Adobe Illustrator 20.0.0, SVG Export Plug-In . SVG Version: 6.00 Build 0)  -->
<!DOCTYPE svg PUBLIC "-//W3C//DTD SVG 1.1//EN" "http://www.w3.org/Graphics/SVG/1.1/DTD/svg11.dtd">
<svg version="1.1" id="Layer_1" xmlns="http://www.w3.org/2000/svg" xmlns:xlink="http://www.w3.org/1999/xlink" x="0px" y="0px"
	 width="32px" height="32px" viewBox="0 0 32 32" enable-background="new 0 0 32 32" xml:space="preserve">
<path d="M26,4c0-2.206-1.794-4-4-4c-3.13,0-4.996,2.387-6,4.324C14.996,2.387,13.13,0,10,0C7.794,0,6,1.794,6,4
	c0,0.732,0.212,1.409,0.556,2H0v7h3v19h9h8h9V13h3V6h-6.556C25.788,5.409,26,4.732,26,4z M22,2c1.103,0,2,0.897,2,2s-0.897,2-2,2h-2
	h-2h-0.584C18.078,4.446,19.515,2,22,2z M17.294,8H18v3h-4V8h0.706H17.294z M8,4c0-1.103,0.897-2,2-2c2.472,0,3.914,2.446,4.58,4H14
	h-2h-2C8.897,6,8,5.103,8,4z M2,11V8h8h2v3H5H3H2z M5,30V13h7v17H5z M14,30V13h4v17H14z M27,30h-7V13h7V30z M30,11h-1h-2h-7V8h2h8
	V11z"/>
</svg>
