<?xml version="1.0" encoding="utf-8"?>
<!-- Generator: Adobe Illustrator 20.0.0, SVG Export Plug-In . SVG Version: 6.00 Build 0)  -->
<!DOCTYPE svg PUBLIC "-//W3C//DTD SVG 1.1//EN" "http://www.w3.org/Graphics/SVG/1.1/DTD/svg11.dtd">
<svg version="1.1" id="layer" xmlns="http://www.w3.org/2000/svg" xmlns:xlink="http://www.w3.org/1999/xlink" x="0px" y="0px"
	 width="32px" height="32px" viewBox="0 0 32 32" enable-background="new 0 0 32 32" xml:space="preserve">
<path fill="#1D1D1B" d="M29,5V0H8v5v2v11h21V7V5z M10,2h17v3H10V2z M27,16H10V7h17V16z"/>
<path fill="#1D1D1B" d="M7,24c-2.206,0-4,1.794-4,4s1.794,4,4,4s4-1.794,4-4S9.206,24,7,24z M7,30c-1.103,0-2-0.897-2-2s0.897-2,2-2
	s2,0.897,2,2S8.103,30,7,30z"/>
<path fill="#1D1D1B" d="M28,24c-2.206,0-4,1.794-4,4s1.794,4,4,4s4-1.794,4-4S30.206,24,28,24z M28,30c-1.103,0-2-0.897-2-2
	s0.897-2,2-2s2,0.897,2,2S29.103,30,28,30z"/>
<polygon fill="#1D1D1B" points="4,22 31,22 31,20 6,20 6,0 0,0 0,2 4,2 "/>
</svg>
