<?xml version="1.0" encoding="utf-8"?>
<!-- Generator: Adobe Illustrator 20.0.0, SVG Export Plug-In . SVG Version: 6.00 Build 0)  -->
<!DOCTYPE svg PUBLIC "-//W3C//DTD SVG 1.1//EN" "http://www.w3.org/Graphics/SVG/1.1/DTD/svg11.dtd">
<svg version="1.1" id="Layer_1" xmlns="http://www.w3.org/2000/svg" xmlns:xlink="http://www.w3.org/1999/xlink" x="0px" y="0px"
	 width="32px" height="32px" viewBox="0 0 32 32" enable-background="new 0 0 32 32" xml:space="preserve">
<path d="M16,6c0-3.309-2.691-6-6-6S4,2.691,4,6s2.691,6,6,6S16,9.309,16,6z M6,6c0-2.206,1.794-4,4-4s4,1.794,4,4s-1.794,4-4,4
	S6,8.206,6,6z"/>
<path d="M22,32c3.309,0,6-2.691,6-6s-2.691-6-6-6s-6,2.691-6,6S18.691,32,22,32z M22,22c2.206,0,4,1.794,4,4s-1.794,4-4,4
	s-4-1.794-4-4S19.794,22,22,22z"/>
<rect x="-1.401" y="15" transform="matrix(0.6097 -0.7926 0.7926 0.6097 -6.4374 18.9263)" width="34.803" height="2"/>
</svg>
