<?xml version="1.0" encoding="utf-8"?>
<!-- Generator: Adobe Illustrator 20.0.0, SVG Export Plug-In . SVG Version: 6.00 Build 0)  -->
<!DOCTYPE svg PUBLIC "-//W3C//DTD SVG 1.1//EN" "http://www.w3.org/Graphics/SVG/1.1/DTD/svg11.dtd">
<svg version="1.1" id="layer" xmlns="http://www.w3.org/2000/svg" xmlns:xlink="http://www.w3.org/1999/xlink" x="0px" y="0px"
	 width="32px" height="32px" viewBox="0 0 32 32" enable-background="new 0 0 32 32" xml:space="preserve">
<path fill="#1D1D1B" d="M22,1H10v5H0v24h32V6H22V1z M12,3h8v3h-8V3z M30,8v20H2V8h8h2h8h2H30z"/>
<path fill="#1D1D1B" d="M12,18.184C11.686,18.072,11.352,18,11,18c-1.654,0-3,1.346-3,3s1.346,3,3,3s3-1.346,3-3v-7h5v4.184
	C18.686,18.072,18.352,18,18,18c-1.654,0-3,1.346-3,3s1.346,3,3,3s3-1.346,3-3v-9h-9V18.184z M18,22c-0.551,0-1-0.449-1-1
	s0.449-1,1-1s1,0.449,1,1S18.551,22,18,22z M11,22c-0.551,0-1-0.449-1-1s0.449-1,1-1s1,0.449,1,1S11.551,22,11,22z"/>
</svg>
