<?xml version="1.0" encoding="utf-8"?>
<!-- Generator: Adobe Illustrator 20.0.0, SVG Export Plug-In . SVG Version: 6.00 Build 0)  -->
<!DOCTYPE svg PUBLIC "-//W3C//DTD SVG 1.1//EN" "http://www.w3.org/Graphics/SVG/1.1/DTD/svg11.dtd">
<svg version="1.1" id="Layer_1" xmlns="http://www.w3.org/2000/svg" xmlns:xlink="http://www.w3.org/1999/xlink" x="0px" y="0px"
	 width="32px" height="32px" viewBox="0 0 32 32" enable-background="new 0 0 32 32" xml:space="preserve">
<path d="M26,27h-2v3H2V8h5v3h2V8h8v3h2V8h5v6.586l-6,6V25h4.414l9-9L27,11.586l-1,1V6h-7c0-3.309-2.691-6-6-6S7,2.691,7,6H0v26h26
	V27z M28.586,16l-7,7H20v-1.586l7-7L28.586,16z M13,2c2.206,0,4,1.794,4,4H9C9,3.794,10.794,2,13,2z"/>
</svg>
