<?xml version="1.0" encoding="utf-8"?>
<!-- Generator: Adobe Illustrator 20.0.0, SVG Export Plug-In . SVG Version: 6.00 Build 0)  -->
<!DOCTYPE svg PUBLIC "-//W3C//DTD SVG 1.1//EN" "http://www.w3.org/Graphics/SVG/1.1/DTD/svg11.dtd">
<svg version="1.1" id="layer" xmlns="http://www.w3.org/2000/svg" xmlns:xlink="http://www.w3.org/1999/xlink" x="0px" y="0px"
	 width="32px" height="32px" viewBox="0 0 32 32" enable-background="new 0 0 32 32" xml:space="preserve">
<path fill="#1D1D1B" d="M3,28c0,2.206,1.794,4,4,4s4-1.794,4-4s-1.794-4-4-4S3,25.794,3,28z M9,28c0,1.103-0.897,2-2,2s-2-0.897-2-2
	s0.897-2,2-2S9,26.897,9,28z"/>
<path fill="#1D1D1B" d="M28,24c-2.206,0-4,1.794-4,4s1.794,4,4,4s4-1.794,4-4S30.206,24,28,24z M28,30c-1.103,0-2-0.897-2-2
	s0.897-2,2-2s2,0.897,2,2S29.103,30,28,30z"/>
<polygon fill="#1D1D1B" points="4,4 4,6 4,22 31,22 31,20 6,20 6,6 15,6 15,4 6,4 6,0 0,0 0,2 4,2 "/>
<path fill="#1D1D1B" d="M30.76,7.477c1.647-1.703,1.647-4.476,0-6.18c-0.906-0.938-2.162-1.399-3.444-1.276
	C26.45,0.106,25.649,0.454,25,1.008c-0.649-0.554-1.451-0.901-2.315-0.987c-1.281-0.126-2.537,0.338-3.444,1.276
	c-1.647,1.704-1.647,4.477-0.001,6.18l5.76,5.963L30.76,7.477z M20.678,2.687C21.105,2.244,21.677,2,22.271,2
	c0.071,0,0.144,0.003,0.216,0.011c0.68,0.067,1.289,0.448,1.671,1.044L25,4.368l0.842-1.313c0.382-0.596,0.991-0.976,1.671-1.044
	c0.675-0.06,1.331,0.181,1.81,0.676c0.906,0.938,0.906,2.463,0,3.4l-4.323,4.474l-4.321-4.474
	C19.771,5.149,19.771,3.624,20.678,2.687z"/>
</svg>
