<?xml version="1.0" encoding="utf-8"?>
<!-- Generator: Adobe Illustrator 20.0.0, SVG Export Plug-In . SVG Version: 6.00 Build 0)  -->
<!DOCTYPE svg PUBLIC "-//W3C//DTD SVG 1.1//EN" "http://www.w3.org/Graphics/SVG/1.1/DTD/svg11.dtd">
<svg version="1.1" id="Layer_1" xmlns="http://www.w3.org/2000/svg" xmlns:xlink="http://www.w3.org/1999/xlink" x="0px" y="0px"
	 width="32px" height="32px" viewBox="0 0 32 32" enable-background="new 0 0 32 32" xml:space="preserve">
<path d="M23,7V5V3c0-1.654-1.346-3-3-3H4C2.346,0,1,1.346,1,3v2v2v16v2v4c0,1.654,1.346,3,3,3h16v-2H4c-0.552,0-1-0.448-1-1v-4h11
	v-2H3V7h18v6.636l-1.96-1.96c-1.483-1.481-3.743-1.696-5.468-0.676H5v8h8.636L25.05,30.414L26.464,29L14.09,16.626
	c-0.974-0.975-0.974-2.562,0-3.536c0.973-0.975,2.56-0.977,3.536,0L30,25.464l1.414-1.414L23,15.636V7z M3,5V3c0-0.552,0.448-1,1-1
	h16c0.552,0,1,0.448,1,1v2H3z M7,13h4.775c-0.579,1.277-0.525,2.758,0.149,4H7V13z"/>
<rect x="15.419" y="14.919" transform="matrix(0.7071 -0.7071 0.7071 0.7071 -6.301 16.6261)" width="3" height="2"/>
</svg>
