<?xml version="1.0" encoding="utf-8"?>
<!-- Generator: Adobe Illustrator 20.0.0, SVG Export Plug-In . SVG Version: 6.00 Build 0)  -->
<!DOCTYPE svg PUBLIC "-//W3C//DTD SVG 1.1//EN" "http://www.w3.org/Graphics/SVG/1.1/DTD/svg11.dtd">
<svg version="1.1" id="Layer_1" xmlns="http://www.w3.org/2000/svg" xmlns:xlink="http://www.w3.org/1999/xlink" x="0px" y="0px"
	 width="32px" height="32px" viewBox="0 0 32 32" enable-background="new 0 0 32 32" xml:space="preserve">
<path d="M6,28c0,2.206,1.794,4,4,4s4-1.794,4-4s-1.794-4-4-4S6,25.794,6,28z M12,28c0,1.103-0.897,2-2,2s-2-0.897-2-2s0.897-2,2-2
	S12,26.897,12,28z"/>
<path d="M23,28c0,2.206,1.794,4,4,4s4-1.794,4-4s-1.794-4-4-4S23,25.794,23,28z M29,28c0,1.103-0.897,2-2,2s-2-0.897-2-2
	s0.897-2,2-2S29,26.897,29,28z"/>
<path d="M7.139,22h21.737l2.267-17H6.611l-0.75-5H1v2h3.139L7.139,22z M28.858,7l-1.733,13H8.861L6.911,7H28.858z"/>
</svg>
