<?xml version="1.0" encoding="utf-8"?>
<!-- Generator: Adobe Illustrator 20.0.0, SVG Export Plug-In . SVG Version: 6.00 Build 0)  -->
<!DOCTYPE svg PUBLIC "-//W3C//DTD SVG 1.1//EN" "http://www.w3.org/Graphics/SVG/1.1/DTD/svg11.dtd">
<svg version="1.1" id="Layer_1" xmlns="http://www.w3.org/2000/svg" xmlns:xlink="http://www.w3.org/1999/xlink" x="0px" y="0px"
	 width="32px" height="32px" viewBox="0 0 32 32" enable-background="new 0 0 32 32" xml:space="preserve">
<path d="M24.693,7H16V2H0v2h14v3v2v18h3.101c0.465,2.279,2.484,4,4.899,4s4.434-1.721,4.899-4H32v-9.618l-4.201-2.101L24.693,7z
	 M22,29c-1.654,0-3-1.346-3-3s1.346-3,3-3s3,1.346,3,3S23.654,29,22,29z M30,25h-3.101c-0.465-2.279-2.484-4-4.899-4
	s-4.434,1.721-4.899,4H16V9h7.307l2.895,7.719L30,18.618V25z"/>
<polygon points="20,11 18,11 18,17 24,17 24,15 20,15 "/>
<rect x="2" y="7" width="10" height="2"/>
<rect x="4" y="12" width="8" height="2"/>
<rect x="6" y="17" width="6" height="2"/>
</svg>
