<?xml version="1.0" encoding="utf-8"?>
<!-- Generator: Adobe Illustrator 20.0.0, SVG Export Plug-In . SVG Version: 6.00 Build 0)  -->
<!DOCTYPE svg PUBLIC "-//W3C//DTD SVG 1.1//EN" "http://www.w3.org/Graphics/SVG/1.1/DTD/svg11.dtd">
<svg version="1.1" id="layer" xmlns="http://www.w3.org/2000/svg" xmlns:xlink="http://www.w3.org/1999/xlink" x="0px" y="0px"
	 width="32px" height="32px" viewBox="0 0 32 32" enable-background="new 0 0 32 32" xml:space="preserve">
<path fill="#1D1D1B" d="M3,28c0,2.206,1.794,4,4,4s4-1.794,4-4s-1.794-4-4-4S3,25.794,3,28z M9,28c0,1.103-0.897,2-2,2s-2-0.897-2-2
	s0.897-2,2-2S9,26.897,9,28z"/>
<path fill="#1D1D1B" d="M28,24c-2.206,0-4,1.794-4,4s1.794,4,4,4s4-1.794,4-4S30.206,24,28,24z M28,30c-1.103,0-2-0.897-2-2
	s0.897-2,2-2s2,0.897,2,2S29.103,30,28,30z"/>
<rect x="2" y="16" fill="#1D1D1B" width="8" height="2"/>
<rect x="4" y="12" fill="#1D1D1B" width="8" height="2"/>
<polygon fill="#1D1D1B" points="0,0 0,2 4,2 4,4 4,6 4,10 6,10 6,6 28.795,6 26.17,20 0,20 0,22 27.83,22 31.205,4 6,4 6,0 "/>
</svg>
