<?xml version="1.0" encoding="utf-8"?>
<!-- Generator: Adobe Illustrator 20.0.0, SVG Export Plug-In . SVG Version: 6.00 Build 0)  -->
<!DOCTYPE svg PUBLIC "-//W3C//DTD SVG 1.1//EN" "http://www.w3.org/Graphics/SVG/1.1/DTD/svg11.dtd">
<svg version="1.1" id="layer" xmlns="http://www.w3.org/2000/svg" xmlns:xlink="http://www.w3.org/1999/xlink" x="0px" y="0px"
	 width="32px" height="32px" viewBox="0 0 32 32" enable-background="new 0 0 32 32" xml:space="preserve">
<path fill="#1D1D1B" d="M20.979,0.521l-1.757,0.957L23.317,9H8.683l4.095-7.521l-1.757-0.957L6.406,9H0v7h3v16h15v-2H5V16h27V9
	h-6.406L20.979,0.521z M30,14H5H3H2v-3h28V14z"/>
<path fill="#1D1D1B" d="M30.761,25.477c1.646-1.704,1.646-4.477,0-6.18c-0.907-0.938-2.167-1.399-3.445-1.276
	c-0.865,0.086-1.666,0.434-2.315,0.987c-0.65-0.554-1.451-0.901-2.316-0.987c-1.285-0.124-2.539,0.339-3.445,1.276
	c-1.646,1.703-1.646,4.476,0,6.18L25,31.439L30.761,25.477z M20.678,20.687C21.105,20.244,21.676,20,22.271,20
	c0.071,0,0.144,0.004,0.215,0.011c0.68,0.067,1.29,0.448,1.672,1.045L25,22.369l0.842-1.313c0.382-0.597,0.991-0.978,1.671-1.045
	c0.67-0.061,1.33,0.18,1.809,0.676v0.001c0.906,0.937,0.906,2.462,0,3.399L25,28.561l-4.322-4.473
	C19.772,23.149,19.772,21.624,20.678,20.687z"/>
</svg>
