<?xml version="1.0" encoding="utf-8"?>
<!-- Generator: Adobe Illustrator 20.0.0, SVG Export Plug-In . SVG Version: 6.00 Build 0)  -->
<!DOCTYPE svg PUBLIC "-//W3C//DTD SVG 1.1//EN" "http://www.w3.org/Graphics/SVG/1.1/DTD/svg11.dtd">
<svg version="1.1" id="layer" xmlns="http://www.w3.org/2000/svg" xmlns:xlink="http://www.w3.org/1999/xlink" x="0px" y="0px"
	 width="32px" height="32px" viewBox="0 0 32 32" enable-background="new 0 0 32 32" xml:space="preserve">
<rect y="5" fill="#1D1D1B" width="32" height="2"/>
<rect y="25" fill="#1D1D1B" width="32" height="2"/>
<polygon fill="#1D1D1B" points="19,11 19,21 25,21 25,19 21,19 21,11 "/>
<polygon fill="#1D1D1B" points="27,15 27,17 27,21 32,21 32,19 29,19 29,17 32,17 32,15 29,15 29,13 32,13 32,11 27,11 "/>
<path fill="#1D1D1B" d="M15.943,17l-2.25-6h-2.386l-2.25,6H9v0.152l-1.288,3.433l1.873,0.702L10.443,19h4.114l0.858,2.288
	l1.873-0.702L16,17.152V17H15.943z M11.193,17l1.307-3.485L13.807,17H11.193z"/>
<path fill="#1D1D1B" d="M4,19H3c-0.593,0-1.151-0.124-1.421-0.315l-0.815-0.579l-1.157,1.631l0.815,0.579C1.26,20.911,2.397,21,3,21
	h1c1.654,0,3-1.346,3-3s-1.346-3-3-3H3c-0.551,0-1-0.449-1-1s0.449-1,1-1h1c0.693,0,1.061,0.09,1.405,0.345l0.804,0.595l1.19-1.608
	l-0.804-0.595C5.717,11.088,4.791,11,4,11H3c-1.654,0-3,1.346-3,3s1.346,3,3,3h1c0.551,0,1,0.449,1,1S4.551,19,4,19z"/>
</svg>
