<?xml version="1.0" encoding="utf-8"?>
<!-- Generator: Adobe Illustrator 20.0.0, SVG Export Plug-In . SVG Version: 6.00 Build 0)  -->
<!DOCTYPE svg PUBLIC "-//W3C//DTD SVG 1.1//EN" "http://www.w3.org/Graphics/SVG/1.1/DTD/svg11.dtd">
<svg version="1.1" id="Layer_1" xmlns="http://www.w3.org/2000/svg" xmlns:xlink="http://www.w3.org/1999/xlink" x="0px" y="0px"
	 width="32px" height="32px" viewBox="0 0 32 32" enable-background="new 0 0 32 32" xml:space="preserve">
<path d="M9,28c0-2.206-1.794-4-4-4s-4,1.794-4,4s1.794,4,4,4S9,30.206,9,28z M3,28c0-1.103,0.897-2,2-2s2,0.897,2,2s-0.897,2-2,2
	S3,29.103,3,28z"/>
<path d="M31,28c0-2.206-1.794-4-4-4s-4,1.794-4,4s1.794,4,4,4S31,30.206,31,28z M25,28c0-1.103,0.897-2,2-2s2,0.897,2,2
	s-0.897,2-2,2S25,29.103,25,28z"/>
<path d="M25,0c-2.785,0-5.188,1.639-6.315,4H4.5L1.8,0.4L0.2,1.6L3,5.333v11.431L0.382,22H31v-2H3.618l1-2h20.049l1.724-4.14
	C29.587,13.213,32,10.383,32,7C32,3.14,28.859,0,25,0z M5,16V6h13.08C18.033,6.328,18,6.66,18,7c0,3.585,2.71,6.544,6.188,6.949
	L23.333,16H5z M25,12c-2.757,0-5-2.243-5-5s2.243-5,5-5s5,2.243,5,5S27.757,12,25,12z"/>
<polygon points="26,4 24,4 24,6 22,6 22,8 24,8 24,10 26,10 26,8 28,8 28,6 26,6 "/>
</svg>
