<?xml version="1.0" encoding="utf-8"?>
<!-- Generator: Adobe Illustrator 20.0.0, SVG Export Plug-In . SVG Version: 6.00 Build 0)  -->
<!DOCTYPE svg PUBLIC "-//W3C//DTD SVG 1.1//EN" "http://www.w3.org/Graphics/SVG/1.1/DTD/svg11.dtd">
<svg version="1.1" id="Layer_1" xmlns="http://www.w3.org/2000/svg" xmlns:xlink="http://www.w3.org/1999/xlink" x="0px" y="0px"
	 width="32px" height="32px" viewBox="0 0 32 32" enable-background="new 0 0 32 32" xml:space="preserve">
<path d="M20.978,0.522l-1.756,0.956L23.317,9H8.683l4.096-7.522l-1.756-0.956L6.406,9H0v7h3v16h22c3.859,0,7-3.14,7-7
	c0-2.373-1.189-4.47-3-5.736V16h3V9h-6.406L20.978,0.522z M30,25c0,2.757-2.243,5-5,5s-5-2.243-5-5s2.243-5,5-5S30,22.243,30,25z
	 M27,18.295C26.366,18.105,25.695,18,25,18c-3.859,0-7,3.14-7,7c0,1.958,0.81,3.728,2.111,5H5V16h22V18.295z M30,14H2v-3h28V14z"/>
<rect x="22" y="24" width="6" height="2"/>
</svg>
