<?xml version="1.0" encoding="utf-8"?>
<!-- Generator: Adobe Illustrator 20.0.0, SVG Export Plug-In . SVG Version: 6.00 Build 0)  -->
<!DOCTYPE svg PUBLIC "-//W3C//DTD SVG 1.1//EN" "http://www.w3.org/Graphics/SVG/1.1/DTD/svg11.dtd">
<svg version="1.1" id="layer" xmlns="http://www.w3.org/2000/svg" xmlns:xlink="http://www.w3.org/1999/xlink" x="0px" y="0px"
	 width="32px" height="32px" viewBox="0 0 32 32" enable-background="new 0 0 32 32" xml:space="preserve">
<path fill="#1D1D1B" d="M14,9c-1.654,0-3,1.346-3,3s1.346,3,3,3s3-1.346,3-3S15.654,9,14,9z M14,13c-0.551,0-1-0.448-1-1
	s0.449-1,1-1s1,0.448,1,1S14.551,13,14,13z"/>
<rect x="21" y="24" fill="#1D1D1B" width="6" height="2"/>
<path fill="#1D1D1B" d="M25,18.08v-6.494l-11-11l-11,11V32h13v-2H5V12.414l9-9l9,9v5.666c-3.387,0.488-6,3.401-6,6.92
	c0,3.859,3.14,7,7,7s7-3.141,7-7C31,21.481,28.387,18.568,25,18.08z M24,30c-2.757,0-5-2.243-5-5s2.243-5,5-5s5,2.243,5,5
	S26.757,30,24,30z"/>
</svg>
