<?xml version="1.0" encoding="utf-8"?>
<!-- Generator: Adobe Illustrator 20.0.0, SVG Export Plug-In . SVG Version: 6.00 Build 0)  -->
<!DOCTYPE svg PUBLIC "-//W3C//DTD SVG 1.1//EN" "http://www.w3.org/Graphics/SVG/1.1/DTD/svg11.dtd">
<svg version="1.1" id="layer" xmlns="http://www.w3.org/2000/svg" xmlns:xlink="http://www.w3.org/1999/xlink" x="0px" y="0px"
	 width="32px" height="32px" viewBox="0 0 32 32" enable-background="new 0 0 32 32" xml:space="preserve">
<path fill="#1D1D1B" d="M18.907,3.706C18.963,3.478,19,3.244,19,3c0-1.654-1.346-3-3-3s-3,1.346-3,3
	c0,0.244,0.037,0.478,0.093,0.706L6.696,8H0v24h32V8h-6.696L18.907,3.706z M16,2c0.551,0,1,0.448,1,1s-0.449,1-1,1s-1-0.448-1-1
	S15.449,2,16,2z M14.191,5.377C14.695,5.762,15.318,6,16,6s1.305-0.238,1.809-0.623L21.717,8H10.283L14.191,5.377z M30,30H2V10h28
	V30z"/>
<path fill="#1D1D1B" d="M28,12H4v16h24V12z M26,26H6V14h20V26z"/>
</svg>
