<?xml version="1.0" encoding="utf-8"?>
<!-- Generator: Adobe Illustrator 20.0.0, SVG Export Plug-In . SVG Version: 6.00 Build 0)  -->
<!DOCTYPE svg PUBLIC "-//W3C//DTD SVG 1.1//EN" "http://www.w3.org/Graphics/SVG/1.1/DTD/svg11.dtd">
<svg version="1.1" id="Layer_1" xmlns="http://www.w3.org/2000/svg" xmlns:xlink="http://www.w3.org/1999/xlink" x="0px" y="0px"
	 width="32px" height="32px" viewBox="0 0 32 32" enable-background="new 0 0 32 32" xml:space="preserve">
<path d="M6,28c0,2.206,1.794,4,4,4s4-1.794,4-4s-1.794-4-4-4S6,25.794,6,28z M12,28c0,1.103-0.897,2-2,2s-2-0.897-2-2s0.897-2,2-2
	S12,26.897,12,28z"/>
<path d="M23,28c0,2.206,1.794,4,4,4s4-1.794,4-4s-1.794-4-4-4S23,25.794,23,28z M29,28c0,1.103-0.897,2-2,2s-2-0.897-2-2
	s0.897-2,2-2S29,26.897,29,28z"/>
<polygon points="7.139,22 28.875,22 31.142,5 22,5 22,7 28.858,7 27.125,20 8.861,20 6.911,7 14,7 14,5 6.611,5 5.861,0 1,0 1,2 
	4.139,2 "/>
<polygon points="14,10.586 12.586,12 18,17.414 23.414,12 22,10.586 19,13.586 19,2 17,2 17,13.586 "/>
</svg>
