<?xml version="1.0" encoding="utf-8"?>
<!-- Generator: Adobe Illustrator 20.0.0, SVG Export Plug-In . SVG Version: 6.00 Build 0)  -->
<!DOCTYPE svg PUBLIC "-//W3C//DTD SVG 1.1//EN" "http://www.w3.org/Graphics/SVG/1.1/DTD/svg11.dtd">
<svg version="1.1" id="Layer_1" xmlns="http://www.w3.org/2000/svg" xmlns:xlink="http://www.w3.org/1999/xlink" x="0px" y="0px"
	 width="32px" height="32px" viewBox="0 0 32 32" enable-background="new 0 0 32 32" xml:space="preserve">
<path d="M11,18h10v-6H11V18z M13,14h6v2h-6V14z"/>
<path d="M29,18.697l-4-6V8h-4V6h4V0H15v6h4v2H7v4.697l-4,6V24H0v8h32v-8h-3V18.697z M17,4V2h6v2h-2h-2H17z M5,19.303l4-6V10h10h2h2
	v3.303l4,6V24H5V19.303z M30,26v4H2v-4h1h2h22h2H30z"/>
</svg>
