<?xml version="1.0" encoding="utf-8"?>
<!-- Generator: Adobe Illustrator 20.0.0, SVG Export Plug-In . SVG Version: 6.00 Build 0)  -->
<!DOCTYPE svg PUBLIC "-//W3C//DTD SVG 1.1//EN" "http://www.w3.org/Graphics/SVG/1.1/DTD/svg11.dtd">
<svg version="1.1" id="layer" xmlns="http://www.w3.org/2000/svg" xmlns:xlink="http://www.w3.org/1999/xlink" x="0px" y="0px"
	 width="32px" height="32px" viewBox="0 0 32 32" enable-background="new 0 0 32 32" xml:space="preserve">
<path fill="#1D1D1B" d="M3,28c0,2.206,1.794,4,4,4s4-1.794,4-4s-1.794-4-4-4S3,25.794,3,28z M9,28c0,1.103-0.897,2-2,2s-2-0.897-2-2
	s0.897-2,2-2S9,26.897,9,28z"/>
<path fill="#1D1D1B" d="M28,24c-2.206,0-4,1.794-4,4s1.794,4,4,4s4-1.794,4-4S30.206,24,28,24z M28,30c-1.103,0-2-0.897-2-2
	s0.897-2,2-2s2,0.897,2,2S29.103,30,28,30z"/>
<polygon fill="#1D1D1B" points="4,4 4,6 4,22 31,22 31,20 6,20 6,6 16,6 16,4 6,4 6,0 0,0 0,2 4,2 "/>
<path fill="#1D1D1B" d="M31,6V0l-2.299,2.299C27.655,1.465,26.368,1,25,1c-3.309,0-6,2.691-6,6h2c0-2.206,1.794-4,4-4
	c0.826,0,1.599,0.276,2.259,0.741L25,6H31z"/>
<path fill="#1D1D1B" d="M19,15l2.299-2.299C22.345,13.535,23.632,14,25,14c3.309,0,6-2.691,6-6h-2c0,2.206-1.794,4-4,4
	c-0.826,0-1.599-0.276-2.259-0.741L25,9h-6V15z"/>
</svg>
