<svg xmlns="http://www.w3.org/2000/svg" width="16" height="16" viewBox="0 0 16 16">
  <title>users-16px_multiple_1</title>
  <path d="M1,16h9a1,1,0,0,0,1-1V13a2,2,0,0,0-.8-1.6L7.495,9.371A3.492,3.492,0,0,0,9,6.5V5.7A3.634,3.634,0,0,0,5.688,2,3.5,3.5,0,0,0,2,5.5v1A3.493,3.493,0,0,0,3.51,9.375L.784,11.463A2,2,0,0,0,0,13.051V15A1,1,0,0,0,1,16Z"/>
  <path d="M15.109,6.406l-1.794-1.2A2.486,2.486,0,0,0,14,3.5V2.613A2.578,2.578,0,0,0,11.9.032,2.5,2.5,0,0,0,9.228,1.468,5.48,5.48,0,0,1,11,5.5v1a5.483,5.483,0,0,1-.621,2.534s1.158.9,1.231.966H15a1,1,0,0,0,1-1V8.07A2,2,0,0,0,15.109,6.406Z"/>
</svg>
