<?xml version="1.0" encoding="utf-8"?>
<!-- Generator: Adobe Illustrator 19.1.0, SVG Export Plug-In . SVG Version: 6.00 Build 0)  -->
<!DOCTYPE svg PUBLIC "-//W3C//DTD SVG 1.1//EN" "http://www.w3.org/Graphics/SVG/1.1/DTD/svg11.dtd">
<svg version="1.1" id="Layer_2" xmlns="http://www.w3.org/2000/svg" xmlns:xlink="http://www.w3.org/1999/xlink" x="0px" y="0px"
	 width="48px" height="48px" viewBox="0 0 48 48" enable-background="new 0 0 48 48" xml:space="preserve">
<path d="M12,41h18c9.4,0,17-7.6,17-17S39.4,7,30,7c-7.6,0-14.1,4.9-16.3,12.1C13.1,19,12.6,19,12,19C5.9,19,1,23.9,1,30
	S5.9,41,12,41z M12,21c0.8,0,1.6,0.1,2.1,0.3c0.3,0.1,0.5,0,0.8-0.1c0.2-0.1,0.4-0.4,0.5-0.6C17,13.7,23,9,30,9c8.3,0,15,6.7,15,15
	s-6.7,15-15,15H12c-5,0-9-4-9-9S7,21,12,21z"/>
</svg>
