<?xml version="1.0" encoding="utf-8"?>
<!-- Generator: Adobe Illustrator 19.1.0, SVG Export Plug-In . SVG Version: 6.00 Build 0)  -->
<!DOCTYPE svg PUBLIC "-//W3C//DTD SVG 1.1//EN" "http://www.w3.org/Graphics/SVG/1.1/DTD/svg11.dtd">
<svg version="1.1" id="Layer_2" xmlns="http://www.w3.org/2000/svg" xmlns:xlink="http://www.w3.org/1999/xlink" x="0px" y="0px"
	 width="48px" height="48px" viewBox="0 0 48 48" enable-background="new 0 0 48 48" xml:space="preserve">
<path d="M24,47c8.4,0,17-6.4,17-17C41,19.8,25.4,4,24.7,3.3c-0.4-0.4-1-0.4-1.4,0C22.6,4,7,19.8,7,30C7,40.6,15.6,47,24,47z M24,5.4
	C27.1,8.7,39,21.8,39,30c0,9.4-7.6,15-15,15S9,39.4,9,30C9,21.8,20.9,8.7,24,5.4z"/>
<path d="M24,37c0.6,0,1-0.4,1-1s-0.4-1-1-1c0,0-5-0.1-5-5c0-0.6-0.4-1-1-1s-1,0.4-1,1C17,35.1,21.3,37,24,37z"/>
</svg>
