<?xml version="1.0" encoding="utf-8"?>
<!-- Generator: Adobe Illustrator 19.1.0, SVG Export Plug-In . SVG Version: 6.00 Build 0)  -->
<!DOCTYPE svg PUBLIC "-//W3C//DTD SVG 1.1//EN" "http://www.w3.org/Graphics/SVG/1.1/DTD/svg11.dtd">
<svg version="1.1" id="Layer_2" xmlns="http://www.w3.org/2000/svg" xmlns:xlink="http://www.w3.org/1999/xlink" x="0px" y="0px"
	 width="48px" height="48px" viewBox="0 0 48 48" enable-background="new 0 0 48 48" xml:space="preserve">
<path d="M2,39h16c0.6,0,1-0.4,1-1s-0.4-1-1-1H2c-0.6,0-1,0.4-1,1S1.4,39,2,39z"/>
<path d="M23,30H7c-0.6,0-1,0.4-1,1s0.4,1,1,1h16c0.6,0,1-0.4,1-1S23.6,30,23,30z"/>
<path d="M9,45c0,0.6,0.4,1,1,1h16c0.6,0,1-0.4,1-1s-0.4-1-1-1H10C9.4,44,9,44.4,9,45z"/>
<path d="M44.2,27.5c0.1-0.4,0-0.7-0.2-1c-0.3-0.3-0.6-0.4-1-0.2C41.3,26.8,39.7,27,38,27c-9.4,0-17-7.6-17-17c0-1.7,0.2-3.3,0.7-4.9
	c0.1-0.4,0-0.7-0.2-1c-0.3-0.3-0.6-0.4-1-0.2C12.4,6.3,7,13.6,7,22c0,0.6,0.4,1,1,1s1-0.4,1-1c0-6.9,4.1-13,10.4-15.6
	C19.1,7.6,19,8.8,19,10c0,10.5,8.5,19,19,19c1.2,0,2.4-0.1,3.6-0.4c-1.6,3.7-4.5,6.8-8.1,8.6c-0.5,0.2-0.7,0.8-0.5,1.3
	c0.2,0.4,0.5,0.6,0.9,0.6c0.1,0,0.3,0,0.4-0.1C39.1,36.7,42.7,32.5,44.2,27.5z"/>
</svg>
