<?xml version="1.0" encoding="utf-8"?>
<!-- Generator: Adobe Illustrator 19.1.0, SVG Export Plug-In . SVG Version: 6.00 Build 0)  -->
<!DOCTYPE svg PUBLIC "-//W3C//DTD SVG 1.1//EN" "http://www.w3.org/Graphics/SVG/1.1/DTD/svg11.dtd">
<svg version="1.1" id="Layer_2" xmlns="http://www.w3.org/2000/svg" xmlns:xlink="http://www.w3.org/1999/xlink" x="0px" y="0px"
	 width="48px" height="48px" viewBox="0 0 48 48" enable-background="new 0 0 48 48" xml:space="preserve">
<path d="M34,5c-4.7,0-9.1,2.6-11.3,6.6c-1.5-0.4-3-0.6-4.7-0.6C8.6,11,1,18.6,1,28s7.6,17,17,17h18c6.2,0,11-4.8,11-11
	c0-3-1.2-5.7-3-7.7c2-2.3,3-5.3,3-8.3C47,10.8,41.2,5,34,5z M34,7c6.1,0,11,4.9,11,11c0,2.6-0.9,5.1-2.6,7c-1.8-1.3-4-2-6.4-2
	c-0.6,0-1.1,0.1-1.7,0.2c-1.4-5-5.1-9-9.7-10.9C26.6,9.1,30.2,7,34,7z M36,43H18C9.7,43,3,36.3,3,28s6.7-15,15-15
	c7.1,0,13.1,4.8,14.6,11.6c0.1,0.3,0.2,0.5,0.5,0.6c0.2,0.1,0.5,0.2,0.8,0.1c0.8-0.2,1.5-0.4,2.1-0.4c5,0,9,4,9,9S41,43,36,43z"/>
</svg>
