<?xml version="1.0" encoding="utf-8"?>
<!-- Generator: Adobe Illustrator 19.1.0, SVG Export Plug-In . SVG Version: 6.00 Build 0)  -->
<!DOCTYPE svg PUBLIC "-//W3C//DTD SVG 1.1//EN" "http://www.w3.org/Graphics/SVG/1.1/DTD/svg11.dtd">
<svg version="1.1" id="Layer_2" xmlns="http://www.w3.org/2000/svg" xmlns:xlink="http://www.w3.org/1999/xlink" x="0px" y="0px"
	 width="48px" height="48px" viewBox="0 0 48 48" enable-background="new 0 0 48 48" xml:space="preserve">
<path d="M7,8c0,2.8,2.2,5,5,5s5-2.2,5-5s-2.2-5-5-5S7,5.2,7,8z M12,5c1.7,0,3,1.3,3,3s-1.3,3-3,3S9,9.7,9,8S10.3,5,12,5z"/>
<path d="M32,15c2.6,0,5.2,0.7,7.5,2c0.5,0.3,1.1,0.1,1.4-0.4c0.3-0.5,0.1-1.1-0.4-1.4C37.9,13.8,35,13,32,13c-9.4,0-17,7.6-17,17
	s7.6,17,17,17c2.9,0,5.7-0.7,8.2-2.1c0.5-0.3,0.7-0.9,0.4-1.4c-0.3-0.5-0.9-0.7-1.4-0.4C37.1,44.4,34.5,45,32,45
	c-8.3,0-15-6.7-15-15S23.7,15,32,15z"/>
</svg>
