<?xml version="1.0" encoding="utf-8"?>
<!-- Generator: Adobe Illustrator 19.1.0, SVG Export Plug-In . SVG Version: 6.00 Build 0)  -->
<!DOCTYPE svg PUBLIC "-//W3C//DTD SVG 1.1//EN" "http://www.w3.org/Graphics/SVG/1.1/DTD/svg11.dtd">
<svg version="1.1" id="Layer_2" xmlns="http://www.w3.org/2000/svg" xmlns:xlink="http://www.w3.org/1999/xlink" x="0px" y="0px"
	 width="48px" height="48px" viewBox="0 0 48 48" enable-background="new 0 0 48 48" xml:space="preserve">
<path d="M24,47c12.7,0,23-10.3,23-23C47,11.3,36.7,1,24,1S1,11.3,1,24C1,36.7,11.3,47,24,47z M45,24c0,9.5-6.3,17.5-15,20.1
	C21.2,41.5,15,33.3,15,24c0-9.3,6.2-17.5,15-20.1C38.7,6.5,45,14.5,45,24z M24,3c0.8,0,1.6,0.1,2.4,0.1C18.3,6.9,13,15,13,24
	c0,9,5.3,17.1,13.4,20.9C25.6,44.9,24.8,45,24,45C12.4,45,3,35.6,3,24C3,12.4,12.4,3,24,3z"/>
</svg>
