<?xml version="1.0" encoding="utf-8"?>
<!-- Generator: Adobe Illustrator 19.1.0, SVG Export Plug-In . SVG Version: 6.00 Build 0)  -->
<!DOCTYPE svg PUBLIC "-//W3C//DTD SVG 1.1//EN" "http://www.w3.org/Graphics/SVG/1.1/DTD/svg11.dtd">
<svg version="1.1" id="Layer_2" xmlns="http://www.w3.org/2000/svg" xmlns:xlink="http://www.w3.org/1999/xlink" x="0px" y="0px"
	 width="48px" height="48px" viewBox="0 0 48 48" enable-background="new 0 0 48 48" xml:space="preserve">
<path d="M19.4,4c-0.3-0.3-0.6-0.4-1-0.3C9.4,6.2,3,14.6,3,24c0,11.6,9.4,21,21,21c9.4,0,17.8-6.4,20.2-15.5c0.1-0.3,0-0.7-0.3-1
	c-0.3-0.3-0.6-0.4-1-0.3c-1.7,0.5-3.4,0.7-5,0.7c-10.5,0-19-8.5-19-19c0-1.6,0.2-3.3,0.7-5C19.8,4.6,19.7,4.3,19.4,4z M38,31
	c1.2,0,2.5-0.1,3.8-0.4C39,38,32,43,24,43C13.5,43,5,34.5,5,24c0-8,5-15,12.4-17.8C17.1,7.5,17,8.8,17,10C17,21.6,26.4,31,38,31z"/>
</svg>
