<?xml version="1.0" encoding="utf-8"?>
<!-- Generator: Adobe Illustrator 19.1.0, SVG Export Plug-In . SVG Version: 6.00 Build 0)  -->
<!DOCTYPE svg PUBLIC "-//W3C//DTD SVG 1.1//EN" "http://www.w3.org/Graphics/SVG/1.1/DTD/svg11.dtd">
<svg version="1.1" id="Layer_2" xmlns="http://www.w3.org/2000/svg" xmlns:xlink="http://www.w3.org/1999/xlink" x="0px" y="0px"
	 width="48px" height="48px" viewBox="0 0 48 48" enable-background="new 0 0 48 48" xml:space="preserve">
<path d="M10,35c0.6,0,1-0.4,1-1s-0.4-1-1-1c-3.9,0-7-3.1-7-7c0-3.2,2.2-6.1,5.2-6.8C8.7,19.1,9,18.7,9,18.3C9.4,10.9,15.7,5,23,5
	c7.4,0,13.4,5.6,14,13.1c0,0.5,0.5,0.9,1,0.9c3.9,0,7,3.1,7,7s-3.1,7-7,7c-0.6,0-1,0.4-1,1s0.4,1,1,1c5,0,9-4,9-9
	c0-4.7-3.6-8.5-8.1-9C37.9,9,31.2,3,23,3C14.8,3,7.8,9.4,7.1,17.4C3.5,18.6,1,22.1,1,26C1,31,5,35,10,35z"/>
<path d="M25,42v-6.3l5.4,3.1c0.2,0.1,0.3,0.1,0.5,0.1c0.3,0,0.7-0.2,0.9-0.5c0.3-0.5,0.1-1.1-0.4-1.4L26,34l5.4-3.1
	c0.5-0.3,0.6-0.9,0.4-1.4c-0.3-0.5-0.9-0.6-1.4-0.4L25,32.3V26c0-0.6-0.4-1-1-1s-1,0.4-1,1v6.3l-5.4-3.1c-0.5-0.3-1.1-0.1-1.4,0.4
	c-0.3,0.5-0.1,1.1,0.4,1.4L22,34l-5.4,3.1c-0.5,0.3-0.6,0.9-0.4,1.4c0.2,0.3,0.5,0.5,0.9,0.5c0.2,0,0.3,0,0.5-0.1l5.4-3.1V42
	c0,0.6,0.4,1,1,1S25,42.6,25,42z"/>
</svg>
