<?xml version="1.0" encoding="utf-8"?>
<!-- Generator: Adobe Illustrator 19.1.0, SVG Export Plug-In . SVG Version: 6.00 Build 0)  -->
<!DOCTYPE svg PUBLIC "-//W3C//DTD SVG 1.1//EN" "http://www.w3.org/Graphics/SVG/1.1/DTD/svg11.dtd">
<svg version="1.1" id="Layer_2" xmlns="http://www.w3.org/2000/svg" xmlns:xlink="http://www.w3.org/1999/xlink" x="0px" y="0px"
	 width="48px" height="48px" viewBox="0 0 48 48" enable-background="new 0 0 48 48" xml:space="preserve">
<path d="M37.1,23.1c0.4-2.3,2.5-4.1,4.9-4.1c0.6,0,1-0.4,1-1s-0.4-1-1-1c-3.5,0-6.5,2.6-6.9,6c-1.8,0.2-3.5,0.8-5,1.7
	c-0.3-0.7-0.6-1.4-1-2.1C29.7,16.1,35.4,11,42,11c0.6,0,1-0.4,1-1s-0.4-1-1-1c-6.9,0-12.9,4.8-14.5,11.4c-1.4-1.6-3.1-3-5-3.9
	C25.5,8.4,33.3,3,42,3c0.6,0,1-0.4,1-1s-0.4-1-1-1c-9.5,0-18,5.9-21.4,14.7c-1.4-0.5-3-0.7-4.6-0.7C7.7,15,1,21.7,1,30
	c0,8.3,6.7,15,15,15h20c6.1,0,11-4.9,11-11C47,28.3,42.6,23.6,37.1,23.1z M36,43H16C8.8,43,3,37.2,3,30c0-7.2,5.8-13,13-13
	c5.9,0,11.1,4,12.6,9.7c0.1,0.3,0.3,0.6,0.7,0.7c0.3,0.1,0.7,0,0.9-0.2c1.7-1.4,3.7-2.2,5.8-2.2c5,0,9,4,9,9S41,43,36,43z"/>
</svg>
