<?xml version="1.0" encoding="utf-8"?>
<!-- Generator: Adobe Illustrator 19.1.0, SVG Export Plug-In . SVG Version: 6.00 Build 0)  -->
<!DOCTYPE svg PUBLIC "-//W3C//DTD SVG 1.1//EN" "http://www.w3.org/Graphics/SVG/1.1/DTD/svg11.dtd">
<svg version="1.1" id="Layer_2" xmlns="http://www.w3.org/2000/svg" xmlns:xlink="http://www.w3.org/1999/xlink" x="0px" y="0px"
	 width="48px" height="48px" viewBox="0 0 48 48" enable-background="new 0 0 48 48" xml:space="preserve">
<path d="M10,5h2c0.6,0,1-0.4,1-1s-0.4-1-1-1h-2C9.4,3,9,3.4,9,4S9.4,5,10,5z"/>
<path d="M10,13h2c0.6,0,1-0.4,1-1s-0.4-1-1-1h-2c-0.6,0-1,0.4-1,1S9.4,13,10,13z"/>
<path d="M10,21h2c0.6,0,1-0.4,1-1s-0.4-1-1-1h-2c-0.6,0-1,0.4-1,1S9.4,21,10,21z"/>
<path d="M26,47c7.2,0,13-5.8,13-13c0-4.4-2.3-8.6-6-11V8c0-3.9-3.1-7-7-7s-7,3.1-7,7v15c-3.8,2.4-6,6.5-6,11C13,41.2,18.8,47,26,47z
	 M20.5,24.5c0.3-0.2,0.5-0.5,0.5-0.9V8c0-2.8,2.2-5,5-5s5,2.2,5,5v15.6c0,0.4,0.2,0.7,0.5,0.9c3.4,2,5.5,5.6,5.5,9.5
	c0,6.1-4.9,11-11,11s-11-4.9-11-11C15,30,17.1,26.5,20.5,24.5z"/>
<path d="M26,41c3.9,0,7-3.1,7-7c0-3.5-2.6-6.4-6-6.9V12c0-0.6-0.4-1-1-1s-1,0.4-1,1v15.1c-3.4,0.5-6,3.4-6,6.9
	C19,37.9,22.1,41,26,41z M26,29c2.8,0,5,2.2,5,5s-2.2,5-5,5s-5-2.2-5-5S23.2,29,26,29z"/>
</svg>
