<?xml version="1.0" encoding="utf-8"?>
<!-- Generator: Adobe Illustrator 19.1.0, SVG Export Plug-In . SVG Version: 6.00 Build 0)  -->
<!DOCTYPE svg PUBLIC "-//W3C//DTD SVG 1.1//EN" "http://www.w3.org/Graphics/SVG/1.1/DTD/svg11.dtd">
<svg version="1.1" id="Layer_2" xmlns="http://www.w3.org/2000/svg" xmlns:xlink="http://www.w3.org/1999/xlink" x="0px" y="0px"
	 width="48px" height="48px" viewBox="0 0 48 48" enable-background="new 0 0 48 48" xml:space="preserve">
<path d="M10,33c0.6,0,1-0.4,1-1s-0.4-1-1-1c-3.9,0-7-3.1-7-7c0-3.2,2.2-6.1,5.2-6.8C8.7,17.1,9,16.7,9,16.3C9.4,8.9,15.7,3,23,3
	c7.4,0,13.4,5.6,14,13.1c0,0.5,0.5,0.9,1,0.9c3.9,0,7,3.1,7,7s-3.1,7-7,7c-0.6,0-1,0.4-1,1s0.4,1,1,1c5,0,9-4,9-9
	c0-4.7-3.6-8.5-8.1-9C37.9,7,31.2,1,23,1C14.8,1,7.8,7.4,7.1,15.4C3.5,16.6,1,20.1,1,24C1,29,5,33,10,33z"/>
<path d="M23.3,29.3C22.6,30,17,35.9,17,39.9c0,4.4,3.6,7.1,7,7.1s7-2.7,7-7.1c0-4-5.6-9.9-6.3-10.6C24.3,28.9,23.7,28.9,23.3,29.3z
	 M29,39.9c0,3.3-2.6,5.1-5,5.1s-5-1.8-5-5.1c0-2.4,3.1-6.4,5-8.4C25.9,33.5,29,37.5,29,39.9z"/>
</svg>
