<?xml version="1.0" encoding="utf-8"?>
<!-- Generator: Adobe Illustrator 19.1.0, SVG Export Plug-In . SVG Version: 6.00 Build 0)  -->
<!DOCTYPE svg PUBLIC "-//W3C//DTD SVG 1.1//EN" "http://www.w3.org/Graphics/SVG/1.1/DTD/svg11.dtd">
<svg version="1.1" id="Layer_2" xmlns="http://www.w3.org/2000/svg" xmlns:xlink="http://www.w3.org/1999/xlink" x="0px" y="0px"
	 width="48px" height="48px" viewBox="0 0 48 48" enable-background="new 0 0 48 48" xml:space="preserve">
<path d="M1,16c0,0.6,0.4,1,1,1h25.7c3.9,0,7-3.1,7-7s-3.1-7-7-7c-3,0-5.6,1.9-6.6,4.7c-0.2,0.5,0.1,1.1,0.6,1.3
	c0.5,0.2,1.1-0.1,1.3-0.6c0.7-2,2.6-3.3,4.7-3.3c2.8,0,5,2.2,5,5s-2.2,5-5,5H2C1.4,15,1,15.4,1,16z"/>
<path d="M22.7,38c0-3.9-3.1-7-7-7H2c-0.6,0-1,0.4-1,1s0.4,1,1,1h13.7c2.8,0,5,2.2,5,5s-2.2,5-5,5c-2.1,0-4-1.3-4.7-3.3
	c-0.2-0.5-0.8-0.8-1.3-0.6c-0.5,0.2-0.8,0.8-0.6,1.3c1,2.8,3.6,4.7,6.6,4.7C19.5,45,22.7,41.9,22.7,38z"/>
<path d="M40,23H2c-0.6,0-1,0.4-1,1s0.4,1,1,1h38c2.8,0,5,2.2,5,5s-2.2,5-5,5c-2.1,0-4-1.3-4.7-3.3c-0.2-0.5-0.8-0.8-1.3-0.6
	c-0.5,0.2-0.8,0.8-0.6,1.3c1,2.8,3.6,4.7,6.6,4.7c3.9,0,7-3.1,7-7S43.9,23,40,23z"/>
</svg>
