<?xml version="1.0" encoding="utf-8"?>
<!-- Generator: Adobe Illustrator 19.1.0, SVG Export Plug-In . SVG Version: 6.00 Build 0)  -->
<!DOCTYPE svg PUBLIC "-//W3C//DTD SVG 1.1//EN" "http://www.w3.org/Graphics/SVG/1.1/DTD/svg11.dtd">
<svg version="1.1" id="Layer_2" xmlns="http://www.w3.org/2000/svg" xmlns:xlink="http://www.w3.org/1999/xlink" x="0px" y="0px"
	 width="48px" height="48px" viewBox="0 0 48 48" enable-background="new 0 0 48 48" xml:space="preserve">
<path d="M10,47c0.6,0,1-0.4,1-1V2c0-0.6-0.4-1-1-1S9,1.4,9,2v44C9,46.6,9.4,47,10,47z"/>
<path d="M15.5,30.9C15.6,31,15.8,31,16,31c0.2,0,0.3,0,0.5-0.1l22-12c0.3-0.2,0.5-0.5,0.5-0.9s-0.2-0.7-0.5-0.9l-22-12
	c-0.3-0.2-0.7-0.2-1,0C15.2,5.3,15,5.6,15,6v24C15,30.4,15.2,30.7,15.5,30.9z M17,7.7L35.9,18L17,28.3V7.7z"/>
</svg>
