<?xml version="1.0" encoding="utf-8"?>
<!-- Generator: Adobe Illustrator 19.1.0, SVG Export Plug-In . SVG Version: 6.00 Build 0)  -->
<!DOCTYPE svg PUBLIC "-//W3C//DTD SVG 1.1//EN" "http://www.w3.org/Graphics/SVG/1.1/DTD/svg11.dtd">
<svg version="1.1" id="Layer_2" xmlns="http://www.w3.org/2000/svg" xmlns:xlink="http://www.w3.org/1999/xlink" x="0px" y="0px"
	 width="48px" height="48px" viewBox="0 0 48 48" enable-background="new 0 0 48 48" xml:space="preserve">
<path d="M7.7,32.7C8.3,32.8,8.8,32.5,9,32s-0.2-1.1-0.7-1.2C5.2,30,3,27.2,3,24c0-3.2,2.2-6.1,5.2-6.8C8.7,17.1,9,16.7,9,16.3
	C9.4,8.9,15.7,3,23,3c7.4,0,13.4,5.6,14,13.1c0,0.5,0.5,0.9,1,0.9c3.9,0,7,3.1,7,7c0,3.2-2.2,6-5.3,6.8c-0.5,0.1-0.9,0.7-0.7,1.2
	c0.1,0.5,0.5,0.7,1,0.7c0.1,0,0.2,0,0.3,0c4-1,6.7-4.6,6.7-8.7c0-4.7-3.6-8.5-8.1-9C37.9,7,31.2,1,23,1C14.8,1,7.8,7.4,7.1,15.4
	C3.5,16.6,1,20.1,1,24C1,28.1,3.8,31.7,7.7,32.7z"/>
<path d="M25,33c0-0.6-0.4-1-1-1s-1,0.4-1,1v2c0,0.6,0.4,1,1,1s1-0.4,1-1V33z"/>
<path d="M17,27c0-0.6-0.4-1-1-1s-1,0.4-1,1v2c0,0.6,0.4,1,1,1s1-0.4,1-1V27z"/>
<path d="M33,27c0-0.6-0.4-1-1-1s-1,0.4-1,1v2c0,0.6,0.4,1,1,1s1-0.4,1-1V27z"/>
<path d="M24,43c-0.6,0-1,0.4-1,1v2c0,0.6,0.4,1,1,1s1-0.4,1-1v-2C25,43.4,24.6,43,24,43z"/>
<path d="M16,37c-0.6,0-1,0.4-1,1v2c0,0.6,0.4,1,1,1s1-0.4,1-1v-2C17,37.4,16.6,37,16,37z"/>
<path d="M32,37c-0.6,0-1,0.4-1,1v2c0,0.6,0.4,1,1,1s1-0.4,1-1v-2C33,37.4,32.6,37,32,37z"/>
</svg>
