<?xml version="1.0" encoding="utf-8"?>
<!-- Generator: Adobe Illustrator 19.1.0, SVG Export Plug-In . SVG Version: 6.00 Build 0)  -->
<!DOCTYPE svg PUBLIC "-//W3C//DTD SVG 1.1//EN" "http://www.w3.org/Graphics/SVG/1.1/DTD/svg11.dtd">
<svg version="1.1" id="Layer_2" xmlns="http://www.w3.org/2000/svg" xmlns:xlink="http://www.w3.org/1999/xlink" x="0px" y="0px"
	 width="48px" height="48px" viewBox="0 0 48 48" enable-background="new 0 0 48 48" xml:space="preserve">
<path d="M26.7,23.3c-0.4-0.4-1-0.4-1.4,0l-2,2c-0.4,0.4-0.4,1,0,1.4c0.2,0.2,0.5,0.3,0.7,0.3s0.5-0.1,0.7-0.3l2-2
	C27.1,24.3,27.1,23.7,26.7,23.3z"/>
<path d="M31.3,18.7c0.2,0.2,0.5,0.3,0.7,0.3s0.5-0.1,0.7-0.3l12-12c0.4-0.4,0.4-1,0-1.4s-1-0.4-1.4,0l-12,12
	C30.9,17.7,30.9,18.3,31.3,18.7z"/>
<path d="M25.3,37.3l-2,2c-0.4,0.4-0.4,1,0,1.4c0.2,0.2,0.5,0.3,0.7,0.3s0.5-0.1,0.7-0.3l2-2c0.4-0.4,0.4-1,0-1.4
	S25.7,36.9,25.3,37.3z"/>
<path d="M43.3,19.3l-12,12c-0.4,0.4-0.4,1,0,1.4c0.2,0.2,0.5,0.3,0.7,0.3s0.5-0.1,0.7-0.3l12-12c0.4-0.4,0.4-1,0-1.4
	S43.7,18.9,43.3,19.3z"/>
<path d="M4,33c0.3,0,0.5-0.1,0.7-0.3l2-2c0.4-0.4,0.4-1,0-1.4s-1-0.4-1.4,0l-2,2c-0.4,0.4-0.4,1,0,1.4C3.5,32.9,3.7,33,4,33z"/>
<path d="M24.7,11.3c-0.4-0.4-1-0.4-1.4,0l-12,12c-0.4,0.4-0.4,1,0,1.4c0.2,0.2,0.5,0.3,0.7,0.3s0.5-0.1,0.7-0.3l12-12
	C25.1,12.3,25.1,11.7,24.7,11.3z"/>
</svg>
