<?xml version="1.0" encoding="utf-8"?>
<!-- Generator: Adobe Illustrator 19.1.0, SVG Export Plug-In . SVG Version: 6.00 Build 0)  -->
<!DOCTYPE svg PUBLIC "-//W3C//DTD SVG 1.1//EN" "http://www.w3.org/Graphics/SVG/1.1/DTD/svg11.dtd">
<svg version="1.1" id="Layer_2" xmlns="http://www.w3.org/2000/svg" xmlns:xlink="http://www.w3.org/1999/xlink" x="0px" y="0px"
	 width="48px" height="48px" viewBox="0 0 48 48" enable-background="new 0 0 48 48" xml:space="preserve">
<path d="M2,7h44c0.6,0,1-0.4,1-1s-0.4-1-1-1H2C1.4,5,1,5.4,1,6S1.4,7,2,7z"/>
<path d="M8,14h32c0.6,0,1-0.4,1-1s-0.4-1-1-1H8c-0.6,0-1,0.4-1,1S7.4,14,8,14z"/>
<path d="M43,20c0-0.6-0.4-1-1-1H14c-0.6,0-1,0.4-1,1s0.4,1,1,1h28C42.6,21,43,20.6,43,20z"/>
<path d="M37,27c0-0.6-0.4-1-1-1H18c-0.6,0-1,0.4-1,1s0.4,1,1,1h18C36.6,28,37,27.6,37,27z"/>
<path d="M27,34c0-0.6-0.4-1-1-1H14c-0.6,0-1,0.4-1,1s0.4,1,1,1h12C26.6,35,27,34.6,27,34z"/>
<path d="M8,42h8c0.6,0,1-0.4,1-1s-0.4-1-1-1H8c-0.6,0-1,0.4-1,1S7.4,42,8,42z"/>
</svg>
