<?xml version="1.0" encoding="utf-8"?>
<!-- Generator: Adobe Illustrator 19.1.0, SVG Export Plug-In . SVG Version: 6.00 Build 0)  -->
<!DOCTYPE svg PUBLIC "-//W3C//DTD SVG 1.1//EN" "http://www.w3.org/Graphics/SVG/1.1/DTD/svg11.dtd">
<svg version="1.1" id="Layer_2" xmlns="http://www.w3.org/2000/svg" xmlns:xlink="http://www.w3.org/1999/xlink" x="0px" y="0px"
	 width="48px" height="48px" viewBox="0 0 48 48" enable-background="new 0 0 48 48" xml:space="preserve">
<path d="M17.4,6c-0.3-0.3-0.6-0.4-1-0.3C7.4,8.2,1,16.6,1,26c0,11.6,9.4,21,21,21c9.4,0,17.8-6.4,20.2-15.5c0.1-0.3,0-0.7-0.3-1
	c-0.3-0.3-0.6-0.4-1-0.3c-1.7,0.5-3.4,0.7-5,0.7c-10.5,0-19-8.5-19-19c0-1.6,0.2-3.3,0.7-5C17.8,6.6,17.7,6.3,17.4,6z M36,33
	c1.2,0,2.5-0.1,3.8-0.4C37,40,30,45,22,45C11.5,45,3,36.5,3,26c0-8,5-15,12.4-17.8C15.1,9.5,15,10.8,15,12C15,23.6,24.4,33,36,33z"
	/>
<path d="M30,1c-0.6,0-1,0.4-1,1v3h-3c-0.6,0-1,0.4-1,1s0.4,1,1,1h3v3c0,0.6,0.4,1,1,1s1-0.4,1-1V7h3c0.6,0,1-0.4,1-1s-0.4-1-1-1h-3
	V2C31,1.4,30.6,1,30,1z"/>
<path d="M46,17h-3v-3c0-0.6-0.4-1-1-1s-1,0.4-1,1v3h-3c-0.6,0-1,0.4-1,1s0.4,1,1,1h3v3c0,0.6,0.4,1,1,1s1-0.4,1-1v-3h3
	c0.6,0,1-0.4,1-1S46.6,17,46,17z"/>
</svg>
