<?xml version="1.0" encoding="utf-8"?>
<!-- Generator: Adobe Illustrator 19.1.0, SVG Export Plug-In . SVG Version: 6.00 Build 0)  -->
<!DOCTYPE svg PUBLIC "-//W3C//DTD SVG 1.1//EN" "http://www.w3.org/Graphics/SVG/1.1/DTD/svg11.dtd">
<svg version="1.1" id="Layer_2" xmlns="http://www.w3.org/2000/svg" xmlns:xlink="http://www.w3.org/1999/xlink" x="0px" y="0px"
	 width="48px" height="48px" viewBox="0 0 48 48" enable-background="new 0 0 48 48" xml:space="preserve">
<path d="M24,1C11.3,1,1,11.3,1,24s10.3,23,23,23s23-10.3,23-23S36.7,1,24,1z M24,45C12.4,45,3,35.6,3,24S12.4,3,24,3s21,9.4,21,21
	S35.6,45,24,45z"/>
<path d="M34.3,19l-19-5c-0.3-0.1-0.7,0-1,0.3c-0.3,0.3-0.4,0.6-0.3,1l5,19c0.1,0.4,0.5,0.7,0.9,0.7c0,0,0,0,0.1,0
	c0.4,0,0.8-0.2,0.9-0.6l3.8-9.6l9.6-3.8c0.4-0.2,0.7-0.6,0.6-1S34.7,19.1,34.3,19z M23.6,23.1c-0.3,0.1-0.5,0.3-0.6,0.6l-2.9,7.2
	l-3.8-14.4l14.4,3.8L23.6,23.1z"/>
</svg>
