<?xml version="1.0" encoding="utf-8"?>
<!-- Generator: Adobe Illustrator 19.1.0, SVG Export Plug-In . SVG Version: 6.00 Build 0)  -->
<!DOCTYPE svg PUBLIC "-//W3C//DTD SVG 1.1//EN" "http://www.w3.org/Graphics/SVG/1.1/DTD/svg11.dtd">
<svg version="1.1" id="Layer_2" xmlns="http://www.w3.org/2000/svg" xmlns:xlink="http://www.w3.org/1999/xlink" x="0px" y="0px"
	 width="48px" height="48px" viewBox="0 0 48 48" enable-background="new 0 0 48 48" xml:space="preserve">
<path d="M32,42.8c0.5-0.3,0.6-0.9,0.3-1.4c-0.3-0.5-0.9-0.6-1.4-0.3C29,42.3,26.6,43,24,43c-2.8,0-5.5-0.8-7.4-2.2
	c-0.5-0.3-1.1-0.2-1.4,0.2c-0.3,0.4-0.2,1.1,0.2,1.4c2.3,1.6,5.3,2.6,8.6,2.6C26.9,45,29.8,44.2,32,42.8z"/>
<path d="M36.9,31.3c-0.4-0.4-1-0.4-1.4,0C33.2,33.6,28.8,35,24,35c-4.6,0-9-1.4-11.3-3.5c-0.4-0.4-1-0.3-1.4,0.1
	c-0.4,0.4-0.3,1,0.1,1.4C14.1,35.5,18.8,37,24,37c5.3,0,10.2-1.6,12.9-4.3C37.3,32.3,37.3,31.7,36.9,31.3z"/>
<path d="M40,23.4c-0.3-0.4-1-0.5-1.4-0.2c-3,2.3-8.6,3.8-14.6,3.8c-6,0-11.7-1.5-14.6-3.8c-0.4-0.3-1.1-0.3-1.4,0.2
	c-0.3,0.4-0.3,1.1,0.2,1.4C11.5,27.4,17.4,29,24,29c6.6,0,12.5-1.6,15.9-4.2C40.3,24.4,40.4,23.8,40,23.4z"/>
<path d="M24,21c14.9,0,23-4.6,23-9s-8.1-9-23-9S1,7.6,1,12S9.1,21,24,21z M24,5c12.4,0,21,3.7,21,7s-8.6,7-21,7S3,15.3,3,12
	S11.6,5,24,5z"/>
</svg>
