<?xml version="1.0" encoding="utf-8"?>
<!-- Generator: Adobe Illustrator 19.1.0, SVG Export Plug-In . SVG Version: 6.00 Build 0)  -->
<!DOCTYPE svg PUBLIC "-//W3C//DTD SVG 1.1//EN" "http://www.w3.org/Graphics/SVG/1.1/DTD/svg11.dtd">
<svg version="1.1" id="Layer_2" xmlns="http://www.w3.org/2000/svg" xmlns:xlink="http://www.w3.org/1999/xlink" x="0px" y="0px"
	 width="48px" height="48px" viewBox="0 0 48 48" enable-background="new 0 0 48 48" xml:space="preserve">
<path d="M16,29c7.2,0,13-5.8,13-13S23.2,3,16,3S3,8.8,3,16S8.8,29,16,29z M16,5c6.1,0,11,4.9,11,11s-4.9,11-11,11S5,22.1,5,16
	S9.9,5,16,5z"/>
<path d="M36,45c5,0,9-4,9-9s-4-9-9-9s-9,4-9,9S31,45,36,45z M36,29c3.9,0,7,3.1,7,7s-3.1,7-7,7s-7-3.1-7-7S32.1,29,36,29z"/>
<path d="M40,19c2.8,0,5-2.2,5-5s-2.2-5-5-5s-5,2.2-5,5S37.2,19,40,19z M40,11c1.7,0,3,1.3,3,3s-1.3,3-3,3s-3-1.3-3-3S38.3,11,40,11z
	"/>
</svg>
