<?xml version="1.0" encoding="utf-8"?>
<!-- Generator: Adobe Illustrator 19.1.0, SVG Export Plug-In . SVG Version: 6.00 Build 0)  -->
<!DOCTYPE svg PUBLIC "-//W3C//DTD SVG 1.1//EN" "http://www.w3.org/Graphics/SVG/1.1/DTD/svg11.dtd">
<svg version="1.1" id="Layer_2" xmlns="http://www.w3.org/2000/svg" xmlns:xlink="http://www.w3.org/1999/xlink" x="0px" y="0px"
	 width="48px" height="48px" viewBox="0 0 48 48" enable-background="new 0 0 48 48" xml:space="preserve">
<path d="M7.7,7.7c-0.4,0.4-0.4,1,0,1.4l1.4,1.4c0.2,0.2,0.5,0.3,0.7,0.3s0.5-0.1,0.7-0.3c0.4-0.4,0.4-1,0-1.4L9.1,7.7
	C8.7,7.3,8.1,7.3,7.7,7.7z"/>
<path d="M23,2v2c0,0.6,0.4,1,1,1s1-0.4,1-1V2c0-0.6-0.4-1-1-1S23,1.4,23,2z"/>
<path d="M38.9,7.7l-1.4,1.4c-0.4,0.4-0.4,1,0,1.4c0.2,0.2,0.5,0.3,0.7,0.3s0.5-0.1,0.7-0.3l1.4-1.4c0.4-0.4,0.4-1,0-1.4
	S39.3,7.3,38.9,7.7z"/>
<path d="M46,25c0.6,0,1-0.4,1-1s-0.4-1-1-1h-2c-0.6,0-1,0.4-1,1s0.4,1,1,1H46z"/>
<path d="M38.9,40.3c0.2,0.2,0.5,0.3,0.7,0.3s0.5-0.1,0.7-0.3c0.4-0.4,0.4-1,0-1.4l-1.4-1.4c-0.4-0.4-1-0.4-1.4,0
	c-0.4,0.4-0.4,1,0,1.4L38.9,40.3z"/>
<path d="M37,24c0-7.2-5.8-13-13-13s-13,5.8-13,13c0,0.6,0.4,1,1,1s1-0.4,1-1c0-6.1,4.9-11,11-11s11,4.9,11,11s-4.9,11-11,11
	c-0.6,0-1,0.4-1,1s0.4,1,1,1C31.2,37,37,31.2,37,24z"/>
<path d="M2,37h14c0.6,0,1-0.4,1-1s-0.4-1-1-1H2c-0.6,0-1,0.4-1,1S1.4,37,2,37z"/>
<path d="M5,29c0,0.6,0.4,1,1,1h14c0.6,0,1-0.4,1-1s-0.4-1-1-1H6C5.4,28,5,28.4,5,29z"/>
<path d="M27,43c0-0.6-0.4-1-1-1H10c-0.6,0-1,0.4-1,1s0.4,1,1,1h16C26.6,44,27,43.6,27,43z"/>
</svg>
