<?xml version="1.0" encoding="utf-8"?>
<!-- Generator: Adobe Illustrator 20.0.0, SVG Export Plug-In . SVG Version: 6.00 Build 0)  -->
<!DOCTYPE svg PUBLIC "-//W3C//DTD SVG 1.1//EN" "http://www.w3.org/Graphics/SVG/1.1/DTD/svg11.dtd">
<svg version="1.1" id="Layer_1" xmlns="http://www.w3.org/2000/svg" xmlns:xlink="http://www.w3.org/1999/xlink" x="0px" y="0px"
	 width="64px" height="64px" viewBox="0 0 64 64" enable-background="new 0 0 64 64" xml:space="preserve">
<path d="M47.388,29.639c-0.639,0-0.976,0.583-1.054,1.828h2.053C48.341,30.233,48.016,29.639,47.388,29.639z"/>
<path d="M58,9H6c-2.757,0-5,2.243-5,5v36c0,2.757,2.243,5,5,5h52c2.757,0,5-2.243,5-5V14C63,11.243,60.757,9,58,9z M18.508,36.134
	c-0.561,0.449-1.391,0.684-2.389,0.684c-1.256,0-2.468-0.381-3.118-0.752l0.337-2.098c0.763,0.449,1.929,0.796,2.636,0.796
	c0.572,0,0.886-0.213,0.886-0.583c0-0.381-0.325-0.628-1.301-0.976c-1.514-0.55-2.445-1.2-2.445-2.726
	c0-0.841,0.303-1.537,0.886-2.019c0.561-0.46,1.346-0.707,2.288-0.707c1.335,0,2.3,0.37,2.771,0.595l-0.337,2.075
	c-0.594-0.292-1.458-0.617-2.3-0.617c-0.46,0-0.718,0.179-0.718,0.494c0,0.37,0.449,0.606,1.268,0.909
	c1.537,0.55,2.49,1.2,2.49,2.759C19.461,34.911,19.136,35.64,18.508,36.134z M24.285,34.552c0.258,0,0.639-0.079,0.808-0.123v2.187
	c-0.303,0.079-0.74,0.202-1.458,0.202c-0.931,0-1.593-0.179-2.053-0.55c-0.55-0.449-0.819-1.178-0.819-2.232v-4.049h-1.151
	l0.315-1.928l0.84-0.136l0.345-2.112l2.389-0.393v2.506h1.777l-0.336,2.064h-1.44v3.646C23.499,34.271,23.735,34.552,24.285,34.552z
	 M30.802,30.438c-0.191-0.034-0.348-0.034-0.494-0.034c-0.673,0-1.167,0.154-1.514,0.58v5.665h-2.782v-8.727h2.434l0.168,1.032
	c0.247-0.74,0.875-1.153,1.66-1.153c0.168,0,0.337,0.022,0.527,0.067V30.438z M34.268,36.65h-2.793v-8.727h2.793V36.65z
	 M32.877,27.059c-0.819,0-1.469-0.662-1.469-1.469c0-0.819,0.651-1.469,1.469-1.469c0.808,0,1.458,0.651,1.458,1.469
	C34.335,26.397,33.685,27.059,32.877,27.059z M41.892,35.786c-0.785,0.853-1.795,1.032-2.49,1.032c-0.393,0-0.83-0.067-1.256-0.202
	v2.804l-2.782,0.46V27.922h2.445l0.146,0.875c0.662-0.707,1.368-1.043,2.176-1.043c0.875,0,1.559,0.314,2.053,0.953
	c0.561,0.718,0.841,1.84,0.841,3.32C43.024,33.699,42.643,34.967,41.892,35.786z M50.966,33.172h-4.61
	c0.056,0.572,0.224,0.976,0.516,1.223c0.269,0.236,0.639,0.348,1.178,0.348c0.897,0,1.694-0.202,2.378-0.572l0.303,1.907
	c-0.695,0.46-1.795,0.74-2.984,0.74c-1.29,0-2.288-0.336-2.984-1.01c-0.774-0.752-1.167-1.929-1.167-3.5
	c0-2.804,1.469-4.554,3.836-4.554c1.155,0,2.064,0.404,2.67,1.189C50.697,29.717,51,30.817,51,32.208
	C51,32.409,50.978,33.038,50.966,33.172z"/>
<path d="M39.199,29.874c-0.157,0-0.583,0.056-1.054,0.55v4.15c0.224,0.112,0.471,0.168,0.752,0.168c0.404,0,0.752-0.224,0.976-0.651
	c0.258-0.449,0.381-1.111,0.381-1.963C40.254,30.637,39.906,29.874,39.199,29.874z"/>
</svg>
