<?xml version="1.0" encoding="utf-8"?>
<!-- Generator: Adobe Illustrator 20.0.0, SVG Export Plug-In . SVG Version: 6.00 Build 0)  -->
<!DOCTYPE svg PUBLIC "-//W3C//DTD SVG 1.1//EN" "http://www.w3.org/Graphics/SVG/1.1/DTD/svg11.dtd">
<svg version="1.1" id="Layer_1" xmlns="http://www.w3.org/2000/svg" xmlns:xlink="http://www.w3.org/1999/xlink" x="0px" y="0px"
	 width="64px" height="64px" viewBox="0 0 64 64" enable-background="new 0 0 64 64" xml:space="preserve">
<path d="M52.302,29.374h-0.457v2.309h0.432c0.954,0,1.453-0.411,1.453-1.175C53.73,29.764,53.232,29.374,52.302,29.374z"/>
<path d="M9.962,29.465h-0.4v5.048h0.4c0.964,0,1.566-0.185,2.04-0.608c0.512-0.456,0.82-1.189,0.82-1.925
	c0-0.732-0.308-1.44-0.82-1.899C11.505,29.638,10.926,29.465,9.962,29.465z"/>
<path d="M58,9H6c-2.757,0-5,2.243-5,5v36c0,2.757,2.243,5,5,5h52c2.757,0,5-2.243,5-5V14C63,11.243,60.757,9,58,9z M12.972,34.924
	c-0.732,0.608-1.568,0.883-2.725,0.883H8.072v-7.635h2.188c2.414,0,4.097,1.565,4.097,3.819
	C14.358,33.118,13.842,34.205,12.972,34.924z M16.529,35.807h-1.484v-7.635h1.484V35.807z M19.736,35.992
	c-1.133,0-1.956-0.449-2.642-1.455l0.96-0.93c0.343,0.666,0.916,1.021,1.624,1.021c0.665,0,1.157-0.457,1.157-1.078
	c0-0.319-0.148-0.594-0.446-0.787c-0.151-0.094-0.447-0.233-1.031-0.436c-1.397-0.508-1.876-1.044-1.876-2.099
	c0-1.243,1.03-2.183,2.381-2.183c0.835,0,1.601,0.285,2.241,0.849L21.33,29.91c-0.391-0.436-0.759-0.615-1.205-0.615
	c-0.643,0-1.111,0.364-1.111,0.844c0,0.413,0.262,0.631,1.157,0.96c1.694,0.62,2.199,1.17,2.199,2.384
	C22.371,34.957,21.282,35.992,19.736,35.992z M28.733,30.219c-0.618-0.609-1.157-0.859-1.864-0.859
	c-1.399,0-2.496,1.158-2.496,2.621c0,1.548,1.062,2.632,2.561,2.632c0.677,0,1.201-0.237,1.798-0.836v1.755
	c-0.675,0.319-1.224,0.445-1.864,0.445c-2.268,0-4.031-1.74-4.031-3.985c0-2.218,1.806-3.992,4.062-3.992
	c0.645,0,1.18,0.137,1.833,0.466V30.219z M33.368,35.977c-2.326,0-4.071-1.72-4.071-4.025c0-2.167,1.824-3.922,4.071-3.922
	c2.283,0,4.06,1.745,4.06,3.967C37.429,34.232,35.639,35.977,33.368,35.977z M41.172,36h-0.798l-3.237-7.827h1.623l2.036,5.126
	l2.064-5.126h1.61L41.172,36z M49.369,29.465h-2.733v1.694h2.629v1.293h-2.629v2.061h2.733v1.294h-4.222v-7.635h4.222V29.465z
	 M54.096,35.807l-2.057-3.07h-0.194v3.07h-1.493v-7.635h2.211c1.719,0,2.7,0.823,2.7,2.253c0,1.168-0.615,1.935-1.738,2.164
	l2.402,3.218H54.096z"/>
</svg>
