<?xml version="1.0" encoding="utf-8"?>
<!-- Generator: Adobe Illustrator 20.0.0, SVG Export Plug-In . SVG Version: 6.00 Build 0)  -->
<!DOCTYPE svg PUBLIC "-//W3C//DTD SVG 1.1//EN" "http://www.w3.org/Graphics/SVG/1.1/DTD/svg11.dtd">
<svg version="1.1" id="Layer_1" xmlns="http://www.w3.org/2000/svg" xmlns:xlink="http://www.w3.org/1999/xlink" x="0px" y="0px"
	 width="64px" height="64px" viewBox="0 0 64 64" enable-background="new 0 0 64 64" xml:space="preserve">
<path d="M33.26,30.625h-5.318c0.059-0.469,0.151-0.927,0.267-1.375H32.9c-0.172-0.48-0.385-0.94-0.639-1.375h-3.602
	c0.194-0.477,0.424-0.934,0.681-1.375h1.911c-1.522-1.683-3.722-2.75-6.175-2.75c-4.581,0-8.308,3.701-8.308,8.25
	s3.727,8.25,8.308,8.25c1.874,0,3.599-0.627,4.99-1.67c-0.261-0.346-0.508-0.704-0.727-1.08h1.911
	c0.382-0.422,0.721-0.881,1.009-1.375h-3.602c-0.181-0.444-0.327-0.904-0.45-1.375H32.9c0.158-0.443,0.279-0.901,0.36-1.375h-5.318
	c-0.057-0.451-0.096-0.908-0.096-1.375h5.539C33.385,31.531,33.336,31.073,33.26,30.625z"/>
<path d="M58,9H6c-2.757,0-5,2.243-5,5v36c0,2.757,2.243,5,5,5h52c2.757,0,5-2.243,5-5V14C63,11.243,60.757,9,58,9z M38.923,43
	c-2.621,0-5.02-0.914-6.915-2.427C30.11,42.089,27.702,43,25.077,43C18.959,43,14,38.075,14,32s4.959-11,11.077-11
	c2.621,0,5.025,0.909,6.922,2.42c1.896-1.513,4.302-2.42,6.924-2.42C45.041,21,50,25.925,50,32S45.041,43,38.923,43z"/>
</svg>
