<?xml version="1.0" encoding="utf-8"?>
<!-- Generator: Adobe Illustrator 20.0.0, SVG Export Plug-In . SVG Version: 6.00 Build 0)  -->
<!DOCTYPE svg PUBLIC "-//W3C//DTD SVG 1.1//EN" "http://www.w3.org/Graphics/SVG/1.1/DTD/svg11.dtd">
<svg version="1.1" id="Layer_1" xmlns="http://www.w3.org/2000/svg" xmlns:xlink="http://www.w3.org/1999/xlink" x="0px" y="0px"
	 width="64px" height="64px" viewBox="0 0 64 64" enable-background="new 0 0 64 64" xml:space="preserve">
<path d="M30.036,31.329c0,0.536,0.278,0.898,0.753,0.898c0.348,0,0.66-0.214,0.857-0.563c0.243-0.429,0.232-0.831,0.232-1.313
	v-0.268C30.982,30.082,30.036,30.274,30.036,31.329z"/>
<path d="M43.17,27.756c-0.913,0-0.971,1.243-0.971,2.019s-0.012,2.433,0.959,2.433c0.959,0,1.005-1.337,1.005-2.153
	c0-0.535-0.023-1.177-0.185-1.685C43.84,27.93,43.563,27.756,43.17,27.756z"/>
<path d="M13.807,31.329c0,0.536,0.278,0.898,0.753,0.898c0.348,0,0.66-0.214,0.857-0.563c0.243-0.429,0.232-0.831,0.232-1.313
	v-0.268C14.753,30.082,13.807,30.274,13.807,31.329z"/>
<path d="M58,9H6c-2.757,0-5,2.243-5,5v36c0,2.757,2.243,5,5,5h52c2.757,0,5-2.243,5-5V14C63,11.243,60.757,9,58,9z M31.727,28.032
	c-0.151-0.228-0.44-0.322-0.695-0.322c-0.472,0-0.892,0.242-0.995,0.743c-0.021,0.112-0.103,0.222-0.215,0.228l-1.2-0.13
	c-0.101-0.023-0.214-0.104-0.185-0.259c0.276-1.456,1.59-1.896,2.769-1.896c0.602,0,1.39,0.161,1.865,0.616
	c0.602,0.563,0.544,1.313,0.544,2.131v1.929c0,0.58,0.241,0.835,0.467,1.147c0.079,0.113,0.097,0.247-0.004,0.329
	c-0.253,0.212-0.702,0.602-0.949,0.822l-0.003-0.003c-0.082,0.073-0.2,0.078-0.293,0.029c-0.411-0.342-0.485-0.5-0.71-0.825
	c-0.68,0.692-1.161,0.9-2.041,0.9c-1.042,0-1.853-0.643-1.853-1.93c0-1.005,0.544-1.688,1.32-2.023
	c0.672-0.295,1.61-0.348,2.328-0.429V28.93C31.877,28.635,31.901,28.287,31.727,28.032z M18.819,26.822
	c0-0.127,0.107-0.229,0.239-0.229l1.153,0c0.121,0.006,0.218,0.098,0.225,0.213v0.83h0.023c0.3-0.802,0.867-1.177,1.629-1.177
	c0.774,0,1.26,0.374,1.606,1.177c0.3-0.802,0.982-1.177,1.71-1.177c0.52,0,1.086,0.214,1.433,0.695
	c0.393,0.535,0.312,1.31,0.312,1.992l-0.001,4.01c0,0.127-0.107,0.229-0.239,0.229h-1.237c-0.124-0.008-0.222-0.106-0.222-0.228
	l0-3.368c0-0.267,0.023-0.936-0.035-1.19c-0.092-0.428-0.37-0.548-0.728-0.548c-0.3,0-0.613,0.201-0.74,0.521
	c-0.127,0.321-0.115,0.856-0.115,1.217v3.368c0,0.127-0.107,0.229-0.239,0.229h-1.237c-0.124-0.008-0.222-0.106-0.222-0.228
	l-0.001-3.368c0-0.709,0.116-1.752-0.763-1.752c-0.89,0-0.855,1.016-0.855,1.752l-0.001,3.368c0,0.127-0.107,0.229-0.239,0.229
	h-1.238c-0.118-0.008-0.212-0.096-0.221-0.209L18.819,26.822z M16.896,33.369c-0.082,0.073-0.2,0.078-0.293,0.029
	c-0.411-0.342-0.485-0.5-0.71-0.825c-0.68,0.692-1.161,0.9-2.041,0.9c-1.042,0-1.853-0.643-1.853-1.93
	c0-1.005,0.544-1.688,1.32-2.023c0.672-0.295,1.61-0.348,2.328-0.429V28.93c0-0.295,0.023-0.643-0.15-0.898
	c-0.151-0.228-0.44-0.322-0.695-0.322c-0.472,0-0.892,0.242-0.995,0.743c-0.022,0.112-0.103,0.222-0.215,0.228l-1.2-0.13
	c-0.101-0.023-0.214-0.104-0.185-0.259c0.276-1.456,1.59-1.896,2.768-1.896c0.602,0,1.39,0.161,1.865,0.616
	c0.602,0.563,0.544,1.313,0.544,2.131v1.929c0,0.58,0.241,0.835,0.467,1.147c0.079,0.113,0.097,0.247-0.004,0.329
	c-0.253,0.212-0.702,0.602-0.949,0.822L16.896,33.369z M36.815,35.824c-2.324,1.715-5.693,2.627-8.595,2.627
	c-4.066,0-7.728-1.503-10.499-4.005c-0.218-0.196-0.023-0.465,0.238-0.313c2.99,1.74,6.687,2.787,10.505,2.787
	c2.576,0,5.407-0.535,8.013-1.64C36.871,35.115,37.2,35.54,36.815,35.824z M37.461,37.507c-0.192,0.16-0.374,0.075-0.289-0.137
	c0.28-0.701,0.909-2.269,0.611-2.65c-0.297-0.381-1.965-0.18-2.714-0.091c-0.227,0.027-0.262-0.171-0.057-0.315
	c1.33-0.935,3.51-0.665,3.763-0.352C39.03,34.279,38.707,36.464,37.461,37.507z M39.778,32.986c0,0.134-0.146,0.288-0.3,0.208
	c-1.253-0.656-2.915-0.728-4.3,0.008c-0.141,0.075-0.29-0.077-0.29-0.21V32.07c0-0.147,0.003-0.399,0.151-0.624l2.442-3.504
	l-2.126,0c-0.13,0-0.234-0.093-0.235-0.229v-0.908c0.001-0.138,0.105-0.23,0.23-0.23l4.069,0c0.13,0,0.234,0.095,0.235,0.229
	l0,0.779c-0.001,0.131-0.111,0.301-0.306,0.572l-2.108,3.01c0.782-0.018,1.61,0.099,2.321,0.498c0.16,0.09,0.203,0.224,0.216,0.354
	V32.986z M43.159,33.519c-1.803,0-2.785-1.578-2.785-3.543c0-1.979,0.994-3.517,2.785-3.517c1.838,0,2.831,1.578,2.831,3.583
	C45.99,31.981,44.892,33.519,43.159,33.519z M52,33.185c-0.014,0.113-0.115,0.2-0.237,0.2h-1.241
	c-0.115-0.007-0.207-0.092-0.221-0.2v-3.45c0-0.695,0.081-1.711-0.774-1.711c-0.301,0-0.578,0.201-0.716,0.508
	c-0.173,0.388-0.197,0.776-0.197,1.203v3.421c-0.002,0.127-0.109,0.229-0.241,0.229h-1.233c-0.124-0.008-0.222-0.106-0.222-0.228
	L46.915,26.8c0.01-0.116,0.113-0.207,0.238-0.207l1.148,0c0.108,0.006,0.197,0.079,0.22,0.178v0.972h0.023
	c0.347-0.869,0.832-1.284,1.687-1.284c0.555,0,1.098,0.201,1.445,0.749C52,27.716,52,28.571,52,29.186V33.185z"/>
</svg>
