<?xml version="1.0" encoding="utf-8"?>
<!-- Generator: Adobe Illustrator 20.0.0, SVG Export Plug-In . SVG Version: 6.00 Build 0)  -->
<!DOCTYPE svg PUBLIC "-//W3C//DTD SVG 1.1//EN" "http://www.w3.org/Graphics/SVG/1.1/DTD/svg11.dtd">
<svg version="1.1" id="Layer_1" xmlns="http://www.w3.org/2000/svg" xmlns:xlink="http://www.w3.org/1999/xlink" x="0px" y="0px"
	 width="64px" height="64px" viewBox="0 0 64 64" enable-background="new 0 0 64 64" xml:space="preserve">
<path d="M38.923,23.75c-2.452,0-4.653,1.067-6.175,2.75h1.911c0.257,0.441,0.487,0.898,0.681,1.375h-3.602
	c-0.254,0.435-0.468,0.895-0.639,1.375h4.691c0.117,0.448,0.208,0.906,0.267,1.375H30.74c-0.076,0.448-0.125,0.906-0.125,1.375
	h5.539c0,0.467-0.039,0.924-0.096,1.375H30.74c0.08,0.474,0.201,0.932,0.36,1.375h4.691c-0.122,0.471-0.268,0.931-0.45,1.375h-3.602
	c0.289,0.494,0.627,0.953,1.009,1.375h1.911c-0.219,0.376-0.466,0.734-0.727,1.08c1.391,1.043,3.116,1.67,4.99,1.67
	c4.581,0,8.308-3.701,8.308-8.25S43.504,23.75,38.923,23.75z"/>
<path d="M58,9H6c-2.757,0-5,2.243-5,5v36c0,2.757,2.243,5,5,5h52c2.757,0,5-2.243,5-5V14C63,11.243,60.757,9,58,9z M38.923,43
	c-2.625,0-5.033-0.911-6.932-2.427C30.097,42.086,27.698,43,25.077,43C18.959,43,14,38.075,14,32s4.959-11,11.077-11
	c2.622,0,5.028,0.907,6.924,2.42c1.897-1.511,4.301-2.42,6.922-2.42C45.041,21,50,25.925,50,32S45.041,43,38.923,43z"/>
</svg>
