<?xml version="1.0" encoding="utf-8"?>
<!-- Generator: Adobe Illustrator 20.0.0, SVG Export Plug-In . SVG Version: 6.00 Build 0)  -->
<!DOCTYPE svg PUBLIC "-//W3C//DTD SVG 1.1//EN" "http://www.w3.org/Graphics/SVG/1.1/DTD/svg11.dtd">
<svg version="1.1" id="Layer_1" xmlns="http://www.w3.org/2000/svg" xmlns:xlink="http://www.w3.org/1999/xlink" x="0px" y="0px"
	 width="64px" height="64px" viewBox="0 0 64 64" enable-background="new 0 0 64 64" xml:space="preserve">
<path d="M58,9H6c-2.757,0-5,2.243-5,5v36c0,2.757,2.243,5,5,5h52c2.757,0,5-2.243,5-5V14C63,11.243,60.757,9,58,9z M24.2,41.1
	c0,2.154-1.741,3.9-3.895,3.9c-1.634,0-3.794,0-6.505,0v-9.132c1.583,0.436,5.403,0.921,7.647,0.067
	c1.413-0.534,2.15-1.543,2.15-3.073v-5.028H19.87v5.028c0,1.016-0.559,1.798-1.555,2.055c-1.285,0.332-3.168-0.229-4.515-0.88V22.9
	c0-2.154,1.746-3.9,3.9-3.9h6.5V41.1z M37.2,41.1c0,2.154-1.744,3.9-3.898,3.9c-1.607,0-3.75,0-6.502,0V34.995
	c1.036,0.889,2.497,1.227,3.847,1.353c1.74,0.153,3.624,0.018,5.636-0.479v-1.833c-1.177,0.585-2.64,1.112-4.3,0.945
	c-1.823-0.212-2.731-1.352-2.731-2.98c0-1.712,1.007-2.808,2.773-2.986c1.416-0.141,2.928,0.282,4.259,0.951v-1.834
	c-1.864-0.46-3.483-0.583-5.01-0.521c-1.555,0.076-3.296,0.385-4.474,1.396V22.9c0-2.154,1.746-3.9,3.9-3.9h6.5V41.1z M50.2,41.1
	c0,2.154-1.746,3.9-3.9,3.9h-6.5v-8.834c0.029,0,6.712,0,6.74,0c1.465-0.012,2.737-0.757,2.737-2.165
	c0-0.093-0.006-0.183-0.019-0.271c-0.147-1.058-1.146-1.718-2.464-1.82l0-0.05c1.315-0.204,1.973-1.043,1.973-1.989
	c0-0.693-0.323-1.256-0.93-1.616c-0.729-0.431-1.552-0.42-2.3-0.42c-1.125,0-4.614,0-5.737,0V22.9c0-2.154,1.746-3.9,3.9-3.9h6.5
	V41.1z M44.365,32.527c0.698,0,1.099,0.375,1.213,0.877c0.019,0.084,0.029,0.173,0.029,0.266c0,0.093-0.01,0.183-0.029,0.267
	c-0.115,0.509-0.538,0.876-1.171,0.876c-0.883,0-1.625,0-2.489,0v-2.286C42.811,32.527,43.473,32.527,44.365,32.527z M41.919,31.238
	v-2.11c1.098,0,1.082,0,2.196,0c0.689,0,1.066,0.333,1.171,0.811c0.017,0.077,0.026,0.158,0.026,0.244
	c0,0.085-0.009,0.167-0.026,0.243c-0.13,0.591-0.602,0.811-1.213,0.811C43.353,31.238,42.709,31.238,41.919,31.238z"/>
</svg>
