<?xml version="1.0" encoding="utf-8"?>
<!-- Generator: Adobe Illustrator 20.0.0, SVG Export Plug-In . SVG Version: 6.00 Build 0)  -->
<!DOCTYPE svg PUBLIC "-//W3C//DTD SVG 1.1//EN" "http://www.w3.org/Graphics/SVG/1.1/DTD/svg11.dtd">
<svg version="1.1" id="Layer_1" xmlns="http://www.w3.org/2000/svg" xmlns:xlink="http://www.w3.org/1999/xlink" x="0px" y="0px"
	 width="64px" height="64px" viewBox="0 0 64 64" enable-background="new 0 0 64 64" xml:space="preserve">
<path d="M45.097,33.706h2.63c-0.937-4.299-0.519-2.355-0.948-4.359C46.522,30.051,45.228,33.371,45.097,33.706z"/>
<path d="M58,9H6c-2.757,0-5,2.243-5,5v36c0,2.757,2.243,5,5,5h52c2.757,0,5-2.243,5-5V14C63,11.243,60.757,9,58,9z M18.576,37.818
	L15.759,27.72c-0.974-0.54-2.086-0.974-3.328-1.275l0.04-0.242h5.11c0.688,0.026,1.245,0.245,1.436,0.981l1.111,5.342l0.331,1.611
	l3.102-7.928h3.357l-4.989,11.603L18.576,37.818z M29.386,37.828h-3.167L28.2,26.202h3.169L29.386,37.828z M34.901,38
	c-1.421-0.015-2.79-0.296-3.53-0.62l0.445-2.603c1.276,0.578,1.985,0.795,3.391,0.795c0.911,0,1.888-0.356,1.896-1.135
	c0.006-0.509-0.409-0.872-1.642-1.442c-1.202-0.556-2.794-1.488-2.777-3.158C32.702,27.577,34.908,26,38.039,26
	c1.229,0,2.212,0.253,2.84,0.488l-0.43,2.52c-0.822-0.388-1.641-0.595-2.656-0.58c-1.24,0-1.815,0.517-1.815,1
	c-0.007,0.545,0.671,0.903,1.779,1.441c1.828,0.83,2.672,1.836,2.66,3.159C40.394,36.441,38.231,38,34.901,38z M48.629,37.831
	c0,0-0.291-1.335-0.386-1.742c-0.462,0-3.695-0.005-4.058-0.005c-0.123,0.314-0.667,1.747-0.667,1.747h-3.327l4.706-10.654
	c0.333-0.757,0.901-0.964,1.659-0.964h2.449l2.565,11.618H48.629z"/>
</svg>
