<?xml version="1.0" encoding="utf-8"?>
<!-- Generator: Adobe Illustrator 20.0.0, SVG Export Plug-In . SVG Version: 6.00 Build 0)  -->
<!DOCTYPE svg PUBLIC "-//W3C//DTD SVG 1.1//EN" "http://www.w3.org/Graphics/SVG/1.1/DTD/svg11.dtd">
<svg version="1.1" id="Layer_1" xmlns="http://www.w3.org/2000/svg" xmlns:xlink="http://www.w3.org/1999/xlink" x="0px" y="0px"
	 width="64px" height="64px" viewBox="0 0 64 64" enable-background="new 0 0 64 64" xml:space="preserve">
<circle cx="38.5" cy="37.5" r="3.5"/>
<circle cx="58.5" cy="37.5" r="3.5"/>
<path d="M57.986,30.164l2-12c0.049-0.29-0.033-0.586-0.224-0.811C59.573,17.129,59.294,17,59,17H36.781l-0.812-3.242
	C35.858,13.312,35.459,13,35,13h-4c-0.553,0-1,0.447-1,1s0.447,1,1,1h3.219l3.812,15.242C38.142,30.688,38.541,31,39,31h18
	C57.489,31,57.906,30.646,57.986,30.164z"/>
<path d="M46,47c0,1.105-0.895,2-2,2H14c-1.105,0-2-0.895-2-2V7c0-1.105,0.895-2,2-2h30c1.105,0,2,0.895,2,2v6h4V6
	c0-2.757-2.243-5-5-5H13c-2.757,0-5,2.243-5,5v52c0,2.757,2.243,5,5,5h32c2.757,0,5-2.243,5-5V35h-4V47z M29,59
	c-1.654,0-3-1.346-3-3s1.346-3,3-3s3,1.346,3,3S30.654,59,29,59z"/>
</svg>
