<?xml version="1.0" encoding="utf-8"?>
<!-- Generator: Adobe Illustrator 20.0.0, SVG Export Plug-In . SVG Version: 6.00 Build 0)  -->
<!DOCTYPE svg PUBLIC "-//W3C//DTD SVG 1.1//EN" "http://www.w3.org/Graphics/SVG/1.1/DTD/svg11.dtd">
<svg version="1.1" id="Layer_1" xmlns="http://www.w3.org/2000/svg" xmlns:xlink="http://www.w3.org/1999/xlink" x="0px" y="0px"
	 width="64px" height="64px" viewBox="0 0 64 64" enable-background="new 0 0 64 64" xml:space="preserve">
<path d="M53,40V1c0-0.552-0.448-1-1-1H12c-0.552,0-1,0.448-1,1v39c0,3.909,2.51,7.235,6,8.475V37c0-1.654,1.346-3,3-3h24
	c1.654,0,3,1.346,3,3v11.475C50.49,47.235,53,43.909,53,40z M46,18c0,0.552-0.448,1-1,1H19c-0.552,0-1-0.448-1-1V8
	c0-0.552,0.448-1,1-1h26c0.552,0,1,0.448,1,1V18z"/>
<path d="M19,37v25c0,1.105,0.895,2,2,2h4V36h-5C19.448,36,19,36.448,19,37z"/>
<path d="M30,36v28h13c1.105,0,2-0.895,2-2V37c0-0.552-0.448-1-1-1H30z M39,57c0,0.552-0.448,1-1,1s-1-0.448-1-1v-8
	c0-0.552,0.448-1,1-1s1,0.448,1,1V57z"/>
</svg>
