<?xml version="1.0" encoding="utf-8"?>
<!-- Generator: Adobe Illustrator 20.0.0, SVG Export Plug-In . SVG Version: 6.00 Build 0)  -->
<!DOCTYPE svg PUBLIC "-//W3C//DTD SVG 1.1//EN" "http://www.w3.org/Graphics/SVG/1.1/DTD/svg11.dtd">
<svg version="1.1" id="Layer_1" xmlns="http://www.w3.org/2000/svg" xmlns:xlink="http://www.w3.org/1999/xlink" x="0px" y="0px"
	 width="64px" height="64px" viewBox="0 0 64 64" enable-background="new 0 0 64 64" xml:space="preserve">
<path d="M51,2c-6.627,0-12,5.373-12,12s5.373,12,12,12s12-5.373,12-12S57.627,2,51,2z M56,15H46c-0.552,0-1-0.448-1-1s0.448-1,1-1
	h10c0.552,0,1,0.448,1,1S56.552,15,56,15z"/>
<circle cx="18" cy="56" r="6"/>
<circle cx="55" cy="56" r="6"/>
<path d="M1,6h7.278l5.744,38.297C14.169,45.276,15.01,46,16,46h40c0.974,0,1.806-0.701,1.971-1.66l3.664-21.249
	C59.067,26.092,55.259,28,51,28c-7.732,0-14-6.268-14-14c0-0.338,0.027-0.668,0.05-1H13.373l-1.395-9.297C11.831,2.724,10.99,2,10,2
	H1V6z"/>
</svg>
