<?xml version="1.0" encoding="utf-8"?>
<!-- Generator: Adobe Illustrator 20.0.0, SVG Export Plug-In . SVG Version: 6.00 Build 0)  -->
<!DOCTYPE svg PUBLIC "-//W3C//DTD SVG 1.1//EN" "http://www.w3.org/Graphics/SVG/1.1/DTD/svg11.dtd">
<svg version="1.1" id="layer" xmlns="http://www.w3.org/2000/svg" xmlns:xlink="http://www.w3.org/1999/xlink" x="0px" y="0px"
	 width="64px" height="64px" viewBox="0 0 64 64" enable-background="new 0 0 64 64" xml:space="preserve">
<circle fill="#1D1D1B" cx="14" cy="14" r="6"/>
<path fill="#1D1D1B" d="M14,27c7.168,0,13-5.832,13-13S21.168,1,14,1S1,6.832,1,14S6.832,27,14,27z M14,6c4.411,0,8,3.589,8,8
	s-3.589,8-8,8s-8-3.589-8-8S9.589,6,14,6z"/>
<circle fill="#1D1D1B" cx="50" cy="50" r="6"/>
<path fill="#1D1D1B" d="M50,37c-7.168,0-13,5.832-13,13s5.832,13,13,13s13-5.832,13-13S57.168,37,50,37z M50,58
	c-4.411,0-8-3.589-8-8s3.589-8,8-8s8,3.589,8,8S54.411,58,50,58z"/>
<path fill="#1D1D1B" d="M43.293,24.707C43.488,24.902,43.744,25,44,25s0.512-0.098,0.707-0.293c0.391-0.391,0.391-1.023,0-1.414
	L38.414,17H48c3.86,0,7,3.14,7,7v6c0,0.552,0.448,1,1,1s1-0.448,1-1v-6c0-4.962-4.038-9-9-9h-9.586l6.293-6.293
	c0.391-0.391,0.391-1.023,0-1.414s-1.023-0.391-1.414,0l-8,8c-0.391,0.391-0.391,1.023,0,1.414L43.293,24.707z"/>
<path fill="#1D1D1B" d="M19.293,39.293c-0.391,0.391-0.391,1.023,0,1.414L25.586,47H16c-3.86,0-7-3.14-7-7v-6c0-0.552-0.448-1-1-1
	s-1,0.448-1,1v6c0,4.962,4.038,9,9,9h9.586l-6.293,6.293c-0.391,0.391-0.391,1.023,0,1.414C19.488,56.902,19.744,57,20,57
	s0.512-0.098,0.707-0.293l8-8c0.391-0.391,0.391-1.023,0-1.414l-8-8C20.316,38.902,19.684,38.902,19.293,39.293z"/>
</svg>
