<?xml version="1.0" encoding="utf-8"?>
<!-- Generator: Adobe Illustrator 20.0.0, SVG Export Plug-In . SVG Version: 6.00 Build 0)  -->
<!DOCTYPE svg PUBLIC "-//W3C//DTD SVG 1.1//EN" "http://www.w3.org/Graphics/SVG/1.1/DTD/svg11.dtd">
<svg version="1.1" id="layer" xmlns="http://www.w3.org/2000/svg" xmlns:xlink="http://www.w3.org/1999/xlink" x="0px" y="0px"
	 width="64px" height="64px" viewBox="0 0 64 64" enable-background="new 0 0 64 64" xml:space="preserve">
<path fill="#1D1D1B" d="M61,16H3c-1.105,0-2,0.895-2,2v40c0,1.105,0.895,2,2,2h58c1.105,0,2-0.895,2-2V18C63,16.895,62.105,16,61,16
	z M61,57c0,0.552-0.448,1-1,1H4c-0.552,0-1-0.448-1-1V19c0-0.552,0.448-1,1-1h56c0.552,0,1,0.448,1,1V57z"/>
<path fill="#1D1D1B" d="M28.39,7.697C29.03,9.054,30.4,10,32,10s2.97-0.946,3.61-2.303L42.964,14h3.072L35.934,5.341
	C35.618,3.447,33.983,2,32,2s-3.618,1.447-3.934,3.341L17.964,14h3.072L28.39,7.697z"/>
<rect x="5" y="20" fill="#1D1D1B" width="54" height="36"/>
</svg>
