<?xml version="1.0" encoding="utf-8"?>
<!-- Generator: Adobe Illustrator 20.0.0, SVG Export Plug-In . SVG Version: 6.00 Build 0)  -->
<!DOCTYPE svg PUBLIC "-//W3C//DTD SVG 1.1//EN" "http://www.w3.org/Graphics/SVG/1.1/DTD/svg11.dtd">
<svg version="1.1" id="Layer_1" xmlns="http://www.w3.org/2000/svg" xmlns:xlink="http://www.w3.org/1999/xlink" x="0px" y="0px"
	 width="64px" height="64px" viewBox="0 0 64 64" enable-background="new 0 0 64 64" xml:space="preserve">
<path d="M7,2v59c0,1.105,0.895,2,2,2h46c1.105,0,2-0.895,2-2V2c0-0.379-0.214-0.725-0.553-0.895C56.107,0.936,55.703,0.973,55.4,1.2
	L48,6.75L40.6,1.2c-0.356-0.267-0.845-0.267-1.2,0L32,6.75L24.6,1.2c-0.356-0.267-0.845-0.267-1.2,0L16,6.75L8.6,1.2
	C8.296,0.973,7.892,0.936,7.553,1.105S7,1.621,7,2z M32,22h14c0.552,0,1,0.448,1,1s-0.448,1-1,1H32c-0.552,0-1-0.448-1-1
	S31.448,22,32,22z M32,36h14c0.552,0,1,0.448,1,1s-0.448,1-1,1H32c-0.552,0-1-0.448-1-1S31.448,36,32,36z M32,50h14
	c0.552,0,1,0.448,1,1s-0.448,1-1,1H32c-0.552,0-1-0.448-1-1S31.448,50,32,50z M17.293,22.293c0.391-0.391,1.023-0.391,1.414,0
	L20,23.586l5.293-5.293c0.391-0.391,1.023-0.391,1.414,0s0.391,1.023,0,1.414l-6,6C20.512,25.902,20.256,26,20,26
	s-0.512-0.098-0.707-0.293l-2-2C16.902,23.316,16.902,22.684,17.293,22.293z M17.293,36.293c0.391-0.391,1.023-0.391,1.414,0
	L20,37.586l5.293-5.293c0.391-0.391,1.023-0.391,1.414,0s0.391,1.023,0,1.414l-6,6C20.512,39.902,20.256,40,20,40
	s-0.512-0.098-0.707-0.293l-2-2C16.902,37.316,16.902,36.684,17.293,36.293z M18,50h5c0.552,0,1,0.448,1,1s-0.448,1-1,1h-5
	c-0.552,0-1-0.448-1-1S17.448,50,18,50z"/>
</svg>
