<?xml version="1.0" encoding="utf-8"?>
<!-- Generator: Adobe Illustrator 20.0.0, SVG Export Plug-In . SVG Version: 6.00 Build 0)  -->
<!DOCTYPE svg PUBLIC "-//W3C//DTD SVG 1.1//EN" "http://www.w3.org/Graphics/SVG/1.1/DTD/svg11.dtd">
<svg version="1.1" id="Layer_1" xmlns="http://www.w3.org/2000/svg" xmlns:xlink="http://www.w3.org/1999/xlink" x="0px" y="0px"
	 width="64px" height="64px" viewBox="0 0 64 64" enable-background="new 0 0 64 64" xml:space="preserve">
<path d="M39,14c0,6.627,5.373,12,12,12s12-5.373,12-12S57.627,2,51,2S39,7.373,39,14z M57,14c0,0.552-0.448,1-1,1H46
	c-0.552,0-1-0.448-1-1s0.448-1,1-1h10C56.552,13,57,13.448,57,14z"/>
<circle cx="10" cy="56" r="6"/>
<circle cx="54" cy="56" r="6"/>
<path d="M63,45c0-0.552-0.447-1-1-1H3.868l4.667-7H48c0.409,0,0.776-0.249,0.929-0.628l3.375-8.437C51.874,27.974,51.44,28,51,28
	c-7.732,0-14-6.268-14-14c0-1.391,0.21-2.732,0.587-4H8.5L2.8,2.4C2.468,1.958,1.842,1.867,1.401,2.2
	C0.958,2.531,0.868,3.158,1.2,3.6L7,11.333v24.364l-5.832,8.748c-0.204,0.307-0.224,0.701-0.05,1.026S1.631,46,2,46h60
	C62.553,46,63,45.552,63,45z"/>
</svg>
