<?xml version="1.0" encoding="utf-8"?>
<!-- Generator: Adobe Illustrator 20.0.0, SVG Export Plug-In . SVG Version: 6.00 Build 0)  -->
<!DOCTYPE svg PUBLIC "-//W3C//DTD SVG 1.1//EN" "http://www.w3.org/Graphics/SVG/1.1/DTD/svg11.dtd">
<svg version="1.1" id="Layer_1" xmlns="http://www.w3.org/2000/svg" xmlns:xlink="http://www.w3.org/1999/xlink" x="0px" y="0px"
	 width="64px" height="64px" viewBox="0 0 64 64" enable-background="new 0 0 64 64" xml:space="preserve">
<path d="M51,26c6.627,0,12-5.373,12-12S57.627,2,51,2S39,7.373,39,14S44.373,26,51,26z M46,13h10c0.552,0,1,0.448,1,1s-0.448,1-1,1
	H46c-0.552,0-1-0.448-1-1S45.448,13,46,13z"/>
<circle cx="15" cy="56" r="6"/>
<circle cx="57" cy="56" r="6"/>
<path d="M9,40c0,3.309,2.691,6,6,6h48v-4H15c-1.103,0-2-0.897-2-2v-3h38c0.459,0,0.858-0.312,0.97-0.757l2.151-8.604
	C53.116,27.868,52.074,28,51,28c-7.732,0-14-6.268-14-14c0-1.031,0.119-2.033,0.33-3H13V4c0-1.104-0.896-2-2-2H1v4h8V40z"/>
</svg>
