<?xml version="1.0" encoding="utf-8"?>
<!-- Generator: Adobe Illustrator 20.0.0, SVG Export Plug-In . SVG Version: 6.00 Build 0)  -->
<!DOCTYPE svg PUBLIC "-//W3C//DTD SVG 1.1//EN" "http://www.w3.org/Graphics/SVG/1.1/DTD/svg11.dtd">
<svg version="1.1" id="layer" xmlns="http://www.w3.org/2000/svg" xmlns:xlink="http://www.w3.org/1999/xlink" x="0px" y="0px"
	 width="64px" height="64px" viewBox="0 0 64 64" enable-background="new 0 0 64 64" xml:space="preserve">
<path fill="#1D1D1B" d="M26.452,27.655c-0.19-0.616-0.321-1.067-0.392-1.354c-0.193,0.881-0.477,1.844-0.849,2.89l-1.418,4.093
	h4.576l-1.472-4.275C26.79,28.722,26.641,28.271,26.452,27.655z"/>
<path fill="#1D1D1B" d="M61,11H3c-1.105,0-2,0.895-2,2v38c0,1.105,0.895,2,2,2h58c1.105,0,2-0.895,2-2V13C63,11.895,62.105,11,61,11
	z M12.138,40.073c-1.776,0-3.23-0.275-4.361-0.827v-2.428c0.716,0.337,1.477,0.602,2.283,0.795s1.556,0.29,2.25,0.29
	c1.603,0,2.976-0.541,2.976-2.138c0-1.594-1.656-2.236-3.416-2.943c-2.312-0.936-3.91-2.177-3.91-4.673
	c0-2.844,2.278-4.222,5.146-4.222c1.504,0,3,0.33,4.49,0.988l-0.816,2.095c-1.396-0.587-2.643-0.881-3.738-0.881
	c-1.395,0-2.535,0.588-2.535,1.977c0,1.439,1.045,1.987,3.233,2.89c1.153,0.48,1.998,0.928,2.535,1.343
	c1.114,0.861,1.558,1.894,1.558,3.255C17.831,38.714,15.255,40.073,12.138,40.073z M30.614,39.858l-1.568-4.361h-6.005l-1.536,4.361
	h-2.707l5.876-15.77h2.793l5.876,15.77H30.614z M44.633,39.858h-9.217V24.153h2.567v13.503h6.649V39.858z M56.224,26.323h-6.316
	v4.275h5.919v2.148h-5.919v4.931h6.316v2.181H47.34V24.153h8.884V26.323z"/>
</svg>
