<?xml version="1.0" encoding="utf-8"?>
<!-- Generator: Adobe Illustrator 20.0.0, SVG Export Plug-In . SVG Version: 6.00 Build 0)  -->
<!DOCTYPE svg PUBLIC "-//W3C//DTD SVG 1.1//EN" "http://www.w3.org/Graphics/SVG/1.1/DTD/svg11.dtd">
<svg version="1.1" id="layer" xmlns="http://www.w3.org/2000/svg" xmlns:xlink="http://www.w3.org/1999/xlink" x="0px" y="0px"
	 width="64px" height="64px" viewBox="0 0 64 64" enable-background="new 0 0 64 64" xml:space="preserve">
<path fill="#1D1D1B" d="M62,2H2C1.447,2,1,2.447,1,3c0,5.514,4.486,10,10,10h19v5h4v-5h19c5.514,0,10-4.486,10-10
	C63,2.447,62.553,2,62,2z"/>
<path fill="#1D1D1B" d="M9,61c0,0.553,0.447,1,1,1h44c0.553,0,1-0.447,1-1v-5H9V61z"/>
<path fill="#1D1D1B" d="M55,43c0-12.683-10.317-23-23-23S9,30.317,9,43v11h46V43z M33.666,46.494
	c-1.378,0.921-3.241,0.55-4.161-0.828c-0.921-1.378-5.839-14.139-5.839-14.139s9.907,9.428,10.828,10.805
	C35.414,43.711,35.043,45.573,33.666,46.494z"/>
</svg>
