<?xml version="1.0" encoding="utf-8"?>
<!-- Generator: Adobe Illustrator 20.0.0, SVG Export Plug-In . SVG Version: 6.00 Build 0)  -->
<!DOCTYPE svg PUBLIC "-//W3C//DTD SVG 1.1//EN" "http://www.w3.org/Graphics/SVG/1.1/DTD/svg11.dtd">
<svg version="1.1" id="layer" xmlns="http://www.w3.org/2000/svg" xmlns:xlink="http://www.w3.org/1999/xlink" x="0px" y="0px"
	 width="64px" height="64px" viewBox="0 0 64 64" enable-background="new 0 0 64 64" xml:space="preserve">
<path fill="#1D1D1B" d="M48,39c-6.627,0-12,5.373-12,12s5.373,12,12,12s12-5.373,12-12S54.627,39,48,39z M53,52h-4v4
	c0,0.552-0.448,1-1,1s-1-0.448-1-1v-4h-4c-0.552,0-1-0.448-1-1s0.448-1,1-1h4v-4c0-0.552,0.448-1,1-1s1,0.448,1,1v4h4
	c0.552,0,1,0.448,1,1S53.552,52,53,52z"/>
<path fill="#1D1D1B" d="M48,37c0.338,0,0.668,0.027,1,0.05V22c0-0.265-0.105-0.52-0.293-0.707l-20-20
	c-0.39-0.391-1.024-0.391-1.414,0l-20,20C7.105,21.481,7,21.735,7,22v35c0,2.209,1.791,4,4,4h27.211C35.615,58.459,34,54.92,34,51
	C34,43.268,40.268,37,48,37z M28,26c-2.209,0-4-1.791-4-4c0-2.209,1.791-4,4-4c2.209,0,4,1.791,4,4C32,24.209,30.209,26,28,26z"/>
</svg>
