<?xml version="1.0" encoding="utf-8"?>
<!-- Generator: Adobe Illustrator 20.0.0, SVG Export Plug-In . SVG Version: 6.00 Build 0)  -->
<!DOCTYPE svg PUBLIC "-//W3C//DTD SVG 1.1//EN" "http://www.w3.org/Graphics/SVG/1.1/DTD/svg11.dtd">
<svg version="1.1" id="layer" xmlns="http://www.w3.org/2000/svg" xmlns:xlink="http://www.w3.org/1999/xlink" x="0px" y="0px"
	 width="64px" height="64px" viewBox="0 0 64 64" enable-background="new 0 0 64 64" xml:space="preserve">
<path fill="#1D1D1B" d="M10,36c-0.553,0-1,0.448-1,1s0.447,1,1,1h14c0.553,0,1-0.448,1-1s-0.447-1-1-1H10z"/>
<path fill="#1D1D1B" d="M58,4H6C3.243,4,1,6.243,1,9v36c0,2.757,2.243,5,5,5h24v-2H6c-1.654,0-3-1.346-3-3V27h58v9h2V9
	C63,6.243,60.757,4,58,4z M61,17H3V9c0-1.654,1.346-3,3-3h52c1.654,0,3,1.346,3,3V17z"/>
<path fill="#1D1D1B" d="M56.757,42.243c1.657-1.657,1.657-4.343,0-6l0,0c-1.657-1.657-4.343-1.657-6,0L35,52l-2,8l8-2L56.757,42.243
	z"/>
</svg>
