<?xml version="1.0" encoding="utf-8"?>
<!-- Generator: Adobe Illustrator 20.0.0, SVG Export Plug-In . SVG Version: 6.00 Build 0)  -->
<!DOCTYPE svg PUBLIC "-//W3C//DTD SVG 1.1//EN" "http://www.w3.org/Graphics/SVG/1.1/DTD/svg11.dtd">
<svg version="1.1" id="Layer_1" xmlns="http://www.w3.org/2000/svg" xmlns:xlink="http://www.w3.org/1999/xlink" x="0px" y="0px"
	 width="64px" height="64px" viewBox="0 0 64 64" enable-background="new 0 0 64 64" xml:space="preserve">
<path d="M34.618,3l6,12h21.751L48.651,3.241C48.47,3.085,48.239,3,48,3H34.618z"/>
<path d="M4,61h56c1.657,0,3-1.343,3-3V17H41v19c0,0.552-0.448,1-1,1H24c-0.552,0-1-0.448-1-1V17H1v41C1,59.657,2.343,61,4,61z"/>
<path d="M23.382,15l6-12H16c-0.239,0-0.47,0.085-0.651,0.241L1.631,15H23.382z"/>
</svg>
