<?xml version="1.0" encoding="utf-8"?>
<!-- Generator: Adobe Illustrator 20.0.0, SVG Export Plug-In . SVG Version: 6.00 Build 0)  -->
<!DOCTYPE svg PUBLIC "-//W3C//DTD SVG 1.1//EN" "http://www.w3.org/Graphics/SVG/1.1/DTD/svg11.dtd">
<svg version="1.1" id="Layer_1" xmlns="http://www.w3.org/2000/svg" xmlns:xlink="http://www.w3.org/1999/xlink" x="0px" y="0px"
	 width="64px" height="64px" viewBox="0 0 64 64" enable-background="new 0 0 64 64" xml:space="preserve">
<path d="M62,19H50.535L38.832,1.445c-0.307-0.46-0.928-0.584-1.387-0.277c-0.459,0.306-0.583,0.927-0.277,1.387L48.132,19H15.868
	L26.832,2.555c0.306-0.459,0.182-1.081-0.277-1.387c-0.46-0.307-1.081-0.183-1.387,0.277L13.465,19H2c-0.552,0-1,0.448-1,1v6
	c0,0.552,0.448,1,1,1h60c0.552,0,1-0.448,1-1v-6C63,19.448,62.552,19,62,19z"/>
<path d="M51,37c1.253,0,2.462,0.18,3.618,0.489L56.616,29H7.384l6.642,28.229C14.133,57.681,14.536,58,15,58h23.888
	C37.694,55.939,37,53.553,37,51C37,43.268,43.268,37,51,37z"/>
<path d="M51,39c-6.627,0-12,5.373-12,12s5.373,12,12,12s12-5.373,12-12S57.627,39,51,39z M56,52h-4v4c0,0.552-0.448,1-1,1
	s-1-0.448-1-1v-4h-4c-0.552,0-1-0.448-1-1s0.448-1,1-1h4v-4c0-0.552,0.448-1,1-1s1,0.448,1,1v4h4c0.552,0,1,0.448,1,1
	S56.552,52,56,52z"/>
</svg>
