<?xml version="1.0" encoding="utf-8"?>
<!-- Generator: Adobe Illustrator 20.0.0, SVG Export Plug-In . SVG Version: 6.00 Build 0)  -->
<!DOCTYPE svg PUBLIC "-//W3C//DTD SVG 1.1//EN" "http://www.w3.org/Graphics/SVG/1.1/DTD/svg11.dtd">
<svg version="1.1" id="Layer_1" xmlns="http://www.w3.org/2000/svg" xmlns:xlink="http://www.w3.org/1999/xlink" x="0px" y="0px"
	 width="64px" height="64px" viewBox="0 0 64 64" enable-background="new 0 0 64 64" xml:space="preserve">
<path d="M1,23c0,6.217,4.018,9,8,9c3.126,0,5.675-1.339,7.002-3.455C17.47,30.824,20.338,32,23.182,32
	c3.072,0,5.526-1.282,6.818-3.359C31.292,30.718,33.746,32,36.818,32c2.844,0,5.712-1.176,7.179-3.455
	C45.325,30.661,47.874,32,51,32c3.982,0,8-2.783,8-9c0-0.174-0.045-0.345-0.132-0.496l-12-21C46.69,1.192,46.359,1,46,1H14
	c-0.359,0-0.69,0.192-0.868,0.504l-12,21C1.045,22.655,1,22.826,1,23z"/>
<path d="M52,34.8c-5.407,0-11,4.114-11,11c0,6.539,9.873,16.487,10.293,16.907C51.488,62.902,51.744,63,52,63
	s0.512-0.098,0.707-0.293C53.127,62.287,63,52.339,63,45.8C63,38.914,57.407,34.8,52,34.8z M52,48.8c-1.654,0-3-1.346-3-3
	s1.346-3,3-3s3,1.346,3,3S53.654,48.8,52,48.8z"/>
<path d="M47.722,33.537c-1.421-0.411-2.702-1.083-3.751-1.991C42.118,33.096,39.558,34,36.818,34c-2.694,0-5.068-0.826-6.818-2.326
	C28.25,33.174,25.876,34,23.182,34c-2.74,0-5.299-0.904-7.153-2.454C14.22,33.111,11.737,34,9,34c-0.665,0-1.336-0.072-2-0.205V61
	c0,1.105,0.895,2,2,2h16V49h10v14h13.798C45.959,59.97,39,51.917,39,45.8C39,39.499,42.967,35.174,47.722,33.537z"/>
</svg>
