<?xml version="1.0" encoding="utf-8"?>
<!-- Generator: Adobe Illustrator 20.0.0, SVG Export Plug-In . SVG Version: 6.00 Build 0)  -->
<!DOCTYPE svg PUBLIC "-//W3C//DTD SVG 1.1//EN" "http://www.w3.org/Graphics/SVG/1.1/DTD/svg11.dtd">
<svg version="1.1" id="Layer_1" xmlns="http://www.w3.org/2000/svg" xmlns:xlink="http://www.w3.org/1999/xlink" x="0px" y="0px"
	 width="64px" height="64px" viewBox="0 0 64 64" enable-background="new 0 0 64 64" xml:space="preserve">
<path d="M56.895,8.553c-0.144-0.286-0.415-0.486-0.73-0.539l-23.99-3.998C32.127,4.007,32.078,4.002,32.028,4
	c-0.001,0-0.002,0-0.002,0c-0.001,0-0.001,0-0.002,0s-0.002,0-0.002,0c-0.001,0-0.001,0-0.001,0c-0.014,0-0.029,0-0.043,0
	c0,0,0,0-0.001,0c0,0-0.001,0-0.002,0s-0.001,0-0.002,0c0,0-0.001,0-0.002,0c-0.05,0.002-0.099,0.007-0.146,0.016L7.836,8.014
	c-0.315,0.053-0.587,0.253-0.73,0.539l-6,12c-0.155,0.31-0.139,0.678,0.044,0.973S1.653,22,2,22h24c0.417,0,0.79-0.259,0.937-0.648
	L32,7.848l5.063,13.504C37.21,21.741,37.583,22,38,22h24c0.347,0,0.668-0.18,0.851-0.475s0.199-0.663,0.044-0.973L56.895,8.553z"/>
<path d="M26,24H7v25c0,0.403,0.243,0.768,0.615,0.923L31,59.667V16.211l-2.19,5.842C28.371,23.219,27.242,24,26,24z"/>
<path d="M35.191,22.056L33,16.211v43.456l23.385-9.744C56.757,49.768,57,49.403,57,49V24H38C36.758,24,35.629,23.219,35.191,22.056z
	"/>
</svg>
