<?xml version="1.0" encoding="utf-8"?>
<!-- Generator: Adobe Illustrator 20.0.0, SVG Export Plug-In . SVG Version: 6.00 Build 0)  -->
<!DOCTYPE svg PUBLIC "-//W3C//DTD SVG 1.1//EN" "http://www.w3.org/Graphics/SVG/1.1/DTD/svg11.dtd">
<svg version="1.1" id="Layer_1" xmlns="http://www.w3.org/2000/svg" xmlns:xlink="http://www.w3.org/1999/xlink" x="0px" y="0px"
	 width="64px" height="64px" viewBox="0 0 64 64" enable-background="new 0 0 64 64" xml:space="preserve">
<path d="M38,51c0,6.627,5.373,12,12,12s12-5.373,12-12s-5.373-12-12-12S38,44.373,38,51z M56,51c0,0.552-0.448,1-1,1H45
	c-0.552,0-1-0.448-1-1s0.448-1,1-1h10C55.552,50,56,50.448,56,51z"/>
<path d="M36,21c0.552,0,1-0.448,1-1v-8c0-6.065-4.935-11-11-11S15,5.935,15,12v8c0,0.552,0.448,1,1,1s1-0.448,1-1v-8
	c0-4.962,4.038-9,9-9s9,4.038,9,9v8C35,20.552,35.448,21,36,21z"/>
<path d="M4,13c-1.105,0-2,0.895-2,2v46c0,1.105,0.895,2,2,2h38.816C38.738,60.553,36,56.102,36,51c0-7.732,6.268-14,14-14V15
	c0-1.105-0.895-2-2-2h-9v6.882c0,1.451-0.978,2.784-2.402,3.06C34.683,23.314,33,21.85,33,20v-7H19v6.882
	c0,1.451-0.978,2.784-2.402,3.06C14.683,23.314,13,21.85,13,20v-7H4z"/>
</svg>
