<?xml version="1.0" encoding="utf-8"?>
<!-- Generator: Adobe Illustrator 20.0.0, SVG Export Plug-In . SVG Version: 6.00 Build 0)  -->
<!DOCTYPE svg PUBLIC "-//W3C//DTD SVG 1.1//EN" "http://www.w3.org/Graphics/SVG/1.1/DTD/svg11.dtd">
<svg version="1.1" id="layer" xmlns="http://www.w3.org/2000/svg" xmlns:xlink="http://www.w3.org/1999/xlink" x="0px" y="0px"
	 width="64px" height="64px" viewBox="0 0 64 64" enable-background="new 0 0 64 64" xml:space="preserve">
<path fill="#1D1D1B" d="M48,44c0,0.552,0.447,1,1,1h7c0.553,0,1-0.448,1-1v-7c0-0.552-0.447-1-1-1s-1,0.448-1,1v3.599
	C52.986,38.328,50.136,37,47,37c-5.211,0-9.744,3.701-10.78,8.801c-0.109,0.542,0.24,1.069,0.781,1.179
	c0.067,0.014,0.135,0.02,0.2,0.02c0.466,0,0.883-0.327,0.979-0.801C39.027,42.028,42.736,39,47,39c3,0,5.677,1.506,7.311,4H49
	C48.447,43,48,43.448,48,44z"/>
<path fill="#1D1D1B" d="M57.78,50.199c0.109-0.542-0.24-1.069-0.781-1.179c-0.55-0.112-1.069,0.241-1.18,0.781
	C54.973,53.972,51.264,57,47,57c-3,0-5.677-1.506-7.311-4H45c0.553,0,1-0.448,1-1s-0.447-1-1-1h-7c-0.553,0-1,0.448-1,1v7
	c0,0.552,0.447,1,1,1s1-0.448,1-1v-3.599C41.014,57.672,43.864,59,47,59C52.211,59,56.744,55.299,57.78,50.199z"/>
<path fill="#1D1D1B" d="M10,36c-0.553,0-1,0.448-1,1s0.447,1,1,1h14c0.553,0,1-0.448,1-1s-0.447-1-1-1H10z"/>
<path fill="#1D1D1B" d="M6,50h25v-2H6c-1.654,0-3-1.346-3-3V27h58v10h2V9c0-2.757-2.243-5-5-5H6C3.243,4,1,6.243,1,9v36
	C1,47.757,3.243,50,6,50z M3,9c0-1.654,1.346-3,3-3h52c1.654,0,3,1.346,3,3v8H3V9z"/>
</svg>
