<?xml version="1.0" encoding="utf-8"?>
<!-- Generator: Adobe Illustrator 20.0.0, SVG Export Plug-In . SVG Version: 6.00 Build 0)  -->
<!DOCTYPE svg PUBLIC "-//W3C//DTD SVG 1.1//EN" "http://www.w3.org/Graphics/SVG/1.1/DTD/svg11.dtd">
<svg version="1.1" id="layer" xmlns="http://www.w3.org/2000/svg" xmlns:xlink="http://www.w3.org/1999/xlink" x="0px" y="0px"
	 width="64px" height="64px" viewBox="0 0 64 64" enable-background="new 0 0 64 64" xml:space="preserve">
<path fill="#1D1D1B" d="M13,40v-3h38c0.459,0,0.858-0.312,0.97-0.757l1.358-5.431C52.566,30.923,51.793,31,51,31
	c-8.837,0-16-7.163-16-16c0-1.384,0.194-2.719,0.524-4H13V4c0-1.104-0.896-2-2-2H1v4h8v34c0,3.309,2.691,6,6,6h48v-4H15
	C13.897,42,13,41.103,13,40z"/>
<circle fill="#1D1D1B" cx="15" cy="56" r="6"/>
<circle fill="#1D1D1B" cx="57" cy="56" r="6"/>
<path fill="#1D1D1B" d="M60,1c-0.553,0-1,0.448-1,1v3.599C56.986,3.328,54.136,2,51,2c-5.211,0-9.744,3.701-10.78,8.801
	c-0.109,0.542,0.24,1.069,0.781,1.179c0.067,0.014,0.135,0.02,0.2,0.02c0.466,0,0.883-0.327,0.979-0.801C43.027,7.028,46.736,4,51,4
	c3,0,5.677,1.506,7.311,4H53c-0.553,0-1,0.448-1,1s0.447,1,1,1h7c0.553,0,1-0.448,1-1V2C61,1.448,60.553,1,60,1z"/>
<path fill="#1D1D1B" d="M50,17c0-0.552-0.447-1-1-1h-7c-0.553,0-1,0.448-1,1v7c0,0.552,0.447,1,1,1s1-0.448,1-1v-3.599
	C45.014,22.672,47.864,24,51,24c5.211,0,9.744-3.701,10.78-8.801c0.109-0.542-0.24-1.069-0.781-1.179
	c-0.548-0.112-1.069,0.241-1.18,0.781C58.973,18.972,55.264,22,51,22c-3,0-5.677-1.506-7.311-4H49C49.553,18,50,17.552,50,17z"/>
</svg>
