<?xml version="1.0" encoding="utf-8"?>
<!-- Generator: Adobe Illustrator 20.0.0, SVG Export Plug-In . SVG Version: 6.00 Build 0)  -->
<!DOCTYPE svg PUBLIC "-//W3C//DTD SVG 1.1//EN" "http://www.w3.org/Graphics/SVG/1.1/DTD/svg11.dtd">
<svg version="1.1" id="layer" xmlns="http://www.w3.org/2000/svg" xmlns:xlink="http://www.w3.org/1999/xlink" x="0px" y="0px"
	 width="64px" height="64px" viewBox="0 0 64 64" enable-background="new 0 0 64 64" xml:space="preserve">
<path fill="#1D1D1B" d="M62,1H6C3.243,1,1,3.243,1,6v56c0,0.553,0.447,1,1,1s1-0.447,1-1V6c0-1.654,1.346-3,3-3h56
	c0.553,0,1-0.447,1-1S62.553,1,62,1z"/>
<path fill="#1D1D1B" d="M60,9h-5V5h-2v4H19V5h-2v4h-6c-1.105,0-2,0.895-2,2v34c0,1.105,0.895,2,2,2h49c1.105,0,2-0.895,2-2V11
	C62,9.895,61.105,9,60,9z M60,44c0,0.552-0.448,1-1,1H12c-0.552,0-1-0.448-1-1V12c0-0.552,0.448-1,1-1h47c0.552,0,1,0.448,1,1V44z"
	/>
<rect x="13" y="13" fill="#1D1D1B" width="45" height="30"/>
</svg>
