<?xml version="1.0" encoding="utf-8"?>
<!-- Generator: Adobe Illustrator 20.0.0, SVG Export Plug-In . SVG Version: 6.00 Build 0)  -->
<!DOCTYPE svg PUBLIC "-//W3C//DTD SVG 1.1//EN" "http://www.w3.org/Graphics/SVG/1.1/DTD/svg11.dtd">
<svg version="1.1" id="Layer_1" xmlns="http://www.w3.org/2000/svg" xmlns:xlink="http://www.w3.org/1999/xlink" x="0px" y="0px"
	 width="64px" height="64px" viewBox="0 0 64 64" enable-background="new 0 0 64 64" xml:space="preserve">
<path d="M1.025,43.775c-0.124,0.538,0.211,1.075,0.75,1.199C1.851,44.992,1.926,45,2.001,45c0.455,0,0.867-0.312,0.974-0.775
	L4.873,36h9.943L8.931,9.517L1.025,43.775z"/>
<path d="M50.976,4.783C50.875,4.325,50.469,4,50,4H11c-0.303,0-0.59,0.138-0.78,0.374c-0.189,0.237-0.262,0.547-0.196,0.843l12,54
	c0.12,0.539,0.655,0.874,1.193,0.76c0.539-0.12,0.879-0.654,0.759-1.193L22.246,51h36.951l1.826,8.217
	C61.127,59.683,61.541,60,61.999,60c0.072,0,0.145-0.008,0.218-0.023c0.539-0.12,0.879-0.654,0.759-1.193L50.976,4.783z"/>
</svg>
