<?xml version="1.0" encoding="utf-8"?>
<!-- Generator: Adobe Illustrator 20.0.0, SVG Export Plug-In . SVG Version: 6.00 Build 0)  -->
<!DOCTYPE svg PUBLIC "-//W3C//DTD SVG 1.1//EN" "http://www.w3.org/Graphics/SVG/1.1/DTD/svg11.dtd">
<svg version="1.1" id="layer" xmlns="http://www.w3.org/2000/svg" xmlns:xlink="http://www.w3.org/1999/xlink" x="0px" y="0px"
	 width="64px" height="64px" viewBox="0 0 64 64" enable-background="new 0 0 64 64" xml:space="preserve">
<circle fill="#1D1D1B" cx="24" cy="24" r="3"/>
<circle fill="#1D1D1B" cx="40" cy="40" r="3"/>
<path fill="#1D1D1B" d="M55,21.649V10c0-0.552-0.448-1-1-1H42.351l-9.726-7.781c-0.365-0.292-0.884-0.292-1.249,0L21.649,9H10
	c-0.552,0-1,0.448-1,1v11.649l-7.781,9.726c-0.292,0.365-0.292,0.884,0,1.249L9,42.351V54c0,0.552,0.448,1,1,1h11.649l9.726,7.781
	C31.558,62.927,31.779,63,32,63s0.442-0.073,0.625-0.219L42.351,55H54c0.552,0,1-0.448,1-1V42.351l7.781-9.726
	c0.292-0.365,0.292-0.884,0-1.249L55,21.649z M19,24c0-2.757,2.243-5,5-5s5,2.243,5,5s-2.243,5-5,5S19,26.757,19,24z M22.707,42.707
	C22.512,42.902,22.256,43,22,43s-0.512-0.098-0.707-0.293c-0.391-0.391-0.391-1.023,0-1.414l20-20c0.391-0.391,1.023-0.391,1.414,0
	s0.391,1.023,0,1.414L22.707,42.707z M40,45c-2.757,0-5-2.243-5-5s2.243-5,5-5s5,2.243,5,5S42.757,45,40,45z"/>
</svg>
