<?xml version="1.0" encoding="utf-8"?>
<!-- Generator: Adobe Illustrator 20.0.0, SVG Export Plug-In . SVG Version: 6.00 Build 0)  -->
<!DOCTYPE svg PUBLIC "-//W3C//DTD SVG 1.1//EN" "http://www.w3.org/Graphics/SVG/1.1/DTD/svg11.dtd">
<svg version="1.1" id="Layer_1" xmlns="http://www.w3.org/2000/svg" xmlns:xlink="http://www.w3.org/1999/xlink" x="0px" y="0px"
	 width="64px" height="64px" viewBox="0 0 64 64" enable-background="new 0 0 64 64" xml:space="preserve">
<circle cx="49" cy="57" r="5"/>
<path d="M63.316,42.052l-5.438-1.813l-1.894-10.417C55.897,29.346,55.483,29,55,29H39c-0.552,0-1,0.448-1,1v26c0,0.552,0.448,1,1,1
	h3c0-3.859,3.14-7,7-7s7,3.141,7,7h7c0.552,0,1-0.448,1-1V43C64,42.57,63.725,42.188,63.316,42.052z"/>
<path d="M8.293,23.707C8.488,23.902,8.744,24,9,24s0.512-0.098,0.707-0.293l5.682-5.682C16.929,19.258,18.878,20,21,20
	c4.963,0,9-4.037,9-9s-4.037-9-9-9s-9,4.037-9,9c0,2.122,0.742,4.071,1.975,5.611l-5.682,5.682
	C7.902,22.684,7.902,23.316,8.293,23.707z M21,4c3.859,0,7,3.141,7,7s-3.141,7-7,7s-7-3.141-7-7S17.141,4,21,4z"/>
<path d="M6,56c0-4.411,3.589-8,8-8s8,3.589,8,8c0,0.339-0.028,0.672-0.069,1H35c0.552,0,1-0.448,1-1V20c0-1.105-0.895-2-2-2h-4.521
	c-2.019,2.441-5.07,4-8.479,4c-1.875,0-3.725-0.49-5.356-1.401l-4.44,4.44c-0.45,0.45-1.012,0.796-1.638,0.91
	c-1.005,0.183-1.988-0.129-2.686-0.827s-1.011-1.682-0.827-2.686c0.114-0.626,0.46-1.188,0.91-1.638L9.758,18H2
	c-1.105,0-2,0.895-2,2v36c0,0.552,0.448,1,1,1h5.069C6.028,56.672,6,56.339,6,56z"/>
<circle cx="14" cy="56" r="6"/>
</svg>
