<?xml version="1.0" encoding="utf-8"?>
<!-- Generator: Adobe Illustrator 20.0.0, SVG Export Plug-In . SVG Version: 6.00 Build 0)  -->
<!DOCTYPE svg PUBLIC "-//W3C//DTD SVG 1.1//EN" "http://www.w3.org/Graphics/SVG/1.1/DTD/svg11.dtd">
<svg version="1.1" id="layer" xmlns="http://www.w3.org/2000/svg" xmlns:xlink="http://www.w3.org/1999/xlink" x="0px" y="0px"
	 width="64px" height="64px" viewBox="0 0 64 64" enable-background="new 0 0 64 64" xml:space="preserve">
<path fill="#1D1D1B" d="M9,4v7h46V4c0-1.105-0.895-2-2-2H11C9.895,2,9,2.895,9,4z"/>
<path fill="#1D1D1B" d="M55.28,13H8.72l-7.5,9.375C1.077,22.553,1,22.772,1,23c0,4.411,3.589,8,8,8c2.072,0,4.022-0.789,5.5-2.196
	C15.978,30.211,17.928,31,20,31c2.339,0,4.496-0.994,6-2.715C27.504,30.006,29.661,31,32,31s4.496-0.994,6-2.715
	C39.504,30.006,41.661,31,44,31c2.072,0,4.022-0.789,5.5-2.196C50.978,30.211,52.928,31,55,31c4.411,0,8-3.589,8-8
	c0-0.228-0.077-0.447-0.219-0.625L55.28,13z"/>
<path fill="#1D1D1B" d="M49.5,31.352C47.881,32.424,45.979,33,44,33c-2.187,0-4.289-0.713-6-2c-1.711,1.287-3.813,2-6,2
	s-4.289-0.713-6-2c-1.711,1.287-3.813,2-6,2c-1.979,0-3.881-0.576-5.5-1.648C12.881,32.424,10.979,33,9,33
	c-0.685,0-1.354-0.07-2-0.202V60c0,1.105,0.895,2,2,2h27c0.552,0,1-0.448,1-1V45h10v16c0,0.552,0.448,1,1,1h7c1.105,0,2-0.895,2-2
	V32.798C56.354,32.93,55.685,33,55,33C53.021,33,51.119,32.424,49.5,31.352z M26,49c0,0.553-0.448,1-1,1h-8c-0.552,0-1-0.447-1-1v-8
	c0-0.553,0.448-1,1-1h8c0.552,0,1,0.447,1,1V49z"/>
</svg>
