<?xml version="1.0" encoding="utf-8"?>
<!-- Generator: Adobe Illustrator 20.0.0, SVG Export Plug-In . SVG Version: 6.00 Build 0)  -->
<!DOCTYPE svg PUBLIC "-//W3C//DTD SVG 1.1//EN" "http://www.w3.org/Graphics/SVG/1.1/DTD/svg11.dtd">
<svg version="1.1" id="Layer_1" xmlns="http://www.w3.org/2000/svg" xmlns:xlink="http://www.w3.org/1999/xlink" x="0px" y="0px"
	 width="64px" height="64px" viewBox="0 0 64 64" enable-background="new 0 0 64 64" xml:space="preserve">
<path d="M2,11v16c0,0.265,0.105,0.52,0.293,0.707l34,34C36.488,61.902,36.744,62,37,62s0.512-0.098,0.707-0.293l24-24
	c0.391-0.391,0.391-1.023,0-1.414l-34-34C27.52,2.105,27.266,2,27,2H11c-0.266,0-0.52,0.105-0.707,0.293l-8,8
	C2.105,10.48,2,10.735,2,11z M19,15c2.209,0,4,1.791,4,4c0,2.209-1.791,4-4,4s-4-1.791-4-4C15,16.791,16.791,15,19,15z"/>
</svg>
