<?xml version="1.0" encoding="utf-8"?>
<!-- Generator: Adobe Illustrator 20.0.0, SVG Export Plug-In . SVG Version: 6.00 Build 0)  -->
<!DOCTYPE svg PUBLIC "-//W3C//DTD SVG 1.1//EN" "http://www.w3.org/Graphics/SVG/1.1/DTD/svg11.dtd">
<svg version="1.1" id="Layer_1" xmlns="http://www.w3.org/2000/svg" xmlns:xlink="http://www.w3.org/1999/xlink" x="0px" y="0px"
	 width="64px" height="64px" viewBox="0 0 64 64" enable-background="new 0 0 64 64" xml:space="preserve">
<path d="M42,13H22c-0.553,0-1,0.447-1,1s0.447,1,1,1h20c0.553,0,1-0.447,1-1S42.553,13,42,13z"/>
<path d="M42,23H22c-0.553,0-1,0.447-1,1s0.447,1,1,1h20c0.553,0,1-0.447,1-1S42.553,23,42,23z"/>
<path d="M13,32.3V22V3h38v19v10.3l10.5-5.9l-8.5-5V2c0-0.6-0.4-1-1-1H12c-0.6,0-1,0.4-1,1v19.4l-8.6,5L13,32.3z"/>
<path d="M32,45c-0.2,0-0.3,0-0.5-0.1L1,27.9V61c0,1.105,0.895,2,2,2h58c1.105,0,2-0.895,2-2V27.9l-30.5,17C32.3,45,32.2,45,32,45z"
	/>
</svg>
