<?xml version="1.0" encoding="utf-8"?>
<!-- Generator: Adobe Illustrator 20.0.0, SVG Export Plug-In . SVG Version: 6.00 Build 0)  -->
<!DOCTYPE svg PUBLIC "-//W3C//DTD SVG 1.1//EN" "http://www.w3.org/Graphics/SVG/1.1/DTD/svg11.dtd">
<svg version="1.1" id="layer" xmlns="http://www.w3.org/2000/svg" xmlns:xlink="http://www.w3.org/1999/xlink" x="0px" y="0px"
	 width="64px" height="64px" viewBox="0 0 64 64" enable-background="new 0 0 64 64" xml:space="preserve">
<circle fill="#1D1D1B" cx="20" cy="56" r="6"/>
<path fill="#1D1D1B" d="M11.978,3.703C11.831,2.725,10.99,2,10,2H2v4h6.277l5.745,38.297C14.169,45.275,15.01,46,16,46h32.614
	l5.513,14.702c0.302,0.803,1.063,1.299,1.873,1.299c0.233,0,0.471-0.042,0.702-0.128c1.034-0.389,1.559-1.541,1.171-2.575L52.886,46
	H62v-4H17.723L11.978,3.703z"/>
<path fill="#1D1D1B" d="M57,38c1.105,0,2-0.895,2-2V6c0-1.105-0.895-2-2-2H23c-1.105,0-2,0.895-2,2v30c0,1.105,0.895,2,2,2H57z
	 M35.5,11h9c1.381,0,2.5,1.119,2.5,2.5c0,1.381-1.119,2.5-2.5,2.5h-9c-1.381,0-2.5-1.119-2.5-2.5C33,12.119,34.119,11,35.5,11z"/>
</svg>
