<?xml version="1.0" encoding="utf-8"?>
<!-- Generator: Adobe Illustrator 20.0.0, SVG Export Plug-In . SVG Version: 6.00 Build 0)  -->
<!DOCTYPE svg PUBLIC "-//W3C//DTD SVG 1.1//EN" "http://www.w3.org/Graphics/SVG/1.1/DTD/svg11.dtd">
<svg version="1.1" id="Layer_1" xmlns="http://www.w3.org/2000/svg" xmlns:xlink="http://www.w3.org/1999/xlink" x="0px" y="0px"
	 width="64px" height="64px" viewBox="0 0 64 64" enable-background="new 0 0 64 64" xml:space="preserve">
<path d="M2,29h60c0.552,0,1-0.447,1-1v-8c0-0.553-0.448-1-1-1H50.594L41.06,1.521c-0.264-0.484-0.87-0.664-1.357-0.399
	c-0.485,0.265-0.664,0.872-0.399,1.356L48.316,19H15.684l9.012-16.521c0.265-0.484,0.086-1.092-0.399-1.356
	s-1.092-0.085-1.357,0.399L13.406,19H2c-0.552,0-1,0.447-1,1v8C1,28.553,1.448,29,2,29z"/>
<path d="M7,59c0,2.209,1.791,4,4,4h42c2.209,0,4-1.791,4-4V31H7V59z M41,39c0-0.553,0.448-1,1-1s1,0.447,1,1v16c0,0.553-0.448,1-1,1
	s-1-0.447-1-1V39z M31,39c0-0.553,0.448-1,1-1s1,0.447,1,1v16c0,0.553-0.448,1-1,1s-1-0.447-1-1V39z M21,39c0-0.553,0.448-1,1-1
	s1,0.447,1,1v16c0,0.553-0.448,1-1,1s-1-0.447-1-1V39z"/>
</svg>
