<?xml version="1.0" encoding="utf-8"?>
<!-- Generator: Adobe Illustrator 20.0.0, SVG Export Plug-In . SVG Version: 6.00 Build 0)  -->
<!DOCTYPE svg PUBLIC "-//W3C//DTD SVG 1.1//EN" "http://www.w3.org/Graphics/SVG/1.1/DTD/svg11.dtd">
<svg version="1.1" id="Layer_1" xmlns="http://www.w3.org/2000/svg" xmlns:xlink="http://www.w3.org/1999/xlink" x="0px" y="0px"
	 width="64px" height="64px" viewBox="0 0 64 64" enable-background="new 0 0 64 64" xml:space="preserve">
<path d="M20,43.771V62c0,0.34,0.173,0.656,0.459,0.841s0.646,0.213,0.955,0.069L32,58.099l10.586,4.812
	C42.718,62.971,42.859,63,43,63c0.189,0,0.377-0.054,0.541-0.159C43.827,62.656,44,62.34,44,62V43.771C40.467,45.82,36.37,47,32,47
	S23.533,45.82,20,43.771z"/>
<path d="M32,1c-12.15,0-22,9.85-22,22s9.85,22,22,22s22-9.85,22-22S44.15,1,32,1z M32,31c-4.418,0-8-3.582-8-8s3.582-8,8-8
	s8,3.582,8,8S36.418,31,32,31z"/>
</svg>
