<?xml version="1.0" encoding="utf-8"?>
<!-- Generator: Adobe Illustrator 20.0.0, SVG Export Plug-In . SVG Version: 6.00 Build 0)  -->
<!DOCTYPE svg PUBLIC "-//W3C//DTD SVG 1.1//EN" "http://www.w3.org/Graphics/SVG/1.1/DTD/svg11.dtd">
<svg version="1.1" id="Layer_1" xmlns="http://www.w3.org/2000/svg" xmlns:xlink="http://www.w3.org/1999/xlink" x="0px" y="0px"
	 width="64px" height="64px" viewBox="0 0 64 64" enable-background="new 0 0 64 64" xml:space="preserve">
<polygon points="34,30.881 46.044,24.825 14.785,8.489 2.131,14.816 "/>
<path d="M61.921,16.842L30.447,1.105c-0.281-0.141-0.613-0.141-0.895,0l-12.56,6.28l31.253,16.333L61.921,16.842z"/>
<path d="M48.492,25.833L35,32.617v30.002l27.447-13.724C62.786,48.725,63,48.379,63,48V18.538l-14.088,7.084
	C48.788,25.725,48.647,25.798,48.492,25.833z"/>
<path d="M33,32.615L1,16.485V46c0,0.379,0.214,0.725,0.553,0.895L33,62.618V32.615z M26,45.439c0,0.743-0.782,1.227-1.447,0.894
	l-14-7C10.214,39.164,10,38.817,10,38.439v-5.877c0-0.743,0.782-1.227,1.447-0.894l14,7C25.786,38.836,26,39.183,26,39.561V45.439z"
	/>
</svg>
