<?xml version="1.0" encoding="utf-8"?>
<!-- Generator: Adobe Illustrator 20.0.0, SVG Export Plug-In . SVG Version: 6.00 Build 0)  -->
<!DOCTYPE svg PUBLIC "-//W3C//DTD SVG 1.1//EN" "http://www.w3.org/Graphics/SVG/1.1/DTD/svg11.dtd">
<svg version="1.1" id="Layer_1" xmlns="http://www.w3.org/2000/svg" xmlns:xlink="http://www.w3.org/1999/xlink" x="0px" y="0px"
	 width="64px" height="64px" viewBox="0 0 64 64" enable-background="new 0 0 64 64" xml:space="preserve">
<path d="M26,63v-4h6.129c5.86,0,10.422-1.354,13.685-4.063s4.894-6.476,4.894-11.302c0-7.215-4.1-11.524-12.3-12.927v-0.369
	c3.423-0.616,6.027-1.964,7.812-4.044c1.785-2.081,2.678-4.722,2.678-7.923c0-4.629-1.601-8.015-4.802-10.157
	C40.895,6.071,35.712,5,28.547,5H26V1h-3v4h-3V1h-3v4h-3c-0.552,0-1,0.448-1,1v52c0,0.552,0.448,1,1,1h3v4h3v-4h3v4H26z M19,10h10
	c4.728,0,7.98,1.101,10.147,2.443c2.167,1.342,3.25,3.527,3.25,6.556c0,3.3-0.973,5.645-2.918,7.036C37.534,27.426,30,28,30,28H19
	V10z M19,54V33h11c4.605,0,8.353,1.228,10.606,2.804c2.253,1.576,3.38,4.038,3.38,7.387c0,3.595-1.102,6.236-3.306,7.923
	C38.476,52.801,34.358,54,30,54H19z"/>
</svg>
