<?xml version="1.0" encoding="utf-8"?>
<!-- Generator: Adobe Illustrator 20.0.0, SVG Export Plug-In . SVG Version: 6.00 Build 0)  -->
<!DOCTYPE svg PUBLIC "-//W3C//DTD SVG 1.1//EN" "http://www.w3.org/Graphics/SVG/1.1/DTD/svg11.dtd">
<svg version="1.1" id="Layer_1" xmlns="http://www.w3.org/2000/svg" xmlns:xlink="http://www.w3.org/1999/xlink" x="0px" y="0px"
	 width="64px" height="64px" viewBox="0 0 64 64" enable-background="new 0 0 64 64" xml:space="preserve">
<circle cx="43" cy="47" r="8"/>
<path d="M63.447,29.105l-7.649-3.824L49.937,9.648C49.79,9.259,49.417,9,49,9H1c-0.552,0-1,0.447-1,1s0.448,1,1,1h31
	c0.552,0,1,0.447,1,1s-0.448,1-1,1h-5v5H8c-0.552,0-1,0.447-1,1s0.448,1,1,1h24c0.552,0,1,0.447,1,1s-0.448,1-1,1h-5v5H15
	c-0.552,0-1,0.447-1,1s0.448,1,1,1h17c0.552,0,1,0.447,1,1s-0.448,1-1,1h-5v15c0,0.553,0.448,1,1,1h5c0-5.514,4.486-10,10-10
	s10,4.486,10,10h10c0.552,0,1-0.447,1-1V30C64,29.621,63.786,29.275,63.447,29.105z"/>
</svg>
