<?xml version="1.0" encoding="utf-8"?>
<!-- Generator: Adobe Illustrator 20.0.0, SVG Export Plug-In . SVG Version: 6.00 Build 0)  -->
<!DOCTYPE svg PUBLIC "-//W3C//DTD SVG 1.1//EN" "http://www.w3.org/Graphics/SVG/1.1/DTD/svg11.dtd">
<svg version="1.1" id="Layer_1" xmlns="http://www.w3.org/2000/svg" xmlns:xlink="http://www.w3.org/1999/xlink" x="0px" y="0px"
	 width="64px" height="64px" viewBox="0 0 64 64" enable-background="new 0 0 64 64" xml:space="preserve">
<path d="M60,9H4c-1.657,0-3,1.343-3,3v10h62V12C63,10.343,61.657,9,60,9z"/>
<path d="M1,52c0,1.657,1.343,3,3,3h56c1.657,0,3-1.343,3-3V31H1V52z M50,43h4c0.552,0,1,0.448,1,1s-0.448,1-1,1h-4
	c-0.552,0-1-0.448-1-1S49.448,43,50,43z M10,43h14c0.552,0,1,0.448,1,1s-0.448,1-1,1H10c-0.552,0-1-0.448-1-1S9.448,43,10,43z"/>
</svg>
