<?xml version="1.0" encoding="utf-8"?>
<!-- Generator: Adobe Illustrator 20.0.0, SVG Export Plug-In . SVG Version: 6.00 Build 0)  -->
<!DOCTYPE svg PUBLIC "-//W3C//DTD SVG 1.1//EN" "http://www.w3.org/Graphics/SVG/1.1/DTD/svg11.dtd">
<svg version="1.1" id="layer" xmlns="http://www.w3.org/2000/svg" xmlns:xlink="http://www.w3.org/1999/xlink" x="0px" y="0px"
	 width="64px" height="64px" viewBox="0 0 64 64" enable-background="new 0 0 64 64" xml:space="preserve">
<path fill="#1D1D1B" d="M61,11H3c-1.105,0-2,0.895-2,2v38c0,1.105,0.895,2,2,2h58c1.105,0,2-0.895,2-2V13C63,11.895,62.105,11,61,11
	z M21.038,39.853H17.89l-7.724-12.515h-0.086l0.054,0.698c0.1,1.332,0.15,2.55,0.15,3.652v8.164H7.954V24.147h3.115l7.702,12.45
	h0.064c-0.015-0.165-0.043-0.764-0.086-1.799c-0.043-1.035-0.064-1.842-0.064-2.422v-8.229h2.353V39.853z M34.068,26.317h-6.316
	v4.275h5.919v2.148h-5.919v4.931h6.316v2.181h-8.884V24.147h8.884V26.317z M51.954,39.853h-2.793l-2.664-9.367
	c-0.115-0.408-0.258-0.997-0.43-1.767c-0.172-0.77-0.276-1.305-0.312-1.606c-0.072,0.458-0.188,1.053-0.349,1.783
	s-0.295,1.275-0.403,1.633l-2.6,9.324h-2.793l-2.03-7.863l-2.062-7.842h2.621l2.245,9.152c0.351,1.468,0.602,2.765,0.752,3.889
	c0.079-0.608,0.197-1.289,0.354-2.041c0.157-0.752,0.301-1.36,0.43-1.826l2.557-9.174h2.546l2.621,9.217
	c0.25,0.853,0.516,2.127,0.795,3.824c0.107-1.024,0.365-2.327,0.773-3.91l2.234-9.131h2.6L51.954,39.853z"/>
</svg>
