<?xml version="1.0" encoding="utf-8"?>
<!-- Generator: Adobe Illustrator 20.0.0, SVG Export Plug-In . SVG Version: 6.00 Build 0)  -->
<!DOCTYPE svg PUBLIC "-//W3C//DTD SVG 1.1//EN" "http://www.w3.org/Graphics/SVG/1.1/DTD/svg11.dtd">
<svg version="1.1" id="Layer_1" xmlns="http://www.w3.org/2000/svg" xmlns:xlink="http://www.w3.org/1999/xlink" x="0px" y="0px"
	 width="64px" height="64px" viewBox="0 0 64 64" enable-background="new 0 0 64 64" xml:space="preserve">
<path d="M9,9v49c0,2.757,2.243,5,5,5h6V8H10C9.448,8,9,8.447,9,9z"/>
<path d="M54,8H30v55h20c2.757,0,5-2.243,5-5V9C55,8.447,54.552,8,54,8z M45,52c0,0.553-0.448,1-1,1s-1-0.447-1-1V40
	c0-0.553,0.448-1,1-1s1,0.447,1,1V52z M45,24c0,0.553-0.448,1-1,1s-1-0.447-1-1v-5c0-0.553,0.448-1,1-1s1,0.447,1,1V24z"/>
<path d="M56,1H8C4.14,1,1,4.141,1,8c0,3.519,2.613,6.432,6,6.92v-2.021C4.721,12.434,3,10.414,3,8c0-2.757,2.243-5,5-5h48
	c2.757,0,5,2.243,5,5c0,2.414-1.721,4.434-4,4.899v2.021c3.387-0.488,6-3.401,6-6.92C63,4.141,59.86,1,56,1z"/>
</svg>
