<svg xmlns="http://www.w3.org/2000/svg" xmlns:xlink="http://www.w3.org/1999/xlink" x="0px" y="0px" width="48px" height="48px" viewBox="0 0 48 48"><g >
<path fill="#E86C60" d="M11,47H2c-0.553,0-1-0.448-1-1V28c0-0.552,0.447-1,1-1h9c0.553,0,1,0.448,1,1v18C12,46.552,11.553,47,11,47z
	"/>
<path fill="#E86C60" d="M46,47h-9c-0.553,0-1-0.448-1-1V28c0-0.552,0.447-1,1-1h9c0.553,0,1,0.448,1,1v18C47,46.552,46.553,47,46,47
	z"/>
<polygon fill="#E86C60" points="26,1 26,4 22,4 22,1 20,1 20,11 22,11 22,6 26,6 26,11 28,11 28,1 "/>
<path fill="#EAD8C5" d="M38,47H10V10c0-0.552,0.448-1,1-1h26c0.552,0,1,0.448,1,1V47z"/>
<path fill="#43A6DD" d="M21,19h-4c-0.552,0-1-0.448-1-1v-3c0-0.552,0.448-1,1-1h4c0.552,0,1,0.448,1,1v3C22,18.552,21.552,19,21,19z
	"/>
<path fill="#43A6DD" d="M31,19h-4c-0.552,0-1-0.448-1-1v-3c0-0.552,0.448-1,1-1h4c0.552,0,1,0.448,1,1v3C32,18.552,31.552,19,31,19z
	"/>
<path fill="#43A6DD" d="M21,27h-4c-0.552,0-1-0.448-1-1v-3c0-0.552,0.448-1,1-1h4c0.552,0,1,0.448,1,1v3C22,26.552,21.552,27,21,27z
	"/>
<path fill="#43A6DD" d="M31,27h-4c-0.552,0-1-0.448-1-1v-3c0-0.552,0.448-1,1-1h4c0.552,0,1,0.448,1,1v3C32,26.552,31.552,27,31,27z
	"/>
<path fill="#43A6DD" d="M21,35h-4c-0.552,0-1-0.448-1-1v-3c0-0.552,0.448-1,1-1h4c0.552,0,1,0.448,1,1v3C22,34.552,21.552,35,21,35z
	"/>
<path fill="#43A6DD" d="M31,35h-4c-0.552,0-1-0.448-1-1v-3c0-0.552,0.448-1,1-1h4c0.552,0,1,0.448,1,1v3C32,34.552,31.552,35,31,35z
	"/>
<path fill="#C19F85" d="M26,39h-4c-0.552,0-1,0.448-1,1v7h6v-7C27,39.448,26.552,39,26,39z"/>
</g></svg>