<svg xmlns="http://www.w3.org/2000/svg" xmlns:xlink="http://www.w3.org/1999/xlink" x="0px" y="0px" width="48px" height="48px" viewBox="0 0 48 48"><g >
<path fill="#444444" d="M21,38c-0.552,0-1-0.447-1-1V24h-7v13c0,0.553-0.448,1-1,1s-1-0.447-1-1V23c0-0.553,0.448-1,1-1h9
	c0.552,0,1,0.447,1,1v14C22,37.553,21.552,38,21,38z"/>
<path fill="#E6E6E6" d="M46,38H6c-0.552,0-1-0.448-1-1V6c0-1.105,0.895-2,2-2h31c4.971,0,9,4.029,9,9v24C47,37.552,46.552,38,46,38z
	"/>
<path fill="#43A6DD" d="M37,19h-7c-0.552,0-1-0.448-1-1v-7c0-0.552,0.448-1,1-1h7c0.552,0,1,0.448,1,1v7C38,18.552,37.552,19,37,19z
	"/>
<rect x="5" y="23" fill="#E86C60" width="42" height="14"/>
<path fill="#B3B3B3" d="M46,38H2c-0.552,0-1-0.447-1-1s0.448-1,1-1h44c0.552,0,1,0.447,1,1S46.552,38,46,38z"/>
<path fill="#444444" d="M34,44c-3.859,0-7-3.141-7-7s3.141-7,7-7s7,3.141,7,7S37.859,44,34,44z"/>
<circle fill="#E6E6E6" cx="34" cy="37" r="3"/>
<path fill="#444444" d="M22,18H12c-0.552,0-1,0.448-1,1v17h12V19C23,18.448,22.552,18,22,18z"/>
<rect x="13" y="20" fill="#E6E6E6" width="8" height="16"/>
</g></svg>