<svg xmlns="http://www.w3.org/2000/svg" xmlns:xlink="http://www.w3.org/1999/xlink" x="0px" y="0px" width="48px" height="48px" viewBox="0 0 48 48"><g >
<path fill="#87613E" d="M10,46H3c-0.552,0-1-0.448-1-1V33c0-2.757,2.243-5,5-5h3c0.552,0,1,0.448,1,1v16C11,45.552,10.552,46,10,46z
	"/>
<path fill="#87613E" d="M45,46h-7c-0.552,0-1-0.448-1-1V29c0-0.552,0.448-1,1-1h3c2.757,0,5,2.243,5,5v12C46,45.552,45.552,46,45,46
	z"/>
<path fill="#444444" d="M30,9c-0.552,0-1-0.448-1-1V3H19v5c0,0.552-0.448,1-1,1s-1-0.448-1-1V2c0-0.552,0.448-1,1-1h12
	c0.552,0,1,0.448,1,1v6C31,8.552,30.552,9,30,9z"/>
<path fill="#A67C52" d="M41,46H7V21c0-0.552,0.448-1,1-1s1,0.448,1,1c0,3.86,5.14,7,9,7h12c3.86,0,9-3.14,9-7c0-0.552,0.448-1,1-1
	s1,0.448,1,1V46z"/>
<path fill="#72C472" d="M35,7H13c-3.314,0-6,2.686-6,6v11c0,3.314,2.686,6,6,6h22c3.314,0,6-2.686,6-6V13C41,9.686,38.314,7,35,7z"/>
<path fill="#444444" d="M16,42c-0.552,0-1-0.448-1-1V25c0-0.552,0.448-1,1-1s1,0.448,1,1v16C17,41.552,16.552,42,16,42z"/>
<path fill="#444444" d="M32,42c-0.552,0-1-0.448-1-1V25c0-0.552,0.448-1,1-1s1,0.448,1,1v16C33,41.552,32.552,42,32,42z"/>
<path fill="#EFD358" d="M18,38h-4c-0.552,0-1-0.448-1-1s0.448-1,1-1h4c0.552,0,1,0.448,1,1S18.552,38,18,38z"/>
<path fill="#EFD358" d="M34,38h-4c-0.552,0-1-0.448-1-1s0.448-1,1-1h4c0.552,0,1,0.448,1,1S34.552,38,34,38z"/>
</g></svg>