<svg xmlns="http://www.w3.org/2000/svg" xmlns:xlink="http://www.w3.org/1999/xlink" x="0px" y="0px" width="48px" height="48px" viewBox="0 0 48 48"><g >
<path fill="#223E49" d="M11,47c-0.553,0-1-0.448-1-1v-3c0-0.552,0.447-1,1-1s1,0.448,1,1v3C12,46.552,11.553,47,11,47z"/>
<path fill="#223E49" d="M37,47c-0.553,0-1-0.448-1-1v-3c0-0.552,0.447-1,1-1s1,0.448,1,1v3C38,46.552,37.553,47,37,47z"/>
<path fill="#B3B3B3" d="M29,11c-0.553,0-1-0.448-1-1V4h-8v6c0,0.552-0.447,1-1,1s-1-0.448-1-1V3c0-0.552,0.447-1,1-1h10
	c0.553,0,1,0.448,1,1v7C30,10.552,29.553,11,29,11z"/>
<path fill="#335262" d="M40,44H8c-0.552,0-1-0.448-1-1V11c0-1.657,1.343-3,3-3h28c1.657,0,3,1.343,3,3v32C41,43.552,40.552,44,40,44
	z"/>
<path fill="#5A7A84" d="M35,44H13V27c0-1.654,1.346-3,3-3h16c1.654,0,3,1.346,3,3V44z"/>
<rect x="7" y="17" fill="#223E49" width="34" height="2"/>
<path fill="#223E49" d="M32,29H16c-0.553,0-1-0.448-1-1s0.447-1,1-1h16c0.553,0,1,0.448,1,1S32.553,29,32,29z"/>
<path fill="#223E49" d="M30,4H18c-0.552,0-1-0.448-1-1V2c0-0.552,0.448-1,1-1h12c0.552,0,1,0.448,1,1v1C31,3.552,30.552,4,30,4z"/>
</g></svg>