<svg xmlns="http://www.w3.org/2000/svg" xmlns:xlink="http://www.w3.org/1999/xlink" x="0px" y="0px" width="48px" height="48px" viewBox="0 0 48 48"><g >
<path fill="#A67C52" d="M16,46V2c0-0.553,0.448-1,1-1h10c0.552,0,1,0.447,1,1v44c0,0.553-0.448,1-1,1H17C16.448,47,16,46.553,16,46z
	"/>
<rect x="21" y="37" fill="#87613E" width="2" height="10"/>
<path fill="#E6E6E6" d="M3,23V9c0-0.553,0.448-1,1-1h34c0.292,0,0.569,0.128,0.759,0.35l6,7c0.321,0.374,0.321,0.927,0,1.301l-6,7
	C38.569,23.872,38.292,24,38,24H4C3.448,24,3,23.553,3,23z"/>
<rect x="16" y="24" transform="matrix(-1 -4.486867e-11 4.486867e-11 -1 44.0001 50)" fill="#87613E" width="12" height="2"/>
</g></svg>