<svg xmlns="http://www.w3.org/2000/svg" xmlns:xlink="http://www.w3.org/1999/xlink" x="0px" y="0px" width="48px" height="48px" viewBox="0 0 48 48"><g >
<path fill="#444444" d="M24,7c-0.553,0-1-0.447-1-1V2c0-0.553,0.447-1,1-1s1,0.447,1,1v4C25,6.553,24.553,7,24,7z"/>
<path fill="#808080" d="M26,15h-4c-0.553,0-1-0.447-1-1V6c0-0.553,0.447-1,1-1h4c0.553,0,1,0.447,1,1v8C27,14.553,26.553,15,26,15z"/>
<path fill="#444444" d="M31,47H17c-0.553,0-1-0.447-1-1V14c0-0.553,0.447-1,1-1h14c0.553,0,1,0.447,1,1v32
	C32,46.553,31.553,47,31,47z"/>
<path fill="#808080" d="M22,47h-9V22c0-0.552,0.448-1,1-1h7c0.552,0,1,0.448,1,1V47z"/>
<path fill="#808080" d="M35,47h-9V22c0-0.552,0.448-1,1-1h7c0.552,0,1,0.448,1,1V47z"/>
<path fill="#808080" d="M18,47h-7c-0.552,0-1-0.448-1-1V28c0-0.552,0.448-1,1-1h7c0.552,0,1,0.448,1,1v18C19,46.552,18.552,47,18,47
	z"/>
<path fill="#808080" d="M37,47h-7c-0.552,0-1-0.448-1-1V28c0-0.552,0.448-1,1-1h7c0.552,0,1,0.448,1,1v18C38,46.552,37.552,47,37,47
	z"/>
<path fill="#9BCED3" d="M18,32h-4c-0.552,0-1-0.448-1-1v0c0-0.552,0.448-1,1-1h4c0.552,0,1,0.448,1,1v0C19,31.552,18.552,32,18,32z"/>
<path fill="#9BCED3" d="M18,36h-4c-0.552,0-1-0.448-1-1l0,0c0-0.552,0.448-1,1-1h4c0.552,0,1,0.448,1,1l0,0
	C19,35.552,18.552,36,18,36z"/>
<path fill="#9BCED3" d="M18,40h-4c-0.552,0-1-0.448-1-1l0,0c0-0.552,0.448-1,1-1h4c0.552,0,1,0.448,1,1l0,0
	C19,39.552,18.552,40,18,40z"/>
<path fill="#9BCED3" d="M18,44h-4c-0.552,0-1-0.448-1-1l0,0c0-0.552,0.448-1,1-1h4c0.552,0,1,0.448,1,1l0,0
	C19,43.552,18.552,44,18,44z"/>
<path fill="#9BCED3" d="M34,32h-4c-0.552,0-1-0.448-1-1v0c0-0.552,0.448-1,1-1h4c0.552,0,1,0.448,1,1v0C35,31.552,34.552,32,34,32z"/>
<path fill="#9BCED3" d="M34,36h-4c-0.552,0-1-0.448-1-1l0,0c0-0.552,0.448-1,1-1h4c0.552,0,1,0.448,1,1l0,0
	C35,35.552,34.552,36,34,36z"/>
<path fill="#9BCED3" d="M34,40h-4c-0.552,0-1-0.448-1-1l0,0c0-0.552,0.448-1,1-1h4c0.552,0,1,0.448,1,1l0,0
	C35,39.552,34.552,40,34,40z"/>
<path fill="#9BCED3" d="M34,44h-4c-0.552,0-1-0.448-1-1l0,0c0-0.552,0.448-1,1-1h4c0.552,0,1,0.448,1,1l0,0
	C35,43.552,34.552,44,34,44z"/>
</g></svg>