<svg xmlns="http://www.w3.org/2000/svg" xmlns:xlink="http://www.w3.org/1999/xlink" x="0px" y="0px" width="48px" height="48px" viewBox="0 0 48 48"><g >
<path fill="#C64692" d="M13.76,44.205c-4.135,0-8.494-1.857-11.177-6.504C-1.286,31,3.158,14.439,3.35,13.737
	c0.146-0.53,0.691-0.844,1.222-0.704c0.22,0.058,5.448,1.457,10.748,3.809c0.324,0.144,0.549,0.449,0.588,0.801l2.814,24.823
	c0.054,0.472-0.232,0.917-0.684,1.063C16.699,43.965,15.244,44.205,13.76,44.205z"/>
<path fill="#C64692" d="M34.24,44.205c-1.484,0-2.939-0.239-4.278-0.675c-0.451-0.146-0.737-0.59-0.685-1.062l2.778-24.807
	c0.04-0.353,0.264-0.658,0.588-0.802c5.312-2.362,10.564-3.767,10.785-3.825c0.528-0.144,1.077,0.172,1.222,0.704
	c0.191,0.702,4.636,17.263,0.767,23.964C42.735,42.348,38.375,44.205,34.24,44.205z"/>
<path fill="#ED69AB" d="M24,45c-7.373,0-15-5.504-15-14.714C9,21.625,22.649,5.062,23.23,4.362c0.379-0.458,1.16-0.458,1.539,0
	C25.351,5.062,39,21.625,39,30.286C39,39.496,31.373,45,24,45z"/>
</g></svg>