<svg xmlns="http://www.w3.org/2000/svg" xmlns:xlink="http://www.w3.org/1999/xlink" x="0px" y="0px" width="48px" height="48px" viewBox="0 0 48 48"><g >
<path fill="#C64692" d="M6,10c-0.552,0-1-0.448-1-1V2c0-0.552,0.448-1,1-1s1,0.448,1,1v7C7,9.552,6.552,10,6,10z"/>
<path fill="#C64692" d="M42,10c-0.552,0-1-0.448-1-1V2c0-0.552,0.448-1,1-1s1,0.448,1,1v7C43,9.552,42.552,10,42,10z"/>
<path fill="#EF8EC3" d="M42.395,6.031c-0.366-0.158-0.793-0.082-1.083,0.194L25.377,21.362c-0.772,0.733-1.983,0.733-2.755,0
	L6.689,6.225C6.398,5.95,5.972,5.874,5.605,6.031C5.238,6.189,5,6.55,5,6.95V16c0,4.971,4.029,9,9,9h20c4.971,0,9-4.029,9-9V6.95
	C43,6.55,42.762,6.189,42.395,6.031z"/>
<path fill="#EF8EC3" d="M12.008,34c0,0.213,0.06,0.424,0.192,0.6l9,12c0.188,0.252,0.485,0.4,0.8,0.4h4c0.315,0,0.611-0.148,0.8-0.4
	l9-12c0.132-0.177,0.192-0.388,0.192-0.6H12.008z"/>
<path fill="#C64692" d="M42,35H6c-0.552,0-1-0.448-1-1s0.448-1,1-1h36c0.552,0,1,0.448,1,1S42.552,35,42,35z"/>
</g></svg>