<svg xmlns="http://www.w3.org/2000/svg" xmlns:xlink="http://www.w3.org/1999/xlink" x="0px" y="0px" width="48px" height="48px" viewBox="0 0 48 48"><g >
<path fill="#5A7A84" d="M31,13H17c-0.553,0-1-0.447-1-1c0-6.517,7.289-9.78,7.6-9.916c0.254-0.111,0.547-0.111,0.801,0
	C24.711,2.22,32,5.483,32,12C32,12.553,31.553,13,31,13z"/>
<path fill="#EAD8C5" d="M42,46H6c-0.553,0-1-0.447-1-1V31c0-0.553,0.447-1,1-1h36c0.553,0,1,0.447,1,1v14C43,45.553,42.553,46,42,46
	z"/>
<rect x="31" y="28" fill="#E86C60" width="4" height="18"/>
<rect x="13" y="28" fill="#E86C60" width="4" height="18"/>
<path fill="#B7443E" d="M46,32H2c-0.553,0-1-0.447-1-1v-1c0-0.511,0.386-0.939,0.894-0.994c0.258-0.03,6.431-0.822,9.167-8.348
	C11.204,20.263,11.579,20,12,20h24c0.421,0,0.796,0.263,0.939,0.658c2.736,7.525,8.909,8.317,9.171,8.348
	C46.615,29.064,47,29.492,47,30v1C47,31.553,46.553,32,46,32z"/>
<path fill="#E86C60" d="M45,23H3c-0.553,0-1-0.447-1-1v-1c0-0.511,0.386-0.939,0.894-0.994c0.258-0.03,6.431-0.822,9.167-8.348
	C12.204,11.263,12.579,11,13,11h22c0.421,0,0.796,0.263,0.939,0.658c2.736,7.525,8.909,8.317,9.171,8.348
	C45.615,20.064,46,20.492,46,21v1C46,22.553,45.553,23,45,23z"/>
<path fill="#223E49" d="M27,37h-6c-0.552,0-1,0.448-1,1v8h8v-8C28,37.448,27.552,37,27,37z"/>
</g></svg>