<svg xmlns="http://www.w3.org/2000/svg" xmlns:xlink="http://www.w3.org/1999/xlink" x="0px" y="0px" width="48px" height="48px" viewBox="0 0 48 48"><g >
<path fill="#87613E" d="M41.264,46.199c-0.113,0-0.229-0.02-0.342-0.061L3.334,32.457c-0.249-0.09-0.452-0.276-0.564-0.517
	c-0.112-0.241-0.124-0.516-0.033-0.765l2.736-7.518c0.188-0.519,0.766-0.787,1.281-0.598l37.588,13.681
	c0.249,0.09,0.452,0.276,0.564,0.517c0.112,0.241,0.124,0.516,0.033,0.765l-2.736,7.518C42.056,45.946,41.672,46.199,41.264,46.199z
	"/>
<path fill="#A67C52" d="M6.412,46.199c-0.408,0-0.792-0.252-0.939-0.659l-2.736-7.518c-0.091-0.249-0.079-0.524,0.033-0.765
	c0.112-0.24,0.315-0.426,0.564-0.517L40.922,23.06c0.519-0.189,1.093,0.079,1.281,0.598l2.736,7.518
	c0.091,0.249,0.079,0.524-0.033,0.765c-0.112,0.24-0.315,0.426-0.564,0.517L6.754,46.138C6.642,46.179,6.525,46.199,6.412,46.199z"/>
<path fill="#E86C60" d="M24,31c-5.407,0-11-4.079-11-10.905c0-6.379,9.84-17.305,10.259-17.767c0.381-0.418,1.102-0.418,1.482,0
	C25.16,2.79,35,13.716,35,20.095C35,26.921,29.407,31,24,31z"/>
<path fill="#EFD358" d="M24,25c-2.13,0-4.333-1.609-4.333-4.302c0-2.292,2.992-5.708,3.592-6.37c0.379-0.418,1.104-0.418,1.482,0
	c0.6,0.662,3.592,4.079,3.592,6.37C28.333,23.391,26.13,25,24,25z"/>
</g></svg>