<svg xmlns="http://www.w3.org/2000/svg" xmlns:xlink="http://www.w3.org/1999/xlink" x="0px" y="0px" width="48px" height="48px" viewBox="0 0 48 48"><g >
<path fill="#444444" d="M39,12H9c-3.866,0-7,3.134-7,7v4c0,3.866,3.134,7,7,7h5c3.866,0,7-3.134,7-7v0c0-1.657,1.343-3,3-3h0
	c1.657,0,3,1.343,3,3v0c0,3.866,3.134,7,7,7h5c3.866,0,7-3.134,7-7v-4C46,15.134,42.866,12,39,12z"/>
<polygon fill="#808080" points="7.4,30 14.6,12 11.6,12 4.851,28.871 "/>
<polygon fill="#808080" points="12.4,30 19.6,12 17.6,12 10.4,30 "/>
<polygon fill="#808080" points="32.4,30 39.6,12 36.6,12 29.924,28.691 "/>
<polygon fill="#808080" points="37.4,30 43.948,13.629 42.6,12 35.4,30 "/>
<path fill="#444444" d="M36,47H2c-0.552,0-1-0.447-1-1s0.448-1,1-1h34c0.552,0,1,0.447,1,1S36.553,47,36,47z"/>
<path fill="#444444" d="M2,20c-0.552,0-1-0.447-1-1v-9c0-4.963,4.038-9,9-9h28c4.962,0,9,4.037,9,9v8c0,0.553-0.448,1-1,1
	s-1-0.447-1-1v-8c0-3.859-3.14-7-7-7H10c-3.86,0-7,3.141-7,7v9C3,19.553,2.552,20,2,20z"/>
<path fill="#43A6DD" d="M39,31h-5c-4.411,0-8-3.589-8-8c0-1.103-0.897-2-2-2s-2,0.897-2,2c0,4.411-3.589,8-8,8H9
	c-4.411,0-8-3.589-8-8v-4c0-4.411,3.589-8,8-8h30c4.411,0,8,3.589,8,8v4C47,27.411,43.411,31,39,31z M24,19c2.206,0,4,1.794,4,4
	c0,3.309,2.691,6,6,6h5c3.309,0,6-2.691,6-6v-4c0-3.309-2.691-6-6-6H9c-3.309,0-6,2.691-6,6v4c0,3.309,2.691,6,6,6h5
	c3.309,0,6-2.691,6-6C20,20.794,21.794,19,24,19z"/>
<path fill="#43A6DD" d="M40.5,47H36v-2h4.5c2.481,0,4.5-2.019,4.5-4.5S42.981,36,40.5,36H40c-0.552,0-1-0.447-1-1s0.448-1,1-1h0.5
	c3.584,0,6.5,2.916,6.5,6.5S44.084,47,40.5,47z"/>
</g></svg>