<svg xmlns="http://www.w3.org/2000/svg" xmlns:xlink="http://www.w3.org/1999/xlink" x="0px" y="0px" width="48px" height="48px" viewBox="0 0 48 48"><g >
<path fill="#444444" d="M42,1H6C5.448,1,5,1.448,5,2v44c0,0.552,0.448,1,1,1h11.219c0.459,0,0.859-0.312,0.97-0.757l4.84-19.362
	c0.252-1.01,1.688-1.01,1.94,0l4.84,19.362C29.922,46.688,30.322,47,30.781,47H42c0.552,0,1-0.448,1-1V2C43,1.448,42.552,1,42,1z"/>
<rect x="5" y="9" fill="#B3B3B3" width="38" height="2"/>
<path fill="#B3B3B3" d="M24,21c-0.552,0-1-0.448-1-1V10c0-0.552,0.448-1,1-1s1,0.448,1,1v10C25,20.552,24.552,21,24,21z"/>
<path fill="#43A6DD" d="M5,46c0,0.552,0.448,1,1,1h3V11H5V46z"/>
<path fill="#43A6DD" d="M43,46c0,0.552-0.448,1-1,1h-3V11h4V46z"/>
</g></svg>