<svg xmlns="http://www.w3.org/2000/svg" xmlns:xlink="http://www.w3.org/1999/xlink" x="0px" y="0px" width="48px" height="48px" viewBox="0 0 48 48"><g >
<polyline fill="#E6E6E6" points="33,26 33,10 15,10 15,26 "/>
<path fill="#E86C60" d="M33,10H15v0c0-4.971,4.029-9,9-9h0C28.971,1,33,5.029,33,10L33,10z"/>
<path fill="#444444" d="M29,23H19c-0.552,0-1-0.448-1-1v-8c0-0.552,0.448-1,1-1h10c0.552,0,1,0.448,1,1v8C30,22.552,29.552,23,29,23
	z"/>
<path fill="#EFD358" d="M10,19H5c-0.552,0-1-0.447-1-1s0.448-1,1-1h5c0.552,0,1,0.447,1,1S10.552,19,10,19z"/>
<path fill="#EFD358" d="M9.789,13.789c-0.256,0-0.512-0.098-0.707-0.293l-1.789-1.789c-0.391-0.391-0.391-1.023,0-1.414
	s1.023-0.391,1.414,0l1.789,1.789c0.391,0.391,0.391,1.023,0,1.414C10.301,13.691,10.045,13.789,9.789,13.789z"/>
<path fill="#EFD358" d="M8,26c-0.256,0-0.512-0.098-0.707-0.293c-0.391-0.391-0.391-1.023,0-1.414l1.789-1.789
	c0.391-0.391,1.023-0.391,1.414,0s0.391,1.023,0,1.414l-1.789,1.789C8.512,25.902,8.256,26,8,26z"/>
<path fill="#EFD358" d="M43,19h-5c-0.552,0-1-0.447-1-1s0.448-1,1-1h5c0.552,0,1,0.447,1,1S43.552,19,43,19z"/>
<path fill="#EFD358" d="M38.211,13.789c-0.256,0-0.512-0.098-0.707-0.293c-0.391-0.391-0.391-1.023,0-1.414l1.789-1.789
	c0.391-0.391,1.023-0.391,1.414,0s0.391,1.023,0,1.414l-1.789,1.789C38.723,13.691,38.467,13.789,38.211,13.789z"/>
<path fill="#EFD358" d="M39.789,26c-0.256,0-0.512-0.098-0.707-0.293l-1.789-1.789c-0.391-0.391-0.391-1.023,0-1.414
	s1.023-0.391,1.414,0l1.789,1.789c0.391,0.391,0.391,1.023,0,1.414C40.301,25.902,40.045,26,39.789,26z"/>
<polygon fill="#D3D3D3" points="38,43 33,26 15,26 10,43 "/>
<path fill="#76B5B5" d="M46,47c0.552,0,1-0.448,1-1V34.544c-0.646,0.29-1.257,0.684-1.787,1.214c-2.343,2.343-6.142,2.343-8.485,0
	c-2.343-2.343-6.142-2.343-8.485,0c-2.343,2.343-6.142,2.343-8.485,0s-6.142-2.343-8.485,0s-6.142,2.343-8.485,0
	c-0.53-0.53-1.141-0.924-1.787-1.214V46c0,0.552,0.448,1,1,1H46z"/>
<circle fill="#EFD358" cx="24" cy="18" r="3"/>
</g></svg>