<svg xmlns="http://www.w3.org/2000/svg" xmlns:xlink="http://www.w3.org/1999/xlink" x="0px" y="0px" width="48px" height="48px" viewBox="0 0 48 48"><g >
<path fill="#B3B3B3" d="M35,46V33c0-0.553,0.448-1,1-1h9c0.552,0,1,0.447,1,1v13c0,0.553-0.448,1-1,1h-9C35.448,47,35,46.553,35,46z
	"/>
<path fill="#B3B3B3" d="M12,47H3c-0.552,0-1-0.447-1-1V33c0-0.553,0.448-1,1-1h9c0.552,0,1,0.447,1,1v13C13,46.553,12.552,47,12,47z
	"/>
<path fill="#B3B3B3" d="M36,47H12c-0.552,0-1-0.447-1-1V23c0-0.553,0.448-1,1-1h24c0.552,0,1,0.447,1,1v23
	C37,46.553,36.552,47,36,47z"/>
<path fill="#5B5B5B" d="M24,15c-0.553,0-1-0.448-1-1V2c0-0.552,0.448-1,1-1h0c0.552,0,1,0.448,1,1v12C25,14.552,24.553,15,24,15z"/>
<path fill="#E86C60" d="M33,10h-8V3h8c0.552,0,1,0.448,1,1v5C34,9.552,33.552,10,33,10z"/>
<path fill="#E6E6E6" d="M40,24H8c-0.446,0-0.838-0.296-0.961-0.725s0.053-0.887,0.432-1.123l16-10c0.324-0.203,0.735-0.203,1.06,0
	l16,10c0.378,0.236,0.555,0.694,0.432,1.123S40.446,24,40,24z"/>
<rect x="10" y="24" fill="#DDDDDD" width="4" height="23"/>
<rect x="34" y="24" fill="#DDDDDD" width="4" height="23"/>
<rect x="18" y="24" fill="#DDDDDD" width="4" height="23"/>
<rect x="26" y="24" fill="#DDDDDD" width="4" height="23"/>
<rect x="10" y="45" fill="#DDDDDD" width="28" height="2"/>
<path fill="#72C472" d="M14.314,47C14.749,46.09,15,45.076,15,44c0-3.866-3.134-7-7-7c-3.866,0-7,3.134-7,7
	c0,1.076,0.251,2.09,0.686,3H14.314z"/>
<path fill="#72C472" d="M33.686,47C33.251,46.09,33,45.076,33,44c0-3.866,3.134-7,7-7c3.866,0,7,3.134,7,7
	c0,1.076-0.251,2.09-0.686,3H33.686z"/>
<rect x="10" y="24" fill="#CCCCCC" width="4" height="3"/>
<rect x="18" y="24" fill="#CCCCCC" width="4" height="3"/>
<rect x="26" y="24" fill="#CCCCCC" width="4" height="3"/>
<rect x="14" y="24" fill="#9E9E9E" width="4" height="3"/>
<rect x="22" y="24" fill="#9E9E9E" width="4" height="3"/>
<rect x="30" y="24" fill="#9E9E9E" width="4" height="3"/>
<rect x="34" y="24" fill="#CCCCCC" width="4" height="3"/>
</g></svg>