<svg xmlns="http://www.w3.org/2000/svg" xmlns:xlink="http://www.w3.org/1999/xlink" x="0px" y="0px" width="48px" height="48px" viewBox="0 0 48 48"><g >
<path fill="#B7443E" d="M38,27h-6v-8.333c4.199-2.661,7-7.338,7-12.667c0-0.553-0.447-1-1-1s-1,0.447-1,1c0,7.168-5.832,13-13,13
	S11,13.168,11,6c0-0.553-0.447-1-1-1S9,5.447,9,6c0,5.329,2.801,10.005,7,12.667V27h-6c-0.553,0-1,0.447-1,1s0.447,1,1,1h28
	c0.553,0,1-0.447,1-1S38.553,27,38,27z M30,27h-5v-6.051c1.767-0.117,3.452-0.531,5-1.21V27z M18,19.739
	c1.548,0.679,3.233,1.093,5,1.21V27h-5V19.739z"/>
<path fill="#E86C60" d="M10,39H4c-0.553,0-1-0.447-1-1V4c0-0.553,0.447-1,1-1h6c0.553,0,1,0.447,1,1v34C11,38.553,10.553,39,10,39z"/>
<path fill="#E86C60" d="M44,39h-6c-0.553,0-1-0.447-1-1V4c0-0.553,0.447-1,1-1h6c0.553,0,1,0.447,1,1v34C45,38.553,44.553,39,44,39z
	"/>
<path fill="#BADEFC" d="M46,45c0.552,0,1-0.448,1-1V32.544c-0.646,0.29-1.257,0.684-1.787,1.214c-2.343,2.343-6.142,2.343-8.485,0
	c-2.343-2.343-6.142-2.343-8.485,0c-2.343,2.343-6.142,2.343-8.485,0s-6.142-2.343-8.485,0s-6.142,2.343-8.485,0
	c-0.53-0.53-1.141-0.924-1.787-1.214V44c0,0.552,0.448,1,1,1H46z"/>
</g></svg>