<svg xmlns="http://www.w3.org/2000/svg" xmlns:xlink="http://www.w3.org/1999/xlink" x="0px" y="0px" width="48px" height="48px" viewBox="0 0 48 48"><g >
<rect x="4" y="24" fill="#B3B3B3" width="4" height="22"/>
<rect x="40" y="24" fill="#B3B3B3" width="4" height="22"/>
<rect x="31" y="24" fill="#B3B3B3" width="4" height="22"/>
<rect x="22" y="24" fill="#B3B3B3" width="4" height="22"/>
<rect x="13" y="24" fill="#B3B3B3" width="4" height="22"/>
<path fill="#B3B3B3" d="M24,7c-0.552,0-1-0.448-1-1V2c0-0.552,0.448-1,1-1s1,0.448,1,1v4C25,6.552,24.552,7,24,7z"/>
<path fill="#E6E6E6" d="M43,25H5c-0.552,0-1-0.448-1-1C4,12.972,12.972,4,24,4s20,8.972,20,20C44,24.552,43.552,25,43,25z"/>
<path fill="#B3B3B3" d="M46,47H2c-0.552,0-1-0.448-1-1s0.448-1,1-1h44c0.552,0,1,0.448,1,1S46.552,47,46,47z"/>
<path fill="#B3B3B3" d="M46,25H2c-0.552,0-1-0.448-1-1s0.448-1,1-1h44c0.552,0,1,0.448,1,1S46.552,25,46,25z"/>
<rect x="4" y="25" fill="#A3A3A3" width="4" height="2"/>
<rect x="13" y="25" fill="#A3A3A3" width="4" height="2"/>
<rect x="22" y="25" fill="#A3A3A3" width="4" height="2"/>
<rect x="31" y="25" fill="#A3A3A3" width="4" height="2"/>
<rect x="40" y="25" fill="#A3A3A3" width="4" height="2"/>
</g></svg>