<svg xmlns="http://www.w3.org/2000/svg" xmlns:xlink="http://www.w3.org/1999/xlink" x="0px" y="0px" width="48px" height="48px" viewBox="0 0 48 48"><g >
<path fill="#8E192F" d="M36,1H6C5.448,1,5,1.447,5,2v44c0,0.553,0.448,1,1,1h30c3.86,0,7-3.141,7-7V8C43,4.141,39.86,1,36,1z"/>
<path fill="#9B3A53" d="M31,33H17c-0.552,0-1-0.447-1-1s0.448-1,1-1h14c0.552,0,1,0.447,1,1S31.552,33,31,33z"/>
<path fill="#EFD358" d="M24,7c-5.514,0-10,4.486-10,10s4.486,10,10,10s10-4.486,10-10S29.514,7,24,7z M31.931,16h-3.097
	c-0.109-2.478-0.622-4.637-1.411-6.22C29.836,10.929,31.585,13.246,31.931,16z M24,25c-1.083,0-2.62-2.696-2.831-7h5.661
	C26.62,22.304,25.083,25,24,25z M21.169,16C21.38,11.696,22.917,9,24,9s2.62,2.696,2.831,7H21.169z M20.577,9.78
	c-0.789,1.583-1.302,3.741-1.411,6.22h-3.097C16.415,13.246,18.164,10.929,20.577,9.78z M16.069,18h3.097
	c0.109,2.478,0.622,4.637,1.411,6.22C18.164,23.071,16.415,20.754,16.069,18z M27.423,24.22c0.789-1.583,1.302-3.741,1.411-6.22
	h3.097C31.585,20.754,29.836,23.071,27.423,24.22z"/>
<path fill="#EFD358" d="M22,36h4c0.552,0,1,0.448,1,1v2c0,0.552-0.448,1-1,1h-4c-0.552,0-1-0.448-1-1v-2C21,36.448,21.448,36,22,36z
	"/>
</g></svg>