<svg xmlns="http://www.w3.org/2000/svg" xmlns:xlink="http://www.w3.org/1999/xlink" x="0px" y="0px" width="48px" height="48px" viewBox="0 0 48 48"><g >
<path fill="#D1B43D" d="M24,14c-0.553,0-1-0.448-1-1V5c0-0.552,0.447-1,1-1s1,0.448,1,1v8C25,13.552,24.553,14,24,14z"/>
<path fill="#EFD358" d="M42,35H6c-0.552,0-1-0.448-1-1v-4c0-10.493,8.507-19,19-19h0c10.493,0,19,8.507,19,19v4
	C43,34.552,42.552,35,42,35z"/>
<path fill="#EFE6BD" d="M10.923,26c-0.119,0-0.24-0.021-0.358-0.067c-0.516-0.198-0.773-0.776-0.575-1.292
	c1.524-3.975,4.679-7.128,8.652-8.653c0.517-0.199,1.095,0.06,1.292,0.575c0.198,0.516-0.06,1.094-0.575,1.292
	c-3.446,1.322-6.18,4.056-7.502,7.502C11.704,25.756,11.325,26,10.923,26z"/>
<path fill="#EFD358" d="M30,6H18c-0.553,0-1-0.448-1-1s0.447-1,1-1h12c0.553,0,1,0.448,1,1S30.553,6,30,6z"/>
<path fill="#87613E" d="M46,45H2c-0.552,0-1-0.448-1-1v-3c0-2.209,1.791-4,4-4h38c2.209,0,4,1.791,4,4v3C47,44.552,46.552,45,46,45z
	"/>
<path fill="#A67C52" d="M1,41v1h46v-1c0-0.347-0.058-0.679-0.141-1H1.141C1.058,40.321,1,40.653,1,41z"/>
</g></svg>