<svg xmlns="http://www.w3.org/2000/svg" xmlns:xlink="http://www.w3.org/1999/xlink" x="0px" y="0px" width="48px" height="48px" viewBox="0 0 48 48"><g >
<path fill="#A67C52" d="M24,14c-0.553,0-1-0.448-1-1V9c0-0.552,0.447-1,1-1s1,0.448,1,1v4C25,13.552,24.553,14,24,14z"/>
<path fill="#C19F85" d="M38,27c0-7.732-6.268-14-14-14c-7.732,0-14,6.268-14,14H38z"/>
<path fill="#EAD8C5" d="M46,47H2c-0.553,0-1-0.448-1-1V15c0-0.552,0.447-1,1-1h8c0.553,0,1,0.448,1,1v11h26V15c0-0.552,0.447-1,1-1
	h8c0.553,0,1,0.448,1,1v31C47,46.552,46.553,47,46,47z"/>
<path fill="#C19F85" d="M11,16H1v-6c0-2.512,3.592-6.043,4.312-6.726c0.385-0.366,0.99-0.366,1.375,0C7.408,3.957,11,7.488,11,10V16
	z"/>
<path fill="#C19F85" d="M47,16H37v-6c0-2.512,3.592-6.043,4.312-6.726c0.385-0.366,0.99-0.366,1.375,0C43.408,3.957,47,7.488,47,10
	V16z"/>
<path fill="#A67C52" d="M31,47H17v-7c0-3.866,3.134-7,7-7h0c3.866,0,7,3.134,7,7V47z"/>
<path fill="#A67C52" d="M14,22L14,22c-0.552,0-1,0.448-1,1v3h2v-3C15,22.448,14.552,22,14,22z"/>
<path fill="#A67C52" d="M18,22L18,22c-0.552,0-1,0.448-1,1v3h2v-3C19,22.448,18.552,22,18,22z"/>
<path fill="#A67C52" d="M4,12L4,12c-0.552,0-1,0.448-1,1v3h2v-3C5,12.448,4.552,12,4,12z"/>
<path fill="#A67C52" d="M8,12L8,12c-0.552,0-1,0.448-1,1v3h2v-3C9,12.448,8.552,12,8,12z"/>
<path fill="#A67C52" d="M40,12L40,12c-0.552,0-1,0.448-1,1v3h2v-3C41,12.448,40.552,12,40,12z"/>
<path fill="#A67C52" d="M44,12L44,12c-0.552,0-1,0.448-1,1v3h2v-3C45,12.448,44.552,12,44,12z"/>
<path fill="#A67C52" d="M22,22L22,22c-0.552,0-1,0.448-1,1v3h2v-3C23,22.448,22.552,22,22,22z"/>
<path fill="#A67C52" d="M26,22L26,22c-0.552,0-1,0.448-1,1v3h2v-3C27,22.448,26.552,22,26,22z"/>
<path fill="#A67C52" d="M30,22L30,22c-0.552,0-1,0.448-1,1v3h2v-3C31,22.448,30.552,22,30,22z"/>
<path fill="#A67C52" d="M34,22L34,22c-0.552,0-1,0.448-1,1v3h2v-3C35,22.448,34.552,22,34,22z"/>
</g></svg>