<svg xmlns="http://www.w3.org/2000/svg" xmlns:xlink="http://www.w3.org/1999/xlink" x="0px" y="0px" width="48px" height="48px" viewBox="0 0 48 48"><g >
<path fill="#CC9164" d="M45.839,23.455l-13-20C32.657,3.177,32.35,3.006,32.018,3c-0.356-0.004-0.646,0.154-0.837,0.427l-7,10
	c-0.236,0.337-0.241,0.785-0.013,1.128l10,15C34.359,29.842,34.676,30,35.001,30c0.15,0,0.304-0.034,0.446-0.105l10-5
	c0.255-0.128,0.443-0.357,0.518-0.632C46.04,23.987,45.994,23.693,45.839,23.455z"/>
<path fill="#DEA778" d="M15,46c-0.251,0-0.497-0.095-0.685-0.271c-0.255-0.239-0.366-0.593-0.294-0.935l8-38
	c0.082-0.39,0.388-0.694,0.778-0.773c0.388-0.081,0.791,0.08,1.02,0.406l21,30c0.187,0.266,0.231,0.606,0.122,0.912
	c-0.11,0.306-0.362,0.539-0.676,0.625l-29,8C15.178,45.988,15.089,46,15,46z"/>
<path fill="#E8BFA0" d="M15,46c-0.23,0-0.458-0.08-0.641-0.231l-12-10c-0.401-0.335-0.478-0.924-0.173-1.35l20-28
	c0.275-0.386,0.785-0.522,1.216-0.335L15,46z"/>
</g></svg>