<svg xmlns="http://www.w3.org/2000/svg" xmlns:xlink="http://www.w3.org/1999/xlink" x="0px" y="0px" width="48px" height="48px" viewBox="0 0 48 48"><g >
<path fill="#B3B3B3" d="M11.999,45c-0.152,0-0.306-0.035-0.451-0.108c-0.493-0.25-0.689-0.852-0.44-1.344l3.6-7.1
	c0.25-0.492,0.851-0.689,1.344-0.44c0.493,0.25,0.689,0.852,0.44,1.344l-3.6,7.1C12.716,44.8,12.364,45,11.999,45z"/>
<path fill="#B3B3B3" d="M36.001,45c-0.365,0-0.717-0.2-0.893-0.548l-3.6-7.1c-0.25-0.493-0.053-1.094,0.44-1.344
	c0.493-0.25,1.095-0.052,1.344,0.44l3.6,7.1c0.25,0.493,0.053,1.094-0.44,1.344C36.307,44.965,36.153,45,36.001,45z"/>
<path fill="#5B5B5B" d="M24,40C13.523,40,5,31.477,5,21c0-0.552,0.448-1,1-1h36c0.552,0,1,0.448,1,1C43,31.477,34.477,40,24,40z"/>
<path fill="#E86C60" d="M24,11c-0.552,0-1-0.448-1-1V4c0-0.552,0.448-1,1-1s1,0.448,1,1v6C25,10.552,24.552,11,24,11z"/>
<path fill="#E86C60" d="M16,15c-0.552,0-1-0.448-1-1V8c0-0.552,0.448-1,1-1s1,0.448,1,1v6C17,14.552,16.552,15,16,15z"/>
<path fill="#E86C60" d="M32,15c-0.552,0-1-0.448-1-1V8c0-0.552,0.448-1,1-1s1,0.448,1,1v6C33,14.552,32.552,15,32,15z"/>
<path fill="#B3B3B3" d="M29,28H19c-0.552,0-1-0.448-1-1s0.448-1,1-1h10c0.552,0,1,0.448,1,1S29.552,28,29,28z"/>
<path fill="#B3B3B3" d="M44,22H4c-0.552,0-1-0.448-1-1s0.448-1,1-1h40c0.552,0,1,0.448,1,1S44.552,22,44,22z"/>
</g></svg>