<svg xmlns="http://www.w3.org/2000/svg" xmlns:xlink="http://www.w3.org/1999/xlink" x="0px" y="0px" width="48px" height="48px" viewBox="0 0 48 48"><g >
<rect x="21" y="32" fill="#B3B3B3" width="6" height="12"/>
<path fill="#EFD358" d="M38,7v20c0,6.075-4.925,11-11,11h-6c-6.075,0-11-4.925-11-11V7H38z"/>
<path fill="#E86C60" d="M24,31c-1.631,0-5-1.292-5-5.286c0-2.894,3.783-7.784,4.214-8.333c0.379-0.481,1.192-0.481,1.571,0
	C25.217,17.93,29,22.82,29,25.714C29,29.708,25.631,31,24,31z"/>
<path fill="#444444" d="M29,41H19c-3.925,0-7,2.196-7,5c0,0.552,0.448,1,1,1h22c0.552,0,1-0.448,1-1C36,43.196,32.925,41,29,41z"/>
<path fill="#B3B3B3" d="M31,2c0-0.552-0.448-1-1-1H18c-0.552,0-1,0.448-1,1v5h14V2z M29,6H19V3h10V6z"/>
<path fill="#444444" d="M42,8H6C5.448,8,5,7.552,5,7s0.448-1,1-1h36c0.552,0,1,0.448,1,1S42.552,8,42,8z"/>
</g></svg>