<svg xmlns="http://www.w3.org/2000/svg" xmlns:xlink="http://www.w3.org/1999/xlink" x="0px" y="0px" width="48px" height="48px" viewBox="0 0 48 48"><g >
<path fill="#335262" d="M32,1c-0.552,0-1,0.448-1,1s0.448,1,1,1c1.654,0,3,1.346,3,3v4H13V6c0-1.654,1.346-3,3-3
	c0.552,0,1-0.448,1-1s-0.448-1-1-1c-2.757,0-5,2.243-5,5v32c0,0.552,0.448,1,1,1s1-0.448,1-1v-6h22v6c0,0.552,0.448,1,1,1
	s1-0.448,1-1V6C37,3.243,34.757,1,32,1z M35,12v8H13v-8H35z M13,30v-8h22v8H13z"/>
<path fill="#76B5B5" d="M46,47c0.552,0,1-0.448,1-1V34.544c-0.646,0.29-1.257,0.684-1.787,1.214c-2.343,2.343-6.142,2.343-8.485,0
	c-2.343-2.343-6.142-2.343-8.485,0c-2.343,2.343-6.142,2.343-8.485,0s-6.142-2.343-8.485,0s-6.142,2.343-8.485,0
	c-0.53-0.53-1.141-0.924-1.787-1.214V46c0,0.552,0.448,1,1,1H46z"/>
</g></svg>