<svg xmlns="http://www.w3.org/2000/svg" xmlns:xlink="http://www.w3.org/1999/xlink" x="0px" y="0px" width="48px" height="48px" viewBox="0 0 48 48"><g >
<path fill="#EFD358" d="M24,33c-4.963,0-9-4.037-9-9s4.037-9,9-9s9,4.037,9,9S28.963,33,24,33z"/>
<path fill="#43A6DD" d="M24,9c-0.553,0-1-0.447-1-1V2c0-0.553,0.447-1,1-1s1,0.447,1,1v6C25,8.553,24.553,9,24,9z"/>
<path fill="#EA9860" d="M35.314,13.686c-0.256,0-0.512-0.098-0.707-0.293c-0.391-0.391-0.391-1.023,0-1.414l2.121-2.121
	c0.391-0.391,1.023-0.391,1.414,0s0.391,1.023,0,1.414l-2.121,2.121C35.826,13.588,35.57,13.686,35.314,13.686z"/>
<path fill="#EA9860" d="M37.436,38.436c-0.256,0-0.512-0.098-0.707-0.293l-2.121-2.121c-0.391-0.391-0.391-1.023,0-1.414
	s1.023-0.391,1.414,0l2.121,2.121c0.391,0.391,0.391,1.023,0,1.414C37.947,38.338,37.691,38.436,37.436,38.436z"/>
<path fill="#EA9860" d="M10.564,38.436c-0.256,0-0.512-0.098-0.707-0.293c-0.391-0.391-0.391-1.023,0-1.414l2.121-2.121
	c0.391-0.391,1.023-0.391,1.414,0s0.391,1.023,0,1.414l-2.121,2.121C11.076,38.338,10.82,38.436,10.564,38.436z"/>
<path fill="#EA9860" d="M12.686,13.686c-0.256,0-0.512-0.098-0.707-0.293l-2.121-2.121c-0.391-0.391-0.391-1.023,0-1.414
	s1.023-0.391,1.414,0l2.121,2.121c0.391,0.391,0.391,1.023,0,1.414C13.197,13.588,12.941,13.686,12.686,13.686z"/>
<path fill="#43A6DD" d="M46,25h-6c-0.553,0-1-0.447-1-1s0.447-1,1-1h6c0.553,0,1,0.447,1,1S46.553,25,46,25z"/>
<path fill="#43A6DD" d="M24,47c-0.553,0-1-0.447-1-1v-6c0-0.553,0.447-1,1-1s1,0.447,1,1v6C25,46.553,24.553,47,24,47z"/>
<path fill="#43A6DD" d="M8,25H2c-0.553,0-1-0.447-1-1s0.447-1,1-1h6c0.553,0,1,0.447,1,1S8.553,25,8,25z"/>
</g></svg>