<svg xmlns="http://www.w3.org/2000/svg" xmlns:xlink="http://www.w3.org/1999/xlink" x="0px" y="0px" width="48px" height="48px" viewBox="0 0 48 48"><g >
<circle fill="#335262" cx="24" cy="24" r="23"/>
<path fill="#FFFFFF" d="M43,24c0-10.459-8.495-18.969-18.948-18.997c-0.004,0-0.008,0-0.013-0.001C24.026,5.002,24.013,5,24,5
	c-0.013,0-0.025,0.002-0.038,0.002c-0.006,0-0.011,0.001-0.017,0.001C13.494,5.033,5,13.542,5,24c0,10.476,8.523,19,18.999,19
	c0,0,0,0,0,0h0h0h0h0c0,0,0,0,0,0C34.477,43,43,34.476,43,24z M33.77,31.444c0.597-1.995,0.941-4.158,1.02-6.444h6.159
	c-0.206,3.508-1.473,6.729-3.494,9.351C36.339,33.229,35.108,32.246,33.77,31.444z M10.539,34.343
	C8.521,31.723,7.256,28.505,7.051,25h6.159c0.079,2.282,0.422,4.442,1.018,6.434C12.887,32.237,11.656,33.22,10.539,34.343z
	 M10.54,13.656c1.117,1.122,2.348,2.106,3.688,2.908c-0.596,1.993-0.939,4.153-1.018,6.436H7.051
	C7.256,19.494,8.521,16.276,10.54,13.656z M37.455,13.649c2.022,2.622,3.289,5.842,3.494,9.351H34.79
	c-0.079-2.285-0.423-4.448-1.02-6.443C35.108,15.755,36.339,14.772,37.455,13.649z M32.791,23H25v-3.781
	c2.428-0.128,4.788-0.7,6.959-1.702C32.436,19.223,32.719,21.06,32.791,23z M25,17.219V7.701c2.838,1.776,5.001,4.506,6.323,7.896
	C29.356,16.538,27.212,17.088,25,17.219z M23,7.701v9.518c-2.214-0.13-4.358-0.679-6.325-1.618C17.997,12.21,20.161,9.478,23,7.701z
	 M23,19.219V23h-7.791c0.072-1.938,0.355-3.774,0.83-5.478C18.21,18.522,20.571,19.091,23,19.219z M15.209,25H23v3.781
	c-2.43,0.128-4.791,0.697-6.961,1.696C15.563,28.773,15.281,26.938,15.209,25z M23,30.781v9.518
	c-2.839-1.777-5.004-4.51-6.326-7.902C18.641,31.459,20.786,30.911,23,30.781z M25,40.299v-9.518
	c2.212,0.131,4.355,0.682,6.323,1.623C30.001,35.793,27.837,38.523,25,40.299z M25,28.781V25h7.791
	c-0.073,1.94-0.355,3.778-0.832,5.484C29.788,29.481,27.428,28.909,25,28.781z M36.148,12.13c-0.93,0.952-1.955,1.785-3.062,2.486
	c-1.142-2.823-2.824-5.234-4.967-7.091C31.216,8.301,33.982,9.915,36.148,12.13z M19.882,7.525c-2.145,1.858-3.827,4.271-4.97,7.097
	c-1.109-0.701-2.135-1.534-3.065-2.486C14.013,9.918,16.781,8.301,19.882,7.525z M11.846,35.863c0.93-0.952,1.956-1.785,3.065-2.487
	c1.142,2.827,2.826,5.24,4.971,7.098C16.78,39.699,14.012,38.082,11.846,35.863z M28.118,40.475c2.143-1.856,3.825-4.267,4.967-7.09
	c1.107,0.701,2.133,1.534,3.062,2.485C33.982,38.085,31.216,39.699,28.118,40.475z"/>
</g></svg>