<svg xmlns="http://www.w3.org/2000/svg" xmlns:xlink="http://www.w3.org/1999/xlink" x="0px" y="0px" width="48px" height="48px" viewBox="0 0 48 48"><g >
<path fill="#5E5E5E" d="M15,43H6c-2.209,0-4-1.791-4-4V27h19v10C21,40.314,18.314,43,15,43z"/>
<path fill="#5E5E5E" d="M42,43h-9c-3.314,0-6-2.686-6-6V27h19v12C46,41.209,44.209,43,42,43z"/>
<path fill="#808080" d="M10.2,27L4.018,42.455C4.604,42.792,5.275,43,6,43h0.8l6.4-16H10.2z"/>
<polygon fill="#808080" points="9.8,43 11.8,43 18.2,27 16.2,27 "/>
<path fill="#808080" d="M38.2,27h-3l-5.89,14.725c0.729,0.57,1.591,0.978,2.535,1.162L38.2,27z"/>
<polygon fill="#808080" points="34.8,43 36.8,43 43.2,27 41.2,27 "/>
<path fill="#333333" d="M41,4c-0.553,0-1,0.448-1,1s0.447,1,1,1c2.206,0,4,1.794,4,4v16H3V10c0-2.206,1.794-4,4-4
	c0.553,0,1-0.448,1-1S7.553,4,7,4c-3.309,0-6,2.691-6,6v29c0,2.761,2.239,5,5,5h9c3.866,0,7-3.134,7-7v-4c0-1.105,0.895-2,2-2h0
	c1.105,0,2,0.895,2,2v4c0,3.866,3.134,7,7,7h9c2.761,0,5-2.239,5-5V10C47,6.691,44.309,4,41,4z M15,42H6c-1.657,0-3-1.343-3-3V29
	c0-0.552,0.448-1,1-1h15c0.552,0,1,0.448,1,1v8C20,39.761,17.761,42,15,42z M42,42h-9c-2.761,0-5-2.239-5-5v-8c0-0.552,0.448-1,1-1
	h15c0.552,0,1,0.448,1,1v10C45,40.657,43.657,42,42,42z"/>
</g></svg>