<svg xmlns="http://www.w3.org/2000/svg" xmlns:xlink="http://www.w3.org/1999/xlink" x="0px" y="0px" width="48px" height="48px" viewBox="0 0 48 48"><g >
<path fill="#A67C52" d="M31,47H21c-0.552,0-1-0.447-1-1V2c0-0.553,0.448-1,1-1h10c0.552,0,1,0.447,1,1v44C32,46.553,31.552,47,31,47
	z"/>
<rect x="25" y="37" fill="#87613E" width="2" height="10"/>
<path fill="#E6E6E6" d="M44,24H10c-0.292,0-0.569-0.128-0.759-0.35l-6-7c-0.321-0.374-0.321-0.927,0-1.301l6-7
	C9.431,8.128,9.708,8,10,8h34c0.552,0,1,0.447,1,1v14C45,23.553,44.552,24,44,24z"/>
<rect x="20" y="24" fill="#87613E" width="12" height="2"/>
</g></svg>