<svg xmlns="http://www.w3.org/2000/svg" xmlns:xlink="http://www.w3.org/1999/xlink" x="0px" y="0px" width="48px" height="48px" viewBox="0 0 48 48"><g >
<path fill="#9BCED3" d="M24,1C11.317,1,1,11.318,1,24v18c0,0.552,0.447,1,1,1h44c0.553,0,1-0.448,1-1V24C47,11.318,36.683,1,24,1z"/>
<path fill="#57918F" d="M47,34v-2H25v-9h21.975c-0.029-0.675-0.09-1.341-0.177-2H39v-9h4.612c-0.425-0.692-0.888-1.358-1.382-2H25
	V1.025C24.668,1.011,24.335,1,24,1s-0.668,0.011-1,0.025V10H5.77c-0.494,0.642-0.957,1.308-1.382,2H9v9H1.202
	c-0.086,0.659-0.148,1.325-0.177,2H23v9H1v2h8v9h2v-9h26v9h2v-9H47z M11,21v-9h26v9H11z"/>
<path fill="#57918F" d="M31,45H17v-9c0-3.866,3.134-7,7-7h0c3.866,0,7,3.134,7,7V45z"/>
<path fill="#BFDEE0" d="M31,47H17c-1.104,0-2-0.896-2-2v-9c0-4.962,4.037-9,9-9s9,4.038,9,9v9C33,46.104,32.104,47,31,47z M19,43h10
	v-7c0-2.757-2.243-5-5-5s-5,2.243-5,5V43z"/>
</g></svg>