<svg xmlns="http://www.w3.org/2000/svg" xmlns:xlink="http://www.w3.org/1999/xlink" x="0px" y="0px" width="48px" height="48px" viewBox="0 0 48 48"><g >
<path fill="#444444" d="M27,13c-0.552,0-1-0.448-1-1V7H16v5c0,0.552-0.448,1-1,1s-1-0.448-1-1V6c0-0.552,0.448-1,1-1h12
	c0.552,0,1,0.448,1,1v6C28,12.552,27.552,13,27,13z"/>
<path fill="#B3B3B3" d="M42,43H2c-0.552,0-1-0.448-1-1s0.448-1,1-1h39V2c0-0.552,0.448-1,1-1h4c0.552,0,1,0.448,1,1s-0.448,1-1,1h-3
	v39C43,42.552,42.552,43,42,43z"/>
<path fill="#686868" d="M36,37H6c-1.105,0-2-0.895-2-2V13c0-1.105,0.895-2,2-2h30c1.105,0,2,0.895,2,2v22C38,36.105,37.105,37,36,37
	z"/>
<path fill="#444444" d="M7,39c-2.209,0-4,1.791-4,4s1.791,4,4,4s4-1.791,4-4S9.209,39,7,39z"/>
<circle fill="#FFFFFF" cx="7" cy="43" r="2"/>
<path fill="#444444" d="M36,39c-2.209,0-4,1.791-4,4s1.791,4,4,4s4-1.791,4-4S38.209,39,36,39z"/>
<circle fill="#FFFFFF" cx="36" cy="43" r="2"/>
<rect x="4" y="25" fill="#444444" width="34" height="2"/>
<path fill="#EFD358" d="M18,23h6c0.552,0,1,0.448,1,1v4c0,0.552-0.448,1-1,1h-6c-0.552,0-1-0.448-1-1v-4C17,23.448,17.448,23,18,23z
	"/>
</g></svg>