<svg xmlns="http://www.w3.org/2000/svg" xmlns:xlink="http://www.w3.org/1999/xlink" x="0px" y="0px" width="48px" height="48px" viewBox="0 0 48 48"><g >
<path fill="#72C472" d="M45,47H3c-1.105,0-2-0.895-2-2V3c0-1.105,0.895-2,2-2h42c1.105,0,2,0.895,2,2v42C47,46.105,46.105,47,45,47z
	"/>
<path fill="#FFFFFF" d="M31,13v9H17v-9c0-0.552-0.448-1-1-1h-2c-0.552,0-1,0.448-1,1v22c0,0.552,0.448,1,1,1h2c0.552,0,1-0.448,1-1
	v-9h14v9c0,0.552,0.448,1,1,1h2c0.552,0,1-0.448,1-1V13c0-0.552-0.448-1-1-1h-2C31.448,12,31,12.448,31,13z"/>
</g></svg>