<svg xmlns="http://www.w3.org/2000/svg" xmlns:xlink="http://www.w3.org/1999/xlink" x="0px" y="0px" width="48px" height="48px" viewBox="0 0 48 48"><g >
<rect x="10" y="28" fill="#DDBE99" width="28" height="19"/>
<path fill="#EFD358" d="M24,18c-0.552,0-1-0.447-1-1v-7c0-0.553,0.448-1,1-1s1,0.447,1,1v7C25,17.553,24.552,18,24,18z"/>
<path id="butt_color_31_" fill="#335262" d="M11,28c0-7.18,5.82-13,13-13s13,5.82,13,13H11z"/>
<path fill="#EAD8C5" d="M11,47H2c-0.552,0-1-0.448-1-1V18h10V47z"/>
<path fill="#335262" d="M1,18L5.03,1.758C5.141,1.312,5.541,1,6,1s0.859,0.312,0.97,0.758L11,18H1z"/>
<path fill="#EAD8C5" d="M46,47h-9V18h10v28C47,46.552,46.552,47,46,47z"/>
<path fill="#335262" d="M37,18l4.03-16.242C41.141,1.312,41.541,1,42,1s0.859,0.312,0.97,0.758L47,18H37z"/>
<path fill="#C1A07C" d="M29,47H19v-7c0-2.761,2.239-5,5-5h0c2.761,0,5,2.239,5,5V47z"/>
</g></svg>