<svg xmlns="http://www.w3.org/2000/svg" xmlns:xlink="http://www.w3.org/1999/xlink" x="0px" y="0px" width="48px" height="48px" viewBox="0 0 48 48"><g >
<path fill="#87613E" d="M14,30H6v-4c0-0.552-0.448-1-1-1H2c-0.552,0-1,0.448-1,1v19c0,0.552,0.448,1,1,1h12c0.552,0,1-0.448,1-1V31
	C15,30.448,14.552,30,14,30z"/>
<path fill="#87613E" d="M34,30h8v-4c0-0.552,0.448-1,1-1h3c0.552,0,1,0.448,1,1v19c0,0.552-0.448,1-1,1H34c-0.552,0-1-0.448-1-1V31
	C33,30.448,33.448,30,34,30z"/>
<path fill="#444444" d="M28,46c-0.552,0-1-0.447-1-1v-8c0-1.654-1.346-3-3-3s-3,1.346-3,3v8c0,0.553-0.448,1-1,1s-1-0.447-1-1v-8
	c0-2.757,2.243-5,5-5s5,2.243,5,5v8C29,45.553,28.552,46,28,46z"/>
<path fill="#A67C52" d="M37,46H11V13c0-0.552,0.448-1,1-1h24c0.552,0,1,0.448,1,1V46z"/>
<path fill="#87613E" d="M39.87,12.507C39.693,12.193,39.36,12,39,12H9c-0.36,0-0.693,0.193-0.87,0.507
	c-0.178,0.314-0.173,0.699,0.013,1.008L11,18h26l2.857-4.485C40.043,13.206,40.048,12.821,39.87,12.507z"/>
<path fill="#A67C52" d="M39,2h-3c-0.552,0-1,0.447-1,1v3h-4V3c0-0.553-0.448-1-1-1h-3c-0.552,0-1,0.447-1,1v3h-4V3
	c0-0.553-0.448-1-1-1h-3c-0.552,0-1,0.447-1,1v3h-4V3c0-0.553-0.448-1-1-1H9C8.448,2,8,2.447,8,3v10h32V3C40,2.447,39.552,2,39,2z"/>
<path fill="#444444" d="M24,34L24,34c-2.761,0-5,2.239-5,5v7h10v-7C29,36.239,26.761,34,24,34z"/>
</g></svg>