<svg xmlns="http://www.w3.org/2000/svg" xmlns:xlink="http://www.w3.org/1999/xlink" x="0px" y="0px" width="48px" height="48px" viewBox="0 0 48 48"><g >
<path fill="#D8D8D8" d="M31,38V22h8c0.552,0,1-0.448,1-1v-4h5c0.552,0,1-0.448,1-1v-4c0-0.552-0.448-1-1-1H28l0-5.828
	c0-2.089-1.527-3.955-3.607-4.153C22.008,0.791,20,2.661,20,5v6H3c-0.552,0-1,0.448-1,1v4c0,0.552,0.448,1,1,1h5v4
	c0,0.552,0.448,1,1,1h8v16H31z"/>
<polygon fill="#B3B3B3" points="31,26.952 17,33.619 17,38 31,38 "/>
<path fill="#444444" d="M32,37H16c-0.552,0-1,0.448-1,1v8c0,0.552,0.448,1,1,1h16c0.552,0,1-0.448,1-1v-8C33,37.448,32.552,37,32,37
	z"/>
</g></svg>