<?xml version="1.0" encoding="utf-8"?>
<!-- Generator: Adobe Illustrator 19.1.0, SVG Export Plug-In . SVG Version: 6.00 Build 0)  -->
<!DOCTYPE svg PUBLIC "-//W3C//DTD SVG 1.1//EN" "http://www.w3.org/Graphics/SVG/1.1/DTD/svg11.dtd">
<svg version="1.1" id="Layer_1" xmlns="http://www.w3.org/2000/svg" xmlns:xlink="http://www.w3.org/1999/xlink" x="0px" y="0px"
	 width="64px" height="64px" viewBox="0 0 64 64" enable-background="new 0 0 64 64" xml:space="preserve">
<path d="M57,13.7C57,5.7,50.4,1,44,1c-5,0-10.1,2.9-12.1,8c-5.6,0-10.9,1.8-15.2,4.8c-0.1,0-0.1,0.1-0.1,0.1C9.6,18.8,5,26.9,5,36
	c0,7.9,3.5,15.1,8.9,20.1c0.1,0.1,0.1,0.1,0.2,0.2c4.8,4.2,11,6.8,17.8,6.8c14.9,0,27-12.1,27-27c0-5.4-1.6-10.5-4.6-15
	C55.9,18.5,57,15.9,57,13.7z M44,3c5.4,0,11,4,11,10.7c0,4.3-4.8,10.3-8.3,14.1c-0.1,0.1-0.2,0.1-0.2,0.2c0,0,0,0,0,0
	c-1,1.1-1.9,2-2.5,2.6c-2.5-2.4-11-11.2-11-16.9C33,7,38.6,3,44,3z M49.6,34.1c0.1,4.8-4.9,11.2-9,13.3C39.5,48,38,48.5,37,47.7
	c-1.5-1.1-1.5-1.9-1.3-4.2c0.1-2,0.3-4.9-0.6-9.6c-0.5-2.4,1.7-4.5,4.3-5.4c2.1,2.4,3.9,4,4.1,4.2c0.2,0.2,0.4,0.3,0.7,0.3
	s0.5-0.1,0.7-0.3c0.1-0.1,1.3-1.2,2.8-2.8C48.8,31,49.6,32.5,49.6,34.1z M7,36c0-8.2,4-15.5,10.2-20.1c0.1,0.1,0.3,0.2,0.4,0.3
	c1.3,0.9,2.6,1.8,3.4,3.2c0.9,1.5,2.6,6.6,0.8,8.9c-1,1.2-2.8,2.2-4.7,3.1c-2.6,1.3-5,2.4-5,4.7c0,1.8,1.5,3.5,3,5.3
	c0.7,0.8,1.4,1.6,1.9,2.3c2.2,3.2,1.2,6.3,0,8.4c-0.4,0.7-1.2,1.4-2.2,2.1C10,49.6,7,43.1,7,36z M57,36c0,13.8-11.2,25-25,25
	c-5.9,0-11.4-2.1-15.6-5.5c1-0.8,1.8-1.6,2.3-2.4c2.1-3.6,2.1-7.3,0-10.5c-0.6-0.9-1.3-1.7-2-2.5c-1.3-1.4-2.5-2.9-2.5-4
	c0-1,2.1-2,3.9-2.9c2-1,4.1-2,5.4-3.6c2.6-3.3,0.4-9.3-0.7-11.2c-1-1.7-2.4-2.7-3.7-3.7c3.6-2.2,7.8-3.6,12.3-3.7
	c-0.2,0.8-0.3,1.7-0.3,2.7c0,4.2,3.6,9.4,6.9,13.3c-3.4,1.5-5.4,4.4-4.8,7.4c0.8,4.4,0.7,7.1,0.6,9.1c-0.1,2.5-0.2,4.1,2.1,5.9
	c0.6,0.4,1.4,0.8,2.4,0.8c0.9,0,2-0.2,3.3-0.9c4.7-2.4,10.2-9.5,10.1-15.1c0-2.2-1-4.2-2.7-5.7c1.4-1.6,3-3.5,4.4-5.6
	C55.7,26.8,57,31.3,57,36z"/>
<path d="M44,19c2.8,0,5-2.2,5-5s-2.2-5-5-5s-5,2.2-5,5S41.2,19,44,19z M44,11c1.7,0,3,1.3,3,3s-1.3,3-3,3s-3-1.3-3-3S42.3,11,44,11z
	"/>
</svg>
