<?xml version="1.0" encoding="utf-8"?>
<!-- Generator: Adobe Illustrator 19.1.0, SVG Export Plug-In . SVG Version: 6.00 Build 0)  -->
<!DOCTYPE svg PUBLIC "-//W3C//DTD SVG 1.1//EN" "http://www.w3.org/Graphics/SVG/1.1/DTD/svg11.dtd">
<svg version="1.1" id="Layer_1" xmlns="http://www.w3.org/2000/svg" xmlns:xlink="http://www.w3.org/1999/xlink" x="0px" y="0px"
	 width="64px" height="64px" viewBox="0 0 64 64" enable-background="new 0 0 64 64" xml:space="preserve">
<path d="M30,63c16,0,29-13,29-29c0-6.4-2.1-12.2-5.5-17c0.2,0,0.4,0,0.5,0c3.9,0,7-3.1,7-7s-3.1-7-7-7s-7,3.1-7,7c0,0.2,0,0.4,0,0.5
	C42.2,7.1,36.4,5,30,5C14,5,1,18,1,34S14,63,30,63z M49,10c0-2.8,2.2-5,5-5s5,2.2,5,5s-2.2,5-5,5c-1.2,0-2.4-0.5-3.3-1.2
	c-0.2-0.2-0.3-0.3-0.5-0.5C49.5,12.4,49,11.2,49,10z M30,7c7.2,0,13.8,2.9,18.6,7.5c0.3,0.3,0.5,0.6,0.8,0.8
	C54.1,20.2,57,26.8,57,34c0,14.9-12.1,27-27,27S3,48.9,3,34S15.1,7,30,7z"/>
<path d="M18,47c0.1,0,0.2,0,0.3-0.1l18-6c0,0,0,0,0,0c0.1,0,0.3-0.1,0.4-0.2c0,0,0,0,0,0c0.1-0.1,0.2-0.2,0.2-0.4c0,0,0,0,0,0l6-18
	c0.1-0.4,0-0.8-0.2-1c-0.3-0.3-0.7-0.4-1-0.2l-18,6c0,0,0,0,0,0c-0.1,0-0.3,0.1-0.4,0.2c0,0,0,0,0,0c-0.1,0.1-0.2,0.2-0.2,0.4
	c0,0,0,0,0,0l-6,18c-0.1,0.4,0,0.8,0.2,1C17.5,46.9,17.7,47,18,47z M35.6,38.1l-9.7-9.7l14.6-4.9L35.6,38.1z M24.4,29.9l9.7,9.7
	l-14.6,4.9L24.4,29.9z"/>
</svg>
