<?xml version="1.0" encoding="utf-8"?>
<!-- Generator: Adobe Illustrator 19.1.0, SVG Export Plug-In . SVG Version: 6.00 Build 0)  -->
<!DOCTYPE svg PUBLIC "-//W3C//DTD SVG 1.1//EN" "http://www.w3.org/Graphics/SVG/1.1/DTD/svg11.dtd">
<svg version="1.1" id="Layer_1" xmlns="http://www.w3.org/2000/svg" xmlns:xlink="http://www.w3.org/1999/xlink" x="0px" y="0px"
	 width="64px" height="64px" viewBox="0 0 64 64" enable-background="new 0 0 64 64" xml:space="preserve">
<path d="M50.8,45.5C50.7,45.2,50.3,45,50,45h-9c5.6-7.2,12-16.9,12-23.8C53,8.6,42.3,1.1,32,1.1S11,8.6,11,21.2
	c0,6.9,6.4,16.6,12,23.8h-9c-0.3,0-0.7,0.2-0.8,0.5l-10,16c-0.2,0.3-0.2,0.7,0,1S3.6,63,4,63h56c0.4,0,0.7-0.2,0.9-0.5s0.2-0.7,0-1
	L50.8,45.5z M32,3.1c9.3,0,19,6.8,19,18.1c0,6.8-7.1,17-12.8,24.1c0,0-0.1,0.1-0.1,0.1c-2.6,3.3-5,5.9-6.1,7.1
	c-3.6-3.9-19-21.4-19-31.4C13,9.8,22.7,3.1,32,3.1z M5.8,61l8.8-14h10c3.5,4.3,6.4,7.4,6.7,7.7c0.2,0.2,0.5,0.3,0.7,0.3
	s0.5-0.1,0.7-0.3c0.3-0.3,3.2-3.4,6.7-7.7h10l8.8,14H5.8z"/>
<path d="M39,22.1c0-3.9-3.1-7-7-7s-7,3.1-7,7s3.1,7,7,7S39,25.9,39,22.1z M27,22.1c0-2.8,2.2-5,5-5s5,2.2,5,5s-2.2,5-5,5
	S27,24.8,27,22.1z"/>
</svg>
