<?xml version="1.0" encoding="utf-8"?>
<!-- Generator: Adobe Illustrator 19.1.0, SVG Export Plug-In . SVG Version: 6.00 Build 0)  -->
<!DOCTYPE svg PUBLIC "-//W3C//DTD SVG 1.1//EN" "http://www.w3.org/Graphics/SVG/1.1/DTD/svg11.dtd">
<svg version="1.1" id="Layer_1" xmlns="http://www.w3.org/2000/svg" xmlns:xlink="http://www.w3.org/1999/xlink" x="0px" y="0px"
	 width="64px" height="64px" viewBox="0 0 64 64" enable-background="new 0 0 64 64" xml:space="preserve">
<path d="M8,1C7.4,1,7,1.4,7,2v60c0,0.6,0.4,1,1,1s1-0.4,1-1V37h10v9c0,0,0,0,0,0.1c0,0.1,0,0.1,0,0.2c0,0.1,0,0.1,0.1,0.2
	c0,0,0,0,0,0.1c0,0.1,0.1,0.1,0.1,0.1c0,0,0,0,0,0c0.1,0.1,0.2,0.1,0.3,0.2c0,0,0,0,0.1,0c0.1,0,0.2,0.1,0.3,0.1c0,0,0,0,0,0h36
	c0.3,0,0.6-0.2,0.8-0.4c0.2-0.3,0.2-0.6,0.1-0.9L51.1,32l5.8-13.6c0.1-0.3,0.1-0.7-0.1-0.9C56.6,17.2,56.3,17,56,17H37V8
	c0-0.6-0.4-1-1-1H9V2C9,1.4,8.6,1,8,1z M32.5,37L21,44.2V37H32.5z M54.5,19l-5.4,12.6c-0.1,0.3-0.1,0.5,0,0.8L54.5,45h-31l13-8.2
	c0.1,0,0.1-0.1,0.1-0.1c0,0,0,0,0,0c0.1-0.1,0.1-0.2,0.2-0.3c0,0,0,0,0-0.1c0-0.1,0.1-0.2,0.1-0.3V19H54.5z M35,9v26H9V9H35z"/>
</svg>
