<?xml version="1.0" encoding="utf-8"?>
<!-- Generator: Adobe Illustrator 19.1.0, SVG Export Plug-In . SVG Version: 6.00 Build 0)  -->
<!DOCTYPE svg PUBLIC "-//W3C//DTD SVG 1.1//EN" "http://www.w3.org/Graphics/SVG/1.1/DTD/svg11.dtd">
<svg version="1.1" id="Layer_1" xmlns="http://www.w3.org/2000/svg" xmlns:xlink="http://www.w3.org/1999/xlink" x="0px" y="0px"
	 width="64px" height="64px" viewBox="0 0 64 64" enable-background="new 0 0 64 64" xml:space="preserve">
<path d="M61.7,11L47,15.5C46.9,6.4,39.3,1,32,1c-6.6,0-13.3,4.4-14.7,11.8L1.6,19.1C1.2,19.2,1,19.6,1,20v40c0,0.3,0.2,0.6,0.4,0.8
	C1.6,60.9,1.8,61,2,61c0.1,0,0.3,0,0.4-0.1L22,53.1l19.6,7.9c0.1,0,0.2,0.1,0.3,0.1c0,0,0,0,0,0s0,0,0,0c0.1,0,0.2,0,0.3-0.1l0,0
	c0,0,0,0,0,0l20-8c0.4-0.2,0.6-0.5,0.6-0.9V12c0-0.3-0.1-0.6-0.4-0.8C62.3,11,62,11,61.7,11z M32,3c6.4,0,13,4.7,13,12.6
	c0,0.2,0,0.5,0,0.7c-0.1,0.2-0.1,0.4-0.1,0.7C43.7,23.9,34.6,33.8,32,36.6c-2.8-2.9-13-14.1-13-20.9C19,7.7,25.6,3,32,3z M41,58.5
	l-18-7.2V29c3.8,5.2,8,9.4,8.3,9.7c0.2,0.2,0.5,0.3,0.7,0.3s0.5-0.1,0.7-0.3c0.3-0.3,4.5-4.5,8.3-9.7V58.5z M3,20.7l14-5.6
	c0,0.2,0,0.4,0,0.6c0,3.1,1.7,6.8,4,10.4v25.3L3,58.5V20.7z M61,51.3l-18,7.2V26c1.8-2.8,3.3-5.8,3.8-8.4L61,13.3V51.3z"/>
<path d="M32,21c2.8,0,5-2.2,5-5s-2.2-5-5-5s-5,2.2-5,5S29.2,21,32,21z M32,13c1.7,0,3,1.3,3,3s-1.3,3-3,3s-3-1.3-3-3S30.3,13,32,13z
	"/>
</svg>
