<?xml version="1.0" encoding="utf-8"?>
<!-- Generator: Adobe Illustrator 19.1.0, SVG Export Plug-In . SVG Version: 6.00 Build 0)  -->
<!DOCTYPE svg PUBLIC "-//W3C//DTD SVG 1.1//EN" "http://www.w3.org/Graphics/SVG/1.1/DTD/svg11.dtd">
<svg version="1.1" id="Layer_1" xmlns="http://www.w3.org/2000/svg" xmlns:xlink="http://www.w3.org/1999/xlink" x="0px" y="0px"
	 width="64px" height="64px" viewBox="0 0 64 64" enable-background="new 0 0 64 64" xml:space="preserve">
<path d="M63,12c0-5-4-9-9-9c-2.4,0-4.5,0.9-6.1,2.4C43.1,2.5,37.6,1,32,1C14.9,1,1,14.9,1,32s13.9,31,31,31s31-13.9,31-31
	c0-4.7-1-9.1-3-13.3C61.8,17,63,14.7,63,12z M54,5c3.9,0,7,3.1,7,7c0,2.2-1,4.1-2.6,5.4c-0.1,0-0.1,0-0.2,0
	c-0.2,0.1-0.3,0.2-0.4,0.4C56.8,18.6,55.4,19,54,19c-3.9,0-7-3.1-7-7S50.1,5,54,5z M61,32c0,16-13,29-29,29S3,48,3,32S16,3,32,3
	c5.1,0,10.2,1.4,14.6,3.9c-1,1.4-1.6,3.2-1.6,5.1c0,5,4,9,9,9c1.6,0,3.1-0.4,4.3-1.1C60.1,23.7,61,27.8,61,32z"/>
<path d="M36.8,33c1.3-1.3,2.2-3.1,2.2-5v-4c0-3.9-3.1-7-7-7s-7,3.1-7,7v4c0,2,0.8,3.8,2.2,5c-4.6,0.4-8.2,4.3-8.2,9v2
	c0,0.6,0.4,1,1,1h24c0.6,0,1-0.4,1-1v-2C45,37.3,41.4,33.5,36.8,33z M27,28v-4c0-2.8,2.2-5,5-5s5,2.2,5,5v4c0,2.8-2.2,5-5,5
	S27,30.8,27,28z M43,43H21v-1c0-3.9,3.1-7,7-7h8c3.9,0,7,3.1,7,7V43z"/>
</svg>
