<?xml version="1.0" encoding="utf-8"?>
<!-- Generator: Adobe Illustrator 19.1.0, SVG Export Plug-In . SVG Version: 6.00 Build 0)  -->
<!DOCTYPE svg PUBLIC "-//W3C//DTD SVG 1.1//EN" "http://www.w3.org/Graphics/SVG/1.1/DTD/svg11.dtd">
<svg version="1.1" id="Layer_1" xmlns="http://www.w3.org/2000/svg" xmlns:xlink="http://www.w3.org/1999/xlink" x="0px" y="0px"
	 width="64px" height="64px" viewBox="0 0 64 64" enable-background="new 0 0 64 64" xml:space="preserve">
<path d="M28,35.5V60h-8c-0.6,0-1,0.4-1,1s0.4,1,1,1h24c0.6,0,1-0.4,1-1s-0.4-1-1-1h-8V35.5C43.4,33.7,49,27,49,19
	c0-9.4-7.6-17-17-17S15,9.6,15,19C15,27,20.6,33.7,28,35.5z M34,60h-4V35.9c0.7,0.1,1.3,0.1,2,0.1s1.3-0.1,2-0.1V60z M32,4
	c8.3,0,15,6.7,15,15s-6.7,15-15,15s-15-6.7-15-15S23.7,4,32,4z"/>
</svg>
