<?xml version="1.0" encoding="utf-8"?>
<!-- Generator: Adobe Illustrator 19.1.0, SVG Export Plug-In . SVG Version: 6.00 Build 0)  -->
<!DOCTYPE svg PUBLIC "-//W3C//DTD SVG 1.1//EN" "http://www.w3.org/Graphics/SVG/1.1/DTD/svg11.dtd">
<svg version="1.1" id="Layer_1" xmlns="http://www.w3.org/2000/svg" xmlns:xlink="http://www.w3.org/1999/xlink" x="0px" y="0px"
	 width="64px" height="64px" viewBox="0 0 64 64" enable-background="new 0 0 64 64" xml:space="preserve">
<path d="M52,3H12c-0.6,0-1,0.4-1,1v56c0,0.4,0.2,0.7,0.5,0.9c0.3,0.2,0.7,0.2,1,0L32,49.2l19.5,11.7C51.6,61,51.8,61,52,61
	c0.2,0,0.3,0,0.5-0.1c0.3-0.2,0.5-0.5,0.5-0.9V4C53,3.4,52.6,3,52,3z M51,58.2L32.5,47.1C32.4,47,32.2,47,32,47s-0.4,0-0.5,0.1
	L13,58.2V5h38V58.2z"/>
<path d="M24,27h16c0.6,0,1-0.4,1-1s-0.4-1-1-1H24c-0.6,0-1,0.4-1,1S23.4,27,24,27z"/>
</svg>
