<?xml version="1.0" encoding="utf-8"?>
<!-- Generator: Adobe Illustrator 19.1.0, SVG Export Plug-In . SVG Version: 6.00 Build 0)  -->
<!DOCTYPE svg PUBLIC "-//W3C//DTD SVG 1.1//EN" "http://www.w3.org/Graphics/SVG/1.1/DTD/svg11.dtd">
<svg version="1.1" id="Layer_1" xmlns="http://www.w3.org/2000/svg" xmlns:xlink="http://www.w3.org/1999/xlink" x="0px" y="0px"
	 width="64px" height="64px" viewBox="0 0 64 64" enable-background="new 0 0 64 64" xml:space="preserve">
<path d="M50.8,45.5C50.7,45.2,50.3,45,50,45H33V30.9c7.8-0.5,14-7,14-14.9c0-8.3-6.7-15-15-15S17,7.7,17,16c0,7.9,6.2,14.4,14,14.9
	V45H14c-0.3,0-0.7,0.2-0.8,0.5l-10,16c-0.2,0.3-0.2,0.7,0,1S3.6,63,4,63h56c0.4,0,0.7-0.2,0.9-0.5s0.2-0.7,0-1L50.8,45.5z M19,16
	c0-7.2,5.8-13,13-13s13,5.8,13,13s-5.8,13-13,13S19,23.2,19,16z M5.8,61l8.8-14H31v6c0,0.6,0.4,1,1,1s1-0.4,1-1v-6h16.4l8.8,14H5.8z
	"/>
</svg>
