<?xml version="1.0" encoding="utf-8"?>
<!-- Generator: Adobe Illustrator 19.1.0, SVG Export Plug-In . SVG Version: 6.00 Build 0)  -->
<!DOCTYPE svg PUBLIC "-//W3C//DTD SVG 1.1//EN" "http://www.w3.org/Graphics/SVG/1.1/DTD/svg11.dtd">
<svg version="1.1" id="Layer_1" xmlns="http://www.w3.org/2000/svg" xmlns:xlink="http://www.w3.org/1999/xlink" x="0px" y="0px"
	 width="64px" height="64px" viewBox="0 0 64 64" enable-background="new 0 0 64 64" xml:space="preserve">
<path d="M47,1H32c-0.6,0-1,0.4-1,1s0.4,1,1,1h15c7.7,0,14,6.3,14,14s-6.3,14-14,14h-0.1c-0.5-7.8-7-14-14.9-14s-14.4,6.2-14.9,14H17
	C8.2,31,1,38.2,1,47s7.2,16,16,16h15c0.6,0,1-0.4,1-1s-0.4-1-1-1H17C9.3,61,3,54.7,3,47s6.3-14,14-14h0.1c0.5,7.8,7,14,14.9,14
	s14.4-6.2,14.9-14H47c8.8,0,16-7.2,16-16S55.8,1,47,1z M32,45c-7.2,0-13-5.8-13-13c0,0,0,0,0,0s0,0,0,0c0-7.2,5.8-13,13-13
	s13,5.8,13,13c0,0,0,0,0,0s0,0,0,0C45,39.2,39.2,45,32,45z"/>
<path d="M24,1c-0.6,0-1,0.4-1,1s0.4,1,1,1h2c0.6,0,1-0.4,1-1s-0.4-1-1-1H24z"/>
<path d="M40,61h-2c-0.6,0-1,0.4-1,1s0.4,1,1,1h2c0.6,0,1-0.4,1-1S40.6,61,40,61z"/>
<path d="M32,23c-0.6,0-1,0.4-1,1v8c0,0.6,0.4,1,1,1s1-0.4,1-1v-8C33,23.4,32.6,23,32,23z"/>
<path d="M32,37c-0.6,0-1,0.4-1,1v2c0,0.6,0.4,1,1,1s1-0.4,1-1v-2C33,37.4,32.6,37,32,37z"/>
</svg>
