<?xml version="1.0" encoding="utf-8"?>
<!-- Generator: Adobe Illustrator 19.1.0, SVG Export Plug-In . SVG Version: 6.00 Build 0)  -->
<!DOCTYPE svg PUBLIC "-//W3C//DTD SVG 1.1//EN" "http://www.w3.org/Graphics/SVG/1.1/DTD/svg11.dtd">
<svg version="1.1" id="Layer_1" xmlns="http://www.w3.org/2000/svg" xmlns:xlink="http://www.w3.org/1999/xlink" x="0px" y="0px"
	 width="64px" height="64px" viewBox="0 0 64 64" enable-background="new 0 0 64 64" xml:space="preserve">
<path d="M42,1c-5.4,0-9.9,3.9-10.8,9c-5.4,0.2-10.4,1.9-14.5,4.8c-0.1,0-0.1,0.1-0.1,0.1C9.6,19.8,5,27.9,5,37
	c0,7.9,3.5,15.1,8.9,20.1c0.1,0.1,0.1,0.1,0.2,0.2c4.8,4.2,11,6.8,17.8,6.8c14.9,0,27-12.1,27-27c0-7.2-2.8-13.9-7.8-19
	c1.1-1.7,1.8-3.8,1.8-6C53,5.9,48.1,1,42,1z M42,3c5,0,9,4,9,9c0,2-0.7,3.8-1.8,5.3c0,0-0.1,0-0.1,0.1c-0.1,0.1-0.2,0.2-0.2,0.3
	c-1.7,2-4.1,3.2-6.9,3.2c-5,0-9-4-9-9S37,3,42,3z M7,37c0-8.2,4-15.5,10.2-20.1c0.1,0.1,0.3,0.2,0.4,0.3c1.3,0.9,2.6,1.8,3.4,3.2
	c0.9,1.5,2.6,6.6,0.8,8.9c-1,1.2-2.8,2.2-4.7,3.1c-2.6,1.3-5,2.4-5,4.7c0,1.8,1.5,3.5,3,5.3c0.7,0.8,1.4,1.6,1.9,2.3
	c2.2,3.2,1.2,6.3,0,8.4c-0.4,0.7-1.2,1.4-2.2,2.1C10,50.6,7,44.1,7,37z M57,37c0,13.8-11.2,25-25,25c-5.9,0-11.4-2.1-15.6-5.5
	c1-0.8,1.8-1.6,2.3-2.4c2.1-3.6,2.1-7.3,0-10.5c-0.6-0.9-1.3-1.7-2-2.5c-1.3-1.4-2.5-2.9-2.5-4c0-1,2.1-2,3.9-2.9c2-1,4.1-2,5.4-3.6
	c2.6-3.3,0.4-9.3-0.7-11.2c-1-1.7-2.4-2.7-3.7-3.7c3.5-2.2,7.7-3.5,12.1-3.7c0,5.7,4.4,10.4,10,10.9v4c-0.2,0-0.5,0-0.7,0
	c-3.1,0-6.2,1.4-7.9,3.5c-1.2,1.5-1.7,3.1-1.4,4.8c0.8,4.4,0.7,7.1,0.6,9.1c-0.1,2.5-0.2,4.1,2.1,5.9c0.6,0.4,1.4,0.8,2.4,0.8
	c0.9,0,2-0.2,3.3-0.9c4.7-2.4,10.2-9.5,10.1-15.1c0-3.6-2.8-6.7-6.6-7.7v-4.3c2.7-0.2,5.2-1.5,6.9-3.4C54.5,24.3,57,30.4,57,37z
	 M42,35c0.6,0,1-0.4,1-1v-4.6c2.6,0.9,4.5,3.1,4.6,5.7c0.1,4.8-4.9,11.2-9,13.3c-1.1,0.6-2.6,1.1-3.6,0.3c-1.5-1.1-1.5-1.9-1.3-4.2
	c0.1-2,0.3-4.9-0.6-9.6c-0.3-1.4,0.4-2.5,0.9-3.2c1.4-1.7,3.9-2.7,6.4-2.7c0.2,0,0.5,0,0.7,0V34C41,34.6,41.4,35,42,35z"/>
</svg>
