<?xml version="1.0" encoding="utf-8"?>
<!-- Generator: Adobe Illustrator 19.1.0, SVG Export Plug-In . SVG Version: 6.00 Build 0)  -->
<!DOCTYPE svg PUBLIC "-//W3C//DTD SVG 1.1//EN" "http://www.w3.org/Graphics/SVG/1.1/DTD/svg11.dtd">
<svg version="1.1" id="Layer_1" xmlns="http://www.w3.org/2000/svg" xmlns:xlink="http://www.w3.org/1999/xlink" x="0px" y="0px"
	 width="64px" height="64px" viewBox="0 0 64 64" enable-background="new 0 0 64 64" xml:space="preserve">
<path d="M62.6,11.2c-0.3-0.2-0.6-0.2-0.9-0.1l-9.4,3.7C50,6.9,42.7,1,34,1c-8.1,0-15,5.1-17.7,12.2L1.6,19.1C1.2,19.2,1,19.6,1,20
	v40c0,0.3,0.2,0.6,0.4,0.8C1.6,60.9,1.8,61,2,61c0.1,0,0.3,0,0.4-0.1L22,53.1l19.6,7.9c0.1,0,0.2,0.1,0.3,0.1c0,0,0,0,0,0s0,0,0,0
	c0.1,0,0.2,0,0.3-0.1l0,0c0,0,0,0,0,0l20-8c0.4-0.2,0.6-0.5,0.6-0.9V12C63,11.7,62.8,11.4,62.6,11.2z M34,3c8,0,14.8,5.6,16.5,13.1
	c0,0.2,0,0.3,0.1,0.5c0,0.1,0.1,0.1,0.1,0.1c0.2,1.1,0.3,2.2,0.3,3.3c0,9.4-7.6,17-17,17s-17-7.6-17-17S24.6,3,34,3z M41,58.5
	l-18-7.2V35.5c3.1,2.2,6.9,3.5,11,3.5c2.5,0,4.8-0.5,7-1.4V58.5z M3,20.7l12.5-5C15.2,17.1,15,18.5,15,20c0,5.5,2.4,10.5,6.1,13.9
	c-0.1,0.1-0.1,0.3-0.1,0.5v16.9L3,58.5V20.7z M61,51.3l-18,7.2V36.7c5.9-3.2,10-9.5,10-16.7c0-1.1-0.1-2.2-0.3-3.2l8.3-3.3V51.3z"/>
<path d="M28,27c0.2,0,0.3,0,0.4-0.1l8-4c0.2-0.1,0.4-0.3,0.4-0.4l4-8c0.2-0.4,0.1-0.9-0.2-1.2c-0.3-0.3-0.8-0.4-1.2-0.2l-8,4
	c-0.2,0.1-0.4,0.3-0.4,0.4l-4,8c-0.2,0.4-0.1,0.9,0.2,1.2C27.5,26.9,27.7,27,28,27z M32.7,18.7l5-2.5l-2.5,5l-5,2.5L32.7,18.7z"/>
</svg>
