<?xml version="1.0" encoding="utf-8"?>
<!-- Generator: Adobe Illustrator 19.1.0, SVG Export Plug-In . SVG Version: 6.00 Build 0)  -->
<!DOCTYPE svg PUBLIC "-//W3C//DTD SVG 1.1//EN" "http://www.w3.org/Graphics/SVG/1.1/DTD/svg11.dtd">
<svg version="1.1" id="Layer_1" xmlns="http://www.w3.org/2000/svg" xmlns:xlink="http://www.w3.org/1999/xlink" x="0px" y="0px"
	 width="64px" height="64px" viewBox="0 0 64 64" enable-background="new 0 0 64 64" xml:space="preserve">
<path d="M32,61c0.3,0,0.5-0.1,0.7-0.3C33.6,59.8,55,38,55,24.1C55,9.6,43.3,1,32,1S9,9.6,9,24.1C9,38,30.4,59.8,31.3,60.7
	C31.5,60.9,31.7,61,32,61z M32,3c10.3,0,21,7.9,21,21.1c0,11.7-17.3,30.5-21,34.5c-3.7-3.9-21-22.7-21-34.5C11,10.9,21.7,3,32,3z"/>
<path d="M39,24c0-3.9-3.1-7-7-7s-7,3.1-7,7s3.1,7,7,7S39,27.9,39,24z M27,24c0-2.8,2.2-5,5-5s5,2.2,5,5s-2.2,5-5,5S27,26.8,27,24z"
	/>
</svg>
