<?xml version="1.0" encoding="utf-8"?>
<!-- Generator: Adobe Illustrator 19.1.0, SVG Export Plug-In . SVG Version: 6.00 Build 0)  -->
<!DOCTYPE svg PUBLIC "-//W3C//DTD SVG 1.1//EN" "http://www.w3.org/Graphics/SVG/1.1/DTD/svg11.dtd">
<svg version="1.1" id="Layer_1" xmlns="http://www.w3.org/2000/svg" xmlns:xlink="http://www.w3.org/1999/xlink" x="0px" y="0px"
	 width="64px" height="64px" viewBox="0 0 64 64" enable-background="new 0 0 64 64" xml:space="preserve">
<path d="M61.7,5L42,10.9L22.4,3.1C22.2,3,21.9,3,21.7,3l-20,6C1.3,9.2,1,9.6,1,10v48c0,0.3,0.1,0.6,0.4,0.8C1.7,59,2,59,2.3,59
	L22,53.1l19.7,7.9c0.1,0,0.2,0.1,0.4,0.1c0.1,0,0.2,0,0.3,0l20-6c0.4-0.1,0.7-0.5,0.7-1V6c0-0.3-0.1-0.6-0.4-0.8C62.3,5,62,5,61.7,5
	z M61,53.3l-19,5.7l-19.7-7.9C22.3,51,22.1,51,22,51c-0.1,0-0.2,0-0.3,0L3,56.7V10.7l19-5.7l19.7,7.9c0.2,0.1,0.4,0.1,0.7,0L61,7.3
	V53.3z"/>
<path d="M41.3,27.3c-0.4,0.4-0.4,1,0,1.4l3.3,3.3l-3.3,3.3c-0.4,0.4-0.4,1,0,1.4c0.2,0.2,0.5,0.3,0.7,0.3s0.5-0.1,0.7-0.3l3.3-3.3
	l3.3,3.3c0.2,0.2,0.5,0.3,0.7,0.3s0.5-0.1,0.7-0.3c0.4-0.4,0.4-1,0-1.4L47.4,32l3.3-3.3c0.4-0.4,0.4-1,0-1.4s-1-0.4-1.4,0L46,30.6
	l-3.3-3.3C42.3,26.9,41.7,26.9,41.3,27.3z"/>
<path d="M24,31h-2c-0.6,0-1,0.4-1,1s0.4,1,1,1h2c0.6,0,1-0.4,1-1S24.6,31,24,31z"/>
<path d="M14,31h-2c-0.6,0-1,0.4-1,1s0.4,1,1,1h2c0.6,0,1-0.4,1-1S14.6,31,14,31z"/>
<path d="M34,31h-2c-0.6,0-1,0.4-1,1s0.4,1,1,1h2c0.6,0,1-0.4,1-1S34.6,31,34,31z"/>
</svg>
