<?xml version="1.0" encoding="utf-8"?>
<!-- Generator: Adobe Illustrator 19.1.0, SVG Export Plug-In . SVG Version: 6.00 Build 0)  -->
<!DOCTYPE svg PUBLIC "-//W3C//DTD SVG 1.1//EN" "http://www.w3.org/Graphics/SVG/1.1/DTD/svg11.dtd">
<svg version="1.1" id="Layer_1" xmlns="http://www.w3.org/2000/svg" xmlns:xlink="http://www.w3.org/1999/xlink" x="0px" y="0px"
	 width="64px" height="64px" viewBox="0 0 64 64" enable-background="new 0 0 64 64" xml:space="preserve">
<path d="M32,62c12.1,0,25-3.2,25-9c0-5.7-12.2-8.8-24-9V31.9c7.8-0.5,14-7,14-14.9c0-8.3-6.7-15-15-15S17,8.7,17,17
	c0,7.9,6.2,14.4,14,14.9V44c-11.8,0.2-24,3.3-24,9C7,58.8,19.9,62,32,62z M19,17c0-7.2,5.8-13,13-13s13,5.8,13,13s-5.8,13-13,13
	S19,24.2,19,17z M31,46v5c0,0.6,0.4,1,1,1s1-0.4,1-1v-5c13,0.2,22,3.8,22,7c0,3.3-9.4,7-23,7S9,56.3,9,53C9,49.8,18,46.2,31,46z"/>
</svg>
