<?xml version="1.0" encoding="utf-8"?>
<!-- Generator: Adobe Illustrator 19.1.0, SVG Export Plug-In . SVG Version: 6.00 Build 0)  -->
<!DOCTYPE svg PUBLIC "-//W3C//DTD SVG 1.1//EN" "http://www.w3.org/Graphics/SVG/1.1/DTD/svg11.dtd">
<svg version="1.1" id="Layer_1" xmlns="http://www.w3.org/2000/svg" xmlns:xlink="http://www.w3.org/1999/xlink" x="0px" y="0px"
	 width="64px" height="64px" viewBox="0 0 64 64" enable-background="new 0 0 64 64" xml:space="preserve">
<path d="M62.4,11.1l-16-8c0,0,0,0,0,0c0,0,0,0-0.1,0C46.2,3,46.1,3,46,3c0,0,0,0,0,0c0,0,0,0,0,0c-0.1,0-0.2,0-0.3,0.1
	c0,0,0,0-0.1,0c0,0,0,0-0.1,0L32,10.8L18.5,3.1c0,0,0,0-0.1,0c0,0,0,0-0.1,0C18.2,3,18.1,3,18,3c0,0,0,0,0,0c0,0,0,0,0,0
	c-0.1,0-0.2,0-0.3,0.1c0,0,0,0-0.1,0c0,0,0,0,0,0l-16,8C1.2,11.3,1,11.6,1,12v48c0,0.3,0.2,0.7,0.5,0.9c0.3,0.2,0.7,0.2,1,0L18,53.1
	l13.5,7.7c0,0,0,0,0.1,0c0,0,0.1,0,0.1,0c0.2,0.1,0.5,0.1,0.7,0c0,0,0.1,0,0.1,0c0,0,0,0,0.1,0L46,53.1l15.5,7.8
	C61.7,61,61.8,61,62,61c0.2,0,0.4-0.1,0.5-0.1c0.3-0.2,0.5-0.5,0.5-0.9V12C63,11.6,62.8,11.3,62.4,11.1z M19,5.7l12,6.9v45.7
	l-12-6.9V5.7z M33,12.6l12-6.9v45.7l-12,6.9V12.6z M3,12.6l14-7v45.8l-14,7V12.6z M61,58.4l-14-7V5.6l14,7V58.4z"/>
</svg>
