<?xml version="1.0" encoding="utf-8"?>
<!-- Generator: Adobe Illustrator 19.1.0, SVG Export Plug-In . SVG Version: 6.00 Build 0)  -->
<!DOCTYPE svg PUBLIC "-//W3C//DTD SVG 1.1//EN" "http://www.w3.org/Graphics/SVG/1.1/DTD/svg11.dtd">
<svg version="1.1" id="Layer_1" xmlns="http://www.w3.org/2000/svg" xmlns:xlink="http://www.w3.org/1999/xlink" x="0px" y="0px"
	 width="64px" height="64px" viewBox="0 0 64 64" enable-background="new 0 0 64 64" xml:space="preserve">
<path d="M32,63c12.1,0,25-3.2,25-9c0-4.8-8.5-7.5-16.5-8.5C46.2,38.3,53,28.2,53,21.1C53,8.5,42.3,1,32,1S11,8.5,11,21.1
	c0,7.1,6.8,17.2,12.5,24.4C15.5,46.5,7,49.2,7,54C7,59.8,19.9,63,32,63z M32,3c9.3,0,19,6.8,19,18.1c0,6.9-7.3,17.3-13,24.4
	c-0.2,0.1-0.4,0.3-0.4,0.5c-2.4,3-4.5,5.3-5.6,6.5c-3.6-3.9-19-21.4-19-31.4C13,9.8,22.7,3,32,3z M25,47.4c3.3,4.1,6,6.9,6.3,7.3
	c0.2,0.2,0.5,0.3,0.7,0.3s0.5-0.1,0.7-0.3c0.3-0.3,3-3.2,6.3-7.3c10.4,1.1,16,4.2,16,6.6c0,3.3-9.4,7-23,7S9,57.3,9,54
	C9,51.6,14.6,48.4,25,47.4z"/>
<path d="M39,22c0-3.9-3.1-7-7-7s-7,3.1-7,7s3.1,7,7,7S39,25.9,39,22z M27,22c0-2.8,2.2-5,5-5s5,2.2,5,5s-2.2,5-5,5S27,24.8,27,22z"
	/>
</svg>
