<?xml version="1.0" encoding="utf-8"?>
<!-- Generator: Adobe Illustrator 19.1.0, SVG Export Plug-In . SVG Version: 6.00 Build 0)  -->
<!DOCTYPE svg PUBLIC "-//W3C//DTD SVG 1.1//EN" "http://www.w3.org/Graphics/SVG/1.1/DTD/svg11.dtd">
<svg version="1.1" id="Layer_1" xmlns="http://www.w3.org/2000/svg" xmlns:xlink="http://www.w3.org/1999/xlink" x="0px" y="0px"
	 width="64px" height="64px" viewBox="0 0 64 64" enable-background="new 0 0 64 64" xml:space="preserve">
<path d="M62.6,11.2C62.3,11,62,11,61.7,11l-16.9,5.1c0.1-0.7,0.2-1.4,0.2-2.1c0-7.2-5.8-13-13-13c-6.5,0-11.9,4.8-12.8,11.1l-17.5,7
	C1.2,19.2,1,19.6,1,20v40c0,0.3,0.2,0.6,0.4,0.8C1.6,60.9,1.8,61,2,61c0.1,0,0.3,0,0.4-0.1L22,53.1l19.6,7.9c0.1,0,0.2,0.1,0.3,0.1
	c0,0,0,0,0,0s0,0,0,0c0.1,0,0.2,0,0.3-0.1l0,0c0,0,0,0,0,0l20-8c0.4-0.2,0.6-0.5,0.6-0.9V12C63,11.7,62.9,11.4,62.6,11.2z M23,23.4
	c2.1,2,4.9,3.4,8,3.6V36c0,0.6,0.4,1,1,1s1-0.4,1-1v-9.1c3.1-0.2,5.9-1.6,8-3.6v35.2l-18-7.2V23.4z M32,3c6.1,0,11,4.9,11,11
	c0,1.1-0.2,2.1-0.4,3c-0.1,0.2-0.2,0.3-0.2,0.5C40.9,21.9,36.8,25,32,25c-6.1,0-11-4.9-11-11S25.9,3,32,3z M3,20.7l16-6.4
	c0.1,2.4,0.8,4.7,2,6.6v30.4L3,58.5V20.7z M61,51.3l-18,7.2V20.9c0.5-0.8,0.9-1.6,1.2-2.5l16.8-5V51.3z"/>
</svg>
