<?xml version="1.0" encoding="utf-8"?>
<!-- Generator: Adobe Illustrator 19.1.0, SVG Export Plug-In . SVG Version: 6.00 Build 0)  -->
<!DOCTYPE svg PUBLIC "-//W3C//DTD SVG 1.1//EN" "http://www.w3.org/Graphics/SVG/1.1/DTD/svg11.dtd">
<svg version="1.1" id="Layer_1" xmlns="http://www.w3.org/2000/svg" xmlns:xlink="http://www.w3.org/1999/xlink" x="0px" y="0px"
	 width="64px" height="64px" viewBox="0 0 64 64" enable-background="new 0 0 64 64" xml:space="preserve">
<path d="M11,62V2c0-0.6-0.4-1-1-1S9,1.4,9,2v60c0,0.6,0.4,1,1,1S11,62.6,11,62z"/>
<path d="M54.9,5.5C54.7,5.2,54.4,5,54,5H18c-0.6,0-1,0.4-1,1v28c0,0.6,0.4,1,1,1h36c0.4,0,0.7-0.2,0.9-0.5c0.2-0.3,0.2-0.7,0-1
	L47.2,20l7.7-13.5C55,6.2,55,5.8,54.9,5.5z M45.1,19.5c-0.2,0.3-0.2,0.7,0,1L52.3,33H19V7h33.3L45.1,19.5z"/>
</svg>
