<?xml version="1.0" encoding="utf-8"?>
<!-- Generator: Adobe Illustrator 19.1.0, SVG Export Plug-In . SVG Version: 6.00 Build 0)  -->
<!DOCTYPE svg PUBLIC "-//W3C//DTD SVG 1.1//EN" "http://www.w3.org/Graphics/SVG/1.1/DTD/svg11.dtd">
<svg version="1.1" id="Layer_1" xmlns="http://www.w3.org/2000/svg" xmlns:xlink="http://www.w3.org/1999/xlink" x="0px" y="0px"
	 width="24px" height="24px" viewBox="0 0 24 24" enable-background="new 0 0 24 24" xml:space="preserve">
<path data-color="color-2" fill="#444444" d="M19,9c0.02148-0.19971,0-0.29443,0-0.5C19,5.46729,16.53223,3,13.5,3
	c-1.65723,0-3.19922,0.74072-4.23926,2.00977C6.91309,4.83643,5,6.7085,5,9H19z"/>
<path fill="#444444" d="M20.97656,11.7832C20.87402,11.32568,20.46875,11,20,11H4c-0.46875,0-0.87402,0.32568-0.97656,0.7832l-2,9
	c-0.06543,0.2959,0.00684,0.60596,0.19629,0.84229C1.41016,21.8623,1.69629,22,2,22h20c0.30371,0,0.58984-0.1377,0.78027-0.37451
	c0.18945-0.23633,0.26172-0.54639,0.19629-0.84229L20.97656,11.7832z"/>
</svg>
