<?xml version="1.0" encoding="utf-8"?>
<!-- Generator: Adobe Illustrator 19.2.1, SVG Export Plug-In . SVG Version: 6.00 Build 0)  -->
<!DOCTYPE svg PUBLIC "-//W3C//DTD SVG 1.1//EN" "http://www.w3.org/Graphics/SVG/1.1/DTD/svg11.dtd">
<svg version="1.1" id="Layer_1" xmlns="http://www.w3.org/2000/svg" xmlns:xlink="http://www.w3.org/1999/xlink" x="0px" y="0px"
	 width="16px" height="16px" viewBox="0 0 16 16" enable-background="new 0 0 16 16" xml:space="preserve">
<path d="M5.707,7.293c-0.391-0.391-1.023-0.391-1.414,0s-0.391,1.023,0,1.414l2,2C6.488,10.902,6.744,11,7,11
	s0.512-0.098,0.707-0.293l7-7c0.391-0.391,0.391-1.023,0-1.414s-1.023-0.391-1.414,0L7,8.586L5.707,7.293z"/>
<path d="M7,16c3.859,0,7-3.14,7-7c0-0.552-0.447-1-1-1s-1,0.448-1,1c0,2.757-2.243,5-5,5s-5-2.243-5-5s2.243-5,5-5
	c0.57,0,1.13,0.095,1.662,0.283c0.517,0.182,1.092-0.09,1.275-0.611S9.848,2.58,9.326,2.396C8.58,2.133,7.797,2,7,2
	C3.141,2,0,5.14,0,9S3.141,16,7,16z"/>
</svg>
