<?xml version="1.0" encoding="utf-8"?>
<!-- Generator: Adobe Illustrator 19.2.1, SVG Export Plug-In . SVG Version: 6.00 Build 0)  -->
<!DOCTYPE svg PUBLIC "-//W3C//DTD SVG 1.1//EN" "http://www.w3.org/Graphics/SVG/1.1/DTD/svg11.dtd">
<svg version="1.1" id="Layer_1" xmlns="http://www.w3.org/2000/svg" xmlns:xlink="http://www.w3.org/1999/xlink" x="0px" y="0px"
	 width="16px" height="16px" viewBox="0 0 16 16" enable-background="new 0 0 16 16" xml:space="preserve">
<path d="M8,3C4.686,3,2,5.686,2,9c0,1.296,0.415,2.492,1.113,3.473l-1.82,1.82c-0.391,0.391-0.391,1.023,0,1.414
	C1.488,15.902,1.744,16,2,16s0.512-0.098,0.707-0.293l1.82-1.82C5.508,14.585,6.704,15,8,15s2.492-0.415,3.473-1.113l1.82,1.82
	C13.488,15.902,13.744,16,14,16s0.512-0.098,0.707-0.293c0.391-0.391,0.391-1.023,0-1.414l-1.82-1.82C13.585,11.492,14,10.296,14,9
	C14,5.686,11.314,3,8,3z M11,10H7V6h2v2h2V10z"/>
<path d="M11.5,0c-1.081,0-2.064,0.392-2.837,1.034c3.212,0.266,5.886,2.434,6.897,5.374C15.835,5.826,16,5.184,16,4.5
	C16,2.019,13.981,0,11.5,0z"/>
<path d="M0.44,6.407c1.011-2.94,3.685-5.108,6.897-5.374C6.564,0.392,5.581,0,4.5,0C2.019,0,0,2.019,0,4.5
	C0,5.184,0.165,5.826,0.44,6.407z"/>
</svg>
