<?xml version="1.0" encoding="utf-8"?>
<!-- Generator: Adobe Illustrator 19.2.1, SVG Export Plug-In . SVG Version: 6.00 Build 0)  -->
<!DOCTYPE svg PUBLIC "-//W3C//DTD SVG 1.1//EN" "http://www.w3.org/Graphics/SVG/1.1/DTD/svg11.dtd">
<svg version="1.1" id="Layer_1" xmlns="http://www.w3.org/2000/svg" xmlns:xlink="http://www.w3.org/1999/xlink" x="0px" y="0px"
	 width="16px" height="16px" viewBox="0 0 16 16" enable-background="new 0 0 16 16" xml:space="preserve">
<polygon fill="#222221" points="1,9 6,13 6,10 11,10 11,8 6,8 6,5 "/>
<path fill="#222221" d="M2,16h12c0.553,0,1-0.448,1-1V3c0-0.552-0.447-1-1-1h-2V0h-2v2H6V0H4v2H2C1.447,2,1,2.448,1,3v2h2V4h10v10H3
	v-1H1v2C1,15.552,1.447,16,2,16z"/>
</svg>
