<?xml version="1.0" encoding="utf-8"?>
<!-- Generator: Adobe Illustrator 19.2.1, SVG Export Plug-In . SVG Version: 6.00 Build 0)  -->
<!DOCTYPE svg PUBLIC "-//W3C//DTD SVG 1.1//EN" "http://www.w3.org/Graphics/SVG/1.1/DTD/svg11.dtd">
<svg version="1.1" id="Layer_1" xmlns="http://www.w3.org/2000/svg" xmlns:xlink="http://www.w3.org/1999/xlink" x="0px" y="0px"
	 width="16px" height="16px" viewBox="0 0 16 16" enable-background="new 0 0 16 16" xml:space="preserve">
<path d="M14.422,7.793C13.563,7.142,13,6.665,13,6V5c0-2.757-2.243-5-5-5S3,2.243,3,5v1c0,0.665-0.563,1.142-1.422,1.793
	C0.838,8.354,0,8.989,0,10c0,2.783,6.123,3,8,3s8-0.217,8-3C16,8.989,15.162,8.354,14.422,7.793z"/>
<path d="M10.859,13.86C9.846,13.966,8.85,14,8,14s-1.846-0.034-2.859-0.14C5.513,15.094,6.647,16,8,16S10.487,15.094,10.859,13.86z"
	/>
</svg>
