<?xml version="1.0" encoding="utf-8"?>
<!-- Generator: Adobe Illustrator 19.2.1, SVG Export Plug-In . SVG Version: 6.00 Build 0)  -->
<!DOCTYPE svg PUBLIC "-//W3C//DTD SVG 1.1//EN" "http://www.w3.org/Graphics/SVG/1.1/DTD/svg11.dtd">
<svg version="1.1" id="Layer_1" xmlns="http://www.w3.org/2000/svg" xmlns:xlink="http://www.w3.org/1999/xlink" x="0px" y="0px"
	 width="16px" height="16px" viewBox="0 0 16 16" enable-background="new 0 0 16 16" xml:space="preserve">
<path d="M8,0C3.582,0,0,3.582,0,8s3.582,8,8,8s8-3.582,8-8S12.418,0,8,0z M4,9H2V7h2V9z M9,14H7v-2h2V14z M8,10
	c-1.105,0-2-0.895-2-2c0-0.407,0.123-0.784,0.332-1.1L4.658,3.553l1.789-0.895l1.677,3.354C9.17,6.078,10,6.938,10,8
	C10,9.105,9.105,10,8,10z M14,9h-2V7h2V9z"/>
</svg>
