<?xml version="1.0" encoding="utf-8"?>
<!-- Generator: Adobe Illustrator 19.2.1, SVG Export Plug-In . SVG Version: 6.00 Build 0)  -->
<!DOCTYPE svg PUBLIC "-//W3C//DTD SVG 1.1//EN" "http://www.w3.org/Graphics/SVG/1.1/DTD/svg11.dtd">
<svg version="1.1" id="Layer_1" xmlns="http://www.w3.org/2000/svg" xmlns:xlink="http://www.w3.org/1999/xlink" x="0px" y="0px"
	 width="16px" height="16px" viewBox="0 0 16 16" enable-background="new 0 0 16 16" xml:space="preserve">
<path d="M13.208,5.208l-2.417-2.417l2.443-2.443C12.701,0.125,12.115,0,11.5,0C9.015,0,7,2.015,7,4.5
	c0,0.475,0.094,0.923,0.23,1.352l-6.554,4.902c-0.762,0.57-0.85,1.68-0.186,2.363l2.34,2.406c0.68,0.699,1.824,0.62,2.401-0.165
	l4.859-6.605C10.535,8.9,11.004,9,11.5,9C13.985,9,16,6.985,16,4.5c0-0.615-0.125-1.201-0.348-1.735L13.208,5.208z"/>
</svg>
