<?xml version="1.0" encoding="utf-8"?>
<!-- Generator: Adobe Illustrator 19.2.1, SVG Export Plug-In . SVG Version: 6.00 Build 0)  -->
<!DOCTYPE svg PUBLIC "-//W3C//DTD SVG 1.1//EN" "http://www.w3.org/Graphics/SVG/1.1/DTD/svg11.dtd">
<svg version="1.1" id="Layer_1" xmlns="http://www.w3.org/2000/svg" xmlns:xlink="http://www.w3.org/1999/xlink" x="0px" y="0px"
	 width="16px" height="16px" viewBox="0 0 16 16" enable-background="new 0 0 16 16" xml:space="preserve">
<path d="M4,5C2.346,5,1,6.346,1,8s1.346,3,3,3c0.704,0,1.344-0.254,1.856-0.661l3.219,2.012C9.029,12.56,9,12.776,9,13
	c0,1.654,1.346,3,3,3s3-1.346,3-3s-1.346-3-3-3c-0.704,0-1.343,0.254-1.856,0.661L6.925,8.649C6.971,8.44,7,8.223,7,8
	c0-0.224-0.029-0.44-0.075-0.649l3.22-2.012C10.657,5.746,11.296,6,12,6c1.654,0,3-1.346,3-3s-1.346-3-3-3S9,1.346,9,3
	c0,0.224,0.029,0.44,0.075,0.65L5.856,5.661C5.344,5.254,4.704,5,4,5z M4,9C3.449,9,3,8.552,3,8s0.449-1,1-1s1,0.448,1,1
	S4.551,9,4,9z M12,12c0.551,0,1,0.448,1,1s-0.449,1-1,1s-1-0.448-1-1S11.449,12,12,12z M12,2c0.551,0,1,0.448,1,1s-0.449,1-1,1
	s-1-0.448-1-1S11.449,2,12,2z"/>
</svg>
