<?xml version="1.0" encoding="utf-8"?>
<!-- Generator: Adobe Illustrator 19.2.1, SVG Export Plug-In . SVG Version: 6.00 Build 0)  -->
<!DOCTYPE svg PUBLIC "-//W3C//DTD SVG 1.1//EN" "http://www.w3.org/Graphics/SVG/1.1/DTD/svg11.dtd">
<svg version="1.1" id="Layer_1" xmlns="http://www.w3.org/2000/svg" xmlns:xlink="http://www.w3.org/1999/xlink" x="0px" y="0px"
	 width="16px" height="16px" viewBox="0 0 16 16" enable-background="new 0 0 16 16" xml:space="preserve">
<path d="M1,7h5c0.553,0,1-0.448,1-1V1c0-0.552-0.447-1-1-1H1C0.447,0,0,0.448,0,1v5C0,6.552,0.447,7,1,7z M2,2h3v3H2V2z"/>
<path d="M15,0h-5C9.447,0,9,0.448,9,1v5c0,0.552,0.447,1,1,1h5c0.553,0,1-0.448,1-1V1C16,0.448,15.553,0,15,0z M14,5h-3V2h3V5z"/>
<path d="M1,16h5c0.553,0,1-0.448,1-1v-5c0-0.552-0.447-1-1-1H1c-0.553,0-1,0.448-1,1v5C0,15.552,0.447,16,1,16z M2,11h3v3H2V11z"/>
<path d="M15,9h-5c-0.553,0-1,0.448-1,1v5c0,0.552,0.447,1,1,1h5c0.553,0,1-0.448,1-1v-5C16,9.448,15.553,9,15,9z M14,14h-3v-3h3V14z
	"/>
</svg>
