<?xml version="1.0" encoding="utf-8"?>
<!-- Generator: Adobe Illustrator 19.2.1, SVG Export Plug-In . SVG Version: 6.00 Build 0)  -->
<!DOCTYPE svg PUBLIC "-//W3C//DTD SVG 1.1//EN" "http://www.w3.org/Graphics/SVG/1.1/DTD/svg11.dtd">
<svg version="1.1" id="Layer_1" xmlns="http://www.w3.org/2000/svg" xmlns:xlink="http://www.w3.org/1999/xlink" x="0px" y="0px"
	 width="16px" height="16px" viewBox="0 0 16 16" enable-background="new 0 0 16 16" xml:space="preserve">
<path d="M14.121,0.293c-0.391-0.391-1.024-0.391-1.414,0L6,7v3h3l6.707-6.707c0.391-0.391,0.391-1.024,0-1.414L14.121,0.293z"/>
<path d="M15,9c-0.552,0-1,0.447-1,1v4H2V2h4c0.552,0,1-0.447,1-1S6.552,0,6,0H1C0.448,0,0,0.447,0,1v14c0,0.553,0.448,1,1,1h14
	c0.552,0,1-0.447,1-1v-5C16,9.447,15.552,9,15,9z"/>
</svg>
