<?xml version="1.0" encoding="utf-8"?>
<!-- Generator: Adobe Illustrator 19.2.1, SVG Export Plug-In . SVG Version: 6.00 Build 0)  -->
<!DOCTYPE svg PUBLIC "-//W3C//DTD SVG 1.1//EN" "http://www.w3.org/Graphics/SVG/1.1/DTD/svg11.dtd">
<svg version="1.1" id="Layer_1" xmlns="http://www.w3.org/2000/svg" xmlns:xlink="http://www.w3.org/1999/xlink" x="0px" y="0px"
	 width="16px" height="16px" viewBox="0 0 16 16" enable-background="new 0 0 16 16" xml:space="preserve">
<path d="M12.707,0.293c-0.391-0.391-1.023-0.391-1.414,0s-0.391,1.023,0,1.414L12.086,2.5l-0.902,0.902C10.015,2.526,8.57,2,7,2
	C3.14,2,0,5.14,0,9s3.14,7,7,7s7-3.14,7-7c0-1.57-0.526-3.015-1.402-4.184L13.5,3.914l0.793,0.793C14.488,4.902,14.744,5,15,5
	s0.512-0.098,0.707-0.293c0.391-0.391,0.391-1.023,0-1.414L12.707,0.293z M7,14c-2.757,0-5-2.243-5-5s2.243-5,5-5s5,2.243,5,5
	S9.757,14,7,14z"/>
<polygon points="8,6 6,6 6,10 10,10 10,8 8,8 "/>
</svg>
