<?xml version="1.0" encoding="utf-8"?>
<!-- Generator: Adobe Illustrator 19.2.1, SVG Export Plug-In . SVG Version: 6.00 Build 0)  -->
<!DOCTYPE svg PUBLIC "-//W3C//DTD SVG 1.1//EN" "http://www.w3.org/Graphics/SVG/1.1/DTD/svg11.dtd">
<svg version="1.1" id="Layer_1" xmlns="http://www.w3.org/2000/svg" xmlns:xlink="http://www.w3.org/1999/xlink" x="0px" y="0px"
	 width="16px" height="16px" viewBox="0 0 16 16" enable-background="new 0 0 16 16" xml:space="preserve">
<path d="M8,0C3.582,0,0,3.134,0,7c0,3.866,3.582,7,8,7c0.201,0,0.399-0.014,0.596-0.026L14,16v-4.381c1.241-1.233,2-2.847,2-4.619
	C16,3.134,12.418,0,8,0z M12,10.787v2.327l-3.134-1.162C8.866,11.952,8.147,12,8,12c-3.308,0-6-2.243-6-5s2.692-5,6-5s6,2.243,6,5
	C14,9.167,12,10.787,12,10.787z"/>
</svg>
