<?xml version="1.0" encoding="utf-8"?>
<!-- Generator: Adobe Illustrator 19.2.1, SVG Export Plug-In . SVG Version: 6.00 Build 0)  -->
<!DOCTYPE svg PUBLIC "-//W3C//DTD SVG 1.1//EN" "http://www.w3.org/Graphics/SVG/1.1/DTD/svg11.dtd">
<svg version="1.1" id="Layer_1" xmlns="http://www.w3.org/2000/svg" xmlns:xlink="http://www.w3.org/1999/xlink" x="0px" y="0px"
	 width="16px" height="16px" viewBox="0 0 16 16" enable-background="new 0 0 16 16" xml:space="preserve">
<path d="M13,7.4V5c0-2.757-2.243-5-5-5S3,2.243,3,5v2.4C1.381,8.312,0,9.562,0,12c0,2.168,3.664,4,8,4s8-1.832,8-4
	C16,9.554,14.496,8.246,13,7.4z M8,14c-3.673,0-6-1.417-6-1.992c0-0.458,1.231-1.298,3.295-1.731C5.775,11.292,6.802,12,8,12
	c1.195,0,2.219-0.704,2.701-1.716c2.06,0.443,3.298,1.294,3.298,1.716C13.999,12.604,11.655,14,8,14z"/>
</svg>
