<?xml version="1.0" encoding="utf-8"?>
<!-- Generator: Adobe Illustrator 19.2.1, SVG Export Plug-In . SVG Version: 6.00 Build 0)  -->
<!DOCTYPE svg PUBLIC "-//W3C//DTD SVG 1.1//EN" "http://www.w3.org/Graphics/SVG/1.1/DTD/svg11.dtd">
<svg version="1.1" id="Layer_1" xmlns="http://www.w3.org/2000/svg" xmlns:xlink="http://www.w3.org/1999/xlink" x="0px" y="0px"
	 width="16px" height="16px" viewBox="0 0 16 16" enable-background="new 0 0 16 16" xml:space="preserve">
<path d="M1,15c0,0.552,0.448,1,1,1h12c0.552,0,1-0.448,1-1V6c0-0.552-0.448-1-1-1h-2H6V4c0-1.103,0.897-2,2-2
	c0.568,0,1.111,0.243,1.491,0.667l0.667,0.745l1.49-1.334l-0.667-0.745C10.222,0.486,9.136,0,8,0C5.794,0,4,1.794,4,4v1H2
	C1.448,5,1,5.448,1,6V15z M8,8c1.105,0,2,0.895,2,2c0,0.738-0.405,1.376-1,1.723V13H7v-1.277C6.405,11.376,6,10.738,6,10
	C6,8.895,6.895,8,8,8z"/>
</svg>
