<?xml version="1.0" encoding="utf-8"?>
<!-- Generator: Adobe Illustrator 19.2.1, SVG Export Plug-In . SVG Version: 6.00 Build 0)  -->
<!DOCTYPE svg PUBLIC "-//W3C//DTD SVG 1.1//EN" "http://www.w3.org/Graphics/SVG/1.1/DTD/svg11.dtd">
<svg version="1.1" id="Layer_1" xmlns="http://www.w3.org/2000/svg" xmlns:xlink="http://www.w3.org/1999/xlink" x="0px" y="0px"
	 width="16px" height="16px" viewBox="0 0 16 16" enable-background="new 0 0 16 16" xml:space="preserve">
<path d="M15,2h-2V1c0-0.553-0.447-1-1-1h-1c-0.553,0-1,0.447-1,1v1H6V1c0-0.553-0.447-1-1-1H4C3.447,0,3,0.447,3,1v1H1
	C0.447,2,0,2.447,0,3v12c0,0.553,0.447,1,1,1h14c0.553,0,1-0.447,1-1V3C16,2.447,15.553,2,15,2z M14,14H2V7h12V14z"/>
</svg>
