<?xml version="1.0" encoding="utf-8"?>
<!-- Generator: Adobe Illustrator 19.2.1, SVG Export Plug-In . SVG Version: 6.00 Build 0)  -->
<!DOCTYPE svg PUBLIC "-//W3C//DTD SVG 1.1//EN" "http://www.w3.org/Graphics/SVG/1.1/DTD/svg11.dtd">
<svg version="1.1" id="Layer_1" xmlns="http://www.w3.org/2000/svg" xmlns:xlink="http://www.w3.org/1999/xlink" x="0px" y="0px"
	 width="16px" height="16px" viewBox="0 0 16 16" enable-background="new 0 0 16 16" xml:space="preserve">
<path d="M14.909,0.004c-0.342,0.031-8.427,0.8-11.616,3.989c-2.828,2.828-2.156,6.452-1.186,8.486l-1.814,1.814
	c-0.391,0.391-0.391,1.023,0,1.414C0.488,15.902,0.744,16,1,16s0.512-0.098,0.707-0.293l1.817-1.817
	c0.948,0.447,2.235,0.832,3.63,0.832c1.606,0,3.348-0.509,4.853-2.015c3.421-3.42,3.969-11.309,3.991-11.643
	c0.019-0.291-0.091-0.577-0.3-0.78C15.488,0.079,15.199-0.023,14.909,0.004z M10.593,11.293c-1.889,1.889-4.169,1.536-5.532,1.06
	l4.346-4.346c0.391-0.391,0.391-1.023,0-1.414s-1.023-0.391-1.414,0l-4.351,4.351c-0.48-1.358-0.838-3.634,1.065-5.536
	c1.885-1.885,6.509-2.887,9.171-3.266C13.6,4.373,12.771,9.115,10.593,11.293z"/>
</svg>
