<?xml version="1.0" encoding="utf-8"?>
<!-- Generator: Adobe Illustrator 19.2.1, SVG Export Plug-In . SVG Version: 6.00 Build 0)  -->
<!DOCTYPE svg PUBLIC "-//W3C//DTD SVG 1.1//EN" "http://www.w3.org/Graphics/SVG/1.1/DTD/svg11.dtd">
<svg version="1.1" id="Layer_1" xmlns="http://www.w3.org/2000/svg" xmlns:xlink="http://www.w3.org/1999/xlink" x="0px" y="0px"
	 width="16px" height="16px" viewBox="0 0 16 16" enable-background="new 0 0 16 16" xml:space="preserve">
<circle cx="8" cy="13.5" r="1.5"/>
<path d="M6.113,3.333C6.396,2.536,7.154,2,8,2c1.103,0,2,0.897,2,2c0,0.632-0.245,0.839-0.952,1.347C8.184,5.967,7,6.817,7,9v1h2V9
	c0-1.157,0.482-1.503,1.214-2.028C10.968,6.431,12,5.69,12,4c0-2.206-1.794-4-4-4C6.309,0,4.792,1.072,4.229,2.667L3.895,3.609
	L5.78,4.276L6.113,3.333z"/>
</svg>
