<?xml version="1.0" encoding="utf-8"?>
<!-- Generator: Adobe Illustrator 19.2.1, SVG Export Plug-In . SVG Version: 6.00 Build 0)  -->
<!DOCTYPE svg PUBLIC "-//W3C//DTD SVG 1.1//EN" "http://www.w3.org/Graphics/SVG/1.1/DTD/svg11.dtd">
<svg version="1.1" id="Layer_1" xmlns="http://www.w3.org/2000/svg" xmlns:xlink="http://www.w3.org/1999/xlink" x="0px" y="0px"
	 width="16px" height="16px" viewBox="0 0 16 16" enable-background="new 0 0 16 16" xml:space="preserve">
<path d="M8,0C5.794,0,4,1.794,4,4v1.54C2.776,6.64,2,8.229,2,10c0,3.309,2.691,6,6,6s6-2.691,6-6c0-1.771-0.776-3.36-2-4.46V4
	C12,1.794,10.206,0,8,0z M9,10.723V13H7v-2.277C6.405,10.376,6,9.738,6,9c0-1.105,0.895-2,2-2s2,0.895,2,2
	C10,9.738,9.595,10.376,9,10.723z M10,4.35C9.373,4.128,8.702,4,8,4S6.627,4.128,6,4.35V4c0-1.103,0.897-2,2-2s2,0.897,2,2V4.35z"/>
</svg>
