<?xml version="1.0" encoding="utf-8"?>
<!-- Generator: Adobe Illustrator 19.2.1, SVG Export Plug-In . SVG Version: 6.00 Build 0)  -->
<!DOCTYPE svg PUBLIC "-//W3C//DTD SVG 1.1//EN" "http://www.w3.org/Graphics/SVG/1.1/DTD/svg11.dtd">
<svg version="1.1" id="Layer_1" xmlns="http://www.w3.org/2000/svg" xmlns:xlink="http://www.w3.org/1999/xlink" x="0px" y="0px"
	 width="16px" height="16px" viewBox="0 0 16 16" enable-background="new 0 0 16 16" xml:space="preserve">
<path d="M15,11c-0.552,0-1,0.447-1,1v2H2V2h2c0.552,0,1-0.447,1-1S4.552,0,4,0H1C0.448,0,0,0.447,0,1v14c0,0.553,0.448,1,1,1h14
	c0.552,0,1-0.447,1-1v-3C16,11.447,15.552,11,15,11z"/>
<path d="M15.897,0.103l-0.776-0.095c-0.202-0.028-4.972-0.572-7.829,2.285C5.767,3.819,5.474,5.607,5.556,7.008L9.96,4.626L3.586,11
	L5,12.414l2.261-2.261c0.513,0.156,1.271,0.327,2.155,0.327c1.319,0,2.9-0.383,4.291-1.773c2.857-2.856,2.31-7.627,2.286-7.828
	L15.897,0.103z"/>
</svg>
