<?xml version="1.0" encoding="utf-8"?>
<!-- Generator: Adobe Illustrator 19.2.1, SVG Export Plug-In . SVG Version: 6.00 Build 0)  -->
<!DOCTYPE svg PUBLIC "-//W3C//DTD SVG 1.1//EN" "http://www.w3.org/Graphics/SVG/1.1/DTD/svg11.dtd">
<svg version="1.1" id="Layer_1" xmlns="http://www.w3.org/2000/svg" xmlns:xlink="http://www.w3.org/1999/xlink" x="0px" y="0px"
	 width="16px" height="16px" viewBox="0 0 16 16" enable-background="new 0 0 16 16" xml:space="preserve">
<polygon points="14,5 12,5 12,7 10,7 10,9 12,9 12,11 14,11 14,9 16,9 16,7 14,7 "/>
<path d="M12,16v-3.101C9.718,12.436,8,10.419,8,8s1.718-4.436,4-4.899V2c0-1.105-0.895-2-2-2H2C0.895,0,0,0.895,0,2v14l6-3L12,16z"
	/>
</svg>
