<?xml version="1.0" encoding="utf-8"?>
<!-- Generator: Adobe Illustrator 19.2.1, SVG Export Plug-In . SVG Version: 6.00 Build 0)  -->
<!DOCTYPE svg PUBLIC "-//W3C//DTD SVG 1.1//EN" "http://www.w3.org/Graphics/SVG/1.1/DTD/svg11.dtd">
<svg version="1.1" id="Layer_1" xmlns="http://www.w3.org/2000/svg" xmlns:xlink="http://www.w3.org/1999/xlink" x="0px" y="0px"
	 width="16px" height="16px" viewBox="0 0 16 16" enable-background="new 0 0 16 16" xml:space="preserve">
<path d="M15,0H1C0.448,0,0,0.447,0,1v2c0,0.297,0.132,0.578,0.36,0.769L6,8.469V15c0,0.404,0.244,0.77,0.617,0.924
	C6.741,15.976,6.871,16,7,16c0.26,0,0.516-0.102,0.707-0.293l2-2C9.895,13.52,10,13.266,10,13V8.469l5.64-4.7
	C15.868,3.578,16,3.297,16,3V1C16,0.447,15.552,0,15,0z"/>
</svg>
