<?xml version="1.0" encoding="utf-8"?>
<!-- Generator: Adobe Illustrator 19.2.1, SVG Export Plug-In . SVG Version: 6.00 Build 0)  -->
<!DOCTYPE svg PUBLIC "-//W3C//DTD SVG 1.1//EN" "http://www.w3.org/Graphics/SVG/1.1/DTD/svg11.dtd">
<svg version="1.1" id="Layer_1" xmlns="http://www.w3.org/2000/svg" xmlns:xlink="http://www.w3.org/1999/xlink" x="0px" y="0px"
	 width="16px" height="16px" viewBox="0 0 16 16" enable-background="new 0 0 16 16" xml:space="preserve">
<path d="M3,15v-2c0-0.553-0.448-1-1-1s-1,0.447-1,1v2c0,0.553,0.448,1,1,1S3,15.553,3,15z"/>
<path d="M7,15V9c0-0.553-0.448-1-1-1S5,8.447,5,9v6c0,0.553,0.448,1,1,1S7,15.553,7,15z"/>
<path d="M11,15V5c0-0.553-0.448-1-1-1S9,4.447,9,5v10c0,0.553,0.448,1,1,1S11,15.553,11,15z"/>
<path d="M15,15V1c0-0.553-0.448-1-1-1s-1,0.447-1,1v14c0,0.553,0.448,1,1,1S15,15.553,15,15z"/>
</svg>
