<?xml version="1.0" encoding="utf-8"?>
<!-- Generator: Adobe Illustrator 19.2.1, SVG Export Plug-In . SVG Version: 6.00 Build 0)  -->
<!DOCTYPE svg PUBLIC "-//W3C//DTD SVG 1.1//EN" "http://www.w3.org/Graphics/SVG/1.1/DTD/svg11.dtd">
<svg version="1.1" id="Layer_1" xmlns="http://www.w3.org/2000/svg" xmlns:xlink="http://www.w3.org/1999/xlink" x="0px" y="0px"
	 width="16px" height="16px" viewBox="0 0 16 16" enable-background="new 0 0 16 16" xml:space="preserve">
<polygon fill="#222221" points="7,4 7,11 4,11 8,16 12,11 9,11 9,4 "/>
<path fill="#222221" d="M15,0H1C0.448,0,0,0.448,0,1c0,0.552,0.448,1,1,1h14c0.552,0,1-0.448,1-1C16,0.448,15.552,0,15,0z"/>
<path fill="#222221" d="M0,7c0,0.552,0.448,1,1,1h4V6H1C0.448,6,0,6.448,0,7z"/>
<path fill="#222221" d="M15,6h-4v2h4c0.552,0,1-0.448,1-1C16,6.448,15.552,6,15,6z"/>
</svg>
