<?xml version="1.0" encoding="utf-8"?>
<!-- Generator: Adobe Illustrator 19.2.1, SVG Export Plug-In . SVG Version: 6.00 Build 0)  -->
<!DOCTYPE svg PUBLIC "-//W3C//DTD SVG 1.1//EN" "http://www.w3.org/Graphics/SVG/1.1/DTD/svg11.dtd">
<svg version="1.1" id="Layer_1" xmlns="http://www.w3.org/2000/svg" xmlns:xlink="http://www.w3.org/1999/xlink" x="0px" y="0px"
	 width="16px" height="16px" viewBox="0 0 16 16" enable-background="new 0 0 16 16" xml:space="preserve">
<path d="M14.293,0.293l-8,8c-0.391,0.391-0.391,1.023,0,1.414C6.488,9.902,6.744,10,7,10s0.512-0.098,0.707-0.293l8-8
	c0.391-0.391,0.391-1.023,0-1.414S14.684-0.098,14.293,0.293z"/>
<path d="M15,7c-0.553,0-1,0.447-1,1c0,3.309-2.691,6-6,6s-6-2.691-6-6s2.691-6,6-6c0.553,0,1-0.447,1-1S8.553,0,8,0
	C3.589,0,0,3.589,0,8s3.589,8,8,8s8-3.589,8-8C16,7.447,15.553,7,15,7z"/>
</svg>
