<?xml version="1.0" encoding="utf-8"?>
<!-- Generator: Adobe Illustrator 19.2.1, SVG Export Plug-In . SVG Version: 6.00 Build 0)  -->
<!DOCTYPE svg PUBLIC "-//W3C//DTD SVG 1.1//EN" "http://www.w3.org/Graphics/SVG/1.1/DTD/svg11.dtd">
<svg version="1.1" id="Layer_1" xmlns="http://www.w3.org/2000/svg" xmlns:xlink="http://www.w3.org/1999/xlink" x="0px" y="0px"
	 width="16px" height="16px" viewBox="0 0 16 16" enable-background="new 0 0 16 16" xml:space="preserve">
<path d="M8,0C3.589,0,0,3.589,0,8s3.589,8,8,8s8-3.589,8-8S12.411,0,8,0z M8,13c-0.552,0-1-0.448-1-1c0-0.552,0.448-1,1-1
	s1,0.448,1,1C9,12.552,8.552,13,8,13z M9.549,8.372C9.044,8.722,9,8.793,9,9v1H7V9c0-1.292,0.847-1.881,1.407-2.271
	C8.928,6.367,9,6.279,9,6c0-0.551-0.448-1-1-1C7.645,5,7.312,5.192,7.133,5.501L6.63,6.366L4.9,5.362l0.502-0.865
	C5.938,3.574,6.934,3,8,3c1.654,0,3,1.346,3,3C11,7.363,10.092,7.994,9.549,8.372z"/>
</svg>
