<?xml version="1.0" encoding="utf-8"?>
<!-- Generator: Adobe Illustrator 19.2.1, SVG Export Plug-In . SVG Version: 6.00 Build 0)  -->
<!DOCTYPE svg PUBLIC "-//W3C//DTD SVG 1.1//EN" "http://www.w3.org/Graphics/SVG/1.1/DTD/svg11.dtd">
<svg version="1.1" id="Layer_1" xmlns="http://www.w3.org/2000/svg" xmlns:xlink="http://www.w3.org/1999/xlink" x="0px" y="0px"
	 width="16px" height="16px" viewBox="0 0 16 16" enable-background="new 0 0 16 16" xml:space="preserve">
<path fill="#222221" d="M13,5.5C13,2.462,10.09,0,6.5,0S0,2.462,0,5.5c0,1.075,0.37,2.074,1,2.922V12l2.699-1.542
	C4.548,10.802,5.496,11,6.5,11C10.09,11,13,8.538,13,5.5z"/>
<path fill="#222221" d="M14.853,6.861C14.124,10.348,10.66,13,6.5,13c-0.103,0-0.202-0.018-0.305-0.021C7.231,13.617,8.556,14,10,14
	c0.449,0,0.886-0.04,1.307-0.11L15,16v-4h-0.012C15.627,11.285,16,10.425,16,9.5C16,8.513,15.571,7.603,14.853,6.861z"/>
</svg>
