<?xml version="1.0" encoding="utf-8"?>
<!-- Generator: Adobe Illustrator 19.2.1, SVG Export Plug-In . SVG Version: 6.00 Build 0)  -->
<!DOCTYPE svg PUBLIC "-//W3C//DTD SVG 1.1//EN" "http://www.w3.org/Graphics/SVG/1.1/DTD/svg11.dtd">
<svg version="1.1" id="Layer_1" xmlns="http://www.w3.org/2000/svg" xmlns:xlink="http://www.w3.org/1999/xlink" x="0px" y="0px"
	 width="16px" height="16px" viewBox="0 0 16 16" enable-background="new 0 0 16 16" xml:space="preserve">
<path d="M1,9h7c0.552,0,1-0.448,1-1S8.552,7,8,7H1C0.448,7,0,7.448,0,8S0.448,9,1,9z"/>
<path d="M15,1H1C0.448,1,0,1.448,0,2s0.448,1,1,1h14c0.552,0,1-0.448,1-1S15.552,1,15,1z"/>
<path d="M15,13H1c-0.552,0-1,0.448-1,1s0.448,1,1,1h14c0.552,0,1-0.448,1-1S15.552,13,15,13z"/>
</svg>
