<?xml version="1.0" encoding="utf-8"?>
<!-- Generator: Adobe Illustrator 19.2.1, SVG Export Plug-In . SVG Version: 6.00 Build 0)  -->
<!DOCTYPE svg PUBLIC "-//W3C//DTD SVG 1.1//EN" "http://www.w3.org/Graphics/SVG/1.1/DTD/svg11.dtd">
<svg version="1.1" id="Layer_1" xmlns="http://www.w3.org/2000/svg" xmlns:xlink="http://www.w3.org/1999/xlink" x="0px" y="0px"
	 width="16px" height="16px" viewBox="0 0 16 16" enable-background="new 0 0 16 16" xml:space="preserve">
<path d="M11.5,1C10.056,1,8.812,1.409,8,2.071C7.188,1.409,5.944,1,4.5,1C1.935,1,0,2.29,0,4v10c0,0.553,0.447,1,1,1s1-0.447,1-1
	c0-0.29,0.876-1,2.5-1S7,13.71,7,14c0,0.553,0.447,1,1,1s1-0.447,1-1c0-0.29,0.876-1,2.5-1s2.5,0.71,2.5,1c0,0.553,0.447,1,1,1
	s1-0.447,1-1V4C16,2.29,14.065,1,11.5,1z M7,11.497C6.291,11.189,5.446,11,4.5,11c-0.939,0-1.794,0.173-2.5,0.476V4
	c0-0.29,0.876-1,2.5-1S7,3.71,7,4V11.497z M14,11.476C13.294,11.173,12.439,11,11.5,11c-0.946,0-1.791,0.189-2.5,0.497V4
	c0-0.29,0.876-1,2.5-1S14,3.71,14,4V11.476z"/>
</svg>
