<?xml version="1.0" encoding="utf-8"?>
<!-- Generator: Adobe Illustrator 19.2.1, SVG Export Plug-In . SVG Version: 6.00 Build 0)  -->
<!DOCTYPE svg PUBLIC "-//W3C//DTD SVG 1.1//EN" "http://www.w3.org/Graphics/SVG/1.1/DTD/svg11.dtd">
<svg version="1.1" id="Layer_1" xmlns="http://www.w3.org/2000/svg" xmlns:xlink="http://www.w3.org/1999/xlink" x="0px" y="0px"
	 width="16px" height="16px" viewBox="0 0 16 16" enable-background="new 0 0 16 16" xml:space="preserve">
<path d="M0.293,15.707C0.488,15.902,0.744,16,1,16s0.512-0.098,0.707-0.293l1.817-1.817c0.948,0.447,2.236,0.831,3.63,0.831
	c1.605,0,3.347-0.509,4.853-2.015c3.422-3.42,3.97-11.309,3.991-11.643c0.019-0.291-0.091-0.577-0.3-0.78
	c-0.209-0.205-0.503-0.31-0.789-0.28c-0.343,0.031-8.427,0.8-11.616,3.989c-2.019,2.018-2.251,4.44-1.867,6.402l6.024-3.259
	l-7.156,7.156C-0.098,14.684-0.098,15.316,0.293,15.707z"/>
</svg>
