<?xml version="1.0" encoding="utf-8"?>
<!-- Generator: Adobe Illustrator 19.2.1, SVG Export Plug-In . SVG Version: 6.00 Build 0)  -->
<!DOCTYPE svg PUBLIC "-//W3C//DTD SVG 1.1//EN" "http://www.w3.org/Graphics/SVG/1.1/DTD/svg11.dtd">
<svg version="1.1" id="Layer_1" xmlns="http://www.w3.org/2000/svg" xmlns:xlink="http://www.w3.org/1999/xlink" x="0px" y="0px"
	 width="16px" height="16px" viewBox="0 0 16 16" enable-background="new 0 0 16 16" xml:space="preserve">
<path d="M14.707,1.293c-0.391-0.391-1.023-0.391-1.414,0L8,6.586L2.707,1.293c-0.391-0.391-1.023-0.391-1.414,0
	s-0.391,1.023,0,1.414L6.586,8l-5.293,5.293c-0.391,0.391-0.391,1.023,0,1.414C1.488,14.902,1.744,15,2,15s0.512-0.098,0.707-0.293
	L8,9.414l5.293,5.293C13.488,14.902,13.744,15,14,15s0.512-0.098,0.707-0.293c0.391-0.391,0.391-1.023,0-1.414L9.414,8l5.293-5.293
	C15.098,2.316,15.098,1.684,14.707,1.293z"/>
</svg>
