<?xml version="1.0" encoding="utf-8"?>
<!-- Generator: Adobe Illustrator 19.2.1, SVG Export Plug-In . SVG Version: 6.00 Build 0)  -->
<!DOCTYPE svg PUBLIC "-//W3C//DTD SVG 1.1//EN" "http://www.w3.org/Graphics/SVG/1.1/DTD/svg11.dtd">
<svg version="1.1" id="Layer_1" xmlns="http://www.w3.org/2000/svg" xmlns:xlink="http://www.w3.org/1999/xlink" x="0px" y="0px"
	 width="16px" height="16px" viewBox="0 0 16 16" enable-background="new 0 0 16 16" xml:space="preserve">
<path fill="#222221" d="M12.5,5C10.693,5,9.26,6.049,8,7.155C6.74,6.049,5.307,5,3.5,5C1.57,5,0,6.57,0,8.5S1.57,12,3.5,12
	c1.807,0,3.24-1.049,4.5-2.155C9.26,10.951,10.693,12,12.5,12c1.93,0,3.5-1.57,3.5-3.5S14.43,5,12.5,5z M3.5,10
	C2.673,10,2,9.327,2,8.5S2.673,7,3.5,7c1.063,0,2.026,0.662,2.999,1.5C5.526,9.338,4.563,10,3.5,10z M12.5,10
	c-1.063,0-2.026-0.662-2.999-1.5C10.474,7.662,11.437,7,12.5,7C13.327,7,14,7.673,14,8.5S13.327,10,12.5,10z"/>
</svg>
