<?xml version="1.0" encoding="utf-8"?>
<!-- Generator: Adobe Illustrator 19.2.1, SVG Export Plug-In . SVG Version: 6.00 Build 0)  -->
<!DOCTYPE svg PUBLIC "-//W3C//DTD SVG 1.1//EN" "http://www.w3.org/Graphics/SVG/1.1/DTD/svg11.dtd">
<svg version="1.1" id="Layer_1" xmlns="http://www.w3.org/2000/svg" xmlns:xlink="http://www.w3.org/1999/xlink" x="0px" y="0px"
	 width="16px" height="16px" viewBox="0 0 16 16" enable-background="new 0 0 16 16" xml:space="preserve">
<path d="M8,0C3.589,0,0,3.589,0,8s3.589,8,8,8s8-3.589,8-8S12.411,0,8,0z M8,14c-2.967,0-5.431-2.167-5.91-5h3.324l1.478-1.478l3,4
	L12.414,9h1.496C13.431,11.833,10.967,14,8,14z M11.586,7l-1.478,1.478l-3-4L4.586,7H2.09C2.569,4.167,5.033,2,8,2
	s5.431,2.167,5.91,5H11.586z"/>
</svg>
