<?xml version="1.0" encoding="utf-8"?>
<!-- Generator: Adobe Illustrator 19.2.1, SVG Export Plug-In . SVG Version: 6.00 Build 0)  -->
<!DOCTYPE svg PUBLIC "-//W3C//DTD SVG 1.1//EN" "http://www.w3.org/Graphics/SVG/1.1/DTD/svg11.dtd">
<svg version="1.1" id="Layer_1" xmlns="http://www.w3.org/2000/svg" xmlns:xlink="http://www.w3.org/1999/xlink" x="0px" y="0px"
	 width="16px" height="16px" viewBox="0 0 16 16" enable-background="new 0 0 16 16" xml:space="preserve">
<path d="M11,10v5c0,0.552,0.448,1,1,1s1-0.448,1-1v-5c0-0.552-0.448-1-1-1S11,9.448,11,10z"/>
<path d="M16,6V3c0-0.552-0.448-1-1-1h-2V1c0-0.552-0.448-1-1-1s-1,0.448-1,1v1H9C8.448,2,8,2.448,8,3v3c0,0.552,0.448,1,1,1h6
	C15.552,7,16,6.552,16,6z"/>
<path d="M4,0C3.448,0,3,0.448,3,1v5c0,0.552,0.448,1,1,1s1-0.448,1-1V1C5,0.448,4.552,0,4,0z"/>
<path d="M1,14h2v1c0,0.552,0.448,1,1,1s1-0.448,1-1v-1h2c0.552,0,1-0.448,1-1v-3c0-0.552-0.448-1-1-1H1c-0.552,0-1,0.448-1,1v3
	C0,13.552,0.448,14,1,14z"/>
</svg>
