<?xml version="1.0" encoding="utf-8"?>
<!-- Generator: Adobe Illustrator 19.2.1, SVG Export Plug-In . SVG Version: 6.00 Build 0)  -->
<!DOCTYPE svg PUBLIC "-//W3C//DTD SVG 1.1//EN" "http://www.w3.org/Graphics/SVG/1.1/DTD/svg11.dtd">
<svg version="1.1" id="Layer_1" xmlns="http://www.w3.org/2000/svg" xmlns:xlink="http://www.w3.org/1999/xlink" x="0px" y="0px"
	 width="16px" height="16px" viewBox="0 0 16 16" enable-background="new 0 0 16 16" xml:space="preserve">
<path d="M12,0H4C1.791,0,0,1.791,0,4v2h5V3h6v3h5V4C16,1.791,14.209,0,12,0z"/>
<path d="M4,8l-4,4v3c0,0.552,0.448,1,1,1h14c0.552,0,1-0.448,1-1v-3l-4-4H4z M8,14c-1.105,0-2-0.895-2-2c0-1.105,0.895-2,2-2
	s2,0.895,2,2C10,13.105,9.105,14,8,14z"/>
</svg>
