<?xml version="1.0" encoding="utf-8"?>
<!-- Generator: Adobe Illustrator 19.2.1, SVG Export Plug-In . SVG Version: 6.00 Build 0)  -->
<!DOCTYPE svg PUBLIC "-//W3C//DTD SVG 1.1//EN" "http://www.w3.org/Graphics/SVG/1.1/DTD/svg11.dtd">
<svg version="1.1" id="Layer_1" xmlns="http://www.w3.org/2000/svg" xmlns:xlink="http://www.w3.org/1999/xlink" x="0px" y="0px"
	 width="16px" height="16px" viewBox="0 0 16 16" enable-background="new 0 0 16 16" xml:space="preserve">
<path d="M4,11c0.704,0,1.343-0.254,1.855-0.661l3.22,2.012C9.029,12.561,9,12.777,9,13c0,1.654,1.346,3,3,3s3-1.346,3-3
	s-1.346-3-3-3c-0.704,0-1.343,0.254-1.855,0.661l-3.22-2.012C6.971,8.439,7,8.223,7,8S6.971,7.561,6.925,7.351l3.22-2.012
	C10.657,5.746,11.296,6,12,6c1.654,0,3-1.346,3-3s-1.346-3-3-3S9,1.346,9,3c0,0.223,0.029,0.439,0.075,0.649l-3.22,2.012
	C5.343,5.254,4.704,5,4,5C2.346,5,1,6.346,1,8S2.346,11,4,11z"/>
</svg>
