<?xml version="1.0" encoding="utf-8"?>
<!-- Generator: Adobe Illustrator 19.2.1, SVG Export Plug-In . SVG Version: 6.00 Build 0)  -->
<!DOCTYPE svg PUBLIC "-//W3C//DTD SVG 1.1//EN" "http://www.w3.org/Graphics/SVG/1.1/DTD/svg11.dtd">
<svg version="1.1" id="Layer_1" xmlns="http://www.w3.org/2000/svg" xmlns:xlink="http://www.w3.org/1999/xlink" x="0px" y="0px"
	 width="16px" height="16px" viewBox="0 0 16 16" enable-background="new 0 0 16 16" xml:space="preserve">
<path fill="#222221" d="M15,3c-1.75,0-4.545-1.408-6.4-2.8c-0.355-0.268-0.845-0.268-1.2,0C5.545,1.592,2.75,3,1,3
	C0.448,3,0,3.447,0,4c0,5.584,2.701,9.817,7.606,11.919C7.732,15.973,7.866,16,8,16s0.268-0.027,0.394-0.081
	C13.299,13.817,16,9.584,16,4C16,3.447,15.552,3,15,3z M8,13.904V8H2.616C2.298,7.048,2.095,6.019,2.027,4.907
	C3.955,4.582,6.236,3.445,8,2.23V8h5.384C12.506,10.634,10.694,12.643,8,13.904z"/>
</svg>
