<?xml version="1.0" encoding="utf-8"?>
<!-- Generator: Adobe Illustrator 19.2.1, SVG Export Plug-In . SVG Version: 6.00 Build 0)  -->
<!DOCTYPE svg PUBLIC "-//W3C//DTD SVG 1.1//EN" "http://www.w3.org/Graphics/SVG/1.1/DTD/svg11.dtd">
<svg version="1.1" id="Layer_1" xmlns="http://www.w3.org/2000/svg" xmlns:xlink="http://www.w3.org/1999/xlink" x="0px" y="0px"
	 width="16px" height="16px" viewBox="0 0 16 16" enable-background="new 0 0 16 16" xml:space="preserve">
<path d="M14.682,2.318C13.803,1.439,12.652,1,11.5,1C10.212,1,8.949,1.519,8,2.707C7.049,1.517,5.781,1,4.5,1
	C3.348,1,2.197,1.439,1.318,2.318c-1.757,1.757-1.757,4.607,0,6.364L8,15l6.682-6.318C16.439,6.925,16.439,4.075,14.682,2.318z
	 M13.285,7.251L8,12.247L2.715,7.251C1.758,6.274,1.763,4.701,2.732,3.732C3.204,3.26,3.832,3,4.5,3C5.938,3,6.812,3.681,8,5.625
	C9.188,3.681,10.062,3,11.5,3c0.668,0,1.296,0.26,1.768,0.732C14.237,4.701,14.242,6.274,13.285,7.251z"/>
</svg>
