<svg xmlns="http://www.w3.org/2000/svg" xmlns:xlink="http://www.w3.org/1999/xlink" x="0px" y="0px" width="48px" height="48px" viewBox="0 0 48 48"><g >
<path fill="#BFDEE0" d="M41,47H7c-1.105,0-2-0.895-2-2V3c0-1.105,0.895-2,2-2l24,0l12,12v32C43,46.105,42.105,47,41,47z"/>
<path fill="#76B5B5" d="M31,1v10c0,1.105,0.895,2,2,2h10L31,1z"/>
<path fill="#335262" d="M33.707,32.293l-5.395-5.395C29.366,25.542,30,23.846,30,22c0-4.411-3.589-8-8-8s-8,3.589-8,8s3.589,8,8,8
	c1.846,0,3.542-0.634,4.898-1.688l5.395,5.395C32.488,33.902,32.744,34,33,34s0.512-0.098,0.707-0.293
	C34.098,33.316,34.098,32.684,33.707,32.293z M16,22c0-3.309,2.691-6,6-6s6,2.691,6,6s-2.691,6-6,6S16,25.309,16,22z"/>
</g></svg>