<svg xmlns="http://www.w3.org/2000/svg" xmlns:xlink="http://www.w3.org/1999/xlink" x="0px" y="0px" width="48px" height="48px" viewBox="0 0 48 48"><g >
<path fill="#E6E6E6" d="M41,47H7c-1.105,0-2-0.895-2-2V3c0-1.105,0.895-2,2-2l24,0l12,12v32C43,46.105,42.105,47,41,47z"/>
<path fill="#B3B3B3" d="M31,1v10c0,1.105,0.895,2,2,2h10L31,1z"/>
<path fill="#72C472" d="M25,23.223V15c2.206,0,4,1.794,4,4c0,0.552,0.448,1,1,1s1-0.448,1-1c0-3.309-2.691-6-6-6v-1
	c0-0.552-0.448-1-1-1s-1,0.448-1,1v1c-3.309,0-6,2.691-6,6c0,3.928,3.154,5.039,6,5.777V33c-2.206,0-4-1.794-4-4
	c0-0.552-0.448-1-1-1s-1,0.448-1,1c0,3.309,2.691,6,6,6v1c0,0.552,0.448,1,1,1s1-0.448,1-1v-1c3.309,0,6-2.691,6-6
	C31,25.072,27.846,23.961,25,23.223z M19,19c0-2.206,1.794-4,4-4v7.704C20.495,22.011,19,21.238,19,19z M25,33v-7.704
	c2.505,0.694,4,1.466,4,3.704C29,31.206,27.206,33,25,33z"/>
</g></svg>