<svg xmlns="http://www.w3.org/2000/svg" xmlns:xlink="http://www.w3.org/1999/xlink" x="0px" y="0px" width="48px" height="48px" viewBox="0 0 48 48"><g >
<path fill="#F9D44C" d="M17,5l-4-4H3C1.895,1,1,1.895,1,3v34c0,2.209,1.791,4,4,4h38c2.209,0,4-1.791,4-4V9c0-2.209-1.791-4-4-4H17z
	"/>
<path fill="#C7AA3D" d="M47,11H1V3c0-1.105,0.895-2,2-2h10l4,4h26c2.209,0,4,1.791,4,4V11z"/>
<path fill="#444444" d="M38,33c-0.552,0-1-0.448-1-1v-4c0-1.654-1.346-3-3-3s-3,1.346-3,3v4c0,0.552-0.448,1-1,1s-1-0.448-1-1v-4
	c0-2.757,2.243-5,5-5s5,2.243,5,5v4C39,32.552,38.552,33,38,33z"/>
<path fill="#E6E6E6" d="M41,47H27c-1.105,0-2-0.895-2-2V33c0-1.105,0.895-2,2-2h14c1.105,0,2,0.895,2,2v12
	C43,46.105,42.105,47,41,47z"/>
<path fill="#444444" d="M36,38c0-1.105-0.895-2-2-2s-2,0.895-2,2c0,0.738,0.405,1.376,1,1.723V43h2v-3.277
	C35.595,39.376,36,38.738,36,38z"/>
</g></svg>