<svg xmlns="http://www.w3.org/2000/svg" xmlns:xlink="http://www.w3.org/1999/xlink" x="0px" y="0px" width="48px" height="48px" viewBox="0 0 48 48"><g >
<path fill="#E6E6E6" d="M38,47H4c-1.105,0-2-0.895-2-2V3c0-1.105,0.895-2,2-2l24,0l12,12v32C40,46.105,39.105,47,38,47z"/>
<path fill="#B3B3B3" d="M28,1v10c0,1.105,0.895,2,2,2h10L28,1z"/>
<circle fill="#FFFFFF" cx="35" cy="30" r="10"/>
<path fill="#43A6DD" d="M35,41c-6.065,0-11-4.935-11-11s4.935-11,11-11s11,4.935,11,11S41.065,41,35,41z M35,21
	c-4.963,0-9,4.037-9,9s4.037,9,9,9s9-4.037,9-9S39.963,21,35,21z"/>
<path fill="#444444" d="M39,31h-4c-0.553,0-1-0.447-1-1v-4c0-0.553,0.447-1,1-1s1,0.447,1,1v3h3c0.553,0,1,0.447,1,1
	S39.553,31,39,31z"/>
</g></svg>