<svg xmlns="http://www.w3.org/2000/svg" xmlns:xlink="http://www.w3.org/1999/xlink" x="0px" y="0px" width="48px" height="48px" viewBox="0 0 48 48"><g >
<path fill="#B3B3B3" d="M42,35H18c-1.105,0-2-0.895-2-2V3c0-1.105,0.895-2,2-2h24c1.105,0,2,0.895,2,2v30C44,34.105,43.105,35,42,35
	z"/>
<path fill="#C6C6C6" d="M36,41H12c-1.105,0-2-0.895-2-2V9c0-1.105,0.895-2,2-2h24c1.105,0,2,0.895,2,2v30C38,40.105,37.105,41,36,41
	z"/>
<path fill="#E6E6E6" d="M30,47H6c-1.105,0-2-0.895-2-2V15c0-1.105,0.895-2,2-2h24c1.105,0,2,0.895,2,2v30C32,46.105,31.105,47,30,47
	z"/>
</g></svg>