<svg xmlns="http://www.w3.org/2000/svg" xmlns:xlink="http://www.w3.org/1999/xlink" x="0px" y="0px" width="48px" height="48px" viewBox="0 0 48 48"><g >
<path fill="#F9D44C" d="M17,5l-4-4H3C1.895,1,1,1.895,1,3v34c0,2.209,1.791,4,4,4h38c2.209,0,4-1.791,4-4V9c0-2.209-1.791-4-4-4H17z
	"/>
<path fill="#C7AA3D" d="M47,11H1V3c0-1.105,0.895-2,2-2h10l4,4h26c2.209,0,4,1.791,4,4V11z"/>
<circle fill="#FFFFFF" cx="32" cy="36" r="10"/>
<path fill="#43A6DD" d="M32,47c-6.065,0-11-4.935-11-11s4.935-11,11-11s11,4.935,11,11S38.065,47,32,47z M32,27
	c-4.963,0-9,4.037-9,9s4.037,9,9,9s9-4.037,9-9S36.963,27,32,27z"/>
<path fill="#444444" d="M36,37h-4c-0.553,0-1-0.447-1-1v-4c0-0.553,0.447-1,1-1s1,0.447,1,1v3h3c0.553,0,1,0.447,1,1
	S36.553,37,36,37z"/>
</g></svg>