<svg xmlns="http://www.w3.org/2000/svg" xmlns:xlink="http://www.w3.org/1999/xlink" x="0px" y="0px" width="48px" height="48px" viewBox="0 0 48 48"><g >
<path fill="#E86C60" d="M41,47H7c-1.105,0-2-0.895-2-2V3c0-1.105,0.895-2,2-2l24,0l12,12v32C43,46.105,42.105,47,41,47z"/>
<path fill="#C94D47" d="M31,1v10c0,1.105,0.895,2,2,2h10L31,1z"/>
<path fill="#FFFFFF" d="M31.535,17.465C30.591,16.521,29.336,16,28,16s-2.592,0.521-3.535,1.464
	c-0.168,0.169-0.323,0.348-0.465,0.535c-0.141-0.188-0.296-0.365-0.465-0.534C22.592,16.521,21.336,16,20,16
	s-2.592,0.521-3.535,1.465C15.521,18.408,15,19.664,15,21s0.521,2.592,1.447,3.518L24,32l7.535-7.465C32.479,23.592,33,22.336,33,21
	S32.479,18.409,31.535,17.465z"/>
</g></svg>