<svg xmlns="http://www.w3.org/2000/svg" xmlns:xlink="http://www.w3.org/1999/xlink" x="0px" y="0px" width="48px" height="48px" viewBox="0 0 48 48"><g >
<path fill="#B3B3B3" d="M26,27H2c-0.553,0-1-0.448-1-1V2c0-0.552,0.447-1,1-1h24c0.553,0,1,0.448,1,1v24C27,26.552,26.553,27,26,27z
	"/>
<path fill="#E6E6E6" d="M46,47H22c-0.553,0-1-0.448-1-1V22c0-0.552,0.447-1,1-1h24c0.553,0,1,0.448,1,1v24
	C47,46.552,46.553,47,46,47z"/>
<path fill="#72C472" d="M38,9h-5.586l4.293-4.293l-1.414-1.414l-6,6c-0.391,0.391-0.391,1.023,0,1.414l6,6l1.414-1.414L32.414,11H38
	c2.757,0,5,2.243,5,5h2C45,12.14,41.859,9,38,9z"/>
<path fill="#72C472" d="M12.707,31.293l-1.414,1.414L15.586,37H10c-2.757,0-5-2.243-5-5H3c0,3.86,3.141,7,7,7h5.586l-4.293,4.293
	l1.414,1.414l6-6c0.391-0.391,0.391-1.023,0-1.414L12.707,31.293z"/>
</g></svg>