<svg xmlns="http://www.w3.org/2000/svg" xmlns:xlink="http://www.w3.org/1999/xlink" x="0px" y="0px" width="48px" height="48px" viewBox="0 0 48 48"><g >
<path fill="#72C472" d="M41,47H7c-1.105,0-2-0.895-2-2V3c0-1.105,0.895-2,2-2l24,0l12,12v32C43,46.105,42.105,47,41,47z"/>
<path fill="#54A354" d="M31,1v10c0,1.105,0.895,2,2,2h10L31,1z"/>
<path fill="#FFFFFF" d="M21,24h-6c-0.553,0-1-0.447-1-1v-6c0-0.553,0.447-1,1-1h6c0.553,0,1,0.447,1,1v6C22,23.553,21.553,24,21,24z
	"/>
<path fill="#FFFFFF" d="M33,24h-6c-0.553,0-1-0.447-1-1v-6c0-0.553,0.447-1,1-1h6c0.553,0,1,0.447,1,1v6C34,23.553,33.553,24,33,24z
	"/>
<path fill="#FFFFFF" d="M21,36h-6c-0.553,0-1-0.447-1-1v-6c0-0.553,0.447-1,1-1h6c0.553,0,1,0.447,1,1v6C22,35.553,21.553,36,21,36z
	"/>
<path fill="#FFFFFF" d="M33,36h-6c-0.553,0-1-0.447-1-1v-6c0-0.553,0.447-1,1-1h6c0.553,0,1,0.447,1,1v6C34,35.553,33.553,36,33,36z
	"/>
</g></svg>