<svg xmlns="http://www.w3.org/2000/svg" xmlns:xlink="http://www.w3.org/1999/xlink" x="0px" y="0px" width="48px" height="48px" viewBox="0 0 48 48"><g >
<path fill="#C19F85" d="M41,47H7c-1.105,0-2-0.895-2-2V3c0-1.105,0.895-2,2-2l24,0l12,12v32C43,46.105,42.105,47,41,47z"/>
<path fill="#87613E" d="M31,1v10c0,1.105,0.895,2,2,2h10L31,1z"/>
<path fill="#FFFFFF" d="M19.05,36.997c-1.532,0-3.064-0.597-4.257-1.79c-2.387-2.387-2.387-6.127,0-8.514l2.515-2.415
	c0.398-0.382,1.031-0.37,1.414,0.029c0.383,0.398,0.37,1.031-0.029,1.414l-2.5,2.4c-1.606,1.606-1.606,4.05,0.015,5.671
	c1.621,1.621,4.065,1.62,5.686,0l2.8-2.8c1.621-1.621,1.621-4.065,0-5.687c-0.391-0.391-0.391-1.023,0-1.414s1.023-0.391,1.414,0
	c2.387,2.388,2.387,6.127,0,8.515l-2.8,2.8C22.114,36.4,20.582,36.997,19.05,36.997z"/>
<path fill="#FFFFFF" d="M22.6,28.4c-0.256,0-0.512-0.098-0.707-0.293c-2.387-2.388-2.387-6.127,0-8.515l2.8-2.8
	c2.387-2.387,6.127-2.387,8.514,0c2.387,2.387,2.387,6.127,0,8.514l-2.515,2.415c-0.398,0.381-1.031,0.37-1.414-0.029
	c-0.383-0.398-0.37-1.031,0.029-1.414l2.5-2.4c1.606-1.606,1.606-4.05-0.015-5.671c-1.622-1.622-4.066-1.621-5.686,0l-2.8,2.8
	c-1.621,1.621-1.621,4.065,0,5.687c0.391,0.391,0.391,1.023,0,1.414C23.112,28.303,22.856,28.4,22.6,28.4z"/>
</g></svg>