<svg xmlns="http://www.w3.org/2000/svg" xmlns:xlink="http://www.w3.org/1999/xlink" x="0px" y="0px" width="48px" height="48px" viewBox="0 0 48 48"><g >
<path fill="#F9D44C" d="M17,8l-4-4H3C1.895,4,1,4.895,1,6v34c0,2.209,1.791,4,4,4h38c2.209,0,4-1.791,4-4V12c0-2.209-1.791-4-4-4H17
	z"/>
<path fill="#C7AA3D" d="M47,14H1V6c0-1.105,0.895-2,2-2h10l4,4h26c2.209,0,4,1.791,4,4V14z"/>
<path fill="#C7AA3D" d="M19.293,27.707C19.488,27.902,19.744,28,20,28s0.512-0.098,0.707-0.293c0.391-0.391,0.391-1.023,0-1.414
	L18.414,24H26c2.757,0,5,2.243,5,5c0,0.553,0.448,1,1,1s1-0.447,1-1c0-3.859-3.14-7-7-7h-7.586l2.293-2.293
	c0.391-0.391,0.391-1.023,0-1.414s-1.023-0.391-1.414,0l-4,4c-0.391,0.391-0.391,1.023,0,1.414L19.293,27.707z"/>
<path fill="#C7AA3D" d="M28.707,30.293c-0.391-0.391-1.023-0.391-1.414,0s-0.391,1.023,0,1.414L29.586,34H22c-2.757,0-5-2.243-5-5
	c0-0.553-0.448-1-1-1s-1,0.447-1,1c0,3.859,3.14,7,7,7h7.586l-2.293,2.293c-0.391,0.391-0.391,1.023,0,1.414
	C27.488,39.902,27.744,40,28,40s0.512-0.098,0.707-0.293l4-4c0.391-0.391,0.391-1.023,0-1.414L28.707,30.293z"/>
</g></svg>