<svg xmlns="http://www.w3.org/2000/svg" xmlns:xlink="http://www.w3.org/1999/xlink" x="0px" y="0px" width="48px" height="48px" viewBox="0 0 48 48"><g >
<path fill="#F9D44C" d="M17,8l-4-4H3C1.895,4,1,4.895,1,6v34c0,2.209,1.791,4,4,4h38c2.209,0,4-1.791,4-4V12c0-2.209-1.791-4-4-4H17
	z"/>
<path fill="#C7AA3D" d="M47,14H1V6c0-1.105,0.895-2,2-2h10l4,4h26c2.209,0,4,1.791,4,4V14z"/>
<path fill="#C7AA3D" d="M24.707,20.293c-0.391-0.391-1.023-0.391-1.414,0l-6,6c-0.391,0.391-0.391,1.023,0,1.414
	s1.023,0.391,1.414,0L23,23.414V37c0,0.553,0.447,1,1,1s1-0.447,1-1V23.414l4.293,4.293C29.488,27.902,29.744,28,30,28
	s0.512-0.098,0.707-0.293c0.391-0.391,0.391-1.023,0-1.414L24.707,20.293z"/>
</g></svg>