<svg xmlns="http://www.w3.org/2000/svg" xmlns:xlink="http://www.w3.org/1999/xlink" x="0px" y="0px" width="48px" height="48px" viewBox="0 0 48 48"><g >
<path fill="#E6E6E6" d="M41,47H7c-1.105,0-2-0.895-2-2V3c0-1.105,0.895-2,2-2l24,0l12,12v32C43,46.105,42.105,47,41,47z"/>
<path fill="#B3B3B3" d="M31,1v10c0,1.105,0.895,2,2,2h10L31,1z"/>
<path fill="#E86C60" d="M24,15c-6.065,0-11,4.935-11,11s4.935,11,11,11s11-4.935,11-11S30.065,15,24,15z M15,26c0-4.962,4.037-9,9-9
	c2.122,0,4.071,0.742,5.611,1.975L16.975,31.611C15.742,30.07,15,28.122,15,26z M24,35c-2.122,0-4.071-0.742-5.611-1.975
	l12.636-12.636C32.258,21.929,33,23.878,33,26C33,30.962,28.963,35,24,35z"/>
</g></svg>