<svg xmlns="http://www.w3.org/2000/svg" xmlns:xlink="http://www.w3.org/1999/xlink" x="0px" y="0px" width="48px" height="48px" viewBox="0 0 48 48"><g >
<path fill="#EA9860" d="M41,47H7c-1.105,0-2-0.895-2-2V3c0-1.105,0.895-2,2-2l24,0l12,12v32C43,46.105,42.105,47,41,47z"/>
<path fill="#CC7B44" d="M31,1v10c0,1.105,0.895,2,2,2h10L31,1z"/>
<path fill="#FFFFFF" d="M32.646,16.237c-0.224-0.189-0.521-0.271-0.811-0.223l-12,2C19.354,18.094,19,18.511,19,19v11.184
	C18.686,30.072,18.352,30,18,30c-1.655,0-3,1.346-3,3c0,1.654,1.345,3,3,3s3-1.346,3-3v-8.153l10-1.667v5.004
	C30.686,28.072,30.352,28,30,28c-1.655,0-3,1.346-3,3c0,1.654,1.345,3,3,3s3-1.346,3-3V17C33,16.706,32.871,16.427,32.646,16.237z
	 M21,22.82v-2.972l10-1.667v2.972L21,22.82z"/>
</g></svg>