<svg xmlns="http://www.w3.org/2000/svg" xmlns:xlink="http://www.w3.org/1999/xlink" x="0px" y="0px" width="48px" height="48px" viewBox="0 0 48 48"><g >
<path fill="#BFDEE0" d="M41,47H7c-1.105,0-2-0.895-2-2V3c0-1.105,0.895-2,2-2l24,0l12,12v32C43,46.105,42.105,47,41,47z"/>
<path fill="#76B5B5" d="M31,1v10c0,1.105,0.895,2,2,2h10L31,1z"/>
<path fill="#335262" d="M28.707,27.293c-0.391-0.391-1.023-0.391-1.414,0s-0.391,1.023,0,1.414L31.586,33H20c-2.757,0-5-2.243-5-5
	c0-0.552-0.447-1-1-1s-1,0.448-1,1c0,3.86,3.141,7,7,7h11.586l-4.293,4.293c-0.391,0.391-0.391,1.023,0,1.414
	C27.488,40.902,27.744,41,28,41s0.512-0.098,0.707-0.293l6-6c0.391-0.391,0.391-1.023,0-1.414L28.707,27.293z"/>
<path fill="#335262" d="M19.293,24.707C19.488,24.902,19.744,25,20,25s0.512-0.098,0.707-0.293c0.391-0.391,0.391-1.023,0-1.414
	L16.414,19H28c2.757,0,5,2.243,5,5c0,0.552,0.447,1,1,1s1-0.448,1-1c0-3.86-3.141-7-7-7H16.414l4.293-4.293
	c0.391-0.391,0.391-1.023,0-1.414s-1.023-0.391-1.414,0l-6,6c-0.391,0.391-0.391,1.023,0,1.414L19.293,24.707z"/>
</g></svg>