<svg xmlns="http://www.w3.org/2000/svg" xmlns:xlink="http://www.w3.org/1999/xlink" x="0px" y="0px" width="48px" height="48px" viewBox="0 0 48 48"><g >
<path fill="#F9D44C" d="M17,8l-4-4H3C1.895,4,1,4.895,1,6v34c0,2.209,1.791,4,4,4h38c2.209,0,4-1.791,4-4V12c0-2.209-1.791-4-4-4H17
	z"/>
<path fill="#C7AA3D" d="M47,14H1V6c0-1.105,0.895-2,2-2h10l4,4h26c2.209,0,4,1.791,4,4V14z"/>
<path fill="#C7AA3D" d="M21,20h-5c-0.553,0-1,0.447-1,1v5c0,0.553,0.447,1,1,1h5c0.553,0,1-0.447,1-1v-5C22,20.447,21.553,20,21,20z
	"/>
<path fill="#C7AA3D" d="M32,20h-5c-0.553,0-1,0.447-1,1v5c0,0.553,0.447,1,1,1h5c0.553,0,1-0.447,1-1v-5C33,20.447,32.553,20,32,20z
	"/>
<path fill="#C7AA3D" d="M21,31h-5c-0.553,0-1,0.447-1,1v5c0,0.553,0.447,1,1,1h5c0.553,0,1-0.447,1-1v-5C22,31.447,21.553,31,21,31z
	"/>
<path fill="#C7AA3D" d="M32,31h-5c-0.553,0-1,0.447-1,1v5c0,0.553,0.447,1,1,1h5c0.553,0,1-0.447,1-1v-5C33,31.447,32.553,31,32,31z
	"/>
</g></svg>