<svg xmlns="http://www.w3.org/2000/svg" xmlns:xlink="http://www.w3.org/1999/xlink" x="0px" y="0px" width="48px" height="48px" viewBox="0 0 48 48"><g >
<path fill="#F9D44C" d="M17,8l-4-4H3C1.895,4,1,4.895,1,6v34c0,2.209,1.791,4,4,4h38c2.209,0,4-1.791,4-4V12c0-2.209-1.791-4-4-4H17
	z"/>
<path fill="#C7AA3D" d="M47,14H1V6c0-1.105,0.895-2,2-2h10l4,4h26c2.209,0,4,1.791,4,4V14z"/>
<path fill="#C7AA3D" d="M23,22c-4.411,0-8,3.589-8,8c0,4.411,3.589,8,8,8s8-3.589,8-8h-8V22z"/>
<path fill="#C7AA3D" d="M25,20v8h8C33,23.589,29.411,20,25,20z"/>
</g></svg>