<svg xmlns="http://www.w3.org/2000/svg" xmlns:xlink="http://www.w3.org/1999/xlink" x="0px" y="0px" width="48px" height="48px" viewBox="0 0 48 48"><g >
<path fill="#72C472" d="M41,47H7c-1.105,0-2-0.895-2-2V3c0-1.105,0.895-2,2-2l24,0l12,12v32C43,46.105,42.105,47,41,47z"/>
<path fill="#54A354" d="M31,1v10c0,1.105,0.895,2,2,2h10L31,1z"/>
<path fill="#FFFFFF" d="M20,31c-0.256,0-0.512-0.098-0.707-0.293l-4-4c-0.391-0.391-0.391-1.023,0-1.414s1.023-0.391,1.414,0
	L20,28.586l11.293-11.293c0.391-0.391,1.023-0.391,1.414,0s0.391,1.023,0,1.414l-12,12C20.512,30.902,20.256,31,20,31z"/>
</g></svg>