<svg xmlns="http://www.w3.org/2000/svg" xmlns:xlink="http://www.w3.org/1999/xlink" x="0px" y="0px" width="48px" height="48px" viewBox="0 0 48 48"><g >
<path fill="#856342" d="M25,27H3c-1.105,0-2-0.895-2-2V3c0-1.105,0.895-2,2-2h7l4,4h11c1.105,0,2,0.895,2,2v18
	C27,26.105,26.105,27,25,27z"/>
<path fill="#72C472" d="M40,9h-5.586l4.293-4.293l-1.414-1.414l-6,6c-0.391,0.391-0.391,1.023,0,1.414l6,6l1.414-1.414L34.414,11H40
	c2.757,0,5,2.243,5,5h2C47,12.14,43.859,9,40,9z"/>
<path fill="#72C472" d="M10.707,31.293l-1.414,1.414L13.586,37H8c-2.757,0-5-2.243-5-5H1c0,3.86,3.141,7,7,7h5.586l-4.293,4.293
	l1.414,1.414l6-6c0.391-0.391,0.391-1.023,0-1.414L10.707,31.293z"/>
<path fill="#A67C52" d="M45,47H23c-1.105,0-2-0.895-2-2V23c0-1.105,0.895-2,2-2h7l4,4h11c1.105,0,2,0.895,2,2v18
	C47,46.105,46.105,47,45,47z"/>
</g></svg>