<svg xmlns="http://www.w3.org/2000/svg" xmlns:xlink="http://www.w3.org/1999/xlink" x="0px" y="0px" width="48px" height="48px" viewBox="0 0 48 48"><g >
<path fill="#E6E6E6" d="M41,47H7c-1.105,0-2-0.895-2-2V3c0-1.105,0.895-2,2-2l24,0l12,12v32C43,46.105,42.105,47,41,47z"/>
<path fill="#B3B3B3" d="M31,1v10c0,1.105,0.895,2,2,2h10L31,1z"/>
<path fill="#43A6DD" d="M25,32h-2c-0.552,0-1-0.448-1-1V17c0-0.552,0.448-1,1-1h2c0.552,0,1,0.448,1,1v14C26,31.552,25.552,32,25,32
	z"/>
<path fill="#43A6DD" d="M17,32h-2c-0.552,0-1-0.448-1-1v-4c0-0.552,0.448-1,1-1h2c0.552,0,1,0.448,1,1v4C18,31.552,17.552,32,17,32z
	"/>
<path fill="#43A6DD" d="M33,32h-2c-0.552,0-1-0.448-1-1v-8c0-0.552,0.448-1,1-1h2c0.552,0,1,0.448,1,1v8C34,31.552,33.552,32,33,32z
	"/>
</g></svg>