<svg xmlns="http://www.w3.org/2000/svg" xmlns:xlink="http://www.w3.org/1999/xlink" x="0px" y="0px" width="48px" height="48px" viewBox="0 0 48 48"><g >
<path fill="#BFDEE0" d="M41,47H7c-1.105,0-2-0.895-2-2V3c0-1.105,0.895-2,2-2l24,0l12,12v32C43,46.105,42.105,47,41,47z"/>
<path fill="#76B5B5" d="M31,1v10c0,1.105,0.895,2,2,2h10L31,1z"/>
<path fill="#335262" d="M27,17c-2.898,0-5.384,1.761-6.448,4.271C20.061,21.109,19.546,21,19,21c-2.761,0-5,2.239-5,5
	c0,2.761,2.239,5,5,5c1.432,0,6.336,0,8,0c3.866,0,7-3.134,7-7S30.866,17,27,17z"/>
</g></svg>