<svg xmlns="http://www.w3.org/2000/svg" xmlns:xlink="http://www.w3.org/1999/xlink" x="0px" y="0px" width="48px" height="48px" viewBox="0 0 48 48"><g >
<path fill="#F9D44C" d="M17,8l-4-4H3C1.895,4,1,4.895,1,6v34c0,2.209,1.791,4,4,4h38c2.209,0,4-1.791,4-4V12c0-2.209-1.791-4-4-4H17
	z"/>
<path fill="#C7AA3D" d="M47,14H1V6c0-1.105,0.895-2,2-2h10l4,4h26c2.209,0,4,1.791,4,4V14z"/>
<path fill="#C7AA3D" d="M25,28.264v-5.222c1.132,0.2,2,1.222,2,2.458c0,0.553,0.447,1,1,1s1-0.447,1-1c0-2.341-1.763-4.248-4-4.459
	V20c0-0.553-0.447-1-1-1s-1,0.447-1,1v1.032c-2.164,0.167-3.976,2.074-4.1,4.468c0,2.886,2.201,3.763,4.1,4.293v5.173
	c-1.11-0.167-2-1.222-2-2.466c0-0.553-0.447-1-1-1s-1,0.447-1,1c0,2.332,1.805,4.297,4,4.467V38c0,0.553,0.447,1,1,1s1-0.447,1-1
	v-1.044c2.149-0.222,3.9-2.16,3.9-4.456C28.9,29.714,26.85,28.8,25,28.264z M20.899,25.553c0.066-1.269,0.999-2.346,2.101-2.518
	v4.666C21.534,27.236,20.9,26.748,20.899,25.553z M25,34.955v-4.592c1.327,0.45,1.9,0.955,1.9,2.138
	C26.9,33.707,26.064,34.741,25,34.955z"/>
</g></svg>