<svg xmlns="http://www.w3.org/2000/svg" xmlns:xlink="http://www.w3.org/1999/xlink" x="0px" y="0px" width="48px" height="48px" viewBox="0 0 48 48"><g >
<path fill="#F9D44C" d="M17,8l-4-4H3C1.895,4,1,4.895,1,6v34c0,2.209,1.791,4,4,4h38c2.209,0,4-1.791,4-4V12c0-2.209-1.791-4-4-4H17
	z"/>
<path fill="#C7AA3D" d="M47,14H1V6c0-1.105,0.895-2,2-2h10l4,4h26c2.209,0,4,1.791,4,4V14z"/>
<path fill="#C7AA3D" d="M30.502,21.135c-0.308-0.178-0.688-0.181-0.998-0.003L22.734,25H18c-0.553,0-1,0.447-1,1v6
	c0,0.553,0.447,1,1,1h4.734l6.77,3.868C29.657,36.956,29.829,37,30,37c0.174,0,0.347-0.045,0.502-0.135
	C30.811,36.686,31,36.356,31,36V22C31,21.644,30.811,21.314,30.502,21.135z"/>
</g></svg>