<svg xmlns="http://www.w3.org/2000/svg" xmlns:xlink="http://www.w3.org/1999/xlink" x="0px" y="0px" width="48px" height="48px" viewBox="0 0 48 48"><g >
<path fill="#B3B3B3" d="M12,46H8c-0.552,0-1-0.448-1-1v-3h6v3C13,45.552,12.552,46,12,46z"/>
<path fill="#B3B3B3" d="M40,46h-4c-0.552,0-1-0.448-1-1v-3h6v3C41,45.552,40.552,46,40,46z"/>
<path fill="#A67C52" d="M43,44H5c-1.105,0-2-0.895-2-2V4c0-1.105,0.895-2,2-2h38c1.105,0,2,0.895,2,2v38C45,43.105,44.105,44,43,44z
	"/>
<path fill="#EFD358" d="M28,12h-8c-0.552,0-1-0.448-1-1s0.448-1,1-1h8c0.552,0,1,0.448,1,1S28.552,12,28,12z"/>
<path fill="#EFD358" d="M28,30h-8c-0.552,0-1-0.448-1-1s0.448-1,1-1h8c0.552,0,1,0.448,1,1S28.552,30,28,30z"/>
<path fill="#5F4025" d="M42,42H6c-0.552,0-1-0.448-1-1V5c0-0.552,0.448-1,1-1h36c0.552,0,1,0.448,1,1v36C43,41.552,42.552,42,42,42z
	 M7,40h34V6H7V40z"/>
<rect x="6" y="22" fill="#5F4025" width="36" height="2"/>
</g></svg>