<svg xmlns="http://www.w3.org/2000/svg" xmlns:xlink="http://www.w3.org/1999/xlink" x="0px" y="0px" width="48px" height="48px" viewBox="0 0 48 48"><g >
<path fill="#F9D44C" d="M17,8l-4-4H3C1.895,4,1,4.895,1,6v34c0,2.209,1.791,4,4,4h38c2.209,0,4-1.791,4-4V12c0-2.209-1.791-4-4-4H17
	z"/>
<path fill="#C7AA3D" d="M47,14H1V6c0-1.105,0.895-2,2-2h10l4,4h26c2.209,0,4,1.791,4,4V14z"/>
<circle fill="#C7AA3D" cx="24" cy="38" r="2"/>
<path fill="#C7AA3D" d="M24,34c-0.553,0-1-0.447-1-1v-4c0-0.553,0.447-1,1-1c2.243,0,4-1.757,4-4s-1.757-4-4-4
	c-1.639,0-3.017,0.899-3.686,2.406c-0.225,0.504-0.814,0.733-1.32,0.508c-0.505-0.225-0.731-0.815-0.508-1.32
	C19.472,19.377,21.584,18,24,18c3.364,0,6,2.636,6,6c0,3.023-2.128,5.457-5,5.921V33C25,33.553,24.553,34,24,34z"/>
</g></svg>