<svg xmlns="http://www.w3.org/2000/svg" xmlns:xlink="http://www.w3.org/1999/xlink" x="0px" y="0px" width="48px" height="48px" viewBox="0 0 48 48"><g >
<path fill="#F9D44C" d="M41,47H7c-1.105,0-2-0.895-2-2V3c0-1.105,0.895-2,2-2l24,0l12,12v32C43,46.105,42.105,47,41,47z"/>
<path fill="#C7AA3D" d="M31,1v10c0,1.105,0.895,2,2,2h10L31,1z"/>
<path fill="#FFFFFF" d="M32.924,21.217C32.77,20.843,32.404,20.6,32,20.6h-4.94l-2.141-4.993C24.762,15.238,24.4,15,24,15
	s-0.762,0.238-0.919,0.606L20.94,20.6H16c-0.404,0-0.77,0.243-0.924,0.617c-0.155,0.374-0.069,0.804,0.217,1.09l3.6,3.6
	l-1.463,5.852c-0.098,0.389,0.047,0.797,0.366,1.039c0.318,0.242,0.752,0.27,1.1,0.071L24,29.951l5.104,2.917
	C29.259,32.956,29.43,33,29.601,33c0.214,0,0.427-0.068,0.604-0.203c0.319-0.242,0.464-0.65,0.366-1.039l-1.463-5.852l3.6-3.6
	C32.993,22.021,33.079,21.591,32.924,21.217z"/>
</g></svg>