<svg xmlns="http://www.w3.org/2000/svg" xmlns:xlink="http://www.w3.org/1999/xlink" x="0px" y="0px" width="48px" height="48px" viewBox="0 0 48 48"><g >
<path fill="#F9D44C" d="M17,8l-4-4H3C1.895,4,1,4.895,1,6v34c0,2.209,1.791,4,4,4h38c2.209,0,4-1.791,4-4V12c0-2.209-1.791-4-4-4H17
	z"/>
<path fill="#C7AA3D" d="M47,14H1V6c0-1.105,0.895-2,2-2h10l4,4h26c2.209,0,4,1.791,4,4V14z"/>
<path fill="#C7AA3D" d="M27,21c-2.898,0-5.384,1.761-6.448,4.271C20.061,25.109,19.546,25,19,25c-2.761,0-5,2.239-5,5
	c0,2.761,2.239,5,5,5c1.432,0,6.336,0,8,0c3.866,0,7-3.134,7-7S30.866,21,27,21z"/>
</g></svg>