<svg xmlns="http://www.w3.org/2000/svg" xmlns:xlink="http://www.w3.org/1999/xlink" x="0px" y="0px" width="48px" height="48px" viewBox="0 0 48 48"><g >
<path fill="#F9D44C" d="M17,8l-4-4H3C1.895,4,1,4.895,1,6v34c0,2.209,1.791,4,4,4h38c2.209,0,4-1.791,4-4V12c0-2.209-1.791-4-4-4H17
	z"/>
<path fill="#C7AA3D" d="M47,14H1V6c0-1.105,0.895-2,2-2h10l4,4h26c2.209,0,4,1.791,4,4V14z"/>
<path fill="#C7AA3D" d="M31.932,26.526c-0.137-0.332-0.462-0.549-0.821-0.549H26.72l-1.903-4.438C24.677,21.212,24.356,21,24,21
	s-0.677,0.212-0.817,0.539l-1.903,4.438h-4.391c-0.359,0-0.684,0.216-0.821,0.549c-0.138,0.332-0.062,0.714,0.193,0.969l3.2,3.2
	l-1.3,5.201c-0.087,0.345,0.042,0.708,0.326,0.924c0.283,0.215,0.668,0.24,0.977,0.063L24,34.29l4.537,2.593
	C28.674,36.961,28.826,37,28.978,37c0.19,0,0.379-0.061,0.536-0.181c0.284-0.215,0.412-0.578,0.326-0.924l-1.3-5.201l3.2-3.2
	C31.994,27.24,32.07,26.859,31.932,26.526z"/>
</g></svg>