<svg xmlns="http://www.w3.org/2000/svg" xmlns:xlink="http://www.w3.org/1999/xlink" x="0px" y="0px" width="48px" height="48px" viewBox="0 0 48 48"><g >
<path fill="#E6E6E6" d="M41,47H7c-1.105,0-2-0.895-2-2V3c0-1.105,0.895-2,2-2l24,0l12,12v32C43,46.105,42.105,47,41,47z"/>
<path fill="#B3B3B3" d="M31,1v10c0,1.105,0.895,2,2,2h10L31,1z"/>
<path fill="#444444" d="M34,24h-1.1c-0.7,0-1.3-0.4-1.6-1l0,0c-0.3-0.6-0.1-1.4,0.4-1.8l0.7-0.7c0.4-0.4,0.4-1,0-1.4L31,17.7
	c-0.4-0.4-1-0.4-1.4,0l-0.7,0.7c-0.5,0.5-1.2,0.6-1.8,0.4l0,0c-0.6-0.3-1-0.9-1-1.6V16c0-0.6-0.4-1-1-1h-2c-0.6,0-1,0.4-1,1v1.1
	c0,0.7-0.4,1.3-1,1.6l0,0c-0.8,0.2-1.5,0-2-0.4l-0.8-0.8c-0.4-0.4-1-0.4-1.4,0l-1.4,1.4c-0.4,0.4-0.4,1,0,1.4l0.7,0.7
	c0.5,0.5,0.6,1.2,0.4,1.8l0,0c-0.3,0.6-0.9,1-1.6,1h-1c-0.6,0-1,0.4-1,1v2c0,0.6,0.4,1,1,1h1.1c0.7,0,1.3,0.4,1.6,1l0,0
	c0.3,0.6,0.1,1.4-0.4,1.8l-0.7,0.7c-0.4,0.4-0.4,1,0,1.4l1.4,1.4c0.4,0.4,1,0.4,1.4,0l0.7-0.7c0.5-0.5,1.2-0.6,1.8-0.4l0,0
	c0.6,0.3,1,0.9,1,1.6V36c0,0.6,0.4,1,1,1h2c0.6,0,1-0.4,1-1v-1.1c0-0.7,0.4-1.3,1-1.6l0,0c0.6-0.3,1.4-0.1,1.8,0.4l0.7,0.7
	c0.4,0.4,1,0.4,1.4,0l1.4-1.4c0.4-0.4,0.4-1,0-1.4l-0.7-0.7c-0.5-0.5-0.6-1.2-0.4-1.8l0,0c0.3-0.6,0.9-1,1.6-1H34c0.6,0,1-0.4,1-1
	v-2C35,24.4,34.6,24,34,24z M24,29c-1.7,0-3-1.3-3-3s1.3-3,3-3s3,1.3,3,3S25.7,29,24,29z"/>
</g></svg>