<svg xmlns="http://www.w3.org/2000/svg" xmlns:xlink="http://www.w3.org/1999/xlink" x="0px" y="0px" width="48px" height="48px" viewBox="0 0 48 48"><g >
<path fill="#8680D8" d="M41,47H7c-1.105,0-2-0.895-2-2V3c0-1.105,0.895-2,2-2l24,0l12,12v32C43,46.105,42.105,47,41,47z"/>
<path fill="#5E5EBC" d="M31,1v10c0,1.105,0.895,2,2,2h10L31,1z"/>
<path fill="#FFFFFF" d="M18,33c-0.162,0-0.324-0.039-0.472-0.118C17.203,32.708,17,32.369,17,32V16c0-0.369,0.203-0.708,0.528-0.882
	c0.323-0.175,0.718-0.156,1.026,0.05l12,8C30.833,23.354,31,23.666,31,24s-0.167,0.646-0.445,0.832l-12,8
	C18.387,32.944,18.194,33,18,33z"/>
</g></svg>