<svg xmlns="http://www.w3.org/2000/svg" xmlns:xlink="http://www.w3.org/1999/xlink" x="0px" y="0px" width="48px" height="48px" viewBox="0 0 48 48"><g >
<path fill="#EF8EC3" d="M41,47H7c-1.105,0-2-0.895-2-2V3c0-1.105,0.895-2,2-2l24,0l12,12v32C43,46.105,42.105,47,41,47z"/>
<path fill="#D868AB" d="M31,1v10c0,1.105,0.895,2,2,2h10L31,1z"/>
<path fill="#FFFFFF" d="M30.485,16.125c-0.318-0.177-0.707-0.167-1.015,0.026L21.713,21H16c-0.552,0-1,0.448-1,1v6
	c0,0.552,0.448,1,1,1h5.713l7.757,4.848C29.632,33.949,29.816,34,30,34c0.167,0,0.333-0.042,0.485-0.125
	C30.803,33.698,31,33.364,31,33V17C31,16.636,30.803,16.302,30.485,16.125z"/>
</g></svg>