<svg xmlns="http://www.w3.org/2000/svg" xmlns:xlink="http://www.w3.org/1999/xlink" x="0px" y="0px" width="48px" height="48px" viewBox="0 0 48 48"><g >
<path fill="#E6E6E6" d="M41,47H7c-1.105,0-2-0.895-2-2V3c0-1.105,0.895-2,2-2l24,0l12,12v32C43,46.105,42.105,47,41,47z"/>
<path fill="#B3B3B3" d="M31,1v10c0,1.105,0.895,2,2,2h10L31,1z"/>
<path fill="#E86C60" d="M24,15c-5.523,0-10,4.477-10,10s4.477,10,10,10s10-4.477,10-10H24V15z"/>
<path fill="#EA9860" d="M24,15v10h10C34,19.477,29.523,15,24,15z"/>
</g></svg>