<svg xmlns="http://www.w3.org/2000/svg" xmlns:xlink="http://www.w3.org/1999/xlink" x="0px" y="0px" width="48px" height="48px" viewBox="0 0 48 48"><g >
<path fill="#E86C60" d="M39,47H5c-1.105,0-2-0.895-2-2V3c0-1.105,0.895-2,2-2l24,0l12,12v32C41,46.105,40.105,47,39,47z"/>
<path fill="#C94D47" d="M29,1v10c0,1.105,0.895,2,2,2h10L29,1z"/>
<path fill="#444444" d="M41,28c-0.552,0-1-0.448-1-1v-4c0-1.654-1.346-3-3-3s-3,1.346-3,3v4c0,0.552-0.448,1-1,1s-1-0.448-1-1v-4
	c0-2.757,2.243-5,5-5s5,2.243,5,5v4C42,27.552,41.552,28,41,28z"/>
<path fill="#F9D44C" d="M44,42H30c-1.105,0-2-0.895-2-2V28c0-1.105,0.895-2,2-2h14c1.105,0,2,0.895,2,2v12
	C46,41.105,45.105,42,44,42z"/>
<path fill="#444444" d="M39,33c0-1.105-0.895-2-2-2s-2,0.895-2,2c0,0.738,0.405,1.376,1,1.723V38h2v-3.277
	C38.595,34.376,39,33.738,39,33z"/>
</g></svg>