<svg xmlns="http://www.w3.org/2000/svg" xmlns:xlink="http://www.w3.org/1999/xlink" x="0px" y="0px" width="48px" height="48px" viewBox="0 0 48 48"><g >
<path fill="#F9D44C" d="M17,5l-4-4H3C1.895,1,1,1.895,1,3v34c0,2.209,1.791,4,4,4h38c2.209,0,4-1.791,4-4V9c0-2.209-1.791-4-4-4H17z
	"/>
<path fill="#C7AA3D" d="M47,11H1V3c0-1.105,0.895-2,2-2h10l4,4h26c2.209,0,4,1.791,4,4V11z"/>
<circle fill="#E86C60" cx="35" cy="39" r="8"/>
<path fill="#FFFFFF" d="M38,40h-6c-0.552,0-1-0.448-1-1l0,0c0-0.552,0.448-1,1-1h6c0.552,0,1,0.448,1,1l0,0
	C39,39.552,38.552,40,38,40z"/>
</g></svg>