<svg xmlns="http://www.w3.org/2000/svg" xmlns:xlink="http://www.w3.org/1999/xlink" x="0px" y="0px" width="48px" height="48px" viewBox="0 0 48 48"><g >
<path fill="#E6E6E6" d="M41,3v41L7,44V3c0-1.105,0.895-2,2-2h30C40.105,1,41,1.895,41,3z"/>
<path fill="#A67C52" d="M31,31v5c0,0.552-0.448,1-1,1H18c-0.552,0-1-0.448-1-1v-5H2c-0.552,0-1,0.448-1,1v14c0,0.552,0.448,1,1,1h44
	c0.552,0,1-0.448,1-1V32c0-0.552-0.448-1-1-1H31z"/>
<path fill="#72C472" d="M24,27c-5.514,0-10-4.486-10-10S18.486,7,24,7s10,4.486,10,10S29.514,27,24,27z"/>
<path fill="#FFFFFF" d="M22,22c-0.256,0-0.512-0.098-0.707-0.293l-3-3c-0.391-0.391-0.391-1.023,0-1.414s1.023-0.391,1.414,0
	L22,19.586l6.293-6.293c0.391-0.391,1.023-0.391,1.414,0s0.391,1.023,0,1.414l-7,7C22.512,21.902,22.256,22,22,22z"/>
</g></svg>