<svg xmlns="http://www.w3.org/2000/svg" xmlns:xlink="http://www.w3.org/1999/xlink" x="0px" y="0px" width="48px" height="48px" viewBox="0 0 48 48"><g >
<path fill="#F9D44C" d="M17,8l-4-4H3C1.895,4,1,4.895,1,6v34c0,2.209,1.791,4,4,4h38c2.209,0,4-1.791,4-4V12c0-2.209-1.791-4-4-4H17
	z"/>
<path fill="#C7AA3D" d="M47,14H1V6c0-1.105,0.895-2,2-2h10l4,4h26c2.209,0,4,1.791,4,4V14z"/>
<path fill="#C7AA3D" d="M31.707,35.293l-4.109-4.109C28.474,30.015,29,28.57,29,27c0-3.859-3.141-7-7-7s-7,3.141-7,7s3.141,7,7,7
	c1.57,0,3.015-0.526,4.184-1.402l4.109,4.109C30.488,36.902,30.744,37,31,37s0.512-0.098,0.707-0.293
	C32.098,36.316,32.098,35.684,31.707,35.293z M17,27c0-2.757,2.243-5,5-5s5,2.243,5,5s-2.243,5-5,5S17,29.757,17,27z"/>
</g></svg>