<svg xmlns="http://www.w3.org/2000/svg" xmlns:xlink="http://www.w3.org/1999/xlink" x="0px" y="0px" width="48px" height="48px" viewBox="0 0 48 48"><g >
<path fill="#72C472" d="M41,47H7c-1.105,0-2-0.895-2-2V3c0-1.105,0.895-2,2-2l24,0l12,12v32C43,46.105,42.105,47,41,47z"/>
<path fill="#54A354" d="M31,1v10c0,1.105,0.895,2,2,2h10L31,1z"/>
<path fill="#FFFFFF" d="M24,31c-0.552,0-1-0.448-1-1v-6c0-0.552,0.448-1,1-1c2.664,0,5-2.336,5-5s-2.336-5-5-5
	c-1.853,0-3.859,1.395-4.667,3.243c-0.222,0.506-0.811,0.736-1.317,0.516c-0.506-0.221-0.737-0.811-0.516-1.317
	C18.625,12.868,21.358,11,24,11c3.794,0,7,3.206,7,7c0,3.456-2.659,6.423-6,6.925V30C25,30.552,24.552,31,24,31z"/>
<circle fill="#FFFFFF" cx="24" cy="36" r="2"/>
</g></svg>