<svg xmlns="http://www.w3.org/2000/svg" xmlns:xlink="http://www.w3.org/1999/xlink" x="0px" y="0px" width="48px" height="48px" viewBox="0 0 48 48"><g >
<polygon fill="#5F4025" points="2,32 9,18 39,18 46,32 24,42 "/>
<path fill="#A67C52" d="M24,43c-0.141,0-0.282-0.03-0.414-0.09l-22-10c-0.248-0.112-0.438-0.32-0.529-0.577
	c-0.09-0.256-0.073-0.538,0.048-0.781l7-14C8.275,17.214,8.621,17,9,17h30c0.379,0,0.725,0.214,0.895,0.553l7,14
	c0.122,0.243,0.139,0.525,0.048,0.781c-0.091,0.256-0.282,0.464-0.529,0.577l-22,10C24.282,42.97,24.141,43,24,43z M3.358,31.519
	L24,40.901l20.642-9.382L38.382,19H9.618L3.358,31.519z"/>
<path fill="#E6E6E6" d="M39,38H9c-0.552,0-1-0.448-1-1V2c0-0.552,0.448-1,1-1h30c0.552,0,1,0.448,1,1v35C40,37.552,39.552,38,39,38z
	"/>
<path fill="#A67C52" d="M31,31v5c0,0.552-0.448,1-1,1H18c-0.552,0-1-0.448-1-1v-5H2c-0.552,0-1,0.448-1,1v14c0,0.552,0.448,1,1,1h44
	c0.552,0,1-0.448,1-1V32c0-0.552-0.448-1-1-1H31z"/>
<path fill="#B3B3B3" d="M33,13H15c-0.552,0-1-0.448-1-1s0.448-1,1-1h18c0.552,0,1,0.448,1,1S33.552,13,33,13z"/>
<path fill="#B3B3B3" d="M33,22H15c-0.552,0-1-0.448-1-1s0.448-1,1-1h18c0.552,0,1,0.448,1,1S33.552,22,33,22z"/>
</g></svg>