<svg xmlns="http://www.w3.org/2000/svg" xmlns:xlink="http://www.w3.org/1999/xlink" x="0px" y="0px" width="48px" height="48px" viewBox="0 0 48 48"><g >
<path fill="#F9D44C" d="M41,47H7c-1.105,0-2-0.895-2-2V3c0-1.105,0.895-2,2-2l24,0l12,12v32C43,46.105,42.105,47,41,47z"/>
<path fill="#C7AA3D" d="M31,1v10c0,1.105,0.895,2,2,2h10L31,1z"/>
<path fill="#FFFFFF" d="M24,28c-0.553,0-1-0.448-1-1V13c0-0.552,0.447-1,1-1s1,0.448,1,1v14C25,27.552,24.553,28,24,28z"/>
<circle fill="#FFFFFF" cx="24" cy="33" r="2"/>
</g></svg>