<svg xmlns="http://www.w3.org/2000/svg" xmlns:xlink="http://www.w3.org/1999/xlink" x="0px" y="0px" width="48px" height="48px" viewBox="0 0 48 48"><g >
<path fill="#F9D44C" d="M17,8l-4-4H3C1.895,4,1,4.895,1,6v34c0,2.209,1.791,4,4,4h38c2.209,0,4-1.791,4-4V12c0-2.209-1.791-4-4-4H17
	z"/>
<path fill="#C7AA3D" d="M47,14H1V6c0-1.105,0.895-2,2-2h10l4,4h26c2.209,0,4,1.791,4,4V14z"/>
<path fill="#C7AA3D" d="M29.573,27.181l-10-7c-0.306-0.215-0.705-0.24-1.035-0.067C18.207,20.285,18,20.627,18,21v14
	c0,0.373,0.207,0.715,0.538,0.887C18.684,35.963,18.842,36,19,36c0.201,0,0.402-0.061,0.573-0.181l10-7
	C29.841,28.632,30,28.326,30,28S29.841,27.368,29.573,27.181z"/>
</g></svg>