<svg xmlns="http://www.w3.org/2000/svg" xmlns:xlink="http://www.w3.org/1999/xlink" x="0px" y="0px" width="48px" height="48px" viewBox="0 0 48 48"><g >
<path fill="#E6E6E6" d="M41,47H7c-1.105,0-2-0.895-2-2V3c0-1.105,0.895-2,2-2l24,0l12,12v32C43,46.105,42.105,47,41,47z"/>
<path fill="#B3B3B3" d="M31,1v10c0,1.105,0.895,2,2,2h10L31,1z"/>
<path fill="#EFD358" d="M28,37h-8c-0.379,0-0.725-0.214-0.895-0.553l-6-12c-0.178-0.355-0.128-0.782,0.126-1.088l10-12
	c0.38-0.455,1.156-0.455,1.536,0l10,12c0.254,0.306,0.304,0.732,0.126,1.088l-6,12C28.725,36.786,28.379,37,28,37z"/>
<path fill="#444444" d="M32,37H16c-0.552,0-1-0.447-1-1s0.448-1,1-1h16c0.552,0,1,0.447,1,1S32.552,37,32,37z"/>
<path fill="#C7AA3D" d="M25,22.277V12c0-0.553-0.448-1-1-1s-1,0.447-1,1v10.277c-0.595,0.346-1,0.984-1,1.723c0,1.105,0.895,2,2,2
	c1.105,0,2-0.895,2-2C26,23.262,25.595,22.624,25,22.277z"/>
</g></svg>