<svg xmlns="http://www.w3.org/2000/svg" xmlns:xlink="http://www.w3.org/1999/xlink" x="0px" y="0px" width="48px" height="48px" viewBox="0 0 48 48"><g >
<path fill="#E6E6E6" d="M47,3v40c0,2.209-1.791,4-4,4H5l4-15V3c0-1.105,0.895-2,2-2h34C46.105,1,47,1.895,47,3z"/>
<path fill="#B3B3B3" d="M38,13h-6c-0.553,0-1-0.448-1-1s0.447-1,1-1h6c0.553,0,1,0.448,1,1S38.553,13,38,13z"/>
<path fill="#B3B3B3" d="M38,21h-6c-0.553,0-1-0.448-1-1s0.447-1,1-1h6c0.553,0,1,0.448,1,1S38.553,21,38,21z"/>
<path fill="#B3B3B3" d="M38,29H18c-0.553,0-1-0.448-1-1s0.447-1,1-1h20c0.553,0,1,0.448,1,1S38.553,29,38,29z"/>
<path fill="#B3B3B3" d="M38,37H18c-0.553,0-1-0.448-1-1s0.447-1,1-1h20c0.553,0,1,0.448,1,1S38.553,37,38,37z"/>
<path fill="#43A6DD" d="M26,21h-8c-0.553,0-1-0.448-1-1v-8c0-0.552,0.447-1,1-1h8c0.553,0,1,0.448,1,1v8C27,20.552,26.553,21,26,21z
	"/>
<path fill="#B3B3B3" d="M5,47L5,47c2.209,0,4-1.791,4-4V30H2c-0.552,0-1,0.448-1,1v12C1,45.209,2.791,47,5,47z"/>
</g></svg>