<svg xmlns="http://www.w3.org/2000/svg" xmlns:xlink="http://www.w3.org/1999/xlink" x="0px" y="0px" width="48px" height="48px" viewBox="0 0 48 48"><g >
<path fill="#B3B3B3" d="M42,41H12c-1.105,0-2-0.895-2-2V3c0-1.105,0.895-2,2-2h30c1.105,0,2,0.895,2,2v36C44,40.105,43.105,41,42,41
	z"/>
<path fill="#E6E6E6" d="M36,47H6c-1.105,0-2-0.895-2-2V9c0-1.105,0.895-2,2-2h30c1.105,0,2,0.895,2,2v36C38,46.105,37.105,47,36,47z
	"/>
<path fill="#B3B3B3" d="M29,19H13c-0.552,0-1-0.448-1-1s0.448-1,1-1h16c0.552,0,1,0.448,1,1S29.552,19,29,19z"/>
<path fill="#B3B3B3" d="M29,27H13c-0.552,0-1-0.448-1-1s0.448-1,1-1h16c0.552,0,1,0.448,1,1S29.552,27,29,27z"/>
<path fill="#B3B3B3" d="M21,35h-8c-0.552,0-1-0.448-1-1s0.448-1,1-1h8c0.552,0,1,0.448,1,1S21.552,35,21,35z"/>
</g></svg>