<svg xmlns="http://www.w3.org/2000/svg" xmlns:xlink="http://www.w3.org/1999/xlink" x="0px" y="0px" width="48px" height="48px" viewBox="0 0 48 48"><g >
<path fill="#F9D44C" d="M17,8l-4-4H3C1.895,4,1,4.895,1,6v34c0,2.209,1.791,4,4,4h38c2.209,0,4-1.791,4-4V12c0-2.209-1.791-4-4-4H17
	z"/>
<path fill="#C7AA3D" d="M47,14H1V6c0-1.105,0.895-2,2-2h10l4,4h26c2.209,0,4,1.791,4,4V14z"/>
<path fill="#C7AA3D" d="M30.707,30.293c-0.391-0.391-1.023-0.391-1.414,0L25,34.586V21c0-0.553-0.447-1-1-1s-1,0.447-1,1v13.586
	l-4.293-4.293c-0.391-0.391-1.023-0.391-1.414,0s-0.391,1.023,0,1.414l6,6C23.488,37.902,23.744,38,24,38s0.512-0.098,0.707-0.293
	l6-6C31.098,31.316,31.098,30.684,30.707,30.293z"/>
</g></svg>