<svg xmlns="http://www.w3.org/2000/svg" xmlns:xlink="http://www.w3.org/1999/xlink" x="0px" y="0px" width="48px" height="48px" viewBox="0 0 48 48"><g >
<path fill="#BFDEE0" d="M41,47H7c-1.105,0-2-0.895-2-2V3c0-1.105,0.895-2,2-2l24,0l12,12v32C43,46.105,42.105,47,41,47z"/>
<path fill="#76B5B5" d="M31,1v10c0,1.105,0.895,2,2,2h10L31,1z"/>
<path fill="#76B5B5" d="M34,22H14c-0.553,0-1-0.448-1-1s0.447-1,1-1h20c0.553,0,1,0.448,1,1S34.553,22,34,22z"/>
<path fill="#335262" d="M23,24v-6c0-0.552,0.448-1,1-1h6c0.552,0,1,0.448,1,1v6c0,0.552-0.448,1-1,1h-6C23.448,25,23,24.552,23,24z"/>
<path fill="#76B5B5" d="M34,34H14c-0.553,0-1-0.448-1-1s0.447-1,1-1h20c0.553,0,1,0.448,1,1S34.553,34,34,34z"/>
<path fill="#335262" d="M17,36v-6c0-0.552,0.448-1,1-1h6c0.552,0,1,0.448,1,1v6c0,0.552-0.448,1-1,1h-6C17.448,37,17,36.552,17,36z"/>
</g></svg>