<svg xmlns="http://www.w3.org/2000/svg" xmlns:xlink="http://www.w3.org/1999/xlink" x="0px" y="0px" width="48px" height="48px" viewBox="0 0 48 48"><g >
<path fill="#F9D44C" d="M17,5l-4-4H3C1.895,1,1,1.895,1,3v34c0,2.209,1.791,4,4,4h38c2.209,0,4-1.791,4-4V9c0-2.209-1.791-4-4-4H17z
	"/>
<path fill="#C7AA3D" d="M47,11H1V3c0-1.105,0.895-2,2-2h10l4,4h26c2.209,0,4,1.791,4,4V11z"/>
<circle fill="#72C472" cx="35" cy="39" r="8"/>
<path fill="#FFFFFF" d="M38,38h-2v-2c0-0.552-0.448-1-1-1s-1,0.448-1,1v2h-2c-0.552,0-1,0.448-1,1s0.448,1,1,1h2v2
	c0,0.552,0.448,1,1,1s1-0.448,1-1v-2h2c0.552,0,1-0.448,1-1S38.552,38,38,38z"/>
</g></svg>