<svg xmlns="http://www.w3.org/2000/svg" xmlns:xlink="http://www.w3.org/1999/xlink" x="0px" y="0px" width="48px" height="48px" viewBox="0 0 48 48"><g >
<path fill="#F9D44C" d="M17,8l-4-4H3C1.895,4,1,4.895,1,6v34c0,2.209,1.791,4,4,4h38c2.209,0,4-1.791,4-4V12c0-2.209-1.791-4-4-4H17
	z"/>
<path fill="#C7AA3D" d="M47,14H1V6c0-1.105,0.895-2,2-2h10l4,4h26c2.209,0,4,1.791,4,4V14z"/>
<path fill="#C7AA3D" d="M22,34h-5c-2.757,0-5-2.243-5-5s2.243-5,5-5h2c0.553,0,1,0.447,1,1s-0.447,1-1,1h-2c-1.654,0-3,1.346-3,3
	s1.346,3,3,3h5c1.654,0,3-1.346,3-3c0-0.553,0.447-1,1-1s1,0.447,1,1C27,31.757,24.757,34,22,34z"/>
<path fill="#C7AA3D" d="M31,34h-2c-0.553,0-1-0.447-1-1s0.447-1,1-1h2c1.654,0,3-1.346,3-3s-1.346-3-3-3h-5c-1.654,0-3,1.346-3,3
	c0,0.553-0.447,1-1,1s-1-0.447-1-1c0-2.757,2.243-5,5-5h5c2.757,0,5,2.243,5,5S33.757,34,31,34z"/>
</g></svg>