<svg xmlns="http://www.w3.org/2000/svg" xmlns:xlink="http://www.w3.org/1999/xlink" x="0px" y="0px" width="48px" height="48px" viewBox="0 0 48 48"><g >
<path fill="#E6E6E6" d="M43,3v42c0,1.105-0.895,2-2,2L7,47c-1.105,0-2-0.895-2-2V3c0-1.105,0.895-2,2-2h34C42.105,1,43,1.895,43,3z"/>
<path fill="#B3B3B3" d="M34,15H14c-0.552,0-1-0.448-1-1s0.448-1,1-1h20c0.552,0,1,0.448,1,1S34.552,15,34,15z"/>
<path fill="#B3B3B3" d="M34,25H14c-0.552,0-1-0.448-1-1s0.448-1,1-1h20c0.552,0,1,0.448,1,1S34.552,25,34,25z"/>
<path fill="#B3B3B3" d="M22,35h-8c-0.552,0-1-0.448-1-1s0.448-1,1-1h8c0.552,0,1,0.448,1,1S22.552,35,22,35z"/>
</g></svg>