<svg xmlns="http://www.w3.org/2000/svg" xmlns:xlink="http://www.w3.org/1999/xlink" x="0px" y="0px" width="48px" height="48px" viewBox="0 0 48 48"><g >
<path fill="#F9D44C" d="M17,8l-4-4H3C1.895,4,1,4.895,1,6v34c0,2.209,1.791,4,4,4h38c2.209,0,4-1.791,4-4V12c0-2.209-1.791-4-4-4H17
	z"/>
<path fill="#C7AA3D" d="M47,14H1V6c0-1.105,0.895-2,2-2h10l4,4h26c2.209,0,4,1.791,4,4V14z"/>
<path fill="#C7AA3D" d="M33.091,27.182h-1c-0.636,0-1.182-0.364-1.455-0.909C30.364,25.727,30.545,25,31,24.636L31.636,24
	c0.364-0.364,0.364-0.909,0-1.273l-1.273-1.273c-0.364-0.364-0.909-0.364-1.273,0l-0.636,0.636
	c-0.455,0.455-1.091,0.545-1.636,0.364c-0.545-0.273-0.909-0.818-0.909-1.455v-1.091C25.909,19.364,25.545,19,25,19h-1.818
	c-0.545,0-0.909,0.364-0.909,0.909v1c0,0.636-0.364,1.182-0.909,1.455c-0.727,0.182-1.364,0-1.818-0.364l-0.727-0.727
	c-0.364-0.364-0.909-0.364-1.273,0l-1.273,1.273c-0.364,0.364-0.364,0.909,0,1.273l0.636,0.636c0.455,0.455,0.545,1.091,0.364,1.636
	C17,26.636,16.455,27,15.818,27h-0.909C14.364,27,14,27.364,14,27.909v1.818c0,0.545,0.364,0.909,0.909,0.909h1
	c0.636,0,1.182,0.364,1.455,0.909c0.273,0.545,0.091,1.273-0.364,1.636l-0.636,0.636c-0.364,0.364-0.364,0.909,0,1.273l1.273,1.273
	c0.364,0.364,0.909,0.364,1.273,0l0.636-0.636c0.455-0.455,1.091-0.545,1.636-0.364c0.545,0.273,0.909,0.818,0.909,1.455v1.273
	C22.091,38.636,22.455,39,23,39h1.818c0.545,0,0.909-0.364,0.909-0.909v-1c0-0.636,0.364-1.182,0.909-1.455s1.273-0.091,1.636,0.364
	l0.636,0.636c0.364,0.364,0.909,0.364,1.273,0l1.273-1.273c0.364-0.364,0.364-0.909,0-1.273l-0.636-0.636
	c-0.455-0.455-0.545-1.091-0.364-1.636c0.273-0.545,0.818-0.909,1.455-0.909h1.182C33.636,30.909,34,30.545,34,30v-1.818
	C34,27.545,33.636,27.182,33.091,27.182z M24,32c-1.657,0-3-1.343-3-3s1.343-3,3-3s3,1.343,3,3S25.657,32,24,32z"/>
</g></svg>