<svg xmlns="http://www.w3.org/2000/svg" xmlns:xlink="http://www.w3.org/1999/xlink" x="0px" y="0px" width="48px" height="48px" viewBox="0 0 48 48"><g >
<path fill="#E6E6E6" d="M24,8.964L2.263,3.035c-0.297-0.081-0.622-0.019-0.87,0.17C1.146,3.395,1,3.688,1,4v34
	c0,0.451,0.302,0.846,0.737,0.965l22,6C23.823,44.988,23.912,45,24,45V8.964z"/>
<path fill="#C6C6C6" d="M46.607,3.205c-0.248-0.188-0.57-0.25-0.87-0.17L24,8.964V45c0.088,0,0.177-0.012,0.263-0.035l22-6
	C46.698,38.846,47,38.451,47,38V4C47,3.688,46.854,3.395,46.607,3.205z"/>
</g></svg>