<svg xmlns="http://www.w3.org/2000/svg" xmlns:xlink="http://www.w3.org/1999/xlink" x="0px" y="0px" width="48px" height="48px" viewBox="0 0 48 48"><g >
<path fill="#F9D44C" d="M17,8l-4-4H3C1.895,4,1,4.895,1,6v34c0,2.209,1.791,4,4,4h38c2.209,0,4-1.791,4-4V12c0-2.209-1.791-4-4-4H17
	z"/>
<path fill="#C7AA3D" d="M47,14H1V6c0-1.105,0.895-2,2-2h10l4,4h26c2.209,0,4,1.791,4,4V14z"/>
<path fill="#C7AA3D" d="M32.646,19.237c-0.224-0.189-0.521-0.271-0.811-0.223l-12,2C19.354,21.094,19,21.511,19,22v11.184
	C18.686,33.072,18.352,33,18,33c-1.655,0-3,1.346-3,3s1.345,3,3,3s3-1.346,3-3v-8.153l10-1.667v5.004C30.686,31.072,30.352,31,30,31
	c-1.655,0-3,1.346-3,3s1.345,3,3,3s3-1.346,3-3V20C33,19.706,32.871,19.427,32.646,19.237z M21,25.82v-2.972l10-1.667v2.972
	L21,25.82z"/>
</g></svg>