<svg xmlns="http://www.w3.org/2000/svg" xmlns:xlink="http://www.w3.org/1999/xlink" x="0px" y="0px" width="48px" height="48px" viewBox="0 0 48 48"><g >
<path fill="#43A6DD" d="M41,47H7c-1.105,0-2-0.895-2-2V3c0-1.105,0.895-2,2-2l24,0l12,12v32C43,46.105,42.105,47,41,47z"/>
<path fill="#2A8FBC" d="M31,1v10c0,1.105,0.895,2,2,2h10L31,1z"/>
<circle fill="#FFFFFF" cx="21.5" cy="20.5" r="2.5"/>
<path fill="#FFFFFF" d="M32.768,30.36l-5-6c-0.38-0.456-1.156-0.456-1.536,0l-4.191,5.029L19.8,26.4c-0.377-0.504-1.223-0.504-1.6,0
	l-3,4c-0.228,0.303-0.264,0.708-0.095,1.047S15.621,32,16,32h16c0.388,0,0.741-0.225,0.906-0.576
	C33.07,31.073,33.017,30.658,32.768,30.36z"/>
</g></svg>