<svg xmlns="http://www.w3.org/2000/svg" xmlns:xlink="http://www.w3.org/1999/xlink" x="0px" y="0px" width="48px" height="48px" viewBox="0 0 48 48"><g >
<path fill="#F9D44C" d="M17,8l-4-4H3C1.895,4,1,4.895,1,6v34c0,2.209,1.791,4,4,4h38c2.209,0,4-1.791,4-4V12c0-2.209-1.791-4-4-4H17
	z"/>
<path fill="#C7AA3D" d="M47,14H1V6c0-1.105,0.895-2,2-2h10l4,4h26c2.209,0,4,1.791,4,4V14z"/>
<path fill="#C7AA3D" d="M25,37h-2c-0.552,0-1-0.448-1-1V22c0-0.552,0.448-1,1-1h2c0.552,0,1,0.448,1,1v14C26,36.552,25.552,37,25,37
	z"/>
<path fill="#C7AA3D" d="M17,37h-2c-0.552,0-1-0.448-1-1v-4c0-0.552,0.448-1,1-1h2c0.552,0,1,0.448,1,1v4C18,36.552,17.552,37,17,37z
	"/>
<path fill="#C7AA3D" d="M33,37h-2c-0.552,0-1-0.448-1-1v-8c0-0.552,0.448-1,1-1h2c0.552,0,1,0.448,1,1v8C34,36.552,33.552,37,33,37z
	"/>
</g></svg>