<?xml version="1.0" encoding="utf-8"?>
<!-- Generator: Adobe Illustrator 20.1.0, SVG Export Plug-In . SVG Version: 6.00 Build 0)  -->
<!DOCTYPE svg PUBLIC "-//W3C//DTD SVG 1.1//EN" "http://www.w3.org/Graphics/SVG/1.1/DTD/svg11.dtd">
<svg version="1.1" id="Layer_1" xmlns="http://www.w3.org/2000/svg" xmlns:xlink="http://www.w3.org/1999/xlink" x="0px" y="0px"
	 width="64px" height="64px" viewBox="0 0 64 64" enable-background="new 0 0 64 64" xml:space="preserve">
<path d="M30,53v4.036c-7.995,0.255-15.852,1.91-16.208,1.986c-0.54,0.115-0.885,0.646-0.77,1.187c0.1,0.47,0.515,0.792,0.977,0.792
	c0.069,0,0.139-0.007,0.209-0.022C14.301,60.958,23.578,59,32,59c8.415,0,17.699,1.958,17.792,1.978
	c0.538,0.116,1.071-0.229,1.187-0.77s-0.229-1.071-0.77-1.187c-0.357-0.076-8.214-1.731-16.208-1.986V53H30z"/>
<path d="M61,3H3C1.895,3,1,3.895,1,5v44c0,1.105,0.895,2,2,2h58c1.105,0,2-0.895,2-2V5C63,3.895,62.105,3,61,3z M59,43
	c0,0.552-0.448,1-1,1H6c-0.552,0-1-0.448-1-1V8c0-0.552,0.448-1,1-1h52c0.552,0,1,0.448,1,1V43z"/>
</svg>
