<?xml version="1.0" encoding="utf-8"?>
<!-- Generator: Adobe Illustrator 20.1.0, SVG Export Plug-In . SVG Version: 6.00 Build 0)  -->
<!DOCTYPE svg PUBLIC "-//W3C//DTD SVG 1.1//EN" "http://www.w3.org/Graphics/SVG/1.1/DTD/svg11.dtd">
<svg version="1.1" id="Layer_1" xmlns="http://www.w3.org/2000/svg" xmlns:xlink="http://www.w3.org/1999/xlink" x="0px" y="0px"
	 width="64px" height="64px" viewBox="0 0 64 64" enable-background="new 0 0 64 64" xml:space="preserve">
<path d="M48,39c-6.627,0-12,5.373-12,12s5.373,12,12,12s12-5.373,12-12S54.627,39,48,39z M53,52H43c-0.552,0-1-0.448-1-1
	s0.448-1,1-1h10c0.552,0,1,0.448,1,1S53.552,52,53,52z"/>
<path d="M5,58c0,2.757,2.243,5,5,5h30.816c-2.966-1.78-5.221-4.617-6.229-8H10c-0.553,0-1-0.448-1-1V12c0-0.552,0.447-1,1-1h34
	c0.553,0,1,0.448,1,1v25.33c0.967-0.211,1.969-0.33,3-0.33c0.338,0,0.668,0.027,1,0.05V6c0-2.757-2.243-5-5-5H10
	C7.243,1,5,3.243,5,6V58z M27,4c1.105,0,2,0.895,2,2s-0.895,2-2,2s-2-0.895-2-2S25.895,4,27,4z"/>
</svg>
