<?xml version="1.0" encoding="utf-8"?>
<!-- Generator: Adobe Illustrator 20.1.0, SVG Export Plug-In . SVG Version: 6.00 Build 0)  -->
<!DOCTYPE svg PUBLIC "-//W3C//DTD SVG 1.1//EN" "http://www.w3.org/Graphics/SVG/1.1/DTD/svg11.dtd">
<svg version="1.1" id="Layer_1" xmlns="http://www.w3.org/2000/svg" xmlns:xlink="http://www.w3.org/1999/xlink" x="0px" y="0px"
	 width="64px" height="64px" viewBox="0 0 64 64" enable-background="new 0 0 64 64" xml:space="preserve">
<path d="M35,10c0,0.552,0.448,1,1,1c4.962,0,9,4.038,9,9c0,0.552,0.448,1,1,1s1-0.448,1-1c0-6.065-4.935-11-11-11
	C35.448,9,35,9.448,35,10z"/>
<path d="M53,20c0,0.552,0.448,1,1,1s1-0.448,1-1C55,9.523,46.477,1,36,1c-0.552,0-1,0.448-1,1s0.448,1,1,1C45.374,3,53,10.626,53,20
	z"/>
<path d="M9,22v36c0,2.757,2.243,5,5,5h20c2.757,0,5-2.243,5-5V22c0-2.757-2.243-5-5-5H14C11.243,17,9,19.243,9,22z M24,28
	c2.209,0,4,1.791,4,4c0,2.209-1.791,4-4,4s-4-1.791-4-4C20,29.791,21.791,28,24,28z"/>
</svg>
