<?xml version="1.0" encoding="utf-8"?>
<!-- Generator: Adobe Illustrator 20.1.0, SVG Export Plug-In . SVG Version: 6.00 Build 0)  -->
<!DOCTYPE svg PUBLIC "-//W3C//DTD SVG 1.1//EN" "http://www.w3.org/Graphics/SVG/1.1/DTD/svg11.dtd">
<svg version="1.1" id="Layer_1" xmlns="http://www.w3.org/2000/svg" xmlns:xlink="http://www.w3.org/1999/xlink" x="0px" y="0px"
	 width="64px" height="64px" viewBox="0 0 64 64" enable-background="new 0 0 64 64" xml:space="preserve">
<path d="M61,41H3c-1.105,0-2,0.895-2,2v18c0,1.105,0.895,2,2,2h58c1.105,0,2-0.895,2-2V43C63,41.895,62.105,41,61,41z M50,53H14
	c-0.553,0-1-0.448-1-1s0.447-1,1-1h36c0.553,0,1,0.448,1,1S50.553,53,50,53z"/>
<path d="M5,28c0,3.917,0.845,7.638,2.352,11h49.296C58.155,35.638,59,31.917,59,28C59,13.112,46.888,1,32,1S5,13.112,5,28z M32,22
	c3.314,0,6,2.686,6,6s-2.686,6-6,6s-6-2.686-6-6S28.686,22,32,22z"/>
</svg>
