<?xml version="1.0" encoding="utf-8"?>
<!-- Generator: Adobe Illustrator 20.1.0, SVG Export Plug-In . SVG Version: 6.00 Build 0)  -->
<!DOCTYPE svg PUBLIC "-//W3C//DTD SVG 1.1//EN" "http://www.w3.org/Graphics/SVG/1.1/DTD/svg11.dtd">
<svg version="1.1" id="Layer_1" xmlns="http://www.w3.org/2000/svg" xmlns:xlink="http://www.w3.org/1999/xlink" x="0px" y="0px"
	 width="64px" height="64px" viewBox="0 0 64 64" enable-background="new 0 0 64 64" xml:space="preserve">
<path d="M38,1c-0.552,0-1,0.448-1,1s0.448,1,1,1c8.271,0,15,6.729,15,15c0,0.552,0.448,1,1,1s1-0.448,1-1C55,8.626,47.374,1,38,1z"
	/>
<path d="M11,46c0-0.552-0.448-1-1-1s-1,0.448-1,1c0,9.374,7.626,17,17,17c0.552,0,1-0.448,1-1s-0.448-1-1-1
	C17.729,61,11,54.271,11,46z"/>
<path d="M5,39h20c2.209,0,4-1.791,4-4V5c0-2.209-1.791-4-4-4H5C2.791,1,1,2.791,1,5v30C1,37.209,2.791,39,5,39z M3,7
	c0-0.552,0.448-1,1-1h22c0.552,0,1,0.448,1,1v24c0,0.552-0.448,1-1,1H4c-0.552,0-1-0.448-1-1V7z"/>
<path d="M59,25H39c-2.209,0-4,1.791-4,4v30c0,2.209,1.791,4,4,4h20c2.209,0,4-1.791,4-4V29C63,26.791,61.209,25,59,25z M61,55
	c0,0.552-0.448,1-1,1H38c-0.552,0-1-0.448-1-1V31c0-0.552,0.448-1,1-1h22c0.552,0,1,0.448,1,1V55z"/>
</svg>
