<?xml version="1.0" encoding="utf-8"?>
<!-- Generator: Adobe Illustrator 20.1.0, SVG Export Plug-In . SVG Version: 6.00 Build 0)  -->
<!DOCTYPE svg PUBLIC "-//W3C//DTD SVG 1.1//EN" "http://www.w3.org/Graphics/SVG/1.1/DTD/svg11.dtd">
<svg version="1.1" id="Layer_1" xmlns="http://www.w3.org/2000/svg" xmlns:xlink="http://www.w3.org/1999/xlink" x="0px" y="0px"
	 width="64px" height="64px" viewBox="0 0 64 64" enable-background="new 0 0 64 64" xml:space="preserve">
<path d="M49,33c0.682,0,1.346,0.069,2,0.17V6c0-2.757-2.243-5-5-5H12C9.243,1,7,3.243,7,6v52c0,2.757,2.243,5,5,5h33.784
	c-1.524-1.608-4.207-4.621-6.38-8H12c-0.553,0-1-0.448-1-1V12c0-0.552,0.447-1,1-1h34c0.553,0,1,0.448,1,1v21.17
	C47.654,33.069,48.318,33,49,33z M29,8c-1.105,0-2-0.895-2-2s0.895-2,2-2s2,0.895,2,2S30.105,8,29,8z"/>
<path d="M49,35c-6.065,0-11,4.935-11,11c0,6.469,9.877,16.296,10.297,16.711C48.492,62.904,48.746,63,49,63s0.508-0.096,0.703-0.289
	C50.123,62.296,60,52.469,60,46C60,39.935,55.065,35,49,35z M49,49c-1.657,0-3-1.343-3-3c0-1.657,1.343-3,3-3c1.657,0,3,1.343,3,3
	C52,47.657,50.657,49,49,49z"/>
</svg>
