<?xml version="1.0" encoding="utf-8"?>
<!-- Generator: Adobe Illustrator 20.1.0, SVG Export Plug-In . SVG Version: 6.00 Build 0)  -->
<!DOCTYPE svg PUBLIC "-//W3C//DTD SVG 1.1//EN" "http://www.w3.org/Graphics/SVG/1.1/DTD/svg11.dtd">
<svg version="1.1" id="Layer_1" xmlns="http://www.w3.org/2000/svg" xmlns:xlink="http://www.w3.org/1999/xlink" x="0px" y="0px"
	 width="64px" height="64px" viewBox="0 0 64 64" enable-background="new 0 0 64 64" xml:space="preserve">
<path d="M36,51c0,6.627,5.373,12,12,12s12-5.373,12-12s-5.373-12-12-12S36,44.373,36,51z M49,44v6h6c0.553,0,1,0.448,1,1
	s-0.447,1-1,1h-7c-0.553,0-1-0.448-1-1v-7c0-0.552,0.447-1,1-1S49,43.448,49,44z"/>
<path d="M44,1H10C7.243,1,5,3.243,5,6v52c0,2.757,2.243,5,5,5h30.816c-2.966-1.78-5.221-4.617-6.229-8H10c-0.553,0-1-0.448-1-1V12
	c0-0.552,0.447-1,1-1h34c0.553,0,1,0.448,1,1v25.33c0.967-0.211,1.969-0.33,3-0.33c0.338,0,0.668,0.027,1,0.05V6
	C49,3.243,46.757,1,44,1z M27,8c-1.105,0-2-0.895-2-2s0.895-2,2-2s2,0.895,2,2S28.105,8,27,8z"/>
</svg>
