<?xml version="1.0" encoding="utf-8"?>
<!-- Generator: Adobe Illustrator 20.1.0, SVG Export Plug-In . SVG Version: 6.00 Build 0)  -->
<!DOCTYPE svg PUBLIC "-//W3C//DTD SVG 1.1//EN" "http://www.w3.org/Graphics/SVG/1.1/DTD/svg11.dtd">
<svg version="1.1" id="Layer_1" xmlns="http://www.w3.org/2000/svg" xmlns:xlink="http://www.w3.org/1999/xlink" x="0px" y="0px"
	 width="64px" height="64px" viewBox="0 0 64 64" enable-background="new 0 0 64 64" xml:space="preserve">
<path d="M11,30c-0.552,0-1,0.448-1,1v15c0,3.86,3.14,7,7,7h4c0.552,0,1-0.448,1-1V31c0-0.552-0.448-1-1-1H11z"/>
<path d="M43,53h4c3.86,0,7-3.14,7-7V31c0-0.552-0.448-1-1-1H43c-0.552,0-1,0.448-1,1v21C42,52.552,42.448,53,43,53z"/>
<path d="M43,62h1c8.271,0,15-6.729,15-15V28C59,13.112,46.888,1,32,1S5,13.112,5,28v10c0,0.552,0.448,1,1,1s1-0.448,1-1V28
	C7,14.215,18.215,3,32,3s25,11.215,25,25v19c0,7.168-5.832,13-13,13h-1c-0.552,0-1,0.448-1,1S42.448,62,43,62z"/>
<path d="M31,59c-1.104,0-2,0.896-2,2s0.896,2,2,2h6c1.104,0,2-0.896,2-2s-0.896-2-2-2H31z"/>
</svg>
