<?xml version="1.0" encoding="utf-8"?>
<!-- Generator: Adobe Illustrator 20.1.0, SVG Export Plug-In . SVG Version: 6.00 Build 0)  -->
<!DOCTYPE svg PUBLIC "-//W3C//DTD SVG 1.1//EN" "http://www.w3.org/Graphics/SVG/1.1/DTD/svg11.dtd">
<svg version="1.1" id="Layer_1" xmlns="http://www.w3.org/2000/svg" xmlns:xlink="http://www.w3.org/1999/xlink" x="0px" y="0px"
	 width="64px" height="64px" viewBox="0 0 64 64" enable-background="new 0 0 64 64" xml:space="preserve">
<path d="M32,59c0.239,0,0.479-0.085,0.669-0.257l10-9c0.308-0.277,0.413-0.715,0.265-1.102C42.785,48.255,42.414,48,42,48H22
	c-0.414,0-0.785,0.255-0.934,0.642c-0.148,0.387-0.043,0.825,0.265,1.102l10,9C31.521,58.915,31.761,59,32,59z"/>
<path d="M62,5H2C1.448,5,1,5.447,1,6v32c0,0.553,0.448,1,1,1h60c0.552,0,1-0.447,1-1V6C63,5.447,62.552,5,62,5z M22,15
	c0-0.552,0.448-1,1-1h6c0.552,0,1,0.448,1,1v2c0,0.552-0.448,1-1,1h-6c-0.552,0-1-0.448-1-1V15z M18,29c0,0.552-0.448,1-1,1h-6
	c-0.552,0-1-0.448-1-1v-2c0-0.552,0.448-1,1-1h6c0.552,0,1,0.448,1,1V29z M18,17c0,0.552-0.448,1-1,1h-6c-0.552,0-1-0.448-1-1v-2
	c0-0.552,0.448-1,1-1h6c0.552,0,1,0.448,1,1V17z M42,29c0,0.552-0.448,1-1,1H23c-0.552,0-1-0.448-1-1v-2c0-0.552,0.448-1,1-1h18
	c0.552,0,1,0.448,1,1V29z M42,17c0,0.552-0.448,1-1,1h-6c-0.552,0-1-0.448-1-1v-2c0-0.552,0.448-1,1-1h6c0.552,0,1,0.448,1,1V17z
	 M54,29c0,0.552-0.448,1-1,1h-6c-0.552,0-1-0.448-1-1v-2c0-0.552,0.448-1,1-1h6c0.552,0,1,0.448,1,1V29z M54,17c0,0.552-0.448,1-1,1
	h-6c-0.552,0-1-0.448-1-1v-2c0-0.552,0.448-1,1-1h6c0.552,0,1,0.448,1,1V17z"/>
</svg>
