<?xml version="1.0" encoding="utf-8"?>
<!-- Generator: Adobe Illustrator 20.1.0, SVG Export Plug-In . SVG Version: 6.00 Build 0)  -->
<!DOCTYPE svg PUBLIC "-//W3C//DTD SVG 1.1//EN" "http://www.w3.org/Graphics/SVG/1.1/DTD/svg11.dtd">
<svg version="1.1" id="Layer_1" xmlns="http://www.w3.org/2000/svg" xmlns:xlink="http://www.w3.org/1999/xlink" x="0px" y="0px"
	 width="64px" height="64px" viewBox="0 0 64 64" enable-background="new 0 0 64 64" xml:space="preserve">
<path d="M5,61h54c1.105,0,2-0.895,2-2V5c0-1.105-0.895-2-2-2H5C3.895,3,3,3.895,3,5v54C3,60.105,3.895,61,5,61z M45,17
	c0-0.552,0.447-1,1-1s1,0.448,1,1v10c0,0.552-0.447,1-1,1s-1-0.448-1-1V17z M23,42c0-4.962,4.037-9,9-9s9,4.038,9,9v6
	c0,0.552-0.447,1-1,1H24c-0.553,0-1-0.448-1-1V42z M17,17c0-0.552,0.447-1,1-1s1,0.448,1,1v10c0,0.552-0.447,1-1,1s-1-0.448-1-1V17z
	"/>
</svg>
