<?xml version="1.0" encoding="utf-8"?>
<!-- Generator: Adobe Illustrator 20.1.0, SVG Export Plug-In . SVG Version: 6.00 Build 0)  -->
<!DOCTYPE svg PUBLIC "-//W3C//DTD SVG 1.1//EN" "http://www.w3.org/Graphics/SVG/1.1/DTD/svg11.dtd">
<svg version="1.1" id="Layer_1" xmlns="http://www.w3.org/2000/svg" xmlns:xlink="http://www.w3.org/1999/xlink" x="0px" y="0px"
	 width="64px" height="64px" viewBox="0 0 64 64" enable-background="new 0 0 64 64" xml:space="preserve">
<path d="M6,54h52c2.757,0,5-2.243,5-5V15c0-2.757-2.243-5-5-5H6c-2.757,0-5,2.243-5,5v34C1,51.757,3.243,54,6,54z M15,15
	c0-0.552,0.448-1,1-1h40c0.552,0,1,0.448,1,1v34c0,0.552-0.448,1-1,1H16c-0.552,0-1-0.448-1-1V15z M8,29c1.657,0,3,1.343,3,3
	s-1.343,3-3,3s-3-1.343-3-3S6.343,29,8,29z"/>
</svg>
