<?xml version="1.0" encoding="utf-8"?>
<!-- Generator: Adobe Illustrator 20.1.0, SVG Export Plug-In . SVG Version: 6.00 Build 0)  -->
<!DOCTYPE svg PUBLIC "-//W3C//DTD SVG 1.1//EN" "http://www.w3.org/Graphics/SVG/1.1/DTD/svg11.dtd">
<svg version="1.1" id="Layer_1" xmlns="http://www.w3.org/2000/svg" xmlns:xlink="http://www.w3.org/1999/xlink" x="0px" y="0px"
	 width="64px" height="64px" viewBox="0 0 64 64" enable-background="new 0 0 64 64" xml:space="preserve">
<path d="M15,63h34c2.757,0,5-2.243,5-5V6c0-2.757-2.243-5-5-5H15c-2.757,0-5,2.243-5,5v52C10,60.757,12.243,63,15,63z M14,8
	c0-0.552,0.448-1,1-1h34c0.552,0,1,0.448,1,1v46c0,0.552-0.448,1-1,1H15c-0.552,0-1-0.448-1-1V8z"/>
</svg>
