<?xml version="1.0" encoding="utf-8"?>
<!-- Generator: Adobe Illustrator 20.1.0, SVG Export Plug-In . SVG Version: 6.00 Build 0)  -->
<!DOCTYPE svg PUBLIC "-//W3C//DTD SVG 1.1//EN" "http://www.w3.org/Graphics/SVG/1.1/DTD/svg11.dtd">
<svg version="1.1" id="Layer_1" xmlns="http://www.w3.org/2000/svg" xmlns:xlink="http://www.w3.org/1999/xlink" x="0px" y="0px"
	 width="64px" height="64px" viewBox="0 0 64 64" enable-background="new 0 0 64 64" xml:space="preserve">
<path d="M1,47c0,7.796,5.608,14.299,13,15.708V31.292C6.608,32.701,1,39.204,1,47z"/>
<path d="M20.198,31.32C19.147,31.107,18.071,31,17,31c-0.338,0-0.668,0.03-1,0.051v31.899C16.332,62.97,16.662,63,17,63
	c1.071,0,2.147-0.107,3.198-0.32C20.665,62.585,21,62.175,21,61.699V32.301C21,31.825,20.665,31.415,20.198,31.32z"/>
<path d="M56,23v8.43c1.485,0.859,2.829,1.92,4,3.145V23c0-12.131-9.869-22-22-22H26C13.869,1,4,10.869,4,23v11.584
	c1.175-1.23,2.52-2.289,4-3.149V23c0-9.925,8.075-18,18-18h12C47.925,5,56,13.075,56,23z"/>
<path d="M50,31.292v31.416C57.392,61.299,63,54.796,63,47S57.392,32.701,50,31.292z"/>
<path d="M43.802,31.32C43.335,31.415,43,31.825,43,32.301v29.398c0,0.476,0.335,0.886,0.802,0.98C44.853,62.893,45.929,63,47,63
	c0.338,0,0.668-0.03,1-0.051V31.051C47.668,31.03,47.338,31,47,31C45.929,31,44.853,31.107,43.802,31.32z"/>
</svg>
