<?xml version="1.0" encoding="utf-8"?>
<!-- Generator: Adobe Illustrator 20.1.0, SVG Export Plug-In . SVG Version: 6.00 Build 0)  -->
<!DOCTYPE svg PUBLIC "-//W3C//DTD SVG 1.1//EN" "http://www.w3.org/Graphics/SVG/1.1/DTD/svg11.dtd">
<svg version="1.1" id="Layer_1" xmlns="http://www.w3.org/2000/svg" xmlns:xlink="http://www.w3.org/1999/xlink" x="0px" y="0px"
	 width="64px" height="64px" viewBox="0 0 64 64" enable-background="new 0 0 64 64" xml:space="preserve">
<path d="M17,53h30c3.314,0,6-2.686,6-6v-9h3c0.552,0,1-0.448,1-1V27c0-0.552-0.448-1-1-1h-3v-9c0-3.314-2.686-6-6-6H17
	c-3.314,0-6,2.686-6,6v30C11,50.314,13.686,53,17,53z M15,17c0-1.105,0.895-2,2-2h30c1.105,0,2,0.895,2,2v30c0,1.105-0.895,2-2,2H17
	c-1.105,0-2-0.895-2-2V17z"/>
<path d="M46.141,2.608C45.956,1.676,45.13,1,44.18,1H19.82c-0.95,0-1.775,0.676-1.961,1.607L16.58,9H47.42L46.141,2.608z"/>
<path d="M17.859,61.393C18.044,62.324,18.87,63,19.82,63h24.36c0.95,0,1.775-0.676,1.961-1.608L47.42,55H16.58L17.859,61.393z"/>
<path d="M29.057,31.434C29.022,31.618,29,31.806,29,32c0,1.657,1.343,3,3,3s3-1.343,3-3c0-0.267-0.046-0.521-0.112-0.767
	l8.672-8.672c0.586-0.585,0.586-1.536,0-2.121c-0.586-0.586-1.535-0.586-2.121,0l-8.672,8.672C32.521,29.046,32.267,29,32,29
	c-0.342,0-0.664,0.069-0.97,0.174l-5.547-4.808c-0.626-0.543-1.574-0.475-2.116,0.151c-0.543,0.626-0.475,1.573,0.151,2.116
	L29.057,31.434z"/>
<path d="M31,36.899V45c0,0.552,0.448,1,1,1s1-0.448,1-1v-8.101C32.677,36.965,32.342,37,32,37S31.323,36.965,31,36.899z"/>
</svg>
