<?xml version="1.0" encoding="utf-8"?>
<!-- Generator: Adobe Illustrator 20.1.0, SVG Export Plug-In . SVG Version: 6.00 Build 0)  -->
<!DOCTYPE svg PUBLIC "-//W3C//DTD SVG 1.1//EN" "http://www.w3.org/Graphics/SVG/1.1/DTD/svg11.dtd">
<svg version="1.1" id="Layer_1" xmlns="http://www.w3.org/2000/svg" xmlns:xlink="http://www.w3.org/1999/xlink" x="0px" y="0px"
	 width="64px" height="64px" viewBox="0 0 64 64" enable-background="new 0 0 64 64" xml:space="preserve">
<path d="M32,51c13.785,0,25-11.215,25-25S45.785,1,32,1S7,12.215,7,26S18.215,51,32,51z M32,14c7.732,0,14,6.268,14,14
	s-6.268,14-14,14s-14-6.268-14-14S24.268,14,32,14z"/>
<circle cx="32" cy="28" r="3"/>
<path d="M3.663,61.359c0.86,1.242,2.316,1.849,3.86,1.565L32,57.028l24.532,5.907c0.234,0.043,0.469,0.064,0.7,0.064
	c1.232,0,2.38-0.594,3.104-1.641c0.859-1.243,0.91-2.82,0.137-4.11l-8.049-13.62C47.47,49.361,40.154,53,32,53
	c-8.153,0-15.467-3.637-20.422-9.369L3.53,57.243C2.753,58.539,2.804,60.116,3.663,61.359z"/>
</svg>
