<?xml version="1.0" encoding="utf-8"?>
<!-- Generator: Adobe Illustrator 20.1.0, SVG Export Plug-In . SVG Version: 6.00 Build 0)  -->
<!DOCTYPE svg PUBLIC "-//W3C//DTD SVG 1.1//EN" "http://www.w3.org/Graphics/SVG/1.1/DTD/svg11.dtd">
<svg version="1.1" id="Layer_1" xmlns="http://www.w3.org/2000/svg" xmlns:xlink="http://www.w3.org/1999/xlink" x="0px" y="0px"
	 width="64px" height="64px" viewBox="0 0 64 64" enable-background="new 0 0 64 64" xml:space="preserve">
<path d="M60,47c0-0.44-0.042-0.87-0.103-1.293l3.362-3.475l-2-3.464l-4.686,1.173c-0.677-0.535-1.432-0.974-2.246-1.298L53,34h-4
	l-1.326,4.643c-0.814,0.324-1.569,0.763-2.246,1.298l-4.686-1.173l-2,3.464l3.362,3.475C42.042,46.13,42,46.56,42,47
	c0,0.44,0.042,0.87,0.103,1.293l-3.362,3.475l2,3.464l4.686-1.173c0.677,0.535,1.432,0.974,2.246,1.298L49,60h4l1.326-4.643
	c0.814-0.324,1.569-0.763,2.246-1.298l4.686,1.173l2-3.464l-3.362-3.475C59.958,47.87,60,47.44,60,47z M51,50c-1.657,0-3-1.343-3-3
	s1.343-3,3-3s3,1.343,3,3S52.657,50,51,50z"/>
<circle cx="32" cy="14" r="2"/>
<path d="M2,42c-0.553,0-1,0.448-1,1c0,4.962,4.037,9,9,9h26.872C36.317,50.434,36,48.756,36,47s0.317-3.434,0.872-5H2z"/>
<path d="M58,33.738V11c0-3.309-2.691-6-6-6H12c-3.309,0-6,2.691-6,6v29h4V11c0-1.103,0.897-2,2-2h40c1.103,0,2,0.897,2,2v21.301
	C55.417,32.589,56.759,33.082,58,33.738z"/>
</svg>
