<?xml version="1.0" encoding="utf-8"?>
<!-- Generator: Adobe Illustrator 20.1.0, SVG Export Plug-In . SVG Version: 6.00 Build 0)  -->
<!DOCTYPE svg PUBLIC "-//W3C//DTD SVG 1.1//EN" "http://www.w3.org/Graphics/SVG/1.1/DTD/svg11.dtd">
<svg version="1.1" id="Layer_1" xmlns="http://www.w3.org/2000/svg" xmlns:xlink="http://www.w3.org/1999/xlink" x="0px" y="0px"
	 width="64px" height="64px" viewBox="0 0 64 64" enable-background="new 0 0 64 64" xml:space="preserve">
<path d="M61,15H3c-1.105,0-2,0.895-2,2v44c0,1.105,0.895,2,2,2h58c1.105,0,2-0.895,2-2V17C63,15.895,62.105,15,61,15z M32,54
	c-1.657,0-3-1.343-3-3s1.343-3,3-3s3,1.343,3,3S33.657,54,32,54z M41.643,45.828l-1.415-1.414c-2.198-2.198-5.121-3.408-8.229-3.408
	s-6.03,1.21-8.229,3.408l-1.415,1.414l-2.828-2.829l1.415-1.414c2.954-2.953,6.88-4.579,11.057-4.579s8.103,1.626,11.057,4.579
	l1.415,1.414L41.643,45.828z M49.356,39.018l-1.414-1.415C43.684,33.345,38.021,31,32,31c-6.022,0-11.684,2.345-15.942,6.604
	l-1.414,1.415l-2.829-2.829l1.415-1.414C18.243,29.761,24.91,27,32,27c7.09,0,13.756,2.761,18.771,7.775l1.415,1.414L49.356,39.018z
	"/>
<path d="M39.553,1.105L15.764,13h4.473L40.447,2.895c0.494-0.247,0.694-0.848,0.447-1.342C40.648,1.059,40.047,0.857,39.553,1.105z"
	/>
</svg>
