<?xml version="1.0" encoding="utf-8"?>
<!-- Generator: Adobe Illustrator 20.1.0, SVG Export Plug-In . SVG Version: 6.00 Build 0)  -->
<!DOCTYPE svg PUBLIC "-//W3C//DTD SVG 1.1//EN" "http://www.w3.org/Graphics/SVG/1.1/DTD/svg11.dtd">
<svg version="1.1" id="Layer_1" xmlns="http://www.w3.org/2000/svg" xmlns:xlink="http://www.w3.org/1999/xlink" x="0px" y="0px"
	 width="64px" height="64px" viewBox="0 0 64 64" enable-background="new 0 0 64 64" xml:space="preserve">
<path d="M57,42v-5c0-3.86-3.14-7-7-7s-7,3.14-7,7v5h2v-5c0-2.757,2.243-5,5-5s5,2.243,5,5v5H57z"/>
<path d="M61,59V45c0-0.552-0.448-1-1-1H40c-0.552,0-1,0.448-1,1v14c0,0.552,0.448,1,1,1h20C60.552,60,61,59.552,61,59z M50,54
	c-1.105,0-2-0.895-2-2s0.895-2,2-2c1.105,0,2,0.895,2,2S51.105,54,50,54z"/>
<circle cx="32" cy="42" r="5"/>
<path d="M6.19,19.69C13.084,12.797,22.25,9,32,9s18.916,3.797,25.81,10.69l1.414,1.415l2.829-2.829l-1.415-1.414
	C52.988,9.213,42.818,5,32,5S11.012,9.213,3.362,16.862l-1.415,1.414l2.829,2.829L6.19,19.69z"/>
<path d="M32,21c-6.411,0-12.438,2.497-16.97,7.03l-1.415,1.414l2.829,2.829l1.414-1.415C21.635,27.081,26.658,25,32,25
	c4.741,0,9.226,1.646,12.816,4.655c1.21-0.857,2.636-1.424,4.183-1.596L48.97,28.03C44.438,23.497,38.411,21,32,21z"/>
</svg>
