<?xml version="1.0" encoding="utf-8"?>
<!-- Generator: Adobe Illustrator 20.1.0, SVG Export Plug-In . SVG Version: 6.00 Build 0)  -->
<!DOCTYPE svg PUBLIC "-//W3C//DTD SVG 1.1//EN" "http://www.w3.org/Graphics/SVG/1.1/DTD/svg11.dtd">
<svg version="1.1" id="Layer_1" xmlns="http://www.w3.org/2000/svg" xmlns:xlink="http://www.w3.org/1999/xlink" x="0px" y="0px"
	 width="64px" height="64px" viewBox="0 0 64 64" enable-background="new 0 0 64 64" xml:space="preserve">
<path d="M52,1H12C5.935,1,1,5.935,1,12v4.017c0,0.269,0.107,0.525,0.299,0.713C1.486,16.914,1.738,17.017,2,17.017
	C2.073,17.014,2.156,17.008,2.167,17c2.757,0,5,2.243,5,5s-2.243,5-4.941,5.002c-0.043-0.006-0.165-0.018-0.208-0.019
	c-0.278-0.003-0.527,0.099-0.719,0.287C1.107,27.458,1,27.715,1,27.983v10.033c0,0.269,0.107,0.525,0.299,0.713
	C1.486,38.914,1.738,39.017,2,39.017C2.073,39.013,2.156,39.009,2.167,39c2.757,0,5,2.243,5,5s-2.243,5-4.941,5.002
	c-0.043-0.006-0.165-0.018-0.208-0.019c-0.278-0.018-0.527,0.098-0.719,0.287C1.107,49.458,1,49.715,1,49.983V52
	c0,6.065,4.935,11,11,11h40c6.065,0,11-4.935,11-11v-2c0-0.553-0.447-1-1-1c-2.757,0-5-2.243-5-5s2.243-5,5-5c0.553,0,1-0.447,1-1
	V28c0-0.553-0.447-1-1-1c-2.757,0-5-2.243-5-5s2.243-5,5-5c0.553,0,1-0.447,1-1v-4C63,5.935,58.065,1,52,1z M29,50
	c0,0.553-0.447,1-1,1H16c-0.553,0-1-0.447-1-1V38c0-0.553,0.447-1,1-1h12c0.553,0,1,0.447,1,1V50z M29,28c0,0.553-0.447,1-1,1H16
	c-0.553,0-1-0.447-1-1V16c0-0.553,0.447-1,1-1h12c0.553,0,1,0.447,1,1V28z M49,50c0,0.553-0.447,1-1,1H36c-0.553,0-1-0.447-1-1V38
	c0-0.553,0.447-1,1-1h12c0.553,0,1,0.447,1,1V50z M49,28c0,0.553-0.447,1-1,1H36c-0.553,0-1-0.447-1-1V16c0-0.553,0.447-1,1-1h12
	c0.553,0,1,0.447,1,1V28z"/>
</svg>
