<?xml version="1.0" encoding="utf-8"?>
<!-- Generator: Adobe Illustrator 20.1.0, SVG Export Plug-In . SVG Version: 6.00 Build 0)  -->
<!DOCTYPE svg PUBLIC "-//W3C//DTD SVG 1.1//EN" "http://www.w3.org/Graphics/SVG/1.1/DTD/svg11.dtd">
<svg version="1.1" id="Layer_1" xmlns="http://www.w3.org/2000/svg" xmlns:xlink="http://www.w3.org/1999/xlink" x="0px" y="0px"
	 width="64px" height="64px" viewBox="0 0 64 64" enable-background="new 0 0 64 64" xml:space="preserve">
<circle cx="20" cy="46" r="5"/>
<path d="M57.309,26.754c-0.955-4.787-5.184-8.262-10.055-8.262c-2.741,0-5.316,1.069-7.252,3.011L38.508,23H25.493l-1.494-1.497
	c-1.937-1.941-4.512-3.011-7.252-3.011c-4.871,0-9.1,3.475-10.055,8.262L1.079,54.88c-0.317,1.586,0.362,3.167,1.729,4.027
	c1.364,0.856,3.077,0.787,4.365-0.183l9.077-6.824C14.3,50.657,13,48.479,13,46c0-3.859,3.14-7,7-7s7,3.141,7,7
	c0,0.34-0.033,0.672-0.08,1h10.16C37.033,46.672,37,46.34,37,46c0-3.859,3.14-7,7-7s7,3.141,7,7c0,2.475-1.295,4.65-3.24,5.895
	l9.067,6.831c0.689,0.518,1.499,0.778,2.312,0.778c0.708,0,1.418-0.198,2.053-0.597c1.367-0.86,2.046-2.441,1.729-4.027
	L57.309,26.754z"/>
<circle cx="44" cy="46" r="5"/>
<path d="M32,3c-0.552,0-1,0.447-1,1v15h2V4C33,3.447,32.552,3,32,3z"/>
</svg>
