<?xml version="1.0" encoding="utf-8"?>
<!-- Generator: Adobe Illustrator 20.1.0, SVG Export Plug-In . SVG Version: 6.00 Build 0)  -->
<!DOCTYPE svg PUBLIC "-//W3C//DTD SVG 1.1//EN" "http://www.w3.org/Graphics/SVG/1.1/DTD/svg11.dtd">
<svg version="1.1" id="Layer_1" xmlns="http://www.w3.org/2000/svg" xmlns:xlink="http://www.w3.org/1999/xlink" x="0px" y="0px"
	 width="64px" height="64px" viewBox="0 0 64 64" enable-background="new 0 0 64 64" xml:space="preserve">
<path d="M47,42v-5c0-3.86-3.14-7-7-7s-7,3.14-7,7v5h2v-5c0-2.757,2.243-5,5-5s5,2.243,5,5v5H47z"/>
<path d="M29,45v14c0,0.552,0.448,1,1,1h20c0.552,0,1-0.448,1-1V45c0-0.552-0.448-1-1-1H30C29.448,44,29,44.448,29,45z M40,50
	c1.105,0,2,0.895,2,2s-0.895,2-2,2c-1.105,0-2-0.895-2-2S38.895,50,40,50z"/>
<path d="M6,48h21v-4H10c-0.552,0-1-0.447-1-1V9c0-0.553,0.448-1,1-1h42c0.552,0,1,0.447,1,1v39h5c2.757,0,5-2.243,5-5V9
	c0-2.757-2.243-5-5-5H6C3.243,4,1,6.243,1,9v34C1,45.757,3.243,48,6,48z M58,24c1.105,0,2,0.895,2,2s-0.895,2-2,2s-2-0.895-2-2
	S56.895,24,58,24z"/>
</svg>
