<?xml version="1.0" encoding="utf-8"?>
<!-- Generator: Adobe Illustrator 20.1.0, SVG Export Plug-In . SVG Version: 6.00 Build 0)  -->
<!DOCTYPE svg PUBLIC "-//W3C//DTD SVG 1.1//EN" "http://www.w3.org/Graphics/SVG/1.1/DTD/svg11.dtd">
<svg version="1.1" id="Layer_1" xmlns="http://www.w3.org/2000/svg" xmlns:xlink="http://www.w3.org/1999/xlink" x="0px" y="0px"
	 width="64px" height="64px" viewBox="0 0 64 64" enable-background="new 0 0 64 64" xml:space="preserve">
<path d="M3,63h12V1H3C1.895,1,1,1.895,1,3v58C1,62.105,1.895,63,3,63z"/>
<path d="M47,1H17v62h30V1z M32,51c-1.657,0-3-1.343-3-3s1.343-3,3-3s3,1.343,3,3S33.657,51,32,51z M32,35c-1.657,0-3-1.343-3-3
	s1.343-3,3-3s3,1.343,3,3S33.657,35,32,35z M32,19c-1.657,0-3-1.343-3-3s1.343-3,3-3s3,1.343,3,3S33.657,19,32,19z"/>
<path d="M61,1H49v62h12c1.105,0,2-0.895,2-2V3C63,1.895,62.105,1,61,1z"/>
</svg>
