<?xml version="1.0" encoding="utf-8"?>
<!-- Generator: Adobe Illustrator 20.1.0, SVG Export Plug-In . SVG Version: 6.00 Build 0)  -->
<!DOCTYPE svg PUBLIC "-//W3C//DTD SVG 1.1//EN" "http://www.w3.org/Graphics/SVG/1.1/DTD/svg11.dtd">
<svg version="1.1" id="Layer_1" xmlns="http://www.w3.org/2000/svg" xmlns:xlink="http://www.w3.org/1999/xlink" x="0px" y="0px"
	 width="64px" height="64px" viewBox="0 0 64 64" enable-background="new 0 0 64 64" xml:space="preserve">
<path d="M32,1C14.906,1,1,14.907,1,32s13.906,31,31,31s31-13.907,31-31S49.094,1,32,1z M12.432,24.363
	C12.277,24.758,11.899,25,11.5,25c-0.121,0-0.244-0.022-0.364-0.069c-0.514-0.201-0.769-0.781-0.567-1.295
	c2.333-5.973,7.097-10.735,13.069-13.068c0.511-0.199,1.094,0.053,1.295,0.568c0.201,0.515-0.054,1.094-0.568,1.295
	C18.911,14.561,14.562,18.91,12.432,24.363z M32,40c-4.418,0-8-3.582-8-8s3.582-8,8-8s8,3.582,8,8S36.418,40,32,40z"/>
</svg>
