<?xml version="1.0" encoding="utf-8"?>
<!-- Generator: Adobe Illustrator 20.1.0, SVG Export Plug-In . SVG Version: 6.00 Build 0)  -->
<!DOCTYPE svg PUBLIC "-//W3C//DTD SVG 1.1//EN" "http://www.w3.org/Graphics/SVG/1.1/DTD/svg11.dtd">
<svg version="1.1" id="Layer_1" xmlns="http://www.w3.org/2000/svg" xmlns:xlink="http://www.w3.org/1999/xlink" x="0px" y="0px"
	 width="64px" height="64px" viewBox="0 0 64 64" enable-background="new 0 0 64 64" xml:space="preserve">
<path d="M2.119,17.007c-0.317-0.04-0.631,0.076-0.849,0.309c-0.218,0.232-0.312,0.554-0.254,0.867l3.299,17.695
	c0.059,0.313,0.263,0.58,0.549,0.718c0.138,0.066,0.286,0.099,0.435,0.099c0.161,0,0.322-0.039,0.469-0.117l7.254-3.852
	l-2.744-14.74L2.119,17.007z"/>
<path d="M62.983,29.925L58.668,6.747c-0.245-1.313-0.986-2.452-2.088-3.208c-1.101-0.755-2.433-1.038-3.743-0.792L11.91,10.368
	c-0.543,0.101-0.901,0.623-0.801,1.166l5.048,27.11c0.049,0.261,0.199,0.491,0.418,0.642c0.167,0.115,0.365,0.175,0.565,0.175
	c0.061,0,0.122-0.005,0.183-0.017l44.859-8.353C62.726,30.99,63.084,30.468,62.983,29.925z M24.277,19.785
	c-1.381,0-2.5-1.119-2.5-2.5c0-1.381,1.119-2.5,2.5-2.5c1.381,0,2.5,1.119,2.5,2.5C26.777,18.666,25.657,19.785,24.277,19.785z"/>
<path d="M62,63c0.553,0,1-0.448,1-1V44c0-0.552-0.447-1-1-1s-1,0.448-1,1v8H47.182c-1.405,0-2.607-0.956-2.926-2.337l-3.074-12.627
	l-1.969,0.367l3.097,12.722C42.837,52.406,44.84,54,47.182,54H61v8C61,62.552,61.447,63,62,63z"/>
</svg>
