<?xml version="1.0" encoding="utf-8"?>
<!-- Generator: Adobe Illustrator 20.1.0, SVG Export Plug-In . SVG Version: 6.00 Build 0)  -->
<!DOCTYPE svg PUBLIC "-//W3C//DTD SVG 1.1//EN" "http://www.w3.org/Graphics/SVG/1.1/DTD/svg11.dtd">
<svg version="1.1" id="Layer_1" xmlns="http://www.w3.org/2000/svg" xmlns:xlink="http://www.w3.org/1999/xlink" x="0px" y="0px"
	 width="64px" height="64px" viewBox="0 0 64 64" enable-background="new 0 0 64 64" xml:space="preserve">
<path d="M57,5H7c-3.314,0-6,2.686-6,6v42c0,3.314,2.686,6,6,6h50c3.314,0,6-2.686,6-6V11C63,7.686,60.314,5,57,5z M58,53
	c0,0.553-0.447,1-1,1H7c-0.553,0-1-0.447-1-1V11c0-0.553,0.447-1,1-1h50c0.553,0,1,0.447,1,1V53z"/>
<path d="M40.541,31.159l-14-9c-0.308-0.2-0.699-0.211-1.021-0.037C25.2,22.298,25,22.634,25,23v18c0,0.366,0.2,0.702,0.521,0.878
	C25.671,41.959,25.835,42,26,42c0.188,0,0.377-0.054,0.541-0.159l14-9C40.827,32.657,41,32.34,41,32S40.827,31.343,40.541,31.159z"
	/>
</svg>
