<?xml version="1.0" encoding="utf-8"?>
<!-- Generator: Adobe Illustrator 20.1.0, SVG Export Plug-In . SVG Version: 6.00 Build 0)  -->
<!DOCTYPE svg PUBLIC "-//W3C//DTD SVG 1.1//EN" "http://www.w3.org/Graphics/SVG/1.1/DTD/svg11.dtd">
<svg version="1.1" id="Layer_1" xmlns="http://www.w3.org/2000/svg" xmlns:xlink="http://www.w3.org/1999/xlink" x="0px" y="0px"
	 width="64px" height="64px" viewBox="0 0 64 64" enable-background="new 0 0 64 64" xml:space="preserve">
<path d="M61,1H3C1.895,1,1,1.895,1,3v58c0,1.105,0.895,2,2,2h58c1.105,0,2-0.895,2-2V3C63,1.895,62.105,1,61,1z M32,53
	c-11.58,0-21-9.42-21-21s9.42-21,21-21s21,9.42,21,21S43.58,53,32,53z"/>
<path d="M32,13c-10.477,0-19,8.523-19,19s8.523,19,19,19s19-8.523,19-19S42.477,13,32,13z M24,35c-1.657,0-3-1.343-3-3s1.343-3,3-3
	s3,1.343,3,3S25.657,35,24,35z M40,35c-1.657,0-3-1.343-3-3s1.343-3,3-3s3,1.343,3,3S41.657,35,40,35z"/>
</svg>
