<?xml version="1.0" encoding="utf-8"?>
<!-- Generator: Adobe Illustrator 20.1.0, SVG Export Plug-In . SVG Version: 6.00 Build 0)  -->
<!DOCTYPE svg PUBLIC "-//W3C//DTD SVG 1.1//EN" "http://www.w3.org/Graphics/SVG/1.1/DTD/svg11.dtd">
<svg version="1.1" id="Layer_1" xmlns="http://www.w3.org/2000/svg" xmlns:xlink="http://www.w3.org/1999/xlink" x="0px" y="0px"
	 width="64px" height="64px" viewBox="0 0 64 64" enable-background="new 0 0 64 64" xml:space="preserve">
<path d="M52,34V6c0-2.757-2.243-5-5-5H13c-2.757,0-5,2.243-5,5v52c0,2.757,2.243,5,5,5h33.865l-7.201-8H13c-0.553,0-1-0.448-1-1V12
	c0-0.552,0.447-1,1-1h34c0.553,0,1,0.448,1,1v22H52z M30,8c-1.105,0-2-0.895-2-2s0.895-2,2-2s2,0.895,2,2S31.105,8,30,8z"/>
<path d="M59.914,51.593C59.753,51.232,59.395,51,59,51h-7V36h-4v15h-7c-0.395,0-0.753,0.232-0.914,0.593
	c-0.161,0.361-0.094,0.782,0.17,1.076l9,10C49.446,62.88,49.716,63,50,63s0.554-0.12,0.743-0.331l9-10
	C60.007,52.375,60.074,51.954,59.914,51.593z"/>
</svg>
