<?xml version="1.0" encoding="utf-8"?>
<!-- Generator: Adobe Illustrator 19.1.0, SVG Export Plug-In . SVG Version: 6.00 Build 0)  -->
<!DOCTYPE svg PUBLIC "-//W3C//DTD SVG 1.1//EN" "http://www.w3.org/Graphics/SVG/1.1/DTD/svg11.dtd">
<svg version="1.1" id="Layer_1" xmlns="http://www.w3.org/2000/svg" xmlns:xlink="http://www.w3.org/1999/xlink" x="0px" y="0px"
	 width="24px" height="24px" viewBox="0 0 24 24" enable-background="new 0 0 24 24" xml:space="preserve">
<polygon data-color="color-2" fill="#444444" points="12,0 16,5 13,5 13,9 11,9 11,5 8,5 "/>
<path fill="#444444" d="M9,24V14c0-1.65685,1.34314-3,3-3H12c1.65685,0,3,1.34314,3,3v10H9z"/>
<path fill="#444444" d="M2,24v-9c0-1.65685,1.34314-3,3-3H5c1.65685,0,3,1.34314,3,3v9H2z"/>
<path fill="#444444" d="M16,24v-9c0-1.65685,1.34314-3,3-3H19c1.65685,0,3,1.34314,3,3v9H16z"/>
</svg>
