<?xml version="1.0" encoding="utf-8"?>
<!-- Generator: Adobe Illustrator 19.1.0, SVG Export Plug-In . SVG Version: 6.00 Build 0)  -->
<!DOCTYPE svg PUBLIC "-//W3C//DTD SVG 1.1//EN" "http://www.w3.org/Graphics/SVG/1.1/DTD/svg11.dtd">
<svg version="1.1" id="Layer_1" xmlns="http://www.w3.org/2000/svg" xmlns:xlink="http://www.w3.org/1999/xlink" x="0px" y="0px"
	 width="24px" height="24px" viewBox="0 0 24 24" enable-background="new 0 0 24 24" xml:space="preserve">
<path fill="#444444" d="M19,3c-1.3125,0-2.49915,0.51898-3.39215,1.34924C9.89186,2.80891,4.09143,6.49294,3.13977,12.36743
	C1.30304,13.10785,0,14.90149,0,17c0,2.75684,2.24316,5,5,5s5-2.24316,5-5c0-2.67145-2.11163-4.8418-4.75061-4.97479
	c1.00178-4.00956,4.92293-6.62887,9.12354-5.9032C14.13623,6.70288,14,7.33514,14,8c0,2.75684,2.24316,5,5,5s5-2.24316,5-5
	S21.75684,3,19,3z"/>
</svg>
