<?xml version="1.0" encoding="utf-8"?>
<!-- Generator: Adobe Illustrator 19.1.0, SVG Export Plug-In . SVG Version: 6.00 Build 0)  -->
<!DOCTYPE svg PUBLIC "-//W3C//DTD SVG 1.1//EN" "http://www.w3.org/Graphics/SVG/1.1/DTD/svg11.dtd">
<svg version="1.1" id="Layer_1" xmlns="http://www.w3.org/2000/svg" xmlns:xlink="http://www.w3.org/1999/xlink" x="0px" y="0px"
	 width="24px" height="24px" viewBox="0 0 24 24" enable-background="new 0 0 24 24" xml:space="preserve">
<path data-color="color-2" fill="#444444" d="M12,7c-2.75684,0-5,2.24316-5,5s2.24316,5,5,5s5-2.24316,5-5S14.75684,7,12,7z"/>
<path fill="#444444" d="M12,1C5.93457,1,1,5.93457,1,12s4.93457,11,11,11s11-4.93457,11-11S18.06543,1,12,1z M12,19
	c-3.85986,0-7-3.14014-7-7s3.14014-7,7-7s7,3.14014,7,7S15.85986,19,12,19z"/>
</svg>
