<?xml version="1.0" encoding="utf-8"?>
<!-- Generator: Adobe Illustrator 19.1.0, SVG Export Plug-In . SVG Version: 6.00 Build 0)  -->
<!DOCTYPE svg PUBLIC "-//W3C//DTD SVG 1.1//EN" "http://www.w3.org/Graphics/SVG/1.1/DTD/svg11.dtd">
<svg version="1.1" id="Layer_1" xmlns="http://www.w3.org/2000/svg" xmlns:xlink="http://www.w3.org/1999/xlink" x="0px" y="0px"
	 width="24px" height="24px" viewBox="0 0 24 24" enable-background="new 0 0 24 24" xml:space="preserve">
<path data-color="color-2" fill="#444444" d="M15,5l-5-4v3.06146c-4.08417,0.45587-7.41193,3.65979-7.93018,7.815l1.98438,0.24707
	C4.44775,8.96918,6.92596,6.52252,10,6.07892V9L15,5z"/>
<path fill="#444444" d="M18.5,8c-2.48145,0-4.5,2.01855-4.5,4.5s2.01855,4.5,4.5,4.5s4.5-2.01855,4.5-4.5S20.98145,8,18.5,8z"/>
<path fill="#444444" d="M5.5,15C3.01855,15,1,17.01855,1,19.5S3.01855,24,5.5,24s4.5-2.01855,4.5-4.5S7.98145,15,5.5,15z"/>
</svg>
