<?xml version="1.0" encoding="utf-8"?>
<!-- Generator: Adobe Illustrator 19.2.1, SVG Export Plug-In . SVG Version: 6.00 Build 0)  -->
<!DOCTYPE svg PUBLIC "-//W3C//DTD SVG 1.1//EN" "http://www.w3.org/Graphics/SVG/1.1/DTD/svg11.dtd">
<svg version="1.1" id="Layer_1" xmlns="http://www.w3.org/2000/svg" xmlns:xlink="http://www.w3.org/1999/xlink" x="0px" y="0px"
	 width="48px" height="48px" viewBox="0 0 48 48" enable-background="new 0 0 48 48" xml:space="preserve">
<path d="M40.707,3.293c-0.391-0.391-1.023-0.391-1.414,0l-20,20c-0.391,0.391-0.391,1.023,0,1.414l20,20
	C39.488,44.902,39.744,45,40,45s0.512-0.098,0.707-0.293c0.391-0.391,0.391-1.023,0-1.414L21.414,24L40.707,4.707
	C41.098,4.316,41.098,3.684,40.707,3.293z"/>
<path d="M7.293,24.707l20,20C27.488,44.902,27.744,45,28,45s0.512-0.098,0.707-0.293c0.391-0.391,0.391-1.023,0-1.414L9.414,24
	L28.707,4.707c0.391-0.391,0.391-1.023,0-1.414s-1.023-0.391-1.414,0l-20,20C6.902,23.684,6.902,24.316,7.293,24.707z"/>
</svg>
