<?xml version="1.0" encoding="utf-8"?>
<!-- Generator: Adobe Illustrator 19.2.1, SVG Export Plug-In . SVG Version: 6.00 Build 0)  -->
<!DOCTYPE svg PUBLIC "-//W3C//DTD SVG 1.1//EN" "http://www.w3.org/Graphics/SVG/1.1/DTD/svg11.dtd">
<svg version="1.1" id="Layer_1" xmlns="http://www.w3.org/2000/svg" xmlns:xlink="http://www.w3.org/1999/xlink" x="0px" y="0px"
	 width="48px" height="48px" viewBox="0 0 48 48" enable-background="new 0 0 48 48" xml:space="preserve">
<path d="M14.707,14.707L24,5.414l9.293,9.293C33.488,14.902,33.744,15,34,15s0.512-0.098,0.707-0.293
	c0.391-0.391,0.391-1.023,0-1.414l-10-10c-0.391-0.391-1.023-0.391-1.414,0l-10,10c-0.391,0.391-0.391,1.023,0,1.414
	S14.316,15.098,14.707,14.707z"/>
<path d="M13.293,34.707l10,10C23.488,44.902,23.744,45,24,45s0.512-0.098,0.707-0.293l10-10c0.391-0.391,0.391-1.023,0-1.414
	s-1.023-0.391-1.414,0L24,42.586l-9.293-9.293c-0.391-0.391-1.023-0.391-1.414,0S12.902,34.316,13.293,34.707z"/>
</svg>
