<?xml version="1.0" encoding="utf-8"?>
<!-- Generator: Adobe Illustrator 19.2.1, SVG Export Plug-In . SVG Version: 6.00 Build 0)  -->
<!DOCTYPE svg PUBLIC "-//W3C//DTD SVG 1.1//EN" "http://www.w3.org/Graphics/SVG/1.1/DTD/svg11.dtd">
<svg version="1.1" id="Layer_1" xmlns="http://www.w3.org/2000/svg" xmlns:xlink="http://www.w3.org/1999/xlink" x="0px" y="0px"
	 width="48px" height="48px" viewBox="0 0 48 48" enable-background="new 0 0 48 48" xml:space="preserve">
<path d="M24,1C11.318,1,1,11.318,1,24s10.318,23,23,23s23-10.318,23-23S36.682,1,24,1z M24,45C12.42,45,3,35.58,3,24S12.42,3,24,3
	s21,9.42,21,21S35.58,45,24,45z"/>
<path d="M32,17H16c-0.369,0-0.708,0.203-0.882,0.528c-0.174,0.325-0.155,0.72,0.05,1.026l8,12C23.354,30.833,23.666,31,24,31
	s0.646-0.167,0.832-0.445l8-12c0.205-0.307,0.224-0.701,0.05-1.026C32.708,17.203,32.369,17,32,17z M24,28.197L17.869,19h12.263
	L24,28.197z"/>
</svg>
