<?xml version="1.0" encoding="utf-8"?>
<!-- Generator: Adobe Illustrator 19.2.1, SVG Export Plug-In . SVG Version: 6.00 Build 0)  -->
<!DOCTYPE svg PUBLIC "-//W3C//DTD SVG 1.1//EN" "http://www.w3.org/Graphics/SVG/1.1/DTD/svg11.dtd">
<svg version="1.1" id="Layer_1" xmlns="http://www.w3.org/2000/svg" xmlns:xlink="http://www.w3.org/1999/xlink" x="0px" y="0px"
	 width="48px" height="48px" viewBox="0 0 48 48" enable-background="new 0 0 48 48" xml:space="preserve">
<path d="M24,22c-0.553,0-1,0.447-1,1v19.586l-8.293-8.293c-0.391-0.391-1.023-0.391-1.414,0s-0.391,1.023,0,1.414l9.999,9.999
	c0.092,0.093,0.203,0.166,0.326,0.217C23.74,45.974,23.87,46,24,46s0.26-0.026,0.382-0.077c0.123-0.051,0.234-0.124,0.326-0.217
	l9.999-9.999c0.391-0.391,0.391-1.023,0-1.414s-1.023-0.391-1.414,0L25,42.586V23C25,22.447,24.553,22,24,22z"/>
<path d="M46,1H2C1.447,1,1,1.447,1,2v13c0,0.553,0.447,1,1,1h44c0.553,0,1-0.447,1-1V2C47,1.447,46.553,1,46,1z M45,14H3V3h42V14z"
	/>
</svg>
