<?xml version="1.0" encoding="utf-8"?>
<!-- Generator: Adobe Illustrator 19.2.1, SVG Export Plug-In . SVG Version: 6.00 Build 0)  -->
<!DOCTYPE svg PUBLIC "-//W3C//DTD SVG 1.1//EN" "http://www.w3.org/Graphics/SVG/1.1/DTD/svg11.dtd">
<svg version="1.1" id="Layer_1" xmlns="http://www.w3.org/2000/svg" xmlns:xlink="http://www.w3.org/1999/xlink" x="0px" y="0px"
	 width="48px" height="48px" viewBox="0 0 48 48" enable-background="new 0 0 48 48" xml:space="preserve">
<path d="M3.618,3.077C3.373,3.179,3.179,3.373,3.077,3.618C3.027,3.74,3,3.87,3,4v16c0,0.552,0.448,1,1,1s1-0.448,1-1V6.414
	L41.586,43H28c-0.552,0-1,0.448-1,1s0.448,1,1,1h16c0.13,0,0.26-0.027,0.382-0.077c0.244-0.101,0.439-0.296,0.541-0.541
	C44.973,44.26,45,44.13,45,44V28c0-0.552-0.448-1-1-1s-1,0.448-1,1v13.586L6.414,5H20c0.552,0,1-0.448,1-1s-0.448-1-1-1H4
	C3.87,3,3.74,3.027,3.618,3.077z"/>
</svg>
