<?xml version="1.0" encoding="utf-8"?>
<!-- Generator: Adobe Illustrator 19.2.1, SVG Export Plug-In . SVG Version: 6.00 Build 0)  -->
<!DOCTYPE svg PUBLIC "-//W3C//DTD SVG 1.1//EN" "http://www.w3.org/Graphics/SVG/1.1/DTD/svg11.dtd">
<svg version="1.1" id="Layer_1" xmlns="http://www.w3.org/2000/svg" xmlns:xlink="http://www.w3.org/1999/xlink" x="0px" y="0px"
	 width="48px" height="48px" viewBox="0 0 48 48" enable-background="new 0 0 48 48" xml:space="preserve">
<path d="M3,18c0,0.553,0.448,1,1,1s1-0.447,1-1V6.414l12.293,12.293C17.488,18.902,17.744,19,18,19s0.512-0.098,0.707-0.293
	c0.391-0.391,0.391-1.023,0-1.414L6.414,5H18c0.552,0,1-0.447,1-1s-0.448-1-1-1H4C3.87,3,3.74,3.026,3.618,3.077
	c-0.245,0.101-0.44,0.296-0.541,0.541C3.027,3.74,3,3.87,3,4V18z"/>
<path d="M45,30c0-0.553-0.448-1-1-1s-1,0.447-1,1v11.586L30.707,29.293c-0.391-0.391-1.023-0.391-1.414,0s-0.391,1.023,0,1.414
	L41.586,43H30c-0.552,0-1,0.447-1,1s0.448,1,1,1h14c0.13,0,0.26-0.027,0.382-0.077c0.245-0.101,0.44-0.296,0.541-0.541
	C44.973,44.26,45,44.13,45,44V30z"/>
</svg>
