<?xml version="1.0" encoding="utf-8"?>
<!-- Generator: Adobe Illustrator 19.2.1, SVG Export Plug-In . SVG Version: 6.00 Build 0)  -->
<!DOCTYPE svg PUBLIC "-//W3C//DTD SVG 1.1//EN" "http://www.w3.org/Graphics/SVG/1.1/DTD/svg11.dtd">
<svg version="1.1" id="Layer_1" xmlns="http://www.w3.org/2000/svg" xmlns:xlink="http://www.w3.org/1999/xlink" x="0px" y="0px"
	 width="48px" height="48px" viewBox="0 0 48 48" enable-background="new 0 0 48 48" xml:space="preserve">
<path d="M3.293,30.707C3.488,30.902,3.744,31,4,31s0.512-0.098,0.707-0.293L31,4.414V16c0,0.553,0.448,1,1,1s1-0.447,1-1V2
	c0-0.13-0.027-0.26-0.077-0.382c-0.101-0.245-0.296-0.44-0.541-0.541C32.26,1.026,32.13,1,32,1H18c-0.552,0-1,0.447-1,1s0.448,1,1,1
	h11.586L3.293,29.293C2.902,29.684,2.902,30.316,3.293,30.707z"/>
<path d="M43.293,17.293L17,43.586V32c0-0.553-0.448-1-1-1s-1,0.447-1,1v14c0,0.13,0.027,0.26,0.077,0.382
	c0.101,0.245,0.296,0.44,0.541,0.541C15.74,46.973,15.87,47,16,47h14c0.552,0,1-0.447,1-1s-0.448-1-1-1H18.414l26.293-26.293
	c0.391-0.391,0.391-1.023,0-1.414S43.684,16.902,43.293,17.293z"/>
</svg>
