<?xml version="1.0" encoding="utf-8"?>
<!-- Generator: Adobe Illustrator 19.2.1, SVG Export Plug-In . SVG Version: 6.00 Build 0)  -->
<!DOCTYPE svg PUBLIC "-//W3C//DTD SVG 1.1//EN" "http://www.w3.org/Graphics/SVG/1.1/DTD/svg11.dtd">
<svg version="1.1" id="Layer_1" xmlns="http://www.w3.org/2000/svg" xmlns:xlink="http://www.w3.org/1999/xlink" x="0px" y="0px"
	 width="48px" height="48px" viewBox="0 0 48 48" enable-background="new 0 0 48 48" xml:space="preserve">
<path d="M28,3c0.553,0,1-0.448,1-1s-0.447-1-1-1h-8c-0.553,0-1,0.448-1,1s0.447,1,1,1H28z"/>
<path d="M28,47c0.553,0,1-0.448,1-1s-0.447-1-1-1h-8c-0.553,0-1,0.448-1,1s0.447,1,1,1H28z"/>
<path d="M2,29c0.553,0,1-0.448,1-1v-8c0-0.552-0.447-1-1-1s-1,0.448-1,1v8C1,28.552,1.447,29,2,29z"/>
<path d="M46,19c-0.553,0-1,0.448-1,1v8c0,0.552,0.447,1,1,1s1-0.448,1-1v-8C47,19.448,46.553,19,46,19z"/>
<path d="M2,11c0.553,0,1-0.448,1-1V3h7c0.553,0,1-0.448,1-1s-0.447-1-1-1H2C1.447,1,1,1.448,1,2v8C1,10.552,1.447,11,2,11z"/>
<path d="M46,1h-8c-0.553,0-1,0.448-1,1s0.447,1,1,1h7v7c0,0.552,0.447,1,1,1s1-0.448,1-1V2C47,1.448,46.553,1,46,1z"/>
<path d="M46,37c-0.553,0-1,0.448-1,1v7h-7c-0.553,0-1,0.448-1,1s0.447,1,1,1h8c0.553,0,1-0.448,1-1v-8C47,37.448,46.553,37,46,37z"
	/>
<path d="M2,47h8c0.553,0,1-0.448,1-1s-0.447-1-1-1H3v-7c0-0.552-0.447-1-1-1s-1,0.448-1,1v8C1,46.552,1.447,47,2,47z"/>
<path d="M24.708,11.294c-0.092-0.093-0.203-0.166-0.326-0.217c-0.244-0.101-0.52-0.101-0.764,0
	c-0.123,0.051-0.233,0.124-0.326,0.217l-9.999,9.999c-0.391,0.391-0.391,1.023,0,1.414s1.023,0.391,1.414,0L23,14.414V36
	c0,0.552,0.447,1,1,1s1-0.448,1-1V14.414l8.293,8.293C33.488,22.902,33.744,23,34,23s0.512-0.098,0.707-0.293
	c0.391-0.391,0.391-1.023,0-1.414L24.708,11.294z"/>
</svg>
