<?xml version="1.0" encoding="utf-8"?>
<!-- Generator: Adobe Illustrator 19.2.1, SVG Export Plug-In . SVG Version: 6.00 Build 0)  -->
<!DOCTYPE svg PUBLIC "-//W3C//DTD SVG 1.1//EN" "http://www.w3.org/Graphics/SVG/1.1/DTD/svg11.dtd">
<svg version="1.1" id="Layer_1" xmlns="http://www.w3.org/2000/svg" xmlns:xlink="http://www.w3.org/1999/xlink" x="0px" y="0px"
	 width="48px" height="48px" viewBox="0 0 48 48" enable-background="new 0 0 48 48" xml:space="preserve">
<path d="M46,1H2C1.448,1,1,1.448,1,2v44c0,0.552,0.448,1,1,1h44c0.552,0,1-0.448,1-1V2C47,1.448,46.552,1,46,1z M45,45H3V3h42V45z"
	/>
<path d="M23.191,37.588C23.379,37.847,23.68,38,24,38s0.621-0.153,0.809-0.412l8-11c0.221-0.304,0.253-0.707,0.083-1.042
	C32.72,25.211,32.376,25,32,25h-7V11c0-0.552-0.448-1-1-1s-1,0.448-1,1v14h-7c-0.376,0-0.72,0.211-0.891,0.546
	c-0.171,0.335-0.139,0.738,0.083,1.042L23.191,37.588z M30.036,27L24,35.3L17.964,27H30.036z"/>
</svg>
