<?xml version="1.0" encoding="utf-8"?>
<!-- Generator: Adobe Illustrator 19.2.1, SVG Export Plug-In . SVG Version: 6.00 Build 0)  -->
<!DOCTYPE svg PUBLIC "-//W3C//DTD SVG 1.1//EN" "http://www.w3.org/Graphics/SVG/1.1/DTD/svg11.dtd">
<svg version="1.1" id="Layer_1" xmlns="http://www.w3.org/2000/svg" xmlns:xlink="http://www.w3.org/1999/xlink" x="0px" y="0px"
	 width="48px" height="48px" viewBox="0 0 48 48" enable-background="new 0 0 48 48" xml:space="preserve">
<path d="M44,5H4C3.448,5,3,5.447,3,6s0.448,1,1,1h40c0.552,0,1-0.447,1-1S44.552,5,44,5z"/>
<path d="M24,43c0.323,0,0.626-0.156,0.814-0.419l20-28c0.217-0.305,0.247-0.705,0.075-1.039C44.718,13.209,44.375,13,44,13H4
	c-0.375,0-0.718,0.209-0.889,0.542c-0.171,0.334-0.142,0.734,0.075,1.039l20,28C23.374,42.844,23.677,43,24,43z M42.057,15
	L24,40.279L5.943,15H42.057z"/>
</svg>
