<?xml version="1.0" encoding="utf-8"?>
<!-- Generator: Adobe Illustrator 19.2.1, SVG Export Plug-In . SVG Version: 6.00 Build 0)  -->
<!DOCTYPE svg PUBLIC "-//W3C//DTD SVG 1.1//EN" "http://www.w3.org/Graphics/SVG/1.1/DTD/svg11.dtd">
<svg version="1.1" id="Layer_1" xmlns="http://www.w3.org/2000/svg" xmlns:xlink="http://www.w3.org/1999/xlink" x="0px" y="0px"
	 width="48px" height="48px" viewBox="0 0 48 48" enable-background="new 0 0 48 48" xml:space="preserve">
<path d="M2,25h25v9c0,0.375,0.209,0.718,0.542,0.889C27.687,34.963,27.844,35,28,35c0.205,0,0.408-0.063,0.581-0.186l14-10
	C42.844,24.626,43,24.323,43,24s-0.156-0.626-0.419-0.814l-14-10c-0.305-0.216-0.706-0.246-1.039-0.075
	C27.209,13.282,27,13.625,27,14v9H2c-0.552,0-1,0.448-1,1S1.448,25,2,25z M29,15.943L40.279,24L29,32.057V15.943z"/>
</svg>
