<?xml version="1.0" encoding="utf-8"?>
<!-- Generator: Adobe Illustrator 19.2.1, SVG Export Plug-In . SVG Version: 6.00 Build 0)  -->
<!DOCTYPE svg PUBLIC "-//W3C//DTD SVG 1.1//EN" "http://www.w3.org/Graphics/SVG/1.1/DTD/svg11.dtd">
<svg version="1.1" id="Layer_1" xmlns="http://www.w3.org/2000/svg" xmlns:xlink="http://www.w3.org/1999/xlink" x="0px" y="0px"
	 width="48px" height="48px" viewBox="0 0 48 48" enable-background="new 0 0 48 48" xml:space="preserve">
<path d="M46,3H2C1.447,3,1,3.447,1,4v40c0,0.553,0.447,1,1,1h44c0.553,0,1-0.447,1-1V4C47,3.447,46.553,3,46,3z M45,5v6H3V5H45z
	 M3,43V13h42v30H3z"/>
<path d="M38.382,19.077C38.26,19.026,38.13,19,38,19H26c-0.553,0-1,0.447-1,1s0.447,1,1,1h9.586L23.293,33.293
	c-0.391,0.391-0.391,1.023,0,1.414C23.488,34.902,23.744,35,24,35s0.512-0.098,0.707-0.293L37,22.414V32c0,0.553,0.447,1,1,1
	s1-0.447,1-1V20c0-0.13-0.026-0.26-0.077-0.382C38.822,19.373,38.627,19.178,38.382,19.077z"/>
</svg>
