<?xml version="1.0" encoding="utf-8"?>
<!-- Generator: Adobe Illustrator 19.2.1, SVG Export Plug-In . SVG Version: 6.00 Build 0)  -->
<!DOCTYPE svg PUBLIC "-//W3C//DTD SVG 1.1//EN" "http://www.w3.org/Graphics/SVG/1.1/DTD/svg11.dtd">
<svg version="1.1" id="Layer_1" xmlns="http://www.w3.org/2000/svg" xmlns:xlink="http://www.w3.org/1999/xlink" x="0px" y="0px"
	 width="48px" height="48px" viewBox="0 0 48 48" enable-background="new 0 0 48 48" xml:space="preserve">
<path d="M24,26c0.552,0,1-0.447,1-1V5.414l8.293,8.293C33.488,13.902,33.744,14,34,14s0.512-0.098,0.707-0.293
	c0.391-0.391,0.391-1.023,0-1.414l-9.999-9.999c-0.092-0.093-0.203-0.166-0.326-0.217c-0.244-0.101-0.52-0.101-0.764,0
	c-0.123,0.051-0.233,0.124-0.326,0.217l-9.999,9.999c-0.391,0.391-0.391,1.023,0,1.414s1.023,0.391,1.414,0L23,5.414V25
	C23,25.553,23.448,26,24,26z"/>
<path d="M46,32H2c-0.552,0-1,0.447-1,1v13c0,0.553,0.448,1,1,1h44c0.552,0,1-0.447,1-1V33C47,32.447,46.552,32,46,32z M45,45H3V34
	h42V45z"/>
</svg>
