<?xml version="1.0" encoding="utf-8"?>
<!-- Generator: Adobe Illustrator 19.2.1, SVG Export Plug-In . SVG Version: 6.00 Build 0)  -->
<!DOCTYPE svg PUBLIC "-//W3C//DTD SVG 1.1//EN" "http://www.w3.org/Graphics/SVG/1.1/DTD/svg11.dtd">
<svg version="1.1" id="Layer_1" xmlns="http://www.w3.org/2000/svg" xmlns:xlink="http://www.w3.org/1999/xlink" x="0px" y="0px"
	 width="48px" height="48px" viewBox="0 0 48 48" enable-background="new 0 0 48 48" xml:space="preserve">
<path d="M24,45c11.579,0,21-9.421,21-21c0-0.553-0.447-1-1-1s-1,0.447-1,1c0,10.477-8.523,19-19,19S5,34.477,5,24S13.523,5,24,5
	c6.644,0,12.687,3.407,16.141,8.984l-9.913-1.327c-0.552-0.072-1.051,0.312-1.124,0.858c-0.073,0.548,0.312,1.051,0.858,1.124
	l11.894,1.593c0.045,0.006,0.09,0.009,0.134,0.009c0.493,0,0.923-0.365,0.99-0.867l1.593-11.894
	c0.073-0.548-0.312-1.051-0.858-1.124c-0.551-0.072-1.051,0.312-1.124,0.858l-1.207,9.01C37.503,6.48,31.059,3,24,3
	C12.421,3,3,12.421,3,24S12.421,45,24,45z"/>
</svg>
