<?xml version="1.0" encoding="utf-8"?>
<!-- Generator: Adobe Illustrator 19.2.1, SVG Export Plug-In . SVG Version: 6.00 Build 0)  -->
<!DOCTYPE svg PUBLIC "-//W3C//DTD SVG 1.1//EN" "http://www.w3.org/Graphics/SVG/1.1/DTD/svg11.dtd">
<svg version="1.1" id="Layer_1" xmlns="http://www.w3.org/2000/svg" xmlns:xlink="http://www.w3.org/1999/xlink" x="0px" y="0px"
	 width="48px" height="48px" viewBox="0 0 48 48" enable-background="new 0 0 48 48" xml:space="preserve">
<path d="M14,17h20c0.388,0,0.741-0.225,0.906-0.576c0.165-0.351,0.111-0.766-0.138-1.064l-10-12c-0.38-0.455-1.156-0.455-1.536,0
	l-10,12c-0.249,0.299-0.302,0.714-0.138,1.064C13.259,16.775,13.612,17,14,17z M24,5.562L31.865,15H16.135L24,5.562z"/>
<path d="M13.232,32.641l10,12C23.422,44.868,23.703,45,24,45s0.578-0.132,0.768-0.359l10-12c0.249-0.299,0.302-0.714,0.138-1.064
	C34.741,31.225,34.388,31,34,31H14c-0.388,0-0.741,0.225-0.906,0.576C12.93,31.927,12.983,32.342,13.232,32.641z M31.865,33
	L24,42.438L16.135,33H31.865z"/>
</svg>
