<?xml version="1.0" encoding="utf-8"?>
<!-- Generator: Adobe Illustrator 19.2.1, SVG Export Plug-In . SVG Version: 6.00 Build 0)  -->
<!DOCTYPE svg PUBLIC "-//W3C//DTD SVG 1.1//EN" "http://www.w3.org/Graphics/SVG/1.1/DTD/svg11.dtd">
<svg version="1.1" id="Layer_1" xmlns="http://www.w3.org/2000/svg" xmlns:xlink="http://www.w3.org/1999/xlink" x="0px" y="0px"
	 width="48px" height="48px" viewBox="0 0 48 48" enable-background="new 0 0 48 48" xml:space="preserve">
<path d="M46,1H2C1.448,1,1,1.448,1,2v44c0,0.552,0.448,1,1,1h44c0.552,0,1-0.448,1-1V2C47,1.448,46.552,1,46,1z M45,45H3V3h42V45z"
	/>
<path d="M17.445,24.832l12,8C29.613,32.944,29.806,33,30,33c0.162,0,0.324-0.039,0.472-0.118C30.797,32.708,31,32.369,31,32V16
	c0-0.369-0.203-0.708-0.528-0.882c-0.325-0.174-0.719-0.154-1.026,0.05l-12,8C17.167,23.354,17,23.666,17,24
	S17.167,24.646,17.445,24.832z M29,17.869v12.263L19.803,24L29,17.869z"/>
</svg>
