<?xml version="1.0" encoding="utf-8"?>
<!-- Generator: Adobe Illustrator 19.2.1, SVG Export Plug-In . SVG Version: 6.00 Build 0)  -->
<!DOCTYPE svg PUBLIC "-//W3C//DTD SVG 1.1//EN" "http://www.w3.org/Graphics/SVG/1.1/DTD/svg11.dtd">
<svg version="1.1" id="Layer_1" xmlns="http://www.w3.org/2000/svg" xmlns:xlink="http://www.w3.org/1999/xlink" x="0px" y="0px"
	 width="48px" height="48px" viewBox="0 0 48 48" enable-background="new 0 0 48 48" xml:space="preserve">
<path d="M24,1C11.317,1,1,11.318,1,24s10.317,23,23,23s23-10.318,23-23S36.683,1,24,1z M24,45C12.421,45,3,35.58,3,24S12.421,3,24,3
	s21,9.42,21,21S35.579,45,24,45z"/>
<path d="M31.293,20.293L24,27.586l-7.293-7.293c-0.391-0.391-1.023-0.391-1.414,0s-0.391,1.023,0,1.414l8,8
	C23.488,29.902,23.744,30,24,30s0.512-0.098,0.707-0.293l8-8c0.391-0.391,0.391-1.023,0-1.414S31.684,19.902,31.293,20.293z"/>
</svg>
