<?xml version="1.0" encoding="utf-8"?>
<!-- Generator: Adobe Illustrator 19.2.1, SVG Export Plug-In . SVG Version: 6.00 Build 0)  -->
<!DOCTYPE svg PUBLIC "-//W3C//DTD SVG 1.1//EN" "http://www.w3.org/Graphics/SVG/1.1/DTD/svg11.dtd">
<svg version="1.1" id="Layer_1" xmlns="http://www.w3.org/2000/svg" xmlns:xlink="http://www.w3.org/1999/xlink" x="0px" y="0px"
	 width="48px" height="48px" viewBox="0 0 48 48" enable-background="new 0 0 48 48" xml:space="preserve">
<path d="M24,11c-0.552,0-1,0.448-1,1v30.586L11.707,31.293c-0.391-0.391-1.023-0.391-1.414,0s-0.391,1.023,0,1.414l13,13
	c0.092,0.092,0.203,0.165,0.325,0.216C23.74,45.973,23.87,46,24,46s0.26-0.027,0.382-0.077c0.122-0.051,0.233-0.124,0.325-0.216
	l13-13c0.391-0.391,0.391-1.023,0-1.414s-1.023-0.391-1.414,0L25,42.586V12C25,11.448,24.552,11,24,11z"/>
<path d="M46,2H2C1.448,2,1,2.448,1,3s0.448,1,1,1h44c0.552,0,1-0.448,1-1S46.552,2,46,2z"/>
</svg>
