<?xml version="1.0" encoding="utf-8"?>
<!-- Generator: Adobe Illustrator 19.2.1, SVG Export Plug-In . SVG Version: 6.00 Build 0)  -->
<!DOCTYPE svg PUBLIC "-//W3C//DTD SVG 1.1//EN" "http://www.w3.org/Graphics/SVG/1.1/DTD/svg11.dtd">
<svg version="1.1" id="Layer_1" xmlns="http://www.w3.org/2000/svg" xmlns:xlink="http://www.w3.org/1999/xlink" x="0px" y="0px"
	 width="48px" height="48px" viewBox="0 0 48 48" enable-background="new 0 0 48 48" xml:space="preserve">
<path d="M46,14H30.414l5.293-5.293c0.391-0.391,0.391-1.023,0-1.414s-1.023-0.391-1.414,0l-6.999,6.999
	c-0.093,0.092-0.166,0.203-0.217,0.326c-0.101,0.244-0.101,0.52,0,0.764c0.051,0.123,0.124,0.233,0.217,0.326l6.999,6.999
	C34.488,22.902,34.744,23,35,23s0.512-0.098,0.707-0.293c0.391-0.391,0.391-1.023,0-1.414L30.414,16H45v23H3V16h14.586l-5.293,5.293
	c-0.391,0.391-0.391,1.023,0,1.414C12.488,22.902,12.744,23,13,23s0.512-0.098,0.707-0.293l6.999-6.999
	c0.093-0.092,0.166-0.203,0.217-0.326c0.101-0.244,0.101-0.52,0-0.764c-0.051-0.123-0.124-0.233-0.217-0.326l-6.999-6.999
	c-0.391-0.391-1.023-0.391-1.414,0s-0.391,1.023,0,1.414L17.586,14H2c-0.553,0-1,0.448-1,1v25c0,0.552,0.447,1,1,1h44
	c0.553,0,1-0.448,1-1V15C47,14.448,46.553,14,46,14z"/>
</svg>
