<?xml version="1.0" encoding="utf-8"?>
<!-- Generator: Adobe Illustrator 19.2.1, SVG Export Plug-In . SVG Version: 6.00 Build 0)  -->
<!DOCTYPE svg PUBLIC "-//W3C//DTD SVG 1.1//EN" "http://www.w3.org/Graphics/SVG/1.1/DTD/svg11.dtd">
<svg version="1.1" id="Layer_1" xmlns="http://www.w3.org/2000/svg" xmlns:xlink="http://www.w3.org/1999/xlink" x="0px" y="0px"
	 width="48px" height="48px" viewBox="0 0 48 48" enable-background="new 0 0 48 48" xml:space="preserve">
<path d="M3.293,33.707l12,12c0.092,0.092,0.203,0.165,0.325,0.216C15.74,45.973,15.87,46,16,46s0.26-0.027,0.382-0.077
	c0.122-0.051,0.233-0.124,0.325-0.216l12-12c0.391-0.391,0.391-1.023,0-1.414s-1.023-0.391-1.414,0L17,42.586V15
	c0-6.065,4.935-11,11-11h16c0.552,0,1-0.448,1-1s-0.448-1-1-1H28c-7.168,0-13,5.832-13,13v27.586L4.707,32.293
	c-0.391-0.391-1.023-0.391-1.414,0S2.902,33.316,3.293,33.707z"/>
</svg>
