<?xml version="1.0" encoding="utf-8"?>
<!-- Generator: Adobe Illustrator 19.2.1, SVG Export Plug-In . SVG Version: 6.00 Build 0)  -->
<!DOCTYPE svg PUBLIC "-//W3C//DTD SVG 1.1//EN" "http://www.w3.org/Graphics/SVG/1.1/DTD/svg11.dtd">
<svg version="1.1" id="Layer_1" xmlns="http://www.w3.org/2000/svg" xmlns:xlink="http://www.w3.org/1999/xlink" x="0px" y="0px"
	 width="48px" height="48px" viewBox="0 0 48 48" enable-background="new 0 0 48 48" xml:space="preserve">
<path d="M45.923,12.618c-0.051-0.123-0.124-0.233-0.217-0.326l-9.999-9.999c-0.391-0.391-1.023-0.391-1.414,0s-0.391,1.023,0,1.414
	L42.586,12H25c-7.168,0-13,5.832-13,13v17.586l-8.293-8.293c-0.391-0.391-1.023-0.391-1.414,0s-0.391,1.023,0,1.414l9.999,9.999
	c0.092,0.093,0.203,0.166,0.326,0.217C12.74,45.973,12.87,46,13,46s0.26-0.027,0.382-0.077c0.123-0.051,0.233-0.124,0.326-0.217
	l9.999-9.999c0.391-0.391,0.391-1.023,0-1.414s-1.023-0.391-1.414,0L14,42.586V25c0-6.065,4.935-11,11-11h17.586l-8.293,8.293
	c-0.391,0.391-0.391,1.023,0,1.414C34.488,23.902,34.744,24,35,24s0.512-0.098,0.707-0.293l9.999-9.999
	c0.093-0.092,0.166-0.203,0.217-0.326C46.024,13.138,46.024,12.862,45.923,12.618z"/>
</svg>
