<?xml version="1.0" encoding="utf-8"?>
<!-- Generator: Adobe Illustrator 19.2.1, SVG Export Plug-In . SVG Version: 6.00 Build 0)  -->
<!DOCTYPE svg PUBLIC "-//W3C//DTD SVG 1.1//EN" "http://www.w3.org/Graphics/SVG/1.1/DTD/svg11.dtd">
<svg version="1.1" id="Layer_1" xmlns="http://www.w3.org/2000/svg" xmlns:xlink="http://www.w3.org/1999/xlink" x="0px" y="0px"
	 width="48px" height="48px" viewBox="0 0 48 48" enable-background="new 0 0 48 48" xml:space="preserve">
<path d="M29.707,7.293c-0.391-0.391-1.023-0.391-1.414,0l-4,4c-0.391,0.391-0.391,1.023,0,1.414L31.586,20H3c-0.552,0-1,0.448-1,1v6
	c0,0.552,0.448,1,1,1h28.586l-7.293,7.293c-0.391,0.391-0.391,1.023,0,1.414l4,4C28.488,40.902,28.744,41,29,41
	s0.512-0.098,0.707-0.293l16-16c0.391-0.391,0.391-1.023,0-1.414L29.707,7.293z M29,38.586L26.414,36l8.293-8.293
	c0.286-0.286,0.372-0.716,0.217-1.09C34.769,26.244,34.404,26,34,26H4v-4h30c0.404,0,0.769-0.244,0.924-0.617
	c0.155-0.374,0.069-0.804-0.217-1.09L26.414,12L29,9.414L43.586,24L29,38.586z"/>
</svg>
