<?xml version="1.0" encoding="utf-8"?>
<!-- Generator: Adobe Illustrator 19.2.1, SVG Export Plug-In . SVG Version: 6.00 Build 0)  -->
<!DOCTYPE svg PUBLIC "-//W3C//DTD SVG 1.1//EN" "http://www.w3.org/Graphics/SVG/1.1/DTD/svg11.dtd">
<svg version="1.1" id="Layer_1" xmlns="http://www.w3.org/2000/svg" xmlns:xlink="http://www.w3.org/1999/xlink" x="0px" y="0px"
	 width="48px" height="48px" viewBox="0 0 48 48" enable-background="new 0 0 48 48" xml:space="preserve">
<path d="M3.293,32.293c-0.391,0.391-0.391,1.023,0,1.414l12,12c0.092,0.092,0.203,0.165,0.325,0.216C15.74,45.973,15.87,46,16,46
	s0.26-0.027,0.382-0.077c0.122-0.051,0.233-0.124,0.325-0.216l12-12c0.391-0.391,0.391-1.023,0-1.414s-1.023-0.391-1.414,0
	L17,42.586V4h27c0.552,0,1-0.448,1-1s-0.448-1-1-1H16c-0.552,0-1,0.448-1,1v39.586L4.707,32.293
	C4.316,31.902,3.684,31.902,3.293,32.293z"/>
</svg>
