<?xml version="1.0" encoding="utf-8"?>
<!-- Generator: Adobe Illustrator 19.2.1, SVG Export Plug-In . SVG Version: 6.00 Build 0)  -->
<!DOCTYPE svg PUBLIC "-//W3C//DTD SVG 1.1//EN" "http://www.w3.org/Graphics/SVG/1.1/DTD/svg11.dtd">
<svg version="1.1" id="Layer_1" xmlns="http://www.w3.org/2000/svg" xmlns:xlink="http://www.w3.org/1999/xlink" x="0px" y="0px"
	 width="48px" height="48px" viewBox="0 0 48 48" enable-background="new 0 0 48 48" xml:space="preserve">
<path d="M46,1H2C1.448,1,1,1.448,1,2v44c0,0.552,0.448,1,1,1h44c0.552,0,1-0.448,1-1V2C47,1.448,46.552,1,46,1z M45,45H3V3h42V45z"
	/>
<path d="M27.293,32.707C27.488,32.902,27.744,33,28,33s0.512-0.098,0.707-0.293c0.391-0.391,0.391-1.023,0-1.414L21.414,24
	l7.293-7.293c0.391-0.391,0.391-1.023,0-1.414s-1.023-0.391-1.414,0l-8,8c-0.391,0.391-0.391,1.023,0,1.414L27.293,32.707z"/>
</svg>
