<?xml version="1.0" encoding="utf-8"?>
<!-- Generator: Adobe Illustrator 19.2.1, SVG Export Plug-In . SVG Version: 6.00 Build 0)  -->
<!DOCTYPE svg PUBLIC "-//W3C//DTD SVG 1.1//EN" "http://www.w3.org/Graphics/SVG/1.1/DTD/svg11.dtd">
<svg version="1.1" id="Layer_1" xmlns="http://www.w3.org/2000/svg" xmlns:xlink="http://www.w3.org/1999/xlink" x="0px" y="0px"
	 width="48px" height="48px" viewBox="0 0 48 48" enable-background="new 0 0 48 48" xml:space="preserve">
<path fill="#222221" d="M2,47h32c0.553,0,1-0.448,1-1V32c0-0.552-0.447-1-1-1s-1,0.448-1,1v13H3V19h9c0.553,0,1-0.448,1-1
	s-0.447-1-1-1H2c-0.553,0-1,0.448-1,1v28C1,46.552,1.447,47,2,47z"/>
<path fill="#222221" d="M17,32c0,0.552,0.447,1,1,1s1-0.448,1-1c0-10.477,8.523-19,19-19h4.586l-6.293,6.293
	c-0.391,0.391-0.391,1.023,0,1.414C36.488,20.902,36.744,21,37,21s0.512-0.098,0.707-0.293l7.999-7.999
	c0.093-0.092,0.166-0.203,0.217-0.326c0.101-0.244,0.101-0.52,0-0.764c-0.051-0.123-0.124-0.233-0.217-0.326l-7.999-7.999
	c-0.391-0.391-1.023-0.391-1.414,0s-0.391,1.023,0,1.414L42.586,11H38C26.421,11,17,20.42,17,32z"/>
</svg>
