<?xml version="1.0" encoding="utf-8"?>
<!-- Generator: Adobe Illustrator 19.2.1, SVG Export Plug-In . SVG Version: 6.00 Build 0)  -->
<!DOCTYPE svg PUBLIC "-//W3C//DTD SVG 1.1//EN" "http://www.w3.org/Graphics/SVG/1.1/DTD/svg11.dtd">
<svg version="1.1" id="Layer_1" xmlns="http://www.w3.org/2000/svg" xmlns:xlink="http://www.w3.org/1999/xlink" x="0px" y="0px"
	 width="48px" height="48px" viewBox="0 0 48 48" enable-background="new 0 0 48 48" xml:space="preserve">
<path d="M24,22c0.552,0,1-0.447,1-1V5.414l5.293,5.293C30.488,10.902,30.744,11,31,11s0.512-0.098,0.707-0.293
	c0.391-0.391,0.391-1.023,0-1.414l-6.999-6.999c-0.092-0.093-0.203-0.166-0.326-0.217c-0.244-0.101-0.52-0.101-0.764,0
	c-0.123,0.051-0.233,0.124-0.326,0.217l-6.999,6.999c-0.391,0.391-0.391,1.023,0,1.414s1.023,0.391,1.414,0L23,5.414V21
	C23,21.553,23.448,22,24,22z"/>
<path d="M40.949,11.684C40.812,11.275,40.431,11,40,11h-2c-0.552,0-1,0.447-1,1s0.448,1,1,1h1.28l5.333,16H3.387l5.333-16H10
	c0.552,0,1-0.447,1-1s-0.448-1-1-1H8c-0.431,0-0.812,0.275-0.949,0.684l-6,18C1.017,29.786,1,29.893,1,30v16c0,0.553,0.448,1,1,1h44
	c0.552,0,1-0.447,1-1V30c0-0.107-0.017-0.214-0.051-0.316L40.949,11.684z M3,45V31h42v14H3z"/>
<path d="M38,37h-8c-0.552,0-1,0.447-1,1s0.448,1,1,1h8c0.552,0,1-0.447,1-1S38.552,37,38,37z"/>
</svg>
