<?xml version="1.0" encoding="utf-8"?>
<!-- Generator: Adobe Illustrator 19.2.1, SVG Export Plug-In . SVG Version: 6.00 Build 0)  -->
<!DOCTYPE svg PUBLIC "-//W3C//DTD SVG 1.1//EN" "http://www.w3.org/Graphics/SVG/1.1/DTD/svg11.dtd">
<svg version="1.1" id="Layer_1" xmlns="http://www.w3.org/2000/svg" xmlns:xlink="http://www.w3.org/1999/xlink" x="0px" y="0px"
	 width="48px" height="48px" viewBox="0 0 48 48" enable-background="new 0 0 48 48" xml:space="preserve">
<path d="M24,25c0.256,0,0.512-0.098,0.707-0.293L37,12.414V22c0,0.552,0.447,1,1,1s1-0.448,1-1V10c0-0.13-0.026-0.26-0.077-0.382
	c-0.101-0.245-0.296-0.44-0.541-0.541C38.26,9.027,38.13,9,38,9H26c-0.553,0-1,0.448-1,1s0.447,1,1,1h9.586L23.293,23.293
	c-0.391,0.391-0.391,1.023,0,1.414C23.488,24.902,23.744,25,24,25z"/>
<path d="M46,1H2C1.447,1,1,1.448,1,2v44c0,0.552,0.447,1,1,1h44c0.553,0,1-0.448,1-1V2C47,1.448,46.553,1,46,1z M45,45H3V3h42V45z"
	/>
</svg>
