<?xml version="1.0" encoding="utf-8"?>
<!-- Generator: Adobe Illustrator 19.2.1, SVG Export Plug-In . SVG Version: 6.00 Build 0)  -->
<!DOCTYPE svg PUBLIC "-//W3C//DTD SVG 1.1//EN" "http://www.w3.org/Graphics/SVG/1.1/DTD/svg11.dtd">
<svg version="1.1" id="Layer_1" xmlns="http://www.w3.org/2000/svg" xmlns:xlink="http://www.w3.org/1999/xlink" x="0px" y="0px"
	 width="48px" height="48px" viewBox="0 0 48 48" enable-background="new 0 0 48 48" xml:space="preserve">
<path d="M2,31h19v9c0,0.376,0.211,0.72,0.546,0.891C21.689,40.964,21.845,41,22,41c0.208,0,0.414-0.064,0.588-0.191l22-16
	C44.847,24.621,45,24.32,45,24s-0.153-0.621-0.412-0.809l-22-16c-0.303-0.221-0.707-0.252-1.042-0.083C21.211,7.28,21,7.624,21,8v9
	H2c-0.552,0-1,0.448-1,1v12C1,30.552,1.448,31,2,31z M3,19h19c0.552,0,1-0.448,1-1V9.964L42.3,24L23,38.036V30c0-0.552-0.448-1-1-1
	H3V19z"/>
</svg>
