<?xml version="1.0" encoding="utf-8"?>
<!-- Generator: Adobe Illustrator 19.2.1, SVG Export Plug-In . SVG Version: 6.00 Build 0)  -->
<!DOCTYPE svg PUBLIC "-//W3C//DTD SVG 1.1//EN" "http://www.w3.org/Graphics/SVG/1.1/DTD/svg11.dtd">
<svg version="1.1" id="Layer_1" xmlns="http://www.w3.org/2000/svg" xmlns:xlink="http://www.w3.org/1999/xlink" x="0px" y="0px"
	 width="48px" height="48px" viewBox="0 0 48 48" enable-background="new 0 0 48 48" xml:space="preserve">
<path d="M24,19c0.553,0,1-0.447,1-1V5.414l5.293,5.293C30.488,10.902,30.744,11,31,11s0.512-0.098,0.707-0.293
	c0.391-0.391,0.391-1.023,0-1.414l-6.999-6.999c-0.092-0.093-0.203-0.166-0.327-0.217c-0.244-0.101-0.519-0.101-0.764,0
	c-0.123,0.051-0.234,0.125-0.326,0.217l-6.999,6.999c-0.391,0.391-0.391,1.023,0,1.414s1.023,0.391,1.414,0L23,5.414V18
	C23,18.553,23.447,19,24,19z"/>
<path d="M24,29c-0.553,0-1,0.447-1,1v12.586l-5.293-5.293c-0.391-0.391-1.023-0.391-1.414,0s-0.391,1.023,0,1.414l6.999,6.999
	c0.092,0.093,0.203,0.166,0.326,0.217C23.74,45.974,23.87,46,24,46s0.26-0.026,0.382-0.077c0.123-0.051,0.234-0.124,0.326-0.217
	l6.999-6.999c0.391-0.391,0.391-1.023,0-1.414s-1.023-0.391-1.414,0L25,42.586V30C25,29.447,24.553,29,24,29z"/>
<path d="M46,23H2c-0.553,0-1,0.447-1,1s0.447,1,1,1h44c0.553,0,1-0.447,1-1S46.553,23,46,23z"/>
</svg>
