<?xml version="1.0" encoding="utf-8"?>
<!-- Generator: Adobe Illustrator 19.2.1, SVG Export Plug-In . SVG Version: 6.00 Build 0)  -->
<!DOCTYPE svg PUBLIC "-//W3C//DTD SVG 1.1//EN" "http://www.w3.org/Graphics/SVG/1.1/DTD/svg11.dtd">
<svg version="1.1" id="Layer_1" xmlns="http://www.w3.org/2000/svg" xmlns:xlink="http://www.w3.org/1999/xlink" x="0px" y="0px"
	 width="48px" height="48px" viewBox="0 0 48 48" enable-background="new 0 0 48 48" xml:space="preserve">
<path d="M39,24c0-0.323-0.156-0.626-0.419-0.814l-28-20c-0.306-0.218-0.705-0.247-1.039-0.075C9.209,3.282,9,3.625,9,4v40
	c0,0.375,0.209,0.718,0.542,0.889C9.687,44.963,9.844,45,10,45c0.205,0,0.408-0.063,0.581-0.186l28-20
	C38.844,24.626,39,24.323,39,24z M11,42.057V5.943L36.279,24L11,42.057z"/>
</svg>
