<?xml version="1.0" encoding="utf-8"?>
<!-- Generator: Adobe Illustrator 19.2.1, SVG Export Plug-In . SVG Version: 6.00 Build 0)  -->
<!DOCTYPE svg PUBLIC "-//W3C//DTD SVG 1.1//EN" "http://www.w3.org/Graphics/SVG/1.1/DTD/svg11.dtd">
<svg version="1.1" id="Layer_1" xmlns="http://www.w3.org/2000/svg" xmlns:xlink="http://www.w3.org/1999/xlink" x="0px" y="0px"
	 width="48px" height="48px" viewBox="0 0 48 48" enable-background="new 0 0 48 48" xml:space="preserve">
<path fill="#222221" d="M4,45c0.256,0,0.512-0.098,0.707-0.293L43,6.414V24c0,0.552,0.448,1,1,1s1-0.448,1-1V4
	c0-0.13-0.027-0.26-0.077-0.382c-0.101-0.244-0.296-0.439-0.541-0.541C44.26,3.027,44.13,3,44,3H24c-0.552,0-1,0.448-1,1
	s0.448,1,1,1h17.586L3.293,43.293c-0.391,0.391-0.391,1.023,0,1.414C3.488,44.902,3.744,45,4,45z"/>
</svg>
