<?xml version="1.0" encoding="utf-8"?>
<!-- Generator: Adobe Illustrator 19.2.1, SVG Export Plug-In . SVG Version: 6.00 Build 0)  -->
<!DOCTYPE svg PUBLIC "-//W3C//DTD SVG 1.1//EN" "http://www.w3.org/Graphics/SVG/1.1/DTD/svg11.dtd">
<svg version="1.1" id="Layer_1" xmlns="http://www.w3.org/2000/svg" xmlns:xlink="http://www.w3.org/1999/xlink" x="0px" y="0px"
	 width="48px" height="48px" viewBox="0 0 48 48" enable-background="new 0 0 48 48" xml:space="preserve">
<path d="M2.294,13.708l9.999,9.999C12.488,23.902,12.744,24,13,24s0.512-0.098,0.707-0.293c0.391-0.391,0.391-1.023,0-1.414
	L5.414,14H23c6.065,0,11,4.935,11,11v17.586l-8.293-8.293c-0.391-0.391-1.023-0.391-1.414,0s-0.391,1.023,0,1.414l9.999,9.999
	c0.092,0.093,0.203,0.166,0.326,0.217C34.74,45.973,34.87,46,35,46s0.26-0.027,0.382-0.077c0.123-0.051,0.233-0.124,0.326-0.217
	l9.999-9.999c0.391-0.391,0.391-1.023,0-1.414s-1.023-0.391-1.414,0L36,42.586V25c0-7.168-5.832-13-13-13H5.414l8.293-8.293
	c0.391-0.391,0.391-1.023,0-1.414s-1.023-0.391-1.414,0l-9.999,9.999c-0.093,0.092-0.166,0.203-0.217,0.326
	c-0.101,0.244-0.101,0.52,0,0.764C2.128,13.505,2.201,13.616,2.294,13.708z"/>
</svg>
