<?xml version="1.0" encoding="utf-8"?>
<!-- Generator: Adobe Illustrator 19.2.1, SVG Export Plug-In . SVG Version: 6.00 Build 0)  -->
<!DOCTYPE svg PUBLIC "-//W3C//DTD SVG 1.1//EN" "http://www.w3.org/Graphics/SVG/1.1/DTD/svg11.dtd">
<svg version="1.1" id="Layer_1" xmlns="http://www.w3.org/2000/svg" xmlns:xlink="http://www.w3.org/1999/xlink" x="0px" y="0px"
	 width="48px" height="48px" viewBox="0 0 48 48" enable-background="new 0 0 48 48" xml:space="preserve">
<path d="M45.923,24.382c0.101-0.244,0.101-0.52,0-0.764c-0.051-0.123-0.124-0.233-0.217-0.326l-9.999-9.999
	c-0.391-0.391-1.023-0.391-1.414,0s-0.391,1.023,0,1.414L42.586,23H23c-0.552,0-1,0.447-1,1s0.448,1,1,1h19.586l-8.293,8.293
	c-0.391,0.391-0.391,1.023,0,1.414C34.488,34.902,34.744,35,35,35s0.512-0.098,0.707-0.293l9.999-9.999
	C45.799,24.616,45.872,24.505,45.923,24.382z"/>
<path d="M2,47h13c0.552,0,1-0.447,1-1V2c0-0.553-0.448-1-1-1H2C1.448,1,1,1.447,1,2v44C1,46.553,1.448,47,2,47z M3,3h11v42H3V3z"/>
</svg>
