<?xml version="1.0" encoding="utf-8"?>
<!-- Generator: Adobe Illustrator 19.2.1, SVG Export Plug-In . SVG Version: 6.00 Build 0)  -->
<!DOCTYPE svg PUBLIC "-//W3C//DTD SVG 1.1//EN" "http://www.w3.org/Graphics/SVG/1.1/DTD/svg11.dtd">
<svg version="1.1" id="Layer_1" xmlns="http://www.w3.org/2000/svg" xmlns:xlink="http://www.w3.org/1999/xlink" x="0px" y="0px"
	 width="48px" height="48px" viewBox="0 0 48 48" enable-background="new 0 0 48 48" xml:space="preserve">
<path d="M30.707,29.288c-0.391-0.391-1.023-0.391-1.414,0L25,33.581V19.995c0-0.553-0.448-1-1-1s-1,0.447-1,1v13.586l-4.293-4.293
	c-0.391-0.391-1.023-0.391-1.414,0s-0.391,1.023,0,1.414l5.999,5.999c0.092,0.093,0.203,0.166,0.326,0.217
	c0.122,0.051,0.252,0.077,0.382,0.077s0.26-0.027,0.382-0.077c0.123-0.051,0.233-0.124,0.326-0.217l5.999-5.999
	C31.098,30.312,31.098,29.679,30.707,29.288z"/>
<path d="M38.863,21.036C37.89,13.093,31.089,6.995,23,6.995c-8.3,0-15.157,6.318-15.912,14.511C3.469,22.741,1,26.134,1,29.995
	c0,4.963,4.038,9,9,9h6c0.552,0,1-0.447,1-1s-0.448-1-1-1h-6c-3.86,0-7-3.141-7-7c0-3.19,2.172-5.97,5.283-6.759
	c0.426-0.108,0.731-0.482,0.753-0.922C9.396,14.846,15.529,8.995,23,8.995c7.341,0,13.47,5.741,13.952,13.07
	C36.986,22.591,37.423,23,37.95,23c0.026,0,0.062-0.002,0.095-0.005c3.839,0.024,6.955,3.155,6.955,7c0,3.859-3.14,7-7,7h-6
	c-0.552,0-1,0.447-1,1s0.448,1,1,1h6c4.962,0,9-4.037,9-9C47,25.323,43.422,21.472,38.863,21.036z"/>
</svg>
