<?xml version="1.0" encoding="utf-8"?>
<!-- Generator: Adobe Illustrator 19.2.1, SVG Export Plug-In . SVG Version: 6.00 Build 0)  -->
<!DOCTYPE svg PUBLIC "-//W3C//DTD SVG 1.1//EN" "http://www.w3.org/Graphics/SVG/1.1/DTD/svg11.dtd">
<svg version="1.1" id="Layer_1" xmlns="http://www.w3.org/2000/svg" xmlns:xlink="http://www.w3.org/1999/xlink" x="0px" y="0px"
	 width="48px" height="48px" viewBox="0 0 48 48" enable-background="new 0 0 48 48" xml:space="preserve">
<path d="M44,23c-0.552,0-1,0.447-1,1c0,10.477-8.523,19-19,19S5,34.477,5,24S13.523,5,24,5c6.644,0,12.687,3.407,16.141,8.984
	l-9.913-1.327c-0.544-0.066-1.051,0.312-1.124,0.858c-0.073,0.548,0.311,1.051,0.858,1.124l11.894,1.593
	c0.045,0.006,0.09,0.009,0.134,0.009c0.493,0,0.922-0.365,0.99-0.867l1.593-11.894c0.073-0.548-0.311-1.051-0.858-1.124
	c-0.543-0.069-1.051,0.312-1.124,0.858l-1.207,9.011C37.504,6.48,31.06,3,24,3C12.42,3,3,12.421,3,24s9.42,21,21,21s21-9.421,21-21
	C45,23.447,44.552,23,44,23z"/>
<path d="M23,14v9h-9c-0.552,0-1,0.447-1,1s0.448,1,1,1h10c0.552,0,1-0.447,1-1V14c0-0.553-0.448-1-1-1S23,13.447,23,14z"/>
</svg>
