<?xml version="1.0" encoding="utf-8"?>
<!-- Generator: Adobe Illustrator 19.2.1, SVG Export Plug-In . SVG Version: 6.00 Build 0)  -->
<!DOCTYPE svg PUBLIC "-//W3C//DTD SVG 1.1//EN" "http://www.w3.org/Graphics/SVG/1.1/DTD/svg11.dtd">
<svg version="1.1" id="Layer_1" xmlns="http://www.w3.org/2000/svg" xmlns:xlink="http://www.w3.org/1999/xlink" x="0px" y="0px"
	 width="48px" height="48px" viewBox="0 0 48 48" enable-background="new 0 0 48 48" xml:space="preserve">
<path d="M45.707,23.293l-10-10c-0.391-0.391-1.023-0.391-1.414,0s-0.391,1.023,0,1.414L42.586,23H5.414l8.293-8.293
	c0.391-0.391,0.391-1.023,0-1.414s-1.023-0.391-1.414,0l-10,10c-0.092,0.092-0.165,0.203-0.216,0.325
	c-0.101,0.245-0.101,0.52,0,0.764c0.051,0.122,0.124,0.233,0.216,0.325l10,10C12.488,34.902,12.744,35,13,35
	s0.512-0.098,0.707-0.293c0.391-0.391,0.391-1.023,0-1.414L5.414,25h37.172l-8.293,8.293c-0.391,0.391-0.391,1.023,0,1.414
	C34.488,34.902,34.744,35,35,35s0.512-0.098,0.707-0.293l10-10c0.092-0.092,0.165-0.203,0.216-0.325c0.101-0.245,0.101-0.52,0-0.764
	C45.872,23.495,45.799,23.385,45.707,23.293z"/>
</svg>
