<?xml version="1.0" encoding="utf-8"?>
<!-- Generator: Adobe Illustrator 19.2.1, SVG Export Plug-In . SVG Version: 6.00 Build 0)  -->
<!DOCTYPE svg PUBLIC "-//W3C//DTD SVG 1.1//EN" "http://www.w3.org/Graphics/SVG/1.1/DTD/svg11.dtd">
<svg version="1.1" id="Layer_1" xmlns="http://www.w3.org/2000/svg" xmlns:xlink="http://www.w3.org/1999/xlink" x="0px" y="0px"
	 width="48px" height="48px" viewBox="0 0 48 48" enable-background="new 0 0 48 48" xml:space="preserve">
<path d="M2.293,16.707l12,12C14.488,28.902,14.744,29,15,29s0.512-0.098,0.707-0.293c0.391-0.391,0.391-1.023,0-1.414L5.414,17H33
	c6.065,0,11,4.935,11,11v16c0,0.552,0.448,1,1,1s1-0.448,1-1V28c0-7.168-5.832-13-13-13H5.414L15.707,4.707
	c0.391-0.391,0.391-1.023,0-1.414s-1.023-0.391-1.414,0l-12,12c-0.092,0.092-0.165,0.203-0.216,0.325
	c-0.101,0.245-0.101,0.52,0,0.764C2.128,16.505,2.201,16.615,2.293,16.707z"/>
</svg>
