<?xml version="1.0" encoding="utf-8"?>
<!-- Generator: Adobe Illustrator 19.2.1, SVG Export Plug-In . SVG Version: 6.00 Build 0)  -->
<!DOCTYPE svg PUBLIC "-//W3C//DTD SVG 1.1//EN" "http://www.w3.org/Graphics/SVG/1.1/DTD/svg11.dtd">
<svg version="1.1" id="Layer_1" xmlns="http://www.w3.org/2000/svg" xmlns:xlink="http://www.w3.org/1999/xlink" x="0px" y="0px"
	 width="48px" height="48px" viewBox="0 0 48 48" enable-background="new 0 0 48 48" xml:space="preserve">
<path d="M31.293,25.293L25,31.586V12c0-0.552-0.448-1-1-1s-1,0.448-1,1v19.586l-6.293-6.293c-0.391-0.391-1.023-0.391-1.414,0
	s-0.391,1.023,0,1.414l8,8c0.092,0.092,0.203,0.165,0.325,0.216C23.74,34.973,23.87,35,24,35s0.26-0.027,0.382-0.077
	c0.122-0.051,0.233-0.124,0.325-0.216l8-8c0.391-0.391,0.391-1.023,0-1.414S31.684,24.902,31.293,25.293z"/>
<path d="M24,1C11.318,1,1,11.318,1,24s10.318,23,23,23s23-10.318,23-23S36.682,1,24,1z M24,45C12.42,45,3,35.58,3,24S12.42,3,24,3
	s21,9.42,21,21S35.58,45,24,45z"/>
</svg>
