<?xml version="1.0" encoding="utf-8"?>
<!-- Generator: Adobe Illustrator 19.2.1, SVG Export Plug-In . SVG Version: 6.00 Build 0)  -->
<!DOCTYPE svg PUBLIC "-//W3C//DTD SVG 1.1//EN" "http://www.w3.org/Graphics/SVG/1.1/DTD/svg11.dtd">
<svg version="1.1" id="Layer_1" xmlns="http://www.w3.org/2000/svg" xmlns:xlink="http://www.w3.org/1999/xlink" x="0px" y="0px"
	 width="48px" height="48px" viewBox="0 0 48 48" enable-background="new 0 0 48 48" xml:space="preserve">
<path fill="#222221" d="M2,15c0.553,0,1-0.447,1-1V4.414l20,20V46c0,0.553,0.447,1,1,1s1-0.447,1-1V24
	c0-0.266-0.105-0.52-0.293-0.707L4.414,3H14c0.553,0,1-0.447,1-1s-0.447-1-1-1H2C1.87,1,1.74,1.026,1.618,1.077
	c-0.245,0.101-0.44,0.296-0.541,0.541C1.026,1.74,1,1.87,1,2v12C1,14.553,1.447,15,2,15z"/>
<path fill="#222221" d="M46.382,1.077C46.26,1.026,46.13,1,46,1H34c-0.553,0-1,0.447-1,1s0.447,1,1,1h9.586L29.293,17.293
	c-0.391,0.391-0.391,1.023,0,1.414C29.488,18.902,29.744,19,30,19s0.512-0.098,0.707-0.293L45,4.414V14c0,0.553,0.447,1,1,1
	s1-0.447,1-1V2c0-0.13-0.026-0.26-0.077-0.382C46.822,1.373,46.627,1.178,46.382,1.077z"/>
</svg>
