<?xml version="1.0" encoding="utf-8"?>
<!-- Generator: Adobe Illustrator 19.2.1, SVG Export Plug-In . SVG Version: 6.00 Build 0)  -->
<!DOCTYPE svg PUBLIC "-//W3C//DTD SVG 1.1//EN" "http://www.w3.org/Graphics/SVG/1.1/DTD/svg11.dtd">
<svg version="1.1" id="Layer_1" xmlns="http://www.w3.org/2000/svg" xmlns:xlink="http://www.w3.org/1999/xlink" x="0px" y="0px"
	 width="48px" height="48px" viewBox="0 0 48 48" enable-background="new 0 0 48 48" xml:space="preserve">
<path d="M2.077,34.618c-0.101,0.245-0.101,0.52,0,0.764c0.051,0.122,0.124,0.233,0.216,0.325l10,10C12.488,45.902,12.744,46,13,46
	s0.512-0.098,0.707-0.293c0.391-0.391,0.391-1.023,0-1.414L5.414,36H35c0.552,0,1-0.448,1-1V5.414l8.293,8.293
	C44.488,13.902,44.744,14,45,14s0.512-0.098,0.707-0.293c0.391-0.391,0.391-1.023,0-1.414l-10-10
	c-0.092-0.092-0.203-0.165-0.325-0.216c-0.245-0.101-0.52-0.101-0.764,0c-0.122,0.051-0.233,0.124-0.325,0.216l-10,10
	c-0.391,0.391-0.391,1.023,0,1.414s1.023,0.391,1.414,0L34,5.414V34H5.414l8.293-8.293c0.391-0.391,0.391-1.023,0-1.414
	s-1.023-0.391-1.414,0l-10,10C2.201,34.385,2.128,34.495,2.077,34.618z"/>
</svg>
