<?xml version="1.0" encoding="utf-8"?>
<!-- Generator: Adobe Illustrator 19.2.1, SVG Export Plug-In . SVG Version: 6.00 Build 0)  -->
<!DOCTYPE svg PUBLIC "-//W3C//DTD SVG 1.1//EN" "http://www.w3.org/Graphics/SVG/1.1/DTD/svg11.dtd">
<svg version="1.1" id="Layer_1" xmlns="http://www.w3.org/2000/svg" xmlns:xlink="http://www.w3.org/1999/xlink" x="0px" y="0px"
	 width="48px" height="48px" viewBox="0 0 48 48" enable-background="new 0 0 48 48" xml:space="preserve">
<path fill="#222221" d="M46.382,1.077C46.26,1.027,46.13,1,46,1H30c-0.552,0-1,0.448-1,1s0.448,1,1,1h13.586L23.293,23.293
	c-0.391,0.391-0.391,1.023,0,1.414C23.488,24.902,23.744,25,24,25s0.512-0.098,0.707-0.293L45,4.414V18c0,0.552,0.448,1,1,1
	s1-0.448,1-1V2c0-0.13-0.027-0.26-0.077-0.382C46.821,1.373,46.627,1.179,46.382,1.077z"/>
<path fill="#222221" d="M46,29c-0.552,0-1,0.448-1,1l0,15H3V3h15c0.552,0,1-0.448,1-1s-0.448-1-1-1H2C1.448,1,1,1.448,1,2v44
	c0,0.552,0.448,1,1,1h44c0.552,0,1-0.448,1-1l0-16C47,29.448,46.552,29,46,29z"/>
</svg>
