<?xml version="1.0" encoding="utf-8"?>
<!-- Generator: Adobe Illustrator 19.2.1, SVG Export Plug-In . SVG Version: 6.00 Build 0)  -->
<!DOCTYPE svg PUBLIC "-//W3C//DTD SVG 1.1//EN" "http://www.w3.org/Graphics/SVG/1.1/DTD/svg11.dtd">
<svg version="1.1" id="Layer_1" xmlns="http://www.w3.org/2000/svg" xmlns:xlink="http://www.w3.org/1999/xlink" x="0px" y="0px"
	 width="48px" height="48px" viewBox="0 0 48 48" enable-background="new 0 0 48 48" xml:space="preserve">
<path d="M43,44V4c0-0.553-0.447-1-1-1s-1,0.447-1,1v40c0,0.553,0.447,1,1,1S43,44.553,43,44z"/>
<path d="M5.542,3.11C5.209,3.282,5,3.625,5,4v40c0,0.375,0.209,0.718,0.542,0.89C5.687,44.964,5.844,45,6,45
	c0.205,0,0.408-0.062,0.581-0.187l28-20C34.844,24.626,35,24.323,35,24s-0.156-0.626-0.419-0.813l-28-20
	C6.276,2.968,5.876,2.94,5.542,3.11z M7,5.943L32.279,24L7,42.057V5.943z"/>
</svg>
