<?xml version="1.0" encoding="utf-8"?>
<!-- Generator: Adobe Illustrator 19.2.1, SVG Export Plug-In . SVG Version: 6.00 Build 0)  -->
<!DOCTYPE svg PUBLIC "-//W3C//DTD SVG 1.1//EN" "http://www.w3.org/Graphics/SVG/1.1/DTD/svg11.dtd">
<svg version="1.1" id="Layer_1" xmlns="http://www.w3.org/2000/svg" xmlns:xlink="http://www.w3.org/1999/xlink" x="0px" y="0px"
	 width="48px" height="48px" viewBox="0 0 48 48" enable-background="new 0 0 48 48" xml:space="preserve">
<path d="M46,1H2C1.447,1,1,1.448,1,2v44c0,0.552,0.447,1,1,1h44c0.553,0,1-0.448,1-1V2C47,1.448,46.553,1,46,1z M45,45H3V3h42V45z"
	/>
<path d="M16.707,22.707L23,16.414V36c0,0.552,0.447,1,1,1s1-0.448,1-1V16.414l6.293,6.293C31.488,22.902,31.744,23,32,23
	s0.512-0.098,0.707-0.293c0.391-0.391,0.391-1.023,0-1.414l-7.999-7.999c-0.092-0.093-0.203-0.166-0.326-0.217
	c-0.244-0.101-0.52-0.101-0.764,0c-0.123,0.051-0.233,0.124-0.326,0.217l-7.999,7.999c-0.391,0.391-0.391,1.023,0,1.414
	S16.316,23.098,16.707,22.707z"/>
</svg>
