<?xml version="1.0" encoding="utf-8"?>
<!-- Generator: Adobe Illustrator 19.2.1, SVG Export Plug-In . SVG Version: 6.00 Build 0)  -->
<!DOCTYPE svg PUBLIC "-//W3C//DTD SVG 1.1//EN" "http://www.w3.org/Graphics/SVG/1.1/DTD/svg11.dtd">
<svg version="1.1" id="Layer_1" xmlns="http://www.w3.org/2000/svg" xmlns:xlink="http://www.w3.org/1999/xlink" x="0px" y="0px"
	 width="48px" height="48px" viewBox="0 0 48 48" enable-background="new 0 0 48 48" xml:space="preserve">
<path d="M30,7c-6.035,0-11.671,3.256-14.707,8.499c-0.277,0.478-0.114,1.09,0.364,1.367c0.476,0.276,1.089,0.113,1.366-0.364
	C19.704,11.875,24.676,9,30,9c8.271,0,15,6.729,15,15s-6.729,15-15,15c-5.324,0-10.296-2.875-12.977-7.501
	c-0.276-0.477-0.89-0.639-1.366-0.364c-0.479,0.277-0.642,0.889-0.364,1.367C18.329,37.744,23.965,41,30,41c9.374,0,17-7.626,17-17
	S39.374,7,30,7z"/>
<path d="M2,25h31.586l-5.293,5.293c-0.391,0.391-0.391,1.023,0,1.414C28.488,31.902,28.744,32,29,32s0.512-0.098,0.707-0.293
	l6.999-6.999c0.093-0.092,0.166-0.203,0.217-0.326c0.101-0.244,0.101-0.52,0-0.764c-0.051-0.123-0.124-0.233-0.217-0.326
	l-6.999-6.999c-0.391-0.391-1.023-0.391-1.414,0s-0.391,1.023,0,1.414L33.586,23H2c-0.553,0-1,0.448-1,1S1.447,25,2,25z"/>
</svg>
