<?xml version="1.0" encoding="utf-8"?>
<!-- Generator: Adobe Illustrator 19.2.1, SVG Export Plug-In . SVG Version: 6.00 Build 0)  -->
<!DOCTYPE svg PUBLIC "-//W3C//DTD SVG 1.1//EN" "http://www.w3.org/Graphics/SVG/1.1/DTD/svg11.dtd">
<svg version="1.1" id="Layer_1" xmlns="http://www.w3.org/2000/svg" xmlns:xlink="http://www.w3.org/1999/xlink" x="0px" y="0px"
	 width="48px" height="48px" viewBox="0 0 48 48" enable-background="new 0 0 48 48" xml:space="preserve">
<path d="M2,38h6c0.553,0,1-0.447,1-1s-0.447-1-1-1H3V12h26.586l-5.293,5.293c-0.391,0.391-0.391,1.023,0,1.414
	C24.488,18.902,24.744,19,25,19s0.512-0.098,0.707-0.293l6.999-6.999c0.093-0.092,0.166-0.203,0.217-0.326
	c0.101-0.244,0.101-0.519,0-0.764c-0.051-0.123-0.125-0.234-0.217-0.327l-6.999-6.999c-0.391-0.391-1.023-0.391-1.414,0
	s-0.391,1.023,0,1.414L29.586,10H2c-0.553,0-1,0.447-1,1v26C1,37.553,1.447,38,2,38z"/>
<path d="M46,10h-6c-0.553,0-1,0.447-1,1s0.447,1,1,1h5v24H18.414l5.293-5.293c0.391-0.391,0.391-1.023,0-1.414s-1.023-0.391-1.414,0
	l-6.999,6.999c-0.093,0.092-0.166,0.203-0.217,0.326c-0.101,0.244-0.101,0.52,0,0.764c0.051,0.123,0.124,0.234,0.217,0.326
	l6.999,6.999C22.488,44.902,22.744,45,23,45s0.512-0.098,0.707-0.293c0.391-0.391,0.391-1.023,0-1.414L18.414,38H46
	c0.553,0,1-0.447,1-1V11C47,10.447,46.553,10,46,10z"/>
</svg>
