<?xml version="1.0" encoding="utf-8"?>
<!-- Generator: Adobe Illustrator 19.2.1, SVG Export Plug-In . SVG Version: 6.00 Build 0)  -->
<!DOCTYPE svg PUBLIC "-//W3C//DTD SVG 1.1//EN" "http://www.w3.org/Graphics/SVG/1.1/DTD/svg11.dtd">
<svg version="1.1" id="Layer_1" xmlns="http://www.w3.org/2000/svg" xmlns:xlink="http://www.w3.org/1999/xlink" x="0px" y="0px"
	 width="48px" height="48px" viewBox="0 0 48 48" enable-background="new 0 0 48 48" xml:space="preserve">
<path fill="#222221" d="M2,35c0.553,0,1-0.448,1-1V18C3,9.729,9.729,3,18,3s15,6.729,15,15v23.586l-8.293-8.293
	c-0.391-0.391-1.023-0.391-1.414,0s-0.391,1.023,0,1.414l9.999,9.999c0.092,0.093,0.203,0.166,0.326,0.217
	C33.74,44.973,33.87,45,34,45s0.26-0.027,0.382-0.077c0.123-0.051,0.233-0.124,0.326-0.217l9.999-9.999
	c0.391-0.391,0.391-1.023,0-1.414s-1.023-0.391-1.414,0L35,41.586V18c0-9.374-7.626-17-17-17S1,8.626,1,18v16
	C1,34.552,1.447,35,2,35z"/>
</svg>
