<?xml version="1.0" encoding="utf-8"?>
<!-- Generator: Adobe Illustrator 19.2.1, SVG Export Plug-In . SVG Version: 6.00 Build 0)  -->
<!DOCTYPE svg PUBLIC "-//W3C//DTD SVG 1.1//EN" "http://www.w3.org/Graphics/SVG/1.1/DTD/svg11.dtd">
<svg version="1.1" id="Layer_1" xmlns="http://www.w3.org/2000/svg" xmlns:xlink="http://www.w3.org/1999/xlink" x="0px" y="0px"
	 width="48px" height="48px" viewBox="0 0 48 48" enable-background="new 0 0 48 48" xml:space="preserve">
<path d="M2,31h26h14.586l-6.293,6.293c-0.391,0.391-0.391,1.023,0,1.414C36.488,38.902,36.744,39,37,39s0.512-0.098,0.707-0.293l8-8
	c0.092-0.092,0.165-0.203,0.216-0.325c0.101-0.245,0.101-0.52,0-0.764c-0.051-0.122-0.124-0.233-0.216-0.325l-8-8
	c-0.391-0.391-1.023-0.391-1.414,0s-0.391,1.023,0,1.414L42.586,29H28.46l-8.708-10.159C17.66,16.4,14.616,15,11.401,15H6
	c-0.552,0-1,0.448-1,1s0.448,1,1,1h5.401c2.63,0,5.121,1.146,6.833,3.143L25.826,29H2c-0.552,0-1,0.448-1,1S1.448,31,2,31z"/>
</svg>
