<?xml version="1.0" encoding="utf-8"?>
<!-- Generator: Adobe Illustrator 19.2.1, SVG Export Plug-In . SVG Version: 6.00 Build 0)  -->
<!DOCTYPE svg PUBLIC "-//W3C//DTD SVG 1.1//EN" "http://www.w3.org/Graphics/SVG/1.1/DTD/svg11.dtd">
<svg version="1.1" id="Layer_1" xmlns="http://www.w3.org/2000/svg" xmlns:xlink="http://www.w3.org/1999/xlink" x="0px" y="0px"
	 width="48px" height="48px" viewBox="0 0 48 48" enable-background="new 0 0 48 48" xml:space="preserve">
<path d="M28.686,5.271c-0.292-0.273-0.716-0.35-1.082-0.189C27.237,5.24,27,5.601,27,6v9.013C18.434,15.222,1,18.318,1,40
	c0,0.452,0.303,0.848,0.74,0.966C1.826,40.989,1.914,41,2,41c0.35,0,0.682-0.184,0.864-0.497C7.996,31.684,13.27,29.119,27,29.004
	V38c0,0.399,0.237,0.76,0.604,0.918c0.365,0.16,0.792,0.084,1.082-0.189l17-16C45.886,22.539,46,22.275,46,22
	s-0.114-0.539-0.314-0.729L28.686,5.271z M29,35.686V28c0-0.553-0.448-1-1-1c-13.363,0-19.634,2.166-24.788,9.278
	C4.205,27.804,9.166,17,28,17c0.552,0,1-0.447,1-1V8.314L43.541,22L29,35.686z"/>
</svg>
