<?xml version="1.0" encoding="utf-8"?>
<!-- Generator: Adobe Illustrator 19.2.1, SVG Export Plug-In . SVG Version: 6.00 Build 0)  -->
<!DOCTYPE svg PUBLIC "-//W3C//DTD SVG 1.1//EN" "http://www.w3.org/Graphics/SVG/1.1/DTD/svg11.dtd">
<svg version="1.1" id="Layer_1" xmlns="http://www.w3.org/2000/svg" xmlns:xlink="http://www.w3.org/1999/xlink" x="0px" y="0px"
	 width="48px" height="48px" viewBox="0 0 48 48" enable-background="new 0 0 48 48" xml:space="preserve">
<path d="M24,1c-0.553,0-1,0.447-1,1v16.586l-5.293-5.293c-0.391-0.391-1.023-0.391-1.414,0s-0.391,1.023,0,1.414l6.999,6.999
	c0.092,0.093,0.203,0.166,0.326,0.217C23.74,21.974,23.87,22,24,22s0.26-0.026,0.382-0.077c0.123-0.051,0.234-0.124,0.326-0.217
	l6.999-6.999c0.391-0.391,0.391-1.023,0-1.414s-1.023-0.391-1.414,0L25,18.586V2C25,1.447,24.553,1,24,1z"/>
<path d="M28,37h-8c-0.553,0-1,0.447-1,1s0.447,1,1,1h8c0.553,0,1-0.447,1-1S28.553,37,28,37z"/>
<path d="M46,11h-7c-0.553,0-1,0.447-1,1s0.447,1,1,1h6v16H3V13h6c0.553,0,1-0.447,1-1s-0.447-1-1-1H2c-0.553,0-1,0.447-1,1v34
	c0,0.553,0.447,1,1,1h44c0.553,0,1-0.447,1-1V12C47,11.447,46.553,11,46,11z M3,45V31h42v14H3z"/>
</svg>
