<?xml version="1.0" encoding="utf-8"?>
<!-- Generator: Adobe Illustrator 19.2.1, SVG Export Plug-In . SVG Version: 6.00 Build 0)  -->
<!DOCTYPE svg PUBLIC "-//W3C//DTD SVG 1.1//EN" "http://www.w3.org/Graphics/SVG/1.1/DTD/svg11.dtd">
<svg version="1.1" id="Layer_1" xmlns="http://www.w3.org/2000/svg" xmlns:xlink="http://www.w3.org/1999/xlink" x="0px" y="0px"
	 width="48px" height="48px" viewBox="0 0 48 48" enable-background="new 0 0 48 48" xml:space="preserve">
<path d="M46,23H21v-9c0-0.375-0.209-0.718-0.542-0.889c-0.335-0.172-0.735-0.142-1.039,0.075l-14,10C5.156,23.374,5,23.677,5,24
	s0.156,0.626,0.419,0.814l14,10C19.592,34.937,19.795,35,20,35c0.156,0,0.313-0.037,0.458-0.111C20.791,34.718,21,34.375,21,34v-9
	h25c0.553,0,1-0.448,1-1S46.553,23,46,23z M19,32.057L7.721,24L19,15.943V32.057z"/>
</svg>
