<?xml version="1.0" encoding="utf-8"?>
<!-- Generator: Adobe Illustrator 19.2.1, SVG Export Plug-In . SVG Version: 6.00 Build 0)  -->
<!DOCTYPE svg PUBLIC "-//W3C//DTD SVG 1.1//EN" "http://www.w3.org/Graphics/SVG/1.1/DTD/svg11.dtd">
<svg version="1.1" id="Layer_1" xmlns="http://www.w3.org/2000/svg" xmlns:xlink="http://www.w3.org/1999/xlink" x="0px" y="0px"
	 width="48px" height="48px" viewBox="0 0 48 48" enable-background="new 0 0 48 48" xml:space="preserve">
<path d="M31,25c0.256,0,0.512-0.098,0.707-0.293c0.391-0.391,0.391-1.023,0-1.414l-6.999-6.999
	c-0.092-0.093-0.203-0.166-0.326-0.217c-0.244-0.101-0.52-0.101-0.764,0c-0.123,0.051-0.233,0.124-0.326,0.217l-6.999,6.999
	c-0.391,0.391-0.391,1.023,0,1.414s1.023,0.391,1.414,0L23,19.414V45c0,0.553,0.448,1,1,1s1-0.447,1-1V19.414l5.293,5.293
	C30.488,24.902,30.744,25,31,25z"/>
<path d="M38.863,16.041C37.89,8.098,31.089,2,23,2C14.7,2,7.843,8.318,7.088,16.511C3.469,17.746,1,21.139,1,25c0,4.963,4.038,9,9,9
	h6c0.552,0,1-0.447,1-1s-0.448-1-1-1h-6c-3.86,0-7-3.141-7-7c0-3.19,2.172-5.97,5.283-6.759c0.426-0.108,0.731-0.482,0.753-0.922
	C9.396,9.851,15.529,4,23,4c7.341,0,13.47,5.741,13.952,13.07c0.035,0.525,0.471,0.935,0.998,0.935c0.026,0,0.062-0.002,0.095-0.005
	C41.884,18.024,45,21.155,45,25c0,3.859-3.14,7-7,7h-6c-0.552,0-1,0.447-1,1s0.448,1,1,1h6c4.962,0,9-4.037,9-9
	C47,20.328,43.422,16.477,38.863,16.041z"/>
</svg>
