<?xml version="1.0" encoding="utf-8"?>
<!-- Generator: Adobe Illustrator 19.2.1, SVG Export Plug-In . SVG Version: 6.00 Build 0)  -->
<!DOCTYPE svg PUBLIC "-//W3C//DTD SVG 1.1//EN" "http://www.w3.org/Graphics/SVG/1.1/DTD/svg11.dtd">
<svg version="1.1" id="Layer_1" xmlns="http://www.w3.org/2000/svg" xmlns:xlink="http://www.w3.org/1999/xlink" x="0px" y="0px"
	 width="48px" height="48px" viewBox="0 0 48 48" enable-background="new 0 0 48 48" xml:space="preserve">
<path d="M46,1H2C1.447,1,1,1.448,1,2v44c0,0.552,0.447,1,1,1h44c0.553,0,1-0.448,1-1V2C47,1.448,46.553,1,46,1z M45,45H3V3h42V45z"
	/>
<path d="M10,23c0.553,0,1-0.448,1-1v-9.586l10.293,10.293C21.488,22.902,21.744,23,22,23s0.512-0.098,0.707-0.293
	c0.391-0.391,0.391-1.023,0-1.414L12.414,11H22c0.553,0,1-0.448,1-1s-0.447-1-1-1H10C9.87,9,9.74,9.027,9.618,9.077
	c-0.245,0.101-0.44,0.296-0.541,0.541C9.027,9.74,9,9.87,9,10v12C9,22.552,9.447,23,10,23z"/>
<path d="M28,39h10c0.553,0,1-0.448,1-1V28c0-0.552-0.447-1-1-1H28c-0.553,0-1,0.448-1,1v10C27,38.552,27.447,39,28,39z M29,29h8v8
	h-8V29z"/>
</svg>
