<?xml version="1.0" encoding="utf-8"?>
<!-- Generator: Adobe Illustrator 19.2.1, SVG Export Plug-In . SVG Version: 6.00 Build 0)  -->
<!DOCTYPE svg PUBLIC "-//W3C//DTD SVG 1.1//EN" "http://www.w3.org/Graphics/SVG/1.1/DTD/svg11.dtd">
<svg version="1.1" id="Layer_1" xmlns="http://www.w3.org/2000/svg" xmlns:xlink="http://www.w3.org/1999/xlink" x="0px" y="0px"
	 width="48px" height="48px" viewBox="0 0 48 48" enable-background="new 0 0 48 48" xml:space="preserve">
<path d="M44.707,17.293l-8-8c-0.391-0.391-1.023-0.391-1.414,0L24,20.586L12.707,9.293c-0.391-0.391-1.023-0.391-1.414,0l-8,8
	c-0.391,0.391-0.391,1.023,0,1.414l20,20C23.488,38.902,23.744,39,24,39s0.512-0.098,0.707-0.293l20-20
	C45.098,18.316,45.098,17.684,44.707,17.293z M24,36.586L5.414,18L12,11.414l11.293,11.293c0.391,0.391,1.023,0.391,1.414,0
	L36,11.414L42.586,18L24,36.586z"/>
</svg>
