<?xml version="1.0" encoding="utf-8"?>
<!-- Generator: Adobe Illustrator 19.2.1, SVG Export Plug-In . SVG Version: 6.00 Build 0)  -->
<!DOCTYPE svg PUBLIC "-//W3C//DTD SVG 1.1//EN" "http://www.w3.org/Graphics/SVG/1.1/DTD/svg11.dtd">
<svg version="1.1" id="Layer_1" xmlns="http://www.w3.org/2000/svg" xmlns:xlink="http://www.w3.org/1999/xlink" x="0px" y="0px"
	 width="48px" height="48px" viewBox="0 0 48 48" enable-background="new 0 0 48 48" xml:space="preserve">
<path d="M45.707,12.293l-10-10c-0.391-0.391-1.023-0.391-1.414,0s-0.391,1.023,0,1.414L42.586,12H13c-0.552,0-1,0.448-1,1v29.586
	l-8.293-8.293c-0.391-0.391-1.023-0.391-1.414,0s-0.391,1.023,0,1.414l10,10c0.092,0.092,0.203,0.165,0.325,0.216
	C12.74,45.973,12.87,46,13,46s0.26-0.027,0.382-0.077c0.122-0.051,0.233-0.124,0.325-0.216l10-10c0.391-0.391,0.391-1.023,0-1.414
	s-1.023-0.391-1.414,0L14,42.586V14h28.586l-8.293,8.293c-0.391,0.391-0.391,1.023,0,1.414C34.488,23.902,34.744,24,35,24
	s0.512-0.098,0.707-0.293l10-10c0.092-0.092,0.165-0.203,0.216-0.325c0.101-0.245,0.101-0.52,0-0.764
	C45.872,12.495,45.799,12.385,45.707,12.293z"/>
</svg>
