<?xml version="1.0" encoding="utf-8"?>
<!-- Generator: Adobe Illustrator 19.2.1, SVG Export Plug-In . SVG Version: 6.00 Build 0)  -->
<!DOCTYPE svg PUBLIC "-//W3C//DTD SVG 1.1//EN" "http://www.w3.org/Graphics/SVG/1.1/DTD/svg11.dtd">
<svg version="1.1" id="Layer_1" xmlns="http://www.w3.org/2000/svg" xmlns:xlink="http://www.w3.org/1999/xlink" x="0px" y="0px"
	 width="48px" height="48px" viewBox="0 0 48 48" enable-background="new 0 0 48 48" xml:space="preserve">
<path fill="#222221" d="M46,7H30c-0.553,0-1,0.447-1,1s0.447,1,1,1h16c0.553,0,1-0.447,1-1S46.553,7,46,7z"/>
<path fill="#222221" d="M46,21H30c-0.553,0-1,0.447-1,1s0.447,1,1,1h16c0.553,0,1-0.447,1-1S46.553,21,46,21z"/>
<path fill="#222221" d="M46,35H30c-0.553,0-1,0.447-1,1s0.447,1,1,1h16c0.553,0,1-0.447,1-1S46.553,35,46,35z"/>
<path fill="#222221" d="M16,9h6c0.553,0,1-0.447,1-1s-0.447-1-1-1h-6C7.729,7,1,13.729,1,22s6.729,15,15,15h3.586l-6.293,6.293
	c-0.391,0.391-0.391,1.023,0,1.414C13.488,44.902,13.744,45,14,45s0.512-0.098,0.707-0.293l7.999-7.999
	c0.093-0.092,0.166-0.203,0.217-0.326c0.101-0.244,0.101-0.519,0-0.764c-0.051-0.123-0.125-0.234-0.217-0.327l-7.999-7.999
	c-0.391-0.391-1.023-0.391-1.414,0s-0.391,1.023,0,1.414L19.586,35H16C8.832,35,3,29.168,3,22S8.832,9,16,9z"/>
</svg>
