<?xml version="1.0" encoding="utf-8"?>
<!-- Generator: Adobe Illustrator 19.2.1, SVG Export Plug-In . SVG Version: 6.00 Build 0)  -->
<!DOCTYPE svg PUBLIC "-//W3C//DTD SVG 1.1//EN" "http://www.w3.org/Graphics/SVG/1.1/DTD/svg11.dtd">
<svg version="1.1" id="Layer_1" xmlns="http://www.w3.org/2000/svg" xmlns:xlink="http://www.w3.org/1999/xlink" x="0px" y="0px"
	 width="48px" height="48px" viewBox="0 0 48 48" enable-background="new 0 0 48 48" xml:space="preserve">
<path d="M2,15h6.438c1.98,0,3.877,0.845,5.203,2.317l3.019,3.354c0.197,0.22,0.47,0.331,0.743,0.331
	c0.238,0,0.478-0.085,0.669-0.257c0.41-0.369,0.443-1.002,0.074-1.412l-3.019-3.354C13.422,14.086,10.984,13,8.438,13H2
	c-0.553,0-1,0.447-1,1S1.447,15,2,15z"/>
<path d="M44.706,13.292l-5.999-5.999c-0.391-0.391-1.023-0.391-1.414,0s-0.391,1.023,0,1.414L41.586,13h-8.023
	c-2.547,0-4.984,1.086-6.689,2.979L13.641,30.683C12.314,32.155,10.418,33,8.438,33H2c-0.553,0-1,0.447-1,1s0.447,1,1,1h6.438
	c2.547,0,4.984-1.086,6.689-2.979l13.232-14.703C29.686,15.845,31.582,15,33.562,15h8.023l-4.293,4.293
	c-0.391,0.391-0.391,1.023,0,1.414C37.488,20.902,37.744,21,38,21s0.512-0.098,0.707-0.293l5.999-5.999
	c0.093-0.092,0.166-0.203,0.217-0.326c0.101-0.244,0.101-0.519,0-0.764C44.872,13.495,44.799,13.384,44.706,13.292z"/>
<path d="M44.923,33.618c-0.051-0.123-0.125-0.234-0.217-0.327l-5.999-5.999c-0.391-0.391-1.023-0.391-1.414,0s-0.391,1.023,0,1.414
	L41.586,33h-8.023c-1.98,0-3.877-0.845-5.203-2.317l-3.018-3.354c-0.369-0.412-1.002-0.443-1.412-0.074s-0.443,1.002-0.074,1.412
	l3.018,3.354C28.578,33.914,31.016,35,33.562,35h8.023l-4.293,4.293c-0.391,0.391-0.391,1.023,0,1.414
	C37.488,40.902,37.744,41,38,41s0.512-0.098,0.707-0.293l5.999-5.999c0.093-0.092,0.166-0.203,0.217-0.326
	C45.024,34.138,45.024,33.862,44.923,33.618z"/>
</svg>
