<?xml version="1.0" encoding="utf-8"?>
<!-- Generator: Adobe Illustrator 19.2.1, SVG Export Plug-In . SVG Version: 6.00 Build 0)  -->
<!DOCTYPE svg PUBLIC "-//W3C//DTD SVG 1.1//EN" "http://www.w3.org/Graphics/SVG/1.1/DTD/svg11.dtd">
<svg version="1.1" id="Layer_1" xmlns="http://www.w3.org/2000/svg" xmlns:xlink="http://www.w3.org/1999/xlink" x="0px" y="0px"
	 width="48px" height="48px" viewBox="0 0 48 48" enable-background="new 0 0 48 48" xml:space="preserve">
<path d="M2,15h9.555l5.103,5.67c0.197,0.22,0.47,0.331,0.743,0.331c0.238,0,0.478-0.085,0.669-0.257
	c0.41-0.369,0.443-1.002,0.074-1.412l-5.4-6.001C12.554,13.12,12.283,13,12,13H2c-0.553,0-1,0.447-1,1S1.447,15,2,15z"/>
<path d="M44.706,13.292l-5.999-5.999c-0.391-0.391-1.023-0.391-1.414,0s-0.391,1.023,0,1.414L41.586,13H30
	c-0.283,0-0.554,0.12-0.743,0.331L11.555,33H2c-0.553,0-1,0.447-1,1s0.447,1,1,1h10c0.283,0,0.554-0.12,0.743-0.331L30.445,15
	h11.141l-4.293,4.293c-0.391,0.391-0.391,1.023,0,1.414C37.488,20.902,37.744,21,38,21s0.512-0.098,0.707-0.293l5.999-5.999
	c0.093-0.092,0.166-0.203,0.217-0.326c0.101-0.244,0.101-0.519,0-0.764C44.872,13.495,44.799,13.384,44.706,13.292z"/>
<path d="M44.923,33.618c-0.051-0.123-0.125-0.234-0.217-0.327l-5.999-5.999c-0.391-0.391-1.023-0.391-1.414,0s-0.391,1.023,0,1.414
	L41.586,33H30.445l-5.101-5.667c-0.37-0.412-1.002-0.444-1.412-0.074c-0.41,0.369-0.443,1.002-0.074,1.412l5.398,5.998
	C29.446,34.88,29.717,35,30,35h11.586l-4.293,4.293c-0.391,0.391-0.391,1.023,0,1.414C37.488,40.902,37.744,41,38,41
	s0.512-0.098,0.707-0.293l5.999-5.999c0.093-0.092,0.166-0.203,0.217-0.326C45.024,34.138,45.024,33.862,44.923,33.618z"/>
</svg>
