<?xml version="1.0" encoding="utf-8"?>
<!-- Generator: Adobe Illustrator 19.2.1, SVG Export Plug-In . SVG Version: 6.00 Build 0)  -->
<!DOCTYPE svg PUBLIC "-//W3C//DTD SVG 1.1//EN" "http://www.w3.org/Graphics/SVG/1.1/DTD/svg11.dtd">
<svg version="1.1" id="Layer_1" xmlns="http://www.w3.org/2000/svg" xmlns:xlink="http://www.w3.org/1999/xlink" x="0px" y="0px"
	 width="48px" height="48px" viewBox="0 0 48 48" enable-background="new 0 0 48 48" xml:space="preserve">
<path d="M37,35c0.552,0,1-0.447,1-1v-8c0-7.168-5.832-13-13-13H13.414l9.293-9.293c0.391-0.391,0.391-1.023,0-1.414
	s-1.023-0.391-1.414,0L10.294,13.292c-0.093,0.092-0.166,0.203-0.217,0.326c-0.101,0.244-0.101,0.52,0,0.764
	c0.051,0.123,0.124,0.233,0.217,0.326l10.999,10.999C21.488,25.902,21.744,26,22,26s0.512-0.098,0.707-0.293
	c0.391-0.391,0.391-1.023,0-1.414L13.414,15H25c6.065,0,11,4.935,11,11v8C36,34.553,36.448,35,37,35z"/>
<path d="M46,45H3v-9c0-0.553-0.448-1-1-1s-1,0.447-1,1v10c0,0.553,0.448,1,1,1h44c0.552,0,1-0.447,1-1S46.552,45,46,45z"/>
</svg>
