<?xml version="1.0" encoding="utf-8"?>
<!-- Generator: Adobe Illustrator 19.2.1, SVG Export Plug-In . SVG Version: 6.00 Build 0)  -->
<!DOCTYPE svg PUBLIC "-//W3C//DTD SVG 1.1//EN" "http://www.w3.org/Graphics/SVG/1.1/DTD/svg11.dtd">
<svg version="1.1" id="Layer_1" xmlns="http://www.w3.org/2000/svg" xmlns:xlink="http://www.w3.org/1999/xlink" x="0px" y="0px"
	 width="48px" height="48px" viewBox="0 0 48 48" enable-background="new 0 0 48 48" xml:space="preserve">
<path d="M46,9H15c-0.292,0-0.569,0.127-0.759,0.349l-12,14c-0.321,0.375-0.321,0.927,0,1.302l12,14C14.431,38.873,14.708,39,15,39
	h31c0.553,0,1-0.448,1-1V10C47,9.448,46.553,9,46,9z M45,37H15.46L4.317,24L15.46,11H45V37z"/>
<path d="M22.293,29.707C22.488,29.902,22.744,30,23,30s0.512-0.098,0.707-0.293L28,25.414l4.293,4.293
	C32.488,29.902,32.744,30,33,30s0.512-0.098,0.707-0.293c0.391-0.391,0.391-1.023,0-1.414L29.414,24l4.293-4.293
	c0.391-0.391,0.391-1.023,0-1.414s-1.023-0.391-1.414,0L28,22.586l-4.293-4.293c-0.391-0.391-1.023-0.391-1.414,0
	s-0.391,1.023,0,1.414L26.586,24l-4.293,4.293C21.902,28.684,21.902,29.316,22.293,29.707z"/>
</svg>
