<?xml version="1.0" encoding="utf-8"?>
<!-- Generator: Adobe Illustrator 19.2.1, SVG Export Plug-In . SVG Version: 6.00 Build 0)  -->
<!DOCTYPE svg PUBLIC "-//W3C//DTD SVG 1.1//EN" "http://www.w3.org/Graphics/SVG/1.1/DTD/svg11.dtd">
<svg version="1.1" id="Layer_1" xmlns="http://www.w3.org/2000/svg" xmlns:xlink="http://www.w3.org/1999/xlink" x="0px" y="0px"
	 width="48px" height="48px" viewBox="0 0 48 48" enable-background="new 0 0 48 48" xml:space="preserve">
<path d="M24,35c0.552,0,1-0.448,1-1V5.414l9.293,9.293C34.488,14.902,34.744,15,35,15s0.512-0.098,0.707-0.293
	c0.391-0.391,0.391-1.023,0-1.414l-11-11c-0.092-0.092-0.203-0.165-0.325-0.216c-0.245-0.101-0.52-0.101-0.764,0
	c-0.122,0.051-0.233,0.124-0.325,0.216l-11,11c-0.391,0.391-0.391,1.023,0,1.414s1.023,0.391,1.414,0L23,5.414V34
	C23,34.552,23.448,35,24,35z"/>
<path d="M46,35c-0.552,0-1,0.448-1,1v9H3v-9c0-0.552-0.448-1-1-1s-1,0.448-1,1v10c0,0.552,0.448,1,1,1h44c0.552,0,1-0.448,1-1V36
	C47,35.448,46.552,35,46,35z"/>
</svg>
