<?xml version="1.0" encoding="utf-8"?>
<!-- Generator: Adobe Illustrator 19.2.1, SVG Export Plug-In . SVG Version: 6.00 Build 0)  -->
<!DOCTYPE svg PUBLIC "-//W3C//DTD SVG 1.1//EN" "http://www.w3.org/Graphics/SVG/1.1/DTD/svg11.dtd">
<svg version="1.1" id="Layer_1" xmlns="http://www.w3.org/2000/svg" xmlns:xlink="http://www.w3.org/1999/xlink" x="0px" y="0px"
	 width="48px" height="48px" viewBox="0 0 48 48" enable-background="new 0 0 48 48" xml:space="preserve">
<path d="M45.707,15.293l-12-12c-0.391-0.391-1.023-0.391-1.414,0s-0.391,1.023,0,1.414L42.586,15H3c-0.552,0-1,0.448-1,1v28
	c0,0.552,0.448,1,1,1s1-0.448,1-1V17h38.586L32.293,27.293c-0.391,0.391-0.391,1.023,0,1.414C32.488,28.902,32.744,29,33,29
	s0.512-0.098,0.707-0.293l12-12c0.092-0.092,0.165-0.203,0.216-0.325c0.101-0.245,0.101-0.52,0-0.764
	C45.872,15.495,45.799,15.385,45.707,15.293z"/>
</svg>
