<?xml version="1.0" encoding="utf-8"?>
<!-- Generator: Adobe Illustrator 19.2.1, SVG Export Plug-In . SVG Version: 6.00 Build 0)  -->
<!DOCTYPE svg PUBLIC "-//W3C//DTD SVG 1.1//EN" "http://www.w3.org/Graphics/SVG/1.1/DTD/svg11.dtd">
<svg version="1.1" id="Layer_1" xmlns="http://www.w3.org/2000/svg" xmlns:xlink="http://www.w3.org/1999/xlink" x="0px" y="0px"
	 width="48px" height="48px" viewBox="0 0 48 48" enable-background="new 0 0 48 48" xml:space="preserve">
<path fill="#222221" d="M46,39H30c-0.553,0-1,0.447-1,1s0.447,1,1,1h16c0.553,0,1-0.447,1-1S46.553,39,46,39z"/>
<path fill="#222221" d="M46,25H30c-0.553,0-1,0.447-1,1s0.447,1,1,1h16c0.553,0,1-0.447,1-1S46.553,25,46,25z"/>
<path fill="#222221" d="M46,11H30c-0.553,0-1,0.447-1,1s0.447,1,1,1h16c0.553,0,1-0.447,1-1S46.553,11,46,11z"/>
<path fill="#222221" d="M13.293,20.707C13.488,20.902,13.744,21,14,21s0.512-0.098,0.707-0.293l7.999-7.999
	c0.093-0.092,0.166-0.203,0.217-0.326c0.101-0.244,0.101-0.519,0-0.764c-0.051-0.123-0.125-0.234-0.217-0.327l-7.999-7.999
	c-0.391-0.391-1.023-0.391-1.414,0s-0.391,1.023,0,1.414L19.586,11H16C7.729,11,1,17.729,1,26s6.729,15,15,15h6c0.553,0,1-0.447,1-1
	s-0.447-1-1-1h-6C8.832,39,3,33.168,3,26s5.832-13,13-13h3.586l-6.293,6.293C12.902,19.684,12.902,20.316,13.293,20.707z"/>
</svg>
