<?xml version="1.0" encoding="utf-8"?>
<!-- Generator: Adobe Illustrator 19.2.1, SVG Export Plug-In . SVG Version: 6.00 Build 0)  -->
<!DOCTYPE svg PUBLIC "-//W3C//DTD SVG 1.1//EN" "http://www.w3.org/Graphics/SVG/1.1/DTD/svg11.dtd">
<svg version="1.1" id="Layer_1" xmlns="http://www.w3.org/2000/svg" xmlns:xlink="http://www.w3.org/1999/xlink" x="0px" y="0px"
	 width="48px" height="48px" viewBox="0 0 48 48" enable-background="new 0 0 48 48" xml:space="preserve">
<path fill="#222221" d="M15.293,11.707c0.391,0.391,1.023,0.391,1.414,0L23,5.414V36c0,0.552,0.448,1,1,1s1-0.448,1-1V5.414
	l6.293,6.293C31.488,11.902,31.744,12,32,12s0.512-0.098,0.707-0.293c0.391-0.391,0.391-1.023,0-1.414l-8-8
	c-0.092-0.092-0.203-0.165-0.325-0.216c-0.245-0.101-0.52-0.101-0.764,0c-0.122,0.051-0.233,0.124-0.325,0.216l-8,8
	C14.902,10.684,14.902,11.316,15.293,11.707z"/>
<path fill="#222221" d="M9.03,21.757l-6,24c-0.075,0.299-0.007,0.615,0.182,0.858S3.692,47,4,47h40c0.308,0,0.599-0.142,0.788-0.385
	s0.257-0.559,0.182-0.858l-6-24C38.859,21.312,38.459,21,38,21h-6c-0.552,0-1,0.448-1,1s0.448,1,1,1h5.219l5.5,22H5.281l5.5-22H16
	c0.552,0,1-0.448,1-1s-0.448-1-1-1h-6C9.541,21,9.141,21.312,9.03,21.757z"/>
</svg>
