<?xml version="1.0" encoding="utf-8"?>
<!-- Generator: Adobe Illustrator 19.2.1, SVG Export Plug-In . SVG Version: 6.00 Build 0)  -->
<!DOCTYPE svg PUBLIC "-//W3C//DTD SVG 1.1//EN" "http://www.w3.org/Graphics/SVG/1.1/DTD/svg11.dtd">
<svg version="1.1" id="Layer_1" xmlns="http://www.w3.org/2000/svg" xmlns:xlink="http://www.w3.org/1999/xlink" x="0px" y="0px"
	 width="48px" height="48px" viewBox="0 0 48 48" enable-background="new 0 0 48 48" xml:space="preserve">
<path d="M23,32v14c0,0.553,0.447,1,1,1s1-0.447,1-1V32c0-0.553-0.447-1-1-1S23,31.447,23,32z"/>
<path d="M12.707,14.293c-0.391-0.391-1.023-0.391-1.414,0l-8.999,8.999c-0.093,0.092-0.166,0.203-0.217,0.326
	c-0.101,0.244-0.101,0.52,0,0.764c0.051,0.123,0.124,0.234,0.217,0.326l8.999,8.999C11.488,33.902,11.744,34,12,34
	s0.512-0.098,0.707-0.293c0.391-0.391,0.391-1.023,0-1.414L5.414,25h37.172l-7.293,7.293c-0.391,0.391-0.391,1.023,0,1.414
	C35.488,33.902,35.744,34,36,34s0.512-0.098,0.707-0.293l8.999-8.999c0.093-0.092,0.166-0.203,0.217-0.326
	c0.101-0.244,0.101-0.519,0-0.764c-0.051-0.123-0.125-0.234-0.217-0.327l-8.999-8.999c-0.391-0.391-1.023-0.391-1.414,0
	s-0.391,1.023,0,1.414L42.586,23H25V2c0-0.553-0.447-1-1-1s-1,0.447-1,1v21H5.414l7.293-7.293
	C13.098,15.316,13.098,14.684,12.707,14.293z"/>
</svg>
