<?xml version="1.0" encoding="utf-8"?>
<!-- Generator: Adobe Illustrator 19.2.1, SVG Export Plug-In . SVG Version: 6.00 Build 0)  -->
<!DOCTYPE svg PUBLIC "-//W3C//DTD SVG 1.1//EN" "http://www.w3.org/Graphics/SVG/1.1/DTD/svg11.dtd">
<svg version="1.1" id="Layer_1" xmlns="http://www.w3.org/2000/svg" xmlns:xlink="http://www.w3.org/1999/xlink" x="0px" y="0px"
	 width="48px" height="48px" viewBox="0 0 48 48" enable-background="new 0 0 48 48" xml:space="preserve">
<path fill="#222221" d="M42.707,23.293l-8-8c-0.391-0.391-1.023-0.391-1.414,0s-0.391,1.023,0,1.414L39.586,23H20
	c-0.552,0-1,0.448-1,1s0.448,1,1,1h19.586l-6.293,6.293c-0.391,0.391-0.391,1.023,0,1.414C33.488,32.902,33.744,33,34,33
	s0.512-0.098,0.707-0.293l8-8c0.092-0.092,0.165-0.203,0.216-0.325c0.101-0.245,0.101-0.52,0-0.764
	C42.872,23.495,42.799,23.385,42.707,23.293z"/>
<path fill="#222221" d="M10,47h28c0.552,0,1-0.448,1-1v-6c0-0.552-0.448-1-1-1s-1,0.448-1,1v5H11V3h26v5c0,0.552,0.448,1,1,1
	s1-0.448,1-1V2c0-0.552-0.448-1-1-1H10C9.448,1,9,1.448,9,2v44C9,46.552,9.448,47,10,47z"/>
</svg>
