<?xml version="1.0" encoding="utf-8"?>
<!-- Generator: Adobe Illustrator 19.2.1, SVG Export Plug-In . SVG Version: 6.00 Build 0)  -->
<!DOCTYPE svg PUBLIC "-//W3C//DTD SVG 1.1//EN" "http://www.w3.org/Graphics/SVG/1.1/DTD/svg11.dtd">
<svg version="1.1" id="Layer_1" xmlns="http://www.w3.org/2000/svg" xmlns:xlink="http://www.w3.org/1999/xlink" x="0px" y="0px"
	 width="48px" height="48px" viewBox="0 0 48 48" enable-background="new 0 0 48 48" xml:space="preserve">
<path d="M36,23H16.414l6.293-6.293c0.391-0.391,0.391-1.023,0-1.414s-1.023-0.391-1.414,0l-8,8
	c-0.092,0.092-0.165,0.203-0.216,0.325c-0.101,0.245-0.101,0.52,0,0.764c0.051,0.122,0.124,0.233,0.216,0.325l8,8
	C21.488,32.902,21.744,33,22,33s0.512-0.098,0.707-0.293c0.391-0.391,0.391-1.023,0-1.414L16.414,25H36c0.552,0,1-0.448,1-1
	S36.552,23,36,23z"/>
<path d="M24,1C11.318,1,1,11.318,1,24s10.318,23,23,23s23-10.318,23-23S36.682,1,24,1z M24,45C12.42,45,3,35.58,3,24S12.42,3,24,3
	s21,9.42,21,21S35.58,45,24,45z"/>
</svg>
