<?xml version="1.0" encoding="utf-8"?>
<!-- Generator: Adobe Illustrator 19.2.1, SVG Export Plug-In . SVG Version: 6.00 Build 0)  -->
<!DOCTYPE svg PUBLIC "-//W3C//DTD SVG 1.1//EN" "http://www.w3.org/Graphics/SVG/1.1/DTD/svg11.dtd">
<svg version="1.1" id="Layer_1" xmlns="http://www.w3.org/2000/svg" xmlns:xlink="http://www.w3.org/1999/xlink" x="0px" y="0px"
	 width="48px" height="48px" viewBox="0 0 48 48" enable-background="new 0 0 48 48" xml:space="preserve">
<path d="M23.293,21.293L11,33.586V24c0-0.553-0.447-1-1-1s-1,0.447-1,1v12c0,0.13,0.026,0.26,0.077,0.382
	c0.101,0.245,0.296,0.44,0.541,0.541C9.74,36.974,9.87,37,10,37h12c0.553,0,1-0.447,1-1s-0.447-1-1-1h-9.586l12.293-12.293
	c0.391-0.391,0.391-1.023,0-1.414S23.684,20.902,23.293,21.293z"/>
<path d="M46,3H2C1.447,3,1,3.447,1,4v40c0,0.553,0.447,1,1,1h44c0.553,0,1-0.447,1-1V4C47,3.447,46.553,3,46,3z M45,5v6H3V5H45z
	 M3,43V13h42v30H3z"/>
</svg>
