<?xml version="1.0" encoding="utf-8"?>
<!-- Generator: Adobe Illustrator 19.2.1, SVG Export Plug-In . SVG Version: 6.00 Build 0)  -->
<!DOCTYPE svg PUBLIC "-//W3C//DTD SVG 1.1//EN" "http://www.w3.org/Graphics/SVG/1.1/DTD/svg11.dtd">
<svg version="1.1" id="Layer_1" xmlns="http://www.w3.org/2000/svg" xmlns:xlink="http://www.w3.org/1999/xlink" x="0px" y="0px"
	 width="48px" height="48px" viewBox="0 0 48 48" enable-background="new 0 0 48 48" xml:space="preserve">
<path d="M2.625,7.219c-0.3-0.241-0.713-0.288-1.058-0.12C1.22,7.266,1,7.615,1,8v32c0,0.385,0.22,0.734,0.567,0.901
	C1.705,40.968,1.853,41,2,41c0.223,0,0.444-0.074,0.625-0.219l20-16C22.862,24.591,23,24.304,23,24s-0.138-0.591-0.375-0.781
	L2.625,7.219z M3,37.919V10.081L20.399,24L3,37.919z"/>
<path d="M24.625,7.219c-0.301-0.241-0.713-0.288-1.058-0.12C23.22,7.266,23,7.615,23,8v16v16c0,0.385,0.22,0.734,0.567,0.901
	C23.705,40.968,23.853,41,24,41c0.223,0,0.444-0.074,0.625-0.219l20-16C44.862,24.591,45,24.304,45,24s-0.138-0.591-0.375-0.781
	L24.625,7.219z M25,37.919V10.081L42.399,24L25,37.919z"/>
</svg>
