<?xml version="1.0" encoding="utf-8"?>
<!-- Generator: Adobe Illustrator 19.2.1, SVG Export Plug-In . SVG Version: 6.00 Build 0)  -->
<!DOCTYPE svg PUBLIC "-//W3C//DTD SVG 1.1//EN" "http://www.w3.org/Graphics/SVG/1.1/DTD/svg11.dtd">
<svg version="1.1" id="Layer_1" xmlns="http://www.w3.org/2000/svg" xmlns:xlink="http://www.w3.org/1999/xlink" x="0px" y="0px"
	 width="48px" height="48px" viewBox="0 0 48 48" enable-background="new 0 0 48 48" xml:space="preserve">
<path fill="#222221" d="M24,1c-0.552,0-1,0.448-1,1v33.586l-6.293-6.293c-0.391-0.391-1.023-0.391-1.414,0s-0.391,1.023,0,1.414l8,8
	c0.092,0.092,0.203,0.165,0.325,0.216C23.74,38.973,23.87,39,24,39s0.26-0.027,0.382-0.077c0.122-0.051,0.233-0.124,0.325-0.216l8-8
	c0.391-0.391,0.391-1.023,0-1.414s-1.023-0.391-1.414,0L25,35.586V2C25,1.448,24.552,1,24,1z"/>
<path fill="#222221" d="M16,21h-6c-0.459,0-0.859,0.312-0.97,0.757l-6,24c-0.075,0.299-0.007,0.615,0.182,0.858S3.692,47,4,47h40
	c0.308,0,0.599-0.142,0.788-0.385s0.257-0.559,0.182-0.858l-6-24C38.859,21.312,38.459,21,38,21h-6c-0.552,0-1,0.448-1,1
	s0.448,1,1,1h5.219l5.5,22H5.281l5.5-22H16c0.552,0,1-0.448,1-1S16.552,21,16,21z"/>
</svg>
