<?xml version="1.0" encoding="utf-8"?>
<!-- Generator: Adobe Illustrator 19.2.1, SVG Export Plug-In . SVG Version: 6.00 Build 0)  -->
<!DOCTYPE svg PUBLIC "-//W3C//DTD SVG 1.1//EN" "http://www.w3.org/Graphics/SVG/1.1/DTD/svg11.dtd">
<svg version="1.1" id="Layer_1" xmlns="http://www.w3.org/2000/svg" xmlns:xlink="http://www.w3.org/1999/xlink" x="0px" y="0px"
	 width="48px" height="48px" viewBox="0 0 48 48" enable-background="new 0 0 48 48" xml:space="preserve">
<path fill="#222221" d="M2.077,14.382c0.051,0.122,0.124,0.233,0.216,0.325l8,8C10.488,22.902,10.744,23,11,23
	s0.512-0.098,0.707-0.293c0.391-0.391,0.391-1.023,0-1.414L5.414,15H27c0.552,0,1-0.448,1-1s-0.448-1-1-1H5.414l6.293-6.293
	c0.391-0.391,0.391-1.023,0-1.414s-1.023-0.391-1.414,0l-8,8c-0.092,0.092-0.165,0.203-0.216,0.325
	C1.976,13.862,1.976,14.138,2.077,14.382z"/>
<path fill="#222221" d="M45.923,33.618c-0.051-0.122-0.124-0.233-0.216-0.325l-8-8c-0.391-0.391-1.023-0.391-1.414,0
	s-0.391,1.023,0,1.414L42.586,33H21c-0.552,0-1,0.448-1,1s0.448,1,1,1h21.586l-6.293,6.293c-0.391,0.391-0.391,1.023,0,1.414
	C36.488,42.902,36.744,43,37,43s0.512-0.098,0.707-0.293l8-8c0.092-0.092,0.165-0.203,0.216-0.325
	C46.024,34.138,46.024,33.862,45.923,33.618z"/>
</svg>
