<?xml version="1.0" encoding="utf-8"?>
<!-- Generator: Adobe Illustrator 19.2.1, SVG Export Plug-In . SVG Version: 6.00 Build 0)  -->
<!DOCTYPE svg PUBLIC "-//W3C//DTD SVG 1.1//EN" "http://www.w3.org/Graphics/SVG/1.1/DTD/svg11.dtd">
<svg version="1.1" id="Layer_1" xmlns="http://www.w3.org/2000/svg" xmlns:xlink="http://www.w3.org/1999/xlink" x="0px" y="0px"
	 width="48px" height="48px" viewBox="0 0 48 48" enable-background="new 0 0 48 48" xml:space="preserve">
<path fill="#222221" d="M24,5c-0.553,0-1,0.447-1,1v23.586l-8.293-8.293c-0.391-0.391-1.023-0.391-1.414,0s-0.391,1.023,0,1.414
	l9.999,9.999c0.092,0.093,0.203,0.166,0.326,0.217C23.74,32.974,23.87,33,24,33s0.26-0.026,0.382-0.077
	c0.123-0.051,0.234-0.124,0.326-0.217l9.999-9.999c0.391-0.391,0.391-1.023,0-1.414s-1.023-0.391-1.414,0L25,29.586V6
	C25,5.447,24.553,5,24,5z"/>
<path fill="#222221" d="M46,5H34c-0.553,0-1,0.447-1,1s0.447,1,1,1h11v34H3V7h11c0.553,0,1-0.447,1-1s-0.447-1-1-1H2
	C1.447,5,1,5.447,1,6v36c0,0.553,0.447,1,1,1h44c0.553,0,1-0.447,1-1V6C47,5.447,46.553,5,46,5z"/>
</svg>
