<?xml version="1.0" encoding="utf-8"?>
<!-- Generator: Adobe Illustrator 19.2.1, SVG Export Plug-In . SVG Version: 6.00 Build 0)  -->
<!DOCTYPE svg PUBLIC "-//W3C//DTD SVG 1.1//EN" "http://www.w3.org/Graphics/SVG/1.1/DTD/svg11.dtd">
<svg version="1.1" id="Layer_1" xmlns="http://www.w3.org/2000/svg" xmlns:xlink="http://www.w3.org/1999/xlink" x="0px" y="0px"
	 width="48px" height="48px" viewBox="0 0 48 48" enable-background="new 0 0 48 48" xml:space="preserve">
<path fill="#222221" d="M42,15c0.404,0,0.769-0.243,0.924-0.617s0.069-0.804-0.217-1.09l-6-6c-0.391-0.391-1.023-0.391-1.414,0
	s-0.391,1.023,0,1.414L39.586,13H38c-8.414,0-13.647,5.232-18.707,10.293C14.301,28.285,9.586,33,2,33c-0.552,0-1,0.447-1,1
	s0.448,1,1,1c8.414,0,13.647-5.232,18.707-10.293C25.699,19.715,30.414,15,38,15H42z"/>
<path fill="#222221" d="M39.586,35l-4.293,4.293c-0.391,0.391-0.391,1.023,0,1.414C35.488,40.902,35.744,41,36,41
	s0.512-0.098,0.707-0.293l6-6c0.286-0.286,0.372-0.716,0.217-1.09S42.404,33,42,33h-4c-4.128,0-7.676-1.342-11.501-4.351
	c-0.432-0.339-1.062-0.267-1.404,0.168c-0.341,0.434-0.266,1.062,0.168,1.404C29.408,33.481,33.455,35,38,35H39.586z"/>
<path fill="#222221" d="M2,15c4.128,0,7.676,1.342,11.501,4.351c0.183,0.144,0.401,0.214,0.618,0.214
	c0.296,0,0.589-0.131,0.787-0.382c0.341-0.435,0.266-1.062-0.168-1.404C10.592,14.519,6.545,13,2,13c-0.552,0-1,0.447-1,1
	S1.448,15,2,15z"/>
</svg>
