<?xml version="1.0" encoding="utf-8"?>
<!-- Generator: Adobe Illustrator 19.2.1, SVG Export Plug-In . SVG Version: 6.00 Build 0)  -->
<!DOCTYPE svg PUBLIC "-//W3C//DTD SVG 1.1//EN" "http://www.w3.org/Graphics/SVG/1.1/DTD/svg11.dtd">
<svg version="1.1" id="Layer_1" xmlns="http://www.w3.org/2000/svg" xmlns:xlink="http://www.w3.org/1999/xlink" x="0px" y="0px"
	 width="48px" height="48px" viewBox="0 0 48 48" enable-background="new 0 0 48 48" xml:space="preserve">
<path d="M38,15c-3.272,0-8.726,3.958-14.499,8.149C18.432,26.829,12.686,31,10,31c-3.859,0-7-3.141-7-7s3.141-7,7-7
	c1.002,0,2.986,0.566,6.861,3.064l-6.092,1.785c-0.53,0.155-0.834,0.711-0.679,1.241c0.128,0.437,0.527,0.719,0.96,0.719
	c0.093,0,0.188-0.013,0.281-0.04l8.143-2.386c0.045-0.013,0.078-0.044,0.12-0.063c0.061-0.027,0.12-0.053,0.176-0.092
	c0.06-0.043,0.106-0.094,0.154-0.148c0.028-0.031,0.065-0.051,0.09-0.087c0.01-0.015,0.011-0.032,0.02-0.047
	c0.038-0.062,0.061-0.128,0.085-0.197c0.02-0.056,0.044-0.109,0.053-0.167c0.01-0.061,0.004-0.123,0.003-0.186
	c-0.002-0.069-0.002-0.135-0.017-0.202c-0.004-0.018,0.001-0.036-0.005-0.053l-2.386-8.144c-0.154-0.53-0.71-0.832-1.241-0.679
	c-0.53,0.155-0.834,0.711-0.679,1.241l1.619,5.526C14.189,16.025,11.724,15,10,15c-4.963,0-9,4.037-9,9s4.037,9,9,9
	c3.335,0,8.844-3.999,14.676-8.232C29.691,21.127,35.377,17,38,17c3.859,0,7,3.141,7,7s-3.141,7-7,7
	c-1.584,0-4.462-1.361-8.104-3.833c-0.456-0.312-1.078-0.19-1.389,0.266c-0.311,0.457-0.191,1.079,0.266,1.389
	C32.857,31.594,35.962,33,38,33c4.963,0,9-4.037,9-9S42.963,15,38,15z"/>
</svg>
