<?xml version="1.0" encoding="utf-8"?>
<!-- Generator: Adobe Illustrator 19.2.1, SVG Export Plug-In . SVG Version: 6.00 Build 0)  -->
<!DOCTYPE svg PUBLIC "-//W3C//DTD SVG 1.1//EN" "http://www.w3.org/Graphics/SVG/1.1/DTD/svg11.dtd">
<svg version="1.1" id="Layer_1" xmlns="http://www.w3.org/2000/svg" xmlns:xlink="http://www.w3.org/1999/xlink" x="0px" y="0px"
	 width="48px" height="48px" viewBox="0 0 48 48" enable-background="new 0 0 48 48" xml:space="preserve">
<path d="M3.293,32.707c0.391,0.391,1.023,0.391,1.414,0L14,23.414l11.293,11.293C25.48,34.895,25.735,35,26,35
	c0.009,0,0.018,0,0.026,0c0.274-0.008,0.533-0.127,0.717-0.331L43,16.606V28c0,0.553,0.448,1,1,1s1-0.447,1-1V14
	c0-0.009-0.005-0.016-0.005-0.025c-0.002-0.076-0.026-0.147-0.044-0.22c-0.014-0.054-0.018-0.11-0.04-0.16
	c-0.022-0.049-0.061-0.089-0.091-0.135c-0.042-0.064-0.08-0.13-0.135-0.182c-0.006-0.006-0.009-0.014-0.015-0.02
	c-0.037-0.034-0.084-0.047-0.125-0.074c-0.061-0.041-0.118-0.084-0.188-0.111c-0.071-0.027-0.145-0.034-0.219-0.044
	C44.091,13.021,44.049,13,44,13H30c-0.552,0-1,0.447-1,1s0.448,1,1,1h11.755L25.962,32.548L14.707,21.293
	c-0.391-0.391-1.023-0.391-1.414,0l-10,10C2.902,31.684,2.902,32.316,3.293,32.707z"/>
</svg>
