<?xml version="1.0" encoding="utf-8"?>
<!-- Generator: Adobe Illustrator 19.2.1, SVG Export Plug-In . SVG Version: 6.00 Build 0)  -->
<!DOCTYPE svg PUBLIC "-//W3C//DTD SVG 1.1//EN" "http://www.w3.org/Graphics/SVG/1.1/DTD/svg11.dtd">
<svg version="1.1" id="Layer_1" xmlns="http://www.w3.org/2000/svg" xmlns:xlink="http://www.w3.org/1999/xlink" x="0px" y="0px"
	 width="48px" height="48px" viewBox="0 0 48 48" enable-background="new 0 0 48 48" xml:space="preserve">
<path fill="#222221" d="M46,29c-0.552,0-1,0.447-1,1v13.586L28.707,27.293c-0.391-0.391-1.023-0.391-1.414,0s-0.391,1.023,0,1.414
	L43.586,45H30c-0.552,0-1,0.447-1,1s0.448,1,1,1h16c0.13,0,0.26-0.027,0.382-0.077c0.245-0.101,0.44-0.296,0.541-0.541
	C46.973,46.26,47,46.13,47,46V30C47,29.447,46.552,29,46,29z"/>
<path fill="#222221" d="M22,1H2C1.448,1,1,1.447,1,2v20c0,0.553,0.448,1,1,1h20c0.552,0,1-0.447,1-1V2C23,1.447,22.552,1,22,1z
	 M21,21H3V3h18V21z"/>
</svg>
