<?xml version="1.0" encoding="utf-8"?>
<!-- Generator: Adobe Illustrator 19.2.1, SVG Export Plug-In . SVG Version: 6.00 Build 0)  -->
<!DOCTYPE svg PUBLIC "-//W3C//DTD SVG 1.1//EN" "http://www.w3.org/Graphics/SVG/1.1/DTD/svg11.dtd">
<svg version="1.1" id="Layer_1" xmlns="http://www.w3.org/2000/svg" xmlns:xlink="http://www.w3.org/1999/xlink" x="0px" y="0px"
	 width="48px" height="48px" viewBox="0 0 48 48" enable-background="new 0 0 48 48" xml:space="preserve">
<path fill="#222221" d="M1,24c0,0.552,0.448,1,1,1h23.586l-6.293,6.293c-0.391,0.391-0.391,1.023,0,1.414
	C19.488,32.902,19.744,33,20,33s0.512-0.098,0.707-0.293l8-8c0.092-0.092,0.165-0.203,0.216-0.325c0.101-0.245,0.101-0.52,0-0.764
	c-0.051-0.122-0.124-0.233-0.216-0.325l-8-8c-0.391-0.391-1.023-0.391-1.414,0s-0.391,1.023,0,1.414L25.586,23H2
	C1.448,23,1,23.448,1,24z"/>
<path fill="#222221" d="M46,1H2C1.448,1,1,1.448,1,2v10c0,0.552,0.448,1,1,1s1-0.448,1-1V3h42l0,42H3v-9c0-0.552-0.448-1-1-1
	s-1,0.448-1,1v10c0,0.552,0.448,1,1,1h44c0.552,0,1-0.448,1-1l0-44c0-0.265-0.105-0.52-0.293-0.707S46.265,1,46,1z"/>
</svg>
