<?xml version="1.0" encoding="utf-8"?>
<!-- Generator: Adobe Illustrator 19.2.1, SVG Export Plug-In . SVG Version: 6.00 Build 0)  -->
<!DOCTYPE svg PUBLIC "-//W3C//DTD SVG 1.1//EN" "http://www.w3.org/Graphics/SVG/1.1/DTD/svg11.dtd">
<svg version="1.1" id="Layer_1" xmlns="http://www.w3.org/2000/svg" xmlns:xlink="http://www.w3.org/1999/xlink" x="0px" y="0px"
	 width="48px" height="48px" viewBox="0 0 48 48" enable-background="new 0 0 48 48" xml:space="preserve">
<path d="M44,19c0.552,0,1-0.447,1-1V4c0-0.13-0.027-0.26-0.077-0.382c-0.101-0.245-0.296-0.44-0.541-0.541C44.26,3.026,44.13,3,44,3
	H30c-0.552,0-1,0.447-1,1s0.448,1,1,1h11.586L29.293,17.293c-0.391,0.391-0.391,1.023,0,1.414C29.488,18.902,29.744,19,30,19
	s0.512-0.098,0.707-0.293L43,6.414V18C43,18.553,43.448,19,44,19z"/>
<path d="M3,44c0,0.13,0.027,0.26,0.077,0.382c0.101,0.245,0.296,0.44,0.541,0.541C3.74,44.973,3.87,45,4,45h14c0.552,0,1-0.447,1-1
	s-0.448-1-1-1H6.414l12.293-12.293c0.391-0.391,0.391-1.023,0-1.414s-1.023-0.391-1.414,0L5,41.586V30c0-0.553-0.448-1-1-1
	s-1,0.447-1,1V44z"/>
</svg>
