<?xml version="1.0" encoding="utf-8"?>
<!-- Generator: Adobe Illustrator 19.2.1, SVG Export Plug-In . SVG Version: 6.00 Build 0)  -->
<!DOCTYPE svg PUBLIC "-//W3C//DTD SVG 1.1//EN" "http://www.w3.org/Graphics/SVG/1.1/DTD/svg11.dtd">
<svg version="1.1" id="Layer_1" xmlns="http://www.w3.org/2000/svg" xmlns:xlink="http://www.w3.org/1999/xlink" x="0px" y="0px"
	 width="48px" height="48px" viewBox="0 0 48 48" enable-background="new 0 0 48 48" xml:space="preserve">
<path d="M2.077,35.382c0.051,0.123,0.124,0.233,0.217,0.326l9.999,9.999C12.488,45.902,12.744,46,13,46s0.512-0.098,0.707-0.293
	c0.391-0.391,0.391-1.023,0-1.414L5.414,36H23c7.168,0,13-5.832,13-13V5.414l8.293,8.293C44.488,13.902,44.744,14,45,14
	s0.512-0.098,0.707-0.293c0.391-0.391,0.391-1.023,0-1.414l-9.999-9.999c-0.092-0.093-0.203-0.166-0.326-0.217
	c-0.244-0.101-0.52-0.101-0.764,0c-0.123,0.051-0.233,0.124-0.326,0.217l-9.999,9.999c-0.391,0.391-0.391,1.023,0,1.414
	s1.023,0.391,1.414,0L34,5.414V23c0,6.065-4.935,11-11,11H5.414l8.293-8.293c0.391-0.391,0.391-1.023,0-1.414s-1.023-0.391-1.414,0
	l-9.999,9.999c-0.093,0.092-0.166,0.203-0.217,0.326C1.976,34.862,1.976,35.138,2.077,35.382z"/>
</svg>
