<?xml version="1.0" encoding="utf-8"?>
<!-- Generator: Adobe Illustrator 19.2.1, SVG Export Plug-In . SVG Version: 6.00 Build 0)  -->
<!DOCTYPE svg PUBLIC "-//W3C//DTD SVG 1.1//EN" "http://www.w3.org/Graphics/SVG/1.1/DTD/svg11.dtd">
<svg version="1.1" id="Layer_1" xmlns="http://www.w3.org/2000/svg" xmlns:xlink="http://www.w3.org/1999/xlink" x="0px" y="0px"
	 width="48px" height="48px" viewBox="0 0 48 48" enable-background="new 0 0 48 48" xml:space="preserve">
<path d="M46,1H2C1.448,1,1,1.448,1,2v44c0,0.552,0.448,1,1,1h44c0.552,0,1-0.448,1-1V2C47,1.448,46.552,1,46,1z M45,45H3V3h42V45z"
	/>
<path d="M23.168,30.555C23.354,30.833,23.666,31,24,31s0.646-0.167,0.832-0.445l8-12c0.205-0.307,0.224-0.701,0.05-1.026
	C32.708,17.203,32.369,17,32,17H16c-0.369,0-0.708,0.203-0.882,0.528c-0.174,0.325-0.155,0.72,0.05,1.026L23.168,30.555z M30.131,19
	L24,28.197L17.869,19H30.131z"/>
</svg>
