<?xml version="1.0" encoding="utf-8"?>
<!-- Generator: Adobe Illustrator 19.2.1, SVG Export Plug-In . SVG Version: 6.00 Build 0)  -->
<!DOCTYPE svg PUBLIC "-//W3C//DTD SVG 1.1//EN" "http://www.w3.org/Graphics/SVG/1.1/DTD/svg11.dtd">
<svg version="1.1" id="Layer_1" xmlns="http://www.w3.org/2000/svg" xmlns:xlink="http://www.w3.org/1999/xlink" x="0px" y="0px"
	 width="48px" height="48px" viewBox="0 0 48 48" enable-background="new 0 0 48 48" xml:space="preserve">
<path d="M46,1H2C1.448,1,1,1.448,1,2v44c0,0.552,0.448,1,1,1h44c0.552,0,1-0.448,1-1V2C47,1.448,46.552,1,46,1z M45,45H3V3h42V45z"
	/>
<path d="M17.528,32.882C17.676,32.961,17.838,33,18,33c0.194,0,0.387-0.057,0.555-0.168l12-8C30.833,24.646,31,24.334,31,24
	s-0.167-0.646-0.445-0.832l-12-8c-0.308-0.206-0.702-0.224-1.026-0.05C17.203,15.292,17,15.631,17,16v16
	C17,32.369,17.203,32.708,17.528,32.882z M19,17.869L28.197,24L19,30.131V17.869z"/>
</svg>
