<?xml version="1.0" encoding="utf-8"?>
<!-- Generator: Adobe Illustrator 19.2.1, SVG Export Plug-In . SVG Version: 6.00 Build 0)  -->
<!DOCTYPE svg PUBLIC "-//W3C//DTD SVG 1.1//EN" "http://www.w3.org/Graphics/SVG/1.1/DTD/svg11.dtd">
<svg version="1.1" id="Layer_1" xmlns="http://www.w3.org/2000/svg" xmlns:xlink="http://www.w3.org/1999/xlink" x="0px" y="0px"
	 width="48px" height="48px" viewBox="0 0 48 48" enable-background="new 0 0 48 48" xml:space="preserve">
<path fill="#222221" d="M2,25h15.586l-6.293,6.293c-0.391,0.391-0.391,1.023,0,1.414C11.488,32.902,11.744,33,12,33
	s0.512-0.098,0.707-0.293l7.999-7.999c0.093-0.092,0.166-0.203,0.217-0.326c0.101-0.244,0.101-0.52,0-0.764
	c-0.051-0.123-0.124-0.233-0.217-0.326l-7.999-7.999c-0.391-0.391-1.023-0.391-1.414,0s-0.391,1.023,0,1.414L17.586,23H2
	c-0.553,0-1,0.448-1,1S1.447,25,2,25z"/>
<path fill="#222221" d="M46,23H30.414l6.293-6.293c0.391-0.391,0.391-1.023,0-1.414s-1.023-0.391-1.414,0l-7.999,7.999
	c-0.093,0.092-0.166,0.203-0.217,0.326c-0.101,0.244-0.101,0.52,0,0.764c0.051,0.123,0.124,0.233,0.217,0.326l7.999,7.999
	C35.488,32.902,35.744,33,36,33s0.512-0.098,0.707-0.293c0.391-0.391,0.391-1.023,0-1.414L30.414,25H46c0.553,0,1-0.448,1-1
	S46.553,23,46,23z"/>
</svg>
