<?xml version="1.0" encoding="utf-8"?>
<!-- Generator: Adobe Illustrator 19.2.1, SVG Export Plug-In . SVG Version: 6.00 Build 0)  -->
<!DOCTYPE svg PUBLIC "-//W3C//DTD SVG 1.1//EN" "http://www.w3.org/Graphics/SVG/1.1/DTD/svg11.dtd">
<svg version="1.1" id="Layer_1" xmlns="http://www.w3.org/2000/svg" xmlns:xlink="http://www.w3.org/1999/xlink" x="0px" y="0px"
	 width="48px" height="48px" viewBox="0 0 48 48" enable-background="new 0 0 48 48" xml:space="preserve">
<path d="M2.077,24.382c0.051,0.123,0.124,0.233,0.217,0.326l9.999,9.999C12.488,34.902,12.744,35,13,35s0.512-0.098,0.707-0.293
	c0.391-0.391,0.391-1.023,0-1.414L5.414,25H25c0.552,0,1-0.447,1-1s-0.448-1-1-1H5.414l8.293-8.293c0.391-0.391,0.391-1.023,0-1.414
	s-1.023-0.391-1.414,0l-9.999,9.999c-0.093,0.092-0.166,0.203-0.217,0.326C1.976,23.862,1.976,24.138,2.077,24.382z"/>
<path d="M46,1H33c-0.552,0-1,0.447-1,1v44c0,0.553,0.448,1,1,1h13c0.552,0,1-0.447,1-1V2C47,1.447,46.552,1,46,1z M45,45H34V3h11V45
	z"/>
</svg>
