<?xml version="1.0" encoding="utf-8"?>
<!-- Generator: Adobe Illustrator 19.2.1, SVG Export Plug-In . SVG Version: 6.00 Build 0)  -->
<!DOCTYPE svg PUBLIC "-//W3C//DTD SVG 1.1//EN" "http://www.w3.org/Graphics/SVG/1.1/DTD/svg11.dtd">
<svg version="1.1" id="Layer_1" xmlns="http://www.w3.org/2000/svg" xmlns:xlink="http://www.w3.org/1999/xlink" x="0px" y="0px"
	 width="48px" height="48px" viewBox="0 0 48 48" enable-background="new 0 0 48 48" xml:space="preserve">
<path fill="#222221" d="M24,47c0.552,0,1-0.448,1-1V22.414l6.293,6.293C31.488,28.902,31.744,29,32,29s0.512-0.098,0.707-0.293
	c0.391-0.391,0.391-1.023,0-1.414l-8-8c-0.092-0.092-0.203-0.165-0.325-0.216c-0.245-0.101-0.52-0.101-0.764,0
	c-0.122,0.051-0.233,0.124-0.325,0.216l-8,8c-0.391,0.391-0.391,1.023,0,1.414s1.023,0.391,1.414,0L23,22.414V46
	C23,46.552,23.448,47,24,47z"/>
<path fill="#222221" d="M46,1H2C1.448,1,1,1.448,1,2v32c0,0.552,0.448,1,1,1h6c0.552,0,1-0.448,1-1s-0.448-1-1-1H3V11h42v22h-5
	c-0.552,0-1,0.448-1,1s0.448,1,1,1h6c0.552,0,1-0.448,1-1V2C47,1.448,46.552,1,46,1z M3,9V3h42v6H3z"/>
</svg>
