<?xml version="1.0" encoding="utf-8"?>
<!-- Generator: Adobe Illustrator 19.2.1, SVG Export Plug-In . SVG Version: 6.00 Build 0)  -->
<!DOCTYPE svg PUBLIC "-//W3C//DTD SVG 1.1//EN" "http://www.w3.org/Graphics/SVG/1.1/DTD/svg11.dtd">
<svg version="1.1" id="Layer_1" xmlns="http://www.w3.org/2000/svg" xmlns:xlink="http://www.w3.org/1999/xlink" x="0px" y="0px"
	 width="48px" height="48px" viewBox="0 0 48 48" enable-background="new 0 0 48 48" xml:space="preserve">
<path d="M9,30c0,0.553,0.447,1,1,1h13v9c0,0.385,0.221,0.734,0.566,0.901C23.705,40.968,23.853,41,24,41
	c0.223,0,0.444-0.074,0.625-0.219l20-16C44.862,24.591,45,24.304,45,24s-0.138-0.591-0.375-0.781l-20-16
	c-0.301-0.241-0.714-0.287-1.059-0.12C23.221,7.266,23,7.615,23,8v9H10c-0.553,0-1,0.447-1,1V30z M11,19h13c0.553,0,1-0.447,1-1
	v-7.919L42.399,24L25,37.919V30c0-0.553-0.447-1-1-1H11V19z"/>
<path d="M2,31c0.553,0,1-0.447,1-1V18c0-0.553-0.447-1-1-1s-1,0.447-1,1v12C1,30.553,1.447,31,2,31z"/>
</svg>
