<?xml version="1.0" encoding="utf-8"?>
<!-- Generator: Adobe Illustrator 19.2.1, SVG Export Plug-In . SVG Version: 6.00 Build 0)  -->
<!DOCTYPE svg PUBLIC "-//W3C//DTD SVG 1.1//EN" "http://www.w3.org/Graphics/SVG/1.1/DTD/svg11.dtd">
<svg version="1.1" id="Layer_1" xmlns="http://www.w3.org/2000/svg" xmlns:xlink="http://www.w3.org/1999/xlink" x="0px" y="0px"
	 width="48px" height="48px" viewBox="0 0 48 48" enable-background="new 0 0 48 48" xml:space="preserve">
<path d="M45,24v-2c0-0.553-0.448-1-1-1s-1,0.447-1,1v2c0,6.065-4.935,11-11,11H6.414l7.293-7.293c0.391-0.391,0.391-1.023,0-1.414
	s-1.023-0.391-1.414,0l-8.999,8.999c-0.093,0.092-0.166,0.203-0.217,0.326c-0.101,0.244-0.101,0.52,0,0.764
	c0.051,0.123,0.124,0.233,0.217,0.326l8.999,8.999C12.488,45.902,12.744,46,13,46s0.512-0.098,0.707-0.293
	c0.391-0.391,0.391-1.023,0-1.414L6.414,37H32C39.168,37,45,31.168,45,24z"/>
<path d="M44.923,11.618c-0.051-0.123-0.124-0.233-0.217-0.326l-8.999-8.999c-0.391-0.391-1.023-0.391-1.414,0s-0.391,1.023,0,1.414
	L41.586,11H16C8.832,11,3,16.832,3,24v2c0,0.553,0.448,1,1,1s1-0.447,1-1v-2c0-6.065,4.935-11,11-11h25.586l-7.293,7.293
	c-0.391,0.391-0.391,1.023,0,1.414C34.488,21.902,34.744,22,35,22s0.512-0.098,0.707-0.293l8.999-8.999
	c0.093-0.092,0.166-0.203,0.217-0.326C45.024,12.138,45.024,11.862,44.923,11.618z"/>
</svg>
