<?xml version="1.0" encoding="utf-8"?>
<!-- Generator: Adobe Illustrator 19.1.0, SVG Export Plug-In . SVG Version: 6.00 Build 0)  -->
<!DOCTYPE svg PUBLIC "-//W3C//DTD SVG 1.1//EN" "http://www.w3.org/Graphics/SVG/1.1/DTD/svg11.dtd">
<svg version="1.1" id="Layer_1" xmlns="http://www.w3.org/2000/svg" xmlns:xlink="http://www.w3.org/1999/xlink" x="0px" y="0px"
	 width="24px" height="24px" viewBox="0 0 24 24" enable-background="new 0 0 24 24" xml:space="preserve">
<path d="M21,1H3C2.4,1,2,1.4,2,2v14c0,0.3,0.2,0.6,0.4,0.8l9,6c0.2,0.1,0.4,0.2,0.6,0.2s0.4-0.1,0.6-0.2l9-6
	c0.3-0.2,0.4-0.5,0.4-0.8V2C22,1.4,21.6,1,21,1z M6,6H3V4h3V6z M11,6H8V4h3V6z M16,6h-3V4h3V6z M21,6h-3V4h3V6z"/>
</svg>
