<?xml version="1.0" encoding="utf-8"?>
<!-- Generator: Adobe Illustrator 19.1.0, SVG Export Plug-In . SVG Version: 6.00 Build 0)  -->
<!DOCTYPE svg PUBLIC "-//W3C//DTD SVG 1.1//EN" "http://www.w3.org/Graphics/SVG/1.1/DTD/svg11.dtd">
<svg version="1.1" id="Layer_1" xmlns="http://www.w3.org/2000/svg" xmlns:xlink="http://www.w3.org/1999/xlink" x="0px" y="0px"
	 width="24px" height="24px" viewBox="0 0 24 24" enable-background="new 0 0 24 24" xml:space="preserve">
<path d="M23.4,3.1l-4-2C19.3,1,19.2,1,19,1h-3c-0.6,0-1,0.4-1,1c0,1.7-1.3,3-3,3S9,3.7,9,2c0-0.6-0.4-1-1-1H5C4.8,1,4.7,1,4.6,1.1
	l-4,2C0.2,3.3,0,3.6,0,4v6c0,0.6,0.4,1,1,1h3v7c0,0.6,0.4,1,1,1c1.7,0,3,1.3,3,3c0,0.6,0.4,1,1,1h6c0.6,0,1-0.4,1-1c0-1.7,1.3-3,3-3
	c0.6,0,1-0.4,1-1v-7h3c0.6,0,1-0.4,1-1V4C24,3.6,23.8,3.3,23.4,3.1z"/>
</svg>
