<?xml version="1.0" encoding="utf-8"?>
<!-- Generator: Adobe Illustrator 19.1.0, SVG Export Plug-In . SVG Version: 6.00 Build 0)  -->
<!DOCTYPE svg PUBLIC "-//W3C//DTD SVG 1.1//EN" "http://www.w3.org/Graphics/SVG/1.1/DTD/svg11.dtd">
<svg version="1.1" id="Layer_1" xmlns="http://www.w3.org/2000/svg" xmlns:xlink="http://www.w3.org/1999/xlink" x="0px" y="0px"
	 width="24px" height="24px" viewBox="0 0 24 24" enable-background="new 0 0 24 24" xml:space="preserve">
<path d="M9.2,4.6C9.4,4.8,9.7,5,10,5h4c0.3,0,0.6-0.2,0.8-0.4l2-3c0.2-0.3,0.2-0.7,0-1C16.7,0.2,16.4,0,16,0H8
	C7.6,0,7.3,0.2,7.1,0.5c-0.2,0.3-0.2,0.7,0,1L9.2,4.6z"/>
<path d="M17.9,16.7l-3-9C14.8,7.3,14.4,7,14,7h-4C9.6,7,9.2,7.3,9.1,7.7l-3,9c-0.1,0.4,0,0.8,0.2,1l5,5c0.2,0.2,0.5,0.3,0.7,0.3
	s0.5-0.1,0.7-0.3l5-5C18,17.4,18.1,17,17.9,16.7z"/>
</svg>
