<?xml version="1.0" encoding="utf-8"?>
<!-- Generator: Adobe Illustrator 19.1.0, SVG Export Plug-In . SVG Version: 6.00 Build 0)  -->
<!DOCTYPE svg PUBLIC "-//W3C//DTD SVG 1.1//EN" "http://www.w3.org/Graphics/SVG/1.1/DTD/svg11.dtd">
<svg version="1.1" id="Layer_1" xmlns="http://www.w3.org/2000/svg" xmlns:xlink="http://www.w3.org/1999/xlink" x="0px" y="0px"
	 width="24px" height="24px" viewBox="0 0 24 24" enable-background="new 0 0 24 24" xml:space="preserve">
<path d="M18.2,8C18.5,6.5,19,3.8,19,1c0-0.6-0.4-1-1-1c-3,0-5,1.1-6,1.7C11,1.1,9,0,6,0C5.4,0,5,0.4,5,1c0,2.8,0.5,5.5,0.8,7H18.2z"
	/>
<path d="M18.6,10H5.4C4.2,12.5,2,17.7,2,23c0,0.6,0.4,1,1,1h18c0.6,0,1-0.4,1-1C22,17.7,19.8,12.5,18.6,10z"/>
</svg>
