<?xml version="1.0" encoding="utf-8"?>
<!-- Generator: Adobe Illustrator 19.1.0, SVG Export Plug-In . SVG Version: 6.00 Build 0)  -->
<!DOCTYPE svg PUBLIC "-//W3C//DTD SVG 1.1//EN" "http://www.w3.org/Graphics/SVG/1.1/DTD/svg11.dtd">
<svg version="1.1" id="Layer_1" xmlns="http://www.w3.org/2000/svg" xmlns:xlink="http://www.w3.org/1999/xlink" x="0px" y="0px"
	 width="24px" height="24px" viewBox="0 0 24 24" enable-background="new 0 0 24 24" xml:space="preserve">
<path d="M20,13V2c0-0.6-0.4-1-1-1H5C4.4,1,4,1.4,4,2v11H20z"/>
<rect x="4" y="15" width="16" height="4"/>
<path d="M23,19c-0.6,0-1,0.4-1,1c0,0.6-0.4,1-1,1H3c-0.6,0-1-0.4-1-1c0-0.6-0.4-1-1-1s-1,0.4-1,1c0,1.7,1.3,3,3,3h18
	c1.7,0,3-1.3,3-3C24,19.4,23.6,19,23,19z"/>
</svg>
