<?xml version="1.0" encoding="utf-8"?>
<!-- Generator: Adobe Illustrator 19.1.0, SVG Export Plug-In . SVG Version: 6.00 Build 0)  -->
<!DOCTYPE svg PUBLIC "-//W3C//DTD SVG 1.1//EN" "http://www.w3.org/Graphics/SVG/1.1/DTD/svg11.dtd">
<svg version="1.1" id="Layer_1" xmlns="http://www.w3.org/2000/svg" xmlns:xlink="http://www.w3.org/1999/xlink" x="0px" y="0px"
	 width="24px" height="24px" viewBox="0 0 24 24" enable-background="new 0 0 24 24" xml:space="preserve">
<path d="M19,13h2v4h3V4c0-2.2-1.8-4-4-4h-4c-0.6,0-1,0.4-1,1c0,1.7-1.3,3-3,3S9,2.7,9,1c0-0.6-0.4-1-1-1H4C1.8,0,0,1.8,0,4v13h3v-4
	h2v11h14V13z M17,10h-4V8h4V10z"/>
<path d="M3,19H0v1c0,0.6,0.4,1,1,1h2V19z"/>
<path d="M21,19v2h2c0.6,0,1-0.4,1-1v-1H21z"/>
</svg>
