<?xml version="1.0" encoding="utf-8"?>
<!-- Generator: Adobe Illustrator 19.1.0, SVG Export Plug-In . SVG Version: 6.00 Build 0)  -->
<!DOCTYPE svg PUBLIC "-//W3C//DTD SVG 1.1//EN" "http://www.w3.org/Graphics/SVG/1.1/DTD/svg11.dtd">
<svg version="1.1" id="Layer_1" xmlns="http://www.w3.org/2000/svg" xmlns:xlink="http://www.w3.org/1999/xlink" x="0px" y="0px"
	 width="24px" height="24px" viewBox="0 0 24 24" enable-background="new 0 0 24 24" xml:space="preserve">
<path d="M23,2c-0.6,0-1,0.4-1,1v2.5C21.4,5.8,20.7,6,20,6c-1.3,0-2.4-0.6-3.2-1.6C16.6,4.1,16.3,4,16,4c-0.3,0-0.6,0.1-0.8,0.4
	C14.4,5.4,13.3,6,12,6c-1.3,0-2.4-0.6-3.2-1.6C8.6,4.1,8.3,4,8,4C7.7,4,7.4,4.1,7.2,4.4C6.4,5.4,5.3,6,4,6C3.3,6,2.6,5.8,2,5.5V3
	c0-0.6-0.4-1-1-1S0,2.4,0,3v18c0,0.6,0.4,1,1,1h22c0.6,0,1-0.4,1-1V3C24,2.4,23.6,2,23,2z M11,17c0,0.6-0.4,1-1,1H6
	c-0.6,0-1-0.4-1-1l0-3c0,0,0,0,0,0s0,0,0,0l0-3c0-0.3,0.1-0.5,0.3-0.7S5.7,10,6,10h4c0.6,0,1,0.4,1,1s-0.4,1-1,1H7l0,1h3
	c0.6,0,1,0.4,1,1V17z M19,17c0,0.6-0.4,1-1,1h-4c-0.6,0-1-0.4-1-1v-6c0-0.6,0.4-1,1-1h4c0.6,0,1,0.4,1,1V17z"/>
<rect x="15" y="12" width="2" height="4"/>
<rect x="7" y="15" width="2" height="1"/>
</svg>
