<?xml version="1.0" encoding="utf-8"?>
<!-- Generator: Adobe Illustrator 19.1.0, SVG Export Plug-In . SVG Version: 6.00 Build 0)  -->
<!DOCTYPE svg PUBLIC "-//W3C//DTD SVG 1.1//EN" "http://www.w3.org/Graphics/SVG/1.1/DTD/svg11.dtd">
<svg version="1.1" id="Layer_1" xmlns="http://www.w3.org/2000/svg" xmlns:xlink="http://www.w3.org/1999/xlink" x="0px" y="0px"
	 width="24px" height="24px" viewBox="0 0 24 24" enable-background="new 0 0 24 24" xml:space="preserve">
<path d="M13.6,6.2C13.1,6.1,12.5,6,12,6H2V5c0-0.6,0.4-1,1-1h7c0.6,0,1-0.4,1-1s-0.4-1-1-1H3C1.3,2,0,3.3,0,5v14
	c0,0.2,0.1,0.4,0.2,0.6L13.6,6.2z"/>
<path d="M21,14.8c-0.1-2.1-0.8-4-2-5.5L12.2,16h7.1l1,2H10.2l-2,2H22c0.3,0,0.7-0.2,0.9-0.5c0.2-0.3,0.2-0.7,0-1L21,14.8z"/>
<path d="M2,23c-0.3,0-0.5-0.1-0.7-0.3c-0.4-0.4-0.4-1,0-1.4l20-20c0.4-0.4,1-0.4,1.4,0s0.4,1,0,1.4l-20,20C2.5,22.9,2.3,23,2,23z"/>
</svg>
