<?xml version="1.0" encoding="utf-8"?>
<!-- Generator: Adobe Illustrator 19.1.0, SVG Export Plug-In . SVG Version: 6.00 Build 0)  -->
<!DOCTYPE svg PUBLIC "-//W3C//DTD SVG 1.1//EN" "http://www.w3.org/Graphics/SVG/1.1/DTD/svg11.dtd">
<svg version="1.1" id="Layer_1" xmlns="http://www.w3.org/2000/svg" xmlns:xlink="http://www.w3.org/1999/xlink" x="0px" y="0px"
	 width="24px" height="24px" viewBox="0 0 24 24" enable-background="new 0 0 24 24" xml:space="preserve">
<path d="M3.6,15.3C5.9,13.2,7,10.2,7,8H0v6c0,0.6,0.4,1,1,1h1C2.6,15,3.1,15.1,3.6,15.3z"/>
<path d="M24,4c0-0.6-0.4-1-1-1H1C0.4,3,0,3.4,0,4v2h24V4z"/>
<path d="M20.4,15.3c0.5-0.2,1-0.3,1.6-0.3h1c0.6,0,1-0.4,1-1V8h-7C17,10.2,18.1,13.2,20.4,15.3z"/>
<path d="M15,8H9c0,2.5-1.2,5.9-3.6,8.3C6.4,17.2,7,18.5,7,20c0,0.6,0.4,1,1,1h8c0.6,0,1-0.4,1-1c0-1.5,0.6-2.8,1.6-3.7
	C16.2,13.9,15,10.5,15,8z"/>
</svg>
