<?xml version="1.0" encoding="utf-8"?>
<!-- Generator: Adobe Illustrator 19.1.0, SVG Export Plug-In . SVG Version: 6.00 Build 0)  -->
<!DOCTYPE svg PUBLIC "-//W3C//DTD SVG 1.1//EN" "http://www.w3.org/Graphics/SVG/1.1/DTD/svg11.dtd">
<svg version="1.1" id="Layer_1" xmlns="http://www.w3.org/2000/svg" xmlns:xlink="http://www.w3.org/1999/xlink" x="0px" y="0px"
	 width="24px" height="24px" viewBox="0 0 24 24" enable-background="new 0 0 24 24" xml:space="preserve">
<path d="M16,4.1L16,4.1C16,1.8,14.2,0,12,0S8,1.8,8,4v0.1C4.6,4.6,2,7.5,2,11v4c1.8-2.4,4.7-4,8-4h4c3.3,0,6.2,1.6,8,4v-4
	C22,7.5,19.4,4.6,16,4.1z M10,4c0-1.1,0.9-2,2-2s2,0.9,2,2H10z"/>
<path d="M14,13h-4c-4.4,0-8,3.6-8,8v2c0,0.6,0.4,1,1,1h18c0.6,0,1-0.4,1-1v-2C22,16.6,18.4,13,14,13z"/>
</svg>
