<?xml version="1.0" encoding="utf-8"?>
<!-- Generator: Adobe Illustrator 19.1.0, SVG Export Plug-In . SVG Version: 6.00 Build 0)  -->
<!DOCTYPE svg PUBLIC "-//W3C//DTD SVG 1.1//EN" "http://www.w3.org/Graphics/SVG/1.1/DTD/svg11.dtd">
<svg version="1.1" id="Layer_1" xmlns="http://www.w3.org/2000/svg" xmlns:xlink="http://www.w3.org/1999/xlink" x="0px" y="0px"
	 width="24px" height="24px" viewBox="0 0 24 24" enable-background="new 0 0 24 24" xml:space="preserve">
<path d="M20,6.9V3c0-0.6-0.4-1-1-1H5C4.4,2,4,2.4,4,3v3.9L1,20.8c-0.1,0.3,0,0.6,0.2,0.8C1.4,21.9,1.7,22,2,22h20
	c0.3,0,0.6-0.1,0.8-0.4c0.2-0.2,0.3-0.5,0.2-0.8L20,6.9z M10,6V4h4v2H10z M18,6h-2V4h2V6z M6,4h2v2H6V4z"/>
</svg>
