<?xml version="1.0" encoding="utf-8"?>
<!-- Generator: Adobe Illustrator 19.1.0, SVG Export Plug-In . SVG Version: 6.00 Build 0)  -->
<!DOCTYPE svg PUBLIC "-//W3C//DTD SVG 1.1//EN" "http://www.w3.org/Graphics/SVG/1.1/DTD/svg11.dtd">
<svg version="1.1" id="Layer_1" xmlns="http://www.w3.org/2000/svg" xmlns:xlink="http://www.w3.org/1999/xlink" x="0px" y="0px"
	 width="24px" height="24px" viewBox="0 0 24 24" enable-background="new 0 0 24 24" xml:space="preserve">
<path d="M22.9,19.6L21,15.8C20.9,10.9,16.9,7,12,7H2V6c0-0.6,0.4-1,1-1h7c0.6,0,1-0.4,1-1s-0.4-1-1-1H3C1.3,3,0,4.3,0,6v14
	c0,0.6,0.4,1,1,1h21c0.3,0,0.7-0.2,0.9-0.5C23,20.2,23,19.9,22.9,19.6z M2,19v-2h17.4l1,2H2z"/>
</svg>
