<?xml version="1.0" encoding="utf-8"?>
<!-- Generator: Adobe Illustrator 19.1.0, SVG Export Plug-In . SVG Version: 6.00 Build 0)  -->
<!DOCTYPE svg PUBLIC "-//W3C//DTD SVG 1.1//EN" "http://www.w3.org/Graphics/SVG/1.1/DTD/svg11.dtd">
<svg version="1.1" id="Layer_1" xmlns="http://www.w3.org/2000/svg" xmlns:xlink="http://www.w3.org/1999/xlink" x="0px" y="0px"
	 width="24px" height="24px" viewBox="0 0 24 24" enable-background="new 0 0 24 24" xml:space="preserve">
<path d="M20,17.5l-1.5-0.4L13,11.6V1c0-0.6-0.4-1-1-1H2C1.4,0,1,0.4,1,1v22c0,0.6,0.4,1,1,1h3c0.6,0,1-0.4,1-1v-4.6
	c0.5,0.4,1.1,0.9,1.6,1.4C9.5,21.6,12,24,16,24h6c0.6,0,1-0.4,1-1v-1.7C23,19.5,21.8,17.9,20,17.5z"/>
</svg>
