<?xml version="1.0" encoding="utf-8"?>
<!-- Generator: Adobe Illustrator 19.1.0, SVG Export Plug-In . SVG Version: 6.00 Build 0)  -->
<!DOCTYPE svg PUBLIC "-//W3C//DTD SVG 1.1//EN" "http://www.w3.org/Graphics/SVG/1.1/DTD/svg11.dtd">
<svg version="1.1" id="Layer_1" xmlns="http://www.w3.org/2000/svg" xmlns:xlink="http://www.w3.org/1999/xlink" x="0px" y="0px"
	 width="24px" height="24px" viewBox="0 0 24 24" enable-background="new 0 0 24 24" xml:space="preserve">
<path d="M23,6h-5c0-3.3-2.7-6-6-6S6,2.7,6,6H1C0.4,6,0,6.4,0,7v12c0,2.8,2.2,5,5,5h14c2.8,0,5-2.2,5-5V7C24,6.4,23.6,6,23,6z M16,18
	c0,0.6-0.4,1-1,1H9c-0.6,0-1-0.4-1-1v-4c0-0.6,0.4-1,1-1h6c0.6,0,1,0.4,1,1V18z M8,6c0-2.2,1.8-4,4-4s4,1.8,4,4H8z"/>
</svg>
