<?xml version="1.0" encoding="utf-8"?>
<!-- Generator: Adobe Illustrator 19.1.0, SVG Export Plug-In . SVG Version: 6.00 Build 0)  -->
<!DOCTYPE svg PUBLIC "-//W3C//DTD SVG 1.1//EN" "http://www.w3.org/Graphics/SVG/1.1/DTD/svg11.dtd">
<svg version="1.1" id="Layer_1" xmlns="http://www.w3.org/2000/svg" xmlns:xlink="http://www.w3.org/1999/xlink" x="0px" y="0px"
	 width="24px" height="24px" viewBox="0 0 24 24" enable-background="new 0 0 24 24" xml:space="preserve">
<path d="M23.9,13.6l-4-11C19.8,2.3,19.4,2,19,2h-3c-0.6,0-1,0.4-1,1s0.4,1,1,1h2.3l3.3,9H14h-4H2.4l3.3-9H8c0.6,0,1-0.4,1-1
	S8.6,2,8,2H5C4.6,2,4.2,2.3,4.1,2.7l-4,11C0,13.7,0,13.9,0,14c0,0,0,0,0,0v0c0,0,0,0,0,0v5c0,1.7,1.3,3,3,3h5c1.7,0,3-1.3,3-3v-4h2
	v4c0,1.7,1.3,3,3,3h5c1.7,0,3-1.3,3-3v-5c0,0,0,0,0,0v0c0,0,0,0,0,0C24,13.9,24,13.7,23.9,13.6z"/>
</svg>
