<?xml version="1.0" encoding="utf-8"?>
<!-- Generator: Adobe Illustrator 19.1.0, SVG Export Plug-In . SVG Version: 6.00 Build 0)  -->
<!DOCTYPE svg PUBLIC "-//W3C//DTD SVG 1.1//EN" "http://www.w3.org/Graphics/SVG/1.1/DTD/svg11.dtd">
<svg version="1.1" id="Layer_1" xmlns="http://www.w3.org/2000/svg" xmlns:xlink="http://www.w3.org/1999/xlink" x="0px" y="0px"
	 width="24px" height="24px" viewBox="0 0 24 24" enable-background="new 0 0 24 24" xml:space="preserve">
<path d="M21,0c-0.6,0-1,0.4-1,1v1h-3V1c0-0.6-0.4-1-1-1s-1,0.4-1,1v1h-3V1c0-0.6-0.4-1-1-1s-1,0.4-1,1v7H5c-1.7,0-3,1.3-3,3v12
	c0,0.6,0.4,1,1,1s1-0.4,1-1v-1h3v1c0,0.6,0.4,1,1,1s1-0.4,1-1v-1h3v1c0,0.6,0.4,1,1,1s1-0.4,1-1v-8h5c1.7,0,3-1.3,3-3V1
	C22,0.4,21.6,0,21,0z M15,10c0.6,0,1,0.4,1,1v1c0,0.4,0.1,0.7,0.2,1H14v-2C14,10.4,14.4,10,15,10z M20,12c0,0.6-0.4,1-1,1
	s-1-0.4-1-1v-1c0-1.7-1.3-3-3-3h-3V4h8V12z"/>
</svg>
