<?xml version="1.0" encoding="utf-8"?>
<!-- Generator: Adobe Illustrator 19.1.0, SVG Export Plug-In . SVG Version: 6.00 Build 0)  -->
<!DOCTYPE svg PUBLIC "-//W3C//DTD SVG 1.1//EN" "http://www.w3.org/Graphics/SVG/1.1/DTD/svg11.dtd">
<svg version="1.1" id="Layer_1" xmlns="http://www.w3.org/2000/svg" xmlns:xlink="http://www.w3.org/1999/xlink" x="0px" y="0px"
	 width="24px" height="24px" viewBox="0 0 24 24" enable-background="new 0 0 24 24" xml:space="preserve">
<path d="M22.8,8.3C21,6.4,20,3.7,20,1c0-0.6-0.4-1-1-1h-3c-0.6,0-1,0.4-1,1c0,1.7-1.3,3-3,3S9,2.7,9,1c0-0.6-0.4-1-1-1H5
	C4.4,0,4,0.4,4,1c0,2.7-1,5.4-2.8,7.3C1.1,8.5,1,8.8,1,9v14c0,0.6,0.4,1,1,1h20c0.6,0,1-0.4,1-1V9C23,8.8,22.9,8.5,22.8,8.3z"/>
</svg>
