<?xml version="1.0" encoding="utf-8"?>
<!-- Generator: Adobe Illustrator 19.1.0, SVG Export Plug-In . SVG Version: 6.00 Build 0)  -->
<!DOCTYPE svg PUBLIC "-//W3C//DTD SVG 1.1//EN" "http://www.w3.org/Graphics/SVG/1.1/DTD/svg11.dtd">
<svg version="1.1" id="Layer_1" xmlns="http://www.w3.org/2000/svg" xmlns:xlink="http://www.w3.org/1999/xlink" x="0px" y="0px"
	 width="24px" height="24px" viewBox="0 0 24 24" enable-background="new 0 0 24 24" xml:space="preserve">
<path d="M23,8h-6V7c0-0.6-0.4-1-1-1H8C7.4,6,7,6.4,7,7v1H1C0.4,8,0,8.4,0,9v6c0,0.6,0.4,1,1,1h6v1c0,0.6,0.4,1,1,1h8
	c0.6,0,1-0.4,1-1v-1h6c0.6,0,1-0.4,1-1V9C24,8.4,23.6,8,23,8z M15,16H9v-3h2c0.6,0,1-0.4,1-1s-0.4-1-1-1H9V8h6V16z"/>
</svg>
