<svg xmlns="http://www.w3.org/2000/svg" width="24" height="24" viewBox="0 0 24 24">
  <title>shopping-24px-glyph-2_basket-update</title>
  <path d="M23,6H19.009L15.868.5a1,1,0,1,0-1.736.992L16.705,6H7.294L9.868,1.5A1,1,0,1,0,8.132.5L4.991,6H1A1,1,0,0,0,0,7v3a1,1,0,0,0,1,1H2V22a1,1,0,0,0,1,1h7V21H4V11H23a1,1,0,0,0,1-1V7A1,1,0,0,0,23,6Z" fill="#1d1d1b"/>
  <path d="M18,13a5,5,0,0,0-4.842,3.751l1.937.5a3,3,0,0,1,5.036-1.356l-1.608,1.168,4.27.939.428-4.351-1.466,1.065A5.011,5.011,0,0,0,18,13Z" fill="#1d1d1b"/>
  <path d="M18,22a3.01,3.01,0,0,1-2.131-.893l1.608-1.168L13.208,19l-.428,4.351,1.466-1.065a4.988,4.988,0,0,0,8.6-2.037l-1.937-.5A3,3,0,0,1,18,22Z" fill="#1d1d1b"/>
</svg>
