<svg xmlns="http://www.w3.org/2000/svg" width="24" height="24" viewBox="0 0 24 24">
  <title>shopping-24px-glyph_receipt</title>
  <path d="M12.551,14.523v1.945q1.062-.179,1.063-.922C13.613,15.019,13.033,14.744,12.551,14.523Z"/>
  <path d="M10.473,10.8c0,.552.5.8,1.008,1.023V9.992Q10.473,10.141,10.473,10.8Z"/>
  <path d="M22,23V0L18,3,15,0,12,3,9,0,6,3,2,0V23a1,1,0,0,0,1,1H21A1,1,0,0,0,22,23Zm-9.449-4.672v1.6H11.48v-1.57a8.681,8.681,0,0,1-3.344-.672V15.625a10.1,10.1,0,0,0,3.344.9V14.1c-1.789-.694-3.359-1.367-3.359-3.3,0-1.753,1.608-2.577,3.359-2.75v-1.2h1.07V8.023a8.883,8.883,0,0,1,3.234.719l-.734,1.828a8.466,8.466,0,0,0-2.5-.609v2.3c1.9.73,3.414,1.4,3.414,3.164C15.965,17.295,14.416,18.157,12.551,18.328Z"/>
</svg>
