<svg xmlns="http://www.w3.org/2000/svg" width="24" height="24" viewBox="0 0 24 24">
  <title>shopping-24px-glyph_shop-location</title>
  <path d="M18,8a5.942,5.942,0,0,0-6,6c0,3.415,4.751,8.265,5.293,8.807a1,1,0,0,0,1.414,0C19.249,22.265,24,17.415,24,14A5.942,5.942,0,0,0,18,8Zm0,8a2,2,0,1,1,2-2A2,2,0,0,1,18,16Z"/>
  <path d="M0,8c0,2.355,1.439,4,3.5,4A3.489,3.489,0,0,0,6,10.947a3.474,3.474,0,0,0,4.393.486A7.994,7.994,0,0,1,18,6a8.181,8.181,0,0,1,3.458.785L17.868.5A1,1,0,0,0,17,0H5a1,1,0,0,0-.868.5l-4,7A1,1,0,0,0,0,8Z"/>
  <path d="M10.011,13.782A5.454,5.454,0,0,1,6,13.4a5.463,5.463,0,0,1-2.5.6c-.17,0-.336-.011-.5-.025V21a1,1,0,0,0,1,1h9.863C12.094,19.861,10,16.749,10,14,10,13.925,10.009,13.856,10.011,13.782Z"/>
</svg>
