<svg xmlns="http://www.w3.org/2000/svg" width="24" height="24" viewBox="0 0 24 24">
  <title>shopping-24px-glyph_gift</title>
  <path d="M23,4H18.816A2.965,2.965,0,0,0,19,3a3,3,0,0,0-3-3,4.716,4.716,0,0,0-4,2.545A4.718,4.718,0,0,0,8,0,3,3,0,0,0,5,3a2.965,2.965,0,0,0,.184,1H1A1,1,0,0,0,0,5V7A1,1,0,0,0,1,8H23a1,1,0,0,0,1-1V5A1,1,0,0,0,23,4ZM8,4A1,1,0,0,1,8,2a3.119,3.119,0,0,1,2.531,2Zm8,0H13.469A3.119,3.119,0,0,1,16,2a1,1,0,0,1,0,2Z"/>
  <path d="M11,24V10H2V23a1,1,0,0,0,1,1Z"/>
  <path d="M13,24h8a1,1,0,0,0,1-1V10H13Z"/>
</svg>
