<svg xmlns="http://www.w3.org/2000/svg" width="24" height="24" viewBox="0 0 24 24">
  <title>shopping-24px-glyph-2_cut</title>
  <rect x="14" y="7" width="4" height="2" fill="#1d1d1b"/>
  <rect x="14" y="21" width="4" height="2" fill="#1d1d1b"/>
  <rect x="8" y="21" width="4" height="2" fill="#1d1d1b"/>
  <rect x="22" y="13" width="2" height="4" fill="#1d1d1b"/>
  <path d="M23,7H20V9h2v2h2V8A1,1,0,0,0,23,7Z" fill="#1d1d1b"/>
  <path d="M22,21H20v2h3a1,1,0,0,0,1-1V19H22Z" fill="#1d1d1b"/>
  <path d="M2,19v3a1,1,0,0,0,1,1H6V21H4V19Z" fill="#1d1d1b"/>
  <path d="M3,10a3,3,0,1,0,3,3,2.97,2.97,0,0,0-.2-1.058L8.909,9.31l6.446,5.454a1,1,0,0,0,1.291-1.527L10.457,8l6.189-5.236a1,1,0,1,0-1.291-1.527L8.909,6.69,5.8,4.058A2.97,2.97,0,0,0,6,3,3,3,0,1,0,3,6a2.966,2.966,0,0,0,1.5-.419L7.361,8,4.5,10.419A2.966,2.966,0,0,0,3,10Zm0,4a1,1,0,1,1,1-1A1,1,0,0,1,3,14ZM3,4A1,1,0,1,1,4,3,1,1,0,0,1,3,4Z" fill="#1d1d1b"/>
</svg>
