<svg xmlns="http://www.w3.org/2000/svg" width="24" height="24" viewBox="0 0 24 24">
  <title>shopping-24px-glyph-2_sale</title>
  <rect y="4" width="24" height="2" fill="#1d1d1b"/>
  <rect y="18" width="24" height="2" fill="#1d1d1b"/>
  <path d="M2.938,14.365a5.4,5.4,0,0,1-2.091-.573v1.375a4.441,4.441,0,0,0,1.976.42,2.956,2.956,0,0,0,1.893-.544,1.805,1.805,0,0,0,.68-1.489A1.832,1.832,0,0,0,5.033,12.4a3.737,3.737,0,0,0-1.341-.938,8.811,8.811,0,0,1-.938-.489A.693.693,0,0,1,2.6,9.84a1.674,1.674,0,0,1,1.363-.1,7.011,7.011,0,0,1,.924.32L5.362,8.9a7.158,7.158,0,0,0-1.033-.363,3.265,3.265,0,0,0-2.773.4A1.967,1.967,0,0,0,1.629,11.9a16.25,16.25,0,0,0,1.864,1.05.82.82,0,0,1,.451.673C3.945,14.182,3.489,14.365,2.938,14.365Z" fill="#1d1d1b"/>
  <path d="M10.5,13.831,11,15.492H12.6L10.124,8.484H8.314L5.851,15.492H7.445l.506-1.661ZM9.226,9.568c.085.38.8,2.632.917,3.021H8.324Q9.069,10.179,9.226,9.568Z" fill="#1d1d1b"/>
  <polygon points="13.542 8.513 13.542 15.492 17.853 15.492 17.853 14.27 15.022 14.27 15.022 8.513 13.542 8.513" fill="#1d1d1b"/>
  <polygon points="23.153 9.725 23.153 8.513 19.134 8.513 19.134 15.492 23.153 15.492 23.153 14.27 20.614 14.27 20.614 12.47 22.977 12.47 22.977 11.258 20.614 11.258 20.614 9.725 23.153 9.725" fill="#1d1d1b"/>
</svg>
