<svg xmlns="http://www.w3.org/2000/svg" width="24" height="24" viewBox="0 0 24 24">
  <title>shopping-24px-glyph-2_delivery-2</title>
  <circle cx="6.5" cy="21.5" r="2.5" fill="#1d1d1b"/>
  <path d="M4.991.868A1,1,0,0,0,4,0H0V2H3.124L5.009,16.132A1,1,0,0,0,6,17H17.245l1.793,6.274A1,1,0,0,0,20,24a1.029,1.029,0,0,0,.275-.038,1,1,0,0,0,.688-1.236L19.326,17H24V15H6.876Z" fill="#1d1d1b"/>
  <path d="M22,13a1,1,0,0,0,1-1V1a1,1,0,0,0-1-1H9A1,1,0,0,0,8,1V12a1,1,0,0,0,1,1ZM13,3h5V5H13Z" fill="#1d1d1b"/>
</svg>
