<svg xmlns="http://www.w3.org/2000/svg" width="24" height="24" viewBox="0 0 24 24">
  <title>shopping-24px-glyph_basket-edit</title>
  <path d="M23,7H19.58L15.868.5a1,1,0,1,0-1.736.992L17.277,7H6.723L9.868,1.5A1,1,0,1,0,8.132.5L4.42,7H1A1,1,0,0,0,0,8v2a1,1,0,0,0,1,1H23a1,1,0,0,0,1-1V8A1,1,0,0,0,23,7Z"/>
  <path d="M15.879,15.879,18.758,13H2V23a1,1,0,0,0,1,1H21a1,1,0,0,0,1-1V20.242l-.88.879A3,3,0,0,1,19,22H16a1,1,0,0,1-1-1V18A3,3,0,0,1,15.879,15.879Z"/>
  <path d="M23.5,13.5a1.707,1.707,0,0,0-2.414,0l-3.793,3.793A1,1,0,0,0,17,18v2h2a1,1,0,0,0,.707-.293L23.5,15.914a1.707,1.707,0,0,0,0-2.414Z"/>
</svg>
