<svg xmlns="http://www.w3.org/2000/svg" width="24" height="24" viewBox="0 0 24 24">
  <title>shopping-24px-glyph_hand-card</title>
  <path d="M17,5.076V3a1,1,0,0,0-1-1H1A1,1,0,0,0,0,3V7H8.1a4.955,4.955,0,0,0,.924,2H0v7a1,1,0,0,0,1,1H3.281l.179.537a4.015,4.015,0,0,0,3.289,2.7A88.166,88.166,0,0,0,16,21a7.888,7.888,0,0,0,5.653-2.327A8.194,8.194,0,0,0,24,12.771,7.946,7.946,0,0,0,17,5.076ZM3,14V12H8v2Zm17.234,3.266A5.9,5.9,0,0,1,16,19a86.341,86.341,0,0,1-9-.744A1.969,1.969,0,0,1,5.4,17H16a1,1,0,0,0,1-1h0V12.815A3,3,0,0,1,15,10a1,1,0,0,0-1-1H13a3.006,3.006,0,0,1-2.829-2h5.772A5.974,5.974,0,0,1,22,12.791,6.206,6.206,0,0,1,20.234,17.266Z"/>
</svg>
