<svg xmlns="http://www.w3.org/2000/svg" width="24" height="24" viewBox="0 0 24 24">
  <title>shopping-24px-glyph-2_basket-favorite</title>
  <path d="M23,6H19.009L15.868.5a1,1,0,1,0-1.736.992L16.705,6H7.294L9.868,1.5A1,1,0,1,0,8.132.5L4.991,6H1A1,1,0,0,0,0,7v3a1,1,0,0,0,1,1H2V22a1,1,0,0,0,1,1H13V21H4V11H23a1,1,0,0,0,1-1V7A1,1,0,0,0,23,6Z" fill="#1d1d1b"/>
  <path d="M19,16.24a2.7,2.7,0,0,0-4.2-.428,2.8,2.8,0,0,0,0,3.919L19,24l4.2-4.269a2.8,2.8,0,0,0,0-3.919A2.7,2.7,0,0,0,19,16.24Z" fill="#1d1d1b"/>
</svg>
