<?xml version="1.0" encoding="utf-8"?>
<!-- Generator: Adobe Illustrator 19.1.0, SVG Export Plug-In . SVG Version: 6.00 Build 0)  -->
<!DOCTYPE svg PUBLIC "-//W3C//DTD SVG 1.1//EN" "http://www.w3.org/Graphics/SVG/1.1/DTD/svg11.dtd">
<svg version="1.1" id="Layer_1" xmlns="http://www.w3.org/2000/svg" xmlns:xlink="http://www.w3.org/1999/xlink" x="0px" y="0px"
	 width="64px" height="64px" viewBox="0 0 64 64" enable-background="new 0 0 64 64" xml:space="preserve">
<path fill="#231F20" d="M62.8,28.4C61,13,47.9,1,32,1S3,13,1.2,28.4C1.1,29,1,29.8,1,30.5c0,0.2,0,0.3,0,0.5c0,0.3,0,0.7,0,1
	c0,17.1,13.9,31,31,31s31-13.9,31-31c0-0.3,0-0.7,0-1c0-0.2,0-0.3,0-0.5C63,29.8,62.9,29,62.8,28.4z M3.2,28.7
	C4,24.9,7.4,22,11.5,22H15v6c0,2.2,1.8,4,4,4s4-1.8,4-4v-6h18v6c0,2.2,1.8,4,4,4s4-1.8,4-4v-6h3.5c4.1,0,7.5,2.9,8.3,6.7
	c0.1,0.8,0.1,1.5,0.2,2.3c-0.3,4.5-4,8-8.5,8h-41C7,39,3.3,35.5,3,31C3.1,30.2,3.1,29.5,3.2,28.7z M21,22v6c0,1.1-0.9,2-2,2
	s-2-0.9-2-2v-6H21z M47,22v6c0,1.1-0.9,2-2,2s-2-0.9-2-2v-6H47z M32,3c12.7,0,23.5,8.2,27.4,19.6C57.6,21,55.2,20,52.5,20h-41
	c-2.7,0-5.1,1-6.9,2.6C8.5,11.2,19.3,3,32,3z M32,61C17.8,61,6,50.8,3.5,37.3c1.9,2.3,4.8,3.7,8,3.7h41c3.2,0,6.1-1.5,8-3.7
	C58,50.8,46.2,61,32,61z"/>
</svg>
