<?xml version="1.0" encoding="utf-8"?>
<!-- Generator: Adobe Illustrator 19.1.0, SVG Export Plug-In . SVG Version: 6.00 Build 0)  -->
<!DOCTYPE svg PUBLIC "-//W3C//DTD SVG 1.1//EN" "http://www.w3.org/Graphics/SVG/1.1/DTD/svg11.dtd">
<svg version="1.1" id="Layer_1" xmlns="http://www.w3.org/2000/svg" xmlns:xlink="http://www.w3.org/1999/xlink" x="0px" y="0px"
	 width="64px" height="64px" viewBox="0 0 64 64" enable-background="new 0 0 64 64" xml:space="preserve">
<path fill="#231F20" d="M32,1C14.9,1,1,14.9,1,32s13.9,31,31,31s31-13.9,31-31S49.1,1,32,1z M32,61C16,61,3,48,3,32S16,3,32,3
	s29,13,29,29S48,61,32,61z"/>
<path fill="#231F20" d="M38,26c0.2,0,0.3,0,0.5-0.1l9-5c0.5-0.3,0.7-0.9,0.4-1.4c-0.3-0.5-0.9-0.7-1.4-0.4l-9,5
	c-0.5,0.3-0.7,0.9-0.4,1.4C37.3,25.8,37.6,26,38,26z"/>
<path fill="#231F20" d="M16.5,20.9l9,5C25.7,26,25.8,26,26,26c0.4,0,0.7-0.2,0.9-0.5c0.3-0.5,0.1-1.1-0.4-1.4l-9-5
	c-0.5-0.3-1.1-0.1-1.4,0.4C15.9,20,16,20.6,16.5,20.9z"/>
<path fill="#231F20" d="M43.5,34h-23c-4.1,0-7.5,3.4-7.5,7.5s3.4,7.5,7.5,7.5h23c4.1,0,7.5-3.4,7.5-7.5S47.6,34,43.5,34z M37,36v11
	H27V36H37z M15,41.5c0-3,2.5-5.5,5.5-5.5H25v11h-4.5C17.5,47,15,44.5,15,41.5z M43.5,47H39V36h4.5c3,0,5.5,2.5,5.5,5.5
	S46.5,47,43.5,47z"/>
</svg>
