<?xml version="1.0" encoding="utf-8"?>
<!-- Generator: Adobe Illustrator 19.1.0, SVG Export Plug-In . SVG Version: 6.00 Build 0)  -->
<!DOCTYPE svg PUBLIC "-//W3C//DTD SVG 1.1//EN" "http://www.w3.org/Graphics/SVG/1.1/DTD/svg11.dtd">
<svg version="1.1" id="Layer_1" xmlns="http://www.w3.org/2000/svg" xmlns:xlink="http://www.w3.org/1999/xlink" x="0px" y="0px"
	 width="64px" height="64px" viewBox="0 0 64 64" enable-background="new 0 0 64 64" xml:space="preserve">
<path fill="#231F20" d="M32,1C14.9,1,1,14.9,1,32s13.9,31,31,31s31-13.9,31-31S49.1,1,32,1z M32,61C16,61,3,48,3,32S16,3,32,3
	s29,13,29,29S48,61,32,61z"/>
<path fill="#231F20" d="M46.5,21.1l-9,5c-0.5,0.3-0.7,0.9-0.4,1.4c0.2,0.3,0.5,0.5,0.9,0.5c0.2,0,0.3,0,0.5-0.1l9-5
	c0.5-0.3,0.7-0.9,0.4-1.4C47.6,21,47,20.9,46.5,21.1z"/>
<path fill="#231F20" d="M26,28c0.4,0,0.7-0.2,0.9-0.5c0.3-0.5,0.1-1.1-0.4-1.4l-9-5c-0.5-0.3-1.1-0.1-1.4,0.4
	c-0.3,0.5-0.1,1.1,0.4,1.4l9,5C25.7,28,25.8,28,26,28z"/>
<path fill="#231F20" d="M32,37c-6.1,0-11,4.9-11,11c0,0.6,0.4,1,1,1h20c0.6,0,1-0.4,1-1C43,41.9,38.1,37,32,37z M23.1,47
	c0.5-4.5,4.3-8,8.9-8s8.4,3.5,8.9,8H23.1z"/>
</svg>
