<?xml version="1.0" encoding="utf-8"?>
<!-- Generator: Adobe Illustrator 19.1.0, SVG Export Plug-In . SVG Version: 6.00 Build 0)  -->
<!DOCTYPE svg PUBLIC "-//W3C//DTD SVG 1.1//EN" "http://www.w3.org/Graphics/SVG/1.1/DTD/svg11.dtd">
<svg version="1.1" id="Layer_1" xmlns="http://www.w3.org/2000/svg" xmlns:xlink="http://www.w3.org/1999/xlink" x="0px" y="0px"
	 width="64px" height="64px" viewBox="0 0 64 64" enable-background="new 0 0 64 64" xml:space="preserve">
<path fill="#231F20" d="M60.4,19.5C55.6,8.6,44.7,1,32,1C19.3,1,8.4,8.6,3.6,19.5c0,0,0,0.1-0.1,0.1C1.9,23.5,1,27.6,1,32
	c0,17.1,13.9,31,31,31s31-13.9,31-31c0-4.4-0.9-8.5-2.6-12.3C60.4,19.6,60.4,19.6,60.4,19.5z M32,3c11.3,0,21.1,6.5,25.9,16H56H32H8
	H6.1C10.9,9.5,20.7,3,32,3z M54.7,21l-3.4,12H36.8l-3.4-12H54.7z M30.7,21l-3.4,12H12.8L9.3,21H30.7z M32,61C16,61,3,48,3,32
	c0-3.9,0.8-7.6,2.2-11h2.1L11,34.3c0.1,0.4,0.5,0.7,1,0.7h16c0.4,0,0.8-0.3,1-0.7l3-10.6l3,10.6c0.1,0.4,0.5,0.7,1,0.7h16
	c0.4,0,0.8-0.3,1-0.7L56.8,21h2.1c1.4,3.4,2.2,7.1,2.2,11C61,48,48,61,32,61z"/>
<path fill="#231F20" d="M48.2,41.1c-0.5-0.2-1.1,0.2-1.2,0.7c-3,10.4-14.4,9.2-14.8,9.1c-0.6-0.1-1,0.3-1.1,0.9s0.3,1,0.9,1.1
	c0,0,0.6,0.1,1.5,0.1c3.6,0,12.8-1,15.5-10.6C49,41.8,48.7,41.3,48.2,41.1z"/>
</svg>
