<?xml version="1.0" encoding="utf-8"?>
<!-- Generator: Adobe Illustrator 19.1.0, SVG Export Plug-In . SVG Version: 6.00 Build 0)  -->
<!DOCTYPE svg PUBLIC "-//W3C//DTD SVG 1.1//EN" "http://www.w3.org/Graphics/SVG/1.1/DTD/svg11.dtd">
<svg version="1.1" id="Layer_1" xmlns="http://www.w3.org/2000/svg" xmlns:xlink="http://www.w3.org/1999/xlink" x="0px" y="0px"
	 width="64px" height="64px" viewBox="0 0 64 64" enable-background="new 0 0 64 64" xml:space="preserve">
<path fill="#231F20" d="M32,1C14.9,1,1,14.9,1,32s13.9,31,31,31s31-13.9,31-31S49.1,1,32,1z M32,61C16,61,3,48,3,32S16,3,32,3
	s29,13,29,29S48,61,32,61z"/>
<path fill="#231F20" d="M48,21H38c-0.6,0-1,0.4-1,1s0.4,1,1,1h10c0.6,0,1-0.4,1-1S48.6,21,48,21z"/>
<path fill="#231F20" d="M16,23h10c0.6,0,1-0.4,1-1s-0.4-1-1-1H16c-0.6,0-1,0.4-1,1S15.4,23,16,23z"/>
<path fill="#231F20" d="M16,28c-0.6,0-1,0.4-1,1v5c0,0.6,0.4,1,1,1s1-0.4,1-1v-5C17,28.4,16.6,28,16,28z"/>
<path fill="#231F20" d="M16,40c-0.6,0-1,0.4-1,1v5c0,0.6,0.4,1,1,1s1-0.4,1-1v-5C17,40.4,16.6,40,16,40z"/>
<path fill="#231F20" d="M48,28c-0.6,0-1,0.4-1,1v5c0,0.6,0.4,1,1,1s1-0.4,1-1v-5C49,28.4,48.6,28,48,28z"/>
<path fill="#231F20" d="M48,40c-0.6,0-1,0.4-1,1v5c0,0.6,0.4,1,1,1s1-0.4,1-1v-5C49,40.4,48.6,40,48,40z"/>
<path fill="#231F20" d="M32,35c-5,0-9,4-9,9s4,9,9,9s9-4,9-9S37,35,32,35z M32,51c-3.9,0-7-3.1-7-7s3.1-7,7-7s7,3.1,7,7
	S35.9,51,32,51z"/>
</svg>
