<?xml version="1.0" encoding="utf-8"?>
<!-- Generator: Adobe Illustrator 19.1.0, SVG Export Plug-In . SVG Version: 6.00 Build 0)  -->
<!DOCTYPE svg PUBLIC "-//W3C//DTD SVG 1.1//EN" "http://www.w3.org/Graphics/SVG/1.1/DTD/svg11.dtd">
<svg version="1.1" id="Layer_1" xmlns="http://www.w3.org/2000/svg" xmlns:xlink="http://www.w3.org/1999/xlink" x="0px" y="0px"
	 width="64px" height="64px" viewBox="0 0 64 64" enable-background="new 0 0 64 64" xml:space="preserve">
<path fill="#231F20" d="M32,1C14.9,1,1,14.9,1,32s13.9,31,31,31s31-13.9,31-31S49.1,1,32,1z M32,61C16,61,3,48,3,32S16,3,32,3
	s29,13,29,29S48,61,32,61z"/>
<path fill="#231F20" d="M48,33c-0.6,0-1,0.4-1,1c0,8.3-6.7,15-15,15s-15-6.7-15-15c0-0.6-0.4-1-1-1s-1,0.4-1,1c0,9.4,7.6,17,17,17
	s17-7.6,17-17C49,33.4,48.6,33,48,33z"/>
<path fill="#231F20" d="M16,25c0.6,0,1-0.4,1-1c0-1.7,1.3-3,3-3s3,1.3,3,3c0,0.6,0.4,1,1,1s1-0.4,1-1c0-2.8-2.2-5-5-5s-5,2.2-5,5
	C15,24.6,15.4,25,16,25z"/>
<path fill="#231F20" d="M44,19c-2.8,0-5,2.2-5,5c0,0.6,0.4,1,1,1s1-0.4,1-1c0-1.7,1.3-3,3-3s3,1.3,3,3c0,0.6,0.4,1,1,1s1-0.4,1-1
	C49,21.2,46.8,19,44,19z"/>
</svg>
