<?xml version="1.0" encoding="utf-8"?>
<!-- Generator: Adobe Illustrator 19.1.0, SVG Export Plug-In . SVG Version: 6.00 Build 0)  -->
<!DOCTYPE svg PUBLIC "-//W3C//DTD SVG 1.1//EN" "http://www.w3.org/Graphics/SVG/1.1/DTD/svg11.dtd">
<svg version="1.1" id="Layer_1" xmlns="http://www.w3.org/2000/svg" xmlns:xlink="http://www.w3.org/1999/xlink" x="0px" y="0px"
	 width="64px" height="64px" viewBox="0 0 64 64" enable-background="new 0 0 64 64" xml:space="preserve">
<path fill="#231F20" d="M32,1C14.9,1,1,12.4,1,26.5C1,40.5,20.1,63,32,63s31-22.5,31-36.5C63,12.7,48.8,1,32,1z M32,61
	C21.2,61,3,39.4,3,26.5C3,13.5,16,3,32,3c15.7,0,29,10.8,29,23.5C61,39.4,42.8,61,32,61z"/>
<path fill="#231F20" d="M12.9,22.8c-0.5,0-1,0.5-1,1c0,0.3,0.2,8.4,4.6,12.8c3.8,3.8,9.7,4.6,10,4.6c0,0,0.1,0,0.1,0
	c0.5,0,0.9-0.3,1-0.8c0.1-0.4,2-9-2-12.9C20.7,22.5,13.2,22.8,12.9,22.8z M25.8,39c-1.7-0.4-5.4-1.4-7.9-3.9c-3-3-3.8-8.2-3.9-10.4
	c2.1,0.1,6.9,0.8,10.2,4.1C26.7,31.4,26.1,36.9,25.8,39z"/>
<path fill="#231F20" d="M51.1,22.8c-0.3,0-7.8-0.3-12.7,4.7c-3.9,3.9-2.1,12.6-2,12.9c0.1,0.5,0.5,0.8,1,0.8c0,0,0.1,0,0.1,0
	c0.3,0,6.2-0.8,10-4.6c4.4-4.4,4.6-12.5,4.6-12.8C52.1,23.3,51.7,22.8,51.1,22.8z M46.1,35.2c-2.5,2.5-6.2,3.5-7.9,3.9
	c-0.4-2.7-0.7-7.8,1.6-10.1c3.3-3.3,8.1-4,10.2-4.1C49.8,27,49.1,32.2,46.1,35.2z"/>
</svg>
