<?xml version="1.0" encoding="utf-8"?>
<!-- Generator: Adobe Illustrator 19.1.0, SVG Export Plug-In . SVG Version: 6.00 Build 0)  -->
<!DOCTYPE svg PUBLIC "-//W3C//DTD SVG 1.1//EN" "http://www.w3.org/Graphics/SVG/1.1/DTD/svg11.dtd">
<svg version="1.1" id="Layer_1" xmlns="http://www.w3.org/2000/svg" xmlns:xlink="http://www.w3.org/1999/xlink" x="0px" y="0px"
	 width="64px" height="64px" viewBox="0 0 64 64" enable-background="new 0 0 64 64" xml:space="preserve">
<path fill="#231F20" d="M32,1C14.9,1,1,14.9,1,32c0,17.1,13.9,31,31,31s31-13.9,31-31C63,14.9,49.1,1,32,1z M32,61C16,61,3,48,3,32
	C3,16,16,3,32,3s29,13,29,29C61,48,48,61,32,61z"/>
<path fill="#231F20" d="M40,43H24c-0.6,0-1,0.4-1,1s0.4,1,1,1h16c0.6,0,1-0.4,1-1S40.6,43,40,43z"/>
<path fill="#231F20" d="M25,24c0-2.8-2.2-5-5-5s-5,2.2-5,5s2.2,5,5,5S25,26.8,25,24z M20,27c-1.7,0-3-1.3-3-3s1.3-3,3-3s3,1.3,3,3
	S21.7,27,20,27z"/>
<path fill="#231F20" d="M42,17c-3.9,0-7,3.1-7,7s3.1,7,7,7s7-3.1,7-7S45.9,17,42,17z M42,29c-2.8,0-5-2.2-5-5s2.2-5,5-5s5,2.2,5,5
	S44.8,29,42,29z"/>
</svg>
