<?xml version="1.0" encoding="utf-8"?>
<!-- Generator: Adobe Illustrator 19.1.0, SVG Export Plug-In . SVG Version: 6.00 Build 0)  -->
<!DOCTYPE svg PUBLIC "-//W3C//DTD SVG 1.1//EN" "http://www.w3.org/Graphics/SVG/1.1/DTD/svg11.dtd">
<svg version="1.1" id="Layer_1" xmlns="http://www.w3.org/2000/svg" xmlns:xlink="http://www.w3.org/1999/xlink" x="0px" y="0px"
	 width="64px" height="64px" viewBox="0 0 64 64" enable-background="new 0 0 64 64" xml:space="preserve">
<path fill="#231F20" d="M46,23h-3v-1c0-11.6-9.4-21-21-21S1,10.4,1,22v40c0,0.6,0.4,1,1,1h40c0.6,0,1-0.4,1-1V51h3
	c5.7,0,10.4-4.4,10.9-10H62c0.6,0,1-0.4,1-1C63,30.6,55.4,23,46,23z M41,61H3V22C3,11.5,11.5,3,22,3s19,8.5,19,19V61z M46,49h-3v-8
	h11.9C54.4,45.5,50.6,49,46,49z M43,39V25h3c7.9,0,14.5,6.2,15,14H43z"/>
<path fill="#231F20" d="M26,13c-3.9,0-7,3.1-7,7s3.1,7,7,7s7-3.1,7-7S29.9,13,26,13z M26,25c-2.8,0-5-2.2-5-5s2.2-5,5-5s5,2.2,5,5
	S28.8,25,26,25z"/>
</svg>
