<?xml version="1.0" encoding="utf-8"?>
<!-- Generator: Adobe Illustrator 19.1.0, SVG Export Plug-In . SVG Version: 6.00 Build 0)  -->
<!DOCTYPE svg PUBLIC "-//W3C//DTD SVG 1.1//EN" "http://www.w3.org/Graphics/SVG/1.1/DTD/svg11.dtd">
<svg version="1.1" id="Layer_1" xmlns="http://www.w3.org/2000/svg" xmlns:xlink="http://www.w3.org/1999/xlink" x="0px" y="0px"
	 width="64px" height="64px" viewBox="0 0 64 64" enable-background="new 0 0 64 64" xml:space="preserve">
<path fill="#231F20" d="M20,29c2.8,0,5-2.2,5-5s-2.2-5-5-5s-5,2.2-5,5S17.2,29,20,29z M20,21c1.7,0,3,1.3,3,3s-1.3,3-3,3s-3-1.3-3-3
	S18.3,21,20,21z"/>
<path fill="#231F20" d="M44,19c-2.8,0-5,2.2-5,5s2.2,5,5,5s5-2.2,5-5S46.8,19,44,19z M44,27c-1.7,0-3-1.3-3-3s1.3-3,3-3s3,1.3,3,3
	S45.7,27,44,27z"/>
<path fill="#231F20" d="M32,1C14.9,1,1,14.9,1,32s13.9,31,31,31s31-13.9,31-31S49.1,1,32,1z M32,61C16,61,3,48,3,32S16,3,32,3
	s29,13,29,29S48,61,32,61z"/>
<path fill="#231F20" d="M48,35c-0.6,0-1,0.4-1,1c0,2.3-1.4,5-12,5c-0.6,0-1,0.4-1,1s0.4,1,1,1c4.2,0,14,0,14-7
	C49,35.4,48.6,35,48,35z"/>
<path fill="#231F20" d="M30,42c0-0.6-0.4-1-1-1c-10.6,0-12-2.7-12-5c0-0.6-0.4-1-1-1s-1,0.4-1,1c0,7,9.8,7,14,7
	C29.6,43,30,42.6,30,42z"/>
<path fill="#231F20" d="M38,49H26c-0.6,0-1,0.4-1,1s0.4,1,1,1h12c0.6,0,1-0.4,1-1S38.6,49,38,49z"/>
</svg>
