<?xml version="1.0" encoding="utf-8"?>
<!-- Generator: Adobe Illustrator 19.1.0, SVG Export Plug-In . SVG Version: 6.00 Build 0)  -->
<!DOCTYPE svg PUBLIC "-//W3C//DTD SVG 1.1//EN" "http://www.w3.org/Graphics/SVG/1.1/DTD/svg11.dtd">
<svg version="1.1" id="Layer_1" xmlns="http://www.w3.org/2000/svg" xmlns:xlink="http://www.w3.org/1999/xlink" x="0px" y="0px"
	 width="64px" height="64px" viewBox="0 0 64 64" enable-background="new 0 0 64 64" xml:space="preserve">
<path fill="#231F20" d="M54,7H10c-5,0-9,4-9,9v22c0,5,4,9,9,9h21v3c0,5,4,9,9,9h18c2.8,0,5-2.2,5-5V38v-2V16C63,11,59,7,54,7z
	 M61,54c0,1.7-1.3,3-3,3H40c-3.9,0-7-3.1-7-7v-3h21c2.8,0,5.3-1.3,7-3.4V54z M61,36v2c0,3.9-3.1,7-7,7h-6V28c0-0.6-0.4-1-1-1
	s-1,0.4-1,1v17H33V28c0-0.6-0.4-1-1-1s-1,0.4-1,1v17H18V28c0-0.6-0.4-1-1-1s-1,0.4-1,1v17h-6c-3.9,0-7-3.1-7-7V16c0-3.9,3.1-7,7-7
	h44c3.9,0,7,3.1,7,7V36z"/>
</svg>
