<?xml version="1.0" encoding="utf-8"?>
<!-- Generator: Adobe Illustrator 19.1.0, SVG Export Plug-In . SVG Version: 6.00 Build 0)  -->
<!DOCTYPE svg PUBLIC "-//W3C//DTD SVG 1.1//EN" "http://www.w3.org/Graphics/SVG/1.1/DTD/svg11.dtd">
<svg version="1.1" id="Layer_1" xmlns="http://www.w3.org/2000/svg" xmlns:xlink="http://www.w3.org/1999/xlink" x="0px" y="0px"
	 width="64px" height="64px" viewBox="0 0 64 64" enable-background="new 0 0 64 64" xml:space="preserve">
<path fill="#231F20" d="M59,45.1V34c0-2.8-2.2-5-5-5h-2v-5.1c2.3-0.5,4-2.5,4-4.9c0-2.4-3.5-7.6-4.2-8.6c-0.4-0.5-1.3-0.5-1.6,0
	c-0.7,1-4.2,6.2-4.2,8.6c0,2.4,1.7,4.4,4,4.9V29H33v-6.1c3.4-0.5,6-3.4,6-6.9c0-3.5-5.5-11.7-6.2-12.6c-0.4-0.5-1.3-0.5-1.6,0
	C30.5,4.3,25,12.5,25,16c0,3.5,2.6,6.4,6,6.9V29H14v-5.1c2.3-0.5,4-2.5,4-4.9c0-2.4-3.5-7.6-4.2-8.6c-0.4-0.5-1.3-0.5-1.6,0
	C11.5,11.4,8,16.6,8,19c0,2.4,1.7,4.4,4,4.9V29h-2c-2.8,0-5,2.2-5,5v11.1c-2.3,0.5-4,2.5-4,4.9v12c0,0.6,0.4,1,1,1h60
	c0.6,0,1-0.4,1-1V50C63,47.6,61.3,45.6,59,45.1z M48,19c0-1.1,1.6-3.9,3-6.2c1.4,2.2,3,5.1,3,6.2c0,1.7-1.3,3-3,3S48,20.7,48,19z
	 M27,16c0-1.9,2.8-6.8,5-10.2c2.2,3.4,5,8.3,5,10.2c0,2.8-2.2,5-5,5S27,18.8,27,16z M10,19c0-1.1,1.6-3.9,3-6.2c1.4,2.2,3,5.1,3,6.2
	c0,1.7-1.3,3-3,3S10,20.7,10,19z M10,31h44c1.7,0,3,1.3,3,3v11H7V34C7,32.3,8.3,31,10,31z M61,61H3V50c0-1.7,1.3-3,3-3h52
	c1.7,0,3,1.3,3,3V61z"/>
</svg>
