<?xml version="1.0" encoding="utf-8"?>
<!-- Generator: Adobe Illustrator 19.1.0, SVG Export Plug-In . SVG Version: 6.00 Build 0)  -->
<!DOCTYPE svg PUBLIC "-//W3C//DTD SVG 1.1//EN" "http://www.w3.org/Graphics/SVG/1.1/DTD/svg11.dtd">
<svg version="1.1" id="Layer_1" xmlns="http://www.w3.org/2000/svg" xmlns:xlink="http://www.w3.org/1999/xlink" x="0px" y="0px"
	 width="64px" height="64px" viewBox="0 0 64 64" enable-background="new 0 0 64 64" xml:space="preserve">
<path fill="#231F20" d="M30,37c-0.6,0-1,0.4-1,1s0.4,1,1,1c2.8,0,5,2.2,5,5s-2.2,5-5,5c-0.6,0-1,0.4-1,1s0.4,1,1,1c3.9,0,7-3.1,7-7
	S33.9,37,30,37z"/>
<path fill="#231F20" d="M24,19c-0.6,0-1,0.4-1,1c0,1.7-1.3,3-3,3s-3-1.3-3-3c0-0.6-0.4-1-1-1s-1,0.4-1,1c0,2.8,2.2,5,5,5s5-2.2,5-5
	C25,19.4,24.6,19,24,19z"/>
<path fill="#231F20" d="M48,19c-0.6,0-1,0.4-1,1c0,1.7-1.3,3-3,3s-3-1.3-3-3c0-0.6-0.4-1-1-1s-1,0.4-1,1c0,2.8,2.2,5,5,5s5-2.2,5-5
	C49,19.4,48.6,19,48,19z"/>
<path fill="#231F20" d="M32,1C14.9,1,1,14.9,1,32s13.9,31,31,31s31-13.9,31-31S49.1,1,32,1z M32,61C16,61,3,48,3,32S16,3,32,3
	s29,13,29,29S48,61,32,61z"/>
</svg>
