<?xml version="1.0" encoding="utf-8"?>
<!-- Generator: Adobe Illustrator 19.1.0, SVG Export Plug-In . SVG Version: 6.00 Build 0)  -->
<!DOCTYPE svg PUBLIC "-//W3C//DTD SVG 1.1//EN" "http://www.w3.org/Graphics/SVG/1.1/DTD/svg11.dtd">
<svg version="1.1" id="Layer_1" xmlns="http://www.w3.org/2000/svg" xmlns:xlink="http://www.w3.org/1999/xlink" x="0px" y="0px"
	 width="64px" height="64px" viewBox="0 0 64 64" enable-background="new 0 0 64 64" xml:space="preserve">
<path fill="#231F20" d="M54.8,45c2.3-1.7,3.7-4.5,3.7-7.5c0-4-2.8-7.4-6.5-8.3c1.8-1.5,3-3.7,3-6.2V6c0-0.4-0.2-0.8-0.6-0.9
	C54,4.9,53.6,5,53.3,5.3L42.6,15H17c-4.4,0-8,3.6-8,8c0,2.5,1.2,4.8,3,6.2c-3.7,0.9-6.5,4.3-6.5,8.3c0,3.1,1.5,5.8,3.7,7.5
	C4.7,45.2,1,48.9,1,53.5c0,5.2,4.3,9.5,9.5,9.5h43c5.2,0,9.5-4.3,9.5-9.5C63,48.9,59.3,45.2,54.8,45z M11,23c0-3.3,2.7-6,6-6h26
	c0.2,0,0.5-0.1,0.7-0.3L53,8.3V23c0,3.3-2.7,6-6,6H17C13.7,29,11,26.3,11,23z M7.5,37.5c0-3.6,2.9-6.5,6.5-6.5h36
	c3.6,0,6.5,2.9,6.5,6.5c0,4.1-3.4,7.5-7.5,7.5H15C10.9,45,7.5,41.6,7.5,37.5z M53.5,61h-43C6.4,61,3,57.6,3,53.5
	C3,49.9,5.9,47,9.5,47h45c3.6,0,6.5,2.9,6.5,6.5C61,57.6,57.6,61,53.5,61z"/>
</svg>
