<?xml version="1.0" encoding="utf-8"?>
<!-- Generator: Adobe Illustrator 19.2.1, SVG Export Plug-In . SVG Version: 6.00 Build 0)  -->
<!DOCTYPE svg PUBLIC "-//W3C//DTD SVG 1.1//EN" "http://www.w3.org/Graphics/SVG/1.1/DTD/svg11.dtd">
<svg version="1.1" id="Layer_1" xmlns="http://www.w3.org/2000/svg" xmlns:xlink="http://www.w3.org/1999/xlink" x="0px" y="0px"
	 width="48px" height="48px" viewBox="0 0 48 48" enable-background="new 0 0 48 48" xml:space="preserve">
<path d="M45,5H3C1.895,5,1,5.895,1,7v34c0,1.105,0.895,2,2,2h42c1.105,0,2-0.895,2-2V7C47,5.895,46.105,5,45,5z M41.662,11.75
	l-17,15C24.473,26.917,24.236,27,24,27s-0.473-0.083-0.662-0.25l-17-15c-0.414-0.365-0.454-0.997-0.088-1.411
	c0.366-0.415,0.997-0.455,1.412-0.089L24,24.666L40.338,10.25c0.414-0.366,1.046-0.326,1.412,0.089
	C42.115,10.753,42.076,11.385,41.662,11.75z"/>
</svg>
