<?xml version="1.0" encoding="utf-8"?>
<!-- Generator: Adobe Illustrator 19.2.1, SVG Export Plug-In . SVG Version: 6.00 Build 0)  -->
<!DOCTYPE svg PUBLIC "-//W3C//DTD SVG 1.1//EN" "http://www.w3.org/Graphics/SVG/1.1/DTD/svg11.dtd">
<svg version="1.1" id="Layer_1" xmlns="http://www.w3.org/2000/svg" xmlns:xlink="http://www.w3.org/1999/xlink" x="0px" y="0px"
	 width="48px" height="48px" viewBox="0 0 48 48" enable-background="new 0 0 48 48" xml:space="preserve">
<path d="M2,35h19c0.552,0,1-0.448,1-1v-6h-4v3H5V17h13v3h4v-6c0-0.552-0.448-1-1-1H2c-0.552,0-1,0.448-1,1v20
	C1,34.552,1.448,35,2,35z"/>
<path d="M46,13H27c-0.552,0-1,0.448-1,1v6h4v-3h13v14H30v-3h-4v6c0,0.552,0.448,1,1,1h19c0.552,0,1-0.448,1-1V14
	C47,13.448,46.552,13,46,13z"/>
<path d="M13,24c0,1.104,0.896,2,2,2h18c1.104,0,2-0.896,2-2s-0.896-2-2-2H15C13.896,22,13,22.896,13,24z"/>
</svg>
