<?xml version="1.0" encoding="utf-8"?>
<!-- Generator: Adobe Illustrator 19.2.1, SVG Export Plug-In . SVG Version: 6.00 Build 0)  -->
<!DOCTYPE svg PUBLIC "-//W3C//DTD SVG 1.1//EN" "http://www.w3.org/Graphics/SVG/1.1/DTD/svg11.dtd">
<svg version="1.1" id="Layer_1" xmlns="http://www.w3.org/2000/svg" xmlns:xlink="http://www.w3.org/1999/xlink" x="0px" y="0px"
	 width="48px" height="48px" viewBox="0 0 48 48" enable-background="new 0 0 48 48" xml:space="preserve">
<path d="M3,14v30c0,1.105,0.895,2,2,2h38c1.105,0,2-0.895,2-2V14c0-1.105-0.895-2-2-2H5C3.895,12,3,12.895,3,14z M15,23
	c0-0.553,0.448-1,1-1s1,0.447,1,1v3h14v-3c0-0.553,0.448-1,1-1s1,0.447,1,1v4c0,0.553-0.448,1-1,1H16c-0.552,0-1-0.447-1-1V23z"/>
<path d="M40,6H8C7.448,6,7,6.448,7,7v3h34V7C41,6.448,40.552,6,40,6z"/>
<path d="M36,2H12c-0.552,0-1,0.448-1,1v1h26V3C37,2.448,36.552,2,36,2z"/>
</svg>
