<?xml version="1.0" encoding="utf-8"?>
<!-- Generator: Adobe Illustrator 19.2.1, SVG Export Plug-In . SVG Version: 6.00 Build 0)  -->
<!DOCTYPE svg PUBLIC "-//W3C//DTD SVG 1.1//EN" "http://www.w3.org/Graphics/SVG/1.1/DTD/svg11.dtd">
<svg version="1.1" id="Layer_1" xmlns="http://www.w3.org/2000/svg" xmlns:xlink="http://www.w3.org/1999/xlink" x="0px" y="0px"
	 width="48px" height="48px" viewBox="0 0 48 48" enable-background="new 0 0 48 48" xml:space="preserve">
<path d="M2,21h18c0.552,0,1-0.447,1-1V2c0-0.553-0.448-1-1-1H2C1.448,1,1,1.447,1,2v18C1,20.553,1.448,21,2,21z"/>
<path d="M2,47h18c0.552,0,1-0.447,1-1V28c0-0.553-0.448-1-1-1H2c-0.552,0-1,0.447-1,1v18C1,46.553,1.448,47,2,47z"/>
<path d="M46,5H26c-0.552,0-1,0.447-1,1s0.448,1,1,1h20c0.552,0,1-0.447,1-1S46.552,5,46,5z"/>
<path d="M46,15H26c-0.552,0-1,0.447-1,1s0.448,1,1,1h20c0.552,0,1-0.447,1-1S46.552,15,46,15z"/>
<path d="M46,31H26c-0.552,0-1,0.447-1,1s0.448,1,1,1h20c0.552,0,1-0.447,1-1S46.552,31,46,31z"/>
<path d="M46,41H26c-0.552,0-1,0.447-1,1s0.448,1,1,1h20c0.552,0,1-0.447,1-1S46.552,41,46,41z"/>
</svg>
