<?xml version="1.0" encoding="utf-8"?>
<!-- Generator: Adobe Illustrator 19.2.1, SVG Export Plug-In . SVG Version: 6.00 Build 0)  -->
<!DOCTYPE svg PUBLIC "-//W3C//DTD SVG 1.1//EN" "http://www.w3.org/Graphics/SVG/1.1/DTD/svg11.dtd">
<svg version="1.1" id="Layer_1" xmlns="http://www.w3.org/2000/svg" xmlns:xlink="http://www.w3.org/1999/xlink" x="0px" y="0px"
	 width="48px" height="48px" viewBox="0 0 48 48" enable-background="new 0 0 48 48" xml:space="preserve">
<path d="M40.121,9.009l-1.414-1.414c-0.391-0.39-1.024-0.39-1.414,0L23.858,21.03L10.423,7.595c-0.39-0.391-1.024-0.391-1.414,0
	L7.594,9.009c-0.391,0.391-0.391,1.024,0,1.414L21.03,23.858L7.594,37.293c-0.391,0.391-0.391,1.024,0,1.414l1.414,1.414
	c0.391,0.39,1.024,0.39,1.414,0l13.435-13.435l13.435,13.435c0.391,0.391,1.024,0.391,1.414,0l1.414-1.414
	c0.391-0.391,0.391-1.024,0-1.414L26.686,23.858l13.435-13.435C40.512,10.032,40.512,9.399,40.121,9.009z"/>
</svg>
