<?xml version="1.0" encoding="utf-8"?>
<!-- Generator: Adobe Illustrator 19.2.1, SVG Export Plug-In . SVG Version: 6.00 Build 0)  -->
<!DOCTYPE svg PUBLIC "-//W3C//DTD SVG 1.1//EN" "http://www.w3.org/Graphics/SVG/1.1/DTD/svg11.dtd">
<svg version="1.1" id="Layer_1" xmlns="http://www.w3.org/2000/svg" xmlns:xlink="http://www.w3.org/1999/xlink" x="0px" y="0px"
	 width="48px" height="48px" viewBox="0 0 48 48" enable-background="new 0 0 48 48" xml:space="preserve">
<path d="M43,46V22c0-0.553-0.447-1-1-1s-1,0.447-1,1v23H3V7h23c0.553,0,1-0.447,1-1s-0.447-1-1-1H2C1.447,5,1,5.447,1,6v40
	c0,0.553,0.447,1,1,1h40C42.553,47,43,46.553,43,46z"/>
<polygon points="18,30 24.121,28.121 42.914,9.328 38.672,5.086 19.879,23.879 "/>
<path d="M41.879,1.879l-1.793,1.793l4.242,4.242l1.793-1.793c1.172-1.171,1.172-3.071,0-4.242
	C44.949,0.707,43.051,0.707,41.879,1.879z"/>
</svg>
