<?xml version="1.0" encoding="utf-8"?>
<!-- Generator: Adobe Illustrator 19.2.1, SVG Export Plug-In . SVG Version: 6.00 Build 0)  -->
<!DOCTYPE svg PUBLIC "-//W3C//DTD SVG 1.1//EN" "http://www.w3.org/Graphics/SVG/1.1/DTD/svg11.dtd">
<svg version="1.1" id="Layer_1" xmlns="http://www.w3.org/2000/svg" xmlns:xlink="http://www.w3.org/1999/xlink" x="0px" y="0px"
	 width="48px" height="48px" viewBox="0 0 48 48" enable-background="new 0 0 48 48" xml:space="preserve">
<path d="M46,25c0.271,0,0.543-0.11,0.74-0.327c0.371-0.409,0.341-1.041-0.067-1.413l-22-20c-0.381-0.346-0.965-0.346-1.346,0
	L13,12.648V8c0-0.553-0.447-1-1-1H8C7.447,7,7,7.447,7,8v10c0,0.031,0.011,0.06,0.013,0.09l-5.686,5.169
	c-0.408,0.372-0.438,1.004-0.067,1.413c0.372,0.409,1.006,0.438,1.413,0.067L24,5.351L45.327,24.74C45.519,24.914,45.76,25,46,25z"
	/>
<path d="M41,43V23.509L24,8.054L7,23.509V43c0,1.105,0.895,2,2,2h10c0.552,0,1-0.448,1-1v-9h8v9c0,0.552,0.448,1,1,1h10
	C40.105,45,41,44.104,41,43z M28,27c0,0.553-0.447,1-1,1h-6c-0.553,0-1-0.447-1-1v-6c0-0.553,0.447-1,1-1h6c0.553,0,1,0.447,1,1V27z
	"/>
</svg>
