<?xml version="1.0" encoding="utf-8"?>
<!-- Generator: Adobe Illustrator 19.2.1, SVG Export Plug-In . SVG Version: 6.00 Build 0)  -->
<!DOCTYPE svg PUBLIC "-//W3C//DTD SVG 1.1//EN" "http://www.w3.org/Graphics/SVG/1.1/DTD/svg11.dtd">
<svg version="1.1" id="Layer_1" xmlns="http://www.w3.org/2000/svg" xmlns:xlink="http://www.w3.org/1999/xlink" x="0px" y="0px"
	 width="48px" height="48px" viewBox="0 0 48 48" enable-background="new 0 0 48 48" xml:space="preserve">
<path d="M10,31c2.238,0,4.229-1.06,5.511-2.699l15.982,9.134C31.179,38.23,31,39.094,31,40c0,3.859,3.14,7,7,7s7-3.141,7-7
	s-3.14-7-7-7c-2.238,0-4.229,1.06-5.511,2.699l-15.982-9.134C16.821,25.77,17,24.906,17,24s-0.179-1.77-0.494-2.566l15.982-9.134
	C33.771,13.94,35.762,15,38,15c3.86,0,7-3.141,7-7s-3.14-7-7-7s-7,3.141-7,7c0,0.906,0.179,1.77,0.494,2.566l-15.982,9.134
	C14.229,18.06,12.238,17,10,17c-3.86,0-7,3.141-7,7S6.14,31,10,31z"/>
</svg>
