<?xml version="1.0" encoding="utf-8"?>
<!-- Generator: Adobe Illustrator 19.2.1, SVG Export Plug-In . SVG Version: 6.00 Build 0)  -->
<!DOCTYPE svg PUBLIC "-//W3C//DTD SVG 1.1//EN" "http://www.w3.org/Graphics/SVG/1.1/DTD/svg11.dtd">
<svg version="1.1" id="Layer_1" xmlns="http://www.w3.org/2000/svg" xmlns:xlink="http://www.w3.org/1999/xlink" x="0px" y="0px"
	 width="48px" height="48px" viewBox="0 0 48 48" enable-background="new 0 0 48 48" xml:space="preserve">
<path d="M45,3H3C1.895,3,1,3.895,1,5v28c0,1.105,0.895,2,2,2h12.52l7.699,9.625C23.409,44.862,23.696,45,24,45
	s0.591-0.138,0.781-0.375L32.48,35H45c1.105,0,2-0.895,2-2V5C47,3.895,46.105,3,45,3z M26,25H14c-0.553,0-1-0.447-1-1s0.447-1,1-1
	h12c0.553,0,1,0.447,1,1S26.553,25,26,25z M34,15H14c-0.553,0-1-0.447-1-1s0.447-1,1-1h20c0.553,0,1,0.447,1,1S34.553,15,34,15z"/>
</svg>
