<?xml version="1.0" encoding="utf-8"?>
<!-- Generator: Adobe Illustrator 19.2.1, SVG Export Plug-In . SVG Version: 6.00 Build 0)  -->
<!DOCTYPE svg PUBLIC "-//W3C//DTD SVG 1.1//EN" "http://www.w3.org/Graphics/SVG/1.1/DTD/svg11.dtd">
<svg version="1.1" id="Layer_1" xmlns="http://www.w3.org/2000/svg" xmlns:xlink="http://www.w3.org/1999/xlink" x="0px" y="0px"
	 width="48px" height="48px" viewBox="0 0 48 48" enable-background="new 0 0 48 48" xml:space="preserve">
<path d="M24,1C11.318,1,1,11.317,1,24s10.318,23,23,23s23-10.317,23-23S36.682,1,24,1z M34,25h-9v9c0,0.553-0.448,1-1,1
	s-1-0.447-1-1v-9h-9c-0.552,0-1-0.447-1-1s0.448-1,1-1h9v-9c0-0.553,0.448-1,1-1s1,0.447,1,1v9h9c0.552,0,1,0.447,1,1
	S34.552,25,34,25z"/>
</svg>
