<?xml version="1.0" encoding="utf-8"?>
<!-- Generator: Adobe Illustrator 19.2.1, SVG Export Plug-In . SVG Version: 6.00 Build 0)  -->
<!DOCTYPE svg PUBLIC "-//W3C//DTD SVG 1.1//EN" "http://www.w3.org/Graphics/SVG/1.1/DTD/svg11.dtd">
<svg version="1.1" id="Layer_1" xmlns="http://www.w3.org/2000/svg" xmlns:xlink="http://www.w3.org/1999/xlink" x="0px" y="0px"
	 width="48px" height="48px" viewBox="0 0 48 48" enable-background="new 0 0 48 48" xml:space="preserve">
<path d="M45,1H3C1.895,1,1,1.895,1,3v42c0,1.105,0.895,2,2,2h42c1.105,0,2-0.895,2-2V3C47,1.895,46.105,1,45,1z M24,37
	c-1.105,0-2-0.895-2-2s0.895-2,2-2c1.105,0,2,0.895,2,2S25.105,37,24,37z M25,25.925V29c0,0.552-0.448,1-1,1s-1-0.448-1-1v-4
	c0-0.552,0.448-1,1-1c2.664,0,5-2.336,5-5s-2.336-5-5-5c-1.853,0-3.859,1.395-4.667,3.243c-0.222,0.506-0.812,0.736-1.317,0.516
	c-0.506-0.221-0.737-0.811-0.516-1.317C18.625,13.868,21.358,12,24,12c3.794,0,7,3.206,7,7C31,22.456,28.341,25.423,25,25.925z"/>
</svg>
