<?xml version="1.0" encoding="utf-8"?>
<!-- Generator: Adobe Illustrator 19.2.1, SVG Export Plug-In . SVG Version: 6.00 Build 0)  -->
<!DOCTYPE svg PUBLIC "-//W3C//DTD SVG 1.1//EN" "http://www.w3.org/Graphics/SVG/1.1/DTD/svg11.dtd">
<svg version="1.1" id="Layer_1" xmlns="http://www.w3.org/2000/svg" xmlns:xlink="http://www.w3.org/1999/xlink" x="0px" y="0px"
	 width="48px" height="48px" viewBox="0 0 48 48" enable-background="new 0 0 48 48" xml:space="preserve">
<path d="M28,37c0,4.971,4.029,9,9,9s9-4.029,9-9s-4.029-9-9-9S28,32.029,28,37z M42,37c0,0.552-0.448,1-1,1h-8c-0.552,0-1-0.448-1-1
	s0.448-1,1-1h8C41.552,36,42,36.448,42,37z"/>
<path d="M45.995,18.32l-14.577-2.119L24.897,2.99c-0.367-0.743-1.427-0.743-1.793,0l-6.521,13.211L2.005,18.32
	c-0.82,0.119-1.148,1.127-0.554,1.706L12,30.307L9.51,44.83c-0.14,0.817,0.717,1.44,1.451,1.054l13.04-6.856l2.524,1.327
	C26.187,39.297,26,38.17,26,37c0-6.075,4.925-11,11-11c1.037,0,2.036,0.153,2.987,0.421l6.562-6.396
	C47.143,19.447,46.815,18.439,45.995,18.32z"/>
</svg>
