<?xml version="1.0" encoding="utf-8"?>
<!-- Generator: Adobe Illustrator 19.2.1, SVG Export Plug-In . SVG Version: 6.00 Build 0)  -->
<!DOCTYPE svg PUBLIC "-//W3C//DTD SVG 1.1//EN" "http://www.w3.org/Graphics/SVG/1.1/DTD/svg11.dtd">
<svg version="1.1" id="Layer_1" xmlns="http://www.w3.org/2000/svg" xmlns:xlink="http://www.w3.org/1999/xlink" x="0px" y="0px"
	 width="48px" height="48px" viewBox="0 0 48 48" enable-background="new 0 0 48 48" xml:space="preserve">
<path fill="#222221" d="M25,8h-2c-0.552,0-1,0.448-1,1v25h-7c-0.386,0-0.738,0.223-0.904,0.572c-0.165,0.349-0.115,0.762,0.13,1.062
	l9,11C23.416,46.865,23.7,47,24,47s0.584-0.135,0.774-0.367l9-11c0.245-0.3,0.295-0.713,0.13-1.062C33.738,34.223,33.386,34,33,34
	h-7V9C26,8.448,25.552,8,25,8z"/>
<path fill="#222221" d="M46,17H31c-0.552,0-1,0.448-1,1s0.448,1,1,1h15c0.552,0,1-0.448,1-1S46.552,17,46,17z"/>
<path fill="#222221" d="M46,2H2C1.448,2,1,2.448,1,3s0.448,1,1,1h44c0.552,0,1-0.448,1-1S46.552,2,46,2z"/>
<path fill="#222221" d="M17,17H2c-0.552,0-1,0.448-1,1s0.448,1,1,1h15c0.552,0,1-0.448,1-1S17.552,17,17,17z"/>
</svg>
