<?xml version="1.0" encoding="utf-8"?>
<!-- Generator: Adobe Illustrator 19.2.1, SVG Export Plug-In . SVG Version: 6.00 Build 0)  -->
<!DOCTYPE svg PUBLIC "-//W3C//DTD SVG 1.1//EN" "http://www.w3.org/Graphics/SVG/1.1/DTD/svg11.dtd">
<svg version="1.1" id="Layer_1" xmlns="http://www.w3.org/2000/svg" xmlns:xlink="http://www.w3.org/1999/xlink" x="0px" y="0px"
	 width="48px" height="48px" viewBox="0 0 48 48" enable-background="new 0 0 48 48" xml:space="preserve">
<path d="M2,11h8c0.553,0,1-0.447,1-1V2c0-0.553-0.447-1-1-1H2C1.447,1,1,1.447,1,2v8C1,10.553,1.447,11,2,11z"/>
<path d="M2,29h8c0.553,0,1-0.447,1-1v-8c0-0.553-0.447-1-1-1H2c-0.553,0-1,0.447-1,1v8C1,28.553,1.447,29,2,29z"/>
<path d="M2,47h8c0.553,0,1-0.447,1-1v-8c0-0.553-0.447-1-1-1H2c-0.553,0-1,0.447-1,1v8C1,46.553,1.447,47,2,47z"/>
<path d="M19,2v8c0,0.553,0.447,1,1,1h8c0.553,0,1-0.447,1-1V2c0-0.553-0.447-1-1-1h-8C19.447,1,19,1.447,19,2z"/>
<path d="M19,28c0,0.553,0.447,1,1,1h8c0.553,0,1-0.447,1-1v-8c0-0.553-0.447-1-1-1h-8c-0.553,0-1,0.447-1,1V28z"/>
<path d="M19,46c0,0.553,0.447,1,1,1h8c0.553,0,1-0.447,1-1v-8c0-0.553-0.447-1-1-1h-8c-0.553,0-1,0.447-1,1V46z"/>
<path d="M46,1h-8c-0.553,0-1,0.447-1,1v8c0,0.553,0.447,1,1,1h8c0.553,0,1-0.447,1-1V2C47,1.447,46.553,1,46,1z"/>
<path d="M46,19h-8c-0.553,0-1,0.447-1,1v8c0,0.553,0.447,1,1,1h8c0.553,0,1-0.447,1-1v-8C47,19.447,46.553,19,46,19z"/>
<path d="M46,37h-8c-0.553,0-1,0.447-1,1v8c0,0.553,0.447,1,1,1h8c0.553,0,1-0.447,1-1v-8C47,37.447,46.553,37,46,37z"/>
</svg>
