<?xml version="1.0" encoding="utf-8"?>
<!-- Generator: Adobe Illustrator 19.2.1, SVG Export Plug-In . SVG Version: 6.00 Build 0)  -->
<!DOCTYPE svg PUBLIC "-//W3C//DTD SVG 1.1//EN" "http://www.w3.org/Graphics/SVG/1.1/DTD/svg11.dtd">
<svg version="1.1" id="Layer_1" xmlns="http://www.w3.org/2000/svg" xmlns:xlink="http://www.w3.org/1999/xlink" x="0px" y="0px"
	 width="48px" height="48px" viewBox="0 0 48 48" enable-background="new 0 0 48 48" xml:space="preserve">
<path fill="#222221" d="M38,14c-5.383,0-10.369,3.79-14,7.211C20.369,17.79,15.383,14,10,14C4.486,14,0,18.486,0,24s4.486,10,10,10
	c5.383,0,10.369-3.79,14-7.211C27.631,30.21,32.617,34,38,34c5.514,0,10-4.486,10-10S43.514,14,38,14z M10,30c-3.309,0-6-2.691-6-6
	s2.691-6,6-6c3.134,0,6.783,1.966,11.121,6C16.783,28.034,13.134,30,10,30z M38,30c-3.134,0-6.783-1.966-11.121-6
	c4.338-4.034,7.987-6,11.121-6c3.309,0,6,2.691,6,6S41.309,30,38,30z"/>
</svg>
