<?xml version="1.0" encoding="utf-8"?>
<!-- Generator: Adobe Illustrator 19.2.1, SVG Export Plug-In . SVG Version: 6.00 Build 0)  -->
<!DOCTYPE svg PUBLIC "-//W3C//DTD SVG 1.1//EN" "http://www.w3.org/Graphics/SVG/1.1/DTD/svg11.dtd">
<svg version="1.1" id="Layer_1" xmlns="http://www.w3.org/2000/svg" xmlns:xlink="http://www.w3.org/1999/xlink" x="0px" y="0px"
	 width="48px" height="48px" viewBox="0 0 48 48" enable-background="new 0 0 48 48" xml:space="preserve">
<path d="M24,47c12.683,0,23-10.318,23-23S36.683,1,24,1S1,11.318,1,24S11.317,47,24,47z M11.293,23.293
	c0.391-0.391,1.023-0.391,1.414,0L20,30.586l15.293-15.293c0.391-0.391,1.023-0.391,1.414,0s0.391,1.023,0,1.414l-16,16
	C20.512,32.902,20.256,33,20,33s-0.512-0.098-0.707-0.293l-8-8C10.902,24.316,10.902,23.684,11.293,23.293z"/>
</svg>
