<?xml version="1.0" encoding="utf-8"?>
<!-- Generator: Adobe Illustrator 19.2.1, SVG Export Plug-In . SVG Version: 6.00 Build 0)  -->
<!DOCTYPE svg PUBLIC "-//W3C//DTD SVG 1.1//EN" "http://www.w3.org/Graphics/SVG/1.1/DTD/svg11.dtd">
<svg version="1.1" id="Layer_1" xmlns="http://www.w3.org/2000/svg" xmlns:xlink="http://www.w3.org/1999/xlink" x="0px" y="0px"
	 width="48px" height="48px" viewBox="0 0 48 48" enable-background="new 0 0 48 48" xml:space="preserve">
<path d="M45,5H3C1.895,5,1,5.895,1,7v34c0,1.105,0.895,2,2,2h42c1.105,0,2-0.895,2-2V7C47,5.895,46.105,5,45,5z M17,28.414L8.414,37
	c-0.195,0.195-0.451,0.293-0.707,0.293S7.195,37.195,7,37c-0.391-0.391-0.391-1.023,0-1.414L15.586,27
	c0.391-0.391,1.023-0.391,1.414,0S17.391,28.023,17,28.414z M24,29c-0.256,0-0.512-0.098-0.707-0.293L7,12.414
	C6.609,12.023,6.609,11.391,7,11s1.023-0.391,1.414,0L24,26.586L39.586,11c0.391-0.391,1.023-0.391,1.414,0s0.391,1.023,0,1.414
	L24.707,28.707C24.512,28.902,24.256,29,24,29z M41.061,37.061c-0.195,0.195-0.451,0.293-0.707,0.293s-0.512-0.098-0.707-0.293
	L31,28.414c-0.391-0.391-0.391-1.023,0-1.414s1.023-0.391,1.414,0l8.646,8.646C41.451,36.037,41.451,36.67,41.061,37.061z"/>
</svg>
