<?xml version="1.0" encoding="utf-8"?>
<!-- Generator: Adobe Illustrator 19.2.1, SVG Export Plug-In . SVG Version: 6.00 Build 0)  -->
<!DOCTYPE svg PUBLIC "-//W3C//DTD SVG 1.1//EN" "http://www.w3.org/Graphics/SVG/1.1/DTD/svg11.dtd">
<svg version="1.1" id="Layer_1" xmlns="http://www.w3.org/2000/svg" xmlns:xlink="http://www.w3.org/1999/xlink" x="0px" y="0px"
	 width="48px" height="48px" viewBox="0 0 48 48" enable-background="new 0 0 48 48" xml:space="preserve">
<path d="M20,12h-2c-0.552,0-1,0.448-1,1v17c0,4.163,3.654,7.489,7.922,6.941C28.45,36.487,31,33.312,31,29.755V12
	c0-6.415-5.52-11.566-12.06-10.95C13.24,1.587,9,6.598,9,12.322v19.243c0,8.068,6.188,15.019,14.245,15.416
	C31.858,47.406,39,40.522,39,32V7c0-0.552-0.448-1-1-1h-2c-0.552,0-1,0.448-1,1v25c0,6.415-5.52,11.566-12.06,10.95
	C17.24,42.413,13,37.402,13,31.678V12c0-4.163,3.654-7.489,7.922-6.941C24.45,5.513,27,8.688,27,12.245V30
	c0,1.85-1.683,3.314-3.598,2.942C21.978,32.665,21,31.332,21,29.882V13C21,12.448,20.552,12,20,12z"/>
</svg>
