<?xml version="1.0" encoding="utf-8"?>
<!-- Generator: Adobe Illustrator 19.2.1, SVG Export Plug-In . SVG Version: 6.00 Build 0)  -->
<!DOCTYPE svg PUBLIC "-//W3C//DTD SVG 1.1//EN" "http://www.w3.org/Graphics/SVG/1.1/DTD/svg11.dtd">
<svg version="1.1" id="Layer_1" xmlns="http://www.w3.org/2000/svg" xmlns:xlink="http://www.w3.org/1999/xlink" x="0px" y="0px"
	 width="48px" height="48px" viewBox="0 0 48 48" enable-background="new 0 0 48 48" xml:space="preserve">
<path d="M24,1C11.318,1,1,11.317,1,24s10.318,23,23,23s23-10.317,23-23S36.682,1,24,1z M32.707,31.293
	c0.391,0.391,0.391,1.023,0,1.414C32.512,32.902,32.256,33,32,33s-0.512-0.098-0.707-0.293L24,25.414l-7.293,7.293
	C16.512,32.902,16.256,33,16,33s-0.512-0.098-0.707-0.293c-0.391-0.391-0.391-1.023,0-1.414L22.586,24l-7.293-7.293
	c-0.391-0.391-0.391-1.023,0-1.414s1.023-0.391,1.414,0L24,22.586l7.293-7.293c0.391-0.391,1.023-0.391,1.414,0s0.391,1.023,0,1.414
	L25.414,24L32.707,31.293z"/>
</svg>
