<?xml version="1.0" encoding="utf-8"?>
<!-- Generator: Adobe Illustrator 19.2.1, SVG Export Plug-In . SVG Version: 6.00 Build 0)  -->
<!DOCTYPE svg PUBLIC "-//W3C//DTD SVG 1.1//EN" "http://www.w3.org/Graphics/SVG/1.1/DTD/svg11.dtd">
<svg version="1.1" id="Layer_1" xmlns="http://www.w3.org/2000/svg" xmlns:xlink="http://www.w3.org/1999/xlink" x="0px" y="0px"
	 width="48px" height="48px" viewBox="0 0 48 48" enable-background="new 0 0 48 48" xml:space="preserve">
<path d="M23,46c12.131,0,22-9.869,22-22c0-2.702-0.492-5.291-1.388-7.684l-1.557,1.624C42.666,19.853,43,21.888,43,24
	c0,11.028-8.972,20-20,20S3,35.028,3,24S11.972,4,23,4c4.418,0,8.493,1.458,11.806,3.893l1.528-1.375C32.632,3.687,28.01,2,23,2
	C10.869,2,1,11.869,1,24S10.869,46,23,46z"/>
<polygon points="24,23 15,16 12,19 24,31 47,7 44,5 "/>
</svg>
