<?xml version="1.0" encoding="utf-8"?>
<!-- Generator: Adobe Illustrator 19.2.1, SVG Export Plug-In . SVG Version: 6.00 Build 0)  -->
<!DOCTYPE svg PUBLIC "-//W3C//DTD SVG 1.1//EN" "http://www.w3.org/Graphics/SVG/1.1/DTD/svg11.dtd">
<svg version="1.1" id="Layer_1" xmlns="http://www.w3.org/2000/svg" xmlns:xlink="http://www.w3.org/1999/xlink" x="0px" y="0px"
	 width="48px" height="48px" viewBox="0 0 48 48" enable-background="new 0 0 48 48" xml:space="preserve">
<path d="M45,1H3C1.895,1,1,1.895,1,3v20h10.382l5.724-11.447c0.34-0.678,1.449-0.678,1.789,0L30,33.764l5.105-10.211
	C35.275,23.214,35.621,23,36,23h11V3C47,1.895,46.105,1,45,1z"/>
<path d="M30.895,36.447C30.725,36.786,30.379,37,30,37s-0.725-0.214-0.895-0.553L18,14.236l-5.105,10.211
	C12.725,24.786,12.379,25,12,25H1v20c0,1.105,0.895,2,2,2h42c1.105,0,2-0.895,2-2V25H36.618L30.895,36.447z"/>
</svg>
