<?xml version="1.0" encoding="utf-8"?>
<!-- Generator: Adobe Illustrator 19.2.1, SVG Export Plug-In . SVG Version: 6.00 Build 0)  -->
<!DOCTYPE svg PUBLIC "-//W3C//DTD SVG 1.1//EN" "http://www.w3.org/Graphics/SVG/1.1/DTD/svg11.dtd">
<svg version="1.1" id="Layer_1" xmlns="http://www.w3.org/2000/svg" xmlns:xlink="http://www.w3.org/1999/xlink" x="0px" y="0px"
	 width="48px" height="48px" viewBox="0 0 48 48" enable-background="new 0 0 48 48" xml:space="preserve">
<path d="M40,14l-6-6l6.175-6.175C38.887,1.296,37.479,1,36,1c-6.075,0-11,4.925-11,11c0,1.134,0.172,2.228,0.491,3.257L3.799,33.328
	c-3.506,2.902-3.755,8.192-0.537,11.41h0c3.218,3.218,8.508,2.969,11.41-0.537l18.071-21.692C33.772,22.828,34.866,23,36,23
	c6.075,0,11-4.925,11-11c0-1.479-0.296-2.887-0.825-4.175L40,14z M10,41c-1.657,0-3-1.343-3-3s1.343-3,3-3s3,1.343,3,3
	S11.657,41,10,41z"/>
</svg>
