<?xml version="1.0" encoding="utf-8"?>
<!-- Generator: Adobe Illustrator 19.2.1, SVG Export Plug-In . SVG Version: 6.00 Build 0)  -->
<!DOCTYPE svg PUBLIC "-//W3C//DTD SVG 1.1//EN" "http://www.w3.org/Graphics/SVG/1.1/DTD/svg11.dtd">
<svg version="1.1" id="Layer_1" xmlns="http://www.w3.org/2000/svg" xmlns:xlink="http://www.w3.org/1999/xlink" x="0px" y="0px"
	 width="48px" height="48px" viewBox="0 0 48 48" enable-background="new 0 0 48 48" xml:space="preserve">
<path d="M45,1H3C1.895,1,1,1.895,1,3v42c0,1.105,0.895,2,2,2h42c1.105,0,2-0.895,2-2V3C47,1.895,46.105,1,45,1z M15,8
	c0-0.552,0.447-1,1-1s1,0.448,1,1v15c0,0.552-0.447,1-1,1s-1-0.448-1-1V8z M22,34c0,0.552-0.447,1-1,1h-4v5c0,0.552-0.447,1-1,1
	s-1-0.448-1-1v-5h-4c-0.553,0-1-0.448-1-1v-6c0-0.552,0.447-1,1-1h10c0.553,0,1,0.448,1,1V34z M33,40c0,0.552-0.447,1-1,1
	s-1-0.448-1-1V25c0-0.552,0.447-1,1-1s1,0.448,1,1V40z M38,20c0,0.552-0.447,1-1,1H27c-0.553,0-1-0.448-1-1v-6c0-0.552,0.447-1,1-1
	h4V8c0-0.552,0.447-1,1-1s1,0.448,1,1v5h4c0.553,0,1,0.448,1,1V20z"/>
</svg>
