<?xml version="1.0" encoding="utf-8"?>
<!-- Generator: Adobe Illustrator 19.2.1, SVG Export Plug-In . SVG Version: 6.00 Build 0)  -->
<!DOCTYPE svg PUBLIC "-//W3C//DTD SVG 1.1//EN" "http://www.w3.org/Graphics/SVG/1.1/DTD/svg11.dtd">
<svg version="1.1" id="Layer_1" xmlns="http://www.w3.org/2000/svg" xmlns:xlink="http://www.w3.org/1999/xlink" x="0px" y="0px"
	 width="48px" height="48px" viewBox="0 0 48 48" enable-background="new 0 0 48 48" xml:space="preserve">
<path fill="#222221" d="M45,1H3C1.895,1,1,1.895,1,3v11c0,1.105,0.895,2,2,2h15v-6c0-0.385,0.221-0.734,0.566-0.901
	c0.345-0.167,0.758-0.12,1.059,0.12l10,8C29.862,17.409,30,17.696,30,18s-0.138,0.591-0.375,0.781l-10,8
	C19.444,26.926,19.223,27,19,27c-0.147,0-0.295-0.032-0.434-0.099C18.221,26.734,18,26.385,18,26v-6H3c-1.105,0-2,0.895-2,2v11
	c0,1.105,0.895,2,2,2h8v9c0,0.375,0.209,0.718,0.542,0.89c0.325,0.167,0.729,0.146,1.039-0.076L26.32,35H45c1.105,0,2-0.895,2-2V3
	C47,1.895,46.105,1,45,1z"/>
</svg>
