<?xml version="1.0" encoding="utf-8"?>
<!-- Generator: Adobe Illustrator 19.2.1, SVG Export Plug-In . SVG Version: 6.00 Build 0)  -->
<!DOCTYPE svg PUBLIC "-//W3C//DTD SVG 1.1//EN" "http://www.w3.org/Graphics/SVG/1.1/DTD/svg11.dtd">
<svg version="1.1" id="Layer_1" xmlns="http://www.w3.org/2000/svg" xmlns:xlink="http://www.w3.org/1999/xlink" x="0px" y="0px"
	 width="48px" height="48px" viewBox="0 0 48 48" enable-background="new 0 0 48 48" xml:space="preserve">
<path fill="#222221" d="M46,41H2c-0.553,0-1,0.447-1,1s0.447,1,1,1h44c0.553,0,1-0.447,1-1S46.553,41,46,41z"/>
<path fill="#222221" d="M5,17c-0.553,0-1,0.447-1,1v18c0,0.553,0.447,1,1,1h8c0.553,0,1-0.447,1-1V18c0-0.553-0.447-1-1-1H5z"/>
<path fill="#222221" d="M20,37h8c0.553,0,1-0.447,1-1V6c0-0.553-0.447-1-1-1h-8c-0.553,0-1,0.447-1,1v30C19,36.553,19.447,37,20,37z
	"/>
<path fill="#222221" d="M35,25c-0.553,0-1,0.447-1,1v10c0,0.553,0.447,1,1,1h8c0.553,0,1-0.447,1-1V26c0-0.553-0.447-1-1-1H35z"/>
</svg>
