<?xml version="1.0" encoding="utf-8"?>
<!-- Generator: Adobe Illustrator 19.2.1, SVG Export Plug-In . SVG Version: 6.00 Build 0)  -->
<!DOCTYPE svg PUBLIC "-//W3C//DTD SVG 1.1//EN" "http://www.w3.org/Graphics/SVG/1.1/DTD/svg11.dtd">
<svg version="1.1" id="Layer_1" xmlns="http://www.w3.org/2000/svg" xmlns:xlink="http://www.w3.org/1999/xlink" x="0px" y="0px"
	 width="48px" height="48px" viewBox="0 0 48 48" enable-background="new 0 0 48 48" xml:space="preserve">
<path fill="#222221" d="M23,40h2c0.552,0,1-0.448,1-1V14h7c0.386,0,0.738-0.223,0.904-0.572c0.165-0.349,0.115-0.762-0.13-1.062
	l-9-11C24.584,1.135,24.3,1,24,1s-0.584,0.135-0.774,0.367l-9,11c-0.245,0.3-0.295,0.713-0.13,1.062C14.262,13.777,14.614,14,15,14
	h7v25C22,39.552,22.448,40,23,40z"/>
<path fill="#222221" d="M2,31h15c0.552,0,1-0.448,1-1s-0.448-1-1-1H2c-0.552,0-1,0.448-1,1S1.448,31,2,31z"/>
<path fill="#222221" d="M46,44H2c-0.552,0-1,0.448-1,1s0.448,1,1,1h44c0.552,0,1-0.448,1-1S46.552,44,46,44z"/>
<path fill="#222221" d="M46,29H31c-0.552,0-1,0.448-1,1s0.448,1,1,1h15c0.552,0,1-0.448,1-1S46.552,29,46,29z"/>
</svg>
