<?xml version="1.0" encoding="utf-8"?>
<!-- Generator: Adobe Illustrator 19.2.1, SVG Export Plug-In . SVG Version: 6.00 Build 0)  -->
<!DOCTYPE svg PUBLIC "-//W3C//DTD SVG 1.1//EN" "http://www.w3.org/Graphics/SVG/1.1/DTD/svg11.dtd">
<svg version="1.1" id="Layer_1" xmlns="http://www.w3.org/2000/svg" xmlns:xlink="http://www.w3.org/1999/xlink" x="0px" y="0px"
	 width="48px" height="48px" viewBox="0 0 48 48" enable-background="new 0 0 48 48" xml:space="preserve">
<path d="M46.828,44l-9.639-9.639c-0.851,1.03-1.799,1.977-2.828,2.828L44,46.829L46.828,44z"/>
<path d="M21,2C10.523,2,2,10.523,2,21s8.523,19,19,19s19-8.523,19-19S31.477,2,21,2z M21,38c-9.374,0-17-7.626-17-17
	c0-9.374,7.626-17,17-17s17,7.626,17,17C38,30.374,30.374,38,21,38z"/>
<path d="M27,20h-5v-5c0-0.552-0.447-1-1-1s-1,0.448-1,1v5h-5c-0.553,0-1,0.448-1,1s0.447,1,1,1h5v5c0,0.552,0.447,1,1,1s1-0.448,1-1
	v-5h5c0.553,0,1-0.448,1-1S27.553,20,27,20z"/>
</svg>
