<?xml version="1.0" encoding="utf-8"?>
<!-- Generator: Adobe Illustrator 19.2.1, SVG Export Plug-In . SVG Version: 6.00 Build 0)  -->
<!DOCTYPE svg PUBLIC "-//W3C//DTD SVG 1.1//EN" "http://www.w3.org/Graphics/SVG/1.1/DTD/svg11.dtd">
<svg version="1.1" id="Layer_1" xmlns="http://www.w3.org/2000/svg" xmlns:xlink="http://www.w3.org/1999/xlink" x="0px" y="0px"
	 width="48px" height="48px" viewBox="0 0 48 48" enable-background="new 0 0 48 48" xml:space="preserve">
<path d="M7,2v21c0,0.552,0.448,1,1,1s1-0.448,1-1V2c0-0.552-0.448-1-1-1S7,1.448,7,2z"/>
<path d="M7,40.92V46c0,0.552,0.448,1,1,1s1-0.448,1-1v-5.08c3.391-0.486,6-3.395,6-6.92c0-3.866-3.134-7-7-7s-7,3.134-7,7
	C1,37.526,3.609,40.434,7,40.92z"/>
<path d="M39,2v21c0,0.552,0.448,1,1,1s1-0.448,1-1V2c0-0.552-0.448-1-1-1S39,1.448,39,2z"/>
<path d="M40,27c-3.866,0-7,3.134-7,7c0,3.526,2.609,6.434,6,6.92V46c0,0.552,0.448,1,1,1s1-0.448,1-1v-5.08
	c3.391-0.486,6-3.395,6-6.92C47,30.134,43.866,27,40,27z"/>
<path d="M23,25v21c0,0.552,0.448,1,1,1s1-0.448,1-1V25c0-0.552-0.448-1-1-1S23,24.448,23,25z"/>
<path d="M24,1c-0.552,0-1,0.448-1,1v5.08c-3.391,0.486-6,3.395-6,6.92c0,3.866,3.134,7,7,7s7-3.134,7-7c0-3.526-2.609-6.434-6-6.92
	V2C25,1.448,24.552,1,24,1z"/>
</svg>
