<?xml version="1.0" encoding="utf-8"?>
<!-- Generator: Adobe Illustrator 19.2.1, SVG Export Plug-In . SVG Version: 6.00 Build 0)  -->
<!DOCTYPE svg PUBLIC "-//W3C//DTD SVG 1.1//EN" "http://www.w3.org/Graphics/SVG/1.1/DTD/svg11.dtd">
<svg version="1.1" id="Layer_1" xmlns="http://www.w3.org/2000/svg" xmlns:xlink="http://www.w3.org/1999/xlink" x="0px" y="0px"
	 width="48px" height="48px" viewBox="0 0 48 48" enable-background="new 0 0 48 48" xml:space="preserve">
<path d="M44,46c1.105,0,2-0.895,2-2V4c0-1.105-0.895-2-2-2H4C2.895,2,2,2.895,2,4v40c0,1.105,0.895,2,2,2H44z M32,9
	c0-0.553,0.447-1,1-1h6c0.553,0,1,0.447,1,1v6c0,0.553-0.447,1-1,1h-6c-0.553,0-1-0.447-1-1V9z M32,21c0-0.553,0.447-1,1-1h6
	c0.553,0,1,0.447,1,1v6c0,0.553-0.447,1-1,1h-6c-0.553,0-1-0.447-1-1V21z M32,33c0-0.553,0.447-1,1-1h6c0.553,0,1,0.447,1,1v6
	c0,0.553-0.447,1-1,1h-6c-0.553,0-1-0.447-1-1V33z M20,9c0-0.553,0.447-1,1-1h6c0.553,0,1,0.447,1,1v6c0,0.553-0.447,1-1,1h-6
	c-0.553,0-1-0.447-1-1V9z M20,21c0-0.553,0.447-1,1-1h6c0.553,0,1,0.447,1,1v6c0,0.553-0.447,1-1,1h-6c-0.553,0-1-0.447-1-1V21z
	 M20,33c0-0.553,0.447-1,1-1h6c0.553,0,1,0.447,1,1v6c0,0.553-0.447,1-1,1h-6c-0.553,0-1-0.447-1-1V33z M8,9c0-0.553,0.447-1,1-1h6
	c0.553,0,1,0.447,1,1v6c0,0.553-0.447,1-1,1H9c-0.553,0-1-0.447-1-1V9z M8,21c0-0.553,0.447-1,1-1h6c0.553,0,1,0.447,1,1v6
	c0,0.553-0.447,1-1,1H9c-0.553,0-1-0.447-1-1V21z M8,33c0-0.553,0.447-1,1-1h6c0.553,0,1,0.447,1,1v6c0,0.553-0.447,1-1,1H9
	c-0.553,0-1-0.447-1-1V33z"/>
</svg>
