<?xml version="1.0" encoding="utf-8"?>
<!-- Generator: Adobe Illustrator 19.2.1, SVG Export Plug-In . SVG Version: 6.00 Build 0)  -->
<!DOCTYPE svg PUBLIC "-//W3C//DTD SVG 1.1//EN" "http://www.w3.org/Graphics/SVG/1.1/DTD/svg11.dtd">
<svg version="1.1" id="Layer_1" xmlns="http://www.w3.org/2000/svg" xmlns:xlink="http://www.w3.org/1999/xlink" x="0px" y="0px"
	 width="48px" height="48px" viewBox="0 0 48 48" enable-background="new 0 0 48 48" xml:space="preserve">
<path d="M46,9H33V2c0-0.552-0.447-1-1-1H16c-0.553,0-1,0.448-1,1v7H2c-0.553,0-1,0.448-1,1v2c0,0.552,0.447,1,1,1h44
	c0.553,0,1-0.448,1-1v-2C47,9.448,46.553,9,46,9z M31,9H17V3h14V9z"/>
<path d="M39,47c1.105,0,2-0.895,2-2V15H7v30c0,1.105,0.895,2,2,2H39z M31,24c0-0.552,0.447-1,1-1s1,0.448,1,1v14
	c0,0.552-0.447,1-1,1s-1-0.448-1-1V24z M23,24c0-0.552,0.447-1,1-1s1,0.448,1,1v14c0,0.552-0.447,1-1,1s-1-0.448-1-1V24z M15,24
	c0-0.552,0.447-1,1-1s1,0.448,1,1v14c0,0.552-0.447,1-1,1s-1-0.448-1-1V24z"/>
</svg>
