<?xml version="1.0" encoding="utf-8"?>
<!-- Generator: Adobe Illustrator 19.2.1, SVG Export Plug-In . SVG Version: 6.00 Build 0)  -->
<!DOCTYPE svg PUBLIC "-//W3C//DTD SVG 1.1//EN" "http://www.w3.org/Graphics/SVG/1.1/DTD/svg11.dtd">
<svg version="1.1" id="Layer_1" xmlns="http://www.w3.org/2000/svg" xmlns:xlink="http://www.w3.org/1999/xlink" x="0px" y="0px"
	 width="48px" height="48px" viewBox="0 0 48 48" enable-background="new 0 0 48 48" xml:space="preserve">
<path d="M18,9c-4.962,0-9,4.038-9,9c0,0.552,0.448,1,1,1s1-0.448,1-1c0-3.86,3.14-7,7-7c0.552,0,1-0.448,1-1S18.552,9,18,9z"/>
<path d="M36.121,31.879c-0.922-0.923-2.291-1.107-3.405-0.577l-2.027-2.027C33.361,26.27,35,22.328,35,18c0-9.374-7.626-17-17-17
	S1,8.626,1,18s7.626,17,17,17c4.328,0,8.27-1.639,11.275-4.311l2.027,2.027c-0.53,1.114-0.345,2.483,0.577,3.405l10,10
	C42.464,46.707,43.232,47,44,47s1.536-0.293,2.121-0.879c1.172-1.171,1.172-3.071,0-4.242L36.121,31.879z M18,33
	C9.729,33,3,26.271,3,18S9.729,3,18,3s15,6.729,15,15S26.271,33,18,33z"/>
</svg>
