<?xml version="1.0" encoding="utf-8"?>
<!-- Generator: Adobe Illustrator 19.2.1, SVG Export Plug-In . SVG Version: 6.00 Build 0)  -->
<!DOCTYPE svg PUBLIC "-//W3C//DTD SVG 1.1//EN" "http://www.w3.org/Graphics/SVG/1.1/DTD/svg11.dtd">
<svg version="1.1" id="Layer_1" xmlns="http://www.w3.org/2000/svg" xmlns:xlink="http://www.w3.org/1999/xlink" x="0px" y="0px"
	 width="48px" height="48px" viewBox="0 0 48 48" enable-background="new 0 0 48 48" xml:space="preserve">
<circle cx="24" cy="24" r="5"/>
<path d="M24,11c-7.168,0-13,5.832-13,13s5.832,13,13,13s13-5.832,13-13S31.168,11,24,11z M24,31c-3.86,0-7-3.141-7-7s3.14-7,7-7
	s7,3.141,7,7S27.86,31,24,31z"/>
<path d="M24,1C11.318,1,1,11.317,1,24s10.318,23,23,23s23-10.317,23-23S36.682,1,24,1z M24,39c-8.271,0-15-6.729-15-15
	S15.729,9,24,9s15,6.729,15,15S32.271,39,24,39z"/>
</svg>
