<?xml version="1.0" encoding="utf-8"?>
<!-- Generator: Adobe Illustrator 19.2.1, SVG Export Plug-In . SVG Version: 6.00 Build 0)  -->
<!DOCTYPE svg PUBLIC "-//W3C//DTD SVG 1.1//EN" "http://www.w3.org/Graphics/SVG/1.1/DTD/svg11.dtd">
<svg version="1.1" id="Layer_1" xmlns="http://www.w3.org/2000/svg" xmlns:xlink="http://www.w3.org/1999/xlink" x="0px" y="0px"
	 width="48px" height="48px" viewBox="0 0 48 48" enable-background="new 0 0 48 48" xml:space="preserve">
<path fill="#222221" d="M46,23c0-0.552-0.448-1-1-1H3c-0.552,0-1,0.448-1,1v2c0,0.552,0.448,1,1,1h42c0.552,0,1-0.448,1-1V23z"/>
<path fill="#222221" d="M3,40h20c0.552,0,1-0.448,1-1v-2c0-0.552-0.448-1-1-1H3c-0.552,0-1,0.448-1,1v2C2,39.552,2.448,40,3,40z"/>
<path fill="#222221" d="M46,9c0-0.552-0.448-1-1-1H25c-0.552,0-1,0.448-1,1v2c0,0.552,0.448,1,1,1h20c0.552,0,1-0.448,1-1V9z"/>
</svg>
