<?xml version="1.0" encoding="utf-8"?>
<!-- Generator: Adobe Illustrator 19.2.1, SVG Export Plug-In . SVG Version: 6.00 Build 0)  -->
<!DOCTYPE svg PUBLIC "-//W3C//DTD SVG 1.1//EN" "http://www.w3.org/Graphics/SVG/1.1/DTD/svg11.dtd">
<svg version="1.1" id="Layer_1" xmlns="http://www.w3.org/2000/svg" xmlns:xlink="http://www.w3.org/1999/xlink" x="0px" y="0px"
	 width="48px" height="48px" viewBox="0 0 48 48" enable-background="new 0 0 48 48" xml:space="preserve">
<path d="M9,2H3C2.447,2,2,2.447,2,3v6c0,0.553,0.447,1,1,1h6c0.553,0,1-0.447,1-1V3C10,2.447,9.553,2,9,2z"/>
<path d="M15,10h6c0.553,0,1-0.447,1-1V3c0-0.553-0.447-1-1-1h-6c-0.553,0-1,0.447-1,1v6C14,9.553,14.447,10,15,10z"/>
<path d="M27,10h6c0.553,0,1-0.447,1-1V3c0-0.553-0.447-1-1-1h-6c-0.553,0-1,0.447-1,1v6C26,9.553,26.447,10,27,10z"/>
<path d="M39,10h6c0.553,0,1-0.447,1-1V3c0-0.553-0.447-1-1-1h-6c-0.553,0-1,0.447-1,1v6C38,9.553,38.447,10,39,10z"/>
<path d="M2,21c0,0.553,0.447,1,1,1h6c0.553,0,1-0.447,1-1v-6c0-0.553-0.447-1-1-1H3c-0.553,0-1,0.447-1,1V21z"/>
<path d="M14,21c0,0.553,0.447,1,1,1h6c0.553,0,1-0.447,1-1v-6c0-0.553-0.447-1-1-1h-6c-0.553,0-1,0.447-1,1V21z"/>
<path d="M26,21c0,0.553,0.447,1,1,1h6c0.553,0,1-0.447,1-1v-6c0-0.553-0.447-1-1-1h-6c-0.553,0-1,0.447-1,1V21z"/>
<path d="M38,21c0,0.553,0.447,1,1,1h6c0.553,0,1-0.447,1-1v-6c0-0.553-0.447-1-1-1h-6c-0.553,0-1,0.447-1,1V21z"/>
<path d="M2,33c0,0.553,0.447,1,1,1h6c0.553,0,1-0.447,1-1v-6c0-0.553-0.447-1-1-1H3c-0.553,0-1,0.447-1,1V33z"/>
<path d="M14,33c0,0.553,0.447,1,1,1h6c0.553,0,1-0.447,1-1v-6c0-0.553-0.447-1-1-1h-6c-0.553,0-1,0.447-1,1V33z"/>
<path d="M26,33c0,0.553,0.447,1,1,1h6c0.553,0,1-0.447,1-1v-6c0-0.553-0.447-1-1-1h-6c-0.553,0-1,0.447-1,1V33z"/>
<path d="M38,33c0,0.553,0.447,1,1,1h6c0.553,0,1-0.447,1-1v-6c0-0.553-0.447-1-1-1h-6c-0.553,0-1,0.447-1,1V33z"/>
<path d="M2,45c0,0.553,0.447,1,1,1h6c0.553,0,1-0.447,1-1v-6c0-0.553-0.447-1-1-1H3c-0.553,0-1,0.447-1,1V45z"/>
<path d="M14,45c0,0.553,0.447,1,1,1h6c0.553,0,1-0.447,1-1v-6c0-0.553-0.447-1-1-1h-6c-0.553,0-1,0.447-1,1V45z"/>
<path d="M26,45c0,0.553,0.447,1,1,1h6c0.553,0,1-0.447,1-1v-6c0-0.553-0.447-1-1-1h-6c-0.553,0-1,0.447-1,1V45z"/>
<path d="M38,45c0,0.553,0.447,1,1,1h6c0.553,0,1-0.447,1-1v-6c0-0.553-0.447-1-1-1h-6c-0.553,0-1,0.447-1,1V45z"/>
</svg>
