<?xml version="1.0" encoding="utf-8"?>
<!-- Generator: Adobe Illustrator 19.2.1, SVG Export Plug-In . SVG Version: 6.00 Build 0)  -->
<!DOCTYPE svg PUBLIC "-//W3C//DTD SVG 1.1//EN" "http://www.w3.org/Graphics/SVG/1.1/DTD/svg11.dtd">
<svg version="1.1" id="Layer_1" xmlns="http://www.w3.org/2000/svg" xmlns:xlink="http://www.w3.org/1999/xlink" x="0px" y="0px"
	 width="48px" height="48px" viewBox="0 0 48 48" enable-background="new 0 0 48 48" xml:space="preserve">
<path d="M40,4H8c-3.866,0-7,3.134-7,7v4c0,1.105,0.895,2,2,2h10c1.105,0,2-0.895,2-2v-4h18v4c0,1.105,0.895,2,2,2h10
	c1.105,0,2-0.895,2-2v-4C47,7.134,43.866,4,40,4z"/>
<path d="M32.759,19.35C32.569,19.128,32.292,19,32,19H16c-0.292,0-0.569,0.128-0.759,0.35l-12,14C3.085,33.53,3,33.762,3,34v10
	c0,0.553,0.447,1,1,1h40c0.553,0,1-0.447,1-1V34c0-0.238-0.085-0.47-0.241-0.65L32.759,19.35z M24,39c-3.859,0-7-3.141-7-7
	s3.141-7,7-7s7,3.141,7,7S27.859,39,24,39z"/>
</svg>
