<?xml version="1.0" encoding="utf-8"?>
<!-- Generator: Adobe Illustrator 19.2.1, SVG Export Plug-In . SVG Version: 6.00 Build 0)  -->
<!DOCTYPE svg PUBLIC "-//W3C//DTD SVG 1.1//EN" "http://www.w3.org/Graphics/SVG/1.1/DTD/svg11.dtd">
<svg version="1.1" id="Layer_1" xmlns="http://www.w3.org/2000/svg" xmlns:xlink="http://www.w3.org/1999/xlink" x="0px" y="0px"
	 width="48px" height="48px" viewBox="0 0 48 48" enable-background="new 0 0 48 48" xml:space="preserve">
<path d="M8.917,32.841l7.449-7.449C16.129,24.636,16,23.833,16,23c0-4.126,3.141-7.532,7.157-7.955C23.439,15.031,23.714,15,24,15
	c0.286,0,0.563,0.031,0.845,0.046c0.532,0.056,1.048,0.168,1.544,0.324l1.888-1.888C26.917,13.176,25.49,13,24,13
	C11.543,13,3.502,24.94,3.166,25.448c-0.222,0.335-0.222,0.771,0.002,1.106C3.335,26.805,5.392,29.834,8.917,32.841z"/>
<path d="M31.034,19.208C31.646,20.338,32,21.627,32,23c0,4.411-3.589,8-8,8c-1.373,0-2.667-0.348-3.797-0.961l-6.274,6.274
	C16.819,37.879,20.207,39,24,39c12.329,0,20.488-11.934,20.83-12.442c0.226-0.336,0.227-0.775,0.002-1.112
	c-0.231-0.347-4.084-6.021-10.448-9.587L31.034,19.208z"/>
<path d="M37.293,7.293l-32,32c-0.391,0.391-0.391,1.023,0,1.414C5.488,40.902,5.744,41,6,41s0.512-0.098,0.707-0.293l32-32
	c0.391-0.391,0.391-1.023,0-1.414S37.684,6.902,37.293,7.293z"/>
</svg>
