<?xml version="1.0" encoding="utf-8"?>
<!-- Generator: Adobe Illustrator 19.2.1, SVG Export Plug-In . SVG Version: 6.00 Build 0)  -->
<!DOCTYPE svg PUBLIC "-//W3C//DTD SVG 1.1//EN" "http://www.w3.org/Graphics/SVG/1.1/DTD/svg11.dtd">
<svg version="1.1" id="Layer_1" xmlns="http://www.w3.org/2000/svg" xmlns:xlink="http://www.w3.org/1999/xlink" x="0px" y="0px"
	 width="48px" height="48px" viewBox="0 0 48 48" enable-background="new 0 0 48 48" xml:space="preserve">
<path d="M13,40c0.265,0,0.52-0.105,0.707-0.293l28-28c0.391-0.391,0.391-1.023,0-1.414l-8-8c-0.391-0.391-1.023-0.391-1.414,0
	l-28,28C4.105,30.48,4,30.734,4,31v8c0,0.553,0.448,1,1,1H13z"/>
<path d="M2,45c0,0.553,0.448,1,1,1h42c0.552,0,1-0.447,1-1s-0.448-1-1-1H3C2.448,44,2,44.447,2,45z"/>
</svg>
