<?xml version="1.0" encoding="utf-8"?>
<!-- Generator: Adobe Illustrator 19.2.1, SVG Export Plug-In . SVG Version: 6.00 Build 0)  -->
<!DOCTYPE svg PUBLIC "-//W3C//DTD SVG 1.1//EN" "http://www.w3.org/Graphics/SVG/1.1/DTD/svg11.dtd">
<svg version="1.1" id="Layer_1" xmlns="http://www.w3.org/2000/svg" xmlns:xlink="http://www.w3.org/1999/xlink" x="0px" y="0px"
	 width="48px" height="48px" viewBox="0 0 48 48" enable-background="new 0 0 48 48" xml:space="preserve">
<path d="M28,26c0,4.971,4.029,9,9,9s9-4.029,9-9s-4.029-9-9-9S28,21.029,28,26z M38,22v3h3c0.552,0,1,0.448,1,1s-0.448,1-1,1h-3v3
	c0,0.552-0.448,1-1,1s-1-0.448-1-1v-3h-3c-0.552,0-1-0.448-1-1s0.448-1,1-1h3v-3c0-0.552,0.448-1,1-1S38,21.448,38,22z"/>
<path d="M3.53,45.848L19,36.179l15.47,9.669C35.129,46.26,36,45.79,36,45v-8.051C30.402,36.442,26,31.728,26,26
	s4.402-10.442,10-10.949V4c0-1.105-0.895-2-2-2H4C2.895,2,2,2.895,2,4v41C2,45.781,2.858,46.265,3.53,45.848z"/>
</svg>
