<?xml version="1.0" encoding="utf-8"?>
<!-- Generator: Adobe Illustrator 19.2.1, SVG Export Plug-In . SVG Version: 6.00 Build 0)  -->
<!DOCTYPE svg PUBLIC "-//W3C//DTD SVG 1.1//EN" "http://www.w3.org/Graphics/SVG/1.1/DTD/svg11.dtd">
<svg version="1.1" id="Layer_1" xmlns="http://www.w3.org/2000/svg" xmlns:xlink="http://www.w3.org/1999/xlink" x="0px" y="0px"
	 width="48px" height="48px" viewBox="0 0 48 48" enable-background="new 0 0 48 48" xml:space="preserve">
<path d="M12.245,17H20c0.552,0,1-0.448,1-1v-2c0-0.552-0.448-1-1-1h-8C5.585,13,0.434,18.52,1.05,25.06
	C1.587,30.76,6.598,35,12.322,35H20c0.552,0,1-0.448,1-1v-2c0-0.552-0.448-1-1-1h-8c-4.163,0-7.489-3.654-6.941-7.922
	C5.513,19.55,8.688,17,12.245,17z"/>
<path d="M28,35h7.678c5.725,0,10.736-4.24,11.272-9.94C47.566,18.52,42.415,13,36,13h-8c-0.552,0-1,0.448-1,1v2c0,0.552,0.448,1,1,1
	h8c4.163,0,7.489,3.654,6.941,7.922C42.487,28.45,39.312,31,35.755,31H28c-0.552,0-1,0.448-1,1v2C27,34.552,27.448,35,28,35z"/>
<path d="M34,24c0-1.104-0.896-2-2-2H16c-1.104,0-2,0.896-2,2s0.896,2,2,2h16C33.104,26,34,25.104,34,24z"/>
</svg>
