<?xml version="1.0" encoding="utf-8"?>
<!-- Generator: Adobe Illustrator 19.2.1, SVG Export Plug-In . SVG Version: 6.00 Build 0)  -->
<!DOCTYPE svg PUBLIC "-//W3C//DTD SVG 1.1//EN" "http://www.w3.org/Graphics/SVG/1.1/DTD/svg11.dtd">
<svg version="1.1" id="Layer_1" xmlns="http://www.w3.org/2000/svg" xmlns:xlink="http://www.w3.org/1999/xlink" x="0px" y="0px"
	 width="48px" height="48px" viewBox="0 0 48 48" enable-background="new 0 0 48 48" xml:space="preserve">
<path d="M24,1C11.317,1,1,11.318,1,24s10.317,23,23,23s23-10.318,23-23S36.683,1,24,1z M23,5c0-0.552,0.447-1,1-1s1,0.448,1,1v4
	c0,0.552-0.447,1-1,1s-1-0.448-1-1V5z M9,25H5c-0.553,0-1-0.448-1-1s0.447-1,1-1h4c0.553,0,1,0.448,1,1S9.553,25,9,25z M25,43
	c0,0.552-0.447,1-1,1s-1-0.448-1-1v-4c0-0.552,0.447-1,1-1s1,0.448,1,1V43z M32,25h-8c-0.334,0-0.646-0.167-0.832-0.445l-8-12
	c-0.307-0.459-0.183-1.081,0.277-1.387c0.461-0.307,1.08-0.183,1.387,0.277L24.535,23H32c0.553,0,1,0.448,1,1S32.553,25,32,25z
	 M44,24c0,0.552-0.447,1-1,1h-4c-0.553,0-1-0.448-1-1s0.447-1,1-1h4C43.553,23,44,23.448,44,24z"/>
</svg>
