<?xml version="1.0" encoding="utf-8"?>
<!-- Generator: Adobe Illustrator 19.2.1, SVG Export Plug-In . SVG Version: 6.00 Build 0)  -->
<!DOCTYPE svg PUBLIC "-//W3C//DTD SVG 1.1//EN" "http://www.w3.org/Graphics/SVG/1.1/DTD/svg11.dtd">
<svg version="1.1" id="Layer_1" xmlns="http://www.w3.org/2000/svg" xmlns:xlink="http://www.w3.org/1999/xlink" x="0px" y="0px"
	 width="48px" height="48px" viewBox="0 0 48 48" enable-background="new 0 0 48 48" xml:space="preserve">
<path d="M45.707,40.293l-8.851-8.851C38.838,28.443,40,24.856,40,21c0-10.477-8.523-19-19-19S2,10.523,2,21s8.523,19,19,19
	c3.856,0,7.443-1.162,10.442-3.144l8.851,8.851C40.488,45.902,40.744,46,41,46s0.512-0.098,0.707-0.293l4-4
	C46.098,41.316,46.098,40.684,45.707,40.293z M21,38c-9.389,0-17-7.611-17-17c0-9.389,7.611-17,17-17s17,7.611,17,17
	C38,30.389,30.389,38,21,38z"/>
</svg>
