<?xml version="1.0" encoding="utf-8"?>
<!-- Generator: Adobe Illustrator 19.2.1, SVG Export Plug-In . SVG Version: 6.00 Build 0)  -->
<!DOCTYPE svg PUBLIC "-//W3C//DTD SVG 1.1//EN" "http://www.w3.org/Graphics/SVG/1.1/DTD/svg11.dtd">
<svg version="1.1" id="Layer_1" xmlns="http://www.w3.org/2000/svg" xmlns:xlink="http://www.w3.org/1999/xlink" x="0px" y="0px"
	 width="48px" height="48px" viewBox="0 0 48 48" enable-background="new 0 0 48 48" xml:space="preserve">
<path d="M7,2v25c0,0.552,0.448,1,1,1s1-0.448,1-1V2c0-0.552-0.448-1-1-1S7,1.448,7,2z"/>
<path d="M2,41h5v5c0,0.552,0.448,1,1,1s1-0.448,1-1v-5h5c0.552,0,1-0.448,1-1v-8c0-0.552-0.448-1-1-1H2c-0.552,0-1,0.448-1,1v8
	C1,40.552,1.448,41,2,41z"/>
<path d="M23,21v25c0,0.552,0.448,1,1,1s1-0.448,1-1V21c0-0.552-0.448-1-1-1S23,20.448,23,21z"/>
<path d="M31,16V8c0-0.552-0.448-1-1-1h-5V2c0-0.552-0.448-1-1-1s-1,0.448-1,1v5h-5c-0.552,0-1,0.448-1,1v8c0,0.552,0.448,1,1,1h12
	C30.552,17,31,16.552,31,16z"/>
<path d="M39,2v25c0,0.552,0.448,1,1,1s1-0.448,1-1V2c0-0.552-0.448-1-1-1S39,1.448,39,2z"/>
<path d="M46,31H34c-0.552,0-1,0.448-1,1v8c0,0.552,0.448,1,1,1h5v5c0,0.552,0.448,1,1,1s1-0.448,1-1v-5h5c0.552,0,1-0.448,1-1v-8
	C47,31.448,46.552,31,46,31z"/>
</svg>
