<?xml version="1.0" encoding="utf-8"?>
<!-- Generator: Adobe Illustrator 19.2.1, SVG Export Plug-In . SVG Version: 6.00 Build 0)  -->
<!DOCTYPE svg PUBLIC "-//W3C//DTD SVG 1.1//EN" "http://www.w3.org/Graphics/SVG/1.1/DTD/svg11.dtd">
<svg version="1.1" id="Layer_1" xmlns="http://www.w3.org/2000/svg" xmlns:xlink="http://www.w3.org/1999/xlink" x="0px" y="0px"
	 width="48px" height="48px" viewBox="0 0 48 48" enable-background="new 0 0 48 48" xml:space="preserve">
<path fill="#222221" d="M36,22c-4.971,0-9,4.029-9,9s4.029,9,9,9s9-4.029,9-9S40.971,22,36,22z M40,32h-8c-0.552,0-1-0.448-1-1
	s0.448-1,1-1h8c0.552,0,1,0.448,1,1S40.552,32,40,32z"/>
<path fill="#222221" d="M24.801,6.808c-0.281,0.281-0.551,0.577-0.808,0.888c-0.257-0.311-0.526-0.606-0.808-0.888
	c-5.068-5.068-13.316-5.068-18.385,0s-5.068,13.316,0,18.385l18.485,18.485c0.195,0.195,0.451,0.293,0.707,0.293
	s0.512-0.098,0.707-0.293l4.243-4.243C26.535,37.417,25,34.389,25,31c0-6.075,4.925-11,11-11c3.34,0,6.326,1.494,8.343,3.844
	c3.862-5.091,3.485-12.394-1.157-17.036C38.118,1.739,29.87,1.739,24.801,6.808z"/>
</svg>
