<?xml version="1.0" encoding="utf-8"?>
<!-- Generator: Adobe Illustrator 19.2.1, SVG Export Plug-In . SVG Version: 6.00 Build 0)  -->
<!DOCTYPE svg PUBLIC "-//W3C//DTD SVG 1.1//EN" "http://www.w3.org/Graphics/SVG/1.1/DTD/svg11.dtd">
<svg version="1.1" id="Layer_1" xmlns="http://www.w3.org/2000/svg" xmlns:xlink="http://www.w3.org/1999/xlink" x="0px" y="0px"
	 width="48px" height="48px" viewBox="0 0 48 48" enable-background="new 0 0 48 48" xml:space="preserve">
<path d="M1,45c0,1.105,0.895,2,2,2h42c1.105,0,2-0.895,2-2V16H1V45z"/>
<path d="M45,5h-7V2c0-0.552-0.448-1-1-1h-2c-0.552,0-1,0.448-1,1v3h-8V2c0-0.552-0.448-1-1-1h-2c-0.552,0-1,0.448-1,1v3h-8V2
	c0-0.552-0.448-1-1-1h-2c-0.552,0-1,0.448-1,1v3H3C1.895,5,1,5.895,1,7v7h46V7C47,5.895,46.105,5,45,5z"/>
</svg>
