<?xml version="1.0" encoding="utf-8"?>
<!-- Generator: Adobe Illustrator 19.1.0, SVG Export Plug-In . SVG Version: 6.00 Build 0)  -->
<!DOCTYPE svg PUBLIC "-//W3C//DTD SVG 1.1//EN" "http://www.w3.org/Graphics/SVG/1.1/DTD/svg11.dtd">
<svg version="1.1" id="Layer_1" xmlns="http://www.w3.org/2000/svg" xmlns:xlink="http://www.w3.org/1999/xlink" x="0px" y="0px"
	 width="64px" height="64px" viewBox="0 0 64 64" enable-background="new 0 0 64 64" xml:space="preserve">
<path d="M5.1,58.3C5.1,58.4,5.1,58.4,5.1,58.3c0.1,0.2,0.1,0.3,0.2,0.4c0.1,0.1,0.2,0.2,0.3,0.2C5.7,59,5.9,59,6,59
	c0.1,0,0.1,0,0.2,0l36-6c0.3-0.1,0.6-0.3,0.8-0.6l7.4-18.6l2.9,2.9c0.2,0.2,0.5,0.3,0.7,0.3s0.5-0.1,0.7-0.3l6-6
	c0.4-0.4,0.4-1,0-1.4l-26-26c-0.4-0.4-1-0.4-1.4,0l-6,6c-0.4,0.4-0.4,1,0,1.4l2.9,2.9l-18.6,7.4c-0.3,0.1-0.6,0.4-0.6,0.8l-6,36
	c0,0,0,0.1,0,0.1c0,0,0,0,0,0.1C5,58.1,5,58.2,5.1,58.3z M34,5.4L58.6,30L54,34.6l-3.3-3.3c0,0,0,0,0,0L29.4,10L34,5.4z M12.9,22.7
	l18.9-7.5l17.1,17.1l-7.5,18.9L8.9,56.5l14.3-14.3C24.1,42.7,25,43,26,43c1.3,0,2.6-0.5,3.5-1.5c1.9-1.9,1.9-5.1,0-7.1
	C28.6,33.5,27.3,33,26,33s-2.6,0.5-3.5,1.5c-1.7,1.7-1.9,4.4-0.6,6.3L7.5,55.1L12.9,22.7z M23.9,40.1c-1.2-1.2-1.2-3.1,0-4.2
	c0.6-0.6,1.3-0.9,2.1-0.9s1.6,0.3,2.1,0.9c1.2,1.2,1.2,3.1,0,4.2C27,41.3,25,41.3,23.9,40.1z"/>
</svg>
