<?xml version="1.0" encoding="utf-8"?>
<!-- Generator: Adobe Illustrator 19.1.0, SVG Export Plug-In . SVG Version: 6.00 Build 0)  -->
<!DOCTYPE svg PUBLIC "-//W3C//DTD SVG 1.1//EN" "http://www.w3.org/Graphics/SVG/1.1/DTD/svg11.dtd">
<svg version="1.1" id="Layer_1" xmlns="http://www.w3.org/2000/svg" xmlns:xlink="http://www.w3.org/1999/xlink" x="0px" y="0px"
	 width="64px" height="64px" viewBox="0 0 64 64" enable-background="new 0 0 64 64" xml:space="preserve">
<path d="M21,16c0-0.6-0.4-1-1-1H10c-0.6,0-1,0.4-1,1s0.4,1,1,1h10C20.6,17,21,16.6,21,16z"/>
<path d="M30,31H20c-0.6,0-1,0.4-1,1s0.4,1,1,1h10c0.6,0,1-0.4,1-1S30.6,31,30,31z"/>
<path d="M20,47H10c-0.6,0-1,0.4-1,1s0.4,1,1,1h10c0.6,0,1-0.4,1-1S20.6,47,20,47z"/>
<path d="M26,17h3c0.6,0,1-0.4,1-1s-0.4-1-1-1h-3c-0.6,0-1,0.4-1,1S25.4,17,26,17z"/>
<path d="M39,31h-3c-0.6,0-1,0.4-1,1s0.4,1,1,1h3c0.6,0,1-0.4,1-1S39.6,31,39,31z"/>
<path d="M29,47h-3c-0.6,0-1,0.4-1,1s0.4,1,1,1h3c0.6,0,1-0.4,1-1S29.6,47,29,47z"/>
<path d="M62,23h-9V8c0-0.6-0.4-1-1-1H2C1.4,7,1,7.4,1,8v16c0,0.6,0.4,1,1,1h9v14H2c-0.6,0-1,0.4-1,1v16c0,0.6,0.4,1,1,1h50
	c0.6,0,1-0.4,1-1V41h9c0.6,0,1-0.4,1-1V24C63,23.4,62.6,23,62,23z M51,23H41V9h10V23z M3,9h36v14H12H3V9z M13,25h36v14H13V25z M3,41
	h9h27v14H3V41z M51,55H41V41h10V55z M61,39h-9h-1V25h1h9V39z"/>
</svg>
