<?xml version="1.0" encoding="utf-8"?>
<!-- Generator: Adobe Illustrator 19.1.0, SVG Export Plug-In . SVG Version: 6.00 Build 0)  -->
<!DOCTYPE svg PUBLIC "-//W3C//DTD SVG 1.1//EN" "http://www.w3.org/Graphics/SVG/1.1/DTD/svg11.dtd">
<svg version="1.1" id="Layer_1" xmlns="http://www.w3.org/2000/svg" xmlns:xlink="http://www.w3.org/1999/xlink" x="0px" y="0px"
	 width="64px" height="64px" viewBox="0 0 64 64" enable-background="new 0 0 64 64" xml:space="preserve">
<path d="M4,61c0,0,0.1,0,0.1,0l16-2c0.1,0,0.1,0,0.2,0c0,0,0.1,0,0.1,0c0.1,0,0.2-0.1,0.3-0.2l40-40c0.4-0.4,0.4-1,0-1.4l-14-14
	c-0.4-0.4-1-0.4-1.4,0l-40,40c-0.1,0.1-0.2,0.2-0.2,0.3c0,0,0,0.1,0,0.1c0,0.1,0,0.1,0,0.2l-2,16c0,0.3,0.1,0.6,0.3,0.8
	C3.5,60.9,3.7,61,4,61z M6.7,46.2l11.1,11.1L5.2,58.8L6.7,46.2z M38,13.4l5.6,5.6L13,49.6L7.4,44L38,13.4z M20,56.6L14.4,51L45,20.4
	l5.6,5.6L20,56.6z M46,5.4L58.6,18L52,24.6L39.4,12L46,5.4z"/>
</svg>
