<?xml version="1.0" encoding="utf-8"?>
<!-- Generator: Adobe Illustrator 19.1.0, SVG Export Plug-In . SVG Version: 6.00 Build 0)  -->
<!DOCTYPE svg PUBLIC "-//W3C//DTD SVG 1.1//EN" "http://www.w3.org/Graphics/SVG/1.1/DTD/svg11.dtd">
<svg version="1.1" id="Layer_1" xmlns="http://www.w3.org/2000/svg" xmlns:xlink="http://www.w3.org/1999/xlink" x="0px" y="0px"
	 width="64px" height="64px" viewBox="0 0 64 64" enable-background="new 0 0 64 64" xml:space="preserve">
<path d="M34,41c0.3,0,0.5-0.1,0.7-0.3l23-23c3.1-3.1,3.1-8.3,0-11.4c-3.1-3.1-8.3-3.1-11.4,0l-23,23c-0.4,0.4-0.4,1,0,1.4l10,10
	C33.5,40.9,33.7,41,34,41z M47.7,7.7c2.4-2.4,6.2-2.4,8.6,0s2.4,6.2,0,8.6L54,18.6L45.4,10L47.7,7.7z M44,11.4l8.6,8.6L34,38.6
	L25.4,30L44,11.4z"/>
<path d="M18.6,36.8c-2.3,0-4.5,0.9-6.1,2.5c-2.2,2.2-2.5,4.9-2.4,7c0,1.7-1.4,2.8-3.8,2.8c-0.4,0-0.8,0.3-0.9,0.6
	c-0.2,0.4-0.1,0.8,0.2,1.1c2.9,2.9,6.8,4.3,10.5,4.3c3.3,0,6.6-1.1,8.9-3.5c3.7-3.7,2.9-9.4-0.1-12.4C23.2,37.7,21,36.8,18.6,36.8
	C18.6,36.8,18.6,36.8,18.6,36.8z M23.5,50.3c-3.7,3.7-10.3,3.8-14.9,0.5c2.6-0.8,3.5-2.8,3.5-4.5c0-1.8,0.2-3.9,1.9-5.6
	c1.3-1.3,3-2,4.7-1.9c1.8,0,3.5,0.7,4.8,2C25.7,43.1,26.3,47.5,23.5,50.3z"/>
</svg>
