<?xml version="1.0" encoding="utf-8"?>
<!-- Generator: Adobe Illustrator 19.1.0, SVG Export Plug-In . SVG Version: 6.00 Build 0)  -->
<!DOCTYPE svg PUBLIC "-//W3C//DTD SVG 1.1//EN" "http://www.w3.org/Graphics/SVG/1.1/DTD/svg11.dtd">
<svg version="1.1" id="Layer_1" xmlns="http://www.w3.org/2000/svg" xmlns:xlink="http://www.w3.org/1999/xlink" x="0px" y="0px"
	 width="64px" height="64px" viewBox="0 0 64 64" enable-background="new 0 0 64 64" xml:space="preserve">
<path d="M32,1C14.9,1,1,14.9,1,32s13.9,31,31,31s31-13.9,31-31S49.1,1,32,1z M61,31H46.7c0.2-6.7,2.7-13,7.2-18.1
	C58.1,17.8,60.7,24.1,61,31z M53.8,51.1c-4.4-5-6.9-11.4-7.2-18.1H61C60.7,39.9,58.1,46.2,53.8,51.1z M3,33h14.3
	c-0.2,6.7-2.7,13-7.2,18.1C5.9,46.2,3.3,39.9,3,33z M10.2,12.9c4.4,5,6.9,11.4,7.2,18.1H3C3.3,24.1,5.9,17.8,10.2,12.9z M33,31V3
	c7.6,0.3,14.4,3.4,19.5,8.4c-4.8,5.4-7.6,12.3-7.8,19.5H33z M31,31H19.3c-0.2-7.2-3-14.1-7.8-19.5c5-5,11.9-8.2,19.5-8.4V31z
	 M19.3,33H31v28c-7.6-0.3-14.4-3.4-19.5-8.4C16.4,47.1,19.1,40.2,19.3,33z M33,33h11.7c0.2,7.2,3,14.1,7.8,19.5
	c-5,5-11.9,8.2-19.5,8.4V33z"/>
</svg>
