<?xml version="1.0" encoding="utf-8"?>
<!-- Generator: Adobe Illustrator 19.1.0, SVG Export Plug-In . SVG Version: 6.00 Build 0)  -->
<!DOCTYPE svg PUBLIC "-//W3C//DTD SVG 1.1//EN" "http://www.w3.org/Graphics/SVG/1.1/DTD/svg11.dtd">
<svg version="1.1" id="Layer_1" xmlns="http://www.w3.org/2000/svg" xmlns:xlink="http://www.w3.org/1999/xlink" x="0px" y="0px"
	 width="64px" height="64px" viewBox="0 0 64 64" enable-background="new 0 0 64 64" xml:space="preserve">
<path d="M2,55h39v5c0,0.4,0.2,0.7,0.5,0.9c0.3,0.2,0.7,0.2,1,0l5.4-3.6l5.4,3.6c0.2,0.1,0.4,0.2,0.6,0.2c0.2,0,0.3,0,0.5-0.1
	c0.3-0.2,0.5-0.5,0.5-0.9V48.9c3.6-2.3,6-6.3,6-10.9c0-6.8-5.3-12.4-12-12.9V2c0-0.6-0.4-1-1-1H14c-0.1,0-0.3,0-0.4,0.1
	c-0.1,0.1-0.2,0.1-0.3,0.2l-12,12c-0.1,0.1-0.2,0.2-0.2,0.3C1,13.7,1,13.9,1,14v40C1,54.6,1.4,55,2,55z M53,58.1l-4.4-3
	c-0.3-0.2-0.8-0.2-1.1,0l-4.4,3V50c1.5,0.6,3.2,1,5,1s3.5-0.4,5-1V58.1z M59,38c0,4-2.1,7.5-5.3,9.4c-0.2,0.1-0.3,0.1-0.4,0.3
	C51.7,48.5,49.9,49,48,49s-3.7-0.5-5.3-1.4c-0.1-0.1-0.3-0.2-0.4-0.3C39.1,45.5,37,42,37,38c0-6.1,4.9-11,11-11S59,31.9,59,38z
	 M47,25.1c-6.7,0.5-12,6.1-12,12.9c0,4.6,2.4,8.6,6,10.9V53H3V15h11c0.6,0,1-0.4,1-1V3h32V25.1z M4.4,13L13,4.4V13H4.4z"/>
<path d="M10,23c-0.6,0-1,0.4-1,1s0.4,1,1,1h24c0.6,0,1-0.4,1-1s-0.4-1-1-1H10z"/>
<path d="M28,31H10c-0.6,0-1,0.4-1,1s0.4,1,1,1h18c0.6,0,1-0.4,1-1S28.6,31,28,31z"/>
<path d="M28,39H10c-0.6,0-1,0.4-1,1s0.4,1,1,1h18c0.6,0,1-0.4,1-1S28.6,39,28,39z"/>
</svg>
