<?xml version="1.0" encoding="utf-8"?>
<!-- Generator: Adobe Illustrator 19.1.0, SVG Export Plug-In . SVG Version: 6.00 Build 0)  -->
<!DOCTYPE svg PUBLIC "-//W3C//DTD SVG 1.1//EN" "http://www.w3.org/Graphics/SVG/1.1/DTD/svg11.dtd">
<svg version="1.1" id="Layer_1" xmlns="http://www.w3.org/2000/svg" xmlns:xlink="http://www.w3.org/1999/xlink" x="0px" y="0px"
	 width="64px" height="64px" viewBox="0 0 64 64" enable-background="new 0 0 64 64" xml:space="preserve">
<path d="M29,46c0,0.6,0.4,1,1,1h20c0.6,0,1-0.4,1-1s-0.4-1-1-1H30C29.4,45,29,45.4,29,46z"/>
<path d="M56,53H21v-1c0-6.8-5.3-12.4-12-12.9V34c0-8.9,5.4-14,10.3-16.8l7.7,18.9c0.1,0.2,0.3,0.4,0.5,0.5c0.1,0.1,0.3,0.1,0.4,0.1
	c0.1,0,0.3,0,0.4-0.1l10.2-4.2c0.5-0.2,0.8-0.8,0.5-1.3L31,11.3c0,0,0,0,0,0s0,0,0,0l-3.3-8.1c-0.1-0.2-0.3-0.4-0.5-0.5
	c-0.2-0.1-0.5-0.1-0.8,0L16.2,6.9c-0.5,0.2-0.8,0.8-0.5,1.3l2.9,7.2C11.1,19.5,7,26.1,7,34v6v14v8c0,0.6,0.4,1,1,1h48
	c0.6,0,1-0.4,1-1v-8C57,53.4,56.6,53,56,53z M28.6,34.4l-7.4-18.1l8.3-3.3l7.4,18L28.6,34.4z M26.2,4.9l2.5,6.2l-8.3,3.3l-2.5-6.2
	L26.2,4.9z M19,52v1H9V41C14.6,41.6,19,46.3,19,52z M55,61H9v-6h11h35V61z"/>
</svg>
