<?xml version="1.0" encoding="utf-8"?>
<!-- Generator: Adobe Illustrator 19.1.0, SVG Export Plug-In . SVG Version: 6.00 Build 0)  -->
<!DOCTYPE svg PUBLIC "-//W3C//DTD SVG 1.1//EN" "http://www.w3.org/Graphics/SVG/1.1/DTD/svg11.dtd">
<svg version="1.1" id="Layer_1" xmlns="http://www.w3.org/2000/svg" xmlns:xlink="http://www.w3.org/1999/xlink" x="0px" y="0px"
	 width="64px" height="64px" viewBox="0 0 64 64" enable-background="new 0 0 64 64" xml:space="preserve">
<path d="M52.7,3.3c-0.4-0.4-1-0.4-1.4,0L46,8.6l-1.3-1.3c-0.4-0.4-1-0.4-1.4,0l-26,26c-0.4,0.4-0.4,1,0,1.4l1.3,1.3L5.3,49.3
	c-0.4,0.4-0.4,1,0,1.4L8.6,54l-5.3,5.3c-0.4,0.4-0.4,1,0,1.4C3.5,60.9,3.7,61,4,61s0.5-0.1,0.7-0.3l5.3-5.3l3.3,3.3
	c0.2,0.2,0.5,0.3,0.7,0.3s0.5-0.1,0.7-0.3L28,45.4l1.3,1.3c0.2,0.2,0.5,0.3,0.7,0.3s0.5-0.1,0.7-0.3L54,23.4l2.6,2.6L41.3,41.3
	c-0.4,0.4-0.4,1,0,1.4c0.2,0.2,0.5,0.3,0.7,0.3s0.5-0.1,0.7-0.3l16-16c0.4-0.4,0.4-1,0-1.4L55.4,22l1.3-1.3c0.4-0.4,0.4-1,0-1.4
	L55.4,18l5.3-5.3c0.4-0.4,0.4-1,0-1.4L52.7,3.3z M14,56.6L7.4,50L20,37.4l6.6,6.6L14,56.6z M30,44.6L19.4,34L44,9.4L54.6,20L30,44.6
	z M54,16.6L47.4,10L52,5.4l6.6,6.6L54,16.6z"/>
</svg>
