<?xml version="1.0" encoding="utf-8"?>
<!-- Generator: Adobe Illustrator 19.1.0, SVG Export Plug-In . SVG Version: 6.00 Build 0)  -->
<!DOCTYPE svg PUBLIC "-//W3C//DTD SVG 1.1//EN" "http://www.w3.org/Graphics/SVG/1.1/DTD/svg11.dtd">
<svg version="1.1" id="Layer_1" xmlns="http://www.w3.org/2000/svg" xmlns:xlink="http://www.w3.org/1999/xlink" x="0px" y="0px"
	 width="64px" height="64px" viewBox="0 0 64 64" enable-background="new 0 0 64 64" xml:space="preserve">
<path d="M32,27c-2.8,0-5,2.2-5,5s2.2,5,5,5s5-2.2,5-5S34.8,27,32,27z M32,35c-1.7,0-3-1.3-3-3s1.3-3,3-3s3,1.3,3,3S33.7,35,32,35z"
	/>
<path d="M58.8,16.5c-1.7-2.9-6.1-3.9-12.5-2.8c-1.4,0.2-2.8,0.6-4.3,1C39.9,6.4,36.2,1,32,1s-7.9,5.4-10,13.7
	c-1.5-0.4-2.9-0.8-4.3-1c-6.4-1.1-10.8-0.1-12.5,2.8C3.5,19.4,4.8,23.8,9,28.8c0.9,1.1,1.9,2.2,3,3.2c-1.1,1.1-2.1,2.2-3,3.2
	c-4.2,5-5.5,9.3-3.8,12.3c1.2,2.2,4,3.3,7.9,3.3c1.4,0,3-0.1,4.7-0.4c1.4-0.2,2.8-0.6,4.3-1C24.1,57.6,27.8,63,32,63
	s7.9-5.4,10-13.7c1.5,0.4,2.9,0.8,4.3,1c1.7,0.3,3.3,0.4,4.7,0.4c3.9,0,6.6-1.1,7.9-3.3c1.7-2.9,0.3-7.3-3.8-12.3
	c-0.9-1.1-1.9-2.2-3-3.2c1.1-1.1,2.1-2.2,3-3.2C59.2,23.8,60.5,19.4,58.8,16.5z M32,3c3,0,6.2,4.6,8.1,12.2
	c-2.6,0.8-5.4,1.9-8.1,3.2c-2.8-1.3-5.5-2.4-8.1-3.2C25.8,7.6,29,3,32,3z M42,32c0,2-0.1,3.8-0.2,5.7c-1.5,1-3.1,2-4.8,3
	c-1.7,1-3.3,1.8-5,2.7c-1.7-0.8-3.3-1.7-5-2.7c-1.7-1-3.3-2-4.8-3C22.1,35.8,22,34,22,32s0.1-3.8,0.2-5.7c1.5-1,3.1-2,4.8-3
	c1.7-1,3.3-1.8,5-2.7c1.7,0.8,3.3,1.7,5,2.7c1.7,1,3.3,2,4.8,3C41.9,28.2,42,30,42,32z M43.9,27.8c1.9,1.4,3.6,2.8,5.2,4.2
	c-1.6,1.4-3.3,2.8-5.2,4.2C44,34.8,44,33.4,44,32S44,29.2,43.9,27.8z M41.6,40.2c-0.2,2.4-0.6,4.6-1,6.6c-2-0.7-4.1-1.5-6.3-2.4
	c1.2-0.6,2.5-1.3,3.7-2C39.2,41.7,40.4,40.9,41.6,40.2z M29.7,44.4c-2.1,1-4.2,1.8-6.3,2.4c-0.4-2-0.8-4.2-1-6.6
	c1.2,0.8,2.4,1.5,3.6,2.2C27.2,43.1,28.5,43.8,29.7,44.4z M20.1,36.2c-1.9-1.4-3.6-2.8-5.2-4.2c1.6-1.4,3.3-2.8,5.2-4.2
	C20,29.2,20,30.6,20,32S20,34.8,20.1,36.2z M22.4,23.8c0.2-2.4,0.6-4.6,1-6.6c2,0.7,4.1,1.5,6.3,2.4c-1.2,0.6-2.5,1.3-3.7,2
	C24.8,22.3,23.6,23.1,22.4,23.8z M38,21.6c-1.2-0.7-2.5-1.4-3.7-2c2.1-1,4.2-1.8,6.3-2.4c0.4,2,0.8,4.2,1,6.6
	C40.4,23.1,39.2,22.3,38,21.6z M6.9,17.5c0.9-1.5,3-2.3,6.1-2.3c1.3,0,2.8,0.1,4.4,0.4c1.3,0.2,2.7,0.6,4.2,1
	c-0.6,2.6-1,5.5-1.3,8.6c-2.5,1.7-4.8,3.5-6.8,5.4c-1.1-1-2.1-2.1-2.9-3.1C7,23.3,5.7,19.6,6.9,17.5z M17.3,48.4
	c-5.4,0.9-9.2,0.3-10.5-1.9c-1.2-2.1,0.1-5.8,3.6-10c0.9-1,1.9-2.1,2.9-3.1c2,1.8,4.3,3.7,6.8,5.4c0.3,3.1,0.7,6,1.3,8.6
	C20.1,47.8,18.7,48.1,17.3,48.4z M32,61c-3,0-6.2-4.6-8.1-12.2c2.6-0.8,5.4-1.9,8.1-3.2c2.8,1.3,5.5,2.4,8.1,3.2
	C38.2,56.4,35,61,32,61z M57.1,46.5c-1.2,2.1-5,2.8-10.5,1.9c-1.3-0.2-2.7-0.6-4.2-1c0.6-2.6,1-5.5,1.3-8.6c2.5-1.7,4.8-3.5,6.8-5.4
	c1.1,1,2.1,2.1,2.9,3.1C57,40.7,58.3,44.4,57.1,46.5z M50.5,30.6c-2-1.8-4.3-3.7-6.8-5.4c-0.3-3.1-0.7-6-1.3-8.6
	c1.4-0.4,2.8-0.7,4.2-1c1.6-0.3,3.1-0.4,4.4-0.4c3.1,0,5.2,0.8,6.1,2.3c1.2,2.1-0.1,5.8-3.6,10C52.6,28.5,51.6,29.6,50.5,30.6z"/>
</svg>
