<?xml version="1.0" encoding="utf-8"?>
<!-- Generator: Adobe Illustrator 19.1.0, SVG Export Plug-In . SVG Version: 6.00 Build 0)  -->
<!DOCTYPE svg PUBLIC "-//W3C//DTD SVG 1.1//EN" "http://www.w3.org/Graphics/SVG/1.1/DTD/svg11.dtd">
<svg version="1.1" id="Layer_1" xmlns="http://www.w3.org/2000/svg" xmlns:xlink="http://www.w3.org/1999/xlink" x="0px" y="0px"
	 width="64px" height="64px" viewBox="0 0 64 64" enable-background="new 0 0 64 64" xml:space="preserve">
<path d="M58.7,2.7c0.4-0.4,0.4-1,0-1.4s-1-0.4-1.4,0l-4.5,4.5c-1.3-1.3-2.7-2.5-4.2-3.6c-0.5-0.3-1.1-0.2-1.4,0.2
	c-0.3,0.5-0.2,1.1,0.2,1.4C54.7,8.9,59,17.2,59,26c0,14.9-12.1,27-27,27c-9.6,0-18.6-5.2-23.4-13.5c-0.3-0.5-0.9-0.6-1.4-0.4
	c-0.5,0.3-0.6,0.9-0.4,1.4c1.4,2.3,3,4.4,4.9,6.3l-4.5,4.5c-0.4,0.4-0.4,1,0,1.4C7.5,52.9,7.7,53,8,53s0.5-0.1,0.7-0.3l4.6-4.6
	c4.9,4.1,11.1,6.6,17.7,6.8v6H20c-0.6,0-1,0.4-1,1s0.4,1,1,1h24c0.6,0,1-0.4,1-1s-0.4-1-1-1H33v-6c15.5-0.5,28-13.3,28-29
	c0-6.9-2.5-13.5-6.9-18.7L58.7,2.7z"/>
<path d="M32,47c5.4,0,10.8-2,14.8-6.1c8.2-8.2,8.2-21.5,0-29.7C38.7,3,25.3,3,17.2,11.2C9,19.3,9,32.7,17.2,40.8
	C21.2,44.9,26.6,47,32,47z M19.3,40.1L32,27.4l6.6,6.6C31.8,40.5,23.6,43.1,19.3,40.1z M33.4,26l12.7-12.7c3,4.2,0.4,12.5-6,19.3
	L33.4,26z M44.7,11.9L32,24.6l-6.7-6.7c4.9-4.6,10.5-7.3,14.9-7.3C42,10.7,43.5,11.1,44.7,11.9z M30.6,26L17.9,38.7
	c-3-4.2-0.4-12.5,6-19.3L30.6,26z M24.2,43.3c4.8-0.2,10.7-2.9,15.9-7.8l4.6,4.6C39,45.2,30.9,46.3,24.2,43.3z M46.1,38.7l-4.6-4.6
	c4.9-5.2,7.7-11,7.8-15.9C52.3,24.9,51.3,33,46.1,38.7z M39.8,8.7c-4.8,0.2-10.7,2.9-15.9,7.8l-4.6-4.6C25,6.7,33.1,5.7,39.8,8.7z
	 M17.9,13.3l4.6,4.6c-4.9,5.2-7.7,11-7.8,15.9C11.7,27.1,12.7,19,17.9,13.3z"/>
</svg>
