<?xml version="1.0" encoding="utf-8"?>
<!-- Generator: Adobe Illustrator 19.1.0, SVG Export Plug-In . SVG Version: 6.00 Build 0)  -->
<!DOCTYPE svg PUBLIC "-//W3C//DTD SVG 1.1//EN" "http://www.w3.org/Graphics/SVG/1.1/DTD/svg11.dtd">
<svg version="1.1" id="Layer_1" xmlns="http://www.w3.org/2000/svg" xmlns:xlink="http://www.w3.org/1999/xlink" x="0px" y="0px"
	 width="64px" height="64px" viewBox="0 0 64 64" enable-background="new 0 0 64 64" xml:space="preserve">
<path d="M20,63h24c0.6,0,1-0.4,1-1V2c0-0.6-0.4-1-1-1H20c-0.6,0-1,0.4-1,1v60C19,62.6,19.4,63,20,63z M43,3v58H21v-8h5
	c0.6,0,1-0.4,1-1s-0.4-1-1-1h-5v-6h7c0.6,0,1-0.4,1-1s-0.4-1-1-1h-7v-6h5c0.6,0,1-0.4,1-1s-0.4-1-1-1h-5v-6h7c0.6,0,1-0.4,1-1
	s-0.4-1-1-1h-7v-6h5c0.6,0,1-0.4,1-1s-0.4-1-1-1h-5v-6h7c0.6,0,1-0.4,1-1s-0.4-1-1-1h-7V3H43z"/>
<path d="M36,13c1.7,0,3-1.3,3-3s-1.3-3-3-3s-3,1.3-3,3S34.3,13,36,13z M36,9c0.6,0,1,0.4,1,1s-0.4,1-1,1s-1-0.4-1-1S35.4,9,36,9z"/>
</svg>
