<?xml version="1.0" encoding="utf-8"?>
<!-- Generator: Adobe Illustrator 19.1.0, SVG Export Plug-In . SVG Version: 6.00 Build 0)  -->
<!DOCTYPE svg PUBLIC "-//W3C//DTD SVG 1.1//EN" "http://www.w3.org/Graphics/SVG/1.1/DTD/svg11.dtd">
<svg version="1.1" id="Layer_1" xmlns="http://www.w3.org/2000/svg" xmlns:xlink="http://www.w3.org/1999/xlink" x="0px" y="0px"
	 width="64px" height="64px" viewBox="0 0 64 64" enable-background="new 0 0 64 64" xml:space="preserve">
<path d="M43.3,3.3l-40,40c-0.4,0.4-0.4,1,0,1.4l14,14c0.2,0.2,0.5,0.3,0.7,0.3s0.5-0.1,0.7-0.3l40-40c0.4-0.4,0.4-1,0-1.4l-14-14
	C44.3,2.9,43.7,2.9,43.3,3.3z M18,56.6L5.4,44l4.6-4.6l5.3,5.3c0.2,0.2,0.5,0.3,0.7,0.3s0.5-0.1,0.7-0.3c0.4-0.4,0.4-1,0-1.4
	L11.4,38l4.6-4.6l3.3,3.3c0.2,0.2,0.5,0.3,0.7,0.3s0.5-0.1,0.7-0.3c0.4-0.4,0.4-1,0-1.4L17.4,32l4.6-4.6l5.3,5.3
	c0.2,0.2,0.5,0.3,0.7,0.3s0.5-0.1,0.7-0.3c0.4-0.4,0.4-1,0-1.4L23.4,26l4.6-4.6l3.3,3.3c0.2,0.2,0.5,0.3,0.7,0.3s0.5-0.1,0.7-0.3
	c0.4-0.4,0.4-1,0-1.4L29.4,20l4.6-4.6l5.3,5.3c0.2,0.2,0.5,0.3,0.7,0.3s0.5-0.1,0.7-0.3c0.4-0.4,0.4-1,0-1.4L35.4,14L44,5.4L56.6,18
	L18,56.6z"/>
<path d="M48,21c1.7,0,3-1.3,3-3s-1.3-3-3-3s-3,1.3-3,3S46.3,21,48,21z M48,17c0.6,0,1,0.4,1,1s-0.4,1-1,1s-1-0.4-1-1S47.4,17,48,17z
	"/>
</svg>
