<?xml version="1.0" encoding="utf-8"?>
<!-- Generator: Adobe Illustrator 19.1.0, SVG Export Plug-In . SVG Version: 6.00 Build 0)  -->
<!DOCTYPE svg PUBLIC "-//W3C//DTD SVG 1.1//EN" "http://www.w3.org/Graphics/SVG/1.1/DTD/svg11.dtd">
<svg version="1.1" id="Layer_1" xmlns="http://www.w3.org/2000/svg" xmlns:xlink="http://www.w3.org/1999/xlink" x="0px" y="0px"
	 width="64px" height="64px" viewBox="0 0 64 64" enable-background="new 0 0 64 64" xml:space="preserve">
<path d="M36,31h-8c-0.6,0-1,0.4-1,1v6c0,0.6,0.4,1,1,1h8c0.6,0,1-0.4,1-1v-6C37,31.4,36.6,31,36,31z M35,37h-6v-4h6V37z"/>
<path d="M20,47h-8c-0.6,0-1,0.4-1,1v6c0,0.6,0.4,1,1,1h8c0.6,0,1-0.4,1-1v-6C21,47.4,20.6,47,20,47z M19,53h-6v-4h6V53z"/>
<path d="M43,48v6c0,0.6,0.4,1,1,1h8c0.6,0,1-0.4,1-1v-6c0-0.6-0.4-1-1-1h-8C43.4,47,43,47.4,43,48z M45,49h6v4h-6V49z"/>
<path d="M60,39H47V28c0-0.3-0.2-0.6-0.4-0.8L33,17.5V11h9c0.6,0,1-0.4,1-1V2c0-0.6-0.4-1-1-1H32c-0.6,0-1,0.4-1,1v15.5l-13.6,9.7
	C17.2,27.4,17,27.7,17,28v11H4c-0.6,0-1,0.4-1,1v22c0,0.6,0.4,1,1,1h56c0.6,0,1-0.4,1-1V40C61,39.4,60.6,39,60,39z M33,3h8v6h-8V3z
	 M35,61h-6V49h6V61z M59,61H37V48c0-0.6-0.4-1-1-1h-8c-0.6,0-1,0.4-1,1v13H5V41h13c0.6,0,1-0.4,1-1V28.5l13-9.3l13,9.3V40
	c0,0.6,0.4,1,1,1h13V61z"/>
</svg>
