<?xml version="1.0" encoding="utf-8"?>
<!-- Generator: Adobe Illustrator 19.1.0, SVG Export Plug-In . SVG Version: 6.00 Build 0)  -->
<!DOCTYPE svg PUBLIC "-//W3C//DTD SVG 1.1//EN" "http://www.w3.org/Graphics/SVG/1.1/DTD/svg11.dtd">
<svg version="1.1" id="Layer_1" xmlns="http://www.w3.org/2000/svg" xmlns:xlink="http://www.w3.org/1999/xlink" x="0px" y="0px"
	 width="64px" height="64px" viewBox="0 0 64 64" enable-background="new 0 0 64 64" xml:space="preserve">
<path d="M4,38c0.6,0,1-0.4,1-1v-8c0-0.6-0.4-1-1-1s-1,0.4-1,1v8C3,37.6,3.4,38,4,38z"/>
<path d="M60,38c0.6,0,1-0.4,1-1v-8c0-0.6-0.4-1-1-1s-1,0.4-1,1v8C59,37.6,59.4,38,60,38z"/>
<path d="M57,7c0-2.8-2.2-5-5-5H12C9.2,2,7,4.2,7,7v48c0,0.6,0.4,1,1,1h3v5c0,0.6,0.4,1,1,1h9c0.6,0,1-0.4,1-1v-5h20v5
	c0,0.6,0.4,1,1,1h9c0.6,0,1-0.4,1-1v-5h3c0.6,0,1-0.4,1-1V7z M42.7,27.3c-0.4-0.4-1-0.4-1.4,0L31.6,37H9V16h46v21H34.4l8.3-8.3
	C43.1,28.3,43.1,27.7,42.7,27.3z M12,4h40c1.7,0,3,1.3,3,3v7H9V7C9,5.3,10.3,4,12,4z M20,60h-7v-4h7V60z M51,60h-7v-4h7V60z M9,54
	V39h46v15H9z"/>
<path d="M28,10h8c0.6,0,1-0.4,1-1s-0.4-1-1-1h-8c-0.6,0-1,0.4-1,1S27.4,10,28,10z"/>
<path d="M17,43c-2.2,0-4,1.8-4,4s1.8,4,4,4s4-1.8,4-4S19.2,43,17,43z M17,49c-1.1,0-2-0.9-2-2s0.9-2,2-2s2,0.9,2,2S18.1,49,17,49z"
	/>
<path d="M47,43c-2.2,0-4,1.8-4,4s1.8,4,4,4s4-1.8,4-4S49.2,43,47,43z M47,49c-1.1,0-2-0.9-2-2s0.9-2,2-2s2,0.9,2,2S48.1,49,47,49z"
	/>
<path d="M38,44H26c-0.6,0-1,0.4-1,1v4c0,0.6,0.4,1,1,1h12c0.6,0,1-0.4,1-1v-4C39,44.4,38.6,44,38,44z M37,48H27v-2h10V48z"/>
</svg>
