<?xml version="1.0" encoding="utf-8"?>
<!-- Generator: Adobe Illustrator 19.1.0, SVG Export Plug-In . SVG Version: 6.00 Build 0)  -->
<!DOCTYPE svg PUBLIC "-//W3C//DTD SVG 1.1//EN" "http://www.w3.org/Graphics/SVG/1.1/DTD/svg11.dtd">
<svg version="1.1" id="Layer_1" xmlns="http://www.w3.org/2000/svg" xmlns:xlink="http://www.w3.org/1999/xlink" x="0px" y="0px"
	 width="64px" height="64px" viewBox="0 0 64 64" enable-background="new 0 0 64 64" xml:space="preserve">
<path d="M5,52.3c0.1,0.4,0.4,0.6,0.8,0.7l10,2c0.1,0,0.1,0,0.2,0c0.3,0,0.5-0.1,0.7-0.3l5.3-5.3l3.3,3.3c0.2,0.2,0.5,0.3,0.7,0.3
	s0.5-0.1,0.7-0.3l34-34c0.4-0.4,0.4-1,0-1.4l-14-14c-0.4-0.4-1-0.4-1.4,0l-34,34c-0.4,0.4-0.4,1,0,1.4l3.3,3.3l-9.3,9.3
	C5,51.6,4.9,51.9,5,52.3z M54.6,14L42,26.6L37.4,22L50,9.4L54.6,14z M46,5.4L48.6,8L35.3,21.3c-0.4,0.4-0.4,1,0,1.4l6,6
	c0.2,0.2,0.5,0.3,0.7,0.3s0.5-0.1,0.7-0.3L56,15.4l2.6,2.6L26,50.6L13.4,38L46,5.4z M16,43.4l4.6,4.6l-4.9,4.9L8,51.4L16,43.4z"/>
</svg>
