<?xml version="1.0" encoding="utf-8"?>
<!-- Generator: Adobe Illustrator 19.1.0, SVG Export Plug-In . SVG Version: 6.00 Build 0)  -->
<!DOCTYPE svg PUBLIC "-//W3C//DTD SVG 1.1//EN" "http://www.w3.org/Graphics/SVG/1.1/DTD/svg11.dtd">
<svg version="1.1" id="Layer_1" xmlns="http://www.w3.org/2000/svg" xmlns:xlink="http://www.w3.org/1999/xlink" x="0px" y="0px"
	 width="64px" height="64px" viewBox="0 0 64 64" enable-background="new 0 0 64 64" xml:space="preserve">
<path d="M57,58V6c0-2.8-2.2-5-5-5h-6H8C7.4,1,7,1.4,7,2v60c0,0.6,0.4,1,1,1h38h6C54.8,63,57,60.8,57,58z M19,3h14v19l-6.4-4.8
	c-0.4-0.3-0.8-0.3-1.2,0L19,22V3z M9,3h8v21c0,0.4,0.2,0.7,0.6,0.9c0.3,0.2,0.7,0.1,1-0.1l7.4-5.5l7.4,5.5c0.2,0.1,0.4,0.2,0.6,0.2
	c0.2,0,0.3,0,0.4-0.1c0.3-0.2,0.6-0.5,0.6-0.9V3h10v58H9V3z M55,58c0,1.7-1.3,3-3,3h-5V3h5c1.7,0,3,1.3,3,3V58z"/>
</svg>
