<?xml version="1.0" encoding="utf-8"?>
<!-- Generator: Adobe Illustrator 19.1.0, SVG Export Plug-In . SVG Version: 6.00 Build 0)  -->
<!DOCTYPE svg PUBLIC "-//W3C//DTD SVG 1.1//EN" "http://www.w3.org/Graphics/SVG/1.1/DTD/svg11.dtd">
<svg version="1.1" id="Layer_1" xmlns="http://www.w3.org/2000/svg" xmlns:xlink="http://www.w3.org/1999/xlink" x="0px" y="0px"
	 width="64px" height="64px" viewBox="0 0 64 64" enable-background="new 0 0 64 64" xml:space="preserve">
<path d="M62.4,13.1C62.3,13,62.1,13,62,13H44.4l-9.6-8C34.9,4.7,35,4.4,35,4c0-1.7-1.3-3-3-3s-3,1.3-3,3c0,0.4,0.1,0.7,0.2,1l-9.6,8
	H2c-0.1,0-0.3,0-0.4,0.1c-0.2,0.1-0.4,0.3-0.5,0.5C1,13.7,1,13.9,1,14v48c0,0.1,0,0.3,0.1,0.4c0.1,0.2,0.3,0.4,0.5,0.5
	C1.7,63,1.9,63,2,63h60c0.1,0,0.3,0,0.4-0.1c0.2-0.1,0.4-0.3,0.5-0.5C63,62.3,63,62.1,63,62V14c0-0.1,0-0.3-0.1-0.4
	C62.8,13.4,62.6,13.2,62.4,13.1z M59.6,15l-6,6H10.4l-6-6H59.6z M35,53v-4h12v4H35z M48,47H34c-0.6,0-1,0.4-1,1v5H11V23h42v30h-4v-5
	C49,47.4,48.6,47,48,47z M9,22.4v31.2l-6,6V16.4L9,22.4z M10.4,55h43.2l6,6H4.4L10.4,55z M55,53.6V22.4l6-6v43.2L55,53.6z M32,3
	c0.6,0,1,0.4,1,1s-0.4,1-1,1s-1-0.4-1-1S31.4,3,32,3z M30.5,6.6C30.9,6.8,31.4,7,32,7c0.6,0,1.1-0.2,1.5-0.4l7.7,6.4H22.8L30.5,6.6z
	"/>
</svg>
