<?xml version="1.0" encoding="utf-8"?>
<!-- Generator: Adobe Illustrator 19.1.0, SVG Export Plug-In . SVG Version: 6.00 Build 0)  -->
<!DOCTYPE svg PUBLIC "-//W3C//DTD SVG 1.1//EN" "http://www.w3.org/Graphics/SVG/1.1/DTD/svg11.dtd">
<svg version="1.1" id="Layer_1" xmlns="http://www.w3.org/2000/svg" xmlns:xlink="http://www.w3.org/1999/xlink" x="0px" y="0px"
	 width="64px" height="64px" viewBox="0 0 64 64" enable-background="new 0 0 64 64" xml:space="preserve">
<path d="M26.3,22.4l-16-5.3c-0.5-0.2-1.1,0.1-1.3,0.6c-0.2,0.5,0.1,1.1,0.6,1.3l16,5.3c0.1,0,0.2,0.1,0.3,0.1c0.4,0,0.8-0.3,0.9-0.7
	C27.1,23.1,26.8,22.6,26.3,22.4z"/>
<path d="M26.3,33.7l-16-5.3c-0.5-0.2-1.1,0.1-1.3,0.6c-0.2,0.5,0.1,1.1,0.6,1.3l16,5.3c0.1,0,0.2,0.1,0.3,0.1c0.4,0,0.8-0.3,0.9-0.7
	C27.1,34.5,26.8,33.9,26.3,33.7z"/>
<path d="M26.3,46.4l-16-5.3c-0.5-0.2-1.1,0.1-1.3,0.6c-0.2,0.5,0.1,1.1,0.6,1.3l16,5.3c0.1,0,0.2,0.1,0.3,0.1c0.4,0,0.8-0.3,0.9-0.7
	C27.1,47.1,26.8,46.6,26.3,46.4z"/>
<path d="M38,24.3c0.1,0,0.2,0,0.3-0.1l16-5.3c0.5-0.2,0.8-0.7,0.6-1.3c-0.2-0.5-0.7-0.8-1.3-0.6l-16,5.3c-0.5,0.2-0.8,0.7-0.6,1.3
	C37.2,24.1,37.6,24.3,38,24.3z"/>
<path d="M38,35.7c0.1,0,0.2,0,0.3-0.1l16-5.3c0.5-0.2,0.8-0.7,0.6-1.3c-0.2-0.5-0.7-0.8-1.3-0.6l-16,5.3c-0.5,0.2-0.8,0.7-0.6,1.3
	C37.2,35.4,37.6,35.7,38,35.7z"/>
<path d="M38,48.3c0.1,0,0.2,0,0.3-0.1l16-5.3c0.5-0.2,0.8-0.7,0.6-1.3c-0.2-0.5-0.7-0.8-1.3-0.6l-16,5.3c-0.5,0.2-0.8,0.7-0.6,1.3
	C37.2,48.1,37.6,48.3,38,48.3z"/>
<path d="M62.6,3.2C62.3,3,62,2.9,61.7,3.1L32,12.9L2.3,3.1C2,2.9,1.7,3,1.4,3.2C1.2,3.4,1,3.7,1,4v46c0,0.4,0.3,0.8,0.7,0.9l30,10
	c0.1,0,0.2,0.1,0.3,0.1s0.2,0,0.3-0.1l30-10c0.4-0.1,0.7-0.5,0.7-0.9V4C63,3.7,62.8,3.4,62.6,3.2z M61,49.3l-29,9.7L3,49.3V5.4
	l28.7,9.6c0.2,0.1,0.4,0.1,0.6,0L61,5.4V49.3z"/>
</svg>
