<?xml version="1.0" encoding="utf-8"?>
<!-- Generator: Adobe Illustrator 19.1.0, SVG Export Plug-In . SVG Version: 6.00 Build 0)  -->
<!DOCTYPE svg PUBLIC "-//W3C//DTD SVG 1.1//EN" "http://www.w3.org/Graphics/SVG/1.1/DTD/svg11.dtd">
<svg version="1.1" id="Layer_1" xmlns="http://www.w3.org/2000/svg" xmlns:xlink="http://www.w3.org/1999/xlink" x="0px" y="0px"
	 width="64px" height="64px" viewBox="0 0 64 64" enable-background="new 0 0 64 64" xml:space="preserve">
<path d="M12,1c-0.6,0-1,0.4-1,1v36c0,0,0,0.1,0,0.1c0,0.1,0,0.1,0,0.2c0,0.1,0.1,0.1,0.1,0.2c0,0,0,0.1,0.1,0.1c0,0,0,0,0,0
	c0,0,0,0,0,0l20,22c0.2,0.2,0.5,0.3,0.7,0.3s0.6-0.1,0.7-0.3l20-22c0,0,0,0,0,0c0,0,0,0,0,0c0,0,0-0.1,0.1-0.1
	c0-0.1,0.1-0.1,0.1-0.2c0-0.1,0-0.1,0-0.2c0,0,0-0.1,0-0.1V2c0-0.6-0.4-1-1-1s-1,0.4-1,1v33.9l-8-6.4V6c0-0.6-0.4-1-1-1s-1,0.4-1,1
	v23.5l-9,7.2l-9-7.2V6c0-0.6-0.4-1-1-1s-1,0.4-1,1v23.5l-8,6.4V2C13,1.4,12.6,1,12,1z M32,58.5L27,53h10L32,58.5z M32.6,38.8
	l9.4-7.5l8.5,6.8L38.8,51H25.2L13.5,38.1l8.5-6.8l9.4,7.5C31.7,39.1,32.3,39.1,32.6,38.8z"/>
</svg>
