<?xml version="1.0" encoding="utf-8"?>
<!-- Generator: Adobe Illustrator 19.1.0, SVG Export Plug-In . SVG Version: 6.00 Build 0)  -->
<!DOCTYPE svg PUBLIC "-//W3C//DTD SVG 1.1//EN" "http://www.w3.org/Graphics/SVG/1.1/DTD/svg11.dtd">
<svg version="1.1" id="Layer_1" xmlns="http://www.w3.org/2000/svg" xmlns:xlink="http://www.w3.org/1999/xlink" x="0px" y="0px"
	 width="64px" height="64px" viewBox="0 0 64 64" enable-background="new 0 0 64 64" xml:space="preserve">
<path d="M51,1c-7.5,0-15.1,4.7-19.6,12H18L8,13c-3.7,0-7,5.6-7,12c0,6.4,3.3,12,7,12h3.7l12.8,21.8c1.2,2,3.4,3.2,5.6,3.2
	c1.1,0,2.2-0.3,3.3-0.9c3.1-1.8,4.1-5.8,2.3-8.8l-9-15.3h4.8c4.4,7.3,12.1,12,19.6,12c6.7,0,12-10.5,12-24S57.7,1,51,1z M3,25
	c0-5.5,2.7-10,5-10l6.5,0c-1.6,2.1-2.6,5.7-2.6,10c0,4.3,1,7.9,2.6,10H8C5.7,35,3,30.5,3,25z M33.9,53.3c1.2,2.1,0.5,4.9-1.6,6.1
	c-2.1,1.2-4.9,0.5-6.1-1.6L14,37h4h6.4L33.9,53.3z M32.9,35.5C32.7,35.2,32.4,35,32,35H18c-2.3,0-4.1-4.5-4.1-10s1.8-10,4.1-10h14
	c0.4,0,0.7-0.2,0.9-0.5c2.9-5,7.3-8.7,12.2-10.4c-3.6,4.1-6,11.8-6,20.9s2.4,16.8,6,20.9C40.2,44.2,35.8,40.5,32.9,35.5z M41,25
	c0-3.5,0.4-6.9,1.1-9.9c4.5,1,8,5.2,8,9.9c0,4.6-3.4,8.5-8.1,9.5C41.4,31.6,41,28.4,41,25z M51,47c-3.5,0-6.7-4.3-8.5-10.6
	c5.5-1.2,9.6-5.9,9.6-11.4c0-5.6-4.1-10.6-9.5-11.8C44.4,7.1,47.5,3,51,3c5.4,0,10,10.1,10,22S56.4,47,51,47z"/>
</svg>
