<?xml version="1.0" encoding="utf-8"?>
<!-- Generator: Adobe Illustrator 19.1.0, SVG Export Plug-In . SVG Version: 6.00 Build 0)  -->
<!DOCTYPE svg PUBLIC "-//W3C//DTD SVG 1.1//EN" "http://www.w3.org/Graphics/SVG/1.1/DTD/svg11.dtd">
<svg version="1.1" id="Layer_1" xmlns="http://www.w3.org/2000/svg" xmlns:xlink="http://www.w3.org/1999/xlink" x="0px" y="0px"
	 width="64px" height="64px" viewBox="0 0 64 64" enable-background="new 0 0 64 64" xml:space="preserve">
<path d="M18.6,27.1L11,19.6V6c0-0.6-0.4-1-1-1S9,5.4,9,6v14c0,0.3,0.1,0.5,0.3,0.7l7.9,7.9c0.2,0.2,0.3,0.6,0.3,0.9
	c-0.1,0.3-0.3,0.6-0.6,0.7l-7.2,2.9C9.2,33.2,9,33.6,9,34v3.4l-4.3,2.1C3,40.4,1.9,42.1,1.9,44s1.1,3.6,2.8,4.5L9,50.6V54
	c0,1.7-1.3,3-3,3H2c-0.6,0-1,0.4-1,1s0.4,1,1,1h4c2.8,0,5-2.2,5-5v-4c0-0.4-0.2-0.7-0.6-0.9l-4.8-2.4c-1-0.5-1.7-1.5-1.7-2.7
	s0.6-2.2,1.7-2.7l4.8-2.4c0.3-0.2,0.6-0.5,0.6-0.9v-3.3l6.6-2.6c0.9-0.4,1.6-1.2,1.8-2.2C19.6,28.9,19.3,27.9,18.6,27.1z"/>
<path d="M56,11H34c-3.9,0-7,3.1-7,7v17.6l-7.8,9.7c-0.2,0.3-0.3,0.7-0.1,1.1c0.2,0.3,0.5,0.6,0.9,0.6h36c3.9,0,7-3.1,7-7V18
	C63,14.1,59.9,11,56,11z M61,40c0,2.8-2.2,5-5,5H22.1l6.7-8.4c0.1-0.2,0.2-0.4,0.2-0.6V18c0-2.8,2.2-5,5-5h22c2.8,0,5,2.2,5,5V40z"
	/>
<path d="M52,23H38c-0.6,0-1,0.4-1,1s0.4,1,1,1h14c0.6,0,1-0.4,1-1S52.6,23,52,23z"/>
<path d="M52,33H38c-0.6,0-1,0.4-1,1s0.4,1,1,1h14c0.6,0,1-0.4,1-1S52.6,33,52,33z"/>
</svg>
