<?xml version="1.0" encoding="utf-8"?>
<!-- Generator: Adobe Illustrator 19.1.0, SVG Export Plug-In . SVG Version: 6.00 Build 0)  -->
<!DOCTYPE svg PUBLIC "-//W3C//DTD SVG 1.1//EN" "http://www.w3.org/Graphics/SVG/1.1/DTD/svg11.dtd">
<svg version="1.1" id="Layer_1" xmlns="http://www.w3.org/2000/svg" xmlns:xlink="http://www.w3.org/1999/xlink" x="0px" y="0px"
	 width="64px" height="64px" viewBox="0 0 64 64" enable-background="new 0 0 64 64" xml:space="preserve">
<path d="M6,21h4c0.3,0,0.5-0.1,0.7-0.3l5.7-5.7H27v32.6l-5.7,5.7C21.1,53.5,21,53.7,21,54v4c0,0.6,0.4,1,1,1h20c0.6,0,1-0.4,1-1v-4
	c0-0.3-0.1-0.5-0.3-0.7L37,47.6V15h10.6l5.7,5.7c0.2,0.2,0.4,0.3,0.7,0.3h4c0.6,0,1-0.4,1-1V6c0-0.6-0.4-1-1-1H6C5.4,5,5,5.4,5,6v14
	C5,20.6,5.4,21,6,21z M7,7h50v12h-2.6l-5.7-5.7C48.5,13.1,48.3,13,48,13H36c-0.6,0-1,0.4-1,1v34c0,0.3,0.1,0.5,0.3,0.7l5.7,5.7V57
	H23v-2.6l5.7-5.7c0.2-0.2,0.3-0.4,0.3-0.7V14c0-0.6-0.4-1-1-1H16c-0.3,0-0.5,0.1-0.7,0.3L9.6,19H7V7z"/>
</svg>
