<?xml version="1.0" encoding="utf-8"?>
<!-- Generator: Adobe Illustrator 19.1.0, SVG Export Plug-In . SVG Version: 6.00 Build 0)  -->
<!DOCTYPE svg PUBLIC "-//W3C//DTD SVG 1.1//EN" "http://www.w3.org/Graphics/SVG/1.1/DTD/svg11.dtd">
<svg version="1.1" id="Layer_1" xmlns="http://www.w3.org/2000/svg" xmlns:xlink="http://www.w3.org/1999/xlink" x="0px" y="0px"
	 width="64px" height="64px" viewBox="0 0 64 64" enable-background="new 0 0 64 64" xml:space="preserve">
<path d="M9.3,55.2c-1,1.6-1.1,3.5-0.2,5.1C10,62,11.6,63,13.5,63h37.1c1.9,0,3.5-1,4.4-2.6c0.9-1.7,0.8-3.6-0.2-5.1L39,31.7V11h5
	c0.6,0,1-0.4,1-1V2c0-0.6-0.4-1-1-1H20c-0.6,0-1,0.4-1,1v8c0,0.6,0.4,1,1,1h5v20.7L9.3,55.2z M53.2,59.4c-0.5,1-1.5,1.6-2.6,1.6
	H13.5c-1.1,0-2.1-0.6-2.6-1.6c-0.5-1-0.5-2.1,0.1-3.1L21.2,41h21.6L53,56.3C53.6,57.3,53.7,58.4,53.2,59.4z M26,9h-5V3h22v6h-5
	c-0.6,0-1,0.4-1,1v22c0,0.2,0.1,0.4,0.2,0.6l4.3,6.4H22.5l4.3-6.4c0.1-0.2,0.2-0.4,0.2-0.6V10C27,9.4,26.6,9,26,9z"/>
</svg>
