<?xml version="1.0" encoding="utf-8"?>
<!-- Generator: Adobe Illustrator 19.1.0, SVG Export Plug-In . SVG Version: 6.00 Build 0)  -->
<!DOCTYPE svg PUBLIC "-//W3C//DTD SVG 1.1//EN" "http://www.w3.org/Graphics/SVG/1.1/DTD/svg11.dtd">
<svg version="1.1" id="Layer_1" xmlns="http://www.w3.org/2000/svg" xmlns:xlink="http://www.w3.org/1999/xlink" x="0px" y="0px"
	 width="64px" height="64px" viewBox="0 0 64 64" enable-background="new 0 0 64 64" xml:space="preserve">
<path d="M62,13h-5V6c0-0.3-0.1-0.6-0.4-0.8C56.4,5,56.1,5,55.8,5L32,11L8.2,5C7.9,5,7.6,5,7.4,5.2S7,5.7,7,6v7H2c-0.6,0-1,0.4-1,1
	v44c0,0.6,0.4,1,1,1h60c0.6,0,1-0.4,1-1V14C63,13.4,62.6,13,62,13z M55,43.2l-22,5.5V12.8l22-5.5V43.2z M9,7.3l22,5.5v35.9L9,43.2
	V7.3z M61,57H3V15h4v29c0,0.5,0.3,0.9,0.8,1l24,6c0.1,0,0.2,0,0.2,0s0.2,0,0.2,0l24-6c0.4-0.1,0.8-0.5,0.8-1V15h4V57z"/>
</svg>
