<?xml version="1.0" encoding="utf-8"?>
<!-- Generator: Adobe Illustrator 19.1.0, SVG Export Plug-In . SVG Version: 6.00 Build 0)  -->
<!DOCTYPE svg PUBLIC "-//W3C//DTD SVG 1.1//EN" "http://www.w3.org/Graphics/SVG/1.1/DTD/svg11.dtd">
<svg version="1.1" id="Layer_1" xmlns="http://www.w3.org/2000/svg" xmlns:xlink="http://www.w3.org/1999/xlink" x="0px" y="0px"
	 width="64px" height="64px" viewBox="0 0 64 64" enable-background="new 0 0 64 64" xml:space="preserve">
<path d="M59.9,19.5c0.9-0.9,1.5-2.2,1.5-3.5s-0.5-2.6-1.5-3.5l-8.3-8.3c-0.9-0.9-2.2-1.5-3.5-1.5s-2.6,0.5-3.5,1.5L5.3,43.3
	c-0.1,0.1-0.2,0.2-0.2,0.3c0,0,0,0.1,0,0.1c0,0.1,0,0.1,0,0.2l-2,16c0,0.3,0.1,0.6,0.3,0.8C3.5,60.9,3.7,61,4,61c0,0,0.1,0,0.1,0
	l16-2c0.1,0,0.1,0,0.2,0c0,0,0.1,0,0.1,0c0.1,0,0.2-0.1,0.3-0.2L59.9,19.5z M20,56.6L14.4,51L43,22.4l5.6,5.6L20,56.6z M36,15.4
	l5.6,5.6L13,49.6L7.4,44L36,15.4z M37.4,14L42,9.4L54.6,22L50,26.6L37.4,14z M45.9,5.5c1.1-1.1,3.1-1.1,4.2,0l8.3,8.3
	c0.6,0.6,0.9,1.3,0.9,2.1s-0.3,1.6-0.9,2.1L56,20.6L43.4,8L45.9,5.5z M6.7,46.2l11.1,11.1L5.2,58.8L6.7,46.2z"/>
</svg>
