<?xml version="1.0" encoding="utf-8"?>
<!-- Generator: Adobe Illustrator 19.1.0, SVG Export Plug-In . SVG Version: 6.00 Build 0)  -->
<!DOCTYPE svg PUBLIC "-//W3C//DTD SVG 1.1//EN" "http://www.w3.org/Graphics/SVG/1.1/DTD/svg11.dtd">
<svg version="1.1" id="Layer_1" xmlns="http://www.w3.org/2000/svg" xmlns:xlink="http://www.w3.org/1999/xlink" x="0px" y="0px"
	 width="16px" height="16px" viewBox="0 0 16 16" enable-background="new 0 0 16 16" xml:space="preserve">
<path fill="#444444" d="M2.1,13l9-1c0.4,0,0.7-0.3,0.8-0.7l1.8-5.2c0.1-0.4,0-0.8-0.2-1L8.9,0.5c-0.3-0.3-0.7-0.4-1-0.2L2.7,2.1
	C2.3,2.2,2,2.5,2,2.9l-1,9C1,12.6,1.4,13.1,2.1,13z M3.9,3.7l4-1.4l3.7,3.7l-1.4,4l-7.1,0.8L3.9,3.7z"/>
<rect data-color="color-2" y="14" fill="#444444" width="16" height="2"/>
<circle data-color="color-2" fill="#444444" cx="6" cy="8" r="1"/>
</svg>
