<?xml version="1.0" encoding="utf-8"?>
<!-- Generator: Adobe Illustrator 19.1.0, SVG Export Plug-In . SVG Version: 6.00 Build 0)  -->
<!DOCTYPE svg PUBLIC "-//W3C//DTD SVG 1.1//EN" "http://www.w3.org/Graphics/SVG/1.1/DTD/svg11.dtd">
<svg version="1.1" id="Layer_1" xmlns="http://www.w3.org/2000/svg" xmlns:xlink="http://www.w3.org/1999/xlink" x="0px" y="0px"
	 width="16px" height="16px" viewBox="0 0 16 16" enable-background="new 0 0 16 16" xml:space="preserve">
<path fill="#444444" d="M11.5,7C9,7,7,9,7,11.5S9,16,11.5,16s4.5-2,4.5-4.5S14,7,11.5,7z M11.5,14C10.1,14,9,12.9,9,11.5
	S10.1,9,11.5,9s2.5,1.1,2.5,2.5S12.9,14,11.5,14z"/>
<path fill="#444444" d="M9,4.5C9,2,7,0,4.5,0S0,2,0,4.5S2,9,4.5,9S9,7,9,4.5z M4.5,7C3.1,7,2,5.9,2,4.5S3.1,2,4.5,2S7,3.1,7,4.5
	S5.9,7,4.5,7z"/>
<rect data-color="color-2" x="3" y="4" fill="#444444" width="3" height="1"/>
<rect data-color="color-2" x="10" y="11" fill="#444444" width="3" height="1"/>
</svg>
