<?xml version="1.0" encoding="utf-8"?>
<!-- Generator: Adobe Illustrator 19.1.0, SVG Export Plug-In . SVG Version: 6.00 Build 0)  -->
<!DOCTYPE svg PUBLIC "-//W3C//DTD SVG 1.1//EN" "http://www.w3.org/Graphics/SVG/1.1/DTD/svg11.dtd">
<svg version="1.1" id="Layer_1" xmlns="http://www.w3.org/2000/svg" xmlns:xlink="http://www.w3.org/1999/xlink" x="0px" y="0px"
	 width="16px" height="16px" viewBox="0 0 16 16" enable-background="new 0 0 16 16" xml:space="preserve">
<path fill="#444444" d="M8,0C3.6,0,0,3.6,0,8s3.6,8,8,8s8-3.6,8-8S12.4,0,8,0z M13.9,7h-2.1C11.5,5.6,10.4,4.5,9,4.1V2.1
	C11.5,2.5,13.5,4.5,13.9,7z M6,8c0-1.1,0.9-2,2-2s2,0.9,2,2s-0.9,2-2,2S6,9.1,6,8z M7,2.1v2.1C5.3,4.6,4,6.1,4,8
	c0,0.7,0.2,1.3,0.5,1.9L3,11.3C2.4,10.3,2,9.2,2,8C2,5,4.2,2.6,7,2.1z M8,14c-1.4,0-2.6-0.5-3.6-1.2l1.5-1.4C6.5,11.8,7.2,12,8,12
	c1.9,0,3.4-1.3,3.9-3h2.1C13.4,11.8,11,14,8,14z"/>
</svg>
