<?xml version="1.0" encoding="utf-8"?>
<!-- Generator: Adobe Illustrator 19.1.0, SVG Export Plug-In . SVG Version: 6.00 Build 0)  -->
<!DOCTYPE svg PUBLIC "-//W3C//DTD SVG 1.1//EN" "http://www.w3.org/Graphics/SVG/1.1/DTD/svg11.dtd">
<svg version="1.1" id="Layer_1" xmlns="http://www.w3.org/2000/svg" xmlns:xlink="http://www.w3.org/1999/xlink" x="0px" y="0px"
	 width="16px" height="16px" viewBox="0 0 16 16" enable-background="new 0 0 16 16" xml:space="preserve">
<path fill="#444444" d="M9,7.2V4.1c0.6,0.2,1,0.8,1,1.4c0,0.6,0.4,1,1,1s1-0.4,1-1c0-1.8-1.3-3.2-3-3.4V1c0-0.6-0.4-1-1-1S7,0.4,7,1
	v1.1C5.3,2.3,4,3.7,4,5.5c0,2.1,1.6,2.9,3,3.3v3.1c-0.6-0.2-1-0.8-1-1.4c0-0.6-0.4-1-1-1s-1,0.4-1,1c0,1.8,1.3,3.2,3,3.4V15
	c0,0.6,0.4,1,1,1s1-0.4,1-1v-1.1c1.7-0.2,3-1.7,3-3.4C12,8.4,10.4,7.6,9,7.2z M6,5.5c0-0.7,0.4-1.2,1-1.4v2.6C6.3,6.4,6,6.1,6,5.5z
	 M9,11.9V9.3c0.7,0.3,1,0.6,1,1.2C10,11.2,9.6,11.7,9,11.9z"/>
</svg>
