<?xml version="1.0" encoding="utf-8"?>
<!-- Generator: Adobe Illustrator 19.1.0, SVG Export Plug-In . SVG Version: 6.00 Build 0)  -->
<!DOCTYPE svg PUBLIC "-//W3C//DTD SVG 1.1//EN" "http://www.w3.org/Graphics/SVG/1.1/DTD/svg11.dtd">
<svg version="1.1" id="Layer_1" xmlns="http://www.w3.org/2000/svg" xmlns:xlink="http://www.w3.org/1999/xlink" x="0px" y="0px"
	 width="16px" height="16px" viewBox="0 0 16 16" enable-background="new 0 0 16 16" xml:space="preserve">
<path fill="#444444" d="M8,0L3,6h3v9c0,0.6,0.4,1,1,1h2c0.6,0,1-0.4,1-1V6h3L8,0z"/>
<path data-color="color-2" fill="#444444" d="M3,11H1c-0.6,0-1,0.4-1,1v3c0,0.6,0.4,1,1,1h2c0.6,0,1-0.4,1-1v-3C4,11.4,3.6,11,3,11z"/>
<path data-color="color-2" fill="#444444" d="M15,8h-2c-0.6,0-1,0.4-1,1v6c0,0.6,0.4,1,1,1h2c0.6,0,1-0.4,1-1V9C16,8.4,15.6,8,15,8z"/>
</svg>
