<?xml version="1.0" encoding="utf-8"?>
<!-- Generator: Adobe Illustrator 19.1.0, SVG Export Plug-In . SVG Version: 6.00 Build 0)  -->
<!DOCTYPE svg PUBLIC "-//W3C//DTD SVG 1.1//EN" "http://www.w3.org/Graphics/SVG/1.1/DTD/svg11.dtd">
<svg version="1.1" id="Layer_1" xmlns="http://www.w3.org/2000/svg" xmlns:xlink="http://www.w3.org/1999/xlink" x="0px" y="0px"
	 width="16px" height="16px" viewBox="0 0 16 16" enable-background="new 0 0 16 16" xml:space="preserve">
<path fill="#444444" d="M9,0H7C6.4,0,6,0.4,6,1v14c0,0.6,0.4,1,1,1h2c0.6,0,1-0.4,1-1V1C10,0.4,9.6,0,9,0z"/>
<path data-color="color-2" fill="#444444" d="M3,10H1c-0.6,0-1,0.4-1,1v4c0,0.6,0.4,1,1,1h2c0.6,0,1-0.4,1-1v-4C4,10.4,3.6,10,3,10z"/>
<path data-color="color-2" fill="#444444" d="M15,5h-2c-0.6,0-1,0.4-1,1v9c0,0.6,0.4,1,1,1h2c0.6,0,1-0.4,1-1V6C16,5.4,15.6,5,15,5z"/>
</svg>
