<?xml version="1.0" encoding="utf-8"?>
<!-- Generator: Adobe Illustrator 19.1.0, SVG Export Plug-In . SVG Version: 6.00 Build 0)  -->
<!DOCTYPE svg PUBLIC "-//W3C//DTD SVG 1.1//EN" "http://www.w3.org/Graphics/SVG/1.1/DTD/svg11.dtd">
<svg version="1.1" id="Layer_1" xmlns="http://www.w3.org/2000/svg" xmlns:xlink="http://www.w3.org/1999/xlink" x="0px" y="0px"
	 width="16px" height="16px" viewBox="0 0 16 16" enable-background="new 0 0 16 16" xml:space="preserve">
<path fill="#444444" d="M15,9h-2V3c0-0.6-0.4-1-1-1H9V0H7v2H4C3.4,2,3,2.4,3,3v6H1c-0.6,0-1,0.4-1,1v5c0,0.6,0.4,1,1,1h14
	c0.6,0,1-0.4,1-1v-5C16,9.4,15.6,9,15,9z M5,10V4h6v6v4H9v-3H7v3H5V10z"/>
<rect data-color="color-2" x="7" y="6" fill="#444444" width="2" height="2"/>
</svg>
