<?xml version="1.0" encoding="utf-8"?>
<!-- Generator: Adobe Illustrator 19.1.0, SVG Export Plug-In . SVG Version: 6.00 Build 0)  -->
<!DOCTYPE svg PUBLIC "-//W3C//DTD SVG 1.1//EN" "http://www.w3.org/Graphics/SVG/1.1/DTD/svg11.dtd">
<svg version="1.1" id="Layer_1" xmlns="http://www.w3.org/2000/svg" xmlns:xlink="http://www.w3.org/1999/xlink" x="0px" y="0px"
	 width="16px" height="16px" viewBox="0 0 16 16" enable-background="new 0 0 16 16" xml:space="preserve">
<path fill="#444444" d="M15,6h-3v2h2v6H2V8h1V6H1C0.4,6,0,6.4,0,7v8c0,0.6,0.4,1,1,1h14c0.6,0,1-0.4,1-1V7C16,6.4,15.6,6,15,6z"/>
<path data-color="color-2" fill="#444444" d="M5,8h2c0.3,0,0.5-0.1,0.7-0.3l5-5c0.4-0.4,0.4-1,0-1.4l-1-1c-0.4-0.4-1-0.4-1.4,0l-5,5
	C5.1,5.5,5,5.7,5,6V8z"/>
<rect data-color="color-2" x="4" y="10" fill="#444444" width="8" height="2"/>
</svg>
