<?xml version="1.0" encoding="utf-8"?>
<!-- Generator: Adobe Illustrator 19.1.0, SVG Export Plug-In . SVG Version: 6.00 Build 0)  -->
<!DOCTYPE svg PUBLIC "-//W3C//DTD SVG 1.1//EN" "http://www.w3.org/Graphics/SVG/1.1/DTD/svg11.dtd">
<svg version="1.1" id="Layer_1" xmlns="http://www.w3.org/2000/svg" xmlns:xlink="http://www.w3.org/1999/xlink" x="0px" y="0px"
	 width="16px" height="16px" viewBox="0 0 16 16" enable-background="new 0 0 16 16" xml:space="preserve">
<path fill="#444444" d="M12.9,10.7l-1.9-5.6l1.8-3.6C13.1,1,13,0,12,0H4C3,0,2.9,1,3.1,1.4l1.8,3.6l-1.9,5.6c-0.1,0.4,0,0.8,0.2,1
	l4,4C7.5,15.9,7.7,16,8,16s0.5-0.1,0.7-0.3l4-4C13,11.4,13.1,11,12.9,10.7z M10.4,2l-1,2H6.6l-1-2H10.4z M8,13.6l-2.9-2.9L6.7,6h2.6
	l1.6,4.7L8,13.6z"/>
</svg>
