<?xml version="1.0" encoding="utf-8"?>
<!-- Generator: Adobe Illustrator 19.1.0, SVG Export Plug-In . SVG Version: 6.00 Build 0)  -->
<!DOCTYPE svg PUBLIC "-//W3C//DTD SVG 1.1//EN" "http://www.w3.org/Graphics/SVG/1.1/DTD/svg11.dtd">
<svg version="1.1" id="Layer_1" xmlns="http://www.w3.org/2000/svg" xmlns:xlink="http://www.w3.org/1999/xlink" x="0px" y="0px"
	 width="16px" height="16px" viewBox="0 0 16 16" enable-background="new 0 0 16 16" xml:space="preserve">
<path fill="#444444" d="M12,10H9V9h3c0.6,0,1-0.4,1-1s-0.4-1-1-1H9.3l3.5-4.4c0.3-0.4,0.3-1.1-0.2-1.4c-0.4-0.3-1.1-0.3-1.4,0.2
	L8,5.4l-3.2-4c-0.3-0.4-1-0.5-1.4-0.2c-0.4,0.3-0.5,1-0.2,1.4L6.7,7H4C3.4,7,3,7.4,3,8s0.4,1,1,1h3v1H4c-0.6,0-1,0.4-1,1s0.4,1,1,1
	h3v2c0,0.6,0.4,1,1,1s1-0.4,1-1v-2h3c0.6,0,1-0.4,1-1S12.6,10,12,10z"/>
</svg>
