<?xml version="1.0" encoding="utf-8"?>
<!-- Generator: Adobe Illustrator 19.1.0, SVG Export Plug-In . SVG Version: 6.00 Build 0)  -->
<!DOCTYPE svg PUBLIC "-//W3C//DTD SVG 1.1//EN" "http://www.w3.org/Graphics/SVG/1.1/DTD/svg11.dtd">
<svg version="1.1" id="Layer_1" xmlns="http://www.w3.org/2000/svg" xmlns:xlink="http://www.w3.org/1999/xlink" x="0px" y="0px"
	 width="16px" height="16px" viewBox="0 0 16 16" enable-background="new 0 0 16 16" xml:space="preserve">
<path data-color="color-2" fill="#444444" d="M15,13h-5c0,0.6-0.4,1-1,1H7c-0.6,0-1-0.4-1-1H1v2c0,0.6,0.4,1,1,1h12c0.6,0,1-0.4,1-1V13z"
	/>
<path fill="#444444" d="M15,4h-3V1c0-0.6-0.4-1-1-1H5C4.4,0,4,0.4,4,1v3H1C0.4,4,0,4.4,0,5v6c0,0.6,0.4,1,1,1h5v-1c0-0.6,0.4-1,1-1
	h2c0.6,0,1,0.4,1,1v1h5c0.6,0,1-0.4,1-1V5C16,4.4,15.6,4,15,4z M10,4H6V2h4V4z"/>
</svg>
