<?xml version="1.0" encoding="utf-8"?>
<!-- Generator: Adobe Illustrator 19.1.0, SVG Export Plug-In . SVG Version: 6.00 Build 0)  -->
<!DOCTYPE svg PUBLIC "-//W3C//DTD SVG 1.1//EN" "http://www.w3.org/Graphics/SVG/1.1/DTD/svg11.dtd">
<svg version="1.1" id="Layer_1" xmlns="http://www.w3.org/2000/svg" xmlns:xlink="http://www.w3.org/1999/xlink" x="0px" y="0px"
	 width="16px" height="16px" viewBox="0 0 16 16" enable-background="new 0 0 16 16" xml:space="preserve">
<path fill="#444444" d="M15.7,5.7l-5.4-5.4c-0.4-0.4-1-0.4-1.4,0s-0.4,1,0,1.4l0.6,0.6L2.7,6l-1-1c-0.4-0.4-1-0.4-1.4,0
	s-0.4,1,0,1.4l1.5,1.5c0,0,0,0,0,0l2.4,2.4L0.6,14L2,15.4l3.7-3.7l4,4c0.5,0.5,1.2,0.2,1.4,0c0.4-0.4,0.4-1,0-1.4l-1-1l3.7-6.7
	l0.6,0.6c0.6,0.6,1.2,0.2,1.4,0C16.1,6.8,16.1,6.1,15.7,5.7z M8.5,11.8L4.2,7.5l6.7-3.7l1.3,1.3L8.5,11.8z"/>
</svg>
