<?xml version="1.0" encoding="utf-8"?>
<!-- Generator: Adobe Illustrator 19.1.0, SVG Export Plug-In . SVG Version: 6.00 Build 0)  -->
<!DOCTYPE svg PUBLIC "-//W3C//DTD SVG 1.1//EN" "http://www.w3.org/Graphics/SVG/1.1/DTD/svg11.dtd">
<svg version="1.1" id="Layer_1" xmlns="http://www.w3.org/2000/svg" xmlns:xlink="http://www.w3.org/1999/xlink" x="0px" y="0px"
	 width="16px" height="16px" viewBox="0 0 16 16" enable-background="new 0 0 16 16" xml:space="preserve">
<path fill="#444444" d="M8,6c2.9,0,6-0.9,6-3s-3.1-3-6-3S2,0.9,2,3S5.1,6,8,6z"/>
<path data-color="color-2" fill="#444444" d="M2,6.5V8c0,2.1,3.1,3,6,3s6-0.9,6-3V6.5C12.6,7.4,10.5,8,8,8S3.4,7.4,2,6.5z"/>
<path data-color="color-2" fill="#444444" d="M2,11.5V13c0,2.1,3.1,3,6,3s6-0.9,6-3v-1.5c-1.4,1-3.5,1.5-6,1.5S3.4,12.4,2,11.5z"/>
</svg>
