<?xml version="1.0" encoding="utf-8"?>
<!-- Generator: Adobe Illustrator 19.1.0, SVG Export Plug-In . SVG Version: 6.00 Build 0)  -->
<!DOCTYPE svg PUBLIC "-//W3C//DTD SVG 1.1//EN" "http://www.w3.org/Graphics/SVG/1.1/DTD/svg11.dtd">
<svg version="1.1" id="Layer_1" xmlns="http://www.w3.org/2000/svg" xmlns:xlink="http://www.w3.org/1999/xlink" x="0px" y="0px"
	 width="16px" height="16px" viewBox="0 0 16 16" enable-background="new 0 0 16 16" xml:space="preserve">
<path data-color="color-2" fill="#444444" d="M10,0H1.5C0.7,0,0,0.7,0,1.5v0C0,2.3,0.7,3,1.5,3H10V0z"/>
<path fill="#444444" d="M15,5H0v9c0,1.1,0.9,2,2,2h13c0.6,0,1-0.4,1-1V6C16,5.4,15.6,5,15,5z M12.5,12c-0.8,0-1.5-0.7-1.5-1.5
	S11.7,9,12.5,9S14,9.7,14,10.5S13.3,12,12.5,12z"/>
</svg>
