<?xml version="1.0" encoding="utf-8"?>
<!-- Generator: Adobe Illustrator 19.1.0, SVG Export Plug-In . SVG Version: 6.00 Build 0)  -->
<!DOCTYPE svg PUBLIC "-//W3C//DTD SVG 1.1//EN" "http://www.w3.org/Graphics/SVG/1.1/DTD/svg11.dtd">
<svg version="1.1" id="Layer_1" xmlns="http://www.w3.org/2000/svg" xmlns:xlink="http://www.w3.org/1999/xlink" x="0px" y="0px"
	 width="16px" height="16px" viewBox="0 0 16 16" enable-background="new 0 0 16 16" xml:space="preserve">
<path fill="#444444" d="M8,0C3.6,0,0,3.6,0,8s3.6,8,8,8s8-3.6,8-8S12.4,0,8,0z M13.9,7H9V2.1C11.5,2.5,13.5,4.5,13.9,7z M7,2.1v5.5
	l-4,3.7C2.4,10.3,2,9.2,2,8C2,5,4.2,2.6,7,2.1z M8,14c-1.4,0-2.6-0.5-3.6-1.2l4-3.8h5.5C13.4,11.8,11,14,8,14z"/>
</svg>
