<?xml version="1.0" encoding="utf-8"?>
<!-- Generator: Adobe Illustrator 19.1.0, SVG Export Plug-In . SVG Version: 6.00 Build 0)  -->
<!DOCTYPE svg PUBLIC "-//W3C//DTD SVG 1.1//EN" "http://www.w3.org/Graphics/SVG/1.1/DTD/svg11.dtd">
<svg version="1.1" id="Layer_1" xmlns="http://www.w3.org/2000/svg" xmlns:xlink="http://www.w3.org/1999/xlink" x="0px" y="0px"
	 width="16px" height="16px" viewBox="0 0 16 16" enable-background="new 0 0 16 16" xml:space="preserve">
<path fill="#444444" d="M6,10V2c0-0.6-0.4-1-1-1H1C0.4,1,0,1.4,0,2v8H6z M2,3h2v4H2V3z"/>
<path data-color="color-2" fill="#444444" d="M0,12v2c0,0.6,0.4,1,1,1h4c0.6,0,1-0.4,1-1v-2H0z"/>
<path data-color="color-2" fill="#444444" d="M15.2,10.6l-5.7,1.9l0.6,1.9c0.1,0.4,0.5,0.8,1.3,0.6l3.8-1.3c0.5-0.2,0.8-0.7,0.6-1.3
	L15.2,10.6z"/>
<path fill="#444444" d="M14.5,8.7L12,1.1c-0.2-0.5-0.7-0.8-1.3-0.6L6.9,1.7C6.7,1.8,6,2.1,6.3,3l2.6,7.6L14.5,8.7z M10.4,2.7
	l1.3,3.8L9.8,7.1L8.5,3.3L10.4,2.7z"/>
</svg>
