<?xml version="1.0" encoding="utf-8"?>
<!-- Generator: Adobe Illustrator 19.1.0, SVG Export Plug-In . SVG Version: 6.00 Build 0)  -->
<!DOCTYPE svg PUBLIC "-//W3C//DTD SVG 1.1//EN" "http://www.w3.org/Graphics/SVG/1.1/DTD/svg11.dtd">
<svg version="1.1" id="Layer_1" xmlns="http://www.w3.org/2000/svg" xmlns:xlink="http://www.w3.org/1999/xlink" x="0px" y="0px"
	 width="16px" height="16px" viewBox="0 0 16 16" enable-background="new 0 0 16 16" xml:space="preserve">
<polygon data-color="color-2" fill="#444444" points="15,14 15,8 13,8 13,14 11,14 11,8 9,8 9,14 7,14 7,8 5,8 5,14 3,14 3,8 1,8 1,14 
	0,14 0,16 16,16 16,14 "/>
<path fill="#444444" d="M15.4,3.1l-7-3C8.1,0,7.9,0,7.6,0.1l-7,3C0.2,3.2,0,3.6,0,4v2c0,0.6,0.4,1,1,1h14c0.6,0,1-0.4,1-1V4
	C16,3.6,15.8,3.2,15.4,3.1z M8,5C7.4,5,7,4.6,7,4c0-0.6,0.4-1,1-1c0.6,0,1,0.4,1,1C9,4.6,8.6,5,8,5z"/>
</svg>
