<?xml version="1.0" encoding="utf-8"?>
<!-- Generator: Adobe Illustrator 20.0.0, SVG Export Plug-In . SVG Version: 6.00 Build 0)  -->
<!DOCTYPE svg PUBLIC "-//W3C//DTD SVG 1.1//EN" "http://www.w3.org/Graphics/SVG/1.1/DTD/svg11.dtd">
<svg version="1.1" id="Layer_1" xmlns="http://www.w3.org/2000/svg" xmlns:xlink="http://www.w3.org/1999/xlink" x="0px" y="0px"
	 width="32px" height="32px" viewBox="0 0 32 32" enable-background="new 0 0 32 32" xml:space="preserve">
<path d="M12,0L8,3L3,0v31c0,0.552,0.448,1,1,1h24c0.552,0,1-0.448,1-1V0l-5,3l-4-3l-4,3L12,0z M12,26H8v-2h4V26z M10,20.414
	L7.586,18L9,16.586l1,1l3-3L14.414,16L10,20.414z M10,13.414L7.586,11L9,9.586l1,1l3-3L14.414,9L10,13.414z M25,26h-9v-2h9V26z
	 M25,19h-9v-2h9V19z M25,10v2h-9v-2H25z"/>
</svg>
