<?xml version="1.0" encoding="utf-8"?>
<!-- Generator: Adobe Illustrator 20.0.0, SVG Export Plug-In . SVG Version: 6.00 Build 0)  -->
<!DOCTYPE svg PUBLIC "-//W3C//DTD SVG 1.1//EN" "http://www.w3.org/Graphics/SVG/1.1/DTD/svg11.dtd">
<svg version="1.1" id="layer" xmlns="http://www.w3.org/2000/svg" xmlns:xlink="http://www.w3.org/1999/xlink" x="0px" y="0px"
	 width="32px" height="32px" viewBox="0 0 32 32" enable-background="new 0 0 32 32" xml:space="preserve">
<path fill="#1D1D1B" d="M29,18c0.553,0,1-0.447,1-1V1c0-0.553-0.447-1-1-1H11c-0.553,0-1,0.447-1,1v16c0,0.553,0.447,1,1,1H29z
	 M17,5h6v2h-6V5z"/>
<circle fill="#1D1D1B" cx="10" cy="28" r="3"/>
<path fill="#1D1D1B" d="M5.99,0.858C5.92,0.366,5.498,0,5,0H0v2h4.133L7.01,22.142C7.08,22.634,7.502,23,8,23h16.35l3.736,8.406
	l1.828-0.812L26.539,23H32v-2H8.867L5.99,0.858z"/>
</svg>
