<?xml version="1.0" encoding="utf-8"?>
<!-- Generator: Adobe Illustrator 20.0.0, SVG Export Plug-In . SVG Version: 6.00 Build 0)  -->
<!DOCTYPE svg PUBLIC "-//W3C//DTD SVG 1.1//EN" "http://www.w3.org/Graphics/SVG/1.1/DTD/svg11.dtd">
<svg version="1.1" id="Layer_1" xmlns="http://www.w3.org/2000/svg" xmlns:xlink="http://www.w3.org/1999/xlink" x="0px" y="0px"
	 width="32px" height="32px" viewBox="0 0 32 32" enable-background="new 0 0 32 32" xml:space="preserve">
<path d="M2,32h16c1.105,0,2-0.895,2-2V17h-9c-1.105,0-2-0.895-2-2V2H2C0.895,2,0,2.895,0,4v26C0,31.105,0.895,32,2,32z M10,24
	c1.105,0,2,0.895,2,2c0,1.105-0.895,2-2,2s-2-0.895-2-2C8,24.895,8.895,24,10,24z"/>
<path d="M31,0H12c-0.552,0-1,0.448-1,1v13c0,0.552,0.448,1,1,1h19c0.552,0,1-0.448,1-1V1C32,0.448,31.552,0,31,0z M30,13H13V7h17V13
	z M30,4H13V2h17V4z"/>
<rect x="15" y="9" width="5" height="2"/>
<rect x="26" y="9" width="2" height="2"/>
</svg>
