<?xml version="1.0" encoding="utf-8"?>
<!-- Generator: Adobe Illustrator 20.0.0, SVG Export Plug-In . SVG Version: 6.00 Build 0)  -->
<!DOCTYPE svg PUBLIC "-//W3C//DTD SVG 1.1//EN" "http://www.w3.org/Graphics/SVG/1.1/DTD/svg11.dtd">
<svg version="1.1" id="Layer_1" xmlns="http://www.w3.org/2000/svg" xmlns:xlink="http://www.w3.org/1999/xlink" x="0px" y="0px"
	 width="32px" height="32px" viewBox="0 0 32 32" enable-background="new 0 0 32 32" xml:space="preserve">
<path d="M29,31V0l-5,3l-4-3l-4,3l-4-3L8,3L3,0v31c0,0.552,0.448,1,1,1h24C28.552,32,29,31.552,29,31z M20,16.5h-2v-1
	c0-0.841-0.659-1.5-1.5-1.5h-1c-0.841,0-1.5,0.659-1.5,1.5c0,0.842,0.505,1.096,2.243,1.53C17.739,17.404,20,17.969,20,20.5
	c0,1.791-1.285,3.213-3,3.451V26h-2v-2.049c-1.715-0.238-3-1.66-3-3.451v-1h2v1c0,0.841,0.659,1.5,1.5,1.5h1
	c0.841,0,1.5-0.659,1.5-1.5c0-0.842-0.505-1.096-2.243-1.53C14.261,18.596,12,18.031,12,15.5c0-1.791,1.285-3.213,3-3.451V10h2
	v2.049c1.715,0.238,3,1.66,3,3.451V16.5z"/>
</svg>
