<?xml version="1.0" encoding="utf-8"?>
<!-- Generator: Adobe Illustrator 20.0.0, SVG Export Plug-In . SVG Version: 6.00 Build 0)  -->
<!DOCTYPE svg PUBLIC "-//W3C//DTD SVG 1.1//EN" "http://www.w3.org/Graphics/SVG/1.1/DTD/svg11.dtd">
<svg version="1.1" id="layer" xmlns="http://www.w3.org/2000/svg" xmlns:xlink="http://www.w3.org/1999/xlink" x="0px" y="0px"
	 width="32px" height="32px" viewBox="0 0 32 32" enable-background="new 0 0 32 32" xml:space="preserve">
<path fill="#1D1D1B" d="M17,22.758l4,4l4-4V11c0-0.266-0.105-0.52-0.293-0.707l-10-10c-0.391-0.391-1.023-0.391-1.414,0l-10,10
	C3.105,10.48,3,10.734,3,11v20c0,0.553,0.448,1,1,1h13.758l-5-5L17,22.758z M12,11c0-1.105,0.895-2,2-2s2,0.895,2,2
	c0,1.105-0.895,2-2,2S12,12.105,12,11z"/>
<path fill="#1D1D1B" d="M21,29.586l-4-4L15.586,27l4.707,4.707C20.488,31.902,20.744,32,21,32s0.512-0.098,0.707-0.293L30.414,23
	L29,21.586L21,29.586z"/>
</svg>
