<?xml version="1.0" encoding="utf-8"?>
<!-- Generator: Adobe Illustrator 20.0.0, SVG Export Plug-In . SVG Version: 6.00 Build 0)  -->
<!DOCTYPE svg PUBLIC "-//W3C//DTD SVG 1.1//EN" "http://www.w3.org/Graphics/SVG/1.1/DTD/svg11.dtd">
<svg version="1.1" id="Layer_1" xmlns="http://www.w3.org/2000/svg" xmlns:xlink="http://www.w3.org/1999/xlink" x="0px" y="0px"
	 width="32px" height="32px" viewBox="0 0 32 32" enable-background="new 0 0 32 32" xml:space="preserve">
<path d="M26.966,12H30v-2H2v2h3.034l-3.46,4.745C0.544,18.289,0,20.088,0,21.945C0,27.107,3.869,31,9,31h14c5.131,0,9-3.894,9-9.056
	c0-1.857-0.544-3.655-1.599-5.233L26.966,12z"/>
<path d="M8,3c0,2.062,3,5,3,5s3-2.875,3-5c0-1.657-1.343-3-3-3S8,1.343,8,3z"/>
<path d="M18,3c0,2.125,3,5,3,5s3-2.938,3-5c0-1.657-1.343-3-3-3S18,1.343,18,3z"/>
</svg>
