<?xml version="1.0" encoding="utf-8"?>
<!-- Generator: Adobe Illustrator 20.0.0, SVG Export Plug-In . SVG Version: 6.00 Build 0)  -->
<!DOCTYPE svg PUBLIC "-//W3C//DTD SVG 1.1//EN" "http://www.w3.org/Graphics/SVG/1.1/DTD/svg11.dtd">
<svg version="1.1" id="Layer_1" xmlns="http://www.w3.org/2000/svg" xmlns:xlink="http://www.w3.org/1999/xlink" x="0px" y="0px"
	 width="32px" height="32px" viewBox="0 0 32 32" enable-background="new 0 0 32 32" xml:space="preserve">
<circle cx="5" cy="29" r="3"/>
<circle cx="27" cy="29" r="3"/>
<path d="M31,22H2.767l1.8-3H24c0.414,0,0.785-0.255,0.934-0.641l5-13c0.118-0.308,0.077-0.653-0.109-0.925
	C29.638,4.162,29.329,4,29,4H4.5L1.8,0.4C1.469-0.042,0.842-0.133,0.4,0.2c-0.442,0.331-0.532,0.958-0.2,1.4L3,5.333v12.39
	l-2.857,4.762c-0.186,0.309-0.19,0.694-0.013,1.007S0.64,24,1,24h30c0.553,0,1-0.448,1-1S31.553,22,31,22z"/>
</svg>
