<?xml version="1.0" encoding="utf-8"?>
<!-- Generator: Adobe Illustrator 20.0.0, SVG Export Plug-In . SVG Version: 6.00 Build 0)  -->
<!DOCTYPE svg PUBLIC "-//W3C//DTD SVG 1.1//EN" "http://www.w3.org/Graphics/SVG/1.1/DTD/svg11.dtd">
<svg version="1.1" id="Layer_1" xmlns="http://www.w3.org/2000/svg" xmlns:xlink="http://www.w3.org/1999/xlink" x="0px" y="0px"
	 width="32px" height="32px" viewBox="0 0 32 32" enable-background="new 0 0 32 32" xml:space="preserve">
<path d="M22,7.051V4c0-0.552-0.447-1-1-1H1C0.447,3,0,3.448,0,4v5h11.101c0.25,1.226,0.96,2.278,1.93,3H0v9c0,0.552,0.447,1,1,1
	h2.142C3.506,23.399,4.601,24.494,6,24.858V25c0,2.206,1.794,4,4,4h11c6.065,0,11-4.935,11-11C32,12.272,27.598,7.558,22,7.051z
	 M4,18v-2h7v2H4z M21,27H10c-1.103,0-2-0.897-2-2h8c0.553,0,1-0.448,1-1s-0.447-1-1-1H7c-0.737,0-1.375-0.405-1.722-1H21
	c0.553,0,1-0.448,1-1v-2.81c0.938,0.509,1.965,0.81,3,0.81c0.553,0,1-0.448,1-1s-0.447-1-1-1c-2.43,0-5-2.57-5-5
	c0-0.552-0.447-1-1-1h-3c-1.304,0-2.416-0.836-2.829-2H21c4.963,0,9,4.038,9,9S25.963,27,21,27z"/>
</svg>
