<?xml version="1.0" encoding="utf-8"?>
<!-- Generator: Adobe Illustrator 20.0.0, SVG Export Plug-In . SVG Version: 6.00 Build 0)  -->
<!DOCTYPE svg PUBLIC "-//W3C//DTD SVG 1.1//EN" "http://www.w3.org/Graphics/SVG/1.1/DTD/svg11.dtd">
<svg version="1.1" id="layer" xmlns="http://www.w3.org/2000/svg" xmlns:xlink="http://www.w3.org/1999/xlink" x="0px" y="0px"
	 width="32px" height="32px" viewBox="0 0 32 32" enable-background="new 0 0 32 32" xml:space="preserve">
<path fill="#1D1D1B" d="M31,6h-9V2c0-0.552-0.448-1-1-1H11c-0.552,0-1,0.448-1,1v4H1C0.448,6,0,6.448,0,7v22c0,0.552,0.448,1,1,1h30
	c0.552,0,1-0.448,1-1V7C32,6.448,31.552,6,31,6z M12,3h8v3h-8V3z M21.53,18.848l-8,5C13.368,23.949,13.184,24,13,24
	c-0.167,0-0.333-0.042-0.485-0.125C12.197,23.698,12,23.364,12,23V13c0-0.364,0.197-0.698,0.515-0.875
	c0.318-0.177,0.707-0.167,1.015,0.026l8,5C21.822,17.335,22,17.655,22,18S21.822,18.665,21.53,18.848z"/>
</svg>
