<?xml version="1.0" encoding="utf-8"?>
<!-- Generator: Adobe Illustrator 20.0.0, SVG Export Plug-In . SVG Version: 6.00 Build 0)  -->
<!DOCTYPE svg PUBLIC "-//W3C//DTD SVG 1.1//EN" "http://www.w3.org/Graphics/SVG/1.1/DTD/svg11.dtd">
<svg version="1.1" id="layer" xmlns="http://www.w3.org/2000/svg" xmlns:xlink="http://www.w3.org/1999/xlink" x="0px" y="0px"
	 width="32px" height="32px" viewBox="0 0 32 32" enable-background="new 0 0 32 32" xml:space="preserve">
<path fill="#1D1D1B" d="M31,20H1c-0.553,0-1,0.447-1,1v10c0,0.553,0.447,1,1,1h30c0.553,0,1-0.447,1-1V21C32,20.447,31.553,20,31,20
	z M10,27H5v-2h5V27z M27,27H14v-2h13V27z"/>
<path fill="#1D1D1B" d="M1,6c0,0.553,0.447,1,1,1h3v11h22V4c0-2.206-1.794-4-4-4H5C2.794,0,1,1.794,1,4V6z M3,4c0-1.103,0.897-2,2-2
	h14.537C19.195,2.589,19,3.272,19,4v1H3V4z"/>
</svg>
