<?xml version="1.0" encoding="utf-8"?>
<!-- Generator: Adobe Illustrator 20.0.0, SVG Export Plug-In . SVG Version: 6.00 Build 0)  -->
<!DOCTYPE svg PUBLIC "-//W3C//DTD SVG 1.1//EN" "http://www.w3.org/Graphics/SVG/1.1/DTD/svg11.dtd">
<svg version="1.1" id="Layer_1" xmlns="http://www.w3.org/2000/svg" xmlns:xlink="http://www.w3.org/1999/xlink" x="0px" y="0px"
	 width="32px" height="32px" viewBox="0 0 32 32" enable-background="new 0 0 32 32" xml:space="preserve">
<path d="M6,19.414V28c0,0.552,0.448,1,1,1s1-0.448,1-1V10c-1.105,0-2-0.895-2-2c0-1.105,0.895-2,2-2s2,0.895,2,2v15.414l7.293,7.293
	C17.488,30.902,17.744,31,18,31s0.512-0.098,0.707-0.293l12-12c0.391-0.391,0.391-1.024,0-1.414l-16-16C14.519,1.105,14.265,1,14,1
	H1v13c0,0.265,0.105,0.52,0.293,0.707L6,19.414z"/>
</svg>
