<?xml version="1.0" encoding="utf-8"?>
<!-- Generator: Adobe Illustrator 20.0.0, SVG Export Plug-In . SVG Version: 6.00 Build 0)  -->
<!DOCTYPE svg PUBLIC "-//W3C//DTD SVG 1.1//EN" "http://www.w3.org/Graphics/SVG/1.1/DTD/svg11.dtd">
<svg version="1.1" id="layer" xmlns="http://www.w3.org/2000/svg" xmlns:xlink="http://www.w3.org/1999/xlink" x="0px" y="0px"
	 width="32px" height="32px" viewBox="0 0 32 32" enable-background="new 0 0 32 32" xml:space="preserve">
<path fill="#1D1D1B" d="M27,32c0.553,0,1-0.447,1-1v-2H4v2c0,0.553,0.447,1,1,1H27z"/>
<path fill="#1D1D1B" d="M31,0H1C0.447,0,0,0.447,0,1c0,2.757,2.243,5,5,5h10v3.051C8.85,9.562,4,14.72,4,21v6h24v-6
	c0-6.28-4.85-11.438-11-11.949V6h10c2.757,0,5-2.243,5-5C32,0.447,31.553,0,31,0z M20,19c0,2.209-1.791,4-4,4s-4-1.791-4-4
	c0-2.209,1.791-4,4-4S20,16.791,20,19z"/>
</svg>
