<?xml version="1.0" encoding="utf-8"?>
<!-- Generator: Adobe Illustrator 20.0.0, SVG Export Plug-In . SVG Version: 6.00 Build 0)  -->
<!DOCTYPE svg PUBLIC "-//W3C//DTD SVG 1.1//EN" "http://www.w3.org/Graphics/SVG/1.1/DTD/svg11.dtd">
<svg version="1.1" id="layer" xmlns="http://www.w3.org/2000/svg" xmlns:xlink="http://www.w3.org/1999/xlink" x="0px" y="0px"
	 width="32px" height="32px" viewBox="0 0 32 32" enable-background="new 0 0 32 32" xml:space="preserve">
<path fill="#1D1D1B" d="M30.041,24.782c1.278-1.323,1.278-3.467,0-4.79c-1.46-1.511-3.895-1.264-5.041,0.523
	c-1.147-1.789-3.583-2.032-5.041-0.523c-1.278,1.323-1.278,3.467,0,4.79L24.999,30L30.041,24.782z"/>
<path fill="#1D1D1B" d="M29,3H3C1.346,3,0,4.346,0,6v18c0,1.654,1.346,3,3,3h13v-2H3c-0.552,0-1-0.449-1-1v-8h30V6
	C32,4.346,30.654,3,29,3z M30,9H2V6c0-0.551,0.448-1,1-1h26c0.552,0,1,0.449,1,1V9z"/>
<rect x="4" y="20" fill="#1D1D1B" width="9" height="2"/>
</svg>
