<?xml version="1.0" encoding="utf-8"?>
<!-- Generator: Adobe Illustrator 20.0.0, SVG Export Plug-In . SVG Version: 6.00 Build 0)  -->
<!DOCTYPE svg PUBLIC "-//W3C//DTD SVG 1.1//EN" "http://www.w3.org/Graphics/SVG/1.1/DTD/svg11.dtd">
<svg version="1.1" id="layer" xmlns="http://www.w3.org/2000/svg" xmlns:xlink="http://www.w3.org/1999/xlink" x="0px" y="0px"
	 width="32px" height="32px" viewBox="0 0 32 32" enable-background="new 0 0 32 32" xml:space="preserve">
<circle fill="#1D1D1B" cx="9" cy="28" r="3"/>
<circle fill="#1D1D1B" cx="27" cy="28" r="3"/>
<path fill="#1D1D1B" d="M5.989,1.852C5.916,1.362,5.495,1,5,1H1v2h3.139l2.873,19.148C7.084,22.638,7.505,23,8,23h20
	c0.501,0,0.925-0.371,0.991-0.868l2-15c0.038-0.286-0.049-0.574-0.239-0.791S30.288,6,30,6h-5v2h3.858l-1.733,13H8.861L5.989,1.852z
	"/>
<path fill="#1D1D1B" d="M10,7l6,5V8h4v7h2V7c0-0.552-0.448-1-1-1h-5V2L10,7z"/>
</svg>
