<?xml version="1.0" encoding="utf-8"?>
<!-- Generator: Adobe Illustrator 20.0.0, SVG Export Plug-In . SVG Version: 6.00 Build 0)  -->
<!DOCTYPE svg PUBLIC "-//W3C//DTD SVG 1.1//EN" "http://www.w3.org/Graphics/SVG/1.1/DTD/svg11.dtd">
<svg version="1.1" id="Layer_1" xmlns="http://www.w3.org/2000/svg" xmlns:xlink="http://www.w3.org/1999/xlink" x="0px" y="0px"
	 width="32px" height="32px" viewBox="0 0 32 32" enable-background="new 0 0 32 32" xml:space="preserve">
<path d="M5,32h22c0.553,0,1-0.448,1-1V9c0-0.552-0.447-1-1-1h-5V6c0-3.309-2.691-6-6-6s-6,2.691-6,6v2H5C4.447,8,4,8.448,4,9v22
	C4,31.552,4.447,32,5,32z M12,6c0-2.206,1.794-4,4-4s4,1.794,4,4v2h-8V6z"/>
</svg>
