<?xml version="1.0" encoding="utf-8"?>
<!-- Generator: Adobe Illustrator 20.0.0, SVG Export Plug-In . SVG Version: 6.00 Build 0)  -->
<!DOCTYPE svg PUBLIC "-//W3C//DTD SVG 1.1//EN" "http://www.w3.org/Graphics/SVG/1.1/DTD/svg11.dtd">
<svg version="1.1" id="Layer_1" xmlns="http://www.w3.org/2000/svg" xmlns:xlink="http://www.w3.org/1999/xlink" x="0px" y="0px"
	 width="32px" height="32px" viewBox="0 0 32 32" enable-background="new 0 0 32 32" xml:space="preserve">
<rect x="18" y="25" width="2" height="3"/>
<path d="M9,32h14c0.552,0,1-0.448,1-1v-6.101c2.279-0.465,4-2.484,4-4.899V2c0-1.105-0.895-2-2-2H6C4.895,0,4,0.895,4,2v18
	c0,2.414,1.721,4.434,4,4.899V31C8,31.552,8.448,32,9,32z M12,30h-2V19h2V30z M22,30h-6V19h6V30z M8,4h16v6H8V4z"/>
</svg>
