<?xml version="1.0" encoding="utf-8"?>
<!-- Generator: Adobe Illustrator 20.0.0, SVG Export Plug-In . SVG Version: 6.00 Build 0)  -->
<!DOCTYPE svg PUBLIC "-//W3C//DTD SVG 1.1//EN" "http://www.w3.org/Graphics/SVG/1.1/DTD/svg11.dtd">
<svg version="1.1" id="layer" xmlns="http://www.w3.org/2000/svg" xmlns:xlink="http://www.w3.org/1999/xlink" x="0px" y="0px"
	 width="32px" height="32px" viewBox="0 0 32 32" enable-background="new 0 0 32 32" xml:space="preserve">
<rect y="5" fill="#1D1D1B" width="32" height="2"/>
<rect y="25" fill="#1D1D1B" width="32" height="2"/>
<path fill="#1D1D1B" d="M3.169,19.387c-1.012,0-2.074-0.41-2.994-0.82v1.969c0.82,0.401,1.764,0.602,2.83,0.602
	c1.158,0,2.061-0.26,2.71-0.779s0.974-1.23,0.974-2.133c0-1.586-0.989-2.3-2.44-2.994c-0.754-0.36-1.887-0.76-1.887-1.593
	c0-0.687,0.551-1.012,1.244-1.012c0.835,0,1.572,0.268,2.352,0.588l0.684-1.647c-0.515-0.223-1.008-0.396-1.48-0.52
	c-1.2-0.313-2.936-0.3-3.972,0.574c-1.011,0.854-1.102,2.396-0.625,3.315c0.459,0.885,1.207,1.328,2.105,1.75
	c0.652,0.31,1.083,0.536,1.295,0.677c0.364,0.242,0.646,0.528,0.646,0.964C4.611,19.119,3.967,19.387,3.169,19.387z"/>
<path fill="#1D1D1B" d="M13.895,18.621L14.619,21h2.283l-3.541-10.035h-2.591L7.243,21h2.283l0.725-2.379H13.895z M12.076,12.517
	c0.122,0.544,1.138,3.767,1.312,4.327h-2.604C11.495,14.542,11.926,13.1,12.076,12.517z"/>
<polygon fill="#1D1D1B" points="18.16,11.006 18.16,21 24.333,21 24.333,19.25 20.279,19.25 20.279,11.006 "/>
<polygon fill="#1D1D1B" points="31.825,12.742 31.825,11.006 26.069,11.006 26.069,21 31.825,21 31.825,19.25 28.188,19.25 
	28.188,16.673 31.572,16.673 31.572,14.937 28.188,14.937 28.188,12.742 "/>
</svg>
