<?xml version="1.0" encoding="utf-8"?>
<!-- Generator: Adobe Illustrator 20.0.0, SVG Export Plug-In . SVG Version: 6.00 Build 0)  -->
<!DOCTYPE svg PUBLIC "-//W3C//DTD SVG 1.1//EN" "http://www.w3.org/Graphics/SVG/1.1/DTD/svg11.dtd">
<svg version="1.1" id="Layer_1" xmlns="http://www.w3.org/2000/svg" xmlns:xlink="http://www.w3.org/1999/xlink" x="0px" y="0px"
	 width="32px" height="32px" viewBox="0 0 32 32" enable-background="new 0 0 32 32" xml:space="preserve">
<path d="M31.196,17.02l-4.455-0.891l-2.805-7.48C23.79,8.259,23.417,8,23,8h-7.059c-0.128,1.154-0.53,2.449-1.215,3.599
	C13.153,14.236,10.282,16,7,16c-2.829,0-5.35-1.308-7-3.349V28h14h0.101c0.465,2.279,2.484,4,4.899,4s4.434-1.721,4.899-4H31
	c0.553,0,1-0.447,1-1v-9C32,17.523,31.663,17.113,31.196,17.02z M19,30c-1.654,0-3-1.346-3-3s1.346-3,3-3s3,1.346,3,3
	S20.654,30,19,30z"/>
<path d="M0,7c0,3.86,3.14,7,7,7s7-3.14,7-7s-3.14-7-7-7S0,3.14,0,7z M6,3h2v3h3v2H6V3z"/>
</svg>
