<?xml version="1.0" encoding="utf-8"?>
<!-- Generator: Adobe Illustrator 20.0.0, SVG Export Plug-In . SVG Version: 6.00 Build 0)  -->
<!DOCTYPE svg PUBLIC "-//W3C//DTD SVG 1.1//EN" "http://www.w3.org/Graphics/SVG/1.1/DTD/svg11.dtd">
<svg version="1.1" id="layer" xmlns="http://www.w3.org/2000/svg" xmlns:xlink="http://www.w3.org/1999/xlink" x="0px" y="0px"
	 width="32px" height="32px" viewBox="0 0 32 32" enable-background="new 0 0 32 32" xml:space="preserve">
<path fill="#1D1D1B" d="M31,1H17c-0.552,0-1,0.448-1,1v15.081L22.351,12H31c0.552,0,1-0.448,1-1V2C32,1.448,31.552,1,31,1z"/>
<circle fill="#1D1D1B" cx="9" cy="14" r="5"/>
<path fill="#1D1D1B" d="M15.476,22.111C14.162,21.604,11.974,21,9,21s-5.162,0.604-6.476,1.111C1.015,22.694,0,24.189,0,25.831V30
	c0,0.552,0.448,1,1,1h16c0.552,0,1-0.448,1-1v-4.169C18,24.189,16.985,22.694,15.476,22.111z"/>
</svg>
