<?xml version="1.0" encoding="utf-8"?>
<!-- Generator: Adobe Illustrator 20.0.0, SVG Export Plug-In . SVG Version: 6.00 Build 0)  -->
<!DOCTYPE svg PUBLIC "-//W3C//DTD SVG 1.1//EN" "http://www.w3.org/Graphics/SVG/1.1/DTD/svg11.dtd">
<svg version="1.1" id="layer" xmlns="http://www.w3.org/2000/svg" xmlns:xlink="http://www.w3.org/1999/xlink" x="0px" y="0px"
	 width="32px" height="32px" viewBox="0 0 32 32" enable-background="new 0 0 32 32" xml:space="preserve">
<path fill="#1D1D1B" d="M29,2H3C1.346,2,0,3.346,0,5v18c0,1.654,1.346,3,3,3h13v-2H3c-0.552,0-1-0.449-1-1v-8h30V5
	C32,3.346,30.654,2,29,2z M30,8H2V5c0-0.551,0.448-1,1-1h26c0.552,0,1,0.449,1,1V8z"/>
<rect x="4" y="19" fill="#1D1D1B" width="9" height="2"/>
<path fill="#1D1D1B" d="M31.379,18.621c-0.829-0.828-2.172-0.828-3,0L21,26l-1,4l4-1l7.379-7.379
	C32.203,20.797,32.21,19.452,31.379,18.621z"/>
</svg>
