<?xml version="1.0" encoding="utf-8"?>
<!-- Generator: Adobe Illustrator 20.0.0, SVG Export Plug-In . SVG Version: 6.00 Build 0)  -->
<!DOCTYPE svg PUBLIC "-//W3C//DTD SVG 1.1//EN" "http://www.w3.org/Graphics/SVG/1.1/DTD/svg11.dtd">
<svg version="1.1" id="Layer_1" xmlns="http://www.w3.org/2000/svg" xmlns:xlink="http://www.w3.org/1999/xlink" x="0px" y="0px"
	 width="32px" height="32px" viewBox="0 0 32 32" enable-background="new 0 0 32 32" xml:space="preserve">
<circle cx="19" cy="22" r="2"/>
<circle cx="28" cy="22" r="2"/>
<path d="M28.986,18.164l1-6c0.049-0.29-0.033-0.586-0.224-0.811C29.573,11.129,29.294,11,29,11H18.281L17.97,9.758
	C17.858,9.312,17.459,9,17,9h-4v2h3.219l1.812,7.242C18.142,18.688,18.541,19,19,19h9C28.489,19,28.906,18.646,28.986,18.164z"/>
<path d="M22,28H4V4h18v5h2V3c0-1.657-1.343-3-3-3H5C3.343,0,2,1.343,2,3v26c0,1.657,1.343,3,3,3h16c1.657,0,3-1.343,3-3v-4h-2V28z"
	/>
</svg>
