<?xml version="1.0" encoding="utf-8"?>
<!-- Generator: Adobe Illustrator 20.0.0, SVG Export Plug-In . SVG Version: 6.00 Build 0)  -->
<!DOCTYPE svg PUBLIC "-//W3C//DTD SVG 1.1//EN" "http://www.w3.org/Graphics/SVG/1.1/DTD/svg11.dtd">
<svg version="1.1" id="Layer_1" xmlns="http://www.w3.org/2000/svg" xmlns:xlink="http://www.w3.org/1999/xlink" x="0px" y="0px"
	 width="32px" height="32px" viewBox="0 0 32 32" enable-background="new 0 0 32 32" xml:space="preserve">
<path d="M12,0H0v12h12V0z M10,10H2V2h8V10z"/>
<rect x="4" y="4" width="4" height="4"/>
<path d="M12,20H0v12h12V20z M10,30H2v-8h8V30z"/>
<rect x="4" y="24" width="4" height="4"/>
<path d="M32,0H20v12h12V0z M30,10h-8V2h8V10z"/>
<rect x="24" y="4" width="4" height="4"/>
<polygon points="9,19 9,17 11,17 11,15 3,15 3,13 1,13 1,17 7,17 7,19 "/>
<polygon points="32,17 32,15 30,15 30,13 28,13 28,15 26,15 26,21 19,21 19,23 32,23 32,21 28,21 28,17 "/>
<polygon points="18,17 21,17 21,19 23,19 23,15 16,15 16,12 18,12 18,10 16,10 16,7 19,7 19,1 17,1 17,5 14,5 14,20 18,20 "/>
<polygon points="32,30 30,30 30,25 28,25 28,27 26,27 26,30 23,30 23,26 17,26 17,24 15,24 15,32 17,32 17,28 21,28 21,32 32,32 "/>
</svg>
