<?xml version="1.0" encoding="utf-8"?>
<!-- Generator: Adobe Illustrator 20.0.0, SVG Export Plug-In . SVG Version: 6.00 Build 0)  -->
<!DOCTYPE svg PUBLIC "-//W3C//DTD SVG 1.1//EN" "http://www.w3.org/Graphics/SVG/1.1/DTD/svg11.dtd">
<svg version="1.1" id="layer" xmlns="http://www.w3.org/2000/svg" xmlns:xlink="http://www.w3.org/1999/xlink" x="0px" y="0px"
	 width="32px" height="32px" viewBox="0 0 32 32" enable-background="new 0 0 32 32" xml:space="preserve">
<path fill="#1D1D1B" d="M21,19c-0.551,0-1,0.449-1,1v1c0,0.551,0.449,1,1,1s1-0.449,1-1v-1C22,19.449,21.551,19,21,19z"/>
<path fill="#1D1D1B" d="M28,5c0-0.552-0.448-1-1-1h-6l-5-4l-5,4H5C4.448,4,4,4.448,4,5v6l-4,5l4,5v6c0,0.552,0.448,1,1,1h6l5,4l5-4
	h6c0.552,0,1-0.448,1-1v-6l4-5l-4-5V5z M8,12v-1c0-1.654,1.346-3,3-3s3,1.346,3,3v1c0,1.654-1.346,3-3,3S8,13.654,8,12z M11,22.414
	L9.586,21L21,9.586L22.414,11L11,22.414z M24,21c0,1.654-1.346,3-3,3s-3-1.346-3-3v-1c0-1.654,1.346-3,3-3s3,1.346,3,3V21z"/>
<path fill="#1D1D1B" d="M12,12v-1c0-0.551-0.449-1-1-1s-1,0.449-1,1v1c0,0.551,0.449,1,1,1S12,12.551,12,12z"/>
</svg>
