<?xml version="1.0" encoding="utf-8"?>
<!-- Generator: Adobe Illustrator 20.0.0, SVG Export Plug-In . SVG Version: 6.00 Build 0)  -->
<!DOCTYPE svg PUBLIC "-//W3C//DTD SVG 1.1//EN" "http://www.w3.org/Graphics/SVG/1.1/DTD/svg11.dtd">
<svg version="1.1" id="Layer_1" xmlns="http://www.w3.org/2000/svg" xmlns:xlink="http://www.w3.org/1999/xlink" x="0px" y="0px"
	 width="32px" height="32px" viewBox="0 0 32 32" enable-background="new 0 0 32 32" xml:space="preserve">
<circle cx="6" cy="28" r="3"/>
<circle cx="27" cy="28" r="3"/>
<path d="M26,0c-3.314,0-6,2.686-6,6s2.686,6,6,6s6-2.686,6-6S29.314,0,26,0z M29,7h-2v2h-2V7h-2V5h2V3h2v2h2V7z"/>
<path d="M5,19h21c0.459,0,0.858-0.312,0.97-0.757l1.133-4.531C27.432,13.894,26.729,14,26,14c-4.418,0-8-3.582-8-8
	c0-0.339,0.028-0.672,0.069-1H5V2c0-0.552-0.447-1-1-1H0v2h3v19c0,0.552,0.447,1,1,1h28v-2H5V19z"/>
</svg>
