<?xml version="1.0" encoding="utf-8"?>
<!-- Generator: Adobe Illustrator 20.0.0, SVG Export Plug-In . SVG Version: 6.00 Build 0)  -->
<!DOCTYPE svg PUBLIC "-//W3C//DTD SVG 1.1//EN" "http://www.w3.org/Graphics/SVG/1.1/DTD/svg11.dtd">
<svg version="1.1" id="Layer_1" xmlns="http://www.w3.org/2000/svg" xmlns:xlink="http://www.w3.org/1999/xlink" x="0px" y="0px"
	 width="32px" height="32px" viewBox="0 0 32 32" enable-background="new 0 0 32 32" xml:space="preserve">
<path d="M1,6v8c0,0.265,0.105,0.52,0.293,0.707l16,16C17.488,30.902,17.744,31,18,31s0.512-0.098,0.707-0.293l12-12
	c0.391-0.391,0.391-1.023,0-1.414l-16-16C14.52,1.105,14.266,1,14,1H6C5.734,1,5.48,1.105,5.293,1.293l-4,4C1.105,5.48,1,5.735,1,6z
	 M9,7c1.105,0,2,0.895,2,2c0,1.105-0.895,2-2,2s-2-0.895-2-2C7,7.895,7.895,7,9,7z"/>
</svg>
