<?xml version="1.0" encoding="utf-8"?>
<!-- Generator: Adobe Illustrator 20.0.0, SVG Export Plug-In . SVG Version: 6.00 Build 0)  -->
<!DOCTYPE svg PUBLIC "-//W3C//DTD SVG 1.1//EN" "http://www.w3.org/Graphics/SVG/1.1/DTD/svg11.dtd">
<svg version="1.1" id="Layer_1" xmlns="http://www.w3.org/2000/svg" xmlns:xlink="http://www.w3.org/1999/xlink" x="0px" y="0px"
	 width="32px" height="32px" viewBox="0 0 32 32" enable-background="new 0 0 32 32" xml:space="preserve">
<path d="M17.293,30.707C17.488,30.902,17.744,31,18,31s0.512-0.098,0.707-0.293l12-12c0.391-0.391,0.391-1.024,0-1.414l-16-16
	C14.519,1.105,14.265,1,14,1H1v13c0,0.265,0.105,0.52,0.293,0.707L17.293,30.707z M8,6c1.105,0,2,0.895,2,2c0,1.105-0.895,2-2,2
	S6,9.105,6,8C6,6.895,6.895,6,8,6z"/>
</svg>
