<?xml version="1.0" encoding="utf-8"?>
<!-- Generator: Adobe Illustrator 19.1.0, SVG Export Plug-In . SVG Version: 6.00 Build 0)  -->
<!DOCTYPE svg PUBLIC "-//W3C//DTD SVG 1.1//EN" "http://www.w3.org/Graphics/SVG/1.1/DTD/svg11.dtd">
<svg version="1.1" id="Layer_1" xmlns="http://www.w3.org/2000/svg" xmlns:xlink="http://www.w3.org/1999/xlink" x="0px" y="0px"
	 width="24px" height="24px" viewBox="0 0 24 24" enable-background="new 0 0 24 24" xml:space="preserve">
<path d="M22,9h-7.3l-1.7-4.4C12.8,4.2,12.4,4,12,4H5C4.5,4,4.1,4.3,4,4.8L3.2,9H1c-0.6,0-1,0.4-1,1v4c0,1.3,0.8,2.4,2,2.8
	C2.2,18.6,3.7,20,5.5,20c1.8,0,3.2-1.3,3.4-3h4.1c0.2,1.7,1.7,3,3.4,3s3.2-1.3,3.4-3H21c0.5,0,0.9-0.4,1-0.8l1-6
	c0-0.3,0-0.6-0.2-0.8C22.6,9.1,22.3,9,22,9z M5.5,18C4.7,18,4,17.3,4,16.5S4.7,15,5.5,15S7,15.7,7,16.5S6.3,18,5.5,18z M16.5,18
	c-0.8,0-1.5-0.7-1.5-1.5s0.7-1.5,1.5-1.5s1.5,0.7,1.5,1.5S17.3,18,16.5,18z"/>
</svg>
