<?xml version="1.0" encoding="utf-8"?>
<!-- Generator: Adobe Illustrator 19.1.0, SVG Export Plug-In . SVG Version: 6.00 Build 0)  -->
<!DOCTYPE svg PUBLIC "-//W3C//DTD SVG 1.1//EN" "http://www.w3.org/Graphics/SVG/1.1/DTD/svg11.dtd">
<svg version="1.1" id="Layer_1" xmlns="http://www.w3.org/2000/svg" xmlns:xlink="http://www.w3.org/1999/xlink" x="0px" y="0px"
	 width="24px" height="24px" viewBox="0 0 24 24" enable-background="new 0 0 24 24" xml:space="preserve">
<path d="M19,0H5C3.3,0,2,1.3,2,3v17c0,0.6,0.4,1,1,1h1v2c0,0.6,0.4,1,1,1h3c0.6,0,1-0.4,1-1v-2h6v2c0,0.6,0.4,1,1,1h3
	c0.6,0,1-0.4,1-1v-2h1c0.6,0,1-0.4,1-1V3C22,1.3,20.7,0,19,0z M8,18H6c-0.6,0-1-0.4-1-1s0.4-1,1-1h2c0.6,0,1,0.4,1,1S8.6,18,8,18z
	 M18,18h-2c-0.6,0-1-0.4-1-1s0.4-1,1-1h2c0.6,0,1,0.4,1,1S18.6,18,18,18z M20,13H4V5h16V13z"/>
</svg>
