<?xml version="1.0" encoding="utf-8"?>
<!-- Generator: Adobe Illustrator 19.1.0, SVG Export Plug-In . SVG Version: 6.00 Build 0)  -->
<!DOCTYPE svg PUBLIC "-//W3C//DTD SVG 1.1//EN" "http://www.w3.org/Graphics/SVG/1.1/DTD/svg11.dtd">
<svg version="1.1" id="Layer_1" xmlns="http://www.w3.org/2000/svg" xmlns:xlink="http://www.w3.org/1999/xlink" x="0px" y="0px"
	 width="24px" height="24px" viewBox="0 0 24 24" enable-background="new 0 0 24 24" xml:space="preserve">
<path d="M20.5,9h-14L4.8,6.4C4.6,6.2,4.3,6,4,6H2C1.7,6,1.4,6.1,1.2,6.4S1,6.9,1,7.2l2,8C3.1,15.7,3.5,16,4,16h7.1l-3,4.4
	c-0.2,0.3-0.2,0.7,0,1S8.6,22,9,22h4c0.3,0,0.6-0.2,0.8-0.4l3.7-5.6h3c1.9,0,3.5-1.6,3.5-3.5S22.4,9,20.5,9z"/>
<path id="color" d="M10.3,7h6.3l-2.8-4.5C13.7,2.2,13.3,2,13,2H9C8.6,2,8.3,2.2,8.1,2.5s-0.2,0.7,0,1L10.3,7z"/>
</svg>
