<?xml version="1.0" encoding="utf-8"?>
<!-- Generator: Adobe Illustrator 19.1.0, SVG Export Plug-In . SVG Version: 6.00 Build 0)  -->
<!DOCTYPE svg PUBLIC "-//W3C//DTD SVG 1.1//EN" "http://www.w3.org/Graphics/SVG/1.1/DTD/svg11.dtd">
<svg version="1.1" id="Layer_1" xmlns="http://www.w3.org/2000/svg" xmlns:xlink="http://www.w3.org/1999/xlink" x="0px" y="0px"
	 width="48px" height="48px" viewBox="0 0 48 48" enable-background="new 0 0 48 48" xml:space="preserve">
<path d="M7.61798,42.92291C7.74017,42.97345,7.86981,43,8,43s0.25983-0.02655,0.38202-0.07709
	c0.12262-0.05078,0.23334-0.12402,0.32568-0.21655l4.99933-4.99933c0.39062-0.39062,0.39062-1.02344,0-1.41406
	s-1.02344-0.39062-1.41406,0L9,39.58594V27c0-0.55273-0.44775-1-1-1s-1,0.44727-1,1v12.58594l-3.29297-3.29297
	c-0.39062-0.39062-1.02344-0.39062-1.41406,0s-0.39062,1.02344,0,1.41406l4.99933,4.99933
	C7.38464,42.79889,7.49536,42.87213,7.61798,42.92291z"/>
<path d="M8,22c0.55225,0,1-0.44727,1-1V8.41406l3.29297,3.29297C12.48828,11.90234,12.74414,12,13,12
	s0.51172-0.09766,0.70703-0.29297c0.39062-0.39062,0.39062-1.02344,0-1.41406L8.7077,5.29364
	C8.61536,5.20111,8.50464,5.12781,8.3819,5.07703c-0.24426-0.10101-0.51953-0.10101-0.76379,0
	C7.49536,5.12781,7.38464,5.20111,7.2923,5.29364l-4.99933,4.99933c-0.39062,0.39062-0.39062,1.02344,0,1.41406
	s1.02344,0.39062,1.41406,0L7,8.41406V21C7,21.55273,7.44775,22,8,22z"/>
<path d="M42.30957,20.24219L32,18.18066V8c0-2.20605-1.79443-4-4-4s-4,1.79395-4,4v14h-3c-1.6543,0-3,1.3457-3,3v8
	c0,2.04785,1.32568,3.71191,2.60742,5.32031C21.83789,39.86426,23,41.32324,23,43c0,0.55273,0.44775,1,1,1h18
	c0.47998,0,0.89258-0.34082,0.98242-0.8125l3.2583-17.10645C46.75146,23.39746,44.98828,20.77832,42.30957,20.24219z
	 M44.27588,25.70605L41.17236,42H24.91113c-0.3418-1.91699-1.60547-3.50293-2.73926-4.92578C21.05469,35.67285,20,34.34863,20,33v-8
	c0-0.55176,0.44873-1,1-1h3v5c0,0.55273,0.44775,1,1,1s1-0.44727,1-1v-6V8c0-1.10254,0.89697-2,2-2s2,0.89746,2,2v11
	c0,0.47656,0.33643,0.88672,0.80371,0.98047l11.11328,2.22266C43.52441,22.52441,44.58252,24.09668,44.27588,25.70605z"/>
</svg>
