<?xml version="1.0" encoding="utf-8"?>
<!-- Generator: Adobe Illustrator 19.1.0, SVG Export Plug-In . SVG Version: 6.00 Build 0)  -->
<!DOCTYPE svg PUBLIC "-//W3C//DTD SVG 1.1//EN" "http://www.w3.org/Graphics/SVG/1.1/DTD/svg11.dtd">
<svg version="1.1" id="Layer_1" xmlns="http://www.w3.org/2000/svg" xmlns:xlink="http://www.w3.org/1999/xlink" x="0px" y="0px"
	 width="48px" height="48px" viewBox="0 0 48 48" enable-background="new 0 0 48 48" xml:space="preserve">
<path d="M23,5c-2.20557,0-4,1.79395-4,4v1H6.41406l3.29297-3.29297c0.39062-0.39062,0.39062-1.02344,0-1.41406
	s-1.02344-0.39062-1.41406,0l-4.99915,4.99915c-0.09259,0.09235-0.16589,0.20306-0.21674,0.32581
	c-0.10107,0.24438-0.10101,0.51978,0.00006,0.76416c0.05078,0.12274,0.12408,0.23346,0.21667,0.32581l4.99915,4.99915
	C8.48828,16.90234,8.74414,17,9,17s0.51172-0.09766,0.70703-0.29297c0.39062-0.39062,0.39062-1.02344,0-1.41406L6.41406,12H19v11h-3
	c-1.6543,0-3,1.3457-3,3v8c0,2.04785,1.32568,3.71191,2.60742,5.32031C16.83789,40.86426,18,42.32324,18,44c0,0.55273,0.44775,1,1,1
	h18c0.47998,0,0.89258-0.34082,0.98242-0.8125l3.2583-17.10645c0.51074-2.68359-1.25244-5.30273-3.93115-5.83887L27,19.18066V12
	h12.58594l-3.29297,3.29297c-0.39062,0.39062-0.39062,1.02344,0,1.41406C36.48828,16.90234,36.74414,17,37,17
	s0.51172-0.09766,0.70703-0.29297l4.99915-4.99915c0.09259-0.09235,0.16589-0.20306,0.21667-0.32581
	c0.10107-0.24438,0.10114-0.51978,0.00006-0.76416c-0.05084-0.12274-0.12415-0.23346-0.21674-0.32581l-4.99915-4.99915
	c-0.39062-0.39062-1.02344-0.39062-1.41406,0s-0.39062,1.02344,0,1.41406L39.58594,10H27V9C27,6.79395,25.20557,5,23,5z
	 M36.91699,23.20312c1.60742,0.32129,2.66553,1.89355,2.35889,3.50293L36.17236,43H19.91113
	c-0.3418-1.91699-1.60547-3.50293-2.73926-4.92578C16.05469,36.67285,15,35.34863,15,34v-8c0-0.55176,0.44873-1,1-1h3v5
	c0,0.55273,0.44775,1,1,1s1-0.44727,1-1v-6V9c0-1.10254,0.89697-2,2-2s2,0.89746,2,2v11c0,0.47656,0.33643,0.88672,0.80371,0.98047
	L36.91699,23.20312z"/>
</svg>
