<?xml version="1.0" encoding="utf-8"?>
<!-- Generator: Adobe Illustrator 19.1.0, SVG Export Plug-In . SVG Version: 6.00 Build 0)  -->
<!DOCTYPE svg PUBLIC "-//W3C//DTD SVG 1.1//EN" "http://www.w3.org/Graphics/SVG/1.1/DTD/svg11.dtd">
<svg version="1.1" id="Layer_1" xmlns="http://www.w3.org/2000/svg" xmlns:xlink="http://www.w3.org/1999/xlink" x="0px" y="0px"
	 width="48px" height="48px" viewBox="0 0 48 48" enable-background="new 0 0 48 48" xml:space="preserve">
<path d="M3.34521,23.43066c0.03058,0.12207,0.08514,0.23059,0.15332,0.32794c0.01917,0.02753,0.04651,0.04785,0.0686,0.07355
	c0.05896,0.06824,0.12207,0.12952,0.19629,0.1792c0.0144,0.0097,0.02228,0.02502,0.03735,0.03406
	c0.04016,0.02411,0.0835,0.03571,0.12537,0.05359c0.03082,0.01324,0.05933,0.02899,0.09143,0.03912
	c0.09772,0.03058,0.19714,0.04987,0.29688,0.04987c0.08057,0,0.16211-0.00928,0.24365-0.02979l6.79102-1.69775
	c0.53564-0.13379,0.86133-0.67676,0.72754-1.21289c-0.13379-0.53564-0.67627-0.8623-1.21289-0.72754l-4.44861,1.11206
	l9.88483-16.4751l1.11212,4.44897c0.11377,0.4541,0.52148,0.75781,0.96924,0.75732c0.08057,0,0.16211-0.00928,0.24365-0.02979
	c0.53564-0.13379,0.86133-0.67676,0.72754-1.21289l-1.69775-6.79102c-0.00122-0.00488-0.00494-0.00824-0.00623-0.01312
	c-0.03217-0.12103-0.08545-0.23639-0.16113-0.33868c-0.15747-0.21234-0.39319-0.35425-0.65472-0.39349
	c-0.1319-0.01978-0.26508-0.01392-0.39233,0.01813L9.65088,3.2998C9.11523,3.43359,8.78955,3.97656,8.92334,4.5127
	C9.05762,5.04834,9.604,5.37451,10.13623,5.24023l4.44861-1.11206l-9.88483,16.4751L3.58789,16.1543
	C3.4541,15.61816,2.91162,15.29443,2.375,15.42676c-0.53564,0.13379-0.86133,0.67676-0.72754,1.21289L3.34521,23.43066z"/>
<path d="M40.75684,24.12109l-9.32471-2.74219c-0.66943-3.63135-1.89697-7.11475-3.32959-9.41797
	c-1.0625-1.70752-3.21338-2.41455-5.00195-1.64746c-1.09131,0.46875-1.91602,1.38086-2.2627,2.50293
	c-0.34717,1.12207-0.18555,2.33447,0.44336,3.32617c1.45117,2.28711,2.32666,7.92676,1.95215,12.57227
	c-0.04688,0.58203-0.51318,0.78711-0.65479,0.83643c-0.146,0.05176-0.65967,0.18408-1.0752-0.26465l-1.9082-2.05859
	c-0.82422-0.87451-1.93994-1.37598-3.1416-1.41113c-1.19385-0.03516-2.34473,0.39893-3.21973,1.22363
	c-0.87451,0.82422-1.37598,1.93994-1.41113,3.14111c-0.03564,1.20166,0.39893,2.34473,1.15869,3.14355l10.22607,13.28467
	C23.39697,46.85596,23.68945,47,24,47h18c0.4541,0,0.85156-0.30615,0.96729-0.74561l3.26904-12.42236
	C47.34521,29.6167,44.93848,25.35107,40.75684,24.12109z M44.30176,33.32324L41.229,45H24.49219l-9.99072-12.9707
	c-0.45801-0.48584-0.69971-1.12109-0.67969-1.78857c0.01953-0.66748,0.29785-1.28711,0.78418-1.74512
	s1.13916-0.69727,1.78857-0.67969c0.66748,0.01953,1.2876,0.29785,1.73975,0.77783l1.90234,2.05225
	c0.82422,0.88818,2.04883,1.19287,3.19727,0.79492c1.1333-0.39307,1.89697-1.37598,1.99268-2.56543
	c0.41846-5.18311-0.55176-11.11768-2.25635-13.8042c-0.31494-0.49561-0.39551-1.10254-0.22168-1.66406
	c0.17578-0.56934,0.58154-1.01562,1.14111-1.25586c0.88916-0.38184,1.97021-0.00928,2.51465,0.86621
	c1.38281,2.22266,2.56543,5.70264,3.16357,9.30908c0.0625,0.37842,0.33643,0.6875,0.7041,0.7959l9.92041,2.91748
	C43.32861,26.9624,45.13379,30.16162,44.30176,33.32324z"/>
</svg>
