<?xml version="1.0" encoding="utf-8"?>
<!-- Generator: Adobe Illustrator 19.1.0, SVG Export Plug-In . SVG Version: 6.00 Build 0)  -->
<!DOCTYPE svg PUBLIC "-//W3C//DTD SVG 1.1//EN" "http://www.w3.org/Graphics/SVG/1.1/DTD/svg11.dtd">
<svg version="1.1" id="Layer_1" xmlns="http://www.w3.org/2000/svg" xmlns:xlink="http://www.w3.org/1999/xlink" x="0px" y="0px"
	 width="48px" height="48px" viewBox="0 0 48 48" enable-background="new 0 0 48 48" xml:space="preserve">
<path d="M8,12h7v11h-3c-1.6543,0-3,1.3457-3,3v8c0,2.04834,1.32568,3.71191,2.60742,5.3208C12.83789,40.86475,14,42.32275,14,44
	c0,0.55225,0.44775,1,1,1h18c0.47998,0,0.89258-0.34131,0.98242-0.81299l3.2583-17.10645
	c0.51074-2.68311-1.25244-5.30273-3.93115-5.83838L23,19.18018V12h15.58594l-4.29297,4.29297
	c-0.39062,0.39062-0.39062,1.02344,0,1.41406C34.48828,17.90234,34.74414,18,35,18s0.51172-0.09766,0.70703-0.29297l5.99969-5.99969
	c0.09229-0.09216,0.16534-0.20282,0.21606-0.3252c0.10114-0.24451,0.10114-0.51978,0-0.76428
	c-0.05072-0.12238-0.12378-0.23303-0.21606-0.3252l-5.99969-5.99969c-0.39062-0.39062-1.02344-0.39062-1.41406,0
	s-0.39062,1.02344,0,1.41406L38.58594,10H23V9c0-2.20557-1.79443-4-4-4s-4,1.79443-4,4v1H8c-0.55225,0-1,0.44775-1,1
	S7.44775,12,8,12z M17,9c0-1.10303,0.89697-2,2-2s2,0.89697,2,2v11c0,0.47656,0.33643,0.88721,0.80371,0.98047l11.11328,2.22266
	c1.60742,0.32178,2.66553,1.89307,2.35889,3.50342L32.17236,43H15.91113c-0.3418-1.9165-1.60547-3.50244-2.73926-4.92578
	C12.05469,36.67285,11,35.34863,11,34v-8c0-0.55127,0.44873-1,1-1h3v5c0,0.55225,0.44775,1,1,1s1-0.44775,1-1v-6V9z"/>
</svg>
