<?xml version="1.0" encoding="utf-8"?>
<!-- Generator: Adobe Illustrator 19.1.0, SVG Export Plug-In . SVG Version: 6.00 Build 0)  -->
<!DOCTYPE svg PUBLIC "-//W3C//DTD SVG 1.1//EN" "http://www.w3.org/Graphics/SVG/1.1/DTD/svg11.dtd">
<svg version="1.1" id="Layer_1" xmlns="http://www.w3.org/2000/svg" xmlns:xlink="http://www.w3.org/1999/xlink" x="0px" y="0px"
	 width="48px" height="48px" viewBox="0 0 48 48" enable-background="new 0 0 48 48" xml:space="preserve">
<path d="M10.62964,44.69159c0.08875,0.02582,0.18011,0.04132,0.27307,0.04193c0.00183,0,0.00366,0.00085,0.00549,0.00085
	c0.00018,0,0.00031-0.00006,0.00049-0.00006s0.00031,0.00006,0.00049,0.00006c0.00684,0,0.01367-0.0025,0.02051-0.00262
	c0.07465-0.00165,0.14905-0.00995,0.22192-0.02832c0.0307-0.00769,0.05981-0.02332,0.09009-0.03412
	c0.04443-0.01581,0.08997-0.02802,0.13232-0.05017c0.00354-0.00183,0.00568-0.00555,0.00922-0.00745
	c0.00653-0.00354,0.01361-0.00452,0.02008-0.00818c0.052-0.02966,0.08533-0.07623,0.12982-0.11322
	c0.05298-0.04388,0.11108-0.08057,0.15381-0.13422c0.04681-0.05872,0.07269-0.1272,0.10492-0.19391
	c0.0224-0.04596,0.05707-0.08441,0.07239-0.13385l2.47559-8.03809c0.16211-0.52734-0.13379-1.08691-0.66211-1.25
	c-0.52734-0.16406-1.08691,0.13379-1.25,0.66211l-1.76331,5.72516c-2.56793-5.2486-3.91833-11.05621-3.91833-16.94049
	c0-7.05615,1.93848-13.94824,5.60449-19.93018c0.28906-0.4707,0.14062-1.08643-0.33008-1.375
	c-0.47168-0.28857-1.08691-0.1416-1.375,0.33008c-3.85938,6.29639-5.89941,13.5498-5.89941,20.9751
	c0,6.20642,1.43054,12.33264,4.14703,17.86749l-5.5943-1.7547c-0.53125-0.16797-1.08887,0.12793-1.25293,0.65527
	c-0.16504,0.52637,0.12793,1.08789,0.65527,1.25293l7.9082,2.48047C10.61603,44.69055,10.62299,44.6897,10.62964,44.69159z"/>
<path d="M46.78613,26.73242C46.56348,26.22852,45.97656,26,45.4668,26.22168l-7.31836,3.23047
	c-0.50293,0.22363-1.09473-0.00488-1.31836-0.51074l-1.21118-2.74377l4.57349-2.01941
	c0.50488-0.22314,0.7334-0.81396,0.51074-1.31885c-0.22266-0.50537-0.80957-0.73486-1.31934-0.51074L33.89777,24.771
	c-0.00073,0.00031-0.00153,0.00018-0.00226,0.00049L20.17383,30.8291c-0.48828,0.2168-1.03125,0.22852-1.53125,0.03516
	c-0.49805-0.19336-0.89062-0.56836-1.10645-1.05664c-0.21582-0.48926-0.22852-1.03223-0.03516-1.53125
	c0.19336-0.49805,0.56836-0.89062,1.05762-1.10645l10.0625-4.44238c0.43555-0.19287,0.6748-0.66602,0.57227-1.13135
	l-2.4541-11.06494c-0.35547-1.6001,0.6543-3.20264,2.25195-3.57227l16.96484-3.92773
	c0.53809-0.12451,0.87305-0.66162,0.74902-1.19971c-0.125-0.53857-0.66211-0.87109-1.2002-0.74854L28.54004,5.01074
	c-2.66113,0.61523-4.3457,3.28662-3.75391,5.95361l2.27734,10.26416l-9.3125,4.11133
	c-0.97754,0.43164-1.72852,1.21777-2.11523,2.21387c-0.38574,0.99707-0.36133,2.08398,0.07031,3.06055
	c0.43164,0.97754,1.21777,1.72852,2.21387,2.11523c0.46973,0.18164,0.95898,0.27246,1.44727,0.27246
	c0.54883,0,1.09668-0.11426,1.61426-0.34277l12.80762-5.6543L35,29.75c0.66895,1.5127,2.44043,2.19824,3.95703,1.53223
	l7.31836-3.23047C46.78027,27.82812,47.00879,27.23828,46.78613,26.73242z"/>
</svg>
