<?xml version="1.0" encoding="utf-8"?>
<!-- Generator: Adobe Illustrator 19.1.0, SVG Export Plug-In . SVG Version: 6.00 Build 0)  -->
<!DOCTYPE svg PUBLIC "-//W3C//DTD SVG 1.1//EN" "http://www.w3.org/Graphics/SVG/1.1/DTD/svg11.dtd">
<svg version="1.1" id="Layer_1" xmlns="http://www.w3.org/2000/svg" xmlns:xlink="http://www.w3.org/1999/xlink" x="0px" y="0px"
	 width="48px" height="48px" viewBox="0 0 48 48" enable-background="new 0 0 48 48" xml:space="preserve">
<path d="M43.92291,8.61792c-0.05084-0.12274-0.12415-0.23346-0.21674-0.32581l-5.99915-5.99915
	c-0.39062-0.39062-1.02344-0.39062-1.41406,0s-0.39062,1.02344,0,1.41406L40.58594,8H4C3.44775,8,3,8.44727,3,9s0.44775,1,1,1
	h36.58594l-4.29297,4.29297c-0.39062,0.39062-0.39062,1.02344,0,1.41406C36.48828,15.90234,36.74414,16,37,16
	s0.51172-0.09766,0.70703-0.29297l5.99915-5.99915c0.09259-0.09235,0.16589-0.20306,0.21667-0.32581
	C44.02393,9.1377,44.02399,8.8623,43.92291,8.61792z"/>
<path d="M33.5,20c-0.56787,0-1.10449,0.13574-1.57959,0.37695c-0.31689-1.51074-1.54883-2.70703-3.06348-2.85938
	c-0.78271-0.0791-1.56494,0.1084-2.22021,0.51953c-0.52246-1.09668-1.55957-1.89648-2.77979-2.01953
	c-0.98682-0.09961-1.97363,0.22461-2.70508,0.88672c-0.34863,0.31543-0.62598,0.69531-0.82129,1.11328
	c-0.64844-0.39648-1.41357-0.57812-2.18848-0.5C16.38037,17.69531,15,19.28711,15,21.14258V34h-3c-1.6543,0-3,1.3457-3,3v9
	c0,0.55273,0.44775,1,1,1s1-0.44727,1-1v-9c0-0.55176,0.44873-1,1-1h3v5c0,0.55273,0.44775,1,1,1s1-0.44727,1-1v-6v-1V21.14258
	c0-0.84082,0.58936-1.55957,1.34131-1.63477c0.43359-0.04102,0.84668,0.0918,1.16455,0.37988C19.82471,20.17578,20,20.57031,20,21
	v14c0,0.55273,0.44775,1,1,1s1-0.44727,1-1V21v-1.5c0-0.42969,0.17529-0.82422,0.49414-1.1123
	c0.31787-0.28809,0.73047-0.42773,1.16357-0.37988C24.41064,18.08301,25,18.80176,25,19.64258V21v14c0,0.55273,0.44775,1,1,1
	s1-0.44727,1-1V21c0-0.42969,0.17529-0.82422,0.49414-1.1123c0.31787-0.28809,0.729-0.42773,1.16357-0.37988
	C29.41064,19.58301,30,20.30176,30,21.14258V23.5V35c0,0.55273,0.44775,1,1,1s1-0.44727,1-1V23.5c0-0.82715,0.67285-1.5,1.5-1.5
	s1.5,0.67285,1.5,1.5V46c0,0.55273,0.44775,1,1,1s1-0.44727,1-1V23.5C37,21.57031,35.42969,20,33.5,20z"/>
</svg>
