<?xml version="1.0" encoding="utf-8"?>
<!-- Generator: Adobe Illustrator 19.1.0, SVG Export Plug-In . SVG Version: 6.00 Build 0)  -->
<!DOCTYPE svg PUBLIC "-//W3C//DTD SVG 1.1//EN" "http://www.w3.org/Graphics/SVG/1.1/DTD/svg11.dtd">
<svg version="1.1" id="Layer_1" xmlns="http://www.w3.org/2000/svg" xmlns:xlink="http://www.w3.org/1999/xlink" x="0px" y="0px"
	 width="48px" height="48px" viewBox="0 0 48 48" enable-background="new 0 0 48 48" xml:space="preserve">
<path d="M8.22607,7.27246c-0.40137,0.37988-0.41992,1.0127-0.04053,1.41406C8.38232,8.89453,8.64697,9,8.9126,9
	c0.24658,0,0.49316-0.09082,0.68652-0.27246c2.84717-2.6875,6.39062-4.51855,10.24707-5.2959
	c4.70117-0.94922,9.43994-0.29785,13.70068,1.88477c0.4917,0.24902,1.09375,0.05664,1.3457-0.43457
	c0.25146-0.49219,0.05713-1.09473-0.43457-1.34668c-4.66748-2.38867-9.85449-3.10156-15.00732-2.06445
	C15.22705,2.32227,11.3457,4.32812,8.22607,7.27246z"/>
<path d="M46.51227,19.38898c-1.05261-5.12921-3.84558-9.78131-7.87701-13.10773c-0.4248-0.34961-1.05615-0.29004-1.40771,0.13477
	c-0.35156,0.42676-0.29102,1.05664,0.13525,1.4082c3.69775,3.05078,6.25732,7.3252,7.20703,12.03418
	c0.00409,0.02039,0.01672,0.03613,0.02197,0.05597c0.29651,1.49097,0.43323,3.0097,0.4043,4.5163
	c-0.01025,0.55273,0.42871,1.00879,0.98096,1.01953c0.00635,0,0.0127,0,0.01953,0c0.54346,0,0.98877-0.43555,0.99951-0.98047
	c0.03174-1.67188-0.12061-3.35742-0.45361-5.00879C46.53711,19.43433,46.51959,19.41461,46.51227,19.38898z"/>
<path d="M3.43066,28.1543c-0.00342-0.01709-0.01526-0.0296-0.01953-0.04633C2.3125,22.59509,3.4281,16.9903,6.55859,12.32031
	c0.30762-0.45898,0.18506-1.08008-0.27393-1.3877c-0.45801-0.30762-1.08008-0.18457-1.38721,0.27441
	C1.4585,16.33691,0.23682,22.49707,1.45752,28.55078c0.00549,0.0274,0.02185,0.04877,0.02948,0.07513
	c0.06232,0.30383,0.12915,0.60651,0.20294,0.90436c0.11279,0.45508,0.521,0.75977,0.96973,0.75977
	c0.07959,0,0.16064-0.00977,0.24121-0.0293c0.53613-0.13281,0.86328-0.6748,0.73047-1.21094
	C3.55811,28.75391,3.49121,28.45508,3.43066,28.1543z"/>
<path d="M24.98047,23.80859c-0.10938-0.54102-0.63477-0.89551-1.17822-0.7832c-0.5415,0.10938-0.8916,0.63672-0.78271,1.17773
	c1.47852,7.33203-0.50928,14.76465-5.45361,20.3916c-0.36426,0.41504-0.32324,1.04688,0.09131,1.41113
	c0.18994,0.16699,0.42529,0.24902,0.65967,0.24902c0.27783,0,0.5542-0.11523,0.75195-0.33984
	C24.42822,39.81445,26.58301,31.75684,24.98047,23.80859z"/>
<path d="M30.36182,22.68555c-0.89551-3.70801-4.04102-5.78613-7.6543-5.06055c-3.59766,0.72559-5.78076,4.01758-5.07861,7.65723
	c1.21582,6.30176-0.81592,12.64355-5.43555,16.96484c-0.40332,0.37793-0.42432,1.01074-0.04736,1.41406
	c0.37842,0.40234,1.01025,0.42383,1.41357,0.04688c5.12451-4.79395,7.37988-11.82422,6.0332-18.80469
	c-0.48828-2.5293,1.021-4.81543,3.51025-5.31738c2.58057-0.52246,4.66553,0.88086,5.31543,3.57227
	c1.68652,6.87793-0.14111,15.8252-4.54688,22.26465c-0.31201,0.45508-0.19531,1.07812,0.26025,1.38965
	c0.17285,0.11816,0.36963,0.1748,0.56396,0.1748c0.31885,0,0.63232-0.15234,0.82617-0.43555
	C30.22998,39.67188,32.1748,30.0791,30.36182,22.68555z"/>
<path d="M14.4624,27.93359c-0.03662-0.55078-0.52441-0.96094-1.06396-0.93164c-0.55127,0.03711-0.96826,0.51367-0.93115,1.06445
	c0.27295,4.0957-1.46924,8.10156-4.65967,10.71387c-0.42725,0.34961-0.48975,0.97949-0.14014,1.40723
	c0.19775,0.24121,0.48486,0.36621,0.77441,0.36621c0.22314,0,0.44727-0.07422,0.6333-0.22656
	C12.76465,37.30664,14.77832,32.67285,14.4624,27.93359z"/>
<path d="M12.04199,22.86816c-0.05225,0.5498,0.35156,1.03809,0.90137,1.08984c0.55273,0.07129,1.03711-0.35059,1.08984-0.90039
	c0.4126-4.35059,3.6958-7.99219,7.98438-8.85645c2.62109-0.5293,5.2876-0.00391,7.5127,1.47363
	c2.2085,1.46777,3.71875,3.70117,4.25781,6.29492c0.00293,0.02051,0.00635,0.04102,0.01025,0.06152
	c0.27051,1.33789,0.46338,2.70117,0.57471,4.05078C34.41602,26.60449,34.85352,27,35.36865,27
	c0.02734,0,0.05518-0.00098,0.08301-0.00293c0.55029-0.0459,0.95996-0.52832,0.91455-1.0791
	c-0.11572-1.40527-0.31543-2.82422-0.59424-4.21875c-0.00293-0.02148-0.00635-0.04297-0.01074-0.06445
	c-1.30908-6.48828-7.65039-10.7002-14.13916-9.39453C16.47705,13.27734,12.5376,17.64746,12.04199,22.86816z"/>
<path d="M35.48877,30.00195c-0.54736-0.02441-1.02441,0.38867-1.05664,0.93945c-0.26709,4.58301-1.42725,9.00879-3.44727,13.1543
	c-0.24219,0.49707-0.03564,1.0957,0.46094,1.33789c0.14111,0.06836,0.29004,0.10059,0.43701,0.10059
	c0.37061,0,0.72656-0.20605,0.8999-0.56152c2.13672-4.38574,3.36328-9.06641,3.64648-13.91406
	C36.46094,30.50684,36.04004,30.03418,35.48877,30.00195z"/>
<path d="M8.81201,27.06836c-0.0083-0.04102-0.01953-0.08203-0.03271-0.12109c-1.49268-7.71484,2.99609-15.30859,10.48438-17.69824
	c0.52588-0.16797,0.81641-0.73145,0.64844-1.25684c-0.16846-0.52637-0.73145-0.81738-1.25684-0.64941
	c-8.5,2.71289-13.57861,11.36426-11.8125,20.12207c0.0083,0.04004,0.01855,0.0791,0.03125,0.11719
	c0.47217,2.55664-0.46143,5.17773-2.45361,6.86621c-0.42139,0.35645-0.47363,0.98828-0.11621,1.40918
	c0.19775,0.2334,0.47949,0.35352,0.76318,0.35352c0.22852,0,0.45801-0.07812,0.646-0.2373
	C8.29199,33.78906,9.479,30.37598,8.81201,27.06836z"/>
<path d="M41.13135,20.47656C39.4624,12.375,32.27637,6.50684,24.0127,6.50684c-0.00439,0-0.00928,0-0.01367,0
	c-0.55225,0-0.99951,0.44824-0.99902,1.00098c0.00049,0.55176,0.44824,0.99902,1,0.99902c-0.00195,0.00098,0.00781,0,0.0127,0
	c7.33887,0,13.71875,5.22852,15.17236,12.43652c0.00488,0.02441,0.01074,0.04785,0.01709,0.07031
	c1.22119,6.10938,1.03125,12.24023-0.56445,18.22559c-0.14209,0.53418,0.1748,1.08203,0.7085,1.22363
	c0.08643,0.02344,0.17334,0.03418,0.2583,0.03418c0.44189,0,0.84668-0.29492,0.96582-0.74219
	c1.68164-6.30762,1.87646-12.76953,0.57861-19.20508C41.14355,20.52441,41.1377,20.50098,41.13135,20.47656z"/>
</svg>
