<?xml version="1.0" encoding="utf-8"?>
<!-- Generator: Adobe Illustrator 19.1.0, SVG Export Plug-In . SVG Version: 6.00 Build 0)  -->
<!DOCTYPE svg PUBLIC "-//W3C//DTD SVG 1.1//EN" "http://www.w3.org/Graphics/SVG/1.1/DTD/svg11.dtd">
<svg version="1.1" id="Layer_1" xmlns="http://www.w3.org/2000/svg" xmlns:xlink="http://www.w3.org/1999/xlink" x="0px" y="0px"
	 width="48px" height="48px" viewBox="0 0 48 48" enable-background="new 0 0 48 48" xml:space="preserve">
<path d="M12.81763,27.01843C11.24963,27.11475,10,28.40814,10,30v8c0,2.07471,1.18066,3.78662,2.32227,5.44189
	c0.65332,0.94727,1.3291,1.92725,1.75537,2.94434C14.2334,46.7583,14.59717,47,15,47h19c0.47119,0,0.87842-0.32861,0.97754-0.78906
	l3.26318-15.13037c0.51074-2.68311-1.25244-5.30273-3.93115-5.83838l-3.99603-0.79926C32.66718,21.87689,34,18.53534,34,15
	c0-7.71973-6.28027-14-14-14S6,7.28027,6,15C6,20.05707,8.66785,24.55096,12.81763,27.01843z M20,11c-2.20557,0-4,1.79443-4,4
	v5.72583C14.14758,19.43652,13,17.33124,13,15c0-3.85986,3.14014-7,7-7s7,3.14014,7,7c0,2.33124-1.14758,4.43658-3,5.7262V15
	C24,12.79443,22.20557,11,20,11z M36.28076,30.68262L33.19287,45H15.64111c-0.47852-0.9624-1.08398-1.84033-1.67236-2.69385
	C12.95605,40.83838,12,39.45215,12,38v-8c0-0.55127,0.44873-1,1-1h3v5c0,0.55225,0.44775,1,1,1s1-0.44775,1-1v-6v-5.58679
	c-0.00006-0.00604,0.00012-0.01178,0-0.01782V15c0-1.10303,0.89697-2,2-2s2,0.89697,2,2v7.40271c0,0.00043,0,0.00079,0,0.00122V24
	c0,0.47656,0.33643,0.88721,0.80371,0.98047l11.11328,2.22266C35.52441,27.5249,36.58252,29.09619,36.28076,30.68262z M20,3
	c6.6167,0,12,5.3833,12,12c0,3.4516-1.47998,6.68805-4.05359,8.96948L24,23.18018v-0.14386c3.05023-1.51526,5-4.58533,5-8.03632
	c0-4.9624-4.0376-9-9-9s-9,4.0376-9,9c0,3.45093,1.94965,6.52069,5,8.03613v3.27496C11.2337,24.63849,8,20.15881,8,15
	C8,8.3833,13.3833,3,20,3z"/>
</svg>
