<?xml version="1.0" encoding="utf-8"?>
<!-- Generator: Adobe Illustrator 19.1.0, SVG Export Plug-In . SVG Version: 6.00 Build 0)  -->
<!DOCTYPE svg PUBLIC "-//W3C//DTD SVG 1.1//EN" "http://www.w3.org/Graphics/SVG/1.1/DTD/svg11.dtd">
<svg version="1.1" id="Layer_1" xmlns="http://www.w3.org/2000/svg" xmlns:xlink="http://www.w3.org/1999/xlink" x="0px" y="0px"
	 width="48px" height="48px" viewBox="0 0 48 48" enable-background="new 0 0 48 48" xml:space="preserve">
<path d="M44.71472,10.85242c-0.00446-0.07666-0.00269-0.15295-0.02435-0.22632c-0.00171-0.0058-0.00006-0.01196-0.00189-0.0177
	l-2.48047-7.90771c-0.16504-0.52637-0.72852-0.82227-1.25293-0.65479c-0.52734,0.16504-0.82031,0.72656-0.65527,1.25342
	l1.75452,5.59338C36.51959,6.17651,30.39343,4.74561,24.1875,4.74561c-7.42383,0-14.67773,2.04004-20.97559,5.89941
	c-0.4707,0.28857-0.61914,0.9043-0.33008,1.375c0.18848,0.30811,0.5166,0.47754,0.85352,0.47754
	c0.17773,0,0.3584-0.04736,0.52148-0.14746c5.9834-3.6665,12.87598-5.60449,19.93066-5.60449
	c5.88403,0,11.69171,1.35095,16.94049,3.91876l-5.72565,1.76385c-0.52832,0.1626-0.82422,0.72217-0.66211,1.25
	c0.13281,0.42969,0.52832,0.70605,0.95605,0.70605c0.09668,0,0.19629-0.01465,0.29395-0.04492l8.03809-2.47607
	c0.05341-0.01636,0.09528-0.05334,0.14453-0.078c0.06232-0.03094,0.12701-0.0545,0.18225-0.09839
	c0.05542-0.04407,0.09357-0.1037,0.13855-0.15869c0.03571-0.0434,0.08112-0.07544,0.10986-0.12585
	c0.00305-0.00537,0.00262-0.01147,0.00555-0.01685c0.00256-0.00476,0.00757-0.00763,0.01007-0.01245
	c0.02936-0.05566,0.03442-0.11823,0.05261-0.17761c0.01898-0.06226,0.04846-0.12195,0.05493-0.18536
	C44.73218,10.95734,44.71771,10.90552,44.71472,10.85242z"/>
<path d="M5.66211,35.35352l4.10547-6.86719c0.13672-0.22852,0.35449-0.39062,0.61426-0.45605
	c0.25684-0.06641,0.52637-0.02637,0.75684,0.11133l2.57507,1.53949l-2.56531,4.29156
	c-0.2832,0.47363-0.12891,1.08789,0.3457,1.37109c0.16016,0.0957,0.33691,0.1416,0.51172,0.1416
	c0.33984,0,0.67188-0.17383,0.85938-0.4873l3.07812-5.14941l7.69727-12.875c0.56543-0.94629,1.7959-1.25684,2.74219-0.68994
	c0.94727,0.56592,1.25684,1.79688,0.69043,2.74316l-5.64453,9.44189c-0.24414,0.40918-0.16602,0.93359,0.18652,1.25391
	l8.39941,7.61035c1.21387,1.10059,1.31641,2.99121,0.22656,4.21582l-3.36719,3.78711
	c-0.36719,0.41211-0.33008,1.04395,0.08203,1.41113C27.14746,46.91699,27.38477,47,27.62109,47
	c0.27539,0,0.5498-0.11328,0.74707-0.33496l3.36719-3.78613c1.81641-2.04102,1.64648-5.19434-0.37793-7.02832l-7.79102-7.05957
	l5.22363-8.73779c1.13184-1.89258,0.5127-4.354-1.38086-5.48633c-1.89453-1.13135-4.35449-0.51221-5.48535,1.38086
	l-7.18359,12.01709l-2.5752-1.54004c-0.68848-0.41016-1.49609-0.5293-2.27148-0.33398
	c-0.77734,0.19531-1.43164,0.68164-1.84277,1.37012l-4.10547,6.86719c-1.05078,1.75781-0.7666,3.86621-0.49219,5.9043
	c0.26465,1.95703,0.51367,3.80469-0.34668,5.24414c-0.2832,0.47363-0.12891,1.08789,0.3457,1.37109
	c0.4707,0.28125,1.08691,0.12793,1.37109-0.3457c1.21875-2.03906,0.89648-4.42871,0.6123-6.53613
	C5.19629,38.18945,4.96973,36.51172,5.66211,35.35352z"/>
</svg>
