<?xml version="1.0" encoding="utf-8"?>
<!-- Generator: Adobe Illustrator 19.1.0, SVG Export Plug-In . SVG Version: 6.00 Build 0)  -->
<!DOCTYPE svg PUBLIC "-//W3C//DTD SVG 1.1//EN" "http://www.w3.org/Graphics/SVG/1.1/DTD/svg11.dtd">
<svg version="1.1" id="Layer_1" xmlns="http://www.w3.org/2000/svg" xmlns:xlink="http://www.w3.org/1999/xlink" x="0px" y="0px"
	 width="48px" height="48px" viewBox="0 0 48 48" enable-background="new 0 0 48 48" xml:space="preserve">
<path d="M8,22.24487V25H5c-1.6543,0-3,1.3457-3,3v8c0,2.04834,1.32568,3.71191,2.60742,5.3208C5.83789,42.86475,7,44.32275,7,46
	c0,0.55225,0.44775,1,1,1h18c0.47998,0,0.89258-0.34131,0.98242-0.81299l3.2583-17.10645
	c0.51074-2.68311-1.25244-5.30273-3.93115-5.83838l-8.74835-1.74976C20.88794,19.55396,23,15.9881,23,12c0-6.06543-4.93457-11-11-11
	S1,5.93457,1,12C1,16.58099,3.78516,20.60669,8,22.24487z M28.27588,28.70654L25.17236,45H8.91113
	c-0.3418-1.9165-1.60547-3.50244-2.73926-4.92578C5.05469,38.67285,4,37.34863,4,36v-8c0-0.55127,0.44873-1,1-1h3v5
	c0,0.55225,0.44775,1,1,1s1-0.44775,1-1v-6V13c0-1.10303,0.89697-2,2-2s2,0.89697,2,2v9c0,0.47656,0.33643,0.88721,0.80371,0.98047
	l11.11328,2.22266C27.52441,25.5249,28.58252,27.09619,28.27588,28.70654z M12,3c4.9624,0,9,4.0376,9,9
	c0,3.47888-1.96155,6.5672-5,8.06525V13c0-2.20557-1.79443-4-4-4s-4,1.79443-4,4v7.06494C4.96191,18.56696,3,15.4787,3,12
	C3,7.0376,7.0376,3,12,3z"/>
<path d="M37,1c-5.51416,0-10,4.48584-10,10s4.48584,10,10,10s10-4.48584,10-10S42.51416,1,37,1z M37,19c-4.41113,0-8-3.58887-8-8
	s3.58887-8,8-8s8,3.58887,8,8S41.41113,19,37,19z"/>
<path d="M40,10h-2V8c0-0.55225-0.44775-1-1-1s-1,0.44775-1,1v3c0,0.55225,0.44775,1,1,1h3c0.55225,0,1-0.44775,1-1
	S40.55225,10,40,10z"/>
</svg>
