<?xml version="1.0" encoding="utf-8"?>
<!-- Generator: Adobe Illustrator 19.1.0, SVG Export Plug-In . SVG Version: 6.00 Build 0)  -->
<!DOCTYPE svg PUBLIC "-//W3C//DTD SVG 1.1//EN" "http://www.w3.org/Graphics/SVG/1.1/DTD/svg11.dtd">
<svg version="1.1" id="Layer_1" xmlns="http://www.w3.org/2000/svg" xmlns:xlink="http://www.w3.org/1999/xlink" x="0px" y="0px"
	 width="48px" height="48px" viewBox="0 0 48 48" enable-background="new 0 0 48 48" xml:space="preserve">
<path d="M18,7c0,3.30859,2.69141,6,6,6s6-2.69141,6-6s-2.69141-6-6-6S18,3.69141,18,7z M28,7c0,2.20557-1.79395,4-4,4
	s-4-1.79443-4-4s1.79395-4,4-4S28,4.79443,28,7z"/>
<path d="M40,1c-3.30859,0-6,2.69141-6,6s2.69141,6,6,6s6-2.69141,6-6S43.30859,1,40,1z M40,11c-2.20605,0-4-1.79443-4-4
	s1.79395-4,4-4s4,1.79443,4,4S42.20605,11,40,11z"/>
<path d="M40,18c-3.30859,0-6,2.69141-6,6s2.69141,6,6,6s6-2.69141,6-6S43.30859,18,40,18z M40,28c-2.20605,0-4-1.79395-4-4
	c0-2.20557,1.79395-4,4-4s4,1.79443,4,4C44,26.20605,42.20605,28,40,28z"/>
<path d="M14,41c0-3.30859-2.69141-6-6-6s-6,2.69141-6,6s2.69141,6,6,6S14,44.30859,14,41z M8,45c-2.20605,0-4-1.79395-4-4
	s1.79395-4,4-4s4,1.79395,4,4S10.20605,45,8,45z"/>
<path d="M40,35c-1.22888,0-2.37177,0.37256-3.3241,1.00885l-7.89893-8.39319C29.54089,26.60883,30,25.35852,30,24
	c0-3.30859-2.69141-6-6-6c-2.96722,0-5.43134,2.16687-5.90967,5h-4.18066C13.48639,20.49286,11.50714,18.51361,9,18.09033v-5.18066
	C11.83313,12.43134,14,9.96722,14,7c0-3.30859-2.69141-6-6-6S2,3.69141,2,7c0,2.96722,2.16687,5.43134,5,5.90967v5.18066
	C4.16687,18.56866,2,21.03278,2,24c0,3.30859,2.69141,6,6,6c2.96722,0,5.43134-2.16687,5.90967-5h4.18066
	c0.47833,2.83313,2.94244,5,5.90967,5c1.22888,0,2.37177-0.37256,3.3241-1.00885l7.89893,8.39319
	C34.65106,38.13818,34.25427,39.02881,34.09033,40h-4.18066C29.43134,37.16687,26.96722,35,24,35c-3.30859,0-6,2.69141-6,6
	s2.69141,6,6,6c2.96722,0,5.43134-2.16687,5.90967-5h4.18066c0.47833,2.83313,2.94244,5,5.90967,5c3.30859,0,6-2.69141,6-6
	S43.30859,35,40,35z M4,7c0-2.20557,1.79395-4,4-4s4,1.79443,4,4s-1.79395,4-4,4S4,9.20557,4,7z M8,28c-2.20605,0-4-1.79395-4-4
	c0-2.20557,1.79395-4,4-4s4,1.79443,4,4C12,26.20605,10.20605,28,8,28z M20,24c0-2.20557,1.79395-4,4-4s4,1.79443,4,4
	c0,2.20605-1.79395,4-4,4S20,26.20605,20,24z M24,45c-2.20605,0-4-1.79395-4-4s1.79395-4,4-4s4,1.79395,4,4S26.20605,45,24,45z
	 M40,45c-2.20605,0-4-1.79395-4-4s1.79395-4,4-4s4,1.79395,4,4S42.20605,45,40,45z"/>
</svg>
