<?xml version="1.0" encoding="utf-8"?>
<!-- Generator: Adobe Illustrator 19.1.0, SVG Export Plug-In . SVG Version: 6.00 Build 0)  -->
<!DOCTYPE svg PUBLIC "-//W3C//DTD SVG 1.1//EN" "http://www.w3.org/Graphics/SVG/1.1/DTD/svg11.dtd">
<svg version="1.1" id="Layer_1" xmlns="http://www.w3.org/2000/svg" xmlns:xlink="http://www.w3.org/1999/xlink" x="0px" y="0px"
	 width="48px" height="48px" viewBox="0 0 48 48" enable-background="new 0 0 48 48" xml:space="preserve">
<path d="M10,28v8c0,2.04834,1.32568,3.71191,2.60742,5.3208C13.83789,42.86475,15,44.32275,15,46c0,0.55225,0.44775,1,1,1h18
	c0.47998,0,0.89258-0.34131,0.98242-0.81299l3.2583-17.10645c0.51074-2.68311-1.25244-5.30273-3.93115-5.83838L24,21.18018V13
	c0-2.20557-1.79443-4-4-4s-4,1.79443-4,4v12h-3C11.3457,25,10,26.3457,10,28z M18,13c0-1.10303,0.89697-2,2-2s2,0.89697,2,2v9
	c0,0.47656,0.33643,0.88721,0.80371,0.98047l11.11328,2.22266c1.60742,0.32178,2.66553,1.89307,2.35889,3.50342L33.17236,45
	H16.91113c-0.3418-1.9165-1.60547-3.50244-2.73926-4.92578C13.05469,38.67285,12,37.34863,12,36v-8c0-0.55127,0.44873-1,1-1h3v5
	c0,0.55225,0.44775,1,1,1s1-0.44775,1-1v-6V13z"/>
<path d="M20,6c0.55225,0,1-0.44775,1-1V2c0-0.55225-0.44775-1-1-1s-1,0.44775-1,1v3C19,5.55225,19.44775,6,20,6z"/>
<path d="M25.65674,8.34326c0.25586,0,0.51172-0.09766,0.70703-0.29297l2.12158-2.12158c0.39062-0.39062,0.39062-1.02344,0-1.41406
	s-1.02344-0.39062-1.41406,0l-2.12158,2.12158c-0.39062,0.39062-0.39062,1.02344,0,1.41406
	C25.14502,8.24561,25.40088,8.34326,25.65674,8.34326z"/>
<path d="M27,13c0,0.55225,0.44775,1,1,1h3c0.55225,0,1-0.44775,1-1s-0.44775-1-1-1h-3C27.44775,12,27,12.44775,27,13z"/>
<path d="M13.63623,8.05029c0.19531,0.19531,0.45117,0.29297,0.70703,0.29297s0.51172-0.09766,0.70703-0.29297
	c0.39062-0.39062,0.39062-1.02344,0-1.41406l-2.12158-2.12158c-0.39062-0.39062-1.02344-0.39062-1.41406,0
	s-0.39062,1.02344,0,1.41406L13.63623,8.05029z"/>
<path d="M9,14h3c0.55225,0,1-0.44775,1-1s-0.44775-1-1-1H9c-0.55225,0-1,0.44775-1,1S8.44775,14,9,14z"/>
</svg>
