<?xml version="1.0" encoding="utf-8"?>
<!-- Generator: Adobe Illustrator 19.1.0, SVG Export Plug-In . SVG Version: 6.00 Build 0)  -->
<!DOCTYPE svg PUBLIC "-//W3C//DTD SVG 1.1//EN" "http://www.w3.org/Graphics/SVG/1.1/DTD/svg11.dtd">
<svg version="1.1" id="Layer_1" xmlns="http://www.w3.org/2000/svg" xmlns:xlink="http://www.w3.org/1999/xlink" x="0px" y="0px"
	 width="48px" height="48px" viewBox="0 0 48 48" enable-background="new 0 0 48 48" xml:space="preserve">
<path d="M3.83795,11.79108c0.0459,0.02228,0.08429,0.05707,0.13373,0.0722l8.03809,2.47607
	c0.09766,0.03027,0.19629,0.04492,0.29395,0.04492c0.42773,0,0.82324-0.27637,0.95605-0.70605
	c0.16211-0.52783-0.13379-1.0874-0.66211-1.25l-5.72565-1.76385c5.24878-2.56781,11.05646-3.91876,16.94049-3.91876
	c7.05469,0,13.94727,1.93799,19.93066,5.60449c0.16309,0.1001,0.34375,0.14746,0.52148,0.14746
	c0.33691,0,0.66504-0.16943,0.85352-0.47754c0.28906-0.4707,0.14062-1.08643-0.33008-1.375
	C38.49023,6.78564,31.23633,4.74561,23.8125,4.74561c-6.20593,0-12.33203,1.43097-17.86688,4.14716L7.7002,3.29932
	C7.86523,2.77246,7.57227,2.21094,7.04492,2.0459C6.51465,1.87793,5.95703,2.17432,5.79199,2.70068L3.31152,10.6084
	c-0.00183,0.00574-0.00018,0.0119-0.00189,0.0177c-0.02167,0.07336-0.0199,0.14966-0.02435,0.22632
	c-0.00299,0.0531-0.01746,0.10492-0.01196,0.15765c0.00647,0.06342,0.03595,0.12311,0.05493,0.18536
	c0.01819,0.05939,0.02325,0.12195,0.05261,0.17761c0.0025,0.00482,0.00751,0.00769,0.01007,0.01245
	c0.00293,0.00537,0.0025,0.01147,0.00555,0.01685c0.02942,0.0517,0.07568,0.08459,0.1123,0.12885
	c0.04413,0.05359,0.08118,0.11212,0.13531,0.15527C3.70276,11.73328,3.77124,11.75897,3.83795,11.79108z"/>
<path d="M42.99023,28.54004c-0.61621-2.66211-3.28906-4.34473-5.95508-3.75342l-10.26367,2.27686l-4.11133-9.31299
	c-0.43164-0.97754-1.21777-1.72852-2.21387-2.11475c-0.99805-0.38574-2.08301-0.36084-3.06152,0.0708
	c-2.01758,0.89111-2.93457,3.25684-2.04395,5.27441l5.6543,12.80811L18.25,35c-1.5127,0.66895-2.2002,2.44336-1.53223,3.95703
	l3.23047,7.31836c0.16504,0.37305,0.53125,0.5957,0.91602,0.5957c0.13477,0,0.27148-0.02734,0.40332-0.08496
	c0.50488-0.22363,0.7334-0.81348,0.51074-1.31934l-3.23047-7.31836c-0.22266-0.50391,0.00586-1.0957,0.51074-1.31836
	l2.74384-1.21118l2.01984,4.57349c0.16504,0.37402,0.53125,0.5957,0.91602,0.5957c0.13477,0,0.27148-0.02734,0.40332-0.08496
	c0.50488-0.22363,0.7334-0.81348,0.51074-1.31934l-2.42383-5.48828L17.1709,20.17334
	c-0.44531-1.00879,0.01367-2.19189,1.02148-2.63721c0.49023-0.21484,1.03125-0.229,1.53125-0.03516
	c0.49805,0.19287,0.89062,0.56836,1.10645,1.05713l4.44238,10.06299c0.19238,0.43555,0.66309,0.67188,1.13184,0.57227
	l11.06445-2.4541c1.60059-0.35938,3.20312,0.6543,3.57227,2.25195l3.92773,16.96484c0.12598,0.53809,0.66406,0.87598,1.2002,0.74902
	c0.53809-0.125,0.87305-0.66211,0.74902-1.2002L42.99023,28.54004z"/>
</svg>
