<?xml version="1.0" encoding="utf-8"?>
<!-- Generator: Adobe Illustrator 19.1.0, SVG Export Plug-In . SVG Version: 6.00 Build 0)  -->
<!DOCTYPE svg PUBLIC "-//W3C//DTD SVG 1.1//EN" "http://www.w3.org/Graphics/SVG/1.1/DTD/svg11.dtd">
<svg version="1.1" id="Layer_1" xmlns="http://www.w3.org/2000/svg" xmlns:xlink="http://www.w3.org/1999/xlink" x="0px" y="0px"
	 width="48px" height="48px" viewBox="0 0 48 48" enable-background="new 0 0 48 48" xml:space="preserve">
<path d="M8.29211,26.70618c0.09235,0.09259,0.20306,0.16589,0.32581,0.21667C8.74011,26.97339,8.86981,27,9,27
	s0.25989-0.02655,0.38208-0.07709c0.12274-0.05084,0.23346-0.12415,0.32581-0.21674l5.99915-5.99915
	c0.39062-0.39062,0.39062-1.02344,0-1.41406s-1.02344-0.39062-1.41406,0L10,23.58594V5c0-0.55225-0.44727-1-1-1S8,4.44775,8,5
	v18.58594l-4.29297-4.29297c-0.39062-0.39062-1.02344-0.39062-1.41406,0s-0.39062,1.02344,0,1.41406L8.29211,26.70618z"/>
<path d="M22,44c0,0.55225,0.44727,1,1,1h18c0.48047,0,0.89258-0.34131,0.98242-0.81299l3.25879-17.10645
	c0.51074-2.68359-1.25293-5.30273-3.93164-5.83838L31,19.18018V9c0-2.20557-1.79395-4-4-4s-4,1.79443-4,4v14h-3
	c-1.6543,0-3,1.3457-3,3v8c0,2.04834,1.3252,3.71191,2.60742,5.3208C20.83789,40.86475,22,42.32275,22,44z M19,26
	c0-0.55127,0.44824-1,1-1h3v5c0,0.55225,0.44727,1,1,1s1-0.44775,1-1v-6V9c0-1.10303,0.89746-2,2-2s2,0.89697,2,2v11
	c0,0.47656,0.33691,0.88721,0.80371,0.98047l11.11328,2.22266c1.60742,0.32178,2.66602,1.89355,2.35938,3.50342L40.17285,43
	H23.91113c-0.3418-1.9165-1.60547-3.50244-2.73926-4.92578C20.05469,36.67285,19,35.34863,19,34V26z"/>
</svg>
