<?xml version="1.0" encoding="utf-8"?>
<!-- Generator: Adobe Illustrator 19.1.0, SVG Export Plug-In . SVG Version: 6.00 Build 0)  -->
<!DOCTYPE svg PUBLIC "-//W3C//DTD SVG 1.1//EN" "http://www.w3.org/Graphics/SVG/1.1/DTD/svg11.dtd">
<svg version="1.1" id="Layer_1" xmlns="http://www.w3.org/2000/svg" xmlns:xlink="http://www.w3.org/1999/xlink" x="0px" y="0px"
	 width="48px" height="48px" viewBox="0 0 48 48" enable-background="new 0 0 48 48" xml:space="preserve">
<path d="M15.00977,1.02295c-0.5166-0.19189-1.09277,0.07324-1.28467,0.59131L10.98492,9.0293l-1.92194-4.1665
	c-0.23193-0.50146-0.82471-0.7207-1.32715-0.48926C7.23438,4.60498,7.01562,5.19922,7.24658,5.70068l2.93213,6.35645
	c0.05048,0.10931,0.12207,0.20007,0.20227,0.28076c0.02234,0.02264,0.04755,0.04047,0.0722,0.06104
	c0.07288,0.06049,0.15161,0.10931,0.23755,0.14673c0.01825,0.008,0.03052,0.0235,0.0495,0.03052
	c0.01044,0.00385,0.02118,0.0022,0.03162,0.00568c0.09692,0.03241,0.19727,0.05261,0.3006,0.0542
	c0.00482,0.00006,0.00964,0.00262,0.01447,0.00262c0.13055,0,0.2547-0.034,0.37323-0.08228
	c0.01495-0.00604,0.03088-0.00317,0.04572-0.01001l6.35645-2.93213c0.50146-0.23145,0.72021-0.82568,0.48926-1.32715
	c-0.23145-0.50098-0.82568-0.7207-1.32715-0.48926l-4.16162,1.91968l2.73828-7.40991
	C15.79248,1.78955,15.52783,1.21436,15.00977,1.02295z"/>
<path d="M2.97852,21.36914l4.15747-1.91815l-2.74976,7.40985c-0.19238,0.51807,0.07178,1.09375,0.58936,1.28564
	c0.11475,0.04248,0.23242,0.06299,0.34814,0.06299c0.40576,0,0.78809-0.24951,0.9375-0.65234l2.75494-7.42383l1.92377,4.17041
	c0.16895,0.36572,0.53076,0.58105,0.90869,0.58105c0.14014,0,0.28271-0.0293,0.41846-0.0918
	c0.50146-0.23145,0.72021-0.82568,0.48926-1.32715l-2.93213-6.35596c-0.00671-0.01453-0.0199-0.02307-0.02716-0.03711
	c-0.05273-0.10187-0.11725-0.19781-0.2027-0.27698c-0.07855-0.07257-0.17206-0.12213-0.26782-0.16583
	c-0.02283-0.01044-0.03845-0.02979-0.06238-0.03864c-0.00061-0.00024-0.00122-0.00006-0.00183-0.00031
	c-0.12244-0.04517-0.25348-0.06519-0.38586-0.06006c-0.10516,0.00433-0.20477,0.03564-0.30212,0.07141
	c-0.02551,0.00928-0.05219,0.00671-0.07727,0.01825l-6.35645,2.93213c-0.50146,0.23145-0.72021,0.82568-0.48926,1.32715
	C1.88281,21.38086,2.47656,21.59961,2.97852,21.36914z"/>
<path d="M42.96729,46.25439l3.26904-12.42236c1.10889-4.21533-1.29785-8.48096-5.47949-9.71094l-9.32471-2.74219
	c-0.66943-3.63135-1.89697-7.11475-3.32959-9.41797c-1.06201-1.70752-3.2124-2.41455-5.00195-1.64746
	c-1.09131,0.46875-1.91602,1.38086-2.2627,2.50293c-0.34717,1.12207-0.18555,2.33447,0.44336,3.32617
	c1.45117,2.28711,2.32666,7.92676,1.95215,12.57227c-0.04688,0.58203-0.51318,0.78711-0.65479,0.83643
	c-0.146,0.05176-0.65918,0.18408-1.0752-0.26465l-1.9082-2.05859c-0.82422-0.87451-1.93994-1.37598-3.1416-1.41113
	c-1.18799-0.03516-2.34473,0.39893-3.21973,1.22363c-0.87451,0.82422-1.37598,1.93994-1.41113,3.14111
	c-0.03564,1.20166,0.39893,2.34473,1.15869,3.14355l10.22607,13.28467C23.39697,46.85596,23.68945,47,24,47h18
	C42.4541,47,42.85156,46.69385,42.96729,46.25439z M24.49219,45l-9.99072-12.9707c-0.45801-0.48584-0.69971-1.12109-0.67969-1.78857
	c0.01953-0.66748,0.29785-1.28711,0.78418-1.74512s1.14404-0.69727,1.78857-0.67969c0.66748,0.01953,1.2876,0.29785,1.73975,0.77783
	l1.90234,2.05225c0.82324,0.88818,2.04883,1.19287,3.19727,0.79492c1.1333-0.39307,1.89697-1.37598,1.99268-2.56543
	c0.41846-5.18311-0.55176-11.11768-2.25635-13.8042c-0.31494-0.49561-0.39551-1.10254-0.22168-1.66406
	c0.17578-0.56934,0.58154-1.01562,1.14111-1.25586c0.88818-0.38184,1.97021-0.00928,2.51465,0.86621
	c1.38281,2.22266,2.56543,5.70264,3.16357,9.30908c0.0625,0.37842,0.33643,0.6875,0.7041,0.7959l9.92041,2.91748
	c3.13623,0.92236,4.94141,4.12158,4.10938,7.2832L41.229,45H24.49219z"/>
</svg>
