<?xml version="1.0" encoding="utf-8"?>
<!-- Generator: Adobe Illustrator 19.1.0, SVG Export Plug-In . SVG Version: 6.00 Build 0)  -->
<!DOCTYPE svg PUBLIC "-//W3C//DTD SVG 1.1//EN" "http://www.w3.org/Graphics/SVG/1.1/DTD/svg11.dtd">
<svg version="1.1" id="Layer_1" xmlns="http://www.w3.org/2000/svg" xmlns:xlink="http://www.w3.org/1999/xlink" x="0px" y="0px"
	 width="64px" height="64px" viewBox="0 0 64 64" enable-background="new 0 0 64 64" xml:space="preserve">
<path data-color="color-2" fill="#444444" d="M13.46527,11.87628c4.56848-2.06763,9.49658-3.38635,14.46051-3.82599
	c8.08789-0.71582,16.19727,0.80615,23.43457,4.40479c0.98926,0.49268,2.18945,0.08789,2.68164-0.8999
	c0.49121-0.98926,0.08887-2.18945-0.90039-2.68115c-7.89648-3.92773-16.73828-5.5918-25.56934-4.80811
	C21.95746,4.56317,16.3858,6.09167,11.25122,8.49469L8.35254,4.06738C8.13184,3.73096,7.7334,3.55518,7.33496,3.63184
	C6.93848,3.70459,6.625,4.00781,6.53906,4.40137l-2.08105,9.50049c-0.05762,0.25977-0.00781,0.53174,0.13574,0.75537
	c0.14453,0.22363,0.37207,0.38086,0.63184,0.43652l9.65137,2.06201c0.06934,0.01465,0.13965,0.02197,0.20898,0.02197
	c0.3252,0,0.63574-0.15918,0.8252-0.43457c0.22852-0.33447,0.2334-0.77393,0.01172-1.11328L13.46527,11.87628z"/>
<path fill="#444444" d="M52.24384,29.24677c-1.70752,0.59076-2.24548,1.92834-2.41364,2.77594
	c-0.03625,0.18268-0.27777,0.20398-0.36444,0.03912c-0.74213-1.41211-2.31207-2.35101-3.85229-1.89624
	c-2.07831,0.61359-2.58313,2.26416-2.68872,3.29633c-0.01996,0.19568-0.28357,0.24146-0.37653,0.06812
	c-0.60126-1.12042-1.94635-2.93719-4.1261-2.29358c-1.7074,0.50415-2.29022,1.88513-2.48035,2.86896
	c-0.03992,0.20618-0.32385,0.2265-0.3833,0.02502c-0.88904-3.01105-3.48236-11.79431-4.60767-15.60541
	c-0.53668-1.81763-2.3775-3.04083-4.22076-2.59998c-1.96576,0.47015-3.11261,2.48267-2.54755,4.39636l6.93774,23.49719
	c0.15637,0.52966-0.14624,1.08588-0.6759,1.24225s-1.08588-0.14624-1.24225-0.6759l-1.13269-3.83624l-1.91815,0.56635
	c-1.58905,0.46918-2.49683,2.13763-2.02765,3.72668l1.98218,6.7135C27.42725,56.03082,34.91449,58.32349,36,62h25l-4.76917-30.21271
	C55.95514,29.90161,54.0448,28.6236,52.24384,29.24677z"/>
</svg>
