<?xml version="1.0" encoding="utf-8"?>
<!-- Generator: Adobe Illustrator 19.1.0, SVG Export Plug-In . SVG Version: 6.00 Build 0)  -->
<!DOCTYPE svg PUBLIC "-//W3C//DTD SVG 1.1//EN" "http://www.w3.org/Graphics/SVG/1.1/DTD/svg11.dtd">
<svg version="1.1" id="Layer_1" xmlns="http://www.w3.org/2000/svg" xmlns:xlink="http://www.w3.org/1999/xlink" x="0px" y="0px"
	 width="64px" height="64px" viewBox="0 0 64 64" enable-background="new 0 0 64 64" xml:space="preserve">
<path data-color="color-2" fill="#444444" d="M24.70215,42.48193c-0.92969-2.21631-0.94141-4.6626-0.03125-6.88818
	c0.91113-2.2251,2.63379-3.9624,4.85059-4.89209c1.1084-0.46436,2.27539-0.69922,3.46973-0.69922
	c3.64258,0,6.90527,2.16602,8.31055,5.51855l3.20178,7.74646C45.47192,41.3324,46,39.18591,46,37
	c0-7.039-5.22681-12.86462-12-13.84027V13h6c0.39355,0,0.75098-0.23096,0.91211-0.59033s0.09668-0.77979-0.16504-1.07422l-8-9
	c-0.37891-0.42676-1.11523-0.42676-1.49414,0l-8,9c-0.26172,0.29443-0.32617,0.71484-0.16504,1.07422S23.60645,13,24,13h6v10.15973
	C23.22681,24.13538,18,29.961,18,37c0,6.27069,4.21564,11.66504,10.02399,13.40369L24.70215,42.48193z"/>
<path fill="#444444" d="M49.92383,61.61816l-10.4668-25.32373c-1.49219-3.55957-5.60352-5.23877-9.16211-3.74854
	c-1.72461,0.72314-3.06445,2.07471-3.77246,3.80518c-0.70801,1.73096-0.69922,3.6333,0.02441,5.35742l8.66992,20.67578
	c0.15527,0.37158,0.51855,0.61328,0.92188,0.61328L49,63c0.33398,0,0.64551-0.1665,0.83105-0.44385
	C50.0166,62.27832,50.05176,61.92676,49.92383,61.61816z M37.80597,40.29706c-0.70154,0.64948-1.78015,1.47211-3.26514,2.06787
	c-1.54437,0.61957-2.94611,0.76025-3.92798,0.76343c-0.41742,0.00128-0.79266-0.24713-0.94501-0.63574l-0.60114-1.53296
	c-0.85797-2.18805-0.02448-4.76935,2.07227-5.83118c2.40533-1.21802,5.27551-0.08386,6.23602,2.36566l0.67126,1.71185
	C38.19556,39.58673,38.10608,40.01923,37.80597,40.29706z"/>
</svg>
