<?xml version="1.0" encoding="utf-8"?>
<!-- Generator: Adobe Illustrator 19.1.0, SVG Export Plug-In . SVG Version: 6.00 Build 0)  -->
<!DOCTYPE svg PUBLIC "-//W3C//DTD SVG 1.1//EN" "http://www.w3.org/Graphics/SVG/1.1/DTD/svg11.dtd">
<svg version="1.1" id="Layer_1" xmlns="http://www.w3.org/2000/svg" xmlns:xlink="http://www.w3.org/1999/xlink" x="0px" y="0px"
	 width="64px" height="64px" viewBox="0 0 64 64" enable-background="new 0 0 64 64" xml:space="preserve">
<path data-color="color-2" fill="#444444" d="M30,1H20c-0.4043,0-0.76904,0.24365-0.92383,0.61719
	c-0.15479,0.37402-0.06934,0.80371,0.2168,1.08984l3.58594,3.58594L6.29297,22.87891l-3.58594-3.58594
	c-0.28613-0.28711-0.71582-0.37207-1.08984-0.2168C1.24365,19.23096,1,19.5957,1,20v10c0,0.55225,0.44775,1,1,1h10
	c0.4043,0,0.76904-0.24365,0.92383-0.61719c0.15479-0.37402,0.06934-0.80371-0.2168-1.08984l-3.58594-3.58594L25.70703,9.12109
	l3.58594,3.58594C29.48438,12.89844,29.73975,13,30,13c0.12891,0,0.25879-0.0249,0.38281-0.07617
	C30.75635,12.76904,31,12.4043,31,12V2C31,1.44775,30.55225,1,30,1z"/>
<path fill="#444444" d="M55.9505,36.3938c-1.08276-2.24597-3.2912-3.2774-6.73083-2.84497l-0.00513,0.01025
	c-1.26538-1.41339-3.24225-2.22516-6.2016-1.95306l-0.00513,0.00922c-0.8183-4.64935-2.34204-8.95978-4.07068-11.73846
	c-0.98737-1.58722-3.00635-2.31799-4.72388-1.58014c-2.1972,0.94385-2.94781,3.56635-1.72156,5.49878
	c2.04504,3.22278,3.12775,10.59857,2.64539,16.57788c-0.17474,2.16583-2.87201,3.06543-4.3493,1.47205l-2.3916-2.57953
	c-1.66656-1.76813-4.45105-1.85046-6.21918-0.18384s-1.85046,4.45105-0.18384,6.21918L34.84772,62H57.474l4.10913-15.61493
	C62.78375,41.823,61.88422,36.87518,55.9505,36.3938z"/>
</svg>
