<?xml version="1.0" encoding="utf-8"?>
<!-- Generator: Adobe Illustrator 19.1.0, SVG Export Plug-In . SVG Version: 6.00 Build 0)  -->
<!DOCTYPE svg PUBLIC "-//W3C//DTD SVG 1.1//EN" "http://www.w3.org/Graphics/SVG/1.1/DTD/svg11.dtd">
<svg version="1.1" id="Layer_1" xmlns="http://www.w3.org/2000/svg" xmlns:xlink="http://www.w3.org/1999/xlink" x="0px" y="0px"
	 width="64px" height="64px" viewBox="0 0 64 64" enable-background="new 0 0 64 64" xml:space="preserve">
<polygon fill="#444444" points="58,30 58,4 54,4 54,30 51,30 51,4 45,4 45,30 42,30 42,4 36,4 36,30 33,30 33,4 30,4 30,30 27,30 
	27,4 24,4 24,30 21,30 21,4 13,4 13,30 10,30 10,4 6,4 6,30 0,30 0,34 64,34 64,30 "/>
<rect data-color="color-2" x="6" y="36" fill="#444444" width="4" height="24"/>
<rect data-color="color-2" x="54" y="36" fill="#444444" width="4" height="24"/>
<rect data-color="color-2" x="36" y="36" fill="#444444" width="6" height="24"/>
<rect data-color="color-2" x="45" y="36" fill="#444444" width="6" height="24"/>
<rect data-color="color-2" x="30" y="36" fill="#444444" width="3" height="24"/>
<rect data-color="color-2" x="13" y="36" fill="#444444" width="8" height="24"/>
<rect data-color="color-2" x="24" y="36" fill="#444444" width="3" height="24"/>
</svg>
