<?xml version="1.0" encoding="utf-8"?>
<!-- Generator: Adobe Illustrator 19.1.0, SVG Export Plug-In . SVG Version: 6.00 Build 0)  -->
<!DOCTYPE svg PUBLIC "-//W3C//DTD SVG 1.1//EN" "http://www.w3.org/Graphics/SVG/1.1/DTD/svg11.dtd">
<svg version="1.1" id="Layer_1" xmlns="http://www.w3.org/2000/svg" xmlns:xlink="http://www.w3.org/1999/xlink" x="0px" y="0px"
	 width="64px" height="64px" viewBox="0 0 64 64" enable-background="new 0 0 64 64" xml:space="preserve">
<path fill="#444444" d="M54.31838,29.00983c-1.76017,0.10755-2.63766,1.21948-3.03396,1.97527
	c-0.08649,0.16492-0.32416,0.11694-0.3606-0.06567c-0.31189-1.56451-1.5517-2.90955-3.15765-2.90955
	c-2.16699,0-3.11853,1.44006-3.51208,2.40009c-0.04584,0.11182-0.16058,0.13489-0.25409,0.0979l0-18.33814
	c0-1.62448-1.21643-3.08055-2.83868-3.16549C39.43121,8.91365,38,10.28968,38,12v18c0,0.55228-0.44772,1-1,1l0,0
	c-0.55228,0-1-0.44772-1-1l0-16.83027c0-1.62448-1.21643-3.08055-2.83868-3.16549C31.43121,9.91365,30,11.28968,30,13v24
	c0,0.55225-0.44775,1-1,1s-1-0.44775-1-1v-4h-2c-1.65685,0-3,1.34315-3,3v7c0,4.66663,7,10.16663,7,14h24l3.48967-24.42823
	C57.76281,30.65979,56.24618,28.89204,54.31838,29.00983z"/>
<path data-color="color-2" fill="#444444" d="M28,16H14v-5c0-0.39258-0.22949-0.74854-0.58691-0.91064
	c-0.35742-0.1626-0.77637-0.1001-1.07129,0.1582l-8,7C4.12402,17.4375,4,17.71143,4,18s0.12402,0.5625,0.3418,0.75244l8,7
	C12.52734,25.91504,12.7627,26,13,26c0.13965,0,0.28125-0.0293,0.41309-0.08936C13.77051,25.74854,14,25.39258,14,25v-5h14V16z"/>
<path data-color="color-2" fill="#444444" d="M55,16h-9v4h9c1.10449,0,2-0.89551,2-2S56.10449,16,55,16z"/>
</svg>
