<?xml version="1.0" encoding="utf-8"?>
<!-- Generator: Adobe Illustrator 19.1.0, SVG Export Plug-In . SVG Version: 6.00 Build 0)  -->
<!DOCTYPE svg PUBLIC "-//W3C//DTD SVG 1.1//EN" "http://www.w3.org/Graphics/SVG/1.1/DTD/svg11.dtd">
<svg version="1.1" id="Layer_1" xmlns="http://www.w3.org/2000/svg" xmlns:xlink="http://www.w3.org/1999/xlink" x="0px" y="0px"
	 width="64px" height="64px" viewBox="0 0 64 64" enable-background="new 0 0 64 64" xml:space="preserve">
<path data-color="color-2" fill="#444444" d="M29.8252,18.30371c0.16699-1.0918-0.58203-2.11279-1.67383-2.28027
	c-1.09619-0.1626-2.1123,0.58301-2.28027,1.67383C25.04492,23.08789,20.47314,27,15,27C8.93457,27,4,22.06543,4,16S8.93457,5,15,5
	c2.2403,0,4.37714,0.68677,6.17749,1.91479l-2.58765,1.99292c-0.32031,0.24707-0.46045,0.6626-0.35498,1.05322
	c0.10547,0.39014,0.43555,0.67871,0.83643,0.73096l7.69971,1c0.04297,0.00537,0.08594,0.0083,0.12891,0.0083
	c0.21973,0,0.43457-0.07227,0.61035-0.20752c0.20996-0.16211,0.34717-0.40088,0.38135-0.66357l1-7.7002
	c0.05225-0.40137-0.14258-0.79443-0.49316-0.99561c-0.35107-0.20215-0.7876-0.17236-1.10889,0.07422l-2.82434,2.17517
	C21.81653,2.2168,18.49738,1,15,1C6.729,1,0,7.729,0,16s6.729,15,15,15C22.46289,31,28.69727,25.66016,29.8252,18.30371z"/>
<path fill="#444444" d="M55.9505,36.3938c-1.08276-2.24597-3.2912-3.2774-6.73083-2.84497l-0.00513,0.01025
	c-1.26538-1.41339-3.24225-2.22516-6.2016-1.95306l-0.00513,0.00922c-0.8183-4.64935-2.34204-8.95978-4.07068-11.73846
	c-0.98737-1.58722-3.00635-2.31799-4.72388-1.58014c-2.1972,0.94385-2.94781,3.56635-1.72156,5.49878
	c2.04504,3.22278,3.12775,10.59857,2.64539,16.57788c-0.17474,2.16583-2.87201,3.06543-4.3493,1.47205l-2.3916-2.57953
	c-1.66656-1.76813-4.45105-1.85046-6.21918-0.18384s-1.85046,4.45105-0.18384,6.21918L34.84772,62H57.474l4.10913-15.61493
	C62.78375,41.823,61.88422,36.87518,55.9505,36.3938z"/>
</svg>
