<?xml version="1.0" encoding="utf-8"?>
<!-- Generator: Adobe Illustrator 19.1.0, SVG Export Plug-In . SVG Version: 6.00 Build 0)  -->
<!DOCTYPE svg PUBLIC "-//W3C//DTD SVG 1.1//EN" "http://www.w3.org/Graphics/SVG/1.1/DTD/svg11.dtd">
<svg version="1.1" id="Layer_1" xmlns="http://www.w3.org/2000/svg" xmlns:xlink="http://www.w3.org/1999/xlink" x="0px" y="0px"
	 width="64px" height="64px" viewBox="0 0 64 64" enable-background="new 0 0 64 64" xml:space="preserve">
<path data-color="color-2" fill="#444444" d="M39.29785,21.51807c0.92969,2.21631,0.94141,4.6626,0.03125,6.88818
	c-0.91113,2.2251-2.63379,3.9624-4.85059,4.89209c-1.1084,0.46436-2.27539,0.69922-3.46973,0.69922
	c-3.64258,0-6.90527-2.16602-8.31055-5.51855l-3.20178-7.74646C18.52808,22.6676,18,24.81409,18,27
	c0,7.039,5.22681,12.86462,12,13.84027V51h-6c-0.39355,0-0.75098,0.23096-0.91211,0.59033s-0.09668,0.77979,0.16504,1.07422l8,9
	c0.37891,0.42676,1.11523,0.42676,1.49414,0l8-9c0.26172-0.29443,0.32617-0.71484,0.16504-1.07422S40.39355,51,40,51h-6V40.84027
	C40.77319,39.86462,46,34.039,46,27c0-6.27069-4.21564-11.66504-10.02399-13.40369L39.29785,21.51807z"/>
<path fill="#444444" d="M14.07617,2.38184l10.4668,25.32373c1.49219,3.55957,5.60352,5.23877,9.16211,3.74854
	c1.72461-0.72314,3.06445-2.07471,3.77246-3.80518c0.70801-1.73096,0.69922-3.6333-0.02441-5.35742L28.7832,1.61572
	c-0.15527-0.37158-0.51855-0.61328-0.92188-0.61328L15,1c-0.33398,0-0.64551,0.1665-0.83105,0.44385
	C13.9834,1.72168,13.94824,2.07324,14.07617,2.38184z M26.19403,23.70294c0.70154-0.64948,1.78015-1.47211,3.26514-2.06787
	c1.54437-0.61957,2.94611-0.76025,3.92798-0.76343c0.41742-0.00128,0.79266,0.24713,0.94501,0.63574l0.60114,1.53296
	c0.85797,2.18805,0.02448,4.76935-2.07227,5.83118c-2.40533,1.21802-5.27551,0.08386-6.23602-2.36566l-0.67126-1.71185
	C25.80444,24.41327,25.89392,23.98077,26.19403,23.70294z"/>
</svg>
