<?xml version="1.0" encoding="utf-8"?>
<!-- Generator: Adobe Illustrator 19.1.0, SVG Export Plug-In . SVG Version: 6.00 Build 0)  -->
<!DOCTYPE svg PUBLIC "-//W3C//DTD SVG 1.1//EN" "http://www.w3.org/Graphics/SVG/1.1/DTD/svg11.dtd">
<svg version="1.1" id="Layer_1" xmlns="http://www.w3.org/2000/svg" xmlns:xlink="http://www.w3.org/1999/xlink" x="0px" y="0px"
	 width="64px" height="64px" viewBox="0 0 64 64" enable-background="new 0 0 64 64" xml:space="preserve">
<path fill="#444444" d="M55.45833,28.625C53.515,28.22211,52.34,28.94668,51.688,29.64648
	c-0.27357,0.29363-0.74908,0.18294-0.85275-0.20476c-0.48247-1.80417-1.97966-3.24457-3.89323-3.42059
	c-2.08565-0.19186-3.47204,0.85697-4.23232,1.69669c-0.27008,0.2983-0.75758,0.18761-0.85563-0.20267
	c-0.46138-1.83647-1.9734-3.30915-3.91205-3.49402c-1.87556-0.17885-3.54314,0.79457-4.37754,2.29504
	C33.41132,26.59159,33,26.49644,33,26.18129l0.00001-19.4879c0-2.3503-1.7183-4.44914-4.05798-4.67225
	C26.25808,1.76519,24,3.86888,24,6.5v31.59163c0,2.96822-3.84967,4.13382-5.49615,1.66411l-3.42267-5.13397
	c-1.8068-2.71021-5.2446-3.8164-8.29356-2.66711c-1.48885,0.56122-2.16233,2.29592-1.45076,3.71905L18,61h35c0,0,6-12.25,6-28
	C59,30.375,57.31054,29.009,55.45833,28.625z"/>
</svg>
