<?xml version="1.0" encoding="utf-8"?>
<!-- Generator: Adobe Illustrator 19.1.0, SVG Export Plug-In . SVG Version: 6.00 Build 0)  -->
<!DOCTYPE svg PUBLIC "-//W3C//DTD SVG 1.1//EN" "http://www.w3.org/Graphics/SVG/1.1/DTD/svg11.dtd">
<svg version="1.1" id="Layer_1" xmlns="http://www.w3.org/2000/svg" xmlns:xlink="http://www.w3.org/1999/xlink" x="0px" y="0px"
	 width="64px" height="64px" viewBox="0 0 64 64" enable-background="new 0 0 64 64" xml:space="preserve">
<path fill="#444444" d="M48.38538,33.00623c-1.80493,0.08307-2.69965,1.21356-3.10095,1.97888
	c-0.08649,0.16492-0.32416,0.11694-0.3606-0.06567c-0.31189-1.56451-1.5517-2.90955-3.15765-2.90955
	c-2.16699,0-3.11853,1.44006-3.51208,2.40009c-0.07458,0.18201-0.34033,0.15125-0.38043-0.04132
	c-0.25934-1.24481-1.03491-3.3681-3.30774-3.3681c-1.78021,0-2.73029,1.15942-3.19122,2.04913
	C31.27802,33.23615,31,33.17523,31,32.96515c0-3.13953,0-12.29767,0-16.27142c0-1.8952-1.41913-3.5896-3.31177-3.68878
	C25.6698,12.89923,24,14.50464,24,16.5V41c0,0.55225-0.44775,1-1,1s-1-0.44775-1-1v-4h-2c-1.65686,0-3,1.34314-3,3v7
	c0,4.66663,7,10.16663,7,14h24l3.48975-24.42822C51.75928,34.68524,50.28906,32.91858,48.38538,33.00623z"/>
<path data-color="color-2" fill="#444444" d="M22,25.72424V16.5c0-3.03271,2.46777-5.5,5.50049-5.5
	c0.09717,0,0.19434,0.00244,0.29248,0.00781C30.71289,11.16064,33,13.6582,33,16.69385v9.0304c4.24884-2.0719,7-6.37885,7-11.22424
	C40,7.60742,34.39258,2,27.5,2S15,7.60742,15,14.5C15,19.34442,17.75134,23.65198,22,25.72424z"/>
</svg>
