<?xml version="1.0" encoding="utf-8"?>
<!-- Generator: Adobe Illustrator 19.1.0, SVG Export Plug-In . SVG Version: 6.00 Build 0)  -->
<!DOCTYPE svg PUBLIC "-//W3C//DTD SVG 1.1//EN" "http://www.w3.org/Graphics/SVG/1.1/DTD/svg11.dtd">
<svg version="1.1" id="Layer_1" xmlns="http://www.w3.org/2000/svg" xmlns:xlink="http://www.w3.org/1999/xlink" x="0px" y="0px"
	 width="64px" height="64px" viewBox="0 0 64 64" enable-background="new 0 0 64 64" xml:space="preserve">
<path data-color="color-2" fill="#444444" d="M25,11h5v9h4v-9h5c0.39258,0,0.74805-0.22949,0.91016-0.58691
	c0.16309-0.35742,0.10059-0.77637-0.15723-1.07129l-7-8c-0.38086-0.43555-1.125-0.43555-1.50586,0l-7,8
	c-0.25781,0.29492-0.32031,0.71387-0.15723,1.07129C24.25195,10.77051,24.60742,11,25,11z"/>
<path fill="#444444" d="M50.24219,31.01294C48.94098,31.14313,48,32.33478,48,33.64252V45c0,0.55225-0.44769,1-1,1s-1-0.44775-1-1
	V28.16974c0-1.62451-1.21643-3.08063-2.83868-3.16553C41.43121,24.91364,40,26.28967,40,28v17c0,0.55225-0.44769,1-1,1
	s-1-0.44775-1-1V27.16974c0-1.62451-1.21643-3.08063-2.83868-3.16553C33.43121,23.91364,32,25.28967,32,27v18
	c0,0.55225-0.44769,1-1,1s-1-0.44775-1-1V28.16974c0-1.62451-1.21643-3.08063-2.83868-3.16553C25.43121,24.91364,24,26.28967,24,28
	v23.85223c-0.58936,1.27142-2.44897,1.63153-3.4118,0.34778l-3.68195-4.9093c-0.91376-1.21838-2.54907-1.76562-3.94989-1.16791
	c-1.88672,0.80499-2.5025,3.06836-1.43378,4.77502C14.04895,54.93219,14.4743,59.48206,16.18817,63H48h1.28571H53V33.5
	C53,32.03424,51.73865,30.86316,50.24219,31.01294z"/>
</svg>
