<?xml version="1.0" encoding="utf-8"?>
<!-- Generator: Adobe Illustrator 19.1.0, SVG Export Plug-In . SVG Version: 6.00 Build 0)  -->
<!DOCTYPE svg PUBLIC "-//W3C//DTD SVG 1.1//EN" "http://www.w3.org/Graphics/SVG/1.1/DTD/svg11.dtd">
<svg version="1.1" id="Layer_1" xmlns="http://www.w3.org/2000/svg" xmlns:xlink="http://www.w3.org/1999/xlink" x="0px" y="0px"
	 width="64px" height="64px" viewBox="0 0 64 64" enable-background="new 0 0 64 64" xml:space="preserve">
<path data-color="color-2" fill="#444444" d="M19.75293,16.34131l-7-8c-0.38086-0.43359-1.125-0.43359-1.50586,0l-7,8
	c-0.25781,0.29541-0.32031,0.71484-0.15723,1.07178C4.25195,17.77051,4.60742,18,5,18h5v19c0,1.10449,0.89551,2,2,2s2-0.89551,2-2
	V18h5c0.39258,0,0.74805-0.22949,0.91016-0.58691C20.07324,17.05615,20.01074,16.63672,19.75293,16.34131z"/>
<path fill="#444444" d="M56.31838,28.00983c-1.76017,0.10755-2.63766,1.21948-3.03396,1.97527
	c-0.08649,0.16492-0.32416,0.11694-0.3606-0.06567c-0.31189-1.56451-1.5517-2.90955-3.15765-2.90955
	c-2.16699,0-3.11853,1.44006-3.51208,2.40009c-0.04584,0.11182-0.16058,0.13489-0.25409,0.0979l0-18.33814
	c0-1.62448-1.21643-3.08055-2.83868-3.16549C41.43121,7.91365,40,9.28968,40,11v18c0,0.55228-0.44772,1-1,1l0,0
	c-0.55228,0-1-0.44772-1-1l0-16.83027c0-1.62448-1.21643-3.08055-2.83868-3.16549C33.43121,8.91365,32,10.28968,32,12v24
	c0,0.55225-0.44775,1-1,1s-1-0.44775-1-1v-4h-2c-1.65685,0-3,1.34315-3,3v7c0,4.66663,7,10.16663,7,14h24l3.48967-24.42822
	C59.76281,29.65979,58.24618,27.89204,56.31838,28.00983z"/>
</svg>
