<?xml version="1.0" encoding="utf-8"?>
<!-- Generator: Adobe Illustrator 19.1.0, SVG Export Plug-In . SVG Version: 6.00 Build 0)  -->
<!DOCTYPE svg PUBLIC "-//W3C//DTD SVG 1.1//EN" "http://www.w3.org/Graphics/SVG/1.1/DTD/svg11.dtd">
<svg version="1.1" id="Layer_1" xmlns="http://www.w3.org/2000/svg" xmlns:xlink="http://www.w3.org/1999/xlink" x="0px" y="0px"
	 width="64px" height="64px" viewBox="0 0 64 64" enable-background="new 0 0 64 64" xml:space="preserve">
<path fill="#444444" d="M32,17c3.85938,0,7-3.14014,7-7s-3.14062-7-7-7s-7,3.14014-7,7S28.14062,17,32,17z"/>
<path fill="#444444" d="M54,17c3.85938,0,7-3.14014,7-7s-3.14062-7-7-7s-7,3.14014-7,7S50.14062,17,54,17z"/>
<path fill="#444444" d="M54,25c-3.85938,0-7,3.14014-7,7c0,3.85938,3.14062,7,7,7s7-3.14062,7-7C61,28.14014,57.85938,25,54,25z"/>
<path fill="#444444" d="M10,47c-3.85938,0-7,3.14062-7,7s3.14062,7,7,7s7-3.14062,7-7S13.85938,47,10,47z"/>
<path data-color="color-2" fill="#444444" d="M54,47c-3.51898,0-6.43213,2.61377-6.9201,6H38.9201
	c-0.4408-3.05872-2.86139-5.47931-5.9201-5.9201V38.9201c3.38623-0.48798,6-3.40112,6-6.9201c0-3.85986-3.14062-7-7-7
	c-3.51904,0-6.43225,2.6134-6.9201,6h-8.15973C16.47949,27.94098,14.05878,25.52057,11,25.0799V16.9201
	c3.38623-0.48785,6-3.40063,6-6.9201c0-3.85986-3.14062-7-7-7s-7,3.14014-7,7c0,3.51947,2.61377,6.43225,6,6.9201v8.15979
	C5.61377,25.56775,3,28.48053,3,32c0,3.85938,3.14062,7,7,7c3.51898,0,6.43213-2.61377,6.9201-6h8.15979
	c0.4408,3.05872,2.86139,5.47931,5.9201,5.9201v8.15979c-3.38623,0.48798-6,3.40112-6,6.9201c0,3.85938,3.14062,7,7,7
	c3.51898,0,6.43213-2.61377,6.9201-6h8.15979c0.48798,3.38623,3.40112,6,6.9201,6c3.85938,0,7-3.14062,7-7S57.85938,47,54,47z"/>
</svg>
