<?xml version="1.0" encoding="utf-8"?>
<!-- Generator: Adobe Illustrator 19.1.0, SVG Export Plug-In . SVG Version: 6.00 Build 0)  -->
<!DOCTYPE svg PUBLIC "-//W3C//DTD SVG 1.1//EN" "http://www.w3.org/Graphics/SVG/1.1/DTD/svg11.dtd">
<svg version="1.1" id="Layer_1" xmlns="http://www.w3.org/2000/svg" xmlns:xlink="http://www.w3.org/1999/xlink" x="0px" y="0px"
	 width="64px" height="64px" viewBox="0 0 64 64" enable-background="new 0 0 64 64" xml:space="preserve">
<path fill="#444444" d="M2.5957,39.9375c-0.93262,0-1.76709-0.65527-1.9585-1.60449
	c-1.9043-9.44336,0.50684-19.13867,6.61572-26.59961c0.7002-0.85547,1.96045-0.97949,2.81445-0.28125
	c0.85449,0.7002,0.97998,1.95996,0.28027,2.81445c-5.3457,6.5293-7.45557,15.0127-5.78955,23.27539
	c0.21826,1.08301-0.48242,2.1377-1.56494,2.35645C2.85986,39.9248,2.72656,39.9375,2.5957,39.9375z"/>
<path fill="#444444" d="M14.01807,10c-0.60791,0-1.20898-0.27637-1.60156-0.7998c-0.6626-0.88379-0.4834-2.1377,0.40039-2.80078
	c3.81934-2.86328,8.14404-4.7959,12.854-5.74512c8.57129-1.72754,17.25977,0.05078,24.46436,5.01172
	c0.90967,0.62695,1.13965,1.87207,0.5127,2.78223c-0.62646,0.90723-1.87256,1.1377-2.78125,0.5127
	c-6.30273-4.34082-13.90332-5.90039-21.40527-4.38477c-4.12256,0.83008-7.90576,2.52051-11.24512,5.02441
	C14.85645,9.87012,14.43555,10,14.01807,10z"/>
<path fill="#444444" d="M61.38477,28.08301c-0.93262,0-1.76709-0.65527-1.9585-1.60449
	c-0.98828-4.90039-3.26465-9.44531-6.5835-13.14355c-0.7373-0.82227-0.66895-2.08691,0.15283-2.82422
	c0.82227-0.73828,2.08691-0.67188,2.82471,0.15234c3.79492,4.22949,6.39795,9.4248,7.52686,15.02441
	c0.21826,1.08301-0.48242,2.1377-1.56494,2.35645C61.64893,28.07031,61.51562,28.08301,61.38477,28.08301z"/>
<path fill="#444444" d="M61.99561,34.61328c-0.01318,0-0.02588,0-0.03906,0c-1.10449-0.02148-1.98242-0.93359-1.96143-2.03809
	c0.03857-2.03516-0.14746-4.08691-0.55273-6.09961c-0.21826-1.08301,0.48242-2.1377,1.56543-2.35645
	c1.0835-0.21484,2.13672,0.48242,2.35547,1.56543c0.46289,2.29785,0.67529,4.6416,0.63086,6.9668
	C63.97363,33.74316,63.08203,34.61328,61.99561,34.61328z"/>
<path fill="#444444" d="M2.89893,41.21387c-0.89941,0-1.71631-0.61035-1.94043-1.52246
	c-0.11084-0.4502-0.21289-0.9043-0.30518-1.3623c-0.21875-1.08301,0.48193-2.1377,1.56494-2.35645
	c1.08398-0.21484,2.1377,0.48242,2.35596,1.56543c0.08154,0.40332,0.1709,0.80273,0.26807,1.19824
	c0.26416,1.07227-0.3916,2.15625-1.46436,2.41992C3.21777,41.19531,3.05713,41.21387,2.89893,41.21387z"/>
<path fill="#444444" d="M24.24951,62.9834c-0.46875,0-0.93945-0.16406-1.31885-0.49707
	c-0.83008-0.72949-0.91162-1.99316-0.18262-2.82324c6.60986-7.52344,9.26758-17.45898,7.2915-27.25879
	c-0.21826-1.08301,0.48242-2.1377,1.56494-2.35645c1.08252-0.21484,2.1377,0.48242,2.35596,1.56543
	c2.2251,11.03418-0.7666,22.2207-8.20752,30.69043C25.35742,62.75391,24.80518,62.9834,24.24951,62.9834z"/>
<path data-color="color-2" fill="#444444" d="M16.83203,59.87891c-0.53418,0-1.06738-0.21289-1.46094-0.63379
	c-0.75488-0.80664-0.7124-2.07227,0.09424-2.82617c5.95752-5.57422,8.45654-13.28711,7.22656-22.30566l-0.03857-0.29199
	c-0.47998-2.46973,0.02148-4.98047,1.41504-7.07715c1.40625-2.11621,3.55225-3.55859,6.04346-4.06152
	c5.14355-1.03613,10.16895,2.30273,11.20654,7.44531c0.01318,0.06543,0.02295,0.13086,0.02979,0.19531
	c0.23145,1.1748,0.41602,2.36719,0.54883,3.5459c0.12402,1.09766-0.66553,2.08789-1.76318,2.21191
	c-1.09619,0.12695-2.0874-0.66504-2.21143-1.7627c-0.12744-1.12988-0.30713-2.27246-0.53369-3.39648
	c-0.01123-0.05469-0.01953-0.10938-0.02637-0.16406c-0.67139-2.8877-3.53174-4.74609-6.45947-4.15332
	c-1.44385,0.29102-2.68799,1.12695-3.50293,2.35352s-1.10303,2.69727-0.81201,4.14062
	c0.01074,0.05273,0.01904,0.10547,0.02539,0.15918l0.04199,0.31543c1.4126,10.3584-1.51172,19.26758-8.45752,25.76562
	C17.81201,59.7002,17.32178,59.87891,16.83203,59.87891z"/>
<path data-color="color-2" fill="#444444" d="M32.94824,63.98242c-0.38916,0-0.78223-0.11328-1.12744-0.34961
	c-0.91162-0.62402-1.14502-1.86816-0.521-2.78027c4.02197-5.87695,6.37354-12.71777,6.7998-19.78027
	c0.06689-1.10254,1.0166-1.95508,2.11719-1.87598c1.10254,0.06641,1.94238,1.01367,1.87598,2.11621
	c-0.47021,7.78613-3.06104,15.32422-7.49219,21.7998C34.21338,63.67773,33.58643,63.98242,32.94824,63.98242z"/>
<path fill="#444444" d="M10.78516,55.20996c-0.57861,0-1.15283-0.25-1.54834-0.73242
	c-0.69971-0.85449-0.57422-2.11523,0.28027-2.81445c4.7583-3.89746,6.99414-10.02734,5.87158-16.05078
	c-0.02686-0.0791-0.04834-0.15918-0.06494-0.24121c-0.53516-2.6543-0.44141-5.31445,0.2793-7.90625
	c0.29541-1.06445,1.39844-1.68848,2.4624-1.3916c1.06396,0.2959,1.68701,1.39844,1.39111,2.46191
	c-0.52832,1.90137-0.61475,3.85254-0.2583,5.80273c0.02637,0.07812,0.04785,0.15723,0.06396,0.23828
	c1.52393,7.55762-1.23926,15.29004-7.21094,20.18066C11.67969,55.06152,11.23096,55.20996,10.78516,55.20996z"/>
<path fill="#444444" d="M42.74902,62.00195c-0.29395,0-0.59229-0.06445-0.87451-0.20215
	c-0.99316-0.4834-1.40576-1.68066-0.92188-2.67383c4.521-9.2793,5.83008-19.54492,3.78564-29.68555
	c-0.0249-0.12012-2.96924-12.67969-15.31592-10.17871c-2.55469,0.51465-4.86719,1.76367-6.6875,3.61133
	c-0.77441,0.78711-2.04248,0.79688-2.82812,0.02148c-0.78711-0.77539-0.79688-2.04102-0.02148-2.82812
	c2.38184-2.41797,5.40625-4.05273,8.74609-4.72656c13.55225-2.72656,19.13818,8.9834,20.02637,13.30176
	c2.22119,11.0166,0.79932,22.16113-4.10938,32.23633C44.20215,61.58887,43.48975,62.00195,42.74902,62.00195z"/>
<path data-color="color-2" fill="#444444" d="M6.18359,49.28711c-0.56738,0-1.13135-0.24023-1.52686-0.70703
	c-0.71387-0.84277-0.60986-2.10449,0.23291-2.81934c2.53174-2.14453,3.72363-5.4707,3.13818-8.72168
	c-0.01855-0.06152-0.03467-0.12402-0.04736-0.1875c-2.53223-12.55957,5.1499-25.05762,17.48877-28.4541
	c1.06885-0.29297,2.16602,0.33398,2.45898,1.39844s-0.33252,2.16504-1.39746,2.45898
	C16.27393,15.07715,9.86475,25.41992,11.8623,35.86133c0.02002,0.06348,0.03711,0.12988,0.05029,0.19629
	c0.95557,4.73926-0.74463,9.62695-4.43701,12.75586C7.09961,49.13184,6.64014,49.28711,6.18359,49.28711z"/>
<path data-color="color-2" fill="#444444" d="M53.27979,55.13379c-0.1709,0-0.34424-0.02246-0.5166-0.06836
	c-1.06738-0.28516-1.70215-1.38086-1.41748-2.44824c2.14893-8.05859,2.40625-16.31348,0.76562-24.54004
	c-0.01074-0.03906-0.02002-0.07812-0.02783-0.11816c-1.86719-9.25879-9.75098-16.01465-19.17139-16.42969
	c-1.10352-0.04883-1.95898-0.98242-1.91016-2.08594c0.04834-1.10352,0.9834-1.95312,2.08594-1.91016
	C44.30713,8.02734,53.70166,16.04199,55.979,27.04199c0.01074,0.04199,0.021,0.08398,0.0293,0.12598
	c1.78955,8.87402,1.52148,17.7832-0.79736,26.48047C54.97217,54.54297,54.16357,55.13379,53.27979,55.13379z"/>
</svg>
