<?xml version="1.0" encoding="utf-8"?>
<!-- Generator: Adobe Illustrator 19.1.0, SVG Export Plug-In . SVG Version: 6.00 Build 0)  -->
<!DOCTYPE svg PUBLIC "-//W3C//DTD SVG 1.1//EN" "http://www.w3.org/Graphics/SVG/1.1/DTD/svg11.dtd">
<svg version="1.1" id="Layer_1" xmlns="http://www.w3.org/2000/svg" xmlns:xlink="http://www.w3.org/1999/xlink" x="0px" y="0px"
	 width="64px" height="64px" viewBox="0 0 64 64" enable-background="new 0 0 64 64" xml:space="preserve">
<path fill="#444444" d="M46.18719,33.01986C45.18726,33.11153,44.48682,33.53389,44,34.0154V17.16976
	c0-1.62451-1.21643-3.08057-2.83868-3.16553C39.43121,13.91365,38,15.28969,38,17.00002v17c0,0.55225-0.44769,1-1,1s-1-0.44775-1-1
	V16.16976c0-1.62451-1.21643-3.08063-2.83868-3.16553C31.43121,12.91365,30,14.28969,30,16.00002v18c0,0.55225-0.44769,1-1,1
	s-1-0.44775-1-1V17.16976c0-1.62451-1.21643-3.08063-2.83868-3.16553C23.43121,13.91365,22,15.28969,22,17.00002v23.85224
	c-0.58936,1.27142-2.44897,1.63153-3.4118,0.34778l-3.77844-5.03796c-0.93903-1.25201-2.63904-1.65332-4.03888-0.95343
	c-1.74066,0.87036-2.28119,3.03979-1.24829,4.68921c2.52637,4.03436,2.95172,8.58423,4.66559,12.10217c1.58337,3.25,5,6.97162,5,9
	H46l3.48969-24.42822C49.7702,34.60799,48.16266,32.83864,46.18719,33.01986z"/>
<path data-color="color-2" fill="#444444" d="M20,27.90582V17c0-2.75684,2.24316-5,4.99902-5c0.08887,0,0.17773,0.00244,0.2666,0.00732
	c1.32227,0.06885,2.50098,0.66602,3.35156,1.58789C29.46875,12.04932,31.11426,11,32.99902,11
	c0.08887,0,0.17773,0.00244,0.2666,0.00732c1.75391,0.0918,3.25684,1.1123,4.07422,2.58936
	C38.25391,12.61523,39.55566,12,40.99902,12c0.08887,0,0.17773,0.00244,0.2666,0.00732C43.9209,12.146,46,14.41406,46,17.16992
	v10.22198c3.6366-2.11023,6-6.0542,6-10.39191c0-6.6167-5.38281-12-12-12c-0.12207,0-0.24219,0.00537-0.3623,0.01221
	C37.66113,3.69434,35.37402,3,33,3c-2.41406,0-4.73242,0.71729-6.72949,2.07764C25.80957,5.0249,25.39844,5,25,5
	c-6.61719,0-12,5.3833-12,12C13,21.72333,15.80402,25.97565,20,27.90582z"/>
</svg>
