<?xml version="1.0" encoding="utf-8"?>
<!-- Generator: Adobe Illustrator 19.1.0, SVG Export Plug-In . SVG Version: 6.00 Build 0)  -->
<!DOCTYPE svg PUBLIC "-//W3C//DTD SVG 1.1//EN" "http://www.w3.org/Graphics/SVG/1.1/DTD/svg11.dtd">
<svg version="1.1" id="Layer_1" xmlns="http://www.w3.org/2000/svg" xmlns:xlink="http://www.w3.org/1999/xlink" x="0px" y="0px"
	 width="24px" height="24px" viewBox="0 0 24 24" enable-background="new 0 0 24 24" xml:space="preserve">
<path fill="#231F20" d="M12,0C5.4,0,0,5.4,0,12v4c0,1.7,1.3,3,3,3h2c0,2.8,2.2,5,5,5h4c2.8,0,5-2.2,5-5h2c1.7,0,3-1.3,3-3v-4
	C24,5.4,18.6,0,12,0z M14,22h-4c-1.7,0-3-1.3-3-3h2v1c0,0.6,0.4,1,1,1s1-0.4,1-1v-1h2v1c0,0.6,0.4,1,1,1s1-0.4,1-1v-1h2
	C17,20.7,15.7,22,14,22z M22,16c0,0.6-0.4,1-1,1h-2v-1c0-0.6-0.4-1-1-1s-1,0.4-1,1v1h-2v-1c0-0.6-0.4-1-1-1s-1,0.4-1,1v1h-2v-1
	c0-0.6-0.4-1-1-1s-1,0.4-1,1v1H7v-1c0-0.6-0.4-1-1-1s-1,0.4-1,1v1H3c-0.6,0-1-0.4-1-1v-4C2,6.5,6.5,2,12,2s10,4.5,10,10V16z"/>
<circle fill="#231F20" cx="8" cy="9" r="2"/>
<circle fill="#231F20" cx="16" cy="9" r="2"/>
</svg>
