<?xml version="1.0" encoding="utf-8"?>
<!-- Generator: Adobe Illustrator 19.1.0, SVG Export Plug-In . SVG Version: 6.00 Build 0)  -->
<!DOCTYPE svg PUBLIC "-//W3C//DTD SVG 1.1//EN" "http://www.w3.org/Graphics/SVG/1.1/DTD/svg11.dtd">
<svg version="1.1" id="Layer_1" xmlns="http://www.w3.org/2000/svg" xmlns:xlink="http://www.w3.org/1999/xlink" x="0px" y="0px"
	 width="24px" height="24px" viewBox="0 0 24 24" enable-background="new 0 0 24 24" xml:space="preserve">
<path fill="#231F20" d="M12,0C5.4,0,0,5.4,0,12s5.4,12,12,12s12-5.4,12-12S18.6,0,12,0z M12,22C6.5,22,2,17.5,2,12S6.5,2,12,2
	s10,4.5,10,10S17.5,22,12,22z"/>
<circle fill="#231F20" cx="8" cy="9" r="2"/>
<path fill="#231F20" d="M17,8h-2c-0.6,0-1,0.4-1,1s0.4,1,1,1h2c0.6,0,1-0.4,1-1S17.6,8,17,8z"/>
<path fill="#231F20" d="M16,13H8c-0.6,0-1,0.4-1,1s0.4,1,1,1h1v2c0,1.7,1.3,3,3,3s3-1.3,3-3v-2h1c0.6,0,1-0.4,1-1S16.6,13,16,13z
	 M13,17c0,0.6-0.4,1-1,1s-1-0.4-1-1v-2h2V17z"/>
</svg>
