<?xml version="1.0" encoding="utf-8"?>
<!-- Generator: Adobe Illustrator 19.1.0, SVG Export Plug-In . SVG Version: 6.00 Build 0)  -->
<!DOCTYPE svg PUBLIC "-//W3C//DTD SVG 1.1//EN" "http://www.w3.org/Graphics/SVG/1.1/DTD/svg11.dtd">
<svg version="1.1" id="Layer_1" xmlns="http://www.w3.org/2000/svg" xmlns:xlink="http://www.w3.org/1999/xlink" x="0px" y="0px"
	 width="24px" height="24px" viewBox="0 0 24 24" enable-background="new 0 0 24 24" xml:space="preserve">
<path fill="#231F20" d="M19,1H5C2.2,1,0,3.2,0,6v7c0,2.8,2.2,5,5,5h4c0,2.8,2.2,5,5,5h7c1.7,0,3-1.3,3-3v-7V6C24,3.2,21.8,1,19,1z
	 M22,20c0,0.6-0.4,1-1,1h-7c-1.7,0-3-1.3-3-3h8c1.1,0,2.2-0.4,3-1V20z M22,13c0,1.7-1.3,3-3,3h-1v-5c0-0.6-0.4-1-1-1s-1,0.4-1,1v5
	h-3v-5c0-0.6-0.4-1-1-1s-1,0.4-1,1v5H8v-5c0-0.6-0.4-1-1-1s-1,0.4-1,1v5H5c-1.7,0-3-1.3-3-3V6c0-1.7,1.3-3,3-3h14c1.7,0,3,1.3,3,3
	V13z"/>
</svg>
