<?xml version="1.0" encoding="utf-8"?>
<!-- Generator: Adobe Illustrator 19.1.0, SVG Export Plug-In . SVG Version: 6.00 Build 0)  -->
<!DOCTYPE svg PUBLIC "-//W3C//DTD SVG 1.1//EN" "http://www.w3.org/Graphics/SVG/1.1/DTD/svg11.dtd">
<svg version="1.1" id="Layer_1" xmlns="http://www.w3.org/2000/svg" xmlns:xlink="http://www.w3.org/1999/xlink" x="0px" y="0px"
	 width="24px" height="24px" viewBox="0 0 24 24" enable-background="new 0 0 24 24" xml:space="preserve">
<path fill="#231F20" d="M17,6h-1.3c-0.9-3.4-4-6-7.7-6C3.6,0,0,3.6,0,8v15c0,0.6,0.4,1,1,1h14c0.6,0,1-0.4,1-1v-5h1
	c2.4,0,4.4-1.7,4.9-4H23c0.6,0,1-0.4,1-1C24,9.1,20.9,6,17,6z M14,22H2V8c0-3.3,2.7-6,6-6s6,2.7,6,6V22z M17,16h-1v-2h3.8
	C19.4,15.2,18.3,16,17,16z M16,12V8h1c2.4,0,4.4,1.7,4.9,4H16z"/>
<path fill="#231F20" d="M8,4C5.8,4,4,5.8,4,8s1.8,4,4,4s4-1.8,4-4S10.2,4,8,4z M8,10c-1.1,0-2-0.9-2-2s0.9-2,2-2s2,0.9,2,2
	S9.1,10,8,10z"/>
</svg>
