<?xml version="1.0" encoding="utf-8"?>
<!-- Generator: Adobe Illustrator 19.1.0, SVG Export Plug-In . SVG Version: 6.00 Build 0)  -->
<!DOCTYPE svg PUBLIC "-//W3C//DTD SVG 1.1//EN" "http://www.w3.org/Graphics/SVG/1.1/DTD/svg11.dtd">
<svg version="1.1" id="Layer_1" xmlns="http://www.w3.org/2000/svg" xmlns:xlink="http://www.w3.org/1999/xlink" x="0px" y="0px"
	 width="24px" height="24px" viewBox="0 0 24 24" enable-background="new 0 0 24 24" xml:space="preserve">
<path fill="#231F20" d="M23.1,7.6C21.4,3.7,17.5,1,13,1C8.7,1,5,3.4,3.2,7H0c-0.6,0-1,0.4-1,1s0.4,1,1,1h2.4C2.2,10,2,11,2,12
	c0,6.1,4.9,11,11,11s11-4.9,11-11C24,10.5,23.7,9,23.1,7.6C23.1,7.6,23.1,7.6,23.1,7.6z M13,3c3.1,0,5.9,1.6,7.5,4h-15
	C7.1,4.6,9.9,3,13,3z M13,21c-5,0-9-4-9-9c0-1.1,0.2-2.1,0.5-3h16.9c0.3,0.9,0.5,1.9,0.5,3C22,17,18,21,13,21z"/>
<path fill="#231F20" d="M17.2,14.4C15.5,16.9,13.1,17,13,17c-0.5,0-1,0.5-1,1c0,0.6,0.4,1,1,1c0.1,0,3.6,0,5.8-3.4
	c0.3-0.5,0.2-1.1-0.3-1.4C18.1,13.9,17.5,14,17.2,14.4z"/>
</svg>
