<?xml version="1.0" encoding="utf-8"?>
<!-- Generator: Adobe Illustrator 19.1.0, SVG Export Plug-In . SVG Version: 6.00 Build 0)  -->
<!DOCTYPE svg PUBLIC "-//W3C//DTD SVG 1.1//EN" "http://www.w3.org/Graphics/SVG/1.1/DTD/svg11.dtd">
<svg version="1.1" id="Layer_1" xmlns="http://www.w3.org/2000/svg" xmlns:xlink="http://www.w3.org/1999/xlink" x="0px" y="0px"
	 width="24px" height="24px" viewBox="0 0 24 24" enable-background="new 0 0 24 24" xml:space="preserve">
<path fill="#231F20" d="M1.5,10.6C1,10.9,0.9,11.5,1.1,12c0.2,0.3,0.5,0.5,0.9,0.5c0.2,0,0.3,0,0.5-0.1c1.2-0.7,2.1-1.9,2.4-3.3H6v6
	c0,3.3,2.7,6,6,6s6-2.7,6-6V9h1.1c0.3,1.4,1.1,2.6,2.4,3.3c0.2,0.1,0.3,0.1,0.5,0.1c0.3,0,0.7-0.2,0.9-0.5c0.3-0.5,0.1-1.1-0.4-1.4
	C21.6,10.1,21,9.1,21,8c0-1.1,0.6-2.1,1.5-2.6C23,5.1,23.1,4.5,22.9,4c-0.3-0.5-0.9-0.6-1.4-0.4c-1.2,0.7-2.1,1.9-2.4,3.3H4.9
	C4.6,5.6,3.7,4.4,2.5,3.7C2,3.4,1.4,3.6,1.1,4C0.9,4.5,1,5.1,1.5,5.4C2.4,5.9,3,6.9,3,8C3,9.1,2.4,10.1,1.5,10.6z M8,9h3v5
	c0,0.6,0.4,1,1,1s1-0.4,1-1V9h3v6c0,2.2-1.8,4-4,4s-4-1.8-4-4V9z"/>
</svg>
