<?xml version="1.0" encoding="utf-8"?>
<!-- Generator: Adobe Illustrator 19.1.0, SVG Export Plug-In . SVG Version: 6.00 Build 0)  -->
<!DOCTYPE svg PUBLIC "-//W3C//DTD SVG 1.1//EN" "http://www.w3.org/Graphics/SVG/1.1/DTD/svg11.dtd">
<svg version="1.1" id="Layer_1" xmlns="http://www.w3.org/2000/svg" xmlns:xlink="http://www.w3.org/1999/xlink" x="0px" y="0px"
	 width="24px" height="24px" viewBox="0 0 24 24" enable-background="new 0 0 24 24" xml:space="preserve">
<path fill="#231F20" d="M12,0C5.4,0,0,5.4,0,12s5.4,12,12,12s12-5.4,12-12S18.6,0,12,0z M12,22C6.5,22,2,17.5,2,12S6.5,2,12,2
	s10,4.5,10,10S17.5,22,12,22z"/>
<path fill="#231F20" d="M12,13c-2.8,0-5,2.2-5,5c0,0.6,0.4,1,1,1s1-0.4,1-1c0-1.7,1.3-3,3-3s3,1.3,3,3c0,0.6,0.4,1,1,1s1-0.4,1-1
	C17,15.2,14.8,13,12,13z"/>
<path fill="#231F20" d="M16.6,7.1l-2,1c-0.5,0.2-0.7,0.8-0.4,1.3C14.3,9.8,14.6,10,15,10c0.1,0,0.3,0,0.4-0.1l2-1
	c0.5-0.2,0.7-0.8,0.4-1.3C17.6,7.1,17,6.9,16.6,7.1z"/>
<path fill="#231F20" d="M9,10c0.4,0,0.7-0.2,0.9-0.6c0.2-0.5,0-1.1-0.4-1.3l-2-1C7,6.9,6.4,7.1,6.1,7.6C5.9,8,6.1,8.6,6.6,8.9l2,1
	C8.7,10,8.8,10,9,10z"/>
</svg>
