<?xml version="1.0" encoding="utf-8"?>
<!-- Generator: Adobe Illustrator 19.1.0, SVG Export Plug-In . SVG Version: 6.00 Build 0)  -->
<!DOCTYPE svg PUBLIC "-//W3C//DTD SVG 1.1//EN" "http://www.w3.org/Graphics/SVG/1.1/DTD/svg11.dtd">
<svg version="1.1" id="Layer_1" xmlns="http://www.w3.org/2000/svg" xmlns:xlink="http://www.w3.org/1999/xlink" x="0px" y="0px"
	 width="24px" height="24px" viewBox="0 0 24 24" enable-background="new 0 0 24 24" xml:space="preserve">
<path fill="#231F20" d="M22.7,6.5C20.7,2.7,16.6,0,12,0C7.4,0,3.3,2.7,1.3,6.5c0,0,0,0.1-0.1,0.1C0.5,8.3,0,10.1,0,12
	c0,6.6,5.4,12,12,12s12-5.4,12-12c0-1.9-0.5-3.7-1.3-5.3C22.7,6.6,22.7,6.6,22.7,6.5z M12,2c3.3,0,6.2,1.6,8,4H4C5.8,3.6,8.7,2,12,2
	z M19.5,8l-1.2,3h-3.6l-1.2-3H19.5z M10.5,8l-1.2,3H5.7L4.5,8H10.5z M12,22C6.5,22,2,17.5,2,12c0-1.2,0.2-2.3,0.6-3.3l1.5,3.7
	C4.2,12.8,4.6,13,5,13h5c0.4,0,0.8-0.2,0.9-0.6L12,9.7l1.1,2.7c0.2,0.4,0.5,0.6,0.9,0.6h5c0.4,0,0.8-0.2,0.9-0.6l1.5-3.7
	c0.4,1,0.6,2.2,0.6,3.3C22,17.5,17.5,22,12,22z"/>
<path fill="#231F20" d="M16.2,15.4C14.5,17.9,12.1,18,12,18c-0.5,0-1,0.4-1,1c0,0.6,0.4,1,1,1c0.1,0,3.6,0,5.8-3.4
	c0.3-0.5,0.2-1.1-0.3-1.4C17.1,14.9,16.5,15,16.2,15.4z"/>
</svg>
