<?xml version="1.0" encoding="utf-8"?>
<!-- Generator: Adobe Illustrator 19.1.0, SVG Export Plug-In . SVG Version: 6.00 Build 0)  -->
<!DOCTYPE svg PUBLIC "-//W3C//DTD SVG 1.1//EN" "http://www.w3.org/Graphics/SVG/1.1/DTD/svg11.dtd">
<svg version="1.1" id="Layer_1" xmlns="http://www.w3.org/2000/svg" xmlns:xlink="http://www.w3.org/1999/xlink" x="0px" y="0px"
	 width="24px" height="24px" viewBox="0 0 24 24" enable-background="new 0 0 24 24" xml:space="preserve">
<path fill="#231F20" d="M12,0C5.4,0,0,5.4,0,12s5.4,12,12,12s12-5.4,12-12S18.6,0,12,0z M12,22C6.5,22,2,17.5,2,12S6.5,2,12,2
	s10,4.5,10,10S17.5,22,12,22z"/>
<path fill="#231F20" d="M17,8h-2c-0.6,0-1,0.4-1,1s0.4,1,1,1h2c0.6,0,1-0.4,1-1S17.6,8,17,8z"/>
<path fill="#231F20" d="M7,10h2c0.6,0,1-0.4,1-1S9.6,8,9,8H7C6.4,8,6,8.4,6,9S6.4,10,7,10z"/>
<path fill="#231F20" d="M17.4,15.1l-2-1c-0.3-0.2-0.7-0.1-1,0.1L12,15.8l-2.4-1.6c-0.3-0.2-0.7-0.2-1-0.1l-2,1
	c-0.5,0.2-0.7,0.8-0.4,1.3c0.2,0.5,0.8,0.7,1.3,0.4l1.5-0.7l2.5,1.7c0.2,0.1,0.4,0.2,0.6,0.2s0.4-0.1,0.6-0.2l2.5-1.7l1.5,0.7
	c0.5,0.2,1.1,0,1.3-0.4C18.1,16,17.9,15.4,17.4,15.1z"/>
</svg>
