<?xml version="1.0" encoding="utf-8"?>
<!-- Generator: Adobe Illustrator 19.1.0, SVG Export Plug-In . SVG Version: 6.00 Build 0)  -->
<!DOCTYPE svg PUBLIC "-//W3C//DTD SVG 1.1//EN" "http://www.w3.org/Graphics/SVG/1.1/DTD/svg11.dtd">
<svg version="1.1" id="Layer_1" xmlns="http://www.w3.org/2000/svg" xmlns:xlink="http://www.w3.org/1999/xlink" x="0px" y="0px"
	 width="24px" height="24px" viewBox="0 0 24 24" enable-background="new 0 0 24 24" xml:space="preserve">
<path fill="#231F20" d="M12,0C5.9,0,1,4.9,1,11v12c0,0.6,0.4,1,1,1h20c0.6,0,1-0.4,1-1V11C23,4.9,18.1,0,12,0z M21,22H3V11
	c0-5,4-9,9-9s9,4,9,9V22z"/>
<path fill="#231F20" d="M16,16c-0.6,0-1,0.4-1,1c0,0.6-0.4,1-1,1s-1-0.4-1-1v-2.3c0.6-0.3,1-1,1-1.7c0-1.1-0.9-2-2-2s-2,0.9-2,2
	c0,0.7,0.4,1.4,1,1.7V17c0,0.6-0.4,1-1,1s-1-0.4-1-1c0-0.6-0.4-1-1-1s-1,0.4-1,1c0,1.7,1.3,3,3,3c0.8,0,1.5-0.3,2-0.8
	c0.5,0.5,1.2,0.8,2,0.8c1.7,0,3-1.3,3-3C17,16.4,16.6,16,16,16z"/>
<path fill="#231F20" d="M16,6c-1.7,0-3,1.3-3,3c0,0.6,0.4,1,1,1s1-0.4,1-1c0-0.6,0.4-1,1-1s1,0.4,1,1c0,0.6,0.4,1,1,1s1-0.4,1-1
	C19,7.3,17.7,6,16,6z"/>
<path fill="#231F20" d="M8,8c0.6,0,1,0.4,1,1c0,0.6,0.4,1,1,1s1-0.4,1-1c0-1.7-1.3-3-3-3S5,7.3,5,9c0,0.6,0.4,1,1,1s1-0.4,1-1
	C7,8.4,7.4,8,8,8z"/>
</svg>
