<?xml version="1.0" encoding="utf-8"?>
<!-- Generator: Adobe Illustrator 19.1.0, SVG Export Plug-In . SVG Version: 6.00 Build 0)  -->
<!DOCTYPE svg PUBLIC "-//W3C//DTD SVG 1.1//EN" "http://www.w3.org/Graphics/SVG/1.1/DTD/svg11.dtd">
<svg version="1.1" id="Layer_1" xmlns="http://www.w3.org/2000/svg" xmlns:xlink="http://www.w3.org/1999/xlink" x="0px" y="0px"
	 width="24px" height="24px" viewBox="0 0 24 24" enable-background="new 0 0 24 24" xml:space="preserve">
<path fill="#231F20" d="M1,24h5h12.4c2,0,3.7-1.4,4-3.4l1.1-7c0.2-1.2-0.2-2.3-0.9-3.2c-0.8-0.9-1.9-1.4-3-1.4H13V4c0-2.2-1.8-4-4-4
	C8.5,0,8.2,0.3,8,0.7L5.2,11H1c-0.6,0-1,0.4-1,1v11C0,23.6,0.4,24,1,24z M7,12.1l2.7-10C10.5,2.4,11,3.2,11,4v6c0,0.6,0.4,1,1,1h7.5
	c0.6,0,1.1,0.3,1.5,0.7s0.5,1,0.5,1.6l-1.1,7c-0.2,1-1,1.7-2,1.7H7V12.1z M2,13h3v9H2V13z"/>
</svg>
