<?xml version="1.0" encoding="utf-8"?>
<!-- Generator: Adobe Illustrator 19.0.1, SVG Export Plug-In . SVG Version: 6.00 Build 0)  -->
<!DOCTYPE svg PUBLIC "-//W3C//DTD SVG 1.1//EN" "http://www.w3.org/Graphics/SVG/1.1/DTD/svg11.dtd">
<svg version="1.1" id="Layer_1" xmlns="http://www.w3.org/2000/svg" xmlns:xlink="http://www.w3.org/1999/xlink" x="0px" y="0px"
	 width="32px" height="32px" viewBox="0 0 32 32" enable-background="new 0 0 32 32" xml:space="preserve">
<path d="M5,14c-1.7,0-3,1.3-3,3v4c0,0.6,0.4,1,1,1h26c0.6,0,1-0.4,1-1v-4c0-1.7-1.3-3-3-3H17v-2.1c1.7-0.4,3-2,3-3.9
	c0-1.9-2.6-5.8-3.2-6.6L16,0.2l-0.8,1.2C14.6,2.2,12,6.1,12,8c0,1.9,1.3,3.4,3,3.9V14H5z"/>
<path d="M31,24L1,24c-0.6,0-1,0.4-1,1v6c0,0.6,0.4,1,1,1h30c0.6,0,1-0.4,1-1v-6C32,24.5,31.6,24,31,24z"/>
</svg>
