<?xml version="1.0" encoding="utf-8"?>
<!-- Generator: Adobe Illustrator 19.0.1, SVG Export Plug-In . SVG Version: 6.00 Build 0)  -->
<!DOCTYPE svg PUBLIC "-//W3C//DTD SVG 1.1//EN" "http://www.w3.org/Graphics/SVG/1.1/DTD/svg11.dtd">
<svg version="1.1" id="Layer_1" xmlns="http://www.w3.org/2000/svg" xmlns:xlink="http://www.w3.org/1999/xlink" x="0px" y="0px"
	 width="32px" height="32px" viewBox="0 0 32 32" enable-background="new 0 0 32 32" xml:space="preserve">
<path d="M16,0C7.2,0,0,7.2,0,16c0,8.8,7.2,16,16,16c8.8,0,16-7.2,16-16C32,7.2,24.8,0,16,0z M8,11h6v2H8V11z M22.9,22.3
	c-0.2,0.5-0.7,0.8-1.3,0.6l-2.5-0.8l-2.6,1.7C16.4,23.9,16.2,24,16,24c-0.2,0-0.4-0.1-0.6-0.2l-2.6-1.7l-2.5,0.8
	c-0.5,0.2-1.1-0.1-1.3-0.6c-0.2-0.5,0.1-1.1,0.6-1.3l3-1c0.3-0.1,0.6-0.1,0.9,0.1l2.4,1.6l2.4-1.6c0.3-0.2,0.6-0.2,0.9-0.1l3,1
	C22.8,21.2,23.1,21.8,22.9,22.3z M24,13h-6v-2h6V13z"/>
</svg>
