<?xml version="1.0" encoding="utf-8"?>
<!-- Generator: Adobe Illustrator 19.0.1, SVG Export Plug-In . SVG Version: 6.00 Build 0)  -->
<!DOCTYPE svg PUBLIC "-//W3C//DTD SVG 1.1//EN" "http://www.w3.org/Graphics/SVG/1.1/DTD/svg11.dtd">
<svg version="1.1" id="Layer_1" xmlns="http://www.w3.org/2000/svg" xmlns:xlink="http://www.w3.org/1999/xlink" x="0px" y="0px"
	 width="32px" height="32px" viewBox="0 0 32 32" enable-background="new 0 0 32 32" xml:space="preserve">
<path d="M16,0C7.2,0,0,7.2,0,16c0,8.8,7.2,16,16,16s16-7.2,16-16C32,7.2,24.8,0,16,0z M10,9c1.7,0,3,1.3,3,3c0,0.6-0.4,1-1,1
	s-1-0.4-1-1c0-0.6-0.4-1-1-1s-1,0.4-1,1c0,0.6-0.4,1-1,1s-1-0.4-1-1C7,10.3,8.3,9,10,9z M25,18c0,2.8-2.2,5-5,5h-1v2
	c0,1.7-1.3,3-3,3s-3-1.3-3-3v-2h-1c-2.8,0-5-2.2-5-5v-1h7c0,0,0,0,0,0s0,0,0,0h4c0,0,0,0,0,0s0,0,0,0h7V18z M24,13c-0.6,0-1-0.4-1-1
	c0-0.6-0.4-1-1-1c-0.6,0-1,0.4-1,1c0,0.6-0.4,1-1,1s-1-0.4-1-1c0-1.7,1.3-3,3-3s3,1.3,3,3C25,12.6,24.6,13,24,13z"/>
</svg>
