<?xml version="1.0" encoding="utf-8"?>
<!-- Generator: Adobe Illustrator 19.0.1, SVG Export Plug-In . SVG Version: 6.00 Build 0)  -->
<!DOCTYPE svg PUBLIC "-//W3C//DTD SVG 1.1//EN" "http://www.w3.org/Graphics/SVG/1.1/DTD/svg11.dtd">
<svg version="1.1" id="Layer_1" xmlns="http://www.w3.org/2000/svg" xmlns:xlink="http://www.w3.org/1999/xlink" x="0px" y="0px"
	 width="32px" height="32px" viewBox="0 0 32 32" enable-background="new 0 0 32 32" xml:space="preserve">
<path d="M7,32V15H3c-0.6,0-1,0.4-1,1v15c0,0.6,0.4,1,1,1H7z"/>
<path d="M13,1c-0.5,0-0.9,0.3-1,0.8L9,15v17h15.3c1.9,0,3.6-1.4,3.9-3.3l1.8-9.5c0-0.1,0-0.1,0-0.2v-1c0-2.2-1.8-4-4-4h-9V5
	C17,2.8,15.2,1,13,1z"/>
</svg>
