<?xml version="1.0" encoding="utf-8"?>
<!-- Generator: Adobe Illustrator 19.0.1, SVG Export Plug-In . SVG Version: 6.00 Build 0)  -->
<!DOCTYPE svg PUBLIC "-//W3C//DTD SVG 1.1//EN" "http://www.w3.org/Graphics/SVG/1.1/DTD/svg11.dtd">
<svg version="1.1" id="Layer_1" xmlns="http://www.w3.org/2000/svg" xmlns:xlink="http://www.w3.org/1999/xlink" x="0px" y="0px"
	 width="32px" height="32px" viewBox="0 0 32 32" enable-background="new 0 0 32 32" xml:space="preserve">
<path d="M14,1h-1C9.8,1,7.2,3.5,7,6.6l-3.7,3.7C3,10.6,2.9,11,3.1,11.4C3.2,11.8,3.6,12,4,12h5v13c0,3.3,2.7,6,6,6h14
	c0.6,0,1-0.4,1-1V19c0-5.7-4.4-10.4-10-11V7C20,3.7,17.3,1,14,1z M21.3,17.3c0.4-0.4,1-0.4,1.4,0c0.4,0.4,0.4,1,0,1.4l-3,3
	C19.5,21.9,19.3,22,19,22c-0.3,0-0.5-0.1-0.7-0.3l-3-3c-0.4-0.4-0.4-1,0-1.4c0.4-0.4,1-0.4,1.4,0l2.3,2.3L21.3,17.3z"/>
</svg>
