<?xml version="1.0" encoding="utf-8"?>
<!-- Generator: Adobe Illustrator 19.0.1, SVG Export Plug-In . SVG Version: 6.00 Build 0)  -->
<!DOCTYPE svg PUBLIC "-//W3C//DTD SVG 1.1//EN" "http://www.w3.org/Graphics/SVG/1.1/DTD/svg11.dtd">
<svg version="1.1" id="Layer_1" xmlns="http://www.w3.org/2000/svg" xmlns:xlink="http://www.w3.org/1999/xlink" x="0px" y="0px"
	 width="32px" height="32px" viewBox="0 0 32 32" enable-background="new 0 0 32 32" xml:space="preserve">
<path d="M31,15h-3.1c-0.2-2.6-1.2-4.9-2.8-6.7l1.6-1.6c0.4-0.4,0.4-1,0-1.4c-0.4-0.4-1-0.4-1.4,0l-1.6,1.6c-1.9-1.6-4.2-2.6-6.7-2.8
	V1c0-0.6-0.4-1-1-1s-1,0.4-1,1v3.1c-2.6,0.2-4.9,1.2-6.7,2.8L6.7,5.3c-0.4-0.4-1-0.4-1.4,0c-0.4,0.4-0.4,1,0,1.4l1.6,1.6
	c-1.6,1.9-2.6,4.2-2.8,6.7H1c-0.6,0-1,0.4-1,1s0.4,1,1,1h3.1c0.2,2.6,1.2,4.9,2.8,6.7l-1.6,1.6c-0.4,0.4-0.4,1,0,1.4
	C5.5,26.9,5.7,27,6,27c0.3,0,0.5-0.1,0.7-0.3l1.6-1.6c1.9,1.6,4.2,2.6,6.7,2.8V31c0,0.6,0.4,1,1,1s1-0.4,1-1v-3.1
	c2.6-0.2,4.9-1.2,6.7-2.8l1.6,1.6c0.2,0.2,0.5,0.3,0.7,0.3s0.5-0.1,0.7-0.3c0.4-0.4,0.4-1,0-1.4l-1.6-1.6c1.6-1.9,2.6-4.2,2.8-6.7
	H31c0.6,0,1-0.4,1-1S31.6,15,31,15z M10,11h4v2h-4V11z M16,23c-3.3,0-6-2.7-6-6c0-0.6,0.4-1,1-1s1,0.4,1,1c0,2.2,1.8,4,4,4
	s4-1.8,4-4c0-0.6,0.4-1,1-1s1,0.4,1,1C22,20.3,19.3,23,16,23z M22,13h-4v-2h4V13z"/>
</svg>
