<?xml version="1.0" encoding="utf-8"?>
<!-- Generator: Adobe Illustrator 19.0.1, SVG Export Plug-In . SVG Version: 6.00 Build 0)  -->
<!DOCTYPE svg PUBLIC "-//W3C//DTD SVG 1.1//EN" "http://www.w3.org/Graphics/SVG/1.1/DTD/svg11.dtd">
<svg version="1.1" id="Layer_1" xmlns="http://www.w3.org/2000/svg" xmlns:xlink="http://www.w3.org/1999/xlink" x="0px" y="0px"
	 width="32px" height="32px" viewBox="0 0 32 32" enable-background="new 0 0 32 32" xml:space="preserve">
<path d="M16,0C7.2,0,0,6,0,13.3S9.7,32,16,32c6.1,0,16-11.6,16-18.7C32,6.1,24.7,0,16,0z M14.2,20.3c-0.1,0.5-0.5,0.8-1,0.8h-0.1
	c-0.1,0-3.3-0.4-5.3-2.4c-2.4-2.4-2.4-6.6-2.4-6.7c0-0.5,0.4-1,1-1h0.2c0.7,0,4.2,0.1,6.6,2.5C15.3,15.5,14.4,19.8,14.2,20.3z
	 M24.1,18.7c-2,2-5.1,2.4-5.3,2.4h-0.1c-0.5,0-0.9-0.3-1-0.8s-1-4.8,1.1-6.9c2.4-2.4,5.9-2.5,6.6-2.5h0.2c0.5,0,1,0.5,1,1
	C26.5,12.1,26.5,16.3,24.1,18.7z"/>
</svg>
