<?xml version="1.0" encoding="utf-8"?>
<!-- Generator: Adobe Illustrator 19.0.1, SVG Export Plug-In . SVG Version: 6.00 Build 0)  -->
<!DOCTYPE svg PUBLIC "-//W3C//DTD SVG 1.1//EN" "http://www.w3.org/Graphics/SVG/1.1/DTD/svg11.dtd">
<svg version="1.1" id="Layer_1" xmlns="http://www.w3.org/2000/svg" xmlns:xlink="http://www.w3.org/1999/xlink" x="0px" y="0px"
	 width="32px" height="32px" viewBox="0 0 32 32" enable-background="new 0 0 32 32" xml:space="preserve">
<path d="M16,0C7.2,0,0,7.2,0,16c0,8.8,7.2,16,16,16c8.8,0,16-7.2,16-16C32,7.2,24.8,0,16,0z M7,12c0-1.7,1.3-3,3-3s3,1.3,3,3
	s-1.3,3-3,3S7,13.7,7,12z M21,26c-0.6,0-1-0.4-1-1c0-2.2-1.8-4-4-4c-2.2,0-4,1.8-4,4c0,0.6-0.4,1-1,1s-1-0.4-1-1c0-3.3,2.7-6,6-6
	s6,2.7,6,6C22,25.6,21.6,26,21,26z M23,14.8V17c0,0.6-0.4,1-1,1s-1-0.4-1-1v-2.2c-1.2-0.4-2-1.5-2-2.8c0-1.7,1.3-3,3-3s3,1.3,3,3
	C25,13.3,24.2,14.4,23,14.8z"/>
</svg>
