<?xml version="1.0" encoding="utf-8"?>
<!-- Generator: Adobe Illustrator 19.0.1, SVG Export Plug-In . SVG Version: 6.00 Build 0)  -->
<!DOCTYPE svg PUBLIC "-//W3C//DTD SVG 1.1//EN" "http://www.w3.org/Graphics/SVG/1.1/DTD/svg11.dtd">
<svg version="1.1" id="Layer_1" xmlns="http://www.w3.org/2000/svg" xmlns:xlink="http://www.w3.org/1999/xlink" x="0px" y="0px"
	 width="32px" height="32px" viewBox="0 0 32 32" enable-background="new 0 0 32 32" xml:space="preserve">
<path d="M0,18c0,0.6,0.4,1,1,1h30c0.6,0,1-0.4,1-1v-4H0V18z"/>
<path d="M24,0H8C3.6,0,0,3.6,0,8v4h32V8C32,3.6,28.4,0,24,0z"/>
<path d="M16,32c6.7,0,12.3-4.6,13.7-11H2.3C3.7,27.4,9.3,32,16,32z M12,25h8v2h-8V25z"/>
</svg>
