<?xml version="1.0" encoding="utf-8"?>
<!-- Generator: Adobe Illustrator 19.0.1, SVG Export Plug-In . SVG Version: 6.00 Build 0)  -->
<!DOCTYPE svg PUBLIC "-//W3C//DTD SVG 1.1//EN" "http://www.w3.org/Graphics/SVG/1.1/DTD/svg11.dtd">
<svg version="1.1" id="Layer_1" xmlns="http://www.w3.org/2000/svg" xmlns:xlink="http://www.w3.org/1999/xlink" x="0px" y="0px"
	 width="32px" height="32px" viewBox="0 0 32 32" enable-background="new 0 0 32 32" xml:space="preserve">
<path d="M28,6V2h2c0.6,0,1-0.4,1-1s-0.4-1-1-1h-6c-0.6,0-1,0.4-1,1s0.4,1,1,1h2v4H6V2h2c0.6,0,1-0.4,1-1S8.6,0,8,0H2
	C1.4,0,1,0.4,1,1s0.4,1,1,1h2v4c-2.2,0-4,1.8-4,4v18c0,2.2,1.8,4,4,4h24c2.2,0,4-1.8,4-4V10C32,7.8,30.2,6,28,6z M20,11h6v2h-6V11z
	 M6,11h6v2H6V11z M27,27H5V17h22V27z"/>
</svg>
