<?xml version="1.0" encoding="utf-8"?>
<!-- Generator: Adobe Illustrator 19.0.1, SVG Export Plug-In . SVG Version: 6.00 Build 0)  -->
<!DOCTYPE svg PUBLIC "-//W3C//DTD SVG 1.1//EN" "http://www.w3.org/Graphics/SVG/1.1/DTD/svg11.dtd">
<svg version="1.1" id="Layer_1" xmlns="http://www.w3.org/2000/svg" xmlns:xlink="http://www.w3.org/1999/xlink" x="0px" y="0px"
	 width="32px" height="32px" viewBox="0 0 32 32" enable-background="new 0 0 32 32" xml:space="preserve">
<path d="M16,0C7.2,0,0,7.2,0,16c0,8.8,7.2,16,16,16c8.8,0,16-7.2,16-16C32,7.2,24.8,0,16,0z M8.6,9.7l5.8,2.9l-0.9,1.8l-5.8-2.9
	L8.6,9.7z M21,25c-0.6,0-1-0.4-1-1c0-2.2-1.8-4-4-4c-2.2,0-4,1.8-4,4c0,0.6-0.4,1-1,1s-1-0.4-1-1c0-3.3,2.7-6,6-6s6,2.7,6,6
	C22,24.6,21.6,25,21,25z M18.6,14.3l-0.9-1.8l5.8-2.9l0.9,1.8L18.6,14.3z"/>
</svg>
