<?xml version="1.0" encoding="utf-8"?>
<!-- Generator: Adobe Illustrator 19.0.1, SVG Export Plug-In . SVG Version: 6.00 Build 0)  -->
<!DOCTYPE svg PUBLIC "-//W3C//DTD SVG 1.1//EN" "http://www.w3.org/Graphics/SVG/1.1/DTD/svg11.dtd">
<svg version="1.1" id="Layer_1" xmlns="http://www.w3.org/2000/svg" xmlns:xlink="http://www.w3.org/1999/xlink" x="0px" y="0px"
	 width="32px" height="32px" viewBox="0 0 32 32" enable-background="new 0 0 32 32" xml:space="preserve">
<path d="M27,3H5C2.2,3,0,5.2,0,8v10c0,2.8,2.2,5,5,5h2v-8c0-0.6,0.4-1,1-1c0.6,0,1,0.4,1,1v8h6v-8c0-0.6,0.4-1,1-1c0.6,0,1,0.4,1,1
	v8h6v-8c0-0.6,0.4-1,1-1c0.6,0,1,0.4,1,1v8h2c2.8,0,5-2.2,5-5V8C32,5.2,29.8,3,27,3z"/>
<path d="M15,25c0,2.8,2.2,5,5,5h9c1.7,0,3-1.3,3-3v-4.1c-1.3,1.3-3,2.1-5,2.1H15z"/>
</svg>
