<?xml version="1.0" encoding="utf-8"?>
<!-- Generator: Adobe Illustrator 19.0.1, SVG Export Plug-In . SVG Version: 6.00 Build 0)  -->
<!DOCTYPE svg PUBLIC "-//W3C//DTD SVG 1.1//EN" "http://www.w3.org/Graphics/SVG/1.1/DTD/svg11.dtd">
<svg version="1.1" id="Layer_1" xmlns="http://www.w3.org/2000/svg" xmlns:xlink="http://www.w3.org/1999/xlink" x="0px" y="0px"
	 width="32px" height="32px" viewBox="0 0 32 32" enable-background="new 0 0 32 32" xml:space="preserve">
<path d="M16,0C7.2,0,0,7.2,0,16c0,8.8,7.2,16,16,16c8.8,0,16-7.2,16-16C32,7.2,24.8,0,16,0z M7,12c0-1.7,1.3-3,3-3s3,1.3,3,3
	s-1.3,3-3,3S7,13.7,7,12z M22.3,22.9l-3,1C19.2,24,19.1,24,19,24c-0.2,0-0.4-0.1-0.6-0.2L16,22.2l-2.4,1.6C13.3,24,13,24,12.7,23.9
	l-3-1c-0.5-0.2-0.8-0.7-0.6-1.3c0.2-0.5,0.7-0.8,1.3-0.6l2.5,0.8l2.6-1.7c0.3-0.2,0.8-0.2,1.1,0l2.6,1.7l2.5-0.8
	c0.5-0.2,1.1,0.1,1.3,0.6C23.1,22.2,22.8,22.8,22.3,22.9z M22,15c-1.7,0-3-1.3-3-3s1.3-3,3-3s3,1.3,3,3S23.7,15,22,15z"/>
</svg>
