<?xml version="1.0" encoding="utf-8"?>
<!-- Generator: Adobe Illustrator 19.0.1, SVG Export Plug-In . SVG Version: 6.00 Build 0)  -->
<!DOCTYPE svg PUBLIC "-//W3C//DTD SVG 1.1//EN" "http://www.w3.org/Graphics/SVG/1.1/DTD/svg11.dtd">
<svg version="1.1" id="Layer_1" xmlns="http://www.w3.org/2000/svg" xmlns:xlink="http://www.w3.org/1999/xlink" x="0px" y="0px"
	 width="32px" height="32px" viewBox="0 0 32 32" enable-background="new 0 0 32 32" xml:space="preserve">
<path d="M18,4C10.3,4,4,10.3,4,18c0,5.1,2.7,9.6,6.8,12H1c-0.6,0-1,0.4-1,1s0.4,1,1,1h17c7.7,0,14-6.3,14-14C32,10.3,25.7,4,18,4z
	 M13,23c0.6,0,1,0.4,1,1s-0.4,1-1,1c-1.7,0-3-1.3-3-3s1.3-3,3-3c0.6,0,1,0.4,1,1s-0.4,1-1,1c-0.6,0-1,0.4-1,1C12,22.6,12.4,23,13,23
	z M13,15c0.6,0,1,0.4,1,1s-0.4,1-1,1c-1.7,0-3-1.3-3-3s1.3-3,3-3c0.6,0,1,0.4,1,1s-0.4,1-1,1c-0.6,0-1,0.4-1,1
	C12,14.6,12.4,15,13,15z M20,25h-1V11h1c3.9,0,7,3.1,7,7C27,21.9,23.9,25,20,25z"/>
</svg>
