<?xml version="1.0" encoding="utf-8"?>
<!-- Generator: Adobe Illustrator 19.0.1, SVG Export Plug-In . SVG Version: 6.00 Build 0)  -->
<!DOCTYPE svg PUBLIC "-//W3C//DTD SVG 1.1//EN" "http://www.w3.org/Graphics/SVG/1.1/DTD/svg11.dtd">
<svg version="1.1" id="Layer_1" xmlns="http://www.w3.org/2000/svg" xmlns:xlink="http://www.w3.org/1999/xlink" x="0px" y="0px"
	 width="32px" height="32px" viewBox="0 0 32 32" enable-background="new 0 0 32 32" xml:space="preserve">
<path d="M16,0C7.2,0,0,7.2,0,16c0,8.8,7.2,16,16,16c8.8,0,16-7.2,16-16C32,7.2,24.8,0,16,0z M7,12c0-1.7,1.3-3,3-3s3,1.3,3,3
	s-1.3,3-3,3S7,13.7,7,12z M22,23h-1v1c0,0.6-0.4,1-1,1c-0.6,0-1-0.4-1-1v-1h-2v1c0,0.6-0.4,1-1,1c-0.6,0-1-0.4-1-1v-1h-2v1
	c0,0.6-0.4,1-1,1c-0.6,0-1-0.4-1-1v-1h-1c-0.6,0-1-0.4-1-1s0.4-1,1-1h1v-1c0-0.6,0.4-1,1-1c0.6,0,1,0.4,1,1v1h2v-1c0-0.6,0.4-1,1-1
	c0.6,0,1,0.4,1,1v1h2v-1c0-0.6,0.4-1,1-1c0.6,0,1,0.4,1,1v1h1c0.6,0,1,0.4,1,1S22.6,23,22,23z M22,15c-1.7,0-3-1.3-3-3s1.3-3,3-3
	s3,1.3,3,3S23.7,15,22,15z"/>
</svg>
