<?xml version="1.0" encoding="utf-8"?>
<!-- Generator: Adobe Illustrator 19.1.0, SVG Export Plug-In . SVG Version: 6.00 Build 0)  -->
<!DOCTYPE svg PUBLIC "-//W3C//DTD SVG 1.1//EN" "http://www.w3.org/Graphics/SVG/1.1/DTD/svg11.dtd">
<svg version="1.1" id="Layer_1" xmlns="http://www.w3.org/2000/svg" xmlns:xlink="http://www.w3.org/1999/xlink" x="0px" y="0px"
	 width="16px" height="16px" viewBox="0 0 16 16" enable-background="new 0 0 16 16" xml:space="preserve">
<path fill="#444444" d="M15,5h-4V1c0-0.6-0.4-1-1-1H6C5.4,0,5,0.4,5,1v4H1C0.4,5,0,5.4,0,6v4c0,0.6,0.4,1,1,1h4v4c0,0.6,0.4,1,1,1h4
	c0.6,0,1-0.4,1-1v-4h4c0.6,0,1-0.4,1-1V6C16,5.4,15.6,5,15,5z"/>
</svg>
