<?xml version="1.0" encoding="utf-8"?>
<!-- Generator: Adobe Illustrator 19.1.0, SVG Export Plug-In . SVG Version: 6.00 Build 0)  -->
<!DOCTYPE svg PUBLIC "-//W3C//DTD SVG 1.1//EN" "http://www.w3.org/Graphics/SVG/1.1/DTD/svg11.dtd">
<svg version="1.1" id="Layer_1" xmlns="http://www.w3.org/2000/svg" xmlns:xlink="http://www.w3.org/1999/xlink" x="0px" y="0px"
	 width="16px" height="16px" viewBox="0 0 16 16" enable-background="new 0 0 16 16" xml:space="preserve">
<path fill="#444444" d="M10,16c-0.4,0-0.8-0.3-0.9-0.7L5.8,5.6L3.9,9.4C3.7,9.8,3.4,10,3,10H0V8h2.4l2.7-5.4C5.3,2.2,5.7,2,6.1,2
	c0.4,0,0.7,0.3,0.9,0.7l3.2,9.7l1.9-3.8C12.3,8.2,12.6,8,13,8h3v2h-2.4l-2.7,5.4C10.7,15.8,10.4,16,10,16z"/>
<path data-color="color-2" fill="#444444" d="M12.4,1.4V0c-1.5,0.4-2.5,1.9-2.2,3.6c0.2,1.1,1.1,1.9,2.2,2.2c1.7,0.4,3.2-0.7,3.6-2.2h-1.4
	C13.4,3.6,12.4,2.6,12.4,1.4z"/>
</svg>
