<?xml version="1.0" encoding="utf-8"?>
<!-- Generator: Adobe Illustrator 19.1.0, SVG Export Plug-In . SVG Version: 6.00 Build 0)  -->
<!DOCTYPE svg PUBLIC "-//W3C//DTD SVG 1.1//EN" "http://www.w3.org/Graphics/SVG/1.1/DTD/svg11.dtd">
<svg version="1.1" id="Layer_1" xmlns="http://www.w3.org/2000/svg" xmlns:xlink="http://www.w3.org/1999/xlink" x="0px" y="0px"
	 width="16px" height="16px" viewBox="0 0 16 16" enable-background="new 0 0 16 16" xml:space="preserve">
<path fill="#444444" d="M2,11h4c0-2.9,0.8-3.4,0.8-5.2C6.8,3.5,5.5,2,3.9,2h0C2.3,2,1,3.5,1,5.8S2,11,2,11z"/>
<path fill="#444444" d="M4.2,15.6L4.2,15.6c1.7,0,2.3-1.5,1.8-3.6H2l-0.2,0.8C1.5,14.3,2.7,15.6,4.2,15.6z"/>
<path data-color="color-2" fill="#444444" d="M14,9h-4c0-2.9-0.8-3.4-0.8-5.2c0-2.3,1.3-3.8,2.9-3.8h0C13.7,0,15,1.5,15,3.8S14,9,14,9z"/>
<path data-color="color-2" fill="#444444" d="M11.8,13.6L11.8,13.6c-1.7,0-2.3-1.5-1.8-3.6h4l0.2,0.8C14.5,12.3,13.3,13.6,11.8,13.6z"/>
</svg>
