<?xml version="1.0" encoding="utf-8"?>
<!-- Generator: Adobe Illustrator 19.1.0, SVG Export Plug-In . SVG Version: 6.00 Build 0)  -->
<!DOCTYPE svg PUBLIC "-//W3C//DTD SVG 1.1//EN" "http://www.w3.org/Graphics/SVG/1.1/DTD/svg11.dtd">
<svg version="1.1" id="Layer_1" xmlns="http://www.w3.org/2000/svg" xmlns:xlink="http://www.w3.org/1999/xlink" x="0px" y="0px"
	 width="16px" height="16px" viewBox="0 0 16 16" enable-background="new 0 0 16 16" xml:space="preserve">
<path fill="#444444" d="M10,15c-0.4,0-0.8-0.3-0.9-0.7L5.8,4.6L3.9,8.4C3.7,8.8,3.4,9,3,9H0V7h2.4l2.7-5.4C5.3,1.2,5.7,1,6.1,1
	c0.4,0,0.7,0.3,0.9,0.7l3.2,9.7l1.9-3.8C12.3,7.2,12.6,7,13,7h3v2h-2.4l-2.7,5.4C10.7,14.8,10.4,15,10,15z"/>
</svg>
