<?xml version="1.0" encoding="utf-8"?>
<!-- Generator: Adobe Illustrator 19.1.0, SVG Export Plug-In . SVG Version: 6.00 Build 0)  -->
<!DOCTYPE svg PUBLIC "-//W3C//DTD SVG 1.1//EN" "http://www.w3.org/Graphics/SVG/1.1/DTD/svg11.dtd">
<svg version="1.1" id="Layer_1" xmlns="http://www.w3.org/2000/svg" xmlns:xlink="http://www.w3.org/1999/xlink" x="0px" y="0px"
	 width="16px" height="16px" viewBox="0 0 16 16" enable-background="new 0 0 16 16" xml:space="preserve">
<path fill="#444444" d="M14,10.2V9c0-0.6-0.4-1-1-1H5V6h7V4H5V1c0-0.6-0.4-1-1-1H1v2h2v6.1c-1.7,0.4-3,2-3,3.9c0,2.2,1.8,4,4,4
	s4-1.8,4-4c0-0.7-0.2-1.4-0.6-2H12v0.2c-1.2,0.4-2,1.5-2,2.8c0,1.7,1.3,3,3,3s3-1.3,3-3C16,11.7,15.2,10.6,14,10.2z"/>
</svg>
