<?xml version="1.0" encoding="utf-8"?>
<!-- Generator: Adobe Illustrator 19.1.0, SVG Export Plug-In . SVG Version: 6.00 Build 0)  -->
<!DOCTYPE svg PUBLIC "-//W3C//DTD SVG 1.1//EN" "http://www.w3.org/Graphics/SVG/1.1/DTD/svg11.dtd">
<svg version="1.1" id="Layer_1" xmlns="http://www.w3.org/2000/svg" xmlns:xlink="http://www.w3.org/1999/xlink" x="0px" y="0px"
	 width="16px" height="16px" viewBox="0 0 16 16" enable-background="new 0 0 16 16" xml:space="preserve">
<path fill="#444444" d="M6.5,5.7C6.5,2.6,8,0,8,0s1.5,2.6,1.5,5.7S8,11.4,8,11.4S6.5,8.9,6.5,5.7z"/>
<path data-color="color-2" fill="#444444" d="M12.1,8.7c1.5-1.5,3.5-1.8,3.5-1.8s-0.4,2-1.8,3.5s-3.5,1.8-3.5,1.8S10.7,10.2,12.1,8.7z"/>
<path fill="#444444" d="M12.9,13.7c1.6,0,2.9,1.1,2.9,1.1S14.5,16,12.9,16S10,14.9,10,14.9S11.3,13.7,12.9,13.7z"/>
<path data-color="color-2" fill="#444444" d="M3.9,8.7C2.4,7.3,0.4,6.9,0.4,6.9s0.4,2,1.8,3.5s3.5,1.8,3.5,1.8S5.3,10.2,3.9,8.7z"/>
<path fill="#444444" d="M3.1,13.7c-1.6,0-2.9,1.1-2.9,1.1S1.5,16,3.1,16S6,14.9,6,14.9S4.7,13.7,3.1,13.7z"/>
</svg>
