<?xml version="1.0" encoding="utf-8"?>
<!-- Generator: Adobe Illustrator 20.0.0, SVG Export Plug-In . SVG Version: 6.00 Build 0)  -->
<!DOCTYPE svg PUBLIC "-//W3C//DTD SVG 1.1//EN" "http://www.w3.org/Graphics/SVG/1.1/DTD/svg11.dtd">
<svg version="1.1" id="Layer_1" xmlns="http://www.w3.org/2000/svg" xmlns:xlink="http://www.w3.org/1999/xlink" x="0px" y="0px"
	 width="64px" height="64px" viewBox="0 0 64 64" enable-background="new 0 0 64 64" xml:space="preserve">
<path d="M33.445,31.373c1.248,1.916,0.706,4.481-1.21,5.729s-4.481,0.706-5.729-1.21l-1.832,1.231
	c1.922,2.951,5.872,3.786,8.823,1.864c2.951-1.922,3.785-5.872,1.864-8.823L33.445,31.373z"/>
<path d="M30.799,25.603c-2.949,1.926-3.778,5.877-1.852,8.826l1.865-1.18c-1.25-1.915-0.712-4.481,1.203-5.731
	c1.915-1.25,4.48-0.712,5.731,1.203l1.879-1.265C37.698,24.507,33.747,23.677,30.799,25.603z"/>
<path d="M58,9H6c-2.757,0-5,2.243-5,5v36c0,2.757,2.243,5,5,5h52c2.757,0,5-2.243,5-5V14C63,11.243,60.757,9,58,9z M61,50
	c0,1.654-1.346,3-3,3H6c-1.654,0-3-1.346-3-3V14c0-1.654,1.346-3,3-3h52c1.654,0,3,1.346,3,3V50z"/>
<path d="M32,18c-7.72,0-14,6.28-14,14s6.28,14,14,14s14-6.28,14-14S39.72,18,32,18z M32,44c-6.617,0-12-5.383-12-12s5.383-12,12-12
	s12,5.383,12,12S38.617,44,32,44z"/>
</svg>
