<?xml version="1.0" encoding="utf-8"?>
<!-- Generator: Adobe Illustrator 20.0.0, SVG Export Plug-In . SVG Version: 6.00 Build 0)  -->
<!DOCTYPE svg PUBLIC "-//W3C//DTD SVG 1.1//EN" "http://www.w3.org/Graphics/SVG/1.1/DTD/svg11.dtd">
<svg version="1.1" id="Layer_1" xmlns="http://www.w3.org/2000/svg" xmlns:xlink="http://www.w3.org/1999/xlink" x="0px" y="0px"
	 width="64px" height="64px" viewBox="0 0 64 64" enable-background="new 0 0 64 64" xml:space="preserve">
<path d="M34.077,30.868c1.877,2.882,1.062,6.741-1.82,8.618c-2.882,1.877-6.741,1.062-8.618-1.82l-2.756,1.852
	c2.891,4.439,8.832,5.694,13.271,2.803c4.439-2.891,5.694-8.832,2.803-13.271L34.077,30.868z"/>
<path d="M30.097,22.189c-4.435,2.896-5.682,8.84-2.786,13.275l2.806-1.775c-1.881-2.88-1.071-6.739,1.809-8.62
	s6.739-1.071,8.62,1.809l2.826-1.903C40.475,20.54,34.532,19.292,30.097,22.189z"/>
<path d="M58,9H6c-2.757,0-5,2.243-5,5v36c0,2.757,2.243,5,5,5h52c2.757,0,5-2.243,5-5V14C63,11.243,60.757,9,58,9z M61,50
	c0,1.654-1.346,3-3,3H6c-1.654,0-3-1.346-3-3V14c0-1.654,1.346-3,3-3h52c1.654,0,3,1.346,3,3V50z"/>
</svg>
