<?xml version="1.0" encoding="utf-8"?>
<!-- Generator: Adobe Illustrator 20.0.0, SVG Export Plug-In . SVG Version: 6.00 Build 0)  -->
<!DOCTYPE svg PUBLIC "-//W3C//DTD SVG 1.1//EN" "http://www.w3.org/Graphics/SVG/1.1/DTD/svg11.dtd">
<svg version="1.1" id="Layer_1" xmlns="http://www.w3.org/2000/svg" xmlns:xlink="http://www.w3.org/1999/xlink" x="0px" y="0px"
	 width="64px" height="64px" viewBox="0 0 64 64" enable-background="new 0 0 64 64" xml:space="preserve">
<path d="M58,9H6c-2.757,0-5,2.243-5,5v36c0,2.757,2.243,5,5,5h52c2.757,0,5-2.243,5-5V14C63,11.243,60.757,9,58,9z M61,50
	c0,1.654-1.346,3-3,3H6c-1.654,0-3-1.346-3-3V14c0-1.654,1.346-3,3-3h52c1.654,0,3,1.346,3,3V50z"/>
<path d="M23.5,28c-0.828,0-1.5,0.672-1.5,1.5v5c0,0.828,0.672,1.5,1.5,1.5s1.5-0.672,1.5-1.5v-5C25,28.672,24.328,28,23.5,28z"/>
<path d="M40.5,28c-0.828,0-1.5,0.672-1.5,1.5v5c0,0.828,0.672,1.5,1.5,1.5s1.5-0.672,1.5-1.5v-5C42,28.672,41.328,28,40.5,28z"/>
<path d="M26,39c0,0.552,0.448,1,1,1h1v2.5c0,0.828,0.672,1.5,1.5,1.5s1.5-0.672,1.5-1.5V40h2v2.5c0,0.828,0.672,1.5,1.5,1.5
	s1.5-0.672,1.5-1.5V40h1c0.552,0,1-0.448,1-1V28H26V39z"/>
<path d="M37.8,20.599c0.332-0.441,0.242-1.068-0.2-1.399c-0.443-0.331-1.069-0.241-1.4,0.2l-1.636,2.181
	C33.786,21.212,32.919,21,32,21s-1.786,0.213-2.564,0.582L27.8,19.4c-0.331-0.441-0.957-0.531-1.4-0.2
	c-0.442,0.331-0.531,0.958-0.2,1.399l1.594,2.125C26.688,23.812,26,25.325,26,27h12c0-1.675-0.687-3.187-1.794-4.276L37.8,20.599z"
	/>
</svg>
