<?xml version="1.0" encoding="utf-8"?>
<!-- Generator: Adobe Illustrator 20.0.0, SVG Export Plug-In . SVG Version: 6.00 Build 0)  -->
<!DOCTYPE svg PUBLIC "-//W3C//DTD SVG 1.1//EN" "http://www.w3.org/Graphics/SVG/1.1/DTD/svg11.dtd">
<svg version="1.1" id="Layer_1" xmlns="http://www.w3.org/2000/svg" xmlns:xlink="http://www.w3.org/1999/xlink" x="0px" y="0px"
	 width="64px" height="64px" viewBox="0 0 64 64" enable-background="new 0 0 64 64" xml:space="preserve">
<path d="M16.971,31.209c-0.819-0.303-1.268-0.538-1.268-0.909c0-0.314,0.258-0.494,0.718-0.494c0.841,0,1.705,0.325,2.3,0.617
	l0.337-2.075c-0.471-0.224-1.436-0.595-2.771-0.595c-0.942,0-1.727,0.247-2.288,0.707c-0.583,0.482-0.886,1.178-0.886,2.019
	c0,1.526,0.931,2.176,2.445,2.726c0.976,0.348,1.301,0.594,1.301,0.976c0,0.37-0.314,0.583-0.886,0.583
	c-0.707,0-1.873-0.348-2.636-0.796L13,36.066c0.651,0.37,1.862,0.752,3.118,0.752c0.998,0,1.828-0.236,2.389-0.684
	c0.628-0.494,0.953-1.223,0.953-2.165C19.461,32.409,18.508,31.759,16.971,31.209z"/>
<path d="M40.13,27.754c-0.808,0-1.514,0.337-2.176,1.043l-0.146-0.875h-2.445V39.88l2.782-0.46v-2.804
	c0.426,0.135,0.864,0.202,1.256,0.202c0.695,0,1.705-0.179,2.49-1.032c0.752-0.819,1.133-2.086,1.133-3.758
	c0-1.481-0.28-2.602-0.841-3.32C41.69,28.068,41.005,27.754,40.13,27.754z M39.872,34.092c-0.224,0.426-0.572,0.651-0.976,0.651
	c-0.28,0-0.527-0.056-0.752-0.168v-4.15c0.471-0.494,0.897-0.55,1.054-0.55c0.707,0,1.054,0.763,1.054,2.255
	C40.254,32.982,40.13,33.643,39.872,34.092z"/>
<rect x="31.475" y="27.922" width="2.793" height="8.727"/>
<path d="M32.877,24.12c-0.819,0-1.469,0.651-1.469,1.469c0,0.808,0.651,1.469,1.469,1.469c0.808,0,1.458-0.662,1.458-1.469
	C34.335,24.77,33.685,24.12,32.877,24.12z"/>
<path d="M28.615,28.954l-0.168-1.032h-2.434v8.727h2.782v-5.665c0.348-0.426,0.841-0.58,1.514-0.58c0.146,0,0.303,0,0.494,0.034
	v-2.569c-0.191-0.045-0.359-0.067-0.527-0.067C29.489,27.802,28.861,28.214,28.615,28.954z"/>
<path d="M24.94,29.986l0.336-2.064h-1.777v-2.506l-2.389,0.393l-0.345,2.112l-0.84,0.136l-0.315,1.928h1.151v4.049
	c0,1.054,0.269,1.784,0.819,2.232c0.46,0.37,1.122,0.55,2.053,0.55c0.718,0,1.155-0.123,1.458-0.202v-2.187
	c-0.168,0.045-0.55,0.123-0.808,0.123c-0.55,0-0.785-0.28-0.785-0.92v-3.646H24.94z"/>
<path d="M47.433,27.754c-2.367,0-3.836,1.75-3.836,4.554c0,1.57,0.393,2.748,1.167,3.5c0.695,0.673,1.694,1.01,2.984,1.01
	c1.189,0,2.288-0.28,2.984-0.74l-0.303-1.907c-0.684,0.37-1.481,0.572-2.378,0.572c-0.538,0-0.909-0.112-1.178-0.348
	c-0.292-0.247-0.46-0.651-0.516-1.223h4.61C50.978,33.038,51,32.409,51,32.208c0-1.391-0.303-2.49-0.897-3.264
	C49.497,28.158,48.588,27.754,47.433,27.754z M46.334,31.467c0.078-1.245,0.415-1.828,1.054-1.828c0.628,0,0.953,0.595,0.998,1.828
	H46.334z"/>
<path d="M58,9H6c-2.757,0-5,2.243-5,5v36c0,2.757,2.243,5,5,5h52c2.757,0,5-2.243,5-5V14C63,11.243,60.757,9,58,9z M61,50
	c0,1.654-1.346,3-3,3H6c-1.654,0-3-1.346-3-3V14c0-1.654,1.346-3,3-3h52c1.654,0,3,1.346,3,3V50z"/>
</svg>
