<?xml version="1.0" encoding="utf-8"?>
<!-- Generator: Adobe Illustrator 20.0.0, SVG Export Plug-In . SVG Version: 6.00 Build 0)  -->
<!DOCTYPE svg PUBLIC "-//W3C//DTD SVG 1.1//EN" "http://www.w3.org/Graphics/SVG/1.1/DTD/svg11.dtd">
<svg version="1.1" id="Layer_1" xmlns="http://www.w3.org/2000/svg" xmlns:xlink="http://www.w3.org/1999/xlink" x="0px" y="0px"
	 width="64px" height="64px" viewBox="0 0 64 64" enable-background="new 0 0 64 64" xml:space="preserve">
<path d="M38.923,21c-2.622,0-5.028,0.907-6.924,2.42C30.102,21.909,27.698,21,25.077,21C18.959,21,14,25.925,14,32
	s4.959,11,11.077,11c2.625,0,5.033-0.911,6.932-2.427C33.903,42.086,36.302,43,38.923,43C45.041,43,50,38.075,50,32
	S45.041,21,38.923,21z M27.942,33.375h5.318c-0.08,0.474-0.201,0.932-0.36,1.375h-4.691c0.122,0.471,0.268,0.931,0.45,1.375h3.602
	c-0.289,0.494-0.627,0.953-1.009,1.375H29.34c0.219,0.376,0.466,0.734,0.727,1.08c-1.391,1.043-3.116,1.67-4.99,1.67
	c-4.581,0-8.308-3.701-8.308-8.25s3.727-8.25,8.308-8.25c2.452,0,4.653,1.067,6.175,2.75H29.34
	c-0.257,0.441-0.487,0.898-0.681,1.375h3.602c0.254,0.435,0.468,0.895,0.639,1.375h-4.691c-0.117,0.448-0.208,0.906-0.267,1.375
	h5.318c0.076,0.448,0.125,0.906,0.125,1.375h-5.539C27.846,32.467,27.885,32.924,27.942,33.375z"/>
<path d="M58,9H6c-2.757,0-5,2.243-5,5v36c0,2.757,2.243,5,5,5h52c2.757,0,5-2.243,5-5V14C63,11.243,60.757,9,58,9z M61,50
	c0,1.654-1.346,3-3,3H6c-1.654,0-3-1.346-3-3V14c0-1.654,1.346-3,3-3h52c1.654,0,3,1.346,3,3V50z"/>
</svg>
