<?xml version="1.0" encoding="utf-8"?>
<!-- Generator: Adobe Illustrator 20.0.0, SVG Export Plug-In . SVG Version: 6.00 Build 0)  -->
<!DOCTYPE svg PUBLIC "-//W3C//DTD SVG 1.1//EN" "http://www.w3.org/Graphics/SVG/1.1/DTD/svg11.dtd">
<svg version="1.1" id="Layer_1" xmlns="http://www.w3.org/2000/svg" xmlns:xlink="http://www.w3.org/1999/xlink" x="0px" y="0px"
	 width="64px" height="64px" viewBox="0 0 64 64" enable-background="new 0 0 64 64" xml:space="preserve">
<rect x="29.147" y="28.739" width="2.283" height="11.166"/>
<path d="M38.764,38.031c-0.71,0-1.071-0.422-1.071-1.255v-5.926h2.332v-2.094h-2.332v-3.489l-2.247,1.206v2.283h-1.922v2.094h1.922
	v6.299c0,0.869,0.239,1.567,0.698,2.094c0.459,0.545,1.071,0.814,1.843,0.833c0.765,0.018,1.445-0.153,2.02-0.508l0.037-0.018
	v-0.037l0.545-2.124l-0.135,0.086C39.842,37.848,39.279,38.031,38.764,38.031z"/>
<rect x="42.272" y="28.739" width="2.302" height="11.166"/>
<path d="M23.791,30.747c0.967,0,1.867,0.429,2.706,1.261l0.049,0.049l1.292-1.561l-0.049-0.037
	c-1.053-1.279-2.369-1.904-3.948-1.904c-1.653,0-3.012,0.508-4.101,1.512C18.581,31.126,18,32.553,18,34.34s0.581,3.202,1.739,4.273
	c1.071,1.004,2.449,1.5,4.101,1.5c1.579,0,2.908-0.63,3.948-1.892l0.049-0.037l-1.292-1.561l-0.049,0.049
	c-0.839,0.833-1.738,1.261-2.706,1.261c-1.01,0-1.843-0.343-2.504-1.022c-0.667-0.667-0.986-1.53-0.986-2.571
	s0.318-1.91,0.986-2.589C21.948,31.09,22.781,30.747,23.791,30.747z"/>
<path d="M41.899,23.315c-1.616-0.839-3.299-1.249-5.087-1.249c-1.769,0-3.477,0.41-5.093,1.249
	c-1.616,0.845-2.963,2.002-3.997,3.465l-0.104,0.153h2.638l0.018-0.031c0.9-0.918,1.904-1.616,3.049-2.112
	c1.102-0.477,2.277-0.71,3.489-0.71c1.206,0,2.381,0.233,3.508,0.71c1.12,0.496,2.124,1.194,3.024,2.112l0.037,0.031H46
	l-0.098-0.153C44.861,25.317,43.515,24.16,41.899,23.315z"/>
<path d="M58,9H6c-2.757,0-5,2.243-5,5v36c0,2.757,2.243,5,5,5h52c2.757,0,5-2.243,5-5V14C63,11.243,60.757,9,58,9z M61,50
	c0,1.654-1.346,3-3,3H6c-1.654,0-3-1.346-3-3V14c0-1.654,1.346-3,3-3h52c1.654,0,3,1.346,3,3V50z"/>
</svg>
