<?xml version="1.0" encoding="utf-8"?>
<!-- Generator: Adobe Illustrator 20.0.0, SVG Export Plug-In . SVG Version: 6.00 Build 0)  -->
<!DOCTYPE svg PUBLIC "-//W3C//DTD SVG 1.1//EN" "http://www.w3.org/Graphics/SVG/1.1/DTD/svg11.dtd">
<svg version="1.1" id="Layer_1" xmlns="http://www.w3.org/2000/svg" xmlns:xlink="http://www.w3.org/1999/xlink" x="0px" y="0px"
	 width="64px" height="64px" viewBox="0 0 64 64" enable-background="new 0 0 64 64" xml:space="preserve">
<path d="M42.424,26.895C41.926,26.309,41.043,26,39.871,26h-3.503c-0.24,0-0.443,0.174-0.481,0.411l-1.417,8.982
	c-0.028,0.177,0.109,0.337,0.288,0.337h1.797c0.168,0,0.31-0.122,0.336-0.288l0.402-2.546c0.037-0.237,0.241-0.411,0.481-0.411
	h1.108c2.307,0,3.639-1.117,3.987-3.33C43.028,28.188,42.877,27.427,42.424,26.895z M40.275,29.28
	c-0.191,1.257-1.152,1.257-2.081,1.257h-0.528l0.371-2.348c0.022-0.142,0.145-0.246,0.288-0.246c0.769,0,1.444-0.032,1.78,0.36
	C40.289,28.52,40.345,28.839,40.275,29.28z"/>
<path d="M17.44,26.895C16.942,26.309,16.059,26,14.887,26h-3.503c-0.24,0-0.443,0.174-0.481,0.411l-1.416,8.982
	C9.459,35.57,9.596,35.73,9.776,35.73h1.672c0.24,0,0.443-0.174,0.481-0.411l0.382-2.423c0.037-0.237,0.241-0.411,0.481-0.411H13.9
	c2.307,0,3.639-1.117,3.987-3.33C18.044,28.188,17.894,27.427,17.44,26.895z M15.292,29.28c-0.191,1.257-1.152,1.257-2.081,1.257
	h-0.528l0.371-2.348c0.022-0.142,0.145-0.246,0.288-0.246h0.242c0.632,0,1.229,0,1.537,0.36
	C15.306,28.52,15.361,28.839,15.292,29.28z"/>
<path d="M25.357,29.24H23.68c-0.144,0-0.266,0.104-0.288,0.247l-0.074,0.469c-0.163-0.236-0.486-0.873-2.098-0.873
	c-1.853,0-3.436,1.404-3.744,3.374c-0.16,0.983,0.067,1.922,0.624,2.577c0.512,0.602,1.242,0.853,2.113,0.853
	c1.494,0,2.322-0.96,2.322-0.96l-0.075,0.466c-0.028,0.177,0.109,0.338,0.288,0.338h1.51c0.239,0,0.443-0.174,0.481-0.411
	l0.907-5.742C25.674,29.4,25.536,29.24,25.357,29.24z M23.019,32.505c-0.162,0.958-0.923,1.602-1.893,1.602
	c-0.487,0-0.876-0.157-1.126-0.453c-0.248-0.294-0.341-0.712-0.263-1.178c0.151-0.95,0.924-1.614,1.88-1.614
	c0.476,0,0.863,0.158,1.118,0.457C22.992,31.62,23.093,32.041,23.019,32.505z"/>
<path d="M50.341,29.24h-1.677c-0.144,0-0.266,0.104-0.288,0.247l-0.074,0.469c-0.163-0.236-0.486-0.873-2.098-0.873
	c-1.853,0-3.436,1.404-3.744,3.374c-0.16,0.983,0.067,1.922,0.624,2.577c0.512,0.602,1.242,0.853,2.113,0.853
	c1.494,0,2.322-0.96,2.322-0.96l-0.075,0.466c-0.028,0.177,0.109,0.338,0.288,0.338h1.51c0.239,0,0.443-0.174,0.481-0.411
	l0.907-5.742C50.657,29.4,50.52,29.24,50.341,29.24z M48.003,32.505c-0.162,0.958-0.923,1.602-1.893,1.602
	c-0.487,0-0.876-0.157-1.126-0.453c-0.248-0.294-0.341-0.712-0.263-1.178c0.151-0.95,0.924-1.614,1.88-1.614
	c0.476,0,0.863,0.158,1.118,0.457C47.976,31.62,48.077,32.041,48.003,32.505z"/>
<path d="M34.291,29.24h-1.686c-0.161,0-0.312,0.08-0.403,0.213l-2.326,3.425l-0.986-3.291c-0.062-0.206-0.251-0.347-0.466-0.347
	h-1.657c-0.2,0-0.341,0.197-0.276,0.386l1.856,5.449l-1.746,2.464C26.464,37.732,26.602,38,26.839,38h1.684
	c0.16,0,0.309-0.078,0.4-0.21l5.607-8.092C34.665,29.505,34.526,29.24,34.291,29.24z"/>
<path d="M54.224,26h-1.618c-0.144,0-0.266,0.105-0.288,0.247l-1.438,9.146c-0.028,0.177,0.109,0.337,0.288,0.337h1.446
	c0.24,0,0.443-0.174,0.481-0.411l1.418-8.982C54.541,26.16,54.404,26,54.224,26z"/>
<path d="M58,9H6c-2.757,0-5,2.243-5,5v36c0,2.757,2.243,5,5,5h52c2.757,0,5-2.243,5-5V14C63,11.243,60.757,9,58,9z M61,50
	c0,1.654-1.346,3-3,3H6c-1.654,0-3-1.346-3-3V14c0-1.654,1.346-3,3-3h52c1.654,0,3,1.346,3,3V50z"/>
</svg>
