<?xml version="1.0" encoding="utf-8"?>
<!-- Generator: Adobe Illustrator 20.0.0, SVG Export Plug-In . SVG Version: 6.00 Build 0)  -->
<!DOCTYPE svg PUBLIC "-//W3C//DTD SVG 1.1//EN" "http://www.w3.org/Graphics/SVG/1.1/DTD/svg11.dtd">
<svg version="1.1" id="Layer_1" xmlns="http://www.w3.org/2000/svg" xmlns:xlink="http://www.w3.org/1999/xlink" x="0px" y="0px"
	 width="64px" height="64px" viewBox="0 0 64 64" enable-background="new 0 0 64 64" xml:space="preserve">
<path d="M36.478,35.281c-2.605,1.105-5.437,1.64-8.013,1.64c-3.819,0-7.516-1.048-10.505-2.787
	c-0.262-0.152-0.456,0.116-0.238,0.313c2.771,2.502,6.433,4.005,10.499,4.005c2.901,0,6.271-0.912,8.595-2.627
	C37.2,35.54,36.871,35.115,36.478,35.281z"/>
<path d="M35.011,34.315c-0.205,0.144-0.169,0.342,0.057,0.315c0.749-0.09,2.417-0.29,2.714,0.091
	c0.297,0.381-0.331,1.949-0.611,2.65c-0.085,0.212,0.097,0.298,0.289,0.137c1.247-1.043,1.569-3.229,1.314-3.544
	C38.521,33.65,36.341,33.38,35.011,34.315z"/>
<path d="M39.562,31.663c-0.711-0.4-1.539-0.517-2.321-0.498l2.108-3.01c0.195-0.27,0.305-0.441,0.306-0.572l0-0.779
	c0-0.135-0.105-0.229-0.235-0.229l-4.069,0c-0.125,0-0.23,0.092-0.23,0.23v0.908c0.001,0.136,0.105,0.229,0.235,0.229l2.126,0
	l-2.442,3.504c-0.149,0.225-0.151,0.477-0.151,0.624v0.921c0,0.134,0.148,0.286,0.29,0.21c1.385-0.736,3.047-0.664,4.3-0.008
	c0.154,0.08,0.3-0.074,0.3-0.208v-0.969C39.765,31.887,39.722,31.753,39.562,31.663z"/>
<path d="M19.039,33.385h1.238c0.132,0,0.239-0.102,0.239-0.229l0.001-3.368c0-0.735-0.035-1.752,0.855-1.752
	c0.878,0,0.763,1.043,0.763,1.752l0.001,3.368c0,0.122,0.098,0.22,0.222,0.228h1.237c0.132,0,0.239-0.102,0.239-0.229v-3.368
	c0-0.361-0.012-0.896,0.115-1.217c0.127-0.321,0.439-0.521,0.74-0.521c0.358,0,0.635,0.12,0.728,0.548
	c0.058,0.254,0.035,0.923,0.035,1.19l0,3.368c0,0.122,0.098,0.22,0.222,0.228h1.237c0.132,0,0.239-0.102,0.239-0.229l0.001-4.01
	c0-0.682,0.081-1.457-0.312-1.992c-0.347-0.481-0.913-0.695-1.433-0.695c-0.728,0-1.41,0.374-1.71,1.177
	c-0.347-0.802-0.832-1.177-1.606-1.177c-0.763,0-1.329,0.374-1.629,1.177h-0.023v-0.83c-0.008-0.116-0.104-0.207-0.225-0.213
	l-1.153,0c-0.132,0-0.239,0.102-0.239,0.229l-0.001,6.354C18.827,33.288,18.922,33.377,19.039,33.385z"/>
<path d="M43.159,26.459c-1.791,0-2.785,1.538-2.785,3.517c0,1.965,0.982,3.543,2.785,3.543c1.734,0,2.831-1.538,2.831-3.477
	C45.99,28.036,44.996,26.459,43.159,26.459z M43.159,32.208c-0.971,0-0.959-1.658-0.959-2.433s0.058-2.019,0.971-2.019
	c0.393,0,0.67,0.174,0.809,0.615c0.162,0.508,0.185,1.15,0.185,1.685C44.164,30.871,44.118,32.208,43.159,32.208z"/>
<path d="M50.232,26.459c-0.855,0-1.34,0.414-1.687,1.284h-0.023V26.77c-0.023-0.099-0.112-0.172-0.22-0.178l-1.148,0
	c-0.125,0-0.227,0.091-0.238,0.207l0.002,6.356c0,0.122,0.098,0.22,0.222,0.228h1.233c0.132,0,0.239-0.102,0.241-0.229v-3.421
	c0-0.428,0.023-0.816,0.197-1.203c0.139-0.307,0.416-0.508,0.716-0.508c0.855,0,0.774,1.016,0.774,1.711v3.45
	c0.013,0.109,0.106,0.193,0.221,0.2h1.241c0.122,0,0.223-0.087,0.237-0.2v-3.998c0-0.615,0-1.471-0.324-1.979
	C51.33,26.659,50.786,26.459,50.232,26.459z"/>
<path d="M31.877,29.091c-0.718,0.08-1.656,0.134-2.328,0.429c-0.776,0.335-1.32,1.018-1.32,2.023c0,1.286,0.811,1.93,1.853,1.93
	c0.88,0,1.362-0.208,2.041-0.9c0.225,0.325,0.298,0.483,0.71,0.825c0.092,0.05,0.211,0.045,0.293-0.029l0.003,0.003
	c0.247-0.22,0.697-0.61,0.949-0.822c0.101-0.082,0.083-0.216,0.004-0.329c-0.226-0.313-0.467-0.567-0.467-1.147v-1.929
	c0-0.817,0.058-1.568-0.544-2.131c-0.475-0.456-1.262-0.616-1.865-0.616c-1.178,0-2.493,0.44-2.769,1.896
	c-0.029,0.155,0.083,0.236,0.185,0.259l1.2,0.13c0.112-0.006,0.194-0.116,0.215-0.228c0.103-0.501,0.523-0.743,0.995-0.743
	c0.255,0,0.544,0.094,0.695,0.322c0.174,0.255,0.151,0.603,0.151,0.898V29.091z M31.877,30.35c0,0.482,0.012,0.884-0.232,1.313
	c-0.197,0.348-0.51,0.563-0.857,0.563c-0.475,0-0.753-0.362-0.753-0.898c0-1.054,0.946-1.246,1.841-1.246V30.35z"/>
<path d="M17.852,32.22c-0.226-0.313-0.467-0.567-0.467-1.147v-1.929c0-0.817,0.058-1.568-0.544-2.131
	c-0.475-0.456-1.262-0.616-1.865-0.616c-1.178,0-2.493,0.44-2.768,1.896c-0.029,0.155,0.083,0.236,0.185,0.259l1.2,0.13
	c0.112-0.006,0.194-0.116,0.215-0.228c0.103-0.501,0.523-0.743,0.995-0.743c0.255,0,0.544,0.094,0.695,0.322
	c0.174,0.255,0.15,0.603,0.15,0.898v0.161c-0.718,0.08-1.656,0.134-2.328,0.429C12.544,29.855,12,30.538,12,31.543
	c0,1.286,0.811,1.93,1.853,1.93c0.88,0,1.362-0.208,2.041-0.9c0.225,0.325,0.298,0.483,0.71,0.825
	c0.092,0.05,0.211,0.045,0.293-0.029l0.003,0.003c0.247-0.22,0.697-0.61,0.949-0.822C17.949,32.467,17.932,32.333,17.852,32.22z
	 M15.648,30.35c0,0.482,0.012,0.884-0.232,1.313c-0.197,0.348-0.509,0.563-0.857,0.563c-0.475,0-0.753-0.362-0.753-0.898
	c0-1.054,0.946-1.246,1.841-1.246V30.35z"/>
<path d="M58,9H6c-2.757,0-5,2.243-5,5v36c0,2.757,2.243,5,5,5h52c2.757,0,5-2.243,5-5V14C63,11.243,60.757,9,58,9z M61,50
	c0,1.654-1.346,3-3,3H6c-1.654,0-3-1.346-3-3V14c0-1.654,1.346-3,3-3h52c1.654,0,3,1.346,3,3V50z"/>
</svg>
