<?xml version="1.0" encoding="utf-8"?>
<!-- Generator: Adobe Illustrator 20.0.0, SVG Export Plug-In . SVG Version: 6.00 Build 0)  -->
<!DOCTYPE svg PUBLIC "-//W3C//DTD SVG 1.1//EN" "http://www.w3.org/Graphics/SVG/1.1/DTD/svg11.dtd">
<svg version="1.1" id="Layer_1" xmlns="http://www.w3.org/2000/svg" xmlns:xlink="http://www.w3.org/1999/xlink" x="0px" y="0px"
	 width="64px" height="64px" viewBox="0 0 64 64" enable-background="new 0 0 64 64" xml:space="preserve">
<path d="M16,12v2H4c-0.552,0-1,0.448-1,1v47c0,0.552,0.448,1,1,1h46c0.552,0,1-0.448,1-1v-8c0-0.552-0.448-1-1-1s-1,0.448-1,1v7H5
	V16h11v7c0,0.552,0.448,1,1,1s1-0.448,1-1v-7h18v7c0,0.552,0.448,1,1,1s1-0.448,1-1v-7h11v17.586L38.293,44.293
	c-0.147,0.147-0.245,0.337-0.279,0.542l-1,6c-0.053,0.319,0.051,0.643,0.279,0.872C37.482,51.896,37.737,52,38,52
	c0.055,0,0.109-0.004,0.165-0.014l6-1c0.206-0.034,0.395-0.132,0.542-0.279l16-16c0.391-0.391,0.391-1.023,0-1.414l-5-5
	c-0.391-0.391-1.023-0.391-1.414,0L51,31.586V15c0-0.552-0.448-1-1-1H38v-2c0-6.065-4.935-11-11-11S16,5.935,16,12z M55,30.414
	L58.586,34L43.52,49.066l-4.303,0.717l0.717-4.303l10.773-10.773c0,0,0,0,0.001-0.001L55,30.414z M36,12v2H18v-2
	c0-4.962,4.038-9,9-9S36,7.038,36,12z"/>
</svg>
