<?xml version="1.0" encoding="utf-8"?>
<!-- Generator: Adobe Illustrator 20.0.0, SVG Export Plug-In . SVG Version: 6.00 Build 0)  -->
<!DOCTYPE svg PUBLIC "-//W3C//DTD SVG 1.1//EN" "http://www.w3.org/Graphics/SVG/1.1/DTD/svg11.dtd">
<svg version="1.1" id="Layer_1" xmlns="http://www.w3.org/2000/svg" xmlns:xlink="http://www.w3.org/1999/xlink" x="0px" y="0px"
	 width="64px" height="64px" viewBox="0 0 64 64" enable-background="new 0 0 64 64" xml:space="preserve">
<path d="M2,21h18c0.553,0,1-0.448,1-1V2c0-0.552-0.447-1-1-1H2C1.447,1,1,1.448,1,2v18C1,20.552,1.447,21,2,21z M3,3h16v16H3V3z"/>
<path d="M14,7H8C7.447,7,7,7.448,7,8v6c0,0.552,0.447,1,1,1h6c0.553,0,1-0.448,1-1V8C15,7.448,14.553,7,14,7z M13,13H9V9h4V13z"/>
<path d="M2,63h18c0.553,0,1-0.448,1-1V44c0-0.552-0.447-1-1-1H2c-0.553,0-1,0.448-1,1v18C1,62.552,1.447,63,2,63z M3,45h16v16H3V45z
	"/>
<path d="M14,49H8c-0.553,0-1,0.448-1,1v6c0,0.552,0.447,1,1,1h6c0.553,0,1-0.448,1-1v-6C15,49.448,14.553,49,14,49z M13,55H9v-4h4
	V55z"/>
<path d="M62,1H44c-0.553,0-1,0.448-1,1v18c0,0.552,0.447,1,1,1h18c0.553,0,1-0.448,1-1V2C63,1.448,62.553,1,62,1z M61,19H45V3h16V19
	z"/>
<path d="M50,15h6c0.553,0,1-0.448,1-1V8c0-0.552-0.447-1-1-1h-6c-0.553,0-1,0.448-1,1v6C49,14.552,49.447,15,50,15z M51,9h4v4h-4V9z
	"/>
<path d="M62,60H41v-2c0-0.552-0.447-1-1-1s-1,0.448-1,1v3c0,0.552,0.447,1,1,1h22c0.553,0,1-0.448,1-1S62.553,60,62,60z"/>
<path d="M30,62h4c0.553,0,1-0.448,1-1s-0.447-1-1-1h-3v-8c0-0.552-0.447-1-1-1h-3v-6c0-0.552-0.447-1-1-1s-1,0.448-1,1v7
	c0,0.552,0.447,1,1,1h3v5h-3c-0.553,0-1,0.448-1,1s0.447,1,1,1h3v1C29,61.552,29.447,62,30,62z"/>
<path d="M21,24c-0.553,0-1,0.448-1,1s0.447,1,1,1h11c0.553,0,1-0.448,1-1V14c0-0.552-0.447-1-1-1h-5V5h4v3c0,0.552,0.447,1,1,1h6
	c0.553,0,1-0.448,1-1V2c0-0.552-0.447-1-1-1s-1,0.448-1,1v5h-4V2c0-0.552-0.447-1-1-1h-6c-0.553,0-1,0.448-1,1v12
	c0,0.552,0.447,1,1,1h5v3h-5c-0.553,0-1,0.448-1,1s0.447,1,1,1h5v4H21z"/>
<path d="M2,27h4v3c0,0.552,0.447,1,1,1h9v4h-4c-0.553,0-1,0.448-1,1s0.447,1,1,1h4v2c0,0.552,0.447,1,1,1h8c0.553,0,1-0.448,1-1
	s-0.447-1-1-1h-7v-8c0-0.552-0.447-1-1-1h-3v-3c0-0.552-0.447-1-1-1s-1,0.448-1,1v3H8v-3c0-0.552-0.447-1-1-1H2
	c-0.553,0-1,0.448-1,1S1.447,27,2,27z"/>
<path d="M42,48c-0.553,0-1,0.448-1,1v3h-4V42c0-0.552-0.447-1-1-1h-4V31c0-0.552-0.447-1-1-1h-8c-0.553,0-1,0.448-1,1v3
	c0,0.552,0.447,1,1,1s1-0.448,1-1v-2h6v10c0,0.552,0.447,1,1,1h4v10c0,0.552,0.447,1,1,1h11v2c0,0.552,0.447,1,1,1s1-0.448,1-1v-7
	c0-0.552-0.447-1-1-1s-1,0.448-1,1v3h-4v-3C43,48.448,42.553,48,42,48z"/>
<path d="M62,33c-0.553,0-1,0.448-1,1v2H48c-0.553,0-1,0.448-1,1v3h-4v-3c0-0.552-0.447-1-1-1s-1,0.448-1,1v6c0,0.552,0.447,1,1,1h6
	c0.553,0,1-0.448,1-1v-5h5v4c0,0.552,0.447,1,1,1s1-0.448,1-1v-4h5v10h-4c-0.553,0-1,0.448-1,1v6c0,0.552,0.447,1,1,1h5
	c0.553,0,1-0.448,1-1s-0.447-1-1-1h-4v-4h4c0.553,0,1-0.448,1-1V34C63,33.448,62.553,33,62,33z"/>
<path d="M53,27c0.553,0,1-0.448,1-1s-0.447-1-1-1h-9c-0.553,0-1,0.448-1,1s0.447,1,1,1h2v3h-7v-7c0-0.552-0.447-1-1-1s-1,0.448-1,1
	v8c0,0.552,0.447,1,1,1h15c0.553,0,1-0.448,1-1s-0.447-1-1-1h-3v-3H53z"/>
<path d="M2,39c0.553,0,1-0.448,1-1v-1h3c0.553,0,1-0.448,1-1s-0.447-1-1-1H2c-0.553,0-1,0.448-1,1v2C1,38.552,1.447,39,2,39z"/>
<path d="M62,24h-3c-0.553,0-1,0.448-1,1s0.447,1,1,1h2v2c0,0.552,0.447,1,1,1s1-0.448,1-1v-3C63,24.448,62.553,24,62,24z"/>
</svg>
