<?xml version="1.0" encoding="utf-8"?>
<!-- Generator: Adobe Illustrator 20.0.0, SVG Export Plug-In . SVG Version: 6.00 Build 0)  -->
<!DOCTYPE svg PUBLIC "-//W3C//DTD SVG 1.1//EN" "http://www.w3.org/Graphics/SVG/1.1/DTD/svg11.dtd">
<svg version="1.1" id="Layer_1" xmlns="http://www.w3.org/2000/svg" xmlns:xlink="http://www.w3.org/1999/xlink" x="0px" y="0px"
	 width="64px" height="64px" viewBox="0 0 64 64" enable-background="new 0 0 64 64" xml:space="preserve">
<path d="M2,59c0.553,0,1-0.448,1-1V6c0-0.552-0.447-1-1-1S1,5.448,1,6v52C1,58.552,1.447,59,2,59z"/>
<path d="M62,5c-0.553,0-1,0.448-1,1v52c0,0.552,0.447,1,1,1s1-0.448,1-1V6C63,5.448,62.553,5,62,5z"/>
<path d="M31,6v42c0,0.552,0.447,1,1,1s1-0.448,1-1V6c0-0.552-0.447-1-1-1S31,5.448,31,6z"/>
<path d="M39,6v42c0,0.552,0.447,1,1,1s1-0.448,1-1V6c0-0.552-0.447-1-1-1S39,5.448,39,6z"/>
<path d="M9,6v42c0,0.552,0.447,1,1,1s1-0.448,1-1V6c0-0.552-0.447-1-1-1S9,5.448,9,6z"/>
<path d="M48,5c-0.553,0-1,0.448-1,1v42c0,0.552,0.447,1,1,1h6c0.553,0,1-0.448,1-1V6c0-0.552-0.447-1-1-1H48z M53,47h-4V7h4V47z"/>
<path d="M18,5c-0.553,0-1,0.448-1,1v42c0,0.552,0.447,1,1,1h6c0.553,0,1-0.448,1-1V6c0-0.552-0.447-1-1-1H18z M23,47h-4V7h4V47z"/>
</svg>
