<?xml version="1.0" encoding="utf-8"?>
<!-- Generator: Adobe Illustrator 20.0.0, SVG Export Plug-In . SVG Version: 6.00 Build 0)  -->
<!DOCTYPE svg PUBLIC "-//W3C//DTD SVG 1.1//EN" "http://www.w3.org/Graphics/SVG/1.1/DTD/svg11.dtd">
<svg version="1.1" id="Layer_1" xmlns="http://www.w3.org/2000/svg" xmlns:xlink="http://www.w3.org/1999/xlink" x="0px" y="0px"
	 width="64px" height="64px" viewBox="0 0 64 64" enable-background="new 0 0 64 64" xml:space="preserve">
<path d="M50,1c-7.168,0-13,5.832-13,13s5.832,13,13,13c2.746,0,5.292-0.861,7.394-2.321L55.129,41H16.861l-4.2-28H31
	c0.552,0,1-0.448,1-1s-0.448-1-1-1H12.361l-1.372-9.148C10.916,1.362,10.495,1,10,1H2C1.448,1,1,1.448,1,2s0.448,1,1,1h7.139
	l5.873,39.148C15.084,42.638,15.505,43,16,43h40c0.499,0,0.922-0.368,0.991-0.863l2.707-19.51C61.745,20.329,63,17.312,63,14
	C63,6.832,57.168,1,50,1z M50,25c-6.065,0-11-4.935-11-11S43.935,3,50,3s11,4.935,11,11S56.065,25,50,25z"/>
<path d="M54,13h-8c-0.552,0-1,0.448-1,1s0.448,1,1,1h8c0.552,0,1-0.448,1-1S54.552,13,54,13z"/>
<path d="M27,56c0-3.86-3.14-7-7-7s-7,3.14-7,7s3.14,7,7,7S27,59.86,27,56z M15,56c0-2.757,2.243-5,5-5s5,2.243,5,5s-2.243,5-5,5
	S15,58.757,15,56z"/>
<path d="M61,56c0-3.86-3.14-7-7-7s-7,3.14-7,7s3.14,7,7,7S61,59.86,61,56z M49,56c0-2.757,2.243-5,5-5s5,2.243,5,5s-2.243,5-5,5
	S49,58.757,49,56z"/>
</svg>
