<?xml version="1.0" encoding="utf-8"?>
<!-- Generator: Adobe Illustrator 20.0.0, SVG Export Plug-In . SVG Version: 6.00 Build 0)  -->
<!DOCTYPE svg PUBLIC "-//W3C//DTD SVG 1.1//EN" "http://www.w3.org/Graphics/SVG/1.1/DTD/svg11.dtd">
<svg version="1.1" id="Layer_1" xmlns="http://www.w3.org/2000/svg" xmlns:xlink="http://www.w3.org/1999/xlink" x="0px" y="0px"
	 width="64px" height="64px" viewBox="0 0 64 64" enable-background="new 0 0 64 64" xml:space="preserve">
<path d="M56.937,23.648C56.79,23.259,56.417,23,56,23H41v-7c0-0.553-0.447-1-1-1H26.949C26.435,8.299,20.83,3,14,3
	C6.832,3,1,8.832,1,16s5.832,13,13,13c6.83,0,12.435-5.299,12.949-12H39v22c0,0.553,0.447,1,1,1s1-0.447,1-1V25h14.307L61,40.182V51
	h-6.08c-0.488-3.386-3.401-6-6.92-6s-6.432,2.614-6.92,6H21.92c-0.488-3.386-3.401-6-6.92-6s-6.432,2.614-6.92,6H3V31
	c0-0.553-0.447-1-1-1s-1,0.447-1,1v21c0,0.553,0.447,1,1,1h6.08c0.488,3.386,3.401,6,6.92,6s6.432-2.614,6.92-6h19.16
	c0.488,3.386,3.401,6,6.92,6s6.432-2.614,6.92-6H62c0.553,0,1-0.447,1-1V40c0-0.12-0.021-0.239-0.063-0.352L56.937,23.648z M14,27
	C7.935,27,3,22.065,3,16S7.935,5,14,5s11,4.935,11,11S20.065,27,14,27z M15,57c-2.757,0-5-2.243-5-5s2.243-5,5-5s5,2.243,5,5
	S17.757,57,15,57z M48,57c-2.757,0-5-2.243-5-5s2.243-5,5-5c2.643,0,4.792,2.068,4.966,4.668c-0.037,0.105-0.067,0.214-0.067,0.332
	s0.03,0.227,0.067,0.332C52.792,54.932,50.643,57,48,57z"/>
<path d="M19,15h-4v-4c0-0.553-0.447-1-1-1s-1,0.447-1,1v5c0,0.553,0.447,1,1,1h5c0.553,0,1-0.447,1-1S19.553,15,19,15z"/>
</svg>
