<?xml version="1.0" encoding="utf-8"?>
<!-- Generator: Adobe Illustrator 20.0.0, SVG Export Plug-In . SVG Version: 6.00 Build 0)  -->
<!DOCTYPE svg PUBLIC "-//W3C//DTD SVG 1.1//EN" "http://www.w3.org/Graphics/SVG/1.1/DTD/svg11.dtd">
<svg version="1.1" id="Layer_1" xmlns="http://www.w3.org/2000/svg" xmlns:xlink="http://www.w3.org/1999/xlink" x="0px" y="0px"
	 width="64px" height="64px" viewBox="0 0 64 64" enable-background="new 0 0 64 64" xml:space="preserve">
<path d="M58.706,11.292l-9.999-9.999C48.52,1.105,48.266,1,48,1H16c-0.266,0-0.52,0.105-0.707,0.293l-9.999,9.999
	c-0.092,0.092-0.165,0.201-0.216,0.323C5.027,11.736,5,11.867,5,12v50c0,0.552,0.447,1,1,1h52c0.553,0,1-0.448,1-1V12
	c0-0.133-0.027-0.264-0.078-0.385C58.872,11.494,58.798,11.384,58.706,11.292z M16.414,3h31.172l8,8H8.414L16.414,3z M7,61V13h50v48
	H7z"/>
<path d="M46,23c-0.553,0-1,0.448-1,1c0,7.168-5.832,13-13,13s-13-5.832-13-13c0-0.552-0.447-1-1-1s-1,0.448-1,1
	c0,8.271,6.729,15,15,15s15-6.729,15-15C47,23.448,46.553,23,46,23z"/>
</svg>
