<?xml version="1.0" encoding="utf-8"?>
<!-- Generator: Adobe Illustrator 20.0.0, SVG Export Plug-In . SVG Version: 6.00 Build 0)  -->
<!DOCTYPE svg PUBLIC "-//W3C//DTD SVG 1.1//EN" "http://www.w3.org/Graphics/SVG/1.1/DTD/svg11.dtd">
<svg version="1.1" id="Layer_1" xmlns="http://www.w3.org/2000/svg" xmlns:xlink="http://www.w3.org/1999/xlink" x="0px" y="0px"
	 width="64px" height="64px" viewBox="0 0 64 64" enable-background="new 0 0 64 64" xml:space="preserve">
<path d="M48.966,5.74C48.848,5.304,48.452,5,48,5H11c-0.058,0-0.11,0.019-0.165,0.028c-0.032,0.005-0.063-0.003-0.094,0.006
	c-0.012,0.003-0.02,0.012-0.032,0.016c-0.104,0.032-0.199,0.08-0.286,0.142c-0.013,0.009-0.029,0.013-0.042,0.023
	c-0.094,0.074-0.171,0.166-0.234,0.269c-0.021,0.035-0.03,0.073-0.046,0.11c-0.027,0.059-0.06,0.115-0.076,0.18l-9,39
	c-0.124,0.538,0.211,1.075,0.75,1.199c0.536,0.125,1.075-0.211,1.2-0.75l8.1-35.101l12.96,48.136C24.154,58.706,24.558,59,25,59
	c0.086,0,0.173-0.011,0.26-0.034c0.534-0.144,0.85-0.692,0.706-1.226L22.805,46h34.928l3.301,12.26C61.154,58.706,61.558,59,62,59
	c0.086,0,0.173-0.011,0.26-0.034c0.534-0.144,0.85-0.692,0.706-1.226L48.966,5.74z M22.267,44L12.305,7h34.928l9.962,37H22.267z"/>
</svg>
