<?xml version="1.0" encoding="utf-8"?>
<!-- Generator: Adobe Illustrator 20.0.0, SVG Export Plug-In . SVG Version: 6.00 Build 0)  -->
<!DOCTYPE svg PUBLIC "-//W3C//DTD SVG 1.1//EN" "http://www.w3.org/Graphics/SVG/1.1/DTD/svg11.dtd">
<svg version="1.1" id="Layer_1" xmlns="http://www.w3.org/2000/svg" xmlns:xlink="http://www.w3.org/1999/xlink" x="0px" y="0px"
	 width="64px" height="64px" viewBox="0 0 64 64" enable-background="new 0 0 64 64" xml:space="preserve">
<path d="M62,13H48.89C50.19,11.728,51,9.958,51,8c0-3.86-3.14-7-7-7c-6.807,0-10.432,6.225-12,9.981C30.432,7.225,26.807,1,20,1
	c-3.86,0-7,3.14-7,7c0,1.958,0.81,3.728,2.11,5H2c-0.552,0-1,0.448-1,1v10c0,0.552,0.448,1,1,1h5v35c0,0.552,0.448,1,1,1h18h12h18
	c0.552,0,1-0.448,1-1V25h5c0.552,0,1-0.448,1-1V14C63,13.448,62.552,13,62,13z M44,3c2.757,0,5,2.243,5,5s-2.243,5-5,5H33.371
	C34.423,10.067,37.621,3,44,3z M32,15h5v8H27v-8H32z M15,8c0-2.757,2.243-5,5-5c6.364,0,9.57,7.066,10.626,10H20
	C17.243,13,15,10.757,15,8z M3,15h17h5v8H3V15z M9,25h16v34H9V25z M27,59V25h10v34H27z M55,59H39V25h16V59z M61,23H39v-8h5h17V23z"
	/>
</svg>
