<?xml version="1.0" encoding="utf-8"?>
<!-- Generator: Adobe Illustrator 20.0.0, SVG Export Plug-In . SVG Version: 6.00 Build 0)  -->
<!DOCTYPE svg PUBLIC "-//W3C//DTD SVG 1.1//EN" "http://www.w3.org/Graphics/SVG/1.1/DTD/svg11.dtd">
<svg version="1.1" id="layer" xmlns="http://www.w3.org/2000/svg" xmlns:xlink="http://www.w3.org/1999/xlink" x="0px" y="0px"
	 width="64px" height="64px" viewBox="0 0 64 64" enable-background="new 0 0 64 64" xml:space="preserve">
<path fill="#1D1D1B" d="M7,56c0,3.86,3.141,7,7,7s7-3.14,7-7s-3.141-7-7-7S7,52.14,7,56z M19,56c0,2.757-2.243,5-5,5s-5-2.243-5-5
	s2.243-5,5-5S19,53.243,19,56z"/>
<path fill="#1D1D1B" d="M56,49c-3.859,0-7,3.14-7,7s3.141,7,7,7s7-3.14,7-7S59.859,49,56,49z M56,61c-2.757,0-5-2.243-5-5
	s2.243-5,5-5s5,2.243,5,5S58.757,61,56,61z"/>
<path fill="#1D1D1B" d="M10,1H2C1.447,1,1,1.448,1,2s0.447,1,1,1h7v39c0,0.552,0.447,1,1,1h50c0.553,0,1-0.448,1-1s-0.447-1-1-1H11
	V11h17c0.553,0,1-0.448,1-1s-0.447-1-1-1H11V2C11,1.448,10.553,1,10,1z"/>
<path fill="#1D1D1B" d="M54.73,1.036C52.906,1.217,51.24,2.061,50,3.401c-1.239-1.34-2.904-2.183-4.729-2.364
	c-2.261-0.224-4.474,0.595-6.073,2.252c-2.922,3.024-2.922,7.946,0,10.97L49.28,24.695C49.468,24.89,49.728,25,49.999,25
	s0.53-0.11,0.719-0.305l10.084-10.436c2.922-3.024,2.922-7.946,0-10.97C59.202,1.633,56.99,0.809,54.73,1.036z M59.364,12.869
	l-9.365,9.692l-9.363-9.692c-2.181-2.258-2.181-5.933,0-8.191C41.682,3.596,43.081,3,44.541,3c0.177,0,0.354,0.009,0.532,0.026
	c1.666,0.166,3.155,1.093,4.085,2.543C49.342,5.857,49.659,6.03,50,6.03s0.658-0.173,0.842-0.46c0.931-1.451,2.42-2.378,4.087-2.544
	c1.646-0.161,3.264,0.439,4.436,1.652C61.545,6.937,61.545,10.611,59.364,12.869z"/>
</svg>
