<?xml version="1.0" encoding="utf-8"?>
<!-- Generator: Adobe Illustrator 20.0.0, SVG Export Plug-In . SVG Version: 6.00 Build 0)  -->
<!DOCTYPE svg PUBLIC "-//W3C//DTD SVG 1.1//EN" "http://www.w3.org/Graphics/SVG/1.1/DTD/svg11.dtd">
<svg version="1.1" id="Layer_1" xmlns="http://www.w3.org/2000/svg" xmlns:xlink="http://www.w3.org/1999/xlink" x="0px" y="0px"
	 width="64px" height="64px" viewBox="0 0 64 64" enable-background="new 0 0 64 64" xml:space="preserve">
<path d="M35.293,60.707C35.488,60.902,35.744,61,36,61s0.512-0.098,0.707-0.293l24-24c0.391-0.391,0.391-1.023,0-1.414l-33-33
	C27.52,2.105,27.265,2,27,2H3C2.448,2,2,2.448,2,3v24c0,0.265,0.105,0.52,0.293,0.707L35.293,60.707z M4,4h22.586l32,32L36,58.586
	l-32-32V4z"/>
<path d="M16,11c-2.757,0-5,2.243-5,5s2.243,5,5,5s5-2.243,5-5S18.757,11,16,11z M16,19c-1.654,0-3-1.346-3-3s1.346-3,3-3
	s3,1.346,3,3S17.654,19,16,19z"/>
</svg>
