<?xml version="1.0" encoding="utf-8"?>
<!-- Generator: Adobe Illustrator 20.0.0, SVG Export Plug-In . SVG Version: 6.00 Build 0)  -->
<!DOCTYPE svg PUBLIC "-//W3C//DTD SVG 1.1//EN" "http://www.w3.org/Graphics/SVG/1.1/DTD/svg11.dtd">
<svg version="1.1" id="Layer_1" xmlns="http://www.w3.org/2000/svg" xmlns:xlink="http://www.w3.org/1999/xlink" x="0px" y="0px"
	 width="64px" height="64px" viewBox="0 0 64 64" enable-background="new 0 0 64 64" xml:space="preserve">
<path d="M27,56c0-3.86-3.14-7-7-7s-7,3.14-7,7s3.14,7,7,7S27,59.86,27,56z M15,56c0-2.757,2.243-5,5-5s5,2.243,5,5s-2.243,5-5,5
	S15,58.757,15,56z"/>
<path d="M54,49c-3.86,0-7,3.14-7,7s3.14,7,7,7s7-3.14,7-7S57.86,49,54,49z M54,61c-2.757,0-5-2.243-5-5s2.243-5,5-5s5,2.243,5,5
	S56.757,61,54,61z"/>
<path d="M2,3h7.139l5.873,39.148C15.084,42.638,15.505,43,16,43h40c0.501,0,0.925-0.371,0.991-0.868l4-30
	c0.038-0.286-0.049-0.574-0.239-0.791S60.288,11,60,11H12.361l-1.373-9.148C10.916,1.362,10.495,1,10,1H2C1.448,1,1,1.448,1,2
	S1.448,3,2,3z M58.858,13l-3.733,28H16.861l-4.2-28H58.858z"/>
</svg>
