<?xml version="1.0" encoding="utf-8"?>
<!-- Generator: Adobe Illustrator 20.0.0, SVG Export Plug-In . SVG Version: 6.00 Build 0)  -->
<!DOCTYPE svg PUBLIC "-//W3C//DTD SVG 1.1//EN" "http://www.w3.org/Graphics/SVG/1.1/DTD/svg11.dtd">
<svg version="1.1" id="Layer_1" xmlns="http://www.w3.org/2000/svg" xmlns:xlink="http://www.w3.org/1999/xlink" x="0px" y="0px"
	 width="64px" height="64px" viewBox="0 0 64 64" enable-background="new 0 0 64 64" xml:space="preserve">
<path d="M27,2H11c-0.266,0-0.52,0.105-0.707,0.293l-8,8C2.105,10.48,2,10.735,2,11v16c0,0.265,0.105,0.52,0.293,0.707l33,33
	C35.488,60.902,35.744,61,36,61s0.512-0.098,0.707-0.293l24-24c0.391-0.391,0.391-1.023,0-1.414l-33-33C27.52,2.105,27.266,2,27,2z
	 M36,58.586l-32-32V11.414L11.414,4h15.172l32,32L36,58.586z"/>
<path d="M18,13c-2.757,0-5,2.243-5,5s2.243,5,5,5s5-2.243,5-5S20.757,13,18,13z M18,21c-1.654,0-3-1.346-3-3s1.346-3,3-3
	s3,1.346,3,3S19.654,21,18,21z"/>
</svg>
