<?xml version="1.0" encoding="utf-8"?>
<!-- Generator: Adobe Illustrator 20.0.0, SVG Export Plug-In . SVG Version: 6.00 Build 0)  -->
<!DOCTYPE svg PUBLIC "-//W3C//DTD SVG 1.1//EN" "http://www.w3.org/Graphics/SVG/1.1/DTD/svg11.dtd">
<svg version="1.1" id="Layer_1" xmlns="http://www.w3.org/2000/svg" xmlns:xlink="http://www.w3.org/1999/xlink" x="0px" y="0px"
	 width="64px" height="64px" viewBox="0 0 64 64" enable-background="new 0 0 64 64" xml:space="preserve">
<path d="M2,3h7v39c0,0.552,0.447,1,1,1h50c0.553,0,1-0.448,1-1s-0.447-1-1-1H11v-6h39c0.459,0,0.858-0.312,0.97-0.757l6-24
	c0.075-0.299,0.008-0.615-0.182-0.858S56.308,9,56,9H11V2c0-0.552-0.447-1-1-1H2C1.447,1,1,1.448,1,2S1.447,3,2,3z M54.719,11
	l-5.5,22H11V11H54.719z"/>
<path d="M21,56c0-3.86-3.141-7-7-7s-7,3.14-7,7s3.141,7,7,7S21,59.86,21,56z M9,56c0-2.757,2.243-5,5-5s5,2.243,5,5s-2.243,5-5,5
	S9,58.757,9,56z"/>
<path d="M56,49c-3.859,0-7,3.14-7,7s3.141,7,7,7s7-3.14,7-7S59.859,49,56,49z M56,61c-2.757,0-5-2.243-5-5s2.243-5,5-5s5,2.243,5,5
	S58.757,61,56,61z"/>
</svg>
