<?xml version="1.0" encoding="utf-8"?>
<!-- Generator: Adobe Illustrator 20.0.0, SVG Export Plug-In . SVG Version: 6.00 Build 0)  -->
<!DOCTYPE svg PUBLIC "-//W3C//DTD SVG 1.1//EN" "http://www.w3.org/Graphics/SVG/1.1/DTD/svg11.dtd">
<svg version="1.1" id="Layer_1" xmlns="http://www.w3.org/2000/svg" xmlns:xlink="http://www.w3.org/1999/xlink" x="0px" y="0px"
	 width="64px" height="64px" viewBox="0 0 64 64" enable-background="new 0 0 64 64" xml:space="preserve">
<path d="M56.937,17.648C56.79,17.259,56.417,17,56,17H41v-7c0-0.553-0.448-1-1-1H2c-0.552,0-1,0.447-1,1v36c0,0.553,0.448,1,1,1
	h6.08c0.488,3.386,3.401,6,6.92,6s6.432-2.614,6.92-6h19.16c0.488,3.386,3.401,6,6.92,6s6.432-2.614,6.92-6H62c0.552,0,1-0.447,1-1
	V34c0-0.12-0.021-0.239-0.063-0.352L56.937,17.648z M15,51c-2.757,0-5-2.243-5-5s2.243-5,5-5s5,2.243,5,5S17.757,51,15,51z M48,51
	c-2.757,0-5-2.243-5-5s2.243-5,5-5c2.644,0,4.793,2.069,4.967,4.67C52.93,45.774,52.9,45.883,52.9,46s0.03,0.226,0.067,0.33
	C52.793,48.931,50.644,51,48,51z M61,45h-6.08c-0.488-3.386-3.401-6-6.92-6s-6.432,2.614-6.92,6H21.92c-0.488-3.386-3.401-6-6.92-6
	s-6.432,2.614-6.92,6H3V11h36v22c0,0.553,0.448,1,1,1s1-0.447,1-1V19h14.307L61,34.182V45z"/>
<path d="M54,31h-6v-6c0-0.553-0.448-1-1-1s-1,0.447-1,1v7c0,0.553,0.448,1,1,1h7c0.552,0,1-0.447,1-1S54.552,31,54,31z"/>
</svg>
