<?xml version="1.0" encoding="utf-8"?>
<!-- Generator: Adobe Illustrator 20.0.0, SVG Export Plug-In . SVG Version: 6.00 Build 0)  -->
<!DOCTYPE svg PUBLIC "-//W3C//DTD SVG 1.1//EN" "http://www.w3.org/Graphics/SVG/1.1/DTD/svg11.dtd">
<svg version="1.1" id="layer" xmlns="http://www.w3.org/2000/svg" xmlns:xlink="http://www.w3.org/1999/xlink" x="0px" y="0px"
	 width="64px" height="64px" viewBox="0 0 64 64" enable-background="new 0 0 64 64" xml:space="preserve">
<path fill="#1D1D1B" d="M42.53,35.152l-16-10c-0.309-0.192-0.697-0.203-1.015-0.026C25.197,25.302,25,25.636,25,26v20
	c0,0.364,0.197,0.698,0.515,0.875C25.667,46.958,25.833,47,26,47c0.184,0,0.368-0.051,0.53-0.152l16-10
	C42.822,36.665,43,36.345,43,36S42.822,35.335,42.53,35.152z M27,44.196V27.804L40.113,36L27,44.196z"/>
<path fill="#1D1D1B" d="M58,13H43V4c0-0.552-0.448-1-1-1H22c-0.552,0-1,0.448-1,1v9H6c-2.757,0-5,2.243-5,5v36c0,2.757,2.243,5,5,5
	h52c2.757,0,5-2.243,5-5V18C63,15.243,60.757,13,58,13z M23,5h18v8H23V5z M61,54c0,1.654-1.346,3-3,3H6c-1.654,0-3-1.346-3-3V18
	c0-1.654,1.346-3,3-3h52c1.654,0,3,1.346,3,3V54z"/>
</svg>
