<?xml version="1.0" encoding="utf-8"?>
<!-- Generator: Adobe Illustrator 20.0.0, SVG Export Plug-In . SVG Version: 6.00 Build 0)  -->
<!DOCTYPE svg PUBLIC "-//W3C//DTD SVG 1.1//EN" "http://www.w3.org/Graphics/SVG/1.1/DTD/svg11.dtd">
<svg version="1.1" id="Layer_1" xmlns="http://www.w3.org/2000/svg" xmlns:xlink="http://www.w3.org/1999/xlink" x="0px" y="0px"
	 width="64px" height="64px" viewBox="0 0 64 64" enable-background="new 0 0 64 64" xml:space="preserve">
<path d="M6,63h52c0.308,0,0.599-0.142,0.788-0.385s0.257-0.559,0.182-0.858L53,37.877V18c0-0.552-0.447-1-1-1h-9v-5
	c0-6.065-4.935-11-11-11S21,5.935,21,12v5h-9c-0.553,0-1,0.448-1,1v19.877l-5.97,23.88c-0.075,0.299-0.008,0.615,0.182,0.858
	S5.692,63,6,63z M23,12c0-4.962,4.037-9,9-9s9,4.038,9,9v5H23V12z M12.97,38.243C12.99,38.163,13,38.082,13,38V19h8v9
	c0,0.552,0.447,1,1,1s1-0.448,1-1v-9h18v9c0,0.552,0.447,1,1,1s1-0.448,1-1v-9h8v19c0,0.082,0.01,0.163,0.03,0.243L56.719,61H7.281
	L12.97,38.243z"/>
</svg>
