<?xml version="1.0" encoding="utf-8"?>
<!-- Generator: Adobe Illustrator 20.0.0, SVG Export Plug-In . SVG Version: 6.00 Build 0)  -->
<!DOCTYPE svg PUBLIC "-//W3C//DTD SVG 1.1//EN" "http://www.w3.org/Graphics/SVG/1.1/DTD/svg11.dtd">
<svg version="1.1" id="Layer_1" xmlns="http://www.w3.org/2000/svg" xmlns:xlink="http://www.w3.org/1999/xlink" x="0px" y="0px"
	 width="64px" height="64px" viewBox="0 0 64 64" enable-background="new 0 0 64 64" xml:space="preserve">
<path d="M62,20H50.535L38.832,2.445c-0.307-0.46-0.928-0.584-1.387-0.277c-0.459,0.306-0.583,0.927-0.277,1.387L48.132,20H15.868
	L26.832,3.555c0.306-0.459,0.182-1.081-0.277-1.387c-0.46-0.307-1.081-0.183-1.387,0.277L13.465,20H2c-0.552,0-1,0.448-1,1v9
	c0,0.552,0.448,1,1,1h5.185l5.835,28.203C13.117,59.667,13.526,60,14,60h36c0.474,0,0.883-0.333,0.979-0.797L56.815,31H62
	c0.552,0,1-0.448,1-1v-9C63,20.448,62.552,20,62,20z M49.186,58H14.814L9.228,31h45.543L49.186,58z M61,29H3v-7h58V29z"/>
</svg>
