<?xml version="1.0" encoding="utf-8"?>
<!-- Generator: Adobe Illustrator 20.0.0, SVG Export Plug-In . SVG Version: 6.00 Build 0)  -->
<!DOCTYPE svg PUBLIC "-//W3C//DTD SVG 1.1//EN" "http://www.w3.org/Graphics/SVG/1.1/DTD/svg11.dtd">
<svg version="1.1" id="layer" xmlns="http://www.w3.org/2000/svg" xmlns:xlink="http://www.w3.org/1999/xlink" x="0px" y="0px"
	 width="64px" height="64px" viewBox="0 0 64 64" enable-background="new 0 0 64 64" xml:space="preserve">
<path fill="#1D1D1B" d="M31.707,3.293c-0.391-0.391-1.023-0.391-1.414,0l-8,8c-0.092,0.092-0.165,0.203-0.216,0.325
	c-0.101,0.245-0.101,0.52,0,0.764c0.051,0.122,0.124,0.233,0.216,0.325l8,8C30.488,20.902,30.744,21,31,21s0.512-0.098,0.707-0.293
	c0.391-0.391,0.391-1.023,0-1.414L25.414,13H35c2.757,0,5,2.243,5,5v9c0,0.552,0.448,1,1,1s1-0.448,1-1v-9c0-3.86-3.14-7-7-7h-9.586
	l6.293-6.293C32.098,4.316,32.098,3.684,31.707,3.293z"/>
<path fill="#1D1D1B" d="M13,56c0,3.86,3.14,7,7,7s7-3.14,7-7s-3.14-7-7-7S13,52.14,13,56z M25,56c0,2.757-2.243,5-5,5s-5-2.243-5-5
	s2.243-5,5-5S25,53.243,25,56z"/>
<path fill="#1D1D1B" d="M47,56c0,3.86,3.14,7,7,7s7-3.14,7-7s-3.14-7-7-7S47,52.14,47,56z M59,56c0,2.757-2.243,5-5,5s-5-2.243-5-5
	s2.243-5,5-5S59,53.243,59,56z"/>
<path fill="#1D1D1B" d="M10.989,1.852C10.916,1.362,10.495,1,10,1H2C1.448,1,1,1.448,1,2s0.448,1,1,1h7.139l5.873,39.148
	C15.084,42.638,15.505,43,16,43h40c0.501,0,0.925-0.371,0.991-0.868l4-30c0.038-0.286-0.049-0.574-0.239-0.791S60.288,11,60,11h-9
	c-0.552,0-1,0.448-1,1s0.448,1,1,1h7.858l-3.733,28H16.861L10.989,1.852z"/>
</svg>
