<?xml version="1.0" encoding="utf-8"?>
<!-- Generator: Adobe Illustrator 20.0.0, SVG Export Plug-In . SVG Version: 6.00 Build 0)  -->
<!DOCTYPE svg PUBLIC "-//W3C//DTD SVG 1.1//EN" "http://www.w3.org/Graphics/SVG/1.1/DTD/svg11.dtd">
<svg version="1.1" id="Layer_1" xmlns="http://www.w3.org/2000/svg" xmlns:xlink="http://www.w3.org/1999/xlink" x="0px" y="0px"
	 width="64px" height="64px" viewBox="0 0 64 64" enable-background="new 0 0 64 64" xml:space="preserve">
<path d="M2,3h7v39c0,0.552,0.447,1,1,1h50c0.553,0,1-0.448,1-1s-0.447-1-1-1H11v-6h39c0.459,0,0.858-0.312,0.97-0.757l6-24
	c0.075-0.299,0.008-0.615-0.182-0.858S56.308,9,56,9H40c-0.553,0-1,0.448-1,1s0.447,1,1,1h14.719l-5.5,22H11V11h13
	c0.553,0,1-0.448,1-1s-0.447-1-1-1H11V2c0-0.552-0.447-1-1-1H2C1.447,1,1,1.448,1,2S1.447,3,2,3z"/>
<path d="M14,49c-3.859,0-7,3.14-7,7s3.141,7,7,7s7-3.14,7-7S17.859,49,14,49z M14,61c-2.757,0-5-2.243-5-5s2.243-5,5-5s5,2.243,5,5
	S16.757,61,14,61z"/>
<path d="M56,49c-3.859,0-7,3.14-7,7s3.141,7,7,7s7-3.14,7-7S59.859,49,56,49z M56,61c-2.757,0-5-2.243-5-5s2.243-5,5-5s5,2.243,5,5
	S58.757,61,56,61z"/>
<path d="M24.707,17.293c-0.391-0.391-1.023-0.391-1.414,0s-0.391,1.023,0,1.414l7.999,7.999c0.092,0.093,0.203,0.166,0.326,0.217
	C31.74,26.973,31.87,27,32,27s0.26-0.027,0.382-0.077c0.123-0.051,0.233-0.124,0.326-0.217l7.999-7.999
	c0.391-0.391,0.391-1.023,0-1.414s-1.023-0.391-1.414,0L33,23.586V2c0-0.552-0.447-1-1-1s-1,0.448-1,1v21.586L24.707,17.293z"/>
</svg>
