<?xml version="1.0" encoding="utf-8"?>
<!-- Generator: Adobe Illustrator 20.0.0, SVG Export Plug-In . SVG Version: 6.00 Build 0)  -->
<!DOCTYPE svg PUBLIC "-//W3C//DTD SVG 1.1//EN" "http://www.w3.org/Graphics/SVG/1.1/DTD/svg11.dtd">
<svg version="1.1" id="Layer_1" xmlns="http://www.w3.org/2000/svg" xmlns:xlink="http://www.w3.org/1999/xlink" x="0px" y="0px"
	 width="64px" height="64px" viewBox="0 0 64 64" enable-background="new 0 0 64 64" xml:space="preserve">
<path d="M3,18c0,4.673,2.299,7.924,6,8.773V58c0,0.553,0.448,1,1,1h29c0.552,0,1-0.447,1-1s-0.448-1-1-1H11V27
	c3.186,0,5.722-1.317,7.03-3.444C19.393,25.666,22.001,27,25.2,27c3.063,0,5.51-1.28,6.8-3.356C33.29,25.72,35.737,27,38.8,27
	c3.199,0,5.808-1.334,7.17-3.444C47.278,25.683,49.814,27,53,27c4.86,0,8-3.532,8-9c0-0.217-0.07-0.427-0.2-0.6l-12-16
	C48.611,1.148,48.315,1,48,1H16c-0.315,0-0.611,0.148-0.8,0.4l-12,16C3.07,17.573,3,17.783,3,18z M16.5,3h31l11.496,15.328
	C58.867,23.239,55.838,25,53,25c-2.986,0-6-1.546-6-5c0-0.553-0.448-1-1-1s-1,0.447-1,1c0,3.436-3.214,5-6.2,5
	c-2.675,0-5.8-1.31-5.8-5c0-0.553-0.448-1-1-1s-1,0.447-1,1c0,3.69-3.125,5-5.8,5c-2.986,0-6.2-1.564-6.2-5c0-0.553-0.448-1-1-1
	s-1,0.447-1,1c0,3.454-3.014,5-6,5c-2.838,0-5.867-1.761-5.996-6.672L16.5,3z"/>
<path d="M51,31c-5.898,0-12,4.514-12,12.068c0,7.193,10.83,18.173,11.291,18.637C50.479,61.894,50.734,62,51,62
	s0.521-0.106,0.709-0.295C52.17,61.241,63,50.262,63,43.068C63,35.514,56.898,31,51,31z M51,59.554
	c-2.391-2.548-10-11.083-10-16.485C41,36.766,46.084,33,51,33s10,3.766,10,10.068C61,48.466,53.391,57.005,51,59.554z"/>
<path d="M51,39c-2.206,0-4,1.794-4,4s1.794,4,4,4s4-1.794,4-4S53.206,39,51,39z M51,45c-1.103,0-2-0.897-2-2s0.897-2,2-2
	s2,0.897,2,2S52.103,45,51,45z"/>
</svg>
