<?xml version="1.0" encoding="utf-8"?>
<!-- Generator: Adobe Illustrator 20.0.0, SVG Export Plug-In . SVG Version: 6.00 Build 0)  -->
<!DOCTYPE svg PUBLIC "-//W3C//DTD SVG 1.1//EN" "http://www.w3.org/Graphics/SVG/1.1/DTD/svg11.dtd">
<svg version="1.1" id="Layer_1" xmlns="http://www.w3.org/2000/svg" xmlns:xlink="http://www.w3.org/1999/xlink" x="0px" y="0px"
	 width="64px" height="64px" viewBox="0 0 64 64" enable-background="new 0 0 64 64" xml:space="preserve">
<path d="M62.981,27.657c-0.015-0.105-0.044-0.205-0.091-0.299c-0.005-0.011-0.004-0.022-0.01-0.033
	c-0.002-0.003-0.005-0.005-0.007-0.009c-0.056-0.101-0.132-0.189-0.22-0.266c-0.023-0.02-0.047-0.038-0.072-0.055
	c-0.027-0.02-0.05-0.044-0.079-0.061L53,21.424V2c0-0.553-0.448-1-1-1H12c-0.552,0-1,0.447-1,1v19.424l-9.502,5.511
	c-0.024,0.014-0.042,0.034-0.064,0.05c-0.026,0.018-0.049,0.036-0.073,0.056c-0.09,0.076-0.171,0.162-0.229,0.263
	c0,0-0.001,0.001-0.001,0.001C1.13,27.306,1.131,27.308,1.13,27.31c-0.057,0.1-0.089,0.212-0.108,0.328
	c-0.005,0.029-0.009,0.057-0.012,0.087C1.008,27.75,1,27.774,1,27.8V62c0,0.553,0.448,1,1,1h60c0.001,0,0.001,0,0.002,0
	c0.118,0,0.232-0.028,0.342-0.069c0.028-0.01,0.054-0.02,0.081-0.033c0.102-0.048,0.199-0.108,0.281-0.189
	c0.003-0.003,0.004-0.006,0.007-0.009c0.059-0.06,0.112-0.128,0.156-0.204c0.01-0.017,0.009-0.036,0.018-0.054
	c0.03-0.06,0.045-0.124,0.063-0.191c0.017-0.065,0.035-0.128,0.039-0.194C62.99,62.037,63,62.02,63,62V27.8
	c0-0.02-0.007-0.039-0.008-0.059C62.991,27.712,62.985,27.685,62.981,27.657z M33.223,44.446l19.148-10.32
	c0.023-0.009,0.041-0.023,0.063-0.034L61,29.474v30.804L33.223,44.446z M59.952,27.768L53,31.515v-7.779L59.952,27.768z M51,3
	v29.593L31.175,43.278L13,32.918V3H51z M11,31.779l-6.993-3.986L11,23.736V31.779z M3,29.521L58.226,61H3V29.521z"/>
<path d="M22,15h20c0.552,0,1-0.447,1-1s-0.448-1-1-1H22c-0.552,0-1,0.447-1,1S21.448,15,22,15z"/>
<path d="M22,25h20c0.552,0,1-0.447,1-1s-0.448-1-1-1H22c-0.552,0-1,0.447-1,1S21.448,25,22,25z"/>
</svg>
