<?xml version="1.0" encoding="utf-8"?>
<!-- Generator: Adobe Illustrator 20.0.0, SVG Export Plug-In . SVG Version: 6.00 Build 0)  -->
<!DOCTYPE svg PUBLIC "-//W3C//DTD SVG 1.1//EN" "http://www.w3.org/Graphics/SVG/1.1/DTD/svg11.dtd">
<svg version="1.1" id="Layer_1" xmlns="http://www.w3.org/2000/svg" xmlns:xlink="http://www.w3.org/1999/xlink" x="0px" y="0px"
	 width="64px" height="64px" viewBox="0 0 64 64" enable-background="new 0 0 64 64" xml:space="preserve">
<path d="M17,56c0-3.86-3.141-7-7-7s-7,3.14-7,7s3.141,7,7,7S17,59.86,17,56z M5,56c0-2.757,2.243-5,5-5s5,2.243,5,5s-2.243,5-5,5
	S5,58.757,5,56z"/>
<path d="M61,56c0-3.86-3.141-7-7-7s-7,3.14-7,7s3.141,7,7,7S61,59.86,61,56z M49,56c0-2.757,2.243-5,5-5s5,2.243,5,5s-2.243,5-5,5
	S49,58.757,49,56z"/>
<path d="M50,27c7.168,0,13-5.832,13-13S57.168,1,50,1c-5.397,0-10.034,3.307-11.997,8H9.454L2.753,1.341
	C2.387,0.925,1.756,0.884,1.342,1.248C0.926,1.611,0.884,2.243,1.247,2.659L8,10.376v23.365l-4.874,8.773
	c-0.172,0.31-0.168,0.688,0.012,0.993C3.317,43.812,3.646,44,4,44h58c0.553,0,1-0.448,1-1s-0.447-1-1-1H5.699l3.889-7H48
	c0.553,0,1-0.448,1-1s-0.447-1-1-1H10V11h27.363C37.134,11.965,37,12.966,37,14C37,21.168,42.832,27,50,27z M50,3
	c6.065,0,11,4.935,11,11s-4.935,11-11,11s-11-4.935-11-11S43.935,3,50,3z"/>
<path d="M46,15h8c0.553,0,1-0.448,1-1s-0.447-1-1-1h-8c-0.553,0-1,0.448-1,1S45.447,15,46,15z"/>
</svg>
