<?xml version="1.0" encoding="utf-8"?>
<!-- Generator: Adobe Illustrator 20.0.0, SVG Export Plug-In . SVG Version: 6.00 Build 0)  -->
<!DOCTYPE svg PUBLIC "-//W3C//DTD SVG 1.1//EN" "http://www.w3.org/Graphics/SVG/1.1/DTD/svg11.dtd">
<svg version="1.1" id="layer" xmlns="http://www.w3.org/2000/svg" xmlns:xlink="http://www.w3.org/1999/xlink" x="0px" y="0px"
	 width="64px" height="64px" viewBox="0 0 64 64" enable-background="new 0 0 64 64" xml:space="preserve">
<path fill="#1D1D1B" d="M49.999,62c0.271,0,0.531-0.11,0.719-0.305l10.084-10.437c2.923-3.024,2.923-7.945,0-10.971
	c-1.601-1.655-3.815-2.476-6.072-2.252c-1.825,0.182-3.49,1.025-4.73,2.365c-1.239-1.34-2.905-2.184-4.729-2.365
	c-2.256-0.223-4.473,0.597-6.073,2.252c-2.923,3.025-2.923,7.946,0,10.97L49.28,61.694C49.468,61.89,49.728,62,49.999,62z
	 M40.636,41.679C41.682,40.596,43.082,40,44.541,40c0.177,0,0.354,0.009,0.532,0.026c1.666,0.166,3.155,1.093,4.085,2.544
	c0.368,0.572,1.315,0.572,1.684,0c0.93-1.451,2.419-2.378,4.086-2.544c1.642-0.163,3.263,0.438,4.436,1.652
	c2.182,2.258,2.182,5.933,0,8.189l-9.365,9.692l-9.363-9.692C38.454,47.611,38.454,43.937,40.636,41.679z"/>
<path fill="#1D1D1B" d="M62,19H50.594L41.06,1.521c-0.264-0.484-0.871-0.663-1.357-0.399c-0.485,0.265-0.664,0.872-0.399,1.356
	L48.316,19H15.684l9.012-16.521c0.265-0.484,0.086-1.092-0.399-1.356c-0.485-0.264-1.092-0.085-1.357,0.399L13.406,19H2
	c-0.552,0-1,0.447-1,1v10c0,0.553,0.448,1,1,1h5v27c0,2.757,2.243,5,5,5h23c0.552,0,1-0.447,1-1s-0.448-1-1-1H12
	c-1.654,0-3-1.346-3-3V31h53c0.552,0,1-0.447,1-1V20C63,19.447,62.552,19,62,19z M61,29H3v-8h58V29z"/>
</svg>
