<?xml version="1.0" encoding="utf-8"?>
<!-- Generator: Adobe Illustrator 20.0.0, SVG Export Plug-In . SVG Version: 6.00 Build 0)  -->
<!DOCTYPE svg PUBLIC "-//W3C//DTD SVG 1.1//EN" "http://www.w3.org/Graphics/SVG/1.1/DTD/svg11.dtd">
<svg version="1.1" id="layer" xmlns="http://www.w3.org/2000/svg" xmlns:xlink="http://www.w3.org/1999/xlink" x="0px" y="0px"
	 width="64px" height="64px" viewBox="0 0 64 64" enable-background="new 0 0 64 64" xml:space="preserve">
<path fill="#1D1D1B" d="M62,17H50.304L36.642,7.83C36.867,7.262,37,6.647,37,6c0-2.757-2.243-5-5-5s-5,2.243-5,5
	c0,0.647,0.133,1.262,0.358,1.83L13.696,17H2c-0.552,0-1,0.447-1,1v42c0,0.553,0.448,1,1,1h60c0.552,0,1-0.447,1-1V18
	C63,17.447,62.552,17,62,17z M32,3c1.654,0,3,1.346,3,3s-1.346,3-3,3s-3-1.346-3-3S30.346,3,32,3z M28.445,9.508
	C29.352,10.427,30.61,11,32,11c1.39,0,2.648-0.573,3.555-1.492L46.716,17H17.284L28.445,9.508z M61,59H3V19h58V59z"/>
<path fill="#1D1D1B" d="M8,25v28c0,0.553,0.448,1,1,1h46c0.552,0,1-0.447,1-1V25c0-0.553-0.448-1-1-1H9C8.448,24,8,24.447,8,25z
	 M10,26h44v26H10V26z"/>
</svg>
