<?xml version="1.0" encoding="utf-8"?>
<!-- Generator: Adobe Illustrator 20.0.0, SVG Export Plug-In . SVG Version: 6.00 Build 0)  -->
<!DOCTYPE svg PUBLIC "-//W3C//DTD SVG 1.1//EN" "http://www.w3.org/Graphics/SVG/1.1/DTD/svg11.dtd">
<svg version="1.1" id="Layer_1" xmlns="http://www.w3.org/2000/svg" xmlns:xlink="http://www.w3.org/1999/xlink" x="0px" y="0px"
	 width="64px" height="64px" viewBox="0 0 64 64" enable-background="new 0 0 64 64" xml:space="preserve">
<path d="M55.895,8.553c-0.142-0.284-0.41-0.483-0.724-0.538L32.182,4.017C32.126,4.007,32.07,4.001,32.014,4
	c-0.001,0-0.002,0-0.003,0s-0.002,0-0.002,0c-0.001,0-0.001,0-0.001,0c-0.001,0-0.001,0-0.002,0c0,0,0,0-0.001,0
	c0,0-0.001,0-0.002,0c-0.002,0-0.004,0-0.006,0c-0.001,0-0.002,0-0.002,0c-0.001,0-0.001,0-0.001,0c-0.001,0-0.001,0-0.002,0
	c0,0,0,0-0.001,0c0,0-0.001,0-0.002,0s-0.002,0-0.003,0c-0.057,0.001-0.112,0.007-0.168,0.017L8.829,8.015
	C8.516,8.069,8.247,8.269,8.105,8.553l-6,12c-0.155,0.31-0.139,0.678,0.044,0.973S2.653,22,3,22h5v27
	c0,0.398,0.236,0.759,0.602,0.917l23,10c0.001,0,0.002,0,0.003,0.001C31.726,59.97,31.859,60,32,60c0.141,0,0.274-0.03,0.395-0.082
	c0.001,0,0.002,0,0.003-0.001l23-10C55.764,49.759,56,49.398,56,49V22h5c0.347,0,0.668-0.18,0.851-0.475s0.199-0.663,0.044-0.973
	L55.895,8.553z M9.669,9.898L30.45,6.284L25.307,20H4.618L9.669,9.898z M10,22h16c0.417,0,0.79-0.259,0.937-0.648L31,10.515v46.96
	l-21-9.13V22z M54,48.345l-21,9.13v-46.96l4.063,10.837C37.21,21.741,37.583,22,38,22h16V48.345z M38.693,20L33.55,6.284
	l20.781,3.614L59.382,20H38.693z"/>
</svg>
