<?xml version="1.0" encoding="utf-8"?>
<!-- Generator: Adobe Illustrator 20.0.0, SVG Export Plug-In . SVG Version: 6.00 Build 0)  -->
<!DOCTYPE svg PUBLIC "-//W3C//DTD SVG 1.1//EN" "http://www.w3.org/Graphics/SVG/1.1/DTD/svg11.dtd">
<svg version="1.1" id="Layer_1" xmlns="http://www.w3.org/2000/svg" xmlns:xlink="http://www.w3.org/1999/xlink" x="0px" y="0px"
	 width="64px" height="64px" viewBox="0 0 64 64" enable-background="new 0 0 64 64" xml:space="preserve">
<path d="M13,56c0,3.86,3.14,7,7,7s7-3.14,7-7s-3.14-7-7-7S13,52.14,13,56z M25,56c0,2.757-2.243,5-5,5s-5-2.243-5-5s2.243-5,5-5
	S25,53.243,25,56z"/>
<path d="M54,49c-3.86,0-7,3.14-7,7s3.14,7,7,7s7-3.14,7-7S57.86,49,54,49z M54,61c-2.757,0-5-2.243-5-5s2.243-5,5-5s5,2.243,5,5
	S56.757,61,54,61z"/>
<path d="M2,3h7.139l5.873,39.148C15.084,42.638,15.505,43,16,43h40c0.501,0,0.925-0.371,0.991-0.868l4-30
	c0.038-0.286-0.049-0.574-0.239-0.791S60.288,11,60,11H44c-0.552,0-1,0.448-1,1s0.448,1,1,1h14.858l-3.733,28H16.861l-4.2-28H28
	c0.552,0,1-0.448,1-1s-0.448-1-1-1H12.361l-1.372-9.148C10.916,1.362,10.495,1,10,1H2C1.448,1,1,1.448,1,2S1.448,3,2,3z"/>
<path d="M28.707,23.293c-0.391-0.391-1.023-0.391-1.414,0s-0.391,1.023,0,1.414l8,8c0.092,0.092,0.203,0.165,0.325,0.216
	C35.74,32.973,35.87,33,36,33s0.26-0.027,0.382-0.077c0.122-0.051,0.233-0.124,0.325-0.216l8-8c0.391-0.391,0.391-1.023,0-1.414
	s-1.023-0.391-1.414,0L37,29.586V4c0-0.552-0.448-1-1-1s-1,0.448-1,1v25.586L28.707,23.293z"/>
</svg>
