<?xml version="1.0" encoding="utf-8"?>
<!-- Generator: Adobe Illustrator 20.0.0, SVG Export Plug-In . SVG Version: 6.00 Build 0)  -->
<!DOCTYPE svg PUBLIC "-//W3C//DTD SVG 1.1//EN" "http://www.w3.org/Graphics/SVG/1.1/DTD/svg11.dtd">
<svg version="1.1" id="layer" xmlns="http://www.w3.org/2000/svg" xmlns:xlink="http://www.w3.org/1999/xlink" x="0px" y="0px"
	 width="64px" height="64px" viewBox="0 0 64 64" enable-background="new 0 0 64 64" xml:space="preserve">
<path fill="#1D1D1B" d="M46.28,59.695C46.468,59.89,46.728,60,46.999,60s0.53-0.11,0.719-0.305l10.084-10.436
	c2.922-3.024,2.922-7.946,0-10.97c-1.6-1.656-3.814-2.478-6.071-2.252c-1.824,0.181-3.49,1.025-4.73,2.365
	c-1.239-1.34-2.904-2.183-4.729-2.364c-2.263-0.224-4.474,0.595-6.073,2.252c-2.922,3.024-2.922,7.946,0,10.97L46.28,59.695z
	 M37.636,39.678C38.682,38.596,40.081,38,41.541,38c0.177,0,0.354,0.009,0.532,0.026c1.666,0.166,3.155,1.093,4.085,2.543
	c0.184,0.287,0.501,0.46,0.842,0.46s0.658-0.173,0.842-0.46c0.931-1.451,2.42-2.378,4.087-2.544
	c1.646-0.164,3.264,0.438,4.436,1.652c2.181,2.258,2.181,5.933,0,8.191l-9.365,9.692l-9.363-9.692
	C35.455,45.611,35.455,41.937,37.636,39.678z"/>
<path fill="#1D1D1B" d="M58,4H6C3.243,4,1,6.243,1,9v36c0,2.757,2.243,5,5,5h22c0.553,0,1-0.448,1-1s-0.447-1-1-1H6
	c-1.654,0-3-1.346-3-3V28h58v5c0,0.552,0.447,1,1,1s1-0.448,1-1V9C63,6.243,60.757,4,58,4z M6,6h52c1.654,0,3,1.346,3,3v7H3V9
	C3,7.346,4.346,6,6,6z M3,26v-8h58v8H3z"/>
<path fill="#1D1D1B" d="M10,38c-0.553,0-1,0.448-1,1s0.447,1,1,1h14c0.553,0,1-0.448,1-1s-0.447-1-1-1H10z"/>
</svg>
