<?xml version="1.0" encoding="utf-8"?>
<!-- Generator: Adobe Illustrator 20.0.0, SVG Export Plug-In . SVG Version: 6.00 Build 0)  -->
<!DOCTYPE svg PUBLIC "-//W3C//DTD SVG 1.1//EN" "http://www.w3.org/Graphics/SVG/1.1/DTD/svg11.dtd">
<svg version="1.1" id="Layer_1" xmlns="http://www.w3.org/2000/svg" xmlns:xlink="http://www.w3.org/1999/xlink" x="0px" y="0px"
	 width="64px" height="64px" viewBox="0 0 64 64" enable-background="new 0 0 64 64" xml:space="preserve">
<path d="M47,33.646V6c0-2.757-2.243-5-5-5H10C7.243,1,5,3.243,5,6v52c0,2.757,2.243,5,5,5h32c0.553,0,1-0.447,1-1s-0.447-1-1-1H10
	c-1.654,0-3-1.346-3-3V48h21c0.553,0,1-0.447,1-1s-0.447-1-1-1H7V13h38v18.655l-7.343-7.312c-2.574-2.574-6.479-3.018-9.52-1.343H14
	c-0.553,0-1,0.447-1,1v12c0,0.553,0.447,1,1,1h13.679l22.612,22.706C50.487,59.901,50.743,60,51,60c0.255,0,0.511-0.097,0.706-0.291
	c0.391-0.39,0.393-1.023,0.003-1.415L28.805,35.295c-0.002-0.002-0.003-0.003-0.005-0.005l-1.043-1.048
	c-2.339-2.34-2.339-6.146,0-8.486c2.341-2.339,6.148-2.339,8.487,0.002l8.971,8.934c0.057,0.075,0.12,0.138,0.196,0.195
	l14.883,14.822c0.393,0.391,1.026,0.387,1.415-0.003c0.39-0.392,0.388-1.025-0.003-1.415L47,33.646z M7,11V6c0-1.654,1.346-3,3-3h32
	c1.654,0,3,1.346,3,3v5H7z M15,25h10.758c-2.335,2.912-2.335,7.089-0.001,10H15V25z"/>
<path d="M34.577,30.577l-2,2c-0.391,0.391-0.391,1.023,0,1.414c0.195,0.195,0.451,0.293,0.707,0.293s0.512-0.098,0.707-0.293l2-2
	c0.391-0.391,0.391-1.023,0-1.414S34.968,30.187,34.577,30.577z"/>
</svg>
