<?xml version="1.0" encoding="utf-8"?>
<!-- Generator: Adobe Illustrator 20.0.0, SVG Export Plug-In . SVG Version: 6.00 Build 0)  -->
<!DOCTYPE svg PUBLIC "-//W3C//DTD SVG 1.1//EN" "http://www.w3.org/Graphics/SVG/1.1/DTD/svg11.dtd">
<svg version="1.1" id="Layer_1" xmlns="http://www.w3.org/2000/svg" xmlns:xlink="http://www.w3.org/1999/xlink" x="0px" y="0px"
	 width="64px" height="64px" viewBox="0 0 64 64" enable-background="new 0 0 64 64" xml:space="preserve">
<path d="M62,19H50.535L38.832,1.445c-0.307-0.459-0.928-0.585-1.387-0.277c-0.459,0.306-0.583,0.927-0.277,1.387L48.132,19H15.868
	L26.832,2.555c0.306-0.459,0.182-1.081-0.277-1.387c-0.459-0.308-1.081-0.182-1.387,0.277L13.465,19H2c-0.552,0-1,0.448-1,1v9
	c0,0.552,0.448,1,1,1h5.185l5.835,28.203C13.117,58.667,13.526,59,14,59h19c0.552,0,1-0.448,1-1s-0.448-1-1-1H14.814L9.228,30
	h45.543l-1.536,7.424C52.199,37.157,51.119,37,50,37c-7.168,0-13,5.832-13,13s5.832,13,13,13s13-5.832,13-13
	c0-5.341-3.239-9.935-7.854-11.933L56.815,30H62c0.552,0,1-0.448,1-1v-9C63,19.448,62.552,19,62,19z M61,50c0,6.065-4.935,11-11,11
	s-11-4.935-11-11s4.935-11,11-11S61,43.935,61,50z M61,28H3v-7h58V28z"/>
<path d="M49,46v3h-3c-0.552,0-1,0.448-1,1s0.448,1,1,1h3v3c0,0.552,0.448,1,1,1s1-0.448,1-1v-3h3c0.552,0,1-0.448,1-1s-0.448-1-1-1
	h-3v-3c0-0.552-0.448-1-1-1S49,45.448,49,46z"/>
</svg>
