<?xml version="1.0" encoding="utf-8"?>
<!-- Generator: Adobe Illustrator 20.0.0, SVG Export Plug-In . SVG Version: 6.00 Build 0)  -->
<!DOCTYPE svg PUBLIC "-//W3C//DTD SVG 1.1//EN" "http://www.w3.org/Graphics/SVG/1.1/DTD/svg11.dtd">
<svg version="1.1" id="layer" xmlns="http://www.w3.org/2000/svg" xmlns:xlink="http://www.w3.org/1999/xlink" x="0px" y="0px"
	 width="64px" height="64px" viewBox="0 0 64 64" enable-background="new 0 0 64 64" xml:space="preserve">
<path fill="#1D1D1B" d="M62,19H50.594L41.06,1.521c-0.264-0.484-0.87-0.663-1.357-0.399c-0.485,0.265-0.664,0.872-0.399,1.356
	L48.316,19H15.684l9.012-16.521c0.265-0.484,0.086-1.092-0.399-1.356c-0.485-0.264-1.092-0.085-1.357,0.399L13.406,19H2
	c-0.552,0-1,0.447-1,1v10c0,0.553,0.448,1,1,1h5v27c0,2.757,2.243,5,5,5h21c0.552,0,1-0.447,1-1s-0.448-1-1-1H12
	c-1.654,0-3-1.346-3-3V31h53c0.552,0,1-0.447,1-1V20C63,19.447,62.552,19,62,19z M61,29H3v-8h58V29z"/>
<path fill="#1D1D1B" d="M60.999,50.02c-0.539-0.102-1.069,0.24-1.179,0.781C58.973,54.973,55.264,58,51,58c-3,0-5.677-1.506-7.311-4
	H49c0.552,0,1-0.447,1-1s-0.448-1-1-1h-7c-0.001,0-0.002,0.001-0.003,0.001c-0.073,0-0.145,0.027-0.219,0.044
	c-0.058,0.014-0.12,0.015-0.174,0.038c-0.002,0.001-0.003,0-0.005,0.001c-0.033,0.015-0.055,0.042-0.085,0.06
	c-0.082,0.047-0.163,0.093-0.229,0.16c-0.044,0.045-0.07,0.102-0.104,0.154c-0.036,0.055-0.08,0.104-0.105,0.166
	c-0.034,0.084-0.043,0.175-0.054,0.265C41.018,52.928,41,52.961,41,53v0.011c0,0.001,0,0.001,0,0.002V60c0,0.553,0.448,1,1,1
	s1-0.447,1-1v-3.599C45.014,58.672,47.864,60,51,60c5.211,0,9.745-3.701,10.78-8.801C61.89,50.657,61.54,50.13,60.999,50.02z"/>
<path fill="#1D1D1B" d="M60,37c-0.552,0-1,0.447-1,1v3.599C56.986,39.328,54.136,38,51,38c-5.211,0-9.745,3.701-10.78,8.801
	c-0.11,0.542,0.24,1.069,0.781,1.18c0.067,0.013,0.134,0.02,0.2,0.02c0.466,0,0.883-0.327,0.979-0.801
	C43.027,43.027,46.736,40,51,40c3,0,5.677,1.506,7.311,4H53c-0.552,0-1,0.447-1,1s0.448,1,1,1h7c0.001,0,0.002-0.001,0.003-0.001
	c0.073,0,0.145-0.027,0.218-0.044c0.058-0.014,0.12-0.015,0.174-0.038c0.002-0.001,0.004,0,0.005-0.001
	c0.034-0.015,0.056-0.043,0.087-0.061c0.081-0.047,0.162-0.093,0.227-0.159c0.044-0.046,0.07-0.102,0.104-0.155
	c0.036-0.055,0.08-0.104,0.105-0.165c0.034-0.084,0.043-0.175,0.054-0.265C60.982,45.072,61,45.039,61,45v-0.011
	c0-0.001,0-0.001,0-0.002V38C61,37.447,60.552,37,60,37z"/>
</svg>
