<?xml version="1.0" encoding="utf-8"?>
<!-- Generator: Adobe Illustrator 20.0.0, SVG Export Plug-In . SVG Version: 6.00 Build 0)  -->
<!DOCTYPE svg PUBLIC "-//W3C//DTD SVG 1.1//EN" "http://www.w3.org/Graphics/SVG/1.1/DTD/svg11.dtd">
<svg version="1.1" id="Layer_1" xmlns="http://www.w3.org/2000/svg" xmlns:xlink="http://www.w3.org/1999/xlink" x="0px" y="0px"
	 width="64px" height="64px" viewBox="0 0 64 64" enable-background="new 0 0 64 64" xml:space="preserve">
<path d="M62.447,29.105l-7.648-3.824L48.937,9.648C48.79,9.259,48.417,9,48,9H30c-0.553,0-1,0.447-1,1v36c0,0.553,0.447,1,1,1h5.059
	c0.499,4.493,4.316,8,8.941,8s8.442-3.507,8.941-8H62c0.553,0,1-0.447,1-1V30C63,29.621,62.786,29.275,62.447,29.105z M44,53
	c-3.859,0-7-3.141-7-7s3.141-7,7-7s7,3.141,7,7S47.859,53,44,53z M61,45h-8.059c-0.499-4.493-4.316-8-8.941-8s-8.442,3.507-8.941,8
	H31V11h16.307l5.757,15.352c0.089,0.236,0.264,0.43,0.489,0.543L61,30.618V45z"/>
<path d="M46,25h-7v-7c0-0.553-0.447-1-1-1s-1,0.447-1,1v8c0,0.553,0.447,1,1,1h8c0.553,0,1-0.447,1-1S46.553,25,46,25z"/>
<path d="M22,9H2c-0.553,0-1,0.447-1,1s0.447,1,1,1h20c0.553,0,1-0.447,1-1S22.553,9,22,9z"/>
<path d="M22,19H8c-0.553,0-1,0.447-1,1s0.447,1,1,1h14c0.553,0,1-0.447,1-1S22.553,19,22,19z"/>
<path d="M22,29h-8c-0.553,0-1,0.447-1,1s0.447,1,1,1h8c0.553,0,1-0.447,1-1S22.553,29,22,29z"/>
</svg>
