<?xml version="1.0" encoding="utf-8"?>
<!-- Generator: Adobe Illustrator 20.0.0, SVG Export Plug-In . SVG Version: 6.00 Build 0)  -->
<!DOCTYPE svg PUBLIC "-//W3C//DTD SVG 1.1//EN" "http://www.w3.org/Graphics/SVG/1.1/DTD/svg11.dtd">
<svg version="1.1" id="layer" xmlns="http://www.w3.org/2000/svg" xmlns:xlink="http://www.w3.org/1999/xlink" x="0px" y="0px"
	 width="64px" height="64px" viewBox="0 0 64 64" enable-background="new 0 0 64 64" xml:space="preserve">
<path fill="#1D1D1B" d="M62,11H2c-0.552,0-1,0.448-1,1s0.448,1,1,1h60c0.552,0,1-0.448,1-1S62.552,11,62,11z"/>
<path fill="#1D1D1B" d="M62,51H2c-0.552,0-1,0.448-1,1s0.448,1,1,1h60c0.552,0,1-0.448,1-1S62.552,51,62,51z"/>
<path fill="#1D1D1B" d="M12.31,37.903c-0.695,0-1.445-0.097-2.25-0.29s-1.567-0.458-2.283-0.795v2.428
	c1.131,0.552,2.585,0.827,4.361,0.827c3.117,0,5.693-1.359,5.693-4.479c0-1.361-0.444-2.393-1.558-3.255
	c-0.537-0.415-1.382-0.863-2.535-1.343c-2.189-0.902-3.233-1.451-3.233-2.89c0-1.388,1.141-1.977,2.535-1.977
	c1.096,0,2.342,0.294,3.738,0.881l0.816-2.095c-1.49-0.659-2.986-0.988-4.49-0.988c-2.867,0-5.146,1.378-5.146,4.222
	c0,2.496,1.598,3.737,3.91,4.673c1.76,0.708,3.416,1.349,3.416,2.943C15.285,37.362,13.913,37.903,12.31,37.903z"/>
<path fill="#1D1D1B" d="M29.046,35.497l1.568,4.361h2.729l-5.876-15.77h-2.793l-5.876,15.77h2.707l1.536-4.361H29.046z
	 M25.211,29.191c0.372-1.045,0.655-2.009,0.849-2.89c0.071,0.287,0.202,0.738,0.392,1.354c0.189,0.616,0.338,1.067,0.446,1.354
	l1.472,4.275h-4.576L25.211,29.191z"/>
<polygon fill="#1D1D1B" points="35.416,24.153 35.416,39.858 44.633,39.858 44.633,37.656 37.983,37.656 37.983,24.153 "/>
<polygon fill="#1D1D1B" points="56.224,26.323 56.224,24.153 47.34,24.153 47.34,39.858 56.224,39.858 56.224,37.677 49.907,37.677 
	49.907,32.747 55.826,32.747 55.826,30.598 49.907,30.598 49.907,26.323 "/>
</svg>
