<?xml version="1.0" encoding="utf-8"?>
<!-- Generator: Adobe Illustrator 20.0.0, SVG Export Plug-In . SVG Version: 6.00 Build 0)  -->
<!DOCTYPE svg PUBLIC "-//W3C//DTD SVG 1.1//EN" "http://www.w3.org/Graphics/SVG/1.1/DTD/svg11.dtd">
<svg version="1.1" id="Layer_1" xmlns="http://www.w3.org/2000/svg" xmlns:xlink="http://www.w3.org/1999/xlink" x="0px" y="0px"
	 width="64px" height="64px" viewBox="0 0 64 64" enable-background="new 0 0 64 64" xml:space="preserve">
<path d="M28,63c0.552,0,1-0.447,1-1v-5h5c8.271,0,15-6.729,15-15c0-7.03-4.868-12.929-11.405-14.546C40.824,25.535,43,22.021,43,18
	c0-6.065-4.935-11-11-11h-3V2c0-0.553-0.448-1-1-1s-1,0.447-1,1v5h-6V2c0-0.553-0.448-1-1-1s-1,0.447-1,1v5h-3c-0.552,0-1,0.447-1,1
	v20v28c0,0.553,0.448,1,1,1h3v5c0,0.553,0.448,1,1,1s1-0.447,1-1v-5h6v5C27,62.553,27.448,63,28,63z M17,9h15c4.962,0,9,4.037,9,9
	s-4.038,9-9,9H17V9z M17,29h15h2c7.168,0,13,5.832,13,13s-5.832,13-13,13H17V29z"/>
</svg>
