<?xml version="1.0" encoding="utf-8"?>
<!-- Generator: Adobe Illustrator 20.0.0, SVG Export Plug-In . SVG Version: 6.00 Build 0)  -->
<!DOCTYPE svg PUBLIC "-//W3C//DTD SVG 1.1//EN" "http://www.w3.org/Graphics/SVG/1.1/DTD/svg11.dtd">
<svg version="1.1" id="layer" xmlns="http://www.w3.org/2000/svg" xmlns:xlink="http://www.w3.org/1999/xlink" x="0px" y="0px"
	 width="64px" height="64px" viewBox="0 0 64 64" enable-background="new 0 0 64 64" xml:space="preserve">
<path fill="#1D1D1B" d="M30,15h20c0.553,0,1-0.447,1-1s-0.447-1-1-1H30c-0.553,0-1,0.447-1,1S29.447,15,30,15z"/>
<path fill="#1D1D1B" d="M30,27h20c0.553,0,1-0.447,1-1s-0.447-1-1-1H30c-0.553,0-1,0.447-1,1S29.447,27,30,27z"/>
<path fill="#1D1D1B" d="M30,39h20c0.553,0,1-0.447,1-1s-0.447-1-1-1H30c-0.553,0-1,0.447-1,1S29.447,39,30,39z"/>
<path fill="#1D1D1B" d="M62,1.063H18c-0.553,0-1,0.447-1,1V49H8c-3.859,0-7,3.141-7,7v6c0,0.553,0.447,1,1,1h36c0.553,0,1-0.447,1-1
	v-6c0-2.757,2.243-5,5-5s5,2.243,5,5c0,3.859,3.141,7,7,7s7-3.141,7-7V2.063C63,1.511,62.553,1.063,62,1.063z M37,56v5H3v-5
	c0-2.757,2.243-5,5-5h31.105C37.807,52.271,37,54.043,37,56z M61,56c0,2.757-2.243,5-5,5s-5-2.243-5-5c0-3.859-3.141-7-7-7H19V3.063
	h42V56z"/>
</svg>
