<?xml version="1.0" encoding="utf-8"?>
<!-- Generator: Adobe Illustrator 20.0.0, SVG Export Plug-In . SVG Version: 6.00 Build 0)  -->
<!DOCTYPE svg PUBLIC "-//W3C//DTD SVG 1.1//EN" "http://www.w3.org/Graphics/SVG/1.1/DTD/svg11.dtd">
<svg version="1.1" id="layer" xmlns="http://www.w3.org/2000/svg" xmlns:xlink="http://www.w3.org/1999/xlink" x="0px" y="0px"
	 width="64px" height="64px" viewBox="0 0 64 64" enable-background="new 0 0 64 64" xml:space="preserve">
<path fill="#1D1D1B" d="M55.738,54.324C57.15,52.599,58,50.397,58,48c0-5.514-4.486-10-10-10s-10,4.486-10,10s4.486,10,10,10
	c2.398,0,4.6-0.85,6.324-2.262l5.969,5.969C60.488,61.902,60.744,62,61,62s0.512-0.098,0.707-0.293c0.391-0.391,0.391-1.023,0-1.414
	L55.738,54.324z M40,48c0-4.411,3.589-8,8-8s8,3.589,8,8s-3.589,8-8,8S40,52.411,40,48z"/>
<path fill="#1D1D1B" d="M62,19H50.594L41.06,1.521c-0.264-0.484-0.871-0.663-1.357-0.399c-0.485,0.265-0.664,0.872-0.399,1.356
	L48.316,19H15.684l9.012-16.521c0.265-0.484,0.086-1.092-0.399-1.356c-0.486-0.264-1.092-0.085-1.357,0.399L13.406,19H2
	c-0.552,0-1,0.447-1,1v10c0,0.553,0.448,1,1,1h5v27c0,2.757,2.243,5,5,5h23c0.552,0,1-0.447,1-1s-0.448-1-1-1H12
	c-1.654,0-3-1.346-3-3V31h53c0.552,0,1-0.447,1-1V20C63,19.447,62.552,19,62,19z M61,29H3v-8h58V29z"/>
</svg>
