<?xml version="1.0" encoding="utf-8"?>
<!-- Generator: Adobe Illustrator 19.2.1, SVG Export Plug-In . SVG Version: 6.00 Build 0)  -->
<!DOCTYPE svg PUBLIC "-//W3C//DTD SVG 1.1//EN" "http://www.w3.org/Graphics/SVG/1.1/DTD/svg11.dtd">
<svg version="1.1" id="Layer_1" xmlns="http://www.w3.org/2000/svg" xmlns:xlink="http://www.w3.org/1999/xlink" x="0px" y="0px"
	 width="16px" height="16px" viewBox="0 0 16 16" enable-background="new 0 0 16 16" xml:space="preserve">
<path d="M6,3v3.556C6.591,6.212,7.268,6,8,6s1.409,0.212,2,0.556V3c0-1.105-0.895-2-2-2S6,1.895,6,3z"/>
<path d="M4.001,10.012L1,11.757c-0.957,0.552-1.284,1.775-0.732,2.732C0.821,15.445,2.044,15.773,3,15.221l3.029-1.761
	C4.827,12.772,4.006,11.493,4.001,10.012z"/>
<path d="M15,11.757l-3.001-1.745c-0.004,1.481-0.826,2.76-2.028,3.448L13,15.221c0.957,0.552,2.18,0.225,2.732-0.732
	C16.284,13.532,15.956,12.309,15,11.757z"/>
<circle cx="8" cy="10" r="2"/>
</svg>
