<?xml version="1.0" encoding="utf-8"?>
<!-- Generator: Adobe Illustrator 19.2.1, SVG Export Plug-In . SVG Version: 6.00 Build 0)  -->
<!DOCTYPE svg PUBLIC "-//W3C//DTD SVG 1.1//EN" "http://www.w3.org/Graphics/SVG/1.1/DTD/svg11.dtd">
<svg version="1.1" id="Layer_1" xmlns="http://www.w3.org/2000/svg" xmlns:xlink="http://www.w3.org/1999/xlink" x="0px" y="0px"
	 width="16px" height="16px" viewBox="0 0 16 16" enable-background="new 0 0 16 16" xml:space="preserve">
<path d="M12,14c0,1.425,1,2,2,2s2-0.575,2-2s-2-4-2-4S12,12.575,12,14z"/>
<path d="M13.138,2.535l-0.005-0.026L8.527,3.276L8.179,1.775C8.074,1.321,7.67,1,7.205,1H1C0.448,1,0,1.448,0,2v8
	c0,0.552,0.448,1,1,1h7.945c0.637,0,1.111-0.587,0.978-1.21L9.267,6.73l4.293-2.146l-0.003-0.015c0.518,0.804,1.416,1.34,2.444,1.34
	V0.091C14.553,0.091,13.362,1.151,13.138,2.535z"/>
</svg>
