<?xml version="1.0" encoding="utf-8"?>
<!-- Generator: Adobe Illustrator 19.2.1, SVG Export Plug-In . SVG Version: 6.00 Build 0)  -->
<!DOCTYPE svg PUBLIC "-//W3C//DTD SVG 1.1//EN" "http://www.w3.org/Graphics/SVG/1.1/DTD/svg11.dtd">
<svg version="1.1" id="Layer_1" xmlns="http://www.w3.org/2000/svg" xmlns:xlink="http://www.w3.org/1999/xlink" x="0px" y="0px"
	 width="16px" height="16px" viewBox="0 0 16 16" enable-background="new 0 0 16 16" xml:space="preserve">
<path d="M14.943,7.529l-0.953-6.67C13.919,0.366,13.498,0,13,0H3C2.502,0,2.081,0.366,2.01,0.858l-0.953,6.67L0.293,8.293
	C0.105,8.48,0,8.735,0,9v4c0,0.552,0.448,1,1,1v1c0,0.552,0.448,1,1,1h2c0.552,0,1-0.448,1-1v-1h6v1c0,0.552,0.448,1,1,1h2
	c0.552,0,1-0.448,1-1v-1c0.552,0,1-0.448,1-1V9c0-0.265-0.105-0.52-0.293-0.707L14.943,7.529z M5,11H2v-1h3V11z M3.153,7l0.714-5
	h8.266l0.714,5H3.153z M14,11h-1v1h-1v-1h-1v-1h1V9h1v1h1V11z"/>
</svg>
