<?xml version="1.0" encoding="utf-8"?>
<!-- Generator: Adobe Illustrator 19.2.1, SVG Export Plug-In . SVG Version: 6.00 Build 0)  -->
<!DOCTYPE svg PUBLIC "-//W3C//DTD SVG 1.1//EN" "http://www.w3.org/Graphics/SVG/1.1/DTD/svg11.dtd">
<svg version="1.1" id="Layer_1" xmlns="http://www.w3.org/2000/svg" xmlns:xlink="http://www.w3.org/1999/xlink" x="0px" y="0px"
	 width="16px" height="16px" viewBox="0 0 16 16" enable-background="new 0 0 16 16" xml:space="preserve">
<path d="M1,10h14c0.308,0,0.599-0.142,0.788-0.385s0.257-0.559,0.182-0.858l-2-8C13.858,0.312,13.459,0,13,0H3
	C2.541,0,2.142,0.312,2.03,0.757l-2,8c-0.075,0.299-0.008,0.615,0.182,0.858S0.692,10,1,10z M9,2h3.219l0.5,2H9V2z M9,6h4.219l0.5,2
	H9V6z M3.781,2H7v2H3.281L3.781,2z M2.781,6H7v2H2.281L2.781,6z"/>
<path d="M7,11v3H3c-0.553,0-1,0.448-1,1s0.447,1,1,1h10c0.553,0,1-0.448,1-1s-0.447-1-1-1H9v-3H7z"/>
</svg>
