<?xml version="1.0" encoding="utf-8"?>
<!-- Generator: Adobe Illustrator 19.2.1, SVG Export Plug-In . SVG Version: 6.00 Build 0)  -->
<!DOCTYPE svg PUBLIC "-//W3C//DTD SVG 1.1//EN" "http://www.w3.org/Graphics/SVG/1.1/DTD/svg11.dtd">
<svg version="1.1" id="Layer_1" xmlns="http://www.w3.org/2000/svg" xmlns:xlink="http://www.w3.org/1999/xlink" x="0px" y="0px"
	 width="16px" height="16px" viewBox="0 0 16 16" enable-background="new 0 0 16 16" xml:space="preserve">
<path d="M2,16h12c0.553,0,1-0.448,1-1V6c0-0.297-0.132-0.578-0.359-0.768l-6-5c-0.371-0.31-0.91-0.31-1.281,0l-6,5
	C1.132,5.422,1,5.703,1,6v9C1,15.552,1.447,16,2,16z M3,6.468l5-4.167l5,4.167V14H3V6.468z"/>
<path d="M5.913,8.93c-0.703,0.703-0.918,1.485-0.911,2.163c2.075-1.109,3.217-1.25,3.217-1.25L5.416,12.6l0.1,0.055
	C5.83,12.829,6.351,13,6.948,13c0.676,0,1.449-0.219,2.132-0.902c1.404-1.404,1.824-4.419,1.841-4.547L10.995,7l-0.549,0.091
	C10.315,7.113,7.198,7.645,5.913,8.93z"/>
</svg>
