<?xml version="1.0" encoding="utf-8"?>
<!-- Generator: Adobe Illustrator 19.2.1, SVG Export Plug-In . SVG Version: 6.00 Build 0)  -->
<!DOCTYPE svg PUBLIC "-//W3C//DTD SVG 1.1//EN" "http://www.w3.org/Graphics/SVG/1.1/DTD/svg11.dtd">
<svg version="1.1" id="Layer_1" xmlns="http://www.w3.org/2000/svg" xmlns:xlink="http://www.w3.org/1999/xlink" x="0px" y="0px"
	 width="16px" height="16px" viewBox="0 0 16 16" enable-background="new 0 0 16 16" xml:space="preserve">
<path d="M12,2c0-1.103-0.897-2-2-2H2C0.897,0,0,0.897,0,2v14h12v-3.184C12.314,12.928,12.648,13,13,13c1.654,0,3-1.346,3-3V3h-4V2z
	 M10,14H2V2h8V14z M14,5v5c0,0.551-0.449,1-1,1s-1-0.449-1-1V5H14z"/>
<rect x="3" y="3" width="6" height="5"/>
</svg>
