<?xml version="1.0" encoding="utf-8"?>
<!-- Generator: Adobe Illustrator 19.2.1, SVG Export Plug-In . SVG Version: 6.00 Build 0)  -->
<!DOCTYPE svg PUBLIC "-//W3C//DTD SVG 1.1//EN" "http://www.w3.org/Graphics/SVG/1.1/DTD/svg11.dtd">
<svg version="1.1" id="Layer_1" xmlns="http://www.w3.org/2000/svg" xmlns:xlink="http://www.w3.org/1999/xlink" x="0px" y="0px"
	 width="16px" height="16px" viewBox="0 0 16 16" enable-background="new 0 0 16 16" xml:space="preserve">
<path d="M8,0C3.275,0,1,0.672,1,1.5S3.275,3,8,3s7-0.672,7-1.5S12.725,0,8,0z"/>
<path d="M1,3.106V14.5C1,15.328,3.275,16,8,16s7-0.672,7-1.5V3.106C13.26,3.851,10.616,4,8,4S2.74,3.851,1,3.106z M11.414,8l-2,2
	l2,2L10,13.414l-2-2l-2,2L4.586,12l2-2l-2-2L6,6.586l2,2l2-2L11.414,8z"/>
</svg>
