<?xml version="1.0" encoding="utf-8"?>
<!-- Generator: Adobe Illustrator 19.1.0, SVG Export Plug-In . SVG Version: 6.00 Build 0)  -->
<!DOCTYPE svg PUBLIC "-//W3C//DTD SVG 1.1//EN" "http://www.w3.org/Graphics/SVG/1.1/DTD/svg11.dtd">
<svg version="1.1" id="Layer_2" xmlns="http://www.w3.org/2000/svg" xmlns:xlink="http://www.w3.org/1999/xlink" x="0px" y="0px"
	 width="24px" height="24px" viewBox="0 0 24 24" enable-background="new 0 0 24 24" xml:space="preserve">
<path fill="#444444" d="M24,11h-2V8c0-0.5523071-0.4476929-1-1-1h-1V5c0-0.5523071-0.4476929-1-1-1h-1c-0.5523071,0-1,0.4476929-1,1
	v5H7V5c0-0.5523071-0.4476929-1-1-1H5C4.4476929,4,4,4.4476929,4,5v2H3C2.4476929,7,2,7.4476929,2,8v3H0v2h2v3
	c0,0.5522461,0.4476929,1,1,1h1v2c0,0.5522461,0.4476929,1,1,1h1c0.5523071,0,1-0.4477539,1-1v-5h10v5c0,0.5522461,0.4476929,1,1,1
	h1c0.5523071,0,1-0.4477539,1-1v-2h1c0.5523071,0,1-0.4477539,1-1v-3h2V11z"/>
</svg>
