<?xml version="1.0" encoding="utf-8"?>
<!-- Generator: Adobe Illustrator 19.2.1, SVG Export Plug-In . SVG Version: 6.00 Build 0)  -->
<!DOCTYPE svg PUBLIC "-//W3C//DTD SVG 1.1//EN" "http://www.w3.org/Graphics/SVG/1.1/DTD/svg11.dtd">
<svg version="1.1" id="Layer_1" xmlns="http://www.w3.org/2000/svg" xmlns:xlink="http://www.w3.org/1999/xlink" x="0px" y="0px"
	 width="32px" height="32px" viewBox="0 0 32 32" enable-background="new 0 0 32 32" xml:space="preserve">
<path d="M31,0H1C0.448,0,0,0.448,0,1v30c0,0.552,0.448,1,1,1h30c0.552,0,1-0.448,1-1V1C32,0.448,31.552,0,31,0z M21,22
	c0,0.379-0.214,0.725-0.553,0.895C20.306,22.965,20.152,23,20,23c-0.212,0-0.423-0.068-0.6-0.2l-8-6C11.148,16.611,11,16.315,11,16
	s0.148-0.611,0.4-0.8l8-6c0.304-0.228,0.708-0.265,1.047-0.095C20.786,9.275,21,9.621,21,10V22z"/>
</svg>
