<?xml version="1.0" encoding="utf-8"?>
<!-- Generator: Adobe Illustrator 19.2.1, SVG Export Plug-In . SVG Version: 6.00 Build 0)  -->
<!DOCTYPE svg PUBLIC "-//W3C//DTD SVG 1.1//EN" "http://www.w3.org/Graphics/SVG/1.1/DTD/svg11.dtd">
<svg version="1.1" id="Layer_1" xmlns="http://www.w3.org/2000/svg" xmlns:xlink="http://www.w3.org/1999/xlink" x="0px" y="0px"
	 width="32px" height="32px" viewBox="0 0 32 32" enable-background="new 0 0 32 32" xml:space="preserve">
<path d="M31,0H1C0.448,0,0,0.448,0,1v30c0,0.552,0.448,1,1,1h30c0.552,0,1-0.448,1-1V1C32,0.448,31.552,0,31,0z M22.02,21
	c-0.007-0.001-0.013,0-0.02,0H10c-0.379,0-0.725-0.214-0.895-0.553S8.973,19.703,9.2,19.4l6-8c0.377-0.504,1.223-0.504,1.6,0
	l5.9,7.867c0.197,0.183,0.32,0.443,0.32,0.733C23.02,20.552,22.572,21,22.02,21z"/>
</svg>
