<?xml version="1.0" encoding="utf-8"?>
<!-- Generator: Adobe Illustrator 19.2.1, SVG Export Plug-In . SVG Version: 6.00 Build 0)  -->
<!DOCTYPE svg PUBLIC "-//W3C//DTD SVG 1.1//EN" "http://www.w3.org/Graphics/SVG/1.1/DTD/svg11.dtd">
<svg version="1.1" id="Layer_1" xmlns="http://www.w3.org/2000/svg" xmlns:xlink="http://www.w3.org/1999/xlink" x="0px" y="0px"
	 width="32px" height="32px" viewBox="0 0 32 32" enable-background="new 0 0 32 32" xml:space="preserve">
<path d="M31,28c0-0.552-0.447-1-1-1H2c-0.553,0-1,0.448-1,1s0.447,1,1,1h28C30.553,29,31,28.552,31,28z"/>
<path d="M16,24c0.317,0,0.616-0.151,0.805-0.407l14-19c0.226-0.304,0.258-0.708,0.088-1.044C30.723,3.212,30.377,3,30,3H2
	C1.623,3,1.277,3.212,1.107,3.549C0.939,3.88,0.968,4.287,1.195,4.593l14,19C15.384,23.849,15.683,24,16,24z"/>
</svg>
