<?xml version="1.0" encoding="utf-8"?>
<!-- Generator: Adobe Illustrator 19.2.1, SVG Export Plug-In . SVG Version: 6.00 Build 0)  -->
<!DOCTYPE svg PUBLIC "-//W3C//DTD SVG 1.1//EN" "http://www.w3.org/Graphics/SVG/1.1/DTD/svg11.dtd">
<svg version="1.1" id="Layer_1" xmlns="http://www.w3.org/2000/svg" xmlns:xlink="http://www.w3.org/1999/xlink" x="0px" y="0px"
	 width="32px" height="32px" viewBox="0 0 32 32" enable-background="new 0 0 32 32" xml:space="preserve">
<path d="M29,30V2c0-0.553-0.448-1-1-1s-1,0.447-1,1v28c0,0.553,0.448,1,1,1S29,30.553,29,30z"/>
<path d="M23.451,30.893C23.788,30.723,24,30.377,24,30V2c0-0.377-0.212-0.723-0.549-0.893c-0.337-0.17-0.741-0.138-1.044,0.088
	l-19,14C3.151,15.384,3,15.683,3,16s0.151,0.616,0.407,0.805l19,14C22.713,31.032,23.12,31.061,23.451,30.893z"/>
</svg>
