<?xml version="1.0" encoding="utf-8"?>
<!-- Generator: Adobe Illustrator 19.2.1, SVG Export Plug-In . SVG Version: 6.00 Build 0)  -->
<!DOCTYPE svg PUBLIC "-//W3C//DTD SVG 1.1//EN" "http://www.w3.org/Graphics/SVG/1.1/DTD/svg11.dtd">
<svg version="1.1" id="Layer_1" xmlns="http://www.w3.org/2000/svg" xmlns:xlink="http://www.w3.org/1999/xlink" x="0px" y="0px"
	 width="32px" height="32px" viewBox="0 0 32 32" enable-background="new 0 0 32 32" xml:space="preserve">
<path d="M6,21h9v6c0,0.383,0.219,0.732,0.563,0.899C15.702,27.967,15.851,28,16,28c0.22,0,0.438-0.073,0.618-0.214l14-11
	C30.859,16.597,31,16.307,31,16s-0.141-0.597-0.382-0.786l-14-11c-0.302-0.236-0.712-0.28-1.055-0.113C15.219,4.268,15,4.617,15,5v6
	H6c-2.757,0-5,2.243-5,5S3.243,21,6,21z"/>
</svg>
