<?xml version="1.0" encoding="utf-8"?>
<!-- Generator: Adobe Illustrator 19.2.1, SVG Export Plug-In . SVG Version: 6.00 Build 0)  -->
<!DOCTYPE svg PUBLIC "-//W3C//DTD SVG 1.1//EN" "http://www.w3.org/Graphics/SVG/1.1/DTD/svg11.dtd">
<svg version="1.1" id="Layer_1" xmlns="http://www.w3.org/2000/svg" xmlns:xlink="http://www.w3.org/1999/xlink" x="0px" y="0px"
	 width="32px" height="32px" viewBox="0 0 32 32" enable-background="new 0 0 32 32" xml:space="preserve">
<path d="M16,0C7.178,0,0,7.178,0,16s7.178,16,16,16s16-7.178,16-16S24.822,0,16,0z M21.6,16.8l-8,6C13.424,22.932,13.212,23,13,23
	c-0.152,0-0.306-0.035-0.447-0.105C12.214,22.725,12,22.379,12,22V10c0-0.379,0.214-0.725,0.553-0.895
	C12.891,8.936,13.297,8.973,13.6,9.2l8,6c0.252,0.188,0.4,0.485,0.4,0.8S21.852,16.611,21.6,16.8z"/>
</svg>
