<?xml version="1.0" encoding="utf-8"?>
<!-- Generator: Adobe Illustrator 19.2.1, SVG Export Plug-In . SVG Version: 6.00 Build 0)  -->
<!DOCTYPE svg PUBLIC "-//W3C//DTD SVG 1.1//EN" "http://www.w3.org/Graphics/SVG/1.1/DTD/svg11.dtd">
<svg version="1.1" id="Layer_1" xmlns="http://www.w3.org/2000/svg" xmlns:xlink="http://www.w3.org/1999/xlink" x="0px" y="0px"
	 width="32px" height="32px" viewBox="0 0 32 32" enable-background="new 0 0 32 32" xml:space="preserve">
<path d="M24,23h-1c-1.565,0-3.061-0.748-4-2l-2.501-3.334l-1.25,1.666l2.151,2.867C18.715,23.953,20.809,25,23,25h1v5l7-6l-7-6V23z"
	/>
<path d="M1,9h4c1.565,0,3.061,0.748,4,2l2.5,3.333l1.25-1.666L10.6,9.801C9.285,8.047,7.191,7,5,7H1V9z"/>
<path d="M24,7c-2.818,0-5.51,1.346-7.2,3.601L9,21c-0.939,1.252-2.435,2-4,2H1v2h4c2.191,0,4.285-1.047,5.6-2.801l7.8-10.399
	C19.715,10.047,21.808,9,24,9v5l7-6l-7-6V7z"/>
</svg>
