<?xml version="1.0" encoding="utf-8"?>
<!-- Generator: Adobe Illustrator 19.2.1, SVG Export Plug-In . SVG Version: 6.00 Build 0)  -->
<!DOCTYPE svg PUBLIC "-//W3C//DTD SVG 1.1//EN" "http://www.w3.org/Graphics/SVG/1.1/DTD/svg11.dtd">
<svg version="1.1" id="Layer_1" xmlns="http://www.w3.org/2000/svg" xmlns:xlink="http://www.w3.org/1999/xlink" x="0px" y="0px"
	 width="32px" height="32px" viewBox="0 0 32 32" enable-background="new 0 0 32 32" xml:space="preserve">
<path d="M16,0C7.178,0,0,7.178,0,16s7.178,16,16,16s16-7.178,16-16S24.822,0,16,0z M25,17H9.414l5.293,5.293
	c0.391,0.391,0.391,1.023,0,1.414C14.512,23.902,14.256,24,14,24s-0.512-0.098-0.707-0.293l-6.999-6.999
	c-0.093-0.092-0.166-0.203-0.217-0.326c-0.101-0.244-0.101-0.52,0-0.764c0.051-0.123,0.124-0.233,0.217-0.326l6.999-6.999
	c0.391-0.391,1.023-0.391,1.414,0s0.391,1.023,0,1.414L9.414,15H25c0.553,0,1,0.448,1,1S25.553,17,25,17z"/>
</svg>
