<?xml version="1.0" encoding="utf-8"?>
<!-- Generator: Adobe Illustrator 19.2.1, SVG Export Plug-In . SVG Version: 6.00 Build 0)  -->
<!DOCTYPE svg PUBLIC "-//W3C//DTD SVG 1.1//EN" "http://www.w3.org/Graphics/SVG/1.1/DTD/svg11.dtd">
<svg version="1.1" id="Layer_1" xmlns="http://www.w3.org/2000/svg" xmlns:xlink="http://www.w3.org/1999/xlink" x="0px" y="0px"
	 width="32px" height="32px" viewBox="0 0 32 32" enable-background="new 0 0 32 32" xml:space="preserve">
<path d="M28,16c0,6.617-5.383,12-12,12S4,22.617,4,16S9.383,4,16,4c3.013,0,5.859,1.146,8.028,3.095l-4.682,3.576l9.326,1.249
	l1.249-9.326l-4.28,3.269C23.079,3.436,19.643,2,16,2C8.28,2,2,8.28,2,16s6.28,14,14,14s14-6.28,14-14H28z"/>
<polygon points="15,15 9,15 9,17 17,17 17,9 15,9 "/>
</svg>
