<?xml version="1.0" encoding="utf-8"?>
<!-- Generator: Adobe Illustrator 19.2.1, SVG Export Plug-In . SVG Version: 6.00 Build 0)  -->
<!DOCTYPE svg PUBLIC "-//W3C//DTD SVG 1.1//EN" "http://www.w3.org/Graphics/SVG/1.1/DTD/svg11.dtd">
<svg version="1.1" id="Layer_1" xmlns="http://www.w3.org/2000/svg" xmlns:xlink="http://www.w3.org/1999/xlink" x="0px" y="0px"
	 width="32px" height="32px" viewBox="0 0 32 32" enable-background="new 0 0 32 32" xml:space="preserve">
<path d="M27,2v28c0,0.553,0.448,1,1,1s1-0.447,1-1V2c0-0.553-0.448-1-1-1S27,1.447,27,2z"/>
<path d="M24,16c0-0.317-0.151-0.616-0.407-0.805l-19-14C4.29,0.97,3.886,0.938,3.549,1.108C3.212,1.277,3,1.623,3,2v28
	c0,0.377,0.212,0.723,0.549,0.893c0.332,0.168,0.738,0.139,1.044-0.088l19-14C23.849,16.616,24,16.318,24,16z"/>
</svg>
