<?xml version="1.0" encoding="utf-8"?>
<!-- Generator: Adobe Illustrator 19.2.1, SVG Export Plug-In . SVG Version: 6.00 Build 0)  -->
<!DOCTYPE svg PUBLIC "-//W3C//DTD SVG 1.1//EN" "http://www.w3.org/Graphics/SVG/1.1/DTD/svg11.dtd">
<svg version="1.1" id="Layer_1" xmlns="http://www.w3.org/2000/svg" xmlns:xlink="http://www.w3.org/1999/xlink" x="0px" y="0px"
	 width="32px" height="32px" viewBox="0 0 32 32" enable-background="new 0 0 32 32" xml:space="preserve">
<path d="M22.707,10.293l-6-6c-0.391-0.391-1.023-0.391-1.414,0l-6,6c-0.391,0.391-0.391,1.023,0,1.414s1.023,0.391,1.414,0L16,6.414
	l5.293,5.293C21.488,11.902,21.744,12,22,12s0.512-0.098,0.707-0.293C23.098,11.316,23.098,10.684,22.707,10.293z"/>
<path d="M22.707,20.293c-0.391-0.391-1.023-0.391-1.414,0L16,25.586l-5.293-5.293c-0.391-0.391-1.023-0.391-1.414,0
	s-0.391,1.023,0,1.414l6,6C15.488,27.902,15.744,28,16,28s0.512-0.098,0.707-0.293l6-6C23.098,21.316,23.098,20.684,22.707,20.293z"
	/>
</svg>
