<?xml version="1.0" encoding="utf-8"?>
<!-- Generator: Adobe Illustrator 19.2.1, SVG Export Plug-In . SVG Version: 6.00 Build 0)  -->
<!DOCTYPE svg PUBLIC "-//W3C//DTD SVG 1.1//EN" "http://www.w3.org/Graphics/SVG/1.1/DTD/svg11.dtd">
<svg version="1.1" id="Layer_1" xmlns="http://www.w3.org/2000/svg" xmlns:xlink="http://www.w3.org/1999/xlink" x="0px" y="0px"
	 width="32px" height="32px" viewBox="0 0 32 32" enable-background="new 0 0 32 32" xml:space="preserve">
<polygon fill="#222221" points="26.293,4.293 22.293,8.293 23.707,9.707 27.707,5.707 32,10 32,0 22,0 "/>
<polygon fill="#222221" points="8.293,9.707 9.707,8.293 5.707,4.293 10,0 0,0 0,10 4.293,5.707 "/>
<polygon fill="#222221" points="23.707,22.293 22.293,23.707 26.293,27.707 22,32 32,32 32,22 27.707,26.293 "/>
<polygon fill="#222221" points="5.707,27.707 9.707,23.707 8.293,22.293 4.293,26.293 0,22 0,32 10,32 "/>
<circle fill="#222221" cx="16" cy="16" r="6"/>
</svg>
