<?xml version="1.0" encoding="utf-8"?>
<!-- Generator: Adobe Illustrator 19.2.1, SVG Export Plug-In . SVG Version: 6.00 Build 0)  -->
<!DOCTYPE svg PUBLIC "-//W3C//DTD SVG 1.1//EN" "http://www.w3.org/Graphics/SVG/1.1/DTD/svg11.dtd">
<svg version="1.1" id="Layer_1" xmlns="http://www.w3.org/2000/svg" xmlns:xlink="http://www.w3.org/1999/xlink" x="0px" y="0px"
	 width="32px" height="32px" viewBox="0 0 32 32" enable-background="new 0 0 32 32" xml:space="preserve">
<path d="M31,0H1C0.448,0,0,0.448,0,1v30c0,0.552,0.448,1,1,1h30c0.552,0,1-0.448,1-1V1C32,0.448,31.552,0,31,0z M20.6,16.8l-8,6
	C12.423,22.932,12.212,23,12,23c-0.152,0-0.306-0.035-0.447-0.105C11.214,22.725,11,22.379,11,22V10
	c0-0.379,0.214-0.725,0.553-0.895c0.338-0.17,0.743-0.133,1.047,0.095l8,6c0.252,0.188,0.4,0.485,0.4,0.8S20.852,16.611,20.6,16.8z"
	/>
</svg>
