<?xml version="1.0" encoding="utf-8"?>
<!-- Generator: Adobe Illustrator 19.2.1, SVG Export Plug-In . SVG Version: 6.00 Build 0)  -->
<!DOCTYPE svg PUBLIC "-//W3C//DTD SVG 1.1//EN" "http://www.w3.org/Graphics/SVG/1.1/DTD/svg11.dtd">
<svg version="1.1" id="Layer_1" xmlns="http://www.w3.org/2000/svg" xmlns:xlink="http://www.w3.org/1999/xlink" x="0px" y="0px"
	 width="32px" height="32px" viewBox="0 0 32 32" enable-background="new 0 0 32 32" xml:space="preserve">
<path d="M25,11c-2.264,0-5.947,2.578-9.848,5.308C12.164,18.397,8.446,21,7,21c-2.28,0-4-1.715-4-3.989C3,14.762,4.757,13,7,13
	c0.636,0,1.414,0.233,2.332,0.673l-1.74,3.761l6.502-2.389l-2.389-6.502l-1.531,3.308C8.975,11.278,7.941,11,7,11
	c-3.364,0-6,2.641-6,6.011C1,20.369,3.636,23,7,23c2.076,0,5.424-2.342,9.299-5.055C19.447,15.742,23.366,13,25,13
	c2.243,0,4,1.762,4,4.011C29,19.285,27.28,21,25,21c-1.658,0-3.899-1.442-5.873-2.853l-1.162,1.627C20.309,21.45,22.782,23,25,23
	c3.364,0,6-2.631,6-5.989C31,13.641,28.364,11,25,11z"/>
</svg>
