<?xml version="1.0" encoding="utf-8"?>
<!-- Generator: Adobe Illustrator 19.2.1, SVG Export Plug-In . SVG Version: 6.00 Build 0)  -->
<!DOCTYPE svg PUBLIC "-//W3C//DTD SVG 1.1//EN" "http://www.w3.org/Graphics/SVG/1.1/DTD/svg11.dtd">
<svg version="1.1" id="Layer_1" xmlns="http://www.w3.org/2000/svg" xmlns:xlink="http://www.w3.org/1999/xlink" x="0px" y="0px"
	 width="32px" height="32px" viewBox="0 0 32 32" enable-background="new 0 0 32 32" xml:space="preserve">
<path d="M31,0H1C0.448,0,0,0.448,0,1v30c0,0.552,0.448,1,1,1h30c0.552,0,1-0.448,1-1V1C32,0.448,31.552,0,31,0z M25.923,16.382
	c-0.051,0.122-0.124,0.233-0.216,0.325l-7,7C18.512,23.902,18.256,24,18,24s-0.512-0.098-0.707-0.293
	c-0.391-0.391-0.391-1.023,0-1.414L22.586,17H7c-0.552,0-1-0.448-1-1s0.448-1,1-1h15.586l-5.293-5.293
	c-0.391-0.391-0.391-1.023,0-1.414s1.023-0.391,1.414,0l7,7c0.092,0.092,0.165,0.203,0.216,0.325
	C26.024,15.862,26.024,16.138,25.923,16.382z"/>
</svg>
