<?xml version="1.0" encoding="utf-8"?>
<!-- Generator: Adobe Illustrator 19.2.1, SVG Export Plug-In . SVG Version: 6.00 Build 0)  -->
<!DOCTYPE svg PUBLIC "-//W3C//DTD SVG 1.1//EN" "http://www.w3.org/Graphics/SVG/1.1/DTD/svg11.dtd">
<svg version="1.1" id="Layer_1" xmlns="http://www.w3.org/2000/svg" xmlns:xlink="http://www.w3.org/1999/xlink" x="0px" y="0px"
	 width="32px" height="32px" viewBox="0 0 32 32" enable-background="new 0 0 32 32" xml:space="preserve">
<path d="M2,31c0,0.553,0.447,1,1,1h26c0.553,0,1-0.447,1-1V10c0-0.553-0.447-1-1-1h-6v2h5v10H4V11h5V9H3c-0.553,0-1,0.447-1,1V31z
	 M12,25h8v2h-8V25z"/>
<polygon points="17,15 17,6 22,6 16,0 10,6 15,6 15,15 "/>
</svg>
