<?xml version="1.0" encoding="utf-8"?>
<!-- Generator: Adobe Illustrator 19.2.1, SVG Export Plug-In . SVG Version: 6.00 Build 0)  -->
<!DOCTYPE svg PUBLIC "-//W3C//DTD SVG 1.1//EN" "http://www.w3.org/Graphics/SVG/1.1/DTD/svg11.dtd">
<svg version="1.1" id="Layer_1" xmlns="http://www.w3.org/2000/svg" xmlns:xlink="http://www.w3.org/1999/xlink" x="0px" y="0px"
	 width="32px" height="32px" viewBox="0 0 32 32" enable-background="new 0 0 32 32" xml:space="preserve">
<circle cx="16" cy="16" r="7"/>
<path d="M3,3h8V1H2C1.447,1,1,1.447,1,2v9h2V3z"/>
<path d="M29,11h2V2c0-0.553-0.447-1-1-1h-9v2h8V11z"/>
<path d="M29,29h-8v2h9c0.553,0,1-0.447,1-1v-9h-2V29z"/>
<path d="M2,31h9v-2H3v-8H1v9C1,30.553,1.447,31,2,31z"/>
</svg>
