<?xml version="1.0" encoding="utf-8"?>
<!-- Generator: Adobe Illustrator 19.2.1, SVG Export Plug-In . SVG Version: 6.00 Build 0)  -->
<!DOCTYPE svg PUBLIC "-//W3C//DTD SVG 1.1//EN" "http://www.w3.org/Graphics/SVG/1.1/DTD/svg11.dtd">
<svg version="1.1" id="Layer_1" xmlns="http://www.w3.org/2000/svg" xmlns:xlink="http://www.w3.org/1999/xlink" x="0px" y="0px"
	 width="32px" height="32px" viewBox="0 0 32 32" enable-background="new 0 0 32 32" xml:space="preserve">
<path d="M24,9.059V5l-6,5l6,5v-3.92c3.386,0.488,6,3.401,6,6.92c0,3.86-3.141,7-7,7H9c-3.859,0-7-3.14-7-7
	c0-3.519,2.614-6.432,6-6.92V15l6-5L8,5v4.059C3.507,9.558,0,13.376,0,18c0,4.962,4.037,9,9,9h14c4.963,0,9-4.038,9-9
	C32,13.376,28.493,9.558,24,9.059z"/>
</svg>
