<?xml version="1.0" encoding="utf-8"?>
<!-- Generator: Adobe Illustrator 19.2.1, SVG Export Plug-In . SVG Version: 6.00 Build 0)  -->
<!DOCTYPE svg PUBLIC "-//W3C//DTD SVG 1.1//EN" "http://www.w3.org/Graphics/SVG/1.1/DTD/svg11.dtd">
<svg version="1.1" id="Layer_1" xmlns="http://www.w3.org/2000/svg" xmlns:xlink="http://www.w3.org/1999/xlink" x="0px" y="0px"
	 width="32px" height="32px" viewBox="0 0 32 32" enable-background="new 0 0 32 32" xml:space="preserve">
<polygon points="8,15 15,15 15,26 17,26 17,15 24,15 16,6 "/>
<path d="M2,2h4V0H1C0.447,0,0,0.448,0,1v5h2V2z"/>
<rect x="12" width="8" height="2"/>
<path d="M31,0h-5v2h4v4h2V1C32,0.448,31.553,0,31,0z"/>
<path d="M30,30h-4v2h5c0.553,0,1-0.448,1-1v-5h-2V30z"/>
<rect x="12" y="30" width="8" height="2"/>
<path d="M1,32h5v-2H2v-4H0v5C0,31.552,0.447,32,1,32z"/>
<rect y="12" width="2" height="8"/>
<rect x="30" y="12" width="2" height="8"/>
</svg>
