<?xml version="1.0" encoding="utf-8"?>
<!-- Generator: Adobe Illustrator 19.2.1, SVG Export Plug-In . SVG Version: 6.00 Build 0)  -->
<!DOCTYPE svg PUBLIC "-//W3C//DTD SVG 1.1//EN" "http://www.w3.org/Graphics/SVG/1.1/DTD/svg11.dtd">
<svg version="1.1" id="Layer_1" xmlns="http://www.w3.org/2000/svg" xmlns:xlink="http://www.w3.org/1999/xlink" x="0px" y="0px"
	 width="32px" height="32px" viewBox="0 0 32 32" enable-background="new 0 0 32 32" xml:space="preserve">
<path d="M2,29h28c0.553,0,1-0.448,1-1s-0.447-1-1-1H2c-0.553,0-1,0.448-1,1S1.447,29,2,29z"/>
<path d="M1.108,23.451C1.278,23.788,1.623,24,2,24h28c0.377,0,0.723-0.212,0.893-0.549c0.168-0.332,0.139-0.738-0.088-1.044l-14-19
	C16.616,3.151,16.318,3,16,3s-0.616,0.151-0.805,0.407l-14,19C0.97,22.71,0.938,23.114,1.108,23.451z"/>
</svg>
