<?xml version="1.0" encoding="utf-8"?>
<!-- Generator: Adobe Illustrator 19.2.1, SVG Export Plug-In . SVG Version: 6.00 Build 0)  -->
<!DOCTYPE svg PUBLIC "-//W3C//DTD SVG 1.1//EN" "http://www.w3.org/Graphics/SVG/1.1/DTD/svg11.dtd">
<svg version="1.1" id="Layer_1" xmlns="http://www.w3.org/2000/svg" xmlns:xlink="http://www.w3.org/1999/xlink" x="0px" y="0px"
	 width="32px" height="32px" viewBox="0 0 32 32" enable-background="new 0 0 32 32" xml:space="preserve">
<path d="M10,26h20c0.553,0,1-0.448,1-1V7c0-0.552-0.447-1-1-1H10C9.715,6,9.442,6.122,9.253,6.335l-8,9
	c-0.337,0.379-0.337,0.95,0,1.329l8,9C9.442,25.878,9.715,26,10,26z M13.586,13L15,11.586l3,3l3-3L22.414,13l-3,3l3,3L21,20.414
	l-3-3l-3,3L13.586,19l3-3L13.586,13z"/>
</svg>
