<?xml version="1.0" encoding="utf-8"?>
<!-- Generator: Adobe Illustrator 19.2.1, SVG Export Plug-In . SVG Version: 6.00 Build 0)  -->
<!DOCTYPE svg PUBLIC "-//W3C//DTD SVG 1.1//EN" "http://www.w3.org/Graphics/SVG/1.1/DTD/svg11.dtd">
<svg version="1.1" id="Layer_1" xmlns="http://www.w3.org/2000/svg" xmlns:xlink="http://www.w3.org/1999/xlink" x="0px" y="0px"
	 width="32px" height="32px" viewBox="0 0 32 32" enable-background="new 0 0 32 32" xml:space="preserve">
<path d="M2,9v21c0,0.553,0.447,1,1,1h26c0.553,0,1-0.447,1-1V9c0-0.553-0.447-1-1-1h-5v2h4v10H4V10h4V8H3C2.447,8,2,8.447,2,9z
	 M12,24h8v2h-8V24z"/>
<polygon points="15,1 15,11 10,11 16,17 22,11 17,11 17,1 "/>
</svg>
