<?xml version="1.0" encoding="utf-8"?>
<!-- Generator: Adobe Illustrator 19.2.1, SVG Export Plug-In . SVG Version: 6.00 Build 0)  -->
<!DOCTYPE svg PUBLIC "-//W3C//DTD SVG 1.1//EN" "http://www.w3.org/Graphics/SVG/1.1/DTD/svg11.dtd">
<svg version="1.1" id="Layer_1" xmlns="http://www.w3.org/2000/svg" xmlns:xlink="http://www.w3.org/1999/xlink" x="0px" y="0px"
	 width="32px" height="32px" viewBox="0 0 32 32" enable-background="new 0 0 32 32" xml:space="preserve">
<path d="M30,2H2C1.447,2,1,2.447,1,3v22c0,0.553,0.447,1,1,1h5v-2H3V4h26v20h-4v2h5c0.553,0,1-0.447,1-1V3C31,2.447,30.553,2,30,2z"
	/>
<path d="M9,30h14c0.373,0,0.715-0.207,0.887-0.538c0.173-0.331,0.146-0.729-0.067-1.035l-7-10c-0.375-0.535-1.264-0.535-1.639,0
	l-7,10c-0.214,0.306-0.24,0.704-0.067,1.035C8.285,29.793,8.627,30,9,30z"/>
</svg>
