<?xml version="1.0" encoding="utf-8"?>
<!-- Generator: Adobe Illustrator 19.2.1, SVG Export Plug-In . SVG Version: 6.00 Build 0)  -->
<!DOCTYPE svg PUBLIC "-//W3C//DTD SVG 1.1//EN" "http://www.w3.org/Graphics/SVG/1.1/DTD/svg11.dtd">
<svg version="1.1" id="Layer_1" xmlns="http://www.w3.org/2000/svg" xmlns:xlink="http://www.w3.org/1999/xlink" x="0px" y="0px"
	 width="32px" height="32px" viewBox="0 0 32 32" enable-background="new 0 0 32 32" xml:space="preserve">
<path d="M3,13h26c0.404,0,0.769-0.243,0.924-0.617s0.069-0.804-0.217-1.09l-10-10c-0.391-0.391-1.023-0.391-1.414,0
	s-0.391,1.023,0,1.414L26.586,11H3c-0.552,0-1,0.447-1,1S2.448,13,3,13z"/>
<path d="M30,20c0-0.553-0.448-1-1-1H3c-0.404,0-0.769,0.243-0.924,0.617s-0.069,0.804,0.217,1.09l10,10
	C12.488,30.902,12.744,31,13,31s0.512-0.098,0.707-0.293c0.391-0.391,0.391-1.023,0-1.414L5.414,21H29C29.552,21,30,20.553,30,20z"
	/>
</svg>
