<?xml version="1.0" encoding="utf-8"?>
<!-- Generator: Adobe Illustrator 19.2.1, SVG Export Plug-In . SVG Version: 6.00 Build 0)  -->
<!DOCTYPE svg PUBLIC "-//W3C//DTD SVG 1.1//EN" "http://www.w3.org/Graphics/SVG/1.1/DTD/svg11.dtd">
<svg version="1.1" id="Layer_1" xmlns="http://www.w3.org/2000/svg" xmlns:xlink="http://www.w3.org/1999/xlink" x="0px" y="0px"
	 width="32px" height="32px" viewBox="0 0 32 32" enable-background="new 0 0 32 32" xml:space="preserve">
<path d="M30,30c0-0.553-0.448-1-1-1H4v-7c0-0.553-0.448-1-1-1s-1,0.447-1,1v8c0,0.553,0.448,1,1,1h26C29.552,31,30,30.553,30,30z"/>
<path d="M13.413,1.09c-0.357-0.164-0.776-0.101-1.072,0.157l-8,7c-0.454,0.399-0.454,1.107,0,1.506l8,7
	c0.293,0.256,0.713,0.321,1.072,0.157C13.771,16.749,14,16.393,14,16v-6v0h7c2.757,0,5,2.243,5,5v8h2v-8c0-3.859-3.14-7-7-7h-7V2
	C14,1.608,13.771,1.252,13.413,1.09z"/>
</svg>
