<?xml version="1.0" encoding="utf-8"?>
<!-- Generator: Adobe Illustrator 19.2.1, SVG Export Plug-In . SVG Version: 6.00 Build 0)  -->
<!DOCTYPE svg PUBLIC "-//W3C//DTD SVG 1.1//EN" "http://www.w3.org/Graphics/SVG/1.1/DTD/svg11.dtd">
<svg version="1.1" id="Layer_1" xmlns="http://www.w3.org/2000/svg" xmlns:xlink="http://www.w3.org/1999/xlink" x="0px" y="0px"
	 width="32px" height="32px" viewBox="0 0 32 32" enable-background="new 0 0 32 32" xml:space="preserve">
<path d="M16,0C7.178,0,0,7.178,0,16s7.178,16,16,16s16-7.178,16-16S24.822,0,16,0z M23.707,14.707C23.512,14.902,23.256,15,23,15
	s-0.512-0.098-0.707-0.293L17,9.414V25c0,0.552-0.447,1-1,1s-1-0.448-1-1V9.414l-5.293,5.293c-0.391,0.391-1.023,0.391-1.414,0
	s-0.391-1.023,0-1.414l6.999-6.999c0.092-0.093,0.203-0.166,0.326-0.217c0.244-0.101,0.52-0.101,0.764,0
	c0.123,0.051,0.233,0.124,0.326,0.217l6.999,6.999C24.098,13.684,24.098,14.316,23.707,14.707z"/>
</svg>
