<?xml version="1.0" encoding="utf-8"?>
<!-- Generator: Adobe Illustrator 19.2.1, SVG Export Plug-In . SVG Version: 6.00 Build 0)  -->
<!DOCTYPE svg PUBLIC "-//W3C//DTD SVG 1.1//EN" "http://www.w3.org/Graphics/SVG/1.1/DTD/svg11.dtd">
<svg version="1.1" id="Layer_1" xmlns="http://www.w3.org/2000/svg" xmlns:xlink="http://www.w3.org/1999/xlink" x="0px" y="0px"
	 width="32px" height="32px" viewBox="0 0 32 32" enable-background="new 0 0 32 32" xml:space="preserve">
<path fill="#222221" d="M2,15v1c0,1.495,0.244,2.984,0.726,4.426l0.316,0.948l1.897-0.633l-0.317-0.949C4.209,18.555,4,17.279,4,16
	v-1H2z"/>
<path fill="#222221" d="M6.808,23.778l-1.414,1.414l0.707,0.708c1.014,1.014,2.17,1.862,3.437,2.522l0.887,0.461l0.924-1.774
	l-0.887-0.462c-1.086-0.565-2.077-1.292-2.946-2.162L6.808,23.778z"/>
<path fill="#222221" d="M16,28h-1v2h1c1.493,0,2.982-0.244,4.425-0.725l0.948-0.316l-0.632-1.897l-0.949,0.316
	C18.554,27.791,17.278,28,16,28z"/>
<path fill="#222221" d="M26.648,21.539c-0.565,1.085-1.294,2.076-2.163,2.946l-0.707,0.708l1.414,1.414l0.707-0.707
	c1.014-1.014,1.862-2.17,2.522-3.436l0.462-0.887l-1.772-0.925L26.648,21.539z"/>
<path fill="#222221" d="M16,2.024c-3.49,0-6.85,1.367-9.398,3.645L2.727,2L2,12.024l9.969-1.272L8.053,7.043
	c2.17-1.892,5.005-3.02,7.947-3.02c6.609,0,11.986,5.37,11.999,11.976h2C29.986,8.291,23.712,2.024,16,2.024z"/>
</svg>
