<?xml version="1.0" encoding="utf-8"?>
<!-- Generator: Adobe Illustrator 19.2.1, SVG Export Plug-In . SVG Version: 6.00 Build 0)  -->
<!DOCTYPE svg PUBLIC "-//W3C//DTD SVG 1.1//EN" "http://www.w3.org/Graphics/SVG/1.1/DTD/svg11.dtd">
<svg version="1.1" id="Layer_1" xmlns="http://www.w3.org/2000/svg" xmlns:xlink="http://www.w3.org/1999/xlink" x="0px" y="0px"
	 width="32px" height="32px" viewBox="0 0 32 32" enable-background="new 0 0 32 32" xml:space="preserve">
<path d="M2,16c0,0.294,0.129,0.573,0.354,0.764l13,11C15.538,27.919,15.768,28,16,28c0.143,0,0.286-0.03,0.421-0.093
	C16.774,27.743,17,27.39,17,27v-8.844l11.354,9.607C28.538,27.919,28.768,28,29,28c0.143,0,0.286-0.03,0.421-0.093
	C29.774,27.743,30,27.39,30,27V5c0-0.39-0.226-0.743-0.579-0.907c-0.354-0.164-0.77-0.106-1.067,0.144L17,13.844V5
	c0-0.39-0.226-0.743-0.579-0.907c-0.354-0.164-0.77-0.106-1.067,0.144l-13,11C2.129,15.427,2,15.706,2,16z"/>
</svg>
