<?xml version="1.0" encoding="utf-8"?>
<!-- Generator: Adobe Illustrator 19.2.1, SVG Export Plug-In . SVG Version: 6.00 Build 0)  -->
<!DOCTYPE svg PUBLIC "-//W3C//DTD SVG 1.1//EN" "http://www.w3.org/Graphics/SVG/1.1/DTD/svg11.dtd">
<svg version="1.1" id="Layer_1" xmlns="http://www.w3.org/2000/svg" xmlns:xlink="http://www.w3.org/1999/xlink" x="0px" y="0px"
	 width="32px" height="32px" viewBox="0 0 32 32" enable-background="new 0 0 32 32" xml:space="preserve">
<path d="M31,0H1C0.448,0,0,0.448,0,1v30c0,0.552,0.448,1,1,1h30c0.552,0,1-0.448,1-1V1C32,0.448,31.552,0,31,0z M23.707,18.707l-7,7
	c-0.092,0.092-0.203,0.165-0.325,0.216C16.26,25.973,16.13,26,16,26s-0.26-0.027-0.382-0.077c-0.122-0.051-0.233-0.124-0.325-0.216
	l-7-7c-0.391-0.391-0.391-1.023,0-1.414s1.023-0.391,1.414,0L15,22.586V7c0-0.552,0.448-1,1-1s1,0.448,1,1v15.586l5.293-5.293
	c0.391-0.391,1.023-0.391,1.414,0S24.098,18.316,23.707,18.707z"/>
</svg>
