<?xml version="1.0" encoding="utf-8"?>
<!-- Generator: Adobe Illustrator 19.2.1, SVG Export Plug-In . SVG Version: 6.00 Build 0)  -->
<!DOCTYPE svg PUBLIC "-//W3C//DTD SVG 1.1//EN" "http://www.w3.org/Graphics/SVG/1.1/DTD/svg11.dtd">
<svg version="1.1" id="Layer_1" xmlns="http://www.w3.org/2000/svg" xmlns:xlink="http://www.w3.org/1999/xlink" x="0px" y="0px"
	 width="32px" height="32px" viewBox="0 0 32 32" enable-background="new 0 0 32 32" xml:space="preserve">
<polygon fill="#222221" points="22,32 26.293,27.707 30.293,31.707 31.707,30.293 27.707,26.293 32,22 22,22 "/>
<polygon fill="#222221" points="0.293,30.293 1.707,31.707 5.707,27.707 10,32 10,22 0,22 4.293,26.293 "/>
<polygon fill="#222221" points="31.707,1.707 30.293,0.293 26.293,4.293 22,0 22,10 32,10 27.707,5.707 "/>
<polygon fill="#222221" points="10,10 10,0 5.707,4.293 1.707,0.293 0.293,1.707 4.293,5.707 0,10 "/>
<circle fill="#222221" cx="16" cy="16" r="6"/>
</svg>
