<?xml version="1.0" encoding="utf-8"?>
<!-- Generator: Adobe Illustrator 19.2.1, SVG Export Plug-In . SVG Version: 6.00 Build 0)  -->
<!DOCTYPE svg PUBLIC "-//W3C//DTD SVG 1.1//EN" "http://www.w3.org/Graphics/SVG/1.1/DTD/svg11.dtd">
<svg version="1.1" id="Layer_1" xmlns="http://www.w3.org/2000/svg" xmlns:xlink="http://www.w3.org/1999/xlink" x="0px" y="0px"
	 width="32px" height="32px" viewBox="0 0 32 32" enable-background="new 0 0 32 32" xml:space="preserve">
<polygon fill="#222221" points="16,11 9,20 15,20 15,32 17,32 17,20 23,20 "/>
<path fill="#222221" d="M31,0H1C0.448,0,0,0.448,0,1v24c0,0.552,0.448,1,1,1h7v-2H2V8h28v16h-6v2h7c0.552,0,1-0.448,1-1V1
	C32,0.448,31.552,0,31,0z M9,5H3V3h6V5z"/>
</svg>
