<?xml version="1.0" encoding="utf-8"?>
<!-- Generator: Adobe Illustrator 19.2.1, SVG Export Plug-In . SVG Version: 6.00 Build 0)  -->
<!DOCTYPE svg PUBLIC "-//W3C//DTD SVG 1.1//EN" "http://www.w3.org/Graphics/SVG/1.1/DTD/svg11.dtd">
<svg version="1.1" id="Layer_1" xmlns="http://www.w3.org/2000/svg" xmlns:xlink="http://www.w3.org/1999/xlink" x="0px" y="0px"
	 width="32px" height="32px" viewBox="0 0 32 32" enable-background="new 0 0 32 32" xml:space="preserve">
<path d="M2,17h16v7c0,0.376,0.211,0.72,0.546,0.891C18.689,24.964,18.845,25,19,25c0.208,0,0.414-0.064,0.588-0.191l11-8
	C30.847,16.621,31,16.32,31,16s-0.153-0.621-0.412-0.809l-11-8c-0.304-0.221-0.707-0.252-1.042-0.083C18.211,7.28,18,7.624,18,8v7H2
	c-0.552,0-1,0.448-1,1S1.448,17,2,17z"/>
</svg>
