<?xml version="1.0" encoding="utf-8"?>
<!-- Generator: Adobe Illustrator 19.2.1, SVG Export Plug-In . SVG Version: 6.00 Build 0)  -->
<!DOCTYPE svg PUBLIC "-//W3C//DTD SVG 1.1//EN" "http://www.w3.org/Graphics/SVG/1.1/DTD/svg11.dtd">
<svg version="1.1" id="Layer_1" xmlns="http://www.w3.org/2000/svg" xmlns:xlink="http://www.w3.org/1999/xlink" x="0px" y="0px"
	 width="32px" height="32px" viewBox="0 0 32 32" enable-background="new 0 0 32 32" xml:space="preserve">
<path d="M16,0C7.178,0,0,7.178,0,16s7.178,16,16,16s16-7.178,16-16S24.822,0,16,0z M23.707,18.707l-6.999,6.999
	c-0.092,0.093-0.203,0.166-0.326,0.217C16.26,25.973,16.13,26,16,26s-0.26-0.027-0.382-0.077c-0.123-0.051-0.233-0.124-0.326-0.217
	l-6.999-6.999c-0.391-0.391-0.391-1.023,0-1.414s1.023-0.391,1.414,0L15,22.586V7c0-0.552,0.447-1,1-1s1,0.448,1,1v15.586
	l5.293-5.293c0.391-0.391,1.023-0.391,1.414,0S24.098,18.316,23.707,18.707z"/>
</svg>
