<?xml version="1.0" encoding="utf-8"?>
<!-- Generator: Adobe Illustrator 19.1.0, SVG Export Plug-In . SVG Version: 6.00 Build 0)  -->
<!DOCTYPE svg PUBLIC "-//W3C//DTD SVG 1.1//EN" "http://www.w3.org/Graphics/SVG/1.1/DTD/svg11.dtd">
<svg version="1.1" id="Layer_1" xmlns="http://www.w3.org/2000/svg" xmlns:xlink="http://www.w3.org/1999/xlink" x="0px" y="0px"
	 width="48px" height="48px" viewBox="0 0 48 48" enable-background="new 0 0 48 48" xml:space="preserve">
<path d="M23,24.9V38c0,0.6,0.4,1,1,1s1-0.4,1-1V24.9c6.1-0.5,11-5.7,11-11.9c0-6.6-5.4-12-12-12S12,6.4,12,13
	C12,19.3,16.9,24.4,23,24.9z"/>
<path d="M44.9,45.6l-6-12C38.7,33.2,38.4,33,38,33H27v2h10.4l5,10H5.6l5-10H21v-2H10c-0.4,0-0.7,0.2-0.9,0.6l-6,12
	c-0.2,0.3-0.1,0.7,0,1C3.3,46.8,3.7,47,4,47h40c0.3,0,0.7-0.2,0.9-0.5C45,46.2,45,45.9,44.9,45.6z"/>
</svg>
