<?xml version="1.0" encoding="utf-8"?>
<!-- Generator: Adobe Illustrator 19.1.0, SVG Export Plug-In . SVG Version: 6.00 Build 0)  -->
<!DOCTYPE svg PUBLIC "-//W3C//DTD SVG 1.1//EN" "http://www.w3.org/Graphics/SVG/1.1/DTD/svg11.dtd">
<svg version="1.1" id="Layer_1" xmlns="http://www.w3.org/2000/svg" xmlns:xlink="http://www.w3.org/1999/xlink" x="0px" y="0px"
	 width="48px" height="48px" viewBox="0 0 48 48" enable-background="new 0 0 48 48" xml:space="preserve">
<path d="M24,1c-5.4,0-11,4.1-11,11c0,6.5,9.9,16.5,10.3,17c0.2,0.2,0.4,0.3,0.7,0.3s0.5-0.1,0.7-0.3C25.1,28.5,35,18.5,35,12
	C35,5.1,29.4,1,24,1z M24,15c-1.7,0-3-1.3-3-3s1.3-3,3-3s3,1.3,3,3S25.7,15,24,15z"/>
<path d="M46.6,9.2C46.4,9,46.1,9,45.8,9L37,11.2c0,0.3,0,0.5,0,0.8c0,0.4,0,0.9-0.1,1.3l8.1-2v27.9l-14,3.5v-18
	c-0.7,0.9-1.4,1.7-2,2.5v15.4l-10-3.3V27.2c-0.6-0.7-1.3-1.6-2-2.5v14.5L3,42.7V14.8l8-2c0-0.3,0-0.5,0-0.8c0-0.4,0-0.9,0.1-1.3
	L1.8,13C1.3,13.1,1,13.5,1,14v30c0,0.3,0.1,0.6,0.4,0.8C1.6,44.9,1.8,45,2,45c0.1,0,0.2,0,0.2,0L18,41l11.7,3.9c0.1,0,0.2,0,0.3,0
	c0,0,0,0,0,0c0,0,0,0,0,0c0.1,0,0.1,0,0.2,0l16-4c0.4-0.1,0.8-0.5,0.8-1V10C47,9.7,46.9,9.4,46.6,9.2z"/>
</svg>
