<?xml version="1.0" encoding="utf-8"?>
<!-- Generator: Adobe Illustrator 19.1.0, SVG Export Plug-In . SVG Version: 6.00 Build 0)  -->
<!DOCTYPE svg PUBLIC "-//W3C//DTD SVG 1.1//EN" "http://www.w3.org/Graphics/SVG/1.1/DTD/svg11.dtd">
<svg version="1.1" id="Layer_1" xmlns="http://www.w3.org/2000/svg" xmlns:xlink="http://www.w3.org/1999/xlink" x="0px" y="0px"
	 width="48px" height="48px" viewBox="0 0 48 48" enable-background="new 0 0 48 48" xml:space="preserve">
<polygon points="30,6.7 18,3.2 18,41.3 30,44.8 "/>
<path d="M46.6,3.2C46.4,3,46,3,45.7,3L32,6.7v38.1L46.3,41c0.4-0.1,0.7-0.5,0.7-1V4C47,3.7,46.9,3.4,46.6,3.2z"/>
<path d="M16,3.2L1.7,7C1.3,7.2,1,7.5,1,8v36c0,0.3,0.1,0.6,0.4,0.8C1.6,44.9,1.8,45,2,45c0.1,0,0.2,0,0.3,0L16,41.3V3.2z"/>
</svg>
