<?xml version="1.0" encoding="utf-8"?>
<!-- Generator: Adobe Illustrator 19.1.0, SVG Export Plug-In . SVG Version: 6.00 Build 0)  -->
<!DOCTYPE svg PUBLIC "-//W3C//DTD SVG 1.1//EN" "http://www.w3.org/Graphics/SVG/1.1/DTD/svg11.dtd">
<svg version="1.1" id="Layer_1" xmlns="http://www.w3.org/2000/svg" xmlns:xlink="http://www.w3.org/1999/xlink" x="0px" y="0px"
	 width="48px" height="48px" viewBox="0 0 48 48" enable-background="new 0 0 48 48" xml:space="preserve">
<path d="M44.4,13.4c-0.5,0.4-1.1,0.8-1.7,1c1.5,2.9,2.3,6.2,2.3,9.5c0,11.6-9.4,21-21,21S3,35.6,3,24S12.4,3,24,3
	c3.4,0,6.6,0.8,9.5,2.3c0.3-0.6,0.6-1.2,1-1.7C31.3,1.9,27.7,1,24,1C11.3,1,1,11.3,1,24s10.3,23,23,23s23-10.3,23-23
	C47,20.3,46.1,16.7,44.4,13.4z"/>
<path d="M40,13c2.8,0,5-2.2,5-5s-2.2-5-5-5s-5,2.2-5,5S37.2,13,40,13z"/>
<path d="M24,25c2.8,0,5-2.2,5-5v-2c0-2.8-2.2-5-5-5s-5,2.2-5,5v2C19,22.8,21.2,25,24,25z"/>
<path d="M15,32c0,0.6,0.4,1,1,1h16c0,0,0,0,0,0c0.6,0,1-0.4,1-1c0-0.1,0-0.2,0-0.2c-0.1-2.7-2.3-4.8-5-4.8h-8C17.2,27,15,29.2,15,32
	z"/>
</svg>
