<?xml version="1.0" encoding="utf-8"?>
<!-- Generator: Adobe Illustrator 19.1.0, SVG Export Plug-In . SVG Version: 6.00 Build 0)  -->
<!DOCTYPE svg PUBLIC "-//W3C//DTD SVG 1.1//EN" "http://www.w3.org/Graphics/SVG/1.1/DTD/svg11.dtd">
<svg version="1.1" id="Layer_1" xmlns="http://www.w3.org/2000/svg" xmlns:xlink="http://www.w3.org/1999/xlink" x="0px" y="0px"
	 width="48px" height="48px" viewBox="0 0 48 48" enable-background="new 0 0 48 48" xml:space="preserve">
<path d="M46.6,3.2C46.4,3,46.1,3,45.8,3L30,7L18.3,3.1C18.1,3,17.9,3,17.8,3l-16,4C1.3,7.1,1,7.5,1,8v36c0,0.3,0.1,0.6,0.4,0.8
	C1.6,44.9,1.8,45,2,45c0.1,0,0.2,0,0.2,0L18,41l11.7,3.9c0.2,0.1,0.4,0.1,0.6,0l16-4c0.4-0.1,0.8-0.5,0.8-1V4
	C47,3.7,46.9,3.4,46.6,3.2z M12,25h-2c-0.6,0-1-0.4-1-1s0.4-1,1-1h2c0.6,0,1,0.4,1,1S12.6,25,12,25z M22,25h-2c-0.6,0-1-0.4-1-1
	s0.4-1,1-1h2c0.6,0,1,0.4,1,1S22.6,25,22,25z M38.7,27.3c0.4,0.4,0.4,1,0,1.4C38.5,28.9,38.3,29,38,29s-0.5-0.1-0.7-0.3L34,25.4
	l-3.3,3.3C30.5,28.9,30.3,29,30,29s-0.5-0.1-0.7-0.3c-0.4-0.4-0.4-1,0-1.4l3.3-3.3l-3.3-3.3c-0.4-0.4-0.4-1,0-1.4s1-0.4,1.4,0
	l3.3,3.3l3.3-3.3c0.4-0.4,1-0.4,1.4,0s0.4,1,0,1.4L35.4,24L38.7,27.3z"/>
</svg>
