<?xml version="1.0" encoding="utf-8"?>
<!-- Generator: Adobe Illustrator 19.1.0, SVG Export Plug-In . SVG Version: 6.00 Build 0)  -->
<!DOCTYPE svg PUBLIC "-//W3C//DTD SVG 1.1//EN" "http://www.w3.org/Graphics/SVG/1.1/DTD/svg11.dtd">
<svg version="1.1" id="Layer_1" xmlns="http://www.w3.org/2000/svg" xmlns:xlink="http://www.w3.org/1999/xlink" x="0px" y="0px"
	 width="48px" height="48px" viewBox="0 0 48 48" enable-background="new 0 0 48 48" xml:space="preserve">
<path d="M46,21h-7.1c-0.5-7.8-7-14-14.9-14S9.6,13.2,9.1,21H2c-0.6,0-1,0.4-1,1s0.4,1,1,1h7.1c0.5,7.8,7,14,14.9,14
	s14.4-6.2,14.9-14H46c0.6,0,1-0.4,1-1S46.6,21,46,21z M30.7,18.7l-8,8C22.5,26.9,22.3,27,22,27s-0.5-0.1-0.7-0.3l-4-4
	c-0.4-0.4-0.4-1,0-1.4s1-0.4,1.4,0l3.3,3.3l7.3-7.3c0.4-0.4,1-0.4,1.4,0S31.1,18.3,30.7,18.7z"/>
</svg>
