<?xml version="1.0" encoding="utf-8"?>
<!-- Generator: Adobe Illustrator 19.1.0, SVG Export Plug-In . SVG Version: 6.00 Build 0)  -->
<!DOCTYPE svg PUBLIC "-//W3C//DTD SVG 1.1//EN" "http://www.w3.org/Graphics/SVG/1.1/DTD/svg11.dtd">
<svg version="1.1" id="Layer_1" xmlns="http://www.w3.org/2000/svg" xmlns:xlink="http://www.w3.org/1999/xlink" x="0px" y="0px"
	 width="48px" height="48px" viewBox="0 0 48 48" enable-background="new 0 0 48 48" xml:space="preserve">
<path d="M46.6,3.2C46.4,3,46.1,3,45.8,3L30,7L18.3,3.1c-0.1,0-0.2,0-0.3,0c0,0,0,0,0,0c0,0,0,0,0,0c-0.1,0-0.1,0-0.2,0l-16,4
	C1.3,7.1,1,7.5,1,8v30c0,0.3,0.1,0.6,0.4,0.8C1.6,38.9,1.8,39,2,39c0.1,0,0.2,0,0.2,0l12.9-3.2l-0.5-1.9L3,36.7V8.8l14-3.5v12.4
	l2,0.5V5.4l10,3.3V21l2,0.5V8.8l14-3.5v27.9L30,37l-2.9-1l-1.1,1.8l3.6,1.2c0.2,0.1,0.4,0.1,0.6,0l16-4c0.4-0.1,0.8-0.5,0.8-1V4
	C47,3.7,46.9,3.4,46.6,3.2z"/>
<path d="M36.3,25l-22-6c-0.3-0.1-0.7,0-1,0.3c-0.3,0.3-0.4,0.6-0.3,1l6,22c0.1,0.4,0.4,0.7,0.8,0.7c0,0,0.1,0,0.1,0
	c0.3,0,0.7-0.2,0.9-0.5l5.9-9.8l9.8-5.9c0.3-0.2,0.5-0.6,0.5-1S36.6,25.1,36.3,25z"/>
</svg>
