<?xml version="1.0" encoding="utf-8"?>
<!-- Generator: Adobe Illustrator 19.1.0, SVG Export Plug-In . SVG Version: 6.00 Build 0)  -->
<!DOCTYPE svg PUBLIC "-//W3C//DTD SVG 1.1//EN" "http://www.w3.org/Graphics/SVG/1.1/DTD/svg11.dtd">
<svg version="1.1" id="Layer_1" xmlns="http://www.w3.org/2000/svg" xmlns:xlink="http://www.w3.org/1999/xlink" x="0px" y="0px"
	 width="48px" height="48px" viewBox="0 0 48 48" enable-background="new 0 0 48 48" xml:space="preserve">
<path d="M42.8,16.6c-0.4,0.6-0.9,1.1-1.5,1.6c1.1,2.4,1.7,5.1,1.7,7.8c0,3.4-0.9,6.5-2.4,9.2c-0.1-0.3-0.3-0.5-0.5-0.7
	c-1-1.1-2.5-1.7-3.6-1.4c-3.1,0.9-4.7-0.7-6.2-2.2c-1.2-1.2-2.6-2.6-4.6-1.8c-2.8,1.1-4.7,3.8-5.3,7.4c-0.5,3.1,0.1,6.2,1.4,8.4
	c-4.1-0.5-7.8-2.3-10.7-5c0.2-0.2,0.3-0.4,0.4-0.6c1.7-2.8,1.7-5.8,0-8.3c-0.5-0.7-1-1.3-1.6-1.9C9,27.9,8,26.7,8,26
	c0-0.6,1.6-1.4,2.8-2c1.5-0.7,3.2-1.6,4.2-2.9c2.2-2.9-0.4-7.5-0.9-8.4c-0.5-0.8-0.9-1.4-1.4-2c3-2.2,6.7-3.6,10.7-3.7
	c0.2-0.7,0.5-1.4,0.8-2c-0.1,0-0.1,0-0.2,0C12.4,5,3,14.4,3,26s9.4,21,21,21s21-9.4,21-21C45,22.7,44.2,19.5,42.8,16.6z"/>
<path d="M33,18.9V24c0,0.6,0.4,1,1,1s1-0.4,1-1v-5.1c4.5-0.5,8-4.3,8-8.9c0-5-4-9-9-9s-9,4-9,9C25,14.6,28.5,18.4,33,18.9z"/>
</svg>
