<?xml version="1.0" encoding="utf-8"?>
<!-- Generator: Adobe Illustrator 19.1.0, SVG Export Plug-In . SVG Version: 6.00 Build 0)  -->
<!DOCTYPE svg PUBLIC "-//W3C//DTD SVG 1.1//EN" "http://www.w3.org/Graphics/SVG/1.1/DTD/svg11.dtd">
<svg version="1.1" id="Layer_1" xmlns="http://www.w3.org/2000/svg" xmlns:xlink="http://www.w3.org/1999/xlink" x="0px" y="0px"
	 width="48px" height="48px" viewBox="0 0 48 48" enable-background="new 0 0 48 48" xml:space="preserve">
<path d="M32.4,33.7c-0.5,0.6-1,1.2-1.4,1.8c6.3,0.9,10,2.9,10,4.5c0,2.1-6.5,5-17,5S7,42.1,7,40c0-1.6,3.8-3.6,10-4.5
	c-0.5-0.6-1-1.2-1.4-1.8C10.1,34.6,5,36.7,5,40c0,4.5,9.8,7,19,7s19-2.5,19-7C43,36.7,37.9,34.6,32.4,33.7z"/>
<path d="M24,1C16.6,1,9,6.6,9,16c0,8.9,13.7,22.9,14.3,23.5c0.2,0.2,0.4,0.3,0.7,0.3s0.5-0.1,0.7-0.3C25.3,38.9,39,24.9,39,16
	C39,6.6,31.4,1,24,1z M24,21c-2.8,0-5-2.2-5-5s2.2-5,5-5s5,2.2,5,5S26.8,21,24,21z"/>
</svg>
