<?xml version="1.0" encoding="utf-8"?>
<!-- Generator: Adobe Illustrator 19.1.0, SVG Export Plug-In . SVG Version: 6.00 Build 0)  -->
<!DOCTYPE svg PUBLIC "-//W3C//DTD SVG 1.1//EN" "http://www.w3.org/Graphics/SVG/1.1/DTD/svg11.dtd">
<svg version="1.1" id="Layer_1" xmlns="http://www.w3.org/2000/svg" xmlns:xlink="http://www.w3.org/1999/xlink" x="0px" y="0px"
	 width="48px" height="48px" viewBox="0 0 48 48" enable-background="new 0 0 48 48" xml:space="preserve">
<path d="M40.3,40.2C44.4,36.1,47,30.3,47,24s-2.6-12.1-6.7-16.2c0,0,0,0,0,0s0,0,0,0C36.1,3.6,30.3,1,24,1C11.3,1,1,11.3,1,24
	s10.3,23,23,23C30.3,47,36.1,44.4,40.3,40.2C40.2,40.3,40.2,40.3,40.3,40.2C40.3,40.2,40.3,40.2,40.3,40.2z M25.3,21.3
	C24.9,21.1,24.5,21,24,21c-1.7,0-3,1.3-3,3s1.3,3,3,3c0.5,0,0.9-0.1,1.3-0.3l5.8,5.8c-2,1.6-4.4,2.5-7,2.5c-6.1,0-11-4.9-11-11
	s4.9-11,11-11c2.6,0,5.1,0.9,7,2.5L25.3,21.3z M3,24C3,12.4,12.4,3,24,3c5.4,0,10.4,2.1,14.1,5.5l-5.7,5.7c-2.4-2-5.3-3.1-8.5-3.1
	c-7.2,0-13,5.8-13,13s5.8,13,13,13c3.1,0,6.1-1.1,8.5-3.1l5.7,5.7C34.4,42.9,29.4,45,24,45C12.4,45,3,35.6,3,24z"/>
</svg>
