<?xml version="1.0" encoding="utf-8"?>
<!-- Generator: Adobe Illustrator 19.1.0, SVG Export Plug-In . SVG Version: 6.00 Build 0)  -->
<!DOCTYPE svg PUBLIC "-//W3C//DTD SVG 1.1//EN" "http://www.w3.org/Graphics/SVG/1.1/DTD/svg11.dtd">
<svg version="1.1" id="Layer_1" xmlns="http://www.w3.org/2000/svg" xmlns:xlink="http://www.w3.org/1999/xlink" x="0px" y="0px"
	 width="48px" height="48px" viewBox="0 0 48 48" enable-background="new 0 0 48 48" xml:space="preserve">
<polygon points="28.2,28.2 32.4,15.6 19.8,19.8 "/>
<path d="M24,1C11.3,1,1,11.3,1,24s10.3,23,23,23s23-10.3,23-23S36.7,1,24,1z M34.9,14.3l-5,15c-0.1,0.3-0.3,0.5-0.6,0.6l-15,5
	C14.2,35,14.1,35,14,35c-0.3,0-0.5-0.1-0.7-0.3c-0.3-0.3-0.4-0.7-0.2-1l5-15c0.1-0.3,0.3-0.5,0.6-0.6l15-5c0.4-0.1,0.8,0,1,0.2
	C35,13.6,35.1,14,34.9,14.3z"/>
</svg>
