<?xml version="1.0" encoding="utf-8"?>
<!-- Generator: Adobe Illustrator 19.1.0, SVG Export Plug-In . SVG Version: 6.00 Build 0)  -->
<!DOCTYPE svg PUBLIC "-//W3C//DTD SVG 1.1//EN" "http://www.w3.org/Graphics/SVG/1.1/DTD/svg11.dtd">
<svg version="1.1" id="Layer_1" xmlns="http://www.w3.org/2000/svg" xmlns:xlink="http://www.w3.org/1999/xlink" x="0px" y="0px"
	 width="48px" height="48px" viewBox="0 0 48 48" enable-background="new 0 0 48 48" xml:space="preserve">
<polygon points="27.5,27.5 30.9,17.1 20.5,20.5 "/>
<path d="M24,1C11.3,1,1,11.3,1,24s10.3,23,23,23s23-10.3,23-23S36.7,1,24,1z M23,5c0-0.6,0.4-1,1-1s1,0.4,1,1v4c0,0.6-0.4,1-1,1
	s-1-0.4-1-1V5z M9,25H5c-0.6,0-1-0.4-1-1s0.4-1,1-1h4c0.6,0,1,0.4,1,1S9.6,25,9,25z M25,43c0,0.6-0.4,1-1,1s-1-0.4-1-1v-4
	c0-0.6,0.4-1,1-1s1,0.4,1,1V43z M33.4,15.8l-4.2,12.7c-0.1,0.3-0.3,0.5-0.6,0.6l-12.7,4.2c-0.1,0-0.2,0.1-0.3,0.1
	c-0.3,0-0.5-0.1-0.7-0.3c-0.3-0.3-0.4-0.7-0.2-1l4.2-12.7c0.1-0.3,0.3-0.5,0.6-0.6l12.7-4.2c0.4-0.1,0.8,0,1,0.2
	C33.5,15.1,33.6,15.5,33.4,15.8z M43,25h-4c-0.6,0-1-0.4-1-1s0.4-1,1-1h4c0.6,0,1,0.4,1,1S43.6,25,43,25z"/>
</svg>
