<?xml version="1.0" encoding="utf-8"?>
<!-- Generator: Adobe Illustrator 19.1.0, SVG Export Plug-In . SVG Version: 6.00 Build 0)  -->
<!DOCTYPE svg PUBLIC "-//W3C//DTD SVG 1.1//EN" "http://www.w3.org/Graphics/SVG/1.1/DTD/svg11.dtd">
<svg version="1.1" id="Layer_1" xmlns="http://www.w3.org/2000/svg" xmlns:xlink="http://www.w3.org/1999/xlink" x="0px" y="0px"
	 width="48px" height="48px" viewBox="0 0 48 48" enable-background="new 0 0 48 48" xml:space="preserve">
<path d="M24,39.8c0.3,0,0.5-0.1,0.7-0.3C25.3,38.9,39,24.9,39,16c0-9.4-7.6-15-15-15S9,6.6,9,16c0,8.9,13.7,22.9,14.3,23.5
	C23.5,39.6,23.7,39.8,24,39.8z M19,16c0-2.8,2.2-5,5-5s5,2.2,5,5s-2.2,5-5,5S19,18.8,19,16z"/>
<path d="M38.9,33.6C38.7,33.2,38.4,33,38,33h-5c-0.5,0.7-1.1,1.4-1.6,2h6l5,10H5.6l5-10h6c-0.5-0.6-1.1-1.3-1.6-2h-5
	c-0.4,0-0.7,0.2-0.9,0.6l-6,12c-0.2,0.3-0.1,0.7,0,1C3.3,46.8,3.7,47,4,47h40c0.3,0,0.7-0.2,0.9-0.5c0.2-0.3,0.2-0.7,0-1L38.9,33.6z
	"/>
</svg>
