<?xml version="1.0" encoding="utf-8"?>
<!-- Generator: Adobe Illustrator 19.1.0, SVG Export Plug-In . SVG Version: 6.00 Build 0)  -->
<!DOCTYPE svg PUBLIC "-//W3C//DTD SVG 1.1//EN" "http://www.w3.org/Graphics/SVG/1.1/DTD/svg11.dtd">
<svg version="1.1" id="Layer_1" xmlns="http://www.w3.org/2000/svg" xmlns:xlink="http://www.w3.org/1999/xlink" x="0px" y="0px"
	 width="48px" height="48px" viewBox="0 0 48 48" enable-background="new 0 0 48 48" xml:space="preserve">
<path d="M18,1C9.6,1,1,7.4,1,18c0,10.2,15.6,26,16.3,26.7c0.2,0.2,0.4,0.3,0.7,0.3s0.5-0.1,0.7-0.3C19.4,44,35,28.2,35,18
	C35,7.4,26.4,1,18,1z M18,24c-3.3,0-6-2.7-6-6s2.7-6,6-6s6,2.7,6,6S21.3,24,18,24z"/>
<path d="M32,1c-1.4,0-2.9,0.2-4.3,0.6C33,4.7,37,10.4,37,18c0,5.6-4.1,12.5-8.3,18.1c1.5,1.6,2.5,2.6,2.6,2.6
	c0.2,0.2,0.4,0.3,0.7,0.3s0.5-0.1,0.7-0.3C33.3,38.2,47,25,47,16C47,6.6,39.4,1,32,1z"/>
</svg>
