<?xml version="1.0" encoding="utf-8"?>
<!-- Generator: Adobe Illustrator 19.1.0, SVG Export Plug-In . SVG Version: 6.00 Build 0)  -->
<!DOCTYPE svg PUBLIC "-//W3C//DTD SVG 1.1//EN" "http://www.w3.org/Graphics/SVG/1.1/DTD/svg11.dtd">
<svg version="1.1" id="Layer_1" xmlns="http://www.w3.org/2000/svg" xmlns:xlink="http://www.w3.org/1999/xlink" x="0px" y="0px"
	 width="48px" height="48px" viewBox="0 0 48 48" enable-background="new 0 0 48 48" xml:space="preserve">
<path d="M46.6,9.2C46.4,9,46.1,9,45.8,9l-10.9,2.7c-0.1,0.8-0.3,1.5-0.6,2.2L45,11.3v27.9l-14,3.5V18.5c-0.6,0.5-1.3,0.9-2,1.3v22.8
	l-10-3.3V19.8c-0.7-0.4-1.4-0.8-2-1.3v20.7L3,42.7V14.8l10.2-2.6c-0.1-0.6-0.2-1.3-0.2-2L1.8,13C1.3,13.1,1,13.5,1,14v30
	c0,0.3,0.1,0.6,0.4,0.8C1.6,44.9,1.8,45,2,45c0.1,0,0.2,0,0.2,0L18,41l11.7,3.9c0.1,0,0.2,0,0.3,0c0,0,0,0,0,0c0,0,0,0,0,0
	c0.1,0,0.1,0,0.2,0l16-4c0.4-0.1,0.8-0.5,0.8-1V10C47,9.7,46.9,9.4,46.6,9.2z"/>
<path d="M23,18.9V28c0,0.6,0.4,1,1,1s1-0.4,1-1v-9.1c4.5-0.5,8-4.3,8-8.9c0-5-4-9-9-9s-9,4-9,9C15,14.6,18.5,18.4,23,18.9z"/>
</svg>
