<?xml version="1.0" encoding="utf-8"?>
<!-- Generator: Adobe Illustrator 19.1.0, SVG Export Plug-In . SVG Version: 6.00 Build 0)  -->
<!DOCTYPE svg PUBLIC "-//W3C//DTD SVG 1.1//EN" "http://www.w3.org/Graphics/SVG/1.1/DTD/svg11.dtd">
<svg version="1.1" id="Layer_1" xmlns="http://www.w3.org/2000/svg" xmlns:xlink="http://www.w3.org/1999/xlink" x="0px" y="0px"
	 width="48px" height="48px" viewBox="0 0 48 48" enable-background="new 0 0 48 48" xml:space="preserve">
<path d="M27,33.1v2c8.7,0.5,14,3,14,4.9c0,2.1-6.5,5-17,5S7,42.1,7,40c0-1.9,5.3-4.4,14-4.9v-2C12.8,33.6,5,35.9,5,40
	c0,4.5,9.8,7,19,7s19-2.5,19-7C43,35.9,35.2,33.6,27,33.1z"/>
<path d="M36,13c0-6.6-5.4-12-12-12S12,6.4,12,13c0,6.3,4.9,11.4,11,11.9V38c0,0.6,0.4,1,1,1s1-0.4,1-1V24.9C31.1,24.4,36,19.3,36,13
	z"/>
</svg>
