<?xml version="1.0" encoding="utf-8"?>
<!-- Generator: Adobe Illustrator 19.1.0, SVG Export Plug-In . SVG Version: 6.00 Build 0)  -->
<!DOCTYPE svg PUBLIC "-//W3C//DTD SVG 1.1//EN" "http://www.w3.org/Graphics/SVG/1.1/DTD/svg11.dtd">
<svg version="1.1" id="Layer_1" xmlns="http://www.w3.org/2000/svg" xmlns:xlink="http://www.w3.org/1999/xlink" x="0px" y="0px"
	 width="48px" height="48px" viewBox="0 0 48 48" enable-background="new 0 0 48 48" xml:space="preserve">
<path d="M41.4,18.4c1,2.4,1.6,5,1.6,7.6c0,3.4-0.9,6.5-2.4,9.2c-0.1-0.3-0.3-0.5-0.5-0.7c-1-1.1-2.5-1.7-3.6-1.4
	c-3.1,0.9-4.7-0.7-6.2-2.2c-1.2-1.2-2.6-2.6-4.6-1.8c-2.8,1.1-4.7,3.8-5.3,7.4c-0.5,3.1,0.1,6.2,1.4,8.4c-4.1-0.5-7.8-2.3-10.7-5
	c0.2-0.2,0.3-0.4,0.4-0.6c1.7-2.8,1.7-5.8,0-8.3c-0.5-0.7-1-1.3-1.6-1.9C9,27.9,8,26.7,8,26c0-0.6,1.6-1.4,2.8-2
	c1.5-0.7,3.2-1.6,4.2-2.9c2.2-2.9-0.4-7.5-0.9-8.4c-0.5-0.8-0.9-1.4-1.4-2c3-2.2,6.7-3.6,10.6-3.7c0.2-0.7,0.4-1.4,0.8-2
	c0,0-0.1,0-0.1,0C12.4,5,3,14.4,3,26s9.4,21,21,21s21-9.4,21-21c0-3.3-0.8-6.6-2.3-9.5C42.3,17.2,41.9,17.8,41.4,18.4z"/>
<path d="M34,1c-4.4,0-9,3.4-9,9c0,5.3,8,12.4,8.3,12.7c0.2,0.2,0.4,0.3,0.7,0.3s0.5-0.1,0.7-0.3C35,22.4,43,15.3,43,10
	C43,4.4,38.4,1,34,1z M34,13c-1.7,0-3-1.3-3-3s1.3-3,3-3s3,1.3,3,3S35.7,13,34,13z"/>
</svg>
