<?xml version="1.0" encoding="utf-8"?>
<!-- Generator: Adobe Illustrator 19.1.0, SVG Export Plug-In . SVG Version: 6.00 Build 0)  -->
<!DOCTYPE svg PUBLIC "-//W3C//DTD SVG 1.1//EN" "http://www.w3.org/Graphics/SVG/1.1/DTD/svg11.dtd">
<svg version="1.1" id="Layer_1" xmlns="http://www.w3.org/2000/svg" xmlns:xlink="http://www.w3.org/1999/xlink" x="0px" y="0px"
	 width="48px" height="48px" viewBox="0 0 48 48" enable-background="new 0 0 48 48" xml:space="preserve">
<path d="M24,1c-7.2,0-13,5.8-13,13s5.8,13,13,13s13-5.8,13-13S31.2,1,24,1z"/>
<path d="M35,45h-8V28.7c-1,0.2-2,0.3-3,0.3s-2-0.1-3-0.3V45h-8c-0.6,0-1,0.4-1,1s0.4,1,1,1h9h4h9c0.6,0,1-0.4,1-1S35.6,45,35,45z"/>
</svg>
