<?xml version="1.0" encoding="utf-8"?>
<!-- Generator: Adobe Illustrator 19.1.0, SVG Export Plug-In . SVG Version: 6.00 Build 0)  -->
<!DOCTYPE svg PUBLIC "-//W3C//DTD SVG 1.1//EN" "http://www.w3.org/Graphics/SVG/1.1/DTD/svg11.dtd">
<svg version="1.1" id="Layer_1" xmlns="http://www.w3.org/2000/svg" xmlns:xlink="http://www.w3.org/1999/xlink" x="0px" y="0px"
	 width="48px" height="48px" viewBox="0 0 48 48" enable-background="new 0 0 48 48" xml:space="preserve">
<path d="M5.4,11.1c-0.3-0.5-0.9-0.6-1.4-0.4c-0.5,0.3-0.6,0.9-0.4,1.4l19,32.9c0.2,0.3,0.5,0.5,0.9,0.5c0.2,0,0.3,0,0.5-0.1
	c0.5-0.3,0.6-0.9,0.4-1.4L5.4,11.1z"/>
<path d="M41.7,9c-0.7,0.2-1.5,0.3-2.5,0.3c-2.4,0-5.1-0.7-7.9-1.4c-3.2-0.8-6.5-1.6-9.7-1.6c-4.5,0-8,1.6-10.7,5
	c-0.3,0.3-0.3,0.8-0.1,1.1l9,15.6c0.2,0.3,0.5,0.5,0.9,0.5c0,0,0,0,0,0c0.4,0,0.7-0.2,0.9-0.5c2.4-4.3,5.7-5.5,9.2-6.8
	c4.2-1.6,9-3.4,12.1-10.9c0.1-0.4,0.1-0.8-0.2-1.1C42.5,9,42.1,8.9,41.7,9z"/>
</svg>
