<?xml version="1.0" encoding="utf-8"?>
<!-- Generator: Adobe Illustrator 19.1.0, SVG Export Plug-In . SVG Version: 6.00 Build 0)  -->
<!DOCTYPE svg PUBLIC "-//W3C//DTD SVG 1.1//EN" "http://www.w3.org/Graphics/SVG/1.1/DTD/svg11.dtd">
<svg version="1.1" id="Layer_1" xmlns="http://www.w3.org/2000/svg" xmlns:xlink="http://www.w3.org/1999/xlink" x="0px" y="0px"
	 width="48px" height="48px" viewBox="0 0 48 48" enable-background="new 0 0 48 48" xml:space="preserve">
<path d="M24,11c-7.2,0-13,5.8-13,13s5.8,13,13,13s13-5.8,13-13S31.2,11,24,11z M24,35c-6.1,0-11-4.9-11-11s4.9-11,11-11
	s11,4.9,11,11S30.1,35,24,35z"/>
<circle cx="24" cy="24" r="3"/>
<path d="M44.4,13.4c-0.5,0.4-1.1,0.8-1.7,1c1.5,2.9,2.3,6.2,2.3,9.5c0,11.6-9.4,21-21,21S3,35.6,3,24S12.4,3,24,3
	c3.4,0,6.6,0.8,9.5,2.3c0.3-0.6,0.6-1.2,1-1.7C31.3,1.9,27.7,1,24,1C11.3,1,1,11.3,1,24s10.3,23,23,23s23-10.3,23-23
	C47,20.3,46.1,16.7,44.4,13.4z"/>
<path d="M40,13c2.8,0,5-2.2,5-5s-2.2-5-5-5s-5,2.2-5,5S37.2,13,40,13z"/>
</svg>
