<?xml version="1.0" encoding="utf-8"?>
<!-- Generator: Adobe Illustrator 19.1.0, SVG Export Plug-In . SVG Version: 6.00 Build 0)  -->
<!DOCTYPE svg PUBLIC "-//W3C//DTD SVG 1.1//EN" "http://www.w3.org/Graphics/SVG/1.1/DTD/svg11.dtd">
<svg version="1.1" id="Layer_1" xmlns="http://www.w3.org/2000/svg" xmlns:xlink="http://www.w3.org/1999/xlink" x="0px" y="0px"
	 width="48px" height="48px" viewBox="0 0 48 48" enable-background="new 0 0 48 48" xml:space="preserve">
<path d="M12,36h24c0.6,0,1-0.4,1-1v-7c0-3.9-3.1-7-7-7H18c-3.9,0-7,3.1-7,7v7C11,35.6,11.4,36,12,36z"/>
<path d="M39,30.1v2.1c3.7,1.3,6,3.1,6,4.8c0,3.3-8.6,7-21,7S3,40.3,3,37c0-1.7,2.3-3.5,6-4.8v-2.1c-5.1,1.7-8,4.1-8,6.9
	c0,4.4,8.1,9,23,9s23-4.6,23-9C47,34.2,44.1,31.8,39,30.1z"/>
<path d="M24,18c3.9,0,7-3.1,7-7V9c0-3.9-3.1-7-7-7s-7,3.1-7,7v2C17,14.9,20.1,18,24,18z"/>
</svg>
