<?xml version="1.0" encoding="utf-8"?>
<!-- Generator: Adobe Illustrator 20.1.0, SVG Export Plug-In . SVG Version: 6.00 Build 0)  -->
<!DOCTYPE svg PUBLIC "-//W3C//DTD SVG 1.1//EN" "http://www.w3.org/Graphics/SVG/1.1/DTD/svg11.dtd">
<svg version="1.1" id="Layer_1" xmlns="http://www.w3.org/2000/svg" xmlns:xlink="http://www.w3.org/1999/xlink" x="0px" y="0px"
	 width="64px" height="64px" viewBox="0 0 64 64" enable-background="new 0 0 64 64" xml:space="preserve">
<path d="M52.448,51.034C54.039,49.125,55,46.673,55,44c0-6.065-4.935-11-11-11s-11,4.935-11,11s4.935,11,11,11
	c2.673,0,5.125-0.961,7.034-2.552l8.259,8.259C59.488,60.902,59.744,61,60,61s0.512-0.098,0.707-0.293
	c0.391-0.391,0.391-1.023,0-1.414L52.448,51.034z M35,44c0-4.963,4.037-9,9-9s9,4.037,9,9s-4.037,9-9,9S35,48.963,35,44z"/>
<path d="M56,32c0.553,0,1-0.447,1-1V9c0-2.757-2.243-5-5-5H12C9.243,4,7,6.243,7,9v28c0,0.553,0.447,1,1,1s1-0.447,1-1V9
	c0-1.654,1.346-3,3-3h40c1.654,0,3,1.346,3,3v22C55,31.553,55.447,32,56,32z"/>
<path d="M35,11c0-0.553-0.447-1-1-1h-4c-0.553,0-1,0.447-1,1s0.447,1,1,1h4C34.553,12,35,11.553,35,11z"/>
<path d="M28,43c0-0.553-0.447-1-1-1H2c-0.553,0-1,0.447-1,1c0,4.963,4.037,9,9,9h17c0.553,0,1-0.447,1-1s-0.447-1-1-1H10
	c-3.521,0-6.442-2.612-6.929-6H27C27.553,44,28,43.553,28,43z"/>
</svg>
