<?xml version="1.0" encoding="utf-8"?>
<!-- Generator: Adobe Illustrator 20.1.0, SVG Export Plug-In . SVG Version: 6.00 Build 0)  -->
<!DOCTYPE svg PUBLIC "-//W3C//DTD SVG 1.1//EN" "http://www.w3.org/Graphics/SVG/1.1/DTD/svg11.dtd">
<svg version="1.1" id="Layer_1" xmlns="http://www.w3.org/2000/svg" xmlns:xlink="http://www.w3.org/1999/xlink" x="0px" y="0px"
	 width="64px" height="64px" viewBox="0 0 64 64" enable-background="new 0 0 64 64" xml:space="preserve">
<path d="M6,63h24c2.757,0,5-2.243,5-5V16c0-2.757-2.243-5-5-5H6c-2.757,0-5,2.243-5,5v42C1,60.757,3.243,63,6,63z M33,49H3V21h30V49
	z M30,61H6c-1.654,0-3-1.346-3-3v-7h30v7C33,59.654,31.654,61,30,61z M6,13h24c1.654,0,3,1.346,3,3v3H3v-3C3,14.346,4.346,13,6,13z"
	/>
<path d="M62,33h-1v-5c0-4.624-3.507-8.442-8-8.941V2c0-0.552-0.447-1-1-1H18c-0.553,0-1,0.448-1,1v4.001c0,0.552,0.447,1,1,1
	s1-0.448,1-1V3h32v16.059c-4.493,0.5-8,4.317-8,8.941v5h-1c-0.553,0-1,0.448-1,1s0.447,1,1,1h3v5c0,0.552,0.447,1,1,1s1-0.448,1-1
	v-5h10v5c0,0.552,0.447,1,1,1s1-0.448,1-1v-5h3c0.553,0,1-0.448,1-1S62.553,33,62,33z M45,28c0-3.86,3.141-7,7-7s7,3.14,7,7v5H45V28
	z"/>
</svg>
