<?xml version="1.0" encoding="utf-8"?>
<!-- Generator: Adobe Illustrator 20.1.0, SVG Export Plug-In . SVG Version: 6.00 Build 0)  -->
<!DOCTYPE svg PUBLIC "-//W3C//DTD SVG 1.1//EN" "http://www.w3.org/Graphics/SVG/1.1/DTD/svg11.dtd">
<svg version="1.1" id="Layer_1" xmlns="http://www.w3.org/2000/svg" xmlns:xlink="http://www.w3.org/1999/xlink" x="0px" y="0px"
	 width="64px" height="64px" viewBox="0 0 64 64" enable-background="new 0 0 64 64" xml:space="preserve">
<path d="M30,9h4c0.553,0,1-0.448,1-1s-0.447-1-1-1h-4c-0.553,0-1,0.448-1,1S29.447,9,30,9z"/>
<path d="M15,63h34c2.757,0,5-2.243,5-5V6c0-2.757-2.243-5-5-5H15c-2.757,0-5,2.243-5,5v52C10,60.757,12.243,63,15,63z M52,45H12V15
	h40V45z M49,61H15c-1.654,0-3-1.346-3-3V47h40v11C52,59.654,50.654,61,49,61z M15,3h34c1.654,0,3,1.346,3,3v7H12V6
	C12,4.346,13.346,3,15,3z"/>
</svg>
