<?xml version="1.0" encoding="utf-8"?>
<!-- Generator: Adobe Illustrator 20.1.0, SVG Export Plug-In . SVG Version: 6.00 Build 0)  -->
<!DOCTYPE svg PUBLIC "-//W3C//DTD SVG 1.1//EN" "http://www.w3.org/Graphics/SVG/1.1/DTD/svg11.dtd">
<svg version="1.1" id="Layer_1" xmlns="http://www.w3.org/2000/svg" xmlns:xlink="http://www.w3.org/1999/xlink" x="0px" y="0px"
	 width="64px" height="64px" viewBox="0 0 64 64" enable-background="new 0 0 64 64" xml:space="preserve">
<path d="M62,15H16.236L40.447,2.895c0.494-0.247,0.694-0.848,0.447-1.342c-0.247-0.494-0.847-0.695-1.342-0.447L11.764,15H2
	c-0.552,0-1,0.448-1,1v46c0,0.552,0.448,1,1,1h60c0.552,0,1-0.448,1-1V16C63,15.448,62.552,15,62,15z M61,61H3V17h58V61z"/>
<path d="M32,36.006c-3.909,0-7.585,1.522-10.35,4.287c-0.391,0.39-0.391,1.023,0,1.414s1.023,0.391,1.414,0
	c2.387-2.386,5.561-3.701,8.936-3.701s6.548,1.314,8.936,3.701C41.131,41.902,41.387,42,41.643,42s0.512-0.098,0.707-0.293
	c0.391-0.391,0.391-1.024,0-1.414C39.585,37.528,35.909,36.006,32,36.006z"/>
<path d="M15.351,34.896C19.798,30.449,25.711,28,32,28c6.289,0,12.202,2.449,16.649,6.896c0.195,0.195,0.451,0.293,0.707,0.293
	s0.512-0.098,0.707-0.293c0.391-0.391,0.391-1.023,0-1.414C45.238,28.657,38.823,26,32,26c-6.823,0-13.238,2.657-18.063,7.482
	c-0.391,0.391-0.391,1.023,0,1.414S14.96,35.287,15.351,34.896z"/>
<path d="M32,46c-2.206,0-4,1.794-4,4s1.794,4,4,4s4-1.794,4-4S34.206,46,32,46z M32,52c-1.103,0-2-0.897-2-2s0.897-2,2-2
	s2,0.897,2,2S33.103,52,32,52z"/>
</svg>
