<?xml version="1.0" encoding="utf-8"?>
<!-- Generator: Adobe Illustrator 20.1.0, SVG Export Plug-In . SVG Version: 6.00 Build 0)  -->
<!DOCTYPE svg PUBLIC "-//W3C//DTD SVG 1.1//EN" "http://www.w3.org/Graphics/SVG/1.1/DTD/svg11.dtd">
<svg version="1.1" id="Layer_1" xmlns="http://www.w3.org/2000/svg" xmlns:xlink="http://www.w3.org/1999/xlink" x="0px" y="0px"
	 width="64px" height="64px" viewBox="0 0 64 64" enable-background="new 0 0 64 64" xml:space="preserve">
<path d="M46,25H18C8.626,25,1,32.626,1,42s7.626,17,17,17h28c9.374,0,17-7.626,17-17S55.374,25,46,25z M46,57H18
	C9.729,57,3,50.271,3,42s6.729-15,15-15h28c8.271,0,15,6.729,15,15S54.271,57,46,57z"/>
<path d="M24,41h-5v-5c0-0.553-0.448-1-1-1s-1,0.447-1,1v5h-5c-0.552,0-1,0.447-1,1s0.448,1,1,1h5v5c0,0.553,0.448,1,1,1s1-0.447,1-1
	v-5h5c0.552,0,1-0.447,1-1S24.552,41,24,41z"/>
<path d="M48.707,35.293c-0.391-0.391-1.023-0.391-1.414,0l-4,4c-0.391,0.391-0.391,1.023,0,1.414C43.488,40.902,43.744,41,44,41
	s0.512-0.098,0.707-0.293l4-4C49.098,36.316,49.098,35.684,48.707,35.293z"/>
<path d="M49.293,43.293l-4,4c-0.391,0.391-0.391,1.023,0,1.414C45.488,48.902,45.744,49,46,49s0.512-0.098,0.707-0.293l4-4
	c0.391-0.391,0.391-1.023,0-1.414S49.684,42.902,49.293,43.293z"/>
<path d="M31,6v12c0,0.553,0.448,1,1,1s1-0.447,1-1V6c0-0.553-0.448-1-1-1S31,5.447,31,6z"/>
</svg>
