<?xml version="1.0" encoding="utf-8"?>
<!-- Generator: Adobe Illustrator 20.1.0, SVG Export Plug-In . SVG Version: 6.00 Build 0)  -->
<!DOCTYPE svg PUBLIC "-//W3C//DTD SVG 1.1//EN" "http://www.w3.org/Graphics/SVG/1.1/DTD/svg11.dtd">
<svg version="1.1" id="Layer_1" xmlns="http://www.w3.org/2000/svg" xmlns:xlink="http://www.w3.org/1999/xlink" x="0px" y="0px"
	 width="64px" height="64px" viewBox="0 0 64 64" enable-background="new 0 0 64 64" xml:space="preserve">
<circle cx="52" cy="43" r="2"/>
<path d="M52,32c-6.065,0-11,4.935-11,11c0,6.469,9.877,16.296,10.297,16.712C51.492,59.904,51.746,60,52,60s0.508-0.096,0.703-0.288
	C53.123,59.296,63,49.469,63,43C63,36.935,58.065,32,52,32z M52,57.574C48.957,54.407,43,47.317,43,43c0-4.963,4.038-9,9-9
	s9,4.037,9,9C61,47.313,55.043,54.406,52,57.574z"/>
<path d="M56,28c0.552,0,1-0.447,1-1V9c0-2.757-2.243-5-5-5H12C9.243,4,7,6.243,7,9v28c0,0.553,0.448,1,1,1s1-0.447,1-1V9
	c0-1.654,1.346-3,3-3h40c1.654,0,3,1.346,3,3v18C55,27.553,55.448,28,56,28z"/>
<path d="M30,10c-0.552,0-1,0.447-1,1s0.448,1,1,1h4c0.552,0,1-0.447,1-1s-0.448-1-1-1H30z"/>
<path d="M37,50H10c-3.521,0-6.442-2.612-6.929-6H35c0.552,0,1-0.447,1-1s-0.448-1-1-1H2c-0.552,0-1,0.447-1,1c0,4.963,4.038,9,9,9
	h27c0.552,0,1-0.447,1-1S37.552,50,37,50z"/>
</svg>
