<?xml version="1.0" encoding="utf-8"?>
<!-- Generator: Adobe Illustrator 20.1.0, SVG Export Plug-In . SVG Version: 6.00 Build 0)  -->
<!DOCTYPE svg PUBLIC "-//W3C//DTD SVG 1.1//EN" "http://www.w3.org/Graphics/SVG/1.1/DTD/svg11.dtd">
<svg version="1.1" id="Layer_1" xmlns="http://www.w3.org/2000/svg" xmlns:xlink="http://www.w3.org/1999/xlink" x="0px" y="0px"
	 width="64px" height="64px" viewBox="0 0 64 64" enable-background="new 0 0 64 64" xml:space="preserve">
<path d="M60.707,50.293c-0.391-0.391-1.023-0.391-1.414,0L51,58.586V35c0-0.553-0.448-1-1-1s-1,0.447-1,1v23.586l-8.293-8.293
	c-0.391-0.391-1.023-0.391-1.414,0s-0.391,1.023,0,1.414l9.999,9.999c0.092,0.093,0.203,0.166,0.326,0.217
	C49.74,61.973,49.87,62,50,62s0.26-0.027,0.382-0.077c0.123-0.051,0.233-0.124,0.326-0.217l9.999-9.999
	C61.098,51.316,61.098,50.684,60.707,50.293z"/>
<path d="M31,7h-4c-0.552,0-1,0.447-1,1s0.448,1,1,1h4c0.552,0,1-0.447,1-1S31.552,7,31,7z"/>
<path d="M50,30c0.552,0,1-0.447,1-1V6c0-2.757-2.243-5-5-5H12C9.243,1,7,3.243,7,6v52c0,2.757,2.243,5,5,5h29c0.552,0,1-0.447,1-1
	s-0.448-1-1-1H12c-1.654,0-3-1.346-3-3V47h25c0.552,0,1-0.447,1-1s-0.448-1-1-1H9V15h40v14C49,29.553,49.448,30,50,30z M9,13V6
	c0-1.654,1.346-3,3-3h34c1.654,0,3,1.346,3,3v7H9z"/>
</svg>
