<?xml version="1.0" encoding="utf-8"?>
<!-- Generator: Adobe Illustrator 20.1.0, SVG Export Plug-In . SVG Version: 6.00 Build 0)  -->
<!DOCTYPE svg PUBLIC "-//W3C//DTD SVG 1.1//EN" "http://www.w3.org/Graphics/SVG/1.1/DTD/svg11.dtd">
<svg version="1.1" id="Layer_1" xmlns="http://www.w3.org/2000/svg" xmlns:xlink="http://www.w3.org/1999/xlink" x="0px" y="0px"
	 width="64px" height="64px" viewBox="0 0 64 64" enable-background="new 0 0 64 64" xml:space="preserve">
<path d="M32,59c0.221,0,0.442-0.073,0.625-0.219l10-8c0.432-0.345,0.501-0.974,0.156-1.405c-0.345-0.432-0.975-0.501-1.405-0.156
	L32,56.719l-9.375-7.5c-0.43-0.345-1.06-0.276-1.405,0.156c-0.345,0.431-0.275,1.061,0.156,1.405l10,8
	C31.558,58.927,31.779,59,32,59z"/>
<path d="M62,5H2C1.448,5,1,5.448,1,6v32c0,0.552,0.448,1,1,1h60c0.552,0,1-0.448,1-1V6C63,5.448,62.552,5,62,5z M61,37H3V7h58V37z"
	/>
<path d="M12,17h4c0.552,0,1-0.448,1-1s-0.448-1-1-1h-4c-0.552,0-1,0.448-1,1S11.448,17,12,17z"/>
<path d="M24,17h4c0.552,0,1-0.448,1-1s-0.448-1-1-1h-4c-0.552,0-1,0.448-1,1S23.448,17,24,17z"/>
<path d="M36,17h4c0.552,0,1-0.448,1-1s-0.448-1-1-1h-4c-0.552,0-1,0.448-1,1S35.448,17,36,17z"/>
<path d="M48,17h4c0.552,0,1-0.448,1-1s-0.448-1-1-1h-4c-0.552,0-1,0.448-1,1S47.448,17,48,17z"/>
<path d="M12,29h4c0.552,0,1-0.448,1-1s-0.448-1-1-1h-4c-0.552,0-1,0.448-1,1S11.448,29,12,29z"/>
<path d="M24,29h16c0.552,0,1-0.448,1-1s-0.448-1-1-1H24c-0.552,0-1,0.448-1,1S23.448,29,24,29z"/>
<path d="M48,29h4c0.552,0,1-0.448,1-1s-0.448-1-1-1h-4c-0.552,0-1,0.448-1,1S47.448,29,48,29z"/>
</svg>
