<?xml version="1.0" encoding="utf-8"?>
<!-- Generator: Adobe Illustrator 20.1.0, SVG Export Plug-In . SVG Version: 6.00 Build 0)  -->
<!DOCTYPE svg PUBLIC "-//W3C//DTD SVG 1.1//EN" "http://www.w3.org/Graphics/SVG/1.1/DTD/svg11.dtd">
<svg version="1.1" id="Layer_1" xmlns="http://www.w3.org/2000/svg" xmlns:xlink="http://www.w3.org/1999/xlink" x="0px" y="0px"
	 width="64px" height="64px" viewBox="0 0 64 64" enable-background="new 0 0 64 64" xml:space="preserve">
<path d="M14,63h36c2.757,0,5-2.243,5-5V6c0-2.757-2.243-5-5-5H14c-2.757,0-5,2.243-5,5v52C9,60.757,11.243,63,14,63z M11,6
	c0-1.654,1.346-3,3-3h36c1.654,0,3,1.346,3,3v52c0,1.654-1.346,3-3,3H14c-1.654,0-3-1.346-3-3V6z"/>
<path d="M17,54h30c0.553,0,1-0.448,1-1V10c0-0.552-0.447-1-1-1H17c-0.553,0-1,0.448-1,1v43C16,53.552,16.447,54,17,54z M46,52H18v-7
	h28V52z M46,11v32H18V11H46z"/>
</svg>
