<?xml version="1.0" encoding="utf-8"?>
<!-- Generator: Adobe Illustrator 20.1.0, SVG Export Plug-In . SVG Version: 6.00 Build 0)  -->
<!DOCTYPE svg PUBLIC "-//W3C//DTD SVG 1.1//EN" "http://www.w3.org/Graphics/SVG/1.1/DTD/svg11.dtd">
<svg version="1.1" id="Layer_1" xmlns="http://www.w3.org/2000/svg" xmlns:xlink="http://www.w3.org/1999/xlink" x="0px" y="0px"
	 width="64px" height="64px" viewBox="0 0 64 64" enable-background="new 0 0 64 64" xml:space="preserve">
<path d="M62,5H2C1.447,5,1,5.447,1,6v32c0,0.553,0.447,1,1,1h24c0.553,0,1-0.447,1-1s-0.447-1-1-1H3V7h58v31c0,0.553,0.447,1,1,1
	s1-0.447,1-1V6C63,5.447,62.553,5,62,5z"/>
<path d="M16,15h-4c-0.553,0-1,0.447-1,1s0.447,1,1,1h4c0.553,0,1-0.447,1-1S16.553,15,16,15z"/>
<path d="M24,17h4c0.553,0,1-0.447,1-1s-0.447-1-1-1h-4c-0.553,0-1,0.447-1,1S23.447,17,24,17z"/>
<path d="M40,17c0.553,0,1-0.447,1-1s-0.447-1-1-1h-4c-0.553,0-1,0.447-1,1s0.447,1,1,1H40z"/>
<path d="M52,17c0.553,0,1-0.447,1-1s-0.447-1-1-1h-4c-0.553,0-1,0.447-1,1s0.447,1,1,1H52z"/>
<path d="M16,27h-4c-0.553,0-1,0.447-1,1s0.447,1,1,1h4c0.553,0,1-0.447,1-1S16.553,27,16,27z"/>
<path d="M24,29h4c0.553,0,1-0.447,1-1s-0.447-1-1-1h-4c-0.553,0-1,0.447-1,1S23.447,29,24,29z"/>
<path d="M44,27c-6.065,0-11,4.935-11,11v10c0,6.065,4.935,11,11,11s11-4.935,11-11V38C55,31.935,50.065,27,44,27z M53,48
	c0,4.963-4.037,9-9,9s-9-4.037-9-9V38c0-4.963,4.037-9,9-9s9,4.037,9,9V48z"/>
<path d="M44,37c-0.553,0-1,0.447-1,1v2c0,0.553,0.447,1,1,1s1-0.447,1-1v-2C45,37.447,44.553,37,44,37z"/>
</svg>
