<?xml version="1.0" encoding="utf-8"?>
<!-- Generator: Adobe Illustrator 20.1.0, SVG Export Plug-In . SVG Version: 6.00 Build 0)  -->
<!DOCTYPE svg PUBLIC "-//W3C//DTD SVG 1.1//EN" "http://www.w3.org/Graphics/SVG/1.1/DTD/svg11.dtd">
<svg version="1.1" id="Layer_1" xmlns="http://www.w3.org/2000/svg" xmlns:xlink="http://www.w3.org/1999/xlink" x="0px" y="0px"
	 width="64px" height="64px" viewBox="0 0 64 64" enable-background="new 0 0 64 64" xml:space="preserve">
<path d="M58,15H34.174L44.759,2.651c0.36-0.419,0.312-1.051-0.108-1.41c-0.418-0.358-1.05-0.31-1.409,0.108L32.027,14.432
	l-7.246-9.057c-0.346-0.431-0.974-0.501-1.406-0.156c-0.431,0.345-0.501,0.974-0.156,1.405l6.7,8.375H6c-2.757,0-5,2.243-5,5v38
	c0,2.757,2.243,5,5,5h52c2.757,0,5-2.243,5-5V20C63,17.243,60.757,15,58,15z M61,58c0,1.654-1.346,3-3,3H6c-1.654,0-3-1.346-3-3V20
	c0-1.654,1.346-3,3-3h52c1.654,0,3,1.346,3,3V58z"/>
<path d="M46,23H10c-0.553,0-1,0.448-1,1v30c0,0.552,0.447,1,1,1h36c0.553,0,1-0.448,1-1V24C47,23.448,46.553,23,46,23z M45,53H11V25
	h34V53z"/>
<path d="M54,23c-0.553,0-1,0.448-1,1v4c0,0.552,0.447,1,1,1s1-0.448,1-1v-4C55,23.448,54.553,23,54,23z"/>
<path d="M54,35c-0.553,0-1,0.448-1,1v18c0,0.552,0.447,1,1,1s1-0.448,1-1V36C55,35.448,54.553,35,54,35z"/>
</svg>
