<?xml version="1.0" encoding="utf-8"?>
<!-- Generator: Adobe Illustrator 20.1.0, SVG Export Plug-In . SVG Version: 6.00 Build 0)  -->
<!DOCTYPE svg PUBLIC "-//W3C//DTD SVG 1.1//EN" "http://www.w3.org/Graphics/SVG/1.1/DTD/svg11.dtd">
<svg version="1.1" id="Layer_1" xmlns="http://www.w3.org/2000/svg" xmlns:xlink="http://www.w3.org/1999/xlink" x="0px" y="0px"
	 width="64px" height="64px" viewBox="0 0 64 64" enable-background="new 0 0 64 64" xml:space="preserve">
<path d="M17.169,52.946l1.85,9.25C19.113,62.664,19.523,63,20,63h24c0.477,0,0.887-0.336,0.98-0.804l1.85-9.25
	C50.3,52.534,53,49.578,53,46v-8h3c0.552,0,1-0.448,1-1V27c0-0.552-0.448-1-1-1h-3v-8c0-3.578-2.7-6.534-6.169-6.946l-1.85-9.25
	C44.887,1.336,44.477,1,44,1H20c-0.477,0-0.887,0.336-0.98,0.804l-1.85,9.25C13.7,11.466,11,14.422,11,18v28
	C11,49.578,13.7,52.534,17.169,52.946z M43.18,61H20.82l-1.6-8H44.78L43.18,61z M55,28v8h-2v-8H55z M20.82,3h22.36l1.6,8H19.22
	L20.82,3z M13,18c0-2.757,2.243-5,5-5h28c2.757,0,5,2.243,5,5v28c0,2.757-2.243,5-5,5H18c-2.757,0-5-2.243-5-5V18z"/>
<path d="M32,33h10c0.552,0,1-0.448,1-1s-0.448-1-1-1h-9v-9c0-0.552-0.448-1-1-1s-1,0.448-1,1v10C31,32.552,31.448,33,32,33z"/>
</svg>
