<?xml version="1.0" encoding="utf-8"?>
<!-- Generator: Adobe Illustrator 20.1.0, SVG Export Plug-In . SVG Version: 6.00 Build 0)  -->
<!DOCTYPE svg PUBLIC "-//W3C//DTD SVG 1.1//EN" "http://www.w3.org/Graphics/SVG/1.1/DTD/svg11.dtd">
<svg version="1.1" id="Layer_1" xmlns="http://www.w3.org/2000/svg" xmlns:xlink="http://www.w3.org/1999/xlink" x="0px" y="0px"
	 width="64px" height="64px" viewBox="0 0 64 64" enable-background="new 0 0 64 64" xml:space="preserve">
<path d="M3.663,61.359c0.86,1.242,2.316,1.849,3.86,1.565L32,57.028l24.532,5.907c0.234,0.043,0.469,0.064,0.7,0.064
	c1.232,0,2.38-0.594,3.104-1.641c0.859-1.243,0.91-2.82,0.137-4.11L51.35,41.81C54.879,37.498,57,31.993,57,26
	C57,12.215,45.785,1,32,1S7,12.215,7,26c0,5.994,2.122,11.501,5.653,15.813L3.53,57.243C2.753,58.539,2.804,60.116,3.663,61.359z
	 M32,3c12.683,0,23,10.317,23,23S44.683,49,32,49S9,38.683,9,26S19.317,3,32,3z M5.248,58.267l8.803-14.89
	C18.599,48.072,24.962,51,32,51c7.039,0,13.403-2.928,17.951-7.625l8.804,14.898c0.374,0.623,0.35,1.352-0.063,1.949
	c-0.413,0.597-1.09,0.88-1.746,0.758l-24.711-5.952c-0.154-0.037-0.314-0.037-0.469,0L7.11,60.969
	c-0.719,0.126-1.389-0.149-1.802-0.747S4.871,58.896,5.248,58.267z"/>
<path d="M32,43c8.271,0,15-6.729,15-15s-6.729-15-15-15s-15,6.729-15,15S23.729,43,32,43z M32,15c7.168,0,13,5.832,13,13
	s-5.832,13-13,13s-13-5.832-13-13S24.832,15,32,15z"/>
<path d="M32,32c2.206,0,4-1.794,4-4s-1.794-4-4-4s-4,1.794-4,4S29.794,32,32,32z M32,26c1.103,0,2,0.897,2,2s-0.897,2-2,2
	s-2-0.897-2-2S30.897,26,32,26z"/>
</svg>
