<?xml version="1.0" encoding="utf-8"?>
<!-- Generator: Adobe Illustrator 20.1.0, SVG Export Plug-In . SVG Version: 6.00 Build 0)  -->
<!DOCTYPE svg PUBLIC "-//W3C//DTD SVG 1.1//EN" "http://www.w3.org/Graphics/SVG/1.1/DTD/svg11.dtd">
<svg version="1.1" id="Layer_1" xmlns="http://www.w3.org/2000/svg" xmlns:xlink="http://www.w3.org/1999/xlink" x="0px" y="0px"
	 width="64px" height="64px" viewBox="0 0 64 64" enable-background="new 0 0 64 64" xml:space="preserve">
<path d="M18,61C9.729,61,3,54.271,3,46c0-0.552-0.447-1-1-1s-1,0.448-1,1c0,9.374,7.626,17,17,17c0.553,0,1-0.448,1-1
	S18.553,61,18,61z"/>
<circle cx="52" cy="23" r="2"/>
<path d="M62,15h-3V8c0-3.86-3.141-7-7-7s-7,3.14-7,7v7h-3c-0.553,0-1,0.448-1,1v14c0,0.552,0.447,1,1,1h20c0.553,0,1-0.448,1-1V16
	C63,15.448,62.553,15,62,15z M47,8c0-2.757,2.243-5,5-5s5,2.243,5,5v7H47V8z M61,29H43V17h18V29z"/>
<path d="M60.121,34.666c-0.391,0.391-0.391,1.024,0,1.414C60.688,36.646,61,37.399,61,38.201c0,0.801-0.312,1.554-0.879,2.121
	L40.322,60.122c-1.133,1.133-3.109,1.133-4.242,0l-6.894-6.894l16.521-16.521c0.391-0.391,0.391-1.023,0-1.414s-1.023-0.391-1.414,0
	L27.772,51.814L8.187,32.228L32.228,8.186l4.523,4.523c0.391,0.391,1.023,0.391,1.414,0s0.391-1.023,0-1.414l-8.831-8.831
	C28.39,1.52,27.135,1,25.799,1s-2.591,0.52-3.535,1.464L2.465,22.264C1.521,23.208,1,24.463,1,25.799
	c0,1.336,0.521,2.591,1.465,3.536l32.201,32.201C35.61,62.48,36.865,63,38.201,63s2.591-0.52,3.535-1.464l19.799-19.799
	c0.944-0.944,1.465-2.2,1.465-3.535c0-1.336-0.521-2.591-1.465-3.536C61.145,34.275,60.512,34.275,60.121,34.666z M3,25.799
	c0-0.801,0.312-1.554,0.879-2.121L23.678,3.878c1.133-1.133,3.109-1.133,4.242,0l2.894,2.894L6.772,30.814L3.879,27.92
	C3.312,27.354,3,26.601,3,25.799z"/>
</svg>
