<?xml version="1.0" encoding="utf-8"?>
<!-- Generator: Adobe Illustrator 20.1.0, SVG Export Plug-In . SVG Version: 6.00 Build 0)  -->
<!DOCTYPE svg PUBLIC "-//W3C//DTD SVG 1.1//EN" "http://www.w3.org/Graphics/SVG/1.1/DTD/svg11.dtd">
<svg version="1.1" id="Layer_1" xmlns="http://www.w3.org/2000/svg" xmlns:xlink="http://www.w3.org/1999/xlink" x="0px" y="0px"
	 width="64px" height="64px" viewBox="0 0 64 64" enable-background="new 0 0 64 64" xml:space="preserve">
<path d="M5,58c0,2.757,2.243,5,5,5h44c2.757,0,5-2.243,5-5V6c0-2.757-2.243-5-5-5H10C7.243,1,5,3.243,5,6V58z M7,6
	c0-1.654,1.346-3,3-3h44c1.654,0,3,1.346,3,3v52c0,1.654-1.346,3-3,3H10c-1.654,0-3-1.346-3-3V6z"/>
<path d="M13,46h38c0.553,0,1-0.447,1-1V9c0-0.553-0.447-1-1-1H13c-0.553,0-1,0.447-1,1v36C12,45.553,12.447,46,13,46z M14,10h36v34
	H14V10z"/>
<path d="M32,49c-2.206,0-4,1.794-4,4s1.794,4,4,4s4-1.794,4-4S34.206,49,32,49z M32,55c-1.103,0-2-0.897-2-2s0.897-2,2-2
	s2,0.897,2,2S33.103,55,32,55z"/>
</svg>
