<?xml version="1.0" encoding="utf-8"?>
<!-- Generator: Adobe Illustrator 20.1.0, SVG Export Plug-In . SVG Version: 6.00 Build 0)  -->
<!DOCTYPE svg PUBLIC "-//W3C//DTD SVG 1.1//EN" "http://www.w3.org/Graphics/SVG/1.1/DTD/svg11.dtd">
<svg version="1.1" id="Layer_1" xmlns="http://www.w3.org/2000/svg" xmlns:xlink="http://www.w3.org/1999/xlink" x="0px" y="0px"
	 width="64px" height="64px" viewBox="0 0 64 64" enable-background="new 0 0 64 64" xml:space="preserve">
<path d="M52,17H12C5.935,17,1,21.935,1,28v8c0,6.065,4.935,11,11,11h40c6.065,0,11-4.935,11-11v-8C63,21.935,58.065,17,52,17z M3,36
	v-8c0-4.963,4.037-9,9-9h23.695C32.861,20.992,31,24.28,31,28v8c0,4.963-4.037,9-9,9H12C7.037,45,3,40.963,3,36z M61,36
	c0,4.963-4.037,9-9,9H28.305C31.139,43.008,33,39.72,33,36v-8c0-4.963,4.037-9,9-9h10c4.963,0,9,4.037,9,9V36z"/>
<path d="M20.04,26.697l-1.379,5.915c-0.089,0.356-0.188,0.821-0.297,1.397c-0.109,0.576-0.188,1.056-0.237,1.442
	c-0.054-0.4-0.133-0.88-0.237-1.438s-0.19-0.973-0.259-1.245l-1.579-6.071h-2.172l-1.579,6.071c-0.094,0.326-0.194,0.784-0.3,1.375
	c-0.106,0.591-0.174,1.027-0.204,1.308c-0.109-0.8-0.284-1.747-0.526-2.839l-1.386-5.915H7.625l2.765,10.837h2.609l1.46-5.678
	c0.064-0.252,0.156-0.673,0.274-1.264c0.119-0.591,0.193-1.019,0.222-1.286c0.02,0.217,0.095,0.644,0.226,1.279
	c0.131,0.635,0.224,1.054,0.278,1.256l1.468,5.693h2.616l2.757-10.837H20.04z"/>
<path d="M24.621,28.216c0.41,0,0.718-0.098,0.923-0.293c0.205-0.195,0.308-0.468,0.308-0.819c0-0.736-0.41-1.104-1.23-1.104
	c-0.82,0-1.23,0.368-1.23,1.104C23.391,27.846,23.801,28.216,24.621,28.216z"/>
<rect x="23.487" y="29.247" width="2.261" height="8.287"/>
<polygon points="41.529,37.533 43.789,37.533 43.789,33.249 47.466,33.249 47.466,31.374 43.789,31.374 43.789,28.579 47.74,28.579 
	47.74,26.697 41.529,26.697 "/>
<path d="M50.816,26c-0.82,0-1.23,0.368-1.23,1.104c0,0.741,0.41,1.112,1.23,1.112c0.41,0,0.718-0.098,0.923-0.293
	c0.205-0.195,0.308-0.468,0.308-0.819C52.046,26.368,51.636,26,50.816,26z"/>
<rect x="49.682" y="29.247" width="2.261" height="8.287"/>
<path d="M16.167,11.493c-0.306,0.46-0.181,1.081,0.279,1.387c0.17,0.113,0.362,0.167,0.553,0.167c0.323,0,0.642-0.156,0.834-0.446
	C20.997,7.841,26.293,5,32,5c5.706,0,11.002,2.841,14.166,7.6c0.307,0.461,0.928,0.585,1.387,0.279
	c0.46-0.306,0.585-0.927,0.279-1.387C44.296,6.175,38.378,3,32,3C25.621,3,19.703,6.175,16.167,11.493z"/>
<path d="M46.166,51.4C43.002,56.159,37.706,59,32,59c-5.707,0-11.003-2.841-14.167-7.601c-0.306-0.462-0.929-0.585-1.387-0.279
	c-0.46,0.306-0.585,0.927-0.279,1.387C19.703,57.825,25.621,61,32,61c6.378,0,12.296-3.175,15.832-8.492
	c0.306-0.46,0.181-1.081-0.279-1.387C47.094,50.815,46.471,50.939,46.166,51.4z"/>
</svg>
