<?xml version="1.0" encoding="utf-8"?>
<!-- Generator: Adobe Illustrator 20.1.0, SVG Export Plug-In . SVG Version: 6.00 Build 0)  -->
<!DOCTYPE svg PUBLIC "-//W3C//DTD SVG 1.1//EN" "http://www.w3.org/Graphics/SVG/1.1/DTD/svg11.dtd">
<svg version="1.1" id="Layer_1" xmlns="http://www.w3.org/2000/svg" xmlns:xlink="http://www.w3.org/1999/xlink" x="0px" y="0px"
	 width="64px" height="64px" viewBox="0 0 64 64" enable-background="new 0 0 64 64" xml:space="preserve">
<path d="M28,15H16c-0.553,0-1,0.447-1,1v12c0,0.553,0.447,1,1,1h12c0.553,0,1-0.447,1-1V16C29,15.447,28.553,15,28,15z M27,27H17V17
	h10V27z"/>
<path d="M48,15H36c-0.553,0-1,0.447-1,1v12c0,0.553,0.447,1,1,1h12c0.553,0,1-0.447,1-1V16C49,15.447,48.553,15,48,15z M47,27H37V17
	h10V27z"/>
<path d="M28,37H16c-0.553,0-1,0.447-1,1v12c0,0.553,0.447,1,1,1h12c0.553,0,1-0.447,1-1V38C29,37.447,28.553,37,28,37z M27,49H17V39
	h10V49z"/>
<path d="M48,37H36c-0.553,0-1,0.447-1,1v12c0,0.553,0.447,1,1,1h12c0.553,0,1-0.447,1-1V38C49,37.447,48.553,37,48,37z M47,49H37V39
	h10V49z"/>
<path d="M52,1H12C5.935,1,1,5.935,1,12v4.017c0,0.269,0.107,0.525,0.299,0.713C1.486,16.914,1.738,17.017,2,17.017
	C2.073,17.014,2.156,17.008,2.167,17c2.757,0,5,2.243,5,5s-2.243,5-4.941,5.002c-0.043-0.006-0.165-0.018-0.208-0.019
	c-0.278-0.003-0.527,0.099-0.719,0.287C1.107,27.458,1,27.715,1,27.983v10.033c0,0.269,0.107,0.525,0.299,0.713
	C1.486,38.914,1.738,39.017,2,39.017C2.073,39.013,2.156,39.009,2.167,39c2.757,0,5,2.243,5,5s-2.243,5-4.941,5.002
	c-0.043-0.006-0.165-0.018-0.208-0.019c-0.278-0.018-0.527,0.098-0.719,0.287C1.107,49.458,1,49.715,1,49.983V52
	c0,6.065,4.935,11,11,11h40c6.065,0,11-4.935,11-11v-2c0-0.553-0.447-1-1-1c-2.757,0-5-2.243-5-5s2.243-5,5-5c0.553,0,1-0.447,1-1
	V28c0-0.553-0.447-1-1-1c-2.757,0-5-2.243-5-5s2.243-5,5-5c0.553,0,1-0.447,1-1v-4C63,5.935,58.065,1,52,1z M61,15.071
	c-3.388,0.486-6,3.408-6,6.929s2.612,6.442,6,6.929v8.143c-3.388,0.486-6,3.408-6,6.929s2.612,6.442,6,6.929V52c0,4.963-4.037,9-9,9
	H12c-4.963,0-9-4.037-9-9v-1.049C6.469,50.538,9.167,47.578,9.167,44S6.469,37.462,3,37.049v-8.098
	C6.469,28.538,9.167,25.578,9.167,22S6.469,15.462,3,15.049V12c0-4.963,4.037-9,9-9h40c4.963,0,9,4.037,9,9V15.071z"/>
</svg>
