<?xml version="1.0" encoding="utf-8"?>
<!-- Generator: Adobe Illustrator 20.1.0, SVG Export Plug-In . SVG Version: 6.00 Build 0)  -->
<!DOCTYPE svg PUBLIC "-//W3C//DTD SVG 1.1//EN" "http://www.w3.org/Graphics/SVG/1.1/DTD/svg11.dtd">
<svg version="1.1" id="Layer_1" xmlns="http://www.w3.org/2000/svg" xmlns:xlink="http://www.w3.org/1999/xlink" x="0px" y="0px"
	 width="64px" height="64px" viewBox="0 0 64 64" enable-background="new 0 0 64 64" xml:space="preserve">
<path d="M7,5v30c0,2.206,1.794,4,4,4h42c2.206,0,4-1.794,4-4V5c0-2.206-1.794-4-4-4H11C8.794,1,7,2.794,7,5z M55,5v30
	c0,1.103-0.897,2-2,2H11c-1.103,0-2-0.897-2-2V5c0-1.103,0.897-2,2-2h42C54.103,3,55,3.897,55,5z"/>
<path d="M56,43H8c-3.859,0-7,3.14-7,7v12c0,0.552,0.447,1,1,1h60c0.553,0,1-0.448,1-1V50C63,46.14,59.859,43,56,43z M61,61H3V50
	c0-2.757,2.243-5,5-5h48c2.757,0,5,2.243,5,5V61z"/>
<path d="M16,31h32c0.553,0,1-0.448,1-1V10c0-0.552-0.447-1-1-1H16c-0.553,0-1,0.448-1,1v20C15,30.552,15.447,31,16,31z M17,11h30v18
	H17V11z"/>
<path d="M16,52h-4c-0.553,0-1,0.448-1,1s0.447,1,1,1h4c0.553,0,1-0.448,1-1S16.553,52,16,52z"/>
<path d="M52,52H36c-0.553,0-1,0.448-1,1s0.447,1,1,1h16c0.553,0,1-0.448,1-1S52.553,52,52,52z"/>
</svg>
