<?xml version="1.0" encoding="utf-8"?>
<!-- Generator: Adobe Illustrator 20.1.0, SVG Export Plug-In . SVG Version: 6.00 Build 0)  -->
<!DOCTYPE svg PUBLIC "-//W3C//DTD SVG 1.1//EN" "http://www.w3.org/Graphics/SVG/1.1/DTD/svg11.dtd">
<svg version="1.1" id="Layer_1" xmlns="http://www.w3.org/2000/svg" xmlns:xlink="http://www.w3.org/1999/xlink" x="0px" y="0px"
	 width="64px" height="64px" viewBox="0 0 64 64" enable-background="new 0 0 64 64" xml:space="preserve">
<path d="M12.903,40.04c0.167,0.115,0.365,0.175,0.565,0.175c0.061,0,0.122-0.005,0.183-0.017l47.755-8.893
	c0.261-0.048,0.492-0.199,0.642-0.417c0.15-0.219,0.207-0.488,0.159-0.749L57.891,6.962c-0.245-1.313-0.985-2.452-2.087-3.208
	c-1.1-0.755-2.428-1.039-3.743-0.792l-43.822,8.16c-0.543,0.101-0.901,0.623-0.801,1.166l5.048,27.11
	C12.534,39.659,12.685,39.89,12.903,40.04z M52.426,4.928c0.787-0.147,1.586,0.022,2.246,0.476c0.661,0.454,1.105,1.137,1.252,1.925
	l4.134,22.194l-45.789,8.526L9.587,12.905L52.426,4.928z"/>
<path d="M2.215,15.156c-0.543,0.101-0.901,0.623-0.801,1.166L5.452,38.01c0.09,0.481,0.51,0.817,0.982,0.817
	c0.061,0,0.122-0.005,0.184-0.017c0.543-0.101,0.901-0.623,0.801-1.166L3.381,15.956C3.279,15.414,2.755,15.051,2.215,15.156z"/>
<path d="M24,25c2.206,0,4-1.794,4-4s-1.794-4-4-4s-4,1.794-4,4S21.794,25,24,25z M24,19c1.103,0,2,0.897,2,2s-0.897,2-2,2
	s-2-0.897-2-2S22.897,19,24,19z"/>
<path d="M62,43c-0.553,0-1,0.448-1,1v8H47.182c-1.405,0-2.607-0.956-2.923-2.325l-2.284-9.899c-0.123-0.538-0.663-0.871-1.199-0.75
	c-0.538,0.125-0.874,0.661-0.75,1.199l2.284,9.9C42.837,52.406,44.84,54,47.182,54H61v8c0,0.552,0.447,1,1,1s1-0.448,1-1V44
	C63,43.448,62.553,43,62,43z"/>
</svg>
