<?xml version="1.0" encoding="utf-8"?>
<!-- Generator: Adobe Illustrator 20.1.0, SVG Export Plug-In . SVG Version: 6.00 Build 0)  -->
<!DOCTYPE svg PUBLIC "-//W3C//DTD SVG 1.1//EN" "http://www.w3.org/Graphics/SVG/1.1/DTD/svg11.dtd">
<svg version="1.1" id="Layer_1" xmlns="http://www.w3.org/2000/svg" xmlns:xlink="http://www.w3.org/1999/xlink" x="0px" y="0px"
	 width="64px" height="64px" viewBox="0 0 64 64" enable-background="new 0 0 64 64" xml:space="preserve">
<path d="M29,7h-4c-0.553,0-1,0.448-1,1s0.447,1,1,1h4c0.553,0,1-0.448,1-1S29.553,7,29,7z"/>
<path d="M44,1H10C7.243,1,5,3.243,5,6v52c0,2.757,2.243,5,5,5h25c0.553,0,1-0.447,1-1s-0.447-1-1-1H10c-1.654,0-3-1.346-3-3V47h28
	c0.553,0,1-0.447,1-1s-0.447-1-1-1H7V15h40v20c0,0.553,0.447,1,1,1s1-0.447,1-1V6C49,3.243,46.757,1,44,1z M7,13V6
	c0-1.654,1.346-3,3-3h34c1.654,0,3,1.346,3,3v7H7z"/>
<path d="M60.999,52.02c-0.549-0.105-1.069,0.241-1.18,0.781C58.973,56.973,55.264,60,51,60c-3,0-5.677-1.506-7.311-4H49
	c0.553,0,1-0.447,1-1s-0.447-1-1-1h-7c-0.002,0-0.004,0.001-0.006,0.001c-0.06,0-0.119,0.025-0.179,0.036
	c-0.072,0.014-0.147,0.018-0.212,0.046c-0.001,0.001-0.003,0-0.004,0.001c-0.028,0.012-0.046,0.036-0.072,0.05
	c-0.088,0.048-0.174,0.099-0.243,0.17c-0.044,0.045-0.069,0.101-0.103,0.152c-0.037,0.055-0.081,0.105-0.106,0.167
	c-0.035,0.085-0.044,0.177-0.054,0.269C41.017,54.93,41,54.962,41,55v0.011c0,0.001,0,0.002,0,0.002V62c0,0.553,0.447,1,1,1
	s1-0.447,1-1v-3.599C45.014,60.673,47.864,62,51,62c5.211,0,9.744-3.701,10.78-8.801C61.89,52.658,61.54,52.13,60.999,52.02z"/>
<path d="M60,39c-0.553,0-1,0.447-1,1v3.599C56.986,41.327,54.136,40,51,40c-5.211,0-9.744,3.701-10.78,8.801
	c-0.109,0.541,0.24,1.069,0.781,1.18c0.067,0.013,0.135,0.02,0.2,0.02c0.466,0,0.883-0.327,0.979-0.801
	C43.027,45.027,46.736,42,51,42c3,0,5.677,1.506,7.311,4H53c-0.553,0-1,0.447-1,1s0.447,1,1,1h7c0,0,0.001,0,0.001,0
	c0.08,0,0.159-0.028,0.239-0.048c0.052-0.013,0.108-0.014,0.156-0.035c0.001-0.001,0.003,0,0.004-0.001
	c0.028-0.012,0.046-0.036,0.072-0.051c0.088-0.048,0.173-0.099,0.243-0.17c0.044-0.045,0.068-0.101,0.102-0.152
	c0.037-0.056,0.081-0.105,0.107-0.168c0.035-0.085,0.044-0.176,0.054-0.268C60.982,47.071,61,47.038,61,47v-0.011
	c0-0.001,0-0.002,0-0.002V40C61,39.447,60.553,39,60,39z"/>
</svg>
