<?xml version="1.0" encoding="utf-8"?>
<!-- Generator: Adobe Illustrator 20.1.0, SVG Export Plug-In . SVG Version: 6.00 Build 0)  -->
<!DOCTYPE svg PUBLIC "-//W3C//DTD SVG 1.1//EN" "http://www.w3.org/Graphics/SVG/1.1/DTD/svg11.dtd">
<svg version="1.1" id="Layer_1" xmlns="http://www.w3.org/2000/svg" xmlns:xlink="http://www.w3.org/1999/xlink" x="0px" y="0px"
	 width="64px" height="64px" viewBox="0 0 64 64" enable-background="new 0 0 64 64" xml:space="preserve">
<path d="M23,40V12c0-0.553-0.447-1-1-1h-9V8c0-0.553-0.447-1-1-1s-1,0.447-1,1v3H2c-0.553,0-1,0.447-1,1v28c0,0.553,0.447,1,1,1h20
	C22.553,41,23,40.553,23,40z M21,39H3V13h18V39z"/>
<path d="M62,11h-9V8c0-0.553-0.447-1-1-1s-1,0.447-1,1v3h-9c-0.553,0-1,0.447-1,1v28c0,0.553,0.447,1,1,1h20c0.553,0,1-0.447,1-1V12
	C63,11.447,62.553,11,62,11z M61,39H43V13h18V39z"/>
<path d="M52,47c-0.553,0-1,0.447-1,1v13H13V48c0-0.553-0.447-1-1-1s-1,0.447-1,1v14c0,0.553,0.447,1,1,1h40c0.553,0,1-0.447,1-1V48
	C53,47.447,52.553,47,52,47z"/>
<path d="M5,2v5c0,0.553,0.447,1,1,1s1-0.447,1-1V3h10v4c0,0.553,0.447,1,1,1s1-0.447,1-1V2c0-0.553-0.447-1-1-1H6
	C5.447,1,5,1.447,5,2z"/>
<path d="M58,8c0.553,0,1-0.447,1-1V2c0-0.553-0.447-1-1-1H46c-0.553,0-1,0.447-1,1v5c0,0.553,0.447,1,1,1s1-0.447,1-1V3h10v4
	C57,7.553,57.447,8,58,8z"/>
</svg>
