<?xml version="1.0" encoding="utf-8"?>
<!-- Generator: Adobe Illustrator 20.1.0, SVG Export Plug-In . SVG Version: 6.00 Build 0)  -->
<!DOCTYPE svg PUBLIC "-//W3C//DTD SVG 1.1//EN" "http://www.w3.org/Graphics/SVG/1.1/DTD/svg11.dtd">
<svg version="1.1" id="Layer_1" xmlns="http://www.w3.org/2000/svg" xmlns:xlink="http://www.w3.org/1999/xlink" x="0px" y="0px"
	 width="64px" height="64px" viewBox="0 0 64 64" enable-background="new 0 0 64 64" xml:space="preserve">
<path d="M60.293,47.293L52,55.586V36c0-0.553-0.448-1-1-1s-1,0.447-1,1v19.586l-8.293-8.293c-0.391-0.391-1.023-0.391-1.414,0
	s-0.391,1.023,0,1.414l9.999,9.999c0.092,0.093,0.203,0.166,0.326,0.217C50.74,58.973,50.87,59,51,59s0.26-0.027,0.382-0.077
	c0.123-0.051,0.233-0.124,0.326-0.217l9.999-9.999c0.391-0.391,0.391-1.023,0-1.414S60.684,46.902,60.293,47.293z"/>
<path d="M56,32c0.552,0,1-0.447,1-1V9c0-2.757-2.243-5-5-5H12C9.243,4,7,6.243,7,9v28c0,0.553,0.448,1,1,1s1-0.447,1-1V9
	c0-1.654,1.346-3,3-3h40c1.654,0,3,1.346,3,3v22C55,31.553,55.448,32,56,32z"/>
<path d="M34,10h-4c-0.552,0-1,0.447-1,1s0.448,1,1,1h4c0.552,0,1-0.447,1-1S34.552,10,34,10z"/>
<path d="M35,43c0-0.553-0.448-1-1-1H2c-0.552,0-1,0.447-1,1c0,4.963,4.038,9,9,9h24c0.552,0,1-0.447,1-1s-0.448-1-1-1H10
	c-3.521,0-6.442-2.612-6.929-6H34C34.552,44,35,43.553,35,43z"/>
</svg>
