<?xml version="1.0" encoding="utf-8"?>
<!-- Generator: Adobe Illustrator 20.1.0, SVG Export Plug-In . SVG Version: 6.00 Build 0)  -->
<!DOCTYPE svg PUBLIC "-//W3C//DTD SVG 1.1//EN" "http://www.w3.org/Graphics/SVG/1.1/DTD/svg11.dtd">
<svg version="1.1" id="Layer_1" xmlns="http://www.w3.org/2000/svg" xmlns:xlink="http://www.w3.org/1999/xlink" x="0px" y="0px"
	 width="64px" height="64px" viewBox="0 0 64 64" enable-background="new 0 0 64 64" xml:space="preserve">
<path d="M56,28c0.552,0,1-0.447,1-1V9c0-2.757-2.243-5-5-5H12C9.243,4,7,6.243,7,9v28c0,0.553,0.448,1,1,1s1-0.447,1-1V9
	c0-1.654,1.346-3,3-3h40c1.654,0,3,1.346,3,3v18C55,27.553,55.448,28,56,28z"/>
<path d="M30,10c-0.552,0-1,0.447-1,1s0.448,1,1,1h4c0.552,0,1-0.447,1-1s-0.448-1-1-1H30z"/>
<path d="M1,43c0,4.963,4.038,9,9,9h25c0.552,0,1-0.447,1-1s-0.448-1-1-1H10c-3.521,0-6.442-2.612-6.929-6H35c0.552,0,1-0.447,1-1
	s-0.448-1-1-1H2C1.448,42,1,42.447,1,43z"/>
<circle cx="52" cy="54" r="2"/>
<path d="M62,46h-3v-7c0-3.859-3.14-7-7-7s-7,3.141-7,7v7h-3c-0.552,0-1,0.447-1,1v14c0,0.553,0.448,1,1,1h20c0.552,0,1-0.447,1-1V47
	C63,46.447,62.552,46,62,46z M47,39c0-2.757,2.243-5,5-5s5,2.243,5,5v7H47V39z M61,60H43V48h18V60z"/>
</svg>
