<?xml version="1.0" encoding="utf-8"?>
<!-- Generator: Adobe Illustrator 20.1.0, SVG Export Plug-In . SVG Version: 6.00 Build 0)  -->
<!DOCTYPE svg PUBLIC "-//W3C//DTD SVG 1.1//EN" "http://www.w3.org/Graphics/SVG/1.1/DTD/svg11.dtd">
<svg version="1.1" id="Layer_1" xmlns="http://www.w3.org/2000/svg" xmlns:xlink="http://www.w3.org/1999/xlink" x="0px" y="0px"
	 width="64px" height="64px" viewBox="0 0 64 64" enable-background="new 0 0 64 64" xml:space="preserve">
<path d="M15.048,47.526l1.961,14.607C17.076,62.629,17.499,63,18,63h28c0.501,0,0.924-0.371,0.991-0.867l1.961-14.607
	C52.705,43.431,55,37.979,55,32s-2.295-11.431-6.048-15.526L46.991,1.867C46.924,1.371,46.501,1,46,1H18
	c-0.501,0-0.924,0.371-0.991,0.867l-1.961,14.607C11.295,20.569,9,26.021,9,32S11.295,43.431,15.048,47.526z M45.125,61H18.875
	l-1.513-11.273C21.341,53.019,26.444,55,32,55s10.659-1.981,14.638-5.273L45.125,61z M32,53c-11.58,0-21-9.42-21-21s9.42-21,21-21
	s21,9.42,21,21S43.58,53,32,53z M18.875,3h26.251l1.513,11.273C42.659,10.981,37.556,9,32,9s-10.659,1.981-14.638,5.273L18.875,3z"
	/>
<path d="M42,31h-9v-9c0-0.552-0.448-1-1-1s-1,0.448-1,1v10c0,0.552,0.448,1,1,1h10c0.552,0,1-0.448,1-1S42.552,31,42,31z"/>
</svg>
