<?xml version="1.0" encoding="utf-8"?>
<!-- Generator: Adobe Illustrator 20.1.0, SVG Export Plug-In . SVG Version: 6.00 Build 0)  -->
<!DOCTYPE svg PUBLIC "-//W3C//DTD SVG 1.1//EN" "http://www.w3.org/Graphics/SVG/1.1/DTD/svg11.dtd">
<svg version="1.1" id="Layer_1" xmlns="http://www.w3.org/2000/svg" xmlns:xlink="http://www.w3.org/1999/xlink" x="0px" y="0px"
	 width="64px" height="64px" viewBox="0 0 64 64" enable-background="new 0 0 64 64" xml:space="preserve">
<path d="M62,15H2c-0.552,0-1,0.447-1,1v32c0,0.553,0.448,1,1,1h60c0.552,0,1-0.447,1-1V16C63,15.447,62.552,15,62,15z M61,47H3V17
	h58V47z"/>
<path d="M12,27h4c0.552,0,1-0.447,1-1s-0.448-1-1-1h-4c-0.552,0-1,0.447-1,1S11.448,27,12,27z"/>
<path d="M24,27h4c0.552,0,1-0.447,1-1s-0.448-1-1-1h-4c-0.552,0-1,0.447-1,1S23.448,27,24,27z"/>
<path d="M36,27h4c0.552,0,1-0.447,1-1s-0.448-1-1-1h-4c-0.552,0-1,0.447-1,1S35.448,27,36,27z"/>
<path d="M48,27h4c0.552,0,1-0.447,1-1s-0.448-1-1-1h-4c-0.552,0-1,0.447-1,1S47.448,27,48,27z"/>
<path d="M12,39h4c0.552,0,1-0.447,1-1s-0.448-1-1-1h-4c-0.552,0-1,0.447-1,1S11.448,39,12,39z"/>
<path d="M24,39h16c0.552,0,1-0.447,1-1s-0.448-1-1-1H24c-0.552,0-1,0.447-1,1S23.448,39,24,39z"/>
<path d="M48,39h4c0.552,0,1-0.447,1-1s-0.448-1-1-1h-4c-0.552,0-1,0.447-1,1S47.448,39,48,39z"/>
</svg>
