<?xml version="1.0" encoding="utf-8"?>
<!-- Generator: Adobe Illustrator 20.1.0, SVG Export Plug-In . SVG Version: 6.00 Build 0)  -->
<!DOCTYPE svg PUBLIC "-//W3C//DTD SVG 1.1//EN" "http://www.w3.org/Graphics/SVG/1.1/DTD/svg11.dtd">
<svg version="1.1" id="Layer_1" xmlns="http://www.w3.org/2000/svg" xmlns:xlink="http://www.w3.org/1999/xlink" x="0px" y="0px"
	 width="64px" height="64px" viewBox="0 0 64 64" enable-background="new 0 0 64 64" xml:space="preserve">
<path d="M56,30c0.552,0,1-0.447,1-1V9c0-2.757-2.243-5-5-5H12C9.243,4,7,6.243,7,9v28c0,0.553,0.448,1,1,1s1-0.447,1-1V9
	c0-1.654,1.346-3,3-3h40c1.654,0,3,1.346,3,3v20C55,29.553,55.448,30,56,30z"/>
<path d="M30,10c-0.552,0-1,0.447-1,1s0.448,1,1,1h4c0.552,0,1-0.447,1-1s-0.448-1-1-1H30z"/>
<path d="M1,43c0,4.963,4.038,9,9,9h22c0.552,0,1-0.447,1-1s-0.448-1-1-1H10c-3.521,0-6.442-2.612-6.929-6H32c0.552,0,1-0.447,1-1
	s-0.448-1-1-1H2C1.448,42,1,42.447,1,43z"/>
<path d="M54,46h-3v-3c0-0.553-0.448-1-1-1s-1,0.447-1,1v3h-3c-0.552,0-1,0.447-1,1s0.448,1,1,1h3v3c0,0.553,0.448,1,1,1s1-0.447,1-1
	v-3h3c0.552,0,1-0.447,1-1S54.552,46,54,46z"/>
<path d="M50,34c-7.168,0-13,5.832-13,13s5.832,13,13,13s13-5.832,13-13S57.168,34,50,34z M50,58c-6.065,0-11-4.935-11-11
	s4.935-11,11-11s11,4.935,11,11S56.065,58,50,58z"/>
</svg>
