<?xml version="1.0" encoding="utf-8"?>
<!-- Generator: Adobe Illustrator 20.1.0, SVG Export Plug-In . SVG Version: 6.00 Build 0)  -->
<!DOCTYPE svg PUBLIC "-//W3C//DTD SVG 1.1//EN" "http://www.w3.org/Graphics/SVG/1.1/DTD/svg11.dtd">
<svg version="1.1" id="Layer_1" xmlns="http://www.w3.org/2000/svg" xmlns:xlink="http://www.w3.org/1999/xlink" x="0px" y="0px"
	 width="64px" height="64px" viewBox="0 0 64 64" enable-background="new 0 0 64 64" xml:space="preserve">
<path d="M15,36h34c0.552,0,1-0.448,1-1V13c0-0.552-0.448-1-1-1H15c-0.552,0-1,0.448-1,1v22C14,35.552,14.448,36,15,36z M16,14h32v20
	H16V14z"/>
<path d="M4.886,59h54.228c0.984,0,1.906-0.483,2.466-1.291c0.561-0.809,0.689-1.841,0.344-2.762L57,41.818V10c0-2.757-2.243-5-5-5
	H12c-2.757,0-5,2.243-5,5v31.818L2.077,54.947C1.731,55.868,1.86,56.9,2.42,57.709C2.98,58.517,3.902,59,4.886,59z M12,7h40
	c1.654,0,3,1.346,3,3v31H9V10C9,8.346,10.346,7,12,7z M3.95,55.649L8.693,43h46.614l4.743,12.649
	c0.117,0.312,0.075,0.647-0.114,0.92C59.747,56.843,59.447,57,59.114,57H4.886c-0.333,0-0.633-0.157-0.822-0.431
	C3.875,56.296,3.833,55.96,3.95,55.649z"/>
</svg>
