<?xml version="1.0" encoding="utf-8"?>
<!-- Generator: Adobe Illustrator 20.1.0, SVG Export Plug-In . SVG Version: 6.00 Build 0)  -->
<!DOCTYPE svg PUBLIC "-//W3C//DTD SVG 1.1//EN" "http://www.w3.org/Graphics/SVG/1.1/DTD/svg11.dtd">
<svg version="1.1" id="Layer_1" xmlns="http://www.w3.org/2000/svg" xmlns:xlink="http://www.w3.org/1999/xlink" x="0px" y="0px"
	 width="64px" height="64px" viewBox="0 0 64 64" enable-background="new 0 0 64 64" xml:space="preserve">
<path d="M24,9h4c0.552,0,1-0.448,1-1s-0.448-1-1-1h-4c-0.552,0-1,0.448-1,1S23.448,9,24,9z"/>
<path d="M4,6v52c0,2.757,2.243,5,5,5h21c0.552,0,1-0.447,1-1s-0.448-1-1-1H9c-1.654,0-3-1.346-3-3V47h30c0.552,0,1-0.447,1-1
	s-0.448-1-1-1H6V15h40v20c0,0.553,0.448,1,1,1s1-0.447,1-1V6c0-2.757-2.243-5-5-5H9C6.243,1,4,3.243,4,6z M9,3h34
	c1.654,0,3,1.346,3,3v7H6V6C6,4.346,7.346,3,9,3z"/>
<path d="M60.707,42.293l-5-5c-0.391-0.391-1.023-0.391-1.414,0l-17,17c-0.147,0.147-0.245,0.337-0.279,0.543l-1,6
	c-0.053,0.318,0.051,0.643,0.279,0.871C36.482,61.896,36.737,62,37,62c0.055,0,0.109-0.005,0.165-0.014l6-1
	c0.206-0.034,0.395-0.132,0.542-0.279l17-17C61.098,43.316,61.098,42.684,60.707,42.293z M42.52,59.066l-4.303,0.717l0.717-4.303
	L55,39.414L58.586,43L42.52,59.066z"/>
</svg>
