<?xml version="1.0" encoding="utf-8"?>
<!-- Generator: Adobe Illustrator 20.1.0, SVG Export Plug-In . SVG Version: 6.00 Build 0)  -->
<!DOCTYPE svg PUBLIC "-//W3C//DTD SVG 1.1//EN" "http://www.w3.org/Graphics/SVG/1.1/DTD/svg11.dtd">
<svg version="1.1" id="Layer_1" xmlns="http://www.w3.org/2000/svg" xmlns:xlink="http://www.w3.org/1999/xlink" x="0px" y="0px"
	 width="64px" height="64px" viewBox="0 0 64 64" enable-background="new 0 0 64 64" xml:space="preserve">
<path d="M24,9h4c0.553,0,1-0.448,1-1s-0.447-1-1-1h-4c-0.553,0-1,0.448-1,1S23.447,9,24,9z"/>
<path d="M4,6v52c0,2.757,2.243,5,5,5h24c0.553,0,1-0.448,1-1s-0.447-1-1-1H9c-1.654,0-3-1.346-3-3V47h23c0.553,0,1-0.448,1-1
	s-0.447-1-1-1H6V15h40v22.051C39.299,37.565,34,43.169,34,50c0,7.168,5.832,13,13,13s13-5.832,13-13c0-6.831-5.299-12.435-12-12.949
	V6c0-2.757-2.243-5-5-5H9C6.243,1,4,3.243,4,6z M58,50c0,6.065-4.935,11-11,11s-11-4.935-11-11s4.935-11,11-11S58,43.935,58,50z
	 M9,3h34c1.654,0,3,1.346,3,3v7H6V6C6,4.346,7.346,3,9,3z"/>
<path d="M46,46v3h-3c-0.553,0-1,0.448-1,1s0.447,1,1,1h3v3c0,0.552,0.447,1,1,1s1-0.448,1-1v-3h3c0.553,0,1-0.448,1-1s-0.447-1-1-1
	h-3v-3c0-0.552-0.447-1-1-1S46,45.448,46,46z"/>
</svg>
