<?xml version="1.0" encoding="utf-8"?>
<!-- Generator: Adobe Illustrator 20.1.0, SVG Export Plug-In . SVG Version: 6.00 Build 0)  -->
<!DOCTYPE svg PUBLIC "-//W3C//DTD SVG 1.1//EN" "http://www.w3.org/Graphics/SVG/1.1/DTD/svg11.dtd">
<svg version="1.1" id="Layer_1" xmlns="http://www.w3.org/2000/svg" xmlns:xlink="http://www.w3.org/1999/xlink" x="0px" y="0px"
	 width="64px" height="64px" viewBox="0 0 64 64" enable-background="new 0 0 64 64" xml:space="preserve">
<path d="M32,35c-3.859,0-7,3.14-7,7s3.141,7,7,7c0.553,0,1-0.448,1-1s-0.447-1-1-1c-2.757,0-5-2.243-5-5s2.243-5,5-5
	c1.417,0,2.773,0.605,3.722,1.661c0.368,0.41,1.002,0.443,1.412,0.076c0.411-0.369,0.445-1.001,0.076-1.413
	C35.883,35.847,33.984,35,32,35z"/>
<path d="M47.557,27.444c0.256,0,0.512-0.098,0.707-0.293c0.391-0.391,0.391-1.023,0-1.414C43.92,21.393,38.144,19,32,19
	s-11.92,2.393-16.264,6.737c-0.391,0.391-0.391,1.023,0,1.414s1.023,0.391,1.414,0C21.117,23.185,26.391,21,32,21
	s10.883,2.185,14.85,6.151C47.045,27.346,47.301,27.444,47.557,27.444z"/>
<path d="M5.483,15.983C12.565,8.901,21.982,5,32,5s19.435,3.901,26.517,10.983c0.195,0.195,0.451,0.293,0.707,0.293
	s0.512-0.098,0.707-0.293c0.391-0.391,0.391-1.023,0-1.414C52.471,7.109,42.552,3,32,3S11.529,7.109,4.069,14.569
	c-0.391,0.391-0.391,1.023,0,1.414S5.093,16.374,5.483,15.983z"/>
<circle cx="50" cy="55" r="2"/>
<path d="M57,47v-7c0-3.86-3.141-7-7-7s-7,3.14-7,7v7h-3c-0.553,0-1,0.448-1,1v14c0,0.552,0.447,1,1,1h20c0.553,0,1-0.448,1-1V48
	c0-0.552-0.447-1-1-1H57z M45,40c0-2.757,2.243-5,5-5s5,2.243,5,5v7H45V40z M59,61H41V49h18V61z"/>
</svg>
