<?xml version="1.0" encoding="utf-8"?>
<!-- Generator: Adobe Illustrator 20.1.0, SVG Export Plug-In . SVG Version: 6.00 Build 0)  -->
<!DOCTYPE svg PUBLIC "-//W3C//DTD SVG 1.1//EN" "http://www.w3.org/Graphics/SVG/1.1/DTD/svg11.dtd">
<svg version="1.1" id="Layer_1" xmlns="http://www.w3.org/2000/svg" xmlns:xlink="http://www.w3.org/1999/xlink" x="0px" y="0px"
	 width="64px" height="64px" viewBox="0 0 64 64" enable-background="new 0 0 64 64" xml:space="preserve">
<path d="M49,53c0-0.553-0.448-1-1-1s-1,0.447-1,1c0,4.411-3.589,8-8,8s-8-3.589-8-8c0-0.553-0.448-1-1-1s-1,0.447-1,1
	c0,5.514,4.486,10,10,10S49,58.514,49,53z"/>
<path d="M62,15H49V8c0-0.553-0.448-1-1-1s-1,0.447-1,1v7H31v-4c0-5.514-4.486-10-10-10S11,5.486,11,11v4H2c-0.552,0-1,0.447-1,1v32
	c0,0.553,0.448,1,1,1h60c0.552,0,1-0.447,1-1V16C63,15.447,62.552,15,62,15z M13,11c0-4.411,3.589-8,8-8s8,3.589,8,8v4H13V11z
	 M61,47H3V17h58V47z"/>
<path d="M16,25h-4c-0.552,0-1,0.447-1,1s0.448,1,1,1h4c0.552,0,1-0.447,1-1S16.552,25,16,25z"/>
<path d="M24,27h4c0.552,0,1-0.447,1-1s-0.448-1-1-1h-4c-0.552,0-1,0.447-1,1S23.448,27,24,27z"/>
<path d="M40,25h-4c-0.552,0-1,0.447-1,1s0.448,1,1,1h4c0.552,0,1-0.447,1-1S40.552,25,40,25z"/>
<path d="M47,26c0,0.553,0.448,1,1,1h4c0.552,0,1-0.447,1-1s-0.448-1-1-1h-4C47.448,25,47,25.447,47,26z"/>
<path d="M16,37h-4c-0.552,0-1,0.447-1,1s0.448,1,1,1h4c0.552,0,1-0.447,1-1S16.552,37,16,37z"/>
<path d="M40,37H24c-0.552,0-1,0.447-1,1s0.448,1,1,1h16c0.552,0,1-0.447,1-1S40.552,37,40,37z"/>
<path d="M52,37h-4c-0.552,0-1,0.447-1,1s0.448,1,1,1h4c0.552,0,1-0.447,1-1S52.552,37,52,37z"/>
</svg>
