<?xml version="1.0" encoding="utf-8"?>
<!-- Generator: Adobe Illustrator 20.1.0, SVG Export Plug-In . SVG Version: 6.00 Build 0)  -->
<!DOCTYPE svg PUBLIC "-//W3C//DTD SVG 1.1//EN" "http://www.w3.org/Graphics/SVG/1.1/DTD/svg11.dtd">
<svg version="1.1" id="Layer_1" xmlns="http://www.w3.org/2000/svg" xmlns:xlink="http://www.w3.org/1999/xlink" x="0px" y="0px"
	 width="64px" height="64px" viewBox="0 0 64 64" enable-background="new 0 0 64 64" xml:space="preserve">
<path d="M32,1C14.906,1,1,14.907,1,32s13.906,31,31,31s31-13.907,31-31S49.094,1,32,1z M32,61C16.01,61,3,47.991,3,32S16.01,3,32,3
	s29,13.009,29,29S47.99,61,32,61z"/>
<path d="M24.933,11.136c-0.201-0.515-0.784-0.767-1.295-0.568c-5.973,2.333-10.736,7.095-13.069,13.068
	c-0.201,0.514,0.054,1.094,0.567,1.295C11.256,24.978,11.379,25,11.5,25c0.399,0,0.777-0.242,0.932-0.637
	c2.13-5.454,6.479-9.803,11.933-11.932C24.879,12.23,25.134,11.65,24.933,11.136z"/>
<path d="M32,23c-4.963,0-9,4.038-9,9s4.037,9,9,9s9-4.038,9-9S36.963,23,32,23z M32,39c-3.859,0-7-3.14-7-7s3.141-7,7-7s7,3.14,7,7
	S35.859,39,32,39z"/>
</svg>
