<?xml version="1.0" encoding="utf-8"?>
<!-- Generator: Adobe Illustrator 20.1.0, SVG Export Plug-In . SVG Version: 6.00 Build 0)  -->
<!DOCTYPE svg PUBLIC "-//W3C//DTD SVG 1.1//EN" "http://www.w3.org/Graphics/SVG/1.1/DTD/svg11.dtd">
<svg version="1.1" id="Layer_1" xmlns="http://www.w3.org/2000/svg" xmlns:xlink="http://www.w3.org/1999/xlink" x="0px" y="0px"
	 width="64px" height="64px" viewBox="0 0 64 64" enable-background="new 0 0 64 64" xml:space="preserve">
<path d="M29.334,2.464C28.39,1.52,27.135,1,25.799,1s-2.591,0.52-3.535,1.464L2.465,22.264C1.521,23.208,1,24.463,1,25.799
	c0,1.336,0.521,2.591,1.465,3.536l32.201,32.201C35.61,62.48,36.865,63,38.201,63s2.591-0.52,3.535-1.464l19.799-19.799
	c0.944-0.944,1.465-2.2,1.465-3.535c0-1.336-0.521-2.591-1.465-3.536L29.334,2.464z M8.187,32.228L32.228,8.186l19.586,19.586
	L27.772,51.814L8.187,32.228z M3,25.799c0-0.801,0.312-1.554,0.879-2.121L23.678,3.878C24.244,3.312,24.997,3,25.799,3
	s1.555,0.312,2.121,0.878l2.894,2.894L6.772,30.814L3.879,27.92C3.312,27.354,3,26.601,3,25.799z M60.121,40.322L40.322,60.122
	c-1.133,1.133-3.109,1.133-4.242,0l-6.894-6.894l24.041-24.042l6.894,6.894C60.688,36.646,61,37.399,61,38.201
	C61,39.002,60.688,39.755,60.121,40.322z"/>
<path d="M18,61C9.729,61,3,54.271,3,46c0-0.552-0.447-1-1-1s-1,0.448-1,1c0,9.374,7.626,17,17,17c0.553,0,1-0.448,1-1
	S18.553,61,18,61z"/>
<path d="M46,1c-0.553,0-1,0.448-1,1s0.447,1,1,1c8.271,0,15,6.729,15,15c0,0.552,0.447,1,1,1s1-0.448,1-1C63,8.626,55.374,1,46,1z"
	/>
</svg>
