<?xml version="1.0" encoding="utf-8"?>
<!-- Generator: Adobe Illustrator 20.1.0, SVG Export Plug-In . SVG Version: 6.00 Build 0)  -->
<!DOCTYPE svg PUBLIC "-//W3C//DTD SVG 1.1//EN" "http://www.w3.org/Graphics/SVG/1.1/DTD/svg11.dtd">
<svg version="1.1" id="Layer_1" xmlns="http://www.w3.org/2000/svg" xmlns:xlink="http://www.w3.org/1999/xlink" x="0px" y="0px"
	 width="64px" height="64px" viewBox="0 0 64 64" enable-background="new 0 0 64 64" xml:space="preserve">
<path d="M42.707,1.293C42.52,1.105,42.265,1,42,1H8C7.448,1,7,1.448,7,2v56c0,2.757,2.243,5,5,5h40c2.757,0,5-2.243,5-5V16
	c0-0.265-0.105-0.52-0.293-0.707L42.707,1.293z M55,58c0,1.654-1.346,3-3,3H12c-1.654,0-3-1.346-3-3V3h32.586L55,16.414V58z"/>
<path d="M17,30v22c0,0.552,0.448,1,1,1h28c0.552,0,1-0.448,1-1V30c0-0.552-0.448-1-1-1H18C17.448,29,17,29.448,17,30z M19,31h26v20
	H19V31z"/>
</svg>
