<?xml version="1.0" encoding="utf-8"?>
<!-- Generator: Adobe Illustrator 20.1.0, SVG Export Plug-In . SVG Version: 6.00 Build 0)  -->
<!DOCTYPE svg PUBLIC "-//W3C//DTD SVG 1.1//EN" "http://www.w3.org/Graphics/SVG/1.1/DTD/svg11.dtd">
<svg version="1.1" id="Layer_1" xmlns="http://www.w3.org/2000/svg" xmlns:xlink="http://www.w3.org/1999/xlink" x="0px" y="0px"
	 width="64px" height="64px" viewBox="0 0 64 64" enable-background="new 0 0 64 64" xml:space="preserve">
<path d="M12,28c-2.206,0-4,1.794-4,4s1.794,4,4,4s4-1.794,4-4S14.206,28,12,28z M12,34c-1.103,0-2-0.897-2-2s0.897-2,2-2
	s2,0.897,2,2S13.103,34,12,34z"/>
<path d="M58,10H6c-2.757,0-5,2.243-5,5v34c0,2.757,2.243,5,5,5h52c2.757,0,5-2.243,5-5V15C63,12.243,60.757,10,58,10z M61,49
	c0,1.654-1.346,3-3,3H6c-1.654,0-3-1.346-3-3V15c0-1.654,1.346-3,3-3h52c1.654,0,3,1.346,3,3V49z"/>
</svg>
