<?xml version="1.0" encoding="utf-8"?>
<!-- Generator: Adobe Illustrator 20.1.0, SVG Export Plug-In . SVG Version: 6.00 Build 0)  -->
<!DOCTYPE svg PUBLIC "-//W3C//DTD SVG 1.1//EN" "http://www.w3.org/Graphics/SVG/1.1/DTD/svg11.dtd">
<svg version="1.1" id="Layer_1" xmlns="http://www.w3.org/2000/svg" xmlns:xlink="http://www.w3.org/1999/xlink" x="0px" y="0px"
	 width="64px" height="64px" viewBox="0 0 64 64" enable-background="new 0 0 64 64" xml:space="preserve">
<path d="M30,15c-0.552,0-1,0.448-1,1s0.448,1,1,1h4c0.552,0,1-0.448,1-1s-0.448-1-1-1H30z"/>
<path d="M8,38c0.552,0,1-0.448,1-1V10h46v27c0,0.552,0.448,1,1,1s1-0.448,1-1V9c0-0.552-0.448-1-1-1H8C7.448,8,7,8.448,7,9v28
	C7,37.552,7.448,38,8,38z"/>
<path d="M62,42H40c-0.552,0-1,0.448-1,1v3H25v-3c0-0.552-0.448-1-1-1H2c-0.552,0-1,0.448-1,1v10c0,0.552,0.448,1,1,1h60
	c0.552,0,1-0.448,1-1V43C63,42.448,62.552,42,62,42z M61,52H3v-8h20v3c0,0.552,0.448,1,1,1h16c0.552,0,1-0.448,1-1v-3h20V52z"/>
</svg>
