<?xml version="1.0" encoding="utf-8"?>
<!-- Generator: Adobe Illustrator 20.1.0, SVG Export Plug-In . SVG Version: 6.00 Build 0)  -->
<!DOCTYPE svg PUBLIC "-//W3C//DTD SVG 1.1//EN" "http://www.w3.org/Graphics/SVG/1.1/DTD/svg11.dtd">
<svg version="1.1" id="Layer_1" xmlns="http://www.w3.org/2000/svg" xmlns:xlink="http://www.w3.org/1999/xlink" x="0px" y="0px"
	 width="64px" height="64px" viewBox="0 0 64 64" enable-background="new 0 0 64 64" xml:space="preserve">
<path d="M48,58c0.553,0,1-0.448,1-1s-0.447-1-1-1H16c-0.553,0-1,0.448-1,1s0.447,1,1,1H48z"/>
<path d="M62,6H2C1.447,6,1,6.448,1,7v42c0,0.552,0.447,1,1,1h60c0.553,0,1-0.448,1-1V7C63,6.448,62.553,6,62,6z M61,48H3V8h58V48z"
	/>
<path d="M27.528,36.882C27.676,36.961,27.838,37,28,37c0.194,0,0.388-0.057,0.555-0.168l12-8C40.833,28.646,41,28.334,41,28
	s-0.167-0.646-0.445-0.832l-12-8c-0.307-0.206-0.701-0.224-1.026-0.05S27,19.631,27,20v16C27,36.369,27.203,36.708,27.528,36.882z
	 M29,21.869L38.197,28L29,34.131V21.869z"/>
</svg>
