<?xml version="1.0" encoding="utf-8"?>
<!-- Generator: Adobe Illustrator 18.1.1, SVG Export Plug-In . SVG Version: 6.00 Build 0)  -->
<!DOCTYPE svg PUBLIC "-//W3C//DTD SVG 1.1//EN" "http://www.w3.org/Graphics/SVG/1.1/DTD/svg11.dtd">
<svg version="1.1" id="Layer_1" xmlns="http://www.w3.org/2000/svg" xmlns:xlink="http://www.w3.org/1999/xlink" x="0px" y="0px"
	 width="32px" height="32px" viewBox="0 0 32 32" enable-background="new 0 0 32 32" xml:space="preserve">
<path d="M31,9H17V4c0-2.2-1.8-4-4-4S9,1.8,9,4c0,0.6,0.4,1,1,1s1-0.4,1-1c0-1.1,0.9-2,2-2s2,0.9,2,2v5H1c-0.6,0-1,0.4-1,1v2
	c0,6.1,4.9,11,11,11v8c0,0.6,0.4,1,1,1h8c0.6,0,1-0.4,1-1v-8c6.1,0,11-4.9,11-11v-2C32,9.4,31.6,9,31,9z M30,12c0,5-4,9-9,9h-1
	c-0.6,0-1,0.4-1,1v8h-6v-8c0-0.6-0.4-1-1-1h-1c-5,0-9-4-9-9v-1h28V12z"/>
</svg>
