<?xml version="1.0" encoding="utf-8"?>
<!-- Generator: Adobe Illustrator 18.1.1, SVG Export Plug-In . SVG Version: 6.00 Build 0)  -->
<!DOCTYPE svg PUBLIC "-//W3C//DTD SVG 1.1//EN" "http://www.w3.org/Graphics/SVG/1.1/DTD/svg11.dtd">
<svg version="1.1" id="Layer_1" xmlns="http://www.w3.org/2000/svg" xmlns:xlink="http://www.w3.org/1999/xlink" x="0px" y="0px"
	 width="32px" height="32px" viewBox="0 0 32 32" enable-background="new 0 0 32 32" xml:space="preserve">
<path d="M26,0H6C2.6,0,0,4.8,0,11v20c0,0.6,0.4,1,1,1h17c0.6,0,1-0.4,1-1v-9h7c3.4,0,6-4.8,6-11S29.4,0,26,0z M6,2c1.9,0,4,3.7,4,9
	s-2.1,9-4,9s-4-3.7-4-9S4.1,2,6,2z M17,30H2V19.2C3.1,21,4.4,22,6,22h11V30z M26,20H9.5c1.5-2,2.5-5.2,2.5-9s-1-7-2.5-9H26
	c1.9,0,4,3.7,4,9S27.9,20,26,20z"/>
<path d="M6,14c0.6,0,1-0.4,1-1V9c0-0.6-0.4-1-1-1S5,8.4,5,9v4C5,13.6,5.4,14,6,14z"/>
</svg>
