<?xml version="1.0" encoding="utf-8"?>
<!-- Generator: Adobe Illustrator 18.1.1, SVG Export Plug-In . SVG Version: 6.00 Build 0)  -->
<!DOCTYPE svg PUBLIC "-//W3C//DTD SVG 1.1//EN" "http://www.w3.org/Graphics/SVG/1.1/DTD/svg11.dtd">
<svg version="1.1" id="Layer_1" xmlns="http://www.w3.org/2000/svg" xmlns:xlink="http://www.w3.org/1999/xlink" x="0px" y="0px"
	 width="32px" height="32px" viewBox="0 0 32 32" enable-background="new 0 0 32 32" xml:space="preserve">
<path d="M31,0H1C0.4,0,0,0.4,0,1v30c0,0.6,0.4,1,1,1h30c0.6,0,1-0.4,1-1V1C32,0.4,31.6,0,31,0z M30,2v2H2V2H30z M2,30V6h28v24H2z"/>
<path d="M16,9c-5,0-9,4-9,9c0,0.1,0,0.2,0,0.3c0,0.1,0,0.3,0,0.4c0.4,4.6,4.3,8.2,9,8.2c4.7,0,8.6-3.7,9-8.3c0-0.1,0-0.2,0-0.3
	c0-0.1,0-0.3,0-0.4C25,13,21,9,16,9z M16,11c3.8,0,7,3.1,7,7c-3.8,2.5-5.1,1.3-6.6-0.3c-1.5-1.5-3.4-3.4-7.2-1.2
	C9.9,13.4,12.7,11,16,11z M16,25c-3.5,0-6.5-2.6-6.9-6.1c3.3-2.4,4.3-1.4,5.9,0.1c1,1,2.3,2.3,4.4,2.3c0.9,0,2-0.3,3.2-0.9
	C21.5,23.1,19,25,16,25z"/>
</svg>
