<?xml version="1.0" encoding="utf-8"?>
<!-- Generator: Adobe Illustrator 18.1.1, SVG Export Plug-In . SVG Version: 6.00 Build 0)  -->
<!DOCTYPE svg PUBLIC "-//W3C//DTD SVG 1.1//EN" "http://www.w3.org/Graphics/SVG/1.1/DTD/svg11.dtd">
<svg version="1.1" id="Layer_1" xmlns="http://www.w3.org/2000/svg" xmlns:xlink="http://www.w3.org/1999/xlink" x="0px" y="0px"
	 width="32px" height="32px" viewBox="0 0 32 32" enable-background="new 0 0 32 32" xml:space="preserve">
<path d="M31,16H1c-0.6,0-1,0.4-1,1v13c0,0.6,0.4,1,1,1h30c0.6,0,1-0.4,1-1V17C32,16.4,31.6,16,31,16z M30,29H2V18h28V29z"/>
<path d="M6,26h20c0.6,0,1-0.4,1-1s-0.4-1-1-1H6c-0.6,0-1,0.4-1,1S5.4,26,6,26z"/>
<path d="M17,11V2c0-0.6-0.4-1-1-1s-1,0.4-1,1v9c0,0.6,0.4,1,1,1S17,11.6,17,11z"/>
<path d="M10,13V8c0-0.6-0.4-1-1-1S8,7.4,8,8v5c0,0.6,0.4,1,1,1S10,13.6,10,13z"/>
<path d="M24,13V8c0-0.6-0.4-1-1-1s-1,0.4-1,1v5c0,0.6,0.4,1,1,1S24,13.6,24,13z"/>
</svg>
