<?xml version="1.0" encoding="utf-8"?>
<!-- Generator: Adobe Illustrator 18.1.1, SVG Export Plug-In . SVG Version: 6.00 Build 0)  -->
<!DOCTYPE svg PUBLIC "-//W3C//DTD SVG 1.1//EN" "http://www.w3.org/Graphics/SVG/1.1/DTD/svg11.dtd">
<svg version="1.1" id="Layer_1" xmlns="http://www.w3.org/2000/svg" xmlns:xlink="http://www.w3.org/1999/xlink" x="0px" y="0px"
	 width="32px" height="32px" viewBox="0 0 32 32" enable-background="new 0 0 32 32" xml:space="preserve">
<path d="M27,1c-2.4,0-4.5,1.8-4.9,4.1C19.8,5.5,18,7.6,18,10c0,0.6,0.4,1,1,1h8c0,0,0,0,0,0c0.6,0,1-0.4,1-1c0-0.1,0-0.2,0-0.2
	c-0.1-2.3-1.7-4.1-3.9-4.6C24.5,3.9,25.6,3,27,3c1.7,0,3,1.3,3,3v12H1c-0.6,0-1,0.4-1,1v1.7c0,4.5,3.6,8.1,8,8.3v2c0,0.6,0.4,1,1,1
	s1-0.4,1-1v-2h12v2c0,0.6,0.4,1,1,1s1-0.4,1-1v-2c4.4-0.2,8-3.8,8-8.3V19V6C32,3.2,29.8,1,27,1z M25.8,9h-5.7c0.4-1.2,1.5-2,2.8-2
	S25.4,7.8,25.8,9z M30,20.7c0,3.5-2.8,6.3-6.3,6.3H8.3C4.8,27,2,24.2,2,20.7V20h28V20.7z"/>
<path d="M19,16c0.6,0,1-0.4,1-1v-1c0-0.6-0.4-1-1-1s-1,0.4-1,1v1C18,15.6,18.4,16,19,16z"/>
<path d="M24,15v-1c0-0.6-0.4-1-1-1s-1,0.4-1,1v1c0,0.6,0.4,1,1,1S24,15.6,24,15z"/>
<path d="M28,15v-1c0-0.6-0.4-1-1-1s-1,0.4-1,1v1c0,0.6,0.4,1,1,1S28,15.6,28,15z"/>
</svg>
