<?xml version="1.0" encoding="utf-8"?>
<!-- Generator: Adobe Illustrator 18.1.1, SVG Export Plug-In . SVG Version: 6.00 Build 0)  -->
<!DOCTYPE svg PUBLIC "-//W3C//DTD SVG 1.1//EN" "http://www.w3.org/Graphics/SVG/1.1/DTD/svg11.dtd">
<svg version="1.1" id="Layer_1" xmlns="http://www.w3.org/2000/svg" xmlns:xlink="http://www.w3.org/1999/xlink" x="0px" y="0px"
	 width="32px" height="32px" viewBox="0 0 32 32" enable-background="new 0 0 32 32" xml:space="preserve">
<path d="M19,15h5c0.6,0,1-0.4,1-1s-0.4-1-1-1h-5c-0.6,0-1,0.4-1,1S18.4,15,19,15z"/>
<path d="M6,15h1c0.6,0,1-0.4,1-1s-0.4-1-1-1H6c-0.6,0-1,0.4-1,1S5.4,15,6,15z"/>
<path d="M31,3H1C0.4,3,0,3.4,0,4v20c0,0.6,0.4,1,1,1h1v2c0,0.6,0.4,1,1,1s1-0.4,1-1v-2h24v2c0,0.6,0.4,1,1,1s1-0.4,1-1v-2h1
	c0.6,0,1-0.4,1-1V4C32,3.4,31.6,3,31,3z M2,5h9v18H2V5z M30,23H13V5h17V23z"/>
</svg>
