<?xml version="1.0" encoding="utf-8"?>
<!-- Generator: Adobe Illustrator 18.1.1, SVG Export Plug-In . SVG Version: 6.00 Build 0)  -->
<!DOCTYPE svg PUBLIC "-//W3C//DTD SVG 1.1//EN" "http://www.w3.org/Graphics/SVG/1.1/DTD/svg11.dtd">
<svg version="1.1" id="Layer_1" xmlns="http://www.w3.org/2000/svg" xmlns:xlink="http://www.w3.org/1999/xlink" x="0px" y="0px"
	 width="32px" height="32px" viewBox="0 0 32 32" enable-background="new 0 0 32 32" xml:space="preserve">
<path d="M31,18h-3V1c0-0.6-0.4-1-1-1H5C4.4,0,4,0.4,4,1v17H1c-0.6,0-1,0.4-1,1v5v7c0,0.6,0.4,1,1,1s1-0.4,1-1v-6h4v3
	c0,0.6,0.4,1,1,1s1-0.4,1-1v-3h16v3c0,0.6,0.4,1,1,1s1-0.4,1-1v-3h4v6c0,0.6,0.4,1,1,1s1-0.4,1-1v-7v-5C32,18.4,31.6,18,31,18z M6,2
	h20v16H6V2z M2,20h28v3H2V20z"/>
</svg>
