<?xml version="1.0" encoding="utf-8"?>
<!-- Generator: Adobe Illustrator 18.1.1, SVG Export Plug-In . SVG Version: 6.00 Build 0)  -->
<!DOCTYPE svg PUBLIC "-//W3C//DTD SVG 1.1//EN" "http://www.w3.org/Graphics/SVG/1.1/DTD/svg11.dtd">
<svg version="1.1" id="Layer_1" xmlns="http://www.w3.org/2000/svg" xmlns:xlink="http://www.w3.org/1999/xlink" x="0px" y="0px"
	 width="32px" height="32px" viewBox="0 0 32 32" enable-background="new 0 0 32 32" xml:space="preserve">
<path d="M31,14h-2V4c0-0.6-0.4-1-1-1s-1,0.4-1,1v2H5V4c0-0.6-0.4-1-1-1S3,3.4,3,4v10H1c-0.6,0-1,0.4-1,1v8v5c0,0.6,0.4,1,1,1
	s1-0.4,1-1v-4h28v4c0,0.6,0.4,1,1,1s1-0.4,1-1v-5v-8C32,14.4,31.6,14,31,14z M27,14H17V8h10V14z M5,8h10v6H5V8z M2,16h28v6H2V16z"/>
</svg>
