<?xml version="1.0" encoding="utf-8"?>
<!-- Generator: Adobe Illustrator 18.1.1, SVG Export Plug-In . SVG Version: 6.00 Build 0)  -->
<!DOCTYPE svg PUBLIC "-//W3C//DTD SVG 1.1//EN" "http://www.w3.org/Graphics/SVG/1.1/DTD/svg11.dtd">
<svg version="1.1" id="Layer_1" xmlns="http://www.w3.org/2000/svg" xmlns:xlink="http://www.w3.org/1999/xlink" x="0px" y="0px"
	 width="32px" height="32px" viewBox="0 0 32 32" enable-background="new 0 0 32 32" xml:space="preserve">
<path d="M16,26c-0.6,0-1,0.4-1,1v3c0,0.6,0.4,1,1,1s1-0.4,1-1v-3C17,26.4,16.6,26,16,26z"/>
<path d="M11,24c-0.6,0-1,0.4-1,1v2c0,0.6,0.4,1,1,1s1-0.4,1-1v-2C12,24.4,11.6,24,11,24z"/>
<path d="M21,24c-0.6,0-1,0.4-1,1v2c0,0.6,0.4,1,1,1s1-0.4,1-1v-2C22,24.4,21.6,24,21,24z"/>
<path d="M28,16c0-6.3-4.9-11.4-11-11.9V2c0-0.6-0.4-1-1-1s-1,0.4-1,1v2.1C8.9,4.6,4,9.7,4,16c-1.7,0-3,1.3-3,3s1.3,3,3,3h24
	c1.7,0,3-1.3,3-3S29.7,16,28,16z M16,6c5.5,0,10,4.5,10,10H6C6,10.5,10.5,6,16,6z M28,20H4c-0.6,0-1-0.4-1-1s0.4-1,1-1h24
	c0.6,0,1,0.4,1,1S28.6,20,28,20z"/>
</svg>
