<?xml version="1.0" encoding="utf-8"?>
<!-- Generator: Adobe Illustrator 19.1.0, SVG Export Plug-In . SVG Version: 6.00 Build 0)  -->
<!DOCTYPE svg PUBLIC "-//W3C//DTD SVG 1.1//EN" "http://www.w3.org/Graphics/SVG/1.1/DTD/svg11.dtd">
<svg version="1.1" id="Layer_1" xmlns="http://www.w3.org/2000/svg" xmlns:xlink="http://www.w3.org/1999/xlink" x="0px" y="0px"
	 width="64px" height="64px" viewBox="0 0 64 64" enable-background="new 0 0 64 64" xml:space="preserve">
<path id="color_67_" d="M10,41c0.6,0,1-0.4,1-1v-7h20v7c0,0.6,0.4,1,1,1s1-0.4,1-1v-7h20v7c0,0.6,0.4,1,1,1s1-0.4,1-1v-8
	c0-0.6-0.4-1-1-1H33v-7c0-0.6-0.4-1-1-1s-1,0.4-1,1v7H10c-0.6,0-1,0.4-1,1v8C9,40.6,9.4,41,10,41z"/>
<path d="M10,45c-3.9,0-7,3.1-7,7s3.1,7,7,7s7-3.1,7-7S13.9,45,10,45z"/>
<path d="M32,45c-3.9,0-7,3.1-7,7s3.1,7,7,7s7-3.1,7-7S35.9,45,32,45z"/>
<path d="M54,45c-3.9,0-7,3.1-7,7s3.1,7,7,7s7-3.1,7-7S57.9,45,54,45z"/>
<path d="M26,19h12c0.6,0,1-0.4,1-1V8c0-0.6-0.4-1-1-1H26c-0.6,0-1,0.4-1,1v10C25,18.6,25.4,19,26,19z"/>
</svg>
