<?xml version="1.0" encoding="utf-8"?>
<!-- Generator: Adobe Illustrator 19.1.0, SVG Export Plug-In . SVG Version: 6.00 Build 0)  -->
<!DOCTYPE svg PUBLIC "-//W3C//DTD SVG 1.1//EN" "http://www.w3.org/Graphics/SVG/1.1/DTD/svg11.dtd">
<svg version="1.1" id="Layer_1" xmlns="http://www.w3.org/2000/svg" xmlns:xlink="http://www.w3.org/1999/xlink" x="0px" y="0px"
	 width="64px" height="64px" viewBox="0 0 64 64" enable-background="new 0 0 64 64" xml:space="preserve">
<path d="M61.2,24.4L39.6,2.8c-0.4-0.4-1-0.4-1.4,0c-2.5,2.5-2.7,6.4-0.8,9.1l-20.5,13l22.2,22.2l13-20.4c1.2,0.8,2.6,1.3,4.1,1.3
	c1.9,0,3.7-0.7,5-2.1C61.6,25.5,61.6,24.8,61.2,24.4z"/>
<path id="color_1_" d="M39.6,50.4l-26-26c-1.3-1.3-3.1-2.1-5-2.1c-1.9,0-3.7,0.7-5,2.1c-0.4,0.4-0.4,1,0,1.4l16.6,16.6L2.8,59.8
	c-0.4,0.4-0.4,1,0,1.4c0.2,0.2,0.5,0.3,0.7,0.3s0.5-0.1,0.7-0.3l17.3-17.3l16.6,16.6c0.2,0.2,0.5,0.3,0.7,0.3s0.5-0.1,0.7-0.3
	c1.3-1.3,2.1-3.1,2.1-5C41.6,53.5,40.9,51.8,39.6,50.4z"/>
</svg>
