<?xml version="1.0" encoding="utf-8"?>
<!-- Generator: Adobe Illustrator 19.1.0, SVG Export Plug-In . SVG Version: 6.00 Build 0)  -->
<!DOCTYPE svg PUBLIC "-//W3C//DTD SVG 1.1//EN" "http://www.w3.org/Graphics/SVG/1.1/DTD/svg11.dtd">
<svg version="1.1" id="Layer_1" xmlns="http://www.w3.org/2000/svg" xmlns:xlink="http://www.w3.org/1999/xlink" x="0px" y="0px"
	 width="64px" height="64px" viewBox="0 0 64 64" enable-background="new 0 0 64 64" xml:space="preserve">
<path d="M58,33H43V16c0-0.6-0.4-1-1-1h-5v-5c0-0.6-0.4-1-1-1h-3V2c0-0.6-0.4-1-1-1s-1,0.4-1,1v7h-3c-0.6,0-1,0.4-1,1v5h-5
	c-0.6,0-1,0.4-1,1v23H6c-0.6,0-1,0.4-1,1v22c0,0.6,0.4,1,1,1h52c0.6,0,1-0.4,1-1V34C59,33.4,58.6,33,58,33z M14,55h-2
	c-0.6,0-1-0.4-1-1s0.4-1,1-1h2c0.6,0,1,0.4,1,1S14.6,55,14,55z M14,49h-2c-0.6,0-1-0.4-1-1s0.4-1,1-1h2c0.6,0,1,0.4,1,1
	S14.6,49,14,49z M22,55h-2c-0.6,0-1-0.4-1-1s0.4-1,1-1h2c0.6,0,1,0.4,1,1S22.6,55,22,55z M22,49h-2c-0.6,0-1-0.4-1-1s0.4-1,1-1h2
	c0.6,0,1,0.4,1,1S22.6,49,22,49z M35,34v27h-6V40c0-0.6-0.4-1-1-1h-5V17h5c0.6,0,1-0.4,1-1v-5h6v5c0,0.6,0.4,1,1,1h5v16h-5
	C35.4,33,35,33.4,35,34z M44,55h-2c-0.6,0-1-0.4-1-1s0.4-1,1-1h2c0.6,0,1,0.4,1,1S44.6,55,44,55z M44,49h-2c-0.6,0-1-0.4-1-1
	s0.4-1,1-1h2c0.6,0,1,0.4,1,1S44.6,49,44,49z M44,43h-2c-0.6,0-1-0.4-1-1s0.4-1,1-1h2c0.6,0,1,0.4,1,1S44.6,43,44,43z M52,55h-2
	c-0.6,0-1-0.4-1-1s0.4-1,1-1h2c0.6,0,1,0.4,1,1S52.6,55,52,55z M52,49h-2c-0.6,0-1-0.4-1-1s0.4-1,1-1h2c0.6,0,1,0.4,1,1
	S52.6,49,52,49z M52,43h-2c-0.6,0-1-0.4-1-1s0.4-1,1-1h2c0.6,0,1,0.4,1,1S52.6,43,52,43z"/>
</svg>
