<?xml version="1.0" encoding="utf-8"?>
<!-- Generator: Adobe Illustrator 19.1.0, SVG Export Plug-In . SVG Version: 6.00 Build 0)  -->
<!DOCTYPE svg PUBLIC "-//W3C//DTD SVG 1.1//EN" "http://www.w3.org/Graphics/SVG/1.1/DTD/svg11.dtd">
<svg version="1.1" id="Layer_1" xmlns="http://www.w3.org/2000/svg" xmlns:xlink="http://www.w3.org/1999/xlink" x="0px" y="0px"
	 width="64px" height="64px" viewBox="0 0 64 64" enable-background="new 0 0 64 64" xml:space="preserve">
<path d="M42,25H22c-0.6,0-1-0.4-1-1s0.4-1,1-1h20c0.6,0,1,0.4,1,1S42.6,25,42,25z"/>
<path d="M42,33H22c-0.6,0-1-0.4-1-1s0.4-1,1-1h20c0.6,0,1,0.4,1,1S42.6,33,42,33z"/>
<path d="M30,41h-8c-0.6,0-1-0.4-1-1s0.4-1,1-1h8c0.6,0,1,0.4,1,1S30.6,41,30,41z"/>
<path d="M56,7H45v6h5c0.6,0,1,0.4,1,1v29H40c-0.6,0-1,0.4-1,1v11H14c-0.6,0-1-0.4-1-1V14c0-0.6,0.4-1,1-1h5V7H8C7.4,7,7,7.4,7,8v54
	c0,0.6,0.4,1,1,1h48c0.6,0,1-0.4,1-1V8C57,7.4,56.6,7,56,7z M41,54.4V45h9.4L41,54.4z"/>
<path id="color" d="M42,5h-5.1c-0.5-2.3-2.5-4-4.9-4s-4.4,1.7-4.9,4H22c-0.6,0-1,0.4-1,1v8c0,0.6,0.4,1,1,1h20c0.6,0,1-0.4,1-1V6
	C43,5.4,42.6,5,42,5z"/>
</svg>
