<?xml version="1.0" encoding="utf-8"?>
<!-- Generator: Adobe Illustrator 19.1.0, SVG Export Plug-In . SVG Version: 6.00 Build 0)  -->
<!DOCTYPE svg PUBLIC "-//W3C//DTD SVG 1.1//EN" "http://www.w3.org/Graphics/SVG/1.1/DTD/svg11.dtd">
<svg version="1.1" id="Layer_1" xmlns="http://www.w3.org/2000/svg" xmlns:xlink="http://www.w3.org/1999/xlink" x="0px" y="0px"
	 width="64px" height="64px" viewBox="0 0 64 64" enable-background="new 0 0 64 64" xml:space="preserve">
<path id="color_42_" d="M1,56c0,0.6,0.4,1,1,1h14c0.6,0,1-0.4,1-1V45H1V56z"/>
<path d="M16,7H2C1.4,7,1,7.4,1,8v35h16V8C17,7.4,16.6,7,16,7z M10,33H8c-0.6,0-1-0.4-1-1s0.4-1,1-1h2c0.6,0,1,0.4,1,1S10.6,33,10,33
	z M10,25H8c-0.6,0-1-0.4-1-1s0.4-1,1-1h2c0.6,0,1,0.4,1,1S10.6,25,10,25z M10,17H8c-0.6,0-1-0.4-1-1s0.4-1,1-1h2c0.6,0,1,0.4,1,1
	S10.6,17,10,17z"/>
<path id="color_41_" d="M21,56c0,0.6,0.4,1,1,1h14c0.6,0,1-0.4,1-1V45H21V56z"/>
<path d="M36,7H22c-0.6,0-1,0.4-1,1v35h16V8C37,7.4,36.6,7,36,7z M30,33h-2c-0.6,0-1-0.4-1-1s0.4-1,1-1h2c0.6,0,1,0.4,1,1
	S30.6,33,30,33z M30,25h-2c-0.6,0-1-0.4-1-1s0.4-1,1-1h2c0.6,0,1,0.4,1,1S30.6,25,30,25z M30,17h-2c-0.6,0-1-0.4-1-1s0.4-1,1-1h2
	c0.6,0,1,0.4,1,1S30.6,17,30,17z"/>
<path id="color_40_" d="M59.2,42.6l-15.8,2.8l1.9,10.8c0.1,0.5,0.5,0.8,1,0.8c0.1,0,0.1,0,0.2,0l13.8-2.4c0.3,0,0.5-0.2,0.6-0.4
	c0.2-0.2,0.2-0.5,0.2-0.7L59.2,42.6z"/>
<path d="M52.8,6.1c0-0.3-0.2-0.5-0.4-0.6s-0.5-0.2-0.7-0.2L37.8,7.7c-0.5,0.1-0.9,0.6-0.8,1.2l6.1,34.5l15.8-2.8L52.8,6.1z
	 M45.3,16.6c-0.5,0-0.9-0.3-1-0.8c-0.1-0.5,0.3-1.1,0.8-1.2l2-0.3c0.5-0.1,1.1,0.3,1.2,0.8c0.1,0.5-0.3,1.1-0.8,1.2l-2,0.3
	C45.4,16.6,45.4,16.6,45.3,16.6z M46.7,24.4c-0.5,0-0.9-0.3-1-0.8c-0.1-0.5,0.3-1.1,0.8-1.2l2-0.3c0.5-0.1,1.1,0.3,1.2,0.8
	c0.1,0.5-0.3,1.1-0.8,1.2l-2,0.3C46.8,24.4,46.7,24.4,46.7,24.4z M50.2,32l-2,0.3c-0.1,0-0.1,0-0.2,0c-0.5,0-0.9-0.3-1-0.8
	c-0.1-0.5,0.3-1.1,0.8-1.2l2-0.3c0.5-0.1,1.1,0.3,1.2,0.8C51.1,31.3,50.8,31.9,50.2,32z"/>
</svg>
