<?xml version="1.0" encoding="utf-8"?>
<!-- Generator: Adobe Illustrator 19.1.0, SVG Export Plug-In . SVG Version: 6.00 Build 0)  -->
<!DOCTYPE svg PUBLIC "-//W3C//DTD SVG 1.1//EN" "http://www.w3.org/Graphics/SVG/1.1/DTD/svg11.dtd">
<svg version="1.1" id="Layer_1" xmlns="http://www.w3.org/2000/svg" xmlns:xlink="http://www.w3.org/1999/xlink" x="0px" y="0px"
	 width="64px" height="64px" viewBox="0 0 64 64" enable-background="new 0 0 64 64" xml:space="preserve">
<path d="M31,33H1v29c0,0.6,0.4,1,1,1h29V33z M20.7,52.7C20.5,52.9,20.3,53,20,53s-0.5-0.1-0.7-0.3L16,49.4l-3.3,3.3
	C12.5,52.9,12.3,53,12,53s-0.5-0.1-0.7-0.3c-0.4-0.4-0.4-1,0-1.4l3.3-3.3l-3.3-3.3c-0.4-0.4-0.4-1,0-1.4s1-0.4,1.4,0l3.3,3.3
	l3.3-3.3c0.4-0.4,1-0.4,1.4,0s0.4,1,0,1.4L17.4,48l3.3,3.3C21.1,51.7,21.1,52.3,20.7,52.7z"/>
<path d="M31,31V1H2C1.4,1,1,1.4,1,2v29H31z M10,15h5v-5c0-0.6,0.4-1,1-1s1,0.4,1,1v5h5c0.6,0,1,0.4,1,1s-0.4,1-1,1h-5v5
	c0,0.6-0.4,1-1,1s-1-0.4-1-1v-5h-5c-0.6,0-1-0.4-1-1S9.4,15,10,15z"/>
<path d="M33,33v30h29c0.6,0,1-0.4,1-1V33H33z M54,53H44c-0.6,0-1-0.4-1-1s0.4-1,1-1h10c0.6,0,1,0.4,1,1S54.6,53,54,53z M54,45H44
	c-0.6,0-1-0.4-1-1s0.4-1,1-1h10c0.6,0,1,0.4,1,1S54.6,45,54,45z"/>
<path d="M33,31h30V2c0-0.6-0.4-1-1-1H33V31z M44,15h10c0.6,0,1,0.4,1,1s-0.4,1-1,1H44c-0.6,0-1-0.4-1-1S43.4,15,44,15z"/>
</svg>
