<?xml version="1.0" encoding="utf-8"?>
<!-- Generator: Adobe Illustrator 19.1.0, SVG Export Plug-In . SVG Version: 6.00 Build 0)  -->
<!DOCTYPE svg PUBLIC "-//W3C//DTD SVG 1.1//EN" "http://www.w3.org/Graphics/SVG/1.1/DTD/svg11.dtd">
<svg version="1.1" id="Layer_1" xmlns="http://www.w3.org/2000/svg" xmlns:xlink="http://www.w3.org/1999/xlink" x="0px" y="0px"
	 width="64px" height="64px" viewBox="0 0 64 64" enable-background="new 0 0 64 64" xml:space="preserve">
<path d="M55,34H30V9c0-0.6-0.4-1-1-1C14.1,8,2,20.1,2,35s12.1,27,27,27s27-12.1,27-27C56,34.4,55.6,34,55,34z"/>
<path id="color_78_" d="M35,2c-0.6,0-1,0.4-1,1v26c0,0.6,0.4,1,1,1h26c0.6,0,1-0.4,1-1C62,14.1,49.9,2,35,2z"/>
</svg>
