<?xml version="1.0" encoding="utf-8"?>
<!-- Generator: Adobe Illustrator 19.1.0, SVG Export Plug-In . SVG Version: 6.00 Build 0)  -->
<!DOCTYPE svg PUBLIC "-//W3C//DTD SVG 1.1//EN" "http://www.w3.org/Graphics/SVG/1.1/DTD/svg11.dtd">
<svg version="1.1" id="Layer_1" xmlns="http://www.w3.org/2000/svg" xmlns:xlink="http://www.w3.org/1999/xlink" x="0px" y="0px"
	 width="64px" height="64px" viewBox="0 0 64 64" enable-background="new 0 0 64 64" xml:space="preserve">
<path id="color_75_" d="M14.6,37L8,51c-0.2,0.3-0.1,0.7,0.1,1s0.6,0.4,0.9,0.4l8.5-1.3l4.4,7.4c0.2,0.3,0.5,0.5,0.9,0.5
	c0,0,0,0,0.1,0c0.4,0,0.7-0.2,0.9-0.6l6.4-13.5C23.9,44.4,18.4,41.4,14.6,37z"/>
<path id="color_74_" d="M56,50.8L49.4,37c-3.8,4.5-9.3,7.4-15.5,7.9l6.4,13.5c0.2,0.3,0.5,0.6,0.9,0.6c0,0,0,0,0.1,0
	c0.3,0,0.7-0.2,0.9-0.5l4.4-7.4l8.5,1.3c0,0,0.1,0,0.1,0c0,0,0,0,0,0c0.6,0,1-0.4,1-1C56.2,51.2,56.1,51,56,50.8z"/>
<path d="M32,1c-11.6,0-21,9.4-21,21s9.4,21,21,21s21-9.4,21-21S43.6,1,32,1z M42.7,20.5L38,25l1,6.4c0.1,0.4-0.1,0.8-0.4,1
	c-0.2,0.1-0.4,0.2-0.6,0.2c-0.2,0-0.3,0-0.5-0.1l-5.7-3l-5.7,3c-0.3,0.2-0.7,0.1-1.1-0.1c-0.3-0.2-0.5-0.6-0.4-1l1.1-6.4l-4.6-4.5
	c-0.3-0.3-0.4-0.7-0.2-1c0.1-0.4,0.4-0.6,0.8-0.7l6.4-0.9l2.9-5.8c0.2-0.3,0.5-0.5,0.9-0.6c0.4,0,0.7,0.2,0.9,0.6l2.8,5.8l6.4,1
	c0.4,0.1,0.7,0.3,0.8,0.7C43.1,19.9,43,20.3,42.7,20.5z"/>
</svg>
