<?xml version="1.0" encoding="utf-8"?>
<!-- Generator: Adobe Illustrator 19.1.0, SVG Export Plug-In . SVG Version: 6.00 Build 0)  -->
<!DOCTYPE svg PUBLIC "-//W3C//DTD SVG 1.1//EN" "http://www.w3.org/Graphics/SVG/1.1/DTD/svg11.dtd">
<svg version="1.1" id="Layer_1" xmlns="http://www.w3.org/2000/svg" xmlns:xlink="http://www.w3.org/1999/xlink" x="0px" y="0px"
	 width="64px" height="64px" viewBox="0 0 64 64" enable-background="new 0 0 64 64" xml:space="preserve">
<path d="M25.1,13.5c0.2,0.3,0.5,0.5,0.9,0.5h12c0.4,0,0.7-0.2,0.9-0.5l6-11c0.2-0.3,0.2-0.7,0-1C44.7,1.2,44.4,1,44,1H20
	c-0.4,0-0.7,0.2-0.9,0.5c-0.2,0.3-0.2,0.7,0,1L25.1,13.5z"/>
<path d="M47,45.7l-8-29c-0.1-0.4-0.5-0.7-1-0.7H26c-0.4,0-0.8,0.3-1,0.7l-8,29c-0.1,0.3,0,0.7,0.3,1l14,14c0.2,0.2,0.5,0.3,0.7,0.3
	s0.5-0.1,0.7-0.3l14-14C47,46.5,47.1,46.1,47,45.7z"/>
</svg>
