<?xml version="1.0" encoding="utf-8"?>
<!-- Generator: Adobe Illustrator 19.1.0, SVG Export Plug-In . SVG Version: 6.00 Build 0)  -->
<!DOCTYPE svg PUBLIC "-//W3C//DTD SVG 1.1//EN" "http://www.w3.org/Graphics/SVG/1.1/DTD/svg11.dtd">
<svg version="1.1" id="Layer_1" xmlns="http://www.w3.org/2000/svg" xmlns:xlink="http://www.w3.org/1999/xlink" x="0px" y="0px"
	 width="64px" height="64px" viewBox="0 0 64 64" enable-background="new 0 0 64 64" xml:space="preserve">
<path d="M32,1C14.9,1,1,14.9,1,32s13.9,31,31,31s31-13.9,31-31S49.1,1,32,1z M44,43c0.6,0,1,0.4,1,1s-0.4,1-1,1H33v7
	c0,0.6-0.4,1-1,1s-1-0.4-1-1v-7H20c-0.6,0-1-0.4-1-1s0.4-1,1-1h11v-6H20c-0.6,0-1-0.4-1-1s0.4-1,1-1h11v-2.7L19.2,16.6
	c-0.3-0.4-0.2-1.1,0.2-1.4c0.4-0.3,1.1-0.2,1.4,0.2L32,30.3l11.2-14.9c0.3-0.4,1-0.5,1.4-0.2c0.4,0.3,0.5,1,0.2,1.4L33,32.3V35h11
	c0.6,0,1,0.4,1,1s-0.4,1-1,1H33v6H44z"/>
</svg>
