<?xml version="1.0" encoding="utf-8"?>
<!-- Generator: Adobe Illustrator 19.1.0, SVG Export Plug-In . SVG Version: 6.00 Build 0)  -->
<!DOCTYPE svg PUBLIC "-//W3C//DTD SVG 1.1//EN" "http://www.w3.org/Graphics/SVG/1.1/DTD/svg11.dtd">
<svg version="1.1" id="Layer_1" xmlns="http://www.w3.org/2000/svg" xmlns:xlink="http://www.w3.org/1999/xlink" x="0px" y="0px"
	 width="64px" height="64px" viewBox="0 0 64 64" enable-background="new 0 0 64 64" xml:space="preserve">
<path d="M45.1,25H18.9c-0.4,4.2-3.7,7.5-7.9,7.9v9.1c4.4,0.6,7.5,4.8,7.9,8.9h26.1c0.4-4.2,3.7-7.5,7.9-7.9V32.9
	C48.8,32.5,45.5,29.2,45.1,25z M32,45c-3.9,0-7-3.1-7-7s3.1-7,7-7s7,3.1,7,7S35.9,45,32,45z"/>
<path d="M62,15H2c-0.6,0-1,0.4-1,1v44c0,0.6,0.4,1,1,1h60c0.6,0,1-0.4,1-1V16C63,15.4,62.6,15,62,15z M55,44c0,0.6-0.4,1-1,1
	c-4,0-7,3-7,7c0,0.6-0.4,1-1,1H18c-0.6,0-1-0.4-1-1c0-3.8-2.9-8-7-8c-0.6,0-1-0.4-1-1V32c0-0.6,0.4-1,1-1c4,0,7-3,7-7
	c0-0.6,0.4-1,1-1h28c0.6,0,1,0.4,1,1c0,4,3,7,7,7c0.6,0,1,0.4,1,1V44z"/>
<path id="color_93_" d="M52,11H12c-0.6,0-1-0.4-1-1s0.4-1,1-1h40c0.6,0,1,0.4,1,1S52.6,11,52,11z"/>
<path id="color_92_" d="M42,5H22c-0.6,0-1-0.4-1-1s0.4-1,1-1h20c0.6,0,1,0.4,1,1S42.6,5,42,5z"/>
</svg>
