<?xml version="1.0" encoding="utf-8"?>
<!-- Generator: Adobe Illustrator 19.1.0, SVG Export Plug-In . SVG Version: 6.00 Build 0)  -->
<!DOCTYPE svg PUBLIC "-//W3C//DTD SVG 1.1//EN" "http://www.w3.org/Graphics/SVG/1.1/DTD/svg11.dtd">
<svg version="1.1" id="Layer_1" xmlns="http://www.w3.org/2000/svg" xmlns:xlink="http://www.w3.org/1999/xlink" x="0px" y="0px"
	 width="64px" height="64px" viewBox="0 0 64 64" enable-background="new 0 0 64 64" xml:space="preserve">
<path d="M21,40.7c-1.9-2.4-3-5.4-3-8.7c0-7.4,5.7-13.4,13-13.9V3C15.5,3.6,3,16.3,3,32c0,7.2,2.6,13.8,7,18.8L21,40.7z"/>
<path d="M33,18.1c6.9,0.5,12.5,6,12.9,12.9h15C60.5,15.8,48.2,3.5,33,3V18.1z"/>
<path id="color_116_" d="M45.9,33c-0.5,7.3-6.6,13-13.9,13c-3.7,0-7.1-1.5-9.6-3.8L11.3,52.3C16.6,57.7,23.9,61,32,61
	c15.7,0,28.4-12.5,29-28H45.9z"/>
</svg>
