<?xml version="1.0" encoding="utf-8"?>
<!-- Generator: Adobe Illustrator 19.1.0, SVG Export Plug-In . SVG Version: 6.00 Build 0)  -->
<!DOCTYPE svg PUBLIC "-//W3C//DTD SVG 1.1//EN" "http://www.w3.org/Graphics/SVG/1.1/DTD/svg11.dtd">
<svg version="1.1" id="Layer_1" xmlns="http://www.w3.org/2000/svg" xmlns:xlink="http://www.w3.org/1999/xlink" x="0px" y="0px"
	 width="64px" height="64px" viewBox="0 0 64 64" enable-background="new 0 0 64 64" xml:space="preserve">
<path d="M62,31h-5.3c-2.3-1-11.4-16-11.5-19l3.1-5.2c0.3-0.5,0.1-1.1-0.3-1.4c-0.5-0.3-1.1-0.1-1.4,0.3l-2.9,4.9
	c-0.1,0.1-0.1,0.1-0.2,0.2c-0.7,0.5-4.6,1.1-11.5,1.1s-10.8-0.6-11.5-1.1c-0.1-0.1-0.1-0.1-0.2-0.2l-2.9-4.9
	c-0.3-0.5-0.9-0.6-1.4-0.3c-0.5,0.3-0.6,0.9-0.3,1.4l3.1,5.2C18.6,15,9.5,30,7.3,31H2c-0.6,0-1,0.4-1,1s0.4,1,1,1h5.3
	c2.3,1,11.4,16,11.5,19l-3.1,5.2c-0.3,0.5-0.1,1.1,0.3,1.4c0.2,0.1,0.3,0.1,0.5,0.1c0.3,0,0.7-0.2,0.9-0.5l2.9-4.9
	c0.1-0.1,0.1-0.1,0.2-0.2c0.7-0.5,4.6-1.1,11.5-1.1s10.8,0.6,11.5,1.1c0,0.1,0.1,0.1,0.2,0.1l3,4.9c0.2,0.3,0.5,0.5,0.9,0.5
	c0.2,0,0.4,0,0.5-0.1c0.5-0.3,0.6-0.9,0.3-1.4L45.2,52c0.1-2.9,9.2-18,11.5-19H62c0.6,0,1-0.4,1-1S62.6,31,62,31z M32,13.9
	c3.5,0,7.5-0.1,10.2-0.7l-4.3,7c0,0,0,0-0.1,0c-0.5,0.2-2.6,0.5-5.8,0.5s-5.3-0.3-5.8-0.5c0,0,0,0-0.1,0l-4.3-7
	C24.5,13.8,28.5,13.9,32,13.9z M30.2,31h-9.3c2-2.4,4-6,4.1-6c0.3-0.5,0.6-1,0.8-1.4L30.2,31z M27.5,22.6c1.1,0.1,2.5,0.2,4.5,0.2
	s3.4-0.1,4.5-0.2L32,30.1L27.5,22.6z M30.2,33l-4.5,7.5c-0.2-0.4-0.4-0.9-0.8-1.4c0-0.1-2.1-3.7-4.1-6H30.2z M32,33.9l4.5,7.4
	c-1.1-0.1-2.5-0.2-4.5-0.2s-3.4,0.1-4.5,0.2L32,33.9z M33.8,33h9.3c-2,2.4-4,6-4.1,6c-0.3,0.5-0.6,1-0.8,1.4L33.8,33z M33.8,31
	l4.5-7.5c0.2,0.4,0.4,0.9,0.8,1.4c0,0.1,2.1,3.7,4.1,6H33.8z M16.9,20.9c1.7-3,2.7-5.1,3.2-6.6l4.3,7.1c-0.4,1.8-5,8.7-6.3,9.6h-8
	C12.8,28,16.1,22.4,16.9,20.9z M20.1,49.7c-0.5-1.4-1.5-3.5-3.2-6.6c-0.8-1.5-4.1-7.1-6.8-10.1h8c1.3,0.8,5.9,7.8,6.3,9.6L20.1,49.7
	z M32,50.1c-3.5,0-7.5,0.1-10.2,0.7l4.3-7c0,0,0,0,0.1,0c0.5-0.2,2.6-0.5,5.8-0.5s5.3,0.3,5.8,0.5c0,0,0,0,0,0l4.3,7
	C39.5,50.2,35.5,50.1,32,50.1z M47.1,43.1c-1.7,3-2.7,5.1-3.2,6.6l-4.3-7.1c0.4-1.8,5-8.7,6.3-9.6h8C51.2,36,47.9,41.6,47.1,43.1z
	 M45.9,31c-1.3-0.8-5.9-7.8-6.3-9.6l4.3-7.1c0.5,1.4,1.5,3.5,3.2,6.6c0.8,1.5,4.1,7.1,6.8,10.1H45.9z"/>
</svg>
