<?xml version="1.0" encoding="utf-8"?>
<!-- Generator: Adobe Illustrator 19.1.0, SVG Export Plug-In . SVG Version: 6.00 Build 0)  -->
<!DOCTYPE svg PUBLIC "-//W3C//DTD SVG 1.1//EN" "http://www.w3.org/Graphics/SVG/1.1/DTD/svg11.dtd">
<svg version="1.1" id="Layer_1" xmlns="http://www.w3.org/2000/svg" xmlns:xlink="http://www.w3.org/1999/xlink" x="0px" y="0px"
	 width="64px" height="64px" viewBox="0 0 64 64" enable-background="new 0 0 64 64" xml:space="preserve">
<path d="M62,47H2c-0.6,0-1,0.4-1,1v1c0,2.2,1.8,4,4,4h54c2.2,0,4-1.8,4-4v-1C63,47.4,62.6,47,62,47z"/>
<path d="M10,45V16c0-1.1,0.9-2,2-2h40c1.1,0,2,0.9,2,2v29h4V16c0-3.3-2.7-6-6-6H12c-3.3,0-6,2.7-6,6v29H10z"/>
<path d="M32,19c-6.1,0-11,4.9-11,11s4.9,11,11,11s11-4.9,11-11H32V19z"/>
</svg>
