<?xml version="1.0" encoding="utf-8"?>
<!-- Generator: Adobe Illustrator 19.1.0, SVG Export Plug-In . SVG Version: 6.00 Build 0)  -->
<!DOCTYPE svg PUBLIC "-//W3C//DTD SVG 1.1//EN" "http://www.w3.org/Graphics/SVG/1.1/DTD/svg11.dtd">
<svg version="1.1" id="Layer_1" xmlns="http://www.w3.org/2000/svg" xmlns:xlink="http://www.w3.org/1999/xlink" x="0px" y="0px"
	 width="64px" height="64px" viewBox="0 0 64 64" enable-background="new 0 0 64 64" xml:space="preserve">
<path id="color_38_" d="M52,1h-3v62h3c2.8,0,5-2.2,5-5V6C57,3.2,54.8,1,52,1z"/>
<path d="M31,1v13c0,0.4-0.2,0.7-0.5,0.9C30.3,15,30.2,15,30,15c-0.2,0-0.4-0.1-0.6-0.2L24,11.2l-5.4,3.6c-0.3,0.2-0.7,0.2-1,0
	C17.2,14.7,17,14.4,17,14V1H8C7.4,1,7,1.4,7,2v60c0,0.6,0.4,1,1,1h39V1H31z M41,44c0,0.6-0.4,1-1,1H14c-0.6,0-1-0.4-1-1V28
	c0-0.6,0.4-1,1-1h26c0.6,0,1,0.4,1,1V44z"/>
<path d="M36,35H18c-0.6,0-1-0.4-1-1s0.4-1,1-1h18c0.6,0,1,0.4,1,1S36.6,35,36,35z"/>
<path d="M26,39h-8c-0.6,0-1-0.4-1-1s0.4-1,1-1h8c0.6,0,1,0.4,1,1S26.6,39,26,39z"/>
</svg>
