<?xml version="1.0" encoding="utf-8"?>
<!-- Generator: Adobe Illustrator 19.1.0, SVG Export Plug-In . SVG Version: 6.00 Build 0)  -->
<!DOCTYPE svg PUBLIC "-//W3C//DTD SVG 1.1//EN" "http://www.w3.org/Graphics/SVG/1.1/DTD/svg11.dtd">
<svg version="1.1" id="Layer_1" xmlns="http://www.w3.org/2000/svg" xmlns:xlink="http://www.w3.org/1999/xlink" x="0px" y="0px"
	 width="64px" height="64px" viewBox="0 0 64 64" enable-background="new 0 0 64 64" xml:space="preserve">
<path d="M60,15H49V8c0-2.8-2.2-5-5-5c-1.3,0-2.4,0.5-3.3,1.3C40,2.4,38.2,1,36,1s-4,1.4-4.7,3.3C30.4,3.5,29.3,3,28,3
	c-2.2,0-4,1.4-4.7,3.3C22.4,5.5,21.3,5,20,5c-2.8,0-5,2.2-5,5v5H4c-0.6,0-1,0.4-1,1v26c0,0.6,0.4,1,1,1h11c0,11,9,20,20,20
	s20-9,20-20h5c0.6,0,1-0.4,1-1V16C61,15.4,60.6,15,60,15z M41,8c0-1.7,1.3-3,3-3s3,1.3,3,3v7h-6V8z M33,8V6c0-1.7,1.3-3,3-3
	s3,1.3,3,3v2v7h-6V8z M32,23c3.3,0,6,2.7,6,6s-2.7,6-6,6s-6-2.7-6-6S28.7,23,32,23z M25,10V8c0-1.7,1.3-3,3-3s3,1.3,3,3v7h-6V10z
	 M17,10c0-1.7,1.3-3,3-3s3,1.3,3,3v5h-6V10z M12,25c-0.6,0-1-0.4-1-1s0.4-1,1-1h8c0.6,0,1,0.4,1,1s-0.4,1-1,1H12z M53,43
	c0,9.9-8.1,18-18,18s-18-8.1-18-18h17.5c-0.9,1.5-1.5,3.2-1.5,5c0,0.6,0.4,1,1,1s1-0.4,1-1c0-2,0.8-3.8,2.2-5.3c0,0,0,0,0.1-0.1
	c2-2.2,5.2-3.7,8.8-3.7c0.6,0,1-0.4,1-1v-6c0-3.6,2.5-6.5,6-6.9V43z"/>
</svg>
