<?xml version="1.0" encoding="utf-8"?>
<!-- Generator: Adobe Illustrator 19.1.0, SVG Export Plug-In . SVG Version: 6.00 Build 0)  -->
<!DOCTYPE svg PUBLIC "-//W3C//DTD SVG 1.1//EN" "http://www.w3.org/Graphics/SVG/1.1/DTD/svg11.dtd">
<svg version="1.1" id="Layer_1" xmlns="http://www.w3.org/2000/svg" xmlns:xlink="http://www.w3.org/1999/xlink" x="0px" y="0px"
	 width="64px" height="64px" viewBox="0 0 64 64" enable-background="new 0 0 64 64" xml:space="preserve">
<path id="color_77_" d="M46,5H7C4.8,5,3,6.8,3,9s1.8,4,4,4h39c0.6,0,1-0.4,1-1V6C47,5.4,46.6,5,46,5z"/>
<path d="M60,32H45c-3,0-5.4,2.2-5.9,5C39,36.7,39,36.3,39,36c0-3.3,2.7-6,6-6h12V16c0-0.6-0.4-1-1-1H7c-1.5,0-2.9-0.6-4-1.5V50
	c0,5,4,9,9,9h44c0.6,0,1-0.4,1-1V44h3c0.6,0,1-0.4,1-1V33C61,32.4,60.6,32,60,32z M45,37h2c0.6,0,1,0.4,1,1s-0.4,1-1,1h-2
	c-0.6,0-1-0.4-1-1S44.4,37,45,37z"/>
</svg>
