<?xml version="1.0" encoding="utf-8"?>
<!-- Generator: Adobe Illustrator 19.1.0, SVG Export Plug-In . SVG Version: 6.00 Build 0)  -->
<!DOCTYPE svg PUBLIC "-//W3C//DTD SVG 1.1//EN" "http://www.w3.org/Graphics/SVG/1.1/DTD/svg11.dtd">
<svg version="1.1" id="Layer_1" xmlns="http://www.w3.org/2000/svg" xmlns:xlink="http://www.w3.org/1999/xlink" x="0px" y="0px"
	 width="64px" height="64px" viewBox="0 0 64 64" enable-background="new 0 0 64 64" xml:space="preserve">
<polygon points="13,1.6 1.6,13 13,13 "/>
<path id="color_73_" d="M48,53c-2.5,0-4.9-0.6-7-1.7V60c0,0.4,0.2,0.7,0.5,0.9c0.3,0.2,0.7,0.2,1,0l5.4-3.6l5.4,3.6
	c0.2,0.1,0.4,0.2,0.6,0.2c0.2,0,0.3,0,0.5-0.1c0.3-0.2,0.5-0.5,0.5-0.9v-8.7C52.9,52.4,50.5,53,48,53z"/>
<path id="color_72_" d="M48,25c-7.2,0-13,5.8-13,13s5.8,13,13,13s13-5.8,13-13S55.2,25,48,25z"/>
<path d="M48,1H15v13c0,0.6-0.4,1-1,1H1v39c0,0.6,0.4,1,1,1h37v-5c-3.8-2.8-6-7.2-6-12c0-8.3,6.7-15,15-15c0.3,0,0.7,0,1,0.1V2
	C49,1.4,48.6,1,48,1z M27,41H10c-0.6,0-1-0.4-1-1s0.4-1,1-1h17c0.6,0,1,0.4,1,1S27.6,41,27,41z M27,33H10c-0.6,0-1-0.4-1-1
	s0.4-1,1-1h17c0.6,0,1,0.4,1,1S27.6,33,27,33z M32,25H10c-0.6,0-1-0.4-1-1s0.4-1,1-1h22c0.6,0,1,0.4,1,1S32.6,25,32,25z"/>
</svg>
