<?xml version="1.0" encoding="utf-8"?>
<!-- Generator: Adobe Illustrator 19.1.0, SVG Export Plug-In . SVG Version: 6.00 Build 0)  -->
<!DOCTYPE svg PUBLIC "-//W3C//DTD SVG 1.1//EN" "http://www.w3.org/Graphics/SVG/1.1/DTD/svg11.dtd">
<svg version="1.1" id="Layer_1" xmlns="http://www.w3.org/2000/svg" xmlns:xlink="http://www.w3.org/1999/xlink" x="0px" y="0px"
	 width="64px" height="64px" viewBox="0 0 64 64" enable-background="new 0 0 64 64" xml:space="preserve">
<path id="color_66_" d="M45.3,40.2c-0.4,0-0.7-0.2-0.9-0.5l-5.3-9.9c-0.3-0.5-0.1-1.1,0.4-1.4c0.5-0.3,1.1-0.1,1.4,0.4l5.3,9.9
	c0.3,0.5,0.1,1.1-0.4,1.4C45.6,40.1,45.5,40.2,45.3,40.2z"/>
<path id="color_65_" d="M21.9,35c-0.2,0-0.3,0-0.5-0.1c-0.5-0.3-0.7-0.9-0.4-1.4l5.2-9.3c0.3-0.5,0.9-0.7,1.4-0.4
	c0.5,0.3,0.7,0.9,0.4,1.4l-5.2,9.3C22.6,34.8,22.2,35,21.9,35z"/>
<path id="color_64_" d="M34,49H24c-0.6,0-1-0.4-1-1s0.4-1,1-1h10c0.6,0,1,0.4,1,1S34.6,49,34,49z"/>
<path d="M14,37C7.9,37,3,41.9,3,48s4.9,11,11,11s11-4.9,11-11S20.1,37,14,37z"/>
<path d="M50,37c-6.1,0-11,4.9-11,11s4.9,11,11,11s11-4.9,11-11S56.1,37,50,37z"/>
<path d="M43,16c0-6.1-4.9-11-11-11S21,9.9,21,16s4.9,11,11,11S43,22.1,43,16z"/>
</svg>
