<?xml version="1.0" encoding="utf-8"?>
<!-- Generator: Adobe Illustrator 19.1.0, SVG Export Plug-In . SVG Version: 6.00 Build 0)  -->
<!DOCTYPE svg PUBLIC "-//W3C//DTD SVG 1.1//EN" "http://www.w3.org/Graphics/SVG/1.1/DTD/svg11.dtd">
<svg version="1.1" id="Layer_1" xmlns="http://www.w3.org/2000/svg" xmlns:xlink="http://www.w3.org/1999/xlink" x="0px" y="0px"
	 width="64px" height="64px" viewBox="0 0 64 64" enable-background="new 0 0 64 64" xml:space="preserve">
<path id="color_88_" d="M58,47H37v2c0,0.6-0.4,1-1,1h-8c-0.6,0-1-0.4-1-1v-2H6c-0.6,0-1,0.4-1,1v11c0,0.6,0.4,1,1,1h52
	c0.6,0,1-0.4,1-1V48C59,47.4,58.6,47,58,47z"/>
<path d="M62,10H43V5c0-0.6-0.4-1-1-1H22c-0.6,0-1,0.4-1,1v5H2c-0.6,0-1,0.4-1,1v33c0,0.6,0.4,1,1,1h25v-4c0-0.6,0.4-1,1-1h8
	c0.6,0,1,0.4,1,1v4h25c0.6,0,1-0.4,1-1V11C63,10.4,62.6,10,62,10z M41,10H23V6h18V10z"/>
</svg>
