<?xml version="1.0" encoding="utf-8"?>
<!-- Generator: Adobe Illustrator 19.1.0, SVG Export Plug-In . SVG Version: 6.00 Build 0)  -->
<!DOCTYPE svg PUBLIC "-//W3C//DTD SVG 1.1//EN" "http://www.w3.org/Graphics/SVG/1.1/DTD/svg11.dtd">
<svg version="1.1" id="Layer_1" xmlns="http://www.w3.org/2000/svg" xmlns:xlink="http://www.w3.org/1999/xlink" x="0px" y="0px"
	 width="64px" height="64px" viewBox="0 0 64 64" enable-background="new 0 0 64 64" xml:space="preserve">
<path d="M62,9H49V2c0-0.6-0.4-1-1-1H16c-0.6,0-1,0.4-1,1v7H2c-0.6,0-1,0.4-1,1v52c0,0.6,0.4,1,1,1h29V22c0-0.6,0.4-1,1-1s1,0.4,1,1
	v41h29c0.6,0,1-0.4,1-1V10C63,9.4,62.6,9,62,9z M29.2,16.6l-10.7,6.7c-0.7,0.4-1.5-0.1-1.5-0.8V4.2L29.3,15
	C29.8,15.4,29.8,16.2,29.2,16.6z M34.7,15L47,4.2v18.2c0,0.8-0.9,1.3-1.5,0.8l-10.7-6.7C34.2,16.2,34.2,15.4,34.7,15z M54,39H44
	c-0.6,0-1-0.4-1-1s0.4-1,1-1h10c0.6,0,1,0.4,1,1S54.6,39,54,39z"/>
</svg>
