<?xml version="1.0" encoding="utf-8"?>
<!-- Generator: Adobe Illustrator 19.1.0, SVG Export Plug-In . SVG Version: 6.00 Build 0)  -->
<!DOCTYPE svg PUBLIC "-//W3C//DTD SVG 1.1//EN" "http://www.w3.org/Graphics/SVG/1.1/DTD/svg11.dtd">
<svg version="1.1" id="Layer_1" xmlns="http://www.w3.org/2000/svg" xmlns:xlink="http://www.w3.org/1999/xlink" x="0px" y="0px"
	 width="64px" height="64px" viewBox="0 0 64 64" enable-background="new 0 0 64 64" xml:space="preserve">
<path id="color_94_" d="M63,8H7C6.4,8,6,8.4,6,9v3h53c0.6,0,1,0.4,1,1v37h3c0.6,0,1-0.4,1-1V9C64,8.4,63.6,8,63,8z"/>
<path d="M42.1,22H15.9c-0.4,4.2-3.7,7.5-7.9,7.9v9.1c4.4,0.6,7.5,4.8,7.9,8.9h26.1c0.4-4.2,3.7-7.5,7.9-7.9V29.9
	C45.8,29.5,42.5,26.2,42.1,22z M29,42c-3.9,0-7-3.1-7-7s3.1-7,7-7s7,3.1,7,7S32.9,42,29,42z"/>
<path d="M57,14H1c-0.6,0-1,0.4-1,1v40c0,0.6,0.4,1,1,1h56c0.6,0,1-0.4,1-1V15C58,14.4,57.6,14,57,14z M52,41c0,0.6-0.4,1-1,1
	c-4,0-7,3-7,7c0,0.6-0.4,1-1,1H15c-0.6,0-1-0.4-1-1c0-3.8-2.9-8-7-8c-0.6,0-1-0.4-1-1V29c0-0.6,0.4-1,1-1c4,0,7-3,7-7
	c0-0.6,0.4-1,1-1h28c0.6,0,1,0.4,1,1c0,4,3,7,7,7c0.6,0,1,0.4,1,1V41z"/>
</svg>
