<?xml version="1.0" encoding="utf-8"?>
<!-- Generator: Adobe Illustrator 19.1.0, SVG Export Plug-In . SVG Version: 6.00 Build 0)  -->
<!DOCTYPE svg PUBLIC "-//W3C//DTD SVG 1.1//EN" "http://www.w3.org/Graphics/SVG/1.1/DTD/svg11.dtd">
<svg version="1.1" id="Layer_1" xmlns="http://www.w3.org/2000/svg" xmlns:xlink="http://www.w3.org/1999/xlink" x="0px" y="0px"
	 width="64px" height="64px" viewBox="0 0 64 64" enable-background="new 0 0 64 64" xml:space="preserve">
<path id="color_61_" d="M42,57H22c-0.6,0-1-0.4-1-1s0.4-1,1-1h20c0.6,0,1,0.4,1,1S42.6,57,42,57z"/>
<path id="color_60_" d="M36,61h-8c-0.6,0-1-0.4-1-1s0.4-1,1-1h8c0.6,0,1,0.4,1,1S36.6,61,36,61z"/>
<path d="M32,1C19.3,1,9,11.3,9,24c0,8.5,4.6,16.1,12,20.2V52c0,0.6,0.4,1,1,1h20c0.6,0,1-0.4,1-1v-7.8c7.4-4,12-11.7,12-20.2
	C55,11.3,44.7,1,32,1z M42.7,28.7l-6,6C36.5,34.9,36.3,35,36,35s-0.5-0.1-0.7-0.3L32,31.4l-3.3,3.3c-0.4,0.4-1,0.4-1.4,0l-6-6
	c-0.4-0.4-0.4-1,0-1.4s1-0.4,1.4,0l5.3,5.3l3.3-3.3c0.4-0.4,1-0.4,1.4,0l3.3,3.3l5.3-5.3c0.4-0.4,1-0.4,1.4,0S43.1,28.3,42.7,28.7z"
	/>
</svg>
