<?xml version="1.0" encoding="utf-8"?>
<!-- Generator: Adobe Illustrator 19.1.0, SVG Export Plug-In . SVG Version: 6.00 Build 0)  -->
<!DOCTYPE svg PUBLIC "-//W3C//DTD SVG 1.1//EN" "http://www.w3.org/Graphics/SVG/1.1/DTD/svg11.dtd">
<svg version="1.1" id="Layer_1" xmlns="http://www.w3.org/2000/svg" xmlns:xlink="http://www.w3.org/1999/xlink" x="0px" y="0px"
	 width="64px" height="64px" viewBox="0 0 64 64" enable-background="new 0 0 64 64" xml:space="preserve">
<path d="M26.7,41c-0.2,0-0.5,0-0.7,0c-8.3,0-15-6.7-15-15s6.7-15,15-15s15,6.7,15,15c0,0.2,0,0.5,0,0.7l9.9,1.3
	c0.1-0.7,0.1-1.3,0.1-2C51,12.2,39.8,1,26,1S1,12.2,1,26s11.2,25,25,25c0.7,0,1.4,0,2-0.1L26.7,41z"/>
<path d="M28,25c0.1,0,0.3,0,0.4,0l2.5,0.3C30.6,22.9,28.5,21,26,21c-2.8,0-5,2.2-5,5c0,2.5,1.9,4.6,4.4,4.9L25,28.4
	c-0.1-0.9,0.2-1.9,0.9-2.5C26.4,25.3,27.2,25,28,25z"/>
<path id="color_53_" d="M60.7,49.3L51.4,40l7.3-7.3c0.3-0.3,0.4-0.7,0.2-1s-0.4-0.6-0.8-0.7l-30-4c-0.3,0-0.6,0.1-0.8,0.3
	c-0.2,0.2-0.3,0.5-0.3,0.8l4,30c0.1,0.4,0.3,0.7,0.7,0.8c0.4,0.1,0.8,0,1-0.2l7.3-7.3l9.3,9.3c0.2,0.2,0.5,0.3,0.7,0.3
	s0.5-0.1,0.7-0.3l10-10C61.1,50.3,61.1,49.7,60.7,49.3z"/>
</svg>
