<?xml version="1.0" encoding="utf-8"?>
<!-- Generator: Adobe Illustrator 19.1.0, SVG Export Plug-In . SVG Version: 6.00 Build 0)  -->
<!DOCTYPE svg PUBLIC "-//W3C//DTD SVG 1.1//EN" "http://www.w3.org/Graphics/SVG/1.1/DTD/svg11.dtd">
<svg version="1.1" id="Layer_1" xmlns="http://www.w3.org/2000/svg" xmlns:xlink="http://www.w3.org/1999/xlink" x="0px" y="0px"
	 width="64px" height="64px" viewBox="0 0 64 64" enable-background="new 0 0 64 64" xml:space="preserve">
<path d="M32,3C16,3,3,16,3,32s13,29,29,29s29-13,29-29S48,3,32,3z M18,23c0-2.8,2.2-5,5-5s5,2.2,5,5s-2.2,5-5,5S18,25.8,18,23z
	 M22.7,42.7C22.5,42.9,22.3,43,22,43s-0.5-0.1-0.7-0.3c-0.4-0.4-0.4-1,0-1.4l20-20c0.4-0.4,1-0.4,1.4,0s0.4,1,0,1.4L22.7,42.7z
	 M41,46c-2.8,0-5-2.2-5-5s2.2-5,5-5s5,2.2,5,5S43.8,46,41,46z"/>
</svg>
