<?xml version="1.0" encoding="utf-8"?>
<!-- Generator: Adobe Illustrator 19.1.0, SVG Export Plug-In . SVG Version: 6.00 Build 0)  -->
<!DOCTYPE svg PUBLIC "-//W3C//DTD SVG 1.1//EN" "http://www.w3.org/Graphics/SVG/1.1/DTD/svg11.dtd">
<svg version="1.1" id="Layer_1" xmlns="http://www.w3.org/2000/svg" xmlns:xlink="http://www.w3.org/1999/xlink" x="0px" y="0px"
	 width="64px" height="64px" viewBox="0 0 64 64" enable-background="new 0 0 64 64" xml:space="preserve">
<path id="color_76_" d="M56.7,27.3l-24-24c-0.4-0.4-1-0.4-1.4,0l-4,4c-0.4,0.4-0.4,1,0,1.4l24,24c0.2,0.2,0.5,0.3,0.7,0.3
	s0.5-0.1,0.7-0.3l4-4C57.1,28.3,57.1,27.7,56.7,27.3z"/>
<path d="M54,63H6c-0.6,0-1-0.4-1-1s0.4-1,1-1h48c0.6,0,1,0.4,1,1S54.6,63,54,63z"/>
<path d="M46.2,30.4L29.6,13.8c-0.3-0.3-0.7-0.4-1.1-0.2l-16.9,7.5c-0.3,0.1-0.5,0.4-0.6,0.7L5.7,50.3c-0.2,1,1,1.6,1.7,0.9
	l14.5-14.5c-1.3-1.9-1.1-4.6,0.6-6.3c0.9-0.9,2.2-1.5,3.5-1.5c1.6,0,3.2,0.8,4.1,2.2c1.2,1.7,1.2,4,0,5.7c-1,1.4-2.5,2.2-4.1,2.2
	c-1,0-1.9-0.3-2.8-0.8L8.8,52.6c-0.7,0.7-0.1,1.9,0.9,1.7L38.2,49c0.3-0.1,0.6-0.3,0.7-0.6l7.5-16.9C46.6,31.2,46.5,30.7,46.2,30.4z
	"/>
</svg>
