<?xml version="1.0" encoding="utf-8"?>
<!-- Generator: Adobe Illustrator 19.1.0, SVG Export Plug-In . SVG Version: 6.00 Build 0)  -->
<!DOCTYPE svg PUBLIC "-//W3C//DTD SVG 1.1//EN" "http://www.w3.org/Graphics/SVG/1.1/DTD/svg11.dtd">
<svg version="1.1" id="Layer_1" xmlns="http://www.w3.org/2000/svg" xmlns:xlink="http://www.w3.org/1999/xlink" x="0px" y="0px"
	 width="64px" height="64px" viewBox="0 0 64 64" enable-background="new 0 0 64 64" xml:space="preserve">
<path id="color_91_" d="M49,40c-9,0-14,2.4-16,8.1V34c0-0.6-0.4-1-1-1s-1,0.4-1,1v28c0,0.6,0.4,1,1,1s1-0.4,1-1v-6
	c10.8,0,17-2.5,17-15C50,40.4,49.6,40,49,40z"/>
<path d="M49.1,9H14.9c-0.4,3.1-2.9,5.5-5.9,5.9v8.1c3.1,0.4,5.5,2.9,5.9,5.9h34.1c0.4-3.1,2.9-5.5,5.9-5.9v-8.1
	C51.9,14.5,49.5,12.1,49.1,9z M32,23c-2.2,0-4-1.8-4-4c0-2.2,1.8-4,4-4s4,1.8,4,4C36,21.2,34.2,23,32,23z"/>
<path d="M62,1H2C1.4,1,1,1.4,1,2v34c0,0.6,0.4,1,1,1h60c0.6,0,1-0.4,1-1V2C63,1.4,62.6,1,62,1z M57,24c0,0.6-0.4,1-1,1
	c-2.8,0-5,2.2-5,5c0,0.6-0.4,1-1,1H14c-0.6,0-1-0.4-1-1c0-2.8-2.2-5-5-5c-0.6,0-1-0.4-1-1V14c0-0.6,0.4-1,1-1c2.8,0,5-2.2,5-5
	c0-0.6,0.4-1,1-1h36c0.6,0,1,0.4,1,1c0,2.8,2.2,5,5,5c0.6,0,1,0.4,1,1V24z"/>
</svg>
