<?xml version="1.0" encoding="utf-8"?>
<!-- Generator: Adobe Illustrator 19.1.0, SVG Export Plug-In . SVG Version: 6.00 Build 0)  -->
<!DOCTYPE svg PUBLIC "-//W3C//DTD SVG 1.1//EN" "http://www.w3.org/Graphics/SVG/1.1/DTD/svg11.dtd">
<svg version="1.1" id="Layer_1" xmlns="http://www.w3.org/2000/svg" xmlns:xlink="http://www.w3.org/1999/xlink" x="0px" y="0px"
	 width="64px" height="64px" viewBox="0 0 64 64" enable-background="new 0 0 64 64" xml:space="preserve">
<path d="M39,7H25c-0.6,0-1,0.4-1,1v48c0,0.6,0.4,1,1,1h14c0.6,0,1-0.4,1-1V8C40,7.4,39.6,7,39,7z"/>
<path id="color_83_" d="M17,35H3c-0.6,0-1,0.4-1,1v20c0,0.6,0.4,1,1,1h14c0.6,0,1-0.4,1-1V36C18,35.4,17.6,35,17,35z"/>
<path id="color_82_" d="M61,22H47c-0.6,0-1,0.4-1,1v33c0,0.6,0.4,1,1,1h14c0.6,0,1-0.4,1-1V23C62,22.4,61.6,22,61,22z"/>
</svg>
