<?xml version="1.0" encoding="utf-8"?>
<!-- Generator: Adobe Illustrator 19.1.0, SVG Export Plug-In . SVG Version: 6.00 Build 0)  -->
<!DOCTYPE svg PUBLIC "-//W3C//DTD SVG 1.1//EN" "http://www.w3.org/Graphics/SVG/1.1/DTD/svg11.dtd">
<svg version="1.1" id="Layer_1" xmlns="http://www.w3.org/2000/svg" xmlns:xlink="http://www.w3.org/1999/xlink" x="0px" y="0px"
	 width="64px" height="64px" viewBox="0 0 64 64" enable-background="new 0 0 64 64" xml:space="preserve">
<path id="color_30_" d="M45.4,14l3.3-3.3c0.4-0.4,0.4-1,0-1.4l-6-6c-0.4-0.4-1-0.4-1.4,0l-26,26C15.1,29.5,15,29.7,15,30v6
	c0,0.6,0.4,1,1,1h6c0.3,0,0.5-0.1,0.7-0.3L44,15.4l2.6,2.6L33.3,31.3c-0.4,0.4-0.4,1,0,1.4c0.2,0.2,0.5,0.3,0.7,0.3s0.5-0.1,0.7-0.3
	l14-14c0.4-0.4,0.4-1,0-1.4L45.4,14z"/>
<path d="M62,29H41.2l-5.1,5.1C35.6,34.7,34.8,35,34,35s-1.6-0.3-2.1-0.9c-0.8-0.8-1.1-2-0.7-3l-7,7C23.6,38.7,22.8,39,22,39h-6
	c-1.7,0-3-1.3-3-3v-6c0-0.3,0.1-0.7,0.2-1H2c-0.6,0-1,0.4-1,1v32c0,0.6,0.4,1,1,1h60c0.6,0,1-0.4,1-1V30C63,29.4,62.6,29,62,29z
	 M30,55H16c-0.6,0-1-0.4-1-1s0.4-1,1-1h14c0.6,0,1,0.4,1,1S30.6,55,30,55z M48,55h-6c-0.6,0-1-0.4-1-1s0.4-1,1-1h6c0.6,0,1,0.4,1,1
	S48.6,55,48,55z M48,47H16c-0.6,0-1-0.4-1-1s0.4-1,1-1h32c0.6,0,1,0.4,1,1S48.6,47,48,47z"/>
</svg>
