<?xml version="1.0" encoding="utf-8"?>
<!-- Generator: Adobe Illustrator 19.1.0, SVG Export Plug-In . SVG Version: 6.00 Build 0)  -->
<!DOCTYPE svg PUBLIC "-//W3C//DTD SVG 1.1//EN" "http://www.w3.org/Graphics/SVG/1.1/DTD/svg11.dtd">
<svg version="1.1" id="Layer_1" xmlns="http://www.w3.org/2000/svg" xmlns:xlink="http://www.w3.org/1999/xlink" x="0px" y="0px"
	 width="64px" height="64px" viewBox="0 0 64 64" enable-background="new 0 0 64 64" xml:space="preserve">
<path id="color_104_" d="M62,45H2c-0.6,0-1,0.4-1,1v2c0,0.6,0.4,1,1,1h21.8L13.2,61.3c-0.4,0.4-0.3,1.1,0.1,1.4
	c0.2,0.2,0.4,0.2,0.7,0.2c0.3,0,0.6-0.1,0.8-0.3L26.5,49H31v11c0,0.6,0.4,1,1,1s1-0.4,1-1V49h4.5l11.7,13.7c0.2,0.2,0.5,0.3,0.8,0.3
	c0.2,0,0.5-0.1,0.7-0.2c0.4-0.4,0.5-1,0.1-1.4L40.2,49H62c0.6,0,1-0.4,1-1v-2C63,45.4,62.6,45,62,45z"/>
<path d="M56,5H37V2c0-0.6-0.4-1-1-1h-8c-0.6,0-1,0.4-1,1v3H8C7.4,5,7,5.4,7,6v36c0,0.6,0.4,1,1,1h48c0.6,0,1-0.4,1-1V6
	C57,5.4,56.6,5,56,5z M32,36c-6.1,0-11-4.9-11-11s4.9-11,11-11v11h11C43,31.1,38.1,36,32,36z"/>
</svg>
