<?xml version="1.0" encoding="utf-8"?>
<!-- Generator: Adobe Illustrator 19.1.0, SVG Export Plug-In . SVG Version: 6.00 Build 0)  -->
<!DOCTYPE svg PUBLIC "-//W3C//DTD SVG 1.1//EN" "http://www.w3.org/Graphics/SVG/1.1/DTD/svg11.dtd">
<svg version="1.1" id="Layer_1" xmlns="http://www.w3.org/2000/svg" xmlns:xlink="http://www.w3.org/1999/xlink" x="0px" y="0px"
	 width="64px" height="64px" viewBox="0 0 64 64" enable-background="new 0 0 64 64" xml:space="preserve">
<path d="M25,45c0-1,0.3-2.1,0.9-3c-0.6-0.9-0.9-2-0.9-3h-7c-0.6,0-1-0.4-1-1c0-4.2-3.1-7.5-6.8-7.5c-0.5,0-1-0.4-1-1L9,18
	c0-0.3,0.1-0.5,0.3-0.7S9.7,17,10,17c4,0,7-3,7-7c0-0.6,0.4-1,1-1h28c0.6,0,1,0.4,1,1c0,4,3,7,7,7c0.6,0,1,0.4,1,1v3.2
	c3.4,0.5,6.2,1.7,8,3.4V2c0-0.6-0.4-1-1-1H2C1.4,1,1,1.4,1,2v44c0,0.6,0.4,1,1,1h23.4C25.1,46.4,25,45.7,25,45z"/>
<path d="M45.1,11H18.9c-0.4,4.2-3.7,7.5-7.9,7.9l0.2,9.6c4.1,0.5,7.4,4,7.8,8.5h6.4c1.4-3.5,6.3-6,12.6-6c0.5,0,0.9,0,1.4,0
	c-0.3-0.7-0.4-1.3-0.4-2c0-4.6,5.6-8,13-8c0.3,0,0.7,0,1,0v-2.1C48.8,18.5,45.5,15.2,45.1,11z M32,31c-3.9,0-7-3.1-7-7s3.1-7,7-7
	s7,3.1,7,7S35.9,31,32,31z"/>
<path id="color_19_" d="M49.2,34.8C50.1,34.9,51,35,52,35c6.2,0,11-2.6,11-6s-4.8-6-11-6s-11,2.6-11,6c0,0.8,0.3,1.6,0.8,2.3
	C45,31.9,47.6,33.1,49.2,34.8z"/>
<path id="color_18_" d="M52,43c-0.5,0-0.9,0-1.4-0.1c0.3,0.7,0.4,1.3,0.4,2.1c0,0.7-0.1,1.3-0.4,2c0.5,0,0.9,0,1.4,0
	c6.2,0,11-2.6,11-6c0-0.5-0.1-0.9-0.3-1.4C60.4,41.7,56.6,43,52,43z"/>
<path id="color_17_" d="M52,37c-0.5,0-0.9,0-1.4-0.1c0.3,0.7,0.4,1.3,0.4,2.1c0,0.7-0.1,1.3-0.4,2c0.5,0,0.9,0,1.4,0
	c6.2,0,11-2.6,11-6c0-0.5-0.1-0.9-0.3-1.4C60.4,35.7,56.6,37,52,37z"/>
<path id="color_16_" d="M52,49c-0.5,0-0.9,0-1.4-0.1c0.3,0.7,0.4,1.3,0.4,2.1c0,0.7-0.1,1.3-0.4,2c0.5,0,0.9,0,1.4,0
	c6.2,0,11-2.6,11-6c0-0.5-0.1-0.9-0.3-1.4C60.4,47.7,56.6,49,52,49z"/>
<path id="color_15_" d="M38,59c-4.6,0-8.4-1.3-10.7-3.4C27.1,56.1,27,56.5,27,57c0,3.4,4.8,6,11,6s11-2.6,11-6
	c0-0.5-0.1-0.9-0.3-1.4C46.4,57.7,42.6,59,38,59z"/>
<path id="color_14_" d="M38,53c-4.6,0-8.4-1.3-10.7-3.4C27.1,50.1,27,50.5,27,51c0,3.4,4.8,6,11,6s11-2.6,11-6
	c0-0.5-0.1-0.9-0.3-1.4C46.4,51.7,42.6,53,38,53z"/>
<path id="color_13_" d="M38,47c-4.6,0-8.4-1.3-10.7-3.4C27.1,44.1,27,44.5,27,45c0,3.4,4.8,6,11,6s11-2.6,11-6
	c0-0.5-0.1-0.9-0.3-1.4C46.4,45.7,42.6,47,38,47z"/>
<path id="color_12_" d="M38,33c-6.2,0-11,2.6-11,6s4.8,6,11,6s11-2.6,11-6S44.2,33,38,33z"/>
</svg>
