<?xml version="1.0" encoding="utf-8"?>
<!-- Generator: Adobe Illustrator 19.1.0, SVG Export Plug-In . SVG Version: 6.00 Build 0)  -->
<!DOCTYPE svg PUBLIC "-//W3C//DTD SVG 1.1//EN" "http://www.w3.org/Graphics/SVG/1.1/DTD/svg11.dtd">
<svg version="1.1" id="Layer_1" xmlns="http://www.w3.org/2000/svg" xmlns:xlink="http://www.w3.org/1999/xlink" x="0px" y="0px"
	 width="64px" height="64px" viewBox="0 0 64 64" enable-background="new 0 0 64 64" xml:space="preserve">
<path d="M62.9,27.7C62.9,27.6,62.9,27.6,62.9,27.7c-0.1-0.1-0.1-0.2-0.1-0.2l-12-18c-0.1-0.1-0.2-0.2-0.3-0.3c0,0,0,0,0,0h0
	c0,0,0,0,0,0h0l0,0C50.4,9,50.2,9,50,9H35.9c-0.4-1.7-2-3-3.9-3s-3.4,1.3-3.9,3H14c-0.2,0-0.4,0-0.6,0.2l0,0h0c0,0,0,0,0,0h0
	c0,0,0,0,0,0c-0.1,0.1-0.2,0.2-0.3,0.3l-12,18c0,0,0,0.1-0.1,0.1c0,0,0,0.1,0,0.1C1,27.8,1,27.9,1,28c0,4.8,6.1,9,13,9s13-4.2,13-9
	c0-0.1,0-0.2-0.1-0.3c0,0,0-0.1,0-0.1c0,0,0-0.1-0.1-0.1L15.9,11h12.3c0.4,1.4,1.5,2.5,2.9,2.9c0,0,0,0.1,0,0.1v41H18
	c-0.6,0-1,0.4-1,1s0.4,1,1,1h28c0.6,0,1-0.4,1-1s-0.4-1-1-1H33V14c0,0,0-0.1,0-0.1c1.4-0.4,2.5-1.5,2.9-2.9h12.3l-11,16.4
	c0,0,0,0.1-0.1,0.1c0,0,0,0.1,0,0.1c0,0.1-0.1,0.2-0.1,0.3c0,4.8,6.1,9,13,9s13-4.2,13-9C63,27.9,63,27.8,62.9,27.7z M24.1,27H3.9
	L14,11.8L24.1,27z M50,11.8L60.1,27H39.9L50,11.8z"/>
</svg>
