<?xml version="1.0" encoding="utf-8"?>
<!-- Generator: Adobe Illustrator 19.1.0, SVG Export Plug-In . SVG Version: 6.00 Build 0)  -->
<!DOCTYPE svg PUBLIC "-//W3C//DTD SVG 1.1//EN" "http://www.w3.org/Graphics/SVG/1.1/DTD/svg11.dtd">
<svg version="1.1" id="Layer_1" xmlns="http://www.w3.org/2000/svg" xmlns:xlink="http://www.w3.org/1999/xlink" x="0px" y="0px"
	 width="64px" height="64px" viewBox="0 0 64 64" enable-background="new 0 0 64 64" xml:space="preserve">
<circle cx="26" cy="38" r="5"/>
<path d="M38.5,29.7c1.6,2.4,2.5,5.2,2.5,8.3c0,8.3-6.7,15-15,15s-15-6.7-15-15s6.7-15,15-15c3.1,0,5.9,0.9,8.3,2.5l7.2-7.2
	C37.2,15,31.8,13,26,13C12.2,13,1,24.2,1,38s11.2,25,25,25s25-11.2,25-25c0-5.8-2-11.2-5.3-15.4L38.5,29.7z"/>
<path id="color_54_" d="M61,11.8c-0.1-0.3-0.3-0.6-0.7-0.7l-4.5-1.5l2.9-2.9c0.4-0.4,0.4-1,0-1.4s-1-0.4-1.4,0l-2.9,2.9l-1.5-4.5
	c-0.1-0.3-0.4-0.6-0.7-0.7c-0.3-0.1-0.7,0-0.9,0.3l-6,6c-0.3,0.3-0.4,0.7-0.2,1l1.8,5.4L25.3,37.3c-0.4,0.4-0.4,1,0,1.4
	c0.2,0.2,0.5,0.3,0.7,0.3s0.5-0.1,0.7-0.3l21.6-21.6l5.4,1.8c0.1,0,0.2,0.1,0.3,0.1c0.3,0,0.5-0.1,0.7-0.3l6-6
	C61,12.5,61.1,12.1,61,11.8z"/>
</svg>
